500 0 14 0           
7 Unknown 11 ACIS 5.0 NT 24 Fri Mar 26 19:59:21 1999 
-1 9.9999999999999995e-007 1e-010 
body $-1 $14 $-1 $15 #
body $-1 $16 $-1 $17 #
body $-1 $18 $-1 $19 #
body $-1 $20 $-1 $21 #
body $-1 $22 $-1 $23 #
body $-1 $24 $-1 $25 #
body $-1 $26 $-1 $27 #
body $-1 $28 $-1 $29 #
body $-1 $30 $-1 $31 #
body $-1 $32 $-1 $33 #
body $-1 $34 $-1 $35 #
body $-1 $36 $-1 $37 #
body $-1 $38 $-1 $39 #
body $-1 $40 $-1 $41 #
lump $-1 $-1 $42 $0 #
transform $-1 1 0 0 0 1 0 0 0 1 52.880031739249858 28.265084624589303 7.9422067066108779 1 rotate no_reflect no_shear #
lump $-1 $-1 $43 $1 #
transform $-1 1 0 0 0 1 0 0 0 1 52.880031739249858 28.265084624589303 7.9422067066108779 1 rotate no_reflect no_shear #
lump $-1 $-1 $44 $2 #
transform $-1 1 0 0 0 1 0 0 0 1 52.880031739249858 28.265084624589303 7.9422067066108779 1 rotate no_reflect no_shear #
lump $-1 $-1 $45 $3 #
transform $-1 1 0 0 0 1 0 0 0 1 52.880031739249858 28.265084624589303 7.9422067066108779 1 rotate no_reflect no_shear #
lump $-1 $-1 $46 $4 #
transform $-1 1 0 0 0 1 0 0 0 1 52.880031739249858 28.265084624589303 7.9422067066108779 1 rotate no_reflect no_shear #
lump $-1 $-1 $47 $5 #
transform $-1 1 0 0 0 1 0 0 0 1 52.880031739249858 28.265084624589303 7.9422067066108779 1 rotate no_reflect no_shear #
lump $-1 $-1 $48 $6 #
transform $-1 1 0 0 0 1 0 0 0 1 52.880031739249858 28.265084624589303 7.9422067066108779 1 rotate no_reflect no_shear #
lump $-1 $-1 $49 $7 #
transform $-1 1 0 0 0 1 0 0 0 1 52.880031739249858 28.265084624589303 7.9422067066108779 1 rotate no_reflect no_shear #
lump $-1 $-1 $50 $8 #
transform $-1 1 0 0 0 1 0 0 0 1 52.880031739249858 28.265084624589303 7.9422067066108779 1 rotate no_reflect no_shear #
lump $-1 $-1 $51 $9 #
transform $-1 1 0 0 0 1 0 0 0 1 52.880031739249858 28.265084624589303 7.9422067066108779 1 rotate no_reflect no_shear #
lump $-1 $-1 $52 $10 #
transform $-1 1 0 0 0 1 0 0 0 1 52.880031739249858 28.265084624589303 7.9422067066108779 1 rotate no_reflect no_shear #
lump $-1 $-1 $53 $11 #
transform $-1 1 0 0 0 1 0 0 0 1 52.880031739249858 28.265084624589303 7.9422067066108779 1 rotate no_reflect no_shear #
lump $-1 $-1 $54 $12 #
transform $-1 1 0 0 0 1 0 0 0 1 52.880031739249858 28.265084624589303 7.9422067066108779 1 rotate no_reflect no_shear #
lump $-1 $-1 $55 $13 #
transform $-1 1 0 0 0 1 0 0 0 1 52.880031739249858 28.265084624589303 7.9422067066108779 1 rotate no_reflect no_shear #
shell $-1 $-1 $-1 $56 $-1 $14 #
shell $-1 $-1 $-1 $57 $-1 $16 #
shell $-1 $-1 $-1 $58 $-1 $18 #
shell $-1 $-1 $-1 $59 $-1 $20 #
shell $-1 $-1 $-1 $60 $-1 $22 #
shell $-1 $-1 $-1 $61 $-1 $24 #
shell $-1 $-1 $-1 $62 $-1 $26 #
shell $-1 $-1 $-1 $63 $-1 $28 #
shell $-1 $-1 $-1 $64 $-1 $30 #
shell $-1 $-1 $-1 $65 $-1 $32 #
shell $-1 $-1 $-1 $66 $-1 $34 #
shell $-1 $-1 $-1 $67 $-1 $36 #
shell $-1 $-1 $-1 $68 $-1 $38 #
shell $-1 $-1 $-1 $69 $-1 $40 #
face $-1 $70 $71 $42 $-1 $72 forward single #
face $-1 $73 $74 $43 $-1 $75 forward single #
face $-1 $76 $77 $44 $-1 $78 reversed single #
face $-1 $79 $80 $45 $-1 $81 forward single #
face $-1 $82 $83 $46 $-1 $84 reversed single #
face $-1 $85 $86 $47 $-1 $87 forward single #
face $-1 $88 $89 $48 $-1 $90 reversed single #
face $-1 $91 $92 $49 $-1 $93 forward single #
face $-1 $94 $95 $50 $-1 $96 forward single #
face $-1 $97 $98 $51 $-1 $99 forward single #
face $-1 $100 $101 $52 $-1 $102 reversed single #
face $-1 $103 $104 $53 $-1 $105 forward single #
face $-1 $106 $107 $54 $-1 $108 forward single #
face $-1 $109 $110 $55 $-1 $111 forward single #
face $-1 $112 $113 $42 $-1 $114 reversed single #
loop $-1 $-1 $115 $56 #
plane-surface $-1 0 0 7.9422067066108779 0 0 1 1 0 0 forward_v I I I I #
face $-1 $116 $117 $43 $-1 $118 reversed single #
loop $-1 $-1 $119 $57 #
plane-surface $-1 -52.880031739249858 0 0 1 0 0 0 0 -1 forward_v I I I I #
face $-1 $120 $121 $44 $-1 $122 reversed single #
loop $-1 $-1 $123 $58 #
plane-surface $-1 -37.208295527179907 34.279732494668934 124.14736469146465 1 0 0 0 -0.51503808176128008 -0.85716729658548041 forward_v I I I I #
face $-1 $124 $125 $45 $-1 $126 forward single #
loop $-1 $127 $128 $59 #
cone-surface $-1 -27.808492767135149 24.163714402194032 4.2702987985308063 0 -0.51503808176128008 -0.85716729658548041 1.5 0 0 1 I I 0 1 1.5 forward I I I I #
face $-1 $129 $130 $46 $-1 $131 reversed single #
loop $-1 $-1 $132 $60 #
plane-surface $-1 12.286053988871291 34.279732494668934 124.14736469146465 1 0 0 0 -0.51503808176128008 -0.85716729658548041 forward_v I I I I #
face $-1 $133 $134 $47 $-1 $135 forward single #
loop $-1 $136 $137 $61 #
cone-surface $-1 21.685856748916052 24.163714402194032 4.2702987985308063 0 -0.51503808176128008 -0.85716729658548041 1.5 0 0 1 I I 0 1 1.5 forward I I I I #
face $-1 $138 $139 $48 $-1 $140 reversed single #
loop $-1 $-1 $141 $62 #
plane-surface $-1 -22.344837329905452 -101.73219884328087 78.257652159780662 -1 0 0 0 -0.69465837861970381 0.71933979245794832 forward_v I I I I #
face $-1 $142 $143 $49 $-1 $144 forward single #
loop $-1 $145 $146 $63 #
cone-surface $-1 -37.968901577538396 -24.780843000574215 4.5425306336675764 0 0.69465837861970381 -0.71933979245794832 1 0 0 1 I I 0 1 1 forward I I I I #
face $-1 $147 $148 $50 $-1 $149 forward single #
loop $-1 $150 $151 $64 #
cone-surface $-1 -32.109877484676041 -24.780843000574215 4.5425306336675764 0 0.69465837861970381 -0.71933979245794832 1 0 0 1 I I 0 1 1 forward I I I I #
face $-1 $152 $153 $51 $-1 $154 forward single #
loop $-1 $155 $156 $65 #
cone-surface $-1 -26.250853391813688 -24.780843000574215 4.5425306336675764 0 0.69465837861970381 -0.71933979245794832 1 0 0 1 I I 0 1 1 forward I I I I #
face $-1 $157 $158 $52 $-1 $159 reversed single #
loop $-1 $-1 $160 $66 #
plane-surface $-1 48.646282085843922 -101.73219884328087 78.257652159780662 -1 0 0 0 -0.69465837861970381 0.71933979245794832 forward_v I I I I #
face $-1 $161 $162 $53 $-1 $163 forward single #
loop $-1 $164 $165 $67 #
cone-surface $-1 33.022217838210992 -24.780843000574215 4.5425306336675764 0 0.69465837861970381 -0.71933979245794832 1 0 0 1 I I 0 1 1 forward I I I I #
face $-1 $166 $167 $54 $-1 $168 forward single #
loop $-1 $169 $170 $68 #
cone-surface $-1 38.881241931073333 -24.780843000574215 4.5425306336675764 0 0.69465837861970381 -0.71933979245794832 1 0 0 1 I I 0 1 1 forward I I I I #
face $-1 $171 $172 $55 $-1 $173 forward single #
loop $-1 $174 $175 $69 #
cone-surface $-1 44.740266023935689 -24.780843000574215 4.5425306336675764 0 0.69465837861970381 -0.71933979245794832 1 0 0 1 I I 0 1 1 forward I I I I #
face $-1 $176 $177 $42 $-1 $178 reversed single #
loop $-1 $-1 $179 $70 #
plane-surface $-1 0 0 -7.9422067066108779 0 0 1 1 0 0 forward_v I I I I #
coedge $-1 $180 $181 $182 $183 forward $71 $-1 #
face $-1 $184 $185 $43 $-1 $186 forward single #
loop $-1 $-1 $187 $73 #
plane-surface $-1 0 28.265084624589303 0 0 -1 0 0 0 -1 forward_v I I I I #
coedge $-1 $188 $189 $190 $191 forward $74 $-1 #
face $-1 $192 $193 $44 $-1 $194 reversed single #
loop $-1 $-1 $195 $76 #
plane-surface $-1 -27.808492767135146 -20.190727726248774 33.493296992890237 0 0.51503808176128008 0.85716729658548041 1 0 0 forward_v I I I I #
coedge $-1 $196 $197 $198 $199 reversed $77 $-1 #
face $-1 $-1 $200 $45 $-1 $201 forward single #
loop $-1 $202 $203 $79 #
cone-surface $-1 -27.808492767135149 22.641894521275869 1.7375652407406621 0 -0.51503808176128008 -0.85716729658548041 0.75 0 0 1 I I -0.70710678118654757 0.70710678118654757 0.75 forward I I I I #
loop $-1 $-1 $204 $59 #
coedge $-1 $128 $128 $205 $206 reversed $80 $-1 #
face $-1 $207 $208 $46 $-1 $209 reversed single #
loop $-1 $-1 $210 $82 #
plane-surface $-1 21.685856748916052 -20.190727726248774 33.493296992890237 0 0.51503808176128008 0.85716729658548041 1 0 0 forward_v I I I I #
coedge $-1 $211 $212 $213 $214 reversed $83 $-1 #
face $-1 $-1 $215 $47 $-1 $216 forward single #
loop $-1 $217 $218 $85 #
cone-surface $-1 21.685856748916052 22.641894521275869 1.7375652407406621 0 -0.51503808176128008 -0.85716729658548041 0.75 0 0 1 I I -0.70710678118654757 0.70710678118654757 0.75 forward I I I I #
loop $-1 $-1 $219 $61 #
coedge $-1 $137 $137 $220 $221 reversed $86 $-1 #
face $-1 $222 $223 $48 $-1 $224 reversed single #
loop $-1 $-1 $225 $88 #
plane-surface $-1 -32.109877484676041 -28.265084624589306 2.1802300468172291 0 -0.69465837861970381 0.71933979245794832 1 0 0 forward_v I I I I #
coedge $-1 $226 $227 $228 $229 reversed $89 $-1 #
face $-1 $-1 $230 $49 $-1 $231 forward single #
loop $-1 $232 $233 $91 #
cone-surface $-1 -37.968901577538396 -23.932622868802504 3.664172994392124 0 0.69465837861970381 -0.71933979245794832 0.5 0 0 1 I I -0.70710678118654746 0.70710678118654746 0.5 forward I I I I #
loop $-1 $-1 $234 $63 #
coedge $-1 $146 $146 $235 $236 reversed $92 $-1 #
face $-1 $-1 $237 $50 $-1 $238 forward single #
loop $-1 $239 $240 $94 #
cone-surface $-1 -32.109877484676041 -23.932622868802504 3.664172994392124 0 0.69465837861970381 -0.71933979245794832 0.5 0 0 1 I I -0.70710678118654746 0.70710678118654746 0.5 forward I I I I #
loop $-1 $-1 $241 $64 #
coedge $-1 $151 $151 $242 $243 reversed $95 $-1 #
face $-1 $-1 $244 $51 $-1 $245 forward single #
loop $-1 $246 $247 $97 #
cone-surface $-1 -26.250853391813688 -23.932622868802504 3.664172994392124 0 0.69465837861970381 -0.71933979245794832 0.5 0 0 1 I I -0.70710678118654746 0.70710678118654746 0.5 forward I I I I #
loop $-1 $-1 $248 $65 #
coedge $-1 $156 $156 $249 $250 reversed $98 $-1 #
face $-1 $251 $252 $52 $-1 $253 reversed single #
loop $-1 $-1 $254 $100 #
plane-surface $-1 38.881241931073333 -28.265084624589306 2.1802300468172291 0 -0.69465837861970381 0.71933979245794832 1 0 0 forward_v I I I I #
coedge $-1 $255 $256 $257 $258 reversed $101 $-1 #
face $-1 $-1 $259 $53 $-1 $260 forward single #
loop $-1 $261 $262 $103 #
cone-surface $-1 33.022217838210992 -23.932622868802504 3.664172994392124 0 0.69465837861970381 -0.71933979245794832 0.5 0 0 1 I I -0.70710678118654746 0.70710678118654746 0.5 forward I I I I #
loop $-1 $-1 $263 $67 #
coedge $-1 $165 $165 $264 $265 reversed $104 $-1 #
face $-1 $-1 $266 $54 $-1 $267 forward single #
loop $-1 $268 $269 $106 #
cone-surface $-1 38.881241931073333 -23.932622868802504 3.664172994392124 0 0.69465837861970381 -0.71933979245794832 0.5 0 0 1 I I -0.70710678118654746 0.70710678118654746 0.5 forward I I I I #
loop $-1 $-1 $270 $68 #
coedge $-1 $170 $170 $271 $272 reversed $107 $-1 #
face $-1 $-1 $273 $55 $-1 $274 forward single #
loop $-1 $275 $276 $109 #
cone-surface $-1 44.740266023935689 -23.932622868802504 3.664172994392124 0 0.69465837861970381 -0.71933979245794832 0.5 0 0 1 I I -0.70710678118654746 0.70710678118654746 0.5 forward I I I I #
loop $-1 $-1 $277 $69 #
coedge $-1 $175 $175 $278 $279 reversed $110 $-1 #
face $-1 $280 $281 $42 $-1 $282 reversed single #
loop $-1 $-1 $283 $112 #
plane-surface $-1 0 -28.265084624589303 0 0 1 0 0 0 1 forward_v I I I I #
coedge $-1 $284 $285 $286 $287 forward $113 $-1 #
coedge $-1 $288 $115 $289 $290 forward $71 $-1 #
coedge $-1 $115 $288 $291 $292 forward $71 $-1 #
coedge $-1 $293 $294 $115 $183 reversed $295 $-1 #
edge $-1 $296 -28.265084624589303 $297 28.265084624589303 $182 $298 forward 7 unknown #
face $-1 $299 $300 $43 $-1 $301 reversed single #
loop $-1 $-1 $190 $116 #
plane-surface $-1 -56.265713962448515 0 -4.3663109717974899 0 0 1 1 0 0 forward_v I I I I #
coedge $-1 $302 $303 $189 $304 forward $117 $-1 #
coedge $-1 $305 $119 $306 $307 reversed $74 $-1 #
coedge $-1 $119 $305 $187 $304 reversed $74 $-1 #
coedge $-1 $308 $309 $119 $191 reversed $185 $-1 #
edge $-1 $310 -28.265084624589303 $311 28.265084624589303 $190 $312 forward 7 unknown #
face $-1 $313 $314 $44 $-1 $315 forward single #
loop $-1 $-1 $316 $120 #
plane-surface $-1 -18.408690007090385 34.279732494668934 124.14736469146465 -1 0 0 0 0.51503808176128008 0.85716729658548041 forward_v I I I I #
coedge $-1 $317 $318 $319 $320 reversed $121 $-1 #
coedge $-1 $197 $123 $321 $322 reversed $77 $-1 #
coedge $-1 $123 $196 $317 $323 reversed $77 $-1 #
coedge $-1 $319 $324 $123 $199 forward $314 $-1 #
edge $-1 $325 -11.125218377254836 $326 -5.1935605716586579 $198 $327 forward 7 unknown #
loop $-1 $-1 $205 $124 #
plane-surface $-1 -27.808492767135146 -20.190727726248774 33.493296992890237 0 0.51503808176128008 0.85716729658548041 1 0 0 forward_v I I I I #
loop $-1 $-1 $328 $79 #
coedge $-1 $203 $203 $204 $329 reversed $125 $-1 #
coedge $-1 $204 $204 $203 $329 forward $127 $-1 #
coedge $-1 $205 $205 $128 $206 forward $200 $-1 #
edge $-1 $330 -8.19060929004345e-016 $330 6.2831853071795996 $205 $331 forward 7 unknown #
face $-1 $332 $333 $46 $-1 $334 forward single #
loop $-1 $-1 $335 $129 #
plane-surface $-1 31.085659508960813 34.279732494668934 124.14736469146465 -1 0 0 0 0.51503808176128008 0.85716729658548041 forward_v I I I I #
coedge $-1 $336 $337 $338 $339 reversed $130 $-1 #
coedge $-1 $212 $132 $340 $341 reversed $83 $-1 #
coedge $-1 $132 $211 $336 $342 reversed $83 $-1 #
coedge $-1 $338 $343 $132 $214 forward $333 $-1 #
edge $-1 $344 -11.125218377254836 $345 -5.1935605716586579 $213 $346 forward 7 unknown #
loop $-1 $-1 $220 $133 #
plane-surface $-1 21.685856748916052 -20.190727726248774 33.493296992890237 0 0.51503808176128008 0.85716729658548041 1 0 0 forward_v I I I I #
loop $-1 $-1 $347 $85 #
coedge $-1 $218 $218 $219 $348 reversed $134 $-1 #
coedge $-1 $219 $219 $218 $348 forward $136 $-1 #
coedge $-1 $220 $220 $137 $221 forward $215 $-1 #
edge $-1 $349 -8.19060929004345e-016 $349 6.2831853071795996 $220 $350 forward 7 unknown #
face $-1 $351 $352 $48 $-1 $353 reversed single #
loop $-1 $-1 $354 $138 #
plane-surface $-1 -41.874917639446629 -101.73219884328087 78.257652159780662 1 0 0 0 0.69465837861970381 -0.71933979245794832 forward_v I I I I #
coedge $-1 $355 $356 $357 $358 reversed $139 $-1 #
coedge $-1 $227 $141 $359 $360 reversed $89 $-1 #
coedge $-1 $141 $226 $355 $361 reversed $89 $-1 #
coedge $-1 $357 $362 $141 $229 forward $363 $-1 #
edge $-1 $364 22.601014797051132 $365 28.56771616015758 $228 $366 forward 7 unknown #
loop $-1 $-1 $235 $142 #
plane-surface $-1 -32.109877484676041 -28.265084624589306 2.1802300468172291 0 -0.69465837861970381 0.71933979245794832 1 0 0 forward_v I I I I #
loop $-1 $-1 $367 $91 #
coedge $-1 $233 $233 $234 $368 reversed $143 $-1 #
coedge $-1 $234 $234 $233 $368 forward $145 $-1 #
coedge $-1 $235 $235 $146 $236 forward $230 $-1 #
edge $-1 $369 1.3216471584630668e-015 $369 6.2831853071796013 $235 $370 forward 7 unknown #
loop $-1 $-1 $242 $147 #
plane-surface $-1 -32.109877484676041 -28.265084624589306 2.1802300468172291 0 -0.69465837861970381 0.71933979245794832 1 0 0 forward_v I I I I #
loop $-1 $-1 $371 $94 #
coedge $-1 $240 $240 $241 $372 reversed $148 $-1 #
coedge $-1 $241 $241 $240 $372 forward $150 $-1 #
coedge $-1 $242 $242 $151 $243 forward $237 $-1 #
edge $-1 $373 1.3216471584630668e-015 $373 6.2831853071796013 $242 $374 forward 7 unknown #
loop $-1 $-1 $249 $152 #
plane-surface $-1 -32.109877484676041 -28.265084624589306 2.1802300468172291 0 -0.69465837861970381 0.71933979245794832 1 0 0 forward_v I I I I #
loop $-1 $-1 $375 $97 #
coedge $-1 $247 $247 $248 $376 reversed $153 $-1 #
coedge $-1 $248 $248 $247 $376 forward $155 $-1 #
coedge $-1 $249 $249 $156 $250 forward $244 $-1 #
edge $-1 $377 1.3216471584630668e-015 $377 6.2831853071796013 $249 $378 forward 7 unknown #
face $-1 $379 $380 $52 $-1 $381 reversed single #
loop $-1 $-1 $382 $157 #
plane-surface $-1 29.116201776302745 -101.73219884328087 78.257652159780662 1 0 0 0 0.69465837861970381 -0.71933979245794832 forward_v I I I I #
coedge $-1 $383 $384 $385 $386 reversed $158 $-1 #
coedge $-1 $256 $160 $387 $388 reversed $101 $-1 #
coedge $-1 $160 $255 $383 $389 reversed $101 $-1 #
coedge $-1 $385 $390 $160 $258 forward $391 $-1 #
edge $-1 $392 22.601014797051132 $393 28.56771616015758 $257 $394 forward 7 unknown #
loop $-1 $-1 $264 $161 #
plane-surface $-1 38.881241931073333 -28.265084624589306 2.1802300468172291 0 -0.69465837861970381 0.71933979245794832 1 0 0 forward_v I I I I #
loop $-1 $-1 $395 $103 #
coedge $-1 $262 $262 $263 $396 reversed $162 $-1 #
coedge $-1 $263 $263 $262 $396 forward $164 $-1 #
coedge $-1 $264 $264 $165 $265 forward $259 $-1 #
edge $-1 $397 1.3216471584630668e-015 $397 6.2831853071796013 $264 $398 forward 7 unknown #
loop $-1 $-1 $271 $166 #
plane-surface $-1 38.881241931073333 -28.265084624589306 2.1802300468172291 0 -0.69465837861970381 0.71933979245794832 1 0 0 forward_v I I I I #
loop $-1 $-1 $399 $106 #
coedge $-1 $269 $269 $270 $400 reversed $167 $-1 #
coedge $-1 $270 $270 $269 $400 forward $169 $-1 #
coedge $-1 $271 $271 $170 $272 forward $266 $-1 #
edge $-1 $401 1.3216471584630668e-015 $401 6.2831853071796013 $271 $402 forward 7 unknown #
loop $-1 $-1 $278 $171 #
plane-surface $-1 38.881241931073333 -28.265084624589306 2.1802300468172291 0 -0.69465837861970381 0.71933979245794832 1 0 0 forward_v I I I I #
loop $-1 $-1 $403 $109 #
coedge $-1 $276 $276 $277 $404 reversed $172 $-1 #
coedge $-1 $277 $277 $276 $404 forward $174 $-1 #
coedge $-1 $278 $278 $175 $279 forward $273 $-1 #
edge $-1 $405 1.3216471584630668e-015 $405 6.2831853071796013 $278 $406 forward 7 unknown #
face $-1 $407 $408 $42 $-1 $409 reversed single #
loop $-1 $-1 $410 $176 #
plane-surface $-1 -52.880031739249858 0 0 1 0 0 0 0 -1 forward_v I I I I #
coedge $-1 $411 $291 $410 $412 forward $177 $-1 #
coedge $-1 $413 $179 $411 $414 forward $113 $-1 #
coedge $-1 $179 $413 $415 $416 forward $113 $-1 #
coedge $-1 $294 $293 $179 $287 reversed $295 $-1 #
edge $-1 $417 -28.265084624589303 $418 28.265084624589303 $286 $419 forward 7 unknown #
coedge $-1 $181 $180 $420 $421 forward $71 $-1 #
coedge $-1 $422 $423 $180 $290 reversed $408 $-1 #
edge $-1 $297 -52.880031739249858 $424 52.880031739249858 $289 $425 forward 7 unknown #
coedge $-1 $283 $426 $181 $292 reversed $177 $-1 #
edge $-1 $427 -52.880031739249858 $296 52.880031739249858 $291 $428 forward 7 unknown #
coedge $-1 $286 $182 $426 $429 forward $295 $-1 #
coedge $-1 $182 $286 $422 $430 reversed $295 $-1 #
loop $-1 $-1 $293 $407 #
vertex $-1 $183 $431 #
vertex $-1 $183 $432 #
straight-curve $-1 52.880031739249858 0 7.9422067066108779 0 1 0 I I #
face $-1 $433 $434 $43 $-1 $435 reversed single #
loop $-1 $-1 $436 $184 #
plane-surface $-1 -59.651396185647172 0 -6.1542588392041839 1 0 0 0 0 -1 forward_v I I I I #
coedge $-1 $437 $187 $438 $439 reversed $117 $-1 #
coedge $-1 $187 $437 $308 $440 reversed $117 $-1 #
edge $-1 $310 4.3663109717974899 $441 7.9422067066108779 $187 $442 forward 7 unknown #
coedge $-1 $189 $188 $443 $444 reversed $74 $-1 #
coedge $-1 $445 $446 $188 $307 forward $447 $-1 #
edge $-1 $448 -7.9422067066108779 $311 -4.3663109717974899 $306 $449 forward 7 unknown #
coedge $-1 $450 $190 $303 $440 forward $185 $-1 #
coedge $-1 $190 $450 $445 $451 forward $185 $-1 #
vertex $-1 $304 $452 #
vertex $-1 $451 $453 #
straight-curve $-1 -52.880031739249858 0 -4.3663109717974899 0 -1 0 I I #
face $-1 $-1 $454 $44 $-1 $455 reversed single #
loop $-1 $-1 $198 $192 #
plane-surface $-1 0 0 7.9422067066108779 0 0 1 1 0 0 forward_v I I I I #
coedge $-1 $456 $457 $458 $459 reversed $193 $-1 #
coedge $-1 $460 $195 $197 $323 forward $121 $-1 #
coedge $-1 $195 $460 $456 $461 forward $121 $-1 #
coedge $-1 $458 $198 $195 $320 forward $314 $-1 #
edge $-1 $326 -23.304049143612332 $462 -4.5044436235228122 $319 $463 forward 7 unknown #
coedge $-1 $464 $465 $196 $322 forward $454 $-1 #
edge $-1 $466 -57.695575284579533 $325 -54.131475639121447 $321 $467 forward 7 unknown #
edge $-1 $326 49.610099119082768 $466 56.530169249178599 $197 $468 forward 7 unknown #
coedge $-1 $198 $458 $464 $469 forward $314 $-1 #
vertex $-1 $322 $470 #
vertex $-1 $199 $471 #
straight-curve $-1 -37.208295527179907 17.139866247334467 7.9422067066108752 0 -1 0 I I #
coedge $-1 $328 $328 $-1 $472 reversed $202 $-1 #
edge $-1 $473 0 $473 6.2831853071796004 $203 $474 forward 7 unknown #
vertex $-1 $206 $475 #
ellipse-curve $-1 -27.808492767135149 25.299255721791223 6.1601568838818253 0 0.51503808176128008 0.85716729658548041 1.5 0 0 1 I I #
face $-1 $-1 $476 $46 $-1 $477 reversed single #
loop $-1 $-1 $213 $207 #
plane-surface $-1 0 0 7.9422067066108779 0 0 1 1 0 0 forward_v I I I I #
coedge $-1 $478 $479 $480 $481 reversed $208 $-1 #
coedge $-1 $482 $210 $212 $342 forward $130 $-1 #
coedge $-1 $210 $482 $478 $483 forward $130 $-1 #
coedge $-1 $480 $213 $210 $339 forward $333 $-1 #
edge $-1 $345 1.4431256144132654 $484 20.242731134502787 $338 $485 forward 7 unknown #
coedge $-1 $486 $487 $211 $341 forward $476 $-1 #
edge $-1 $488 -57.695575284579533 $344 -54.131475639121447 $340 $489 forward 7 unknown #
edge $-1 $345 49.610099119082768 $488 56.530169249178599 $212 $490 forward 7 unknown #
coedge $-1 $213 $480 $486 $491 forward $333 $-1 #
vertex $-1 $214 $492 #
vertex $-1 $214 $493 #
straight-curve $-1 12.286053988871291 17.139866247334467 7.9422067066108752 0 -1 0 I I #
coedge $-1 $347 $347 $-1 $494 reversed $217 $-1 #
edge $-1 $495 0 $495 6.2831853071796004 $218 $496 forward 7 unknown #
vertex $-1 $221 $497 #
ellipse-curve $-1 21.685856748916052 25.299255721791223 6.1601568838818253 0 0.51503808176128008 0.85716729658548041 1.5 0 0 1 I I #
face $-1 $-1 $363 $48 $-1 $498 forward single #
loop $-1 $-1 $499 $222 #
plane-surface $-1 0 -28.265084624589303 0 0 1 0 0 0 1 forward_v I I I I #
coedge $-1 $500 $501 $502 $503 reversed $223 $-1 #
coedge $-1 $504 $225 $227 $361 forward $139 $-1 #
coedge $-1 $225 $504 $500 $505 forward $139 $-1 #
coedge $-1 $502 $228 $225 $358 forward $363 $-1 #
edge $-1 $365 6.289898587567432 $506 25.819978897108609 $357 $507 forward 7 unknown #
coedge $-1 $508 $509 $226 $360 forward $352 $-1 #
edge $-1 $510 -36.948596033073102 $364 -31.186619373279452 $359 $511 forward 7 unknown #
edge $-1 $365 -8.2946910843323849 $510 -5.0235306441864656e-015 $227 $512 forward 7 unknown #
coedge $-1 $228 $502 $508 $513 forward $363 $-1 #
loop $-1 $-1 $502 $351 #
vertex $-1 $360 $514 #
vertex $-1 $229 $515 #
straight-curve $-1 -22.344837329905452 -50.866099421640435 7.9422067066108752 0 1 0 I I #
coedge $-1 $367 $367 $-1 $516 reversed $232 $-1 #
edge $-1 $517 0 $517 6.2831853071796004 $233 $518 forward 7 unknown #
vertex $-1 $236 $519 #
ellipse-curve $-1 -37.968901577538396 -25.281733943036077 5.0612183767140566 0 -0.69465837861970381 0.71933979245794832 1 0 0 1 I I #
coedge $-1 $371 $371 $-1 $520 reversed $239 $-1 #
edge $-1 $521 0 $521 6.2831853071796004 $240 $522 forward 7 unknown #
vertex $-1 $243 $523 #
ellipse-curve $-1 -32.109877484676041 -25.281733943036077 5.0612183767140566 0 -0.69465837861970381 0.71933979245794832 1 0 0 1 I I #
coedge $-1 $375 $375 $-1 $524 reversed $246 $-1 #
edge $-1 $525 0 $525 6.2831853071796004 $247 $526 forward 7 unknown #
vertex $-1 $250 $527 #
ellipse-curve $-1 -26.250853391813688 -25.281733943036077 5.0612183767140566 0 -0.69465837861970381 0.71933979245794832 1 0 0 1 I I #
face $-1 $-1 $391 $52 $-1 $528 forward single #
loop $-1 $-1 $529 $251 #
plane-surface $-1 0 -28.265084624589303 0 0 1 0 0 0 1 forward_v I I I I #
coedge $-1 $530 $531 $532 $533 reversed $252 $-1 #
coedge $-1 $534 $254 $256 $389 forward $158 $-1 #
coedge $-1 $254 $534 $530 $535 forward $158 $-1 #
coedge $-1 $532 $257 $254 $386 forward $391 $-1 #
edge $-1 $393 -29.205661120307255 $536 -9.6755808107660783 $385 $537 forward 7 unknown #
coedge $-1 $538 $539 $255 $388 forward $380 $-1 #
edge $-1 $540 -36.948596033073102 $392 -31.186619373279452 $387 $541 forward 7 unknown #
edge $-1 $393 -8.2946910843323849 $540 -5.0235306441864656e-015 $256 $542 forward 7 unknown #
coedge $-1 $257 $532 $538 $543 forward $391 $-1 #
loop $-1 $-1 $532 $379 #
vertex $-1 $388 $544 #
vertex $-1 $258 $545 #
straight-curve $-1 48.646282085843922 -50.866099421640435 7.9422067066108752 0 1 0 I I #
coedge $-1 $395 $395 $-1 $546 reversed $261 $-1 #
edge $-1 $547 0 $547 6.2831853071796004 $262 $548 forward 7 unknown #
vertex $-1 $265 $549 #
ellipse-curve $-1 33.022217838210992 -25.281733943036077 5.0612183767140566 0 -0.69465837861970381 0.71933979245794832 1 0 0 1 I I #
coedge $-1 $399 $399 $-1 $550 reversed $268 $-1 #
edge $-1 $551 0 $551 6.2831853071796004 $269 $552 forward 7 unknown #
vertex $-1 $272 $553 #
ellipse-curve $-1 38.881241931073333 -25.281733943036077 5.0612183767140566 0 -0.69465837861970381 0.71933979245794832 1 0 0 1 I I #
coedge $-1 $403 $403 $-1 $554 reversed $275 $-1 #
edge $-1 $555 0 $555 6.2831853071796004 $276 $556 forward 7 unknown #
vertex $-1 $279 $557 #
ellipse-curve $-1 44.740266023935689 -25.281733943036077 5.0612183767140566 0 -0.69465837861970381 0.71933979245794832 1 0 0 1 I I #
face $-1 $-1 $295 $42 $-1 $558 reversed single #
loop $-1 $-1 $422 $280 #
plane-surface $-1 0 28.265084624589303 0 0 -1 0 0 0 -1 forward_v I I I I #
coedge $-1 $420 $559 $283 $412 reversed $281 $-1 #
coedge $-1 $426 $283 $284 $414 reversed $177 $-1 #
edge $-1 $427 -7.9422067066108779 $560 7.9422067066108779 $410 $561 forward 7 unknown #
coedge $-1 $285 $284 $559 $562 forward $113 $-1 #
edge $-1 $418 -52.880031739249858 $560 52.880031739249858 $411 $563 forward 7 unknown #
coedge $-1 $423 $422 $285 $416 reversed $408 $-1 #
edge $-1 $564 -52.880031739249858 $417 52.880031739249858 $415 $565 forward 7 unknown #
vertex $-1 $287 $566 #
vertex $-1 $429 $567 #
straight-curve $-1 52.880031739249858 0 -7.9422067066108779 0 -1 0 I I #
coedge $-1 $568 $410 $288 $421 reversed $281 $-1 #
edge $-1 $424 -28.265084624589303 $427 28.265084624589303 $420 $569 forward 7 unknown #
coedge $-1 $415 $289 $294 $430 forward $408 $-1 #
coedge $-1 $289 $415 $568 $570 reversed $408 $-1 #
vertex $-1 $290 $571 #
straight-curve $-1 0 28.265084624589303 7.9422067066108779 -1 0 0 I I #
coedge $-1 $291 $411 $293 $429 reversed $177 $-1 #
vertex $-1 $421 $572 #
straight-curve $-1 0 -28.265084624589303 7.9422067066108779 1 0 0 I I #
edge $-1 $296 -7.9422067066108779 $418 7.9422067066108779 $293 $573 forward 7 unknown #
edge $-1 $297 -7.9422067066108779 $417 7.9422067066108779 $294 $574 forward 7 unknown #
point $-1 52.880031739249858 -28.265084624589303 7.9422067066108779 #
point $-1 52.880031739249858 28.265084624589303 7.9422067066108779 #
face $-1 $-1 $447 $43 $-1 $575 reversed single #
loop $-1 $-1 $443 $299 #
plane-surface $-1 0 0 -7.9422067066108779 0 0 1 1 0 0 forward_v I I I I #
coedge $-1 $576 $577 $437 $578 forward $300 $-1 #
coedge $-1 $303 $302 $436 $578 reversed $117 $-1 #
coedge $-1 $443 $579 $302 $439 forward $434 $-1 #
edge $-1 $580 -59.651396185647172 $441 -52.880031739249858 $302 $581 forward 7 unknown #
edge $-1 $310 -3.385682223198657 $582 3.385682223198657 $303 $583 forward 7 unknown #
vertex $-1 $304 $584 #
straight-curve $-1 -52.880031739249858 28.265084624589303 0 0 0 -1 I I #
coedge $-1 $585 $438 $305 $444 forward $434 $-1 #
edge $-1 $441 -28.265084624589303 $448 28.265084624589303 $443 $586 forward 7 unknown #
coedge $-1 $587 $306 $309 $451 reversed $447 $-1 #
coedge $-1 $306 $587 $585 $588 reversed $447 $-1 #
loop $-1 $-1 $306 $433 #
vertex $-1 $588 $589 #
straight-curve $-1 -52.880031739249858 -28.265084624589303 0 0 0 1 I I #
coedge $-1 $309 $308 $577 $590 forward $185 $-1 #
edge $-1 $591 -3.385682223198657 $311 3.385682223198657 $445 $592 forward 7 unknown #
point $-1 -52.880031739249858 28.265084624589303 -4.3663109717974899 #
point $-1 -52.880031739249858 -28.265084624589303 -4.3663109717974899 #
loop $-1 $-1 $321 $313 #
plane-surface $-1 0 28.265084624589303 0 0 -1 0 0 0 -1 forward_v I I I I #
coedge $-1 $457 $316 $318 $461 reversed $193 $-1 #
coedge $-1 $316 $456 $593 $594 reversed $193 $-1 #
coedge $-1 $324 $319 $316 $459 forward $314 $-1 #
edge $-1 $462 5.1935605716586579 $595 11.125218377254836 $458 $596 forward 7 unknown #
coedge $-1 $318 $317 $465 $597 reversed $121 $-1 #
edge $-1 $598 -56.530169249178599 $462 -49.610099119082768 $456 $599 forward 7 unknown #
vertex $-1 $320 $600 #
straight-curve $-1 -13.904246383567573 22.333426818993125 7.9422067066108752 1 0 0 I I #
coedge $-1 $593 $321 $324 $469 reversed $454 $-1 #
coedge $-1 $321 $593 $460 $597 forward $454 $-1 #
vertex $-1 $322 $601 #
straight-curve $-1 -37.208295527179907 28.265084624589303 62.073682345732323 0 0 1 I I #
straight-curve $-1 -37.208295527179907 -20.190727726248774 33.493296992890237 0 0.85716729658548041 -0.51503808176128008 I I #
edge $-1 $595 18.408690007090385 $325 37.208295527179907 $464 $602 forward 7 unknown #
point $-1 -37.208295527179907 28.265084624589303 7.9422067066108779 #
point $-1 -37.208295527179907 22.333426818993125 7.9422067066108788 #
edge $-1 $603 1 $603 0 $328 $-1 forward 7 unknown #
vertex $-1 $329 $604 #
ellipse-curve $-1 -27.808492767135149 23.02817308259683 2.3804407131797722 0 0.51503808176128008 0.85716729658548041 1.5 0 0 1 I I #
point $-1 -26.308492767135149 25.29925572179123 6.1601568838818395 #
loop $-1 $-1 $340 $332 #
plane-surface $-1 0 28.265084624589303 0 0 -1 0 0 0 -1 forward_v I I I I #
coedge $-1 $479 $335 $337 $483 reversed $208 $-1 #
coedge $-1 $335 $478 $605 $606 reversed $208 $-1 #
coedge $-1 $343 $338 $335 $481 forward $333 $-1 #
edge $-1 $484 5.1935605716586579 $607 11.125218377254836 $480 $608 forward 7 unknown #
coedge $-1 $337 $336 $487 $609 reversed $130 $-1 #
edge $-1 $610 -56.530169249178599 $484 -49.610099119082768 $478 $611 forward 7 unknown #
vertex $-1 $339 $612 #
straight-curve $-1 10.842928374458026 22.333426818993125 7.9422067066108752 1 0 0 I I #
coedge $-1 $605 $340 $343 $491 reversed $476 $-1 #
coedge $-1 $340 $605 $482 $609 forward $476 $-1 #
vertex $-1 $341 $613 #
straight-curve $-1 12.286053988871291 28.265084624589303 62.073682345732323 0 0 1 I I #
straight-curve $-1 12.286053988871291 -20.190727726248774 33.493296992890237 0 0.85716729658548041 -0.51503808176128008 I I #
edge $-1 $607 -31.085659508960813 $344 -12.286053988871291 $486 $614 forward 7 unknown #
point $-1 12.286053988871291 28.265084624589303 7.9422067066108779 #
point $-1 12.286053988871291 22.333426818993125 7.9422067066108788 #
edge $-1 $615 1 $615 0 $347 $-1 forward 7 unknown #
vertex $-1 $348 $616 #
ellipse-curve $-1 21.685856748916052 23.02817308259683 2.3804407131797722 0 0.51503808176128008 0.85716729658548041 1.5 0 0 1 I I #
point $-1 23.185856748916052 25.29925572179123 6.1601568838818395 #
plane-surface $-1 0 0 7.9422067066108779 0 0 1 1 0 0 forward_v I I I I #
coedge $-1 $509 $508 $501 $617 forward $352 $-1 #
coedge $-1 $501 $354 $356 $505 reversed $223 $-1 #
coedge $-1 $354 $500 $499 $617 reversed $223 $-1 #
coedge $-1 $362 $357 $354 $503 forward $363 $-1 #
edge $-1 $506 -28.56771616015758 $618 -22.601014797051132 $502 $619 forward 7 unknown #
coedge $-1 $356 $355 $509 $620 reversed $139 $-1 #
edge $-1 $621 5.0235306441864656e-015 $506 8.2946910843323849 $500 $622 forward 7 unknown #
vertex $-1 $358 $623 #
straight-curve $-1 -16.05493874233802 -22.298383261482854 7.9422067066108779 -1 0 0 I I #
coedge $-1 $499 $359 $362 $513 reversed $352 $-1 #
coedge $-1 $359 $499 $504 $620 forward $352 $-1 #
vertex $-1 $360 $624 #
straight-curve $-1 -22.344837329905452 -28.265084624589306 39.128826079890331 0 0 1 I I #
straight-curve $-1 -22.344837329905452 -28.265084624589306 2.1802300468172291 0 -0.71933979245794832 -0.69465837861970381 I I #
edge $-1 $618 -41.874917639446629 $364 -22.344837329905452 $508 $625 forward 7 unknown #
point $-1 -22.344837329905452 -28.265084624589303 7.9422067066108779 #
point $-1 -22.344837329905452 -22.298383261482854 7.9422067066108779 #
edge $-1 $626 1 $626 0 $367 $-1 forward 7 unknown #
vertex $-1 $368 $627 #
ellipse-curve $-1 -37.968901577538396 -24.279952058112357 4.0238428906210979 0 -0.69465837861970381 0.71933979245794832 1 0 0 1 I I #
point $-1 -36.968901577538396 -25.281733943036073 5.0612183767140548 #
edge $-1 $628 1 $628 0 $371 $-1 forward 7 unknown #
vertex $-1 $372 $629 #
ellipse-curve $-1 -32.109877484676041 -24.279952058112357 4.0238428906210979 0 -0.69465837861970381 0.71933979245794832 1 0 0 1 I I #
point $-1 -31.109877484676041 -25.281733943036073 5.0612183767140548 #
edge $-1 $630 1 $630 0 $375 $-1 forward 7 unknown #
vertex $-1 $376 $631 #
ellipse-curve $-1 -26.250853391813688 -24.279952058112357 4.0238428906210979 0 -0.69465837861970381 0.71933979245794832 1 0 0 1 I I #
point $-1 -25.250853391813688 -25.281733943036073 5.0612183767140548 #
plane-surface $-1 0 0 7.9422067066108779 0 0 1 1 0 0 forward_v I I I I #
coedge $-1 $539 $538 $531 $632 forward $380 $-1 #
coedge $-1 $531 $382 $384 $535 reversed $252 $-1 #
coedge $-1 $382 $530 $529 $632 reversed $252 $-1 #
coedge $-1 $390 $385 $382 $533 forward $391 $-1 #
edge $-1 $536 -28.56771616015758 $633 -22.601014797051132 $532 $634 forward 7 unknown #
coedge $-1 $384 $383 $539 $635 reversed $158 $-1 #
edge $-1 $636 5.0235306441864656e-015 $536 8.2946910843323849 $530 $637 forward 7 unknown #
vertex $-1 $386 $638 #
straight-curve $-1 19.440620965536667 -22.298383261482854 7.9422067066108779 -1 0 0 I I #
coedge $-1 $529 $387 $390 $543 reversed $380 $-1 #
coedge $-1 $387 $529 $534 $635 forward $380 $-1 #
vertex $-1 $388 $639 #
straight-curve $-1 48.646282085843922 -28.265084624589306 39.128826079890331 0 0 1 I I #
straight-curve $-1 48.646282085843922 -28.265084624589306 2.1802300468172291 0 -0.71933979245794832 -0.69465837861970381 I I #
edge $-1 $633 29.116201776302745 $392 48.646282085843922 $538 $640 forward 7 unknown #
point $-1 48.646282085843922 -28.265084624589303 7.9422067066108779 #
point $-1 48.646282085843922 -22.298383261482854 7.9422067066108779 #
edge $-1 $641 1 $641 0 $395 $-1 forward 7 unknown #
vertex $-1 $396 $642 #
ellipse-curve $-1 33.022217838210992 -24.279952058112357 4.0238428906210979 0 -0.69465837861970381 0.71933979245794832 1 0 0 1 I I #
point $-1 34.022217838210992 -25.281733943036073 5.0612183767140548 #
edge $-1 $643 1 $643 0 $399 $-1 forward 7 unknown #
vertex $-1 $400 $644 #
ellipse-curve $-1 38.881241931073333 -24.279952058112357 4.0238428906210979 0 -0.69465837861970381 0.71933979245794832 1 0 0 1 I I #
point $-1 39.881241931073333 -25.281733943036073 5.0612183767140548 #
edge $-1 $645 1 $645 0 $403 $-1 forward 7 unknown #
vertex $-1 $404 $646 #
ellipse-curve $-1 44.740266023935689 -24.279952058112357 4.0238428906210979 0 -0.69465837861970381 0.71933979245794832 1 0 0 1 I I #
point $-1 45.740266023935689 -25.281733943036073 5.0612183767140548 #
plane-surface $-1 52.880031739249858 0 0 -1 0 0 0 0 1 forward_v I I I I #
coedge $-1 $410 $568 $413 $562 reversed $281 $-1 #
vertex $-1 $562 $647 #
straight-curve $-1 -52.880031739249858 -28.265084624589303 0 0 0 -1 I I #
edge $-1 $560 -28.265084624589303 $564 28.265084624589303 $559 $648 forward 7 unknown #
straight-curve $-1 0 -28.265084624589303 -7.9422067066108779 -1 0 0 I I #
vertex $-1 $416 $649 #
straight-curve $-1 0 28.265084624589303 -7.9422067066108779 1 0 0 I I #
point $-1 52.880031739249858 28.265084624589303 -7.9422067066108779 #
point $-1 52.880031739249858 -28.265084624589303 -7.9422067066108779 #
coedge $-1 $559 $420 $423 $570 forward $281 $-1 #
straight-curve $-1 -52.880031739249858 0 7.9422067066108779 0 -1 0 I I #
edge $-1 $424 -7.9422067066108779 $564 7.9422067066108779 $423 $650 forward 7 unknown #
point $-1 -52.880031739249858 28.265084624589303 7.9422067066108779 #
point $-1 -52.880031739249858 -28.265084624589303 7.9422067066108779 #
straight-curve $-1 52.880031739249858 -28.265084624589303 0 0 0 -1 I I #
straight-curve $-1 52.880031739249858 28.265084624589303 0 0 0 -1 I I #
plane-surface $-1 0 -28.265084624589303 0 0 1 0 0 0 1 forward_v I I I I #
coedge $-1 $651 $436 $579 $652 reversed $300 $-1 #
coedge $-1 $436 $651 $450 $590 reversed $300 $-1 #
edge $-1 $582 -1.787947867406694 $580 1.787947867406694 $437 $653 forward 7 unknown #
coedge $-1 $438 $585 $576 $652 forward $434 $-1 #
vertex $-1 $439 $654 #
straight-curve $-1 0 28.265084624589303 -7.9422067066108779 1 0 0 I I #
vertex $-1 $440 $655 #
straight-curve $-1 -56.265713962448515 28.265084624589303 -4.3663109717974899 -1 0 0 I I #
point $-1 -52.880031739249858 28.265084624589303 -7.9422067066108779 #
coedge $-1 $579 $443 $446 $588 forward $434 $-1 #
straight-curve $-1 -52.880031739249858 0 -7.9422067066108779 0 -1 0 I I #
coedge $-1 $446 $445 $651 $656 forward $447 $-1 #
edge $-1 $448 -3.385682223198657 $657 3.385682223198657 $446 $658 forward 7 unknown #
point $-1 -52.880031739249858 -28.265084624589303 -7.9422067066108779 #
edge $-1 $582 -28.265084624589303 $591 28.265084624589303 $577 $659 forward 7 unknown #
vertex $-1 $590 $660 #
straight-curve $-1 -56.265713962448515 -28.265084624589303 -4.3663109717974899 1 0 0 I I #
coedge $-1 $465 $464 $457 $594 forward $454 $-1 #
edge $-1 $595 54.131475639121447 $598 57.695575284579533 $593 $661 forward 7 unknown #
vertex $-1 $469 $662 #
straight-curve $-1 -18.408690007090385 17.139866247334467 7.9422067066108752 0 1 0 I I #
edge $-1 $598 4.5044436235228122 $466 23.304049143612332 $465 $663 forward 7 unknown #
vertex $-1 $597 $664 #
straight-curve $-1 -18.408690007090385 -20.190727726248774 33.493296992890237 0 -0.85716729658548041 0.51503808176128008 I I #
point $-1 -18.408690007090385 22.333426818993125 7.9422067066108788 #
point $-1 -37.208295527179907 28.265084624589299 4.3781070611527895 #
straight-curve $-1 0 28.265084624589303 7.9422067066108779 -1 0 0 I I #
vertex $-1 $472 $665 #
point $-1 -26.308492767135149 23.02817308259683 2.3804407131797722 #
coedge $-1 $487 $486 $479 $606 forward $476 $-1 #
edge $-1 $607 54.131475639121447 $610 57.695575284579533 $605 $666 forward 7 unknown #
vertex $-1 $491 $667 #
straight-curve $-1 31.085659508960813 17.139866247334467 7.9422067066108752 0 1 0 I I #
edge $-1 $610 -20.242731134502787 $488 -1.4431256144132654 $487 $668 forward 7 unknown #
vertex $-1 $609 $669 #
straight-curve $-1 31.085659508960813 -20.190727726248774 33.493296992890237 0 -0.85716729658548041 0.51503808176128008 I I #
point $-1 31.085659508960813 22.333426818993125 7.9422067066108788 #
point $-1 12.286053988871291 28.265084624589299 4.3781070611527895 #
straight-curve $-1 0 28.265084624589303 7.9422067066108779 -1 0 0 I I #
vertex $-1 $494 $670 #
point $-1 23.185856748916052 23.02817308259683 2.3804407131797722 #
edge $-1 $618 31.186619373279452 $621 36.948596033073102 $499 $671 forward 7 unknown #
vertex $-1 $513 $672 #
straight-curve $-1 -41.874917639446629 -50.866099421640435 7.9422067066108752 0 -1 0 I I #
edge $-1 $621 -25.819978897108609 $510 -6.289898587567432 $509 $673 forward 7 unknown #
vertex $-1 $620 $674 #
straight-curve $-1 -41.874917639446629 -28.265084624589306 2.1802300468172291 0 0.71933979245794832 0.69465837861970381 I I #
point $-1 -41.874917639446629 -22.298383261482854 7.9422067066108779 #
point $-1 -22.344837329905452 -28.265084624589303 2.1802300468172326 #
straight-curve $-1 0 -28.265084624589303 7.9422067066108779 1 0 0 I I #
vertex $-1 $516 $675 #
point $-1 -36.968901577538396 -24.279952058112357 4.0238428906210979 #
vertex $-1 $520 $676 #
point $-1 -31.109877484676041 -24.279952058112357 4.0238428906210979 #
vertex $-1 $524 $677 #
point $-1 -25.250853391813688 -24.279952058112357 4.0238428906210979 #
edge $-1 $633 31.186619373279452 $636 36.948596033073102 $529 $678 forward 7 unknown #
vertex $-1 $543 $679 #
straight-curve $-1 29.116201776302745 -50.866099421640435 7.9422067066108752 0 -1 0 I I #
edge $-1 $636 9.6755808107660783 $540 29.205661120307255 $539 $680 forward 7 unknown #
vertex $-1 $635 $681 #
straight-curve $-1 29.116201776302745 -28.265084624589306 2.1802300468172291 0 0.71933979245794832 0.69465837861970381 I I #
point $-1 29.116201776302745 -22.298383261482854 7.9422067066108779 #
point $-1 48.646282085843922 -28.265084624589303 2.1802300468172326 #
straight-curve $-1 0 -28.265084624589303 7.9422067066108779 1 0 0 I I #
vertex $-1 $546 $682 #
point $-1 34.022217838210992 -24.279952058112357 4.0238428906210979 #
vertex $-1 $550 $683 #
point $-1 39.881241931073333 -24.279952058112357 4.0238428906210979 #
vertex $-1 $554 $684 #
point $-1 45.740266023935689 -24.279952058112357 4.0238428906210979 #
point $-1 -52.880031739249858 -28.265084624589303 -7.9422067066108779 #
straight-curve $-1 -52.880031739249858 0 -7.9422067066108779 0 1 0 I I #
point $-1 -52.880031739249858 28.265084624589303 -7.9422067066108779 #
straight-curve $-1 -52.880031739249858 28.265084624589303 0 0 0 -1 I I #
coedge $-1 $577 $576 $587 $656 reversed $300 $-1 #
edge $-1 $657 -28.265084624589303 $580 28.265084624589303 $576 $685 forward 7 unknown #
straight-curve $-1 -59.651396185647172 28.265084624589303 -6.1542588392041839 0 0 -1 I I #
point $-1 -59.651396185647172 28.265084624589303 -7.9422067066108779 #
point $-1 -59.651396185647172 28.265084624589303 -4.3663109717974899 #
edge $-1 $591 -1.787947867406694 $657 1.787947867406694 $651 $686 forward 7 unknown #
vertex $-1 $652 $687 #
straight-curve $-1 -56.265713962448515 -28.265084624589303 -7.9422067066108779 -1 0 0 I I #
straight-curve $-1 -59.651396185647172 0 -4.3663109717974899 0 -1 0 I I #
point $-1 -59.651396185647172 -28.265084624589303 -4.3663109717974899 #
straight-curve $-1 -18.408690007090385 28.265084624589303 62.073682345732323 0 0 -1 I I #
point $-1 -18.408690007090385 28.265084624589303 7.9422067066108779 #
straight-curve $-1 -13.904246383567573 28.265084624589299 4.3781070611527895 -1 0 0 I I #
point $-1 -18.408690007090385 28.265084624589299 4.3781070611527895 #
point $-1 -27.808492767135149 22.255615959954909 1.0946897683015517 #
straight-curve $-1 31.085659508960813 28.265084624589303 62.073682345732323 0 0 -1 I I #
point $-1 31.085659508960813 28.265084624589303 7.9422067066108779 #
straight-curve $-1 10.842928374458026 28.265084624589299 4.3781070611527895 -1 0 0 I I #
point $-1 31.085659508960813 28.265084624589299 4.3781070611527895 #
point $-1 21.685856748916052 22.255615959954909 1.0946897683015517 #
straight-curve $-1 -41.874917639446629 -28.265084624589306 39.128826079890331 0 0 -1 I I #
point $-1 -41.874917639446629 -28.265084624589303 7.9422067066108779 #
straight-curve $-1 -16.05493874233802 -28.265084624589303 2.1802300468172331 1 0 0 I I #
point $-1 -41.874917639446629 -28.265084624589303 2.1802300468172326 #
point $-1 -37.968901577538396 -23.585293679492651 3.30450309816315 #
point $-1 -32.109877484676041 -23.585293679492651 3.30450309816315 #
point $-1 -26.250853391813688 -23.585293679492651 3.30450309816315 #
straight-curve $-1 29.116201776302745 -28.265084624589306 39.128826079890331 0 0 -1 I I #
point $-1 29.116201776302745 -28.265084624589303 7.9422067066108779 #
straight-curve $-1 19.440620965536667 -28.265084624589303 2.1802300468172331 1 0 0 I I #
point $-1 29.116201776302745 -28.265084624589303 2.1802300468172326 #
point $-1 33.022217838210992 -23.585293679492651 3.30450309816315 #
point $-1 38.881241931073333 -23.585293679492651 3.30450309816315 #
point $-1 44.740266023935689 -23.585293679492651 3.30450309816315 #
straight-curve $-1 -59.651396185647172 0 -7.9422067066108779 0 1 0 I I #
straight-curve $-1 -59.651396185647172 -28.265084624589303 -6.1542588392041839 0 0 -1 I I #
point $-1 -59.651396185647172 -28.265084624589303 -7.9422067066108779 #
End-of-ACIS-data 