500 0 11 0           
7 Unknown 11 ACIS 5.0 NT 24 Fri Mar 26 15:21:44 1999 
-1 9.9999999999999995e-007 1e-010 
body $-1 $11 $-1 $12 #
body $-1 $13 $-1 $14 #
body $-1 $15 $-1 $16 #
body $-1 $17 $-1 $18 #
body $-1 $19 $-1 $20 #
body $-1 $21 $-1 $22 #
body $-1 $23 $-1 $24 #
body $-1 $25 $-1 $26 #
body $-1 $27 $-1 $28 #
body $-1 $29 $-1 $30 #
body $-1 $31 $-1 $32 #
lump $-1 $-1 $33 $0 #
transform $-1 1 0 0 0 1 0 0 0 1 51.452986236152228 26.622331267669448 5.6018448324328531 1 rotate no_reflect no_shear #
lump $-1 $-1 $34 $1 #
transform $-1 1 0 0 0 1 0 0 0 1 51.452986236152228 26.622331267669448 5.6018448324328531 1 rotate no_reflect no_shear #
lump $-1 $-1 $35 $2 #
transform $-1 1 0 0 0 1 0 0 0 1 51.452986236152228 26.622331267669448 5.6018448324328531 1 rotate no_reflect no_shear #
lump $-1 $-1 $36 $3 #
transform $-1 1 0 0 0 1 0 0 0 1 51.452986236152228 26.622331267669448 5.6018448324328531 1 rotate no_reflect no_shear #
lump $-1 $-1 $37 $4 #
transform $-1 1 0 0 0 1 0 0 0 1 51.452986236152228 26.622331267669448 5.6018448324328531 1 rotate no_reflect no_shear #
lump $-1 $-1 $38 $5 #
transform $-1 1 0 0 0 1 0 0 0 1 51.452986236152228 26.622331267669448 5.6018448324328531 1 rotate no_reflect no_shear #
lump $-1 $-1 $39 $6 #
transform $-1 1 0 0 0 1 0 0 0 1 51.452986236152228 26.622331267669448 5.6018448324328531 1 rotate no_reflect no_shear #
lump $-1 $-1 $40 $7 #
transform $-1 1 0 0 0 1 0 0 0 1 51.452986236152228 26.622331267669448 5.6018448324328531 1 rotate no_reflect no_shear #
lump $-1 $-1 $41 $8 #
transform $-1 1 0 0 0 1 0 0 0 1 51.452986236152228 26.622331267669448 5.6018448324328531 1 rotate no_reflect no_shear #
lump $-1 $-1 $42 $9 #
transform $-1 1 0 0 0 1 0 0 0 1 51.452986236152228 26.622331267669448 5.6018448324328531 1 rotate no_reflect no_shear #
lump $-1 $-1 $43 $10 #
transform $-1 1 0 0 0 1 0 0 0 1 51.452986236152228 26.622331267669448 5.6018448324328531 1 rotate no_reflect no_shear #
shell $-1 $-1 $-1 $44 $-1 $11 #
shell $-1 $-1 $-1 $45 $-1 $13 #
shell $-1 $-1 $-1 $46 $-1 $15 #
shell $-1 $-1 $-1 $47 $-1 $17 #
shell $-1 $-1 $-1 $48 $-1 $19 #
shell $-1 $-1 $-1 $49 $-1 $21 #
shell $-1 $-1 $-1 $50 $-1 $23 #
shell $-1 $-1 $-1 $51 $-1 $25 #
shell $-1 $-1 $-1 $52 $-1 $27 #
shell $-1 $-1 $-1 $53 $-1 $29 #
shell $-1 $-1 $-1 $54 $-1 $31 #
face $-1 $55 $56 $33 $-1 $57 forward single #
face $-1 $58 $59 $34 $-1 $60 reversed single #
face $-1 $61 $62 $35 $-1 $63 reversed single #
face $-1 $64 $65 $36 $-1 $66 reversed single #
face $-1 $67 $68 $37 $-1 $69 forward single #
face $-1 $70 $71 $38 $-1 $72 reversed single #
face $-1 $73 $74 $39 $-1 $75 forward single #
face $-1 $76 $77 $40 $-1 $78 reversed single #
face $-1 $79 $80 $41 $-1 $81 forward single #
face $-1 $82 $83 $42 $-1 $84 reversed single #
face $-1 $85 $86 $43 $-1 $87 forward single #
face $-1 $88 $89 $33 $-1 $90 reversed single #
loop $-1 $-1 $91 $44 #
plane-surface $-1 0 0 5.6018448324328531 0 0 1 1 0 0 forward_v I I I I #
face $-1 $92 $93 $34 $-1 $94 reversed single #
loop $-1 $-1 $95 $45 #
plane-surface $-1 0 -23.360594841821957 2.6018448324328531 0 0 1 1 0 0 forward_v I I I I #
face $-1 $96 $97 $35 $-1 $98 reversed single #
loop $-1 $-1 $99 $46 #
plane-surface $-1 0 23.360594841821953 2.6018448324328531 0 0 1 1 0 0 forward_v I I I I #
face $-1 $100 $101 $36 $-1 $102 reversed single #
loop $-1 $-1 $103 $47 #
plane-surface $-1 -113.38334722608481 -14.651771597387803 83.217176592764616 0 1 0 -0.6018150307709319 0 0.79863550430605224 forward_v I I I I #
face $-1 $104 $105 $37 $-1 $106 forward single #
loop $-1 $107 $108 $48 #
cone-surface $-1 -47.6678092241958 -10.164332101940118 2.3173712529290538 0.6018150307709319 0 -0.79863550430605224 0.79863550430605224 0 0.6018150307709319 1 I I 0 1 1 forward I I I I #
face $-1 $109 $110 $38 $-1 $111 reversed single #
loop $-1 $-1 $112 $49 #
plane-surface $-1 -113.38334722608481 5.4470868185866612 83.217176592764616 0 1 0 -0.6018150307709319 0 0.79863550430605224 forward_v I I I I #
face $-1 $113 $114 $39 $-1 $115 forward single #
loop $-1 $116 $117 $50 #
cone-surface $-1 -47.6678092241958 9.9345263140343469 2.3173712529290538 0.6018150307709319 0 -0.79863550430605224 0.79863550430605224 0 0.6018150307709319 1 I I 0 1 1 forward I I I I #
face $-1 $118 $119 $40 $-1 $120 reversed single #
loop $-1 $-1 $121 $51 #
plane-surface $-1 31.198984004561211 -5.6768926064924328 145.14753758269717 0 -1 0 -0.6018150307709319 0 -0.79863550430605224 forward_v I I I I #
face $-1 $122 $123 $41 $-1 $124 forward single #
loop $-1 $125 $126 $52 #
cone-surface $-1 47.667809224195793 -10.164332101940118 2.3173712529290387 -0.6018150307709319 0 -0.79863550430605224 0.79863550430605224 0 -0.6018150307709319 1 I I 0 1 1 forward I I I I #
face $-1 $127 $128 $42 $-1 $129 reversed single #
loop $-1 $-1 $130 $53 #
plane-surface $-1 31.198984004561211 14.421965809482032 145.14753758269717 0 -1 0 -0.6018150307709319 0 -0.79863550430605224 forward_v I I I I #
face $-1 $131 $132 $43 $-1 $133 forward single #
loop $-1 $134 $135 $54 #
cone-surface $-1 47.667809224195793 9.9345263140343469 2.3173712529290387 -0.6018150307709319 0 -0.79863550430605224 0.79863550430605224 0 -0.6018150307709319 1 I I 0 1 1 forward I I I I #
face $-1 $136 $137 $33 $-1 $138 reversed single #
loop $-1 $-1 $139 $55 #
plane-surface $-1 0 0 -5.6018448324328531 0 0 1 1 0 0 forward_v I I I I #
coedge $-1 $140 $141 $142 $143 forward $56 $-1 #
face $-1 $144 $145 $34 $-1 $146 reversed single #
loop $-1 $-1 $147 $58 #
plane-surface $-1 0 -20.098858415974465 4.1018448324328531 0 -1 0 0 0 -1 forward_v I I I I #
coedge $-1 $148 $149 $150 $151 reversed $59 $-1 #
face $-1 $152 $153 $35 $-1 $154 forward single #
loop $-1 $-1 $155 $61 #
plane-surface $-1 0 20.098858415974462 4.1018448324328531 0 1 0 0 0 1 forward_v I I I I #
coedge $-1 $156 $157 $158 $159 reversed $62 $-1 #
face $-1 $160 $161 $36 $-1 $162 reversed single #
loop $-1 $-1 $163 $64 #
plane-surface $-1 -51.452986236152235 -10.164332101940118 1.0328133712410192 -0.6018150307709319 0 0.79863550430605224 0.79863550430605224 0 0.6018150307709319 forward_v I I I I #
coedge $-1 $164 $165 $166 $167 reversed $65 $-1 #
face $-1 $-1 $168 $37 $-1 $169 forward single #
loop $-1 $170 $171 $67 #
cone-surface $-1 -46.613379406877321 -10.164332101940118 0.91809565186815068 0.6018150307709319 0 -0.79863550430605224 0.39931775215302612 0 0.30090751538546595 1 I I -0.70710678118654746 0.70710678118654746 0.5 forward I I I I #
loop $-1 $-1 $172 $48 #
coedge $-1 $108 $108 $173 $174 reversed $68 $-1 #
face $-1 $175 $176 $38 $-1 $177 reversed single #
loop $-1 $-1 $178 $70 #
plane-surface $-1 -51.452986236152235 9.9345263140343469 1.0328133712410192 -0.6018150307709319 0 0.79863550430605224 0.79863550430605224 0 0.6018150307709319 forward_v I I I I #
coedge $-1 $179 $180 $181 $182 reversed $71 $-1 #
face $-1 $-1 $183 $39 $-1 $184 forward single #
loop $-1 $185 $186 $73 #
cone-surface $-1 -46.613379406877321 9.9345263140343469 0.91809565186815068 0.6018150307709319 0 -0.79863550430605224 0.39931775215302612 0 0.30090751538546595 1 I I -0.70710678118654746 0.70710678118654746 0.5 forward I I I I #
loop $-1 $-1 $187 $50 #
coedge $-1 $117 $117 $188 $189 reversed $74 $-1 #
face $-1 $190 $191 $40 $-1 $192 reversed single #
loop $-1 $-1 $193 $76 #
plane-surface $-1 -30.731376985371362 -10.164332101940118 62.963174361173571 0.6018150307709319 0 0.79863550430605224 0.79863550430605224 0 -0.6018150307709319 forward_v I I I I #
coedge $-1 $194 $195 $196 $197 reversed $77 $-1 #
face $-1 $-1 $198 $41 $-1 $199 forward single #
loop $-1 $200 $201 $79 #
cone-surface $-1 46.613379406877314 -10.164332101940118 0.91809565186813558 -0.6018150307709319 0 -0.79863550430605224 0.39931775215302612 0 -0.30090751538546595 1 I I -0.70710678118654746 0.70710678118654746 0.5 forward I I I I #
loop $-1 $-1 $202 $52 #
coedge $-1 $126 $126 $203 $204 reversed $80 $-1 #
face $-1 $205 $206 $42 $-1 $207 reversed single #
loop $-1 $-1 $208 $82 #
plane-surface $-1 -30.731376985371362 9.9345263140343469 62.963174361173571 0.6018150307709319 0 0.79863550430605224 0.79863550430605224 0 -0.6018150307709319 forward_v I I I I #
coedge $-1 $209 $210 $211 $212 reversed $83 $-1 #
face $-1 $-1 $213 $43 $-1 $214 forward single #
loop $-1 $215 $216 $85 #
cone-surface $-1 46.613379406877314 9.9345263140343469 0.91809565186813558 -0.6018150307709319 0 -0.79863550430605224 0.39931775215302612 0 -0.30090751538546595 1 I I -0.70710678118654746 0.70710678118654746 0.5 forward I I I I #
loop $-1 $-1 $217 $54 #
coedge $-1 $135 $135 $218 $219 reversed $86 $-1 #
face $-1 $220 $221 $33 $-1 $222 reversed single #
loop $-1 $-1 $223 $88 #
plane-surface $-1 0 -26.622331267669448 0 0 1 0 0 0 1 forward_v I I I I #
coedge $-1 $224 $225 $226 $227 forward $89 $-1 #
coedge $-1 $228 $91 $229 $230 forward $56 $-1 #
coedge $-1 $91 $228 $231 $232 forward $56 $-1 #
coedge $-1 $233 $234 $91 $143 reversed $235 $-1 #
edge $-1 $236 -26.622331267669448 $237 26.622331267669448 $142 $238 forward 7 unknown #
face $-1 $239 $240 $34 $-1 $241 reversed single #
loop $-1 $-1 $242 $92 #
plane-surface $-1 -51.452986236152228 0 0 1 0 0 0 0 -1 forward_v I I I I #
coedge $-1 $243 $244 $245 $246 reversed $93 $-1 #
coedge $-1 $247 $95 $248 $249 reversed $59 $-1 #
coedge $-1 $95 $247 $243 $250 forward $59 $-1 #
coedge $-1 $245 $251 $95 $151 forward $252 $-1 #
edge $-1 $253 -14.94203384675847 $254 -8.418560995063487 $150 $255 forward 7 unknown #
face $-1 $256 $257 $35 $-1 $258 reversed single #
loop $-1 $-1 $259 $96 #
plane-surface $-1 0 0 5.6018448324328531 0 0 1 1 0 0 forward_v I I I I #
coedge $-1 $260 $261 $262 $263 reversed $97 $-1 #
coedge $-1 $264 $99 $260 $265 forward $62 $-1 #
coedge $-1 $99 $264 $266 $267 reversed $62 $-1 #
coedge $-1 $268 $269 $99 $159 forward $257 $-1 #
edge $-1 $270 8.4185609950634852 $271 14.942033846758468 $158 $272 forward 7 unknown #
face $-1 $273 $274 $36 $-1 $275 reversed single #
loop $-1 $-1 $276 $100 #
plane-surface $-1 -113.38334722608481 -5.6768926064924328 83.217176592764616 0 -1 0 0.6018150307709319 0 -0.79863550430605224 forward_v I I I I #
coedge $-1 $277 $278 $279 $280 reversed $101 $-1 #
coedge $-1 $165 $103 $281 $282 reversed $65 $-1 #
coedge $-1 $103 $164 $277 $283 reversed $65 $-1 #
coedge $-1 $279 $284 $103 $167 forward $285 $-1 #
edge $-1 $286 5.2386873768901765 $287 11.30199679693699 $166 $288 forward 7 unknown #
loop $-1 $-1 $173 $104 #
plane-surface $-1 -51.452986236152235 -10.164332101940118 1.0328133712410192 -0.6018150307709319 0 0.79863550430605224 0.79863550430605224 0 0.6018150307709319 forward_v I I I I #
loop $-1 $-1 $289 $67 #
coedge $-1 $171 $171 $172 $290 reversed $105 $-1 #
coedge $-1 $172 $172 $171 $290 forward $107 $-1 #
coedge $-1 $173 $173 $108 $174 forward $168 $-1 #
edge $-1 $291 0 $291 6.2831853071796004 $173 $292 forward 7 unknown #
face $-1 $293 $294 $38 $-1 $295 forward single #
loop $-1 $-1 $296 $109 #
plane-surface $-1 -113.38334722608481 14.421965809482032 83.217176592764616 0 -1 0 0.6018150307709319 0 -0.79863550430605224 forward_v I I I I #
coedge $-1 $297 $298 $299 $300 reversed $110 $-1 #
coedge $-1 $180 $112 $301 $302 reversed $71 $-1 #
coedge $-1 $112 $179 $297 $303 reversed $71 $-1 #
coedge $-1 $299 $304 $112 $182 forward $294 $-1 #
edge $-1 $305 5.2386873768901765 $306 11.30199679693699 $181 $307 forward 7 unknown #
loop $-1 $-1 $188 $113 #
plane-surface $-1 -51.452986236152235 9.9345263140343469 1.0328133712410192 -0.6018150307709319 0 0.79863550430605224 0.79863550430605224 0 0.6018150307709319 forward_v I I I I #
loop $-1 $-1 $308 $73 #
coedge $-1 $186 $186 $187 $309 reversed $114 $-1 #
coedge $-1 $187 $187 $186 $309 forward $116 $-1 #
coedge $-1 $188 $188 $117 $189 forward $183 $-1 #
edge $-1 $310 0 $310 6.2831853071796004 $188 $311 forward 7 unknown #
face $-1 $312 $313 $40 $-1 $314 forward single #
loop $-1 $-1 $315 $118 #
plane-surface $-1 31.198984004561211 -14.651771597387803 145.14753758269717 0 1 0 0.6018150307709319 0 0.79863550430605224 forward_v I I I I #
coedge $-1 $316 $317 $318 $319 reversed $119 $-1 #
coedge $-1 $195 $121 $320 $321 reversed $77 $-1 #
coedge $-1 $121 $194 $316 $322 reversed $77 $-1 #
coedge $-1 $318 $323 $121 $197 forward $313 $-1 #
edge $-1 $324 -35.853494233871622 $325 -29.79018481382478 $196 $326 forward 7 unknown #
loop $-1 $-1 $203 $122 #
plane-surface $-1 -30.731376985371362 -10.164332101940118 62.963174361173571 0.6018150307709319 0 0.79863550430605224 0.79863550430605224 0 -0.6018150307709319 forward_v I I I I #
loop $-1 $-1 $327 $79 #
coedge $-1 $201 $201 $202 $328 reversed $123 $-1 #
coedge $-1 $202 $202 $201 $328 forward $125 $-1 #
coedge $-1 $203 $203 $126 $204 forward $198 $-1 #
edge $-1 $329 0 $329 6.2831853071796004 $203 $330 forward 7 unknown #
face $-1 $331 $332 $42 $-1 $333 reversed single #
loop $-1 $-1 $334 $127 #
plane-surface $-1 31.198984004561211 5.4470868185866612 145.14753758269717 0 1 0 0.6018150307709319 0 0.79863550430605224 forward_v I I I I #
coedge $-1 $335 $336 $337 $338 reversed $128 $-1 #
coedge $-1 $210 $130 $339 $340 reversed $83 $-1 #
coedge $-1 $130 $209 $335 $341 reversed $83 $-1 #
coedge $-1 $337 $342 $130 $212 forward $343 $-1 #
edge $-1 $344 -35.853494233871622 $345 -29.79018481382478 $211 $346 forward 7 unknown #
loop $-1 $-1 $218 $131 #
plane-surface $-1 -30.731376985371362 9.9345263140343469 62.963174361173571 0.6018150307709319 0 0.79863550430605224 0.79863550430605224 0 -0.6018150307709319 forward_v I I I I #
loop $-1 $-1 $347 $85 #
coedge $-1 $216 $216 $217 $348 reversed $132 $-1 #
coedge $-1 $217 $217 $216 $348 forward $134 $-1 #
coedge $-1 $218 $218 $135 $219 forward $213 $-1 #
edge $-1 $349 0 $349 6.2831853071796004 $218 $350 forward 7 unknown #
face $-1 $351 $352 $33 $-1 $353 reversed single #
loop $-1 $-1 $354 $136 #
plane-surface $-1 -51.452986236152228 0 0 1 0 0 0 0 -1 forward_v I I I I #
coedge $-1 $355 $231 $356 $357 forward $137 $-1 #
coedge $-1 $358 $139 $355 $359 forward $89 $-1 #
coedge $-1 $139 $358 $360 $361 forward $89 $-1 #
coedge $-1 $234 $233 $139 $227 reversed $235 $-1 #
edge $-1 $362 -26.622331267669448 $363 26.622331267669448 $226 $364 forward 7 unknown #
coedge $-1 $141 $140 $365 $366 forward $56 $-1 #
coedge $-1 $367 $368 $140 $230 reversed $352 $-1 #
edge $-1 $237 -51.452986236152228 $369 51.452986236152228 $229 $370 forward 7 unknown #
coedge $-1 $223 $371 $141 $232 reversed $137 $-1 #
edge $-1 $372 -51.452986236152228 $236 51.452986236152228 $231 $373 forward 7 unknown #
coedge $-1 $226 $142 $371 $374 forward $235 $-1 #
coedge $-1 $142 $226 $367 $375 reversed $235 $-1 #
loop $-1 $-1 $233 $351 #
vertex $-1 $143 $376 #
vertex $-1 $143 $377 #
straight-curve $-1 51.452986236152228 0 5.6018448324328531 0 1 0 I I #
face $-1 $378 $379 $34 $-1 $380 forward single #
loop $-1 $-1 $248 $144 #
plane-surface $-1 0 -26.622331267669448 0 0 1 0 0 0 1 forward_v I I I I #
coedge $-1 $381 $382 $383 $384 forward $145 $-1 #
coedge $-1 $383 $147 $149 $250 reversed $93 $-1 #
coedge $-1 $147 $383 $385 $386 reversed $93 $-1 #
coedge $-1 $387 $150 $147 $246 forward $252 $-1 #
edge $-1 $254 0.55092241621642657 $388 3.5509224162164266 $245 $389 forward 7 unknown #
coedge $-1 $149 $148 $381 $390 reversed $59 $-1 #
coedge $-1 $391 $392 $148 $249 forward $240 $-1 #
edge $-1 $393 -51.452986236152228 $253 51.452986236152228 $248 $394 forward 7 unknown #
edge $-1 $395 -51.452986236152228 $254 51.452986236152228 $243 $396 forward 7 unknown #
coedge $-1 $150 $387 $391 $397 forward $252 $-1 #
loop $-1 $-1 $245 $378 #
vertex $-1 $249 $398 #
vertex $-1 $151 $399 #
straight-curve $-1 51.452986236152228 -11.680297420910978 2.6018448324328531 0 1 0 I I #
face $-1 $400 $401 $35 $-1 $402 reversed single #
loop $-1 $-1 $269 $152 #
plane-surface $-1 51.452986236152228 0 0 -1 0 0 0 0 1 forward_v I I I I #
coedge $-1 $403 $404 $261 $405 forward $153 $-1 #
coedge $-1 $406 $155 $156 $265 reversed $97 $-1 #
coedge $-1 $155 $406 $259 $405 reversed $97 $-1 #
coedge $-1 $407 $408 $155 $263 forward $401 $-1 #
edge $-1 $409 0.55092241621642657 $410 3.5509224162164266 $262 $411 forward 7 unknown #
coedge $-1 $157 $156 $408 $412 reversed $62 $-1 #
edge $-1 $270 -51.452986236152228 $409 51.452986236152228 $260 $413 forward 7 unknown #
coedge $-1 $414 $415 $157 $267 forward $416 $-1 #
edge $-1 $271 -51.452986236152228 $417 51.452986236152228 $266 $418 forward 7 unknown #
coedge $-1 $419 $158 $415 $420 reversed $257 $-1 #
coedge $-1 $158 $419 $406 $421 forward $257 $-1 #
vertex $-1 $159 $422 #
vertex $-1 $267 $423 #
straight-curve $-1 51.452986236152228 11.680297420910977 2.6018448324328531 0 1 0 I I #
face $-1 $-1 $285 $36 $-1 $424 forward single #
loop $-1 $-1 $425 $160 #
plane-surface $-1 -51.452986236152228 0 0 1 0 0 0 0 -1 forward_v I I I I #
coedge $-1 $426 $427 $428 $429 reversed $161 $-1 #
coedge $-1 $430 $163 $165 $283 forward $101 $-1 #
coedge $-1 $163 $430 $426 $431 forward $101 $-1 #
coedge $-1 $428 $166 $163 $280 forward $285 $-1 #
edge $-1 $287 -9.5696055464177441 $432 -0.59472655552237352 $279 $433 forward 7 unknown #
coedge $-1 $434 $435 $164 $282 forward $274 $-1 #
edge $-1 $436 -40.575774925141282 $286 -36.006743463949455 $281 $437 forward 7 unknown #
edge $-1 $287 -7.5920859858532497 $436 -8.8817612989391469e-015 $165 $438 forward 7 unknown #
coedge $-1 $166 $428 $434 $439 forward $285 $-1 #
loop $-1 $-1 $428 $273 #
vertex $-1 $282 $440 #
vertex $-1 $167 $441 #
straight-curve $-1 -56.691673613042404 -14.651771597387803 5.6018448324328531 1 0 0 I I #
coedge $-1 $289 $289 $-1 $442 reversed $170 $-1 #
edge $-1 $443 0 $443 6.2831853071796004 $171 $444 forward 7 unknown #
vertex $-1 $174 $445 #
ellipse-curve $-1 -48.421331526128817 -10.164332101940118 3.3173291018369397 -0.6018150307709319 0 0.79863550430605224 0.79863550430605224 0 0.6018150307709319 1 I I #
face $-1 $-1 $446 $38 $-1 $447 reversed single #
loop $-1 $-1 $181 $175 #
plane-surface $-1 0 0 5.6018448324328531 0 0 1 1 0 0 forward_v I I I I #
coedge $-1 $448 $449 $450 $451 reversed $176 $-1 #
coedge $-1 $452 $178 $180 $303 forward $110 $-1 #
coedge $-1 $178 $452 $448 $453 forward $110 $-1 #
coedge $-1 $450 $181 $178 $300 forward $294 $-1 #
edge $-1 $306 0.47982366156948775 $454 9.4547026524648583 $299 $455 forward 7 unknown #
coedge $-1 $456 $457 $179 $302 forward $446 $-1 #
edge $-1 $458 -40.575774925141282 $305 -36.006743463949455 $301 $459 forward 7 unknown #
edge $-1 $306 -7.5920859858532497 $458 -8.8817612989391469e-015 $180 $460 forward 7 unknown #
coedge $-1 $181 $450 $456 $461 forward $294 $-1 #
vertex $-1 $182 $462 #
vertex $-1 $182 $463 #
straight-curve $-1 -56.691673613042404 5.4470868185866612 5.6018448324328531 1 0 0 I I #
coedge $-1 $308 $308 $-1 $464 reversed $185 $-1 #
edge $-1 $465 0 $465 6.2831853071796004 $186 $466 forward 7 unknown #
vertex $-1 $189 $467 #
ellipse-curve $-1 -48.421331526128817 9.9345263140343469 3.3173291018369397 -0.6018150307709319 0 0.79863550430605224 0.79863550430605224 0 0.6018150307709319 1 I I #
face $-1 $-1 $468 $40 $-1 $469 reversed single #
loop $-1 $-1 $196 $190 #
plane-surface $-1 0 0 5.6018448324328531 0 0 1 1 0 0 forward_v I I I I #
coedge $-1 $470 $471 $472 $473 reversed $191 $-1 #
coedge $-1 $474 $193 $195 $322 forward $119 $-1 #
coedge $-1 $193 $474 $470 $475 forward $119 $-1 #
coedge $-1 $472 $196 $193 $319 forward $313 $-1 #
edge $-1 $325 0.59472655552237352 $476 9.5696055464177441 $318 $477 forward 7 unknown #
coedge $-1 $478 $479 $194 $321 forward $468 $-1 #
edge $-1 $480 -71.540955420107593 $324 -66.971923958915738 $320 $481 forward 7 unknown #
edge $-1 $325 95.313886486451182 $480 102.90597247230447 $195 $482 forward 7 unknown #
coedge $-1 $196 $472 $478 $483 forward $313 $-1 #
vertex $-1 $321 $484 #
vertex $-1 $197 $485 #
straight-curve $-1 15.599492002280606 -5.6768926064924328 5.601844832432846 -1 0 0 I I #
coedge $-1 $327 $327 $-1 $486 reversed $200 $-1 #
edge $-1 $487 0 $487 6.2831853071796004 $201 $488 forward 7 unknown #
vertex $-1 $204 $489 #
ellipse-curve $-1 48.42133152612881 -10.164332101940118 3.3173291018369269 0.6018150307709319 0 0.79863550430605224 0.79863550430605224 0 -0.6018150307709319 1 I I #
face $-1 $-1 $343 $42 $-1 $490 forward single #
loop $-1 $-1 $491 $205 #
plane-surface $-1 51.452986236152228 0 0 -1 0 0 0 0 1 forward_v I I I I #
coedge $-1 $492 $493 $494 $495 reversed $206 $-1 #
coedge $-1 $496 $208 $210 $341 forward $128 $-1 #
coedge $-1 $208 $496 $492 $497 forward $128 $-1 #
coedge $-1 $494 $211 $208 $338 forward $343 $-1 #
edge $-1 $345 -9.4547026524648583 $498 -0.47982366156948775 $337 $499 forward 7 unknown #
coedge $-1 $500 $501 $209 $340 forward $332 $-1 #
edge $-1 $502 -71.540955420107593 $344 -66.971923958915738 $339 $503 forward 7 unknown #
edge $-1 $345 95.313886486451182 $502 102.90597247230447 $210 $504 forward 7 unknown #
coedge $-1 $211 $494 $500 $505 forward $343 $-1 #
loop $-1 $-1 $494 $331 #
vertex $-1 $340 $506 #
vertex $-1 $212 $507 #
straight-curve $-1 15.599492002280606 14.421965809482032 5.601844832432846 -1 0 0 I I #
coedge $-1 $347 $347 $-1 $508 reversed $215 $-1 #
edge $-1 $509 0 $509 6.2831853071796004 $216 $510 forward 7 unknown #
vertex $-1 $219 $511 #
ellipse-curve $-1 48.42133152612881 9.9345263140343469 3.3173291018369269 0.6018150307709319 0 0.79863550430605224 0.79863550430605224 0 -0.6018150307709319 1 I I #
face $-1 $-1 $235 $33 $-1 $512 reversed single #
loop $-1 $-1 $367 $220 #
plane-surface $-1 0 26.622331267669448 0 0 -1 0 0 0 -1 forward_v I I I I #
coedge $-1 $513 $365 $368 $514 forward $221 $-1 #
coedge $-1 $371 $223 $224 $359 reversed $137 $-1 #
coedge $-1 $365 $513 $223 $357 reversed $221 $-1 #
edge $-1 $372 -5.6018448324328531 $515 5.6018448324328531 $356 $516 forward 7 unknown #
coedge $-1 $225 $224 $513 $517 forward $89 $-1 #
edge $-1 $363 -51.452986236152228 $515 51.452986236152228 $355 $518 forward 7 unknown #
coedge $-1 $368 $367 $225 $361 reversed $352 $-1 #
edge $-1 $519 -51.452986236152228 $362 51.452986236152228 $360 $520 forward 7 unknown #
vertex $-1 $227 $521 #
vertex $-1 $374 $522 #
straight-curve $-1 51.452986236152228 0 -5.6018448324328531 0 -1 0 I I #
coedge $-1 $354 $356 $228 $366 reversed $221 $-1 #
edge $-1 $369 -26.622331267669448 $372 26.622331267669448 $365 $523 forward 7 unknown #
coedge $-1 $360 $229 $234 $375 forward $352 $-1 #
coedge $-1 $229 $360 $354 $514 reversed $352 $-1 #
vertex $-1 $230 $524 #
straight-curve $-1 0 26.622331267669448 5.6018448324328531 -1 0 0 I I #
coedge $-1 $231 $355 $233 $374 reversed $137 $-1 #
vertex $-1 $366 $525 #
straight-curve $-1 0 -26.622331267669448 5.6018448324328531 1 0 0 I I #
edge $-1 $236 -5.6018448324328531 $363 5.6018448324328531 $233 $526 forward 7 unknown #
edge $-1 $237 -5.6018448324328531 $362 5.6018448324328531 $234 $527 forward 7 unknown #
point $-1 51.452986236152228 -26.622331267669448 5.6018448324328531 #
point $-1 51.452986236152228 26.622331267669448 5.6018448324328531 #
face $-1 $-1 $252 $34 $-1 $528 reversed single #
loop $-1 $-1 $385 $239 #
plane-surface $-1 0 0 5.6018448324328531 0 0 1 1 0 0 forward_v I I I I #
coedge $-1 $529 $242 $247 $390 forward $145 $-1 #
coedge $-1 $242 $529 $530 $531 reversed $145 $-1 #
coedge $-1 $244 $243 $242 $384 reversed $93 $-1 #
edge $-1 $532 -3.5509224162164266 $395 -0.55092241621642657 $242 $533 forward 7 unknown #
coedge $-1 $530 $534 $244 $386 forward $379 $-1 #
edge $-1 $388 -51.452986236152228 $532 51.452986236152228 $385 $535 forward 7 unknown #
coedge $-1 $251 $245 $534 $536 reversed $252 $-1 #
vertex $-1 $246 $537 #
straight-curve $-1 51.452986236152228 -20.098858415974465 2.0509224162164266 0 0 1 I I #
edge $-1 $395 8.418560995063487 $393 14.94203384675847 $381 $538 forward 7 unknown #
coedge $-1 $539 $248 $251 $397 reversed $240 $-1 #
coedge $-1 $248 $539 $529 $540 forward $240 $-1 #
vertex $-1 $249 $541 #
straight-curve $-1 0 -26.622331267669448 2.6018448324328531 1 0 0 I I #
vertex $-1 $390 $542 #
straight-curve $-1 0 -20.098858415974465 2.6018448324328531 1 0 0 I I #
edge $-1 $543 -5.6018448324328531 $253 -2.6018448324328531 $251 $544 forward 7 unknown #
point $-1 51.452986236152228 -26.622331267669448 2.6018448324328531 #
point $-1 51.452986236152228 -20.098858415974465 2.6018448324328531 #
face $-1 $-1 $416 $35 $-1 $545 reversed single #
loop $-1 $-1 $262 $256 #
plane-surface $-1 -51.452986236152228 0 0 1 0 0 0 0 -1 forward_v I I I I #
coedge $-1 $546 $259 $419 $547 forward $153 $-1 #
coedge $-1 $259 $546 $407 $548 forward $153 $-1 #
edge $-1 $410 -51.452986236152228 $549 51.452986236152228 $259 $550 forward 7 unknown #
coedge $-1 $261 $260 $269 $421 reversed $97 $-1 #
coedge $-1 $551 $262 $404 $548 reversed $401 $-1 #
coedge $-1 $262 $551 $264 $412 forward $401 $-1 #
vertex $-1 $412 $552 #
vertex $-1 $263 $553 #
straight-curve $-1 -51.452986236152228 20.098858415974462 2.0509224162164266 0 0 1 I I #
edge $-1 $417 -14.942033846758468 $409 -8.4185609950634852 $408 $554 forward 7 unknown #
straight-curve $-1 0 20.098858415974462 2.6018448324328531 -1 0 0 I I #
coedge $-1 $555 $266 $551 $556 reversed $416 $-1 #
coedge $-1 $266 $555 $268 $420 forward $416 $-1 #
loop $-1 $-1 $266 $400 #
vertex $-1 $267 $557 #
straight-curve $-1 0 26.622331267669448 2.6018448324328531 -1 0 0 I I #
coedge $-1 $269 $268 $403 $547 reversed $257 $-1 #
edge $-1 $558 -5.6018448324328531 $271 -2.6018448324328531 $268 $559 forward 7 unknown #
edge $-1 $549 -3.5509224162164266 $270 -0.55092241621642657 $269 $560 forward 7 unknown #
point $-1 51.452986236152228 20.098858415974462 2.6018448324328531 #
point $-1 51.452986236152228 26.622331267669445 2.6018448324328531 #
plane-surface $-1 0 0 5.6018448324328531 0 0 1 1 0 0 forward_v I I I I #
coedge $-1 $435 $434 $427 $561 forward $274 $-1 #
coedge $-1 $427 $276 $278 $431 reversed $161 $-1 #
coedge $-1 $276 $426 $425 $561 reversed $161 $-1 #
coedge $-1 $284 $279 $276 $429 forward $285 $-1 #
edge $-1 $432 -11.30199679693699 $562 -5.2386873768901765 $428 $563 forward 7 unknown #
coedge $-1 $278 $277 $435 $564 reversed $101 $-1 #
edge $-1 $565 8.8817612989391469e-015 $432 7.5920859858532497 $426 $566 forward 7 unknown #
vertex $-1 $280 $567 #
straight-curve $-1 -45.389676816105414 -5.0821660509700592 5.6018448324328531 0 1 0 I I #
coedge $-1 $425 $281 $284 $439 reversed $274 $-1 #
coedge $-1 $281 $425 $430 $564 forward $274 $-1 #
vertex $-1 $282 $568 #
straight-curve $-1 -51.452986236152228 -14.651771597387803 41.608588296382308 0 0 1 I I #
straight-curve $-1 -51.452986236152235 -14.651771597387803 1.0328133712410192 -0.79863550430605224 0 -0.6018150307709319 I I #
edge $-1 $562 5.6768926064924328 $286 14.651771597387803 $434 $569 forward 7 unknown #
point $-1 -51.452986236152228 -14.651771597387803 5.6018448324328531 #
point $-1 -45.389676816105414 -14.651771597387803 5.6018448324328531 #
edge $-1 $570 1 $570 0 $289 $-1 forward 7 unknown #
vertex $-1 $290 $571 #
ellipse-curve $-1 -46.914286922262789 -10.164332101940118 1.3174134040211767 -0.6018150307709319 0 0.79863550430605224 0.79863550430605224 0 0.6018150307709319 1 I I #
point $-1 -47.622696021822762 -10.164332101940118 3.9191441326078627 #
loop $-1 $-1 $301 $293 #
plane-surface $-1 -51.452986236152228 0 0 1 0 0 0 0 -1 forward_v I I I I #
coedge $-1 $449 $296 $298 $453 reversed $176 $-1 #
coedge $-1 $296 $448 $572 $573 reversed $176 $-1 #
coedge $-1 $304 $299 $296 $451 forward $294 $-1 #
edge $-1 $454 -11.30199679693699 $574 -5.2386873768901765 $450 $575 forward 7 unknown #
coedge $-1 $298 $297 $457 $576 reversed $110 $-1 #
edge $-1 $577 8.8817612989391469e-015 $454 7.5920859858532497 $448 $578 forward 7 unknown #
vertex $-1 $300 $579 #
straight-curve $-1 -45.389676816105414 4.9672631570171735 5.6018448324328531 0 1 0 I I #
coedge $-1 $572 $301 $304 $461 reversed $446 $-1 #
coedge $-1 $301 $572 $452 $576 forward $446 $-1 #
vertex $-1 $302 $580 #
straight-curve $-1 -51.452986236152228 5.4470868185866612 41.608588296382308 0 0 1 I I #
straight-curve $-1 -51.452986236152235 5.4470868185866612 1.0328133712410192 -0.79863550430605224 0 -0.6018150307709319 I I #
edge $-1 $574 -14.421965809482032 $305 -5.4470868185866612 $456 $581 forward 7 unknown #
point $-1 -51.452986236152228 5.4470868185866612 5.6018448324328531 #
point $-1 -45.389676816105414 5.4470868185866612 5.6018448324328531 #
edge $-1 $582 1 $582 0 $308 $-1 forward 7 unknown #
vertex $-1 $309 $583 #
ellipse-curve $-1 -46.914286922262789 9.9345263140343469 1.3174134040211767 -0.6018150307709319 0 0.79863550430605224 0.79863550430605224 0 0.6018150307709319 1 I I #
point $-1 -47.622696021822762 9.9345263140343469 3.9191441326078627 #
loop $-1 $-1 $320 $312 #
plane-surface $-1 51.452986236152228 0 0 -1 0 0 0 0 1 forward_v I I I I #
coedge $-1 $471 $315 $317 $475 reversed $191 $-1 #
coedge $-1 $315 $470 $584 $585 reversed $191 $-1 #
coedge $-1 $323 $318 $315 $473 forward $313 $-1 #
edge $-1 $476 29.79018481382478 $586 35.853494233871622 $472 $587 forward 7 unknown #
coedge $-1 $317 $316 $479 $588 reversed $119 $-1 #
edge $-1 $589 -102.90597247230447 $476 -95.313886486451182 $470 $590 forward 7 unknown #
vertex $-1 $319 $591 #
straight-curve $-1 45.389676816105371 -5.0821660509700592 5.6018448324328531 0 -1 0 I I #
coedge $-1 $584 $320 $323 $483 reversed $468 $-1 #
coedge $-1 $320 $584 $474 $588 forward $468 $-1 #
vertex $-1 $321 $592 #
straight-curve $-1 51.452986236152228 -5.6768926064924328 72.573768791348584 0 0 1 I I #
straight-curve $-1 -30.731376985371362 -5.6768926064924328 62.963174361173571 0.79863550430605224 0 -0.6018150307709319 I I #
edge $-1 $586 -14.651771597387803 $324 -5.6768926064924328 $478 $593 forward 7 unknown #
point $-1 51.452986236152228 -5.6768926064924328 5.6018448324328531 #
point $-1 45.389676816105386 -5.6768926064924328 5.6018448324328531 #
edge $-1 $594 1 $594 0 $327 $-1 forward 7 unknown #
vertex $-1 $328 $595 #
ellipse-curve $-1 46.914286922262782 -10.164332101940118 1.3174134040211616 0.6018150307709319 0 0.79863550430605224 0.79863550430605224 0 -0.6018150307709319 1 I I #
point $-1 49.219967030434859 -10.164332101940118 2.715514071065984 #
plane-surface $-1 0 0 5.6018448324328531 0 0 1 1 0 0 forward_v I I I I #
coedge $-1 $501 $500 $493 $596 forward $332 $-1 #
coedge $-1 $493 $334 $336 $497 reversed $206 $-1 #
coedge $-1 $334 $492 $491 $596 reversed $206 $-1 #
coedge $-1 $342 $337 $334 $495 forward $343 $-1 #
edge $-1 $498 29.79018481382478 $597 35.853494233871622 $494 $598 forward 7 unknown #
coedge $-1 $336 $335 $501 $599 reversed $128 $-1 #
edge $-1 $600 -102.90597247230447 $498 -95.313886486451182 $492 $601 forward 7 unknown #
vertex $-1 $338 $602 #
straight-curve $-1 45.389676816105371 4.9672631570171735 5.6018448324328531 0 -1 0 I I #
coedge $-1 $491 $339 $342 $505 reversed $332 $-1 #
coedge $-1 $339 $491 $496 $599 forward $332 $-1 #
vertex $-1 $340 $603 #
straight-curve $-1 51.452986236152228 14.421965809482032 72.573768791348584 0 0 1 I I #
straight-curve $-1 -30.731376985371362 14.421965809482032 62.963174361173571 0.79863550430605224 0 -0.6018150307709319 I I #
edge $-1 $597 5.4470868185866612 $344 14.421965809482032 $500 $604 forward 7 unknown #
point $-1 51.452986236152228 14.421965809482032 5.6018448324328531 #
point $-1 45.389676816105386 14.421965809482032 5.6018448324328531 #
edge $-1 $605 1 $605 0 $347 $-1 forward 7 unknown #
vertex $-1 $348 $606 #
ellipse-curve $-1 46.914286922262782 9.9345263140343469 1.3174134040211616 0.6018150307709319 0 0.79863550430605224 0.79863550430605224 0 -0.6018150307709319 1 I I #
point $-1 49.219967030434859 9.9345263140343469 2.715514071065984 #
plane-surface $-1 51.452986236152228 0 0 -1 0 0 0 0 1 forward_v I I I I #
coedge $-1 $356 $354 $358 $517 reversed $221 $-1 #
edge $-1 $369 -5.6018448324328531 $519 5.6018448324328531 $368 $607 forward 7 unknown #
vertex $-1 $517 $608 #
straight-curve $-1 -51.452986236152228 -26.622331267669448 0 0 0 -1 I I #
edge $-1 $515 -26.622331267669448 $519 26.622331267669448 $513 $609 forward 7 unknown #
straight-curve $-1 0 -26.622331267669448 -5.6018448324328531 -1 0 0 I I #
vertex $-1 $361 $610 #
straight-curve $-1 0 26.622331267669448 -5.6018448324328531 1 0 0 I I #
point $-1 51.452986236152228 26.622331267669448 -5.6018448324328531 #
point $-1 51.452986236152228 -26.622331267669448 -5.6018448324328531 #
straight-curve $-1 -51.452986236152228 0 5.6018448324328531 0 -1 0 I I #
point $-1 -51.452986236152228 26.622331267669448 5.6018448324328531 #
point $-1 -51.452986236152228 -26.622331267669448 5.6018448324328531 #
straight-curve $-1 51.452986236152228 -26.622331267669448 0 0 0 -1 I I #
straight-curve $-1 51.452986236152228 26.622331267669448 0 0 0 -1 I I #
plane-surface $-1 51.452986236152228 0 0 -1 0 0 0 0 1 forward_v I I I I #
coedge $-1 $382 $381 $392 $540 reversed $145 $-1 #
coedge $-1 $611 $385 $382 $531 forward $379 $-1 #
edge $-1 $532 20.098858415974465 $612 26.622331267669448 $382 $613 forward 7 unknown #
vertex $-1 $531 $614 #
straight-curve $-1 -51.452986236152228 -20.098858415974465 2.0509224162164266 0 0 -1 I I #
coedge $-1 $385 $611 $387 $536 forward $379 $-1 #
straight-curve $-1 0 -20.098858415974465 5.6018448324328531 -1 0 0 I I #
edge $-1 $543 -26.622331267669448 $388 -20.098858415974465 $387 $615 forward 7 unknown #
point $-1 51.452986236152228 -20.098858415974465 5.6018448324328531 #
straight-curve $-1 -51.452986236152228 -11.680297420910978 2.6018448324328531 0 -1 0 I I #
coedge $-1 $392 $391 $611 $616 reversed $240 $-1 #
edge $-1 $612 -5.6018448324328531 $393 -2.6018448324328531 $529 $617 forward 7 unknown #
point $-1 -51.452986236152228 -26.622331267669448 2.6018448324328531 #
point $-1 -51.452986236152228 -20.098858415974465 2.6018448324328531 #
vertex $-1 $536 $618 #
straight-curve $-1 51.452986236152228 -26.622331267669448 0 0 0 -1 I I #
plane-surface $-1 0 26.622331267669448 0 0 -1 0 0 0 -1 forward_v I I I I #
coedge $-1 $404 $403 $555 $619 forward $153 $-1 #
edge $-1 $549 20.098858415974462 $558 26.622331267669448 $419 $620 forward 7 unknown #
edge $-1 $621 -26.622331267669448 $410 -20.098858415974462 $407 $622 forward 7 unknown #
vertex $-1 $547 $623 #
straight-curve $-1 0 20.098858415974462 5.6018448324328531 1 0 0 I I #
coedge $-1 $408 $407 $414 $556 forward $401 $-1 #
point $-1 -51.452986236152228 20.098858415974462 2.6018448324328531 #
point $-1 -51.452986236152228 20.098858415974462 5.6018448324328531 #
straight-curve $-1 -51.452986236152228 11.680297420910977 2.6018448324328531 0 -1 0 I I #
coedge $-1 $415 $414 $546 $619 reversed $416 $-1 #
edge $-1 $621 -5.6018448324328531 $417 -2.6018448324328531 $414 $624 forward 7 unknown #
point $-1 -51.452986236152228 26.622331267669445 2.6018448324328531 #
vertex $-1 $547 $625 #
straight-curve $-1 51.452986236152228 26.622331267669448 0 0 0 -1 I I #
straight-curve $-1 51.452986236152228 20.098858415974462 2.0509224162164266 0 0 -1 I I #
edge $-1 $562 36.006743463949455 $565 40.575774925141282 $425 $626 forward 7 unknown #
vertex $-1 $439 $627 #
straight-curve $-1 -56.691673613042404 -5.6768926064924328 5.6018448324328531 -1 0 0 I I #
edge $-1 $565 0.59472655552237352 $436 9.5696055464177441 $435 $628 forward 7 unknown #
vertex $-1 $564 $629 #
straight-curve $-1 -51.452986236152235 -5.6768926064924328 1.0328133712410192 0.79863550430605224 0 0.6018150307709319 I I #
point $-1 -45.389676816105414 -5.6768926064924328 5.6018448324328531 #
point $-1 -51.452986236152228 -14.651771597387803 1.0328133712410246 #
straight-curve $-1 -51.452986236152228 0 5.6018448324328531 0 -1 0 I I #
vertex $-1 $442 $630 #
point $-1 -46.115651417956734 -10.164332101940118 1.9192284347921087 #
coedge $-1 $457 $456 $449 $573 forward $446 $-1 #
edge $-1 $574 36.006743463949455 $577 40.575774925141282 $572 $631 forward 7 unknown #
vertex $-1 $461 $632 #
straight-curve $-1 -56.691673613042404 14.421965809482032 5.6018448324328531 -1 0 0 I I #
edge $-1 $577 -9.4547026524648583 $458 -0.47982366156948775 $457 $633 forward 7 unknown #
vertex $-1 $576 $634 #
straight-curve $-1 -51.452986236152235 14.421965809482032 1.0328133712410192 0.79863550430605224 0 0.6018150307709319 I I #
point $-1 -45.389676816105414 14.421965809482032 5.6018448324328531 #
point $-1 -51.452986236152228 5.4470868185866612 1.0328133712410246 #
straight-curve $-1 -51.452986236152228 0 5.6018448324328531 0 -1 0 I I #
vertex $-1 $464 $635 #
point $-1 -46.115651417956734 9.9345263140343469 1.9192284347921087 #
coedge $-1 $479 $478 $471 $585 forward $468 $-1 #
edge $-1 $586 66.971923958915738 $589 71.540955420107593 $584 $636 forward 7 unknown #
vertex $-1 $483 $637 #
straight-curve $-1 15.599492002280606 -14.651771597387803 5.601844832432846 1 0 0 I I #
edge $-1 $589 -9.5696055464177441 $480 -0.59472655552237352 $479 $638 forward 7 unknown #
vertex $-1 $588 $639 #
straight-curve $-1 -30.731376985371362 -14.651771597387803 62.963174361173571 -0.79863550430605224 0 0.6018150307709319 I I #
point $-1 45.389676816105386 -14.651771597387803 5.6018448324328531 #
point $-1 51.452986236152235 -5.6768926064924328 1.0328133712409979 #
straight-curve $-1 51.452986236152228 0 5.6018448324328531 0 1 0 I I #
vertex $-1 $486 $640 #
point $-1 47.712922426568831 -10.164332101940118 0.71559837325022979 #
edge $-1 $597 66.971923958915738 $600 71.540955420107593 $491 $641 forward 7 unknown #
vertex $-1 $505 $642 #
straight-curve $-1 15.599492002280606 5.4470868185866612 5.601844832432846 1 0 0 I I #
edge $-1 $600 0.47982366156948775 $502 9.4547026524648583 $501 $643 forward 7 unknown #
vertex $-1 $599 $644 #
straight-curve $-1 -30.731376985371362 5.4470868185866612 62.963174361173571 -0.79863550430605224 0 0.6018150307709319 I I #
point $-1 45.389676816105386 5.4470868185866612 5.6018448324328531 #
point $-1 51.452986236152235 14.421965809482032 1.0328133712409979 #
straight-curve $-1 51.452986236152228 0 5.6018448324328531 0 1 0 I I #
vertex $-1 $508 $645 #
point $-1 47.712922426568831 9.9345263140343469 0.71559837325022979 #
straight-curve $-1 -51.452986236152228 26.622331267669448 0 0 0 -1 I I #
point $-1 -51.452986236152228 -26.622331267669448 -5.6018448324328531 #
straight-curve $-1 -51.452986236152228 0 -5.6018448324328531 0 1 0 I I #
point $-1 -51.452986236152228 26.622331267669448 -5.6018448324328531 #
coedge $-1 $534 $530 $539 $616 forward $379 $-1 #
vertex $-1 $531 $646 #
straight-curve $-1 -51.452986236152228 0 5.6018448324328531 0 -1 0 I I #
point $-1 -51.452986236152228 -20.098858415974465 5.6018448324328531 #
straight-curve $-1 51.452986236152228 0 5.6018448324328531 0 1 0 I I #
edge $-1 $612 -51.452986236152228 $543 51.452986236152228 $539 $647 forward 7 unknown #
straight-curve $-1 -51.452986236152228 -26.622331267669448 0 0 0 -1 I I #
point $-1 51.452986236152228 -26.622331267669448 5.6018448324328531 #
edge $-1 $558 -51.452986236152228 $621 51.452986236152228 $555 $648 forward 7 unknown #
straight-curve $-1 51.452986236152228 0 5.6018448324328531 0 1 0 I I #
vertex $-1 $619 $649 #
straight-curve $-1 -51.452986236152228 0 5.6018448324328531 0 -1 0 I I #
point $-1 51.452986236152228 20.098858415974462 5.6018448324328531 #
straight-curve $-1 -51.452986236152228 26.622331267669448 0 0 0 -1 I I #
point $-1 51.452986236152228 26.622331267669448 5.6018448324328531 #
straight-curve $-1 -51.452986236152228 -5.6768926064924328 41.608588296382308 0 0 -1 I I #
point $-1 -51.452986236152228 -5.6768926064924328 5.6018448324328531 #
straight-curve $-1 -51.452986236152228 -5.0821660509700592 1.0328133712410237 0 -1 0 I I #
point $-1 -51.452986236152228 -5.6768926064924328 1.0328133712410246 #
point $-1 -46.312471891491853 -10.164332101940118 0.51877789971512456 #
straight-curve $-1 -51.452986236152228 14.421965809482032 41.608588296382308 0 0 -1 I I #
point $-1 -51.452986236152228 14.421965809482032 5.6018448324328531 #
straight-curve $-1 -51.452986236152228 4.9672631570171735 1.0328133712410237 0 -1 0 I I #
point $-1 -51.452986236152228 14.421965809482032 1.0328133712410246 #
point $-1 -46.312471891491853 9.9345263140343469 0.51877789971512456 #
straight-curve $-1 51.452986236152228 -14.651771597387803 72.573768791348584 0 0 -1 I I #
point $-1 51.452986236152228 -14.651771597387803 5.6018448324328531 #
straight-curve $-1 51.452986236152228 -5.0821660509700592 1.0328133712409944 0 1 0 I I #
point $-1 51.452986236152235 -14.651771597387803 1.0328133712409979 #
point $-1 46.312471891491846 -10.164332101940118 0.51877789971510946 #
straight-curve $-1 51.452986236152228 5.4470868185866612 72.573768791348584 0 0 -1 I I #
point $-1 51.452986236152228 5.4470868185866612 5.6018448324328531 #
straight-curve $-1 51.452986236152228 4.9672631570171735 1.0328133712409944 0 1 0 I I #
point $-1 51.452986236152235 5.4470868185866612 1.0328133712409979 #
point $-1 46.312471891491846 9.9345263140343469 0.51877789971510946 #
point $-1 -51.452986236152228 -26.622331267669448 5.6018448324328531 #
straight-curve $-1 0 -26.622331267669448 5.6018448324328531 1 0 0 I I #
straight-curve $-1 0 26.622331267669448 5.6018448324328531 -1 0 0 I I #
point $-1 -51.452986236152228 26.622331267669448 5.6018448324328531 #
End-of-ACIS-data 