500 0 5 0           
7 Unknown 11 ACIS 5.0 NT 24 Thu Mar 25 18:11:41 1999 
-1 9.9999999999999995e-007 1e-010 
body $-1 $5 $-1 $6 #
body $-1 $7 $-1 $8 #
body $-1 $9 $-1 $10 #
body $-1 $11 $-1 $12 #
body $-1 $13 $-1 $14 #
lump $-1 $-1 $15 $0 #
transform $-1 1 0 0 0 1 0 0 0 1 54.435254982146674 25.693400480784952 10.704629515779043 1 rotate no_reflect no_shear #
lump $-1 $-1 $16 $1 #
transform $-1 1 0 0 0 1 0 0 0 1 54.435254982146674 25.693400480784952 10.704629515779043 1 rotate no_reflect no_shear #
lump $-1 $-1 $17 $2 #
transform $-1 1 0 0 0 1 0 0 0 1 54.435254982146674 25.693400480784952 10.704629515779043 1 rotate no_reflect no_shear #
lump $-1 $-1 $18 $3 #
transform $-1 1 0 0 0 1 0 0 0 1 54.435254982146674 25.693400480784952 10.704629515779043 1 rotate no_reflect no_shear #
lump $-1 $-1 $19 $4 #
transform $-1 1 0 0 0 1 0 0 0 1 54.435254982146674 25.693400480784952 10.704629515779043 1 rotate no_reflect no_shear #
shell $-1 $-1 $-1 $20 $-1 $5 #
shell $-1 $-1 $-1 $21 $-1 $7 #
shell $-1 $-1 $-1 $22 $-1 $9 #
shell $-1 $-1 $-1 $23 $-1 $11 #
shell $-1 $-1 $-1 $24 $-1 $13 #
face $-1 $25 $26 $15 $-1 $27 forward single #
face $-1 $28 $29 $16 $-1 $30 forward single #
face $-1 $31 $32 $17 $-1 $33 forward single #
face $-1 $34 $35 $18 $-1 $36 reversed single #
face $-1 $37 $38 $19 $-1 $39 forward single #
face $-1 $40 $41 $15 $-1 $42 reversed single #
loop $-1 $-1 $43 $20 #
plane-surface $-1 0 0 10.704629515779043 0 0 1 1 0 0 forward_v I I I I #
face $-1 $44 $45 $16 $-1 $46 reversed single #
loop $-1 $-1 $47 $21 #
plane-surface $-1 -49.444738864652663 0 4.2994405540515395 0 0 1 1 0 0 forward_v I I I I #
face $-1 $48 $49 $17 $-1 $50 reversed single #
loop $-1 $-1 $51 $22 #
plane-surface $-1 49.444738864652663 0 4.2994405540515395 0 0 1 1 0 0 forward_v I I I I #
face $-1 $52 $53 $18 $-1 $54 reversed single #
loop $-1 $-1 $55 $23 #
plane-surface $-1 -12.577353144673154 -105.3162518401096 77.872450017249562 1 0 0 0 0.73135370988377701 -0.68199835119979291 forward_v I I I I #
face $-1 $56 $57 $19 $-1 $58 forward single #
loop $-1 $59 $60 $24 #
cone-surface $-1 -7.4544065668495563 -21.476497821051318 6.3105227837371931 0 0.73135370988377701 -0.68199835119979291 1 0 0 1 I I 0 1 1 forward I I I I #
face $-1 $61 $62 $15 $-1 $63 reversed single #
loop $-1 $-1 $64 $25 #
plane-surface $-1 0 0 -10.704629515779043 0 0 1 1 0 0 forward_v I I I I #
coedge $-1 $65 $66 $67 $68 forward $26 $-1 #
face $-1 $69 $70 $16 $-1 $71 reversed single #
loop $-1 $-1 $72 $28 #
plane-surface $-1 -49.444738864652663 0 -0.26290671727817028 0 0 1 1 0 0 forward_v I I I I #
coedge $-1 $73 $74 $75 $76 forward $29 $-1 #
face $-1 $77 $78 $17 $-1 $79 reversed single #
loop $-1 $-1 $80 $31 #
plane-surface $-1 49.444738864652663 0 -0.26290671727817028 0 0 1 1 0 0 forward_v I I I I #
coedge $-1 $81 $82 $83 $84 reversed $32 $-1 #
face $-1 $85 $86 $18 $-1 $87 reversed single #
loop $-1 $-1 $88 $34 #
plane-surface $-1 -7.4544065668495563 -25.693400480784945 3.6229417273208782 0 -0.73135370988377701 0.68199835119979291 1 0 0 forward_v I I I I #
coedge $-1 $89 $90 $91 $92 reversed $35 $-1 #
face $-1 $-1 $93 $19 $-1 $94 forward single #
loop $-1 $95 $96 $37 #
cone-surface $-1 -7.4544065668495563 -20.195808575181349 5.1162607703245246 0 0.73135370988377701 -0.68199835119979291 0.5 0 0 1 I I -0.70710678118654746 0.70710678118654746 0.5 forward I I I I #
loop $-1 $-1 $97 $24 #
coedge $-1 $60 $60 $98 $99 reversed $38 $-1 #
face $-1 $100 $101 $15 $-1 $102 reversed single #
loop $-1 $-1 $103 $40 #
plane-surface $-1 0 -25.693400480784952 0 0 1 0 0 0 1 forward_v I I I I #
coedge $-1 $104 $105 $106 $107 forward $41 $-1 #
coedge $-1 $108 $43 $109 $110 forward $26 $-1 #
coedge $-1 $43 $108 $111 $112 forward $26 $-1 #
coedge $-1 $113 $114 $43 $68 reversed $115 $-1 #
edge $-1 $116 -25.693400480784952 $117 25.693400480784952 $67 $118 forward 7 unknown #
face $-1 $119 $120 $16 $-1 $121 reversed single #
loop $-1 $-1 $122 $44 #
plane-surface $-1 -44.454222747158653 0 2.0182669183866846 -1 0 0 0 0 1 forward_v I I I I #
coedge $-1 $123 $124 $125 $126 forward $45 $-1 #
coedge $-1 $127 $47 $128 $129 reversed $29 $-1 #
coedge $-1 $47 $127 $130 $131 reversed $29 $-1 #
coedge $-1 $122 $132 $47 $76 reversed $70 $-1 #
edge $-1 $133 -25.693400480784952 $134 25.693400480784952 $75 $135 forward 7 unknown #
face $-1 $136 $137 $17 $-1 $138 reversed single #
loop $-1 $-1 $139 $48 #
plane-surface $-1 44.454222747158653 0 2.0182669183866846 1 0 0 0 0 -1 forward_v I I I I #
coedge $-1 $140 $141 $142 $143 reversed $49 $-1 #
coedge $-1 $144 $51 $145 $146 reversed $32 $-1 #
coedge $-1 $51 $144 $147 $148 reversed $32 $-1 #
coedge $-1 $149 $150 $51 $84 forward $151 $-1 #
edge $-1 $152 -25.693400480784952 $153 25.693400480784952 $83 $154 forward 7 unknown #
face $-1 $155 $156 $18 $-1 $157 forward single #
loop $-1 $-1 $158 $52 #
plane-surface $-1 -2.3314599890259586 -105.3162518401096 77.872450017249562 -1 0 0 0 -0.73135370988377701 0.68199835119979291 forward_v I I I I #
coedge $-1 $159 $160 $161 $162 reversed $53 $-1 #
coedge $-1 $90 $55 $163 $164 reversed $35 $-1 #
coedge $-1 $55 $89 $159 $165 reversed $35 $-1 #
coedge $-1 $161 $166 $55 $92 forward $167 $-1 #
edge $-1 $168 28.231595492845738 $169 35.31328328130391 $91 $170 forward 7 unknown #
loop $-1 $-1 $98 $56 #
plane-surface $-1 -7.4544065668495563 -25.693400480784945 3.6229417273208782 0 -0.73135370988377701 0.68199835119979291 1 0 0 forward_v I I I I #
loop $-1 $-1 $171 $37 #
coedge $-1 $96 $96 $97 $172 reversed $57 $-1 #
coedge $-1 $97 $97 $96 $172 forward $59 $-1 #
coedge $-1 $98 $98 $60 $99 forward $93 $-1 #
edge $-1 $173 -7.7310879081670816e-016 $173 6.2831853071795996 $98 $174 forward 7 unknown #
face $-1 $175 $176 $15 $-1 $177 reversed single #
loop $-1 $-1 $178 $61 #
plane-surface $-1 -54.435254982146674 0 0 1 0 0 0 0 -1 forward_v I I I I #
coedge $-1 $179 $111 $180 $181 forward $62 $-1 #
coedge $-1 $182 $64 $179 $183 forward $41 $-1 #
coedge $-1 $64 $182 $184 $185 forward $41 $-1 #
coedge $-1 $114 $113 $64 $107 reversed $115 $-1 #
edge $-1 $186 -25.693400480784952 $187 25.693400480784952 $106 $188 forward 7 unknown #
coedge $-1 $66 $65 $189 $190 forward $26 $-1 #
coedge $-1 $191 $192 $65 $110 reversed $176 $-1 #
edge $-1 $117 -54.435254982146674 $193 54.435254982146674 $109 $194 forward 7 unknown #
coedge $-1 $103 $195 $66 $112 reversed $62 $-1 #
edge $-1 $196 -54.435254982146674 $116 54.435254982146674 $111 $197 forward 7 unknown #
coedge $-1 $106 $67 $195 $198 forward $115 $-1 #
coedge $-1 $67 $106 $191 $199 reversed $115 $-1 #
loop $-1 $-1 $113 $175 #
vertex $-1 $68 $200 #
vertex $-1 $68 $201 #
straight-curve $-1 54.435254982146674 0 10.704629515779043 0 1 0 I I #
face $-1 $202 $203 $16 $-1 $204 reversed single #
loop $-1 $-1 $205 $69 #
plane-surface $-1 0 -25.693400480784952 0 0 1 0 0 0 1 forward_v I I I I #
coedge $-1 $125 $75 $206 $207 reversed $70 $-1 #
coedge $-1 $208 $72 $205 $209 reversed $45 $-1 #
coedge $-1 $72 $208 $210 $211 reversed $45 $-1 #
coedge $-1 $132 $122 $72 $126 reversed $70 $-1 #
edge $-1 $212 -25.693400480784952 $213 25.693400480784952 $125 $214 forward 7 unknown #
coedge $-1 $74 $73 $215 $216 reversed $29 $-1 #
coedge $-1 $217 $218 $73 $129 forward $219 $-1 #
edge $-1 $220 -29.712885549820342 $134 -19.731853314832321 $128 $221 forward 7 unknown #
coedge $-1 $222 $206 $74 $131 forward $120 $-1 #
edge $-1 $133 19.731853314832321 $223 29.712885549820342 $130 $224 forward 7 unknown #
coedge $-1 $75 $125 $217 $225 reversed $70 $-1 #
vertex $-1 $131 $226 #
vertex $-1 $129 $227 #
straight-curve $-1 -44.454222747158653 0 4.2994405540515395 0 1 0 I I #
face $-1 $228 $229 $17 $-1 $230 reversed single #
loop $-1 $-1 $147 $77 #
plane-surface $-1 0 -25.693400480784952 0 0 1 0 0 0 1 forward_v I I I I #
coedge $-1 $231 $232 $233 $234 reversed $78 $-1 #
coedge $-1 $235 $80 $236 $237 reversed $49 $-1 #
coedge $-1 $80 $235 $238 $239 reversed $49 $-1 #
coedge $-1 $150 $149 $80 $143 forward $151 $-1 #
edge $-1 $240 -25.693400480784952 $241 25.693400480784952 $142 $242 forward 7 unknown #
coedge $-1 $82 $81 $232 $243 forward $32 $-1 #
coedge $-1 $244 $233 $81 $146 forward $229 $-1 #
edge $-1 $245 19.731853314832321 $152 29.712885549820342 $145 $246 forward 7 unknown #
coedge $-1 $247 $248 $82 $148 forward $137 $-1 #
edge $-1 $153 -29.712885549820342 $249 -19.731853314832321 $147 $250 forward 7 unknown #
coedge $-1 $142 $83 $248 $251 forward $151 $-1 #
coedge $-1 $83 $142 $244 $252 reversed $151 $-1 #
loop $-1 $-1 $83 $228 #
vertex $-1 $252 $253 #
vertex $-1 $251 $254 #
straight-curve $-1 54.435254982146674 0 4.2994405540515395 0 -1 0 I I #
face $-1 $-1 $167 $18 $-1 $255 reversed single #
loop $-1 $-1 $256 $85 #
plane-surface $-1 0 0 10.704629515779043 0 0 1 1 0 0 forward_v I I I I #
coedge $-1 $257 $258 $259 $260 reversed $86 $-1 #
coedge $-1 $261 $88 $90 $165 forward $53 $-1 #
coedge $-1 $88 $261 $257 $262 forward $53 $-1 #
coedge $-1 $259 $91 $88 $162 forward $167 $-1 #
edge $-1 $169 -8.8501498612483758 $263 1.3957432943988195 $161 $264 forward 7 unknown #
coedge $-1 $265 $266 $89 $164 forward $156 $-1 #
edge $-1 $267 -33.568505976880971 $168 -26.964725439269849 $163 $268 forward 7 unknown #
edge $-1 $169 -1.0367256691888158e-014 $267 9.6829860746635852 $90 $269 forward 7 unknown #
coedge $-1 $91 $259 $265 $270 reversed $167 $-1 #
loop $-1 $-1 $259 $155 #
vertex $-1 $270 $271 #
vertex $-1 $92 $272 #
straight-curve $-1 -12.577353144673154 -25.693400480784952 38.936225008624781 0 0 -1 I I #
coedge $-1 $171 $171 $-1 $273 reversed $95 $-1 #
edge $-1 $274 0 $274 6.2831853071796004 $96 $275 forward 7 unknown #
vertex $-1 $99 $276 #
ellipse-curve $-1 -7.4544065668495563 -22.391510211979387 7.1637856215499571 0 -0.73135370988377701 0.68199835119979291 1 0 0 1 I I #
face $-1 $-1 $115 $15 $-1 $277 reversed single #
loop $-1 $-1 $191 $100 #
plane-surface $-1 0 25.693400480784952 0 0 -1 0 0 0 -1 forward_v I I I I #
coedge $-1 $278 $189 $192 $279 forward $101 $-1 #
coedge $-1 $195 $103 $104 $183 reversed $62 $-1 #
coedge $-1 $189 $278 $103 $181 reversed $101 $-1 #
edge $-1 $196 -10.704629515779043 $280 10.704629515779043 $180 $281 forward 7 unknown #
coedge $-1 $105 $104 $278 $282 forward $41 $-1 #
edge $-1 $187 -54.435254982146674 $280 54.435254982146674 $179 $283 forward 7 unknown #
coedge $-1 $192 $191 $105 $185 reversed $176 $-1 #
edge $-1 $284 -54.435254982146674 $186 54.435254982146674 $184 $285 forward 7 unknown #
vertex $-1 $107 $286 #
vertex $-1 $198 $287 #
straight-curve $-1 54.435254982146674 0 -10.704629515779043 0 -1 0 I I #
coedge $-1 $178 $180 $108 $190 reversed $101 $-1 #
edge $-1 $193 -25.693400480784952 $196 25.693400480784952 $189 $288 forward 7 unknown #
coedge $-1 $184 $109 $114 $199 forward $176 $-1 #
coedge $-1 $109 $184 $178 $279 reversed $176 $-1 #
vertex $-1 $110 $289 #
straight-curve $-1 0 25.693400480784952 10.704629515779043 -1 0 0 I I #
coedge $-1 $111 $179 $113 $198 reversed $62 $-1 #
vertex $-1 $190 $290 #
straight-curve $-1 0 -25.693400480784952 10.704629515779043 1 0 0 I I #
edge $-1 $116 -10.704629515779043 $187 10.704629515779043 $113 $291 forward 7 unknown #
edge $-1 $117 -10.704629515779043 $186 10.704629515779043 $114 $292 forward 7 unknown #
point $-1 54.435254982146674 -25.693400480784952 10.704629515779043 #
point $-1 54.435254982146674 25.693400480784952 10.704629515779043 #
face $-1 $-1 $219 $16 $-1 $293 reversed single #
loop $-1 $-1 $294 $119 #
plane-surface $-1 -54.435254982146674 0 0 1 0 0 0 0 -1 forward_v I I I I #
coedge $-1 $206 $222 $123 $209 forward $120 $-1 #
coedge $-1 $130 $205 $122 $207 forward $120 $-1 #
edge $-1 $213 -1.2720401764715126 $133 3.2903070948581972 $206 $295 forward 7 unknown #
coedge $-1 $124 $123 $294 $296 reversed $45 $-1 #
edge $-1 $297 -29.712885549820342 $213 -19.731853314832321 $205 $298 forward 7 unknown #
coedge $-1 $218 $217 $124 $211 forward $219 $-1 #
edge $-1 $212 19.731853314832321 $299 29.712885549820342 $210 $300 forward 7 unknown #
vertex $-1 $211 $301 #
vertex $-1 $209 $302 #
straight-curve $-1 -44.454222747158653 0 -0.26290671727817028 0 -1 0 I I #
coedge $-1 $303 $304 $127 $216 forward $203 $-1 #
edge $-1 $223 -25.693400480784952 $220 25.693400480784952 $215 $305 forward 7 unknown #
coedge $-1 $210 $128 $132 $225 forward $219 $-1 #
coedge $-1 $128 $210 $303 $306 reversed $219 $-1 #
loop $-1 $-1 $210 $202 #
vertex $-1 $306 $307 #
straight-curve $-1 -24.722369432326332 25.693400480784952 4.2994405540515395 1 0 0 I I #
coedge $-1 $205 $130 $304 $308 forward $120 $-1 #
vertex $-1 $308 $309 #
straight-curve $-1 -24.722369432326332 -25.693400480784952 4.2994405540515395 -1 0 0 I I #
edge $-1 $134 -3.2903070948581972 $212 1.2720401764715126 $217 $310 forward 7 unknown #
point $-1 -44.454222747158653 -25.693400480784952 4.2994405540515395 #
point $-1 -44.454222747158653 25.693400480784952 4.2994405540515395 #
face $-1 $-1 $151 $17 $-1 $311 reversed single #
loop $-1 $-1 $145 $136 #
plane-surface $-1 0 25.693400480784952 0 0 -1 0 0 0 -1 forward_v I I I I #
coedge $-1 $312 $139 $235 $313 reversed $78 $-1 #
coedge $-1 $139 $312 $144 $243 reversed $78 $-1 #
coedge $-1 $145 $238 $139 $234 forward $229 $-1 #
edge $-1 $314 -1.2720401764715126 $245 3.2903070948581972 $233 $315 forward 7 unknown #
coedge $-1 $141 $140 $231 $313 forward $49 $-1 #
coedge $-1 $248 $247 $140 $237 forward $137 $-1 #
edge $-1 $316 19.731853314832321 $240 29.712885549820342 $236 $317 forward 7 unknown #
coedge $-1 $233 $244 $141 $239 forward $229 $-1 #
edge $-1 $241 -29.712885549820342 $314 -19.731853314832321 $238 $318 forward 7 unknown #
vertex $-1 $143 $319 #
vertex $-1 $143 $320 #
straight-curve $-1 54.435254982146674 0 -0.26290671727817028 0 1 0 I I #
edge $-1 $245 -25.693400480784952 $249 25.693400480784952 $232 $321 forward 7 unknown #
coedge $-1 $238 $145 $150 $252 forward $229 $-1 #
vertex $-1 $146 $322 #
straight-curve $-1 24.722369432326332 25.693400480784952 4.2994405540515395 1 0 0 I I #
coedge $-1 $236 $147 $312 $323 forward $137 $-1 #
coedge $-1 $147 $236 $149 $251 reversed $137 $-1 #
vertex $-1 $148 $324 #
straight-curve $-1 24.722369432326332 -25.693400480784952 4.2994405540515395 -1 0 0 I I #
edge $-1 $153 -4.2994405540515395 $240 0.26290671727817028 $149 $325 forward 7 unknown #
edge $-1 $152 -4.2994405540515395 $241 0.26290671727817028 $150 $326 forward 7 unknown #
point $-1 54.435254982146674 25.693400480784952 4.2994405540515395 #
point $-1 54.435254982146674 -25.693400480784952 4.2994405540515395 #
plane-surface $-1 0 -25.693400480784952 0 0 1 0 0 0 1 forward_v I I I I #
coedge $-1 $266 $265 $258 $327 forward $156 $-1 #
coedge $-1 $258 $158 $160 $262 reversed $86 $-1 #
coedge $-1 $158 $257 $256 $327 reversed $86 $-1 #
coedge $-1 $166 $161 $158 $260 forward $167 $-1 #
edge $-1 $263 -35.31328328130391 $328 -28.231595492845738 $259 $329 forward 7 unknown #
coedge $-1 $160 $159 $266 $330 reversed $53 $-1 #
edge $-1 $331 -9.6829860746635852 $263 1.0367256691888158e-014 $257 $332 forward 7 unknown #
vertex $-1 $162 $333 #
straight-curve $-1 -3.7272032834247781 -25.693400480784952 3.6229417273208688 1 0 0 I I #
coedge $-1 $256 $163 $166 $270 forward $156 $-1 #
coedge $-1 $163 $256 $261 $330 forward $156 $-1 #
vertex $-1 $164 $334 #
straight-curve $-1 -12.577353144673154 -52.6581259200548 10.704629515779047 0 -1 0 I I #
straight-curve $-1 -12.577353144673154 -25.693400480784945 3.6229417273208782 0 0.68199835119979291 0.73135370988377701 I I #
edge $-1 $168 -12.577353144673154 $328 -2.3314599890259586 $166 $335 forward 7 unknown #
point $-1 -12.577353144673154 -25.693400480784952 10.704629515779043 #
point $-1 -12.577353144673154 -25.693400480784952 3.6229417273208706 #
edge $-1 $336 1 $336 0 $171 $-1 forward 7 unknown #
vertex $-1 $172 $337 #
ellipse-curve $-1 -7.4544065668495563 -20.561485430123238 5.4572599459244211 0 -0.73135370988377701 0.68199835119979291 1 0 0 1 I I #
point $-1 -6.4544065668495563 -22.391510211979398 7.163785621549966 #
plane-surface $-1 54.435254982146674 0 0 -1 0 0 0 0 1 forward_v I I I I #
coedge $-1 $180 $178 $182 $282 reversed $101 $-1 #
edge $-1 $193 -10.704629515779043 $284 10.704629515779043 $192 $338 forward 7 unknown #
vertex $-1 $282 $339 #
straight-curve $-1 -54.435254982146674 -25.693400480784952 0 0 0 -1 I I #
edge $-1 $280 -25.693400480784952 $284 25.693400480784952 $278 $340 forward 7 unknown #
straight-curve $-1 0 -25.693400480784952 -10.704629515779043 -1 0 0 I I #
vertex $-1 $185 $341 #
straight-curve $-1 0 25.693400480784952 -10.704629515779043 1 0 0 I I #
point $-1 54.435254982146674 25.693400480784952 -10.704629515779043 #
point $-1 54.435254982146674 -25.693400480784952 -10.704629515779043 #
straight-curve $-1 -54.435254982146674 0 10.704629515779043 0 -1 0 I I #
point $-1 -54.435254982146674 25.693400480784952 10.704629515779043 #
point $-1 -54.435254982146674 -25.693400480784952 10.704629515779043 #
straight-curve $-1 54.435254982146674 -25.693400480784952 0 0 0 -1 I I #
straight-curve $-1 54.435254982146674 25.693400480784952 0 0 0 -1 I I #
plane-surface $-1 0 25.693400480784952 0 0 -1 0 0 0 -1 forward_v I I I I #
coedge $-1 $304 $303 $208 $296 forward $203 $-1 #
straight-curve $-1 -44.454222747158653 -25.693400480784952 1.0091334591933423 0 0 1 I I #
edge $-1 $299 -25.693400480784952 $297 25.693400480784952 $294 $342 forward 7 unknown #
vertex $-1 $209 $343 #
straight-curve $-1 -24.722369432326332 -25.693400480784952 -0.26290671727817028 1 0 0 I I #
vertex $-1 $211 $344 #
straight-curve $-1 -24.722369432326332 25.693400480784952 -0.26290671727817028 -1 0 0 I I #
point $-1 -44.454222747158653 25.693400480784952 -0.26290671727817028 #
point $-1 -44.454222747158653 -25.693400480784952 -0.26290671727817028 #
coedge $-1 $294 $215 $218 $306 forward $203 $-1 #
coedge $-1 $215 $294 $222 $308 reversed $203 $-1 #
straight-curve $-1 -54.435254982146674 0 4.2994405540515395 0 1 0 I I #
edge $-1 $220 -4.2994405540515395 $299 0.26290671727817028 $218 $345 forward 7 unknown #
point $-1 -54.435254982146674 25.693400480784952 4.2994405540515395 #
edge $-1 $223 -4.2994405540515395 $297 0.26290671727817028 $304 $346 forward 7 unknown #
point $-1 -54.435254982146674 -25.693400480784952 4.2994405540515395 #
straight-curve $-1 -44.454222747158653 25.693400480784952 1.0091334591933423 0 0 -1 I I #
plane-surface $-1 54.435254982146674 0 0 -1 0 0 0 0 1 forward_v I I I I #
coedge $-1 $232 $231 $247 $323 reversed $78 $-1 #
edge $-1 $316 -25.693400480784952 $314 25.693400480784952 $231 $347 forward 7 unknown #
vertex $-1 $239 $348 #
straight-curve $-1 44.454222747158653 25.693400480784952 1.0091334591933423 0 0 1 I I #
vertex $-1 $237 $349 #
straight-curve $-1 24.722369432326332 -25.693400480784952 -0.26290671727817028 1 0 0 I I #
straight-curve $-1 24.722369432326332 25.693400480784952 -0.26290671727817028 -1 0 0 I I #
point $-1 54.435254982146674 -25.693400480784952 -0.26290671727817028 #
point $-1 54.435254982146674 25.693400480784952 -0.26290671727817028 #
straight-curve $-1 44.454222747158653 0 4.2994405540515395 0 -1 0 I I #
point $-1 44.454222747158653 25.693400480784952 4.2994405540515395 #
edge $-1 $249 -3.2903070948581972 $316 1.2720401764715126 $247 $350 forward 7 unknown #
point $-1 44.454222747158653 -25.693400480784952 4.2994405540515395 #
straight-curve $-1 54.435254982146674 -25.693400480784952 0 0 0 -1 I I #
straight-curve $-1 54.435254982146674 25.693400480784952 0 0 0 -1 I I #
edge $-1 $328 26.964725439269849 $331 33.568505976880971 $256 $351 forward 7 unknown #
vertex $-1 $327 $352 #
straight-curve $-1 -2.3314599890259586 -25.693400480784952 38.936225008624781 0 0 1 I I #
edge $-1 $331 -1.3957432943988195 $267 8.8501498612483758 $266 $353 forward 7 unknown #
vertex $-1 $330 $354 #
straight-curve $-1 -2.3314599890259586 -25.693400480784945 3.6229417273208782 0 -0.68199835119979291 -0.73135370988377701 I I #
point $-1 -2.3314599890259586 -25.693400480784952 3.6229417273208706 #
point $-1 -12.577353144673154 -19.089619943173826 10.704629515779043 #
straight-curve $-1 0 -25.693400480784952 10.704629515779043 1 0 0 I I #
vertex $-1 $273 $355 #
point $-1 -6.4544065668495563 -20.561485430123238 5.4572599459244211 #
straight-curve $-1 -54.435254982146674 25.693400480784952 0 0 0 -1 I I #
point $-1 -54.435254982146674 -25.693400480784952 -10.704629515779043 #
straight-curve $-1 -54.435254982146674 0 -10.704629515779043 0 1 0 I I #
point $-1 -54.435254982146674 25.693400480784952 -10.704629515779043 #
straight-curve $-1 -54.435254982146674 0 -0.26290671727817028 0 -1 0 I I #
point $-1 -54.435254982146674 -25.693400480784952 -0.26290671727817028 #
point $-1 -54.435254982146674 25.693400480784952 -0.26290671727817028 #
straight-curve $-1 -54.435254982146674 25.693400480784952 0 0 0 -1 I I #
straight-curve $-1 -54.435254982146674 -25.693400480784952 0 0 0 -1 I I #
straight-curve $-1 44.454222747158653 0 -0.26290671727817028 0 1 0 I I #
point $-1 44.454222747158653 25.693400480784952 -0.26290671727817028 #
point $-1 44.454222747158653 -25.693400480784952 -0.26290671727817028 #
straight-curve $-1 44.454222747158653 -25.693400480784952 1.0091334591933423 0 0 -1 I I #
straight-curve $-1 -2.3314599890259586 -52.6581259200548 10.704629515779047 0 1 0 I I #
point $-1 -2.3314599890259586 -25.693400480784952 10.704629515779043 #
straight-curve $-1 -3.7272032834247781 -19.089619943173826 10.704629515779043 -1 0 0 I I #
point $-1 -2.3314599890259586 -19.089619943173826 10.704629515779043 #
point $-1 -7.4544065668495563 -19.830131720239461 4.7752615947246282 #
End-of-ACIS-data 