500 0 18 0           
7 Unknown 11 ACIS 5.0 NT 24 Thu Mar 25 17:24:29 1999 
-1 9.9999999999999995e-007 1e-010 
body $-1 $18 $-1 $19 #
body $-1 $20 $-1 $21 #
body $-1 $22 $-1 $23 #
body $-1 $24 $-1 $25 #
body $-1 $26 $-1 $27 #
body $-1 $28 $-1 $29 #
body $-1 $30 $-1 $31 #
body $-1 $32 $-1 $33 #
body $-1 $34 $-1 $35 #
body $-1 $36 $-1 $37 #
body $-1 $38 $-1 $39 #
body $-1 $40 $-1 $41 #
body $-1 $42 $-1 $43 #
body $-1 $44 $-1 $45 #
body $-1 $46 $-1 $47 #
body $-1 $48 $-1 $49 #
body $-1 $50 $-1 $51 #
body $-1 $52 $-1 $53 #
lump $-1 $-1 $54 $0 #
transform $-1 1 0 0 0 1 0 0 0 1 51.493270668660543 34.752575321145052 9.8418079986744438 1 rotate no_reflect no_shear #
lump $-1 $-1 $55 $1 #
transform $-1 1 0 0 0 1 0 0 0 1 51.493270668660543 34.752575321145052 9.8418079986744438 1 rotate no_reflect no_shear #
lump $-1 $-1 $56 $2 #
transform $-1 1 0 0 0 1 0 0 0 1 51.493270668660543 34.752575321145052 9.8418079986744438 1 rotate no_reflect no_shear #
lump $-1 $-1 $57 $3 #
transform $-1 1 0 0 0 1 0 0 0 1 51.493270668660543 34.752575321145052 9.8418079986744438 1 rotate no_reflect no_shear #
lump $-1 $-1 $58 $4 #
transform $-1 1 0 0 0 1 0 0 0 1 51.493270668660543 34.752575321145052 9.8418079986744438 1 rotate no_reflect no_shear #
lump $-1 $-1 $59 $5 #
transform $-1 1 0 0 0 1 0 0 0 1 51.493270668660543 34.752575321145052 9.8418079986744438 1 rotate no_reflect no_shear #
lump $-1 $-1 $60 $6 #
transform $-1 1 0 0 0 1 0 0 0 1 51.493270668660543 34.752575321145052 9.8418079986744438 1 rotate no_reflect no_shear #
lump $-1 $-1 $61 $7 #
transform $-1 1 0 0 0 1 0 0 0 1 51.493270668660543 34.752575321145052 9.8418079986744438 1 rotate no_reflect no_shear #
lump $-1 $-1 $62 $8 #
transform $-1 1 0 0 0 1 0 0 0 1 51.493270668660543 34.752575321145052 9.8418079986744438 1 rotate no_reflect no_shear #
lump $-1 $-1 $63 $9 #
transform $-1 1 0 0 0 1 0 0 0 1 51.493270668660543 34.752575321145052 9.8418079986744438 1 rotate no_reflect no_shear #
lump $-1 $-1 $64 $10 #
transform $-1 1 0 0 0 1 0 0 0 1 51.493270668660543 34.752575321145052 9.8418079986744438 1 rotate no_reflect no_shear #
lump $-1 $-1 $65 $11 #
transform $-1 1 0 0 0 1 0 0 0 1 51.493270668660543 34.752575321145052 9.8418079986744438 1 rotate no_reflect no_shear #
lump $-1 $-1 $66 $12 #
transform $-1 1 0 0 0 1 0 0 0 1 51.493270668660543 34.752575321145052 9.8418079986744438 1 rotate no_reflect no_shear #
lump $-1 $-1 $67 $13 #
transform $-1 1 0 0 0 1 0 0 0 1 51.493270668660543 34.752575321145052 9.8418079986744438 1 rotate no_reflect no_shear #
lump $-1 $-1 $68 $14 #
transform $-1 1 0 0 0 1 0 0 0 1 51.493270668660543 34.752575321145052 9.8418079986744438 1 rotate no_reflect no_shear #
lump $-1 $-1 $69 $15 #
transform $-1 1 0 0 0 1 0 0 0 1 51.493270668660543 34.752575321145052 9.8418079986744438 1 rotate no_reflect no_shear #
lump $-1 $-1 $70 $16 #
transform $-1 1 0 0 0 1 0 0 0 1 51.493270668660543 34.752575321145052 9.8418079986744438 1 rotate no_reflect no_shear #
lump $-1 $-1 $71 $17 #
transform $-1 1 0 0 0 1 0 0 0 1 51.493270668660543 34.752575321145052 9.8418079986744438 1 rotate no_reflect no_shear #
shell $-1 $-1 $-1 $72 $-1 $18 #
shell $-1 $-1 $-1 $73 $-1 $20 #
shell $-1 $-1 $-1 $74 $-1 $22 #
shell $-1 $-1 $-1 $75 $-1 $24 #
shell $-1 $-1 $-1 $76 $-1 $26 #
shell $-1 $-1 $-1 $77 $-1 $28 #
shell $-1 $-1 $-1 $78 $-1 $30 #
shell $-1 $-1 $-1 $79 $-1 $32 #
shell $-1 $-1 $-1 $80 $-1 $34 #
shell $-1 $-1 $-1 $81 $-1 $36 #
shell $-1 $-1 $-1 $82 $-1 $38 #
shell $-1 $-1 $-1 $83 $-1 $40 #
shell $-1 $-1 $-1 $84 $-1 $42 #
shell $-1 $-1 $-1 $85 $-1 $44 #
shell $-1 $-1 $-1 $86 $-1 $46 #
shell $-1 $-1 $-1 $87 $-1 $48 #
shell $-1 $-1 $-1 $88 $-1 $50 #
shell $-1 $-1 $-1 $89 $-1 $52 #
face $-1 $90 $91 $54 $-1 $92 reversed single #
face $-1 $93 $94 $55 $-1 $95 forward single #
face $-1 $96 $97 $56 $-1 $98 reversed single #
face $-1 $99 $100 $57 $-1 $101 forward single #
face $-1 $102 $103 $58 $-1 $104 forward single #
face $-1 $105 $106 $59 $-1 $107 forward single #
face $-1 $108 $109 $60 $-1 $110 reversed single #
face $-1 $111 $112 $61 $-1 $113 forward single #
face $-1 $114 $115 $62 $-1 $116 forward single #
face $-1 $117 $118 $63 $-1 $119 forward single #
face $-1 $120 $121 $64 $-1 $122 reversed single #
face $-1 $123 $124 $65 $-1 $125 forward single #
face $-1 $126 $127 $66 $-1 $128 forward single #
face $-1 $129 $130 $67 $-1 $131 forward single #
face $-1 $132 $133 $68 $-1 $134 reversed single #
face $-1 $135 $136 $69 $-1 $137 forward single #
face $-1 $138 $139 $70 $-1 $140 forward single #
face $-1 $141 $142 $71 $-1 $143 forward single #
face $-1 $144 $145 $54 $-1 $146 forward single #
loop $-1 $-1 $147 $72 #
plane-surface $-1 -51.493270668660543 0 0 1 0 0 0 0 -1 forward_v I I I I #
face $-1 $148 $149 $55 $-1 $150 reversed single #
loop $-1 $-1 $151 $73 #
plane-surface $-1 -51.493270668660543 0 0 1 0 0 0 0 -1 forward_v I I I I #
face $-1 $152 $153 $56 $-1 $154 reversed single #
loop $-1 $-1 $155 $74 #
plane-surface $-1 5.5653716701192906 -87.794566018747673 89.134452944244302 -1 0 0 0 -0.51503808176128008 0.85716729658548041 forward_v I I I I #
face $-1 $156 $157 $57 $-1 $158 forward single #
loop $-1 $159 $160 $75 #
cone-surface $-1 -4.1651139804350237 -26.914387967322455 4.7469771531324954 0 0.51503808176128008 -0.85716729658548041 1 0 0 1 I I 0 1 1 forward I I I I #
face $-1 $161 $162 $58 $-1 $163 forward single #
loop $-1 $164 $165 $76 #
cone-surface $-1 -0.51618186147715761 -26.914387967322455 4.7469771531324954 0 0.51503808176128008 -0.85716729658548041 1 0 0 1 I I 0 1 1 forward I I I I #
face $-1 $166 $167 $59 $-1 $168 forward single #
loop $-1 $169 $170 $77 #
cone-surface $-1 3.1327502574807085 -26.914387967322455 4.7469771531324954 0 0.51503808176128008 -0.85716729658548041 1 0 0 1 I I 0 1 1 forward I I I I #
face $-1 $171 $172 $60 $-1 $173 reversed single #
loop $-1 $-1 $174 $78 #
plane-surface $-1 45.411717137064102 -34.752575321145045 0.85775772144396001 0 -0.51503808176128008 0.85716729658548041 1 0 0 forward_v I I I I #
face $-1 $175 $176 $61 $-1 $177 forward single #
loop $-1 $178 $179 $79 #
cone-surface $-1 41.762785018106243 -26.914387967322455 4.7469771531324954 0 0.51503808176128008 -0.85716729658548041 1 0 0 1 I I 0 1 1 forward I I I I #
face $-1 $180 $181 $62 $-1 $182 forward single #
loop $-1 $183 $184 $80 #
cone-surface $-1 45.411717137064102 -26.914387967322455 4.7469771531324954 0 0.51503808176128008 -0.85716729658548041 1 0 0 1 I I 0 1 1 forward I I I I #
face $-1 $185 $186 $63 $-1 $187 forward single #
loop $-1 $188 $189 $81 #
cone-surface $-1 49.060649256021961 -26.914387967322455 4.7469771531324954 0 0.51503808176128008 -0.85716729658548041 1 0 0 1 I I 0 1 1 forward I I I I #
face $-1 $190 $191 $64 $-1 $192 reversed single #
loop $-1 $-1 $193 $82 #
plane-surface $-1 -6.5977353930736058 28.217023943929298 124.9322524035782 1 0 0 0 -0.51503808176128008 -0.85716729658548041 forward_v I I I I #
face $-1 $194 $195 $65 $-1 $196 forward single #
loop $-1 $197 $198 $83 #
cone-surface $-1 -4.1651139804350237 26.914387967322455 4.7469771531324989 0 -0.51503808176128008 -0.85716729658548041 1 0 0 1 I I 0 1 1 forward I I I I #
face $-1 $199 $200 $66 $-1 $201 forward single #
loop $-1 $202 $203 $84 #
cone-surface $-1 -0.51618186147715761 26.914387967322455 4.7469771531324989 0 -0.51503808176128008 -0.85716729658548041 1 0 0 1 I I 0 1 1 forward I I I I #
face $-1 $204 $205 $67 $-1 $206 forward single #
loop $-1 $207 $208 $85 #
cone-surface $-1 3.1327502574807085 26.914387967322455 4.7469771531324989 0 -0.51503808176128008 -0.85716729658548041 1 0 0 1 I I 0 1 1 forward I I I I #
face $-1 $209 $210 $68 $-1 $211 reversed single #
loop $-1 $-1 $212 $86 #
plane-surface $-1 45.411717137064102 -24.82496675367333 36.655557180777862 0 0.51503808176128008 0.85716729658548041 1 0 0 forward_v I I I I #
face $-1 $213 $214 $69 $-1 $215 forward single #
loop $-1 $216 $217 $87 #
cone-surface $-1 41.762785018106243 26.914387967322455 4.7469771531324989 0 -0.51503808176128008 -0.85716729658548041 1 0 0 1 I I 0 1 1 forward I I I I #
face $-1 $218 $219 $70 $-1 $220 forward single #
loop $-1 $221 $222 $88 #
cone-surface $-1 45.411717137064102 26.914387967322455 4.7469771531324989 0 -0.51503808176128008 -0.85716729658548041 1 0 0 1 I I 0 1 1 forward I I I I #
face $-1 $223 $224 $71 $-1 $225 forward single #
loop $-1 $226 $227 $89 #
cone-surface $-1 49.060649256021961 26.914387967322455 4.7469771531324989 0 -0.51503808176128008 -0.85716729658548041 1 0 0 1 I I 0 1 1 forward I I I I #
face $-1 $228 $229 $54 $-1 $230 reversed single #
loop $-1 $-1 $231 $90 #
plane-surface $-1 0 0 9.8418079986744438 0 0 1 1 0 0 forward_v I I I I #
coedge $-1 $232 $233 $234 $235 reversed $91 $-1 #
face $-1 $236 $237 $55 $-1 $238 reversed single #
loop $-1 $-1 $239 $93 #
plane-surface $-1 0 0 -9.8418079986744438 0 0 1 1 0 0 forward_v I I I I #
coedge $-1 $240 $241 $242 $243 forward $94 $-1 #
face $-1 $244 $245 $56 $-1 $246 reversed single #
loop $-1 $-1 $247 $96 #
plane-surface $-1 -0.51618186147715761 -34.752575321145045 0.85775772144396001 0 -0.51503808176128008 0.85716729658548041 1 0 0 forward_v I I I I #
coedge $-1 $248 $249 $250 $251 reversed $97 $-1 #
face $-1 $-1 $252 $57 $-1 $253 forward single #
loop $-1 $254 $255 $99 #
cone-surface $-1 -4.1651139804350237 -26.294666709666828 3.7155877979130452 0 0.51503808176128008 -0.85716729658548041 0.5 0 0 1 I I -0.70710678118654746 0.70710678118654746 0.5 forward I I I I #
loop $-1 $-1 $256 $75 #
coedge $-1 $160 $160 $257 $258 reversed $100 $-1 #
face $-1 $-1 $259 $58 $-1 $260 forward single #
loop $-1 $261 $262 $102 #
cone-surface $-1 -0.51618186147715761 -26.294666709666828 3.7155877979130452 0 0.51503808176128008 -0.85716729658548041 0.5 0 0 1 I I -0.70710678118654746 0.70710678118654746 0.5 forward I I I I #
loop $-1 $-1 $263 $76 #
coedge $-1 $165 $165 $264 $265 reversed $103 $-1 #
face $-1 $-1 $266 $59 $-1 $267 forward single #
loop $-1 $268 $269 $105 #
cone-surface $-1 3.1327502574807085 -26.294666709666828 3.7155877979130452 0 0.51503808176128008 -0.85716729658548041 0.5 0 0 1 I I -0.70710678118654746 0.70710678118654746 0.5 forward I I I I #
loop $-1 $-1 $270 $77 #
coedge $-1 $170 $170 $271 $272 reversed $106 $-1 #
face $-1 $273 $274 $60 $-1 $275 reversed single #
loop $-1 $-1 $276 $108 #
plane-surface $-1 39.330163605467654 -87.794566018747673 89.134452944244302 1 0 0 0 0.51503808176128008 -0.85716729658548041 forward_v I I I I #
coedge $-1 $277 $278 $279 $280 reversed $109 $-1 #
face $-1 $-1 $281 $61 $-1 $282 forward single #
loop $-1 $283 $284 $111 #
cone-surface $-1 41.762785018106243 -26.294666709666828 3.7155877979130452 0 0.51503808176128008 -0.85716729658548041 0.5 0 0 1 I I -0.70710678118654746 0.70710678118654746 0.5 forward I I I I #
loop $-1 $-1 $285 $79 #
coedge $-1 $179 $179 $286 $287 reversed $112 $-1 #
face $-1 $-1 $288 $62 $-1 $289 forward single #
loop $-1 $290 $291 $114 #
cone-surface $-1 45.411717137064102 -26.294666709666828 3.7155877979130452 0 0.51503808176128008 -0.85716729658548041 0.5 0 0 1 I I -0.70710678118654746 0.70710678118654746 0.5 forward I I I I #
loop $-1 $-1 $292 $80 #
coedge $-1 $184 $184 $293 $294 reversed $115 $-1 #
face $-1 $-1 $295 $63 $-1 $296 forward single #
loop $-1 $297 $298 $117 #
cone-surface $-1 49.060649256021961 -26.294666709666828 3.7155877979130452 0 0.51503808176128008 -0.85716729658548041 0.5 0 0 1 I I -0.70710678118654746 0.70710678118654746 0.5 forward I I I I #
loop $-1 $-1 $299 $81 #
coedge $-1 $189 $189 $300 $301 reversed $118 $-1 #
face $-1 $302 $303 $64 $-1 $304 reversed single #
loop $-1 $-1 $305 $120 #
plane-surface $-1 -0.51618186147715761 -24.82496675367333 36.655557180777862 0 0.51503808176128008 0.85716729658548041 1 0 0 forward_v I I I I #
coedge $-1 $306 $307 $308 $309 reversed $121 $-1 #
face $-1 $-1 $310 $65 $-1 $311 forward single #
loop $-1 $312 $313 $123 #
cone-surface $-1 -4.1651139804350237 26.294666709666828 3.7155877979130487 0 -0.51503808176128008 -0.85716729658548041 0.5 0 0 1 I I -0.70710678118654746 0.70710678118654746 0.5 forward I I I I #
loop $-1 $-1 $314 $83 #
coedge $-1 $198 $198 $315 $316 reversed $124 $-1 #
face $-1 $-1 $317 $66 $-1 $318 forward single #
loop $-1 $319 $320 $126 #
cone-surface $-1 -0.51618186147715761 26.294666709666828 3.7155877979130487 0 -0.51503808176128008 -0.85716729658548041 0.5 0 0 1 I I -0.70710678118654746 0.70710678118654746 0.5 forward I I I I #
loop $-1 $-1 $321 $84 #
coedge $-1 $203 $203 $322 $323 reversed $127 $-1 #
face $-1 $-1 $324 $67 $-1 $325 forward single #
loop $-1 $326 $327 $129 #
cone-surface $-1 3.1327502574807085 26.294666709666828 3.7155877979130487 0 -0.51503808176128008 -0.85716729658548041 0.5 0 0 1 I I -0.70710678118654746 0.70710678118654746 0.5 forward I I I I #
loop $-1 $-1 $328 $85 #
coedge $-1 $208 $208 $329 $330 reversed $130 $-1 #
face $-1 $331 $332 $68 $-1 $333 forward single #
loop $-1 $-1 $334 $132 #
plane-surface $-1 39.330163605467654 28.217023943929298 124.9322524035782 1 0 0 0 -0.51503808176128008 -0.85716729658548041 forward_v I I I I #
coedge $-1 $335 $336 $337 $338 reversed $133 $-1 #
face $-1 $-1 $339 $69 $-1 $340 forward single #
loop $-1 $341 $342 $135 #
cone-surface $-1 41.762785018106243 26.294666709666828 3.7155877979130487 0 -0.51503808176128008 -0.85716729658548041 0.5 0 0 1 I I -0.70710678118654746 0.70710678118654746 0.5 forward I I I I #
loop $-1 $-1 $343 $87 #
coedge $-1 $217 $217 $344 $345 reversed $136 $-1 #
face $-1 $-1 $346 $70 $-1 $347 forward single #
loop $-1 $348 $349 $138 #
cone-surface $-1 45.411717137064102 26.294666709666828 3.7155877979130487 0 -0.51503808176128008 -0.85716729658548041 0.5 0 0 1 I I -0.70710678118654746 0.70710678118654746 0.5 forward I I I I #
loop $-1 $-1 $350 $88 #
coedge $-1 $222 $222 $351 $352 reversed $139 $-1 #
face $-1 $-1 $353 $71 $-1 $354 forward single #
loop $-1 $355 $356 $141 #
cone-surface $-1 49.060649256021961 26.294666709666828 3.7155877979130487 0 -0.51503808176128008 -0.85716729658548041 0.5 0 0 1 I I -0.70710678118654746 0.70710678118654746 0.5 forward I I I I #
loop $-1 $-1 $357 $89 #
coedge $-1 $227 $227 $358 $359 reversed $142 $-1 #
face $-1 $360 $361 $54 $-1 $362 reversed single #
loop $-1 $-1 $363 $144 #
plane-surface $-1 0 0 -9.8418079986744438 0 0 1 1 0 0 forward_v I I I I #
coedge $-1 $364 $365 $366 $367 forward $145 $-1 #
coedge $-1 $368 $147 $369 $370 reversed $91 $-1 #
coedge $-1 $147 $368 $371 $372 forward $91 $-1 #
coedge $-1 $373 $374 $147 $235 forward $229 $-1 #
edge $-1 $375 -34.752575321145052 $376 34.752575321145052 $147 $377 forward 7 unknown #
face $-1 $378 $379 $55 $-1 $380 reversed single #
loop $-1 $-1 $381 $148 #
plane-surface $-1 -57.058642338779826 -20.737362562194065 0 0 1 0 0 0 1 forward_v I I I I #
coedge $-1 $382 $383 $241 $384 forward $149 $-1 #
coedge $-1 $385 $151 $386 $387 reversed $94 $-1 #
coedge $-1 $151 $385 $239 $384 reversed $94 $-1 #
coedge $-1 $388 $389 $151 $243 reversed $390 $-1 #
edge $-1 $391 -9.8418079986744438 $392 9.8418079986744438 $242 $393 forward 7 unknown #
face $-1 $394 $395 $56 $-1 $396 forward single #
loop $-1 $-1 $397 $152 #
plane-surface $-1 -6.5977353930736058 -87.794566018747673 89.134452944244302 1 0 0 0 0.51503808176128008 -0.85716729658548041 forward_v I I I I #
coedge $-1 $398 $399 $400 $401 reversed $153 $-1 #
coedge $-1 $249 $155 $402 $403 reversed $97 $-1 #
coedge $-1 $155 $248 $398 $404 reversed $97 $-1 #
coedge $-1 $400 $405 $155 $251 forward $395 $-1 #
edge $-1 $406 9.1447076882287845 $407 24.096677962324023 $250 $408 forward 7 unknown #
loop $-1 $-1 $257 $156 #
plane-surface $-1 -0.51618186147715761 -34.752575321145045 0.85775772144396001 0 -0.51503808176128008 0.85716729658548041 1 0 0 forward_v I I I I #
loop $-1 $-1 $409 $99 #
coedge $-1 $255 $255 $256 $410 reversed $157 $-1 #
coedge $-1 $256 $256 $255 $410 forward $159 $-1 #
coedge $-1 $257 $257 $160 $258 forward $252 $-1 #
edge $-1 $411 -1.5160828637581882e-015 $411 6.2831853071795987 $257 $412 forward 7 unknown #
loop $-1 $-1 $264 $161 #
plane-surface $-1 -0.51618186147715761 -34.752575321145045 0.85775772144396001 0 -0.51503808176128008 0.85716729658548041 1 0 0 forward_v I I I I #
loop $-1 $-1 $413 $102 #
coedge $-1 $262 $262 $263 $414 reversed $162 $-1 #
coedge $-1 $263 $263 $262 $414 forward $164 $-1 #
coedge $-1 $264 $264 $165 $265 forward $259 $-1 #
edge $-1 $415 -1.5160828637581882e-015 $415 6.2831853071795987 $264 $416 forward 7 unknown #
loop $-1 $-1 $271 $166 #
plane-surface $-1 -0.51618186147715761 -34.752575321145045 0.85775772144396001 0 -0.51503808176128008 0.85716729658548041 1 0 0 forward_v I I I I #
loop $-1 $-1 $417 $105 #
coedge $-1 $269 $269 $270 $418 reversed $167 $-1 #
coedge $-1 $270 $270 $269 $418 forward $169 $-1 #
coedge $-1 $271 $271 $170 $272 forward $266 $-1 #
edge $-1 $419 -1.5160828637581882e-015 $419 6.2831853071795987 $271 $420 forward 7 unknown #
face $-1 $421 $422 $60 $-1 $423 forward single #
loop $-1 $-1 $424 $171 #
plane-surface $-1 0 -34.752575321145052 0 0 1 0 0 0 1 forward_v I I I I #
coedge $-1 $425 $426 $427 $428 reversed $172 $-1 #
coedge $-1 $429 $174 $430 $431 reversed $109 $-1 #
coedge $-1 $174 $429 $425 $432 forward $109 $-1 #
coedge $-1 $427 $433 $174 $280 forward $422 $-1 #
edge $-1 $434 -28.787412100128499 $435 -16.624305036935603 $279 $436 forward 7 unknown #
loop $-1 $-1 $286 $175 #
plane-surface $-1 45.411717137064102 -34.752575321145045 0.85775772144396001 0 -0.51503808176128008 0.85716729658548041 1 0 0 forward_v I I I I #
loop $-1 $-1 $437 $111 #
coedge $-1 $284 $284 $285 $438 reversed $176 $-1 #
coedge $-1 $285 $285 $284 $438 forward $178 $-1 #
coedge $-1 $286 $286 $179 $287 forward $281 $-1 #
edge $-1 $439 -1.5160828637581882e-015 $439 6.2831853071795987 $286 $440 forward 7 unknown #
loop $-1 $-1 $293 $180 #
plane-surface $-1 45.411717137064102 -34.752575321145045 0.85775772144396001 0 -0.51503808176128008 0.85716729658548041 1 0 0 forward_v I I I I #
loop $-1 $-1 $441 $114 #
coedge $-1 $291 $291 $292 $442 reversed $181 $-1 #
coedge $-1 $292 $292 $291 $442 forward $183 $-1 #
coedge $-1 $293 $293 $184 $294 forward $288 $-1 #
edge $-1 $443 -1.5160828637581882e-015 $443 6.2831853071795987 $293 $444 forward 7 unknown #
loop $-1 $-1 $300 $185 #
plane-surface $-1 45.411717137064102 -34.752575321145045 0.85775772144396001 0 -0.51503808176128008 0.85716729658548041 1 0 0 forward_v I I I I #
loop $-1 $-1 $445 $117 #
coedge $-1 $298 $298 $299 $446 reversed $186 $-1 #
coedge $-1 $299 $299 $298 $446 forward $188 $-1 #
coedge $-1 $300 $300 $189 $301 forward $295 $-1 #
edge $-1 $447 -1.5160828637581882e-015 $447 6.2831853071795987 $300 $448 forward 7 unknown #
face $-1 $449 $450 $64 $-1 $451 forward single #
loop $-1 $-1 $452 $190 #
plane-surface $-1 5.5653716701192906 28.217023943929298 124.9322524035782 -1 0 0 0 0.51503808176128008 0.85716729658548041 forward_v I I I I #
coedge $-1 $453 $454 $455 $456 reversed $191 $-1 #
coedge $-1 $307 $193 $457 $458 reversed $121 $-1 #
coedge $-1 $193 $306 $453 $459 reversed $121 $-1 #
coedge $-1 $455 $460 $193 $309 forward $450 $-1 #
edge $-1 $461 -20.644063349180403 $462 -5.6920930750851646 $308 $463 forward 7 unknown #
loop $-1 $-1 $315 $194 #
plane-surface $-1 -0.51618186147715761 -24.82496675367333 36.655557180777862 0 0.51503808176128008 0.85716729658548041 1 0 0 forward_v I I I I #
loop $-1 $-1 $464 $123 #
coedge $-1 $313 $313 $314 $465 reversed $195 $-1 #
coedge $-1 $314 $314 $313 $465 forward $197 $-1 #
coedge $-1 $315 $315 $198 $316 forward $310 $-1 #
edge $-1 $466 -1.0717414062973767e-015 $466 6.2831853071795996 $315 $467 forward 7 unknown #
loop $-1 $-1 $322 $199 #
plane-surface $-1 -0.51618186147715761 -24.82496675367333 36.655557180777862 0 0.51503808176128008 0.85716729658548041 1 0 0 forward_v I I I I #
loop $-1 $-1 $468 $126 #
coedge $-1 $320 $320 $321 $469 reversed $200 $-1 #
coedge $-1 $321 $321 $320 $469 forward $202 $-1 #
coedge $-1 $322 $322 $203 $323 forward $317 $-1 #
edge $-1 $470 -1.0717414062973767e-015 $470 6.2831853071795996 $322 $471 forward 7 unknown #
loop $-1 $-1 $329 $204 #
plane-surface $-1 -0.51618186147715761 -24.82496675367333 36.655557180777862 0 0.51503808176128008 0.85716729658548041 1 0 0 forward_v I I I I #
loop $-1 $-1 $472 $129 #
coedge $-1 $327 $327 $328 $473 reversed $205 $-1 #
coedge $-1 $328 $328 $327 $473 forward $207 $-1 #
coedge $-1 $329 $329 $208 $330 forward $324 $-1 #
edge $-1 $474 -1.0717414062973767e-015 $474 6.2831853071795996 $329 $475 forward 7 unknown #
face $-1 $476 $477 $68 $-1 $478 reversed single #
loop $-1 $-1 $479 $209 #
plane-surface $-1 0 0 9.8418079986744438 0 0 1 1 0 0 forward_v I I I I #
coedge $-1 $480 $481 $482 $483 reversed $210 $-1 #
coedge $-1 $484 $212 $485 $486 reversed $133 $-1 #
coedge $-1 $212 $484 $480 $487 forward $133 $-1 #
coedge $-1 $482 $488 $212 $338 forward $489 $-1 #
edge $-1 $490 -28.787412100128492 $491 -16.624305036935603 $337 $492 forward 7 unknown #
loop $-1 $-1 $344 $213 #
plane-surface $-1 45.411717137064102 -24.82496675367333 36.655557180777862 0 0.51503808176128008 0.85716729658548041 1 0 0 forward_v I I I I #
loop $-1 $-1 $493 $135 #
coedge $-1 $342 $342 $343 $494 reversed $214 $-1 #
coedge $-1 $343 $343 $342 $494 forward $216 $-1 #
coedge $-1 $344 $344 $217 $345 forward $339 $-1 #
edge $-1 $495 -1.0717414062973767e-015 $495 6.2831853071795996 $344 $496 forward 7 unknown #
loop $-1 $-1 $351 $218 #
plane-surface $-1 45.411717137064102 -24.82496675367333 36.655557180777862 0 0.51503808176128008 0.85716729658548041 1 0 0 forward_v I I I I #
loop $-1 $-1 $497 $138 #
coedge $-1 $349 $349 $350 $498 reversed $219 $-1 #
coedge $-1 $350 $350 $349 $498 forward $221 $-1 #
coedge $-1 $351 $351 $222 $352 forward $346 $-1 #
edge $-1 $499 -1.0717414062973767e-015 $499 6.2831853071795996 $351 $500 forward 7 unknown #
loop $-1 $-1 $358 $223 #
plane-surface $-1 45.411717137064102 -24.82496675367333 36.655557180777862 0 0.51503808176128008 0.85716729658548041 1 0 0 forward_v I I I I #
loop $-1 $-1 $501 $141 #
coedge $-1 $356 $356 $357 $502 reversed $224 $-1 #
coedge $-1 $357 $357 $356 $502 forward $226 $-1 #
coedge $-1 $358 $358 $227 $359 forward $353 $-1 #
edge $-1 $503 -1.0717414062973767e-015 $503 6.2831853071795996 $358 $504 forward 7 unknown #
face $-1 $505 $506 $54 $-1 $507 reversed single #
loop $-1 $-1 $369 $228 #
plane-surface $-1 0 -34.752575321145052 0 0 1 0 0 0 1 forward_v I I I I #
coedge $-1 $374 $373 $508 $509 forward $229 $-1 #
coedge $-1 $510 $231 $511 $512 forward $145 $-1 #
coedge $-1 $231 $510 $513 $514 forward $145 $-1 #
coedge $-1 $515 $516 $231 $367 reversed $517 $-1 #
edge $-1 $518 -34.752575321145052 $519 34.752575321145052 $366 $520 forward 7 unknown #
coedge $-1 $233 $232 $510 $521 reversed $91 $-1 #
coedge $-1 $522 $513 $232 $370 forward $361 $-1 #
edge $-1 $523 -9.8418079986744438 $375 9.8418079986744438 $232 $524 forward 7 unknown #
coedge $-1 $511 $525 $233 $372 reversed $506 $-1 #
edge $-1 $526 -9.8418079986744438 $376 9.8418079986744438 $371 $527 forward 7 unknown #
coedge $-1 $363 $234 $525 $528 forward $229 $-1 #
coedge $-1 $234 $363 $522 $529 forward $229 $-1 #
vertex $-1 $235 $530 #
vertex $-1 $528 $531 #
straight-curve $-1 -51.493270668660543 0 -9.8418079986744438 0 1 0 I I #
face $-1 $532 $390 $55 $-1 $533 reversed single #
loop $-1 $-1 $534 $236 #
plane-surface $-1 -62.62401400889911 -17.903160942995115 0 1 0 0 0 0 -1 forward_v I I I I #
coedge $-1 $535 $536 $537 $538 forward $237 $-1 #
coedge $-1 $539 $239 $535 $540 forward $149 $-1 #
coedge $-1 $239 $539 $388 $541 forward $149 $-1 #
edge $-1 $391 15.068959323796166 $542 20.737362562194065 $239 $543 forward 7 unknown #
coedge $-1 $241 $240 $544 $545 forward $94 $-1 #
coedge $-1 $546 $547 $240 $387 forward $548 $-1 #
edge $-1 $549 -20.737362562194065 $392 -15.068959323796166 $386 $550 forward 7 unknown #
coedge $-1 $551 $242 $383 $541 reversed $390 $-1 #
coedge $-1 $242 $551 $546 $552 reversed $390 $-1 #
loop $-1 $-1 $242 $378 #
vertex $-1 $384 $553 #
vertex $-1 $552 $554 #
straight-curve $-1 -51.493270668660543 -15.068959323796166 0 0 0 1 I I #
face $-1 $-1 $555 $56 $-1 $556 reversed single #
loop $-1 $-1 $250 $244 #
plane-surface $-1 0 0 9.8418079986744438 0 0 1 1 0 0 forward_v I I I I #
coedge $-1 $557 $558 $559 $560 reversed $245 $-1 #
coedge $-1 $561 $247 $249 $404 forward $153 $-1 #
coedge $-1 $247 $561 $557 $562 forward $153 $-1 #
coedge $-1 $559 $250 $247 $401 forward $395 $-1 #
edge $-1 $407 -5.8234626008578694 $563 6.339644462335027 $400 $564 forward 7 unknown #
coedge $-1 $565 $566 $248 $403 forward $555 $-1 #
edge $-1 $567 -43.709468750678198 $406 -34.725418473447704 $402 $568 forward 7 unknown #
edge $-1 $407 -17.443467959704357 $567 8.2634070795339233e-015 $249 $569 forward 7 unknown #
coedge $-1 $250 $559 $565 $570 forward $395 $-1 #
vertex $-1 $251 $571 #
vertex $-1 $251 $572 #
straight-curve $-1 5.5653716701192906 -43.897283009373837 9.8418079986744402 0 1 0 I I #
coedge $-1 $409 $409 $-1 $573 reversed $254 $-1 #
edge $-1 $574 0 $574 6.2831853071796004 $255 $575 forward 7 unknown #
vertex $-1 $258 $576 #
ellipse-curve $-1 -4.1651139804350237 -27.276590184097437 5.3497828600591966 0 -0.51503808176128008 0.85716729658548041 1 0 0 1 I I #
coedge $-1 $413 $413 $-1 $577 reversed $261 $-1 #
edge $-1 $578 0 $578 6.2831853071796004 $262 $579 forward 7 unknown #
vertex $-1 $265 $580 #
ellipse-curve $-1 -0.51618186147715761 -27.276590184097437 5.3497828600591966 0 -0.51503808176128008 0.85716729658548041 1 0 0 1 I I #
coedge $-1 $417 $417 $-1 $581 reversed $268 $-1 #
edge $-1 $582 0 $582 6.2831853071796004 $269 $583 forward 7 unknown #
vertex $-1 $272 $584 #
ellipse-curve $-1 3.1327502574807085 -27.276590184097437 5.3497828600591966 0 -0.51503808176128008 0.85716729658548041 1 0 0 1 I I #
face $-1 $-1 $585 $60 $-1 $586 reversed single #
loop $-1 $-1 $427 $273 #
plane-surface $-1 0 0 9.8418079986744438 0 0 1 1 0 0 forward_v I I I I #
coedge $-1 $587 $588 $426 $589 forward $274 $-1 #
coedge $-1 $426 $276 $278 $432 reversed $172 $-1 #
coedge $-1 $276 $425 $424 $589 reversed $172 $-1 #
coedge $-1 $590 $279 $276 $428 forward $422 $-1 #
edge $-1 $435 -24.096677962324023 $591 -9.1447076882287845 $427 $592 forward 7 unknown #
coedge $-1 $278 $277 $587 $593 reversed $109 $-1 #
coedge $-1 $594 $595 $277 $431 forward $585 $-1 #
edge $-1 $596 -14.673496572970388 $434 2.7699713867339799 $430 $597 forward 7 unknown #
edge $-1 $598 -8.2634070795339233e-015 $435 17.443467959704357 $425 $599 forward 7 unknown #
coedge $-1 $279 $590 $594 $600 forward $422 $-1 #
vertex $-1 $431 $601 #
vertex $-1 $280 $602 #
straight-curve $-1 22.705858568532051 -19.800605047049814 9.8418079986744438 -1 0 0 I I #
coedge $-1 $437 $437 $-1 $603 reversed $283 $-1 #
edge $-1 $604 0 $604 6.2831853071796004 $284 $605 forward 7 unknown #
vertex $-1 $287 $606 #
ellipse-curve $-1 41.762785018106243 -27.276590184097437 5.3497828600591966 0 -0.51503808176128008 0.85716729658548041 1 0 0 1 I I #
coedge $-1 $441 $441 $-1 $607 reversed $290 $-1 #
edge $-1 $608 0 $608 6.2831853071796004 $291 $609 forward 7 unknown #
vertex $-1 $294 $610 #
ellipse-curve $-1 45.411717137064102 -27.276590184097437 5.3497828600591966 0 -0.51503808176128008 0.85716729658548041 1 0 0 1 I I #
coedge $-1 $445 $445 $-1 $611 reversed $297 $-1 #
edge $-1 $612 0 $612 6.2831853071796004 $298 $613 forward 7 unknown #
vertex $-1 $301 $614 #
ellipse-curve $-1 49.060649256021961 -27.276590184097437 5.3497828600591966 0 -0.51503808176128008 0.85716729658548041 1 0 0 1 I I #
face $-1 $-1 $615 $64 $-1 $616 reversed single #
loop $-1 $-1 $308 $302 #
plane-surface $-1 0 0 9.8418079986744438 0 0 1 1 0 0 forward_v I I I I #
coedge $-1 $617 $618 $619 $620 reversed $303 $-1 #
coedge $-1 $621 $305 $307 $459 forward $191 $-1 #
coedge $-1 $305 $621 $617 $622 forward $191 $-1 #
coedge $-1 $619 $308 $305 $456 forward $450 $-1 #
edge $-1 $462 -6.339644462335027 $623 5.8234626008578694 $455 $624 forward 7 unknown #
coedge $-1 $625 $626 $306 $458 forward $615 $-1 #
edge $-1 $627 -61.608368480345142 $461 -52.624318203114655 $457 $628 forward 7 unknown #
edge $-1 $462 52.06168268258574 $627 69.50515064229009 $307 $629 forward 7 unknown #
coedge $-1 $308 $619 $625 $630 forward $450 $-1 #
vertex $-1 $458 $631 #
vertex $-1 $309 $632 #
straight-curve $-1 -6.5977353930736058 14.108511971964649 9.8418079986744402 0 -1 0 I I #
coedge $-1 $464 $464 $-1 $633 reversed $312 $-1 #
edge $-1 $634 0 $634 6.2831853071796004 $313 $635 forward 7 unknown #
vertex $-1 $316 $636 #
ellipse-curve $-1 -4.1651139804350237 27.27659018409744 5.349782860059201 0 0.51503808176128008 0.85716729658548041 1 0 0 1 I I #
coedge $-1 $468 $468 $-1 $637 reversed $319 $-1 #
edge $-1 $638 0 $638 6.2831853071796004 $320 $639 forward 7 unknown #
vertex $-1 $323 $640 #
ellipse-curve $-1 -0.51618186147715761 27.27659018409744 5.349782860059201 0 0.51503808176128008 0.85716729658548041 1 0 0 1 I I #
coedge $-1 $472 $472 $-1 $641 reversed $326 $-1 #
edge $-1 $642 0 $642 6.2831853071796004 $327 $643 forward 7 unknown #
vertex $-1 $330 $644 #
ellipse-curve $-1 3.1327502574807085 27.27659018409744 5.349782860059201 0 0.51503808176128008 0.85716729658548041 1 0 0 1 I I #
face $-1 $-1 $489 $68 $-1 $645 reversed single #
loop $-1 $-1 $485 $331 #
plane-surface $-1 51.493270668660543 0 0 -1 0 0 0 0 1 forward_v I I I I #
coedge $-1 $646 $647 $481 $648 forward $332 $-1 #
coedge $-1 $481 $334 $336 $487 reversed $210 $-1 #
coedge $-1 $334 $480 $479 $648 reversed $210 $-1 #
coedge $-1 $649 $337 $334 $483 forward $489 $-1 #
edge $-1 $491 -61.608368480345142 $650 -52.624318203114655 $482 $651 forward 7 unknown #
coedge $-1 $336 $335 $646 $652 reversed $133 $-1 #
coedge $-1 $653 $654 $335 $486 forward $477 $-1 #
edge $-1 $655 31.982603934411067 $490 49.426071894115431 $485 $656 forward 7 unknown #
edge $-1 $657 52.06168268258574 $491 69.50515064229009 $480 $658 forward 7 unknown #
coedge $-1 $337 $649 $653 $659 forward $489 $-1 #
loop $-1 $-1 $482 $476 #
vertex $-1 $338 $660 #
vertex $-1 $338 $661 #
straight-curve $-1 22.705858568532051 34.752575321145045 0.85775772144396356 -1 0 0 I I #
coedge $-1 $493 $493 $-1 $662 reversed $341 $-1 #
edge $-1 $663 0 $663 6.2831853071796004 $342 $664 forward 7 unknown #
vertex $-1 $345 $665 #
ellipse-curve $-1 41.762785018106243 27.27659018409744 5.349782860059201 0 0.51503808176128008 0.85716729658548041 1 0 0 1 I I #
coedge $-1 $497 $497 $-1 $666 reversed $348 $-1 #
edge $-1 $667 0 $667 6.2831853071796004 $349 $668 forward 7 unknown #
vertex $-1 $352 $669 #
ellipse-curve $-1 45.411717137064102 27.27659018409744 5.349782860059201 0 0.51503808176128008 0.85716729658548041 1 0 0 1 I I #
coedge $-1 $501 $501 $-1 $670 reversed $355 $-1 #
edge $-1 $671 0 $671 6.2831853071796004 $356 $672 forward 7 unknown #
vertex $-1 $359 $673 #
ellipse-curve $-1 49.060649256021961 27.27659018409744 5.349782860059201 0 0.51503808176128008 0.85716729658548041 1 0 0 1 I I #
face $-1 $-1 $517 $54 $-1 $674 reversed single #
loop $-1 $-1 $675 $360 #
plane-surface $-1 0 34.752575321145052 0 0 -1 0 0 0 -1 forward_v I I I I #
coedge $-1 $516 $515 $363 $509 reversed $517 $-1 #
edge $-1 $676 -34.752575321145052 $677 34.752575321145052 $508 $678 forward 7 unknown #
coedge $-1 $365 $364 $368 $521 forward $145 $-1 #
coedge $-1 $675 $371 $364 $512 reversed $506 $-1 #
edge $-1 $519 -51.493270668660543 $526 51.493270668660543 $511 $679 forward 7 unknown #
coedge $-1 $369 $680 $365 $514 reversed $361 $-1 #
edge $-1 $523 -51.493270668660543 $518 51.493270668660543 $513 $681 forward 7 unknown #
coedge $-1 $508 $366 $680 $682 forward $517 $-1 #
coedge $-1 $366 $508 $675 $683 reversed $517 $-1 #
loop $-1 $-1 $515 $505 #
vertex $-1 $367 $684 #
vertex $-1 $367 $685 #
straight-curve $-1 51.493270668660543 0 9.8418079986744438 0 1 0 I I #
edge $-1 $526 -34.752575321145052 $523 34.752575321145052 $368 $686 forward 7 unknown #
coedge $-1 $680 $369 $374 $529 reversed $361 $-1 #
vertex $-1 $521 $687 #
straight-curve $-1 -51.493270668660543 -34.752575321145052 0 0 0 -1 I I #
coedge $-1 $371 $675 $373 $528 reversed $506 $-1 #
vertex $-1 $512 $688 #
straight-curve $-1 -51.493270668660543 34.752575321145052 0 0 0 -1 I I #
edge $-1 $376 -51.493270668660543 $676 51.493270668660543 $525 $689 forward 7 unknown #
edge $-1 $677 -51.493270668660543 $375 51.493270668660543 $522 $690 forward 7 unknown #
point $-1 -51.493270668660543 -34.752575321145052 -9.8418079986744438 #
point $-1 -51.493270668660543 34.752575321145052 -9.8418079986744438 #
face $-1 $-1 $548 $55 $-1 $691 forward single #
plane-surface $-1 -57.058642338779826 -15.068959323796166 0 0 -1 0 0 0 -1 forward_v I I I I #
coedge $-1 $692 $693 $551 $694 forward $379 $-1 #
coedge $-1 $544 $381 $382 $540 reversed $237 $-1 #
coedge $-1 $381 $544 $547 $695 reversed $237 $-1 #
coedge $-1 $693 $692 $381 $538 reversed $379 $-1 #
edge $-1 $696 -9.8418079986744438 $697 9.8418079986744438 $537 $698 forward 7 unknown #
coedge $-1 $383 $382 $692 $699 forward $149 $-1 #
edge $-1 $542 -5.5653716701192835 $697 5.5653716701192835 $535 $700 forward 7 unknown #
edge $-1 $701 -5.5653716701192835 $391 5.5653716701192835 $388 $702 forward 7 unknown #
vertex $-1 $540 $703 #
straight-curve $-1 -51.493270668660543 0 -9.8418079986744438 0 -1 0 I I #
coedge $-1 $536 $535 $385 $545 reversed $237 $-1 #
edge $-1 $549 -9.8418079986744438 $542 9.8418079986744438 $544 $704 forward 7 unknown #
coedge $-1 $705 $386 $389 $552 forward $548 $-1 #
coedge $-1 $386 $705 $536 $695 forward $548 $-1 #
loop $-1 $-1 $386 $532 #
vertex $-1 $387 $706 #
straight-curve $-1 -51.493270668660543 0 9.8418079986744438 0 1 0 I I #
coedge $-1 $389 $388 $534 $694 reversed $390 $-1 #
edge $-1 $392 -5.5653716701192835 $707 5.5653716701192835 $389 $708 forward 7 unknown #
point $-1 -51.493270668660543 -15.068959323796166 -9.8418079986744438 #
point $-1 -51.493270668660543 -15.068959323796166 9.8418079986744438 #
loop $-1 $-1 $402 $394 #
plane-surface $-1 0 -34.752575321145052 0 0 1 0 0 0 1 forward_v I I I I #
coedge $-1 $558 $397 $399 $562 reversed $245 $-1 #
coedge $-1 $397 $557 $709 $710 reversed $245 $-1 #
coedge $-1 $405 $400 $397 $560 forward $395 $-1 #
edge $-1 $563 -24.096677962324023 $711 -9.1447076882287845 $559 $712 forward 7 unknown #
coedge $-1 $399 $398 $566 $713 reversed $153 $-1 #
edge $-1 $714 -8.2634070795339233e-015 $563 17.443467959704357 $557 $715 forward 7 unknown #
vertex $-1 $401 $716 #
straight-curve $-1 -0.25809093073857881 -19.800605047049814 9.8418079986744438 -1 0 0 I I #
coedge $-1 $709 $402 $405 $570 reversed $555 $-1 #
coedge $-1 $402 $709 $561 $713 forward $555 $-1 #
vertex $-1 $403 $717 #
straight-curve $-1 5.5653716701192906 -34.752575321145052 44.567226472122151 0 0 1 I I #
straight-curve $-1 5.5653716701192906 -34.752575321145045 0.85775772144396001 0 -0.85716729658548041 -0.51503808176128008 I I #
edge $-1 $711 -6.5977353930736058 $406 5.5653716701192906 $565 $718 forward 7 unknown #
point $-1 5.5653716701192906 -34.752575321145052 9.8418079986744438 #
point $-1 5.5653716701192906 -19.800605047049814 9.8418079986744438 #
edge $-1 $719 1 $719 0 $409 $-1 forward 7 unknown #
vertex $-1 $410 $720 #
ellipse-curve $-1 -4.1651139804350237 -26.552185750547469 4.1441714462057853 0 -0.51503808176128008 0.85716729658548041 1 0 0 1 I I #
point $-1 -3.1651139804350237 -27.276590184097444 5.3497828600592054 #
edge $-1 $721 1 $721 0 $413 $-1 forward 7 unknown #
vertex $-1 $414 $722 #
ellipse-curve $-1 -0.51618186147715761 -26.552185750547469 4.1441714462057853 0 -0.51503808176128008 0.85716729658548041 1 0 0 1 I I #
point $-1 0.48381813852284239 -27.276590184097444 5.3497828600592054 #
edge $-1 $723 1 $723 0 $417 $-1 forward 7 unknown #
vertex $-1 $418 $724 #
ellipse-curve $-1 3.1327502574807085 -26.552185750547469 4.1441714462057853 0 -0.51503808176128008 0.85716729658548041 1 0 0 1 I I #
point $-1 4.1327502574807085 -27.276590184097444 5.3497828600592054 #
loop $-1 $-1 $430 $421 #
plane-surface $-1 51.493270668660543 0 0 -1 0 0 0 0 1 forward_v I I I I #
coedge $-1 $725 $424 $429 $593 forward $274 $-1 #
coedge $-1 $424 $725 $590 $726 reversed $274 $-1 #
edge $-1 $591 34.725418473447704 $598 43.709468750678198 $424 $727 forward 7 unknown #
coedge $-1 $433 $427 $588 $726 forward $422 $-1 #
vertex $-1 $726 $728 #
straight-curve $-1 39.330163605467654 -43.897283009373837 9.8418079986744402 0 -1 0 I I #
edge $-1 $598 16.624305036935603 $596 28.787412100128499 $587 $729 forward 7 unknown #
coedge $-1 $595 $430 $433 $600 reversed $585 $-1 #
coedge $-1 $430 $594 $725 $730 forward $585 $-1 #
vertex $-1 $593 $731 #
straight-curve $-1 51.493270668660543 -22.174933932235714 8.4151672491173422 0 0.85716729658548041 0.51503808176128008 I I #
vertex $-1 $593 $732 #
straight-curve $-1 39.330163605467654 -34.752575321145045 0.85775772144396001 0 0.85716729658548041 0.51503808176128008 I I #
edge $-1 $733 -34.752575321145052 $434 -19.800605047049814 $594 $734 forward 7 unknown #
point $-1 51.49327066866055 -19.800605047049814 9.8418079986744438 #
point $-1 39.330163605467654 -19.800605047049814 9.8418079986744438 #
edge $-1 $735 1 $735 0 $437 $-1 forward 7 unknown #
vertex $-1 $438 $736 #
ellipse-curve $-1 41.762785018106243 -26.552185750547469 4.1441714462057853 0 -0.51503808176128008 0.85716729658548041 1 0 0 1 I I #
point $-1 42.762785018106243 -27.276590184097444 5.3497828600592054 #
edge $-1 $737 1 $737 0 $441 $-1 forward 7 unknown #
vertex $-1 $442 $738 #
ellipse-curve $-1 45.411717137064102 -26.552185750547469 4.1441714462057853 0 -0.51503808176128008 0.85716729658548041 1 0 0 1 I I #
point $-1 46.411717137064102 -27.276590184097444 5.3497828600592054 #
edge $-1 $739 1 $739 0 $445 $-1 forward 7 unknown #
vertex $-1 $446 $740 #
ellipse-curve $-1 49.060649256021961 -26.552185750547469 4.1441714462057853 0 -0.51503808176128008 0.85716729658548041 1 0 0 1 I I #
point $-1 50.060649256021961 -27.276590184097444 5.3497828600592054 #
loop $-1 $-1 $457 $449 #
plane-surface $-1 0 34.752575321145052 0 0 -1 0 0 0 -1 forward_v I I I I #
coedge $-1 $618 $452 $454 $622 reversed $303 $-1 #
coedge $-1 $452 $617 $741 $742 reversed $303 $-1 #
coedge $-1 $460 $455 $452 $620 forward $450 $-1 #
edge $-1 $623 5.6920930750851646 $743 20.644063349180403 $619 $744 forward 7 unknown #
coedge $-1 $454 $453 $626 $745 reversed $191 $-1 #
edge $-1 $746 -69.50515064229009 $623 -52.06168268258574 $617 $747 forward 7 unknown #
vertex $-1 $456 $748 #
straight-curve $-1 -0.25809093073857881 19.800605047049817 9.8418079986744438 1 0 0 I I #
coedge $-1 $741 $457 $460 $630 reversed $615 $-1 #
coedge $-1 $457 $741 $621 $745 forward $615 $-1 #
vertex $-1 $458 $749 #
straight-curve $-1 -6.5977353930736058 34.752575321145052 62.466126201789102 0 0 1 I I #
straight-curve $-1 -6.5977353930736058 -24.82496675367333 36.655557180777862 0 0.85716729658548041 -0.51503808176128008 I I #
edge $-1 $743 -5.5653716701192906 $461 6.5977353930736058 $625 $750 forward 7 unknown #
point $-1 -6.5977353930736058 34.752575321145052 9.8418079986744438 #
point $-1 -6.5977353930736058 19.800605047049814 9.8418079986744438 #
edge $-1 $751 1 $751 0 $464 $-1 forward 7 unknown #
vertex $-1 $465 $752 #
ellipse-curve $-1 -4.1651139804350237 26.552185750547469 4.1441714462057888 0 0.51503808176128008 0.85716729658548041 1 0 0 1 I I #
point $-1 -3.1651139804350237 27.276590184097444 5.349782860059209 #
edge $-1 $753 1 $753 0 $468 $-1 forward 7 unknown #
vertex $-1 $469 $754 #
ellipse-curve $-1 -0.51618186147715761 26.552185750547469 4.1441714462057888 0 0.51503808176128008 0.85716729658548041 1 0 0 1 I I #
point $-1 0.48381813852284239 27.276590184097444 5.349782860059209 #
edge $-1 $755 1 $755 0 $472 $-1 forward 7 unknown #
vertex $-1 $473 $756 #
ellipse-curve $-1 3.1327502574807085 26.552185750547469 4.1441714462057888 0 0.51503808176128008 0.85716729658548041 1 0 0 1 I I #
point $-1 4.1327502574807085 27.276590184097444 5.349782860059209 #
plane-surface $-1 0 34.752575321145052 0 0 -1 0 0 0 -1 forward_v I I I I #
coedge $-1 $757 $479 $484 $652 forward $332 $-1 #
coedge $-1 $479 $757 $649 $758 forward $332 $-1 #
edge $-1 $650 -20.644063349180403 $657 -5.6920930750851646 $479 $759 forward 7 unknown #
coedge $-1 $488 $482 $647 $758 reversed $489 $-1 #
vertex $-1 $483 $760 #
straight-curve $-1 39.330163605467654 34.752575321145052 62.466126201789102 0 0 1 I I #
edge $-1 $657 16.624305036935603 $655 28.787412100128499 $646 $761 forward 7 unknown #
coedge $-1 $654 $485 $488 $659 reversed $477 $-1 #
coedge $-1 $485 $653 $757 $762 reversed $477 $-1 #
vertex $-1 $762 $763 #
straight-curve $-1 51.493270668660543 -7.6138371051734737 26.314066978784293 0 0.85716729658548041 -0.51503808176128008 I I #
vertex $-1 $652 $764 #
straight-curve $-1 39.330163605467654 -24.82496675367333 36.655557180777862 0 0.85716729658548041 -0.51503808176128008 I I #
edge $-1 $765 -9.8418079986744438 $490 -0.85775772144396245 $653 $766 forward 7 unknown #
point $-1 51.493270668660543 34.752575321145052 0.85775772144396245 #
point $-1 39.330163605467654 34.752575321145045 0.85775772144396001 #
edge $-1 $767 1 $767 0 $493 $-1 forward 7 unknown #
vertex $-1 $494 $768 #
ellipse-curve $-1 41.762785018106243 26.552185750547469 4.1441714462057888 0 0.51503808176128008 0.85716729658548041 1 0 0 1 I I #
point $-1 42.762785018106243 27.276590184097444 5.349782860059209 #
edge $-1 $769 1 $769 0 $497 $-1 forward 7 unknown #
vertex $-1 $498 $770 #
ellipse-curve $-1 45.411717137064102 26.552185750547469 4.1441714462057888 0 0.51503808176128008 0.85716729658548041 1 0 0 1 I I #
point $-1 46.411717137064102 27.276590184097444 5.349782860059209 #
edge $-1 $771 1 $771 0 $501 $-1 forward 7 unknown #
vertex $-1 $502 $772 #
ellipse-curve $-1 49.060649256021961 26.552185750547469 4.1441714462057888 0 0.51503808176128008 0.85716729658548041 1 0 0 1 I I #
point $-1 50.060649256021961 27.276590184097444 5.349782860059209 #
plane-surface $-1 51.493270668660543 0 0 -1 0 0 0 0 1 forward_v I I I I #
coedge $-1 $525 $511 $516 $683 forward $506 $-1 #
vertex $-1 $509 $773 #
vertex $-1 $682 $774 #
straight-curve $-1 51.493270668660543 0 -9.8418079986744438 0 -1 0 I I #
straight-curve $-1 0 34.752575321145052 9.8418079986744438 -1 0 0 I I #
coedge $-1 $513 $522 $515 $682 reversed $361 $-1 #
straight-curve $-1 0 -34.752575321145052 9.8418079986744438 1 0 0 I I #
edge $-1 $518 -9.8418079986744438 $677 9.8418079986744438 $515 $775 forward 7 unknown #
edge $-1 $519 -9.8418079986744438 $676 9.8418079986744438 $516 $776 forward 7 unknown #
point $-1 51.493270668660543 -34.752575321145052 9.8418079986744438 #
point $-1 51.493270668660543 34.752575321145052 9.8418079986744438 #
straight-curve $-1 -51.493270668660543 0 9.8418079986744438 0 -1 0 I I #
point $-1 -51.493270668660543 -34.752575321145052 9.8418079986744438 #
point $-1 -51.493270668660543 34.752575321145052 9.8418079986744438 #
straight-curve $-1 0 34.752575321145052 -9.8418079986744438 1 0 0 I I #
straight-curve $-1 0 -34.752575321145052 -9.8418079986744438 -1 0 0 I I #
plane-surface $-1 0 0 9.8418079986744438 0 0 1 1 0 0 forward_v I I I I #
coedge $-1 $537 $534 $539 $699 reversed $379 $-1 #
coedge $-1 $534 $537 $705 $777 reversed $379 $-1 #
edge $-1 $707 -9.8418079986744438 $701 9.8418079986744438 $551 $778 forward 7 unknown #
edge $-1 $696 -5.5653716701192835 $549 5.5653716701192835 $536 $779 forward 7 unknown #
vertex $-1 $777 $780 #
vertex $-1 $699 $781 #
straight-curve $-1 -62.62401400889911 -20.737362562194065 0 0 0 -1 I I #
edge $-1 $697 -2.8342016191989501 $701 2.8342016191989483 $692 $782 forward 7 unknown #
straight-curve $-1 -57.058642338779826 -20.737362562194065 -9.8418079986744438 -1 0 0 I I #
vertex $-1 $541 $783 #
straight-curve $-1 -57.058642338779826 -15.068959323796166 -9.8418079986744438 1 0 0 I I #
point $-1 -51.493270668660543 -20.737362562194065 -9.8418079986744438 #
straight-curve $-1 -51.493270668660543 -20.737362562194065 0 0 0 -1 I I #
coedge $-1 $547 $546 $693 $777 forward $548 $-1 #
point $-1 -51.493270668660543 -20.737362562194065 9.8418079986744438 #
vertex $-1 $552 $784 #
straight-curve $-1 -57.058642338779826 -15.068959323796166 9.8418079986744438 -1 0 0 I I #
coedge $-1 $566 $565 $558 $710 forward $555 $-1 #
edge $-1 $711 34.725418473447704 $714 43.709468750678198 $709 $785 forward 7 unknown #
vertex $-1 $570 $786 #
straight-curve $-1 -6.5977353930736058 -43.897283009373837 9.8418079986744402 0 -1 0 I I #
edge $-1 $714 -6.339644462335027 $567 5.8234626008578694 $566 $787 forward 7 unknown #
vertex $-1 $713 $788 #
straight-curve $-1 -6.5977353930736058 -34.752575321145045 0.85775772144396001 0 0.85716729658548041 0.51503808176128008 I I #
point $-1 -6.5977353930736058 -19.800605047049814 9.8418079986744438 #
point $-1 5.5653716701192906 -34.752575321145052 0.85775772144395579 #
straight-curve $-1 0 -34.752575321145052 9.8418079986744438 1 0 0 I I #
vertex $-1 $573 $789 #
point $-1 -3.1651139804350237 -26.552185750547469 4.1441714462057853 #
vertex $-1 $577 $790 #
point $-1 0.48381813852284239 -26.552185750547469 4.1441714462057853 #
vertex $-1 $581 $791 #
point $-1 4.1327502574807085 -26.552185750547469 4.1441714462057853 #
coedge $-1 $588 $587 $595 $730 reversed $274 $-1 #
edge $-1 $591 39.330163605467654 $733 51.493270668660543 $588 $792 forward 7 unknown #
straight-curve $-1 39.330163605467654 -34.752575321145052 44.567226472122151 0 0 -1 I I #
point $-1 39.330163605467654 -34.752575321145052 9.8418079986744438 #
straight-curve $-1 22.705858568532051 -34.752575321145052 0.8577577214439529 1 0 0 I I #
edge $-1 $733 -9.8418079986744438 $596 -0.85775772144395579 $595 $793 forward 7 unknown #
point $-1 51.49327066866055 -34.752575321145052 0.85775772144395579 #
point $-1 39.330163605467654 -34.752575321145052 0.85775772144395579 #
vertex $-1 $600 $794 #
straight-curve $-1 51.493270668660543 0 9.8418079986744438 0 1 0 I I #
vertex $-1 $603 $795 #
point $-1 42.762785018106243 -26.552185750547469 4.1441714462057853 #
vertex $-1 $607 $796 #
point $-1 46.411717137064102 -26.552185750547469 4.1441714462057853 #
vertex $-1 $611 $797 #
point $-1 50.060649256021961 -26.552185750547469 4.1441714462057853 #
coedge $-1 $626 $625 $618 $742 forward $615 $-1 #
edge $-1 $743 52.624318203114655 $746 61.608368480345142 $741 $798 forward 7 unknown #
vertex $-1 $630 $799 #
straight-curve $-1 5.5653716701192906 14.108511971964649 9.8418079986744402 0 1 0 I I #
edge $-1 $746 -5.8234626008578694 $627 6.339644462335027 $626 $800 forward 7 unknown #
vertex $-1 $745 $801 #
straight-curve $-1 5.5653716701192906 -24.82496675367333 36.655557180777862 0 -0.85716729658548041 0.51503808176128008 I I #
point $-1 5.5653716701192906 19.800605047049814 9.8418079986744438 #
point $-1 -6.5977353930736058 34.752575321145045 0.85775772144396001 #
straight-curve $-1 0 34.752575321145052 9.8418079986744438 -1 0 0 I I #
vertex $-1 $633 $802 #
point $-1 -3.1651139804350237 26.552185750547469 4.1441714462057888 #
vertex $-1 $637 $803 #
point $-1 0.48381813852284239 26.552185750547469 4.1441714462057888 #
vertex $-1 $641 $804 #
point $-1 4.1327502574807085 26.552185750547469 4.1441714462057888 #
coedge $-1 $647 $646 $654 $762 forward $332 $-1 #
edge $-1 $765 -51.493270668660543 $650 -39.330163605467654 $649 $805 forward 7 unknown #
straight-curve $-1 39.330163605467654 14.108511971964649 9.8418079986744402 0 -1 0 I I #
point $-1 39.330163605467654 34.752575321145052 9.8418079986744438 #
straight-curve $-1 22.705858568532051 19.800605047049817 9.8418079986744438 1 0 0 I I #
edge $-1 $655 19.800605047049814 $765 34.752575321145052 $654 $806 forward 7 unknown #
point $-1 51.49327066866055 19.800605047049814 9.8418079986744438 #
point $-1 39.330163605467654 19.800605047049814 9.8418079986744438 #
vertex $-1 $762 $807 #
straight-curve $-1 51.493270668660543 34.752575321145052 0 0 0 -1 I I #
vertex $-1 $662 $808 #
point $-1 42.762785018106243 26.552185750547469 4.1441714462057888 #
vertex $-1 $666 $809 #
point $-1 46.411717137064102 26.552185750547469 4.1441714462057888 #
vertex $-1 $670 $810 #
point $-1 50.060649256021961 26.552185750547469 4.1441714462057888 #
point $-1 51.493270668660543 34.752575321145052 -9.8418079986744438 #
point $-1 51.493270668660543 -34.752575321145052 -9.8418079986744438 #
straight-curve $-1 51.493270668660543 -34.752575321145052 0 0 0 -1 I I #
straight-curve $-1 51.493270668660543 34.752575321145052 0 0 0 -1 I I #
edge $-1 $707 -2.8342016191989483 $696 2.8342016191989501 $693 $811 forward 7 unknown #
straight-curve $-1 -62.62401400889911 -15.068959323796166 0 0 0 -1 I I #
straight-curve $-1 -57.058642338779826 -20.737362562194065 9.8418079986744438 1 0 0 I I #
point $-1 -62.62401400889911 -20.737362562194065 9.8418079986744438 #
point $-1 -62.62401400889911 -20.737362562194065 -9.8418079986744438 #
straight-curve $-1 -62.62401400889911 -17.903160942995115 -9.8418079986744438 0 1 0 I I #
point $-1 -62.62401400889911 -15.068959323796166 -9.8418079986744438 #
point $-1 -62.62401400889911 -15.068959323796166 9.8418079986744438 #
straight-curve $-1 -6.5977353930736058 -34.752575321145052 44.567226472122151 0 0 -1 I I #
point $-1 -6.5977353930736058 -34.752575321145052 9.8418079986744438 #
straight-curve $-1 -0.25809093073857881 -34.752575321145052 0.8577577214439529 1 0 0 I I #
point $-1 -6.5977353930736058 -34.752575321145052 0.85775772144395579 #
point $-1 -4.1651139804350237 -26.037147668786186 3.2870041496203051 #
point $-1 -0.51618186147715761 -26.037147668786186 3.2870041496203051 #
point $-1 3.1327502574807085 -26.037147668786186 3.2870041496203051 #
straight-curve $-1 0 -34.752575321145052 9.8418079986744438 1 0 0 I I #
straight-curve $-1 51.493270668660543 -34.752575321145052 0 0 0 -1 I I #
point $-1 51.493270668660543 -34.752575321145052 9.8418079986744438 #
point $-1 41.762785018106243 -26.037147668786186 3.2870041496203051 #
point $-1 45.411717137064102 -26.037147668786186 3.2870041496203051 #
point $-1 49.060649256021961 -26.037147668786186 3.2870041496203051 #
straight-curve $-1 5.5653716701192906 34.752575321145052 62.466126201789102 0 0 -1 I I #
point $-1 5.5653716701192906 34.752575321145052 9.8418079986744438 #
straight-curve $-1 -0.25809093073857881 34.752575321145045 0.85775772144396356 -1 0 0 I I #
point $-1 5.5653716701192906 34.752575321145045 0.85775772144396001 #
point $-1 -4.1651139804350237 26.037147668786186 3.2870041496203086 #
point $-1 -0.51618186147715761 26.037147668786186 3.2870041496203086 #
point $-1 3.1327502574807085 26.037147668786186 3.2870041496203086 #
straight-curve $-1 0 34.752575321145052 9.8418079986744438 -1 0 0 I I #
straight-curve $-1 51.493270668660543 0 9.8418079986744438 0 1 0 I I #
point $-1 51.493270668660543 34.752575321145052 9.8418079986744438 #
point $-1 41.762785018106243 26.037147668786186 3.2870041496203086 #
point $-1 45.411717137064102 26.037147668786186 3.2870041496203086 #
point $-1 49.060649256021961 26.037147668786186 3.2870041496203086 #
straight-curve $-1 -62.62401400889911 -17.903160942995115 9.8418079986744438 0 -1 0 I I #
End-of-ACIS-data 