500 0 9 0           
7 Unknown 11 ACIS 5.0 NT 24 Fri Mar 26 00:57:10 1999 
-1 9.9999999999999995e-007 1e-010 
body $-1 $9 $-1 $10 #
body $-1 $11 $-1 $12 #
body $-1 $13 $-1 $14 #
body $-1 $15 $-1 $16 #
body $-1 $17 $-1 $18 #
body $-1 $19 $-1 $20 #
body $-1 $21 $-1 $22 #
body $-1 $23 $-1 $24 #
body $-1 $25 $-1 $26 #
lump $-1 $-1 $27 $0 #
transform $-1 1 0 0 0 1 0 0 0 1 72.726828821680357 48.704136507200083 20.024925634508858 1 rotate no_reflect no_shear #
lump $-1 $-1 $28 $1 #
transform $-1 1 0 0 0 1 0 0 0 1 72.726828821680357 48.704136507200083 20.024925634508858 1 rotate no_reflect no_shear #
lump $-1 $-1 $29 $2 #
transform $-1 1 0 0 0 1 0 0 0 1 72.726828821680357 48.704136507200083 20.024925634508858 1 rotate no_reflect no_shear #
lump $-1 $-1 $30 $3 #
transform $-1 1 0 0 0 1 0 0 0 1 72.726828821680357 48.704136507200083 20.024925634508858 1 rotate no_reflect no_shear #
lump $-1 $-1 $31 $4 #
transform $-1 1 0 0 0 1 0 0 0 1 72.726828821680357 48.704136507200083 20.024925634508858 1 rotate no_reflect no_shear #
lump $-1 $-1 $32 $5 #
transform $-1 1 0 0 0 1 0 0 0 1 72.726828821680357 48.704136507200083 20.024925634508858 1 rotate no_reflect no_shear #
lump $-1 $-1 $33 $6 #
transform $-1 1 0 0 0 1 0 0 0 1 72.726828821680357 48.704136507200083 20.024925634508858 1 rotate no_reflect no_shear #
lump $-1 $-1 $34 $7 #
transform $-1 1 0 0 0 1 0 0 0 1 72.726828821680357 48.704136507200083 20.024925634508858 1 rotate no_reflect no_shear #
lump $-1 $-1 $35 $8 #
transform $-1 1 0 0 0 1 0 0 0 1 72.726828821680357 48.704136507200083 20.024925634508858 1 rotate no_reflect no_shear #
shell $-1 $-1 $-1 $36 $-1 $9 #
shell $-1 $-1 $-1 $37 $-1 $11 #
shell $-1 $-1 $-1 $38 $-1 $13 #
shell $-1 $-1 $-1 $39 $-1 $15 #
shell $-1 $-1 $-1 $40 $-1 $17 #
shell $-1 $-1 $-1 $41 $-1 $19 #
shell $-1 $-1 $-1 $42 $-1 $21 #
shell $-1 $-1 $-1 $43 $-1 $23 #
shell $-1 $-1 $-1 $44 $-1 $25 #
face $-1 $45 $46 $27 $-1 $47 forward single #
face $-1 $48 $49 $28 $-1 $50 forward single #
face $-1 $51 $52 $29 $-1 $53 reversed single #
face $-1 $54 $55 $30 $-1 $56 forward single #
face $-1 $57 $58 $31 $-1 $59 reversed single #
face $-1 $60 $61 $32 $-1 $62 forward single #
face $-1 $63 $64 $33 $-1 $65 reversed single #
face $-1 $66 $67 $34 $-1 $68 forward single #
face $-1 $69 $70 $35 $-1 $71 forward single #
face $-1 $72 $73 $27 $-1 $74 reversed single #
loop $-1 $-1 $75 $36 #
plane-surface $-1 0 0 20.024925634508858 0 0 1 1 0 0 forward_v I I I I #
face $-1 $76 $77 $28 $-1 $78 reversed single #
loop $-1 $-1 $79 $37 #
plane-surface $-1 0 -48.704136507200083 0 0 1 0 0 0 1 forward_v I I I I #
face $-1 $80 $81 $29 $-1 $82 reversed single #
loop $-1 $-1 $83 $38 #
plane-surface $-1 51.225060969866519 3.9364808797379354 210.81057979230243 0 -1 0 -0.62932039886446345 0 -0.77714595512881146 forward_v I I I I #
face $-1 $84 $85 $30 $-1 $86 forward single #
loop $-1 $87 $88 $39 #
cone-surface $-1 61.464149565724185 -6.2074633662700407 9.7363554695076111 -0.62932039886446345 0 -0.77714595512881146 2.3314378653864343 0 -1.8879611965933902 1 I I 0 1 3 forward I I I I #
face $-1 $89 $90 $31 $-1 $91 reversed single #
loop $-1 $-1 $92 $40 #
plane-surface $-1 51.225060969866519 45.136156265404644 210.81057979230243 0 -1 0 -0.62932039886446345 0 -0.77714595512881146 forward_v I I I I #
face $-1 $93 $94 $32 $-1 $95 forward single #
loop $-1 $96 $97 $41 #
cone-surface $-1 61.464149565724185 34.992212019396668 9.7363554695076111 -0.62932039886446345 0 -0.77714595512881146 2.3314378653864343 0 -1.8879611965933902 1 I I 0 1 3 forward I I I I #
face $-1 $98 $99 $33 $-1 $100 reversed single #
loop $-1 $-1 $101 $42 #
plane-surface $-1 -191.87549101264548 -23.313704262394062 93.723654985866517 0 1 0 -0.81915205242281985 0 0.57357642473473569 forward_v I I I I #
face $-1 $102 $103 $34 $-1 $104 forward single #
loop $-1 $105 $106 $43 #
cone-surface $-1 -67.500599374134794 -17.447327732759632 13.885728917435646 0.81915205242281985 0 -0.57357642473473569 1.1471528494694714 0 1.6383041048456397 1 I I 0 1 2 forward I I I I #
face $-1 $107 $108 $35 $-1 $109 forward single #
loop $-1 $110 $111 $44 #
cone-surface $-1 -67.500599374134794 -8.6477629383079844 13.885728917435646 0.81915205242281985 0 -0.57357642473473569 1.1471528494694714 0 1.6383041048456397 1 I I 0 1 2 forward I I I I #
face $-1 $112 $113 $27 $-1 $114 reversed single #
loop $-1 $-1 $115 $45 #
plane-surface $-1 0 0 -20.024925634508858 0 0 1 1 0 0 forward_v I I I I #
coedge $-1 $116 $117 $118 $119 forward $46 $-1 #
face $-1 $120 $121 $28 $-1 $122 forward single #
loop $-1 $-1 $123 $48 #
plane-surface $-1 -72.726828821680357 0 0 1 0 0 0 0 -1 forward_v I I I I #
coedge $-1 $124 $125 $126 $127 forward $49 $-1 #
face $-1 $128 $129 $29 $-1 $130 reversed single #
loop $-1 $-1 $131 $51 #
plane-surface $-1 -40.311892874548363 -6.2074633662700407 97.771858096073728 0.62932039886446345 0 0.77714595512881146 0.77714595512881146 0 -0.62932039886446345 forward_v I I I I #
coedge $-1 $132 $133 $134 $135 reversed $52 $-1 #
face $-1 $-1 $136 $30 $-1 $137 forward single #
loop $-1 $138 $139 $54 #
cone-surface $-1 57.772118633526816 -6.2074633662700407 5.1770770632381335 -0.62932039886446345 0 -0.77714595512881146 1.1657189326932171 0 -0.94398059829669512 1 I I -0.70710678118654757 0.70710678118654757 1.5 forward I I I I #
loop $-1 $-1 $140 $39 #
coedge $-1 $88 $88 $141 $142 reversed $55 $-1 #
face $-1 $143 $144 $31 $-1 $145 reversed single #
loop $-1 $-1 $146 $57 #
plane-surface $-1 -40.311892874548363 34.992212019396668 97.771858096073728 0.62932039886446345 0 0.77714595512881146 0.77714595512881146 0 -0.62932039886446345 forward_v I I I I #
coedge $-1 $147 $148 $149 $150 reversed $58 $-1 #
face $-1 $-1 $151 $32 $-1 $152 forward single #
loop $-1 $153 $154 $60 #
cone-surface $-1 57.772118633526816 34.992212019396668 5.1770770632381335 -0.62932039886446345 0 -0.77714595512881146 1.1657189326932171 0 -0.94398059829669512 1 I I -0.70710678118654757 0.70710678118654757 1.5 forward I I I I #
loop $-1 $-1 $155 $41 #
coedge $-1 $97 $97 $156 $157 reversed $61 $-1 #
face $-1 $158 $159 $33 $-1 $160 reversed single #
loop $-1 $-1 $161 $63 #
plane-surface $-1 -72.726828821680371 -13.047545335533805 10.294866070197415 -0.81915205242281985 0 0.57357642473473569 0.57357642473473569 0 0.81915205242281985 forward_v I I I I #
coedge $-1 $162 $163 $164 $165 reversed $64 $-1 #
face $-1 $-1 $166 $34 $-1 $167 forward single #
loop $-1 $168 $169 $66 #
cone-surface $-1 -64.861748298430712 -17.447327732759632 12.037985557783418 0.81915205242281985 0 -0.57357642473473569 0.57357642473473569 0 0.81915205242281985 1 I I -0.70710678118654746 0.70710678118654746 1 forward I I I I #
loop $-1 $-1 $170 $43 #
coedge $-1 $106 $106 $171 $172 reversed $67 $-1 #
face $-1 $-1 $173 $35 $-1 $174 forward single #
loop $-1 $175 $176 $69 #
cone-surface $-1 -64.861748298430712 -8.6477629383079844 12.037985557783418 0.81915205242281985 0 -0.57357642473473569 0.57357642473473569 0 0.81915205242281985 1 I I -0.70710678118654746 0.70710678118654746 1 forward I I I I #
loop $-1 $-1 $177 $44 #
coedge $-1 $111 $111 $178 $179 reversed $70 $-1 #
face $-1 $180 $181 $27 $-1 $182 reversed single #
loop $-1 $-1 $183 $72 #
plane-surface $-1 0 -48.704136507200083 0 0 1 0 0 0 1 forward_v I I I I #
coedge $-1 $184 $185 $186 $187 forward $73 $-1 #
coedge $-1 $188 $75 $189 $190 forward $46 $-1 #
coedge $-1 $75 $188 $191 $192 forward $46 $-1 #
coedge $-1 $193 $194 $75 $119 reversed $195 $-1 #
edge $-1 $196 -48.704136507200083 $197 48.704136507200083 $118 $198 forward 7 unknown #
face $-1 $199 $200 $28 $-1 $201 reversed single #
loop $-1 $-1 $202 $76 #
plane-surface $-1 0 -56.208597628733457 4.7372553031390492 0 0 1 1 0 0 forward_v I I I I #
coedge $-1 $203 $204 $125 $205 forward $77 $-1 #
coedge $-1 $206 $79 $207 $208 reversed $49 $-1 #
coedge $-1 $79 $206 $123 $205 reversed $49 $-1 #
coedge $-1 $209 $202 $79 $127 reversed $121 $-1 #
edge $-1 $210 -72.726828821680357 $211 72.726828821680357 $126 $212 forward 7 unknown #
face $-1 $213 $214 $29 $-1 $215 reversed single #
loop $-1 $-1 $216 $80 #
plane-surface $-1 51.225060969866519 -16.351407612278017 210.81057979230243 0 1 0 0.62932039886446345 0 0.77714595512881146 forward_v I I I I #
coedge $-1 $217 $218 $219 $220 reversed $81 $-1 #
coedge $-1 $133 $83 $221 $222 reversed $52 $-1 #
coedge $-1 $83 $132 $217 $223 reversed $52 $-1 #
coedge $-1 $219 $224 $83 $135 forward $225 $-1 #
edge $-1 $226 -47.114298336747098 $227 -30.085040492636125 $134 $228 forward 7 unknown #
loop $-1 $-1 $141 $84 #
plane-surface $-1 -40.311892874548363 -6.2074633662700407 97.771858096073728 0.62932039886446345 0 0.77714595512881146 0.77714595512881146 0 -0.62932039886446345 forward_v I I I I #
loop $-1 $-1 $229 $54 #
coedge $-1 $139 $139 $140 $230 reversed $85 $-1 #
coedge $-1 $140 $140 $139 $230 forward $87 $-1 #
coedge $-1 $141 $141 $88 $142 forward $136 $-1 #
edge $-1 $231 0 $231 6.2831853071796004 $141 $232 forward 7 unknown #
face $-1 $233 $234 $31 $-1 $235 reversed single #
loop $-1 $-1 $236 $89 #
plane-surface $-1 51.225060969866519 24.848267773388692 210.81057979230243 0 1 0 0.62932039886446345 0 0.77714595512881146 forward_v I I I I #
coedge $-1 $237 $238 $239 $240 reversed $90 $-1 #
coedge $-1 $148 $92 $241 $242 reversed $58 $-1 #
coedge $-1 $92 $147 $237 $243 reversed $58 $-1 #
coedge $-1 $239 $244 $92 $150 forward $245 $-1 #
edge $-1 $246 -47.114298336747098 $247 -30.085040492636125 $149 $248 forward 7 unknown #
loop $-1 $-1 $156 $93 #
plane-surface $-1 -40.311892874548363 34.992212019396668 97.771858096073728 0.62932039886446345 0 0.77714595512881146 0.77714595512881146 0 -0.62932039886446345 forward_v I I I I #
loop $-1 $-1 $249 $60 #
coedge $-1 $154 $154 $155 $250 reversed $94 $-1 #
coedge $-1 $155 $155 $154 $250 forward $96 $-1 #
coedge $-1 $156 $156 $97 $157 forward $151 $-1 #
edge $-1 $251 0 $251 6.2831853071796004 $156 $252 forward 7 unknown #
face $-1 $253 $254 $33 $-1 $255 forward single #
loop $-1 $-1 $256 $98 #
plane-surface $-1 -191.87549101264548 -2.781386408673546 93.723654985866517 0 -1 0 0.81915205242281985 0 -0.57357642473473569 forward_v I I I I #
coedge $-1 $257 $258 $259 $260 reversed $99 $-1 #
coedge $-1 $163 $101 $261 $262 reversed $64 $-1 #
coedge $-1 $101 $162 $257 $263 reversed $64 $-1 #
coedge $-1 $259 $264 $101 $165 forward $254 $-1 #
edge $-1 $265 23.210916684642385 $266 30.023977533170992 $164 $267 forward 7 unknown #
loop $-1 $-1 $171 $102 #
plane-surface $-1 -72.726828821680371 -13.047545335533805 10.294866070197415 -0.81915205242281985 0 0.57357642473473569 0.57357642473473569 0 0.81915205242281985 forward_v I I I I #
loop $-1 $-1 $268 $66 #
coedge $-1 $169 $169 $170 $269 reversed $103 $-1 #
coedge $-1 $170 $170 $169 $269 forward $105 $-1 #
coedge $-1 $171 $171 $106 $172 forward $166 $-1 #
edge $-1 $270 0 $270 6.2831853071796004 $171 $271 forward 7 unknown #
loop $-1 $-1 $178 $107 #
plane-surface $-1 -72.726828821680371 -13.047545335533805 10.294866070197415 -0.81915205242281985 0 0.57357642473473569 0.57357642473473569 0 0.81915205242281985 forward_v I I I I #
loop $-1 $-1 $272 $69 #
coedge $-1 $176 $176 $177 $273 reversed $108 $-1 #
coedge $-1 $177 $177 $176 $273 forward $110 $-1 #
coedge $-1 $178 $178 $111 $179 forward $173 $-1 #
edge $-1 $274 0 $274 6.2831853071796004 $178 $275 forward 7 unknown #
face $-1 $276 $277 $27 $-1 $278 reversed single #
loop $-1 $-1 $279 $112 #
plane-surface $-1 -72.726828821680357 0 0 1 0 0 0 0 -1 forward_v I I I I #
coedge $-1 $280 $191 $281 $282 forward $113 $-1 #
coedge $-1 $283 $115 $280 $284 forward $73 $-1 #
coedge $-1 $115 $283 $285 $286 forward $73 $-1 #
coedge $-1 $194 $193 $115 $187 reversed $195 $-1 #
edge $-1 $287 -48.704136507200083 $288 48.704136507200083 $186 $289 forward 7 unknown #
coedge $-1 $117 $116 $290 $291 forward $46 $-1 #
coedge $-1 $292 $293 $116 $190 reversed $277 $-1 #
edge $-1 $197 -72.726828821680357 $294 72.726828821680357 $189 $295 forward 7 unknown #
coedge $-1 $183 $296 $117 $192 reversed $113 $-1 #
edge $-1 $297 -72.726828821680357 $196 72.726828821680357 $191 $298 forward 7 unknown #
coedge $-1 $186 $118 $296 $299 forward $195 $-1 #
coedge $-1 $118 $186 $292 $300 reversed $195 $-1 #
loop $-1 $-1 $193 $276 #
vertex $-1 $119 $301 #
vertex $-1 $119 $302 #
straight-curve $-1 72.726828821680357 0 20.024925634508858 0 1 0 I I #
face $-1 $303 $304 $28 $-1 $305 reversed single #
loop $-1 $-1 $306 $120 #
plane-surface $-1 0 -56.208597628733457 -1.5320919704646538 0 0 1 1 0 0 forward_v I I I I #
coedge $-1 $126 $307 $308 $309 forward $121 $-1 #
coedge $-1 $310 $123 $311 $312 reversed $77 $-1 #
coedge $-1 $123 $310 $209 $313 reversed $77 $-1 #
edge $-1 $210 -4.7372553031390492 $314 1.5320919704646538 $123 $315 forward 7 unknown #
coedge $-1 $125 $124 $316 $317 forward $49 $-1 #
coedge $-1 $308 $318 $124 $208 forward $319 $-1 #
edge $-1 $320 -1.5320919704646538 $211 4.7372553031390492 $207 $321 forward 7 unknown #
coedge $-1 $307 $126 $204 $313 forward $121 $-1 #
vertex $-1 $205 $322 #
vertex $-1 $309 $323 #
straight-curve $-1 0 -48.704136507200083 4.7372553031390492 1 0 0 I I #
face $-1 $-1 $225 $29 $-1 $324 forward single #
loop $-1 $-1 $325 $128 #
plane-surface $-1 72.726828821680357 0 0 -1 0 0 0 0 1 forward_v I I I I #
coedge $-1 $326 $327 $328 $329 reversed $129 $-1 #
coedge $-1 $330 $131 $133 $223 forward $81 $-1 #
coedge $-1 $131 $330 $326 $331 forward $81 $-1 #
coedge $-1 $328 $134 $131 $220 forward $225 $-1 #
edge $-1 $227 -7.0402125628729557 $332 13.247675929142996 $219 $333 forward 7 unknown #
coedge $-1 $334 $335 $132 $222 forward $214 $-1 #
edge $-1 $336 -99.17038564449237 $226 -85.380364261642356 $221 $337 forward 7 unknown #
edge $-1 $227 123.54109703395966 $336 145.45365764336071 $133 $338 forward 7 unknown #
coedge $-1 $134 $328 $334 $339 forward $225 $-1 #
loop $-1 $-1 $328 $213 #
vertex $-1 $222 $340 #
vertex $-1 $135 $341 #
straight-curve $-1 25.612530484933259 3.9364808797379354 20.024925634508861 -1 0 0 I I #
coedge $-1 $229 $229 $-1 $342 reversed $138 $-1 #
edge $-1 $343 0 $343 6.2831853071796004 $139 $344 forward 7 unknown #
vertex $-1 $142 $345 #
ellipse-curve $-1 64.212199899624849 -6.2074633662700407 13.129914943083863 0.62932039886446345 0 0.77714595512881146 2.3314378653864343 0 -1.8879611965933902 1 I I #
face $-1 $-1 $245 $31 $-1 $346 forward single #
loop $-1 $-1 $347 $143 #
plane-surface $-1 72.726828821680357 0 0 -1 0 0 0 0 1 forward_v I I I I #
coedge $-1 $348 $349 $350 $351 reversed $144 $-1 #
coedge $-1 $352 $146 $148 $243 forward $90 $-1 #
coedge $-1 $146 $352 $348 $353 forward $90 $-1 #
coedge $-1 $350 $149 $146 $240 forward $245 $-1 #
edge $-1 $247 -27.64005025570631 $354 -7.3521617636903578 $239 $355 forward 7 unknown #
coedge $-1 $356 $357 $147 $242 forward $234 $-1 #
edge $-1 $358 -99.17038564449237 $246 -85.380364261642356 $241 $359 forward 7 unknown #
edge $-1 $247 123.54109703395966 $358 145.45365764336071 $148 $360 forward 7 unknown #
coedge $-1 $149 $350 $356 $361 forward $245 $-1 #
loop $-1 $-1 $350 $233 #
vertex $-1 $242 $362 #
vertex $-1 $150 $363 #
straight-curve $-1 25.612530484933259 45.136156265404644 20.024925634508861 -1 0 0 I I #
coedge $-1 $249 $249 $-1 $364 reversed $153 $-1 #
edge $-1 $365 0 $365 6.2831853071796004 $154 $366 forward 7 unknown #
vertex $-1 $157 $367 #
ellipse-curve $-1 64.212199899624849 34.992212019396668 13.129914943083863 0.62932039886446345 0 0.77714595512881146 2.3314378653864343 0 -1.8879611965933902 1 I I #
face $-1 $-1 $368 $33 $-1 $369 reversed single #
loop $-1 $-1 $164 $158 #
plane-surface $-1 0 0 20.024925634508858 0 0 1 1 0 0 forward_v I I I I #
coedge $-1 $370 $371 $372 $373 reversed $159 $-1 #
coedge $-1 $374 $161 $163 $263 forward $99 $-1 #
coedge $-1 $161 $374 $370 $375 forward $99 $-1 #
coedge $-1 $372 $164 $161 $260 forward $254 $-1 #
edge $-1 $266 -16.789931594627159 $376 3.7423862590933563 $259 $377 forward 7 unknown #
coedge $-1 $378 $379 $162 $262 forward $368 $-1 #
edge $-1 $380 -36.566961422735822 $265 -26.836901858424401 $261 $381 forward 7 unknown #
edge $-1 $266 -11.878209345301258 $380 -2.4157181099100639e-014 $163 $382 forward 7 unknown #
coedge $-1 $164 $372 $378 $383 forward $254 $-1 #
vertex $-1 $165 $384 #
vertex $-1 $165 $385 #
straight-curve $-1 -95.937745506322742 -23.313704262394062 20.024925634508861 1 0 0 I I #
coedge $-1 $268 $268 $-1 $386 reversed $168 $-1 #
edge $-1 $387 0 $387 6.2831853071796004 $169 $388 forward 7 unknown #
vertex $-1 $172 $389 #
ellipse-curve $-1 -69.320298397416053 -17.447327732759632 15.15989585235314 -0.81915205242281985 0 0.57357642473473569 1.1471528494694714 0 1.6383041048456397 1 I I #
coedge $-1 $272 $272 $-1 $390 reversed $175 $-1 #
edge $-1 $391 0 $391 6.2831853071796004 $176 $392 forward 7 unknown #
vertex $-1 $179 $393 #
ellipse-curve $-1 -69.320298397416053 -8.6477629383079844 15.15989585235314 -0.81915205242281985 0 0.57357642473473569 1.1471528494694714 0 1.6383041048456397 1 I I #
face $-1 $-1 $195 $27 $-1 $394 reversed single #
loop $-1 $-1 $292 $180 #
plane-surface $-1 0 48.704136507200083 0 0 -1 0 0 0 -1 forward_v I I I I #
coedge $-1 $395 $290 $293 $396 forward $181 $-1 #
coedge $-1 $296 $183 $184 $284 reversed $113 $-1 #
coedge $-1 $290 $395 $183 $282 reversed $181 $-1 #
edge $-1 $297 -20.024925634508858 $397 20.024925634508858 $281 $398 forward 7 unknown #
coedge $-1 $185 $184 $395 $399 forward $73 $-1 #
edge $-1 $288 -72.726828821680357 $397 72.726828821680357 $280 $400 forward 7 unknown #
coedge $-1 $293 $292 $185 $286 reversed $277 $-1 #
edge $-1 $401 -72.726828821680357 $287 72.726828821680357 $285 $402 forward 7 unknown #
vertex $-1 $187 $403 #
vertex $-1 $299 $404 #
straight-curve $-1 72.726828821680357 0 -20.024925634508858 0 -1 0 I I #
coedge $-1 $279 $281 $188 $291 reversed $181 $-1 #
edge $-1 $294 -48.704136507200083 $297 48.704136507200083 $290 $405 forward 7 unknown #
coedge $-1 $285 $189 $194 $300 forward $277 $-1 #
coedge $-1 $189 $285 $279 $396 reversed $277 $-1 #
vertex $-1 $190 $406 #
straight-curve $-1 0 48.704136507200083 20.024925634508858 -1 0 0 I I #
coedge $-1 $191 $280 $193 $299 reversed $113 $-1 #
vertex $-1 $291 $407 #
straight-curve $-1 0 -48.704136507200083 20.024925634508858 1 0 0 I I #
edge $-1 $196 -20.024925634508858 $288 20.024925634508858 $193 $408 forward 7 unknown #
edge $-1 $197 -20.024925634508858 $287 20.024925634508858 $194 $409 forward 7 unknown #
point $-1 72.726828821680357 -48.704136507200083 20.024925634508858 #
point $-1 72.726828821680357 48.704136507200083 20.024925634508858 #
face $-1 $-1 $319 $28 $-1 $410 reversed single #
loop $-1 $-1 $411 $199 #
plane-surface $-1 0 -63.713058750266832 1.6025816663371977 0 1 0 0 0 1 forward_v I I I I #
coedge $-1 $412 $316 $318 $413 forward $200 $-1 #
coedge $-1 $202 $209 $414 $415 forward $121 $-1 #
coedge $-1 $416 $207 $202 $309 reversed $319 $-1 #
edge $-1 $417 -7.5044611215333745 $211 7.5044611215333745 $308 $418 forward 7 unknown #
coedge $-1 $204 $203 $411 $419 reversed $77 $-1 #
coedge $-1 $316 $412 $203 $312 forward $200 $-1 #
edge $-1 $420 -7.5044611215333745 $314 7.5044611215333745 $203 $421 forward 7 unknown #
edge $-1 $210 -7.5044611215333745 $422 7.5044611215333745 $204 $423 forward 7 unknown #
vertex $-1 $205 $424 #
straight-curve $-1 -72.726828821680357 -48.704136507200083 0 0 0 -1 I I #
coedge $-1 $306 $311 $206 $317 reversed $200 $-1 #
edge $-1 $320 -72.726828821680357 $314 72.726828821680357 $316 $425 forward 7 unknown #
coedge $-1 $207 $416 $306 $413 reversed $319 $-1 #
loop $-1 $-1 $207 $303 #
vertex $-1 $208 $426 #
straight-curve $-1 72.726828821680357 -48.704136507200083 0 0 0 1 I I #
point $-1 -72.726828821680357 -48.704136507200083 4.7372553031390492 #
point $-1 72.726828821680357 -48.704136507200083 4.7372553031390492 #
plane-surface $-1 0 0 20.024925634508858 0 0 1 1 0 0 forward_v I I I I #
coedge $-1 $335 $334 $327 $427 forward $214 $-1 #
coedge $-1 $327 $216 $218 $331 reversed $129 $-1 #
coedge $-1 $216 $326 $325 $427 reversed $129 $-1 #
coedge $-1 $224 $219 $216 $329 forward $225 $-1 #
edge $-1 $332 30.085040492636125 $428 47.114298336747098 $328 $429 forward 7 unknown #
coedge $-1 $218 $217 $335 $430 reversed $81 $-1 #
edge $-1 $431 -145.45365764336071 $332 -123.54109703395966 $326 $432 forward 7 unknown #
vertex $-1 $220 $433 #
straight-curve $-1 55.697570977569384 -3.1037316831350203 20.024925634508861 0 -1 0 I I #
coedge $-1 $325 $221 $224 $339 reversed $214 $-1 #
coedge $-1 $221 $325 $330 $430 forward $214 $-1 #
vertex $-1 $222 $434 #
straight-curve $-1 72.726828821680357 3.9364808797379354 105.40528989615122 0 0 1 I I #
straight-curve $-1 -40.311892874548363 3.9364808797379354 97.771858096073728 0.77714595512881146 0 -0.62932039886446345 I I #
edge $-1 $428 -16.351407612278017 $226 3.9364808797379354 $334 $435 forward 7 unknown #
point $-1 72.726828821680357 3.9364808797379354 20.024925634508858 #
point $-1 55.697570977569384 3.9364808797379354 20.024925634508861 #
edge $-1 $436 1 $436 0 $229 $-1 forward 7 unknown #
vertex $-1 $230 $437 #
ellipse-curve $-1 58.716099231823513 -6.2074633662700407 6.3427959959313505 0.62932039886446345 0 0.77714595512881146 2.3314378653864343 0 -1.8879611965933902 1 I I #
point $-1 66.543637765011297 -6.2074633662700407 11.241953746490481 #
plane-surface $-1 0 0 20.024925634508858 0 0 1 1 0 0 forward_v I I I I #
coedge $-1 $357 $356 $349 $438 forward $234 $-1 #
coedge $-1 $349 $236 $238 $353 reversed $144 $-1 #
coedge $-1 $236 $348 $347 $438 reversed $144 $-1 #
coedge $-1 $244 $239 $236 $351 forward $245 $-1 #
edge $-1 $354 30.085040492636125 $439 47.114298336747098 $350 $440 forward 7 unknown #
coedge $-1 $238 $237 $357 $441 reversed $90 $-1 #
edge $-1 $442 -145.45365764336071 $354 -123.54109703395966 $348 $443 forward 7 unknown #
vertex $-1 $240 $444 #
straight-curve $-1 55.697570977569384 17.496106009698334 20.024925634508861 0 -1 0 I I #
coedge $-1 $347 $241 $244 $361 reversed $234 $-1 #
coedge $-1 $241 $347 $352 $441 forward $234 $-1 #
vertex $-1 $242 $445 #
straight-curve $-1 72.726828821680357 45.136156265404644 105.40528989615122 0 0 1 I I #
straight-curve $-1 -40.311892874548363 45.136156265404644 97.771858096073728 0.77714595512881146 0 -0.62932039886446345 I I #
edge $-1 $439 24.848267773388692 $246 45.136156265404644 $356 $446 forward 7 unknown #
point $-1 72.726828821680357 45.136156265404644 20.024925634508858 #
point $-1 55.697570977569384 45.136156265404644 20.024925634508861 #
edge $-1 $447 1 $447 0 $249 $-1 forward 7 unknown #
vertex $-1 $250 $448 #
ellipse-curve $-1 58.716099231823513 34.992212019396668 6.3427959959313505 0.62932039886446345 0 0.77714595512881146 2.3314378653864343 0 -1.8879611965933902 1 I I #
point $-1 66.543637765011297 34.992212019396668 11.241953746490481 #
loop $-1 $-1 $261 $253 #
plane-surface $-1 -72.726828821680357 0 0 1 0 0 0 0 -1 forward_v I I I I #
coedge $-1 $371 $256 $258 $375 reversed $159 $-1 #
coedge $-1 $256 $370 $449 $450 reversed $159 $-1 #
coedge $-1 $264 $259 $256 $373 forward $254 $-1 #
edge $-1 $376 -30.023977533170992 $451 -23.210916684642385 $372 $452 forward 7 unknown #
coedge $-1 $258 $257 $379 $453 reversed $99 $-1 #
edge $-1 $454 2.4157181099100639e-014 $376 11.878209345301258 $370 $455 forward 7 unknown #
vertex $-1 $260 $456 #
straight-curve $-1 -65.913767973151749 -6.5237726677669023 20.024925634508858 0 1 0 I I #
coedge $-1 $449 $261 $264 $383 reversed $368 $-1 #
coedge $-1 $261 $449 $374 $453 forward $368 $-1 #
vertex $-1 $262 $457 #
straight-curve $-1 -72.726828821680357 -23.313704262394062 46.861827492933259 0 0 1 I I #
straight-curve $-1 -72.726828821680371 -23.313704262394062 10.294866070197415 -0.57357642473473569 0 -0.81915205242281985 I I #
edge $-1 $451 2.781386408673546 $265 23.313704262394062 $378 $458 forward 7 unknown #
point $-1 -72.726828821680357 -23.313704262394062 20.024925634508858 #
point $-1 -65.913767973151749 -23.313704262394062 20.024925634508858 #
edge $-1 $459 1 $459 0 $268 $-1 forward 7 unknown #
vertex $-1 $269 $460 #
ellipse-curve $-1 -65.680900350853534 -17.447327732759632 12.611561982518154 -0.81915205242281985 0 0.57357642473473569 1.1471528494694714 0 1.6383041048456397 1 I I #
point $-1 -68.173145547946575 -17.447327732759632 16.798199957198776 #
edge $-1 $461 1 $461 0 $272 $-1 forward 7 unknown #
vertex $-1 $273 $462 #
ellipse-curve $-1 -65.680900350853534 -8.6477629383079844 12.611561982518154 -0.81915205242281985 0 0.57357642473473569 1.1471528494694714 0 1.6383041048456397 1 I I #
point $-1 -68.173145547946575 -8.6477629383079844 16.798199957198776 #
plane-surface $-1 72.726828821680357 0 0 -1 0 0 0 0 1 forward_v I I I I #
coedge $-1 $281 $279 $283 $399 reversed $181 $-1 #
edge $-1 $294 -20.024925634508858 $401 20.024925634508858 $293 $463 forward 7 unknown #
vertex $-1 $399 $464 #
straight-curve $-1 -72.726828821680357 -48.704136507200083 0 0 0 -1 I I #
edge $-1 $397 -48.704136507200083 $401 48.704136507200083 $395 $465 forward 7 unknown #
straight-curve $-1 0 -48.704136507200083 -20.024925634508858 -1 0 0 I I #
vertex $-1 $286 $466 #
straight-curve $-1 0 48.704136507200083 -20.024925634508858 1 0 0 I I #
point $-1 72.726828821680357 48.704136507200083 -20.024925634508858 #
point $-1 72.726828821680357 -48.704136507200083 -20.024925634508858 #
straight-curve $-1 -72.726828821680357 0 20.024925634508858 0 -1 0 I I #
point $-1 -72.726828821680357 48.704136507200083 20.024925634508858 #
point $-1 -72.726828821680357 -48.704136507200083 20.024925634508858 #
straight-curve $-1 72.726828821680357 -48.704136507200083 0 0 0 -1 I I #
straight-curve $-1 72.726828821680357 48.704136507200083 0 0 0 -1 I I #
plane-surface $-1 72.726828821680357 0 0 -1 0 0 0 0 1 forward_v I I I I #
coedge $-1 $467 $414 $310 $419 forward $304 $-1 #
coedge $-1 $311 $306 $467 $468 forward $200 $-1 #
edge $-1 $320 -7.5044611215333745 $469 7.5044611215333745 $318 $470 forward 7 unknown #
coedge $-1 $411 $471 $307 $415 reversed $304 $-1 #
edge $-1 $422 -72.726828821680357 $417 72.726828821680357 $414 $472 forward 7 unknown #
coedge $-1 $318 $308 $471 $473 forward $319 $-1 #
vertex $-1 $309 $474 #
straight-curve $-1 72.726828821680357 -56.208597628733457 4.7372553031390492 0 1 0 I I #
edge $-1 $422 -3.1346736368018515 $420 3.1346736368018515 $310 $475 forward 7 unknown #
vertex $-1 $312 $476 #
straight-curve $-1 -72.726828821680357 -56.208597628733457 -1.5320919704646538 0 1 0 I I #
vertex $-1 $313 $477 #
straight-curve $-1 -72.726828821680357 -56.208597628733457 4.7372553031390492 0 -1 0 I I #
point $-1 -72.726828821680357 -48.704136507200083 -1.5320919704646538 #
straight-curve $-1 0 -48.704136507200083 -1.5320919704646538 -1 0 0 I I #
point $-1 72.726828821680357 -48.704136507200083 -1.5320919704646538 #
edge $-1 $428 85.380364261642356 $431 99.17038564449237 $325 $478 forward 7 unknown #
vertex $-1 $339 $479 #
straight-curve $-1 25.612530484933259 -16.351407612278017 20.024925634508861 1 0 0 I I #
edge $-1 $431 -13.247675929142996 $336 7.0402125628729557 $335 $480 forward 7 unknown #
vertex $-1 $430 $481 #
straight-curve $-1 -40.311892874548363 -16.351407612278017 97.771858096073728 -0.77714595512881146 0 0.62932039886446345 I I #
point $-1 55.697570977569384 -16.351407612278017 20.024925634508861 #
point $-1 72.726828821680343 3.9364808797379354 6.2349042516588469 #
straight-curve $-1 72.726828821680357 0 20.024925634508858 0 1 0 I I #
vertex $-1 $342 $482 #
point $-1 61.047537097209947 -6.2074633662700407 4.4548347993379602 #
edge $-1 $439 85.380364261642356 $442 99.17038564449237 $347 $483 forward 7 unknown #
vertex $-1 $361 $484 #
straight-curve $-1 25.612530484933259 24.848267773388692 20.024925634508861 1 0 0 I I #
edge $-1 $442 7.3521617636903578 $358 27.64005025570631 $357 $485 forward 7 unknown #
vertex $-1 $441 $486 #
straight-curve $-1 -40.311892874548363 24.848267773388692 97.771858096073728 -0.77714595512881146 0 0.62932039886446345 I I #
point $-1 55.697570977569384 24.848267773388692 20.024925634508861 #
point $-1 72.726828821680343 45.136156265404644 6.2349042516588469 #
straight-curve $-1 72.726828821680357 0 20.024925634508858 0 1 0 I I #
vertex $-1 $364 $487 #
point $-1 61.047537097209947 34.992212019396668 4.4548347993379602 #
coedge $-1 $379 $378 $371 $450 forward $368 $-1 #
edge $-1 $451 26.836901858424401 $454 36.566961422735822 $449 $488 forward 7 unknown #
vertex $-1 $383 $489 #
straight-curve $-1 -95.937745506322742 -2.781386408673546 20.024925634508861 -1 0 0 I I #
edge $-1 $454 -3.7423862590933563 $380 16.789931594627159 $379 $490 forward 7 unknown #
vertex $-1 $453 $491 #
straight-curve $-1 -72.726828821680371 -2.781386408673546 10.294866070197415 0.57357642473473569 0 0.81915205242281985 I I #
point $-1 -65.913767973151749 -2.781386408673546 20.024925634508858 #
point $-1 -72.726828821680357 -23.313704262394062 10.294866070197434 #
straight-curve $-1 -72.726828821680357 0 20.024925634508858 0 -1 0 I I #
vertex $-1 $386 $492 #
point $-1 -64.533747501384056 -17.447327732759632 14.249866087363793 #
vertex $-1 $390 $493 #
point $-1 -64.533747501384056 -8.6477629383079844 14.249866087363793 #
straight-curve $-1 -72.726828821680357 48.704136507200083 0 0 0 -1 I I #
point $-1 -72.726828821680357 -48.704136507200083 -20.024925634508858 #
straight-curve $-1 -72.726828821680357 0 -20.024925634508858 0 1 0 I I #
point $-1 -72.726828821680357 48.704136507200083 -20.024925634508858 #
coedge $-1 $471 $411 $412 $468 reversed $304 $-1 #
edge $-1 $469 -72.726828821680357 $420 72.726828821680357 $467 $494 forward 7 unknown #
vertex $-1 $473 $495 #
straight-curve $-1 72.726828821680357 -56.208597628733457 -1.5320919704646538 0 -1 0 I I #
coedge $-1 $414 $467 $416 $473 reversed $304 $-1 #
straight-curve $-1 0 -63.713058750266832 4.7372553031390492 1 0 0 I I #
edge $-1 $417 -3.1346736368018515 $469 3.1346736368018515 $416 $496 forward 7 unknown #
point $-1 72.726828821680357 -63.713058750266832 4.7372553031390492 #
straight-curve $-1 -72.726828821680357 -63.713058750266832 1.6025816663371977 0 0 -1 I I #
point $-1 -72.726828821680357 -63.713058750266832 -1.5320919704646538 #
point $-1 -72.726828821680357 -63.713058750266832 4.7372553031390492 #
straight-curve $-1 72.726828821680357 -16.351407612278017 105.40528989615122 0 0 -1 I I #
point $-1 72.726828821680357 -16.351407612278017 20.024925634508858 #
straight-curve $-1 72.726828821680357 -3.1037316831350203 6.2349042516588469 0 1 0 I I #
point $-1 72.726828821680343 -16.351407612278017 6.2349042516588469 #
point $-1 56.828138035230118 -6.2074633662700407 4.0113581305449166 #
straight-curve $-1 72.726828821680357 24.848267773388692 105.40528989615122 0 0 -1 I I #
point $-1 72.726828821680357 24.848267773388692 20.024925634508858 #
straight-curve $-1 72.726828821680357 17.496106009698334 6.2349042516588469 0 1 0 I I #
point $-1 72.726828821680343 24.848267773388692 6.2349042516588469 #
point $-1 56.828138035230118 34.992212019396668 4.0113581305449166 #
straight-curve $-1 -72.726828821680357 -2.781386408673546 46.861827492933259 0 0 -1 I I #
point $-1 -72.726828821680357 -2.781386408673546 20.024925634508858 #
straight-curve $-1 -72.726828821680357 -6.5237726677669023 10.294866070197417 0 -1 0 I I #
point $-1 -72.726828821680357 -2.781386408673546 10.294866070197434 #
point $-1 -64.042596246007889 -17.447327732759632 11.464409133048683 #
point $-1 -64.042596246007889 -8.6477629383079844 11.464409133048683 #
straight-curve $-1 0 -63.713058750266832 -1.5320919704646538 -1 0 0 I I #
point $-1 72.726828821680357 -63.713058750266832 -1.5320919704646538 #
straight-curve $-1 72.726828821680357 -63.713058750266832 1.6025816663371977 0 0 -1 I I #
End-of-ACIS-data 