500 0 6 0           
7 Unknown 11 ACIS 5.0 NT 24 Fri Mar 26 00:53:05 1999 
-1 9.9999999999999995e-007 1e-010 
body $-1 $6 $-1 $7 #
body $-1 $8 $-1 $9 #
body $-1 $10 $-1 $11 #
body $-1 $12 $-1 $13 #
body $-1 $14 $-1 $15 #
body $-1 $16 $-1 $17 #
lump $-1 $-1 $18 $0 #
transform $-1 1 0 0 0 1 0 0 0 1 65.73564867091892 32.788781867194615 12.548536099459637 1 rotate no_reflect no_shear #
lump $-1 $-1 $19 $1 #
transform $-1 1 0 0 0 1 0 0 0 1 65.73564867091892 32.788781867194615 12.548536099459637 1 rotate no_reflect no_shear #
lump $-1 $-1 $20 $2 #
transform $-1 1 0 0 0 1 0 0 0 1 65.73564867091892 32.788781867194615 12.548536099459637 1 rotate no_reflect no_shear #
lump $-1 $-1 $21 $3 #
transform $-1 1 0 0 0 1 0 0 0 1 65.73564867091892 32.788781867194615 12.548536099459637 1 rotate no_reflect no_shear #
lump $-1 $-1 $22 $4 #
transform $-1 1 0 0 0 1 0 0 0 1 65.73564867091892 32.788781867194615 12.548536099459637 1 rotate no_reflect no_shear #
lump $-1 $-1 $23 $5 #
transform $-1 1 0 0 0 1 0 0 0 1 65.73564867091892 32.788781867194615 12.548536099459637 1 rotate no_reflect no_shear #
shell $-1 $-1 $-1 $24 $-1 $6 #
shell $-1 $-1 $-1 $25 $-1 $8 #
shell $-1 $-1 $-1 $26 $-1 $10 #
shell $-1 $-1 $-1 $27 $-1 $12 #
shell $-1 $-1 $-1 $28 $-1 $14 #
shell $-1 $-1 $-1 $29 $-1 $16 #
face $-1 $30 $31 $18 $-1 $32 forward single #
face $-1 $33 $34 $19 $-1 $35 forward single #
face $-1 $36 $37 $20 $-1 $38 forward single #
face $-1 $39 $40 $21 $-1 $41 reversed single #
face $-1 $42 $43 $22 $-1 $44 forward single #
face $-1 $45 $46 $23 $-1 $47 forward single #
face $-1 $48 $49 $18 $-1 $50 reversed single #
loop $-1 $-1 $51 $24 #
plane-surface $-1 0 0 12.548536099459637 0 0 1 1 0 0 forward_v I I I I #
face $-1 $52 $53 $19 $-1 $54 reversed single #
loop $-1 $-1 $55 $25 #
plane-surface $-1 0 -26.278815644675909 7.3475894523821266 0 0 1 1 0 0 forward_v I I I I #
face $-1 $56 $57 $20 $-1 $58 reversed single #
loop $-1 $-1 $59 $26 #
plane-surface $-1 0 26.278815644675909 7.3475894523821266 0 0 1 1 0 0 forward_v I I I I #
face $-1 $60 $61 $21 $-1 $62 reversed single #
loop $-1 $-1 $63 $27 #
plane-surface $-1 110.71582458873198 -17.720682140246701 187.9449044847438 0 1 0 0.85716730853699208 0 0.51503806187062418 forward_v I I I I #
face $-1 $64 $65 $22 $-1 $66 forward single #
loop $-1 $67 $68 $28 #
cone-surface $-1 62.621465597946411 -14.840313467500486 9.0769740200815292 -0.85716730853699208 0 -0.51503806187062418 0.51503806187062418 0 -0.85716730853699208 1 I I 0 1 1 forward I I I I #
face $-1 $69 $70 $23 $-1 $71 forward single #
loop $-1 $72 $73 $29 #
cone-surface $-1 62.621465597946411 -10.519760458381164 9.0769740200815292 -0.85716730853699208 0 -0.51503806187062418 0.51503806187062418 0 -0.85716730853699208 1 I I 0 1 1 forward I I I I #
face $-1 $74 $75 $18 $-1 $76 reversed single #
loop $-1 $-1 $77 $30 #
plane-surface $-1 0 0 -12.548536099459637 0 0 1 1 0 0 forward_v I I I I #
coedge $-1 $78 $79 $80 $81 forward $31 $-1 #
face $-1 $82 $83 $19 $-1 $84 reversed single #
loop $-1 $-1 $85 $33 #
plane-surface $-1 0 -26.278815644675909 0.53782477409691953 0 0 1 1 0 0 forward_v I I I I #
coedge $-1 $86 $87 $88 $89 reversed $34 $-1 #
face $-1 $90 $91 $20 $-1 $92 reversed single #
loop $-1 $-1 $93 $36 #
plane-surface $-1 0 26.278815644675909 0.53782477409691953 0 0 1 1 0 0 forward_v I I I I #
coedge $-1 $94 $95 $96 $97 reversed $37 $-1 #
face $-1 $98 $99 $21 $-1 $100 reversed single #
loop $-1 $-1 $101 $39 #
plane-surface $-1 -1.9770735036377687 -12.680036962940825 120.2321823101871 0.85716730853699208 0 0.51503806187062418 0.51503806187062418 0 -0.85716730853699208 forward_v I I I I #
coedge $-1 $102 $103 $104 $105 reversed $40 $-1 #
face $-1 $-1 $106 $22 $-1 $107 forward single #
loop $-1 $108 $109 $42 #
cone-surface $-1 60.583629912083012 -14.840313467500486 7.8525188505892789 -0.85716730853699208 0 -0.51503806187062418 0.25751903093531209 0 -0.42858365426849604 1 I I -0.70710678118654746 0.70710678118654746 0.5 forward I I I I #
loop $-1 $-1 $110 $28 #
coedge $-1 $68 $68 $111 $112 reversed $43 $-1 #
face $-1 $-1 $113 $23 $-1 $114 forward single #
loop $-1 $115 $116 $45 #
cone-surface $-1 60.583629912083012 -10.519760458381164 7.8525188505892789 -0.85716730853699208 0 -0.51503806187062418 0.25751903093531209 0 -0.42858365426849604 1 I I -0.70710678118654746 0.70710678118654746 0.5 forward I I I I #
loop $-1 $-1 $117 $29 #
coedge $-1 $73 $73 $118 $119 reversed $46 $-1 #
face $-1 $120 $121 $18 $-1 $122 reversed single #
loop $-1 $-1 $123 $48 #
plane-surface $-1 0 -32.788781867194615 0 0 1 0 0 0 1 forward_v I I I I #
coedge $-1 $124 $125 $126 $127 forward $49 $-1 #
coedge $-1 $128 $51 $129 $130 forward $31 $-1 #
coedge $-1 $51 $128 $131 $132 forward $31 $-1 #
coedge $-1 $133 $134 $51 $81 reversed $135 $-1 #
edge $-1 $136 -32.788781867194615 $137 32.788781867194615 $80 $138 forward 7 unknown #
face $-1 $139 $140 $19 $-1 $141 reversed single #
loop $-1 $-1 $142 $52 #
plane-surface $-1 0 -19.768849422157203 3.9427071132395231 0 -1 0 0 0 -1 forward_v I I I I #
coedge $-1 $143 $144 $145 $146 reversed $53 $-1 #
coedge $-1 $147 $55 $148 $149 forward $34 $-1 #
coedge $-1 $55 $147 $150 $151 reversed $34 $-1 #
coedge $-1 $152 $153 $55 $89 forward $154 $-1 #
edge $-1 $155 6.6294415998192484 $156 19.649374044856661 $88 $157 forward 7 unknown #
face $-1 $158 $159 $20 $-1 $160 reversed single #
loop $-1 $-1 $161 $56 #
plane-surface $-1 0 19.768849422157203 3.9427071132395231 0 1 0 0 0 1 forward_v I I I I #
coedge $-1 $162 $163 $164 $165 reversed $57 $-1 #
coedge $-1 $166 $59 $167 $168 reversed $37 $-1 #
coedge $-1 $59 $166 $169 $170 forward $37 $-1 #
coedge $-1 $171 $172 $59 $97 forward $159 $-1 #
edge $-1 $173 -19.649374044856661 $174 -6.6294415998192484 $96 $175 forward 7 unknown #
face $-1 $176 $177 $21 $-1 $178 forward single #
loop $-1 $-1 $179 $60 #
plane-surface $-1 110.71582458873198 -7.6393917856349498 187.9449044847438 0 -1 0 -0.85716730853699208 0 -0.51503806187062418 forward_v I I I I #
coedge $-1 $180 $181 $182 $183 reversed $61 $-1 #
coedge $-1 $103 $63 $184 $185 reversed $40 $-1 #
coedge $-1 $63 $102 $180 $186 reversed $40 $-1 #
coedge $-1 $182 $187 $63 $105 forward $188 $-1 #
edge $-1 $189 81.423916142912262 $190 86.433168024554504 $104 $191 forward 7 unknown #
loop $-1 $-1 $111 $64 #
plane-surface $-1 -1.9770735036377687 -12.680036962940825 120.2321823101871 0.85716730853699208 0 0.51503806187062418 0.51503806187062418 0 -0.85716730853699208 forward_v I I I I #
loop $-1 $-1 $192 $42 #
coedge $-1 $109 $109 $110 $193 reversed $65 $-1 #
coedge $-1 $110 $110 $109 $193 forward $67 $-1 #
coedge $-1 $111 $111 $68 $112 forward $106 $-1 #
edge $-1 $194 0 $194 6.2831853071796004 $111 $195 forward 7 unknown #
loop $-1 $-1 $118 $69 #
plane-surface $-1 -1.9770735036377687 -12.680036962940825 120.2321823101871 0.85716730853699208 0 0.51503806187062418 0.51503806187062418 0 -0.85716730853699208 forward_v I I I I #
loop $-1 $-1 $196 $45 #
coedge $-1 $116 $116 $117 $197 reversed $70 $-1 #
coedge $-1 $117 $117 $116 $197 forward $72 $-1 #
coedge $-1 $118 $118 $73 $119 forward $113 $-1 #
edge $-1 $198 0 $198 6.2831853071796004 $118 $199 forward 7 unknown #
face $-1 $200 $201 $18 $-1 $202 reversed single #
loop $-1 $-1 $203 $74 #
plane-surface $-1 -65.73564867091892 0 0 1 0 0 0 0 -1 forward_v I I I I #
coedge $-1 $204 $131 $205 $206 forward $75 $-1 #
coedge $-1 $207 $77 $204 $208 forward $49 $-1 #
coedge $-1 $77 $207 $209 $210 forward $49 $-1 #
coedge $-1 $134 $133 $77 $127 reversed $135 $-1 #
edge $-1 $211 -32.788781867194615 $212 32.788781867194615 $126 $213 forward 7 unknown #
coedge $-1 $79 $78 $214 $215 forward $31 $-1 #
coedge $-1 $216 $217 $78 $130 reversed $201 $-1 #
edge $-1 $137 -65.73564867091892 $218 65.73564867091892 $129 $219 forward 7 unknown #
coedge $-1 $123 $220 $79 $132 reversed $75 $-1 #
edge $-1 $221 -65.73564867091892 $136 65.73564867091892 $131 $222 forward 7 unknown #
coedge $-1 $126 $80 $220 $223 forward $135 $-1 #
coedge $-1 $80 $126 $216 $224 reversed $135 $-1 #
loop $-1 $-1 $133 $200 #
vertex $-1 $81 $225 #
vertex $-1 $81 $226 #
straight-curve $-1 65.73564867091892 0 12.548536099459637 0 1 0 I I #
face $-1 $227 $228 $19 $-1 $229 reversed single #
loop $-1 $-1 $230 $82 #
plane-surface $-1 -65.73564867091892 0 0 1 0 0 0 0 -1 forward_v I I I I #
coedge $-1 $231 $148 $153 $232 reversed $83 $-1 #
coedge $-1 $233 $85 $234 $235 reversed $53 $-1 #
coedge $-1 $85 $233 $231 $236 forward $53 $-1 #
coedge $-1 $153 $152 $85 $146 forward $154 $-1 #
edge $-1 $237 -19.649374044856661 $238 -6.6294415998192484 $145 $239 forward 7 unknown #
coedge $-1 $87 $86 $230 $240 reversed $34 $-1 #
coedge $-1 $142 $241 $86 $149 reversed $83 $-1 #
edge $-1 $155 -65.73564867091892 $242 65.73564867091892 $148 $243 forward 7 unknown #
coedge $-1 $244 $245 $87 $151 forward $228 $-1 #
edge $-1 $156 -65.73564867091892 $246 65.73564867091892 $150 $247 forward 7 unknown #
coedge $-1 $145 $88 $245 $248 forward $154 $-1 #
coedge $-1 $88 $145 $142 $232 forward $154 $-1 #
loop $-1 $-1 $88 $227 #
vertex $-1 $89 $249 #
vertex $-1 $248 $250 #
straight-curve $-1 65.73564867091892 -13.139407822337954 7.3475894523821266 0 -1 0 I I #
face $-1 $251 $252 $20 $-1 $253 reversed single #
loop $-1 $-1 $96 $90 #
plane-surface $-1 65.73564867091892 0 0 -1 0 0 0 0 1 forward_v I I I I #
coedge $-1 $254 $169 $255 $256 reversed $91 $-1 #
coedge $-1 $257 $93 $254 $258 forward $57 $-1 #
coedge $-1 $93 $257 $259 $260 reversed $57 $-1 #
coedge $-1 $172 $171 $93 $165 forward $159 $-1 #
edge $-1 $261 6.6294415998192484 $262 19.649374044856661 $164 $263 forward 7 unknown #
coedge $-1 $95 $94 $264 $265 reversed $37 $-1 #
coedge $-1 $266 $267 $94 $168 forward $268 $-1 #
edge $-1 $269 -65.73564867091892 $173 65.73564867091892 $167 $270 forward 7 unknown #
coedge $-1 $161 $271 $95 $170 reversed $91 $-1 #
edge $-1 $272 -65.73564867091892 $174 65.73564867091892 $169 $273 forward 7 unknown #
coedge $-1 $164 $96 $271 $274 forward $159 $-1 #
coedge $-1 $96 $164 $266 $275 reversed $159 $-1 #
vertex $-1 $275 $276 #
vertex $-1 $97 $277 #
straight-curve $-1 65.73564867091892 13.139407822337954 7.3475894523821266 0 -1 0 I I #
face $-1 $-1 $188 $21 $-1 $278 reversed single #
loop $-1 $-1 $279 $98 #
plane-surface $-1 0 0 12.548536099459637 0 0 1 1 0 0 forward_v I I I I #
coedge $-1 $280 $281 $282 $283 reversed $99 $-1 #
coedge $-1 $284 $101 $103 $186 forward $61 $-1 #
coedge $-1 $101 $284 $280 $285 forward $61 $-1 #
coedge $-1 $282 $104 $101 $183 forward $188 $-1 #
edge $-1 $190 -11.380663658776289 $286 -1.2993733041645372 $182 $287 forward 7 unknown #
coedge $-1 $288 $289 $102 $185 forward $177 $-1 #
edge $-1 $290 7.3678742937977546 $189 10.377736376552932 $184 $291 forward 7 unknown #
edge $-1 $190 -131.47129734183784 $290 -125.62733685506656 $103 $292 forward 7 unknown #
coedge $-1 $104 $282 $288 $293 reversed $188 $-1 #
loop $-1 $-1 $282 $176 #
vertex $-1 $293 $294 #
vertex $-1 $105 $295 #
straight-curve $-1 65.73564867091892 -17.720682140246701 93.972452242371901 0 0 -1 I I #
coedge $-1 $192 $192 $-1 $296 reversed $108 $-1 #
edge $-1 $297 0 $297 6.2831853071796004 $109 $298 forward 7 unknown #
vertex $-1 $112 $299 #
ellipse-curve $-1 64.230717629541346 -14.840313467500486 10.043910158638488 0.85716730853699208 0 0.51503806187062418 0.51503806187062418 0 -0.85716730853699208 1 I I #
coedge $-1 $196 $196 $-1 $300 reversed $115 $-1 #
edge $-1 $301 0 $301 6.2831853071796004 $116 $302 forward 7 unknown #
vertex $-1 $119 $303 #
ellipse-curve $-1 64.230717629541346 -10.519760458381164 10.043910158638488 0.85716730853699208 0 0.51503806187062418 0.51503806187062418 0 -0.85716730853699208 1 I I #
face $-1 $-1 $135 $18 $-1 $304 reversed single #
loop $-1 $-1 $216 $120 #
plane-surface $-1 0 32.788781867194615 0 0 -1 0 0 0 -1 forward_v I I I I #
coedge $-1 $305 $214 $217 $306 forward $121 $-1 #
coedge $-1 $220 $123 $124 $208 reversed $75 $-1 #
coedge $-1 $214 $305 $123 $206 reversed $121 $-1 #
edge $-1 $221 -12.548536099459637 $307 12.548536099459637 $205 $308 forward 7 unknown #
coedge $-1 $125 $124 $305 $309 forward $49 $-1 #
edge $-1 $212 -65.73564867091892 $307 65.73564867091892 $204 $310 forward 7 unknown #
coedge $-1 $217 $216 $125 $210 reversed $201 $-1 #
edge $-1 $311 -65.73564867091892 $211 65.73564867091892 $209 $312 forward 7 unknown #
vertex $-1 $127 $313 #
vertex $-1 $223 $314 #
straight-curve $-1 65.73564867091892 0 -12.548536099459637 0 -1 0 I I #
coedge $-1 $203 $205 $128 $215 reversed $121 $-1 #
edge $-1 $218 -32.788781867194615 $221 32.788781867194615 $214 $315 forward 7 unknown #
coedge $-1 $209 $129 $134 $224 forward $201 $-1 #
coedge $-1 $129 $209 $203 $306 reversed $201 $-1 #
vertex $-1 $130 $316 #
straight-curve $-1 0 32.788781867194615 12.548536099459637 -1 0 0 I I #
coedge $-1 $131 $204 $133 $223 reversed $75 $-1 #
vertex $-1 $215 $317 #
straight-curve $-1 0 -32.788781867194615 12.548536099459637 1 0 0 I I #
edge $-1 $136 -12.548536099459637 $212 12.548536099459637 $133 $318 forward 7 unknown #
edge $-1 $137 -12.548536099459637 $211 12.548536099459637 $134 $319 forward 7 unknown #
point $-1 65.73564867091892 -32.788781867194615 12.548536099459637 #
point $-1 65.73564867091892 32.788781867194615 12.548536099459637 #
face $-1 $-1 $154 $19 $-1 $320 reversed single #
loop $-1 $-1 $150 $139 #
plane-surface $-1 0 -32.788781867194615 0 0 1 0 0 0 1 forward_v I I I I #
coedge $-1 $321 $322 $147 $240 forward $140 $-1 #
coedge $-1 $241 $142 $144 $236 reversed $83 $-1 #
edge $-1 $238 -1.433528782522842 $155 5.376235895762365 $153 $323 forward 7 unknown #
coedge $-1 $144 $143 $324 $325 reversed $53 $-1 #
coedge $-1 $245 $244 $143 $235 forward $228 $-1 #
edge $-1 $326 -65.73564867091892 $237 65.73564867091892 $234 $327 forward 7 unknown #
edge $-1 $328 -65.73564867091892 $238 65.73564867091892 $231 $329 forward 7 unknown #
vertex $-1 $235 $330 #
vertex $-1 $146 $331 #
straight-curve $-1 65.73564867091892 -13.139407822337954 0.53782477409691953 0 1 0 I I #
edge $-1 $246 -19.649374044856661 $242 -6.6294415998192484 $230 $332 forward 7 unknown #
coedge $-1 $148 $231 $321 $333 reversed $83 $-1 #
vertex $-1 $240 $334 #
straight-curve $-1 0 -19.768849422157203 7.3475894523821266 -1 0 0 I I #
coedge $-1 $234 $150 $322 $335 forward $228 $-1 #
coedge $-1 $150 $234 $152 $248 reversed $228 $-1 #
vertex $-1 $335 $336 #
straight-curve $-1 0 -32.788781867194615 7.3475894523821266 -1 0 0 I I #
edge $-1 $156 -7.3475894523821266 $237 -0.53782477409691953 $152 $337 forward 7 unknown #
point $-1 65.73564867091892 -19.768849422157203 7.3475894523821266 #
point $-1 65.73564867091892 -32.788781867194615 7.3475894523821266 #
face $-1 $-1 $268 $20 $-1 $338 reversed single #
loop $-1 $-1 $264 $158 #
plane-surface $-1 -65.73564867091892 0 0 1 0 0 0 0 -1 forward_v I I I I #
coedge $-1 $271 $161 $162 $258 reversed $91 $-1 #
coedge $-1 $264 $339 $161 $256 forward $252 $-1 #
edge $-1 $340 -1.433528782522842 $272 5.376235895762365 $255 $341 forward 7 unknown #
coedge $-1 $163 $162 $339 $342 reversed $57 $-1 #
edge $-1 $261 -65.73564867091892 $340 65.73564867091892 $254 $343 forward 7 unknown #
coedge $-1 $267 $266 $163 $260 forward $268 $-1 #
edge $-1 $262 -65.73564867091892 $344 65.73564867091892 $259 $345 forward 7 unknown #
vertex $-1 $165 $346 #
vertex $-1 $260 $347 #
straight-curve $-1 65.73564867091892 13.139407822337954 0.53782477409691953 0 1 0 I I #
coedge $-1 $348 $255 $166 $265 forward $252 $-1 #
edge $-1 $272 6.6294415998192484 $269 19.649374044856661 $264 $349 forward 7 unknown #
coedge $-1 $259 $167 $172 $275 forward $268 $-1 #
coedge $-1 $167 $259 $348 $350 reversed $268 $-1 #
loop $-1 $-1 $167 $251 #
vertex $-1 $350 $351 #
straight-curve $-1 0 32.788781867194615 7.3475894523821266 1 0 0 I I #
coedge $-1 $169 $254 $171 $274 reversed $91 $-1 #
vertex $-1 $265 $352 #
straight-curve $-1 0 19.768849422157203 7.3475894523821266 1 0 0 I I #
edge $-1 $174 -5.376235895762365 $261 1.433528782522842 $171 $353 forward 7 unknown #
edge $-1 $173 -7.3475894523821266 $262 -0.53782477409691953 $172 $354 forward 7 unknown #
point $-1 65.73564867091892 32.788781867194615 7.3475894523821266 #
point $-1 65.73564867091892 19.768849422157203 7.3475894523821266 #
plane-surface $-1 65.73564867091892 0 0 -1 0 0 0 0 1 forward_v I I I I #
coedge $-1 $289 $288 $281 $355 forward $177 $-1 #
coedge $-1 $281 $179 $181 $285 reversed $99 $-1 #
coedge $-1 $179 $280 $279 $355 reversed $99 $-1 #
coedge $-1 $187 $182 $179 $283 forward $188 $-1 #
edge $-1 $286 -86.433168024554504 $356 -81.423916142912262 $282 $357 forward 7 unknown #
coedge $-1 $181 $180 $289 $358 reversed $61 $-1 #
edge $-1 $359 125.62733685506656 $286 131.47129734183784 $280 $360 forward 7 unknown #
vertex $-1 $183 $361 #
straight-curve $-1 65.73564867091892 -6.3400184814704126 7.5392842178173893 0 1 0 I I #
coedge $-1 $279 $184 $187 $293 forward $177 $-1 #
coedge $-1 $184 $279 $284 $358 forward $177 $-1 #
vertex $-1 $185 $362 #
straight-curve $-1 55.357912294365988 -17.720682140246701 12.548536099459639 1 0 0 I I #
straight-curve $-1 -1.9770735036377687 -17.720682140246701 120.2321823101871 -0.51503806187062418 0 0.85716730853699208 I I #
edge $-1 $189 -17.720682140246701 $356 -7.6393917856349498 $187 $363 forward 7 unknown #
point $-1 65.73564867091892 -17.720682140246701 12.548536099459637 #
point $-1 65.73564867091892 -17.720682140246701 7.5392842178173964 #
edge $-1 $364 1 $364 0 $192 $-1 forward 7 unknown #
vertex $-1 $193 $365 #
ellipse-curve $-1 61.012213566351505 -14.840313467500486 8.1100378815245904 0.85716730853699208 0 0.51503806187062418 0.51503806187062418 0 -0.85716730853699208 1 I I #
point $-1 64.745755691411929 -14.840313467500486 9.1867428501014743 #
edge $-1 $366 1 $366 0 $196 $-1 forward 7 unknown #
vertex $-1 $197 $367 #
ellipse-curve $-1 61.012213566351505 -10.519760458381164 8.1100378815245904 0.85716730853699208 0 0.51503806187062418 0.51503806187062418 0 -0.85716730853699208 1 I I #
point $-1 64.745755691411929 -10.519760458381164 9.1867428501014743 #
plane-surface $-1 65.73564867091892 0 0 -1 0 0 0 0 1 forward_v I I I I #
coedge $-1 $205 $203 $207 $309 reversed $121 $-1 #
edge $-1 $218 -12.548536099459637 $311 12.548536099459637 $217 $368 forward 7 unknown #
vertex $-1 $309 $369 #
straight-curve $-1 -65.73564867091892 -32.788781867194615 0 0 0 -1 I I #
edge $-1 $307 -32.788781867194615 $311 32.788781867194615 $305 $370 forward 7 unknown #
straight-curve $-1 0 -32.788781867194615 -12.548536099459637 -1 0 0 I I #
vertex $-1 $210 $371 #
straight-curve $-1 0 32.788781867194615 -12.548536099459637 1 0 0 I I #
point $-1 65.73564867091892 32.788781867194615 -12.548536099459637 #
point $-1 65.73564867091892 -32.788781867194615 -12.548536099459637 #
straight-curve $-1 -65.73564867091892 0 12.548536099459637 0 -1 0 I I #
point $-1 -65.73564867091892 32.788781867194615 12.548536099459637 #
point $-1 -65.73564867091892 -32.788781867194615 12.548536099459637 #
straight-curve $-1 65.73564867091892 -32.788781867194615 0 0 0 -1 I I #
straight-curve $-1 65.73564867091892 32.788781867194615 0 0 0 -1 I I #
plane-surface $-1 65.73564867091892 0 0 -1 0 0 0 0 1 forward_v I I I I #
coedge $-1 $324 $230 $241 $333 forward $140 $-1 #
coedge $-1 $230 $324 $244 $335 reversed $140 $-1 #
straight-curve $-1 65.73564867091892 -19.768849422157203 1.9713535566197615 0 0 1 I I #
coedge $-1 $322 $321 $233 $325 forward $140 $-1 #
edge $-1 $328 6.6294415998192484 $326 19.649374044856661 $324 $372 forward 7 unknown #
vertex $-1 $235 $373 #
straight-curve $-1 0 -32.788781867194615 0.53782477409691953 1 0 0 I I #
vertex $-1 $325 $374 #
straight-curve $-1 0 -19.768849422157203 0.53782477409691953 1 0 0 I I #
point $-1 65.73564867091892 -32.788781867194615 0.53782477409691953 #
point $-1 65.73564867091892 -19.768849422157203 0.53782477409691953 #
straight-curve $-1 -65.73564867091892 -13.139407822337954 7.3475894523821266 0 1 0 I I #
edge $-1 $242 -5.376235895762365 $328 1.433528782522842 $321 $375 forward 7 unknown #
point $-1 -65.73564867091892 -19.768849422157203 7.3475894523821266 #
edge $-1 $246 -7.3475894523821266 $326 -0.53782477409691953 $322 $376 forward 7 unknown #
point $-1 -65.73564867091892 -32.788781867194615 7.3475894523821266 #
straight-curve $-1 65.73564867091892 -32.788781867194615 0 0 0 -1 I I #
plane-surface $-1 0 32.788781867194615 0 0 -1 0 0 0 -1 forward_v I I I I #
coedge $-1 $255 $348 $257 $342 forward $252 $-1 #
vertex $-1 $342 $377 #
straight-curve $-1 -65.73564867091892 19.768849422157203 1.9713535566197615 0 0 1 I I #
edge $-1 $344 -19.649374044856661 $340 -6.6294415998192484 $339 $378 forward 7 unknown #
straight-curve $-1 0 19.768849422157203 0.53782477409691953 -1 0 0 I I #
vertex $-1 $260 $379 #
straight-curve $-1 0 32.788781867194615 0.53782477409691953 -1 0 0 I I #
point $-1 65.73564867091892 19.768849422157203 0.53782477409691953 #
point $-1 65.73564867091892 32.788781867194615 0.53782477409691953 #
coedge $-1 $339 $264 $267 $350 forward $252 $-1 #
straight-curve $-1 -65.73564867091892 13.139407822337954 7.3475894523821266 0 1 0 I I #
edge $-1 $269 -7.3475894523821266 $344 -0.53782477409691953 $267 $380 forward 7 unknown #
point $-1 -65.73564867091892 32.788781867194615 7.3475894523821266 #
point $-1 -65.73564867091892 19.768849422157203 7.3475894523821266 #
straight-curve $-1 65.73564867091892 19.768849422157203 1.9713535566197615 0 0 -1 I I #
straight-curve $-1 65.73564867091892 32.788781867194615 0 0 0 -1 I I #
edge $-1 $356 -10.377736376552932 $359 -7.3678742937977546 $279 $381 forward 7 unknown #
vertex $-1 $355 $382 #
straight-curve $-1 65.73564867091892 -7.6393917856349498 93.972452242371901 0 0 1 I I #
edge $-1 $359 1.2993733041645372 $290 11.380663658776289 $289 $383 forward 7 unknown #
vertex $-1 $358 $384 #
straight-curve $-1 -1.9770735036377687 -7.6393917856349498 120.2321823101871 0.51503806187062418 0 -0.85716730853699208 I I #
point $-1 65.73564867091892 -7.6393917856349498 7.5392842178173964 #
point $-1 62.725786588163743 -17.720682140246701 12.548536099459639 #
straight-curve $-1 65.73564867091892 0 12.548536099459637 0 1 0 I I #
vertex $-1 $296 $385 #
point $-1 61.527251628222132 -14.840313467500486 7.2528705729875984 #
vertex $-1 $300 $386 #
point $-1 61.527251628222132 -10.519760458381164 7.2528705729875984 #
straight-curve $-1 -65.73564867091892 32.788781867194615 0 0 0 -1 I I #
point $-1 -65.73564867091892 -32.788781867194615 -12.548536099459637 #
straight-curve $-1 -65.73564867091892 0 -12.548536099459637 0 1 0 I I #
point $-1 -65.73564867091892 32.788781867194615 -12.548536099459637 #
straight-curve $-1 -65.73564867091892 -13.139407822337954 0.53782477409691953 0 -1 0 I I #
point $-1 -65.73564867091892 -32.788781867194615 0.53782477409691953 #
point $-1 -65.73564867091892 -19.768849422157203 0.53782477409691953 #
straight-curve $-1 -65.73564867091892 -19.768849422157203 1.9713535566197615 0 0 -1 I I #
straight-curve $-1 -65.73564867091892 -32.788781867194615 0 0 0 -1 I I #
point $-1 -65.73564867091892 19.768849422157203 0.53782477409691953 #
straight-curve $-1 -65.73564867091892 13.139407822337954 0.53782477409691953 0 -1 0 I I #
point $-1 -65.73564867091892 32.788781867194615 0.53782477409691953 #
straight-curve $-1 -65.73564867091892 32.788781867194615 0 0 0 -1 I I #
straight-curve $-1 55.357912294365988 -7.6393917856349498 12.548536099459639 -1 0 0 I I #
point $-1 65.73564867091892 -7.6393917856349498 12.548536099459637 #
straight-curve $-1 62.725786588163736 -6.3400184814704126 12.548536099459639 0 -1 0 I I #
point $-1 62.725786588163743 -7.6393917856349498 12.548536099459639 #
point $-1 60.155046257814519 -14.840313467500486 7.5949998196539665 #
point $-1 60.155046257814519 -10.519760458381164 7.5949998196539665 #
End-of-ACIS-data 