500 0 9 0           
7 Unknown 11 ACIS 5.0 NT 24 Thu Mar 25 18:10:22 1999 
-1 9.9999999999999995e-007 1e-010 
body $-1 $9 $-1 $10 #
body $-1 $11 $-1 $12 #
body $-1 $13 $-1 $14 #
body $-1 $15 $-1 $16 #
body $-1 $17 $-1 $18 #
body $-1 $19 $-1 $20 #
body $-1 $21 $-1 $22 #
body $-1 $23 $-1 $24 #
body $-1 $25 $-1 $26 #
lump $-1 $-1 $27 $0 #
transform $-1 1 0 0 0 1 0 0 0 1 51.487166966765344 22.980589178308659 8.1190554118963583 1 rotate no_reflect no_shear #
lump $-1 $-1 $28 $1 #
transform $-1 1 0 0 0 1 0 0 0 1 51.487166966765344 22.980589178308659 8.1190554118963583 1 rotate no_reflect no_shear #
lump $-1 $-1 $29 $2 #
transform $-1 1 0 0 0 1 0 0 0 1 51.487166966765344 22.980589178308659 8.1190554118963583 1 rotate no_reflect no_shear #
lump $-1 $-1 $30 $3 #
transform $-1 1 0 0 0 1 0 0 0 1 51.487166966765344 22.980589178308659 8.1190554118963583 1 rotate no_reflect no_shear #
lump $-1 $-1 $31 $4 #
transform $-1 1 0 0 0 1 0 0 0 1 51.487166966765344 22.980589178308659 8.1190554118963583 1 rotate no_reflect no_shear #
lump $-1 $-1 $32 $5 #
transform $-1 1 0 0 0 1 0 0 0 1 51.487166966765344 22.980589178308659 8.1190554118963583 1 rotate no_reflect no_shear #
lump $-1 $-1 $33 $6 #
transform $-1 1 0 0 0 1 0 0 0 1 51.487166966765344 22.980589178308659 8.1190554118963583 1 rotate no_reflect no_shear #
lump $-1 $-1 $34 $7 #
transform $-1 1 0 0 0 1 0 0 0 1 51.487166966765344 22.980589178308659 8.1190554118963583 1 rotate no_reflect no_shear #
lump $-1 $-1 $35 $8 #
transform $-1 1 0 0 0 1 0 0 0 1 51.487166966765344 22.980589178308659 8.1190554118963583 1 rotate no_reflect no_shear #
shell $-1 $-1 $-1 $36 $-1 $9 #
shell $-1 $-1 $-1 $37 $-1 $11 #
shell $-1 $-1 $-1 $38 $-1 $13 #
shell $-1 $-1 $-1 $39 $-1 $15 #
shell $-1 $-1 $-1 $40 $-1 $17 #
shell $-1 $-1 $-1 $41 $-1 $19 #
shell $-1 $-1 $-1 $42 $-1 $21 #
shell $-1 $-1 $-1 $43 $-1 $23 #
shell $-1 $-1 $-1 $44 $-1 $25 #
face $-1 $45 $46 $27 $-1 $47 forward single #
face $-1 $48 $49 $28 $-1 $50 reversed single #
face $-1 $51 $52 $29 $-1 $53 reversed single #
face $-1 $54 $55 $30 $-1 $56 forward single #
face $-1 $57 $58 $31 $-1 $59 forward single #
face $-1 $60 $61 $32 $-1 $62 reversed single #
face $-1 $63 $64 $33 $-1 $65 forward single #
face $-1 $66 $67 $34 $-1 $68 forward single #
face $-1 $69 $70 $35 $-1 $71 forward single #
face $-1 $72 $73 $27 $-1 $74 reversed single #
loop $-1 $-1 $75 $36 #
plane-surface $-1 0 0 8.1190554118963583 0 0 1 1 0 0 forward_v I I I I #
face $-1 $76 $77 $28 $-1 $78 reversed single #
loop $-1 $-1 $79 $37 #
plane-surface $-1 -48.233949896424946 0 5.1190554118963583 0 0 1 1 0 0 forward_v I I I I #
face $-1 $80 $81 $29 $-1 $82 reversed single #
loop $-1 $-1 $83 $38 #
plane-surface $-1 42.808529972095315 -22.980589178308662 3.981730560716656 0 -0.62932039886446345 0.77714595512881146 1 0 0 forward_v I I I I #
face $-1 $84 $85 $30 $-1 $86 forward single #
loop $-1 $87 $88 $39 #
cone-surface $-1 39.089114117236747 -19.265601369556052 4.6174152506905592 0 0.62932039886446345 -0.77714595512881146 1 0 0 1 I I 0 1 1 forward I I I I #
face $-1 $89 $90 $31 $-1 $91 forward single #
loop $-1 $92 $93 $40 #
cone-surface $-1 46.527945826953911 -19.265601369556052 4.6174152506905592 0 0.62932039886446345 -0.77714595512881146 1 0 0 1 I I 0 1 1 forward I I I I #
face $-1 $94 $95 $32 $-1 $96 reversed single #
loop $-1 $-1 $97 $41 #
plane-surface $-1 -35.238702618573029 -9.5188713319031422 36.507125331303769 0 0.70710678939079041 0.70710677298230451 1 0 0 forward_v I I I I #
face $-1 $98 $99 $33 $-1 $100 forward single #
loop $-1 $101 $102 $42 #
cone-surface $-1 -41.083920743079943 20.022769702594193 5.1612359094131426 0 -0.70710678939079041 -0.70710677298230451 1 0 0 1 I I 0 1 1 forward I I I I #
face $-1 $103 $104 $34 $-1 $105 forward single #
loop $-1 $106 $107 $43 #
cone-surface $-1 -35.238702618573029 20.022769702594193 5.1612359094131426 0 -0.70710678939079041 -0.70710677298230451 1 0 0 1 I I 0 1 1 forward I I I I #
face $-1 $108 $109 $35 $-1 $110 forward single #
loop $-1 $111 $112 $44 #
cone-surface $-1 -29.393484494066119 20.022769702594193 5.1612359094131426 0 -0.70710678939079041 -0.70710677298230451 1 0 0 1 I I 0 1 1 forward I I I I #
face $-1 $113 $114 $27 $-1 $115 reversed single #
loop $-1 $-1 $116 $45 #
plane-surface $-1 0 0 -8.1190554118963583 0 0 1 1 0 0 forward_v I I I I #
coedge $-1 $117 $118 $119 $120 forward $46 $-1 #
face $-1 $121 $122 $28 $-1 $123 reversed single #
loop $-1 $-1 $124 $48 #
plane-surface $-1 -44.980732826084548 0 6.6190554118963583 -1 0 0 0 0 1 forward_v I I I I #
coedge $-1 $125 $126 $127 $128 forward $49 $-1 #
face $-1 $129 $130 $29 $-1 $131 reversed single #
loop $-1 $-1 $132 $51 #
plane-surface $-1 34.129892977425293 -87.784438082160648 84.007817659243543 1 0 0 0 0.62932039886446345 -0.77714595512881146 forward_v I I I I #
coedge $-1 $133 $134 $135 $136 reversed $52 $-1 #
face $-1 $-1 $137 $30 $-1 $138 forward single #
loop $-1 $139 $140 $54 #
cone-surface $-1 39.089114117236747 -17.790538656039772 2.7958645375102087 0 0.62932039886446345 -0.77714595512881146 0.5 0 0 1 I I -0.70710678118654746 0.70710678118654746 0.5 forward I I I I #
loop $-1 $-1 $141 $39 #
coedge $-1 $88 $88 $142 $143 reversed $55 $-1 #
face $-1 $-1 $144 $31 $-1 $145 forward single #
loop $-1 $146 $147 $57 #
cone-surface $-1 46.527945826953911 -17.790538656039772 2.7958645375102087 0 0.62932039886446345 -0.77714595512881146 0.5 0 0 1 I I -0.70710678118654746 0.70710678118654746 0.5 forward I I I I #
loop $-1 $-1 $148 $40 #
coedge $-1 $93 $93 $149 $150 reversed $58 $-1 #
face $-1 $151 $152 $32 $-1 $153 forward single #
loop $-1 $-1 $154 $60 #
plane-surface $-1 -25.49667241106151 63.294979325490857 109.32097429904486 -1 0 0 0 0.70710678939079041 0.70710677298230451 forward_v I I I I #
coedge $-1 $155 $156 $157 $158 reversed $61 $-1 #
face $-1 $-1 $159 $33 $-1 $160 forward single #
loop $-1 $161 $162 $63 #
cone-surface $-1 -41.083920743079943 18.767092456960579 3.9055586929176478 0 -0.70710678939079041 -0.70710677298230451 0.5 0 0 1 I I -0.70710678118654746 0.70710678118654746 0.5 forward I I I I #
loop $-1 $-1 $163 $42 #
coedge $-1 $102 $102 $164 $165 reversed $64 $-1 #
face $-1 $-1 $166 $34 $-1 $167 forward single #
loop $-1 $168 $169 $66 #
cone-surface $-1 -35.238702618573029 18.767092456960579 3.9055586929176478 0 -0.70710678939079041 -0.70710677298230451 0.5 0 0 1 I I -0.70710678118654746 0.70710678118654746 0.5 forward I I I I #
loop $-1 $-1 $170 $43 #
coedge $-1 $107 $107 $171 $172 reversed $67 $-1 #
face $-1 $-1 $173 $35 $-1 $174 forward single #
loop $-1 $175 $176 $69 #
cone-surface $-1 -29.393484494066119 18.767092456960579 3.9055586929176478 0 -0.70710678939079041 -0.70710677298230451 0.5 0 0 1 I I -0.70710678118654746 0.70710678118654746 0.5 forward I I I I #
loop $-1 $-1 $177 $44 #
coedge $-1 $112 $112 $178 $179 reversed $70 $-1 #
face $-1 $180 $181 $27 $-1 $182 reversed single #
loop $-1 $-1 $183 $72 #
plane-surface $-1 0 -22.980589178308659 0 0 1 0 0 0 1 forward_v I I I I #
coedge $-1 $184 $185 $186 $187 forward $73 $-1 #
coedge $-1 $188 $75 $189 $190 forward $46 $-1 #
coedge $-1 $75 $188 $191 $192 forward $46 $-1 #
coedge $-1 $193 $194 $75 $120 reversed $195 $-1 #
edge $-1 $196 -22.980589178308659 $197 22.980589178308659 $119 $198 forward 7 unknown #
face $-1 $199 $200 $28 $-1 $201 reversed single #
loop $-1 $-1 $202 $76 #
plane-surface $-1 0 22.980589178308659 0 0 -1 0 0 0 -1 forward_v I I I I #
coedge $-1 $127 $203 $204 $205 reversed $77 $-1 #
coedge $-1 $206 $79 $207 $208 reversed $49 $-1 #
coedge $-1 $79 $206 $209 $210 reversed $49 $-1 #
coedge $-1 $211 $124 $79 $128 reversed $77 $-1 #
edge $-1 $212 -22.980589178308659 $213 22.980589178308659 $127 $214 forward 7 unknown #
face $-1 $215 $216 $29 $-1 $217 forward single #
loop $-1 $-1 $218 $80 #
plane-surface $-1 51.487166966765344 0 0 -1 0 0 0 0 1 forward_v I I I I #
coedge $-1 $219 $220 $221 $222 reversed $81 $-1 #
coedge $-1 $223 $83 $218 $224 reversed $52 $-1 #
coedge $-1 $83 $223 $219 $225 forward $52 $-1 #
coedge $-1 $221 $226 $83 $136 forward $216 $-1 #
edge $-1 $227 -30.082901980717679 $228 -12.725627991377635 $135 $229 forward 7 unknown #
loop $-1 $-1 $142 $84 #
plane-surface $-1 42.808529972095315 -22.980589178308662 3.981730560716656 0 -0.62932039886446345 0.77714595512881146 1 0 0 forward_v I I I I #
loop $-1 $-1 $230 $54 #
coedge $-1 $140 $140 $141 $231 reversed $85 $-1 #
coedge $-1 $141 $141 $140 $231 forward $87 $-1 #
coedge $-1 $142 $142 $88 $143 forward $137 $-1 #
edge $-1 $232 -3.3766921531849239e-017 $232 6.2831853071796004 $142 $233 forward 7 unknown #
loop $-1 $-1 $149 $89 #
plane-surface $-1 42.808529972095315 -22.980589178308662 3.981730560716656 0 -0.62932039886446345 0.77714595512881146 1 0 0 forward_v I I I I #
loop $-1 $-1 $234 $57 #
coedge $-1 $147 $147 $148 $235 reversed $90 $-1 #
coedge $-1 $148 $148 $147 $235 forward $92 $-1 #
coedge $-1 $149 $149 $93 $150 forward $144 $-1 #
edge $-1 $236 -3.3766921531849239e-017 $236 6.2831853071796004 $149 $237 forward 7 unknown #
face $-1 $238 $239 $32 $-1 $240 forward single #
loop $-1 $-1 $241 $94 #
plane-surface $-1 -44.980732826084548 0 6.6190554118963583 -1 0 0 0 0 1 forward_v I I I I #
coedge $-1 $242 $243 $244 $245 reversed $95 $-1 #
coedge $-1 $246 $97 $241 $247 reversed $61 $-1 #
coedge $-1 $97 $246 $242 $248 forward $61 $-1 #
coedge $-1 $244 $249 $97 $158 forward $239 $-1 #
edge $-1 $250 -27.361381516798033 $251 -7.8773211017749958 $157 $252 forward 7 unknown #
loop $-1 $-1 $164 $98 #
plane-surface $-1 -35.238702618573029 -9.5188713319031422 36.507125331303769 0 0.70710678939079041 0.70710677298230451 1 0 0 forward_v I I I I #
loop $-1 $-1 $253 $63 #
coedge $-1 $162 $162 $163 $254 reversed $99 $-1 #
coedge $-1 $163 $163 $162 $254 forward $101 $-1 #
coedge $-1 $164 $164 $102 $165 forward $159 $-1 #
edge $-1 $255 2.512148021336018e-015 $255 6.2831853071796031 $164 $256 forward 7 unknown #
loop $-1 $-1 $171 $103 #
plane-surface $-1 -35.238702618573029 -9.5188713319031422 36.507125331303769 0 0.70710678939079041 0.70710677298230451 1 0 0 forward_v I I I I #
loop $-1 $-1 $257 $66 #
coedge $-1 $169 $169 $170 $258 reversed $104 $-1 #
coedge $-1 $170 $170 $169 $258 forward $106 $-1 #
coedge $-1 $171 $171 $107 $172 forward $166 $-1 #
edge $-1 $259 2.512148021336018e-015 $259 6.2831853071796031 $171 $260 forward 7 unknown #
loop $-1 $-1 $178 $108 #
plane-surface $-1 -35.238702618573029 -9.5188713319031422 36.507125331303769 0 0.70710678939079041 0.70710677298230451 1 0 0 forward_v I I I I #
loop $-1 $-1 $261 $69 #
coedge $-1 $176 $176 $177 $262 reversed $109 $-1 #
coedge $-1 $177 $177 $176 $262 forward $111 $-1 #
coedge $-1 $178 $178 $112 $179 forward $173 $-1 #
edge $-1 $263 2.512148021336018e-015 $263 6.2831853071796031 $178 $264 forward 7 unknown #
face $-1 $265 $266 $27 $-1 $267 reversed single #
loop $-1 $-1 $268 $113 #
plane-surface $-1 -51.487166966765344 0 0 1 0 0 0 0 -1 forward_v I I I I #
coedge $-1 $269 $191 $270 $271 forward $114 $-1 #
coedge $-1 $272 $116 $269 $273 forward $73 $-1 #
coedge $-1 $116 $272 $274 $275 forward $73 $-1 #
coedge $-1 $194 $193 $116 $187 reversed $195 $-1 #
edge $-1 $276 -22.980589178308659 $277 22.980589178308659 $186 $278 forward 7 unknown #
coedge $-1 $118 $117 $279 $280 forward $46 $-1 #
coedge $-1 $281 $282 $117 $190 reversed $266 $-1 #
edge $-1 $197 -51.487166966765344 $283 51.487166966765344 $189 $284 forward 7 unknown #
coedge $-1 $183 $285 $118 $192 reversed $114 $-1 #
edge $-1 $286 -51.487166966765344 $196 51.487166966765344 $191 $287 forward 7 unknown #
coedge $-1 $186 $119 $285 $288 forward $195 $-1 #
coedge $-1 $119 $186 $281 $289 reversed $195 $-1 #
loop $-1 $-1 $193 $265 #
vertex $-1 $120 $290 #
vertex $-1 $120 $291 #
straight-curve $-1 51.487166966765344 0 8.1190554118963583 0 1 0 I I #
face $-1 $292 $293 $28 $-1 $294 forward single #
loop $-1 $-1 $295 $121 #
plane-surface $-1 -51.487166966765344 0 0 1 0 0 0 0 -1 forward_v I I I I #
coedge $-1 $209 $296 $211 $297 forward $122 $-1 #
coedge $-1 $124 $211 $298 $299 reversed $77 $-1 #
coedge $-1 $300 $207 $124 $205 forward $301 $-1 #
edge $-1 $213 1.8095277059481791 $302 4.8095277059481791 $204 $303 forward 7 unknown #
coedge $-1 $126 $125 $295 $304 reversed $49 $-1 #
coedge $-1 $204 $305 $125 $208 forward $301 $-1 #
edge $-1 $306 -27.370192018552871 $213 -20.863757877872075 $207 $307 forward 7 unknown #
coedge $-1 $308 $202 $126 $210 forward $122 $-1 #
edge $-1 $212 20.863757877872075 $309 27.370192018552871 $209 $310 forward 7 unknown #
coedge $-1 $203 $127 $202 $297 reversed $77 $-1 #
vertex $-1 $210 $311 #
vertex $-1 $208 $312 #
straight-curve $-1 -44.980732826084548 0 5.1190554118963583 0 -1 0 I I #
face $-1 $-1 $313 $29 $-1 $314 reversed single #
loop $-1 $-1 $135 $129 #
plane-surface $-1 0 0 8.1190554118963583 0 0 1 1 0 0 forward_v I I I I #
coedge $-1 $315 $316 $133 $224 forward $130 $-1 #
coedge $-1 $220 $132 $134 $225 reversed $81 $-1 #
coedge $-1 $132 $219 $317 $318 reversed $81 $-1 #
coedge $-1 $319 $135 $132 $222 forward $216 $-1 #
edge $-1 $228 -26.020800452108773 $320 -20.911629862771665 $221 $321 forward 7 unknown #
coedge $-1 $134 $133 $322 $323 reversed $52 $-1 #
edge $-1 $324 -7.6767438308792393 $227 -1.1024696477365539 $218 $325 forward 7 unknown #
edge $-1 $326 4.4378234572560832e-015 $228 6.5742741831426894 $219 $327 forward 7 unknown #
coedge $-1 $135 $319 $315 $328 forward $216 $-1 #
vertex $-1 $136 $329 #
vertex $-1 $136 $330 #
straight-curve $-1 21.404264986047657 -17.871418588971551 8.1190554118963583 -1 0 0 I I #
coedge $-1 $230 $230 $-1 $331 reversed $139 $-1 #
edge $-1 $332 0 $332 6.2831853071796004 $140 $333 forward 7 unknown #
vertex $-1 $143 $334 #
ellipse-curve $-1 39.089114117236747 -20.426003883640103 6.0503929863065089 0 -0.62932039886446345 0.77714595512881146 1 0 0 1 I I #
coedge $-1 $234 $234 $-1 $335 reversed $146 $-1 #
edge $-1 $336 0 $336 6.2831853071796004 $147 $337 forward 7 unknown #
vertex $-1 $150 $338 #
ellipse-curve $-1 46.527945826953911 -20.426003883640103 6.0503929863065089 0 -0.62932039886446345 0.77714595512881146 1 0 0 1 I I #
face $-1 $-1 $339 $32 $-1 $340 reversed single #
loop $-1 $-1 $244 $151 #
plane-surface $-1 0 0 8.1190554118963583 0 0 1 1 0 0 forward_v I I I I #
coedge $-1 $341 $342 $155 $247 forward $152 $-1 #
coedge $-1 $243 $154 $156 $248 reversed $95 $-1 #
coedge $-1 $154 $242 $343 $344 reversed $95 $-1 #
coedge $-1 $345 $157 $154 $245 forward $239 $-1 #
edge $-1 $251 -12.778291733989246 $346 -8.6669004844367699 $244 $347 forward 7 unknown #
coedge $-1 $156 $155 $348 $349 reversed $61 $-1 #
edge $-1 $350 -32.028720580749599 $250 -26.214335247948704 $241 $351 forward 7 unknown #
edge $-1 $352 -45.961178356617324 $251 -40.146793023816436 $242 $353 forward 7 unknown #
coedge $-1 $157 $345 $341 $354 forward $239 $-1 #
vertex $-1 $158 $355 #
vertex $-1 $158 $356 #
straight-curve $-1 -17.619351309286515 18.869197928756183 8.1190554118963583 1 0 0 I I #
coedge $-1 $253 $253 $-1 $357 reversed $161 $-1 #
edge $-1 $358 0 $358 6.2831853071796004 $162 $359 forward 7 unknown #
vertex $-1 $165 $360 #
ellipse-curve $-1 -41.083920743079943 20.924893553532417 6.063359739417491 0 0.70710678939079041 0.70710677298230451 1 0 0 1 I I #
coedge $-1 $257 $257 $-1 $361 reversed $168 $-1 #
edge $-1 $362 0 $362 6.2831853071796004 $169 $363 forward 7 unknown #
vertex $-1 $172 $364 #
ellipse-curve $-1 -35.238702618573029 20.924893553532417 6.063359739417491 0 0.70710678939079041 0.70710677298230451 1 0 0 1 I I #
coedge $-1 $261 $261 $-1 $365 reversed $175 $-1 #
edge $-1 $366 0 $366 6.2831853071796004 $176 $367 forward 7 unknown #
vertex $-1 $179 $368 #
ellipse-curve $-1 -29.393484494066119 20.924893553532417 6.063359739417491 0 0.70710678939079041 0.70710677298230451 1 0 0 1 I I #
face $-1 $-1 $195 $27 $-1 $369 reversed single #
loop $-1 $-1 $281 $180 #
plane-surface $-1 0 22.980589178308659 0 0 -1 0 0 0 -1 forward_v I I I I #
coedge $-1 $370 $279 $282 $371 forward $181 $-1 #
coedge $-1 $285 $183 $184 $273 reversed $114 $-1 #
coedge $-1 $279 $370 $183 $271 reversed $181 $-1 #
edge $-1 $286 -8.1190554118963583 $372 8.1190554118963583 $270 $373 forward 7 unknown #
coedge $-1 $185 $184 $370 $374 forward $73 $-1 #
edge $-1 $277 -51.487166966765344 $372 51.487166966765344 $269 $375 forward 7 unknown #
coedge $-1 $282 $281 $185 $275 reversed $266 $-1 #
edge $-1 $376 -51.487166966765344 $276 51.487166966765344 $274 $377 forward 7 unknown #
vertex $-1 $187 $378 #
vertex $-1 $288 $379 #
straight-curve $-1 51.487166966765344 0 -8.1190554118963583 0 -1 0 I I #
coedge $-1 $268 $270 $188 $280 reversed $181 $-1 #
edge $-1 $283 -22.980589178308659 $286 22.980589178308659 $279 $380 forward 7 unknown #
coedge $-1 $274 $189 $194 $289 forward $266 $-1 #
coedge $-1 $189 $274 $268 $371 reversed $266 $-1 #
vertex $-1 $190 $381 #
straight-curve $-1 0 22.980589178308659 8.1190554118963583 -1 0 0 I I #
coedge $-1 $191 $269 $193 $288 reversed $114 $-1 #
vertex $-1 $280 $382 #
straight-curve $-1 0 -22.980589178308659 8.1190554118963583 1 0 0 I I #
edge $-1 $196 -8.1190554118963583 $277 8.1190554118963583 $193 $383 forward 7 unknown #
edge $-1 $197 -8.1190554118963583 $276 8.1190554118963583 $194 $384 forward 7 unknown #
point $-1 51.487166966765344 -22.980589178308659 8.1190554118963583 #
point $-1 51.487166966765344 22.980589178308659 8.1190554118963583 #
face $-1 $-1 $301 $28 $-1 $385 reversed single #
loop $-1 $-1 $298 $199 #
plane-surface $-1 0 0 8.1190554118963583 0 0 1 1 0 0 forward_v I I I I #
coedge $-1 $386 $387 $206 $304 forward $200 $-1 #
coedge $-1 $202 $308 $388 $389 reversed $122 $-1 #
edge $-1 $390 -4.8095277059481791 $212 -1.8095277059481791 $202 $391 forward 7 unknown #
coedge $-1 $388 $392 $203 $299 forward $293 $-1 #
edge $-1 $302 -22.980589178308659 $390 22.980589178308659 $298 $393 forward 7 unknown #
coedge $-1 $305 $204 $392 $394 reversed $301 $-1 #
loop $-1 $-1 $204 $292 #
vertex $-1 $205 $395 #
straight-curve $-1 -44.980732826084548 -22.980589178308659 3.3095277059481791 0 0 1 I I #
edge $-1 $309 -22.980589178308659 $306 22.980589178308659 $295 $396 forward 7 unknown #
coedge $-1 $207 $300 $386 $397 forward $301 $-1 #
vertex $-1 $304 $398 #
straight-curve $-1 -24.116974948212473 -22.980589178308659 5.1190554118963583 1 0 0 I I #
coedge $-1 $296 $209 $387 $399 reversed $122 $-1 #
vertex $-1 $304 $400 #
straight-curve $-1 -24.116974948212473 22.980589178308659 5.1190554118963583 -1 0 0 I I #
point $-1 -44.980732826084548 22.980589178308659 5.1190554118963583 #
point $-1 -44.980732826084548 -22.980589178308659 5.1190554118963583 #
loop $-1 $-1 $322 $215 #
plane-surface $-1 0 -22.980589178308659 0 0 1 0 0 0 1 forward_v I I I I #
coedge $-1 $316 $218 $226 $328 reversed $130 $-1 #
coedge $-1 $218 $315 $401 $402 forward $130 $-1 #
coedge $-1 $322 $403 $220 $318 forward $313 $-1 #
edge $-1 $320 33.884853417725409 $326 38.022178268905115 $317 $404 forward 7 unknown #
coedge $-1 $226 $221 $403 $405 forward $216 $-1 #
vertex $-1 $405 $406 #
straight-curve $-1 34.129892977425293 -43.892219041080324 8.1190554118963547 0 -1 0 I I #
coedge $-1 $401 $317 $223 $323 forward $313 $-1 #
edge $-1 $326 12.725627991377635 $324 30.082901980717679 $322 $407 forward 7 unknown #
vertex $-1 $323 $408 #
straight-curve $-1 51.487166966765344 -17.014638761580802 8.8128620503458901 0 0.77714595512881146 0.62932039886446345 I I #
vertex $-1 $323 $409 #
straight-curve $-1 34.129892977425293 -22.980589178308662 3.981730560716656 0 0.77714595512881146 0.62932039886446345 I I #
edge $-1 $410 -22.980589178308659 $227 -17.871418588971551 $315 $411 forward 7 unknown #
point $-1 51.487166966765336 -17.871418588971551 8.1190554118963583 #
point $-1 34.129892977425293 -17.871418588971551 8.1190554118963583 #
edge $-1 $412 1 $412 0 $230 $-1 forward 7 unknown #
vertex $-1 $231 $413 #
ellipse-curve $-1 39.089114117236747 -18.105198855472004 3.1844375150746145 0 -0.62932039886446345 0.77714595512881146 1 0 0 1 I I #
point $-1 40.089114117236747 -20.426003883640099 6.0503929863065045 #
edge $-1 $414 1 $414 0 $234 $-1 forward 7 unknown #
vertex $-1 $235 $415 #
ellipse-curve $-1 46.527945826953911 -18.105198855472004 3.1844375150746145 0 -0.62932039886446345 0.77714595512881146 1 0 0 1 I I #
point $-1 47.527945826953911 -20.426003883640099 6.0503929863065045 #
loop $-1 $-1 $416 $238 #
plane-surface $-1 0 22.980589178308659 0 0 -1 0 0 0 -1 forward_v I I I I #
coedge $-1 $342 $241 $249 $354 reversed $152 $-1 #
coedge $-1 $241 $341 $416 $417 reversed $152 $-1 #
coedge $-1 $348 $418 $243 $344 forward $339 $-1 #
edge $-1 $346 46.54143173762607 $352 50.652823082583815 $343 $419 forward 7 unknown #
coedge $-1 $249 $244 $418 $420 forward $239 $-1 #
vertex $-1 $420 $421 #
straight-curve $-1 -25.49667241106151 31.647489662745429 8.1190554118963547 0 1 0 I I #
coedge $-1 $416 $343 $246 $349 forward $339 $-1 #
edge $-1 $352 7.8773211017749958 $350 27.361381516798033 $348 $422 forward 7 unknown #
vertex $-1 $417 $423 #
straight-curve $-1 -44.980732826084548 0.33286392570289536 26.655389845087193 0 -0.70710677298230462 0.70710678939079052 I I #
vertex $-1 $349 $424 #
straight-curve $-1 -25.49667241106151 -9.5188713319031422 36.507125331303769 0 -0.70710677298230451 0.70710678939079041 I I #
edge $-1 $425 -22.980589178308659 $250 -18.869197928756183 $249 $426 forward 7 unknown #
point $-1 -44.980732826084548 18.869197928756183 8.1190554118963583 #
point $-1 -25.49667241106151 18.869197928756183 8.1190554118963583 #
edge $-1 $427 1 $427 0 $253 $-1 forward 7 unknown #
vertex $-1 $254 $428 #
ellipse-curve $-1 -41.083920743079943 19.120645851655976 4.2591120794088004 0 0.70710678939079041 0.70710677298230451 1 0 0 1 I I #
point $-1 -40.083920743079943 20.924893553532414 6.0633597394174839 #
edge $-1 $429 1 $429 0 $257 $-1 forward 7 unknown #
vertex $-1 $258 $430 #
ellipse-curve $-1 -35.238702618573029 19.120645851655976 4.2591120794088004 0 0.70710678939079041 0.70710677298230451 1 0 0 1 I I #
point $-1 -34.238702618573029 20.924893553532414 6.0633597394174839 #
edge $-1 $431 1 $431 0 $261 $-1 forward 7 unknown #
vertex $-1 $262 $432 #
ellipse-curve $-1 -29.393484494066119 19.120645851655976 4.2591120794088004 0 0.70710678939079041 0.70710677298230451 1 0 0 1 I I #
point $-1 -28.393484494066119 20.924893553532414 6.0633597394174839 #
plane-surface $-1 51.487166966765344 0 0 -1 0 0 0 0 1 forward_v I I I I #
coedge $-1 $270 $268 $272 $374 reversed $181 $-1 #
edge $-1 $283 -8.1190554118963583 $376 8.1190554118963583 $282 $433 forward 7 unknown #
vertex $-1 $374 $434 #
straight-curve $-1 -51.487166966765344 -22.980589178308659 0 0 0 -1 I I #
edge $-1 $372 -22.980589178308659 $376 22.980589178308659 $370 $435 forward 7 unknown #
straight-curve $-1 0 -22.980589178308659 -8.1190554118963583 -1 0 0 I I #
vertex $-1 $275 $436 #
straight-curve $-1 0 22.980589178308659 -8.1190554118963583 1 0 0 I I #
point $-1 51.487166966765344 22.980589178308659 -8.1190554118963583 #
point $-1 51.487166966765344 -22.980589178308659 -8.1190554118963583 #
straight-curve $-1 -51.487166966765344 0 8.1190554118963583 0 -1 0 I I #
point $-1 -51.487166966765344 22.980589178308659 8.1190554118963583 #
point $-1 -51.487166966765344 -22.980589178308659 8.1190554118963583 #
straight-curve $-1 51.487166966765344 -22.980589178308659 0 0 0 -1 I I #
straight-curve $-1 51.487166966765344 22.980589178308659 0 0 0 -1 I I #
plane-surface $-1 0 -22.980589178308659 0 0 1 0 0 0 1 forward_v I I I I #
coedge $-1 $437 $295 $305 $397 reversed $200 $-1 #
coedge $-1 $295 $437 $308 $399 forward $200 $-1 #
coedge $-1 $438 $298 $296 $389 forward $293 $-1 #
edge $-1 $390 44.980732826084548 $439 51.487166966765344 $296 $440 forward 7 unknown #
vertex $-1 $389 $441 #
straight-curve $-1 -44.980732826084548 22.980589178308659 3.3095277059481791 0 0 -1 I I #
coedge $-1 $298 $438 $300 $394 forward $293 $-1 #
straight-curve $-1 -44.980732826084548 0 8.1190554118963583 0 1 0 I I #
edge $-1 $442 -51.487166966765344 $302 -44.980732826084548 $300 $443 forward 7 unknown #
point $-1 -44.980732826084548 -22.980589178308659 8.1190554118963583 #
straight-curve $-1 -51.487166966765344 0 5.1190554118963583 0 -1 0 I I #
edge $-1 $442 -8.1190554118963583 $306 -5.1190554118963583 $386 $444 forward 7 unknown #
point $-1 -51.487166966765344 -22.980589178308659 5.1190554118963583 #
edge $-1 $439 -8.1190554118963583 $309 -5.1190554118963583 $308 $445 forward 7 unknown #
point $-1 -51.487166966765344 22.980589178308659 5.1190554118963583 #
coedge $-1 $403 $322 $316 $402 reversed $313 $-1 #
edge $-1 $410 -8.1190554118963583 $324 -3.9817305607166587 $316 $446 forward 7 unknown #
coedge $-1 $317 $401 $319 $405 reversed $313 $-1 #
straight-curve $-1 34.129892977425293 -22.980589178308662 42.003908829621771 0 0 -1 I I #
edge $-1 $320 34.129892977425293 $410 51.487166966765344 $403 $447 forward 7 unknown #
point $-1 34.129892977425293 -22.980589178308659 8.1190554118963583 #
straight-curve $-1 21.404264986047657 -22.980589178308659 3.9817305607166613 1 0 0 I I #
point $-1 51.487166966765336 -22.980589178308659 3.9817305607166587 #
point $-1 34.129892977425293 -22.980589178308659 3.9817305607166587 #
vertex $-1 $328 $448 #
straight-curve $-1 51.487166966765344 0 8.1190554118963583 0 1 0 I I #
vertex $-1 $331 $449 #
point $-1 40.089114117236747 -18.105198855472004 3.1844375150746145 #
vertex $-1 $335 $450 #
point $-1 47.527945826953911 -18.105198855472004 3.1844375150746145 #
coedge $-1 $418 $348 $342 $417 forward $339 $-1 #
edge $-1 $350 -50.652823082583815 $425 -46.54143173762607 $416 $451 forward 7 unknown #
coedge $-1 $343 $416 $345 $420 reversed $339 $-1 #
straight-curve $-1 -25.49667241106151 22.980589178308659 54.660487149522432 0 0 -1 I I #
edge $-1 $346 25.49667241106151 $425 44.980732826084548 $418 $452 forward 7 unknown #
point $-1 -25.49667241106151 22.980589178308659 8.1190554118963583 #
straight-curve $-1 -17.619351309286515 22.980589178308655 4.0076640669386183 -1 0 0 I I #
point $-1 -44.980732826084548 22.980589178308662 4.0076640669386165 #
point $-1 -25.49667241106151 22.980589178308662 4.0076640669386165 #
vertex $-1 $354 $453 #
straight-curve $-1 -44.980732826084548 0 8.1190554118963583 0 -1 0 I I #
vertex $-1 $357 $454 #
point $-1 -40.083920743079943 19.120645851655976 4.2591120794088004 #
vertex $-1 $361 $455 #
point $-1 -34.238702618573029 19.120645851655976 4.2591120794088004 #
vertex $-1 $365 $456 #
point $-1 -28.393484494066119 19.120645851655976 4.2591120794088004 #
straight-curve $-1 -51.487166966765344 22.980589178308659 0 0 0 -1 I I #
point $-1 -51.487166966765344 -22.980589178308659 -8.1190554118963583 #
straight-curve $-1 -51.487166966765344 0 -8.1190554118963583 0 1 0 I I #
point $-1 -51.487166966765344 22.980589178308659 -8.1190554118963583 #
coedge $-1 $387 $386 $438 $457 reversed $200 $-1 #
coedge $-1 $392 $388 $437 $457 forward $293 $-1 #
vertex $-1 $389 $458 #
straight-curve $-1 0 22.980589178308659 8.1190554118963583 -1 0 0 I I #
point $-1 -44.980732826084548 22.980589178308659 8.1190554118963583 #
vertex $-1 $457 $459 #
straight-curve $-1 0 -22.980589178308659 8.1190554118963583 1 0 0 I I #
straight-curve $-1 -51.487166966765344 -22.980589178308659 0 0 0 -1 I I #
straight-curve $-1 -51.487166966765344 22.980589178308659 0 0 0 -1 I I #
straight-curve $-1 51.487166966765344 -22.980589178308659 0 0 0 -1 I I #
straight-curve $-1 0 -22.980589178308659 8.1190554118963583 1 0 0 I I #
point $-1 51.487166966765344 -22.980589178308659 8.1190554118963583 #
point $-1 39.089114117236747 -17.475878456607539 2.4072915599458029 #
point $-1 46.527945826953911 -17.475878456607539 2.4072915599458029 #
straight-curve $-1 -44.980732826084548 22.980589178308659 54.660487149522432 0 0 1 I I #
straight-curve $-1 0 22.980589178308659 8.1190554118963583 -1 0 0 I I #
point $-1 -44.980732826084548 22.980589178308659 8.1190554118963583 #
point $-1 -41.083920743079943 18.413539062265183 3.5520053064264956 #
point $-1 -35.238702618573029 18.413539062265183 3.5520053064264956 #
point $-1 -29.393484494066119 18.413539062265183 3.5520053064264956 #
edge $-1 $439 -22.980589178308659 $442 22.980589178308659 $437 $460 forward 7 unknown #
point $-1 -51.487166966765344 22.980589178308659 8.1190554118963583 #
point $-1 -51.487166966765344 -22.980589178308659 8.1190554118963583 #
straight-curve $-1 -51.487166966765344 0 8.1190554118963583 0 -1 0 I I #
End-of-ACIS-data 