500 0 15 0           
7 Unknown 11 ACIS 5.0 NT 24 Fri Mar 26 18:58:01 1999 
-1 9.9999999999999995e-007 1e-010 
body $-1 $15 $-1 $16 #
body $-1 $17 $-1 $18 #
body $-1 $19 $-1 $20 #
body $-1 $21 $-1 $22 #
body $-1 $23 $-1 $24 #
body $-1 $25 $-1 $26 #
body $-1 $27 $-1 $28 #
body $-1 $29 $-1 $30 #
body $-1 $31 $-1 $32 #
body $-1 $33 $-1 $34 #
body $-1 $35 $-1 $36 #
body $-1 $37 $-1 $38 #
body $-1 $39 $-1 $40 #
body $-1 $41 $-1 $42 #
body $-1 $43 $-1 $44 #
lump $-1 $-1 $45 $0 #
transform $-1 1 0 0 0 1 0 0 0 1 74.318674275948368 32.492731335710815 7.6013376889520332 1 rotate no_reflect no_shear #
lump $-1 $-1 $46 $1 #
transform $-1 1 0 0 0 1 0 0 0 1 74.318674275948368 32.492731335710815 7.6013376889520332 1 rotate no_reflect no_shear #
lump $-1 $-1 $47 $2 #
transform $-1 1 0 0 0 1 0 0 0 1 74.318674275948368 32.492731335710815 7.6013376889520332 1 rotate no_reflect no_shear #
lump $-1 $-1 $48 $3 #
transform $-1 1 0 0 0 1 0 0 0 1 74.318674275948368 32.492731335710815 7.6013376889520332 1 rotate no_reflect no_shear #
lump $-1 $-1 $49 $4 #
transform $-1 1 0 0 0 1 0 0 0 1 74.318674275948368 32.492731335710815 7.6013376889520332 1 rotate no_reflect no_shear #
lump $-1 $-1 $50 $5 #
transform $-1 1 0 0 0 1 0 0 0 1 74.318674275948368 32.492731335710815 7.6013376889520332 1 rotate no_reflect no_shear #
lump $-1 $-1 $51 $6 #
transform $-1 1 0 0 0 1 0 0 0 1 74.318674275948368 32.492731335710815 7.6013376889520332 1 rotate no_reflect no_shear #
lump $-1 $-1 $52 $7 #
transform $-1 1 0 0 0 1 0 0 0 1 74.318674275948368 32.492731335710815 7.6013376889520332 1 rotate no_reflect no_shear #
lump $-1 $-1 $53 $8 #
transform $-1 1 0 0 0 1 0 0 0 1 74.318674275948368 32.492731335710815 7.6013376889520332 1 rotate no_reflect no_shear #
lump $-1 $-1 $54 $9 #
transform $-1 1 0 0 0 1 0 0 0 1 74.318674275948368 32.492731335710815 7.6013376889520332 1 rotate no_reflect no_shear #
lump $-1 $-1 $55 $10 #
transform $-1 1 0 0 0 1 0 0 0 1 74.318674275948368 32.492731335710815 7.6013376889520332 1 rotate no_reflect no_shear #
lump $-1 $-1 $56 $11 #
transform $-1 1 0 0 0 1 0 0 0 1 74.318674275948368 32.492731335710815 7.6013376889520332 1 rotate no_reflect no_shear #
lump $-1 $-1 $57 $12 #
transform $-1 1 0 0 0 1 0 0 0 1 74.318674275948368 32.492731335710815 7.6013376889520332 1 rotate no_reflect no_shear #
lump $-1 $-1 $58 $13 #
transform $-1 1 0 0 0 1 0 0 0 1 74.318674275948368 32.492731335710815 7.6013376889520332 1 rotate no_reflect no_shear #
lump $-1 $-1 $59 $14 #
transform $-1 1 0 0 0 1 0 0 0 1 74.318674275948368 32.492731335710815 7.6013376889520332 1 rotate no_reflect no_shear #
shell $-1 $-1 $-1 $60 $-1 $15 #
shell $-1 $-1 $-1 $61 $-1 $17 #
shell $-1 $-1 $-1 $62 $-1 $19 #
shell $-1 $-1 $-1 $63 $-1 $21 #
shell $-1 $-1 $-1 $64 $-1 $23 #
shell $-1 $-1 $-1 $65 $-1 $25 #
shell $-1 $-1 $-1 $66 $-1 $27 #
shell $-1 $-1 $-1 $67 $-1 $29 #
shell $-1 $-1 $-1 $68 $-1 $31 #
shell $-1 $-1 $-1 $69 $-1 $33 #
shell $-1 $-1 $-1 $70 $-1 $35 #
shell $-1 $-1 $-1 $71 $-1 $37 #
shell $-1 $-1 $-1 $72 $-1 $39 #
shell $-1 $-1 $-1 $73 $-1 $41 #
shell $-1 $-1 $-1 $74 $-1 $43 #
face $-1 $75 $76 $45 $-1 $77 forward single #
face $-1 $78 $79 $46 $-1 $80 forward single #
face $-1 $81 $82 $47 $-1 $83 forward single #
face $-1 $84 $85 $48 $-1 $86 reversed single #
face $-1 $87 $88 $49 $-1 $89 forward single #
face $-1 $90 $91 $50 $-1 $92 forward single #
face $-1 $93 $94 $51 $-1 $95 reversed single #
face $-1 $96 $97 $52 $-1 $98 forward single #
face $-1 $99 $100 $53 $-1 $101 forward single #
face $-1 $102 $103 $54 $-1 $104 reversed single #
face $-1 $105 $106 $55 $-1 $107 forward single #
face $-1 $108 $109 $56 $-1 $110 forward single #
face $-1 $111 $112 $57 $-1 $113 reversed single #
face $-1 $114 $115 $58 $-1 $116 forward single #
face $-1 $117 $118 $59 $-1 $119 forward single #
face $-1 $120 $121 $45 $-1 $122 reversed single #
loop $-1 $-1 $123 $60 #
plane-surface $-1 0 0 7.6013376889520332 0 0 1 1 0 0 forward_v I I I I #
face $-1 $124 $125 $46 $-1 $126 reversed single #
loop $-1 $-1 $127 $61 #
plane-surface $-1 0 -32.492731335710815 0 0 1 0 0 0 1 forward_v I I I I #
face $-1 $128 $129 $47 $-1 $130 reversed single #
loop $-1 $-1 $131 $62 #
plane-surface $-1 0 28.854966857374905 -0.69611981129277245 0 0 1 1 0 0 forward_v I I I I #
face $-1 $132 $133 $48 $-1 $134 reversed single #
loop $-1 $-1 $135 $63 #
plane-surface $-1 -153.08446969815844 -6.5759648686722336 127.88389783597241 0 -1 0 0.52991927123019833 0 -0.84804809178421925 forward_v I I I I #
face $-1 $136 $137 $49 $-1 $138 forward single #
loop $-1 $139 $140 $64 #
cone-surface $-1 -68.839335465242897 -13.498220465384456 3.3355172102145163 0.52991927123019833 0 -0.84804809178421925 0.84804809178421925 0 0.52991927123019833 1 I I 0 1 1 forward I I I I #
face $-1 $141 $142 $50 $-1 $143 forward single #
loop $-1 $144 $145 $65 #
cone-surface $-1 -68.839335465242897 -9.3448671073571212 3.3355172102145163 0.52991927123019833 0 -0.84804809178421925 0.84804809178421925 0 0.52991927123019833 1 I I 0 1 1 forward I I I I #
face $-1 $146 $147 $51 $-1 $148 reversed single #
loop $-1 $-1 $149 $66 #
plane-surface $-1 -153.08446969815844 19.31973467090236 127.88389783597241 0 -1 0 0.52991927123019833 0 -0.84804809178421925 forward_v I I I I #
face $-1 $150 $151 $52 $-1 $152 forward single #
loop $-1 $153 $154 $67 #
cone-surface $-1 -68.839335465242897 12.39747907419013 3.3355172102145163 0.52991927123019833 0 -0.84804809178421925 0.84804809178421925 0 0.52991927123019833 1 I I 0 1 1 forward I I I I #
face $-1 $155 $156 $53 $-1 $157 forward single #
loop $-1 $158 $159 $68 #
cone-surface $-1 -68.839335465242897 16.550832432217469 3.3355172102145163 0.52991927123019833 0 -0.84804809178421925 0.84804809178421925 0 0.52991927123019833 1 I I 0 1 1 forward I I I I #
face $-1 $160 $161 $54 $-1 $162 reversed single #
loop $-1 $-1 $163 $69 #
plane-surface $-1 27.032849890856554 -6.5759648686722336 206.64969325818251 0 -1 0 -0.52991927123019833 0 -0.84804809178421925 forward_v I I I I #
face $-1 $164 $165 $55 $-1 $166 forward single #
loop $-1 $167 $168 $70 #
cone-surface $-1 68.839335465242897 -13.498220465384456 3.3355172102145163 -0.52991927123019833 0 -0.84804809178421925 0.84804809178421925 0 -0.52991927123019833 1 I I 0 1 1 forward I I I I #
face $-1 $169 $170 $56 $-1 $171 forward single #
loop $-1 $172 $173 $71 #
cone-surface $-1 68.839335465242897 -9.3448671073571212 3.3355172102145163 -0.52991927123019833 0 -0.84804809178421925 0.84804809178421925 0 -0.52991927123019833 1 I I 0 1 1 forward I I I I #
face $-1 $174 $175 $57 $-1 $176 reversed single #
loop $-1 $-1 $177 $72 #
plane-surface $-1 27.032849890856554 19.31973467090236 206.64969325818251 0 -1 0 -0.52991927123019833 0 -0.84804809178421925 forward_v I I I I #
face $-1 $178 $179 $58 $-1 $180 forward single #
loop $-1 $181 $182 $73 #
cone-surface $-1 68.839335465242897 12.39747907419013 3.3355172102145163 -0.52991927123019833 0 -0.84804809178421925 0.84804809178421925 0 -0.52991927123019833 1 I I 0 1 1 forward I I I I #
face $-1 $183 $184 $59 $-1 $185 forward single #
loop $-1 $186 $187 $74 #
cone-surface $-1 68.839335465242897 16.550832432217469 3.3355172102145163 -0.52991927123019833 0 -0.84804809178421925 0.84804809178421925 0 -0.52991927123019833 1 I I 0 1 1 forward I I I I #
face $-1 $188 $189 $45 $-1 $190 reversed single #
loop $-1 $-1 $191 $75 #
plane-surface $-1 0 0 -7.6013376889520332 0 0 1 1 0 0 forward_v I I I I #
coedge $-1 $192 $193 $194 $195 forward $76 $-1 #
face $-1 $196 $197 $46 $-1 $198 forward single #
loop $-1 $-1 $199 $78 #
plane-surface $-1 -74.318674275948368 0 0 1 0 0 0 0 -1 forward_v I I I I #
coedge $-1 $200 $201 $202 $203 forward $79 $-1 #
face $-1 $204 $205 $47 $-1 $206 reversed single #
loop $-1 $-1 $207 $81 #
plane-surface $-1 0 28.854966857374905 -3.8977892341969924 0 0 1 1 0 0 forward_v I I I I #
coedge $-1 $208 $209 $210 $211 reversed $82 $-1 #
face $-1 $212 $213 $48 $-1 $214 reversed single #
loop $-1 $-1 $215 $84 #
plane-surface $-1 -74.318674275948339 -11.42154378637079 1.8322780286704727 -0.52991927123019833 0 0.84804809178421925 0.84804809178421925 0 0.52991927123019833 forward_v I I I I #
coedge $-1 $216 $217 $218 $219 reversed $85 $-1 #
face $-1 $-1 $220 $49 $-1 $221 forward single #
loop $-1 $222 $223 $87 #
cone-surface $-1 -67.711249621394174 -13.498220465384456 1.5302025157256578 0.52991927123019833 0 -0.84804809178421925 0.42402404589210962 0 0.26495963561509916 1 I I -0.70710678118654746 0.70710678118654746 0.5 forward I I I I #
loop $-1 $-1 $224 $64 #
coedge $-1 $140 $140 $225 $226 reversed $88 $-1 #
face $-1 $-1 $227 $50 $-1 $228 forward single #
loop $-1 $229 $230 $90 #
cone-surface $-1 -67.711249621394174 -9.3448671073571212 1.5302025157256578 0.52991927123019833 0 -0.84804809178421925 0.42402404589210962 0 0.26495963561509916 1 I I -0.70710678118654746 0.70710678118654746 0.5 forward I I I I #
loop $-1 $-1 $231 $65 #
coedge $-1 $145 $145 $232 $233 reversed $91 $-1 #
face $-1 $234 $235 $51 $-1 $236 reversed single #
loop $-1 $-1 $237 $93 #
plane-surface $-1 -74.318674275948339 14.474155753203803 1.8322780286704727 -0.52991927123019833 0 0.84804809178421925 0.84804809178421925 0 0.52991927123019833 forward_v I I I I #
coedge $-1 $238 $239 $240 $241 reversed $94 $-1 #
face $-1 $-1 $242 $52 $-1 $243 forward single #
loop $-1 $244 $245 $96 #
cone-surface $-1 -67.711249621394174 12.39747907419013 1.5302025157256578 0.52991927123019833 0 -0.84804809178421925 0.42402404589210962 0 0.26495963561509916 1 I I -0.70710678118654746 0.70710678118654746 0.5 forward I I I I #
loop $-1 $-1 $246 $67 #
coedge $-1 $154 $154 $247 $248 reversed $97 $-1 #
face $-1 $-1 $249 $53 $-1 $250 forward single #
loop $-1 $251 $252 $99 #
cone-surface $-1 -67.711249621394174 16.550832432217469 1.5302025157256578 0.52991927123019833 0 -0.84804809178421925 0.42402404589210962 0 0.26495963561509916 1 I I -0.70710678118654746 0.70710678118654746 0.5 forward I I I I #
loop $-1 $-1 $253 $68 #
coedge $-1 $159 $159 $254 $255 reversed $100 $-1 #
face $-1 $256 $257 $54 $-1 $258 reversed single #
loop $-1 $-1 $259 $102 #
plane-surface $-1 -51.73294553135355 -11.42154378637079 80.598073450880577 0.52991927123019833 0 0.84804809178421925 0.84804809178421925 0 -0.52991927123019833 forward_v I I I I #
coedge $-1 $260 $261 $262 $263 reversed $103 $-1 #
face $-1 $-1 $264 $55 $-1 $265 forward single #
loop $-1 $266 $267 $105 #
cone-surface $-1 67.711249621394174 -13.498220465384456 1.5302025157256578 -0.52991927123019833 0 -0.84804809178421925 0.42402404589210962 0 -0.26495963561509916 1 I I -0.70710678118654746 0.70710678118654746 0.5 forward I I I I #
loop $-1 $-1 $268 $70 #
coedge $-1 $168 $168 $269 $270 reversed $106 $-1 #
face $-1 $-1 $271 $56 $-1 $272 forward single #
loop $-1 $273 $274 $108 #
cone-surface $-1 67.711249621394174 -9.3448671073571212 1.5302025157256578 -0.52991927123019833 0 -0.84804809178421925 0.42402404589210962 0 -0.26495963561509916 1 I I -0.70710678118654746 0.70710678118654746 0.5 forward I I I I #
loop $-1 $-1 $275 $71 #
coedge $-1 $173 $173 $276 $277 reversed $109 $-1 #
face $-1 $278 $279 $57 $-1 $280 reversed single #
loop $-1 $-1 $281 $111 #
plane-surface $-1 -51.73294553135355 14.474155753203803 80.598073450880577 0.52991927123019833 0 0.84804809178421925 0.84804809178421925 0 -0.52991927123019833 forward_v I I I I #
coedge $-1 $282 $283 $284 $285 reversed $112 $-1 #
face $-1 $-1 $286 $58 $-1 $287 forward single #
loop $-1 $288 $289 $114 #
cone-surface $-1 67.711249621394174 12.39747907419013 1.5302025157256578 -0.52991927123019833 0 -0.84804809178421925 0.42402404589210962 0 -0.26495963561509916 1 I I -0.70710678118654746 0.70710678118654746 0.5 forward I I I I #
loop $-1 $-1 $290 $73 #
coedge $-1 $182 $182 $291 $292 reversed $115 $-1 #
face $-1 $-1 $293 $59 $-1 $294 forward single #
loop $-1 $295 $296 $117 #
cone-surface $-1 67.711249621394174 16.550832432217469 1.5302025157256578 -0.52991927123019833 0 -0.84804809178421925 0.42402404589210962 0 -0.26495963561509916 1 I I -0.70710678118654746 0.70710678118654746 0.5 forward I I I I #
loop $-1 $-1 $297 $74 #
coedge $-1 $187 $187 $298 $299 reversed $118 $-1 #
face $-1 $300 $301 $45 $-1 $302 reversed single #
loop $-1 $-1 $303 $120 #
plane-surface $-1 0 -32.492731335710815 0 0 1 0 0 0 1 forward_v I I I I #
coedge $-1 $304 $305 $306 $307 forward $121 $-1 #
coedge $-1 $308 $123 $309 $310 forward $76 $-1 #
coedge $-1 $123 $308 $311 $312 forward $76 $-1 #
coedge $-1 $313 $314 $123 $195 reversed $315 $-1 #
edge $-1 $316 -32.492731335710815 $317 32.492731335710815 $194 $318 forward 7 unknown #
face $-1 $319 $320 $46 $-1 $321 reversed single #
loop $-1 $-1 $322 $124 #
plane-surface $-1 0 -35.451998653511126 -0.64911451653558472 0 0 1 1 0 0 forward_v I I I I #
coedge $-1 $323 $324 $201 $325 forward $125 $-1 #
coedge $-1 $326 $127 $327 $328 reversed $79 $-1 #
coedge $-1 $127 $326 $199 $325 reversed $79 $-1 #
coedge $-1 $329 $322 $127 $203 reversed $197 $-1 #
edge $-1 $330 -74.318674275948368 $331 74.318674275948368 $202 $332 forward 7 unknown #
face $-1 $333 $334 $47 $-1 $335 reversed single #
loop $-1 $-1 $336 $128 #
plane-surface $-1 0 25.217202379038991 -2.2969545227448824 0 1 0 0 0 1 forward_v I I I I #
coedge $-1 $337 $338 $339 $340 reversed $129 $-1 #
coedge $-1 $341 $131 $342 $343 reversed $82 $-1 #
coedge $-1 $131 $341 $344 $345 forward $82 $-1 #
coedge $-1 $346 $347 $131 $211 forward $334 $-1 #
edge $-1 $348 -18.065247907023362 $349 -10.789718950351538 $210 $350 forward 7 unknown #
face $-1 $351 $352 $48 $-1 $353 reversed single #
loop $-1 $-1 $354 $132 #
plane-surface $-1 -153.08446969815844 -16.267122704069347 127.88389783597241 0 1 0 -0.52991927123019833 0 0.84804809178421925 forward_v I I I I #
coedge $-1 $355 $356 $357 $358 reversed $133 $-1 #
coedge $-1 $217 $135 $359 $360 reversed $85 $-1 #
coedge $-1 $135 $216 $355 $361 reversed $85 $-1 #
coedge $-1 $357 $362 $135 $219 forward $352 $-1 #
edge $-1 $363 56.340611229034167 $364 62.109670889315751 $218 $365 forward 7 unknown #
loop $-1 $-1 $225 $136 #
plane-surface $-1 -74.318674275948339 -11.42154378637079 1.8322780286704727 -0.52991927123019833 0 0.84804809178421925 0.84804809178421925 0 0.52991927123019833 forward_v I I I I #
loop $-1 $-1 $366 $87 #
coedge $-1 $223 $223 $224 $367 reversed $137 $-1 #
coedge $-1 $224 $224 $223 $367 forward $139 $-1 #
coedge $-1 $225 $225 $140 $226 forward $220 $-1 #
edge $-1 $368 0 $368 6.2831853071796004 $225 $369 forward 7 unknown #
loop $-1 $-1 $232 $141 #
plane-surface $-1 -74.318674275948339 -11.42154378637079 1.8322780286704727 -0.52991927123019833 0 0.84804809178421925 0.84804809178421925 0 0.52991927123019833 forward_v I I I I #
loop $-1 $-1 $370 $90 #
coedge $-1 $230 $230 $231 $371 reversed $142 $-1 #
coedge $-1 $231 $231 $230 $371 forward $144 $-1 #
coedge $-1 $232 $232 $145 $233 forward $227 $-1 #
edge $-1 $372 0 $372 6.2831853071796004 $232 $373 forward 7 unknown #
face $-1 $374 $375 $51 $-1 $376 forward single #
loop $-1 $-1 $377 $146 #
plane-surface $-1 -153.08446969815844 9.6285768355052461 127.88389783597241 0 1 0 -0.52991927123019833 0 0.84804809178421925 forward_v I I I I #
coedge $-1 $378 $379 $380 $381 reversed $147 $-1 #
coedge $-1 $239 $149 $382 $383 reversed $94 $-1 #
coedge $-1 $149 $238 $378 $384 reversed $94 $-1 #
coedge $-1 $380 $385 $149 $241 forward $386 $-1 #
edge $-1 $387 56.340611229034167 $388 62.109670889315751 $240 $389 forward 7 unknown #
loop $-1 $-1 $247 $150 #
plane-surface $-1 -74.318674275948339 14.474155753203803 1.8322780286704727 -0.52991927123019833 0 0.84804809178421925 0.84804809178421925 0 0.52991927123019833 forward_v I I I I #
loop $-1 $-1 $390 $96 #
coedge $-1 $245 $245 $246 $391 reversed $151 $-1 #
coedge $-1 $246 $246 $245 $391 forward $153 $-1 #
coedge $-1 $247 $247 $154 $248 forward $242 $-1 #
edge $-1 $392 0 $392 6.2831853071796004 $247 $393 forward 7 unknown #
loop $-1 $-1 $254 $155 #
plane-surface $-1 -74.318674275948339 14.474155753203803 1.8322780286704727 -0.52991927123019833 0 0.84804809178421925 0.84804809178421925 0 0.52991927123019833 forward_v I I I I #
loop $-1 $-1 $394 $99 #
coedge $-1 $252 $252 $253 $395 reversed $156 $-1 #
coedge $-1 $253 $253 $252 $395 forward $158 $-1 #
coedge $-1 $254 $254 $159 $255 forward $249 $-1 #
edge $-1 $396 0 $396 6.2831853071796004 $254 $397 forward 7 unknown #
face $-1 $398 $399 $54 $-1 $400 forward single #
loop $-1 $-1 $401 $160 #
plane-surface $-1 27.032849890856554 -16.267122704069347 206.64969325818251 0 1 0 0.52991927123019833 0 0.84804809178421925 forward_v I I I I #
coedge $-1 $402 $403 $404 $405 reversed $161 $-1 #
coedge $-1 $261 $163 $406 $407 reversed $103 $-1 #
coedge $-1 $163 $260 $402 $408 reversed $103 $-1 #
coedge $-1 $404 $409 $163 $263 forward $399 $-1 #
edge $-1 $410 -60.802249330520091 $411 -51.569824125576382 $262 $412 forward 7 unknown #
loop $-1 $-1 $269 $164 #
plane-surface $-1 -51.73294553135355 -11.42154378637079 80.598073450880577 0.52991927123019833 0 0.84804809178421925 0.84804809178421925 0 -0.52991927123019833 forward_v I I I I #
loop $-1 $-1 $413 $105 #
coedge $-1 $267 $267 $268 $414 reversed $165 $-1 #
coedge $-1 $268 $268 $267 $414 forward $167 $-1 #
coedge $-1 $269 $269 $168 $270 forward $264 $-1 #
edge $-1 $415 0 $415 6.2831853071796004 $269 $416 forward 7 unknown #
loop $-1 $-1 $276 $169 #
plane-surface $-1 -51.73294553135355 -11.42154378637079 80.598073450880577 0.52991927123019833 0 0.84804809178421925 0.84804809178421925 0 -0.52991927123019833 forward_v I I I I #
loop $-1 $-1 $417 $108 #
coedge $-1 $274 $274 $275 $418 reversed $170 $-1 #
coedge $-1 $275 $275 $274 $418 forward $172 $-1 #
coedge $-1 $276 $276 $173 $277 forward $271 $-1 #
edge $-1 $419 0 $419 6.2831853071796004 $276 $420 forward 7 unknown #
face $-1 $421 $422 $57 $-1 $423 reversed single #
loop $-1 $-1 $424 $174 #
plane-surface $-1 27.032849890856554 9.6285768355052461 206.64969325818251 0 1 0 0.52991927123019833 0 0.84804809178421925 forward_v I I I I #
coedge $-1 $425 $426 $427 $428 reversed $175 $-1 #
coedge $-1 $283 $177 $429 $430 reversed $112 $-1 #
coedge $-1 $177 $282 $425 $431 reversed $112 $-1 #
coedge $-1 $427 $432 $177 $285 forward $433 $-1 #
edge $-1 $434 -60.802249330520091 $435 -51.569824125576382 $284 $436 forward 7 unknown #
loop $-1 $-1 $291 $178 #
plane-surface $-1 -51.73294553135355 14.474155753203803 80.598073450880577 0.52991927123019833 0 0.84804809178421925 0.84804809178421925 0 -0.52991927123019833 forward_v I I I I #
loop $-1 $-1 $437 $114 #
coedge $-1 $289 $289 $290 $438 reversed $179 $-1 #
coedge $-1 $290 $290 $289 $438 forward $181 $-1 #
coedge $-1 $291 $291 $182 $292 forward $286 $-1 #
edge $-1 $439 0 $439 6.2831853071796004 $291 $440 forward 7 unknown #
loop $-1 $-1 $298 $183 #
plane-surface $-1 -51.73294553135355 14.474155753203803 80.598073450880577 0.52991927123019833 0 0.84804809178421925 0.84804809178421925 0 -0.52991927123019833 forward_v I I I I #
loop $-1 $-1 $441 $117 #
coedge $-1 $296 $296 $297 $442 reversed $184 $-1 #
coedge $-1 $297 $297 $296 $442 forward $186 $-1 #
coedge $-1 $298 $298 $187 $299 forward $293 $-1 #
edge $-1 $443 0 $443 6.2831853071796004 $298 $444 forward 7 unknown #
face $-1 $445 $446 $45 $-1 $447 reversed single #
loop $-1 $-1 $448 $188 #
plane-surface $-1 -74.318674275948368 0 0 1 0 0 0 0 -1 forward_v I I I I #
coedge $-1 $449 $311 $450 $451 forward $189 $-1 #
coedge $-1 $452 $191 $449 $453 forward $121 $-1 #
coedge $-1 $191 $452 $454 $455 forward $121 $-1 #
coedge $-1 $314 $313 $191 $307 reversed $315 $-1 #
edge $-1 $456 -32.492731335710815 $457 32.492731335710815 $306 $458 forward 7 unknown #
coedge $-1 $193 $192 $459 $460 forward $76 $-1 #
coedge $-1 $461 $462 $192 $310 reversed $446 $-1 #
edge $-1 $317 -74.318674275948368 $463 74.318674275948368 $309 $464 forward 7 unknown #
coedge $-1 $303 $465 $193 $312 reversed $189 $-1 #
edge $-1 $466 -74.318674275948368 $316 74.318674275948368 $311 $467 forward 7 unknown #
coedge $-1 $306 $194 $465 $468 forward $315 $-1 #
coedge $-1 $194 $306 $461 $469 reversed $315 $-1 #
loop $-1 $-1 $313 $445 #
vertex $-1 $195 $470 #
vertex $-1 $195 $471 #
straight-curve $-1 74.318674275948368 0 7.6013376889520332 0 1 0 I I #
face $-1 $472 $473 $46 $-1 $474 reversed single #
loop $-1 $-1 $475 $196 #
plane-surface $-1 0 -35.451998653511126 -4.2156444368055617 0 0 1 1 0 0 forward_v I I I I #
coedge $-1 $202 $476 $477 $478 forward $197 $-1 #
coedge $-1 $479 $199 $480 $481 reversed $125 $-1 #
coedge $-1 $199 $479 $329 $482 reversed $125 $-1 #
edge $-1 $330 0.64911451653558472 $483 4.2156444368055617 $199 $484 forward 7 unknown #
coedge $-1 $201 $200 $485 $486 forward $79 $-1 #
coedge $-1 $477 $487 $200 $328 forward $488 $-1 #
edge $-1 $489 -4.2156444368055617 $331 -0.64911451653558472 $327 $490 forward 7 unknown #
coedge $-1 $476 $202 $324 $482 forward $197 $-1 #
vertex $-1 $325 $491 #
vertex $-1 $478 $492 #
straight-curve $-1 0 -32.492731335710815 -0.64911451653558472 1 0 0 I I #
face $-1 $493 $494 $47 $-1 $495 reversed single #
loop $-1 $-1 $210 $204 #
plane-surface $-1 74.318674275948368 0 0 -1 0 0 0 0 1 forward_v I I I I #
coedge $-1 $496 $344 $497 $498 reversed $205 $-1 #
coedge $-1 $499 $207 $496 $500 forward $129 $-1 #
coedge $-1 $207 $499 $501 $502 reversed $129 $-1 #
coedge $-1 $347 $346 $207 $340 forward $334 $-1 #
edge $-1 $503 10.789718950351538 $504 18.065247907023362 $339 $505 forward 7 unknown #
coedge $-1 $209 $208 $506 $507 reversed $82 $-1 #
coedge $-1 $508 $509 $208 $343 forward $510 $-1 #
edge $-1 $511 -74.318674275948368 $348 74.318674275948368 $342 $512 forward 7 unknown #
coedge $-1 $336 $513 $209 $345 reversed $205 $-1 #
edge $-1 $514 -74.318674275948368 $349 74.318674275948368 $344 $515 forward 7 unknown #
coedge $-1 $339 $210 $513 $516 forward $334 $-1 #
coedge $-1 $210 $339 $508 $517 reversed $334 $-1 #
vertex $-1 $517 $518 #
vertex $-1 $211 $519 #
straight-curve $-1 74.318674275948368 14.427483428687452 -0.69611981129277245 0 -1 0 I I #
face $-1 $-1 $520 $48 $-1 $521 forward single #
loop $-1 $-1 $218 $212 #
plane-surface $-1 -74.318674275948368 0 0 1 0 0 0 0 -1 forward_v I I I I #
coedge $-1 $522 $523 $524 $525 reversed $213 $-1 #
coedge $-1 $526 $215 $217 $361 forward $133 $-1 #
coedge $-1 $215 $526 $522 $527 forward $133 $-1 #
coedge $-1 $524 $218 $215 $358 forward $352 $-1 #
edge $-1 $364 0.86519297548683838 $528 10.556350810883952 $357 $529 forward 7 unknown #
coedge $-1 $530 $531 $216 $360 forward $520 $-1 #
edge $-1 $532 -11.455985778074606 $363 -2.2235605731308539 $359 $533 forward 7 unknown #
edge $-1 $364 -3.3516233665497261e-014 $532 10.886676468452993 $217 $534 forward 7 unknown #
coedge $-1 $218 $524 $530 $535 reversed $352 $-1 #
vertex $-1 $535 $536 #
vertex $-1 $219 $537 #
straight-curve $-1 -74.318674275948368 -6.5759648686722336 63.941948917986203 0 0 -1 I I #
coedge $-1 $366 $366 $-1 $538 reversed $222 $-1 #
edge $-1 $539 0 $539 6.2831853071796004 $223 $540 forward 7 unknown #
vertex $-1 $226 $541 #
ellipse-curve $-1 -69.702461673476506 -13.498220465384456 4.7168078588112348 -0.52991927123019833 0 0.84804809178421925 0.84804809178421925 0 0.52991927123019833 1 I I #
coedge $-1 $370 $370 $-1 $542 reversed $229 $-1 #
edge $-1 $543 0 $543 6.2831853071796004 $230 $544 forward 7 unknown #
vertex $-1 $233 $545 #
ellipse-curve $-1 -69.702461673476506 -9.3448671073571212 4.7168078588112348 -0.52991927123019833 0 0.84804809178421925 0.84804809178421925 0 0.52991927123019833 1 I I #
face $-1 $-1 $386 $51 $-1 $546 reversed single #
loop $-1 $-1 $547 $234 #
plane-surface $-1 0 0 7.6013376889520332 0 0 1 1 0 0 forward_v I I I I #
coedge $-1 $548 $549 $550 $551 reversed $235 $-1 #
coedge $-1 $552 $237 $239 $384 forward $147 $-1 #
coedge $-1 $237 $552 $548 $553 forward $147 $-1 #
coedge $-1 $550 $240 $237 $381 forward $386 $-1 #
edge $-1 $388 -12.082656794300458 $554 -2.3914989589033446 $380 $555 forward 7 unknown #
coedge $-1 $556 $557 $238 $383 forward $375 $-1 #
edge $-1 $558 -11.455985778074606 $387 -2.2235605731308539 $382 $559 forward 7 unknown #
edge $-1 $388 -3.3516233665497261e-014 $558 10.886676468452993 $239 $560 forward 7 unknown #
coedge $-1 $240 $550 $556 $561 reversed $386 $-1 #
loop $-1 $-1 $550 $374 #
vertex $-1 $561 $562 #
vertex $-1 $241 $563 #
straight-curve $-1 -74.318674275948368 19.31973467090236 63.941948917986203 0 0 -1 I I #
coedge $-1 $390 $390 $-1 $564 reversed $244 $-1 #
edge $-1 $565 0 $565 6.2831853071796004 $245 $566 forward 7 unknown #
vertex $-1 $248 $567 #
ellipse-curve $-1 -69.702461673476506 12.39747907419013 4.7168078588112348 -0.52991927123019833 0 0.84804809178421925 0.84804809178421925 0 0.52991927123019833 1 I I #
coedge $-1 $394 $394 $-1 $568 reversed $251 $-1 #
edge $-1 $569 0 $569 6.2831853071796004 $252 $570 forward 7 unknown #
vertex $-1 $255 $571 #
ellipse-curve $-1 -69.702461673476506 16.550832432217469 4.7168078588112348 -0.52991927123019833 0 0.84804809178421925 0.84804809178421925 0 0.52991927123019833 1 I I #
face $-1 $-1 $572 $54 $-1 $573 reversed single #
loop $-1 $-1 $262 $256 #
plane-surface $-1 0 0 7.6013376889520332 0 0 1 1 0 0 forward_v I I I I #
coedge $-1 $574 $575 $576 $577 reversed $257 $-1 #
coedge $-1 $578 $259 $261 $408 forward $161 $-1 #
coedge $-1 $259 $578 $574 $579 forward $161 $-1 #
coedge $-1 $576 $262 $259 $405 forward $399 $-1 #
edge $-1 $411 0.86519297548683838 $580 10.556350810883952 $404 $581 forward 7 unknown #
coedge $-1 $582 $583 $260 $407 forward $572 $-1 #
edge $-1 $584 -101.49256860042077 $410 -95.723508940139226 $406 $585 forward 7 unknown #
edge $-1 $411 137.75067208344376 $584 148.63734855189674 $261 $586 forward 7 unknown #
coedge $-1 $262 $576 $582 $587 forward $399 $-1 #
vertex $-1 $263 $588 #
vertex $-1 $263 $589 #
straight-curve $-1 13.516424945428277 -6.5759648686722336 7.6013376889520288 -1 0 0 I I #
coedge $-1 $413 $413 $-1 $590 reversed $266 $-1 #
edge $-1 $591 0 $591 6.2831853071796004 $267 $592 forward 7 unknown #
vertex $-1 $270 $593 #
ellipse-curve $-1 69.70246167347652 -13.498220465384456 4.7168078588112499 0.52991927123019833 0 0.84804809178421925 0.84804809178421925 0 -0.52991927123019833 1 I I #
coedge $-1 $417 $417 $-1 $594 reversed $273 $-1 #
edge $-1 $595 0 $595 6.2831853071796004 $274 $596 forward 7 unknown #
vertex $-1 $277 $597 #
ellipse-curve $-1 69.70246167347652 -9.3448671073571212 4.7168078588112499 0.52991927123019833 0 0.84804809178421925 0.84804809178421925 0 -0.52991927123019833 1 I I #
face $-1 $-1 $433 $57 $-1 $598 forward single #
loop $-1 $-1 $599 $278 #
plane-surface $-1 74.318674275948368 0 0 -1 0 0 0 0 1 forward_v I I I I #
coedge $-1 $600 $601 $602 $603 reversed $279 $-1 #
coedge $-1 $604 $281 $283 $431 forward $175 $-1 #
coedge $-1 $281 $604 $600 $605 forward $175 $-1 #
coedge $-1 $602 $284 $281 $428 forward $433 $-1 #
edge $-1 $435 -12.082656794300458 $606 -2.3914989589033446 $427 $607 forward 7 unknown #
coedge $-1 $608 $609 $282 $430 forward $422 $-1 #
edge $-1 $610 -101.49256860042077 $434 -95.723508940139226 $429 $611 forward 7 unknown #
edge $-1 $435 137.75067208344376 $610 148.63734855189674 $283 $612 forward 7 unknown #
coedge $-1 $284 $602 $608 $613 forward $433 $-1 #
loop $-1 $-1 $602 $421 #
vertex $-1 $430 $614 #
vertex $-1 $285 $615 #
straight-curve $-1 13.516424945428277 19.31973467090236 7.6013376889520288 -1 0 0 I I #
coedge $-1 $437 $437 $-1 $616 reversed $288 $-1 #
edge $-1 $617 0 $617 6.2831853071796004 $289 $618 forward 7 unknown #
vertex $-1 $292 $619 #
ellipse-curve $-1 69.70246167347652 12.39747907419013 4.7168078588112499 0.52991927123019833 0 0.84804809178421925 0.84804809178421925 0 -0.52991927123019833 1 I I #
coedge $-1 $441 $441 $-1 $620 reversed $295 $-1 #
edge $-1 $621 0 $621 6.2831853071796004 $296 $622 forward 7 unknown #
vertex $-1 $299 $623 #
ellipse-curve $-1 69.70246167347652 16.550832432217469 4.7168078588112499 0.52991927123019833 0 0.84804809178421925 0.84804809178421925 0 -0.52991927123019833 1 I I #
face $-1 $-1 $315 $45 $-1 $624 reversed single #
loop $-1 $-1 $461 $300 #
plane-surface $-1 0 32.492731335710815 0 0 -1 0 0 0 -1 forward_v I I I I #
coedge $-1 $625 $459 $462 $626 forward $301 $-1 #
coedge $-1 $465 $303 $304 $453 reversed $189 $-1 #
coedge $-1 $459 $625 $303 $451 reversed $301 $-1 #
edge $-1 $466 -7.6013376889520332 $627 7.6013376889520332 $450 $628 forward 7 unknown #
coedge $-1 $305 $304 $625 $629 forward $121 $-1 #
edge $-1 $457 -74.318674275948368 $627 74.318674275948368 $449 $630 forward 7 unknown #
coedge $-1 $462 $461 $305 $455 reversed $446 $-1 #
edge $-1 $631 -74.318674275948368 $456 74.318674275948368 $454 $632 forward 7 unknown #
vertex $-1 $307 $633 #
vertex $-1 $468 $634 #
straight-curve $-1 74.318674275948368 0 -7.6013376889520332 0 -1 0 I I #
coedge $-1 $448 $450 $308 $460 reversed $301 $-1 #
edge $-1 $463 -32.492731335710815 $466 32.492731335710815 $459 $635 forward 7 unknown #
coedge $-1 $454 $309 $314 $469 forward $446 $-1 #
coedge $-1 $309 $454 $448 $626 reversed $446 $-1 #
vertex $-1 $310 $636 #
straight-curve $-1 0 32.492731335710815 7.6013376889520332 -1 0 0 I I #
coedge $-1 $311 $449 $313 $468 reversed $189 $-1 #
vertex $-1 $460 $637 #
straight-curve $-1 0 -32.492731335710815 7.6013376889520332 1 0 0 I I #
edge $-1 $316 -7.6013376889520332 $457 7.6013376889520332 $313 $638 forward 7 unknown #
edge $-1 $317 -7.6013376889520332 $456 7.6013376889520332 $314 $639 forward 7 unknown #
point $-1 74.318674275948368 -32.492731335710815 7.6013376889520332 #
point $-1 74.318674275948368 32.492731335710815 7.6013376889520332 #
face $-1 $-1 $488 $46 $-1 $640 reversed single #
loop $-1 $-1 $641 $319 #
plane-surface $-1 0 -38.411265971311437 -2.4323794766705733 0 1 0 0 0 1 forward_v I I I I #
coedge $-1 $642 $485 $487 $643 forward $320 $-1 #
coedge $-1 $322 $329 $644 $645 forward $197 $-1 #
coedge $-1 $646 $327 $322 $478 reversed $488 $-1 #
edge $-1 $647 -2.959267317800311 $331 2.959267317800311 $477 $648 forward 7 unknown #
coedge $-1 $324 $323 $641 $649 reversed $125 $-1 #
coedge $-1 $485 $642 $323 $481 forward $320 $-1 #
edge $-1 $650 -2.959267317800311 $483 2.959267317800311 $323 $651 forward 7 unknown #
edge $-1 $330 -2.959267317800311 $652 2.959267317800311 $324 $653 forward 7 unknown #
vertex $-1 $325 $654 #
straight-curve $-1 -74.318674275948368 -32.492731335710815 0 0 0 -1 I I #
coedge $-1 $475 $480 $326 $486 reversed $320 $-1 #
edge $-1 $489 -74.318674275948368 $483 74.318674275948368 $485 $655 forward 7 unknown #
coedge $-1 $327 $646 $475 $643 reversed $488 $-1 #
loop $-1 $-1 $327 $472 #
vertex $-1 $328 $656 #
straight-curve $-1 74.318674275948368 -32.492731335710815 0 0 0 1 I I #
point $-1 -74.318674275948368 -32.492731335710815 -0.64911451653558472 #
point $-1 74.318674275948368 -32.492731335710815 -0.64911451653558472 #
face $-1 $-1 $510 $47 $-1 $657 reversed single #
loop $-1 $-1 $506 $333 #
plane-surface $-1 -74.318674275948368 0 0 1 0 0 0 0 -1 forward_v I I I I #
coedge $-1 $513 $336 $337 $500 reversed $205 $-1 #
coedge $-1 $506 $658 $336 $498 forward $494 $-1 #
edge $-1 $659 -2.7493119728245512 $514 0.45235745007966877 $497 $660 forward 7 unknown #
coedge $-1 $338 $337 $658 $661 reversed $129 $-1 #
edge $-1 $503 -74.318674275948368 $659 74.318674275948368 $496 $662 forward 7 unknown #
coedge $-1 $509 $508 $338 $502 forward $510 $-1 #
edge $-1 $504 -74.318674275948368 $663 74.318674275948368 $501 $664 forward 7 unknown #
vertex $-1 $340 $665 #
vertex $-1 $502 $666 #
straight-curve $-1 74.318674275948368 14.427483428687452 -3.8977892341969924 0 1 0 I I #
coedge $-1 $667 $497 $341 $507 forward $494 $-1 #
edge $-1 $514 10.789718950351538 $511 18.065247907023362 $506 $668 forward 7 unknown #
coedge $-1 $501 $342 $347 $517 forward $510 $-1 #
coedge $-1 $342 $501 $667 $669 reversed $510 $-1 #
loop $-1 $-1 $342 $493 #
vertex $-1 $669 $670 #
straight-curve $-1 0 32.492731335710815 -0.69611981129277245 1 0 0 I I #
coedge $-1 $344 $496 $346 $516 reversed $205 $-1 #
vertex $-1 $507 $671 #
straight-curve $-1 0 25.217202379038991 -0.69611981129277245 1 0 0 I I #
edge $-1 $349 -0.45235745007966877 $503 2.7493119728245512 $346 $672 forward 7 unknown #
edge $-1 $348 0.69611981129277245 $504 3.8977892341969924 $347 $673 forward 7 unknown #
point $-1 74.318674275948368 32.492731335710815 -0.69611981129277245 #
point $-1 74.318674275948368 25.217202379038991 -0.69611981129277245 #
loop $-1 $-1 $359 $351 #
plane-surface $-1 0 0 7.6013376889520332 0 0 1 1 0 0 forward_v I I I I #
coedge $-1 $523 $354 $356 $527 reversed $213 $-1 #
coedge $-1 $354 $522 $674 $675 reversed $213 $-1 #
coedge $-1 $362 $357 $354 $525 forward $352 $-1 #
edge $-1 $528 -62.109670889315751 $676 -56.340611229034167 $524 $677 forward 7 unknown #
coedge $-1 $356 $355 $531 $678 reversed $133 $-1 #
edge $-1 $679 -10.886676468452993 $528 3.3516233665497261e-014 $522 $680 forward 7 unknown #
vertex $-1 $358 $681 #
straight-curve $-1 -74.318674275948368 -5.7107718931853952 1.8322780286704532 0 -1 0 I I #
coedge $-1 $674 $359 $362 $535 forward $520 $-1 #
coedge $-1 $359 $674 $526 $678 forward $520 $-1 #
vertex $-1 $360 $682 #
straight-curve $-1 -76.542234849079222 -6.5759648686722336 7.6013376889520359 -1 0 0 I I #
straight-curve $-1 -74.318674275948339 -6.5759648686722336 1.8322780286704727 0.84804809178421925 0 0.52991927123019833 I I #
edge $-1 $363 6.5759648686722336 $676 16.267122704069347 $362 $683 forward 7 unknown #
point $-1 -74.318674275948368 -6.5759648686722336 7.6013376889520332 #
point $-1 -74.318674275948368 -6.5759648686722336 1.832278028670455 #
edge $-1 $684 1 $684 0 $366 $-1 forward 7 unknown #
vertex $-1 $367 $685 #
ellipse-curve $-1 -67.976209257009273 -13.498220465384456 1.9542265616177674 -0.52991927123019833 0 0.84804809178421925 0.84804809178421925 0 0.52991927123019833 1 I I #
point $-1 -68.854413581692313 -13.498220465384456 5.2467271300414637 #
edge $-1 $686 1 $686 0 $370 $-1 forward 7 unknown #
vertex $-1 $371 $687 #
ellipse-curve $-1 -67.976209257009273 -9.3448671073571212 1.9542265616177674 -0.52991927123019833 0 0.84804809178421925 0.84804809178421925 0 0.52991927123019833 1 I I #
point $-1 -68.854413581692313 -9.3448671073571212 5.2467271300414637 #
plane-surface $-1 -74.318674275948368 0 0 1 0 0 0 0 -1 forward_v I I I I #
coedge $-1 $557 $556 $549 $688 forward $375 $-1 #
coedge $-1 $549 $377 $379 $553 reversed $235 $-1 #
coedge $-1 $377 $548 $547 $688 reversed $235 $-1 #
coedge $-1 $385 $380 $377 $551 forward $386 $-1 #
edge $-1 $554 -62.109670889315751 $689 -56.340611229034167 $550 $690 forward 7 unknown #
coedge $-1 $379 $378 $557 $691 reversed $147 $-1 #
edge $-1 $692 -10.886676468452993 $554 3.3516233665497261e-014 $548 $693 forward 7 unknown #
vertex $-1 $381 $694 #
straight-curve $-1 -74.318674275948368 7.2370778766019015 1.8322780286704532 0 -1 0 I I #
coedge $-1 $547 $382 $385 $561 forward $375 $-1 #
coedge $-1 $382 $547 $552 $691 forward $375 $-1 #
vertex $-1 $383 $695 #
straight-curve $-1 -76.542234849079222 19.31973467090236 7.6013376889520359 -1 0 0 I I #
straight-curve $-1 -74.318674275948339 19.31973467090236 1.8322780286704727 0.84804809178421925 0 0.52991927123019833 I I #
edge $-1 $387 -19.31973467090236 $689 -9.6285768355052461 $385 $696 forward 7 unknown #
point $-1 -74.318674275948368 19.31973467090236 7.6013376889520332 #
point $-1 -74.318674275948368 19.31973467090236 1.832278028670455 #
edge $-1 $697 1 $697 0 $390 $-1 forward 7 unknown #
vertex $-1 $391 $698 #
ellipse-curve $-1 -67.976209257009273 12.39747907419013 1.9542265616177674 -0.52991927123019833 0 0.84804809178421925 0.84804809178421925 0 0.52991927123019833 1 I I #
point $-1 -68.854413581692313 12.39747907419013 5.2467271300414637 #
edge $-1 $699 1 $699 0 $394 $-1 forward 7 unknown #
vertex $-1 $395 $700 #
ellipse-curve $-1 -67.976209257009273 16.550832432217469 1.9542265616177674 -0.52991927123019833 0 0.84804809178421925 0.84804809178421925 0 0.52991927123019833 1 I I #
point $-1 -68.854413581692313 16.550832432217469 5.2467271300414637 #
loop $-1 $-1 $406 $398 #
plane-surface $-1 74.318674275948368 0 0 -1 0 0 0 0 1 forward_v I I I I #
coedge $-1 $575 $401 $403 $579 reversed $257 $-1 #
coedge $-1 $401 $574 $701 $702 reversed $257 $-1 #
coedge $-1 $409 $404 $401 $577 forward $399 $-1 #
edge $-1 $580 51.569824125576382 $703 60.802249330520091 $576 $704 forward 7 unknown #
coedge $-1 $403 $402 $583 $705 reversed $161 $-1 #
edge $-1 $706 -148.63734855189674 $580 -137.75067208344376 $574 $707 forward 7 unknown #
vertex $-1 $405 $708 #
straight-curve $-1 65.086249071004659 -5.7107718931853952 7.6013376889520288 0 -1 0 I I #
coedge $-1 $701 $406 $409 $587 reversed $572 $-1 #
coedge $-1 $406 $701 $578 $705 forward $572 $-1 #
vertex $-1 $407 $709 #
straight-curve $-1 74.318674275948368 -6.5759648686722336 103.32484662909125 0 0 1 I I #
straight-curve $-1 -51.73294553135355 -6.5759648686722336 80.598073450880577 0.84804809178421925 0 -0.52991927123019833 I I #
edge $-1 $703 -16.267122704069347 $410 -6.5759648686722336 $582 $710 forward 7 unknown #
point $-1 74.318674275948368 -6.5759648686722336 7.6013376889520332 #
point $-1 65.086249071004659 -6.5759648686722336 7.6013376889520288 #
edge $-1 $711 1 $711 0 $413 $-1 forward 7 unknown #
vertex $-1 $414 $712 #
ellipse-curve $-1 67.976209257009273 -13.498220465384456 1.9542265616177674 0.52991927123019833 0 0.84804809178421925 0.84804809178421925 0 -0.52991927123019833 1 I I #
point $-1 70.550509765260756 -13.498220465384456 4.1868885875810662 #
edge $-1 $713 1 $713 0 $417 $-1 forward 7 unknown #
vertex $-1 $418 $714 #
ellipse-curve $-1 67.976209257009273 -9.3448671073571212 1.9542265616177674 0.52991927123019833 0 0.84804809178421925 0.84804809178421925 0 -0.52991927123019833 1 I I #
point $-1 70.550509765260756 -9.3448671073571212 4.1868885875810662 #
plane-surface $-1 0 0 7.6013376889520332 0 0 1 1 0 0 forward_v I I I I #
coedge $-1 $609 $608 $601 $715 forward $422 $-1 #
coedge $-1 $601 $424 $426 $605 reversed $279 $-1 #
coedge $-1 $424 $600 $599 $715 reversed $279 $-1 #
coedge $-1 $432 $427 $424 $603 forward $433 $-1 #
edge $-1 $606 51.569824125576382 $716 60.802249330520091 $602 $717 forward 7 unknown #
coedge $-1 $426 $425 $609 $718 reversed $175 $-1 #
edge $-1 $719 -148.63734855189674 $606 -137.75067208344376 $600 $720 forward 7 unknown #
vertex $-1 $428 $721 #
straight-curve $-1 65.086249071004659 7.2370778766019015 7.6013376889520288 0 -1 0 I I #
coedge $-1 $599 $429 $432 $613 reversed $422 $-1 #
coedge $-1 $429 $599 $604 $718 forward $422 $-1 #
vertex $-1 $430 $722 #
straight-curve $-1 74.318674275948368 19.31973467090236 103.32484662909125 0 0 1 I I #
straight-curve $-1 -51.73294553135355 19.31973467090236 80.598073450880577 0.84804809178421925 0 -0.52991927123019833 I I #
edge $-1 $716 9.6285768355052461 $434 19.31973467090236 $608 $723 forward 7 unknown #
point $-1 74.318674275948368 19.31973467090236 7.6013376889520332 #
point $-1 65.086249071004659 19.31973467090236 7.6013376889520288 #
edge $-1 $724 1 $724 0 $437 $-1 forward 7 unknown #
vertex $-1 $438 $725 #
ellipse-curve $-1 67.976209257009273 12.39747907419013 1.9542265616177674 0.52991927123019833 0 0.84804809178421925 0.84804809178421925 0 -0.52991927123019833 1 I I #
point $-1 70.550509765260756 12.39747907419013 4.1868885875810662 #
edge $-1 $726 1 $726 0 $441 $-1 forward 7 unknown #
vertex $-1 $442 $727 #
ellipse-curve $-1 67.976209257009273 16.550832432217469 1.9542265616177674 0.52991927123019833 0 0.84804809178421925 0.84804809178421925 0 -0.52991927123019833 1 I I #
point $-1 70.550509765260756 16.550832432217469 4.1868885875810662 #
plane-surface $-1 74.318674275948368 0 0 -1 0 0 0 0 1 forward_v I I I I #
coedge $-1 $450 $448 $452 $629 reversed $301 $-1 #
edge $-1 $463 -7.6013376889520332 $631 7.6013376889520332 $462 $728 forward 7 unknown #
vertex $-1 $629 $729 #
straight-curve $-1 -74.318674275948368 -32.492731335710815 0 0 0 -1 I I #
edge $-1 $627 -32.492731335710815 $631 32.492731335710815 $625 $730 forward 7 unknown #
straight-curve $-1 0 -32.492731335710815 -7.6013376889520332 -1 0 0 I I #
vertex $-1 $455 $731 #
straight-curve $-1 0 32.492731335710815 -7.6013376889520332 1 0 0 I I #
point $-1 74.318674275948368 32.492731335710815 -7.6013376889520332 #
point $-1 74.318674275948368 -32.492731335710815 -7.6013376889520332 #
straight-curve $-1 -74.318674275948368 0 7.6013376889520332 0 -1 0 I I #
point $-1 -74.318674275948368 32.492731335710815 7.6013376889520332 #
point $-1 -74.318674275948368 -32.492731335710815 7.6013376889520332 #
straight-curve $-1 74.318674275948368 -32.492731335710815 0 0 0 -1 I I #
straight-curve $-1 74.318674275948368 32.492731335710815 0 0 0 -1 I I #
plane-surface $-1 74.318674275948368 0 0 -1 0 0 0 0 1 forward_v I I I I #
coedge $-1 $732 $644 $479 $649 forward $473 $-1 #
coedge $-1 $480 $475 $732 $733 forward $320 $-1 #
edge $-1 $489 -2.959267317800311 $734 2.959267317800311 $487 $735 forward 7 unknown #
coedge $-1 $641 $736 $476 $645 reversed $473 $-1 #
edge $-1 $652 -74.318674275948368 $647 74.318674275948368 $644 $737 forward 7 unknown #
coedge $-1 $487 $477 $736 $738 forward $488 $-1 #
vertex $-1 $478 $739 #
straight-curve $-1 74.318674275948368 -35.451998653511126 -0.64911451653558472 0 1 0 I I #
edge $-1 $652 -1.7832649601349886 $650 1.7832649601349884 $479 $740 forward 7 unknown #
vertex $-1 $481 $741 #
straight-curve $-1 -74.318674275948368 -35.451998653511126 -4.2156444368055617 0 1 0 I I #
vertex $-1 $482 $742 #
straight-curve $-1 -74.318674275948368 -35.451998653511126 -0.64911451653558472 0 -1 0 I I #
point $-1 -74.318674275948368 -32.492731335710815 -4.2156444368055617 #
straight-curve $-1 0 -32.492731335710815 -4.2156444368055617 -1 0 0 I I #
point $-1 74.318674275948368 -32.492731335710815 -4.2156444368055617 #
plane-surface $-1 0 32.492731335710815 0 0 -1 0 0 0 -1 forward_v I I I I #
coedge $-1 $497 $667 $499 $661 forward $494 $-1 #
vertex $-1 $661 $743 #
straight-curve $-1 -74.318674275948368 25.217202379038991 -1.1484772613724412 0 0 1 I I #
edge $-1 $663 -18.065247907023362 $659 -10.789718950351538 $658 $744 forward 7 unknown #
straight-curve $-1 0 25.217202379038991 -3.8977892341969924 -1 0 0 I I #
vertex $-1 $502 $745 #
straight-curve $-1 0 32.492731335710815 -3.8977892341969924 -1 0 0 I I #
point $-1 74.318674275948368 25.217202379038991 -3.8977892341969924 #
point $-1 74.318674275948368 32.492731335710815 -3.8977892341969924 #
coedge $-1 $658 $506 $509 $669 forward $494 $-1 #
straight-curve $-1 -74.318674275948368 14.427483428687452 -0.69611981129277245 0 1 0 I I #
edge $-1 $511 0.69611981129277245 $663 3.8977892341969924 $509 $746 forward 7 unknown #
point $-1 -74.318674275948368 32.492731335710815 -0.69611981129277245 #
point $-1 -74.318674275948368 25.217202379038991 -0.69611981129277245 #
straight-curve $-1 74.318674275948368 25.217202379038991 -1.1484772613724412 0 0 -1 I I #
straight-curve $-1 74.318674275948368 32.492731335710815 0 0 0 -1 I I #
coedge $-1 $531 $530 $523 $675 forward $520 $-1 #
edge $-1 $676 2.2235605731308539 $679 11.455985778074606 $674 $747 forward 7 unknown #
vertex $-1 $675 $748 #
straight-curve $-1 -74.318674275948368 -16.267122704069347 63.941948917986203 0 0 1 I I #
edge $-1 $679 -10.556350810883952 $532 -0.86519297548683838 $531 $749 forward 7 unknown #
vertex $-1 $678 $750 #
straight-curve $-1 -74.318674275948339 -16.267122704069347 1.8322780286704727 -0.84804809178421925 0 -0.52991927123019833 I I #
point $-1 -74.318674275948368 -16.267122704069347 1.832278028670455 #
point $-1 -65.086249071004616 -6.5759648686722336 7.6013376889520332 #
straight-curve $-1 -74.318674275948368 0 7.6013376889520332 0 -1 0 I I #
vertex $-1 $538 $751 #
point $-1 -67.128161165225052 -13.498220465384456 2.4841458328479655 #
vertex $-1 $542 $752 #
point $-1 -67.128161165225052 -9.3448671073571212 2.4841458328479655 #
edge $-1 $689 2.2235605731308539 $692 11.455985778074606 $547 $753 forward 7 unknown #
vertex $-1 $688 $754 #
straight-curve $-1 -74.318674275948368 9.6285768355052461 63.941948917986203 0 0 1 I I #
edge $-1 $692 2.3914989589033446 $558 12.082656794300458 $557 $755 forward 7 unknown #
vertex $-1 $691 $756 #
straight-curve $-1 -74.318674275948339 9.6285768355052461 1.8322780286704727 -0.84804809178421925 0 -0.52991927123019833 I I #
point $-1 -74.318674275948368 9.6285768355052461 1.832278028670455 #
point $-1 -65.086249071004616 19.31973467090236 7.6013376889520332 #
straight-curve $-1 -74.318674275948368 0 7.6013376889520332 0 -1 0 I I #
vertex $-1 $564 $757 #
point $-1 -67.128161165225052 12.39747907419013 2.4841458328479655 #
vertex $-1 $568 $758 #
point $-1 -67.128161165225052 16.550832432217469 2.4841458328479655 #
coedge $-1 $583 $582 $575 $702 forward $572 $-1 #
edge $-1 $703 95.723508940139226 $706 101.49256860042077 $701 $759 forward 7 unknown #
vertex $-1 $587 $760 #
straight-curve $-1 13.516424945428277 -16.267122704069347 7.6013376889520288 1 0 0 I I #
edge $-1 $706 -10.556350810883952 $584 -0.86519297548683838 $583 $761 forward 7 unknown #
vertex $-1 $705 $762 #
straight-curve $-1 -51.73294553135355 -16.267122704069347 80.598073450880577 -0.84804809178421925 0 0.52991927123019833 I I #
point $-1 65.086249071004659 -16.267122704069347 7.6013376889520288 #
point $-1 74.318674275948354 -6.5759648686722336 1.8322780286704869 #
straight-curve $-1 74.318674275948368 0 7.6013376889520332 0 1 0 I I #
vertex $-1 $590 $763 #
point $-1 68.824257348793495 -13.498220465384456 1.4243072903875691 #
vertex $-1 $594 $764 #
point $-1 68.824257348793495 -9.3448671073571212 1.4243072903875691 #
edge $-1 $716 95.723508940139226 $719 101.49256860042077 $599 $765 forward 7 unknown #
vertex $-1 $613 $766 #
straight-curve $-1 13.516424945428277 9.6285768355052461 7.6013376889520288 1 0 0 I I #
edge $-1 $719 2.3914989589033446 $610 12.082656794300458 $609 $767 forward 7 unknown #
vertex $-1 $718 $768 #
straight-curve $-1 -51.73294553135355 9.6285768355052461 80.598073450880577 -0.84804809178421925 0 0.52991927123019833 I I #
point $-1 65.086249071004659 9.6285768355052461 7.6013376889520288 #
point $-1 74.318674275948354 19.31973467090236 1.8322780286704869 #
straight-curve $-1 74.318674275948368 0 7.6013376889520332 0 1 0 I I #
vertex $-1 $616 $769 #
point $-1 68.824257348793495 12.39747907419013 1.4243072903875691 #
vertex $-1 $620 $770 #
point $-1 68.824257348793495 16.550832432217469 1.4243072903875691 #
straight-curve $-1 -74.318674275948368 32.492731335710815 0 0 0 -1 I I #
point $-1 -74.318674275948368 -32.492731335710815 -7.6013376889520332 #
straight-curve $-1 -74.318674275948368 0 -7.6013376889520332 0 1 0 I I #
point $-1 -74.318674275948368 32.492731335710815 -7.6013376889520332 #
coedge $-1 $736 $641 $642 $733 reversed $473 $-1 #
edge $-1 $734 -74.318674275948368 $650 74.318674275948368 $732 $771 forward 7 unknown #
vertex $-1 $738 $772 #
straight-curve $-1 74.318674275948368 -35.451998653511126 -4.2156444368055617 0 -1 0 I I #
coedge $-1 $644 $732 $646 $738 reversed $473 $-1 #
straight-curve $-1 0 -38.411265971311437 -0.64911451653558472 1 0 0 I I #
edge $-1 $647 -1.7832649601349886 $734 1.7832649601349884 $646 $773 forward 7 unknown #
point $-1 74.318674275948368 -38.411265971311437 -0.64911451653558472 #
straight-curve $-1 -74.318674275948368 -38.411265971311437 -2.4323794766705733 0 0 -1 I I #
point $-1 -74.318674275948368 -38.411265971311437 -4.2156444368055617 #
point $-1 -74.318674275948368 -38.411265971311437 -0.64911451653558472 #
point $-1 -74.318674275948368 25.217202379038991 -3.8977892341969924 #
straight-curve $-1 -74.318674275948368 14.427483428687452 -3.8977892341969924 0 -1 0 I I #
point $-1 -74.318674275948368 32.492731335710815 -3.8977892341969924 #
straight-curve $-1 -74.318674275948368 32.492731335710815 0 0 0 -1 I I #
straight-curve $-1 -76.542234849079222 -16.267122704069347 7.6013376889520359 1 0 0 I I #
point $-1 -74.318674275948368 -16.267122704069347 7.6013376889520332 #
straight-curve $-1 -65.086249071004616 -5.7107718931853952 7.6013376889520305 0 1 0 I I #
point $-1 -65.086249071004616 -16.267122704069347 7.6013376889520332 #
point $-1 -67.446289985779075 -13.498220465384456 1.1061784698335482 #
point $-1 -67.446289985779075 -9.3448671073571212 1.1061784698335482 #
straight-curve $-1 -76.542234849079222 9.6285768355052461 7.6013376889520359 1 0 0 I I #
point $-1 -74.318674275948368 9.6285768355052461 7.6013376889520332 #
straight-curve $-1 -65.086249071004616 7.2370778766019015 7.6013376889520305 0 1 0 I I #
point $-1 -65.086249071004616 9.6285768355052461 7.6013376889520332 #
point $-1 -67.446289985779075 12.39747907419013 1.1061784698335482 #
point $-1 -67.446289985779075 16.550832432217469 1.1061784698335482 #
straight-curve $-1 74.318674275948368 -16.267122704069347 103.32484662909125 0 0 -1 I I #
point $-1 74.318674275948368 -16.267122704069347 7.6013376889520332 #
straight-curve $-1 74.318674275948368 -5.7107718931853952 1.8322780286704656 0 1 0 I I #
point $-1 74.318674275948354 -16.267122704069347 1.8322780286704869 #
point $-1 67.446289985779075 -13.498220465384456 1.1061784698335482 #
point $-1 67.446289985779075 -9.3448671073571212 1.1061784698335482 #
straight-curve $-1 74.318674275948368 9.6285768355052461 103.32484662909125 0 0 -1 I I #
point $-1 74.318674275948368 9.6285768355052461 7.6013376889520332 #
straight-curve $-1 74.318674275948368 7.2370778766019015 1.8322780286704656 0 1 0 I I #
point $-1 74.318674275948354 9.6285768355052461 1.8322780286704869 #
point $-1 67.446289985779075 12.39747907419013 1.1061784698335482 #
point $-1 67.446289985779075 16.550832432217469 1.1061784698335482 #
straight-curve $-1 0 -38.411265971311437 -4.2156444368055617 -1 0 0 I I #
point $-1 74.318674275948368 -38.411265971311437 -4.2156444368055617 #
straight-curve $-1 74.318674275948368 -38.411265971311437 -2.4323794766705733 0 0 -1 I I #
End-of-ACIS-data 