500 0 13 0           
7 Unknown 11 ACIS 5.0 NT 24 Thu Mar 25 19:35:22 1999 
-1 9.9999999999999995e-007 1e-010 
body $-1 $13 $-1 $14 #
body $-1 $15 $-1 $16 #
body $-1 $17 $-1 $18 #
body $-1 $19 $-1 $20 #
body $-1 $21 $-1 $22 #
body $-1 $23 $-1 $24 #
body $-1 $25 $-1 $26 #
body $-1 $27 $-1 $28 #
body $-1 $29 $-1 $30 #
body $-1 $31 $-1 $32 #
body $-1 $33 $-1 $34 #
body $-1 $35 $-1 $36 #
body $-1 $37 $-1 $38 #
lump $-1 $-1 $39 $0 #
transform $-1 1 0 0 0 1 0 0 0 1 54.534134952848902 37.940226674783162 8.3397404903651005 1 rotate no_reflect no_shear #
lump $-1 $-1 $40 $1 #
transform $-1 1 0 0 0 1 0 0 0 1 54.534134952848902 37.940226674783162 8.3397404903651005 1 rotate no_reflect no_shear #
lump $-1 $-1 $41 $2 #
transform $-1 1 0 0 0 1 0 0 0 1 54.534134952848902 37.940226674783162 8.3397404903651005 1 rotate no_reflect no_shear #
lump $-1 $-1 $42 $3 #
transform $-1 1 0 0 0 1 0 0 0 1 54.534134952848902 37.940226674783162 8.3397404903651005 1 rotate no_reflect no_shear #
lump $-1 $-1 $43 $4 #
transform $-1 1 0 0 0 1 0 0 0 1 54.534134952848902 37.940226674783162 8.3397404903651005 1 rotate no_reflect no_shear #
lump $-1 $-1 $44 $5 #
transform $-1 1 0 0 0 1 0 0 0 1 54.534134952848902 37.940226674783162 8.3397404903651005 1 rotate no_reflect no_shear #
lump $-1 $-1 $45 $6 #
transform $-1 1 0 0 0 1 0 0 0 1 54.534134952848902 37.940226674783162 8.3397404903651005 1 rotate no_reflect no_shear #
lump $-1 $-1 $46 $7 #
transform $-1 1 0 0 0 1 0 0 0 1 54.534134952848902 37.940226674783162 8.3397404903651005 1 rotate no_reflect no_shear #
lump $-1 $-1 $47 $8 #
transform $-1 1 0 0 0 1 0 0 0 1 54.534134952848902 37.940226674783162 8.3397404903651005 1 rotate no_reflect no_shear #
lump $-1 $-1 $48 $9 #
transform $-1 1 0 0 0 1 0 0 0 1 54.534134952848902 37.940226674783162 8.3397404903651005 1 rotate no_reflect no_shear #
lump $-1 $-1 $49 $10 #
transform $-1 1 0 0 0 1 0 0 0 1 54.534134952848902 37.940226674783162 8.3397404903651005 1 rotate no_reflect no_shear #
lump $-1 $-1 $50 $11 #
transform $-1 1 0 0 0 1 0 0 0 1 54.534134952848902 37.940226674783162 8.3397404903651005 1 rotate no_reflect no_shear #
lump $-1 $-1 $51 $12 #
transform $-1 1 0 0 0 1 0 0 0 1 54.534134952848902 37.940226674783162 8.3397404903651005 1 rotate no_reflect no_shear #
shell $-1 $-1 $-1 $52 $-1 $13 #
shell $-1 $-1 $-1 $53 $-1 $15 #
shell $-1 $-1 $-1 $54 $-1 $17 #
shell $-1 $-1 $-1 $55 $-1 $19 #
shell $-1 $-1 $-1 $56 $-1 $21 #
shell $-1 $-1 $-1 $57 $-1 $23 #
shell $-1 $-1 $-1 $58 $-1 $25 #
shell $-1 $-1 $-1 $59 $-1 $27 #
shell $-1 $-1 $-1 $60 $-1 $29 #
shell $-1 $-1 $-1 $61 $-1 $31 #
shell $-1 $-1 $-1 $62 $-1 $33 #
shell $-1 $-1 $-1 $63 $-1 $35 #
shell $-1 $-1 $-1 $64 $-1 $37 #
face $-1 $65 $66 $39 $-1 $67 reversed single #
face $-1 $68 $69 $40 $-1 $70 forward single #
face $-1 $71 $72 $41 $-1 $73 reversed single #
face $-1 $74 $75 $42 $-1 $76 forward single #
face $-1 $77 $78 $43 $-1 $79 reversed single #
face $-1 $80 $81 $44 $-1 $82 forward single #
face $-1 $83 $84 $45 $-1 $85 reversed single #
face $-1 $86 $87 $46 $-1 $88 forward single #
face $-1 $89 $90 $47 $-1 $91 reversed single #
face $-1 $92 $93 $48 $-1 $94 forward single #
face $-1 $95 $96 $49 $-1 $97 reversed single #
face $-1 $98 $99 $50 $-1 $100 forward single #
face $-1 $101 $102 $51 $-1 $103 forward single #
face $-1 $104 $105 $39 $-1 $106 forward single #
loop $-1 $-1 $107 $52 #
plane-surface $-1 -54.534134952848902 0 0 1 0 0 0 0 -1 forward_v I I I I #
face $-1 $108 $109 $40 $-1 $110 reversed single #
loop $-1 $-1 $111 $53 #
plane-surface $-1 -54.534134952848902 0 0 1 0 0 0 0 -1 forward_v I I I I #
face $-1 $112 $113 $41 $-1 $114 reversed single #
loop $-1 $-1 $115 $54 #
plane-surface $-1 -29.463042323447759 -121.49136966045336 72.87985965116755 -1 0 0 0 -0.7660444514056185 0.64278759981090561 forward_v I I I I #
face $-1 $116 $117 $42 $-1 $118 forward single #
loop $-1 $119 $120 $55 #
cone-surface $-1 -38.217927492220248 -33.555324349015891 3.8366094509497404 0 0.7660444514056185 -0.64278759981090561 1.5 0 0 1 I I 0 1 1.5 forward I I I I #
face $-1 $121 $122 $43 $-1 $123 reversed single #
loop $-1 $-1 $124 $56 #
plane-surface $-1 -4.0863054199873456 -121.49136966045336 72.87985965116755 -1 0 0 0 -0.7660444514056185 0.64278759981090561 forward_v I I I I #
face $-1 $125 $126 $44 $-1 $127 forward single #
loop $-1 $128 $129 $57 #
cone-surface $-1 -12.841190588759837 -33.555324349015891 3.8366094509497404 0 0.7660444514056185 -0.64278759981090561 1.5 0 0 1 I I 0 1 1.5 forward I I I I #
face $-1 $130 $131 $45 $-1 $132 reversed single #
loop $-1 $-1 $133 $58 #
plane-surface $-1 21.290431483473057 -121.49136966045336 72.87985965116755 -1 0 0 0 -0.7660444514056185 0.64278759981090561 forward_v I I I I #
face $-1 $134 $135 $46 $-1 $136 forward single #
loop $-1 $137 $138 $59 #
cone-surface $-1 12.535546314700568 -33.555324349015891 3.8366094509497404 0 0.7660444514056185 -0.64278759981090561 1.5 0 0 1 I I 0 1 1.5 forward I I I I #
face $-1 $139 $140 $47 $-1 $141 reversed single #
loop $-1 $-1 $142 $60 #
plane-surface $-1 46.667168386933469 -121.49136966045336 72.87985965116755 -1 0 0 0 -0.7660444514056185 0.64278759981090561 forward_v I I I I #
face $-1 $143 $144 $48 $-1 $145 forward single #
loop $-1 $146 $147 $61 #
cone-surface $-1 37.912283218160979 -33.555324349015891 3.8366094509497404 0 0.7660444514056185 -0.64278759981090561 1.5 0 0 1 I I 0 1 1.5 forward I I I I #
face $-1 $148 $149 $49 $-1 $150 reversed single #
loop $-1 $-1 $151 $62 #
plane-surface $-1 -31.573601436035723 52.227746224649835 136.51398034604546 1 0 0 0 -0.6560590369687036 -0.75470957328743171 forward_v I I I I #
face $-1 $152 $153 $50 $-1 $154 forward single #
loop $-1 $155 $156 $63 #
cone-surface $-1 -23.516117664448387 35.355930910125174 6.0010433370651848 0 -0.6560590369687036 -0.75470957328743171 0.5 0 0 1 I I 0 1 0.5 forward I I I I #
face $-1 $157 $158 $51 $-1 $159 forward single #
loop $-1 $160 $161 $64 #
cone-surface $-1 -11.429892007067387 35.355930910125174 6.0010433370651848 0 -0.6560590369687036 -0.75470957328743171 0.5 0 0 1 I I 0 1 0.5 forward I I I I #
face $-1 $162 $163 $39 $-1 $164 reversed single #
loop $-1 $-1 $165 $65 #
plane-surface $-1 0 0 8.3397404903651005 0 0 1 1 0 0 forward_v I I I I #
coedge $-1 $166 $167 $168 $169 reversed $66 $-1 #
face $-1 $170 $171 $40 $-1 $172 reversed single #
loop $-1 $-1 $173 $68 #
plane-surface $-1 0 0 -8.3397404903651005 0 0 1 1 0 0 forward_v I I I I #
coedge $-1 $174 $175 $176 $177 forward $69 $-1 #
face $-1 $178 $179 $41 $-1 $180 reversed single #
loop $-1 $-1 $181 $71 #
plane-surface $-1 -38.217927492220248 -37.940226674783148 2.7721282229560273 0 -0.7660444514056185 0.64278759981090561 1 0 0 forward_v I I I I #
coedge $-1 $182 $183 $184 $185 reversed $72 $-1 #
face $-1 $-1 $186 $42 $-1 $187 forward single #
loop $-1 $188 $189 $74 #
cone-surface $-1 -38.217927492220248 -30.931779323598512 1.63519384538073 0 0.7660444514056185 -0.64278759981090561 0.75 0 0 1 I I -0.70710678118654757 0.70710678118654757 0.75 forward I I I I #
loop $-1 $-1 $190 $55 #
coedge $-1 $120 $120 $191 $192 reversed $75 $-1 #
face $-1 $193 $194 $43 $-1 $195 reversed single #
loop $-1 $-1 $196 $77 #
plane-surface $-1 -12.841190588759837 -37.940226674783148 2.7721282229560273 0 -0.7660444514056185 0.64278759981090561 1 0 0 forward_v I I I I #
coedge $-1 $197 $198 $199 $200 reversed $78 $-1 #
face $-1 $-1 $201 $44 $-1 $202 forward single #
loop $-1 $203 $204 $80 #
cone-surface $-1 -12.841190588759837 -30.931779323598512 1.63519384538073 0 0.7660444514056185 -0.64278759981090561 0.75 0 0 1 I I -0.70710678118654757 0.70710678118654757 0.75 forward I I I I #
loop $-1 $-1 $205 $57 #
coedge $-1 $129 $129 $206 $207 reversed $81 $-1 #
face $-1 $208 $209 $45 $-1 $210 reversed single #
loop $-1 $-1 $211 $83 #
plane-surface $-1 12.535546314700568 -37.940226674783148 2.7721282229560273 0 -0.7660444514056185 0.64278759981090561 1 0 0 forward_v I I I I #
coedge $-1 $212 $213 $214 $215 reversed $84 $-1 #
face $-1 $-1 $216 $46 $-1 $217 forward single #
loop $-1 $218 $219 $86 #
cone-surface $-1 12.535546314700568 -30.931779323598512 1.63519384538073 0 0.7660444514056185 -0.64278759981090561 0.75 0 0 1 I I -0.70710678118654757 0.70710678118654757 0.75 forward I I I I #
loop $-1 $-1 $220 $59 #
coedge $-1 $138 $138 $221 $222 reversed $87 $-1 #
face $-1 $223 $224 $47 $-1 $225 reversed single #
loop $-1 $-1 $226 $89 #
plane-surface $-1 37.912283218160979 -37.940226674783148 2.7721282229560273 0 -0.7660444514056185 0.64278759981090561 1 0 0 forward_v I I I I #
coedge $-1 $227 $228 $229 $230 reversed $90 $-1 #
face $-1 $-1 $231 $48 $-1 $232 forward single #
loop $-1 $233 $234 $92 #
cone-surface $-1 37.912283218160979 -30.931779323598512 1.63519384538073 0 0.7660444514056185 -0.64278759981090561 0.75 0 0 1 I I -0.70710678118654757 0.70710678118654757 0.75 forward I I I I #
loop $-1 $-1 $235 $61 #
coedge $-1 $147 $147 $236 $237 reversed $93 $-1 #
face $-1 $238 $239 $49 $-1 $240 reversed single #
loop $-1 $-1 $241 $95 #
plane-surface $-1 -17.473004835757891 -19.3274778935249 54.199112906317836 0 0.6560590369687036 0.75470957328743171 1 0 0 forward_v I I I I #
coedge $-1 $242 $243 $244 $245 reversed $96 $-1 #
face $-1 $-1 $246 $50 $-1 $247 forward single #
loop $-1 $248 $249 $98 #
cone-surface $-1 -23.516117664448387 34.863886632398646 5.4350111570996109 0 -0.6560590369687036 -0.75470957328743171 0.25 0 0 1 I I -0.70710678118654746 0.70710678118654746 0.25 forward I I I I #
loop $-1 $-1 $250 $63 #
coedge $-1 $156 $156 $251 $252 reversed $99 $-1 #
face $-1 $-1 $253 $51 $-1 $254 forward single #
loop $-1 $255 $256 $101 #
cone-surface $-1 -11.429892007067387 34.863886632398646 5.4350111570996109 0 -0.6560590369687036 -0.75470957328743171 0.25 0 0 1 I I -0.70710678118654746 0.70710678118654746 0.25 forward I I I I #
loop $-1 $-1 $257 $64 #
coedge $-1 $161 $161 $258 $259 reversed $102 $-1 #
face $-1 $260 $261 $39 $-1 $262 reversed single #
loop $-1 $-1 $263 $104 #
plane-surface $-1 0 0 -8.3397404903651005 0 0 1 1 0 0 forward_v I I I I #
coedge $-1 $264 $265 $266 $267 forward $105 $-1 #
coedge $-1 $268 $107 $269 $270 reversed $66 $-1 #
coedge $-1 $107 $268 $271 $272 forward $66 $-1 #
coedge $-1 $273 $274 $107 $169 forward $163 $-1 #
edge $-1 $275 -37.940226674783162 $276 37.940226674783162 $107 $277 forward 7 unknown #
face $-1 $278 $279 $40 $-1 $280 reversed single #
loop $-1 $-1 $281 $108 #
plane-surface $-1 -58.314796098776981 -33.755850995903231 0 0 1 0 0 0 1 forward_v I I I I #
coedge $-1 $282 $283 $175 $284 forward $109 $-1 #
coedge $-1 $285 $111 $286 $287 reversed $69 $-1 #
coedge $-1 $111 $285 $173 $284 reversed $69 $-1 #
coedge $-1 $288 $289 $111 $177 reversed $290 $-1 #
edge $-1 $291 -8.3397404903651005 $292 8.3397404903651005 $176 $293 forward 7 unknown #
face $-1 $294 $295 $41 $-1 $296 forward single #
loop $-1 $-1 $297 $112 #
plane-surface $-1 -46.972812660992737 -121.49136966045336 72.87985965116755 1 0 0 0 0.7660444514056185 -0.64278759981090561 forward_v I I I I #
coedge $-1 $298 $299 $300 $301 reversed $113 $-1 #
coedge $-1 $183 $115 $302 $303 reversed $72 $-1 #
coedge $-1 $115 $182 $298 $304 reversed $72 $-1 #
coedge $-1 $300 $305 $115 $185 forward $295 $-1 #
edge $-1 $306 22.805458155443517 $307 27.477239433251746 $184 $308 forward 7 unknown #
loop $-1 $-1 $191 $116 #
plane-surface $-1 -38.217927492220248 -37.940226674783148 2.7721282229560273 0 -0.7660444514056185 0.64278759981090561 1 0 0 forward_v I I I I #
loop $-1 $-1 $309 $74 #
coedge $-1 $189 $189 $190 $310 reversed $117 $-1 #
coedge $-1 $190 $190 $189 $310 forward $119 $-1 #
coedge $-1 $191 $191 $120 $192 forward $186 $-1 #
edge $-1 $311 2.6054460675113104e-016 $311 6.2831853071796004 $191 $312 forward 7 unknown #
face $-1 $313 $314 $43 $-1 $315 reversed single #
loop $-1 $-1 $316 $121 #
plane-surface $-1 -21.596075757532326 -121.49136966045336 72.87985965116755 1 0 0 0 0.7660444514056185 -0.64278759981090561 forward_v I I I I #
coedge $-1 $317 $318 $319 $320 reversed $122 $-1 #
coedge $-1 $198 $124 $321 $322 reversed $78 $-1 #
coedge $-1 $124 $197 $317 $323 reversed $78 $-1 #
coedge $-1 $319 $324 $124 $200 forward $325 $-1 #
edge $-1 $326 22.805458155443517 $327 27.477239433251746 $199 $328 forward 7 unknown #
loop $-1 $-1 $206 $125 #
plane-surface $-1 -12.841190588759837 -37.940226674783148 2.7721282229560273 0 -0.7660444514056185 0.64278759981090561 1 0 0 forward_v I I I I #
loop $-1 $-1 $329 $80 #
coedge $-1 $204 $204 $205 $330 reversed $126 $-1 #
coedge $-1 $205 $205 $204 $330 forward $128 $-1 #
coedge $-1 $206 $206 $129 $207 forward $201 $-1 #
edge $-1 $331 2.6054460675113104e-016 $331 6.2831853071796004 $206 $332 forward 7 unknown #
face $-1 $333 $334 $45 $-1 $335 reversed single #
loop $-1 $-1 $336 $130 #
plane-surface $-1 3.780661145928077 -121.49136966045336 72.87985965116755 1 0 0 0 0.7660444514056185 -0.64278759981090561 forward_v I I I I #
coedge $-1 $337 $338 $339 $340 reversed $131 $-1 #
coedge $-1 $213 $133 $341 $342 reversed $84 $-1 #
coedge $-1 $133 $212 $337 $343 reversed $84 $-1 #
coedge $-1 $339 $344 $133 $215 forward $345 $-1 #
edge $-1 $346 22.805458155443517 $347 27.477239433251746 $214 $348 forward 7 unknown #
loop $-1 $-1 $221 $134 #
plane-surface $-1 12.535546314700568 -37.940226674783148 2.7721282229560273 0 -0.7660444514056185 0.64278759981090561 1 0 0 forward_v I I I I #
loop $-1 $-1 $349 $86 #
coedge $-1 $219 $219 $220 $350 reversed $135 $-1 #
coedge $-1 $220 $220 $219 $350 forward $137 $-1 #
coedge $-1 $221 $221 $138 $222 forward $216 $-1 #
edge $-1 $351 2.6054460675113104e-016 $351 6.2831853071796004 $221 $352 forward 7 unknown #
face $-1 $353 $354 $47 $-1 $355 reversed single #
loop $-1 $-1 $356 $139 #
plane-surface $-1 29.15739804938849 -121.49136966045336 72.87985965116755 1 0 0 0 0.7660444514056185 -0.64278759981090561 forward_v I I I I #
coedge $-1 $357 $358 $359 $360 reversed $140 $-1 #
coedge $-1 $228 $142 $361 $362 reversed $90 $-1 #
coedge $-1 $142 $227 $357 $363 reversed $90 $-1 #
coedge $-1 $359 $364 $142 $230 forward $365 $-1 #
edge $-1 $366 22.805458155443517 $367 27.477239433251746 $229 $368 forward 7 unknown #
loop $-1 $-1 $236 $143 #
plane-surface $-1 37.912283218160979 -37.940226674783148 2.7721282229560273 0 -0.7660444514056185 0.64278759981090561 1 0 0 forward_v I I I I #
loop $-1 $-1 $369 $92 #
coedge $-1 $234 $234 $235 $370 reversed $144 $-1 #
coedge $-1 $235 $235 $234 $370 forward $146 $-1 #
coedge $-1 $236 $236 $147 $237 forward $231 $-1 #
edge $-1 $371 2.6054460675113104e-016 $371 6.2831853071796004 $236 $372 forward 7 unknown #
face $-1 $373 $374 $49 $-1 $375 reversed single #
loop $-1 $-1 $376 $148 #
plane-surface $-1 -3.3724082354800604 52.227746224649835 136.51398034604546 -1 0 0 0 0.6560590369687036 0.75470957328743171 forward_v I I I I #
coedge $-1 $377 $378 $379 $380 reversed $149 $-1 #
coedge $-1 $243 $151 $381 $382 reversed $96 $-1 #
coedge $-1 $151 $242 $377 $383 reversed $96 $-1 #
coedge $-1 $379 $384 $151 $245 forward $385 $-1 #
edge $-1 $386 -11.826353562458245 $387 -7.3138210701110111 $244 $388 forward 7 unknown #
loop $-1 $-1 $251 $152 #
plane-surface $-1 -17.473004835757891 -19.3274778935249 54.199112906317836 0 0.6560590369687036 0.75470957328743171 1 0 0 forward_v I I I I #
loop $-1 $-1 $389 $98 #
coedge $-1 $249 $249 $250 $390 reversed $153 $-1 #
coedge $-1 $250 $250 $249 $390 forward $155 $-1 #
coedge $-1 $251 $251 $156 $252 forward $246 $-1 #
edge $-1 $391 -7.465396707883203e-015 $391 6.2831853071795933 $251 $392 forward 7 unknown #
loop $-1 $-1 $258 $157 #
plane-surface $-1 -17.473004835757891 -19.3274778935249 54.199112906317836 0 0.6560590369687036 0.75470957328743171 1 0 0 forward_v I I I I #
loop $-1 $-1 $393 $101 #
coedge $-1 $256 $256 $257 $394 reversed $158 $-1 #
coedge $-1 $257 $257 $256 $394 forward $160 $-1 #
coedge $-1 $258 $258 $161 $259 forward $253 $-1 #
edge $-1 $395 -7.465396707883203e-015 $395 6.2831853071795933 $258 $396 forward 7 unknown #
face $-1 $397 $398 $39 $-1 $399 reversed single #
loop $-1 $-1 $269 $162 #
plane-surface $-1 0 -37.940226674783162 0 0 1 0 0 0 1 forward_v I I I I #
coedge $-1 $274 $273 $400 $401 forward $163 $-1 #
coedge $-1 $402 $165 $403 $404 forward $105 $-1 #
coedge $-1 $165 $402 $405 $406 forward $105 $-1 #
coedge $-1 $407 $408 $165 $267 reversed $409 $-1 #
edge $-1 $410 -37.940226674783162 $411 37.940226674783162 $266 $412 forward 7 unknown #
coedge $-1 $167 $166 $402 $413 reversed $66 $-1 #
coedge $-1 $414 $405 $166 $270 forward $261 $-1 #
edge $-1 $415 -8.3397404903651005 $275 8.3397404903651005 $166 $416 forward 7 unknown #
coedge $-1 $403 $417 $167 $272 reversed $398 $-1 #
edge $-1 $418 -8.3397404903651005 $276 8.3397404903651005 $271 $419 forward 7 unknown #
coedge $-1 $263 $168 $417 $420 forward $163 $-1 #
coedge $-1 $168 $263 $414 $421 forward $163 $-1 #
vertex $-1 $169 $422 #
vertex $-1 $420 $423 #
straight-curve $-1 -54.534134952848902 0 -8.3397404903651005 0 1 0 I I #
face $-1 $424 $290 $40 $-1 $425 reversed single #
loop $-1 $-1 $426 $170 #
plane-surface $-1 -62.095457244705059 -32.255850995903231 0 1 0 0 0 0 -1 forward_v I I I I #
coedge $-1 $427 $428 $429 $430 forward $171 $-1 #
coedge $-1 $431 $173 $427 $432 forward $109 $-1 #
coedge $-1 $173 $431 $288 $433 forward $109 $-1 #
edge $-1 $291 30.755850995903231 $434 33.755850995903231 $173 $435 forward 7 unknown #
coedge $-1 $175 $174 $436 $437 forward $69 $-1 #
coedge $-1 $438 $439 $174 $287 forward $440 $-1 #
edge $-1 $441 -33.755850995903231 $292 -30.755850995903231 $286 $442 forward 7 unknown #
coedge $-1 $443 $176 $283 $433 reversed $290 $-1 #
coedge $-1 $176 $443 $438 $444 reversed $290 $-1 #
loop $-1 $-1 $176 $278 #
vertex $-1 $284 $445 #
vertex $-1 $444 $446 #
straight-curve $-1 -54.534134952848902 -30.755850995903231 0 0 0 1 I I #
face $-1 $-1 $447 $41 $-1 $448 reversed single #
loop $-1 $-1 $184 $178 #
plane-surface $-1 0 0 8.3397404903651005 0 0 1 1 0 0 forward_v I I I I #
coedge $-1 $449 $450 $451 $452 reversed $179 $-1 #
coedge $-1 $453 $181 $183 $304 forward $113 $-1 #
coedge $-1 $181 $453 $449 $454 forward $113 $-1 #
coedge $-1 $451 $184 $181 $301 forward $295 $-1 #
edge $-1 $307 10.354078577337635 $455 27.863848914882613 $300 $456 forward 7 unknown #
coedge $-1 $457 $458 $182 $303 forward $447 $-1 #
edge $-1 $459 -33.667801602627762 $306 -28.100189335218673 $302 $460 forward 7 unknown #
edge $-1 $307 -7.2680015594304459 $459 2.2061860048766535e-014 $183 $461 forward 7 unknown #
coedge $-1 $184 $451 $457 $462 forward $295 $-1 #
vertex $-1 $185 $463 #
vertex $-1 $185 $464 #
straight-curve $-1 -29.463042323447759 -60.745684830226679 8.3397404903651022 0 1 0 I I #
coedge $-1 $309 $309 $-1 $465 reversed $188 $-1 #
edge $-1 $466 0 $466 6.2831853071796004 $189 $467 forward 7 unknown #
vertex $-1 $192 $468 #
ellipse-curve $-1 -38.217927492220248 -35.604336035879044 5.5559343566605595 0 -0.7660444514056185 0.64278759981090561 1.5 0 0 1 I I #
face $-1 $-1 $325 $43 $-1 $469 forward single #
loop $-1 $-1 $470 $193 #
plane-surface $-1 0 -37.940226674783162 0 0 1 0 0 0 1 forward_v I I I I #
coedge $-1 $471 $472 $473 $474 reversed $194 $-1 #
coedge $-1 $475 $196 $198 $323 forward $122 $-1 #
coedge $-1 $196 $475 $471 $476 forward $122 $-1 #
coedge $-1 $473 $199 $196 $320 forward $325 $-1 #
edge $-1 $327 -2.3342898743925726 $477 15.175480463152407 $319 $478 forward 7 unknown #
coedge $-1 $479 $480 $197 $322 forward $314 $-1 #
edge $-1 $481 -33.667801602627762 $326 -28.100189335218673 $321 $482 forward 7 unknown #
edge $-1 $327 -7.2680015594304459 $481 2.2061860048766535e-014 $198 $483 forward 7 unknown #
coedge $-1 $199 $473 $479 $484 forward $325 $-1 #
loop $-1 $-1 $473 $313 #
vertex $-1 $322 $485 #
vertex $-1 $200 $486 #
straight-curve $-1 -4.0863054199873456 -60.745684830226679 8.3397404903651022 0 1 0 I I #
coedge $-1 $329 $329 $-1 $487 reversed $203 $-1 #
edge $-1 $488 0 $488 6.2831853071796004 $204 $489 forward 7 unknown #
vertex $-1 $207 $490 #
ellipse-curve $-1 -12.841190588759837 -35.604336035879044 5.5559343566605595 0 -0.7660444514056185 0.64278759981090561 1.5 0 0 1 I I #
face $-1 $-1 $345 $45 $-1 $491 forward single #
loop $-1 $-1 $492 $208 #
plane-surface $-1 0 -37.940226674783162 0 0 1 0 0 0 1 forward_v I I I I #
coedge $-1 $493 $494 $495 $496 reversed $209 $-1 #
coedge $-1 $497 $211 $213 $343 forward $131 $-1 #
coedge $-1 $211 $497 $493 $498 forward $131 $-1 #
coedge $-1 $495 $214 $211 $340 forward $345 $-1 #
edge $-1 $347 -15.022658326122773 $499 2.4871120114222069 $339 $500 forward 7 unknown #
coedge $-1 $501 $502 $212 $342 forward $334 $-1 #
edge $-1 $503 -33.667801602627762 $346 -28.100189335218673 $341 $504 forward 7 unknown #
edge $-1 $347 -7.2680015594304459 $503 2.2061860048766535e-014 $213 $505 forward 7 unknown #
coedge $-1 $214 $495 $501 $506 forward $345 $-1 #
loop $-1 $-1 $495 $333 #
vertex $-1 $342 $507 #
vertex $-1 $215 $508 #
straight-curve $-1 21.290431483473057 -60.745684830226679 8.3397404903651022 0 1 0 I I #
coedge $-1 $349 $349 $-1 $509 reversed $218 $-1 #
edge $-1 $510 0 $510 6.2831853071796004 $219 $511 forward 7 unknown #
vertex $-1 $222 $512 #
ellipse-curve $-1 12.535546314700568 -35.604336035879044 5.5559343566605595 0 -0.7660444514056185 0.64278759981090561 1.5 0 0 1 I I #
face $-1 $-1 $365 $47 $-1 $513 forward single #
loop $-1 $-1 $514 $223 #
plane-surface $-1 0 -37.940226674783162 0 0 1 0 0 0 1 forward_v I I I I #
coedge $-1 $515 $516 $517 $518 reversed $224 $-1 #
coedge $-1 $519 $226 $228 $363 forward $140 $-1 #
coedge $-1 $226 $519 $515 $520 forward $140 $-1 #
coedge $-1 $517 $229 $226 $360 forward $365 $-1 #
edge $-1 $367 -27.711026777852979 $521 -10.201256440308001 $359 $522 forward 7 unknown #
coedge $-1 $523 $524 $227 $362 forward $354 $-1 #
edge $-1 $525 -33.667801602627762 $366 -28.100189335218673 $361 $526 forward 7 unknown #
edge $-1 $367 -7.2680015594304459 $525 2.2061860048766535e-014 $228 $527 forward 7 unknown #
coedge $-1 $229 $517 $523 $528 forward $365 $-1 #
loop $-1 $-1 $517 $353 #
vertex $-1 $362 $529 #
vertex $-1 $230 $530 #
straight-curve $-1 46.667168386933469 -60.745684830226679 8.3397404903651022 0 1 0 I I #
coedge $-1 $369 $369 $-1 $531 reversed $233 $-1 #
edge $-1 $532 0 $532 6.2831853071796004 $234 $533 forward 7 unknown #
vertex $-1 $237 $534 #
ellipse-curve $-1 37.912283218160979 -35.604336035879044 5.5559343566605595 0 -0.7660444514056185 0.64278759981090561 1.5 0 0 1 I I #
face $-1 $-1 $385 $49 $-1 $535 forward single #
loop $-1 $-1 $536 $238 #
plane-surface $-1 0 37.940226674783162 0 0 -1 0 0 0 -1 forward_v I I I I #
coedge $-1 $537 $538 $539 $540 reversed $239 $-1 #
coedge $-1 $541 $241 $243 $383 forward $149 $-1 #
coedge $-1 $241 $541 $537 $542 forward $149 $-1 #
coedge $-1 $539 $244 $241 $380 forward $385 $-1 #
edge $-1 $387 -22.837099018156778 $543 5.364094182398885 $379 $544 forward 7 unknown #
coedge $-1 $545 $546 $242 $382 forward $374 $-1 #
edge $-1 $547 -63.839934415970006 $386 -59.917249682657626 $381 $548 forward 7 unknown #
edge $-1 $387 69.901289109352518 $547 75.880453349566324 $243 $549 forward 7 unknown #
coedge $-1 $244 $539 $545 $550 forward $385 $-1 #
loop $-1 $-1 $539 $373 #
vertex $-1 $382 $551 #
vertex $-1 $245 $552 #
straight-curve $-1 -31.573601436035723 26.113873112324917 8.3397404903651022 0 -1 0 I I #
coedge $-1 $389 $389 $-1 $553 reversed $248 $-1 #
edge $-1 $554 0 $554 6.2831853071796004 $249 $555 forward 7 unknown #
vertex $-1 $252 $556 #
ellipse-curve $-1 -23.516117664448387 35.683960428609538 6.3783981237089113 0 0.6560590369687036 0.75470957328743171 0.5 0 0 1 I I #
coedge $-1 $393 $393 $-1 $557 reversed $255 $-1 #
edge $-1 $558 0 $558 6.2831853071796004 $256 $559 forward 7 unknown #
vertex $-1 $259 $560 #
ellipse-curve $-1 -11.429892007067387 35.683960428609538 6.3783981237089113 0 0.6560590369687036 0.75470957328743171 0.5 0 0 1 I I #
face $-1 $-1 $409 $39 $-1 $561 reversed single #
loop $-1 $-1 $562 $260 #
plane-surface $-1 0 37.940226674783162 0 0 -1 0 0 0 -1 forward_v I I I I #
coedge $-1 $408 $407 $263 $401 reversed $409 $-1 #
edge $-1 $563 -37.940226674783162 $564 37.940226674783162 $400 $565 forward 7 unknown #
coedge $-1 $265 $264 $268 $413 forward $105 $-1 #
coedge $-1 $562 $271 $264 $404 reversed $398 $-1 #
edge $-1 $411 -54.534134952848902 $418 54.534134952848902 $403 $566 forward 7 unknown #
coedge $-1 $269 $567 $265 $406 reversed $261 $-1 #
edge $-1 $415 -54.534134952848902 $410 54.534134952848902 $405 $568 forward 7 unknown #
coedge $-1 $400 $266 $567 $569 forward $409 $-1 #
coedge $-1 $266 $400 $562 $570 reversed $409 $-1 #
loop $-1 $-1 $407 $397 #
vertex $-1 $267 $571 #
vertex $-1 $267 $572 #
straight-curve $-1 54.534134952848902 0 8.3397404903651005 0 1 0 I I #
edge $-1 $418 -37.940226674783162 $415 37.940226674783162 $268 $573 forward 7 unknown #
coedge $-1 $567 $269 $274 $421 reversed $261 $-1 #
vertex $-1 $413 $574 #
straight-curve $-1 -54.534134952848902 -37.940226674783162 0 0 0 -1 I I #
coedge $-1 $271 $562 $273 $420 reversed $398 $-1 #
vertex $-1 $404 $575 #
straight-curve $-1 -54.534134952848902 37.940226674783162 0 0 0 -1 I I #
edge $-1 $276 -54.534134952848902 $563 54.534134952848902 $417 $576 forward 7 unknown #
edge $-1 $564 -54.534134952848902 $275 54.534134952848902 $414 $577 forward 7 unknown #
point $-1 -54.534134952848902 -37.940226674783162 -8.3397404903651005 #
point $-1 -54.534134952848902 37.940226674783162 -8.3397404903651005 #
face $-1 $-1 $440 $40 $-1 $578 forward single #
plane-surface $-1 -58.314796098776981 -30.755850995903231 0 0 -1 0 0 0 -1 forward_v I I I I #
coedge $-1 $579 $580 $443 $581 forward $279 $-1 #
coedge $-1 $436 $281 $282 $432 reversed $171 $-1 #
coedge $-1 $281 $436 $439 $582 reversed $171 $-1 #
coedge $-1 $580 $579 $281 $430 reversed $279 $-1 #
edge $-1 $583 -8.3397404903651005 $584 8.3397404903651005 $429 $585 forward 7 unknown #
coedge $-1 $283 $282 $579 $586 forward $109 $-1 #
edge $-1 $434 -3.7806611459280788 $584 3.7806611459280788 $427 $587 forward 7 unknown #
edge $-1 $588 -3.7806611459280788 $291 3.7806611459280788 $288 $589 forward 7 unknown #
vertex $-1 $432 $590 #
straight-curve $-1 -54.534134952848902 0 -8.3397404903651005 0 -1 0 I I #
coedge $-1 $428 $427 $285 $437 reversed $171 $-1 #
edge $-1 $441 -8.3397404903651005 $434 8.3397404903651005 $436 $591 forward 7 unknown #
coedge $-1 $592 $286 $289 $444 forward $440 $-1 #
coedge $-1 $286 $592 $428 $582 forward $440 $-1 #
loop $-1 $-1 $286 $424 #
vertex $-1 $287 $593 #
straight-curve $-1 -54.534134952848902 0 8.3397404903651005 0 1 0 I I #
coedge $-1 $289 $288 $426 $581 reversed $290 $-1 #
edge $-1 $292 -3.7806611459280788 $594 3.7806611459280788 $289 $595 forward 7 unknown #
point $-1 -54.534134952848902 -30.755850995903231 -8.3397404903651005 #
point $-1 -54.534134952848902 -30.755850995903231 8.3397404903651005 #
loop $-1 $-1 $302 $294 #
plane-surface $-1 0 -37.940226674783162 0 0 1 0 0 0 1 forward_v I I I I #
coedge $-1 $450 $297 $299 $454 reversed $179 $-1 #
coedge $-1 $297 $449 $596 $597 reversed $179 $-1 #
coedge $-1 $305 $300 $297 $452 forward $295 $-1 #
edge $-1 $455 -27.477239433251746 $598 -22.805458155443517 $451 $599 forward 7 unknown #
coedge $-1 $299 $298 $458 $600 reversed $113 $-1 #
edge $-1 $601 -2.2061860048766535e-014 $455 7.2680015594304459 $449 $602 forward 7 unknown #
vertex $-1 $301 $603 #
straight-curve $-1 -19.108963746110124 -33.268445396974933 8.3397404903651005 -1 0 0 I I #
coedge $-1 $596 $302 $305 $462 reversed $447 $-1 #
coedge $-1 $302 $596 $453 $600 forward $447 $-1 #
vertex $-1 $303 $604 #
straight-curve $-1 -29.463042323447759 -37.940226674783162 36.439929825583775 0 0 1 I I #
straight-curve $-1 -29.463042323447759 -37.940226674783148 2.7721282229560273 0 -0.64278759981090561 -0.7660444514056185 I I #
edge $-1 $598 -46.972812660992737 $306 -29.463042323447759 $457 $605 forward 7 unknown #
point $-1 -29.463042323447759 -37.940226674783162 8.3397404903651005 #
point $-1 -29.463042323447759 -33.268445396974933 8.3397404903651005 #
edge $-1 $606 1 $606 0 $309 $-1 forward 7 unknown #
vertex $-1 $310 $607 #
ellipse-curve $-1 -38.217927492220248 -31.506312662152727 2.1172845452389093 0 -0.7660444514056185 0.64278759981090561 1.5 0 0 1 I I #
point $-1 -36.717927492220248 -35.604336035879058 5.5559343566605719 #
plane-surface $-1 0 0 8.3397404903651005 0 0 1 1 0 0 forward_v I I I I #
coedge $-1 $480 $479 $472 $608 forward $314 $-1 #
coedge $-1 $472 $316 $318 $476 reversed $194 $-1 #
coedge $-1 $316 $471 $470 $608 reversed $194 $-1 #
coedge $-1 $324 $319 $316 $474 forward $325 $-1 #
edge $-1 $477 -27.477239433251746 $609 -22.805458155443517 $473 $610 forward 7 unknown #
coedge $-1 $318 $317 $480 $611 reversed $122 $-1 #
edge $-1 $612 -2.2061860048766535e-014 $477 7.2680015594304459 $471 $613 forward 7 unknown #
vertex $-1 $320 $614 #
straight-curve $-1 -6.4205952943799183 -33.268445396974933 8.3397404903651005 -1 0 0 I I #
coedge $-1 $470 $321 $324 $484 reversed $314 $-1 #
coedge $-1 $321 $470 $475 $611 forward $314 $-1 #
vertex $-1 $322 $615 #
straight-curve $-1 -4.0863054199873456 -37.940226674783162 36.439929825583775 0 0 1 I I #
straight-curve $-1 -4.0863054199873456 -37.940226674783148 2.7721282229560273 0 -0.64278759981090561 -0.7660444514056185 I I #
edge $-1 $609 -21.596075757532326 $326 -4.0863054199873456 $479 $616 forward 7 unknown #
point $-1 -4.0863054199873456 -37.940226674783162 8.3397404903651005 #
point $-1 -4.0863054199873456 -33.268445396974933 8.3397404903651005 #
edge $-1 $617 1 $617 0 $329 $-1 forward 7 unknown #
vertex $-1 $330 $618 #
ellipse-curve $-1 -12.841190588759837 -31.506312662152727 2.1172845452389093 0 -0.7660444514056185 0.64278759981090561 1.5 0 0 1 I I #
point $-1 -11.341190588759837 -35.604336035879058 5.5559343566605719 #
plane-surface $-1 0 0 8.3397404903651005 0 0 1 1 0 0 forward_v I I I I #
coedge $-1 $502 $501 $494 $619 forward $334 $-1 #
coedge $-1 $494 $336 $338 $498 reversed $209 $-1 #
coedge $-1 $336 $493 $492 $619 reversed $209 $-1 #
coedge $-1 $344 $339 $336 $496 forward $345 $-1 #
edge $-1 $499 -27.477239433251746 $620 -22.805458155443517 $495 $621 forward 7 unknown #
coedge $-1 $338 $337 $502 $622 reversed $131 $-1 #
edge $-1 $623 -2.2061860048766535e-014 $499 7.2680015594304459 $493 $624 forward 7 unknown #
vertex $-1 $340 $625 #
straight-curve $-1 6.267773157350284 -33.268445396974933 8.3397404903651005 -1 0 0 I I #
coedge $-1 $492 $341 $344 $506 reversed $334 $-1 #
coedge $-1 $341 $492 $497 $622 forward $334 $-1 #
vertex $-1 $342 $626 #
straight-curve $-1 21.290431483473057 -37.940226674783162 36.439929825583775 0 0 1 I I #
straight-curve $-1 21.290431483473057 -37.940226674783148 2.7721282229560273 0 -0.64278759981090561 -0.7660444514056185 I I #
edge $-1 $620 3.780661145928077 $346 21.290431483473057 $501 $627 forward 7 unknown #
point $-1 21.290431483473057 -37.940226674783162 8.3397404903651005 #
point $-1 21.290431483473057 -33.268445396974933 8.3397404903651005 #
edge $-1 $628 1 $628 0 $349 $-1 forward 7 unknown #
vertex $-1 $350 $629 #
ellipse-curve $-1 12.535546314700568 -31.506312662152727 2.1172845452389093 0 -0.7660444514056185 0.64278759981090561 1.5 0 0 1 I I #
point $-1 14.035546314700568 -35.604336035879058 5.5559343566605719 #
plane-surface $-1 0 0 8.3397404903651005 0 0 1 1 0 0 forward_v I I I I #
coedge $-1 $524 $523 $516 $630 forward $354 $-1 #
coedge $-1 $516 $356 $358 $520 reversed $224 $-1 #
coedge $-1 $356 $515 $514 $630 reversed $224 $-1 #
coedge $-1 $364 $359 $356 $518 forward $365 $-1 #
edge $-1 $521 -27.477239433251746 $631 -22.805458155443517 $517 $632 forward 7 unknown #
coedge $-1 $358 $357 $524 $633 reversed $140 $-1 #
edge $-1 $634 -2.2061860048766535e-014 $521 7.2680015594304459 $515 $635 forward 7 unknown #
vertex $-1 $360 $636 #
straight-curve $-1 18.95614160908049 -33.268445396974933 8.3397404903651005 -1 0 0 I I #
coedge $-1 $514 $361 $364 $528 reversed $354 $-1 #
coedge $-1 $361 $514 $519 $633 forward $354 $-1 #
vertex $-1 $362 $637 #
straight-curve $-1 46.667168386933469 -37.940226674783162 36.439929825583775 0 0 1 I I #
straight-curve $-1 46.667168386933469 -37.940226674783148 2.7721282229560273 0 -0.64278759981090561 -0.7660444514056185 I I #
edge $-1 $631 29.15739804938849 $366 46.667168386933469 $523 $638 forward 7 unknown #
point $-1 46.667168386933469 -37.940226674783162 8.3397404903651005 #
point $-1 46.667168386933469 -33.268445396974933 8.3397404903651005 #
edge $-1 $639 1 $639 0 $369 $-1 forward 7 unknown #
vertex $-1 $370 $640 #
ellipse-curve $-1 37.912283218160979 -31.506312662152727 2.1172845452389093 0 -0.7660444514056185 0.64278759981090561 1.5 0 0 1 I I #
point $-1 39.412283218160979 -35.604336035879058 5.5559343566605719 #
plane-surface $-1 0 0 8.3397404903651005 0 0 1 1 0 0 forward_v I I I I #
coedge $-1 $546 $545 $538 $641 forward $374 $-1 #
coedge $-1 $538 $376 $378 $542 reversed $239 $-1 #
coedge $-1 $376 $537 $536 $641 reversed $239 $-1 #
coedge $-1 $384 $379 $376 $540 forward $385 $-1 #
edge $-1 $543 7.3138210701110111 $642 11.826353562458245 $539 $643 forward 7 unknown #
coedge $-1 $378 $377 $546 $644 reversed $149 $-1 #
edge $-1 $645 -75.880453349566324 $543 -69.901289109352518 $537 $646 forward 7 unknown #
vertex $-1 $380 $647 #
straight-curve $-1 -8.7365024178789454 33.427694182435928 8.3397404903651093 1 0 0 I I #
coedge $-1 $536 $381 $384 $550 reversed $374 $-1 #
coedge $-1 $381 $536 $541 $644 forward $374 $-1 #
vertex $-1 $382 $648 #
straight-curve $-1 -31.573601436035723 37.940226674783162 68.256990173022729 0 0 1 I I #
straight-curve $-1 -31.573601436035723 -19.3274778935249 54.199112906317836 0 0.75470957328743171 -0.6560590369687036 I I #
edge $-1 $642 3.3724082354800604 $386 31.573601436035723 $545 $649 forward 7 unknown #
point $-1 -31.573601436035723 37.940226674783162 8.3397404903651005 #
point $-1 -31.573601436035723 33.427694182435928 8.3397404903651022 #
edge $-1 $650 1 $650 0 $389 $-1 forward 7 unknown #
vertex $-1 $390 $651 #
ellipse-curve $-1 -23.516117664448387 35.027901391640825 5.6236885504214689 0 0.6560590369687036 0.75470957328743171 0.5 0 0 1 I I #
point $-1 -23.016117664448387 35.683960428609524 6.3783981237089007 #
edge $-1 $652 1 $652 0 $393 $-1 forward 7 unknown #
vertex $-1 $394 $653 #
ellipse-curve $-1 -11.429892007067387 35.027901391640825 5.6236885504214689 0 0.6560590369687036 0.75470957328743171 0.5 0 0 1 I I #
point $-1 -10.929892007067387 35.683960428609524 6.3783981237089007 #
plane-surface $-1 54.534134952848902 0 0 -1 0 0 0 0 1 forward_v I I I I #
coedge $-1 $417 $403 $408 $570 forward $398 $-1 #
vertex $-1 $401 $654 #
vertex $-1 $569 $655 #
straight-curve $-1 54.534134952848902 0 -8.3397404903651005 0 -1 0 I I #
straight-curve $-1 0 37.940226674783162 8.3397404903651005 -1 0 0 I I #
coedge $-1 $405 $414 $407 $569 reversed $261 $-1 #
straight-curve $-1 0 -37.940226674783162 8.3397404903651005 1 0 0 I I #
edge $-1 $410 -8.3397404903651005 $564 8.3397404903651005 $407 $656 forward 7 unknown #
edge $-1 $411 -8.3397404903651005 $563 8.3397404903651005 $408 $657 forward 7 unknown #
point $-1 54.534134952848902 -37.940226674783162 8.3397404903651005 #
point $-1 54.534134952848902 37.940226674783162 8.3397404903651005 #
straight-curve $-1 -54.534134952848902 0 8.3397404903651005 0 -1 0 I I #
point $-1 -54.534134952848902 -37.940226674783162 8.3397404903651005 #
point $-1 -54.534134952848902 37.940226674783162 8.3397404903651005 #
straight-curve $-1 0 37.940226674783162 -8.3397404903651005 1 0 0 I I #
straight-curve $-1 0 -37.940226674783162 -8.3397404903651005 -1 0 0 I I #
plane-surface $-1 0 0 8.3397404903651005 0 0 1 1 0 0 forward_v I I I I #
coedge $-1 $429 $426 $431 $586 reversed $279 $-1 #
coedge $-1 $426 $429 $592 $658 reversed $279 $-1 #
edge $-1 $594 -8.3397404903651005 $588 8.3397404903651005 $443 $659 forward 7 unknown #
edge $-1 $583 -3.7806611459280788 $441 3.7806611459280788 $428 $660 forward 7 unknown #
vertex $-1 $658 $661 #
vertex $-1 $586 $662 #
straight-curve $-1 -62.095457244705059 -33.755850995903231 0 0 0 -1 I I #
edge $-1 $584 -1.5 $588 1.5 $579 $663 forward 7 unknown #
straight-curve $-1 -58.314796098776981 -33.755850995903231 -8.3397404903651005 -1 0 0 I I #
vertex $-1 $433 $664 #
straight-curve $-1 -58.314796098776981 -30.755850995903231 -8.3397404903651005 1 0 0 I I #
point $-1 -54.534134952848902 -33.755850995903231 -8.3397404903651005 #
straight-curve $-1 -54.534134952848902 -33.755850995903231 0 0 0 -1 I I #
coedge $-1 $439 $438 $580 $658 forward $440 $-1 #
point $-1 -54.534134952848902 -33.755850995903231 8.3397404903651005 #
vertex $-1 $444 $665 #
straight-curve $-1 -58.314796098776981 -30.755850995903231 8.3397404903651005 -1 0 0 I I #
coedge $-1 $458 $457 $450 $597 forward $447 $-1 #
edge $-1 $598 28.100189335218673 $601 33.667801602627762 $596 $666 forward 7 unknown #
vertex $-1 $462 $667 #
straight-curve $-1 -46.972812660992737 -60.745684830226679 8.3397404903651022 0 -1 0 I I #
edge $-1 $601 -27.863848914882613 $459 -10.354078577337635 $458 $668 forward 7 unknown #
vertex $-1 $600 $669 #
straight-curve $-1 -46.972812660992737 -37.940226674783148 2.7721282229560273 0 0.64278759981090561 0.7660444514056185 I I #
point $-1 -46.972812660992737 -33.268445396974933 8.3397404903651005 #
point $-1 -29.463042323447759 -37.940226674783162 2.7721282229560105 #
straight-curve $-1 0 -37.940226674783162 8.3397404903651005 1 0 0 I I #
vertex $-1 $465 $670 #
point $-1 -36.717927492220248 -31.506312662152727 2.1172845452389093 #
edge $-1 $609 28.100189335218673 $612 33.667801602627762 $470 $671 forward 7 unknown #
vertex $-1 $484 $672 #
straight-curve $-1 -21.596075757532326 -60.745684830226679 8.3397404903651022 0 -1 0 I I #
edge $-1 $612 -15.175480463152407 $481 2.3342898743925726 $480 $673 forward 7 unknown #
vertex $-1 $611 $674 #
straight-curve $-1 -21.596075757532326 -37.940226674783148 2.7721282229560273 0 0.64278759981090561 0.7660444514056185 I I #
point $-1 -21.596075757532326 -33.268445396974933 8.3397404903651005 #
point $-1 -4.0863054199873456 -37.940226674783162 2.7721282229560105 #
straight-curve $-1 0 -37.940226674783162 8.3397404903651005 1 0 0 I I #
vertex $-1 $487 $675 #
point $-1 -11.341190588759837 -31.506312662152727 2.1172845452389093 #
edge $-1 $620 28.100189335218673 $623 33.667801602627762 $492 $676 forward 7 unknown #
vertex $-1 $506 $677 #
straight-curve $-1 3.780661145928077 -60.745684830226679 8.3397404903651022 0 -1 0 I I #
edge $-1 $623 -2.4871120114222069 $503 15.022658326122773 $502 $678 forward 7 unknown #
vertex $-1 $622 $679 #
straight-curve $-1 3.780661145928077 -37.940226674783148 2.7721282229560273 0 0.64278759981090561 0.7660444514056185 I I #
point $-1 3.780661145928077 -33.268445396974933 8.3397404903651005 #
point $-1 21.290431483473057 -37.940226674783162 2.7721282229560105 #
straight-curve $-1 0 -37.940226674783162 8.3397404903651005 1 0 0 I I #
vertex $-1 $509 $680 #
point $-1 14.035546314700568 -31.506312662152727 2.1172845452389093 #
edge $-1 $631 28.100189335218673 $634 33.667801602627762 $514 $681 forward 7 unknown #
vertex $-1 $528 $682 #
straight-curve $-1 29.15739804938849 -60.745684830226679 8.3397404903651022 0 -1 0 I I #
edge $-1 $634 10.201256440308001 $525 27.711026777852979 $524 $683 forward 7 unknown #
vertex $-1 $633 $684 #
straight-curve $-1 29.15739804938849 -37.940226674783148 2.7721282229560273 0 0.64278759981090561 0.7660444514056185 I I #
point $-1 29.15739804938849 -33.268445396974933 8.3397404903651005 #
point $-1 46.667168386933469 -37.940226674783162 2.7721282229560105 #
straight-curve $-1 0 -37.940226674783162 8.3397404903651005 1 0 0 I I #
vertex $-1 $531 $685 #
point $-1 39.412283218160979 -31.506312662152727 2.1172845452389093 #
edge $-1 $642 59.917249682657626 $645 63.839934415970006 $536 $686 forward 7 unknown #
vertex $-1 $550 $687 #
straight-curve $-1 -3.3724082354800604 26.113873112324917 8.3397404903651022 0 1 0 I I #
edge $-1 $645 -5.364094182398885 $547 22.837099018156778 $546 $688 forward 7 unknown #
vertex $-1 $644 $689 #
straight-curve $-1 -3.3724082354800604 -19.3274778935249 54.199112906317836 0 -0.75470957328743171 0.6560590369687036 I I #
point $-1 -3.3724082354800604 33.427694182435928 8.3397404903651022 #
point $-1 -31.573601436035723 37.940226674783155 4.4170557570527222 #
straight-curve $-1 0 37.940226674783162 8.3397404903651005 -1 0 0 I I #
vertex $-1 $553 $690 #
point $-1 -23.016117664448387 35.027901391640825 5.6236885504214689 #
vertex $-1 $557 $691 #
point $-1 -10.929892007067387 35.027901391640825 5.6236885504214689 #
point $-1 54.534134952848902 37.940226674783162 -8.3397404903651005 #
point $-1 54.534134952848902 -37.940226674783162 -8.3397404903651005 #
straight-curve $-1 54.534134952848902 -37.940226674783162 0 0 0 -1 I I #
straight-curve $-1 54.534134952848902 37.940226674783162 0 0 0 -1 I I #
edge $-1 $594 -1.5 $583 1.5 $580 $692 forward 7 unknown #
straight-curve $-1 -62.095457244705059 -30.755850995903231 0 0 0 -1 I I #
straight-curve $-1 -58.314796098776981 -33.755850995903231 8.3397404903651005 1 0 0 I I #
point $-1 -62.095457244705059 -33.755850995903231 8.3397404903651005 #
point $-1 -62.095457244705059 -33.755850995903231 -8.3397404903651005 #
straight-curve $-1 -62.095457244705059 -32.255850995903231 -8.3397404903651005 0 1 0 I I #
point $-1 -62.095457244705059 -30.755850995903231 -8.3397404903651005 #
point $-1 -62.095457244705059 -30.755850995903231 8.3397404903651005 #
straight-curve $-1 -46.972812660992737 -37.940226674783162 36.439929825583775 0 0 -1 I I #
point $-1 -46.972812660992737 -37.940226674783162 8.3397404903651005 #
straight-curve $-1 -19.108963746110124 -37.940226674783162 2.7721282229560096 1 0 0 I I #
point $-1 -46.972812660992737 -37.940226674783162 2.7721282229560105 #
point $-1 -38.217927492220248 -30.357245985044297 1.1531031455225507 #
straight-curve $-1 -21.596075757532326 -37.940226674783162 36.439929825583775 0 0 -1 I I #
point $-1 -21.596075757532326 -37.940226674783162 8.3397404903651005 #
straight-curve $-1 -6.4205952943799183 -37.940226674783162 2.7721282229560096 1 0 0 I I #
point $-1 -21.596075757532326 -37.940226674783162 2.7721282229560105 #
point $-1 -12.841190588759837 -30.357245985044297 1.1531031455225507 #
straight-curve $-1 3.780661145928077 -37.940226674783162 36.439929825583775 0 0 -1 I I #
point $-1 3.780661145928077 -37.940226674783162 8.3397404903651005 #
straight-curve $-1 6.267773157350284 -37.940226674783162 2.7721282229560096 1 0 0 I I #
point $-1 3.780661145928077 -37.940226674783162 2.7721282229560105 #
point $-1 12.535546314700568 -30.357245985044297 1.1531031455225507 #
straight-curve $-1 29.15739804938849 -37.940226674783162 36.439929825583775 0 0 -1 I I #
point $-1 29.15739804938849 -37.940226674783162 8.3397404903651005 #
straight-curve $-1 18.95614160908049 -37.940226674783162 2.7721282229560096 1 0 0 I I #
point $-1 29.15739804938849 -37.940226674783162 2.7721282229560105 #
point $-1 37.912283218160979 -30.357245985044297 1.1531031455225507 #
straight-curve $-1 -3.3724082354800604 37.940226674783162 68.256990173022729 0 0 -1 I I #
point $-1 -3.3724082354800604 37.940226674783162 8.3397404903651005 #
straight-curve $-1 -8.7365024178789454 37.940226674783162 4.4170557570527187 -1 0 0 I I #
point $-1 -3.3724082354800604 37.940226674783155 4.4170557570527222 #
point $-1 -23.516117664448387 34.699871873156468 5.246333763777753 #
point $-1 -11.429892007067387 34.699871873156468 5.246333763777753 #
straight-curve $-1 -62.095457244705059 -32.255850995903231 8.3397404903651005 0 -1 0 I I #
End-of-ACIS-data 