500 0 17 0           
7 Unknown 11 ACIS 5.0 NT 24 Thu Mar 25 16:54:22 1999 
-1 9.9999999999999995e-007 1e-010 
body $-1 $17 $-1 $18 #
body $-1 $19 $-1 $20 #
body $-1 $21 $-1 $22 #
body $-1 $23 $-1 $24 #
body $-1 $25 $-1 $26 #
body $-1 $27 $-1 $28 #
body $-1 $29 $-1 $30 #
body $-1 $31 $-1 $32 #
body $-1 $33 $-1 $34 #
body $-1 $35 $-1 $36 #
body $-1 $37 $-1 $38 #
body $-1 $39 $-1 $40 #
body $-1 $41 $-1 $42 #
body $-1 $43 $-1 $44 #
body $-1 $45 $-1 $46 #
body $-1 $47 $-1 $48 #
body $-1 $49 $-1 $50 #
lump $-1 $-1 $51 $0 #
transform $-1 1 0 0 0 1 0 0 0 1 72.032227546006652 48.663686475430765 14.837322908193947 1 rotate no_reflect no_shear #
lump $-1 $-1 $52 $1 #
transform $-1 1 0 0 0 1 0 0 0 1 72.032227546006652 48.663686475430765 14.837322908193947 1 rotate no_reflect no_shear #
lump $-1 $-1 $53 $2 #
transform $-1 1 0 0 0 1 0 0 0 1 72.032227546006652 48.663686475430765 14.837322908193947 1 rotate no_reflect no_shear #
lump $-1 $-1 $54 $3 #
transform $-1 1 0 0 0 1 0 0 0 1 72.032227546006652 48.663686475430765 14.837322908193947 1 rotate no_reflect no_shear #
lump $-1 $-1 $55 $4 #
transform $-1 1 0 0 0 1 0 0 0 1 72.032227546006652 48.663686475430765 14.837322908193947 1 rotate no_reflect no_shear #
lump $-1 $-1 $56 $5 #
transform $-1 1 0 0 0 1 0 0 0 1 72.032227546006652 48.663686475430765 14.837322908193947 1 rotate no_reflect no_shear #
lump $-1 $-1 $57 $6 #
transform $-1 1 0 0 0 1 0 0 0 1 72.032227546006652 48.663686475430765 14.837322908193947 1 rotate no_reflect no_shear #
lump $-1 $-1 $58 $7 #
transform $-1 1 0 0 0 1 0 0 0 1 72.032227546006652 48.663686475430765 14.837322908193947 1 rotate no_reflect no_shear #
lump $-1 $-1 $59 $8 #
transform $-1 1 0 0 0 1 0 0 0 1 72.032227546006652 48.663686475430765 14.837322908193947 1 rotate no_reflect no_shear #
lump $-1 $-1 $60 $9 #
transform $-1 1 0 0 0 1 0 0 0 1 72.032227546006652 48.663686475430765 14.837322908193947 1 rotate no_reflect no_shear #
lump $-1 $-1 $61 $10 #
transform $-1 1 0 0 0 1 0 0 0 1 72.032227546006652 48.663686475430765 14.837322908193947 1 rotate no_reflect no_shear #
lump $-1 $-1 $62 $11 #
transform $-1 1 0 0 0 1 0 0 0 1 72.032227546006652 48.663686475430765 14.837322908193947 1 rotate no_reflect no_shear #
lump $-1 $-1 $63 $12 #
transform $-1 1 0 0 0 1 0 0 0 1 72.032227546006652 48.663686475430765 14.837322908193947 1 rotate no_reflect no_shear #
lump $-1 $-1 $64 $13 #
transform $-1 1 0 0 0 1 0 0 0 1 72.032227546006652 48.663686475430765 14.837322908193947 1 rotate no_reflect no_shear #
lump $-1 $-1 $65 $14 #
transform $-1 1 0 0 0 1 0 0 0 1 72.032227546006652 48.663686475430765 14.837322908193947 1 rotate no_reflect no_shear #
lump $-1 $-1 $66 $15 #
transform $-1 1 0 0 0 1 0 0 0 1 72.032227546006652 48.663686475430765 14.837322908193947 1 rotate no_reflect no_shear #
lump $-1 $-1 $67 $16 #
transform $-1 1 0 0 0 1 0 0 0 1 72.032227546006652 48.663686475430765 14.837322908193947 1 rotate no_reflect no_shear #
shell $-1 $-1 $-1 $68 $-1 $17 #
shell $-1 $-1 $-1 $69 $-1 $19 #
shell $-1 $-1 $-1 $70 $-1 $21 #
shell $-1 $-1 $-1 $71 $-1 $23 #
shell $-1 $-1 $-1 $72 $-1 $25 #
shell $-1 $-1 $-1 $73 $-1 $27 #
shell $-1 $-1 $-1 $74 $-1 $29 #
shell $-1 $-1 $-1 $75 $-1 $31 #
shell $-1 $-1 $-1 $76 $-1 $33 #
shell $-1 $-1 $-1 $77 $-1 $35 #
shell $-1 $-1 $-1 $78 $-1 $37 #
shell $-1 $-1 $-1 $79 $-1 $39 #
shell $-1 $-1 $-1 $80 $-1 $41 #
shell $-1 $-1 $-1 $81 $-1 $43 #
shell $-1 $-1 $-1 $82 $-1 $45 #
shell $-1 $-1 $-1 $83 $-1 $47 #
shell $-1 $-1 $-1 $84 $-1 $49 #
face $-1 $85 $86 $51 $-1 $87 forward single #
face $-1 $88 $89 $52 $-1 $90 forward single #
face $-1 $91 $92 $53 $-1 $93 reversed single #
face $-1 $94 $95 $54 $-1 $96 forward single #
face $-1 $97 $98 $55 $-1 $99 forward single #
face $-1 $100 $101 $56 $-1 $102 reversed single #
face $-1 $103 $104 $57 $-1 $105 forward single #
face $-1 $106 $107 $58 $-1 $108 forward single #
face $-1 $109 $110 $59 $-1 $111 reversed single #
face $-1 $112 $113 $60 $-1 $114 forward single #
face $-1 $115 $116 $61 $-1 $117 forward single #
face $-1 $118 $119 $62 $-1 $120 reversed single #
face $-1 $121 $122 $63 $-1 $123 forward single #
face $-1 $124 $125 $64 $-1 $126 forward single #
face $-1 $127 $128 $65 $-1 $129 reversed single #
face $-1 $130 $131 $66 $-1 $132 forward single #
face $-1 $133 $134 $67 $-1 $135 forward single #
face $-1 $136 $137 $51 $-1 $138 reversed single #
loop $-1 $-1 $139 $68 #
plane-surface $-1 0 0 14.837322908193947 0 0 1 1 0 0 forward_v I I I I #
face $-1 $140 $141 $52 $-1 $142 reversed single #
loop $-1 $-1 $143 $69 #
plane-surface $-1 -72.032227546006652 0 0 1 0 0 0 0 -1 forward_v I I I I #
face $-1 $144 $145 $53 $-1 $146 reversed single #
loop $-1 $-1 $147 $70 #
plane-surface $-1 41.43606740403456 -120.69591498648722 127.3815100847653 -1 0 0 0 -0.50000000669873634 0.8660253999169214 forward_v I I I I #
face $-1 $148 $149 $54 $-1 $150 forward single #
loop $-1 $151 $152 $71 #
cone-surface $-1 24.142978212141344 -35.505624810975533 4.2661814868178487 0 0.50000000669873634 -0.8660253999169214 3 0 0 1 I I 0 1 3 forward I I I I #
face $-1 $153 $154 $55 $-1 $155 forward single #
loop $-1 $156 $157 $72 #
cone-surface $-1 34.518831727277274 -35.505624810975533 4.2661814868178487 0 0.50000000669873634 -0.8660253999169214 3 0 0 1 I I 0 1 3 forward I I I I #
face $-1 $158 $159 $56 $-1 $160 reversed single #
loop $-1 $-1 $161 $73 #
plane-surface $-1 -41.25440943222543 116.47802071644715 161.74148079387669 1 0 0 0 -0.83867057594974714 -0.54463902268945019 forward_v I I I I #
face $-1 $162 $163 $57 $-1 $164 forward single #
loop $-1 $165 $166 $74 #
cone-surface $-1 -35.926006754087709 42.80425407294473 7.2200437551869481 0 -0.83867057594974714 -0.54463902268945019 1.5 0 0 1 I I 0 1 1.5 forward I I I I #
face $-1 $167 $168 $58 $-1 $169 forward single #
loop $-1 $170 $171 $75 #
cone-surface $-1 -27.933402736881135 42.80425407294473 7.2200437551869481 0 -0.83867057594974714 -0.54463902268945019 1.5 0 0 1 I I 0 1 1.5 forward I I I I #
face $-1 $172 $173 $59 $-1 $174 reversed single #
loop $-1 $-1 $175 $76 #
plane-surface $-1 -14.007444617786966 116.47802071644715 161.74148079387669 1 0 0 0 -0.83867057594974714 -0.54463902268945019 forward_v I I I I #
face $-1 $176 $177 $60 $-1 $178 forward single #
loop $-1 $179 $180 $77 #
cone-surface $-1 -8.6790419396492382 42.80425407294473 7.2200437551869481 0 -0.83867057594974714 -0.54463902268945019 1.5 0 0 1 I I 0 1 1.5 forward I I I I #
face $-1 $181 $182 $61 $-1 $183 forward single #
loop $-1 $184 $185 $78 #
cone-surface $-1 -0.68643792244266422 42.80425407294473 7.2200437551869481 0 -0.83867057594974714 -0.54463902268945019 1.5 0 0 1 I I 0 1 1.5 forward I I I I #
face $-1 $186 $187 $62 $-1 $188 reversed single #
loop $-1 $-1 $189 $79 #
plane-surface $-1 13.239520196651505 116.47802071644715 161.74148079387669 1 0 0 0 -0.83867057594974714 -0.54463902268945019 forward_v I I I I #
face $-1 $190 $191 $63 $-1 $192 forward single #
loop $-1 $193 $194 $80 #
cone-surface $-1 18.567922874789232 42.80425407294473 7.2200437551869481 0 -0.83867057594974714 -0.54463902268945019 1.5 0 0 1 I I 0 1 1.5 forward I I I I #
face $-1 $195 $196 $64 $-1 $197 forward single #
loop $-1 $198 $199 $81 #
cone-surface $-1 26.560526891995806 42.80425407294473 7.2200437551869481 0 -0.83867057594974714 -0.54463902268945019 1.5 0 0 1 I I 0 1 1.5 forward I I I I #
face $-1 $200 $201 $65 $-1 $202 reversed single #
loop $-1 $-1 $203 $82 #
plane-surface $-1 40.486485011089975 116.47802071644715 161.74148079387669 1 0 0 0 -0.83867057594974714 -0.54463902268945019 forward_v I I I I #
face $-1 $204 $205 $66 $-1 $206 forward single #
loop $-1 $207 $208 $83 #
cone-surface $-1 45.814887689227703 42.80425407294473 7.2200437551869481 0 -0.83867057594974714 -0.54463902268945019 1.5 0 0 1 I I 0 1 1.5 forward I I I I #
face $-1 $209 $210 $67 $-1 $211 forward single #
loop $-1 $212 $213 $84 #
cone-surface $-1 53.807491706434277 42.80425407294473 7.2200437551869481 0 -0.83867057594974714 -0.54463902268945019 1.5 0 0 1 I I 0 1 1.5 forward I I I I #
face $-1 $214 $215 $51 $-1 $216 reversed single #
loop $-1 $-1 $217 $85 #
plane-surface $-1 0 0 -14.837322908193947 0 0 1 1 0 0 forward_v I I I I #
coedge $-1 $218 $219 $220 $221 forward $86 $-1 #
face $-1 $222 $223 $52 $-1 $224 forward single #
loop $-1 $-1 $225 $88 #
plane-surface $-1 0 48.663686475430765 0 0 -1 0 0 0 -1 forward_v I I I I #
coedge $-1 $226 $227 $228 $229 forward $89 $-1 #
face $-1 $230 $231 $53 $-1 $232 reversed single #
loop $-1 $-1 $233 $91 #
plane-surface $-1 29.330904969709309 -48.663686475430765 2.618032749891114 0 -0.50000000669873634 0.8660253999169214 1 0 0 forward_v I I I I #
coedge $-1 $234 $235 $236 $237 reversed $92 $-1 #
face $-1 $-1 $238 $54 $-1 $239 forward single #
loop $-1 $240 $241 $94 #
cone-surface $-1 24.142978212141344 -32.179778640742377 -1.4943529552822081 0 0.50000000669873634 -0.8660253999169214 1.5 0 0 1 I I -0.70710678118654757 0.70710678118654757 1.5 forward I I I I #
loop $-1 $-1 $242 $71 #
coedge $-1 $152 $152 $243 $244 reversed $95 $-1 #
face $-1 $-1 $245 $55 $-1 $246 forward single #
loop $-1 $247 $248 $97 #
cone-surface $-1 34.518831727277274 -32.179778640742377 -1.4943529552822081 0 0.50000000669873634 -0.8660253999169214 1.5 0 0 1 I I -0.70710678118654757 0.70710678118654757 1.5 forward I I I I #
loop $-1 $-1 $249 $72 #
coedge $-1 $157 $157 $250 $251 reversed $98 $-1 #
face $-1 $252 $253 $56 $-1 $254 reversed single #
loop $-1 $-1 $255 $100 #
plane-surface $-1 -31.929704745484422 -4.3445988094581338 83.278356768274378 0 0.83867057594974714 0.54463902268945019 1 0 0 forward_v I I I I #
coedge $-1 $256 $257 $258 $259 reversed $101 $-1 #
face $-1 $-1 $260 $57 $-1 $261 forward single #
loop $-1 $262 $263 $103 #
cone-surface $-1 -35.926006754087709 40.596898558451059 5.7865703693100627 0 -0.83867057594974714 -0.54463902268945019 0.75 0 0 1 I I -0.70710678118654757 0.70710678118654757 0.75 forward I I I I #
loop $-1 $-1 $264 $74 #
coedge $-1 $166 $166 $265 $266 reversed $104 $-1 #
face $-1 $-1 $267 $58 $-1 $268 forward single #
loop $-1 $269 $270 $106 #
cone-surface $-1 -27.933402736881135 40.596898558451059 5.7865703693100627 0 -0.83867057594974714 -0.54463902268945019 0.75 0 0 1 I I -0.70710678118654757 0.70710678118654757 0.75 forward I I I I #
loop $-1 $-1 $271 $75 #
coedge $-1 $171 $171 $272 $273 reversed $107 $-1 #
face $-1 $274 $275 $59 $-1 $276 reversed single #
loop $-1 $-1 $277 $109 #
plane-surface $-1 -4.6827399310459583 -4.3445988094581338 83.278356768274378 0 0.83867057594974714 0.54463902268945019 1 0 0 forward_v I I I I #
coedge $-1 $278 $279 $280 $281 reversed $110 $-1 #
face $-1 $-1 $282 $60 $-1 $283 forward single #
loop $-1 $284 $285 $112 #
cone-surface $-1 -8.6790419396492382 40.596898558451059 5.7865703693100627 0 -0.83867057594974714 -0.54463902268945019 0.75 0 0 1 I I -0.70710678118654757 0.70710678118654757 0.75 forward I I I I #
loop $-1 $-1 $286 $77 #
coedge $-1 $180 $180 $287 $288 reversed $113 $-1 #
face $-1 $-1 $289 $61 $-1 $290 forward single #
loop $-1 $291 $292 $115 #
cone-surface $-1 -0.68643792244266422 40.596898558451059 5.7865703693100627 0 -0.83867057594974714 -0.54463902268945019 0.75 0 0 1 I I -0.70710678118654757 0.70710678118654757 0.75 forward I I I I #
loop $-1 $-1 $293 $78 #
coedge $-1 $185 $185 $294 $295 reversed $116 $-1 #
face $-1 $296 $297 $62 $-1 $298 reversed single #
loop $-1 $-1 $299 $118 #
plane-surface $-1 22.564224883392512 -4.3445988094581338 83.278356768274378 0 0.83867057594974714 0.54463902268945019 1 0 0 forward_v I I I I #
coedge $-1 $300 $301 $302 $303 reversed $119 $-1 #
face $-1 $-1 $304 $63 $-1 $305 forward single #
loop $-1 $306 $307 $121 #
cone-surface $-1 18.567922874789232 40.596898558451059 5.7865703693100627 0 -0.83867057594974714 -0.54463902268945019 0.75 0 0 1 I I -0.70710678118654757 0.70710678118654757 0.75 forward I I I I #
loop $-1 $-1 $308 $80 #
coedge $-1 $194 $194 $309 $310 reversed $122 $-1 #
face $-1 $-1 $311 $64 $-1 $312 forward single #
loop $-1 $313 $314 $124 #
cone-surface $-1 26.560526891995806 40.596898558451059 5.7865703693100627 0 -0.83867057594974714 -0.54463902268945019 0.75 0 0 1 I I -0.70710678118654757 0.70710678118654757 0.75 forward I I I I #
loop $-1 $-1 $315 $81 #
coedge $-1 $199 $199 $316 $317 reversed $125 $-1 #
face $-1 $318 $319 $65 $-1 $320 reversed single #
loop $-1 $-1 $321 $127 #
plane-surface $-1 49.811189697830983 -4.3445988094581338 83.278356768274378 0 0.83867057594974714 0.54463902268945019 1 0 0 forward_v I I I I #
coedge $-1 $322 $323 $324 $325 reversed $128 $-1 #
face $-1 $-1 $326 $66 $-1 $327 forward single #
loop $-1 $328 $329 $130 #
cone-surface $-1 45.814887689227703 40.596898558451059 5.7865703693100627 0 -0.83867057594974714 -0.54463902268945019 0.75 0 0 1 I I -0.70710678118654757 0.70710678118654757 0.75 forward I I I I #
loop $-1 $-1 $330 $83 #
coedge $-1 $208 $208 $331 $332 reversed $131 $-1 #
face $-1 $-1 $333 $67 $-1 $334 forward single #
loop $-1 $335 $336 $133 #
cone-surface $-1 53.807491706434277 40.596898558451059 5.7865703693100627 0 -0.83867057594974714 -0.54463902268945019 0.75 0 0 1 I I -0.70710678118654757 0.70710678118654757 0.75 forward I I I I #
loop $-1 $-1 $337 $84 #
coedge $-1 $213 $213 $338 $339 reversed $134 $-1 #
face $-1 $340 $341 $51 $-1 $342 reversed single #
loop $-1 $-1 $343 $136 #
plane-surface $-1 0 -48.663686475430765 0 0 1 0 0 0 1 forward_v I I I I #
coedge $-1 $344 $345 $346 $347 forward $137 $-1 #
coedge $-1 $348 $139 $349 $350 forward $86 $-1 #
coedge $-1 $139 $348 $351 $352 forward $86 $-1 #
coedge $-1 $353 $354 $139 $221 reversed $355 $-1 #
edge $-1 $356 -48.663686475430765 $357 48.663686475430765 $220 $358 forward 7 unknown #
face $-1 $359 $360 $52 $-1 $361 reversed single #
loop $-1 $-1 $228 $140 #
plane-surface $-1 -80.972970022179922 0 5.3528670856153715 0 0 1 1 0 0 forward_v I I I I #
coedge $-1 $362 $363 $227 $364 forward $141 $-1 #
coedge $-1 $365 $143 $366 $367 reversed $89 $-1 #
coedge $-1 $143 $365 $225 $364 reversed $89 $-1 #
coedge $-1 $368 $369 $143 $229 reversed $223 $-1 #
edge $-1 $370 -48.663686475430765 $371 48.663686475430765 $228 $372 forward 7 unknown #
face $-1 $373 $374 $53 $-1 $375 reversed single #
loop $-1 $-1 $376 $144 #
plane-surface $-1 17.225742535384057 -120.69591498648722 127.3815100847653 1 0 0 0 0.50000000669873634 -0.8660253999169214 forward_v I I I I #
coedge $-1 $377 $378 $379 $380 reversed $145 $-1 #
coedge $-1 $235 $147 $381 $382 reversed $92 $-1 #
coedge $-1 $147 $234 $377 $383 reversed $92 $-1 #
coedge $-1 $379 $384 $147 $237 forward $385 $-1 #
edge $-1 $386 11.684271017812847 $387 32.848702026353187 $236 $388 forward 7 unknown #
loop $-1 $-1 $243 $148 #
plane-surface $-1 29.330904969709309 -48.663686475430765 2.618032749891114 0 -0.50000000669873634 0.8660253999169214 1 0 0 forward_v I I I I #
loop $-1 $-1 $389 $94 #
coedge $-1 $241 $241 $242 $390 reversed $149 $-1 #
coedge $-1 $242 $242 $241 $390 forward $151 $-1 #
coedge $-1 $243 $243 $152 $244 forward $238 $-1 #
edge $-1 $391 2.7480332645007109e-016 $391 6.2831853071796004 $243 $392 forward 7 unknown #
loop $-1 $-1 $250 $153 #
plane-surface $-1 29.330904969709309 -48.663686475430765 2.618032749891114 0 -0.50000000669873634 0.8660253999169214 1 0 0 forward_v I I I I #
loop $-1 $-1 $393 $97 #
coedge $-1 $248 $248 $249 $394 reversed $154 $-1 #
coedge $-1 $249 $249 $248 $394 forward $156 $-1 #
coedge $-1 $250 $250 $157 $251 forward $245 $-1 #
edge $-1 $395 2.7480332645007109e-016 $395 6.2831853071796004 $250 $396 forward 7 unknown #
face $-1 $397 $398 $56 $-1 $399 forward single #
loop $-1 $-1 $400 $158 #
plane-surface $-1 -22.605000058743414 116.47802071644715 161.74148079387669 -1 0 0 0 0.83867057594974714 0.54463902268945019 forward_v I I I I #
coedge $-1 $401 $402 $403 $404 reversed $159 $-1 #
coedge $-1 $257 $161 $405 $406 reversed $101 $-1 #
coedge $-1 $161 $256 $401 $407 reversed $101 $-1 #
coedge $-1 $403 $408 $161 $259 forward $398 $-1 #
edge $-1 $409 9.5753238827928087 $410 18.137483522702219 $258 $411 forward 7 unknown #
loop $-1 $-1 $265 $162 #
plane-surface $-1 -31.929704745484422 -4.3445988094581338 83.278356768274378 0 0.83867057594974714 0.54463902268945019 1 0 0 forward_v I I I I #
loop $-1 $-1 $412 $103 #
coedge $-1 $263 $263 $264 $413 reversed $163 $-1 #
coedge $-1 $264 $264 $263 $413 forward $165 $-1 #
coedge $-1 $265 $265 $166 $266 forward $260 $-1 #
edge $-1 $414 -4.1139556431009011e-016 $414 6.2831853071796004 $265 $415 forward 7 unknown #
loop $-1 $-1 $272 $167 #
plane-surface $-1 -31.929704745484422 -4.3445988094581338 83.278356768274378 0 0.83867057594974714 0.54463902268945019 1 0 0 forward_v I I I I #
loop $-1 $-1 $416 $106 #
coedge $-1 $270 $270 $271 $417 reversed $168 $-1 #
coedge $-1 $271 $271 $270 $417 forward $170 $-1 #
coedge $-1 $272 $272 $171 $273 forward $267 $-1 #
edge $-1 $418 -4.1139556431009011e-016 $418 6.2831853071796004 $272 $419 forward 7 unknown #
face $-1 $420 $421 $59 $-1 $422 forward single #
loop $-1 $-1 $423 $172 #
plane-surface $-1 4.6419647556950494 116.47802071644715 161.74148079387669 -1 0 0 0 0.83867057594974714 0.54463902268945019 forward_v I I I I #
coedge $-1 $424 $425 $426 $427 reversed $173 $-1 #
coedge $-1 $279 $175 $428 $429 reversed $110 $-1 #
coedge $-1 $175 $278 $424 $430 reversed $110 $-1 #
coedge $-1 $426 $431 $175 $281 forward $421 $-1 #
edge $-1 $432 9.5753238827928087 $433 18.137483522702219 $280 $434 forward 7 unknown #
loop $-1 $-1 $287 $176 #
plane-surface $-1 -4.6827399310459583 -4.3445988094581338 83.278356768274378 0 0.83867057594974714 0.54463902268945019 1 0 0 forward_v I I I I #
loop $-1 $-1 $435 $112 #
coedge $-1 $285 $285 $286 $436 reversed $177 $-1 #
coedge $-1 $286 $286 $285 $436 forward $179 $-1 #
coedge $-1 $287 $287 $180 $288 forward $282 $-1 #
edge $-1 $437 -4.1139556431009011e-016 $437 6.2831853071796004 $287 $438 forward 7 unknown #
loop $-1 $-1 $294 $181 #
plane-surface $-1 -4.6827399310459583 -4.3445988094581338 83.278356768274378 0 0.83867057594974714 0.54463902268945019 1 0 0 forward_v I I I I #
loop $-1 $-1 $439 $115 #
coedge $-1 $292 $292 $293 $440 reversed $182 $-1 #
coedge $-1 $293 $293 $292 $440 forward $184 $-1 #
coedge $-1 $294 $294 $185 $295 forward $289 $-1 #
edge $-1 $441 -4.1139556431009011e-016 $441 6.2831853071796004 $294 $442 forward 7 unknown #
face $-1 $443 $444 $62 $-1 $445 forward single #
loop $-1 $-1 $446 $186 #
plane-surface $-1 31.88892957013352 116.47802071644715 161.74148079387669 -1 0 0 0 0.83867057594974714 0.54463902268945019 forward_v I I I I #
coedge $-1 $447 $448 $449 $450 reversed $187 $-1 #
coedge $-1 $301 $189 $451 $452 reversed $119 $-1 #
coedge $-1 $189 $300 $447 $453 reversed $119 $-1 #
coedge $-1 $449 $454 $189 $303 forward $444 $-1 #
edge $-1 $455 9.5753238827928087 $456 18.137483522702219 $302 $457 forward 7 unknown #
loop $-1 $-1 $309 $190 #
plane-surface $-1 22.564224883392512 -4.3445988094581338 83.278356768274378 0 0.83867057594974714 0.54463902268945019 1 0 0 forward_v I I I I #
loop $-1 $-1 $458 $121 #
coedge $-1 $307 $307 $308 $459 reversed $191 $-1 #
coedge $-1 $308 $308 $307 $459 forward $193 $-1 #
coedge $-1 $309 $309 $194 $310 forward $304 $-1 #
edge $-1 $460 -4.1139556431009011e-016 $460 6.2831853071796004 $309 $461 forward 7 unknown #
loop $-1 $-1 $316 $195 #
plane-surface $-1 22.564224883392512 -4.3445988094581338 83.278356768274378 0 0.83867057594974714 0.54463902268945019 1 0 0 forward_v I I I I #
loop $-1 $-1 $462 $124 #
coedge $-1 $314 $314 $315 $463 reversed $196 $-1 #
coedge $-1 $315 $315 $314 $463 forward $198 $-1 #
coedge $-1 $316 $316 $199 $317 forward $311 $-1 #
edge $-1 $464 -4.1139556431009011e-016 $464 6.2831853071796004 $316 $465 forward 7 unknown #
face $-1 $466 $467 $65 $-1 $468 forward single #
loop $-1 $-1 $469 $200 #
plane-surface $-1 59.135894384571991 116.47802071644715 161.74148079387669 -1 0 0 0 0.83867057594974714 0.54463902268945019 forward_v I I I I #
coedge $-1 $470 $471 $472 $473 reversed $201 $-1 #
coedge $-1 $323 $203 $474 $475 reversed $128 $-1 #
coedge $-1 $203 $322 $470 $476 reversed $128 $-1 #
coedge $-1 $472 $477 $203 $325 forward $467 $-1 #
edge $-1 $478 9.5753238827928087 $479 18.137483522702219 $324 $480 forward 7 unknown #
loop $-1 $-1 $331 $204 #
plane-surface $-1 49.811189697830983 -4.3445988094581338 83.278356768274378 0 0.83867057594974714 0.54463902268945019 1 0 0 forward_v I I I I #
loop $-1 $-1 $481 $130 #
coedge $-1 $329 $329 $330 $482 reversed $205 $-1 #
coedge $-1 $330 $330 $329 $482 forward $207 $-1 #
coedge $-1 $331 $331 $208 $332 forward $326 $-1 #
edge $-1 $483 -4.1139556431009011e-016 $483 6.2831853071796004 $331 $484 forward 7 unknown #
loop $-1 $-1 $338 $209 #
plane-surface $-1 49.811189697830983 -4.3445988094581338 83.278356768274378 0 0.83867057594974714 0.54463902268945019 1 0 0 forward_v I I I I #
loop $-1 $-1 $485 $133 #
coedge $-1 $336 $336 $337 $486 reversed $210 $-1 #
coedge $-1 $337 $337 $336 $486 forward $212 $-1 #
coedge $-1 $338 $338 $213 $339 forward $333 $-1 #
edge $-1 $487 -4.1139556431009011e-016 $487 6.2831853071796004 $338 $488 forward 7 unknown #
face $-1 $489 $490 $51 $-1 $491 reversed single #
loop $-1 $-1 $492 $214 #
plane-surface $-1 -72.032227546006652 0 0 1 0 0 0 0 -1 forward_v I I I I #
coedge $-1 $493 $351 $494 $495 forward $215 $-1 #
coedge $-1 $496 $217 $493 $497 forward $137 $-1 #
coedge $-1 $217 $496 $498 $499 forward $137 $-1 #
coedge $-1 $354 $353 $217 $347 reversed $355 $-1 #
edge $-1 $500 -48.663686475430765 $501 48.663686475430765 $346 $502 forward 7 unknown #
coedge $-1 $219 $218 $503 $504 forward $86 $-1 #
coedge $-1 $505 $506 $218 $350 reversed $490 $-1 #
edge $-1 $357 -72.032227546006652 $507 72.032227546006652 $349 $508 forward 7 unknown #
coedge $-1 $343 $509 $219 $352 reversed $215 $-1 #
edge $-1 $510 -72.032227546006652 $356 72.032227546006652 $351 $511 forward 7 unknown #
coedge $-1 $346 $220 $509 $512 forward $355 $-1 #
coedge $-1 $220 $346 $505 $513 reversed $355 $-1 #
loop $-1 $-1 $353 $489 #
vertex $-1 $221 $514 #
vertex $-1 $221 $515 #
straight-curve $-1 72.032227546006652 0 14.837322908193947 0 1 0 I I #
face $-1 $516 $517 $52 $-1 $518 reversed single #
loop $-1 $-1 $519 $222 #
plane-surface $-1 -80.972970022179922 0 -2.7759409646582602 0 0 1 1 0 0 forward_v I I I I #
coedge $-1 $520 $225 $521 $522 reversed $141 $-1 #
coedge $-1 $225 $520 $368 $523 reversed $141 $-1 #
edge $-1 $370 -5.3528670856153715 $524 2.7759409646582602 $225 $525 forward 7 unknown #
coedge $-1 $227 $226 $519 $526 forward $89 $-1 #
coedge $-1 $527 $528 $226 $367 forward $529 $-1 #
edge $-1 $530 -2.7759409646582602 $371 5.3528670856153715 $366 $531 forward 7 unknown #
coedge $-1 $532 $228 $363 $523 forward $223 $-1 #
coedge $-1 $228 $532 $527 $533 forward $223 $-1 #
vertex $-1 $364 $534 #
vertex $-1 $533 $535 #
straight-curve $-1 -72.032227546006652 0 5.3528670856153715 0 -1 0 I I #
face $-1 $-1 $385 $53 $-1 $536 forward single #
loop $-1 $-1 $537 $230 #
plane-surface $-1 0 -48.663686475430765 0 0 1 0 0 0 1 forward_v I I I I #
coedge $-1 $538 $539 $540 $541 reversed $231 $-1 #
coedge $-1 $542 $233 $235 $383 forward $145 $-1 #
coedge $-1 $233 $542 $538 $543 forward $145 $-1 #
coedge $-1 $540 $236 $233 $380 forward $385 $-1 #
edge $-1 $387 -26.770614919179906 $544 -2.5602900505294031 $379 $545 forward 7 unknown #
coedge $-1 $546 $547 $234 $382 forward $374 $-1 #
edge $-1 $548 -61.072722292491534 $386 -48.853432134188701 $381 $549 forward 7 unknown #
edge $-1 $387 -24.438579989190458 $548 0 $235 $550 forward 7 unknown #
coedge $-1 $236 $540 $546 $551 forward $385 $-1 #
loop $-1 $-1 $540 $373 #
vertex $-1 $382 $552 #
vertex $-1 $237 $553 #
straight-curve $-1 41.43606740403456 -60.347957493243612 14.837322908193947 0 1 0 I I #
coedge $-1 $389 $389 $-1 $554 reversed $240 $-1 #
edge $-1 $555 0 $555 6.2831853071796004 $241 $556 forward 7 unknown #
vertex $-1 $244 $557 #
ellipse-curve $-1 24.142978212141344 -38.081470971160591 8.7276778290425341 0 -0.50000000669873634 0.8660253999169214 3 0 0 1 I I #
coedge $-1 $393 $393 $-1 $558 reversed $247 $-1 #
edge $-1 $559 0 $559 6.2831853071796004 $248 $560 forward 7 unknown #
vertex $-1 $251 $561 #
ellipse-curve $-1 34.518831727277274 -38.081470971160591 8.7276778290425341 0 -0.50000000669873634 0.8660253999169214 3 0 0 1 I I #
face $-1 $-1 $562 $56 $-1 $563 reversed single #
loop $-1 $-1 $258 $252 #
plane-surface $-1 0 0 14.837322908193947 0 0 1 1 0 0 forward_v I I I I #
coedge $-1 $564 $565 $566 $567 reversed $253 $-1 #
coedge $-1 $568 $255 $257 $407 forward $159 $-1 #
coedge $-1 $255 $568 $564 $569 forward $159 $-1 #
coedge $-1 $566 $258 $255 $404 forward $398 $-1 #
edge $-1 $410 -25.289557059483219 $570 -6.6401476860012032 $403 $571 forward 7 unknown #
coedge $-1 $572 $573 $256 $406 forward $562 $-1 #
edge $-1 $574 -79.217987557038924 $409 -66.033417488744391 $405 $575 forward 7 unknown #
edge $-1 $410 81.606575719643942 $574 97.32737295086163 $257 $576 forward 7 unknown #
coedge $-1 $258 $566 $572 $577 forward $398 $-1 #
vertex $-1 $259 $578 #
vertex $-1 $259 $579 #
straight-curve $-1 -41.25440943222543 58.239010358223574 14.83732290819394 0 -1 0 I I #
coedge $-1 $412 $412 $-1 $580 reversed $262 $-1 #
edge $-1 $581 0 $581 6.2831853071796004 $263 $582 forward 7 unknown #
vertex $-1 $266 $583 #
ellipse-curve $-1 -35.926006754087709 44.382606655476046 8.2450378740467158 0 0.83867057594974714 0.54463902268945019 1.5 0 0 1 I I #
coedge $-1 $416 $416 $-1 $584 reversed $269 $-1 #
edge $-1 $585 0 $585 6.2831853071796004 $270 $586 forward 7 unknown #
vertex $-1 $273 $587 #
ellipse-curve $-1 -27.933402736881135 44.382606655476046 8.2450378740467158 0 0.83867057594974714 0.54463902268945019 1.5 0 0 1 I I #
face $-1 $-1 $588 $59 $-1 $589 reversed single #
loop $-1 $-1 $280 $274 #
plane-surface $-1 0 0 14.837322908193947 0 0 1 1 0 0 forward_v I I I I #
coedge $-1 $590 $591 $592 $593 reversed $275 $-1 #
coedge $-1 $594 $277 $279 $430 forward $173 $-1 #
coedge $-1 $277 $594 $590 $595 forward $173 $-1 #
coedge $-1 $592 $280 $277 $427 forward $421 $-1 #
edge $-1 $433 -11.666074652263987 $596 6.9833347212180286 $426 $597 forward 7 unknown #
coedge $-1 $598 $599 $278 $429 forward $588 $-1 #
edge $-1 $600 -79.217987557038924 $432 -66.033417488744391 $428 $601 forward 7 unknown #
edge $-1 $433 81.606575719643942 $600 97.32737295086163 $279 $602 forward 7 unknown #
coedge $-1 $280 $592 $598 $603 forward $421 $-1 #
vertex $-1 $281 $604 #
vertex $-1 $281 $605 #
straight-curve $-1 -14.007444617786966 58.239010358223574 14.83732290819394 0 -1 0 I I #
coedge $-1 $435 $435 $-1 $606 reversed $284 $-1 #
edge $-1 $607 0 $607 6.2831853071796004 $285 $608 forward 7 unknown #
vertex $-1 $288 $609 #
ellipse-curve $-1 -8.6790419396492382 44.382606655476046 8.2450378740467158 0 0.83867057594974714 0.54463902268945019 1.5 0 0 1 I I #
coedge $-1 $439 $439 $-1 $610 reversed $291 $-1 #
edge $-1 $611 0 $611 6.2831853071796004 $292 $612 forward 7 unknown #
vertex $-1 $295 $613 #
ellipse-curve $-1 -0.68643792244266422 44.382606655476046 8.2450378740467158 0 0.83867057594974714 0.54463902268945019 1.5 0 0 1 I I #
face $-1 $-1 $614 $62 $-1 $615 reversed single #
loop $-1 $-1 $302 $296 #
plane-surface $-1 0 0 14.837322908193947 0 0 1 1 0 0 forward_v I I I I #
coedge $-1 $616 $617 $618 $619 reversed $297 $-1 #
coedge $-1 $620 $299 $301 $453 forward $187 $-1 #
coedge $-1 $299 $620 $616 $621 forward $187 $-1 #
coedge $-1 $618 $302 $299 $450 forward $444 $-1 #
edge $-1 $456 1.9574077549552484 $622 20.606817128437264 $449 $623 forward 7 unknown #
coedge $-1 $624 $625 $300 $452 forward $614 $-1 #
edge $-1 $626 -79.217987557038924 $455 -66.033417488744391 $451 $627 forward 7 unknown #
edge $-1 $456 81.606575719643942 $626 97.32737295086163 $301 $628 forward 7 unknown #
coedge $-1 $302 $618 $624 $629 forward $444 $-1 #
vertex $-1 $303 $630 #
vertex $-1 $303 $631 #
straight-curve $-1 13.239520196651505 58.239010358223574 14.83732290819394 0 -1 0 I I #
coedge $-1 $458 $458 $-1 $632 reversed $306 $-1 #
edge $-1 $633 0 $633 6.2831853071796004 $307 $634 forward 7 unknown #
vertex $-1 $310 $635 #
ellipse-curve $-1 18.567922874789232 44.382606655476046 8.2450378740467158 0 0.83867057594974714 0.54463902268945019 1.5 0 0 1 I I #
coedge $-1 $462 $462 $-1 $636 reversed $313 $-1 #
edge $-1 $637 0 $637 6.2831853071796004 $314 $638 forward 7 unknown #
vertex $-1 $317 $639 #
ellipse-curve $-1 26.560526891995806 44.382606655476046 8.2450378740467158 0 0.83867057594974714 0.54463902268945019 1.5 0 0 1 I I #
face $-1 $-1 $640 $65 $-1 $641 reversed single #
loop $-1 $-1 $324 $318 #
plane-surface $-1 0 0 14.837322908193947 0 0 1 1 0 0 forward_v I I I I #
coedge $-1 $642 $643 $644 $645 reversed $319 $-1 #
coedge $-1 $646 $321 $323 $476 forward $201 $-1 #
coedge $-1 $321 $646 $642 $647 forward $201 $-1 #
coedge $-1 $644 $324 $321 $473 forward $467 $-1 #
edge $-1 $479 15.580890162174484 $648 34.230299535656499 $472 $649 forward 7 unknown #
coedge $-1 $650 $651 $322 $475 forward $640 $-1 #
edge $-1 $652 -79.217987557038924 $478 -66.033417488744391 $474 $653 forward 7 unknown #
edge $-1 $479 81.606575719643942 $652 97.32737295086163 $323 $654 forward 7 unknown #
coedge $-1 $324 $644 $650 $655 forward $467 $-1 #
vertex $-1 $325 $656 #
vertex $-1 $325 $657 #
straight-curve $-1 40.486485011089975 58.239010358223574 14.83732290819394 0 -1 0 I I #
coedge $-1 $481 $481 $-1 $658 reversed $328 $-1 #
edge $-1 $659 0 $659 6.2831853071796004 $329 $660 forward 7 unknown #
vertex $-1 $332 $661 #
ellipse-curve $-1 45.814887689227703 44.382606655476046 8.2450378740467158 0 0.83867057594974714 0.54463902268945019 1.5 0 0 1 I I #
coedge $-1 $485 $485 $-1 $662 reversed $335 $-1 #
edge $-1 $663 0 $663 6.2831853071796004 $336 $664 forward 7 unknown #
vertex $-1 $339 $665 #
ellipse-curve $-1 53.807491706434277 44.382606655476046 8.2450378740467158 0 0.83867057594974714 0.54463902268945019 1.5 0 0 1 I I #
face $-1 $-1 $355 $51 $-1 $666 reversed single #
loop $-1 $-1 $505 $340 #
plane-surface $-1 0 48.663686475430765 0 0 -1 0 0 0 -1 forward_v I I I I #
coedge $-1 $667 $503 $506 $668 forward $341 $-1 #
coedge $-1 $509 $343 $344 $497 reversed $215 $-1 #
coedge $-1 $503 $667 $343 $495 reversed $341 $-1 #
edge $-1 $510 -14.837322908193947 $669 14.837322908193947 $494 $670 forward 7 unknown #
coedge $-1 $345 $344 $667 $671 forward $137 $-1 #
edge $-1 $501 -72.032227546006652 $669 72.032227546006652 $493 $672 forward 7 unknown #
coedge $-1 $506 $505 $345 $499 reversed $490 $-1 #
edge $-1 $673 -72.032227546006652 $500 72.032227546006652 $498 $674 forward 7 unknown #
vertex $-1 $347 $675 #
vertex $-1 $512 $676 #
straight-curve $-1 72.032227546006652 0 -14.837322908193947 0 -1 0 I I #
coedge $-1 $492 $494 $348 $504 reversed $341 $-1 #
edge $-1 $507 -48.663686475430765 $510 48.663686475430765 $503 $677 forward 7 unknown #
coedge $-1 $498 $349 $354 $513 forward $490 $-1 #
coedge $-1 $349 $498 $492 $668 reversed $490 $-1 #
vertex $-1 $350 $678 #
straight-curve $-1 0 48.663686475430765 14.837322908193947 -1 0 0 I I #
coedge $-1 $351 $493 $353 $512 reversed $215 $-1 #
vertex $-1 $504 $679 #
straight-curve $-1 0 -48.663686475430765 14.837322908193947 1 0 0 I I #
edge $-1 $356 -14.837322908193947 $501 14.837322908193947 $353 $680 forward 7 unknown #
edge $-1 $357 -14.837322908193947 $500 14.837322908193947 $354 $681 forward 7 unknown #
point $-1 72.032227546006652 -48.663686475430765 14.837322908193947 #
point $-1 72.032227546006652 48.663686475430765 14.837322908193947 #
face $-1 $-1 $529 $52 $-1 $682 reversed single #
loop $-1 $-1 $683 $359 #
plane-surface $-1 -89.913712498353192 0 1.2884630604785556 1 0 0 0 0 -1 forward_v I I I I #
coedge $-1 $684 $521 $365 $526 reversed $360 $-1 #
coedge $-1 $363 $362 $683 $685 reversed $141 $-1 #
coedge $-1 $519 $686 $362 $522 forward $360 $-1 #
edge $-1 $687 -8.9407424761732699 $524 8.9407424761732699 $362 $688 forward 7 unknown #
edge $-1 $370 -8.9407424761732699 $689 8.9407424761732699 $363 $690 forward 7 unknown #
vertex $-1 $364 $691 #
straight-curve $-1 -72.032227546006652 48.663686475430765 0 0 0 -1 I I #
edge $-1 $530 -48.663686475430765 $524 48.663686475430765 $519 $692 forward 7 unknown #
coedge $-1 $693 $366 $369 $533 reversed $529 $-1 #
coedge $-1 $366 $693 $684 $694 reversed $529 $-1 #
loop $-1 $-1 $366 $516 #
vertex $-1 $367 $695 #
straight-curve $-1 -72.032227546006652 -48.663686475430765 0 0 0 1 I I #
coedge $-1 $369 $368 $696 $697 forward $223 $-1 #
edge $-1 $698 -8.9407424761732699 $371 8.9407424761732699 $527 $699 forward 7 unknown #
point $-1 -72.032227546006652 48.663686475430765 5.3528670856153715 #
point $-1 -72.032227546006652 -48.663686475430765 5.3528670856153715 #
plane-surface $-1 0 0 14.837322908193947 0 0 1 1 0 0 forward_v I I I I #
coedge $-1 $547 $546 $539 $700 forward $374 $-1 #
coedge $-1 $539 $376 $378 $543 reversed $231 $-1 #
coedge $-1 $376 $538 $537 $700 reversed $231 $-1 #
coedge $-1 $384 $379 $376 $541 forward $385 $-1 #
edge $-1 $544 -32.848702026353187 $701 -11.684271017812847 $540 $702 forward 7 unknown #
coedge $-1 $378 $377 $547 $703 reversed $145 $-1 #
edge $-1 $704 0 $544 24.438579989190458 $538 $705 forward 7 unknown #
vertex $-1 $380 $706 #
straight-curve $-1 14.665452484854654 -27.499255466890428 14.837322908193947 -1 0 0 I I #
coedge $-1 $537 $381 $384 $551 reversed $374 $-1 #
coedge $-1 $381 $537 $542 $703 forward $374 $-1 #
vertex $-1 $382 $707 #
straight-curve $-1 41.43606740403456 -48.663686475430765 63.690755042382648 0 0 1 I I #
straight-curve $-1 41.43606740403456 -48.663686475430765 2.618032749891114 0 -0.8660253999169214 -0.50000000669873634 I I #
edge $-1 $701 17.225742535384057 $386 41.43606740403456 $546 $708 forward 7 unknown #
point $-1 41.43606740403456 -48.663686475430765 14.837322908193947 #
point $-1 41.43606740403456 -27.499255466890425 14.837322908193947 #
edge $-1 $709 1 $709 0 $389 $-1 forward 7 unknown #
vertex $-1 $390 $710 #
ellipse-curve $-1 24.142978212141344 -32.929778650790482 -0.19531485540682603 0 -0.50000000669873634 0.8660253999169214 3 0 0 1 I I #
point $-1 27.142978212141344 -38.081470971160584 8.7276778290425234 #
edge $-1 $711 1 $711 0 $393 $-1 forward 7 unknown #
vertex $-1 $394 $712 #
ellipse-curve $-1 34.518831727277274 -32.929778650790482 -0.19531485540682603 0 -0.50000000669873634 0.8660253999169214 3 0 0 1 I I #
point $-1 37.518831727277274 -38.081470971160584 8.7276778290425234 #
loop $-1 $-1 $405 $397 #
plane-surface $-1 0 48.663686475430765 0 0 -1 0 0 0 -1 forward_v I I I I #
coedge $-1 $565 $400 $402 $569 reversed $253 $-1 #
coedge $-1 $400 $564 $713 $714 reversed $253 $-1 #
coedge $-1 $408 $403 $400 $567 forward $398 $-1 #
edge $-1 $570 -18.137483522702219 $715 -9.5753238827928087 $566 $716 forward 7 unknown #
coedge $-1 $402 $401 $573 $717 reversed $159 $-1 #
edge $-1 $718 -97.32737295086163 $570 -81.606575719643942 $564 $719 forward 7 unknown #
vertex $-1 $404 $720 #
straight-curve $-1 -15.964852372742211 40.101526835521355 14.83732290819394 1 0 0 I I #
coedge $-1 $713 $405 $408 $577 reversed $562 $-1 #
coedge $-1 $405 $713 $568 $717 forward $562 $-1 #
vertex $-1 $406 $721 #
straight-curve $-1 -41.25440943222543 48.663686475430765 80.870740396938345 0 0 1 I I #
straight-curve $-1 -41.25440943222543 -4.3445988094581338 83.278356768274378 0 0.54463902268945019 -0.83867057594974714 I I #
edge $-1 $715 22.605000058743414 $409 41.25440943222543 $572 $722 forward 7 unknown #
point $-1 -41.25440943222543 48.663686475430765 14.837322908193947 #
point $-1 -41.25440943222543 40.101526835521355 14.83732290819394 #
edge $-1 $723 1 $723 0 $412 $-1 forward 7 unknown #
vertex $-1 $413 $724 #
ellipse-curve $-1 -35.926006754087709 41.225901490413371 6.1950496363271501 0 0.83867057594974714 0.54463902268945019 1.5 0 0 1 I I #
point $-1 -34.426006754087709 44.382606655476089 8.2450378740467443 #
edge $-1 $725 1 $725 0 $416 $-1 forward 7 unknown #
vertex $-1 $417 $726 #
ellipse-curve $-1 -27.933402736881135 41.225901490413371 6.1950496363271501 0 0.83867057594974714 0.54463902268945019 1.5 0 0 1 I I #
point $-1 -26.433402736881135 44.382606655476089 8.2450378740467443 #
loop $-1 $-1 $428 $420 #
plane-surface $-1 0 48.663686475430765 0 0 -1 0 0 0 -1 forward_v I I I I #
coedge $-1 $591 $423 $425 $595 reversed $275 $-1 #
coedge $-1 $423 $590 $727 $728 reversed $275 $-1 #
coedge $-1 $431 $426 $423 $593 forward $421 $-1 #
edge $-1 $596 -18.137483522702219 $729 -9.5753238827928087 $592 $730 forward 7 unknown #
coedge $-1 $425 $424 $599 $731 reversed $173 $-1 #
edge $-1 $732 -97.32737295086163 $596 -81.606575719643942 $590 $733 forward 7 unknown #
vertex $-1 $427 $734 #
straight-curve $-1 -2.3413699655229792 40.101526835521355 14.83732290819394 1 0 0 I I #
coedge $-1 $727 $428 $431 $603 reversed $588 $-1 #
coedge $-1 $428 $727 $594 $731 forward $588 $-1 #
vertex $-1 $429 $735 #
straight-curve $-1 -14.007444617786966 48.663686475430765 80.870740396938345 0 0 1 I I #
straight-curve $-1 -14.007444617786966 -4.3445988094581338 83.278356768274378 0 0.54463902268945019 -0.83867057594974714 I I #
edge $-1 $729 -4.6419647556950494 $432 14.007444617786966 $598 $736 forward 7 unknown #
point $-1 -14.007444617786966 48.663686475430765 14.837322908193947 #
point $-1 -14.007444617786966 40.101526835521355 14.83732290819394 #
edge $-1 $737 1 $737 0 $435 $-1 forward 7 unknown #
vertex $-1 $436 $738 #
ellipse-curve $-1 -8.6790419396492382 41.225901490413371 6.1950496363271501 0 0.83867057594974714 0.54463902268945019 1.5 0 0 1 I I #
point $-1 -7.1790419396492382 44.382606655476089 8.2450378740467443 #
edge $-1 $739 1 $739 0 $439 $-1 forward 7 unknown #
vertex $-1 $440 $740 #
ellipse-curve $-1 -0.68643792244266422 41.225901490413371 6.1950496363271501 0 0.83867057594974714 0.54463902268945019 1.5 0 0 1 I I #
point $-1 0.81356207755733578 44.382606655476089 8.2450378740467443 #
loop $-1 $-1 $451 $443 #
plane-surface $-1 0 48.663686475430765 0 0 -1 0 0 0 -1 forward_v I I I I #
coedge $-1 $617 $446 $448 $621 reversed $297 $-1 #
coedge $-1 $446 $616 $741 $742 reversed $297 $-1 #
coedge $-1 $454 $449 $446 $619 forward $444 $-1 #
edge $-1 $622 -18.137483522702219 $743 -9.5753238827928087 $618 $744 forward 7 unknown #
coedge $-1 $448 $447 $625 $745 reversed $187 $-1 #
edge $-1 $746 -97.32737295086163 $622 -81.606575719643942 $616 $747 forward 7 unknown #
vertex $-1 $450 $748 #
straight-curve $-1 11.282112441696256 40.101526835521355 14.83732290819394 1 0 0 I I #
coedge $-1 $741 $451 $454 $629 reversed $614 $-1 #
coedge $-1 $451 $741 $620 $745 forward $614 $-1 #
vertex $-1 $452 $749 #
straight-curve $-1 13.239520196651505 48.663686475430765 80.870740396938345 0 0 1 I I #
straight-curve $-1 13.239520196651505 -4.3445988094581338 83.278356768274378 0 0.54463902268945019 -0.83867057594974714 I I #
edge $-1 $743 -31.88892957013352 $455 -13.239520196651505 $624 $750 forward 7 unknown #
point $-1 13.239520196651505 48.663686475430765 14.837322908193947 #
point $-1 13.239520196651505 40.101526835521355 14.83732290819394 #
edge $-1 $751 1 $751 0 $458 $-1 forward 7 unknown #
vertex $-1 $459 $752 #
ellipse-curve $-1 18.567922874789232 41.225901490413371 6.1950496363271501 0 0.83867057594974714 0.54463902268945019 1.5 0 0 1 I I #
point $-1 20.067922874789232 44.382606655476089 8.2450378740467443 #
edge $-1 $753 1 $753 0 $462 $-1 forward 7 unknown #
vertex $-1 $463 $754 #
ellipse-curve $-1 26.560526891995806 41.225901490413371 6.1950496363271501 0 0.83867057594974714 0.54463902268945019 1.5 0 0 1 I I #
point $-1 28.060526891995806 44.382606655476089 8.2450378740467443 #
loop $-1 $-1 $474 $466 #
plane-surface $-1 0 48.663686475430765 0 0 -1 0 0 0 -1 forward_v I I I I #
coedge $-1 $643 $469 $471 $647 reversed $319 $-1 #
coedge $-1 $469 $642 $755 $756 reversed $319 $-1 #
coedge $-1 $477 $472 $469 $645 forward $467 $-1 #
edge $-1 $648 -18.137483522702219 $757 -9.5753238827928087 $644 $758 forward 7 unknown #
coedge $-1 $471 $470 $651 $759 reversed $201 $-1 #
edge $-1 $760 -97.32737295086163 $648 -81.606575719643942 $642 $761 forward 7 unknown #
vertex $-1 $473 $762 #
straight-curve $-1 24.905594848915491 40.101526835521355 14.83732290819394 1 0 0 I I #
coedge $-1 $755 $474 $477 $655 reversed $640 $-1 #
coedge $-1 $474 $755 $646 $759 forward $640 $-1 #
vertex $-1 $475 $763 #
straight-curve $-1 40.486485011089975 48.663686475430765 80.870740396938345 0 0 1 I I #
straight-curve $-1 40.486485011089975 -4.3445988094581338 83.278356768274378 0 0.54463902268945019 -0.83867057594974714 I I #
edge $-1 $757 -59.135894384571991 $478 -40.486485011089975 $650 $764 forward 7 unknown #
point $-1 40.486485011089975 48.663686475430765 14.837322908193947 #
point $-1 40.486485011089975 40.101526835521355 14.83732290819394 #
edge $-1 $765 1 $765 0 $481 $-1 forward 7 unknown #
vertex $-1 $482 $766 #
ellipse-curve $-1 45.814887689227703 41.225901490413371 6.1950496363271501 0 0.83867057594974714 0.54463902268945019 1.5 0 0 1 I I #
point $-1 47.314887689227703 44.382606655476089 8.2450378740467443 #
edge $-1 $767 1 $767 0 $485 $-1 forward 7 unknown #
vertex $-1 $486 $768 #
ellipse-curve $-1 53.807491706434277 41.225901490413371 6.1950496363271501 0 0.83867057594974714 0.54463902268945019 1.5 0 0 1 I I #
point $-1 55.307491706434277 44.382606655476089 8.2450378740467443 #
plane-surface $-1 72.032227546006652 0 0 -1 0 0 0 0 1 forward_v I I I I #
coedge $-1 $494 $492 $496 $671 reversed $341 $-1 #
edge $-1 $507 -14.837322908193947 $673 14.837322908193947 $506 $769 forward 7 unknown #
vertex $-1 $671 $770 #
straight-curve $-1 -72.032227546006652 -48.663686475430765 0 0 0 -1 I I #
edge $-1 $669 -48.663686475430765 $673 48.663686475430765 $667 $771 forward 7 unknown #
straight-curve $-1 0 -48.663686475430765 -14.837322908193947 -1 0 0 I I #
vertex $-1 $499 $772 #
straight-curve $-1 0 48.663686475430765 -14.837322908193947 1 0 0 I I #
point $-1 72.032227546006652 48.663686475430765 -14.837322908193947 #
point $-1 72.032227546006652 -48.663686475430765 -14.837322908193947 #
straight-curve $-1 -72.032227546006652 0 14.837322908193947 0 -1 0 I I #
point $-1 -72.032227546006652 48.663686475430765 14.837322908193947 #
point $-1 -72.032227546006652 -48.663686475430765 14.837322908193947 #
straight-curve $-1 72.032227546006652 -48.663686475430765 0 0 0 -1 I I #
straight-curve $-1 72.032227546006652 48.663686475430765 0 0 0 -1 I I #
plane-surface $-1 0 -48.663686475430765 0 0 1 0 0 0 1 forward_v I I I I #
coedge $-1 $773 $696 $520 $685 forward $517 $-1 #
coedge $-1 $686 $519 $528 $694 forward $360 $-1 #
edge $-1 $689 -4.0644040251368159 $687 4.0644040251368159 $520 $774 forward 7 unknown #
coedge $-1 $521 $684 $773 $775 forward $360 $-1 #
vertex $-1 $522 $776 #
straight-curve $-1 -80.972970022179922 48.663686475430765 -2.7759409646582602 1 0 0 I I #
vertex $-1 $523 $777 #
straight-curve $-1 -80.972970022179922 48.663686475430765 5.3528670856153715 -1 0 0 I I #
point $-1 -72.032227546006652 48.663686475430765 -2.7759409646582602 #
straight-curve $-1 -72.032227546006652 0 -2.7759409646582602 0 1 0 I I #
coedge $-1 $528 $527 $778 $779 forward $529 $-1 #
edge $-1 $530 -8.9407424761732699 $780 8.9407424761732699 $528 $781 forward 7 unknown #
point $-1 -72.032227546006652 -48.663686475430765 -2.7759409646582602 #
coedge $-1 $683 $778 $532 $697 reversed $517 $-1 #
edge $-1 $689 -48.663686475430765 $698 48.663686475430765 $696 $782 forward 7 unknown #
vertex $-1 $697 $783 #
straight-curve $-1 -80.972970022179922 -48.663686475430765 5.3528670856153715 1 0 0 I I #
edge $-1 $701 48.853432134188701 $704 61.072722292491534 $537 $784 forward 7 unknown #
vertex $-1 $551 $785 #
straight-curve $-1 17.225742535384057 -60.347957493243612 14.837322908193947 0 -1 0 I I #
edge $-1 $704 2.5602900505294031 $548 26.770614919179906 $547 $786 forward 7 unknown #
vertex $-1 $703 $787 #
straight-curve $-1 17.225742535384057 -48.663686475430765 2.618032749891114 0 0.8660253999169214 0.50000000669873634 I I #
point $-1 17.225742535384057 -27.499255466890425 14.837322908193947 #
point $-1 41.43606740403456 -48.663686475430765 2.618032749891114 #
straight-curve $-1 0 -48.663686475430765 14.837322908193947 1 0 0 I I #
vertex $-1 $554 $788 #
point $-1 27.142978212141344 -32.929778650790482 -0.19531485540682603 #
vertex $-1 $558 $789 #
point $-1 37.518831727277274 -32.929778650790482 -0.19531485540682603 #
coedge $-1 $573 $572 $565 $714 forward $562 $-1 #
edge $-1 $715 66.033417488744391 $718 79.217987557038924 $713 $790 forward 7 unknown #
vertex $-1 $577 $791 #
straight-curve $-1 -22.605000058743414 58.239010358223574 14.83732290819394 0 1 0 I I #
edge $-1 $718 6.6401476860012032 $574 25.289557059483219 $573 $792 forward 7 unknown #
vertex $-1 $717 $793 #
straight-curve $-1 -22.605000058743414 -4.3445988094581338 83.278356768274378 0 -0.54463902268945019 0.83867057594974714 I I #
point $-1 -22.605000058743414 40.101526835521355 14.83732290819394 #
point $-1 -41.25440943222543 48.663686475430765 1.6527528398994207 #
straight-curve $-1 0 48.663686475430765 14.837322908193947 -1 0 0 I I #
vertex $-1 $580 $794 #
point $-1 -34.426006754087709 41.225901490413371 6.1950496363271501 #
vertex $-1 $584 $795 #
point $-1 -26.433402736881135 41.225901490413371 6.1950496363271501 #
coedge $-1 $599 $598 $591 $728 forward $588 $-1 #
edge $-1 $729 66.033417488744391 $732 79.217987557038924 $727 $796 forward 7 unknown #
vertex $-1 $603 $797 #
straight-curve $-1 4.6419647556950494 58.239010358223574 14.83732290819394 0 1 0 I I #
edge $-1 $732 -6.9833347212180286 $600 11.666074652263987 $599 $798 forward 7 unknown #
vertex $-1 $731 $799 #
straight-curve $-1 4.6419647556950494 -4.3445988094581338 83.278356768274378 0 -0.54463902268945019 0.83867057594974714 I I #
point $-1 4.6419647556950494 40.101526835521355 14.83732290819394 #
point $-1 -14.007444617786966 48.663686475430765 1.6527528398994207 #
straight-curve $-1 0 48.663686475430765 14.837322908193947 -1 0 0 I I #
vertex $-1 $606 $800 #
point $-1 -7.1790419396492382 41.225901490413371 6.1950496363271501 #
vertex $-1 $610 $801 #
point $-1 0.81356207755733578 41.225901490413371 6.1950496363271501 #
coedge $-1 $625 $624 $617 $742 forward $614 $-1 #
edge $-1 $743 66.033417488744391 $746 79.217987557038924 $741 $802 forward 7 unknown #
vertex $-1 $629 $803 #
straight-curve $-1 31.88892957013352 58.239010358223574 14.83732290819394 0 1 0 I I #
edge $-1 $746 -20.606817128437264 $626 -1.9574077549552484 $625 $804 forward 7 unknown #
vertex $-1 $745 $805 #
straight-curve $-1 31.88892957013352 -4.3445988094581338 83.278356768274378 0 -0.54463902268945019 0.83867057594974714 I I #
point $-1 31.88892957013352 40.101526835521355 14.83732290819394 #
point $-1 13.239520196651505 48.663686475430765 1.6527528398994207 #
straight-curve $-1 0 48.663686475430765 14.837322908193947 -1 0 0 I I #
vertex $-1 $632 $806 #
point $-1 20.067922874789232 41.225901490413371 6.1950496363271501 #
vertex $-1 $636 $807 #
point $-1 28.060526891995806 41.225901490413371 6.1950496363271501 #
coedge $-1 $651 $650 $643 $756 forward $640 $-1 #
edge $-1 $757 66.033417488744391 $760 79.217987557038924 $755 $808 forward 7 unknown #
vertex $-1 $655 $809 #
straight-curve $-1 59.135894384571991 58.239010358223574 14.83732290819394 0 1 0 I I #
edge $-1 $760 -34.230299535656499 $652 -15.580890162174484 $651 $810 forward 7 unknown #
vertex $-1 $759 $811 #
straight-curve $-1 59.135894384571991 -4.3445988094581338 83.278356768274378 0 -0.54463902268945019 0.83867057594974714 I I #
point $-1 59.135894384571991 40.101526835521355 14.83732290819394 #
point $-1 40.486485011089975 48.663686475430765 1.6527528398994207 #
straight-curve $-1 0 48.663686475430765 14.837322908193947 -1 0 0 I I #
vertex $-1 $658 $812 #
point $-1 47.314887689227703 41.225901490413371 6.1950496363271501 #
vertex $-1 $662 $813 #
point $-1 55.307491706434277 41.225901490413371 6.1950496363271501 #
straight-curve $-1 -72.032227546006652 48.663686475430765 0 0 0 -1 I I #
point $-1 -72.032227546006652 -48.663686475430765 -14.837322908193947 #
straight-curve $-1 -72.032227546006652 0 -14.837322908193947 0 1 0 I I #
point $-1 -72.032227546006652 48.663686475430765 -14.837322908193947 #
coedge $-1 $778 $683 $686 $775 reversed $517 $-1 #
straight-curve $-1 -89.913712498353192 48.663686475430765 1.2884630604785556 0 0 -1 I I #
edge $-1 $780 -48.663686475430765 $687 48.663686475430765 $773 $814 forward 7 unknown #
point $-1 -89.913712498353192 48.663686475430765 -2.7759409646582602 #
point $-1 -89.913712498353192 48.663686475430765 5.3528670856153715 #
coedge $-1 $696 $773 $693 $779 reversed $517 $-1 #
edge $-1 $698 -4.0644040251368159 $780 4.0644040251368159 $778 $815 forward 7 unknown #
vertex $-1 $775 $816 #
straight-curve $-1 -80.972970022179922 -48.663686475430765 -2.7759409646582602 -1 0 0 I I #
straight-curve $-1 -89.913712498353192 0 5.3528670856153715 0 -1 0 I I #
point $-1 -89.913712498353192 -48.663686475430765 5.3528670856153715 #
straight-curve $-1 17.225742535384057 -48.663686475430765 63.690755042382648 0 0 -1 I I #
point $-1 17.225742535384057 -48.663686475430765 14.837322908193947 #
straight-curve $-1 14.665452484854654 -48.663686475430765 2.6180327498911153 1 0 0 I I #
point $-1 17.225742535384057 -48.663686475430765 2.618032749891114 #
point $-1 24.142978212141344 -31.429778630694273 -2.7933910551575902 #
point $-1 34.518831727277274 -31.429778630694273 -2.7933910551575902 #
straight-curve $-1 -22.605000058743414 48.663686475430765 80.870740396938345 0 0 -1 I I #
point $-1 -22.605000058743414 48.663686475430765 14.837322908193947 #
straight-curve $-1 -15.964852372742211 48.663686475430765 1.6527528398994207 -1 0 0 I I #
point $-1 -22.605000058743414 48.663686475430765 1.6527528398994207 #
point $-1 -35.926006754087709 39.967895626488747 5.3780911022929754 #
point $-1 -27.933402736881135 39.967895626488747 5.3780911022929754 #
straight-curve $-1 4.6419647556950494 48.663686475430765 80.870740396938345 0 0 -1 I I #
point $-1 4.6419647556950494 48.663686475430765 14.837322908193947 #
straight-curve $-1 -2.3413699655229792 48.663686475430765 1.6527528398994207 -1 0 0 I I #
point $-1 4.6419647556950494 48.663686475430765 1.6527528398994207 #
point $-1 -8.6790419396492382 39.967895626488747 5.3780911022929754 #
point $-1 -0.68643792244266422 39.967895626488747 5.3780911022929754 #
straight-curve $-1 31.88892957013352 48.663686475430765 80.870740396938345 0 0 -1 I I #
point $-1 31.88892957013352 48.663686475430765 14.837322908193947 #
straight-curve $-1 11.282112441696256 48.663686475430765 1.6527528398994207 -1 0 0 I I #
point $-1 31.88892957013352 48.663686475430765 1.6527528398994207 #
point $-1 18.567922874789232 39.967895626488747 5.3780911022929754 #
point $-1 26.560526891995806 39.967895626488747 5.3780911022929754 #
straight-curve $-1 59.135894384571991 48.663686475430765 80.870740396938345 0 0 -1 I I #
point $-1 59.135894384571991 48.663686475430765 14.837322908193947 #
straight-curve $-1 24.905594848915491 48.663686475430765 1.6527528398994207 -1 0 0 I I #
point $-1 59.135894384571991 48.663686475430765 1.6527528398994207 #
point $-1 45.814887689227703 39.967895626488747 5.3780911022929754 #
point $-1 53.807491706434277 39.967895626488747 5.3780911022929754 #
straight-curve $-1 -89.913712498353192 0 -2.7759409646582602 0 1 0 I I #
straight-curve $-1 -89.913712498353192 -48.663686475430765 1.2884630604785556 0 0 -1 I I #
point $-1 -89.913712498353192 -48.663686475430765 -2.7759409646582602 #
End-of-ACIS-data 