500 0 15 0           
7 Unknown 11 ACIS 5.0 NT 24 Thu Mar 25 18:58:18 1999 
-1 9.9999999999999995e-007 1e-010 
body $-1 $15 $-1 $16 #
body $-1 $17 $-1 $18 #
body $-1 $19 $-1 $20 #
body $-1 $21 $-1 $22 #
body $-1 $23 $-1 $24 #
body $-1 $25 $-1 $26 #
body $-1 $27 $-1 $28 #
body $-1 $29 $-1 $30 #
body $-1 $31 $-1 $32 #
body $-1 $33 $-1 $34 #
body $-1 $35 $-1 $36 #
body $-1 $37 $-1 $38 #
body $-1 $39 $-1 $40 #
body $-1 $41 $-1 $42 #
body $-1 $43 $-1 $44 #
lump $-1 $-1 $45 $0 #
transform $-1 1 0 0 0 1 0 0 0 1 59.573351237525557 26.29957922075338 7.5144062788311219 1 rotate no_reflect no_shear #
lump $-1 $-1 $46 $1 #
transform $-1 1 0 0 0 1 0 0 0 1 59.573351237525557 26.29957922075338 7.5144062788311219 1 rotate no_reflect no_shear #
lump $-1 $-1 $47 $2 #
transform $-1 1 0 0 0 1 0 0 0 1 59.573351237525557 26.29957922075338 7.5144062788311219 1 rotate no_reflect no_shear #
lump $-1 $-1 $48 $3 #
transform $-1 1 0 0 0 1 0 0 0 1 59.573351237525557 26.29957922075338 7.5144062788311219 1 rotate no_reflect no_shear #
lump $-1 $-1 $49 $4 #
transform $-1 1 0 0 0 1 0 0 0 1 59.573351237525557 26.29957922075338 7.5144062788311219 1 rotate no_reflect no_shear #
lump $-1 $-1 $50 $5 #
transform $-1 1 0 0 0 1 0 0 0 1 59.573351237525557 26.29957922075338 7.5144062788311219 1 rotate no_reflect no_shear #
lump $-1 $-1 $51 $6 #
transform $-1 1 0 0 0 1 0 0 0 1 59.573351237525557 26.29957922075338 7.5144062788311219 1 rotate no_reflect no_shear #
lump $-1 $-1 $52 $7 #
transform $-1 1 0 0 0 1 0 0 0 1 59.573351237525557 26.29957922075338 7.5144062788311219 1 rotate no_reflect no_shear #
lump $-1 $-1 $53 $8 #
transform $-1 1 0 0 0 1 0 0 0 1 59.573351237525557 26.29957922075338 7.5144062788311219 1 rotate no_reflect no_shear #
lump $-1 $-1 $54 $9 #
transform $-1 1 0 0 0 1 0 0 0 1 59.573351237525557 26.29957922075338 7.5144062788311219 1 rotate no_reflect no_shear #
lump $-1 $-1 $55 $10 #
transform $-1 1 0 0 0 1 0 0 0 1 59.573351237525557 26.29957922075338 7.5144062788311219 1 rotate no_reflect no_shear #
lump $-1 $-1 $56 $11 #
transform $-1 1 0 0 0 1 0 0 0 1 59.573351237525557 26.29957922075338 7.5144062788311219 1 rotate no_reflect no_shear #
lump $-1 $-1 $57 $12 #
transform $-1 1 0 0 0 1 0 0 0 1 59.573351237525557 26.29957922075338 7.5144062788311219 1 rotate no_reflect no_shear #
lump $-1 $-1 $58 $13 #
transform $-1 1 0 0 0 1 0 0 0 1 59.573351237525557 26.29957922075338 7.5144062788311219 1 rotate no_reflect no_shear #
lump $-1 $-1 $59 $14 #
transform $-1 1 0 0 0 1 0 0 0 1 59.573351237525557 26.29957922075338 7.5144062788311219 1 rotate no_reflect no_shear #
shell $-1 $-1 $-1 $60 $-1 $15 #
shell $-1 $-1 $-1 $61 $-1 $17 #
shell $-1 $-1 $-1 $62 $-1 $19 #
shell $-1 $-1 $-1 $63 $-1 $21 #
shell $-1 $-1 $-1 $64 $-1 $23 #
shell $-1 $-1 $-1 $65 $-1 $25 #
shell $-1 $-1 $-1 $66 $-1 $27 #
shell $-1 $-1 $-1 $67 $-1 $29 #
shell $-1 $-1 $-1 $68 $-1 $31 #
shell $-1 $-1 $-1 $69 $-1 $33 #
shell $-1 $-1 $-1 $70 $-1 $35 #
shell $-1 $-1 $-1 $71 $-1 $37 #
shell $-1 $-1 $-1 $72 $-1 $39 #
shell $-1 $-1 $-1 $73 $-1 $41 #
shell $-1 $-1 $-1 $74 $-1 $43 #
face $-1 $75 $76 $45 $-1 $77 forward single #
face $-1 $78 $79 $46 $-1 $80 reversed single #
face $-1 $81 $82 $47 $-1 $83 reversed single #
face $-1 $84 $85 $48 $-1 $86 reversed single #
face $-1 $87 $88 $49 $-1 $89 forward single #
face $-1 $90 $91 $50 $-1 $92 forward single #
face $-1 $93 $94 $51 $-1 $95 reversed single #
face $-1 $96 $97 $52 $-1 $98 forward single #
face $-1 $99 $100 $53 $-1 $101 forward single #
face $-1 $102 $103 $54 $-1 $104 reversed single #
face $-1 $105 $106 $55 $-1 $107 forward single #
face $-1 $108 $109 $56 $-1 $110 forward single #
face $-1 $111 $112 $57 $-1 $113 reversed single #
face $-1 $114 $115 $58 $-1 $116 forward single #
face $-1 $117 $118 $59 $-1 $119 forward single #
face $-1 $120 $121 $45 $-1 $122 reversed single #
loop $-1 $-1 $123 $60 #
plane-surface $-1 0 0 7.5144062788311219 0 0 1 1 0 0 forward_v I I I I #
face $-1 $124 $125 $46 $-1 $126 reversed single #
loop $-1 $-1 $127 $61 #
plane-surface $-1 -49.932533482182507 -23.269189123836743 0 1 0 0 0 0 -1 forward_v I I I I #
face $-1 $128 $129 $47 $-1 $130 reversed single #
loop $-1 $-1 $131 $62 #
plane-surface $-1 -48.432533482182507 20.238799026920109 0 0 1 0 0 0 1 forward_v I I I I #
face $-1 $132 $133 $48 $-1 $134 reversed single #
loop $-1 $-1 $135 $63 #
plane-surface $-1 -122.71148498258592 -18.222669162587213 105.11401323721391 0 1 0 -0.52991927123019833 0 0.84804809178421925 forward_v I I I I #
face $-1 $136 $137 $49 $-1 $138 forward single #
loop $-1 $139 $140 $64 #
cone-surface $-1 -56.441906087649095 -16.480631542588075 5.1900600427228847 0.52991927123019833 0 -0.84804809178421925 0.42402404589210962 0 0.26495963561509916 1 I I 0 1 0.5 forward I I I I #
face $-1 $141 $142 $50 $-1 $143 forward single #
loop $-1 $144 $145 $65 #
cone-surface $-1 -56.441906087649095 -13.867575112589368 5.1900600427228847 0.52991927123019833 0 -0.84804809178421925 0.42402404589210962 0 0.26495963561509916 1 I I 0 1 0.5 forward I I I I #
face $-1 $146 $147 $51 $-1 $148 reversed single #
loop $-1 $-1 $149 $66 #
plane-surface $-1 -122.71148498258592 -8.1032696491271601 105.11401323721391 0 1 0 -0.52991927123019833 0 0.84804809178421925 forward_v I I I I #
face $-1 $150 $151 $52 $-1 $152 forward single #
loop $-1 $153 $154 $67 #
cone-surface $-1 -56.441906087649095 -6.361232029128022 5.1900600427228847 0.52991927123019833 0 -0.84804809178421925 0.42402404589210962 0 0.26495963561509916 1 I I 0 1 0.5 forward I I I I #
face $-1 $155 $156 $53 $-1 $157 forward single #
loop $-1 $158 $159 $68 #
cone-surface $-1 -56.441906087649095 -3.7481755991293149 5.1900600427228847 0.52991927123019833 0 -0.84804809178421925 0.42402404589210962 0 0.26495963561509916 1 I I 0 1 0.5 forward I I I I #
face $-1 $160 $161 $54 $-1 $162 reversed single #
loop $-1 $-1 $163 $69 #
plane-surface $-1 -122.71148498258592 2.0161298643328927 105.11401323721391 0 1 0 -0.52991927123019833 0 0.84804809178421925 forward_v I I I I #
face $-1 $164 $165 $55 $-1 $166 forward single #
loop $-1 $167 $168 $70 #
cone-surface $-1 -56.441906087649095 3.7581674843320307 5.1900600427228847 0.52991927123019833 0 -0.84804809178421925 0.42402404589210962 0 0.26495963561509916 1 I I 0 1 0.5 forward I I I I #
face $-1 $169 $170 $56 $-1 $171 forward single #
loop $-1 $172 $173 $71 #
cone-surface $-1 -56.441906087649095 6.3712239143307343 5.1900600427228847 0.52991927123019833 0 -0.84804809178421925 0.42402404589210962 0 0.26495963561509916 1 I I 0 1 0.5 forward I I I I #
face $-1 $174 $175 $57 $-1 $176 reversed single #
loop $-1 $-1 $177 $72 #
plane-surface $-1 -122.71148498258592 12.135529377792949 105.11401323721391 0 1 0 -0.52991927123019833 0 0.84804809178421925 forward_v I I I I #
face $-1 $178 $179 $58 $-1 $180 forward single #
loop $-1 $181 $182 $73 #
cone-surface $-1 -56.441906087649095 13.87756699779208 5.1900600427228847 0.52991927123019833 0 -0.84804809178421925 0.42402404589210962 0 0.26495963561509916 1 I I 0 1 0.5 forward I I I I #
face $-1 $183 $184 $59 $-1 $185 forward single #
loop $-1 $186 $187 $74 #
cone-surface $-1 -56.441906087649095 16.490623427790787 5.1900600427228847 0.52991927123019833 0 -0.84804809178421925 0.42402404589210962 0 0.26495963561509916 1 I I 0 1 0.5 forward I I I I #
face $-1 $188 $189 $45 $-1 $190 reversed single #
loop $-1 $-1 $191 $75 #
plane-surface $-1 0 0 -7.5144062788311219 0 0 1 1 0 0 forward_v I I I I #
coedge $-1 $192 $193 $194 $195 forward $76 $-1 #
face $-1 $196 $197 $46 $-1 $198 reversed single #
loop $-1 $-1 $199 $78 #
plane-surface $-1 -48.432533482182507 -20.238799026920105 0 0 -1 0 0 0 -1 forward_v I I I I #
coedge $-1 $200 $201 $202 $203 forward $79 $-1 #
face $-1 $204 $205 $47 $-1 $206 reversed single #
loop $-1 $-1 $207 $81 #
plane-surface $-1 -49.932533482182507 23.269189123836746 0 1 0 0 0 0 -1 forward_v I I I I #
coedge $-1 $208 $209 $210 $211 forward $82 $-1 #
face $-1 $212 $213 $48 $-1 $214 reversed single #
loop $-1 $-1 $215 $84 #
plane-surface $-1 -59.573351237525564 -15.174103327588721 4.0718795608647014 -0.52991927123019833 0 0.84804809178421925 0.84804809178421925 0 0.52991927123019833 forward_v I I I I #
coedge $-1 $216 $217 $218 $219 reversed $85 $-1 #
face $-1 $-1 $220 $49 $-1 $221 forward single #
loop $-1 $222 $223 $87 #
cone-surface $-1 -55.932578256346076 -16.480631542588075 4.3749651426517984 0.52991927123019833 0 -0.84804809178421925 0.21201202294605481 0 0.13247981780754958 1 I I -0.70710678118654746 0.70710678118654746 0.25 forward I I I I #
loop $-1 $-1 $224 $64 #
coedge $-1 $140 $140 $225 $226 reversed $88 $-1 #
face $-1 $-1 $227 $50 $-1 $228 forward single #
loop $-1 $229 $230 $90 #
cone-surface $-1 -55.932578256346076 -13.867575112589368 4.3749651426517984 0.52991927123019833 0 -0.84804809178421925 0.21201202294605481 0 0.13247981780754958 1 I I -0.70710678118654746 0.70710678118654746 0.25 forward I I I I #
loop $-1 $-1 $231 $65 #
coedge $-1 $145 $145 $232 $233 reversed $91 $-1 #
face $-1 $234 $235 $51 $-1 $236 reversed single #
loop $-1 $-1 $237 $93 #
plane-surface $-1 -59.573351237525564 -5.0547038141286684 4.0718795608647014 -0.52991927123019833 0 0.84804809178421925 0.84804809178421925 0 0.52991927123019833 forward_v I I I I #
coedge $-1 $238 $239 $240 $241 reversed $94 $-1 #
face $-1 $-1 $242 $52 $-1 $243 forward single #
loop $-1 $244 $245 $96 #
cone-surface $-1 -55.932578256346076 -6.361232029128022 4.3749651426517984 0.52991927123019833 0 -0.84804809178421925 0.21201202294605481 0 0.13247981780754958 1 I I -0.70710678118654746 0.70710678118654746 0.25 forward I I I I #
loop $-1 $-1 $246 $67 #
coedge $-1 $154 $154 $247 $248 reversed $97 $-1 #
face $-1 $-1 $249 $53 $-1 $250 forward single #
loop $-1 $251 $252 $99 #
cone-surface $-1 -55.932578256346076 -3.7481755991293149 4.3749651426517984 0.52991927123019833 0 -0.84804809178421925 0.21201202294605481 0 0.13247981780754958 1 I I -0.70710678118654746 0.70710678118654746 0.25 forward I I I I #
loop $-1 $-1 $253 $68 #
coedge $-1 $159 $159 $254 $255 reversed $100 $-1 #
face $-1 $256 $257 $54 $-1 $258 reversed single #
loop $-1 $-1 $259 $102 #
plane-surface $-1 -59.573351237525564 5.0646956993313843 4.0718795608647014 -0.52991927123019833 0 0.84804809178421925 0.84804809178421925 0 0.52991927123019833 forward_v I I I I #
coedge $-1 $260 $261 $262 $263 reversed $103 $-1 #
face $-1 $-1 $264 $55 $-1 $265 forward single #
loop $-1 $266 $267 $105 #
cone-surface $-1 -55.932578256346076 3.7581674843320307 4.3749651426517984 0.52991927123019833 0 -0.84804809178421925 0.21201202294605481 0 0.13247981780754958 1 I I -0.70710678118654746 0.70710678118654746 0.25 forward I I I I #
loop $-1 $-1 $268 $70 #
coedge $-1 $168 $168 $269 $270 reversed $106 $-1 #
face $-1 $-1 $271 $56 $-1 $272 forward single #
loop $-1 $273 $274 $108 #
cone-surface $-1 -55.932578256346076 6.3712239143307343 4.3749651426517984 0.52991927123019833 0 -0.84804809178421925 0.21201202294605481 0 0.13247981780754958 1 I I -0.70710678118654746 0.70710678118654746 0.25 forward I I I I #
loop $-1 $-1 $275 $71 #
coedge $-1 $173 $173 $276 $277 reversed $109 $-1 #
face $-1 $278 $279 $57 $-1 $280 reversed single #
loop $-1 $-1 $281 $111 #
plane-surface $-1 -59.573351237525564 15.184095212791441 4.0718795608647014 -0.52991927123019833 0 0.84804809178421925 0.84804809178421925 0 0.52991927123019833 forward_v I I I I #
coedge $-1 $282 $283 $284 $285 reversed $112 $-1 #
face $-1 $-1 $286 $58 $-1 $287 forward single #
loop $-1 $288 $289 $114 #
cone-surface $-1 -55.932578256346076 13.87756699779208 4.3749651426517984 0.52991927123019833 0 -0.84804809178421925 0.21201202294605481 0 0.13247981780754958 1 I I -0.70710678118654746 0.70710678118654746 0.25 forward I I I I #
loop $-1 $-1 $290 $73 #
coedge $-1 $182 $182 $291 $292 reversed $115 $-1 #
face $-1 $-1 $293 $59 $-1 $294 forward single #
loop $-1 $295 $296 $117 #
cone-surface $-1 -55.932578256346076 16.490623427790787 4.3749651426517984 0.52991927123019833 0 -0.84804809178421925 0.21201202294605481 0 0.13247981780754958 1 I I -0.70710678118654746 0.70710678118654746 0.25 forward I I I I #
loop $-1 $-1 $297 $74 #
coedge $-1 $187 $187 $298 $299 reversed $118 $-1 #
face $-1 $300 $301 $45 $-1 $302 reversed single #
loop $-1 $-1 $303 $120 #
plane-surface $-1 0 -26.29957922075338 0 0 1 0 0 0 1 forward_v I I I I #
coedge $-1 $304 $305 $306 $307 forward $121 $-1 #
coedge $-1 $308 $123 $309 $310 forward $76 $-1 #
coedge $-1 $123 $308 $311 $312 forward $76 $-1 #
coedge $-1 $313 $314 $123 $195 reversed $315 $-1 #
edge $-1 $316 -26.29957922075338 $317 26.29957922075338 $194 $318 forward 7 unknown #
face $-1 $319 $320 $46 $-1 $321 forward single #
loop $-1 $-1 $322 $124 #
plane-surface $-1 -46.932533482182507 -23.269189123836743 0 -1 0 0 0 0 1 forward_v I I I I #
coedge $-1 $323 $324 $325 $326 forward $125 $-1 #
coedge $-1 $327 $127 $328 $329 reversed $79 $-1 #
coedge $-1 $127 $327 $330 $331 reversed $79 $-1 #
coedge $-1 $324 $323 $127 $203 reversed $125 $-1 #
edge $-1 $332 -7.5144062788311219 $333 7.5144062788311219 $202 $334 forward 7 unknown #
face $-1 $335 $336 $47 $-1 $337 reversed single #
loop $-1 $-1 $338 $128 #
plane-surface $-1 -46.932533482182507 23.269189123836746 0 -1 0 0 0 0 1 forward_v I I I I #
coedge $-1 $339 $340 $341 $342 reversed $129 $-1 #
coedge $-1 $343 $131 $344 $345 reversed $82 $-1 #
coedge $-1 $131 $343 $346 $347 reversed $82 $-1 #
coedge $-1 $340 $339 $131 $211 reversed $129 $-1 #
edge $-1 $348 -7.5144062788311219 $349 7.5144062788311219 $210 $350 forward 7 unknown #
face $-1 $351 $352 $48 $-1 $353 reversed single #
loop $-1 $-1 $354 $132 #
plane-surface $-1 -122.71148498258592 -12.12553749259023 105.11401323721391 0 -1 0 0.52991927123019833 0 -0.84804809178421925 forward_v I I I I #
coedge $-1 $355 $356 $357 $358 reversed $133 $-1 #
coedge $-1 $217 $135 $359 $360 reversed $85 $-1 #
coedge $-1 $135 $216 $355 $361 reversed $85 $-1 #
coedge $-1 $357 $362 $135 $219 forward $363 $-1 #
edge $-1 $364 1.7823912537674005 $365 7.2915855265293814 $218 $366 forward 7 unknown #
loop $-1 $-1 $225 $136 #
plane-surface $-1 -59.573351237525564 -15.174103327588721 4.0718795608647014 -0.52991927123019833 0 0.84804809178421925 0.84804809178421925 0 0.52991927123019833 forward_v I I I I #
loop $-1 $-1 $367 $87 #
coedge $-1 $223 $223 $224 $368 reversed $137 $-1 #
coedge $-1 $224 $224 $223 $368 forward $139 $-1 #
coedge $-1 $225 $225 $140 $226 forward $220 $-1 #
edge $-1 $369 0 $369 6.2831853071796004 $225 $370 forward 7 unknown #
loop $-1 $-1 $232 $141 #
plane-surface $-1 -59.573351237525564 -15.174103327588721 4.0718795608647014 -0.52991927123019833 0 0.84804809178421925 0.84804809178421925 0 0.52991927123019833 forward_v I I I I #
loop $-1 $-1 $371 $90 #
coedge $-1 $230 $230 $231 $372 reversed $142 $-1 #
coedge $-1 $231 $231 $230 $372 forward $144 $-1 #
coedge $-1 $232 $232 $145 $233 forward $227 $-1 #
edge $-1 $373 0 $373 6.2831853071796004 $232 $374 forward 7 unknown #
face $-1 $375 $376 $51 $-1 $377 forward single #
loop $-1 $-1 $378 $146 #
plane-surface $-1 -122.71148498258592 -2.0061379791301768 105.11401323721391 0 -1 0 0.52991927123019833 0 -0.84804809178421925 forward_v I I I I #
coedge $-1 $379 $380 $381 $382 reversed $147 $-1 #
coedge $-1 $239 $149 $383 $384 reversed $94 $-1 #
coedge $-1 $149 $238 $379 $385 reversed $94 $-1 #
coedge $-1 $381 $386 $149 $241 forward $376 $-1 #
edge $-1 $387 1.7823912537674005 $388 7.2915855265293814 $240 $389 forward 7 unknown #
loop $-1 $-1 $247 $150 #
plane-surface $-1 -59.573351237525564 -5.0547038141286684 4.0718795608647014 -0.52991927123019833 0 0.84804809178421925 0.84804809178421925 0 0.52991927123019833 forward_v I I I I #
loop $-1 $-1 $390 $96 #
coedge $-1 $245 $245 $246 $391 reversed $151 $-1 #
coedge $-1 $246 $246 $245 $391 forward $153 $-1 #
coedge $-1 $247 $247 $154 $248 forward $242 $-1 #
edge $-1 $392 0 $392 6.2831853071796004 $247 $393 forward 7 unknown #
loop $-1 $-1 $254 $155 #
plane-surface $-1 -59.573351237525564 -5.0547038141286684 4.0718795608647014 -0.52991927123019833 0 0.84804809178421925 0.84804809178421925 0 0.52991927123019833 forward_v I I I I #
loop $-1 $-1 $394 $99 #
coedge $-1 $252 $252 $253 $395 reversed $156 $-1 #
coedge $-1 $253 $253 $252 $395 forward $158 $-1 #
coedge $-1 $254 $254 $159 $255 forward $249 $-1 #
edge $-1 $396 0 $396 6.2831853071796004 $254 $397 forward 7 unknown #
face $-1 $398 $399 $54 $-1 $400 forward single #
loop $-1 $-1 $401 $160 #
plane-surface $-1 -122.71148498258592 8.113261534329876 105.11401323721391 0 -1 0 0.52991927123019833 0 -0.84804809178421925 forward_v I I I I #
coedge $-1 $402 $403 $404 $405 reversed $161 $-1 #
coedge $-1 $261 $163 $406 $407 reversed $103 $-1 #
coedge $-1 $163 $260 $402 $408 reversed $103 $-1 #
coedge $-1 $404 $409 $163 $263 forward $399 $-1 #
edge $-1 $410 1.7823912537674005 $411 7.2915855265293814 $262 $412 forward 7 unknown #
loop $-1 $-1 $269 $164 #
plane-surface $-1 -59.573351237525564 5.0646956993313843 4.0718795608647014 -0.52991927123019833 0 0.84804809178421925 0.84804809178421925 0 0.52991927123019833 forward_v I I I I #
loop $-1 $-1 $413 $105 #
coedge $-1 $267 $267 $268 $414 reversed $165 $-1 #
coedge $-1 $268 $268 $267 $414 forward $167 $-1 #
coedge $-1 $269 $269 $168 $270 forward $264 $-1 #
edge $-1 $415 0 $415 6.2831853071796004 $269 $416 forward 7 unknown #
loop $-1 $-1 $276 $169 #
plane-surface $-1 -59.573351237525564 5.0646956993313843 4.0718795608647014 -0.52991927123019833 0 0.84804809178421925 0.84804809178421925 0 0.52991927123019833 forward_v I I I I #
loop $-1 $-1 $417 $108 #
coedge $-1 $274 $274 $275 $418 reversed $170 $-1 #
coedge $-1 $275 $275 $274 $418 forward $172 $-1 #
coedge $-1 $276 $276 $173 $277 forward $271 $-1 #
edge $-1 $419 0 $419 6.2831853071796004 $276 $420 forward 7 unknown #
face $-1 $421 $422 $57 $-1 $423 forward single #
loop $-1 $-1 $424 $174 #
plane-surface $-1 -122.71148498258592 18.232661047789932 105.11401323721391 0 -1 0 0.52991927123019833 0 -0.84804809178421925 forward_v I I I I #
coedge $-1 $425 $426 $427 $428 reversed $175 $-1 #
coedge $-1 $283 $177 $429 $430 reversed $112 $-1 #
coedge $-1 $177 $282 $425 $431 reversed $112 $-1 #
coedge $-1 $427 $432 $177 $285 forward $422 $-1 #
edge $-1 $433 1.7823912537674005 $434 7.2915855265293814 $284 $435 forward 7 unknown #
loop $-1 $-1 $291 $178 #
plane-surface $-1 -59.573351237525564 15.184095212791441 4.0718795608647014 -0.52991927123019833 0 0.84804809178421925 0.84804809178421925 0 0.52991927123019833 forward_v I I I I #
loop $-1 $-1 $436 $114 #
coedge $-1 $289 $289 $290 $437 reversed $179 $-1 #
coedge $-1 $290 $290 $289 $437 forward $181 $-1 #
coedge $-1 $291 $291 $182 $292 forward $286 $-1 #
edge $-1 $438 0 $438 6.2831853071796004 $291 $439 forward 7 unknown #
loop $-1 $-1 $298 $183 #
plane-surface $-1 -59.573351237525564 15.184095212791441 4.0718795608647014 -0.52991927123019833 0 0.84804809178421925 0.84804809178421925 0 0.52991927123019833 forward_v I I I I #
loop $-1 $-1 $440 $117 #
coedge $-1 $296 $296 $297 $441 reversed $184 $-1 #
coedge $-1 $297 $297 $296 $441 forward $186 $-1 #
coedge $-1 $298 $298 $187 $299 forward $293 $-1 #
edge $-1 $442 0 $442 6.2831853071796004 $298 $443 forward 7 unknown #
face $-1 $444 $445 $45 $-1 $446 reversed single #
loop $-1 $-1 $447 $188 #
plane-surface $-1 -59.573351237525557 0 0 1 0 0 0 0 -1 forward_v I I I I #
coedge $-1 $448 $311 $449 $450 forward $189 $-1 #
coedge $-1 $451 $191 $448 $452 forward $121 $-1 #
coedge $-1 $191 $451 $453 $454 forward $121 $-1 #
coedge $-1 $314 $313 $191 $307 reversed $315 $-1 #
edge $-1 $455 -26.29957922075338 $456 26.29957922075338 $306 $457 forward 7 unknown #
coedge $-1 $193 $192 $458 $459 forward $76 $-1 #
coedge $-1 $460 $461 $192 $310 reversed $445 $-1 #
edge $-1 $317 -59.573351237525557 $462 59.573351237525557 $309 $463 forward 7 unknown #
coedge $-1 $303 $464 $193 $312 reversed $189 $-1 #
edge $-1 $465 -59.573351237525557 $316 59.573351237525557 $311 $466 forward 7 unknown #
coedge $-1 $306 $194 $464 $467 forward $315 $-1 #
coedge $-1 $194 $306 $460 $468 reversed $315 $-1 #
loop $-1 $-1 $313 $444 #
vertex $-1 $195 $469 #
vertex $-1 $195 $470 #
straight-curve $-1 59.573351237525557 0 7.5144062788311219 0 1 0 I I #
face $-1 $471 $472 $46 $-1 $473 reversed single #
loop $-1 $-1 $474 $196 #
plane-surface $-1 0 0 7.5144062788311219 0 0 1 1 0 0 forward_v I I I I #
coedge $-1 $475 $476 $477 $478 reversed $197 $-1 #
coedge $-1 $202 $199 $479 $480 reversed $125 $-1 #
coedge $-1 $199 $202 $481 $482 reversed $125 $-1 #
coedge $-1 $476 $475 $199 $326 reversed $197 $-1 #
edge $-1 $483 -7.5144062788311219 $484 7.5144062788311219 $325 $485 forward 7 unknown #
coedge $-1 $201 $200 $486 $487 reversed $79 $-1 #
coedge $-1 $479 $488 $200 $329 forward $472 $-1 #
edge $-1 $489 -14.664984658835008 $333 -8.6042044650017342 $328 $490 forward 7 unknown #
coedge $-1 $491 $481 $201 $331 forward $320 $-1 #
edge $-1 $332 8.6042044650017342 $492 14.664984658835008 $330 $493 forward 7 unknown #
vertex $-1 $331 $494 #
vertex $-1 $329 $495 #
straight-curve $-1 -49.932533482182507 -20.238799026920105 0 0 0 -1 I I #
face $-1 $496 $497 $47 $-1 $498 forward single #
loop $-1 $-1 $499 $204 #
plane-surface $-1 0 0 -7.5144062788311219 0 0 1 1 0 0 forward_v I I I I #
coedge $-1 $500 $501 $343 $502 forward $205 $-1 #
coedge $-1 $210 $207 $503 $504 reversed $129 $-1 #
coedge $-1 $207 $210 $505 $506 reversed $129 $-1 #
coedge $-1 $507 $508 $207 $342 forward $509 $-1 #
edge $-1 $510 -7.5144062788311219 $511 7.5144062788311219 $341 $512 forward 7 unknown #
coedge $-1 $209 $208 $338 $502 reversed $82 $-1 #
coedge $-1 $503 $499 $208 $345 forward $336 $-1 #
edge $-1 $513 22.716266741091253 $349 25.716266741091253 $344 $514 forward 7 unknown #
coedge $-1 $515 $505 $209 $347 forward $497 $-1 #
edge $-1 $348 -25.716266741091253 $516 -22.716266741091253 $346 $517 forward 7 unknown #
vertex $-1 $347 $518 #
vertex $-1 $345 $519 #
straight-curve $-1 -49.932533482182507 20.238799026920109 0 0 0 -1 I I #
face $-1 $-1 $363 $48 $-1 $520 forward single #
loop $-1 $-1 $521 $212 #
plane-surface $-1 -59.573351237525557 0 0 1 0 0 0 0 -1 forward_v I I I I #
coedge $-1 $522 $523 $524 $525 reversed $213 $-1 #
coedge $-1 $526 $215 $217 $361 forward $133 $-1 #
coedge $-1 $215 $526 $522 $527 forward $133 $-1 #
coedge $-1 $524 $218 $215 $358 forward $363 $-1 #
edge $-1 $365 -10.635617498792852 $528 -4.5384858287958689 $357 $529 forward 7 unknown #
coedge $-1 $530 $531 $216 $360 forward $352 $-1 #
edge $-1 $532 -48.485127057742247 $364 -45.042600339775831 $359 $533 forward 7 unknown #
edge $-1 $365 -6.4963229398596054 $532 -8.3790584163743152e-015 $217 $534 forward 7 unknown #
coedge $-1 $218 $524 $530 $535 forward $363 $-1 #
loop $-1 $-1 $524 $351 #
vertex $-1 $360 $536 #
vertex $-1 $219 $537 #
straight-curve $-1 -61.355742491292958 -18.222669162587213 7.5144062788311246 1 0 0 I I #
coedge $-1 $367 $367 $-1 $538 reversed $222 $-1 #
edge $-1 $539 0 $539 6.2831853071796004 $223 $540 forward 7 unknown #
vertex $-1 $226 $541 #
ellipse-curve $-1 -56.818754101144563 -16.480631542588075 5.7931429198479156 -0.52991927123019833 0 0.84804809178421925 0.42402404589210962 0 0.26495963561509916 1 I I #
coedge $-1 $371 $371 $-1 $542 reversed $229 $-1 #
edge $-1 $543 0 $543 6.2831853071796004 $230 $544 forward 7 unknown #
vertex $-1 $233 $545 #
ellipse-curve $-1 -56.818754101144563 -13.867575112589368 5.7931429198479156 -0.52991927123019833 0 0.84804809178421925 0.42402404589210962 0 0.26495963561509916 1 I I #
face $-1 $-1 $546 $51 $-1 $547 reversed single #
loop $-1 $-1 $240 $234 #
plane-surface $-1 0 0 7.5144062788311219 0 0 1 1 0 0 forward_v I I I I #
coedge $-1 $548 $549 $550 $551 reversed $235 $-1 #
coedge $-1 $552 $237 $239 $385 forward $147 $-1 #
coedge $-1 $237 $552 $548 $553 forward $147 $-1 #
coedge $-1 $550 $240 $237 $382 forward $376 $-1 #
edge $-1 $388 -5.5759177420628259 $554 0.52121392793415744 $381 $555 forward 7 unknown #
coedge $-1 $556 $557 $238 $384 forward $546 $-1 #
edge $-1 $558 -48.485127057742247 $387 -45.042600339775831 $383 $559 forward 7 unknown #
edge $-1 $388 -6.4963229398596054 $558 -8.3790584163743152e-015 $239 $560 forward 7 unknown #
coedge $-1 $240 $550 $556 $561 forward $376 $-1 #
vertex $-1 $384 $562 #
vertex $-1 $241 $563 #
straight-curve $-1 -61.355742491292958 -8.1032696491271601 7.5144062788311246 1 0 0 I I #
coedge $-1 $390 $390 $-1 $564 reversed $244 $-1 #
edge $-1 $565 0 $565 6.2831853071796004 $245 $566 forward 7 unknown #
vertex $-1 $248 $567 #
ellipse-curve $-1 -56.818754101144563 -6.361232029128022 5.7931429198479156 -0.52991927123019833 0 0.84804809178421925 0.42402404589210962 0 0.26495963561509916 1 I I #
coedge $-1 $394 $394 $-1 $568 reversed $251 $-1 #
edge $-1 $569 0 $569 6.2831853071796004 $252 $570 forward 7 unknown #
vertex $-1 $255 $571 #
ellipse-curve $-1 -56.818754101144563 -3.7481755991293149 5.7931429198479156 -0.52991927123019833 0 0.84804809178421925 0.42402404589210962 0 0.26495963561509916 1 I I #
face $-1 $-1 $572 $54 $-1 $573 reversed single #
loop $-1 $-1 $262 $256 #
plane-surface $-1 0 0 7.5144062788311219 0 0 1 1 0 0 forward_v I I I I #
coedge $-1 $574 $575 $576 $577 reversed $257 $-1 #
coedge $-1 $578 $259 $261 $408 forward $161 $-1 #
coedge $-1 $259 $578 $574 $579 forward $161 $-1 #
coedge $-1 $576 $262 $259 $405 forward $399 $-1 #
edge $-1 $411 -0.5162179853327995 $580 5.5809136846641838 $404 $581 forward 7 unknown #
coedge $-1 $582 $583 $260 $407 forward $572 $-1 #
edge $-1 $584 -48.485127057742247 $410 -45.042600339775831 $406 $585 forward 7 unknown #
edge $-1 $411 -6.4963229398596054 $584 -8.3790584163743152e-015 $261 $586 forward 7 unknown #
coedge $-1 $262 $576 $582 $587 forward $399 $-1 #
vertex $-1 $263 $588 #
vertex $-1 $263 $589 #
straight-curve $-1 -61.355742491292958 2.0161298643328927 7.5144062788311246 1 0 0 I I #
coedge $-1 $413 $413 $-1 $590 reversed $266 $-1 #
edge $-1 $591 0 $591 6.2831853071796004 $267 $592 forward 7 unknown #
vertex $-1 $270 $593 #
ellipse-curve $-1 -56.818754101144563 3.7581674843320307 5.7931429198479156 -0.52991927123019833 0 0.84804809178421925 0.42402404589210962 0 0.26495963561509916 1 I I #
coedge $-1 $417 $417 $-1 $594 reversed $273 $-1 #
edge $-1 $595 0 $595 6.2831853071796004 $274 $596 forward 7 unknown #
vertex $-1 $277 $597 #
ellipse-curve $-1 -56.818754101144563 6.3712239143307343 5.7931429198479156 -0.52991927123019833 0 0.84804809178421925 0.42402404589210962 0 0.26495963561509916 1 I I #
face $-1 $-1 $598 $57 $-1 $599 reversed single #
loop $-1 $-1 $284 $278 #
plane-surface $-1 0 0 7.5144062788311219 0 0 1 1 0 0 forward_v I I I I #
coedge $-1 $600 $601 $602 $603 reversed $279 $-1 #
coedge $-1 $604 $281 $283 $431 forward $175 $-1 #
coedge $-1 $281 $604 $600 $605 forward $175 $-1 #
coedge $-1 $602 $284 $281 $428 forward $422 $-1 #
edge $-1 $434 4.5434817713972286 $606 10.640613441394212 $427 $607 forward 7 unknown #
coedge $-1 $608 $609 $282 $430 forward $598 $-1 #
edge $-1 $610 -48.485127057742247 $433 -45.042600339775831 $429 $611 forward 7 unknown #
edge $-1 $434 -6.4963229398596054 $610 -8.3790584163743152e-015 $283 $612 forward 7 unknown #
coedge $-1 $284 $602 $608 $613 forward $422 $-1 #
vertex $-1 $285 $614 #
vertex $-1 $285 $615 #
straight-curve $-1 -61.355742491292958 12.135529377792949 7.5144062788311246 1 0 0 I I #
coedge $-1 $436 $436 $-1 $616 reversed $288 $-1 #
edge $-1 $617 0 $617 6.2831853071796004 $289 $618 forward 7 unknown #
vertex $-1 $292 $619 #
ellipse-curve $-1 -56.818754101144563 13.87756699779208 5.7931429198479156 -0.52991927123019833 0 0.84804809178421925 0.42402404589210962 0 0.26495963561509916 1 I I #
coedge $-1 $440 $440 $-1 $620 reversed $295 $-1 #
edge $-1 $621 0 $621 6.2831853071796004 $296 $622 forward 7 unknown #
vertex $-1 $299 $623 #
ellipse-curve $-1 -56.818754101144563 16.490623427790787 5.7931429198479156 -0.52991927123019833 0 0.84804809178421925 0.42402404589210962 0 0.26495963561509916 1 I I #
face $-1 $-1 $315 $45 $-1 $624 reversed single #
loop $-1 $-1 $460 $300 #
plane-surface $-1 0 26.29957922075338 0 0 -1 0 0 0 -1 forward_v I I I I #
coedge $-1 $625 $458 $461 $626 forward $301 $-1 #
coedge $-1 $464 $303 $304 $452 reversed $189 $-1 #
coedge $-1 $458 $625 $303 $450 reversed $301 $-1 #
edge $-1 $465 -7.5144062788311219 $627 7.5144062788311219 $449 $628 forward 7 unknown #
coedge $-1 $305 $304 $625 $629 forward $121 $-1 #
edge $-1 $456 -59.573351237525557 $627 59.573351237525557 $448 $630 forward 7 unknown #
coedge $-1 $461 $460 $305 $454 reversed $445 $-1 #
edge $-1 $631 -59.573351237525557 $455 59.573351237525557 $453 $632 forward 7 unknown #
vertex $-1 $307 $633 #
vertex $-1 $467 $634 #
straight-curve $-1 59.573351237525557 0 -7.5144062788311219 0 -1 0 I I #
coedge $-1 $447 $449 $308 $459 reversed $301 $-1 #
edge $-1 $462 -26.29957922075338 $465 26.29957922075338 $458 $635 forward 7 unknown #
coedge $-1 $453 $309 $314 $468 forward $445 $-1 #
coedge $-1 $309 $453 $447 $626 reversed $445 $-1 #
vertex $-1 $310 $636 #
straight-curve $-1 0 26.29957922075338 7.5144062788311219 -1 0 0 I I #
coedge $-1 $311 $448 $313 $467 reversed $189 $-1 #
vertex $-1 $459 $637 #
straight-curve $-1 0 -26.29957922075338 7.5144062788311219 1 0 0 I I #
edge $-1 $316 -7.5144062788311219 $456 7.5144062788311219 $313 $638 forward 7 unknown #
edge $-1 $317 -7.5144062788311219 $455 7.5144062788311219 $314 $639 forward 7 unknown #
point $-1 59.573351237525557 -26.29957922075338 7.5144062788311219 #
point $-1 59.573351237525557 26.29957922075338 7.5144062788311219 #
face $-1 $-1 $640 $46 $-1 $641 reversed single #
loop $-1 $-1 $642 $319 #
plane-surface $-1 0 0 -7.5144062788311219 0 0 1 1 0 0 forward_v I I I I #
coedge $-1 $481 $491 $476 $643 forward $320 $-1 #
coedge $-1 $325 $322 $642 $644 reversed $197 $-1 #
coedge $-1 $322 $325 $474 $643 reversed $197 $-1 #
coedge $-1 $645 $646 $322 $478 forward $640 $-1 #
edge $-1 $647 -7.5144062788311219 $648 7.5144062788311219 $477 $649 forward 7 unknown #
coedge $-1 $642 $328 $323 $480 forward $472 $-1 #
edge $-1 $333 -25.716266741091253 $484 -22.716266741091253 $479 $650 forward 7 unknown #
coedge $-1 $330 $474 $324 $482 forward $320 $-1 #
edge $-1 $483 22.716266741091253 $332 25.716266741091253 $481 $651 forward 7 unknown #
vertex $-1 $482 $652 #
vertex $-1 $480 $653 #
straight-curve $-1 -46.932533482182507 -20.238799026920105 0 0 0 -1 I I #
coedge $-1 $646 $645 $327 $487 forward $640 $-1 #
edge $-1 $492 -7.5144062788311219 $489 7.5144062788311219 $486 $654 forward 7 unknown #
coedge $-1 $328 $642 $646 $655 forward $472 $-1 #
vertex $-1 $329 $656 #
straight-curve $-1 -49.932533482182507 -11.634594561918371 -7.5144062788311219 0 1 0 I I #
coedge $-1 $474 $330 $645 $657 forward $320 $-1 #
vertex $-1 $657 $658 #
straight-curve $-1 -49.932533482182507 -11.634594561918371 7.5144062788311219 0 -1 0 I I #
point $-1 -49.932533482182507 -20.238799026920105 7.5144062788311219 #
point $-1 -49.932533482182507 -20.238799026920105 -7.5144062788311219 #
face $-1 $-1 $509 $47 $-1 $659 reversed single #
loop $-1 $-1 $515 $335 #
plane-surface $-1 0 0 7.5144062788311219 0 0 1 1 0 0 forward_v I I I I #
coedge $-1 $344 $660 $500 $661 forward $336 $-1 #
coedge $-1 $662 $338 $499 $661 reversed $205 $-1 #
coedge $-1 $338 $662 $515 $663 reversed $205 $-1 #
edge $-1 $516 -7.5144062788311219 $513 7.5144062788311219 $338 $664 forward 7 unknown #
coedge $-1 $660 $344 $339 $504 forward $336 $-1 #
edge $-1 $349 8.604204465001736 $510 14.66498465883501 $503 $665 forward 7 unknown #
coedge $-1 $346 $666 $340 $506 forward $497 $-1 #
edge $-1 $511 -14.66498465883501 $348 -8.604204465001736 $505 $667 forward 7 unknown #
coedge $-1 $668 $341 $666 $669 reversed $509 $-1 #
coedge $-1 $341 $668 $660 $670 reversed $509 $-1 #
loop $-1 $-1 $668 $496 #
vertex $-1 $670 $671 #
vertex $-1 $342 $672 #
straight-curve $-1 -49.932533482182507 26.29957922075338 0 0 0 1 I I #
vertex $-1 $345 $673 #
straight-curve $-1 -24.216266741091253 20.238799026920109 -7.5144062788311219 -1 0 0 I I #
coedge $-1 $666 $346 $501 $663 forward $497 $-1 #
vertex $-1 $347 $674 #
straight-curve $-1 -24.216266741091253 20.238799026920109 7.5144062788311219 1 0 0 I I #
point $-1 -49.932533482182507 20.238799026920109 7.5144062788311219 #
point $-1 -49.932533482182507 20.238799026920109 -7.5144062788311219 #
plane-surface $-1 0 0 7.5144062788311219 0 0 1 1 0 0 forward_v I I I I #
coedge $-1 $531 $530 $523 $675 forward $352 $-1 #
coedge $-1 $523 $354 $356 $527 reversed $213 $-1 #
coedge $-1 $354 $522 $521 $675 reversed $213 $-1 #
coedge $-1 $362 $357 $354 $525 forward $363 $-1 #
edge $-1 $528 -7.2915855265293814 $676 -1.7823912537674005 $524 $677 forward 7 unknown #
coedge $-1 $356 $355 $531 $678 reversed $133 $-1 #
edge $-1 $679 8.3790584163743152e-015 $528 6.4963229398596054 $522 $680 forward 7 unknown #
vertex $-1 $358 $681 #
straight-curve $-1 -54.064156964763583 -7.5870516637943606 7.514406278831121 0 1 0 I I #
coedge $-1 $521 $359 $362 $535 reversed $352 $-1 #
coedge $-1 $359 $521 $526 $678 forward $352 $-1 #
vertex $-1 $360 $682 #
straight-curve $-1 -59.573351237525557 -18.222669162587213 52.557006618606955 0 0 1 I I #
straight-curve $-1 -59.573351237525564 -18.222669162587213 4.0718795608647014 -0.84804809178421925 0 -0.52991927123019833 I I #
edge $-1 $676 12.12553749259023 $364 18.222669162587213 $530 $683 forward 7 unknown #
point $-1 -59.573351237525557 -18.222669162587213 7.5144062788311219 #
point $-1 -54.064156964763576 -18.222669162587213 7.5144062788311219 #
edge $-1 $684 1 $684 0 $367 $-1 forward 7 unknown #
vertex $-1 $368 $685 #
ellipse-curve $-1 -56.065058074153626 -16.480631542588075 4.5869771655978528 -0.52991927123019833 0 0.84804809178421925 0.42402404589210962 0 0.26495963561509916 1 I I #
point $-1 -56.39473005525246 -16.480631542588075 6.0581025554630141 #
edge $-1 $686 1 $686 0 $371 $-1 forward 7 unknown #
vertex $-1 $372 $687 #
ellipse-curve $-1 -56.065058074153626 -13.867575112589368 4.5869771655978528 -0.52991927123019833 0 0.84804809178421925 0.42402404589210962 0 0.26495963561509916 1 I I #
point $-1 -56.39473005525246 -13.867575112589368 6.0581025554630141 #
loop $-1 $-1 $383 $375 #
plane-surface $-1 -59.573351237525557 0 0 1 0 0 0 0 -1 forward_v I I I I #
coedge $-1 $549 $378 $380 $553 reversed $235 $-1 #
coedge $-1 $378 $548 $688 $689 reversed $235 $-1 #
coedge $-1 $386 $381 $378 $551 forward $376 $-1 #
edge $-1 $554 -7.2915855265293814 $690 -1.7823912537674005 $550 $691 forward 7 unknown #
coedge $-1 $380 $379 $557 $692 reversed $147 $-1 #
edge $-1 $693 8.3790584163743152e-015 $554 6.4963229398596054 $548 $694 forward 7 unknown #
vertex $-1 $382 $695 #
straight-curve $-1 -54.064156964763583 -2.5273519070643342 7.514406278831121 0 1 0 I I #
coedge $-1 $688 $383 $386 $561 reversed $546 $-1 #
coedge $-1 $383 $688 $552 $692 forward $546 $-1 #
vertex $-1 $384 $696 #
straight-curve $-1 -59.573351237525557 -8.1032696491271601 52.557006618606955 0 0 1 I I #
straight-curve $-1 -59.573351237525564 -8.1032696491271601 4.0718795608647014 -0.84804809178421925 0 -0.52991927123019833 I I #
edge $-1 $690 2.0061379791301768 $387 8.1032696491271601 $556 $697 forward 7 unknown #
point $-1 -59.573351237525557 -8.1032696491271601 7.5144062788311219 #
point $-1 -54.064156964763576 -8.1032696491271601 7.5144062788311219 #
edge $-1 $698 1 $698 0 $390 $-1 forward 7 unknown #
vertex $-1 $391 $699 #
ellipse-curve $-1 -56.065058074153626 -6.361232029128022 4.5869771655978528 -0.52991927123019833 0 0.84804809178421925 0.42402404589210962 0 0.26495963561509916 1 I I #
point $-1 -56.39473005525246 -6.361232029128022 6.0581025554630141 #
edge $-1 $700 1 $700 0 $394 $-1 forward 7 unknown #
vertex $-1 $395 $701 #
ellipse-curve $-1 -56.065058074153626 -3.7481755991293149 4.5869771655978528 -0.52991927123019833 0 0.84804809178421925 0.42402404589210962 0 0.26495963561509916 1 I I #
point $-1 -56.39473005525246 -3.7481755991293149 6.0581025554630141 #
loop $-1 $-1 $406 $398 #
plane-surface $-1 -59.573351237525557 0 0 1 0 0 0 0 -1 forward_v I I I I #
coedge $-1 $575 $401 $403 $579 reversed $257 $-1 #
coedge $-1 $401 $574 $702 $703 reversed $257 $-1 #
coedge $-1 $409 $404 $401 $577 forward $399 $-1 #
edge $-1 $580 -7.2915855265293814 $704 -1.7823912537674005 $576 $705 forward 7 unknown #
coedge $-1 $403 $402 $583 $706 reversed $161 $-1 #
edge $-1 $707 8.3790584163743152e-015 $580 6.4963229398596054 $574 $708 forward 7 unknown #
vertex $-1 $405 $709 #
straight-curve $-1 -54.064156964763583 2.5323478496656922 7.514406278831121 0 1 0 I I #
coedge $-1 $702 $406 $409 $587 reversed $572 $-1 #
coedge $-1 $406 $702 $578 $706 forward $572 $-1 #
vertex $-1 $407 $710 #
straight-curve $-1 -59.573351237525557 2.0161298643328927 52.557006618606955 0 0 1 I I #
straight-curve $-1 -59.573351237525564 2.0161298643328927 4.0718795608647014 -0.84804809178421925 0 -0.52991927123019833 I I #
edge $-1 $704 -8.113261534329876 $410 -2.0161298643328927 $582 $711 forward 7 unknown #
point $-1 -59.573351237525557 2.0161298643328927 7.5144062788311219 #
point $-1 -54.064156964763576 2.0161298643328927 7.5144062788311219 #
edge $-1 $712 1 $712 0 $413 $-1 forward 7 unknown #
vertex $-1 $414 $713 #
ellipse-curve $-1 -56.065058074153626 3.7581674843320307 4.5869771655978528 -0.52991927123019833 0 0.84804809178421925 0.42402404589210962 0 0.26495963561509916 1 I I #
point $-1 -56.39473005525246 3.7581674843320307 6.0581025554630141 #
edge $-1 $714 1 $714 0 $417 $-1 forward 7 unknown #
vertex $-1 $418 $715 #
ellipse-curve $-1 -56.065058074153626 6.3712239143307343 4.5869771655978528 -0.52991927123019833 0 0.84804809178421925 0.42402404589210962 0 0.26495963561509916 1 I I #
point $-1 -56.39473005525246 6.3712239143307343 6.0581025554630141 #
loop $-1 $-1 $429 $421 #
plane-surface $-1 -59.573351237525557 0 0 1 0 0 0 0 -1 forward_v I I I I #
coedge $-1 $601 $424 $426 $605 reversed $279 $-1 #
coedge $-1 $424 $600 $716 $717 reversed $279 $-1 #
coedge $-1 $432 $427 $424 $603 forward $422 $-1 #
edge $-1 $606 -7.2915855265293814 $718 -1.7823912537674005 $602 $719 forward 7 unknown #
coedge $-1 $426 $425 $609 $720 reversed $175 $-1 #
edge $-1 $721 8.3790584163743152e-015 $606 6.4963229398596054 $600 $722 forward 7 unknown #
vertex $-1 $428 $723 #
straight-curve $-1 -54.064156964763583 7.5920476063957203 7.514406278831121 0 1 0 I I #
coedge $-1 $716 $429 $432 $613 reversed $598 $-1 #
coedge $-1 $429 $716 $604 $720 forward $598 $-1 #
vertex $-1 $430 $724 #
straight-curve $-1 -59.573351237525557 12.135529377792949 52.557006618606955 0 0 1 I I #
straight-curve $-1 -59.573351237525564 12.135529377792949 4.0718795608647014 -0.84804809178421925 0 -0.52991927123019833 I I #
edge $-1 $718 -18.232661047789932 $433 -12.135529377792949 $608 $725 forward 7 unknown #
point $-1 -59.573351237525557 12.135529377792949 7.5144062788311219 #
point $-1 -54.064156964763576 12.135529377792949 7.5144062788311219 #
edge $-1 $726 1 $726 0 $436 $-1 forward 7 unknown #
vertex $-1 $437 $727 #
ellipse-curve $-1 -56.065058074153626 13.87756699779208 4.5869771655978528 -0.52991927123019833 0 0.84804809178421925 0.42402404589210962 0 0.26495963561509916 1 I I #
point $-1 -56.39473005525246 13.87756699779208 6.0581025554630141 #
edge $-1 $728 1 $728 0 $440 $-1 forward 7 unknown #
vertex $-1 $441 $729 #
ellipse-curve $-1 -56.065058074153626 16.490623427790787 4.5869771655978528 -0.52991927123019833 0 0.84804809178421925 0.42402404589210962 0 0.26495963561509916 1 I I #
point $-1 -56.39473005525246 16.490623427790787 6.0581025554630141 #
plane-surface $-1 59.573351237525557 0 0 -1 0 0 0 0 1 forward_v I I I I #
coedge $-1 $449 $447 $451 $629 reversed $301 $-1 #
edge $-1 $462 -7.5144062788311219 $631 7.5144062788311219 $461 $730 forward 7 unknown #
vertex $-1 $629 $731 #
straight-curve $-1 -59.573351237525557 -26.29957922075338 0 0 0 -1 I I #
edge $-1 $627 -26.29957922075338 $631 26.29957922075338 $625 $732 forward 7 unknown #
straight-curve $-1 0 -26.29957922075338 -7.5144062788311219 -1 0 0 I I #
vertex $-1 $454 $733 #
straight-curve $-1 0 26.29957922075338 -7.5144062788311219 1 0 0 I I #
point $-1 59.573351237525557 26.29957922075338 -7.5144062788311219 #
point $-1 59.573351237525557 -26.29957922075338 -7.5144062788311219 #
straight-curve $-1 -59.573351237525557 0 7.5144062788311219 0 -1 0 I I #
point $-1 -59.573351237525557 26.29957922075338 7.5144062788311219 #
point $-1 -59.573351237525557 -26.29957922075338 7.5144062788311219 #
straight-curve $-1 59.573351237525557 -26.29957922075338 0 0 0 -1 I I #
straight-curve $-1 59.573351237525557 26.29957922075338 0 0 0 -1 I I #
loop $-1 $-1 $477 $471 #
plane-surface $-1 0 -26.29957922075338 0 0 1 0 0 0 1 forward_v I I I I #
coedge $-1 $488 $479 $475 $644 forward $472 $-1 #
edge $-1 $648 -14.664984658835008 $483 -8.6042044650017342 $474 $734 forward 7 unknown #
edge $-1 $484 8.6042044650017342 $647 14.664984658835008 $642 $735 forward 7 unknown #
coedge $-1 $486 $477 $491 $657 reversed $640 $-1 #
coedge $-1 $477 $486 $488 $655 reversed $640 $-1 #
vertex $-1 $655 $736 #
vertex $-1 $478 $737 #
straight-curve $-1 -46.932533482182507 -26.29957922075338 0 0 0 1 I I #
straight-curve $-1 -24.216266741091253 -20.238799026920105 -7.5144062788311219 1 0 0 I I #
straight-curve $-1 -24.216266741091253 -20.238799026920105 7.5144062788311219 -1 0 0 I I #
point $-1 -46.932533482182507 -20.238799026920105 7.5144062788311219 #
point $-1 -46.932533482182507 -20.238799026920105 -7.5144062788311219 #
straight-curve $-1 -49.932533482182507 -26.29957922075338 0 0 0 -1 I I #
edge $-1 $647 46.932533482182507 $489 49.932533482182507 $646 $738 forward 7 unknown #
point $-1 -49.932533482182507 -26.29957922075338 -7.5144062788311219 #
edge $-1 $492 -49.932533482182507 $648 -46.932533482182507 $645 $739 forward 7 unknown #
point $-1 -49.932533482182507 -26.29957922075338 7.5144062788311219 #
plane-surface $-1 0 26.29957922075338 0 0 -1 0 0 0 -1 forward_v I I I I #
coedge $-1 $499 $503 $508 $670 forward $336 $-1 #
edge $-1 $740 -14.66498465883501 $513 -8.604204465001736 $499 $741 forward 7 unknown #
coedge $-1 $501 $500 $668 $742 reversed $205 $-1 #
edge $-1 $516 8.604204465001736 $743 14.66498465883501 $515 $744 forward 7 unknown #
straight-curve $-1 -46.932533482182507 20.238799026920109 0 0 0 -1 I I #
straight-curve $-1 -49.932533482182507 11.634594561918373 -7.5144062788311219 0 1 0 I I #
coedge $-1 $505 $515 $507 $669 forward $497 $-1 #
straight-curve $-1 -49.932533482182507 11.634594561918373 7.5144062788311219 0 -1 0 I I #
coedge $-1 $508 $507 $662 $742 forward $509 $-1 #
edge $-1 $743 46.932533482182507 $511 49.932533482182507 $507 $745 forward 7 unknown #
edge $-1 $510 -49.932533482182507 $740 -46.932533482182507 $508 $746 forward 7 unknown #
point $-1 -49.932533482182507 26.299579220753383 -7.5144062788311219 #
point $-1 -49.932533482182507 26.299579220753383 7.5144062788311219 #
point $-1 -46.932533482182507 20.238799026920109 -7.5144062788311219 #
point $-1 -46.932533482182507 20.238799026920109 7.5144062788311219 #
edge $-1 $676 45.042600339775831 $679 48.485127057742247 $521 $747 forward 7 unknown #
vertex $-1 $535 $748 #
straight-curve $-1 -61.355742491292958 -12.12553749259023 7.5144062788311246 -1 0 0 I I #
edge $-1 $679 4.5384858287958689 $532 10.635617498792852 $531 $749 forward 7 unknown #
vertex $-1 $678 $750 #
straight-curve $-1 -59.573351237525564 -12.12553749259023 4.0718795608647014 0.84804809178421925 0 0.52991927123019833 I I #
point $-1 -54.064156964763576 -12.12553749259023 7.5144062788311219 #
point $-1 -59.573351237525557 -18.222669162587213 4.0718795608647058 #
straight-curve $-1 -59.573351237525557 0 7.5144062788311219 0 -1 0 I I #
vertex $-1 $538 $751 #
point $-1 -55.641034028261515 -16.480631542588075 4.8519368012129522 #
vertex $-1 $542 $752 #
point $-1 -55.641034028261515 -13.867575112589368 4.8519368012129522 #
coedge $-1 $557 $556 $549 $689 forward $546 $-1 #
edge $-1 $690 45.042600339775831 $693 48.485127057742247 $688 $753 forward 7 unknown #
vertex $-1 $561 $754 #
straight-curve $-1 -61.355742491292958 -2.0061379791301768 7.5144062788311246 -1 0 0 I I #
edge $-1 $693 -0.52121392793415744 $558 5.5759177420628259 $557 $755 forward 7 unknown #
vertex $-1 $692 $756 #
straight-curve $-1 -59.573351237525564 -2.0061379791301768 4.0718795608647014 0.84804809178421925 0 0.52991927123019833 I I #
point $-1 -54.064156964763576 -2.0061379791301768 7.5144062788311219 #
point $-1 -59.573351237525557 -8.1032696491271601 4.0718795608647058 #
straight-curve $-1 -59.573351237525557 0 7.5144062788311219 0 -1 0 I I #
vertex $-1 $564 $757 #
point $-1 -55.641034028261515 -6.361232029128022 4.8519368012129522 #
vertex $-1 $568 $758 #
point $-1 -55.641034028261515 -3.7481755991293149 4.8519368012129522 #
coedge $-1 $583 $582 $575 $703 forward $572 $-1 #
edge $-1 $704 45.042600339775831 $707 48.485127057742247 $702 $759 forward 7 unknown #
vertex $-1 $587 $760 #
straight-curve $-1 -61.355742491292958 8.113261534329876 7.5144062788311246 -1 0 0 I I #
edge $-1 $707 -5.5809136846641838 $584 0.5162179853327995 $583 $761 forward 7 unknown #
vertex $-1 $706 $762 #
straight-curve $-1 -59.573351237525564 8.113261534329876 4.0718795608647014 0.84804809178421925 0 0.52991927123019833 I I #
point $-1 -54.064156964763576 8.113261534329876 7.5144062788311219 #
point $-1 -59.573351237525557 2.0161298643328927 4.0718795608647058 #
straight-curve $-1 -59.573351237525557 0 7.5144062788311219 0 -1 0 I I #
vertex $-1 $590 $763 #
point $-1 -55.641034028261515 3.7581674843320307 4.8519368012129522 #
vertex $-1 $594 $764 #
point $-1 -55.641034028261515 6.3712239143307343 4.8519368012129522 #
coedge $-1 $609 $608 $601 $717 forward $598 $-1 #
edge $-1 $718 45.042600339775831 $721 48.485127057742247 $716 $765 forward 7 unknown #
vertex $-1 $613 $766 #
straight-curve $-1 -61.355742491292958 18.232661047789932 7.5144062788311246 -1 0 0 I I #
edge $-1 $721 -10.640613441394212 $610 -4.5434817713972286 $609 $767 forward 7 unknown #
vertex $-1 $720 $768 #
straight-curve $-1 -59.573351237525564 18.232661047789932 4.0718795608647014 0.84804809178421925 0 0.52991927123019833 I I #
point $-1 -54.064156964763576 18.232661047789932 7.5144062788311219 #
point $-1 -59.573351237525557 12.135529377792949 4.0718795608647058 #
straight-curve $-1 -59.573351237525557 0 7.5144062788311219 0 -1 0 I I #
vertex $-1 $616 $769 #
point $-1 -55.641034028261515 13.87756699779208 4.8519368012129522 #
vertex $-1 $620 $770 #
point $-1 -55.641034028261515 16.490623427790787 4.8519368012129522 #
straight-curve $-1 -59.573351237525557 26.29957922075338 0 0 0 -1 I I #
point $-1 -59.573351237525557 -26.29957922075338 -7.5144062788311219 #
straight-curve $-1 -59.573351237525557 0 -7.5144062788311219 0 1 0 I I #
point $-1 -59.573351237525557 26.29957922075338 -7.5144062788311219 #
straight-curve $-1 -46.932533482182507 -11.634594561918371 7.5144062788311219 0 1 0 I I #
straight-curve $-1 -46.932533482182507 -11.634594561918371 -7.5144062788311219 0 -1 0 I I #
point $-1 -46.932533482182507 -26.29957922075338 -7.5144062788311219 #
point $-1 -46.932533482182507 -26.29957922075338 7.5144062788311219 #
straight-curve $-1 0 -26.29957922075338 -7.5144062788311219 -1 0 0 I I #
straight-curve $-1 0 -26.29957922075338 7.5144062788311219 1 0 0 I I #
vertex $-1 $742 $771 #
straight-curve $-1 -46.932533482182507 11.634594561918373 -7.5144062788311219 0 -1 0 I I #
edge $-1 $743 -7.5144062788311219 $740 7.5144062788311219 $668 $772 forward 7 unknown #
vertex $-1 $669 $773 #
straight-curve $-1 -46.932533482182507 11.634594561918373 7.5144062788311219 0 1 0 I I #
straight-curve $-1 0 26.29957922075338 7.5144062788311219 -1 0 0 I I #
straight-curve $-1 0 26.29957922075338 -7.5144062788311219 1 0 0 I I #
straight-curve $-1 -59.573351237525557 -12.12553749259023 52.557006618606955 0 0 -1 I I #
point $-1 -59.573351237525557 -12.12553749259023 7.5144062788311219 #
straight-curve $-1 -59.573351237525557 -7.5870516637943606 4.0718795608647032 0 -1 0 I I #
point $-1 -59.573351237525557 -12.12553749259023 4.0718795608647058 #
point $-1 -55.800098438538527 -16.480631542588075 4.1629531197057439 #
point $-1 -55.800098438538527 -13.867575112589368 4.1629531197057439 #
straight-curve $-1 -59.573351237525557 -2.0061379791301768 52.557006618606955 0 0 -1 I I #
point $-1 -59.573351237525557 -2.0061379791301768 7.5144062788311219 #
straight-curve $-1 -59.573351237525557 -2.5273519070643342 4.0718795608647032 0 -1 0 I I #
point $-1 -59.573351237525557 -2.0061379791301768 4.0718795608647058 #
point $-1 -55.800098438538527 -6.361232029128022 4.1629531197057439 #
point $-1 -55.800098438538527 -3.7481755991293149 4.1629531197057439 #
straight-curve $-1 -59.573351237525557 8.113261534329876 52.557006618606955 0 0 -1 I I #
point $-1 -59.573351237525557 8.113261534329876 7.5144062788311219 #
straight-curve $-1 -59.573351237525557 2.5323478496656922 4.0718795608647032 0 -1 0 I I #
point $-1 -59.573351237525557 8.113261534329876 4.0718795608647058 #
point $-1 -55.800098438538527 3.7581674843320307 4.1629531197057439 #
point $-1 -55.800098438538527 6.3712239143307343 4.1629531197057439 #
straight-curve $-1 -59.573351237525557 18.232661047789932 52.557006618606955 0 0 -1 I I #
point $-1 -59.573351237525557 18.232661047789932 7.5144062788311219 #
straight-curve $-1 -59.573351237525557 7.5920476063957203 4.0718795608647032 0 -1 0 I I #
point $-1 -59.573351237525557 18.232661047789932 4.0718795608647058 #
point $-1 -55.800098438538527 13.87756699779208 4.1629531197057439 #
point $-1 -55.800098438538527 16.490623427790787 4.1629531197057439 #
point $-1 -46.932533482182507 26.299579220753383 -7.5144062788311219 #
straight-curve $-1 -46.932533482182507 26.29957922075338 0 0 0 -1 I I #
point $-1 -46.932533482182507 26.299579220753383 7.5144062788311219 #
End-of-ACIS-data 