500 0 9 0           
7 Unknown 11 ACIS 5.0 NT 24 Fri Mar 26 14:56:39 1999 
-1 9.9999999999999995e-007 1e-010 
body $-1 $9 $-1 $10 #
body $-1 $11 $-1 $12 #
body $-1 $13 $-1 $14 #
body $-1 $15 $-1 $16 #
body $-1 $17 $-1 $18 #
body $-1 $19 $-1 $20 #
body $-1 $21 $-1 $22 #
body $-1 $23 $-1 $24 #
body $-1 $25 $-1 $26 #
lump $-1 $-1 $27 $0 #
transform $-1 1 0 0 0 1 0 0 0 1 78.68648335215309 53.942997919738922 20.395019938604985 1 rotate no_reflect no_shear #
lump $-1 $-1 $28 $1 #
transform $-1 1 0 0 0 1 0 0 0 1 78.68648335215309 53.942997919738922 20.395019938604985 1 rotate no_reflect no_shear #
lump $-1 $-1 $29 $2 #
transform $-1 1 0 0 0 1 0 0 0 1 78.68648335215309 53.942997919738922 20.395019938604985 1 rotate no_reflect no_shear #
lump $-1 $-1 $30 $3 #
transform $-1 1 0 0 0 1 0 0 0 1 78.68648335215309 53.942997919738922 20.395019938604985 1 rotate no_reflect no_shear #
lump $-1 $-1 $31 $4 #
transform $-1 1 0 0 0 1 0 0 0 1 78.68648335215309 53.942997919738922 20.395019938604985 1 rotate no_reflect no_shear #
lump $-1 $-1 $32 $5 #
transform $-1 1 0 0 0 1 0 0 0 1 78.68648335215309 53.942997919738922 20.395019938604985 1 rotate no_reflect no_shear #
lump $-1 $-1 $33 $6 #
transform $-1 1 0 0 0 1 0 0 0 1 78.68648335215309 53.942997919738922 20.395019938604985 1 rotate no_reflect no_shear #
lump $-1 $-1 $34 $7 #
transform $-1 1 0 0 0 1 0 0 0 1 78.68648335215309 53.942997919738922 20.395019938604985 1 rotate no_reflect no_shear #
lump $-1 $-1 $35 $8 #
transform $-1 1 0 0 0 1 0 0 0 1 78.68648335215309 53.942997919738922 20.395019938604985 1 rotate no_reflect no_shear #
shell $-1 $-1 $-1 $36 $-1 $9 #
shell $-1 $-1 $-1 $37 $-1 $11 #
shell $-1 $-1 $-1 $38 $-1 $13 #
shell $-1 $-1 $-1 $39 $-1 $15 #
shell $-1 $-1 $-1 $40 $-1 $17 #
shell $-1 $-1 $-1 $41 $-1 $19 #
shell $-1 $-1 $-1 $42 $-1 $21 #
shell $-1 $-1 $-1 $43 $-1 $23 #
shell $-1 $-1 $-1 $44 $-1 $25 #
face $-1 $45 $46 $27 $-1 $47 forward single #
face $-1 $48 $49 $28 $-1 $50 reversed single #
face $-1 $51 $52 $29 $-1 $53 forward single #
face $-1 $54 $55 $30 $-1 $56 reversed single #
face $-1 $57 $58 $31 $-1 $59 forward single #
face $-1 $60 $61 $32 $-1 $62 forward single #
face $-1 $63 $64 $33 $-1 $65 reversed single #
face $-1 $66 $67 $34 $-1 $68 forward single #
face $-1 $69 $70 $35 $-1 $71 forward single #
face $-1 $72 $73 $27 $-1 $74 reversed single #
loop $-1 $-1 $75 $36 #
plane-surface $-1 0 0 20.395019938604985 0 0 1 1 0 0 forward_v I I I I #
face $-1 $76 $77 $28 $-1 $78 reversed single #
loop $-1 $-1 $79 $37 #
plane-surface $-1 -69.862069173901347 -47.626000411364579 0 0 -1 0 0 0 -1 forward_v I I I I #
face $-1 $80 $81 $29 $-1 $82 reversed single #
loop $-1 $-1 $83 $38 #
plane-surface $-1 66.410314593911579 0 14.958803227433735 0 0 1 1 0 0 forward_v I I I I #
face $-1 $84 $85 $30 $-1 $86 reversed single #
loop $-1 $-1 $87 $39 #
plane-surface $-1 -38.582095602346612 -181.26040372662962 96.748998682390109 -1 0 0 0 -0.80901700255871778 0.5877852410284794 forward_v I I I I #
face $-1 $88 $89 $31 $-1 $90 forward single #
loop $-1 $91 $92 $40 #
cone-surface $-1 -52.173978915927727 -46.287812096673505 11.021287415471098 0 0.80901700255871778 -0.5877852410284794 1.5 0 0 1 I I 0 1 1.5 forward I I I I #
face $-1 $93 $94 $32 $-1 $95 forward single #
loop $-1 $96 $97 $41 #
cone-surface $-1 -44.018848927779061 -46.287812096673505 11.021287415471098 0 0.80901700255871778 -0.5877852410284794 1.5 0 0 1 I I 0 1 1.5 forward I I I I #
face $-1 $98 $99 $33 $-1 $100 reversed single #
loop $-1 $-1 $101 $42 #
plane-surface $-1 19.003804813313231 -181.26040372662962 96.748998682390109 -1 0 0 0 -0.80901700255871778 0.5877852410284794 forward_v I I I I #
face $-1 $102 $103 $34 $-1 $104 forward single #
loop $-1 $105 $106 $43 #
cone-surface $-1 5.4119214997321166 -46.287812096673505 11.021287415471098 0 0.80901700255871778 -0.5877852410284794 1.5 0 0 1 I I 0 1 1.5 forward I I I I #
face $-1 $107 $108 $35 $-1 $109 forward single #
loop $-1 $110 $111 $44 #
cone-surface $-1 13.567051487880775 -46.287812096673505 11.021287415471098 0 0.80901700255871778 -0.5877852410284794 1.5 0 0 1 I I 0 1 1.5 forward I I I I #
face $-1 $112 $113 $27 $-1 $114 reversed single #
loop $-1 $-1 $115 $45 #
plane-surface $-1 0 0 -20.395019938604985 0 0 1 1 0 0 forward_v I I I I #
coedge $-1 $116 $117 $118 $119 forward $46 $-1 #
face $-1 $120 $121 $28 $-1 $122 forward single #
loop $-1 $-1 $123 $48 #
plane-surface $-1 -61.037654995649611 -50.78449916555175 0 -1 0 0 0 0 1 forward_v I I I I #
coedge $-1 $124 $125 $126 $127 forward $49 $-1 #
face $-1 $128 $129 $29 $-1 $130 reversed single #
loop $-1 $-1 $131 $51 #
plane-surface $-1 66.410314593911579 0 6.4618222651890331 0 0 1 1 0 0 forward_v I I I I #
coedge $-1 $132 $133 $134 $135 reversed $52 $-1 #
face $-1 $136 $137 $30 $-1 $138 reversed single #
loop $-1 $-1 $139 $54 #
plane-surface $-1 -48.09641392185339 -53.942997919738943 4.2474915167326373 0 -0.80901700255871778 0.5877852410284794 1 0 0 forward_v I I I I #
coedge $-1 $140 $141 $142 $143 reversed $55 $-1 #
face $-1 $-1 $144 $31 $-1 $145 forward single #
loop $-1 $146 $147 $57 #
cone-surface $-1 -52.173978915927727 -43.891796410272299 9.2804801725020205 0 0.80901700255871778 -0.5877852410284794 0.75 0 0 1 I I -0.70710678118654757 0.70710678118654757 0.75 forward I I I I #
loop $-1 $-1 $148 $40 #
coedge $-1 $92 $92 $149 $150 reversed $58 $-1 #
face $-1 $-1 $151 $32 $-1 $152 forward single #
loop $-1 $153 $154 $60 #
cone-surface $-1 -44.018848927779061 -43.891796410272299 9.2804801725020205 0 0.80901700255871778 -0.5877852410284794 0.75 0 0 1 I I -0.70710678118654757 0.70710678118654757 0.75 forward I I I I #
loop $-1 $-1 $155 $41 #
coedge $-1 $97 $97 $156 $157 reversed $61 $-1 #
face $-1 $158 $159 $33 $-1 $160 reversed single #
loop $-1 $-1 $161 $63 #
plane-surface $-1 9.4894864938064529 -53.942997919738943 4.2474915167326373 0 -0.80901700255871778 0.5877852410284794 1 0 0 forward_v I I I I #
coedge $-1 $162 $163 $164 $165 reversed $64 $-1 #
face $-1 $-1 $166 $34 $-1 $167 forward single #
loop $-1 $168 $169 $66 #
cone-surface $-1 5.4119214997321166 -43.891796410272299 9.2804801725020205 0 0.80901700255871778 -0.5877852410284794 0.75 0 0 1 I I -0.70710678118654757 0.70710678118654757 0.75 forward I I I I #
loop $-1 $-1 $170 $43 #
coedge $-1 $106 $106 $171 $172 reversed $67 $-1 #
face $-1 $-1 $173 $35 $-1 $174 forward single #
loop $-1 $175 $176 $69 #
cone-surface $-1 13.567051487880775 -43.891796410272299 9.2804801725020205 0 0.80901700255871778 -0.5877852410284794 0.75 0 0 1 I I -0.70710678118654757 0.70710678118654757 0.75 forward I I I I #
loop $-1 $-1 $177 $44 #
coedge $-1 $111 $111 $178 $179 reversed $70 $-1 #
face $-1 $180 $181 $27 $-1 $182 reversed single #
loop $-1 $-1 $183 $72 #
plane-surface $-1 0 -53.942997919738922 0 0 1 0 0 0 1 forward_v I I I I #
coedge $-1 $184 $185 $186 $187 forward $73 $-1 #
coedge $-1 $188 $75 $189 $190 forward $46 $-1 #
coedge $-1 $75 $188 $191 $192 forward $46 $-1 #
coedge $-1 $193 $194 $75 $119 reversed $195 $-1 #
edge $-1 $196 -53.942997919738922 $197 53.942997919738922 $118 $198 forward 7 unknown #
face $-1 $199 $200 $28 $-1 $201 reversed single #
loop $-1 $-1 $202 $76 #
plane-surface $-1 0 0 20.395019938604985 0 0 1 1 0 0 forward_v I I I I #
coedge $-1 $203 $204 $205 $206 reversed $77 $-1 #
coedge $-1 $207 $79 $208 $209 reversed $49 $-1 #
coedge $-1 $79 $207 $210 $211 reversed $49 $-1 #
coedge $-1 $204 $203 $79 $127 reversed $77 $-1 #
edge $-1 $212 -20.395019938604985 $213 20.395019938604985 $126 $214 forward 7 unknown #
face $-1 $215 $216 $29 $-1 $217 reversed single #
loop $-1 $-1 $218 $80 #
plane-surface $-1 54.134145835670068 0 10.710312746311384 1 0 0 0 0 -1 forward_v I I I I #
coedge $-1 $219 $220 $221 $222 reversed $81 $-1 #
coedge $-1 $223 $83 $224 $225 reversed $52 $-1 #
coedge $-1 $83 $223 $226 $227 reversed $52 $-1 #
coedge $-1 $228 $229 $83 $135 forward $230 $-1 #
edge $-1 $231 -53.942997919738922 $232 53.942997919738922 $134 $233 forward 7 unknown #
face $-1 $234 $235 $30 $-1 $236 forward single #
loop $-1 $-1 $237 $84 #
plane-surface $-1 -57.610732241360168 -181.26040372662962 96.748998682390109 1 0 0 0 0.80901700255871778 -0.5877852410284794 forward_v I I I I #
coedge $-1 $238 $239 $240 $241 reversed $85 $-1 #
coedge $-1 $141 $87 $242 $243 reversed $55 $-1 #
coedge $-1 $87 $140 $238 $244 reversed $55 $-1 #
coedge $-1 $240 $245 $87 $143 forward $235 $-1 #
edge $-1 $246 36.687203943575888 $247 48.419069720742385 $142 $248 forward 7 unknown #
loop $-1 $-1 $149 $88 #
plane-surface $-1 -48.09641392185339 -53.942997919738943 4.2474915167326373 0 -0.80901700255871778 0.5877852410284794 1 0 0 forward_v I I I I #
loop $-1 $-1 $249 $57 #
coedge $-1 $147 $147 $148 $250 reversed $89 $-1 #
coedge $-1 $148 $148 $147 $250 forward $91 $-1 #
coedge $-1 $149 $149 $92 $150 forward $144 $-1 #
edge $-1 $251 8.6817304041688006e-016 $251 6.2831853071796013 $149 $252 forward 7 unknown #
loop $-1 $-1 $156 $93 #
plane-surface $-1 -48.09641392185339 -53.942997919738943 4.2474915167326373 0 -0.80901700255871778 0.5877852410284794 1 0 0 forward_v I I I I #
loop $-1 $-1 $253 $60 #
coedge $-1 $154 $154 $155 $254 reversed $94 $-1 #
coedge $-1 $155 $155 $154 $254 forward $96 $-1 #
coedge $-1 $156 $156 $97 $157 forward $151 $-1 #
edge $-1 $255 8.6817304041688006e-016 $255 6.2831853071796013 $156 $256 forward 7 unknown #
face $-1 $257 $258 $33 $-1 $259 reversed single #
loop $-1 $-1 $260 $98 #
plane-surface $-1 -0.024831825700324828 -181.26040372662962 96.748998682390109 1 0 0 0 0.80901700255871778 -0.5877852410284794 forward_v I I I I #
coedge $-1 $261 $262 $263 $264 reversed $99 $-1 #
coedge $-1 $163 $101 $265 $266 reversed $64 $-1 #
coedge $-1 $101 $162 $261 $267 reversed $64 $-1 #
coedge $-1 $263 $268 $101 $165 forward $269 $-1 #
edge $-1 $270 36.687203943575888 $271 48.419069720742385 $164 $272 forward 7 unknown #
loop $-1 $-1 $171 $102 #
plane-surface $-1 9.4894864938064529 -53.942997919738943 4.2474915167326373 0 -0.80901700255871778 0.5877852410284794 1 0 0 forward_v I I I I #
loop $-1 $-1 $273 $66 #
coedge $-1 $169 $169 $170 $274 reversed $103 $-1 #
coedge $-1 $170 $170 $169 $274 forward $105 $-1 #
coedge $-1 $171 $171 $106 $172 forward $166 $-1 #
edge $-1 $275 8.6817304041688006e-016 $275 6.2831853071796013 $171 $276 forward 7 unknown #
loop $-1 $-1 $178 $107 #
plane-surface $-1 9.4894864938064529 -53.942997919738943 4.2474915167326373 0 -0.80901700255871778 0.5877852410284794 1 0 0 forward_v I I I I #
loop $-1 $-1 $277 $69 #
coedge $-1 $176 $176 $177 $278 reversed $108 $-1 #
coedge $-1 $177 $177 $176 $278 forward $110 $-1 #
coedge $-1 $178 $178 $111 $179 forward $173 $-1 #
edge $-1 $279 8.6817304041688006e-016 $279 6.2831853071796013 $178 $280 forward 7 unknown #
face $-1 $281 $282 $27 $-1 $283 reversed single #
loop $-1 $-1 $284 $112 #
plane-surface $-1 -78.68648335215309 0 0 1 0 0 0 0 -1 forward_v I I I I #
coedge $-1 $285 $191 $286 $287 forward $113 $-1 #
coedge $-1 $288 $115 $285 $289 forward $73 $-1 #
coedge $-1 $115 $288 $290 $291 forward $73 $-1 #
coedge $-1 $194 $193 $115 $187 reversed $195 $-1 #
edge $-1 $292 -53.942997919738922 $293 53.942997919738922 $186 $294 forward 7 unknown #
coedge $-1 $117 $116 $295 $296 forward $46 $-1 #
coedge $-1 $297 $298 $116 $190 reversed $282 $-1 #
edge $-1 $197 -78.68648335215309 $299 78.68648335215309 $189 $300 forward 7 unknown #
coedge $-1 $183 $301 $117 $192 reversed $113 $-1 #
edge $-1 $302 -78.68648335215309 $196 78.68648335215309 $191 $303 forward 7 unknown #
coedge $-1 $186 $118 $301 $304 forward $195 $-1 #
coedge $-1 $118 $186 $297 $305 reversed $195 $-1 #
loop $-1 $-1 $193 $281 #
vertex $-1 $119 $306 #
vertex $-1 $119 $307 #
straight-curve $-1 78.68648335215309 0 20.395019938604985 0 1 0 I I #
face $-1 $308 $309 $28 $-1 $310 reversed single #
loop $-1 $-1 $311 $120 #
plane-surface $-1 -78.68648335215309 0 0 1 0 0 0 0 -1 forward_v I I I I #
coedge $-1 $210 $312 $204 $313 forward $121 $-1 #
coedge $-1 $126 $123 $314 $315 reversed $77 $-1 #
coedge $-1 $123 $126 $202 $313 reversed $77 $-1 #
coedge $-1 $316 $317 $123 $206 forward $318 $-1 #
edge $-1 $319 -20.395019938604985 $320 20.395019938604985 $205 $321 forward 7 unknown #
coedge $-1 $125 $124 $311 $322 reversed $49 $-1 #
coedge $-1 $314 $323 $124 $209 forward $309 $-1 #
edge $-1 $324 -43.755448765202416 $213 -26.106620408698937 $208 $325 forward 7 unknown #
coedge $-1 $326 $202 $125 $211 forward $121 $-1 #
edge $-1 $212 26.106620408698937 $327 43.755448765202416 $210 $328 forward 7 unknown #
vertex $-1 $211 $329 #
vertex $-1 $209 $330 #
straight-curve $-1 -61.037654995649611 -47.626000411364579 0 0 0 -1 I I #
face $-1 $331 $332 $29 $-1 $333 reversed single #
loop $-1 $-1 $334 $128 #
plane-surface $-1 0 53.942997919738922 0 0 -1 0 0 0 -1 forward_v I I I I #
coedge $-1 $335 $336 $337 $338 reversed $129 $-1 #
coedge $-1 $339 $131 $340 $341 reversed $81 $-1 #
coedge $-1 $131 $339 $334 $342 reversed $81 $-1 #
coedge $-1 $229 $228 $131 $222 forward $230 $-1 #
edge $-1 $343 -53.942997919738922 $344 53.942997919738922 $221 $345 forward 7 unknown #
coedge $-1 $133 $132 $336 $346 forward $52 $-1 #
coedge $-1 $347 $337 $132 $225 forward $216 $-1 #
edge $-1 $348 20.928988538714279 $231 45.4813260551973 $224 $349 forward 7 unknown #
coedge $-1 $350 $351 $133 $227 forward $332 $-1 #
edge $-1 $232 -45.4813260551973 $352 -20.928988538714279 $226 $353 forward 7 unknown #
coedge $-1 $221 $134 $351 $354 forward $230 $-1 #
coedge $-1 $134 $221 $347 $355 reversed $230 $-1 #
loop $-1 $-1 $221 $331 #
vertex $-1 $355 $356 #
vertex $-1 $354 $357 #
straight-curve $-1 78.68648335215309 0 14.958803227433735 0 -1 0 I I #
face $-1 $-1 $358 $30 $-1 $359 reversed single #
loop $-1 $-1 $142 $136 #
plane-surface $-1 0 0 20.395019938604985 0 0 1 1 0 0 forward_v I I I I #
coedge $-1 $360 $361 $362 $363 reversed $137 $-1 #
coedge $-1 $364 $139 $141 $244 forward $85 $-1 #
coedge $-1 $139 $364 $360 $365 forward $85 $-1 #
coedge $-1 $362 $142 $139 $241 forward $235 $-1 #
edge $-1 $247 14.533888641419917 $366 33.562525280433476 $240 $367 forward 7 unknown #
coedge $-1 $368 $369 $140 $243 forward $358 $-1 #
edge $-1 $370 -44.127007824462389 $246 -27.979479402590069 $242 $371 forward 7 unknown #
edge $-1 $247 -19.959442596140462 $370 -3.6241593609816998e-014 $141 $372 forward 7 unknown #
coedge $-1 $142 $362 $368 $373 forward $235 $-1 #
vertex $-1 $243 $374 #
vertex $-1 $143 $375 #
straight-curve $-1 -38.582095602346612 -90.630201863314809 20.395019938604989 0 1 0 I I #
coedge $-1 $249 $249 $-1 $376 reversed $146 $-1 #
edge $-1 $377 0 $377 6.2831853071796004 $147 $378 forward 7 unknown #
vertex $-1 $150 $379 #
ellipse-curve $-1 -52.173978915927727 -48.077065031155676 12.32125572766882 0 -0.80901700255871778 0.5877852410284794 1.5 0 0 1 I I #
coedge $-1 $253 $253 $-1 $380 reversed $153 $-1 #
edge $-1 $381 0 $381 6.2831853071796004 $154 $382 forward 7 unknown #
vertex $-1 $157 $383 #
ellipse-curve $-1 -44.018848927779061 -48.077065031155676 12.32125572766882 0 -0.80901700255871778 0.5877852410284794 1.5 0 0 1 I I #
face $-1 $-1 $269 $33 $-1 $384 forward single #
loop $-1 $-1 $385 $158 #
plane-surface $-1 0 -53.942997919738922 0 0 1 0 0 0 1 forward_v I I I I #
coedge $-1 $386 $387 $388 $389 reversed $159 $-1 #
coedge $-1 $390 $161 $163 $267 forward $99 $-1 #
coedge $-1 $161 $390 $386 $391 forward $99 $-1 #
coedge $-1 $388 $164 $161 $264 forward $269 $-1 #
edge $-1 $271 -14.259061566410004 $392 4.7695750726035513 $263 $393 forward 7 unknown #
coedge $-1 $394 $395 $162 $266 forward $258 $-1 #
edge $-1 $396 -44.127007824462389 $270 -27.979479402590069 $265 $397 forward 7 unknown #
edge $-1 $271 -19.959442596140462 $396 -3.6241593609816998e-014 $163 $398 forward 7 unknown #
coedge $-1 $164 $388 $394 $399 forward $269 $-1 #
loop $-1 $-1 $388 $257 #
vertex $-1 $266 $400 #
vertex $-1 $165 $401 #
straight-curve $-1 19.003804813313231 -90.630201863314809 20.395019938604989 0 1 0 I I #
coedge $-1 $273 $273 $-1 $402 reversed $168 $-1 #
edge $-1 $403 0 $403 6.2831853071796004 $169 $404 forward 7 unknown #
vertex $-1 $172 $405 #
ellipse-curve $-1 5.4119214997321166 -48.077065031155676 12.32125572766882 0 -0.80901700255871778 0.5877852410284794 1.5 0 0 1 I I #
coedge $-1 $277 $277 $-1 $406 reversed $175 $-1 #
edge $-1 $407 0 $407 6.2831853071796004 $176 $408 forward 7 unknown #
vertex $-1 $179 $409 #
ellipse-curve $-1 13.567051487880775 -48.077065031155676 12.32125572766882 0 -0.80901700255871778 0.5877852410284794 1.5 0 0 1 I I #
face $-1 $-1 $195 $27 $-1 $410 reversed single #
loop $-1 $-1 $297 $180 #
plane-surface $-1 0 53.942997919738922 0 0 -1 0 0 0 -1 forward_v I I I I #
coedge $-1 $411 $295 $298 $412 forward $181 $-1 #
coedge $-1 $301 $183 $184 $289 reversed $113 $-1 #
coedge $-1 $295 $411 $183 $287 reversed $181 $-1 #
edge $-1 $302 -20.395019938604985 $413 20.395019938604985 $286 $414 forward 7 unknown #
coedge $-1 $185 $184 $411 $415 forward $73 $-1 #
edge $-1 $293 -78.68648335215309 $413 78.68648335215309 $285 $416 forward 7 unknown #
coedge $-1 $298 $297 $185 $291 reversed $282 $-1 #
edge $-1 $417 -78.68648335215309 $292 78.68648335215309 $290 $418 forward 7 unknown #
vertex $-1 $187 $419 #
vertex $-1 $304 $420 #
straight-curve $-1 78.68648335215309 0 -20.395019938604985 0 -1 0 I I #
coedge $-1 $284 $286 $188 $296 reversed $181 $-1 #
edge $-1 $299 -53.942997919738922 $302 53.942997919738922 $295 $421 forward 7 unknown #
coedge $-1 $290 $189 $194 $305 forward $282 $-1 #
coedge $-1 $189 $290 $284 $412 reversed $282 $-1 #
vertex $-1 $190 $422 #
straight-curve $-1 0 53.942997919738922 20.395019938604985 -1 0 0 I I #
coedge $-1 $191 $285 $193 $304 reversed $113 $-1 #
vertex $-1 $296 $423 #
straight-curve $-1 0 -53.942997919738922 20.395019938604985 1 0 0 I I #
edge $-1 $196 -20.395019938604985 $293 20.395019938604985 $193 $424 forward 7 unknown #
edge $-1 $197 -20.395019938604985 $292 20.395019938604985 $194 $425 forward 7 unknown #
point $-1 78.68648335215309 -53.942997919738922 20.395019938604985 #
point $-1 78.68648335215309 53.942997919738922 20.395019938604985 #
face $-1 $-1 $318 $28 $-1 $426 reversed single #
loop $-1 $-1 $314 $199 #
plane-surface $-1 0 0 -20.395019938604985 0 0 1 1 0 0 forward_v I I I I #
coedge $-1 $427 $428 $207 $322 forward $200 $-1 #
coedge $-1 $202 $326 $316 $429 forward $121 $-1 #
edge $-1 $320 -28.550748336963046 $212 -22.233750828588704 $202 $430 forward 7 unknown #
coedge $-1 $431 $208 $203 $315 forward $309 $-1 #
edge $-1 $213 22.233750828588704 $319 28.550748336963046 $314 $432 forward 7 unknown #
coedge $-1 $433 $205 $312 $429 reversed $318 $-1 #
coedge $-1 $205 $433 $431 $434 reversed $318 $-1 #
loop $-1 $-1 $205 $308 #
vertex $-1 $434 $435 #
vertex $-1 $206 $436 #
straight-curve $-1 -61.037654995649611 -53.942997919738922 0 0 0 1 I I #
edge $-1 $327 -20.395019938604985 $324 20.395019938604985 $311 $437 forward 7 unknown #
coedge $-1 $208 $431 $427 $438 forward $309 $-1 #
vertex $-1 $209 $439 #
straight-curve $-1 -34.931034586950673 -47.626000411364579 -20.395019938604985 1 0 0 I I #
coedge $-1 $312 $210 $428 $440 forward $121 $-1 #
vertex $-1 $440 $441 #
straight-curve $-1 -34.931034586950673 -47.626000411364579 20.395019938604985 -1 0 0 I I #
point $-1 -61.037654995649611 -47.626000411364579 20.395019938604985 #
point $-1 -61.037654995649611 -47.626000411364579 -20.395019938604985 #
face $-1 $-1 $230 $29 $-1 $442 reversed single #
loop $-1 $-1 $226 $215 #
plane-surface $-1 0 -53.942997919738922 0 0 1 0 0 0 1 forward_v I I I I #
coedge $-1 $337 $347 $220 $342 forward $216 $-1 #
coedge $-1 $443 $218 $339 $444 reversed $129 $-1 #
coedge $-1 $218 $443 $223 $346 reversed $129 $-1 #
coedge $-1 $224 $334 $218 $338 forward $216 $-1 #
edge $-1 $445 1.106665892033341 $348 9.6036468542780433 $337 $446 forward 7 unknown #
coedge $-1 $220 $219 $335 $444 forward $81 $-1 #
coedge $-1 $351 $350 $219 $341 forward $332 $-1 #
edge $-1 $447 20.928988538714279 $343 45.4813260551973 $340 $448 forward 7 unknown #
edge $-1 $344 -45.4813260551973 $445 -20.928988538714279 $334 $449 forward 7 unknown #
vertex $-1 $341 $450 #
vertex $-1 $222 $451 #
straight-curve $-1 78.68648335215309 0 6.4618222651890331 0 1 0 I I #
edge $-1 $348 -53.942997919738922 $352 53.942997919738922 $336 $452 forward 7 unknown #
coedge $-1 $334 $224 $229 $355 forward $216 $-1 #
vertex $-1 $225 $453 #
straight-curve $-1 33.20515729695579 53.942997919738922 14.958803227433735 1 0 0 I I #
coedge $-1 $340 $226 $443 $454 forward $332 $-1 #
coedge $-1 $226 $340 $228 $354 reversed $332 $-1 #
vertex $-1 $227 $455 #
straight-curve $-1 33.20515729695579 -53.942997919738922 14.958803227433735 -1 0 0 I I #
edge $-1 $232 -14.958803227433735 $343 -6.4618222651890331 $228 $456 forward 7 unknown #
edge $-1 $231 -14.958803227433735 $344 -6.4618222651890331 $229 $457 forward 7 unknown #
point $-1 78.68648335215309 53.942997919738922 14.958803227433735 #
point $-1 78.68648335215309 -53.942997919738922 14.958803227433735 #
loop $-1 $-1 $242 $234 #
plane-surface $-1 0 -53.942997919738922 0 0 1 0 0 0 1 forward_v I I I I #
coedge $-1 $361 $237 $239 $365 reversed $137 $-1 #
coedge $-1 $237 $360 $458 $459 reversed $137 $-1 #
coedge $-1 $245 $240 $237 $363 forward $235 $-1 #
edge $-1 $366 -48.419069720742385 $460 -36.687203943575888 $362 $461 forward 7 unknown #
coedge $-1 $239 $238 $369 $462 reversed $85 $-1 #
edge $-1 $463 3.6241593609816998e-014 $366 19.959442596140462 $360 $464 forward 7 unknown #
vertex $-1 $241 $465 #
straight-curve $-1 -24.048206960926695 -42.211132142572424 20.395019938604985 -1 0 0 I I #
coedge $-1 $458 $242 $245 $373 reversed $358 $-1 #
coedge $-1 $242 $458 $364 $462 forward $358 $-1 #
vertex $-1 $243 $466 #
straight-curve $-1 -38.582095602346612 -53.942997919738922 48.374499341195055 0 0 1 I I #
straight-curve $-1 -38.582095602346612 -53.942997919738943 4.2474915167326373 0 -0.5877852410284794 -0.80901700255871778 I I #
edge $-1 $460 -57.610732241360168 $246 -38.582095602346612 $368 $467 forward 7 unknown #
point $-1 -38.582095602346612 -53.942997919738922 20.395019938604985 #
point $-1 -38.582095602346612 -42.211132142572424 20.395019938604985 #
edge $-1 $468 1 $468 0 $249 $-1 forward 7 unknown #
vertex $-1 $250 $469 #
ellipse-curve $-1 -52.173978915927727 -44.498559162191334 9.7213191032733803 0 -0.80901700255871778 0.5877852410284794 1.5 0 0 1 I I #
point $-1 -50.673978915927727 -48.077065031155669 12.321255727668817 #
edge $-1 $470 1 $470 0 $253 $-1 forward 7 unknown #
vertex $-1 $254 $471 #
ellipse-curve $-1 -44.018848927779061 -44.498559162191334 9.7213191032733803 0 -0.80901700255871778 0.5877852410284794 1.5 0 0 1 I I #
point $-1 -42.518848927779061 -48.077065031155669 12.321255727668817 #
plane-surface $-1 0 0 20.395019938604985 0 0 1 1 0 0 forward_v I I I I #
coedge $-1 $395 $394 $387 $472 forward $258 $-1 #
coedge $-1 $387 $260 $262 $391 reversed $159 $-1 #
coedge $-1 $260 $386 $385 $472 reversed $159 $-1 #
coedge $-1 $268 $263 $260 $389 forward $269 $-1 #
edge $-1 $392 -48.419069720742385 $473 -36.687203943575888 $388 $474 forward 7 unknown #
coedge $-1 $262 $261 $395 $475 reversed $99 $-1 #
edge $-1 $476 3.6241593609816998e-014 $392 19.959442596140462 $386 $477 forward 7 unknown #
vertex $-1 $264 $478 #
straight-curve $-1 4.7447432469032265 -42.211132142572424 20.395019938604985 -1 0 0 I I #
coedge $-1 $385 $265 $268 $399 reversed $258 $-1 #
coedge $-1 $265 $385 $390 $475 forward $258 $-1 #
vertex $-1 $266 $479 #
straight-curve $-1 19.003804813313231 -53.942997919738922 48.374499341195055 0 0 1 I I #
straight-curve $-1 19.003804813313231 -53.942997919738943 4.2474915167326373 0 -0.5877852410284794 -0.80901700255871778 I I #
edge $-1 $473 -0.024831825700324828 $270 19.003804813313231 $394 $480 forward 7 unknown #
point $-1 19.003804813313231 -53.942997919738922 20.395019938604985 #
point $-1 19.003804813313231 -42.211132142572424 20.395019938604985 #
edge $-1 $481 1 $481 0 $273 $-1 forward 7 unknown #
vertex $-1 $274 $482 #
ellipse-curve $-1 5.4119214997321166 -44.498559162191334 9.7213191032733803 0 -0.80901700255871778 0.5877852410284794 1.5 0 0 1 I I #
point $-1 6.9119214997321166 -48.077065031155669 12.321255727668817 #
edge $-1 $483 1 $483 0 $277 $-1 forward 7 unknown #
vertex $-1 $278 $484 #
ellipse-curve $-1 13.567051487880775 -44.498559162191334 9.7213191032733803 0 -0.80901700255871778 0.5877852410284794 1.5 0 0 1 I I #
point $-1 15.067051487880775 -48.077065031155669 12.321255727668817 #
plane-surface $-1 78.68648335215309 0 0 -1 0 0 0 0 1 forward_v I I I I #
coedge $-1 $286 $284 $288 $415 reversed $181 $-1 #
edge $-1 $299 -20.395019938604985 $417 20.395019938604985 $298 $485 forward 7 unknown #
vertex $-1 $415 $486 #
straight-curve $-1 -78.68648335215309 -53.942997919738922 0 0 0 -1 I I #
edge $-1 $413 -53.942997919738922 $417 53.942997919738922 $411 $487 forward 7 unknown #
straight-curve $-1 0 -53.942997919738922 -20.395019938604985 -1 0 0 I I #
vertex $-1 $291 $488 #
straight-curve $-1 0 53.942997919738922 -20.395019938604985 1 0 0 I I #
point $-1 78.68648335215309 53.942997919738922 -20.395019938604985 #
point $-1 78.68648335215309 -53.942997919738922 -20.395019938604985 #
straight-curve $-1 -78.68648335215309 0 20.395019938604985 0 -1 0 I I #
point $-1 -78.68648335215309 53.942997919738922 20.395019938604985 #
point $-1 -78.68648335215309 -53.942997919738922 20.395019938604985 #
straight-curve $-1 78.68648335215309 -53.942997919738922 0 0 0 -1 I I #
straight-curve $-1 78.68648335215309 53.942997919738922 0 0 0 -1 I I #
plane-surface $-1 0 -53.942997919738922 0 0 1 0 0 0 1 forward_v I I I I #
coedge $-1 $489 $311 $323 $438 reversed $200 $-1 #
coedge $-1 $311 $489 $326 $440 reversed $200 $-1 #
edge $-1 $490 -78.68648335215309 $320 -61.037654995649611 $316 $491 forward 7 unknown #
straight-curve $-1 -61.037654995649611 -25.392249582775875 20.395019938604985 0 1 0 I I #
coedge $-1 $323 $314 $317 $434 forward $309 $-1 #
straight-curve $-1 -61.037654995649611 -25.392249582775875 -20.395019938604985 0 -1 0 I I #
coedge $-1 $317 $316 $489 $492 forward $318 $-1 #
edge $-1 $319 61.037654995649611 $493 78.68648335215309 $317 $494 forward 7 unknown #
point $-1 -61.037654995649611 -53.942997919738922 -20.395019938604985 #
point $-1 -61.037654995649611 -53.942997919738922 20.395019938604985 #
straight-curve $-1 -78.68648335215309 -47.626000411364579 0 0 0 -1 I I #
edge $-1 $493 -53.942997919738922 $324 -47.626000411364579 $427 $495 forward 7 unknown #
point $-1 -78.68648335215309 -47.626000411364579 -20.395019938604985 #
edge $-1 $327 47.626000411364579 $490 53.942997919738922 $428 $496 forward 7 unknown #
point $-1 -78.68648335215309 -47.626000411364579 20.395019938604985 #
plane-surface $-1 78.68648335215309 0 0 -1 0 0 0 0 1 forward_v I I I I #
coedge $-1 $336 $335 $350 $454 reversed $129 $-1 #
edge $-1 $447 -53.942997919738922 $445 53.942997919738922 $335 $497 forward 7 unknown #
vertex $-1 $342 $498 #
straight-curve $-1 54.134145835670068 53.942997919738922 5.3551563731556922 0 0 1 I I #
vertex $-1 $341 $499 #
straight-curve $-1 33.20515729695579 -53.942997919738922 6.4618222651890331 1 0 0 I I #
straight-curve $-1 33.20515729695579 53.942997919738922 6.4618222651890331 -1 0 0 I I #
point $-1 78.68648335215309 -53.942997919738922 6.4618222651890331 #
point $-1 78.68648335215309 53.942997919738922 6.4618222651890331 #
straight-curve $-1 54.134145835670068 0 14.958803227433735 0 -1 0 I I #
point $-1 54.134145835670068 53.942997919738922 14.958803227433735 #
edge $-1 $352 -9.6036468542780433 $447 -1.106665892033341 $350 $500 forward 7 unknown #
point $-1 54.134145835670068 -53.942997919738922 14.958803227433735 #
straight-curve $-1 78.68648335215309 -53.942997919738922 0 0 0 -1 I I #
straight-curve $-1 78.68648335215309 53.942997919738922 0 0 0 -1 I I #
coedge $-1 $369 $368 $361 $459 forward $358 $-1 #
edge $-1 $460 27.979479402590069 $463 44.127007824462389 $458 $501 forward 7 unknown #
vertex $-1 $373 $502 #
straight-curve $-1 -57.610732241360168 -90.630201863314809 20.395019938604989 0 -1 0 I I #
edge $-1 $463 -33.562525280433476 $370 -14.533888641419917 $369 $503 forward 7 unknown #
vertex $-1 $462 $504 #
straight-curve $-1 -57.610732241360168 -53.942997919738943 4.2474915167326373 0 0.5877852410284794 0.80901700255871778 I I #
point $-1 -57.610732241360168 -42.211132142572424 20.395019938604985 #
point $-1 -38.582095602346612 -53.942997919738922 4.2474915167326666 #
straight-curve $-1 0 -53.942997919738922 20.395019938604985 1 0 0 I I #
vertex $-1 $376 $505 #
point $-1 -50.673978915927727 -44.498559162191334 9.7213191032733803 #
vertex $-1 $380 $506 #
point $-1 -42.518848927779061 -44.498559162191334 9.7213191032733803 #
edge $-1 $473 27.979479402590069 $476 44.127007824462389 $385 $507 forward 7 unknown #
vertex $-1 $399 $508 #
straight-curve $-1 -0.024831825700324828 -90.630201863314809 20.395019938604989 0 -1 0 I I #
edge $-1 $476 -4.7695750726035513 $396 14.259061566410004 $395 $509 forward 7 unknown #
vertex $-1 $475 $510 #
straight-curve $-1 -0.024831825700324828 -53.942997919738943 4.2474915167326373 0 0.5877852410284794 0.80901700255871778 I I #
point $-1 -0.024831825700324828 -42.211132142572424 20.395019938604985 #
point $-1 19.003804813313231 -53.942997919738922 4.2474915167326666 #
straight-curve $-1 0 -53.942997919738922 20.395019938604985 1 0 0 I I #
vertex $-1 $402 $511 #
point $-1 6.9119214997321166 -44.498559162191334 9.7213191032733803 #
vertex $-1 $406 $512 #
point $-1 15.067051487880775 -44.498559162191334 9.7213191032733803 #
straight-curve $-1 -78.68648335215309 53.942997919738922 0 0 0 -1 I I #
point $-1 -78.68648335215309 -53.942997919738922 -20.395019938604985 #
straight-curve $-1 -78.68648335215309 0 -20.395019938604985 0 1 0 I I #
point $-1 -78.68648335215309 53.942997919738922 -20.395019938604985 #
coedge $-1 $428 $427 $433 $492 reversed $200 $-1 #
vertex $-1 $440 $513 #
straight-curve $-1 0 -53.942997919738922 20.395019938604985 1 0 0 I I #
edge $-1 $490 -20.395019938604985 $493 20.395019938604985 $489 $514 forward 7 unknown #
vertex $-1 $438 $515 #
straight-curve $-1 0 -53.942997919738922 -20.395019938604985 -1 0 0 I I #
straight-curve $-1 -78.68648335215309 0 -20.395019938604985 0 1 0 I I #
straight-curve $-1 -78.68648335215309 0 20.395019938604985 0 -1 0 I I #
straight-curve $-1 54.134145835670068 0 6.4618222651890331 0 1 0 I I #
point $-1 54.134145835670068 53.942997919738922 6.4618222651890331 #
point $-1 54.134145835670068 -53.942997919738922 6.4618222651890331 #
straight-curve $-1 54.134145835670068 -53.942997919738922 5.3551563731556922 0 0 -1 I I #
straight-curve $-1 -57.610732241360168 -53.942997919738922 48.374499341195055 0 0 -1 I I #
point $-1 -57.610732241360168 -53.942997919738922 20.395019938604985 #
straight-curve $-1 -24.048206960926695 -53.942997919738922 4.2474915167326595 1 0 0 I I #
point $-1 -57.610732241360168 -53.942997919738922 4.2474915167326666 #
point $-1 -52.173978915927727 -43.285033658353264 8.8396412417306607 #
point $-1 -44.018848927779061 -43.285033658353264 8.8396412417306607 #
straight-curve $-1 -0.024831825700324828 -53.942997919738922 48.374499341195055 0 0 -1 I I #
point $-1 -0.024831825700324828 -53.942997919738922 20.395019938604985 #
straight-curve $-1 4.7447432469032265 -53.942997919738922 4.2474915167326595 1 0 0 I I #
point $-1 -0.024831825700324828 -53.942997919738922 4.2474915167326666 #
point $-1 5.4119214997321166 -43.285033658353264 8.8396412417306607 #
point $-1 13.567051487880775 -43.285033658353264 8.8396412417306607 #
point $-1 -78.68648335215309 -53.942997919738922 20.395019938604985 #
straight-curve $-1 -78.68648335215309 -53.942997919738922 0 0 0 -1 I I #
point $-1 -78.68648335215309 -53.942997919738922 -20.395019938604985 #
End-of-ACIS-data 