500 0 9 0           
7 Unknown 11 ACIS 5.0 NT 24 Thu Mar 25 22:47:37 1999 
-1 9.9999999999999995e-007 1e-010 
body $-1 $9 $-1 $10 #
body $-1 $11 $-1 $12 #
body $-1 $13 $-1 $14 #
body $-1 $15 $-1 $16 #
body $-1 $17 $-1 $18 #
body $-1 $19 $-1 $20 #
body $-1 $21 $-1 $22 #
body $-1 $23 $-1 $24 #
body $-1 $25 $-1 $26 #
lump $-1 $-1 $27 $0 #
transform $-1 1 0 0 0 1 0 0 0 1 40.281991027558213 20.321586488904941 9.2321909479395963 1 rotate no_reflect no_shear #
lump $-1 $-1 $28 $1 #
transform $-1 1 0 0 0 1 0 0 0 1 40.281991027558213 20.321586488904941 9.2321909479395963 1 rotate no_reflect no_shear #
lump $-1 $-1 $29 $2 #
transform $-1 1 0 0 0 1 0 0 0 1 40.281991027558213 20.321586488904941 9.2321909479395963 1 rotate no_reflect no_shear #
lump $-1 $-1 $30 $3 #
transform $-1 1 0 0 0 1 0 0 0 1 40.281991027558213 20.321586488904941 9.2321909479395963 1 rotate no_reflect no_shear #
lump $-1 $-1 $31 $4 #
transform $-1 1 0 0 0 1 0 0 0 1 40.281991027558213 20.321586488904941 9.2321909479395963 1 rotate no_reflect no_shear #
lump $-1 $-1 $32 $5 #
transform $-1 1 0 0 0 1 0 0 0 1 40.281991027558213 20.321586488904941 9.2321909479395963 1 rotate no_reflect no_shear #
lump $-1 $-1 $33 $6 #
transform $-1 1 0 0 0 1 0 0 0 1 40.281991027558213 20.321586488904941 9.2321909479395963 1 rotate no_reflect no_shear #
lump $-1 $-1 $34 $7 #
transform $-1 1 0 0 0 1 0 0 0 1 40.281991027558213 20.321586488904941 9.2321909479395963 1 rotate no_reflect no_shear #
lump $-1 $-1 $35 $8 #
transform $-1 1 0 0 0 1 0 0 0 1 40.281991027558213 20.321586488904941 9.2321909479395963 1 rotate no_reflect no_shear #
shell $-1 $-1 $-1 $36 $-1 $9 #
shell $-1 $-1 $-1 $37 $-1 $11 #
shell $-1 $-1 $-1 $38 $-1 $13 #
shell $-1 $-1 $-1 $39 $-1 $15 #
shell $-1 $-1 $-1 $40 $-1 $17 #
shell $-1 $-1 $-1 $41 $-1 $19 #
shell $-1 $-1 $-1 $42 $-1 $21 #
shell $-1 $-1 $-1 $43 $-1 $23 #
shell $-1 $-1 $-1 $44 $-1 $25 #
face $-1 $45 $46 $27 $-1 $47 forward single #
face $-1 $48 $49 $28 $-1 $50 reversed single #
face $-1 $51 $52 $29 $-1 $53 reversed single #
face $-1 $54 $55 $30 $-1 $56 forward single #
face $-1 $57 $58 $31 $-1 $59 forward single #
face $-1 $60 $61 $32 $-1 $62 reversed single #
face $-1 $63 $64 $33 $-1 $65 forward single #
face $-1 $66 $67 $34 $-1 $68 forward single #
face $-1 $69 $70 $35 $-1 $71 forward single #
face $-1 $72 $73 $27 $-1 $74 reversed single #
loop $-1 $-1 $75 $36 #
plane-surface $-1 0 0 9.2321909479395963 0 0 1 1 0 0 forward_v I I I I #
face $-1 $76 $77 $28 $-1 $78 reversed single #
loop $-1 $-1 $79 $37 #
plane-surface $-1 -36.645606066121623 -15.632601589652635 0 0 -1 0 0 0 -1 forward_v I I I I #
face $-1 $80 $81 $29 $-1 $82 reversed single #
loop $-1 $-1 $83 $38 #
plane-surface $-1 -25.390330412053615 -20.321586488904948 0.14626163026720462 0 -0.54463904215088732 0.83867056331134215 1 0 0 forward_v I I I I #
face $-1 $84 $85 $30 $-1 $86 forward single #
loop $-1 $87 $88 $39 #
cone-surface $-1 -28.655569280324222 -12.953229276020712 4.1151565828590062 0 0.54463904215088732 -0.83867056331134215 0.5 0 0 1 I I 0 1 0.5 forward I I I I #
face $-1 $89 $90 $31 $-1 $91 forward single #
loop $-1 $92 $93 $40 #
cone-surface $-1 -22.125091543783011 -12.953229276020712 4.1151565828590062 0 0.54463904215088732 -0.83867056331134215 0.5 0 0 1 I I 0 1 0.5 forward I I I I #
face $-1 $94 $95 $32 $-1 $96 reversed single #
loop $-1 $-1 $97 $41 #
plane-surface $-1 -9.6175797169077608 26.977106559576946 90.66460233402816 1 0 0 0 -0.51503808176128008 -0.85716729658548041 forward_v I I I I #
face $-1 $98 $99 $33 $-1 $100 forward single #
loop $-1 $101 $102 $42 #
cone-surface $-1 -8.0167459352662789 12.943297060075277 4.5250167189269348 0 -0.51503808176128008 -0.85716729658548041 0.5 0 0 1 I I 0 1 0.5 forward I I I I #
face $-1 $103 $104 $34 $-1 $105 forward single #
loop $-1 $106 $107 $43 #
cone-surface $-1 -5.6154952628040533 12.943297060075277 4.5250167189269348 0 -0.51503808176128008 -0.85716729658548041 0.5 0 0 1 I I 0 1 0.5 forward I I I I #
face $-1 $108 $109 $35 $-1 $110 forward single #
loop $-1 $111 $112 $44 #
cone-surface $-1 -3.2142445903418277 12.943297060075277 4.5250167189269348 0 -0.51503808176128008 -0.85716729658548041 0.5 0 0 1 I I 0 1 0.5 forward I I I I #
face $-1 $113 $114 $27 $-1 $115 reversed single #
loop $-1 $-1 $116 $45 #
plane-surface $-1 0 0 -9.2321909479395963 0 0 1 1 0 0 forward_v I I I I #
coedge $-1 $117 $118 $119 $120 forward $46 $-1 #
face $-1 $121 $122 $28 $-1 $123 forward single #
loop $-1 $-1 $124 $48 #
plane-surface $-1 -33.009221104685032 -17.977094039278789 0 -1 0 0 0 0 1 forward_v I I I I #
coedge $-1 $125 $126 $127 $128 forward $49 $-1 #
face $-1 $129 $130 $29 $-1 $131 forward single #
loop $-1 $-1 $132 $51 #
plane-surface $-1 -17.771439719422204 -64.199876507264833 67.712901843036562 -1 0 0 0 -0.54463904215088732 0.83867056331134215 forward_v I I I I #
coedge $-1 $133 $134 $135 $136 reversed $52 $-1 #
face $-1 $-1 $137 $30 $-1 $138 forward single #
loop $-1 $139 $140 $54 #
cone-surface $-1 -28.655569280324222 -12.444264282278784 3.3314192357867753 0 0.54463904215088732 -0.83867056331134215 0.25 0 0 1 I I -0.70710678118654746 0.70710678118654746 0.25 forward I I I I #
loop $-1 $-1 $141 $39 #
coedge $-1 $88 $88 $142 $143 reversed $55 $-1 #
face $-1 $-1 $144 $31 $-1 $145 forward single #
loop $-1 $146 $147 $57 #
cone-surface $-1 -22.125091543783011 -12.444264282278784 3.3314192357867753 0 0.54463904215088732 -0.83867056331134215 0.25 0 0 1 I I -0.70710678118654746 0.70710678118654746 0.25 forward I I I I #
loop $-1 $-1 $148 $40 #
coedge $-1 $93 $93 $149 $150 reversed $58 $-1 #
face $-1 $151 $152 $32 $-1 $153 reversed single #
loop $-1 $-1 $154 $60 #
plane-surface $-1 -5.6154952628040533 -14.516412217140406 21.607791633682851 0 0.51503808176128008 0.85716729658548041 1 0 0 forward_v I I I I #
coedge $-1 $155 $156 $157 $158 reversed $61 $-1 #
face $-1 $-1 $159 $33 $-1 $160 forward single #
loop $-1 $161 $162 $63 #
cone-surface $-1 -8.0167459352662789 12.557018498754317 3.8821412464878247 0 -0.51503808176128008 -0.85716729658548041 0.25 0 0 1 I I -0.70710678118654746 0.70710678118654746 0.25 forward I I I I #
loop $-1 $-1 $163 $42 #
coedge $-1 $102 $102 $164 $165 reversed $64 $-1 #
face $-1 $-1 $166 $34 $-1 $167 forward single #
loop $-1 $168 $169 $66 #
cone-surface $-1 -5.6154952628040533 12.557018498754317 3.8821412464878247 0 -0.51503808176128008 -0.85716729658548041 0.25 0 0 1 I I -0.70710678118654746 0.70710678118654746 0.25 forward I I I I #
loop $-1 $-1 $170 $43 #
coedge $-1 $107 $107 $171 $172 reversed $67 $-1 #
face $-1 $-1 $173 $35 $-1 $174 forward single #
loop $-1 $175 $176 $69 #
cone-surface $-1 -3.2142445903418277 12.557018498754317 3.8821412464878247 0 -0.51503808176128008 -0.85716729658548041 0.25 0 0 1 I I -0.70710678118654746 0.70710678118654746 0.25 forward I I I I #
loop $-1 $-1 $177 $44 #
coedge $-1 $112 $112 $178 $179 reversed $70 $-1 #
face $-1 $180 $181 $27 $-1 $182 reversed single #
loop $-1 $-1 $183 $72 #
plane-surface $-1 0 -20.321586488904941 0 0 1 0 0 0 1 forward_v I I I I #
coedge $-1 $184 $185 $186 $187 forward $73 $-1 #
coedge $-1 $188 $75 $189 $190 forward $46 $-1 #
coedge $-1 $75 $188 $191 $192 forward $46 $-1 #
coedge $-1 $193 $194 $75 $120 reversed $195 $-1 #
edge $-1 $196 -20.321586488904941 $197 20.321586488904941 $119 $198 forward 7 unknown #
face $-1 $199 $200 $28 $-1 $201 reversed single #
loop $-1 $-1 $202 $76 #
plane-surface $-1 0 0 9.2321909479395963 0 0 1 1 0 0 forward_v I I I I #
coedge $-1 $203 $204 $205 $206 reversed $77 $-1 #
coedge $-1 $207 $79 $208 $209 reversed $49 $-1 #
coedge $-1 $79 $207 $210 $211 reversed $49 $-1 #
coedge $-1 $204 $203 $79 $128 reversed $77 $-1 #
edge $-1 $212 -9.2321909479395963 $213 9.2321909479395963 $127 $214 forward 7 unknown #
face $-1 $215 $216 $29 $-1 $217 forward single #
loop $-1 $-1 $218 $80 #
plane-surface $-1 0 0 9.2321909479395963 0 0 1 1 0 0 forward_v I I I I #
coedge $-1 $219 $220 $221 $222 reversed $81 $-1 #
coedge $-1 $223 $83 $224 $225 reversed $52 $-1 #
coedge $-1 $83 $223 $219 $226 forward $52 $-1 #
coedge $-1 $221 $227 $83 $136 forward $228 $-1 #
edge $-1 $229 -20.314055898658225 $230 -5.076274513395397 $135 $231 forward 7 unknown #
loop $-1 $-1 $142 $84 #
plane-surface $-1 -25.390330412053615 -20.321586488904948 0.14626163026720462 0 -0.54463904215088732 0.83867056331134215 1 0 0 forward_v I I I I #
loop $-1 $-1 $232 $54 #
coedge $-1 $140 $140 $141 $233 reversed $85 $-1 #
coedge $-1 $141 $141 $140 $233 forward $87 $-1 #
coedge $-1 $142 $142 $88 $143 forward $137 $-1 #
edge $-1 $234 -1.93494657505826e-015 $234 6.2831853071795987 $142 $235 forward 7 unknown #
loop $-1 $-1 $149 $89 #
plane-surface $-1 -25.390330412053615 -20.321586488904948 0.14626163026720462 0 -0.54463904215088732 0.83867056331134215 1 0 0 forward_v I I I I #
loop $-1 $-1 $236 $57 #
coedge $-1 $147 $147 $148 $237 reversed $90 $-1 #
coedge $-1 $148 $148 $147 $237 forward $92 $-1 #
coedge $-1 $149 $149 $93 $150 forward $144 $-1 #
edge $-1 $238 -1.93494657505826e-015 $238 6.2831853071795987 $149 $239 forward 7 unknown #
face $-1 $240 $241 $32 $-1 $242 reversed single #
loop $-1 $-1 $243 $94 #
plane-surface $-1 -1.6134108087003458 26.977106559576946 90.66460233402816 -1 0 0 0 0.51503808176128008 0.85716729658548041 forward_v I I I I #
coedge $-1 $244 $245 $246 $247 reversed $95 $-1 #
coedge $-1 $156 $97 $248 $249 reversed $61 $-1 #
coedge $-1 $97 $155 $244 $250 reversed $61 $-1 #
coedge $-1 $246 $251 $97 $158 forward $252 $-1 #
edge $-1 $253 -6.8330332091164685 $254 7.4085075667815943 $157 $255 forward 7 unknown #
loop $-1 $-1 $164 $98 #
plane-surface $-1 -5.6154952628040533 -14.516412217140406 21.607791633682851 0 0.51503808176128008 0.85716729658548041 1 0 0 forward_v I I I I #
loop $-1 $-1 $256 $63 #
coedge $-1 $162 $162 $163 $257 reversed $99 $-1 #
coedge $-1 $163 $163 $162 $257 forward $101 $-1 #
coedge $-1 $164 $164 $102 $165 forward $159 $-1 #
edge $-1 $258 -1.8297828381764705e-015 $258 6.2831853071795987 $164 $259 forward 7 unknown #
loop $-1 $-1 $171 $103 #
plane-surface $-1 -5.6154952628040533 -14.516412217140406 21.607791633682851 0 0.51503808176128008 0.85716729658548041 1 0 0 forward_v I I I I #
loop $-1 $-1 $260 $66 #
coedge $-1 $169 $169 $170 $261 reversed $104 $-1 #
coedge $-1 $170 $170 $169 $261 forward $106 $-1 #
coedge $-1 $171 $171 $107 $172 forward $166 $-1 #
edge $-1 $262 -1.8297828381764705e-015 $262 6.2831853071795987 $171 $263 forward 7 unknown #
loop $-1 $-1 $178 $108 #
plane-surface $-1 -5.6154952628040533 -14.516412217140406 21.607791633682851 0 0.51503808176128008 0.85716729658548041 1 0 0 forward_v I I I I #
loop $-1 $-1 $264 $69 #
coedge $-1 $176 $176 $177 $265 reversed $109 $-1 #
coedge $-1 $177 $177 $176 $265 forward $111 $-1 #
coedge $-1 $178 $178 $112 $179 forward $173 $-1 #
edge $-1 $266 -1.8297828381764705e-015 $266 6.2831853071795987 $178 $267 forward 7 unknown #
face $-1 $268 $269 $27 $-1 $270 reversed single #
loop $-1 $-1 $271 $113 #
plane-surface $-1 -40.281991027558213 0 0 1 0 0 0 0 -1 forward_v I I I I #
coedge $-1 $272 $191 $273 $274 forward $114 $-1 #
coedge $-1 $275 $116 $272 $276 forward $73 $-1 #
coedge $-1 $116 $275 $277 $278 forward $73 $-1 #
coedge $-1 $194 $193 $116 $187 reversed $195 $-1 #
edge $-1 $279 -20.321586488904941 $280 20.321586488904941 $186 $281 forward 7 unknown #
coedge $-1 $118 $117 $282 $283 forward $46 $-1 #
coedge $-1 $284 $285 $117 $190 reversed $269 $-1 #
edge $-1 $197 -40.281991027558213 $286 40.281991027558213 $189 $287 forward 7 unknown #
coedge $-1 $183 $288 $118 $192 reversed $114 $-1 #
edge $-1 $289 -40.281991027558213 $196 40.281991027558213 $191 $290 forward 7 unknown #
coedge $-1 $186 $119 $288 $291 forward $195 $-1 #
coedge $-1 $119 $186 $284 $292 reversed $195 $-1 #
loop $-1 $-1 $193 $268 #
vertex $-1 $120 $293 #
vertex $-1 $120 $294 #
straight-curve $-1 40.281991027558213 0 9.2321909479395963 0 1 0 I I #
face $-1 $295 $296 $28 $-1 $297 reversed single #
loop $-1 $-1 $298 $121 #
plane-surface $-1 -40.281991027558213 0 0 1 0 0 0 0 -1 forward_v I I I I #
coedge $-1 $210 $299 $204 $300 forward $122 $-1 #
coedge $-1 $127 $124 $301 $302 reversed $77 $-1 #
coedge $-1 $124 $127 $202 $300 reversed $77 $-1 #
coedge $-1 $303 $304 $124 $206 forward $305 $-1 #
edge $-1 $306 -9.2321909479395963 $307 9.2321909479395963 $205 $308 forward 7 unknown #
coedge $-1 $126 $125 $298 $309 reversed $49 $-1 #
coedge $-1 $301 $310 $125 $209 forward $296 $-1 #
edge $-1 $311 -21.959187994497402 $213 -14.686418071624221 $208 $312 forward 7 unknown #
coedge $-1 $313 $202 $126 $211 forward $122 $-1 #
edge $-1 $212 14.686418071624221 $314 21.959187994497402 $210 $315 forward 7 unknown #
vertex $-1 $211 $316 #
vertex $-1 $209 $317 #
straight-curve $-1 -33.009221104685032 -15.632601589652635 0 0 0 -1 I I #
face $-1 $-1 $228 $29 $-1 $318 reversed single #
loop $-1 $-1 $224 $129 #
plane-surface $-1 -33.009221104685032 -17.977094039278789 0 -1 0 0 0 0 1 forward_v I I I I #
coedge $-1 $319 $320 $220 $321 forward $130 $-1 #
coedge $-1 $220 $132 $134 $226 reversed $81 $-1 #
coedge $-1 $132 $219 $218 $321 reversed $81 $-1 #
coedge $-1 $322 $135 $132 $222 forward $228 $-1 #
edge $-1 $230 -33.710189291251069 $323 -24.624259973578685 $221 $324 forward 7 unknown #
coedge $-1 $134 $133 $319 $325 reversed $52 $-1 #
coedge $-1 $326 $327 $133 $225 forward $216 $-1 #
edge $-1 $328 -15.739180374974296 $229 0.94329850459749176 $224 $329 forward 7 unknown #
edge $-1 $330 -16.682478879571796 $230 -8.4684966040957343e-015 $219 $331 forward 7 unknown #
coedge $-1 $135 $322 $326 $332 forward $228 $-1 #
loop $-1 $-1 $221 $215 #
vertex $-1 $225 $333 #
vertex $-1 $136 $334 #
straight-curve $-1 -12.695165206026807 -20.321586488904941 0.14626163026720995 1 0 0 I I #
coedge $-1 $232 $232 $-1 $335 reversed $139 $-1 #
edge $-1 $336 0 $336 6.2831853071796004 $140 $337 forward 7 unknown #
vertex $-1 $143 $338 #
ellipse-curve $-1 -28.655569280324222 -13.32603450922492 4.6892262891034031 0 -0.54463904215088732 0.83867056331134215 0.5 0 0 1 I I #
coedge $-1 $236 $236 $-1 $339 reversed $146 $-1 #
edge $-1 $340 0 $340 6.2831853071796004 $147 $341 forward 7 unknown #
vertex $-1 $150 $342 #
ellipse-curve $-1 -22.125091543783011 -13.32603450922492 4.6892262891034031 0 -0.54463904215088732 0.83867056331134215 0.5 0 0 1 I I #
face $-1 $-1 $252 $32 $-1 $343 forward single #
loop $-1 $-1 $344 $151 #
plane-surface $-1 0 20.321586488904941 0 0 -1 0 0 0 -1 forward_v I I I I #
coedge $-1 $345 $346 $347 $348 reversed $152 $-1 #
coedge $-1 $349 $154 $156 $250 forward $95 $-1 #
coedge $-1 $154 $349 $345 $350 forward $95 $-1 #
coedge $-1 $347 $157 $154 $247 forward $252 $-1 #
edge $-1 $254 -6.8098320855057342 $351 1.1943368227016808 $246 $352 forward 7 unknown #
coedge $-1 $353 $354 $155 $249 forward $241 $-1 #
edge $-1 $355 -44.657291380514323 $253 -36.10011021907448 $248 $356 forward 7 unknown #
edge $-1 $254 24.028515801049714 $355 40.643172977809883 $156 $357 forward 7 unknown #
coedge $-1 $157 $347 $353 $358 forward $252 $-1 #
loop $-1 $-1 $347 $240 #
vertex $-1 $249 $359 #
vertex $-1 $158 $360 #
straight-curve $-1 -9.6175797169077608 13.488553279788473 9.2321909479395927 0 -1 0 I I #
coedge $-1 $256 $256 $-1 $361 reversed $161 $-1 #
edge $-1 $362 0 $362 6.2831853071796004 $162 $363 forward 7 unknown #
vertex $-1 $165 $364 #
ellipse-curve $-1 -8.0167459352662789 13.200816100955917 4.9536003672196731 0 0.51503808176128008 0.85716729658548041 0.5 0 0 1 I I #
coedge $-1 $260 $260 $-1 $365 reversed $168 $-1 #
edge $-1 $366 0 $366 6.2831853071796004 $169 $367 forward 7 unknown #
vertex $-1 $172 $368 #
ellipse-curve $-1 -5.6154952628040533 13.200816100955917 4.9536003672196731 0 0.51503808176128008 0.85716729658548041 0.5 0 0 1 I I #
coedge $-1 $264 $264 $-1 $369 reversed $175 $-1 #
edge $-1 $370 0 $370 6.2831853071796004 $176 $371 forward 7 unknown #
vertex $-1 $179 $372 #
ellipse-curve $-1 -3.2142445903418277 13.200816100955917 4.9536003672196731 0 0.51503808176128008 0.85716729658548041 0.5 0 0 1 I I #
face $-1 $-1 $195 $27 $-1 $373 reversed single #
loop $-1 $-1 $284 $180 #
plane-surface $-1 0 20.321586488904941 0 0 -1 0 0 0 -1 forward_v I I I I #
coedge $-1 $374 $282 $285 $375 forward $181 $-1 #
coedge $-1 $288 $183 $184 $276 reversed $114 $-1 #
coedge $-1 $282 $374 $183 $274 reversed $181 $-1 #
edge $-1 $289 -9.2321909479395963 $376 9.2321909479395963 $273 $377 forward 7 unknown #
coedge $-1 $185 $184 $374 $378 forward $73 $-1 #
edge $-1 $280 -40.281991027558213 $376 40.281991027558213 $272 $379 forward 7 unknown #
coedge $-1 $285 $284 $185 $278 reversed $269 $-1 #
edge $-1 $380 -40.281991027558213 $279 40.281991027558213 $277 $381 forward 7 unknown #
vertex $-1 $187 $382 #
vertex $-1 $291 $383 #
straight-curve $-1 40.281991027558213 0 -9.2321909479395963 0 -1 0 I I #
coedge $-1 $271 $273 $188 $283 reversed $181 $-1 #
edge $-1 $286 -20.321586488904941 $289 20.321586488904941 $282 $384 forward 7 unknown #
coedge $-1 $277 $189 $194 $292 forward $269 $-1 #
coedge $-1 $189 $277 $271 $375 reversed $269 $-1 #
vertex $-1 $190 $385 #
straight-curve $-1 0 20.321586488904941 9.2321909479395963 -1 0 0 I I #
coedge $-1 $191 $272 $193 $291 reversed $114 $-1 #
vertex $-1 $283 $386 #
straight-curve $-1 0 -20.321586488904941 9.2321909479395963 1 0 0 I I #
edge $-1 $196 -9.2321909479395963 $280 9.2321909479395963 $193 $387 forward 7 unknown #
edge $-1 $197 -9.2321909479395963 $279 9.2321909479395963 $194 $388 forward 7 unknown #
point $-1 40.281991027558213 -20.321586488904941 9.2321909479395963 #
point $-1 40.281991027558213 20.321586488904941 9.2321909479395963 #
face $-1 $-1 $305 $28 $-1 $389 reversed single #
loop $-1 $-1 $301 $199 #
plane-surface $-1 0 0 -9.2321909479395963 0 0 1 1 0 0 forward_v I I I I #
coedge $-1 $390 $391 $207 $309 forward $200 $-1 #
coedge $-1 $202 $313 $303 $392 forward $122 $-1 #
edge $-1 $307 -11.333039469265547 $212 -6.6440545700132407 $202 $393 forward 7 unknown #
coedge $-1 $394 $208 $203 $302 forward $296 $-1 #
edge $-1 $213 6.6440545700132407 $306 11.333039469265547 $301 $395 forward 7 unknown #
coedge $-1 $396 $205 $299 $392 reversed $305 $-1 #
coedge $-1 $205 $396 $394 $397 reversed $305 $-1 #
loop $-1 $-1 $205 $295 #
vertex $-1 $397 $398 #
vertex $-1 $206 $399 #
straight-curve $-1 -33.009221104685032 -20.321586488904941 0 0 0 1 I I #
edge $-1 $314 -9.2321909479395963 $311 9.2321909479395963 $298 $400 forward 7 unknown #
coedge $-1 $208 $394 $390 $401 forward $296 $-1 #
vertex $-1 $209 $402 #
straight-curve $-1 -18.322803033060811 -15.632601589652635 -9.2321909479395963 1 0 0 I I #
coedge $-1 $299 $210 $391 $403 forward $122 $-1 #
vertex $-1 $403 $404 #
straight-curve $-1 -18.322803033060811 -15.632601589652635 9.2321909479395963 -1 0 0 I I #
point $-1 -33.009221104685032 -15.632601589652635 9.2321909479395963 #
point $-1 -33.009221104685032 -15.632601589652635 -9.2321909479395963 #
plane-surface $-1 0 -20.321586488904941 0 0 1 0 0 0 1 forward_v I I I I #
coedge $-1 $405 $218 $223 $325 forward $130 $-1 #
coedge $-1 $218 $405 $322 $406 forward $130 $-1 #
edge $-1 $323 11.778351764727475 $330 25.769455724087514 $218 $407 forward 7 unknown #
coedge $-1 $227 $221 $320 $406 reversed $228 $-1 #
vertex $-1 $321 $408 #
straight-curve $-1 -17.771439719422204 -20.321586488904941 33.856450921518281 0 0 1 I I #
edge $-1 $330 5.076274513395397 $328 20.314055898658218 $319 $409 forward 7 unknown #
coedge $-1 $327 $224 $227 $332 reversed $216 $-1 #
coedge $-1 $224 $326 $405 $410 reversed $216 $-1 #
vertex $-1 $410 $411 #
straight-curve $-1 -33.009221104685032 -19.530469800683417 0.66001882427355185 0 -0.83867056331134215 -0.54463904215088732 I I #
vertex $-1 $325 $412 #
straight-curve $-1 -17.771439719422204 -20.321586488904948 0.14626163026720462 0 -0.83867056331134215 -0.54463904215088732 I I #
edge $-1 $413 -9.2321909479395963 $229 -0.14626163026720926 $227 $414 forward 7 unknown #
point $-1 -33.009221104685032 -20.321586488904941 0.14626163026720926 #
point $-1 -17.771439719422204 -20.321586488904941 0.14626163026720923 #
edge $-1 $415 1 $415 0 $232 $-1 forward 7 unknown #
vertex $-1 $233 $416 #
ellipse-curve $-1 -28.655569280324222 -12.580424042816507 3.5410868766146111 0 -0.54463904215088732 0.83867056331134215 0.5 0 0 1 I I #
point $-1 -28.155569280324222 -13.32603450922492 4.6892262891034013 #
edge $-1 $417 1 $417 0 $236 $-1 forward 7 unknown #
vertex $-1 $237 $418 #
ellipse-curve $-1 -22.125091543783011 -12.580424042816507 3.5410868766146111 0 -0.54463904215088732 0.83867056331134215 0.5 0 0 1 I I #
point $-1 -21.625091543783011 -13.32603450922492 4.6892262891034013 #
plane-surface $-1 0 0 9.2321909479395963 0 0 1 1 0 0 forward_v I I I I #
coedge $-1 $354 $353 $346 $419 forward $241 $-1 #
coedge $-1 $346 $243 $245 $350 reversed $152 $-1 #
coedge $-1 $243 $345 $344 $419 reversed $152 $-1 #
coedge $-1 $251 $246 $243 $348 forward $252 $-1 #
edge $-1 $351 -7.4085075667815943 $420 6.8330332091164685 $347 $421 forward 7 unknown #
coedge $-1 $245 $244 $354 $422 reversed $95 $-1 #
edge $-1 $423 -40.643172977809883 $351 -24.028515801049714 $345 $424 forward 7 unknown #
vertex $-1 $247 $425 #
straight-curve $-1 -2.8077476314020267 6.0800457130068812 9.2321909479395963 1 0 0 I I #
coedge $-1 $344 $248 $251 $358 reversed $241 $-1 #
coedge $-1 $248 $344 $349 $422 forward $241 $-1 #
vertex $-1 $249 $426 #
straight-curve $-1 -9.6175797169077608 20.321586488904941 45.33230116701408 0 0 1 I I #
straight-curve $-1 -9.6175797169077608 -14.516412217140406 21.607791633682851 0 0.85716729658548041 -0.51503808176128008 I I #
edge $-1 $420 1.6134108087003458 $253 9.6175797169077608 $353 $427 forward 7 unknown #
point $-1 -9.6175797169077608 20.321586488904941 9.2321909479395963 #
point $-1 -9.6175797169077608 6.0800457130068786 9.2321909479395963 #
edge $-1 $428 1 $428 0 $256 $-1 forward 7 unknown #
vertex $-1 $257 $429 #
ellipse-curve $-1 -8.0167459352662789 12.685778019194638 4.0964330706341947 0 0.51503808176128008 0.85716729658548041 0.5 0 0 1 I I #
point $-1 -7.5167459352662789 13.200816100955917 4.9536003672196749 #
edge $-1 $430 1 $430 0 $260 $-1 forward 7 unknown #
vertex $-1 $261 $431 #
ellipse-curve $-1 -5.6154952628040533 12.685778019194638 4.0964330706341947 0 0.51503808176128008 0.85716729658548041 0.5 0 0 1 I I #
point $-1 -5.1154952628040533 13.200816100955917 4.9536003672196749 #
edge $-1 $432 1 $432 0 $264 $-1 forward 7 unknown #
vertex $-1 $265 $433 #
ellipse-curve $-1 -3.2142445903418277 12.685778019194638 4.0964330706341947 0 0.51503808176128008 0.85716729658548041 0.5 0 0 1 I I #
point $-1 -2.7142445903418277 13.200816100955917 4.9536003672196749 #
plane-surface $-1 40.281991027558213 0 0 -1 0 0 0 0 1 forward_v I I I I #
coedge $-1 $273 $271 $275 $378 reversed $181 $-1 #
edge $-1 $286 -9.2321909479395963 $380 9.2321909479395963 $285 $434 forward 7 unknown #
vertex $-1 $378 $435 #
straight-curve $-1 -40.281991027558213 -20.321586488904941 0 0 0 -1 I I #
edge $-1 $376 -20.321586488904941 $380 20.321586488904941 $374 $436 forward 7 unknown #
straight-curve $-1 0 -20.321586488904941 -9.2321909479395963 -1 0 0 I I #
vertex $-1 $278 $437 #
straight-curve $-1 0 20.321586488904941 -9.2321909479395963 1 0 0 I I #
point $-1 40.281991027558213 20.321586488904941 -9.2321909479395963 #
point $-1 40.281991027558213 -20.321586488904941 -9.2321909479395963 #
straight-curve $-1 -40.281991027558213 0 9.2321909479395963 0 -1 0 I I #
point $-1 -40.281991027558213 20.321586488904941 9.2321909479395963 #
point $-1 -40.281991027558213 -20.321586488904941 9.2321909479395963 #
straight-curve $-1 40.281991027558213 -20.321586488904941 0 0 0 -1 I I #
straight-curve $-1 40.281991027558213 20.321586488904941 0 0 0 -1 I I #
plane-surface $-1 0 -20.321586488904941 0 0 1 0 0 0 1 forward_v I I I I #
coedge $-1 $438 $298 $310 $401 reversed $200 $-1 #
coedge $-1 $298 $438 $313 $403 reversed $200 $-1 #
edge $-1 $439 -40.281991027558213 $307 -33.009221104685032 $303 $440 forward 7 unknown #
straight-curve $-1 -33.009221104685032 -8.9885470196393946 9.2321909479395963 0 1 0 I I #
coedge $-1 $310 $301 $304 $397 forward $296 $-1 #
straight-curve $-1 -33.009221104685032 -8.9885470196393946 -9.2321909479395963 0 -1 0 I I #
coedge $-1 $304 $303 $438 $441 forward $305 $-1 #
edge $-1 $306 33.009221104685032 $442 40.281991027558213 $304 $443 forward 7 unknown #
point $-1 -33.009221104685032 -20.321586488904941 -9.2321909479395963 #
point $-1 -33.009221104685032 -20.321586488904941 9.2321909479395963 #
straight-curve $-1 -40.281991027558213 -15.632601589652635 0 0 0 -1 I I #
edge $-1 $442 -20.321586488904941 $311 -15.632601589652635 $390 $444 forward 7 unknown #
point $-1 -40.281991027558213 -15.632601589652635 -9.2321909479395963 #
edge $-1 $314 15.632601589652635 $439 20.321586488904941 $391 $445 forward 7 unknown #
point $-1 -40.281991027558213 -15.632601589652635 9.2321909479395963 #
coedge $-1 $320 $319 $327 $410 forward $130 $-1 #
edge $-1 $413 -33.009221104685032 $323 -17.771439719422204 $322 $446 forward 7 unknown #
straight-curve $-1 -17.771439719422204 -32.099938253632416 9.2321909479395963 0 1 0 I I #
point $-1 -17.771439719422204 -20.321586488904941 9.2321909479395963 #
straight-curve $-1 -12.695165206026807 -6.3304825295449021 9.2321909479395963 -1 0 0 I I #
edge $-1 $328 -25.769455724087514 $413 -11.778351764727475 $405 $447 forward 7 unknown #
point $-1 -33.009221104685025 -6.3304825295449021 9.2321909479395963 #
point $-1 -17.771439719422204 -6.3304825295449021 9.2321909479395963 #
vertex $-1 $406 $448 #
straight-curve $-1 -33.009221104685032 -20.321586488904941 0 0 0 -1 I I #
vertex $-1 $335 $449 #
point $-1 -28.155569280324222 -12.580424042816507 3.5410868766146111 #
vertex $-1 $339 $450 #
point $-1 -21.625091543783011 -12.580424042816507 3.5410868766146111 #
edge $-1 $420 36.10011021907448 $423 44.657291380514323 $344 $451 forward 7 unknown #
vertex $-1 $358 $452 #
straight-curve $-1 -1.6134108087003458 13.488553279788473 9.2321909479395927 0 1 0 I I #
edge $-1 $423 -1.1943368227016808 $355 6.8098320855057342 $354 $453 forward 7 unknown #
vertex $-1 $422 $454 #
straight-curve $-1 -1.6134108087003458 -14.516412217140406 21.607791633682851 0 -0.85716729658548041 0.51503808176128008 I I #
point $-1 -1.6134108087003458 6.0800457130068786 9.2321909479395963 #
point $-1 -9.6175797169077608 20.321586488904941 0.67500978649975707 #
straight-curve $-1 0 20.321586488904941 9.2321909479395963 -1 0 0 I I #
vertex $-1 $361 $455 #
point $-1 -7.5167459352662789 12.685778019194638 4.0964330706341947 #
vertex $-1 $365 $456 #
point $-1 -5.1154952628040533 12.685778019194638 4.0964330706341947 #
vertex $-1 $369 $457 #
point $-1 -2.7142445903418277 12.685778019194638 4.0964330706341947 #
straight-curve $-1 -40.281991027558213 20.321586488904941 0 0 0 -1 I I #
point $-1 -40.281991027558213 -20.321586488904941 -9.2321909479395963 #
straight-curve $-1 -40.281991027558213 0 -9.2321909479395963 0 1 0 I I #
point $-1 -40.281991027558213 20.321586488904941 -9.2321909479395963 #
coedge $-1 $391 $390 $396 $441 reversed $200 $-1 #
vertex $-1 $403 $458 #
straight-curve $-1 0 -20.321586488904941 9.2321909479395963 1 0 0 I I #
edge $-1 $439 -9.2321909479395963 $442 9.2321909479395963 $438 $459 forward 7 unknown #
vertex $-1 $401 $460 #
straight-curve $-1 0 -20.321586488904941 -9.2321909479395963 -1 0 0 I I #
straight-curve $-1 -40.281991027558213 0 -9.2321909479395963 0 1 0 I I #
straight-curve $-1 -40.281991027558213 0 9.2321909479395963 0 -1 0 I I #
straight-curve $-1 0 -20.321586488904941 9.2321909479395963 1 0 0 I I #
straight-curve $-1 -33.009221104685025 -32.099938253632416 9.2321909479395963 0 -1 0 I I #
point $-1 -33.009221104685032 -20.321586488904941 9.2321909479395963 #
point $-1 -28.655569280324222 -12.308104521741061 3.1217515949589396 #
point $-1 -22.125091543783011 -12.308104521741061 3.1217515949589396 #
straight-curve $-1 -1.6134108087003458 20.321586488904941 45.33230116701408 0 0 -1 I I #
point $-1 -1.6134108087003458 20.321586488904941 9.2321909479395963 #
straight-curve $-1 -2.8077476314020267 20.321586488904941 0.67500978649975707 -1 0 0 I I #
point $-1 -1.6134108087003458 20.321586488904941 0.67500978649975707 #
point $-1 -8.0167459352662789 12.428258978313997 3.6678494223414546 #
point $-1 -5.6154952628040533 12.428258978313997 3.6678494223414546 #
point $-1 -3.2142445903418277 12.428258978313997 3.6678494223414546 #
point $-1 -40.281991027558213 -20.321586488904941 9.2321909479395963 #
straight-curve $-1 -40.281991027558213 -20.321586488904941 0 0 0 -1 I I #
point $-1 -40.281991027558213 -20.321586488904941 -9.2321909479395963 #
End-of-ACIS-data 