500 0 4 0           
7 Unknown 11 ACIS 5.0 NT 24 Fri Mar 26 20:46:39 1999 
-1 9.9999999999999995e-007 1e-010 
body $-1 $4 $-1 $5 #
body $-1 $6 $-1 $7 #
body $-1 $8 $-1 $9 #
body $-1 $10 $-1 $11 #
lump $-1 $-1 $12 $0 #
transform $-1 1 0 0 0 1 0 0 0 1 75.45030060731834 37.767748971869118 17.288078457871176 1 rotate no_reflect no_shear #
lump $-1 $-1 $13 $1 #
transform $-1 1 0 0 0 1 0 0 0 1 75.45030060731834 37.767748971869118 17.288078457871176 1 rotate no_reflect no_shear #
lump $-1 $-1 $14 $2 #
transform $-1 1 0 0 0 1 0 0 0 1 75.45030060731834 37.767748971869118 17.288078457871176 1 rotate no_reflect no_shear #
lump $-1 $-1 $15 $3 #
transform $-1 1 0 0 0 1 0 0 0 1 75.45030060731834 37.767748971869118 17.288078457871176 1 rotate no_reflect no_shear #
shell $-1 $-1 $-1 $16 $-1 $4 #
shell $-1 $-1 $-1 $17 $-1 $6 #
shell $-1 $-1 $-1 $18 $-1 $8 #
shell $-1 $-1 $-1 $19 $-1 $10 #
face $-1 $20 $21 $12 $-1 $22 forward single #
face $-1 $23 $24 $13 $-1 $25 forward single #
face $-1 $26 $27 $14 $-1 $28 forward single #
face $-1 $29 $30 $15 $-1 $31 reversed single #
face $-1 $32 $33 $12 $-1 $34 reversed single #
loop $-1 $-1 $35 $16 #
plane-surface $-1 0 0 17.288078457871176 0 0 1 1 0 0 forward_v I I I I #
face $-1 $36 $37 $13 $-1 $38 forward single #
loop $-1 $-1 $39 $17 #
plane-surface $-1 -73.553713930707431 -21.614161422070758 0 0 -1 0 0 0 -1 forward_v I I I I #
face $-1 $40 $41 $14 $-1 $42 forward single #
loop $-1 $-1 $43 $18 #
plane-surface $-1 53.143335292140122 23.172644324168019 217.51414193782168 0 1 0 0.62932039886446345 0 0.77714595512881146 forward_v I I I I #
face $-1 $44 $45 $15 $-1 $46 reversed single #
loop $-1 $47 $48 $19 #
cone-surface $-1 65.878958644477962 30.470196648018565 8.6210517883890354 -0.62932039886446345 0 -0.77714595512881146 1.5542919102576229 0 -1.2586407977289269 1 I I 0 1 2 forward I I I I #
face $-1 $49 $50 $12 $-1 $51 reversed single #
loop $-1 $-1 $52 $20 #
plane-surface $-1 0 0 -17.288078457871176 0 0 1 1 0 0 forward_v I I I I #
coedge $-1 $53 $54 $55 $56 forward $21 $-1 #
face $-1 $57 $58 $13 $-1 $59 forward single #
loop $-1 $-1 $60 $23 #
plane-surface $-1 -71.657127254096523 -29.690955196969938 0 -1 0 0 0 0 1 forward_v I I I I #
coedge $-1 $61 $62 $63 $64 reversed $24 $-1 #
face $-1 $65 $66 $14 $-1 $67 reversed single #
loop $-1 $-1 $68 $26 #
plane-surface $-1 -41.821491253142369 30.470196648018565 100.24235007736097 0.62932039886446345 0 0.77714595512881146 0.77714595512881146 0 -0.62932039886446345 forward_v I I I I #
coedge $-1 $69 $70 $71 $72 reversed $27 $-1 #
face $-1 $73 $74 $15 $-1 $75 forward single #
loop $-1 $76 $77 $29 #
cone-surface $-1 63.094196193434144 30.470196648018565 5.1821566266744448 -0.62932039886446345 0 -0.77714595512881146 0.77714595512881146 0 -0.62932039886446345 1 I I -0.70710678118654746 0.70710678118654746 1 forward I I I I #
loop $-1 $-1 $78 $19 #
coedge $-1 $48 $48 $79 $80 reversed $30 $-1 #
face $-1 $81 $82 $12 $-1 $83 reversed single #
loop $-1 $-1 $84 $32 #
plane-surface $-1 0 -37.767748971869118 0 0 1 0 0 0 1 forward_v I I I I #
coedge $-1 $85 $86 $87 $88 forward $33 $-1 #
coedge $-1 $89 $35 $90 $91 forward $21 $-1 #
coedge $-1 $35 $89 $92 $93 forward $21 $-1 #
coedge $-1 $94 $95 $35 $56 reversed $96 $-1 #
edge $-1 $97 -37.767748971869118 $98 37.767748971869118 $55 $99 forward 7 unknown #
face $-1 $100 $101 $13 $-1 $102 reversed single #
loop $-1 $-1 $103 $36 #
plane-surface $-1 0 0 17.288078457871176 0 0 1 1 0 0 forward_v I I I I #
coedge $-1 $104 $105 $106 $107 reversed $37 $-1 #
coedge $-1 $108 $39 $103 $109 reversed $24 $-1 #
coedge $-1 $39 $108 $110 $111 reversed $24 $-1 #
coedge $-1 $105 $104 $39 $64 forward $37 $-1 #
edge $-1 $112 -17.288078457871176 $113 17.288078457871176 $63 $114 forward 7 unknown #
face $-1 $115 $116 $14 $-1 $117 forward single #
loop $-1 $-1 $118 $40 #
plane-surface $-1 75.45030060731834 0 0 -1 0 0 0 0 1 forward_v I I I I #
coedge $-1 $119 $120 $118 $121 reversed $41 $-1 #
coedge $-1 $70 $43 $120 $122 forward $27 $-1 #
coedge $-1 $43 $69 $123 $124 reversed $27 $-1 #
coedge $-1 $125 $118 $43 $72 forward $66 $-1 #
edge $-1 $126 -103.47954743683236 $127 -91.468992511039659 $71 $128 forward 7 unknown #
face $-1 $129 $130 $15 $-1 $131 forward single #
loop $-1 $-1 $132 $44 #
plane-surface $-1 53.143335292140122 23.172644324168019 217.51414193782168 0 1 0 0.62932039886446345 0 0.77714595512881146 forward_v I I I I #
loop $-1 $-1 $133 $29 #
coedge $-1 $77 $77 $78 $134 forward $45 $-1 #
coedge $-1 $78 $78 $77 $134 reversed $47 $-1 #
coedge $-1 $79 $79 $48 $80 forward $130 $-1 #
edge $-1 $135 0 $135 6.2831853071796004 $79 $136 forward 7 unknown #
face $-1 $137 $138 $12 $-1 $139 reversed single #
loop $-1 $-1 $140 $49 #
plane-surface $-1 -75.45030060731834 0 0 1 0 0 0 0 -1 forward_v I I I I #
coedge $-1 $141 $92 $142 $143 forward $50 $-1 #
coedge $-1 $144 $52 $141 $145 forward $33 $-1 #
coedge $-1 $52 $144 $146 $147 forward $33 $-1 #
coedge $-1 $95 $94 $52 $88 reversed $96 $-1 #
edge $-1 $148 -37.767748971869118 $149 37.767748971869118 $87 $150 forward 7 unknown #
coedge $-1 $54 $53 $151 $152 forward $21 $-1 #
coedge $-1 $153 $154 $53 $91 reversed $138 $-1 #
edge $-1 $98 -75.45030060731834 $155 75.45030060731834 $90 $156 forward 7 unknown #
coedge $-1 $84 $157 $54 $93 reversed $50 $-1 #
edge $-1 $158 -75.45030060731834 $97 75.45030060731834 $92 $159 forward 7 unknown #
coedge $-1 $87 $55 $157 $160 forward $96 $-1 #
coedge $-1 $55 $87 $153 $161 reversed $96 $-1 #
loop $-1 $-1 $94 $137 #
vertex $-1 $56 $162 #
vertex $-1 $56 $163 #
straight-curve $-1 75.45030060731834 0 17.288078457871176 0 1 0 I I #
face $-1 $164 $165 $13 $-1 $166 reversed single #
loop $-1 $-1 $106 $57 #
plane-surface $-1 0 -37.767748971869118 0 0 1 0 0 0 1 forward_v I I I I #
coedge $-1 $167 $168 $61 $109 forward $58 $-1 #
coedge $-1 $63 $60 $167 $169 reversed $37 $-1 #
coedge $-1 $60 $63 $170 $171 reversed $37 $-1 #
coedge $-1 $172 $173 $60 $107 forward $101 $-1 #
edge $-1 $174 -17.288078457871176 $175 17.288078457871176 $106 $176 forward 7 unknown #
coedge $-1 $62 $61 $177 $178 reversed $24 $-1 #
edge $-1 $179 -38.673443641964624 $112 -34.880270288742807 $103 $180 forward 7 unknown #
coedge $-1 $181 $170 $62 $111 forward $165 $-1 #
edge $-1 $113 34.880270288742807 $182 38.673443641964624 $110 $183 forward 7 unknown #
vertex $-1 $109 $184 #
vertex $-1 $111 $185 #
straight-curve $-1 -71.657127254096523 -21.614161422070758 0 0 0 -1 I I #
face $-1 $186 $187 $14 $-1 $188 forward single #
loop $-1 $-1 $123 $65 #
plane-surface $-1 0 0 17.288078457871176 0 0 1 1 0 0 forward_v I I I I #
coedge $-1 $71 $189 $68 $121 forward $66 $-1 #
coedge $-1 $190 $68 $191 $192 reversed $41 $-1 #
coedge $-1 $68 $190 $69 $122 reversed $41 $-1 #
edge $-1 $193 -22.532650647859835 $126 -7.9375460001587363 $118 $194 forward 7 unknown #
edge $-1 $126 -150.90060121463668 $195 -131.81564075973267 $69 $196 forward 7 unknown #
coedge $-1 $197 $198 $70 $124 forward $116 $-1 #
edge $-1 $127 -48.878632961248279 $195 -34.046833139926314 $123 $199 forward 7 unknown #
coedge $-1 $200 $71 $198 $201 reversed $66 $-1 #
vertex $-1 $121 $202 #
vertex $-1 $124 $203 #
straight-curve $-1 75.45030060731834 23.172644324168019 108.75707096891084 0 0 1 I I #
face $-1 $204 $205 $15 $-1 $206 reversed single #
loop $-1 $207 $79 $73 #
plane-surface $-1 -41.821491253142369 30.470196648018565 100.24235007736097 0.62932039886446345 0 0.77714595512881146 0.77714595512881146 0 -0.62932039886446345 forward_v I I I I #
coedge $-1 $208 $209 $210 $211 reversed $74 $-1 #
coedge $-1 $133 $133 $-1 $212 forward $76 $-1 #
edge $-1 $213 0 $213 6.2831853071796004 $77 $214 forward 7 unknown #
vertex $-1 $80 $215 #
ellipse-curve $-1 68.034400696657343 30.470196648018565 11.282800994974838 -0.62932039886446345 0 -0.77714595512881146 1.5542919102576229 0 -1.2586407977289269 1 I I #
face $-1 $-1 $96 $12 $-1 $216 reversed single #
loop $-1 $-1 $153 $81 #
plane-surface $-1 0 37.767748971869118 0 0 -1 0 0 0 -1 forward_v I I I I #
coedge $-1 $217 $151 $154 $218 forward $82 $-1 #
coedge $-1 $157 $84 $85 $145 reversed $50 $-1 #
coedge $-1 $151 $217 $84 $143 reversed $82 $-1 #
edge $-1 $158 -17.288078457871176 $219 17.288078457871176 $142 $220 forward 7 unknown #
coedge $-1 $86 $85 $217 $221 forward $33 $-1 #
edge $-1 $149 -75.45030060731834 $219 75.45030060731834 $141 $222 forward 7 unknown #
coedge $-1 $154 $153 $86 $147 reversed $138 $-1 #
edge $-1 $223 -75.45030060731834 $148 75.45030060731834 $146 $224 forward 7 unknown #
vertex $-1 $88 $225 #
vertex $-1 $160 $226 #
straight-curve $-1 75.45030060731834 0 -17.288078457871176 0 -1 0 I I #
coedge $-1 $140 $142 $89 $152 reversed $82 $-1 #
edge $-1 $155 -37.767748971869118 $158 37.767748971869118 $151 $227 forward 7 unknown #
coedge $-1 $146 $90 $95 $161 forward $138 $-1 #
coedge $-1 $90 $146 $140 $218 reversed $138 $-1 #
vertex $-1 $91 $228 #
straight-curve $-1 0 37.767748971869118 17.288078457871176 -1 0 0 I I #
coedge $-1 $92 $141 $94 $160 reversed $50 $-1 #
vertex $-1 $152 $229 #
straight-curve $-1 0 -37.767748971869118 17.288078457871176 1 0 0 I I #
edge $-1 $97 -17.288078457871176 $149 17.288078457871176 $94 $230 forward 7 unknown #
edge $-1 $98 -17.288078457871176 $148 17.288078457871176 $95 $231 forward 7 unknown #
point $-1 75.45030060731834 -37.767748971869118 17.288078457871176 #
point $-1 75.45030060731834 37.767748971869118 17.288078457871176 #
face $-1 $232 $233 $13 $-1 $234 reversed single #
loop $-1 $-1 $110 $100 #
plane-surface $-1 0 0 -17.288078457871176 0 0 1 1 0 0 forward_v I I I I #
coedge $-1 $235 $103 $104 $169 forward $58 $-1 #
coedge $-1 $103 $236 $237 $238 forward $58 $-1 #
edge $-1 $112 6.7686838235857891 $174 22.922271373384149 $167 $239 forward 7 unknown #
coedge $-1 $110 $240 $105 $171 forward $165 $-1 #
edge $-1 $175 -22.922271373384149 $113 -6.7686838235857891 $170 $241 forward 7 unknown #
coedge $-1 $242 $106 $240 $243 reversed $101 $-1 #
coedge $-1 $106 $242 $235 $244 reversed $101 $-1 #
vertex $-1 $244 $245 #
vertex $-1 $107 $246 #
straight-curve $-1 -71.657127254096523 -37.767748971869118 0 0 0 -1 I I #
coedge $-1 $237 $247 $108 $178 forward $233 $-1 #
edge $-1 $182 -17.288078457871176 $179 17.288078457871176 $177 $248 forward 7 unknown #
vertex $-1 $178 $249 #
straight-curve $-1 -36.776856965353716 -21.614161422070758 17.288078457871176 1 0 0 I I #
coedge $-1 $250 $110 $247 $251 forward $165 $-1 #
vertex $-1 $251 $252 #
straight-curve $-1 -36.776856965353716 -21.614161422070758 -17.288078457871176 -1 0 0 I I #
point $-1 -71.657127254096523 -21.614161422070758 17.288078457871176 #
point $-1 -71.657127254096523 -21.614161422070758 -17.288078457871176 #
face $-1 $253 $254 $14 $-1 $255 forward single #
loop $-1 $-1 $256 $115 #
plane-surface $-1 -73.553713930707431 -21.614161422070758 0 0 -1 0 0 0 -1 forward_v I I I I #
coedge $-1 $118 $257 $258 $259 reversed $66 $-1 #
coedge $-1 $120 $119 $197 $260 reversed $41 $-1 #
coedge $-1 $258 $261 $119 $192 forward $262 $-1 #
edge $-1 $263 84.022661510417407 $193 103.10762196532141 $191 $264 forward 7 unknown #
vertex $-1 $259 $265 #
straight-curve $-1 75.45030060731834 15.235098324009282 5.2775235320784688 0 -1 0 I I #
vertex $-1 $260 $266 #
straight-curve $-1 -41.821491253142369 23.172644324168019 100.24235007736097 -0.77714595512881146 0 0.62932039886446345 I I #
coedge $-1 $267 $123 $190 $260 forward $116 $-1 #
coedge $-1 $123 $268 $125 $201 forward $116 $-1 #
straight-curve $-1 26.571667646070061 23.172644324168019 17.28807845787118 -1 0 0 I I #
coedge $-1 $257 $125 $269 $270 forward $66 $-1 #
edge $-1 $271 -37.767748971869118 $127 23.172644324168019 $125 $272 forward 7 unknown #
point $-1 75.45030060731834 23.172644324168019 5.2775235320784759 #
point $-1 75.45030060731834 23.172644324168019 17.288078457871176 #
face $-1 $273 $274 $15 $-1 $275 forward single #
loop $-1 $-1 $276 $129 #
plane-surface $-1 75.45030060731834 0 0 -1 0 0 0 0 1 forward_v I I I I #
loop $-1 $-1 $277 $73 #
coedge $-1 $209 $132 $278 $279 forward $74 $-1 #
coedge $-1 $132 $208 $280 $281 reversed $74 $-1 #
coedge $-1 $282 $276 $132 $211 forward $205 $-1 #
edge $-1 $283 -103.47954743683236 $284 -91.468992511039659 $210 $285 forward 7 unknown #
edge $-1 $286 1 $286 0 $133 $-1 forward 7 unknown #
vertex $-1 $134 $287 #
ellipse-curve $-1 63.723516592298608 30.470196648018565 5.9593025818032563 0.62932039886446345 0 0.77714595512881146 1.5542919102576229 0 -1.2586407977289269 1 I I #
point $-1 69.588692606914947 30.470196648018565 10.024160197245887 #
plane-surface $-1 75.45030060731834 0 0 -1 0 0 0 0 1 forward_v I I I I #
coedge $-1 $142 $140 $144 $221 reversed $82 $-1 #
edge $-1 $155 -17.288078457871176 $223 17.288078457871176 $154 $288 forward 7 unknown #
vertex $-1 $221 $289 #
straight-curve $-1 -75.45030060731834 -37.767748971869118 0 0 0 -1 I I #
edge $-1 $219 -37.767748971869118 $223 37.767748971869118 $217 $290 forward 7 unknown #
straight-curve $-1 0 -37.767748971869118 -17.288078457871176 -1 0 0 I I #
vertex $-1 $147 $291 #
straight-curve $-1 0 37.767748971869118 -17.288078457871176 1 0 0 I I #
point $-1 75.45030060731834 37.767748971869118 -17.288078457871176 #
point $-1 75.45030060731834 -37.767748971869118 -17.288078457871176 #
straight-curve $-1 -75.45030060731834 0 17.288078457871176 0 -1 0 I I #
point $-1 -75.45030060731834 37.767748971869118 17.288078457871176 #
point $-1 -75.45030060731834 -37.767748971869118 17.288078457871176 #
straight-curve $-1 75.45030060731834 -37.767748971869118 0 0 0 -1 I I #
straight-curve $-1 75.45030060731834 37.767748971869118 0 0 0 -1 I I #
face $-1 $292 $293 $13 $-1 $294 reversed single #
loop $-1 $-1 $177 $164 #
plane-surface $-1 -75.45030060731834 0 0 1 0 0 0 0 -1 forward_v I I I I #
coedge $-1 $295 $167 $173 $244 forward $58 $-1 #
coedge $-1 $168 $295 $296 $297 forward $58 $-1 #
coedge $-1 $298 $177 $168 $238 reversed $233 $-1 #
edge $-1 $299 -37.767748971869118 $179 21.614161422070758 $237 $300 forward 7 unknown #
straight-curve $-1 -71.657127254096523 -14.845477598484969 17.288078457871176 0 -1 0 I I #
coedge $-1 $170 $301 $172 $243 forward $165 $-1 #
straight-curve $-1 -71.657127254096523 -14.845477598484969 -17.288078457871176 0 1 0 I I #
coedge $-1 $173 $172 $302 $303 reversed $101 $-1 #
edge $-1 $304 -75.45030060731834 $175 71.657127254096523 $172 $305 forward 7 unknown #
edge $-1 $174 -71.657127254096523 $306 75.45030060731834 $173 $307 forward 7 unknown #
point $-1 -71.657127254096523 -37.767748971869118 17.288078457871176 #
point $-1 -71.657127254096523 -37.767748971869118 -17.288078457871176 #
coedge $-1 $177 $298 $181 $251 reversed $233 $-1 #
straight-curve $-1 -75.45030060731834 -21.614161422070758 0 0 0 1 I I #
point $-1 -75.45030060731834 -21.614161422070758 17.288078457871176 #
coedge $-1 $301 $181 $308 $309 forward $165 $-1 #
edge $-1 $182 -21.614161422070758 $310 37.767748971869118 $247 $311 forward 7 unknown #
point $-1 -75.45030060731834 -21.614161422070758 -17.288078457871176 #
face $-1 $312 $313 $14 $-1 $314 reversed single #
loop $-1 $-1 $315 $186 #
plane-surface $-1 -71.657127254096523 -29.690955196969938 0 -1 0 0 0 0 1 forward_v I I I I #
coedge $-1 $316 $317 $318 $319 reversed $187 $-1 #
coedge $-1 $189 $200 $320 $321 reversed $66 $-1 #
coedge $-1 $322 $191 $189 $259 forward $262 $-1 #
edge $-1 $193 -5.2775235320784599 $323 17.288078457871176 $189 $324 forward 7 unknown #
edge $-1 $195 7.9375460001587363 $263 22.532650647859828 $197 $325 forward 7 unknown #
coedge $-1 $191 $326 $267 $327 reversed $262 $-1 #
loop $-1 $-1 $191 $328 #
vertex $-1 $327 $329 #
straight-curve $-1 -4.6793707459817888 37.767748971869118 70.165253313260848 0.77714595512881146 0 -0.62932039886446345 I I #
point $-1 75.45030060731834 37.767748971869118 5.2775235320784599 #
point $-1 60.618500785996375 23.172644324168019 17.28807845787118 #
coedge $-1 $330 $197 $261 $327 forward $116 $-1 #
coedge $-1 $198 $331 $332 $333 forward $116 $-1 #
coedge $-1 $332 $334 $200 $270 reversed $313 $-1 #
edge $-1 $271 -17.288078457871176 $335 17.288078457871176 $200 $336 forward 7 unknown #
vertex $-1 $201 $337 #
straight-curve $-1 75.45030060731834 0 17.288078457871176 0 1 0 I I #
face $-1 $338 $339 $15 $-1 $340 forward single #
loop $-1 $-1 $280 $204 #
plane-surface $-1 0 0 17.288078457871176 0 0 1 1 0 0 forward_v I I I I #
coedge $-1 $210 $341 $277 $342 forward $205 $-1 #
coedge $-1 $343 $278 $276 $342 reversed $207 $-1 #
coedge $-1 $277 $344 $208 $279 reversed $207 $-1 #
edge $-1 $283 -150.90060121463668 $345 -131.81564075973267 $208 $346 forward 7 unknown #
coedge $-1 $347 $348 $209 $281 forward $274 $-1 #
edge $-1 $284 -48.878632961248279 $345 -34.046833139926314 $280 $349 forward 7 unknown #
coedge $-1 $350 $210 $348 $351 reversed $205 $-1 #
vertex $-1 $342 $352 #
vertex $-1 $281 $353 #
straight-curve $-1 75.45030060731834 23.172644324168019 108.75707096891084 0 0 1 I I #
vertex $-1 $212 $354 #
point $-1 65.277808502556226 30.470196648018565 4.7006617840743292 #
straight-curve $-1 -75.45030060731834 37.767748971869118 0 0 0 -1 I I #
point $-1 -75.45030060731834 -37.767748971869118 -17.288078457871176 #
straight-curve $-1 -75.45030060731834 0 -17.288078457871176 0 1 0 I I #
point $-1 -75.45030060731834 37.767748971869118 -17.288078457871176 #
face $-1 $-1 $355 $13 $-1 $356 reversed single #
loop $-1 $-1 $357 $232 #
plane-surface $-1 0 37.767748971869118 0 0 -1 0 0 0 -1 forward_v I I I I #
coedge $-1 $236 $235 $358 $359 forward $58 $-1 #
coedge $-1 $357 $360 $236 $297 reversed $293 $-1 #
edge $-1 $361 -75.45030060731834 $299 75.45030060731834 $296 $362 forward 7 unknown #
coedge $-1 $247 $237 $360 $363 forward $233 $-1 #
vertex $-1 $297 $364 #
straight-curve $-1 -75.45030060731834 0 17.288078457871176 0 -1 0 I I #
coedge $-1 $240 $250 $365 $366 forward $165 $-1 #
coedge $-1 $365 $358 $242 $303 forward $355 $-1 #
edge $-1 $306 -17.288078457871176 $304 17.288078457871176 $302 $367 forward 7 unknown #
vertex $-1 $303 $368 #
straight-curve $-1 0 -37.767748971869118 -17.288078457871176 -1 0 0 I I #
vertex $-1 $359 $369 #
straight-curve $-1 0 -37.767748971869118 17.288078457871176 1 0 0 I I #
coedge $-1 $360 $357 $250 $309 reversed $293 $-1 #
edge $-1 $310 -75.45030060731834 $370 75.45030060731834 $308 $371 forward 7 unknown #
vertex $-1 $309 $372 #
straight-curve $-1 -75.45030060731834 0 -17.288078457871176 0 1 0 I I #
face $-1 $373 $374 $14 $-1 $375 reversed single #
loop $-1 $-1 $376 $253 #
plane-surface $-1 0 -37.767748971869118 0 0 1 0 0 0 1 forward_v I I I I #
coedge $-1 $377 $378 $376 $379 reversed $254 $-1 #
coedge $-1 $380 $256 $381 $382 reversed $187 $-1 #
coedge $-1 $256 $380 $383 $384 reversed $187 $-1 #
coedge $-1 $378 $377 $256 $319 forward $254 $-1 #
edge $-1 $385 -17.288078457871176 $386 17.288078457871176 $318 $387 forward 7 unknown #
coedge $-1 $388 $389 $257 $321 forward $374 $-1 #
edge $-1 $323 -37.767748971869118 $335 37.767748971869118 $257 $390 forward 7 unknown #
coedge $-1 $326 $258 $389 $391 reversed $262 $-1 #
vertex $-1 $321 $392 #
straight-curve $-1 75.45030060731834 37.767748971869118 0 0 0 -1 I I #
straight-curve $-1 60.618500785996368 15.235098324009282 17.28807845787118 0 1 0 I I #
coedge $-1 $261 $322 $393 $394 reversed $262 $-1 #
edge $-1 $263 -60.618500785996375 $395 75.45030060731834 $261 $396 forward 7 unknown #
face $-1 $-1 $262 $14 $-1 $397 reversed single #
point $-1 60.618500785996375 37.767748971869111 17.28807845787118 #
coedge $-1 $381 $267 $398 $399 forward $116 $-1 #
coedge $-1 $268 $381 $377 $400 forward $116 $-1 #
coedge $-1 $376 $269 $268 $333 reversed $313 $-1 #
edge $-1 $401 -71.657127254096523 $271 75.45030060731834 $332 $402 forward 7 unknown #
coedge $-1 $269 $376 $388 $403 reversed $313 $-1 #
vertex $-1 $270 $404 #
straight-curve $-1 75.45030060731834 -37.767748971869118 0 0 0 -1 I I #
point $-1 75.45030060731834 -37.767748971869118 17.288078457871176 #
face $-1 $405 $406 $15 $-1 $407 forward single #
loop $-1 $-1 $408 $273 #
plane-surface $-1 -73.553713930707431 -21.614161422070758 0 0 -1 0 0 0 -1 forward_v I I I I #
coedge $-1 $276 $409 $410 $411 reversed $205 $-1 #
edge $-1 $412 -22.532650647859835 $283 -7.9375460001587363 $276 $413 forward 7 unknown #
coedge $-1 $344 $277 $414 $415 reversed $207 $-1 #
coedge $-1 $278 $343 $347 $416 reversed $207 $-1 #
vertex $-1 $416 $417 #
straight-curve $-1 -41.821491253142369 23.172644324168019 100.24235007736097 -0.77714595512881146 0 0.62932039886446345 I I #
coedge $-1 $418 $280 $344 $416 forward $274 $-1 #
coedge $-1 $280 $419 $282 $351 forward $274 $-1 #
straight-curve $-1 26.571667646070061 23.172644324168019 17.28807845787118 -1 0 0 I I #
coedge $-1 $409 $282 $420 $421 forward $205 $-1 #
edge $-1 $422 -37.767748971869118 $284 23.172644324168019 $282 $423 forward 7 unknown #
point $-1 75.45030060731834 23.172644324168019 5.2775235320784759 #
point $-1 75.45030060731834 23.172644324168019 17.288078457871176 #
point $-1 62.464875794569679 30.470196648018565 4.4050106715456332 #
loop $-1 $-1 $302 $292 #
plane-surface $-1 75.45030060731834 0 0 -1 0 0 0 0 1 forward_v I I I I #
coedge $-1 $308 $296 $424 $425 forward $293 $-1 #
coedge $-1 $302 $424 $295 $359 reversed $355 $-1 #
edge $-1 $306 -37.767748971869118 $361 37.767748971869118 $358 $426 forward 7 unknown #
coedge $-1 $296 $308 $298 $363 reversed $293 $-1 #
vertex $-1 $359 $427 #
straight-curve $-1 0 37.767748971869118 17.288078457871176 -1 0 0 I I #
edge $-1 $299 -17.288078457871176 $310 17.288078457871176 $360 $428 forward 7 unknown #
point $-1 -75.45030060731834 37.767748971869118 17.288078457871176 #
coedge $-1 $424 $302 $301 $366 reversed $355 $-1 #
edge $-1 $370 -37.767748971869118 $304 37.767748971869118 $365 $429 forward 7 unknown #
straight-curve $-1 75.45030060731834 -37.767748971869118 0 0 0 -1 I I #
point $-1 75.45030060731834 -37.767748971869118 -17.288078457871176 #
point $-1 75.45030060731834 -37.767748971869118 17.288078457871176 #
vertex $-1 $366 $430 #
straight-curve $-1 0 37.767748971869118 -17.288078457871176 1 0 0 I I #
point $-1 -75.45030060731834 37.767748971869118 -17.288078457871176 #
face $-1 $328 $431 $14 $-1 $432 reversed single #
loop $-1 $-1 $383 $312 #
plane-surface $-1 0 0 -17.288078457871176 0 0 1 1 0 0 forward_v I I I I #
coedge $-1 $334 $332 $315 $379 forward $313 $-1 #
coedge $-1 $318 $315 $331 $400 reversed $254 $-1 #
coedge $-1 $315 $318 $433 $434 reversed $254 $-1 #
edge $-1 $401 -17.288078457871176 $435 17.288078457871176 $376 $436 forward 7 unknown #
coedge $-1 $317 $316 $437 $438 reversed $187 $-1 #
coedge $-1 $331 $330 $316 $382 forward $116 $-1 #
edge $-1 $439 -38.673443641964624 $385 -34.880270288742807 $381 $440 forward 7 unknown #
coedge $-1 $441 $433 $317 $384 forward $374 $-1 #
edge $-1 $386 34.880270288742807 $442 38.673443641964624 $383 $443 forward 7 unknown #
vertex $-1 $382 $444 #
vertex $-1 $384 $445 #
straight-curve $-1 -71.657127254096523 -21.614161422070758 0 0 0 -1 I I #
coedge $-1 $433 $320 $334 $403 forward $374 $-1 #
coedge $-1 $320 $441 $322 $391 forward $374 $-1 #
straight-curve $-1 75.45030060731834 0 -17.288078457871176 0 -1 0 I I #
edge $-1 $446 -75.45030060731834 $323 75.45030060731834 $322 $447 forward 7 unknown #
point $-1 75.45030060731834 37.767748971869118 -17.288078457871176 #
coedge $-1 $448 $398 $326 $394 forward $431 $-1 #
edge $-1 $395 -17.288078457871176 $446 17.288078457871176 $326 $449 forward 7 unknown #
vertex $-1 $327 $450 #
straight-curve $-1 0 37.767748971869118 17.288078457871176 -1 0 0 I I #
plane-surface $-1 0 37.767748971869118 0 0 -1 0 0 0 -1 forward_v I I I I #
coedge $-1 $393 $437 $330 $399 reversed $431 $-1 #
edge $-1 $395 -37.767748971869118 $439 21.614161422070758 $398 $451 forward 7 unknown #
edge $-1 $385 6.7686838235857891 $401 22.922271373384149 $331 $452 forward 7 unknown #
vertex $-1 $333 $453 #
straight-curve $-1 0 -37.767748971869118 17.288078457871176 1 0 0 I I #
edge $-1 $335 -75.45030060731834 $435 71.657127254096523 $334 $454 forward 7 unknown #
point $-1 75.45030060731834 -37.767748971869118 -17.288078457871176 #
face $-1 $455 $456 $15 $-1 $457 reversed single #
loop $-1 $-1 $458 $338 #
plane-surface $-1 -71.657127254096523 -29.690955196969938 0 -1 0 0 0 0 1 forward_v I I I I #
coedge $-1 $459 $460 $461 $462 reversed $339 $-1 #
coedge $-1 $341 $350 $463 $464 reversed $205 $-1 #
coedge $-1 $465 $414 $341 $411 forward $466 $-1 #
edge $-1 $412 -5.2775235320784599 $467 17.288078457871176 $341 $468 forward 7 unknown #
vertex $-1 $411 $469 #
straight-curve $-1 75.45030060731834 15.235098324009282 5.2775235320784688 0 -1 0 I I #
coedge $-1 $410 $470 $343 $415 forward $466 $-1 #
edge $-1 $471 84.022661510417407 $412 103.10762196532141 $414 $472 forward 7 unknown #
edge $-1 $345 7.9375460001587363 $471 22.532650647859828 $347 $473 forward 7 unknown #
point $-1 60.618500785996375 23.172644324168019 17.28807845787118 #
coedge $-1 $474 $347 $470 $475 forward $274 $-1 #
coedge $-1 $348 $476 $477 $478 forward $274 $-1 #
coedge $-1 $477 $479 $350 $421 reversed $456 $-1 #
edge $-1 $422 -17.288078457871176 $480 17.288078457871176 $350 $481 forward 7 unknown #
vertex $-1 $351 $482 #
straight-curve $-1 75.45030060731834 0 17.288078457871176 0 1 0 I I #
coedge $-1 $358 $365 $357 $425 reversed $355 $-1 #
edge $-1 $361 -17.288078457871176 $370 17.288078457871176 $424 $483 forward 7 unknown #
straight-curve $-1 75.45030060731834 0 17.288078457871176 0 1 0 I I #
point $-1 75.45030060731834 37.767748971869118 17.288078457871176 #
straight-curve $-1 -75.45030060731834 37.767748971869118 0 0 0 -1 I I #
straight-curve $-1 75.45030060731834 0 -17.288078457871176 0 -1 0 I I #
point $-1 75.45030060731834 37.767748971869118 -17.288078457871176 #
loop $-1 $-1 $437 $373 #
plane-surface $-1 -75.45030060731834 0 0 1 0 0 0 0 -1 forward_v I I I I #
coedge $-1 $383 $388 $378 $434 forward $374 $-1 #
edge $-1 $435 -22.922271373384149 $386 -6.7686838235857891 $433 $484 forward 7 unknown #
vertex $-1 $379 $485 #
straight-curve $-1 -71.657127254096523 -37.767748971869118 0 0 0 -1 I I #
coedge $-1 $398 $448 $380 $438 forward $431 $-1 #
edge $-1 $442 -17.288078457871176 $439 17.288078457871176 $437 $486 forward 7 unknown #
vertex $-1 $438 $487 #
straight-curve $-1 -36.776856965353716 -21.614161422070758 17.288078457871176 1 0 0 I I #
coedge $-1 $389 $383 $448 $488 forward $374 $-1 #
vertex $-1 $488 $489 #
straight-curve $-1 -36.776856965353716 -21.614161422070758 -17.288078457871176 -1 0 0 I I #
point $-1 -71.657127254096523 -21.614161422070758 17.288078457871176 #
point $-1 -71.657127254096523 -21.614161422070758 -17.288078457871176 #
vertex $-1 $391 $490 #
straight-curve $-1 0 37.767748971869118 -17.288078457871176 1 0 0 I I #
coedge $-1 $437 $393 $441 $488 reversed $431 $-1 #
straight-curve $-1 -75.45030060731834 37.767748971869118 0 0 0 -1 I I #
point $-1 -75.45030060731834 37.767748971869118 17.288078457871176 #
straight-curve $-1 -75.45030060731834 0 17.288078457871176 0 -1 0 I I #
straight-curve $-1 -71.657127254096523 -14.845477598484969 17.288078457871176 0 -1 0 I I #
point $-1 -71.657127254096523 -37.767748971869118 17.288078457871176 #
straight-curve $-1 0 -37.767748971869118 -17.288078457871176 -1 0 0 I I #
face $-1 $491 $492 $15 $-1 $493 reversed single #
loop $-1 $-1 $494 $405 #
plane-surface $-1 0 -37.767748971869118 0 0 1 0 0 0 1 forward_v I I I I #
coedge $-1 $495 $496 $494 $497 reversed $406 $-1 #
coedge $-1 $498 $408 $499 $500 reversed $339 $-1 #
coedge $-1 $408 $498 $501 $502 reversed $339 $-1 #
coedge $-1 $496 $495 $408 $462 forward $406 $-1 #
edge $-1 $503 -17.288078457871176 $504 17.288078457871176 $461 $505 forward 7 unknown #
coedge $-1 $506 $507 $409 $464 forward $492 $-1 #
edge $-1 $467 -37.767748971869118 $480 37.767748971869118 $409 $508 forward 7 unknown #
coedge $-1 $509 $410 $507 $510 reversed $466 $-1 #
loop $-1 $-1 $414 $511 #
vertex $-1 $464 $512 #
straight-curve $-1 75.45030060731834 37.767748971869118 0 0 0 -1 I I #
point $-1 75.45030060731834 37.767748971869118 5.2775235320784599 #
coedge $-1 $414 $509 $418 $475 reversed $466 $-1 #
vertex $-1 $475 $513 #
straight-curve $-1 -4.6793707459817888 37.767748971869118 70.165253313260848 0.77714595512881146 0 -0.62932039886446345 I I #
straight-curve $-1 60.618500785996368 15.235098324009282 17.28807845787118 0 1 0 I I #
coedge $-1 $499 $418 $514 $515 forward $274 $-1 #
edge $-1 $471 -60.618500785996375 $516 75.45030060731834 $470 $517 forward 7 unknown #
coedge $-1 $419 $499 $495 $518 forward $274 $-1 #
coedge $-1 $494 $420 $419 $478 reversed $456 $-1 #
edge $-1 $519 -71.657127254096523 $422 75.45030060731834 $477 $520 forward 7 unknown #
coedge $-1 $420 $494 $506 $521 reversed $456 $-1 #
vertex $-1 $421 $522 #
straight-curve $-1 75.45030060731834 -37.767748971869118 0 0 0 -1 I I #
point $-1 75.45030060731834 -37.767748971869118 17.288078457871176 #
straight-curve $-1 75.45030060731834 37.767748971869118 0 0 0 -1 I I #
straight-curve $-1 -71.657127254096523 -14.845477598484969 -17.288078457871176 0 1 0 I I #
point $-1 -71.657127254096523 -37.767748971869118 -17.288078457871176 #
straight-curve $-1 -75.45030060731834 -21.614161422070758 0 0 0 1 I I #
point $-1 -75.45030060731834 -21.614161422070758 17.288078457871176 #
edge $-1 $442 -21.614161422070758 $446 37.767748971869118 $448 $523 forward 7 unknown #
point $-1 -75.45030060731834 -21.614161422070758 -17.288078457871176 #
point $-1 -75.45030060731834 37.767748971869118 -17.288078457871176 #
face $-1 $511 $524 $15 $-1 $525 reversed single #
loop $-1 $-1 $501 $455 #
plane-surface $-1 0 0 -17.288078457871176 0 0 1 1 0 0 forward_v I I I I #
coedge $-1 $479 $477 $458 $497 forward $456 $-1 #
coedge $-1 $461 $458 $476 $518 reversed $406 $-1 #
coedge $-1 $458 $461 $526 $527 reversed $406 $-1 #
edge $-1 $519 -17.288078457871176 $528 17.288078457871176 $494 $529 forward 7 unknown #
coedge $-1 $460 $459 $530 $531 reversed $339 $-1 #
coedge $-1 $476 $474 $459 $500 forward $274 $-1 #
edge $-1 $532 -38.673443641964624 $503 -34.880270288742807 $499 $533 forward 7 unknown #
coedge $-1 $534 $526 $460 $502 forward $492 $-1 #
edge $-1 $504 34.880270288742807 $535 38.673443641964624 $501 $536 forward 7 unknown #
vertex $-1 $500 $537 #
vertex $-1 $502 $538 #
straight-curve $-1 -71.657127254096523 -21.614161422070758 0 0 0 -1 I I #
coedge $-1 $526 $463 $479 $521 forward $492 $-1 #
coedge $-1 $463 $534 $465 $510 forward $492 $-1 #
straight-curve $-1 75.45030060731834 0 -17.288078457871176 0 -1 0 I I #
coedge $-1 $470 $465 $539 $540 reversed $466 $-1 #
edge $-1 $541 -75.45030060731834 $467 75.45030060731834 $465 $542 forward 7 unknown #
face $-1 $-1 $466 $15 $-1 $543 reversed single #
point $-1 75.45030060731834 37.767748971869118 -17.288078457871176 #
point $-1 60.618500785996375 37.767748971869111 17.28807845787118 #
coedge $-1 $539 $530 $474 $515 reversed $524 $-1 #
edge $-1 $516 -37.767748971869118 $532 21.614161422070758 $514 $544 forward 7 unknown #
vertex $-1 $475 $545 #
straight-curve $-1 0 37.767748971869118 17.288078457871176 -1 0 0 I I #
edge $-1 $503 6.7686838235857891 $519 22.922271373384149 $476 $546 forward 7 unknown #
vertex $-1 $478 $547 #
straight-curve $-1 0 -37.767748971869118 17.288078457871176 1 0 0 I I #
edge $-1 $480 -75.45030060731834 $528 71.657127254096523 $479 $548 forward 7 unknown #
point $-1 75.45030060731834 -37.767748971869118 -17.288078457871176 #
straight-curve $-1 -75.45030060731834 0 -17.288078457871176 0 1 0 I I #
loop $-1 $-1 $530 $491 #
plane-surface $-1 -75.45030060731834 0 0 1 0 0 0 0 -1 forward_v I I I I #
coedge $-1 $501 $506 $496 $527 forward $492 $-1 #
edge $-1 $528 -22.922271373384149 $504 -6.7686838235857891 $526 $549 forward 7 unknown #
vertex $-1 $497 $550 #
straight-curve $-1 -71.657127254096523 -37.767748971869118 0 0 0 -1 I I #
coedge $-1 $514 $551 $498 $531 forward $524 $-1 #
edge $-1 $535 -17.288078457871176 $532 17.288078457871176 $530 $552 forward 7 unknown #
vertex $-1 $531 $553 #
straight-curve $-1 -36.776856965353716 -21.614161422070758 17.288078457871176 1 0 0 I I #
coedge $-1 $507 $501 $551 $554 forward $492 $-1 #
vertex $-1 $554 $555 #
straight-curve $-1 -36.776856965353716 -21.614161422070758 -17.288078457871176 -1 0 0 I I #
point $-1 -71.657127254096523 -21.614161422070758 17.288078457871176 #
point $-1 -71.657127254096523 -21.614161422070758 -17.288078457871176 #
coedge $-1 $551 $514 $509 $540 forward $524 $-1 #
edge $-1 $516 -17.288078457871176 $541 17.288078457871176 $509 $556 forward 7 unknown #
vertex $-1 $510 $557 #
straight-curve $-1 0 37.767748971869118 -17.288078457871176 1 0 0 I I #
plane-surface $-1 0 37.767748971869118 0 0 -1 0 0 0 -1 forward_v I I I I #
straight-curve $-1 -75.45030060731834 0 17.288078457871176 0 -1 0 I I #
point $-1 -75.45030060731834 37.767748971869118 17.288078457871176 #
straight-curve $-1 -71.657127254096523 -14.845477598484969 17.288078457871176 0 -1 0 I I #
point $-1 -71.657127254096523 -37.767748971869118 17.288078457871176 #
straight-curve $-1 0 -37.767748971869118 -17.288078457871176 -1 0 0 I I #
straight-curve $-1 -71.657127254096523 -14.845477598484969 -17.288078457871176 0 1 0 I I #
point $-1 -71.657127254096523 -37.767748971869118 -17.288078457871176 #
coedge $-1 $530 $539 $534 $554 reversed $524 $-1 #
straight-curve $-1 -75.45030060731834 -21.614161422070758 0 0 0 1 I I #
point $-1 -75.45030060731834 -21.614161422070758 17.288078457871176 #
edge $-1 $535 -21.614161422070758 $541 37.767748971869118 $551 $558 forward 7 unknown #
point $-1 -75.45030060731834 -21.614161422070758 -17.288078457871176 #
straight-curve $-1 -75.45030060731834 37.767748971869118 0 0 0 -1 I I #
point $-1 -75.45030060731834 37.767748971869118 -17.288078457871176 #
straight-curve $-1 -75.45030060731834 0 -17.288078457871176 0 1 0 I I #
End-of-ACIS-data 