500 0 7 0           
7 Unknown 11 ACIS 5.0 NT 24 Fri Mar 26 15:14:30 1999 
-1 9.9999999999999995e-007 1e-010 
body $-1 $7 $-1 $8 #
body $-1 $9 $-1 $10 #
body $-1 $11 $-1 $12 #
body $-1 $13 $-1 $14 #
body $-1 $15 $-1 $16 #
body $-1 $17 $-1 $18 #
body $-1 $19 $-1 $20 #
lump $-1 $-1 $21 $0 #
transform $-1 1 0 0 0 1 0 0 0 1 76.523331400494399 46.644972158829155 13.573121754814425 1 rotate no_reflect no_shear #
lump $-1 $-1 $22 $1 #
transform $-1 1 0 0 0 1 0 0 0 1 76.523331400494399 46.644972158829155 13.573121754814425 1 rotate no_reflect no_shear #
lump $-1 $-1 $23 $2 #
transform $-1 1 0 0 0 1 0 0 0 1 76.523331400494399 46.644972158829155 13.573121754814425 1 rotate no_reflect no_shear #
lump $-1 $-1 $24 $3 #
transform $-1 1 0 0 0 1 0 0 0 1 76.523331400494399 46.644972158829155 13.573121754814425 1 rotate no_reflect no_shear #
lump $-1 $-1 $25 $4 #
transform $-1 1 0 0 0 1 0 0 0 1 76.523331400494399 46.644972158829155 13.573121754814425 1 rotate no_reflect no_shear #
lump $-1 $-1 $26 $5 #
transform $-1 1 0 0 0 1 0 0 0 1 76.523331400494399 46.644972158829155 13.573121754814425 1 rotate no_reflect no_shear #
lump $-1 $-1 $27 $6 #
transform $-1 1 0 0 0 1 0 0 0 1 76.523331400494399 46.644972158829155 13.573121754814425 1 rotate no_reflect no_shear #
shell $-1 $-1 $-1 $28 $-1 $7 #
shell $-1 $-1 $-1 $29 $-1 $9 #
shell $-1 $-1 $-1 $30 $-1 $11 #
shell $-1 $-1 $-1 $31 $-1 $13 #
shell $-1 $-1 $-1 $32 $-1 $15 #
shell $-1 $-1 $-1 $33 $-1 $17 #
shell $-1 $-1 $-1 $34 $-1 $19 #
face $-1 $35 $36 $21 $-1 $37 forward single #
face $-1 $38 $39 $22 $-1 $40 forward single #
face $-1 $41 $42 $23 $-1 $43 forward single #
face $-1 $44 $45 $24 $-1 $46 reversed single #
face $-1 $47 $48 $25 $-1 $49 forward single #
face $-1 $50 $51 $26 $-1 $52 reversed single #
face $-1 $53 $54 $27 $-1 $55 forward single #
face $-1 $56 $57 $21 $-1 $58 reversed single #
loop $-1 $-1 $59 $28 #
plane-surface $-1 0 0 13.573121754814425 0 0 1 1 0 0 forward_v I I I I #
face $-1 $60 $61 $22 $-1 $62 reversed single #
loop $-1 $-1 $63 $29 #
plane-surface $-1 0 -38.12277324269067 -8.659094124046776 0 0 1 1 0 0 forward_v I I I I #
face $-1 $64 $65 $23 $-1 $66 reversed single #
loop $-1 $-1 $67 $30 #
plane-surface $-1 0 38.122773242690663 -8.659094124046776 0 0 1 1 0 0 forward_v I I I I #
face $-1 $68 $69 $24 $-1 $70 reversed single #
loop $-1 $-1 $71 $31 #
plane-surface $-1 65.195704505215573 -21.344477456834966 222.23745392755959 0 -1 0 -0.66913061440640931 0 -0.74314481823134659 forward_v I I I I #
face $-1 $72 $73 $25 $-1 $74 forward single #
loop $-1 $75 $76 $32 #
cone-surface $-1 71.859361822644203 -25.472525891693579 9.2663657949293281 -0.66913061440640931 0 -0.74314481823134659 1.1147172273470198 0 -1.003695921609614 1 I I 0 1 1.5 forward I I I I #
face $-1 $77 $78 $26 $-1 $79 reversed single #
loop $-1 $-1 $80 $33 #
plane-surface $-1 -178.93153891337059 -29.600574326552191 119.82924641468341 0 1 0 -0.66913061440640931 0 0.74314481823134659 forward_v I I I I #
face $-1 $81 $82 $27 $-1 $83 forward single #
loop $-1 $84 $85 $34 #
cone-surface $-1 -71.859361822644203 -25.472525891693579 9.2663657949293281 0.66913061440640931 0 -0.74314481823134659 1.1147172273470198 0 1.003695921609614 1 I I 0 1 1.5 forward I I I I #
face $-1 $86 $87 $21 $-1 $88 reversed single #
loop $-1 $-1 $89 $35 #
plane-surface $-1 0 0 -13.573121754814425 0 0 1 1 0 0 forward_v I I I I #
coedge $-1 $90 $91 $92 $93 forward $36 $-1 #
face $-1 $94 $95 $22 $-1 $96 reversed single #
loop $-1 $-1 $97 $38 #
plane-surface $-1 0 -29.600574326552184 -11.1161079394306 0 -1 0 0 0 -1 forward_v I I I I #
coedge $-1 $98 $99 $100 $101 reversed $39 $-1 #
face $-1 $102 $103 $23 $-1 $104 reversed single #
loop $-1 $-1 $105 $41 #
plane-surface $-1 0 29.600574326552177 -11.1161079394306 0 1 0 0 0 1 forward_v I I I I #
coedge $-1 $106 $107 $108 $109 reversed $42 $-1 #
face $-1 $110 $111 $24 $-1 $112 reversed single #
loop $-1 $-1 $113 $44 #
plane-surface $-1 -37.212503007660615 -25.472525891693579 108.50161951940457 0.66913061440640931 0 0.74314481823134659 0.74314481823134659 0 -0.66913061440640931 forward_v I I I I #
coedge $-1 $114 $115 $116 $117 reversed $45 $-1 #
face $-1 $-1 $118 $25 $-1 $119 forward single #
loop $-1 $120 $121 $47 #
cone-surface $-1 70.847073820404333 -25.472525891693579 8.1421060955137374 -0.66913061440640931 0 -0.74314481823134659 0.55735861367350992 0 -0.50184796080480698 1 I I -0.70710678118654757 0.70710678118654757 0.75 forward I I I I #
loop $-1 $-1 $122 $32 #
coedge $-1 $76 $76 $123 $124 reversed $48 $-1 #
face $-1 $125 $126 $26 $-1 $127 reversed single #
loop $-1 $-1 $128 $50 #
plane-surface $-1 -76.523331400494399 -25.472525891693579 6.0934120065283963 -0.66913061440640931 0 0.74314481823134659 0.74314481823134659 0 0.66913061440640931 forward_v I I I I #
coedge $-1 $129 $130 $131 $132 reversed $51 $-1 #
face $-1 $-1 $133 $27 $-1 $134 forward single #
loop $-1 $135 $136 $53 #
cone-surface $-1 -70.847073820404333 -25.472525891693579 8.1421060955137374 0.66913061440640931 0 -0.74314481823134659 0.55735861367350992 0 0.50184796080480698 1 I I -0.70710678118654757 0.70710678118654757 0.75 forward I I I I #
loop $-1 $-1 $137 $34 #
coedge $-1 $85 $85 $138 $139 reversed $54 $-1 #
face $-1 $140 $141 $21 $-1 $142 reversed single #
loop $-1 $-1 $143 $56 #
plane-surface $-1 0 -46.644972158829155 0 0 1 0 0 0 1 forward_v I I I I #
coedge $-1 $144 $145 $146 $147 forward $57 $-1 #
coedge $-1 $148 $59 $149 $150 forward $36 $-1 #
coedge $-1 $59 $148 $151 $152 forward $36 $-1 #
coedge $-1 $153 $154 $59 $93 reversed $155 $-1 #
edge $-1 $156 -46.644972158829155 $157 46.644972158829155 $92 $158 forward 7 unknown #
face $-1 $159 $160 $22 $-1 $161 reversed single #
loop $-1 $-1 $162 $60 #
plane-surface $-1 0 0 -13.573121754814425 0 0 1 1 0 0 forward_v I I I I #
coedge $-1 $163 $164 $165 $166 reversed $61 $-1 #
coedge $-1 $167 $63 $164 $168 forward $39 $-1 #
coedge $-1 $63 $167 $169 $170 reversed $39 $-1 #
coedge $-1 $171 $165 $63 $101 forward $160 $-1 #
edge $-1 $172 10.539187705206849 $173 27.58358553748382 $100 $174 forward 7 unknown #
face $-1 $175 $176 $23 $-1 $177 reversed single #
loop $-1 $-1 $108 $64 #
plane-surface $-1 76.523331400494399 0 0 -1 0 0 0 0 1 forward_v I I I I #
coedge $-1 $178 $179 $180 $181 reversed $65 $-1 #
coedge $-1 $182 $67 $183 $184 reversed $42 $-1 #
coedge $-1 $67 $182 $179 $185 forward $42 $-1 #
coedge $-1 $186 $187 $67 $109 forward $103 $-1 #
edge $-1 $188 -27.583585537483817 $189 -10.539187705206846 $108 $190 forward 7 unknown #
face $-1 $191 $192 $24 $-1 $193 forward single #
loop $-1 $-1 $194 $68 #
plane-surface $-1 65.195704505215573 -29.600574326552191 222.23745392755959 0 1 0 0.66913061440640931 0 0.74314481823134659 forward_v I I I I #
coedge $-1 $195 $196 $197 $198 reversed $69 $-1 #
coedge $-1 $115 $71 $199 $200 reversed $45 $-1 #
coedge $-1 $71 $114 $195 $201 reversed $45 $-1 #
coedge $-1 $197 $202 $71 $117 forward $192 $-1 #
edge $-1 $203 -43.925479147886612 $204 -35.618420075056342 $116 $205 forward 7 unknown #
loop $-1 $-1 $123 $72 #
plane-surface $-1 -37.212503007660615 -25.472525891693579 108.50161951940457 0.66913061440640931 0 0.74314481823134659 0.74314481823134659 0 -0.66913061440640931 forward_v I I I I #
loop $-1 $-1 $206 $47 #
coedge $-1 $121 $121 $122 $207 reversed $73 $-1 #
coedge $-1 $122 $122 $121 $207 forward $75 $-1 #
coedge $-1 $123 $123 $76 $124 forward $118 $-1 #
edge $-1 $208 0 $208 6.2831853071796004 $123 $209 forward 7 unknown #
face $-1 $210 $211 $26 $-1 $212 reversed single #
loop $-1 $-1 $213 $77 #
plane-surface $-1 -178.93153891337059 -21.344477456834966 119.82924641468341 0 -1 0 0.66913061440640931 0 -0.74314481823134659 forward_v I I I I #
coedge $-1 $214 $215 $216 $217 reversed $78 $-1 #
coedge $-1 $130 $80 $218 $219 reversed $51 $-1 #
coedge $-1 $80 $129 $214 $220 reversed $51 $-1 #
coedge $-1 $216 $221 $80 $132 forward $222 $-1 #
edge $-1 $223 12.942438056190895 $224 21.249497129021165 $131 $225 forward 7 unknown #
loop $-1 $-1 $138 $81 #
plane-surface $-1 -76.523331400494399 -25.472525891693579 6.0934120065283963 -0.66913061440640931 0 0.74314481823134659 0.74314481823134659 0 0.66913061440640931 forward_v I I I I #
loop $-1 $-1 $226 $53 #
coedge $-1 $136 $136 $137 $227 reversed $82 $-1 #
coedge $-1 $137 $137 $136 $227 forward $84 $-1 #
coedge $-1 $138 $138 $85 $139 forward $133 $-1 #
edge $-1 $228 0 $228 6.2831853071796004 $138 $229 forward 7 unknown #
face $-1 $230 $231 $21 $-1 $232 reversed single #
loop $-1 $-1 $233 $86 #
plane-surface $-1 -76.523331400494399 0 0 1 0 0 0 0 -1 forward_v I I I I #
coedge $-1 $234 $151 $235 $236 forward $87 $-1 #
coedge $-1 $237 $89 $234 $238 forward $57 $-1 #
coedge $-1 $89 $237 $239 $240 forward $57 $-1 #
coedge $-1 $154 $153 $89 $147 reversed $155 $-1 #
edge $-1 $241 -46.644972158829155 $242 46.644972158829155 $146 $243 forward 7 unknown #
coedge $-1 $91 $90 $244 $245 forward $36 $-1 #
coedge $-1 $246 $247 $90 $150 reversed $231 $-1 #
edge $-1 $157 -76.523331400494399 $248 76.523331400494399 $149 $249 forward 7 unknown #
coedge $-1 $143 $250 $91 $152 reversed $87 $-1 #
edge $-1 $251 -76.523331400494399 $156 76.523331400494399 $151 $252 forward 7 unknown #
coedge $-1 $146 $92 $250 $253 forward $155 $-1 #
coedge $-1 $92 $146 $246 $254 reversed $155 $-1 #
loop $-1 $-1 $153 $230 #
vertex $-1 $93 $255 #
vertex $-1 $93 $256 #
straight-curve $-1 76.523331400494399 0 13.573121754814425 0 1 0 I I #
face $-1 $257 $258 $22 $-1 $259 reversed single #
loop $-1 $-1 $165 $94 #
plane-surface $-1 76.523331400494399 0 0 -1 0 0 0 0 1 forward_v I I I I #
coedge $-1 $260 $261 $163 $262 forward $95 $-1 #
coedge $-1 $263 $97 $162 $262 reversed $61 $-1 #
coedge $-1 $97 $263 $98 $168 reversed $61 $-1 #
coedge $-1 $100 $264 $97 $166 forward $160 $-1 #
edge $-1 $265 -8.0150677850991237 $172 -3.1010401543314758 $165 $266 forward 7 unknown #
coedge $-1 $99 $98 $267 $268 reversed $39 $-1 #
edge $-1 $172 -76.523331400494399 $269 76.523331400494399 $164 $270 forward 7 unknown #
coedge $-1 $271 $272 $99 $170 forward $258 $-1 #
edge $-1 $173 -76.523331400494399 $273 76.523331400494399 $169 $274 forward 7 unknown #
coedge $-1 $264 $100 $272 $275 forward $160 $-1 #
vertex $-1 $101 $276 #
vertex $-1 $275 $277 #
straight-curve $-1 76.523331400494399 -19.061386621345335 -8.659094124046776 0 -1 0 I I #
face $-1 $278 $279 $23 $-1 $280 reversed single #
loop $-1 $-1 $281 $102 #
plane-surface $-1 0 0 -13.573121754814425 0 0 1 1 0 0 forward_v I I I I #
coedge $-1 $282 $105 $281 $283 reversed $65 $-1 #
coedge $-1 $105 $282 $107 $185 reversed $65 $-1 #
coedge $-1 $284 $285 $105 $181 forward $279 $-1 #
edge $-1 $286 -8.0150677850991237 $287 -3.1010401543314758 $180 $288 forward 7 unknown #
coedge $-1 $107 $106 $284 $289 reversed $42 $-1 #
coedge $-1 $290 $291 $106 $184 forward $292 $-1 #
edge $-1 $293 -76.523331400494399 $188 76.523331400494399 $183 $294 forward 7 unknown #
edge $-1 $287 -76.523331400494399 $189 76.523331400494399 $179 $295 forward 7 unknown #
coedge $-1 $296 $108 $282 $297 forward $103 $-1 #
coedge $-1 $108 $296 $290 $298 reversed $103 $-1 #
vertex $-1 $298 $299 #
vertex $-1 $109 $300 #
straight-curve $-1 76.523331400494399 19.061386621345331 -8.659094124046776 0 -1 0 I I #
face $-1 $-1 $301 $24 $-1 $302 reversed single #
loop $-1 $-1 $116 $110 #
plane-surface $-1 0 0 13.573121754814425 0 0 1 1 0 0 forward_v I I I I #
coedge $-1 $303 $304 $305 $306 reversed $111 $-1 #
coedge $-1 $307 $113 $115 $201 forward $69 $-1 #
coedge $-1 $113 $307 $303 $308 forward $69 $-1 #
coedge $-1 $305 $116 $113 $198 forward $192 $-1 #
edge $-1 $204 8.6082145109881765 $309 16.864311380705402 $197 $310 forward 7 unknown #
coedge $-1 $311 $312 $114 $200 forward $301 $-1 #
edge $-1 $313 -105.02531495725141 $203 -97.54560520896537 $199 $314 forward 7 unknown #
edge $-1 $204 141.86841211682105 $313 153.0466628009888 $115 $315 forward 7 unknown #
coedge $-1 $116 $305 $311 $316 forward $192 $-1 #
vertex $-1 $200 $317 #
vertex $-1 $117 $318 #
straight-curve $-1 32.597852252607787 -21.344477456834966 13.573121754814423 -1 0 0 I I #
coedge $-1 $206 $206 $-1 $319 reversed $120 $-1 #
edge $-1 $320 0 $320 6.2831853071796004 $121 $321 forward 7 unknown #
vertex $-1 $124 $322 #
ellipse-curve $-1 72.369801864079264 -25.472525891693579 9.8332668806714025 0.66913061440640931 0 0.74314481823134659 1.1147172273470198 0 -1.003695921609614 1 I I #
face $-1 $-1 $222 $26 $-1 $323 forward single #
loop $-1 $-1 $324 $125 #
plane-surface $-1 -76.523331400494399 0 0 1 0 0 0 0 -1 forward_v I I I I #
coedge $-1 $325 $326 $327 $328 reversed $126 $-1 #
coedge $-1 $329 $128 $130 $220 forward $78 $-1 #
coedge $-1 $128 $329 $325 $330 forward $78 $-1 #
coedge $-1 $327 $131 $128 $217 forward $222 $-1 #
edge $-1 $224 -16.864311380705402 $331 -8.6082145109881765 $216 $332 forward 7 unknown #
coedge $-1 $333 $334 $129 $219 forward $211 $-1 #
edge $-1 $335 -53.821211200813309 $223 -46.341501452527282 $218 $336 forward 7 unknown #
edge $-1 $224 -11.17825068416775 $335 0 $130 $337 forward 7 unknown #
coedge $-1 $131 $327 $333 $338 forward $222 $-1 #
loop $-1 $-1 $327 $210 #
vertex $-1 $219 $339 #
vertex $-1 $132 $340 #
straight-curve $-1 -89.465769456685294 -29.600574326552191 13.573121754814423 1 0 0 I I #
coedge $-1 $226 $226 $-1 $341 reversed $135 $-1 #
edge $-1 $342 0 $342 6.2831853071796004 $136 $343 forward 7 unknown #
vertex $-1 $139 $344 #
ellipse-curve $-1 -72.369801864079264 -25.472525891693579 9.8332668806714114 -0.66913061440640931 0 0.74314481823134659 1.1147172273470198 0 1.003695921609614 1 I I #
face $-1 $-1 $155 $21 $-1 $345 reversed single #
loop $-1 $-1 $246 $140 #
plane-surface $-1 0 46.644972158829155 0 0 -1 0 0 0 -1 forward_v I I I I #
coedge $-1 $346 $244 $247 $347 forward $141 $-1 #
coedge $-1 $250 $143 $144 $238 reversed $87 $-1 #
coedge $-1 $244 $346 $143 $236 reversed $141 $-1 #
edge $-1 $251 -13.573121754814425 $348 13.573121754814425 $235 $349 forward 7 unknown #
coedge $-1 $145 $144 $346 $350 forward $57 $-1 #
edge $-1 $242 -76.523331400494399 $348 76.523331400494399 $234 $351 forward 7 unknown #
coedge $-1 $247 $246 $145 $240 reversed $231 $-1 #
edge $-1 $352 -76.523331400494399 $241 76.523331400494399 $239 $353 forward 7 unknown #
vertex $-1 $147 $354 #
vertex $-1 $253 $355 #
straight-curve $-1 76.523331400494399 0 -13.573121754814425 0 -1 0 I I #
coedge $-1 $233 $235 $148 $245 reversed $141 $-1 #
edge $-1 $248 -46.644972158829155 $251 46.644972158829155 $244 $356 forward 7 unknown #
coedge $-1 $239 $149 $154 $254 forward $231 $-1 #
coedge $-1 $149 $239 $233 $347 reversed $231 $-1 #
vertex $-1 $150 $357 #
straight-curve $-1 0 46.644972158829155 13.573121754814425 -1 0 0 I I #
coedge $-1 $151 $234 $153 $253 reversed $87 $-1 #
vertex $-1 $245 $358 #
straight-curve $-1 0 -46.644972158829155 13.573121754814425 1 0 0 I I #
edge $-1 $156 -13.573121754814425 $242 13.573121754814425 $153 $359 forward 7 unknown #
edge $-1 $157 -13.573121754814425 $241 13.573121754814425 $154 $360 forward 7 unknown #
point $-1 76.523331400494399 -46.644972158829155 13.573121754814425 #
point $-1 76.523331400494399 46.644972158829155 13.573121754814425 #
face $-1 $-1 $361 $22 $-1 $362 reversed single #
loop $-1 $-1 $169 $159 #
plane-surface $-1 0 -46.644972158829155 0 0 1 0 0 0 1 forward_v I I I I #
coedge $-1 $363 $162 $264 $364 forward $95 $-1 #
coedge $-1 $162 $363 $365 $366 forward $95 $-1 #
edge $-1 $367 -76.523331400494399 $265 76.523331400494399 $162 $368 forward 7 unknown #
coedge $-1 $164 $163 $369 $370 reversed $61 $-1 #
coedge $-1 $165 $171 $260 $364 reversed $160 $-1 #
vertex $-1 $364 $371 #
straight-curve $-1 76.523331400494399 -29.600574326552184 -5.5580539697153002 0 0 1 I I #
coedge $-1 $369 $372 $167 $268 forward $361 $-1 #
edge $-1 $273 -27.58358553748382 $269 -10.539187705206849 $267 $373 forward 7 unknown #
vertex $-1 $268 $374 #
straight-curve $-1 0 -29.600574326552184 -8.659094124046776 -1 0 0 I I #
coedge $-1 $375 $169 $372 $376 forward $258 $-1 #
coedge $-1 $169 $375 $171 $275 reversed $258 $-1 #
vertex $-1 $376 $377 #
straight-curve $-1 0 -46.644972158829155 -8.659094124046776 -1 0 0 I I #
edge $-1 $173 8.659094124046776 $378 13.573121754814425 $171 $379 forward 7 unknown #
point $-1 76.523331400494399 -29.600574326552184 -8.659094124046776 #
point $-1 76.523331400494399 -46.644972158829155 -8.659094124046776 #
face $-1 $-1 $292 $23 $-1 $380 reversed single #
loop $-1 $-1 $284 $175 #
plane-surface $-1 -76.523331400494399 0 0 1 0 0 0 0 -1 forward_v I I I I #
coedge $-1 $381 $382 $178 $283 forward $176 $-1 #
coedge $-1 $179 $178 $186 $297 reversed $65 $-1 #
edge $-1 $383 -76.523331400494399 $286 76.523331400494399 $281 $384 forward 7 unknown #
coedge $-1 $385 $180 $182 $289 forward $279 $-1 #
coedge $-1 $180 $385 $381 $386 reversed $279 $-1 #
vertex $-1 $386 $387 #
vertex $-1 $289 $388 #
straight-curve $-1 -76.523331400494399 29.600574326552177 -5.5580539697153002 0 0 1 I I #
edge $-1 $287 10.539187705206846 $293 27.583585537483817 $284 $389 forward 7 unknown #
coedge $-1 $390 $183 $187 $298 forward $292 $-1 #
coedge $-1 $183 $390 $385 $391 reversed $292 $-1 #
loop $-1 $-1 $183 $278 #
vertex $-1 $391 $392 #
straight-curve $-1 0 46.644972158829155 -8.659094124046776 1 0 0 I I #
straight-curve $-1 0 29.600574326552177 -8.659094124046776 1 0 0 I I #
coedge $-1 $187 $186 $382 $393 reversed $103 $-1 #
edge $-1 $189 3.1010401543314758 $383 8.0150677850991237 $186 $394 forward 7 unknown #
edge $-1 $188 8.659094124046776 $395 13.573121754814425 $187 $396 forward 7 unknown #
point $-1 76.523331400494399 46.644972158829148 -8.659094124046776 #
point $-1 76.523331400494399 29.600574326552177 -8.659094124046776 #
loop $-1 $-1 $199 $191 #
plane-surface $-1 76.523331400494399 0 0 -1 0 0 0 0 1 forward_v I I I I #
coedge $-1 $304 $194 $196 $308 reversed $111 $-1 #
coedge $-1 $194 $303 $397 $398 reversed $111 $-1 #
coedge $-1 $202 $197 $194 $306 forward $192 $-1 #
edge $-1 $309 35.618420075056342 $399 43.925479147886612 $305 $400 forward 7 unknown #
coedge $-1 $196 $195 $312 $401 reversed $69 $-1 #
edge $-1 $402 -153.0466628009888 $309 -141.86841211682105 $303 $403 forward 7 unknown #
vertex $-1 $198 $404 #
straight-curve $-1 68.216272327664129 -12.736262945846789 13.573121754814409 0 -1 0 I I #
coedge $-1 $397 $199 $202 $316 reversed $301 $-1 #
coedge $-1 $199 $397 $307 $401 forward $301 $-1 #
vertex $-1 $200 $405 #
straight-curve $-1 76.523331400494399 -21.344477456834966 111.11872696377979 0 0 1 I I #
straight-curve $-1 -37.212503007660615 -21.344477456834966 108.50161951940457 0.74314481823134659 0 -0.66913061440640931 I I #
edge $-1 $399 -29.600574326552191 $203 -21.344477456834966 $311 $406 forward 7 unknown #
point $-1 76.523331400494399 -21.344477456834966 13.573121754814425 #
point $-1 68.216272327664129 -21.344477456834966 13.573121754814423 #
edge $-1 $407 1 $407 0 $206 $-1 forward 7 unknown #
vertex $-1 $207 $408 #
ellipse-curve $-1 71.348921781209143 -25.472525891693579 8.6994647091872466 0.66913061440640931 0 0.74314481823134659 1.1147172273470198 0 -1.003695921609614 1 I I #
point $-1 73.484519091426279 -25.472525891693579 8.8295709590617939 #
plane-surface $-1 0 0 13.573121754814425 0 0 1 1 0 0 forward_v I I I I #
coedge $-1 $334 $333 $326 $409 forward $211 $-1 #
coedge $-1 $326 $213 $215 $330 reversed $126 $-1 #
coedge $-1 $213 $325 $324 $409 reversed $126 $-1 #
coedge $-1 $221 $216 $213 $328 forward $222 $-1 #
edge $-1 $331 -21.249497129021165 $410 -12.942438056190895 $327 $411 forward 7 unknown #
coedge $-1 $215 $214 $334 $412 reversed $78 $-1 #
edge $-1 $413 0 $331 11.17825068416775 $325 $414 forward 7 unknown #
vertex $-1 $217 $415 #
straight-curve $-1 -68.216272327664129 -12.736262945846789 13.573121754814421 0 1 0 I I #
coedge $-1 $324 $218 $221 $338 reversed $211 $-1 #
coedge $-1 $218 $324 $329 $412 forward $211 $-1 #
vertex $-1 $219 $416 #
straight-curve $-1 -76.523331400494399 -29.600574326552191 59.914623207341705 0 0 1 I I #
straight-curve $-1 -76.523331400494399 -29.600574326552191 6.0934120065283963 -0.74314481823134659 0 -0.66913061440640931 I I #
edge $-1 $410 21.344477456834966 $223 29.600574326552191 $333 $417 forward 7 unknown #
point $-1 -76.523331400494399 -29.600574326552191 13.573121754814425 #
point $-1 -68.216272327664129 -29.600574326552191 13.573121754814425 #
edge $-1 $418 1 $418 0 $226 $-1 forward 7 unknown #
vertex $-1 $227 $419 #
ellipse-curve $-1 -71.348921781209143 -25.472525891693579 8.6994647091872466 -0.66913061440640931 0 0.74314481823134659 1.1147172273470198 0 1.003695921609614 1 I I #
point $-1 -71.255084636732235 -25.472525891693579 10.836962802281022 #
plane-surface $-1 76.523331400494399 0 0 -1 0 0 0 0 1 forward_v I I I I #
coedge $-1 $235 $233 $237 $350 reversed $141 $-1 #
edge $-1 $248 -13.573121754814425 $352 13.573121754814425 $247 $420 forward 7 unknown #
vertex $-1 $350 $421 #
straight-curve $-1 -76.523331400494399 -46.644972158829155 0 0 0 -1 I I #
edge $-1 $348 -46.644972158829155 $352 46.644972158829155 $346 $422 forward 7 unknown #
straight-curve $-1 0 -46.644972158829155 -13.573121754814425 -1 0 0 I I #
vertex $-1 $240 $423 #
straight-curve $-1 0 46.644972158829155 -13.573121754814425 1 0 0 I I #
point $-1 76.523331400494399 46.644972158829155 -13.573121754814425 #
point $-1 76.523331400494399 -46.644972158829155 -13.573121754814425 #
straight-curve $-1 -76.523331400494399 0 13.573121754814425 0 -1 0 I I #
point $-1 -76.523331400494399 46.644972158829155 13.573121754814425 #
point $-1 -76.523331400494399 -46.644972158829155 13.573121754814425 #
straight-curve $-1 76.523331400494399 -46.644972158829155 0 0 0 -1 I I #
straight-curve $-1 76.523331400494399 46.644972158829155 0 0 0 -1 I I #
loop $-1 $-1 $369 $257 #
plane-surface $-1 -76.523331400494399 0 0 1 0 0 0 0 -1 forward_v I I I I #
coedge $-1 $261 $260 $375 $424 forward $95 $-1 #
edge $-1 $265 29.600574326552184 $378 46.644972158829155 $264 $425 forward 7 unknown #
coedge $-1 $372 $369 $261 $366 reversed $361 $-1 #
edge $-1 $426 -46.644972158829155 $367 -29.600574326552184 $365 $427 forward 7 unknown #
vertex $-1 $370 $428 #
straight-curve $-1 0 -29.600574326552184 -13.573121754814425 1 0 0 I I #
coedge $-1 $365 $267 $263 $370 forward $361 $-1 #
edge $-1 $269 3.1010401543314758 $367 8.0150677850991237 $369 $429 forward 7 unknown #
point $-1 76.523331400494399 -29.600574326552184 -13.573121754814425 #
coedge $-1 $267 $365 $271 $376 reversed $361 $-1 #
straight-curve $-1 -76.523331400494399 -19.061386621345335 -8.659094124046776 0 1 0 I I #
point $-1 -76.523331400494399 -29.600574326552184 -8.659094124046776 #
coedge $-1 $272 $271 $363 $424 reversed $258 $-1 #
edge $-1 $273 8.659094124046776 $426 13.573121754814425 $372 $430 forward 7 unknown #
point $-1 -76.523331400494399 -46.644972158829155 -8.659094124046776 #
vertex $-1 $275 $431 #
straight-curve $-1 76.523331400494399 -46.644972158829155 0 0 0 -1 I I #
plane-surface $-1 0 46.644972158829155 0 0 -1 0 0 0 -1 forward_v I I I I #
coedge $-1 $432 $281 $285 $386 forward $176 $-1 #
coedge $-1 $281 $432 $296 $393 forward $176 $-1 #
vertex $-1 $283 $433 #
straight-curve $-1 0 29.600574326552177 -13.573121754814425 -1 0 0 I I #
coedge $-1 $285 $284 $291 $391 forward $279 $-1 #
edge $-1 $286 29.600574326552177 $434 46.644972158829155 $285 $435 forward 7 unknown #
point $-1 -76.523331400494399 29.600574326552177 -13.573121754814425 #
point $-1 -76.523331400494399 29.600574326552177 -8.659094124046776 #
straight-curve $-1 -76.523331400494399 19.061386621345331 -8.659094124046776 0 1 0 I I #
coedge $-1 $291 $290 $432 $436 reversed $292 $-1 #
edge $-1 $293 8.659094124046776 $434 13.573121754814425 $291 $437 forward 7 unknown #
point $-1 -76.523331400494399 46.644972158829148 -8.659094124046776 #
edge $-1 $395 -46.644972158829155 $383 -29.600574326552177 $296 $438 forward 7 unknown #
straight-curve $-1 76.523331400494399 29.600574326552177 -5.5580539697153002 0 0 -1 I I #
vertex $-1 $393 $439 #
straight-curve $-1 76.523331400494399 46.644972158829155 0 0 0 -1 I I #
coedge $-1 $312 $311 $304 $398 forward $301 $-1 #
edge $-1 $399 97.54560520896537 $402 105.02531495725141 $397 $440 forward 7 unknown #
vertex $-1 $316 $441 #
straight-curve $-1 32.597852252607787 -29.600574326552191 13.573121754814423 1 0 0 I I #
edge $-1 $402 -16.864311380705402 $313 -8.6082145109881765 $312 $442 forward 7 unknown #
vertex $-1 $401 $443 #
straight-curve $-1 -37.212503007660615 -29.600574326552191 108.50161951940457 -0.74314481823134659 0 0.66913061440640931 I I #
point $-1 68.216272327664129 -29.600574326552191 13.573121754814423 #
point $-1 76.523331400494399 -21.344477456834966 6.0934120065283821 #
straight-curve $-1 76.523331400494399 0 13.573121754814425 0 1 0 I I #
vertex $-1 $319 $444 #
point $-1 72.463639008556157 -25.472525891693579 7.6957687875776335 #
edge $-1 $410 46.341501452527282 $413 53.821211200813309 $324 $445 forward 7 unknown #
vertex $-1 $338 $446 #
straight-curve $-1 -89.465769456685294 -21.344477456834966 13.573121754814423 -1 0 0 I I #
edge $-1 $413 8.6082145109881765 $335 16.864311380705402 $334 $447 forward 7 unknown #
vertex $-1 $412 $448 #
straight-curve $-1 -76.523331400494399 -21.344477456834966 6.0934120065283963 0.74314481823134659 0 0.66913061440640931 I I #
point $-1 -68.216272327664129 -21.344477456834966 13.573121754814425 #
point $-1 -76.523331400494399 -29.600574326552191 6.0934120065283963 #
straight-curve $-1 -76.523331400494399 0 13.573121754814425 0 -1 0 I I #
vertex $-1 $341 $449 #
point $-1 -70.234204553862114 -25.472525891693579 9.7031606307968623 #
straight-curve $-1 -76.523331400494399 46.644972158829155 0 0 0 -1 I I #
point $-1 -76.523331400494399 -46.644972158829155 -13.573121754814425 #
straight-curve $-1 -76.523331400494399 0 -13.573121754814425 0 1 0 I I #
point $-1 -76.523331400494399 46.644972158829155 -13.573121754814425 #
edge $-1 $378 -76.523331400494399 $426 76.523331400494399 $375 $450 forward 7 unknown #
straight-curve $-1 76.523331400494399 0 -13.573121754814425 0 -1 0 I I #
vertex $-1 $366 $451 #
straight-curve $-1 -76.523331400494399 0 -13.573121754814425 0 1 0 I I #
point $-1 -76.523331400494399 -29.600574326552184 -13.573121754814425 #
straight-curve $-1 -76.523331400494399 -29.600574326552184 -5.5580539697153002 0 0 -1 I I #
straight-curve $-1 -76.523331400494399 -46.644972158829155 0 0 0 -1 I I #
point $-1 76.523331400494399 -46.644972158829155 -13.573121754814425 #
coedge $-1 $382 $381 $390 $436 forward $176 $-1 #
point $-1 76.523331400494399 29.600574326552177 -13.573121754814425 #
vertex $-1 $436 $452 #
straight-curve $-1 -76.523331400494399 0 -13.573121754814425 0 1 0 I I #
edge $-1 $434 -76.523331400494399 $395 76.523331400494399 $390 $453 forward 7 unknown #
straight-curve $-1 -76.523331400494399 46.644972158829155 0 0 0 -1 I I #
straight-curve $-1 76.523331400494399 0 -13.573121754814425 0 -1 0 I I #
point $-1 76.523331400494399 46.644972158829155 -13.573121754814425 #
straight-curve $-1 76.523331400494399 -29.600574326552191 111.11872696377979 0 0 -1 I I #
point $-1 76.523331400494399 -29.600574326552191 13.573121754814425 #
straight-curve $-1 76.523331400494399 -12.736262945846789 6.0934120065283892 0 1 0 I I #
point $-1 76.523331400494399 -29.600574326552191 6.0934120065283821 #
point $-1 70.345225859599523 -25.472525891693579 7.5847474818402274 #
straight-curve $-1 -76.523331400494399 -21.344477456834966 59.914623207341705 0 0 -1 I I #
point $-1 -76.523331400494399 -21.344477456834966 13.573121754814425 #
straight-curve $-1 -76.523331400494399 -12.736262945846789 6.0934120065283963 0 -1 0 I I #
point $-1 -76.523331400494399 -21.344477456834966 6.0934120065283963 #
point $-1 -70.345225859599523 -25.472525891693579 7.5847474818402274 #
straight-curve $-1 0 -46.644972158829155 -13.573121754814425 -1 0 0 I I #
point $-1 -76.523331400494399 -46.644972158829155 -13.573121754814425 #
point $-1 -76.523331400494399 46.644972158829155 -13.573121754814425 #
straight-curve $-1 0 46.644972158829155 -13.573121754814425 1 0 0 I I #
End-of-ACIS-data 