500 0 18 0           
7 Unknown 11 ACIS 5.0 NT 24 Fri Mar 26 20:35:12 1999 
-1 9.9999999999999995e-007 1e-010 
body $-1 $18 $-1 $19 #
body $-1 $20 $-1 $21 #
body $-1 $22 $-1 $23 #
body $-1 $24 $-1 $25 #
body $-1 $26 $-1 $27 #
body $-1 $28 $-1 $29 #
body $-1 $30 $-1 $31 #
body $-1 $32 $-1 $33 #
body $-1 $34 $-1 $35 #
body $-1 $36 $-1 $37 #
body $-1 $38 $-1 $39 #
body $-1 $40 $-1 $41 #
body $-1 $42 $-1 $43 #
body $-1 $44 $-1 $45 #
body $-1 $46 $-1 $47 #
body $-1 $48 $-1 $49 #
body $-1 $50 $-1 $51 #
body $-1 $52 $-1 $53 #
lump $-1 $-1 $54 $0 #
transform $-1 1 0 0 0 1 0 0 0 1 62.107608264412363 36.750713443388705 7.4288773938300565 1 rotate no_reflect no_shear #
lump $-1 $-1 $55 $1 #
transform $-1 1 0 0 0 1 0 0 0 1 62.107608264412363 36.750713443388705 7.4288773938300565 1 rotate no_reflect no_shear #
lump $-1 $-1 $56 $2 #
transform $-1 1 0 0 0 1 0 0 0 1 62.107608264412363 36.750713443388705 7.4288773938300565 1 rotate no_reflect no_shear #
lump $-1 $-1 $57 $3 #
transform $-1 1 0 0 0 1 0 0 0 1 62.107608264412363 36.750713443388705 7.4288773938300565 1 rotate no_reflect no_shear #
lump $-1 $-1 $58 $4 #
transform $-1 1 0 0 0 1 0 0 0 1 62.107608264412363 36.750713443388705 7.4288773938300565 1 rotate no_reflect no_shear #
lump $-1 $-1 $59 $5 #
transform $-1 1 0 0 0 1 0 0 0 1 62.107608264412363 36.750713443388705 7.4288773938300565 1 rotate no_reflect no_shear #
lump $-1 $-1 $60 $6 #
transform $-1 1 0 0 0 1 0 0 0 1 62.107608264412363 36.750713443388705 7.4288773938300565 1 rotate no_reflect no_shear #
lump $-1 $-1 $61 $7 #
transform $-1 1 0 0 0 1 0 0 0 1 62.107608264412363 36.750713443388705 7.4288773938300565 1 rotate no_reflect no_shear #
lump $-1 $-1 $62 $8 #
transform $-1 1 0 0 0 1 0 0 0 1 62.107608264412363 36.750713443388705 7.4288773938300565 1 rotate no_reflect no_shear #
lump $-1 $-1 $63 $9 #
transform $-1 1 0 0 0 1 0 0 0 1 62.107608264412363 36.750713443388705 7.4288773938300565 1 rotate no_reflect no_shear #
lump $-1 $-1 $64 $10 #
transform $-1 1 0 0 0 1 0 0 0 1 62.107608264412363 36.750713443388705 7.4288773938300565 1 rotate no_reflect no_shear #
lump $-1 $-1 $65 $11 #
transform $-1 1 0 0 0 1 0 0 0 1 62.107608264412363 36.750713443388705 7.4288773938300565 1 rotate no_reflect no_shear #
lump $-1 $-1 $66 $12 #
transform $-1 1 0 0 0 1 0 0 0 1 62.107608264412363 36.750713443388705 7.4288773938300565 1 rotate no_reflect no_shear #
lump $-1 $-1 $67 $13 #
transform $-1 1 0 0 0 1 0 0 0 1 62.107608264412363 36.750713443388705 7.4288773938300565 1 rotate no_reflect no_shear #
lump $-1 $-1 $68 $14 #
transform $-1 1 0 0 0 1 0 0 0 1 62.107608264412363 36.750713443388705 7.4288773938300565 1 rotate no_reflect no_shear #
lump $-1 $-1 $69 $15 #
transform $-1 1 0 0 0 1 0 0 0 1 62.107608264412363 36.750713443388705 7.4288773938300565 1 rotate no_reflect no_shear #
lump $-1 $-1 $70 $16 #
transform $-1 1 0 0 0 1 0 0 0 1 62.107608264412363 36.750713443388705 7.4288773938300565 1 rotate no_reflect no_shear #
lump $-1 $-1 $71 $17 #
transform $-1 1 0 0 0 1 0 0 0 1 62.107608264412363 36.750713443388705 7.4288773938300565 1 rotate no_reflect no_shear #
shell $-1 $-1 $-1 $72 $-1 $18 #
shell $-1 $-1 $-1 $73 $-1 $20 #
shell $-1 $-1 $-1 $74 $-1 $22 #
shell $-1 $-1 $-1 $75 $-1 $24 #
shell $-1 $-1 $-1 $76 $-1 $26 #
shell $-1 $-1 $-1 $77 $-1 $28 #
shell $-1 $-1 $-1 $78 $-1 $30 #
shell $-1 $-1 $-1 $79 $-1 $32 #
shell $-1 $-1 $-1 $80 $-1 $34 #
shell $-1 $-1 $-1 $81 $-1 $36 #
shell $-1 $-1 $-1 $82 $-1 $38 #
shell $-1 $-1 $-1 $83 $-1 $40 #
shell $-1 $-1 $-1 $84 $-1 $42 #
shell $-1 $-1 $-1 $85 $-1 $44 #
shell $-1 $-1 $-1 $86 $-1 $46 #
shell $-1 $-1 $-1 $87 $-1 $48 #
shell $-1 $-1 $-1 $88 $-1 $50 #
shell $-1 $-1 $-1 $89 $-1 $52 #
face $-1 $90 $91 $54 $-1 $92 forward single #
face $-1 $93 $94 $55 $-1 $95 forward single #
face $-1 $96 $97 $56 $-1 $98 forward single #
face $-1 $99 $100 $57 $-1 $101 reversed single #
face $-1 $102 $103 $58 $-1 $104 forward single #
face $-1 $105 $106 $59 $-1 $107 forward single #
face $-1 $108 $109 $60 $-1 $110 reversed single #
face $-1 $111 $112 $61 $-1 $113 forward single #
face $-1 $114 $115 $62 $-1 $116 forward single #
face $-1 $117 $118 $63 $-1 $119 reversed single #
face $-1 $120 $121 $64 $-1 $122 forward single #
face $-1 $123 $124 $65 $-1 $125 forward single #
face $-1 $126 $127 $66 $-1 $128 reversed single #
face $-1 $129 $130 $67 $-1 $131 forward single #
face $-1 $132 $133 $68 $-1 $134 forward single #
face $-1 $135 $136 $69 $-1 $137 reversed single #
face $-1 $138 $139 $70 $-1 $140 forward single #
face $-1 $141 $142 $71 $-1 $143 forward single #
face $-1 $144 $145 $54 $-1 $146 reversed single #
loop $-1 $-1 $147 $72 #
plane-surface $-1 0 0 7.4288773938300565 0 0 1 1 0 0 forward_v I I I I #
face $-1 $148 $149 $55 $-1 $150 reversed single #
loop $-1 $-1 $151 $73 #
plane-surface $-1 -62.107608264412363 0 0 1 0 0 0 0 -1 forward_v I I I I #
face $-1 $152 $153 $56 $-1 $154 reversed single #
loop $-1 $-1 $155 $74 #
plane-surface $-1 62.107608264412363 0 0 -1 0 0 0 0 1 forward_v I I I I #
face $-1 $156 $157 $57 $-1 $158 reversed single #
loop $-1 $-1 $159 $75 #
plane-surface $-1 -26.955177731916152 -143.22393627474108 64.833171940281119 -1 0 0 0 -0.85716730853699208 0.51503806187062418 forward_v I I I I #
face $-1 $160 $161 $58 $-1 $162 forward single #
loop $-1 $163 $164 $76 #
cone-surface $-1 -34.919135402515181 -33.124554058408926 3.1506503184654413 0 0.85716730853699208 -0.51503806187062418 1.5 0 0 1 I I 0 1 1.5 forward I I I I #
face $-1 $165 $166 $59 $-1 $167 forward single #
loop $-1 $168 $169 $77 #
cone-surface $-1 -30.140760800155761 -33.124554058408926 3.1506503184654413 0 0.85716730853699208 -0.51503806187062418 1.5 0 0 1 I I 0 1 1.5 forward I I I I #
face $-1 $170 $171 $60 $-1 $172 reversed single #
loop $-1 $-1 $173 $78 #
plane-surface $-1 -8.8817841970012523e-015 -143.22393627474108 64.833171940281119 -1 0 0 0 -0.85716730853699208 0.51503806187062418 forward_v I I I I #
face $-1 $174 $175 $61 $-1 $176 forward single #
loop $-1 $177 $178 $79 #
cone-surface $-1 -7.9639576705990294 -33.124554058408926 3.1506503184654413 0 0.85716730853699208 -0.51503806187062418 1.5 0 0 1 I I 0 1 1.5 forward I I I I #
face $-1 $179 $180 $62 $-1 $181 forward single #
loop $-1 $182 $183 $80 #
cone-surface $-1 -3.1855830682396089 -33.124554058408926 3.1506503184654413 0 0.85716730853699208 -0.51503806187062418 1.5 0 0 1 I I 0 1 1.5 forward I I I I #
face $-1 $184 $185 $63 $-1 $186 reversed single #
loop $-1 $-1 $187 $81 #
plane-surface $-1 26.955177731916145 -143.22393627474108 64.833171940281119 -1 0 0 0 -0.85716730853699208 0.51503806187062418 forward_v I I I I #
face $-1 $188 $189 $64 $-1 $190 forward single #
loop $-1 $191 $192 $82 #
cone-surface $-1 18.991220061317122 -33.124554058408926 3.1506503184654413 0 0.85716730853699208 -0.51503806187062418 1.5 0 0 1 I I 0 1 1.5 forward I I I I #
face $-1 $193 $194 $65 $-1 $195 forward single #
loop $-1 $196 $197 $83 #
cone-surface $-1 23.769594663676543 -33.124554058408926 3.1506503184654413 0 0.85716730853699208 -0.51503806187062418 1.5 0 0 1 I I 0 1 1.5 forward I I I I #
face $-1 $198 $199 $66 $-1 $200 reversed single #
loop $-1 $-1 $201 $84 #
plane-surface $-1 53.910355463832296 -143.22393627474108 64.833171940281119 -1 0 0 0 -0.85716730853699208 0.51503806187062418 forward_v I I I I #
face $-1 $202 $203 $67 $-1 $204 forward single #
loop $-1 $205 $206 $85 #
cone-surface $-1 45.946397793233274 -33.124554058408926 3.1506503184654413 0 0.85716730853699208 -0.51503806187062418 1.5 0 0 1 I I 0 1 1.5 forward I I I I #
face $-1 $207 $208 $68 $-1 $209 forward single #
loop $-1 $210 $211 $86 #
cone-surface $-1 50.724772395592694 -33.124554058408926 3.1506503184654413 0 0.85716730853699208 -0.51503806187062418 1.5 0 0 1 I I 0 1 1.5 forward I I I I #
face $-1 $212 $213 $69 $-1 $214 reversed single #
loop $-1 $-1 $215 $87 #
plane-surface $-1 26.813849580594905 57.800546453089268 143.41131929066654 1 0 0 0 -0.62932039886446345 -0.77714595512881146 forward_v I I I I #
face $-1 $216 $217 $70 $-1 $218 forward single #
loop $-1 $219 $220 $88 #
cone-surface $-1 34.555708404377015 32.037464710756922 3.3952014500226122 0 -0.62932039886446345 -0.77714595512881146 1.5 0 0 1 I I 0 1 1.5 forward I I I I #
face $-1 $221 $222 $71 $-1 $223 forward single #
loop $-1 $224 $225 $89 #
cone-surface $-1 46.168496640050179 32.037464710756922 3.3952014500226122 0 -0.62932039886446345 -0.77714595512881146 1.5 0 0 1 I I 0 1 1.5 forward I I I I #
face $-1 $226 $227 $54 $-1 $228 reversed single #
loop $-1 $-1 $229 $90 #
plane-surface $-1 0 0 -7.4288773938300565 0 0 1 1 0 0 forward_v I I I I #
coedge $-1 $230 $231 $232 $233 forward $91 $-1 #
face $-1 $234 $235 $55 $-1 $236 forward single #
loop $-1 $-1 $237 $93 #
plane-surface $-1 0 36.750713443388705 0 0 -1 0 0 0 -1 forward_v I I I I #
coedge $-1 $238 $239 $240 $241 forward $94 $-1 #
face $-1 $242 $243 $56 $-1 $244 forward single #
loop $-1 $-1 $245 $96 #
plane-surface $-1 0 -36.750713443388705 0 0 1 0 0 0 1 forward_v I I I I #
coedge $-1 $246 $247 $248 $249 forward $97 $-1 #
face $-1 $250 $251 $57 $-1 $252 reversed single #
loop $-1 $-1 $253 $99 #
plane-surface $-1 -32.529948101335471 -36.75071344338869 0.8576075644353125 0 -0.85716730853699208 0.51503806187062418 1 0 0 forward_v I I I I #
coedge $-1 $254 $255 $256 $257 reversed $100 $-1 #
face $-1 $-1 $258 $58 $-1 $259 forward single #
loop $-1 $260 $261 $102 #
cone-surface $-1 -34.919135402515181 -30.829727752743061 1.7717796113952318 0 0.85716730853699208 -0.51503806187062418 0.75 0 0 1 I I -0.70710678118654757 0.70710678118654757 0.75 forward I I I I #
loop $-1 $-1 $262 $76 #
coedge $-1 $164 $164 $263 $264 reversed $103 $-1 #
face $-1 $-1 $265 $59 $-1 $266 forward single #
loop $-1 $267 $268 $105 #
cone-surface $-1 -30.140760800155761 -30.829727752743061 1.7717796113952318 0 0.85716730853699208 -0.51503806187062418 0.75 0 0 1 I I -0.70710678118654757 0.70710678118654757 0.75 forward I I I I #
loop $-1 $-1 $269 $77 #
coedge $-1 $169 $169 $270 $271 reversed $106 $-1 #
face $-1 $272 $273 $60 $-1 $274 reversed single #
loop $-1 $-1 $275 $108 #
plane-surface $-1 -5.5747703694193262 -36.75071344338869 0.8576075644353125 0 -0.85716730853699208 0.51503806187062418 1 0 0 forward_v I I I I #
coedge $-1 $276 $277 $278 $279 reversed $109 $-1 #
face $-1 $-1 $280 $61 $-1 $281 forward single #
loop $-1 $282 $283 $111 #
cone-surface $-1 -7.9639576705990294 -30.829727752743061 1.7717796113952318 0 0.85716730853699208 -0.51503806187062418 0.75 0 0 1 I I -0.70710678118654757 0.70710678118654757 0.75 forward I I I I #
loop $-1 $-1 $284 $79 #
coedge $-1 $178 $178 $285 $286 reversed $112 $-1 #
face $-1 $-1 $287 $62 $-1 $288 forward single #
loop $-1 $289 $290 $114 #
cone-surface $-1 -3.1855830682396089 -30.829727752743061 1.7717796113952318 0 0.85716730853699208 -0.51503806187062418 0.75 0 0 1 I I -0.70710678118654757 0.70710678118654757 0.75 forward I I I I #
loop $-1 $-1 $291 $80 #
coedge $-1 $183 $183 $292 $293 reversed $115 $-1 #
face $-1 $294 $295 $63 $-1 $296 reversed single #
loop $-1 $-1 $297 $117 #
plane-surface $-1 21.380407362496825 -36.75071344338869 0.8576075644353125 0 -0.85716730853699208 0.51503806187062418 1 0 0 forward_v I I I I #
coedge $-1 $298 $299 $300 $301 reversed $118 $-1 #
face $-1 $-1 $302 $64 $-1 $303 forward single #
loop $-1 $304 $305 $120 #
cone-surface $-1 18.991220061317122 -30.829727752743061 1.7717796113952318 0 0.85716730853699208 -0.51503806187062418 0.75 0 0 1 I I -0.70710678118654757 0.70710678118654757 0.75 forward I I I I #
loop $-1 $-1 $306 $82 #
coedge $-1 $192 $192 $307 $308 reversed $121 $-1 #
face $-1 $-1 $309 $65 $-1 $310 forward single #
loop $-1 $311 $312 $123 #
cone-surface $-1 23.769594663676543 -30.829727752743061 1.7717796113952318 0 0.85716730853699208 -0.51503806187062418 0.75 0 0 1 I I -0.70710678118654757 0.70710678118654757 0.75 forward I I I I #
loop $-1 $-1 $313 $83 #
coedge $-1 $197 $197 $314 $315 reversed $124 $-1 #
face $-1 $316 $317 $66 $-1 $318 reversed single #
loop $-1 $-1 $319 $126 #
plane-surface $-1 48.335585094412977 -36.75071344338869 0.8576075644353125 0 -0.85716730853699208 0.51503806187062418 1 0 0 forward_v I I I I #
coedge $-1 $320 $321 $322 $323 reversed $127 $-1 #
face $-1 $-1 $324 $67 $-1 $325 forward single #
loop $-1 $326 $327 $129 #
cone-surface $-1 45.946397793233274 -30.829727752743061 1.7717796113952318 0 0.85716730853699208 -0.51503806187062418 0.75 0 0 1 I I -0.70710678118654757 0.70710678118654757 0.75 forward I I I I #
loop $-1 $-1 $328 $85 #
coedge $-1 $206 $206 $329 $330 reversed $130 $-1 #
face $-1 $-1 $331 $68 $-1 $332 forward single #
loop $-1 $333 $334 $132 #
cone-surface $-1 50.724772395592694 -30.829727752743061 1.7717796113952318 0 0.85716730853699208 -0.51503806187062418 0.75 0 0 1 I I -0.70710678118654757 0.70710678118654757 0.75 forward I I I I #
loop $-1 $-1 $335 $86 #
coedge $-1 $211 $211 $336 $337 reversed $133 $-1 #
face $-1 $338 $339 $69 $-1 $340 reversed single #
loop $-1 $-1 $341 $135 #
plane-surface $-1 40.362102522213604 -20.370623157866405 46.877966199840913 0 0.62932039886446345 0.77714595512881146 1 0 0 forward_v I I I I #
coedge $-1 $342 $343 $344 $345 reversed $136 $-1 #
face $-1 $-1 $346 $70 $-1 $347 forward single #
loop $-1 $348 $349 $138 #
cone-surface $-1 34.555708404377015 31.055110683188971 2.1820952796101238 0 -0.62932039886446345 -0.77714595512881146 0.75 0 0 1 I I -0.70710678118654757 0.70710678118654757 0.75 forward I I I I #
loop $-1 $-1 $350 $88 #
coedge $-1 $220 $220 $351 $352 reversed $139 $-1 #
face $-1 $-1 $353 $71 $-1 $354 forward single #
loop $-1 $355 $356 $141 #
cone-surface $-1 46.168496640050179 31.055110683188971 2.1820952796101238 0 -0.62932039886446345 -0.77714595512881146 0.75 0 0 1 I I -0.70710678118654757 0.70710678118654757 0.75 forward I I I I #
loop $-1 $-1 $357 $89 #
coedge $-1 $225 $225 $358 $359 reversed $142 $-1 #
face $-1 $360 $361 $54 $-1 $362 reversed single #
loop $-1 $-1 $363 $144 #
plane-surface $-1 0 -36.750713443388705 0 0 1 0 0 0 1 forward_v I I I I #
coedge $-1 $364 $365 $366 $367 forward $145 $-1 #
coedge $-1 $368 $147 $369 $370 forward $91 $-1 #
coedge $-1 $147 $368 $371 $372 forward $91 $-1 #
coedge $-1 $373 $374 $147 $233 reversed $375 $-1 #
edge $-1 $376 -36.750713443388705 $377 36.750713443388705 $232 $378 forward 7 unknown #
face $-1 $379 $380 $55 $-1 $381 reversed single #
loop $-1 $-1 $240 $148 #
plane-surface $-1 -66.206234664702393 0 -3.2303569139825861 0 0 1 1 0 0 forward_v I I I I #
coedge $-1 $382 $383 $239 $384 forward $149 $-1 #
coedge $-1 $385 $151 $386 $387 reversed $94 $-1 #
coedge $-1 $151 $385 $237 $384 reversed $94 $-1 #
coedge $-1 $388 $389 $151 $241 reversed $235 $-1 #
edge $-1 $390 -36.750713443388705 $391 36.750713443388705 $240 $392 forward 7 unknown #
face $-1 $393 $394 $56 $-1 $395 reversed single #
loop $-1 $-1 $396 $152 #
plane-surface $-1 66.206234664702379 0 -3.2303569139825861 0 0 1 1 0 0 forward_v I I I I #
coedge $-1 $397 $398 $247 $399 forward $153 $-1 #
coedge $-1 $400 $155 $401 $402 reversed $97 $-1 #
coedge $-1 $155 $400 $245 $399 reversed $97 $-1 #
coedge $-1 $403 $404 $155 $249 reversed $243 $-1 #
edge $-1 $405 -36.750713443388705 $406 36.750713443388705 $248 $407 forward 7 unknown #
face $-1 $408 $409 $57 $-1 $410 forward single #
loop $-1 $-1 $411 $156 #
plane-surface $-1 -38.10471847075479 -143.22393627474108 64.833171940281119 1 0 0 0 0.85716730853699208 -0.51503806187062418 forward_v I I I I #
coedge $-1 $412 $413 $414 $415 reversed $157 $-1 #
coedge $-1 $255 $159 $416 $417 reversed $100 $-1 #
coedge $-1 $159 $254 $412 $418 reversed $100 $-1 #
coedge $-1 $414 $419 $159 $257 forward $409 $-1 #
edge $-1 $420 34.861254693981834 $421 38.809671815415172 $256 $422 forward 7 unknown #
loop $-1 $-1 $263 $160 #
plane-surface $-1 -32.529948101335471 -36.75071344338869 0.8576075644353125 0 -0.85716730853699208 0.51503806187062418 1 0 0 forward_v I I I I #
loop $-1 $-1 $423 $102 #
coedge $-1 $261 $261 $262 $424 reversed $161 $-1 #
coedge $-1 $262 $262 $261 $424 forward $163 $-1 #
coedge $-1 $263 $263 $164 $264 forward $258 $-1 #
edge $-1 $425 1.1131046690557576e-015 $425 6.2831853071796013 $263 $426 forward 7 unknown #
loop $-1 $-1 $270 $165 #
plane-surface $-1 -32.529948101335471 -36.75071344338869 0.8576075644353125 0 -0.85716730853699208 0.51503806187062418 1 0 0 forward_v I I I I #
loop $-1 $-1 $427 $105 #
coedge $-1 $268 $268 $269 $428 reversed $166 $-1 #
coedge $-1 $269 $269 $268 $428 forward $168 $-1 #
coedge $-1 $270 $270 $169 $271 forward $265 $-1 #
edge $-1 $429 1.1131046690557576e-015 $429 6.2831853071796013 $270 $430 forward 7 unknown #
face $-1 $431 $432 $60 $-1 $433 reversed single #
loop $-1 $-1 $434 $170 #
plane-surface $-1 -11.149540738838644 -143.22393627474108 64.833171940281119 1 0 0 0 0.85716730853699208 -0.51503806187062418 forward_v I I I I #
coedge $-1 $435 $436 $437 $438 reversed $171 $-1 #
coedge $-1 $277 $173 $439 $440 reversed $109 $-1 #
coedge $-1 $173 $276 $435 $441 reversed $109 $-1 #
coedge $-1 $437 $442 $173 $279 forward $443 $-1 #
edge $-1 $444 34.861254693981834 $445 38.809671815415172 $278 $446 forward 7 unknown #
loop $-1 $-1 $285 $174 #
plane-surface $-1 -5.5747703694193262 -36.75071344338869 0.8576075644353125 0 -0.85716730853699208 0.51503806187062418 1 0 0 forward_v I I I I #
loop $-1 $-1 $447 $111 #
coedge $-1 $283 $283 $284 $448 reversed $175 $-1 #
coedge $-1 $284 $284 $283 $448 forward $177 $-1 #
coedge $-1 $285 $285 $178 $286 forward $280 $-1 #
edge $-1 $449 1.1131046690557576e-015 $449 6.2831853071796013 $285 $450 forward 7 unknown #
loop $-1 $-1 $292 $179 #
plane-surface $-1 -5.5747703694193262 -36.75071344338869 0.8576075644353125 0 -0.85716730853699208 0.51503806187062418 1 0 0 forward_v I I I I #
loop $-1 $-1 $451 $114 #
coedge $-1 $290 $290 $291 $452 reversed $180 $-1 #
coedge $-1 $291 $291 $290 $452 forward $182 $-1 #
coedge $-1 $292 $292 $183 $293 forward $287 $-1 #
edge $-1 $453 1.1131046690557576e-015 $453 6.2831853071796013 $292 $454 forward 7 unknown #
face $-1 $455 $456 $63 $-1 $457 reversed single #
loop $-1 $-1 $458 $184 #
plane-surface $-1 15.805636993077508 -143.22393627474108 64.833171940281119 1 0 0 0 0.85716730853699208 -0.51503806187062418 forward_v I I I I #
coedge $-1 $459 $460 $461 $462 reversed $185 $-1 #
coedge $-1 $299 $187 $463 $464 reversed $118 $-1 #
coedge $-1 $187 $298 $459 $465 reversed $118 $-1 #
coedge $-1 $461 $466 $187 $301 forward $467 $-1 #
edge $-1 $468 34.861254693981834 $469 38.809671815415172 $300 $470 forward 7 unknown #
loop $-1 $-1 $307 $188 #
plane-surface $-1 21.380407362496825 -36.75071344338869 0.8576075644353125 0 -0.85716730853699208 0.51503806187062418 1 0 0 forward_v I I I I #
loop $-1 $-1 $471 $120 #
coedge $-1 $305 $305 $306 $472 reversed $189 $-1 #
coedge $-1 $306 $306 $305 $472 forward $191 $-1 #
coedge $-1 $307 $307 $192 $308 forward $302 $-1 #
edge $-1 $473 1.1131046690557576e-015 $473 6.2831853071796013 $307 $474 forward 7 unknown #
loop $-1 $-1 $314 $193 #
plane-surface $-1 21.380407362496825 -36.75071344338869 0.8576075644353125 0 -0.85716730853699208 0.51503806187062418 1 0 0 forward_v I I I I #
loop $-1 $-1 $475 $123 #
coedge $-1 $312 $312 $313 $476 reversed $194 $-1 #
coedge $-1 $313 $313 $312 $476 forward $196 $-1 #
coedge $-1 $314 $314 $197 $315 forward $309 $-1 #
edge $-1 $477 1.1131046690557576e-015 $477 6.2831853071796013 $314 $478 forward 7 unknown #
face $-1 $479 $480 $66 $-1 $481 reversed single #
loop $-1 $-1 $482 $198 #
plane-surface $-1 42.760814724993658 -143.22393627474108 64.833171940281119 1 0 0 0 0.85716730853699208 -0.51503806187062418 forward_v I I I I #
coedge $-1 $483 $484 $485 $486 reversed $199 $-1 #
coedge $-1 $321 $201 $487 $488 reversed $127 $-1 #
coedge $-1 $201 $320 $483 $489 reversed $127 $-1 #
coedge $-1 $485 $490 $201 $323 forward $491 $-1 #
edge $-1 $492 34.861254693981834 $493 38.809671815415172 $322 $494 forward 7 unknown #
loop $-1 $-1 $329 $202 #
plane-surface $-1 48.335585094412977 -36.75071344338869 0.8576075644353125 0 -0.85716730853699208 0.51503806187062418 1 0 0 forward_v I I I I #
loop $-1 $-1 $495 $129 #
coedge $-1 $327 $327 $328 $496 reversed $203 $-1 #
coedge $-1 $328 $328 $327 $496 forward $205 $-1 #
coedge $-1 $329 $329 $206 $330 forward $324 $-1 #
edge $-1 $497 1.1131046690557576e-015 $497 6.2831853071796013 $329 $498 forward 7 unknown #
loop $-1 $-1 $336 $207 #
plane-surface $-1 48.335585094412977 -36.75071344338869 0.8576075644353125 0 -0.85716730853699208 0.51503806187062418 1 0 0 forward_v I I I I #
loop $-1 $-1 $499 $132 #
coedge $-1 $334 $334 $335 $500 reversed $208 $-1 #
coedge $-1 $335 $335 $334 $500 forward $210 $-1 #
coedge $-1 $336 $336 $211 $337 forward $331 $-1 #
edge $-1 $501 1.1131046690557576e-015 $501 6.2831853071796013 $336 $502 forward 7 unknown #
face $-1 $503 $504 $69 $-1 $505 reversed single #
loop $-1 $-1 $506 $212 #
plane-surface $-1 53.910355463832303 57.800546453089268 143.41131929066654 -1 0 0 0 0.62932039886446345 0.77714595512881146 forward_v I I I I #
coedge $-1 $507 $508 $509 $510 reversed $213 $-1 #
coedge $-1 $343 $215 $511 $512 reversed $136 $-1 #
coedge $-1 $215 $342 $507 $513 reversed $136 $-1 #
coedge $-1 $509 $514 $215 $345 forward $515 $-1 #
edge $-1 $516 -7.8504402168440706 $517 0.55532979158023466 $344 $518 forward 7 unknown #
loop $-1 $-1 $351 $216 #
plane-surface $-1 40.362102522213604 -20.370623157866405 46.877966199840913 0 0.62932039886446345 0.77714595512881146 1 0 0 forward_v I I I I #
loop $-1 $-1 $519 $138 #
coedge $-1 $349 $349 $350 $520 reversed $217 $-1 #
coedge $-1 $350 $350 $349 $520 forward $219 $-1 #
coedge $-1 $351 $351 $220 $352 forward $346 $-1 #
edge $-1 $521 -1.3104398780927815e-015 $521 6.2831853071795996 $351 $522 forward 7 unknown #
loop $-1 $-1 $358 $221 #
plane-surface $-1 40.362102522213604 -20.370623157866405 46.877966199840913 0 0.62932039886446345 0.77714595512881146 1 0 0 forward_v I I I I #
loop $-1 $-1 $523 $141 #
coedge $-1 $356 $356 $357 $524 reversed $222 $-1 #
coedge $-1 $357 $357 $356 $524 forward $224 $-1 #
coedge $-1 $358 $358 $225 $359 forward $353 $-1 #
edge $-1 $525 -1.3104398780927815e-015 $525 6.2831853071795996 $358 $526 forward 7 unknown #
face $-1 $527 $528 $54 $-1 $529 reversed single #
loop $-1 $-1 $530 $226 #
plane-surface $-1 -62.107608264412363 0 0 1 0 0 0 0 -1 forward_v I I I I #
coedge $-1 $531 $371 $532 $533 forward $227 $-1 #
coedge $-1 $534 $229 $531 $535 forward $145 $-1 #
coedge $-1 $229 $534 $536 $537 forward $145 $-1 #
coedge $-1 $374 $373 $229 $367 reversed $375 $-1 #
edge $-1 $538 -36.750713443388705 $539 36.750713443388705 $366 $540 forward 7 unknown #
coedge $-1 $231 $230 $541 $542 forward $91 $-1 #
coedge $-1 $543 $544 $230 $370 reversed $528 $-1 #
edge $-1 $377 -62.107608264412363 $545 62.107608264412363 $369 $546 forward 7 unknown #
coedge $-1 $363 $547 $231 $372 reversed $227 $-1 #
edge $-1 $548 -62.107608264412363 $376 62.107608264412363 $371 $549 forward 7 unknown #
coedge $-1 $366 $232 $547 $550 forward $375 $-1 #
coedge $-1 $232 $366 $543 $551 reversed $375 $-1 #
loop $-1 $-1 $373 $527 #
vertex $-1 $233 $552 #
vertex $-1 $233 $553 #
straight-curve $-1 62.107608264412363 0 7.4288773938300565 0 1 0 I I #
face $-1 $554 $555 $55 $-1 $556 reversed single #
loop $-1 $-1 $557 $234 #
plane-surface $-1 -66.206234664702393 0 -6.7093486925501153 0 0 1 1 0 0 forward_v I I I I #
coedge $-1 $558 $237 $559 $560 reversed $149 $-1 #
coedge $-1 $237 $558 $388 $561 reversed $149 $-1 #
edge $-1 $390 3.2303569139825861 $562 6.7093486925501153 $237 $563 forward 7 unknown #
coedge $-1 $239 $238 $557 $564 forward $94 $-1 #
coedge $-1 $565 $566 $238 $387 forward $567 $-1 #
edge $-1 $568 -6.7093486925501153 $391 -3.2303569139825861 $386 $569 forward 7 unknown #
coedge $-1 $570 $240 $383 $561 forward $235 $-1 #
coedge $-1 $240 $570 $565 $571 forward $235 $-1 #
vertex $-1 $384 $572 #
vertex $-1 $571 $573 #
straight-curve $-1 -62.107608264412363 0 -3.2303569139825861 0 -1 0 I I #
face $-1 $574 $575 $56 $-1 $576 reversed single #
loop $-1 $-1 $577 $242 #
plane-surface $-1 66.206234664702379 0 -6.7093486925501153 0 0 1 1 0 0 forward_v I I I I #
coedge $-1 $404 $403 $578 $579 forward $243 $-1 #
coedge $-1 $580 $245 $581 $582 reversed $153 $-1 #
coedge $-1 $245 $580 $403 $583 reversed $153 $-1 #
edge $-1 $405 3.2303569139825861 $584 6.7093486925501153 $245 $585 forward 7 unknown #
coedge $-1 $247 $246 $586 $587 forward $97 $-1 #
coedge $-1 $588 $589 $246 $402 forward $590 $-1 #
edge $-1 $591 -6.7093486925501153 $406 -3.2303569139825861 $401 $592 forward 7 unknown #
coedge $-1 $396 $248 $398 $583 forward $243 $-1 #
coedge $-1 $248 $396 $588 $593 forward $243 $-1 #
vertex $-1 $399 $594 #
vertex $-1 $593 $595 #
straight-curve $-1 62.107608264412363 0 -3.2303569139825861 0 1 0 I I #
face $-1 $-1 $596 $57 $-1 $597 reversed single #
loop $-1 $-1 $256 $250 #
plane-surface $-1 0 0 7.4288773938300565 0 0 1 1 0 0 forward_v I I I I #
coedge $-1 $598 $599 $600 $601 reversed $251 $-1 #
coedge $-1 $602 $253 $255 $418 forward $157 $-1 #
coedge $-1 $253 $602 $598 $603 forward $157 $-1 #
coedge $-1 $600 $256 $253 $415 forward $409 $-1 #
edge $-1 $421 10.690203681248416 $604 21.839744420087055 $414 $605 forward 7 unknown #
coedge $-1 $606 $607 $254 $417 forward $596 $-1 #
edge $-1 $608 -31.558978405705272 $420 -24.987708576310503 $416 $609 forward 7 unknown #
edge $-1 $421 -7.6662627750124415 $608 2.7589209654379419e-014 $255 $610 forward 7 unknown #
coedge $-1 $256 $600 $606 $611 forward $409 $-1 #
vertex $-1 $417 $612 #
vertex $-1 $257 $613 #
straight-curve $-1 -26.955177731916152 -71.611968137370539 7.4288773938300565 0 1 0 I I #
coedge $-1 $423 $423 $-1 $614 reversed $260 $-1 #
edge $-1 $615 0 $615 6.2831853071796004 $261 $616 forward 7 unknown #
vertex $-1 $264 $617 #
ellipse-curve $-1 -34.919135402515181 -34.776504882672036 4.1432424791326765 0 -0.85716730853699208 0.51503806187062418 1.5 0 0 1 I I #
coedge $-1 $427 $427 $-1 $618 reversed $267 $-1 #
edge $-1 $619 0 $619 6.2831853071796004 $268 $620 forward 7 unknown #
vertex $-1 $271 $621 #
ellipse-curve $-1 -30.140760800155761 -34.776504882672036 4.1432424791326765 0 -0.85716730853699208 0.51503806187062418 1.5 0 0 1 I I #
face $-1 $-1 $443 $60 $-1 $622 forward single #
loop $-1 $-1 $623 $272 #
plane-surface $-1 0 -36.750713443388705 0 0 1 0 0 0 1 forward_v I I I I #
coedge $-1 $624 $625 $626 $627 reversed $273 $-1 #
coedge $-1 $628 $275 $277 $441 forward $171 $-1 #
coedge $-1 $275 $628 $624 $629 forward $171 $-1 #
coedge $-1 $626 $278 $275 $438 forward $443 $-1 #
edge $-1 $445 -2.7873851847096542 $630 8.3621555541289805 $437 $631 forward 7 unknown #
coedge $-1 $632 $633 $276 $440 forward $432 $-1 #
edge $-1 $634 -31.558978405705272 $444 -24.987708576310503 $439 $635 forward 7 unknown #
edge $-1 $445 -7.6662627750124415 $634 2.7589209654379419e-014 $277 $636 forward 7 unknown #
coedge $-1 $278 $626 $632 $637 forward $443 $-1 #
loop $-1 $-1 $626 $431 #
vertex $-1 $440 $638 #
vertex $-1 $279 $639 #
straight-curve $-1 -8.8817841970012523e-015 -71.611968137370539 7.4288773938300565 0 1 0 I I #
coedge $-1 $447 $447 $-1 $640 reversed $282 $-1 #
edge $-1 $641 0 $641 6.2831853071796004 $283 $642 forward 7 unknown #
vertex $-1 $286 $643 #
ellipse-curve $-1 -7.9639576705990294 -34.776504882672036 4.1432424791326765 0 -0.85716730853699208 0.51503806187062418 1.5 0 0 1 I I #
coedge $-1 $451 $451 $-1 $644 reversed $289 $-1 #
edge $-1 $645 0 $645 6.2831853071796004 $290 $646 forward 7 unknown #
vertex $-1 $293 $647 #
ellipse-curve $-1 -3.1855830682396089 -34.776504882672036 4.1432424791326765 0 -0.85716730853699208 0.51503806187062418 1.5 0 0 1 I I #
face $-1 $-1 $467 $63 $-1 $648 forward single #
loop $-1 $-1 $649 $294 #
plane-surface $-1 0 -36.750713443388705 0 0 1 0 0 0 1 forward_v I I I I #
coedge $-1 $650 $651 $652 $653 reversed $295 $-1 #
coedge $-1 $654 $297 $299 $465 forward $185 $-1 #
coedge $-1 $297 $654 $650 $655 forward $185 $-1 #
coedge $-1 $652 $300 $297 $462 forward $467 $-1 #
edge $-1 $469 -16.264974050667732 $656 -5.1154333118290953 $461 $657 forward 7 unknown #
coedge $-1 $658 $659 $298 $464 forward $456 $-1 #
edge $-1 $660 -31.558978405705272 $468 -24.987708576310503 $463 $661 forward 7 unknown #
edge $-1 $469 -7.6662627750124415 $660 2.7589209654379419e-014 $299 $662 forward 7 unknown #
coedge $-1 $300 $652 $658 $663 forward $467 $-1 #
loop $-1 $-1 $652 $455 #
vertex $-1 $464 $664 #
vertex $-1 $301 $665 #
straight-curve $-1 26.955177731916145 -71.611968137370539 7.4288773938300565 0 1 0 I I #
coedge $-1 $471 $471 $-1 $666 reversed $304 $-1 #
edge $-1 $667 0 $667 6.2831853071796004 $305 $668 forward 7 unknown #
vertex $-1 $308 $669 #
ellipse-curve $-1 18.991220061317122 -34.776504882672036 4.1432424791326765 0 -0.85716730853699208 0.51503806187062418 1.5 0 0 1 I I #
coedge $-1 $475 $475 $-1 $670 reversed $311 $-1 #
edge $-1 $671 0 $671 6.2831853071796004 $312 $672 forward 7 unknown #
vertex $-1 $315 $673 #
ellipse-curve $-1 23.769594663676543 -34.776504882672036 4.1432424791326765 0 -0.85716730853699208 0.51503806187062418 1.5 0 0 1 I I #
face $-1 $-1 $491 $66 $-1 $674 forward single #
loop $-1 $-1 $675 $316 #
plane-surface $-1 0 -36.750713443388705 0 0 1 0 0 0 1 forward_v I I I I #
coedge $-1 $676 $677 $678 $679 reversed $317 $-1 #
coedge $-1 $680 $319 $321 $489 forward $199 $-1 #
coedge $-1 $319 $680 $676 $681 forward $199 $-1 #
coedge $-1 $678 $322 $319 $486 forward $491 $-1 #
edge $-1 $493 -29.742562916625808 $682 -18.593022177787169 $485 $683 forward 7 unknown #
coedge $-1 $684 $685 $320 $488 forward $480 $-1 #
edge $-1 $686 -31.558978405705272 $492 -24.987708576310503 $487 $687 forward 7 unknown #
edge $-1 $493 -7.6662627750124415 $686 2.7589209654379419e-014 $321 $688 forward 7 unknown #
coedge $-1 $322 $678 $684 $689 forward $491 $-1 #
loop $-1 $-1 $678 $479 #
vertex $-1 $488 $690 #
vertex $-1 $323 $691 #
straight-curve $-1 53.910355463832296 -71.611968137370539 7.4288773938300565 0 1 0 I I #
coedge $-1 $495 $495 $-1 $692 reversed $326 $-1 #
edge $-1 $693 0 $693 6.2831853071796004 $327 $694 forward 7 unknown #
vertex $-1 $330 $695 #
ellipse-curve $-1 45.946397793233274 -34.776504882672036 4.1432424791326765 0 -0.85716730853699208 0.51503806187062418 1.5 0 0 1 I I #
coedge $-1 $499 $499 $-1 $696 reversed $333 $-1 #
edge $-1 $697 0 $697 6.2831853071796004 $334 $698 forward 7 unknown #
vertex $-1 $337 $699 #
ellipse-curve $-1 50.724772395592694 -34.776504882672036 4.1432424791326765 0 -0.85716730853699208 0.51503806187062418 1.5 0 0 1 I I #
face $-1 $-1 $515 $69 $-1 $700 forward single #
loop $-1 $-1 $701 $338 #
plane-surface $-1 0 36.750713443388705 0 0 -1 0 0 0 -1 forward_v I I I I #
coedge $-1 $702 $703 $704 $705 reversed $339 $-1 #
coedge $-1 $706 $341 $343 $513 forward $213 $-1 #
coedge $-1 $341 $706 $702 $707 forward $213 $-1 #
coedge $-1 $704 $344 $341 $510 forward $515 $-1 #
edge $-1 $517 6.6327983194881028 $708 33.729304202725501 $509 $709 forward 7 unknown #
coedge $-1 $710 $711 $342 $512 forward $504 $-1 #
edge $-1 $712 -71.083640730986303 $516 -64.276782251503221 $511 $713 forward 7 unknown #
edge $-1 $517 62.685221831665103 $712 73.501426886777381 $343 $714 forward 7 unknown #
coedge $-1 $344 $704 $710 $715 forward $515 $-1 #
loop $-1 $-1 $704 $503 #
vertex $-1 $512 $716 #
vertex $-1 $345 $717 #
straight-curve $-1 26.813849580594905 28.900273226544634 7.4288773938300636 0 -1 0 I I #
coedge $-1 $519 $519 $-1 $718 reversed $348 $-1 #
edge $-1 $719 0 $719 6.2831853071796004 $349 $720 forward 7 unknown #
vertex $-1 $352 $721 #
ellipse-curve $-1 34.555708404377015 32.547828439176548 4.0254481540885241 0 0.62932039886446345 0.77714595512881146 1.5 0 0 1 I I #
coedge $-1 $523 $523 $-1 $722 reversed $355 $-1 #
edge $-1 $723 0 $723 6.2831853071796004 $356 $724 forward 7 unknown #
vertex $-1 $359 $725 #
ellipse-curve $-1 46.168496640050179 32.547828439176548 4.0254481540885241 0 0.62932039886446345 0.77714595512881146 1.5 0 0 1 I I #
face $-1 $-1 $375 $54 $-1 $726 reversed single #
loop $-1 $-1 $543 $360 #
plane-surface $-1 0 36.750713443388705 0 0 -1 0 0 0 -1 forward_v I I I I #
coedge $-1 $727 $541 $544 $728 forward $361 $-1 #
coedge $-1 $547 $363 $364 $535 reversed $227 $-1 #
coedge $-1 $541 $727 $363 $533 reversed $361 $-1 #
edge $-1 $548 -7.4288773938300565 $729 7.4288773938300565 $532 $730 forward 7 unknown #
coedge $-1 $365 $364 $727 $731 forward $145 $-1 #
edge $-1 $539 -62.107608264412363 $729 62.107608264412363 $531 $732 forward 7 unknown #
coedge $-1 $544 $543 $365 $537 reversed $528 $-1 #
edge $-1 $733 -62.107608264412363 $538 62.107608264412363 $536 $734 forward 7 unknown #
vertex $-1 $367 $735 #
vertex $-1 $550 $736 #
straight-curve $-1 62.107608264412363 0 -7.4288773938300565 0 -1 0 I I #
coedge $-1 $530 $532 $368 $542 reversed $361 $-1 #
edge $-1 $545 -36.750713443388705 $548 36.750713443388705 $541 $737 forward 7 unknown #
coedge $-1 $536 $369 $374 $551 forward $528 $-1 #
coedge $-1 $369 $536 $530 $728 reversed $528 $-1 #
vertex $-1 $370 $738 #
straight-curve $-1 0 36.750713443388705 7.4288773938300565 -1 0 0 I I #
coedge $-1 $371 $531 $373 $550 reversed $227 $-1 #
vertex $-1 $542 $739 #
straight-curve $-1 0 -36.750713443388705 7.4288773938300565 1 0 0 I I #
edge $-1 $376 -7.4288773938300565 $539 7.4288773938300565 $373 $740 forward 7 unknown #
edge $-1 $377 -7.4288773938300565 $538 7.4288773938300565 $374 $741 forward 7 unknown #
point $-1 62.107608264412363 -36.750713443388705 7.4288773938300565 #
point $-1 62.107608264412363 36.750713443388705 7.4288773938300565 #
face $-1 $-1 $567 $55 $-1 $742 reversed single #
loop $-1 $-1 $743 $379 #
plane-surface $-1 -70.304861064992423 0 -4.9698528032663507 1 0 0 0 0 -1 forward_v I I I I #
coedge $-1 $744 $559 $385 $564 reversed $380 $-1 #
coedge $-1 $383 $382 $743 $745 reversed $149 $-1 #
coedge $-1 $557 $746 $382 $560 forward $380 $-1 #
edge $-1 $747 -4.0986264002900299 $562 4.0986264002900299 $382 $748 forward 7 unknown #
edge $-1 $390 -4.0986264002900299 $749 4.0986264002900299 $383 $750 forward 7 unknown #
vertex $-1 $384 $751 #
straight-curve $-1 -62.107608264412363 36.750713443388705 0 0 0 -1 I I #
edge $-1 $568 -36.750713443388705 $562 36.750713443388705 $557 $752 forward 7 unknown #
coedge $-1 $753 $386 $389 $571 reversed $567 $-1 #
coedge $-1 $386 $753 $744 $754 reversed $567 $-1 #
loop $-1 $-1 $386 $554 #
vertex $-1 $387 $755 #
straight-curve $-1 -62.107608264412363 -36.750713443388705 0 0 0 1 I I #
coedge $-1 $389 $388 $756 $757 forward $235 $-1 #
edge $-1 $758 -4.0986264002900299 $391 4.0986264002900299 $565 $759 forward 7 unknown #
point $-1 -62.107608264412363 36.750713443388705 -3.2303569139825861 #
point $-1 -62.107608264412363 -36.750713443388705 -3.2303569139825861 #
face $-1 $-1 $590 $56 $-1 $760 reversed single #
loop $-1 $-1 $761 $393 #
plane-surface $-1 70.304861064992409 0 -4.9698528032663507 -1 0 0 0 0 1 forward_v I I I I #
coedge $-1 $581 $762 $763 $764 forward $394 $-1 #
coedge $-1 $761 $765 $396 $579 reversed $575 $-1 #
edge $-1 $766 -36.750713443388705 $767 36.750713443388705 $578 $768 forward 7 unknown #
coedge $-1 $398 $397 $761 $769 reversed $153 $-1 #
coedge $-1 $586 $577 $397 $582 forward $394 $-1 #
edge $-1 $770 -4.0986264002900299 $584 4.0986264002900299 $397 $771 forward 7 unknown #
edge $-1 $405 -4.0986264002900299 $766 4.0986264002900299 $398 $772 forward 7 unknown #
vertex $-1 $399 $773 #
straight-curve $-1 62.107608264412363 -36.750713443388705 0 0 0 -1 I I #
coedge $-1 $762 $581 $400 $587 reversed $394 $-1 #
edge $-1 $591 -36.750713443388705 $584 36.750713443388705 $586 $774 forward 7 unknown #
coedge $-1 $775 $401 $404 $593 reversed $590 $-1 #
coedge $-1 $401 $775 $762 $776 reversed $590 $-1 #
loop $-1 $-1 $401 $574 #
vertex $-1 $402 $777 #
straight-curve $-1 62.107608264412363 36.750713443388705 0 0 0 1 I I #
edge $-1 $767 -4.0986264002900299 $406 4.0986264002900299 $588 $778 forward 7 unknown #
point $-1 62.107608264412349 -36.750713443388705 -3.2303569139825861 #
point $-1 62.107608264412349 36.750713443388705 -3.2303569139825861 #
loop $-1 $-1 $416 $408 #
plane-surface $-1 0 -36.750713443388705 0 0 1 0 0 0 1 forward_v I I I I #
coedge $-1 $599 $411 $413 $603 reversed $251 $-1 #
coedge $-1 $411 $598 $779 $780 reversed $251 $-1 #
coedge $-1 $419 $414 $411 $601 forward $409 $-1 #
edge $-1 $604 -38.809671815415172 $781 -34.861254693981834 $600 $782 forward 7 unknown #
coedge $-1 $413 $412 $607 $783 reversed $157 $-1 #
edge $-1 $784 -2.7589209654379419e-014 $604 7.6662627750124415 $598 $785 forward 7 unknown #
vertex $-1 $415 $786 #
straight-curve $-1 -16.264974050667735 -32.802296321955367 7.4288773938300565 -1 0 0 I I #
coedge $-1 $779 $416 $419 $611 reversed $596 $-1 #
coedge $-1 $416 $779 $602 $783 forward $596 $-1 #
vertex $-1 $417 $787 #
straight-curve $-1 -26.955177731916152 -36.750713443388705 32.416585970140559 0 0 1 I I #
straight-curve $-1 -26.955177731916152 -36.75071344338869 0.8576075644353125 0 -0.51503806187062418 -0.85716730853699208 I I #
edge $-1 $781 -38.10471847075479 $420 -26.955177731916152 $606 $788 forward 7 unknown #
point $-1 -26.955177731916152 -36.750713443388705 7.4288773938300565 #
point $-1 -26.955177731916152 -32.802296321955367 7.4288773938300565 #
edge $-1 $789 1 $789 0 $423 $-1 forward 7 unknown #
vertex $-1 $424 $790 #
ellipse-curve $-1 -34.919135402515181 -31.472603234145804 2.1580581577981999 0 -0.85716730853699208 0.51503806187062418 1.5 0 0 1 I I #
point $-1 -33.419135402515181 -34.776504882672043 4.1432424791326827 #
edge $-1 $791 1 $791 0 $427 $-1 forward 7 unknown #
vertex $-1 $428 $792 #
ellipse-curve $-1 -30.140760800155761 -31.472603234145804 2.1580581577981999 0 -0.85716730853699208 0.51503806187062418 1.5 0 0 1 I I #
point $-1 -28.640760800155761 -34.776504882672043 4.1432424791326827 #
plane-surface $-1 0 0 7.4288773938300565 0 0 1 1 0 0 forward_v I I I I #
coedge $-1 $633 $632 $625 $793 forward $432 $-1 #
coedge $-1 $625 $434 $436 $629 reversed $273 $-1 #
coedge $-1 $434 $624 $623 $793 reversed $273 $-1 #
coedge $-1 $442 $437 $434 $627 forward $443 $-1 #
edge $-1 $630 -38.809671815415172 $794 -34.861254693981834 $626 $795 forward 7 unknown #
coedge $-1 $436 $435 $633 $796 reversed $171 $-1 #
edge $-1 $797 -2.7589209654379419e-014 $630 7.6662627750124415 $624 $798 forward 7 unknown #
vertex $-1 $438 $799 #
straight-curve $-1 -2.7873851847096631 -32.802296321955367 7.4288773938300565 -1 0 0 I I #
coedge $-1 $623 $439 $442 $637 reversed $432 $-1 #
coedge $-1 $439 $623 $628 $796 forward $432 $-1 #
vertex $-1 $440 $800 #
straight-curve $-1 -8.8817841970012523e-015 -36.750713443388705 32.416585970140559 0 0 1 I I #
straight-curve $-1 -8.8817841970012523e-015 -36.75071344338869 0.8576075644353125 0 -0.51503806187062418 -0.85716730853699208 I I #
edge $-1 $794 -11.149540738838644 $444 -8.8817841970012523e-015 $632 $801 forward 7 unknown #
point $-1 -8.8817841970012523e-015 -36.750713443388705 7.4288773938300565 #
point $-1 -8.8817841970012523e-015 -32.802296321955367 7.4288773938300565 #
edge $-1 $802 1 $802 0 $447 $-1 forward 7 unknown #
vertex $-1 $448 $803 #
ellipse-curve $-1 -7.9639576705990294 -31.472603234145804 2.1580581577981999 0 -0.85716730853699208 0.51503806187062418 1.5 0 0 1 I I #
point $-1 -6.4639576705990294 -34.776504882672043 4.1432424791326827 #
edge $-1 $804 1 $804 0 $451 $-1 forward 7 unknown #
vertex $-1 $452 $805 #
ellipse-curve $-1 -3.1855830682396089 -31.472603234145804 2.1580581577981999 0 -0.85716730853699208 0.51503806187062418 1.5 0 0 1 I I #
point $-1 -1.6855830682396089 -34.776504882672043 4.1432424791326827 #
plane-surface $-1 0 0 7.4288773938300565 0 0 1 1 0 0 forward_v I I I I #
coedge $-1 $659 $658 $651 $806 forward $456 $-1 #
coedge $-1 $651 $458 $460 $655 reversed $295 $-1 #
coedge $-1 $458 $650 $649 $806 reversed $295 $-1 #
coedge $-1 $466 $461 $458 $653 forward $467 $-1 #
edge $-1 $656 -38.809671815415172 $807 -34.861254693981834 $652 $808 forward 7 unknown #
coedge $-1 $460 $459 $659 $809 reversed $185 $-1 #
edge $-1 $810 -2.7589209654379419e-014 $656 7.6662627750124415 $650 $811 forward 7 unknown #
vertex $-1 $462 $812 #
straight-curve $-1 10.690203681248413 -32.802296321955367 7.4288773938300565 -1 0 0 I I #
coedge $-1 $649 $463 $466 $663 reversed $456 $-1 #
coedge $-1 $463 $649 $654 $809 forward $456 $-1 #
vertex $-1 $464 $813 #
straight-curve $-1 26.955177731916145 -36.750713443388705 32.416585970140559 0 0 1 I I #
straight-curve $-1 26.955177731916145 -36.75071344338869 0.8576075644353125 0 -0.51503806187062418 -0.85716730853699208 I I #
edge $-1 $807 15.805636993077508 $468 26.955177731916145 $658 $814 forward 7 unknown #
point $-1 26.955177731916145 -36.750713443388705 7.4288773938300565 #
point $-1 26.955177731916145 -32.802296321955367 7.4288773938300565 #
edge $-1 $815 1 $815 0 $471 $-1 forward 7 unknown #
vertex $-1 $472 $816 #
ellipse-curve $-1 18.991220061317122 -31.472603234145804 2.1580581577981999 0 -0.85716730853699208 0.51503806187062418 1.5 0 0 1 I I #
point $-1 20.491220061317122 -34.776504882672043 4.1432424791326827 #
edge $-1 $817 1 $817 0 $475 $-1 forward 7 unknown #
vertex $-1 $476 $818 #
ellipse-curve $-1 23.769594663676543 -31.472603234145804 2.1580581577981999 0 -0.85716730853699208 0.51503806187062418 1.5 0 0 1 I I #
point $-1 25.269594663676543 -34.776504882672043 4.1432424791326827 #
plane-surface $-1 0 0 7.4288773938300565 0 0 1 1 0 0 forward_v I I I I #
coedge $-1 $685 $684 $677 $819 forward $480 $-1 #
coedge $-1 $677 $482 $484 $681 reversed $317 $-1 #
coedge $-1 $482 $676 $675 $819 reversed $317 $-1 #
coedge $-1 $490 $485 $482 $679 forward $491 $-1 #
edge $-1 $682 -38.809671815415172 $820 -34.861254693981834 $678 $821 forward 7 unknown #
coedge $-1 $484 $483 $685 $822 reversed $199 $-1 #
edge $-1 $823 -2.7589209654379419e-014 $682 7.6662627750124415 $676 $824 forward 7 unknown #
vertex $-1 $486 $825 #
straight-curve $-1 24.167792547206489 -32.802296321955367 7.4288773938300565 -1 0 0 I I #
coedge $-1 $675 $487 $490 $689 reversed $480 $-1 #
coedge $-1 $487 $675 $680 $822 forward $480 $-1 #
vertex $-1 $488 $826 #
straight-curve $-1 53.910355463832296 -36.750713443388705 32.416585970140559 0 0 1 I I #
straight-curve $-1 53.910355463832296 -36.75071344338869 0.8576075644353125 0 -0.51503806187062418 -0.85716730853699208 I I #
edge $-1 $820 42.760814724993658 $492 53.910355463832296 $684 $827 forward 7 unknown #
point $-1 53.910355463832296 -36.750713443388705 7.4288773938300565 #
point $-1 53.910355463832296 -32.802296321955367 7.4288773938300565 #
edge $-1 $828 1 $828 0 $495 $-1 forward 7 unknown #
vertex $-1 $496 $829 #
ellipse-curve $-1 45.946397793233274 -31.472603234145804 2.1580581577981999 0 -0.85716730853699208 0.51503806187062418 1.5 0 0 1 I I #
point $-1 47.446397793233274 -34.776504882672043 4.1432424791326827 #
edge $-1 $830 1 $830 0 $499 $-1 forward 7 unknown #
vertex $-1 $500 $831 #
ellipse-curve $-1 50.724772395592694 -31.472603234145804 2.1580581577981999 0 -0.85716730853699208 0.51503806187062418 1.5 0 0 1 I I #
point $-1 52.224772395592694 -34.776504882672043 4.1432424791326827 #
plane-surface $-1 0 0 7.4288773938300565 0 0 1 1 0 0 forward_v I I I I #
coedge $-1 $711 $710 $703 $832 forward $504 $-1 #
coedge $-1 $703 $506 $508 $707 reversed $339 $-1 #
coedge $-1 $506 $702 $701 $832 reversed $339 $-1 #
coedge $-1 $514 $509 $506 $705 forward $515 $-1 #
edge $-1 $708 -0.55532979158023466 $833 7.8504402168440706 $704 $834 forward 7 unknown #
coedge $-1 $508 $507 $711 $835 reversed $213 $-1 #
edge $-1 $836 -73.501426886777381 $708 -62.685221831665103 $702 $837 forward 7 unknown #
vertex $-1 $510 $838 #
straight-curve $-1 20.181051261106802 28.344943434964399 7.428877393830053 1 0 0 I I #
coedge $-1 $701 $511 $514 $715 reversed $504 $-1 #
coedge $-1 $511 $701 $706 $835 forward $504 $-1 #
vertex $-1 $512 $839 #
straight-curve $-1 26.813849580594905 36.750713443388705 71.70565964533327 0 0 1 I I #
straight-curve $-1 26.813849580594905 -20.370623157866405 46.877966199840913 0 0.77714595512881146 -0.62932039886446345 I I #
edge $-1 $833 -53.910355463832303 $516 -26.813849580594905 $710 $840 forward 7 unknown #
point $-1 26.813849580594905 36.750713443388705 7.4288773938300565 #
point $-1 26.813849580594905 28.344943434964399 7.4288773938300565 #
edge $-1 $841 1 $841 0 $519 $-1 forward 7 unknown #
vertex $-1 $520 $842 #
ellipse-curve $-1 34.555708404377015 31.52710098233732 2.7649547459567323 0 0.62932039886446345 0.77714595512881146 1.5 0 0 1 I I #
point $-1 36.055708404377015 32.54782843917652 4.0254481540884921 #
edge $-1 $843 1 $843 0 $523 $-1 forward 7 unknown #
vertex $-1 $524 $844 #
ellipse-curve $-1 46.168496640050179 31.52710098233732 2.7649547459567323 0 0.62932039886446345 0.77714595512881146 1.5 0 0 1 I I #
point $-1 47.668496640050179 32.54782843917652 4.0254481540884921 #
plane-surface $-1 62.107608264412363 0 0 -1 0 0 0 0 1 forward_v I I I I #
coedge $-1 $532 $530 $534 $731 reversed $361 $-1 #
edge $-1 $545 -7.4288773938300565 $733 7.4288773938300565 $544 $845 forward 7 unknown #
vertex $-1 $731 $846 #
straight-curve $-1 -62.107608264412363 -36.750713443388705 0 0 0 -1 I I #
edge $-1 $729 -36.750713443388705 $733 36.750713443388705 $727 $847 forward 7 unknown #
straight-curve $-1 0 -36.750713443388705 -7.4288773938300565 -1 0 0 I I #
vertex $-1 $537 $848 #
straight-curve $-1 0 36.750713443388705 -7.4288773938300565 1 0 0 I I #
point $-1 62.107608264412363 36.750713443388705 -7.4288773938300565 #
point $-1 62.107608264412363 -36.750713443388705 -7.4288773938300565 #
straight-curve $-1 -62.107608264412363 0 7.4288773938300565 0 -1 0 I I #
point $-1 -62.107608264412363 36.750713443388705 7.4288773938300565 #
point $-1 -62.107608264412363 -36.750713443388705 7.4288773938300565 #
straight-curve $-1 62.107608264412363 -36.750713443388705 0 0 0 -1 I I #
straight-curve $-1 62.107608264412363 36.750713443388705 0 0 0 -1 I I #
plane-surface $-1 0 -36.750713443388705 0 0 1 0 0 0 1 forward_v I I I I #
coedge $-1 $849 $756 $558 $745 forward $555 $-1 #
coedge $-1 $746 $557 $566 $754 forward $380 $-1 #
edge $-1 $749 -1.7394958892837646 $747 1.7394958892837646 $558 $850 forward 7 unknown #
coedge $-1 $559 $744 $849 $851 forward $380 $-1 #
vertex $-1 $560 $852 #
straight-curve $-1 -66.206234664702393 36.750713443388705 -6.7093486925501153 1 0 0 I I #
vertex $-1 $561 $853 #
straight-curve $-1 -66.206234664702393 36.750713443388705 -3.2303569139825861 -1 0 0 I I #
point $-1 -62.107608264412363 36.750713443388705 -6.7093486925501153 #
straight-curve $-1 -62.107608264412363 0 -6.7093486925501153 0 1 0 I I #
coedge $-1 $566 $565 $854 $855 forward $567 $-1 #
edge $-1 $568 -4.0986264002900299 $856 4.0986264002900299 $566 $857 forward 7 unknown #
point $-1 -62.107608264412363 -36.750713443388705 -6.7093486925501153 #
coedge $-1 $743 $854 $570 $757 reversed $555 $-1 #
edge $-1 $749 -36.750713443388705 $758 36.750713443388705 $756 $858 forward 7 unknown #
vertex $-1 $757 $859 #
straight-curve $-1 -66.206234664702393 -36.750713443388705 -3.2303569139825861 1 0 0 I I #
plane-surface $-1 0 36.750713443388705 0 0 -1 0 0 0 -1 forward_v I I I I #
coedge $-1 $763 $578 $580 $769 forward $575 $-1 #
coedge $-1 $577 $586 $589 $776 forward $394 $-1 #
coedge $-1 $765 $761 $577 $764 reversed $575 $-1 #
edge $-1 $860 -36.750713443388705 $770 36.750713443388705 $763 $861 forward 7 unknown #
coedge $-1 $578 $763 $775 $862 reversed $575 $-1 #
vertex $-1 $579 $863 #
vertex $-1 $579 $864 #
straight-curve $-1 70.304861064992409 0 -3.2303569139825861 0 1 0 I I #
edge $-1 $766 -1.7394958892837646 $770 1.7394958892837646 $761 $865 forward 7 unknown #
vertex $-1 $769 $866 #
straight-curve $-1 66.206234664702379 -36.750713443388705 -6.7093486925501153 -1 0 0 I I #
straight-curve $-1 66.206234664702379 -36.750713443388705 -3.2303569139825861 1 0 0 I I #
point $-1 62.107608264412349 -36.750713443388705 -6.7093486925501153 #
straight-curve $-1 62.107608264412363 0 -6.7093486925501153 0 -1 0 I I #
coedge $-1 $589 $588 $765 $862 forward $590 $-1 #
edge $-1 $591 -4.0986264002900299 $860 4.0986264002900299 $589 $867 forward 7 unknown #
point $-1 62.107608264412349 36.750713443388705 -6.7093486925501153 #
straight-curve $-1 66.206234664702379 36.750713443388705 -3.2303569139825861 -1 0 0 I I #
coedge $-1 $607 $606 $599 $780 forward $596 $-1 #
edge $-1 $781 24.987708576310503 $784 31.558978405705272 $779 $868 forward 7 unknown #
vertex $-1 $611 $869 #
straight-curve $-1 -38.10471847075479 -71.611968137370539 7.4288773938300565 0 -1 0 I I #
edge $-1 $784 -21.839744420087055 $608 -10.690203681248416 $607 $870 forward 7 unknown #
vertex $-1 $783 $871 #
straight-curve $-1 -38.10471847075479 -36.75071344338869 0.8576075644353125 0 0.51503806187062418 0.85716730853699208 I I #
point $-1 -38.10471847075479 -32.802296321955367 7.4288773938300565 #
point $-1 -26.955177731916152 -36.750713443388705 0.85760756443528885 #
straight-curve $-1 0 -36.750713443388705 7.4288773938300565 1 0 0 I I #
vertex $-1 $614 $872 #
point $-1 -33.419135402515181 -31.472603234145804 2.1580581577981999 #
vertex $-1 $618 $873 #
point $-1 -28.640760800155761 -31.472603234145804 2.1580581577981999 #
edge $-1 $794 24.987708576310503 $797 31.558978405705272 $623 $874 forward 7 unknown #
vertex $-1 $637 $875 #
straight-curve $-1 -11.149540738838644 -71.611968137370539 7.4288773938300565 0 -1 0 I I #
edge $-1 $797 -8.3621555541289805 $634 2.7873851847096542 $633 $876 forward 7 unknown #
vertex $-1 $796 $877 #
straight-curve $-1 -11.149540738838644 -36.75071344338869 0.8576075644353125 0 0.51503806187062418 0.85716730853699208 I I #
point $-1 -11.149540738838644 -32.802296321955367 7.4288773938300565 #
point $-1 -8.8817841970012523e-015 -36.750713443388705 0.85760756443528885 #
straight-curve $-1 0 -36.750713443388705 7.4288773938300565 1 0 0 I I #
vertex $-1 $640 $878 #
point $-1 -6.4639576705990294 -31.472603234145804 2.1580581577981999 #
vertex $-1 $644 $879 #
point $-1 -1.6855830682396089 -31.472603234145804 2.1580581577981999 #
edge $-1 $807 24.987708576310503 $810 31.558978405705272 $649 $880 forward 7 unknown #
vertex $-1 $663 $881 #
straight-curve $-1 15.805636993077508 -71.611968137370539 7.4288773938300565 0 -1 0 I I #
edge $-1 $810 5.1154333118290953 $660 16.264974050667732 $659 $882 forward 7 unknown #
vertex $-1 $809 $883 #
straight-curve $-1 15.805636993077508 -36.75071344338869 0.8576075644353125 0 0.51503806187062418 0.85716730853699208 I I #
point $-1 15.805636993077508 -32.802296321955367 7.4288773938300565 #
point $-1 26.955177731916145 -36.750713443388705 0.85760756443528885 #
straight-curve $-1 0 -36.750713443388705 7.4288773938300565 1 0 0 I I #
vertex $-1 $666 $884 #
point $-1 20.491220061317122 -31.472603234145804 2.1580581577981999 #
vertex $-1 $670 $885 #
point $-1 25.269594663676543 -31.472603234145804 2.1580581577981999 #
edge $-1 $820 24.987708576310503 $823 31.558978405705272 $675 $886 forward 7 unknown #
vertex $-1 $689 $887 #
straight-curve $-1 42.760814724993658 -71.611968137370539 7.4288773938300565 0 -1 0 I I #
edge $-1 $823 18.593022177787169 $686 29.742562916625808 $685 $888 forward 7 unknown #
vertex $-1 $822 $889 #
straight-curve $-1 42.760814724993658 -36.75071344338869 0.8576075644353125 0 0.51503806187062418 0.85716730853699208 I I #
point $-1 42.760814724993658 -32.802296321955367 7.4288773938300565 #
point $-1 53.910355463832296 -36.750713443388705 0.85760756443528885 #
straight-curve $-1 0 -36.750713443388705 7.4288773938300565 1 0 0 I I #
vertex $-1 $692 $890 #
point $-1 47.446397793233274 -31.472603234145804 2.1580581577981999 #
vertex $-1 $696 $891 #
point $-1 52.224772395592694 -31.472603234145804 2.1580581577981999 #
edge $-1 $833 64.276782251503221 $836 71.083640730986303 $701 $892 forward 7 unknown #
vertex $-1 $715 $893 #
straight-curve $-1 53.910355463832303 28.900273226544634 7.4288773938300636 0 1 0 I I #
edge $-1 $836 -33.729304202725501 $712 -6.6327983194881028 $711 $894 forward 7 unknown #
vertex $-1 $835 $895 #
straight-curve $-1 53.910355463832303 -20.370623157866405 46.877966199840913 0 -0.77714595512881146 0.62932039886446345 I I #
point $-1 53.910355463832303 28.344943434964399 7.4288773938300565 #
point $-1 26.813849580594905 36.750713443388705 0.62201891434697387 #
straight-curve $-1 0 36.750713443388705 7.4288773938300565 -1 0 0 I I #
vertex $-1 $718 $896 #
point $-1 36.055708404377015 31.52710098233732 2.7649547459567323 #
vertex $-1 $722 $897 #
point $-1 47.668496640050179 31.52710098233732 2.7649547459567323 #
straight-curve $-1 -62.107608264412363 36.750713443388705 0 0 0 -1 I I #
point $-1 -62.107608264412363 -36.750713443388705 -7.4288773938300565 #
straight-curve $-1 -62.107608264412363 0 -7.4288773938300565 0 1 0 I I #
point $-1 -62.107608264412363 36.750713443388705 -7.4288773938300565 #
coedge $-1 $854 $743 $746 $851 reversed $555 $-1 #
straight-curve $-1 -70.304861064992423 36.750713443388705 -4.9698528032663507 0 0 -1 I I #
edge $-1 $856 -36.750713443388705 $747 36.750713443388705 $849 $898 forward 7 unknown #
point $-1 -70.304861064992423 36.750713443388705 -6.7093486925501153 #
point $-1 -70.304861064992423 36.750713443388705 -3.2303569139825861 #
coedge $-1 $756 $849 $753 $855 reversed $555 $-1 #
edge $-1 $758 -1.7394958892837646 $856 1.7394958892837646 $854 $899 forward 7 unknown #
vertex $-1 $851 $900 #
straight-curve $-1 -66.206234664702393 -36.750713443388705 -6.7093486925501153 -1 0 0 I I #
straight-curve $-1 -70.304861064992423 0 -3.2303569139825861 0 -1 0 I I #
point $-1 -70.304861064992423 -36.750713443388705 -3.2303569139825861 #
vertex $-1 $764 $901 #
straight-curve $-1 70.304861064992409 0 -6.7093486925501153 0 -1 0 I I #
edge $-1 $767 -1.7394958892837646 $860 1.7394958892837646 $765 $902 forward 7 unknown #
point $-1 70.304861064992409 -36.750713443388705 -3.2303569139825861 #
point $-1 70.304861064992409 36.750713443388705 -3.2303569139825861 #
straight-curve $-1 70.304861064992409 -36.750713443388705 -4.9698528032663507 0 0 -1 I I #
point $-1 70.304861064992409 -36.750713443388705 -6.7093486925501153 #
straight-curve $-1 66.206234664702379 36.750713443388705 -6.7093486925501153 1 0 0 I I #
straight-curve $-1 -38.10471847075479 -36.750713443388705 32.416585970140559 0 0 -1 I I #
point $-1 -38.10471847075479 -36.750713443388705 7.4288773938300565 #
straight-curve $-1 -16.264974050667735 -36.750713443388705 0.85760756443528829 1 0 0 I I #
point $-1 -38.10471847075479 -36.750713443388705 0.85760756443528885 #
point $-1 -34.919135402515181 -30.186852271340317 1.3855010649922637 #
point $-1 -30.140760800155761 -30.186852271340317 1.3855010649922637 #
straight-curve $-1 -11.149540738838644 -36.750713443388705 32.416585970140559 0 0 -1 I I #
point $-1 -11.149540738838644 -36.750713443388705 7.4288773938300565 #
straight-curve $-1 -2.7873851847096631 -36.750713443388705 0.85760756443528829 1 0 0 I I #
point $-1 -11.149540738838644 -36.750713443388705 0.85760756443528885 #
point $-1 -7.9639576705990294 -30.186852271340317 1.3855010649922637 #
point $-1 -3.1855830682396089 -30.186852271340317 1.3855010649922637 #
straight-curve $-1 15.805636993077508 -36.750713443388705 32.416585970140559 0 0 -1 I I #
point $-1 15.805636993077508 -36.750713443388705 7.4288773938300565 #
straight-curve $-1 10.690203681248413 -36.750713443388705 0.85760756443528829 1 0 0 I I #
point $-1 15.805636993077508 -36.750713443388705 0.85760756443528885 #
point $-1 18.991220061317122 -30.186852271340317 1.3855010649922637 #
point $-1 23.769594663676543 -30.186852271340317 1.3855010649922637 #
straight-curve $-1 42.760814724993658 -36.750713443388705 32.416585970140559 0 0 -1 I I #
point $-1 42.760814724993658 -36.750713443388705 7.4288773938300565 #
straight-curve $-1 24.167792547206489 -36.750713443388705 0.85760756443528829 1 0 0 I I #
point $-1 42.760814724993658 -36.750713443388705 0.85760756443528885 #
point $-1 45.946397793233274 -30.186852271340317 1.3855010649922637 #
point $-1 50.724772395592694 -30.186852271340317 1.3855010649922637 #
straight-curve $-1 53.910355463832303 36.750713443388705 71.70565964533327 0 0 -1 I I #
point $-1 53.910355463832303 36.750713443388705 7.4288773938300565 #
straight-curve $-1 20.181051261106802 36.750713443388705 0.62201891434697387 -1 0 0 I I #
point $-1 53.910355463832303 36.750713443388705 0.62201891434697387 #
point $-1 34.555708404377015 30.583120384040622 1.5992358132635154 #
point $-1 46.168496640050179 30.583120384040622 1.5992358132635154 #
straight-curve $-1 -70.304861064992423 0 -6.7093486925501153 0 1 0 I I #
straight-curve $-1 -70.304861064992423 -36.750713443388705 -4.9698528032663507 0 0 -1 I I #
point $-1 -70.304861064992423 -36.750713443388705 -6.7093486925501153 #
point $-1 70.304861064992409 36.750713443388705 -6.7093486925501153 #
straight-curve $-1 70.304861064992409 36.750713443388705 -4.9698528032663507 0 0 -1 I I #
End-of-ACIS-data 