500 0 17 0           
7 Unknown 11 ACIS 5.0 NT 24 Thu Mar 25 15:31:22 1999 
-1 9.9999999999999995e-007 1e-010 
body $-1 $17 $-1 $18 #
body $-1 $19 $-1 $20 #
body $-1 $21 $-1 $22 #
body $-1 $23 $-1 $24 #
body $-1 $25 $-1 $26 #
body $-1 $27 $-1 $28 #
body $-1 $29 $-1 $30 #
body $-1 $31 $-1 $32 #
body $-1 $33 $-1 $34 #
body $-1 $35 $-1 $36 #
body $-1 $37 $-1 $38 #
body $-1 $39 $-1 $40 #
body $-1 $41 $-1 $42 #
body $-1 $43 $-1 $44 #
body $-1 $45 $-1 $46 #
body $-1 $47 $-1 $48 #
body $-1 $49 $-1 $50 #
lump $-1 $-1 $51 $0 #
transform $-1 1 0 0 0 1 0 0 0 1 67.550889614551224 44.830932210332158 21.706205103004262 1 rotate no_reflect no_shear #
lump $-1 $-1 $52 $1 #
transform $-1 1 0 0 0 1 0 0 0 1 67.550889614551224 44.830932210332158 21.706205103004262 1 rotate no_reflect no_shear #
lump $-1 $-1 $53 $2 #
transform $-1 1 0 0 0 1 0 0 0 1 67.550889614551224 44.830932210332158 21.706205103004262 1 rotate no_reflect no_shear #
lump $-1 $-1 $54 $3 #
transform $-1 1 0 0 0 1 0 0 0 1 67.550889614551224 44.830932210332158 21.706205103004262 1 rotate no_reflect no_shear #
lump $-1 $-1 $55 $4 #
transform $-1 1 0 0 0 1 0 0 0 1 67.550889614551224 44.830932210332158 21.706205103004262 1 rotate no_reflect no_shear #
lump $-1 $-1 $56 $5 #
transform $-1 1 0 0 0 1 0 0 0 1 67.550889614551224 44.830932210332158 21.706205103004262 1 rotate no_reflect no_shear #
lump $-1 $-1 $57 $6 #
transform $-1 1 0 0 0 1 0 0 0 1 67.550889614551224 44.830932210332158 21.706205103004262 1 rotate no_reflect no_shear #
lump $-1 $-1 $58 $7 #
transform $-1 1 0 0 0 1 0 0 0 1 67.550889614551224 44.830932210332158 21.706205103004262 1 rotate no_reflect no_shear #
lump $-1 $-1 $59 $8 #
transform $-1 1 0 0 0 1 0 0 0 1 67.550889614551224 44.830932210332158 21.706205103004262 1 rotate no_reflect no_shear #
lump $-1 $-1 $60 $9 #
transform $-1 1 0 0 0 1 0 0 0 1 67.550889614551224 44.830932210332158 21.706205103004262 1 rotate no_reflect no_shear #
lump $-1 $-1 $61 $10 #
transform $-1 1 0 0 0 1 0 0 0 1 67.550889614551224 44.830932210332158 21.706205103004262 1 rotate no_reflect no_shear #
lump $-1 $-1 $62 $11 #
transform $-1 1 0 0 0 1 0 0 0 1 67.550889614551224 44.830932210332158 21.706205103004262 1 rotate no_reflect no_shear #
lump $-1 $-1 $63 $12 #
transform $-1 1 0 0 0 1 0 0 0 1 67.550889614551224 44.830932210332158 21.706205103004262 1 rotate no_reflect no_shear #
lump $-1 $-1 $64 $13 #
transform $-1 1 0 0 0 1 0 0 0 1 67.550889614551224 44.830932210332158 21.706205103004262 1 rotate no_reflect no_shear #
lump $-1 $-1 $65 $14 #
transform $-1 1 0 0 0 1 0 0 0 1 67.550889614551224 44.830932210332158 21.706205103004262 1 rotate no_reflect no_shear #
lump $-1 $-1 $66 $15 #
transform $-1 1 0 0 0 1 0 0 0 1 67.550889614551224 44.830932210332158 21.706205103004262 1 rotate no_reflect no_shear #
lump $-1 $-1 $67 $16 #
transform $-1 1 0 0 0 1 0 0 0 1 67.550889614551224 44.830932210332158 21.706205103004262 1 rotate no_reflect no_shear #
shell $-1 $-1 $-1 $68 $-1 $17 #
shell $-1 $-1 $-1 $69 $-1 $19 #
shell $-1 $-1 $-1 $70 $-1 $21 #
shell $-1 $-1 $-1 $71 $-1 $23 #
shell $-1 $-1 $-1 $72 $-1 $25 #
shell $-1 $-1 $-1 $73 $-1 $27 #
shell $-1 $-1 $-1 $74 $-1 $29 #
shell $-1 $-1 $-1 $75 $-1 $31 #
shell $-1 $-1 $-1 $76 $-1 $33 #
shell $-1 $-1 $-1 $77 $-1 $35 #
shell $-1 $-1 $-1 $78 $-1 $37 #
shell $-1 $-1 $-1 $79 $-1 $39 #
shell $-1 $-1 $-1 $80 $-1 $41 #
shell $-1 $-1 $-1 $81 $-1 $43 #
shell $-1 $-1 $-1 $82 $-1 $45 #
shell $-1 $-1 $-1 $83 $-1 $47 #
shell $-1 $-1 $-1 $84 $-1 $49 #
face $-1 $85 $86 $51 $-1 $87 forward single #
face $-1 $88 $89 $52 $-1 $90 reversed single #
face $-1 $91 $92 $53 $-1 $93 forward single #
face $-1 $94 $95 $54 $-1 $96 forward single #
face $-1 $97 $98 $55 $-1 $99 forward single #
face $-1 $100 $101 $56 $-1 $102 reversed single #
face $-1 $103 $104 $57 $-1 $105 forward single #
face $-1 $106 $107 $58 $-1 $108 forward single #
face $-1 $109 $110 $59 $-1 $111 forward single #
face $-1 $112 $113 $60 $-1 $114 reversed single #
face $-1 $115 $116 $61 $-1 $117 forward single #
face $-1 $118 $119 $62 $-1 $120 forward single #
face $-1 $121 $122 $63 $-1 $123 forward single #
face $-1 $124 $125 $64 $-1 $126 reversed single #
face $-1 $127 $128 $65 $-1 $129 forward single #
face $-1 $130 $131 $66 $-1 $132 forward single #
face $-1 $133 $134 $67 $-1 $135 forward single #
face $-1 $136 $137 $51 $-1 $138 reversed single #
loop $-1 $-1 $139 $68 #
plane-surface $-1 0 0 21.706205103004262 0 0 1 1 0 0 forward_v I I I I #
face $-1 $140 $141 $52 $-1 $142 reversed single #
loop $-1 $-1 $143 $69 #
plane-surface $-1 -47.752508563506467 93.398696778682108 167.76566168684411 1 0 0 0 -0.77714596973225614 -0.62932038083071107 forward_v I I I I #
face $-1 $144 $145 $53 $-1 $146 forward single #
loop $-1 $147 $148 $70 #
cone-surface $-1 -41.925365597513292 39.314938180035789 15.751730616187039 0 -0.77714596973225614 -0.62932038083071107 1.5 0 0 1 I I 0 1 1.5 forward I I I I #
face $-1 $149 $150 $54 $-1 $151 forward single #
loop $-1 $152 $153 $71 #
cone-surface $-1 -33.184651148523535 39.314938180035789 15.751730616187039 0 -0.77714596973225614 -0.62932038083071107 1.5 0 0 1 I I 0 1 1.5 forward I I I I #
face $-1 $154 $155 $55 $-1 $156 forward single #
loop $-1 $157 $158 $72 #
cone-surface $-1 -24.443936699533779 39.314938180035789 15.751730616187039 0 -0.77714596973225614 -0.62932038083071107 1.5 0 0 1 I I 0 1 1.5 forward I I I I #
face $-1 $159 $160 $56 $-1 $161 reversed single #
loop $-1 $-1 $162 $73 #
plane-surface $-1 19.798381051044757 93.398696778682108 167.76566168684411 1 0 0 0 -0.77714596973225614 -0.62932038083071107 forward_v I I I I #
face $-1 $163 $164 $57 $-1 $165 forward single #
loop $-1 $166 $167 $74 #
cone-surface $-1 25.625524017037932 39.314938180035789 15.751730616187039 0 -0.77714596973225614 -0.62932038083071107 1.5 0 0 1 I I 0 1 1.5 forward I I I I #
face $-1 $168 $169 $58 $-1 $170 forward single #
loop $-1 $171 $172 $75 #
cone-surface $-1 34.366238466027696 39.314938180035789 15.751730616187039 0 -0.77714596973225614 -0.62932038083071107 1.5 0 0 1 I I 0 1 1.5 forward I I I I #
face $-1 $173 $174 $59 $-1 $175 forward single #
loop $-1 $176 $177 $76 #
cone-surface $-1 43.106952915017445 39.314938180035789 15.751730616187039 0 -0.77714596973225614 -0.62932038083071107 1.5 0 0 1 I I 0 1 1.5 forward I I I I #
face $-1 $178 $179 $60 $-1 $180 reversed single #
loop $-1 $-1 $181 $77 #
plane-surface $-1 -18.616793733540618 -149.82473544188616 98.085305113644864 -1 0 0 0 -0.77714596973225614 0.62932038083071107 forward_v I I I I #
face $-1 $182 $183 $61 $-1 $184 forward single #
loop $-1 $185 $186 $78 #
cone-surface $-1 -41.925365597513292 -39.314938180035782 15.751730616187039 0 0.77714596973225614 -0.62932038083071107 1.5 0 0 1 I I 0 1 1.5 forward I I I I #
face $-1 $187 $188 $62 $-1 $189 forward single #
loop $-1 $190 $191 $79 #
cone-surface $-1 -33.184651148523535 -39.314938180035782 15.751730616187039 0 0.77714596973225614 -0.62932038083071107 1.5 0 0 1 I I 0 1 1.5 forward I I I I #
face $-1 $192 $193 $63 $-1 $194 forward single #
loop $-1 $195 $196 $80 #
cone-surface $-1 -24.443936699533779 -39.314938180035782 15.751730616187039 0 0.77714596973225614 -0.62932038083071107 1.5 0 0 1 I I 0 1 1.5 forward I I I I #
face $-1 $197 $198 $64 $-1 $199 reversed single #
loop $-1 $-1 $200 $81 #
plane-surface $-1 48.934095881010606 -149.82473544188616 98.085305113644864 -1 0 0 0 -0.77714596973225614 0.62932038083071107 forward_v I I I I #
face $-1 $201 $202 $65 $-1 $203 forward single #
loop $-1 $204 $205 $82 #
cone-surface $-1 25.625524017037932 -39.314938180035782 15.751730616187039 0 0.77714596973225614 -0.62932038083071107 1.5 0 0 1 I I 0 1 1.5 forward I I I I #
face $-1 $206 $207 $66 $-1 $208 forward single #
loop $-1 $209 $210 $83 #
cone-surface $-1 34.366238466027696 -39.314938180035782 15.751730616187039 0 0.77714596973225614 -0.62932038083071107 1.5 0 0 1 I I 0 1 1.5 forward I I I I #
face $-1 $211 $212 $67 $-1 $213 forward single #
loop $-1 $214 $215 $84 #
cone-surface $-1 43.106952915017445 -39.314938180035782 15.751730616187039 0 0.77714596973225614 -0.62932038083071107 1.5 0 0 1 I I 0 1 1.5 forward I I I I #
face $-1 $216 $217 $51 $-1 $218 reversed single #
loop $-1 $-1 $219 $85 #
plane-surface $-1 0 0 -21.706205103004262 0 0 1 1 0 0 forward_v I I I I #
coedge $-1 $220 $221 $222 $223 forward $86 $-1 #
face $-1 $224 $225 $52 $-1 $226 reversed single #
loop $-1 $-1 $227 $88 #
plane-surface $-1 -33.184651148523542 -11.595106452871889 82.743358531478705 0 0.77714596973225614 0.62932038083071107 1 0 0 forward_v I I I I #
coedge $-1 $228 $229 $230 $231 reversed $89 $-1 #
face $-1 $-1 $232 $53 $-1 $233 forward single #
loop $-1 $234 $235 $91 #
cone-surface $-1 -41.925365597513292 36.715648529478166 13.646867416109178 0 -0.77714596973225614 -0.62932038083071107 0.75 0 0 1 I I -0.70710678118654757 0.70710678118654757 0.75 forward I I I I #
loop $-1 $-1 $236 $70 #
coedge $-1 $148 $148 $237 $238 reversed $92 $-1 #
face $-1 $-1 $239 $54 $-1 $240 forward single #
loop $-1 $241 $242 $94 #
cone-surface $-1 -33.184651148523535 36.715648529478166 13.646867416109178 0 -0.77714596973225614 -0.62932038083071107 0.75 0 0 1 I I -0.70710678118654757 0.70710678118654757 0.75 forward I I I I #
loop $-1 $-1 $243 $71 #
coedge $-1 $153 $153 $244 $245 reversed $95 $-1 #
face $-1 $-1 $246 $55 $-1 $247 forward single #
loop $-1 $248 $249 $97 #
cone-surface $-1 -24.443936699533779 36.715648529478166 13.646867416109178 0 -0.77714596973225614 -0.62932038083071107 0.75 0 0 1 I I -0.70710678118654757 0.70710678118654757 0.75 forward I I I I #
loop $-1 $-1 $250 $72 #
coedge $-1 $158 $158 $251 $252 reversed $98 $-1 #
face $-1 $253 $254 $56 $-1 $255 reversed single #
loop $-1 $-1 $256 $100 #
plane-surface $-1 34.366238466027681 -11.595106452871889 82.743358531478705 0 0.77714596973225614 0.62932038083071107 1 0 0 forward_v I I I I #
coedge $-1 $257 $258 $259 $260 reversed $101 $-1 #
face $-1 $-1 $261 $57 $-1 $262 forward single #
loop $-1 $263 $264 $103 #
cone-surface $-1 25.625524017037932 36.715648529478166 13.646867416109178 0 -0.77714596973225614 -0.62932038083071107 0.75 0 0 1 I I -0.70710678118654757 0.70710678118654757 0.75 forward I I I I #
loop $-1 $-1 $265 $74 #
coedge $-1 $167 $167 $266 $267 reversed $104 $-1 #
face $-1 $-1 $268 $58 $-1 $269 forward single #
loop $-1 $270 $271 $106 #
cone-surface $-1 34.366238466027696 36.715648529478166 13.646867416109178 0 -0.77714596973225614 -0.62932038083071107 0.75 0 0 1 I I -0.70710678118654757 0.70710678118654757 0.75 forward I I I I #
loop $-1 $-1 $272 $75 #
coedge $-1 $172 $172 $273 $274 reversed $107 $-1 #
face $-1 $-1 $275 $59 $-1 $276 forward single #
loop $-1 $277 $278 $109 #
cone-surface $-1 43.106952915017445 36.715648529478166 13.646867416109178 0 -0.77714596973225614 -0.62932038083071107 0.75 0 0 1 I I -0.70710678118654757 0.70710678118654757 0.75 forward I I I I #
loop $-1 $-1 $279 $76 #
coedge $-1 $177 $177 $280 $281 reversed $110 $-1 #
face $-1 $282 $283 $60 $-1 $284 reversed single #
loop $-1 $-1 $285 $112 #
plane-surface $-1 -33.184651148523542 -44.830932210332165 13.063001958279457 0 -0.77714596973225614 0.62932038083071107 1 0 0 forward_v I I I I #
coedge $-1 $286 $287 $288 $289 reversed $113 $-1 #
face $-1 $-1 $290 $61 $-1 $291 forward single #
loop $-1 $292 $293 $115 #
cone-surface $-1 -41.925365597513292 -36.715648529478159 13.646867416109178 0 0.77714596973225614 -0.62932038083071107 0.75 0 0 1 I I -0.70710678118654757 0.70710678118654757 0.75 forward I I I I #
loop $-1 $-1 $294 $78 #
coedge $-1 $186 $186 $295 $296 reversed $116 $-1 #
face $-1 $-1 $297 $62 $-1 $298 forward single #
loop $-1 $299 $300 $118 #
cone-surface $-1 -33.184651148523535 -36.715648529478159 13.646867416109178 0 0.77714596973225614 -0.62932038083071107 0.75 0 0 1 I I -0.70710678118654757 0.70710678118654757 0.75 forward I I I I #
loop $-1 $-1 $301 $79 #
coedge $-1 $191 $191 $302 $303 reversed $119 $-1 #
face $-1 $-1 $304 $63 $-1 $305 forward single #
loop $-1 $306 $307 $121 #
cone-surface $-1 -24.443936699533779 -36.715648529478159 13.646867416109178 0 0.77714596973225614 -0.62932038083071107 0.75 0 0 1 I I -0.70710678118654757 0.70710678118654757 0.75 forward I I I I #
loop $-1 $-1 $308 $80 #
coedge $-1 $196 $196 $309 $310 reversed $122 $-1 #
face $-1 $311 $312 $64 $-1 $313 reversed single #
loop $-1 $-1 $314 $124 #
plane-surface $-1 34.366238466027681 -44.830932210332165 13.063001958279457 0 -0.77714596973225614 0.62932038083071107 1 0 0 forward_v I I I I #
coedge $-1 $315 $316 $317 $318 reversed $125 $-1 #
face $-1 $-1 $319 $65 $-1 $320 forward single #
loop $-1 $321 $322 $127 #
cone-surface $-1 25.625524017037932 -36.715648529478159 13.646867416109178 0 0.77714596973225614 -0.62932038083071107 0.75 0 0 1 I I -0.70710678118654757 0.70710678118654757 0.75 forward I I I I #
loop $-1 $-1 $323 $82 #
coedge $-1 $205 $205 $324 $325 reversed $128 $-1 #
face $-1 $-1 $326 $66 $-1 $327 forward single #
loop $-1 $328 $329 $130 #
cone-surface $-1 34.366238466027696 -36.715648529478159 13.646867416109178 0 0.77714596973225614 -0.62932038083071107 0.75 0 0 1 I I -0.70710678118654757 0.70710678118654757 0.75 forward I I I I #
loop $-1 $-1 $330 $83 #
coedge $-1 $210 $210 $331 $332 reversed $131 $-1 #
face $-1 $-1 $333 $67 $-1 $334 forward single #
loop $-1 $335 $336 $133 #
cone-surface $-1 43.106952915017445 -36.715648529478159 13.646867416109178 0 0.77714596973225614 -0.62932038083071107 0.75 0 0 1 I I -0.70710678118654757 0.70710678118654757 0.75 forward I I I I #
loop $-1 $-1 $337 $84 #
coedge $-1 $215 $215 $338 $339 reversed $134 $-1 #
face $-1 $340 $341 $51 $-1 $342 reversed single #
loop $-1 $-1 $343 $136 #
plane-surface $-1 0 -44.830932210332158 0 0 1 0 0 0 1 forward_v I I I I #
coedge $-1 $344 $345 $346 $347 forward $137 $-1 #
coedge $-1 $348 $139 $349 $350 forward $86 $-1 #
coedge $-1 $139 $348 $351 $352 forward $86 $-1 #
coedge $-1 $353 $354 $139 $223 reversed $355 $-1 #
edge $-1 $356 -44.830932210332158 $357 44.830932210332158 $222 $358 forward 7 unknown #
face $-1 $359 $360 $52 $-1 $361 reversed single #
loop $-1 $-1 $362 $140 #
plane-surface $-1 -18.616793733540618 93.398696778682108 167.76566168684411 -1 0 0 0 0.77714596973225614 0.62932038083071107 forward_v I I I I #
coedge $-1 $363 $364 $365 $366 reversed $141 $-1 #
coedge $-1 $229 $143 $367 $368 reversed $89 $-1 #
coedge $-1 $143 $228 $363 $369 reversed $89 $-1 #
coedge $-1 $365 $370 $143 $231 forward $371 $-1 #
edge $-1 $372 1.8684161790088964 $373 8.867543893084779 $230 $374 forward 7 unknown #
loop $-1 $-1 $237 $144 #
plane-surface $-1 -33.184651148523542 -11.595106452871889 82.743358531478705 0 0.77714596973225614 0.62932038083071107 1 0 0 forward_v I I I I #
loop $-1 $-1 $375 $91 #
coedge $-1 $235 $235 $236 $376 reversed $145 $-1 #
coedge $-1 $236 $236 $235 $376 forward $147 $-1 #
coedge $-1 $237 $237 $148 $238 forward $232 $-1 #
edge $-1 $377 -1.8406514113949776e-015 $377 6.2831853071795987 $237 $378 forward 7 unknown #
loop $-1 $-1 $244 $149 #
plane-surface $-1 -33.184651148523542 -11.595106452871889 82.743358531478705 0 0.77714596973225614 0.62932038083071107 1 0 0 forward_v I I I I #
loop $-1 $-1 $379 $94 #
coedge $-1 $242 $242 $243 $380 reversed $150 $-1 #
coedge $-1 $243 $243 $242 $380 forward $152 $-1 #
coedge $-1 $244 $244 $153 $245 forward $239 $-1 #
edge $-1 $381 -1.8406514113949776e-015 $381 6.2831853071795987 $244 $382 forward 7 unknown #
loop $-1 $-1 $251 $154 #
plane-surface $-1 -33.184651148523542 -11.595106452871889 82.743358531478705 0 0.77714596973225614 0.62932038083071107 1 0 0 forward_v I I I I #
loop $-1 $-1 $383 $97 #
coedge $-1 $249 $249 $250 $384 reversed $155 $-1 #
coedge $-1 $250 $250 $249 $384 forward $157 $-1 #
coedge $-1 $251 $251 $158 $252 forward $246 $-1 #
edge $-1 $385 -1.8406514113949776e-015 $385 6.2831853071795987 $251 $386 forward 7 unknown #
face $-1 $387 $388 $56 $-1 $389 forward single #
loop $-1 $-1 $390 $159 #
plane-surface $-1 48.934095881010606 93.398696778682108 167.76566168684411 -1 0 0 0 0.77714596973225614 0.62932038083071107 forward_v I I I I #
coedge $-1 $391 $392 $393 $394 reversed $160 $-1 #
coedge $-1 $258 $162 $395 $396 reversed $101 $-1 #
coedge $-1 $162 $257 $391 $397 reversed $101 $-1 #
coedge $-1 $393 $398 $162 $260 forward $388 $-1 #
edge $-1 $399 1.8684161790088964 $400 8.867543893084779 $259 $401 forward 7 unknown #
loop $-1 $-1 $266 $163 #
plane-surface $-1 34.366238466027681 -11.595106452871889 82.743358531478705 0 0.77714596973225614 0.62932038083071107 1 0 0 forward_v I I I I #
loop $-1 $-1 $402 $103 #
coedge $-1 $264 $264 $265 $403 reversed $164 $-1 #
coedge $-1 $265 $265 $264 $403 forward $166 $-1 #
coedge $-1 $266 $266 $167 $267 forward $261 $-1 #
edge $-1 $404 -1.8406514113949776e-015 $404 6.2831853071795987 $266 $405 forward 7 unknown #
loop $-1 $-1 $273 $168 #
plane-surface $-1 34.366238466027681 -11.595106452871889 82.743358531478705 0 0.77714596973225614 0.62932038083071107 1 0 0 forward_v I I I I #
loop $-1 $-1 $406 $106 #
coedge $-1 $271 $271 $272 $407 reversed $169 $-1 #
coedge $-1 $272 $272 $271 $407 forward $171 $-1 #
coedge $-1 $273 $273 $172 $274 forward $268 $-1 #
edge $-1 $408 -1.8406514113949776e-015 $408 6.2831853071795987 $273 $409 forward 7 unknown #
loop $-1 $-1 $280 $173 #
plane-surface $-1 34.366238466027681 -11.595106452871889 82.743358531478705 0 0.77714596973225614 0.62932038083071107 1 0 0 forward_v I I I I #
loop $-1 $-1 $410 $109 #
coedge $-1 $278 $278 $279 $411 reversed $174 $-1 #
coedge $-1 $279 $279 $278 $411 forward $176 $-1 #
coedge $-1 $280 $280 $177 $281 forward $275 $-1 #
edge $-1 $412 -1.8406514113949776e-015 $412 6.2831853071795987 $280 $413 forward 7 unknown #
face $-1 $414 $415 $60 $-1 $416 reversed single #
loop $-1 $-1 $417 $178 #
plane-surface $-1 -47.752508563506467 -149.82473544188616 98.085305113644864 1 0 0 0 0.77714596973225614 -0.62932038083071107 forward_v I I I I #
coedge $-1 $418 $419 $420 $421 reversed $179 $-1 #
coedge $-1 $287 $181 $422 $423 reversed $113 $-1 #
coedge $-1 $181 $286 $418 $424 reversed $113 $-1 #
coedge $-1 $420 $425 $181 $289 forward $426 $-1 #
edge $-1 $427 30.081435510610923 $428 37.080563224686799 $288 $429 forward 7 unknown #
loop $-1 $-1 $295 $182 #
plane-surface $-1 -33.184651148523542 -44.830932210332165 13.063001958279457 0 -0.77714596973225614 0.62932038083071107 1 0 0 forward_v I I I I #
loop $-1 $-1 $430 $115 #
coedge $-1 $293 $293 $294 $431 reversed $183 $-1 #
coedge $-1 $294 $294 $293 $431 forward $185 $-1 #
coedge $-1 $295 $295 $186 $296 forward $290 $-1 #
edge $-1 $432 1.8406514113949776e-015 $432 6.2831853071796022 $295 $433 forward 7 unknown #
loop $-1 $-1 $302 $187 #
plane-surface $-1 -33.184651148523542 -44.830932210332165 13.063001958279457 0 -0.77714596973225614 0.62932038083071107 1 0 0 forward_v I I I I #
loop $-1 $-1 $434 $118 #
coedge $-1 $300 $300 $301 $435 reversed $188 $-1 #
coedge $-1 $301 $301 $300 $435 forward $190 $-1 #
coedge $-1 $302 $302 $191 $303 forward $297 $-1 #
edge $-1 $436 1.8406514113949776e-015 $436 6.2831853071796022 $302 $437 forward 7 unknown #
loop $-1 $-1 $309 $192 #
plane-surface $-1 -33.184651148523542 -44.830932210332165 13.063001958279457 0 -0.77714596973225614 0.62932038083071107 1 0 0 forward_v I I I I #
loop $-1 $-1 $438 $121 #
coedge $-1 $307 $307 $308 $439 reversed $193 $-1 #
coedge $-1 $308 $308 $307 $439 forward $195 $-1 #
coedge $-1 $309 $309 $196 $310 forward $304 $-1 #
edge $-1 $440 1.8406514113949776e-015 $440 6.2831853071796022 $309 $441 forward 7 unknown #
face $-1 $442 $443 $64 $-1 $444 reversed single #
loop $-1 $-1 $445 $197 #
plane-surface $-1 19.798381051044757 -149.82473544188616 98.085305113644864 1 0 0 0 0.77714596973225614 -0.62932038083071107 forward_v I I I I #
coedge $-1 $446 $447 $448 $449 reversed $198 $-1 #
coedge $-1 $316 $200 $450 $451 reversed $125 $-1 #
coedge $-1 $200 $315 $446 $452 reversed $125 $-1 #
coedge $-1 $448 $453 $200 $318 forward $454 $-1 #
edge $-1 $455 30.081435510610923 $456 37.080563224686799 $317 $457 forward 7 unknown #
loop $-1 $-1 $324 $201 #
plane-surface $-1 34.366238466027681 -44.830932210332165 13.063001958279457 0 -0.77714596973225614 0.62932038083071107 1 0 0 forward_v I I I I #
loop $-1 $-1 $458 $127 #
coedge $-1 $322 $322 $323 $459 reversed $202 $-1 #
coedge $-1 $323 $323 $322 $459 forward $204 $-1 #
coedge $-1 $324 $324 $205 $325 forward $319 $-1 #
edge $-1 $460 1.8406514113949776e-015 $460 6.2831853071796022 $324 $461 forward 7 unknown #
loop $-1 $-1 $331 $206 #
plane-surface $-1 34.366238466027681 -44.830932210332165 13.063001958279457 0 -0.77714596973225614 0.62932038083071107 1 0 0 forward_v I I I I #
loop $-1 $-1 $462 $130 #
coedge $-1 $329 $329 $330 $463 reversed $207 $-1 #
coedge $-1 $330 $330 $329 $463 forward $209 $-1 #
coedge $-1 $331 $331 $210 $332 forward $326 $-1 #
edge $-1 $464 1.8406514113949776e-015 $464 6.2831853071796022 $331 $465 forward 7 unknown #
loop $-1 $-1 $338 $211 #
plane-surface $-1 34.366238466027681 -44.830932210332165 13.063001958279457 0 -0.77714596973225614 0.62932038083071107 1 0 0 forward_v I I I I #
loop $-1 $-1 $466 $133 #
coedge $-1 $336 $336 $337 $467 reversed $212 $-1 #
coedge $-1 $337 $337 $336 $467 forward $214 $-1 #
coedge $-1 $338 $338 $215 $339 forward $333 $-1 #
edge $-1 $468 1.8406514113949776e-015 $468 6.2831853071796022 $338 $469 forward 7 unknown #
face $-1 $470 $471 $51 $-1 $472 reversed single #
loop $-1 $-1 $473 $216 #
plane-surface $-1 -67.550889614551224 0 0 1 0 0 0 0 -1 forward_v I I I I #
coedge $-1 $474 $351 $475 $476 forward $217 $-1 #
coedge $-1 $477 $219 $474 $478 forward $137 $-1 #
coedge $-1 $219 $477 $479 $480 forward $137 $-1 #
coedge $-1 $354 $353 $219 $347 reversed $355 $-1 #
edge $-1 $481 -44.830932210332158 $482 44.830932210332158 $346 $483 forward 7 unknown #
coedge $-1 $221 $220 $484 $485 forward $86 $-1 #
coedge $-1 $486 $487 $220 $350 reversed $471 $-1 #
edge $-1 $357 -67.550889614551224 $488 67.550889614551224 $349 $489 forward 7 unknown #
coedge $-1 $343 $490 $221 $352 reversed $217 $-1 #
edge $-1 $491 -67.550889614551224 $356 67.550889614551224 $351 $492 forward 7 unknown #
coedge $-1 $346 $222 $490 $493 forward $355 $-1 #
coedge $-1 $222 $346 $486 $494 reversed $355 $-1 #
loop $-1 $-1 $353 $470 #
vertex $-1 $223 $495 #
vertex $-1 $223 $496 #
straight-curve $-1 67.550889614551224 0 21.706205103004262 0 1 0 I I #
face $-1 $-1 $371 $52 $-1 $497 forward single #
loop $-1 $-1 $498 $224 #
plane-surface $-1 0 44.830932210332158 0 0 -1 0 0 0 -1 forward_v I I I I #
coedge $-1 $499 $500 $501 $502 reversed $225 $-1 #
coedge $-1 $503 $227 $229 $369 forward $141 $-1 #
coedge $-1 $227 $503 $499 $504 forward $141 $-1 #
coedge $-1 $501 $230 $227 $366 forward $371 $-1 #
edge $-1 $373 -31.160182989244696 $505 -2.0244681592788467 $365 $506 forward 7 unknown #
coedge $-1 $507 $508 $228 $368 forward $360 $-1 #
edge $-1 $509 -70.819828885142599 $372 -62.176625740417791 $367 $510 forward 7 unknown #
edge $-1 $373 78.540140212659253 $509 89.661864420664301 $229 $511 forward 7 unknown #
coedge $-1 $230 $501 $507 $512 forward $371 $-1 #
loop $-1 $-1 $501 $359 #
vertex $-1 $368 $513 #
vertex $-1 $231 $514 #
straight-curve $-1 -47.752508563506467 46.699348389341054 21.706205103004265 0 -1 0 I I #
coedge $-1 $375 $375 $-1 $515 reversed $234 $-1 #
edge $-1 $516 0 $516 6.2831853071796004 $235 $517 forward 7 unknown #
vertex $-1 $238 $518 #
ellipse-curve $-1 -41.925365597513292 41.331368353294224 17.384603530641868 0 0.77714596973225614 0.62932038083071107 1.5 0 0 1 I I #
coedge $-1 $379 $379 $-1 $519 reversed $241 $-1 #
edge $-1 $520 0 $520 6.2831853071796004 $242 $521 forward 7 unknown #
vertex $-1 $245 $522 #
ellipse-curve $-1 -33.184651148523535 41.331368353294224 17.384603530641868 0 0.77714596973225614 0.62932038083071107 1.5 0 0 1 I I #
coedge $-1 $383 $383 $-1 $523 reversed $248 $-1 #
edge $-1 $524 0 $524 6.2831853071796004 $249 $525 forward 7 unknown #
vertex $-1 $252 $526 #
ellipse-curve $-1 -24.443936699533779 41.331368353294224 17.384603530641868 0 0.77714596973225614 0.62932038083071107 1.5 0 0 1 I I #
face $-1 $-1 $527 $56 $-1 $528 reversed single #
loop $-1 $-1 $259 $253 #
plane-surface $-1 0 0 21.706205103004262 0 0 1 1 0 0 forward_v I I I I #
coedge $-1 $529 $530 $531 $532 reversed $254 $-1 #
coedge $-1 $533 $256 $258 $397 forward $160 $-1 #
coedge $-1 $256 $533 $529 $534 forward $160 $-1 #
coedge $-1 $531 $259 $256 $394 forward $388 $-1 #
edge $-1 $400 2.6152618180309162 $535 31.750976647996765 $393 $536 forward 7 unknown #
coedge $-1 $537 $538 $257 $396 forward $527 $-1 #
edge $-1 $539 -70.819828885142599 $399 -62.176625740417791 $395 $540 forward 7 unknown #
edge $-1 $400 78.540140212659253 $539 89.661864420664301 $258 $541 forward 7 unknown #
coedge $-1 $259 $531 $537 $542 forward $388 $-1 #
vertex $-1 $260 $543 #
vertex $-1 $260 $544 #
straight-curve $-1 19.798381051044757 46.699348389341054 21.706205103004265 0 -1 0 I I #
coedge $-1 $402 $402 $-1 $545 reversed $263 $-1 #
edge $-1 $546 0 $546 6.2831853071796004 $264 $547 forward 7 unknown #
vertex $-1 $267 $548 #
ellipse-curve $-1 25.625524017037932 41.331368353294224 17.384603530641868 0 0.77714596973225614 0.62932038083071107 1.5 0 0 1 I I #
coedge $-1 $406 $406 $-1 $549 reversed $270 $-1 #
edge $-1 $550 0 $550 6.2831853071796004 $271 $551 forward 7 unknown #
vertex $-1 $274 $552 #
ellipse-curve $-1 34.366238466027696 41.331368353294224 17.384603530641868 0 0.77714596973225614 0.62932038083071107 1.5 0 0 1 I I #
coedge $-1 $410 $410 $-1 $553 reversed $277 $-1 #
edge $-1 $554 0 $554 6.2831853071796004 $278 $555 forward 7 unknown #
vertex $-1 $281 $556 #
ellipse-curve $-1 43.106952915017445 41.331368353294224 17.384603530641868 0 0.77714596973225614 0.62932038083071107 1.5 0 0 1 I I #
face $-1 $-1 $426 $60 $-1 $557 forward single #
loop $-1 $-1 $558 $282 #
plane-surface $-1 0 -44.830932210332158 0 0 1 0 0 0 1 forward_v I I I I #
coedge $-1 $559 $560 $561 $562 reversed $283 $-1 #
coedge $-1 $563 $285 $287 $424 forward $179 $-1 #
coedge $-1 $285 $563 $559 $564 forward $179 $-1 #
coedge $-1 $561 $288 $285 $421 forward $426 $-1 #
edge $-1 $428 2.0244681592788467 $565 31.160182989244696 $420 $566 forward 7 unknown #
coedge $-1 $567 $568 $286 $423 forward $415 $-1 #
edge $-1 $569 -35.979650598542968 $427 -27.33644745381817 $422 $570 forward 7 unknown #
edge $-1 $428 -11.121724208005062 $569 -1.1374033043381581e-014 $287 $571 forward 7 unknown #
coedge $-1 $288 $561 $567 $572 forward $426 $-1 #
loop $-1 $-1 $561 $414 #
vertex $-1 $423 $573 #
vertex $-1 $289 $574 #
straight-curve $-1 -18.616793733540618 -74.912367720943081 21.706205103004265 0 1 0 I I #
coedge $-1 $430 $430 $-1 $575 reversed $292 $-1 #
edge $-1 $576 0 $576 6.2831853071796004 $293 $577 forward 7 unknown #
vertex $-1 $296 $578 #
ellipse-curve $-1 -41.925365597513292 -41.331368353294216 17.384603530641868 0 -0.77714596973225614 0.62932038083071107 1.5 0 0 1 I I #
coedge $-1 $434 $434 $-1 $579 reversed $299 $-1 #
edge $-1 $580 0 $580 6.2831853071796004 $300 $581 forward 7 unknown #
vertex $-1 $303 $582 #
ellipse-curve $-1 -33.184651148523535 -41.331368353294216 17.384603530641868 0 -0.77714596973225614 0.62932038083071107 1.5 0 0 1 I I #
coedge $-1 $438 $438 $-1 $583 reversed $306 $-1 #
edge $-1 $584 0 $584 6.2831853071796004 $307 $585 forward 7 unknown #
vertex $-1 $310 $586 #
ellipse-curve $-1 -24.443936699533779 -41.331368353294216 17.384603530641868 0 -0.77714596973225614 0.62932038083071107 1.5 0 0 1 I I #
face $-1 $-1 $454 $64 $-1 $587 forward single #
loop $-1 $-1 $588 $311 #
plane-surface $-1 0 -44.830932210332158 0 0 1 0 0 0 1 forward_v I I I I #
coedge $-1 $589 $590 $591 $592 reversed $312 $-1 #
coedge $-1 $593 $314 $316 $452 forward $198 $-1 #
coedge $-1 $314 $593 $589 $594 forward $198 $-1 #
coedge $-1 $591 $317 $314 $449 forward $454 $-1 #
edge $-1 $456 -31.750976647996765 $595 -2.6152618180309162 $448 $596 forward 7 unknown #
coedge $-1 $597 $598 $315 $451 forward $443 $-1 #
edge $-1 $599 -35.979650598542968 $455 -27.33644745381817 $450 $600 forward 7 unknown #
edge $-1 $456 -11.121724208005062 $599 -1.1374033043381581e-014 $316 $601 forward 7 unknown #
coedge $-1 $317 $591 $597 $602 forward $454 $-1 #
loop $-1 $-1 $591 $442 #
vertex $-1 $451 $603 #
vertex $-1 $318 $604 #
straight-curve $-1 48.934095881010606 -74.912367720943081 21.706205103004265 0 1 0 I I #
coedge $-1 $458 $458 $-1 $605 reversed $321 $-1 #
edge $-1 $606 0 $606 6.2831853071796004 $322 $607 forward 7 unknown #
vertex $-1 $325 $608 #
ellipse-curve $-1 25.625524017037932 -41.331368353294216 17.384603530641868 0 -0.77714596973225614 0.62932038083071107 1.5 0 0 1 I I #
coedge $-1 $462 $462 $-1 $609 reversed $328 $-1 #
edge $-1 $610 0 $610 6.2831853071796004 $329 $611 forward 7 unknown #
vertex $-1 $332 $612 #
ellipse-curve $-1 34.366238466027696 -41.331368353294216 17.384603530641868 0 -0.77714596973225614 0.62932038083071107 1.5 0 0 1 I I #
coedge $-1 $466 $466 $-1 $613 reversed $335 $-1 #
edge $-1 $614 0 $614 6.2831853071796004 $336 $615 forward 7 unknown #
vertex $-1 $339 $616 #
ellipse-curve $-1 43.106952915017445 -41.331368353294216 17.384603530641868 0 -0.77714596973225614 0.62932038083071107 1.5 0 0 1 I I #
face $-1 $-1 $355 $51 $-1 $617 reversed single #
loop $-1 $-1 $486 $340 #
plane-surface $-1 0 44.830932210332158 0 0 -1 0 0 0 -1 forward_v I I I I #
coedge $-1 $618 $484 $487 $619 forward $341 $-1 #
coedge $-1 $490 $343 $344 $478 reversed $217 $-1 #
coedge $-1 $484 $618 $343 $476 reversed $341 $-1 #
edge $-1 $491 -21.706205103004262 $620 21.706205103004262 $475 $621 forward 7 unknown #
coedge $-1 $345 $344 $618 $622 forward $137 $-1 #
edge $-1 $482 -67.550889614551224 $620 67.550889614551224 $474 $623 forward 7 unknown #
coedge $-1 $487 $486 $345 $480 reversed $471 $-1 #
edge $-1 $624 -67.550889614551224 $481 67.550889614551224 $479 $625 forward 7 unknown #
vertex $-1 $347 $626 #
vertex $-1 $493 $627 #
straight-curve $-1 67.550889614551224 0 -21.706205103004262 0 -1 0 I I #
coedge $-1 $473 $475 $348 $485 reversed $341 $-1 #
edge $-1 $488 -44.830932210332158 $491 44.830932210332158 $484 $628 forward 7 unknown #
coedge $-1 $479 $349 $354 $494 forward $471 $-1 #
coedge $-1 $349 $479 $473 $619 reversed $471 $-1 #
vertex $-1 $350 $629 #
straight-curve $-1 0 44.830932210332158 21.706205103004262 -1 0 0 I I #
coedge $-1 $351 $474 $353 $493 reversed $217 $-1 #
vertex $-1 $485 $630 #
straight-curve $-1 0 -44.830932210332158 21.706205103004262 1 0 0 I I #
edge $-1 $356 -21.706205103004262 $482 21.706205103004262 $353 $631 forward 7 unknown #
edge $-1 $357 -21.706205103004262 $481 21.706205103004262 $354 $632 forward 7 unknown #
point $-1 67.550889614551224 -44.830932210332158 21.706205103004262 #
point $-1 67.550889614551224 44.830932210332158 21.706205103004262 #
plane-surface $-1 0 0 21.706205103004262 0 0 1 1 0 0 forward_v I I I I #
coedge $-1 $508 $507 $500 $633 forward $360 $-1 #
coedge $-1 $500 $362 $364 $504 reversed $225 $-1 #
coedge $-1 $362 $499 $498 $633 reversed $225 $-1 #
coedge $-1 $370 $365 $362 $502 forward $371 $-1 #
edge $-1 $505 -8.867543893084779 $634 -1.8684161790088964 $501 $635 forward 7 unknown #
coedge $-1 $364 $363 $508 $636 reversed $141 $-1 #
edge $-1 $637 -89.661864420664301 $505 -78.540140212659253 $499 $638 forward 7 unknown #
vertex $-1 $366 $639 #
straight-curve $-1 -16.592325574261771 37.831804496256282 21.706205103004265 1 0 0 I I #
coedge $-1 $498 $367 $370 $512 reversed $360 $-1 #
coedge $-1 $367 $498 $503 $636 forward $360 $-1 #
vertex $-1 $368 $640 #
straight-curve $-1 -47.752508563506467 44.830932210332158 83.882830843422056 0 0 1 I I #
straight-curve $-1 -47.752508563506467 -11.595106452871889 82.743358531478705 0 0.62932038083071107 -0.77714596973225614 I I #
edge $-1 $634 18.616793733540618 $372 47.752508563506467 $507 $641 forward 7 unknown #
point $-1 -47.752508563506467 44.830932210332158 21.706205103004262 #
point $-1 -47.752508563506467 37.831804496256275 21.706205103004265 #
edge $-1 $642 1 $642 0 $375 $-1 forward 7 unknown #
vertex $-1 $376 $643 #
ellipse-curve $-1 -41.925365597513292 37.298508006777361 14.11885770173221 0 0.77714596973225614 0.62932038083071107 1.5 0 0 1 I I #
point $-1 -40.425365597513292 41.331368353294224 17.384603530641872 #
edge $-1 $644 1 $644 0 $379 $-1 forward 7 unknown #
vertex $-1 $380 $645 #
ellipse-curve $-1 -33.184651148523535 37.298508006777361 14.11885770173221 0 0.77714596973225614 0.62932038083071107 1.5 0 0 1 I I #
point $-1 -31.684651148523535 41.331368353294224 17.384603530641872 #
edge $-1 $646 1 $646 0 $383 $-1 forward 7 unknown #
vertex $-1 $384 $647 #
ellipse-curve $-1 -24.443936699533779 37.298508006777361 14.11885770173221 0 0.77714596973225614 0.62932038083071107 1.5 0 0 1 I I #
point $-1 -22.943936699533779 41.331368353294224 17.384603530641872 #
loop $-1 $-1 $395 $387 #
plane-surface $-1 0 44.830932210332158 0 0 -1 0 0 0 -1 forward_v I I I I #
coedge $-1 $530 $390 $392 $534 reversed $254 $-1 #
coedge $-1 $390 $529 $648 $649 reversed $254 $-1 #
coedge $-1 $398 $393 $390 $532 forward $388 $-1 #
edge $-1 $535 -8.867543893084779 $650 -1.8684161790088964 $531 $651 forward 7 unknown #
coedge $-1 $392 $391 $538 $652 reversed $160 $-1 #
edge $-1 $653 -89.661864420664301 $535 -78.540140212659253 $529 $654 forward 7 unknown #
vertex $-1 $394 $655 #
straight-curve $-1 17.183119233013841 37.831804496256282 21.706205103004265 1 0 0 I I #
coedge $-1 $648 $395 $398 $542 reversed $527 $-1 #
coedge $-1 $395 $648 $533 $652 forward $527 $-1 #
vertex $-1 $396 $656 #
straight-curve $-1 19.798381051044757 44.830932210332158 83.882830843422056 0 0 1 I I #
straight-curve $-1 19.798381051044757 -11.595106452871889 82.743358531478705 0 0.62932038083071107 -0.77714596973225614 I I #
edge $-1 $650 -48.934095881010606 $399 -19.798381051044757 $537 $657 forward 7 unknown #
point $-1 19.798381051044757 44.830932210332158 21.706205103004262 #
point $-1 19.798381051044757 37.831804496256275 21.706205103004265 #
edge $-1 $658 1 $658 0 $402 $-1 forward 7 unknown #
vertex $-1 $403 $659 #
ellipse-curve $-1 25.625524017037932 37.298508006777361 14.11885770173221 0 0.77714596973225614 0.62932038083071107 1.5 0 0 1 I I #
point $-1 27.125524017037932 41.331368353294224 17.384603530641872 #
edge $-1 $660 1 $660 0 $406 $-1 forward 7 unknown #
vertex $-1 $407 $661 #
ellipse-curve $-1 34.366238466027696 37.298508006777361 14.11885770173221 0 0.77714596973225614 0.62932038083071107 1.5 0 0 1 I I #
point $-1 35.866238466027696 41.331368353294224 17.384603530641872 #
edge $-1 $662 1 $662 0 $410 $-1 forward 7 unknown #
vertex $-1 $411 $663 #
ellipse-curve $-1 43.106952915017445 37.298508006777361 14.11885770173221 0 0.77714596973225614 0.62932038083071107 1.5 0 0 1 I I #
point $-1 44.606952915017445 41.331368353294224 17.384603530641872 #
plane-surface $-1 0 0 21.706205103004262 0 0 1 1 0 0 forward_v I I I I #
coedge $-1 $568 $567 $560 $664 forward $415 $-1 #
coedge $-1 $560 $417 $419 $564 reversed $283 $-1 #
coedge $-1 $417 $559 $558 $664 reversed $283 $-1 #
coedge $-1 $425 $420 $417 $562 forward $426 $-1 #
edge $-1 $565 -37.080563224686799 $665 -30.081435510610923 $561 $666 forward 7 unknown #
coedge $-1 $419 $418 $568 $667 reversed $179 $-1 #
edge $-1 $668 1.1374033043381581e-014 $565 11.121724208005062 $559 $669 forward 7 unknown #
vertex $-1 $421 $670 #
straight-curve $-1 -16.592325574261771 -37.831804496256282 21.706205103004262 -1 0 0 I I #
coedge $-1 $558 $422 $425 $572 reversed $415 $-1 #
coedge $-1 $422 $558 $563 $667 forward $415 $-1 #
vertex $-1 $423 $671 #
straight-curve $-1 -18.616793733540618 -44.830932210332158 49.042652556822432 0 0 1 I I #
straight-curve $-1 -18.616793733540618 -44.830932210332165 13.063001958279457 0 -0.62932038083071107 -0.77714596973225614 I I #
edge $-1 $665 -47.752508563506467 $427 -18.616793733540618 $567 $672 forward 7 unknown #
point $-1 -18.616793733540618 -44.830932210332158 21.706205103004262 #
point $-1 -18.616793733540618 -37.831804496256282 21.706205103004262 #
edge $-1 $673 1 $673 0 $430 $-1 forward 7 unknown #
vertex $-1 $431 $674 #
ellipse-curve $-1 -41.925365597513292 -37.298508006777354 14.11885770173221 0 -0.77714596973225614 0.62932038083071107 1.5 0 0 1 I I #
point $-1 -40.425365597513292 -41.331368353294216 17.384603530641872 #
edge $-1 $675 1 $675 0 $434 $-1 forward 7 unknown #
vertex $-1 $435 $676 #
ellipse-curve $-1 -33.184651148523535 -37.298508006777354 14.11885770173221 0 -0.77714596973225614 0.62932038083071107 1.5 0 0 1 I I #
point $-1 -31.684651148523535 -41.331368353294216 17.384603530641872 #
edge $-1 $677 1 $677 0 $438 $-1 forward 7 unknown #
vertex $-1 $439 $678 #
ellipse-curve $-1 -24.443936699533779 -37.298508006777354 14.11885770173221 0 -0.77714596973225614 0.62932038083071107 1.5 0 0 1 I I #
point $-1 -22.943936699533779 -41.331368353294216 17.384603530641872 #
plane-surface $-1 0 0 21.706205103004262 0 0 1 1 0 0 forward_v I I I I #
coedge $-1 $598 $597 $590 $679 forward $443 $-1 #
coedge $-1 $590 $445 $447 $594 reversed $312 $-1 #
coedge $-1 $445 $589 $588 $679 reversed $312 $-1 #
coedge $-1 $453 $448 $445 $592 forward $454 $-1 #
edge $-1 $595 -37.080563224686799 $680 -30.081435510610923 $591 $681 forward 7 unknown #
coedge $-1 $447 $446 $598 $682 reversed $198 $-1 #
edge $-1 $683 1.1374033043381581e-014 $595 11.121724208005062 $589 $684 forward 7 unknown #
vertex $-1 $449 $685 #
straight-curve $-1 17.183119233013841 -37.831804496256282 21.706205103004262 -1 0 0 I I #
coedge $-1 $588 $450 $453 $602 reversed $443 $-1 #
coedge $-1 $450 $588 $593 $682 forward $443 $-1 #
vertex $-1 $451 $686 #
straight-curve $-1 48.934095881010606 -44.830932210332158 49.042652556822432 0 0 1 I I #
straight-curve $-1 48.934095881010606 -44.830932210332165 13.063001958279457 0 -0.62932038083071107 -0.77714596973225614 I I #
edge $-1 $680 19.798381051044757 $455 48.934095881010606 $597 $687 forward 7 unknown #
point $-1 48.934095881010606 -44.830932210332158 21.706205103004262 #
point $-1 48.934095881010606 -37.831804496256282 21.706205103004262 #
edge $-1 $688 1 $688 0 $458 $-1 forward 7 unknown #
vertex $-1 $459 $689 #
ellipse-curve $-1 25.625524017037932 -37.298508006777354 14.11885770173221 0 -0.77714596973225614 0.62932038083071107 1.5 0 0 1 I I #
point $-1 27.125524017037932 -41.331368353294216 17.384603530641872 #
edge $-1 $690 1 $690 0 $462 $-1 forward 7 unknown #
vertex $-1 $463 $691 #
ellipse-curve $-1 34.366238466027696 -37.298508006777354 14.11885770173221 0 -0.77714596973225614 0.62932038083071107 1.5 0 0 1 I I #
point $-1 35.866238466027696 -41.331368353294216 17.384603530641872 #
edge $-1 $692 1 $692 0 $466 $-1 forward 7 unknown #
vertex $-1 $467 $693 #
ellipse-curve $-1 43.106952915017445 -37.298508006777354 14.11885770173221 0 -0.77714596973225614 0.62932038083071107 1.5 0 0 1 I I #
point $-1 44.606952915017445 -41.331368353294216 17.384603530641872 #
plane-surface $-1 67.550889614551224 0 0 -1 0 0 0 0 1 forward_v I I I I #
coedge $-1 $475 $473 $477 $622 reversed $341 $-1 #
edge $-1 $488 -21.706205103004262 $624 21.706205103004262 $487 $694 forward 7 unknown #
vertex $-1 $622 $695 #
straight-curve $-1 -67.550889614551224 -44.830932210332158 0 0 0 -1 I I #
edge $-1 $620 -44.830932210332158 $624 44.830932210332158 $618 $696 forward 7 unknown #
straight-curve $-1 0 -44.830932210332158 -21.706205103004262 -1 0 0 I I #
vertex $-1 $480 $697 #
straight-curve $-1 0 44.830932210332158 -21.706205103004262 1 0 0 I I #
point $-1 67.550889614551224 44.830932210332158 -21.706205103004262 #
point $-1 67.550889614551224 -44.830932210332158 -21.706205103004262 #
straight-curve $-1 -67.550889614551224 0 21.706205103004262 0 -1 0 I I #
point $-1 -67.550889614551224 44.830932210332158 21.706205103004262 #
point $-1 -67.550889614551224 -44.830932210332158 21.706205103004262 #
straight-curve $-1 67.550889614551224 -44.830932210332158 0 0 0 -1 I I #
straight-curve $-1 67.550889614551224 44.830932210332158 0 0 0 -1 I I #
edge $-1 $634 62.176625740417791 $637 70.819828885142599 $498 $698 forward 7 unknown #
vertex $-1 $512 $699 #
straight-curve $-1 -18.616793733540618 46.699348389341054 21.706205103004265 0 1 0 I I #
edge $-1 $637 2.0244681592788467 $509 31.160182989244696 $508 $700 forward 7 unknown #
vertex $-1 $636 $701 #
straight-curve $-1 -18.616793733540618 -11.595106452871889 82.743358531478705 0 -0.62932038083071107 0.77714596973225614 I I #
point $-1 -18.616793733540618 37.831804496256275 21.706205103004265 #
point $-1 -47.752508563506467 44.830932210332158 13.063001958279457 #
straight-curve $-1 0 44.830932210332158 21.706205103004262 -1 0 0 I I #
vertex $-1 $515 $702 #
point $-1 -40.425365597513292 37.298508006777361 14.11885770173221 #
vertex $-1 $519 $703 #
point $-1 -31.684651148523535 37.298508006777361 14.11885770173221 #
vertex $-1 $523 $704 #
point $-1 -22.943936699533779 37.298508006777361 14.11885770173221 #
coedge $-1 $538 $537 $530 $649 forward $527 $-1 #
edge $-1 $650 62.176625740417791 $653 70.819828885142599 $648 $705 forward 7 unknown #
vertex $-1 $542 $706 #
straight-curve $-1 48.934095881010606 46.699348389341054 21.706205103004265 0 1 0 I I #
edge $-1 $653 -31.750976647996765 $539 -2.6152618180309162 $538 $707 forward 7 unknown #
vertex $-1 $652 $708 #
straight-curve $-1 48.934095881010606 -11.595106452871889 82.743358531478705 0 -0.62932038083071107 0.77714596973225614 I I #
point $-1 48.934095881010606 37.831804496256275 21.706205103004265 #
point $-1 19.798381051044757 44.830932210332158 13.063001958279457 #
straight-curve $-1 0 44.830932210332158 21.706205103004262 -1 0 0 I I #
vertex $-1 $545 $709 #
point $-1 27.125524017037932 37.298508006777361 14.11885770173221 #
vertex $-1 $549 $710 #
point $-1 35.866238466027696 37.298508006777361 14.11885770173221 #
vertex $-1 $553 $711 #
point $-1 44.606952915017445 37.298508006777361 14.11885770173221 #
edge $-1 $665 27.33644745381817 $668 35.979650598542968 $558 $712 forward 7 unknown #
vertex $-1 $572 $713 #
straight-curve $-1 -47.752508563506467 -74.912367720943081 21.706205103004265 0 -1 0 I I #
edge $-1 $668 -31.160182989244696 $569 -2.0244681592788467 $568 $714 forward 7 unknown #
vertex $-1 $667 $715 #
straight-curve $-1 -47.752508563506467 -44.830932210332165 13.063001958279457 0 0.62932038083071107 0.77714596973225614 I I #
point $-1 -47.752508563506467 -37.831804496256282 21.706205103004262 #
point $-1 -18.616793733540618 -44.830932210332158 13.063001958279466 #
straight-curve $-1 0 -44.830932210332158 21.706205103004262 1 0 0 I I #
vertex $-1 $575 $716 #
point $-1 -40.425365597513292 -37.298508006777354 14.11885770173221 #
vertex $-1 $579 $717 #
point $-1 -31.684651148523535 -37.298508006777354 14.11885770173221 #
vertex $-1 $583 $718 #
point $-1 -22.943936699533779 -37.298508006777354 14.11885770173221 #
edge $-1 $680 27.33644745381817 $683 35.979650598542968 $588 $719 forward 7 unknown #
vertex $-1 $602 $720 #
straight-curve $-1 19.798381051044757 -74.912367720943081 21.706205103004265 0 -1 0 I I #
edge $-1 $683 2.6152618180309162 $599 31.750976647996765 $598 $721 forward 7 unknown #
vertex $-1 $682 $722 #
straight-curve $-1 19.798381051044757 -44.830932210332165 13.063001958279457 0 0.62932038083071107 0.77714596973225614 I I #
point $-1 19.798381051044757 -37.831804496256282 21.706205103004262 #
point $-1 48.934095881010606 -44.830932210332158 13.063001958279466 #
straight-curve $-1 0 -44.830932210332158 21.706205103004262 1 0 0 I I #
vertex $-1 $605 $723 #
point $-1 27.125524017037932 -37.298508006777354 14.11885770173221 #
vertex $-1 $609 $724 #
point $-1 35.866238466027696 -37.298508006777354 14.11885770173221 #
vertex $-1 $613 $725 #
point $-1 44.606952915017445 -37.298508006777354 14.11885770173221 #
straight-curve $-1 -67.550889614551224 44.830932210332158 0 0 0 -1 I I #
point $-1 -67.550889614551224 -44.830932210332158 -21.706205103004262 #
straight-curve $-1 -67.550889614551224 0 -21.706205103004262 0 1 0 I I #
point $-1 -67.550889614551224 44.830932210332158 -21.706205103004262 #
straight-curve $-1 -18.616793733540618 44.830932210332158 83.882830843422056 0 0 -1 I I #
point $-1 -18.616793733540618 44.830932210332158 21.706205103004262 #
straight-curve $-1 -16.592325574261771 44.830932210332158 13.063001958279472 -1 0 0 I I #
point $-1 -18.616793733540618 44.830932210332158 13.063001958279457 #
point $-1 -41.925365597513292 36.132789052178971 13.174877130486145 #
point $-1 -33.184651148523535 36.132789052178971 13.174877130486145 #
point $-1 -24.443936699533779 36.132789052178971 13.174877130486145 #
straight-curve $-1 48.934095881010606 44.830932210332158 83.882830843422056 0 0 -1 I I #
point $-1 48.934095881010606 44.830932210332158 21.706205103004262 #
straight-curve $-1 17.183119233013841 44.830932210332158 13.063001958279472 -1 0 0 I I #
point $-1 48.934095881010606 44.830932210332158 13.063001958279457 #
point $-1 25.625524017037932 36.132789052178971 13.174877130486145 #
point $-1 34.366238466027696 36.132789052178971 13.174877130486145 #
point $-1 43.106952915017445 36.132789052178971 13.174877130486145 #
straight-curve $-1 -47.752508563506467 -44.830932210332158 49.042652556822432 0 0 -1 I I #
point $-1 -47.752508563506467 -44.830932210332158 21.706205103004262 #
straight-curve $-1 -16.592325574261771 -44.830932210332158 13.063001958279468 1 0 0 I I #
point $-1 -47.752508563506467 -44.830932210332158 13.063001958279466 #
point $-1 -41.925365597513292 -36.132789052178964 13.174877130486145 #
point $-1 -33.184651148523535 -36.132789052178964 13.174877130486145 #
point $-1 -24.443936699533779 -36.132789052178964 13.174877130486145 #
straight-curve $-1 19.798381051044757 -44.830932210332158 49.042652556822432 0 0 -1 I I #
point $-1 19.798381051044757 -44.830932210332158 21.706205103004262 #
straight-curve $-1 17.183119233013841 -44.830932210332158 13.063001958279468 1 0 0 I I #
point $-1 19.798381051044757 -44.830932210332158 13.063001958279466 #
point $-1 25.625524017037932 -36.132789052178964 13.174877130486145 #
point $-1 34.366238466027696 -36.132789052178964 13.174877130486145 #
point $-1 43.106952915017445 -36.132789052178964 13.174877130486145 #
End-of-ACIS-data 