500 0 7 0           
7 Unknown 11 ACIS 5.0 NT 24 Fri Mar 26 19:16:50 1999 
-1 9.9999999999999995e-007 1e-010 
body $-1 $7 $-1 $8 #
body $-1 $9 $-1 $10 #
body $-1 $11 $-1 $12 #
body $-1 $13 $-1 $14 #
body $-1 $15 $-1 $16 #
body $-1 $17 $-1 $18 #
body $-1 $19 $-1 $20 #
lump $-1 $-1 $21 $0 #
transform $-1 1 0 0 0 1 0 0 0 1 49.955137791070285 32.955724710057375 16.172513741424346 1 rotate no_reflect no_shear #
lump $-1 $-1 $22 $1 #
transform $-1 1 0 0 0 1 0 0 0 1 49.955137791070285 32.955724710057375 16.172513741424346 1 rotate no_reflect no_shear #
lump $-1 $-1 $23 $2 #
transform $-1 1 0 0 0 1 0 0 0 1 49.955137791070285 32.955724710057375 16.172513741424346 1 rotate no_reflect no_shear #
lump $-1 $-1 $24 $3 #
transform $-1 1 0 0 0 1 0 0 0 1 49.955137791070285 32.955724710057375 16.172513741424346 1 rotate no_reflect no_shear #
lump $-1 $-1 $25 $4 #
transform $-1 1 0 0 0 1 0 0 0 1 49.955137791070285 32.955724710057375 16.172513741424346 1 rotate no_reflect no_shear #
lump $-1 $-1 $26 $5 #
transform $-1 1 0 0 0 1 0 0 0 1 49.955137791070285 32.955724710057375 16.172513741424346 1 rotate no_reflect no_shear #
lump $-1 $-1 $27 $6 #
transform $-1 1 0 0 0 1 0 0 0 1 49.955137791070285 32.955724710057375 16.172513741424346 1 rotate no_reflect no_shear #
shell $-1 $-1 $-1 $28 $-1 $7 #
shell $-1 $-1 $-1 $29 $-1 $9 #
shell $-1 $-1 $-1 $30 $-1 $11 #
shell $-1 $-1 $-1 $31 $-1 $13 #
shell $-1 $-1 $-1 $32 $-1 $15 #
shell $-1 $-1 $-1 $33 $-1 $17 #
shell $-1 $-1 $-1 $34 $-1 $19 #
face $-1 $35 $36 $21 $-1 $37 forward single #
face $-1 $38 $39 $22 $-1 $40 reversed single #
face $-1 $41 $42 $23 $-1 $43 reversed single #
face $-1 $44 $45 $24 $-1 $46 forward single #
face $-1 $47 $48 $25 $-1 $49 forward single #
face $-1 $50 $51 $26 $-1 $52 reversed single #
face $-1 $53 $54 $27 $-1 $55 forward single #
face $-1 $56 $57 $21 $-1 $58 reversed single #
loop $-1 $-1 $59 $28 #
plane-surface $-1 0 0 16.172513741424346 0 0 1 1 0 0 forward_v I I I I #
face $-1 $60 $61 $22 $-1 $62 reversed single #
loop $-1 $-1 $63 $29 #
plane-surface $-1 -41.367383445386757 -26.535186905049507 0 0 -1 0 0 0 -1 forward_v I I I I #
face $-1 $64 $65 $23 $-1 $66 reversed single #
loop $-1 $-1 $67 $30 #
plane-surface $-1 8.9201037533483074 80.849585679612744 120.63682342668392 1 0 0 0 -0.83867057594974714 -0.54463902268945019 forward_v I I I I #
face $-1 $68 $69 $24 $-1 $70 forward single #
loop $-1 $71 $72 $31 #
cone-surface $-1 14.235106173621091 30.399849281265805 13.00090389596523 0 -0.83867057594974714 -0.54463902268945019 1.5 0 0 1 I I 0 1 1.5 forward I I I I #
face $-1 $73 $74 $25 $-1 $75 forward single #
loop $-1 $76 $77 $32 #
cone-surface $-1 22.20760980403027 30.399849281265805 13.00090389596523 0 -0.83867057594974714 -0.54463902268945019 1.5 0 0 1 I I 0 1 1.5 forward I I I I #
face $-1 $78 $79 $26 $-1 $80 reversed single #
loop $-1 $-1 $81 $33 #
plane-surface $-1 -27.488487379131904 -32.955724710057368 3.4640812680395925 0 -0.52991927123019833 0.84804809178421925 1 0 0 forward_v I I I I #
face $-1 $82 $83 $27 $-1 $84 forward single #
loop $-1 $85 $86 $34 #
cone-surface $-1 -27.488487379131904 -20.34988281501618 5.9183296458881811 0 0.52991927123019833 -0.84804809178421925 2.5 0 0 1 I I 0 1 2.5 forward I I I I #
face $-1 $87 $88 $21 $-1 $89 reversed single #
loop $-1 $-1 $90 $35 #
plane-surface $-1 0 0 -16.172513741424346 0 0 1 1 0 0 forward_v I I I I #
coedge $-1 $91 $92 $93 $94 forward $36 $-1 #
face $-1 $95 $96 $22 $-1 $97 forward single #
loop $-1 $-1 $98 $38 #
plane-surface $-1 -32.779629099703229 -29.745455807553441 0 -1 0 0 0 0 1 forward_v I I I I #
coedge $-1 $99 $100 $101 $102 forward $39 $-1 #
face $-1 $103 $104 $23 $-1 $105 reversed single #
loop $-1 $-1 $106 $41 #
plane-surface $-1 18.221357988825673 -2.9422226861590417 66.221788576993248 0 0.83867057594974714 0.54463902268945019 1 0 0 forward_v I I I I #
coedge $-1 $107 $108 $109 $110 reversed $42 $-1 #
face $-1 $-1 $111 $24 $-1 $112 forward single #
loop $-1 $113 $114 $44 #
cone-surface $-1 14.235106173621091 28.912755585374931 12.035173989129703 0 -0.83867057594974714 -0.54463902268945019 0.75 0 0 1 I I -0.70710678118654757 0.70710678118654757 0.75 forward I I I I #
loop $-1 $-1 $115 $31 #
coedge $-1 $72 $72 $116 $117 reversed $45 $-1 #
face $-1 $-1 $118 $25 $-1 $119 forward single #
loop $-1 $120 $121 $47 #
cone-surface $-1 22.20760980403027 28.912755585374931 12.035173989129703 0 -0.83867057594974714 -0.54463902268945019 0.75 0 0 1 I I -0.70710678118654757 0.70710678118654757 0.75 forward I I I I #
loop $-1 $-1 $122 $32 #
coedge $-1 $77 $77 $123 $124 reversed $48 $-1 #
face $-1 $125 $126 $26 $-1 $127 reversed single #
loop $-1 $-1 $128 $50 #
plane-surface $-1 -22.197345658560586 -85.900105134953577 88.192799825109375 -1 0 0 0 -0.52991927123019833 0.84804809178421925 forward_v I I I I #
coedge $-1 $129 $130 $131 $132 reversed $51 $-1 #
face $-1 $-1 $133 $27 $-1 $134 forward single #
loop $-1 $135 $136 $53 #
cone-surface $-1 -27.488487379131904 -17.250513292813952 0.95830167231411423 0 0.52991927123019833 -0.84804809178421925 1.25 0 0 1 I I -0.70710678118654746 0.70710678118654746 1.25 forward I I I I #
loop $-1 $-1 $137 $34 #
coedge $-1 $86 $86 $138 $139 reversed $54 $-1 #
face $-1 $140 $141 $21 $-1 $142 reversed single #
loop $-1 $-1 $143 $56 #
plane-surface $-1 0 -32.955724710057375 0 0 1 0 0 0 1 forward_v I I I I #
coedge $-1 $144 $145 $146 $147 forward $57 $-1 #
coedge $-1 $148 $59 $149 $150 forward $36 $-1 #
coedge $-1 $59 $148 $151 $152 forward $36 $-1 #
coedge $-1 $153 $154 $59 $94 reversed $155 $-1 #
edge $-1 $156 -32.955724710057375 $157 32.955724710057375 $93 $158 forward 7 unknown #
face $-1 $159 $160 $22 $-1 $161 reversed single #
loop $-1 $-1 $162 $60 #
plane-surface $-1 0 0 16.172513741424346 0 0 1 1 0 0 forward_v I I I I #
coedge $-1 $163 $164 $165 $166 reversed $61 $-1 #
coedge $-1 $167 $63 $168 $169 reversed $39 $-1 #
coedge $-1 $63 $167 $170 $171 reversed $39 $-1 #
coedge $-1 $164 $163 $63 $102 reversed $61 $-1 #
edge $-1 $172 -16.172513741424346 $173 16.172513741424346 $101 $174 forward 7 unknown #
face $-1 $175 $176 $23 $-1 $177 reversed single #
loop $-1 $-1 $178 $64 #
plane-surface $-1 27.522612224303039 80.849585679612744 120.63682342668392 -1 0 0 0 0.83867057594974714 0.54463902268945019 forward_v I I I I #
coedge $-1 $179 $180 $181 $182 reversed $65 $-1 #
coedge $-1 $108 $67 $183 $184 reversed $42 $-1 #
coedge $-1 $67 $107 $179 $185 reversed $42 $-1 #
coedge $-1 $181 $186 $67 $110 forward $187 $-1 #
edge $-1 $188 7.4690681297489974 $189 10.864637459475006 $109 $190 forward 7 unknown #
loop $-1 $-1 $116 $68 #
plane-surface $-1 18.221357988825673 -2.9422226861590417 66.221788576993248 0 0.83867057594974714 0.54463902268945019 1 0 0 forward_v I I I I #
loop $-1 $-1 $191 $44 #
coedge $-1 $114 $114 $115 $192 reversed $69 $-1 #
coedge $-1 $115 $115 $114 $192 forward $71 $-1 #
coedge $-1 $116 $116 $72 $117 forward $111 $-1 #
edge $-1 $193 -5.9355772310035435e-016 $193 6.2831853071795996 $116 $194 forward 7 unknown #
loop $-1 $-1 $123 $73 #
plane-surface $-1 18.221357988825673 -2.9422226861590417 66.221788576993248 0 0.83867057594974714 0.54463902268945019 1 0 0 forward_v I I I I #
loop $-1 $-1 $195 $47 #
coedge $-1 $121 $121 $122 $196 reversed $74 $-1 #
coedge $-1 $122 $122 $121 $196 forward $76 $-1 #
coedge $-1 $123 $123 $77 $124 forward $118 $-1 #
edge $-1 $197 -5.9355772310035435e-016 $197 6.2831853071795996 $123 $198 forward 7 unknown #
face $-1 $199 $200 $26 $-1 $201 forward single #
loop $-1 $-1 $131 $78 #
plane-surface $-1 0 -32.955724710057375 0 0 1 0 0 0 1 forward_v I I I I #
coedge $-1 $202 $203 $204 $205 reversed $79 $-1 #
coedge $-1 $206 $81 $207 $208 reversed $51 $-1 #
coedge $-1 $81 $206 $202 $209 forward $51 $-1 #
coedge $-1 $204 $210 $81 $132 forward $126 $-1 #
edge $-1 $211 -19.035385410137277 $212 -8.4531019689946341 $131 $213 forward 7 unknown #
loop $-1 $-1 $138 $82 #
plane-surface $-1 -27.488487379131904 -32.955724710057368 3.4640812680395925 0 -0.52991927123019833 0.84804809178421925 1 0 0 forward_v I I I I #
loop $-1 $-1 $214 $53 #
coedge $-1 $136 $136 $137 $215 reversed $83 $-1 #
coedge $-1 $137 $137 $136 $215 forward $85 $-1 #
coedge $-1 $138 $138 $86 $139 forward $133 $-1 #
edge $-1 $216 -5.2764620121044849e-016 $216 6.2831853071795996 $138 $217 forward 7 unknown #
face $-1 $218 $219 $21 $-1 $220 reversed single #
loop $-1 $-1 $221 $87 #
plane-surface $-1 -49.955137791070285 0 0 1 0 0 0 0 -1 forward_v I I I I #
coedge $-1 $222 $151 $223 $224 forward $88 $-1 #
coedge $-1 $225 $90 $222 $226 forward $57 $-1 #
coedge $-1 $90 $225 $227 $228 forward $57 $-1 #
coedge $-1 $154 $153 $90 $147 reversed $155 $-1 #
edge $-1 $229 -32.955724710057375 $230 32.955724710057375 $146 $231 forward 7 unknown #
coedge $-1 $92 $91 $232 $233 forward $36 $-1 #
coedge $-1 $234 $235 $91 $150 reversed $219 $-1 #
edge $-1 $157 -49.955137791070285 $236 49.955137791070285 $149 $237 forward 7 unknown #
coedge $-1 $143 $238 $92 $152 reversed $88 $-1 #
edge $-1 $239 -49.955137791070285 $156 49.955137791070285 $151 $240 forward 7 unknown #
coedge $-1 $146 $93 $238 $241 forward $155 $-1 #
coedge $-1 $93 $146 $234 $242 reversed $155 $-1 #
loop $-1 $-1 $153 $218 #
vertex $-1 $94 $243 #
vertex $-1 $94 $244 #
straight-curve $-1 49.955137791070285 0 16.172513741424346 0 1 0 I I #
face $-1 $245 $246 $22 $-1 $247 reversed single #
loop $-1 $-1 $248 $95 #
plane-surface $-1 -49.955137791070285 0 0 1 0 0 0 0 -1 forward_v I I I I #
coedge $-1 $170 $249 $164 $250 forward $96 $-1 #
coedge $-1 $101 $98 $251 $252 reversed $61 $-1 #
coedge $-1 $98 $101 $162 $250 reversed $61 $-1 #
coedge $-1 $253 $254 $98 $166 forward $255 $-1 #
edge $-1 $256 -16.172513741424346 $257 16.172513741424346 $165 $258 forward 7 unknown #
coedge $-1 $100 $99 $248 $259 reversed $39 $-1 #
coedge $-1 $251 $260 $99 $169 forward $246 $-1 #
edge $-1 $261 -29.271446068376907 $173 -12.09593737700985 $168 $262 forward 7 unknown #
coedge $-1 $263 $162 $100 $171 forward $96 $-1 #
edge $-1 $172 12.09593737700985 $264 29.271446068376907 $170 $265 forward 7 unknown #
vertex $-1 $171 $266 #
vertex $-1 $169 $267 #
straight-curve $-1 -32.779629099703229 -26.535186905049507 0 0 0 -1 I I #
face $-1 $-1 $187 $23 $-1 $268 forward single #
loop $-1 $-1 $269 $103 #
plane-surface $-1 0 32.955724710057375 0 0 -1 0 0 0 -1 forward_v I I I I #
coedge $-1 $270 $271 $272 $273 reversed $104 $-1 #
coedge $-1 $274 $106 $108 $185 forward $65 $-1 #
coedge $-1 $106 $274 $270 $275 forward $65 $-1 #
coedge $-1 $272 $109 $106 $182 forward $187 $-1 #
edge $-1 $189 -0.19057524106452917 $276 18.411933229890202 $181 $277 forward 7 unknown #
coedge $-1 $278 $279 $107 $184 forward $176 $-1 #
edge $-1 $280 -49.374616383198962 $188 -44.145897971917613 $183 $281 forward 7 unknown #
edge $-1 $189 59.676917577430117 $280 65.911449420114735 $108 $282 forward 7 unknown #
coedge $-1 $109 $272 $278 $283 forward $187 $-1 #
loop $-1 $-1 $272 $175 #
vertex $-1 $184 $284 #
vertex $-1 $110 $285 #
straight-curve $-1 8.9201037533483074 40.424792839806372 16.172513741424346 0 -1 0 I I #
coedge $-1 $191 $191 $-1 $286 reversed $113 $-1 #
edge $-1 $287 0 $287 6.2831853071796004 $114 $288 forward 7 unknown #
vertex $-1 $117 $289 #
ellipse-curve $-1 14.235106173621091 31.257940045194374 13.558154535783673 0 0.83867057594974714 0.54463902268945019 1.5 0 0 1 I I #
coedge $-1 $195 $195 $-1 $290 reversed $120 $-1 #
edge $-1 $291 0 $291 6.2831853071796004 $121 $292 forward 7 unknown #
vertex $-1 $124 $293 #
ellipse-curve $-1 22.20760980403027 31.257940045194374 13.558154535783673 0 0.83867057594974714 0.54463902268945019 1.5 0 0 1 I I #
face $-1 $-1 $294 $26 $-1 $295 forward single #
loop $-1 $-1 $296 $125 #
plane-surface $-1 0 0 16.172513741424346 0 0 1 1 0 0 forward_v I I I I #
coedge $-1 $203 $128 $130 $209 reversed $79 $-1 #
coedge $-1 $128 $202 $297 $298 reversed $79 $-1 #
coedge $-1 $299 $131 $128 $205 forward $126 $-1 #
edge $-1 $212 -40.632318644515102 $300 -27.923886171130341 $204 $301 forward 7 unknown #
coedge $-1 $130 $129 $302 $303 reversed $51 $-1 #
coedge $-1 $304 $305 $129 $208 forward $294 $-1 #
edge $-1 $306 -23.538437854540874 $211 0.4433894979204861 $207 $307 forward 7 unknown #
edge $-1 $308 -23.981827352461352 $212 8.3790584163743152e-015 $202 $309 forward 7 unknown #
coedge $-1 $131 $299 $304 $310 forward $126 $-1 #
vertex $-1 $132 $311 #
vertex $-1 $132 $312 #
straight-curve $-1 -13.744243689565952 -32.955724710057375 3.4640812680395863 1 0 0 I I #
coedge $-1 $214 $214 $-1 $313 reversed $135 $-1 #
edge $-1 $314 0 $314 6.2831853071796004 $136 $315 forward 7 unknown #
vertex $-1 $139 $316 #
ellipse-curve $-1 -27.488487379131904 -22.786853248180655 9.8182975047319658 0 -0.52991927123019833 0.84804809178421925 2.5 0 0 1 I I #
face $-1 $-1 $155 $21 $-1 $317 reversed single #
loop $-1 $-1 $234 $140 #
plane-surface $-1 0 32.955724710057375 0 0 -1 0 0 0 -1 forward_v I I I I #
coedge $-1 $318 $232 $235 $319 forward $141 $-1 #
coedge $-1 $238 $143 $144 $226 reversed $88 $-1 #
coedge $-1 $232 $318 $143 $224 reversed $141 $-1 #
edge $-1 $239 -16.172513741424346 $320 16.172513741424346 $223 $321 forward 7 unknown #
coedge $-1 $145 $144 $318 $322 forward $57 $-1 #
edge $-1 $230 -49.955137791070285 $320 49.955137791070285 $222 $323 forward 7 unknown #
coedge $-1 $235 $234 $145 $228 reversed $219 $-1 #
edge $-1 $324 -49.955137791070285 $229 49.955137791070285 $227 $325 forward 7 unknown #
vertex $-1 $147 $326 #
vertex $-1 $241 $327 #
straight-curve $-1 49.955137791070285 0 -16.172513741424346 0 -1 0 I I #
coedge $-1 $221 $223 $148 $233 reversed $141 $-1 #
edge $-1 $236 -32.955724710057375 $239 32.955724710057375 $232 $328 forward 7 unknown #
coedge $-1 $227 $149 $154 $242 forward $219 $-1 #
coedge $-1 $149 $227 $221 $319 reversed $219 $-1 #
vertex $-1 $150 $329 #
straight-curve $-1 0 32.955724710057375 16.172513741424346 -1 0 0 I I #
coedge $-1 $151 $222 $153 $241 reversed $88 $-1 #
vertex $-1 $233 $330 #
straight-curve $-1 0 -32.955724710057375 16.172513741424346 1 0 0 I I #
edge $-1 $156 -16.172513741424346 $230 16.172513741424346 $153 $331 forward 7 unknown #
edge $-1 $157 -16.172513741424346 $229 16.172513741424346 $154 $332 forward 7 unknown #
point $-1 49.955137791070285 -32.955724710057375 16.172513741424346 #
point $-1 49.955137791070285 32.955724710057375 16.172513741424346 #
face $-1 $-1 $255 $22 $-1 $333 reversed single #
loop $-1 $-1 $251 $159 #
plane-surface $-1 0 0 -16.172513741424346 0 0 1 1 0 0 forward_v I I I I #
coedge $-1 $334 $335 $167 $259 forward $160 $-1 #
coedge $-1 $162 $263 $253 $336 forward $96 $-1 #
edge $-1 $257 -18.082996806280654 $172 -11.662459001272786 $162 $337 forward 7 unknown #
coedge $-1 $338 $168 $163 $252 forward $246 $-1 #
edge $-1 $173 11.662459001272786 $256 18.082996806280654 $251 $339 forward 7 unknown #
coedge $-1 $340 $165 $249 $336 reversed $255 $-1 #
coedge $-1 $165 $340 $338 $341 reversed $255 $-1 #
loop $-1 $-1 $165 $245 #
vertex $-1 $341 $342 #
vertex $-1 $166 $343 #
straight-curve $-1 -32.779629099703229 -32.955724710057375 0 0 0 1 I I #
edge $-1 $264 -16.172513741424346 $261 16.172513741424346 $248 $344 forward 7 unknown #
coedge $-1 $168 $338 $334 $345 forward $246 $-1 #
vertex $-1 $169 $346 #
straight-curve $-1 -20.683691722693379 -26.535186905049507 -16.172513741424346 1 0 0 I I #
coedge $-1 $249 $170 $335 $347 forward $96 $-1 #
vertex $-1 $347 $348 #
straight-curve $-1 -20.683691722693379 -26.535186905049507 16.172513741424346 -1 0 0 I I #
point $-1 -32.779629099703229 -26.535186905049507 16.172513741424346 #
point $-1 -32.779629099703229 -26.535186905049507 -16.172513741424346 #
plane-surface $-1 0 0 16.172513741424346 0 0 1 1 0 0 forward_v I I I I #
coedge $-1 $279 $278 $271 $349 forward $176 $-1 #
coedge $-1 $271 $178 $180 $275 reversed $104 $-1 #
coedge $-1 $178 $270 $269 $349 reversed $104 $-1 #
coedge $-1 $186 $181 $178 $273 forward $187 $-1 #
edge $-1 $276 -10.864637459475006 $350 -7.4690681297489974 $272 $351 forward 7 unknown #
coedge $-1 $180 $179 $279 $352 reversed $65 $-1 #
edge $-1 $353 -65.911449420114735 $276 -59.676917577430117 $270 $354 forward 7 unknown #
vertex $-1 $182 $355 #
straight-curve $-1 9.1106789944128366 29.560155380331373 16.17251374142435 1 0 0 I I #
coedge $-1 $269 $183 $186 $283 reversed $176 $-1 #
coedge $-1 $183 $269 $274 $352 forward $176 $-1 #
vertex $-1 $184 $356 #
straight-curve $-1 8.9201037533483074 32.955724710057375 60.318411713341959 0 0 1 I I #
straight-curve $-1 8.9201037533483074 -2.9422226861590417 66.221788576993248 0 0.54463902268945019 -0.83867057594974714 I I #
edge $-1 $350 -27.522612224303039 $188 -8.9201037533483074 $278 $357 forward 7 unknown #
point $-1 8.9201037533483074 32.955724710057375 16.172513741424346 #
point $-1 8.9201037533483074 29.560155380331366 16.172513741424346 #
edge $-1 $358 1 $358 0 $191 $-1 forward 7 unknown #
vertex $-1 $192 $359 #
ellipse-curve $-1 14.235106173621091 29.541758517337243 12.44365325614679 0 0.83867057594974714 0.54463902268945019 1.5 0 0 1 I I #
point $-1 15.735106173621091 31.257940045194367 13.55815453578367 #
edge $-1 $360 1 $360 0 $195 $-1 forward 7 unknown #
vertex $-1 $196 $361 #
ellipse-curve $-1 22.20760980403027 29.541758517337243 12.44365325614679 0 0.83867057594974714 0.54463902268945019 1.5 0 0 1 I I #
point $-1 23.70760980403027 31.257940045194367 13.55815453578367 #
loop $-1 $-1 $207 $199 #
plane-surface $-1 -32.779629099703229 -29.745455807553441 0 -1 0 0 0 0 1 forward_v I I I I #
coedge $-1 $362 $302 $305 $363 forward $200 $-1 #
coedge $-1 $302 $362 $203 $298 forward $200 $-1 #
edge $-1 $300 9.9943278574194139 $308 30.332070781172863 $297 $364 forward 7 unknown #
coedge $-1 $210 $204 $362 $365 reversed $126 $-1 #
vertex $-1 $205 $366 #
straight-curve $-1 -22.197345658560586 -32.955724710057375 44.096399912554688 0 0 1 I I #
coedge $-1 $296 $297 $206 $303 forward $200 $-1 #
edge $-1 $308 8.4531019689946341 $306 19.03538541013727 $302 $367 forward 7 unknown #
coedge $-1 $305 $207 $210 $310 reversed $294 $-1 #
coedge $-1 $207 $304 $296 $363 reversed $294 $-1 #
vertex $-1 $303 $368 #
straight-curve $-1 -32.779629099703229 -32.579709092428743 3.6990419076487351 0 -0.84804809178421925 -0.52991927123019833 I I #
vertex $-1 $303 $369 #
straight-curve $-1 -22.197345658560586 -32.955724710057368 3.4640812680395925 0 -0.84804809178421925 -0.52991927123019833 I I #
edge $-1 $370 -16.172513741424346 $211 -3.464081268039588 $210 $371 forward 7 unknown #
point $-1 -32.779629099703229 -32.955724710057375 3.464081268039588 #
point $-1 -22.197345658560586 -32.955724710057375 3.464081268039588 #
edge $-1 $372 1 $372 0 $214 $-1 forward 7 unknown #
vertex $-1 $215 $373 #
ellipse-curve $-1 -27.488487379131904 -17.912912381851701 2.0183617870443884 0 -0.52991927123019833 0.84804809178421925 2.5 0 0 1 I I #
point $-1 -24.988487379131904 -22.786853248180662 9.8182975047319747 #
plane-surface $-1 49.955137791070285 0 0 -1 0 0 0 0 1 forward_v I I I I #
coedge $-1 $223 $221 $225 $322 reversed $141 $-1 #
edge $-1 $236 -16.172513741424346 $324 16.172513741424346 $235 $374 forward 7 unknown #
vertex $-1 $322 $375 #
straight-curve $-1 -49.955137791070285 -32.955724710057375 0 0 0 -1 I I #
edge $-1 $320 -32.955724710057375 $324 32.955724710057375 $318 $376 forward 7 unknown #
straight-curve $-1 0 -32.955724710057375 -16.172513741424346 -1 0 0 I I #
vertex $-1 $228 $377 #
straight-curve $-1 0 32.955724710057375 -16.172513741424346 1 0 0 I I #
point $-1 49.955137791070285 32.955724710057375 -16.172513741424346 #
point $-1 49.955137791070285 -32.955724710057375 -16.172513741424346 #
straight-curve $-1 -49.955137791070285 0 16.172513741424346 0 -1 0 I I #
point $-1 -49.955137791070285 32.955724710057375 16.172513741424346 #
point $-1 -49.955137791070285 -32.955724710057375 16.172513741424346 #
straight-curve $-1 49.955137791070285 -32.955724710057375 0 0 0 -1 I I #
straight-curve $-1 49.955137791070285 32.955724710057375 0 0 0 -1 I I #
plane-surface $-1 0 -32.955724710057375 0 0 1 0 0 0 1 forward_v I I I I #
coedge $-1 $378 $248 $260 $345 reversed $160 $-1 #
coedge $-1 $248 $378 $263 $347 reversed $160 $-1 #
edge $-1 $379 -49.955137791070285 $257 -32.779629099703229 $253 $380 forward 7 unknown #
straight-curve $-1 -32.779629099703229 -14.87272790377672 16.172513741424346 0 1 0 I I #
coedge $-1 $260 $251 $254 $341 forward $246 $-1 #
straight-curve $-1 -32.779629099703229 -14.87272790377672 -16.172513741424346 0 -1 0 I I #
coedge $-1 $254 $253 $378 $381 forward $255 $-1 #
edge $-1 $256 32.779629099703229 $382 49.955137791070285 $254 $383 forward 7 unknown #
point $-1 -32.779629099703229 -32.955724710057375 -16.172513741424346 #
point $-1 -32.779629099703229 -32.955724710057375 16.172513741424346 #
straight-curve $-1 -49.955137791070285 -26.535186905049507 0 0 0 -1 I I #
edge $-1 $382 -32.955724710057375 $261 -26.535186905049507 $334 $384 forward 7 unknown #
point $-1 -49.955137791070285 -26.535186905049507 -16.172513741424346 #
edge $-1 $264 26.535186905049507 $379 32.955724710057375 $335 $385 forward 7 unknown #
point $-1 -49.955137791070285 -26.535186905049507 16.172513741424346 #
edge $-1 $350 44.145897971917613 $353 49.374616383198962 $269 $386 forward 7 unknown #
vertex $-1 $283 $387 #
straight-curve $-1 27.522612224303039 40.424792839806372 16.172513741424346 0 1 0 I I #
edge $-1 $353 -18.411933229890202 $280 0.19057524106452917 $279 $388 forward 7 unknown #
vertex $-1 $352 $389 #
straight-curve $-1 27.522612224303039 -2.9422226861590417 66.221788576993248 0 -0.54463902268945019 0.83867057594974714 I I #
point $-1 27.522612224303039 29.560155380331366 16.172513741424346 #
point $-1 8.9201037533483074 32.955724710057375 10.943795330142997 #
straight-curve $-1 0 32.955724710057375 16.172513741424346 -1 0 0 I I #
vertex $-1 $286 $390 #
point $-1 15.735106173621091 29.541758517337243 12.44365325614679 #
vertex $-1 $290 $391 #
point $-1 23.70760980403027 29.541758517337243 12.44365325614679 #
coedge $-1 $297 $296 $299 $365 forward $200 $-1 #
edge $-1 $306 -30.332070781172863 $370 -9.9943278574194139 $296 $392 forward 7 unknown #
straight-curve $-1 -22.197345658560586 -42.950052567476789 16.172513741424346 0 1 0 I I #
edge $-1 $370 -32.779629099703229 $300 -22.197345658560586 $299 $393 forward 7 unknown #
point $-1 -22.197345658560586 -32.955724710057375 16.172513741424346 #
straight-curve $-1 -13.744243689565952 -12.617981786303925 16.172513741424346 -1 0 0 I I #
point $-1 -32.779629099703222 -12.617981786303925 16.172513741424346 #
point $-1 -22.197345658560586 -12.617981786303925 16.172513741424346 #
vertex $-1 $365 $394 #
straight-curve $-1 -32.779629099703229 -32.955724710057375 0 0 0 -1 I I #
vertex $-1 $313 $395 #
point $-1 -24.988487379131904 -17.912912381851701 2.0183617870443884 #
straight-curve $-1 -49.955137791070285 32.955724710057375 0 0 0 -1 I I #
point $-1 -49.955137791070285 -32.955724710057375 -16.172513741424346 #
straight-curve $-1 -49.955137791070285 0 -16.172513741424346 0 1 0 I I #
point $-1 -49.955137791070285 32.955724710057375 -16.172513741424346 #
coedge $-1 $335 $334 $340 $381 reversed $160 $-1 #
vertex $-1 $347 $396 #
straight-curve $-1 0 -32.955724710057375 16.172513741424346 1 0 0 I I #
edge $-1 $379 -16.172513741424346 $382 16.172513741424346 $378 $397 forward 7 unknown #
vertex $-1 $345 $398 #
straight-curve $-1 0 -32.955724710057375 -16.172513741424346 -1 0 0 I I #
straight-curve $-1 -49.955137791070285 0 -16.172513741424346 0 1 0 I I #
straight-curve $-1 -49.955137791070285 0 16.172513741424346 0 -1 0 I I #
straight-curve $-1 27.522612224303039 32.955724710057375 60.318411713341959 0 0 -1 I I #
point $-1 27.522612224303039 32.955724710057375 16.172513741424346 #
straight-curve $-1 9.1106789944128366 32.955724710057375 10.943795330143001 -1 0 0 I I #
point $-1 27.522612224303039 32.955724710057375 10.943795330142997 #
point $-1 14.235106173621091 28.28375265341262 11.626694722112616 #
point $-1 22.20760980403027 28.28375265341262 11.626694722112616 #
straight-curve $-1 -32.779629099703222 -42.950052567476789 16.172513741424346 0 -1 0 I I #
straight-curve $-1 0 -32.955724710057375 16.172513741424346 1 0 0 I I #
point $-1 -32.779629099703229 -32.955724710057375 16.172513741424346 #
point $-1 -27.488487379131904 -16.588114203776204 -0.10175844241615994 #
point $-1 -49.955137791070285 -32.955724710057375 16.172513741424346 #
straight-curve $-1 -49.955137791070285 -32.955724710057375 0 0 0 -1 I I #
point $-1 -49.955137791070285 -32.955724710057375 -16.172513741424346 #
End-of-ACIS-data 