500 0 5 0           
7 Unknown 11 ACIS 5.0 NT 24 Fri Mar 26 01:54:32 1999 
-1 9.9999999999999995e-007 1e-010 
body $-1 $5 $-1 $6 #
body $-1 $7 $-1 $8 #
body $-1 $9 $-1 $10 #
body $-1 $11 $-1 $12 #
body $-1 $13 $-1 $14 #
lump $-1 $-1 $15 $0 #
transform $-1 1 0 0 0 1 0 0 0 1 76.975005340739159 39.021467290687276 17.803373262804548 1 rotate no_reflect no_shear #
lump $-1 $-1 $16 $1 #
transform $-1 1 0 0 0 1 0 0 0 1 76.975005340739159 39.021467290687276 17.803373262804548 1 rotate no_reflect no_shear #
lump $-1 $-1 $17 $2 #
transform $-1 1 0 0 0 1 0 0 0 1 76.975005340739159 39.021467290687276 17.803373262804548 1 rotate no_reflect no_shear #
lump $-1 $-1 $18 $3 #
transform $-1 1 0 0 0 1 0 0 0 1 76.975005340739159 39.021467290687276 17.803373262804548 1 rotate no_reflect no_shear #
lump $-1 $-1 $19 $4 #
transform $-1 1 0 0 0 1 0 0 0 1 76.975005340739159 39.021467290687276 17.803373262804548 1 rotate no_reflect no_shear #
shell $-1 $-1 $-1 $20 $-1 $5 #
shell $-1 $-1 $-1 $21 $-1 $7 #
shell $-1 $-1 $-1 $22 $-1 $9 #
shell $-1 $-1 $-1 $23 $-1 $11 #
shell $-1 $-1 $-1 $24 $-1 $13 #
face $-1 $25 $26 $15 $-1 $27 forward single #
face $-1 $28 $29 $16 $-1 $30 reversed single #
face $-1 $31 $32 $17 $-1 $33 reversed single #
face $-1 $34 $35 $18 $-1 $36 reversed single #
face $-1 $37 $38 $19 $-1 $39 forward single #
face $-1 $40 $41 $15 $-1 $42 reversed single #
loop $-1 $-1 $43 $20 #
plane-surface $-1 0 0 17.803373262804548 0 0 1 1 0 0 forward_v I I I I #
face $-1 $44 $45 $16 $-1 $46 reversed single #
loop $-1 $-1 $47 $21 #
plane-surface $-1 -67.033195732808139 0 8.0841343456104084 0 0 1 1 0 0 forward_v I I I I #
face $-1 $48 $49 $17 $-1 $50 reversed single #
loop $-1 $-1 $51 $22 #
plane-surface $-1 67.033195732808139 0 8.0841343456104084 0 0 1 1 0 0 forward_v I I I I #
face $-1 $52 $53 $18 $-1 $54 reversed single #
loop $-1 $-1 $55 $23 #
plane-surface $-1 -29.459109046768976 -129.51101431559024 125.40248417928359 -1 0 0 0 -0.5877852598018023 0.80901698891910034 forward_v I I I I #
face $-1 $56 $57 $19 $-1 $58 forward single #
loop $-1 $59 $60 $24 #
cone-surface $-1 -41.263315469616046 -22.521819220428441 2.6734072615163829 0 0.5877852598018023 -0.80901698891910034 5 0 0 1 I I 0 1 5 forward I I I I #
face $-1 $61 $62 $15 $-1 $63 reversed single #
loop $-1 $-1 $64 $25 #
plane-surface $-1 0 0 -17.803373262804548 0 0 1 1 0 0 forward_v I I I I #
coedge $-1 $65 $66 $67 $68 forward $26 $-1 #
face $-1 $69 $70 $16 $-1 $71 reversed single #
loop $-1 $-1 $72 $28 #
plane-surface $-1 -57.091386124877118 0 12.943753804207478 -1 0 0 0 0 1 forward_v I I I I #
coedge $-1 $73 $74 $75 $76 forward $29 $-1 #
face $-1 $77 $78 $17 $-1 $79 forward single #
loop $-1 $-1 $80 $31 #
plane-surface $-1 57.091386124877118 0 12.943753804207478 1 0 0 0 0 -1 forward_v I I I I #
coedge $-1 $81 $82 $83 $84 reversed $32 $-1 #
face $-1 $85 $86 $18 $-1 $87 reversed single #
loop $-1 $-1 $88 $34 #
plane-surface $-1 -41.263315469616046 -39.021467290687269 0.85431009369067112 0 -0.5877852598018023 0.80901698891910034 1 0 0 forward_v I I I I #
coedge $-1 $89 $90 $91 $92 reversed $35 $-1 #
face $-1 $-1 $93 $19 $-1 $94 forward single #
loop $-1 $95 $96 $37 #
cone-surface $-1 -41.263315469616046 -16.216899830432776 -6.0045696275126108 0 0.5877852598018023 -0.80901698891910034 2.5 0 0 1 I I -0.70710678118654746 0.70710678118654746 2.5 forward I I I I #
loop $-1 $-1 $97 $24 #
coedge $-1 $60 $60 $98 $99 reversed $38 $-1 #
face $-1 $100 $101 $15 $-1 $102 reversed single #
loop $-1 $-1 $103 $40 #
plane-surface $-1 0 -39.021467290687276 0 0 1 0 0 0 1 forward_v I I I I #
coedge $-1 $104 $105 $106 $107 forward $41 $-1 #
coedge $-1 $108 $43 $109 $110 forward $26 $-1 #
coedge $-1 $43 $108 $111 $112 forward $26 $-1 #
coedge $-1 $113 $114 $43 $68 reversed $115 $-1 #
edge $-1 $116 -39.021467290687276 $117 39.021467290687276 $67 $118 forward 7 unknown #
face $-1 $119 $120 $16 $-1 $121 reversed single #
loop $-1 $-1 $122 $44 #
plane-surface $-1 0 39.021467290687276 0 0 -1 0 0 0 -1 forward_v I I I I #
coedge $-1 $75 $123 $124 $125 reversed $45 $-1 #
coedge $-1 $126 $47 $127 $128 reversed $29 $-1 #
coedge $-1 $47 $126 $129 $130 reversed $29 $-1 #
coedge $-1 $131 $72 $47 $76 reversed $45 $-1 #
edge $-1 $132 -39.021467290687276 $133 39.021467290687276 $75 $134 forward 7 unknown #
face $-1 $135 $136 $17 $-1 $137 reversed single #
loop $-1 $-1 $138 $48 #
plane-surface $-1 0 0 17.803373262804548 0 0 1 1 0 0 forward_v I I I I #
coedge $-1 $139 $140 $141 $142 reversed $49 $-1 #
coedge $-1 $143 $51 $144 $145 reversed $32 $-1 #
coedge $-1 $51 $143 $146 $147 reversed $32 $-1 #
coedge $-1 $148 $149 $51 $84 forward $150 $-1 #
edge $-1 $151 -39.021467290687276 $152 39.021467290687276 $83 $153 forward 7 unknown #
face $-1 $154 $155 $18 $-1 $156 forward single #
loop $-1 $-1 $157 $52 #
plane-surface $-1 -53.06752189246312 -129.51101431559024 125.40248417928359 1 0 0 0 0.5877852598018023 -0.80901698891910034 forward_v I I I I #
coedge $-1 $158 $159 $160 $161 reversed $53 $-1 #
coedge $-1 $90 $55 $162 $163 reversed $35 $-1 #
coedge $-1 $55 $89 $158 $164 reversed $35 $-1 #
coedge $-1 $160 $165 $55 $92 forward $155 $-1 #
edge $-1 $166 25.734039867107846 $167 49.062423526643251 $91 $168 forward 7 unknown #
loop $-1 $-1 $98 $56 #
plane-surface $-1 -41.263315469616046 -39.021467290687269 0.85431009369067112 0 -0.5877852598018023 0.80901698891910034 1 0 0 forward_v I I I I #
loop $-1 $-1 $169 $37 #
coedge $-1 $96 $96 $97 $170 reversed $57 $-1 #
coedge $-1 $97 $97 $96 $170 forward $59 $-1 #
coedge $-1 $98 $98 $60 $99 forward $93 $-1 #
edge $-1 $171 -3.1669776845510329e-016 $171 6.2831853071796004 $98 $172 forward 7 unknown #
face $-1 $173 $174 $15 $-1 $175 reversed single #
loop $-1 $-1 $176 $61 #
plane-surface $-1 -76.975005340739159 0 0 1 0 0 0 0 -1 forward_v I I I I #
coedge $-1 $177 $111 $178 $179 forward $62 $-1 #
coedge $-1 $180 $64 $177 $181 forward $41 $-1 #
coedge $-1 $64 $180 $182 $183 forward $41 $-1 #
coedge $-1 $114 $113 $64 $107 reversed $115 $-1 #
edge $-1 $184 -39.021467290687276 $185 39.021467290687276 $106 $186 forward 7 unknown #
coedge $-1 $66 $65 $187 $188 forward $26 $-1 #
coedge $-1 $189 $190 $65 $110 reversed $174 $-1 #
edge $-1 $117 -76.975005340739159 $191 76.975005340739159 $109 $192 forward 7 unknown #
coedge $-1 $103 $193 $66 $112 reversed $62 $-1 #
edge $-1 $194 -76.975005340739159 $116 76.975005340739159 $111 $195 forward 7 unknown #
coedge $-1 $106 $67 $193 $196 forward $115 $-1 #
coedge $-1 $67 $106 $189 $197 reversed $115 $-1 #
loop $-1 $-1 $113 $173 #
vertex $-1 $68 $198 #
vertex $-1 $68 $199 #
straight-curve $-1 76.975005340739159 0 17.803373262804548 0 1 0 I I #
face $-1 $200 $201 $16 $-1 $202 forward single #
loop $-1 $-1 $203 $69 #
plane-surface $-1 -76.975005340739159 0 0 1 0 0 0 0 -1 forward_v I I I I #
coedge $-1 $129 $204 $131 $205 forward $70 $-1 #
coedge $-1 $72 $131 $206 $207 reversed $45 $-1 #
coedge $-1 $208 $127 $72 $125 forward $209 $-1 #
edge $-1 $133 1.6122574435066692 $210 11.331496360700809 $124 $211 forward 7 unknown #
coedge $-1 $74 $73 $203 $212 reversed $29 $-1 #
coedge $-1 $124 $213 $73 $128 forward $209 $-1 #
edge $-1 $214 -43.45840747433509 $133 -23.574788258473049 $127 $215 forward 7 unknown #
coedge $-1 $216 $122 $74 $130 forward $70 $-1 #
edge $-1 $132 23.574788258473049 $217 43.45840747433509 $129 $218 forward 7 unknown #
coedge $-1 $123 $75 $122 $205 reversed $45 $-1 #
vertex $-1 $130 $219 #
vertex $-1 $128 $220 #
straight-curve $-1 -57.091386124877118 0 8.0841343456104084 0 -1 0 I I #
face $-1 $221 $222 $17 $-1 $223 reversed single #
loop $-1 $-1 $224 $77 #
plane-surface $-1 0 -39.021467290687276 0 0 1 0 0 0 1 forward_v I I I I #
coedge $-1 $225 $226 $140 $227 forward $78 $-1 #
coedge $-1 $228 $80 $143 $229 reversed $49 $-1 #
coedge $-1 $80 $228 $138 $227 reversed $49 $-1 #
coedge $-1 $230 $146 $80 $142 forward $222 $-1 #
edge $-1 $231 1.6122574435066692 $232 11.331496360700809 $141 $233 forward 7 unknown #
coedge $-1 $82 $81 $139 $229 forward $32 $-1 #
coedge $-1 $234 $224 $81 $145 forward $136 $-1 #
edge $-1 $235 23.574788258473049 $151 43.45840747433509 $144 $236 forward 7 unknown #
coedge $-1 $141 $237 $82 $147 forward $222 $-1 #
edge $-1 $152 -43.45840747433509 $231 -23.574788258473049 $146 $238 forward 7 unknown #
coedge $-1 $239 $83 $237 $240 reversed $150 $-1 #
coedge $-1 $83 $239 $234 $241 forward $150 $-1 #
loop $-1 $-1 $83 $221 #
vertex $-1 $145 $242 #
vertex $-1 $84 $243 #
straight-curve $-1 76.975005340739159 0 8.0841343456104084 0 1 0 I I #
face $-1 $-1 $244 $18 $-1 $245 reversed single #
loop $-1 $-1 $91 $85 #
plane-surface $-1 0 0 17.803373262804548 0 0 1 1 0 0 forward_v I I I I #
coedge $-1 $246 $247 $248 $249 reversed $86 $-1 #
coedge $-1 $250 $88 $90 $164 forward $53 $-1 #
coedge $-1 $88 $250 $246 $251 forward $53 $-1 #
coedge $-1 $248 $91 $88 $161 forward $155 $-1 #
edge $-1 $167 8.827451311960953 $252 32.435864157655097 $160 $253 forward 7 unknown #
coedge $-1 $254 $255 $89 $163 forward $244 $-1 #
edge $-1 $256 -61.846931995951131 $166 -44.897868826837247 $162 $257 forward 7 unknown #
edge $-1 $167 -28.835468202841632 $256 8.7502459990790685e-015 $90 $258 forward 7 unknown #
coedge $-1 $91 $248 $254 $259 forward $155 $-1 #
vertex $-1 $163 $260 #
vertex $-1 $92 $261 #
straight-curve $-1 -29.459109046768976 -64.755507157795122 17.803373262804548 0 1 0 I I #
coedge $-1 $169 $169 $-1 $262 reversed $95 $-1 #
edge $-1 $263 0 $263 6.2831853071796004 $96 $264 forward 7 unknown #
vertex $-1 $99 $265 #
ellipse-curve $-1 -41.263315469616046 -27.357275460919581 9.3288416782476009 0 -0.5877852598018023 0.80901698891910034 5 0 0 1 I I #
face $-1 $-1 $115 $15 $-1 $266 reversed single #
loop $-1 $-1 $189 $100 #
plane-surface $-1 0 39.021467290687276 0 0 -1 0 0 0 -1 forward_v I I I I #
coedge $-1 $267 $187 $190 $268 forward $101 $-1 #
coedge $-1 $193 $103 $104 $181 reversed $62 $-1 #
coedge $-1 $187 $267 $103 $179 reversed $101 $-1 #
edge $-1 $194 -17.803373262804548 $269 17.803373262804548 $178 $270 forward 7 unknown #
coedge $-1 $105 $104 $267 $271 forward $41 $-1 #
edge $-1 $185 -76.975005340739159 $269 76.975005340739159 $177 $272 forward 7 unknown #
coedge $-1 $190 $189 $105 $183 reversed $174 $-1 #
edge $-1 $273 -76.975005340739159 $184 76.975005340739159 $182 $274 forward 7 unknown #
vertex $-1 $107 $275 #
vertex $-1 $196 $276 #
straight-curve $-1 76.975005340739159 0 -17.803373262804548 0 -1 0 I I #
coedge $-1 $176 $178 $108 $188 reversed $101 $-1 #
edge $-1 $191 -39.021467290687276 $194 39.021467290687276 $187 $277 forward 7 unknown #
coedge $-1 $182 $109 $114 $197 forward $174 $-1 #
coedge $-1 $109 $182 $176 $268 reversed $174 $-1 #
vertex $-1 $110 $278 #
straight-curve $-1 0 39.021467290687276 17.803373262804548 -1 0 0 I I #
coedge $-1 $111 $177 $113 $196 reversed $62 $-1 #
vertex $-1 $188 $279 #
straight-curve $-1 0 -39.021467290687276 17.803373262804548 1 0 0 I I #
edge $-1 $116 -17.803373262804548 $185 17.803373262804548 $113 $280 forward 7 unknown #
edge $-1 $117 -17.803373262804548 $184 17.803373262804548 $114 $281 forward 7 unknown #
point $-1 76.975005340739159 -39.021467290687276 17.803373262804548 #
point $-1 76.975005340739159 39.021467290687276 17.803373262804548 #
face $-1 $-1 $209 $16 $-1 $282 reversed single #
loop $-1 $-1 $206 $119 #
plane-surface $-1 0 0 17.803373262804548 0 0 1 1 0 0 forward_v I I I I #
coedge $-1 $283 $284 $126 $212 forward $120 $-1 #
coedge $-1 $122 $216 $285 $286 reversed $70 $-1 #
edge $-1 $287 -11.331496360700809 $132 -1.6122574435066692 $122 $288 forward 7 unknown #
coedge $-1 $285 $289 $123 $207 forward $201 $-1 #
edge $-1 $210 -39.021467290687276 $287 39.021467290687276 $206 $290 forward 7 unknown #
coedge $-1 $213 $124 $289 $291 reversed $209 $-1 #
loop $-1 $-1 $124 $200 #
vertex $-1 $125 $292 #
straight-curve $-1 -57.091386124877118 -39.021467290687276 6.4718769021037392 0 0 1 I I #
edge $-1 $217 -39.021467290687276 $214 39.021467290687276 $203 $293 forward 7 unknown #
coedge $-1 $127 $208 $283 $294 forward $209 $-1 #
vertex $-1 $212 $295 #
straight-curve $-1 -33.516597866404069 -39.021467290687276 8.0841343456104084 1 0 0 I I #
coedge $-1 $204 $129 $284 $296 reversed $70 $-1 #
vertex $-1 $212 $297 #
straight-curve $-1 -33.516597866404069 39.021467290687276 8.0841343456104084 -1 0 0 I I #
point $-1 -57.091386124877118 39.021467290687276 8.0841343456104084 #
point $-1 -57.091386124877118 -39.021467290687276 8.0841343456104084 #
face $-1 $-1 $150 $17 $-1 $298 reversed single #
loop $-1 $-1 $141 $135 #
plane-surface $-1 0 39.021467290687276 0 0 -1 0 0 0 -1 forward_v I I I I #
coedge $-1 $144 $299 $228 $300 forward $136 $-1 #
coedge $-1 $301 $138 $299 $302 forward $78 $-1 #
coedge $-1 $138 $301 $230 $303 forward $78 $-1 #
edge $-1 $232 -39.021467290687276 $304 39.021467290687276 $138 $305 forward 7 unknown #
coedge $-1 $140 $139 $224 $300 reversed $49 $-1 #
edge $-1 $235 -39.021467290687276 $231 39.021467290687276 $139 $306 forward 7 unknown #
coedge $-1 $237 $141 $226 $303 reversed $222 $-1 #
vertex $-1 $147 $307 #
vertex $-1 $142 $308 #
straight-curve $-1 57.091386124877118 39.021467290687276 6.4718769021037392 0 0 1 I I #
coedge $-1 $299 $144 $149 $241 reversed $136 $-1 #
vertex $-1 $145 $309 #
straight-curve $-1 33.516597866404069 -39.021467290687276 8.0841343456104084 1 0 0 I I #
coedge $-1 $146 $230 $148 $240 forward $222 $-1 #
straight-curve $-1 33.516597866404069 39.021467290687276 8.0841343456104084 -1 0 0 I I #
coedge $-1 $149 $148 $301 $310 reversed $150 $-1 #
edge $-1 $311 -17.803373262804548 $152 -8.0841343456104084 $148 $312 forward 7 unknown #
edge $-1 $313 -17.803373262804548 $151 -8.0841343456104084 $149 $314 forward 7 unknown #
point $-1 76.975005340739159 -39.021467290687276 8.0841343456104084 #
point $-1 76.975005340739159 39.021467290687276 8.0841343456104084 #
loop $-1 $-1 $162 $154 #
plane-surface $-1 0 -39.021467290687276 0 0 1 0 0 0 1 forward_v I I I I #
coedge $-1 $247 $157 $159 $251 reversed $86 $-1 #
coedge $-1 $157 $246 $315 $316 reversed $86 $-1 #
coedge $-1 $165 $160 $157 $249 forward $155 $-1 #
edge $-1 $252 -49.062423526643251 $317 -25.734039867107846 $248 $318 forward 7 unknown #
coedge $-1 $159 $158 $255 $319 reversed $53 $-1 #
edge $-1 $320 -8.7502459990790685e-015 $252 28.835468202841632 $246 $321 forward 7 unknown #
vertex $-1 $161 $322 #
straight-curve $-1 -20.631657734808023 -15.693083631151872 17.803373262804548 -1 0 0 I I #
coedge $-1 $315 $162 $165 $259 reversed $244 $-1 #
coedge $-1 $162 $315 $250 $319 forward $244 $-1 #
vertex $-1 $163 $323 #
straight-curve $-1 -29.459109046768976 -39.021467290687276 62.701242089641795 0 0 1 I I #
straight-curve $-1 -29.459109046768976 -39.021467290687269 0.85431009369067112 0 -0.80901698891910034 -0.5877852598018023 I I #
edge $-1 $317 -53.06752189246312 $166 -29.459109046768976 $254 $324 forward 7 unknown #
point $-1 -29.459109046768976 -39.021467290687276 17.803373262804548 #
point $-1 -29.459109046768976 -15.693083631151872 17.803373262804548 #
edge $-1 $325 1 $325 0 $169 $-1 forward 7 unknown #
vertex $-1 $170 $326 #
ellipse-curve $-1 -41.263315469616046 -17.686362979937282 -3.9820271552148601 0 -0.5877852598018023 0.80901698891910034 5 0 0 1 I I #
point $-1 -36.263315469616046 -27.357275460919602 9.3288416782476276 #
plane-surface $-1 76.975005340739159 0 0 -1 0 0 0 0 1 forward_v I I I I #
coedge $-1 $178 $176 $180 $271 reversed $101 $-1 #
edge $-1 $191 -17.803373262804548 $273 17.803373262804548 $190 $327 forward 7 unknown #
vertex $-1 $271 $328 #
straight-curve $-1 -76.975005340739159 -39.021467290687276 0 0 0 -1 I I #
edge $-1 $269 -39.021467290687276 $273 39.021467290687276 $267 $329 forward 7 unknown #
straight-curve $-1 0 -39.021467290687276 -17.803373262804548 -1 0 0 I I #
vertex $-1 $183 $330 #
straight-curve $-1 0 39.021467290687276 -17.803373262804548 1 0 0 I I #
point $-1 76.975005340739159 39.021467290687276 -17.803373262804548 #
point $-1 76.975005340739159 -39.021467290687276 -17.803373262804548 #
straight-curve $-1 -76.975005340739159 0 17.803373262804548 0 -1 0 I I #
point $-1 -76.975005340739159 39.021467290687276 17.803373262804548 #
point $-1 -76.975005340739159 -39.021467290687276 17.803373262804548 #
straight-curve $-1 76.975005340739159 -39.021467290687276 0 0 0 -1 I I #
straight-curve $-1 76.975005340739159 39.021467290687276 0 0 0 -1 I I #
plane-surface $-1 0 -39.021467290687276 0 0 1 0 0 0 1 forward_v I I I I #
coedge $-1 $331 $203 $213 $294 reversed $120 $-1 #
coedge $-1 $203 $331 $216 $296 forward $120 $-1 #
coedge $-1 $332 $206 $204 $286 forward $201 $-1 #
edge $-1 $287 57.091386124877118 $333 76.975005340739159 $204 $334 forward 7 unknown #
vertex $-1 $286 $335 #
straight-curve $-1 -57.091386124877118 39.021467290687276 6.4718769021037392 0 0 -1 I I #
coedge $-1 $206 $332 $208 $291 forward $201 $-1 #
straight-curve $-1 -57.091386124877118 0 17.803373262804548 0 1 0 I I #
edge $-1 $336 -76.975005340739159 $210 -57.091386124877118 $208 $337 forward 7 unknown #
point $-1 -57.091386124877118 -39.021467290687276 17.803373262804548 #
straight-curve $-1 -76.975005340739159 0 8.0841343456104084 0 -1 0 I I #
edge $-1 $336 -17.803373262804548 $214 -8.0841343456104084 $283 $338 forward 7 unknown #
point $-1 -76.975005340739159 -39.021467290687276 8.0841343456104084 #
edge $-1 $333 -17.803373262804548 $217 -8.0841343456104084 $216 $339 forward 7 unknown #
point $-1 -76.975005340739159 39.021467290687276 8.0841343456104084 #
plane-surface $-1 76.975005340739159 0 0 -1 0 0 0 0 1 forward_v I I I I #
coedge $-1 $224 $234 $225 $302 reversed $136 $-1 #
edge $-1 $304 -11.331496360700809 $235 -1.6122574435066692 $224 $340 forward 7 unknown #
coedge $-1 $226 $225 $239 $310 forward $78 $-1 #
edge $-1 $304 57.091386124877118 $313 76.975005340739159 $299 $341 forward 7 unknown #
edge $-1 $311 -76.975005340739159 $232 -57.091386124877118 $230 $342 forward 7 unknown #
vertex $-1 $302 $343 #
straight-curve $-1 57.091386124877118 0 17.803373262804548 0 -1 0 I I #
straight-curve $-1 57.091386124877118 0 8.0841343456104084 0 1 0 I I #
point $-1 57.091386124877118 39.021467290687276 8.0841343456104084 #
point $-1 57.091386124877118 39.021467290687276 17.803373262804548 #
point $-1 57.091386124877118 -39.021467290687276 8.0841343456104084 #
edge $-1 $313 -39.021467290687276 $311 39.021467290687276 $239 $344 forward 7 unknown #
vertex $-1 $310 $345 #
straight-curve $-1 76.975005340739159 39.021467290687276 0 0 0 -1 I I #
vertex $-1 $310 $346 #
straight-curve $-1 76.975005340739159 -39.021467290687276 0 0 0 -1 I I #
coedge $-1 $255 $254 $247 $316 forward $244 $-1 #
edge $-1 $317 44.897868826837247 $320 61.846931995951131 $315 $347 forward 7 unknown #
vertex $-1 $259 $348 #
straight-curve $-1 -53.06752189246312 -64.755507157795122 17.803373262804548 0 -1 0 I I #
edge $-1 $320 -32.435864157655097 $256 -8.827451311960953 $255 $349 forward 7 unknown #
vertex $-1 $319 $350 #
straight-curve $-1 -53.06752189246312 -39.021467290687269 0.85431009369067112 0 0.80901698891910034 0.5877852598018023 I I #
point $-1 -53.06752189246312 -15.693083631151872 17.803373262804548 #
point $-1 -29.459109046768976 -39.021467290687276 0.85431009369066602 #
straight-curve $-1 0 -39.021467290687276 17.803373262804548 1 0 0 I I #
vertex $-1 $262 $351 #
point $-1 -36.263315469616046 -17.686362979937282 -3.9820271552148601 #
straight-curve $-1 -76.975005340739159 39.021467290687276 0 0 0 -1 I I #
point $-1 -76.975005340739159 -39.021467290687276 -17.803373262804548 #
straight-curve $-1 -76.975005340739159 0 -17.803373262804548 0 1 0 I I #
point $-1 -76.975005340739159 39.021467290687276 -17.803373262804548 #
coedge $-1 $284 $283 $332 $352 reversed $120 $-1 #
coedge $-1 $289 $285 $331 $352 forward $201 $-1 #
vertex $-1 $286 $353 #
straight-curve $-1 0 39.021467290687276 17.803373262804548 -1 0 0 I I #
point $-1 -57.091386124877118 39.021467290687276 17.803373262804548 #
vertex $-1 $352 $354 #
straight-curve $-1 0 -39.021467290687276 17.803373262804548 1 0 0 I I #
straight-curve $-1 -76.975005340739159 -39.021467290687276 0 0 0 -1 I I #
straight-curve $-1 -76.975005340739159 39.021467290687276 0 0 0 -1 I I #
straight-curve $-1 57.091386124877118 -39.021467290687276 6.4718769021037392 0 0 -1 I I #
straight-curve $-1 0 -39.021467290687276 17.803373262804548 1 0 0 I I #
straight-curve $-1 0 39.021467290687276 17.803373262804548 -1 0 0 I I #
point $-1 57.091386124877118 -39.021467290687276 17.803373262804548 #
straight-curve $-1 76.975005340739159 0 17.803373262804548 0 1 0 I I #
point $-1 76.975005340739159 39.021467290687276 17.803373262804548 #
point $-1 76.975005340739159 -39.021467290687276 17.803373262804548 #
straight-curve $-1 -53.06752189246312 -39.021467290687276 62.701242089641795 0 0 -1 I I #
point $-1 -53.06752189246312 -39.021467290687276 17.803373262804548 #
straight-curve $-1 -20.631657734808023 -39.021467290687276 0.85431009369066191 1 0 0 I I #
point $-1 -53.06752189246312 -39.021467290687276 0.85431009369066602 #
point $-1 -41.263315469616046 -14.747436680928271 -8.0271120998103616 #
edge $-1 $333 -39.021467290687276 $336 39.021467290687276 $331 $355 forward 7 unknown #
point $-1 -76.975005340739159 39.021467290687276 17.803373262804548 #
point $-1 -76.975005340739159 -39.021467290687276 17.803373262804548 #
straight-curve $-1 -76.975005340739159 0 17.803373262804548 0 -1 0 I I #
End-of-ACIS-data 