500 0 8 0           
7 Unknown 11 ACIS 5.0 NT 24 Fri Mar 26 15:07:20 1999 
-1 9.9999999999999995e-007 1e-010 
body $-1 $8 $-1 $9 #
body $-1 $10 $-1 $11 #
body $-1 $12 $-1 $13 #
body $-1 $14 $-1 $15 #
body $-1 $16 $-1 $17 #
body $-1 $18 $-1 $19 #
body $-1 $20 $-1 $21 #
body $-1 $22 $-1 $23 #
lump $-1 $-1 $24 $0 #
transform $-1 1 0 0 0 1 0 0 0 1 53.108310190130311 24.134482977298941 5.1753576659441212 1 rotate no_reflect no_shear #
lump $-1 $-1 $25 $1 #
transform $-1 1 0 0 0 1 0 0 0 1 53.108310190130311 24.134482977298941 5.1753576659441212 1 rotate no_reflect no_shear #
lump $-1 $-1 $26 $2 #
transform $-1 1 0 0 0 1 0 0 0 1 53.108310190130311 24.134482977298941 5.1753576659441212 1 rotate no_reflect no_shear #
lump $-1 $-1 $27 $3 #
transform $-1 1 0 0 0 1 0 0 0 1 53.108310190130311 24.134482977298941 5.1753576659441212 1 rotate no_reflect no_shear #
lump $-1 $-1 $28 $4 #
transform $-1 1 0 0 0 1 0 0 0 1 53.108310190130311 24.134482977298941 5.1753576659441212 1 rotate no_reflect no_shear #
lump $-1 $-1 $29 $5 #
transform $-1 1 0 0 0 1 0 0 0 1 53.108310190130311 24.134482977298941 5.1753576659441212 1 rotate no_reflect no_shear #
lump $-1 $-1 $30 $6 #
transform $-1 1 0 0 0 1 0 0 0 1 53.108310190130311 24.134482977298941 5.1753576659441212 1 rotate no_reflect no_shear #
lump $-1 $-1 $31 $7 #
transform $-1 1 0 0 0 1 0 0 0 1 53.108310190130311 24.134482977298941 5.1753576659441212 1 rotate no_reflect no_shear #
shell $-1 $-1 $-1 $32 $-1 $8 #
shell $-1 $-1 $-1 $33 $-1 $10 #
shell $-1 $-1 $-1 $34 $-1 $12 #
shell $-1 $-1 $-1 $35 $-1 $14 #
shell $-1 $-1 $-1 $36 $-1 $16 #
shell $-1 $-1 $-1 $37 $-1 $18 #
shell $-1 $-1 $-1 $38 $-1 $20 #
shell $-1 $-1 $-1 $39 $-1 $22 #
face $-1 $40 $41 $24 $-1 $42 forward single #
face $-1 $43 $44 $25 $-1 $45 forward single #
face $-1 $46 $47 $26 $-1 $48 reversed single #
face $-1 $49 $50 $27 $-1 $51 forward single #
face $-1 $52 $53 $28 $-1 $54 forward single #
face $-1 $55 $56 $29 $-1 $57 reversed single #
face $-1 $58 $59 $30 $-1 $60 forward single #
face $-1 $61 $62 $31 $-1 $63 forward single #
face $-1 $64 $65 $24 $-1 $66 reversed single #
loop $-1 $-1 $67 $32 #
plane-surface $-1 0 0 5.1753576659441212 0 0 1 1 0 0 forward_v I I I I #
face $-1 $68 $69 $25 $-1 $70 reversed single #
loop $-1 $-1 $71 $33 #
plane-surface $-1 0 -24.134482977298941 0 0 1 0 0 0 1 forward_v I I I I #
face $-1 $72 $73 $26 $-1 $74 reversed single #
loop $-1 $-1 $75 $34 #
plane-surface $-1 -114.03166157426634 -11.104092462861242 88.464593390395208 0 1 0 -0.57357644374324357 0 0.81915203911291934 forward_v I I I I #
face $-1 $76 $77 $27 $-1 $78 forward single #
loop $-1 $79 $80 $35 #
cone-surface $-1 -50.134985309559632 -8.2919123356376812 2.861807678588729 0.57357644374324357 0 -0.81915203911291934 0.81915203911291934 0 0.57357644374324357 1 I I 0 1 1 forward I I I I #
face $-1 $81 $82 $28 $-1 $83 forward single #
loop $-1 $84 $85 $36 #
cone-surface $-1 -50.134985309559632 -4.0736421448023385 2.861807678588729 0.57357644374324357 0 -0.81915203911291934 0.81915203911291934 0 0.57357644374324357 1 I I 0 1 1 forward I I I I #
face $-1 $86 $87 $29 $-1 $88 reversed single #
loop $-1 $-1 $89 $37 #
plane-surface $-1 16.768501258151588 0.38413893321422776 147.1373460365096 0 -1 0 -0.51503808176128008 0 -0.85716729658548041 forward_v I I I I #
face $-1 $90 $91 $30 $-1 $92 forward single #
loop $-1 $93 $94 $38 #
cone-surface $-1 49.6008787458833 -3.9173695020898194 2.6909731235515024 -0.51503808176128008 0 -0.85716729658548041 0.4285836482927402 0 -0.25751904088064004 1 I I 0 1 0.5 forward I I I I #
face $-1 $95 $96 $31 $-1 $97 forward single #
loop $-1 $98 $99 $39 #
cone-surface $-1 49.6008787458833 -1.3364644409073883 2.6909731235515024 -0.51503808176128008 0 -0.85716729658548041 0.4285836482927402 0 -0.25751904088064004 1 I I 0 1 0.5 forward I I I I #
face $-1 $100 $101 $24 $-1 $102 reversed single #
loop $-1 $-1 $103 $40 #
plane-surface $-1 0 0 -5.1753576659441212 0 0 1 1 0 0 forward_v I I I I #
coedge $-1 $104 $105 $106 $107 forward $41 $-1 #
face $-1 $108 $109 $25 $-1 $110 forward single #
loop $-1 $-1 $111 $43 #
plane-surface $-1 -53.108310190130311 0 0 1 0 0 0 0 -1 forward_v I I I I #
coedge $-1 $112 $113 $114 $115 forward $44 $-1 #
face $-1 $116 $117 $26 $-1 $118 reversed single #
loop $-1 $-1 $119 $46 #
plane-surface $-1 -53.108310190130325 -6.182777240220009 1.4570322182218547 -0.57357644374324357 0 0.81915203911291934 0.81915203911291934 0 0.57357644374324357 forward_v I I I I #
coedge $-1 $120 $121 $122 $123 reversed $47 $-1 #
face $-1 $-1 $124 $27 $-1 $125 forward single #
loop $-1 $126 $127 $49 #
cone-surface $-1 -49.530031694411932 -8.2919123356376812 1.9978443955380092 0.57357644374324357 0 -0.81915203911291934 0.40957601955645967 0 0.28678822187162178 1 I I -0.70710678118654746 0.70710678118654746 0.5 forward I I I I #
loop $-1 $-1 $128 $35 #
coedge $-1 $80 $80 $129 $130 reversed $50 $-1 #
face $-1 $-1 $131 $28 $-1 $132 forward single #
loop $-1 $133 $134 $52 #
cone-surface $-1 -49.530031694411932 -4.0736421448023385 1.9978443955380092 0.57357644374324357 0 -0.81915203911291934 0.40957601955645967 0 0.28678822187162178 1 I I -0.70710678118654746 0.70710678118654746 0.5 forward I I I I #
loop $-1 $-1 $135 $36 #
coedge $-1 $85 $85 $136 $137 reversed $53 $-1 #
face $-1 $138 $139 $29 $-1 $140 reversed single #
loop $-1 $-1 $141 $55 #
plane-surface $-1 -37.937103153663926 -2.6269169714986056 56.091932692715361 0.51503808176128008 0 0.85716729658548041 0.85716729658548041 0 -0.51503808176128008 forward_v I I I I #
coedge $-1 $142 $143 $144 $145 reversed $56 $-1 #
face $-1 $-1 $146 $30 $-1 $147 forward single #
loop $-1 $148 $149 $58 #
cone-surface $-1 49.117689655887176 -3.9173695020898194 1.8868114495346529 -0.51503808176128008 0 -0.85716729658548041 0.2142918241463701 0 -0.12875952044032002 1 I I -0.70710678118654746 0.70710678118654746 0.25 forward I I I I #
loop $-1 $-1 $150 $38 #
coedge $-1 $94 $94 $151 $152 reversed $59 $-1 #
face $-1 $-1 $153 $31 $-1 $154 forward single #
loop $-1 $155 $156 $61 #
cone-surface $-1 49.117689655887176 -1.3364644409073883 1.8868114495346529 -0.51503808176128008 0 -0.85716729658548041 0.2142918241463701 0 -0.12875952044032002 1 I I -0.70710678118654746 0.70710678118654746 0.25 forward I I I I #
loop $-1 $-1 $157 $39 #
coedge $-1 $99 $99 $158 $159 reversed $62 $-1 #
face $-1 $160 $161 $24 $-1 $162 reversed single #
loop $-1 $-1 $163 $64 #
plane-surface $-1 0 -24.134482977298941 0 0 1 0 0 0 1 forward_v I I I I #
coedge $-1 $164 $165 $166 $167 forward $65 $-1 #
coedge $-1 $168 $67 $169 $170 forward $41 $-1 #
coedge $-1 $67 $168 $171 $172 forward $41 $-1 #
coedge $-1 $173 $174 $67 $107 reversed $175 $-1 #
edge $-1 $176 -24.134482977298941 $177 24.134482977298941 $106 $178 forward 7 unknown #
face $-1 $179 $180 $25 $-1 $181 reversed single #
loop $-1 $-1 $182 $68 #
plane-surface $-1 0 -27.291122629584756 -0.045541345837094349 0 0 1 1 0 0 forward_v I I I I #
coedge $-1 $183 $184 $113 $185 forward $69 $-1 #
coedge $-1 $186 $71 $187 $188 reversed $44 $-1 #
coedge $-1 $71 $186 $111 $185 reversed $44 $-1 #
coedge $-1 $189 $182 $71 $115 reversed $109 $-1 #
edge $-1 $190 -53.108310190130311 $191 53.108310190130311 $114 $192 forward 7 unknown #
face $-1 $193 $194 $26 $-1 $195 forward single #
loop $-1 $-1 $196 $72 #
plane-surface $-1 -114.03166157426634 -1.2614620175787756 88.464593390395208 0 -1 0 0.57357644374324357 0 -0.81915203911291934 forward_v I I I I #
coedge $-1 $197 $198 $199 $200 reversed $73 $-1 #
coedge $-1 $121 $75 $201 $202 reversed $47 $-1 #
coedge $-1 $75 $120 $197 $203 reversed $47 $-1 #
coedge $-1 $199 $204 $75 $123 forward $194 $-1 #
edge $-1 $205 3.9075205970028577 $206 9.2178395715920658 $122 $207 forward 7 unknown #
loop $-1 $-1 $129 $76 #
plane-surface $-1 -53.108310190130325 -6.182777240220009 1.4570322182218547 -0.57357644374324357 0 0.81915203911291934 0.81915203911291934 0 0.57357644374324357 forward_v I I I I #
loop $-1 $-1 $208 $49 #
coedge $-1 $127 $127 $128 $209 reversed $77 $-1 #
coedge $-1 $128 $128 $127 $209 forward $79 $-1 #
coedge $-1 $129 $129 $80 $130 forward $124 $-1 #
edge $-1 $210 0 $210 6.2831853071796004 $129 $211 forward 7 unknown #
loop $-1 $-1 $136 $81 #
plane-surface $-1 -53.108310190130325 -6.182777240220009 1.4570322182218547 -0.57357644374324357 0 0.81915203911291934 0.81915203911291934 0 0.57357644374324357 forward_v I I I I #
loop $-1 $-1 $212 $52 #
coedge $-1 $134 $134 $135 $213 reversed $82 $-1 #
coedge $-1 $135 $135 $134 $213 forward $84 $-1 #
coedge $-1 $136 $136 $85 $137 forward $131 $-1 #
edge $-1 $214 0 $214 6.2831853071796004 $136 $215 forward 7 unknown #
face $-1 $216 $217 $29 $-1 $218 reversed single #
loop $-1 $-1 $219 $86 #
plane-surface $-1 16.768501258151588 -5.6379728762114389 147.1373460365096 0 1 0 0.51503808176128008 0 0.85716729658548041 forward_v I I I I #
coedge $-1 $220 $221 $222 $223 reversed $87 $-1 #
coedge $-1 $143 $89 $224 $225 reversed $56 $-1 #
coedge $-1 $89 $142 $220 $226 reversed $56 $-1 #
coedge $-1 $222 $227 $89 $145 forward $228 $-1 #
edge $-1 $229 -44.724059561054517 $230 -38.418055811672119 $144 $231 forward 7 unknown #
loop $-1 $-1 $151 $90 #
plane-surface $-1 -37.937103153663926 -2.6269169714986056 56.091932692715361 0.51503808176128008 0 0.85716729658548041 0.85716729658548041 0 -0.51503808176128008 forward_v I I I I #
loop $-1 $-1 $232 $58 #
coedge $-1 $149 $149 $150 $233 reversed $91 $-1 #
coedge $-1 $150 $150 $149 $233 forward $93 $-1 #
coedge $-1 $151 $151 $94 $152 forward $146 $-1 #
edge $-1 $234 0 $234 6.2831853071796004 $151 $235 forward 7 unknown #
loop $-1 $-1 $158 $95 #
plane-surface $-1 -37.937103153663926 -2.6269169714986056 56.091932692715361 0.51503808176128008 0 0.85716729658548041 0.85716729658548041 0 -0.51503808176128008 forward_v I I I I #
loop $-1 $-1 $236 $61 #
coedge $-1 $156 $156 $157 $237 reversed $96 $-1 #
coedge $-1 $157 $157 $156 $237 forward $98 $-1 #
coedge $-1 $158 $158 $99 $159 forward $153 $-1 #
edge $-1 $238 0 $238 6.2831853071796004 $158 $239 forward 7 unknown #
face $-1 $240 $241 $24 $-1 $242 reversed single #
loop $-1 $-1 $243 $100 #
plane-surface $-1 -53.108310190130311 0 0 1 0 0 0 0 -1 forward_v I I I I #
coedge $-1 $244 $171 $245 $246 forward $101 $-1 #
coedge $-1 $247 $103 $244 $248 forward $65 $-1 #
coedge $-1 $103 $247 $249 $250 forward $65 $-1 #
coedge $-1 $174 $173 $103 $167 reversed $175 $-1 #
edge $-1 $251 -24.134482977298941 $252 24.134482977298941 $166 $253 forward 7 unknown #
coedge $-1 $105 $104 $254 $255 forward $41 $-1 #
coedge $-1 $256 $257 $104 $170 reversed $241 $-1 #
edge $-1 $177 -53.108310190130311 $258 53.108310190130311 $169 $259 forward 7 unknown #
coedge $-1 $163 $260 $105 $172 reversed $101 $-1 #
edge $-1 $261 -53.108310190130311 $176 53.108310190130311 $171 $262 forward 7 unknown #
coedge $-1 $166 $106 $260 $263 forward $175 $-1 #
coedge $-1 $106 $166 $256 $264 reversed $175 $-1 #
loop $-1 $-1 $173 $240 #
vertex $-1 $107 $265 #
vertex $-1 $107 $266 #
straight-curve $-1 53.108310190130311 0 5.1753576659441212 0 1 0 I I #
face $-1 $267 $268 $25 $-1 $269 reversed single #
loop $-1 $-1 $270 $108 #
plane-surface $-1 0 -27.291122629584756 -3.0455413458370941 0 0 1 1 0 0 forward_v I I I I #
coedge $-1 $114 $271 $272 $273 forward $109 $-1 #
coedge $-1 $274 $111 $275 $276 reversed $69 $-1 #
coedge $-1 $111 $274 $189 $277 reversed $69 $-1 #
edge $-1 $190 0.045541345837094349 $278 3.0455413458370941 $111 $279 forward 7 unknown #
coedge $-1 $113 $112 $280 $281 forward $44 $-1 #
coedge $-1 $272 $282 $112 $188 forward $283 $-1 #
edge $-1 $284 -3.0455413458370941 $191 -0.045541345837094349 $187 $285 forward 7 unknown #
coedge $-1 $271 $114 $184 $277 forward $109 $-1 #
vertex $-1 $185 $286 #
vertex $-1 $273 $287 #
straight-curve $-1 0 -24.134482977298941 -0.045541345837094349 1 0 0 I I #
face $-1 $-1 $288 $26 $-1 $289 reversed single #
loop $-1 $-1 $122 $116 #
plane-surface $-1 0 0 5.1753576659441212 0 0 1 1 0 0 forward_v I I I I #
coedge $-1 $290 $291 $292 $293 reversed $117 $-1 #
coedge $-1 $294 $119 $121 $203 forward $73 $-1 #
coedge $-1 $119 $294 $290 $295 forward $73 $-1 #
coedge $-1 $292 $122 $119 $200 forward $194 $-1 #
edge $-1 $206 -8.0127038427512378 $296 1.8299266025312289 $199 $297 forward 7 unknown #
coedge $-1 $298 $299 $120 $202 forward $288 $-1 #
edge $-1 $300 -42.775264476975742 $205 -39.056939029253485 $201 $301 forward 7 unknown #
edge $-1 $206 -6.48270250335933 $300 -1.7372030585532449e-014 $121 $302 forward 7 unknown #
coedge $-1 $122 $292 $298 $303 forward $194 $-1 #
vertex $-1 $202 $304 #
vertex $-1 $123 $305 #
straight-curve $-1 -57.015830787133169 -11.104092462861242 5.1753576659441194 1 0 0 I I #
coedge $-1 $208 $208 $-1 $306 reversed $126 $-1 #
edge $-1 $307 0 $307 6.2831853071796004 $127 $308 forward 7 unknown #
vertex $-1 $130 $309 #
ellipse-curve $-1 -50.453150702835707 -8.2919123356376812 3.3161949420829915 -0.57357644374324357 0 0.81915203911291934 0.81915203911291934 0 0.57357644374324357 1 I I #
coedge $-1 $212 $212 $-1 $310 reversed $133 $-1 #
edge $-1 $311 0 $311 6.2831853071796004 $134 $312 forward 7 unknown #
vertex $-1 $137 $313 #
ellipse-curve $-1 -50.453150702835707 -4.0736421448023385 3.3161949420829915 -0.57357644374324357 0 0.81915203911291934 0.81915203911291934 0 0.57357644374324357 1 I I #
face $-1 $-1 $228 $29 $-1 $314 forward single #
loop $-1 $-1 $315 $138 #
plane-surface $-1 53.108310190130311 0 0 -1 0 0 0 0 1 forward_v I I I I #
coedge $-1 $316 $317 $318 $319 reversed $139 $-1 #
coedge $-1 $320 $141 $143 $226 forward $87 $-1 #
coedge $-1 $141 $320 $316 $321 forward $87 $-1 #
coedge $-1 $318 $144 $141 $223 forward $228 $-1 #
edge $-1 $230 -1.6975974189635306 $322 4.3245143904621361 $222 $323 forward 7 unknown #
coedge $-1 $324 $325 $142 $225 forward $217 $-1 #
edge $-1 $326 -72.182344737354953 $229 -68.39331535231068 $224 $327 forward 7 unknown #
edge $-1 $230 98.859825767934282 $326 106.21662038026061 $143 $328 forward 7 unknown #
coedge $-1 $144 $318 $324 $329 forward $228 $-1 #
loop $-1 $-1 $318 $216 #
vertex $-1 $225 $330 #
vertex $-1 $145 $331 #
straight-curve $-1 8.3842506290757939 0.38413893321422776 5.1753576659441194 -1 0 0 I I #
coedge $-1 $232 $232 $-1 $332 reversed $148 $-1 #
edge $-1 $333 0 $333 6.2831853071796004 $149 $334 forward 7 unknown #
vertex $-1 $152 $335 #
ellipse-curve $-1 49.955308315439112 -3.9173695020898194 3.2808429734219895 0.51503808176128008 0 0.85716729658548041 0.4285836482927402 0 -0.25751904088064004 1 I I #
coedge $-1 $236 $236 $-1 $336 reversed $155 $-1 #
edge $-1 $337 0 $337 6.2831853071796004 $156 $338 forward 7 unknown #
vertex $-1 $159 $339 #
ellipse-curve $-1 49.955308315439112 -1.3364644409073883 3.2808429734219895 0.51503808176128008 0 0.85716729658548041 0.4285836482927402 0 -0.25751904088064004 1 I I #
face $-1 $-1 $175 $24 $-1 $340 reversed single #
loop $-1 $-1 $256 $160 #
plane-surface $-1 0 24.134482977298941 0 0 -1 0 0 0 -1 forward_v I I I I #
coedge $-1 $341 $254 $257 $342 forward $161 $-1 #
coedge $-1 $260 $163 $164 $248 reversed $101 $-1 #
coedge $-1 $254 $341 $163 $246 reversed $161 $-1 #
edge $-1 $261 -5.1753576659441212 $343 5.1753576659441212 $245 $344 forward 7 unknown #
coedge $-1 $165 $164 $341 $345 forward $65 $-1 #
edge $-1 $252 -53.108310190130311 $343 53.108310190130311 $244 $346 forward 7 unknown #
coedge $-1 $257 $256 $165 $250 reversed $241 $-1 #
edge $-1 $347 -53.108310190130311 $251 53.108310190130311 $249 $348 forward 7 unknown #
vertex $-1 $167 $349 #
vertex $-1 $263 $350 #
straight-curve $-1 53.108310190130311 0 -5.1753576659441212 0 -1 0 I I #
coedge $-1 $243 $245 $168 $255 reversed $161 $-1 #
edge $-1 $258 -24.134482977298941 $261 24.134482977298941 $254 $351 forward 7 unknown #
coedge $-1 $249 $169 $174 $264 forward $241 $-1 #
coedge $-1 $169 $249 $243 $342 reversed $241 $-1 #
vertex $-1 $170 $352 #
straight-curve $-1 0 24.134482977298941 5.1753576659441212 -1 0 0 I I #
coedge $-1 $171 $244 $173 $263 reversed $101 $-1 #
vertex $-1 $255 $353 #
straight-curve $-1 0 -24.134482977298941 5.1753576659441212 1 0 0 I I #
edge $-1 $176 -5.1753576659441212 $252 5.1753576659441212 $173 $354 forward 7 unknown #
edge $-1 $177 -5.1753576659441212 $251 5.1753576659441212 $174 $355 forward 7 unknown #
point $-1 53.108310190130311 -24.134482977298941 5.1753576659441212 #
point $-1 53.108310190130311 24.134482977298941 5.1753576659441212 #
face $-1 $-1 $283 $25 $-1 $356 reversed single #
loop $-1 $-1 $357 $179 #
plane-surface $-1 0 -30.447762281870574 -1.5455413458370941 0 1 0 0 0 1 forward_v I I I I #
coedge $-1 $358 $280 $282 $359 forward $180 $-1 #
coedge $-1 $182 $189 $360 $361 forward $109 $-1 #
coedge $-1 $362 $187 $182 $273 reversed $283 $-1 #
edge $-1 $363 -3.1566396522858184 $191 3.1566396522858184 $272 $364 forward 7 unknown #
coedge $-1 $184 $183 $357 $365 reversed $69 $-1 #
coedge $-1 $280 $358 $183 $276 forward $180 $-1 #
edge $-1 $366 -3.1566396522858184 $278 3.1566396522858184 $183 $367 forward 7 unknown #
edge $-1 $190 -3.1566396522858184 $368 3.1566396522858184 $184 $369 forward 7 unknown #
vertex $-1 $185 $370 #
straight-curve $-1 -53.108310190130311 -24.134482977298941 0 0 0 -1 I I #
coedge $-1 $270 $275 $186 $281 reversed $180 $-1 #
edge $-1 $284 -53.108310190130311 $278 53.108310190130311 $280 $371 forward 7 unknown #
coedge $-1 $187 $362 $270 $359 reversed $283 $-1 #
loop $-1 $-1 $187 $267 #
vertex $-1 $188 $372 #
straight-curve $-1 53.108310190130311 -24.134482977298941 0 0 0 1 I I #
point $-1 -53.108310190130311 -24.134482977298937 -0.045541345837094349 #
point $-1 53.108310190130311 -24.134482977298937 -0.045541345837094349 #
loop $-1 $-1 $201 $193 #
plane-surface $-1 -53.108310190130311 0 0 1 0 0 0 0 -1 forward_v I I I I #
coedge $-1 $291 $196 $198 $295 reversed $117 $-1 #
coedge $-1 $196 $290 $373 $374 reversed $117 $-1 #
coedge $-1 $204 $199 $196 $293 forward $194 $-1 #
edge $-1 $296 -9.2178395715920658 $375 -3.9075205970028577 $292 $376 forward 7 unknown #
coedge $-1 $198 $197 $299 $377 reversed $73 $-1 #
edge $-1 $378 1.7372030585532449e-014 $296 6.48270250335933 $290 $379 forward 7 unknown #
vertex $-1 $200 $380 #
straight-curve $-1 -47.797991215541103 -3.0913886201100045 5.1753576659441229 0 1 0 I I #
coedge $-1 $373 $201 $204 $303 reversed $288 $-1 #
coedge $-1 $201 $373 $294 $377 forward $288 $-1 #
vertex $-1 $202 $381 #
straight-curve $-1 -53.108310190130311 -11.104092462861242 44.232296695197604 0 0 1 I I #
straight-curve $-1 -53.108310190130325 -11.104092462861242 1.4570322182218547 -0.81915203911291934 0 -0.57357644374324357 I I #
edge $-1 $375 1.2614620175787756 $205 11.104092462861242 $298 $382 forward 7 unknown #
point $-1 -53.108310190130311 -11.104092462861242 5.1753576659441212 #
point $-1 -47.797991215541103 -11.104092462861242 5.1753576659441212 #
edge $-1 $383 1 $383 0 $208 $-1 forward 7 unknown #
vertex $-1 $209 $384 #
ellipse-curve $-1 -49.816819916283556 -8.2919123356376812 2.4074204150944687 -0.57357644374324357 0 0.81915203911291934 0.81915203911291934 0 0.57357644374324357 1 I I #
point $-1 -49.633998663722785 -8.2919123356376812 3.8897713858262328 #
edge $-1 $385 1 $385 0 $212 $-1 forward 7 unknown #
vertex $-1 $213 $386 #
ellipse-curve $-1 -49.816819916283556 -4.0736421448023385 2.4074204150944687 -0.57357644374324357 0 0.81915203911291934 0.81915203911291934 0 0.57357644374324357 1 I I #
point $-1 -49.633998663722785 -4.0736421448023385 3.8897713858262328 #
plane-surface $-1 0 0 5.1753576659441212 0 0 1 1 0 0 forward_v I I I I #
coedge $-1 $325 $324 $317 $387 forward $217 $-1 #
coedge $-1 $317 $219 $221 $321 reversed $139 $-1 #
coedge $-1 $219 $316 $315 $387 reversed $139 $-1 #
coedge $-1 $227 $222 $219 $319 forward $228 $-1 #
edge $-1 $322 38.418055811672119 $388 44.724059561054517 $318 $389 forward 7 unknown #
coedge $-1 $221 $220 $325 $390 reversed $87 $-1 #
edge $-1 $391 -106.21662038026061 $322 -98.859825767934282 $316 $392 forward 7 unknown #
vertex $-1 $223 $393 #
straight-curve $-1 46.802306440747927 -1.3134584857493028 5.1753576659441123 0 -1 0 I I #
coedge $-1 $315 $224 $227 $329 reversed $217 $-1 #
coedge $-1 $224 $315 $320 $390 forward $217 $-1 #
vertex $-1 $225 $394 #
straight-curve $-1 53.108310190130311 0.38413893321422776 73.568673018254799 0 0 1 I I #
straight-curve $-1 -37.937103153663926 0.38413893321422776 56.091932692715361 0.85716729658548041 0 -0.51503808176128008 I I #
edge $-1 $388 -5.6379728762114389 $229 0.38413893321422776 $324 $395 forward 7 unknown #
point $-1 53.108310190130311 0.38413893321422776 5.1753576659441212 #
point $-1 46.802306440747913 0.38413893321422776 5.1753576659441194 #
edge $-1 $396 1 $396 0 $232 $-1 forward 7 unknown #
vertex $-1 $233 $397 #
ellipse-curve $-1 49.246449176327495 -3.9173695020898194 2.1011032736810229 0.51503808176128008 0 0.85716729658548041 0.4285836482927402 0 -0.25751904088064004 1 I I #
point $-1 50.383891963731848 -3.9173695020898194 3.0233239325413415 #
edge $-1 $398 1 $398 0 $236 $-1 forward 7 unknown #
vertex $-1 $237 $399 #
ellipse-curve $-1 49.246449176327495 -1.3364644409073883 2.1011032736810229 0.51503808176128008 0 0.85716729658548041 0.4285836482927402 0 -0.25751904088064004 1 I I #
point $-1 50.383891963731848 -1.3364644409073883 3.0233239325413415 #
plane-surface $-1 53.108310190130311 0 0 -1 0 0 0 0 1 forward_v I I I I #
coedge $-1 $245 $243 $247 $345 reversed $161 $-1 #
edge $-1 $258 -5.1753576659441212 $347 5.1753576659441212 $257 $400 forward 7 unknown #
vertex $-1 $345 $401 #
straight-curve $-1 -53.108310190130311 -24.134482977298941 0 0 0 -1 I I #
edge $-1 $343 -24.134482977298941 $347 24.134482977298941 $341 $402 forward 7 unknown #
straight-curve $-1 0 -24.134482977298941 -5.1753576659441212 -1 0 0 I I #
vertex $-1 $250 $403 #
straight-curve $-1 0 24.134482977298941 -5.1753576659441212 1 0 0 I I #
point $-1 53.108310190130311 24.134482977298941 -5.1753576659441212 #
point $-1 53.108310190130311 -24.134482977298941 -5.1753576659441212 #
straight-curve $-1 -53.108310190130311 0 5.1753576659441212 0 -1 0 I I #
point $-1 -53.108310190130311 24.134482977298941 5.1753576659441212 #
point $-1 -53.108310190130311 -24.134482977298941 5.1753576659441212 #
straight-curve $-1 53.108310190130311 -24.134482977298941 0 0 0 -1 I I #
straight-curve $-1 53.108310190130311 24.134482977298941 0 0 0 -1 I I #
plane-surface $-1 53.108310190130311 0 0 -1 0 0 0 0 1 forward_v I I I I #
coedge $-1 $404 $360 $274 $365 forward $268 $-1 #
coedge $-1 $275 $270 $404 $405 forward $180 $-1 #
edge $-1 $284 -3.1566396522858184 $406 3.1566396522858184 $282 $407 forward 7 unknown #
coedge $-1 $357 $408 $271 $361 reversed $268 $-1 #
edge $-1 $368 -53.108310190130311 $363 53.108310190130311 $360 $409 forward 7 unknown #
coedge $-1 $282 $272 $408 $410 forward $283 $-1 #
vertex $-1 $273 $411 #
straight-curve $-1 53.108310190130311 -27.291122629584756 -0.045541345837094349 0 1 0 I I #
edge $-1 $368 -1.4999999999999998 $366 1.5 $274 $412 forward 7 unknown #
vertex $-1 $276 $413 #
straight-curve $-1 -53.108310190130311 -27.291122629584756 -3.0455413458370941 0 1 0 I I #
vertex $-1 $277 $414 #
straight-curve $-1 -53.108310190130311 -27.291122629584756 -0.045541345837094349 0 -1 0 I I #
point $-1 -53.108310190130311 -24.134482977298937 -3.0455413458370941 #
straight-curve $-1 0 -24.134482977298941 -3.0455413458370941 -1 0 0 I I #
point $-1 53.108310190130311 -24.134482977298937 -3.0455413458370941 #
coedge $-1 $299 $298 $291 $374 forward $288 $-1 #
edge $-1 $375 39.056939029253485 $378 42.775264476975742 $373 $415 forward 7 unknown #
vertex $-1 $303 $416 #
straight-curve $-1 -57.015830787133169 -1.2614620175787756 5.1753576659441194 -1 0 0 I I #
edge $-1 $378 -1.8299266025312289 $300 8.0127038427512378 $299 $417 forward 7 unknown #
vertex $-1 $377 $418 #
straight-curve $-1 -53.108310190130325 -1.2614620175787756 1.4570322182218547 0.81915203911291934 0 0.57357644374324357 I I #
point $-1 -47.797991215541103 -1.2614620175787756 5.1753576659441212 #
point $-1 -53.108310190130311 -11.104092462861242 1.4570322182218647 #
straight-curve $-1 -53.108310190130311 0 5.1753576659441212 0 -1 0 I I #
vertex $-1 $306 $419 #
point $-1 -48.997667877170635 -8.2919123356376812 2.9809968588377123 #
vertex $-1 $310 $420 #
point $-1 -48.997667877170635 -4.0736421448023385 2.9809968588377123 #
edge $-1 $388 68.39331535231068 $391 72.182344737354953 $315 $421 forward 7 unknown #
vertex $-1 $329 $422 #
straight-curve $-1 8.3842506290757939 -5.6379728762114389 5.1753576659441194 1 0 0 I I #
edge $-1 $391 -4.3245143904621361 $326 1.6975974189635306 $325 $423 forward 7 unknown #
vertex $-1 $390 $424 #
straight-curve $-1 -37.937103153663926 -5.6379728762114389 56.091932692715361 -0.85716729658548041 0 0.51503808176128008 I I #
point $-1 46.802306440747913 -5.6379728762114389 5.1753576659441194 #
point $-1 53.108310190130311 0.38413893321422776 1.3863282808998463 #
straight-curve $-1 53.108310190130311 0 5.1753576659441212 0 1 0 I I #
vertex $-1 $332 $425 #
point $-1 49.675032824620239 -3.9173695020898194 1.8435842328003829 #
vertex $-1 $336 $426 #
point $-1 49.675032824620239 -1.3364644409073883 1.8435842328003829 #
straight-curve $-1 -53.108310190130311 24.134482977298941 0 0 0 -1 I I #
point $-1 -53.108310190130311 -24.134482977298941 -5.1753576659441212 #
straight-curve $-1 -53.108310190130311 0 -5.1753576659441212 0 1 0 I I #
point $-1 -53.108310190130311 24.134482977298941 -5.1753576659441212 #
coedge $-1 $408 $357 $358 $405 reversed $268 $-1 #
edge $-1 $406 -53.108310190130311 $366 53.108310190130311 $404 $427 forward 7 unknown #
vertex $-1 $410 $428 #
straight-curve $-1 53.108310190130311 -27.291122629584756 -3.0455413458370941 0 -1 0 I I #
coedge $-1 $360 $404 $362 $410 reversed $268 $-1 #
straight-curve $-1 0 -30.447762281870574 -0.045541345837094349 1 0 0 I I #
edge $-1 $363 -1.4999999999999998 $406 1.5 $362 $429 forward 7 unknown #
point $-1 53.108310190130311 -30.447762281870574 -0.045541345837094349 #
straight-curve $-1 -53.108310190130311 -30.447762281870574 -1.5455413458370941 0 0 -1 I I #
point $-1 -53.108310190130311 -30.447762281870574 -3.0455413458370941 #
point $-1 -53.108310190130311 -30.447762281870574 -0.045541345837094349 #
straight-curve $-1 -53.108310190130311 -1.2614620175787756 44.232296695197604 0 0 -1 I I #
point $-1 -53.108310190130311 -1.2614620175787756 5.1753576659441212 #
straight-curve $-1 -53.108310190130311 -3.0913886201100045 1.4570322182218625 0 -1 0 I I #
point $-1 -53.108310190130311 -1.2614620175787756 1.4570322182218647 #
point $-1 -49.243243472540307 -8.2919123356376812 1.5882683759815495 #
point $-1 -49.243243472540307 -4.0736421448023385 1.5882683759815495 #
straight-curve $-1 53.108310190130311 -5.6379728762114389 73.568673018254799 0 0 -1 I I #
point $-1 53.108310190130311 -5.6379728762114389 5.1753576659441212 #
straight-curve $-1 53.108310190130311 -1.3134584857493028 1.3863282808998427 0 1 0 I I #
point $-1 53.108310190130311 -5.6379728762114389 1.3863282808998463 #
point $-1 48.988930135446857 -3.9173695020898194 1.6725196253882828 #
point $-1 48.988930135446857 -1.3364644409073883 1.6725196253882828 #
straight-curve $-1 0 -30.447762281870574 -3.0455413458370941 -1 0 0 I I #
point $-1 53.108310190130311 -30.447762281870574 -3.0455413458370941 #
straight-curve $-1 53.108310190130311 -30.447762281870574 -1.5455413458370941 0 0 -1 I I #
End-of-ACIS-data 