500 0 19 0           
7 Unknown 11 ACIS 5.0 NT 24 Thu Mar 25 15:34:13 1999 
-1 9.9999999999999995e-007 1e-010 
body $-1 $19 $-1 $20 #
body $-1 $21 $-1 $22 #
body $-1 $23 $-1 $24 #
body $-1 $25 $-1 $26 #
body $-1 $27 $-1 $28 #
body $-1 $29 $-1 $30 #
body $-1 $31 $-1 $32 #
body $-1 $33 $-1 $34 #
body $-1 $35 $-1 $36 #
body $-1 $37 $-1 $38 #
body $-1 $39 $-1 $40 #
body $-1 $41 $-1 $42 #
body $-1 $43 $-1 $44 #
body $-1 $45 $-1 $46 #
body $-1 $47 $-1 $48 #
body $-1 $49 $-1 $50 #
body $-1 $51 $-1 $52 #
body $-1 $53 $-1 $54 #
body $-1 $55 $-1 $56 #
lump $-1 $-1 $57 $0 #
transform $-1 1 0 0 0 1 0 0 0 1 53.025299844355601 22.404876213113429 6.7174970360573214 1 rotate no_reflect no_shear #
lump $-1 $-1 $58 $1 #
transform $-1 1 0 0 0 1 0 0 0 1 53.025299844355601 22.404876213113429 6.7174970360573214 1 rotate no_reflect no_shear #
lump $-1 $-1 $59 $2 #
transform $-1 1 0 0 0 1 0 0 0 1 53.025299844355601 22.404876213113429 6.7174970360573214 1 rotate no_reflect no_shear #
lump $-1 $-1 $60 $3 #
transform $-1 1 0 0 0 1 0 0 0 1 53.025299844355601 22.404876213113429 6.7174970360573214 1 rotate no_reflect no_shear #
lump $-1 $-1 $61 $4 #
transform $-1 1 0 0 0 1 0 0 0 1 53.025299844355601 22.404876213113429 6.7174970360573214 1 rotate no_reflect no_shear #
lump $-1 $-1 $62 $5 #
transform $-1 1 0 0 0 1 0 0 0 1 53.025299844355601 22.404876213113429 6.7174970360573214 1 rotate no_reflect no_shear #
lump $-1 $-1 $63 $6 #
transform $-1 1 0 0 0 1 0 0 0 1 53.025299844355601 22.404876213113429 6.7174970360573214 1 rotate no_reflect no_shear #
lump $-1 $-1 $64 $7 #
transform $-1 1 0 0 0 1 0 0 0 1 53.025299844355601 22.404876213113429 6.7174970360573214 1 rotate no_reflect no_shear #
lump $-1 $-1 $65 $8 #
transform $-1 1 0 0 0 1 0 0 0 1 53.025299844355601 22.404876213113429 6.7174970360573214 1 rotate no_reflect no_shear #
lump $-1 $-1 $66 $9 #
transform $-1 1 0 0 0 1 0 0 0 1 53.025299844355601 22.404876213113429 6.7174970360573214 1 rotate no_reflect no_shear #
lump $-1 $-1 $67 $10 #
transform $-1 1 0 0 0 1 0 0 0 1 53.025299844355601 22.404876213113429 6.7174970360573214 1 rotate no_reflect no_shear #
lump $-1 $-1 $68 $11 #
transform $-1 1 0 0 0 1 0 0 0 1 53.025299844355601 22.404876213113429 6.7174970360573214 1 rotate no_reflect no_shear #
lump $-1 $-1 $69 $12 #
transform $-1 1 0 0 0 1 0 0 0 1 53.025299844355601 22.404876213113429 6.7174970360573214 1 rotate no_reflect no_shear #
lump $-1 $-1 $70 $13 #
transform $-1 1 0 0 0 1 0 0 0 1 53.025299844355601 22.404876213113429 6.7174970360573214 1 rotate no_reflect no_shear #
lump $-1 $-1 $71 $14 #
transform $-1 1 0 0 0 1 0 0 0 1 53.025299844355601 22.404876213113429 6.7174970360573214 1 rotate no_reflect no_shear #
lump $-1 $-1 $72 $15 #
transform $-1 1 0 0 0 1 0 0 0 1 53.025299844355601 22.404876213113429 6.7174970360573214 1 rotate no_reflect no_shear #
lump $-1 $-1 $73 $16 #
transform $-1 1 0 0 0 1 0 0 0 1 53.025299844355601 22.404876213113429 6.7174970360573214 1 rotate no_reflect no_shear #
lump $-1 $-1 $74 $17 #
transform $-1 1 0 0 0 1 0 0 0 1 53.025299844355601 22.404876213113429 6.7174970360573214 1 rotate no_reflect no_shear #
lump $-1 $-1 $75 $18 #
transform $-1 1 0 0 0 1 0 0 0 1 53.025299844355601 22.404876213113429 6.7174970360573214 1 rotate no_reflect no_shear #
shell $-1 $-1 $-1 $76 $-1 $19 #
shell $-1 $-1 $-1 $77 $-1 $21 #
shell $-1 $-1 $-1 $78 $-1 $23 #
shell $-1 $-1 $-1 $79 $-1 $25 #
shell $-1 $-1 $-1 $80 $-1 $27 #
shell $-1 $-1 $-1 $81 $-1 $29 #
shell $-1 $-1 $-1 $82 $-1 $31 #
shell $-1 $-1 $-1 $83 $-1 $33 #
shell $-1 $-1 $-1 $84 $-1 $35 #
shell $-1 $-1 $-1 $85 $-1 $37 #
shell $-1 $-1 $-1 $86 $-1 $39 #
shell $-1 $-1 $-1 $87 $-1 $41 #
shell $-1 $-1 $-1 $88 $-1 $43 #
shell $-1 $-1 $-1 $89 $-1 $45 #
shell $-1 $-1 $-1 $90 $-1 $47 #
shell $-1 $-1 $-1 $91 $-1 $49 #
shell $-1 $-1 $-1 $92 $-1 $51 #
shell $-1 $-1 $-1 $93 $-1 $53 #
shell $-1 $-1 $-1 $94 $-1 $55 #
face $-1 $95 $96 $57 $-1 $97 forward single #
face $-1 $98 $99 $58 $-1 $100 reversed single #
face $-1 $101 $102 $59 $-1 $103 forward single #
face $-1 $104 $105 $60 $-1 $106 reversed single #
face $-1 $107 $108 $61 $-1 $109 forward single #
face $-1 $110 $111 $62 $-1 $112 forward single #
face $-1 $113 $114 $63 $-1 $115 forward single #
face $-1 $116 $117 $64 $-1 $118 reversed single #
face $-1 $119 $120 $65 $-1 $121 forward single #
face $-1 $122 $123 $66 $-1 $124 forward single #
face $-1 $125 $126 $67 $-1 $127 forward single #
face $-1 $128 $129 $68 $-1 $130 reversed single #
face $-1 $131 $132 $69 $-1 $133 forward single #
face $-1 $134 $135 $70 $-1 $136 forward single #
face $-1 $137 $138 $71 $-1 $139 forward single #
face $-1 $140 $141 $72 $-1 $142 reversed single #
face $-1 $143 $144 $73 $-1 $145 forward single #
face $-1 $146 $147 $74 $-1 $148 forward single #
face $-1 $149 $150 $75 $-1 $151 forward single #
face $-1 $152 $153 $57 $-1 $154 reversed single #
loop $-1 $-1 $155 $76 #
plane-surface $-1 0 0 6.7174970360573214 0 0 1 1 0 0 forward_v I I I I #
face $-1 $156 $157 $58 $-1 $158 reversed single #
loop $-1 $-1 $159 $77 #
plane-surface $-1 -34.391762517538467 -108.20161449282904 65.661517128774719 -1 0 0 0 -0.80901700255871778 0.5877852410284794 forward_v I I I I #
face $-1 $160 $161 $59 $-1 $162 forward single #
loop $-1 $163 $164 $78 #
cone-surface $-1 -43.708531180947034 -20.241596605445768 4.3452859851968011 0 0.80901700255871778 -0.5877852410284794 1 0 0 1 I I 0 1 1 forward I I I I #
face $-1 $165 $166 $60 $-1 $167 reversed single #
loop $-1 $-1 $168 $79 #
plane-surface $-1 -40.628142730643098 46.527001967313907 114.61518750179484 1 0 0 0 -0.57357644374324357 -0.81915203911291934 forward_v I I I I #
face $-1 $169 $170 $61 $-1 $171 forward single #
loop $-1 $172 $173 $80 #
cone-surface $-1 -38.411006501792279 18.237010469009547 3.195608744795122 0 -0.57357644374324357 -0.81915203911291934 1 0 0 1 I I 0 1 1 forward I I I I #
face $-1 $174 $175 $62 $-1 $176 forward single #
loop $-1 $177 $178 $81 #
cone-surface $-1 -35.085302158516058 18.237010469009547 3.195608744795122 0 -0.57357644374324357 -0.81915203911291934 1 0 0 1 I I 0 1 1 forward I I I I #
face $-1 $179 $180 $63 $-1 $181 forward single #
loop $-1 $182 $183 $82 #
cone-surface $-1 -31.759597815239829 18.237010469009547 3.195608744795122 0 -0.57357644374324357 -0.81915203911291934 1 0 0 1 I I 0 1 1 forward I I I I #
face $-1 $184 $185 $64 $-1 $186 reversed single #
loop $-1 $-1 $187 $83 #
plane-surface $-1 -17.237941291632392 46.527001967313907 114.61518750179484 1 0 0 0 -0.57357644374324357 -0.81915203911291934 forward_v I I I I #
face $-1 $188 $189 $65 $-1 $190 forward single #
loop $-1 $191 $192 $84 #
cone-surface $-1 -15.020805062781577 18.237010469009547 3.195608744795122 0 -0.57357644374324357 -0.81915203911291934 1 0 0 1 I I 0 1 1 forward I I I I #
face $-1 $193 $194 $66 $-1 $195 forward single #
loop $-1 $196 $197 $85 #
cone-surface $-1 -11.695100719505348 18.237010469009547 3.195608744795122 0 -0.57357644374324357 -0.81915203911291934 1 0 0 1 I I 0 1 1 forward I I I I #
face $-1 $198 $199 $67 $-1 $200 forward single #
loop $-1 $201 $202 $86 #
cone-surface $-1 -8.369396376229119 18.237010469009547 3.195608744795122 0 -0.57357644374324357 -0.81915203911291934 1 0 0 1 I I 0 1 1 forward I I I I #
face $-1 $203 $204 $68 $-1 $205 reversed single #
loop $-1 $-1 $206 $87 #
plane-surface $-1 6.1522601473783185 46.527001967313907 114.61518750179484 1 0 0 0 -0.57357644374324357 -0.81915203911291934 forward_v I I I I #
face $-1 $207 $208 $69 $-1 $209 forward single #
loop $-1 $210 $211 $88 #
cone-surface $-1 8.3693963762291332 18.237010469009547 3.195608744795122 0 -0.57357644374324357 -0.81915203911291934 1 0 0 1 I I 0 1 1 forward I I I I #
face $-1 $212 $213 $70 $-1 $214 forward single #
loop $-1 $215 $216 $89 #
cone-surface $-1 11.695100719505362 18.237010469009547 3.195608744795122 0 -0.57357644374324357 -0.81915203911291934 1 0 0 1 I I 0 1 1 forward I I I I #
face $-1 $217 $218 $71 $-1 $219 forward single #
loop $-1 $220 $221 $90 #
cone-surface $-1 15.020805062781591 18.237010469009547 3.195608744795122 0 -0.57357644374324357 -0.81915203911291934 1 0 0 1 I I 0 1 1 forward I I I I #
face $-1 $222 $223 $72 $-1 $224 reversed single #
loop $-1 $-1 $225 $91 #
plane-surface $-1 29.542461586389027 46.527001967313907 114.61518750179484 1 0 0 0 -0.57357644374324357 -0.81915203911291934 forward_v I I I I #
face $-1 $226 $227 $73 $-1 $228 forward single #
loop $-1 $229 $230 $92 #
cone-surface $-1 31.759597815239843 18.237010469009547 3.195608744795122 0 -0.57357644374324357 -0.81915203911291934 1 0 0 1 I I 0 1 1 forward I I I I #
face $-1 $231 $232 $74 $-1 $233 forward single #
loop $-1 $234 $235 $93 #
cone-surface $-1 35.085302158516072 18.237010469009547 3.195608744795122 0 -0.57357644374324357 -0.81915203911291934 1 0 0 1 I I 0 1 1 forward I I I I #
face $-1 $236 $237 $75 $-1 $238 forward single #
loop $-1 $239 $240 $94 #
cone-surface $-1 38.411006501792301 18.237010469009547 3.195608744795122 0 -0.57357644374324357 -0.81915203911291934 1 0 0 1 I I 0 1 1 forward I I I I #
face $-1 $241 $242 $57 $-1 $243 reversed single #
loop $-1 $-1 $244 $95 #
plane-surface $-1 0 0 -6.7174970360573214 0 0 1 1 0 0 forward_v I I I I #
coedge $-1 $245 $246 $247 $248 forward $96 $-1 #
face $-1 $249 $250 $58 $-1 $251 forward single #
loop $-1 $-1 $252 $98 #
plane-surface $-1 -43.708531180947034 -22.404876213113411 3.3265398295308231 0 -0.80901700255871778 0.5877852410284794 1 0 0 forward_v I I I I #
coedge $-1 $253 $254 $255 $256 reversed $99 $-1 #
face $-1 $-1 $257 $59 $-1 $258 forward single #
loop $-1 $259 $260 $101 #
cone-surface $-1 -43.708531180947034 -18.905645771025476 3.3746609170852873 0 0.80901700255871778 -0.5877852410284794 0.5 0 0 1 I I -0.70710678118654746 0.70710678118654746 0.5 forward I I I I #
loop $-1 $-1 $261 $78 #
coedge $-1 $164 $164 $262 $263 reversed $102 $-1 #
face $-1 $264 $265 $60 $-1 $266 reversed single #
loop $-1 $-1 $267 $104 #
plane-surface $-1 -35.085302158516058 -14.301123858975394 27.743622517639125 0 0.57357644374324357 0.81915203911291934 1 0 0 forward_v I I I I #
coedge $-1 $268 $269 $270 $271 reversed $105 $-1 #
face $-1 $-1 $272 $61 $-1 $273 forward single #
loop $-1 $274 $275 $107 #
cone-surface $-1 -38.411006501792279 17.121147229436847 1.6019909140107442 0 -0.57357644374324357 -0.81915203911291934 0.5 0 0 1 I I -0.70710678118654746 0.70710678118654746 0.5 forward I I I I #
loop $-1 $-1 $276 $80 #
coedge $-1 $173 $173 $277 $278 reversed $108 $-1 #
face $-1 $-1 $279 $62 $-1 $280 forward single #
loop $-1 $281 $282 $110 #
cone-surface $-1 -35.085302158516058 17.121147229436847 1.6019909140107442 0 -0.57357644374324357 -0.81915203911291934 0.5 0 0 1 I I -0.70710678118654746 0.70710678118654746 0.5 forward I I I I #
loop $-1 $-1 $283 $81 #
coedge $-1 $178 $178 $284 $285 reversed $111 $-1 #
face $-1 $-1 $286 $63 $-1 $287 forward single #
loop $-1 $288 $289 $113 #
cone-surface $-1 -31.759597815239829 17.121147229436847 1.6019909140107442 0 -0.57357644374324357 -0.81915203911291934 0.5 0 0 1 I I -0.70710678118654746 0.70710678118654746 0.5 forward I I I I #
loop $-1 $-1 $290 $82 #
coedge $-1 $183 $183 $291 $292 reversed $114 $-1 #
face $-1 $293 $294 $64 $-1 $295 reversed single #
loop $-1 $-1 $296 $116 #
plane-surface $-1 -11.695100719505348 -14.301123858975394 27.743622517639125 0 0.57357644374324357 0.81915203911291934 1 0 0 forward_v I I I I #
coedge $-1 $297 $298 $299 $300 reversed $117 $-1 #
face $-1 $-1 $301 $65 $-1 $302 forward single #
loop $-1 $303 $304 $119 #
cone-surface $-1 -15.020805062781577 17.121147229436847 1.6019909140107442 0 -0.57357644374324357 -0.81915203911291934 0.5 0 0 1 I I -0.70710678118654746 0.70710678118654746 0.5 forward I I I I #
loop $-1 $-1 $305 $84 #
coedge $-1 $192 $192 $306 $307 reversed $120 $-1 #
face $-1 $-1 $308 $66 $-1 $309 forward single #
loop $-1 $310 $311 $122 #
cone-surface $-1 -11.695100719505348 17.121147229436847 1.6019909140107442 0 -0.57357644374324357 -0.81915203911291934 0.5 0 0 1 I I -0.70710678118654746 0.70710678118654746 0.5 forward I I I I #
loop $-1 $-1 $312 $85 #
coedge $-1 $197 $197 $313 $314 reversed $123 $-1 #
face $-1 $-1 $315 $67 $-1 $316 forward single #
loop $-1 $317 $318 $125 #
cone-surface $-1 -8.369396376229119 17.121147229436847 1.6019909140107442 0 -0.57357644374324357 -0.81915203911291934 0.5 0 0 1 I I -0.70710678118654746 0.70710678118654746 0.5 forward I I I I #
loop $-1 $-1 $319 $86 #
coedge $-1 $202 $202 $320 $321 reversed $126 $-1 #
face $-1 $322 $323 $68 $-1 $324 reversed single #
loop $-1 $-1 $325 $128 #
plane-surface $-1 11.695100719505362 -14.301123858975394 27.743622517639125 0 0.57357644374324357 0.81915203911291934 1 0 0 forward_v I I I I #
coedge $-1 $326 $327 $328 $329 reversed $129 $-1 #
face $-1 $-1 $330 $69 $-1 $331 forward single #
loop $-1 $332 $333 $131 #
cone-surface $-1 8.3693963762291332 17.121147229436847 1.6019909140107442 0 -0.57357644374324357 -0.81915203911291934 0.5 0 0 1 I I -0.70710678118654746 0.70710678118654746 0.5 forward I I I I #
loop $-1 $-1 $334 $88 #
coedge $-1 $211 $211 $335 $336 reversed $132 $-1 #
face $-1 $-1 $337 $70 $-1 $338 forward single #
loop $-1 $339 $340 $134 #
cone-surface $-1 11.695100719505362 17.121147229436847 1.6019909140107442 0 -0.57357644374324357 -0.81915203911291934 0.5 0 0 1 I I -0.70710678118654746 0.70710678118654746 0.5 forward I I I I #
loop $-1 $-1 $341 $89 #
coedge $-1 $216 $216 $342 $343 reversed $135 $-1 #
face $-1 $-1 $344 $71 $-1 $345 forward single #
loop $-1 $346 $347 $137 #
cone-surface $-1 15.020805062781591 17.121147229436847 1.6019909140107442 0 -0.57357644374324357 -0.81915203911291934 0.5 0 0 1 I I -0.70710678118654746 0.70710678118654746 0.5 forward I I I I #
loop $-1 $-1 $348 $90 #
coedge $-1 $221 $221 $349 $350 reversed $138 $-1 #
face $-1 $351 $352 $72 $-1 $353 reversed single #
loop $-1 $-1 $354 $140 #
plane-surface $-1 35.085302158516072 -14.301123858975394 27.743622517639125 0 0.57357644374324357 0.81915203911291934 1 0 0 forward_v I I I I #
coedge $-1 $355 $356 $357 $358 reversed $141 $-1 #
face $-1 $-1 $359 $73 $-1 $360 forward single #
loop $-1 $361 $362 $143 #
cone-surface $-1 31.759597815239843 17.121147229436847 1.6019909140107442 0 -0.57357644374324357 -0.81915203911291934 0.5 0 0 1 I I -0.70710678118654746 0.70710678118654746 0.5 forward I I I I #
loop $-1 $-1 $363 $92 #
coedge $-1 $230 $230 $364 $365 reversed $144 $-1 #
face $-1 $-1 $366 $74 $-1 $367 forward single #
loop $-1 $368 $369 $146 #
cone-surface $-1 35.085302158516072 17.121147229436847 1.6019909140107442 0 -0.57357644374324357 -0.81915203911291934 0.5 0 0 1 I I -0.70710678118654746 0.70710678118654746 0.5 forward I I I I #
loop $-1 $-1 $370 $93 #
coedge $-1 $235 $235 $371 $372 reversed $147 $-1 #
face $-1 $-1 $373 $75 $-1 $374 forward single #
loop $-1 $375 $376 $149 #
cone-surface $-1 38.411006501792301 17.121147229436847 1.6019909140107442 0 -0.57357644374324357 -0.81915203911291934 0.5 0 0 1 I I -0.70710678118654746 0.70710678118654746 0.5 forward I I I I #
loop $-1 $-1 $377 $94 #
coedge $-1 $240 $240 $378 $379 reversed $150 $-1 #
face $-1 $380 $381 $57 $-1 $382 reversed single #
loop $-1 $-1 $383 $152 #
plane-surface $-1 0 -22.404876213113429 0 0 1 0 0 0 1 forward_v I I I I #
coedge $-1 $384 $385 $386 $387 forward $153 $-1 #
coedge $-1 $388 $155 $389 $390 forward $96 $-1 #
coedge $-1 $155 $388 $391 $392 forward $96 $-1 #
coedge $-1 $393 $394 $155 $248 reversed $395 $-1 #
edge $-1 $396 -22.404876213113429 $397 22.404876213113429 $247 $398 forward 7 unknown #
face $-1 $399 $400 $58 $-1 $401 reversed single #
loop $-1 $-1 $255 $156 #
plane-surface $-1 0 0 6.7174970360573214 0 0 1 1 0 0 forward_v I I I I #
coedge $-1 $402 $403 $404 $405 reversed $157 $-1 #
coedge $-1 $254 $159 $406 $407 reversed $99 $-1 #
coedge $-1 $159 $253 $402 $408 reversed $99 $-1 #
coedge $-1 $404 $409 $159 $256 forward $250 $-1 #
edge $-1 $410 31.69593103330109 $411 34.159605582354573 $255 $412 forward 7 unknown #
loop $-1 $-1 $262 $160 #
plane-surface $-1 -43.708531180947034 -22.404876213113411 3.3265398295308231 0 -0.80901700255871778 0.5877852410284794 1 0 0 forward_v I I I I #
loop $-1 $-1 $413 $101 #
coedge $-1 $260 $260 $261 $414 reversed $161 $-1 #
coedge $-1 $261 $261 $260 $414 forward $163 $-1 #
coedge $-1 $262 $262 $164 $263 forward $257 $-1 #
edge $-1 $415 1.7067895358081659e-015 $415 6.2831853071796022 $262 $416 forward 7 unknown #
face $-1 $417 $418 $60 $-1 $419 forward single #
loop $-1 $-1 $420 $165 #
plane-surface $-1 -29.542461586389013 46.527001967313907 114.61518750179484 -1 0 0 0 0.57357644374324357 0.81915203911291934 forward_v I I I I #
coedge $-1 $421 $422 $423 $424 reversed $166 $-1 #
coedge $-1 $269 $168 $425 $426 reversed $105 $-1 #
coedge $-1 $168 $268 $421 $427 reversed $105 $-1 #
coedge $-1 $423 $428 $168 $271 forward $418 $-1 #
edge $-1 $429 0.85862477054352482 $430 7.5362062233491649 $270 $431 forward 7 unknown #
loop $-1 $-1 $277 $169 #
plane-surface $-1 -35.085302158516058 -14.301123858975394 27.743622517639125 0 0.57357644374324357 0.81915203911291934 1 0 0 forward_v I I I I #
loop $-1 $-1 $432 $107 #
coedge $-1 $275 $275 $276 $433 reversed $170 $-1 #
coedge $-1 $276 $276 $275 $433 forward $172 $-1 #
coedge $-1 $277 $277 $173 $278 forward $272 $-1 #
edge $-1 $434 4.3320979111114552e-016 $434 6.2831853071796004 $277 $435 forward 7 unknown #
loop $-1 $-1 $284 $174 #
plane-surface $-1 -35.085302158516058 -14.301123858975394 27.743622517639125 0 0.57357644374324357 0.81915203911291934 1 0 0 forward_v I I I I #
loop $-1 $-1 $436 $110 #
coedge $-1 $282 $282 $283 $437 reversed $175 $-1 #
coedge $-1 $283 $283 $282 $437 forward $177 $-1 #
coedge $-1 $284 $284 $178 $285 forward $279 $-1 #
edge $-1 $438 4.3320979111114552e-016 $438 6.2831853071796004 $284 $439 forward 7 unknown #
loop $-1 $-1 $291 $179 #
plane-surface $-1 -35.085302158516058 -14.301123858975394 27.743622517639125 0 0.57357644374324357 0.81915203911291934 1 0 0 forward_v I I I I #
loop $-1 $-1 $440 $113 #
coedge $-1 $289 $289 $290 $441 reversed $180 $-1 #
coedge $-1 $290 $290 $289 $441 forward $182 $-1 #
coedge $-1 $291 $291 $183 $292 forward $286 $-1 #
edge $-1 $442 4.3320979111114552e-016 $442 6.2831853071796004 $291 $443 forward 7 unknown #
face $-1 $444 $445 $64 $-1 $446 forward single #
loop $-1 $-1 $447 $184 #
plane-surface $-1 -6.1522601473783043 46.527001967313907 114.61518750179484 -1 0 0 0 0.57357644374324357 0.81915203911291934 forward_v I I I I #
coedge $-1 $448 $449 $450 $451 reversed $185 $-1 #
coedge $-1 $298 $187 $452 $453 reversed $117 $-1 #
coedge $-1 $187 $297 $448 $454 reversed $117 $-1 #
coedge $-1 $450 $455 $187 $300 forward $445 $-1 #
edge $-1 $456 0.85862477054352482 $457 7.5362062233491649 $299 $458 forward 7 unknown #
loop $-1 $-1 $306 $188 #
plane-surface $-1 -11.695100719505348 -14.301123858975394 27.743622517639125 0 0.57357644374324357 0.81915203911291934 1 0 0 forward_v I I I I #
loop $-1 $-1 $459 $119 #
coedge $-1 $304 $304 $305 $460 reversed $189 $-1 #
coedge $-1 $305 $305 $304 $460 forward $191 $-1 #
coedge $-1 $306 $306 $192 $307 forward $301 $-1 #
edge $-1 $461 4.3320979111114552e-016 $461 6.2831853071796004 $306 $462 forward 7 unknown #
loop $-1 $-1 $313 $193 #
plane-surface $-1 -11.695100719505348 -14.301123858975394 27.743622517639125 0 0.57357644374324357 0.81915203911291934 1 0 0 forward_v I I I I #
loop $-1 $-1 $463 $122 #
coedge $-1 $311 $311 $312 $464 reversed $194 $-1 #
coedge $-1 $312 $312 $311 $464 forward $196 $-1 #
coedge $-1 $313 $313 $197 $314 forward $308 $-1 #
edge $-1 $465 4.3320979111114552e-016 $465 6.2831853071796004 $313 $466 forward 7 unknown #
loop $-1 $-1 $320 $198 #
plane-surface $-1 -11.695100719505348 -14.301123858975394 27.743622517639125 0 0.57357644374324357 0.81915203911291934 1 0 0 forward_v I I I I #
loop $-1 $-1 $467 $125 #
coedge $-1 $318 $318 $319 $468 reversed $199 $-1 #
coedge $-1 $319 $319 $318 $468 forward $201 $-1 #
coedge $-1 $320 $320 $202 $321 forward $315 $-1 #
edge $-1 $469 4.3320979111114552e-016 $469 6.2831853071796004 $320 $470 forward 7 unknown #
face $-1 $471 $472 $68 $-1 $473 forward single #
loop $-1 $-1 $474 $203 #
plane-surface $-1 17.237941291632406 46.527001967313907 114.61518750179484 -1 0 0 0 0.57357644374324357 0.81915203911291934 forward_v I I I I #
coedge $-1 $475 $476 $477 $478 reversed $204 $-1 #
coedge $-1 $327 $206 $479 $480 reversed $129 $-1 #
coedge $-1 $206 $326 $475 $481 reversed $129 $-1 #
coedge $-1 $477 $482 $206 $329 forward $472 $-1 #
edge $-1 $483 0.85862477054352482 $484 7.5362062233491649 $328 $485 forward 7 unknown #
loop $-1 $-1 $335 $207 #
plane-surface $-1 11.695100719505362 -14.301123858975394 27.743622517639125 0 0.57357644374324357 0.81915203911291934 1 0 0 forward_v I I I I #
loop $-1 $-1 $486 $131 #
coedge $-1 $333 $333 $334 $487 reversed $208 $-1 #
coedge $-1 $334 $334 $333 $487 forward $210 $-1 #
coedge $-1 $335 $335 $211 $336 forward $330 $-1 #
edge $-1 $488 4.3320979111114552e-016 $488 6.2831853071796004 $335 $489 forward 7 unknown #
loop $-1 $-1 $342 $212 #
plane-surface $-1 11.695100719505362 -14.301123858975394 27.743622517639125 0 0.57357644374324357 0.81915203911291934 1 0 0 forward_v I I I I #
loop $-1 $-1 $490 $134 #
coedge $-1 $340 $340 $341 $491 reversed $213 $-1 #
coedge $-1 $341 $341 $340 $491 forward $215 $-1 #
coedge $-1 $342 $342 $216 $343 forward $337 $-1 #
edge $-1 $492 4.3320979111114552e-016 $492 6.2831853071796004 $342 $493 forward 7 unknown #
loop $-1 $-1 $349 $217 #
plane-surface $-1 11.695100719505362 -14.301123858975394 27.743622517639125 0 0.57357644374324357 0.81915203911291934 1 0 0 forward_v I I I I #
loop $-1 $-1 $494 $137 #
coedge $-1 $347 $347 $348 $495 reversed $218 $-1 #
coedge $-1 $348 $348 $347 $495 forward $220 $-1 #
coedge $-1 $349 $349 $221 $350 forward $344 $-1 #
edge $-1 $496 4.3320979111114552e-016 $496 6.2831853071796004 $349 $497 forward 7 unknown #
face $-1 $498 $499 $72 $-1 $500 forward single #
loop $-1 $-1 $501 $222 #
plane-surface $-1 40.628142730643113 46.527001967313907 114.61518750179484 -1 0 0 0 0.57357644374324357 0.81915203911291934 forward_v I I I I #
coedge $-1 $502 $503 $504 $505 reversed $223 $-1 #
coedge $-1 $356 $225 $506 $507 reversed $141 $-1 #
coedge $-1 $225 $355 $502 $508 reversed $141 $-1 #
coedge $-1 $504 $509 $225 $358 forward $499 $-1 #
edge $-1 $510 0.85862477054352482 $511 7.5362062233491649 $357 $512 forward 7 unknown #
loop $-1 $-1 $364 $226 #
plane-surface $-1 35.085302158516072 -14.301123858975394 27.743622517639125 0 0.57357644374324357 0.81915203911291934 1 0 0 forward_v I I I I #
loop $-1 $-1 $513 $143 #
coedge $-1 $362 $362 $363 $514 reversed $227 $-1 #
coedge $-1 $363 $363 $362 $514 forward $229 $-1 #
coedge $-1 $364 $364 $230 $365 forward $359 $-1 #
edge $-1 $515 4.3320979111114552e-016 $515 6.2831853071796004 $364 $516 forward 7 unknown #
loop $-1 $-1 $371 $231 #
plane-surface $-1 35.085302158516072 -14.301123858975394 27.743622517639125 0 0.57357644374324357 0.81915203911291934 1 0 0 forward_v I I I I #
loop $-1 $-1 $517 $146 #
coedge $-1 $369 $369 $370 $518 reversed $232 $-1 #
coedge $-1 $370 $370 $369 $518 forward $234 $-1 #
coedge $-1 $371 $371 $235 $372 forward $366 $-1 #
edge $-1 $519 4.3320979111114552e-016 $519 6.2831853071796004 $371 $520 forward 7 unknown #
loop $-1 $-1 $378 $236 #
plane-surface $-1 35.085302158516072 -14.301123858975394 27.743622517639125 0 0.57357644374324357 0.81915203911291934 1 0 0 forward_v I I I I #
loop $-1 $-1 $521 $149 #
coedge $-1 $376 $376 $377 $522 reversed $237 $-1 #
coedge $-1 $377 $377 $376 $522 forward $239 $-1 #
coedge $-1 $378 $378 $240 $379 forward $373 $-1 #
edge $-1 $523 4.3320979111114552e-016 $523 6.2831853071796004 $378 $524 forward 7 unknown #
face $-1 $525 $526 $57 $-1 $527 reversed single #
loop $-1 $-1 $528 $241 #
plane-surface $-1 -53.025299844355601 0 0 1 0 0 0 0 -1 forward_v I I I I #
coedge $-1 $529 $391 $530 $531 forward $242 $-1 #
coedge $-1 $532 $244 $529 $533 forward $153 $-1 #
coedge $-1 $244 $532 $534 $535 forward $153 $-1 #
coedge $-1 $394 $393 $244 $387 reversed $395 $-1 #
edge $-1 $536 -22.404876213113429 $537 22.404876213113429 $386 $538 forward 7 unknown #
coedge $-1 $246 $245 $539 $540 forward $96 $-1 #
coedge $-1 $541 $542 $245 $390 reversed $526 $-1 #
edge $-1 $397 -53.025299844355601 $543 53.025299844355601 $389 $544 forward 7 unknown #
coedge $-1 $383 $545 $246 $392 reversed $242 $-1 #
edge $-1 $546 -53.025299844355601 $396 53.025299844355601 $391 $547 forward 7 unknown #
coedge $-1 $386 $247 $545 $548 forward $395 $-1 #
coedge $-1 $247 $386 $541 $549 reversed $395 $-1 #
loop $-1 $-1 $393 $525 #
vertex $-1 $248 $550 #
vertex $-1 $248 $551 #
straight-curve $-1 53.025299844355601 0 6.7174970360573214 0 1 0 I I #
face $-1 $-1 $552 $58 $-1 $553 reversed single #
loop $-1 $-1 $554 $249 #
plane-surface $-1 -53.025299844355601 0 0 1 0 0 0 0 -1 forward_v I I I I #
coedge $-1 $555 $252 $254 $408 forward $157 $-1 #
coedge $-1 $252 $555 $554 $556 reversed $157 $-1 #
coedge $-1 $557 $255 $252 $405 forward $250 $-1 #
edge $-1 $411 12.53749692706495 $558 31.171034253882084 $404 $559 forward 7 unknown #
coedge $-1 $560 $561 $253 $407 forward $552 $-1 #
edge $-1 $562 -29.504218734856561 $410 -26.113261528330039 $406 $563 forward 7 unknown #
edge $-1 $411 -4.1914535736600742 $562 3.0201328008180829e-014 $254 $564 forward 7 unknown #
coedge $-1 $255 $557 $560 $565 forward $250 $-1 #
vertex $-1 $407 $566 #
vertex $-1 $256 $567 #
straight-curve $-1 -34.391762517538467 -54.100807246414519 6.7174970360573205 0 1 0 I I #
coedge $-1 $413 $413 $-1 $568 reversed $259 $-1 #
edge $-1 $569 0 $569 6.2831853071796004 $260 $570 forward 7 unknown #
vertex $-1 $263 $571 #
ellipse-curve $-1 -43.708531180947034 -21.173038938586682 5.0220184327940638 0 -0.80901700255871778 0.5877852410284794 1 0 0 1 I I #
face $-1 $-1 $572 $60 $-1 $573 reversed single #
loop $-1 $-1 $270 $264 #
plane-surface $-1 0 0 6.7174970360573214 0 0 1 1 0 0 forward_v I I I I #
coedge $-1 $574 $575 $576 $577 reversed $265 $-1 #
coedge $-1 $578 $267 $269 $427 forward $166 $-1 #
coedge $-1 $267 $578 $574 $579 forward $166 $-1 #
coedge $-1 $576 $270 $267 $424 forward $418 $-1 #
edge $-1 $430 -23.08549165138507 $580 -11.999810507130984 $423 $581 forward 7 unknown #
coedge $-1 $582 $583 $268 $426 forward $572 $-1 #
edge $-1 $584 -55.265789674908682 $429 -50.590096714840094 $425 $585 forward 7 unknown #
edge $-1 $430 36.65793062274706 $584 44.809752426226865 $269 $586 forward 7 unknown #
coedge $-1 $270 $576 $582 $587 forward $418 $-1 #
vertex $-1 $426 $588 #
vertex $-1 $271 $589 #
straight-curve $-1 -40.628142730643098 23.263500983656954 6.7174970360573241 0 -1 0 I I #
coedge $-1 $432 $432 $-1 $590 reversed $274 $-1 #
edge $-1 $591 0 $591 6.2831853071796004 $275 $592 forward 7 unknown #
vertex $-1 $278 $593 #
ellipse-curve $-1 -38.411006501792279 19.066085486710612 4.3796505560230212 0 0.57357644374324357 0.81915203911291934 1 0 0 1 I I #
coedge $-1 $436 $436 $-1 $594 reversed $281 $-1 #
edge $-1 $595 0 $595 6.2831853071796004 $282 $596 forward 7 unknown #
vertex $-1 $285 $597 #
ellipse-curve $-1 -35.085302158516058 19.066085486710612 4.3796505560230212 0 0.57357644374324357 0.81915203911291934 1 0 0 1 I I #
coedge $-1 $440 $440 $-1 $598 reversed $288 $-1 #
edge $-1 $599 0 $599 6.2831853071796004 $289 $600 forward 7 unknown #
vertex $-1 $292 $601 #
ellipse-curve $-1 -31.759597815239829 19.066085486710612 4.3796505560230212 0 0.57357644374324357 0.81915203911291934 1 0 0 1 I I #
face $-1 $-1 $602 $64 $-1 $603 reversed single #
loop $-1 $-1 $299 $293 #
plane-surface $-1 0 0 6.7174970360573214 0 0 1 1 0 0 forward_v I I I I #
coedge $-1 $604 $605 $606 $607 reversed $294 $-1 #
coedge $-1 $608 $296 $298 $454 forward $185 $-1 #
coedge $-1 $296 $608 $604 $609 forward $185 $-1 #
coedge $-1 $606 $299 $296 $451 forward $445 $-1 #
edge $-1 $457 -11.390390931879718 $610 -0.30470978762563039 $450 $611 forward 7 unknown #
coedge $-1 $612 $613 $297 $453 forward $602 $-1 #
edge $-1 $614 -55.265789674908682 $456 -50.590096714840094 $452 $615 forward 7 unknown #
edge $-1 $457 36.65793062274706 $614 44.809752426226865 $298 $616 forward 7 unknown #
coedge $-1 $299 $606 $612 $617 forward $445 $-1 #
vertex $-1 $300 $618 #
vertex $-1 $300 $619 #
straight-curve $-1 -17.237941291632392 23.263500983656954 6.7174970360573241 0 -1 0 I I #
coedge $-1 $459 $459 $-1 $620 reversed $303 $-1 #
edge $-1 $621 0 $621 6.2831853071796004 $304 $622 forward 7 unknown #
vertex $-1 $307 $623 #
ellipse-curve $-1 -15.020805062781577 19.066085486710612 4.3796505560230212 0 0.57357644374324357 0.81915203911291934 1 0 0 1 I I #
coedge $-1 $463 $463 $-1 $624 reversed $310 $-1 #
edge $-1 $625 0 $625 6.2831853071796004 $311 $626 forward 7 unknown #
vertex $-1 $314 $627 #
ellipse-curve $-1 -11.695100719505348 19.066085486710612 4.3796505560230212 0 0.57357644374324357 0.81915203911291934 1 0 0 1 I I #
coedge $-1 $467 $467 $-1 $628 reversed $317 $-1 #
edge $-1 $629 0 $629 6.2831853071796004 $318 $630 forward 7 unknown #
vertex $-1 $321 $631 #
ellipse-curve $-1 -8.369396376229119 19.066085486710612 4.3796505560230212 0 0.57357644374324357 0.81915203911291934 1 0 0 1 I I #
face $-1 $-1 $632 $68 $-1 $633 reversed single #
loop $-1 $-1 $328 $322 #
plane-surface $-1 0 0 6.7174970360573214 0 0 1 1 0 0 forward_v I I I I #
coedge $-1 $634 $635 $636 $637 reversed $323 $-1 #
coedge $-1 $638 $325 $327 $481 forward $204 $-1 #
coedge $-1 $325 $638 $634 $639 forward $204 $-1 #
coedge $-1 $636 $328 $325 $478 forward $472 $-1 #
edge $-1 $484 0.3047097876256375 $640 11.390390931879725 $477 $641 forward 7 unknown #
coedge $-1 $642 $643 $326 $480 forward $632 $-1 #
edge $-1 $644 -55.265789674908682 $483 -50.590096714840094 $479 $645 forward 7 unknown #
edge $-1 $484 36.65793062274706 $644 44.809752426226865 $327 $646 forward 7 unknown #
coedge $-1 $328 $636 $642 $647 forward $472 $-1 #
vertex $-1 $329 $648 #
vertex $-1 $329 $649 #
straight-curve $-1 6.1522601473783185 23.263500983656954 6.7174970360573241 0 -1 0 I I #
coedge $-1 $486 $486 $-1 $650 reversed $332 $-1 #
edge $-1 $651 0 $651 6.2831853071796004 $333 $652 forward 7 unknown #
vertex $-1 $336 $653 #
ellipse-curve $-1 8.3693963762291332 19.066085486710612 4.3796505560230212 0 0.57357644374324357 0.81915203911291934 1 0 0 1 I I #
coedge $-1 $490 $490 $-1 $654 reversed $339 $-1 #
edge $-1 $655 0 $655 6.2831853071796004 $340 $656 forward 7 unknown #
vertex $-1 $343 $657 #
ellipse-curve $-1 11.695100719505362 19.066085486710612 4.3796505560230212 0 0.57357644374324357 0.81915203911291934 1 0 0 1 I I #
coedge $-1 $494 $494 $-1 $658 reversed $346 $-1 #
edge $-1 $659 0 $659 6.2831853071796004 $347 $660 forward 7 unknown #
vertex $-1 $350 $661 #
ellipse-curve $-1 15.020805062781591 19.066085486710612 4.3796505560230212 0 0.57357644374324357 0.81915203911291934 1 0 0 1 I I #
face $-1 $-1 $662 $72 $-1 $663 reversed single #
loop $-1 $-1 $357 $351 #
plane-surface $-1 0 0 6.7174970360573214 0 0 1 1 0 0 forward_v I I I I #
coedge $-1 $664 $665 $666 $667 reversed $352 $-1 #
coedge $-1 $668 $354 $356 $508 forward $223 $-1 #
coedge $-1 $354 $668 $664 $669 forward $223 $-1 #
coedge $-1 $666 $357 $354 $505 forward $499 $-1 #
edge $-1 $511 11.999810507130992 $670 23.085491651385077 $504 $671 forward 7 unknown #
coedge $-1 $672 $673 $355 $507 forward $662 $-1 #
edge $-1 $674 -55.265789674908682 $510 -50.590096714840094 $506 $675 forward 7 unknown #
edge $-1 $511 36.65793062274706 $674 44.809752426226865 $356 $676 forward 7 unknown #
coedge $-1 $357 $666 $672 $677 forward $499 $-1 #
vertex $-1 $358 $678 #
vertex $-1 $358 $679 #
straight-curve $-1 29.542461586389027 23.263500983656954 6.7174970360573241 0 -1 0 I I #
coedge $-1 $513 $513 $-1 $680 reversed $361 $-1 #
edge $-1 $681 0 $681 6.2831853071796004 $362 $682 forward 7 unknown #
vertex $-1 $365 $683 #
ellipse-curve $-1 31.759597815239843 19.066085486710612 4.3796505560230212 0 0.57357644374324357 0.81915203911291934 1 0 0 1 I I #
coedge $-1 $517 $517 $-1 $684 reversed $368 $-1 #
edge $-1 $685 0 $685 6.2831853071796004 $369 $686 forward 7 unknown #
vertex $-1 $372 $687 #
ellipse-curve $-1 35.085302158516072 19.066085486710612 4.3796505560230212 0 0.57357644374324357 0.81915203911291934 1 0 0 1 I I #
coedge $-1 $521 $521 $-1 $688 reversed $375 $-1 #
edge $-1 $689 0 $689 6.2831853071796004 $376 $690 forward 7 unknown #
vertex $-1 $379 $691 #
ellipse-curve $-1 38.411006501792301 19.066085486710612 4.3796505560230212 0 0.57357644374324357 0.81915203911291934 1 0 0 1 I I #
face $-1 $-1 $395 $57 $-1 $692 reversed single #
loop $-1 $-1 $541 $380 #
plane-surface $-1 0 22.404876213113429 0 0 -1 0 0 0 -1 forward_v I I I I #
coedge $-1 $693 $539 $542 $694 forward $381 $-1 #
coedge $-1 $545 $383 $384 $533 reversed $242 $-1 #
coedge $-1 $539 $693 $383 $531 reversed $381 $-1 #
edge $-1 $546 -6.7174970360573214 $695 6.7174970360573214 $530 $696 forward 7 unknown #
coedge $-1 $385 $384 $693 $697 forward $153 $-1 #
edge $-1 $537 -53.025299844355601 $695 53.025299844355601 $529 $698 forward 7 unknown #
coedge $-1 $542 $541 $385 $535 reversed $526 $-1 #
edge $-1 $699 -53.025299844355601 $536 53.025299844355601 $534 $700 forward 7 unknown #
vertex $-1 $387 $701 #
vertex $-1 $548 $702 #
straight-curve $-1 53.025299844355601 0 -6.7174970360573214 0 -1 0 I I #
coedge $-1 $528 $530 $388 $540 reversed $381 $-1 #
edge $-1 $543 -22.404876213113429 $546 22.404876213113429 $539 $703 forward 7 unknown #
coedge $-1 $534 $389 $394 $549 forward $526 $-1 #
coedge $-1 $389 $534 $528 $694 reversed $526 $-1 #
vertex $-1 $390 $704 #
straight-curve $-1 0 22.404876213113429 6.7174970360573214 -1 0 0 I I #
coedge $-1 $391 $529 $393 $548 reversed $242 $-1 #
vertex $-1 $540 $705 #
straight-curve $-1 0 -22.404876213113429 6.7174970360573214 1 0 0 I I #
edge $-1 $396 -6.7174970360573214 $537 6.7174970360573214 $393 $706 forward 7 unknown #
edge $-1 $397 -6.7174970360573214 $536 6.7174970360573214 $394 $707 forward 7 unknown #
point $-1 53.025299844355601 -22.404876213113429 6.7174970360573214 #
point $-1 53.025299844355601 22.404876213113429 6.7174970360573214 #
loop $-1 $-1 $406 $399 #
plane-surface $-1 0 -22.404876213113429 0 0 1 0 0 0 1 forward_v I I I I #
coedge $-1 $708 $709 $403 $556 forward $400 $-1 #
coedge $-1 $403 $402 $561 $710 reversed $157 $-1 #
edge $-1 $558 1.0475605680193731 $711 5.2390141416794771 $554 $712 forward 7 unknown #
coedge $-1 $409 $404 $709 $713 forward $250 $-1 #
vertex $-1 $713 $714 #
straight-curve $-1 -21.854265590473517 -19.941201664059943 6.7174970360573214 -1 0 0 I I #
coedge $-1 $715 $406 $409 $565 reversed $552 $-1 #
coedge $-1 $406 $715 $555 $710 forward $552 $-1 #
vertex $-1 $407 $716 #
straight-curve $-1 -34.391762517538467 -22.404876213113425 32.830758564387359 0 0 1 I I #
straight-curve $-1 -34.391762517538467 -22.404876213113411 3.3265398295308231 0 -0.5877852410284794 -0.80901700255871778 I I #
edge $-1 $717 -53.025299844355601 $410 -34.391762517538467 $560 $718 forward 7 unknown #
point $-1 -34.391762517538467 -22.404876213113429 6.7174970360573214 #
point $-1 -34.391762517538467 -19.941201664059943 6.7174970360573214 #
edge $-1 $719 1 $719 0 $413 $-1 forward 7 unknown #
vertex $-1 $414 $720 #
ellipse-curve $-1 -43.708531180947034 -19.310154272304835 3.6685535375995268 0 -0.80901700255871778 0.5877852410284794 1 0 0 1 I I #
point $-1 -42.708531180947034 -21.173038938586696 5.0220184327940762 #
loop $-1 $-1 $425 $417 #
plane-surface $-1 0 22.404876213113429 0 0 -1 0 0 0 -1 forward_v I I I I #
coedge $-1 $575 $420 $422 $579 reversed $265 $-1 #
coedge $-1 $420 $574 $721 $722 reversed $265 $-1 #
coedge $-1 $428 $423 $420 $577 forward $418 $-1 #
edge $-1 $580 -7.5362062233491649 $723 -0.85862477054352482 $576 $724 forward 7 unknown #
coedge $-1 $422 $421 $583 $725 reversed $166 $-1 #
edge $-1 $726 -44.809752426226865 $580 -36.65793062274706 $574 $727 forward 7 unknown #
vertex $-1 $424 $728 #
straight-curve $-1 -17.542651079258029 15.727294760307789 6.7174970360573205 1 0 0 I I #
coedge $-1 $721 $425 $428 $587 reversed $572 $-1 #
coedge $-1 $425 $721 $578 $725 forward $572 $-1 #
vertex $-1 $426 $729 #
straight-curve $-1 -40.628142730643098 22.404876213113429 57.307593750897418 0 0 1 I I #
straight-curve $-1 -40.628142730643098 -14.301123858975394 27.743622517639125 0 0.81915203911291934 -0.57357644374324357 I I #
edge $-1 $723 29.542461586389013 $429 40.628142730643098 $582 $730 forward 7 unknown #
point $-1 -40.628142730643098 22.404876213113429 6.7174970360573214 #
point $-1 -40.628142730643098 15.727294760307789 6.7174970360573205 #
edge $-1 $731 1 $731 0 $432 $-1 forward 7 unknown #
vertex $-1 $433 $732 #
ellipse-curve $-1 -38.411006501792279 17.407935451308468 2.0115669335672037 0 0.57357644374324357 0.81915203911291934 1 0 0 1 I I #
point $-1 -37.411006501792279 19.066085486710627 4.3796505560230408 #
edge $-1 $733 1 $733 0 $436 $-1 forward 7 unknown #
vertex $-1 $437 $734 #
ellipse-curve $-1 -35.085302158516058 17.407935451308468 2.0115669335672037 0 0.57357644374324357 0.81915203911291934 1 0 0 1 I I #
point $-1 -34.085302158516058 19.066085486710627 4.3796505560230408 #
edge $-1 $735 1 $735 0 $440 $-1 forward 7 unknown #
vertex $-1 $441 $736 #
ellipse-curve $-1 -31.759597815239829 17.407935451308468 2.0115669335672037 0 0.57357644374324357 0.81915203911291934 1 0 0 1 I I #
point $-1 -30.759597815239829 19.066085486710627 4.3796505560230408 #
loop $-1 $-1 $452 $444 #
plane-surface $-1 0 22.404876213113429 0 0 -1 0 0 0 -1 forward_v I I I I #
coedge $-1 $605 $447 $449 $609 reversed $294 $-1 #
coedge $-1 $447 $604 $737 $738 reversed $294 $-1 #
coedge $-1 $455 $450 $447 $607 forward $445 $-1 #
edge $-1 $610 -7.5362062233491649 $739 -0.85862477054352482 $606 $740 forward 7 unknown #
coedge $-1 $449 $448 $613 $741 reversed $185 $-1 #
edge $-1 $742 -44.809752426226865 $610 -36.65793062274706 $604 $743 forward 7 unknown #
vertex $-1 $451 $744 #
straight-curve $-1 -5.8475503597526739 15.727294760307789 6.7174970360573205 1 0 0 I I #
coedge $-1 $737 $452 $455 $617 reversed $602 $-1 #
coedge $-1 $452 $737 $608 $741 forward $602 $-1 #
vertex $-1 $453 $745 #
straight-curve $-1 -17.237941291632392 22.404876213113429 57.307593750897418 0 0 1 I I #
straight-curve $-1 -17.237941291632392 -14.301123858975394 27.743622517639125 0 0.81915203911291934 -0.57357644374324357 I I #
edge $-1 $739 6.1522601473783043 $456 17.237941291632392 $612 $746 forward 7 unknown #
point $-1 -17.237941291632392 22.404876213113429 6.7174970360573214 #
point $-1 -17.237941291632392 15.727294760307789 6.7174970360573205 #
edge $-1 $747 1 $747 0 $459 $-1 forward 7 unknown #
vertex $-1 $460 $748 #
ellipse-curve $-1 -15.020805062781577 17.407935451308468 2.0115669335672037 0 0.57357644374324357 0.81915203911291934 1 0 0 1 I I #
point $-1 -14.020805062781577 19.066085486710627 4.3796505560230408 #
edge $-1 $749 1 $749 0 $463 $-1 forward 7 unknown #
vertex $-1 $464 $750 #
ellipse-curve $-1 -11.695100719505348 17.407935451308468 2.0115669335672037 0 0.57357644374324357 0.81915203911291934 1 0 0 1 I I #
point $-1 -10.695100719505348 19.066085486710627 4.3796505560230408 #
edge $-1 $751 1 $751 0 $467 $-1 forward 7 unknown #
vertex $-1 $468 $752 #
ellipse-curve $-1 -8.369396376229119 17.407935451308468 2.0115669335672037 0 0.57357644374324357 0.81915203911291934 1 0 0 1 I I #
point $-1 -7.369396376229119 19.066085486710627 4.3796505560230408 #
loop $-1 $-1 $479 $471 #
plane-surface $-1 0 22.404876213113429 0 0 -1 0 0 0 -1 forward_v I I I I #
coedge $-1 $635 $474 $476 $639 reversed $323 $-1 #
coedge $-1 $474 $634 $753 $754 reversed $323 $-1 #
coedge $-1 $482 $477 $474 $637 forward $472 $-1 #
edge $-1 $640 -7.5362062233491649 $755 -0.85862477054352482 $636 $756 forward 7 unknown #
coedge $-1 $476 $475 $643 $757 reversed $204 $-1 #
edge $-1 $758 -44.809752426226865 $640 -36.65793062274706 $634 $759 forward 7 unknown #
vertex $-1 $478 $760 #
straight-curve $-1 5.847550359752681 15.727294760307789 6.7174970360573205 1 0 0 I I #
coedge $-1 $753 $479 $482 $647 reversed $632 $-1 #
coedge $-1 $479 $753 $638 $757 forward $632 $-1 #
vertex $-1 $480 $761 #
straight-curve $-1 6.1522601473783185 22.404876213113429 57.307593750897418 0 0 1 I I #
straight-curve $-1 6.1522601473783185 -14.301123858975394 27.743622517639125 0 0.81915203911291934 -0.57357644374324357 I I #
edge $-1 $755 -17.237941291632406 $483 -6.1522601473783185 $642 $762 forward 7 unknown #
point $-1 6.1522601473783185 22.404876213113429 6.7174970360573214 #
point $-1 6.1522601473783185 15.727294760307789 6.7174970360573205 #
edge $-1 $763 1 $763 0 $486 $-1 forward 7 unknown #
vertex $-1 $487 $764 #
ellipse-curve $-1 8.3693963762291332 17.407935451308468 2.0115669335672037 0 0.57357644374324357 0.81915203911291934 1 0 0 1 I I #
point $-1 9.3693963762291332 19.066085486710627 4.3796505560230408 #
edge $-1 $765 1 $765 0 $490 $-1 forward 7 unknown #
vertex $-1 $491 $766 #
ellipse-curve $-1 11.695100719505362 17.407935451308468 2.0115669335672037 0 0.57357644374324357 0.81915203911291934 1 0 0 1 I I #
point $-1 12.695100719505362 19.066085486710627 4.3796505560230408 #
edge $-1 $767 1 $767 0 $494 $-1 forward 7 unknown #
vertex $-1 $495 $768 #
ellipse-curve $-1 15.020805062781591 17.407935451308468 2.0115669335672037 0 0.57357644374324357 0.81915203911291934 1 0 0 1 I I #
point $-1 16.020805062781591 19.066085486710627 4.3796505560230408 #
loop $-1 $-1 $506 $498 #
plane-surface $-1 0 22.404876213113429 0 0 -1 0 0 0 -1 forward_v I I I I #
coedge $-1 $665 $501 $503 $669 reversed $352 $-1 #
coedge $-1 $501 $664 $769 $770 reversed $352 $-1 #
coedge $-1 $509 $504 $501 $667 forward $499 $-1 #
edge $-1 $670 -7.5362062233491649 $771 -0.85862477054352482 $666 $772 forward 7 unknown #
coedge $-1 $503 $502 $673 $773 reversed $223 $-1 #
edge $-1 $774 -44.809752426226865 $670 -36.65793062274706 $664 $775 forward 7 unknown #
vertex $-1 $505 $776 #
straight-curve $-1 17.542651079258036 15.727294760307789 6.7174970360573205 1 0 0 I I #
coedge $-1 $769 $506 $509 $677 reversed $662 $-1 #
coedge $-1 $506 $769 $668 $773 forward $662 $-1 #
vertex $-1 $507 $777 #
straight-curve $-1 29.542461586389027 22.404876213113429 57.307593750897418 0 0 1 I I #
straight-curve $-1 29.542461586389027 -14.301123858975394 27.743622517639125 0 0.81915203911291934 -0.57357644374324357 I I #
edge $-1 $771 -40.628142730643113 $510 -29.542461586389027 $672 $778 forward 7 unknown #
point $-1 29.542461586389027 22.404876213113429 6.7174970360573214 #
point $-1 29.542461586389027 15.727294760307789 6.7174970360573205 #
edge $-1 $779 1 $779 0 $513 $-1 forward 7 unknown #
vertex $-1 $514 $780 #
ellipse-curve $-1 31.759597815239843 17.407935451308468 2.0115669335672037 0 0.57357644374324357 0.81915203911291934 1 0 0 1 I I #
point $-1 32.759597815239843 19.066085486710627 4.3796505560230408 #
edge $-1 $781 1 $781 0 $517 $-1 forward 7 unknown #
vertex $-1 $518 $782 #
ellipse-curve $-1 35.085302158516072 17.407935451308468 2.0115669335672037 0 0.57357644374324357 0.81915203911291934 1 0 0 1 I I #
point $-1 36.085302158516072 19.066085486710627 4.3796505560230408 #
edge $-1 $783 1 $783 0 $521 $-1 forward 7 unknown #
vertex $-1 $522 $784 #
ellipse-curve $-1 38.411006501792301 17.407935451308468 2.0115669335672037 0 0.57357644374324357 0.81915203911291934 1 0 0 1 I I #
point $-1 39.411006501792301 19.066085486710627 4.3796505560230408 #
plane-surface $-1 53.025299844355601 0 0 -1 0 0 0 0 1 forward_v I I I I #
coedge $-1 $530 $528 $532 $697 reversed $381 $-1 #
edge $-1 $543 -6.7174970360573214 $699 6.7174970360573214 $542 $785 forward 7 unknown #
vertex $-1 $697 $786 #
straight-curve $-1 -53.025299844355601 -22.404876213113429 0 0 0 -1 I I #
edge $-1 $695 -22.404876213113429 $699 22.404876213113429 $693 $787 forward 7 unknown #
straight-curve $-1 0 -22.404876213113429 -6.7174970360573214 -1 0 0 I I #
vertex $-1 $535 $788 #
straight-curve $-1 0 22.404876213113429 -6.7174970360573214 1 0 0 I I #
point $-1 53.025299844355601 22.404876213113429 -6.7174970360573214 #
point $-1 53.025299844355601 -22.404876213113429 -6.7174970360573214 #
straight-curve $-1 -53.025299844355601 0 6.7174970360573214 0 -1 0 I I #
point $-1 -53.025299844355601 22.404876213113429 6.7174970360573214 #
point $-1 -53.025299844355601 -22.404876213113429 6.7174970360573214 #
straight-curve $-1 53.025299844355601 -22.404876213113429 0 0 0 -1 I I #
straight-curve $-1 53.025299844355601 22.404876213113429 0 0 0 -1 I I #
coedge $-1 $709 $554 $715 $789 reversed $400 $-1 #
coedge $-1 $554 $708 $557 $713 reversed $400 $-1 #
edge $-1 $711 -31.171034253882084 $562 -12.53749692706495 $561 $790 forward 7 unknown #
vertex $-1 $556 $791 #
straight-curve $-1 -53.025299844355601 -19.325461023094746 7.5649913467950638 0 -0.5877852410284794 -0.80901700255871778 I I #
edge $-1 $558 19.941201664059943 $717 22.404876213113429 $709 $792 forward 7 unknown #
point $-1 -53.025299844355601 -19.941201664059943 6.7174970360573214 #
coedge $-1 $561 $560 $708 $789 forward $552 $-1 #
point $-1 -34.391762517538467 -22.404876213113429 3.3265398295307986 #
vertex $-1 $713 $793 #
straight-curve $-1 0 -22.404876213113429 6.7174970360573214 1 0 0 I I #
vertex $-1 $568 $794 #
point $-1 -42.708531180947034 -19.310154272304835 3.6685535375995268 #
coedge $-1 $583 $582 $575 $722 forward $572 $-1 #
edge $-1 $723 50.590096714840094 $726 55.265789674908682 $721 $795 forward 7 unknown #
vertex $-1 $587 $796 #
straight-curve $-1 -29.542461586389013 23.263500983656954 6.7174970360573241 0 1 0 I I #
edge $-1 $726 11.999810507130984 $584 23.08549165138507 $583 $797 forward 7 unknown #
vertex $-1 $725 $798 #
straight-curve $-1 -29.542461586389013 -14.301123858975394 27.743622517639125 0 -0.81915203911291934 0.57357644374324357 I I #
point $-1 -29.542461586389013 15.727294760307789 6.7174970360573205 #
point $-1 -40.628142730643098 22.404876213113432 2.0418040759887361 #
straight-curve $-1 0 22.404876213113429 6.7174970360573214 -1 0 0 I I #
vertex $-1 $590 $799 #
point $-1 -37.411006501792279 17.407935451308468 2.0115669335672037 #
vertex $-1 $594 $800 #
point $-1 -34.085302158516058 17.407935451308468 2.0115669335672037 #
vertex $-1 $598 $801 #
point $-1 -30.759597815239829 17.407935451308468 2.0115669335672037 #
coedge $-1 $613 $612 $605 $738 forward $602 $-1 #
edge $-1 $739 50.590096714840094 $742 55.265789674908682 $737 $802 forward 7 unknown #
vertex $-1 $617 $803 #
straight-curve $-1 -6.1522601473783043 23.263500983656954 6.7174970360573241 0 1 0 I I #
edge $-1 $742 0.30470978762563039 $614 11.390390931879718 $613 $804 forward 7 unknown #
vertex $-1 $741 $805 #
straight-curve $-1 -6.1522601473783043 -14.301123858975394 27.743622517639125 0 -0.81915203911291934 0.57357644374324357 I I #
point $-1 -6.1522601473783043 15.727294760307789 6.7174970360573205 #
point $-1 -17.237941291632392 22.404876213113432 2.0418040759887361 #
straight-curve $-1 0 22.404876213113429 6.7174970360573214 -1 0 0 I I #
vertex $-1 $620 $806 #
point $-1 -14.020805062781577 17.407935451308468 2.0115669335672037 #
vertex $-1 $624 $807 #
point $-1 -10.695100719505348 17.407935451308468 2.0115669335672037 #
vertex $-1 $628 $808 #
point $-1 -7.369396376229119 17.407935451308468 2.0115669335672037 #
coedge $-1 $643 $642 $635 $754 forward $632 $-1 #
edge $-1 $755 50.590096714840094 $758 55.265789674908682 $753 $809 forward 7 unknown #
vertex $-1 $647 $810 #
straight-curve $-1 17.237941291632406 23.263500983656954 6.7174970360573241 0 1 0 I I #
edge $-1 $758 -11.390390931879725 $644 -0.3047097876256375 $643 $811 forward 7 unknown #
vertex $-1 $757 $812 #
straight-curve $-1 17.237941291632406 -14.301123858975394 27.743622517639125 0 -0.81915203911291934 0.57357644374324357 I I #
point $-1 17.237941291632406 15.727294760307789 6.7174970360573205 #
point $-1 6.1522601473783185 22.404876213113432 2.0418040759887361 #
straight-curve $-1 0 22.404876213113429 6.7174970360573214 -1 0 0 I I #
vertex $-1 $650 $813 #
point $-1 9.3693963762291332 17.407935451308468 2.0115669335672037 #
vertex $-1 $654 $814 #
point $-1 12.695100719505362 17.407935451308468 2.0115669335672037 #
vertex $-1 $658 $815 #
point $-1 16.020805062781591 17.407935451308468 2.0115669335672037 #
coedge $-1 $673 $672 $665 $770 forward $662 $-1 #
edge $-1 $771 50.590096714840094 $774 55.265789674908682 $769 $816 forward 7 unknown #
vertex $-1 $677 $817 #
straight-curve $-1 40.628142730643113 23.263500983656954 6.7174970360573241 0 1 0 I I #
edge $-1 $774 -23.085491651385077 $674 -11.999810507130992 $673 $818 forward 7 unknown #
vertex $-1 $773 $819 #
straight-curve $-1 40.628142730643113 -14.301123858975394 27.743622517639125 0 -0.81915203911291934 0.57357644374324357 I I #
point $-1 40.628142730643113 15.727294760307789 6.7174970360573205 #
point $-1 29.542461586389027 22.404876213113432 2.0418040759887361 #
straight-curve $-1 0 22.404876213113429 6.7174970360573214 -1 0 0 I I #
vertex $-1 $680 $820 #
point $-1 32.759597815239843 17.407935451308468 2.0115669335672037 #
vertex $-1 $684 $821 #
point $-1 36.085302158516072 17.407935451308468 2.0115669335672037 #
vertex $-1 $688 $822 #
point $-1 39.411006501792301 17.407935451308468 2.0115669335672037 #
straight-curve $-1 -53.025299844355601 22.404876213113429 0 0 0 -1 I I #
point $-1 -53.025299844355601 -22.404876213113429 -6.7174970360573214 #
straight-curve $-1 -53.025299844355601 0 -6.7174970360573214 0 1 0 I I #
point $-1 -53.025299844355601 22.404876213113429 -6.7174970360573214 #
edge $-1 $717 -6.7174970360573214 $711 -3.3265398295307986 $708 $823 forward 7 unknown #
straight-curve $-1 -21.854265590473517 -22.404876213113429 3.326539829530796 1 0 0 I I #
point $-1 -53.025299844355601 -22.404876213113429 3.3265398295307986 #
straight-curve $-1 -53.025299844355601 0 6.7174970360573214 0 -1 0 I I #
point $-1 -53.025299844355601 -22.404876213113429 6.7174970360573214 #
point $-1 -43.708531180947034 -18.501137269746117 3.0807682965710477 #
straight-curve $-1 -29.542461586389013 22.404876213113429 57.307593750897418 0 0 -1 I I #
point $-1 -29.542461586389013 22.404876213113429 6.7174970360573214 #
straight-curve $-1 -17.542651079258029 22.404876213113429 2.0418040759887361 -1 0 0 I I #
point $-1 -29.542461586389013 22.404876213113432 2.0418040759887361 #
point $-1 -38.411006501792279 16.834359007565226 1.1924148944542845 #
point $-1 -35.085302158516058 16.834359007565226 1.1924148944542845 #
point $-1 -31.759597815239829 16.834359007565226 1.1924148944542845 #
straight-curve $-1 -6.1522601473783043 22.404876213113429 57.307593750897418 0 0 -1 I I #
point $-1 -6.1522601473783043 22.404876213113429 6.7174970360573214 #
straight-curve $-1 -5.8475503597526739 22.404876213113429 2.0418040759887361 -1 0 0 I I #
point $-1 -6.1522601473783043 22.404876213113432 2.0418040759887361 #
point $-1 -15.020805062781577 16.834359007565226 1.1924148944542845 #
point $-1 -11.695100719505348 16.834359007565226 1.1924148944542845 #
point $-1 -8.369396376229119 16.834359007565226 1.1924148944542845 #
straight-curve $-1 17.237941291632406 22.404876213113429 57.307593750897418 0 0 -1 I I #
point $-1 17.237941291632406 22.404876213113429 6.7174970360573214 #
straight-curve $-1 5.847550359752681 22.404876213113429 2.0418040759887361 -1 0 0 I I #
point $-1 17.237941291632406 22.404876213113432 2.0418040759887361 #
point $-1 8.3693963762291332 16.834359007565226 1.1924148944542845 #
point $-1 11.695100719505362 16.834359007565226 1.1924148944542845 #
point $-1 15.020805062781591 16.834359007565226 1.1924148944542845 #
straight-curve $-1 40.628142730643113 22.404876213113429 57.307593750897418 0 0 -1 I I #
point $-1 40.628142730643113 22.404876213113429 6.7174970360573214 #
straight-curve $-1 17.542651079258036 22.404876213113429 2.0418040759887361 -1 0 0 I I #
point $-1 40.628142730643113 22.404876213113432 2.0418040759887361 #
point $-1 31.759597815239843 16.834359007565226 1.1924148944542845 #
point $-1 35.085302158516072 16.834359007565226 1.1924148944542845 #
point $-1 38.411006501792301 16.834359007565226 1.1924148944542845 #
straight-curve $-1 -53.025299844355601 -22.404876213113429 0 0 0 -1 I I #
End-of-ACIS-data 