500 0 6 0           
7 Unknown 11 ACIS 5.0 NT 24 Fri Mar 26 01:40:57 1999 
-1 9.9999999999999995e-007 1e-010 
body $-1 $6 $-1 $7 #
body $-1 $8 $-1 $9 #
body $-1 $10 $-1 $11 #
body $-1 $12 $-1 $13 #
body $-1 $14 $-1 $15 #
body $-1 $16 $-1 $17 #
lump $-1 $-1 $18 $0 #
transform $-1 1 0 0 0 1 0 0 0 1 64.340342417676325 29.990999724871454 11.43331925910838 1 rotate no_reflect no_shear #
lump $-1 $-1 $19 $1 #
transform $-1 1 0 0 0 1 0 0 0 1 64.340342417676325 29.990999724871454 11.43331925910838 1 rotate no_reflect no_shear #
lump $-1 $-1 $20 $2 #
transform $-1 1 0 0 0 1 0 0 0 1 64.340342417676325 29.990999724871454 11.43331925910838 1 rotate no_reflect no_shear #
lump $-1 $-1 $21 $3 #
transform $-1 1 0 0 0 1 0 0 0 1 64.340342417676325 29.990999724871454 11.43331925910838 1 rotate no_reflect no_shear #
lump $-1 $-1 $22 $4 #
transform $-1 1 0 0 0 1 0 0 0 1 64.340342417676325 29.990999724871454 11.43331925910838 1 rotate no_reflect no_shear #
lump $-1 $-1 $23 $5 #
transform $-1 1 0 0 0 1 0 0 0 1 64.340342417676325 29.990999724871454 11.43331925910838 1 rotate no_reflect no_shear #
shell $-1 $-1 $-1 $24 $-1 $6 #
shell $-1 $-1 $-1 $25 $-1 $8 #
shell $-1 $-1 $-1 $26 $-1 $10 #
shell $-1 $-1 $-1 $27 $-1 $12 #
shell $-1 $-1 $-1 $28 $-1 $14 #
shell $-1 $-1 $-1 $29 $-1 $16 #
face $-1 $30 $31 $18 $-1 $32 reversed single #
face $-1 $33 $34 $19 $-1 $35 forward single #
face $-1 $36 $37 $20 $-1 $38 reversed single #
face $-1 $39 $40 $21 $-1 $41 forward single #
face $-1 $42 $43 $22 $-1 $44 forward single #
face $-1 $45 $46 $23 $-1 $47 forward single #
face $-1 $48 $49 $18 $-1 $50 forward single #
loop $-1 $-1 $51 $24 #
plane-surface $-1 0 -29.990999724871454 0 0 1 0 0 0 1 forward_v I I I I #
face $-1 $52 $53 $19 $-1 $54 forward single #
loop $-1 $-1 $55 $25 #
plane-surface $-1 0 -29.990999724871454 0 0 1 0 0 0 1 forward_v I I I I #
face $-1 $56 $57 $20 $-1 $58 reversed single #
loop $-1 $-1 $59 $26 #
plane-surface $-1 -57.193431180142639 64.357611378701606 141.09586564579934 1 0 0 0 -0.62932039886446345 -0.77714595512881146 forward_v I I I I #
face $-1 $60 $61 $21 $-1 $62 forward single #
loop $-1 $63 $64 $27 #
cone-surface $-1 -49.607997970301128 23.326479585792828 5.3265734408582226 0 -0.62932039886446345 -0.77714595512881146 3 0 0 1 I I 0 1 3 forward I I I I #
face $-1 $65 $66 $22 $-1 $67 forward single #
loop $-1 $68 $69 $28 #
cone-surface $-1 -38.229848155538853 23.326479585792828 5.3265734408582226 0 -0.62932039886446345 -0.77714595512881146 3 0 0 1 I I 0 1 3 forward I I I I #
face $-1 $70 $71 $23 $-1 $72 forward single #
loop $-1 $73 $74 $29 #
cone-surface $-1 -26.851698340776579 23.326479585792828 5.3265734408582226 0 -0.62932039886446345 -0.77714595512881146 3 0 0 1 I I 0 1 3 forward I I I I #
face $-1 $75 $76 $18 $-1 $77 reversed single #
loop $-1 $-1 $78 $30 #
plane-surface $-1 0 0 11.43331925910838 0 0 1 1 0 0 forward_v I I I I #
coedge $-1 $79 $80 $81 $82 reversed $31 $-1 #
face $-1 $83 $84 $19 $-1 $85 reversed single #
loop $-1 $-1 $86 $33 #
plane-surface $-1 0 0 11.43331925910838 0 0 1 1 0 0 forward_v I I I I #
coedge $-1 $87 $88 $89 $90 forward $34 $-1 #
face $-1 $91 $92 $20 $-1 $93 reversed single #
loop $-1 $-1 $94 $36 #
plane-surface $-1 -38.229848155538846 -16.623768528034844 41.092191922799628 0 0.62932039886446345 0.77714595512881146 1 0 0 forward_v I I I I #
coedge $-1 $95 $96 $97 $98 reversed $37 $-1 #
face $-1 $-1 $99 $21 $-1 $100 forward single #
loop $-1 $101 $102 $39 #
cone-surface $-1 -49.607997970301128 20.712534592175704 2.0986202672693572 0 -0.62932039886446345 -0.77714595512881146 1.5 0 0 1 I I -0.70710678118654757 0.70710678118654757 1.5 forward I I I I #
loop $-1 $-1 $103 $27 #
coedge $-1 $64 $64 $104 $105 reversed $40 $-1 #
face $-1 $-1 $106 $22 $-1 $107 forward single #
loop $-1 $108 $109 $42 #
cone-surface $-1 -38.229848155538853 20.712534592175704 2.0986202672693572 0 -0.62932039886446345 -0.77714595512881146 1.5 0 0 1 I I -0.70710678118654757 0.70710678118654757 1.5 forward I I I I #
loop $-1 $-1 $110 $28 #
coedge $-1 $69 $69 $111 $112 reversed $43 $-1 #
face $-1 $-1 $113 $23 $-1 $114 forward single #
loop $-1 $115 $116 $45 #
cone-surface $-1 -26.851698340776579 20.712534592175704 2.0986202672693572 0 -0.62932039886446345 -0.77714595512881146 1.5 0 0 1 I I -0.70710678118654757 0.70710678118654757 1.5 forward I I I I #
loop $-1 $-1 $117 $29 #
coedge $-1 $74 $74 $118 $119 reversed $46 $-1 #
face $-1 $120 $121 $18 $-1 $122 reversed single #
loop $-1 $-1 $123 $48 #
plane-surface $-1 0 0 -11.43331925910838 0 0 1 1 0 0 forward_v I I I I #
coedge $-1 $124 $125 $126 $127 forward $49 $-1 #
coedge $-1 $128 $51 $129 $130 reversed $31 $-1 #
coedge $-1 $51 $128 $131 $132 forward $31 $-1 #
coedge $-1 $133 $123 $51 $82 forward $76 $-1 #
edge $-1 $134 -64.340342417676325 $135 64.340342417676325 $51 $136 forward 7 unknown #
face $-1 $137 $138 $19 $-1 $139 reversed single #
loop $-1 $-1 $140 $52 #
plane-surface $-1 -64.340342417676325 0 0 1 0 0 0 0 -1 forward_v I I I I #
coedge $-1 $141 $142 $88 $143 forward $53 $-1 #
coedge $-1 $144 $55 $145 $146 reversed $34 $-1 #
coedge $-1 $55 $144 $86 $143 reversed $34 $-1 #
coedge $-1 $147 $148 $55 $90 reversed $149 $-1 #
edge $-1 $150 -11.43331925910838 $151 11.43331925910838 $89 $152 forward 7 unknown #
face $-1 $153 $154 $20 $-1 $155 reversed single #
loop $-1 $-1 $156 $56 #
plane-surface $-1 -19.26626513093505 64.357611378701606 141.09586564579934 -1 0 0 0 0.62932039886446345 0.77714595512881146 forward_v I I I I #
coedge $-1 $157 $158 $159 $160 reversed $57 $-1 #
coedge $-1 $96 $59 $161 $162 reversed $37 $-1 #
coedge $-1 $59 $95 $157 $163 reversed $37 $-1 #
coedge $-1 $159 $164 $59 $98 forward $165 $-1 #
edge $-1 $166 2.1878059644793488 $167 12.176917451995706 $97 $168 forward 7 unknown #
loop $-1 $-1 $104 $60 #
plane-surface $-1 -38.229848155538846 -16.623768528034844 41.092191922799628 0 0.62932039886446345 0.77714595512881146 1 0 0 forward_v I I I I #
loop $-1 $-1 $169 $39 #
coedge $-1 $102 $102 $103 $170 reversed $61 $-1 #
coedge $-1 $103 $103 $102 $170 forward $63 $-1 #
coedge $-1 $104 $104 $64 $105 forward $99 $-1 #
edge $-1 $171 5.927157188803413e-016 $171 6.2831853071796013 $104 $172 forward 7 unknown #
loop $-1 $-1 $111 $65 #
plane-surface $-1 -38.229848155538846 -16.623768528034844 41.092191922799628 0 0.62932039886446345 0.77714595512881146 1 0 0 forward_v I I I I #
loop $-1 $-1 $173 $42 #
coedge $-1 $109 $109 $110 $174 reversed $66 $-1 #
coedge $-1 $110 $110 $109 $174 forward $68 $-1 #
coedge $-1 $111 $111 $69 $112 forward $106 $-1 #
edge $-1 $175 5.927157188803413e-016 $175 6.2831853071796013 $111 $176 forward 7 unknown #
loop $-1 $-1 $118 $70 #
plane-surface $-1 -38.229848155538846 -16.623768528034844 41.092191922799628 0 0.62932039886446345 0.77714595512881146 1 0 0 forward_v I I I I #
loop $-1 $-1 $177 $45 #
coedge $-1 $116 $116 $117 $178 reversed $71 $-1 #
coedge $-1 $117 $117 $116 $178 forward $73 $-1 #
coedge $-1 $118 $118 $74 $119 forward $113 $-1 #
edge $-1 $179 5.927157188803413e-016 $179 6.2831853071796013 $118 $180 forward 7 unknown #
face $-1 $181 $182 $18 $-1 $183 reversed single #
loop $-1 $-1 $184 $75 #
plane-surface $-1 -64.340342417676325 0 0 1 0 0 0 0 -1 forward_v I I I I #
coedge $-1 $81 $185 $186 $187 forward $76 $-1 #
coedge $-1 $188 $78 $189 $190 forward $49 $-1 #
coedge $-1 $78 $188 $128 $191 forward $49 $-1 #
coedge $-1 $129 $192 $78 $127 reversed $193 $-1 #
edge $-1 $194 -29.990999724871454 $195 29.990999724871454 $126 $196 forward 7 unknown #
coedge $-1 $80 $79 $125 $191 reversed $31 $-1 #
coedge $-1 $186 $126 $79 $130 forward $193 $-1 #
edge $-1 $194 -11.43331925910838 $134 11.43331925910838 $129 $197 forward 7 unknown #
coedge $-1 $198 $199 $80 $132 reversed $121 $-1 #
edge $-1 $200 -11.43331925910838 $135 11.43331925910838 $131 $201 forward 7 unknown #
coedge $-1 $185 $81 $199 $202 forward $76 $-1 #
vertex $-1 $130 $203 #
vertex $-1 $202 $204 #
straight-curve $-1 0 -29.990999724871454 -11.43331925910838 -1 0 0 I I #
face $-1 $205 $149 $19 $-1 $206 reversed single #
loop $-1 $-1 $207 $83 #
plane-surface $-1 -61.430737653556108 -43.266895367084437 0 0 1 0 0 0 1 forward_v I I I I #
coedge $-1 $208 $209 $144 $210 forward $84 $-1 #
coedge $-1 $211 $86 $209 $212 forward $53 $-1 #
coedge $-1 $86 $211 $147 $213 forward $53 $-1 #
edge $-1 $150 58.52113288943589 $214 64.340342417676325 $86 $215 forward 7 unknown #
coedge $-1 $88 $87 $140 $210 reversed $34 $-1 #
coedge $-1 $216 $217 $87 $146 forward $218 $-1 #
edge $-1 $219 -64.340342417676325 $151 -58.52113288943589 $145 $220 forward 7 unknown #
coedge $-1 $221 $89 $142 $213 reversed $149 $-1 #
coedge $-1 $89 $221 $216 $222 reversed $149 $-1 #
loop $-1 $-1 $221 $137 #
vertex $-1 $143 $223 #
vertex $-1 $222 $224 #
straight-curve $-1 -58.52113288943589 -29.990999724871454 0 0 0 -1 I I #
face $-1 $-1 $165 $20 $-1 $225 forward single #
loop $-1 $-1 $226 $91 #
plane-surface $-1 0 29.990999724871454 0 0 -1 0 0 0 -1 forward_v I I I I #
coedge $-1 $227 $228 $229 $230 reversed $92 $-1 #
coedge $-1 $231 $94 $96 $163 forward $57 $-1 #
coedge $-1 $94 $231 $227 $232 forward $57 $-1 #
coedge $-1 $229 $97 $94 $160 forward $165 $-1 #
edge $-1 $167 -38.078507102373216 $233 -0.15134105316562696 $159 $234 forward 7 unknown #
coedge $-1 $235 $236 $95 $162 forward $154 $-1 #
edge $-1 $237 -67.203636718500277 $166 -59.114613563791288 $161 $238 forward 7 unknown #
edge $-1 $167 47.128414583743492 $237 59.981999449742915 $96 $239 forward 7 unknown #
coedge $-1 $97 $229 $235 $240 forward $165 $-1 #
loop $-1 $-1 $229 $153 #
vertex $-1 $162 $241 #
vertex $-1 $98 $242 #
straight-curve $-1 -57.193431180142639 32.178805689350803 11.433319259108373 0 -1 0 I I #
coedge $-1 $169 $169 $-1 $243 reversed $101 $-1 #
edge $-1 $244 0 $244 6.2831853071796004 $102 $245 forward 7 unknown #
vertex $-1 $105 $246 #
ellipse-curve $-1 -49.607997970301128 24.99644398111327 7.388807681753887 0 0.62932039886446345 0.77714595512881146 3 0 0 1 I I #
coedge $-1 $173 $173 $-1 $247 reversed $108 $-1 #
edge $-1 $248 0 $248 6.2831853071796004 $109 $249 forward 7 unknown #
vertex $-1 $112 $250 #
ellipse-curve $-1 -38.229848155538853 24.99644398111327 7.388807681753887 0 0.62932039886446345 0.77714595512881146 3 0 0 1 I I #
coedge $-1 $177 $177 $-1 $251 reversed $115 $-1 #
edge $-1 $252 0 $252 6.2831853071796004 $116 $253 forward 7 unknown #
vertex $-1 $119 $254 #
ellipse-curve $-1 -26.851698340776579 24.99644398111327 7.388807681753887 0 0.62932039886446345 0.77714595512881146 3 0 0 1 I I #
face $-1 $-1 $193 $18 $-1 $255 reversed single #
loop $-1 $-1 $256 $120 #
plane-surface $-1 0 29.990999724871454 0 0 -1 0 0 0 -1 forward_v I I I I #
coedge $-1 $199 $198 $257 $258 forward $121 $-1 #
coedge $-1 $123 $133 $259 $260 forward $76 $-1 #
coedge $-1 $192 $129 $123 $187 reversed $193 $-1 #
edge $-1 $261 -29.990999724871454 $134 29.990999724871454 $186 $262 forward 7 unknown #
coedge $-1 $125 $124 $198 $263 forward $49 $-1 #
coedge $-1 $256 $257 $124 $190 reversed $182 $-1 #
edge $-1 $195 -64.340342417676325 $264 64.340342417676325 $189 $265 forward 7 unknown #
edge $-1 $200 -64.340342417676325 $194 64.340342417676325 $128 $266 forward 7 unknown #
coedge $-1 $126 $186 $256 $267 reversed $193 $-1 #
loop $-1 $-1 $129 $181 #
vertex $-1 $127 $268 #
vertex $-1 $127 $269 #
straight-curve $-1 64.340342417676325 0 11.43331925910838 0 1 0 I I #
straight-curve $-1 64.340342417676325 -29.990999724871454 0 0 0 -1 I I #
coedge $-1 $184 $131 $188 $263 reversed $121 $-1 #
coedge $-1 $131 $184 $133 $202 reversed $121 $-1 #
vertex $-1 $263 $270 #
straight-curve $-1 -64.340342417676325 -29.990999724871454 0 0 0 -1 I I #
edge $-1 $135 -29.990999724871454 $271 29.990999724871454 $199 $272 forward 7 unknown #
point $-1 64.340342417676325 -29.990999724871454 -11.43331925910838 #
point $-1 -64.340342417676325 -29.990999724871454 -11.43331925910838 #
face $-1 $-1 $218 $19 $-1 $273 reversed single #
plane-surface $-1 -58.52113288943589 -36.628947545977944 0 -1 0 0 0 0 1 forward_v I I I I #
coedge $-1 $274 $275 $276 $277 forward $138 $-1 #
coedge $-1 $276 $140 $217 $278 reversed $84 $-1 #
coedge $-1 $140 $276 $141 $212 reversed $84 $-1 #
edge $-1 $214 -11.43331925910838 $219 11.43331925910838 $140 $279 forward 7 unknown #
coedge $-1 $142 $141 $275 $280 forward $53 $-1 #
edge $-1 $214 29.990999724871454 $281 43.266895367084437 $209 $282 forward 7 unknown #
edge $-1 $283 -6.6379478211064935 $150 6.63794782110649 $147 $284 forward 7 unknown #
vertex $-1 $212 $285 #
straight-curve $-1 0 -29.990999724871454 11.43331925910838 -1 0 0 I I #
coedge $-1 $286 $145 $148 $222 forward $218 $-1 #
coedge $-1 $145 $286 $208 $278 forward $218 $-1 #
loop $-1 $-1 $145 $205 #
vertex $-1 $210 $287 #
straight-curve $-1 0 -29.990999724871454 -11.43331925910838 1 0 0 I I #
coedge $-1 $148 $147 $288 $289 forward $149 $-1 #
edge $-1 $151 -6.63794782110649 $290 6.6379478211064935 $148 $291 forward 7 unknown #
point $-1 -58.52113288943589 -29.990999724871454 11.43331925910838 #
point $-1 -58.52113288943589 -29.990999724871454 -11.43331925910838 #
plane-surface $-1 0 0 11.43331925910838 0 0 1 1 0 0 forward_v I I I I #
coedge $-1 $236 $235 $228 $292 forward $154 $-1 #
coedge $-1 $228 $156 $158 $232 reversed $92 $-1 #
coedge $-1 $156 $227 $226 $292 reversed $92 $-1 #
coedge $-1 $164 $159 $156 $230 forward $165 $-1 #
edge $-1 $233 -12.176917451995706 $293 -2.1878059644793488 $229 $294 forward 7 unknown #
coedge $-1 $158 $157 $236 $295 reversed $57 $-1 #
edge $-1 $296 -59.981999449742915 $233 -47.128414583743492 $227 $297 forward 7 unknown #
vertex $-1 $160 $298 #
straight-curve $-1 -19.114924077769423 20.001888237355097 11.43331925910838 1 0 0 I I #
coedge $-1 $226 $161 $164 $240 reversed $154 $-1 #
coedge $-1 $161 $226 $231 $295 forward $154 $-1 #
vertex $-1 $162 $299 #
straight-curve $-1 -57.193431180142639 29.990999724871454 70.547932822899668 0 0 1 I I #
straight-curve $-1 -57.193431180142639 -16.623768528034844 41.092191922799628 0 0.77714595512881146 -0.62932039886446345 I I #
edge $-1 $293 19.26626513093505 $166 57.193431180142639 $235 $300 forward 7 unknown #
point $-1 -57.193431180142639 29.990999724871454 11.43331925910838 #
point $-1 -57.193431180142639 20.001888237355097 11.433319259108377 #
edge $-1 $301 1 $301 0 $169 $-1 forward 7 unknown #
vertex $-1 $170 $302 #
ellipse-curve $-1 -49.607997970301128 21.656515190472398 3.2643391999625742 0 0.62932039886446345 0.77714595512881146 3 0 0 1 I I #
point $-1 -46.607997970301128 24.996443981113259 7.388807681753871 #
edge $-1 $303 1 $303 0 $173 $-1 forward 7 unknown #
vertex $-1 $174 $304 #
ellipse-curve $-1 -38.229848155538853 21.656515190472398 3.2643391999625742 0 0.62932039886446345 0.77714595512881146 3 0 0 1 I I #
point $-1 -35.229848155538853 24.996443981113259 7.388807681753871 #
edge $-1 $305 1 $305 0 $177 $-1 forward 7 unknown #
vertex $-1 $178 $306 #
ellipse-curve $-1 -26.851698340776579 21.656515190472398 3.2643391999625742 0 0.62932039886446345 0.77714595512881146 3 0 0 1 I I #
point $-1 -23.851698340776579 24.996443981113259 7.388807681753871 #
plane-surface $-1 64.340342417676325 0 0 -1 0 0 0 0 1 forward_v I I I I #
coedge $-1 $259 $189 $192 $267 forward $182 $-1 #
coedge $-1 $189 $259 $184 $258 reversed $182 $-1 #
edge $-1 $264 -11.43331925910838 $271 11.43331925910838 $257 $307 forward 7 unknown #
coedge $-1 $257 $256 $185 $260 reversed $182 $-1 #
edge $-1 $271 -64.340342417676325 $261 64.340342417676325 $259 $308 forward 7 unknown #
vertex $-1 $187 $309 #
straight-curve $-1 64.340342417676325 0 -11.43331925910838 0 -1 0 I I #
edge $-1 $264 -29.990999724871454 $200 29.990999724871454 $198 $310 forward 7 unknown #
vertex $-1 $190 $311 #
straight-curve $-1 0 29.990999724871454 11.43331925910838 -1 0 0 I I #
straight-curve $-1 0 -29.990999724871454 11.43331925910838 1 0 0 I I #
edge $-1 $195 -11.43331925910838 $261 11.43331925910838 $192 $312 forward 7 unknown #
point $-1 64.340342417676325 -29.990999724871454 11.43331925910838 #
point $-1 64.340342417676325 29.990999724871454 11.43331925910838 #
point $-1 -64.340342417676325 -29.990999724871454 11.43331925910838 #
vertex $-1 $260 $313 #
straight-curve $-1 -64.340342417676325 0 -11.43331925910838 0 1 0 I I #
plane-surface $-1 0 0 -11.43331925910838 0 0 1 1 0 0 forward_v I I I I #
coedge $-1 $288 $207 $286 $314 reversed $138 $-1 #
coedge $-1 $207 $288 $211 $280 reversed $138 $-1 #
coedge $-1 $209 $208 $207 $277 reversed $84 $-1 #
edge $-1 $281 -11.43331925910838 $315 11.43331925910838 $276 $316 forward 7 unknown #
edge $-1 $315 -43.266895367084437 $219 -29.990999724871454 $208 $317 forward 7 unknown #
straight-curve $-1 -64.340342417676325 -29.990999724871454 0 0 0 -1 I I #
edge $-1 $281 -2.9096047641202176 $283 2.9096047641202176 $275 $318 forward 7 unknown #
vertex $-1 $212 $319 #
straight-curve $-1 -64.340342417676325 0 11.43331925910838 0 -1 0 I I #
vertex $-1 $213 $320 #
straight-curve $-1 -58.52113288943589 -36.628947545977944 11.43331925910838 0 1 0 I I #
point $-1 -64.340342417676325 -29.990999724871454 11.43331925910838 #
coedge $-1 $217 $216 $274 $314 forward $218 $-1 #
point $-1 -64.340342417676325 -29.990999724871454 -11.43331925910838 #
coedge $-1 $275 $274 $221 $289 reversed $138 $-1 #
edge $-1 $283 -11.43331925910838 $290 11.43331925910838 $221 $321 forward 7 unknown #
vertex $-1 $289 $322 #
straight-curve $-1 -58.52113288943589 -36.628947545977944 -11.43331925910838 0 -1 0 I I #
edge $-1 $293 59.114613563791288 $296 67.203636718500277 $226 $323 forward 7 unknown #
vertex $-1 $240 $324 #
straight-curve $-1 -19.26626513093505 32.178805689350803 11.433319259108373 0 1 0 I I #
edge $-1 $296 0.15134105316562696 $237 38.078507102373216 $236 $325 forward 7 unknown #
vertex $-1 $295 $326 #
straight-curve $-1 -19.26626513093505 -16.623768528034844 41.092191922799628 0 -0.77714595512881146 0.62932039886446345 I I #
point $-1 -19.26626513093505 20.001888237355097 11.433319259108377 #
point $-1 -57.193431180142639 29.990999724871457 3.3442961043993904 #
straight-curve $-1 0 29.990999724871454 11.43331925910838 -1 0 0 I I #
vertex $-1 $243 $327 #
point $-1 -46.607997970301128 21.656515190472398 3.2643391999625742 #
vertex $-1 $247 $328 #
point $-1 -35.229848155538853 21.656515190472398 3.2643391999625742 #
vertex $-1 $251 $329 #
point $-1 -23.851698340776579 21.656515190472398 3.2643391999625742 #
straight-curve $-1 -64.340342417676325 29.990999724871454 0 0 0 -1 I I #
straight-curve $-1 0 29.990999724871454 -11.43331925910838 1 0 0 I I #
point $-1 64.340342417676325 29.990999724871454 -11.43331925910838 #
straight-curve $-1 -64.340342417676325 0 11.43331925910838 0 -1 0 I I #
point $-1 -64.340342417676325 29.990999724871454 11.43331925910838 #
straight-curve $-1 64.340342417676325 29.990999724871454 0 0 0 -1 I I #
point $-1 -64.340342417676325 29.990999724871454 -11.43331925910838 #
edge $-1 $290 -2.9096047641202176 $315 2.9096047641202176 $274 $330 forward 7 unknown #
vertex $-1 $278 $331 #
straight-curve $-1 -64.340342417676325 -43.266895367084437 0 0 0 -1 I I #
straight-curve $-1 -64.340342417676325 0 -11.43331925910838 0 1 0 I I #
straight-curve $-1 -61.430737653556108 -43.266895367084437 11.43331925910838 1 0 0 I I #
point $-1 -64.340342417676325 -43.266895367084437 11.43331925910838 #
point $-1 -58.52113288943589 -43.266895367084437 11.43331925910838 #
straight-curve $-1 -58.52113288943589 -43.266895367084437 0 0 0 -1 I I #
point $-1 -58.52113288943589 -43.266895367084437 -11.43331925910838 #
straight-curve $-1 -19.26626513093505 29.990999724871454 70.547932822899668 0 0 -1 I I #
point $-1 -19.26626513093505 29.990999724871454 11.43331925910838 #
straight-curve $-1 -19.114924077769423 29.990999724871454 3.344296104399394 -1 0 0 I I #
point $-1 -19.26626513093505 29.990999724871457 3.3442961043993904 #
point $-1 -49.607997970301128 19.76855399387901 0.93290133457614011 #
point $-1 -38.229848155538853 19.76855399387901 0.93290133457614011 #
point $-1 -26.851698340776579 19.76855399387901 0.93290133457614011 #
straight-curve $-1 -61.430737653556108 -43.266895367084437 -11.43331925910838 -1 0 0 I I #
point $-1 -64.340342417676325 -43.266895367084437 -11.43331925910838 #
End-of-ACIS-data 