500 0 4 0           
7 Unknown 11 ACIS 5.0 NT 24 Thu Mar 25 17:31:35 1999 
-1 9.9999999999999995e-007 1e-010 
body $-1 $4 $-1 $5 #
body $-1 $6 $-1 $7 #
body $-1 $8 $-1 $9 #
body $-1 $10 $-1 $11 #
lump $-1 $-1 $12 $0 #
transform $-1 1 0 0 0 1 0 0 0 1 72.022461622974333 32.709367905208531 7.694542641991573 1 rotate no_reflect no_shear #
lump $-1 $-1 $13 $1 #
transform $-1 1 0 0 0 1 0 0 0 1 72.022461622974333 32.709367905208531 7.694542641991573 1 rotate no_reflect no_shear #
lump $-1 $-1 $14 $2 #
transform $-1 1 0 0 0 1 0 0 0 1 72.022461622974333 32.709367905208531 7.694542641991573 1 rotate no_reflect no_shear #
lump $-1 $-1 $15 $3 #
transform $-1 1 0 0 0 1 0 0 0 1 72.022461622974333 32.709367905208531 7.694542641991573 1 rotate no_reflect no_shear #
shell $-1 $-1 $-1 $16 $-1 $4 #
shell $-1 $-1 $-1 $17 $-1 $6 #
shell $-1 $-1 $-1 $18 $-1 $8 #
shell $-1 $-1 $-1 $19 $-1 $10 #
face $-1 $20 $21 $12 $-1 $22 forward single #
face $-1 $23 $24 $13 $-1 $25 reversed single #
face $-1 $26 $27 $14 $-1 $28 forward single #
face $-1 $29 $30 $15 $-1 $31 reversed single #
face $-1 $32 $33 $12 $-1 $34 reversed single #
loop $-1 $-1 $35 $16 #
plane-surface $-1 0 0 7.694542641991573 0 0 1 1 0 0 forward_v I I I I #
face $-1 $36 $37 $13 $-1 $38 reversed single #
loop $-1 $-1 $39 $17 #
plane-surface $-1 -75.251732039015906 -26.989147217889553 0 0 1 0 0 0 1 forward_v I I I I #
face $-1 $40 $41 $14 $-1 $42 forward single #
loop $-1 $-1 $43 $18 #
plane-surface $-1 50.728940717086672 -12.667559159071427 204.03950697865864 0 -1 0 -0.62932039886446345 0 -0.77714595512881146 forward_v I I I I #
face $-1 $44 $45 $15 $-1 $46 reversed single #
loop $-1 $47 $48 $19 #
cone-surface $-1 66.992526549644964 -18.910858810841368 3.1234599872710858 -0.62932039886446345 0 -0.77714595512881146 1.1657189326932171 0 -0.94398059829669512 1 I I 0 1 1.5 forward I I I I #
face $-1 $49 $50 $12 $-1 $51 reversed single #
loop $-1 $-1 $52 $20 #
plane-surface $-1 0 0 -7.694542641991573 0 0 1 1 0 0 forward_v I I I I #
coedge $-1 $53 $54 $55 $56 forward $21 $-1 #
face $-1 $57 $58 $13 $-1 $59 reversed single #
loop $-1 $-1 $60 $23 #
plane-surface $-1 -78.481002455057478 -25.489147217889553 0 1 0 0 0 0 -1 forward_v I I I I #
coedge $-1 $61 $62 $63 $64 forward $24 $-1 #
face $-1 $65 $66 $14 $-1 $67 forward single #
loop $-1 $-1 $68 $26 #
plane-surface $-1 -39.921467834454759 -18.910858810841368 92.095577521229529 0.62932039886446345 0 0.77714595512881146 0.77714595512881146 0 -0.62932039886446345 forward_v I I I I #
coedge $-1 $69 $70 $71 $72 reversed $27 $-1 #
face $-1 $73 $74 $15 $-1 $75 forward single #
loop $-1 $76 $77 $29 #
cone-surface $-1 65.34926798685791 -18.910858810841368 1.0942047023557411 -0.62932039886446345 0 -0.77714595512881146 0.58285946634660857 0 -0.47199029914834756 1 I I -0.70710678118654757 0.70710678118654757 0.75 forward I I I I #
loop $-1 $-1 $78 $19 #
coedge $-1 $48 $48 $79 $80 reversed $30 $-1 #
face $-1 $81 $82 $12 $-1 $83 reversed single #
loop $-1 $-1 $84 $32 #
plane-surface $-1 0 -32.709367905208531 0 0 1 0 0 0 1 forward_v I I I I #
coedge $-1 $85 $86 $87 $88 forward $33 $-1 #
coedge $-1 $89 $35 $90 $91 forward $21 $-1 #
coedge $-1 $35 $89 $92 $93 forward $21 $-1 #
coedge $-1 $94 $95 $35 $56 reversed $96 $-1 #
edge $-1 $97 -32.709367905208531 $98 32.709367905208531 $55 $99 forward 7 unknown #
face $-1 $100 $101 $13 $-1 $102 reversed single #
loop $-1 $-1 $103 $36 #
plane-surface $-1 -75.251732039015906 -23.989147217889553 0 0 -1 0 0 0 -1 forward_v I I I I #
coedge $-1 $104 $105 $106 $107 forward $37 $-1 #
coedge $-1 $108 $39 $109 $110 reversed $24 $-1 #
coedge $-1 $39 $108 $111 $112 reversed $24 $-1 #
coedge $-1 $105 $104 $39 $64 reversed $37 $-1 #
edge $-1 $113 -7.694542641991573 $114 7.694542641991573 $63 $115 forward 7 unknown #
face $-1 $116 $117 $14 $-1 $118 forward single #
loop $-1 $-1 $119 $40 #
plane-surface $-1 50.728940717086672 -25.15415846261131 204.03950697865864 0 1 0 0.62932039886446345 0 0.77714595512881146 forward_v I I I I #
coedge $-1 $120 $121 $122 $123 reversed $41 $-1 #
coedge $-1 $70 $43 $121 $124 forward $27 $-1 #
coedge $-1 $43 $69 $125 $126 reversed $27 $-1 #
coedge $-1 $127 $122 $43 $72 forward $117 $-1 #
edge $-1 $128 38.940657645049761 $129 46.657991264430997 $71 $130 forward 7 unknown #
face $-1 $131 $132 $15 $-1 $133 forward single #
loop $-1 $-1 $134 $44 #
plane-surface $-1 50.728940717086672 -12.667559159071427 204.03950697865864 0 -1 0 -0.62932039886446345 0 -0.77714595512881146 forward_v I I I I #
loop $-1 $-1 $135 $29 #
coedge $-1 $77 $77 $78 $136 forward $45 $-1 #
coedge $-1 $78 $78 $77 $136 reversed $47 $-1 #
coedge $-1 $79 $79 $48 $80 forward $132 $-1 #
edge $-1 $137 0 $137 6.2831853071796004 $79 $138 forward 7 unknown #
face $-1 $139 $140 $12 $-1 $141 reversed single #
loop $-1 $-1 $142 $49 #
plane-surface $-1 -72.022461622974333 0 0 1 0 0 0 0 -1 forward_v I I I I #
coedge $-1 $143 $92 $144 $145 forward $50 $-1 #
coedge $-1 $146 $52 $143 $147 forward $33 $-1 #
coedge $-1 $52 $146 $148 $149 forward $33 $-1 #
coedge $-1 $95 $94 $52 $88 reversed $96 $-1 #
edge $-1 $150 -32.709367905208531 $151 32.709367905208531 $87 $152 forward 7 unknown #
coedge $-1 $54 $53 $153 $154 forward $21 $-1 #
coedge $-1 $155 $156 $53 $91 reversed $140 $-1 #
edge $-1 $98 -72.022461622974333 $157 72.022461622974333 $90 $158 forward 7 unknown #
coedge $-1 $84 $159 $54 $93 reversed $50 $-1 #
edge $-1 $160 -72.022461622974333 $97 72.022461622974333 $92 $161 forward 7 unknown #
coedge $-1 $87 $55 $159 $162 forward $96 $-1 #
coedge $-1 $55 $87 $155 $163 reversed $96 $-1 #
loop $-1 $-1 $94 $139 #
vertex $-1 $56 $164 #
vertex $-1 $56 $165 #
straight-curve $-1 72.022461622974333 0 7.694542641991573 0 1 0 I I #
face $-1 $166 $167 $13 $-1 $102 reversed single #
loop $-1 $-1 $168 $57 #
plane-surface $-1 -72.022461622974333 0 0 1 0 0 0 0 -1 forward_v I I I I #
coedge $-1 $169 $170 $168 $171 reversed $58 $-1 #
coedge $-1 $63 $60 $172 $173 reversed $37 $-1 #
coedge $-1 $60 $63 $174 $175 reversed $37 $-1 #
coedge $-1 $170 $169 $60 $107 reversed $58 $-1 #
edge $-1 $176 -7.694542641991573 $177 7.694542641991573 $106 $178 forward 7 unknown #
coedge $-1 $62 $61 $179 $180 reversed $24 $-1 #
coedge $-1 $172 $181 $61 $110 forward $182 $-1 #
edge $-1 $183 -3.2292704160415724 $114 3.2292704160415724 $61 $184 forward 7 unknown #
coedge $-1 $185 $174 $62 $112 forward $186 $-1 #
edge $-1 $113 -3.2292704160415724 $187 3.2292704160415724 $62 $188 forward 7 unknown #
vertex $-1 $175 $189 #
vertex $-1 $173 $190 #
straight-curve $-1 -78.481002455057478 -26.989147217889553 0 0 0 -1 I I #
face $-1 $191 $192 $14 $-1 $193 reversed single #
loop $-1 $-1 $194 $65 #
plane-surface $-1 0 0 7.694542641991573 0 0 1 1 0 0 forward_v I I I I #
coedge $-1 $195 $196 $194 $197 reversed $66 $-1 #
coedge $-1 $198 $68 $196 $199 reversed $41 $-1 #
coedge $-1 $68 $198 $69 $124 reversed $41 $-1 #
coedge $-1 $71 $194 $68 $123 forward $117 $-1 #
edge $-1 $200 -15.698729057190626 $128 -3.2121297536507427 $122 $201 forward 7 unknown #
edge $-1 $128 134.11457030715982 $202 144.04492324594864 $69 $203 forward 7 unknown #
coedge $-1 $204 $205 $70 $126 forward $206 $-1 #
edge $-1 $129 94.325210847337743 $202 100.57458451964121 $125 $207 forward 7 unknown #
coedge $-1 $208 $71 $205 $209 forward $117 $-1 #
vertex $-1 $123 $210 #
vertex $-1 $209 $211 #
straight-curve $-1 25.364470358543336 -12.667559159071427 7.6945426419915748 1 0 0 I I #
face $-1 $212 $213 $15 $-1 $214 forward single #
loop $-1 $215 $79 $73 #
plane-surface $-1 -39.921467834454759 -18.910858810841368 92.095577521229529 0.62932039886446345 0 0.77714595512881146 0.77714595512881146 0 -0.62932039886446345 forward_v I I I I #
coedge $-1 $216 $217 $218 $219 reversed $74 $-1 #
coedge $-1 $135 $135 $-1 $220 forward $76 $-1 #
edge $-1 $221 0 $221 6.2831853071796004 $77 $222 forward 7 unknown #
vertex $-1 $80 $223 #
ellipse-curve $-1 68.163794813283701 -18.910858810841368 4.5698558058398531 -0.62932039886446345 0 -0.77714595512881146 1.1657189326932171 0 -0.94398059829669512 1 I I #
face $-1 $-1 $96 $12 $-1 $224 reversed single #
loop $-1 $-1 $155 $81 #
plane-surface $-1 0 32.709367905208531 0 0 -1 0 0 0 -1 forward_v I I I I #
coedge $-1 $225 $153 $156 $226 forward $82 $-1 #
coedge $-1 $159 $84 $85 $147 reversed $50 $-1 #
coedge $-1 $153 $225 $84 $145 reversed $82 $-1 #
edge $-1 $160 -7.694542641991573 $227 7.694542641991573 $144 $228 forward 7 unknown #
coedge $-1 $86 $85 $225 $229 forward $33 $-1 #
edge $-1 $151 -72.022461622974333 $227 72.022461622974333 $143 $230 forward 7 unknown #
coedge $-1 $156 $155 $86 $149 reversed $140 $-1 #
edge $-1 $231 -72.022461622974333 $150 72.022461622974333 $148 $232 forward 7 unknown #
vertex $-1 $88 $233 #
vertex $-1 $162 $234 #
straight-curve $-1 72.022461622974333 0 -7.694542641991573 0 -1 0 I I #
coedge $-1 $142 $144 $89 $154 reversed $82 $-1 #
edge $-1 $157 -32.709367905208531 $160 32.709367905208531 $153 $235 forward 7 unknown #
coedge $-1 $148 $90 $95 $163 forward $140 $-1 #
coedge $-1 $90 $148 $142 $226 reversed $140 $-1 #
vertex $-1 $91 $236 #
straight-curve $-1 0 32.709367905208531 7.694542641991573 -1 0 0 I I #
coedge $-1 $92 $143 $94 $162 reversed $50 $-1 #
vertex $-1 $154 $237 #
straight-curve $-1 0 -32.709367905208531 7.694542641991573 1 0 0 I I #
edge $-1 $97 -7.694542641991573 $151 7.694542641991573 $94 $238 forward 7 unknown #
edge $-1 $98 -7.694542641991573 $150 7.694542641991573 $95 $239 forward 7 unknown #
point $-1 72.022461622974333 -32.709367905208531 7.694542641991573 #
point $-1 72.022461622974333 32.709367905208531 7.694542641991573 #
face $-1 $240 $186 $13 $-1 $241 forward single #
loop $-1 $-1 $179 $100 #
coedge $-1 $242 $243 $103 $171 forward $101 $-1 #
coedge $-1 $106 $103 $244 $245 reversed $58 $-1 #
coedge $-1 $103 $106 $246 $247 reversed $58 $-1 #
edge $-1 $248 -7.694542641991573 $249 7.694542641991573 $168 $250 forward 7 unknown #
coedge $-1 $244 $109 $104 $173 forward $182 $-1 #
edge $-1 $114 -1.5 $177 1.5 $104 $251 forward 7 unknown #
coedge $-1 $111 $246 $105 $175 forward $186 $-1 #
edge $-1 $176 -1.5 $113 1.5 $105 $252 forward 7 unknown #
vertex $-1 $247 $253 #
vertex $-1 $245 $254 #
straight-curve $-1 -78.481002455057478 -23.989147217889553 0 0 0 -1 I I #
coedge $-1 $255 $256 $108 $180 forward $167 $-1 #
edge $-1 $187 -7.694542641991573 $183 7.694542641991573 $179 $257 forward 7 unknown #
coedge $-1 $109 $258 $255 $259 forward $182 $-1 #
loop $-1 $-1 $260 $240 #
vertex $-1 $110 $261 #
straight-curve $-1 -75.251732039015906 -26.989147217889553 -7.694542641991573 -1 0 0 I I #
coedge $-1 $262 $111 $256 $263 forward $186 $-1 #
loop $-1 $-1 $264 $166 #
vertex $-1 $263 $265 #
straight-curve $-1 -75.251732039015906 -26.989147217889553 7.694542641991573 1 0 0 I I #
point $-1 -78.481002455057478 -26.989147217889553 7.694542641991573 #
point $-1 -78.481002455057478 -26.989147217889553 -7.694542641991573 #
face $-1 $266 $267 $14 $-1 $268 reversed single #
loop $-1 $-1 $269 $116 #
plane-surface $-1 -75.251732039015906 -26.989147217889553 0 0 1 0 0 0 1 forward_v I I I I #
coedge $-1 $122 $270 $119 $197 forward $117 $-1 #
coedge $-1 $196 $119 $271 $272 reversed $66 $-1 #
coedge $-1 $119 $195 $120 $199 forward $66 $-1 #
edge $-1 $273 -46.657991264430997 $200 -38.940657645049761 $194 $274 forward 7 unknown #
coedge $-1 $121 $120 $204 $275 reversed $41 $-1 #
edge $-1 $276 -144.04492324594864 $200 -134.11457030715982 $196 $277 forward 7 unknown #
vertex $-1 $123 $278 #
straight-curve $-1 64.305128003593097 -9.4554294054206842 7.6945426419915748 0 1 0 I I #
vertex $-1 $275 $279 #
straight-curve $-1 -39.921467834454759 -12.667559159071427 92.095577521229529 0.77714595512881146 0 -0.62932039886446345 I I #
coedge $-1 $271 $125 $198 $275 forward $206 $-1 #
coedge $-1 $125 $280 $127 $209 reversed $206 $-1 #
loop $-1 $-1 $271 $281 #
straight-curve $-1 72.022461622974333 -12.667559159071427 102.01975348932932 0 0 -1 I I #
coedge $-1 $282 $127 $283 $284 forward $117 $-1 #
edge $-1 $129 -12.667559159071427 $285 32.709367905208531 $205 $286 forward 7 unknown #
point $-1 64.305128003593097 -12.667559159071427 7.694542641991589 #
point $-1 72.022461622974333 -12.667559159071427 7.694542641991573 #
face $-1 $287 $288 $15 $-1 $289 forward single #
loop $-1 $-1 $290 $131 #
plane-surface $-1 50.728940717086672 -25.15415846261131 204.03950697865864 0 1 0 0.62932039886446345 0 0.77714595512881146 forward_v I I I I #
loop $-1 $-1 $291 $73 #
coedge $-1 $217 $134 $292 $293 forward $74 $-1 #
coedge $-1 $134 $216 $294 $295 reversed $74 $-1 #
coedge $-1 $296 $297 $134 $219 forward $288 $-1 #
edge $-1 $298 38.940657645049761 $299 46.657991264430997 $218 $300 forward 7 unknown #
edge $-1 $301 1 $301 0 $135 $-1 forward 7 unknown #
vertex $-1 $136 $302 #
ellipse-curve $-1 65.821258286006255 -18.910858810841368 1.6770641687023495 0.62932039886446345 0 0.77714595512881146 1.1657189326932171 0 -0.94398059829669512 1 I I #
point $-1 69.329513745976897 -18.910858810841368 3.6258752075431264 #
plane-surface $-1 72.022461622974333 0 0 -1 0 0 0 0 1 forward_v I I I I #
coedge $-1 $144 $142 $146 $229 reversed $82 $-1 #
edge $-1 $157 -7.694542641991573 $231 7.694542641991573 $156 $303 forward 7 unknown #
vertex $-1 $229 $304 #
straight-curve $-1 -72.022461622974333 -32.709367905208531 0 0 0 -1 I I #
edge $-1 $227 -32.709367905208531 $231 32.709367905208531 $225 $305 forward 7 unknown #
straight-curve $-1 0 -32.709367905208531 -7.694542641991573 -1 0 0 I I #
vertex $-1 $149 $306 #
straight-curve $-1 0 32.709367905208531 -7.694542641991573 1 0 0 I I #
point $-1 72.022461622974333 32.709367905208531 -7.694542641991573 #
point $-1 72.022461622974333 -32.709367905208531 -7.694542641991573 #
straight-curve $-1 -72.022461622974333 0 7.694542641991573 0 -1 0 I I #
point $-1 -72.022461622974333 32.709367905208531 7.694542641991573 #
point $-1 -72.022461622974333 -32.709367905208531 7.694542641991573 #
straight-curve $-1 72.022461622974333 -32.709367905208531 0 0 0 -1 I I #
straight-curve $-1 72.022461622974333 32.709367905208531 0 0 0 -1 I I #
face $-1 $307 $182 $13 $-1 $308 reversed single #
plane-surface $-1 0 0 7.694542641991573 0 0 1 1 0 0 forward_v I I I I #
coedge $-1 $309 $168 $310 $311 reversed $101 $-1 #
coedge $-1 $168 $309 $312 $313 reversed $101 $-1 #
coedge $-1 $312 $172 $169 $245 forward $182 $-1 #
edge $-1 $177 -3.2292704160415724 $248 3.2292704160415724 $169 $314 forward 7 unknown #
coedge $-1 $174 $310 $170 $247 forward $186 $-1 #
edge $-1 $249 -3.2292704160415724 $176 3.2292704160415724 $170 $315 forward 7 unknown #
vertex $-1 $313 $316 #
vertex $-1 $247 $317 #
straight-curve $-1 -72.022461622974333 -23.989147217889553 0 0 0 1 I I #
straight-curve $-1 -78.481002455057478 -25.489147217889553 -7.694542641991573 0 1 0 I I #
straight-curve $-1 -78.481002455057478 -25.489147217889553 7.694542641991573 0 -1 0 I I #
point $-1 -78.481002455057478 -23.989147217889553 7.694542641991573 #
point $-1 -78.481002455057478 -23.989147217889553 -7.694542641991573 #
coedge $-1 $318 $179 $181 $259 reversed $167 $-1 #
coedge $-1 $179 $318 $185 $263 reversed $167 $-1 #
straight-curve $-1 -72.022461622974333 -26.989147217889553 0 0 0 -1 I I #
coedge $-1 $181 $260 $319 $320 forward $182 $-1 #
edge $-1 $321 -32.709367905208531 $183 -26.989147217889553 $255 $322 forward 7 unknown #
coedge $-1 $258 $323 $324 $325 forward $182 $-1 #
point $-1 -72.022461622974333 -26.989147217889553 -7.694542641991573 #
coedge $-1 $264 $185 $326 $327 forward $186 $-1 #
edge $-1 $187 26.989147217889553 $328 32.709367905208531 $256 $329 forward 7 unknown #
coedge $-1 $330 $262 $331 $332 forward $186 $-1 #
point $-1 -72.022461622974333 -26.989147217889553 7.694542641991573 #
face $-1 $333 $334 $14 $-1 $335 reversed single #
loop $-1 $-1 $336 $191 #
plane-surface $-1 -78.481002455057478 -25.489147217889553 0 1 0 0 0 0 -1 forward_v I I I I #
coedge $-1 $337 $338 $339 $340 forward $192 $-1 #
coedge $-1 $194 $341 $342 $343 forward $117 $-1 #
coedge $-1 $342 $204 $195 $272 forward $206 $-1 #
edge $-1 $276 -100.57458451964121 $273 -94.325210847337743 $271 $344 forward 7 unknown #
vertex $-1 $272 $345 #
straight-curve $-1 25.364470358543336 -25.15415846261131 7.6945426419915748 -1 0 0 I I #
edge $-1 $202 3.2121297536507427 $276 15.698729057190626 $204 $346 forward 7 unknown #
vertex $-1 $275 $347 #
straight-curve $-1 -39.921467834454759 -25.15415846261131 92.095577521229529 -0.77714595512881146 0 0.62932039886446345 I I #
point $-1 64.305128003593097 -25.15415846261131 7.694542641991589 #
point $-1 72.022461622974333 -12.667559159071427 1.4451689696881118 #
coedge $-1 $205 $348 $349 $350 reversed $206 $-1 #
face $-1 $-1 $206 $14 $-1 $351 reversed single #
coedge $-1 $352 $208 $353 $354 forward $117 $-1 #
coedge $-1 $349 $355 $208 $284 reversed $356 $-1 #
edge $-1 $285 -72.022461622974333 $357 72.022461622974333 $283 $358 forward 7 unknown #
vertex $-1 $209 $359 #
straight-curve $-1 72.022461622974333 0 7.694542641991573 0 1 0 I I #
face $-1 $360 $361 $15 $-1 $362 reversed single #
loop $-1 $-1 $363 $212 #
plane-surface $-1 0 0 7.694542641991573 0 0 1 1 0 0 forward_v I I I I #
coedge $-1 $364 $365 $363 $366 reversed $213 $-1 #
coedge $-1 $367 $292 $297 $368 reversed $215 $-1 #
coedge $-1 $291 $369 $216 $293 reversed $215 $-1 #
edge $-1 $298 134.11457030715982 $370 144.04492324594864 $216 $371 forward 7 unknown #
coedge $-1 $372 $373 $217 $295 forward $374 $-1 #
edge $-1 $299 94.325210847337743 $370 100.57458451964121 $294 $375 forward 7 unknown #
coedge $-1 $376 $218 $373 $377 forward $288 $-1 #
coedge $-1 $218 $363 $291 $368 forward $288 $-1 #
vertex $-1 $368 $378 #
vertex $-1 $377 $379 #
straight-curve $-1 25.364470358543336 -12.667559159071427 7.6945426419915748 1 0 0 I I #
vertex $-1 $220 $380 #
point $-1 66.986977218699479 -18.910858810841368 0.73308357040565453 #
straight-curve $-1 -72.022461622974333 32.709367905208531 0 0 0 -1 I I #
point $-1 -72.022461622974333 -32.709367905208531 -7.694542641991573 #
straight-curve $-1 -72.022461622974333 0 -7.694542641991573 0 1 0 I I #
point $-1 -72.022461622974333 32.709367905208531 -7.694542641991573 #
face $-1 $381 $382 $13 $-1 $383 reversed single #
plane-surface $-1 0 0 -7.694542641991573 0 0 1 1 0 0 forward_v I I I I #
coedge $-1 $243 $242 $384 $385 forward $101 $-1 #
coedge $-1 $246 $330 $242 $311 forward $186 $-1 #
edge $-1 $386 -32.709367905208531 $249 23.989147217889553 $242 $329 forward 7 unknown #
coedge $-1 $323 $244 $243 $313 forward $182 $-1 #
edge $-1 $248 -23.989147217889553 $387 32.709367905208531 $243 $322 forward 7 unknown #
straight-curve $-1 -75.251732039015906 -23.989147217889553 -7.694542641991573 1 0 0 I I #
straight-curve $-1 -75.251732039015906 -23.989147217889553 7.694542641991573 -1 0 0 I I #
point $-1 -72.022461622974333 -23.989147217889553 -7.694542641991573 #
point $-1 -72.022461622974333 -23.989147217889553 7.694542641991573 #
coedge $-1 $256 $255 $388 $389 reversed $167 $-1 #
coedge $-1 $390 $388 $258 $320 reversed $382 $-1 #
edge $-1 $391 -72.022461622974333 $321 72.022461622974333 $319 $392 forward 7 unknown #
vertex $-1 $259 $393 #
straight-curve $-1 -72.022461622974333 0 -7.694542641991573 0 1 0 I I #
coedge $-1 $260 $312 $394 $395 forward $182 $-1 #
coedge $-1 $396 $397 $260 $325 reversed $398 $-1 #
edge $-1 $399 -32.709367905208531 $391 32.709367905208531 $324 $400 forward 7 unknown #
coedge $-1 $388 $390 $262 $327 reversed $382 $-1 #
edge $-1 $328 -72.022461622974333 $401 72.022461622974333 $326 $402 forward 7 unknown #
vertex $-1 $263 $403 #
straight-curve $-1 -72.022461622974333 0 7.694542641991573 0 -1 0 I I #
coedge $-1 $310 $264 $404 $405 forward $186 $-1 #
coedge $-1 $397 $396 $264 $332 reversed $398 $-1 #
edge $-1 $401 -32.709367905208531 $406 32.709367905208531 $331 $407 forward 7 unknown #
face $-1 $408 $409 $14 $-1 $410 reversed single #
loop $-1 $-1 $411 $266 #
plane-surface $-1 -75.251732039015906 -23.989147217889553 0 0 -1 0 0 0 -1 forward_v I I I I #
coedge $-1 $412 $413 $414 $415 forward $267 $-1 #
coedge $-1 $416 $269 $417 $418 reversed $192 $-1 #
coedge $-1 $269 $416 $419 $420 reversed $192 $-1 #
coedge $-1 $413 $412 $269 $340 reversed $267 $-1 #
edge $-1 $421 -7.694542641991573 $422 7.694542641991573 $339 $423 forward 7 unknown #
coedge $-1 $270 $424 $425 $426 forward $117 $-1 #
coedge $-1 $427 $271 $270 $343 reversed $206 $-1 #
edge $-1 $428 -32.709367905208531 $273 -25.15415846261131 $342 $286 forward 7 unknown #
straight-curve $-1 72.022461622974333 -25.15415846261131 102.01975348932932 0 0 1 I I #
point $-1 72.022461622974333 -25.15415846261131 7.694542641991573 #
straight-curve $-1 72.022461622974333 -9.4554294054206842 1.4451689696881118 0 -1 0 I I #
point $-1 72.022461622974333 -25.15415846261131 1.4451689696881118 #
coedge $-1 $280 $427 $429 $430 reversed $206 $-1 #
coedge $-1 $431 $283 $280 $350 forward $356 $-1 #
edge $-1 $285 -7.694542641991573 $432 7.694542641991573 $280 $433 forward 7 unknown #
plane-surface $-1 72.022461622974333 0 0 -1 0 0 0 0 1 forward_v I I I I #
coedge $-1 $434 $282 $435 $436 forward $117 $-1 #
coedge $-1 $437 $438 $282 $354 reversed $409 $-1 #
edge $-1 $357 -32.709367905208531 $439 23.989147217889553 $353 $440 forward 7 unknown #
coedge $-1 $283 $431 $437 $441 reversed $356 $-1 #
loop $-1 $-1 $349 $442 #
vertex $-1 $284 $443 #
straight-curve $-1 0 32.709367905208531 7.694542641991573 -1 0 0 I I #
point $-1 72.022461622974333 32.709367905208531 7.694542641991573 #
face $-1 $444 $445 $15 $-1 $446 reversed single #
loop $-1 $-1 $447 $287 #
plane-surface $-1 -75.251732039015906 -26.989147217889553 0 0 1 0 0 0 1 forward_v I I I I #
coedge $-1 $297 $448 $290 $366 forward $288 $-1 #
coedge $-1 $365 $290 $449 $450 reversed $213 $-1 #
coedge $-1 $290 $364 $367 $451 forward $213 $-1 #
edge $-1 $452 -46.657991264430997 $453 -38.940657645049761 $363 $454 forward 7 unknown #
coedge $-1 $369 $291 $365 $451 reversed $215 $-1 #
edge $-1 $453 -15.698729057190626 $298 -3.2121297536507427 $297 $455 forward 7 unknown #
coedge $-1 $292 $367 $372 $456 reversed $215 $-1 #
vertex $-1 $456 $457 #
straight-curve $-1 -39.921467834454759 -12.667559159071427 92.095577521229529 0.77714595512881146 0 -0.62932039886446345 I I #
coedge $-1 $449 $294 $369 $456 forward $374 $-1 #
coedge $-1 $294 $458 $296 $377 reversed $374 $-1 #
loop $-1 $-1 $449 $459 #
straight-curve $-1 72.022461622974333 -12.667559159071427 102.01975348932932 0 0 -1 I I #
coedge $-1 $460 $296 $461 $462 forward $288 $-1 #
edge $-1 $299 -12.667559159071427 $463 32.709367905208531 $373 $464 forward 7 unknown #
point $-1 64.305128003593097 -12.667559159071427 7.694542641991589 #
point $-1 72.022461622974333 -12.667559159071427 7.694542641991573 #
point $-1 64.877277687709565 -18.910858810841368 0.51134523600913251 #
face $-1 $465 $466 $13 $-1 $467 reversed single #
loop $-1 $-1 $388 $307 #
plane-surface $-1 0 -32.709367905208531 0 0 1 0 0 0 1 forward_v I I I I #
coedge $-1 $404 $394 $309 $385 reversed $466 $-1 #
edge $-1 $386 -7.694542641991573 $387 7.694542641991573 $384 $468 forward 7 unknown #
vertex $-1 $405 $469 #
vertex $-1 $395 $470 #
coedge $-1 $319 $326 $318 $389 forward $382 $-1 #
edge $-1 $328 -7.694542641991573 $321 7.694542641991573 $318 $471 forward 7 unknown #
coedge $-1 $326 $319 $397 $472 reversed $382 $-1 #
vertex $-1 $472 $473 #
straight-curve $-1 0 -32.709367905208531 -7.694542641991573 -1 0 0 I I #
point $-1 -72.022461622974333 -32.709367905208531 -7.694542641991573 #
coedge $-1 $384 $474 $323 $395 reversed $466 $-1 #
edge $-1 $387 -72.022461622974333 $399 72.022461622974333 $394 $475 forward 7 unknown #
coedge $-1 $331 $324 $474 $476 reversed $398 $-1 #
coedge $-1 $324 $331 $390 $472 forward $398 $-1 #
loop $-1 $-1 $397 $465 #
vertex $-1 $325 $477 #
straight-curve $-1 72.022461622974333 0 -7.694542641991573 0 -1 0 I I #
vertex $-1 $332 $478 #
straight-curve $-1 0 -32.709367905208531 7.694542641991573 1 0 0 I I #
point $-1 -72.022461622974333 -32.709367905208531 7.694542641991573 #
coedge $-1 $474 $384 $330 $405 reversed $466 $-1 #
edge $-1 $406 -72.022461622974333 $386 72.022461622974333 $404 $479 forward 7 unknown #
vertex $-1 $332 $480 #
straight-curve $-1 72.022461622974333 0 7.694542641991573 0 1 0 I I #
face $-1 $481 $482 $14 $-1 $410 reversed single #
loop $-1 $-1 $438 $333 #
plane-surface $-1 -72.022461622974333 0 0 1 0 0 0 0 -1 forward_v I I I I #
coedge $-1 $483 $435 $438 $484 reversed $334 $-1 #
coedge $-1 $339 $336 $485 $486 reversed $267 $-1 #
coedge $-1 $336 $339 $434 $487 reversed $267 $-1 #
coedge $-1 $435 $483 $336 $415 reversed $334 $-1 #
edge $-1 $488 -7.694542641991573 $489 7.694542641991573 $414 $490 forward 7 unknown #
coedge $-1 $338 $337 $491 $492 reversed $192 $-1 #
coedge $-1 $485 $493 $337 $418 forward $494 $-1 #
edge $-1 $495 -3.2292704160415724 $422 3.2292704160415724 $337 $496 forward 7 unknown #
coedge $-1 $424 $434 $338 $420 forward $117 $-1 #
edge $-1 $421 -3.2292704160415724 $497 3.2292704160415724 $338 $498 forward 7 unknown #
vertex $-1 $487 $499 #
vertex $-1 $486 $500 #
straight-curve $-1 -78.481002455057478 -26.989147217889553 0 0 0 -1 I I #
coedge $-1 $341 $419 $501 $502 forward $117 $-1 #
coedge $-1 $503 $504 $341 $426 reversed $505 $-1 #
edge $-1 $506 -72.022461622974333 $428 72.022461622974333 $425 $507 forward 7 unknown #
coedge $-1 $348 $342 $504 $508 forward $206 $-1 #
vertex $-1 $343 $509 #
coedge $-1 $510 $511 $348 $430 forward $494 $-1 #
edge $-1 $432 -32.709367905208531 $512 32.709367905208531 $348 $513 forward 7 unknown #
coedge $-1 $355 $349 $511 $514 reversed $356 $-1 #
vertex $-1 $430 $515 #
straight-curve $-1 72.022461622974333 32.709367905208531 0 0 0 -1 I I #
coedge $-1 $419 $352 $413 $487 forward $117 $-1 #
coedge $-1 $411 $414 $352 $436 reversed $334 $-1 #
edge $-1 $439 -3.2292704160415724 $488 3.2292704160415724 $435 $516 forward 7 unknown #
coedge $-1 $517 $353 $355 $441 forward $409 $-1 #
coedge $-1 $353 $517 $411 $484 forward $409 $-1 #
vertex $-1 $436 $518 #
straight-curve $-1 -72.022461622974333 0 7.694542641991573 0 -1 0 I I #
edge $-1 $357 -7.694542641991573 $519 7.694542641991573 $355 $520 forward 7 unknown #
face $-1 $281 $356 $14 $-1 $521 reversed single #
point $-1 -72.022461622974333 32.709367905208531 7.694542641991573 #
face $-1 $522 $523 $15 $-1 $524 reversed single #
loop $-1 $-1 $525 $360 #
plane-surface $-1 -78.481002455057478 -25.489147217889553 0 1 0 0 0 0 -1 forward_v I I I I #
coedge $-1 $526 $527 $528 $529 forward $361 $-1 #
coedge $-1 $363 $530 $531 $532 forward $288 $-1 #
coedge $-1 $531 $372 $364 $450 forward $374 $-1 #
edge $-1 $533 -100.57458451964121 $452 -94.325210847337743 $449 $534 forward 7 unknown #
edge $-1 $533 -144.04492324594864 $453 -134.11457030715982 $365 $535 forward 7 unknown #
vertex $-1 $450 $536 #
vertex $-1 $368 $537 #
straight-curve $-1 25.364470358543336 -25.15415846261131 7.6945426419915748 -1 0 0 I I #
straight-curve $-1 64.305128003593097 -9.4554294054206842 7.6945426419915748 0 1 0 I I #
edge $-1 $370 3.2121297536507427 $533 15.698729057190626 $372 $538 forward 7 unknown #
point $-1 72.022461622974333 -12.667559159071427 1.4451689696881118 #
coedge $-1 $373 $539 $540 $541 reversed $374 $-1 #
face $-1 $-1 $374 $15 $-1 $542 reversed single #
coedge $-1 $543 $376 $544 $545 forward $288 $-1 #
coedge $-1 $540 $546 $376 $462 reversed $547 $-1 #
edge $-1 $463 -72.022461622974333 $548 72.022461622974333 $461 $549 forward 7 unknown #
vertex $-1 $377 $550 #
straight-curve $-1 72.022461622974333 0 7.694542641991573 0 1 0 I I #
face $-1 $-1 $398 $13 $-1 $551 reversed single #
loop $-1 $-1 $474 $381 #
plane-surface $-1 0 32.709367905208531 0 0 -1 0 0 0 -1 forward_v I I I I #
straight-curve $-1 -72.022461622974333 32.709367905208531 0 0 0 -1 I I #
point $-1 -72.022461622974333 32.709367905208531 7.694542641991573 #
point $-1 -72.022461622974333 32.709367905208531 -7.694542641991573 #
straight-curve $-1 -72.022461622974333 -32.709367905208531 0 0 0 -1 I I #
edge $-1 $401 -7.694542641991573 $391 7.694542641991573 $397 $552 forward 7 unknown #
point $-1 72.022461622974333 -32.709367905208531 -7.694542641991573 #
coedge $-1 $394 $404 $396 $476 forward $466 $-1 #
straight-curve $-1 0 32.709367905208531 -7.694542641991573 1 0 0 I I #
edge $-1 $406 -7.694542641991573 $399 7.694542641991573 $396 $553 forward 7 unknown #
point $-1 72.022461622974333 32.709367905208531 -7.694542641991573 #
point $-1 72.022461622974333 -32.709367905208531 7.694542641991573 #
straight-curve $-1 0 32.709367905208531 7.694542641991573 -1 0 0 I I #
point $-1 72.022461622974333 32.709367905208531 7.694542641991573 #
face $-1 $554 $494 $14 $-1 $555 reversed single #
loop $-1 $-1 $491 $408 #
coedge $-1 $414 $411 $556 $557 reversed $334 $-1 #
edge $-1 $558 -7.694542641991573 $439 7.694542641991573 $438 $559 forward 7 unknown #
coedge $-1 $556 $417 $412 $486 forward $494 $-1 #
edge $-1 $422 -1.5 $489 1.5 $412 $560 forward 7 unknown #
edge $-1 $488 -1.5 $421 1.5 $413 $561 forward 7 unknown #
vertex $-1 $436 $562 #
vertex $-1 $557 $563 #
straight-curve $-1 -78.481002455057478 -23.989147217889553 0 0 0 -1 I I #
coedge $-1 $564 $501 $416 $492 forward $482 $-1 #
edge $-1 $497 -7.694542641991573 $495 7.694542641991573 $491 $565 forward 7 unknown #
coedge $-1 $417 $510 $564 $566 forward $494 $-1 #
loop $-1 $-1 $429 $481 #
vertex $-1 $418 $567 #
straight-curve $-1 -75.251732039015906 -26.989147217889553 -7.694542641991573 -1 0 0 I I #
vertex $-1 $502 $568 #
straight-curve $-1 -75.251732039015906 -26.989147217889553 7.694542641991573 1 0 0 I I #
point $-1 -78.481002455057478 -26.989147217889553 7.694542641991573 #
point $-1 -78.481002455057478 -26.989147217889553 -7.694542641991573 #
coedge $-1 $491 $569 $424 $502 reversed $482 $-1 #
edge $-1 $497 26.989147217889553 $506 32.709367905208531 $501 $440 forward 7 unknown #
coedge $-1 $570 $425 $569 $571 forward $505 $-1 #
coedge $-1 $425 $570 $427 $508 reversed $505 $-1 #
loop $-1 $-1 $503 $554 #
vertex $-1 $502 $572 #
straight-curve $-1 0 -32.709367905208531 7.694542641991573 1 0 0 I I #
edge $-1 $428 -7.694542641991573 $512 7.694542641991573 $427 $573 forward 7 unknown #
point $-1 72.022461622974333 -32.709367905208531 7.694542641991573 #
coedge $-1 $493 $429 $570 $574 forward $494 $-1 #
coedge $-1 $429 $575 $431 $514 forward $494 $-1 #
vertex $-1 $508 $576 #
straight-curve $-1 72.022461622974333 0 -7.694542641991573 0 -1 0 I I #
edge $-1 $519 -72.022461622974333 $432 72.022461622974333 $431 $577 forward 7 unknown #
point $-1 72.022461622974333 32.709367905208531 -7.694542641991573 #
straight-curve $-1 -75.251732039015906 -23.989147217889553 7.694542641991573 -1 0 0 I I #
coedge $-1 $438 $437 $575 $578 reversed $409 $-1 #
point $-1 -72.022461622974333 -23.989147217889553 7.694542641991573 #
vertex $-1 $514 $579 #
straight-curve $-1 -72.022461622974333 32.709367905208531 0 0 0 -1 I I #
plane-surface $-1 0 32.709367905208531 0 0 -1 0 0 0 -1 forward_v I I I I #
face $-1 $580 $581 $15 $-1 $582 reversed single #
loop $-1 $-1 $583 $444 #
plane-surface $-1 -75.251732039015906 -23.989147217889553 0 0 -1 0 0 0 -1 forward_v I I I I #
coedge $-1 $584 $585 $586 $587 forward $445 $-1 #
coedge $-1 $588 $447 $589 $590 reversed $361 $-1 #
coedge $-1 $447 $588 $591 $592 reversed $361 $-1 #
coedge $-1 $585 $584 $447 $529 reversed $445 $-1 #
edge $-1 $593 -7.694542641991573 $594 7.694542641991573 $528 $595 forward 7 unknown #
coedge $-1 $448 $596 $597 $598 forward $288 $-1 #
coedge $-1 $599 $449 $448 $532 reversed $374 $-1 #
edge $-1 $600 -32.709367905208531 $452 -25.15415846261131 $531 $464 forward 7 unknown #
vertex $-1 $456 $601 #
straight-curve $-1 72.022461622974333 -25.15415846261131 102.01975348932932 0 0 1 I I #
straight-curve $-1 -39.921467834454759 -25.15415846261131 92.095577521229529 -0.77714595512881146 0 0.62932039886446345 I I #
point $-1 72.022461622974333 -25.15415846261131 7.694542641991573 #
point $-1 64.305128003593097 -25.15415846261131 7.694542641991589 #
straight-curve $-1 72.022461622974333 -9.4554294054206842 1.4451689696881118 0 -1 0 I I #
coedge $-1 $458 $599 $602 $603 reversed $374 $-1 #
coedge $-1 $604 $461 $458 $541 forward $547 $-1 #
edge $-1 $463 -7.694542641991573 $605 7.694542641991573 $458 $606 forward 7 unknown #
plane-surface $-1 72.022461622974333 0 0 -1 0 0 0 0 1 forward_v I I I I #
coedge $-1 $607 $460 $608 $609 forward $288 $-1 #
coedge $-1 $610 $611 $460 $545 reversed $581 $-1 #
edge $-1 $548 -32.709367905208531 $612 23.989147217889553 $544 $613 forward 7 unknown #
coedge $-1 $461 $604 $610 $614 reversed $547 $-1 #
loop $-1 $-1 $540 $615 #
vertex $-1 $462 $616 #
straight-curve $-1 0 32.709367905208531 7.694542641991573 -1 0 0 I I #
point $-1 72.022461622974333 32.709367905208531 7.694542641991573 #
plane-surface $-1 72.022461622974333 0 0 -1 0 0 0 0 1 forward_v I I I I #
straight-curve $-1 72.022461622974333 -32.709367905208531 0 0 0 -1 I I #
straight-curve $-1 72.022461622974333 32.709367905208531 0 0 0 -1 I I #
face $-1 $442 $505 $14 $-1 $617 reversed single #
plane-surface $-1 0 0 -7.694542641991573 0 0 1 1 0 0 forward_v I I I I #
coedge $-1 $575 $485 $483 $557 forward $494 $-1 #
edge $-1 $489 -3.2292704160415724 $558 3.2292704160415724 $483 $618 forward 7 unknown #
vertex $-1 $578 $619 #
straight-curve $-1 -72.022461622974333 -23.989147217889553 0 0 0 1 I I #
straight-curve $-1 -78.481002455057478 -25.489147217889553 -7.694542641991573 0 1 0 I I #
straight-curve $-1 -78.481002455057478 -25.489147217889553 7.694542641991573 0 -1 0 I I #
point $-1 -78.481002455057478 -23.989147217889553 7.694542641991573 #
point $-1 -78.481002455057478 -23.989147217889553 -7.694542641991573 #
coedge $-1 $569 $491 $493 $566 reversed $482 $-1 #
straight-curve $-1 -72.022461622974333 -26.989147217889553 0 0 0 -1 I I #
edge $-1 $620 -32.709367905208531 $495 -26.989147217889553 $564 $621 forward 7 unknown #
point $-1 -72.022461622974333 -26.989147217889553 -7.694542641991573 #
point $-1 -72.022461622974333 -26.989147217889553 7.694542641991573 #
coedge $-1 $501 $564 $503 $571 reversed $482 $-1 #
coedge $-1 $504 $503 $510 $574 reversed $505 $-1 #
edge $-1 $506 -7.694542641991573 $620 7.694542641991573 $569 $622 forward 7 unknown #
point $-1 -72.022461622974333 -32.709367905208531 7.694542641991573 #
straight-curve $-1 72.022461622974333 -32.709367905208531 0 0 0 -1 I I #
edge $-1 $512 -72.022461622974333 $620 72.022461622974333 $570 $623 forward 7 unknown #
coedge $-1 $511 $556 $517 $578 forward $494 $-1 #
point $-1 72.022461622974333 -32.709367905208531 -7.694542641991573 #
straight-curve $-1 0 32.709367905208531 -7.694542641991573 1 0 0 I I #
edge $-1 $558 -23.989147217889553 $519 32.709367905208531 $517 $621 forward 7 unknown #
point $-1 -72.022461622974333 32.709367905208531 -7.694542641991573 #
face $-1 $624 $625 $15 $-1 $582 reversed single #
loop $-1 $-1 $611 $522 #
plane-surface $-1 -72.022461622974333 0 0 1 0 0 0 0 -1 forward_v I I I I #
coedge $-1 $626 $608 $611 $627 reversed $523 $-1 #
coedge $-1 $528 $525 $628 $629 reversed $445 $-1 #
coedge $-1 $525 $528 $607 $630 reversed $445 $-1 #
coedge $-1 $608 $626 $525 $587 reversed $523 $-1 #
edge $-1 $631 -7.694542641991573 $632 7.694542641991573 $586 $633 forward 7 unknown #
coedge $-1 $527 $526 $634 $635 reversed $361 $-1 #
coedge $-1 $628 $636 $526 $590 forward $637 $-1 #
edge $-1 $638 -3.2292704160415724 $594 3.2292704160415724 $526 $639 forward 7 unknown #
coedge $-1 $596 $607 $527 $592 forward $288 $-1 #
edge $-1 $593 -3.2292704160415724 $640 3.2292704160415724 $527 $641 forward 7 unknown #
vertex $-1 $630 $642 #
vertex $-1 $629 $643 #
straight-curve $-1 -78.481002455057478 -26.989147217889553 0 0 0 -1 I I #
coedge $-1 $530 $591 $644 $645 forward $288 $-1 #
coedge $-1 $646 $647 $530 $598 reversed $648 $-1 #
edge $-1 $649 -72.022461622974333 $600 72.022461622974333 $597 $650 forward 7 unknown #
coedge $-1 $539 $531 $647 $651 forward $374 $-1 #
vertex $-1 $532 $652 #
point $-1 72.022461622974333 -25.15415846261131 1.4451689696881118 #
coedge $-1 $653 $654 $539 $603 forward $637 $-1 #
edge $-1 $605 -32.709367905208531 $655 32.709367905208531 $539 $656 forward 7 unknown #
coedge $-1 $546 $540 $654 $657 reversed $547 $-1 #
vertex $-1 $603 $658 #
straight-curve $-1 72.022461622974333 32.709367905208531 0 0 0 -1 I I #
coedge $-1 $591 $543 $585 $630 forward $288 $-1 #
coedge $-1 $583 $586 $543 $609 reversed $523 $-1 #
edge $-1 $612 -3.2292704160415724 $631 3.2292704160415724 $608 $659 forward 7 unknown #
coedge $-1 $660 $544 $546 $614 forward $581 $-1 #
coedge $-1 $544 $660 $583 $627 forward $581 $-1 #
vertex $-1 $609 $661 #
straight-curve $-1 -72.022461622974333 0 7.694542641991573 0 -1 0 I I #
edge $-1 $548 -7.694542641991573 $662 7.694542641991573 $546 $663 forward 7 unknown #
face $-1 $459 $547 $15 $-1 $664 reversed single #
point $-1 -72.022461622974333 32.709367905208531 7.694542641991573 #
plane-surface $-1 0 -32.709367905208531 0 0 1 0 0 0 1 forward_v I I I I #
straight-curve $-1 -75.251732039015906 -23.989147217889553 -7.694542641991573 1 0 0 I I #
point $-1 -72.022461622974333 -23.989147217889553 -7.694542641991573 #
vertex $-1 $566 $665 #
straight-curve $-1 -72.022461622974333 0 -7.694542641991573 0 1 0 I I #
straight-curve $-1 -72.022461622974333 -32.709367905208531 0 0 0 -1 I I #
straight-curve $-1 0 -32.709367905208531 -7.694542641991573 -1 0 0 I I #
face $-1 $666 $637 $15 $-1 $667 reversed single #
loop $-1 $-1 $634 $580 #
coedge $-1 $586 $583 $668 $669 reversed $523 $-1 #
edge $-1 $670 -7.694542641991573 $612 7.694542641991573 $611 $671 forward 7 unknown #
coedge $-1 $668 $589 $584 $629 forward $637 $-1 #
edge $-1 $594 -1.5 $632 1.5 $584 $672 forward 7 unknown #
edge $-1 $631 -1.5 $593 1.5 $585 $673 forward 7 unknown #
vertex $-1 $609 $674 #
vertex $-1 $669 $675 #
straight-curve $-1 -78.481002455057478 -23.989147217889553 0 0 0 -1 I I #
coedge $-1 $676 $644 $588 $635 forward $625 $-1 #
edge $-1 $640 -7.694542641991573 $638 7.694542641991573 $634 $677 forward 7 unknown #
coedge $-1 $589 $653 $676 $678 forward $637 $-1 #
loop $-1 $-1 $602 $624 #
vertex $-1 $590 $679 #
straight-curve $-1 -75.251732039015906 -26.989147217889553 -7.694542641991573 -1 0 0 I I #
vertex $-1 $645 $680 #
straight-curve $-1 -75.251732039015906 -26.989147217889553 7.694542641991573 1 0 0 I I #
point $-1 -78.481002455057478 -26.989147217889553 7.694542641991573 #
point $-1 -78.481002455057478 -26.989147217889553 -7.694542641991573 #
coedge $-1 $634 $681 $596 $645 reversed $625 $-1 #
edge $-1 $640 26.989147217889553 $649 32.709367905208531 $644 $613 forward 7 unknown #
coedge $-1 $682 $597 $681 $683 forward $648 $-1 #
coedge $-1 $597 $682 $599 $651 reversed $648 $-1 #
loop $-1 $-1 $646 $666 #
vertex $-1 $645 $684 #
straight-curve $-1 0 -32.709367905208531 7.694542641991573 1 0 0 I I #
edge $-1 $600 -7.694542641991573 $655 7.694542641991573 $599 $685 forward 7 unknown #
point $-1 72.022461622974333 -32.709367905208531 7.694542641991573 #
coedge $-1 $636 $602 $682 $686 forward $637 $-1 #
coedge $-1 $602 $687 $604 $657 forward $637 $-1 #
vertex $-1 $651 $688 #
straight-curve $-1 72.022461622974333 0 -7.694542641991573 0 -1 0 I I #
edge $-1 $662 -72.022461622974333 $605 72.022461622974333 $604 $689 forward 7 unknown #
point $-1 72.022461622974333 32.709367905208531 -7.694542641991573 #
straight-curve $-1 -75.251732039015906 -23.989147217889553 7.694542641991573 -1 0 0 I I #
coedge $-1 $611 $610 $687 $690 reversed $581 $-1 #
point $-1 -72.022461622974333 -23.989147217889553 7.694542641991573 #
vertex $-1 $657 $691 #
straight-curve $-1 -72.022461622974333 32.709367905208531 0 0 0 -1 I I #
plane-surface $-1 0 32.709367905208531 0 0 -1 0 0 0 -1 forward_v I I I I #
point $-1 -72.022461622974333 -32.709367905208531 -7.694542641991573 #
face $-1 $615 $648 $15 $-1 $692 reversed single #
plane-surface $-1 0 0 -7.694542641991573 0 0 1 1 0 0 forward_v I I I I #
coedge $-1 $687 $628 $626 $669 forward $637 $-1 #
edge $-1 $632 -3.2292704160415724 $670 3.2292704160415724 $626 $693 forward 7 unknown #
vertex $-1 $690 $694 #
straight-curve $-1 -72.022461622974333 -23.989147217889553 0 0 0 1 I I #
straight-curve $-1 -78.481002455057478 -25.489147217889553 -7.694542641991573 0 1 0 I I #
straight-curve $-1 -78.481002455057478 -25.489147217889553 7.694542641991573 0 -1 0 I I #
point $-1 -78.481002455057478 -23.989147217889553 7.694542641991573 #
point $-1 -78.481002455057478 -23.989147217889553 -7.694542641991573 #
coedge $-1 $681 $634 $636 $678 reversed $625 $-1 #
straight-curve $-1 -72.022461622974333 -26.989147217889553 0 0 0 -1 I I #
edge $-1 $695 -32.709367905208531 $638 -26.989147217889553 $676 $696 forward 7 unknown #
point $-1 -72.022461622974333 -26.989147217889553 -7.694542641991573 #
point $-1 -72.022461622974333 -26.989147217889553 7.694542641991573 #
coedge $-1 $644 $676 $646 $683 reversed $625 $-1 #
coedge $-1 $647 $646 $653 $686 reversed $648 $-1 #
edge $-1 $649 -7.694542641991573 $695 7.694542641991573 $681 $697 forward 7 unknown #
point $-1 -72.022461622974333 -32.709367905208531 7.694542641991573 #
straight-curve $-1 72.022461622974333 -32.709367905208531 0 0 0 -1 I I #
edge $-1 $655 -72.022461622974333 $695 72.022461622974333 $682 $698 forward 7 unknown #
coedge $-1 $654 $668 $660 $690 forward $637 $-1 #
point $-1 72.022461622974333 -32.709367905208531 -7.694542641991573 #
straight-curve $-1 0 32.709367905208531 -7.694542641991573 1 0 0 I I #
edge $-1 $670 -23.989147217889553 $662 32.709367905208531 $660 $696 forward 7 unknown #
point $-1 -72.022461622974333 32.709367905208531 -7.694542641991573 #
plane-surface $-1 0 -32.709367905208531 0 0 1 0 0 0 1 forward_v I I I I #
straight-curve $-1 -75.251732039015906 -23.989147217889553 -7.694542641991573 1 0 0 I I #
point $-1 -72.022461622974333 -23.989147217889553 -7.694542641991573 #
vertex $-1 $678 $699 #
straight-curve $-1 -72.022461622974333 0 -7.694542641991573 0 1 0 I I #
straight-curve $-1 -72.022461622974333 -32.709367905208531 0 0 0 -1 I I #
straight-curve $-1 0 -32.709367905208531 -7.694542641991573 -1 0 0 I I #
point $-1 -72.022461622974333 -32.709367905208531 -7.694542641991573 #
End-of-ACIS-data 