500 0 11 0           
7 Unknown 11 ACIS 5.0 NT 24 Fri Mar 26 20:08:33 1999 
-1 9.9999999999999995e-007 1e-010 
body $-1 $11 $-1 $12 #
body $-1 $13 $-1 $14 #
body $-1 $15 $-1 $16 #
body $-1 $17 $-1 $18 #
body $-1 $19 $-1 $20 #
body $-1 $21 $-1 $22 #
body $-1 $23 $-1 $24 #
body $-1 $25 $-1 $26 #
body $-1 $27 $-1 $28 #
body $-1 $29 $-1 $30 #
body $-1 $31 $-1 $32 #
lump $-1 $-1 $33 $0 #
transform $-1 1 0 0 0 1 0 0 0 1 45.333414716025267 19.209596951432722 5.5255657871132184 1 rotate no_reflect no_shear #
lump $-1 $-1 $34 $1 #
transform $-1 1 0 0 0 1 0 0 0 1 45.333414716025267 2.4350144996006753 3.8674241375807501 1 rotate no_reflect no_shear #
lump $-1 $-1 $35 $2 #
transform $-1 0.80901698891910034 0 -0.5877852598018023 0 1 0 0.5877852598018023 0 0.80901698891910034 70.608449983214854 7.9714399520692849 132.47141399205191 1 rotate no_reflect no_shear #
lump $-1 $-1 $36 $3 #
transform $-1 0.80901698891910034 0 -0.5877852598018023 0 -1 0 -0.5877852598018023 0 -0.80901698891910034 85.835943566035112 6.6422638294115988 6.7379401501369216 1 rotate no_reflect no_shear #
lump $-1 $-1 $37 $4 #
transform $-1 0.80901698891910034 0 -0.5877852598018023 0 -1 0 -0.5877852598018023 0 -0.80901698891910034 85.835943566035112 9.300616074726971 6.7379401501369216 1 rotate no_reflect no_shear #
lump $-1 $-1 $38 $5 #
transform $-1 0.79863550430605224 0 0.6018150307709319 0 1 0 -0.6018150307709319 0 0.79863550430605224 -54.564660744552334 10.38084520225491 79.44054186943076 1 rotate no_reflect no_shear #
lump $-1 $-1 $39 $6 #
transform $-1 0.79863550430605224 0 0.6018150307709319 0 -1 0 0.6018150307709319 0 -0.79863550430605224 6.3088210385963688 10.38084520225491 4.208878610132361 1 rotate no_reflect no_shear #
lump $-1 $-1 $40 $7 #
transform $-1 0.79863550430605224 0 0.6018150307709319 0 1 0 -0.6018150307709319 0 0.79863550430605224 -54.564660744552334 21.563900170142944 79.44054186943076 1 rotate no_reflect no_shear #
lump $-1 $-1 $41 $8 #
transform $-1 0.79863550430605224 0 0.6018150307709319 0 -1 0 0.6018150307709319 0 -0.79863550430605224 6.3088210385963688 21.563900170142944 4.208878610132361 1 rotate no_reflect no_shear #
lump $-1 $-1 $42 $9 #
transform $-1 0.79863550430605224 0 0.6018150307709319 0 1 0 -0.6018150307709319 0 0.79863550430605224 -54.564660744552334 32.746955138030977 79.44054186943076 1 rotate no_reflect no_shear #
lump $-1 $-1 $43 $10 #
transform $-1 0.79863550430605224 0 0.6018150307709319 0 -1 0 0.6018150307709319 0 -0.79863550430605224 6.3088210385963688 32.746955138030977 4.208878610132361 1 rotate no_reflect no_shear #
shell $-1 $-1 $-1 $44 $-1 $11 #
shell $-1 $-1 $-1 $45 $-1 $13 #
shell $-1 $-1 $-1 $46 $-1 $15 #
shell $-1 $-1 $-1 $47 $-1 $17 #
shell $-1 $-1 $-1 $48 $-1 $19 #
shell $-1 $-1 $-1 $49 $-1 $21 #
shell $-1 $-1 $-1 $50 $-1 $23 #
shell $-1 $-1 $-1 $51 $-1 $25 #
shell $-1 $-1 $-1 $52 $-1 $27 #
shell $-1 $-1 $-1 $53 $-1 $29 #
shell $-1 $-1 $-1 $54 $-1 $31 #
face $-1 $55 $56 $33 $-1 $57 forward single #
face $-1 $58 $59 $34 $-1 $60 forward single #
face $-1 $61 $62 $35 $-1 $63 forward single #
face $-1 $64 $65 $36 $-1 $66 forward single #
face $-1 $67 $68 $37 $-1 $69 forward single #
face $-1 $70 $71 $38 $-1 $72 forward single #
face $-1 $73 $74 $39 $-1 $75 forward single #
face $-1 $76 $77 $40 $-1 $78 forward single #
face $-1 $79 $80 $41 $-1 $81 forward single #
face $-1 $82 $83 $42 $-1 $84 forward single #
face $-1 $85 $86 $43 $-1 $87 forward single #
face $-1 $88 $89 $33 $-1 $90 reversed single #
loop $-1 $-1 $91 $44 #
plane-surface $-1 0 0 5.5255657871132184 0 0 1 1 0 0 forward_v I I I I #
face $-1 $92 $93 $34 $-1 $94 reversed single #
loop $-1 $-1 $95 $45 #
plane-surface $-1 0 0 1.622661726325173 0 0 1 1 0 0 forward_v I I I I #
face $-1 $96 $97 $35 $-1 $98 reversed single #
loop $-1 $-1 $99 $46 #
plane-surface $-1 0 0 90.66682943205052 0 0 1 1 0 0 forward_v I I I I #
face $-1 $100 $101 $36 $-1 $102 forward single #
loop $-1 $103 $104 $47 #
cone-surface $-1 0 0 -1.1765953550828572 0 0 1 0.5 0 0 1 I I 0 1 0.5 forward I I I I #
face $-1 $105 $106 $37 $-1 $107 forward single #
loop $-1 $108 $109 $48 #
cone-surface $-1 0 0 -1.1765953550828572 0 0 1 0.5 0 0 1 I I 0 1 0.5 forward I I I I #
face $-1 $110 $111 $38 $-1 $112 reversed single #
loop $-1 $-1 $113 $49 #
plane-surface $-1 0 0 90.666829432050534 0 0 1 1 0 0 forward_v I I I I #
face $-1 $114 $115 $39 $-1 $116 forward single #
loop $-1 $117 $118 $50 #
cone-surface $-1 0 0 -3.4002121036408584 0 0 1 1.5 0 0 1 I I 0 1 1.5 forward I I I I #
face $-1 $119 $120 $40 $-1 $121 reversed single #
loop $-1 $-1 $122 $51 #
plane-surface $-1 0 0 90.666829432050534 0 0 1 1 0 0 forward_v I I I I #
face $-1 $123 $124 $41 $-1 $125 forward single #
loop $-1 $126 $127 $52 #
cone-surface $-1 0 0 -3.4002121036408584 0 0 1 1.5 0 0 1 I I 0 1 1.5 forward I I I I #
face $-1 $128 $129 $42 $-1 $130 reversed single #
loop $-1 $-1 $131 $53 #
plane-surface $-1 0 0 90.666829432050534 0 0 1 1 0 0 forward_v I I I I #
face $-1 $132 $133 $43 $-1 $134 forward single #
loop $-1 $135 $136 $54 #
cone-surface $-1 0 0 -3.4002121036408584 0 0 1 1.5 0 0 1 I I 0 1 1.5 forward I I I I #
face $-1 $137 $138 $33 $-1 $139 reversed single #
loop $-1 $-1 $140 $55 #
plane-surface $-1 0 0 -5.5255657871132184 0 0 1 1 0 0 forward_v I I I I #
coedge $-1 $141 $142 $143 $144 forward $56 $-1 #
face $-1 $145 $146 $34 $-1 $147 reversed single #
loop $-1 $-1 $148 $58 #
plane-surface $-1 0 0 -1.622661726325173 0 0 1 1 0 0 forward_v I I I I #
coedge $-1 $149 $150 $151 $152 forward $59 $-1 #
face $-1 $153 $154 $35 $-1 $155 reversed single #
loop $-1 $-1 $156 $61 #
plane-surface $-1 0 0 -90.66682943205052 0 0 1 1 0 0 forward_v I I I I #
coedge $-1 $157 $158 $159 $160 forward $62 $-1 #
face $-1 $-1 $161 $36 $-1 $162 forward single #
loop $-1 $-1 $163 $64 #
plane-surface $-1 0 0 -2.1031907101657148 0 0 -1 -1 0 0 forward_v I I I I #
loop $-1 $-1 $164 $47 #
coedge $-1 $104 $104 $163 $165 reversed $65 $-1 #
face $-1 $-1 $166 $37 $-1 $167 forward single #
loop $-1 $-1 $168 $67 #
plane-surface $-1 0 0 -2.1031907101657148 0 0 -1 -1 0 0 forward_v I I I I #
loop $-1 $-1 $169 $48 #
coedge $-1 $109 $109 $168 $170 reversed $68 $-1 #
face $-1 $171 $172 $38 $-1 $173 reversed single #
loop $-1 $-1 $174 $70 #
plane-surface $-1 0 0 -90.666829432050534 0 0 1 1 0 0 forward_v I I I I #
coedge $-1 $175 $176 $177 $178 forward $71 $-1 #
face $-1 $-1 $179 $39 $-1 $180 forward single #
loop $-1 $-1 $181 $73 #
plane-surface $-1 0 0 -6.0504242072817167 0 0 -1 -1 0 0 forward_v I I I I #
loop $-1 $-1 $182 $50 #
coedge $-1 $118 $118 $181 $183 reversed $74 $-1 #
face $-1 $184 $185 $40 $-1 $186 reversed single #
loop $-1 $-1 $187 $76 #
plane-surface $-1 0 0 -90.666829432050534 0 0 1 1 0 0 forward_v I I I I #
coedge $-1 $188 $189 $190 $191 forward $77 $-1 #
face $-1 $-1 $192 $41 $-1 $193 forward single #
loop $-1 $-1 $194 $79 #
plane-surface $-1 0 0 -6.0504242072817167 0 0 -1 -1 0 0 forward_v I I I I #
loop $-1 $-1 $195 $52 #
coedge $-1 $127 $127 $194 $196 reversed $80 $-1 #
face $-1 $197 $198 $42 $-1 $199 reversed single #
loop $-1 $-1 $200 $82 #
plane-surface $-1 0 0 -90.666829432050534 0 0 1 1 0 0 forward_v I I I I #
coedge $-1 $201 $202 $203 $204 forward $83 $-1 #
face $-1 $-1 $205 $43 $-1 $206 forward single #
loop $-1 $-1 $207 $85 #
plane-surface $-1 0 0 -6.0504242072817167 0 0 -1 -1 0 0 forward_v I I I I #
loop $-1 $-1 $208 $54 #
coedge $-1 $136 $136 $207 $209 reversed $86 $-1 #
face $-1 $210 $211 $33 $-1 $212 reversed single #
loop $-1 $-1 $213 $88 #
plane-surface $-1 0 -19.209596951432722 0 0 1 0 0 0 1 forward_v I I I I #
coedge $-1 $214 $215 $216 $217 forward $89 $-1 #
coedge $-1 $218 $91 $219 $220 forward $56 $-1 #
coedge $-1 $91 $218 $221 $222 forward $56 $-1 #
coedge $-1 $223 $224 $91 $144 reversed $225 $-1 #
edge $-1 $226 -19.209596951432722 $227 19.209596951432722 $143 $228 forward 7 unknown #
face $-1 $229 $230 $34 $-1 $231 reversed single #
loop $-1 $-1 $232 $92 #
plane-surface $-1 0 -2.4350144996006753 0 0 1 0 0 0 1 forward_v I I I I #
coedge $-1 $233 $234 $235 $236 forward $93 $-1 #
coedge $-1 $237 $95 $238 $239 forward $59 $-1 #
coedge $-1 $95 $237 $240 $241 forward $59 $-1 #
coedge $-1 $242 $243 $95 $152 reversed $244 $-1 #
edge $-1 $245 -2.4350144996006753 $246 2.4350144996006753 $151 $247 forward 7 unknown #
face $-1 $248 $249 $35 $-1 $250 reversed single #
loop $-1 $-1 $251 $96 #
plane-surface $-1 0 -3.1014109528679343 0 0 1 0 0 0 1 forward_v I I I I #
coedge $-1 $252 $253 $254 $255 forward $97 $-1 #
coedge $-1 $256 $99 $257 $258 forward $62 $-1 #
coedge $-1 $99 $256 $259 $260 forward $62 $-1 #
coedge $-1 $261 $262 $99 $160 reversed $263 $-1 #
edge $-1 $264 -3.1014109528679343 $265 3.1014109528679343 $159 $266 forward 7 unknown #
loop $-1 $267 $268 $100 #
cone-surface $-1 0 0 0 0 0 1 0.25 0 0 1 I I -0.70710678118654746 0.70710678118654746 0.25 forward I I I I #
coedge $-1 $163 $163 $104 $165 forward $101 $-1 #
coedge $-1 $164 $164 $268 $269 forward $103 $-1 #
edge $-1 $270 0 $270 6.2831853071796004 $163 $271 forward 7 unknown #
loop $-1 $272 $273 $105 #
cone-surface $-1 0 0 0 0 0 1 0.25 0 0 1 I I -0.70710678118654746 0.70710678118654746 0.25 forward I I I I #
coedge $-1 $168 $168 $109 $170 forward $106 $-1 #
coedge $-1 $169 $169 $273 $274 forward $108 $-1 #
edge $-1 $275 0 $275 6.2831853071796004 $168 $276 forward 7 unknown #
face $-1 $277 $278 $38 $-1 $279 reversed single #
loop $-1 $-1 $280 $110 #
plane-surface $-1 0 -3.5101105415145124 0 0 1 0 0 0 1 forward_v I I I I #
coedge $-1 $281 $282 $283 $284 forward $111 $-1 #
coedge $-1 $285 $113 $286 $287 forward $71 $-1 #
coedge $-1 $113 $285 $288 $289 forward $71 $-1 #
coedge $-1 $290 $291 $113 $178 reversed $292 $-1 #
edge $-1 $293 -3.5101105415145124 $294 3.5101105415145124 $177 $295 forward 7 unknown #
loop $-1 $296 $297 $114 #
cone-surface $-1 0 0 0 0 0 1 0.75 0 0 1 I I -0.70710678118654757 0.70710678118654757 0.75 forward I I I I #
coedge $-1 $181 $181 $118 $183 forward $115 $-1 #
coedge $-1 $182 $182 $297 $298 forward $117 $-1 #
edge $-1 $299 0 $299 6.2831853071796004 $181 $300 forward 7 unknown #
face $-1 $301 $302 $40 $-1 $303 reversed single #
loop $-1 $-1 $304 $119 #
plane-surface $-1 0 -3.5101105415145124 0 0 1 0 0 0 1 forward_v I I I I #
coedge $-1 $305 $306 $307 $308 forward $120 $-1 #
coedge $-1 $309 $122 $310 $311 forward $77 $-1 #
coedge $-1 $122 $309 $312 $313 forward $77 $-1 #
coedge $-1 $314 $315 $122 $191 reversed $316 $-1 #
edge $-1 $317 -3.5101105415145124 $318 3.5101105415145124 $190 $319 forward 7 unknown #
loop $-1 $320 $321 $123 #
cone-surface $-1 0 0 0 0 0 1 0.75 0 0 1 I I -0.70710678118654757 0.70710678118654757 0.75 forward I I I I #
coedge $-1 $194 $194 $127 $196 forward $124 $-1 #
coedge $-1 $195 $195 $321 $322 forward $126 $-1 #
edge $-1 $323 0 $323 6.2831853071796004 $194 $324 forward 7 unknown #
face $-1 $325 $326 $42 $-1 $327 reversed single #
loop $-1 $-1 $328 $128 #
plane-surface $-1 0 -3.5101105415145124 0 0 1 0 0 0 1 forward_v I I I I #
coedge $-1 $329 $330 $331 $332 forward $129 $-1 #
coedge $-1 $333 $131 $334 $335 forward $83 $-1 #
coedge $-1 $131 $333 $336 $337 forward $83 $-1 #
coedge $-1 $338 $339 $131 $204 reversed $340 $-1 #
edge $-1 $341 -3.5101105415145124 $342 3.5101105415145124 $203 $343 forward 7 unknown #
loop $-1 $344 $345 $132 #
cone-surface $-1 0 0 0 0 0 1 0.75 0 0 1 I I -0.70710678118654757 0.70710678118654757 0.75 forward I I I I #
coedge $-1 $207 $207 $136 $209 forward $133 $-1 #
coedge $-1 $208 $208 $345 $346 forward $135 $-1 #
edge $-1 $347 0 $347 6.2831853071796004 $207 $348 forward 7 unknown #
face $-1 $349 $350 $33 $-1 $351 reversed single #
loop $-1 $-1 $352 $137 #
plane-surface $-1 -45.333414716025267 0 0 1 0 0 0 0 -1 forward_v I I I I #
coedge $-1 $353 $221 $354 $355 forward $138 $-1 #
coedge $-1 $356 $140 $353 $357 forward $89 $-1 #
coedge $-1 $140 $356 $358 $359 forward $89 $-1 #
coedge $-1 $224 $223 $140 $217 reversed $225 $-1 #
edge $-1 $360 -19.209596951432722 $361 19.209596951432722 $216 $362 forward 7 unknown #
coedge $-1 $142 $141 $363 $364 forward $56 $-1 #
coedge $-1 $365 $366 $141 $220 reversed $350 $-1 #
edge $-1 $227 -45.333414716025267 $367 45.333414716025267 $219 $368 forward 7 unknown #
coedge $-1 $213 $369 $142 $222 reversed $138 $-1 #
edge $-1 $370 -45.333414716025267 $226 45.333414716025267 $221 $371 forward 7 unknown #
coedge $-1 $216 $143 $369 $372 forward $225 $-1 #
coedge $-1 $143 $216 $365 $373 reversed $225 $-1 #
loop $-1 $-1 $223 $349 #
vertex $-1 $144 $374 #
vertex $-1 $144 $375 #
straight-curve $-1 45.333414716025267 0 5.5255657871132184 0 1 0 I I #
face $-1 $376 $377 $34 $-1 $378 reversed single #
loop $-1 $-1 $379 $145 #
plane-surface $-1 -45.333414716025267 0 0 1 0 0 0 0 -1 forward_v I I I I #
coedge $-1 $380 $240 $381 $382 forward $146 $-1 #
coedge $-1 $383 $148 $380 $384 forward $93 $-1 #
coedge $-1 $148 $383 $385 $386 forward $93 $-1 #
coedge $-1 $243 $242 $148 $236 reversed $244 $-1 #
edge $-1 $387 -2.4350144996006753 $388 2.4350144996006753 $235 $389 forward 7 unknown #
coedge $-1 $150 $149 $390 $391 forward $59 $-1 #
coedge $-1 $392 $393 $149 $239 reversed $377 $-1 #
edge $-1 $246 -45.333414716025267 $394 45.333414716025267 $238 $395 forward 7 unknown #
coedge $-1 $232 $396 $150 $241 reversed $146 $-1 #
edge $-1 $397 -45.333414716025267 $245 45.333414716025267 $240 $398 forward 7 unknown #
coedge $-1 $235 $151 $396 $399 forward $244 $-1 #
coedge $-1 $151 $235 $392 $400 reversed $244 $-1 #
loop $-1 $-1 $242 $376 #
vertex $-1 $152 $401 #
vertex $-1 $152 $402 #
straight-curve $-1 45.333414716025267 0 1.622661726325173 0 1 0 I I #
face $-1 $403 $404 $35 $-1 $405 reversed single #
loop $-1 $-1 $406 $153 #
plane-surface $-1 -181.33365886410107 0 0 1 0 0 0 0 -1 forward_v I I I I #
coedge $-1 $407 $259 $408 $409 forward $154 $-1 #
coedge $-1 $410 $156 $407 $411 forward $97 $-1 #
coedge $-1 $156 $410 $412 $413 forward $97 $-1 #
coedge $-1 $262 $261 $156 $255 reversed $263 $-1 #
edge $-1 $414 -3.1014109528679343 $415 3.1014109528679343 $254 $416 forward 7 unknown #
coedge $-1 $158 $157 $417 $418 forward $62 $-1 #
coedge $-1 $419 $420 $157 $258 reversed $404 $-1 #
edge $-1 $265 -181.33365886410107 $421 181.33365886410107 $257 $422 forward 7 unknown #
coedge $-1 $251 $423 $158 $260 reversed $154 $-1 #
edge $-1 $424 -181.33365886410107 $264 181.33365886410107 $259 $425 forward 7 unknown #
coedge $-1 $254 $159 $423 $426 forward $263 $-1 #
coedge $-1 $159 $254 $419 $427 reversed $263 $-1 #
loop $-1 $-1 $261 $403 #
vertex $-1 $160 $428 #
vertex $-1 $160 $429 #
straight-curve $-1 181.33365886410107 0 90.66682943205052 0 1 0 I I #
loop $-1 $-1 $430 $100 #
coedge $-1 $268 $268 $164 $269 reversed $161 $-1 #
edge $-1 $431 0 $431 6.2831853071796004 $268 $432 forward 7 unknown #
vertex $-1 $165 $433 #
ellipse-curve $-1 0 0 -2.1031907101657148 0 0 -1 0.5 0 0 1 I I #
loop $-1 $-1 $434 $105 #
coedge $-1 $273 $273 $169 $274 reversed $166 $-1 #
edge $-1 $435 0 $435 6.2831853071796004 $273 $436 forward 7 unknown #
vertex $-1 $170 $437 #
ellipse-curve $-1 0 0 -2.1031907101657148 0 0 -1 0.5 0 0 1 I I #
face $-1 $438 $439 $38 $-1 $440 reversed single #
loop $-1 $-1 $441 $171 #
plane-surface $-1 -181.33365886410107 0 0 1 0 0 0 0 -1 forward_v I I I I #
coedge $-1 $442 $288 $443 $444 forward $172 $-1 #
coedge $-1 $445 $174 $442 $446 forward $111 $-1 #
coedge $-1 $174 $445 $447 $448 forward $111 $-1 #
coedge $-1 $291 $290 $174 $284 reversed $292 $-1 #
edge $-1 $449 -3.5101105415145124 $450 3.5101105415145124 $283 $451 forward 7 unknown #
coedge $-1 $176 $175 $452 $453 forward $71 $-1 #
coedge $-1 $454 $455 $175 $287 reversed $439 $-1 #
edge $-1 $294 -181.33365886410107 $456 181.33365886410107 $286 $457 forward 7 unknown #
coedge $-1 $280 $458 $176 $289 reversed $172 $-1 #
edge $-1 $459 -181.33365886410107 $293 181.33365886410107 $288 $460 forward 7 unknown #
coedge $-1 $283 $177 $458 $461 forward $292 $-1 #
coedge $-1 $177 $283 $454 $462 reversed $292 $-1 #
loop $-1 $-1 $290 $438 #
vertex $-1 $178 $463 #
vertex $-1 $178 $464 #
straight-curve $-1 181.33365886410107 0 90.666829432050534 0 1 0 I I #
loop $-1 $-1 $465 $114 #
coedge $-1 $297 $297 $182 $298 reversed $179 $-1 #
edge $-1 $466 0 $466 6.2831853071796004 $297 $467 forward 7 unknown #
vertex $-1 $183 $468 #
ellipse-curve $-1 0 0 -6.0504242072817167 0 0 -1 1.5 0 0 1 I I #
face $-1 $469 $470 $40 $-1 $471 reversed single #
loop $-1 $-1 $472 $184 #
plane-surface $-1 -181.33365886410107 0 0 1 0 0 0 0 -1 forward_v I I I I #
coedge $-1 $473 $312 $474 $475 forward $185 $-1 #
coedge $-1 $476 $187 $473 $477 forward $120 $-1 #
coedge $-1 $187 $476 $478 $479 forward $120 $-1 #
coedge $-1 $315 $314 $187 $308 reversed $316 $-1 #
edge $-1 $480 -3.5101105415145124 $481 3.5101105415145124 $307 $482 forward 7 unknown #
coedge $-1 $189 $188 $483 $484 forward $77 $-1 #
coedge $-1 $485 $486 $188 $311 reversed $470 $-1 #
edge $-1 $318 -181.33365886410107 $487 181.33365886410107 $310 $488 forward 7 unknown #
coedge $-1 $304 $489 $189 $313 reversed $185 $-1 #
edge $-1 $490 -181.33365886410107 $317 181.33365886410107 $312 $491 forward 7 unknown #
coedge $-1 $307 $190 $489 $492 forward $316 $-1 #
coedge $-1 $190 $307 $485 $493 reversed $316 $-1 #
loop $-1 $-1 $314 $469 #
vertex $-1 $191 $494 #
vertex $-1 $191 $495 #
straight-curve $-1 181.33365886410107 0 90.666829432050534 0 1 0 I I #
loop $-1 $-1 $496 $123 #
coedge $-1 $321 $321 $195 $322 reversed $192 $-1 #
edge $-1 $497 0 $497 6.2831853071796004 $321 $498 forward 7 unknown #
vertex $-1 $196 $499 #
ellipse-curve $-1 0 0 -6.0504242072817167 0 0 -1 1.5 0 0 1 I I #
face $-1 $500 $501 $42 $-1 $502 reversed single #
loop $-1 $-1 $503 $197 #
plane-surface $-1 -181.33365886410107 0 0 1 0 0 0 0 -1 forward_v I I I I #
coedge $-1 $504 $336 $505 $506 forward $198 $-1 #
coedge $-1 $507 $200 $504 $508 forward $129 $-1 #
coedge $-1 $200 $507 $509 $510 forward $129 $-1 #
coedge $-1 $339 $338 $200 $332 reversed $340 $-1 #
edge $-1 $511 -3.5101105415145124 $512 3.5101105415145124 $331 $513 forward 7 unknown #
coedge $-1 $202 $201 $514 $515 forward $83 $-1 #
coedge $-1 $516 $517 $201 $335 reversed $501 $-1 #
edge $-1 $342 -181.33365886410107 $518 181.33365886410107 $334 $519 forward 7 unknown #
coedge $-1 $328 $520 $202 $337 reversed $198 $-1 #
edge $-1 $521 -181.33365886410107 $341 181.33365886410107 $336 $522 forward 7 unknown #
coedge $-1 $331 $203 $520 $523 forward $340 $-1 #
coedge $-1 $203 $331 $516 $524 reversed $340 $-1 #
loop $-1 $-1 $338 $500 #
vertex $-1 $204 $525 #
vertex $-1 $204 $526 #
straight-curve $-1 181.33365886410107 0 90.666829432050534 0 1 0 I I #
loop $-1 $-1 $527 $132 #
coedge $-1 $345 $345 $208 $346 reversed $205 $-1 #
edge $-1 $528 0 $528 6.2831853071796004 $345 $529 forward 7 unknown #
vertex $-1 $209 $530 #
ellipse-curve $-1 0 0 -6.0504242072817167 0 0 -1 1.5 0 0 1 I I #
face $-1 $-1 $225 $33 $-1 $531 reversed single #
loop $-1 $-1 $365 $210 #
plane-surface $-1 0 19.209596951432722 0 0 -1 0 0 0 -1 forward_v I I I I #
coedge $-1 $532 $363 $366 $533 forward $211 $-1 #
coedge $-1 $369 $213 $214 $357 reversed $138 $-1 #
coedge $-1 $363 $532 $213 $355 reversed $211 $-1 #
edge $-1 $370 -5.5255657871132184 $534 5.5255657871132184 $354 $535 forward 7 unknown #
coedge $-1 $215 $214 $532 $536 forward $89 $-1 #
edge $-1 $361 -45.333414716025267 $534 45.333414716025267 $353 $537 forward 7 unknown #
coedge $-1 $366 $365 $215 $359 reversed $350 $-1 #
edge $-1 $538 -45.333414716025267 $360 45.333414716025267 $358 $539 forward 7 unknown #
vertex $-1 $217 $540 #
vertex $-1 $372 $541 #
straight-curve $-1 45.333414716025267 0 -5.5255657871132184 0 -1 0 I I #
coedge $-1 $352 $354 $218 $364 reversed $211 $-1 #
edge $-1 $367 -19.209596951432722 $370 19.209596951432722 $363 $542 forward 7 unknown #
coedge $-1 $358 $219 $224 $373 forward $350 $-1 #
coedge $-1 $219 $358 $352 $533 reversed $350 $-1 #
vertex $-1 $220 $543 #
straight-curve $-1 0 19.209596951432722 5.5255657871132184 -1 0 0 I I #
coedge $-1 $221 $353 $223 $372 reversed $138 $-1 #
vertex $-1 $364 $544 #
straight-curve $-1 0 -19.209596951432722 5.5255657871132184 1 0 0 I I #
edge $-1 $226 -5.5255657871132184 $361 5.5255657871132184 $223 $545 forward 7 unknown #
edge $-1 $227 -5.5255657871132184 $360 5.5255657871132184 $224 $546 forward 7 unknown #
point $-1 45.333414716025267 -19.209596951432722 5.5255657871132184 #
point $-1 45.333414716025267 19.209596951432722 5.5255657871132184 #
face $-1 $-1 $244 $34 $-1 $547 reversed single #
loop $-1 $-1 $392 $229 #
plane-surface $-1 0 2.4350144996006753 0 0 -1 0 0 0 -1 forward_v I I I I #
coedge $-1 $548 $390 $393 $549 forward $230 $-1 #
coedge $-1 $396 $232 $233 $384 reversed $146 $-1 #
coedge $-1 $390 $548 $232 $382 reversed $230 $-1 #
edge $-1 $397 -1.622661726325173 $550 1.622661726325173 $381 $551 forward 7 unknown #
coedge $-1 $234 $233 $548 $552 forward $93 $-1 #
edge $-1 $388 -45.333414716025267 $550 45.333414716025267 $380 $553 forward 7 unknown #
coedge $-1 $393 $392 $234 $386 reversed $377 $-1 #
edge $-1 $554 -45.333414716025267 $387 45.333414716025267 $385 $555 forward 7 unknown #
vertex $-1 $236 $556 #
vertex $-1 $399 $557 #
straight-curve $-1 45.333414716025267 0 -1.622661726325173 0 -1 0 I I #
coedge $-1 $379 $381 $237 $391 reversed $230 $-1 #
edge $-1 $394 -2.4350144996006753 $397 2.4350144996006753 $390 $558 forward 7 unknown #
coedge $-1 $385 $238 $243 $400 forward $377 $-1 #
coedge $-1 $238 $385 $379 $549 reversed $377 $-1 #
vertex $-1 $239 $559 #
straight-curve $-1 0 2.4350144996006753 1.622661726325173 -1 0 0 I I #
coedge $-1 $240 $380 $242 $399 reversed $146 $-1 #
vertex $-1 $391 $560 #
straight-curve $-1 0 -2.4350144996006753 1.622661726325173 1 0 0 I I #
edge $-1 $245 -1.622661726325173 $388 1.622661726325173 $242 $561 forward 7 unknown #
edge $-1 $246 -1.622661726325173 $387 1.622661726325173 $243 $562 forward 7 unknown #
point $-1 45.333414716025267 -2.4350144996006753 1.622661726325173 #
point $-1 45.333414716025267 2.4350144996006753 1.622661726325173 #
face $-1 $-1 $263 $35 $-1 $563 reversed single #
loop $-1 $-1 $419 $248 #
plane-surface $-1 0 3.1014109528679343 0 0 -1 0 0 0 -1 forward_v I I I I #
coedge $-1 $564 $417 $420 $565 forward $249 $-1 #
coedge $-1 $423 $251 $252 $411 reversed $154 $-1 #
coedge $-1 $417 $564 $251 $409 reversed $249 $-1 #
edge $-1 $424 -90.66682943205052 $566 90.66682943205052 $408 $567 forward 7 unknown #
coedge $-1 $253 $252 $564 $568 forward $97 $-1 #
edge $-1 $415 -181.33365886410107 $566 181.33365886410107 $407 $569 forward 7 unknown #
coedge $-1 $420 $419 $253 $413 reversed $404 $-1 #
edge $-1 $570 -181.33365886410107 $414 181.33365886410107 $412 $571 forward 7 unknown #
vertex $-1 $255 $572 #
vertex $-1 $426 $573 #
straight-curve $-1 181.33365886410107 0 -90.66682943205052 0 -1 0 I I #
coedge $-1 $406 $408 $256 $418 reversed $249 $-1 #
edge $-1 $421 -3.1014109528679343 $424 3.1014109528679343 $417 $574 forward 7 unknown #
coedge $-1 $412 $257 $262 $427 forward $404 $-1 #
coedge $-1 $257 $412 $406 $565 reversed $404 $-1 #
vertex $-1 $258 $575 #
straight-curve $-1 0 3.1014109528679343 90.66682943205052 -1 0 0 I I #
coedge $-1 $259 $407 $261 $426 reversed $154 $-1 #
vertex $-1 $418 $576 #
straight-curve $-1 0 -3.1014109528679343 90.66682943205052 1 0 0 I I #
edge $-1 $264 -90.66682943205052 $415 90.66682943205052 $261 $577 forward 7 unknown #
edge $-1 $265 -90.66682943205052 $414 90.66682943205052 $262 $578 forward 7 unknown #
point $-1 181.33365886410107 -3.1014109528679343 90.66682943205052 #
point $-1 181.33365886410107 3.1014109528679343 90.66682943205052 #
coedge $-1 $430 $430 $-1 $579 reversed $267 $-1 #
vertex $-1 $269 $580 #
ellipse-curve $-1 0 0 -0.25 0 0 -1 0.5 0 0 1 I I #
point $-1 0.5 0 -2.1031907101657148 #
coedge $-1 $434 $434 $-1 $581 reversed $272 $-1 #
vertex $-1 $274 $582 #
ellipse-curve $-1 0 0 -0.25 0 0 -1 0.5 0 0 1 I I #
point $-1 0.5 0 -2.1031907101657148 #
face $-1 $-1 $292 $38 $-1 $583 reversed single #
loop $-1 $-1 $454 $277 #
plane-surface $-1 0 3.5101105415145124 0 0 -1 0 0 0 -1 forward_v I I I I #
coedge $-1 $584 $452 $455 $585 forward $278 $-1 #
coedge $-1 $458 $280 $281 $446 reversed $172 $-1 #
coedge $-1 $452 $584 $280 $444 reversed $278 $-1 #
edge $-1 $459 -90.666829432050534 $586 90.666829432050534 $443 $587 forward 7 unknown #
coedge $-1 $282 $281 $584 $588 forward $111 $-1 #
edge $-1 $450 -181.33365886410107 $586 181.33365886410107 $442 $589 forward 7 unknown #
coedge $-1 $455 $454 $282 $448 reversed $439 $-1 #
edge $-1 $590 -181.33365886410107 $449 181.33365886410107 $447 $591 forward 7 unknown #
vertex $-1 $284 $592 #
vertex $-1 $461 $593 #
straight-curve $-1 181.33365886410107 0 -90.666829432050534 0 -1 0 I I #
coedge $-1 $441 $443 $285 $453 reversed $278 $-1 #
edge $-1 $456 -3.5101105415145124 $459 3.5101105415145124 $452 $594 forward 7 unknown #
coedge $-1 $447 $286 $291 $462 forward $439 $-1 #
coedge $-1 $286 $447 $441 $585 reversed $439 $-1 #
vertex $-1 $287 $595 #
straight-curve $-1 0 3.5101105415145124 90.666829432050534 -1 0 0 I I #
coedge $-1 $288 $442 $290 $461 reversed $172 $-1 #
vertex $-1 $453 $596 #
straight-curve $-1 0 -3.5101105415145124 90.666829432050534 1 0 0 I I #
edge $-1 $293 -90.666829432050534 $450 90.666829432050534 $290 $597 forward 7 unknown #
edge $-1 $294 -90.666829432050534 $449 90.666829432050534 $291 $598 forward 7 unknown #
point $-1 181.33365886410107 -3.5101105415145124 90.666829432050534 #
point $-1 181.33365886410107 3.5101105415145124 90.666829432050534 #
coedge $-1 $465 $465 $-1 $599 reversed $296 $-1 #
vertex $-1 $298 $600 #
ellipse-curve $-1 0 0 -0.75 0 0 -1 1.5 0 0 1 I I #
point $-1 1.5 0 -6.0504242072817167 #
face $-1 $-1 $316 $40 $-1 $601 reversed single #
loop $-1 $-1 $485 $301 #
plane-surface $-1 0 3.5101105415145124 0 0 -1 0 0 0 -1 forward_v I I I I #
coedge $-1 $602 $483 $486 $603 forward $302 $-1 #
coedge $-1 $489 $304 $305 $477 reversed $185 $-1 #
coedge $-1 $483 $602 $304 $475 reversed $302 $-1 #
edge $-1 $490 -90.666829432050534 $604 90.666829432050534 $474 $605 forward 7 unknown #
coedge $-1 $306 $305 $602 $606 forward $120 $-1 #
edge $-1 $481 -181.33365886410107 $604 181.33365886410107 $473 $607 forward 7 unknown #
coedge $-1 $486 $485 $306 $479 reversed $470 $-1 #
edge $-1 $608 -181.33365886410107 $480 181.33365886410107 $478 $609 forward 7 unknown #
vertex $-1 $308 $610 #
vertex $-1 $492 $611 #
straight-curve $-1 181.33365886410107 0 -90.666829432050534 0 -1 0 I I #
coedge $-1 $472 $474 $309 $484 reversed $302 $-1 #
edge $-1 $487 -3.5101105415145124 $490 3.5101105415145124 $483 $612 forward 7 unknown #
coedge $-1 $478 $310 $315 $493 forward $470 $-1 #
coedge $-1 $310 $478 $472 $603 reversed $470 $-1 #
vertex $-1 $311 $613 #
straight-curve $-1 0 3.5101105415145124 90.666829432050534 -1 0 0 I I #
coedge $-1 $312 $473 $314 $492 reversed $185 $-1 #
vertex $-1 $484 $614 #
straight-curve $-1 0 -3.5101105415145124 90.666829432050534 1 0 0 I I #
edge $-1 $317 -90.666829432050534 $481 90.666829432050534 $314 $615 forward 7 unknown #
edge $-1 $318 -90.666829432050534 $480 90.666829432050534 $315 $616 forward 7 unknown #
point $-1 181.33365886410107 -3.5101105415145124 90.666829432050534 #
point $-1 181.33365886410107 3.5101105415145124 90.666829432050534 #
coedge $-1 $496 $496 $-1 $617 reversed $320 $-1 #
vertex $-1 $322 $618 #
ellipse-curve $-1 0 0 -0.75 0 0 -1 1.5 0 0 1 I I #
point $-1 1.5 0 -6.0504242072817167 #
face $-1 $-1 $340 $42 $-1 $619 reversed single #
loop $-1 $-1 $516 $325 #
plane-surface $-1 0 3.5101105415145124 0 0 -1 0 0 0 -1 forward_v I I I I #
coedge $-1 $620 $514 $517 $621 forward $326 $-1 #
coedge $-1 $520 $328 $329 $508 reversed $198 $-1 #
coedge $-1 $514 $620 $328 $506 reversed $326 $-1 #
edge $-1 $521 -90.666829432050534 $622 90.666829432050534 $505 $623 forward 7 unknown #
coedge $-1 $330 $329 $620 $624 forward $129 $-1 #
edge $-1 $512 -181.33365886410107 $622 181.33365886410107 $504 $625 forward 7 unknown #
coedge $-1 $517 $516 $330 $510 reversed $501 $-1 #
edge $-1 $626 -181.33365886410107 $511 181.33365886410107 $509 $627 forward 7 unknown #
vertex $-1 $332 $628 #
vertex $-1 $523 $629 #
straight-curve $-1 181.33365886410107 0 -90.666829432050534 0 -1 0 I I #
coedge $-1 $503 $505 $333 $515 reversed $326 $-1 #
edge $-1 $518 -3.5101105415145124 $521 3.5101105415145124 $514 $630 forward 7 unknown #
coedge $-1 $509 $334 $339 $524 forward $501 $-1 #
coedge $-1 $334 $509 $503 $621 reversed $501 $-1 #
vertex $-1 $335 $631 #
straight-curve $-1 0 3.5101105415145124 90.666829432050534 -1 0 0 I I #
coedge $-1 $336 $504 $338 $523 reversed $198 $-1 #
vertex $-1 $515 $632 #
straight-curve $-1 0 -3.5101105415145124 90.666829432050534 1 0 0 I I #
edge $-1 $341 -90.666829432050534 $512 90.666829432050534 $338 $633 forward 7 unknown #
edge $-1 $342 -90.666829432050534 $511 90.666829432050534 $339 $634 forward 7 unknown #
point $-1 181.33365886410107 -3.5101105415145124 90.666829432050534 #
point $-1 181.33365886410107 3.5101105415145124 90.666829432050534 #
coedge $-1 $527 $527 $-1 $635 reversed $344 $-1 #
vertex $-1 $346 $636 #
ellipse-curve $-1 0 0 -0.75 0 0 -1 1.5 0 0 1 I I #
point $-1 1.5 0 -6.0504242072817167 #
plane-surface $-1 45.333414716025267 0 0 -1 0 0 0 0 1 forward_v I I I I #
coedge $-1 $354 $352 $356 $536 reversed $211 $-1 #
edge $-1 $367 -5.5255657871132184 $538 5.5255657871132184 $366 $637 forward 7 unknown #
vertex $-1 $536 $638 #
straight-curve $-1 -45.333414716025267 -19.209596951432722 0 0 0 -1 I I #
edge $-1 $534 -19.209596951432722 $538 19.209596951432722 $532 $639 forward 7 unknown #
straight-curve $-1 0 -19.209596951432722 -5.5255657871132184 -1 0 0 I I #
vertex $-1 $359 $640 #
straight-curve $-1 0 19.209596951432722 -5.5255657871132184 1 0 0 I I #
point $-1 45.333414716025267 19.209596951432722 -5.5255657871132184 #
point $-1 45.333414716025267 -19.209596951432722 -5.5255657871132184 #
straight-curve $-1 -45.333414716025267 0 5.5255657871132184 0 -1 0 I I #
point $-1 -45.333414716025267 19.209596951432722 5.5255657871132184 #
point $-1 -45.333414716025267 -19.209596951432722 5.5255657871132184 #
straight-curve $-1 45.333414716025267 -19.209596951432722 0 0 0 -1 I I #
straight-curve $-1 45.333414716025267 19.209596951432722 0 0 0 -1 I I #
plane-surface $-1 45.333414716025267 0 0 -1 0 0 0 0 1 forward_v I I I I #
coedge $-1 $381 $379 $383 $552 reversed $230 $-1 #
edge $-1 $394 -1.622661726325173 $554 1.622661726325173 $393 $641 forward 7 unknown #
vertex $-1 $552 $642 #
straight-curve $-1 -45.333414716025267 -2.4350144996006753 0 0 0 -1 I I #
edge $-1 $550 -2.4350144996006753 $554 2.4350144996006753 $548 $643 forward 7 unknown #
straight-curve $-1 0 -2.4350144996006753 -1.622661726325173 -1 0 0 I I #
vertex $-1 $386 $644 #
straight-curve $-1 0 2.4350144996006753 -1.622661726325173 1 0 0 I I #
point $-1 45.333414716025267 2.4350144996006753 -1.622661726325173 #
point $-1 45.333414716025267 -2.4350144996006753 -1.622661726325173 #
straight-curve $-1 -45.333414716025267 0 1.622661726325173 0 -1 0 I I #
point $-1 -45.333414716025267 2.4350144996006753 1.622661726325173 #
point $-1 -45.333414716025267 -2.4350144996006753 1.622661726325173 #
straight-curve $-1 45.333414716025267 -2.4350144996006753 0 0 0 -1 I I #
straight-curve $-1 45.333414716025267 2.4350144996006753 0 0 0 -1 I I #
plane-surface $-1 181.33365886410107 0 0 -1 0 0 0 0 1 forward_v I I I I #
coedge $-1 $408 $406 $410 $568 reversed $249 $-1 #
edge $-1 $421 -90.66682943205052 $570 90.66682943205052 $420 $645 forward 7 unknown #
vertex $-1 $568 $646 #
straight-curve $-1 -181.33365886410107 -3.1014109528679343 0 0 0 -1 I I #
edge $-1 $566 -3.1014109528679343 $570 3.1014109528679343 $564 $647 forward 7 unknown #
straight-curve $-1 0 -3.1014109528679343 -90.66682943205052 -1 0 0 I I #
vertex $-1 $413 $648 #
straight-curve $-1 0 3.1014109528679343 -90.66682943205052 1 0 0 I I #
point $-1 181.33365886410107 3.1014109528679343 -90.66682943205052 #
point $-1 181.33365886410107 -3.1014109528679343 -90.66682943205052 #
straight-curve $-1 -181.33365886410107 0 90.66682943205052 0 -1 0 I I #
point $-1 -181.33365886410107 3.1014109528679343 90.66682943205052 #
point $-1 -181.33365886410107 -3.1014109528679343 90.66682943205052 #
straight-curve $-1 181.33365886410107 -3.1014109528679343 0 0 0 -1 I I #
straight-curve $-1 181.33365886410107 3.1014109528679343 0 0 0 -1 I I #
edge $-1 $649 1 $649 0 $430 $-1 forward 7 unknown #
point $-1 0.5 0 -0.25 #
edge $-1 $650 1 $650 0 $434 $-1 forward 7 unknown #
point $-1 0.5 0 -0.25 #
plane-surface $-1 181.33365886410107 0 0 -1 0 0 0 0 1 forward_v I I I I #
coedge $-1 $443 $441 $445 $588 reversed $278 $-1 #
edge $-1 $456 -90.666829432050534 $590 90.666829432050534 $455 $651 forward 7 unknown #
vertex $-1 $588 $652 #
straight-curve $-1 -181.33365886410107 -3.5101105415145124 0 0 0 -1 I I #
edge $-1 $586 -3.5101105415145124 $590 3.5101105415145124 $584 $653 forward 7 unknown #
straight-curve $-1 0 -3.5101105415145124 -90.666829432050534 -1 0 0 I I #
vertex $-1 $448 $654 #
straight-curve $-1 0 3.5101105415145124 -90.666829432050534 1 0 0 I I #
point $-1 181.33365886410107 3.5101105415145124 -90.666829432050534 #
point $-1 181.33365886410107 -3.5101105415145124 -90.666829432050534 #
straight-curve $-1 -181.33365886410107 0 90.666829432050534 0 -1 0 I I #
point $-1 -181.33365886410107 3.5101105415145124 90.666829432050534 #
point $-1 -181.33365886410107 -3.5101105415145124 90.666829432050534 #
straight-curve $-1 181.33365886410107 -3.5101105415145124 0 0 0 -1 I I #
straight-curve $-1 181.33365886410107 3.5101105415145124 0 0 0 -1 I I #
edge $-1 $655 1 $655 0 $465 $-1 forward 7 unknown #
point $-1 1.5 0 -0.75 #
plane-surface $-1 181.33365886410107 0 0 -1 0 0 0 0 1 forward_v I I I I #
coedge $-1 $474 $472 $476 $606 reversed $302 $-1 #
edge $-1 $487 -90.666829432050534 $608 90.666829432050534 $486 $656 forward 7 unknown #
vertex $-1 $606 $657 #
straight-curve $-1 -181.33365886410107 -3.5101105415145124 0 0 0 -1 I I #
edge $-1 $604 -3.5101105415145124 $608 3.5101105415145124 $602 $658 forward 7 unknown #
straight-curve $-1 0 -3.5101105415145124 -90.666829432050534 -1 0 0 I I #
vertex $-1 $479 $659 #
straight-curve $-1 0 3.5101105415145124 -90.666829432050534 1 0 0 I I #
point $-1 181.33365886410107 3.5101105415145124 -90.666829432050534 #
point $-1 181.33365886410107 -3.5101105415145124 -90.666829432050534 #
straight-curve $-1 -181.33365886410107 0 90.666829432050534 0 -1 0 I I #
point $-1 -181.33365886410107 3.5101105415145124 90.666829432050534 #
point $-1 -181.33365886410107 -3.5101105415145124 90.666829432050534 #
straight-curve $-1 181.33365886410107 -3.5101105415145124 0 0 0 -1 I I #
straight-curve $-1 181.33365886410107 3.5101105415145124 0 0 0 -1 I I #
edge $-1 $660 1 $660 0 $496 $-1 forward 7 unknown #
point $-1 1.5 0 -0.75 #
plane-surface $-1 181.33365886410107 0 0 -1 0 0 0 0 1 forward_v I I I I #
coedge $-1 $505 $503 $507 $624 reversed $326 $-1 #
edge $-1 $518 -90.666829432050534 $626 90.666829432050534 $517 $661 forward 7 unknown #
vertex $-1 $624 $662 #
straight-curve $-1 -181.33365886410107 -3.5101105415145124 0 0 0 -1 I I #
edge $-1 $622 -3.5101105415145124 $626 3.5101105415145124 $620 $663 forward 7 unknown #
straight-curve $-1 0 -3.5101105415145124 -90.666829432050534 -1 0 0 I I #
vertex $-1 $510 $664 #
straight-curve $-1 0 3.5101105415145124 -90.666829432050534 1 0 0 I I #
point $-1 181.33365886410107 3.5101105415145124 -90.666829432050534 #
point $-1 181.33365886410107 -3.5101105415145124 -90.666829432050534 #
straight-curve $-1 -181.33365886410107 0 90.666829432050534 0 -1 0 I I #
point $-1 -181.33365886410107 3.5101105415145124 90.666829432050534 #
point $-1 -181.33365886410107 -3.5101105415145124 90.666829432050534 #
straight-curve $-1 181.33365886410107 -3.5101105415145124 0 0 0 -1 I I #
straight-curve $-1 181.33365886410107 3.5101105415145124 0 0 0 -1 I I #
edge $-1 $665 1 $665 0 $527 $-1 forward 7 unknown #
point $-1 1.5 0 -0.75 #
straight-curve $-1 -45.333414716025267 19.209596951432722 0 0 0 -1 I I #
point $-1 -45.333414716025267 -19.209596951432722 -5.5255657871132184 #
straight-curve $-1 -45.333414716025267 0 -5.5255657871132184 0 1 0 I I #
point $-1 -45.333414716025267 19.209596951432722 -5.5255657871132184 #
straight-curve $-1 -45.333414716025267 2.4350144996006753 0 0 0 -1 I I #
point $-1 -45.333414716025267 -2.4350144996006753 -1.622661726325173 #
straight-curve $-1 -45.333414716025267 0 -1.622661726325173 0 1 0 I I #
point $-1 -45.333414716025267 2.4350144996006753 -1.622661726325173 #
straight-curve $-1 -181.33365886410107 3.1014109528679343 0 0 0 -1 I I #
point $-1 -181.33365886410107 -3.1014109528679343 -90.66682943205052 #
straight-curve $-1 -181.33365886410107 0 -90.66682943205052 0 1 0 I I #
point $-1 -181.33365886410107 3.1014109528679343 -90.66682943205052 #
vertex $-1 $579 $666 #
vertex $-1 $581 $667 #
straight-curve $-1 -181.33365886410107 3.5101105415145124 0 0 0 -1 I I #
point $-1 -181.33365886410107 -3.5101105415145124 -90.666829432050534 #
straight-curve $-1 -181.33365886410107 0 -90.666829432050534 0 1 0 I I #
point $-1 -181.33365886410107 3.5101105415145124 -90.666829432050534 #
vertex $-1 $599 $668 #
straight-curve $-1 -181.33365886410107 3.5101105415145124 0 0 0 -1 I I #
point $-1 -181.33365886410107 -3.5101105415145124 -90.666829432050534 #
straight-curve $-1 -181.33365886410107 0 -90.666829432050534 0 1 0 I I #
point $-1 -181.33365886410107 3.5101105415145124 -90.666829432050534 #
vertex $-1 $617 $669 #
straight-curve $-1 -181.33365886410107 3.5101105415145124 0 0 0 -1 I I #
point $-1 -181.33365886410107 -3.5101105415145124 -90.666829432050534 #
straight-curve $-1 -181.33365886410107 0 -90.666829432050534 0 1 0 I I #
point $-1 -181.33365886410107 3.5101105415145124 -90.666829432050534 #
vertex $-1 $635 $670 #
point $-1 0 0 0.25 #
point $-1 0 0 0.25 #
point $-1 0 0 0.75 #
point $-1 0 0 0.75 #
point $-1 0 0 0.75 #
End-of-ACIS-data 