500 0 18 0           
7 Unknown 11 ACIS 5.0 NT 24 Fri Mar 26 14:50:20 1999 
-1 9.9999999999999995e-007 1e-010 
body $-1 $18 $-1 $19 #
body $-1 $20 $-1 $21 #
body $-1 $22 $-1 $23 #
body $-1 $24 $-1 $25 #
body $-1 $26 $-1 $27 #
body $-1 $28 $-1 $29 #
body $-1 $30 $-1 $31 #
body $-1 $32 $-1 $33 #
body $-1 $34 $-1 $35 #
body $-1 $36 $-1 $37 #
body $-1 $38 $-1 $39 #
body $-1 $40 $-1 $41 #
body $-1 $42 $-1 $43 #
body $-1 $44 $-1 $45 #
body $-1 $46 $-1 $47 #
body $-1 $48 $-1 $49 #
body $-1 $50 $-1 $51 #
body $-1 $52 $-1 $53 #
lump $-1 $-1 $54 $0 #
transform $-1 1 0 0 0 1 0 0 0 1 61.35196996978668 39.350303856807997 10.384051252450558 1 rotate no_reflect no_shear #
lump $-1 $-1 $55 $1 #
transform $-1 1 0 0 0 1 0 0 0 1 61.35196996978668 39.350303856807997 10.384051252450558 1 rotate no_reflect no_shear #
lump $-1 $-1 $56 $2 #
transform $-1 1 0 0 0 1 0 0 0 1 61.35196996978668 39.350303856807997 10.384051252450558 1 rotate no_reflect no_shear #
lump $-1 $-1 $57 $3 #
transform $-1 1 0 0 0 1 0 0 0 1 61.35196996978668 39.350303856807997 10.384051252450558 1 rotate no_reflect no_shear #
lump $-1 $-1 $58 $4 #
transform $-1 1 0 0 0 1 0 0 0 1 61.35196996978668 39.350303856807997 10.384051252450558 1 rotate no_reflect no_shear #
lump $-1 $-1 $59 $5 #
transform $-1 1 0 0 0 1 0 0 0 1 61.35196996978668 39.350303856807997 10.384051252450558 1 rotate no_reflect no_shear #
lump $-1 $-1 $60 $6 #
transform $-1 1 0 0 0 1 0 0 0 1 61.35196996978668 39.350303856807997 10.384051252450558 1 rotate no_reflect no_shear #
lump $-1 $-1 $61 $7 #
transform $-1 1 0 0 0 1 0 0 0 1 61.35196996978668 39.350303856807997 10.384051252450558 1 rotate no_reflect no_shear #
lump $-1 $-1 $62 $8 #
transform $-1 1 0 0 0 1 0 0 0 1 61.35196996978668 39.350303856807997 10.384051252450558 1 rotate no_reflect no_shear #
lump $-1 $-1 $63 $9 #
transform $-1 1 0 0 0 1 0 0 0 1 61.35196996978668 39.350303856807997 10.384051252450558 1 rotate no_reflect no_shear #
lump $-1 $-1 $64 $10 #
transform $-1 1 0 0 0 1 0 0 0 1 61.35196996978668 39.350303856807997 10.384051252450558 1 rotate no_reflect no_shear #
lump $-1 $-1 $65 $11 #
transform $-1 1 0 0 0 1 0 0 0 1 61.35196996978668 39.350303856807997 10.384051252450558 1 rotate no_reflect no_shear #
lump $-1 $-1 $66 $12 #
transform $-1 1 0 0 0 1 0 0 0 1 61.35196996978668 39.350303856807997 10.384051252450558 1 rotate no_reflect no_shear #
lump $-1 $-1 $67 $13 #
transform $-1 1 0 0 0 1 0 0 0 1 61.35196996978668 39.350303856807997 10.384051252450558 1 rotate no_reflect no_shear #
lump $-1 $-1 $68 $14 #
transform $-1 1 0 0 0 1 0 0 0 1 61.35196996978668 39.350303856807997 10.384051252450558 1 rotate no_reflect no_shear #
lump $-1 $-1 $69 $15 #
transform $-1 1 0 0 0 1 0 0 0 1 61.35196996978668 39.350303856807997 10.384051252450558 1 rotate no_reflect no_shear #
lump $-1 $-1 $70 $16 #
transform $-1 1 0 0 0 1 0 0 0 1 61.35196996978668 39.350303856807997 10.384051252450558 1 rotate no_reflect no_shear #
lump $-1 $-1 $71 $17 #
transform $-1 1 0 0 0 1 0 0 0 1 61.35196996978668 39.350303856807997 10.384051252450558 1 rotate no_reflect no_shear #
shell $-1 $-1 $-1 $72 $-1 $18 #
shell $-1 $-1 $-1 $73 $-1 $20 #
shell $-1 $-1 $-1 $74 $-1 $22 #
shell $-1 $-1 $-1 $75 $-1 $24 #
shell $-1 $-1 $-1 $76 $-1 $26 #
shell $-1 $-1 $-1 $77 $-1 $28 #
shell $-1 $-1 $-1 $78 $-1 $30 #
shell $-1 $-1 $-1 $79 $-1 $32 #
shell $-1 $-1 $-1 $80 $-1 $34 #
shell $-1 $-1 $-1 $81 $-1 $36 #
shell $-1 $-1 $-1 $82 $-1 $38 #
shell $-1 $-1 $-1 $83 $-1 $40 #
shell $-1 $-1 $-1 $84 $-1 $42 #
shell $-1 $-1 $-1 $85 $-1 $44 #
shell $-1 $-1 $-1 $86 $-1 $46 #
shell $-1 $-1 $-1 $87 $-1 $48 #
shell $-1 $-1 $-1 $88 $-1 $50 #
shell $-1 $-1 $-1 $89 $-1 $52 #
face $-1 $90 $91 $54 $-1 $92 forward single #
face $-1 $93 $94 $55 $-1 $95 reversed single #
face $-1 $96 $97 $56 $-1 $98 reversed single #
face $-1 $99 $100 $57 $-1 $101 forward single #
face $-1 $102 $103 $58 $-1 $104 forward single #
face $-1 $105 $106 $59 $-1 $107 reversed single #
face $-1 $108 $109 $60 $-1 $110 forward single #
face $-1 $111 $112 $61 $-1 $113 forward single #
face $-1 $114 $115 $62 $-1 $116 reversed single #
face $-1 $117 $118 $63 $-1 $119 forward single #
face $-1 $120 $121 $64 $-1 $122 forward single #
face $-1 $123 $124 $65 $-1 $125 reversed single #
face $-1 $126 $127 $66 $-1 $128 forward single #
face $-1 $129 $130 $67 $-1 $131 forward single #
face $-1 $132 $133 $68 $-1 $134 reversed single #
face $-1 $135 $136 $69 $-1 $137 forward single #
face $-1 $138 $139 $70 $-1 $140 reversed single #
face $-1 $141 $142 $71 $-1 $143 forward single #
face $-1 $144 $145 $54 $-1 $146 reversed single #
loop $-1 $-1 $147 $72 #
plane-surface $-1 0 0 10.384051252450558 0 0 1 1 0 0 forward_v I I I I #
face $-1 $148 $149 $55 $-1 $150 reversed single #
loop $-1 $-1 $151 $73 #
plane-surface $-1 -43.583867464885564 -33.44002715599192 0 1 0 0 0 0 -1 forward_v I I I I #
face $-1 $152 $153 $56 $-1 $154 reversed single #
loop $-1 $-1 $155 $74 #
plane-surface $-1 -143.45693269164053 -24.30996372716384 95.271044858335969 0 1 0 -0.66913061440640931 0 0.74314481823134659 forward_v I I I I #
face $-1 $156 $157 $57 $-1 $158 forward single #
loop $-1 $159 $160 $75 #
cone-surface $-1 -56.703903744842904 -21.214870665281694 5.9572272413025384 0.66913061440640931 0 -0.74314481823134659 1.1147172273470198 0 1.003695921609614 1 I I 0 1 1.5 forward I I I I #
face $-1 $161 $162 $58 $-1 $163 forward single #
loop $-1 $164 $165 $76 #
cone-surface $-1 -56.703903744842904 -16.572231072458475 5.9572272413025384 0.66913061440640931 0 -0.74314481823134659 1.1147172273470198 0 1.003695921609614 1 I I 0 1 1.5 forward I I I I #
face $-1 $166 $167 $59 $-1 $168 reversed single #
loop $-1 $-1 $169 $77 #
plane-surface $-1 -143.45693269164053 -7.5899501491678798 95.271044858335969 0 1 0 -0.66913061440640931 0 0.74314481823134659 forward_v I I I I #
face $-1 $170 $171 $60 $-1 $172 forward single #
loop $-1 $173 $174 $78 #
cone-surface $-1 -56.703903744842904 -4.4948570872857374 5.9572272413025384 0.66913061440640931 0 -0.74314481823134659 1.1147172273470198 0 1.003695921609614 1 I I 0 1 1.5 forward I I I I #
face $-1 $175 $176 $61 $-1 $177 forward single #
loop $-1 $178 $179 $79 #
cone-surface $-1 -56.703903744842904 0.14778250553748506 5.9572272413025384 0.66913061440640931 0 -0.74314481823134659 1.1147172273470198 0 1.003695921609614 1 I I 0 1 1.5 forward I I I I #
face $-1 $180 $181 $62 $-1 $182 reversed single #
loop $-1 $-1 $183 $80 #
plane-surface $-1 -143.45693269164053 9.1300634288280769 95.271044858335969 0 1 0 -0.66913061440640931 0 0.74314481823134659 forward_v I I I I #
face $-1 $184 $185 $63 $-1 $186 forward single #
loop $-1 $187 $188 $81 #
cone-surface $-1 -56.703903744842904 12.225156490710219 5.9572272413025384 0.66913061440640931 0 -0.74314481823134659 1.1147172273470198 0 1.003695921609614 1 I I 0 1 1.5 forward I I I I #
face $-1 $189 $190 $64 $-1 $191 forward single #
loop $-1 $192 $193 $82 #
cone-surface $-1 -56.703903744842904 16.867796083533449 5.9572272413025384 0.66913061440640931 0 -0.74314481823134659 1.1147172273470198 0 1.003695921609614 1 I I 0 1 1.5 forward I I I I #
face $-1 $194 $195 $65 $-1 $196 reversed single #
loop $-1 $-1 $197 $83 #
plane-surface $-1 -143.45693269164053 25.850077006824034 95.271044858335969 0 1 0 -0.66913061440640931 0 0.74314481823134659 forward_v I I I I #
face $-1 $198 $199 $66 $-1 $200 forward single #
loop $-1 $201 $202 $84 #
cone-surface $-1 -56.703903744842904 28.945170068706176 5.9572272413025384 0.66913061440640931 0 -0.74314481823134659 1.1147172273470198 0 1.003695921609614 1 I I 0 1 1.5 forward I I I I #
face $-1 $203 $204 $67 $-1 $205 forward single #
loop $-1 $206 $207 $85 #
cone-surface $-1 -56.703903744842904 33.587809661529406 5.9572272413025384 0.66913061440640931 0 -0.74314481823134659 1.1147172273470198 0 1.003695921609614 1 I I 0 1 1.5 forward I I I I #
face $-1 $208 $209 $68 $-1 $210 reversed single #
loop $-1 $-1 $211 $86 #
plane-surface $-1 103.33257650430816 -6.5248095363769494 170.01352693662056 0 -1 0 -0.85716730853699208 0 -0.51503806187062418 forward_v I I I I #
face $-1 $212 $213 $69 $-1 $214 forward single #
loop $-1 $215 $216 $87 #
cone-surface $-1 57.444525835199677 -14.232385240416722 5.2421716085813372 -0.85716730853699208 0 -0.51503806187062418 0.77255709280593621 0 -1.2857509628054882 1 I I 0 1 1.5 forward I I I I #
face $-1 $217 $218 $70 $-1 $219 reversed single #
loop $-1 $-1 $220 $88 #
plane-surface $-1 103.33257650430816 26.915217619614968 170.01352693662056 0 -1 0 -0.85716730853699208 0 -0.51503806187062418 forward_v I I I I #
face $-1 $221 $222 $71 $-1 $223 forward single #
loop $-1 $224 $225 $89 #
cone-surface $-1 57.444525835199677 19.207641915575195 5.2421716085813372 -0.85716730853699208 0 -0.51503806187062418 0.77255709280593621 0 -1.2857509628054882 1 I I 0 1 1.5 forward I I I I #
face $-1 $226 $227 $54 $-1 $228 reversed single #
loop $-1 $-1 $229 $90 #
plane-surface $-1 0 0 -10.384051252450558 0 0 1 1 0 0 forward_v I I I I #
coedge $-1 $230 $231 $232 $233 forward $91 $-1 #
face $-1 $234 $235 $55 $-1 $236 reversed single #
loop $-1 $-1 $237 $93 #
plane-surface $-1 -42.083867464885564 -27.529750455175847 0 0 -1 0 0 0 -1 forward_v I I I I #
coedge $-1 $238 $239 $240 $241 forward $94 $-1 #
face $-1 $242 $243 $56 $-1 $244 reversed single #
loop $-1 $-1 $245 $96 #
plane-surface $-1 -61.35196996978668 -18.893550868870083 4.0842477156716654 -0.66913061440640931 0 0.74314481823134659 0.74314481823134659 0 0.66913061440640931 forward_v I I I I #
coedge $-1 $246 $247 $248 $249 reversed $97 $-1 #
face $-1 $-1 $250 $57 $-1 $251 forward single #
loop $-1 $252 $253 $99 #
cone-surface $-1 -55.05230980736593 -21.214870665281694 4.1229463848704491 0.66913061440640931 0 -0.74314481823134659 0.55735861367350992 0 0.50184796080480698 1 I I -0.70710678118654757 0.70710678118654757 0.75 forward I I I I #
loop $-1 $-1 $254 $75 #
coedge $-1 $160 $160 $255 $256 reversed $100 $-1 #
face $-1 $-1 $257 $58 $-1 $258 forward single #
loop $-1 $259 $260 $102 #
cone-surface $-1 -55.05230980736593 -16.572231072458475 4.1229463848704491 0.66913061440640931 0 -0.74314481823134659 0.55735861367350992 0 0.50184796080480698 1 I I -0.70710678118654757 0.70710678118654757 0.75 forward I I I I #
loop $-1 $-1 $261 $76 #
coedge $-1 $165 $165 $262 $263 reversed $103 $-1 #
face $-1 $264 $265 $59 $-1 $266 reversed single #
loop $-1 $-1 $267 $105 #
plane-surface $-1 -61.35196996978668 -2.1735372908741226 4.0842477156716654 -0.66913061440640931 0 0.74314481823134659 0.74314481823134659 0 0.66913061440640931 forward_v I I I I #
coedge $-1 $268 $269 $270 $271 reversed $106 $-1 #
face $-1 $-1 $272 $60 $-1 $273 forward single #
loop $-1 $274 $275 $108 #
cone-surface $-1 -55.05230980736593 -4.4948570872857374 4.1229463848704491 0.66913061440640931 0 -0.74314481823134659 0.55735861367350992 0 0.50184796080480698 1 I I -0.70710678118654757 0.70710678118654757 0.75 forward I I I I #
loop $-1 $-1 $276 $78 #
coedge $-1 $174 $174 $277 $278 reversed $109 $-1 #
face $-1 $-1 $279 $61 $-1 $280 forward single #
loop $-1 $281 $282 $111 #
cone-surface $-1 -55.05230980736593 0.14778250553748506 4.1229463848704491 0.66913061440640931 0 -0.74314481823134659 0.55735861367350992 0 0.50184796080480698 1 I I -0.70710678118654757 0.70710678118654757 0.75 forward I I I I #
loop $-1 $-1 $283 $79 #
coedge $-1 $179 $179 $284 $285 reversed $112 $-1 #
face $-1 $286 $287 $62 $-1 $288 reversed single #
loop $-1 $-1 $289 $114 #
plane-surface $-1 -61.35196996978668 14.546476287121834 4.0842477156716654 -0.66913061440640931 0 0.74314481823134659 0.74314481823134659 0 0.66913061440640931 forward_v I I I I #
coedge $-1 $290 $291 $292 $293 reversed $115 $-1 #
face $-1 $-1 $294 $63 $-1 $295 forward single #
loop $-1 $296 $297 $117 #
cone-surface $-1 -55.05230980736593 12.225156490710219 4.1229463848704491 0.66913061440640931 0 -0.74314481823134659 0.55735861367350992 0 0.50184796080480698 1 I I -0.70710678118654757 0.70710678118654757 0.75 forward I I I I #
loop $-1 $-1 $298 $81 #
coedge $-1 $188 $188 $299 $300 reversed $118 $-1 #
face $-1 $-1 $301 $64 $-1 $302 forward single #
loop $-1 $303 $304 $120 #
cone-surface $-1 -55.05230980736593 16.867796083533449 4.1229463848704491 0.66913061440640931 0 -0.74314481823134659 0.55735861367350992 0 0.50184796080480698 1 I I -0.70710678118654757 0.70710678118654757 0.75 forward I I I I #
loop $-1 $-1 $305 $82 #
coedge $-1 $193 $193 $306 $307 reversed $121 $-1 #
face $-1 $308 $309 $65 $-1 $310 reversed single #
loop $-1 $-1 $311 $123 #
plane-surface $-1 -61.35196996978668 31.266489865117791 4.0842477156716654 -0.66913061440640931 0 0.74314481823134659 0.74314481823134659 0 0.66913061440640931 forward_v I I I I #
coedge $-1 $312 $313 $314 $315 reversed $124 $-1 #
face $-1 $-1 $316 $66 $-1 $317 forward single #
loop $-1 $318 $319 $126 #
cone-surface $-1 -55.05230980736593 28.945170068706176 4.1229463848704491 0.66913061440640931 0 -0.74314481823134659 0.55735861367350992 0 0.50184796080480698 1 I I -0.70710678118654757 0.70710678118654757 0.75 forward I I I I #
loop $-1 $-1 $320 $84 #
coedge $-1 $202 $202 $321 $322 reversed $127 $-1 #
face $-1 $-1 $323 $67 $-1 $324 forward single #
loop $-1 $325 $326 $129 #
cone-surface $-1 -55.05230980736593 33.587809661529406 4.1229463848704491 0.66913061440640931 0 -0.74314481823134659 0.55735861367350992 0 0.50184796080480698 1 I I -0.70710678118654757 0.70710678118654757 0.75 forward I I I I #
loop $-1 $-1 $327 $85 #
coedge $-1 $207 $207 $328 $329 reversed $130 $-1 #
face $-1 $330 $331 $68 $-1 $332 reversed single #
loop $-1 $-1 $333 $132 #
plane-surface $-1 -1.8452294405806526 -14.232385240416722 106.81632752625322 0.85716730853699208 0 0.51503806187062418 0.51503806187062418 0 -0.85716730853699208 forward_v I I I I #
coedge $-1 $334 $335 $336 $337 reversed $133 $-1 #
face $-1 $-1 $338 $69 $-1 $339 forward single #
loop $-1 $340 $341 $135 #
cone-surface $-1 55.521628314620997 -14.232385240416722 4.0867782538522341 -0.85716730853699208 0 -0.51503806187062418 0.3862785464029681 0 -0.64287548140274409 1 I I -0.70710678118654757 0.70710678118654757 0.75 forward I I I I #
loop $-1 $-1 $342 $87 #
coedge $-1 $216 $216 $343 $344 reversed $136 $-1 #
face $-1 $345 $346 $70 $-1 $347 reversed single #
loop $-1 $-1 $348 $138 #
plane-surface $-1 -1.8452294405806526 19.207641915575195 106.81632752625322 0.85716730853699208 0 0.51503806187062418 0.51503806187062418 0 -0.85716730853699208 forward_v I I I I #
coedge $-1 $349 $350 $351 $352 reversed $139 $-1 #
face $-1 $-1 $353 $71 $-1 $354 forward single #
loop $-1 $355 $356 $141 #
cone-surface $-1 55.521628314620997 19.207641915575195 4.0867782538522341 -0.85716730853699208 0 -0.51503806187062418 0.3862785464029681 0 -0.64287548140274409 1 I I -0.70710678118654757 0.70710678118654757 0.75 forward I I I I #
loop $-1 $-1 $357 $89 #
coedge $-1 $225 $225 $358 $359 reversed $142 $-1 #
face $-1 $360 $361 $54 $-1 $362 reversed single #
loop $-1 $-1 $363 $144 #
plane-surface $-1 0 -39.350303856807997 0 0 1 0 0 0 1 forward_v I I I I #
coedge $-1 $364 $365 $366 $367 forward $145 $-1 #
coedge $-1 $368 $147 $369 $370 forward $91 $-1 #
coedge $-1 $147 $368 $371 $372 forward $91 $-1 #
coedge $-1 $373 $374 $147 $233 reversed $375 $-1 #
edge $-1 $376 -39.350303856807997 $377 39.350303856807997 $232 $378 forward 7 unknown #
face $-1 $379 $380 $55 $-1 $381 forward single #
loop $-1 $-1 $382 $148 #
plane-surface $-1 -40.583867464885564 -33.44002715599192 0 -1 0 0 0 0 1 forward_v I I I I #
coedge $-1 $383 $384 $385 $386 forward $149 $-1 #
coedge $-1 $387 $151 $388 $389 reversed $94 $-1 #
coedge $-1 $151 $387 $390 $391 reversed $94 $-1 #
coedge $-1 $384 $383 $151 $241 reversed $149 $-1 #
edge $-1 $392 -10.384051252450558 $393 10.384051252450558 $240 $394 forward 7 unknown #
face $-1 $395 $396 $56 $-1 $397 reversed single #
loop $-1 $-1 $398 $152 #
plane-surface $-1 -143.45693269164053 -13.477138010576326 95.271044858335969 0 -1 0 0.66913061440640931 0 -0.74314481823134659 forward_v I I I I #
coedge $-1 $399 $400 $401 $402 reversed $153 $-1 #
coedge $-1 $247 $155 $403 $404 reversed $97 $-1 #
coedge $-1 $155 $246 $399 $405 reversed $97 $-1 #
coedge $-1 $401 $406 $155 $249 forward $407 $-1 #
edge $-1 $408 10.376496376033586 $409 17.373136872576829 $248 $410 forward 7 unknown #
loop $-1 $-1 $255 $156 #
plane-surface $-1 -61.35196996978668 -18.893550868870083 4.0842477156716654 -0.66913061440640931 0 0.74314481823134659 0.74314481823134659 0 0.66913061440640931 forward_v I I I I #
loop $-1 $-1 $411 $99 #
coedge $-1 $253 $253 $254 $412 reversed $157 $-1 #
coedge $-1 $254 $254 $253 $412 forward $159 $-1 #
coedge $-1 $255 $255 $160 $256 forward $250 $-1 #
edge $-1 $413 0 $413 6.2831853071796004 $255 $414 forward 7 unknown #
loop $-1 $-1 $262 $161 #
plane-surface $-1 -61.35196996978668 -18.893550868870083 4.0842477156716654 -0.66913061440640931 0 0.74314481823134659 0.74314481823134659 0 0.66913061440640931 forward_v I I I I #
loop $-1 $-1 $415 $102 #
coedge $-1 $260 $260 $261 $416 reversed $162 $-1 #
coedge $-1 $261 $261 $260 $416 forward $164 $-1 #
coedge $-1 $262 $262 $165 $263 forward $257 $-1 #
edge $-1 $417 0 $417 6.2831853071796004 $262 $418 forward 7 unknown #
face $-1 $419 $420 $59 $-1 $421 forward single #
loop $-1 $-1 $422 $166 #
plane-surface $-1 -143.45693269164053 3.2428755674196346 95.271044858335969 0 -1 0 0.66913061440640931 0 -0.74314481823134659 forward_v I I I I #
coedge $-1 $423 $424 $425 $426 reversed $167 $-1 #
coedge $-1 $269 $169 $427 $428 reversed $106 $-1 #
coedge $-1 $169 $268 $423 $429 reversed $106 $-1 #
coedge $-1 $425 $430 $169 $271 forward $420 $-1 #
edge $-1 $431 10.376496376033586 $432 17.373136872576829 $270 $433 forward 7 unknown #
loop $-1 $-1 $277 $170 #
plane-surface $-1 -61.35196996978668 -2.1735372908741226 4.0842477156716654 -0.66913061440640931 0 0.74314481823134659 0.74314481823134659 0 0.66913061440640931 forward_v I I I I #
loop $-1 $-1 $434 $108 #
coedge $-1 $275 $275 $276 $435 reversed $171 $-1 #
coedge $-1 $276 $276 $275 $435 forward $173 $-1 #
coedge $-1 $277 $277 $174 $278 forward $272 $-1 #
edge $-1 $436 0 $436 6.2831853071796004 $277 $437 forward 7 unknown #
loop $-1 $-1 $284 $175 #
plane-surface $-1 -61.35196996978668 -2.1735372908741226 4.0842477156716654 -0.66913061440640931 0 0.74314481823134659 0.74314481823134659 0 0.66913061440640931 forward_v I I I I #
loop $-1 $-1 $438 $111 #
coedge $-1 $282 $282 $283 $439 reversed $176 $-1 #
coedge $-1 $283 $283 $282 $439 forward $178 $-1 #
coedge $-1 $284 $284 $179 $285 forward $279 $-1 #
edge $-1 $440 0 $440 6.2831853071796004 $284 $441 forward 7 unknown #
face $-1 $442 $443 $62 $-1 $444 forward single #
loop $-1 $-1 $445 $180 #
plane-surface $-1 -143.45693269164053 19.962889145415591 95.271044858335969 0 -1 0 0.66913061440640931 0 -0.74314481823134659 forward_v I I I I #
coedge $-1 $446 $447 $448 $449 reversed $181 $-1 #
coedge $-1 $291 $183 $450 $451 reversed $115 $-1 #
coedge $-1 $183 $290 $446 $452 reversed $115 $-1 #
coedge $-1 $448 $453 $183 $293 forward $443 $-1 #
edge $-1 $454 10.376496376033586 $455 17.373136872576829 $292 $456 forward 7 unknown #
loop $-1 $-1 $299 $184 #
plane-surface $-1 -61.35196996978668 14.546476287121834 4.0842477156716654 -0.66913061440640931 0 0.74314481823134659 0.74314481823134659 0 0.66913061440640931 forward_v I I I I #
loop $-1 $-1 $457 $117 #
coedge $-1 $297 $297 $298 $458 reversed $185 $-1 #
coedge $-1 $298 $298 $297 $458 forward $187 $-1 #
coedge $-1 $299 $299 $188 $300 forward $294 $-1 #
edge $-1 $459 0 $459 6.2831853071796004 $299 $460 forward 7 unknown #
loop $-1 $-1 $306 $189 #
plane-surface $-1 -61.35196996978668 14.546476287121834 4.0842477156716654 -0.66913061440640931 0 0.74314481823134659 0.74314481823134659 0 0.66913061440640931 forward_v I I I I #
loop $-1 $-1 $461 $120 #
coedge $-1 $304 $304 $305 $462 reversed $190 $-1 #
coedge $-1 $305 $305 $304 $462 forward $192 $-1 #
coedge $-1 $306 $306 $193 $307 forward $301 $-1 #
edge $-1 $463 0 $463 6.2831853071796004 $306 $464 forward 7 unknown #
face $-1 $465 $466 $65 $-1 $467 forward single #
loop $-1 $-1 $468 $194 #
plane-surface $-1 -143.45693269164053 36.682902723411544 95.271044858335969 0 -1 0 0.66913061440640931 0 -0.74314481823134659 forward_v I I I I #
coedge $-1 $469 $470 $471 $472 reversed $195 $-1 #
coedge $-1 $313 $197 $473 $474 reversed $124 $-1 #
coedge $-1 $197 $312 $469 $475 reversed $124 $-1 #
coedge $-1 $471 $476 $197 $315 forward $466 $-1 #
edge $-1 $477 10.376496376033586 $478 17.373136872576829 $314 $479 forward 7 unknown #
loop $-1 $-1 $321 $198 #
plane-surface $-1 -61.35196996978668 31.266489865117791 4.0842477156716654 -0.66913061440640931 0 0.74314481823134659 0.74314481823134659 0 0.66913061440640931 forward_v I I I I #
loop $-1 $-1 $480 $126 #
coedge $-1 $319 $319 $320 $481 reversed $199 $-1 #
coedge $-1 $320 $320 $319 $481 forward $201 $-1 #
coedge $-1 $321 $321 $202 $322 forward $316 $-1 #
edge $-1 $482 0 $482 6.2831853071796004 $321 $483 forward 7 unknown #
loop $-1 $-1 $328 $203 #
plane-surface $-1 -61.35196996978668 31.266489865117791 4.0842477156716654 -0.66913061440640931 0 0.74314481823134659 0.74314481823134659 0 0.66913061440640931 forward_v I I I I #
loop $-1 $-1 $484 $129 #
coedge $-1 $326 $326 $327 $485 reversed $204 $-1 #
coedge $-1 $327 $327 $326 $485 forward $206 $-1 #
coedge $-1 $328 $328 $207 $329 forward $323 $-1 #
edge $-1 $486 0 $486 6.2831853071796004 $328 $487 forward 7 unknown #
face $-1 $488 $489 $68 $-1 $490 forward single #
loop $-1 $-1 $491 $208 #
plane-surface $-1 103.33257650430816 -21.939960944456494 170.01352693662056 0 1 0 0.85716730853699208 0 0.51503806187062418 forward_v I I I I #
coedge $-1 $492 $493 $494 $495 reversed $209 $-1 #
coedge $-1 $335 $211 $496 $497 reversed $133 $-1 #
coedge $-1 $211 $334 $492 $498 reversed $133 $-1 #
coedge $-1 $494 $499 $211 $337 forward $489 $-1 #
edge $-1 $500 -9.6856817176325976 $501 -4.4308375268104712 $336 $502 forward 7 unknown #
loop $-1 $-1 $343 $212 #
plane-surface $-1 -1.8452294405806526 -14.232385240416722 106.81632752625322 0.85716730853699208 0 0.51503806187062418 0.51503806187062418 0 -0.85716730853699208 forward_v I I I I #
loop $-1 $-1 $503 $135 #
coedge $-1 $341 $341 $342 $504 reversed $213 $-1 #
coedge $-1 $342 $342 $341 $504 forward $215 $-1 #
coedge $-1 $343 $343 $216 $344 forward $338 $-1 #
edge $-1 $505 0 $505 6.2831853071796004 $343 $506 forward 7 unknown #
face $-1 $507 $508 $70 $-1 $509 reversed single #
loop $-1 $-1 $510 $217 #
plane-surface $-1 103.33257650430816 11.500066211535422 170.01352693662056 0 1 0 0.85716730853699208 0 0.51503806187062418 forward_v I I I I #
coedge $-1 $511 $512 $513 $514 reversed $218 $-1 #
coedge $-1 $350 $220 $515 $516 reversed $139 $-1 #
coedge $-1 $220 $349 $511 $517 reversed $139 $-1 #
coedge $-1 $513 $518 $220 $352 forward $519 $-1 #
edge $-1 $520 -9.6856817176325976 $521 -4.4308375268104712 $351 $522 forward 7 unknown #
loop $-1 $-1 $358 $221 #
plane-surface $-1 -1.8452294405806526 19.207641915575195 106.81632752625322 0.85716730853699208 0 0.51503806187062418 0.51503806187062418 0 -0.85716730853699208 forward_v I I I I #
loop $-1 $-1 $523 $141 #
coedge $-1 $356 $356 $357 $524 reversed $222 $-1 #
coedge $-1 $357 $357 $356 $524 forward $224 $-1 #
coedge $-1 $358 $358 $225 $359 forward $353 $-1 #
edge $-1 $525 0 $525 6.2831853071796004 $358 $526 forward 7 unknown #
face $-1 $527 $528 $54 $-1 $529 reversed single #
loop $-1 $-1 $530 $226 #
plane-surface $-1 -61.35196996978668 0 0 1 0 0 0 0 -1 forward_v I I I I #
coedge $-1 $531 $371 $532 $533 forward $227 $-1 #
coedge $-1 $534 $229 $531 $535 forward $145 $-1 #
coedge $-1 $229 $534 $536 $537 forward $145 $-1 #
coedge $-1 $374 $373 $229 $367 reversed $375 $-1 #
edge $-1 $538 -39.350303856807997 $539 39.350303856807997 $366 $540 forward 7 unknown #
coedge $-1 $231 $230 $541 $542 forward $91 $-1 #
coedge $-1 $543 $544 $230 $370 reversed $528 $-1 #
edge $-1 $377 -61.35196996978668 $545 61.35196996978668 $369 $546 forward 7 unknown #
coedge $-1 $363 $547 $231 $372 reversed $227 $-1 #
edge $-1 $548 -61.35196996978668 $376 61.35196996978668 $371 $549 forward 7 unknown #
coedge $-1 $366 $232 $547 $550 forward $375 $-1 #
coedge $-1 $232 $366 $543 $551 reversed $375 $-1 #
loop $-1 $-1 $373 $527 #
vertex $-1 $233 $552 #
vertex $-1 $233 $553 #
straight-curve $-1 61.35196996978668 0 10.384051252450558 0 1 0 I I #
face $-1 $554 $555 $55 $-1 $556 reversed single #
loop $-1 $-1 $557 $234 #
plane-surface $-1 0 0 10.384051252450558 0 0 1 1 0 0 forward_v I I I I #
coedge $-1 $558 $559 $560 $561 reversed $235 $-1 #
coedge $-1 $240 $237 $562 $563 reversed $149 $-1 #
coedge $-1 $237 $240 $564 $565 reversed $149 $-1 #
coedge $-1 $559 $558 $237 $386 reversed $235 $-1 #
edge $-1 $566 -10.384051252450558 $567 10.384051252450558 $385 $568 forward 7 unknown #
coedge $-1 $239 $238 $569 $570 reversed $94 $-1 #
coedge $-1 $562 $571 $238 $389 forward $555 $-1 #
edge $-1 $572 -22.630290278812037 $393 -10.809736877179887 $388 $573 forward 7 unknown #
coedge $-1 $574 $564 $239 $391 forward $380 $-1 #
edge $-1 $392 10.809736877179887 $575 22.630290278812037 $390 $576 forward 7 unknown #
vertex $-1 $391 $577 #
vertex $-1 $389 $578 #
straight-curve $-1 -43.583867464885564 -27.529750455175847 0 0 0 -1 I I #
face $-1 $-1 $407 $56 $-1 $579 forward single #
loop $-1 $-1 $580 $242 #
plane-surface $-1 -61.35196996978668 0 0 1 0 0 0 0 -1 forward_v I I I I #
coedge $-1 $581 $582 $583 $584 reversed $243 $-1 #
coedge $-1 $585 $245 $247 $405 forward $153 $-1 #
coedge $-1 $245 $585 $581 $586 forward $153 $-1 #
coedge $-1 $583 $248 $245 $402 forward $407 $-1 #
edge $-1 $409 -14.863188292728799 $587 -4.0303625761412842 $401 $588 forward 7 unknown #
coedge $-1 $589 $590 $246 $404 forward $396 $-1 #
edge $-1 $591 -43.551274713496319 $408 -37.25147117671743 $403 $592 forward 7 unknown #
edge $-1 $409 -9.4149085412382369 $591 0 $247 $593 forward 7 unknown #
coedge $-1 $248 $583 $589 $594 forward $407 $-1 #
loop $-1 $-1 $583 $395 #
vertex $-1 $404 $595 #
vertex $-1 $249 $596 #
straight-curve $-1 -71.728466345820266 -24.30996372716384 10.384051252450561 1 0 0 I I #
coedge $-1 $411 $411 $-1 $597 reversed $252 $-1 #
edge $-1 $598 0 $598 6.2831853071796004 $253 $599 forward 7 unknown #
vertex $-1 $256 $600 #
ellipse-curve $-1 -57.853649721515062 -21.214870665281694 7.2341494840611089 -0.66913061440640931 0 0.74314481823134659 1.1147172273470198 0 1.003695921609614 1 I I #
coedge $-1 $415 $415 $-1 $601 reversed $259 $-1 #
edge $-1 $602 0 $602 6.2831853071796004 $260 $603 forward 7 unknown #
vertex $-1 $263 $604 #
ellipse-curve $-1 -57.853649721515062 -16.572231072458475 7.2341494840611089 -0.66913061440640931 0 0.74314481823134659 1.1147172273470198 0 1.003695921609614 1 I I #
face $-1 $-1 $605 $59 $-1 $606 reversed single #
loop $-1 $-1 $270 $264 #
plane-surface $-1 0 0 10.384051252450558 0 0 1 1 0 0 forward_v I I I I #
coedge $-1 $607 $608 $609 $610 reversed $265 $-1 #
coedge $-1 $611 $267 $269 $429 forward $167 $-1 #
coedge $-1 $267 $611 $607 $612 forward $167 $-1 #
coedge $-1 $609 $270 $267 $426 forward $420 $-1 #
edge $-1 $432 -6.5031815037308185 $613 4.3296442128566959 $425 $614 forward 7 unknown #
coedge $-1 $615 $616 $268 $428 forward $605 $-1 #
edge $-1 $617 -43.551274713496319 $431 -37.25147117671743 $427 $618 forward 7 unknown #
edge $-1 $432 -9.4149085412382369 $617 0 $269 $619 forward 7 unknown #
coedge $-1 $270 $609 $615 $620 forward $420 $-1 #
vertex $-1 $428 $621 #
vertex $-1 $271 $622 #
straight-curve $-1 -71.728466345820266 -7.5899501491678798 10.384051252450561 1 0 0 I I #
coedge $-1 $434 $434 $-1 $623 reversed $274 $-1 #
edge $-1 $624 0 $624 6.2831853071796004 $275 $625 forward 7 unknown #
vertex $-1 $278 $626 #
ellipse-curve $-1 -57.853649721515062 -4.4948570872857374 7.2341494840611089 -0.66913061440640931 0 0.74314481823134659 1.1147172273470198 0 1.003695921609614 1 I I #
coedge $-1 $438 $438 $-1 $627 reversed $281 $-1 #
edge $-1 $628 0 $628 6.2831853071796004 $282 $629 forward 7 unknown #
vertex $-1 $285 $630 #
ellipse-curve $-1 -57.853649721515062 0.14778250553748506 7.2341494840611089 -0.66913061440640931 0 0.74314481823134659 1.1147172273470198 0 1.003695921609614 1 I I #
face $-1 $-1 $631 $62 $-1 $632 reversed single #
loop $-1 $-1 $292 $286 #
plane-surface $-1 0 0 10.384051252450558 0 0 1 1 0 0 forward_v I I I I #
coedge $-1 $633 $634 $635 $636 reversed $287 $-1 #
coedge $-1 $637 $289 $291 $452 forward $181 $-1 #
coedge $-1 $289 $637 $633 $638 forward $181 $-1 #
coedge $-1 $635 $292 $289 $449 forward $443 $-1 #
edge $-1 $455 1.8568252852671598 $639 12.689651001854674 $448 $640 forward 7 unknown #
coedge $-1 $641 $642 $290 $451 forward $631 $-1 #
edge $-1 $643 -43.551274713496319 $454 -37.25147117671743 $450 $644 forward 7 unknown #
edge $-1 $455 -9.4149085412382369 $643 0 $291 $645 forward 7 unknown #
coedge $-1 $292 $635 $641 $646 forward $443 $-1 #
vertex $-1 $293 $647 #
vertex $-1 $293 $648 #
straight-curve $-1 -71.728466345820266 9.1300634288280769 10.384051252450561 1 0 0 I I #
coedge $-1 $457 $457 $-1 $649 reversed $296 $-1 #
edge $-1 $650 0 $650 6.2831853071796004 $297 $651 forward 7 unknown #
vertex $-1 $300 $652 #
ellipse-curve $-1 -57.853649721515062 12.225156490710219 7.2341494840611089 -0.66913061440640931 0 0.74314481823134659 1.1147172273470198 0 1.003695921609614 1 I I #
coedge $-1 $461 $461 $-1 $653 reversed $303 $-1 #
edge $-1 $654 0 $654 6.2831853071796004 $304 $655 forward 7 unknown #
vertex $-1 $307 $656 #
ellipse-curve $-1 -57.853649721515062 16.867796083533449 7.2341494840611089 -0.66913061440640931 0 0.74314481823134659 1.1147172273470198 0 1.003695921609614 1 I I #
face $-1 $-1 $657 $65 $-1 $658 reversed single #
loop $-1 $-1 $314 $308 #
plane-surface $-1 0 0 10.384051252450558 0 0 1 1 0 0 forward_v I I I I #
coedge $-1 $659 $660 $661 $662 reversed $309 $-1 #
coedge $-1 $663 $311 $313 $475 forward $195 $-1 #
coedge $-1 $311 $663 $659 $664 forward $195 $-1 #
coedge $-1 $661 $314 $311 $472 forward $466 $-1 #
edge $-1 $478 10.216832074265138 $665 21.049657790852649 $471 $666 forward 7 unknown #
coedge $-1 $667 $668 $312 $474 forward $657 $-1 #
edge $-1 $669 -43.551274713496319 $477 -37.25147117671743 $473 $670 forward 7 unknown #
edge $-1 $478 -9.4149085412382369 $669 0 $313 $671 forward 7 unknown #
coedge $-1 $314 $661 $667 $672 forward $466 $-1 #
vertex $-1 $315 $673 #
vertex $-1 $315 $674 #
straight-curve $-1 -71.728466345820266 25.850077006824034 10.384051252450561 1 0 0 I I #
coedge $-1 $480 $480 $-1 $675 reversed $318 $-1 #
edge $-1 $676 0 $676 6.2831853071796004 $319 $677 forward 7 unknown #
vertex $-1 $322 $678 #
ellipse-curve $-1 -57.853649721515062 28.945170068706176 7.2341494840611089 -0.66913061440640931 0 0.74314481823134659 1.1147172273470198 0 1.003695921609614 1 I I #
coedge $-1 $484 $484 $-1 $679 reversed $325 $-1 #
edge $-1 $680 0 $680 6.2831853071796004 $326 $681 forward 7 unknown #
vertex $-1 $329 $682 #
ellipse-curve $-1 -57.853649721515062 33.587809661529406 7.2341494840611089 -0.66913061440640931 0 0.74314481823134659 1.1147172273470198 0 1.003695921609614 1 I I #
face $-1 $-1 $683 $68 $-1 $684 reversed single #
loop $-1 $-1 $336 $330 #
plane-surface $-1 0 0 10.384051252450558 0 0 1 1 0 0 forward_v I I I I #
coedge $-1 $685 $686 $687 $688 reversed $331 $-1 #
coedge $-1 $689 $333 $335 $498 forward $209 $-1 #
coedge $-1 $333 $689 $685 $690 forward $209 $-1 #
coedge $-1 $687 $336 $333 $495 forward $489 $-1 #
edge $-1 $501 -0.59138308383141158 $691 14.823768324248134 $494 $692 forward 7 unknown #
coedge $-1 $693 $694 $334 $497 forward $683 $-1 #
edge $-1 $695 -83.368241886945881 $500 -74.622712215859721 $496 $696 forward 7 unknown #
edge $-1 $501 112.50111304220489 $695 122.70393993957337 $335 $697 forward 7 unknown #
coedge $-1 $336 $687 $693 $698 forward $489 $-1 #
vertex $-1 $497 $699 #
vertex $-1 $337 $700 #
straight-curve $-1 51.666288252154082 -6.5248095363769494 10.384051252450561 -1 0 0 I I #
coedge $-1 $503 $503 $-1 $701 reversed $340 $-1 #
edge $-1 $702 0 $702 6.2831853071796004 $341 $703 forward 7 unknown #
vertex $-1 $344 $704 #
ellipse-curve $-1 58.724547874375617 -14.232385240416722 6.0112864169074758 0.85716730853699208 0 0.51503806187062418 0.77255709280593621 0 -1.2857509628054882 1 I I #
face $-1 $-1 $519 $70 $-1 $705 forward single #
loop $-1 $-1 $706 $345 #
plane-surface $-1 61.35196996978668 0 0 -1 0 0 0 0 1 forward_v I I I I #
coedge $-1 $707 $708 $709 $710 reversed $346 $-1 #
coedge $-1 $711 $348 $350 $517 forward $218 $-1 #
coedge $-1 $348 $711 $707 $712 forward $218 $-1 #
coedge $-1 $709 $351 $348 $514 forward $519 $-1 #
edge $-1 $521 -17.31139666182737 $713 -1.8962452537478249 $513 $714 forward 7 unknown #
coedge $-1 $715 $716 $349 $516 forward $508 $-1 #
edge $-1 $717 -83.368241886945881 $520 -74.622712215859721 $515 $718 forward 7 unknown #
edge $-1 $521 112.50111304220489 $717 122.70393993957337 $350 $719 forward 7 unknown #
coedge $-1 $351 $709 $715 $720 forward $519 $-1 #
loop $-1 $-1 $709 $507 #
vertex $-1 $516 $721 #
vertex $-1 $352 $722 #
straight-curve $-1 51.666288252154082 26.915217619614968 10.384051252450561 -1 0 0 I I #
coedge $-1 $523 $523 $-1 $723 reversed $355 $-1 #
edge $-1 $724 0 $724 6.2831853071796004 $356 $725 forward 7 unknown #
vertex $-1 $359 $726 #
ellipse-curve $-1 58.724547874375617 19.207641915575195 6.0112864169074758 0.85716730853699208 0 0.51503806187062418 0.77255709280593621 0 -1.2857509628054882 1 I I #
face $-1 $-1 $375 $54 $-1 $727 reversed single #
loop $-1 $-1 $543 $360 #
plane-surface $-1 0 39.350303856807997 0 0 -1 0 0 0 -1 forward_v I I I I #
coedge $-1 $728 $541 $544 $729 forward $361 $-1 #
coedge $-1 $547 $363 $364 $535 reversed $227 $-1 #
coedge $-1 $541 $728 $363 $533 reversed $361 $-1 #
edge $-1 $548 -10.384051252450558 $730 10.384051252450558 $532 $731 forward 7 unknown #
coedge $-1 $365 $364 $728 $732 forward $145 $-1 #
edge $-1 $539 -61.35196996978668 $730 61.35196996978668 $531 $733 forward 7 unknown #
coedge $-1 $544 $543 $365 $537 reversed $528 $-1 #
edge $-1 $734 -61.35196996978668 $538 61.35196996978668 $536 $735 forward 7 unknown #
vertex $-1 $367 $736 #
vertex $-1 $550 $737 #
straight-curve $-1 61.35196996978668 0 -10.384051252450558 0 -1 0 I I #
coedge $-1 $530 $532 $368 $542 reversed $361 $-1 #
edge $-1 $545 -39.350303856807997 $548 39.350303856807997 $541 $738 forward 7 unknown #
coedge $-1 $536 $369 $374 $551 forward $528 $-1 #
coedge $-1 $369 $536 $530 $729 reversed $528 $-1 #
vertex $-1 $370 $739 #
straight-curve $-1 0 39.350303856807997 10.384051252450558 -1 0 0 I I #
coedge $-1 $371 $531 $373 $550 reversed $227 $-1 #
vertex $-1 $542 $740 #
straight-curve $-1 0 -39.350303856807997 10.384051252450558 1 0 0 I I #
edge $-1 $376 -10.384051252450558 $539 10.384051252450558 $373 $741 forward 7 unknown #
edge $-1 $377 -10.384051252450558 $538 10.384051252450558 $374 $742 forward 7 unknown #
point $-1 61.35196996978668 -39.350303856807997 10.384051252450558 #
point $-1 61.35196996978668 39.350303856807997 10.384051252450558 #
face $-1 $-1 $743 $55 $-1 $744 reversed single #
loop $-1 $-1 $745 $379 #
plane-surface $-1 0 0 -10.384051252450558 0 0 1 1 0 0 forward_v I I I I #
coedge $-1 $564 $574 $559 $746 forward $380 $-1 #
coedge $-1 $385 $382 $745 $747 reversed $235 $-1 #
coedge $-1 $382 $385 $557 $746 reversed $235 $-1 #
coedge $-1 $748 $749 $382 $561 forward $743 $-1 #
edge $-1 $750 -10.384051252450558 $751 10.384051252450558 $560 $752 forward 7 unknown #
coedge $-1 $745 $388 $383 $563 forward $555 $-1 #
edge $-1 $393 -22.541933732442782 $567 -19.541933732442782 $562 $753 forward 7 unknown #
coedge $-1 $390 $557 $384 $565 forward $380 $-1 #
edge $-1 $566 19.541933732442782 $392 22.541933732442782 $564 $754 forward 7 unknown #
vertex $-1 $565 $755 #
vertex $-1 $563 $756 #
straight-curve $-1 -40.583867464885564 -27.529750455175847 0 0 0 -1 I I #
coedge $-1 $749 $748 $387 $570 forward $743 $-1 #
edge $-1 $575 -10.384051252450558 $572 10.384051252450558 $569 $757 forward 7 unknown #
coedge $-1 $388 $745 $749 $758 forward $555 $-1 #
vertex $-1 $389 $759 #
straight-curve $-1 -43.583867464885564 -16.72001357799596 -10.384051252450558 0 1 0 I I #
coedge $-1 $557 $390 $748 $760 forward $380 $-1 #
vertex $-1 $760 $761 #
straight-curve $-1 -43.583867464885564 -16.72001357799596 10.384051252450558 0 -1 0 I I #
point $-1 -43.583867464885564 -27.529750455175847 10.384051252450558 #
point $-1 -43.583867464885564 -27.529750455175847 -10.384051252450558 #
plane-surface $-1 0 0 10.384051252450558 0 0 1 1 0 0 forward_v I I I I #
coedge $-1 $590 $589 $582 $762 forward $396 $-1 #
coedge $-1 $582 $398 $400 $586 reversed $243 $-1 #
coedge $-1 $398 $581 $580 $762 reversed $243 $-1 #
coedge $-1 $406 $401 $398 $584 forward $407 $-1 #
edge $-1 $587 -17.373136872576829 $763 -10.376496376033586 $583 $764 forward 7 unknown #
coedge $-1 $400 $399 $590 $765 reversed $153 $-1 #
edge $-1 $766 0 $587 9.4149085412382369 $581 $767 forward 7 unknown #
vertex $-1 $402 $768 #
straight-curve $-1 -54.35532947324343 -9.4467754344350414 10.384051252450556 0 1 0 I I #
coedge $-1 $580 $403 $406 $594 reversed $396 $-1 #
coedge $-1 $403 $580 $585 $765 forward $396 $-1 #
vertex $-1 $404 $769 #
straight-curve $-1 -61.35196996978668 -24.30996372716384 47.635522429167985 0 0 1 I I #
straight-curve $-1 -61.35196996978668 -24.30996372716384 4.0842477156716654 -0.74314481823134659 0 -0.66913061440640931 I I #
edge $-1 $763 13.477138010576326 $408 24.30996372716384 $589 $770 forward 7 unknown #
point $-1 -61.35196996978668 -24.30996372716384 10.384051252450558 #
point $-1 -54.355329473243437 -24.30996372716384 10.384051252450558 #
edge $-1 $771 1 $771 0 $411 $-1 forward 7 unknown #
vertex $-1 $412 $772 #
ellipse-curve $-1 -55.554157768170739 -21.214870665281694 4.6803049985439591 -0.66913061440640931 0 0.74314481823134659 1.1147172273470198 0 1.003695921609614 1 I I #
point $-1 -56.738932494168047 -21.214870665281694 8.2378454056707326 #
edge $-1 $773 1 $773 0 $415 $-1 forward 7 unknown #
vertex $-1 $416 $774 #
ellipse-curve $-1 -55.554157768170739 -16.572231072458475 4.6803049985439591 -0.66913061440640931 0 0.74314481823134659 1.1147172273470198 0 1.003695921609614 1 I I #
point $-1 -56.738932494168047 -16.572231072458475 8.2378454056707326 #
loop $-1 $-1 $427 $419 #
plane-surface $-1 -61.35196996978668 0 0 1 0 0 0 0 -1 forward_v I I I I #
coedge $-1 $608 $422 $424 $612 reversed $265 $-1 #
coedge $-1 $422 $607 $775 $776 reversed $265 $-1 #
coedge $-1 $430 $425 $422 $610 forward $420 $-1 #
edge $-1 $613 -17.373136872576829 $777 -10.376496376033586 $609 $778 forward 7 unknown #
coedge $-1 $424 $423 $616 $779 reversed $167 $-1 #
edge $-1 $780 0 $613 9.4149085412382369 $607 $781 forward 7 unknown #
vertex $-1 $426 $782 #
straight-curve $-1 -54.35532947324343 -1.0867686454370613 10.384051252450556 0 1 0 I I #
coedge $-1 $775 $427 $430 $620 reversed $605 $-1 #
coedge $-1 $427 $775 $611 $779 forward $605 $-1 #
vertex $-1 $428 $783 #
straight-curve $-1 -61.35196996978668 -7.5899501491678798 47.635522429167985 0 0 1 I I #
straight-curve $-1 -61.35196996978668 -7.5899501491678798 4.0842477156716654 -0.74314481823134659 0 -0.66913061440640931 I I #
edge $-1 $777 -3.2428755674196346 $431 7.5899501491678798 $615 $784 forward 7 unknown #
point $-1 -61.35196996978668 -7.5899501491678798 10.384051252450558 #
point $-1 -54.355329473243437 -7.5899501491678798 10.384051252450558 #
edge $-1 $785 1 $785 0 $434 $-1 forward 7 unknown #
vertex $-1 $435 $786 #
ellipse-curve $-1 -55.554157768170739 -4.4948570872857374 4.6803049985439591 -0.66913061440640931 0 0.74314481823134659 1.1147172273470198 0 1.003695921609614 1 I I #
point $-1 -56.738932494168047 -4.4948570872857374 8.2378454056707326 #
edge $-1 $787 1 $787 0 $438 $-1 forward 7 unknown #
vertex $-1 $439 $788 #
ellipse-curve $-1 -55.554157768170739 0.14778250553748506 4.6803049985439591 -0.66913061440640931 0 0.74314481823134659 1.1147172273470198 0 1.003695921609614 1 I I #
point $-1 -56.738932494168047 0.14778250553748506 8.2378454056707326 #
loop $-1 $-1 $450 $442 #
plane-surface $-1 -61.35196996978668 0 0 1 0 0 0 0 -1 forward_v I I I I #
coedge $-1 $634 $445 $447 $638 reversed $287 $-1 #
coedge $-1 $445 $633 $789 $790 reversed $287 $-1 #
coedge $-1 $453 $448 $445 $636 forward $443 $-1 #
edge $-1 $639 -17.373136872576829 $791 -10.376496376033586 $635 $792 forward 7 unknown #
coedge $-1 $447 $446 $642 $793 reversed $181 $-1 #
edge $-1 $794 0 $639 9.4149085412382369 $633 $795 forward 7 unknown #
vertex $-1 $449 $796 #
straight-curve $-1 -54.35532947324343 7.273238143560917 10.384051252450556 0 1 0 I I #
coedge $-1 $789 $450 $453 $646 reversed $631 $-1 #
coedge $-1 $450 $789 $637 $793 forward $631 $-1 #
vertex $-1 $451 $797 #
straight-curve $-1 -61.35196996978668 9.1300634288280769 47.635522429167985 0 0 1 I I #
straight-curve $-1 -61.35196996978668 9.1300634288280769 4.0842477156716654 -0.74314481823134659 0 -0.66913061440640931 I I #
edge $-1 $791 -19.962889145415591 $454 -9.1300634288280769 $641 $798 forward 7 unknown #
point $-1 -61.35196996978668 9.1300634288280769 10.384051252450558 #
point $-1 -54.355329473243437 9.1300634288280769 10.384051252450558 #
edge $-1 $799 1 $799 0 $457 $-1 forward 7 unknown #
vertex $-1 $458 $800 #
ellipse-curve $-1 -55.554157768170739 12.225156490710219 4.6803049985439591 -0.66913061440640931 0 0.74314481823134659 1.1147172273470198 0 1.003695921609614 1 I I #
point $-1 -56.738932494168047 12.225156490710219 8.2378454056707326 #
edge $-1 $801 1 $801 0 $461 $-1 forward 7 unknown #
vertex $-1 $462 $802 #
ellipse-curve $-1 -55.554157768170739 16.867796083533449 4.6803049985439591 -0.66913061440640931 0 0.74314481823134659 1.1147172273470198 0 1.003695921609614 1 I I #
point $-1 -56.738932494168047 16.867796083533449 8.2378454056707326 #
loop $-1 $-1 $473 $465 #
plane-surface $-1 -61.35196996978668 0 0 1 0 0 0 0 -1 forward_v I I I I #
coedge $-1 $660 $468 $470 $664 reversed $309 $-1 #
coedge $-1 $468 $659 $803 $804 reversed $309 $-1 #
coedge $-1 $476 $471 $468 $662 forward $466 $-1 #
edge $-1 $665 -17.373136872576829 $805 -10.376496376033586 $661 $806 forward 7 unknown #
coedge $-1 $470 $469 $668 $807 reversed $195 $-1 #
edge $-1 $808 0 $665 9.4149085412382369 $659 $809 forward 7 unknown #
vertex $-1 $472 $810 #
straight-curve $-1 -54.35532947324343 15.633244932558895 10.384051252450556 0 1 0 I I #
coedge $-1 $803 $473 $476 $672 reversed $657 $-1 #
coedge $-1 $473 $803 $663 $807 forward $657 $-1 #
vertex $-1 $474 $811 #
straight-curve $-1 -61.35196996978668 25.850077006824034 47.635522429167985 0 0 1 I I #
straight-curve $-1 -61.35196996978668 25.850077006824034 4.0842477156716654 -0.74314481823134659 0 -0.66913061440640931 I I #
edge $-1 $805 -36.682902723411544 $477 -25.850077006824034 $667 $812 forward 7 unknown #
point $-1 -61.35196996978668 25.850077006824034 10.384051252450558 #
point $-1 -54.355329473243437 25.850077006824034 10.384051252450558 #
edge $-1 $813 1 $813 0 $480 $-1 forward 7 unknown #
vertex $-1 $481 $814 #
ellipse-curve $-1 -55.554157768170739 28.945170068706176 4.6803049985439591 -0.66913061440640931 0 0.74314481823134659 1.1147172273470198 0 1.003695921609614 1 I I #
point $-1 -56.738932494168047 28.945170068706176 8.2378454056707326 #
edge $-1 $815 1 $815 0 $484 $-1 forward 7 unknown #
vertex $-1 $485 $816 #
ellipse-curve $-1 -55.554157768170739 33.587809661529406 4.6803049985439591 -0.66913061440640931 0 0.74314481823134659 1.1147172273470198 0 1.003695921609614 1 I I #
point $-1 -56.738932494168047 33.587809661529406 8.2378454056707326 #
loop $-1 $-1 $496 $488 #
plane-surface $-1 61.35196996978668 0 0 -1 0 0 0 0 1 forward_v I I I I #
coedge $-1 $686 $491 $493 $690 reversed $331 $-1 #
coedge $-1 $491 $685 $817 $818 reversed $331 $-1 #
coedge $-1 $499 $494 $491 $688 forward $489 $-1 #
edge $-1 $691 4.4308375268104712 $819 9.6856817176325976 $687 $820 forward 7 unknown #
coedge $-1 $493 $492 $694 $821 reversed $209 $-1 #
edge $-1 $822 -122.70393993957337 $691 -112.50111304220489 $685 $823 forward 7 unknown #
vertex $-1 $495 $824 #
straight-curve $-1 56.097125778964553 -7.116192620208361 10.384051252450561 0 -1 0 I I #
coedge $-1 $817 $496 $499 $698 reversed $683 $-1 #
coedge $-1 $496 $817 $689 $821 forward $683 $-1 #
vertex $-1 $497 $825 #
straight-curve $-1 61.35196996978668 -6.5248095363769494 85.006763468310282 0 0 1 I I #
straight-curve $-1 -1.8452294405806526 -6.5248095363769494 106.81632752625322 0.51503806187062418 0 -0.85716730853699208 I I #
edge $-1 $819 -21.939960944456494 $500 -6.5248095363769494 $693 $826 forward 7 unknown #
point $-1 61.35196996978668 -6.5248095363769494 10.384051252450558 #
point $-1 56.097125778964553 -6.5248095363769494 10.384051252450561 #
edge $-1 $827 1 $827 0 $503 $-1 forward 7 unknown #
vertex $-1 $504 $828 #
ellipse-curve $-1 56.164503796023745 -14.232385240416722 4.4730568002552022 0.85716730853699208 0 0.51503806187062418 0.77255709280593621 0 -1.2857509628054882 1 I I #
point $-1 59.497104967181549 -14.232385240416722 4.7255354541019834 #
plane-surface $-1 0 0 10.384051252450558 0 0 1 1 0 0 forward_v I I I I #
coedge $-1 $716 $715 $708 $829 forward $508 $-1 #
coedge $-1 $708 $510 $512 $712 reversed $346 $-1 #
coedge $-1 $510 $707 $706 $829 reversed $346 $-1 #
coedge $-1 $518 $513 $510 $710 forward $519 $-1 #
edge $-1 $713 4.4308375268104712 $830 9.6856817176325976 $709 $831 forward 7 unknown #
coedge $-1 $512 $511 $716 $832 reversed $218 $-1 #
edge $-1 $833 -122.70393993957337 $713 -112.50111304220489 $707 $834 forward 7 unknown #
vertex $-1 $514 $835 #
straight-curve $-1 56.097125778964553 9.6038209577875975 10.384051252450561 0 -1 0 I I #
coedge $-1 $706 $515 $518 $720 reversed $508 $-1 #
coedge $-1 $515 $706 $711 $832 forward $508 $-1 #
vertex $-1 $516 $836 #
straight-curve $-1 61.35196996978668 26.915217619614968 85.006763468310282 0 0 1 I I #
straight-curve $-1 -1.8452294405806526 26.915217619614968 106.81632752625322 0.51503806187062418 0 -0.85716730853699208 I I #
edge $-1 $830 11.500066211535422 $520 26.915217619614968 $715 $837 forward 7 unknown #
point $-1 61.35196996978668 26.915217619614968 10.384051252450558 #
point $-1 56.097125778964553 26.915217619614968 10.384051252450561 #
edge $-1 $838 1 $838 0 $523 $-1 forward 7 unknown #
vertex $-1 $524 $839 #
ellipse-curve $-1 56.164503796023745 19.207641915575195 4.4730568002552022 0.85716730853699208 0 0.51503806187062418 0.77255709280593621 0 -1.2857509628054882 1 I I #
point $-1 59.497104967181549 19.207641915575195 4.7255354541019834 #
plane-surface $-1 61.35196996978668 0 0 -1 0 0 0 0 1 forward_v I I I I #
coedge $-1 $532 $530 $534 $732 reversed $361 $-1 #
edge $-1 $545 -10.384051252450558 $734 10.384051252450558 $544 $840 forward 7 unknown #
vertex $-1 $732 $841 #
straight-curve $-1 -61.35196996978668 -39.350303856807997 0 0 0 -1 I I #
edge $-1 $730 -39.350303856807997 $734 39.350303856807997 $728 $842 forward 7 unknown #
straight-curve $-1 0 -39.350303856807997 -10.384051252450558 -1 0 0 I I #
vertex $-1 $537 $843 #
straight-curve $-1 0 39.350303856807997 -10.384051252450558 1 0 0 I I #
point $-1 61.35196996978668 39.350303856807997 -10.384051252450558 #
point $-1 61.35196996978668 -39.350303856807997 -10.384051252450558 #
straight-curve $-1 -61.35196996978668 0 10.384051252450558 0 -1 0 I I #
point $-1 -61.35196996978668 39.350303856807997 10.384051252450558 #
point $-1 -61.35196996978668 -39.350303856807997 10.384051252450558 #
straight-curve $-1 61.35196996978668 -39.350303856807997 0 0 0 -1 I I #
straight-curve $-1 61.35196996978668 39.350303856807997 0 0 0 -1 I I #
loop $-1 $-1 $560 $554 #
plane-surface $-1 0 -39.350303856807997 0 0 1 0 0 0 1 forward_v I I I I #
coedge $-1 $571 $562 $558 $747 forward $555 $-1 #
edge $-1 $751 -22.630290278812037 $566 -10.809736877179887 $557 $844 forward 7 unknown #
edge $-1 $567 10.809736877179887 $750 22.630290278812037 $745 $845 forward 7 unknown #
coedge $-1 $569 $560 $574 $760 reversed $743 $-1 #
coedge $-1 $560 $569 $571 $758 reversed $743 $-1 #
vertex $-1 $758 $846 #
vertex $-1 $561 $847 #
straight-curve $-1 -40.583867464885564 -39.350303856807997 0 0 0 1 I I #
straight-curve $-1 -21.041933732442782 -27.529750455175847 -10.384051252450558 1 0 0 I I #
straight-curve $-1 -21.041933732442782 -27.529750455175847 10.384051252450558 -1 0 0 I I #
point $-1 -40.583867464885564 -27.529750455175847 10.384051252450558 #
point $-1 -40.583867464885564 -27.529750455175847 -10.384051252450558 #
straight-curve $-1 -43.583867464885564 -39.350303856807997 0 0 0 -1 I I #
edge $-1 $750 40.583867464885564 $572 43.583867464885564 $749 $848 forward 7 unknown #
point $-1 -43.583867464885564 -39.350303856807997 -10.384051252450558 #
edge $-1 $575 -43.583867464885564 $751 -40.583867464885564 $748 $849 forward 7 unknown #
point $-1 -43.583867464885564 -39.350303856807997 10.384051252450558 #
edge $-1 $763 37.25147117671743 $766 43.551274713496319 $580 $850 forward 7 unknown #
vertex $-1 $594 $851 #
straight-curve $-1 -71.728466345820266 -13.477138010576326 10.384051252450561 -1 0 0 I I #
edge $-1 $766 4.0303625761412842 $591 14.863188292728799 $590 $852 forward 7 unknown #
vertex $-1 $765 $853 #
straight-curve $-1 -61.35196996978668 -13.477138010576326 4.0842477156716654 0.74314481823134659 0 0.66913061440640931 I I #
point $-1 -54.355329473243437 -13.477138010576326 10.384051252450558 #
point $-1 -61.35196996978668 -24.30996372716384 4.0842477156716654 #
straight-curve $-1 -61.35196996978668 0 10.384051252450558 0 -1 0 I I #
vertex $-1 $597 $854 #
point $-1 -54.439440540823718 -21.214870665281694 5.6840009201535731 #
vertex $-1 $601 $855 #
point $-1 -54.439440540823718 -16.572231072458475 5.6840009201535731 #
coedge $-1 $616 $615 $608 $776 forward $605 $-1 #
edge $-1 $777 37.25147117671743 $780 43.551274713496319 $775 $856 forward 7 unknown #
vertex $-1 $620 $857 #
straight-curve $-1 -71.728466345820266 3.2428755674196346 10.384051252450561 -1 0 0 I I #
edge $-1 $780 -4.3296442128566959 $617 6.5031815037308185 $616 $858 forward 7 unknown #
vertex $-1 $779 $859 #
straight-curve $-1 -61.35196996978668 3.2428755674196346 4.0842477156716654 0.74314481823134659 0 0.66913061440640931 I I #
point $-1 -54.355329473243437 3.2428755674196346 10.384051252450558 #
point $-1 -61.35196996978668 -7.5899501491678798 4.0842477156716654 #
straight-curve $-1 -61.35196996978668 0 10.384051252450558 0 -1 0 I I #
vertex $-1 $623 $860 #
point $-1 -54.439440540823718 -4.4948570872857374 5.6840009201535731 #
vertex $-1 $627 $861 #
point $-1 -54.439440540823718 0.14778250553748506 5.6840009201535731 #
coedge $-1 $642 $641 $634 $790 forward $631 $-1 #
edge $-1 $791 37.25147117671743 $794 43.551274713496319 $789 $862 forward 7 unknown #
vertex $-1 $646 $863 #
straight-curve $-1 -71.728466345820266 19.962889145415591 10.384051252450561 -1 0 0 I I #
edge $-1 $794 -12.689651001854674 $643 -1.8568252852671598 $642 $864 forward 7 unknown #
vertex $-1 $793 $865 #
straight-curve $-1 -61.35196996978668 19.962889145415591 4.0842477156716654 0.74314481823134659 0 0.66913061440640931 I I #
point $-1 -54.355329473243437 19.962889145415591 10.384051252450558 #
point $-1 -61.35196996978668 9.1300634288280769 4.0842477156716654 #
straight-curve $-1 -61.35196996978668 0 10.384051252450558 0 -1 0 I I #
vertex $-1 $649 $866 #
point $-1 -54.439440540823718 12.225156490710219 5.6840009201535731 #
vertex $-1 $653 $867 #
point $-1 -54.439440540823718 16.867796083533449 5.6840009201535731 #
coedge $-1 $668 $667 $660 $804 forward $657 $-1 #
edge $-1 $805 37.25147117671743 $808 43.551274713496319 $803 $868 forward 7 unknown #
vertex $-1 $672 $869 #
straight-curve $-1 -71.728466345820266 36.682902723411544 10.384051252450561 -1 0 0 I I #
edge $-1 $808 -21.049657790852649 $669 -10.216832074265138 $668 $870 forward 7 unknown #
vertex $-1 $807 $871 #
straight-curve $-1 -61.35196996978668 36.682902723411544 4.0842477156716654 0.74314481823134659 0 0.66913061440640931 I I #
point $-1 -54.355329473243437 36.682902723411544 10.384051252450558 #
point $-1 -61.35196996978668 25.850077006824034 4.0842477156716654 #
straight-curve $-1 -61.35196996978668 0 10.384051252450558 0 -1 0 I I #
vertex $-1 $675 $872 #
point $-1 -54.439440540823718 28.945170068706176 5.6840009201535731 #
vertex $-1 $679 $873 #
point $-1 -54.439440540823718 33.587809661529406 5.6840009201535731 #
coedge $-1 $694 $693 $686 $818 forward $683 $-1 #
edge $-1 $819 74.622712215859721 $822 83.368241886945881 $817 $874 forward 7 unknown #
vertex $-1 $698 $875 #
straight-curve $-1 51.666288252154082 -21.939960944456494 10.384051252450561 1 0 0 I I #
edge $-1 $822 -14.823768324248134 $695 0.59138308383141158 $694 $876 forward 7 unknown #
vertex $-1 $821 $877 #
straight-curve $-1 -1.8452294405806526 -21.939960944456494 106.81632752625322 -0.51503806187062418 0 0.85716730853699208 I I #
point $-1 56.097125778964553 -21.939960944456494 10.384051252450561 #
point $-1 61.35196996978668 -6.5248095363769494 1.638521581364401 #
straight-curve $-1 61.35196996978668 0 10.384051252450558 0 1 0 I I #
vertex $-1 $701 $878 #
point $-1 56.937060888829677 -14.232385240416722 3.1873058374497143 #
edge $-1 $830 74.622712215859721 $833 83.368241886945881 $706 $879 forward 7 unknown #
vertex $-1 $720 $880 #
straight-curve $-1 51.666288252154082 11.500066211535422 10.384051252450561 1 0 0 I I #
edge $-1 $833 1.8962452537478249 $717 17.31139666182737 $716 $881 forward 7 unknown #
vertex $-1 $832 $882 #
straight-curve $-1 -1.8452294405806526 11.500066211535422 106.81632752625322 -0.51503806187062418 0 0.85716730853699208 I I #
point $-1 56.097125778964553 11.500066211535422 10.384051252450561 #
point $-1 61.35196996978668 26.915217619614968 1.638521581364401 #
straight-curve $-1 61.35196996978668 0 10.384051252450558 0 1 0 I I #
vertex $-1 $723 $883 #
point $-1 56.937060888829677 19.207641915575195 3.1873058374497143 #
straight-curve $-1 -61.35196996978668 39.350303856807997 0 0 0 -1 I I #
point $-1 -61.35196996978668 -39.350303856807997 -10.384051252450558 #
straight-curve $-1 -61.35196996978668 0 -10.384051252450558 0 1 0 I I #
point $-1 -61.35196996978668 39.350303856807997 -10.384051252450558 #
straight-curve $-1 -40.583867464885564 -16.72001357799596 10.384051252450558 0 1 0 I I #
straight-curve $-1 -40.583867464885564 -16.72001357799596 -10.384051252450558 0 -1 0 I I #
point $-1 -40.583867464885564 -39.350303856807997 -10.384051252450558 #
point $-1 -40.583867464885564 -39.350303856807997 10.384051252450558 #
straight-curve $-1 0 -39.350303856807997 -10.384051252450558 -1 0 0 I I #
straight-curve $-1 0 -39.350303856807997 10.384051252450558 1 0 0 I I #
straight-curve $-1 -61.35196996978668 -13.477138010576326 47.635522429167985 0 0 -1 I I #
point $-1 -61.35196996978668 -13.477138010576326 10.384051252450558 #
straight-curve $-1 -61.35196996978668 -9.4467754344350414 4.0842477156716637 0 -1 0 I I #
point $-1 -61.35196996978668 -13.477138010576326 4.0842477156716654 #
point $-1 -54.55046184656112 -21.214870665281694 3.565587771196939 #
point $-1 -54.55046184656112 -16.572231072458475 3.565587771196939 #
straight-curve $-1 -61.35196996978668 3.2428755674196346 47.635522429167985 0 0 -1 I I #
point $-1 -61.35196996978668 3.2428755674196346 10.384051252450558 #
straight-curve $-1 -61.35196996978668 -1.0867686454370613 4.0842477156716637 0 -1 0 I I #
point $-1 -61.35196996978668 3.2428755674196346 4.0842477156716654 #
point $-1 -54.55046184656112 -4.4948570872857374 3.565587771196939 #
point $-1 -54.55046184656112 0.14778250553748506 3.565587771196939 #
straight-curve $-1 -61.35196996978668 19.962889145415591 47.635522429167985 0 0 -1 I I #
point $-1 -61.35196996978668 19.962889145415591 10.384051252450558 #
straight-curve $-1 -61.35196996978668 7.273238143560917 4.0842477156716637 0 -1 0 I I #
point $-1 -61.35196996978668 19.962889145415591 4.0842477156716654 #
point $-1 -54.55046184656112 12.225156490710219 3.565587771196939 #
point $-1 -54.55046184656112 16.867796083533449 3.565587771196939 #
straight-curve $-1 -61.35196996978668 36.682902723411544 47.635522429167985 0 0 -1 I I #
point $-1 -61.35196996978668 36.682902723411544 10.384051252450558 #
straight-curve $-1 -61.35196996978668 15.633244932558895 4.0842477156716637 0 -1 0 I I #
point $-1 -61.35196996978668 36.682902723411544 4.0842477156716654 #
point $-1 -54.55046184656112 28.945170068706176 3.565587771196939 #
point $-1 -54.55046184656112 33.587809661529406 3.565587771196939 #
straight-curve $-1 61.35196996978668 -21.939960944456494 85.006763468310282 0 0 -1 I I #
point $-1 61.35196996978668 -21.939960944456494 10.384051252450558 #
straight-curve $-1 61.35196996978668 -7.116192620208361 1.6385215813644081 0 1 0 I I #
point $-1 61.35196996978668 -21.939960944456494 1.638521581364401 #
point $-1 54.87875283321825 -14.232385240416722 3.700499707449266 #
straight-curve $-1 61.35196996978668 11.500066211535422 85.006763468310282 0 0 -1 I I #
point $-1 61.35196996978668 11.500066211535422 10.384051252450558 #
straight-curve $-1 61.35196996978668 9.6038209577875975 1.6385215813644081 0 1 0 I I #
point $-1 61.35196996978668 11.500066211535422 1.638521581364401 #
point $-1 54.87875283321825 19.207641915575195 3.700499707449266 #
End-of-ACIS-data 