500 0 7 0           
7 Unknown 11 ACIS 5.0 NT 24 Fri Mar 26 14:38:29 1999 
-1 9.9999999999999995e-007 1e-010 
body $-1 $7 $-1 $8 #
body $-1 $9 $-1 $10 #
body $-1 $11 $-1 $12 #
body $-1 $13 $-1 $14 #
body $-1 $15 $-1 $16 #
body $-1 $17 $-1 $18 #
body $-1 $19 $-1 $20 #
lump $-1 $-1 $21 $0 #
transform $-1 1 0 0 0 1 0 0 0 1 78.558305612353891 38.97970725513526 14.44570083044783 1 rotate no_reflect no_shear #
lump $-1 $-1 $22 $1 #
transform $-1 1 0 0 0 1 0 0 0 1 78.558305612353891 38.97970725513526 14.44570083044783 1 rotate no_reflect no_shear #
lump $-1 $-1 $23 $2 #
transform $-1 1 0 0 0 1 0 0 0 1 78.558305612353891 38.97970725513526 14.44570083044783 1 rotate no_reflect no_shear #
lump $-1 $-1 $24 $3 #
transform $-1 1 0 0 0 1 0 0 0 1 78.558305612353891 38.97970725513526 14.44570083044783 1 rotate no_reflect no_shear #
lump $-1 $-1 $25 $4 #
transform $-1 1 0 0 0 1 0 0 0 1 78.558305612353891 38.97970725513526 14.44570083044783 1 rotate no_reflect no_shear #
lump $-1 $-1 $26 $5 #
transform $-1 1 0 0 0 1 0 0 0 1 78.558305612353891 38.97970725513526 14.44570083044783 1 rotate no_reflect no_shear #
lump $-1 $-1 $27 $6 #
transform $-1 1 0 0 0 1 0 0 0 1 78.558305612353891 38.97970725513526 14.44570083044783 1 rotate no_reflect no_shear #
shell $-1 $-1 $-1 $28 $-1 $7 #
shell $-1 $-1 $-1 $29 $-1 $9 #
shell $-1 $-1 $-1 $30 $-1 $11 #
shell $-1 $-1 $-1 $31 $-1 $13 #
shell $-1 $-1 $-1 $32 $-1 $15 #
shell $-1 $-1 $-1 $33 $-1 $17 #
shell $-1 $-1 $-1 $34 $-1 $19 #
face $-1 $35 $36 $21 $-1 $37 forward single #
face $-1 $38 $39 $22 $-1 $40 forward single #
face $-1 $41 $42 $23 $-1 $43 reversed single #
face $-1 $44 $45 $24 $-1 $46 forward single #
face $-1 $47 $48 $25 $-1 $49 forward single #
face $-1 $50 $51 $26 $-1 $52 reversed single #
face $-1 $53 $54 $27 $-1 $55 forward single #
face $-1 $56 $57 $21 $-1 $58 reversed single #
loop $-1 $-1 $59 $28 #
plane-surface $-1 0 0 14.44570083044783 0 0 1 1 0 0 forward_v I I I I #
face $-1 $60 $61 $22 $-1 $62 reversed single #
loop $-1 $-1 $63 $29 #
plane-surface $-1 0 -29.599321522331557 -11.135097302014806 0 0 1 1 0 0 forward_v I I I I #
face $-1 $64 $65 $23 $-1 $66 reversed single #
loop $-1 $-1 $67 $30 #
plane-surface $-1 120.95538872522131 -3.9060093098552588 220.48096300129615 0 -1 0 -0.82903758062907751 0 -0.55919289150049634 forward_v I I I I #
face $-1 $68 $69 $24 $-1 $70 forward single #
loop $-1 $71 $72 $31 #
cone-surface $-1 73.280312110362686 -15.558099652478539 7.5939437099654468 -0.82903758062907751 0 -0.55919289150049634 0.55919289150049634 0 -0.82903758062907751 1 I I 0 1 1 forward I I I I #
face $-1 $73 $74 $25 $-1 $75 forward single #
loop $-1 $76 $77 $32 #
cone-surface $-1 73.280312110362686 -8.5668454469045692 7.5939437099654468 -0.82903758062907751 0 -0.55919289150049634 0.55919289150049634 0 -0.82903758062907751 1 I I 0 1 1 forward I I I I #
face $-1 $78 $79 $26 $-1 $80 reversed single #
loop $-1 $-1 $81 $33 #
plane-surface $-1 -197.13571861805076 -20.218935789527851 105.0593813023217 0 1 0 -0.75470958851134928 0 0.65605901945558964 forward_v I I I I #
face $-1 $82 $83 $27 $-1 $84 forward single #
loop $-1 $85 $86 $34 #
cone-surface $-1 -70.66627691769979 -14.759315743994858 6.0625235445623105 0.75470958851134928 0 -0.65605901945558964 1.6401475486389741 0 1.8867739712783731 1 I I 0 1 2.5 forward I I I I #
face $-1 $87 $88 $21 $-1 $89 reversed single #
loop $-1 $-1 $90 $35 #
plane-surface $-1 0 0 -14.44570083044783 0 0 1 1 0 0 forward_v I I I I #
coedge $-1 $91 $92 $93 $94 forward $36 $-1 #
face $-1 $95 $96 $22 $-1 $97 reversed single #
loop $-1 $-1 $98 $38 #
plane-surface $-1 0 -20.218935789527855 -12.790399066231318 0 -1 0 0 0 -1 forward_v I I I I #
coedge $-1 $99 $100 $101 $102 reversed $39 $-1 #
face $-1 $103 $104 $23 $-1 $105 reversed single #
loop $-1 $-1 $106 $41 #
plane-surface $-1 -9.3001865211497687 -12.062472549691556 132.62247086779246 0.82903758062907751 0 0.55919289150049634 0.55919289150049634 0 -0.82903758062907751 forward_v I I I I #
coedge $-1 $107 $108 $109 $110 reversed $42 $-1 #
face $-1 $-1 $111 $24 $-1 $112 forward single #
loop $-1 $113 $114 $44 #
cone-surface $-1 71.661428184566873 -15.558099652478539 6.5019927482460567 -0.82903758062907751 0 -0.55919289150049634 0.27959644575024817 0 -0.41451879031453875 1 I I -0.70710678118654746 0.70710678118654746 0.5 forward I I I I #
loop $-1 $-1 $115 $31 #
coedge $-1 $72 $72 $116 $117 reversed $45 $-1 #
face $-1 $-1 $118 $25 $-1 $119 forward single #
loop $-1 $120 $121 $47 #
cone-surface $-1 71.661428184566873 -8.5668454469045692 6.5019927482460567 -0.82903758062907751 0 -0.55919289150049634 0.27959644575024817 0 -0.41451879031453875 1 I I -0.70710678118654746 0.70710678118654746 0.5 forward I I I I #
loop $-1 $-1 $122 $32 #
coedge $-1 $77 $77 $123 $124 reversed $48 $-1 #
face $-1 $125 $126 $26 $-1 $127 reversed single #
loop $-1 $-1 $128 $50 #
plane-surface $-1 -78.558305612353934 -14.759315743994858 1.9816114020548383 -0.75470958851134928 0 0.65605901945558964 0.65605901945558964 0 0.75470958851134928 forward_v I I I I #
coedge $-1 $129 $130 $131 $132 reversed $51 $-1 #
face $-1 $-1 $133 $27 $-1 $134 forward single #
loop $-1 $135 $136 $53 #
cone-surface $-1 -67.248294918703451 -14.759315743994858 3.0913171985537993 0.75470958851134928 0 -0.65605901945558964 0.82007377431948703 0 0.94338698563918655 1 I I -0.70710678118654746 0.70710678118654746 1.25 forward I I I I #
loop $-1 $-1 $137 $34 #
coedge $-1 $86 $86 $138 $139 reversed $54 $-1 #
face $-1 $140 $141 $21 $-1 $142 reversed single #
loop $-1 $-1 $143 $56 #
plane-surface $-1 0 -38.97970725513526 0 0 1 0 0 0 1 forward_v I I I I #
coedge $-1 $144 $145 $146 $147 forward $57 $-1 #
coedge $-1 $148 $59 $149 $150 forward $36 $-1 #
coedge $-1 $59 $148 $151 $152 forward $36 $-1 #
coedge $-1 $153 $154 $59 $94 reversed $155 $-1 #
edge $-1 $156 -38.97970725513526 $157 38.97970725513526 $93 $158 forward 7 unknown #
face $-1 $159 $160 $22 $-1 $161 reversed single #
loop $-1 $-1 $162 $60 #
plane-surface $-1 0 0 -14.44570083044783 0 0 1 1 0 0 forward_v I I I I #
coedge $-1 $163 $164 $165 $166 reversed $61 $-1 #
coedge $-1 $167 $63 $164 $168 forward $39 $-1 #
coedge $-1 $63 $167 $169 $170 reversed $39 $-1 #
coedge $-1 $171 $165 $63 $102 forward $160 $-1 #
edge $-1 $172 5.4192750283620761 $173 24.180046493969481 $101 $174 forward 7 unknown #
face $-1 $175 $176 $23 $-1 $177 reversed single #
loop $-1 $-1 $178 $64 #
plane-surface $-1 120.95538872522131 -20.218935789527855 220.48096300129615 0 1 0 0.82903758062907751 0 0.55919289150049634 forward_v I I I I #
coedge $-1 $179 $180 $181 $182 reversed $65 $-1 #
coedge $-1 $108 $67 $183 $184 reversed $42 $-1 #
coedge $-1 $67 $107 $179 $185 reversed $42 $-1 #
coedge $-1 $181 $186 $67 $110 forward $187 $-1 #
edge $-1 $188 -18.080611249743235 $189 -9.9333545167233623 $109 $190 forward 7 unknown #
loop $-1 $-1 $116 $68 #
plane-surface $-1 -9.3001865211497687 -12.062472549691556 132.62247086779246 0.82903758062907751 0 0.55919289150049634 0.55919289150049634 0 -0.82903758062907751 forward_v I I I I #
loop $-1 $-1 $191 $44 #
coedge $-1 $114 $114 $115 $192 reversed $69 $-1 #
coedge $-1 $115 $115 $114 $192 forward $71 $-1 #
coedge $-1 $116 $116 $72 $117 forward $111 $-1 #
edge $-1 $193 0 $193 6.2831853071796004 $116 $194 forward 7 unknown #
loop $-1 $-1 $123 $73 #
plane-surface $-1 -9.3001865211497687 -12.062472549691556 132.62247086779246 0.82903758062907751 0 0.55919289150049634 0.55919289150049634 0 -0.82903758062907751 forward_v I I I I #
loop $-1 $-1 $195 $47 #
coedge $-1 $121 $121 $122 $196 reversed $74 $-1 #
coedge $-1 $122 $122 $121 $196 forward $76 $-1 #
coedge $-1 $123 $123 $77 $124 forward $118 $-1 #
edge $-1 $197 0 $197 6.2831853071796004 $123 $198 forward 7 unknown #
face $-1 $199 $200 $26 $-1 $201 forward single #
loop $-1 $-1 $202 $78 #
plane-surface $-1 -197.13571861805076 -9.2996956984618642 105.0593813023217 0 -1 0 0.75470958851134928 0 -0.65605901945558964 forward_v I I I I #
coedge $-1 $203 $204 $205 $206 reversed $79 $-1 #
coedge $-1 $130 $81 $207 $208 reversed $51 $-1 #
coedge $-1 $81 $129 $203 $209 reversed $51 $-1 #
coedge $-1 $205 $210 $81 $132 forward $200 $-1 #
edge $-1 $211 20.009553696671489 $212 30.844421059265343 $131 $213 forward 7 unknown #
loop $-1 $-1 $138 $82 #
plane-surface $-1 -78.558305612353934 -14.759315743994858 1.9816114020548383 -0.75470958851134928 0 0.65605901945558964 0.65605901945558964 0 0.75470958851134928 forward_v I I I I #
loop $-1 $-1 $214 $53 #
coedge $-1 $136 $136 $137 $215 reversed $83 $-1 #
coedge $-1 $137 $137 $136 $215 forward $85 $-1 #
coedge $-1 $138 $138 $86 $139 forward $133 $-1 #
edge $-1 $216 0 $216 6.2831853071796004 $138 $217 forward 7 unknown #
face $-1 $218 $219 $21 $-1 $220 reversed single #
loop $-1 $-1 $221 $87 #
plane-surface $-1 -78.558305612353891 0 0 1 0 0 0 0 -1 forward_v I I I I #
coedge $-1 $222 $151 $223 $224 forward $88 $-1 #
coedge $-1 $225 $90 $222 $226 forward $57 $-1 #
coedge $-1 $90 $225 $227 $228 forward $57 $-1 #
coedge $-1 $154 $153 $90 $147 reversed $155 $-1 #
edge $-1 $229 -38.97970725513526 $230 38.97970725513526 $146 $231 forward 7 unknown #
coedge $-1 $92 $91 $232 $233 forward $36 $-1 #
coedge $-1 $234 $235 $91 $150 reversed $219 $-1 #
edge $-1 $157 -78.558305612353891 $236 78.558305612353891 $149 $237 forward 7 unknown #
coedge $-1 $143 $238 $92 $152 reversed $88 $-1 #
edge $-1 $239 -78.558305612353891 $156 78.558305612353891 $151 $240 forward 7 unknown #
coedge $-1 $146 $93 $238 $241 forward $155 $-1 #
coedge $-1 $93 $146 $234 $242 reversed $155 $-1 #
loop $-1 $-1 $153 $218 #
vertex $-1 $94 $243 #
vertex $-1 $94 $244 #
straight-curve $-1 78.558305612353891 0 14.44570083044783 0 1 0 I I #
face $-1 $245 $246 $22 $-1 $247 reversed single #
loop $-1 $-1 $165 $95 #
plane-surface $-1 78.558305612353891 0 0 -1 0 0 0 0 1 forward_v I I I I #
coedge $-1 $248 $249 $163 $250 forward $96 $-1 #
coedge $-1 $251 $98 $162 $250 reversed $61 $-1 #
coedge $-1 $98 $251 $99 $168 reversed $61 $-1 #
coedge $-1 $101 $252 $98 $166 forward $160 $-1 #
edge $-1 $253 -8.0505012973321719 $172 -4.739897768899147 $165 $254 forward 7 unknown #
coedge $-1 $100 $99 $255 $256 reversed $39 $-1 #
edge $-1 $172 -78.558305612353891 $257 78.558305612353891 $164 $258 forward 7 unknown #
coedge $-1 $259 $260 $100 $170 forward $246 $-1 #
edge $-1 $173 -78.558305612353891 $261 78.558305612353891 $169 $262 forward 7 unknown #
coedge $-1 $252 $101 $260 $263 forward $160 $-1 #
vertex $-1 $102 $264 #
vertex $-1 $263 $265 #
straight-curve $-1 78.558305612353891 -14.799660761165779 -11.135097302014806 0 -1 0 I I #
face $-1 $-1 $187 $23 $-1 $266 forward single #
loop $-1 $-1 $267 $103 #
plane-surface $-1 78.558305612353891 0 0 -1 0 0 0 0 1 forward_v I I I I #
coedge $-1 $268 $269 $270 $271 reversed $104 $-1 #
coedge $-1 $272 $106 $108 $185 forward $65 $-1 #
coedge $-1 $106 $272 $268 $273 forward $65 $-1 #
coedge $-1 $270 $109 $106 $182 forward $187 $-1 #
edge $-1 $189 -2.1252269649905191 $274 14.187699514682077 $181 $275 forward 7 unknown #
coedge $-1 $276 $277 $107 $184 forward $176 $-1 #
edge $-1 $278 -107.8735858792267 $188 -95.79478067020024 $183 $279 forward 7 unknown #
edge $-1 $189 142.54693972699229 $278 157.11661122470778 $108 $280 forward 7 unknown #
coedge $-1 $109 $270 $276 $281 forward $187 $-1 #
loop $-1 $-1 $270 $175 #
vertex $-1 $184 $282 #
vertex $-1 $110 $283 #
straight-curve $-1 60.477694362610656 -3.9060093098552588 14.445700830447834 -1 0 0 I I #
coedge $-1 $191 $191 $-1 $284 reversed $113 $-1 #
edge $-1 $285 0 $285 6.2831853071796004 $114 $286 forward 7 unknown #
vertex $-1 $117 $287 #
ellipse-curve $-1 74.484677245843969 -15.558099652478539 8.4062982259345898 0.82903758062907751 0 0.55919289150049634 0.55919289150049634 0 -0.82903758062907751 1 I I #
coedge $-1 $195 $195 $-1 $288 reversed $120 $-1 #
edge $-1 $289 0 $289 6.2831853071796004 $121 $290 forward 7 unknown #
vertex $-1 $124 $291 #
ellipse-curve $-1 74.484677245843969 -8.5668454469045692 8.4062982259345898 0.82903758062907751 0 0.55919289150049634 0.55919289150049634 0 -0.82903758062907751 1 I I #
face $-1 $-1 $292 $26 $-1 $293 reversed single #
loop $-1 $-1 $131 $125 #
plane-surface $-1 0 0 14.44570083044783 0 0 1 1 0 0 forward_v I I I I #
coedge $-1 $294 $295 $296 $297 reversed $126 $-1 #
coedge $-1 $298 $128 $130 $209 forward $79 $-1 #
coedge $-1 $128 $298 $294 $299 forward $79 $-1 #
coedge $-1 $296 $131 $128 $206 forward $200 $-1 #
edge $-1 $212 -12.839277917530422 $300 -1.9200378264644353 $205 $301 forward 7 unknown #
coedge $-1 $302 $303 $129 $208 forward $292 $-1 #
edge $-1 $304 -50.54807924910596 $211 -38.083989820713015 $207 $305 forward 7 unknown #
edge $-1 $212 -16.515080261505862 $304 -6.5004479753767774e-014 $130 $306 forward 7 unknown #
coedge $-1 $131 $296 $302 $307 forward $200 $-1 #
vertex $-1 $208 $308 #
vertex $-1 $132 $309 #
straight-curve $-1 -98.56785930902538 -20.218935789527851 14.445700830447834 1 0 0 I I #
coedge $-1 $214 $214 $-1 $310 reversed $135 $-1 #
edge $-1 $311 0 $311 6.2831853071796004 $136 $312 forward 7 unknown #
vertex $-1 $139 $313 #
ellipse-curve $-1 -73.140871931056964 -14.759315743994858 8.2136561162513573 -0.75470958851134928 0 0.65605901945558964 1.6401475486389741 0 1.8867739712783731 1 I I #
face $-1 $-1 $155 $21 $-1 $314 reversed single #
loop $-1 $-1 $234 $140 #
plane-surface $-1 0 38.97970725513526 0 0 -1 0 0 0 -1 forward_v I I I I #
coedge $-1 $315 $232 $235 $316 forward $141 $-1 #
coedge $-1 $238 $143 $144 $226 reversed $88 $-1 #
coedge $-1 $232 $315 $143 $224 reversed $141 $-1 #
edge $-1 $239 -14.44570083044783 $317 14.44570083044783 $223 $318 forward 7 unknown #
coedge $-1 $145 $144 $315 $319 forward $57 $-1 #
edge $-1 $230 -78.558305612353891 $317 78.558305612353891 $222 $320 forward 7 unknown #
coedge $-1 $235 $234 $145 $228 reversed $219 $-1 #
edge $-1 $321 -78.558305612353891 $229 78.558305612353891 $227 $322 forward 7 unknown #
vertex $-1 $147 $323 #
vertex $-1 $241 $324 #
straight-curve $-1 78.558305612353891 0 -14.44570083044783 0 -1 0 I I #
coedge $-1 $221 $223 $148 $233 reversed $141 $-1 #
edge $-1 $236 -38.97970725513526 $239 38.97970725513526 $232 $325 forward 7 unknown #
coedge $-1 $227 $149 $154 $242 forward $219 $-1 #
coedge $-1 $149 $227 $221 $316 reversed $219 $-1 #
vertex $-1 $150 $326 #
straight-curve $-1 0 38.97970725513526 14.44570083044783 -1 0 0 I I #
coedge $-1 $151 $222 $153 $241 reversed $88 $-1 #
vertex $-1 $233 $327 #
straight-curve $-1 0 -38.97970725513526 14.44570083044783 1 0 0 I I #
edge $-1 $156 -14.44570083044783 $230 14.44570083044783 $153 $328 forward 7 unknown #
edge $-1 $157 -14.44570083044783 $229 14.44570083044783 $154 $329 forward 7 unknown #
point $-1 78.558305612353891 -38.97970725513526 14.44570083044783 #
point $-1 78.558305612353891 38.97970725513526 14.44570083044783 #
face $-1 $-1 $330 $22 $-1 $331 reversed single #
loop $-1 $-1 $169 $159 #
plane-surface $-1 0 -38.97970725513526 0 0 1 0 0 0 1 forward_v I I I I #
coedge $-1 $332 $162 $252 $333 forward $96 $-1 #
coedge $-1 $162 $332 $334 $335 forward $96 $-1 #
edge $-1 $336 -78.558305612353891 $253 78.558305612353891 $162 $337 forward 7 unknown #
coedge $-1 $164 $163 $338 $339 reversed $61 $-1 #
coedge $-1 $165 $171 $248 $333 reversed $160 $-1 #
vertex $-1 $333 $340 #
straight-curve $-1 78.558305612353891 -20.218935789527855 -6.395199533115659 0 0 1 I I #
coedge $-1 $338 $341 $167 $256 forward $330 $-1 #
edge $-1 $261 -24.180046493969481 $257 -5.4192750283620761 $255 $342 forward 7 unknown #
vertex $-1 $256 $343 #
straight-curve $-1 0 -20.218935789527855 -11.135097302014806 -1 0 0 I I #
coedge $-1 $344 $169 $341 $345 forward $246 $-1 #
coedge $-1 $169 $344 $171 $263 reversed $246 $-1 #
vertex $-1 $345 $346 #
straight-curve $-1 0 -38.97970725513526 -11.135097302014806 -1 0 0 I I #
edge $-1 $173 11.135097302014806 $347 14.44570083044783 $171 $348 forward 7 unknown #
point $-1 78.558305612353891 -20.218935789527855 -11.135097302014806 #
point $-1 78.558305612353891 -38.97970725513526 -11.135097302014806 #
plane-surface $-1 0 0 14.44570083044783 0 0 1 1 0 0 forward_v I I I I #
coedge $-1 $277 $276 $269 $349 forward $176 $-1 #
coedge $-1 $269 $178 $180 $273 reversed $104 $-1 #
coedge $-1 $178 $268 $267 $349 reversed $104 $-1 #
coedge $-1 $186 $181 $178 $271 forward $187 $-1 #
edge $-1 $274 9.9333545167233623 $350 18.080611249743235 $270 $351 forward 7 unknown #
coedge $-1 $180 $179 $277 $352 reversed $65 $-1 #
edge $-1 $353 -157.11661122470778 $274 -142.54693972699229 $268 $354 forward 7 unknown #
vertex $-1 $182 $355 #
straight-curve $-1 70.411048879334032 -6.031236274845778 14.445700830447834 0 -1 0 I I #
coedge $-1 $267 $183 $186 $281 reversed $176 $-1 #
coedge $-1 $183 $267 $272 $352 forward $176 $-1 #
vertex $-1 $184 $356 #
straight-curve $-1 78.558305612353891 -3.9060093098552588 110.24048150064807 0 0 1 I I #
straight-curve $-1 -9.3001865211497687 -3.9060093098552588 132.62247086779246 0.55919289150049634 0 -0.82903758062907751 I I #
edge $-1 $350 -20.218935789527855 $188 -3.9060093098552588 $276 $357 forward 7 unknown #
point $-1 78.558305612353891 -3.9060093098552588 14.44570083044783 #
point $-1 70.411048879334018 -3.9060093098552588 14.445700830447834 #
edge $-1 $358 1 $358 0 $191 $-1 forward 7 unknown #
vertex $-1 $192 $359 #
ellipse-curve $-1 72.075946974881418 -15.558099652478539 6.7815891939963047 0.82903758062907751 0 0.55919289150049634 0.55919289150049634 0 -0.82903758062907751 1 I I #
point $-1 75.04387013734447 -15.558099652478539 7.5772606453055111 #
edge $-1 $360 1 $360 0 $195 $-1 forward 7 unknown #
vertex $-1 $196 $361 #
ellipse-curve $-1 72.075946974881418 -8.5668454469045692 6.7815891939963047 0.82903758062907751 0 0.55919289150049634 0.55919289150049634 0 -0.82903758062907751 1 I I #
point $-1 75.04387013734447 -8.5668454469045692 7.5772606453055111 #
loop $-1 $-1 $207 $199 #
plane-surface $-1 -78.558305612353891 0 0 1 0 0 0 0 -1 forward_v I I I I #
coedge $-1 $295 $202 $204 $299 reversed $126 $-1 #
coedge $-1 $202 $294 $362 $363 reversed $126 $-1 #
coedge $-1 $210 $205 $202 $297 forward $200 $-1 #
edge $-1 $300 -30.844421059265343 $364 -20.009553696671489 $296 $365 forward 7 unknown #
coedge $-1 $204 $203 $303 $366 reversed $79 $-1 #
edge $-1 $367 6.5004479753767774e-014 $300 16.515080261505862 $294 $368 forward 7 unknown #
vertex $-1 $206 $369 #
straight-curve $-1 -67.723438249760036 -7.3796578719974288 14.44570083044783 0 1 0 I I #
coedge $-1 $362 $207 $210 $307 reversed $292 $-1 #
coedge $-1 $207 $362 $298 $366 forward $292 $-1 #
vertex $-1 $208 $370 #
straight-curve $-1 -78.558305612353891 -20.218935789527851 52.529690651160848 0 0 1 I I #
straight-curve $-1 -78.558305612353934 -20.218935789527851 1.9816114020548383 -0.65605901945558964 0 -0.75470958851134928 I I #
edge $-1 $364 9.2996956984618642 $211 20.218935789527851 $302 $371 forward 7 unknown #
point $-1 -78.558305612353891 -20.218935789527851 14.44570083044783 #
point $-1 -67.723438249760036 -20.218935789527851 14.44570083044783 #
edge $-1 $372 1 $372 0 $214 $-1 forward 7 unknown #
vertex $-1 $215 $373 #
ellipse-curve $-1 -68.19168190434263 -14.759315743994858 3.9113909728732863 -0.75470958851134928 0 0.65605901945558964 1.6401475486389741 0 1.8867739712783731 1 I I #
point $-1 -71.500724382417957 -14.759315743994858 10.100430087529707 #
plane-surface $-1 78.558305612353891 0 0 -1 0 0 0 0 1 forward_v I I I I #
coedge $-1 $223 $221 $225 $319 reversed $141 $-1 #
edge $-1 $236 -14.44570083044783 $321 14.44570083044783 $235 $374 forward 7 unknown #
vertex $-1 $319 $375 #
straight-curve $-1 -78.558305612353891 -38.97970725513526 0 0 0 -1 I I #
edge $-1 $317 -38.97970725513526 $321 38.97970725513526 $315 $376 forward 7 unknown #
straight-curve $-1 0 -38.97970725513526 -14.44570083044783 -1 0 0 I I #
vertex $-1 $228 $377 #
straight-curve $-1 0 38.97970725513526 -14.44570083044783 1 0 0 I I #
point $-1 78.558305612353891 38.97970725513526 -14.44570083044783 #
point $-1 78.558305612353891 -38.97970725513526 -14.44570083044783 #
straight-curve $-1 -78.558305612353891 0 14.44570083044783 0 -1 0 I I #
point $-1 -78.558305612353891 38.97970725513526 14.44570083044783 #
point $-1 -78.558305612353891 -38.97970725513526 14.44570083044783 #
straight-curve $-1 78.558305612353891 -38.97970725513526 0 0 0 -1 I I #
straight-curve $-1 78.558305612353891 38.97970725513526 0 0 0 -1 I I #
loop $-1 $-1 $338 $245 #
plane-surface $-1 -78.558305612353891 0 0 1 0 0 0 0 -1 forward_v I I I I #
coedge $-1 $249 $248 $344 $378 forward $96 $-1 #
edge $-1 $253 20.218935789527855 $347 38.97970725513526 $252 $379 forward 7 unknown #
coedge $-1 $341 $338 $249 $335 reversed $330 $-1 #
edge $-1 $380 -38.97970725513526 $336 -20.218935789527855 $334 $381 forward 7 unknown #
vertex $-1 $339 $382 #
straight-curve $-1 0 -20.218935789527855 -14.44570083044783 1 0 0 I I #
coedge $-1 $334 $255 $251 $339 forward $330 $-1 #
edge $-1 $257 4.739897768899147 $336 8.0505012973321719 $338 $383 forward 7 unknown #
point $-1 78.558305612353891 -20.218935789527855 -14.44570083044783 #
coedge $-1 $255 $334 $259 $345 reversed $330 $-1 #
straight-curve $-1 -78.558305612353891 -14.799660761165779 -11.135097302014806 0 1 0 I I #
point $-1 -78.558305612353891 -20.218935789527855 -11.135097302014806 #
coedge $-1 $260 $259 $332 $378 reversed $246 $-1 #
edge $-1 $261 11.135097302014806 $380 14.44570083044783 $341 $384 forward 7 unknown #
point $-1 -78.558305612353891 -38.97970725513526 -11.135097302014806 #
vertex $-1 $263 $385 #
straight-curve $-1 78.558305612353891 -38.97970725513526 0 0 0 -1 I I #
edge $-1 $350 95.79478067020024 $353 107.8735858792267 $267 $386 forward 7 unknown #
vertex $-1 $281 $387 #
straight-curve $-1 60.477694362610656 -20.218935789527855 14.445700830447834 1 0 0 I I #
edge $-1 $353 -14.187699514682077 $278 2.1252269649905191 $277 $388 forward 7 unknown #
vertex $-1 $352 $389 #
straight-curve $-1 -9.3001865211497687 -20.218935789527855 132.62247086779246 -0.55919289150049634 0 0.82903758062907751 I I #
point $-1 70.411048879334018 -20.218935789527855 14.445700830447834 #
point $-1 78.558305612353905 -3.9060093098552588 2.3668956214213779 #
straight-curve $-1 78.558305612353891 0 14.44570083044783 0 1 0 I I #
vertex $-1 $284 $390 #
point $-1 72.635139866381905 -15.558099652478539 5.9525516133672269 #
vertex $-1 $288 $391 #
point $-1 72.635139866381905 -8.5668454469045692 5.9525516133672269 #
coedge $-1 $303 $302 $295 $363 forward $292 $-1 #
edge $-1 $364 38.083989820713015 $367 50.54807924910596 $362 $392 forward 7 unknown #
vertex $-1 $307 $393 #
straight-curve $-1 -98.56785930902538 -9.2996956984618642 14.445700830447834 -1 0 0 I I #
edge $-1 $367 1.9200378264644353 $304 12.839277917530422 $303 $394 forward 7 unknown #
vertex $-1 $366 $395 #
straight-curve $-1 -78.558305612353934 -9.2996956984618642 1.9816114020548383 0.65605901945558964 0 0.75470958851134928 I I #
point $-1 -67.723438249760036 -9.2996956984618642 14.44570083044783 #
point $-1 -78.558305612353891 -20.218935789527851 1.9816114020548874 #
straight-curve $-1 -78.558305612353891 0 14.44570083044783 0 -1 0 I I #
vertex $-1 $310 $396 #
point $-1 -66.551534355703666 -14.759315743994858 5.7981649441516598 #
straight-curve $-1 -78.558305612353891 38.97970725513526 0 0 0 -1 I I #
point $-1 -78.558305612353891 -38.97970725513526 -14.44570083044783 #
straight-curve $-1 -78.558305612353891 0 -14.44570083044783 0 1 0 I I #
point $-1 -78.558305612353891 38.97970725513526 -14.44570083044783 #
edge $-1 $347 -78.558305612353891 $380 78.558305612353891 $344 $397 forward 7 unknown #
straight-curve $-1 78.558305612353891 0 -14.44570083044783 0 -1 0 I I #
vertex $-1 $335 $398 #
straight-curve $-1 -78.558305612353891 0 -14.44570083044783 0 1 0 I I #
point $-1 -78.558305612353891 -20.218935789527855 -14.44570083044783 #
straight-curve $-1 -78.558305612353891 -20.218935789527855 -6.395199533115659 0 0 -1 I I #
straight-curve $-1 -78.558305612353891 -38.97970725513526 0 0 0 -1 I I #
point $-1 78.558305612353891 -38.97970725513526 -14.44570083044783 #
straight-curve $-1 78.558305612353891 -20.218935789527855 110.24048150064807 0 0 -1 I I #
point $-1 78.558305612353891 -20.218935789527855 14.44570083044783 #
straight-curve $-1 78.558305612353905 -6.031236274845778 2.3668956214214063 0 1 0 I I #
point $-1 78.558305612353905 -20.218935789527855 2.3668956214213779 #
point $-1 71.246909394252327 -15.558099652478539 6.2223963024958087 #
point $-1 71.246909394252327 -8.5668454469045692 6.2223963024958087 #
straight-curve $-1 -78.558305612353891 -9.2996956984618642 52.529690651160848 0 0 -1 I I #
point $-1 -78.558305612353891 -9.2996956984618642 14.44570083044783 #
straight-curve $-1 -78.558305612353891 -7.3796578719974288 1.9816114020548814 0 -1 0 I I #
point $-1 -78.558305612353891 -9.2996956984618642 1.9816114020548874 #
point $-1 -66.304907933064271 -14.759315743994858 2.2712434242343122 #
straight-curve $-1 0 -38.97970725513526 -14.44570083044783 -1 0 0 I I #
point $-1 -78.558305612353891 -38.97970725513526 -14.44570083044783 #
End-of-ACIS-data 