500 0 5 0           
7 Unknown 11 ACIS 5.0 NT 24 Thu Mar 25 19:38:42 1999 
-1 9.9999999999999995e-007 1e-010 
body $-1 $5 $-1 $6 #
body $-1 $7 $-1 $8 #
body $-1 $9 $-1 $10 #
body $-1 $11 $-1 $12 #
body $-1 $13 $-1 $14 #
lump $-1 $-1 $15 $0 #
transform $-1 1 0 0 0 1 0 0 0 1 48.619647816400644 26.070648398197047 6.6703846850784192 1 rotate no_reflect no_shear #
lump $-1 $-1 $16 $1 #
transform $-1 1 0 0 0 1 0 0 0 1 48.619647816400644 26.070648398197047 6.6703846850784192 1 rotate no_reflect no_shear #
lump $-1 $-1 $17 $2 #
transform $-1 1 0 0 0 1 0 0 0 1 48.619647816400644 26.070648398197047 6.6703846850784192 1 rotate no_reflect no_shear #
lump $-1 $-1 $18 $3 #
transform $-1 1 0 0 0 1 0 0 0 1 48.619647816400644 26.070648398197047 6.6703846850784192 1 rotate no_reflect no_shear #
lump $-1 $-1 $19 $4 #
transform $-1 1 0 0 0 1 0 0 0 1 48.619647816400644 26.070648398197047 6.6703846850784192 1 rotate no_reflect no_shear #
shell $-1 $-1 $-1 $20 $-1 $5 #
shell $-1 $-1 $-1 $21 $-1 $7 #
shell $-1 $-1 $-1 $22 $-1 $9 #
shell $-1 $-1 $-1 $23 $-1 $11 #
shell $-1 $-1 $-1 $24 $-1 $13 #
face $-1 $25 $26 $15 $-1 $27 forward single #
face $-1 $28 $29 $16 $-1 $30 reversed single #
face $-1 $31 $32 $17 $-1 $33 forward single #
face $-1 $34 $35 $18 $-1 $36 reversed single #
face $-1 $37 $38 $19 $-1 $39 reversed single #
face $-1 $40 $41 $15 $-1 $42 reversed single #
loop $-1 $-1 $43 $20 #
plane-surface $-1 0 0 6.6703846850784192 0 0 1 1 0 0 forward_v I I I I #
face $-1 $44 $45 $16 $-1 $46 reversed single #
loop $-1 $-1 $47 $21 #
plane-surface $-1 0 -29.186371710035154 3.1012698277644777 0 0 1 1 0 0 forward_v I I I I #
face $-1 $48 $49 $17 $-1 $50 forward single #
loop $-1 $-1 $51 $22 #
plane-surface $-1 25.772998282166597 85.839451826693107 96.275260939783223 1 0 0 0 -0.87461971476443456 -0.48480960649040278 forward_v I I I I #
face $-1 $52 $53 $18 $-1 $54 reversed single #
loop $-1 $55 $56 $23 #
cone-surface $-1 32.300612434804904 24.762664690235081 4.8572426178595007 0 -0.87461971476443456 -0.48480960649040278 0.5 0 0 1 I I 0 1 0.5 forward I I I I #
face $-1 $57 $58 $19 $-1 $59 reversed single #
loop $-1 $60 $61 $24 #
cone-surface $-1 42.092033663762351 24.762664690235081 4.8572426178595007 0 -0.87461971476443456 -0.48480960649040278 0.5 0 0 1 I I 0 1 0.5 forward I I I I #
face $-1 $62 $63 $15 $-1 $64 reversed single #
loop $-1 $-1 $65 $25 #
plane-surface $-1 0 0 -6.6703846850784192 0 0 1 1 0 0 forward_v I I I I #
coedge $-1 $66 $67 $68 $69 forward $26 $-1 #
face $-1 $70 $71 $16 $-1 $72 forward single #
loop $-1 $-1 $73 $28 #
plane-surface $-1 0 -32.302095021873264 4.8858272564214484 0 1 0 0 0 1 forward_v I I I I #
coedge $-1 $74 $75 $76 $77 forward $29 $-1 #
face $-1 $78 $79 $17 $-1 $80 forward single #
loop $-1 $-1 $81 $31 #
plane-surface $-1 37.19632304928362 0.7920468164379173 49.132716288640893 0 0.87461971476443456 0.48480960649040278 1 0 0 forward_v I I I I #
coedge $-1 $82 $83 $84 $85 reversed $32 $-1 #
face $-1 $86 $87 $18 $-1 $88 forward single #
loop $-1 $89 $90 $34 #
cone-surface $-1 32.300612434804904 24.106699904161754 4.4936354129916989 0 -0.87461971476443456 -0.48480960649040278 0.25 0 0 1 I I -0.70710678118654746 0.70710678118654746 0.25 forward I I I I #
loop $-1 $-1 $91 $23 #
coedge $-1 $56 $56 $92 $93 reversed $35 $-1 #
face $-1 $94 $95 $19 $-1 $96 reversed single #
loop $-1 $97 $98 $37 #
cone-surface $-1 42.092033663762351 24.106699904161754 4.4936354129916989 0 -0.87461971476443456 -0.48480960649040278 0.25 0 0 1 I I -0.70710678118654746 0.70710678118654746 0.25 forward I I I I #
loop $-1 $-1 $99 $24 #
coedge $-1 $61 $61 $100 $101 reversed $38 $-1 #
face $-1 $102 $103 $15 $-1 $104 reversed single #
loop $-1 $-1 $105 $40 #
plane-surface $-1 0 -26.070648398197047 0 0 1 0 0 0 1 forward_v I I I I #
coedge $-1 $106 $107 $108 $109 forward $41 $-1 #
coedge $-1 $110 $43 $111 $112 forward $26 $-1 #
coedge $-1 $43 $110 $113 $114 forward $26 $-1 #
coedge $-1 $115 $116 $43 $69 reversed $117 $-1 #
edge $-1 $118 -26.070648398197047 $119 26.070648398197047 $68 $120 forward 7 unknown #
face $-1 $121 $122 $16 $-1 $123 reversed single #
loop $-1 $-1 $124 $44 #
plane-surface $-1 0 0 6.6703846850784192 0 0 1 1 0 0 forward_v I I I I #
coedge $-1 $125 $126 $127 $128 forward $45 $-1 #
coedge $-1 $129 $47 $125 $130 forward $29 $-1 #
coedge $-1 $47 $129 $131 $132 reversed $29 $-1 #
coedge $-1 $133 $134 $47 $77 reversed $135 $-1 #
edge $-1 $136 -3.1157233118381065 $137 3.11572331183811 $76 $138 forward 7 unknown #
face $-1 $139 $140 $17 $-1 $141 reversed single #
loop $-1 $-1 $142 $48 #
plane-surface $-1 0 0 6.6703846850784192 0 0 1 1 0 0 forward_v I I I I #
coedge $-1 $143 $144 $142 $145 reversed $49 $-1 #
coedge $-1 $83 $51 $144 $146 forward $32 $-1 #
coedge $-1 $51 $82 $147 $148 reversed $32 $-1 #
coedge $-1 $149 $142 $51 $85 forward $79 $-1 #
edge $-1 $150 -18.590425216309022 $151 -16.849077515149506 $84 $152 forward 7 unknown #
face $-1 $153 $154 $18 $-1 $155 forward single #
loop $-1 $-1 $156 $52 #
plane-surface $-1 25.772998282166597 85.839451826693107 96.275260939783223 1 0 0 0 -0.87461971476443456 -0.48480960649040278 forward_v I I I I #
loop $-1 $-1 $157 $34 #
coedge $-1 $90 $90 $91 $158 forward $53 $-1 #
coedge $-1 $91 $91 $90 $158 reversed $55 $-1 #
coedge $-1 $92 $92 $56 $93 forward $154 $-1 #
edge $-1 $159 -1.350024067169941e-015 $159 6.2831853071795987 $92 $160 forward 7 unknown #
face $-1 $161 $162 $19 $-1 $163 reversed single #
loop $-1 $164 $165 $57 #
cone-surface $-1 32.300612434804904 24.762664690235081 4.8572426178595007 0 -0.87461971476443456 -0.48480960649040278 0.5 0 0 1 I I 0 1 0.5 forward I I I I #
loop $-1 $-1 $166 $37 #
coedge $-1 $98 $98 $99 $167 forward $58 $-1 #
coedge $-1 $99 $99 $98 $167 reversed $60 $-1 #
coedge $-1 $100 $100 $61 $101 forward $168 $-1 #
edge $-1 $169 -1.350024067169941e-015 $169 6.2831853071795987 $100 $170 forward 7 unknown #
face $-1 $171 $172 $15 $-1 $173 reversed single #
loop $-1 $-1 $174 $62 #
plane-surface $-1 -48.619647816400644 0 0 1 0 0 0 0 -1 forward_v I I I I #
coedge $-1 $175 $113 $176 $177 forward $63 $-1 #
coedge $-1 $178 $65 $175 $179 forward $41 $-1 #
coedge $-1 $65 $178 $180 $181 forward $41 $-1 #
coedge $-1 $116 $115 $65 $109 reversed $117 $-1 #
edge $-1 $182 -26.070648398197047 $183 26.070648398197047 $108 $184 forward 7 unknown #
coedge $-1 $67 $66 $185 $186 forward $26 $-1 #
coedge $-1 $187 $188 $66 $112 reversed $172 $-1 #
edge $-1 $119 -48.619647816400644 $189 48.619647816400644 $111 $190 forward 7 unknown #
coedge $-1 $105 $191 $67 $114 reversed $63 $-1 #
edge $-1 $192 -48.619647816400644 $118 48.619647816400644 $113 $193 forward 7 unknown #
coedge $-1 $108 $68 $191 $194 forward $117 $-1 #
coedge $-1 $68 $108 $187 $195 reversed $117 $-1 #
loop $-1 $-1 $115 $171 #
vertex $-1 $69 $196 #
vertex $-1 $69 $197 #
straight-curve $-1 48.619647816400644 0 6.6703846850784192 0 1 0 I I #
face $-1 $198 $199 $16 $-1 $200 reversed single #
loop $-1 $-1 $201 $70 #
plane-surface $-1 0 0 -6.6703846850784192 0 0 1 1 0 0 forward_v I I I I #
coedge $-1 $202 $203 $204 $205 forward $71 $-1 #
coedge $-1 $206 $73 $74 $130 reversed $45 $-1 #
coedge $-1 $73 $206 $203 $207 reversed $45 $-1 #
coedge $-1 $208 $209 $73 $128 reversed $210 $-1 #
edge $-1 $211 -1.7845574286569708 $212 1.7845574286569708 $127 $213 forward 7 unknown #
coedge $-1 $75 $74 $209 $214 forward $29 $-1 #
edge $-1 $137 -48.619647816400644 $212 48.619647816400644 $125 $215 forward 7 unknown #
coedge $-1 $216 $217 $75 $132 forward $199 $-1 #
edge $-1 $136 -48.619647816400644 $218 48.619647816400644 $131 $219 forward 7 unknown #
coedge $-1 $220 $76 $217 $221 forward $135 $-1 #
coedge $-1 $76 $204 $206 $222 forward $135 $-1 #
loop $-1 $-1 $133 $223 #
vertex $-1 $221 $224 #
vertex $-1 $222 $225 #
straight-curve $-1 48.619647816400644 -29.186371710035154 3.1012698277644777 0 -1 0 I I #
face $-1 $226 $227 $17 $-1 $228 reversed single #
loop $-1 $-1 $147 $78 #
plane-surface $-1 0 26.070648398197047 0 0 -1 0 0 0 -1 forward_v I I I I #
coedge $-1 $84 $229 $81 $145 forward $79 $-1 #
coedge $-1 $230 $81 $231 $232 reversed $49 $-1 #
coedge $-1 $81 $230 $82 $146 reversed $49 $-1 #
edge $-1 $233 -30.021486291758833 $150 -7.1748367575247869 $142 $234 forward 7 unknown #
edge $-1 $150 48.549479147058854 $235 52.141296796394123 $82 $236 forward 7 unknown #
coedge $-1 $237 $238 $83 $148 forward $140 $-1 #
edge $-1 $151 41.467245784813194 $235 44.608720312760667 $147 $239 forward 7 unknown #
coedge $-1 $240 $84 $238 $241 forward $79 $-1 #
vertex $-1 $145 $242 #
vertex $-1 $241 $243 #
straight-curve $-1 25.772998282166597 42.919725913346554 6.6703846850784174 0 1 0 I I #
face $-1 $244 $245 $18 $-1 $246 forward single #
loop $-1 $247 $92 $86 #
plane-surface $-1 37.19632304928362 0.7920468164379173 49.132716288640893 0 0.87461971476443456 0.48480960649040278 1 0 0 forward_v I I I I #
coedge $-1 $248 $249 $250 $251 reversed $87 $-1 #
coedge $-1 $157 $157 $-1 $252 forward $89 $-1 #
edge $-1 $253 0 $253 6.2831853071796004 $90 $254 forward 7 unknown #
vertex $-1 $93 $255 #
ellipse-curve $-1 32.300612434804904 25.199974547617284 5.0996474211046952 0 -0.87461971476443456 -0.48480960649040278 0.5 0 0 1 I I #
face $-1 $256 $257 $19 $-1 $258 forward single #
loop $-1 $259 $260 $94 #
cone-surface $-1 32.300612434804904 24.106699904161754 4.4936354129916989 0 -0.87461971476443456 -0.48480960649040278 0.25 0 0 1 I I -0.70710678118654746 0.70710678118654746 0.25 forward I I I I #
loop $-1 $-1 $261 $57 #
coedge $-1 $165 $165 $262 $263 reversed $95 $-1 #
coedge $-1 $166 $166 $-1 $264 forward $97 $-1 #
edge $-1 $265 0 $265 6.2831853071796004 $98 $266 forward 7 unknown #
loop $-1 $267 $100 $256 #
vertex $-1 $101 $268 #
ellipse-curve $-1 42.092033663762351 25.199974547617284 5.0996474211046952 0 -0.87461971476443456 -0.48480960649040278 0.5 0 0 1 I I #
face $-1 $-1 $117 $15 $-1 $269 reversed single #
loop $-1 $-1 $187 $102 #
plane-surface $-1 0 26.070648398197047 0 0 -1 0 0 0 -1 forward_v I I I I #
coedge $-1 $270 $185 $188 $271 forward $103 $-1 #
coedge $-1 $191 $105 $106 $179 reversed $63 $-1 #
coedge $-1 $185 $270 $105 $177 reversed $103 $-1 #
edge $-1 $192 -6.6703846850784192 $272 6.6703846850784192 $176 $273 forward 7 unknown #
coedge $-1 $107 $106 $270 $274 forward $41 $-1 #
edge $-1 $183 -48.619647816400644 $272 48.619647816400644 $175 $275 forward 7 unknown #
coedge $-1 $188 $187 $107 $181 reversed $172 $-1 #
edge $-1 $276 -48.619647816400644 $182 48.619647816400644 $180 $277 forward 7 unknown #
vertex $-1 $109 $278 #
vertex $-1 $194 $279 #
straight-curve $-1 48.619647816400644 0 -6.6703846850784192 0 -1 0 I I #
coedge $-1 $174 $176 $110 $186 reversed $103 $-1 #
edge $-1 $189 -26.070648398197047 $192 26.070648398197047 $185 $280 forward 7 unknown #
coedge $-1 $180 $111 $116 $195 forward $172 $-1 #
coedge $-1 $111 $180 $174 $271 reversed $172 $-1 #
vertex $-1 $112 $281 #
straight-curve $-1 0 26.070648398197047 6.6703846850784192 -1 0 0 I I #
coedge $-1 $113 $175 $115 $194 reversed $63 $-1 #
vertex $-1 $186 $282 #
straight-curve $-1 0 -26.070648398197047 6.6703846850784192 1 0 0 I I #
edge $-1 $118 -6.6703846850784192 $183 6.6703846850784192 $115 $283 forward 7 unknown #
edge $-1 $119 -6.6703846850784192 $182 6.6703846850784192 $116 $284 forward 7 unknown #
point $-1 48.619647816400644 -26.070648398197047 6.6703846850784192 #
point $-1 48.619647816400644 26.070648398197047 6.6703846850784192 #
face $-1 $285 $210 $16 $-1 $286 reversed single #
loop $-1 $-1 $131 $121 #
plane-surface $-1 0 -26.070648398197047 0 0 1 0 0 0 1 forward_v I I I I #
coedge $-1 $287 $288 $220 $289 forward $122 $-1 #
coedge $-1 $290 $124 $291 $292 forward $71 $-1 #
coedge $-1 $124 $290 $126 $207 forward $71 $-1 #
coedge $-1 $134 $293 $124 $205 reversed $135 $-1 #
edge $-1 $294 -32.302095021873264 $295 26.070648398197047 $204 $296 forward 7 unknown #
coedge $-1 $126 $125 $134 $222 reversed $45 $-1 #
edge $-1 $211 -48.619647816400644 $294 48.619647816400644 $126 $297 forward 7 unknown #
coedge $-1 $298 $127 $290 $299 reversed $210 $-1 #
coedge $-1 $127 $300 $129 $214 reversed $210 $-1 #
loop $-1 $-1 $298 $198 #
vertex $-1 $299 $301 #
vertex $-1 $214 $302 #
straight-curve $-1 -48.619647816400644 -32.302095021873264 4.8858272564214484 0 0 -1 I I #
edge $-1 $212 -3.11572331183811 $218 3.1157233118381065 $209 $303 forward 7 unknown #
straight-curve $-1 0 -32.302095021873264 3.1012698277644777 -1 0 0 I I #
coedge $-1 $304 $131 $300 $305 forward $199 $-1 #
coedge $-1 $131 $304 $133 $221 reversed $199 $-1 #
vertex $-1 $305 $306 #
straight-curve $-1 0 -26.070648398197047 3.1012698277644777 -1 0 0 I I #
coedge $-1 $293 $133 $201 $289 reversed $135 $-1 #
edge $-1 $136 -3.1012698277644777 $307 6.6703846850784192 $133 $308 forward 7 unknown #
edge $-1 $294 -1.7845574286569708 $137 1.7845574286569708 $134 $309 forward 7 unknown #
face $-1 $-1 $135 $16 $-1 $310 reversed single #
point $-1 48.619647816400644 -26.070648398197047 3.1012698277644777 #
point $-1 48.619647816400644 -32.302095021873264 3.1012698277644777 #
face $-1 $311 $312 $17 $-1 $313 reversed single #
loop $-1 $-1 $314 $139 #
plane-surface $-1 0 -29.186371710035154 3.1012698277644777 0 0 1 1 0 0 forward_v I I I I #
coedge $-1 $142 $315 $316 $317 forward $79 $-1 #
coedge $-1 $144 $143 $237 $318 reversed $49 $-1 #
coedge $-1 $316 $319 $143 $232 forward $320 $-1 #
edge $-1 $321 -30.847071596107249 $233 -27.25525394677198 $231 $322 forward 7 unknown #
vertex $-1 $232 $323 #
straight-curve $-1 18.59816152464181 24.329300697037539 6.6703846850784174 -1 0 0 I I #
vertex $-1 $318 $324 #
straight-curve $-1 25.772998282166597 0.7920468164379173 49.132716288640893 0 0.48480960649040278 -0.87461971476443456 I I #
coedge $-1 $325 $147 $230 $318 forward $140 $-1 #
coedge $-1 $147 $326 $149 $241 reversed $140 $-1 #
straight-curve $-1 25.772998282166597 26.070648398197047 48.137630469891612 0 0 -1 I I #
coedge $-1 $315 $149 $327 $328 forward $79 $-1 #
edge $-1 $151 -25.772998282166597 $329 48.619647816400644 $238 $330 forward 7 unknown #
point $-1 25.772998282166597 24.329300697037532 6.6703846850784174 #
point $-1 25.772998282166597 26.070648398197047 6.6703846850784192 #
face $-1 $331 $332 $18 $-1 $333 reversed single #
loop $-1 $-1 $334 $153 #
plane-surface $-1 0 0 6.6703846850784192 0 0 1 1 0 0 forward_v I I I I #
loop $-1 $-1 $335 $86 #
coedge $-1 $249 $156 $336 $337 forward $87 $-1 #
coedge $-1 $156 $248 $338 $339 reversed $87 $-1 #
coedge $-1 $340 $334 $156 $251 forward $245 $-1 #
edge $-1 $341 -18.590425216309022 $342 -16.849077515149506 $250 $343 forward 7 unknown #
edge $-1 $344 1 $344 0 $157 $-1 forward 7 unknown #
vertex $-1 $158 $345 #
ellipse-curve $-1 32.300612434804904 24.325354832852863 4.6148378146142992 0 0.87461971476443456 0.48480960649040278 0.5 0 0 1 I I #
point $-1 32.800612434804904 25.199974547617298 5.0996474211047023 #
face $-1 $346 $168 $19 $-1 $347 forward single #
loop $-1 $-1 $348 $161 #
plane-surface $-1 25.772998282166597 85.839451826693107 96.275260939783223 1 0 0 0 -0.87461971476443456 -0.48480960649040278 forward_v I I I I #
loop $-1 $-1 $349 $94 #
coedge $-1 $260 $260 $261 $350 forward $162 $-1 #
coedge $-1 $261 $261 $260 $350 reversed $164 $-1 #
coedge $-1 $262 $262 $165 $263 forward $267 $-1 #
edge $-1 $351 -1.350024067169941e-015 $351 6.2831853071795987 $262 $352 forward 7 unknown #
edge $-1 $353 1 $353 0 $166 $-1 forward 7 unknown #
vertex $-1 $167 $354 #
ellipse-curve $-1 42.092033663762351 24.325354832852863 4.6148378146142992 0 0.87461971476443456 0.48480960649040278 0.5 0 0 1 I I #
loop $-1 $355 $262 $256 #
point $-1 42.592033663762351 25.199974547617298 5.0996474211047023 #
plane-surface $-1 48.619647816400644 0 0 -1 0 0 0 0 1 forward_v I I I I #
coedge $-1 $176 $174 $178 $274 reversed $103 $-1 #
edge $-1 $189 -6.6703846850784192 $276 6.6703846850784192 $188 $356 forward 7 unknown #
vertex $-1 $274 $357 #
straight-curve $-1 -48.619647816400644 -26.070648398197047 0 0 0 -1 I I #
edge $-1 $272 -26.070648398197047 $276 26.070648398197047 $270 $358 forward 7 unknown #
straight-curve $-1 0 -26.070648398197047 -6.6703846850784192 -1 0 0 I I #
vertex $-1 $181 $359 #
straight-curve $-1 0 26.070648398197047 -6.6703846850784192 1 0 0 I I #
point $-1 48.619647816400644 26.070648398197047 -6.6703846850784192 #
point $-1 48.619647816400644 -26.070648398197047 -6.6703846850784192 #
straight-curve $-1 -48.619647816400644 0 6.6703846850784192 0 -1 0 I I #
point $-1 -48.619647816400644 26.070648398197047 6.6703846850784192 #
point $-1 -48.619647816400644 -26.070648398197047 6.6703846850784192 #
straight-curve $-1 48.619647816400644 -26.070648398197047 0 0 0 -1 I I #
straight-curve $-1 48.619647816400644 26.070648398197047 0 0 0 -1 I I #
face $-1 $223 $360 $16 $-1 $361 reversed single #
plane-surface $-1 -48.619647816400644 0 0 1 0 0 0 0 -1 forward_v I I I I #
coedge $-1 $362 $201 $304 $363 forward $122 $-1 #
coedge $-1 $201 $362 $364 $365 forward $122 $-1 #
edge $-1 $366 -26.070648398197047 $307 26.070648398197047 $220 $367 forward 7 unknown #
coedge $-1 $203 $202 $208 $299 forward $71 $-1 #
coedge $-1 $368 $369 $202 $292 reversed $360 $-1 #
edge $-1 $295 -48.619647816400644 $370 48.619647816400644 $291 $371 forward 7 unknown #
coedge $-1 $204 $220 $368 $372 reversed $135 $-1 #
vertex $-1 $205 $373 #
vertex $-1 $205 $374 #
straight-curve $-1 48.619647816400644 0 6.6703846850784192 0 1 0 I I #
straight-curve $-1 0 -32.302095021873264 6.6703846850784192 1 0 0 I I #
coedge $-1 $375 $208 $369 $376 forward $210 $-1 #
edge $-1 $370 -26.070648398197047 $211 32.302095021873264 $208 $377 forward 7 unknown #
coedge $-1 $209 $375 $216 $305 reversed $210 $-1 #
point $-1 -48.619647816400644 -32.302095021873264 6.6703846850784192 #
point $-1 -48.619647816400644 -32.302095021873264 3.1012698277644777 #
straight-curve $-1 -48.619647816400644 -29.186371710035154 3.1012698277644777 0 1 0 I I #
coedge $-1 $217 $216 $287 $363 reversed $199 $-1 #
edge $-1 $218 -3.1012698277644777 $378 6.6703846850784192 $300 $379 forward 7 unknown #
point $-1 -48.619647816400644 -26.070648398197047 3.1012698277644777 #
vertex $-1 $221 $380 #
straight-curve $-1 48.619647816400644 -26.070648398197047 0 0 0 -1 I I #
straight-curve $-1 48.619647816400644 -32.302095021873264 4.8858272564214484 0 0 -1 I I #
plane-surface $-1 48.619647816400644 0 0 -1 0 0 0 0 1 forward_v I I I I #
face $-1 $381 $382 $17 $-1 $383 reversed single #
loop $-1 $-1 $384 $226 #
plane-surface $-1 0 -32.302095021873264 4.8858272564214484 0 1 0 0 0 1 forward_v I I I I #
coedge $-1 $385 $386 $387 $388 forward $227 $-1 #
coedge $-1 $229 $240 $389 $390 forward $79 $-1 #
coedge $-1 $391 $231 $229 $317 reversed $320 $-1 #
edge $-1 $392 -32.302095021873264 $233 24.329300697037532 $316 $393 forward 7 unknown #
edge $-1 $235 7.1748367575247869 $321 30.021486291758833 $237 $394 forward 7 unknown #
coedge $-1 $231 $395 $325 $396 reversed $320 $-1 #
loop $-1 $-1 $231 $397 #
vertex $-1 $396 $398 #
straight-curve $-1 48.619647816400644 11.115691756307013 30.508367117836357 0 -0.48480960649040278 0.87461971476443456 I I #
point $-1 48.619647816400644 24.329300697037532 6.6703846850784174 #
point $-1 25.772998282166597 26.070648398197047 3.5289101571309445 #
coedge $-1 $399 $237 $319 $396 forward $140 $-1 #
coedge $-1 $238 $399 $400 $401 reversed $140 $-1 #
coedge $-1 $400 $402 $240 $328 reversed $403 $-1 #
edge $-1 $329 -26.070648398197047 $404 32.302095021873264 $327 $405 forward 7 unknown #
vertex $-1 $241 $406 #
straight-curve $-1 0 26.070648398197047 6.6703846850784192 -1 0 0 I I #
face $-1 $407 $408 $18 $-1 $409 reversed single #
loop $-1 $-1 $338 $244 #
plane-surface $-1 0 26.070648398197047 0 0 -1 0 0 0 -1 forward_v I I I I #
coedge $-1 $250 $410 $335 $411 forward $245 $-1 #
coedge $-1 $412 $336 $334 $411 reversed $247 $-1 #
coedge $-1 $335 $413 $248 $337 reversed $247 $-1 #
edge $-1 $341 48.549479147058854 $414 52.141296796394123 $248 $415 forward 7 unknown #
coedge $-1 $416 $417 $249 $339 forward $332 $-1 #
edge $-1 $342 41.467245784813194 $414 44.608720312760667 $338 $418 forward 7 unknown #
coedge $-1 $419 $250 $417 $420 forward $245 $-1 #
vertex $-1 $411 $421 #
vertex $-1 $420 $422 #
straight-curve $-1 25.772998282166597 42.919725913346554 6.6703846850784174 0 1 0 I I #
vertex $-1 $252 $423 #
point $-1 32.800612434804904 24.325354832852863 4.6148378146142992 #
face $-1 $424 $425 $19 $-1 $426 forward single #
plane-surface $-1 37.19632304928362 0.7920468164379173 49.132716288640893 0 0.87461971476443456 0.48480960649040278 1 0 0 forward_v I I I I #
coedge $-1 $427 $428 $429 $430 reversed $257 $-1 #
coedge $-1 $349 $349 $-1 $431 forward $259 $-1 #
edge $-1 $432 0 $432 6.2831853071796004 $260 $433 forward 7 unknown #
vertex $-1 $263 $434 #
ellipse-curve $-1 32.300612434804904 25.199974547617284 5.0996474211046952 0 -0.87461971476443456 -0.48480960649040278 0.5 0 0 1 I I #
vertex $-1 $264 $435 #
point $-1 42.592033663762351 24.325354832852863 4.6148378146142992 #
loop $-1 $-1 $436 $256 #
straight-curve $-1 -48.619647816400644 26.070648398197047 0 0 0 -1 I I #
point $-1 -48.619647816400644 -26.070648398197047 -6.6703846850784192 #
straight-curve $-1 -48.619647816400644 0 -6.6703846850784192 0 1 0 I I #
point $-1 -48.619647816400644 26.070648398197047 -6.6703846850784192 #
loop $-1 $-1 $368 $285 #
plane-surface $-1 0 26.070648398197047 0 0 -1 0 0 0 -1 forward_v I I I I #
coedge $-1 $288 $287 $375 $437 forward $122 $-1 #
edge $-1 $307 -48.619647816400644 $378 48.619647816400644 $304 $438 forward 7 unknown #
coedge $-1 $369 $368 $288 $365 reversed $360 $-1 #
edge $-1 $439 -48.619647816400644 $366 48.619647816400644 $364 $440 forward 7 unknown #
vertex $-1 $289 $441 #
straight-curve $-1 48.619647816400644 0 -6.6703846850784192 0 -1 0 I I #
coedge $-1 $364 $291 $293 $372 forward $360 $-1 #
coedge $-1 $291 $364 $298 $376 reversed $360 $-1 #
vertex $-1 $292 $442 #
straight-curve $-1 0 26.070648398197047 6.6703846850784192 -1 0 0 I I #
edge $-1 $295 -6.6703846850784192 $366 6.6703846850784192 $293 $443 forward 7 unknown #
point $-1 48.619647816400644 -32.302095021873264 6.6703846850784192 #
point $-1 48.619647816400644 26.070648398197047 6.6703846850784192 #
coedge $-1 $300 $298 $362 $437 reversed $210 $-1 #
edge $-1 $370 -6.6703846850784192 $439 6.6703846850784192 $369 $444 forward 7 unknown #
straight-curve $-1 -48.619647816400644 0 6.6703846850784192 0 -1 0 I I #
vertex $-1 $437 $445 #
straight-curve $-1 -48.619647816400644 -26.070648398197047 0 0 0 -1 I I #
point $-1 48.619647816400644 -26.070648398197047 -6.6703846850784192 #
face $-1 $446 $447 $17 $-1 $448 reversed single #
loop $-1 $-1 $449 $311 #
plane-surface $-1 0 0 -6.6703846850784192 0 0 1 1 0 0 forward_v I I I I #
coedge $-1 $450 $389 $402 $451 forward $312 $-1 #
coedge $-1 $452 $314 $450 $453 forward $227 $-1 #
coedge $-1 $314 $452 $454 $455 reversed $227 $-1 #
coedge $-1 $456 $391 $314 $388 reversed $320 $-1 #
edge $-1 $457 -3.1157233118381065 $458 3.11572331183811 $387 $459 forward 7 unknown #
coedge $-1 $384 $460 $315 $390 reversed $312 $-1 #
edge $-1 $404 -48.619647816400644 $392 48.619647816400644 $389 $461 forward 7 unknown #
coedge $-1 $387 $316 $460 $462 forward $320 $-1 #
vertex $-1 $317 $463 #
straight-curve $-1 48.619647816400644 0 6.6703846850784192 0 1 0 I I #
straight-curve $-1 18.59816152464181 26.070648398197047 3.528910157130948 1 0 0 I I #
coedge $-1 $319 $456 $449 $464 reversed $320 $-1 #
edge $-1 $321 -3.5289101571309445 $465 6.6703846850784192 $319 $466 forward 7 unknown #
face $-1 $-1 $320 $17 $-1 $467 reversed single #
point $-1 48.619647816400644 26.070648398197047 3.5289101571309445 #
coedge $-1 $326 $325 $468 $469 reversed $140 $-1 #
coedge $-1 $470 $327 $326 $401 forward $403 $-1 #
edge $-1 $329 -6.6703846850784192 $471 6.6703846850784192 $326 $472 forward 7 unknown #
coedge $-1 $327 $473 $384 $451 reversed $403 $-1 #
loop $-1 $-1 $400 $446 #
vertex $-1 $328 $474 #
straight-curve $-1 -48.619647816400644 0 6.6703846850784192 0 -1 0 I I #
point $-1 -48.619647816400644 26.070648398197047 6.6703846850784192 #
face $-1 $475 $476 $18 $-1 $477 reversed single #
loop $-1 $-1 $478 $331 #
plane-surface $-1 0 -29.186371710035154 3.1012698277644777 0 0 1 1 0 0 forward_v I I I I #
coedge $-1 $334 $479 $480 $481 forward $245 $-1 #
edge $-1 $482 -30.021486291758833 $341 -7.1748367575247869 $334 $483 forward 7 unknown #
coedge $-1 $413 $335 $484 $485 reversed $247 $-1 #
coedge $-1 $336 $412 $416 $486 reversed $247 $-1 #
vertex $-1 $486 $487 #
straight-curve $-1 25.772998282166597 0.7920468164379173 49.132716288640893 0 0.48480960649040278 -0.87461971476443456 I I #
coedge $-1 $488 $338 $413 $486 forward $332 $-1 #
coedge $-1 $338 $489 $340 $420 reversed $332 $-1 #
straight-curve $-1 25.772998282166597 26.070648398197047 48.137630469891612 0 0 -1 I I #
coedge $-1 $479 $340 $490 $491 forward $245 $-1 #
edge $-1 $342 -25.772998282166597 $492 48.619647816400644 $417 $493 forward 7 unknown #
point $-1 25.772998282166597 24.329300697037532 6.6703846850784174 #
point $-1 25.772998282166597 26.070648398197047 6.6703846850784192 #
point $-1 32.300612434804904 23.888044975470645 4.3724330113690986 #
face $-1 $494 $495 $19 $-1 $496 reversed single #
loop $-1 $-1 $497 $346 #
plane-surface $-1 0 0 6.6703846850784192 0 0 1 1 0 0 forward_v I I I I #
coedge $-1 $428 $348 $498 $499 forward $257 $-1 #
coedge $-1 $348 $427 $500 $501 reversed $257 $-1 #
coedge $-1 $502 $497 $348 $430 forward $425 $-1 #
edge $-1 $503 -18.590425216309022 $504 -16.849077515149506 $429 $505 forward 7 unknown #
edge $-1 $506 1 $506 0 $349 $-1 forward 7 unknown #
vertex $-1 $350 $507 #
ellipse-curve $-1 32.300612434804904 24.325354832852863 4.6148378146142992 0 0.87461971476443456 0.48480960649040278 0.5 0 0 1 I I #
point $-1 32.800612434804904 25.199974547617298 5.0996474211047023 #
point $-1 42.092033663762351 23.888044975470645 4.3724330113690986 #
coedge $-1 $508 $498 $497 $509 reversed $355 $-1 #
edge $-1 $378 -26.070648398197047 $439 26.070648398197047 $375 $510 forward 7 unknown #
straight-curve $-1 0 -26.070648398197047 -6.6703846850784192 -1 0 0 I I #
vertex $-1 $365 $511 #
straight-curve $-1 0 26.070648398197047 -6.6703846850784192 1 0 0 I I #
point $-1 48.619647816400644 26.070648398197047 -6.6703846850784192 #
point $-1 -48.619647816400644 26.070648398197047 6.6703846850784192 #
straight-curve $-1 48.619647816400644 26.070648398197047 0 0 0 -1 I I #
straight-curve $-1 -48.619647816400644 26.070648398197047 0 0 0 -1 I I #
point $-1 -48.619647816400644 -26.070648398197047 -6.6703846850784192 #
face $-1 $397 $403 $17 $-1 $512 reversed single #
loop $-1 $-1 $454 $381 #
plane-surface $-1 0 -26.070648398197047 0 0 1 0 0 0 1 forward_v I I I I #
coedge $-1 $513 $468 $395 $464 forward $382 $-1 #
coedge $-1 $460 $384 $385 $453 reversed $312 $-1 #
edge $-1 $404 -1.7845574286569708 $514 1.7845574286569708 $402 $515 forward 7 unknown #
coedge $-1 $386 $385 $473 $516 forward $227 $-1 #
edge $-1 $458 -48.619647816400644 $514 48.619647816400644 $450 $517 forward 7 unknown #
coedge $-1 $518 $519 $386 $455 forward $447 $-1 #
edge $-1 $457 -48.619647816400644 $520 48.619647816400644 $454 $521 forward 7 unknown #
coedge $-1 $395 $387 $519 $522 forward $320 $-1 #
vertex $-1 $522 $523 #
vertex $-1 $462 $524 #
straight-curve $-1 48.619647816400644 -29.186371710035154 3.1012698277644777 0 -1 0 I I #
coedge $-1 $389 $450 $391 $462 reversed $312 $-1 #
straight-curve $-1 0 -32.302095021873264 6.6703846850784192 1 0 0 I I #
edge $-1 $392 -1.7845574286569708 $458 1.7845574286569708 $391 $525 forward 7 unknown #
point $-1 48.619647816400644 -32.302095021873264 6.6703846850784192 #
edge $-1 $465 -26.070648398197047 $526 26.070648398197047 $395 $527 forward 7 unknown #
vertex $-1 $464 $528 #
straight-curve $-1 48.619647816400644 26.070648398197047 0 0 0 -1 I I #
plane-surface $-1 48.619647816400644 0 0 -1 0 0 0 0 1 forward_v I I I I #
coedge $-1 $449 $529 $399 $469 forward $382 $-1 #
edge $-1 $471 -48.619647816400644 $465 48.619647816400644 $399 $530 forward 7 unknown #
coedge $-1 $531 $400 $529 $532 reversed $403 $-1 #
vertex $-1 $469 $533 #
straight-curve $-1 -48.619647816400644 26.070648398197047 0 0 0 -1 I I #
coedge $-1 $402 $531 $452 $516 reversed $403 $-1 #
point $-1 -48.619647816400644 -32.302095021873264 6.6703846850784192 #
face $-1 $534 $535 $18 $-1 $536 reversed single #
loop $-1 $-1 $537 $407 #
plane-surface $-1 0 -32.302095021873264 4.8858272564214484 0 1 0 0 0 1 forward_v I I I I #
coedge $-1 $538 $539 $540 $541 forward $408 $-1 #
coedge $-1 $410 $419 $542 $543 forward $245 $-1 #
coedge $-1 $544 $484 $410 $481 reversed $545 $-1 #
edge $-1 $546 -32.302095021873264 $482 24.329300697037532 $480 $547 forward 7 unknown #
vertex $-1 $485 $548 #
straight-curve $-1 18.59816152464181 24.329300697037539 6.6703846850784174 -1 0 0 I I #
coedge $-1 $480 $549 $412 $485 forward $545 $-1 #
edge $-1 $550 -30.847071596107249 $482 -27.25525394677198 $484 $551 forward 7 unknown #
edge $-1 $414 7.1748367575247869 $550 30.021486291758833 $416 $552 forward 7 unknown #
point $-1 25.772998282166597 26.070648398197047 3.5289101571309445 #
coedge $-1 $553 $416 $549 $554 forward $332 $-1 #
coedge $-1 $417 $553 $555 $556 reversed $332 $-1 #
coedge $-1 $555 $557 $419 $491 reversed $558 $-1 #
edge $-1 $492 -26.070648398197047 $559 32.302095021873264 $490 $560 forward 7 unknown #
vertex $-1 $420 $561 #
straight-curve $-1 0 26.070648398197047 6.6703846850784192 -1 0 0 I I #
face $-1 $562 $563 $19 $-1 $564 reversed single #
loop $-1 $-1 $500 $424 #
plane-surface $-1 0 26.070648398197047 0 0 -1 0 0 0 -1 forward_v I I I I #
coedge $-1 $429 $565 $436 $509 forward $425 $-1 #
coedge $-1 $436 $566 $427 $499 reversed $355 $-1 #
edge $-1 $503 48.549479147058854 $567 52.141296796394123 $427 $568 forward 7 unknown #
coedge $-1 $569 $570 $428 $501 forward $495 $-1 #
edge $-1 $504 41.467245784813194 $567 44.608720312760667 $500 $571 forward 7 unknown #
coedge $-1 $572 $429 $570 $573 forward $425 $-1 #
vertex $-1 $509 $574 #
vertex $-1 $573 $575 #
straight-curve $-1 25.772998282166597 42.919725913346554 6.6703846850784174 0 1 0 I I #
vertex $-1 $431 $576 #
point $-1 32.800612434804904 24.325354832852863 4.6148378146142992 #
coedge $-1 $566 $436 $577 $578 reversed $355 $-1 #
edge $-1 $579 -30.021486291758833 $503 -7.1748367575247869 $497 $580 forward 7 unknown #
straight-curve $-1 -48.619647816400644 0 -6.6703846850784192 0 1 0 I I #
point $-1 -48.619647816400644 26.070648398197047 -6.6703846850784192 #
plane-surface $-1 -48.619647816400644 0 0 1 0 0 0 0 -1 forward_v I I I I #
coedge $-1 $529 $449 $581 $582 forward $382 $-1 #
vertex $-1 $516 $583 #
straight-curve $-1 -48.619647816400644 -32.302095021873264 4.8858272564214484 0 0 -1 I I #
edge $-1 $514 -3.11572331183811 $520 3.1157233118381065 $473 $584 forward 7 unknown #
straight-curve $-1 0 -32.302095021873264 3.1012698277644777 -1 0 0 I I #
coedge $-1 $581 $454 $531 $585 forward $447 $-1 #
coedge $-1 $454 $581 $456 $522 reversed $447 $-1 #
vertex $-1 $585 $586 #
straight-curve $-1 0 -26.070648398197047 3.1012698277644777 -1 0 0 I I #
edge $-1 $457 -3.1012698277644777 $526 6.6703846850784192 $456 $587 forward 7 unknown #
point $-1 48.619647816400644 -26.070648398197047 3.1012698277644777 #
point $-1 48.619647816400644 -32.302095021873264 3.1012698277644777 #
straight-curve $-1 48.619647816400644 -32.302095021873264 4.8858272564214484 0 0 -1 I I #
vertex $-1 $522 $588 #
straight-curve $-1 48.619647816400644 0 -6.6703846850784192 0 -1 0 I I #
point $-1 48.619647816400644 26.070648398197047 -6.6703846850784192 #
coedge $-1 $468 $513 $470 $532 forward $382 $-1 #
straight-curve $-1 0 26.070648398197047 -6.6703846850784192 1 0 0 I I #
coedge $-1 $473 $470 $518 $585 reversed $403 $-1 #
edge $-1 $589 -26.070648398197047 $471 26.070648398197047 $470 $590 forward 7 unknown #
point $-1 -48.619647816400644 26.070648398197047 -6.6703846850784192 #
face $-1 $591 $592 $18 $-1 $593 reversed single #
loop $-1 $-1 $594 $475 #
plane-surface $-1 0 0 -6.6703846850784192 0 0 1 1 0 0 forward_v I I I I #
coedge $-1 $595 $542 $557 $596 forward $476 $-1 #
coedge $-1 $597 $478 $595 $598 forward $408 $-1 #
coedge $-1 $478 $597 $599 $600 reversed $408 $-1 #
coedge $-1 $601 $544 $478 $541 reversed $545 $-1 #
edge $-1 $602 -3.1157233118381065 $603 3.11572331183811 $540 $604 forward 7 unknown #
coedge $-1 $537 $605 $479 $543 reversed $476 $-1 #
edge $-1 $559 -48.619647816400644 $546 48.619647816400644 $542 $606 forward 7 unknown #
coedge $-1 $540 $480 $605 $607 forward $545 $-1 #
loop $-1 $-1 $484 $608 #
vertex $-1 $481 $609 #
straight-curve $-1 48.619647816400644 0 6.6703846850784192 0 1 0 I I #
point $-1 48.619647816400644 24.329300697037532 6.6703846850784174 #
coedge $-1 $484 $610 $488 $554 reversed $545 $-1 #
vertex $-1 $554 $611 #
straight-curve $-1 48.619647816400644 11.115691756307013 30.508367117836357 0 -0.48480960649040278 0.87461971476443456 I I #
straight-curve $-1 18.59816152464181 26.070648398197047 3.528910157130948 1 0 0 I I #
coedge $-1 $489 $488 $612 $613 reversed $332 $-1 #
edge $-1 $550 -3.5289101571309445 $614 6.6703846850784192 $549 $615 forward 7 unknown #
coedge $-1 $616 $490 $489 $556 forward $558 $-1 #
edge $-1 $492 -6.6703846850784192 $617 6.6703846850784192 $489 $618 forward 7 unknown #
coedge $-1 $490 $619 $537 $596 reversed $558 $-1 #
loop $-1 $-1 $555 $591 #
vertex $-1 $491 $620 #
straight-curve $-1 -48.619647816400644 0 6.6703846850784192 0 -1 0 I I #
point $-1 -48.619647816400644 26.070648398197047 6.6703846850784192 #
face $-1 $621 $622 $19 $-1 $623 reversed single #
loop $-1 $-1 $624 $494 #
plane-surface $-1 0 -29.186371710035154 3.1012698277644777 0 0 1 1 0 0 forward_v I I I I #
coedge $-1 $497 $625 $626 $627 forward $425 $-1 #
coedge $-1 $498 $508 $569 $628 reversed $355 $-1 #
vertex $-1 $628 $629 #
straight-curve $-1 25.772998282166597 0.7920468164379173 49.132716288640893 0 0.48480960649040278 -0.87461971476443456 I I #
coedge $-1 $630 $500 $566 $628 forward $495 $-1 #
coedge $-1 $500 $631 $502 $573 reversed $495 $-1 #
straight-curve $-1 25.772998282166597 26.070648398197047 48.137630469891612 0 0 -1 I I #
coedge $-1 $625 $502 $632 $633 forward $425 $-1 #
edge $-1 $504 -25.772998282166597 $634 48.619647816400644 $570 $635 forward 7 unknown #
point $-1 25.772998282166597 24.329300697037532 6.6703846850784174 #
point $-1 25.772998282166597 26.070648398197047 6.6703846850784192 #
point $-1 32.300612434804904 23.888044975470645 4.3724330113690986 #
coedge $-1 $626 $636 $508 $578 forward $637 $-1 #
edge $-1 $638 -30.847071596107249 $579 -27.25525394677198 $577 $639 forward 7 unknown #
vertex $-1 $578 $640 #
straight-curve $-1 18.59816152464181 24.329300697037539 6.6703846850784174 -1 0 0 I I #
coedge $-1 $519 $518 $513 $582 reversed $447 $-1 #
edge $-1 $526 -48.619647816400644 $589 48.619647816400644 $581 $641 forward 7 unknown #
point $-1 -48.619647816400644 -32.302095021873264 3.1012698277644777 #
straight-curve $-1 -48.619647816400644 -29.186371710035154 3.1012698277644777 0 1 0 I I #
edge $-1 $520 -3.1012698277644777 $589 6.6703846850784192 $531 $642 forward 7 unknown #
point $-1 -48.619647816400644 -26.070648398197047 3.1012698277644777 #
straight-curve $-1 48.619647816400644 -26.070648398197047 0 0 0 -1 I I #
point $-1 48.619647816400644 -26.070648398197047 -6.6703846850784192 #
vertex $-1 $532 $643 #
straight-curve $-1 -48.619647816400644 0 -6.6703846850784192 0 1 0 I I #
face $-1 $608 $558 $18 $-1 $644 reversed single #
loop $-1 $-1 $599 $534 #
plane-surface $-1 0 -26.070648398197047 0 0 1 0 0 0 1 forward_v I I I I #
coedge $-1 $645 $612 $610 $646 forward $535 $-1 #
coedge $-1 $605 $537 $538 $598 reversed $476 $-1 #
edge $-1 $559 -1.7845574286569708 $647 1.7845574286569708 $557 $648 forward 7 unknown #
coedge $-1 $539 $538 $619 $649 forward $408 $-1 #
edge $-1 $603 -48.619647816400644 $647 48.619647816400644 $595 $650 forward 7 unknown #
coedge $-1 $651 $652 $539 $600 forward $592 $-1 #
edge $-1 $602 -48.619647816400644 $653 48.619647816400644 $599 $654 forward 7 unknown #
coedge $-1 $610 $540 $652 $655 forward $545 $-1 #
vertex $-1 $655 $656 #
vertex $-1 $607 $657 #
straight-curve $-1 48.619647816400644 -29.186371710035154 3.1012698277644777 0 -1 0 I I #
coedge $-1 $542 $595 $544 $607 reversed $476 $-1 #
straight-curve $-1 0 -32.302095021873264 6.6703846850784192 1 0 0 I I #
edge $-1 $546 -1.7845574286569708 $603 1.7845574286569708 $544 $658 forward 7 unknown #
face $-1 $-1 $545 $18 $-1 $659 reversed single #
point $-1 48.619647816400644 -32.302095021873264 6.6703846850784192 #
coedge $-1 $549 $601 $594 $646 reversed $545 $-1 #
point $-1 48.619647816400644 26.070648398197047 3.5289101571309445 #
coedge $-1 $594 $660 $553 $613 forward $535 $-1 #
edge $-1 $617 -48.619647816400644 $614 48.619647816400644 $553 $661 forward 7 unknown #
vertex $-1 $646 $662 #
straight-curve $-1 48.619647816400644 26.070648398197047 0 0 0 -1 I I #
coedge $-1 $663 $555 $660 $664 reversed $558 $-1 #
vertex $-1 $613 $665 #
straight-curve $-1 -48.619647816400644 26.070648398197047 0 0 0 -1 I I #
coedge $-1 $557 $663 $597 $649 reversed $558 $-1 #
point $-1 -48.619647816400644 -32.302095021873264 6.6703846850784192 #
face $-1 $666 $667 $19 $-1 $668 reversed single #
loop $-1 $-1 $669 $562 #
plane-surface $-1 0 -32.302095021873264 4.8858272564214484 0 1 0 0 0 1 forward_v I I I I #
coedge $-1 $670 $671 $672 $673 forward $563 $-1 #
coedge $-1 $565 $572 $674 $675 forward $425 $-1 #
coedge $-1 $676 $577 $565 $627 reversed $637 $-1 #
edge $-1 $677 -32.302095021873264 $579 24.329300697037532 $626 $678 forward 7 unknown #
edge $-1 $567 7.1748367575247869 $638 30.021486291758833 $569 $679 forward 7 unknown #
point $-1 25.772998282166597 26.070648398197047 3.5289101571309445 #
coedge $-1 $680 $569 $636 $681 forward $495 $-1 #
coedge $-1 $570 $680 $682 $683 reversed $495 $-1 #
coedge $-1 $682 $684 $572 $633 reversed $685 $-1 #
edge $-1 $634 -26.070648398197047 $686 32.302095021873264 $632 $687 forward 7 unknown #
vertex $-1 $573 $688 #
straight-curve $-1 0 26.070648398197047 6.6703846850784192 -1 0 0 I I #
coedge $-1 $577 $689 $630 $681 reversed $637 $-1 #
loop $-1 $-1 $577 $690 #
vertex $-1 $681 $691 #
straight-curve $-1 48.619647816400644 11.115691756307013 30.508367117836357 0 -0.48480960649040278 0.87461971476443456 I I #
point $-1 48.619647816400644 24.329300697037532 6.6703846850784174 #
straight-curve $-1 0 -26.070648398197047 -6.6703846850784192 -1 0 0 I I #
straight-curve $-1 -48.619647816400644 -26.070648398197047 0 0 0 -1 I I #
point $-1 -48.619647816400644 -26.070648398197047 -6.6703846850784192 #
plane-surface $-1 -48.619647816400644 0 0 1 0 0 0 0 -1 forward_v I I I I #
coedge $-1 $660 $594 $692 $693 forward $535 $-1 #
edge $-1 $614 -26.070648398197047 $694 26.070648398197047 $610 $695 forward 7 unknown #
vertex $-1 $649 $696 #
straight-curve $-1 -48.619647816400644 -32.302095021873264 4.8858272564214484 0 0 -1 I I #
edge $-1 $647 -3.11572331183811 $653 3.1157233118381065 $619 $697 forward 7 unknown #
straight-curve $-1 0 -32.302095021873264 3.1012698277644777 -1 0 0 I I #
coedge $-1 $692 $599 $663 $698 forward $592 $-1 #
coedge $-1 $599 $692 $601 $655 reversed $592 $-1 #
vertex $-1 $698 $699 #
straight-curve $-1 0 -26.070648398197047 3.1012698277644777 -1 0 0 I I #
edge $-1 $602 -3.1012698277644777 $694 6.6703846850784192 $601 $700 forward 7 unknown #
point $-1 48.619647816400644 -26.070648398197047 3.1012698277644777 #
point $-1 48.619647816400644 -32.302095021873264 3.1012698277644777 #
straight-curve $-1 48.619647816400644 -32.302095021873264 4.8858272564214484 0 0 -1 I I #
plane-surface $-1 48.619647816400644 0 0 -1 0 0 0 0 1 forward_v I I I I #
coedge $-1 $612 $645 $616 $664 forward $535 $-1 #
straight-curve $-1 0 26.070648398197047 -6.6703846850784192 1 0 0 I I #
point $-1 48.619647816400644 26.070648398197047 -6.6703846850784192 #
coedge $-1 $619 $616 $651 $698 reversed $558 $-1 #
edge $-1 $701 -26.070648398197047 $617 26.070648398197047 $616 $702 forward 7 unknown #
point $-1 -48.619647816400644 26.070648398197047 -6.6703846850784192 #
face $-1 $703 $704 $19 $-1 $705 reversed single #
loop $-1 $-1 $706 $621 #
plane-surface $-1 0 0 -6.6703846850784192 0 0 1 1 0 0 forward_v I I I I #
coedge $-1 $707 $674 $684 $708 forward $622 $-1 #
coedge $-1 $709 $624 $707 $710 forward $563 $-1 #
coedge $-1 $624 $709 $711 $712 reversed $563 $-1 #
coedge $-1 $713 $676 $624 $673 reversed $637 $-1 #
edge $-1 $714 -3.1157233118381065 $715 3.11572331183811 $672 $716 forward 7 unknown #
coedge $-1 $669 $717 $625 $675 reversed $622 $-1 #
edge $-1 $686 -48.619647816400644 $677 48.619647816400644 $674 $718 forward 7 unknown #
coedge $-1 $672 $626 $717 $719 forward $637 $-1 #
vertex $-1 $627 $720 #
straight-curve $-1 48.619647816400644 0 6.6703846850784192 0 1 0 I I #
straight-curve $-1 18.59816152464181 26.070648398197047 3.528910157130948 1 0 0 I I #
coedge $-1 $631 $630 $721 $722 reversed $495 $-1 #
edge $-1 $638 -3.5289101571309445 $723 6.6703846850784192 $636 $724 forward 7 unknown #
coedge $-1 $725 $632 $631 $683 forward $685 $-1 #
edge $-1 $634 -6.6703846850784192 $726 6.6703846850784192 $631 $727 forward 7 unknown #
coedge $-1 $632 $728 $669 $708 reversed $685 $-1 #
loop $-1 $-1 $682 $703 #
vertex $-1 $633 $729 #
straight-curve $-1 -48.619647816400644 0 6.6703846850784192 0 -1 0 I I #
point $-1 -48.619647816400644 26.070648398197047 6.6703846850784192 #
coedge $-1 $636 $713 $706 $730 reversed $637 $-1 #
face $-1 $-1 $637 $19 $-1 $731 reversed single #
point $-1 48.619647816400644 26.070648398197047 3.5289101571309445 #
coedge $-1 $652 $651 $645 $693 reversed $592 $-1 #
edge $-1 $694 -48.619647816400644 $701 48.619647816400644 $692 $732 forward 7 unknown #
vertex $-1 $655 $733 #
straight-curve $-1 48.619647816400644 0 -6.6703846850784192 0 -1 0 I I #
point $-1 -48.619647816400644 -32.302095021873264 3.1012698277644777 #
straight-curve $-1 -48.619647816400644 -29.186371710035154 3.1012698277644777 0 1 0 I I #
edge $-1 $653 -3.1012698277644777 $701 6.6703846850784192 $663 $734 forward 7 unknown #
point $-1 -48.619647816400644 -26.070648398197047 3.1012698277644777 #
straight-curve $-1 48.619647816400644 -26.070648398197047 0 0 0 -1 I I #
vertex $-1 $664 $735 #
straight-curve $-1 -48.619647816400644 0 -6.6703846850784192 0 1 0 I I #
face $-1 $690 $685 $19 $-1 $736 reversed single #
loop $-1 $-1 $711 $666 #
plane-surface $-1 0 -26.070648398197047 0 0 1 0 0 0 1 forward_v I I I I #
coedge $-1 $737 $721 $689 $730 forward $667 $-1 #
coedge $-1 $717 $669 $670 $710 reversed $622 $-1 #
edge $-1 $686 -1.7845574286569708 $738 1.7845574286569708 $684 $739 forward 7 unknown #
coedge $-1 $671 $670 $728 $740 forward $563 $-1 #
edge $-1 $715 -48.619647816400644 $738 48.619647816400644 $707 $741 forward 7 unknown #
coedge $-1 $742 $743 $671 $712 forward $704 $-1 #
edge $-1 $714 -48.619647816400644 $744 48.619647816400644 $711 $745 forward 7 unknown #
coedge $-1 $689 $672 $743 $746 forward $637 $-1 #
vertex $-1 $746 $747 #
vertex $-1 $719 $748 #
straight-curve $-1 48.619647816400644 -29.186371710035154 3.1012698277644777 0 -1 0 I I #
coedge $-1 $674 $707 $676 $719 reversed $622 $-1 #
straight-curve $-1 0 -32.302095021873264 6.6703846850784192 1 0 0 I I #
edge $-1 $677 -1.7845574286569708 $715 1.7845574286569708 $676 $749 forward 7 unknown #
point $-1 48.619647816400644 -32.302095021873264 6.6703846850784192 #
coedge $-1 $706 $750 $680 $722 forward $667 $-1 #
edge $-1 $726 -48.619647816400644 $723 48.619647816400644 $680 $751 forward 7 unknown #
vertex $-1 $730 $752 #
straight-curve $-1 48.619647816400644 26.070648398197047 0 0 0 -1 I I #
coedge $-1 $753 $682 $750 $754 reversed $685 $-1 #
vertex $-1 $722 $755 #
straight-curve $-1 -48.619647816400644 26.070648398197047 0 0 0 -1 I I #
coedge $-1 $684 $753 $709 $740 reversed $685 $-1 #
point $-1 -48.619647816400644 -32.302095021873264 6.6703846850784192 #
edge $-1 $723 -26.070648398197047 $756 26.070648398197047 $689 $757 forward 7 unknown #
plane-surface $-1 48.619647816400644 0 0 -1 0 0 0 0 1 forward_v I I I I #
straight-curve $-1 0 -26.070648398197047 -6.6703846850784192 -1 0 0 I I #
point $-1 48.619647816400644 -26.070648398197047 -6.6703846850784192 #
straight-curve $-1 -48.619647816400644 -26.070648398197047 0 0 0 -1 I I #
point $-1 -48.619647816400644 -26.070648398197047 -6.6703846850784192 #
plane-surface $-1 -48.619647816400644 0 0 1 0 0 0 0 -1 forward_v I I I I #
coedge $-1 $750 $706 $758 $759 forward $667 $-1 #
vertex $-1 $740 $760 #
straight-curve $-1 -48.619647816400644 -32.302095021873264 4.8858272564214484 0 0 -1 I I #
edge $-1 $738 -3.11572331183811 $744 3.1157233118381065 $728 $761 forward 7 unknown #
straight-curve $-1 0 -32.302095021873264 3.1012698277644777 -1 0 0 I I #
coedge $-1 $758 $711 $753 $762 forward $704 $-1 #
coedge $-1 $711 $758 $713 $746 reversed $704 $-1 #
vertex $-1 $762 $763 #
straight-curve $-1 0 -26.070648398197047 3.1012698277644777 -1 0 0 I I #
edge $-1 $714 -3.1012698277644777 $756 6.6703846850784192 $713 $764 forward 7 unknown #
point $-1 48.619647816400644 -26.070648398197047 3.1012698277644777 #
point $-1 48.619647816400644 -32.302095021873264 3.1012698277644777 #
straight-curve $-1 48.619647816400644 -32.302095021873264 4.8858272564214484 0 0 -1 I I #
coedge $-1 $721 $737 $725 $754 forward $667 $-1 #
straight-curve $-1 0 26.070648398197047 -6.6703846850784192 1 0 0 I I #
point $-1 48.619647816400644 26.070648398197047 -6.6703846850784192 #
coedge $-1 $728 $725 $742 $762 reversed $685 $-1 #
edge $-1 $765 -26.070648398197047 $726 26.070648398197047 $725 $766 forward 7 unknown #
point $-1 -48.619647816400644 26.070648398197047 -6.6703846850784192 #
vertex $-1 $746 $767 #
straight-curve $-1 48.619647816400644 0 -6.6703846850784192 0 -1 0 I I #
coedge $-1 $743 $742 $737 $759 reversed $704 $-1 #
edge $-1 $756 -48.619647816400644 $765 48.619647816400644 $758 $768 forward 7 unknown #
point $-1 -48.619647816400644 -32.302095021873264 3.1012698277644777 #
straight-curve $-1 -48.619647816400644 -29.186371710035154 3.1012698277644777 0 1 0 I I #
edge $-1 $744 -3.1012698277644777 $765 6.6703846850784192 $753 $769 forward 7 unknown #
point $-1 -48.619647816400644 -26.070648398197047 3.1012698277644777 #
straight-curve $-1 48.619647816400644 -26.070648398197047 0 0 0 -1 I I #
vertex $-1 $754 $770 #
straight-curve $-1 -48.619647816400644 0 -6.6703846850784192 0 1 0 I I #
point $-1 48.619647816400644 -26.070648398197047 -6.6703846850784192 #
straight-curve $-1 0 -26.070648398197047 -6.6703846850784192 -1 0 0 I I #
straight-curve $-1 -48.619647816400644 -26.070648398197047 0 0 0 -1 I I #
point $-1 -48.619647816400644 -26.070648398197047 -6.6703846850784192 #
End-of-ACIS-data 