500 0 4 0           
7 Unknown 11 ACIS 5.0 NT 24 Thu Mar 25 21:12:06 1999 
-1 9.9999999999999995e-007 1e-010 
body $-1 $4 $-1 $5 #
body $-1 $6 $-1 $7 #
body $-1 $8 $-1 $9 #
body $-1 $10 $-1 $11 #
lump $-1 $-1 $12 $0 #
transform $-1 1 0 0 0 1 0 0 0 1 71.567125461592454 31.232070902145068 9.7958727464404909 1 rotate no_reflect no_shear #
lump $-1 $-1 $13 $1 #
transform $-1 1 0 0 0 1 0 0 0 1 71.567125461592454 31.232070902145068 9.7958727464404909 1 rotate no_reflect no_shear #
lump $-1 $-1 $14 $2 #
transform $-1 1 0 0 0 1 0 0 0 1 71.567125461592454 31.232070902145068 9.7958727464404909 1 rotate no_reflect no_shear #
lump $-1 $-1 $15 $3 #
transform $-1 1 0 0 0 1 0 0 0 1 71.567125461592454 31.232070902145068 9.7958727464404909 1 rotate no_reflect no_shear #
shell $-1 $-1 $-1 $16 $-1 $4 #
shell $-1 $-1 $-1 $17 $-1 $6 #
shell $-1 $-1 $-1 $18 $-1 $8 #
shell $-1 $-1 $-1 $19 $-1 $10 #
face $-1 $20 $21 $12 $-1 $22 forward single #
face $-1 $23 $24 $13 $-1 $25 forward single #
face $-1 $26 $27 $14 $-1 $28 reversed single #
face $-1 $29 $30 $15 $-1 $31 forward single #
face $-1 $32 $33 $12 $-1 $34 reversed single #
loop $-1 $-1 $35 $16 #
plane-surface $-1 0 0 9.7958727464404909 0 0 1 1 0 0 forward_v I I I I #
face $-1 $36 $37 $13 $-1 $38 reversed single #
loop $-1 $-1 $39 $17 #
plane-surface $-1 0 -26.814878785222195 -1.114684810664837 0 0 1 1 0 0 forward_v I I I I #
face $-1 $40 $41 $14 $-1 $42 reversed single #
loop $-1 $-1 $43 $18 #
plane-surface $-1 -32.706678676375361 100.72809384332268 142.22892277607559 1 0 0 0 -0.7660444514056185 -0.64278759981090561 forward_v I I I I #
face $-1 $44 $45 $15 $-1 $46 forward single #
loop $-1 $47 $48 $19 #
cone-surface $-1 -17.442505278950179 25.994437043675692 4.3028206104065152 0 -0.7660444514056185 -0.64278759981090561 2 0 0 1 I I 0 1 2 forward I I I I #
face $-1 $49 $50 $12 $-1 $51 reversed single #
loop $-1 $-1 $52 $20 #
plane-surface $-1 0 0 -9.7958727464404909 0 0 1 1 0 0 forward_v I I I I #
coedge $-1 $53 $54 $55 $56 forward $21 $-1 #
face $-1 $57 $58 $13 $-1 $59 reversed single #
loop $-1 $-1 $60 $23 #
plane-surface $-1 0 -26.814878785222195 -5.7548917031664839 0 0 1 1 0 0 forward_v I I I I #
coedge $-1 $61 $62 $63 $64 reversed $24 $-1 #
face $-1 $65 $66 $14 $-1 $67 reversed single #
loop $-1 $-1 $68 $26 #
plane-surface $-1 -17.442505278950179 -8.9191048824826424 50.224001174429659 0 0.7660444514056185 0.64278759981090561 1 0 0 forward_v I I I I #
coedge $-1 $69 $70 $71 $72 reversed $27 $-1 #
face $-1 $-1 $73 $15 $-1 $74 forward single #
loop $-1 $75 $76 $29 #
cone-surface $-1 -17.442505278950179 23.104733243633227 1.8780712810621445 0 -0.7660444514056185 -0.64278759981090561 1 0 0 1 I I -0.70710678118654746 0.70710678118654746 1 forward I I I I #
loop $-1 $-1 $77 $19 #
coedge $-1 $48 $48 $78 $79 reversed $30 $-1 #
face $-1 $80 $81 $12 $-1 $82 reversed single #
loop $-1 $-1 $83 $32 #
plane-surface $-1 0 -31.232070902145068 0 0 1 0 0 0 1 forward_v I I I I #
coedge $-1 $84 $85 $86 $87 forward $33 $-1 #
coedge $-1 $88 $35 $89 $90 forward $21 $-1 #
coedge $-1 $35 $88 $91 $92 forward $21 $-1 #
coedge $-1 $93 $94 $35 $56 reversed $95 $-1 #
edge $-1 $96 -31.232070902145068 $97 31.232070902145068 $55 $98 forward 7 unknown #
face $-1 $99 $100 $13 $-1 $101 reversed single #
loop $-1 $-1 $102 $36 #
plane-surface $-1 0 -22.397686668299322 -3.4347882569156605 0 -1 0 0 0 -1 forward_v I I I I #
coedge $-1 $103 $104 $105 $106 reversed $37 $-1 #
coedge $-1 $107 $39 $108 $109 forward $24 $-1 #
coedge $-1 $39 $107 $110 $111 reversed $24 $-1 #
coedge $-1 $112 $113 $39 $64 forward $114 $-1 #
edge $-1 $115 8.9902472756882243 $116 17.824631509533972 $63 $117 forward 7 unknown #
face $-1 $118 $119 $14 $-1 $120 reversed single #
loop $-1 $-1 $121 $40 #
plane-surface $-1 -2.1783318815249935 100.72809384332268 142.22892277607559 -1 0 0 0 0.7660444514056185 0.64278759981090561 forward_v I I I I #
coedge $-1 $122 $123 $124 $125 reversed $41 $-1 #
coedge $-1 $70 $43 $126 $127 reversed $27 $-1 #
coedge $-1 $43 $69 $122 $128 reversed $27 $-1 #
coedge $-1 $124 $129 $43 $72 forward $130 $-1 #
edge $-1 $131 19.131976019516273 $132 25.359925039181348 $71 $133 forward 7 unknown #
loop $-1 $-1 $78 $44 #
plane-surface $-1 -17.442505278950179 -8.9191048824826424 50.224001174429659 0 0.7660444514056185 0.64278759981090561 1 0 0 forward_v I I I I #
loop $-1 $-1 $134 $29 #
coedge $-1 $76 $76 $77 $135 reversed $45 $-1 #
coedge $-1 $77 $77 $76 $135 forward $47 $-1 #
coedge $-1 $78 $78 $48 $79 forward $73 $-1 #
edge $-1 $136 5.8267992273781765e-016 $136 6.2831853071796013 $78 $137 forward 7 unknown #
face $-1 $138 $139 $12 $-1 $140 reversed single #
loop $-1 $-1 $141 $49 #
plane-surface $-1 -71.567125461592454 0 0 1 0 0 0 0 -1 forward_v I I I I #
coedge $-1 $142 $91 $143 $144 forward $50 $-1 #
coedge $-1 $145 $52 $142 $146 forward $33 $-1 #
coedge $-1 $52 $145 $147 $148 forward $33 $-1 #
coedge $-1 $94 $93 $52 $87 reversed $95 $-1 #
edge $-1 $149 -31.232070902145068 $150 31.232070902145068 $86 $151 forward 7 unknown #
coedge $-1 $54 $53 $152 $153 forward $21 $-1 #
coedge $-1 $154 $155 $53 $90 reversed $139 $-1 #
edge $-1 $97 -71.567125461592454 $156 71.567125461592454 $89 $157 forward 7 unknown #
coedge $-1 $83 $158 $54 $92 reversed $50 $-1 #
edge $-1 $159 -71.567125461592454 $96 71.567125461592454 $91 $160 forward 7 unknown #
coedge $-1 $86 $55 $158 $161 forward $95 $-1 #
coedge $-1 $55 $86 $154 $162 reversed $95 $-1 #
loop $-1 $-1 $93 $138 #
vertex $-1 $56 $163 #
vertex $-1 $56 $164 #
straight-curve $-1 71.567125461592454 0 9.7958727464404909 0 1 0 I I #
face $-1 $165 $166 $13 $-1 $167 reversed single #
loop $-1 $-1 $168 $57 #
plane-surface $-1 -71.567125461592454 0 0 1 0 0 0 0 -1 forward_v I I I I #
coedge $-1 $169 $108 $113 $170 reversed $58 $-1 #
coedge $-1 $171 $60 $172 $173 reversed $37 $-1 #
coedge $-1 $60 $171 $169 $174 forward $37 $-1 #
coedge $-1 $113 $112 $60 $106 forward $114 $-1 #
edge $-1 $175 -17.824631509533972 $176 -8.9902472756882243 $105 $177 forward 7 unknown #
coedge $-1 $62 $61 $168 $178 reversed $24 $-1 #
coedge $-1 $102 $179 $61 $109 reversed $58 $-1 #
edge $-1 $115 -71.567125461592454 $180 71.567125461592454 $108 $181 forward 7 unknown #
coedge $-1 $182 $183 $62 $111 forward $166 $-1 #
edge $-1 $116 -71.567125461592454 $184 71.567125461592454 $110 $185 forward 7 unknown #
coedge $-1 $105 $63 $183 $186 forward $114 $-1 #
coedge $-1 $63 $105 $102 $170 forward $114 $-1 #
loop $-1 $-1 $63 $165 #
vertex $-1 $64 $187 #
vertex $-1 $186 $188 #
straight-curve $-1 71.567125461592454 -13.407439392611098 -1.114684810664837 0 -1 0 I I #
face $-1 $-1 $130 $14 $-1 $189 forward single #
loop $-1 $-1 $190 $65 #
plane-surface $-1 0 31.232070902145068 0 0 -1 0 0 0 -1 forward_v I I I I #
coedge $-1 $191 $192 $193 $194 reversed $66 $-1 #
coedge $-1 $195 $68 $70 $128 forward $41 $-1 #
coedge $-1 $68 $195 $191 $196 forward $41 $-1 #
coedge $-1 $193 $71 $68 $125 forward $130 $-1 #
edge $-1 $132 -23.985426036900272 $197 6.5429207579500961 $124 $198 forward 7 unknown #
coedge $-1 $199 $200 $69 $127 forward $119 $-1 #
edge $-1 $201 -68.740769454598336 $131 -61.318588641597302 $126 $202 forward 7 unknown #
edge $-1 $132 52.775172973066269 $201 62.464141804290158 $70 $203 forward 7 unknown #
coedge $-1 $71 $193 $199 $204 forward $130 $-1 #
loop $-1 $-1 $193 $118 #
vertex $-1 $127 $205 #
vertex $-1 $72 $206 #
straight-curve $-1 -32.706678676375361 50.364046921661341 9.7958727464404944 0 -1 0 I I #
coedge $-1 $134 $134 $-1 $207 reversed $75 $-1 #
edge $-1 $208 0 $208 6.2831853071796004 $76 $209 forward 7 unknown #
vertex $-1 $79 $210 #
ellipse-curve $-1 -17.442505278950179 28.118096392312534 6.0847823399399754 0 0.7660444514056185 0.64278759981090561 2 0 0 1 I I #
face $-1 $-1 $95 $12 $-1 $211 reversed single #
loop $-1 $-1 $154 $80 #
plane-surface $-1 0 31.232070902145068 0 0 -1 0 0 0 -1 forward_v I I I I #
coedge $-1 $212 $152 $155 $213 forward $81 $-1 #
coedge $-1 $158 $83 $84 $146 reversed $50 $-1 #
coedge $-1 $152 $212 $83 $144 reversed $81 $-1 #
edge $-1 $159 -9.7958727464404909 $214 9.7958727464404909 $143 $215 forward 7 unknown #
coedge $-1 $85 $84 $212 $216 forward $33 $-1 #
edge $-1 $150 -71.567125461592454 $214 71.567125461592454 $142 $217 forward 7 unknown #
coedge $-1 $155 $154 $85 $148 reversed $139 $-1 #
edge $-1 $218 -71.567125461592454 $149 71.567125461592454 $147 $219 forward 7 unknown #
vertex $-1 $87 $220 #
vertex $-1 $161 $221 #
straight-curve $-1 71.567125461592454 0 -9.7958727464404909 0 -1 0 I I #
coedge $-1 $141 $143 $88 $153 reversed $81 $-1 #
edge $-1 $156 -31.232070902145068 $159 31.232070902145068 $152 $222 forward 7 unknown #
coedge $-1 $147 $89 $94 $162 forward $139 $-1 #
coedge $-1 $89 $147 $141 $213 reversed $139 $-1 #
vertex $-1 $90 $223 #
straight-curve $-1 0 31.232070902145068 9.7958727464404909 -1 0 0 I I #
coedge $-1 $91 $142 $93 $161 reversed $50 $-1 #
vertex $-1 $153 $224 #
straight-curve $-1 0 -31.232070902145068 9.7958727464404909 1 0 0 I I #
edge $-1 $96 -9.7958727464404909 $150 9.7958727464404909 $93 $225 forward 7 unknown #
edge $-1 $97 -9.7958727464404909 $149 9.7958727464404909 $94 $226 forward 7 unknown #
point $-1 71.567125461592454 -31.232070902145068 9.7958727464404909 #
point $-1 71.567125461592454 31.232070902145068 9.7958727464404909 #
face $-1 $-1 $114 $13 $-1 $227 reversed single #
loop $-1 $-1 $110 $99 #
plane-surface $-1 0 -31.232070902145068 0 0 1 0 0 0 1 forward_v I I I I #
coedge $-1 $228 $229 $107 $178 forward $100 $-1 #
coedge $-1 $179 $102 $104 $174 reversed $58 $-1 #
edge $-1 $176 -4.0374975747086541 $115 0.60270931779299319 $113 $230 forward 7 unknown #
coedge $-1 $104 $103 $231 $232 reversed $37 $-1 #
coedge $-1 $183 $182 $103 $173 forward $166 $-1 #
edge $-1 $233 -71.567125461592454 $175 71.567125461592454 $172 $234 forward 7 unknown #
edge $-1 $235 -71.567125461592454 $176 71.567125461592454 $169 $236 forward 7 unknown #
vertex $-1 $173 $237 #
vertex $-1 $106 $238 #
straight-curve $-1 71.567125461592454 -13.407439392611098 -5.7548917031664839 0 1 0 I I #
edge $-1 $184 -17.824631509533972 $180 -8.9902472756882243 $168 $239 forward 7 unknown #
coedge $-1 $108 $169 $228 $240 reversed $58 $-1 #
vertex $-1 $178 $241 #
straight-curve $-1 0 -22.397686668299322 -1.114684810664837 -1 0 0 I I #
coedge $-1 $172 $110 $229 $242 forward $166 $-1 #
coedge $-1 $110 $172 $112 $186 reversed $166 $-1 #
vertex $-1 $242 $243 #
straight-curve $-1 0 -31.232070902145068 -1.114684810664837 -1 0 0 I I #
edge $-1 $116 1.114684810664837 $175 5.7548917031664839 $112 $244 forward 7 unknown #
point $-1 71.567125461592454 -22.397686668299322 -1.114684810664837 #
point $-1 71.567125461592454 -31.232070902145068 -1.114684810664837 #
plane-surface $-1 0 0 9.7958727464404909 0 0 1 1 0 0 forward_v I I I I #
coedge $-1 $200 $199 $192 $245 forward $119 $-1 #
coedge $-1 $192 $121 $123 $196 reversed $66 $-1 #
coedge $-1 $121 $191 $190 $245 reversed $66 $-1 #
coedge $-1 $129 $124 $121 $194 forward $130 $-1 #
edge $-1 $197 -25.359925039181348 $246 -19.131976019516273 $193 $247 forward 7 unknown #
coedge $-1 $123 $122 $200 $248 reversed $41 $-1 #
edge $-1 $249 -62.464141804290158 $197 -52.775172973066269 $191 $250 forward 7 unknown #
vertex $-1 $125 $251 #
straight-curve $-1 -8.7212526394750896 25.00412188248 9.7958727464404873 1 0 0 I I #
coedge $-1 $190 $126 $129 $204 reversed $119 $-1 #
coedge $-1 $126 $190 $195 $248 forward $119 $-1 #
vertex $-1 $127 $252 #
straight-curve $-1 -32.706678676375361 31.232070902145068 71.114461388037796 0 0 1 I I #
straight-curve $-1 -32.706678676375361 -8.9191048824826424 50.224001174429659 0 0.64278759981090561 -0.7660444514056185 I I #
edge $-1 $246 2.1783318815249935 $131 32.706678676375361 $199 $253 forward 7 unknown #
point $-1 -32.706678676375361 31.232070902145068 9.7958727464404909 #
point $-1 -32.706678676375361 25.004121882479993 9.7958727464404944 #
edge $-1 $254 1 $254 0 $134 $-1 forward 7 unknown #
vertex $-1 $135 $255 #
ellipse-curve $-1 -17.442505278950179 23.870777695038846 2.5208588808730501 0 0.7660444514056185 0.64278759981090561 2 0 0 1 I I #
point $-1 -15.442505278950179 28.118096392312541 6.0847823399399799 #
plane-surface $-1 71.567125461592454 0 0 -1 0 0 0 0 1 forward_v I I I I #
coedge $-1 $143 $141 $145 $216 reversed $81 $-1 #
edge $-1 $156 -9.7958727464404909 $218 9.7958727464404909 $155 $256 forward 7 unknown #
vertex $-1 $216 $257 #
straight-curve $-1 -71.567125461592454 -31.232070902145068 0 0 0 -1 I I #
edge $-1 $214 -31.232070902145068 $218 31.232070902145068 $212 $258 forward 7 unknown #
straight-curve $-1 0 -31.232070902145068 -9.7958727464404909 -1 0 0 I I #
vertex $-1 $148 $259 #
straight-curve $-1 0 31.232070902145068 -9.7958727464404909 1 0 0 I I #
point $-1 71.567125461592454 31.232070902145068 -9.7958727464404909 #
point $-1 71.567125461592454 -31.232070902145068 -9.7958727464404909 #
straight-curve $-1 -71.567125461592454 0 9.7958727464404909 0 -1 0 I I #
point $-1 -71.567125461592454 31.232070902145068 9.7958727464404909 #
point $-1 -71.567125461592454 -31.232070902145068 9.7958727464404909 #
straight-curve $-1 71.567125461592454 -31.232070902145068 0 0 0 -1 I I #
straight-curve $-1 71.567125461592454 31.232070902145068 0 0 0 -1 I I #
plane-surface $-1 71.567125461592454 0 0 -1 0 0 0 0 1 forward_v I I I I #
coedge $-1 $231 $168 $179 $240 forward $100 $-1 #
coedge $-1 $168 $231 $182 $242 reversed $100 $-1 #
straight-curve $-1 71.567125461592454 -22.397686668299322 -1.7173941284578302 0 0 1 I I #
coedge $-1 $229 $228 $171 $232 forward $100 $-1 #
edge $-1 $235 8.9902472756882243 $233 17.824631509533972 $231 $260 forward 7 unknown #
vertex $-1 $173 $261 #
straight-curve $-1 0 -31.232070902145068 -5.7548917031664839 1 0 0 I I #
vertex $-1 $232 $262 #
straight-curve $-1 0 -22.397686668299322 -5.7548917031664839 1 0 0 I I #
point $-1 71.567125461592454 -31.232070902145068 -5.7548917031664839 #
point $-1 71.567125461592454 -22.397686668299322 -5.7548917031664839 #
straight-curve $-1 -71.567125461592454 -13.407439392611098 -1.114684810664837 0 1 0 I I #
edge $-1 $180 -0.60270931779299319 $235 4.0374975747086541 $228 $263 forward 7 unknown #
point $-1 -71.567125461592454 -22.397686668299322 -1.114684810664837 #
edge $-1 $184 1.114684810664837 $233 5.7548917031664839 $229 $264 forward 7 unknown #
point $-1 -71.567125461592454 -31.232070902145068 -1.114684810664837 #
straight-curve $-1 71.567125461592454 -31.232070902145068 0 0 0 -1 I I #
edge $-1 $246 61.318588641597302 $249 68.740769454598336 $190 $265 forward 7 unknown #
vertex $-1 $204 $266 #
straight-curve $-1 -2.1783318815249935 50.364046921661341 9.7958727464404944 0 1 0 I I #
edge $-1 $249 -6.5429207579500961 $201 23.985426036900272 $200 $267 forward 7 unknown #
vertex $-1 $248 $268 #
straight-curve $-1 -2.1783318815249935 -8.9191048824826424 50.224001174429659 0 -0.64278759981090561 0.7660444514056185 I I #
point $-1 -2.1783318815249935 25.004121882479993 9.7958727464404944 #
point $-1 -32.706678676375361 31.232070902145068 2.3736919334394599 #
straight-curve $-1 0 31.232070902145068 9.7958727464404909 -1 0 0 I I #
vertex $-1 $207 $269 #
point $-1 -15.442505278950179 23.870777695038846 2.5208588808730501 #
straight-curve $-1 -71.567125461592454 31.232070902145068 0 0 0 -1 I I #
point $-1 -71.567125461592454 -31.232070902145068 -9.7958727464404909 #
straight-curve $-1 -71.567125461592454 0 -9.7958727464404909 0 1 0 I I #
point $-1 -71.567125461592454 31.232070902145068 -9.7958727464404909 #
straight-curve $-1 -71.567125461592454 -13.407439392611098 -5.7548917031664839 0 -1 0 I I #
point $-1 -71.567125461592454 -31.232070902145068 -5.7548917031664839 #
point $-1 -71.567125461592454 -22.397686668299322 -5.7548917031664839 #
straight-curve $-1 -71.567125461592454 -22.397686668299322 -1.7173941284578302 0 0 -1 I I #
straight-curve $-1 -71.567125461592454 -31.232070902145068 0 0 0 -1 I I #
straight-curve $-1 -2.1783318815249935 31.232070902145068 71.114461388037796 0 0 -1 I I #
point $-1 -2.1783318815249935 31.232070902145068 9.7958727464404909 #
straight-curve $-1 -8.7212526394750896 31.232070902145065 2.3736919334394564 -1 0 0 I I #
point $-1 -2.1783318815249935 31.232070902145068 2.3736919334394599 #
point $-1 -17.442505278950179 22.338688792227607 1.2352836812512389 #
End-of-ACIS-data 