500 0 3 0           
7 Unknown 11 ACIS 5.0 NT 24 Thu Mar 25 15:32:47 1999 
-1 9.9999999999999995e-007 1e-010 
body $-1 $3 $-1 $4 #
body $-1 $5 $-1 $6 #
body $-1 $7 $-1 $8 #
lump $-1 $-1 $9 $0 #
transform $-1 1 0 0 0 1 0 0 0 1 41.834772789696949 24.389722329054806 9.4605356243258942 1 rotate no_reflect no_shear #
lump $-1 $-1 $10 $1 #
transform $-1 1 0 0 0 1 0 0 0 1 41.834772789696949 24.389722329054806 9.4605356243258942 1 rotate no_reflect no_shear #
lump $-1 $-1 $11 $2 #
transform $-1 1 0 0 0 1 0 0 0 1 41.834772789696949 24.389722329054806 9.4605356243258942 1 rotate no_reflect no_shear #
shell $-1 $-1 $-1 $12 $-1 $3 #
shell $-1 $-1 $-1 $13 $-1 $5 #
shell $-1 $-1 $-1 $14 $-1 $7 #
face $-1 $15 $16 $9 $-1 $17 forward single #
face $-1 $18 $19 $10 $-1 $20 reversed single #
face $-1 $21 $22 $11 $-1 $23 forward single #
face $-1 $24 $25 $9 $-1 $26 reversed single #
loop $-1 $-1 $27 $12 #
plane-surface $-1 0 0 9.4605356243258942 0 0 1 1 0 0 forward_v I I I I #
face $-1 $28 $29 $10 $-1 $30 reversed single #
loop $-1 $-1 $31 $13 #
plane-surface $-1 -30.508346710821325 66.477801264373099 87.47780862230519 -1 0 0 0 0.82903758062907751 0.55919289150049634 forward_v I I I I #
face $-1 $32 $33 $11 $-1 $34 forward single #
loop $-1 $35 $36 $14 #
cone-surface $-1 -36.171559750259135 17.899114858718519 2.5726276561417816 0 -0.82903758062907751 -0.55919289150049634 2.5 0 0 1 I I 0 1 2.5 forward I I I I #
face $-1 $37 $38 $9 $-1 $39 reversed single #
loop $-1 $-1 $40 $15 #
plane-surface $-1 0 0 -9.4605356243258942 0 0 1 1 0 0 forward_v I I I I #
coedge $-1 $41 $42 $43 $44 forward $16 $-1 #
face $-1 $45 $46 $10 $-1 $47 reversed single #
loop $-1 $-1 $48 $18 #
plane-surface $-1 -36.171559750259135 -2.8873963751019431 40.690393499231348 0 0.82903758062907751 0.55919289150049634 1 0 0 forward_v I I I I #
coedge $-1 $49 $50 $51 $52 reversed $19 $-1 #
face $-1 $-1 $53 $11 $-1 $54 forward single #
loop $-1 $55 $56 $21 #
cone-surface $-1 -36.171559750259135 13.47836753450845 -0.40920397197609937 0 -0.82903758062907751 -0.55919289150049634 1.25 0 0 1 I I -0.70710678118654746 0.70710678118654746 1.25 forward I I I I #
loop $-1 $-1 $57 $14 #
coedge $-1 $36 $36 $58 $59 reversed $22 $-1 #
face $-1 $60 $61 $9 $-1 $62 reversed single #
loop $-1 $-1 $63 $24 #
plane-surface $-1 0 -24.389722329054806 0 0 1 0 0 0 1 forward_v I I I I #
coedge $-1 $64 $65 $66 $67 forward $25 $-1 #
coedge $-1 $68 $27 $69 $70 forward $16 $-1 #
coedge $-1 $27 $68 $71 $72 forward $16 $-1 #
coedge $-1 $73 $74 $27 $44 reversed $75 $-1 #
edge $-1 $76 -24.389722329054806 $77 24.389722329054806 $43 $78 forward 7 unknown #
face $-1 $79 $80 $10 $-1 $81 forward single #
loop $-1 $-1 $51 $28 #
plane-surface $-1 0 24.389722329054806 0 0 -1 0 0 0 -1 forward_v I I I I #
coedge $-1 $82 $83 $84 $85 reversed $29 $-1 #
coedge $-1 $50 $31 $86 $87 reversed $19 $-1 #
coedge $-1 $31 $49 $82 $88 reversed $19 $-1 #
coedge $-1 $84 $89 $31 $52 forward $46 $-1 #
edge $-1 $90 34.278368686826703 $91 43.488503595710412 $51 $92 forward 7 unknown #
loop $-1 $-1 $58 $32 #
plane-surface $-1 -36.171559750259135 -2.8873963751019431 40.690393499231348 0 0.82903758062907751 0.55919289150049634 1 0 0 forward_v I I I I #
loop $-1 $-1 $93 $21 #
coedge $-1 $56 $56 $57 $94 reversed $33 $-1 #
coedge $-1 $57 $57 $56 $94 forward $35 $-1 #
coedge $-1 $58 $58 $36 $59 forward $53 $-1 #
edge $-1 $95 -3.8347236728751155e-016 $95 6.2831853071796004 $58 $96 forward 7 unknown #
face $-1 $97 $98 $9 $-1 $99 reversed single #
loop $-1 $-1 $100 $37 #
plane-surface $-1 -41.834772789696949 0 0 1 0 0 0 0 -1 forward_v I I I I #
coedge $-1 $101 $71 $102 $103 forward $38 $-1 #
coedge $-1 $104 $40 $101 $105 forward $25 $-1 #
coedge $-1 $40 $104 $106 $107 forward $25 $-1 #
coedge $-1 $74 $73 $40 $67 reversed $75 $-1 #
edge $-1 $108 -24.389722329054806 $109 24.389722329054806 $66 $110 forward 7 unknown #
coedge $-1 $42 $41 $111 $112 forward $16 $-1 #
coedge $-1 $113 $114 $41 $70 reversed $98 $-1 #
edge $-1 $77 -41.834772789696949 $115 41.834772789696949 $69 $116 forward 7 unknown #
coedge $-1 $63 $117 $42 $72 reversed $38 $-1 #
edge $-1 $118 -41.834772789696949 $76 41.834772789696949 $71 $119 forward 7 unknown #
coedge $-1 $66 $43 $117 $120 forward $75 $-1 #
coedge $-1 $43 $66 $113 $121 reversed $75 $-1 #
loop $-1 $-1 $73 $97 #
vertex $-1 $44 $122 #
vertex $-1 $44 $123 #
straight-curve $-1 41.834772789696949 0 9.4605356243258942 0 1 0 I I #
face $-1 $-1 $124 $10 $-1 $125 reversed single #
loop $-1 $-1 $86 $45 #
plane-surface $-1 0 0 9.4605356243258942 0 0 1 1 0 0 forward_v I I I I #
coedge $-1 $126 $48 $50 $88 forward $29 $-1 #
coedge $-1 $48 $126 $127 $128 reversed $29 $-1 #
coedge $-1 $129 $51 $48 $85 forward $46 $-1 #
edge $-1 $91 12.422566835691757 $130 23.748992914567381 $84 $131 forward 7 unknown #
coedge $-1 $132 $133 $49 $87 forward $80 $-1 #
edge $-1 $134 -15.061492546956874 $90 -8.8491783031317439 $86 $135 forward 7 unknown #
edge $-1 $91 -48.779444658109604 $134 -37.670014731066949 $50 $136 forward 7 unknown #
coedge $-1 $51 $129 $132 $137 reversed $46 $-1 #
vertex $-1 $137 $138 #
vertex $-1 $52 $139 #
straight-curve $-1 -30.508346710821325 24.389722329054806 43.738904311152595 0 0 -1 I I #
coedge $-1 $93 $93 $-1 $140 reversed $55 $-1 #
edge $-1 $141 0 $141 6.2831853071796004 $56 $142 forward 7 unknown #
vertex $-1 $59 $143 #
ellipse-curve $-1 -36.171559750259135 21.283565207142239 4.8554681698840385 0 0.82903758062907751 0.55919289150049634 2.5 0 0 1 I I #
face $-1 $-1 $75 $9 $-1 $144 reversed single #
loop $-1 $-1 $113 $60 #
plane-surface $-1 0 24.389722329054806 0 0 -1 0 0 0 -1 forward_v I I I I #
coedge $-1 $145 $111 $114 $146 forward $61 $-1 #
coedge $-1 $117 $63 $64 $105 reversed $38 $-1 #
coedge $-1 $111 $145 $63 $103 reversed $61 $-1 #
edge $-1 $118 -9.4605356243258942 $147 9.4605356243258942 $102 $148 forward 7 unknown #
coedge $-1 $65 $64 $145 $149 forward $25 $-1 #
edge $-1 $109 -41.834772789696949 $147 41.834772789696949 $101 $150 forward 7 unknown #
coedge $-1 $114 $113 $65 $107 reversed $98 $-1 #
edge $-1 $151 -41.834772789696949 $108 41.834772789696949 $106 $152 forward 7 unknown #
vertex $-1 $67 $153 #
vertex $-1 $120 $154 #
straight-curve $-1 41.834772789696949 0 -9.4605356243258942 0 -1 0 I I #
coedge $-1 $100 $102 $68 $112 reversed $61 $-1 #
edge $-1 $115 -24.389722329054806 $118 24.389722329054806 $111 $155 forward 7 unknown #
coedge $-1 $106 $69 $74 $121 forward $98 $-1 #
coedge $-1 $69 $106 $100 $146 reversed $98 $-1 #
vertex $-1 $70 $156 #
straight-curve $-1 0 24.389722329054806 9.4605356243258942 -1 0 0 I I #
coedge $-1 $71 $101 $73 $120 reversed $38 $-1 #
vertex $-1 $112 $157 #
straight-curve $-1 0 -24.389722329054806 9.4605356243258942 1 0 0 I I #
edge $-1 $76 -9.4605356243258942 $109 9.4605356243258942 $73 $158 forward 7 unknown #
edge $-1 $77 -9.4605356243258942 $108 9.4605356243258942 $74 $159 forward 7 unknown #
point $-1 41.834772789696949 -24.389722329054806 9.4605356243258942 #
point $-1 41.834772789696949 24.389722329054806 9.4605356243258942 #
loop $-1 $-1 $127 $79 #
plane-surface $-1 -41.834772789696949 0 0 1 0 0 0 0 -1 forward_v I I I I #
coedge $-1 $83 $82 $133 $160 reversed $29 $-1 #
coedge $-1 $161 $162 $83 $128 forward $124 $-1 #
edge $-1 $130 -31.105206203435007 $163 -19.995776276392348 $127 $164 forward 7 unknown #
coedge $-1 $89 $84 $162 $165 reversed $46 $-1 #
vertex $-1 $85 $166 #
straight-curve $-1 -18.085779875129568 24.389722329054809 0.25040071544218279 -1 0 0 I I #
coedge $-1 $167 $86 $89 $137 forward $80 $-1 #
coedge $-1 $86 $167 $126 $160 forward $80 $-1 #
vertex $-1 $87 $168 #
straight-curve $-1 -30.508346710821325 33.238900632186549 9.4605356243258925 0 1 0 I I #
straight-curve $-1 -30.508346710821325 -2.8873963751019431 40.690393499231348 0 -0.55919289150049634 0.82903758062907751 I I #
edge $-1 $90 30.508346710821325 $169 41.834772789696949 $89 $170 forward 7 unknown #
point $-1 -30.508346710821325 24.389722329054806 9.4605356243258942 #
point $-1 -30.508346710821325 24.389722329054806 0.25040071544218279 #
edge $-1 $171 1 $171 0 $93 $-1 forward 7 unknown #
vertex $-1 $94 $172 #
ellipse-curve $-1 -36.171559750259135 14.514664510294796 0.28978714239952108 0 0.82903758062907751 0.55919289150049634 2.5 0 0 1 I I #
point $-1 -33.671559750259135 21.283565207142242 4.8554681698840421 #
plane-surface $-1 41.834772789696949 0 0 -1 0 0 0 0 1 forward_v I I I I #
coedge $-1 $102 $100 $104 $149 reversed $61 $-1 #
edge $-1 $115 -9.4605356243258942 $151 9.4605356243258942 $114 $173 forward 7 unknown #
vertex $-1 $149 $174 #
straight-curve $-1 -41.834772789696949 -24.389722329054806 0 0 0 -1 I I #
edge $-1 $147 -24.389722329054806 $151 24.389722329054806 $145 $175 forward 7 unknown #
straight-curve $-1 0 -24.389722329054806 -9.4605356243258942 -1 0 0 I I #
vertex $-1 $107 $176 #
straight-curve $-1 0 24.389722329054806 -9.4605356243258942 1 0 0 I I #
point $-1 41.834772789696949 24.389722329054806 -9.4605356243258942 #
point $-1 41.834772789696949 -24.389722329054806 -9.4605356243258942 #
straight-curve $-1 -41.834772789696949 0 9.4605356243258942 0 -1 0 I I #
point $-1 -41.834772789696949 24.389722329054806 9.4605356243258942 #
point $-1 -41.834772789696949 -24.389722329054806 9.4605356243258942 #
straight-curve $-1 41.834772789696949 -24.389722329054806 0 0 0 -1 I I #
straight-curve $-1 41.834772789696949 24.389722329054806 0 0 0 -1 I I #
edge $-1 $163 -23.748992914567381 $134 -12.422566835691757 $133 $177 forward 7 unknown #
coedge $-1 $162 $127 $167 $178 reversed $124 $-1 #
coedge $-1 $127 $161 $129 $165 forward $124 $-1 #
vertex $-1 $128 $179 #
straight-curve $-1 -41.834772789696949 6.9959121314368122 26.037785611306511 0 -0.55919289150049634 0.82903758062907751 I I #
edge $-1 $169 -9.4605356243258942 $130 -0.25040071544218401 $129 $180 forward 7 unknown #
point $-1 -41.834772789696949 24.389722329054806 0.25040071544218401 #
coedge $-1 $133 $132 $161 $178 forward $80 $-1 #
point $-1 -30.508346710821325 18.177408085229676 9.460535624325896 #
vertex $-1 $137 $181 #
straight-curve $-1 0 24.389722329054806 9.4605356243258942 -1 0 0 I I #
vertex $-1 $140 $182 #
point $-1 -33.671559750259135 14.514664510294796 0.28978714239952108 #
straight-curve $-1 -41.834772789696949 24.389722329054806 0 0 0 -1 I I #
point $-1 -41.834772789696949 -24.389722329054806 -9.4605356243258942 #
straight-curve $-1 -41.834772789696949 0 -9.4605356243258942 0 1 0 I I #
point $-1 -41.834772789696949 24.389722329054806 -9.4605356243258942 #
straight-curve $-1 -18.085779875129568 18.177408085229679 9.4605356243258925 1 0 0 I I #
edge $-1 $169 -24.389722329054806 $163 -18.177408085229676 $161 $183 forward 7 unknown #
point $-1 -41.834772789696949 18.177408085229676 9.460535624325896 #
straight-curve $-1 -41.834772789696949 24.389722329054806 0 0 0 -1 I I #
point $-1 -41.834772789696949 24.389722329054806 9.4605356243258942 #
point $-1 -36.171559750259135 12.442070558722104 -1.1081950863517198 #
straight-curve $-1 -41.834772789696949 0 9.4605356243258942 0 -1 0 I I #
End-of-ACIS-data 