500 0 6 0           
7 Unknown 11 ACIS 5.0 NT 24 Thu Mar 25 15:24:43 1999 
-1 9.9999999999999995e-007 1e-010 
body $-1 $6 $-1 $7 #
body $-1 $8 $-1 $9 #
body $-1 $10 $-1 $11 #
body $-1 $12 $-1 $13 #
body $-1 $14 $-1 $15 #
body $-1 $16 $-1 $17 #
lump $-1 $-1 $18 $0 #
transform $-1 1 0 0 0 1 0 0 0 1 51.850947599719234 25.788595020374899 12.278761752704762 1 rotate no_reflect no_shear #
lump $-1 $-1 $19 $1 #
transform $-1 1 0 0 0 1 0 0 0 1 51.850947599719234 25.788595020374899 12.278761752704762 1 rotate no_reflect no_shear #
lump $-1 $-1 $20 $2 #
transform $-1 1 0 0 0 1 0 0 0 1 51.850947599719234 25.788595020374899 12.278761752704762 1 rotate no_reflect no_shear #
lump $-1 $-1 $21 $3 #
transform $-1 1 0 0 0 1 0 0 0 1 51.850947599719234 25.788595020374899 12.278761752704762 1 rotate no_reflect no_shear #
lump $-1 $-1 $22 $4 #
transform $-1 1 0 0 0 1 0 0 0 1 51.850947599719234 25.788595020374899 12.278761752704762 1 rotate no_reflect no_shear #
lump $-1 $-1 $23 $5 #
transform $-1 1 0 0 0 1 0 0 0 1 51.850947599719234 25.788595020374899 12.278761752704762 1 rotate no_reflect no_shear #
shell $-1 $-1 $-1 $24 $-1 $6 #
shell $-1 $-1 $-1 $25 $-1 $8 #
shell $-1 $-1 $-1 $26 $-1 $10 #
shell $-1 $-1 $-1 $27 $-1 $12 #
shell $-1 $-1 $-1 $28 $-1 $14 #
shell $-1 $-1 $-1 $29 $-1 $16 #
face $-1 $30 $31 $18 $-1 $32 forward single #
face $-1 $33 $34 $19 $-1 $35 forward single #
face $-1 $36 $37 $20 $-1 $38 reversed single #
face $-1 $39 $40 $21 $-1 $41 forward single #
face $-1 $42 $43 $22 $-1 $44 forward single #
face $-1 $45 $46 $23 $-1 $47 forward single #
face $-1 $48 $49 $18 $-1 $50 reversed single #
loop $-1 $-1 $51 $24 #
plane-surface $-1 0 0 12.278761752704762 0 0 1 1 0 0 forward_v I I I I #
face $-1 $52 $53 $19 $-1 $54 reversed single #
loop $-1 $-1 $55 $25 #
plane-surface $-1 -47.546564656541996 0 -0.46061751446017318 0 0 1 1 0 0 forward_v I I I I #
face $-1 $56 $57 $20 $-1 $58 reversed single #
loop $-1 $-1 $59 $26 #
plane-surface $-1 16.371499619353841 -15.539883955838697 146.30721013284906 0 -1 0 -0.51503808176128008 0 -0.85716729658548041 forward_v I I I I #
face $-1 $60 $61 $21 $-1 $62 forward single #
loop $-1 $63 $64 $27 #
cone-surface $-1 44.710093600971859 -23.738852807467659 7.7142531257733831 -0.51503808176128008 0 -0.85716729658548041 0.2142918241463701 0 -0.12875952044032002 1 I I 0 1 0.25 forward I I I I #
face $-1 $65 $66 $22 $-1 $67 forward single #
loop $-1 $68 $69 $28 #
cone-surface $-1 44.710093600971859 -20.664239488106801 7.7142531257733831 -0.51503808176128008 0 -0.85716729658548041 0.2142918241463701 0 -0.12875952044032002 1 I I 0 1 0.25 forward I I I I #
face $-1 $70 $71 $23 $-1 $72 forward single #
loop $-1 $73 $74 $29 #
cone-surface $-1 44.710093600971859 -17.589626168745941 7.7142531257733831 -0.51503808176128008 0 -0.85716729658548041 0.2142918241463701 0 -0.12875952044032002 1 I I 0 1 0.25 forward I I I I #
face $-1 $75 $76 $18 $-1 $77 reversed single #
loop $-1 $-1 $78 $30 #
plane-surface $-1 0 0 -12.278761752704762 0 0 1 1 0 0 forward_v I I I I #
coedge $-1 $79 $80 $81 $82 forward $31 $-1 #
face $-1 $83 $84 $19 $-1 $85 reversed single #
loop $-1 $-1 $86 $33 #
plane-surface $-1 -47.546564656541996 0 -5.6018314032738825 0 0 1 1 0 0 forward_v I I I I #
coedge $-1 $87 $88 $89 $90 forward $34 $-1 #
face $-1 $91 $92 $20 $-1 $93 reversed single #
loop $-1 $-1 $94 $36 #
plane-surface $-1 -37.038925559174245 -20.664239488106798 57.417336973955585 0.51503808176128008 0 0.85716729658548041 0.85716729658548041 0 -0.51503808176128008 forward_v I I I I #
coedge $-1 $95 $96 $97 $98 reversed $37 $-1 #
face $-1 $-1 $99 $21 $-1 $100 forward single #
loop $-1 $101 $102 $39 #
cone-surface $-1 44.388194799871059 -23.738852807467659 7.178523565407458 -0.51503808176128008 0 -0.85716729658548041 0.10714591207318505 0 -0.064379760220160009 1 I I -0.70710678118654746 0.70710678118654746 0.125 forward I I I I #
loop $-1 $-1 $103 $27 #
coedge $-1 $64 $64 $104 $105 reversed $40 $-1 #
face $-1 $-1 $106 $22 $-1 $107 forward single #
loop $-1 $108 $109 $42 #
cone-surface $-1 44.388194799871059 -20.664239488106801 7.178523565407458 -0.51503808176128008 0 -0.85716729658548041 0.10714591207318505 0 -0.064379760220160009 1 I I -0.70710678118654746 0.70710678118654746 0.125 forward I I I I #
loop $-1 $-1 $110 $28 #
coedge $-1 $69 $69 $111 $112 reversed $43 $-1 #
face $-1 $-1 $113 $23 $-1 $114 forward single #
loop $-1 $115 $116 $45 #
cone-surface $-1 44.388194799871059 -17.589626168745941 7.178523565407458 -0.51503808176128008 0 -0.85716729658548041 0.10714591207318505 0 -0.064379760220160009 1 I I -0.70710678118654746 0.70710678118654746 0.125 forward I I I I #
loop $-1 $-1 $117 $29 #
coedge $-1 $74 $74 $118 $119 reversed $46 $-1 #
face $-1 $120 $121 $18 $-1 $122 reversed single #
loop $-1 $-1 $123 $48 #
plane-surface $-1 0 -25.788595020374899 0 0 1 0 0 0 1 forward_v I I I I #
coedge $-1 $124 $125 $126 $127 forward $49 $-1 #
coedge $-1 $128 $51 $129 $130 forward $31 $-1 #
coedge $-1 $51 $128 $131 $132 forward $31 $-1 #
coedge $-1 $133 $134 $51 $82 reversed $135 $-1 #
edge $-1 $136 -25.788595020374899 $137 25.788595020374899 $81 $138 forward 7 unknown #
face $-1 $139 $140 $19 $-1 $141 reversed single #
loop $-1 $-1 $142 $52 #
plane-surface $-1 -43.242181713364758 0 -3.0312244588670278 -1 0 0 0 0 1 forward_v I I I I #
coedge $-1 $143 $144 $145 $146 forward $53 $-1 #
coedge $-1 $147 $55 $148 $149 reversed $34 $-1 #
coedge $-1 $55 $147 $150 $151 reversed $34 $-1 #
coedge $-1 $142 $152 $55 $90 reversed $84 $-1 #
edge $-1 $153 -25.788595020374899 $154 25.788595020374899 $89 $155 forward 7 unknown #
face $-1 $156 $157 $20 $-1 $158 forward single #
loop $-1 $-1 $159 $56 #
plane-surface $-1 0 -25.788595020374899 0 0 1 0 0 0 1 forward_v I I I I #
coedge $-1 $160 $161 $162 $163 reversed $57 $-1 #
coedge $-1 $96 $59 $164 $165 reversed $37 $-1 #
coedge $-1 $59 $95 $160 $166 reversed $37 $-1 #
coedge $-1 $162 $167 $59 $98 forward $157 $-1 #
edge $-1 $168 -43.665197790042313 $169 -29.898527874308883 $97 $170 forward 7 unknown #
loop $-1 $-1 $104 $60 #
plane-surface $-1 -37.038925559174245 -20.664239488106798 57.417336973955585 0.51503808176128008 0 0.85716729658548041 0.85716729658548041 0 -0.51503808176128008 forward_v I I I I #
loop $-1 $-1 $171 $39 #
coedge $-1 $102 $102 $103 $172 reversed $61 $-1 #
coedge $-1 $103 $103 $102 $172 forward $63 $-1 #
coedge $-1 $104 $104 $64 $105 forward $99 $-1 #
edge $-1 $173 0 $173 6.2831853071796004 $104 $174 forward 7 unknown #
loop $-1 $-1 $111 $65 #
plane-surface $-1 -37.038925559174245 -20.664239488106798 57.417336973955585 0.51503808176128008 0 0.85716729658548041 0.85716729658548041 0 -0.51503808176128008 forward_v I I I I #
loop $-1 $-1 $175 $42 #
coedge $-1 $109 $109 $110 $176 reversed $66 $-1 #
coedge $-1 $110 $110 $109 $176 forward $68 $-1 #
coedge $-1 $111 $111 $69 $112 forward $106 $-1 #
edge $-1 $177 0 $177 6.2831853071796004 $111 $178 forward 7 unknown #
loop $-1 $-1 $118 $70 #
plane-surface $-1 -37.038925559174245 -20.664239488106798 57.417336973955585 0.51503808176128008 0 0.85716729658548041 0.85716729658548041 0 -0.51503808176128008 forward_v I I I I #
loop $-1 $-1 $179 $45 #
coedge $-1 $116 $116 $117 $180 reversed $71 $-1 #
coedge $-1 $117 $117 $116 $180 forward $73 $-1 #
coedge $-1 $118 $118 $74 $119 forward $113 $-1 #
edge $-1 $181 0 $181 6.2831853071796004 $118 $182 forward 7 unknown #
face $-1 $183 $184 $18 $-1 $185 reversed single #
loop $-1 $-1 $186 $75 #
plane-surface $-1 -51.850947599719234 0 0 1 0 0 0 0 -1 forward_v I I I I #
coedge $-1 $187 $131 $188 $189 forward $76 $-1 #
coedge $-1 $190 $78 $187 $191 forward $49 $-1 #
coedge $-1 $78 $190 $192 $193 forward $49 $-1 #
coedge $-1 $134 $133 $78 $127 reversed $135 $-1 #
edge $-1 $194 -25.788595020374899 $195 25.788595020374899 $126 $196 forward 7 unknown #
coedge $-1 $80 $79 $197 $198 forward $31 $-1 #
coedge $-1 $199 $200 $79 $130 reversed $184 $-1 #
edge $-1 $137 -51.850947599719234 $201 51.850947599719234 $129 $202 forward 7 unknown #
coedge $-1 $123 $203 $80 $132 reversed $76 $-1 #
edge $-1 $204 -51.850947599719234 $136 51.850947599719234 $131 $205 forward 7 unknown #
coedge $-1 $126 $81 $203 $206 forward $135 $-1 #
coedge $-1 $81 $126 $199 $207 reversed $135 $-1 #
loop $-1 $-1 $133 $183 #
vertex $-1 $82 $208 #
vertex $-1 $82 $209 #
straight-curve $-1 51.850947599719234 0 12.278761752704762 0 1 0 I I #
face $-1 $210 $211 $19 $-1 $212 reversed single #
loop $-1 $-1 $213 $83 #
plane-surface $-1 0 -25.788595020374899 0 0 1 0 0 0 1 forward_v I I I I #
coedge $-1 $145 $89 $214 $215 reversed $84 $-1 #
coedge $-1 $216 $86 $213 $217 reversed $53 $-1 #
coedge $-1 $86 $216 $218 $219 reversed $53 $-1 #
coedge $-1 $152 $142 $86 $146 reversed $84 $-1 #
edge $-1 $220 -25.788595020374899 $221 25.788595020374899 $145 $222 forward 7 unknown #
coedge $-1 $88 $87 $223 $224 reversed $34 $-1 #
coedge $-1 $225 $226 $87 $149 forward $227 $-1 #
edge $-1 $228 -28.077665271448236 $154 -19.46889938509376 $148 $229 forward 7 unknown #
coedge $-1 $230 $214 $88 $151 forward $140 $-1 #
edge $-1 $153 19.46889938509376 $231 28.077665271448236 $150 $232 forward 7 unknown #
coedge $-1 $89 $145 $225 $233 reversed $84 $-1 #
vertex $-1 $151 $234 #
vertex $-1 $149 $235 #
straight-curve $-1 -43.242181713364758 0 -0.46061751446017318 0 1 0 I I #
face $-1 $-1 $236 $20 $-1 $237 reversed single #
loop $-1 $-1 $162 $91 #
plane-surface $-1 0 0 12.278761752704762 0 0 1 1 0 0 forward_v I I I I #
coedge $-1 $238 $239 $161 $240 forward $92 $-1 #
coedge $-1 $241 $94 $96 $166 forward $57 $-1 #
coedge $-1 $94 $241 $159 $240 reversed $57 $-1 #
coedge $-1 $242 $97 $94 $163 forward $157 $-1 #
edge $-1 $169 5.2077642117852978 $243 15.4564752763215 $162 $244 forward 7 unknown #
coedge $-1 $245 $246 $95 $165 forward $236 $-1 #
edge $-1 $247 -69.146693270997034 $168 -60.874843313719772 $164 $248 forward 7 unknown #
edge $-1 $169 87.641238230171368 $247 103.70189519943847 $96 $249 forward 7 unknown #
coedge $-1 $97 $242 $245 $250 forward $157 $-1 #
vertex $-1 $165 $251 #
vertex $-1 $98 $252 #
straight-curve $-1 8.1857498096769206 -15.539883955838697 12.278761752704767 -1 0 0 I I #
coedge $-1 $171 $171 $-1 $253 reversed $101 $-1 #
edge $-1 $254 0 $254 6.2831853071796004 $102 $255 forward 7 unknown #
vertex $-1 $105 $256 #
ellipse-curve $-1 44.967612641852504 -23.738852807467659 8.1428367740661347 0.51503808176128008 0 0.85716729658548041 0.2142918241463701 0 -0.12875952044032002 1 I I #
coedge $-1 $175 $175 $-1 $257 reversed $108 $-1 #
edge $-1 $258 0 $258 6.2831853071796004 $109 $259 forward 7 unknown #
vertex $-1 $112 $260 #
ellipse-curve $-1 44.967612641852504 -20.664239488106801 8.1428367740661347 0.51503808176128008 0 0.85716729658548041 0.2142918241463701 0 -0.12875952044032002 1 I I #
coedge $-1 $179 $179 $-1 $261 reversed $115 $-1 #
edge $-1 $262 0 $262 6.2831853071796004 $116 $263 forward 7 unknown #
vertex $-1 $119 $264 #
ellipse-curve $-1 44.967612641852504 -17.589626168745941 8.1428367740661347 0.51503808176128008 0 0.85716729658548041 0.2142918241463701 0 -0.12875952044032002 1 I I #
face $-1 $-1 $135 $18 $-1 $265 reversed single #
loop $-1 $-1 $199 $120 #
plane-surface $-1 0 25.788595020374899 0 0 -1 0 0 0 -1 forward_v I I I I #
coedge $-1 $266 $197 $200 $267 forward $121 $-1 #
coedge $-1 $203 $123 $124 $191 reversed $76 $-1 #
coedge $-1 $197 $266 $123 $189 reversed $121 $-1 #
edge $-1 $204 -12.278761752704762 $268 12.278761752704762 $188 $269 forward 7 unknown #
coedge $-1 $125 $124 $266 $270 forward $49 $-1 #
edge $-1 $195 -51.850947599719234 $268 51.850947599719234 $187 $271 forward 7 unknown #
coedge $-1 $200 $199 $125 $193 reversed $184 $-1 #
edge $-1 $272 -51.850947599719234 $194 51.850947599719234 $192 $273 forward 7 unknown #
vertex $-1 $127 $274 #
vertex $-1 $206 $275 #
straight-curve $-1 51.850947599719234 0 -12.278761752704762 0 -1 0 I I #
coedge $-1 $186 $188 $128 $198 reversed $121 $-1 #
edge $-1 $201 -25.788595020374899 $204 25.788595020374899 $197 $276 forward 7 unknown #
coedge $-1 $192 $129 $134 $207 forward $184 $-1 #
coedge $-1 $129 $192 $186 $267 reversed $184 $-1 #
vertex $-1 $130 $277 #
straight-curve $-1 0 25.788595020374899 12.278761752704762 -1 0 0 I I #
coedge $-1 $131 $187 $133 $206 reversed $76 $-1 #
vertex $-1 $198 $278 #
straight-curve $-1 0 -25.788595020374899 12.278761752704762 1 0 0 I I #
edge $-1 $136 -12.278761752704762 $195 12.278761752704762 $133 $279 forward 7 unknown #
edge $-1 $137 -12.278761752704762 $194 12.278761752704762 $134 $280 forward 7 unknown #
point $-1 51.850947599719234 -25.788595020374899 12.278761752704762 #
point $-1 51.850947599719234 25.788595020374899 12.278761752704762 #
face $-1 $-1 $227 $19 $-1 $281 reversed single #
loop $-1 $-1 $282 $139 #
plane-surface $-1 -51.850947599719234 0 0 1 0 0 0 0 -1 forward_v I I I I #
coedge $-1 $214 $230 $143 $217 forward $140 $-1 #
coedge $-1 $150 $213 $142 $215 forward $140 $-1 #
edge $-1 $221 -4.0862191738403686 $153 1.0549947149733407 $214 $283 forward 7 unknown #
coedge $-1 $144 $143 $282 $284 reversed $53 $-1 #
edge $-1 $285 -28.077665271448236 $221 -19.46889938509376 $213 $286 forward 7 unknown #
coedge $-1 $226 $225 $144 $219 forward $227 $-1 #
edge $-1 $220 19.46889938509376 $287 28.077665271448236 $218 $288 forward 7 unknown #
vertex $-1 $219 $289 #
vertex $-1 $217 $290 #
straight-curve $-1 -43.242181713364758 0 -5.6018314032738825 0 -1 0 I I #
coedge $-1 $291 $292 $147 $224 forward $211 $-1 #
edge $-1 $231 -25.788595020374899 $228 25.788595020374899 $223 $293 forward 7 unknown #
coedge $-1 $218 $148 $152 $233 forward $227 $-1 #
coedge $-1 $148 $218 $291 $294 reversed $227 $-1 #
loop $-1 $-1 $218 $210 #
vertex $-1 $294 $295 #
straight-curve $-1 -23.773282328270998 25.788595020374899 -0.46061751446017318 1 0 0 I I #
coedge $-1 $213 $150 $292 $296 forward $140 $-1 #
vertex $-1 $296 $297 #
straight-curve $-1 -23.773282328270998 -25.788595020374899 -0.46061751446017318 -1 0 0 I I #
edge $-1 $154 -1.0549947149733407 $220 4.0862191738403686 $225 $298 forward 7 unknown #
point $-1 -43.242181713364758 -25.788595020374899 -0.46061751446017318 #
point $-1 -43.242181713364758 25.788595020374899 -0.46061751446017318 #
loop $-1 $-1 $164 $156 #
plane-surface $-1 51.850947599719234 0 0 -1 0 0 0 0 1 forward_v I I I I #
coedge $-1 $239 $159 $299 $300 reversed $92 $-1 #
coedge $-1 $159 $238 $242 $301 reversed $92 $-1 #
edge $-1 $243 56.98090283772369 $302 73.04155980699079 $159 $303 forward 7 unknown #
coedge $-1 $161 $160 $246 $304 reversed $57 $-1 #
coedge $-1 $167 $162 $239 $301 forward $157 $-1 #
vertex $-1 $301 $305 #
straight-curve $-1 38.08427768398581 -10.332119744053399 12.27876175270476 0 -1 0 I I #
coedge $-1 $299 $164 $167 $250 reversed $236 $-1 #
coedge $-1 $164 $299 $241 $304 forward $236 $-1 #
vertex $-1 $165 $306 #
straight-curve $-1 51.850947599719234 -15.539883955838697 73.153605066424532 0 0 1 I I #
straight-curve $-1 -37.038925559174245 -15.539883955838697 57.417336973955585 0.85716729658548041 0 -0.51503808176128008 I I #
edge $-1 $307 -25.788595020374899 $168 -15.539883955838697 $245 $308 forward 7 unknown #
point $-1 51.850947599719234 -15.539883955838697 12.278761752704762 #
point $-1 38.084277683985803 -15.539883955838697 12.27876175270476 #
edge $-1 $309 1 $309 0 $171 $-1 forward 7 unknown #
vertex $-1 $172 $310 #
ellipse-curve $-1 44.452574560091222 -23.738852807467659 7.285669477480643 0.51503808176128008 0 0.85716729658548041 0.2142918241463701 0 -0.12875952044032002 1 I I #
point $-1 45.181904465998869 -23.738852807467659 8.0140772536258034 #
edge $-1 $311 1 $311 0 $175 $-1 forward 7 unknown #
vertex $-1 $176 $312 #
ellipse-curve $-1 44.452574560091222 -20.664239488106801 7.285669477480643 0.51503808176128008 0 0.85716729658548041 0.2142918241463701 0 -0.12875952044032002 1 I I #
point $-1 45.181904465998869 -20.664239488106801 8.0140772536258034 #
edge $-1 $313 1 $313 0 $179 $-1 forward 7 unknown #
vertex $-1 $180 $314 #
ellipse-curve $-1 44.452574560091222 -17.589626168745941 7.285669477480643 0.51503808176128008 0 0.85716729658548041 0.2142918241463701 0 -0.12875952044032002 1 I I #
point $-1 45.181904465998869 -17.589626168745941 8.0140772536258034 #
plane-surface $-1 51.850947599719234 0 0 -1 0 0 0 0 1 forward_v I I I I #
coedge $-1 $188 $186 $190 $270 reversed $121 $-1 #
edge $-1 $201 -12.278761752704762 $272 12.278761752704762 $200 $315 forward 7 unknown #
vertex $-1 $270 $316 #
straight-curve $-1 -51.850947599719234 -25.788595020374899 0 0 0 -1 I I #
edge $-1 $268 -25.788595020374899 $272 25.788595020374899 $266 $317 forward 7 unknown #
straight-curve $-1 0 -25.788595020374899 -12.278761752704762 -1 0 0 I I #
vertex $-1 $193 $318 #
straight-curve $-1 0 25.788595020374899 -12.278761752704762 1 0 0 I I #
point $-1 51.850947599719234 25.788595020374899 -12.278761752704762 #
point $-1 51.850947599719234 -25.788595020374899 -12.278761752704762 #
straight-curve $-1 -51.850947599719234 0 12.278761752704762 0 -1 0 I I #
point $-1 -51.850947599719234 25.788595020374899 12.278761752704762 #
point $-1 -51.850947599719234 -25.788595020374899 12.278761752704762 #
straight-curve $-1 51.850947599719234 -25.788595020374899 0 0 0 -1 I I #
straight-curve $-1 51.850947599719234 25.788595020374899 0 0 0 -1 I I #
plane-surface $-1 0 25.788595020374899 0 0 -1 0 0 0 -1 forward_v I I I I #
coedge $-1 $292 $291 $216 $284 forward $211 $-1 #
straight-curve $-1 -43.242181713364758 -25.788595020374899 -1.5156122294335139 0 0 1 I I #
edge $-1 $287 -25.788595020374899 $285 25.788595020374899 $282 $319 forward 7 unknown #
vertex $-1 $217 $320 #
straight-curve $-1 -23.773282328270998 -25.788595020374899 -5.6018314032738825 1 0 0 I I #
vertex $-1 $219 $321 #
straight-curve $-1 -23.773282328270998 25.788595020374899 -5.6018314032738825 -1 0 0 I I #
point $-1 -43.242181713364758 25.788595020374899 -5.6018314032738825 #
point $-1 -43.242181713364758 -25.788595020374899 -5.6018314032738825 #
coedge $-1 $282 $223 $226 $294 forward $211 $-1 #
coedge $-1 $223 $282 $230 $296 reversed $211 $-1 #
straight-curve $-1 -51.850947599719234 0 -0.46061751446017318 0 1 0 I I #
edge $-1 $228 0.46061751446017318 $287 5.6018314032738825 $226 $322 forward 7 unknown #
point $-1 -51.850947599719234 25.788595020374899 -0.46061751446017318 #
edge $-1 $231 0.46061751446017318 $285 5.6018314032738825 $292 $323 forward 7 unknown #
point $-1 -51.850947599719234 -25.788595020374899 -0.46061751446017318 #
straight-curve $-1 -43.242181713364758 25.788595020374899 -1.5156122294335139 0 0 -1 I I #
coedge $-1 $246 $245 $238 $300 forward $236 $-1 #
edge $-1 $307 -12.278761752704762 $302 -4.0069117954275022 $299 $324 forward 7 unknown #
edge $-1 $243 38.084277683985796 $307 51.850947599719234 $239 $325 forward 7 unknown #
vertex $-1 $240 $326 #
straight-curve $-1 -10.757888758425747 -25.788595020374899 41.626096647271851 0.85716729658548041 0 -0.51503808176128008 I I #
edge $-1 $302 -15.4564752763215 $247 -5.2077642117852978 $246 $327 forward 7 unknown #
point $-1 38.084277683985796 -25.788595020374899 12.278761752704762 #
point $-1 51.850947599719234 -15.539883955838697 4.0069117954274986 #
vertex $-1 $250 $328 #
straight-curve $-1 51.850947599719234 0 12.278761752704762 0 1 0 I I #
vertex $-1 $253 $329 #
point $-1 44.666866384237586 -23.738852807467659 7.1569099570403232 #
vertex $-1 $257 $330 #
point $-1 44.666866384237586 -20.664239488106801 7.1569099570403232 #
vertex $-1 $261 $331 #
point $-1 44.666866384237586 -17.589626168745941 7.1569099570403232 #
straight-curve $-1 -51.850947599719234 25.788595020374899 0 0 0 -1 I I #
point $-1 -51.850947599719234 -25.788595020374899 -12.278761752704762 #
straight-curve $-1 -51.850947599719234 0 -12.278761752704762 0 1 0 I I #
point $-1 -51.850947599719234 25.788595020374899 -12.278761752704762 #
straight-curve $-1 -51.850947599719234 0 -5.6018314032738825 0 -1 0 I I #
point $-1 -51.850947599719234 -25.788595020374899 -5.6018314032738825 #
point $-1 -51.850947599719234 25.788595020374899 -5.6018314032738825 #
straight-curve $-1 -51.850947599719234 25.788595020374899 0 0 0 -1 I I #
straight-curve $-1 -51.850947599719234 -25.788595020374899 0 0 0 -1 I I #
straight-curve $-1 51.850947599719234 -25.788595020374899 0 0 0 -1 I I #
straight-curve $-1 0 -25.788595020374899 12.278761752704762 1 0 0 I I #
point $-1 51.850947599719234 -25.788595020374899 4.0069117954275022 #
straight-curve $-1 51.850947599719234 -10.332119744053399 4.0069117954275022 0 1 0 I I #
point $-1 51.850947599719234 -25.788595020374899 12.278761752704762 #
point $-1 44.323815039650896 -23.738852807467659 7.0713776533342729 #
point $-1 44.323815039650896 -20.664239488106801 7.0713776533342729 #
point $-1 44.323815039650896 -17.589626168745941 7.0713776533342729 #
End-of-ACIS-data 