500 0 9 0           
7 Unknown 11 ACIS 5.0 NT 24 Thu Mar 25 18:03:16 1999 
-1 9.9999999999999995e-007 1e-010 
body $-1 $9 $-1 $10 #
body $-1 $11 $-1 $12 #
body $-1 $13 $-1 $14 #
body $-1 $15 $-1 $16 #
body $-1 $17 $-1 $18 #
body $-1 $19 $-1 $20 #
body $-1 $21 $-1 $22 #
body $-1 $23 $-1 $24 #
body $-1 $25 $-1 $26 #
lump $-1 $-1 $27 $0 #
transform $-1 1 0 0 0 1 0 0 0 1 61.06265449995422 42.517437894169603 14.509155157476293 1 rotate no_reflect no_shear #
lump $-1 $-1 $28 $1 #
transform $-1 1 0 0 0 1 0 0 0 1 61.06265449995422 42.517437894169603 14.509155157476293 1 rotate no_reflect no_shear #
lump $-1 $-1 $29 $2 #
transform $-1 1 0 0 0 1 0 0 0 1 61.06265449995422 42.517437894169603 14.509155157476293 1 rotate no_reflect no_shear #
lump $-1 $-1 $30 $3 #
transform $-1 1 0 0 0 1 0 0 0 1 61.06265449995422 42.517437894169603 14.509155157476293 1 rotate no_reflect no_shear #
lump $-1 $-1 $31 $4 #
transform $-1 1 0 0 0 1 0 0 0 1 61.06265449995422 42.517437894169603 14.509155157476293 1 rotate no_reflect no_shear #
lump $-1 $-1 $32 $5 #
transform $-1 1 0 0 0 1 0 0 0 1 61.06265449995422 42.517437894169603 14.509155157476293 1 rotate no_reflect no_shear #
lump $-1 $-1 $33 $6 #
transform $-1 1 0 0 0 1 0 0 0 1 61.06265449995422 42.517437894169603 14.509155157476293 1 rotate no_reflect no_shear #
lump $-1 $-1 $34 $7 #
transform $-1 1 0 0 0 1 0 0 0 1 61.06265449995422 42.517437894169603 14.509155157476293 1 rotate no_reflect no_shear #
lump $-1 $-1 $35 $8 #
transform $-1 1 0 0 0 1 0 0 0 1 61.06265449995422 42.517437894169603 14.509155157476293 1 rotate no_reflect no_shear #
shell $-1 $-1 $-1 $36 $-1 $9 #
shell $-1 $-1 $-1 $37 $-1 $11 #
shell $-1 $-1 $-1 $38 $-1 $13 #
shell $-1 $-1 $-1 $39 $-1 $15 #
shell $-1 $-1 $-1 $40 $-1 $17 #
shell $-1 $-1 $-1 $41 $-1 $19 #
shell $-1 $-1 $-1 $42 $-1 $21 #
shell $-1 $-1 $-1 $43 $-1 $23 #
shell $-1 $-1 $-1 $44 $-1 $25 #
face $-1 $45 $46 $27 $-1 $47 forward single #
face $-1 $48 $49 $28 $-1 $50 reversed single #
face $-1 $51 $52 $29 $-1 $53 reversed single #
face $-1 $54 $55 $30 $-1 $56 reversed single #
face $-1 $57 $58 $31 $-1 $59 forward single #
face $-1 $60 $61 $32 $-1 $62 forward single #
face $-1 $63 $64 $33 $-1 $65 reversed single #
face $-1 $66 $67 $34 $-1 $68 forward single #
face $-1 $69 $70 $35 $-1 $71 forward single #
face $-1 $72 $73 $27 $-1 $74 reversed single #
loop $-1 $-1 $75 $36 #
plane-surface $-1 0 0 14.509155157476293 0 0 1 1 0 0 forward_v I I I I #
face $-1 $76 $77 $28 $-1 $78 reversed single #
loop $-1 $-1 $79 $37 #
plane-surface $-1 -51.567418264564068 -25.995431225119113 0 0 1 0 0 0 1 forward_v I I I I #
face $-1 $80 $81 $29 $-1 $82 reversed single #
loop $-1 $-1 $83 $38 #
plane-surface $-1 51.567418264564068 -25.995431225119113 0 0 1 0 0 0 1 forward_v I I I I #
face $-1 $84 $85 $30 $-1 $86 reversed single #
loop $-1 $-1 $87 $39 #
plane-surface $-1 -20.744779143112293 -114.30089437305617 108.65309268699241 -1 0 0 0 -0.5877852598018023 0.80901698891910034 forward_v I I I I #
face $-1 $88 $89 $31 $-1 $90 forward single #
loop $-1 $91 $92 $40 #
cone-surface $-1 -29.626070780912396 -37.606984915065269 9.8333992051621149 0 0.5877852598018023 -0.80901698891910034 1.5 0 0 1 I I 0 1 1.5 forward I I I I #
face $-1 $93 $94 $32 $-1 $95 forward single #
loop $-1 $96 $97 $41 #
cone-surface $-1 -24.297295798232334 -37.606984915065269 9.8333992051621149 0 0.5877852598018023 -0.80901698891910034 1.5 0 0 1 I I 0 1 1.5 forward I I I I #
face $-1 $98 $99 $33 $-1 $100 reversed single #
loop $-1 $-1 $101 $42 #
plane-surface $-1 14.94364344464293 53.288876301649125 149.48833839118879 1 0 0 0 -0.62932039886446345 -0.77714595512881146 forward_v I I I I #
face $-1 $102 $103 $34 $-1 $104 forward single #
loop $-1 $105 $106 $43 #
cone-surface $-1 21.37755860200123 31.75166633460007 4.7434388093362738 0 -0.62932039886446345 -0.77714595512881146 2 0 0 1 I I 0 1 2 forward I I I I #
face $-1 $107 $108 $35 $-1 $109 forward single #
loop $-1 $110 $111 $44 #
cone-surface $-1 31.028431338038672 31.75166633460007 4.7434388093362738 0 -0.62932039886446345 -0.77714595512881146 2 0 0 1 I I 0 1 2 forward I I I I #
face $-1 $112 $113 $27 $-1 $114 reversed single #
loop $-1 $-1 $115 $45 #
plane-surface $-1 0 0 -14.509155157476293 0 0 1 1 0 0 forward_v I I I I #
coedge $-1 $116 $117 $118 $119 forward $46 $-1 #
face $-1 $120 $121 $28 $-1 $122 reversed single #
loop $-1 $-1 $123 $48 #
plane-surface $-1 -51.567418264564068 -20.764483822630929 0 0 -1 0 0 0 -1 forward_v I I I I #
coedge $-1 $124 $125 $126 $127 reversed $49 $-1 #
face $-1 $128 $129 $29 $-1 $130 reversed single #
loop $-1 $-1 $131 $51 #
plane-surface $-1 42.072182029173916 -23.379957523875021 0 1 0 0 0 0 -1 forward_v I I I I #
coedge $-1 $132 $133 $134 $135 forward $52 $-1 #
face $-1 $136 $137 $30 $-1 $138 reversed single #
loop $-1 $-1 $139 $54 #
plane-surface $-1 -26.961683289572363 -42.517437894169603 9.8516429290717724 0 -0.5877852598018023 0.80901698891910034 1 0 0 forward_v I I I I #
coedge $-1 $140 $141 $142 $143 reversed $55 $-1 #
face $-1 $-1 $144 $31 $-1 $145 forward single #
loop $-1 $146 $147 $57 #
cone-surface $-1 -29.626070780912396 -35.460950741319465 6.8796366253608596 0 0.5877852598018023 -0.80901698891910034 0.75 0 0 1 I I -0.70710678118654757 0.70710678118654757 0.75 forward I I I I #
loop $-1 $-1 $148 $40 #
coedge $-1 $92 $92 $149 $150 reversed $58 $-1 #
face $-1 $-1 $151 $32 $-1 $152 forward single #
loop $-1 $153 $154 $60 #
cone-surface $-1 -24.297295798232334 -35.460950741319465 6.8796366253608596 0 0.5877852598018023 -0.80901698891910034 0.75 0 0 1 I I -0.70710678118654757 0.70710678118654757 0.75 forward I I I I #
loop $-1 $-1 $155 $41 #
coedge $-1 $97 $97 $156 $157 reversed $61 $-1 #
face $-1 $158 $159 $33 $-1 $160 reversed single #
loop $-1 $-1 $161 $63 #
plane-surface $-1 26.202994970019958 -23.567071869619113 54.5791484830537 0 0.62932039886446345 0.77714595512881146 1 0 0 forward_v I I I I #
coedge $-1 $162 $163 $164 $165 reversed $64 $-1 #
face $-1 $-1 $166 $34 $-1 $167 forward single #
loop $-1 $168 $169 $66 #
cone-surface $-1 21.37755860200123 28.65766935668114 0.92267081753259816 0 -0.62932039886446345 -0.77714595512881146 1 0 0 1 I I -0.70710678118654735 0.70710678118654768 1 forward I I I I #
loop $-1 $-1 $170 $43 #
coedge $-1 $106 $106 $171 $172 reversed $67 $-1 #
face $-1 $-1 $173 $35 $-1 $174 forward single #
loop $-1 $175 $176 $69 #
cone-surface $-1 31.028431338038672 28.65766935668114 0.92267081753259816 0 -0.62932039886446345 -0.77714595512881146 1 0 0 1 I I -0.70710678118654735 0.70710678118654768 1 forward I I I I #
loop $-1 $-1 $177 $44 #
coedge $-1 $111 $111 $178 $179 reversed $70 $-1 #
face $-1 $180 $181 $27 $-1 $182 reversed single #
loop $-1 $-1 $183 $72 #
plane-surface $-1 0 -42.517437894169603 0 0 1 0 0 0 1 forward_v I I I I #
coedge $-1 $184 $185 $186 $187 forward $73 $-1 #
coedge $-1 $188 $75 $189 $190 forward $46 $-1 #
coedge $-1 $75 $188 $191 $192 forward $46 $-1 #
coedge $-1 $193 $194 $75 $119 reversed $195 $-1 #
edge $-1 $196 -42.517437894169603 $197 42.517437894169603 $118 $198 forward 7 unknown #
face $-1 $199 $200 $28 $-1 $201 reversed single #
loop $-1 $-1 $202 $76 #
plane-surface $-1 -42.072182029173916 -23.379957523875021 0 -1 0 0 0 0 1 forward_v I I I I #
coedge $-1 $203 $204 $205 $206 forward $77 $-1 #
coedge $-1 $207 $79 $208 $209 reversed $49 $-1 #
coedge $-1 $79 $207 $210 $211 reversed $49 $-1 #
coedge $-1 $212 $213 $79 $127 forward $214 $-1 #
edge $-1 $215 -14.509155157476293 $216 14.509155157476293 $126 $217 forward 7 unknown #
face $-1 $218 $219 $29 $-1 $220 reversed single #
loop $-1 $-1 $221 $80 #
plane-surface $-1 51.567418264564068 -20.764483822630929 0 0 -1 0 0 0 -1 forward_v I I I I #
coedge $-1 $222 $223 $224 $225 forward $81 $-1 #
coedge $-1 $226 $83 $227 $228 reversed $52 $-1 #
coedge $-1 $83 $226 $229 $230 reversed $52 $-1 #
coedge $-1 $223 $222 $83 $135 reversed $81 $-1 #
edge $-1 $231 -14.509155157476293 $232 14.509155157476293 $134 $233 forward 7 unknown #
face $-1 $234 $235 $30 $-1 $236 forward single #
loop $-1 $-1 $237 $84 #
plane-surface $-1 -33.17858743603243 -114.30089437305617 108.65309268699241 1 0 0 0 0.5877852598018023 -0.80901698891910034 forward_v I I I I #
coedge $-1 $238 $239 $240 $241 reversed $85 $-1 #
coedge $-1 $141 $87 $242 $243 reversed $55 $-1 #
coedge $-1 $87 $140 $238 $244 reversed $55 $-1 #
coedge $-1 $240 $245 $87 $143 forward $235 $-1 #
edge $-1 $246 14.63300929235848 $247 21.04352479277825 $142 $248 forward 7 unknown #
loop $-1 $-1 $149 $88 #
plane-surface $-1 -26.961683289572363 -42.517437894169603 9.8516429290717724 0 -0.5877852598018023 0.80901698891910034 1 0 0 forward_v I I I I #
loop $-1 $-1 $249 $57 #
coedge $-1 $147 $147 $148 $250 reversed $89 $-1 #
coedge $-1 $148 $148 $147 $250 forward $91 $-1 #
coedge $-1 $149 $149 $92 $150 forward $144 $-1 #
edge $-1 $251 -4.1841607066144011e-015 $251 6.283185307179596 $149 $252 forward 7 unknown #
loop $-1 $-1 $156 $93 #
plane-surface $-1 -26.961683289572363 -42.517437894169603 9.8516429290717724 0 -0.5877852598018023 0.80901698891910034 1 0 0 forward_v I I I I #
loop $-1 $-1 $253 $60 #
coedge $-1 $154 $154 $155 $254 reversed $94 $-1 #
coedge $-1 $155 $155 $154 $254 forward $96 $-1 #
coedge $-1 $156 $156 $97 $157 forward $151 $-1 #
edge $-1 $255 -4.1841607066144011e-015 $255 6.283185307179596 $156 $256 forward 7 unknown #
face $-1 $257 $258 $33 $-1 $259 reversed single #
loop $-1 $-1 $260 $98 #
plane-surface $-1 37.462346495396986 53.288876301649125 149.48833839118879 -1 0 0 0 0.62932039886446345 0.77714595512881146 forward_v I I I I #
coedge $-1 $261 $262 $263 $264 reversed $99 $-1 #
coedge $-1 $163 $101 $265 $266 reversed $64 $-1 #
coedge $-1 $101 $162 $261 $267 reversed $64 $-1 #
coedge $-1 $263 $268 $101 $165 forward $269 $-1 #
edge $-1 $270 -15.872999743345041 $271 0.72919021768511527 $164 $272 forward 7 unknown #
loop $-1 $-1 $171 $102 #
plane-surface $-1 26.202994970019958 -23.567071869619113 54.5791484830537 0 0.62932039886446345 0.77714595512881146 1 0 0 forward_v I I I I #
loop $-1 $-1 $273 $66 #
coedge $-1 $169 $169 $170 $274 reversed $103 $-1 #
coedge $-1 $170 $170 $169 $274 forward $105 $-1 #
coedge $-1 $171 $171 $106 $172 forward $166 $-1 #
edge $-1 $275 -3.3766921531849239e-017 $275 6.2831853071796004 $171 $276 forward 7 unknown #
loop $-1 $-1 $178 $107 #
plane-surface $-1 26.202994970019958 -23.567071869619113 54.5791484830537 0 0.62932039886446345 0.77714595512881146 1 0 0 forward_v I I I I #
loop $-1 $-1 $277 $69 #
coedge $-1 $176 $176 $177 $278 reversed $108 $-1 #
coedge $-1 $177 $177 $176 $278 forward $110 $-1 #
coedge $-1 $178 $178 $111 $179 forward $173 $-1 #
edge $-1 $279 -3.3766921531849239e-017 $279 6.2831853071796004 $178 $280 forward 7 unknown #
face $-1 $281 $282 $27 $-1 $283 reversed single #
loop $-1 $-1 $284 $112 #
plane-surface $-1 -61.06265449995422 0 0 1 0 0 0 0 -1 forward_v I I I I #
coedge $-1 $285 $191 $286 $287 forward $113 $-1 #
coedge $-1 $288 $115 $285 $289 forward $73 $-1 #
coedge $-1 $115 $288 $290 $291 forward $73 $-1 #
coedge $-1 $194 $193 $115 $187 reversed $195 $-1 #
edge $-1 $292 -42.517437894169603 $293 42.517437894169603 $186 $294 forward 7 unknown #
coedge $-1 $117 $116 $295 $296 forward $46 $-1 #
coedge $-1 $297 $298 $116 $190 reversed $282 $-1 #
edge $-1 $197 -61.06265449995422 $299 61.06265449995422 $189 $300 forward 7 unknown #
coedge $-1 $183 $301 $117 $192 reversed $113 $-1 #
edge $-1 $302 -61.06265449995422 $196 61.06265449995422 $191 $303 forward 7 unknown #
coedge $-1 $186 $118 $301 $304 forward $195 $-1 #
coedge $-1 $118 $186 $297 $305 reversed $195 $-1 #
loop $-1 $-1 $193 $281 #
vertex $-1 $119 $306 #
vertex $-1 $119 $307 #
straight-curve $-1 61.06265449995422 0 14.509155157476293 0 1 0 I I #
face $-1 $308 $309 $28 $-1 $310 forward single #
loop $-1 $-1 $311 $120 #
plane-surface $-1 0 0 -14.509155157476293 0 0 1 1 0 0 forward_v I I I I #
coedge $-1 $312 $313 $207 $314 forward $121 $-1 #
coedge $-1 $315 $123 $311 $316 reversed $77 $-1 #
coedge $-1 $123 $315 $317 $318 reversed $77 $-1 #
coedge $-1 $313 $312 $123 $206 reversed $121 $-1 #
edge $-1 $319 -14.509155157476293 $320 14.509155157476293 $205 $321 forward 7 unknown #
coedge $-1 $125 $124 $202 $314 reversed $49 $-1 #
coedge $-1 $322 $323 $124 $209 forward $200 $-1 #
edge $-1 $324 16.288472896891882 $215 35.278945367672186 $208 $325 forward 7 unknown #
coedge $-1 $326 $327 $125 $211 forward $309 $-1 #
edge $-1 $216 -35.278945367672186 $328 -16.288472896891882 $210 $329 forward 7 unknown #
coedge $-1 $330 $126 $327 $331 reversed $214 $-1 #
coedge $-1 $126 $330 $322 $332 reversed $214 $-1 #
loop $-1 $-1 $330 $308 #
vertex $-1 $332 $333 #
vertex $-1 $127 $334 #
straight-curve $-1 -61.06265449995422 -25.995431225119113 0 0 0 1 I I #
face $-1 $335 $336 $29 $-1 $337 forward single #
loop $-1 $-1 $227 $128 #
plane-surface $-1 0 0 -14.509155157476293 0 0 1 1 0 0 forward_v I I I I #
coedge $-1 $338 $339 $340 $341 reversed $129 $-1 #
coedge $-1 $134 $131 $342 $343 reversed $81 $-1 #
coedge $-1 $131 $134 $344 $345 reversed $81 $-1 #
coedge $-1 $339 $338 $131 $225 reversed $129 $-1 #
edge $-1 $346 -14.509155157476293 $347 14.509155157476293 $224 $348 forward 7 unknown #
coedge $-1 $133 $132 $349 $350 reversed $52 $-1 #
coedge $-1 $342 $351 $132 $228 forward $219 $-1 #
edge $-1 $352 -35.278945367672186 $232 -16.288472896891882 $227 $353 forward 7 unknown #
coedge $-1 $354 $344 $133 $230 forward $336 $-1 #
edge $-1 $231 16.288472896891882 $355 35.278945367672186 $229 $356 forward 7 unknown #
vertex $-1 $230 $357 #
vertex $-1 $228 $358 #
straight-curve $-1 42.072182029173916 -25.995431225119113 0 0 0 -1 I I #
face $-1 $-1 $359 $30 $-1 $360 reversed single #
loop $-1 $-1 $142 $136 #
plane-surface $-1 0 0 14.509155157476293 0 0 1 1 0 0 forward_v I I I I #
coedge $-1 $361 $362 $363 $364 reversed $137 $-1 #
coedge $-1 $365 $139 $141 $244 forward $85 $-1 #
coedge $-1 $139 $365 $361 $366 forward $85 $-1 #
coedge $-1 $363 $142 $139 $241 forward $235 $-1 #
edge $-1 $247 7.2639374983261114 $367 19.697745791246248 $240 $368 forward 7 unknown #
coedge $-1 $369 $370 $140 $243 forward $359 $-1 #
edge $-1 $371 -44.474903414424432 $246 -39.817391186019911 $242 $372 forward 7 unknown #
edge $-1 $247 -7.9238329827716445 $371 0 $141 $373 forward 7 unknown #
coedge $-1 $142 $363 $369 $374 forward $235 $-1 #
vertex $-1 $143 $375 #
vertex $-1 $143 $376 #
straight-curve $-1 -20.744779143112293 -57.150447186528083 14.509155157476293 0 1 0 I I #
coedge $-1 $249 $249 $-1 $377 reversed $146 $-1 #
edge $-1 $378 0 $378 6.2831853071796004 $147 $379 forward 7 unknown #
vertex $-1 $150 $380 #
ellipse-curve $-1 -29.626070780912396 -39.312180143959715 12.180399043274035 0 -0.5877852598018023 0.80901698891910034 1.5 0 0 1 I I #
coedge $-1 $253 $253 $-1 $381 reversed $153 $-1 #
edge $-1 $382 0 $382 6.2831853071796004 $154 $383 forward 7 unknown #
vertex $-1 $157 $384 #
ellipse-curve $-1 -24.297295798232334 -39.312180143959715 12.180399043274035 0 -0.5877852598018023 0.80901698891910034 1.5 0 0 1 I I #
face $-1 $-1 $269 $33 $-1 $385 forward single #
loop $-1 $-1 $386 $158 #
plane-surface $-1 0 42.517437894169603 0 0 -1 0 0 0 -1 forward_v I I I I #
coedge $-1 $387 $388 $389 $390 reversed $159 $-1 #
coedge $-1 $391 $161 $163 $267 forward $99 $-1 #
coedge $-1 $161 $391 $387 $392 forward $99 $-1 #
coedge $-1 $389 $164 $161 $264 forward $269 $-1 #
edge $-1 $271 1.8421459596329512 $393 24.360849010387007 $263 $394 forward 7 unknown #
coedge $-1 $395 $396 $162 $266 forward $258 $-1 #
edge $-1 $397 -73.679202661048436 $270 -60.235014038118102 $265 $398 forward 7 unknown #
edge $-1 $271 63.671848867252862 $397 85.034875788339207 $163 $399 forward 7 unknown #
coedge $-1 $164 $389 $395 $400 forward $269 $-1 #
loop $-1 $-1 $389 $257 #
vertex $-1 $266 $401 #
vertex $-1 $165 $402 #
straight-curve $-1 14.94364344464293 26.644438150824563 14.5091551574763 0 -1 0 I I #
coedge $-1 $273 $273 $-1 $403 reversed $168 $-1 #
edge $-1 $404 0 $404 6.2831853071796004 $169 $405 forward 7 unknown #
vertex $-1 $172 $406 #
ellipse-curve $-1 21.37755860200123 34.216342913654529 7.7870608460111281 0 0.62932039886446345 0.77714595512881146 2 0 0 1 I I #
coedge $-1 $277 $277 $-1 $407 reversed $175 $-1 #
edge $-1 $408 0 $408 6.2831853071796004 $176 $409 forward 7 unknown #
vertex $-1 $179 $410 #
ellipse-curve $-1 31.028431338038672 34.216342913654529 7.7870608460111281 0 0.62932039886446345 0.77714595512881146 2 0 0 1 I I #
face $-1 $-1 $195 $27 $-1 $411 reversed single #
loop $-1 $-1 $297 $180 #
plane-surface $-1 0 42.517437894169603 0 0 -1 0 0 0 -1 forward_v I I I I #
coedge $-1 $412 $295 $298 $413 forward $181 $-1 #
coedge $-1 $301 $183 $184 $289 reversed $113 $-1 #
coedge $-1 $295 $412 $183 $287 reversed $181 $-1 #
edge $-1 $302 -14.509155157476293 $414 14.509155157476293 $286 $415 forward 7 unknown #
coedge $-1 $185 $184 $412 $416 forward $73 $-1 #
edge $-1 $293 -61.06265449995422 $414 61.06265449995422 $285 $417 forward 7 unknown #
coedge $-1 $298 $297 $185 $291 reversed $282 $-1 #
edge $-1 $418 -61.06265449995422 $292 61.06265449995422 $290 $419 forward 7 unknown #
vertex $-1 $187 $420 #
vertex $-1 $304 $421 #
straight-curve $-1 61.06265449995422 0 -14.509155157476293 0 -1 0 I I #
coedge $-1 $284 $286 $188 $296 reversed $181 $-1 #
edge $-1 $299 -42.517437894169603 $302 42.517437894169603 $295 $422 forward 7 unknown #
coedge $-1 $290 $189 $194 $305 forward $282 $-1 #
coedge $-1 $189 $290 $284 $413 reversed $282 $-1 #
vertex $-1 $190 $423 #
straight-curve $-1 0 42.517437894169603 14.509155157476293 -1 0 0 I I #
coedge $-1 $191 $285 $193 $304 reversed $113 $-1 #
vertex $-1 $296 $424 #
straight-curve $-1 0 -42.517437894169603 14.509155157476293 1 0 0 I I #
edge $-1 $196 -14.509155157476293 $293 14.509155157476293 $193 $425 forward 7 unknown #
edge $-1 $197 -14.509155157476293 $292 14.509155157476293 $194 $426 forward 7 unknown #
point $-1 61.06265449995422 -42.517437894169603 14.509155157476293 #
point $-1 61.06265449995422 42.517437894169603 14.509155157476293 #
face $-1 $-1 $214 $28 $-1 $427 reversed single #
loop $-1 $-1 $317 $199 #
plane-surface $-1 0 0 14.509155157476293 0 0 1 1 0 0 forward_v I I I I #
coedge $-1 $323 $322 $203 $316 forward $200 $-1 #
coedge $-1 $205 $202 $323 $428 reversed $121 $-1 #
coedge $-1 $202 $205 $326 $429 reversed $121 $-1 #
edge $-1 $328 -14.509155157476293 $324 14.509155157476293 $202 $430 forward 7 unknown #
coedge $-1 $204 $203 $330 $431 reversed $77 $-1 #
edge $-1 $432 -35.278945367672186 $320 -16.288472896891882 $311 $433 forward 7 unknown #
coedge $-1 $327 $326 $204 $318 forward $309 $-1 #
edge $-1 $319 16.288472896891882 $434 35.278945367672186 $317 $435 forward 7 unknown #
vertex $-1 $318 $436 #
vertex $-1 $316 $437 #
straight-curve $-1 -42.072182029173916 -20.764483822630929 0 0 0 -1 I I #
coedge $-1 $311 $208 $213 $332 forward $200 $-1 #
coedge $-1 $208 $311 $312 $428 forward $200 $-1 #
vertex $-1 $209 $438 #
straight-curve $-1 -25.783709132282034 -25.995431225119113 -14.509155157476293 -1 0 0 I I #
coedge $-1 $317 $210 $313 $429 forward $309 $-1 #
coedge $-1 $210 $317 $212 $331 forward $309 $-1 #
vertex $-1 $211 $439 #
straight-curve $-1 -25.783709132282034 -25.995431225119113 14.509155157476293 1 0 0 I I #
coedge $-1 $213 $212 $315 $431 forward $214 $-1 #
edge $-1 $434 20.764483822630929 $216 25.995431225119113 $212 $440 forward 7 unknown #
edge $-1 $215 -25.995431225119113 $432 -20.764483822630929 $213 $441 forward 7 unknown #
point $-1 -61.06265449995422 -25.995431225119113 -14.509155157476293 #
point $-1 -61.06265449995422 -25.995431225119113 14.509155157476293 #
face $-1 $-1 $442 $29 $-1 $443 reversed single #
loop $-1 $-1 $229 $218 #
plane-surface $-1 0 0 14.509155157476293 0 0 1 1 0 0 forward_v I I I I #
coedge $-1 $224 $221 $444 $445 reversed $129 $-1 #
coedge $-1 $221 $224 $446 $447 reversed $129 $-1 #
coedge $-1 $448 $449 $221 $341 forward $442 $-1 #
edge $-1 $450 -14.509155157476293 $451 14.509155157476293 $340 $452 forward 7 unknown #
coedge $-1 $444 $227 $222 $343 forward $219 $-1 #
edge $-1 $232 -14.305452463181602 $347 -9.0745050606934186 $342 $453 forward 7 unknown #
coedge $-1 $229 $446 $223 $345 forward $336 $-1 #
edge $-1 $346 9.0745050606934186 $231 14.305452463181602 $344 $454 forward 7 unknown #
vertex $-1 $345 $455 #
vertex $-1 $343 $456 #
straight-curve $-1 42.072182029173916 -20.764483822630929 0 0 0 -1 I I #
coedge $-1 $449 $448 $226 $350 forward $442 $-1 #
edge $-1 $355 -14.509155157476293 $352 14.509155157476293 $349 $457 forward 7 unknown #
coedge $-1 $227 $444 $449 $458 forward $219 $-1 #
vertex $-1 $350 $459 #
straight-curve $-1 25.783709132282034 -25.995431225119113 -14.509155157476293 -1 0 0 I I #
coedge $-1 $446 $229 $448 $460 forward $336 $-1 #
vertex $-1 $460 $461 #
straight-curve $-1 25.783709132282034 -25.995431225119113 14.509155157476293 1 0 0 I I #
point $-1 42.072182029173916 -25.995431225119113 14.509155157476293 #
point $-1 42.072182029173916 -25.995431225119113 -14.509155157476293 #
loop $-1 $-1 $242 $234 #
plane-surface $-1 0 -42.517437894169603 0 0 1 0 0 0 1 forward_v I I I I #
coedge $-1 $362 $237 $239 $366 reversed $137 $-1 #
coedge $-1 $237 $361 $462 $463 reversed $137 $-1 #
coedge $-1 $245 $240 $237 $364 forward $235 $-1 #
edge $-1 $367 -21.04352479277825 $464 -14.63300929235848 $363 $465 forward 7 unknown #
coedge $-1 $239 $238 $370 $466 reversed $85 $-1 #
edge $-1 $467 0 $367 7.9238329827716445 $361 $468 forward 7 unknown #
vertex $-1 $241 $469 #
straight-curve $-1 -13.480841644786182 -36.106922393749834 14.509155157476293 -1 0 0 I I #
coedge $-1 $462 $242 $245 $374 reversed $359 $-1 #
coedge $-1 $242 $462 $365 $466 forward $359 $-1 #
vertex $-1 $243 $470 #
straight-curve $-1 -20.744779143112293 -42.517437894169603 54.326546343496204 0 0 1 I I #
straight-curve $-1 -20.744779143112293 -42.517437894169603 9.8516429290717724 0 -0.80901698891910034 -0.5877852598018023 I I #
edge $-1 $464 -33.17858743603243 $246 -20.744779143112293 $369 $471 forward 7 unknown #
point $-1 -20.744779143112293 -42.517437894169603 14.509155157476293 #
point $-1 -20.744779143112293 -36.106922393749834 14.509155157476293 #
edge $-1 $472 1 $472 0 $249 $-1 forward 7 unknown #
vertex $-1 $250 $473 #
ellipse-curve $-1 -29.626070780912396 -35.901789686170815 7.4863993670501845 0 -0.5877852598018023 0.80901698891910034 1.5 0 0 1 I I #
point $-1 -28.126070780912396 -39.312180143959729 12.180399043274043 #
edge $-1 $474 1 $474 0 $253 $-1 forward 7 unknown #
vertex $-1 $254 $475 #
ellipse-curve $-1 -24.297295798232334 -35.901789686170815 7.4863993670501845 0 -0.5877852598018023 0.80901698891910034 1.5 0 0 1 I I #
point $-1 -22.797295798232334 -39.312180143959729 12.180399043274043 #
plane-surface $-1 0 0 14.509155157476293 0 0 1 1 0 0 forward_v I I I I #
coedge $-1 $396 $395 $388 $476 forward $258 $-1 #
coedge $-1 $388 $260 $262 $392 reversed $159 $-1 #
coedge $-1 $260 $387 $386 $476 reversed $159 $-1 #
coedge $-1 $268 $263 $260 $390 forward $269 $-1 #
edge $-1 $393 -0.72919021768511527 $477 15.872999743345041 $389 $478 forward 7 unknown #
coedge $-1 $262 $261 $396 $479 reversed $99 $-1 #
edge $-1 $480 -85.034875788339207 $393 -63.671848867252862 $387 $481 forward 7 unknown #
vertex $-1 $264 $482 #
straight-curve $-1 13.101497485009979 25.915247933139451 14.509155157476293 1 0 0 I I #
coedge $-1 $386 $265 $268 $400 reversed $258 $-1 #
coedge $-1 $265 $386 $391 $479 forward $258 $-1 #
vertex $-1 $266 $483 #
straight-curve $-1 14.94364344464293 42.517437894169603 74.744169195594395 0 0 1 I I #
straight-curve $-1 14.94364344464293 -23.567071869619113 54.5791484830537 0 0.77714595512881146 -0.62932039886446345 I I #
edge $-1 $477 -37.462346495396986 $270 -14.94364344464293 $395 $484 forward 7 unknown #
point $-1 14.94364344464293 42.517437894169603 14.509155157476293 #
point $-1 14.94364344464293 25.915247933139447 14.509155157476293 #
edge $-1 $485 1 $485 0 $273 $-1 forward 7 unknown #
vertex $-1 $274 $486 #
ellipse-curve $-1 21.37755860200123 29.286989755545605 1.69981677266141 0 0.62932039886446345 0.77714595512881146 2 0 0 1 I I #
point $-1 23.37755860200123 34.216342913654536 7.787060846011137 #
edge $-1 $487 1 $487 0 $277 $-1 forward 7 unknown #
vertex $-1 $278 $488 #
ellipse-curve $-1 31.028431338038672 29.286989755545605 1.69981677266141 0 0.62932039886446345 0.77714595512881146 2 0 0 1 I I #
point $-1 33.028431338038672 34.216342913654536 7.787060846011137 #
plane-surface $-1 61.06265449995422 0 0 -1 0 0 0 0 1 forward_v I I I I #
coedge $-1 $286 $284 $288 $416 reversed $181 $-1 #
edge $-1 $299 -14.509155157476293 $418 14.509155157476293 $298 $489 forward 7 unknown #
vertex $-1 $416 $490 #
straight-curve $-1 -61.06265449995422 -42.517437894169603 0 0 0 -1 I I #
edge $-1 $414 -42.517437894169603 $418 42.517437894169603 $412 $491 forward 7 unknown #
straight-curve $-1 0 -42.517437894169603 -14.509155157476293 -1 0 0 I I #
vertex $-1 $291 $492 #
straight-curve $-1 0 42.517437894169603 -14.509155157476293 1 0 0 I I #
point $-1 61.06265449995422 42.517437894169603 -14.509155157476293 #
point $-1 61.06265449995422 -42.517437894169603 -14.509155157476293 #
straight-curve $-1 -61.06265449995422 0 14.509155157476293 0 -1 0 I I #
point $-1 -61.06265449995422 42.517437894169603 14.509155157476293 #
point $-1 -61.06265449995422 -42.517437894169603 14.509155157476293 #
straight-curve $-1 61.06265449995422 -42.517437894169603 0 0 0 -1 I I #
straight-curve $-1 61.06265449995422 42.517437894169603 0 0 0 -1 I I #
plane-surface $-1 -61.06265449995422 0 0 1 0 0 0 0 -1 forward_v I I I I #
edge $-1 $320 9.0745050606934186 $324 14.305452463181602 $323 $493 forward 7 unknown #
edge $-1 $328 -14.305452463181602 $319 -9.0745050606934186 $326 $494 forward 7 unknown #
straight-curve $-1 -42.072182029173916 -25.995431225119113 0 0 0 -1 I I #
edge $-1 $434 -14.509155157476293 $432 14.509155157476293 $330 $495 forward 7 unknown #
vertex $-1 $431 $496 #
straight-curve $-1 -25.783709132282034 -20.764483822630929 -14.509155157476293 1 0 0 I I #
vertex $-1 $331 $497 #
straight-curve $-1 -25.783709132282034 -20.764483822630929 14.509155157476293 -1 0 0 I I #
point $-1 -42.072182029173916 -20.764483822630929 14.509155157476293 #
point $-1 -42.072182029173916 -20.764483822630929 -14.509155157476293 #
point $-1 -42.072182029173916 -25.995431225119113 -14.509155157476293 #
point $-1 -42.072182029173916 -25.995431225119113 14.509155157476293 #
straight-curve $-1 -61.06265449995422 0 14.509155157476293 0 -1 0 I I #
straight-curve $-1 -61.06265449995422 0 -14.509155157476293 0 1 0 I I #
loop $-1 $-1 $349 $335 #
plane-surface $-1 61.06265449995422 0 0 -1 0 0 0 0 1 forward_v I I I I #
coedge $-1 $351 $342 $338 $445 forward $219 $-1 #
edge $-1 $347 16.288472896891882 $450 35.278945367672186 $444 $498 forward 7 unknown #
coedge $-1 $344 $354 $339 $447 forward $336 $-1 #
edge $-1 $451 -35.278945367672186 $346 -16.288472896891882 $446 $499 forward 7 unknown #
coedge $-1 $349 $340 $354 $460 reversed $442 $-1 #
coedge $-1 $340 $349 $351 $458 reversed $442 $-1 #
vertex $-1 $458 $500 #
vertex $-1 $341 $501 #
straight-curve $-1 61.06265449995422 -20.764483822630929 0 0 0 1 I I #
straight-curve $-1 42.072182029173916 -11.68997876193751 -14.509155157476293 0 1 0 I I #
straight-curve $-1 42.072182029173916 -11.68997876193751 14.509155157476293 0 -1 0 I I #
point $-1 42.072182029173916 -20.764483822630929 14.509155157476293 #
point $-1 42.072182029173916 -20.764483822630929 -14.509155157476293 #
straight-curve $-1 61.06265449995422 -25.995431225119113 0 0 0 -1 I I #
edge $-1 $450 20.764483822630929 $352 25.995431225119113 $449 $502 forward 7 unknown #
point $-1 61.06265449995422 -25.995431225119113 -14.509155157476293 #
edge $-1 $355 -25.995431225119113 $451 -20.764483822630929 $448 $503 forward 7 unknown #
point $-1 61.06265449995422 -25.995431225119113 14.509155157476293 #
coedge $-1 $370 $369 $362 $463 forward $359 $-1 #
edge $-1 $464 39.817391186019911 $467 44.474903414424432 $462 $504 forward 7 unknown #
vertex $-1 $374 $505 #
straight-curve $-1 -33.17858743603243 -57.150447186528083 14.509155157476293 0 -1 0 I I #
edge $-1 $467 -19.697745791246248 $371 -7.2639374983261114 $370 $506 forward 7 unknown #
vertex $-1 $466 $507 #
straight-curve $-1 -33.17858743603243 -42.517437894169603 9.8516429290717724 0 0.80901698891910034 0.5877852598018023 I I #
point $-1 -33.17858743603243 -36.106922393749834 14.509155157476293 #
point $-1 -20.744779143112293 -42.517437894169603 9.8516429290717724 #
straight-curve $-1 0 -42.517437894169603 14.509155157476293 1 0 0 I I #
vertex $-1 $377 $508 #
point $-1 -28.126070780912396 -35.901789686170815 7.4863993670501845 #
vertex $-1 $381 $509 #
point $-1 -22.797295798232334 -35.901789686170815 7.4863993670501845 #
edge $-1 $477 60.235014038118102 $480 73.679202661048436 $386 $510 forward 7 unknown #
vertex $-1 $400 $511 #
straight-curve $-1 37.462346495396986 26.644438150824563 14.5091551574763 0 1 0 I I #
edge $-1 $480 -24.360849010387007 $397 -1.8421459596329512 $396 $512 forward 7 unknown #
vertex $-1 $479 $513 #
straight-curve $-1 37.462346495396986 -23.567071869619113 54.5791484830537 0 -0.77714595512881146 0.62932039886446345 I I #
point $-1 37.462346495396986 25.915247933139447 14.509155157476293 #
point $-1 14.94364344464293 42.517437894169603 1.0649665345459667 #
straight-curve $-1 0 42.517437894169603 14.509155157476293 -1 0 0 I I #
vertex $-1 $403 $514 #
point $-1 23.37755860200123 29.286989755545605 1.69981677266141 #
vertex $-1 $407 $515 #
point $-1 33.028431338038672 29.286989755545605 1.69981677266141 #
straight-curve $-1 -61.06265449995422 42.517437894169603 0 0 0 -1 I I #
point $-1 -61.06265449995422 -42.517437894169603 -14.509155157476293 #
straight-curve $-1 -61.06265449995422 0 -14.509155157476293 0 1 0 I I #
point $-1 -61.06265449995422 42.517437894169603 -14.509155157476293 #
straight-curve $-1 -42.072182029173916 -11.68997876193751 -14.509155157476293 0 -1 0 I I #
straight-curve $-1 -42.072182029173916 -11.68997876193751 14.509155157476293 0 1 0 I I #
straight-curve $-1 -61.06265449995422 -20.764483822630929 0 0 0 -1 I I #
point $-1 -61.06265449995422 -20.764483822630929 -14.509155157476293 #
point $-1 -61.06265449995422 -20.764483822630929 14.509155157476293 #
straight-curve $-1 25.783709132282034 -20.764483822630929 -14.509155157476293 1 0 0 I I #
straight-curve $-1 25.783709132282034 -20.764483822630929 14.509155157476293 -1 0 0 I I #
point $-1 61.06265449995422 -20.764483822630929 -14.509155157476293 #
point $-1 61.06265449995422 -20.764483822630929 14.509155157476293 #
straight-curve $-1 61.06265449995422 0 -14.509155157476293 0 -1 0 I I #
straight-curve $-1 61.06265449995422 0 14.509155157476293 0 1 0 I I #
straight-curve $-1 -33.17858743603243 -42.517437894169603 54.326546343496204 0 0 -1 I I #
point $-1 -33.17858743603243 -42.517437894169603 14.509155157476293 #
straight-curve $-1 -13.480841644786182 -42.517437894169603 9.8516429290717724 1 0 0 I I #
point $-1 -33.17858743603243 -42.517437894169603 9.8516429290717724 #
point $-1 -29.626070780912396 -35.020111796468115 6.2728738836715348 #
point $-1 -24.297295798232334 -35.020111796468115 6.2728738836715348 #
straight-curve $-1 37.462346495396986 42.517437894169603 74.744169195594395 0 0 -1 I I #
point $-1 37.462346495396986 42.517437894169603 14.509155157476293 #
straight-curve $-1 13.101497485009979 42.517437894169603 1.0649665345459631 -1 0 0 I I #
point $-1 37.462346495396986 42.517437894169603 1.0649665345459667 #
point $-1 21.37755860200123 28.028348957816675 0.14552486240378637 #
point $-1 31.028431338038672 28.028348957816675 0.14552486240378637 #
End-of-ACIS-data 