500 0 8 0           
7 Unknown 11 ACIS 5.0 NT 24 Thu Mar 25 19:29:31 1999 
-1 9.9999999999999995e-007 1e-010 
body $-1 $8 $-1 $9 #
body $-1 $10 $-1 $11 #
body $-1 $12 $-1 $13 #
body $-1 $14 $-1 $15 #
body $-1 $16 $-1 $17 #
body $-1 $18 $-1 $19 #
body $-1 $20 $-1 $21 #
body $-1 $22 $-1 $23 #
lump $-1 $-1 $24 $0 #
transform $-1 1 0 0 0 1 0 0 0 1 56.986602374340038 24.388046665711549 5.4778022354900928 1 rotate no_reflect no_shear #
lump $-1 $-1 $25 $1 #
transform $-1 1 0 0 0 1 0 0 0 1 56.986602374340038 24.388046665711549 5.4778022354900928 1 rotate no_reflect no_shear #
lump $-1 $-1 $26 $2 #
transform $-1 1 0 0 0 1 0 0 0 1 56.986602374340038 24.388046665711549 5.4778022354900928 1 rotate no_reflect no_shear #
lump $-1 $-1 $27 $3 #
transform $-1 1 0 0 0 1 0 0 0 1 56.986602374340038 24.388046665711549 5.4778022354900928 1 rotate no_reflect no_shear #
lump $-1 $-1 $28 $4 #
transform $-1 1 0 0 0 1 0 0 0 1 56.986602374340038 24.388046665711549 5.4778022354900928 1 rotate no_reflect no_shear #
lump $-1 $-1 $29 $5 #
transform $-1 1 0 0 0 1 0 0 0 1 56.986602374340038 24.388046665711549 5.4778022354900928 1 rotate no_reflect no_shear #
lump $-1 $-1 $30 $6 #
transform $-1 1 0 0 0 1 0 0 0 1 56.986602374340038 24.388046665711549 5.4778022354900928 1 rotate no_reflect no_shear #
lump $-1 $-1 $31 $7 #
transform $-1 1 0 0 0 1 0 0 0 1 56.986602374340038 24.388046665711549 5.4778022354900928 1 rotate no_reflect no_shear #
shell $-1 $-1 $-1 $32 $-1 $8 #
shell $-1 $-1 $-1 $33 $-1 $10 #
shell $-1 $-1 $-1 $34 $-1 $12 #
shell $-1 $-1 $-1 $35 $-1 $14 #
shell $-1 $-1 $-1 $36 $-1 $16 #
shell $-1 $-1 $-1 $37 $-1 $18 #
shell $-1 $-1 $-1 $38 $-1 $20 #
shell $-1 $-1 $-1 $39 $-1 $22 #
face $-1 $40 $41 $24 $-1 $42 forward single #
face $-1 $43 $44 $25 $-1 $45 forward single #
face $-1 $46 $47 $26 $-1 $48 reversed single #
face $-1 $49 $50 $27 $-1 $51 forward single #
face $-1 $52 $53 $28 $-1 $54 forward single #
face $-1 $55 $56 $29 $-1 $57 reversed single #
face $-1 $58 $59 $30 $-1 $60 forward single #
face $-1 $61 $62 $31 $-1 $63 forward single #
face $-1 $64 $65 $24 $-1 $66 reversed single #
loop $-1 $-1 $67 $32 #
plane-surface $-1 0 0 5.4778022354900928 0 0 1 1 0 0 forward_v I I I I #
face $-1 $68 $69 $25 $-1 $70 reversed single #
loop $-1 $-1 $71 $33 #
plane-surface $-1 -54.958036812024353 0 2.5705965732226668 0 0 1 1 0 0 forward_v I I I I #
face $-1 $72 $73 $26 $-1 $74 reversed single #
loop $-1 $-1 $75 $34 #
plane-surface $-1 -45.921470358211693 -24.388046665711556 0.42943934126859062 0 -0.85716730853699208 0.51503806187062418 1 0 0 forward_v I I I I #
face $-1 $76 $77 $27 $-1 $78 forward single #
loop $-1 $79 $80 $35 #
cone-surface $-1 -48.924899311710398 -21.743931632456047 2.276190205490126 0 0.85716730853699208 -0.51503806187062418 1 0 0 1 I I 0 1 1 forward I I I I #
face $-1 $81 $82 $28 $-1 $83 forward single #
loop $-1 $84 $85 $36 #
cone-surface $-1 -42.918041404712994 -21.743931632456047 2.276190205490126 0 0.85716730853699208 -0.51503806187062418 1 0 0 1 I I 0 1 1 forward I I I I #
face $-1 $86 $87 $29 $-1 $88 reversed single #
loop $-1 $-1 $89 $37 #
plane-surface $-1 -40.463236794035211 49.805355815082727 121.95426784302686 -1 0 0 0 0.57357644374324357 0.81915203911291934 forward_v I I I I #
face $-1 $90 $91 $30 $-1 $92 forward single #
loop $-1 $93 $94 $38 #
cone-surface $-1 -49.367689976659108 20.183507885400964 2.0002450146126227 0 -0.57357644374324357 -0.81915203911291934 1.5 0 0 1 I I 0 1 1.5 forward I I I I #
face $-1 $95 $96 $31 $-1 $97 forward single #
loop $-1 $98 $99 $39 #
cone-surface $-1 -44.025018067084766 20.183507885400964 2.0002450146126227 0 -0.57357644374324357 -0.81915203911291934 1.5 0 0 1 I I 0 1 1.5 forward I I I I #
face $-1 $100 $101 $24 $-1 $102 reversed single #
loop $-1 $-1 $103 $40 #
plane-surface $-1 0 0 -5.4778022354900928 0 0 1 1 0 0 forward_v I I I I #
coedge $-1 $104 $105 $106 $107 forward $41 $-1 #
face $-1 $108 $109 $25 $-1 $110 reversed single #
loop $-1 $-1 $111 $43 #
plane-surface $-1 -54.958036812024353 0 -0.42940342677733323 0 0 1 1 0 0 forward_v I I I I #
coedge $-1 $112 $113 $114 $115 forward $44 $-1 #
face $-1 $116 $117 $26 $-1 $118 reversed single #
loop $-1 $-1 $119 $46 #
plane-surface $-1 -38.913469466714716 -122.08215182547318 59.129977820212595 -1 0 0 0 -0.85716730853699208 0.51503806187062418 forward_v I I I I #
coedge $-1 $120 $121 $122 $123 reversed $47 $-1 #
face $-1 $-1 $124 $27 $-1 $125 forward single #
loop $-1 $126 $127 $49 #
cone-surface $-1 -48.924899311710398 -20.187914119519331 1.341240591665593 0 0.85716730853699208 -0.51503806187062418 0.5 0 0 1 I I -0.70710678118654746 0.70710678118654746 0.5 forward I I I I #
loop $-1 $-1 $128 $35 #
coedge $-1 $80 $80 $129 $130 reversed $50 $-1 #
face $-1 $-1 $131 $28 $-1 $132 forward single #
loop $-1 $133 $134 $52 #
cone-surface $-1 -42.918041404712994 -20.187914119519331 1.341240591665593 0 0.85716730853699208 -0.51503806187062418 0.5 0 0 1 I I -0.70710678118654746 0.70710678118654746 0.5 forward I I I I #
loop $-1 $-1 $135 $36 #
coedge $-1 $85 $85 $136 $137 reversed $53 $-1 #
face $-1 $138 $139 $29 $-1 $140 forward single #
loop $-1 $-1 $141 $55 #
plane-surface $-1 -46.69635402187194 -15.566989646685748 28.592884768911304 0 0.57357644374324357 0.81915203911291934 1 0 0 forward_v I I I I #
coedge $-1 $142 $143 $144 $145 reversed $56 $-1 #
face $-1 $-1 $146 $30 $-1 $147 forward single #
loop $-1 $148 $149 $58 #
cone-surface $-1 -49.367689976659108 19.020425722612913 0.33919157405294964 0 -0.57357644374324357 -0.81915203911291934 0.75 0 0 1 I I -0.70710678118654757 0.70710678118654757 0.75 forward I I I I #
loop $-1 $-1 $150 $38 #
coedge $-1 $94 $94 $151 $152 reversed $59 $-1 #
face $-1 $-1 $153 $31 $-1 $154 forward single #
loop $-1 $155 $156 $61 #
cone-surface $-1 -44.025018067084766 19.020425722612913 0.33919157405294964 0 -0.57357644374324357 -0.81915203911291934 0.75 0 0 1 I I -0.70710678118654757 0.70710678118654757 0.75 forward I I I I #
loop $-1 $-1 $157 $39 #
coedge $-1 $99 $99 $158 $159 reversed $62 $-1 #
face $-1 $160 $161 $24 $-1 $162 reversed single #
loop $-1 $-1 $163 $64 #
plane-surface $-1 0 -24.388046665711549 0 0 1 0 0 0 1 forward_v I I I I #
coedge $-1 $164 $165 $166 $167 forward $65 $-1 #
coedge $-1 $168 $67 $169 $170 forward $41 $-1 #
coedge $-1 $67 $168 $171 $172 forward $41 $-1 #
coedge $-1 $173 $174 $67 $107 reversed $175 $-1 #
edge $-1 $176 -24.388046665711549 $177 24.388046665711549 $106 $178 forward 7 unknown #
face $-1 $179 $180 $25 $-1 $181 reversed single #
loop $-1 $-1 $114 $68 #
plane-surface $-1 -52.929471249708669 0 1.0705965732226668 -1 0 0 0 0 1 forward_v I I I I #
coedge $-1 $182 $183 $184 $185 forward $69 $-1 #
coedge $-1 $186 $71 $187 $188 reversed $44 $-1 #
coedge $-1 $71 $186 $189 $190 reversed $44 $-1 #
coedge $-1 $191 $192 $71 $115 reversed $109 $-1 #
edge $-1 $193 -24.388046665711549 $194 24.388046665711549 $114 $195 forward 7 unknown #
face $-1 $196 $197 $26 $-1 $198 forward single #
loop $-1 $-1 $199 $72 #
plane-surface $-1 0 -24.388046665711549 0 0 1 0 0 0 1 forward_v I I I I #
coedge $-1 $200 $201 $202 $203 reversed $73 $-1 #
coedge $-1 $204 $75 $205 $206 reversed $47 $-1 #
coedge $-1 $75 $204 $200 $207 forward $47 $-1 #
coedge $-1 $202 $199 $75 $123 forward $117 $-1 #
edge $-1 $208 -29.968736070602823 $209 -15.95273428760887 $122 $210 forward 7 unknown #
loop $-1 $-1 $129 $76 #
plane-surface $-1 -45.921470358211693 -24.388046665711556 0.42943934126859062 0 -0.85716730853699208 0.51503806187062418 1 0 0 forward_v I I I I #
loop $-1 $-1 $211 $49 #
coedge $-1 $127 $127 $128 $212 reversed $77 $-1 #
coedge $-1 $128 $128 $127 $212 forward $79 $-1 #
coedge $-1 $129 $129 $80 $130 forward $124 $-1 #
edge $-1 $213 0 $213 6.2831853071796004 $129 $214 forward 7 unknown #
loop $-1 $-1 $136 $81 #
plane-surface $-1 -45.921470358211693 -24.388046665711556 0.42943934126859062 0 -0.85716730853699208 0.51503806187062418 1 0 0 forward_v I I I I #
loop $-1 $-1 $215 $52 #
coedge $-1 $134 $134 $135 $216 reversed $82 $-1 #
coedge $-1 $135 $135 $134 $216 forward $84 $-1 #
coedge $-1 $136 $136 $85 $137 forward $131 $-1 #
edge $-1 $217 0 $217 6.2831853071796004 $136 $218 forward 7 unknown #
face $-1 $219 $220 $29 $-1 $221 forward single #
loop $-1 $-1 $222 $86 #
plane-surface $-1 0 0 5.4778022354900928 0 0 1 1 0 0 forward_v I I I I #
coedge $-1 $223 $224 $225 $226 reversed $87 $-1 #
coedge $-1 $143 $89 $227 $228 reversed $56 $-1 #
coedge $-1 $89 $142 $223 $229 reversed $56 $-1 #
coedge $-1 $225 $230 $89 $145 forward $231 $-1 #
edge $-1 $232 55.499331686023332 $233 60.361067305328319 $144 $234 forward 7 unknown #
loop $-1 $-1 $151 $90 #
plane-surface $-1 -46.69635402187194 -15.566989646685748 28.592884768911304 0 0.57357644374324357 0.81915203911291934 1 0 0 forward_v I I I I #
loop $-1 $-1 $235 $58 #
coedge $-1 $149 $149 $150 $236 reversed $91 $-1 #
coedge $-1 $150 $150 $149 $236 forward $93 $-1 #
coedge $-1 $151 $151 $94 $152 forward $146 $-1 #
edge $-1 $237 1.4440326370371518e-016 $237 6.2831853071796004 $151 $238 forward 7 unknown #
loop $-1 $-1 $158 $95 #
plane-surface $-1 -46.69635402187194 -15.566989646685748 28.592884768911304 0 0.57357644374324357 0.81915203911291934 1 0 0 forward_v I I I I #
loop $-1 $-1 $239 $61 #
coedge $-1 $156 $156 $157 $240 reversed $96 $-1 #
coedge $-1 $157 $157 $156 $240 forward $98 $-1 #
coedge $-1 $158 $158 $99 $159 forward $153 $-1 #
edge $-1 $241 1.4440326370371518e-016 $241 6.2831853071796004 $158 $242 forward 7 unknown #
face $-1 $243 $244 $24 $-1 $245 reversed single #
loop $-1 $-1 $246 $100 #
plane-surface $-1 -56.986602374340038 0 0 1 0 0 0 0 -1 forward_v I I I I #
coedge $-1 $247 $171 $248 $249 forward $101 $-1 #
coedge $-1 $250 $103 $247 $251 forward $65 $-1 #
coedge $-1 $103 $250 $252 $253 forward $65 $-1 #
coedge $-1 $174 $173 $103 $167 reversed $175 $-1 #
edge $-1 $254 -24.388046665711549 $255 24.388046665711549 $166 $256 forward 7 unknown #
coedge $-1 $105 $104 $257 $258 forward $41 $-1 #
coedge $-1 $259 $260 $104 $170 reversed $244 $-1 #
edge $-1 $177 -56.986602374340038 $261 56.986602374340038 $169 $262 forward 7 unknown #
coedge $-1 $163 $263 $105 $172 reversed $101 $-1 #
edge $-1 $264 -56.986602374340038 $176 56.986602374340038 $171 $265 forward 7 unknown #
coedge $-1 $166 $106 $263 $266 forward $175 $-1 #
coedge $-1 $106 $166 $259 $267 reversed $175 $-1 #
loop $-1 $-1 $173 $243 #
vertex $-1 $107 $268 #
vertex $-1 $107 $269 #
straight-curve $-1 56.986602374340038 0 5.4778022354900928 0 1 0 I I #
face $-1 $270 $271 $25 $-1 $272 reversed single #
loop $-1 $-1 $273 $108 #
plane-surface $-1 0 -24.388046665711549 0 0 1 0 0 0 1 forward_v I I I I #
coedge $-1 $274 $111 $273 $275 reversed $69 $-1 #
coedge $-1 $111 $274 $276 $277 reversed $69 $-1 #
coedge $-1 $192 $191 $111 $185 reversed $109 $-1 #
edge $-1 $278 -24.388046665711549 $279 24.388046665711549 $184 $280 forward 7 unknown #
coedge $-1 $113 $112 $281 $282 reversed $44 $-1 #
coedge $-1 $283 $284 $112 $188 forward $285 $-1 #
edge $-1 $286 -29.507583968327861 $194 -25.450452843696493 $187 $287 forward 7 unknown #
coedge $-1 $288 $289 $113 $190 forward $180 $-1 #
edge $-1 $193 25.450452843696493 $290 29.507583968327861 $189 $291 forward 7 unknown #
coedge $-1 $184 $114 $289 $292 reversed $109 $-1 #
coedge $-1 $114 $184 $283 $293 reversed $109 $-1 #
vertex $-1 $190 $294 #
vertex $-1 $188 $295 #
straight-curve $-1 -52.929471249708669 0 2.5705965732226668 0 1 0 I I #
face $-1 $-1 $296 $26 $-1 $297 forward single #
loop $-1 $-1 $205 $116 #
plane-surface $-1 -52.929471249708669 0 1.0705965732226668 -1 0 0 0 0 1 forward_v I I I I #
coedge $-1 $122 $298 $299 $300 forward $117 $-1 #
coedge $-1 $201 $119 $121 $207 reversed $73 $-1 #
coedge $-1 $119 $200 $301 $302 reversed $73 $-1 #
coedge $-1 $298 $122 $119 $203 forward $117 $-1 #
edge $-1 $209 -29.135549568837696 $303 -24.087186674616206 $202 $304 forward 7 unknown #
coedge $-1 $121 $120 $305 $306 reversed $47 $-1 #
coedge $-1 $299 $307 $120 $206 forward $197 $-1 #
edge $-1 $308 0.66558695336270102 $208 6.5551756531907488 $205 $309 forward 7 unknown #
edge $-1 $310 -5.8895886998280629 $209 -1.379460482718971e-014 $200 $311 forward 7 unknown #
vertex $-1 $206 $312 #
vertex $-1 $123 $313 #
straight-curve $-1 -22.960735179105846 -24.388046665711549 0.42943934126860045 1 0 0 I I #
coedge $-1 $211 $211 $-1 $314 reversed $126 $-1 #
edge $-1 $315 0 $315 6.2831853071796004 $127 $316 forward 7 unknown #
vertex $-1 $130 $317 #
ellipse-curve $-1 -48.924899311710398 -22.871365491124266 2.9536207883793466 0 -0.85716730853699208 0.51503806187062418 1 0 0 1 I I #
coedge $-1 $215 $215 $-1 $318 reversed $133 $-1 #
edge $-1 $319 0 $319 6.2831853071796004 $134 $320 forward 7 unknown #
vertex $-1 $137 $321 #
ellipse-curve $-1 -42.918041404712994 -22.871365491124266 2.9536207883793466 0 -0.85716730853699208 0.51503806187062418 1 0 0 1 I I #
face $-1 $-1 $231 $29 $-1 $322 reversed single #
loop $-1 $-1 $323 $138 #
plane-surface $-1 -52.929471249708669 0 1.0705965732226668 -1 0 0 0 0 1 forward_v I I I I #
coedge $-1 $324 $325 $326 $327 forward $139 $-1 #
coedge $-1 $328 $141 $143 $229 forward $87 $-1 #
coedge $-1 $141 $328 $323 $329 forward $87 $-1 #
coedge $-1 $330 $144 $141 $226 forward $231 $-1 #
edge $-1 $233 17.115059783099241 $331 29.581294238772699 $225 $332 forward 7 unknown #
coedge $-1 $325 $324 $142 $228 forward $139 $-1 #
edge $-1 $333 -7.4579091424897648 $232 -0.51463124182981446 $227 $334 forward 7 unknown #
edge $-1 $233 -48.776093331423098 $333 -40.299916054029019 $143 $335 forward 7 unknown #
coedge $-1 $144 $330 $325 $336 reversed $231 $-1 #
loop $-1 $-1 $330 $219 #
vertex $-1 $336 $337 #
vertex $-1 $145 $338 #
straight-curve $-1 -40.463236794035211 24.388046665711549 60.977133921513428 0 0 -1 I I #
coedge $-1 $235 $235 $-1 $339 reversed $148 $-1 #
edge $-1 $340 0 $340 6.2831853071796004 $149 $341 forward 7 unknown #
vertex $-1 $152 $342 #
ellipse-curve $-1 -49.367689976659108 20.916407715381574 3.046934425837597 0 0.57357644374324357 0.81915203911291934 1.5 0 0 1 I I #
coedge $-1 $239 $239 $-1 $343 reversed $155 $-1 #
edge $-1 $344 0 $344 6.2831853071796004 $156 $345 forward 7 unknown #
vertex $-1 $159 $346 #
ellipse-curve $-1 -44.025018067084766 20.916407715381574 3.046934425837597 0 0.57357644374324357 0.81915203911291934 1.5 0 0 1 I I #
face $-1 $-1 $175 $24 $-1 $347 reversed single #
loop $-1 $-1 $259 $160 #
plane-surface $-1 0 24.388046665711549 0 0 -1 0 0 0 -1 forward_v I I I I #
coedge $-1 $348 $257 $260 $349 forward $161 $-1 #
coedge $-1 $263 $163 $164 $251 reversed $101 $-1 #
coedge $-1 $257 $348 $163 $249 reversed $161 $-1 #
edge $-1 $264 -5.4778022354900928 $350 5.4778022354900928 $248 $351 forward 7 unknown #
coedge $-1 $165 $164 $348 $352 forward $65 $-1 #
edge $-1 $255 -56.986602374340038 $350 56.986602374340038 $247 $353 forward 7 unknown #
coedge $-1 $260 $259 $165 $253 reversed $244 $-1 #
edge $-1 $354 -56.986602374340038 $254 56.986602374340038 $252 $355 forward 7 unknown #
vertex $-1 $167 $356 #
vertex $-1 $266 $357 #
straight-curve $-1 56.986602374340038 0 -5.4778022354900928 0 -1 0 I I #
coedge $-1 $246 $248 $168 $258 reversed $161 $-1 #
edge $-1 $261 -24.388046665711549 $264 24.388046665711549 $257 $358 forward 7 unknown #
coedge $-1 $252 $169 $174 $267 forward $244 $-1 #
coedge $-1 $169 $252 $246 $349 reversed $244 $-1 #
vertex $-1 $170 $359 #
straight-curve $-1 0 24.388046665711549 5.4778022354900928 -1 0 0 I I #
coedge $-1 $171 $247 $173 $266 reversed $101 $-1 #
vertex $-1 $258 $360 #
straight-curve $-1 0 -24.388046665711549 5.4778022354900928 1 0 0 I I #
edge $-1 $176 -5.4778022354900928 $255 5.4778022354900928 $173 $361 forward 7 unknown #
edge $-1 $177 -5.4778022354900928 $254 5.4778022354900928 $174 $362 forward 7 unknown #
point $-1 56.986602374340038 -24.388046665711549 5.4778022354900928 #
point $-1 56.986602374340038 24.388046665711549 5.4778022354900928 #
face $-1 $-1 $285 $25 $-1 $363 reversed single #
loop $-1 $-1 $364 $179 #
plane-surface $-1 -56.986602374340038 0 0 1 0 0 0 0 -1 forward_v I I I I #
coedge $-1 $289 $288 $182 $275 forward $180 $-1 #
coedge $-1 $183 $182 $364 $365 reversed $69 $-1 #
edge $-1 $366 -29.507583968327861 $279 -25.450452843696493 $273 $367 forward 7 unknown #
coedge $-1 $284 $283 $183 $277 forward $285 $-1 #
edge $-1 $278 25.450452843696493 $368 29.507583968327861 $276 $369 forward 7 unknown #
vertex $-1 $277 $370 #
vertex $-1 $275 $371 #
straight-curve $-1 -52.929471249708669 0 -0.42940342677733323 0 -1 0 I I #
coedge $-1 $372 $373 $186 $282 forward $271 $-1 #
edge $-1 $290 -24.388046665711549 $286 24.388046665711549 $281 $374 forward 7 unknown #
coedge $-1 $276 $187 $192 $293 forward $285 $-1 #
coedge $-1 $187 $276 $372 $375 reversed $285 $-1 #
loop $-1 $-1 $276 $270 #
vertex $-1 $375 $376 #
straight-curve $-1 -27.479018406012177 24.388046665711549 2.5705965732226668 1 0 0 I I #
coedge $-1 $273 $189 $373 $377 forward $180 $-1 #
coedge $-1 $189 $273 $191 $292 forward $180 $-1 #
vertex $-1 $377 $378 #
straight-curve $-1 -27.479018406012177 -24.388046665711549 2.5705965732226668 -1 0 0 I I #
edge $-1 $279 -0.96470171338866662 $193 2.0352982866113334 $289 $379 forward 7 unknown #
edge $-1 $194 -2.0352982866113334 $278 0.96470171338866662 $283 $380 forward 7 unknown #
point $-1 -52.929471249708669 -24.388046665711549 2.5705965732226668 #
point $-1 -52.929471249708669 24.388046665711549 2.5705965732226668 #
loop $-1 $-1 $381 $196 #
plane-surface $-1 0 0 5.4778022354900928 0 0 1 1 0 0 forward_v I I I I #
coedge $-1 $199 $202 $382 $383 reversed $117 $-1 #
coedge $-1 $307 $205 $199 $300 reversed $197 $-1 #
edge $-1 $384 24.087186674616206 $208 29.135549568837696 $199 $385 forward 7 unknown #
coedge $-1 $305 $382 $201 $302 forward $296 $-1 #
edge $-1 $303 36.653029247025039 $310 39.686391596199606 $301 $386 forward 7 unknown #
vertex $-1 $203 $387 #
straight-curve $-1 -38.913469466714716 -24.388046665711549 29.564988910106297 0 0 1 I I #
coedge $-1 $381 $301 $204 $306 forward $296 $-1 #
edge $-1 $310 15.95273428760887 $308 29.968736070602823 $305 $388 forward 7 unknown #
coedge $-1 $205 $299 $381 $389 reversed $197 $-1 #
vertex $-1 $389 $390 #
straight-curve $-1 -52.929471249708669 -21.011881702070681 6.0483216129013346 0 -0.51503806187062429 -0.85716730853699219 I I #
vertex $-1 $306 $391 #
straight-curve $-1 -38.913469466714716 -24.388046665711556 0.42943934126859062 0 -0.51503806187062418 -0.85716730853699208 I I #
point $-1 -52.929471249708669 -24.388046665711549 0.42943934126860245 #
point $-1 -38.913469466714716 -24.388046665711549 0.42943934126860245 #
edge $-1 $392 1 $392 0 $211 $-1 forward 7 unknown #
vertex $-1 $212 $393 #
ellipse-curve $-1 -48.924899311710398 -20.616497773787827 1.5987596226009051 0 -0.85716730853699208 0.51503806187062418 1 0 0 1 I I #
point $-1 -47.924899311710398 -22.871365491124266 2.9536207883793466 #
edge $-1 $394 1 $394 0 $215 $-1 forward 7 unknown #
vertex $-1 $216 $395 #
ellipse-curve $-1 -42.918041404712994 -20.616497773787827 1.5987596226009051 0 -0.85716730853699208 0.51503806187062418 1 0 0 1 I I #
point $-1 -41.918041404712994 -22.871365491124266 2.9536207883793466 #
plane-surface $-1 0 24.388046665711549 0 0 -1 0 0 0 -1 forward_v I I I I #
coedge $-1 $326 $396 $224 $329 reversed $220 $-1 #
coedge $-1 $227 $222 $328 $397 forward $139 $-1 #
coedge $-1 $222 $227 $230 $336 forward $139 $-1 #
coedge $-1 $396 $323 $222 $327 reversed $220 $-1 #
edge $-1 $398 0.51463124182981446 $399 7.4579091424897648 $222 $400 forward 7 unknown #
coedge $-1 $224 $223 $324 $397 reversed $87 $-1 #
edge $-1 $399 40.299916054029019 $331 48.776093331423091 $323 $401 forward 7 unknown #
coedge $-1 $230 $225 $396 $402 forward $231 $-1 #
vertex $-1 $402 $403 #
straight-curve $-1 -23.34817701093597 24.388046665711553 0.61606661618510472 -1 0 0 I I #
vertex $-1 $228 $404 #
straight-curve $-1 -40.463236794035211 24.902677907541364 5.4778022354900955 0 1 0 I I #
straight-curve $-1 -40.463236794035211 -15.566989646685748 28.592884768911304 0 -0.81915203911291934 0.57357644374324357 I I #
edge $-1 $232 40.463236794035211 $398 52.929471249708669 $230 $405 forward 7 unknown #
point $-1 -40.463236794035211 24.388046665711549 5.4778022354900928 #
point $-1 -40.463236794035211 24.388046665711549 0.61606661618510472 #
edge $-1 $406 1 $406 0 $235 $-1 forward 7 unknown #
vertex $-1 $236 $407 #
ellipse-curve $-1 -49.367689976659108 19.450608055420346 0.95355560338763912 0 0.57357644374324357 0.81915203911291934 1.5 0 0 1 I I #
point $-1 -47.867689976659108 20.916407715381581 3.0469344258376068 #
edge $-1 $408 1 $408 0 $239 $-1 forward 7 unknown #
vertex $-1 $240 $409 #
ellipse-curve $-1 -44.025018067084766 19.450608055420346 0.95355560338763912 0 0.57357644374324357 0.81915203911291934 1.5 0 0 1 I I #
point $-1 -42.525018067084766 20.916407715381581 3.0469344258376068 #
plane-surface $-1 56.986602374340038 0 0 -1 0 0 0 0 1 forward_v I I I I #
coedge $-1 $248 $246 $250 $352 reversed $161 $-1 #
edge $-1 $261 -5.4778022354900928 $354 5.4778022354900928 $260 $410 forward 7 unknown #
vertex $-1 $352 $411 #
straight-curve $-1 -56.986602374340038 -24.388046665711549 0 0 0 -1 I I #
edge $-1 $350 -24.388046665711549 $354 24.388046665711549 $348 $412 forward 7 unknown #
straight-curve $-1 0 -24.388046665711549 -5.4778022354900928 -1 0 0 I I #
vertex $-1 $253 $413 #
straight-curve $-1 0 24.388046665711549 -5.4778022354900928 1 0 0 I I #
point $-1 56.986602374340038 24.388046665711549 -5.4778022354900928 #
point $-1 56.986602374340038 -24.388046665711549 -5.4778022354900928 #
straight-curve $-1 -56.986602374340038 0 5.4778022354900928 0 -1 0 I I #
point $-1 -56.986602374340038 24.388046665711549 5.4778022354900928 #
point $-1 -56.986602374340038 -24.388046665711549 5.4778022354900928 #
straight-curve $-1 56.986602374340038 -24.388046665711549 0 0 0 -1 I I #
straight-curve $-1 56.986602374340038 24.388046665711549 0 0 0 -1 I I #
plane-surface $-1 0 24.388046665711549 0 0 -1 0 0 0 -1 forward_v I I I I #
coedge $-1 $373 $372 $274 $365 forward $271 $-1 #
edge $-1 $368 -24.388046665711549 $366 24.388046665711549 $364 $414 forward 7 unknown #
vertex $-1 $275 $415 #
straight-curve $-1 -27.479018406012177 -24.388046665711549 -0.42940342677733323 1 0 0 I I #
vertex $-1 $277 $416 #
straight-curve $-1 -27.479018406012177 24.388046665711549 -0.42940342677733323 -1 0 0 I I #
point $-1 -52.929471249708669 24.388046665711549 -0.42940342677733323 #
point $-1 -52.929471249708669 -24.388046665711549 -0.42940342677733323 #
coedge $-1 $364 $281 $284 $375 forward $271 $-1 #
coedge $-1 $281 $364 $288 $377 reversed $271 $-1 #
straight-curve $-1 -56.986602374340038 0 2.5705965732226668 0 1 0 I I #
edge $-1 $286 -2.5705965732226668 $368 0.42940342677733323 $284 $417 forward 7 unknown #
point $-1 -56.986602374340038 24.388046665711549 2.5705965732226668 #
edge $-1 $290 -2.5705965732226668 $366 0.42940342677733323 $373 $418 forward 7 unknown #
point $-1 -56.986602374340038 -24.388046665711549 2.5705965732226668 #
straight-curve $-1 -52.929471249708669 -24.388046665711549 0.53529828661133338 0 0 1 I I #
straight-curve $-1 -52.929471249708669 24.388046665711549 0.53529828661133338 0 0 -1 I I #
coedge $-1 $382 $305 $307 $389 forward $296 $-1 #
coedge $-1 $301 $381 $298 $383 forward $296 $-1 #
edge $-1 $384 -52.929471249708669 $303 -38.913469466714716 $298 $419 forward 7 unknown #
vertex $-1 $383 $420 #
straight-curve $-1 -52.929471249708669 -24.388046665711549 29.564988910106297 0 0 -1 I I #
straight-curve $-1 -38.913469466714716 -61.041075912736588 5.4778022354900919 0 1 0 I I #
point $-1 -38.913469466714716 -24.388046665711549 5.4778022354900928 #
straight-curve $-1 -22.960735179105846 -21.354684316536982 5.4778022354900928 -1 0 0 I I #
edge $-1 $308 -39.686391596199606 $384 -36.653029247025039 $381 $421 forward 7 unknown #
point $-1 -52.929471249708669 -21.354684316536982 5.4778022354900928 #
point $-1 -38.913469466714716 -21.354684316536982 5.4778022354900928 #
vertex $-1 $314 $422 #
point $-1 -47.924899311710398 -20.616497773787827 1.5987596226009051 #
vertex $-1 $318 $423 #
point $-1 -41.918041404712994 -20.616497773787827 1.5987596226009051 #
coedge $-1 $323 $326 $330 $402 reversed $220 $-1 #
edge $-1 $399 -29.581294238772699 $333 -17.115059783099241 $324 $424 forward 7 unknown #
vertex $-1 $402 $425 #
vertex $-1 $397 $426 #
straight-curve $-1 -52.929471249708669 24.902677907541364 5.4778022354900955 0 -1 0 I I #
straight-curve $-1 -52.929471249708669 -15.566989646685748 28.592884768911304 0 0.81915203911291934 -0.57357644374324357 I I #
edge $-1 $331 -60.361067305328319 $398 -55.499331686023332 $330 $427 forward 7 unknown #
point $-1 -52.929471249708669 24.388046665711549 0.61606661618510761 #
point $-1 -40.463236794035211 17.444768765051599 5.4778022354900884 #
straight-curve $-1 0 24.388046665711549 5.4778022354900928 -1 0 0 I I #
vertex $-1 $339 $428 #
point $-1 -47.867689976659108 19.450608055420346 0.95355560338763912 #
vertex $-1 $343 $429 #
point $-1 -42.525018067084766 19.450608055420346 0.95355560338763912 #
straight-curve $-1 -56.986602374340038 24.388046665711549 0 0 0 -1 I I #
point $-1 -56.986602374340038 -24.388046665711549 -5.4778022354900928 #
straight-curve $-1 -56.986602374340038 0 -5.4778022354900928 0 1 0 I I #
point $-1 -56.986602374340038 24.388046665711549 -5.4778022354900928 #
straight-curve $-1 -56.986602374340038 0 -0.42940342677733323 0 -1 0 I I #
point $-1 -56.986602374340038 -24.388046665711549 -0.42940342677733323 #
point $-1 -56.986602374340038 24.388046665711549 -0.42940342677733323 #
straight-curve $-1 -56.986602374340038 24.388046665711549 0 0 0 -1 I I #
straight-curve $-1 -56.986602374340038 -24.388046665711549 0 0 0 -1 I I #
straight-curve $-1 0 -24.388046665711549 5.4778022354900928 1 0 0 I I #
point $-1 -52.929471249708669 -24.388046665711549 5.4778022354900928 #
straight-curve $-1 -52.929471249708669 -61.041075912736588 5.4778022354900919 0 -1 0 I I #
point $-1 -48.924899311710398 -19.759330465250834 1.0837215607302808 #
point $-1 -42.918041404712994 -19.759330465250834 1.0837215607302808 #
straight-curve $-1 -23.34817701093597 17.444768765051592 5.4778022354900955 1 0 0 I I #
point $-1 -52.929471249708669 24.388046665711549 5.4778022354900928 #
point $-1 -52.929471249708669 17.444768765051599 5.4778022354900884 #
straight-curve $-1 -52.929471249708669 24.388046665711549 60.977133921513428 0 0 1 I I #
point $-1 -49.367689976659108 18.59024338980548 -0.27517245528173984 #
point $-1 -44.025018067084766 18.59024338980548 -0.27517245528173984 #
End-of-ACIS-data 