500 0 8 0           
7 Unknown 11 ACIS 5.0 NT 24 Thu Mar 25 19:25:04 1999 
-1 9.9999999999999995e-007 1e-010 
body $-1 $8 $-1 $9 #
body $-1 $10 $-1 $11 #
body $-1 $12 $-1 $13 #
body $-1 $14 $-1 $15 #
body $-1 $16 $-1 $17 #
body $-1 $18 $-1 $19 #
body $-1 $20 $-1 $21 #
body $-1 $22 $-1 $23 #
lump $-1 $-1 $24 $0 #
transform $-1 1 0 0 0 1 0 0 0 1 57.612842188787496 39.104714437816924 9.6150075628272234 1 rotate no_reflect no_shear #
lump $-1 $-1 $25 $1 #
transform $-1 1 0 0 0 1 0 0 0 1 57.612842188787496 39.104714437816924 9.6150075628272234 1 rotate no_reflect no_shear #
lump $-1 $-1 $26 $2 #
transform $-1 1 0 0 0 1 0 0 0 1 57.612842188787496 39.104714437816924 9.6150075628272234 1 rotate no_reflect no_shear #
lump $-1 $-1 $27 $3 #
transform $-1 1 0 0 0 1 0 0 0 1 57.612842188787496 39.104714437816924 9.6150075628272234 1 rotate no_reflect no_shear #
lump $-1 $-1 $28 $4 #
transform $-1 1 0 0 0 1 0 0 0 1 57.612842188787496 39.104714437816924 9.6150075628272234 1 rotate no_reflect no_shear #
lump $-1 $-1 $29 $5 #
transform $-1 1 0 0 0 1 0 0 0 1 57.612842188787496 39.104714437816924 9.6150075628272234 1 rotate no_reflect no_shear #
lump $-1 $-1 $30 $6 #
transform $-1 1 0 0 0 1 0 0 0 1 57.612842188787496 39.104714437816924 9.6150075628272234 1 rotate no_reflect no_shear #
lump $-1 $-1 $31 $7 #
transform $-1 1 0 0 0 1 0 0 0 1 57.612842188787496 39.104714437816924 9.6150075628272234 1 rotate no_reflect no_shear #
shell $-1 $-1 $-1 $32 $-1 $8 #
shell $-1 $-1 $-1 $33 $-1 $10 #
shell $-1 $-1 $-1 $34 $-1 $12 #
shell $-1 $-1 $-1 $35 $-1 $14 #
shell $-1 $-1 $-1 $36 $-1 $16 #
shell $-1 $-1 $-1 $37 $-1 $18 #
shell $-1 $-1 $-1 $38 $-1 $20 #
shell $-1 $-1 $-1 $39 $-1 $22 #
face $-1 $40 $41 $24 $-1 $42 reversed single #
face $-1 $43 $44 $25 $-1 $45 forward single #
face $-1 $46 $47 $26 $-1 $48 reversed single #
face $-1 $49 $50 $27 $-1 $51 forward single #
face $-1 $52 $53 $28 $-1 $54 forward single #
face $-1 $55 $56 $29 $-1 $57 reversed single #
face $-1 $58 $59 $30 $-1 $60 forward single #
face $-1 $61 $62 $31 $-1 $63 forward single #
face $-1 $64 $65 $24 $-1 $66 forward single #
loop $-1 $-1 $67 $32 #
plane-surface $-1 0 -39.104714437816924 0 0 1 0 0 0 1 forward_v I I I I #
face $-1 $68 $69 $25 $-1 $70 reversed single #
loop $-1 $-1 $71 $33 #
plane-surface $-1 0 -39.104714437816924 0 0 1 0 0 0 1 forward_v I I I I #
face $-1 $72 $73 $26 $-1 $74 reversed single #
loop $-1 $-1 $75 $34 #
plane-surface $-1 -27.251417657040207 93.145198611036236 133.55181229521972 1 0 0 0 -0.83867057594974714 -0.54463902268945019 forward_v I I I I #
face $-1 $76 $77 $27 $-1 $78 forward single #
loop $-1 $79 $80 $35 #
cone-surface $-1 -19.465298326457287 36.496025984973841 6.6453735601306008 0 -0.83867057594974714 -0.54463902268945019 1 0 0 1 I I 0 1 1 forward I I I I #
face $-1 $81 $82 $28 $-1 $83 forward single #
loop $-1 $84 $85 $36 #
cone-surface $-1 -7.7861193305829133 36.496025984973841 6.6453735601306008 0 -0.83867057594974714 -0.54463902268945019 1 0 0 1 I I 0 1 1 forward I I I I #
face $-1 $86 $87 $29 $-1 $88 reversed single #
loop $-1 $-1 $89 $37 #
plane-surface $-1 30.361424531747289 93.145198611036236 133.55181229521972 1 0 0 0 -0.83867057594974714 -0.54463902268945019 forward_v I I I I #
face $-1 $90 $91 $30 $-1 $92 forward single #
loop $-1 $93 $94 $38 #
cone-surface $-1 38.14754386233021 36.496025984973841 6.6453735601306008 0 -0.83867057594974714 -0.54463902268945019 1 0 0 1 I I 0 1 1 forward I I I I #
face $-1 $95 $96 $31 $-1 $97 forward single #
loop $-1 $98 $99 $39 #
cone-surface $-1 49.826722858204576 36.496025984973841 6.6453735601306008 0 -0.83867057594974714 -0.54463902268945019 1 0 0 1 I I 0 1 1 forward I I I I #
face $-1 $100 $101 $24 $-1 $102 reversed single #
loop $-1 $-1 $103 $40 #
plane-surface $-1 0 0 9.6150075628272234 0 0 1 1 0 0 forward_v I I I I #
coedge $-1 $104 $105 $106 $107 reversed $41 $-1 #
face $-1 $108 $109 $25 $-1 $110 reversed single #
loop $-1 $-1 $111 $43 #
plane-surface $-1 0 0 -9.6150075628272234 0 0 1 1 0 0 forward_v I I I I #
coedge $-1 $112 $113 $114 $115 forward $44 $-1 #
face $-1 $116 $117 $26 $-1 $118 reversed single #
loop $-1 $-1 $119 $46 #
plane-surface $-1 -13.625708828520104 -3.4911924701083592 70.795408167094223 0 0.83867057594974714 0.54463902268945019 1 0 0 forward_v I I I I #
coedge $-1 $120 $121 $122 $123 reversed $47 $-1 #
face $-1 $-1 $124 $27 $-1 $125 forward single #
loop $-1 $126 $127 $49 #
cone-surface $-1 -19.465298326457287 34.900447983648746 5.6091931238700639 0 -0.83867057594974714 -0.54463902268945019 0.5 0 0 1 I I -0.70710678118654746 0.70710678118654746 0.5 forward I I I I #
loop $-1 $-1 $128 $35 #
coedge $-1 $80 $80 $129 $130 reversed $50 $-1 #
face $-1 $-1 $131 $28 $-1 $132 forward single #
loop $-1 $133 $134 $52 #
cone-surface $-1 -7.7861193305829133 34.900447983648746 5.6091931238700639 0 -0.83867057594974714 -0.54463902268945019 0.5 0 0 1 I I -0.70710678118654746 0.70710678118654746 0.5 forward I I I I #
loop $-1 $-1 $135 $36 #
coedge $-1 $85 $85 $136 $137 reversed $53 $-1 #
face $-1 $138 $139 $29 $-1 $140 forward single #
loop $-1 $-1 $141 $55 #
plane-surface $-1 43.987133360267393 -3.4911924701083592 70.795408167094223 0 0.83867057594974714 0.54463902268945019 1 0 0 forward_v I I I I #
coedge $-1 $142 $143 $144 $145 reversed $56 $-1 #
face $-1 $-1 $146 $30 $-1 $147 forward single #
loop $-1 $148 $149 $58 #
cone-surface $-1 38.14754386233021 34.900447983648746 5.6091931238700639 0 -0.83867057594974714 -0.54463902268945019 0.5 0 0 1 I I -0.70710678118654746 0.70710678118654746 0.5 forward I I I I #
loop $-1 $-1 $150 $38 #
coedge $-1 $94 $94 $151 $152 reversed $59 $-1 #
face $-1 $-1 $153 $31 $-1 $154 forward single #
loop $-1 $155 $156 $61 #
cone-surface $-1 49.826722858204576 34.900447983648746 5.6091931238700639 0 -0.83867057594974714 -0.54463902268945019 0.5 0 0 1 I I -0.70710678118654746 0.70710678118654746 0.5 forward I I I I #
loop $-1 $-1 $157 $39 #
coedge $-1 $99 $99 $158 $159 reversed $62 $-1 #
face $-1 $160 $161 $24 $-1 $162 reversed single #
loop $-1 $-1 $163 $64 #
plane-surface $-1 0 0 -9.6150075628272234 0 0 1 1 0 0 forward_v I I I I #
coedge $-1 $164 $165 $166 $167 forward $65 $-1 #
coedge $-1 $168 $67 $169 $170 reversed $41 $-1 #
coedge $-1 $67 $168 $171 $172 forward $41 $-1 #
coedge $-1 $173 $163 $67 $107 forward $101 $-1 #
edge $-1 $174 -57.612842188787496 $175 57.612842188787496 $67 $176 forward 7 unknown #
face $-1 $177 $178 $25 $-1 $179 reversed single #
loop $-1 $-1 $180 $68 #
plane-surface $-1 -50.527660434068437 -48.268482450793243 0 0 1 0 0 0 1 forward_v I I I I #
coedge $-1 $181 $182 $113 $183 forward $69 $-1 #
coedge $-1 $184 $71 $185 $186 reversed $44 $-1 #
coedge $-1 $71 $184 $111 $183 reversed $44 $-1 #
coedge $-1 $187 $188 $71 $115 reversed $178 $-1 #
edge $-1 $189 -9.6150075628272234 $190 9.6150075628272234 $114 $191 forward 7 unknown #
face $-1 $192 $193 $26 $-1 $194 forward single #
loop $-1 $-1 $195 $72 #
plane-surface $-1 -1.7763568394002505e-015 93.145198611036236 133.55181229521972 -1 0 0 0 0.83867057594974714 0.54463902268945019 forward_v I I I I #
coedge $-1 $196 $197 $198 $199 reversed $73 $-1 #
coedge $-1 $121 $75 $200 $201 reversed $47 $-1 #
coedge $-1 $75 $120 $196 $202 reversed $47 $-1 #
coedge $-1 $198 $203 $75 $123 forward $193 $-1 #
edge $-1 $204 7.4678848677011942 $205 10.332776346686927 $122 $206 forward 7 unknown #
loop $-1 $-1 $129 $76 #
plane-surface $-1 -13.625708828520104 -3.4911924701083592 70.795408167094223 0 0.83867057594974714 0.54463902268945019 1 0 0 forward_v I I I I #
loop $-1 $-1 $207 $49 #
coedge $-1 $127 $127 $128 $208 reversed $77 $-1 #
coedge $-1 $128 $128 $127 $208 forward $79 $-1 #
coedge $-1 $129 $129 $80 $130 forward $124 $-1 #
edge $-1 $209 -3.2704513828931425e-015 $209 6.2831853071795969 $129 $210 forward 7 unknown #
loop $-1 $-1 $136 $81 #
plane-surface $-1 -13.625708828520104 -3.4911924701083592 70.795408167094223 0 0.83867057594974714 0.54463902268945019 1 0 0 forward_v I I I I #
loop $-1 $-1 $211 $52 #
coedge $-1 $134 $134 $135 $212 reversed $82 $-1 #
coedge $-1 $135 $135 $134 $212 forward $84 $-1 #
coedge $-1 $136 $136 $85 $137 forward $131 $-1 #
edge $-1 $213 -3.2704513828931425e-015 $213 6.2831853071795969 $136 $214 forward 7 unknown #
face $-1 $215 $216 $29 $-1 $217 reversed single #
loop $-1 $-1 $144 $86 #
plane-surface $-1 0 0 9.6150075628272234 0 0 1 1 0 0 forward_v I I I I #
coedge $-1 $218 $219 $220 $221 reversed $87 $-1 #
coedge $-1 $143 $89 $222 $223 reversed $56 $-1 #
coedge $-1 $89 $142 $218 $224 reversed $56 $-1 #
coedge $-1 $220 $225 $89 $145 forward $139 $-1 #
edge $-1 $226 7.4678848677011942 $227 10.332776346686927 $144 $228 forward 7 unknown #
loop $-1 $-1 $151 $90 #
plane-surface $-1 43.987133360267393 -3.4911924701083592 70.795408167094223 0 0.83867057594974714 0.54463902268945019 1 0 0 forward_v I I I I #
loop $-1 $-1 $229 $58 #
coedge $-1 $149 $149 $150 $230 reversed $91 $-1 #
coedge $-1 $150 $150 $149 $230 forward $93 $-1 #
coedge $-1 $151 $151 $94 $152 forward $146 $-1 #
edge $-1 $231 -3.2704513828931425e-015 $231 6.2831853071795969 $151 $232 forward 7 unknown #
loop $-1 $-1 $158 $95 #
plane-surface $-1 43.987133360267393 -3.4911924701083592 70.795408167094223 0 0.83867057594974714 0.54463902268945019 1 0 0 forward_v I I I I #
loop $-1 $-1 $233 $61 #
coedge $-1 $156 $156 $157 $234 reversed $96 $-1 #
coedge $-1 $157 $157 $156 $234 forward $98 $-1 #
coedge $-1 $158 $158 $99 $159 forward $153 $-1 #
edge $-1 $235 -3.2704513828931425e-015 $235 6.2831853071795969 $158 $236 forward 7 unknown #
face $-1 $237 $238 $24 $-1 $239 reversed single #
loop $-1 $-1 $240 $100 #
plane-surface $-1 -57.612842188787496 0 0 1 0 0 0 0 -1 forward_v I I I I #
coedge $-1 $106 $241 $242 $243 forward $101 $-1 #
coedge $-1 $244 $103 $245 $246 forward $65 $-1 #
coedge $-1 $103 $244 $168 $247 forward $65 $-1 #
coedge $-1 $169 $248 $103 $167 reversed $249 $-1 #
edge $-1 $250 -39.104714437816924 $251 39.104714437816924 $166 $252 forward 7 unknown #
coedge $-1 $105 $104 $165 $247 reversed $41 $-1 #
coedge $-1 $242 $166 $104 $170 forward $249 $-1 #
edge $-1 $250 -9.6150075628272234 $174 9.6150075628272234 $169 $253 forward 7 unknown #
coedge $-1 $254 $255 $105 $172 reversed $161 $-1 #
edge $-1 $256 -9.6150075628272234 $175 9.6150075628272234 $171 $257 forward 7 unknown #
coedge $-1 $241 $106 $255 $258 forward $101 $-1 #
vertex $-1 $170 $259 #
vertex $-1 $258 $260 #
straight-curve $-1 0 -39.104714437816924 -9.6150075628272234 -1 0 0 I I #
face $-1 $261 $262 $25 $-1 $263 reversed single #
loop $-1 $-1 $114 $108 #
plane-surface $-1 -52.027660434068437 -43.686598444305083 0 1 0 0 0 0 -1 forward_v I I I I #
coedge $-1 $264 $265 $266 $267 forward $109 $-1 #
coedge $-1 $268 $111 $269 $270 forward $69 $-1 #
coedge $-1 $111 $268 $187 $271 forward $69 $-1 #
edge $-1 $189 -52.027660434068437 $272 -49.027660434068437 $111 $273 forward 7 unknown #
coedge $-1 $113 $112 $274 $275 forward $44 $-1 #
coedge $-1 $276 $277 $112 $186 forward $278 $-1 #
edge $-1 $279 49.027660434068437 $190 52.027660434068437 $185 $280 forward 7 unknown #
coedge $-1 $266 $114 $182 $271 reversed $178 $-1 #
coedge $-1 $114 $266 $276 $281 reversed $178 $-1 #
vertex $-1 $183 $282 #
vertex $-1 $281 $283 #
straight-curve $-1 -52.027660434068437 -39.104714437816924 0 0 0 1 I I #
face $-1 $-1 $284 $26 $-1 $285 reversed single #
loop $-1 $-1 $122 $116 #
plane-surface $-1 0 0 9.6150075628272234 0 0 1 1 0 0 forward_v I I I I #
coedge $-1 $286 $287 $288 $289 reversed $117 $-1 #
coedge $-1 $290 $119 $121 $202 forward $73 $-1 #
coedge $-1 $119 $290 $286 $291 forward $73 $-1 #
coedge $-1 $288 $122 $119 $199 forward $193 $-1 #
edge $-1 $205 -20.438563242780155 $292 6.81285441426005 $198 $293 forward 7 unknown #
coedge $-1 $294 $295 $120 $201 forward $284 $-1 #
edge $-1 $296 -61.572444740344267 $204 -57.160898584782636 $200 $297 forward 7 unknown #
edge $-1 $205 72.949263225293961 $296 78.209428875633861 $121 $298 forward 7 unknown #
coedge $-1 $122 $288 $294 $299 forward $193 $-1 #
vertex $-1 $201 $300 #
vertex $-1 $123 $301 #
straight-curve $-1 -27.251417657040207 46.572599305518118 9.6150075628272234 0 -1 0 I I #
coedge $-1 $207 $207 $-1 $302 reversed $126 $-1 #
edge $-1 $303 0 $303 6.2831853071796004 $127 $304 forward 7 unknown #
vertex $-1 $130 $305 #
ellipse-curve $-1 -19.465298326457287 37.672268698324068 7.4092344850464169 0 0.83867057594974714 0.54463902268945019 1 0 0 1 I I #
coedge $-1 $211 $211 $-1 $306 reversed $133 $-1 #
edge $-1 $307 0 $307 6.2831853071796004 $134 $308 forward 7 unknown #
vertex $-1 $137 $309 #
ellipse-curve $-1 -7.7861193305829133 37.672268698324068 7.4092344850464169 0 0.83867057594974714 0.54463902268945019 1 0 0 1 I I #
face $-1 $-1 $310 $29 $-1 $311 reversed single #
loop $-1 $-1 $312 $138 #
plane-surface $-1 57.612842188787496 0 0 -1 0 0 0 0 1 forward_v I I I I #
coedge $-1 $313 $141 $143 $224 forward $87 $-1 #
coedge $-1 $141 $313 $312 $314 reversed $87 $-1 #
coedge $-1 $315 $144 $141 $221 forward $139 $-1 #
edge $-1 $227 8.3678578516135929 $316 35.6192755086538 $220 $317 forward 7 unknown #
coedge $-1 $318 $319 $142 $223 forward $310 $-1 #
edge $-1 $320 -61.572444740344267 $226 -57.160898584782636 $222 $321 forward 7 unknown #
edge $-1 $227 72.949263225293961 $320 78.209428875633861 $143 $322 forward 7 unknown #
coedge $-1 $144 $315 $318 $323 forward $139 $-1 #
vertex $-1 $223 $324 #
vertex $-1 $145 $325 #
straight-curve $-1 30.361424531747289 46.572599305518118 9.6150075628272234 0 -1 0 I I #
coedge $-1 $229 $229 $-1 $326 reversed $148 $-1 #
edge $-1 $327 0 $327 6.2831853071796004 $149 $328 forward 7 unknown #
vertex $-1 $152 $329 #
ellipse-curve $-1 38.14754386233021 37.672268698324068 7.4092344850464169 0 0.83867057594974714 0.54463902268945019 1 0 0 1 I I #
coedge $-1 $233 $233 $-1 $330 reversed $155 $-1 #
edge $-1 $331 0 $331 6.2831853071796004 $156 $332 forward 7 unknown #
vertex $-1 $159 $333 #
ellipse-curve $-1 49.826722858204576 37.672268698324068 7.4092344850464169 0 0.83867057594974714 0.54463902268945019 1 0 0 1 I I #
face $-1 $-1 $249 $24 $-1 $334 reversed single #
loop $-1 $-1 $335 $160 #
plane-surface $-1 0 39.104714437816924 0 0 -1 0 0 0 -1 forward_v I I I I #
coedge $-1 $255 $254 $336 $337 forward $161 $-1 #
coedge $-1 $163 $173 $338 $339 forward $101 $-1 #
coedge $-1 $248 $169 $163 $243 reversed $249 $-1 #
edge $-1 $340 -39.104714437816924 $174 39.104714437816924 $242 $341 forward 7 unknown #
coedge $-1 $165 $164 $254 $342 forward $65 $-1 #
coedge $-1 $335 $336 $164 $246 reversed $238 $-1 #
edge $-1 $251 -57.612842188787496 $343 57.612842188787496 $245 $344 forward 7 unknown #
edge $-1 $256 -57.612842188787496 $250 57.612842188787496 $168 $345 forward 7 unknown #
coedge $-1 $166 $242 $335 $346 reversed $249 $-1 #
loop $-1 $-1 $169 $237 #
vertex $-1 $167 $347 #
vertex $-1 $167 $348 #
straight-curve $-1 57.612842188787496 0 9.6150075628272234 0 1 0 I I #
straight-curve $-1 57.612842188787496 -39.104714437816924 0 0 0 -1 I I #
coedge $-1 $240 $171 $244 $342 reversed $161 $-1 #
coedge $-1 $171 $240 $173 $258 reversed $161 $-1 #
vertex $-1 $342 $349 #
straight-curve $-1 -57.612842188787496 -39.104714437816924 0 0 0 -1 I I #
edge $-1 $175 -39.104714437816924 $350 39.104714437816924 $255 $351 forward 7 unknown #
point $-1 57.612842188787496 -39.104714437816924 -9.6150075628272234 #
point $-1 -57.612842188787496 -39.104714437816924 -9.6150075628272234 #
face $-1 $-1 $278 $25 $-1 $352 forward single #
loop $-1 $-1 $353 $177 #
plane-surface $-1 -49.027660434068437 -43.686598444305083 0 -1 0 0 0 0 1 forward_v I I I I #
coedge $-1 $354 $180 $268 $355 reversed $109 $-1 #
coedge $-1 $180 $354 $356 $357 reversed $109 $-1 #
coedge $-1 $188 $187 $180 $267 reversed $178 $-1 #
edge $-1 $358 -9.6150075628272234 $359 9.6150075628272234 $266 $360 forward 7 unknown #
coedge $-1 $182 $181 $264 $355 forward $69 $-1 #
coedge $-1 $274 $353 $181 $270 reversed $262 $-1 #
edge $-1 $272 -4.5818840064881599 $361 4.5818840064881599 $269 $362 forward 7 unknown #
edge $-1 $359 -4.5818840064881599 $189 4.5818840064881599 $187 $363 forward 7 unknown #
vertex $-1 $270 $364 #
straight-curve $-1 0 -39.104714437816924 -9.6150075628272234 1 0 0 I I #
coedge $-1 $365 $269 $184 $275 reversed $262 $-1 #
edge $-1 $279 -9.6150075628272234 $272 9.6150075628272234 $274 $366 forward 7 unknown #
coedge $-1 $356 $185 $188 $281 forward $278 $-1 #
coedge $-1 $185 $356 $365 $367 forward $278 $-1 #
loop $-1 $-1 $185 $261 #
vertex $-1 $186 $368 #
straight-curve $-1 0 -39.104714437816924 9.6150075628272234 -1 0 0 I I #
edge $-1 $190 -4.5818840064881599 $358 4.5818840064881599 $188 $369 forward 7 unknown #
point $-1 -52.027660434068437 -39.104714437816924 -9.6150075628272234 #
point $-1 -52.027660434068437 -39.104714437816924 9.6150075628272234 #
loop $-1 $-1 $200 $192 #
plane-surface $-1 0 39.104714437816924 0 0 -1 0 0 0 -1 forward_v I I I I #
coedge $-1 $287 $195 $197 $291 reversed $117 $-1 #
coedge $-1 $195 $286 $370 $371 reversed $117 $-1 #
coedge $-1 $203 $198 $195 $289 forward $193 $-1 #
edge $-1 $292 -10.332776346686927 $372 -7.4678848677011942 $288 $373 forward 7 unknown #
coedge $-1 $197 $196 $295 $374 reversed $73 $-1 #
edge $-1 $375 -78.209428875633861 $292 -72.949263225293961 $286 $376 forward 7 unknown #
vertex $-1 $199 $377 #
straight-curve $-1 -6.8128544142600518 36.239822958831205 9.6150075628272234 1 0 0 I I #
coedge $-1 $370 $200 $203 $299 reversed $284 $-1 #
coedge $-1 $200 $370 $290 $374 forward $284 $-1 #
vertex $-1 $201 $378 #
straight-curve $-1 -27.251417657040207 39.104714437816924 66.775906147609859 0 0 1 I I #
straight-curve $-1 -27.251417657040207 -3.4911924701083592 70.795408167094223 0 0.54463902268945019 -0.83867057594974714 I I #
edge $-1 $372 1.7763568394002505e-015 $204 27.251417657040207 $294 $379 forward 7 unknown #
point $-1 -27.251417657040207 39.104714437816924 9.6150075628272234 #
point $-1 -27.251417657040207 36.239822958831191 9.6150075628272305 #
edge $-1 $380 1 $380 0 $207 $-1 forward 7 unknown #
vertex $-1 $208 $381 #
ellipse-curve $-1 -19.465298326457287 35.319783271623621 5.8815126352147891 0 0.83867057594974714 0.54463902268945019 1 0 0 1 I I #
point $-1 -18.465298326457287 37.672268698324054 7.4092344850464116 #
edge $-1 $382 1 $382 0 $211 $-1 forward 7 unknown #
vertex $-1 $212 $383 #
ellipse-curve $-1 -7.7861193305829133 35.319783271623621 5.8815126352147891 0 0.83867057594974714 0.54463902268945019 1 0 0 1 I I #
point $-1 -6.7861193305829133 37.672268698324054 7.4092344850464116 #
loop $-1 $-1 $222 $215 #
plane-surface $-1 0 39.104714437816924 0 0 -1 0 0 0 -1 forward_v I I I I #
coedge $-1 $384 $385 $219 $314 forward $216 $-1 #
coedge $-1 $219 $218 $319 $386 reversed $87 $-1 #
edge $-1 $316 42.311530526776494 $387 47.571696177116387 $312 $388 forward 7 unknown #
coedge $-1 $225 $220 $385 $389 forward $139 $-1 #
vertex $-1 $389 $390 #
straight-curve $-1 21.993566680133696 36.239822958831205 9.6150075628272234 1 0 0 I I #
coedge $-1 $391 $222 $225 $323 reversed $310 $-1 #
coedge $-1 $222 $391 $313 $386 forward $310 $-1 #
vertex $-1 $223 $392 #
straight-curve $-1 30.361424531747289 39.104714437816924 66.775906147609859 0 0 1 I I #
straight-curve $-1 30.361424531747289 -3.4911924701083592 70.795408167094223 0 0.54463902268945019 -0.83867057594974714 I I #
edge $-1 $393 -57.612842188787496 $226 -30.361424531747289 $318 $394 forward 7 unknown #
point $-1 30.361424531747289 39.104714437816924 9.6150075628272234 #
point $-1 30.361424531747289 36.239822958831191 9.6150075628272305 #
edge $-1 $395 1 $395 0 $229 $-1 forward 7 unknown #
vertex $-1 $230 $396 #
ellipse-curve $-1 38.14754386233021 35.319783271623621 5.8815126352147891 0 0.83867057594974714 0.54463902268945019 1 0 0 1 I I #
point $-1 39.14754386233021 37.672268698324054 7.4092344850464116 #
edge $-1 $397 1 $397 0 $233 $-1 forward 7 unknown #
vertex $-1 $234 $398 #
ellipse-curve $-1 49.826722858204576 35.319783271623621 5.8815126352147891 0 0.83867057594974714 0.54463902268945019 1 0 0 1 I I #
point $-1 50.826722858204576 37.672268698324054 7.4092344850464116 #
plane-surface $-1 57.612842188787496 0 0 -1 0 0 0 0 1 forward_v I I I I #
coedge $-1 $338 $245 $248 $346 forward $238 $-1 #
coedge $-1 $245 $338 $240 $337 reversed $238 $-1 #
edge $-1 $343 -9.6150075628272234 $350 9.6150075628272234 $336 $399 forward 7 unknown #
coedge $-1 $336 $335 $241 $339 reversed $238 $-1 #
edge $-1 $350 -57.612842188787496 $340 57.612842188787496 $338 $400 forward 7 unknown #
vertex $-1 $243 $401 #
straight-curve $-1 57.612842188787496 0 -9.6150075628272234 0 -1 0 I I #
edge $-1 $343 -39.104714437816924 $256 39.104714437816924 $254 $402 forward 7 unknown #
vertex $-1 $246 $403 #
straight-curve $-1 0 39.104714437816924 9.6150075628272234 -1 0 0 I I #
straight-curve $-1 0 -39.104714437816924 9.6150075628272234 1 0 0 I I #
edge $-1 $251 -9.6150075628272234 $340 9.6150075628272234 $248 $404 forward 7 unknown #
point $-1 57.612842188787496 -39.104714437816924 9.6150075628272234 #
point $-1 57.612842188787496 39.104714437816924 9.6150075628272234 #
point $-1 -57.612842188787496 -39.104714437816924 9.6150075628272234 #
vertex $-1 $339 $405 #
straight-curve $-1 -57.612842188787496 0 -9.6150075628272234 0 1 0 I I #
plane-surface $-1 0 0 9.6150075628272234 0 0 1 1 0 0 forward_v I I I I #
coedge $-1 $269 $365 $354 $406 forward $262 $-1 #
coedge $-1 $265 $264 $353 $406 reversed $109 $-1 #
edge $-1 $361 -1.5 $359 1.5 $264 $407 forward 7 unknown #
coedge $-1 $277 $276 $265 $357 forward $278 $-1 #
edge $-1 $358 -1.5 $408 1.5 $265 $409 forward 7 unknown #
vertex $-1 $281 $410 #
vertex $-1 $271 $411 #
straight-curve $-1 -52.027660434068437 -48.268482450793243 0 0 0 -1 I I #
vertex $-1 $406 $412 #
straight-curve $-1 -49.027660434068437 -43.686598444305083 -9.6150075628272234 0 -1 0 I I #
straight-curve $-1 -52.027660434068437 -43.686598444305083 -9.6150075628272234 0 1 0 I I #
point $-1 -49.027660434068437 -39.104714437816924 -9.6150075628272234 #
coedge $-1 $353 $274 $277 $367 reversed $262 $-1 #
straight-curve $-1 -49.027660434068437 -39.104714437816924 0 0 0 -1 I I #
edge $-1 $408 -4.5818840064881599 $279 4.5818840064881599 $365 $413 forward 7 unknown #
point $-1 -49.027660434068437 -39.104714437816924 9.6150075628272234 #
straight-curve $-1 -52.027660434068437 -43.686598444305083 9.6150075628272234 0 -1 0 I I #
coedge $-1 $295 $294 $287 $371 forward $284 $-1 #
edge $-1 $372 57.160898584782636 $375 61.572444740344267 $370 $414 forward 7 unknown #
vertex $-1 $299 $415 #
straight-curve $-1 -1.7763568394002505e-015 46.572599305518118 9.6150075628272234 0 1 0 I I #
edge $-1 $375 -6.81285441426005 $296 20.438563242780155 $295 $416 forward 7 unknown #
vertex $-1 $374 $417 #
straight-curve $-1 -1.7763568394002505e-015 -3.4911924701083592 70.795408167094223 0 -0.54463902268945019 0.83867057594974714 I I #
point $-1 -1.7763568394002505e-015 36.239822958831191 9.6150075628272305 #
point $-1 -27.251417657040207 39.104714437816924 5.2034614072655927 #
straight-curve $-1 0 39.104714437816924 9.6150075628272234 -1 0 0 I I #
vertex $-1 $302 $418 #
point $-1 -18.465298326457287 35.319783271623621 5.8815126352147891 #
vertex $-1 $306 $419 #
point $-1 -6.7861193305829133 35.319783271623621 5.8815126352147891 #
coedge $-1 $385 $312 $391 $420 reversed $216 $-1 #
coedge $-1 $312 $384 $315 $389 reversed $216 $-1 #
edge $-1 $387 -35.6192755086538 $320 -8.3678578516135929 $319 $421 forward 7 unknown #
vertex $-1 $314 $422 #
straight-curve $-1 57.612842188787496 13.195312324232805 45.100443239034178 0 0.54463902268945019 -0.83867057594974714 I I #
edge $-1 $316 36.239822958831191 $393 39.104714437816924 $385 $423 forward 7 unknown #
point $-1 57.612842188787496 36.239822958831191 9.6150075628272305 #
coedge $-1 $319 $318 $384 $420 forward $310 $-1 #
point $-1 30.361424531747289 39.104714437816924 5.2034614072655927 #
vertex $-1 $389 $424 #
straight-curve $-1 0 39.104714437816924 9.6150075628272234 -1 0 0 I I #
vertex $-1 $326 $425 #
point $-1 39.14754386233021 35.319783271623621 5.8815126352147891 #
vertex $-1 $330 $426 #
point $-1 50.826722858204576 35.319783271623621 5.8815126352147891 #
straight-curve $-1 -57.612842188787496 39.104714437816924 0 0 0 -1 I I #
straight-curve $-1 0 39.104714437816924 -9.6150075628272234 1 0 0 I I #
point $-1 57.612842188787496 39.104714437816924 -9.6150075628272234 #
straight-curve $-1 -57.612842188787496 0 9.6150075628272234 0 -1 0 I I #
point $-1 -57.612842188787496 39.104714437816924 9.6150075628272234 #
straight-curve $-1 57.612842188787496 39.104714437816924 0 0 0 -1 I I #
point $-1 -57.612842188787496 39.104714437816924 -9.6150075628272234 #
edge $-1 $408 -9.6150075628272234 $361 9.6150075628272234 $353 $427 forward 7 unknown #
straight-curve $-1 -50.527660434068437 -48.268482450793243 -9.6150075628272234 -1 0 0 I I #
vertex $-1 $367 $428 #
straight-curve $-1 -50.527660434068437 -48.268482450793243 9.6150075628272234 1 0 0 I I #
point $-1 -52.027660434068437 -48.268482450793243 9.6150075628272234 #
point $-1 -52.027660434068437 -48.268482450793243 -9.6150075628272234 #
point $-1 -49.027660434068437 -48.268482450793243 -9.6150075628272234 #
straight-curve $-1 -49.027660434068437 -43.686598444305083 9.6150075628272234 0 1 0 I I #
straight-curve $-1 -1.7763568394002505e-015 39.104714437816924 66.775906147609859 0 0 -1 I I #
point $-1 -1.7763568394002505e-015 39.104714437816924 9.6150075628272234 #
straight-curve $-1 -6.8128544142600518 39.104714437816924 5.2034614072655963 -1 0 0 I I #
point $-1 -1.7763568394002505e-015 39.104714437816924 5.2034614072655927 #
point $-1 -19.465298326457287 34.481112695673872 5.3368736125253387 #
point $-1 -7.7861193305829133 34.481112695673872 5.3368736125253387 #
edge $-1 $393 -9.6150075628272234 $387 -5.2034614072655927 $384 $429 forward 7 unknown #
straight-curve $-1 21.993566680133696 39.104714437816924 5.2034614072655963 -1 0 0 I I #
point $-1 57.612842188787496 39.104714437816924 5.2034614072655927 #
straight-curve $-1 57.612842188787496 0 9.6150075628272234 0 1 0 I I #
point $-1 57.612842188787496 39.104714437816924 9.6150075628272234 #
point $-1 38.14754386233021 34.481112695673872 5.3368736125253387 #
point $-1 49.826722858204576 34.481112695673872 5.3368736125253387 #
straight-curve $-1 -49.027660434068437 -48.268482450793243 0 0 0 -1 I I #
point $-1 -49.027660434068437 -48.268482450793243 9.6150075628272234 #
straight-curve $-1 57.612842188787496 39.104714437816924 0 0 0 -1 I I #
End-of-ACIS-data 