500 0 11 0           
7 Unknown 11 ACIS 5.0 NT 24 Fri Mar 26 15:11:05 1999 
-1 9.9999999999999995e-007 1e-010 
body $-1 $11 $-1 $12 #
body $-1 $13 $-1 $14 #
body $-1 $15 $-1 $16 #
body $-1 $17 $-1 $18 #
body $-1 $19 $-1 $20 #
body $-1 $21 $-1 $22 #
body $-1 $23 $-1 $24 #
body $-1 $25 $-1 $26 #
body $-1 $27 $-1 $28 #
body $-1 $29 $-1 $30 #
body $-1 $31 $-1 $32 #
lump $-1 $-1 $33 $0 #
transform $-1 1 0 0 0 1 0 0 0 1 43.950315866573078 27.427400706992795 11.154607602207324 1 rotate no_reflect no_shear #
lump $-1 $-1 $34 $1 #
transform $-1 1 0 0 0 1 0 0 0 1 43.950315866573078 27.427400706992795 11.154607602207324 1 rotate no_reflect no_shear #
lump $-1 $-1 $35 $2 #
transform $-1 1 0 0 0 1 0 0 0 1 43.950315866573078 27.427400706992795 11.154607602207324 1 rotate no_reflect no_shear #
lump $-1 $-1 $36 $3 #
transform $-1 1 0 0 0 1 0 0 0 1 43.950315866573078 27.427400706992795 11.154607602207324 1 rotate no_reflect no_shear #
lump $-1 $-1 $37 $4 #
transform $-1 1 0 0 0 1 0 0 0 1 43.950315866573078 27.427400706992795 11.154607602207324 1 rotate no_reflect no_shear #
lump $-1 $-1 $38 $5 #
transform $-1 1 0 0 0 1 0 0 0 1 43.950315866573078 27.427400706992795 11.154607602207324 1 rotate no_reflect no_shear #
lump $-1 $-1 $39 $6 #
transform $-1 1 0 0 0 1 0 0 0 1 43.950315866573078 27.427400706992795 11.154607602207324 1 rotate no_reflect no_shear #
lump $-1 $-1 $40 $7 #
transform $-1 1 0 0 0 1 0 0 0 1 43.950315866573078 27.427400706992795 11.154607602207324 1 rotate no_reflect no_shear #
lump $-1 $-1 $41 $8 #
transform $-1 1 0 0 0 1 0 0 0 1 43.950315866573078 27.427400706992795 11.154607602207324 1 rotate no_reflect no_shear #
lump $-1 $-1 $42 $9 #
transform $-1 1 0 0 0 1 0 0 0 1 43.950315866573078 27.427400706992795 11.154607602207324 1 rotate no_reflect no_shear #
lump $-1 $-1 $43 $10 #
transform $-1 1 0 0 0 1 0 0 0 1 43.950315866573078 27.427400706992795 11.154607602207324 1 rotate no_reflect no_shear #
shell $-1 $-1 $-1 $44 $-1 $11 #
shell $-1 $-1 $-1 $45 $-1 $13 #
shell $-1 $-1 $-1 $46 $-1 $15 #
shell $-1 $-1 $-1 $47 $-1 $17 #
shell $-1 $-1 $-1 $48 $-1 $19 #
shell $-1 $-1 $-1 $49 $-1 $21 #
shell $-1 $-1 $-1 $50 $-1 $23 #
shell $-1 $-1 $-1 $51 $-1 $25 #
shell $-1 $-1 $-1 $52 $-1 $27 #
shell $-1 $-1 $-1 $53 $-1 $29 #
shell $-1 $-1 $-1 $54 $-1 $31 #
face $-1 $55 $56 $33 $-1 $57 forward single #
face $-1 $58 $59 $34 $-1 $60 forward single #
face $-1 $61 $62 $35 $-1 $63 forward single #
face $-1 $64 $65 $36 $-1 $66 reversed single #
face $-1 $67 $68 $37 $-1 $69 forward single #
face $-1 $70 $71 $38 $-1 $72 forward single #
face $-1 $73 $74 $39 $-1 $75 forward single #
face $-1 $76 $77 $40 $-1 $78 reversed single #
face $-1 $79 $80 $41 $-1 $81 forward single #
face $-1 $82 $83 $42 $-1 $84 forward single #
face $-1 $85 $86 $43 $-1 $87 forward single #
face $-1 $88 $89 $33 $-1 $90 reversed single #
loop $-1 $-1 $91 $44 #
plane-surface $-1 0 0 11.154607602207324 0 0 1 1 0 0 forward_v I I I I #
face $-1 $92 $93 $34 $-1 $94 reversed single #
loop $-1 $-1 $95 $45 #
plane-surface $-1 -38.712834920562265 0 -2.4978947216898906 0 0 1 1 0 0 forward_v I I I I #
face $-1 $96 $97 $35 $-1 $98 reversed single #
loop $-1 $-1 $99 $46 #
plane-surface $-1 38.712834920562273 0 -2.4978947216898906 0 0 1 1 0 0 forward_v I I I I #
face $-1 $100 $101 $36 $-1 $102 reversed single #
loop $-1 $-1 $103 $47 #
plane-surface $-1 -12.447244990704903 -91.713853826156907 61.821552692926076 1 0 0 0 0.73135370988377701 -0.68199835119979291 forward_v I I I I #
face $-1 $104 $105 $37 $-1 $106 forward single #
loop $-1 $107 $108 $48 #
cone-surface $-1 -9.9976913015706685 -22.734322041249094 6.1730380162538632 0 0.73135370988377701 -0.68199835119979291 0.25 0 0 1 I I 0 1 0.25 forward I I I I #
face $-1 $109 $110 $38 $-1 $111 forward single #
loop $-1 $112 $113 $49 #
cone-surface $-1 -6.3233607678693176 -22.734322041249094 6.1730380162538632 0 0.73135370988377701 -0.68199835119979291 0.25 0 0 1 I I 0 1 0.25 forward I I I I #
face $-1 $114 $115 $39 $-1 $116 forward single #
loop $-1 $117 $118 $50 #
cone-surface $-1 -2.6490302341679666 -22.734322041249094 6.1730380162538632 0 0.73135370988377701 -0.68199835119979291 0.25 0 0 1 I I 0 1 0.25 forward I I I I #
face $-1 $119 $120 $40 $-1 $121 reversed single #
loop $-1 $-1 $122 $51 #
plane-surface $-1 5.3781698641242599 71.271008717040118 101.23397282601908 -1 0 0 0 0.83867057594974714 0.54463902268945019 forward_v I I I I #
face $-1 $123 $124 $41 $-1 $125 forward single #
loop $-1 $126 $127 $52 #
cone-surface $-1 -9.4483665036198232 25.657089313859277 8.9062827432996023 0 -0.83867057594974714 -0.54463902268945019 0.5 0 0 1 I I 0 1 0.5 forward I I I I #
face $-1 $128 $129 $42 $-1 $130 forward single #
loop $-1 $131 $132 $53 #
cone-surface $-1 -3.8884153657157938 25.657089313859277 8.9062827432996023 0 -0.83867057594974714 -0.54463902268945019 0.5 0 0 1 I I 0 1 0.5 forward I I I I #
face $-1 $133 $134 $43 $-1 $135 forward single #
loop $-1 $136 $137 $54 #
cone-surface $-1 1.6715357721882356 25.657089313859277 8.9062827432996023 0 -0.83867057594974714 -0.54463902268945019 0.5 0 0 1 I I 0 1 0.5 forward I I I I #
face $-1 $138 $139 $33 $-1 $140 reversed single #
loop $-1 $-1 $141 $55 #
plane-surface $-1 0 0 -11.154607602207324 0 0 1 1 0 0 forward_v I I I I #
coedge $-1 $142 $143 $144 $145 forward $56 $-1 #
face $-1 $146 $147 $34 $-1 $148 reversed single #
loop $-1 $-1 $149 $58 #
plane-surface $-1 -38.712834920562265 0 -8.1130194067501318 0 0 1 1 0 0 forward_v I I I I #
coedge $-1 $150 $151 $152 $153 forward $59 $-1 #
face $-1 $154 $155 $35 $-1 $156 reversed single #
loop $-1 $-1 $157 $61 #
plane-surface $-1 38.712834920562273 0 -8.1130194067501318 0 0 1 1 0 0 forward_v I I I I #
coedge $-1 $158 $159 $160 $161 reversed $62 $-1 #
face $-1 $162 $163 $36 $-1 $164 reversed single #
loop $-1 $-1 $165 $64 #
plane-surface $-1 -6.3233607678693105 -27.427400706992813 1.8734667815002055 0 -0.73135370988377701 0.68199835119979291 1 0 0 forward_v I I I I #
coedge $-1 $166 $167 $168 $169 reversed $65 $-1 #
face $-1 $-1 $170 $37 $-1 $171 forward single #
loop $-1 $172 $173 $67 #
cone-surface $-1 -9.9976913015706685 -22.277225972571735 5.7467890467539924 0 0.73135370988377701 -0.68199835119979291 0.125 0 0 1 I I -0.70710678118654746 0.70710678118654746 0.125 forward I I I I #
loop $-1 $-1 $174 $48 #
coedge $-1 $108 $108 $175 $176 reversed $68 $-1 #
face $-1 $-1 $177 $38 $-1 $178 forward single #
loop $-1 $179 $180 $70 #
cone-surface $-1 -6.3233607678693176 -22.277225972571735 5.7467890467539924 0 0.73135370988377701 -0.68199835119979291 0.125 0 0 1 I I -0.70710678118654746 0.70710678118654746 0.125 forward I I I I #
loop $-1 $-1 $181 $49 #
coedge $-1 $113 $113 $182 $183 reversed $71 $-1 #
face $-1 $-1 $184 $39 $-1 $185 forward single #
loop $-1 $186 $187 $73 #
cone-surface $-1 -2.6490302341679666 -22.277225972571735 5.7467890467539924 0 0.73135370988377701 -0.68199835119979291 0.125 0 0 1 I I -0.70710678118654746 0.70710678118654746 0.125 forward I I I I #
loop $-1 $-1 $188 $50 #
coedge $-1 $118 $118 $189 $190 reversed $74 $-1 #
face $-1 $191 $192 $40 $-1 $193 reversed single #
loop $-1 $-1 $194 $76 #
plane-surface $-1 -3.8884153657157938 -2.4486647249441944 53.359858665093093 0 0.83867057594974714 0.54463902268945019 1 0 0 forward_v I I I I #
coedge $-1 $195 $196 $197 $198 reversed $77 $-1 #
face $-1 $-1 $199 $41 $-1 $200 forward single #
loop $-1 $201 $202 $79 #
cone-surface $-1 -9.4483665036198232 24.910938177114044 8.4217265450147885 0 -0.83867057594974714 -0.54463902268945019 0.25 0 0 1 I I -0.70710678118654746 0.70710678118654746 0.25 forward I I I I #
loop $-1 $-1 $203 $52 #
coedge $-1 $127 $127 $204 $205 reversed $80 $-1 #
face $-1 $-1 $206 $42 $-1 $207 forward single #
loop $-1 $208 $209 $82 #
cone-surface $-1 -3.8884153657157938 24.910938177114044 8.4217265450147885 0 -0.83867057594974714 -0.54463902268945019 0.25 0 0 1 I I -0.70710678118654746 0.70710678118654746 0.25 forward I I I I #
loop $-1 $-1 $210 $53 #
coedge $-1 $132 $132 $211 $212 reversed $83 $-1 #
face $-1 $-1 $213 $43 $-1 $214 forward single #
loop $-1 $215 $216 $85 #
cone-surface $-1 1.6715357721882356 24.910938177114044 8.4217265450147885 0 -0.83867057594974714 -0.54463902268945019 0.25 0 0 1 I I -0.70710678118654746 0.70710678118654746 0.25 forward I I I I #
loop $-1 $-1 $217 $54 #
coedge $-1 $137 $137 $218 $219 reversed $86 $-1 #
face $-1 $220 $221 $33 $-1 $222 reversed single #
loop $-1 $-1 $223 $88 #
plane-surface $-1 0 -27.427400706992795 0 0 1 0 0 0 1 forward_v I I I I #
coedge $-1 $224 $225 $226 $227 forward $89 $-1 #
coedge $-1 $228 $91 $229 $230 forward $56 $-1 #
coedge $-1 $91 $228 $231 $232 forward $56 $-1 #
coedge $-1 $233 $234 $91 $145 reversed $235 $-1 #
edge $-1 $236 -27.427400706992795 $237 27.427400706992795 $144 $238 forward 7 unknown #
face $-1 $239 $240 $34 $-1 $241 reversed single #
loop $-1 $-1 $242 $92 #
plane-surface $-1 -33.475353974551453 0 -5.3054570642200112 -1 0 0 0 0 1 forward_v I I I I #
coedge $-1 $243 $244 $245 $246 forward $93 $-1 #
coedge $-1 $247 $95 $248 $249 reversed $59 $-1 #
coedge $-1 $95 $247 $250 $251 reversed $59 $-1 #
coedge $-1 $242 $252 $95 $153 reversed $147 $-1 #
edge $-1 $253 -27.427400706992795 $254 27.427400706992795 $152 $255 forward 7 unknown #
face $-1 $256 $257 $35 $-1 $258 reversed single #
loop $-1 $-1 $259 $96 #
plane-surface $-1 33.47535397455146 0 -5.3054570642200112 1 0 0 0 0 -1 forward_v I I I I #
coedge $-1 $260 $261 $262 $263 reversed $97 $-1 #
coedge $-1 $264 $99 $265 $266 reversed $62 $-1 #
coedge $-1 $99 $264 $267 $268 reversed $62 $-1 #
coedge $-1 $269 $270 $99 $161 forward $271 $-1 #
edge $-1 $272 -27.427400706992795 $273 27.427400706992795 $160 $274 forward 7 unknown #
face $-1 $275 $276 $36 $-1 $277 forward single #
loop $-1 $-1 $278 $100 #
plane-surface $-1 -0.19947654503371837 -91.713853826156907 61.821552692926076 -1 0 0 0 -0.73135370988377701 0.68199835119979291 forward_v I I I I #
coedge $-1 $279 $280 $281 $282 reversed $101 $-1 #
coedge $-1 $167 $103 $283 $284 reversed $65 $-1 #
coedge $-1 $103 $166 $279 $285 reversed $65 $-1 #
coedge $-1 $281 $286 $103 $169 forward $287 $-1 #
edge $-1 $288 19.756168744255714 $289 29.037309564962815 $168 $290 forward 7 unknown #
loop $-1 $-1 $175 $104 #
plane-surface $-1 -6.3233607678693105 -27.427400706992813 1.8734667815002055 0 -0.73135370988377701 0.68199835119979291 1 0 0 forward_v I I I I #
loop $-1 $-1 $291 $67 #
coedge $-1 $173 $173 $174 $292 reversed $105 $-1 #
coedge $-1 $174 $174 $173 $292 forward $107 $-1 #
coedge $-1 $175 $175 $108 $176 forward $170 $-1 #
edge $-1 $293 1.6896714999172667e-015 $293 6.2831853071796022 $175 $294 forward 7 unknown #
loop $-1 $-1 $182 $109 #
plane-surface $-1 -6.3233607678693105 -27.427400706992813 1.8734667815002055 0 -0.73135370988377701 0.68199835119979291 1 0 0 forward_v I I I I #
loop $-1 $-1 $295 $70 #
coedge $-1 $180 $180 $181 $296 reversed $110 $-1 #
coedge $-1 $181 $181 $180 $296 forward $112 $-1 #
coedge $-1 $182 $182 $113 $183 forward $177 $-1 #
edge $-1 $297 1.6896714999172667e-015 $297 6.2831853071796022 $182 $298 forward 7 unknown #
loop $-1 $-1 $189 $114 #
plane-surface $-1 -6.3233607678693105 -27.427400706992813 1.8734667815002055 0 -0.73135370988377701 0.68199835119979291 1 0 0 forward_v I I I I #
loop $-1 $-1 $299 $73 #
coedge $-1 $187 $187 $188 $300 reversed $115 $-1 #
coedge $-1 $188 $188 $187 $300 forward $117 $-1 #
coedge $-1 $189 $189 $118 $190 forward $184 $-1 #
edge $-1 $301 1.6896714999172667e-015 $301 6.2831853071796022 $189 $302 forward 7 unknown #
face $-1 $303 $304 $40 $-1 $305 reversed single #
loop $-1 $-1 $306 $119 #
plane-surface $-1 -13.155000595555848 71.271008717040118 101.23397282601908 1 0 0 0 -0.83867057594974714 -0.54463902268945019 forward_v I I I I #
coedge $-1 $307 $308 $309 $310 reversed $120 $-1 #
coedge $-1 $196 $122 $311 $312 reversed $77 $-1 #
coedge $-1 $122 $195 $307 $313 reversed $77 $-1 #
coedge $-1 $309 $314 $122 $198 forward $304 $-1 #
edge $-1 $315 39.462378810802221 $316 43.262235643392764 $197 $317 forward 7 unknown #
loop $-1 $-1 $204 $123 #
plane-surface $-1 -3.8884153657157938 -2.4486647249441944 53.359858665093093 0 0.83867057594974714 0.54463902268945019 1 0 0 forward_v I I I I #
loop $-1 $-1 $318 $79 #
coedge $-1 $202 $202 $203 $319 reversed $124 $-1 #
coedge $-1 $203 $203 $202 $319 forward $126 $-1 #
coedge $-1 $204 $204 $127 $205 forward $199 $-1 #
edge $-1 $320 -3.8698930118346922e-015 $320 6.2831853071795969 $204 $321 forward 7 unknown #
loop $-1 $-1 $211 $128 #
plane-surface $-1 -3.8884153657157938 -2.4486647249441944 53.359858665093093 0 0.83867057594974714 0.54463902268945019 1 0 0 forward_v I I I I #
loop $-1 $-1 $322 $82 #
coedge $-1 $209 $209 $210 $323 reversed $129 $-1 #
coedge $-1 $210 $210 $209 $323 forward $131 $-1 #
coedge $-1 $211 $211 $132 $212 forward $206 $-1 #
edge $-1 $324 -3.8698930118346922e-015 $324 6.2831853071795969 $211 $325 forward 7 unknown #
loop $-1 $-1 $218 $133 #
plane-surface $-1 -3.8884153657157938 -2.4486647249441944 53.359858665093093 0 0.83867057594974714 0.54463902268945019 1 0 0 forward_v I I I I #
loop $-1 $-1 $326 $85 #
coedge $-1 $216 $216 $217 $327 reversed $134 $-1 #
coedge $-1 $217 $217 $216 $327 forward $136 $-1 #
coedge $-1 $218 $218 $137 $219 forward $213 $-1 #
edge $-1 $328 -3.8698930118346922e-015 $328 6.2831853071795969 $218 $329 forward 7 unknown #
face $-1 $330 $331 $33 $-1 $332 reversed single #
loop $-1 $-1 $333 $138 #
plane-surface $-1 -43.950315866573078 0 0 1 0 0 0 0 -1 forward_v I I I I #
coedge $-1 $334 $231 $335 $336 forward $139 $-1 #
coedge $-1 $337 $141 $334 $338 forward $89 $-1 #
coedge $-1 $141 $337 $339 $340 forward $89 $-1 #
coedge $-1 $234 $233 $141 $227 reversed $235 $-1 #
edge $-1 $341 -27.427400706992795 $342 27.427400706992795 $226 $343 forward 7 unknown #
coedge $-1 $143 $142 $344 $345 forward $56 $-1 #
coedge $-1 $346 $347 $142 $230 reversed $331 $-1 #
edge $-1 $237 -43.950315866573078 $348 43.950315866573078 $229 $349 forward 7 unknown #
coedge $-1 $223 $350 $143 $232 reversed $139 $-1 #
edge $-1 $351 -43.950315866573078 $236 43.950315866573078 $231 $352 forward 7 unknown #
coedge $-1 $226 $144 $350 $353 forward $235 $-1 #
coedge $-1 $144 $226 $346 $354 reversed $235 $-1 #
loop $-1 $-1 $233 $330 #
vertex $-1 $145 $355 #
vertex $-1 $145 $356 #
straight-curve $-1 43.950315866573078 0 11.154607602207324 0 1 0 I I #
face $-1 $357 $358 $34 $-1 $359 reversed single #
loop $-1 $-1 $360 $146 #
plane-surface $-1 0 -27.427400706992795 0 0 1 0 0 0 1 forward_v I I I I #
coedge $-1 $245 $152 $361 $362 reversed $147 $-1 #
coedge $-1 $363 $149 $360 $364 reversed $93 $-1 #
coedge $-1 $149 $363 $365 $366 reversed $93 $-1 #
coedge $-1 $252 $242 $149 $246 reversed $147 $-1 #
edge $-1 $367 -27.427400706992795 $368 27.427400706992795 $245 $369 forward 7 unknown #
coedge $-1 $151 $150 $370 $371 reversed $59 $-1 #
coedge $-1 $372 $373 $150 $249 forward $374 $-1 #
edge $-1 $375 -24.593898406291945 $254 -14.11893651427032 $248 $376 forward 7 unknown #
coedge $-1 $377 $361 $151 $251 forward $240 $-1 #
edge $-1 $253 14.11893651427032 $378 24.593898406291945 $250 $379 forward 7 unknown #
coedge $-1 $152 $245 $372 $380 reversed $147 $-1 #
vertex $-1 $251 $381 #
vertex $-1 $249 $382 #
straight-curve $-1 -33.475353974551453 0 -2.4978947216898906 0 1 0 I I #
face $-1 $383 $384 $35 $-1 $385 reversed single #
loop $-1 $-1 $267 $154 #
plane-surface $-1 0 -27.427400706992795 0 0 1 0 0 0 1 forward_v I I I I #
coedge $-1 $386 $387 $388 $389 reversed $155 $-1 #
coedge $-1 $390 $157 $391 $392 reversed $97 $-1 #
coedge $-1 $157 $390 $393 $394 reversed $97 $-1 #
coedge $-1 $270 $269 $157 $263 forward $271 $-1 #
edge $-1 $395 -27.427400706992795 $396 27.427400706992795 $262 $397 forward 7 unknown #
coedge $-1 $159 $158 $387 $398 forward $62 $-1 #
coedge $-1 $399 $388 $158 $266 forward $384 $-1 #
edge $-1 $400 14.118936514270324 $272 24.593898406291949 $265 $401 forward 7 unknown #
coedge $-1 $402 $403 $159 $268 forward $257 $-1 #
edge $-1 $273 -24.593898406291949 $404 -14.118936514270324 $267 $405 forward 7 unknown #
coedge $-1 $262 $160 $403 $406 forward $271 $-1 #
coedge $-1 $160 $262 $399 $407 reversed $271 $-1 #
loop $-1 $-1 $160 $383 #
vertex $-1 $407 $408 #
vertex $-1 $406 $409 #
straight-curve $-1 43.950315866573078 0 -2.4978947216898906 0 -1 0 I I #
face $-1 $-1 $287 $36 $-1 $410 reversed single #
loop $-1 $-1 $411 $162 #
plane-surface $-1 0 0 11.154607602207324 0 0 1 1 0 0 forward_v I I I I #
coedge $-1 $412 $413 $414 $415 reversed $163 $-1 #
coedge $-1 $416 $165 $167 $285 forward $101 $-1 #
coedge $-1 $165 $416 $412 $417 forward $101 $-1 #
coedge $-1 $414 $168 $165 $282 forward $287 $-1 #
edge $-1 $289 -9.2855646067702473 $418 2.9622038389009369 $281 $419 forward 7 unknown #
coedge $-1 $420 $421 $166 $284 forward $276 $-1 #
edge $-1 $422 -27.084329827689249 $288 -18.429526206085658 $283 $423 forward 7 unknown #
edge $-1 $289 2.6080534875291995e-014 $422 12.690358571069572 $167 $424 forward 7 unknown #
coedge $-1 $168 $414 $420 $425 reversed $287 $-1 #
loop $-1 $-1 $414 $275 #
vertex $-1 $425 $426 #
vertex $-1 $169 $427 #
straight-curve $-1 -12.447244990704903 -27.427400706992792 30.910776346463038 0 0 -1 I I #
coedge $-1 $291 $291 $-1 $428 reversed $172 $-1 #
edge $-1 $429 0 $429 6.2831853071796004 $173 $430 forward 7 unknown #
vertex $-1 $176 $431 #
ellipse-curve $-1 -9.9976913015706685 -23.099998896191 6.5140371918537756 0 -0.73135370988377701 0.68199835119979291 0.25 0 0 1 I I #
coedge $-1 $295 $295 $-1 $432 reversed $179 $-1 #
edge $-1 $433 0 $433 6.2831853071796004 $180 $434 forward 7 unknown #
vertex $-1 $183 $435 #
ellipse-curve $-1 -6.3233607678693176 -23.099998896191 6.5140371918537756 0 -0.73135370988377701 0.68199835119979291 0.25 0 0 1 I I #
coedge $-1 $299 $299 $-1 $436 reversed $186 $-1 #
edge $-1 $437 0 $437 6.2831853071796004 $187 $438 forward 7 unknown #
vertex $-1 $190 $439 #
ellipse-curve $-1 -2.6490302341679666 -23.099998896191 6.5140371918537756 0 -0.73135370988377701 0.68199835119979291 0.25 0 0 1 I I #
face $-1 $-1 $440 $40 $-1 $441 forward single #
loop $-1 $-1 $197 $191 #
plane-surface $-1 0 27.427400706992795 0 0 -1 0 0 0 -1 forward_v I I I I #
coedge $-1 $442 $443 $444 $445 reversed $192 $-1 #
coedge $-1 $446 $194 $196 $313 forward $120 $-1 #
coedge $-1 $194 $446 $442 $447 forward $120 $-1 #
coedge $-1 $444 $197 $194 $310 forward $304 $-1 #
edge $-1 $316 -7.3223775469821568 $448 11.210792912697951 $309 $449 forward 7 unknown #
coedge $-1 $450 $451 $195 $312 forward $440 $-1 #
edge $-1 $452 -10.675759452278701 $315 -8.2081036515272636 $311 $453 forward 7 unknown #
edge $-1 $316 -54.854801413985612 $452 -50.323991652015096 $196 $454 forward 7 unknown #
coedge $-1 $197 $444 $450 $455 reversed $304 $-1 #
vertex $-1 $455 $456 #
vertex $-1 $198 $457 #
straight-curve $-1 5.3781698641242599 27.427400706992795 50.616986413009542 0 0 -1 I I #
coedge $-1 $318 $318 $-1 $458 reversed $201 $-1 #
edge $-1 $459 0 $459 6.2831853071796004 $202 $460 forward 7 unknown #
vertex $-1 $205 $461 #
ellipse-curve $-1 -9.4483665036198232 26.193572806617073 9.254679185912055 0 0.83867057594974714 0.54463902268945019 0.5 0 0 1 I I #
coedge $-1 $322 $322 $-1 $462 reversed $208 $-1 #
edge $-1 $463 0 $463 6.2831853071796004 $209 $464 forward 7 unknown #
vertex $-1 $212 $465 #
ellipse-curve $-1 -3.8884153657157938 26.193572806617073 9.254679185912055 0 0.83867057594974714 0.54463902268945019 0.5 0 0 1 I I #
coedge $-1 $326 $326 $-1 $466 reversed $215 $-1 #
edge $-1 $467 0 $467 6.2831853071796004 $216 $468 forward 7 unknown #
vertex $-1 $219 $469 #
ellipse-curve $-1 1.6715357721882356 26.193572806617073 9.254679185912055 0 0.83867057594974714 0.54463902268945019 0.5 0 0 1 I I #
face $-1 $-1 $235 $33 $-1 $470 reversed single #
loop $-1 $-1 $346 $220 #
plane-surface $-1 0 27.427400706992795 0 0 -1 0 0 0 -1 forward_v I I I I #
coedge $-1 $471 $344 $347 $472 forward $221 $-1 #
coedge $-1 $350 $223 $224 $338 reversed $139 $-1 #
coedge $-1 $344 $471 $223 $336 reversed $221 $-1 #
edge $-1 $351 -11.154607602207324 $473 11.154607602207324 $335 $474 forward 7 unknown #
coedge $-1 $225 $224 $471 $475 forward $89 $-1 #
edge $-1 $342 -43.950315866573078 $473 43.950315866573078 $334 $476 forward 7 unknown #
coedge $-1 $347 $346 $225 $340 reversed $331 $-1 #
edge $-1 $477 -43.950315866573078 $341 43.950315866573078 $339 $478 forward 7 unknown #
vertex $-1 $227 $479 #
vertex $-1 $353 $480 #
straight-curve $-1 43.950315866573078 0 -11.154607602207324 0 -1 0 I I #
coedge $-1 $333 $335 $228 $345 reversed $221 $-1 #
edge $-1 $348 -27.427400706992795 $351 27.427400706992795 $344 $481 forward 7 unknown #
coedge $-1 $339 $229 $234 $354 forward $331 $-1 #
coedge $-1 $229 $339 $333 $472 reversed $331 $-1 #
vertex $-1 $230 $482 #
straight-curve $-1 0 27.427400706992795 11.154607602207324 -1 0 0 I I #
coedge $-1 $231 $334 $233 $353 reversed $139 $-1 #
vertex $-1 $345 $483 #
straight-curve $-1 0 -27.427400706992795 11.154607602207324 1 0 0 I I #
edge $-1 $236 -11.154607602207324 $342 11.154607602207324 $233 $484 forward 7 unknown #
edge $-1 $237 -11.154607602207324 $341 11.154607602207324 $234 $485 forward 7 unknown #
point $-1 43.950315866573078 -27.427400706992795 11.154607602207324 #
point $-1 43.950315866573078 27.427400706992795 11.154607602207324 #
face $-1 $-1 $374 $34 $-1 $486 reversed single #
loop $-1 $-1 $487 $239 #
plane-surface $-1 -43.950315866573078 0 0 1 0 0 0 0 -1 forward_v I I I I #
coedge $-1 $361 $377 $243 $364 forward $240 $-1 #
coedge $-1 $250 $360 $242 $362 forward $240 $-1 #
edge $-1 $368 -5.4602908746401262 $253 0.15483381042011501 $361 $488 forward 7 unknown #
coedge $-1 $244 $243 $487 $489 reversed $93 $-1 #
edge $-1 $490 -24.593898406291945 $368 -14.11893651427032 $360 $491 forward 7 unknown #
coedge $-1 $373 $372 $244 $366 forward $374 $-1 #
edge $-1 $367 14.11893651427032 $492 24.593898406291945 $365 $493 forward 7 unknown #
vertex $-1 $366 $494 #
vertex $-1 $364 $495 #
straight-curve $-1 -33.475353974551453 0 -8.1130194067501318 0 -1 0 I I #
coedge $-1 $496 $497 $247 $371 forward $358 $-1 #
edge $-1 $378 -27.427400706992795 $375 27.427400706992795 $370 $498 forward 7 unknown #
coedge $-1 $365 $248 $252 $380 forward $374 $-1 #
coedge $-1 $248 $365 $496 $499 reversed $374 $-1 #
loop $-1 $-1 $365 $357 #
vertex $-1 $499 $500 #
straight-curve $-1 -19.356417460281133 27.427400706992795 -2.4978947216898906 1 0 0 I I #
coedge $-1 $360 $250 $497 $501 forward $240 $-1 #
vertex $-1 $501 $502 #
straight-curve $-1 -19.356417460281133 -27.427400706992795 -2.4978947216898906 -1 0 0 I I #
edge $-1 $254 -0.15483381042011501 $367 5.4602908746401262 $372 $503 forward 7 unknown #
point $-1 -33.475353974551453 -27.427400706992795 -2.4978947216898906 #
point $-1 -33.475353974551453 27.427400706992795 -2.4978947216898906 #
face $-1 $-1 $271 $35 $-1 $504 reversed single #
loop $-1 $-1 $265 $256 #
plane-surface $-1 0 27.427400706992795 0 0 -1 0 0 0 -1 forward_v I I I I #
coedge $-1 $505 $259 $390 $506 reversed $155 $-1 #
coedge $-1 $259 $505 $264 $398 reversed $155 $-1 #
coedge $-1 $265 $393 $259 $389 forward $384 $-1 #
edge $-1 $507 -5.4602908746401262 $400 0.15483381042011501 $388 $508 forward 7 unknown #
coedge $-1 $261 $260 $386 $506 forward $97 $-1 #
coedge $-1 $403 $402 $260 $392 forward $257 $-1 #
edge $-1 $509 14.118936514270324 $395 24.593898406291949 $391 $510 forward 7 unknown #
coedge $-1 $388 $399 $261 $394 forward $384 $-1 #
edge $-1 $396 -24.593898406291949 $507 -14.118936514270324 $393 $511 forward 7 unknown #
vertex $-1 $263 $512 #
vertex $-1 $263 $513 #
straight-curve $-1 43.950315866573078 0 -8.1130194067501318 0 1 0 I I #
edge $-1 $400 -27.427400706992795 $404 27.427400706992795 $387 $514 forward 7 unknown #
coedge $-1 $393 $265 $270 $407 forward $384 $-1 #
vertex $-1 $266 $515 #
straight-curve $-1 19.356417460281136 27.427400706992795 -2.4978947216898906 1 0 0 I I #
coedge $-1 $391 $267 $505 $516 forward $257 $-1 #
coedge $-1 $267 $391 $269 $406 reversed $257 $-1 #
vertex $-1 $268 $517 #
straight-curve $-1 19.356417460281136 -27.427400706992795 -2.4978947216898906 -1 0 0 I I #
edge $-1 $273 2.4978947216898906 $395 8.1130194067501318 $269 $518 forward 7 unknown #
edge $-1 $272 2.4978947216898906 $396 8.1130194067501318 $270 $519 forward 7 unknown #
point $-1 43.950315866573085 27.427400706992795 -2.4978947216898906 #
point $-1 43.950315866573085 -27.427400706992795 -2.4978947216898906 #
plane-surface $-1 0 -27.427400706992795 0 0 1 0 0 0 1 forward_v I I I I #
coedge $-1 $421 $420 $413 $520 forward $276 $-1 #
coedge $-1 $413 $278 $280 $417 reversed $163 $-1 #
coedge $-1 $278 $412 $411 $520 reversed $163 $-1 #
coedge $-1 $286 $281 $278 $415 forward $287 $-1 #
edge $-1 $418 -29.037309564962815 $521 -19.756168744255714 $414 $522 forward 7 unknown #
coedge $-1 $280 $279 $421 $523 reversed $101 $-1 #
edge $-1 $524 -12.690358571069572 $418 -2.6080534875291995e-014 $412 $525 forward 7 unknown #
vertex $-1 $282 $526 #
straight-curve $-1 -3.1616803839346552 -27.427400706992795 1.8734667815002277 1 0 0 I I #
coedge $-1 $411 $283 $286 $425 forward $276 $-1 #
coedge $-1 $283 $411 $416 $523 forward $276 $-1 #
vertex $-1 $284 $527 #
straight-curve $-1 -12.447244990704903 -45.856926913078453 11.154607602207324 0 -1 0 I I #
straight-curve $-1 -12.447244990704903 -27.427400706992813 1.8734667815002055 0 0.68199835119979291 0.73135370988377701 I I #
edge $-1 $288 -12.447244990704903 $521 -0.19947654503371837 $286 $528 forward 7 unknown #
point $-1 -12.447244990704903 -27.427400706992795 11.154607602207324 #
point $-1 -12.447244990704903 -27.427400706992795 1.8734667815002246 #
edge $-1 $529 1 $529 0 $291 $-1 forward 7 unknown #
vertex $-1 $292 $530 #
ellipse-curve $-1 -9.9976913015706685 -22.368645186307205 5.8320388406539667 0 -0.73135370988377701 0.68199835119979291 0.25 0 0 1 I I #
point $-1 -9.7476913015706685 -23.099998896190982 6.5140371918537596 #
edge $-1 $531 1 $531 0 $295 $-1 forward 7 unknown #
vertex $-1 $296 $532 #
ellipse-curve $-1 -6.3233607678693176 -22.368645186307205 5.8320388406539667 0 -0.73135370988377701 0.68199835119979291 0.25 0 0 1 I I #
point $-1 -6.0733607678693176 -23.099998896190982 6.5140371918537596 #
edge $-1 $533 1 $533 0 $299 $-1 forward 7 unknown #
vertex $-1 $300 $534 #
ellipse-curve $-1 -2.6490302341679666 -22.368645186307205 5.8320388406539667 0 -0.73135370988377701 0.68199835119979291 0.25 0 0 1 I I #
point $-1 -2.3990302341679666 -23.099998896190982 6.5140371918537596 #
loop $-1 $-1 $311 $303 #
plane-surface $-1 0 0 11.154607602207324 0 0 1 1 0 0 forward_v I I I I #
coedge $-1 $443 $306 $308 $447 reversed $192 $-1 #
coedge $-1 $306 $442 $535 $536 reversed $192 $-1 #
coedge $-1 $314 $309 $306 $445 forward $304 $-1 #
edge $-1 $448 -43.262235643392764 $537 -39.462378810802221 $444 $538 forward 7 unknown #
coedge $-1 $308 $307 $451 $539 reversed $120 $-1 #
edge $-1 $540 50.323991652015096 $448 54.854801413985612 $442 $541 forward 7 unknown #
vertex $-1 $310 $542 #
straight-curve $-1 -1.9442076828578969 27.427400706992795 7.3547507696167855 -1 0 0 I I #
coedge $-1 $535 $311 $314 $455 forward $440 $-1 #
coedge $-1 $311 $535 $446 $539 forward $440 $-1 #
vertex $-1 $312 $543 #
straight-curve $-1 5.3781698641242599 35.635504358520059 11.154607602207328 0 1 0 I I #
straight-curve $-1 5.3781698641242599 -2.4486647249441944 53.359858665093093 0 -0.54463902268945019 0.83867057594974714 I I #
edge $-1 $315 -5.3781698641242599 $537 13.155000595555848 $314 $544 forward 7 unknown #
point $-1 5.3781698641242599 27.427400706992795 11.154607602207324 #
point $-1 5.3781698641242599 27.427400706992795 7.3547507696167784 #
edge $-1 $545 1 $545 0 $318 $-1 forward 7 unknown #
vertex $-1 $319 $546 #
ellipse-curve $-1 -9.4483665036198232 25.120605821101481 8.5578863006871515 0 0.83867057594974714 0.54463902268945019 0.5 0 0 1 I I #
point $-1 -8.9483665036198232 26.19357280661707 9.254679185912055 #
edge $-1 $547 1 $547 0 $322 $-1 forward 7 unknown #
vertex $-1 $323 $548 #
ellipse-curve $-1 -3.8884153657157938 25.120605821101481 8.5578863006871515 0 0.83867057594974714 0.54463902268945019 0.5 0 0 1 I I #
point $-1 -3.3884153657157938 26.19357280661707 9.254679185912055 #
edge $-1 $549 1 $549 0 $326 $-1 forward 7 unknown #
vertex $-1 $327 $550 #
ellipse-curve $-1 1.6715357721882356 25.120605821101481 8.5578863006871515 0 0.83867057594974714 0.54463902268945019 0.5 0 0 1 I I #
point $-1 2.1715357721882356 26.19357280661707 9.254679185912055 #
plane-surface $-1 43.950315866573078 0 0 -1 0 0 0 0 1 forward_v I I I I #
coedge $-1 $335 $333 $337 $475 reversed $221 $-1 #
edge $-1 $348 -11.154607602207324 $477 11.154607602207324 $347 $551 forward 7 unknown #
vertex $-1 $475 $552 #
straight-curve $-1 -43.950315866573078 -27.427400706992795 0 0 0 -1 I I #
edge $-1 $473 -27.427400706992795 $477 27.427400706992795 $471 $553 forward 7 unknown #
straight-curve $-1 0 -27.427400706992795 -11.154607602207324 -1 0 0 I I #
vertex $-1 $340 $554 #
straight-curve $-1 0 27.427400706992795 -11.154607602207324 1 0 0 I I #
point $-1 43.950315866573078 27.427400706992795 -11.154607602207324 #
point $-1 43.950315866573078 -27.427400706992795 -11.154607602207324 #
straight-curve $-1 -43.950315866573078 0 11.154607602207324 0 -1 0 I I #
point $-1 -43.950315866573078 27.427400706992795 11.154607602207324 #
point $-1 -43.950315866573078 -27.427400706992795 11.154607602207324 #
straight-curve $-1 43.950315866573078 -27.427400706992795 0 0 0 -1 I I #
straight-curve $-1 43.950315866573078 27.427400706992795 0 0 0 -1 I I #
plane-surface $-1 0 27.427400706992795 0 0 -1 0 0 0 -1 forward_v I I I I #
coedge $-1 $497 $496 $363 $489 forward $358 $-1 #
straight-curve $-1 -33.475353974551453 -27.427400706992795 -2.6527285321100056 0 0 1 I I #
edge $-1 $492 -27.427400706992795 $490 27.427400706992795 $487 $555 forward 7 unknown #
vertex $-1 $364 $556 #
straight-curve $-1 -19.356417460281133 -27.427400706992795 -8.1130194067501318 1 0 0 I I #
vertex $-1 $366 $557 #
straight-curve $-1 -19.356417460281133 27.427400706992795 -8.1130194067501318 -1 0 0 I I #
point $-1 -33.475353974551453 27.427400706992795 -8.1130194067501318 #
point $-1 -33.475353974551453 -27.427400706992795 -8.1130194067501318 #
coedge $-1 $487 $370 $373 $499 forward $358 $-1 #
coedge $-1 $370 $487 $377 $501 reversed $358 $-1 #
straight-curve $-1 -43.950315866573078 0 -2.4978947216898906 0 1 0 I I #
edge $-1 $375 2.4978947216898906 $492 8.1130194067501318 $373 $558 forward 7 unknown #
point $-1 -43.950315866573078 27.427400706992795 -2.4978947216898906 #
edge $-1 $378 2.4978947216898906 $490 8.1130194067501318 $497 $559 forward 7 unknown #
point $-1 -43.950315866573078 -27.427400706992795 -2.4978947216898906 #
straight-curve $-1 -33.475353974551453 27.427400706992795 -2.6527285321100056 0 0 -1 I I #
plane-surface $-1 43.950315866573078 0 0 -1 0 0 0 0 1 forward_v I I I I #
coedge $-1 $387 $386 $402 $516 reversed $155 $-1 #
edge $-1 $509 -27.427400706992795 $507 27.427400706992795 $386 $560 forward 7 unknown #
vertex $-1 $394 $561 #
straight-curve $-1 33.47535397455146 27.427400706992795 -2.6527285321100056 0 0 1 I I #
vertex $-1 $392 $562 #
straight-curve $-1 19.356417460281136 -27.427400706992795 -8.1130194067501318 1 0 0 I I #
straight-curve $-1 19.356417460281136 27.427400706992795 -8.1130194067501318 -1 0 0 I I #
point $-1 43.950315866573085 -27.427400706992795 -8.1130194067501318 #
point $-1 43.950315866573085 27.427400706992795 -8.1130194067501318 #
straight-curve $-1 33.47535397455146 0 -2.4978947216898906 0 -1 0 I I #
point $-1 33.47535397455146 27.427400706992795 -2.4978947216898906 #
edge $-1 $404 -0.15483381042011501 $509 5.4602908746401262 $402 $563 forward 7 unknown #
point $-1 33.47535397455146 -27.427400706992795 -2.4978947216898906 #
straight-curve $-1 43.950315866573078 -27.427400706992795 0 0 0 -1 I I #
straight-curve $-1 43.950315866573078 27.427400706992795 0 0 0 -1 I I #
edge $-1 $521 18.429526206085658 $524 27.084329827689249 $411 $564 forward 7 unknown #
vertex $-1 $520 $565 #
straight-curve $-1 -0.19947654503371837 -27.427400706992792 30.910776346463038 0 0 1 I I #
edge $-1 $524 -2.9622038389009369 $422 9.2855646067702473 $421 $566 forward 7 unknown #
vertex $-1 $523 $567 #
straight-curve $-1 -0.19947654503371837 -27.427400706992813 1.8734667815002055 0 -0.68199835119979291 -0.73135370988377701 I I #
point $-1 -0.19947654503371837 -27.427400706992795 1.8734667815002246 #
point $-1 -12.447244990704903 -18.772597085389204 11.154607602207324 #
straight-curve $-1 0 -27.427400706992795 11.154607602207324 1 0 0 I I #
vertex $-1 $428 $568 #
point $-1 -9.7476913015706685 -22.368645186307205 5.8320388406539667 #
vertex $-1 $432 $569 #
point $-1 -6.0733607678693176 -22.368645186307205 5.8320388406539667 #
vertex $-1 $436 $570 #
point $-1 -2.3990302341679666 -22.368645186307205 5.8320388406539667 #
coedge $-1 $451 $450 $443 $536 forward $440 $-1 #
edge $-1 $537 8.2081036515272636 $540 10.675759452278701 $535 $571 forward 7 unknown #
vertex $-1 $536 $572 #
straight-curve $-1 -13.155000595555848 27.427400706992795 50.616986413009542 0 0 1 I I #
edge $-1 $540 -11.210792912697951 $452 7.3223775469821568 $451 $573 forward 7 unknown #
vertex $-1 $539 $574 #
straight-curve $-1 -13.155000595555848 -2.4486647249441944 53.359858665093093 0 0.54463902268945019 -0.83867057594974714 I I #
point $-1 -13.155000595555848 27.427400706992795 7.3547507696167784 #
point $-1 5.3781698641242599 24.959744906241358 11.154607602207328 #
straight-curve $-1 0 27.427400706992795 11.154607602207324 -1 0 0 I I #
vertex $-1 $458 $575 #
point $-1 -8.9483665036198232 25.120605821101481 8.5578863006871515 #
vertex $-1 $462 $576 #
point $-1 -3.3884153657157938 25.120605821101481 8.5578863006871515 #
vertex $-1 $466 $577 #
point $-1 2.1715357721882356 25.120605821101481 8.5578863006871515 #
straight-curve $-1 -43.950315866573078 27.427400706992795 0 0 0 -1 I I #
point $-1 -43.950315866573078 -27.427400706992795 -11.154607602207324 #
straight-curve $-1 -43.950315866573078 0 -11.154607602207324 0 1 0 I I #
point $-1 -43.950315866573078 27.427400706992795 -11.154607602207324 #
straight-curve $-1 -43.950315866573078 0 -8.1130194067501318 0 -1 0 I I #
point $-1 -43.950315866573078 -27.427400706992795 -8.1130194067501318 #
point $-1 -43.950315866573078 27.427400706992795 -8.1130194067501318 #
straight-curve $-1 -43.950315866573078 27.427400706992795 0 0 0 -1 I I #
straight-curve $-1 -43.950315866573078 -27.427400706992795 0 0 0 -1 I I #
straight-curve $-1 33.47535397455146 0 -8.1130194067501318 0 1 0 I I #
point $-1 33.47535397455146 27.427400706992795 -8.1130194067501318 #
point $-1 33.47535397455146 -27.427400706992795 -8.1130194067501318 #
straight-curve $-1 33.47535397455146 -27.427400706992795 -2.6527285321100056 0 0 -1 I I #
straight-curve $-1 -0.19947654503371837 -45.856926913078453 11.154607602207324 0 1 0 I I #
point $-1 -0.19947654503371837 -27.427400706992795 11.154607602207324 #
straight-curve $-1 -3.1616803839346552 -18.772597085389201 11.154607602207324 -1 0 0 I I #
point $-1 -0.19947654503371837 -18.772597085389204 11.154607602207324 #
point $-1 -9.9976913015706685 -22.185806758836264 5.661539252854018 #
point $-1 -6.3233607678693176 -22.185806758836264 5.661539252854018 #
point $-1 -2.6490302341679666 -22.185806758836264 5.661539252854018 #
straight-curve $-1 -13.155000595555848 35.635504358520059 11.154607602207328 0 -1 0 I I #
point $-1 -13.155000595555848 27.427400706992795 11.154607602207324 #
straight-curve $-1 -1.9442076828578969 24.959744906241358 11.154607602207324 1 0 0 I I #
point $-1 -13.155000595555848 24.959744906241358 11.154607602207328 #
point $-1 -9.4483665036198232 24.701270533126607 8.2855667893424254 #
point $-1 -3.8884153657157938 24.701270533126607 8.2855667893424254 #
point $-1 1.6715357721882356 24.701270533126607 8.2855667893424254 #
End-of-ACIS-data 