500 0 12 0           
7 Unknown 11 ACIS 5.0 NT 24 Fri Mar 26 20:45:36 1999 
-1 9.9999999999999995e-007 1e-010 
body $-1 $12 $-1 $13 #
body $-1 $14 $-1 $15 #
body $-1 $16 $-1 $17 #
body $-1 $18 $-1 $19 #
body $-1 $20 $-1 $21 #
body $-1 $22 $-1 $23 #
body $-1 $24 $-1 $25 #
body $-1 $26 $-1 $27 #
body $-1 $28 $-1 $29 #
body $-1 $30 $-1 $31 #
body $-1 $32 $-1 $33 #
body $-1 $34 $-1 $35 #
lump $-1 $-1 $36 $0 #
transform $-1 1 0 0 0 1 0 0 0 1 70.691854609820851 31.228078771515086 8.1546389968098651 1 rotate no_reflect no_shear #
lump $-1 $-1 $37 $1 #
transform $-1 1 0 0 0 1 0 0 0 1 70.691854609820851 31.228078771515086 8.1546389968098651 1 rotate no_reflect no_shear #
lump $-1 $-1 $38 $2 #
transform $-1 1 0 0 0 1 0 0 0 1 70.691854609820851 31.228078771515086 8.1546389968098651 1 rotate no_reflect no_shear #
lump $-1 $-1 $39 $3 #
transform $-1 1 0 0 0 1 0 0 0 1 70.691854609820851 31.228078771515086 8.1546389968098651 1 rotate no_reflect no_shear #
lump $-1 $-1 $40 $4 #
transform $-1 1 0 0 0 1 0 0 0 1 70.691854609820851 31.228078771515086 8.1546389968098651 1 rotate no_reflect no_shear #
lump $-1 $-1 $41 $5 #
transform $-1 1 0 0 0 1 0 0 0 1 70.691854609820851 31.228078771515086 8.1546389968098651 1 rotate no_reflect no_shear #
lump $-1 $-1 $42 $6 #
transform $-1 1 0 0 0 1 0 0 0 1 70.691854609820851 31.228078771515086 8.1546389968098651 1 rotate no_reflect no_shear #
lump $-1 $-1 $43 $7 #
transform $-1 1 0 0 0 1 0 0 0 1 70.691854609820851 31.228078771515086 8.1546389968098651 1 rotate no_reflect no_shear #
lump $-1 $-1 $44 $8 #
transform $-1 1 0 0 0 1 0 0 0 1 70.691854609820851 31.228078771515086 8.1546389968098651 1 rotate no_reflect no_shear #
lump $-1 $-1 $45 $9 #
transform $-1 1 0 0 0 1 0 0 0 1 70.691854609820851 31.228078771515086 8.1546389968098651 1 rotate no_reflect no_shear #
lump $-1 $-1 $46 $10 #
transform $-1 1 0 0 0 1 0 0 0 1 70.691854609820851 31.228078771515086 8.1546389968098651 1 rotate no_reflect no_shear #
lump $-1 $-1 $47 $11 #
transform $-1 1 0 0 0 1 0 0 0 1 70.691854609820851 31.228078771515086 8.1546389968098651 1 rotate no_reflect no_shear #
shell $-1 $-1 $-1 $48 $-1 $12 #
shell $-1 $-1 $-1 $49 $-1 $14 #
shell $-1 $-1 $-1 $50 $-1 $16 #
shell $-1 $-1 $-1 $51 $-1 $18 #
shell $-1 $-1 $-1 $52 $-1 $20 #
shell $-1 $-1 $-1 $53 $-1 $22 #
shell $-1 $-1 $-1 $54 $-1 $24 #
shell $-1 $-1 $-1 $55 $-1 $26 #
shell $-1 $-1 $-1 $56 $-1 $28 #
shell $-1 $-1 $-1 $57 $-1 $30 #
shell $-1 $-1 $-1 $58 $-1 $32 #
shell $-1 $-1 $-1 $59 $-1 $34 #
face $-1 $60 $61 $36 $-1 $62 forward single #
face $-1 $63 $64 $37 $-1 $65 reversed single #
face $-1 $66 $67 $38 $-1 $68 forward single #
face $-1 $69 $70 $39 $-1 $71 forward single #
face $-1 $72 $73 $40 $-1 $74 forward single #
face $-1 $75 $76 $41 $-1 $77 reversed single #
face $-1 $78 $79 $42 $-1 $80 forward single #
face $-1 $81 $82 $43 $-1 $83 forward single #
face $-1 $84 $85 $44 $-1 $86 forward single #
face $-1 $87 $88 $45 $-1 $89 reversed single #
face $-1 $90 $91 $46 $-1 $92 forward single #
face $-1 $93 $94 $47 $-1 $95 forward single #
face $-1 $96 $97 $36 $-1 $98 reversed single #
loop $-1 $-1 $99 $48 #
plane-surface $-1 0 0 8.1546389968098651 0 0 1 1 0 0 forward_v I I I I #
face $-1 $100 $101 $37 $-1 $102 reversed single #
loop $-1 $-1 $103 $49 #
plane-surface $-1 -24.594957376278643 -114.33133902692465 118.67643755968517 -1 0 0 0 -0.5877852598018023 0.80901698891910034 forward_v I I I I #
face $-1 $104 $105 $38 $-1 $106 forward single #
loop $-1 $107 $108 $50 #
cone-surface $-1 -37.021466583841111 -27.651395311692621 4.9580117806450872 0 0.5877852598018023 -0.80901698891910034 1.5 0 0 1 I I 0 1 1.5 forward I I I I #
face $-1 $109 $110 $39 $-1 $111 forward single #
loop $-1 $112 $113 $51 #
cone-surface $-1 -32.361525631005186 -27.651395311692621 4.9580117806450872 0 0.5877852598018023 -0.80901698891910034 1.5 0 0 1 I I 0 1 1.5 forward I I I I #
face $-1 $114 $115 $40 $-1 $116 forward single #
loop $-1 $117 $118 $52 #
cone-surface $-1 -27.701584678169262 -27.651395311692621 4.9580117806450872 0 0.5877852598018023 -0.80901698891910034 1.5 0 0 1 I I 0 1 1.5 forward I I I I #
face $-1 $119 $120 $41 $-1 $121 reversed single #
loop $-1 $-1 $122 $53 #
plane-surface $-1 40.128093885731737 -114.33133902692465 118.67643755968517 -1 0 0 0 -0.5877852598018023 0.80901698891910034 forward_v I I I I #
face $-1 $123 $124 $42 $-1 $125 forward single #
loop $-1 $126 $127 $54 #
cone-surface $-1 27.701584678169255 -27.651395311692621 4.9580117806450872 0 0.5877852598018023 -0.80901698891910034 1.5 0 0 1 I I 0 1 1.5 forward I I I I #
face $-1 $128 $129 $43 $-1 $130 forward single #
loop $-1 $131 $132 $55 #
cone-surface $-1 32.361525631005193 -27.651395311692621 4.9580117806450872 0 0.5877852598018023 -0.80901698891910034 1.5 0 0 1 I I 0 1 1.5 forward I I I I #
face $-1 $133 $134 $44 $-1 $135 forward single #
loop $-1 $136 $137 $56 #
cone-surface $-1 37.021466583841104 -27.651395311692621 4.9580117806450872 0 0.5877852598018023 -0.80901698891910034 1.5 0 0 1 I I 0 1 1.5 forward I I I I #
face $-1 $138 $139 $45 $-1 $140 reversed single #
loop $-1 $-1 $141 $57 #
plane-surface $-1 -51.615088257655628 47.831315514951186 154.39076563010673 1 0 0 0 -0.50000000669873634 -0.8660253999169214 forward_v I I I I #
face $-1 $142 $143 $46 $-1 $144 forward single #
loop $-1 $145 $146 $58 #
cone-surface $-1 -43.089620203049883 23.781795567350265 2.6911338669336842 0 -0.50000000669873634 -0.8660253999169214 3 0 0 1 I I 0 1 3 forward I I I I #
face $-1 $147 $148 $47 $-1 $149 forward single #
loop $-1 $150 $151 $59 #
cone-surface $-1 -30.301418121141268 23.781795567350265 2.6911338669336842 0 -0.50000000669873634 -0.8660253999169214 3 0 0 1 I I 0 1 3 forward I I I I #
face $-1 $152 $153 $36 $-1 $154 reversed single #
loop $-1 $-1 $155 $60 #
plane-surface $-1 0 0 -8.1546389968098651 0 0 1 1 0 0 forward_v I I I I #
coedge $-1 $156 $157 $158 $159 forward $61 $-1 #
face $-1 $160 $161 $37 $-1 $162 reversed single #
loop $-1 $-1 $163 $63 #
plane-surface $-1 -32.361525631005186 -31.228078771515086 4.2946148445969925 0 -0.5877852598018023 0.80901698891910034 1 0 0 forward_v I I I I #
coedge $-1 $164 $165 $166 $167 reversed $64 $-1 #
face $-1 $-1 $168 $38 $-1 $169 forward single #
loop $-1 $170 $171 $66 #
cone-surface $-1 -37.021466583841111 -26.290306583010668 3.0846338988974242 0 0.5877852598018023 -0.80901698891910034 0.75 0 0 1 I I -0.70710678118654757 0.70710678118654757 0.75 forward I I I I #
loop $-1 $-1 $172 $50 #
coedge $-1 $108 $108 $173 $174 reversed $67 $-1 #
face $-1 $-1 $175 $39 $-1 $176 forward single #
loop $-1 $177 $178 $69 #
cone-surface $-1 -32.361525631005186 -26.290306583010668 3.0846338988974242 0 0.5877852598018023 -0.80901698891910034 0.75 0 0 1 I I -0.70710678118654757 0.70710678118654757 0.75 forward I I I I #
loop $-1 $-1 $179 $51 #
coedge $-1 $113 $113 $180 $181 reversed $70 $-1 #
face $-1 $-1 $182 $40 $-1 $183 forward single #
loop $-1 $184 $185 $72 #
cone-surface $-1 -27.701584678169262 -26.290306583010668 3.0846338988974242 0 0.5877852598018023 -0.80901698891910034 0.75 0 0 1 I I -0.70710678118654757 0.70710678118654757 0.75 forward I I I I #
loop $-1 $-1 $186 $52 #
coedge $-1 $118 $118 $187 $188 reversed $73 $-1 #
face $-1 $189 $190 $41 $-1 $191 reversed single #
loop $-1 $-1 $192 $75 #
plane-surface $-1 32.361525631005193 -31.228078771515086 4.2946148445969925 0 -0.5877852598018023 0.80901698891910034 1 0 0 forward_v I I I I #
coedge $-1 $193 $194 $195 $196 reversed $76 $-1 #
face $-1 $-1 $197 $42 $-1 $198 forward single #
loop $-1 $199 $200 $78 #
cone-surface $-1 27.701584678169255 -26.290306583010668 3.0846338988974242 0 0.5877852598018023 -0.80901698891910034 0.75 0 0 1 I I -0.70710678118654757 0.70710678118654757 0.75 forward I I I I #
loop $-1 $-1 $201 $54 #
coedge $-1 $127 $127 $202 $203 reversed $79 $-1 #
face $-1 $-1 $204 $43 $-1 $205 forward single #
loop $-1 $206 $207 $81 #
cone-surface $-1 32.361525631005193 -26.290306583010668 3.0846338988974242 0 0.5877852598018023 -0.80901698891910034 0.75 0 0 1 I I -0.70710678118654757 0.70710678118654757 0.75 forward I I I I #
loop $-1 $-1 $208 $55 #
coedge $-1 $132 $132 $209 $210 reversed $82 $-1 #
face $-1 $-1 $211 $44 $-1 $212 forward single #
loop $-1 $213 $214 $84 #
cone-surface $-1 37.021466583841104 -26.290306583010668 3.0846338988974242 0 0.5877852598018023 -0.80901698891910034 0.75 0 0 1 I I -0.70710678118654757 0.70710678118654757 0.75 forward I I I I #
loop $-1 $-1 $215 $56 #
coedge $-1 $137 $137 $216 $217 reversed $85 $-1 #
face $-1 $218 $219 $45 $-1 $220 reversed single #
loop $-1 $-1 $221 $87 #
plane-surface $-1 -36.695519162095579 -22.860540041961855 31.94888231142879 0 0.50000000669873634 0.8660253999169214 1 0 0 forward_v I I I I #
coedge $-1 $222 $223 $224 $225 reversed $88 $-1 #
face $-1 $-1 $226 $46 $-1 $227 forward single #
loop $-1 $228 $229 $90 #
cone-surface $-1 -43.089620203049883 22.02340295368635 -0.3544914251811413 0 -0.50000000669873634 -0.8660253999169214 1.5 0 0 1 I I -0.70710678118654757 0.70710678118654757 1.5 forward I I I I #
loop $-1 $-1 $230 $58 #
coedge $-1 $146 $146 $231 $232 reversed $91 $-1 #
face $-1 $-1 $233 $47 $-1 $234 forward single #
loop $-1 $235 $236 $93 #
cone-surface $-1 -30.301418121141268 22.02340295368635 -0.3544914251811413 0 -0.50000000669873634 -0.8660253999169214 1.5 0 0 1 I I -0.70710678118654757 0.70710678118654757 1.5 forward I I I I #
loop $-1 $-1 $237 $59 #
coedge $-1 $151 $151 $238 $239 reversed $94 $-1 #
face $-1 $240 $241 $36 $-1 $242 reversed single #
loop $-1 $-1 $243 $96 #
plane-surface $-1 0 -31.228078771515086 0 0 1 0 0 0 1 forward_v I I I I #
coedge $-1 $244 $245 $246 $247 forward $97 $-1 #
coedge $-1 $248 $99 $249 $250 forward $61 $-1 #
coedge $-1 $99 $248 $251 $252 forward $61 $-1 #
coedge $-1 $253 $254 $99 $159 reversed $255 $-1 #
edge $-1 $256 -31.228078771515086 $257 31.228078771515086 $158 $258 forward 7 unknown #
face $-1 $259 $260 $37 $-1 $261 reversed single #
loop $-1 $-1 $262 $100 #
plane-surface $-1 -40.12809388573173 -114.33133902692465 118.67643755968517 1 0 0 0 0.5877852598018023 -0.80901698891910034 forward_v I I I I #
coedge $-1 $263 $264 $265 $266 reversed $101 $-1 #
coedge $-1 $165 $103 $267 $268 reversed $64 $-1 #
coedge $-1 $103 $164 $263 $269 reversed $64 $-1 #
coedge $-1 $265 $270 $103 $167 forward $271 $-1 #
edge $-1 $272 25.93759074194724 $273 31.250458093930956 $166 $274 forward 7 unknown #
loop $-1 $-1 $173 $104 #
plane-surface $-1 -32.361525631005186 -31.228078771515086 4.2946148445969925 0 -0.5877852598018023 0.80901698891910034 1 0 0 forward_v I I I I #
loop $-1 $-1 $275 $66 #
coedge $-1 $171 $171 $172 $276 reversed $105 $-1 #
coedge $-1 $172 $172 $171 $276 forward $107 $-1 #
coedge $-1 $173 $173 $108 $174 forward $168 $-1 #
edge $-1 $277 -8.6817316165030489e-016 $277 6.2831853071795996 $173 $278 forward 7 unknown #
loop $-1 $-1 $180 $109 #
plane-surface $-1 -32.361525631005186 -31.228078771515086 4.2946148445969925 0 -0.5877852598018023 0.80901698891910034 1 0 0 forward_v I I I I #
loop $-1 $-1 $279 $69 #
coedge $-1 $178 $178 $179 $280 reversed $110 $-1 #
coedge $-1 $179 $179 $178 $280 forward $112 $-1 #
coedge $-1 $180 $180 $113 $181 forward $175 $-1 #
edge $-1 $281 -8.6817316165030489e-016 $281 6.2831853071795996 $180 $282 forward 7 unknown #
loop $-1 $-1 $187 $114 #
plane-surface $-1 -32.361525631005186 -31.228078771515086 4.2946148445969925 0 -0.5877852598018023 0.80901698891910034 1 0 0 forward_v I I I I #
loop $-1 $-1 $283 $72 #
coedge $-1 $185 $185 $186 $284 reversed $115 $-1 #
coedge $-1 $186 $186 $185 $284 forward $117 $-1 #
coedge $-1 $187 $187 $118 $188 forward $182 $-1 #
edge $-1 $285 -8.6817316165030489e-016 $285 6.2831853071795996 $187 $286 forward 7 unknown #
face $-1 $287 $288 $41 $-1 $289 reversed single #
loop $-1 $-1 $290 $119 #
plane-surface $-1 24.59495737627865 -114.33133902692465 118.67643755968517 1 0 0 0 0.5877852598018023 -0.80901698891910034 forward_v I I I I #
coedge $-1 $291 $292 $293 $294 reversed $120 $-1 #
coedge $-1 $194 $122 $295 $296 reversed $76 $-1 #
coedge $-1 $122 $193 $291 $297 reversed $76 $-1 #
coedge $-1 $293 $298 $122 $196 forward $299 $-1 #
edge $-1 $300 25.93759074194724 $301 31.250458093930956 $195 $302 forward 7 unknown #
loop $-1 $-1 $202 $123 #
plane-surface $-1 32.361525631005193 -31.228078771515086 4.2946148445969925 0 -0.5877852598018023 0.80901698891910034 1 0 0 forward_v I I I I #
loop $-1 $-1 $303 $78 #
coedge $-1 $200 $200 $201 $304 reversed $124 $-1 #
coedge $-1 $201 $201 $200 $304 forward $126 $-1 #
coedge $-1 $202 $202 $127 $203 forward $197 $-1 #
edge $-1 $305 -8.6817316165030489e-016 $305 6.2831853071795996 $202 $306 forward 7 unknown #
loop $-1 $-1 $209 $128 #
plane-surface $-1 32.361525631005193 -31.228078771515086 4.2946148445969925 0 -0.5877852598018023 0.80901698891910034 1 0 0 forward_v I I I I #
loop $-1 $-1 $307 $81 #
coedge $-1 $207 $207 $208 $308 reversed $129 $-1 #
coedge $-1 $208 $208 $207 $308 forward $131 $-1 #
coedge $-1 $209 $209 $132 $210 forward $204 $-1 #
edge $-1 $309 -8.6817316165030489e-016 $309 6.2831853071795996 $209 $310 forward 7 unknown #
loop $-1 $-1 $216 $133 #
plane-surface $-1 32.361525631005193 -31.228078771515086 4.2946148445969925 0 -0.5877852598018023 0.80901698891910034 1 0 0 forward_v I I I I #
loop $-1 $-1 $311 $84 #
coedge $-1 $214 $214 $215 $312 reversed $134 $-1 #
coedge $-1 $215 $215 $214 $312 forward $136 $-1 #
coedge $-1 $216 $216 $137 $217 forward $211 $-1 #
edge $-1 $313 -8.6817316165030489e-016 $313 6.2831853071795996 $216 $314 forward 7 unknown #
face $-1 $315 $316 $45 $-1 $317 reversed single #
loop $-1 $-1 $318 $138 #
plane-surface $-1 -21.775950066535529 47.831315514951186 154.39076563010673 -1 0 0 0 0.50000000669873634 0.8660253999169214 forward_v I I I I #
coedge $-1 $319 $320 $321 $322 reversed $139 $-1 #
coedge $-1 $223 $141 $323 $324 reversed $88 $-1 #
coedge $-1 $141 $222 $319 $325 reversed $88 $-1 #
coedge $-1 $321 $326 $141 $225 forward $327 $-1 #
edge $-1 $328 -7.3124210140394936 $329 5.5633601870585423 $224 $330 forward 7 unknown #
loop $-1 $-1 $231 $142 #
plane-surface $-1 -36.695519162095579 -22.860540041961855 31.94888231142879 0 0.50000000669873634 0.8660253999169214 1 0 0 forward_v I I I I #
loop $-1 $-1 $331 $90 #
coedge $-1 $229 $229 $230 $332 reversed $143 $-1 #
coedge $-1 $230 $230 $229 $332 forward $145 $-1 #
coedge $-1 $231 $231 $146 $232 forward $226 $-1 #
edge $-1 $333 8.6692228084971884e-016 $333 6.2831853071796013 $231 $334 forward 7 unknown #
loop $-1 $-1 $238 $147 #
plane-surface $-1 -36.695519162095579 -22.860540041961855 31.94888231142879 0 0.50000000669873634 0.8660253999169214 1 0 0 forward_v I I I I #
loop $-1 $-1 $335 $93 #
coedge $-1 $236 $236 $237 $336 reversed $148 $-1 #
coedge $-1 $237 $237 $236 $336 forward $150 $-1 #
coedge $-1 $238 $238 $151 $239 forward $233 $-1 #
edge $-1 $337 8.6692228084971884e-016 $337 6.2831853071796013 $238 $338 forward 7 unknown #
face $-1 $339 $340 $36 $-1 $341 reversed single #
loop $-1 $-1 $342 $152 #
plane-surface $-1 -70.691854609820851 0 0 1 0 0 0 0 -1 forward_v I I I I #
coedge $-1 $343 $251 $344 $345 forward $153 $-1 #
coedge $-1 $346 $155 $343 $347 forward $97 $-1 #
coedge $-1 $155 $346 $348 $349 forward $97 $-1 #
coedge $-1 $254 $253 $155 $247 reversed $255 $-1 #
edge $-1 $350 -31.228078771515086 $351 31.228078771515086 $246 $352 forward 7 unknown #
coedge $-1 $157 $156 $353 $354 forward $61 $-1 #
coedge $-1 $355 $356 $156 $250 reversed $340 $-1 #
edge $-1 $257 -70.691854609820851 $357 70.691854609820851 $249 $358 forward 7 unknown #
coedge $-1 $243 $359 $157 $252 reversed $153 $-1 #
edge $-1 $360 -70.691854609820851 $256 70.691854609820851 $251 $361 forward 7 unknown #
coedge $-1 $246 $158 $359 $362 forward $255 $-1 #
coedge $-1 $158 $246 $355 $363 reversed $255 $-1 #
loop $-1 $-1 $253 $339 #
vertex $-1 $159 $364 #
vertex $-1 $159 $365 #
straight-curve $-1 70.691854609820851 0 8.1546389968098651 0 1 0 I I #
face $-1 $-1 $271 $37 $-1 $366 forward single #
loop $-1 $-1 $367 $160 #
plane-surface $-1 0 -31.228078771515086 0 0 1 0 0 0 1 forward_v I I I I #
coedge $-1 $368 $369 $370 $371 reversed $161 $-1 #
coedge $-1 $372 $163 $165 $269 forward $101 $-1 #
coedge $-1 $163 $372 $368 $373 forward $101 $-1 #
coedge $-1 $370 $166 $163 $266 forward $271 $-1 #
edge $-1 $273 8.4141945607760498 $374 23.947331070229136 $265 $375 forward 7 unknown #
coedge $-1 $376 $377 $164 $268 forward $260 $-1 #
edge $-1 $378 -55.043603935245592 $272 -51.183579783032719 $267 $379 forward 7 unknown #
edge $-1 $273 -6.5670652467781352 $378 0 $165 $380 forward 7 unknown #
coedge $-1 $166 $370 $376 $381 forward $271 $-1 #
loop $-1 $-1 $370 $259 #
vertex $-1 $268 $382 #
vertex $-1 $167 $383 #
straight-curve $-1 -24.594957376278643 -57.165669513462326 8.1546389968098651 0 1 0 I I #
coedge $-1 $275 $275 $-1 $384 reversed $170 $-1 #
edge $-1 $385 0 $385 6.2831853071796004 $171 $386 forward 7 unknown #
vertex $-1 $174 $387 #
ellipse-curve $-1 -37.021466583841111 -28.571645095523227 6.2246269207034306 0 -0.5877852598018023 0.80901698891910034 1.5 0 0 1 I I #
coedge $-1 $279 $279 $-1 $388 reversed $177 $-1 #
edge $-1 $389 0 $389 6.2831853071796004 $178 $390 forward 7 unknown #
vertex $-1 $181 $391 #
ellipse-curve $-1 -32.361525631005186 -28.571645095523227 6.2246269207034306 0 -0.5877852598018023 0.80901698891910034 1.5 0 0 1 I I #
coedge $-1 $283 $283 $-1 $392 reversed $184 $-1 #
edge $-1 $393 0 $393 6.2831853071796004 $185 $394 forward 7 unknown #
vertex $-1 $188 $395 #
ellipse-curve $-1 -27.701584678169262 -28.571645095523227 6.2246269207034306 0 -0.5877852598018023 0.80901698891910034 1.5 0 0 1 I I #
face $-1 $-1 $299 $41 $-1 $396 forward single #
loop $-1 $-1 $397 $189 #
plane-surface $-1 0 -31.228078771515086 0 0 1 0 0 0 1 forward_v I I I I #
coedge $-1 $398 $399 $400 $401 reversed $190 $-1 #
coedge $-1 $402 $192 $194 $297 forward $120 $-1 #
coedge $-1 $192 $402 $398 $403 forward $120 $-1 #
coedge $-1 $400 $195 $192 $294 forward $299 $-1 #
edge $-1 $301 -23.94733107022914 $404 -8.4141945607760533 $293 $405 forward 7 unknown #
coedge $-1 $406 $407 $193 $296 forward $288 $-1 #
edge $-1 $408 -55.043603935245592 $300 -51.183579783032719 $295 $409 forward 7 unknown #
edge $-1 $301 -6.5670652467781352 $408 0 $194 $410 forward 7 unknown #
coedge $-1 $195 $400 $406 $411 forward $299 $-1 #
loop $-1 $-1 $400 $287 #
vertex $-1 $296 $412 #
vertex $-1 $196 $413 #
straight-curve $-1 40.128093885731737 -57.165669513462326 8.1546389968098651 0 1 0 I I #
coedge $-1 $303 $303 $-1 $414 reversed $199 $-1 #
edge $-1 $415 0 $415 6.2831853071796004 $200 $416 forward 7 unknown #
vertex $-1 $203 $417 #
ellipse-curve $-1 27.701584678169255 -28.571645095523227 6.2246269207034306 0 -0.5877852598018023 0.80901698891910034 1.5 0 0 1 I I #
coedge $-1 $307 $307 $-1 $418 reversed $206 $-1 #
edge $-1 $419 0 $419 6.2831853071796004 $207 $420 forward 7 unknown #
vertex $-1 $210 $421 #
ellipse-curve $-1 32.361525631005193 -28.571645095523227 6.2246269207034306 0 -0.5877852598018023 0.80901698891910034 1.5 0 0 1 I I #
coedge $-1 $311 $311 $-1 $422 reversed $213 $-1 #
edge $-1 $423 0 $423 6.2831853071796004 $214 $424 forward 7 unknown #
vertex $-1 $217 $425 #
ellipse-curve $-1 37.021466583841104 -28.571645095523227 6.2246269207034306 0 -0.5877852598018023 0.80901698891910034 1.5 0 0 1 I I #
face $-1 $-1 $327 $45 $-1 $426 forward single #
loop $-1 $-1 $427 $218 #
plane-surface $-1 0 31.228078771515086 0 0 -1 0 0 0 -1 forward_v I I I I #
coedge $-1 $428 $429 $430 $431 reversed $219 $-1 #
coedge $-1 $432 $221 $223 $325 forward $139 $-1 #
coedge $-1 $221 $432 $428 $433 forward $139 $-1 #
coedge $-1 $430 $224 $221 $322 forward $327 $-1 #
edge $-1 $329 -33.267328676607839 $434 -3.4281904854877396 $321 $435 forward 7 unknown #
coedge $-1 $436 $437 $222 $324 forward $316 $-1 #
edge $-1 $438 -76.474579693516986 $328 -69.040743818243499 $323 $439 forward 7 unknown #
edge $-1 $329 47.588485991672407 $438 62.456157543030166 $223 $440 forward 7 unknown #
coedge $-1 $224 $430 $436 $441 forward $327 $-1 #
loop $-1 $-1 $430 $315 #
vertex $-1 $324 $442 #
vertex $-1 $225 $443 #
straight-curve $-1 -51.615088257655628 23.915657757475593 8.1546389968098651 0 -1 0 I I #
coedge $-1 $331 $331 $-1 $444 reversed $228 $-1 #
edge $-1 $445 0 $445 6.2831853071796004 $229 $446 forward 7 unknown #
vertex $-1 $232 $447 #
ellipse-curve $-1 -43.089620203049883 24.790188170966072 4.4377210591731204 0 0.50000000669873634 0.8660253999169214 3 0 0 1 I I #
coedge $-1 $335 $335 $-1 $448 reversed $235 $-1 #
edge $-1 $449 0 $449 6.2831853071796004 $236 $450 forward 7 unknown #
vertex $-1 $239 $451 #
ellipse-curve $-1 -30.301418121141268 24.790188170966072 4.4377210591731204 0 0.50000000669873634 0.8660253999169214 3 0 0 1 I I #
face $-1 $-1 $255 $36 $-1 $452 reversed single #
loop $-1 $-1 $355 $240 #
plane-surface $-1 0 31.228078771515086 0 0 -1 0 0 0 -1 forward_v I I I I #
coedge $-1 $453 $353 $356 $454 forward $241 $-1 #
coedge $-1 $359 $243 $244 $347 reversed $153 $-1 #
coedge $-1 $353 $453 $243 $345 reversed $241 $-1 #
edge $-1 $360 -8.1546389968098651 $455 8.1546389968098651 $344 $456 forward 7 unknown #
coedge $-1 $245 $244 $453 $457 forward $97 $-1 #
edge $-1 $351 -70.691854609820851 $455 70.691854609820851 $343 $458 forward 7 unknown #
coedge $-1 $356 $355 $245 $349 reversed $340 $-1 #
edge $-1 $459 -70.691854609820851 $350 70.691854609820851 $348 $460 forward 7 unknown #
vertex $-1 $247 $461 #
vertex $-1 $362 $462 #
straight-curve $-1 70.691854609820851 0 -8.1546389968098651 0 -1 0 I I #
coedge $-1 $342 $344 $248 $354 reversed $241 $-1 #
edge $-1 $357 -31.228078771515086 $360 31.228078771515086 $353 $463 forward 7 unknown #
coedge $-1 $348 $249 $254 $363 forward $340 $-1 #
coedge $-1 $249 $348 $342 $454 reversed $340 $-1 #
vertex $-1 $250 $464 #
straight-curve $-1 0 31.228078771515086 8.1546389968098651 -1 0 0 I I #
coedge $-1 $251 $343 $253 $362 reversed $153 $-1 #
vertex $-1 $354 $465 #
straight-curve $-1 0 -31.228078771515086 8.1546389968098651 1 0 0 I I #
edge $-1 $256 -8.1546389968098651 $351 8.1546389968098651 $253 $466 forward 7 unknown #
edge $-1 $257 -8.1546389968098651 $350 8.1546389968098651 $254 $467 forward 7 unknown #
point $-1 70.691854609820851 -31.228078771515086 8.1546389968098651 #
point $-1 70.691854609820851 31.228078771515086 8.1546389968098651 #
plane-surface $-1 0 0 8.1546389968098651 0 0 1 1 0 0 forward_v I I I I #
coedge $-1 $377 $376 $369 $468 forward $260 $-1 #
coedge $-1 $369 $262 $264 $373 reversed $161 $-1 #
coedge $-1 $262 $368 $367 $468 reversed $161 $-1 #
coedge $-1 $270 $265 $262 $371 forward $271 $-1 #
edge $-1 $374 -31.250458093930956 $469 -25.93759074194724 $370 $470 forward 7 unknown #
coedge $-1 $264 $263 $377 $471 reversed $101 $-1 #
edge $-1 $472 0 $374 6.5670652467781352 $368 $473 forward 7 unknown #
vertex $-1 $266 $474 #
straight-curve $-1 -16.180762815502593 -25.915211419531367 8.1546389968098651 -1 0 0 I I #
coedge $-1 $367 $267 $270 $381 reversed $260 $-1 #
coedge $-1 $267 $367 $372 $471 forward $260 $-1 #
vertex $-1 $268 $475 #
straight-curve $-1 -24.594957376278643 -31.228078771515086 59.338218779842585 0 0 1 I I #
straight-curve $-1 -24.594957376278643 -31.228078771515086 4.2946148445969925 0 -0.80901698891910034 -0.5877852598018023 I I #
edge $-1 $469 -40.12809388573173 $272 -24.594957376278643 $376 $476 forward 7 unknown #
point $-1 -24.594957376278643 -31.228078771515086 8.1546389968098651 #
point $-1 -24.594957376278643 -25.915211419531371 8.1546389968098651 #
edge $-1 $477 1 $477 0 $275 $-1 forward 7 unknown #
vertex $-1 $276 $478 #
ellipse-curve $-1 -37.021466583841111 -26.731145527862019 3.6913966405867495 0 -0.5877852598018023 0.80901698891910034 1.5 0 0 1 I I #
point $-1 -35.521466583841111 -28.571645095523223 6.2246269207034235 #
edge $-1 $479 1 $479 0 $279 $-1 forward 7 unknown #
vertex $-1 $280 $480 #
ellipse-curve $-1 -32.361525631005186 -26.731145527862019 3.6913966405867495 0 -0.5877852598018023 0.80901698891910034 1.5 0 0 1 I I #
point $-1 -30.861525631005186 -28.571645095523223 6.2246269207034235 #
edge $-1 $481 1 $481 0 $283 $-1 forward 7 unknown #
vertex $-1 $284 $482 #
ellipse-curve $-1 -27.701584678169262 -26.731145527862019 3.6913966405867495 0 -0.5877852598018023 0.80901698891910034 1.5 0 0 1 I I #
point $-1 -26.201584678169262 -28.571645095523223 6.2246269207034235 #
plane-surface $-1 0 0 8.1546389968098651 0 0 1 1 0 0 forward_v I I I I #
coedge $-1 $407 $406 $399 $483 forward $288 $-1 #
coedge $-1 $399 $290 $292 $403 reversed $190 $-1 #
coedge $-1 $290 $398 $397 $483 reversed $190 $-1 #
coedge $-1 $298 $293 $290 $401 forward $299 $-1 #
edge $-1 $404 -31.250458093930956 $484 -25.93759074194724 $400 $485 forward 7 unknown #
coedge $-1 $292 $291 $407 $486 reversed $120 $-1 #
edge $-1 $487 0 $404 6.5670652467781352 $398 $488 forward 7 unknown #
vertex $-1 $294 $489 #
straight-curve $-1 16.180762815502597 -25.915211419531367 8.1546389968098651 -1 0 0 I I #
coedge $-1 $397 $295 $298 $411 reversed $288 $-1 #
coedge $-1 $295 $397 $402 $486 forward $288 $-1 #
vertex $-1 $296 $490 #
straight-curve $-1 40.128093885731737 -31.228078771515086 59.338218779842585 0 0 1 I I #
straight-curve $-1 40.128093885731737 -31.228078771515086 4.2946148445969925 0 -0.80901698891910034 -0.5877852598018023 I I #
edge $-1 $484 24.59495737627865 $300 40.128093885731737 $406 $491 forward 7 unknown #
point $-1 40.128093885731737 -31.228078771515086 8.1546389968098651 #
point $-1 40.128093885731737 -25.915211419531371 8.1546389968098651 #
edge $-1 $492 1 $492 0 $303 $-1 forward 7 unknown #
vertex $-1 $304 $493 #
ellipse-curve $-1 27.701584678169255 -26.731145527862019 3.6913966405867495 0 -0.5877852598018023 0.80901698891910034 1.5 0 0 1 I I #
point $-1 29.201584678169255 -28.571645095523223 6.2246269207034235 #
edge $-1 $494 1 $494 0 $307 $-1 forward 7 unknown #
vertex $-1 $308 $495 #
ellipse-curve $-1 32.361525631005193 -26.731145527862019 3.6913966405867495 0 -0.5877852598018023 0.80901698891910034 1.5 0 0 1 I I #
point $-1 33.861525631005193 -28.571645095523223 6.2246269207034235 #
edge $-1 $496 1 $496 0 $311 $-1 forward 7 unknown #
vertex $-1 $312 $497 #
ellipse-curve $-1 37.021466583841104 -26.731145527862019 3.6913966405867495 0 -0.5877852598018023 0.80901698891910034 1.5 0 0 1 I I #
point $-1 38.521466583841104 -28.571645095523223 6.2246269207034235 #
plane-surface $-1 0 0 8.1546389968098651 0 0 1 1 0 0 forward_v I I I I #
coedge $-1 $437 $436 $429 $498 forward $316 $-1 #
coedge $-1 $429 $318 $320 $433 reversed $219 $-1 #
coedge $-1 $318 $428 $427 $498 reversed $219 $-1 #
coedge $-1 $326 $321 $318 $431 forward $327 $-1 #
edge $-1 $434 -5.5633601870585423 $499 7.3124210140394936 $430 $500 forward 7 unknown #
coedge $-1 $320 $319 $437 $501 reversed $139 $-1 #
edge $-1 $502 -62.456157543030166 $434 -47.588485991672407 $428 $503 forward 7 unknown #
vertex $-1 $322 $504 #
straight-curve $-1 -18.347759581047789 18.352297570417047 8.1546389968098669 1 0 0 I I #
coedge $-1 $427 $323 $326 $441 reversed $316 $-1 #
coedge $-1 $323 $427 $432 $501 forward $316 $-1 #
vertex $-1 $324 $505 #
straight-curve $-1 -51.615088257655628 31.228078771515086 77.195382815053364 0 0 1 I I #
straight-curve $-1 -51.615088257655628 -22.860540041961855 31.94888231142879 0 0.8660253999169214 -0.50000000669873634 I I #
edge $-1 $499 21.775950066535529 $328 51.615088257655628 $436 $506 forward 7 unknown #
point $-1 -51.615088257655628 31.228078771515086 8.1546389968098651 #
point $-1 -51.615088257655628 18.352297570417051 8.1546389968098651 #
edge $-1 $507 1 $507 0 $331 $-1 forward 7 unknown #
vertex $-1 $332 $508 #
ellipse-curve $-1 -43.089620203049883 22.773402963734455 0.94454667469424081 0 0.50000000669873634 0.8660253999169214 3 0 0 1 I I #
point $-1 -40.089620203049883 24.790188170966079 4.4377210591731275 #
edge $-1 $509 1 $509 0 $335 $-1 forward 7 unknown #
vertex $-1 $336 $510 #
ellipse-curve $-1 -30.301418121141268 22.773402963734455 0.94454667469424081 0 0.50000000669873634 0.8660253999169214 3 0 0 1 I I #
point $-1 -27.301418121141268 24.790188170966079 4.4377210591731275 #
plane-surface $-1 70.691854609820851 0 0 -1 0 0 0 0 1 forward_v I I I I #
coedge $-1 $344 $342 $346 $457 reversed $241 $-1 #
edge $-1 $357 -8.1546389968098651 $459 8.1546389968098651 $356 $511 forward 7 unknown #
vertex $-1 $457 $512 #
straight-curve $-1 -70.691854609820851 -31.228078771515086 0 0 0 -1 I I #
edge $-1 $455 -31.228078771515086 $459 31.228078771515086 $453 $513 forward 7 unknown #
straight-curve $-1 0 -31.228078771515086 -8.1546389968098651 -1 0 0 I I #
vertex $-1 $349 $514 #
straight-curve $-1 0 31.228078771515086 -8.1546389968098651 1 0 0 I I #
point $-1 70.691854609820851 31.228078771515086 -8.1546389968098651 #
point $-1 70.691854609820851 -31.228078771515086 -8.1546389968098651 #
straight-curve $-1 -70.691854609820851 0 8.1546389968098651 0 -1 0 I I #
point $-1 -70.691854609820851 31.228078771515086 8.1546389968098651 #
point $-1 -70.691854609820851 -31.228078771515086 8.1546389968098651 #
straight-curve $-1 70.691854609820851 -31.228078771515086 0 0 0 -1 I I #
straight-curve $-1 70.691854609820851 31.228078771515086 0 0 0 -1 I I #
edge $-1 $469 51.183579783032719 $472 55.043603935245592 $367 $515 forward 7 unknown #
vertex $-1 $381 $516 #
straight-curve $-1 -40.12809388573173 -57.165669513462326 8.1546389968098651 0 -1 0 I I #
edge $-1 $472 -23.947331070229136 $378 -8.4141945607760498 $377 $517 forward 7 unknown #
vertex $-1 $471 $518 #
straight-curve $-1 -40.12809388573173 -31.228078771515086 4.2946148445969925 0 0.80901698891910034 0.5877852598018023 I I #
point $-1 -40.12809388573173 -25.915211419531371 8.1546389968098651 #
point $-1 -24.594957376278643 -31.228078771515086 4.2946148445969925 #
straight-curve $-1 0 -31.228078771515086 8.1546389968098651 1 0 0 I I #
vertex $-1 $384 $519 #
point $-1 -35.521466583841111 -26.731145527862019 3.6913966405867495 #
vertex $-1 $388 $520 #
point $-1 -30.861525631005186 -26.731145527862019 3.6913966405867495 #
vertex $-1 $392 $521 #
point $-1 -26.201584678169262 -26.731145527862019 3.6913966405867495 #
edge $-1 $484 51.183579783032719 $487 55.043603935245592 $397 $522 forward 7 unknown #
vertex $-1 $411 $523 #
straight-curve $-1 24.59495737627865 -57.165669513462326 8.1546389968098651 0 -1 0 I I #
edge $-1 $487 8.4141945607760533 $408 23.94733107022914 $407 $524 forward 7 unknown #
vertex $-1 $486 $525 #
straight-curve $-1 24.59495737627865 -31.228078771515086 4.2946148445969925 0 0.80901698891910034 0.5877852598018023 I I #
point $-1 24.59495737627865 -25.915211419531371 8.1546389968098651 #
point $-1 40.128093885731737 -31.228078771515086 4.2946148445969925 #
straight-curve $-1 0 -31.228078771515086 8.1546389968098651 1 0 0 I I #
vertex $-1 $414 $526 #
point $-1 29.201584678169255 -26.731145527862019 3.6913966405867495 #
vertex $-1 $418 $527 #
point $-1 33.861525631005193 -26.731145527862019 3.6913966405867495 #
vertex $-1 $422 $528 #
point $-1 38.521466583841104 -26.731145527862019 3.6913966405867495 #
edge $-1 $499 69.040743818243499 $502 76.474579693516986 $427 $529 forward 7 unknown #
vertex $-1 $441 $530 #
straight-curve $-1 -21.775950066535529 23.915657757475593 8.1546389968098651 0 1 0 I I #
edge $-1 $502 3.4281904854877396 $438 33.267328676607839 $437 $531 forward 7 unknown #
vertex $-1 $501 $532 #
straight-curve $-1 -21.775950066535529 -22.860540041961855 31.94888231142879 0 -0.8660253999169214 0.50000000669873634 I I #
point $-1 -21.775950066535529 18.352297570417051 8.1546389968098651 #
point $-1 -51.615088257655628 31.228078771515086 0.72080312153637749 #
straight-curve $-1 0 31.228078771515086 8.1546389968098651 -1 0 0 I I #
vertex $-1 $444 $533 #
point $-1 -40.089620203049883 22.773402963734455 0.94454667469424081 #
vertex $-1 $448 $534 #
point $-1 -27.301418121141268 22.773402963734455 0.94454667469424081 #
straight-curve $-1 -70.691854609820851 31.228078771515086 0 0 0 -1 I I #
point $-1 -70.691854609820851 -31.228078771515086 -8.1546389968098651 #
straight-curve $-1 -70.691854609820851 0 -8.1546389968098651 0 1 0 I I #
point $-1 -70.691854609820851 31.228078771515086 -8.1546389968098651 #
straight-curve $-1 -40.12809388573173 -31.228078771515086 59.338218779842585 0 0 -1 I I #
point $-1 -40.12809388573173 -31.228078771515086 8.1546389968098651 #
straight-curve $-1 -16.180762815502593 -31.228078771515086 4.2946148445969925 1 0 0 I I #
point $-1 -40.12809388573173 -31.228078771515086 4.2946148445969925 #
point $-1 -37.021466583841111 -25.849467638159318 2.4778711572080989 #
point $-1 -32.361525631005186 -25.849467638159318 2.4778711572080989 #
point $-1 -27.701584678169262 -25.849467638159318 2.4778711572080989 #
straight-curve $-1 24.59495737627865 -31.228078771515086 59.338218779842585 0 0 -1 I I #
point $-1 24.59495737627865 -31.228078771515086 8.1546389968098651 #
straight-curve $-1 16.180762815502597 -31.228078771515086 4.2946148445969925 1 0 0 I I #
point $-1 24.59495737627865 -31.228078771515086 4.2946148445969925 #
point $-1 27.701584678169255 -25.849467638159318 2.4778711572080989 #
point $-1 32.361525631005193 -25.849467638159318 2.4778711572080989 #
point $-1 37.021466583841104 -25.849467638159318 2.4778711572080989 #
straight-curve $-1 -21.775950066535529 31.228078771515086 77.195382815053364 0 0 -1 I I #
point $-1 -21.775950066535529 31.228078771515086 8.1546389968098651 #
straight-curve $-1 -18.347759581047789 31.22807877151509 0.72080312153637749 -1 0 0 I I #
point $-1 -21.775950066535529 31.228078771515086 0.72080312153637749 #
point $-1 -43.089620203049883 21.273402943638246 -1.6535295250565234 #
point $-1 -30.301418121141268 21.273402943638246 -1.6535295250565234 #
End-of-ACIS-data 