500 0 7 0           
7 Unknown 11 ACIS 5.0 NT 24 Fri Mar 26 02:17:08 1999 
-1 9.9999999999999995e-007 1e-010 
body $-1 $7 $-1 $8 #
body $-1 $9 $-1 $10 #
body $-1 $11 $-1 $12 #
body $-1 $13 $-1 $14 #
body $-1 $15 $-1 $16 #
body $-1 $17 $-1 $18 #
body $-1 $19 $-1 $20 #
lump $-1 $-1 $21 $0 #
transform $-1 1 0 0 0 1 0 0 0 1 46.792199468977934 20.730827933930467 7.9813086505361985 1 rotate no_reflect no_shear #
lump $-1 $-1 $22 $1 #
transform $-1 1 0 0 0 1 0 0 0 1 46.792199468977934 20.730827933930467 7.9813086505361985 1 rotate no_reflect no_shear #
lump $-1 $-1 $23 $2 #
transform $-1 1 0 0 0 1 0 0 0 1 46.792199468977934 20.730827933930467 7.9813086505361985 1 rotate no_reflect no_shear #
lump $-1 $-1 $24 $3 #
transform $-1 1 0 0 0 1 0 0 0 1 46.792199468977934 20.730827933930467 7.9813086505361985 1 rotate no_reflect no_shear #
lump $-1 $-1 $25 $4 #
transform $-1 1 0 0 0 1 0 0 0 1 46.792199468977934 20.730827933930467 7.9813086505361985 1 rotate no_reflect no_shear #
lump $-1 $-1 $26 $5 #
transform $-1 1 0 0 0 1 0 0 0 1 46.792199468977934 20.730827933930467 7.9813086505361985 1 rotate no_reflect no_shear #
lump $-1 $-1 $27 $6 #
transform $-1 1 0 0 0 1 0 0 0 1 46.792199468977934 20.730827933930467 7.9813086505361985 1 rotate no_reflect no_shear #
shell $-1 $-1 $-1 $28 $-1 $7 #
shell $-1 $-1 $-1 $29 $-1 $9 #
shell $-1 $-1 $-1 $30 $-1 $11 #
shell $-1 $-1 $-1 $31 $-1 $13 #
shell $-1 $-1 $-1 $32 $-1 $15 #
shell $-1 $-1 $-1 $33 $-1 $17 #
shell $-1 $-1 $-1 $34 $-1 $19 #
face $-1 $35 $36 $21 $-1 $37 forward single #
face $-1 $38 $39 $22 $-1 $40 forward single #
face $-1 $41 $42 $23 $-1 $43 reversed single #
face $-1 $44 $45 $24 $-1 $46 reversed single #
face $-1 $47 $48 $25 $-1 $49 forward single #
face $-1 $50 $51 $26 $-1 $52 reversed single #
face $-1 $53 $54 $27 $-1 $55 forward single #
face $-1 $56 $57 $21 $-1 $58 reversed single #
loop $-1 $-1 $59 $28 #
plane-surface $-1 0 0 7.9813086505361985 0 0 1 1 0 0 forward_v I I I I #
face $-1 $60 $61 $22 $-1 $62 reversed single #
loop $-1 $-1 $63 $29 #
plane-surface $-1 -42.239360634761894 0 -4.9813086505361985 0 0 1 1 0 0 forward_v I I I I #
face $-1 $64 $65 $23 $-1 $66 reversed single #
loop $-1 $-1 $67 $30 #
plane-surface $-1 39.411650718819644 0 6.4396326703781499 1 0 0 0 0 -1 forward_v I I I I #
face $-1 $68 $69 $24 $-1 $70 reversed single #
loop $-1 $-1 $71 $31 #
plane-surface $-1 27.462810437283537 57.587174120789371 97.209982622543919 1 0 0 0 -0.70710678939079041 -0.70710677298230451 forward_v I I I I #
face $-1 $72 $73 $25 $-1 $74 forward single #
loop $-1 $75 $76 $32 #
cone-surface $-1 33.43723057805159 16.045533684618484 3.2960143646062643 0 -0.70710678939079041 -0.70710677298230451 2 0 0 1 I I 0 1 2 forward I I I I #
face $-1 $77 $78 $26 $-1 $79 reversed single #
loop $-1 $-1 $80 $33 #
plane-surface $-1 33.43723057805159 -20.730827933930485 1.7180019244883624 0 -0.70710678939079041 0.70710677298230451 1 0 0 forward_v I I I I #
face $-1 $81 $82 $27 $-1 $83 forward single #
loop $-1 $84 $85 $34 #
cone-surface $-1 33.43723057805159 -16.045533684618476 3.2960143646062678 0 0.70710678939079041 -0.70710677298230451 2 0 0 1 I I 0 1 2 forward I I I I #
face $-1 $86 $87 $21 $-1 $88 reversed single #
loop $-1 $-1 $89 $35 #
plane-surface $-1 0 0 -7.9813086505361985 0 0 1 1 0 0 forward_v I I I I #
coedge $-1 $90 $91 $92 $93 forward $36 $-1 #
face $-1 $94 $95 $22 $-1 $96 reversed single #
loop $-1 $-1 $97 $38 #
plane-surface $-1 -37.686521800545854 0 -6.4813086505361985 -1 0 0 0 0 1 forward_v I I I I #
coedge $-1 $98 $99 $100 $101 forward $39 $-1 #
face $-1 $102 $103 $23 $-1 $104 reversed single #
loop $-1 $-1 $105 $41 #
plane-surface $-1 43.101925093898792 0 4.8979566902201022 0 0 1 1 0 0 forward_v I I I I #
coedge $-1 $106 $107 $108 $109 reversed $42 $-1 #
face $-1 $110 $111 $24 $-1 $112 reversed single #
loop $-1 $-1 $113 $44 #
plane-surface $-1 33.43723057805159 -8.5869897492954976 31.035820288037343 0 0.70710678939079041 0.70710677298230451 1 0 0 forward_v I I I I #
coedge $-1 $114 $115 $116 $117 reversed $45 $-1 #
face $-1 $-1 $118 $25 $-1 $119 forward single #
loop $-1 $120 $121 $47 #
cone-surface $-1 33.43723057805159 13.784785936269291 1.0352666687179566 0 -0.70710678939079041 -0.70710677298230451 1 0 0 1 I I -0.70710678118654746 0.70710678118654746 1 forward I I I I #
loop $-1 $-1 $122 $32 #
coedge $-1 $76 $76 $123 $124 reversed $48 $-1 #
face $-1 $125 $126 $26 $-1 $127 forward single #
loop $-1 $-1 $128 $50 #
plane-surface $-1 27.462810437283537 -86.904991804015353 67.892164258994939 1 0 0 0 0.70710678939079041 -0.70710677298230451 forward_v I I I I #
coedge $-1 $129 $130 $131 $132 reversed $51 $-1 #
face $-1 $-1 $133 $27 $-1 $134 forward single #
loop $-1 $135 $136 $53 #
cone-surface $-1 33.43723057805159 -13.784785936269286 1.0352666687179601 0 0.70710678939079041 -0.70710677298230451 1 0 0 1 I I -0.70710678118654746 0.70710678118654746 1 forward I I I I #
loop $-1 $-1 $137 $34 #
coedge $-1 $85 $85 $138 $139 reversed $54 $-1 #
face $-1 $140 $141 $21 $-1 $142 reversed single #
loop $-1 $-1 $143 $56 #
plane-surface $-1 0 -20.730827933930467 0 0 1 0 0 0 1 forward_v I I I I #
coedge $-1 $144 $145 $146 $147 forward $57 $-1 #
coedge $-1 $148 $59 $149 $150 forward $36 $-1 #
coedge $-1 $59 $148 $151 $152 forward $36 $-1 #
coedge $-1 $153 $154 $59 $93 reversed $155 $-1 #
edge $-1 $156 -20.730827933930467 $157 20.730827933930467 $92 $158 forward 7 unknown #
face $-1 $159 $160 $22 $-1 $161 reversed single #
loop $-1 $-1 $162 $60 #
plane-surface $-1 0 0 -7.9813086505361985 0 0 1 1 0 0 forward_v I I I I #
coedge $-1 $163 $100 $164 $165 reversed $61 $-1 #
coedge $-1 $166 $63 $167 $168 reversed $39 $-1 #
coedge $-1 $63 $166 $169 $170 reversed $39 $-1 #
coedge $-1 $97 $171 $63 $101 reversed $61 $-1 #
edge $-1 $172 -20.730827933930467 $173 20.730827933930467 $100 $174 forward 7 unknown #
face $-1 $175 $176 $23 $-1 $177 reversed single #
loop $-1 $-1 $178 $64 #
plane-surface $-1 46.792199468977934 0 0 -1 0 0 0 0 1 forward_v I I I I #
coedge $-1 $179 $180 $178 $181 reversed $65 $-1 #
coedge $-1 $182 $67 $183 $184 reversed $42 $-1 #
coedge $-1 $67 $182 $185 $186 reversed $42 $-1 #
coedge $-1 $187 $188 $67 $109 forward $189 $-1 #
edge $-1 $190 -20.730827933930467 $191 20.730827933930467 $108 $192 forward 7 unknown #
face $-1 $193 $194 $24 $-1 $195 forward single #
loop $-1 $-1 $196 $68 #
plane-surface $-1 0 20.730827933930467 0 0 -1 0 0 0 -1 forward_v I I I I #
coedge $-1 $197 $198 $199 $200 reversed $69 $-1 #
coedge $-1 $115 $71 $201 $202 reversed $45 $-1 #
coedge $-1 $71 $114 $197 $203 reversed $45 $-1 #
coedge $-1 $199 $204 $71 $117 forward $205 $-1 #
edge $-1 $206 8.0627591264642184 $207 14.326065707171356 $116 $208 forward 7 unknown #
loop $-1 $-1 $123 $72 #
plane-surface $-1 33.43723057805159 -8.5869897492954976 31.035820288037343 0 0.70710678939079041 0.70710677298230451 1 0 0 forward_v I I I I #
loop $-1 $-1 $209 $47 #
coedge $-1 $121 $121 $122 $210 reversed $73 $-1 #
coedge $-1 $122 $122 $121 $210 forward $75 $-1 #
coedge $-1 $123 $123 $76 $124 forward $118 $-1 #
edge $-1 $211 -9.4205531125655546e-016 $211 6.2831853071795996 $123 $212 forward 7 unknown #
face $-1 $213 $214 $26 $-1 $215 forward single #
loop $-1 $-1 $216 $77 #
plane-surface $-1 39.411650718819644 0 6.4396326703781499 1 0 0 0 0 -1 forward_v I I I I #
coedge $-1 $217 $218 $219 $220 reversed $78 $-1 #
coedge $-1 $221 $80 $216 $222 reversed $51 $-1 #
coedge $-1 $80 $221 $217 $223 forward $51 $-1 #
coedge $-1 $219 $224 $80 $132 forward $214 $-1 #
edge $-1 $225 -22.693035429793849 $226 -10.744195148257742 $131 $227 forward 7 unknown #
loop $-1 $-1 $138 $81 #
plane-surface $-1 33.43723057805159 -20.730827933930485 1.7180019244883624 0 -0.70710678939079041 0.70710677298230451 1 0 0 forward_v I I I I #
loop $-1 $-1 $228 $53 #
coedge $-1 $136 $136 $137 $229 reversed $82 $-1 #
coedge $-1 $137 $137 $136 $229 forward $84 $-1 #
coedge $-1 $138 $138 $85 $139 forward $133 $-1 #
edge $-1 $230 -1.5700925934901583e-015 $230 6.2831853071795987 $138 $231 forward 7 unknown #
face $-1 $232 $233 $21 $-1 $234 reversed single #
loop $-1 $-1 $235 $86 #
plane-surface $-1 -46.792199468977934 0 0 1 0 0 0 0 -1 forward_v I I I I #
coedge $-1 $236 $151 $237 $238 forward $87 $-1 #
coedge $-1 $239 $89 $236 $240 forward $57 $-1 #
coedge $-1 $89 $239 $241 $242 forward $57 $-1 #
coedge $-1 $154 $153 $89 $147 reversed $155 $-1 #
edge $-1 $243 -20.730827933930467 $244 20.730827933930467 $146 $245 forward 7 unknown #
coedge $-1 $91 $90 $246 $247 forward $36 $-1 #
coedge $-1 $248 $249 $90 $150 reversed $233 $-1 #
edge $-1 $157 -46.792199468977934 $250 46.792199468977934 $149 $251 forward 7 unknown #
coedge $-1 $143 $252 $91 $152 reversed $87 $-1 #
edge $-1 $253 -46.792199468977934 $156 46.792199468977934 $151 $254 forward 7 unknown #
coedge $-1 $146 $92 $252 $255 forward $155 $-1 #
coedge $-1 $92 $146 $248 $256 reversed $155 $-1 #
loop $-1 $-1 $153 $232 #
vertex $-1 $93 $257 #
vertex $-1 $93 $258 #
straight-curve $-1 46.792199468977934 0 7.9813086505361985 0 1 0 I I #
face $-1 $259 $260 $22 $-1 $261 reversed single #
loop $-1 $-1 $164 $94 #
plane-surface $-1 0 -20.730827933930467 0 0 1 0 0 0 1 forward_v I I I I #
coedge $-1 $262 $263 $163 $264 forward $95 $-1 #
coedge $-1 $171 $97 $162 $264 reversed $61 $-1 #
coedge $-1 $169 $265 $97 $165 forward $160 $-1 #
edge $-1 $266 -4.7406543252680997 $172 -1.7406543252680993 $164 $267 forward 7 unknown #
coedge $-1 $99 $98 $268 $269 reversed $39 $-1 #
coedge $-1 $270 $271 $98 $168 forward $272 $-1 #
edge $-1 $273 -25.672519151596987 $173 -16.566841483164907 $167 $274 forward 7 unknown #
coedge $-1 $275 $164 $99 $170 forward $160 $-1 #
edge $-1 $172 16.566841483164907 $276 25.672519151596987 $169 $277 forward 7 unknown #
coedge $-1 $100 $163 $270 $278 reversed $61 $-1 #
vertex $-1 $170 $279 #
vertex $-1 $168 $280 #
straight-curve $-1 -37.686521800545854 0 -4.9813086505361985 0 1 0 I I #
face $-1 $281 $282 $23 $-1 $283 reversed single #
loop $-1 $-1 $284 $102 #
plane-surface $-1 0 20.730827933930467 0 0 -1 0 0 0 -1 forward_v I I I I #
coedge $-1 $285 $286 $105 $181 forward $103 $-1 #
coedge $-1 $287 $105 $288 $289 reversed $65 $-1 #
coedge $-1 $105 $287 $284 $290 reversed $65 $-1 #
edge $-1 $291 -20.730827933930467 $292 20.730827933930467 $178 $293 forward 7 unknown #
coedge $-1 $107 $106 $287 $294 reversed $42 $-1 #
coedge $-1 $295 $284 $106 $184 forward $176 $-1 #
edge $-1 $296 1.6781403550310272 $190 4.7614923153471231 $183 $297 forward 7 unknown #
coedge $-1 $288 $298 $107 $186 forward $282 $-1 #
edge $-1 $191 -4.7614923153471231 $299 -1.6781403550310272 $185 $300 forward 7 unknown #
coedge $-1 $301 $108 $298 $302 forward $189 $-1 #
coedge $-1 $108 $301 $295 $303 forward $189 $-1 #
loop $-1 $-1 $108 $281 #
vertex $-1 $184 $304 #
vertex $-1 $302 $305 #
straight-curve $-1 39.411650718819644 0 7.9813086505361985 0 -1 0 I I #
face $-1 $-1 $205 $24 $-1 $306 forward single #
loop $-1 $-1 $307 $110 #
plane-surface $-1 39.411650718819644 0 6.4396326703781499 1 0 0 0 0 -1 forward_v I I I I #
coedge $-1 $308 $309 $310 $311 forward $111 $-1 #
coedge $-1 $312 $113 $115 $203 forward $69 $-1 #
coedge $-1 $113 $312 $307 $313 forward $69 $-1 #
coedge $-1 $314 $116 $113 $200 forward $205 $-1 #
edge $-1 $207 10.744195148257742 $315 22.693035429793849 $199 $316 forward 7 unknown #
coedge $-1 $309 $308 $114 $202 forward $111 $-1 #
edge $-1 $317 -46.886989386783576 $206 -40.62368266073576 $201 $318 forward 7 unknown #
edge $-1 $207 32.604002653352858 $317 41.461655867860934 $115 $319 forward 7 unknown #
coedge $-1 $116 $314 $309 $320 forward $205 $-1 #
loop $-1 $-1 $199 $193 #
vertex $-1 $202 $321 #
vertex $-1 $117 $322 #
straight-curve $-1 27.462810437283537 28.793587060394685 7.9813086505361994 0 -1 0 I I #
coedge $-1 $209 $209 $-1 $323 reversed $120 $-1 #
edge $-1 $324 0 $324 6.2831853071796004 $121 $325 forward 7 unknown #
vertex $-1 $124 $326 #
ellipse-curve $-1 33.43723057805159 17.599174643576905 4.8496552875122863 0 0.70710678939079041 0.70710677298230451 2 0 0 1 I I #
face $-1 $-1 $327 $26 $-1 $328 reversed single #
loop $-1 $-1 $131 $125 #
plane-surface $-1 0 0 7.9813086505361985 0 0 1 1 0 0 forward_v I I I I #
coedge $-1 $329 $330 $129 $222 forward $126 $-1 #
coedge $-1 $218 $128 $130 $223 reversed $78 $-1 #
coedge $-1 $128 $217 $331 $332 reversed $78 $-1 #
coedge $-1 $333 $131 $128 $220 forward $214 $-1 #
edge $-1 $226 -28.984974548784351 $334 -22.72166796807721 $219 $335 forward 7 unknown #
coedge $-1 $130 $129 $336 $337 reversed $51 $-1 #
edge $-1 $338 -8.9988029995139627 $225 -0.14114978500588676 $216 $339 forward 7 unknown #
edge $-1 $340 2.5121479338940405e-014 $226 8.8576532145081028 $217 $341 forward 7 unknown #
coedge $-1 $131 $333 $329 $342 forward $214 $-1 #
vertex $-1 $132 $343 #
vertex $-1 $132 $344 #
straight-curve $-1 16.718615289025795 -14.467521353223324 7.9813086505361985 -1 0 0 I I #
coedge $-1 $228 $228 $-1 $345 reversed $135 $-1 #
edge $-1 $346 0 $346 6.2831853071796004 $136 $347 forward 7 unknown #
vertex $-1 $139 $348 #
ellipse-curve $-1 33.43723057805159 -17.599174643576895 4.8496552875122898 0 -0.70710678939079041 0.70710677298230451 2 0 0 1 I I #
face $-1 $-1 $155 $21 $-1 $349 reversed single #
loop $-1 $-1 $248 $140 #
plane-surface $-1 0 20.730827933930467 0 0 -1 0 0 0 -1 forward_v I I I I #
coedge $-1 $350 $246 $249 $351 forward $141 $-1 #
coedge $-1 $252 $143 $144 $240 reversed $87 $-1 #
coedge $-1 $246 $350 $143 $238 reversed $141 $-1 #
edge $-1 $253 -7.9813086505361985 $352 7.9813086505361985 $237 $353 forward 7 unknown #
coedge $-1 $145 $144 $350 $354 forward $57 $-1 #
edge $-1 $244 -46.792199468977934 $352 46.792199468977934 $236 $355 forward 7 unknown #
coedge $-1 $249 $248 $145 $242 reversed $233 $-1 #
edge $-1 $356 -46.792199468977934 $243 46.792199468977934 $241 $357 forward 7 unknown #
vertex $-1 $147 $358 #
vertex $-1 $255 $359 #
straight-curve $-1 46.792199468977934 0 -7.9813086505361985 0 -1 0 I I #
coedge $-1 $235 $237 $148 $247 reversed $141 $-1 #
edge $-1 $250 -20.730827933930467 $253 20.730827933930467 $246 $360 forward 7 unknown #
coedge $-1 $241 $149 $154 $256 forward $233 $-1 #
coedge $-1 $149 $241 $235 $351 reversed $233 $-1 #
vertex $-1 $150 $361 #
straight-curve $-1 0 20.730827933930467 7.9813086505361985 -1 0 0 I I #
coedge $-1 $151 $236 $153 $255 reversed $87 $-1 #
vertex $-1 $247 $362 #
straight-curve $-1 0 -20.730827933930467 7.9813086505361985 1 0 0 I I #
edge $-1 $156 -7.9813086505361985 $244 7.9813086505361985 $153 $363 forward 7 unknown #
edge $-1 $157 -7.9813086505361985 $243 7.9813086505361985 $154 $364 forward 7 unknown #
point $-1 46.792199468977934 -20.730827933930467 7.9813086505361985 #
point $-1 46.792199468977934 20.730827933930467 7.9813086505361985 #
face $-1 $-1 $272 $22 $-1 $365 reversed single #
loop $-1 $-1 $268 $159 #
plane-surface $-1 -46.792199468977934 0 0 1 0 0 0 0 -1 forward_v I I I I #
coedge $-1 $366 $162 $265 $367 forward $95 $-1 #
coedge $-1 $162 $366 $368 $369 forward $95 $-1 #
edge $-1 $370 -20.730827933930467 $266 20.730827933930467 $162 $371 forward 7 unknown #
coedge $-1 $164 $275 $262 $367 reversed $160 $-1 #
vertex $-1 $367 $372 #
straight-curve $-1 -37.686521800545854 -20.730827933930467 -3.2406543252680993 0 0 1 I I #
coedge $-1 $373 $374 $166 $269 forward $260 $-1 #
edge $-1 $276 -20.730827933930467 $273 20.730827933930467 $268 $375 forward 7 unknown #
coedge $-1 $368 $167 $171 $278 forward $272 $-1 #
coedge $-1 $167 $368 $373 $376 reversed $272 $-1 #
loop $-1 $-1 $270 $259 #
vertex $-1 $376 $377 #
straight-curve $-1 -21.119680317380947 20.730827933930467 -4.9813086505361985 1 0 0 I I #
coedge $-1 $265 $169 $374 $378 forward $160 $-1 #
vertex $-1 $378 $379 #
straight-curve $-1 -21.119680317380947 -20.730827933930467 -4.9813086505361985 -1 0 0 I I #
edge $-1 $173 1.7406543252680993 $370 4.7406543252680997 $270 $380 forward 7 unknown #
point $-1 -37.686521800545854 -20.730827933930467 -4.9813086505361985 #
point $-1 -37.686521800545854 20.730827933930467 -4.9813086505361985 #
face $-1 $-1 $189 $23 $-1 $381 forward single #
loop $-1 $-1 $288 $175 #
plane-surface $-1 0 -20.730827933930467 0 0 1 0 0 0 1 forward_v I I I I #
coedge $-1 $183 $382 $180 $290 forward $176 $-1 #
coedge $-1 $383 $178 $382 $384 reversed $103 $-1 #
coedge $-1 $178 $383 $385 $386 forward $103 $-1 #
coedge $-1 $180 $179 $182 $294 forward $65 $-1 #
coedge $-1 $385 $185 $179 $289 forward $282 $-1 #
edge $-1 $299 17.860688171870247 $291 25.241236922028545 $288 $387 forward 7 unknown #
edge $-1 $292 -25.241236922028545 $296 -17.860688171870247 $284 $388 forward 7 unknown #
vertex $-1 $181 $389 #
vertex $-1 $181 $390 #
straight-curve $-1 46.792199468977934 0 4.8979566902201022 0 1 0 I I #
edge $-1 $299 -20.730827933930467 $296 20.730827933930467 $182 $391 forward 7 unknown #
coedge $-1 $382 $183 $188 $303 reversed $176 $-1 #
vertex $-1 $290 $392 #
straight-curve $-1 39.411650718819644 20.730827933930467 3.219816335189075 0 0 1 I I #
coedge $-1 $185 $385 $187 $302 reversed $282 $-1 #
vertex $-1 $289 $393 #
straight-curve $-1 39.411650718819644 -20.730827933930467 3.219816335189075 0 0 -1 I I #
coedge $-1 $188 $187 $383 $394 forward $189 $-1 #
edge $-1 $191 39.411650718819644 $395 46.792199468977934 $298 $396 forward 7 unknown #
edge $-1 $397 -46.792199468977934 $190 -39.411650718819644 $295 $398 forward 7 unknown #
point $-1 39.411650718819644 20.730827933930467 7.9813086505361976 #
point $-1 39.411650718819644 -20.730827933930467 7.9813086505361976 #
plane-surface $-1 0 0 7.9813086505361985 0 0 1 1 0 0 forward_v I I I I #
coedge $-1 $310 $399 $198 $313 reversed $194 $-1 #
coedge $-1 $201 $196 $312 $400 forward $111 $-1 #
coedge $-1 $196 $201 $204 $320 reversed $111 $-1 #
coedge $-1 $399 $307 $196 $311 reversed $194 $-1 #
edge $-1 $401 40.62368266073576 $402 46.886989386783576 $196 $403 forward 7 unknown #
coedge $-1 $198 $197 $308 $400 reversed $69 $-1 #
edge $-1 $402 -41.461655867860934 $315 -32.604002653352858 $307 $404 forward 7 unknown #
coedge $-1 $204 $199 $399 $405 forward $205 $-1 #
vertex $-1 $405 $406 #
straight-curve $-1 16.718615289025795 14.467521353223329 7.9813086505361976 1 0 0 I I #
vertex $-1 $202 $407 #
straight-curve $-1 27.462810437283537 20.730827933930467 48.604991311271959 0 0 1 I I #
straight-curve $-1 27.462810437283537 -8.5869897492954976 31.035820288037343 0 0.70710677298230451 -0.70710678939079041 I I #
edge $-1 $401 -39.411650718819644 $206 -27.462810437283537 $309 $408 forward 7 unknown #
point $-1 27.462810437283537 20.730827933930467 7.9813086505361985 #
point $-1 27.462810437283537 14.467521353223329 7.9813086505361994 #
edge $-1 $409 1 $409 0 $209 $-1 forward 7 unknown #
vertex $-1 $210 $410 #
ellipse-curve $-1 33.43723057805159 14.491892725660081 1.742373441700261 0 0.70710678939079041 0.70710677298230451 2 0 0 1 I I #
point $-1 35.43723057805159 17.599174643576884 4.8496552875122676 #
loop $-1 $-1 $411 $213 #
plane-surface $-1 0 -20.730827933930467 0 0 1 0 0 0 1 forward_v I I I I #
coedge $-1 $330 $216 $224 $342 reversed $126 $-1 #
coedge $-1 $216 $329 $411 $412 reversed $126 $-1 #
coedge $-1 $336 $413 $218 $332 forward $327 $-1 #
edge $-1 $334 25.96477347896127 $340 32.228080205009093 $331 $414 forward 7 unknown #
coedge $-1 $224 $219 $413 $415 forward $214 $-1 #
vertex $-1 $415 $416 #
straight-curve $-1 27.462810437283537 -43.452495902007676 7.9813086505361994 0 -1 0 I I #
coedge $-1 $411 $331 $221 $337 forward $327 $-1 #
edge $-1 $340 10.744195148257742 $338 22.693035429793849 $336 $417 forward 7 unknown #
vertex $-1 $412 $418 #
straight-curve $-1 39.411650718819644 -14.367713384240666 8.0811166218349104 0 0.70710677298230462 0.70710678939079052 I I #
vertex $-1 $337 $419 #
straight-curve $-1 27.462810437283537 -20.730827933930485 1.7180019244883624 0 0.70710677298230451 0.70710678939079041 I I #
edge $-1 $420 -20.730827933930467 $225 -14.467521353223326 $224 $421 forward 7 unknown #
point $-1 39.411650718819644 -14.467521353223326 7.9813086505361985 #
point $-1 27.462810437283537 -14.467521353223326 7.9813086505361985 #
edge $-1 $422 1 $422 0 $228 $-1 forward 7 unknown #
vertex $-1 $229 $423 #
ellipse-curve $-1 33.43723057805159 -14.491892725660076 1.7423734417002645 0 -0.70710678939079041 0.70710677298230451 2 0 0 1 I I #
point $-1 35.43723057805159 -17.59917464357688 4.8496552875122712 #
plane-surface $-1 46.792199468977934 0 0 -1 0 0 0 0 1 forward_v I I I I #
coedge $-1 $237 $235 $239 $354 reversed $141 $-1 #
edge $-1 $250 -7.9813086505361985 $356 7.9813086505361985 $249 $424 forward 7 unknown #
vertex $-1 $354 $425 #
straight-curve $-1 -46.792199468977934 -20.730827933930467 0 0 0 -1 I I #
edge $-1 $352 -20.730827933930467 $356 20.730827933930467 $350 $426 forward 7 unknown #
straight-curve $-1 0 -20.730827933930467 -7.9813086505361985 -1 0 0 I I #
vertex $-1 $242 $427 #
straight-curve $-1 0 20.730827933930467 -7.9813086505361985 1 0 0 I I #
point $-1 46.792199468977934 20.730827933930467 -7.9813086505361985 #
point $-1 46.792199468977934 -20.730827933930467 -7.9813086505361985 #
straight-curve $-1 -46.792199468977934 0 7.9813086505361985 0 -1 0 I I #
point $-1 -46.792199468977934 20.730827933930467 7.9813086505361985 #
point $-1 -46.792199468977934 -20.730827933930467 7.9813086505361985 #
straight-curve $-1 46.792199468977934 -20.730827933930467 0 0 0 -1 I I #
straight-curve $-1 46.792199468977934 20.730827933930467 0 0 0 -1 I I #
plane-surface $-1 0 20.730827933930467 0 0 -1 0 0 0 -1 forward_v I I I I #
coedge $-1 $263 $262 $428 $429 forward $95 $-1 #
edge $-1 $266 37.686521800545854 $430 46.792199468977934 $265 $431 forward 7 unknown #
coedge $-1 $271 $270 $263 $369 reversed $272 $-1 #
edge $-1 $432 -46.792199468977934 $370 -37.686521800545854 $368 $433 forward 7 unknown #
vertex $-1 $278 $434 #
straight-curve $-1 -37.686521800545854 0 -7.9813086505361985 0 -1 0 I I #
point $-1 -37.686521800545854 -20.730827933930467 -7.9813086505361985 #
coedge $-1 $428 $268 $271 $376 forward $260 $-1 #
coedge $-1 $268 $428 $275 $378 reversed $260 $-1 #
straight-curve $-1 -46.792199468977934 0 -4.9813086505361985 0 1 0 I I #
edge $-1 $273 4.9813086505361985 $432 7.9813086505361985 $271 $435 forward 7 unknown #
point $-1 -46.792199468977934 20.730827933930467 -4.9813086505361985 #
edge $-1 $276 4.9813086505361985 $430 7.9813086505361985 $374 $436 forward 7 unknown #
point $-1 -46.792199468977934 -20.730827933930467 -4.9813086505361985 #
straight-curve $-1 -37.686521800545854 20.730827933930467 -3.2406543252680993 0 0 -1 I I #
plane-surface $-1 0 0 7.9813086505361985 0 0 1 1 0 0 forward_v I I I I #
coedge $-1 $284 $295 $285 $384 forward $176 $-1 #
coedge $-1 $286 $285 $301 $394 reversed $103 $-1 #
edge $-1 $397 -7.9813086505361985 $292 -4.8979566902201022 $285 $437 forward 7 unknown #
coedge $-1 $298 $288 $286 $386 reversed $282 $-1 #
edge $-1 $395 -7.9813086505361985 $291 -4.8979566902201022 $286 $438 forward 7 unknown #
straight-curve $-1 21.550962546949396 -20.730827933930467 4.8979566902201022 1 0 0 I I #
straight-curve $-1 21.550962546949396 20.730827933930467 4.8979566902201022 -1 0 0 I I #
point $-1 46.792199468977941 -20.730827933930467 4.8979566902201022 #
point $-1 46.792199468977941 20.730827933930467 4.8979566902201022 #
straight-curve $-1 39.411650718819644 0 4.8979566902201022 0 1 0 I I #
point $-1 39.411650718819644 20.730827933930467 4.8979566902201022 #
point $-1 39.411650718819644 -20.730827933930467 4.8979566902201022 #
edge $-1 $395 -20.730827933930467 $397 20.730827933930467 $383 $439 forward 7 unknown #
vertex $-1 $394 $440 #
straight-curve $-1 0 -20.730827933930467 7.9813086505361985 1 0 0 I I #
vertex $-1 $394 $441 #
straight-curve $-1 0 20.730827933930467 7.9813086505361985 -1 0 0 I I #
coedge $-1 $307 $310 $314 $405 reversed $194 $-1 #
edge $-1 $402 -22.693035429793849 $317 -10.744195148257742 $308 $442 forward 7 unknown #
vertex $-1 $320 $443 #
vertex $-1 $311 $444 #
straight-curve $-1 39.411650718819644 20.730827933930467 48.604991311271959 0 0 -1 I I #
straight-curve $-1 39.411650718819644 -8.5869897492954976 31.035820288037343 0 -0.70710677298230451 0.70710678939079041 I I #
edge $-1 $315 14.467521353223328 $401 20.730827933930467 $314 $445 forward 7 unknown #
point $-1 39.411650718819644 14.467521353223328 7.9813086505361985 #
point $-1 27.462810437283537 20.730827933930467 1.7180019244883837 #
straight-curve $-1 0 20.730827933930467 7.9813086505361985 -1 0 0 I I #
vertex $-1 $323 $446 #
point $-1 35.43723057805159 14.491892725660081 1.742373441700261 #
coedge $-1 $413 $336 $330 $412 forward $327 $-1 #
edge $-1 $338 -32.228080205009093 $420 -25.96477347896127 $411 $447 forward 7 unknown #
coedge $-1 $331 $411 $333 $415 reversed $327 $-1 #
straight-curve $-1 27.462810437283537 -20.730827933930463 33.946082129497469 0 0 -1 I I #
edge $-1 $334 27.462810437283537 $420 39.411650718819644 $413 $448 forward 7 unknown #
point $-1 27.462810437283537 -20.730827933930467 7.9813086505361985 #
straight-curve $-1 16.718615289025795 -20.730827933930467 1.7180019244883811 1 0 0 I I #
point $-1 39.411650718819644 -20.730827933930467 1.7180019244883802 #
point $-1 27.462810437283537 -20.730827933930467 1.7180019244883802 #
vertex $-1 $342 $449 #
straight-curve $-1 39.411650718819644 0 7.9813086505361985 0 1 0 I I #
vertex $-1 $345 $450 #
point $-1 35.43723057805159 -14.491892725660076 1.7423734417002645 #
straight-curve $-1 -46.792199468977934 20.730827933930467 0 0 0 -1 I I #
point $-1 -46.792199468977934 -20.730827933930467 -7.9813086505361985 #
straight-curve $-1 -46.792199468977934 0 -7.9813086505361985 0 1 0 I I #
point $-1 -46.792199468977934 20.730827933930467 -7.9813086505361985 #
coedge $-1 $374 $373 $366 $429 reversed $260 $-1 #
edge $-1 $430 -20.730827933930467 $432 20.730827933930467 $428 $451 forward 7 unknown #
vertex $-1 $429 $452 #
straight-curve $-1 0 -20.730827933930467 -7.9813086505361985 -1 0 0 I I #
vertex $-1 $369 $453 #
straight-curve $-1 0 20.730827933930467 -7.9813086505361985 1 0 0 I I #
point $-1 -37.686521800545854 20.730827933930467 -7.9813086505361985 #
straight-curve $-1 -46.792199468977934 20.730827933930467 0 0 0 -1 I I #
straight-curve $-1 -46.792199468977934 -20.730827933930467 0 0 0 -1 I I #
straight-curve $-1 46.792199468977934 20.730827933930467 0 0 0 -1 I I #
straight-curve $-1 46.792199468977934 -20.730827933930467 0 0 0 -1 I I #
straight-curve $-1 46.792199468977934 0 7.9813086505361985 0 1 0 I I #
point $-1 46.792199468977934 -20.730827933930467 7.9813086505361985 #
point $-1 46.792199468977934 20.730827933930467 7.9813086505361985 #
straight-curve $-1 16.718615289025795 20.730827933930467 1.718001924488382 -1 0 0 I I #
point $-1 39.411650718819644 20.730827933930467 7.9813086505361976 #
point $-1 39.411650718819644 20.730827933930467 1.7180019244883837 #
straight-curve $-1 39.411650718819644 0 7.9813086505361985 0 1 0 I I #
point $-1 33.43723057805159 13.0776791468785 0.32815989573565207 #
straight-curve $-1 39.411650718819644 -20.730827933930463 33.946082129497469 0 0 1 I I #
straight-curve $-1 0 -20.730827933930467 7.9813086505361985 1 0 0 I I #
point $-1 39.411650718819644 -20.730827933930467 7.9813086505361976 #
point $-1 33.43723057805159 -13.077679146878495 0.32815989573565563 #
straight-curve $-1 -46.792199468977934 0 -7.9813086505361985 0 1 0 I I #
point $-1 -46.792199468977934 -20.730827933930467 -7.9813086505361985 #
point $-1 -46.792199468977934 20.730827933930467 -7.9813086505361985 #
End-of-ACIS-data 