500 0 5 0           
7 Unknown 11 ACIS 5.0 NT 24 Fri Mar 26 20:33:04 1999 
-1 9.9999999999999995e-007 1e-010 
body $-1 $5 $-1 $6 #
body $-1 $7 $-1 $8 #
body $-1 $9 $-1 $10 #
body $-1 $11 $-1 $12 #
body $-1 $13 $-1 $14 #
lump $-1 $-1 $15 $0 #
transform $-1 1 0 0 0 1 0 0 0 1 45.959654530472733 20.529870645210831 4.1478897254093834 1 rotate no_reflect no_shear #
lump $-1 $-1 $16 $1 #
transform $-1 1 0 0 0 1 0 0 0 1 45.959654530472733 20.529870645210831 4.1478897254093834 1 rotate no_reflect no_shear #
lump $-1 $-1 $17 $2 #
transform $-1 1 0 0 0 1 0 0 0 1 45.959654530472733 20.529870645210831 4.1478897254093834 1 rotate no_reflect no_shear #
lump $-1 $-1 $18 $3 #
transform $-1 1 0 0 0 1 0 0 0 1 45.959654530472733 20.529870645210831 4.1478897254093834 1 rotate no_reflect no_shear #
lump $-1 $-1 $19 $4 #
transform $-1 1 0 0 0 1 0 0 0 1 45.959654530472733 20.529870645210831 4.1478897254093834 1 rotate no_reflect no_shear #
shell $-1 $-1 $-1 $20 $-1 $5 #
shell $-1 $-1 $-1 $21 $-1 $7 #
shell $-1 $-1 $-1 $22 $-1 $9 #
shell $-1 $-1 $-1 $23 $-1 $11 #
shell $-1 $-1 $-1 $24 $-1 $13 #
face $-1 $25 $26 $15 $-1 $27 forward single #
face $-1 $28 $29 $16 $-1 $30 forward single #
face $-1 $31 $32 $17 $-1 $33 reversed single #
face $-1 $34 $35 $18 $-1 $36 forward single #
face $-1 $37 $38 $19 $-1 $39 forward single #
face $-1 $40 $41 $15 $-1 $42 reversed single #
loop $-1 $-1 $43 $20 #
plane-surface $-1 0 0 4.1478897254093834 0 0 1 1 0 0 forward_v I I I I #
face $-1 $44 $45 $16 $-1 $46 reversed single #
loop $-1 $-1 $47 $21 #
plane-surface $-1 0 -20.529870645210831 0 0 1 0 0 0 1 forward_v I I I I #
face $-1 $48 $49 $17 $-1 $50 reversed single #
loop $-1 $-1 $51 $22 #
plane-surface $-1 -101.27807634142843 12.910083002866099 74.053314223370393 0 1 0 -0.6018150307709319 0 0.79863550430605224 forward_v I I I I #
face $-1 $52 $53 $18 $-1 $54 forward single #
loop $-1 $55 $56 $23 #
cone-surface $-1 -43.209944053689114 15.087165186393168 1.8324846783762934 0.6018150307709319 0 -0.79863550430605224 0.79863550430605224 0 0.6018150307709319 1 I I 0 1 1 forward I I I I #
face $-1 $57 $58 $19 $-1 $59 forward single #
loop $-1 $60 $61 $24 #
cone-surface $-1 -43.209944053689114 18.352788461683769 1.8324846783762934 0.6018150307709319 0 -0.79863550430605224 0.79863550430605224 0 0.6018150307709319 1 I I 0 1 1 forward I I I I #
face $-1 $62 $63 $15 $-1 $64 reversed single #
loop $-1 $-1 $65 $25 #
plane-surface $-1 0 0 -4.1478897254093834 0 0 1 1 0 0 forward_v I I I I #
coedge $-1 $66 $67 $68 $69 forward $26 $-1 #
face $-1 $70 $71 $16 $-1 $72 forward single #
loop $-1 $-1 $73 $28 #
plane-surface $-1 -45.959654530472733 0 0 1 0 0 0 0 -1 forward_v I I I I #
coedge $-1 $74 $75 $76 $77 forward $29 $-1 #
face $-1 $78 $79 $17 $-1 $80 forward single #
loop $-1 $-1 $81 $31 #
plane-surface $-1 -45.959654530472733 16.719976824038465 0.64329047601833622 -0.6018150307709319 0 0.79863550430605224 0.79863550430605224 0 0.6018150307709319 forward_v I I I I #
coedge $-1 $82 $83 $84 $85 reversed $32 $-1 #
face $-1 $-1 $86 $18 $-1 $87 forward single #
loop $-1 $88 $89 $34 #
cone-surface $-1 -42.484706158243945 15.087165186393168 0.87006150388570624 0.6018150307709319 0 -0.79863550430605224 0.39931775215302612 0 0.30090751538546595 1 I I -0.70710678118654746 0.70710678118654746 0.5 forward I I I I #
loop $-1 $-1 $90 $23 #
coedge $-1 $56 $56 $91 $92 reversed $35 $-1 #
face $-1 $-1 $93 $19 $-1 $94 forward single #
loop $-1 $95 $96 $37 #
cone-surface $-1 -42.484706158243945 18.352788461683769 0.87006150388570624 0.6018150307709319 0 -0.79863550430605224 0.39931775215302612 0 0.30090751538546595 1 I I -0.70710678118654746 0.70710678118654746 0.5 forward I I I I #
loop $-1 $-1 $97 $24 #
coedge $-1 $61 $61 $98 $99 reversed $38 $-1 #
face $-1 $100 $101 $15 $-1 $102 reversed single #
loop $-1 $-1 $103 $40 #
plane-surface $-1 0 -20.529870645210831 0 0 1 0 0 0 1 forward_v I I I I #
coedge $-1 $104 $105 $106 $107 forward $41 $-1 #
coedge $-1 $108 $43 $109 $110 forward $26 $-1 #
coedge $-1 $43 $108 $111 $112 forward $26 $-1 #
coedge $-1 $113 $114 $43 $69 reversed $115 $-1 #
edge $-1 $116 -20.529870645210831 $117 20.529870645210831 $68 $118 forward 7 unknown #
face $-1 $119 $120 $16 $-1 $121 reversed single #
loop $-1 $-1 $122 $44 #
plane-surface $-1 0 -22.431249016278432 1.7685304592283517 0 0 1 1 0 0 forward_v I I I I #
coedge $-1 $123 $124 $75 $125 forward $45 $-1 #
coedge $-1 $126 $47 $127 $128 reversed $29 $-1 #
coedge $-1 $47 $126 $73 $125 reversed $29 $-1 #
coedge $-1 $129 $122 $47 $77 reversed $71 $-1 #
edge $-1 $130 -45.959654530472733 $131 45.959654530472733 $76 $132 forward 7 unknown #
face $-1 $133 $134 $17 $-1 $135 reversed single #
loop $-1 $-1 $84 $48 #
plane-surface $-1 0 0 4.1478897254093834 0 0 1 1 0 0 forward_v I I I I #
coedge $-1 $136 $137 $138 $139 reversed $49 $-1 #
coedge $-1 $83 $51 $140 $141 reversed $32 $-1 #
coedge $-1 $51 $82 $136 $142 reversed $32 $-1 #
coedge $-1 $138 $143 $51 $85 forward $79 $-1 #
edge $-1 $144 4.6793836402414826 $145 9.3301438336893128 $84 $146 forward 7 unknown #
loop $-1 $-1 $91 $52 #
plane-surface $-1 -45.959654530472733 16.719976824038465 0.64329047601833622 -0.6018150307709319 0 0.79863550430605224 0.79863550430605224 0 0.6018150307709319 forward_v I I I I #
loop $-1 $-1 $147 $34 #
coedge $-1 $89 $89 $90 $148 reversed $53 $-1 #
coedge $-1 $90 $90 $89 $148 forward $55 $-1 #
coedge $-1 $91 $91 $56 $92 forward $86 $-1 #
edge $-1 $149 0 $149 6.2831853071796004 $91 $150 forward 7 unknown #
loop $-1 $-1 $98 $57 #
plane-surface $-1 -45.959654530472733 16.719976824038465 0.64329047601833622 -0.6018150307709319 0 0.79863550430605224 0.79863550430605224 0 0.6018150307709319 forward_v I I I I #
loop $-1 $-1 $151 $37 #
coedge $-1 $96 $96 $97 $152 reversed $58 $-1 #
coedge $-1 $97 $97 $96 $152 forward $60 $-1 #
coedge $-1 $98 $98 $61 $99 forward $93 $-1 #
edge $-1 $153 0 $153 6.2831853071796004 $98 $154 forward 7 unknown #
face $-1 $155 $156 $15 $-1 $157 reversed single #
loop $-1 $-1 $158 $62 #
plane-surface $-1 -45.959654530472733 0 0 1 0 0 0 0 -1 forward_v I I I I #
coedge $-1 $159 $111 $160 $161 forward $63 $-1 #
coedge $-1 $162 $65 $159 $163 forward $41 $-1 #
coedge $-1 $65 $162 $164 $165 forward $41 $-1 #
coedge $-1 $114 $113 $65 $107 reversed $115 $-1 #
edge $-1 $166 -20.529870645210831 $167 20.529870645210831 $106 $168 forward 7 unknown #
coedge $-1 $67 $66 $169 $170 forward $26 $-1 #
coedge $-1 $171 $172 $66 $110 reversed $156 $-1 #
edge $-1 $117 -45.959654530472733 $173 45.959654530472733 $109 $174 forward 7 unknown #
coedge $-1 $103 $175 $67 $112 reversed $63 $-1 #
edge $-1 $176 -45.959654530472733 $116 45.959654530472733 $111 $177 forward 7 unknown #
coedge $-1 $106 $68 $175 $178 forward $115 $-1 #
coedge $-1 $68 $106 $171 $179 reversed $115 $-1 #
loop $-1 $-1 $113 $155 #
vertex $-1 $69 $180 #
vertex $-1 $69 $181 #
straight-curve $-1 45.959654530472733 0 4.1478897254093834 0 1 0 I I #
face $-1 $182 $183 $16 $-1 $184 reversed single #
loop $-1 $-1 $185 $70 #
plane-surface $-1 0 -22.431249016278432 -1.2314695407716487 0 0 1 1 0 0 forward_v I I I I #
coedge $-1 $76 $186 $187 $188 forward $71 $-1 #
coedge $-1 $189 $73 $190 $191 reversed $45 $-1 #
coedge $-1 $73 $189 $129 $192 reversed $45 $-1 #
edge $-1 $130 -1.7685304592283517 $193 1.2314695407716487 $73 $194 forward 7 unknown #
coedge $-1 $75 $74 $195 $196 forward $29 $-1 #
coedge $-1 $187 $197 $74 $128 forward $198 $-1 #
edge $-1 $199 -1.2314695407716487 $131 1.7685304592283517 $127 $200 forward 7 unknown #
coedge $-1 $186 $76 $124 $192 forward $71 $-1 #
vertex $-1 $125 $201 #
vertex $-1 $188 $202 #
straight-curve $-1 0 -20.529870645210831 1.7685304592283517 1 0 0 I I #
face $-1 $-1 $203 $17 $-1 $204 reversed single #
loop $-1 $-1 $205 $78 #
plane-surface $-1 0 20.529870645210831 0 0 -1 0 0 0 -1 forward_v I I I I #
coedge $-1 $206 $81 $83 $142 forward $49 $-1 #
coedge $-1 $81 $206 $205 $207 reversed $49 $-1 #
coedge $-1 $208 $84 $81 $139 forward $79 $-1 #
edge $-1 $145 4.5500945908468662 $209 12.169882233191599 $138 $210 forward 7 unknown #
coedge $-1 $211 $212 $82 $141 forward $203 $-1 #
edge $-1 $213 -36.38336663566686 $144 -32.878767386275811 $140 $214 forward 7 unknown #
edge $-1 $145 -5.8233827176127786 $213 0 $83 $215 forward 7 unknown #
coedge $-1 $84 $208 $211 $216 forward $79 $-1 #
vertex $-1 $141 $217 #
vertex $-1 $85 $218 #
straight-curve $-1 -50.639038170714215 12.910083002866099 4.1478897254093852 1 0 0 I I #
coedge $-1 $147 $147 $-1 $219 reversed $88 $-1 #
edge $-1 $220 0 $220 6.2831853071796004 $89 $221 forward 7 unknown #
vertex $-1 $92 $222 #
ellipse-curve $-1 -43.634274433748821 15.087165186393168 2.3955901007138594 -0.6018150307709319 0 0.79863550430605224 0.79863550430605224 0 0.6018150307709319 1 I I #
coedge $-1 $151 $151 $-1 $223 reversed $95 $-1 #
edge $-1 $224 0 $224 6.2831853071796004 $96 $225 forward 7 unknown #
vertex $-1 $99 $226 #
ellipse-curve $-1 -43.634274433748821 18.352788461683769 2.3955901007138594 -0.6018150307709319 0 0.79863550430605224 0.79863550430605224 0 0.6018150307709319 1 I I #
face $-1 $-1 $115 $15 $-1 $227 reversed single #
loop $-1 $-1 $171 $100 #
plane-surface $-1 0 20.529870645210831 0 0 -1 0 0 0 -1 forward_v I I I I #
coedge $-1 $228 $169 $172 $229 forward $101 $-1 #
coedge $-1 $175 $103 $104 $163 reversed $63 $-1 #
coedge $-1 $169 $228 $103 $161 reversed $101 $-1 #
edge $-1 $176 -4.1478897254093834 $230 4.1478897254093834 $160 $231 forward 7 unknown #
coedge $-1 $105 $104 $228 $232 forward $41 $-1 #
edge $-1 $167 -45.959654530472733 $230 45.959654530472733 $159 $233 forward 7 unknown #
coedge $-1 $172 $171 $105 $165 reversed $156 $-1 #
edge $-1 $234 -45.959654530472733 $166 45.959654530472733 $164 $235 forward 7 unknown #
vertex $-1 $107 $236 #
vertex $-1 $178 $237 #
straight-curve $-1 45.959654530472733 0 -4.1478897254093834 0 -1 0 I I #
coedge $-1 $158 $160 $108 $170 reversed $101 $-1 #
edge $-1 $173 -20.529870645210831 $176 20.529870645210831 $169 $238 forward 7 unknown #
coedge $-1 $164 $109 $114 $179 forward $156 $-1 #
coedge $-1 $109 $164 $158 $229 reversed $156 $-1 #
vertex $-1 $110 $239 #
straight-curve $-1 0 20.529870645210831 4.1478897254093834 -1 0 0 I I #
coedge $-1 $111 $159 $113 $178 reversed $63 $-1 #
vertex $-1 $170 $240 #
straight-curve $-1 0 -20.529870645210831 4.1478897254093834 1 0 0 I I #
edge $-1 $116 -4.1478897254093834 $167 4.1478897254093834 $113 $241 forward 7 unknown #
edge $-1 $117 -4.1478897254093834 $166 4.1478897254093834 $114 $242 forward 7 unknown #
point $-1 45.959654530472733 -20.529870645210831 4.1478897254093834 #
point $-1 45.959654530472733 20.529870645210831 4.1478897254093834 #
face $-1 $-1 $198 $16 $-1 $243 reversed single #
loop $-1 $-1 $244 $119 #
plane-surface $-1 0 -24.332627387346033 0.2685304592283515 0 1 0 0 0 1 forward_v I I I I #
coedge $-1 $245 $195 $197 $246 forward $120 $-1 #
coedge $-1 $122 $129 $247 $248 forward $71 $-1 #
coedge $-1 $249 $127 $122 $188 reversed $198 $-1 #
edge $-1 $250 -1.9013783710676009 $131 1.9013783710676009 $187 $251 forward 7 unknown #
coedge $-1 $124 $123 $244 $252 reversed $45 $-1 #
coedge $-1 $195 $245 $123 $191 forward $120 $-1 #
edge $-1 $253 -1.9013783710676009 $193 1.9013783710676009 $123 $254 forward 7 unknown #
edge $-1 $130 -1.9013783710676009 $255 1.9013783710676009 $124 $256 forward 7 unknown #
vertex $-1 $125 $257 #
straight-curve $-1 -45.959654530472733 -20.529870645210831 0 0 0 -1 I I #
coedge $-1 $185 $190 $126 $196 reversed $120 $-1 #
edge $-1 $199 -45.959654530472733 $193 45.959654530472733 $195 $258 forward 7 unknown #
coedge $-1 $127 $249 $185 $246 reversed $198 $-1 #
loop $-1 $-1 $127 $182 #
vertex $-1 $128 $259 #
straight-curve $-1 45.959654530472733 -20.529870645210831 0 0 0 1 I I #
point $-1 -45.959654530472733 -20.529870645210831 1.7685304592283517 #
point $-1 45.959654530472733 -20.529870645210831 1.7685304592283517 #
loop $-1 $-1 $140 $133 #
plane-surface $-1 -45.959654530472733 0 0 1 0 0 0 0 -1 forward_v I I I I #
coedge $-1 $260 $261 $137 $207 forward $134 $-1 #
coedge $-1 $137 $136 $212 $262 reversed $49 $-1 #
edge $-1 $209 12.335552280415424 $263 18.158934998028204 $205 $264 forward 7 unknown #
coedge $-1 $143 $138 $261 $265 forward $79 $-1 #
vertex $-1 $265 $266 #
straight-curve $-1 -41.308894337024903 8.3599884120192325 4.1478897254093834 0 1 0 I I #
coedge $-1 $267 $140 $143 $216 reversed $203 $-1 #
coedge $-1 $140 $267 $206 $262 forward $203 $-1 #
vertex $-1 $141 $268 #
straight-curve $-1 -45.959654530472733 12.910083002866099 37.026657111685196 0 0 1 I I #
straight-curve $-1 -45.959654530472733 12.910083002866099 0.64329047601833622 -0.79863550430605224 0 -0.6018150307709319 I I #
edge $-1 $269 -20.529870645210831 $144 -12.910083002866099 $211 $270 forward 7 unknown #
point $-1 -45.959654530472733 12.910083002866099 4.1478897254093834 #
point $-1 -41.308894337024903 12.910083002866099 4.1478897254093834 #
edge $-1 $271 1 $271 0 $147 $-1 forward 7 unknown #
vertex $-1 $148 $272 #
ellipse-curve $-1 -42.785613673629413 15.087165186393168 1.2693792560387323 -0.6018150307709319 0 0.79863550430605224 0.79863550430605224 0 0.6018150307709319 1 I I #
point $-1 -42.835638929442759 15.087165186393168 2.9974051314847867 #
edge $-1 $273 1 $273 0 $151 $-1 forward 7 unknown #
vertex $-1 $152 $274 #
ellipse-curve $-1 -42.785613673629413 18.352788461683769 1.2693792560387323 -0.6018150307709319 0 0.79863550430605224 0.79863550430605224 0 0.6018150307709319 1 I I #
point $-1 -42.835638929442759 18.352788461683769 2.9974051314847867 #
plane-surface $-1 45.959654530472733 0 0 -1 0 0 0 0 1 forward_v I I I I #
coedge $-1 $160 $158 $162 $232 reversed $101 $-1 #
edge $-1 $173 -4.1478897254093834 $234 4.1478897254093834 $172 $275 forward 7 unknown #
vertex $-1 $232 $276 #
straight-curve $-1 -45.959654530472733 -20.529870645210831 0 0 0 -1 I I #
edge $-1 $230 -20.529870645210831 $234 20.529870645210831 $228 $277 forward 7 unknown #
straight-curve $-1 0 -20.529870645210831 -4.1478897254093834 -1 0 0 I I #
vertex $-1 $165 $278 #
straight-curve $-1 0 20.529870645210831 -4.1478897254093834 1 0 0 I I #
point $-1 45.959654530472733 20.529870645210831 -4.1478897254093834 #
point $-1 45.959654530472733 -20.529870645210831 -4.1478897254093834 #
straight-curve $-1 -45.959654530472733 0 4.1478897254093834 0 -1 0 I I #
point $-1 -45.959654530472733 20.529870645210831 4.1478897254093834 #
point $-1 -45.959654530472733 -20.529870645210831 4.1478897254093834 #
straight-curve $-1 45.959654530472733 -20.529870645210831 0 0 0 -1 I I #
straight-curve $-1 45.959654530472733 20.529870645210831 0 0 0 -1 I I #
plane-surface $-1 45.959654530472733 0 0 -1 0 0 0 0 1 forward_v I I I I #
coedge $-1 $279 $247 $189 $252 forward $183 $-1 #
coedge $-1 $190 $185 $279 $280 forward $120 $-1 #
edge $-1 $199 -1.9013783710676009 $281 1.9013783710676009 $197 $282 forward 7 unknown #
coedge $-1 $244 $283 $186 $248 reversed $183 $-1 #
edge $-1 $255 -45.959654530472733 $250 45.959654530472733 $247 $284 forward 7 unknown #
coedge $-1 $197 $187 $283 $285 forward $198 $-1 #
vertex $-1 $188 $286 #
straight-curve $-1 45.959654530472733 -22.431249016278432 1.7685304592283517 0 1 0 I I #
edge $-1 $255 -1.5000000000000002 $253 1.5000000000000002 $189 $287 forward 7 unknown #
vertex $-1 $191 $288 #
straight-curve $-1 -45.959654530472733 -22.431249016278432 -1.2314695407716487 0 1 0 I I #
vertex $-1 $192 $289 #
straight-curve $-1 -45.959654530472733 -22.431249016278432 1.7685304592283517 0 -1 0 I I #
point $-1 -45.959654530472733 -20.529870645210831 -1.2314695407716487 #
straight-curve $-1 0 -20.529870645210831 -1.2314695407716487 -1 0 0 I I #
point $-1 45.959654530472733 -20.529870645210831 -1.2314695407716487 #
coedge $-1 $261 $205 $267 $290 reversed $134 $-1 #
coedge $-1 $205 $260 $208 $265 reversed $134 $-1 #
edge $-1 $263 -12.169882233191599 $213 -4.5500945908468662 $212 $291 forward 7 unknown #
vertex $-1 $207 $292 #
straight-curve $-1 -31.45728432066166 20.529870645210831 11.571610500624033 -0.79863550430605224 0 -0.6018150307709319 I I #
edge $-1 $209 41.308894337024903 $269 45.959654530472733 $261 $293 forward 7 unknown #
point $-1 -41.308894337024903 20.529870645210831 4.1478897254093834 #
coedge $-1 $212 $211 $260 $290 forward $203 $-1 #
point $-1 -45.959654530472733 12.910083002866099 0.64329047601833622 #
vertex $-1 $265 $294 #
straight-curve $-1 -45.959654530472733 0 4.1478897254093834 0 -1 0 I I #
vertex $-1 $219 $295 #
point $-1 -41.986978169323358 15.087165186393168 1.8711942868096643 #
vertex $-1 $223 $296 #
point $-1 -41.986978169323358 18.352788461683769 1.8711942868096643 #
straight-curve $-1 -45.959654530472733 20.529870645210831 0 0 0 -1 I I #
point $-1 -45.959654530472733 -20.529870645210831 -4.1478897254093834 #
straight-curve $-1 -45.959654530472733 0 -4.1478897254093834 0 1 0 I I #
point $-1 -45.959654530472733 20.529870645210831 -4.1478897254093834 #
coedge $-1 $283 $244 $245 $280 reversed $183 $-1 #
edge $-1 $281 -45.959654530472733 $253 45.959654530472733 $279 $297 forward 7 unknown #
vertex $-1 $285 $298 #
straight-curve $-1 45.959654530472733 -22.431249016278432 -1.2314695407716487 0 -1 0 I I #
coedge $-1 $247 $279 $249 $285 reversed $183 $-1 #
straight-curve $-1 0 -24.332627387346033 1.7685304592283517 1 0 0 I I #
edge $-1 $250 -1.5000000000000002 $281 1.5000000000000002 $249 $299 forward 7 unknown #
point $-1 45.959654530472733 -24.332627387346033 1.7685304592283517 #
straight-curve $-1 -45.959654530472733 -24.332627387346033 0.2685304592283515 0 0 -1 I I #
point $-1 -45.959654530472733 -24.332627387346033 -1.2314695407716487 #
point $-1 -45.959654530472733 -24.332627387346033 1.7685304592283517 #
edge $-1 $269 -4.1478897254093834 $263 -0.64329047601833622 $260 $300 forward 7 unknown #
straight-curve $-1 -45.959654530472733 8.3599884120192325 0.643290476018338 0 -1 0 I I #
point $-1 -45.959654530472733 20.529870645210831 0.64329047601833622 #
straight-curve $-1 0 20.529870645210831 4.1478897254093834 -1 0 0 I I #
point $-1 -45.959654530472733 20.529870645210831 4.1478897254093834 #
point $-1 -42.183798642858477 15.087165186393168 0.47074375173268013 #
point $-1 -42.183798642858477 18.352788461683769 0.47074375173268013 #
straight-curve $-1 0 -24.332627387346033 -1.2314695407716487 -1 0 0 I I #
point $-1 45.959654530472733 -24.332627387346033 -1.2314695407716487 #
straight-curve $-1 45.959654530472733 -24.332627387346033 0.2685304592283515 0 0 -1 I I #
straight-curve $-1 -45.959654530472733 20.529870645210831 0 0 0 -1 I I #
End-of-ACIS-data 