500 0 14 0           
7 Unknown 11 ACIS 5.0 NT 24 Thu Mar 25 20:32:59 1999 
-1 9.9999999999999995e-007 1e-010 
body $-1 $14 $-1 $15 #
body $-1 $16 $-1 $17 #
body $-1 $18 $-1 $19 #
body $-1 $20 $-1 $21 #
body $-1 $22 $-1 $23 #
body $-1 $24 $-1 $25 #
body $-1 $26 $-1 $27 #
body $-1 $28 $-1 $29 #
body $-1 $30 $-1 $31 #
body $-1 $32 $-1 $33 #
body $-1 $34 $-1 $35 #
body $-1 $36 $-1 $37 #
body $-1 $38 $-1 $39 #
body $-1 $40 $-1 $41 #
lump $-1 $-1 $42 $0 #
transform $-1 1 0 0 0 1 0 0 0 1 58.048646504104738 27.562610607301956 9.8865209280923505 1 rotate no_reflect no_shear #
lump $-1 $-1 $43 $1 #
transform $-1 1 0 0 0 1 0 0 0 1 58.048646504104738 27.562610607301956 9.8865209280923505 1 rotate no_reflect no_shear #
lump $-1 $-1 $44 $2 #
transform $-1 1 0 0 0 1 0 0 0 1 58.048646504104738 27.562610607301956 9.8865209280923505 1 rotate no_reflect no_shear #
lump $-1 $-1 $45 $3 #
transform $-1 1 0 0 0 1 0 0 0 1 58.048646504104738 27.562610607301956 9.8865209280923505 1 rotate no_reflect no_shear #
lump $-1 $-1 $46 $4 #
transform $-1 1 0 0 0 1 0 0 0 1 58.048646504104738 27.562610607301956 9.8865209280923505 1 rotate no_reflect no_shear #
lump $-1 $-1 $47 $5 #
transform $-1 1 0 0 0 1 0 0 0 1 58.048646504104738 27.562610607301956 9.8865209280923505 1 rotate no_reflect no_shear #
lump $-1 $-1 $48 $6 #
transform $-1 1 0 0 0 1 0 0 0 1 58.048646504104738 27.562610607301956 9.8865209280923505 1 rotate no_reflect no_shear #
lump $-1 $-1 $49 $7 #
transform $-1 1 0 0 0 1 0 0 0 1 58.048646504104738 27.562610607301956 9.8865209280923505 1 rotate no_reflect no_shear #
lump $-1 $-1 $50 $8 #
transform $-1 1 0 0 0 1 0 0 0 1 58.048646504104738 27.562610607301956 9.8865209280923505 1 rotate no_reflect no_shear #
lump $-1 $-1 $51 $9 #
transform $-1 1 0 0 0 1 0 0 0 1 58.048646504104738 27.562610607301956 9.8865209280923505 1 rotate no_reflect no_shear #
lump $-1 $-1 $52 $10 #
transform $-1 1 0 0 0 1 0 0 0 1 58.048646504104738 27.562610607301956 9.8865209280923505 1 rotate no_reflect no_shear #
lump $-1 $-1 $53 $11 #
transform $-1 1 0 0 0 1 0 0 0 1 58.048646504104738 27.562610607301956 9.8865209280923505 1 rotate no_reflect no_shear #
lump $-1 $-1 $54 $12 #
transform $-1 1 0 0 0 1 0 0 0 1 58.048646504104738 27.562610607301956 9.8865209280923505 1 rotate no_reflect no_shear #
lump $-1 $-1 $55 $13 #
transform $-1 1 0 0 0 1 0 0 0 1 58.048646504104738 27.562610607301956 9.8865209280923505 1 rotate no_reflect no_shear #
shell $-1 $-1 $-1 $56 $-1 $14 #
shell $-1 $-1 $-1 $57 $-1 $16 #
shell $-1 $-1 $-1 $58 $-1 $18 #
shell $-1 $-1 $-1 $59 $-1 $20 #
shell $-1 $-1 $-1 $60 $-1 $22 #
shell $-1 $-1 $-1 $61 $-1 $24 #
shell $-1 $-1 $-1 $62 $-1 $26 #
shell $-1 $-1 $-1 $63 $-1 $28 #
shell $-1 $-1 $-1 $64 $-1 $30 #
shell $-1 $-1 $-1 $65 $-1 $32 #
shell $-1 $-1 $-1 $66 $-1 $34 #
shell $-1 $-1 $-1 $67 $-1 $36 #
shell $-1 $-1 $-1 $68 $-1 $38 #
shell $-1 $-1 $-1 $69 $-1 $40 #
face $-1 $70 $71 $42 $-1 $72 forward single #
face $-1 $73 $74 $43 $-1 $75 reversed single #
face $-1 $76 $77 $44 $-1 $78 reversed single #
face $-1 $79 $80 $45 $-1 $81 forward single #
face $-1 $82 $83 $46 $-1 $84 forward single #
face $-1 $85 $86 $47 $-1 $87 reversed single #
face $-1 $88 $89 $48 $-1 $90 forward single #
face $-1 $91 $92 $49 $-1 $93 forward single #
face $-1 $94 $95 $50 $-1 $96 reversed single #
face $-1 $97 $98 $51 $-1 $99 forward single #
face $-1 $100 $101 $52 $-1 $102 forward single #
face $-1 $103 $104 $53 $-1 $105 reversed single #
face $-1 $106 $107 $54 $-1 $108 forward single #
face $-1 $109 $110 $55 $-1 $111 forward single #
face $-1 $112 $113 $42 $-1 $114 reversed single #
loop $-1 $-1 $115 $56 #
plane-surface $-1 0 0 9.8865209280923505 0 0 1 1 0 0 forward_v I I I I #
face $-1 $116 $117 $43 $-1 $118 reversed single #
loop $-1 $-1 $119 $57 #
plane-surface $-1 -56.47899875410581 -19.379695910657993 0 0 -1 0 0 0 -1 forward_v I I I I #
face $-1 $120 $121 $44 $-1 $122 reversed single #
loop $-1 $-1 $123 $58 #
plane-surface $-1 -42.058119586545132 53.406747726751554 126.28467560509654 1 0 0 0 -0.6018150307709319 -0.79863550430605224 forward_v I I I I #
face $-1 $124 $125 $45 $-1 $126 forward single #
loop $-1 $127 $128 $59 #
cone-surface $-1 -38.334177776690062 20.136664104946689 3.6455847108661397 0 -0.6018150307709319 -0.79863550430605224 1 0 0 1 I I 0 1 1 forward I I I I #
face $-1 $129 $130 $46 $-1 $131 forward single #
loop $-1 $132 $133 $60 #
cone-surface $-1 -32.748265061907446 20.136664104946689 3.6455847108661397 0 -0.6018150307709319 -0.79863550430605224 1 0 0 1 I I 0 1 1 forward I I I I #
face $-1 $134 $135 $47 $-1 $136 reversed single #
loop $-1 $-1 $137 $61 #
plane-surface $-1 -13.033796334492767 53.406747726751554 126.28467560509654 1 0 0 0 -0.6018150307709319 -0.79863550430605224 forward_v I I I I #
face $-1 $138 $139 $48 $-1 $140 forward single #
loop $-1 $141 $142 $62 #
cone-surface $-1 -9.3098545246376929 20.136664104946689 3.6455847108661397 0 -0.6018150307709319 -0.79863550430605224 1 0 0 1 I I 0 1 1 forward I I I I #
face $-1 $143 $144 $49 $-1 $145 forward single #
loop $-1 $146 $147 $63 #
cone-surface $-1 -3.7239418098550772 20.136664104946689 3.6455847108661397 0 -0.6018150307709319 -0.79863550430605224 1 0 0 1 I I 0 1 1 forward I I I I #
face $-1 $148 $149 $50 $-1 $150 reversed single #
loop $-1 $-1 $151 $64 #
plane-surface $-1 15.990526917559603 53.406747726751554 126.28467560509654 1 0 0 0 -0.6018150307709319 -0.79863550430605224 forward_v I I I I #
face $-1 $152 $153 $51 $-1 $154 forward single #
loop $-1 $155 $156 $65 #
cone-surface $-1 19.714468727414669 20.136664104946689 3.6455847108661397 0 -0.6018150307709319 -0.79863550430605224 1 0 0 1 I I 0 1 1 forward I I I I #
face $-1 $157 $158 $52 $-1 $159 forward single #
loop $-1 $160 $161 $66 #
cone-surface $-1 25.300381442197292 20.136664104946689 3.6455847108661397 0 -0.6018150307709319 -0.79863550430605224 1 0 0 1 I I 0 1 1 forward I I I I #
face $-1 $162 $163 $53 $-1 $164 reversed single #
loop $-1 $-1 $165 $67 #
plane-surface $-1 45.014850169611975 53.406747726751554 126.28467560509654 1 0 0 0 -0.6018150307709319 -0.79863550430605224 forward_v I I I I #
face $-1 $166 $167 $54 $-1 $168 forward single #
loop $-1 $169 $170 $68 #
cone-surface $-1 48.738791979467038 20.136664104946689 3.6455847108661397 0 -0.6018150307709319 -0.79863550430605224 1 0 0 1 I I 0 1 1 forward I I I I #
face $-1 $171 $172 $55 $-1 $173 forward single #
loop $-1 $174 $175 $69 #
cone-surface $-1 54.324704694249661 20.136664104946689 3.6455847108661397 0 -0.6018150307709319 -0.79863550430605224 1 0 0 1 I I 0 1 1 forward I I I I #
face $-1 $176 $177 $42 $-1 $178 reversed single #
loop $-1 $-1 $179 $70 #
plane-surface $-1 0 0 -9.8865209280923505 0 0 1 1 0 0 forward_v I I I I #
coedge $-1 $180 $181 $182 $183 forward $71 $-1 #
face $-1 $184 $185 $43 $-1 $186 forward single #
loop $-1 $-1 $187 $73 #
plane-surface $-1 -54.909351004106881 -23.471153258979975 0 -1 0 0 0 0 1 forward_v I I I I #
coedge $-1 $188 $189 $190 $191 forward $74 $-1 #
face $-1 $192 $193 $44 $-1 $194 reversed single #
loop $-1 $-1 $195 $76 #
plane-surface $-1 -35.541221419298751 -16.462348237405926 33.565255454917647 0 0.6018150307709319 0.79863550430605224 1 0 0 forward_v I I I I #
coedge $-1 $196 $197 $198 $199 reversed $77 $-1 #
face $-1 $-1 $200 $45 $-1 $201 forward single #
loop $-1 $202 $203 $79 #
cone-surface $-1 -38.334177776690062 18.710918803235501 1.7535568288348866 0 -0.6018150307709319 -0.79863550430605224 0.5 0 0 1 I I -0.70710678118654746 0.70710678118654746 0.5 forward I I I I #
loop $-1 $-1 $204 $59 #
coedge $-1 $128 $128 $205 $206 reversed $80 $-1 #
face $-1 $-1 $207 $46 $-1 $208 forward single #
loop $-1 $209 $210 $82 #
cone-surface $-1 -32.748265061907446 18.710918803235501 1.7535568288348866 0 -0.6018150307709319 -0.79863550430605224 0.5 0 0 1 I I -0.70710678118654746 0.70710678118654746 0.5 forward I I I I #
loop $-1 $-1 $211 $60 #
coedge $-1 $133 $133 $212 $213 reversed $83 $-1 #
face $-1 $214 $215 $47 $-1 $216 reversed single #
loop $-1 $-1 $217 $85 #
plane-surface $-1 -6.5168981672463815 -16.462348237405926 33.565255454917647 0 0.6018150307709319 0.79863550430605224 1 0 0 forward_v I I I I #
coedge $-1 $218 $219 $220 $221 reversed $86 $-1 #
face $-1 $-1 $222 $48 $-1 $223 forward single #
loop $-1 $224 $225 $88 #
cone-surface $-1 -9.3098545246376929 18.710918803235501 1.7535568288348866 0 -0.6018150307709319 -0.79863550430605224 0.5 0 0 1 I I -0.70710678118654746 0.70710678118654746 0.5 forward I I I I #
loop $-1 $-1 $226 $62 #
coedge $-1 $142 $142 $227 $228 reversed $89 $-1 #
face $-1 $-1 $229 $49 $-1 $230 forward single #
loop $-1 $231 $232 $91 #
cone-surface $-1 -3.7239418098550772 18.710918803235501 1.7535568288348866 0 -0.6018150307709319 -0.79863550430605224 0.5 0 0 1 I I -0.70710678118654746 0.70710678118654746 0.5 forward I I I I #
loop $-1 $-1 $233 $63 #
coedge $-1 $147 $147 $234 $235 reversed $92 $-1 #
face $-1 $236 $237 $50 $-1 $238 reversed single #
loop $-1 $-1 $239 $94 #
plane-surface $-1 22.507425084805988 -16.462348237405926 33.565255454917647 0 0.6018150307709319 0.79863550430605224 1 0 0 forward_v I I I I #
coedge $-1 $240 $241 $242 $243 reversed $95 $-1 #
face $-1 $-1 $244 $51 $-1 $245 forward single #
loop $-1 $246 $247 $97 #
cone-surface $-1 19.714468727414669 18.710918803235501 1.7535568288348866 0 -0.6018150307709319 -0.79863550430605224 0.5 0 0 1 I I -0.70710678118654746 0.70710678118654746 0.5 forward I I I I #
loop $-1 $-1 $248 $65 #
coedge $-1 $156 $156 $249 $250 reversed $98 $-1 #
face $-1 $-1 $251 $52 $-1 $252 forward single #
loop $-1 $253 $254 $100 #
cone-surface $-1 25.300381442197292 18.710918803235501 1.7535568288348866 0 -0.6018150307709319 -0.79863550430605224 0.5 0 0 1 I I -0.70710678118654746 0.70710678118654746 0.5 forward I I I I #
loop $-1 $-1 $255 $66 #
coedge $-1 $161 $161 $256 $257 reversed $101 $-1 #
face $-1 $258 $259 $53 $-1 $260 forward single #
loop $-1 $-1 $261 $103 #
plane-surface $-1 51.531748336858357 -16.462348237405926 33.565255454917647 0 0.6018150307709319 0.79863550430605224 1 0 0 forward_v I I I I #
coedge $-1 $262 $263 $264 $265 reversed $104 $-1 #
face $-1 $-1 $266 $54 $-1 $267 forward single #
loop $-1 $268 $269 $106 #
cone-surface $-1 48.738791979467038 18.710918803235501 1.7535568288348866 0 -0.6018150307709319 -0.79863550430605224 0.5 0 0 1 I I -0.70710678118654746 0.70710678118654746 0.5 forward I I I I #
loop $-1 $-1 $270 $68 #
coedge $-1 $170 $170 $271 $272 reversed $107 $-1 #
face $-1 $-1 $273 $55 $-1 $274 forward single #
loop $-1 $275 $276 $109 #
cone-surface $-1 54.324704694249661 18.710918803235501 1.7535568288348866 0 -0.6018150307709319 -0.79863550430605224 0.5 0 0 1 I I -0.70710678118654746 0.70710678118654746 0.5 forward I I I I #
loop $-1 $-1 $277 $69 #
coedge $-1 $175 $175 $278 $279 reversed $110 $-1 #
face $-1 $280 $281 $42 $-1 $282 reversed single #
loop $-1 $-1 $283 $112 #
plane-surface $-1 0 -27.562610607301956 0 0 1 0 0 0 1 forward_v I I I I #
coedge $-1 $284 $285 $286 $287 forward $113 $-1 #
coedge $-1 $288 $115 $289 $290 forward $71 $-1 #
coedge $-1 $115 $288 $291 $292 forward $71 $-1 #
coedge $-1 $293 $294 $115 $183 reversed $295 $-1 #
edge $-1 $296 -27.562610607301956 $297 27.562610607301956 $182 $298 forward 7 unknown #
face $-1 $299 $300 $43 $-1 $301 reversed single #
loop $-1 $-1 $302 $116 #
plane-surface $-1 0 0 9.8865209280923505 0 0 1 1 0 0 forward_v I I I I #
coedge $-1 $303 $304 $305 $306 reversed $117 $-1 #
coedge $-1 $307 $119 $308 $309 reversed $74 $-1 #
coedge $-1 $119 $307 $310 $311 reversed $74 $-1 #
coedge $-1 $304 $303 $119 $191 reversed $117 $-1 #
edge $-1 $312 -9.8865209280923505 $313 9.8865209280923505 $190 $314 forward 7 unknown #
face $-1 $315 $316 $44 $-1 $317 reversed single #
loop $-1 $-1 $318 $120 #
plane-surface $-1 -29.024323252052366 53.406747726751554 126.28467560509654 -1 0 0 0 0.6018150307709319 0.79863550430605224 forward_v I I I I #
coedge $-1 $319 $320 $321 $322 reversed $121 $-1 #
coedge $-1 $197 $123 $323 $324 reversed $77 $-1 #
coedge $-1 $123 $196 $319 $325 reversed $77 $-1 #
coedge $-1 $321 $326 $123 $199 forward $327 $-1 #
edge $-1 $328 -0.85923674392617855 $329 11.742980688132942 $198 $330 forward 7 unknown #
loop $-1 $-1 $205 $124 #
plane-surface $-1 -35.541221419298751 -16.462348237405926 33.565255454917647 0 0.6018150307709319 0.79863550430605224 1 0 0 forward_v I I I I #
loop $-1 $-1 $331 $79 #
coedge $-1 $203 $203 $204 $332 reversed $125 $-1 #
coedge $-1 $204 $204 $203 $332 forward $127 $-1 #
coedge $-1 $205 $205 $128 $206 forward $200 $-1 #
edge $-1 $333 1.5632212428067335e-015 $333 6.2831853071796022 $205 $334 forward 7 unknown #
loop $-1 $-1 $212 $129 #
plane-surface $-1 -35.541221419298751 -16.462348237405926 33.565255454917647 0 0.6018150307709319 0.79863550430605224 1 0 0 forward_v I I I I #
loop $-1 $-1 $335 $82 #
coedge $-1 $210 $210 $211 $336 reversed $130 $-1 #
coedge $-1 $211 $211 $210 $336 forward $132 $-1 #
coedge $-1 $212 $212 $133 $213 forward $207 $-1 #
edge $-1 $337 1.5632212428067335e-015 $337 6.2831853071796022 $212 $338 forward 7 unknown #
face $-1 $339 $340 $47 $-1 $341 forward single #
loop $-1 $-1 $342 $134 #
plane-surface $-1 3.5527136788005009e-015 53.406747726751554 126.28467560509654 -1 0 0 0 0.6018150307709319 0.79863550430605224 forward_v I I I I #
coedge $-1 $343 $344 $345 $346 reversed $135 $-1 #
coedge $-1 $219 $137 $347 $348 reversed $86 $-1 #
coedge $-1 $137 $218 $343 $349 reversed $86 $-1 #
coedge $-1 $345 $350 $137 $221 forward $340 $-1 #
edge $-1 $351 -0.85923674392617855 $352 11.742980688132942 $220 $353 forward 7 unknown #
loop $-1 $-1 $227 $138 #
plane-surface $-1 -6.5168981672463815 -16.462348237405926 33.565255454917647 0 0.6018150307709319 0.79863550430605224 1 0 0 forward_v I I I I #
loop $-1 $-1 $354 $88 #
coedge $-1 $225 $225 $226 $355 reversed $139 $-1 #
coedge $-1 $226 $226 $225 $355 forward $141 $-1 #
coedge $-1 $227 $227 $142 $228 forward $222 $-1 #
edge $-1 $356 1.5632212428067335e-015 $356 6.2831853071796022 $227 $357 forward 7 unknown #
loop $-1 $-1 $234 $143 #
plane-surface $-1 -6.5168981672463815 -16.462348237405926 33.565255454917647 0 0.6018150307709319 0.79863550430605224 1 0 0 forward_v I I I I #
loop $-1 $-1 $358 $91 #
coedge $-1 $232 $232 $233 $359 reversed $144 $-1 #
coedge $-1 $233 $233 $232 $359 forward $146 $-1 #
coedge $-1 $234 $234 $147 $235 forward $229 $-1 #
edge $-1 $360 1.5632212428067335e-015 $360 6.2831853071796022 $234 $361 forward 7 unknown #
face $-1 $362 $363 $50 $-1 $364 forward single #
loop $-1 $-1 $365 $148 #
plane-surface $-1 29.024323252052373 53.406747726751554 126.28467560509654 -1 0 0 0 0.6018150307709319 0.79863550430605224 forward_v I I I I #
coedge $-1 $366 $367 $368 $369 reversed $149 $-1 #
coedge $-1 $241 $151 $370 $371 reversed $95 $-1 #
coedge $-1 $151 $240 $366 $372 reversed $95 $-1 #
coedge $-1 $368 $373 $151 $243 forward $363 $-1 #
edge $-1 $374 -0.85923674392617855 $375 11.742980688132942 $242 $376 forward 7 unknown #
loop $-1 $-1 $249 $152 #
plane-surface $-1 22.507425084805988 -16.462348237405926 33.565255454917647 0 0.6018150307709319 0.79863550430605224 1 0 0 forward_v I I I I #
loop $-1 $-1 $377 $97 #
coedge $-1 $247 $247 $248 $378 reversed $153 $-1 #
coedge $-1 $248 $248 $247 $378 forward $155 $-1 #
coedge $-1 $249 $249 $156 $250 forward $244 $-1 #
edge $-1 $379 1.5632212428067335e-015 $379 6.2831853071796022 $249 $380 forward 7 unknown #
loop $-1 $-1 $256 $157 #
plane-surface $-1 22.507425084805988 -16.462348237405926 33.565255454917647 0 0.6018150307709319 0.79863550430605224 1 0 0 forward_v I I I I #
loop $-1 $-1 $381 $100 #
coedge $-1 $254 $254 $255 $382 reversed $158 $-1 #
coedge $-1 $255 $255 $254 $382 forward $160 $-1 #
coedge $-1 $256 $256 $161 $257 forward $251 $-1 #
edge $-1 $383 1.5632212428067335e-015 $383 6.2831853071796022 $256 $384 forward 7 unknown #
face $-1 $385 $386 $53 $-1 $387 reversed single #
loop $-1 $-1 $264 $162 #
plane-surface $-1 0 0 9.8865209280923505 0 0 1 1 0 0 forward_v I I I I #
coedge $-1 $388 $389 $390 $391 reversed $163 $-1 #
coedge $-1 $263 $165 $392 $393 reversed $104 $-1 #
coedge $-1 $165 $262 $388 $394 reversed $104 $-1 #
coedge $-1 $390 $395 $165 $265 forward $259 $-1 #
edge $-1 $396 -0.85923674392617855 $397 11.742980688132942 $264 $398 forward 7 unknown #
loop $-1 $-1 $271 $166 #
plane-surface $-1 51.531748336858357 -16.462348237405926 33.565255454917647 0 0.6018150307709319 0.79863550430605224 1 0 0 forward_v I I I I #
loop $-1 $-1 $399 $106 #
coedge $-1 $269 $269 $270 $400 reversed $167 $-1 #
coedge $-1 $270 $270 $269 $400 forward $169 $-1 #
coedge $-1 $271 $271 $170 $272 forward $266 $-1 #
edge $-1 $401 1.5632212428067335e-015 $401 6.2831853071796022 $271 $402 forward 7 unknown #
loop $-1 $-1 $278 $171 #
plane-surface $-1 51.531748336858357 -16.462348237405926 33.565255454917647 0 0.6018150307709319 0.79863550430605224 1 0 0 forward_v I I I I #
loop $-1 $-1 $403 $109 #
coedge $-1 $276 $276 $277 $404 reversed $172 $-1 #
coedge $-1 $277 $277 $276 $404 forward $174 $-1 #
coedge $-1 $278 $278 $175 $279 forward $273 $-1 #
edge $-1 $405 1.5632212428067335e-015 $405 6.2831853071796022 $278 $406 forward 7 unknown #
face $-1 $407 $408 $42 $-1 $409 reversed single #
loop $-1 $-1 $410 $176 #
plane-surface $-1 -58.048646504104738 0 0 1 0 0 0 0 -1 forward_v I I I I #
coedge $-1 $411 $291 $412 $413 forward $177 $-1 #
coedge $-1 $414 $179 $411 $415 forward $113 $-1 #
coedge $-1 $179 $414 $416 $417 forward $113 $-1 #
coedge $-1 $294 $293 $179 $287 reversed $295 $-1 #
edge $-1 $418 -27.562610607301956 $419 27.562610607301956 $286 $420 forward 7 unknown #
coedge $-1 $181 $180 $421 $422 forward $71 $-1 #
coedge $-1 $423 $424 $180 $290 reversed $408 $-1 #
edge $-1 $297 -58.048646504104738 $425 58.048646504104738 $289 $426 forward 7 unknown #
coedge $-1 $283 $427 $181 $292 reversed $177 $-1 #
edge $-1 $428 -58.048646504104738 $296 58.048646504104738 $291 $429 forward 7 unknown #
coedge $-1 $286 $182 $427 $430 forward $295 $-1 #
coedge $-1 $182 $286 $423 $431 reversed $295 $-1 #
loop $-1 $-1 $293 $407 #
vertex $-1 $183 $432 #
vertex $-1 $183 $433 #
straight-curve $-1 58.048646504104738 0 9.8865209280923505 0 1 0 I I #
face $-1 $434 $435 $43 $-1 $436 reversed single #
loop $-1 $-1 $437 $184 #
plane-surface $-1 -58.048646504104738 0 0 1 0 0 0 0 -1 forward_v I I I I #
coedge $-1 $310 $438 $304 $439 forward $185 $-1 #
coedge $-1 $190 $187 $440 $441 reversed $117 $-1 #
coedge $-1 $187 $190 $302 $439 reversed $117 $-1 #
coedge $-1 $442 $443 $187 $306 forward $444 $-1 #
edge $-1 $445 -9.8865209280923505 $446 9.8865209280923505 $305 $447 forward 7 unknown #
coedge $-1 $189 $188 $437 $448 reversed $74 $-1 #
coedge $-1 $440 $449 $188 $309 forward $435 $-1 #
edge $-1 $450 -29.809147127051833 $313 -26.669851627053976 $308 $451 forward 7 unknown #
coedge $-1 $452 $302 $189 $311 forward $185 $-1 #
edge $-1 $312 26.669851627053976 $453 29.809147127051833 $310 $454 forward 7 unknown #
vertex $-1 $311 $455 #
vertex $-1 $309 $456 #
straight-curve $-1 -54.909351004106881 -19.379695910657993 0 0 0 -1 I I #
face $-1 $-1 $327 $44 $-1 $457 forward single #
loop $-1 $-1 $458 $192 #
plane-surface $-1 0 27.562610607301956 0 0 -1 0 0 0 -1 forward_v I I I I #
coedge $-1 $459 $460 $461 $462 reversed $193 $-1 #
coedge $-1 $463 $195 $197 $325 forward $121 $-1 #
coedge $-1 $195 $463 $459 $464 forward $121 $-1 #
coedge $-1 $461 $198 $195 $322 forward $327 $-1 #
edge $-1 $329 -24.287508876895757 $465 -11.25371254240299 $321 $466 forward 7 unknown #
coedge $-1 $467 $468 $196 $324 forward $316 $-1 #
edge $-1 $469 -62.752269049151906 $328 -53.255816874455917 $323 $470 forward 7 unknown #
edge $-1 $329 39.345535282647504 $469 55.125221214603911 $197 $471 forward 7 unknown #
coedge $-1 $198 $461 $467 $472 forward $327 $-1 #
loop $-1 $-1 $461 $315 #
vertex $-1 $324 $473 #
vertex $-1 $199 $474 #
straight-curve $-1 -42.058119586545132 26.703373863375777 9.8865209280923523 0 -1 0 I I #
coedge $-1 $331 $331 $-1 $475 reversed $202 $-1 #
edge $-1 $476 0 $476 6.2831853071796004 $203 $477 forward 7 unknown #
vertex $-1 $206 $478 #
ellipse-curve $-1 -38.334177776690062 21.261501891272403 5.1382948407443552 0 0.6018150307709319 0.79863550430605224 1 0 0 1 I I #
coedge $-1 $335 $335 $-1 $479 reversed $209 $-1 #
edge $-1 $480 0 $480 6.2831853071796004 $210 $481 forward 7 unknown #
vertex $-1 $213 $482 #
ellipse-curve $-1 -32.748265061907446 21.261501891272403 5.1382948407443552 0 0.6018150307709319 0.79863550430605224 1 0 0 1 I I #
face $-1 $-1 $483 $47 $-1 $484 reversed single #
loop $-1 $-1 $220 $214 #
plane-surface $-1 0 0 9.8865209280923505 0 0 1 1 0 0 forward_v I I I I #
coedge $-1 $485 $486 $487 $488 reversed $215 $-1 #
coedge $-1 $489 $217 $219 $349 forward $135 $-1 #
coedge $-1 $217 $489 $485 $490 forward $135 $-1 #
coedge $-1 $487 $220 $217 $346 forward $340 $-1 #
edge $-1 $352 -9.7753472508695758 $491 3.2584490836231943 $345 $492 forward 7 unknown #
coedge $-1 $493 $494 $218 $348 forward $483 $-1 #
edge $-1 $495 -62.752269049151906 $351 -53.255816874455917 $347 $496 forward 7 unknown #
edge $-1 $352 39.345535282647504 $495 55.125221214603911 $219 $497 forward 7 unknown #
coedge $-1 $220 $487 $493 $498 forward $340 $-1 #
vertex $-1 $348 $499 #
vertex $-1 $221 $500 #
straight-curve $-1 -13.033796334492767 26.703373863375777 9.8865209280923523 0 -1 0 I I #
coedge $-1 $354 $354 $-1 $501 reversed $224 $-1 #
edge $-1 $502 0 $502 6.2831853071796004 $225 $503 forward 7 unknown #
vertex $-1 $228 $504 #
ellipse-curve $-1 -9.3098545246376929 21.261501891272403 5.1382948407443552 0 0.6018150307709319 0.79863550430605224 1 0 0 1 I I #
coedge $-1 $358 $358 $-1 $505 reversed $231 $-1 #
edge $-1 $506 0 $506 6.2831853071796004 $232 $507 forward 7 unknown #
vertex $-1 $235 $508 #
ellipse-curve $-1 -3.7239418098550772 21.261501891272403 5.1382948407443552 0 0.6018150307709319 0.79863550430605224 1 0 0 1 I I #
face $-1 $-1 $509 $50 $-1 $510 reversed single #
loop $-1 $-1 $242 $236 #
plane-surface $-1 0 0 9.8865209280923505 0 0 1 1 0 0 forward_v I I I I #
coedge $-1 $511 $512 $513 $514 reversed $237 $-1 #
coedge $-1 $515 $239 $241 $372 forward $149 $-1 #
coedge $-1 $239 $515 $511 $516 forward $149 $-1 #
coedge $-1 $513 $242 $239 $369 forward $363 $-1 #
edge $-1 $375 4.7368143751566087 $517 17.770610709649379 $368 $518 forward 7 unknown #
coedge $-1 $519 $520 $240 $371 forward $509 $-1 #
edge $-1 $521 -62.752269049151906 $374 -53.255816874455917 $370 $522 forward 7 unknown #
edge $-1 $375 39.345535282647504 $521 55.125221214603911 $241 $523 forward 7 unknown #
coedge $-1 $242 $513 $519 $524 forward $363 $-1 #
vertex $-1 $243 $525 #
vertex $-1 $243 $526 #
straight-curve $-1 15.990526917559603 26.703373863375777 9.8865209280923523 0 -1 0 I I #
coedge $-1 $377 $377 $-1 $527 reversed $246 $-1 #
edge $-1 $528 0 $528 6.2831853071796004 $247 $529 forward 7 unknown #
vertex $-1 $250 $530 #
ellipse-curve $-1 19.714468727414669 21.261501891272403 5.1382948407443552 0 0.6018150307709319 0.79863550430605224 1 0 0 1 I I #
coedge $-1 $381 $381 $-1 $531 reversed $253 $-1 #
edge $-1 $532 0 $532 6.2831853071796004 $254 $533 forward 7 unknown #
vertex $-1 $257 $534 #
ellipse-curve $-1 25.300381442197292 21.261501891272403 5.1382948407443552 0 0.6018150307709319 0.79863550430605224 1 0 0 1 I I #
face $-1 $-1 $535 $53 $-1 $536 reversed single #
loop $-1 $-1 $537 $258 #
plane-surface $-1 58.048646504104738 0 0 -1 0 0 0 0 1 forward_v I I I I #
coedge $-1 $538 $261 $263 $394 forward $163 $-1 #
coedge $-1 $261 $538 $537 $539 reversed $163 $-1 #
coedge $-1 $540 $264 $261 $391 forward $259 $-1 #
edge $-1 $397 19.248976001182797 $541 32.28277233567556 $390 $542 forward 7 unknown #
coedge $-1 $543 $544 $262 $393 forward $535 $-1 #
edge $-1 $545 -62.752269049151906 $396 -53.255816874455917 $392 $546 forward 7 unknown #
edge $-1 $397 39.345535282647504 $545 55.125221214603911 $263 $547 forward 7 unknown #
coedge $-1 $264 $540 $543 $548 forward $259 $-1 #
vertex $-1 $393 $549 #
vertex $-1 $265 $550 #
straight-curve $-1 45.014850169611975 26.703373863375777 9.8865209280923523 0 -1 0 I I #
coedge $-1 $399 $399 $-1 $551 reversed $268 $-1 #
edge $-1 $552 0 $552 6.2831853071796004 $269 $553 forward 7 unknown #
vertex $-1 $272 $554 #
ellipse-curve $-1 48.738791979467038 21.261501891272403 5.1382948407443552 0 0.6018150307709319 0.79863550430605224 1 0 0 1 I I #
coedge $-1 $403 $403 $-1 $555 reversed $275 $-1 #
edge $-1 $556 0 $556 6.2831853071796004 $276 $557 forward 7 unknown #
vertex $-1 $279 $558 #
ellipse-curve $-1 54.324704694249661 21.261501891272403 5.1382948407443552 0 0.6018150307709319 0.79863550430605224 1 0 0 1 I I #
face $-1 $-1 $295 $42 $-1 $559 reversed single #
loop $-1 $-1 $423 $280 #
plane-surface $-1 0 27.562610607301956 0 0 -1 0 0 0 -1 forward_v I I I I #
coedge $-1 $560 $421 $424 $561 forward $281 $-1 #
coedge $-1 $427 $283 $284 $415 reversed $177 $-1 #
coedge $-1 $421 $560 $283 $413 reversed $281 $-1 #
edge $-1 $428 -9.8865209280923505 $562 9.8865209280923505 $412 $563 forward 7 unknown #
coedge $-1 $285 $284 $560 $564 forward $113 $-1 #
edge $-1 $419 -58.048646504104738 $562 58.048646504104738 $411 $565 forward 7 unknown #
coedge $-1 $424 $423 $285 $417 reversed $408 $-1 #
edge $-1 $566 -58.048646504104738 $418 58.048646504104738 $416 $567 forward 7 unknown #
vertex $-1 $287 $568 #
vertex $-1 $430 $569 #
straight-curve $-1 58.048646504104738 0 -9.8865209280923505 0 -1 0 I I #
coedge $-1 $410 $412 $288 $422 reversed $281 $-1 #
edge $-1 $425 -27.562610607301956 $428 27.562610607301956 $421 $570 forward 7 unknown #
coedge $-1 $416 $289 $294 $431 forward $408 $-1 #
coedge $-1 $289 $416 $410 $561 reversed $408 $-1 #
vertex $-1 $290 $571 #
straight-curve $-1 0 27.562610607301956 9.8865209280923505 -1 0 0 I I #
coedge $-1 $291 $411 $293 $430 reversed $177 $-1 #
vertex $-1 $422 $572 #
straight-curve $-1 0 -27.562610607301956 9.8865209280923505 1 0 0 I I #
edge $-1 $296 -9.8865209280923505 $419 9.8865209280923505 $293 $573 forward 7 unknown #
edge $-1 $297 -9.8865209280923505 $418 9.8865209280923505 $294 $574 forward 7 unknown #
point $-1 58.048646504104738 -27.562610607301956 9.8865209280923505 #
point $-1 58.048646504104738 27.562610607301956 9.8865209280923505 #
face $-1 $-1 $444 $43 $-1 $575 reversed single #
loop $-1 $-1 $440 $299 #
plane-surface $-1 0 0 -9.8865209280923505 0 0 1 1 0 0 forward_v I I I I #
coedge $-1 $576 $577 $307 $448 forward $300 $-1 #
coedge $-1 $302 $452 $442 $578 forward $185 $-1 #
edge $-1 $446 -15.827033977811968 $312 -7.6441192811680061 $302 $579 forward 7 unknown #
coedge $-1 $580 $308 $303 $441 forward $435 $-1 #
edge $-1 $313 7.6441192811680061 $445 15.827033977811968 $440 $581 forward 7 unknown #
coedge $-1 $582 $305 $438 $578 reversed $444 $-1 #
coedge $-1 $305 $582 $580 $583 reversed $444 $-1 #
loop $-1 $-1 $305 $434 #
vertex $-1 $583 $584 #
vertex $-1 $306 $585 #
straight-curve $-1 -54.909351004106881 -27.562610607301956 0 0 0 1 I I #
edge $-1 $453 -9.8865209280923505 $450 9.8865209280923505 $437 $586 forward 7 unknown #
coedge $-1 $308 $580 $576 $587 forward $435 $-1 #
vertex $-1 $309 $588 #
straight-curve $-1 -28.239499377052905 -19.379695910657993 -9.8865209280923505 1 0 0 I I #
coedge $-1 $438 $310 $577 $589 forward $185 $-1 #
vertex $-1 $589 $590 #
straight-curve $-1 -28.239499377052905 -19.379695910657993 9.8865209280923505 -1 0 0 I I #
point $-1 -54.909351004106881 -19.379695910657993 9.8865209280923505 #
point $-1 -54.909351004106881 -19.379695910657993 -9.8865209280923505 #
plane-surface $-1 0 0 9.8865209280923505 0 0 1 1 0 0 forward_v I I I I #
coedge $-1 $468 $467 $460 $591 forward $316 $-1 #
coedge $-1 $460 $318 $320 $464 reversed $193 $-1 #
coedge $-1 $318 $459 $458 $591 reversed $193 $-1 #
coedge $-1 $326 $321 $318 $462 forward $327 $-1 #
edge $-1 $465 -11.742980688132942 $592 0.85923674392617855 $461 $593 forward 7 unknown #
coedge $-1 $320 $319 $468 $594 reversed $121 $-1 #
edge $-1 $595 -55.125221214603911 $465 -39.345535282647504 $459 $596 forward 7 unknown #
vertex $-1 $322 $597 #
straight-curve $-1 -17.770610709649375 14.960393175242842 9.8865209280923505 1 0 0 I I #
coedge $-1 $458 $323 $326 $472 reversed $316 $-1 #
coedge $-1 $323 $458 $463 $594 forward $316 $-1 #
vertex $-1 $324 $598 #
straight-curve $-1 -42.058119586545132 27.562610607301956 63.142337802548269 0 0 1 I I #
straight-curve $-1 -42.058119586545132 -16.462348237405926 33.565255454917647 0 0.79863550430605224 -0.6018150307709319 I I #
edge $-1 $592 29.024323252052366 $328 42.058119586545132 $467 $599 forward 7 unknown #
point $-1 -42.058119586545132 27.562610607301956 9.8865209280923505 #
point $-1 -42.058119586545132 14.960393175242835 9.8865209280923523 #
edge $-1 $600 1 $600 0 $331 $-1 forward 7 unknown #
vertex $-1 $332 $601 #
ellipse-curve $-1 -38.334177776690062 19.011826318620965 2.1528745809879126 0 0.6018150307709319 0.79863550430605224 1 0 0 1 I I #
point $-1 -37.334177776690062 21.261501891272413 5.1382948407443667 #
edge $-1 $602 1 $602 0 $335 $-1 forward 7 unknown #
vertex $-1 $336 $603 #
ellipse-curve $-1 -32.748265061907446 19.011826318620965 2.1528745809879126 0 0.6018150307709319 0.79863550430605224 1 0 0 1 I I #
point $-1 -31.748265061907446 21.261501891272413 5.1382948407443667 #
loop $-1 $-1 $347 $339 #
plane-surface $-1 0 27.562610607301956 0 0 -1 0 0 0 -1 forward_v I I I I #
coedge $-1 $486 $342 $344 $490 reversed $215 $-1 #
coedge $-1 $342 $485 $604 $605 reversed $215 $-1 #
coedge $-1 $350 $345 $342 $488 forward $340 $-1 #
edge $-1 $491 -11.742980688132942 $606 0.85923674392617855 $487 $607 forward 7 unknown #
coedge $-1 $344 $343 $494 $608 reversed $135 $-1 #
edge $-1 $609 -55.125221214603911 $491 -39.345535282647504 $485 $610 forward 7 unknown #
vertex $-1 $346 $611 #
straight-curve $-1 -3.2584490836231907 14.960393175242842 9.8865209280923505 1 0 0 I I #
coedge $-1 $604 $347 $350 $498 reversed $483 $-1 #
coedge $-1 $347 $604 $489 $608 forward $483 $-1 #
vertex $-1 $348 $612 #
straight-curve $-1 -13.033796334492767 27.562610607301956 63.142337802548269 0 0 1 I I #
straight-curve $-1 -13.033796334492767 -16.462348237405926 33.565255454917647 0 0.79863550430605224 -0.6018150307709319 I I #
edge $-1 $606 -3.5527136788005009e-015 $351 13.033796334492767 $493 $613 forward 7 unknown #
point $-1 -13.033796334492767 27.562610607301956 9.8865209280923505 #
point $-1 -13.033796334492767 14.960393175242835 9.8865209280923523 #
edge $-1 $614 1 $614 0 $354 $-1 forward 7 unknown #
vertex $-1 $355 $615 #
ellipse-curve $-1 -9.3098545246376929 19.011826318620965 2.1528745809879126 0 0.6018150307709319 0.79863550430605224 1 0 0 1 I I #
point $-1 -8.3098545246376929 21.261501891272413 5.1382948407443667 #
edge $-1 $616 1 $616 0 $358 $-1 forward 7 unknown #
vertex $-1 $359 $617 #
ellipse-curve $-1 -3.7239418098550772 19.011826318620965 2.1528745809879126 0 0.6018150307709319 0.79863550430605224 1 0 0 1 I I #
point $-1 -2.7239418098550772 21.261501891272413 5.1382948407443667 #
loop $-1 $-1 $370 $362 #
plane-surface $-1 0 27.562610607301956 0 0 -1 0 0 0 -1 forward_v I I I I #
coedge $-1 $512 $365 $367 $516 reversed $237 $-1 #
coedge $-1 $365 $511 $618 $619 reversed $237 $-1 #
coedge $-1 $373 $368 $365 $514 forward $363 $-1 #
edge $-1 $517 -11.742980688132942 $620 0.85923674392617855 $513 $621 forward 7 unknown #
coedge $-1 $367 $366 $520 $622 reversed $149 $-1 #
edge $-1 $623 -55.125221214603911 $517 -39.345535282647504 $511 $624 forward 7 unknown #
vertex $-1 $369 $625 #
straight-curve $-1 11.253712542402994 14.960393175242842 9.8865209280923505 1 0 0 I I #
coedge $-1 $618 $370 $373 $524 reversed $509 $-1 #
coedge $-1 $370 $618 $515 $622 forward $509 $-1 #
vertex $-1 $371 $626 #
straight-curve $-1 15.990526917559603 27.562610607301956 63.142337802548269 0 0 1 I I #
straight-curve $-1 15.990526917559603 -16.462348237405926 33.565255454917647 0 0.79863550430605224 -0.6018150307709319 I I #
edge $-1 $620 -29.024323252052373 $374 -15.990526917559603 $519 $627 forward 7 unknown #
point $-1 15.990526917559603 27.562610607301956 9.8865209280923505 #
point $-1 15.990526917559603 14.960393175242835 9.8865209280923523 #
edge $-1 $628 1 $628 0 $377 $-1 forward 7 unknown #
vertex $-1 $378 $629 #
ellipse-curve $-1 19.714468727414669 19.011826318620965 2.1528745809879126 0 0.6018150307709319 0.79863550430605224 1 0 0 1 I I #
point $-1 20.714468727414669 21.261501891272413 5.1382948407443667 #
edge $-1 $630 1 $630 0 $381 $-1 forward 7 unknown #
vertex $-1 $382 $631 #
ellipse-curve $-1 25.300381442197292 19.011826318620965 2.1528745809879126 0 0.6018150307709319 0.79863550430605224 1 0 0 1 I I #
point $-1 26.300381442197292 21.261501891272413 5.1382948407443667 #
loop $-1 $-1 $392 $385 #
plane-surface $-1 0 27.562610607301956 0 0 -1 0 0 0 -1 forward_v I I I I #
coedge $-1 $632 $633 $389 $539 forward $386 $-1 #
coedge $-1 $389 $388 $544 $634 reversed $163 $-1 #
edge $-1 $541 22.671789767108518 $635 38.451475699064929 $537 $636 forward 7 unknown #
coedge $-1 $395 $390 $633 $637 forward $259 $-1 #
vertex $-1 $637 $638 #
straight-curve $-1 25.765874168429178 14.960393175242842 9.8865209280923505 1 0 0 I I #
coedge $-1 $639 $392 $395 $548 reversed $535 $-1 #
coedge $-1 $392 $639 $538 $634 forward $535 $-1 #
vertex $-1 $393 $640 #
straight-curve $-1 45.014850169611975 27.562610607301956 63.142337802548269 0 0 1 I I #
straight-curve $-1 45.014850169611975 -16.462348237405926 33.565255454917647 0 0.79863550430605224 -0.6018150307709319 I I #
edge $-1 $641 -58.048646504104738 $396 -45.014850169611975 $543 $642 forward 7 unknown #
point $-1 45.014850169611975 27.562610607301956 9.8865209280923505 #
point $-1 45.014850169611975 14.960393175242835 9.8865209280923523 #
edge $-1 $643 1 $643 0 $399 $-1 forward 7 unknown #
vertex $-1 $400 $644 #
ellipse-curve $-1 48.738791979467038 19.011826318620965 2.1528745809879126 0 0.6018150307709319 0.79863550430605224 1 0 0 1 I I #
point $-1 49.738791979467038 21.261501891272413 5.1382948407443667 #
edge $-1 $645 1 $645 0 $403 $-1 forward 7 unknown #
vertex $-1 $404 $646 #
ellipse-curve $-1 54.324704694249661 19.011826318620965 2.1528745809879126 0 0.6018150307709319 0.79863550430605224 1 0 0 1 I I #
point $-1 55.324704694249661 21.261501891272413 5.1382948407443667 #
plane-surface $-1 58.048646504104738 0 0 -1 0 0 0 0 1 forward_v I I I I #
coedge $-1 $412 $410 $414 $564 reversed $281 $-1 #
edge $-1 $425 -9.8865209280923505 $566 9.8865209280923505 $424 $647 forward 7 unknown #
vertex $-1 $564 $648 #
straight-curve $-1 -58.048646504104738 -27.562610607301956 0 0 0 -1 I I #
edge $-1 $562 -27.562610607301956 $566 27.562610607301956 $560 $649 forward 7 unknown #
straight-curve $-1 0 -27.562610607301956 -9.8865209280923505 -1 0 0 I I #
vertex $-1 $417 $650 #
straight-curve $-1 0 27.562610607301956 -9.8865209280923505 1 0 0 I I #
point $-1 58.048646504104738 27.562610607301956 -9.8865209280923505 #
point $-1 58.048646504104738 -27.562610607301956 -9.8865209280923505 #
straight-curve $-1 -58.048646504104738 0 9.8865209280923505 0 -1 0 I I #
point $-1 -58.048646504104738 27.562610607301956 9.8865209280923505 #
point $-1 -58.048646504104738 -27.562610607301956 9.8865209280923505 #
straight-curve $-1 58.048646504104738 -27.562610607301956 0 0 0 -1 I I #
straight-curve $-1 58.048646504104738 27.562610607301956 0 0 0 -1 I I #
plane-surface $-1 0 -27.562610607301956 0 0 1 0 0 0 1 forward_v I I I I #
coedge $-1 $651 $437 $449 $587 reversed $300 $-1 #
coedge $-1 $437 $651 $452 $589 reversed $300 $-1 #
edge $-1 $652 -58.048646504104738 $446 -54.909351004106881 $442 $653 forward 7 unknown #
straight-curve $-1 -54.909351004106881 -11.735576629489987 9.8865209280923505 0 1 0 I I #
coedge $-1 $449 $440 $443 $583 forward $435 $-1 #
straight-curve $-1 -54.909351004106881 -11.735576629489987 -9.8865209280923505 0 -1 0 I I #
coedge $-1 $443 $442 $651 $654 forward $444 $-1 #
edge $-1 $445 54.909351004106881 $655 58.048646504104738 $443 $656 forward 7 unknown #
point $-1 -54.909351004106881 -27.562610607301956 -9.8865209280923505 #
point $-1 -54.909351004106881 -27.562610607301956 9.8865209280923505 #
straight-curve $-1 -58.048646504104738 -19.379695910657993 0 0 0 -1 I I #
edge $-1 $655 -27.562610607301956 $450 -19.379695910657993 $576 $657 forward 7 unknown #
point $-1 -58.048646504104738 -19.379695910657993 -9.8865209280923505 #
edge $-1 $453 19.379695910657993 $652 27.562610607301956 $577 $658 forward 7 unknown #
point $-1 -58.048646504104738 -19.379695910657993 9.8865209280923505 #
edge $-1 $592 53.255816874455917 $595 62.752269049151906 $458 $659 forward 7 unknown #
vertex $-1 $472 $660 #
straight-curve $-1 -29.024323252052366 26.703373863375777 9.8865209280923523 0 1 0 I I #
edge $-1 $595 11.25371254240299 $469 24.287508876895757 $468 $661 forward 7 unknown #
vertex $-1 $594 $662 #
straight-curve $-1 -29.024323252052366 -16.462348237405926 33.565255454917647 0 -0.79863550430605224 0.6018150307709319 I I #
point $-1 -29.024323252052366 14.960393175242835 9.8865209280923523 #
point $-1 -42.058119586545132 27.562610607301956 0.39006875339636338 #
straight-curve $-1 0 27.562610607301956 9.8865209280923505 -1 0 0 I I #
vertex $-1 $475 $663 #
point $-1 -37.334177776690062 19.011826318620965 2.1528745809879126 #
vertex $-1 $479 $664 #
point $-1 -31.748265061907446 19.011826318620965 2.1528745809879126 #
coedge $-1 $494 $493 $486 $605 forward $483 $-1 #
edge $-1 $606 53.255816874455917 $609 62.752269049151906 $604 $665 forward 7 unknown #
vertex $-1 $498 $666 #
straight-curve $-1 3.5527136788005009e-015 26.703373863375777 9.8865209280923523 0 1 0 I I #
edge $-1 $609 -3.2584490836231943 $495 9.7753472508695758 $494 $667 forward 7 unknown #
vertex $-1 $608 $668 #
straight-curve $-1 3.5527136788005009e-015 -16.462348237405926 33.565255454917647 0 -0.79863550430605224 0.6018150307709319 I I #
point $-1 3.5527136788005009e-015 14.960393175242835 9.8865209280923523 #
point $-1 -13.033796334492767 27.562610607301956 0.39006875339636338 #
straight-curve $-1 0 27.562610607301956 9.8865209280923505 -1 0 0 I I #
vertex $-1 $501 $669 #
point $-1 -8.3098545246376929 19.011826318620965 2.1528745809879126 #
vertex $-1 $505 $670 #
point $-1 -2.7239418098550772 19.011826318620965 2.1528745809879126 #
coedge $-1 $520 $519 $512 $619 forward $509 $-1 #
edge $-1 $620 53.255816874455917 $623 62.752269049151906 $618 $671 forward 7 unknown #
vertex $-1 $524 $672 #
straight-curve $-1 29.024323252052373 26.703373863375777 9.8865209280923523 0 1 0 I I #
edge $-1 $623 -17.770610709649379 $521 -4.7368143751566087 $520 $673 forward 7 unknown #
vertex $-1 $622 $674 #
straight-curve $-1 29.024323252052373 -16.462348237405926 33.565255454917647 0 -0.79863550430605224 0.6018150307709319 I I #
point $-1 29.024323252052373 14.960393175242835 9.8865209280923523 #
point $-1 15.990526917559603 27.562610607301956 0.39006875339636338 #
straight-curve $-1 0 27.562610607301956 9.8865209280923505 -1 0 0 I I #
vertex $-1 $527 $675 #
point $-1 20.714468727414669 19.011826318620965 2.1528745809879126 #
vertex $-1 $531 $676 #
point $-1 26.300381442197292 19.011826318620965 2.1528745809879126 #
coedge $-1 $633 $537 $639 $677 reversed $386 $-1 #
coedge $-1 $537 $632 $540 $637 reversed $386 $-1 #
edge $-1 $635 -32.28277233567556 $545 -19.248976001182797 $544 $678 forward 7 unknown #
vertex $-1 $539 $679 #
straight-curve $-1 58.048646504104738 -3.1461030789326667 23.530744784416861 0 0.79863550430605224 -0.6018150307709319 I I #
edge $-1 $541 14.960393175242835 $641 27.562610607301956 $633 $680 forward 7 unknown #
point $-1 58.048646504104738 14.960393175242835 9.8865209280923523 #
coedge $-1 $544 $543 $632 $677 forward $535 $-1 #
point $-1 45.014850169611975 27.562610607301956 0.39006875339636338 #
vertex $-1 $637 $681 #
straight-curve $-1 0 27.562610607301956 9.8865209280923505 -1 0 0 I I #
vertex $-1 $551 $682 #
point $-1 49.738791979467038 19.011826318620965 2.1528745809879126 #
vertex $-1 $555 $683 #
point $-1 55.324704694249661 19.011826318620965 2.1528745809879126 #
straight-curve $-1 -58.048646504104738 27.562610607301956 0 0 0 -1 I I #
point $-1 -58.048646504104738 -27.562610607301956 -9.8865209280923505 #
straight-curve $-1 -58.048646504104738 0 -9.8865209280923505 0 1 0 I I #
point $-1 -58.048646504104738 27.562610607301956 -9.8865209280923505 #
coedge $-1 $577 $576 $582 $654 reversed $300 $-1 #
vertex $-1 $589 $684 #
straight-curve $-1 0 -27.562610607301956 9.8865209280923505 1 0 0 I I #
edge $-1 $652 -9.8865209280923505 $655 9.8865209280923505 $651 $685 forward 7 unknown #
vertex $-1 $587 $686 #
straight-curve $-1 0 -27.562610607301956 -9.8865209280923505 -1 0 0 I I #
straight-curve $-1 -58.048646504104738 0 -9.8865209280923505 0 1 0 I I #
straight-curve $-1 -58.048646504104738 0 9.8865209280923505 0 -1 0 I I #
straight-curve $-1 -29.024323252052366 27.562610607301956 63.142337802548269 0 0 -1 I I #
point $-1 -29.024323252052366 27.562610607301956 9.8865209280923505 #
straight-curve $-1 -17.770610709649375 27.562610607301956 0.39006875339637048 -1 0 0 I I #
point $-1 -29.024323252052366 27.562610607301956 0.39006875339636338 #
point $-1 -38.334177776690062 18.410011287850036 1.3542390766818606 #
point $-1 -32.748265061907446 18.410011287850036 1.3542390766818606 #
straight-curve $-1 3.5527136788005009e-015 27.562610607301956 63.142337802548269 0 0 -1 I I #
point $-1 3.5527136788005009e-015 27.562610607301956 9.8865209280923505 #
straight-curve $-1 -3.2584490836231907 27.562610607301956 0.39006875339637048 -1 0 0 I I #
point $-1 3.5527136788005009e-015 27.562610607301956 0.39006875339636338 #
point $-1 -9.3098545246376929 18.410011287850036 1.3542390766818606 #
point $-1 -3.7239418098550772 18.410011287850036 1.3542390766818606 #
straight-curve $-1 29.024323252052373 27.562610607301956 63.142337802548269 0 0 -1 I I #
point $-1 29.024323252052373 27.562610607301956 9.8865209280923505 #
straight-curve $-1 11.253712542402994 27.562610607301956 0.39006875339637048 -1 0 0 I I #
point $-1 29.024323252052373 27.562610607301956 0.39006875339636338 #
point $-1 19.714468727414669 18.410011287850036 1.3542390766818606 #
point $-1 25.300381442197292 18.410011287850036 1.3542390766818606 #
edge $-1 $641 -9.8865209280923505 $635 -0.39006875339636338 $632 $687 forward 7 unknown #
straight-curve $-1 25.765874168429178 27.562610607301956 0.39006875339637048 -1 0 0 I I #
point $-1 58.048646504104738 27.562610607301956 0.39006875339636338 #
straight-curve $-1 58.048646504104738 0 9.8865209280923505 0 1 0 I I #
point $-1 58.048646504104738 27.562610607301956 9.8865209280923505 #
point $-1 48.738791979467038 18.410011287850036 1.3542390766818606 #
point $-1 54.324704694249661 18.410011287850036 1.3542390766818606 #
point $-1 -58.048646504104738 -27.562610607301956 9.8865209280923505 #
straight-curve $-1 -58.048646504104738 -27.562610607301956 0 0 0 -1 I I #
point $-1 -58.048646504104738 -27.562610607301956 -9.8865209280923505 #
straight-curve $-1 58.048646504104738 27.562610607301956 0 0 0 -1 I I #
End-of-ACIS-data 