500 0 6 0           
7 Unknown 11 ACIS 5.0 NT 24 Fri Mar 26 17:35:45 1999 
-1 9.9999999999999995e-007 1e-010 
body $-1 $6 $-1 $7 #
body $-1 $8 $-1 $9 #
body $-1 $10 $-1 $11 #
body $-1 $12 $-1 $13 #
body $-1 $14 $-1 $15 #
body $-1 $16 $-1 $17 #
lump $-1 $-1 $18 $0 #
transform $-1 1 0 0 0 1 0 0 0 1 68.872951445051427 29.802837566435262 8.2299562279088558 1 rotate no_reflect no_shear #
lump $-1 $-1 $19 $1 #
transform $-1 1 0 0 0 1 0 0 0 1 68.872951445051427 29.802837566435262 8.2299562279088558 1 rotate no_reflect no_shear #
lump $-1 $-1 $20 $2 #
transform $-1 1 0 0 0 1 0 0 0 1 68.872951445051427 29.802837566435262 8.2299562279088558 1 rotate no_reflect no_shear #
lump $-1 $-1 $21 $3 #
transform $-1 1 0 0 0 1 0 0 0 1 68.872951445051427 29.802837566435262 8.2299562279088558 1 rotate no_reflect no_shear #
lump $-1 $-1 $22 $4 #
transform $-1 1 0 0 0 1 0 0 0 1 68.872951445051427 29.802837566435262 8.2299562279088558 1 rotate no_reflect no_shear #
lump $-1 $-1 $23 $5 #
transform $-1 1 0 0 0 1 0 0 0 1 68.872951445051427 29.802837566435262 8.2299562279088558 1 rotate no_reflect no_shear #
shell $-1 $-1 $-1 $24 $-1 $6 #
shell $-1 $-1 $-1 $25 $-1 $8 #
shell $-1 $-1 $-1 $26 $-1 $10 #
shell $-1 $-1 $-1 $27 $-1 $12 #
shell $-1 $-1 $-1 $28 $-1 $14 #
shell $-1 $-1 $-1 $29 $-1 $16 #
face $-1 $30 $31 $18 $-1 $32 forward single #
face $-1 $33 $34 $19 $-1 $35 reversed single #
face $-1 $36 $37 $20 $-1 $38 reversed single #
face $-1 $39 $40 $21 $-1 $41 reversed single #
face $-1 $42 $43 $22 $-1 $44 forward single #
face $-1 $45 $46 $23 $-1 $47 forward single #
face $-1 $48 $49 $18 $-1 $50 reversed single #
loop $-1 $-1 $51 $24 #
plane-surface $-1 0 0 8.2299562279088558 0 0 1 1 0 0 forward_v I I I I #
face $-1 $52 $53 $19 $-1 $54 reversed single #
loop $-1 $-1 $55 $25 #
plane-surface $-1 -64.941975028933356 -17.511527164958906 0 0 1 0 0 0 1 forward_v I I I I #
face $-1 $56 $57 $20 $-1 $58 reversed single #
loop $-1 $-1 $59 $26 #
plane-surface $-1 64.941975028933342 -17.511527164958906 0 0 1 0 0 0 1 forward_v I I I I #
face $-1 $60 $61 $21 $-1 $62 reversed single #
loop $-1 $-1 $63 $27 #
plane-surface $-1 -29.811572621500837 -104.82463417671003 115.54561982582136 -1 0 0 0 -0.54463904215088732 0.83867056331134215 forward_v I I I I #
face $-1 $64 $65 $22 $-1 $66 forward single #
loop $-1 $67 $68 $28 #
cone-surface $-1 -44.243661315855867 -21.875633120673474 1.6503138493656442 0 0.54463904215088732 -0.83867056331134215 1.5 0 0 1 I I 0 1 1.5 forward I I I I #
face $-1 $69 $70 $23 $-1 $71 forward single #
loop $-1 $72 $73 $29 #
cone-surface $-1 -35.58440809924285 -21.875633120673474 1.6503138493656442 0 0.54463904215088732 -0.83867056331134215 1.5 0 0 1 I I 0 1 1.5 forward I I I I #
face $-1 $74 $75 $18 $-1 $76 reversed single #
loop $-1 $-1 $77 $30 #
plane-surface $-1 0 0 -8.2299562279088558 0 0 1 1 0 0 forward_v I I I I #
coedge $-1 $78 $79 $80 $81 forward $31 $-1 #
face $-1 $82 $83 $19 $-1 $84 reversed single #
loop $-1 $-1 $85 $33 #
plane-surface $-1 -64.941975028933356 -13.34292511061755 0 0 -1 0 0 0 -1 forward_v I I I I #
coedge $-1 $86 $87 $88 $89 reversed $34 $-1 #
face $-1 $90 $91 $20 $-1 $92 reversed single #
loop $-1 $-1 $93 $36 #
plane-surface $-1 61.010998612815271 -15.427226137788228 0 1 0 0 0 0 -1 forward_v I I I I #
coedge $-1 $94 $95 $96 $97 forward $37 $-1 #
face $-1 $98 $99 $21 $-1 $100 reversed single #
loop $-1 $-1 $101 $39 #
plane-surface $-1 -39.914034707549355 -29.802837566435272 0.022185855149373879 0 -0.54463904215088732 0.83867056331134215 1 0 0 forward_v I I I I #
coedge $-1 $102 $103 $104 $105 reversed $40 $-1 #
face $-1 $-1 $106 $22 $-1 $107 forward single #
loop $-1 $108 $109 $42 #
cone-surface $-1 -44.243661315855867 -19.85937828960715 -1.4544462652813301 0 0.54463904215088732 -0.83867056331134215 0.75 0 0 1 I I -0.70710678118654757 0.70710678118654757 0.75 forward I I I I #
loop $-1 $-1 $110 $28 #
coedge $-1 $68 $68 $111 $112 reversed $43 $-1 #
face $-1 $-1 $113 $23 $-1 $114 forward single #
loop $-1 $115 $116 $45 #
cone-surface $-1 -35.58440809924285 -19.85937828960715 -1.4544462652813301 0 0.54463904215088732 -0.83867056331134215 0.75 0 0 1 I I -0.70710678118654757 0.70710678118654757 0.75 forward I I I I #
loop $-1 $-1 $117 $29 #
coedge $-1 $73 $73 $118 $119 reversed $46 $-1 #
face $-1 $120 $121 $18 $-1 $122 reversed single #
loop $-1 $-1 $123 $48 #
plane-surface $-1 0 -29.802837566435262 0 0 1 0 0 0 1 forward_v I I I I #
coedge $-1 $124 $125 $126 $127 forward $49 $-1 #
coedge $-1 $128 $51 $129 $130 forward $31 $-1 #
coedge $-1 $51 $128 $131 $132 forward $31 $-1 #
coedge $-1 $133 $134 $51 $81 reversed $135 $-1 #
edge $-1 $136 -29.802837566435262 $137 29.802837566435262 $80 $138 forward 7 unknown #
face $-1 $139 $140 $19 $-1 $141 reversed single #
loop $-1 $-1 $142 $52 #
plane-surface $-1 -61.010998612815278 -15.427226137788228 0 -1 0 0 0 0 1 forward_v I I I I #
coedge $-1 $143 $144 $145 $146 forward $53 $-1 #
coedge $-1 $147 $55 $148 $149 reversed $34 $-1 #
coedge $-1 $55 $147 $150 $151 reversed $34 $-1 #
coedge $-1 $152 $153 $55 $89 forward $154 $-1 #
edge $-1 $155 -8.2299562279088558 $156 8.2299562279088558 $88 $157 forward 7 unknown #
face $-1 $158 $159 $20 $-1 $160 reversed single #
loop $-1 $-1 $161 $56 #
plane-surface $-1 64.941975028933342 -13.34292511061755 0 0 -1 0 0 0 -1 forward_v I I I I #
coedge $-1 $162 $163 $164 $165 forward $57 $-1 #
coedge $-1 $166 $59 $167 $168 reversed $37 $-1 #
coedge $-1 $59 $166 $169 $170 reversed $37 $-1 #
coedge $-1 $163 $162 $59 $97 reversed $57 $-1 #
edge $-1 $171 -8.2299562279088558 $172 8.2299562279088558 $96 $173 forward 7 unknown #
face $-1 $174 $175 $21 $-1 $176 forward single #
loop $-1 $-1 $177 $60 #
plane-surface $-1 -50.016496793597874 -104.82463417671003 115.54561982582136 1 0 0 0 0.54463904215088732 -0.83867056331134215 forward_v I I I I #
coedge $-1 $178 $179 $180 $181 reversed $61 $-1 #
coedge $-1 $103 $63 $182 $183 reversed $40 $-1 #
coedge $-1 $63 $102 $178 $184 reversed $40 $-1 #
coedge $-1 $180 $185 $63 $105 forward $175 $-1 #
edge $-1 $186 22.609479521919756 $187 35.248337314536997 $104 $188 forward 7 unknown #
loop $-1 $-1 $111 $64 #
plane-surface $-1 -39.914034707549355 -29.802837566435272 0.022185855149373879 0 -0.54463904215088732 0.83867056331134215 1 0 0 forward_v I I I I #
loop $-1 $-1 $189 $42 #
coedge $-1 $109 $109 $110 $190 reversed $65 $-1 #
coedge $-1 $110 $110 $109 $190 forward $67 $-1 #
coedge $-1 $111 $111 $68 $112 forward $106 $-1 #
edge $-1 $191 7.4783088461426891e-016 $191 6.2831853071796013 $111 $192 forward 7 unknown #
loop $-1 $-1 $118 $69 #
plane-surface $-1 -39.914034707549355 -29.802837566435272 0.022185855149373879 0 -0.54463904215088732 0.83867056331134215 1 0 0 forward_v I I I I #
loop $-1 $-1 $193 $45 #
coedge $-1 $116 $116 $117 $194 reversed $70 $-1 #
coedge $-1 $117 $117 $116 $194 forward $72 $-1 #
coedge $-1 $118 $118 $73 $119 forward $113 $-1 #
edge $-1 $195 7.4783088461426891e-016 $195 6.2831853071796013 $118 $196 forward 7 unknown #
face $-1 $197 $198 $18 $-1 $199 reversed single #
loop $-1 $-1 $200 $74 #
plane-surface $-1 -68.872951445051427 0 0 1 0 0 0 0 -1 forward_v I I I I #
coedge $-1 $201 $131 $202 $203 forward $75 $-1 #
coedge $-1 $204 $77 $201 $205 forward $49 $-1 #
coedge $-1 $77 $204 $206 $207 forward $49 $-1 #
coedge $-1 $134 $133 $77 $127 reversed $135 $-1 #
edge $-1 $208 -29.802837566435262 $209 29.802837566435262 $126 $210 forward 7 unknown #
coedge $-1 $79 $78 $211 $212 forward $31 $-1 #
coedge $-1 $213 $214 $78 $130 reversed $198 $-1 #
edge $-1 $137 -68.872951445051427 $215 68.872951445051427 $129 $216 forward 7 unknown #
coedge $-1 $123 $217 $79 $132 reversed $75 $-1 #
edge $-1 $218 -68.872951445051427 $136 68.872951445051427 $131 $219 forward 7 unknown #
coedge $-1 $126 $80 $217 $220 forward $135 $-1 #
coedge $-1 $80 $126 $213 $221 reversed $135 $-1 #
loop $-1 $-1 $133 $197 #
vertex $-1 $81 $222 #
vertex $-1 $81 $223 #
straight-curve $-1 68.872951445051427 0 8.2299562279088558 0 1 0 I I #
face $-1 $224 $225 $19 $-1 $226 forward single #
loop $-1 $-1 $227 $82 #
plane-surface $-1 0 0 -8.2299562279088558 0 0 1 1 0 0 forward_v I I I I #
coedge $-1 $228 $229 $147 $230 forward $83 $-1 #
coedge $-1 $231 $85 $227 $232 reversed $53 $-1 #
coedge $-1 $85 $231 $233 $234 reversed $53 $-1 #
coedge $-1 $229 $228 $85 $146 reversed $83 $-1 #
edge $-1 $235 -8.2299562279088558 $236 8.2299562279088558 $145 $237 forward 7 unknown #
coedge $-1 $87 $86 $142 $230 reversed $34 $-1 #
coedge $-1 $238 $239 $86 $149 forward $140 $-1 #
edge $-1 $240 28.5400110983486 $155 36.401963930584749 $148 $241 forward 7 unknown #
coedge $-1 $242 $243 $87 $151 forward $225 $-1 #
edge $-1 $156 -36.401963930584749 $244 -28.5400110983486 $150 $245 forward 7 unknown #
coedge $-1 $246 $88 $243 $247 reversed $154 $-1 #
coedge $-1 $88 $246 $238 $248 reversed $154 $-1 #
loop $-1 $-1 $246 $224 #
vertex $-1 $248 $249 #
vertex $-1 $89 $250 #
straight-curve $-1 -68.872951445051427 -17.511527164958906 0 0 0 1 I I #
face $-1 $251 $252 $20 $-1 $253 forward single #
loop $-1 $-1 $167 $90 #
plane-surface $-1 0 0 -8.2299562279088558 0 0 1 1 0 0 forward_v I I I I #
coedge $-1 $254 $255 $256 $257 reversed $91 $-1 #
coedge $-1 $96 $93 $258 $259 reversed $57 $-1 #
coedge $-1 $93 $96 $260 $261 reversed $57 $-1 #
coedge $-1 $255 $254 $93 $165 reversed $91 $-1 #
edge $-1 $262 -8.2299562279088558 $263 8.2299562279088558 $164 $264 forward 7 unknown #
coedge $-1 $95 $94 $265 $266 reversed $37 $-1 #
coedge $-1 $258 $267 $94 $168 forward $159 $-1 #
edge $-1 $268 -36.401963930584742 $172 -28.5400110983486 $167 $269 forward 7 unknown #
coedge $-1 $270 $260 $95 $170 forward $252 $-1 #
edge $-1 $171 28.5400110983486 $271 36.401963930584742 $169 $272 forward 7 unknown #
vertex $-1 $170 $273 #
vertex $-1 $168 $274 #
straight-curve $-1 61.010998612815271 -17.511527164958906 0 0 0 -1 I I #
face $-1 $-1 $275 $21 $-1 $276 reversed single #
loop $-1 $-1 $104 $98 #
plane-surface $-1 0 0 8.2299562279088558 0 0 1 1 0 0 forward_v I I I I #
coedge $-1 $277 $278 $279 $280 reversed $99 $-1 #
coedge $-1 $281 $101 $103 $184 forward $61 $-1 #
coedge $-1 $101 $281 $277 $282 forward $61 $-1 #
coedge $-1 $279 $104 $101 $181 forward $175 $-1 #
edge $-1 $187 9.854555267726159 $283 30.059479439823196 $180 $284 forward 7 unknown #
coedge $-1 $285 $286 $102 $183 forward $275 $-1 #
edge $-1 $287 -57.7506240577613 $186 -49.542853685001823 $182 $288 forward 7 unknown #
edge $-1 $187 -15.070110178560416 $287 -1.2708413694937717e-014 $103 $289 forward 7 unknown #
coedge $-1 $104 $279 $285 $290 forward $175 $-1 #
vertex $-1 $105 $291 #
vertex $-1 $105 $292 #
straight-curve $-1 -29.811572621500837 -52.412317088355017 8.2299562279088576 0 1 0 I I #
coedge $-1 $189 $189 $-1 $293 reversed $108 $-1 #
edge $-1 $294 0 $294 6.2831853071796004 $109 $295 forward 7 unknown #
vertex $-1 $112 $296 #
ellipse-curve $-1 -44.243661315855867 -23.483408670126636 4.1260710415291211 0 -0.54463904215088732 0.83867056331134215 1.5 0 0 1 I I #
coedge $-1 $193 $193 $-1 $297 reversed $115 $-1 #
edge $-1 $298 0 $298 6.2831853071796004 $116 $299 forward 7 unknown #
vertex $-1 $119 $300 #
ellipse-curve $-1 -35.58440809924285 -23.483408670126636 4.1260710415291211 0 -0.54463904215088732 0.83867056331134215 1.5 0 0 1 I I #
face $-1 $-1 $135 $18 $-1 $301 reversed single #
loop $-1 $-1 $213 $120 #
plane-surface $-1 0 29.802837566435262 0 0 -1 0 0 0 -1 forward_v I I I I #
coedge $-1 $302 $211 $214 $303 forward $121 $-1 #
coedge $-1 $217 $123 $124 $205 reversed $75 $-1 #
coedge $-1 $211 $302 $123 $203 reversed $121 $-1 #
edge $-1 $218 -8.2299562279088558 $304 8.2299562279088558 $202 $305 forward 7 unknown #
coedge $-1 $125 $124 $302 $306 forward $49 $-1 #
edge $-1 $209 -68.872951445051427 $304 68.872951445051427 $201 $307 forward 7 unknown #
coedge $-1 $214 $213 $125 $207 reversed $198 $-1 #
edge $-1 $308 -68.872951445051427 $208 68.872951445051427 $206 $309 forward 7 unknown #
vertex $-1 $127 $310 #
vertex $-1 $220 $311 #
straight-curve $-1 68.872951445051427 0 -8.2299562279088558 0 -1 0 I I #
coedge $-1 $200 $202 $128 $212 reversed $121 $-1 #
edge $-1 $215 -29.802837566435262 $218 29.802837566435262 $211 $312 forward 7 unknown #
coedge $-1 $206 $129 $134 $221 forward $198 $-1 #
coedge $-1 $129 $206 $200 $303 reversed $198 $-1 #
vertex $-1 $130 $313 #
straight-curve $-1 0 29.802837566435262 8.2299562279088558 -1 0 0 I I #
coedge $-1 $131 $201 $133 $220 reversed $75 $-1 #
vertex $-1 $212 $314 #
straight-curve $-1 0 -29.802837566435262 8.2299562279088558 1 0 0 I I #
edge $-1 $136 -8.2299562279088558 $209 8.2299562279088558 $133 $315 forward 7 unknown #
edge $-1 $137 -8.2299562279088558 $208 8.2299562279088558 $134 $316 forward 7 unknown #
point $-1 68.872951445051427 -29.802837566435262 8.2299562279088558 #
point $-1 68.872951445051427 29.802837566435262 8.2299562279088558 #
face $-1 $-1 $154 $19 $-1 $317 reversed single #
loop $-1 $-1 $233 $139 #
plane-surface $-1 0 0 8.2299562279088558 0 0 1 1 0 0 forward_v I I I I #
coedge $-1 $239 $238 $143 $232 forward $140 $-1 #
coedge $-1 $145 $142 $239 $318 reversed $83 $-1 #
coedge $-1 $142 $145 $242 $319 reversed $83 $-1 #
edge $-1 $244 -8.2299562279088558 $240 8.2299562279088558 $142 $320 forward 7 unknown #
coedge $-1 $144 $143 $246 $321 reversed $53 $-1 #
edge $-1 $322 -36.401963930584749 $236 -28.5400110983486 $227 $323 forward 7 unknown #
coedge $-1 $243 $242 $144 $234 forward $225 $-1 #
edge $-1 $235 28.5400110983486 $324 36.401963930584749 $233 $325 forward 7 unknown #
vertex $-1 $234 $326 #
vertex $-1 $232 $327 #
straight-curve $-1 -61.010998612815278 -13.34292511061755 0 0 0 -1 I I #
coedge $-1 $227 $148 $153 $248 forward $140 $-1 #
coedge $-1 $148 $227 $228 $318 forward $140 $-1 #
vertex $-1 $149 $328 #
straight-curve $-1 -32.470987514466678 -17.511527164958906 -8.2299562279088558 -1 0 0 I I #
coedge $-1 $233 $150 $229 $319 forward $225 $-1 #
coedge $-1 $150 $233 $152 $247 forward $225 $-1 #
vertex $-1 $151 $329 #
straight-curve $-1 -32.470987514466678 -17.511527164958906 8.2299562279088558 1 0 0 I I #
coedge $-1 $153 $152 $231 $321 forward $154 $-1 #
edge $-1 $324 13.34292511061755 $156 17.511527164958906 $152 $330 forward 7 unknown #
edge $-1 $155 -17.511527164958906 $322 -13.34292511061755 $153 $331 forward 7 unknown #
point $-1 -68.872951445051427 -17.511527164958906 -8.2299562279088558 #
point $-1 -68.872951445051427 -17.511527164958906 8.2299562279088558 #
face $-1 $-1 $332 $20 $-1 $333 reversed single #
loop $-1 $-1 $169 $158 #
plane-surface $-1 0 0 8.2299562279088558 0 0 1 1 0 0 forward_v I I I I #
coedge $-1 $164 $161 $334 $335 reversed $91 $-1 #
coedge $-1 $161 $164 $336 $337 reversed $91 $-1 #
coedge $-1 $338 $339 $161 $257 forward $332 $-1 #
edge $-1 $340 -8.2299562279088558 $341 8.2299562279088558 $256 $342 forward 7 unknown #
coedge $-1 $334 $167 $162 $259 forward $159 $-1 #
edge $-1 $172 -9.7979140960647921 $263 -5.6293120417234359 $258 $343 forward 7 unknown #
coedge $-1 $169 $336 $163 $261 forward $252 $-1 #
edge $-1 $262 5.6293120417234359 $171 9.7979140960647921 $260 $344 forward 7 unknown #
vertex $-1 $261 $345 #
vertex $-1 $259 $346 #
straight-curve $-1 61.010998612815271 -13.34292511061755 0 0 0 -1 I I #
coedge $-1 $339 $338 $166 $266 forward $332 $-1 #
edge $-1 $271 -8.2299562279088558 $268 8.2299562279088558 $265 $347 forward 7 unknown #
coedge $-1 $167 $334 $339 $348 forward $159 $-1 #
vertex $-1 $266 $349 #
straight-curve $-1 32.470987514466671 -17.511527164958906 -8.2299562279088558 -1 0 0 I I #
coedge $-1 $336 $169 $338 $350 forward $252 $-1 #
vertex $-1 $350 $351 #
straight-curve $-1 32.470987514466671 -17.511527164958906 8.2299562279088558 1 0 0 I I #
point $-1 61.010998612815271 -17.511527164958906 8.2299562279088558 #
point $-1 61.010998612815271 -17.511527164958906 -8.2299562279088558 #
loop $-1 $-1 $182 $174 #
plane-surface $-1 0 -29.802837566435262 0 0 1 0 0 0 1 forward_v I I I I #
coedge $-1 $278 $177 $179 $282 reversed $99 $-1 #
coedge $-1 $177 $277 $352 $353 reversed $99 $-1 #
coedge $-1 $185 $180 $177 $280 forward $175 $-1 #
edge $-1 $283 -35.248337314536997 $354 -22.609479521919756 $279 $355 forward 7 unknown #
coedge $-1 $179 $178 $286 $356 reversed $61 $-1 #
edge $-1 $357 1.2708413694937717e-014 $283 15.070110178560416 $277 $358 forward 7 unknown #
vertex $-1 $181 $359 #
straight-curve $-1 -19.957017353774678 -17.163979773818017 8.2299562279088558 -1 0 0 I I #
coedge $-1 $352 $182 $185 $290 reversed $275 $-1 #
coedge $-1 $182 $352 $281 $356 forward $275 $-1 #
vertex $-1 $183 $360 #
straight-curve $-1 -29.811572621500837 -29.802837566435258 57.772809912910681 0 0 1 I I #
straight-curve $-1 -29.811572621500837 -29.802837566435272 0.022185855149373879 0 -0.83867056331134215 -0.54463904215088732 I I #
edge $-1 $354 -50.016496793597874 $186 -29.811572621500837 $285 $361 forward 7 unknown #
point $-1 -29.811572621500837 -29.802837566435262 8.2299562279088558 #
point $-1 -29.811572621500837 -17.163979773818017 8.2299562279088558 #
edge $-1 $362 1 $362 0 $189 $-1 forward 7 unknown #
vertex $-1 $190 $363 #
ellipse-curve $-1 -44.243661315855867 -20.267857571220315 -0.8254433427978235 0 -0.54463904215088732 0.83867056331134215 1.5 0 0 1 I I #
point $-1 -42.743661315855867 -23.483408670126629 4.1260710415291122 #
edge $-1 $364 1 $364 0 $193 $-1 forward 7 unknown #
vertex $-1 $194 $365 #
ellipse-curve $-1 -35.58440809924285 -20.267857571220315 -0.8254433427978235 0 -0.54463904215088732 0.83867056331134215 1.5 0 0 1 I I #
point $-1 -34.08440809924285 -23.483408670126629 4.1260710415291122 #
plane-surface $-1 68.872951445051427 0 0 -1 0 0 0 0 1 forward_v I I I I #
coedge $-1 $202 $200 $204 $306 reversed $121 $-1 #
edge $-1 $215 -8.2299562279088558 $308 8.2299562279088558 $214 $366 forward 7 unknown #
vertex $-1 $306 $367 #
straight-curve $-1 -68.872951445051427 -29.802837566435262 0 0 0 -1 I I #
edge $-1 $304 -29.802837566435262 $308 29.802837566435262 $302 $368 forward 7 unknown #
straight-curve $-1 0 -29.802837566435262 -8.2299562279088558 -1 0 0 I I #
vertex $-1 $207 $369 #
straight-curve $-1 0 29.802837566435262 -8.2299562279088558 1 0 0 I I #
point $-1 68.872951445051427 29.802837566435262 -8.2299562279088558 #
point $-1 68.872951445051427 -29.802837566435262 -8.2299562279088558 #
straight-curve $-1 -68.872951445051427 0 8.2299562279088558 0 -1 0 I I #
point $-1 -68.872951445051427 29.802837566435262 8.2299562279088558 #
point $-1 -68.872951445051427 -29.802837566435262 8.2299562279088558 #
straight-curve $-1 68.872951445051427 -29.802837566435262 0 0 0 -1 I I #
straight-curve $-1 68.872951445051427 29.802837566435262 0 0 0 -1 I I #
plane-surface $-1 -68.872951445051427 0 0 1 0 0 0 0 -1 forward_v I I I I #
edge $-1 $236 5.6293120417234359 $240 9.7979140960647921 $239 $370 forward 7 unknown #
edge $-1 $244 -9.7979140960647921 $235 -5.6293120417234359 $242 $371 forward 7 unknown #
straight-curve $-1 -61.010998612815278 -17.511527164958906 0 0 0 -1 I I #
edge $-1 $324 -8.2299562279088558 $322 8.2299562279088558 $246 $372 forward 7 unknown #
vertex $-1 $321 $373 #
straight-curve $-1 -32.470987514466678 -13.34292511061755 -8.2299562279088558 1 0 0 I I #
vertex $-1 $247 $374 #
straight-curve $-1 -32.470987514466678 -13.34292511061755 8.2299562279088558 -1 0 0 I I #
point $-1 -61.010998612815278 -13.34292511061755 8.2299562279088558 #
point $-1 -61.010998612815278 -13.34292511061755 -8.2299562279088558 #
point $-1 -61.010998612815278 -17.511527164958906 -8.2299562279088558 #
point $-1 -61.010998612815278 -17.511527164958906 8.2299562279088558 #
straight-curve $-1 -68.872951445051427 0 8.2299562279088558 0 -1 0 I I #
straight-curve $-1 -68.872951445051427 0 -8.2299562279088558 0 1 0 I I #
loop $-1 $-1 $265 $251 #
plane-surface $-1 68.872951445051427 0 0 -1 0 0 0 0 1 forward_v I I I I #
coedge $-1 $267 $258 $254 $335 forward $159 $-1 #
edge $-1 $263 28.5400110983486 $340 36.401963930584742 $334 $375 forward 7 unknown #
coedge $-1 $260 $270 $255 $337 forward $252 $-1 #
edge $-1 $341 -36.401963930584742 $262 -28.5400110983486 $336 $376 forward 7 unknown #
coedge $-1 $265 $256 $270 $350 reversed $332 $-1 #
coedge $-1 $256 $265 $267 $348 reversed $332 $-1 #
vertex $-1 $348 $377 #
vertex $-1 $257 $378 #
straight-curve $-1 68.872951445051427 -13.34292511061755 0 0 0 1 I I #
straight-curve $-1 61.010998612815271 -7.713613068894114 -8.2299562279088558 0 1 0 I I #
straight-curve $-1 61.010998612815271 -7.713613068894114 8.2299562279088558 0 -1 0 I I #
point $-1 61.010998612815271 -13.34292511061755 8.2299562279088558 #
point $-1 61.010998612815271 -13.34292511061755 -8.2299562279088558 #
straight-curve $-1 68.872951445051427 -17.511527164958906 0 0 0 -1 I I #
edge $-1 $340 13.34292511061755 $268 17.511527164958906 $339 $379 forward 7 unknown #
point $-1 68.872951445051413 -17.511527164958906 -8.2299562279088558 #
edge $-1 $271 -17.511527164958906 $341 -13.34292511061755 $338 $380 forward 7 unknown #
point $-1 68.872951445051413 -17.511527164958906 8.2299562279088558 #
coedge $-1 $286 $285 $278 $353 forward $275 $-1 #
edge $-1 $354 49.542853685001823 $357 57.7506240577613 $352 $381 forward 7 unknown #
vertex $-1 $290 $382 #
straight-curve $-1 -50.016496793597874 -52.412317088355017 8.2299562279088576 0 -1 0 I I #
edge $-1 $357 -30.059479439823196 $287 -9.854555267726159 $286 $383 forward 7 unknown #
vertex $-1 $356 $384 #
straight-curve $-1 -50.016496793597874 -29.802837566435272 0.022185855149373879 0 0.83867056331134215 0.54463904215088732 I I #
point $-1 -50.016496793597874 -17.163979773818017 8.2299562279088558 #
point $-1 -29.811572621500837 -29.802837566435262 0.0221858551493808 #
straight-curve $-1 0 -29.802837566435262 8.2299562279088558 1 0 0 I I #
vertex $-1 $293 $385 #
point $-1 -42.743661315855867 -20.267857571220315 -0.8254433427978235 #
vertex $-1 $297 $386 #
point $-1 -34.08440809924285 -20.267857571220315 -0.8254433427978235 #
straight-curve $-1 -68.872951445051427 29.802837566435262 0 0 0 -1 I I #
point $-1 -68.872951445051427 -29.802837566435262 -8.2299562279088558 #
straight-curve $-1 -68.872951445051427 0 -8.2299562279088558 0 1 0 I I #
point $-1 -68.872951445051427 29.802837566435262 -8.2299562279088558 #
straight-curve $-1 -61.010998612815278 -7.713613068894114 -8.2299562279088558 0 -1 0 I I #
straight-curve $-1 -61.010998612815278 -7.713613068894114 8.2299562279088558 0 1 0 I I #
straight-curve $-1 -68.872951445051427 -13.34292511061755 0 0 0 -1 I I #
point $-1 -68.872951445051427 -13.34292511061755 -8.2299562279088558 #
point $-1 -68.872951445051427 -13.34292511061755 8.2299562279088558 #
straight-curve $-1 32.470987514466671 -13.34292511061755 -8.2299562279088558 1 0 0 I I #
straight-curve $-1 32.470987514466671 -13.34292511061755 8.2299562279088558 -1 0 0 I I #
point $-1 68.872951445051413 -13.34292511061755 -8.2299562279088558 #
point $-1 68.872951445051413 -13.34292511061755 8.2299562279088558 #
straight-curve $-1 68.872951445051427 0 -8.2299562279088558 0 -1 0 I I #
straight-curve $-1 68.872951445051427 0 8.2299562279088558 0 1 0 I I #
straight-curve $-1 -50.016496793597874 -29.802837566435258 57.772809912910681 0 0 -1 I I #
point $-1 -50.016496793597874 -29.802837566435262 8.2299562279088558 #
straight-curve $-1 -19.957017353774678 -29.802837566435262 0.022185855149380564 1 0 0 I I #
point $-1 -50.016496793597874 -29.802837566435262 0.0221858551493808 #
point $-1 -44.243661315855867 -19.450899007993986 -2.0834491877648369 #
point $-1 -35.58440809924285 -19.450899007993986 -2.0834491877648369 #
End-of-ACIS-data 