500 0 9 0           
7 Unknown 11 ACIS 5.0 NT 24 Fri Mar 26 00:02:58 1999 
-1 9.9999999999999995e-007 1e-010 
body $-1 $9 $-1 $10 #
body $-1 $11 $-1 $12 #
body $-1 $13 $-1 $14 #
body $-1 $15 $-1 $16 #
body $-1 $17 $-1 $18 #
body $-1 $19 $-1 $20 #
body $-1 $21 $-1 $22 #
body $-1 $23 $-1 $24 #
body $-1 $25 $-1 $26 #
lump $-1 $-1 $27 $0 #
transform $-1 1 0 0 0 1 0 0 0 1 40.744651631214332 22.22210589210469 4.9280352935874125 1 rotate no_reflect no_shear #
lump $-1 $-1 $28 $1 #
transform $-1 1 0 0 0 1 0 0 0 1 40.744651631214332 22.22210589210469 4.9280352935874125 1 rotate no_reflect no_shear #
lump $-1 $-1 $29 $2 #
transform $-1 1 0 0 0 1 0 0 0 1 40.744651631214332 22.22210589210469 4.9280352935874125 1 rotate no_reflect no_shear #
lump $-1 $-1 $30 $3 #
transform $-1 1 0 0 0 1 0 0 0 1 40.744651631214332 22.22210589210469 4.9280352935874125 1 rotate no_reflect no_shear #
lump $-1 $-1 $31 $4 #
transform $-1 1 0 0 0 1 0 0 0 1 40.744651631214332 22.22210589210469 4.9280352935874125 1 rotate no_reflect no_shear #
lump $-1 $-1 $32 $5 #
transform $-1 1 0 0 0 1 0 0 0 1 40.744651631214332 22.22210589210469 4.9280352935874125 1 rotate no_reflect no_shear #
lump $-1 $-1 $33 $6 #
transform $-1 1 0 0 0 1 0 0 0 1 40.744651631214332 22.22210589210469 4.9280352935874125 1 rotate no_reflect no_shear #
lump $-1 $-1 $34 $7 #
transform $-1 1 0 0 0 1 0 0 0 1 40.744651631214332 22.22210589210469 4.9280352935874125 1 rotate no_reflect no_shear #
lump $-1 $-1 $35 $8 #
transform $-1 1 0 0 0 1 0 0 0 1 40.744651631214332 22.22210589210469 4.9280352935874125 1 rotate no_reflect no_shear #
shell $-1 $-1 $-1 $36 $-1 $9 #
shell $-1 $-1 $-1 $37 $-1 $11 #
shell $-1 $-1 $-1 $38 $-1 $13 #
shell $-1 $-1 $-1 $39 $-1 $15 #
shell $-1 $-1 $-1 $40 $-1 $17 #
shell $-1 $-1 $-1 $41 $-1 $19 #
shell $-1 $-1 $-1 $42 $-1 $21 #
shell $-1 $-1 $-1 $43 $-1 $23 #
shell $-1 $-1 $-1 $44 $-1 $25 #
face $-1 $45 $46 $27 $-1 $47 forward single #
face $-1 $48 $49 $28 $-1 $50 reversed single #
face $-1 $51 $52 $29 $-1 $53 reversed single #
face $-1 $54 $55 $30 $-1 $56 forward single #
face $-1 $57 $58 $31 $-1 $59 forward single #
face $-1 $60 $61 $32 $-1 $62 forward single #
face $-1 $63 $64 $33 $-1 $65 reversed single #
face $-1 $66 $67 $34 $-1 $68 forward single #
face $-1 $69 $70 $35 $-1 $71 forward single #
face $-1 $72 $73 $27 $-1 $74 reversed single #
loop $-1 $-1 $75 $36 #
plane-surface $-1 0 0 4.9280352935874125 0 0 1 1 0 0 forward_v I I I I #
face $-1 $76 $77 $28 $-1 $78 reversed single #
loop $-1 $-1 $79 $37 #
plane-surface $-1 -39.244651631214332 -16.967100036354839 0 0 -1 0 0 0 -1 forward_v I I I I #
face $-1 $80 $81 $29 $-1 $82 reversed single #
loop $-1 $-1 $83 $38 #
plane-surface $-1 -109.85150076580271 15.540437271213953 44.608991857756159 0 1 0 -0.84804810408105047 0 0.52991925155115449 forward_v I I I I #
face $-1 $84 $85 $30 $-1 $86 forward single #
loop $-1 $87 $88 $39 #
cone-surface $-1 -39.028173079993017 16.876770995392096 2.7882216660666819 0.84804810408105047 0 -0.52991925155115449 0.26495962577557725 0 0.42402405204052523 1 I I 0 1 0.5 forward I I I I #
face $-1 $89 $90 $31 $-1 $91 forward single #
loop $-1 $92 $93 $40 #
cone-surface $-1 -39.028173079993017 18.881271581659316 2.7882216660666819 0.84804810408105047 0 -0.52991925155115449 0.26495962577557725 0 0.42402405204052523 1 I I 0 1 0.5 forward I I I I #
face $-1 $94 $95 $32 $-1 $96 forward single #
loop $-1 $97 $98 $41 #
cone-surface $-1 -39.028173079993017 20.885772167926536 2.7882216660666819 0.84804810408105047 0 -0.52991925155115449 0.26495962577557725 0 0.42402405204052523 1 I I 0 1 0.5 forward I I I I #
face $-1 $99 $100 $33 $-1 $101 reversed single #
loop $-1 $-1 $102 $42 #
plane-surface $-1 64.705078043565607 -10.715339434876377 114.64237934551753 0 -1 0 -0.83867057594974714 0 -0.54463902268945019 forward_v I I I I #
face $-1 $103 $104 $34 $-1 $105 forward single #
loop $-1 $106 $107 $43 #
cone-surface $-1 39.077143858288863 -15.180882721646705 2.9746760861132246 -0.83867057594974714 0 -0.54463902268945019 0.2723195113447251 0 -0.41933528797487357 1 I I 0 1 0.5 forward I I I I #
face $-1 $108 $109 $35 $-1 $110 forward single #
loop $-1 $111 $112 $44 #
cone-surface $-1 39.077143858288863 -12.501556749584507 2.9746760861132246 -0.83867057594974714 0 -0.54463902268945019 0.2723195113447251 0 -0.41933528797487357 1 I I 0 1 0.5 forward I I I I #
face $-1 $113 $114 $27 $-1 $115 reversed single #
loop $-1 $-1 $116 $45 #
plane-surface $-1 0 0 -4.9280352935874125 0 0 1 1 0 0 forward_v I I I I #
coedge $-1 $117 $118 $119 $120 forward $46 $-1 #
face $-1 $121 $122 $28 $-1 $123 forward single #
loop $-1 $-1 $124 $48 #
plane-surface $-1 -37.744651631214332 -19.594602964229765 0 -1 0 0 0 0 1 forward_v I I I I #
coedge $-1 $125 $126 $127 $128 forward $49 $-1 #
face $-1 $129 $130 $29 $-1 $131 reversed single #
loop $-1 $-1 $132 $51 #
plane-surface $-1 -40.74465163121431 18.881271581659323 1.4262412635048989 -0.84804810408105047 0 0.52991925155115449 0.52991925155115449 0 0.84804810408105047 forward_v I I I I #
coedge $-1 $133 $134 $135 $136 reversed $52 $-1 #
face $-1 $-1 $137 $30 $-1 $138 forward single #
loop $-1 $139 $140 $54 #
cone-surface $-1 -38.193764349392929 16.876770995392096 2.2668252406994158 0.84804810408105047 0 -0.52991925155115449 0.13247981288778862 0 0.21201202602026262 1 I I -0.70710678118654746 0.70710678118654746 0.25 forward I I I I #
loop $-1 $-1 $141 $39 #
coedge $-1 $88 $88 $142 $143 reversed $55 $-1 #
face $-1 $-1 $144 $31 $-1 $145 forward single #
loop $-1 $146 $147 $57 #
cone-surface $-1 -38.193764349392929 18.881271581659316 2.2668252406994158 0.84804810408105047 0 -0.52991925155115449 0.13247981288778862 0 0.21201202602026262 1 I I -0.70710678118654746 0.70710678118654746 0.25 forward I I I I #
loop $-1 $-1 $148 $40 #
coedge $-1 $93 $93 $149 $150 reversed $58 $-1 #
face $-1 $-1 $151 $32 $-1 $152 forward single #
loop $-1 $153 $154 $60 #
cone-surface $-1 -38.193764349392929 20.885772167926536 2.2668252406994158 0.84804810408105047 0 -0.52991925155115449 0.13247981288778862 0 0.21201202602026262 1 I I -0.70710678118654746 0.70710678118654746 0.25 forward I I I I #
loop $-1 $-1 $155 $41 #
coedge $-1 $98 $98 $156 $157 reversed $61 $-1 #
face $-1 $158 $159 $33 $-1 $160 reversed single #
loop $-1 $-1 $161 $63 #
plane-surface $-1 -3.6376028572790489 -13.841219735615606 70.260124857024152 0.83867057594974714 0 0.54463902268945019 0.54463902268945019 0 -0.83867057594974714 forward_v I I I I #
coedge $-1 $162 $163 $164 $165 reversed $64 $-1 #
face $-1 $-1 $166 $34 $-1 $167 forward single #
loop $-1 $168 $169 $66 #
cone-surface $-1 38.177518847187152 -15.180882721646705 2.3904527916706408 -0.83867057594974714 0 -0.54463902268945019 0.13615975567236255 0 -0.20966764398743679 1 I I -0.70710678118654746 0.70710678118654746 0.25 forward I I I I #
loop $-1 $-1 $170 $43 #
coedge $-1 $107 $107 $171 $172 reversed $67 $-1 #
face $-1 $-1 $173 $35 $-1 $174 forward single #
loop $-1 $175 $176 $69 #
cone-surface $-1 38.177518847187152 -12.501556749584507 2.3904527916706408 -0.83867057594974714 0 -0.54463902268945019 0.13615975567236255 0 -0.20966764398743679 1 I I -0.70710678118654746 0.70710678118654746 0.25 forward I I I I #
loop $-1 $-1 $177 $44 #
coedge $-1 $112 $112 $178 $179 reversed $70 $-1 #
face $-1 $180 $181 $27 $-1 $182 reversed single #
loop $-1 $-1 $183 $72 #
plane-surface $-1 0 -22.22210589210469 0 0 1 0 0 0 1 forward_v I I I I #
coedge $-1 $184 $185 $186 $187 forward $73 $-1 #
coedge $-1 $188 $75 $189 $190 forward $46 $-1 #
coedge $-1 $75 $188 $191 $192 forward $46 $-1 #
coedge $-1 $193 $194 $75 $120 reversed $195 $-1 #
edge $-1 $196 -22.22210589210469 $197 22.22210589210469 $119 $198 forward 7 unknown #
face $-1 $199 $200 $28 $-1 $201 reversed single #
loop $-1 $-1 $202 $76 #
plane-surface $-1 0 0 4.9280352935874125 0 0 1 1 0 0 forward_v I I I I #
coedge $-1 $203 $204 $205 $206 reversed $77 $-1 #
coedge $-1 $207 $79 $208 $209 reversed $49 $-1 #
coedge $-1 $79 $207 $210 $211 reversed $49 $-1 #
coedge $-1 $204 $203 $79 $128 reversed $77 $-1 #
edge $-1 $212 -4.9280352935874125 $213 4.9280352935874125 $127 $214 forward 7 unknown #
face $-1 $215 $216 $29 $-1 $217 reversed single #
loop $-1 $-1 $218 $80 #
plane-surface $-1 0 22.22210589210469 0 0 -1 0 0 0 -1 forward_v I I I I #
coedge $-1 $219 $220 $221 $222 reversed $81 $-1 #
coedge $-1 $134 $83 $223 $224 reversed $52 $-1 #
coedge $-1 $83 $133 $219 $225 reversed $52 $-1 #
coedge $-1 $221 $226 $83 $136 forward $227 $-1 #
edge $-1 $228 14.181098751687024 $229 16.369262444970033 $135 $230 forward 7 unknown #
loop $-1 $-1 $142 $84 #
plane-surface $-1 -40.74465163121431 18.881271581659323 1.4262412635048989 -0.84804810408105047 0 0.52991925155115449 0.52991925155115449 0 0.84804810408105047 forward_v I I I I #
loop $-1 $-1 $231 $54 #
coedge $-1 $140 $140 $141 $232 reversed $85 $-1 #
coedge $-1 $141 $141 $140 $232 forward $87 $-1 #
coedge $-1 $142 $142 $88 $143 forward $137 $-1 #
edge $-1 $233 0 $233 6.2831853071796004 $142 $234 forward 7 unknown #
loop $-1 $-1 $149 $89 #
plane-surface $-1 -40.74465163121431 18.881271581659323 1.4262412635048989 -0.84804810408105047 0 0.52991925155115449 0.52991925155115449 0 0.84804810408105047 forward_v I I I I #
loop $-1 $-1 $235 $57 #
coedge $-1 $147 $147 $148 $236 reversed $90 $-1 #
coedge $-1 $148 $148 $147 $236 forward $92 $-1 #
coedge $-1 $149 $149 $93 $150 forward $144 $-1 #
edge $-1 $237 0 $237 6.2831853071796004 $149 $238 forward 7 unknown #
loop $-1 $-1 $156 $94 #
plane-surface $-1 -40.74465163121431 18.881271581659323 1.4262412635048989 -0.84804810408105047 0 0.52991925155115449 0.52991925155115449 0 0.84804810408105047 forward_v I I I I #
loop $-1 $-1 $239 $60 #
coedge $-1 $154 $154 $155 $240 reversed $95 $-1 #
coedge $-1 $155 $155 $154 $240 forward $97 $-1 #
coedge $-1 $156 $156 $98 $157 forward $151 $-1 #
edge $-1 $241 0 $241 6.2831853071796004 $156 $242 forward 7 unknown #
face $-1 $243 $244 $33 $-1 $245 reversed single #
loop $-1 $-1 $246 $99 #
plane-surface $-1 64.705078043565607 -16.967100036354836 114.64237934551753 0 1 0 0.83867057594974714 0 0.54463902268945019 forward_v I I I I #
coedge $-1 $247 $248 $249 $250 reversed $100 $-1 #
coedge $-1 $163 $102 $251 $252 reversed $64 $-1 #
coedge $-1 $102 $162 $247 $253 reversed $64 $-1 #
coedge $-1 $249 $254 $102 $165 forward $255 $-1 #
edge $-1 $256 -8.3921126094315284 $257 -6.4370117978091201 $164 $258 forward 7 unknown #
loop $-1 $-1 $171 $103 #
plane-surface $-1 -3.6376028572790489 -13.841219735615606 70.260124857024152 0.83867057594974714 0 0.54463902268945019 0.54463902268945019 0 -0.83867057594974714 forward_v I I I I #
loop $-1 $-1 $259 $66 #
coedge $-1 $169 $169 $170 $260 reversed $104 $-1 #
coedge $-1 $170 $170 $169 $260 forward $106 $-1 #
coedge $-1 $171 $171 $107 $172 forward $166 $-1 #
edge $-1 $261 0 $261 6.2831853071796004 $171 $262 forward 7 unknown #
loop $-1 $-1 $178 $108 #
plane-surface $-1 -3.6376028572790489 -13.841219735615606 70.260124857024152 0.83867057594974714 0 0.54463902268945019 0.54463902268945019 0 -0.83867057594974714 forward_v I I I I #
loop $-1 $-1 $263 $69 #
coedge $-1 $176 $176 $177 $264 reversed $109 $-1 #
coedge $-1 $177 $177 $176 $264 forward $111 $-1 #
coedge $-1 $178 $178 $112 $179 forward $173 $-1 #
edge $-1 $265 0 $265 6.2831853071796004 $178 $266 forward 7 unknown #
face $-1 $267 $268 $27 $-1 $269 reversed single #
loop $-1 $-1 $270 $113 #
plane-surface $-1 -40.744651631214332 0 0 1 0 0 0 0 -1 forward_v I I I I #
coedge $-1 $271 $191 $272 $273 forward $114 $-1 #
coedge $-1 $274 $116 $271 $275 forward $73 $-1 #
coedge $-1 $116 $274 $276 $277 forward $73 $-1 #
coedge $-1 $194 $193 $116 $187 reversed $195 $-1 #
edge $-1 $278 -22.22210589210469 $279 22.22210589210469 $186 $280 forward 7 unknown #
coedge $-1 $118 $117 $281 $282 forward $46 $-1 #
coedge $-1 $283 $284 $117 $190 reversed $268 $-1 #
edge $-1 $197 -40.744651631214332 $285 40.744651631214332 $189 $286 forward 7 unknown #
coedge $-1 $183 $287 $118 $192 reversed $114 $-1 #
edge $-1 $288 -40.744651631214332 $196 40.744651631214332 $191 $289 forward 7 unknown #
coedge $-1 $186 $119 $287 $290 forward $195 $-1 #
coedge $-1 $119 $186 $283 $291 reversed $195 $-1 #
loop $-1 $-1 $193 $267 #
vertex $-1 $120 $292 #
vertex $-1 $120 $293 #
straight-curve $-1 40.744651631214332 0 4.9280352935874125 0 1 0 I I #
face $-1 $294 $295 $28 $-1 $296 reversed single #
loop $-1 $-1 $297 $121 #
plane-surface $-1 -40.744651631214332 0 0 1 0 0 0 0 -1 forward_v I I I I #
coedge $-1 $210 $298 $204 $299 forward $122 $-1 #
coedge $-1 $127 $124 $300 $301 reversed $77 $-1 #
coedge $-1 $124 $127 $202 $299 reversed $77 $-1 #
coedge $-1 $302 $303 $124 $206 forward $304 $-1 #
edge $-1 $305 -4.9280352935874125 $306 4.9280352935874125 $205 $307 forward 7 unknown #
coedge $-1 $126 $125 $297 $308 reversed $49 $-1 #
coedge $-1 $300 $309 $125 $209 forward $295 $-1 #
edge $-1 $310 -21.122325815607166 $213 -18.122325815607166 $208 $311 forward 7 unknown #
coedge $-1 $312 $202 $126 $211 forward $122 $-1 #
edge $-1 $212 18.122325815607166 $313 21.122325815607166 $210 $314 forward 7 unknown #
vertex $-1 $211 $315 #
vertex $-1 $209 $316 #
straight-curve $-1 -37.744651631214332 -16.967100036354839 0 0 0 -1 I I #
face $-1 $-1 $227 $29 $-1 $317 forward single #
loop $-1 $-1 $318 $129 #
plane-surface $-1 -40.744651631214332 0 0 1 0 0 0 0 -1 forward_v I I I I #
coedge $-1 $319 $320 $220 $321 forward $130 $-1 #
coedge $-1 $322 $132 $134 $225 forward $81 $-1 #
coedge $-1 $132 $322 $218 $321 reversed $81 $-1 #
coedge $-1 $323 $135 $132 $222 forward $227 $-1 #
edge $-1 $229 6.0998014803842917 $324 12.781470101275032 $221 $325 forward 7 unknown #
coedge $-1 $326 $318 $133 $224 forward $216 $-1 #
edge $-1 $327 -20.878254665373216 $228 -17.376460635290666 $223 $328 forward 7 unknown #
edge $-1 $229 -4.1292398547097475 $327 4.0294802201000261e-014 $134 $329 forward 7 unknown #
coedge $-1 $135 $323 $326 $330 forward $227 $-1 #
loop $-1 $-1 $221 $215 #
vertex $-1 $224 $331 #
vertex $-1 $136 $332 #
straight-curve $-1 -54.925750382901356 15.540437271213953 4.9280352935874134 1 0 0 I I #
coedge $-1 $231 $231 $-1 $333 reversed $139 $-1 #
edge $-1 $334 0 $334 6.2831853071796004 $140 $335 forward 7 unknown #
vertex $-1 $143 $336 #
ellipse-curve $-1 -39.650569784572824 16.876770995392096 3.1771382785461473 -0.84804810408105047 0 0.52991925155115449 0.26495962577557725 0 0.42402405204052523 1 I I #
coedge $-1 $235 $235 $-1 $337 reversed $146 $-1 #
edge $-1 $338 0 $338 6.2831853071796004 $147 $339 forward 7 unknown #
vertex $-1 $150 $340 #
ellipse-curve $-1 -39.650569784572824 18.881271581659316 3.1771382785461473 -0.84804810408105047 0 0.52991925155115449 0.26495962577557725 0 0.42402405204052523 1 I I #
coedge $-1 $239 $239 $-1 $341 reversed $153 $-1 #
edge $-1 $342 0 $342 6.2831853071796004 $154 $343 forward 7 unknown #
vertex $-1 $157 $344 #
ellipse-curve $-1 -39.650569784572824 20.885772167926536 3.1771382785461473 -0.84804810408105047 0 0.52991925155115449 0.26495962577557725 0 0.42402405204052523 1 I I #
face $-1 $-1 $255 $33 $-1 $345 forward single #
loop $-1 $-1 $346 $158 #
plane-surface $-1 40.744651631214332 0 0 -1 0 0 0 0 1 forward_v I I I I #
coedge $-1 $347 $348 $349 $350 reversed $159 $-1 #
coedge $-1 $351 $161 $163 $253 forward $100 $-1 #
coedge $-1 $161 $351 $347 $352 forward $100 $-1 #
coedge $-1 $349 $164 $161 $250 forward $255 $-1 #
edge $-1 $257 3.7947295670685737 $353 10.046490168547033 $249 $354 forward 7 unknown #
coedge $-1 $355 $356 $162 $252 forward $244 $-1 #
edge $-1 $357 -55.40374571657928 $256 -52.393154379171349 $251 $358 forward 7 unknown #
edge $-1 $257 77.899584696234072 $357 81.489303262428677 $163 $359 forward 7 unknown #
coedge $-1 $164 $349 $355 $360 forward $255 $-1 #
loop $-1 $-1 $349 $243 #
vertex $-1 $252 $361 #
vertex $-1 $165 $362 #
straight-curve $-1 32.352539021782803 -10.715339434876377 4.9280352935874134 -1 0 0 I I #
coedge $-1 $259 $259 $-1 $363 reversed $168 $-1 #
edge $-1 $364 0 $364 6.2831853071796004 $169 $365 forward 7 unknown #
vertex $-1 $172 $366 #
ellipse-curve $-1 39.767101225403138 -15.180882721646705 3.4227396248834485 0.83867057594974714 0 0.54463902268945019 0.2723195113447251 0 -0.41933528797487357 1 I I #
coedge $-1 $263 $263 $-1 $367 reversed $175 $-1 #
edge $-1 $368 0 $368 6.2831853071796004 $176 $369 forward 7 unknown #
vertex $-1 $179 $370 #
ellipse-curve $-1 39.767101225403138 -12.501556749584507 3.4227396248834485 0.83867057594974714 0 0.54463902268945019 0.2723195113447251 0 -0.41933528797487357 1 I I #
face $-1 $-1 $195 $27 $-1 $371 reversed single #
loop $-1 $-1 $283 $180 #
plane-surface $-1 0 22.22210589210469 0 0 -1 0 0 0 -1 forward_v I I I I #
coedge $-1 $372 $281 $284 $373 forward $181 $-1 #
coedge $-1 $287 $183 $184 $275 reversed $114 $-1 #
coedge $-1 $281 $372 $183 $273 reversed $181 $-1 #
edge $-1 $288 -4.9280352935874125 $374 4.9280352935874125 $272 $375 forward 7 unknown #
coedge $-1 $185 $184 $372 $376 forward $73 $-1 #
edge $-1 $279 -40.744651631214332 $374 40.744651631214332 $271 $377 forward 7 unknown #
coedge $-1 $284 $283 $185 $277 reversed $268 $-1 #
edge $-1 $378 -40.744651631214332 $278 40.744651631214332 $276 $379 forward 7 unknown #
vertex $-1 $187 $380 #
vertex $-1 $290 $381 #
straight-curve $-1 40.744651631214332 0 -4.9280352935874125 0 -1 0 I I #
coedge $-1 $270 $272 $188 $282 reversed $181 $-1 #
edge $-1 $285 -22.22210589210469 $288 22.22210589210469 $281 $382 forward 7 unknown #
coedge $-1 $276 $189 $194 $291 forward $268 $-1 #
coedge $-1 $189 $276 $270 $373 reversed $268 $-1 #
vertex $-1 $190 $383 #
straight-curve $-1 0 22.22210589210469 4.9280352935874125 -1 0 0 I I #
coedge $-1 $191 $271 $193 $290 reversed $114 $-1 #
vertex $-1 $282 $384 #
straight-curve $-1 0 -22.22210589210469 4.9280352935874125 1 0 0 I I #
edge $-1 $196 -4.9280352935874125 $279 4.9280352935874125 $193 $385 forward 7 unknown #
edge $-1 $197 -4.9280352935874125 $278 4.9280352935874125 $194 $386 forward 7 unknown #
point $-1 40.744651631214332 -22.22210589210469 4.9280352935874125 #
point $-1 40.744651631214332 22.22210589210469 4.9280352935874125 #
face $-1 $-1 $304 $28 $-1 $387 reversed single #
loop $-1 $-1 $300 $199 #
plane-surface $-1 0 0 -4.9280352935874125 0 0 1 1 0 0 forward_v I I I I #
coedge $-1 $388 $389 $207 $308 forward $200 $-1 #
coedge $-1 $202 $312 $302 $390 forward $122 $-1 #
edge $-1 $306 -12.424804409989807 $212 -7.1697985542399572 $202 $391 forward 7 unknown #
coedge $-1 $392 $208 $203 $301 forward $295 $-1 #
edge $-1 $213 7.1697985542399572 $305 12.424804409989807 $300 $393 forward 7 unknown #
coedge $-1 $394 $205 $298 $390 reversed $304 $-1 #
coedge $-1 $205 $394 $392 $395 reversed $304 $-1 #
loop $-1 $-1 $205 $294 #
vertex $-1 $395 $396 #
vertex $-1 $206 $397 #
straight-curve $-1 -37.744651631214332 -22.22210589210469 0 0 0 1 I I #
edge $-1 $313 -4.9280352935874125 $310 4.9280352935874125 $297 $398 forward 7 unknown #
coedge $-1 $208 $392 $388 $399 forward $295 $-1 #
vertex $-1 $209 $400 #
straight-curve $-1 -19.622325815607166 -16.967100036354839 -4.9280352935874125 1 0 0 I I #
coedge $-1 $298 $210 $389 $401 forward $122 $-1 #
vertex $-1 $401 $402 #
straight-curve $-1 -19.622325815607166 -16.967100036354839 4.9280352935874125 -1 0 0 I I #
point $-1 -37.744651631214332 -16.967100036354839 4.9280352935874125 #
point $-1 -37.744651631214332 -16.967100036354839 -4.9280352935874125 #
plane-surface $-1 0 0 4.9280352935874125 0 0 1 1 0 0 forward_v I I I I #
coedge $-1 $223 $403 $322 $404 forward $216 $-1 #
coedge $-1 $320 $218 $403 $405 reversed $130 $-1 #
coedge $-1 $218 $319 $323 $406 reversed $130 $-1 #
edge $-1 $324 6.0616871941143113 $407 10.190927048824099 $218 $408 forward 7 unknown #
coedge $-1 $220 $219 $318 $404 reversed $81 $-1 #
coedge $-1 $226 $221 $320 $406 forward $227 $-1 #
vertex $-1 $406 $409 #
straight-curve $-1 -38.556487937931323 9.4406357908296616 4.9280352935874134 0 1 0 I I #
coedge $-1 $403 $223 $226 $330 reversed $216 $-1 #
vertex $-1 $224 $410 #
straight-curve $-1 -40.744651631214332 15.540437271213953 22.30449592887808 0 0 1 I I #
straight-curve $-1 -40.74465163121431 15.540437271213953 1.4262412635048989 -0.52991925155115449 0 -0.84804810408105047 I I #
edge $-1 $411 -22.22210589210469 $228 -15.540437271213953 $326 $412 forward 7 unknown #
point $-1 -40.744651631214332 15.540437271213953 4.9280352935874125 #
point $-1 -38.556487937931323 15.540437271213953 4.9280352935874125 #
edge $-1 $413 1 $413 0 $231 $-1 forward 7 unknown #
vertex $-1 $232 $414 #
ellipse-curve $-1 -38.40577637541319 16.876770995392096 2.3993050535872045 -0.84804810408105047 0 0.52991925155115449 0.26495962577557725 0 0.42402405204052523 1 I I #
point $-1 -39.385610158797263 16.876770995392096 3.6011623305866851 #
edge $-1 $415 1 $415 0 $235 $-1 forward 7 unknown #
vertex $-1 $236 $416 #
ellipse-curve $-1 -38.40577637541319 18.881271581659316 2.3993050535872045 -0.84804810408105047 0 0.52991925155115449 0.26495962577557725 0 0.42402405204052523 1 I I #
point $-1 -39.385610158797263 18.881271581659316 3.6011623305866851 #
edge $-1 $417 1 $417 0 $239 $-1 forward 7 unknown #
vertex $-1 $240 $418 #
ellipse-curve $-1 -38.40577637541319 20.885772167926536 2.3993050535872045 -0.84804810408105047 0 0.52991925155115449 0.26495962577557725 0 0.42402405204052523 1 I I #
point $-1 -39.385610158797263 20.885772167926536 3.6011623305866851 #
plane-surface $-1 0 0 4.9280352935874125 0 0 1 1 0 0 forward_v I I I I #
coedge $-1 $356 $355 $348 $419 forward $244 $-1 #
coedge $-1 $348 $246 $248 $352 reversed $159 $-1 #
coedge $-1 $246 $347 $346 $419 reversed $159 $-1 #
coedge $-1 $254 $249 $246 $350 forward $255 $-1 #
edge $-1 $353 6.4370117978091201 $420 8.3921126094315284 $349 $421 forward 7 unknown #
coedge $-1 $248 $247 $356 $422 reversed $100 $-1 #
edge $-1 $423 -81.489303262428677 $353 -77.899584696234072 $347 $424 forward 7 unknown #
vertex $-1 $250 $425 #
straight-curve $-1 38.789550819591923 -6.9206098678078032 4.9280352935874134 0 -1 0 I I #
coedge $-1 $346 $251 $254 $360 reversed $244 $-1 #
coedge $-1 $251 $346 $351 $422 forward $244 $-1 #
vertex $-1 $252 $426 #
straight-curve $-1 40.744651631214332 -10.715339434876377 57.321189672758763 0 0 1 I I #
straight-curve $-1 -3.6376028572790489 -10.715339434876377 70.260124857024152 0.54463902268945019 0 -0.83867057594974714 I I #
edge $-1 $420 -16.967100036354836 $256 -10.715339434876377 $355 $427 forward 7 unknown #
point $-1 40.744651631214332 -10.715339434876377 4.9280352935874125 #
point $-1 38.789550819591923 -10.715339434876377 4.9280352935874134 #
edge $-1 $428 1 $428 0 $259 $-1 forward 7 unknown #
vertex $-1 $260 $429 #
ellipse-curve $-1 38.387186491174589 -15.180882721646705 2.5266125473430034 0.83867057594974714 0 0.54463902268945019 0.2723195113447251 0 -0.41933528797487357 1 I I #
point $-1 40.039420736747857 -15.180882721646705 3.0034043369085719 #
edge $-1 $430 1 $430 0 $263 $-1 forward 7 unknown #
vertex $-1 $264 $431 #
ellipse-curve $-1 38.387186491174589 -12.501556749584507 2.5266125473430034 0.83867057594974714 0 0.54463902268945019 0.2723195113447251 0 -0.41933528797487357 1 I I #
point $-1 40.039420736747857 -12.501556749584507 3.0034043369085719 #
plane-surface $-1 40.744651631214332 0 0 -1 0 0 0 0 1 forward_v I I I I #
coedge $-1 $272 $270 $274 $376 reversed $181 $-1 #
edge $-1 $285 -4.9280352935874125 $378 4.9280352935874125 $284 $432 forward 7 unknown #
vertex $-1 $376 $433 #
straight-curve $-1 -40.744651631214332 -22.22210589210469 0 0 0 -1 I I #
edge $-1 $374 -22.22210589210469 $378 22.22210589210469 $372 $434 forward 7 unknown #
straight-curve $-1 0 -22.22210589210469 -4.9280352935874125 -1 0 0 I I #
vertex $-1 $277 $435 #
straight-curve $-1 0 22.22210589210469 -4.9280352935874125 1 0 0 I I #
point $-1 40.744651631214332 22.22210589210469 -4.9280352935874125 #
point $-1 40.744651631214332 -22.22210589210469 -4.9280352935874125 #
straight-curve $-1 -40.744651631214332 0 4.9280352935874125 0 -1 0 I I #
point $-1 -40.744651631214332 22.22210589210469 4.9280352935874125 #
point $-1 -40.744651631214332 -22.22210589210469 4.9280352935874125 #
straight-curve $-1 40.744651631214332 -22.22210589210469 0 0 0 -1 I I #
straight-curve $-1 40.744651631214332 22.22210589210469 0 0 0 -1 I I #
plane-surface $-1 0 -22.22210589210469 0 0 1 0 0 0 1 forward_v I I I I #
coedge $-1 $436 $297 $309 $399 reversed $200 $-1 #
coedge $-1 $297 $436 $312 $401 reversed $200 $-1 #
edge $-1 $437 -40.744651631214332 $306 -37.744651631214332 $302 $438 forward 7 unknown #
straight-curve $-1 -37.744651631214332 -9.7973014821148823 4.9280352935874125 0 1 0 I I #
coedge $-1 $309 $300 $303 $395 forward $295 $-1 #
straight-curve $-1 -37.744651631214332 -9.7973014821148823 -4.9280352935874125 0 -1 0 I I #
coedge $-1 $303 $302 $436 $439 forward $304 $-1 #
edge $-1 $305 37.744651631214332 $440 40.744651631214332 $303 $441 forward 7 unknown #
point $-1 -37.744651631214332 -22.22210589210469 -4.9280352935874125 #
point $-1 -37.744651631214332 -22.22210589210469 4.9280352935874125 #
straight-curve $-1 -40.744651631214332 -16.967100036354839 0 0 0 -1 I I #
edge $-1 $440 -22.22210589210469 $310 -16.967100036354839 $388 $442 forward 7 unknown #
point $-1 -40.744651631214332 -16.967100036354839 -4.9280352935874125 #
edge $-1 $313 16.967100036354839 $437 22.22210589210469 $389 $443 forward 7 unknown #
point $-1 -40.744651631214332 -16.967100036354839 4.9280352935874125 #
coedge $-1 $318 $326 $319 $405 forward $216 $-1 #
edge $-1 $407 -12.781470101275032 $327 -6.0998014803842917 $318 $444 forward 7 unknown #
edge $-1 $411 -4.9280352935874125 $407 -1.4262412635048647 $319 $445 forward 7 unknown #
edge $-1 $324 38.556487937931323 $411 40.744651631214332 $320 $446 forward 7 unknown #
vertex $-1 $404 $447 #
straight-curve $-1 -35.344283196889052 22.22210589210469 10.068637626088439 -0.52991925155115449 0 -0.84804810408105047 I I #
point $-1 -38.556487937931323 22.222105892104693 4.9280352935874125 #
point $-1 -40.744651631214332 15.540437271213953 1.4262412635048647 #
vertex $-1 $406 $448 #
straight-curve $-1 -40.744651631214332 0 4.9280352935874125 0 -1 0 I I #
vertex $-1 $333 $449 #
point $-1 -38.140816749637615 16.876770995392096 2.8233291056277299 #
vertex $-1 $337 $450 #
point $-1 -38.140816749637615 18.881271581659316 2.8233291056277299 #
vertex $-1 $341 $451 #
point $-1 -38.140816749637615 20.885772167926536 2.8233291056277299 #
edge $-1 $420 52.393154379171349 $423 55.40374571657928 $346 $452 forward 7 unknown #
vertex $-1 $360 $453 #
straight-curve $-1 32.352539021782803 -16.967100036354836 4.9280352935874134 1 0 0 I I #
edge $-1 $423 -10.046490168547033 $357 -3.7947295670685737 $356 $454 forward 7 unknown #
vertex $-1 $422 $455 #
straight-curve $-1 -3.6376028572790489 -16.967100036354836 70.260124857024152 -0.54463902268945019 0 0.83867057594974714 I I #
point $-1 38.789550819591923 -16.967100036354836 4.9280352935874134 #
point $-1 40.744651631214332 -10.715339434876377 1.9174439561794827 #
straight-curve $-1 40.744651631214332 0 4.9280352935874125 0 1 0 I I #
vertex $-1 $363 $456 #
point $-1 38.659506002519315 -15.180882721646705 2.1072772593681299 #
vertex $-1 $367 $457 #
point $-1 38.659506002519315 -12.501556749584507 2.1072772593681299 #
straight-curve $-1 -40.744651631214332 22.22210589210469 0 0 0 -1 I I #
point $-1 -40.744651631214332 -22.22210589210469 -4.9280352935874125 #
straight-curve $-1 -40.744651631214332 0 -4.9280352935874125 0 1 0 I I #
point $-1 -40.744651631214332 22.22210589210469 -4.9280352935874125 #
coedge $-1 $389 $388 $394 $439 reversed $200 $-1 #
vertex $-1 $401 $458 #
straight-curve $-1 0 -22.22210589210469 4.9280352935874125 1 0 0 I I #
edge $-1 $437 -4.9280352935874125 $440 4.9280352935874125 $436 $459 forward 7 unknown #
vertex $-1 $399 $460 #
straight-curve $-1 0 -22.22210589210469 -4.9280352935874125 -1 0 0 I I #
straight-curve $-1 -40.744651631214332 0 -4.9280352935874125 0 1 0 I I #
straight-curve $-1 -40.744651631214332 0 4.9280352935874125 0 -1 0 I I #
straight-curve $-1 -40.744651631214332 9.4406357908296616 1.4262412635048727 0 -1 0 I I #
straight-curve $-1 -40.744651631214332 22.22210589210469 0 0 0 -1 I I #
straight-curve $-1 0 22.22210589210469 4.9280352935874125 -1 0 0 I I #
point $-1 -40.744651631214332 22.222105892104693 1.4262412635048647 #
point $-1 -40.744651631214332 22.22210589210469 4.9280352935874125 #
point $-1 -37.981752323372667 16.876770995392096 2.1343454278116272 #
point $-1 -37.981752323372667 18.881271581659316 2.1343454278116272 #
point $-1 -37.981752323372667 20.885772167926536 2.1343454278116272 #
straight-curve $-1 40.744651631214332 -16.967100036354836 57.321189672758763 0 0 -1 I I #
point $-1 40.744651631214332 -16.967100036354836 4.9280352935874125 #
straight-curve $-1 40.744651631214332 -6.9206098678078032 1.9174439561794898 0 1 0 I I #
point $-1 40.744651631214332 -16.967100036354836 1.9174439561794827 #
point $-1 37.967851203199714 -15.180882721646705 2.2542930359982782 #
point $-1 37.967851203199714 -12.501556749584507 2.2542930359982782 #
point $-1 -40.744651631214332 -22.22210589210469 4.9280352935874125 #
straight-curve $-1 -40.744651631214332 -22.22210589210469 0 0 0 -1 I I #
point $-1 -40.744651631214332 -22.22210589210469 -4.9280352935874125 #
End-of-ACIS-data 