500 0 9 0           
7 Unknown 11 ACIS 5.0 NT 24 Fri Mar 26 16:36:59 1999 
-1 9.9999999999999995e-007 1e-010 
body $-1 $9 $-1 $10 #
body $-1 $11 $-1 $12 #
body $-1 $13 $-1 $14 #
body $-1 $15 $-1 $16 #
body $-1 $17 $-1 $18 #
body $-1 $19 $-1 $20 #
body $-1 $21 $-1 $22 #
body $-1 $23 $-1 $24 #
body $-1 $25 $-1 $26 #
lump $-1 $-1 $27 $0 #
transform $-1 1 0 0 0 1 0 0 0 1 59.721060823389386 27.230339583293155 11.286126860766807 1 rotate no_reflect no_shear #
lump $-1 $-1 $28 $1 #
transform $-1 1 0 0 0 1 0 0 0 1 59.721060823389386 27.230339583293155 11.286126860766807 1 rotate no_reflect no_shear #
lump $-1 $-1 $29 $2 #
transform $-1 1 0 0 0 1 0 0 0 1 59.721060823389386 27.230339583293155 11.286126860766807 1 rotate no_reflect no_shear #
lump $-1 $-1 $30 $3 #
transform $-1 1 0 0 0 1 0 0 0 1 59.721060823389386 27.230339583293155 11.286126860766807 1 rotate no_reflect no_shear #
lump $-1 $-1 $31 $4 #
transform $-1 1 0 0 0 1 0 0 0 1 59.721060823389386 27.230339583293155 11.286126860766807 1 rotate no_reflect no_shear #
lump $-1 $-1 $32 $5 #
transform $-1 1 0 0 0 1 0 0 0 1 59.721060823389386 27.230339583293155 11.286126860766807 1 rotate no_reflect no_shear #
lump $-1 $-1 $33 $6 #
transform $-1 1 0 0 0 1 0 0 0 1 59.721060823389386 27.230339583293155 11.286126860766807 1 rotate no_reflect no_shear #
lump $-1 $-1 $34 $7 #
transform $-1 1 0 0 0 1 0 0 0 1 59.721060823389386 27.230339583293155 11.286126860766807 1 rotate no_reflect no_shear #
lump $-1 $-1 $35 $8 #
transform $-1 1 0 0 0 1 0 0 0 1 59.721060823389386 27.230339583293155 11.286126860766807 1 rotate no_reflect no_shear #
shell $-1 $-1 $-1 $36 $-1 $9 #
shell $-1 $-1 $-1 $37 $-1 $11 #
shell $-1 $-1 $-1 $38 $-1 $13 #
shell $-1 $-1 $-1 $39 $-1 $15 #
shell $-1 $-1 $-1 $40 $-1 $17 #
shell $-1 $-1 $-1 $41 $-1 $19 #
shell $-1 $-1 $-1 $42 $-1 $21 #
shell $-1 $-1 $-1 $43 $-1 $23 #
shell $-1 $-1 $-1 $44 $-1 $25 #
face $-1 $45 $46 $27 $-1 $47 forward single #
face $-1 $48 $49 $28 $-1 $50 reversed single #
face $-1 $51 $52 $29 $-1 $53 reversed single #
face $-1 $54 $55 $30 $-1 $56 reversed single #
face $-1 $57 $58 $31 $-1 $59 forward single #
face $-1 $60 $61 $32 $-1 $62 forward single #
face $-1 $63 $64 $33 $-1 $65 reversed single #
face $-1 $66 $67 $34 $-1 $68 forward single #
face $-1 $69 $70 $35 $-1 $71 forward single #
face $-1 $72 $73 $27 $-1 $74 reversed single #
loop $-1 $-1 $75 $36 #
plane-surface $-1 0 0 11.286126860766807 0 0 1 1 0 0 forward_v I I I I #
face $-1 $76 $77 $28 $-1 $78 reversed single #
loop $-1 $-1 $79 $37 #
plane-surface $-1 -55.07675779396321 -26.730339583293155 0 0 1 0 0 0 1 forward_v I I I I #
face $-1 $80 $81 $29 $-1 $82 reversed single #
loop $-1 $-1 $83 $38 #
plane-surface $-1 55.076757793963203 -26.730339583293155 0 0 1 0 0 0 1 forward_v I I I I #
face $-1 $84 $85 $30 $-1 $86 reversed single #
loop $-1 $-1 $87 $39 #
plane-surface $-1 -7.3930008315623255 -130.67025213520367 66.094399940104751 -1 0 0 0 -0.86602541151947299 0.49999998660252726 forward_v I I I I #
face $-1 $88 $89 $31 $-1 $90 forward single #
loop $-1 $91 $92 $40 #
cone-surface $-1 -15.135890648988266 -24.610813303455135 8.1361472722033703 0 0.86602541151947299 -0.49999998660252726 1 0 0 1 I I 0 1 1 forward I I I I #
face $-1 $93 $94 $32 $-1 $95 forward single #
loop $-1 $96 $97 $41 #
cone-surface $-1 -10.490156758532699 -24.610813303455135 8.1361472722033703 0 0.86602541151947299 -0.49999998660252726 1 0 0 1 I I 0 1 1 forward I I I I #
face $-1 $98 $99 $33 $-1 $100 reversed single #
loop $-1 $-1 $101 $42 #
plane-surface $-1 -17.612270428698984 77.442684969221418 121.73163731989945 1 0 0 0 -0.73135370988377701 -0.68199835119979291 forward_v I I I I #
face $-1 $102 $103 $34 $-1 $104 forward single #
loop $-1 $105 $106 $43 #
cone-surface $-1 -9.9170934350805524 20.844547286478871 4.6241761404868438 0 -0.73135370988377701 -0.68199835119979291 2 0 0 1 I I 0 1 2 forward I I I I #
face $-1 $107 $108 $35 $-1 $109 forward single #
loop $-1 $110 $111 $44 #
cone-surface $-1 1.6256720553471027 20.844547286478871 4.6241761404868438 0 -0.73135370988377701 -0.68199835119979291 2 0 0 1 I I 0 1 2 forward I I I I #
face $-1 $112 $113 $27 $-1 $114 reversed single #
loop $-1 $-1 $115 $45 #
plane-surface $-1 0 0 -11.286126860766807 0 0 1 1 0 0 forward_v I I I I #
coedge $-1 $116 $117 $118 $119 forward $46 $-1 #
face $-1 $120 $121 $28 $-1 $122 reversed single #
loop $-1 $-1 $123 $48 #
plane-surface $-1 -55.07675779396321 -22.953463595895702 0 0 -1 0 0 0 -1 forward_v I I I I #
coedge $-1 $124 $125 $126 $127 reversed $49 $-1 #
face $-1 $128 $129 $29 $-1 $130 reversed single #
loop $-1 $-1 $131 $51 #
plane-surface $-1 50.432454764537027 -24.841901589594428 0 1 0 0 0 0 -1 forward_v I I I I #
coedge $-1 $132 $133 $134 $135 forward $52 $-1 #
face $-1 $136 $137 $30 $-1 $138 reversed single #
loop $-1 $-1 $139 $54 #
plane-surface $-1 -12.813023703760486 -27.23033958329313 6.3733407169379319 0 -0.86602541151947299 0.49999998660252726 1 0 0 forward_v I I I I #
coedge $-1 $140 $141 $142 $143 reversed $55 $-1 #
face $-1 $-1 $144 $31 $-1 $145 forward single #
loop $-1 $146 $147 $57 #
cone-surface $-1 -15.135890648988266 -22.976473468495278 7.1925607622531018 0 0.86602541151947299 -0.49999998660252726 0.5 0 0 1 I I -0.70710678118654746 0.70710678118654746 0.5 forward I I I I #
loop $-1 $-1 $148 $40 #
coedge $-1 $92 $92 $149 $150 reversed $58 $-1 #
face $-1 $-1 $151 $32 $-1 $152 forward single #
loop $-1 $153 $154 $60 #
cone-surface $-1 -10.490156758532699 -22.976473468495278 7.1925607622531018 0 0.86602541151947299 -0.49999998660252726 0.5 0 0 1 I I -0.70710678118654746 0.70710678118654746 0.5 forward I I I I #
loop $-1 $-1 $155 $41 #
coedge $-1 $97 $97 $156 $157 reversed $61 $-1 #
face $-1 $158 $159 $33 $-1 $160 reversed single #
loop $-1 $-1 $161 $63 #
plane-surface $-1 -4.1457106898667249 -9.911753813539633 40.272307292991229 0 0.73135370988377701 0.68199835119979291 1 0 0 forward_v I I I I #
coedge $-1 $162 $163 $164 $165 reversed $64 $-1 #
face $-1 $-1 $166 $34 $-1 $167 forward single #
loop $-1 $168 $169 $66 #
cone-surface $-1 -9.9170934350805524 18.783423035274385 2.7021467285313747 0 -0.73135370988377701 -0.68199835119979291 1 0 0 1 I I -0.70710678118654746 0.70710678118654746 1 forward I I I I #
loop $-1 $-1 $170 $43 #
coedge $-1 $106 $106 $171 $172 reversed $67 $-1 #
face $-1 $-1 $173 $35 $-1 $174 forward single #
loop $-1 $175 $176 $69 #
cone-surface $-1 1.6256720553471027 18.783423035274385 2.7021467285313747 0 -0.73135370988377701 -0.68199835119979291 1 0 0 1 I I -0.70710678118654746 0.70710678118654746 1 forward I I I I #
loop $-1 $-1 $177 $44 #
coedge $-1 $111 $111 $178 $179 reversed $70 $-1 #
face $-1 $180 $181 $27 $-1 $182 reversed single #
loop $-1 $-1 $183 $72 #
plane-surface $-1 0 -27.230339583293155 0 0 1 0 0 0 1 forward_v I I I I #
coedge $-1 $184 $185 $186 $187 forward $73 $-1 #
coedge $-1 $188 $75 $189 $190 forward $46 $-1 #
coedge $-1 $75 $188 $191 $192 forward $46 $-1 #
coedge $-1 $193 $194 $75 $119 reversed $195 $-1 #
edge $-1 $196 -27.230339583293155 $197 27.230339583293155 $118 $198 forward 7 unknown #
face $-1 $199 $200 $28 $-1 $201 reversed single #
loop $-1 $-1 $202 $76 #
plane-surface $-1 -50.432454764537034 -24.841901589594428 0 -1 0 0 0 0 1 forward_v I I I I #
coedge $-1 $203 $204 $205 $206 forward $77 $-1 #
coedge $-1 $207 $79 $208 $209 reversed $49 $-1 #
coedge $-1 $79 $207 $210 $211 reversed $49 $-1 #
coedge $-1 $212 $213 $79 $127 forward $214 $-1 #
edge $-1 $215 -11.286126860766807 $216 11.286126860766807 $126 $217 forward 7 unknown #
face $-1 $218 $219 $29 $-1 $220 reversed single #
loop $-1 $-1 $221 $80 #
plane-surface $-1 55.076757793963203 -22.953463595895702 0 0 -1 0 0 0 -1 forward_v I I I I #
coedge $-1 $222 $223 $224 $225 forward $81 $-1 #
coedge $-1 $226 $83 $227 $228 reversed $52 $-1 #
coedge $-1 $83 $226 $229 $230 reversed $52 $-1 #
coedge $-1 $223 $222 $83 $135 reversed $81 $-1 #
edge $-1 $231 -11.286126860766807 $232 11.286126860766807 $134 $233 forward 7 unknown #
face $-1 $234 $235 $30 $-1 $236 forward single #
loop $-1 $-1 $237 $84 #
plane-surface $-1 -18.233046575958646 -130.67025213520367 66.094399940104751 1 0 0 0 0.86602541151947299 -0.49999998660252726 forward_v I I I I #
coedge $-1 $238 $239 $240 $241 reversed $85 $-1 #
coedge $-1 $141 $87 $242 $243 reversed $55 $-1 #
coedge $-1 $87 $140 $238 $244 reversed $55 $-1 #
coedge $-1 $240 $245 $87 $143 forward $235 $-1 #
edge $-1 $246 38.104786484308676 $247 40.941184785584511 $142 $248 forward 7 unknown #
loop $-1 $-1 $149 $88 #
plane-surface $-1 -12.813023703760486 -27.23033958329313 6.3733407169379319 0 -0.86602541151947299 0.49999998660252726 1 0 0 forward_v I I I I #
loop $-1 $-1 $249 $57 #
coedge $-1 $147 $147 $148 $250 reversed $89 $-1 #
coedge $-1 $148 $148 $147 $250 forward $91 $-1 #
coedge $-1 $149 $149 $92 $150 forward $144 $-1 #
edge $-1 $251 1.4108339230032299e-015 $251 6.2831853071796022 $149 $252 forward 7 unknown #
loop $-1 $-1 $156 $93 #
plane-surface $-1 -12.813023703760486 -27.23033958329313 6.3733407169379319 0 -0.86602541151947299 0.49999998660252726 1 0 0 forward_v I I I I #
loop $-1 $-1 $253 $60 #
coedge $-1 $154 $154 $155 $254 reversed $94 $-1 #
coedge $-1 $155 $155 $154 $254 forward $96 $-1 #
coedge $-1 $156 $156 $97 $157 forward $151 $-1 #
edge $-1 $255 1.4108339230032299e-015 $255 6.2831853071796022 $156 $256 forward 7 unknown #
face $-1 $257 $258 $33 $-1 $259 reversed single #
loop $-1 $-1 $260 $98 #
plane-surface $-1 9.3208490489655347 77.442684969221418 121.73163731989945 -1 0 0 0 0.73135370988377701 0.68199835119979291 forward_v I I I I #
coedge $-1 $261 $262 $263 $264 reversed $99 $-1 #
coedge $-1 $163 $101 $265 $266 reversed $64 $-1 #
coedge $-1 $101 $162 $261 $267 reversed $64 $-1 #
coedge $-1 $263 $268 $101 $165 forward $269 $-1 #
edge $-1 $270 11.491002901317554 $271 21.603046412304721 $164 $272 forward 7 unknown #
loop $-1 $-1 $171 $102 #
plane-surface $-1 -4.1457106898667249 -9.911753813539633 40.272307292991229 0 0.73135370988377701 0.68199835119979291 1 0 0 forward_v I I I I #
loop $-1 $-1 $273 $66 #
coedge $-1 $169 $169 $170 $274 reversed $103 $-1 #
coedge $-1 $170 $170 $169 $274 forward $105 $-1 #
coedge $-1 $171 $171 $106 $172 forward $166 $-1 #
edge $-1 $275 2.1120893748965833e-016 $275 6.2831853071796004 $171 $276 forward 7 unknown #
loop $-1 $-1 $178 $107 #
plane-surface $-1 -4.1457106898667249 -9.911753813539633 40.272307292991229 0 0.73135370988377701 0.68199835119979291 1 0 0 forward_v I I I I #
loop $-1 $-1 $277 $69 #
coedge $-1 $176 $176 $177 $278 reversed $108 $-1 #
coedge $-1 $177 $177 $176 $278 forward $110 $-1 #
coedge $-1 $178 $178 $111 $179 forward $173 $-1 #
edge $-1 $279 2.1120893748965833e-016 $279 6.2831853071796004 $178 $280 forward 7 unknown #
face $-1 $281 $282 $27 $-1 $283 reversed single #
loop $-1 $-1 $284 $112 #
plane-surface $-1 -59.721060823389386 0 0 1 0 0 0 0 -1 forward_v I I I I #
coedge $-1 $285 $191 $286 $287 forward $113 $-1 #
coedge $-1 $288 $115 $285 $289 forward $73 $-1 #
coedge $-1 $115 $288 $290 $291 forward $73 $-1 #
coedge $-1 $194 $193 $115 $187 reversed $195 $-1 #
edge $-1 $292 -27.230339583293155 $293 27.230339583293155 $186 $294 forward 7 unknown #
coedge $-1 $117 $116 $295 $296 forward $46 $-1 #
coedge $-1 $297 $298 $116 $190 reversed $282 $-1 #
edge $-1 $197 -59.721060823389386 $299 59.721060823389386 $189 $300 forward 7 unknown #
coedge $-1 $183 $301 $117 $192 reversed $113 $-1 #
edge $-1 $302 -59.721060823389386 $196 59.721060823389386 $191 $303 forward 7 unknown #
coedge $-1 $186 $118 $301 $304 forward $195 $-1 #
coedge $-1 $118 $186 $297 $305 reversed $195 $-1 #
loop $-1 $-1 $193 $281 #
vertex $-1 $119 $306 #
vertex $-1 $119 $307 #
straight-curve $-1 59.721060823389386 0 11.286126860766807 0 1 0 I I #
face $-1 $308 $309 $28 $-1 $310 forward single #
loop $-1 $-1 $311 $120 #
plane-surface $-1 0 0 -11.286126860766807 0 0 1 1 0 0 forward_v I I I I #
coedge $-1 $312 $313 $207 $314 forward $121 $-1 #
coedge $-1 $315 $123 $311 $316 reversed $77 $-1 #
coedge $-1 $123 $315 $317 $318 reversed $77 $-1 #
coedge $-1 $313 $312 $123 $206 reversed $121 $-1 #
edge $-1 $319 -11.286126860766807 $320 11.286126860766807 $205 $321 forward 7 unknown #
coedge $-1 $125 $124 $202 $314 reversed $49 $-1 #
coedge $-1 $322 $323 $124 $209 forward $200 $-1 #
edge $-1 $324 22.894075867555429 $215 32.182681926407781 $208 $325 forward 7 unknown #
coedge $-1 $326 $327 $125 $211 forward $309 $-1 #
edge $-1 $216 -32.182681926407781 $328 -22.894075867555429 $210 $329 forward 7 unknown #
coedge $-1 $330 $126 $327 $331 reversed $214 $-1 #
coedge $-1 $126 $330 $322 $332 reversed $214 $-1 #
loop $-1 $-1 $330 $308 #
vertex $-1 $332 $333 #
vertex $-1 $127 $334 #
straight-curve $-1 -59.721060823389386 -26.730339583293155 0 0 0 1 I I #
face $-1 $335 $336 $29 $-1 $337 forward single #
loop $-1 $-1 $227 $128 #
plane-surface $-1 0 0 -11.286126860766807 0 0 1 1 0 0 forward_v I I I I #
coedge $-1 $338 $339 $340 $341 reversed $129 $-1 #
coedge $-1 $134 $131 $342 $343 reversed $81 $-1 #
coedge $-1 $131 $134 $344 $345 reversed $81 $-1 #
coedge $-1 $339 $338 $131 $225 reversed $129 $-1 #
edge $-1 $346 -11.286126860766807 $347 11.286126860766807 $224 $348 forward 7 unknown #
coedge $-1 $133 $132 $349 $350 reversed $52 $-1 #
coedge $-1 $342 $351 $132 $228 forward $219 $-1 #
edge $-1 $352 -32.182681926407781 $232 -22.894075867555426 $227 $353 forward 7 unknown #
coedge $-1 $354 $344 $133 $230 forward $336 $-1 #
edge $-1 $231 22.894075867555426 $355 32.182681926407781 $229 $356 forward 7 unknown #
vertex $-1 $230 $357 #
vertex $-1 $228 $358 #
straight-curve $-1 50.432454764537027 -26.730339583293155 0 0 0 -1 I I #
face $-1 $-1 $359 $30 $-1 $360 reversed single #
loop $-1 $-1 $142 $136 #
plane-surface $-1 0 0 11.286126860766807 0 0 1 1 0 0 forward_v I I I I #
coedge $-1 $361 $362 $363 $364 reversed $137 $-1 #
coedge $-1 $365 $139 $141 $244 forward $85 $-1 #
coedge $-1 $139 $365 $361 $366 forward $85 $-1 #
coedge $-1 $363 $142 $139 $241 forward $235 $-1 #
edge $-1 $247 0.9864889796820826 $367 11.826534724078403 $240 $368 forward 7 unknown #
coedge $-1 $369 $370 $140 $243 forward $359 $-1 #
edge $-1 $371 -26.673859253114486 $246 -21.761073109285569 $242 $372 forward 7 unknown #
edge $-1 $247 -5.672796754553902 $371 4.9355381450948836e-014 $141 $373 forward 7 unknown #
coedge $-1 $142 $363 $369 $374 forward $235 $-1 #
vertex $-1 $143 $375 #
vertex $-1 $143 $376 #
straight-curve $-1 -7.3930008315623255 -65.335126067601834 11.286126860766807 0 1 0 I I #
coedge $-1 $249 $249 $-1 $377 reversed $146 $-1 #
edge $-1 $378 0 $378 6.2831853071796004 $147 $379 forward 7 unknown #
vertex $-1 $150 $380 #
ellipse-curve $-1 -15.135890648988266 -25.81214043265523 8.8297337888523604 0 -0.86602541151947299 0.49999998660252726 1 0 0 1 I I #
coedge $-1 $253 $253 $-1 $381 reversed $153 $-1 #
edge $-1 $382 0 $382 6.2831853071796004 $154 $383 forward 7 unknown #
vertex $-1 $157 $384 #
ellipse-curve $-1 -10.490156758532699 -25.81214043265523 8.8297337888523604 0 -0.86602541151947299 0.49999998660252726 1 0 0 1 I I #
face $-1 $-1 $269 $33 $-1 $385 forward single #
loop $-1 $-1 $386 $158 #
plane-surface $-1 0 27.230339583293155 0 0 -1 0 0 0 -1 forward_v I I I I #
coedge $-1 $387 $388 $389 $390 reversed $159 $-1 #
coedge $-1 $391 $161 $163 $267 forward $99 $-1 #
coedge $-1 $161 $391 $387 $392 forward $99 $-1 #
coedge $-1 $389 $164 $161 $264 forward $269 $-1 #
edge $-1 $271 -15.539415083765622 $393 11.393704393898897 $263 $394 forward 7 unknown #
coedge $-1 $395 $396 $162 $266 forward $258 $-1 #
edge $-1 $397 -60.423531118231537 $270 -49.579691799182918 $265 $398 forward 7 unknown #
edge $-1 $271 39.633600049462743 $397 54.460679166586331 $163 $399 forward 7 unknown #
coedge $-1 $164 $389 $395 $400 forward $269 $-1 #
loop $-1 $-1 $389 $257 #
vertex $-1 $266 $401 #
vertex $-1 $165 $402 #
straight-curve $-1 -17.612270428698984 38.721342484610709 11.286126860766807 0 -1 0 I I #
coedge $-1 $273 $273 $-1 $403 reversed $168 $-1 #
edge $-1 $404 0 $404 6.2831853071796004 $169 $405 forward 7 unknown #
vertex $-1 $172 $406 #
ellipse-curve $-1 -9.9170934350805524 22.174317827799563 5.8642072012425048 0 0.73135370988377701 0.68199835119979291 2 0 0 1 I I #
coedge $-1 $277 $277 $-1 $407 reversed $175 $-1 #
edge $-1 $408 0 $408 6.2831853071796004 $176 $409 forward 7 unknown #
vertex $-1 $179 $410 #
ellipse-curve $-1 1.6256720553471027 22.174317827799563 5.8642072012425048 0 0.73135370988377701 0.68199835119979291 2 0 0 1 I I #
face $-1 $-1 $195 $27 $-1 $411 reversed single #
loop $-1 $-1 $297 $180 #
plane-surface $-1 0 27.230339583293155 0 0 -1 0 0 0 -1 forward_v I I I I #
coedge $-1 $412 $295 $298 $413 forward $181 $-1 #
coedge $-1 $301 $183 $184 $289 reversed $113 $-1 #
coedge $-1 $295 $412 $183 $287 reversed $181 $-1 #
edge $-1 $302 -11.286126860766807 $414 11.286126860766807 $286 $415 forward 7 unknown #
coedge $-1 $185 $184 $412 $416 forward $73 $-1 #
edge $-1 $293 -59.721060823389386 $414 59.721060823389386 $285 $417 forward 7 unknown #
coedge $-1 $298 $297 $185 $291 reversed $282 $-1 #
edge $-1 $418 -59.721060823389386 $292 59.721060823389386 $290 $419 forward 7 unknown #
vertex $-1 $187 $420 #
vertex $-1 $304 $421 #
straight-curve $-1 59.721060823389386 0 -11.286126860766807 0 -1 0 I I #
coedge $-1 $284 $286 $188 $296 reversed $181 $-1 #
edge $-1 $299 -27.230339583293155 $302 27.230339583293155 $295 $422 forward 7 unknown #
coedge $-1 $290 $189 $194 $305 forward $282 $-1 #
coedge $-1 $189 $290 $284 $413 reversed $282 $-1 #
vertex $-1 $190 $423 #
straight-curve $-1 0 27.230339583293155 11.286126860766807 -1 0 0 I I #
coedge $-1 $191 $285 $193 $304 reversed $113 $-1 #
vertex $-1 $296 $424 #
straight-curve $-1 0 -27.230339583293155 11.286126860766807 1 0 0 I I #
edge $-1 $196 -11.286126860766807 $293 11.286126860766807 $193 $425 forward 7 unknown #
edge $-1 $197 -11.286126860766807 $292 11.286126860766807 $194 $426 forward 7 unknown #
point $-1 59.721060823389386 -27.230339583293155 11.286126860766807 #
point $-1 59.721060823389386 27.230339583293155 11.286126860766807 #
face $-1 $-1 $214 $28 $-1 $427 reversed single #
loop $-1 $-1 $317 $199 #
plane-surface $-1 0 0 11.286126860766807 0 0 1 1 0 0 forward_v I I I I #
coedge $-1 $323 $322 $203 $316 forward $200 $-1 #
coedge $-1 $205 $202 $323 $428 reversed $121 $-1 #
coedge $-1 $202 $205 $326 $429 reversed $121 $-1 #
edge $-1 $328 -11.286126860766807 $324 11.286126860766807 $202 $430 forward 7 unknown #
coedge $-1 $204 $203 $330 $431 reversed $77 $-1 #
edge $-1 $432 -32.182681926407781 $320 -22.894075867555429 $311 $433 forward 7 unknown #
coedge $-1 $327 $326 $204 $318 forward $309 $-1 #
edge $-1 $319 22.894075867555429 $434 32.182681926407781 $317 $435 forward 7 unknown #
vertex $-1 $318 $436 #
vertex $-1 $316 $437 #
straight-curve $-1 -50.432454764537034 -22.953463595895702 0 0 0 -1 I I #
coedge $-1 $311 $208 $213 $332 forward $200 $-1 #
coedge $-1 $208 $311 $312 $428 forward $200 $-1 #
vertex $-1 $209 $438 #
straight-curve $-1 -27.538378896981605 -26.730339583293155 -11.286126860766807 -1 0 0 I I #
coedge $-1 $317 $210 $313 $429 forward $309 $-1 #
coedge $-1 $210 $317 $212 $331 forward $309 $-1 #
vertex $-1 $211 $439 #
straight-curve $-1 -27.538378896981605 -26.730339583293155 11.286126860766807 1 0 0 I I #
coedge $-1 $213 $212 $315 $431 forward $214 $-1 #
edge $-1 $434 22.953463595895702 $216 26.730339583293155 $212 $440 forward 7 unknown #
edge $-1 $215 -26.730339583293155 $432 -22.953463595895702 $213 $441 forward 7 unknown #
point $-1 -59.721060823389386 -26.730339583293155 -11.286126860766807 #
point $-1 -59.721060823389386 -26.730339583293155 11.286126860766807 #
face $-1 $-1 $442 $29 $-1 $443 reversed single #
loop $-1 $-1 $229 $218 #
plane-surface $-1 0 0 11.286126860766807 0 0 1 1 0 0 forward_v I I I I #
coedge $-1 $224 $221 $444 $445 reversed $129 $-1 #
coedge $-1 $221 $224 $446 $447 reversed $129 $-1 #
coedge $-1 $448 $449 $221 $341 forward $442 $-1 #
edge $-1 $450 -11.286126860766807 $451 11.286126860766807 $340 $452 forward 7 unknown #
coedge $-1 $444 $227 $222 $343 forward $219 $-1 #
edge $-1 $232 -14.309388788495941 $347 -10.532512801098488 $342 $453 forward 7 unknown #
coedge $-1 $229 $446 $223 $345 forward $336 $-1 #
edge $-1 $346 10.532512801098488 $231 14.309388788495941 $344 $454 forward 7 unknown #
vertex $-1 $345 $455 #
vertex $-1 $343 $456 #
straight-curve $-1 50.432454764537027 -22.953463595895702 0 0 0 -1 I I #
coedge $-1 $449 $448 $226 $350 forward $442 $-1 #
edge $-1 $355 -11.286126860766807 $352 11.286126860766807 $349 $457 forward 7 unknown #
coedge $-1 $227 $444 $449 $458 forward $219 $-1 #
vertex $-1 $350 $459 #
straight-curve $-1 27.538378896981602 -26.730339583293155 -11.286126860766807 -1 0 0 I I #
coedge $-1 $446 $229 $448 $460 forward $336 $-1 #
vertex $-1 $460 $461 #
straight-curve $-1 27.538378896981602 -26.730339583293155 11.286126860766807 1 0 0 I I #
point $-1 50.432454764537027 -26.730339583293155 11.286126860766807 #
point $-1 50.432454764537027 -26.730339583293155 -11.286126860766807 #
loop $-1 $-1 $242 $234 #
plane-surface $-1 0 -27.230339583293155 0 0 1 0 0 0 1 forward_v I I I I #
coedge $-1 $362 $237 $239 $366 reversed $137 $-1 #
coedge $-1 $237 $361 $462 $463 reversed $137 $-1 #
coedge $-1 $245 $240 $237 $364 forward $235 $-1 #
edge $-1 $367 -40.941184785584511 $464 -38.104786484308676 $363 $465 forward 7 unknown #
coedge $-1 $239 $238 $370 $466 reversed $85 $-1 #
edge $-1 $467 -4.9355381450948836e-014 $367 5.672796754553902 $361 $468 forward 7 unknown #
vertex $-1 $241 $469 #
straight-curve $-1 -6.4065118518802429 -24.393941282017316 11.286126860766807 -1 0 0 I I #
coedge $-1 $462 $242 $245 $374 reversed $359 $-1 #
coedge $-1 $242 $462 $365 $466 forward $359 $-1 #
vertex $-1 $243 $470 #
straight-curve $-1 -7.3930008315623255 -27.230339583293159 33.047199970052375 0 0 1 I I #
straight-curve $-1 -7.3930008315623255 -27.23033958329313 6.3733407169379319 0 -0.49999998660252726 -0.86602541151947299 I I #
edge $-1 $464 -18.233046575958646 $246 -7.3930008315623255 $369 $471 forward 7 unknown #
point $-1 -7.3930008315623255 -27.230339583293155 11.286126860766807 #
point $-1 -7.3930008315623255 -24.39394128201732 11.286126860766807 #
edge $-1 $472 1 $472 0 $249 $-1 forward 7 unknown #
vertex $-1 $250 $473 #
ellipse-curve $-1 -15.135890648988266 -23.409486174255015 7.4425607555543651 0 -0.86602541151947299 0.49999998660252726 1 0 0 1 I I #
point $-1 -14.135890648988266 -25.812140432655255 8.8297337888523764 #
edge $-1 $474 1 $474 0 $253 $-1 forward 7 unknown #
vertex $-1 $254 $475 #
ellipse-curve $-1 -10.490156758532699 -23.409486174255015 7.4425607555543651 0 -0.86602541151947299 0.49999998660252726 1 0 0 1 I I #
point $-1 -9.4901567585326987 -25.812140432655255 8.8297337888523764 #
plane-surface $-1 0 0 11.286126860766807 0 0 1 1 0 0 forward_v I I I I #
coedge $-1 $396 $395 $388 $476 forward $258 $-1 #
coedge $-1 $388 $260 $262 $392 reversed $159 $-1 #
coedge $-1 $260 $387 $386 $476 reversed $159 $-1 #
coedge $-1 $268 $263 $260 $390 forward $269 $-1 #
edge $-1 $393 -21.603046412304721 $477 -11.491002901317554 $389 $478 forward 7 unknown #
coedge $-1 $262 $261 $396 $479 reversed $99 $-1 #
edge $-1 $480 -54.460679166586331 $393 -39.633600049462743 $387 $481 forward 7 unknown #
vertex $-1 $264 $482 #
straight-curve $-1 -2.0728553449333624 17.118296072305988 11.286126860766807 1 0 0 I I #
coedge $-1 $386 $265 $268 $400 reversed $258 $-1 #
coedge $-1 $265 $386 $391 $479 forward $258 $-1 #
vertex $-1 $266 $483 #
straight-curve $-1 -17.612270428698984 27.230339583293155 60.865818659949724 0 0 1 I I #
straight-curve $-1 -17.612270428698984 -9.911753813539633 40.272307292991229 0 0.68199835119979291 -0.73135370988377701 I I #
edge $-1 $477 -9.3208490489655347 $270 17.612270428698984 $395 $484 forward 7 unknown #
point $-1 -17.612270428698984 27.230339583293155 11.286126860766807 #
point $-1 -17.612270428698984 17.118296072305988 11.286126860766803 #
edge $-1 $485 1 $485 0 $273 $-1 forward 7 unknown #
vertex $-1 $274 $486 #
ellipse-curve $-1 -9.9170934350805524 19.514776745158162 3.3841450797311676 0 0.73135370988377701 0.68199835119979291 2 0 0 1 I I #
point $-1 -7.9170934350805524 22.17431782779958 5.8642072012425208 #
edge $-1 $487 1 $487 0 $277 $-1 forward 7 unknown #
vertex $-1 $278 $488 #
ellipse-curve $-1 1.6256720553471027 19.514776745158162 3.3841450797311676 0 0.73135370988377701 0.68199835119979291 2 0 0 1 I I #
point $-1 3.6256720553471027 22.17431782779958 5.8642072012425208 #
plane-surface $-1 59.721060823389386 0 0 -1 0 0 0 0 1 forward_v I I I I #
coedge $-1 $286 $284 $288 $416 reversed $181 $-1 #
edge $-1 $299 -11.286126860766807 $418 11.286126860766807 $298 $489 forward 7 unknown #
vertex $-1 $416 $490 #
straight-curve $-1 -59.721060823389386 -27.230339583293155 0 0 0 -1 I I #
edge $-1 $414 -27.230339583293155 $418 27.230339583293155 $412 $491 forward 7 unknown #
straight-curve $-1 0 -27.230339583293155 -11.286126860766807 -1 0 0 I I #
vertex $-1 $291 $492 #
straight-curve $-1 0 27.230339583293155 -11.286126860766807 1 0 0 I I #
point $-1 59.721060823389386 27.230339583293155 -11.286126860766807 #
point $-1 59.721060823389386 -27.230339583293155 -11.286126860766807 #
straight-curve $-1 -59.721060823389386 0 11.286126860766807 0 -1 0 I I #
point $-1 -59.721060823389386 27.230339583293155 11.286126860766807 #
point $-1 -59.721060823389386 -27.230339583293155 11.286126860766807 #
straight-curve $-1 59.721060823389386 -27.230339583293155 0 0 0 -1 I I #
straight-curve $-1 59.721060823389386 27.230339583293155 0 0 0 -1 I I #
plane-surface $-1 -59.721060823389386 0 0 1 0 0 0 0 -1 forward_v I I I I #
edge $-1 $320 10.532512801098488 $324 14.309388788495941 $323 $493 forward 7 unknown #
edge $-1 $328 -14.309388788495941 $319 -10.532512801098488 $326 $494 forward 7 unknown #
straight-curve $-1 -50.432454764537034 -26.730339583293155 0 0 0 -1 I I #
edge $-1 $434 -11.286126860766807 $432 11.286126860766807 $330 $495 forward 7 unknown #
vertex $-1 $431 $496 #
straight-curve $-1 -27.538378896981605 -22.953463595895702 -11.286126860766807 1 0 0 I I #
vertex $-1 $331 $497 #
straight-curve $-1 -27.538378896981605 -22.953463595895702 11.286126860766807 -1 0 0 I I #
point $-1 -50.432454764537034 -22.953463595895702 11.286126860766807 #
point $-1 -50.432454764537034 -22.953463595895702 -11.286126860766807 #
point $-1 -50.432454764537034 -26.730339583293155 -11.286126860766807 #
point $-1 -50.432454764537034 -26.730339583293155 11.286126860766807 #
straight-curve $-1 -59.721060823389386 0 11.286126860766807 0 -1 0 I I #
straight-curve $-1 -59.721060823389386 0 -11.286126860766807 0 1 0 I I #
loop $-1 $-1 $349 $335 #
plane-surface $-1 59.721060823389386 0 0 -1 0 0 0 0 1 forward_v I I I I #
coedge $-1 $351 $342 $338 $445 forward $219 $-1 #
edge $-1 $347 22.894075867555426 $450 32.182681926407781 $444 $498 forward 7 unknown #
coedge $-1 $344 $354 $339 $447 forward $336 $-1 #
edge $-1 $451 -32.182681926407781 $346 -22.894075867555426 $446 $499 forward 7 unknown #
coedge $-1 $349 $340 $354 $460 reversed $442 $-1 #
coedge $-1 $340 $349 $351 $458 reversed $442 $-1 #
vertex $-1 $458 $500 #
vertex $-1 $341 $501 #
straight-curve $-1 59.721060823389386 -22.953463595895702 0 0 0 1 I I #
straight-curve $-1 50.432454764537027 -12.420950794797214 -11.286126860766807 0 1 0 I I #
straight-curve $-1 50.432454764537027 -12.420950794797214 11.286126860766807 0 -1 0 I I #
point $-1 50.432454764537027 -22.953463595895702 11.286126860766807 #
point $-1 50.432454764537027 -22.953463595895702 -11.286126860766807 #
straight-curve $-1 59.721060823389386 -26.730339583293155 0 0 0 -1 I I #
edge $-1 $450 22.953463595895702 $352 26.730339583293155 $449 $502 forward 7 unknown #
point $-1 59.721060823389379 -26.730339583293155 -11.286126860766807 #
edge $-1 $355 -26.730339583293155 $451 -22.953463595895702 $448 $503 forward 7 unknown #
point $-1 59.721060823389379 -26.730339583293155 11.286126860766807 #
coedge $-1 $370 $369 $362 $463 forward $359 $-1 #
edge $-1 $464 21.761073109285569 $467 26.673859253114486 $462 $504 forward 7 unknown #
vertex $-1 $374 $505 #
straight-curve $-1 -18.233046575958646 -65.335126067601834 11.286126860766807 0 -1 0 I I #
edge $-1 $467 -11.826534724078403 $371 -0.9864889796820826 $370 $506 forward 7 unknown #
vertex $-1 $466 $507 #
straight-curve $-1 -18.233046575958646 -27.23033958329313 6.3733407169379319 0 0.49999998660252726 0.86602541151947299 I I #
point $-1 -18.233046575958646 -24.39394128201732 11.286126860766807 #
point $-1 -7.3930008315623255 -27.230339583293155 6.3733407169378893 #
straight-curve $-1 0 -27.230339583293155 11.286126860766807 1 0 0 I I #
vertex $-1 $377 $508 #
point $-1 -14.135890648988266 -23.409486174255015 7.4425607555543651 #
vertex $-1 $381 $509 #
point $-1 -9.4901567585326987 -23.409486174255015 7.4425607555543651 #
edge $-1 $477 49.579691799182918 $480 60.423531118231537 $386 $510 forward 7 unknown #
vertex $-1 $400 $511 #
straight-curve $-1 9.3208490489655347 38.721342484610709 11.286126860766807 0 1 0 I I #
edge $-1 $480 -11.393704393898897 $397 15.539415083765622 $396 $512 forward 7 unknown #
vertex $-1 $479 $513 #
straight-curve $-1 9.3208490489655347 -9.911753813539633 40.272307292991229 0 -0.68199835119979291 0.73135370988377701 I I #
point $-1 9.3208490489655347 17.118296072305988 11.286126860766803 #
point $-1 -17.612270428698984 27.230339583293159 0.44228754171818707 #
straight-curve $-1 0 27.230339583293155 11.286126860766807 -1 0 0 I I #
vertex $-1 $403 $514 #
point $-1 -7.9170934350805524 19.514776745158162 3.3841450797311676 #
vertex $-1 $407 $515 #
point $-1 3.6256720553471027 19.514776745158162 3.3841450797311676 #
straight-curve $-1 -59.721060823389386 27.230339583293155 0 0 0 -1 I I #
point $-1 -59.721060823389386 -27.230339583293155 -11.286126860766807 #
straight-curve $-1 -59.721060823389386 0 -11.286126860766807 0 1 0 I I #
point $-1 -59.721060823389386 27.230339583293155 -11.286126860766807 #
straight-curve $-1 -50.432454764537034 -12.420950794797214 -11.286126860766807 0 -1 0 I I #
straight-curve $-1 -50.432454764537034 -12.420950794797214 11.286126860766807 0 1 0 I I #
straight-curve $-1 -59.721060823389386 -22.953463595895702 0 0 0 -1 I I #
point $-1 -59.721060823389386 -22.953463595895702 -11.286126860766807 #
point $-1 -59.721060823389386 -22.953463595895702 11.286126860766807 #
straight-curve $-1 27.538378896981602 -22.953463595895702 -11.286126860766807 1 0 0 I I #
straight-curve $-1 27.538378896981602 -22.953463595895702 11.286126860766807 -1 0 0 I I #
point $-1 59.721060823389379 -22.953463595895702 -11.286126860766807 #
point $-1 59.721060823389379 -22.953463595895702 11.286126860766807 #
straight-curve $-1 59.721060823389386 0 -11.286126860766807 0 -1 0 I I #
straight-curve $-1 59.721060823389386 0 11.286126860766807 0 1 0 I I #
straight-curve $-1 -18.233046575958646 -27.230339583293159 33.047199970052375 0 0 -1 I I #
point $-1 -18.233046575958646 -27.230339583293155 11.286126860766807 #
straight-curve $-1 -6.4065118518802429 -27.230339583293155 6.3733407169378893 1 0 0 I I #
point $-1 -18.233046575958646 -27.230339583293155 6.3733407169378893 #
point $-1 -15.135890648988266 -22.543460762735542 6.9425607689518385 #
point $-1 -10.490156758532699 -22.543460762735542 6.9425607689518385 #
straight-curve $-1 9.3208490489655347 27.230339583293155 60.865818659949724 0 0 -1 I I #
point $-1 9.3208490489655347 27.230339583293155 11.286126860766807 #
straight-curve $-1 -2.0728553449333624 27.230339583293159 0.44228754171819062 -1 0 0 I I #
point $-1 9.3208490489655347 27.230339583293159 0.44228754171818707 #
point $-1 -9.9170934350805524 18.052069325390608 2.0201483773315818 #
point $-1 1.6256720553471027 18.052069325390608 2.0201483773315818 #
End-of-ACIS-data 