500 0 14 0           
7 Unknown 11 ACIS 5.0 NT 24 Thu Mar 25 16:55:53 1999 
-1 9.9999999999999995e-007 1e-010 
body $-1 $14 $-1 $15 #
body $-1 $16 $-1 $17 #
body $-1 $18 $-1 $19 #
body $-1 $20 $-1 $21 #
body $-1 $22 $-1 $23 #
body $-1 $24 $-1 $25 #
body $-1 $26 $-1 $27 #
body $-1 $28 $-1 $29 #
body $-1 $30 $-1 $31 #
body $-1 $32 $-1 $33 #
body $-1 $34 $-1 $35 #
body $-1 $36 $-1 $37 #
body $-1 $38 $-1 $39 #
body $-1 $40 $-1 $41 #
lump $-1 $-1 $42 $0 #
transform $-1 1 0 0 0 1 0 0 0 1 50.111392559587387 31.416770720918844 8.7863791890163974 1 rotate no_reflect no_shear #
lump $-1 $-1 $43 $1 #
transform $-1 1 0 0 0 1 0 0 0 1 50.111392559587387 31.416770720918844 8.7863791890163974 1 rotate no_reflect no_shear #
lump $-1 $-1 $44 $2 #
transform $-1 1 0 0 0 1 0 0 0 1 50.111392559587387 31.416770720918844 8.7863791890163974 1 rotate no_reflect no_shear #
lump $-1 $-1 $45 $3 #
transform $-1 1 0 0 0 1 0 0 0 1 50.111392559587387 31.416770720918844 8.7863791890163974 1 rotate no_reflect no_shear #
lump $-1 $-1 $46 $4 #
transform $-1 1 0 0 0 1 0 0 0 1 50.111392559587387 31.416770720918844 8.7863791890163974 1 rotate no_reflect no_shear #
lump $-1 $-1 $47 $5 #
transform $-1 1 0 0 0 1 0 0 0 1 50.111392559587387 31.416770720918844 8.7863791890163974 1 rotate no_reflect no_shear #
lump $-1 $-1 $48 $6 #
transform $-1 1 0 0 0 1 0 0 0 1 50.111392559587387 31.416770720918844 8.7863791890163974 1 rotate no_reflect no_shear #
lump $-1 $-1 $49 $7 #
transform $-1 1 0 0 0 1 0 0 0 1 50.111392559587387 31.416770720918844 8.7863791890163974 1 rotate no_reflect no_shear #
lump $-1 $-1 $50 $8 #
transform $-1 1 0 0 0 1 0 0 0 1 50.111392559587387 31.416770720918844 8.7863791890163974 1 rotate no_reflect no_shear #
lump $-1 $-1 $51 $9 #
transform $-1 1 0 0 0 1 0 0 0 1 50.111392559587387 31.416770720918844 8.7863791890163974 1 rotate no_reflect no_shear #
lump $-1 $-1 $52 $10 #
transform $-1 1 0 0 0 1 0 0 0 1 50.111392559587387 31.416770720918844 8.7863791890163974 1 rotate no_reflect no_shear #
lump $-1 $-1 $53 $11 #
transform $-1 1 0 0 0 1 0 0 0 1 50.111392559587387 31.416770720918844 8.7863791890163974 1 rotate no_reflect no_shear #
lump $-1 $-1 $54 $12 #
transform $-1 1 0 0 0 1 0 0 0 1 50.111392559587387 31.416770720918844 8.7863791890163974 1 rotate no_reflect no_shear #
lump $-1 $-1 $55 $13 #
transform $-1 1 0 0 0 1 0 0 0 1 50.111392559587387 31.416770720918844 8.7863791890163974 1 rotate no_reflect no_shear #
shell $-1 $-1 $-1 $56 $-1 $14 #
shell $-1 $-1 $-1 $57 $-1 $16 #
shell $-1 $-1 $-1 $58 $-1 $18 #
shell $-1 $-1 $-1 $59 $-1 $20 #
shell $-1 $-1 $-1 $60 $-1 $22 #
shell $-1 $-1 $-1 $61 $-1 $24 #
shell $-1 $-1 $-1 $62 $-1 $26 #
shell $-1 $-1 $-1 $63 $-1 $28 #
shell $-1 $-1 $-1 $64 $-1 $30 #
shell $-1 $-1 $-1 $65 $-1 $32 #
shell $-1 $-1 $-1 $66 $-1 $34 #
shell $-1 $-1 $-1 $67 $-1 $36 #
shell $-1 $-1 $-1 $68 $-1 $38 #
shell $-1 $-1 $-1 $69 $-1 $40 #
face $-1 $70 $71 $42 $-1 $72 forward single #
face $-1 $73 $74 $43 $-1 $75 forward single #
face $-1 $76 $77 $44 $-1 $78 reversed single #
face $-1 $79 $80 $45 $-1 $81 forward single #
face $-1 $82 $83 $46 $-1 $84 forward single #
face $-1 $85 $86 $47 $-1 $87 reversed single #
face $-1 $88 $89 $48 $-1 $90 forward single #
face $-1 $91 $92 $49 $-1 $93 forward single #
face $-1 $94 $95 $50 $-1 $96 reversed single #
face $-1 $97 $98 $51 $-1 $99 forward single #
face $-1 $100 $101 $52 $-1 $102 forward single #
face $-1 $103 $104 $53 $-1 $105 reversed single #
face $-1 $106 $107 $54 $-1 $108 forward single #
face $-1 $109 $110 $55 $-1 $111 forward single #
face $-1 $112 $113 $42 $-1 $114 reversed single #
loop $-1 $-1 $115 $56 #
plane-surface $-1 0 0 8.7863791890163974 0 0 1 1 0 0 forward_v I I I I #
face $-1 $116 $117 $43 $-1 $118 reversed single #
loop $-1 $-1 $119 $57 #
plane-surface $-1 0 -25.826239538533709 -1.5964943451354516 0 0 1 1 0 0 forward_v I I I I #
face $-1 $120 $121 $44 $-1 $122 reversed single #
loop $-1 $-1 $123 $58 #
plane-surface $-1 -33.080293999116151 61.862704769334741 116.57045916942127 -1 0 0 0 0.73135370988377701 0.68199835119979291 forward_v I I I I #
face $-1 $124 $125 $45 $-1 $126 forward single #
loop $-1 $127 $128 $59 #
cone-surface $-1 -45.245364399452747 27.42166481010663 4.6356469888789391 0 -0.73135370988377701 -0.68199835119979291 2 0 0 1 I I 0 1 2 forward I I I I #
face $-1 $129 $130 $46 $-1 $131 forward single #
loop $-1 $132 $133 $60 #
cone-surface $-1 -37.946322159250791 27.42166481010663 4.6356469888789391 0 -0.73135370988377701 -0.68199835119979291 2 0 0 1 I I 0 1 2 forward I I I I #
face $-1 $134 $135 $47 $-1 $136 reversed single #
loop $-1 $-1 $137 $61 #
plane-surface $-1 -8.0245977193224576 61.862704769334741 116.57045916942127 -1 0 0 0 0.73135370988377701 0.68199835119979291 forward_v I I I I #
face $-1 $138 $139 $48 $-1 $140 forward single #
loop $-1 $141 $142 $62 #
cone-surface $-1 -20.189668119659054 27.42166481010663 4.6356469888789391 0 -0.73135370988377701 -0.68199835119979291 2 0 0 1 I I 0 1 2 forward I I I I #
face $-1 $143 $144 $49 $-1 $145 forward single #
loop $-1 $146 $147 $63 #
cone-surface $-1 -12.890625879457097 27.42166481010663 4.6356469888789391 0 -0.73135370988377701 -0.68199835119979291 2 0 0 1 I I 0 1 2 forward I I I I #
face $-1 $148 $149 $50 $-1 $150 reversed single #
loop $-1 $-1 $151 $64 #
plane-surface $-1 17.031098560471236 61.862704769334741 116.57045916942127 -1 0 0 0 0.73135370988377701 0.68199835119979291 forward_v I I I I #
face $-1 $152 $153 $51 $-1 $154 forward single #
loop $-1 $155 $156 $65 #
cone-surface $-1 4.8660281601346398 27.42166481010663 4.6356469888789391 0 -0.73135370988377701 -0.68199835119979291 2 0 0 1 I I 0 1 2 forward I I I I #
face $-1 $157 $158 $52 $-1 $159 forward single #
loop $-1 $160 $161 $66 #
cone-surface $-1 12.165070400336596 27.42166481010663 4.6356469888789391 0 -0.73135370988377701 -0.68199835119979291 2 0 0 1 I I 0 1 2 forward I I I I #
face $-1 $162 $163 $53 $-1 $164 reversed single #
loop $-1 $-1 $165 $67 #
plane-surface $-1 42.086794840264929 61.862704769334741 116.57045916942127 -1 0 0 0 0.73135370988377701 0.68199835119979291 forward_v I I I I #
face $-1 $166 $167 $54 $-1 $168 forward single #
loop $-1 $169 $170 $68 #
cone-surface $-1 29.92172443992834 27.42166481010663 4.6356469888789391 0 -0.73135370988377701 -0.68199835119979291 2 0 0 1 I I 0 1 2 forward I I I I #
face $-1 $171 $172 $55 $-1 $173 forward single #
loop $-1 $174 $175 $69 #
cone-surface $-1 37.220766680130282 27.42166481010663 4.6356469888789391 0 -0.73135370988377701 -0.68199835119979291 2 0 0 1 I I 0 1 2 forward I I I I #
face $-1 $176 $177 $42 $-1 $178 reversed single #
loop $-1 $-1 $179 $70 #
plane-surface $-1 0 0 -8.7863791890163974 0 0 1 1 0 0 forward_v I I I I #
coedge $-1 $180 $181 $182 $183 forward $71 $-1 #
face $-1 $184 $185 $43 $-1 $186 reversed single #
loop $-1 $-1 $187 $73 #
plane-surface $-1 0 -25.826239538533709 -4.5964943451354516 0 0 1 1 0 0 forward_v I I I I #
coedge $-1 $188 $189 $190 $191 reversed $74 $-1 #
face $-1 $192 $193 $44 $-1 $194 reversed single #
loop $-1 $-1 $195 $76 #
plane-surface $-1 -41.595843279351769 -11.435600942458336 48.21868496549294 0 0.73135370988377701 0.68199835119979291 1 0 0 forward_v I I I I #
coedge $-1 $196 $197 $198 $199 reversed $77 $-1 #
face $-1 $-1 $200 $45 $-1 $201 forward single #
loop $-1 $202 $203 $79 #
cone-surface $-1 -45.245364399452747 25.735781458910264 3.0635353686154438 0 -0.73135370988377701 -0.68199835119979291 1 0 0 1 I I -0.70710678118654746 0.70710678118654746 1 forward I I I I #
loop $-1 $-1 $204 $59 #
coedge $-1 $128 $128 $205 $206 reversed $80 $-1 #
face $-1 $-1 $207 $46 $-1 $208 forward single #
loop $-1 $209 $210 $82 #
cone-surface $-1 -37.946322159250791 25.735781458910264 3.0635353686154438 0 -0.73135370988377701 -0.68199835119979291 1 0 0 1 I I -0.70710678118654746 0.70710678118654746 1 forward I I I I #
loop $-1 $-1 $211 $60 #
coedge $-1 $133 $133 $212 $213 reversed $83 $-1 #
face $-1 $214 $215 $47 $-1 $216 reversed single #
loop $-1 $-1 $217 $85 #
plane-surface $-1 -16.540146999558075 -11.435600942458336 48.21868496549294 0 0.73135370988377701 0.68199835119979291 1 0 0 forward_v I I I I #
coedge $-1 $218 $219 $220 $221 reversed $86 $-1 #
face $-1 $-1 $222 $48 $-1 $223 forward single #
loop $-1 $224 $225 $88 #
cone-surface $-1 -20.189668119659054 25.735781458910264 3.0635353686154438 0 -0.73135370988377701 -0.68199835119979291 1 0 0 1 I I -0.70710678118654746 0.70710678118654746 1 forward I I I I #
loop $-1 $-1 $226 $62 #
coedge $-1 $142 $142 $227 $228 reversed $89 $-1 #
face $-1 $-1 $229 $49 $-1 $230 forward single #
loop $-1 $231 $232 $91 #
cone-surface $-1 -12.890625879457097 25.735781458910264 3.0635353686154438 0 -0.73135370988377701 -0.68199835119979291 1 0 0 1 I I -0.70710678118654746 0.70710678118654746 1 forward I I I I #
loop $-1 $-1 $233 $63 #
coedge $-1 $147 $147 $234 $235 reversed $92 $-1 #
face $-1 $236 $237 $50 $-1 $238 reversed single #
loop $-1 $-1 $239 $94 #
plane-surface $-1 8.5155492802356179 -11.435600942458336 48.21868496549294 0 0.73135370988377701 0.68199835119979291 1 0 0 forward_v I I I I #
coedge $-1 $240 $241 $242 $243 reversed $95 $-1 #
face $-1 $-1 $244 $51 $-1 $245 forward single #
loop $-1 $246 $247 $97 #
cone-surface $-1 4.8660281601346398 25.735781458910264 3.0635353686154438 0 -0.73135370988377701 -0.68199835119979291 1 0 0 1 I I -0.70710678118654746 0.70710678118654746 1 forward I I I I #
loop $-1 $-1 $248 $65 #
coedge $-1 $156 $156 $249 $250 reversed $98 $-1 #
face $-1 $-1 $251 $52 $-1 $252 forward single #
loop $-1 $253 $254 $100 #
cone-surface $-1 12.165070400336596 25.735781458910264 3.0635353686154438 0 -0.73135370988377701 -0.68199835119979291 1 0 0 1 I I -0.70710678118654746 0.70710678118654746 1 forward I I I I #
loop $-1 $-1 $255 $66 #
coedge $-1 $161 $161 $256 $257 reversed $101 $-1 #
face $-1 $258 $259 $53 $-1 $260 reversed single #
loop $-1 $-1 $261 $103 #
plane-surface $-1 33.571245560029311 -11.435600942458336 48.21868496549294 0 0.73135370988377701 0.68199835119979291 1 0 0 forward_v I I I I #
coedge $-1 $262 $263 $264 $265 reversed $104 $-1 #
face $-1 $-1 $266 $54 $-1 $267 forward single #
loop $-1 $268 $269 $106 #
cone-surface $-1 29.92172443992834 25.735781458910264 3.0635353686154438 0 -0.73135370988377701 -0.68199835119979291 1 0 0 1 I I -0.70710678118654746 0.70710678118654746 1 forward I I I I #
loop $-1 $-1 $270 $68 #
coedge $-1 $170 $170 $271 $272 reversed $107 $-1 #
face $-1 $-1 $273 $55 $-1 $274 forward single #
loop $-1 $275 $276 $109 #
cone-surface $-1 37.220766680130282 25.735781458910264 3.0635353686154438 0 -0.73135370988377701 -0.68199835119979291 1 0 0 1 I I -0.70710678118654746 0.70710678118654746 1 forward I I I I #
loop $-1 $-1 $277 $69 #
coedge $-1 $175 $175 $278 $279 reversed $110 $-1 #
face $-1 $280 $281 $42 $-1 $282 reversed single #
loop $-1 $-1 $283 $112 #
plane-surface $-1 0 -31.416770720918844 0 0 1 0 0 0 1 forward_v I I I I #
coedge $-1 $284 $285 $286 $287 forward $113 $-1 #
coedge $-1 $288 $115 $289 $290 forward $71 $-1 #
coedge $-1 $115 $288 $291 $292 forward $71 $-1 #
coedge $-1 $293 $294 $115 $183 reversed $295 $-1 #
edge $-1 $296 -31.416770720918844 $297 31.416770720918844 $182 $298 forward 7 unknown #
face $-1 $299 $300 $43 $-1 $301 reversed single #
loop $-1 $-1 $302 $116 #
plane-surface $-1 0 -20.235708356148574 -3.0964943451354516 0 -1 0 0 0 -1 forward_v I I I I #
coedge $-1 $303 $304 $305 $306 reversed $117 $-1 #
coedge $-1 $307 $119 $308 $309 forward $74 $-1 #
coedge $-1 $119 $307 $310 $311 reversed $74 $-1 #
coedge $-1 $312 $313 $119 $191 forward $314 $-1 #
edge $-1 $315 7.3225885868817198 $316 18.503650951651991 $190 $317 forward 7 unknown #
face $-1 $318 $319 $44 $-1 $320 forward single #
loop $-1 $-1 $198 $120 #
plane-surface $-1 0 31.416770720918844 0 0 -1 0 0 0 -1 forward_v I I I I #
coedge $-1 $321 $322 $323 $324 reversed $121 $-1 #
coedge $-1 $197 $123 $325 $326 reversed $77 $-1 #
coedge $-1 $123 $196 $321 $327 reversed $77 $-1 #
coedge $-1 $323 $328 $123 $199 forward $193 $-1 #
edge $-1 $329 49.498850395694234 $330 56.020088257841763 $198 $331 forward 7 unknown #
loop $-1 $-1 $205 $124 #
plane-surface $-1 -41.595843279351769 -11.435600942458336 48.21868496549294 0 0.73135370988377701 0.68199835119979291 1 0 0 forward_v I I I I #
loop $-1 $-1 $332 $79 #
coedge $-1 $203 $203 $204 $333 reversed $125 $-1 #
coedge $-1 $204 $204 $203 $333 forward $127 $-1 #
coedge $-1 $205 $205 $128 $206 forward $200 $-1 #
edge $-1 $334 -5.8780447802124131e-016 $334 6.2831853071795996 $205 $335 forward 7 unknown #
loop $-1 $-1 $212 $129 #
plane-surface $-1 -41.595843279351769 -11.435600942458336 48.21868496549294 0 0.73135370988377701 0.68199835119979291 1 0 0 forward_v I I I I #
loop $-1 $-1 $336 $82 #
coedge $-1 $210 $210 $211 $337 reversed $130 $-1 #
coedge $-1 $211 $211 $210 $337 forward $132 $-1 #
coedge $-1 $212 $212 $133 $213 forward $207 $-1 #
edge $-1 $338 -5.8780447802124131e-016 $338 6.2831853071795996 $212 $339 forward 7 unknown #
face $-1 $340 $341 $47 $-1 $342 forward single #
loop $-1 $-1 $343 $134 #
plane-surface $-1 -25.055696279793693 61.862704769334741 116.57045916942127 1 0 0 0 -0.73135370988377701 -0.68199835119979291 forward_v I I I I #
coedge $-1 $344 $345 $346 $347 reversed $135 $-1 #
coedge $-1 $219 $137 $348 $349 reversed $86 $-1 #
coedge $-1 $137 $218 $344 $350 reversed $86 $-1 #
coedge $-1 $346 $351 $137 $221 forward $352 $-1 #
edge $-1 $353 49.498850395694234 $354 56.020088257841763 $220 $355 forward 7 unknown #
loop $-1 $-1 $227 $138 #
plane-surface $-1 -16.540146999558075 -11.435600942458336 48.21868496549294 0 0.73135370988377701 0.68199835119979291 1 0 0 forward_v I I I I #
loop $-1 $-1 $356 $88 #
coedge $-1 $225 $225 $226 $357 reversed $139 $-1 #
coedge $-1 $226 $226 $225 $357 forward $141 $-1 #
coedge $-1 $227 $227 $142 $228 forward $222 $-1 #
edge $-1 $358 -5.8780447802124131e-016 $358 6.2831853071795996 $227 $359 forward 7 unknown #
loop $-1 $-1 $234 $143 #
plane-surface $-1 -16.540146999558075 -11.435600942458336 48.21868496549294 0 0.73135370988377701 0.68199835119979291 1 0 0 forward_v I I I I #
loop $-1 $-1 $360 $91 #
coedge $-1 $232 $232 $233 $361 reversed $144 $-1 #
coedge $-1 $233 $233 $232 $361 forward $146 $-1 #
coedge $-1 $234 $234 $147 $235 forward $229 $-1 #
edge $-1 $362 -5.8780447802124131e-016 $362 6.2831853071795996 $234 $363 forward 7 unknown #
face $-1 $364 $365 $50 $-1 $366 forward single #
loop $-1 $-1 $367 $148 #
plane-surface $-1 0 61.862704769334741 116.57045916942127 1 0 0 0 -0.73135370988377701 -0.68199835119979291 forward_v I I I I #
coedge $-1 $368 $369 $370 $371 reversed $149 $-1 #
coedge $-1 $241 $151 $372 $373 reversed $95 $-1 #
coedge $-1 $151 $240 $368 $374 reversed $95 $-1 #
coedge $-1 $370 $375 $151 $243 forward $376 $-1 #
edge $-1 $377 49.498850395694234 $378 56.020088257841763 $242 $379 forward 7 unknown #
loop $-1 $-1 $249 $152 #
plane-surface $-1 8.5155492802356179 -11.435600942458336 48.21868496549294 0 0.73135370988377701 0.68199835119979291 1 0 0 forward_v I I I I #
loop $-1 $-1 $380 $97 #
coedge $-1 $247 $247 $248 $381 reversed $153 $-1 #
coedge $-1 $248 $248 $247 $381 forward $155 $-1 #
coedge $-1 $249 $249 $156 $250 forward $244 $-1 #
edge $-1 $382 -5.8780447802124131e-016 $382 6.2831853071795996 $249 $383 forward 7 unknown #
loop $-1 $-1 $256 $157 #
plane-surface $-1 8.5155492802356179 -11.435600942458336 48.21868496549294 0 0.73135370988377701 0.68199835119979291 1 0 0 forward_v I I I I #
loop $-1 $-1 $384 $100 #
coedge $-1 $254 $254 $255 $385 reversed $158 $-1 #
coedge $-1 $255 $255 $254 $385 forward $160 $-1 #
coedge $-1 $256 $256 $161 $257 forward $251 $-1 #
edge $-1 $386 -5.8780447802124131e-016 $386 6.2831853071795996 $256 $387 forward 7 unknown #
face $-1 $388 $389 $53 $-1 $390 forward single #
loop $-1 $-1 $391 $162 #
plane-surface $-1 25.055696279793693 61.862704769334741 116.57045916942127 1 0 0 0 -0.73135370988377701 -0.68199835119979291 forward_v I I I I #
coedge $-1 $392 $393 $394 $395 reversed $163 $-1 #
coedge $-1 $263 $165 $396 $397 reversed $104 $-1 #
coedge $-1 $165 $262 $392 $398 reversed $104 $-1 #
coedge $-1 $394 $399 $165 $265 forward $400 $-1 #
edge $-1 $401 49.498850395694234 $402 56.020088257841763 $264 $403 forward 7 unknown #
loop $-1 $-1 $271 $166 #
plane-surface $-1 33.571245560029311 -11.435600942458336 48.21868496549294 0 0.73135370988377701 0.68199835119979291 1 0 0 forward_v I I I I #
loop $-1 $-1 $404 $106 #
coedge $-1 $269 $269 $270 $405 reversed $167 $-1 #
coedge $-1 $270 $270 $269 $405 forward $169 $-1 #
coedge $-1 $271 $271 $170 $272 forward $266 $-1 #
edge $-1 $406 -5.8780447802124131e-016 $406 6.2831853071795996 $271 $407 forward 7 unknown #
loop $-1 $-1 $278 $171 #
plane-surface $-1 33.571245560029311 -11.435600942458336 48.21868496549294 0 0.73135370988377701 0.68199835119979291 1 0 0 forward_v I I I I #
loop $-1 $-1 $408 $109 #
coedge $-1 $276 $276 $277 $409 reversed $172 $-1 #
coedge $-1 $277 $277 $276 $409 forward $174 $-1 #
coedge $-1 $278 $278 $175 $279 forward $273 $-1 #
edge $-1 $410 -5.8780447802124131e-016 $410 6.2831853071795996 $278 $411 forward 7 unknown #
face $-1 $412 $413 $42 $-1 $414 reversed single #
loop $-1 $-1 $415 $176 #
plane-surface $-1 -50.111392559587387 0 0 1 0 0 0 0 -1 forward_v I I I I #
coedge $-1 $416 $291 $417 $418 forward $177 $-1 #
coedge $-1 $419 $179 $416 $420 forward $113 $-1 #
coedge $-1 $179 $419 $421 $422 forward $113 $-1 #
coedge $-1 $294 $293 $179 $287 reversed $295 $-1 #
edge $-1 $423 -31.416770720918844 $424 31.416770720918844 $286 $425 forward 7 unknown #
coedge $-1 $181 $180 $426 $427 forward $71 $-1 #
coedge $-1 $428 $429 $180 $290 reversed $413 $-1 #
edge $-1 $297 -50.111392559587387 $430 50.111392559587387 $289 $431 forward 7 unknown #
coedge $-1 $283 $432 $181 $292 reversed $177 $-1 #
edge $-1 $433 -50.111392559587387 $296 50.111392559587387 $291 $434 forward 7 unknown #
coedge $-1 $286 $182 $432 $435 forward $295 $-1 #
coedge $-1 $182 $286 $428 $436 reversed $295 $-1 #
loop $-1 $-1 $293 $412 #
vertex $-1 $183 $437 #
vertex $-1 $183 $438 #
straight-curve $-1 50.111392559587387 0 8.7863791890163974 0 1 0 I I #
face $-1 $439 $440 $43 $-1 $441 reversed single #
loop $-1 $-1 $442 $184 #
plane-surface $-1 -50.111392559587387 0 0 1 0 0 0 0 -1 forward_v I I I I #
coedge $-1 $443 $308 $313 $444 reversed $185 $-1 #
coedge $-1 $445 $187 $446 $447 reversed $117 $-1 #
coedge $-1 $187 $445 $443 $448 forward $117 $-1 #
coedge $-1 $313 $312 $187 $306 forward $314 $-1 #
edge $-1 $449 -18.503650951651991 $450 -7.3225885868817198 $305 $451 forward 7 unknown #
coedge $-1 $189 $188 $442 $452 reversed $74 $-1 #
coedge $-1 $302 $453 $188 $309 reversed $185 $-1 #
edge $-1 $315 -50.111392559587387 $454 50.111392559587387 $308 $455 forward 7 unknown #
coedge $-1 $456 $457 $189 $311 forward $440 $-1 #
edge $-1 $316 -50.111392559587387 $458 50.111392559587387 $310 $459 forward 7 unknown #
coedge $-1 $305 $190 $457 $460 forward $314 $-1 #
coedge $-1 $190 $305 $302 $444 forward $314 $-1 #
loop $-1 $-1 $190 $439 #
vertex $-1 $191 $461 #
vertex $-1 $460 $462 #
straight-curve $-1 50.111392559587387 -12.913119769266855 -1.5964943451354516 0 -1 0 I I #
face $-1 $-1 $463 $44 $-1 $464 reversed single #
loop $-1 $-1 $325 $192 #
plane-surface $-1 0 0 8.7863791890163974 0 0 1 1 0 0 forward_v I I I I #
coedge $-1 $465 $195 $197 $327 forward $121 $-1 #
coedge $-1 $195 $465 $466 $467 reversed $121 $-1 #
coedge $-1 $468 $198 $195 $324 forward $193 $-1 #
edge $-1 $330 12.282372359440267 $469 29.313470919911502 $323 $470 forward 7 unknown #
coedge $-1 $471 $472 $196 $326 forward $319 $-1 #
edge $-1 $473 -5.5957342027478063 $329 0.4854183362514739 $325 $474 forward 7 unknown #
edge $-1 $330 -62.833541441837717 $473 -53.916873933329626 $197 $475 forward 7 unknown #
coedge $-1 $198 $468 $471 $476 reversed $193 $-1 #
vertex $-1 $476 $477 #
vertex $-1 $199 $478 #
straight-curve $-1 -33.080293999116151 31.416770720918844 58.285229584710635 0 0 -1 I I #
coedge $-1 $332 $332 $-1 $479 reversed $202 $-1 #
edge $-1 $480 0 $480 6.2831853071796004 $203 $481 forward 7 unknown #
vertex $-1 $206 $482 #
ellipse-curve $-1 -45.245364399452747 28.376194451419209 5.5257602579426308 0 0.73135370988377701 0.68199835119979291 2 0 0 1 I I #
coedge $-1 $336 $336 $-1 $483 reversed $209 $-1 #
edge $-1 $484 0 $484 6.2831853071796004 $210 $485 forward 7 unknown #
vertex $-1 $213 $486 #
ellipse-curve $-1 -37.946322159250791 28.376194451419209 5.5257602579426308 0 0.73135370988377701 0.68199835119979291 2 0 0 1 I I #
face $-1 $-1 $352 $47 $-1 $487 reversed single #
loop $-1 $-1 $488 $214 #
plane-surface $-1 0 0 8.7863791890163974 0 0 1 1 0 0 forward_v I I I I #
coedge $-1 $489 $490 $491 $492 reversed $215 $-1 #
coedge $-1 $493 $217 $219 $350 forward $135 $-1 #
coedge $-1 $217 $493 $489 $494 forward $135 $-1 #
coedge $-1 $491 $220 $217 $347 forward $352 $-1 #
edge $-1 $354 -0.24547578045658014 $495 16.785622780014656 $346 $496 forward 7 unknown #
coedge $-1 $497 $498 $218 $349 forward $341 $-1 #
edge $-1 $499 -5.5957342027478063 $353 0.4854183362514739 $348 $500 forward 7 unknown #
edge $-1 $354 -62.833541441837717 $499 -53.916873933329626 $219 $501 forward 7 unknown #
coedge $-1 $220 $491 $497 $502 reversed $352 $-1 #
loop $-1 $-1 $491 $340 #
vertex $-1 $502 $503 #
vertex $-1 $221 $504 #
straight-curve $-1 -8.0245977193224576 31.416770720918844 58.285229584710635 0 0 -1 I I #
coedge $-1 $356 $356 $-1 $505 reversed $224 $-1 #
edge $-1 $506 0 $506 6.2831853071796004 $225 $507 forward 7 unknown #
vertex $-1 $228 $508 #
ellipse-curve $-1 -20.189668119659054 28.376194451419209 5.5257602579426308 0 0.73135370988377701 0.68199835119979291 2 0 0 1 I I #
coedge $-1 $360 $360 $-1 $509 reversed $231 $-1 #
edge $-1 $510 0 $510 6.2831853071796004 $232 $511 forward 7 unknown #
vertex $-1 $235 $512 #
ellipse-curve $-1 -12.890625879457097 28.376194451419209 5.5257602579426308 0 0.73135370988377701 0.68199835119979291 2 0 0 1 I I #
face $-1 $-1 $376 $50 $-1 $513 reversed single #
loop $-1 $-1 $514 $236 #
plane-surface $-1 0 0 8.7863791890163974 0 0 1 1 0 0 forward_v I I I I #
coedge $-1 $515 $516 $517 $518 reversed $237 $-1 #
coedge $-1 $519 $239 $241 $374 forward $149 $-1 #
coedge $-1 $239 $519 $515 $520 forward $149 $-1 #
coedge $-1 $517 $242 $239 $371 forward $376 $-1 #
edge $-1 $378 -12.773323920353427 $521 4.2577746401178089 $370 $522 forward 7 unknown #
coedge $-1 $523 $524 $240 $373 forward $365 $-1 #
edge $-1 $525 -5.5957342027478063 $377 0.4854183362514739 $372 $526 forward 7 unknown #
edge $-1 $378 -62.833541441837717 $525 -53.916873933329626 $241 $527 forward 7 unknown #
coedge $-1 $242 $517 $523 $528 reversed $376 $-1 #
loop $-1 $-1 $517 $364 #
vertex $-1 $528 $529 #
vertex $-1 $243 $530 #
straight-curve $-1 17.031098560471236 31.416770720918844 58.285229584710635 0 0 -1 I I #
coedge $-1 $380 $380 $-1 $531 reversed $246 $-1 #
edge $-1 $532 0 $532 6.2831853071796004 $247 $533 forward 7 unknown #
vertex $-1 $250 $534 #
ellipse-curve $-1 4.8660281601346398 28.376194451419209 5.5257602579426308 0 0.73135370988377701 0.68199835119979291 2 0 0 1 I I #
coedge $-1 $384 $384 $-1 $535 reversed $253 $-1 #
edge $-1 $536 0 $536 6.2831853071796004 $254 $537 forward 7 unknown #
vertex $-1 $257 $538 #
ellipse-curve $-1 12.165070400336596 28.376194451419209 5.5257602579426308 0 0.73135370988377701 0.68199835119979291 2 0 0 1 I I #
face $-1 $-1 $400 $53 $-1 $539 reversed single #
loop $-1 $-1 $540 $258 #
plane-surface $-1 0 0 8.7863791890163974 0 0 1 1 0 0 forward_v I I I I #
coedge $-1 $541 $542 $543 $544 reversed $259 $-1 #
coedge $-1 $545 $261 $263 $398 forward $163 $-1 #
coedge $-1 $261 $545 $541 $546 forward $163 $-1 #
coedge $-1 $543 $264 $261 $395 forward $400 $-1 #
edge $-1 $402 -25.301172060250273 $547 -8.2700734997790377 $394 $548 forward 7 unknown #
coedge $-1 $549 $550 $262 $397 forward $389 $-1 #
edge $-1 $551 -5.5957342027478063 $401 0.4854183362514739 $396 $552 forward 7 unknown #
edge $-1 $402 -62.833541441837717 $551 -53.916873933329626 $263 $553 forward 7 unknown #
coedge $-1 $264 $543 $549 $554 reversed $400 $-1 #
loop $-1 $-1 $543 $388 #
vertex $-1 $554 $555 #
vertex $-1 $265 $556 #
straight-curve $-1 42.086794840264929 31.416770720918844 58.285229584710635 0 0 -1 I I #
coedge $-1 $404 $404 $-1 $557 reversed $268 $-1 #
edge $-1 $558 0 $558 6.2831853071796004 $269 $559 forward 7 unknown #
vertex $-1 $272 $560 #
ellipse-curve $-1 29.92172443992834 28.376194451419209 5.5257602579426308 0 0.73135370988377701 0.68199835119979291 2 0 0 1 I I #
coedge $-1 $408 $408 $-1 $561 reversed $275 $-1 #
edge $-1 $562 0 $562 6.2831853071796004 $276 $563 forward 7 unknown #
vertex $-1 $279 $564 #
ellipse-curve $-1 37.220766680130282 28.376194451419209 5.5257602579426308 0 0.73135370988377701 0.68199835119979291 2 0 0 1 I I #
face $-1 $-1 $295 $42 $-1 $565 reversed single #
loop $-1 $-1 $428 $280 #
plane-surface $-1 0 31.416770720918844 0 0 -1 0 0 0 -1 forward_v I I I I #
coedge $-1 $566 $426 $429 $567 forward $281 $-1 #
coedge $-1 $432 $283 $284 $420 reversed $177 $-1 #
coedge $-1 $426 $566 $283 $418 reversed $281 $-1 #
edge $-1 $433 -8.7863791890163974 $568 8.7863791890163974 $417 $569 forward 7 unknown #
coedge $-1 $285 $284 $566 $570 forward $113 $-1 #
edge $-1 $424 -50.111392559587387 $568 50.111392559587387 $416 $571 forward 7 unknown #
coedge $-1 $429 $428 $285 $422 reversed $413 $-1 #
edge $-1 $572 -50.111392559587387 $423 50.111392559587387 $421 $573 forward 7 unknown #
vertex $-1 $287 $574 #
vertex $-1 $435 $575 #
straight-curve $-1 50.111392559587387 0 -8.7863791890163974 0 -1 0 I I #
coedge $-1 $415 $417 $288 $427 reversed $281 $-1 #
edge $-1 $430 -31.416770720918844 $433 31.416770720918844 $426 $576 forward 7 unknown #
coedge $-1 $421 $289 $294 $436 forward $413 $-1 #
coedge $-1 $289 $421 $415 $567 reversed $413 $-1 #
vertex $-1 $290 $577 #
straight-curve $-1 0 31.416770720918844 8.7863791890163974 -1 0 0 I I #
coedge $-1 $291 $416 $293 $435 reversed $177 $-1 #
vertex $-1 $427 $578 #
straight-curve $-1 0 -31.416770720918844 8.7863791890163974 1 0 0 I I #
edge $-1 $296 -8.7863791890163974 $424 8.7863791890163974 $293 $579 forward 7 unknown #
edge $-1 $297 -8.7863791890163974 $423 8.7863791890163974 $294 $580 forward 7 unknown #
point $-1 50.111392559587387 -31.416770720918844 8.7863791890163974 #
point $-1 50.111392559587387 31.416770720918844 8.7863791890163974 #
face $-1 $-1 $314 $43 $-1 $581 reversed single #
loop $-1 $-1 $310 $299 #
plane-surface $-1 0 -31.416770720918844 0 0 1 0 0 0 1 forward_v I I I I #
coedge $-1 $582 $583 $307 $452 forward $300 $-1 #
coedge $-1 $453 $302 $304 $448 reversed $185 $-1 #
edge $-1 $450 -3.0482471725677258 $315 -0.048247172567725816 $313 $584 forward 7 unknown #
coedge $-1 $304 $303 $585 $586 reversed $117 $-1 #
coedge $-1 $457 $456 $303 $447 forward $440 $-1 #
edge $-1 $587 -50.111392559587387 $449 50.111392559587387 $446 $588 forward 7 unknown #
edge $-1 $589 -50.111392559587387 $450 50.111392559587387 $443 $590 forward 7 unknown #
vertex $-1 $447 $591 #
vertex $-1 $306 $592 #
straight-curve $-1 50.111392559587387 -12.913119769266855 -4.5964943451354516 0 1 0 I I #
edge $-1 $458 -18.503650951651991 $454 -7.3225885868817198 $442 $593 forward 7 unknown #
coedge $-1 $308 $443 $582 $594 reversed $185 $-1 #
vertex $-1 $452 $595 #
straight-curve $-1 0 -20.235708356148574 -1.5964943451354516 -1 0 0 I I #
coedge $-1 $446 $310 $583 $596 forward $440 $-1 #
coedge $-1 $310 $446 $312 $460 reversed $440 $-1 #
vertex $-1 $596 $597 #
straight-curve $-1 0 -31.416770720918844 -1.5964943451354516 -1 0 0 I I #
edge $-1 $316 1.5964943451354516 $449 4.5964943451354516 $312 $598 forward 7 unknown #
point $-1 50.111392559587387 -20.235708356148574 -1.5964943451354516 #
point $-1 50.111392559587387 -31.416770720918844 -1.5964943451354516 #
loop $-1 $-1 $466 $318 #
plane-surface $-1 -50.111392559587387 0 0 1 0 0 0 0 -1 forward_v I I I I #
coedge $-1 $322 $321 $472 $599 reversed $121 $-1 #
coedge $-1 $600 $601 $322 $467 forward $463 $-1 #
edge $-1 $469 -41.301553880354845 $602 -32.384886371846761 $466 $603 forward 7 unknown #
coedge $-1 $328 $323 $601 $604 reversed $193 $-1 #
vertex $-1 $324 $605 #
straight-curve $-1 -20.797921639675884 31.416770720918841 2.265141326868882 -1 0 0 I I #
coedge $-1 $606 $325 $328 $476 forward $319 $-1 #
coedge $-1 $325 $606 $465 $599 forward $319 $-1 #
vertex $-1 $326 $607 #
straight-curve $-1 -33.080293999116151 30.93135238466737 8.7863791890164009 0 1 0 I I #
straight-curve $-1 -33.080293999116151 -11.435600942458336 48.21868496549294 0 -0.68199835119979291 0.73135370988377701 I I #
edge $-1 $329 33.080293999116151 $608 50.111392559587387 $328 $609 forward 7 unknown #
point $-1 -33.080293999116151 31.416770720918844 8.7863791890163974 #
point $-1 -33.080293999116151 31.416770720918848 2.2651413268688714 #
edge $-1 $610 1 $610 0 $332 $-1 forward 7 unknown #
vertex $-1 $333 $611 #
ellipse-curve $-1 -45.245364399452747 26.467135168794041 3.7455337198152368 0 0.73135370988377701 0.68199835119979291 2 0 0 1 I I #
point $-1 -43.245364399452747 28.37619445141922 5.5257602579426424 #
edge $-1 $612 1 $612 0 $336 $-1 forward 7 unknown #
vertex $-1 $337 $613 #
ellipse-curve $-1 -37.946322159250791 26.467135168794041 3.7455337198152368 0 0.73135370988377701 0.68199835119979291 2 0 0 1 I I #
point $-1 -35.946322159250791 28.37619445141922 5.5257602579426424 #
plane-surface $-1 0 31.416770720918844 0 0 -1 0 0 0 -1 forward_v I I I I #
coedge $-1 $498 $497 $490 $614 forward $341 $-1 #
coedge $-1 $490 $343 $345 $494 reversed $215 $-1 #
coedge $-1 $343 $489 $488 $614 reversed $215 $-1 #
coedge $-1 $351 $346 $343 $492 forward $352 $-1 #
edge $-1 $495 -56.020088257841763 $615 -49.498850395694234 $491 $616 forward 7 unknown #
coedge $-1 $345 $344 $498 $617 reversed $135 $-1 #
edge $-1 $618 53.916873933329626 $495 62.833541441837717 $489 $619 forward 7 unknown #
vertex $-1 $347 $620 #
straight-curve $-1 -8.2700734997790377 31.416770720918841 2.265141326868882 -1 0 0 I I #
coedge $-1 $488 $348 $351 $502 forward $341 $-1 #
coedge $-1 $348 $488 $493 $617 forward $341 $-1 #
vertex $-1 $349 $621 #
straight-curve $-1 -8.0245977193224576 30.93135238466737 8.7863791890164009 0 1 0 I I #
straight-curve $-1 -8.0245977193224576 -11.435600942458336 48.21868496549294 0 -0.68199835119979291 0.73135370988377701 I I #
edge $-1 $353 8.0245977193224576 $615 25.055696279793693 $351 $622 forward 7 unknown #
point $-1 -8.0245977193224576 31.416770720918844 8.7863791890163974 #
point $-1 -8.0245977193224576 31.416770720918848 2.2651413268688714 #
edge $-1 $623 1 $623 0 $356 $-1 forward 7 unknown #
vertex $-1 $357 $624 #
ellipse-curve $-1 -20.189668119659054 26.467135168794041 3.7455337198152368 0 0.73135370988377701 0.68199835119979291 2 0 0 1 I I #
point $-1 -18.189668119659054 28.37619445141922 5.5257602579426424 #
edge $-1 $625 1 $625 0 $360 $-1 forward 7 unknown #
vertex $-1 $361 $626 #
ellipse-curve $-1 -12.890625879457097 26.467135168794041 3.7455337198152368 0 0.73135370988377701 0.68199835119979291 2 0 0 1 I I #
point $-1 -10.890625879457097 28.37619445141922 5.5257602579426424 #
plane-surface $-1 0 31.416770720918844 0 0 -1 0 0 0 -1 forward_v I I I I #
coedge $-1 $524 $523 $516 $627 forward $365 $-1 #
coedge $-1 $516 $367 $369 $520 reversed $237 $-1 #
coedge $-1 $367 $515 $514 $627 reversed $237 $-1 #
coedge $-1 $375 $370 $367 $518 forward $376 $-1 #
edge $-1 $521 -56.020088257841763 $628 -49.498850395694234 $517 $629 forward 7 unknown #
coedge $-1 $369 $368 $524 $630 reversed $149 $-1 #
edge $-1 $631 53.916873933329626 $521 62.833541441837717 $515 $632 forward 7 unknown #
vertex $-1 $371 $633 #
straight-curve $-1 4.2577746401178089 31.416770720918841 2.265141326868882 -1 0 0 I I #
coedge $-1 $514 $372 $375 $528 forward $365 $-1 #
coedge $-1 $372 $514 $519 $630 forward $365 $-1 #
vertex $-1 $373 $634 #
straight-curve $-1 17.031098560471236 30.93135238466737 8.7863791890164009 0 1 0 I I #
straight-curve $-1 17.031098560471236 -11.435600942458336 48.21868496549294 0 -0.68199835119979291 0.73135370988377701 I I #
edge $-1 $377 -17.031098560471236 $628 0 $375 $635 forward 7 unknown #
point $-1 17.031098560471236 31.416770720918844 8.7863791890163974 #
point $-1 17.031098560471236 31.416770720918848 2.2651413268688714 #
edge $-1 $636 1 $636 0 $380 $-1 forward 7 unknown #
vertex $-1 $381 $637 #
ellipse-curve $-1 4.8660281601346398 26.467135168794041 3.7455337198152368 0 0.73135370988377701 0.68199835119979291 2 0 0 1 I I #
point $-1 6.8660281601346398 28.37619445141922 5.5257602579426424 #
edge $-1 $638 1 $638 0 $384 $-1 forward 7 unknown #
vertex $-1 $385 $639 #
ellipse-curve $-1 12.165070400336596 26.467135168794041 3.7455337198152368 0 0.73135370988377701 0.68199835119979291 2 0 0 1 I I #
point $-1 14.165070400336596 28.37619445141922 5.5257602579426424 #
plane-surface $-1 0 31.416770720918844 0 0 -1 0 0 0 -1 forward_v I I I I #
coedge $-1 $550 $549 $542 $640 forward $389 $-1 #
coedge $-1 $542 $391 $393 $546 reversed $259 $-1 #
coedge $-1 $391 $541 $540 $640 reversed $259 $-1 #
coedge $-1 $399 $394 $391 $544 forward $400 $-1 #
edge $-1 $547 -56.020088257841763 $641 -49.498850395694234 $543 $642 forward 7 unknown #
coedge $-1 $393 $392 $550 $643 reversed $163 $-1 #
edge $-1 $644 53.916873933329626 $547 62.833541441837717 $541 $645 forward 7 unknown #
vertex $-1 $395 $646 #
straight-curve $-1 16.785622780014656 31.416770720918841 2.265141326868882 -1 0 0 I I #
coedge $-1 $540 $396 $399 $554 forward $389 $-1 #
coedge $-1 $396 $540 $545 $643 forward $389 $-1 #
vertex $-1 $397 $647 #
straight-curve $-1 42.086794840264929 30.93135238466737 8.7863791890164009 0 1 0 I I #
straight-curve $-1 42.086794840264929 -11.435600942458336 48.21868496549294 0 -0.68199835119979291 0.73135370988377701 I I #
edge $-1 $401 -42.086794840264929 $641 -25.055696279793693 $399 $648 forward 7 unknown #
point $-1 42.086794840264929 31.416770720918844 8.7863791890163974 #
point $-1 42.086794840264929 31.416770720918848 2.2651413268688714 #
edge $-1 $649 1 $649 0 $404 $-1 forward 7 unknown #
vertex $-1 $405 $650 #
ellipse-curve $-1 29.92172443992834 26.467135168794041 3.7455337198152368 0 0.73135370988377701 0.68199835119979291 2 0 0 1 I I #
point $-1 31.92172443992834 28.37619445141922 5.5257602579426424 #
edge $-1 $651 1 $651 0 $408 $-1 forward 7 unknown #
vertex $-1 $409 $652 #
ellipse-curve $-1 37.220766680130282 26.467135168794041 3.7455337198152368 0 0.73135370988377701 0.68199835119979291 2 0 0 1 I I #
point $-1 39.220766680130282 28.37619445141922 5.5257602579426424 #
plane-surface $-1 50.111392559587387 0 0 -1 0 0 0 0 1 forward_v I I I I #
coedge $-1 $417 $415 $419 $570 reversed $281 $-1 #
edge $-1 $430 -8.7863791890163974 $572 8.7863791890163974 $429 $653 forward 7 unknown #
vertex $-1 $570 $654 #
straight-curve $-1 -50.111392559587387 -31.416770720918844 0 0 0 -1 I I #
edge $-1 $568 -31.416770720918844 $572 31.416770720918844 $566 $655 forward 7 unknown #
straight-curve $-1 0 -31.416770720918844 -8.7863791890163974 -1 0 0 I I #
vertex $-1 $422 $656 #
straight-curve $-1 0 31.416770720918844 -8.7863791890163974 1 0 0 I I #
point $-1 50.111392559587387 31.416770720918844 -8.7863791890163974 #
point $-1 50.111392559587387 -31.416770720918844 -8.7863791890163974 #
straight-curve $-1 -50.111392559587387 0 8.7863791890163974 0 -1 0 I I #
point $-1 -50.111392559587387 31.416770720918844 8.7863791890163974 #
point $-1 -50.111392559587387 -31.416770720918844 8.7863791890163974 #
straight-curve $-1 50.111392559587387 -31.416770720918844 0 0 0 -1 I I #
straight-curve $-1 50.111392559587387 31.416770720918844 0 0 0 -1 I I #
plane-surface $-1 50.111392559587387 0 0 -1 0 0 0 0 1 forward_v I I I I #
coedge $-1 $585 $442 $453 $594 forward $300 $-1 #
coedge $-1 $442 $585 $456 $596 reversed $300 $-1 #
straight-curve $-1 50.111392559587387 -20.235708356148574 -1.5482471725677258 0 0 1 I I #
coedge $-1 $583 $582 $445 $586 forward $300 $-1 #
edge $-1 $589 7.3225885868817198 $587 18.503650951651991 $585 $657 forward 7 unknown #
vertex $-1 $447 $658 #
straight-curve $-1 0 -31.416770720918844 -4.5964943451354516 1 0 0 I I #
vertex $-1 $586 $659 #
straight-curve $-1 0 -20.235708356148574 -4.5964943451354516 1 0 0 I I #
point $-1 50.111392559587387 -31.416770720918844 -4.5964943451354516 #
point $-1 50.111392559587387 -20.235708356148574 -4.5964943451354516 #
straight-curve $-1 -50.111392559587387 -12.913119769266855 -1.5964943451354516 0 1 0 I I #
edge $-1 $454 0.048247172567725816 $589 3.0482471725677258 $582 $660 forward 7 unknown #
point $-1 -50.111392559587387 -20.235708356148574 -1.5964943451354516 #
edge $-1 $458 1.5964943451354516 $587 4.5964943451354516 $583 $661 forward 7 unknown #
point $-1 -50.111392559587387 -31.416770720918844 -1.5964943451354516 #
straight-curve $-1 50.111392559587387 -31.416770720918844 0 0 0 -1 I I #
edge $-1 $602 -29.313470919911502 $473 -12.282372359440267 $472 $662 forward 7 unknown #
coedge $-1 $601 $466 $606 $663 reversed $463 $-1 #
coedge $-1 $466 $600 $468 $604 forward $463 $-1 #
vertex $-1 $467 $664 #
straight-curve $-1 -50.111392559587387 3.2491790725274328 32.471185981231102 0 -0.68199835119979291 0.73135370988377701 I I #
edge $-1 $608 -8.7863791890163974 $469 -2.2651413268688749 $468 $665 forward 7 unknown #
point $-1 -50.111392559587387 31.416770720918844 2.2651413268688749 #
coedge $-1 $472 $471 $600 $663 forward $319 $-1 #
point $-1 -33.080293999116151 25.335618181919564 8.7863791890164009 #
vertex $-1 $476 $666 #
straight-curve $-1 0 31.416770720918844 8.7863791890163974 -1 0 0 I I #
vertex $-1 $479 $667 #
point $-1 -43.245364399452747 26.467135168794041 3.7455337198152368 #
vertex $-1 $483 $668 #
point $-1 -35.946322159250791 26.467135168794041 3.7455337198152368 #
edge $-1 $615 -0.4854183362514739 $618 5.5957342027478063 $488 $669 forward 7 unknown #
vertex $-1 $614 $670 #
straight-curve $-1 -25.055696279793693 31.416770720918844 58.285229584710635 0 0 1 I I #
edge $-1 $618 -16.785622780014656 $499 0.24547578045658014 $498 $671 forward 7 unknown #
vertex $-1 $617 $672 #
straight-curve $-1 -25.055696279793693 -11.435600942458336 48.21868496549294 0 0.68199835119979291 -0.73135370988377701 I I #
point $-1 -25.055696279793693 31.416770720918848 2.2651413268688714 #
point $-1 -8.0245977193224576 25.335618181919564 8.7863791890164009 #
straight-curve $-1 0 31.416770720918844 8.7863791890163974 -1 0 0 I I #
vertex $-1 $505 $673 #
point $-1 -18.189668119659054 26.467135168794041 3.7455337198152368 #
vertex $-1 $509 $674 #
point $-1 -10.890625879457097 26.467135168794041 3.7455337198152368 #
edge $-1 $628 -0.4854183362514739 $631 5.5957342027478063 $514 $675 forward 7 unknown #
vertex $-1 $518 $676 #
straight-curve $-1 0 31.416770720918844 58.285229584710635 0 0 1 I I #
edge $-1 $631 -4.2577746401178089 $525 12.773323920353427 $524 $677 forward 7 unknown #
vertex $-1 $630 $678 #
straight-curve $-1 0 -11.435600942458336 48.21868496549294 0 0.68199835119979291 -0.73135370988377701 I I #
point $-1 0 31.416770720918848 2.2651413268688714 #
point $-1 17.031098560471236 25.335618181919564 8.7863791890164009 #
straight-curve $-1 0 31.416770720918844 8.7863791890163974 -1 0 0 I I #
vertex $-1 $531 $679 #
point $-1 6.8660281601346398 26.467135168794041 3.7455337198152368 #
vertex $-1 $535 $680 #
point $-1 14.165070400336596 26.467135168794041 3.7455337198152368 #
edge $-1 $641 -0.4854183362514739 $644 5.5957342027478063 $540 $681 forward 7 unknown #
vertex $-1 $544 $682 #
straight-curve $-1 25.055696279793693 31.416770720918844 58.285229584710635 0 0 1 I I #
edge $-1 $644 8.2700734997790377 $551 25.301172060250273 $550 $683 forward 7 unknown #
vertex $-1 $643 $684 #
straight-curve $-1 25.055696279793693 -11.435600942458336 48.21868496549294 0 0.68199835119979291 -0.73135370988377701 I I #
point $-1 25.055696279793693 31.416770720918848 2.2651413268688714 #
point $-1 42.086794840264929 25.335618181919564 8.7863791890164009 #
straight-curve $-1 0 31.416770720918844 8.7863791890163974 -1 0 0 I I #
vertex $-1 $557 $685 #
point $-1 31.92172443992834 26.467135168794041 3.7455337198152368 #
vertex $-1 $561 $686 #
point $-1 39.220766680130282 26.467135168794041 3.7455337198152368 #
straight-curve $-1 -50.111392559587387 31.416770720918844 0 0 0 -1 I I #
point $-1 -50.111392559587387 -31.416770720918844 -8.7863791890163974 #
straight-curve $-1 -50.111392559587387 0 -8.7863791890163974 0 1 0 I I #
point $-1 -50.111392559587387 31.416770720918844 -8.7863791890163974 #
straight-curve $-1 -50.111392559587387 -12.913119769266855 -4.5964943451354516 0 -1 0 I I #
point $-1 -50.111392559587387 -31.416770720918844 -4.5964943451354516 #
point $-1 -50.111392559587387 -20.235708356148574 -4.5964943451354516 #
straight-curve $-1 -50.111392559587387 -20.235708356148574 -1.5482471725677258 0 0 -1 I I #
straight-curve $-1 -50.111392559587387 -31.416770720918844 0 0 0 -1 I I #
straight-curve $-1 -20.797921639675884 25.335618181919568 8.7863791890163974 1 0 0 I I #
edge $-1 $608 -31.416770720918844 $602 -25.335618181919564 $600 $687 forward 7 unknown #
point $-1 -50.111392559587387 25.335618181919564 8.7863791890164009 #
straight-curve $-1 -50.111392559587387 31.416770720918844 0 0 0 -1 I I #
point $-1 -50.111392559587387 31.416770720918844 8.7863791890163974 #
point $-1 -45.245364399452747 25.004427749026487 2.3815370174156509 #
point $-1 -37.946322159250791 25.004427749026487 2.3815370174156509 #
straight-curve $-1 -25.055696279793693 30.93135238466737 8.7863791890164009 0 -1 0 I I #
point $-1 -25.055696279793693 31.416770720918844 8.7863791890163974 #
straight-curve $-1 -8.2700734997790377 25.335618181919568 8.7863791890163974 1 0 0 I I #
point $-1 -25.055696279793693 25.335618181919564 8.7863791890164009 #
point $-1 -20.189668119659054 25.004427749026487 2.3815370174156509 #
point $-1 -12.890625879457097 25.004427749026487 2.3815370174156509 #
straight-curve $-1 0 30.93135238466737 8.7863791890164009 0 -1 0 I I #
point $-1 0 31.416770720918844 8.7863791890163974 #
straight-curve $-1 4.2577746401178089 25.335618181919568 8.7863791890163974 1 0 0 I I #
point $-1 0 25.335618181919564 8.7863791890164009 #
point $-1 4.8660281601346398 25.004427749026487 2.3815370174156509 #
point $-1 12.165070400336596 25.004427749026487 2.3815370174156509 #
straight-curve $-1 25.055696279793693 30.93135238466737 8.7863791890164009 0 -1 0 I I #
point $-1 25.055696279793693 31.416770720918844 8.7863791890163974 #
straight-curve $-1 16.785622780014656 25.335618181919568 8.7863791890163974 1 0 0 I I #
point $-1 25.055696279793693 25.335618181919564 8.7863791890164009 #
point $-1 29.92172443992834 25.004427749026487 2.3815370174156509 #
point $-1 37.220766680130282 25.004427749026487 2.3815370174156509 #
straight-curve $-1 -50.111392559587387 0 8.7863791890163974 0 -1 0 I I #
End-of-ACIS-data 