500 0 4 0           
7 Unknown 11 ACIS 5.0 NT 24 Fri Mar 26 01:27:45 1999 
-1 9.9999999999999995e-007 1e-010 
body $-1 $4 $-1 $5 #
body $-1 $6 $-1 $7 #
body $-1 $8 $-1 $9 #
body $-1 $10 $-1 $11 #
lump $-1 $-1 $12 $0 #
transform $-1 1 0 0 0 1 0 0 0 1 41.555223242896815 17.710968800206036 4.062382864119038 1 rotate no_reflect no_shear #
lump $-1 $-1 $13 $1 #
transform $-1 1 0 0 0 1 0 0 0 1 41.555223242896815 17.710968800206036 4.062382864119038 1 rotate no_reflect no_shear #
lump $-1 $-1 $14 $2 #
transform $-1 1 0 0 0 1 0 0 0 1 41.555223242896815 17.710968800206036 4.062382864119038 1 rotate no_reflect no_shear #
lump $-1 $-1 $15 $3 #
transform $-1 1 0 0 0 1 0 0 0 1 41.555223242896815 17.710968800206036 4.062382864119038 1 rotate no_reflect no_shear #
shell $-1 $-1 $-1 $16 $-1 $4 #
shell $-1 $-1 $-1 $17 $-1 $6 #
shell $-1 $-1 $-1 $18 $-1 $8 #
shell $-1 $-1 $-1 $19 $-1 $10 #
face $-1 $20 $21 $12 $-1 $22 forward single #
face $-1 $23 $24 $13 $-1 $25 forward single #
face $-1 $26 $27 $14 $-1 $28 reversed single #
face $-1 $29 $30 $15 $-1 $31 forward single #
face $-1 $32 $33 $12 $-1 $34 reversed single #
loop $-1 $-1 $35 $16 #
plane-surface $-1 0 0 4.062382864119038 0 0 1 1 0 0 forward_v I I I I #
face $-1 $36 $37 $13 $-1 $38 reversed single #
loop $-1 $-1 $39 $17 #
plane-surface $-1 -41.555223242896815 0 0 1 0 0 0 0 -1 forward_v I I I I #
face $-1 $40 $41 $14 $-1 $42 reversed single #
loop $-1 $-1 $43 $18 #
plane-surface $-1 -12.885080809206436 -64.185741283364905 69.28942118320019 -1 0 0 0 -0.55919291073839883 0.82903756765294845 forward_v I I I I #
face $-1 $44 $45 $15 $-1 $46 forward single #
loop $-1 $47 $48 $19 #
cone-surface $-1 -18.614602512693459 -13.813727819579007 0.48557342443343776 0 0.55919291073839883 -0.82903756765294845 1.5 0 0 1 I I 0 1 1.5 forward I I I I #
face $-1 $49 $50 $12 $-1 $51 reversed single #
loop $-1 $-1 $52 $20 #
plane-surface $-1 0 0 -4.062382864119038 0 0 1 1 0 0 forward_v I I I I #
coedge $-1 $53 $54 $55 $56 forward $21 $-1 #
face $-1 $57 $58 $13 $-1 $59 forward single #
loop $-1 $-1 $60 $23 #
plane-surface $-1 0 17.710968800206036 0 0 -1 0 0 0 -1 forward_v I I I I #
coedge $-1 $61 $62 $63 $64 forward $24 $-1 #
face $-1 $65 $66 $14 $-1 $67 reversed single #
loop $-1 $-1 $68 $26 #
plane-surface $-1 -18.614602512693459 -17.710968800206032 0.38773878206730217 0 -0.55919291073839883 0.82903756765294845 1 0 0 forward_v I I I I #
coedge $-1 $69 $70 $71 $72 reversed $27 $-1 #
face $-1 $-1 $73 $15 $-1 $74 forward single #
loop $-1 $75 $76 $29 #
cone-surface $-1 -18.614602512693459 -12.221034049002435 -1.8756921499660102 0 0.55919291073839883 -0.82903756765294845 0.75 0 0 1 I I -0.70710678118654757 0.70710678118654757 0.75 forward I I I I #
loop $-1 $-1 $77 $19 #
coedge $-1 $48 $48 $78 $79 reversed $30 $-1 #
face $-1 $80 $81 $12 $-1 $82 reversed single #
loop $-1 $-1 $83 $32 #
plane-surface $-1 0 -17.710968800206036 0 0 1 0 0 0 1 forward_v I I I I #
coedge $-1 $84 $85 $86 $87 forward $33 $-1 #
coedge $-1 $88 $35 $89 $90 forward $21 $-1 #
coedge $-1 $35 $88 $91 $92 forward $21 $-1 #
coedge $-1 $93 $94 $35 $56 reversed $95 $-1 #
edge $-1 $96 -17.710968800206036 $97 17.710968800206036 $55 $98 forward 7 unknown #
face $-1 $99 $100 $13 $-1 $101 reversed single #
loop $-1 $-1 $63 $36 #
plane-surface $-1 -44.047747486988094 0 2.8060199656255396 0 0 1 1 0 0 forward_v I I I I #
coedge $-1 $102 $103 $62 $104 forward $37 $-1 #
coedge $-1 $105 $39 $106 $107 reversed $24 $-1 #
coedge $-1 $39 $105 $60 $104 reversed $24 $-1 #
coedge $-1 $108 $109 $39 $64 reversed $58 $-1 #
edge $-1 $110 -17.710968800206036 $111 17.710968800206036 $63 $112 forward 7 unknown #
face $-1 $113 $114 $14 $-1 $115 reversed single #
loop $-1 $-1 $116 $40 #
plane-surface $-1 -24.344124216180482 -64.185741283364905 69.28942118320019 1 0 0 0 0.55919291073839883 -0.82903756765294845 forward_v I I I I #
coedge $-1 $117 $118 $119 $120 reversed $41 $-1 #
coedge $-1 $70 $43 $121 $122 reversed $27 $-1 #
coedge $-1 $43 $69 $117 $123 reversed $27 $-1 #
coedge $-1 $119 $124 $43 $72 forward $125 $-1 #
edge $-1 $126 14.381901841476417 $127 19.829785627684942 $71 $128 forward 7 unknown #
loop $-1 $-1 $78 $44 #
plane-surface $-1 -18.614602512693459 -17.710968800206032 0.38773878206730217 0 -0.55919291073839883 0.82903756765294845 1 0 0 forward_v I I I I #
loop $-1 $-1 $129 $29 #
coedge $-1 $76 $76 $77 $130 reversed $45 $-1 #
coedge $-1 $77 $77 $76 $130 forward $47 $-1 #
coedge $-1 $78 $78 $48 $79 forward $73 $-1 #
edge $-1 $131 3.4645347762739991e-017 $131 6.2831853071796004 $78 $132 forward 7 unknown #
face $-1 $133 $134 $12 $-1 $135 reversed single #
loop $-1 $-1 $136 $49 #
plane-surface $-1 -41.555223242896815 0 0 1 0 0 0 0 -1 forward_v I I I I #
coedge $-1 $137 $91 $136 $138 forward $50 $-1 #
coedge $-1 $139 $52 $137 $140 forward $33 $-1 #
coedge $-1 $52 $139 $141 $142 forward $33 $-1 #
coedge $-1 $94 $93 $52 $87 reversed $95 $-1 #
edge $-1 $143 -17.710968800206036 $144 17.710968800206036 $86 $145 forward 7 unknown #
coedge $-1 $54 $53 $146 $147 forward $21 $-1 #
coedge $-1 $148 $149 $53 $90 reversed $134 $-1 #
edge $-1 $97 -41.555223242896815 $150 41.555223242896815 $89 $151 forward 7 unknown #
coedge $-1 $83 $152 $54 $92 reversed $50 $-1 #
edge $-1 $153 -41.555223242896815 $96 41.555223242896815 $91 $154 forward 7 unknown #
coedge $-1 $86 $55 $152 $155 forward $95 $-1 #
coedge $-1 $55 $86 $148 $156 reversed $95 $-1 #
loop $-1 $-1 $93 $133 #
vertex $-1 $56 $157 #
vertex $-1 $56 $158 #
straight-curve $-1 41.555223242896815 0 4.062382864119038 0 1 0 I I #
face $-1 $159 $160 $13 $-1 $161 reversed single #
loop $-1 $-1 $162 $57 #
plane-surface $-1 -44.047747486988094 0 -0.19398003437446043 0 0 1 1 0 0 forward_v I I I I #
coedge $-1 $163 $60 $164 $165 reversed $37 $-1 #
coedge $-1 $60 $163 $108 $166 reversed $37 $-1 #
edge $-1 $110 -2.8060199656255396 $167 0.19398003437446043 $60 $168 forward 7 unknown #
coedge $-1 $62 $61 $162 $169 forward $24 $-1 #
coedge $-1 $170 $171 $61 $107 forward $172 $-1 #
edge $-1 $173 -0.19398003437446043 $111 2.8060199656255396 $106 $174 forward 7 unknown #
coedge $-1 $175 $63 $103 $166 forward $58 $-1 #
coedge $-1 $63 $175 $170 $176 forward $58 $-1 #
vertex $-1 $104 $177 #
vertex $-1 $176 $178 #
straight-curve $-1 -41.555223242896815 0 2.8060199656255396 0 -1 0 I I #
face $-1 $-1 $125 $14 $-1 $179 forward single #
loop $-1 $-1 $180 $65 #
plane-surface $-1 0 -17.710968800206036 0 0 1 0 0 0 1 forward_v I I I I #
coedge $-1 $181 $182 $183 $184 reversed $66 $-1 #
coedge $-1 $185 $68 $70 $123 forward $41 $-1 #
coedge $-1 $68 $185 $181 $186 forward $41 $-1 #
coedge $-1 $183 $71 $68 $120 forward $125 $-1 #
edge $-1 $127 3.5777795528597061 $187 15.036822959833753 $119 $188 forward 7 unknown #
coedge $-1 $189 $190 $69 $122 forward $114 $-1 #
edge $-1 $191 -34.256971809532793 $126 -30.582327727481058 $121 $192 forward 7 unknown #
edge $-1 $127 -6.5713352431443894 $191 4.2801151229643262e-015 $70 $193 forward 7 unknown #
coedge $-1 $71 $183 $189 $194 forward $125 $-1 #
loop $-1 $-1 $183 $113 #
vertex $-1 $122 $195 #
vertex $-1 $72 $196 #
straight-curve $-1 -12.885080809206436 -32.092870641682453 4.0623828641190372 0 1 0 I I #
coedge $-1 $129 $129 $-1 $197 reversed $75 $-1 #
edge $-1 $198 0 $198 6.2831853071796004 $76 $199 forward 7 unknown #
vertex $-1 $79 $200 #
ellipse-curve $-1 -18.614602512693459 -14.987026907101775 2.225060823093167 0 -0.55919291073839883 0.82903756765294845 1.5 0 0 1 I I #
face $-1 $-1 $95 $12 $-1 $201 reversed single #
loop $-1 $-1 $148 $80 #
plane-surface $-1 0 17.710968800206036 0 0 -1 0 0 0 -1 forward_v I I I I #
coedge $-1 $146 $202 $83 $138 reversed $81 $-1 #
coedge $-1 $152 $83 $84 $140 reversed $50 $-1 #
edge $-1 $153 -4.062382864119038 $203 4.062382864119038 $136 $204 forward 7 unknown #
coedge $-1 $85 $84 $202 $205 forward $33 $-1 #
edge $-1 $144 -41.555223242896815 $203 41.555223242896815 $137 $206 forward 7 unknown #
coedge $-1 $149 $148 $85 $142 reversed $134 $-1 #
edge $-1 $207 -41.555223242896815 $143 41.555223242896815 $141 $208 forward 7 unknown #
vertex $-1 $87 $209 #
vertex $-1 $155 $210 #
straight-curve $-1 41.555223242896815 0 -4.062382864119038 0 -1 0 I I #
coedge $-1 $211 $136 $88 $147 reversed $81 $-1 #
edge $-1 $150 -17.710968800206036 $153 17.710968800206036 $146 $212 forward 7 unknown #
coedge $-1 $141 $89 $94 $156 forward $134 $-1 #
coedge $-1 $89 $141 $211 $213 reversed $134 $-1 #
vertex $-1 $90 $214 #
straight-curve $-1 0 17.710968800206036 4.062382864119038 -1 0 0 I I #
coedge $-1 $91 $137 $93 $155 reversed $50 $-1 #
vertex $-1 $147 $215 #
straight-curve $-1 0 -17.710968800206036 4.062382864119038 1 0 0 I I #
edge $-1 $96 -4.062382864119038 $144 4.062382864119038 $93 $216 forward 7 unknown #
edge $-1 $97 -4.062382864119038 $143 4.062382864119038 $94 $217 forward 7 unknown #
point $-1 41.555223242896815 -17.710968800206036 4.062382864119038 #
point $-1 41.555223242896815 17.710968800206036 4.062382864119038 #
face $-1 $-1 $172 $13 $-1 $218 reversed single #
loop $-1 $-1 $219 $99 #
plane-surface $-1 -46.540271731079372 0 1.3060199656255396 1 0 0 0 0 -1 forward_v I I I I #
coedge $-1 $220 $164 $105 $169 reversed $100 $-1 #
coedge $-1 $103 $102 $219 $221 reversed $37 $-1 #
coedge $-1 $162 $222 $102 $165 forward $100 $-1 #
edge $-1 $223 -2.4925242440912783 $167 2.4925242440912783 $102 $224 forward 7 unknown #
edge $-1 $110 -2.4925242440912783 $225 2.4925242440912783 $103 $226 forward 7 unknown #
vertex $-1 $104 $227 #
straight-curve $-1 -41.555223242896815 17.710968800206036 0 0 0 -1 I I #
edge $-1 $173 -17.710968800206036 $167 17.710968800206036 $162 $228 forward 7 unknown #
coedge $-1 $229 $106 $109 $176 reversed $172 $-1 #
coedge $-1 $106 $229 $220 $230 reversed $172 $-1 #
loop $-1 $-1 $106 $159 #
vertex $-1 $107 $231 #
straight-curve $-1 -41.555223242896815 -17.710968800206036 0 0 0 1 I I #
coedge $-1 $109 $108 $232 $233 forward $58 $-1 #
edge $-1 $234 -2.4925242440912783 $111 2.4925242440912783 $170 $235 forward 7 unknown #
point $-1 -41.555223242896815 17.710968800206036 2.8060199656255396 #
point $-1 -41.555223242896815 -17.710968800206036 2.8060199656255396 #
plane-surface $-1 0 0 4.062382864119038 0 0 1 1 0 0 forward_v I I I I #
coedge $-1 $190 $189 $182 $236 forward $114 $-1 #
coedge $-1 $182 $116 $118 $186 reversed $66 $-1 #
coedge $-1 $116 $181 $180 $236 reversed $66 $-1 #
coedge $-1 $124 $119 $116 $184 forward $125 $-1 #
edge $-1 $187 -19.829785627684942 $237 -14.381901841476417 $183 $238 forward 7 unknown #
coedge $-1 $118 $117 $190 $239 reversed $41 $-1 #
edge $-1 $240 -4.2801151229643262e-015 $187 6.5713352431443894 $181 $241 forward 7 unknown #
vertex $-1 $120 $242 #
straight-curve $-1 -9.3073012563467294 -12.263085013997509 4.062382864119038 -1 0 0 I I #
coedge $-1 $180 $121 $124 $194 reversed $114 $-1 #
coedge $-1 $121 $180 $185 $239 forward $114 $-1 #
vertex $-1 $122 $243 #
straight-curve $-1 -12.885080809206436 -17.710968800206036 34.644710591600095 0 0 1 I I #
straight-curve $-1 -12.885080809206436 -17.710968800206032 0.38773878206730217 0 -0.82903756765294845 -0.55919291073839883 I I #
edge $-1 $237 -24.344124216180482 $126 -12.885080809206436 $189 $244 forward 7 unknown #
point $-1 -12.885080809206436 -17.710968800206036 4.062382864119038 #
point $-1 -12.885080809206436 -12.263085013997511 4.062382864119038 #
edge $-1 $245 1 $245 0 $129 $-1 forward 7 unknown #
vertex $-1 $130 $246 #
ellipse-curve $-1 -18.614602512693459 -12.640428732056234 -1.2539139742262988 0 -0.55919291073839883 0.82903756765294845 1.5 0 0 1 I I #
point $-1 -17.114602512693459 -14.987026907101781 2.225060823093175 #
plane-surface $-1 41.555223242896815 0 0 -1 0 0 0 0 1 forward_v I I I I #
coedge $-1 $136 $211 $139 $205 reversed $81 $-1 #
vertex $-1 $205 $247 #
straight-curve $-1 -41.555223242896815 -17.710968800206036 0 0 0 -1 I I #
edge $-1 $203 -17.710968800206036 $207 17.710968800206036 $202 $248 forward 7 unknown #
straight-curve $-1 0 -17.710968800206036 -4.062382864119038 -1 0 0 I I #
vertex $-1 $142 $249 #
straight-curve $-1 0 17.710968800206036 -4.062382864119038 1 0 0 I I #
point $-1 41.555223242896815 17.710968800206036 -4.062382864119038 #
point $-1 41.555223242896815 -17.710968800206036 -4.062382864119038 #
coedge $-1 $202 $146 $149 $213 forward $81 $-1 #
straight-curve $-1 -41.555223242896815 0 4.062382864119038 0 -1 0 I I #
edge $-1 $150 -4.062382864119038 $207 4.062382864119038 $149 $250 forward 7 unknown #
point $-1 -41.555223242896815 17.710968800206036 4.062382864119038 #
point $-1 -41.555223242896815 -17.710968800206036 4.062382864119038 #
straight-curve $-1 41.555223242896815 -17.710968800206036 0 0 0 -1 I I #
straight-curve $-1 41.555223242896815 17.710968800206036 0 0 0 -1 I I #
plane-surface $-1 0 -17.710968800206036 0 0 1 0 0 0 1 forward_v I I I I #
coedge $-1 $251 $232 $163 $221 forward $160 $-1 #
coedge $-1 $222 $162 $171 $230 forward $100 $-1 #
edge $-1 $225 -1.5 $223 1.5 $163 $252 forward 7 unknown #
coedge $-1 $164 $220 $251 $253 forward $100 $-1 #
vertex $-1 $165 $254 #
straight-curve $-1 -44.047747486988094 17.710968800206036 -0.19398003437446043 1 0 0 I I #
vertex $-1 $166 $255 #
straight-curve $-1 -44.047747486988094 17.710968800206036 2.8060199656255396 -1 0 0 I I #
point $-1 -41.555223242896815 17.710968800206036 -0.19398003437446043 #
straight-curve $-1 -41.555223242896815 0 -0.19398003437446043 0 1 0 I I #
coedge $-1 $171 $170 $256 $257 forward $172 $-1 #
edge $-1 $173 -2.4925242440912783 $258 2.4925242440912783 $171 $259 forward 7 unknown #
point $-1 -41.555223242896815 -17.710968800206036 -0.19398003437446043 #
coedge $-1 $219 $256 $175 $233 reversed $160 $-1 #
edge $-1 $225 -17.710968800206036 $234 17.710968800206036 $232 $260 forward 7 unknown #
vertex $-1 $233 $261 #
straight-curve $-1 -44.047747486988094 -17.710968800206036 2.8060199656255396 1 0 0 I I #
edge $-1 $237 30.582327727481058 $240 34.256971809532793 $180 $262 forward 7 unknown #
vertex $-1 $194 $263 #
straight-curve $-1 -24.344124216180482 -32.092870641682453 4.0623828641190372 0 -1 0 I I #
edge $-1 $240 -15.036822959833753 $191 -3.5777795528597061 $190 $264 forward 7 unknown #
vertex $-1 $239 $265 #
straight-curve $-1 -24.344124216180482 -17.710968800206032 0.38773878206730217 0 0.82903756765294845 0.55919291073839883 I I #
point $-1 -24.344124216180482 -12.263085013997511 4.062382864119038 #
point $-1 -12.885080809206436 -17.710968800206036 0.38773878206729978 #
straight-curve $-1 0 -17.710968800206036 4.062382864119038 1 0 0 I I #
vertex $-1 $197 $266 #
point $-1 -17.114602512693459 -12.640428732056234 -1.2539139742262988 #
point $-1 -41.555223242896815 -17.710968800206036 -4.062382864119038 #
straight-curve $-1 -41.555223242896815 0 -4.062382864119038 0 1 0 I I #
point $-1 -41.555223242896815 17.710968800206036 -4.062382864119038 #
straight-curve $-1 -41.555223242896815 17.710968800206036 0 0 0 -1 I I #
coedge $-1 $256 $219 $222 $253 reversed $160 $-1 #
straight-curve $-1 -46.540271731079372 17.710968800206036 1.3060199656255396 0 0 -1 I I #
edge $-1 $258 -17.710968800206036 $223 17.710968800206036 $251 $267 forward 7 unknown #
point $-1 -46.540271731079372 17.710968800206036 -0.19398003437446043 #
point $-1 -46.540271731079372 17.710968800206036 2.8060199656255396 #
coedge $-1 $232 $251 $229 $257 reversed $160 $-1 #
edge $-1 $234 -1.5 $258 1.5 $256 $268 forward 7 unknown #
vertex $-1 $253 $269 #
straight-curve $-1 -44.047747486988094 -17.710968800206036 -0.19398003437446043 -1 0 0 I I #
straight-curve $-1 -46.540271731079372 0 2.8060199656255396 0 -1 0 I I #
point $-1 -46.540271731079372 -17.710968800206036 2.8060199656255396 #
straight-curve $-1 -24.344124216180482 -17.710968800206036 34.644710591600095 0 0 -1 I I #
point $-1 -24.344124216180482 -17.710968800206036 4.062382864119038 #
straight-curve $-1 -9.3073012563467294 -17.710968800206036 0.38773878206729784 1 0 0 I I #
point $-1 -24.344124216180482 -17.710968800206036 0.38773878206729978 #
point $-1 -18.614602512693459 -11.801639365948636 -2.4974703257057218 #
straight-curve $-1 -46.540271731079372 0 -0.19398003437446043 0 1 0 I I #
straight-curve $-1 -46.540271731079372 -17.710968800206036 1.3060199656255396 0 0 -1 I I #
point $-1 -46.540271731079372 -17.710968800206036 -0.19398003437446043 #
End-of-ACIS-data 