500 0 7 0           
7 Unknown 11 ACIS 5.0 NT 24 Thu Mar 25 18:45:34 1999 
-1 9.9999999999999995e-007 1e-010 
body $-1 $7 $-1 $8 #
body $-1 $9 $-1 $10 #
body $-1 $11 $-1 $12 #
body $-1 $13 $-1 $14 #
body $-1 $15 $-1 $16 #
body $-1 $17 $-1 $18 #
body $-1 $19 $-1 $20 #
lump $-1 $-1 $21 $0 #
transform $-1 1 0 0 0 1 0 0 0 1 56.975615710928679 32.61331052082123 6.8836609055773099 1 rotate no_reflect no_shear #
lump $-1 $-1 $22 $1 #
transform $-1 1 0 0 0 1 0 0 0 1 56.975615710928679 32.61331052082123 6.8836609055773099 1 rotate no_reflect no_shear #
lump $-1 $-1 $23 $2 #
transform $-1 1 0 0 0 1 0 0 0 1 56.975615710928679 32.61331052082123 6.8836609055773099 1 rotate no_reflect no_shear #
lump $-1 $-1 $24 $3 #
transform $-1 1 0 0 0 1 0 0 0 1 56.975615710928679 32.61331052082123 6.8836609055773099 1 rotate no_reflect no_shear #
lump $-1 $-1 $25 $4 #
transform $-1 1 0 0 0 1 0 0 0 1 56.975615710928679 32.61331052082123 6.8836609055773099 1 rotate no_reflect no_shear #
lump $-1 $-1 $26 $5 #
transform $-1 1 0 0 0 1 0 0 0 1 56.975615710928679 32.61331052082123 6.8836609055773099 1 rotate no_reflect no_shear #
lump $-1 $-1 $27 $6 #
transform $-1 1 0 0 0 1 0 0 0 1 56.975615710928679 32.61331052082123 6.8836609055773099 1 rotate no_reflect no_shear #
shell $-1 $-1 $-1 $28 $-1 $7 #
shell $-1 $-1 $-1 $29 $-1 $9 #
shell $-1 $-1 $-1 $30 $-1 $11 #
shell $-1 $-1 $-1 $31 $-1 $13 #
shell $-1 $-1 $-1 $32 $-1 $15 #
shell $-1 $-1 $-1 $33 $-1 $17 #
shell $-1 $-1 $-1 $34 $-1 $19 #
face $-1 $35 $36 $21 $-1 $37 forward single #
face $-1 $38 $39 $22 $-1 $40 reversed single #
face $-1 $41 $42 $23 $-1 $43 forward single #
face $-1 $44 $45 $24 $-1 $46 forward single #
face $-1 $47 $48 $25 $-1 $49 reversed single #
face $-1 $50 $51 $26 $-1 $52 forward single #
face $-1 $53 $54 $27 $-1 $55 forward single #
face $-1 $56 $57 $21 $-1 $58 reversed single #
loop $-1 $-1 $59 $28 #
plane-surface $-1 0 0 6.8836609055773099 0 0 1 1 0 0 forward_v I I I I #
face $-1 $60 $61 $22 $-1 $62 reversed single #
loop $-1 $-1 $63 $29 #
plane-surface $-1 -28.985977169139105 96.694388379513398 118.07919977998903 -1 0 0 0 0.85716730853699208 0.51503806187062418 forward_v I I I I #
face $-1 $64 $65 $23 $-1 $66 forward single #
loop $-1 $67 $68 $30 #
cone-surface $-1 -48.978576127560231 31.162119297659192 4.9242370205921695 0 -0.85716730853699208 -0.51503806187062418 0.5 0 0 1 I I 0 1 0.5 forward I I I I #
face $-1 $69 $70 $24 $-1 $71 forward single #
loop $-1 $72 $73 $31 #
cone-surface $-1 -36.983016752507552 31.162119297659192 4.9242370205921695 0 -0.85716730853699208 -0.51503806187062418 0.5 0 0 1 I I 0 1 0.5 forward I I I I #
face $-1 $74 $75 $25 $-1 $76 reversed single #
loop $-1 $-1 $77 $32 #
plane-surface $-1 -28.985977169139105 -130.28858086317064 62.169072576762026 -1 0 0 0 -0.85716730853699208 0.51503806187062418 forward_v I I I I #
face $-1 $78 $79 $26 $-1 $80 forward single #
loop $-1 $81 $82 $33 #
cone-surface $-1 -48.978576127560231 -31.162119297659192 4.9242370205921624 0 0.85716730853699208 -0.51503806187062418 0.5 0 0 1 I I 0 1 0.5 forward I I I I #
face $-1 $83 $84 $27 $-1 $85 forward single #
loop $-1 $86 $87 $34 #
cone-surface $-1 -36.983016752507552 -31.162119297659192 4.9242370205921624 0 0.85716730853699208 -0.51503806187062418 0.5 0 0 1 I I 0 1 0.5 forward I I I I #
face $-1 $88 $89 $21 $-1 $90 reversed single #
loop $-1 $-1 $91 $35 #
plane-surface $-1 0 0 -6.8836609055773099 0 0 1 1 0 0 forward_v I I I I #
coedge $-1 $92 $93 $94 $95 forward $36 $-1 #
face $-1 $96 $97 $22 $-1 $98 reversed single #
loop $-1 $-1 $99 $38 #
plane-surface $-1 -42.980796440033892 -0.98088196283599416 59.389978400704642 0 0.85716730853699208 0.51503806187062418 1 0 0 forward_v I I I I #
coedge $-1 $100 $101 $102 $103 reversed $39 $-1 #
face $-1 $-1 $104 $23 $-1 $105 forward single #
loop $-1 $106 $107 $41 #
cone-surface $-1 -48.978576127560231 30.519243816256449 4.5379584741892014 0 -0.85716730853699208 -0.51503806187062418 0.25 0 0 1 I I -0.70710678118654746 0.70710678118654746 0.25 forward I I I I #
loop $-1 $-1 $108 $30 #
coedge $-1 $68 $68 $109 $110 reversed $42 $-1 #
face $-1 $-1 $111 $24 $-1 $112 forward single #
loop $-1 $113 $114 $44 #
cone-surface $-1 -36.983016752507552 30.519243816256449 4.5379584741892014 0 -0.85716730853699208 -0.51503806187062418 0.25 0 0 1 I I -0.70710678118654746 0.70710678118654746 0.25 forward I I I I #
loop $-1 $-1 $115 $31 #
coedge $-1 $73 $73 $116 $117 reversed $45 $-1 #
face $-1 $118 $119 $25 $-1 $120 reversed single #
loop $-1 $-1 $121 $47 #
plane-surface $-1 -42.980796440033892 -32.613310520821244 3.4798511974776432 0 -0.85716730853699208 0.51503806187062418 1 0 0 forward_v I I I I #
coedge $-1 $122 $123 $124 $125 reversed $48 $-1 #
face $-1 $-1 $126 $26 $-1 $127 forward single #
loop $-1 $128 $129 $50 #
cone-surface $-1 -48.978576127560231 -30.519243816256449 4.5379584741891943 0 0.85716730853699208 -0.51503806187062418 0.25 0 0 1 I I -0.70710678118654746 0.70710678118654746 0.25 forward I I I I #
loop $-1 $-1 $130 $33 #
coedge $-1 $82 $82 $131 $132 reversed $51 $-1 #
face $-1 $-1 $133 $27 $-1 $134 forward single #
loop $-1 $135 $136 $53 #
cone-surface $-1 -36.983016752507552 -30.519243816256449 4.5379584741891943 0 0.85716730853699208 -0.51503806187062418 0.25 0 0 1 I I -0.70710678118654746 0.70710678118654746 0.25 forward I I I I #
loop $-1 $-1 $137 $34 #
coedge $-1 $87 $87 $138 $139 reversed $54 $-1 #
face $-1 $140 $141 $21 $-1 $142 reversed single #
loop $-1 $-1 $143 $56 #
plane-surface $-1 0 -32.61331052082123 0 0 1 0 0 0 1 forward_v I I I I #
coedge $-1 $144 $145 $146 $147 forward $57 $-1 #
coedge $-1 $148 $59 $149 $150 forward $36 $-1 #
coedge $-1 $59 $148 $151 $152 forward $36 $-1 #
coedge $-1 $153 $154 $59 $95 reversed $155 $-1 #
edge $-1 $156 -32.61331052082123 $157 32.61331052082123 $94 $158 forward 7 unknown #
face $-1 $159 $160 $22 $-1 $161 forward single #
loop $-1 $-1 $102 $60 #
plane-surface $-1 0 32.61331052082123 0 0 -1 0 0 0 -1 forward_v I I I I #
coedge $-1 $162 $163 $164 $165 reversed $61 $-1 #
coedge $-1 $101 $63 $166 $167 reversed $39 $-1 #
coedge $-1 $63 $100 $162 $168 reversed $39 $-1 #
coedge $-1 $164 $169 $63 $103 forward $97 $-1 #
edge $-1 $170 52.155938984417205 $171 55.559748692516891 $102 $172 forward 7 unknown #
loop $-1 $-1 $109 $64 #
plane-surface $-1 -42.980796440033892 -0.98088196283599416 59.389978400704642 0 0.85716730853699208 0.51503806187062418 1 0 0 forward_v I I I I #
loop $-1 $-1 $173 $41 #
coedge $-1 $107 $107 $108 $174 reversed $65 $-1 #
coedge $-1 $108 $108 $107 $174 forward $67 $-1 #
coedge $-1 $109 $109 $68 $110 forward $104 $-1 #
edge $-1 $175 9.3454704081540658e-016 $175 6.2831853071796013 $109 $176 forward 7 unknown #
loop $-1 $-1 $116 $69 #
plane-surface $-1 -42.980796440033892 -0.98088196283599416 59.389978400704642 0 0.85716730853699208 0.51503806187062418 1 0 0 forward_v I I I I #
loop $-1 $-1 $177 $44 #
coedge $-1 $114 $114 $115 $178 reversed $70 $-1 #
coedge $-1 $115 $115 $114 $178 forward $72 $-1 #
coedge $-1 $116 $116 $73 $117 forward $111 $-1 #
edge $-1 $179 9.3454704081540658e-016 $179 6.2831853071796013 $116 $180 forward 7 unknown #
face $-1 $181 $182 $25 $-1 $183 forward single #
loop $-1 $-1 $184 $74 #
plane-surface $-1 -56.975615710928679 0 0 1 0 0 0 0 -1 forward_v I I I I #
coedge $-1 $185 $186 $187 $188 reversed $75 $-1 #
coedge $-1 $123 $77 $189 $190 reversed $48 $-1 #
coedge $-1 $77 $122 $185 $191 reversed $48 $-1 #
coedge $-1 $187 $192 $77 $125 forward $182 $-1 #
edge $-1 $193 32.530979910764088 $194 34.576195048551156 $124 $195 forward 7 unknown #
loop $-1 $-1 $131 $78 #
plane-surface $-1 -42.980796440033892 -32.613310520821244 3.4798511974776432 0 -0.85716730853699208 0.51503806187062418 1 0 0 forward_v I I I I #
loop $-1 $-1 $196 $50 #
coedge $-1 $129 $129 $130 $197 reversed $79 $-1 #
coedge $-1 $130 $130 $129 $197 forward $81 $-1 #
coedge $-1 $131 $131 $82 $132 forward $126 $-1 #
edge $-1 $198 -1.2023834831759341e-015 $198 6.2831853071795996 $131 $199 forward 7 unknown #
loop $-1 $-1 $138 $83 #
plane-surface $-1 -42.980796440033892 -32.613310520821244 3.4798511974776432 0 -0.85716730853699208 0.51503806187062418 1 0 0 forward_v I I I I #
loop $-1 $-1 $200 $53 #
coedge $-1 $136 $136 $137 $201 reversed $84 $-1 #
coedge $-1 $137 $137 $136 $201 forward $86 $-1 #
coedge $-1 $138 $138 $87 $139 forward $133 $-1 #
edge $-1 $202 -1.2023834831759341e-015 $202 6.2831853071795996 $138 $203 forward 7 unknown #
face $-1 $204 $205 $21 $-1 $206 reversed single #
loop $-1 $-1 $207 $88 #
plane-surface $-1 -56.975615710928679 0 0 1 0 0 0 0 -1 forward_v I I I I #
coedge $-1 $208 $151 $209 $210 forward $89 $-1 #
coedge $-1 $211 $91 $208 $212 forward $57 $-1 #
coedge $-1 $91 $211 $213 $214 forward $57 $-1 #
coedge $-1 $154 $153 $91 $147 reversed $155 $-1 #
edge $-1 $215 -32.61331052082123 $216 32.61331052082123 $146 $217 forward 7 unknown #
coedge $-1 $93 $92 $218 $219 forward $36 $-1 #
coedge $-1 $220 $221 $92 $150 reversed $205 $-1 #
edge $-1 $157 -56.975615710928679 $222 56.975615710928679 $149 $223 forward 7 unknown #
coedge $-1 $143 $224 $93 $152 reversed $89 $-1 #
edge $-1 $225 -56.975615710928679 $156 56.975615710928679 $151 $226 forward 7 unknown #
coedge $-1 $146 $94 $224 $227 forward $155 $-1 #
coedge $-1 $94 $146 $220 $228 reversed $155 $-1 #
loop $-1 $-1 $153 $204 #
vertex $-1 $95 $229 #
vertex $-1 $95 $230 #
straight-curve $-1 56.975615710928679 0 6.8836609055773099 0 1 0 I I #
face $-1 $-1 $231 $22 $-1 $232 reversed single #
loop $-1 $-1 $166 $96 #
plane-surface $-1 0 0 6.8836609055773099 0 0 1 1 0 0 forward_v I I I I #
coedge $-1 $233 $99 $101 $168 forward $61 $-1 #
coedge $-1 $99 $233 $234 $235 reversed $61 $-1 #
coedge $-1 $236 $102 $99 $165 forward $97 $-1 #
edge $-1 $171 7.4955789491221587 $237 35.485217490911737 $164 $238 forward 7 unknown #
coedge $-1 $239 $240 $100 $167 forward $160 $-1 #
edge $-1 $241 -17.779098806722569 $170 -15.733883668935469 $166 $242 forward 7 unknown #
edge $-1 $171 -65.226621041642503 $241 -61.255622994704275 $101 $243 forward 7 unknown #
coedge $-1 $102 $236 $239 $244 reversed $97 $-1 #
vertex $-1 $244 $245 #
vertex $-1 $103 $246 #
straight-curve $-1 -28.985977169139105 32.61331052082123 59.039599889994513 0 0 -1 I I #
coedge $-1 $173 $173 $-1 $247 reversed $106 $-1 #
edge $-1 $248 0 $248 6.2831853071796004 $107 $249 forward 7 unknown #
vertex $-1 $110 $250 #
ellipse-curve $-1 -48.978576127560231 31.590702951927675 5.1817560515274739 0 0.85716730853699208 0.51503806187062418 0.5 0 0 1 I I #
coedge $-1 $177 $177 $-1 $251 reversed $113 $-1 #
edge $-1 $252 0 $252 6.2831853071796004 $114 $253 forward 7 unknown #
vertex $-1 $117 $254 #
ellipse-curve $-1 -36.983016752507552 31.590702951927675 5.1817560515274739 0 0.85716730853699208 0.51503806187062418 0.5 0 0 1 I I #
face $-1 $-1 $255 $25 $-1 $256 reversed single #
loop $-1 $-1 $187 $118 #
plane-surface $-1 0 0 6.8836609055773099 0 0 1 1 0 0 forward_v I I I I #
coedge $-1 $257 $258 $186 $259 forward $119 $-1 #
coedge $-1 $260 $121 $123 $191 forward $75 $-1 #
coedge $-1 $121 $260 $184 $259 reversed $75 $-1 #
coedge $-1 $261 $124 $121 $188 forward $182 $-1 #
edge $-1 $194 7.4955789491221587 $262 35.485217490911737 $187 $263 forward 7 unknown #
coedge $-1 $264 $265 $122 $190 forward $255 $-1 #
edge $-1 $266 -27.604685090903345 $193 -24.200875382803702 $189 $267 forward 7 unknown #
edge $-1 $194 -3.9709980469381976 $266 -2.7494044966190042e-014 $123 $268 forward 7 unknown #
coedge $-1 $124 $261 $264 $269 forward $182 $-1 #
vertex $-1 $190 $270 #
vertex $-1 $125 $271 #
straight-curve $-1 -28.985977169139105 -65.144290431585318 6.8836609055773081 0 1 0 I I #
coedge $-1 $196 $196 $-1 $272 reversed $128 $-1 #
edge $-1 $273 0 $273 6.2831853071796004 $129 $274 forward 7 unknown #
vertex $-1 $132 $275 #
ellipse-curve $-1 -48.978576127560231 -31.5907029519277 5.1817560515274819 0 -0.85716730853699208 0.51503806187062418 0.5 0 0 1 I I #
coedge $-1 $200 $200 $-1 $276 reversed $135 $-1 #
edge $-1 $277 0 $277 6.2831853071796004 $136 $278 forward 7 unknown #
vertex $-1 $139 $279 #
ellipse-curve $-1 -36.983016752507552 -31.5907029519277 5.1817560515274819 0 -0.85716730853699208 0.51503806187062418 0.5 0 0 1 I I #
face $-1 $-1 $155 $21 $-1 $280 reversed single #
loop $-1 $-1 $220 $140 #
plane-surface $-1 0 32.61331052082123 0 0 -1 0 0 0 -1 forward_v I I I I #
coedge $-1 $281 $218 $221 $282 forward $141 $-1 #
coedge $-1 $224 $143 $144 $212 reversed $89 $-1 #
coedge $-1 $218 $281 $143 $210 reversed $141 $-1 #
edge $-1 $225 -6.8836609055773099 $283 6.8836609055773099 $209 $284 forward 7 unknown #
coedge $-1 $145 $144 $281 $285 forward $57 $-1 #
edge $-1 $216 -56.975615710928679 $283 56.975615710928679 $208 $286 forward 7 unknown #
coedge $-1 $221 $220 $145 $214 reversed $205 $-1 #
edge $-1 $287 -56.975615710928679 $215 56.975615710928679 $213 $288 forward 7 unknown #
vertex $-1 $147 $289 #
vertex $-1 $227 $290 #
straight-curve $-1 56.975615710928679 0 -6.8836609055773099 0 -1 0 I I #
coedge $-1 $207 $209 $148 $219 reversed $141 $-1 #
edge $-1 $222 -32.61331052082123 $225 32.61331052082123 $218 $291 forward 7 unknown #
coedge $-1 $213 $149 $154 $228 forward $205 $-1 #
coedge $-1 $149 $213 $207 $282 reversed $205 $-1 #
vertex $-1 $150 $292 #
straight-curve $-1 0 32.61331052082123 6.8836609055773099 -1 0 0 I I #
coedge $-1 $151 $208 $153 $227 reversed $89 $-1 #
vertex $-1 $219 $293 #
straight-curve $-1 0 -32.61331052082123 6.8836609055773099 1 0 0 I I #
edge $-1 $156 -6.8836609055773099 $216 6.8836609055773099 $153 $294 forward 7 unknown #
edge $-1 $157 -6.8836609055773099 $215 6.8836609055773099 $154 $295 forward 7 unknown #
point $-1 56.975615710928679 -32.61331052082123 6.8836609055773099 #
point $-1 56.975615710928679 32.61331052082123 6.8836609055773099 #
loop $-1 $-1 $234 $159 #
plane-surface $-1 -56.975615710928679 0 0 1 0 0 0 0 -1 forward_v I I I I #
coedge $-1 $163 $162 $240 $296 reversed $61 $-1 #
coedge $-1 $297 $298 $163 $235 forward $231 $-1 #
edge $-1 $237 -39.520451299209995 $299 -35.549453252271761 $234 $300 forward 7 unknown #
coedge $-1 $169 $164 $298 $301 reversed $97 $-1 #
vertex $-1 $165 $302 #
straight-curve $-1 -21.490398220016946 32.61331052082123 3.4798511974776147 -1 0 0 I I #
coedge $-1 $303 $166 $169 $244 forward $160 $-1 #
coedge $-1 $166 $303 $233 $296 forward $160 $-1 #
vertex $-1 $167 $304 #
straight-curve $-1 -28.985977169139105 48.347194189756699 6.8836609055773081 0 1 0 I I #
straight-curve $-1 -28.985977169139105 -0.98088196283599416 59.389978400704642 0 -0.51503806187062418 0.85716730853699208 I I #
edge $-1 $170 28.985977169139105 $305 56.975615710928679 $169 $306 forward 7 unknown #
point $-1 -28.985977169139105 32.61331052082123 6.8836609055773099 #
point $-1 -28.985977169139105 32.613310520821223 3.4798511974776218 #
edge $-1 $307 1 $307 0 $173 $-1 forward 7 unknown #
vertex $-1 $174 $308 #
ellipse-curve $-1 -48.978576127560231 30.733535643390695 4.6667179896568571 0 0.85716730853699208 0.51503806187062418 0.5 0 0 1 I I #
point $-1 -48.478576127560231 31.590702951927689 5.1817560515274819 #
edge $-1 $309 1 $309 0 $177 $-1 forward 7 unknown #
vertex $-1 $178 $310 #
ellipse-curve $-1 -36.983016752507552 30.733535643390695 4.6667179896568571 0 0.85716730853699208 0.51503806187062418 0.5 0 0 1 I I #
point $-1 -36.483016752507552 31.590702951927689 5.1817560515274819 #
loop $-1 $-1 $189 $181 #
plane-surface $-1 0 -32.61331052082123 0 0 1 0 0 0 1 forward_v I I I I #
coedge $-1 $258 $184 $311 $312 reversed $119 $-1 #
coedge $-1 $184 $257 $261 $313 reversed $119 $-1 #
edge $-1 $262 2.9361427314505386 $314 6.9071407783887082 $184 $315 forward 7 unknown #
coedge $-1 $186 $185 $265 $316 reversed $75 $-1 #
coedge $-1 $192 $187 $258 $313 forward $182 $-1 #
vertex $-1 $313 $317 #
straight-curve $-1 -21.490398220016946 -30.568095383034159 6.8836609055773099 -1 0 0 I I #
coedge $-1 $311 $189 $192 $269 reversed $255 $-1 #
coedge $-1 $189 $311 $260 $316 forward $255 $-1 #
vertex $-1 $190 $318 #
straight-curve $-1 -28.985977169139105 -32.61331052082123 31.084536288381013 0 0 1 I I #
straight-curve $-1 -28.985977169139105 -32.613310520821244 3.4798511974776432 0 -0.51503806187062418 -0.85716730853699208 I I #
edge $-1 $319 -56.975615710928679 $193 -28.985977169139105 $264 $320 forward 7 unknown #
point $-1 -28.985977169139105 -32.61331052082123 6.8836609055773099 #
point $-1 -28.985977169139105 -30.568095383034162 6.8836609055773099 #
edge $-1 $321 1 $321 0 $196 $-1 forward 7 unknown #
vertex $-1 $197 $322 #
ellipse-curve $-1 -48.978576127560231 -30.733535643390695 4.66671798965685 0 -0.85716730853699208 0.51503806187062418 0.5 0 0 1 I I #
point $-1 -48.478576127560231 -31.590702951927689 5.1817560515274748 #
edge $-1 $323 1 $323 0 $200 $-1 forward 7 unknown #
vertex $-1 $201 $324 #
ellipse-curve $-1 -36.983016752507552 -30.733535643390695 4.66671798965685 0 -0.85716730853699208 0.51503806187062418 0.5 0 0 1 I I #
point $-1 -36.483016752507552 -31.590702951927689 5.1817560515274748 #
plane-surface $-1 56.975615710928679 0 0 -1 0 0 0 0 1 forward_v I I I I #
coedge $-1 $209 $207 $211 $285 reversed $141 $-1 #
edge $-1 $222 -6.8836609055773099 $287 6.8836609055773099 $221 $325 forward 7 unknown #
vertex $-1 $285 $326 #
straight-curve $-1 -56.975615710928679 -32.61331052082123 0 0 0 -1 I I #
edge $-1 $283 -32.61331052082123 $287 32.61331052082123 $281 $327 forward 7 unknown #
straight-curve $-1 0 -32.61331052082123 -6.8836609055773099 -1 0 0 I I #
vertex $-1 $214 $328 #
straight-curve $-1 0 32.61331052082123 -6.8836609055773099 1 0 0 I I #
point $-1 56.975615710928679 32.61331052082123 -6.8836609055773099 #
point $-1 56.975615710928679 -32.61331052082123 -6.8836609055773099 #
straight-curve $-1 -56.975615710928679 0 6.8836609055773099 0 -1 0 I I #
point $-1 -56.975615710928679 32.61331052082123 6.8836609055773099 #
point $-1 -56.975615710928679 -32.61331052082123 6.8836609055773099 #
straight-curve $-1 56.975615710928679 -32.61331052082123 0 0 0 -1 I I #
straight-curve $-1 56.975615710928679 32.61331052082123 0 0 0 -1 I I #
edge $-1 $299 -35.485217490911737 $241 -7.4955789491221587 $240 $329 forward 7 unknown #
coedge $-1 $298 $234 $303 $330 reversed $231 $-1 #
coedge $-1 $234 $297 $236 $301 forward $231 $-1 #
vertex $-1 $235 $331 #
straight-curve $-1 -56.975615710928679 12.258773879423721 37.355490069788715 0 -0.51503806187062429 0.85716730853699219 I I #
edge $-1 $305 -6.8836609055773099 $237 -3.4798511974776134 $236 $332 forward 7 unknown #
point $-1 -56.975615710928679 32.61331052082123 3.4798511974776134 #
coedge $-1 $240 $239 $297 $330 forward $160 $-1 #
point $-1 -28.985977169139105 30.56809538303413 6.8836609055773081 #
vertex $-1 $244 $333 #
straight-curve $-1 0 32.61331052082123 6.8836609055773099 -1 0 0 I I #
vertex $-1 $247 $334 #
point $-1 -48.478576127560231 30.733535643390695 4.6667179896568571 #
vertex $-1 $251 $335 #
point $-1 -36.483016752507552 30.733535643390695 4.6667179896568571 #
coedge $-1 $265 $264 $257 $312 forward $255 $-1 #
edge $-1 $319 -6.8836609055773099 $314 -3.4798511974776667 $257 $336 forward 7 unknown #
edge $-1 $262 30.568095383034162 $319 32.61331052082123 $258 $337 forward 7 unknown #
vertex $-1 $259 $338 #
straight-curve $-1 -56.975615710928679 -29.055870121252354 9.400426468175219 0 -0.51503806187062429 -0.85716730853699219 I I #
edge $-1 $314 -35.485217490911737 $266 -7.4955789491221587 $265 $339 forward 7 unknown #
point $-1 -56.975615710928679 -30.568095383034162 6.8836609055773099 #
point $-1 -28.985977169139105 -32.61331052082123 3.4798511974776667 #
vertex $-1 $313 $340 #
straight-curve $-1 0 -32.61331052082123 6.8836609055773099 1 0 0 I I #
vertex $-1 $272 $341 #
point $-1 -48.478576127560231 -30.733535643390695 4.66671798965685 #
vertex $-1 $276 $342 #
point $-1 -36.483016752507552 -30.733535643390695 4.66671798965685 #
straight-curve $-1 -56.975615710928679 32.61331052082123 0 0 0 -1 I I #
point $-1 -56.975615710928679 -32.61331052082123 -6.8836609055773099 #
straight-curve $-1 -56.975615710928679 0 -6.8836609055773099 0 1 0 I I #
point $-1 -56.975615710928679 32.61331052082123 -6.8836609055773099 #
straight-curve $-1 -21.490398220016946 30.568095383034127 6.8836609055773081 1 0 0 I I #
edge $-1 $305 -32.61331052082123 $299 -30.56809538303413 $297 $343 forward 7 unknown #
point $-1 -56.975615710928679 30.56809538303413 6.8836609055773081 #
straight-curve $-1 -56.975615710928679 32.61331052082123 0 0 0 -1 I I #
point $-1 -56.975615710928679 32.61331052082123 6.8836609055773099 #
point $-1 -48.978576127560231 30.304951989122202 4.4091989587215457 #
point $-1 -36.983016752507552 30.304951989122202 4.4091989587215457 #
straight-curve $-1 -56.975615710928679 -32.61331052082123 0 0 0 -1 I I #
straight-curve $-1 -56.975615710928679 0 6.8836609055773099 0 -1 0 I I #
point $-1 -56.975615710928679 -32.61331052082123 3.4798511974776667 #
straight-curve $-1 -21.490398220016946 -32.61331052082123 3.4798511974776645 1 0 0 I I #
point $-1 -56.975615710928679 -32.61331052082123 6.8836609055773099 #
point $-1 -48.978576127560231 -30.304951989122202 4.4091989587215386 #
point $-1 -36.983016752507552 -30.304951989122202 4.4091989587215386 #
straight-curve $-1 -56.975615710928679 0 6.8836609055773099 0 -1 0 I I #
End-of-ACIS-data 