500 0 6 0           
7 Unknown 11 ACIS 5.0 NT 24 Fri Mar 26 18:50:15 1999 
-1 9.9999999999999995e-007 1e-010 
body $-1 $6 $-1 $7 #
body $-1 $8 $-1 $9 #
body $-1 $10 $-1 $11 #
body $-1 $12 $-1 $13 #
body $-1 $14 $-1 $15 #
body $-1 $16 $-1 $17 #
lump $-1 $-1 $18 $0 #
transform $-1 1 0 0 0 1 0 0 0 1 60.440076906643881 38.969065608190959 8.9080474906165588 1 rotate no_reflect no_shear #
lump $-1 $-1 $19 $1 #
transform $-1 1 0 0 0 1 0 0 0 1 60.440076906643881 38.969065608190959 8.9080474906165588 1 rotate no_reflect no_shear #
lump $-1 $-1 $20 $2 #
transform $-1 1 0 0 0 1 0 0 0 1 60.440076906643881 38.969065608190959 8.9080474906165588 1 rotate no_reflect no_shear #
lump $-1 $-1 $21 $3 #
transform $-1 1 0 0 0 1 0 0 0 1 60.440076906643881 38.969065608190959 8.9080474906165588 1 rotate no_reflect no_shear #
lump $-1 $-1 $22 $4 #
transform $-1 1 0 0 0 1 0 0 0 1 60.440076906643881 38.969065608190959 8.9080474906165588 1 rotate no_reflect no_shear #
lump $-1 $-1 $23 $5 #
transform $-1 1 0 0 0 1 0 0 0 1 60.440076906643881 38.969065608190959 8.9080474906165588 1 rotate no_reflect no_shear #
shell $-1 $-1 $-1 $24 $-1 $6 #
shell $-1 $-1 $-1 $25 $-1 $8 #
shell $-1 $-1 $-1 $26 $-1 $10 #
shell $-1 $-1 $-1 $27 $-1 $12 #
shell $-1 $-1 $-1 $28 $-1 $14 #
shell $-1 $-1 $-1 $29 $-1 $16 #
face $-1 $30 $31 $18 $-1 $32 forward single #
face $-1 $33 $34 $19 $-1 $35 forward single #
face $-1 $36 $37 $20 $-1 $38 reversed single #
face $-1 $39 $40 $21 $-1 $41 forward single #
face $-1 $42 $43 $22 $-1 $44 reversed single #
face $-1 $45 $46 $23 $-1 $47 forward single #
face $-1 $48 $49 $18 $-1 $50 reversed single #
loop $-1 $-1 $51 $24 #
plane-surface $-1 0 0 8.9080474906165588 0 0 1 1 0 0 forward_v I I I I #
face $-1 $52 $53 $19 $-1 $54 reversed single #
loop $-1 $-1 $55 $25 #
plane-surface $-1 -60.440076906643881 0 0 1 0 0 0 0 -1 forward_v I I I I #
face $-1 $56 $57 $20 $-1 $58 reversed single #
loop $-1 $-1 $59 $26 #
plane-surface $-1 -7.6481080811092994 -103.02578862312269 103.1133199902339 -1 0 0 0 -0.52991927123019833 0.84804809178421925 forward_v I I I I #
face $-1 $60 $61 $21 $-1 $62 forward single #
loop $-1 $63 $64 $27 #
cone-surface $-1 -20.223683663783724 -31.771268625598236 3.8730017724823265 0 0.52991927123019833 -0.84804809178421925 2 0 0 1 I I 0 1 2 forward I I I I #
face $-1 $65 $66 $22 $-1 $67 reversed single #
loop $-1 $-1 $68 $28 #
plane-surface $-1 47.979445579344279 -103.02578862312269 103.1133199902339 -1 0 0 0 -0.52991927123019833 0.84804809178421925 forward_v I I I I #
face $-1 $69 $70 $23 $-1 $71 forward single #
loop $-1 $72 $73 $29 #
cone-surface $-1 35.403869996669854 -31.771268625598236 3.8730017724823265 0 0.52991927123019833 -0.84804809178421925 2 0 0 1 I I 0 1 2 forward I I I I #
face $-1 $74 $75 $18 $-1 $76 reversed single #
loop $-1 $-1 $77 $30 #
plane-surface $-1 0 0 -8.9080474906165588 0 0 1 1 0 0 forward_v I I I I #
coedge $-1 $78 $79 $80 $81 forward $31 $-1 #
face $-1 $82 $83 $19 $-1 $84 forward single #
loop $-1 $-1 $85 $33 #
plane-surface $-1 0 38.969065608190959 0 0 -1 0 0 0 -1 forward_v I I I I #
coedge $-1 $86 $87 $88 $89 forward $34 $-1 #
face $-1 $90 $91 $20 $-1 $92 reversed single #
loop $-1 $-1 $93 $36 #
plane-surface $-1 -20.223683663783724 -38.969065608190959 0.60113621429231046 0 -0.52991927123019833 0.84804809178421925 1 0 0 forward_v I I I I #
coedge $-1 $94 $95 $96 $97 reversed $37 $-1 #
face $-1 $-1 $98 $21 $-1 $99 forward single #
loop $-1 $100 $101 $39 #
cone-surface $-1 -20.223683663783724 -30.690470722332321 2.1433636007260048 0 0.52991927123019833 -0.84804809178421925 1 0 0 1 I I -0.70710678118654746 0.70710678118654746 1 forward I I I I #
loop $-1 $-1 $102 $27 #
coedge $-1 $64 $64 $103 $104 reversed $40 $-1 #
face $-1 $105 $106 $22 $-1 $107 reversed single #
loop $-1 $-1 $108 $42 #
plane-surface $-1 35.403869996669854 -38.969065608190959 0.60113621429231046 0 -0.52991927123019833 0.84804809178421925 1 0 0 forward_v I I I I #
coedge $-1 $109 $110 $111 $112 reversed $43 $-1 #
face $-1 $-1 $113 $23 $-1 $114 forward single #
loop $-1 $115 $116 $45 #
cone-surface $-1 35.403869996669854 -30.690470722332321 2.1433636007260048 0 0.52991927123019833 -0.84804809178421925 1 0 0 1 I I -0.70710678118654746 0.70710678118654746 1 forward I I I I #
loop $-1 $-1 $117 $29 #
coedge $-1 $73 $73 $118 $119 reversed $46 $-1 #
face $-1 $120 $121 $18 $-1 $122 reversed single #
loop $-1 $-1 $123 $48 #
plane-surface $-1 0 -38.969065608190959 0 0 1 0 0 0 1 forward_v I I I I #
coedge $-1 $124 $125 $126 $127 forward $49 $-1 #
coedge $-1 $128 $51 $129 $130 forward $31 $-1 #
coedge $-1 $51 $128 $131 $132 forward $31 $-1 #
coedge $-1 $133 $134 $51 $81 reversed $135 $-1 #
edge $-1 $136 -38.969065608190959 $137 38.969065608190959 $80 $138 forward 7 unknown #
face $-1 $139 $140 $19 $-1 $141 reversed single #
loop $-1 $-1 $88 $52 #
plane-surface $-1 -65.252600152834177 0 -2.4305281029339327 0 0 1 1 0 0 forward_v I I I I #
coedge $-1 $142 $143 $87 $144 forward $53 $-1 #
coedge $-1 $145 $55 $146 $147 reversed $34 $-1 #
coedge $-1 $55 $145 $85 $144 reversed $34 $-1 #
coedge $-1 $148 $149 $55 $89 reversed $83 $-1 #
edge $-1 $150 -38.969065608190959 $151 38.969065608190959 $88 $152 forward 7 unknown #
face $-1 $153 $154 $20 $-1 $155 reversed single #
loop $-1 $-1 $156 $56 #
plane-surface $-1 -32.799259246458149 -103.02578862312269 103.1133199902339 1 0 0 0 0.52991927123019833 -0.84804809178421925 forward_v I I I I #
coedge $-1 $157 $158 $159 $160 reversed $57 $-1 #
coedge $-1 $95 $59 $161 $162 reversed $37 $-1 #
coedge $-1 $59 $94 $157 $163 reversed $37 $-1 #
coedge $-1 $159 $164 $59 $97 forward $165 $-1 #
edge $-1 $166 12.543828703370387 $167 25.837665404484383 $96 $168 forward 7 unknown #
loop $-1 $-1 $103 $60 #
plane-surface $-1 -20.223683663783724 -38.969065608190959 0.60113621429231046 0 -0.52991927123019833 0.84804809178421925 1 0 0 forward_v I I I I #
loop $-1 $-1 $169 $39 #
coedge $-1 $101 $101 $102 $170 reversed $61 $-1 #
coedge $-1 $102 $102 $101 $170 forward $63 $-1 #
coedge $-1 $103 $103 $64 $104 forward $98 $-1 #
edge $-1 $171 4.2422632106812069e-016 $171 6.2831853071796004 $103 $172 forward 7 unknown #
face $-1 $173 $174 $22 $-1 $175 reversed single #
loop $-1 $-1 $176 $65 #
plane-surface $-1 22.82829441399543 -103.02578862312269 103.1133199902339 1 0 0 0 0.52991927123019833 -0.84804809178421925 forward_v I I I I #
coedge $-1 $177 $178 $179 $180 reversed $66 $-1 #
coedge $-1 $110 $68 $181 $182 reversed $43 $-1 #
coedge $-1 $68 $109 $177 $183 reversed $43 $-1 #
coedge $-1 $179 $184 $68 $112 forward $185 $-1 #
edge $-1 $186 12.543828703370387 $187 25.837665404484383 $111 $188 forward 7 unknown #
loop $-1 $-1 $118 $69 #
plane-surface $-1 35.403869996669854 -38.969065608190959 0.60113621429231046 0 -0.52991927123019833 0.84804809178421925 1 0 0 forward_v I I I I #
loop $-1 $-1 $189 $45 #
coedge $-1 $116 $116 $117 $190 reversed $70 $-1 #
coedge $-1 $117 $117 $116 $190 forward $72 $-1 #
coedge $-1 $118 $118 $73 $119 forward $113 $-1 #
edge $-1 $191 4.2422632106812069e-016 $191 6.2831853071796004 $118 $192 forward 7 unknown #
face $-1 $193 $194 $18 $-1 $195 reversed single #
loop $-1 $-1 $196 $74 #
plane-surface $-1 -60.440076906643881 0 0 1 0 0 0 0 -1 forward_v I I I I #
coedge $-1 $197 $131 $196 $198 forward $75 $-1 #
coedge $-1 $199 $77 $197 $200 forward $49 $-1 #
coedge $-1 $77 $199 $201 $202 forward $49 $-1 #
coedge $-1 $134 $133 $77 $127 reversed $135 $-1 #
edge $-1 $203 -38.969065608190959 $204 38.969065608190959 $126 $205 forward 7 unknown #
coedge $-1 $79 $78 $206 $207 forward $31 $-1 #
coedge $-1 $208 $209 $78 $130 reversed $194 $-1 #
edge $-1 $137 -60.440076906643881 $210 60.440076906643881 $129 $211 forward 7 unknown #
coedge $-1 $123 $212 $79 $132 reversed $75 $-1 #
edge $-1 $213 -60.440076906643881 $136 60.440076906643881 $131 $214 forward 7 unknown #
coedge $-1 $126 $80 $212 $215 forward $135 $-1 #
coedge $-1 $80 $126 $208 $216 reversed $135 $-1 #
loop $-1 $-1 $133 $193 #
vertex $-1 $81 $217 #
vertex $-1 $81 $218 #
straight-curve $-1 60.440076906643881 0 8.9080474906165588 0 1 0 I I #
face $-1 $219 $220 $19 $-1 $221 reversed single #
loop $-1 $-1 $222 $82 #
plane-surface $-1 -65.252600152834177 0 -6.5253427918943121 0 0 1 1 0 0 forward_v I I I I #
coedge $-1 $223 $85 $224 $225 reversed $53 $-1 #
coedge $-1 $85 $223 $148 $226 reversed $53 $-1 #
edge $-1 $150 2.4305281029339327 $227 6.5253427918943121 $85 $228 forward 7 unknown #
coedge $-1 $87 $86 $222 $229 forward $34 $-1 #
coedge $-1 $230 $231 $86 $147 forward $232 $-1 #
edge $-1 $233 -6.5253427918943121 $151 -2.4305281029339327 $146 $234 forward 7 unknown #
coedge $-1 $235 $88 $143 $226 forward $83 $-1 #
coedge $-1 $88 $235 $230 $236 forward $83 $-1 #
vertex $-1 $144 $237 #
vertex $-1 $236 $238 #
straight-curve $-1 -60.440076906643881 0 -2.4305281029339327 0 -1 0 I I #
face $-1 $-1 $165 $20 $-1 $239 forward single #
loop $-1 $-1 $240 $90 #
plane-surface $-1 0 -38.969065608190959 0 0 1 0 0 0 1 forward_v I I I I #
coedge $-1 $241 $242 $243 $244 reversed $91 $-1 #
coedge $-1 $245 $93 $95 $163 forward $57 $-1 #
coedge $-1 $93 $245 $241 $246 forward $57 $-1 #
coedge $-1 $243 $96 $93 $160 forward $165 $-1 #
edge $-1 $167 -2.4637337507825627 $247 22.687417414566287 $159 $248 forward 7 unknown #
coedge $-1 $249 $250 $94 $162 forward $154 $-1 #
edge $-1 $251 -50.955523780824642 $166 -42.648612504500392 $161 $252 forward 7 unknown #
edge $-1 $167 -15.675805216594405 $251 0 $95 $253 forward 7 unknown #
coedge $-1 $96 $243 $249 $254 forward $165 $-1 #
loop $-1 $-1 $243 $153 #
vertex $-1 $162 $255 #
vertex $-1 $97 $256 #
straight-curve $-1 -7.6481080811092994 -51.512894311561347 8.9080474906165605 0 1 0 I I #
coedge $-1 $169 $169 $-1 $257 reversed $100 $-1 #
edge $-1 $258 0 $258 6.2831853071796004 $101 $259 forward 7 unknown #
vertex $-1 $104 $260 #
ellipse-curve $-1 -20.223683663783724 -32.322147257633958 4.7545918524544382 0 -0.52991927123019833 0.84804809178421925 2 0 0 1 I I #
face $-1 $-1 $185 $22 $-1 $261 forward single #
loop $-1 $-1 $262 $105 #
plane-surface $-1 0 -38.969065608190959 0 0 1 0 0 0 1 forward_v I I I I #
coedge $-1 $263 $264 $265 $266 reversed $106 $-1 #
coedge $-1 $267 $108 $110 $183 forward $66 $-1 #
coedge $-1 $108 $267 $263 $268 forward $66 $-1 #
coedge $-1 $265 $111 $108 $180 forward $185 $-1 #
edge $-1 $187 -30.277510581009352 $269 -5.1263594156605023 $179 $270 forward 7 unknown #
coedge $-1 $271 $272 $109 $182 forward $174 $-1 #
edge $-1 $273 -50.955523780824642 $186 -42.648612504500392 $181 $274 forward 7 unknown #
edge $-1 $187 -15.675805216594405 $273 0 $110 $275 forward 7 unknown #
coedge $-1 $111 $265 $271 $276 forward $185 $-1 #
loop $-1 $-1 $265 $173 #
vertex $-1 $182 $277 #
vertex $-1 $112 $278 #
straight-curve $-1 47.979445579344279 -51.512894311561347 8.9080474906165605 0 1 0 I I #
coedge $-1 $189 $189 $-1 $279 reversed $115 $-1 #
edge $-1 $280 0 $280 6.2831853071796004 $116 $281 forward 7 unknown #
vertex $-1 $119 $282 #
ellipse-curve $-1 35.403869996669854 -32.322147257633958 4.7545918524544382 0 -0.52991927123019833 0.84804809178421925 2 0 0 1 I I #
face $-1 $-1 $135 $18 $-1 $283 reversed single #
loop $-1 $-1 $208 $120 #
plane-surface $-1 0 38.969065608190959 0 0 -1 0 0 0 -1 forward_v I I I I #
coedge $-1 $206 $284 $123 $198 reversed $121 $-1 #
coedge $-1 $212 $123 $124 $200 reversed $75 $-1 #
edge $-1 $213 -8.9080474906165588 $285 8.9080474906165588 $196 $286 forward 7 unknown #
coedge $-1 $125 $124 $284 $287 forward $49 $-1 #
edge $-1 $204 -60.440076906643881 $285 60.440076906643881 $197 $288 forward 7 unknown #
coedge $-1 $209 $208 $125 $202 reversed $194 $-1 #
edge $-1 $289 -60.440076906643881 $203 60.440076906643881 $201 $290 forward 7 unknown #
vertex $-1 $127 $291 #
vertex $-1 $215 $292 #
straight-curve $-1 60.440076906643881 0 -8.9080474906165588 0 -1 0 I I #
coedge $-1 $293 $196 $128 $207 reversed $121 $-1 #
edge $-1 $210 -38.969065608190959 $213 38.969065608190959 $206 $294 forward 7 unknown #
coedge $-1 $201 $129 $134 $216 forward $194 $-1 #
coedge $-1 $129 $201 $293 $295 reversed $194 $-1 #
vertex $-1 $130 $296 #
straight-curve $-1 0 38.969065608190959 8.9080474906165588 -1 0 0 I I #
coedge $-1 $131 $197 $133 $215 reversed $75 $-1 #
vertex $-1 $207 $297 #
straight-curve $-1 0 -38.969065608190959 8.9080474906165588 1 0 0 I I #
edge $-1 $136 -8.9080474906165588 $204 8.9080474906165588 $133 $298 forward 7 unknown #
edge $-1 $137 -8.9080474906165588 $203 8.9080474906165588 $134 $299 forward 7 unknown #
point $-1 60.440076906643881 -38.969065608190959 8.9080474906165588 #
point $-1 60.440076906643881 38.969065608190959 8.9080474906165588 #
face $-1 $-1 $232 $19 $-1 $300 reversed single #
loop $-1 $-1 $301 $139 #
plane-surface $-1 -70.065123399024472 0 -4.4779354474141222 1 0 0 0 0 -1 forward_v I I I I #
coedge $-1 $302 $224 $145 $229 reversed $140 $-1 #
coedge $-1 $143 $142 $301 $303 reversed $53 $-1 #
coedge $-1 $222 $304 $142 $225 forward $140 $-1 #
edge $-1 $305 -4.8125232461902954 $227 4.8125232461903025 $142 $306 forward 7 unknown #
edge $-1 $150 -4.8125232461903025 $307 4.8125232461902954 $143 $308 forward 7 unknown #
vertex $-1 $144 $309 #
straight-curve $-1 -60.440076906643881 38.969065608190959 0 0 0 -1 I I #
edge $-1 $233 -38.969065608190959 $227 38.969065608190959 $222 $310 forward 7 unknown #
coedge $-1 $311 $146 $149 $236 reversed $232 $-1 #
coedge $-1 $146 $311 $302 $312 reversed $232 $-1 #
loop $-1 $-1 $146 $219 #
vertex $-1 $147 $313 #
straight-curve $-1 -60.440076906643881 -38.969065608190959 0 0 0 1 I I #
coedge $-1 $149 $148 $314 $315 forward $83 $-1 #
edge $-1 $316 -4.8125232461902954 $151 4.8125232461903025 $230 $317 forward 7 unknown #
point $-1 -60.440076906643874 38.969065608190959 -2.4305281029339327 #
point $-1 -60.440076906643874 -38.969065608190959 -2.4305281029339327 #
plane-surface $-1 0 0 8.9080474906165588 0 0 1 1 0 0 forward_v I I I I #
coedge $-1 $250 $249 $242 $318 forward $154 $-1 #
coedge $-1 $242 $156 $158 $246 reversed $91 $-1 #
coedge $-1 $156 $241 $240 $318 reversed $91 $-1 #
coedge $-1 $164 $159 $156 $244 forward $165 $-1 #
edge $-1 $247 -25.837665404484383 $319 -12.543828703370387 $243 $320 forward 7 unknown #
coedge $-1 $158 $157 $250 $321 reversed $57 $-1 #
edge $-1 $322 0 $247 15.675805216594405 $241 $323 forward 7 unknown #
vertex $-1 $160 $324 #
straight-curve $-1 -10.111841831891862 -25.675228907076963 8.9080474906165588 -1 0 0 I I #
coedge $-1 $240 $161 $164 $254 reversed $154 $-1 #
coedge $-1 $161 $240 $245 $321 forward $154 $-1 #
vertex $-1 $162 $325 #
straight-curve $-1 -7.6481080811092994 -38.969065608190959 51.556659995116952 0 0 1 I I #
straight-curve $-1 -7.6481080811092994 -38.969065608190959 0.60113621429231046 0 -0.84804809178421925 -0.52991927123019833 I I #
edge $-1 $319 -32.799259246458149 $166 -7.6481080811092994 $249 $326 forward 7 unknown #
point $-1 -7.6481080811092994 -38.969065608190959 8.9080474906165588 #
point $-1 -7.6481080811092994 -25.675228907076963 8.9080474906165588 #
edge $-1 $327 1 $327 0 $169 $-1 forward 7 unknown #
vertex $-1 $170 $328 #
ellipse-curve $-1 -20.223683663783724 -31.22038999356252 2.9914116925102241 0 -0.52991927123019833 0.84804809178421925 2 0 0 1 I I #
point $-1 -18.223683663783724 -32.322147257633951 4.7545918524544284 #
plane-surface $-1 0 0 8.9080474906165588 0 0 1 1 0 0 forward_v I I I I #
coedge $-1 $272 $271 $264 $329 forward $174 $-1 #
coedge $-1 $264 $176 $178 $268 reversed $106 $-1 #
coedge $-1 $176 $263 $262 $329 reversed $106 $-1 #
coedge $-1 $184 $179 $176 $266 forward $185 $-1 #
edge $-1 $269 -25.837665404484383 $330 -12.543828703370387 $265 $331 forward 7 unknown #
coedge $-1 $178 $177 $272 $332 reversed $66 $-1 #
edge $-1 $333 0 $269 15.675805216594405 $263 $334 forward 7 unknown #
vertex $-1 $180 $335 #
straight-curve $-1 17.701934998334927 -25.675228907076963 8.9080474906165588 -1 0 0 I I #
coedge $-1 $262 $181 $184 $276 reversed $174 $-1 #
coedge $-1 $181 $262 $267 $332 forward $174 $-1 #
vertex $-1 $182 $336 #
straight-curve $-1 47.979445579344279 -38.969065608190959 51.556659995116952 0 0 1 I I #
straight-curve $-1 47.979445579344279 -38.969065608190959 0.60113621429231046 0 -0.84804809178421925 -0.52991927123019833 I I #
edge $-1 $330 22.82829441399543 $186 47.979445579344279 $271 $337 forward 7 unknown #
point $-1 47.979445579344279 -38.969065608190959 8.9080474906165588 #
point $-1 47.979445579344279 -25.675228907076963 8.9080474906165588 #
edge $-1 $338 1 $338 0 $189 $-1 forward 7 unknown #
vertex $-1 $190 $339 #
ellipse-curve $-1 35.403869996669854 -31.22038999356252 2.9914116925102241 0 -0.52991927123019833 0.84804809178421925 2 0 0 1 I I #
point $-1 37.403869996669854 -32.322147257633951 4.7545918524544284 #
plane-surface $-1 60.440076906643881 0 0 -1 0 0 0 0 1 forward_v I I I I #
coedge $-1 $196 $293 $199 $287 reversed $121 $-1 #
vertex $-1 $287 $340 #
straight-curve $-1 -60.440076906643881 -38.969065608190959 0 0 0 -1 I I #
edge $-1 $285 -38.969065608190959 $289 38.969065608190959 $284 $341 forward 7 unknown #
straight-curve $-1 0 -38.969065608190959 -8.9080474906165588 -1 0 0 I I #
vertex $-1 $202 $342 #
straight-curve $-1 0 38.969065608190959 -8.9080474906165588 1 0 0 I I #
point $-1 60.440076906643881 38.969065608190959 -8.9080474906165588 #
point $-1 60.440076906643881 -38.969065608190959 -8.9080474906165588 #
coedge $-1 $284 $206 $209 $295 forward $121 $-1 #
straight-curve $-1 -60.440076906643881 0 8.9080474906165588 0 -1 0 I I #
edge $-1 $210 -8.9080474906165588 $289 8.9080474906165588 $209 $343 forward 7 unknown #
point $-1 -60.440076906643881 38.969065608190959 8.9080474906165588 #
point $-1 -60.440076906643881 -38.969065608190959 8.9080474906165588 #
straight-curve $-1 60.440076906643881 -38.969065608190959 0 0 0 -1 I I #
straight-curve $-1 60.440076906643881 38.969065608190959 0 0 0 -1 I I #
plane-surface $-1 0 -38.969065608190959 0 0 1 0 0 0 1 forward_v I I I I #
coedge $-1 $344 $314 $223 $303 forward $220 $-1 #
coedge $-1 $304 $222 $231 $312 forward $140 $-1 #
edge $-1 $307 -2.0474073444801895 $305 2.0474073444801899 $223 $345 forward 7 unknown #
coedge $-1 $224 $302 $344 $346 forward $140 $-1 #
vertex $-1 $225 $347 #
straight-curve $-1 -65.252600152834177 38.969065608190959 -6.5253427918943121 1 0 0 I I #
vertex $-1 $226 $348 #
straight-curve $-1 -65.252600152834177 38.969065608190959 -2.4305281029339327 -1 0 0 I I #
point $-1 -60.440076906643874 38.969065608190959 -6.5253427918943121 #
straight-curve $-1 -60.440076906643881 0 -6.5253427918943121 0 1 0 I I #
coedge $-1 $231 $230 $349 $350 forward $232 $-1 #
edge $-1 $233 -4.8125232461903025 $351 4.8125232461902954 $231 $352 forward 7 unknown #
point $-1 -60.440076906643874 -38.969065608190959 -6.5253427918943121 #
coedge $-1 $301 $349 $235 $315 reversed $220 $-1 #
edge $-1 $307 -38.969065608190959 $316 38.969065608190959 $314 $353 forward 7 unknown #
vertex $-1 $315 $354 #
straight-curve $-1 -65.252600152834177 -38.969065608190959 -2.4305281029339327 1 0 0 I I #
edge $-1 $319 42.648612504500392 $322 50.955523780824642 $240 $355 forward 7 unknown #
vertex $-1 $254 $356 #
straight-curve $-1 -32.799259246458149 -51.512894311561347 8.9080474906165605 0 -1 0 I I #
edge $-1 $322 -22.687417414566287 $251 2.4637337507825627 $250 $357 forward 7 unknown #
vertex $-1 $321 $358 #
straight-curve $-1 -32.799259246458149 -38.969065608190959 0.60113621429231046 0 0.84804809178421925 0.52991927123019833 I I #
point $-1 -32.799259246458149 -25.675228907076963 8.9080474906165588 #
point $-1 -7.6481080811092994 -38.969065608190959 0.60113621429231046 #
straight-curve $-1 0 -38.969065608190959 8.9080474906165588 1 0 0 I I #
vertex $-1 $257 $359 #
point $-1 -18.223683663783724 -31.22038999356252 2.9914116925102241 #
edge $-1 $330 42.648612504500392 $333 50.955523780824642 $262 $360 forward 7 unknown #
vertex $-1 $276 $361 #
straight-curve $-1 22.82829441399543 -51.512894311561347 8.9080474906165605 0 -1 0 I I #
edge $-1 $333 5.1263594156605023 $273 30.277510581009352 $272 $362 forward 7 unknown #
vertex $-1 $332 $363 #
straight-curve $-1 22.82829441399543 -38.969065608190959 0.60113621429231046 0 0.84804809178421925 0.52991927123019833 I I #
point $-1 22.82829441399543 -25.675228907076963 8.9080474906165588 #
point $-1 47.979445579344279 -38.969065608190959 0.60113621429231046 #
straight-curve $-1 0 -38.969065608190959 8.9080474906165588 1 0 0 I I #
vertex $-1 $279 $364 #
point $-1 37.403869996669854 -31.22038999356252 2.9914116925102241 #
point $-1 -60.440076906643881 -38.969065608190959 -8.9080474906165588 #
straight-curve $-1 -60.440076906643881 0 -8.9080474906165588 0 1 0 I I #
point $-1 -60.440076906643881 38.969065608190959 -8.9080474906165588 #
straight-curve $-1 -60.440076906643881 38.969065608190959 0 0 0 -1 I I #
coedge $-1 $349 $301 $304 $346 reversed $220 $-1 #
straight-curve $-1 -70.065123399024472 38.969065608190959 -4.4779354474141222 0 0 -1 I I #
edge $-1 $351 -38.969065608190959 $305 38.969065608190959 $344 $365 forward 7 unknown #
point $-1 -70.065123399024472 38.969065608190959 -6.5253427918943121 #
point $-1 -70.065123399024472 38.969065608190959 -2.4305281029339327 #
coedge $-1 $314 $344 $311 $350 reversed $220 $-1 #
edge $-1 $316 -2.0474073444801895 $351 2.0474073444801899 $349 $366 forward 7 unknown #
vertex $-1 $346 $367 #
straight-curve $-1 -65.252600152834177 -38.969065608190959 -6.5253427918943121 -1 0 0 I I #
straight-curve $-1 -70.065123399024472 0 -2.4305281029339327 0 -1 0 I I #
point $-1 -70.065123399024472 -38.969065608190959 -2.4305281029339327 #
straight-curve $-1 -32.799259246458149 -38.969065608190959 51.556659995116952 0 0 -1 I I #
point $-1 -32.799259246458149 -38.969065608190959 8.9080474906165588 #
straight-curve $-1 -10.111841831891862 -38.969065608190959 0.60113621429230923 1 0 0 I I #
point $-1 -32.799259246458149 -38.969065608190959 0.60113621429231046 #
point $-1 -20.223683663783724 -30.160551451102123 1.2953155089417856 #
straight-curve $-1 22.82829441399543 -38.969065608190959 51.556659995116952 0 0 -1 I I #
point $-1 22.82829441399543 -38.969065608190959 8.9080474906165588 #
straight-curve $-1 17.701934998334927 -38.969065608190959 0.60113621429230923 1 0 0 I I #
point $-1 22.82829441399543 -38.969065608190959 0.60113621429231046 #
point $-1 35.403869996669854 -30.160551451102123 1.2953155089417856 #
straight-curve $-1 -70.065123399024472 0 -6.5253427918943121 0 1 0 I I #
straight-curve $-1 -70.065123399024472 -38.969065608190959 -4.4779354474141222 0 0 -1 I I #
point $-1 -70.065123399024472 -38.969065608190959 -6.5253427918943121 #
End-of-ACIS-data 