500 0 9 0           
7 Unknown 11 ACIS 5.0 NT 24 Fri Mar 26 16:51:35 1999 
-1 9.9999999999999995e-007 1e-010 
body $-1 $9 $-1 $10 #
body $-1 $11 $-1 $12 #
body $-1 $13 $-1 $14 #
body $-1 $15 $-1 $16 #
body $-1 $17 $-1 $18 #
body $-1 $19 $-1 $20 #
body $-1 $21 $-1 $22 #
body $-1 $23 $-1 $24 #
body $-1 $25 $-1 $26 #
lump $-1 $-1 $27 $0 #
transform $-1 1 0 0 0 1 0 0 0 1 64.854274117252118 37.180121886812017 11.341486016274061 1 rotate no_reflect no_shear #
lump $-1 $-1 $28 $1 #
transform $-1 1 0 0 0 1 0 0 0 1 64.854274117252118 37.180121886812017 11.341486016274061 1 rotate no_reflect no_shear #
lump $-1 $-1 $29 $2 #
transform $-1 1 0 0 0 1 0 0 0 1 64.854274117252118 37.180121886812017 11.341486016274061 1 rotate no_reflect no_shear #
lump $-1 $-1 $30 $3 #
transform $-1 1 0 0 0 1 0 0 0 1 64.854274117252118 37.180121886812017 11.341486016274061 1 rotate no_reflect no_shear #
lump $-1 $-1 $31 $4 #
transform $-1 1 0 0 0 1 0 0 0 1 64.854274117252118 37.180121886812017 11.341486016274061 1 rotate no_reflect no_shear #
lump $-1 $-1 $32 $5 #
transform $-1 1 0 0 0 1 0 0 0 1 64.854274117252118 37.180121886812017 11.341486016274061 1 rotate no_reflect no_shear #
lump $-1 $-1 $33 $6 #
transform $-1 1 0 0 0 1 0 0 0 1 64.854274117252118 37.180121886812017 11.341486016274061 1 rotate no_reflect no_shear #
lump $-1 $-1 $34 $7 #
transform $-1 1 0 0 0 1 0 0 0 1 64.854274117252118 37.180121886812017 11.341486016274061 1 rotate no_reflect no_shear #
lump $-1 $-1 $35 $8 #
transform $-1 1 0 0 0 1 0 0 0 1 64.854274117252118 37.180121886812017 11.341486016274061 1 rotate no_reflect no_shear #
shell $-1 $-1 $-1 $36 $-1 $9 #
shell $-1 $-1 $-1 $37 $-1 $11 #
shell $-1 $-1 $-1 $38 $-1 $13 #
shell $-1 $-1 $-1 $39 $-1 $15 #
shell $-1 $-1 $-1 $40 $-1 $17 #
shell $-1 $-1 $-1 $41 $-1 $19 #
shell $-1 $-1 $-1 $42 $-1 $21 #
shell $-1 $-1 $-1 $43 $-1 $23 #
shell $-1 $-1 $-1 $44 $-1 $25 #
face $-1 $45 $46 $27 $-1 $47 forward single #
face $-1 $48 $49 $28 $-1 $50 forward single #
face $-1 $51 $52 $29 $-1 $53 reversed single #
face $-1 $54 $55 $30 $-1 $56 forward single #
face $-1 $57 $58 $31 $-1 $59 forward single #
face $-1 $60 $61 $32 $-1 $62 forward single #
face $-1 $63 $64 $33 $-1 $65 reversed single #
face $-1 $66 $67 $34 $-1 $68 forward single #
face $-1 $69 $70 $35 $-1 $71 forward single #
face $-1 $72 $73 $27 $-1 $74 reversed single #
loop $-1 $-1 $75 $36 #
plane-surface $-1 0 0 11.341486016274061 0 0 1 1 0 0 forward_v I I I I #
face $-1 $76 $77 $28 $-1 $78 reversed single #
loop $-1 $-1 $79 $37 #
plane-surface $-1 -64.854274117252118 0 0 1 0 0 0 0 -1 forward_v I I I I #
face $-1 $80 $81 $29 $-1 $82 reversed single #
loop $-1 $-1 $83 $38 #
plane-surface $-1 55.359987668903273 -37.180121886812032 0.94547194019720848 0 -0.74314483375859142 0.66913059716165679 1 0 0 forward_v I I I I #
face $-1 $84 $85 $30 $-1 $86 forward single #
loop $-1 $87 $88 $39 #
cone-surface $-1 49.663415799893954 -31.253000439964943 5.0208417340887141 0 0.74314483375859142 -0.66913059716165679 1.5 0 0 1 I I 0 1 1.5 forward I I I I #
face $-1 $89 $90 $31 $-1 $91 forward single #
loop $-1 $92 $93 $40 #
cone-surface $-1 55.359987668903258 -31.253000439964943 5.0208417340887141 0 0.74314483375859142 -0.66913059716165679 1.5 0 0 1 I I 0 1 1.5 forward I I I I #
face $-1 $94 $95 $32 $-1 $96 forward single #
loop $-1 $97 $98 $41 #
cone-surface $-1 61.056559537912563 -31.253000439964943 5.0208417340887141 0 0.74314483375859142 -0.66913059716165679 1.5 0 0 1 I I 0 1 1.5 forward I I I I #
face $-1 $99 $100 $33 $-1 $101 reversed single #
loop $-1 $-1 $102 $42 #
plane-surface $-1 12.112156570207041 71.25750114567596 149.2144466815717 1 0 0 0 -0.68199836817093118 -0.7313536940579346 forward_v I I I I #
face $-1 $103 $104 $34 $-1 $105 forward single #
loop $-1 $106 $107 $43 #
cone-surface $-1 17.706783745855546 31.366859806198555 5.6851852205026692 0 -0.68199836817093118 -0.7313536940579346 2.5 0 0 1 I I 0 1 2.5 forward I I I I #
face $-1 $108 $109 $35 $-1 $110 forward single #
loop $-1 $111 $112 $44 #
cone-surface $-1 26.098724509328292 31.366859806198555 5.6851852205026692 0 -0.68199836817093118 -0.7313536940579346 2.5 0 0 1 I I 0 1 2.5 forward I I I I #
face $-1 $113 $114 $27 $-1 $115 reversed single #
loop $-1 $-1 $116 $45 #
plane-surface $-1 0 0 -11.341486016274061 0 0 1 1 0 0 forward_v I I I I #
coedge $-1 $117 $118 $119 $120 forward $46 $-1 #
face $-1 $121 $122 $28 $-1 $123 forward single #
loop $-1 $-1 $124 $48 #
plane-surface $-1 0 37.180121886812017 0 0 -1 0 0 0 -1 forward_v I I I I #
coedge $-1 $125 $126 $127 $128 forward $49 $-1 #
face $-1 $129 $130 $29 $-1 $131 reversed single #
loop $-1 $-1 $132 $51 #
plane-surface $-1 45.865701220554421 -133.57235940161092 87.737430277322588 1 0 0 0 0.74314483375859142 -0.66913059716165679 forward_v I I I I #
coedge $-1 $133 $134 $135 $136 reversed $52 $-1 #
face $-1 $-1 $137 $30 $-1 $138 forward single #
loop $-1 $139 $140 $54 #
cone-surface $-1 49.663415799893954 -29.448826810651781 3.3963565420705528 0 0.74314483375859142 -0.66913059716165679 0.75 0 0 1 I I -0.70710678118654768 0.70710678118654735 0.75 forward I I I I #
loop $-1 $-1 $141 $39 #
coedge $-1 $88 $88 $142 $143 reversed $55 $-1 #
face $-1 $-1 $144 $31 $-1 $145 forward single #
loop $-1 $146 $147 $57 #
cone-surface $-1 55.359987668903258 -29.448826810651781 3.3963565420705528 0 0.74314483375859142 -0.66913059716165679 0.75 0 0 1 I I -0.70710678118654768 0.70710678118654735 0.75 forward I I I I #
loop $-1 $-1 $148 $40 #
coedge $-1 $93 $93 $149 $150 reversed $58 $-1 #
face $-1 $-1 $151 $32 $-1 $152 forward single #
loop $-1 $153 $154 $60 #
cone-surface $-1 61.056559537912563 -29.448826810651781 3.3963565420705528 0 0.74314483375859142 -0.66913059716165679 0.75 0 0 1 I I -0.70710678118654768 0.70710678118654735 0.75 forward I I I I #
loop $-1 $-1 $155 $41 #
coedge $-1 $98 $98 $156 $157 reversed $61 $-1 #
face $-1 $158 $159 $33 $-1 $160 reversed single #
loop $-1 $-1 $161 $63 #
plane-surface $-1 21.902754127591919 -17.203517088076438 54.351620779375239 0 0.68199836817093118 0.7313536940579346 1 0 0 forward_v I I I I #
coedge $-1 $162 $163 $164 $165 reversed $64 $-1 #
face $-1 $-1 $166 $34 $-1 $167 forward single #
loop $-1 $168 $169 $66 #
cone-surface $-1 17.706783745855546 28.831558398474286 2.9664073808103879 0 -0.68199836817093118 -0.7313536940579346 1.25 0 0 1 I I -0.70710678118654746 0.70710678118654746 1.25 forward I I I I #
loop $-1 $-1 $170 $43 #
coedge $-1 $107 $107 $171 $172 reversed $67 $-1 #
face $-1 $-1 $173 $35 $-1 $174 forward single #
loop $-1 $175 $176 $69 #
cone-surface $-1 26.098724509328292 28.831558398474286 2.9664073808103879 0 -0.68199836817093118 -0.7313536940579346 1.25 0 0 1 I I -0.70710678118654746 0.70710678118654746 1.25 forward I I I I #
loop $-1 $-1 $177 $44 #
coedge $-1 $112 $112 $178 $179 reversed $70 $-1 #
face $-1 $180 $181 $27 $-1 $182 reversed single #
loop $-1 $-1 $183 $72 #
plane-surface $-1 0 -37.180121886812017 0 0 1 0 0 0 1 forward_v I I I I #
coedge $-1 $184 $185 $186 $187 forward $73 $-1 #
coedge $-1 $188 $75 $189 $190 forward $46 $-1 #
coedge $-1 $75 $188 $191 $192 forward $46 $-1 #
coedge $-1 $193 $194 $75 $120 reversed $195 $-1 #
edge $-1 $196 -37.180121886812017 $197 37.180121886812017 $119 $198 forward 7 unknown #
face $-1 $199 $200 $28 $-1 $201 reversed single #
loop $-1 $-1 $127 $76 #
plane-surface $-1 -69.402795999823653 0 -5.285886344374858 0 0 1 1 0 0 forward_v I I I I #
coedge $-1 $202 $203 $126 $204 forward $77 $-1 #
coedge $-1 $205 $79 $206 $207 reversed $49 $-1 #
coedge $-1 $79 $205 $124 $204 reversed $49 $-1 #
coedge $-1 $208 $209 $79 $128 reversed $122 $-1 #
edge $-1 $210 -37.180121886812017 $211 37.180121886812017 $127 $212 forward 7 unknown #
face $-1 $213 $214 $29 $-1 $215 forward single #
loop $-1 $-1 $216 $80 #
plane-surface $-1 0 -37.180121886812017 0 0 1 0 0 0 1 forward_v I I I I #
coedge $-1 $217 $218 $219 $220 reversed $81 $-1 #
coedge $-1 $221 $83 $222 $223 reversed $52 $-1 #
coedge $-1 $83 $221 $217 $224 forward $52 $-1 #
coedge $-1 $219 $225 $83 $136 forward $214 $-1 #
edge $-1 $226 -37.174280282800481 $227 -18.185707386102784 $135 $228 forward 7 unknown #
loop $-1 $-1 $142 $84 #
plane-surface $-1 55.359987668903273 -37.180121886812032 0.94547194019720848 0 -0.74314483375859142 0.66913059716165679 1 0 0 forward_v I I I I #
loop $-1 $-1 $229 $54 #
coedge $-1 $140 $140 $141 $230 reversed $85 $-1 #
coedge $-1 $141 $141 $140 $230 forward $87 $-1 #
coedge $-1 $142 $142 $88 $143 forward $137 $-1 #
edge $-1 $231 -1.6706922624905774e-015 $231 6.2831853071795987 $142 $232 forward 7 unknown #
loop $-1 $-1 $149 $89 #
plane-surface $-1 55.359987668903273 -37.180121886812032 0.94547194019720848 0 -0.74314483375859142 0.66913059716165679 1 0 0 forward_v I I I I #
loop $-1 $-1 $233 $57 #
coedge $-1 $147 $147 $148 $234 reversed $90 $-1 #
coedge $-1 $148 $148 $147 $234 forward $92 $-1 #
coedge $-1 $149 $149 $93 $150 forward $144 $-1 #
edge $-1 $235 -1.6706922624905774e-015 $235 6.2831853071795987 $149 $236 forward 7 unknown #
loop $-1 $-1 $156 $94 #
plane-surface $-1 55.359987668903273 -37.180121886812032 0.94547194019720848 0 -0.74314483375859142 0.66913059716165679 1 0 0 forward_v I I I I #
loop $-1 $-1 $237 $60 #
coedge $-1 $154 $154 $155 $238 reversed $95 $-1 #
coedge $-1 $155 $155 $154 $238 forward $97 $-1 #
coedge $-1 $156 $156 $98 $157 forward $151 $-1 #
edge $-1 $239 -1.6706922624905774e-015 $239 6.2831853071795987 $156 $240 forward 7 unknown #
face $-1 $241 $242 $33 $-1 $243 forward single #
loop $-1 $-1 $244 $99 #
plane-surface $-1 31.693351684976797 71.25750114567596 149.2144466815717 -1 0 0 0 0.68199836817093118 0.7313536940579346 forward_v I I I I #
coedge $-1 $245 $246 $247 $248 reversed $100 $-1 #
coedge $-1 $163 $102 $249 $250 reversed $64 $-1 #
coedge $-1 $102 $162 $245 $251 reversed $64 $-1 #
coedge $-1 $247 $252 $102 $165 forward $242 $-1 #
edge $-1 $253 -1.5513713139740375 $254 6.7095459522316432 $164 $255 forward 7 unknown #
loop $-1 $-1 $171 $103 #
plane-surface $-1 21.902754127591919 -17.203517088076438 54.351620779375239 0 0.68199836817093118 0.7313536940579346 1 0 0 forward_v I I I I #
loop $-1 $-1 $256 $66 #
coedge $-1 $169 $169 $170 $257 reversed $104 $-1 #
coedge $-1 $170 $170 $169 $257 forward $106 $-1 #
coedge $-1 $171 $171 $107 $172 forward $166 $-1 #
edge $-1 $258 -1.2497305188488569e-015 $258 6.2831853071795996 $171 $259 forward 7 unknown #
loop $-1 $-1 $178 $108 #
plane-surface $-1 21.902754127591919 -17.203517088076438 54.351620779375239 0 0.68199836817093118 0.7313536940579346 1 0 0 forward_v I I I I #
loop $-1 $-1 $260 $69 #
coedge $-1 $176 $176 $177 $261 reversed $109 $-1 #
coedge $-1 $177 $177 $176 $261 forward $111 $-1 #
coedge $-1 $178 $178 $112 $179 forward $173 $-1 #
edge $-1 $262 -1.2497305188488569e-015 $262 6.2831853071795996 $178 $263 forward 7 unknown #
face $-1 $264 $265 $27 $-1 $266 reversed single #
loop $-1 $-1 $267 $113 #
plane-surface $-1 -64.854274117252118 0 0 1 0 0 0 0 -1 forward_v I I I I #
coedge $-1 $268 $191 $269 $270 forward $114 $-1 #
coedge $-1 $271 $116 $268 $272 forward $73 $-1 #
coedge $-1 $116 $271 $273 $274 forward $73 $-1 #
coedge $-1 $194 $193 $116 $187 reversed $195 $-1 #
edge $-1 $275 -37.180121886812017 $276 37.180121886812017 $186 $277 forward 7 unknown #
coedge $-1 $118 $117 $278 $279 forward $46 $-1 #
coedge $-1 $280 $281 $117 $190 reversed $265 $-1 #
edge $-1 $197 -64.854274117252118 $282 64.854274117252118 $189 $283 forward 7 unknown #
coedge $-1 $183 $284 $118 $192 reversed $114 $-1 #
edge $-1 $285 -64.854274117252118 $196 64.854274117252118 $191 $286 forward 7 unknown #
coedge $-1 $186 $119 $284 $287 forward $195 $-1 #
coedge $-1 $119 $186 $280 $288 reversed $195 $-1 #
loop $-1 $-1 $193 $264 #
vertex $-1 $120 $289 #
vertex $-1 $120 $290 #
straight-curve $-1 64.854274117252118 0 11.341486016274061 0 1 0 I I #
face $-1 $291 $292 $28 $-1 $293 reversed single #
loop $-1 $-1 $294 $121 #
plane-surface $-1 -73.951317882395188 0 -8.3136861803244599 1 0 0 0 0 -1 forward_v I I I I #
coedge $-1 $295 $124 $296 $297 reversed $77 $-1 #
coedge $-1 $124 $295 $208 $298 reversed $77 $-1 #
edge $-1 $210 5.285886344374858 $299 11.341486016274061 $124 $300 forward 7 unknown #
coedge $-1 $126 $125 $301 $302 reversed $49 $-1 #
coedge $-1 $303 $304 $125 $207 forward $305 $-1 #
edge $-1 $306 -11.341486016274061 $211 -5.285886344374858 $206 $307 forward 7 unknown #
coedge $-1 $308 $127 $203 $298 forward $122 $-1 #
coedge $-1 $127 $308 $303 $309 forward $122 $-1 #
vertex $-1 $204 $310 #
vertex $-1 $309 $311 #
straight-curve $-1 -64.854274117252118 0 -5.285886344374858 0 -1 0 I I #
face $-1 $-1 $312 $29 $-1 $313 reversed single #
loop $-1 $-1 $219 $129 #
plane-surface $-1 0 0 11.341486016274061 0 0 1 1 0 0 forward_v I I I I #
coedge $-1 $314 $315 $218 $316 forward $130 $-1 #
coedge $-1 $218 $132 $134 $224 reversed $81 $-1 #
coedge $-1 $132 $217 $216 $316 reversed $81 $-1 #
coedge $-1 $317 $135 $132 $220 forward $214 $-1 #
edge $-1 $227 -38.966670699699137 $318 -29.606057813993445 $219 $319 forward 7 unknown #
coedge $-1 $134 $133 $314 $320 reversed $52 $-1 #
coedge $-1 $321 $322 $133 $223 forward $312 $-1 #
edge $-1 $323 -12.087867286422206 $226 1.9013493559072407 $222 $324 forward 7 unknown #
edge $-1 $325 2.1224720073754982e-014 $227 13.989216642329467 $217 $326 forward 7 unknown #
coedge $-1 $135 $317 $321 $327 forward $214 $-1 #
vertex $-1 $223 $328 #
vertex $-1 $136 $329 #
straight-curve $-1 27.679993834451636 -27.819509001106326 11.341486016274061 -1 0 0 I I #
coedge $-1 $229 $229 $-1 $330 reversed $139 $-1 #
edge $-1 $331 0 $331 6.2831853071796004 $140 $332 forward 7 unknown #
vertex $-1 $143 $333 #
ellipse-curve $-1 49.663415799893954 -32.499815443959172 6.1434789782356427 0 -0.74314483375859142 0.66913059716165679 1.5 0 0 1 I I #
coedge $-1 $233 $233 $-1 $334 reversed $146 $-1 #
edge $-1 $335 0 $335 6.2831853071796004 $147 $336 forward 7 unknown #
vertex $-1 $150 $337 #
ellipse-curve $-1 55.359987668903258 -32.499815443959172 6.1434789782356427 0 -0.74314483375859142 0.66913059716165679 1.5 0 0 1 I I #
coedge $-1 $237 $237 $-1 $338 reversed $153 $-1 #
edge $-1 $339 0 $339 6.2831853071796004 $154 $340 forward 7 unknown #
vertex $-1 $157 $341 #
ellipse-curve $-1 61.056559537912563 -32.499815443959172 6.1434789782356427 0 -0.74314483375859142 0.66913059716165679 1.5 0 0 1 I I #
face $-1 $-1 $342 $33 $-1 $343 reversed single #
loop $-1 $-1 $164 $158 #
plane-surface $-1 0 0 11.341486016274061 0 0 1 1 0 0 forward_v I I I I #
coedge $-1 $344 $345 $346 $347 reversed $159 $-1 #
coedge $-1 $348 $161 $163 $251 forward $100 $-1 #
coedge $-1 $161 $348 $344 $349 forward $100 $-1 #
coedge $-1 $346 $164 $161 $248 forward $242 $-1 #
edge $-1 $254 1.1607795064110817 $350 20.741974621180837 $247 $351 forward 7 unknown #
coedge $-1 $352 $353 $162 $250 forward $342 $-1 #
edge $-1 $354 -70.969167471814842 $253 -63.26573732451179 $249 $355 forward 7 unknown #
edge $-1 $254 63.064864624898085 $354 74.36024377362402 $163 $356 forward 7 unknown #
coedge $-1 $164 $346 $352 $357 forward $242 $-1 #
vertex $-1 $250 $358 #
vertex $-1 $165 $359 #
straight-curve $-1 12.112156570207041 35.62875057283798 11.341486016274061 0 -1 0 I I #
coedge $-1 $256 $256 $-1 $360 reversed $168 $-1 #
edge $-1 $361 0 $361 6.2831853071796004 $169 $362 forward 7 unknown #
vertex $-1 $172 $363 #
ellipse-curve $-1 17.706783745855546 33.04966325370917 7.4897709426225445 0 0.68199836817093118 0.7313536940579346 2.5 0 0 1 I I #
coedge $-1 $260 $260 $-1 $364 reversed $175 $-1 #
edge $-1 $365 0 $365 6.2831853071796004 $176 $366 forward 7 unknown #
vertex $-1 $179 $367 #
ellipse-curve $-1 26.098724509328292 33.04966325370917 7.4897709426225445 0 0.68199836817093118 0.7313536940579346 2.5 0 0 1 I I #
face $-1 $-1 $195 $27 $-1 $368 reversed single #
loop $-1 $-1 $280 $180 #
plane-surface $-1 0 37.180121886812017 0 0 -1 0 0 0 -1 forward_v I I I I #
coedge $-1 $369 $278 $281 $370 forward $181 $-1 #
coedge $-1 $284 $183 $184 $272 reversed $114 $-1 #
coedge $-1 $278 $369 $183 $270 reversed $181 $-1 #
edge $-1 $285 -11.341486016274061 $371 11.341486016274061 $269 $372 forward 7 unknown #
coedge $-1 $185 $184 $369 $373 forward $73 $-1 #
edge $-1 $276 -64.854274117252118 $371 64.854274117252118 $268 $374 forward 7 unknown #
coedge $-1 $281 $280 $185 $274 reversed $265 $-1 #
edge $-1 $375 -64.854274117252118 $275 64.854274117252118 $273 $376 forward 7 unknown #
vertex $-1 $187 $377 #
vertex $-1 $287 $378 #
straight-curve $-1 64.854274117252118 0 -11.341486016274061 0 -1 0 I I #
coedge $-1 $267 $269 $188 $279 reversed $181 $-1 #
edge $-1 $282 -37.180121886812017 $285 37.180121886812017 $278 $379 forward 7 unknown #
coedge $-1 $273 $189 $194 $288 forward $265 $-1 #
coedge $-1 $189 $273 $267 $370 reversed $265 $-1 #
vertex $-1 $190 $380 #
straight-curve $-1 0 37.180121886812017 11.341486016274061 -1 0 0 I I #
coedge $-1 $191 $268 $193 $287 reversed $114 $-1 #
vertex $-1 $279 $381 #
straight-curve $-1 0 -37.180121886812017 11.341486016274061 1 0 0 I I #
edge $-1 $196 -11.341486016274061 $276 11.341486016274061 $193 $382 forward 7 unknown #
edge $-1 $197 -11.341486016274061 $275 11.341486016274061 $194 $383 forward 7 unknown #
point $-1 64.854274117252118 -37.180121886812017 11.341486016274061 #
point $-1 64.854274117252118 37.180121886812017 11.341486016274061 #
face $-1 $-1 $305 $28 $-1 $384 reversed single #
loop $-1 $-1 $301 $199 #
plane-surface $-1 0 0 -11.341486016274061 0 0 1 1 0 0 forward_v I I I I #
coedge $-1 $385 $386 $295 $387 forward $200 $-1 #
coedge $-1 $203 $202 $294 $387 reversed $77 $-1 #
coedge $-1 $301 $388 $202 $297 forward $292 $-1 #
edge $-1 $389 -73.951317882395188 $299 -64.854274117252118 $202 $390 forward 7 unknown #
edge $-1 $210 -4.548521882571535 $391 4.548521882571535 $203 $392 forward 7 unknown #
vertex $-1 $204 $393 #
straight-curve $-1 -64.854274117252118 37.180121886812017 0 0 0 -1 I I #
coedge $-1 $394 $296 $205 $302 forward $292 $-1 #
edge $-1 $299 -37.180121886812017 $306 37.180121886812017 $301 $395 forward 7 unknown #
coedge $-1 $396 $206 $209 $309 reversed $305 $-1 #
coedge $-1 $206 $396 $394 $397 reversed $305 $-1 #
loop $-1 $-1 $206 $291 #
vertex $-1 $397 $398 #
straight-curve $-1 -64.854274117252118 -37.180121886812017 0 0 0 1 I I #
coedge $-1 $209 $208 $386 $399 forward $122 $-1 #
edge $-1 $400 -4.548521882571535 $211 4.548521882571535 $303 $401 forward 7 unknown #
point $-1 -64.854274117252118 37.180121886812017 -5.285886344374858 #
point $-1 -64.854274117252118 -37.180121886812017 -5.285886344374858 #
loop $-1 $-1 $222 $213 #
plane-surface $-1 64.854274117252118 0 0 -1 0 0 0 0 1 forward_v I I I I #
coedge $-1 $402 $216 $221 $320 forward $130 $-1 #
coedge $-1 $216 $402 $317 $403 reversed $130 $-1 #
edge $-1 $318 32.527229122387233 $325 42.923243198464071 $216 $404 forward 7 unknown #
coedge $-1 $225 $219 $315 $403 forward $214 $-1 #
vertex $-1 $403 $405 #
straight-curve $-1 45.865701220554421 -66.786179700805462 11.341486016274061 0 -1 0 I I #
edge $-1 $325 18.185707386102784 $323 37.174280282800481 $314 $406 forward 7 unknown #
coedge $-1 $322 $222 $225 $327 reversed $312 $-1 #
coedge $-1 $222 $321 $402 $407 forward $312 $-1 #
vertex $-1 $320 $408 #
straight-curve $-1 64.854274117252118 -29.09176003103747 9.9285080652613704 0 0.66913059716165679 0.74314483375859142 I I #
vertex $-1 $320 $409 #
straight-curve $-1 45.865701220554421 -37.180121886812032 0.94547194019720848 0 0.66913059716165679 0.74314483375859142 I I #
edge $-1 $410 -37.180121886812017 $226 -27.819509001106326 $321 $411 forward 7 unknown #
point $-1 64.854274117252118 -27.819509001106326 11.341486016274061 #
point $-1 45.865701220554421 -27.819509001106326 11.341486016274061 #
edge $-1 $412 1 $412 0 $229 $-1 forward 7 unknown #
vertex $-1 $230 $413 #
ellipse-curve $-1 49.663415799893954 -30.006185435970725 3.8982044899417954 0 -0.74314483375859142 0.66913059716165679 1.5 0 0 1 I I #
point $-1 51.163415799893954 -32.499815443959164 6.1434789782356329 #
edge $-1 $414 1 $414 0 $233 $-1 forward 7 unknown #
vertex $-1 $234 $415 #
ellipse-curve $-1 55.359987668903258 -30.006185435970725 3.8982044899417954 0 -0.74314483375859142 0.66913059716165679 1.5 0 0 1 I I #
point $-1 56.859987668903258 -32.499815443959164 6.1434789782356329 #
edge $-1 $416 1 $416 0 $237 $-1 forward 7 unknown #
vertex $-1 $238 $417 #
ellipse-curve $-1 61.056559537912563 -30.006185435970725 3.8982044899417954 0 -0.74314483375859142 0.66913059716165679 1.5 0 0 1 I I #
point $-1 62.556559537912563 -32.499815443959164 6.1434789782356329 #
loop $-1 $-1 $249 $241 #
plane-surface $-1 0 37.180121886812017 0 0 -1 0 0 0 -1 forward_v I I I I #
coedge $-1 $345 $244 $246 $349 reversed $159 $-1 #
coedge $-1 $244 $344 $418 $419 reversed $159 $-1 #
coedge $-1 $252 $247 $244 $347 forward $242 $-1 #
edge $-1 $350 -6.7095459522316432 $420 1.5513713139740375 $346 $421 forward 7 unknown #
coedge $-1 $246 $245 $353 $422 reversed $100 $-1 #
edge $-1 $423 -74.36024377362402 $350 -63.064864624898085 $344 $424 forward 7 unknown #
vertex $-1 $248 $425 #
straight-curve $-1 10.95137706379596 28.919204620606344 11.341486016274064 1 0 0 I I #
coedge $-1 $418 $249 $252 $357 reversed $342 $-1 #
coedge $-1 $249 $418 $348 $422 forward $342 $-1 #
vertex $-1 $250 $426 #
straight-curve $-1 12.112156570207041 37.180121886812017 74.60722334078585 0 0 1 I I #
straight-curve $-1 12.112156570207041 -17.203517088076438 54.351620779375239 0 0.7313536940579346 -0.68199836817093118 I I #
edge $-1 $420 -31.693351684976797 $253 -12.112156570207041 $352 $427 forward 7 unknown #
point $-1 12.112156570207041 37.180121886812017 11.341486016274061 #
point $-1 12.112156570207041 28.919204620606337 11.341486016274061 #
edge $-1 $428 1 $428 0 $256 $-1 forward 7 unknown #
vertex $-1 $257 $429 #
ellipse-curve $-1 17.706783745855546 29.68405635868795 3.8805994983828063 0 0.68199836817093118 0.7313536940579346 2.5 0 0 1 I I #
point $-1 20.206783745855546 33.049663253709156 7.4897709426225338 #
edge $-1 $430 1 $430 0 $260 $-1 forward 7 unknown #
vertex $-1 $261 $431 #
ellipse-curve $-1 26.098724509328292 29.68405635868795 3.8805994983828063 0 0.68199836817093118 0.7313536940579346 2.5 0 0 1 I I #
point $-1 28.598724509328292 33.049663253709156 7.4897709426225338 #
plane-surface $-1 64.854274117252118 0 0 -1 0 0 0 0 1 forward_v I I I I #
coedge $-1 $269 $267 $271 $373 reversed $181 $-1 #
edge $-1 $282 -11.341486016274061 $375 11.341486016274061 $281 $432 forward 7 unknown #
vertex $-1 $373 $433 #
straight-curve $-1 -64.854274117252118 -37.180121886812017 0 0 0 -1 I I #
edge $-1 $371 -37.180121886812017 $375 37.180121886812017 $369 $434 forward 7 unknown #
straight-curve $-1 0 -37.180121886812017 -11.341486016274061 -1 0 0 I I #
vertex $-1 $274 $435 #
straight-curve $-1 0 37.180121886812017 -11.341486016274061 1 0 0 I I #
point $-1 64.854274117252118 37.180121886812017 -11.341486016274061 #
point $-1 64.854274117252118 -37.180121886812017 -11.341486016274061 #
straight-curve $-1 -64.854274117252118 0 11.341486016274061 0 -1 0 I I #
point $-1 -64.854274117252118 37.180121886812017 11.341486016274061 #
point $-1 -64.854274117252118 -37.180121886812017 11.341486016274061 #
straight-curve $-1 64.854274117252118 -37.180121886812017 0 0 0 -1 I I #
straight-curve $-1 64.854274117252118 37.180121886812017 0 0 0 -1 I I #
plane-surface $-1 0 -37.180121886812017 0 0 1 0 0 0 1 forward_v I I I I #
coedge $-1 $436 $294 $388 $437 reversed $200 $-1 #
coedge $-1 $294 $436 $308 $399 reversed $200 $-1 #
edge $-1 $391 -3.0277998359496019 $389 3.027799835949601 $295 $438 forward 7 unknown #
coedge $-1 $296 $394 $385 $437 forward $292 $-1 #
vertex $-1 $297 $439 #
straight-curve $-1 0 37.180121886812017 -11.341486016274061 1 0 0 I I #
vertex $-1 $298 $440 #
straight-curve $-1 -69.402795999823653 37.180121886812017 -5.285886344374858 -1 0 0 I I #
point $-1 -64.854274117252118 37.180121886812017 -11.341486016274061 #
coedge $-1 $388 $301 $304 $397 forward $292 $-1 #
straight-curve $-1 -64.854274117252118 0 -11.341486016274061 0 -1 0 I I #
coedge $-1 $304 $303 $436 $441 forward $305 $-1 #
edge $-1 $306 -4.548521882571535 $442 4.548521882571535 $304 $443 forward 7 unknown #
point $-1 -64.854274117252118 -37.180121886812017 -11.341486016274061 #
edge $-1 $391 -37.180121886812017 $400 37.180121886812017 $386 $444 forward 7 unknown #
vertex $-1 $399 $445 #
straight-curve $-1 -69.402795999823653 -37.180121886812017 -5.285886344374858 1 0 0 I I #
coedge $-1 $315 $314 $322 $407 reversed $130 $-1 #
edge $-1 $318 45.865701220554421 $410 64.854274117252118 $315 $446 forward 7 unknown #
straight-curve $-1 45.865701220554421 -37.180121886812017 43.868715138661294 0 0 -1 I I #
point $-1 45.865701220554421 -37.180121886812017 11.341486016274061 #
straight-curve $-1 27.679993834451636 -37.180121886812017 0.94547194019722103 1 0 0 I I #
edge $-1 $410 -11.341486016274061 $323 -0.94547194019722425 $322 $447 forward 7 unknown #
point $-1 64.854274117252118 -37.180121886812017 0.94547194019722425 #
point $-1 45.865701220554421 -37.180121886812017 0.94547194019722425 #
vertex $-1 $327 $448 #
straight-curve $-1 64.854274117252118 0 11.341486016274061 0 1 0 I I #
vertex $-1 $330 $449 #
point $-1 51.163415799893954 -30.006185435970725 3.8982044899417954 #
vertex $-1 $334 $450 #
point $-1 56.859987668903258 -30.006185435970725 3.8982044899417954 #
vertex $-1 $338 $451 #
point $-1 62.556559537912563 -30.006185435970725 3.8982044899417954 #
coedge $-1 $353 $352 $345 $419 forward $342 $-1 #
edge $-1 $420 63.26573732451179 $423 70.969167471814842 $418 $452 forward 7 unknown #
vertex $-1 $357 $453 #
straight-curve $-1 31.693351684976797 35.62875057283798 11.341486016274061 0 1 0 I I #
edge $-1 $423 -20.741974621180837 $354 -1.1607795064110817 $353 $454 forward 7 unknown #
vertex $-1 $422 $455 #
straight-curve $-1 31.693351684976797 -17.203517088076438 54.351620779375239 0 -0.7313536940579346 0.68199836817093118 I I #
point $-1 31.693351684976797 28.919204620606337 11.341486016274061 #
point $-1 12.112156570207041 37.180121886812017 3.6380558689710085 #
straight-curve $-1 0 37.180121886812017 11.341486016274061 -1 0 0 I I #
vertex $-1 $360 $456 #
point $-1 20.206783745855546 29.68405635868795 3.8805994983828063 #
vertex $-1 $364 $457 #
point $-1 28.598724509328292 29.68405635868795 3.8805994983828063 #
straight-curve $-1 -64.854274117252118 37.180121886812017 0 0 0 -1 I I #
point $-1 -64.854274117252118 -37.180121886812017 -11.341486016274061 #
straight-curve $-1 -64.854274117252118 0 -11.341486016274061 0 1 0 I I #
point $-1 -64.854274117252118 37.180121886812017 -11.341486016274061 #
coedge $-1 $386 $385 $396 $441 reversed $200 $-1 #
edge $-1 $442 -37.180121886812017 $389 37.180121886812017 $385 $458 forward 7 unknown #
straight-curve $-1 -73.951317882395188 37.180121886812017 -8.3136861803244599 0 0 -1 I I #
point $-1 -73.951317882395188 37.180121886812017 -11.341486016274061 #
point $-1 -73.951317882395188 37.180121886812017 -5.285886344374858 #
edge $-1 $400 -3.0277998359496019 $442 3.027799835949601 $436 $459 forward 7 unknown #
vertex $-1 $437 $460 #
straight-curve $-1 -69.402795999823653 -37.180121886812017 -11.341486016274061 -1 0 0 I I #
straight-curve $-1 -73.951317882395188 0 -5.285886344374858 0 -1 0 I I #
point $-1 -73.951317882395188 -37.180121886812017 -5.285886344374858 #
straight-curve $-1 0 -37.180121886812017 11.341486016274061 1 0 0 I I #
straight-curve $-1 64.854274117252118 -37.180121886812017 0 0 0 -1 I I #
point $-1 64.854274117252118 -37.180121886812017 11.341486016274061 #
point $-1 49.663415799893954 -28.891468185332837 2.8945085941993103 #
point $-1 55.359987668903258 -28.891468185332837 2.8945085941993103 #
point $-1 61.056559537912563 -28.891468185332837 2.8945085941993103 #
straight-curve $-1 31.693351684976797 37.180121886812017 74.60722334078585 0 0 -1 I I #
point $-1 31.693351684976797 37.180121886812017 11.341486016274061 #
straight-curve $-1 10.95137706379596 37.180121886812017 3.6380558689710121 -1 0 0 I I #
point $-1 31.693351684976797 37.180121886812017 3.6380558689710085 #
point $-1 17.706783745855546 27.979060438260621 2.0522152632379695 #
point $-1 26.098724509328292 27.979060438260621 2.0522152632379695 #
straight-curve $-1 -73.951317882395188 0 -11.341486016274061 0 1 0 I I #
straight-curve $-1 -73.951317882395188 -37.180121886812017 -8.3136861803244599 0 0 -1 I I #
point $-1 -73.951317882395188 -37.180121886812017 -11.341486016274061 #
End-of-ACIS-data 