500 0 10 0           
7 Unknown 11 ACIS 5.0 NT 24 Thu Mar 25 19:26:08 1999 
-1 9.9999999999999995e-007 1e-010 
body $-1 $10 $-1 $11 #
body $-1 $12 $-1 $13 #
body $-1 $14 $-1 $15 #
body $-1 $16 $-1 $17 #
body $-1 $18 $-1 $19 #
body $-1 $20 $-1 $21 #
body $-1 $22 $-1 $23 #
body $-1 $24 $-1 $25 #
body $-1 $26 $-1 $27 #
body $-1 $28 $-1 $29 #
lump $-1 $-1 $30 $0 #
transform $-1 1 0 0 0 1 0 0 0 1 78.519241920224616 53.128869545148348 24.420763443931314 1 rotate no_reflect no_shear #
lump $-1 $-1 $31 $1 #
transform $-1 1 0 0 0 1 0 0 0 1 78.519241920224616 53.128869545148348 24.420763443931314 1 rotate no_reflect no_shear #
lump $-1 $-1 $32 $2 #
transform $-1 1 0 0 0 1 0 0 0 1 78.519241920224616 53.128869545148348 24.420763443931314 1 rotate no_reflect no_shear #
lump $-1 $-1 $33 $3 #
transform $-1 1 0 0 0 1 0 0 0 1 78.519241920224616 53.128869545148348 24.420763443931314 1 rotate no_reflect no_shear #
lump $-1 $-1 $34 $4 #
transform $-1 1 0 0 0 1 0 0 0 1 78.519241920224616 53.128869545148348 24.420763443931314 1 rotate no_reflect no_shear #
lump $-1 $-1 $35 $5 #
transform $-1 1 0 0 0 1 0 0 0 1 78.519241920224616 53.128869545148348 24.420763443931314 1 rotate no_reflect no_shear #
lump $-1 $-1 $36 $6 #
transform $-1 1 0 0 0 1 0 0 0 1 78.519241920224616 53.128869545148348 24.420763443931314 1 rotate no_reflect no_shear #
lump $-1 $-1 $37 $7 #
transform $-1 1 0 0 0 1 0 0 0 1 78.519241920224616 53.128869545148348 24.420763443931314 1 rotate no_reflect no_shear #
lump $-1 $-1 $38 $8 #
transform $-1 1 0 0 0 1 0 0 0 1 78.519241920224616 53.128869545148348 24.420763443931314 1 rotate no_reflect no_shear #
lump $-1 $-1 $39 $9 #
transform $-1 1 0 0 0 1 0 0 0 1 78.519241920224616 53.128869545148348 24.420763443931314 1 rotate no_reflect no_shear #
shell $-1 $-1 $-1 $40 $-1 $10 #
shell $-1 $-1 $-1 $41 $-1 $12 #
shell $-1 $-1 $-1 $42 $-1 $14 #
shell $-1 $-1 $-1 $43 $-1 $16 #
shell $-1 $-1 $-1 $44 $-1 $18 #
shell $-1 $-1 $-1 $45 $-1 $20 #
shell $-1 $-1 $-1 $46 $-1 $22 #
shell $-1 $-1 $-1 $47 $-1 $24 #
shell $-1 $-1 $-1 $48 $-1 $26 #
shell $-1 $-1 $-1 $49 $-1 $28 #
face $-1 $50 $51 $30 $-1 $52 forward single #
face $-1 $53 $54 $31 $-1 $55 forward single #
face $-1 $56 $57 $32 $-1 $58 reversed single #
face $-1 $59 $60 $33 $-1 $61 forward single #
face $-1 $62 $63 $34 $-1 $64 forward single #
face $-1 $65 $66 $35 $-1 $67 forward single #
face $-1 $68 $69 $36 $-1 $70 reversed single #
face $-1 $71 $72 $37 $-1 $73 forward single #
face $-1 $74 $75 $38 $-1 $76 forward single #
face $-1 $77 $78 $39 $-1 $79 forward single #
face $-1 $80 $81 $30 $-1 $82 reversed single #
loop $-1 $-1 $83 $40 #
plane-surface $-1 0 0 24.420763443931314 0 0 1 1 0 0 forward_v I I I I #
face $-1 $84 $85 $31 $-1 $86 forward single #
loop $-1 $-1 $87 $41 #
plane-surface $-1 0 -53.128869545148348 0 0 1 0 0 0 1 forward_v I I I I #
face $-1 $88 $89 $32 $-1 $90 reversed single #
loop $-1 $-1 $91 $42 #
plane-surface $-1 -213.12749645047239 -8.2249451028121712 95.838133543003067 0 1 0 -0.85716730853699208 0 0.51503806187062418 forward_v I I I I #
face $-1 $92 $93 $33 $-1 $94 forward single #
loop $-1 $95 $96 $43 #
cone-surface $-1 -72.523795171646583 -3.88825036255448 17.794929350764598 0.85716730853699208 0 -0.51503806187062418 1.0300761237412484 0 1.7143346170739842 1 I I 0 1 2 forward I I I I #
face $-1 $97 $98 $34 $-1 $99 forward single #
loop $-1 $100 $101 $44 #
cone-surface $-1 -72.523795171646583 2.6167917478320604 17.794929350764598 0.85716730853699208 0 -0.51503806187062418 1.0300761237412484 0 1.7143346170739842 1 I I 0 1 2 forward I I I I #
face $-1 $102 $103 $35 $-1 $104 forward single #
loop $-1 $105 $106 $45 #
cone-surface $-1 -72.523795171646583 9.1218338582186007 17.794929350764598 0.85716730853699208 0 -0.51503806187062418 1.0300761237412484 0 1.7143346170739842 1 I I 0 1 2 forward I I I I #
face $-1 $107 $108 $36 $-1 $109 reversed single #
loop $-1 $-1 $110 $46 #
plane-surface $-1 63.027311266684407 10.517501859460111 231.00770205614478 0 -1 0 -0.6560590369687036 0 -0.75470957328743171 forward_v I I I I #
face $-1 $111 $112 $37 $-1 $113 forward single #
loop $-1 $114 $115 $47 #
cone-surface $-1 69.535250525821752 -4.8856604112590887 16.504183157236863 -0.6560590369687036 0 -0.75470957328743171 0.37735478664371586 0 -0.3280295184843518 1 I I 0 1 0.5 forward I I I I #
face $-1 $116 $117 $38 $-1 $118 forward single #
loop $-1 $119 $120 $48 #
cone-surface $-1 69.535250525821752 0.89052544026061042 16.504183157236863 -0.6560590369687036 0 -0.75470957328743171 0.37735478664371586 0 -0.3280295184843518 1 I I 0 1 0.5 forward I I I I #
face $-1 $121 $122 $39 $-1 $123 forward single #
loop $-1 $124 $125 $49 #
cone-surface $-1 69.535250525821752 6.6667112917803095 16.504183157236863 -0.6560590369687036 0 -0.75470957328743171 0.37735478664371586 0 -0.3280295184843518 1 I I 0 1 0.5 forward I I I I #
face $-1 $126 $127 $30 $-1 $128 reversed single #
loop $-1 $-1 $129 $50 #
plane-surface $-1 0 0 -24.420763443931314 0 0 1 1 0 0 forward_v I I I I #
coedge $-1 $130 $131 $132 $133 forward $51 $-1 #
face $-1 $134 $135 $31 $-1 $136 reversed single #
loop $-1 $-1 $137 $53 #
plane-surface $-1 0 0 24.420763443931314 0 0 1 1 0 0 forward_v I I I I #
coedge $-1 $138 $139 $140 $141 forward $54 $-1 #
face $-1 $142 $143 $32 $-1 $144 reversed single #
loop $-1 $-1 $145 $56 #
plane-surface $-1 -78.519241920224601 2.6167917478320604 14.957337186716757 -0.85716730853699208 0 0.51503806187062418 0.51503806187062418 0 0.85716730853699208 forward_v I I I I #
coedge $-1 $146 $147 $148 $149 reversed $57 $-1 #
face $-1 $-1 $150 $33 $-1 $151 forward single #
loop $-1 $152 $153 $59 #
cone-surface $-1 -68.514281096080254 -3.88825036255448 15.385770324334523 0.85716730853699208 0 -0.51503806187062418 0.51503806187062418 0 0.85716730853699208 1 I I -0.70710678118654691 0.70710678118654813 1 forward I I I I #
loop $-1 $-1 $154 $43 #
coedge $-1 $96 $96 $155 $156 reversed $60 $-1 #
face $-1 $-1 $157 $34 $-1 $158 forward single #
loop $-1 $159 $160 $62 #
cone-surface $-1 -68.514281096080254 2.6167917478320604 15.385770324334523 0.85716730853699208 0 -0.51503806187062418 0.51503806187062418 0 0.85716730853699208 1 I I -0.70710678118654691 0.70710678118654813 1 forward I I I I #
loop $-1 $-1 $161 $44 #
coedge $-1 $101 $101 $162 $163 reversed $63 $-1 #
face $-1 $-1 $164 $35 $-1 $165 forward single #
loop $-1 $166 $167 $65 #
cone-surface $-1 -68.514281096080254 9.1218338582186007 15.385770324334523 0.85716730853699208 0 -0.51503806187062418 0.51503806187062418 0 0.85716730853699208 1 I I -0.70710678118654691 0.70710678118654813 1 forward I I I I #
loop $-1 $-1 $168 $45 #
coedge $-1 $106 $106 $169 $170 reversed $66 $-1 #
face $-1 $171 $172 $36 $-1 $173 reversed single #
loop $-1 $-1 $174 $68 #
plane-surface $-1 -39.999205208706044 0.89052544026061042 112.48925492721411 0.6560590369687036 0 0.75470957328743171 0.75470957328743171 0 -0.6560590369687036 forward_v I I I I #
coedge $-1 $175 $176 $177 $178 reversed $69 $-1 #
face $-1 $-1 $179 $37 $-1 $180 forward single #
loop $-1 $181 $182 $71 #
cone-surface $-1 68.990863881159115 -4.8856604112590887 15.877937973274378 -0.6560590369687036 0 -0.75470957328743171 0.18867739332185793 0 -0.1640147592421759 1 I I -0.70710678118654746 0.70710678118654746 0.25 forward I I I I #
loop $-1 $-1 $183 $47 #
coedge $-1 $115 $115 $184 $185 reversed $72 $-1 #
face $-1 $-1 $186 $38 $-1 $187 forward single #
loop $-1 $188 $189 $74 #
cone-surface $-1 68.990863881159115 0.89052544026061042 15.877937973274378 -0.6560590369687036 0 -0.75470957328743171 0.18867739332185793 0 -0.1640147592421759 1 I I -0.70710678118654746 0.70710678118654746 0.25 forward I I I I #
loop $-1 $-1 $190 $48 #
coedge $-1 $120 $120 $191 $192 reversed $75 $-1 #
face $-1 $-1 $193 $39 $-1 $194 forward single #
loop $-1 $195 $196 $77 #
cone-surface $-1 68.990863881159115 6.6667112917803095 15.877937973274378 -0.6560590369687036 0 -0.75470957328743171 0.18867739332185793 0 -0.1640147592421759 1 I I -0.70710678118654746 0.70710678118654746 0.25 forward I I I I #
loop $-1 $-1 $197 $49 #
coedge $-1 $125 $125 $198 $199 reversed $78 $-1 #
face $-1 $200 $201 $30 $-1 $202 reversed single #
loop $-1 $-1 $203 $80 #
plane-surface $-1 0 -53.128869545148348 0 0 1 0 0 0 1 forward_v I I I I #
coedge $-1 $204 $205 $206 $207 forward $81 $-1 #
coedge $-1 $208 $83 $209 $210 forward $51 $-1 #
coedge $-1 $83 $208 $211 $212 forward $51 $-1 #
coedge $-1 $213 $214 $83 $133 reversed $215 $-1 #
edge $-1 $216 -53.128869545148348 $217 53.128869545148348 $132 $218 forward 7 unknown #
face $-1 $219 $220 $31 $-1 $221 reversed single #
loop $-1 $-1 $222 $84 #
plane-surface $-1 -78.519241920224616 0 0 1 0 0 0 0 -1 forward_v I I I I #
coedge $-1 $223 $224 $225 $226 forward $85 $-1 #
coedge $-1 $225 $87 $222 $227 reversed $54 $-1 #
coedge $-1 $87 $225 $228 $229 reversed $54 $-1 #
coedge $-1 $230 $231 $87 $141 reversed $220 $-1 #
edge $-1 $232 -78.519241920224616 $233 78.519241920224616 $140 $234 forward 7 unknown #
face $-1 $235 $236 $32 $-1 $237 forward single #
loop $-1 $-1 $238 $88 #
plane-surface $-1 -213.12749645047239 13.458528598476292 95.838133543003067 0 -1 0 0.85716730853699208 0 -0.51503806187062418 forward_v I I I I #
coedge $-1 $239 $240 $241 $242 reversed $89 $-1 #
coedge $-1 $147 $91 $243 $244 reversed $57 $-1 #
coedge $-1 $91 $146 $239 $245 reversed $57 $-1 #
coedge $-1 $241 $246 $91 $149 forward $236 $-1 #
edge $-1 $247 28.044506305011581 $248 33.730706268109017 $148 $249 forward 7 unknown #
loop $-1 $-1 $155 $92 #
plane-surface $-1 -78.519241920224601 2.6167917478320604 14.957337186716757 -0.85716730853699208 0 0.51503806187062418 0.51503806187062418 0 0.85716730853699208 forward_v I I I I #
loop $-1 $-1 $250 $59 #
coedge $-1 $153 $153 $154 $251 reversed $93 $-1 #
coedge $-1 $154 $154 $153 $251 forward $95 $-1 #
coedge $-1 $155 $155 $96 $156 forward $150 $-1 #
edge $-1 $252 0 $252 6.2831853071796004 $155 $253 forward 7 unknown #
loop $-1 $-1 $162 $97 #
plane-surface $-1 -78.519241920224601 2.6167917478320604 14.957337186716757 -0.85716730853699208 0 0.51503806187062418 0.51503806187062418 0 0.85716730853699208 forward_v I I I I #
loop $-1 $-1 $254 $62 #
coedge $-1 $160 $160 $161 $255 reversed $98 $-1 #
coedge $-1 $161 $161 $160 $255 forward $100 $-1 #
coedge $-1 $162 $162 $101 $163 forward $157 $-1 #
edge $-1 $256 0 $256 6.2831853071796004 $162 $257 forward 7 unknown #
loop $-1 $-1 $169 $102 #
plane-surface $-1 -78.519241920224601 2.6167917478320604 14.957337186716757 -0.85716730853699208 0 0.51503806187062418 0.51503806187062418 0 0.85716730853699208 forward_v I I I I #
loop $-1 $-1 $258 $65 #
coedge $-1 $167 $167 $168 $259 reversed $103 $-1 #
coedge $-1 $168 $168 $167 $259 forward $105 $-1 #
coedge $-1 $169 $169 $106 $170 forward $164 $-1 #
edge $-1 $260 0 $260 6.2831853071796004 $169 $261 forward 7 unknown #
face $-1 $262 $263 $36 $-1 $264 reversed single #
loop $-1 $-1 $265 $107 #
plane-surface $-1 63.027311266684407 -8.7364509789388904 231.00770205614478 0 1 0 0.6560590369687036 0 0.75470957328743171 forward_v I I I I #
coedge $-1 $266 $267 $268 $269 reversed $108 $-1 #
coedge $-1 $176 $110 $270 $271 reversed $69 $-1 #
coedge $-1 $110 $175 $266 $272 reversed $69 $-1 #
coedge $-1 $268 $273 $110 $178 forward $274 $-1 #
edge $-1 $275 -47.005586286882412 $276 -29.798347268917617 $177 $277 forward 7 unknown #
loop $-1 $-1 $184 $111 #
plane-surface $-1 -39.999205208706044 0.89052544026061042 112.48925492721411 0.6560590369687036 0 0.75470957328743171 0.75470957328743171 0 -0.6560590369687036 forward_v I I I I #
loop $-1 $-1 $278 $71 #
coedge $-1 $182 $182 $183 $279 reversed $112 $-1 #
coedge $-1 $183 $183 $182 $279 forward $114 $-1 #
coedge $-1 $184 $184 $115 $185 forward $179 $-1 #
edge $-1 $280 0 $280 6.2831853071796004 $184 $281 forward 7 unknown #
loop $-1 $-1 $191 $116 #
plane-surface $-1 -39.999205208706044 0.89052544026061042 112.48925492721411 0.6560590369687036 0 0.75470957328743171 0.75470957328743171 0 -0.6560590369687036 forward_v I I I I #
loop $-1 $-1 $282 $74 #
coedge $-1 $189 $189 $190 $283 reversed $117 $-1 #
coedge $-1 $190 $190 $189 $283 forward $119 $-1 #
coedge $-1 $191 $191 $120 $192 forward $186 $-1 #
edge $-1 $284 0 $284 6.2831853071796004 $191 $285 forward 7 unknown #
loop $-1 $-1 $198 $121 #
plane-surface $-1 -39.999205208706044 0.89052544026061042 112.48925492721411 0.6560590369687036 0 0.75470957328743171 0.75470957328743171 0 -0.6560590369687036 forward_v I I I I #
loop $-1 $-1 $286 $77 #
coedge $-1 $196 $196 $197 $287 reversed $122 $-1 #
coedge $-1 $197 $197 $196 $287 forward $124 $-1 #
coedge $-1 $198 $198 $125 $199 forward $193 $-1 #
edge $-1 $288 0 $288 6.2831853071796004 $198 $289 forward 7 unknown #
face $-1 $290 $291 $30 $-1 $292 reversed single #
loop $-1 $-1 $293 $126 #
plane-surface $-1 -78.519241920224616 0 0 1 0 0 0 0 -1 forward_v I I I I #
coedge $-1 $294 $211 $295 $296 forward $127 $-1 #
coedge $-1 $297 $129 $294 $298 forward $81 $-1 #
coedge $-1 $129 $297 $299 $300 forward $81 $-1 #
coedge $-1 $214 $213 $129 $207 reversed $215 $-1 #
edge $-1 $301 -53.128869545148348 $302 53.128869545148348 $206 $303 forward 7 unknown #
coedge $-1 $131 $130 $304 $305 forward $51 $-1 #
coedge $-1 $306 $307 $130 $210 reversed $291 $-1 #
edge $-1 $217 -78.519241920224616 $308 78.519241920224616 $209 $309 forward 7 unknown #
coedge $-1 $203 $310 $131 $212 reversed $127 $-1 #
edge $-1 $311 -78.519241920224616 $216 78.519241920224616 $211 $312 forward 7 unknown #
coedge $-1 $206 $132 $310 $313 forward $215 $-1 #
coedge $-1 $132 $206 $306 $314 reversed $215 $-1 #
loop $-1 $-1 $213 $290 #
vertex $-1 $133 $315 #
vertex $-1 $133 $316 #
straight-curve $-1 78.519241920224616 0 24.420763443931314 0 1 0 I I #
face $-1 $317 $318 $31 $-1 $319 reversed single #
loop $-1 $-1 $230 $134 #
plane-surface $-1 0 -68.421184853462535 10.47006601659367 0 0 1 1 0 0 forward_v I I I I #
coedge $-1 $320 $321 $138 $227 forward $135 $-1 #
coedge $-1 $322 $137 $321 $323 forward $85 $-1 #
coedge $-1 $137 $322 $324 $325 forward $85 $-1 #
coedge $-1 $139 $138 $137 $226 reversed $54 $-1 #
edge $-1 $326 -78.519241920224616 $327 78.519241920224616 $137 $328 forward 7 unknown #
edge $-1 $327 -24.420763443931314 $233 -10.47006601659367 $222 $329 forward 7 unknown #
coedge $-1 $324 $330 $139 $229 forward $331 $-1 #
edge $-1 $232 10.47006601659367 $326 24.420763443931314 $228 $332 forward 7 unknown #
coedge $-1 $333 $140 $330 $334 forward $220 $-1 #
coedge $-1 $140 $333 $320 $335 forward $220 $-1 #
vertex $-1 $229 $336 #
vertex $-1 $227 $337 #
straight-curve $-1 0 -53.128869545148348 10.47006601659367 -1 0 0 I I #
face $-1 $-1 $338 $32 $-1 $339 reversed single #
loop $-1 $-1 $148 $142 #
plane-surface $-1 0 0 24.420763443931314 0 0 1 1 0 0 forward_v I I I I #
coedge $-1 $340 $341 $342 $343 reversed $143 $-1 #
coedge $-1 $344 $145 $147 $245 forward $89 $-1 #
coedge $-1 $145 $344 $340 $345 forward $89 $-1 #
coedge $-1 $342 $148 $145 $242 forward $236 $-1 #
edge $-1 $248 -9.5333409767282014 $346 12.150132724560262 $241 $347 forward 7 unknown #
coedge $-1 $348 $349 $146 $244 forward $338 $-1 #
edge $-1 $350 -32.961729584784798 $247 -23.49830332757022 $243 $351 forward 7 unknown #
edge $-1 $248 -11.040349022837416 $350 2.7113386213432547e-014 $147 $352 forward 7 unknown #
coedge $-1 $148 $342 $348 $353 forward $236 $-1 #
vertex $-1 $244 $354 #
vertex $-1 $149 $355 #
straight-curve $-1 -106.5637482252362 -8.2249451028121712 24.420763443931314 1 0 0 I I #
coedge $-1 $250 $250 $-1 $356 reversed $152 $-1 #
edge $-1 $357 0 $357 6.2831853071796004 $153 $358 forward 7 unknown #
vertex $-1 $156 $359 #
ellipse-curve $-1 -75.676141938675897 -3.88825036255448 19.689050315324032 -0.85716730853699208 0 0.51503806187062418 1.0300761237412484 0 1.7143346170739842 1 I I #
coedge $-1 $254 $254 $-1 $360 reversed $159 $-1 #
edge $-1 $361 0 $361 6.2831853071796004 $160 $362 forward 7 unknown #
vertex $-1 $163 $363 #
ellipse-curve $-1 -75.676141938675897 2.6167917478320604 19.689050315324032 -0.85716730853699208 0 0.51503806187062418 1.0300761237412484 0 1.7143346170739842 1 I I #
coedge $-1 $258 $258 $-1 $364 reversed $166 $-1 #
edge $-1 $365 0 $365 6.2831853071796004 $167 $366 forward 7 unknown #
vertex $-1 $170 $367 #
ellipse-curve $-1 -75.676141938675897 9.1218338582186007 19.689050315324032 -0.85716730853699208 0 0.51503806187062418 1.0300761237412484 0 1.7143346170739842 1 I I #
face $-1 $-1 $274 $36 $-1 $368 forward single #
loop $-1 $-1 $369 $171 #
plane-surface $-1 78.519241920224616 0 0 -1 0 0 0 0 1 forward_v I I I I #
coedge $-1 $370 $371 $372 $373 reversed $172 $-1 #
coedge $-1 $374 $174 $176 $272 forward $108 $-1 #
coedge $-1 $174 $374 $370 $375 forward $108 $-1 #
coedge $-1 $372 $177 $174 $269 forward $274 $-1 #
edge $-1 $276 -10.072239139329806 $376 9.1817136990691957 $268 $377 forward 7 unknown #
coedge $-1 $378 $379 $175 $271 forward $263 $-1 #
edge $-1 $380 -106.04111257624871 $275 -91.083087584141083 $270 $381 forward 7 unknown #
edge $-1 $276 134.23866835247023 $380 157.0384838404492 $176 $382 forward 7 unknown #
coedge $-1 $177 $372 $378 $383 forward $274 $-1 #
loop $-1 $-1 $372 $262 #
vertex $-1 $271 $384 #
vertex $-1 $178 $385 #
straight-curve $-1 31.513655633342204 10.517501859460111 24.420763443931307 -1 0 0 I I #
coedge $-1 $278 $278 $-1 $386 reversed $181 $-1 #
edge $-1 $387 0 $387 6.2831853071796004 $182 $388 forward 7 unknown #
vertex $-1 $185 $389 #
ellipse-curve $-1 69.915622411242211 -4.8856604112590887 16.941750947877491 0.6560590369687036 0 0.75470957328743171 0.37735478664371586 0 -0.3280295184843518 1 I I #
coedge $-1 $282 $282 $-1 $390 reversed $188 $-1 #
edge $-1 $391 0 $391 6.2831853071796004 $189 $392 forward 7 unknown #
vertex $-1 $192 $393 #
ellipse-curve $-1 69.915622411242211 0.89052544026061042 16.941750947877491 0.6560590369687036 0 0.75470957328743171 0.37735478664371586 0 -0.3280295184843518 1 I I #
coedge $-1 $286 $286 $-1 $394 reversed $195 $-1 #
edge $-1 $395 0 $395 6.2831853071796004 $196 $396 forward 7 unknown #
vertex $-1 $199 $397 #
ellipse-curve $-1 69.915622411242211 6.6667112917803095 16.941750947877491 0.6560590369687036 0 0.75470957328743171 0.37735478664371586 0 -0.3280295184843518 1 I I #
face $-1 $-1 $215 $30 $-1 $398 reversed single #
loop $-1 $-1 $306 $200 #
plane-surface $-1 0 53.128869545148348 0 0 -1 0 0 0 -1 forward_v I I I I #
coedge $-1 $399 $304 $307 $400 forward $201 $-1 #
coedge $-1 $310 $203 $204 $298 reversed $127 $-1 #
coedge $-1 $304 $399 $203 $296 reversed $201 $-1 #
edge $-1 $311 -24.420763443931314 $401 24.420763443931314 $295 $402 forward 7 unknown #
coedge $-1 $205 $204 $399 $403 forward $81 $-1 #
edge $-1 $302 -78.519241920224616 $401 78.519241920224616 $294 $404 forward 7 unknown #
coedge $-1 $307 $306 $205 $300 reversed $291 $-1 #
edge $-1 $405 -78.519241920224616 $301 78.519241920224616 $299 $406 forward 7 unknown #
vertex $-1 $207 $407 #
vertex $-1 $313 $408 #
straight-curve $-1 78.519241920224616 0 -24.420763443931314 0 -1 0 I I #
coedge $-1 $293 $295 $208 $305 reversed $201 $-1 #
edge $-1 $308 -53.128869545148348 $311 53.128869545148348 $304 $409 forward 7 unknown #
coedge $-1 $299 $209 $214 $314 forward $291 $-1 #
coedge $-1 $209 $299 $293 $400 reversed $291 $-1 #
vertex $-1 $210 $410 #
straight-curve $-1 0 53.128869545148348 24.420763443931314 -1 0 0 I I #
coedge $-1 $211 $294 $213 $313 reversed $127 $-1 #
vertex $-1 $305 $411 #
straight-curve $-1 0 -53.128869545148348 24.420763443931314 1 0 0 I I #
edge $-1 $216 -24.420763443931314 $302 24.420763443931314 $213 $412 forward 7 unknown #
edge $-1 $217 -24.420763443931314 $301 24.420763443931314 $214 $413 forward 7 unknown #
point $-1 78.519241920224616 -53.128869545148348 24.420763443931314 #
point $-1 78.519241920224616 53.128869545148348 24.420763443931314 #
face $-1 $-1 $331 $31 $-1 $414 reversed single #
loop $-1 $-1 $415 $219 #
plane-surface $-1 0 -83.713500161776722 17.445414730262492 0 1 0 0 0 1 forward_v I I I I #
coedge $-1 $416 $222 $231 $335 reversed $135 $-1 #
coedge $-1 $222 $416 $223 $323 reversed $135 $-1 #
coedge $-1 $224 $223 $417 $418 forward $85 $-1 #
edge $-1 $327 53.128869545148348 $419 83.713500161776722 $321 $420 forward 7 unknown #
coedge $-1 $421 $228 $224 $325 reversed $331 $-1 #
edge $-1 $422 -83.713500161776722 $326 -53.128869545148348 $324 $423 forward 7 unknown #
vertex $-1 $229 $424 #
vertex $-1 $323 $425 #
straight-curve $-1 0 -53.128869545148348 24.420763443931314 -1 0 0 I I #
straight-curve $-1 -78.519241920224616 -53.128869545148348 0 0 0 -1 I I #
coedge $-1 $228 $421 $230 $334 reversed $331 $-1 #
loop $-1 $-1 $228 $317 #
straight-curve $-1 78.519241920224616 -53.128869545148348 0 0 0 1 I I #
coedge $-1 $231 $230 $426 $427 forward $220 $-1 #
edge $-1 $232 -15.292315308314194 $428 15.292315308314187 $330 $429 forward 7 unknown #
edge $-1 $430 -15.292315308314187 $233 15.292315308314194 $320 $431 forward 7 unknown #
point $-1 78.519241920224616 -53.128869545148341 10.47006601659367 #
point $-1 -78.519241920224616 -53.128869545148341 10.47006601659367 #
loop $-1 $-1 $243 $235 #
plane-surface $-1 -78.519241920224616 0 0 1 0 0 0 0 -1 forward_v I I I I #
coedge $-1 $341 $238 $240 $345 reversed $143 $-1 #
coedge $-1 $238 $340 $432 $433 reversed $143 $-1 #
coedge $-1 $246 $241 $238 $343 forward $236 $-1 #
edge $-1 $346 -33.730706268109017 $434 -28.044506305011581 $342 $435 forward 7 unknown #
coedge $-1 $240 $239 $349 $436 reversed $89 $-1 #
edge $-1 $437 -2.7113386213432547e-014 $346 11.040349022837416 $340 $438 forward 7 unknown #
vertex $-1 $242 $439 #
straight-curve $-1 -72.833041957127165 1.3083958739160302 24.420763443931314 0 1 0 I I #
coedge $-1 $432 $243 $246 $353 reversed $338 $-1 #
coedge $-1 $243 $432 $344 $436 forward $338 $-1 #
vertex $-1 $244 $440 #
straight-curve $-1 -78.519241920224616 -8.2249451028121712 47.919066771501534 0 0 1 I I #
straight-curve $-1 -78.519241920224601 -8.2249451028121712 14.957337186716757 -0.51503806187062418 0 -0.85716730853699208 I I #
edge $-1 $434 -13.458528598476292 $247 8.2249451028121712 $348 $441 forward 7 unknown #
point $-1 -78.519241920224616 -8.2249451028121712 24.420763443931314 #
point $-1 -72.833041957127179 -8.2249451028121712 24.420763443931314 #
edge $-1 $442 1 $442 0 $250 $-1 forward 7 unknown #
vertex $-1 $251 $443 #
ellipse-curve $-1 -69.37144840461724 -3.88825036255448 15.900808386205147 -0.85716730853699208 0 0.51503806187062418 1.0300761237412484 0 1.7143346170739842 1 I I #
point $-1 -74.646065814934659 -3.88825036255448 21.403384932398033 #
edge $-1 $444 1 $444 0 $254 $-1 forward 7 unknown #
vertex $-1 $255 $445 #
ellipse-curve $-1 -69.37144840461724 2.6167917478320604 15.900808386205147 -0.85716730853699208 0 0.51503806187062418 1.0300761237412484 0 1.7143346170739842 1 I I #
point $-1 -74.646065814934659 2.6167917478320604 21.403384932398033 #
edge $-1 $446 1 $446 0 $258 $-1 forward 7 unknown #
vertex $-1 $259 $447 #
ellipse-curve $-1 -69.37144840461724 9.1218338582186007 15.900808386205147 -0.85716730853699208 0 0.51503806187062418 1.0300761237412484 0 1.7143346170739842 1 I I #
point $-1 -74.646065814934659 9.1218338582186007 21.403384932398033 #
plane-surface $-1 0 0 24.420763443931314 0 0 1 1 0 0 forward_v I I I I #
coedge $-1 $379 $378 $371 $448 forward $263 $-1 #
coedge $-1 $371 $265 $267 $375 reversed $172 $-1 #
coedge $-1 $265 $370 $369 $448 reversed $172 $-1 #
coedge $-1 $273 $268 $265 $373 forward $274 $-1 #
edge $-1 $376 29.798347268917617 $449 47.005586286882412 $372 $450 forward 7 unknown #
coedge $-1 $267 $266 $379 $451 reversed $108 $-1 #
edge $-1 $452 -157.0384838404492 $376 -134.23866835247023 $370 $453 forward 7 unknown #
vertex $-1 $269 $454 #
straight-curve $-1 61.312002902259778 0.44526272013030521 24.420763443931328 0 -1 0 I I #
coedge $-1 $369 $270 $273 $383 reversed $263 $-1 #
coedge $-1 $270 $369 $374 $451 forward $263 $-1 #
vertex $-1 $271 $455 #
straight-curve $-1 78.519241920224616 10.517501859460111 115.50385102807239 0 0 1 I I #
straight-curve $-1 -39.999205208706044 10.517501859460111 112.48925492721411 0.75470957328743171 0 -0.6560590369687036 I I #
edge $-1 $449 -8.7364509789388904 $275 10.517501859460111 $378 $456 forward 7 unknown #
point $-1 78.519241920224616 10.517501859460111 24.420763443931314 #
point $-1 61.31200290225982 10.517501859460111 24.420763443931293 #
edge $-1 $457 1 $457 0 $278 $-1 forward 7 unknown #
vertex $-1 $279 $458 #
ellipse-curve $-1 69.154878640401293 -4.8856604112590887 16.066615366596235 0.6560590369687036 0 0.75470957328743171 0.37735478664371586 0 -0.3280295184843518 1 I I #
point $-1 70.292977197885932 -4.8856604112590887 16.613721429393134 #
edge $-1 $459 1 $459 0 $282 $-1 forward 7 unknown #
vertex $-1 $283 $460 #
ellipse-curve $-1 69.154878640401293 0.89052544026061042 16.066615366596235 0.6560590369687036 0 0.75470957328743171 0.37735478664371586 0 -0.3280295184843518 1 I I #
point $-1 70.292977197885932 0.89052544026061042 16.613721429393134 #
edge $-1 $461 1 $461 0 $286 $-1 forward 7 unknown #
vertex $-1 $287 $462 #
ellipse-curve $-1 69.154878640401293 6.6667112917803095 16.066615366596235 0.6560590369687036 0 0.75470957328743171 0.37735478664371586 0 -0.3280295184843518 1 I I #
point $-1 70.292977197885932 6.6667112917803095 16.613721429393134 #
plane-surface $-1 78.519241920224616 0 0 -1 0 0 0 0 1 forward_v I I I I #
coedge $-1 $295 $293 $297 $403 reversed $201 $-1 #
edge $-1 $308 -24.420763443931314 $405 24.420763443931314 $307 $463 forward 7 unknown #
vertex $-1 $403 $464 #
straight-curve $-1 -78.519241920224616 -53.128869545148348 0 0 0 -1 I I #
edge $-1 $401 -53.128869545148348 $405 53.128869545148348 $399 $465 forward 7 unknown #
straight-curve $-1 0 -53.128869545148348 -24.420763443931314 -1 0 0 I I #
vertex $-1 $300 $466 #
straight-curve $-1 0 53.128869545148348 -24.420763443931314 1 0 0 I I #
point $-1 78.519241920224616 53.128869545148348 -24.420763443931314 #
point $-1 78.519241920224616 -53.128869545148348 -24.420763443931314 #
straight-curve $-1 -78.519241920224616 0 24.420763443931314 0 -1 0 I I #
point $-1 -78.519241920224616 53.128869545148348 24.420763443931314 #
point $-1 -78.519241920224616 -53.128869545148348 24.420763443931314 #
straight-curve $-1 78.519241920224616 -53.128869545148348 0 0 0 -1 I I #
straight-curve $-1 78.519241920224616 53.128869545148348 0 0 0 -1 I I #
plane-surface $-1 78.519241920224616 0 0 -1 0 0 0 0 1 forward_v I I I I #
coedge $-1 $426 $417 $416 $467 forward $318 $-1 #
coedge $-1 $321 $320 $415 $467 reversed $135 $-1 #
coedge $-1 $415 $468 $322 $418 reversed $318 $-1 #
edge $-1 $419 -78.519241920224616 $422 78.519241920224616 $417 $469 forward 7 unknown #
vertex $-1 $323 $470 #
straight-curve $-1 -78.519241920224616 0 24.420763443931314 0 -1 0 I I #
coedge $-1 $330 $324 $468 $471 forward $331 $-1 #
vertex $-1 $325 $472 #
straight-curve $-1 78.519241920224616 0 24.420763443931314 0 1 0 I I #
point $-1 78.519241920224616 -53.128869545148348 24.420763443931314 #
point $-1 -78.519241920224616 -53.128869545148348 24.420763443931314 #
coedge $-1 $468 $415 $333 $427 reversed $318 $-1 #
edge $-1 $428 -78.519241920224616 $430 78.519241920224616 $426 $473 forward 7 unknown #
vertex $-1 $471 $474 #
straight-curve $-1 78.519241920224616 -68.421184853462535 10.47006601659367 0 -1 0 I I #
vertex $-1 $335 $475 #
straight-curve $-1 -78.519241920224616 -68.421184853462535 10.47006601659367 0 1 0 I I #
coedge $-1 $349 $348 $341 $433 forward $338 $-1 #
edge $-1 $434 23.49830332757022 $437 32.961729584784798 $432 $476 forward 7 unknown #
vertex $-1 $353 $477 #
straight-curve $-1 -106.5637482252362 13.458528598476292 24.420763443931314 -1 0 0 I I #
edge $-1 $437 -12.150132724560262 $350 9.5333409767282014 $349 $478 forward 7 unknown #
vertex $-1 $436 $479 #
straight-curve $-1 -78.519241920224601 13.458528598476292 14.957337186716757 0.51503806187062418 0 0.85716730853699208 I I #
point $-1 -72.833041957127179 13.458528598476292 24.420763443931314 #
point $-1 -78.519241920224616 -8.2249451028121712 14.957337186716734 #
straight-curve $-1 -78.519241920224616 0 24.420763443931314 0 -1 0 I I #
vertex $-1 $356 $480 #
point $-1 -68.341372280876001 -3.88825036255448 17.615143003279133 #
vertex $-1 $360 $481 #
point $-1 -68.341372280876001 2.6167917478320604 17.615143003279133 #
vertex $-1 $364 $482 #
point $-1 -68.341372280876001 9.1218338582186007 17.615143003279133 #
edge $-1 $449 91.083087584141083 $452 106.04111257624871 $369 $483 forward 7 unknown #
vertex $-1 $383 $484 #
straight-curve $-1 31.513655633342204 -8.7364509789388904 24.420763443931307 1 0 0 I I #
edge $-1 $452 -9.1817136990691957 $380 10.072239139329806 $379 $485 forward 7 unknown #
vertex $-1 $451 $486 #
straight-curve $-1 -39.999205208706044 -8.7364509789388904 112.48925492721411 -0.75470957328743171 0 0.6560590369687036 I I #
point $-1 61.31200290225982 -8.7364509789388904 24.420763443931293 #
point $-1 78.519241920224616 10.517501859460111 9.4627384518236823 #
straight-curve $-1 78.519241920224616 0 24.420763443931314 0 1 0 I I #
vertex $-1 $386 $487 #
point $-1 69.532233427045 -4.8856604112590887 15.738585848111883 #
vertex $-1 $390 $488 #
point $-1 69.532233427045 0.89052544026061042 15.738585848111883 #
vertex $-1 $394 $489 #
point $-1 69.532233427045 6.6667112917803095 15.738585848111883 #
straight-curve $-1 -78.519241920224616 53.128869545148348 0 0 0 -1 I I #
point $-1 -78.519241920224616 -53.128869545148348 -24.420763443931314 #
straight-curve $-1 -78.519241920224616 0 -24.420763443931314 0 1 0 I I #
point $-1 -78.519241920224616 53.128869545148348 -24.420763443931314 #
edge $-1 $419 -6.9753487136688221 $430 6.9753487136688221 $416 $490 forward 7 unknown #
coedge $-1 $417 $426 $421 $471 reversed $318 $-1 #
straight-curve $-1 0 -83.713500161776722 24.420763443931314 1 0 0 I I #
point $-1 -78.519241920224616 -83.713500161776722 24.420763443931314 #
edge $-1 $422 -6.9753487136688221 $428 6.9753487136688221 $421 $491 forward 7 unknown #
point $-1 78.519241920224616 -83.713500161776722 24.420763443931314 #
straight-curve $-1 0 -83.713500161776722 10.47006601659367 -1 0 0 I I #
point $-1 78.519241920224616 -83.713500161776722 10.47006601659367 #
point $-1 -78.519241920224616 -83.713500161776722 10.47006601659367 #
straight-curve $-1 -78.519241920224616 13.458528598476292 47.919066771501534 0 0 -1 I I #
point $-1 -78.519241920224616 13.458528598476292 24.420763443931314 #
straight-curve $-1 -78.519241920224616 1.3083958739160302 14.95733718671673 0 -1 0 I I #
point $-1 -78.519241920224616 13.458528598476292 14.957337186716734 #
point $-1 -67.657113787543267 -3.88825036255448 14.870732262463898 #
point $-1 -67.657113787543267 2.6167917478320604 14.870732262463898 #
point $-1 -67.657113787543267 9.1218338582186007 14.870732262463898 #
straight-curve $-1 78.519241920224616 -8.7364509789388904 115.50385102807239 0 0 -1 I I #
point $-1 78.519241920224616 -8.7364509789388904 24.420763443931314 #
straight-curve $-1 78.519241920224601 0.44526272013030521 9.4627384518236823 0 1 0 I I #
point $-1 78.519241920224616 -8.7364509789388904 9.4627384518236823 #
point $-1 68.826849121916936 -4.8856604112590887 15.689260579952521 #
point $-1 68.826849121916936 0.89052544026061042 15.689260579952521 #
point $-1 68.826849121916936 6.6667112917803095 15.689260579952521 #
straight-curve $-1 -78.519241920224616 -83.713500161776722 17.445414730262492 0 0 -1 I I #
straight-curve $-1 78.519241920224616 -83.713500161776722 17.445414730262492 0 0 -1 I I #
End-of-ACIS-data 