500 0 5 0           
7 Unknown 11 ACIS 5.0 NT 24 Thu Mar 25 15:51:58 1999 
-1 9.9999999999999995e-007 1e-010 
body $-1 $5 $-1 $6 #
body $-1 $7 $-1 $8 #
body $-1 $9 $-1 $10 #
body $-1 $11 $-1 $12 #
body $-1 $13 $-1 $14 #
lump $-1 $-1 $15 $0 #
transform $-1 1 0 0 0 1 0 0 0 1 60.349742118594925 33.446248113988112 15.998916377411716 1 rotate no_reflect no_shear #
lump $-1 $-1 $16 $1 #
transform $-1 1 0 0 0 1 0 0 0 1 60.349742118594925 33.446248113988112 15.998916377411716 1 rotate no_reflect no_shear #
lump $-1 $-1 $17 $2 #
transform $-1 1 0 0 0 1 0 0 0 1 60.349742118594925 33.446248113988112 15.998916377411716 1 rotate no_reflect no_shear #
lump $-1 $-1 $18 $3 #
transform $-1 1 0 0 0 1 0 0 0 1 60.349742118594925 33.446248113988112 15.998916377411716 1 rotate no_reflect no_shear #
lump $-1 $-1 $19 $4 #
transform $-1 1 0 0 0 1 0 0 0 1 60.349742118594925 33.446248113988112 15.998916377411716 1 rotate no_reflect no_shear #
shell $-1 $-1 $-1 $20 $-1 $5 #
shell $-1 $-1 $-1 $21 $-1 $7 #
shell $-1 $-1 $-1 $22 $-1 $9 #
shell $-1 $-1 $-1 $23 $-1 $11 #
shell $-1 $-1 $-1 $24 $-1 $13 #
face $-1 $25 $26 $15 $-1 $27 forward single #
face $-1 $28 $29 $16 $-1 $30 reversed single #
face $-1 $31 $32 $17 $-1 $33 reversed single #
face $-1 $34 $35 $18 $-1 $36 forward single #
face $-1 $37 $38 $19 $-1 $39 forward single #
face $-1 $40 $41 $15 $-1 $42 reversed single #
loop $-1 $-1 $43 $20 #
plane-surface $-1 0 0 15.998916377411716 0 0 1 1 0 0 forward_v I I I I #
face $-1 $44 $45 $16 $-1 $46 reversed single #
loop $-1 $-1 $47 $21 #
plane-surface $-1 -54.259309572147913 0 7.5762805763427288 0 0 1 1 0 0 forward_v I I I I #
face $-1 $48 $49 $17 $-1 $50 reversed single #
loop $-1 $-1 $51 $22 #
plane-surface $-1 36.185000012623831 93.949519525233569 127.50661298735761 1 0 0 0 -0.81915205242281985 -0.57357642473473569 forward_v I I I I #
face $-1 $52 $53 $18 $-1 $54 forward single #
loop $-1 $55 $56 $23 #
cone-surface $-1 43.089212042901288 25.900648983132541 7.5252088370960291 0 -0.81915205242281985 -0.57357642473473569 2.5 0 0 1 I I 0 1 2.5 forward I I I I #
face $-1 $57 $58 $19 $-1 $59 forward single #
loop $-1 $60 $61 $24 #
cone-surface $-1 53.445530088317462 25.900648983132541 7.5252088370960291 0 -0.81915205242281985 -0.57357642473473569 2.5 0 0 1 I I 0 1 2.5 forward I I I I #
face $-1 $62 $63 $15 $-1 $64 reversed single #
loop $-1 $-1 $65 $25 #
plane-surface $-1 0 0 -15.998916377411716 0 0 1 1 0 0 forward_v I I I I #
coedge $-1 $66 $67 $68 $69 forward $26 $-1 #
face $-1 $70 $71 $16 $-1 $72 reversed single #
loop $-1 $-1 $73 $28 #
plane-surface $-1 -48.168877025700901 0 11.787598476877223 -1 0 0 0 0 1 forward_v I I I I #
coedge $-1 $74 $75 $76 $77 forward $29 $-1 #
face $-1 $78 $79 $17 $-1 $80 forward single #
loop $-1 $-1 $81 $31 #
plane-surface $-1 48.267371065609375 -4.9217107140362799 58.276234351263682 0 0.81915205242281985 0.57357642473473569 1 0 0 forward_v I I I I #
coedge $-1 $82 $83 $84 $85 reversed $32 $-1 #
face $-1 $-1 $86 $18 $-1 $87 forward single #
loop $-1 $88 $89 $34 #
cone-surface $-1 43.089212042901288 21.713641277207799 4.5934345673521637 0 -0.81915205242281985 -0.57357642473473569 1.25 0 0 1 I I -0.70710678118654746 0.70710678118654746 1.25 forward I I I I #
loop $-1 $-1 $90 $23 #
coedge $-1 $56 $56 $91 $92 reversed $35 $-1 #
face $-1 $-1 $93 $19 $-1 $94 forward single #
loop $-1 $95 $96 $37 #
cone-surface $-1 53.445530088317462 21.713641277207799 4.5934345673521637 0 -0.81915205242281985 -0.57357642473473569 1.25 0 0 1 I I -0.70710678118654746 0.70710678118654746 1.25 forward I I I I #
loop $-1 $-1 $97 $24 #
coedge $-1 $61 $61 $98 $99 reversed $38 $-1 #
face $-1 $100 $101 $15 $-1 $102 reversed single #
loop $-1 $-1 $103 $40 #
plane-surface $-1 0 -33.446248113988112 0 0 1 0 0 0 1 forward_v I I I I #
coedge $-1 $104 $105 $106 $107 forward $41 $-1 #
coedge $-1 $108 $43 $109 $110 forward $26 $-1 #
coedge $-1 $43 $108 $111 $112 forward $26 $-1 #
coedge $-1 $113 $114 $43 $69 reversed $115 $-1 #
edge $-1 $116 -33.446248113988112 $117 33.446248113988112 $68 $118 forward 7 unknown #
face $-1 $119 $120 $16 $-1 $121 reversed single #
loop $-1 $-1 $122 $44 #
plane-surface $-1 0 33.446248113988112 0 0 -1 0 0 0 -1 forward_v I I I I #
coedge $-1 $76 $123 $124 $125 reversed $45 $-1 #
coedge $-1 $126 $47 $127 $128 reversed $29 $-1 #
coedge $-1 $47 $126 $129 $130 reversed $29 $-1 #
coedge $-1 $131 $73 $47 $77 reversed $45 $-1 #
edge $-1 $132 -33.446248113988112 $133 33.446248113988112 $76 $134 forward 7 unknown #
face $-1 $135 $136 $17 $-1 $137 reversed single #
loop $-1 $-1 $84 $48 #
plane-surface $-1 0 0 15.998916377411716 0 0 1 1 0 0 forward_v I I I I #
coedge $-1 $138 $139 $140 $141 reversed $49 $-1 #
coedge $-1 $83 $51 $142 $143 reversed $32 $-1 #
coedge $-1 $51 $82 $138 $144 reversed $32 $-1 #
coedge $-1 $140 $145 $51 $85 forward $79 $-1 #
edge $-1 $146 13.528511648628673 $147 22.293574629547383 $84 $148 forward 7 unknown #
loop $-1 $-1 $91 $52 #
plane-surface $-1 48.267371065609375 -4.9217107140362799 58.276234351263682 0 0.81915205242281985 0.57357642473473569 1 0 0 forward_v I I I I #
loop $-1 $-1 $149 $34 #
coedge $-1 $89 $89 $90 $150 reversed $53 $-1 #
coedge $-1 $90 $90 $89 $150 forward $55 $-1 #
coedge $-1 $91 $91 $56 $92 forward $86 $-1 #
edge $-1 $151 0 $151 6.2831853071796004 $91 $152 forward 7 unknown #
loop $-1 $-1 $98 $57 #
plane-surface $-1 48.267371065609375 -4.9217107140362799 58.276234351263682 0 0.81915205242281985 0.57357642473473569 1 0 0 forward_v I I I I #
loop $-1 $-1 $153 $37 #
coedge $-1 $96 $96 $97 $154 reversed $58 $-1 #
coedge $-1 $97 $97 $96 $154 forward $60 $-1 #
coedge $-1 $98 $98 $61 $99 forward $93 $-1 #
edge $-1 $155 0 $155 6.2831853071796004 $98 $156 forward 7 unknown #
face $-1 $157 $158 $15 $-1 $159 reversed single #
loop $-1 $-1 $160 $62 #
plane-surface $-1 -60.349742118594925 0 0 1 0 0 0 0 -1 forward_v I I I I #
coedge $-1 $161 $111 $162 $163 forward $63 $-1 #
coedge $-1 $164 $65 $161 $165 forward $41 $-1 #
coedge $-1 $65 $164 $166 $167 forward $41 $-1 #
coedge $-1 $114 $113 $65 $107 reversed $115 $-1 #
edge $-1 $168 -33.446248113988112 $169 33.446248113988112 $106 $170 forward 7 unknown #
coedge $-1 $67 $66 $171 $172 forward $26 $-1 #
coedge $-1 $173 $174 $66 $110 reversed $158 $-1 #
edge $-1 $117 -60.349742118594925 $175 60.349742118594925 $109 $176 forward 7 unknown #
coedge $-1 $103 $177 $67 $112 reversed $63 $-1 #
edge $-1 $178 -60.349742118594925 $116 60.349742118594925 $111 $179 forward 7 unknown #
coedge $-1 $106 $68 $177 $180 forward $115 $-1 #
coedge $-1 $68 $106 $173 $181 reversed $115 $-1 #
loop $-1 $-1 $113 $157 #
vertex $-1 $69 $182 #
vertex $-1 $69 $183 #
straight-curve $-1 60.349742118594925 0 15.998916377411716 0 1 0 I I #
face $-1 $184 $185 $16 $-1 $186 forward single #
loop $-1 $-1 $187 $70 #
plane-surface $-1 -60.349742118594925 0 0 1 0 0 0 0 -1 forward_v I I I I #
coedge $-1 $129 $188 $131 $189 forward $71 $-1 #
coedge $-1 $73 $131 $190 $191 reversed $45 $-1 #
coedge $-1 $192 $127 $73 $125 forward $193 $-1 #
edge $-1 $133 1.6824813379041172 $194 10.105117138973107 $124 $195 forward 7 unknown #
coedge $-1 $75 $74 $187 $196 reversed $29 $-1 #
coedge $-1 $124 $197 $74 $128 forward $193 $-1 #
edge $-1 $198 -33.220087332520968 $133 -21.039222239626945 $127 $199 forward 7 unknown #
coedge $-1 $200 $122 $75 $130 forward $71 $-1 #
edge $-1 $132 21.039222239626945 $201 33.220087332520968 $129 $202 forward 7 unknown #
coedge $-1 $123 $76 $122 $189 reversed $45 $-1 #
vertex $-1 $130 $203 #
vertex $-1 $128 $204 #
straight-curve $-1 -48.168877025700901 0 7.5762805763427288 0 -1 0 I I #
face $-1 $-1 $205 $17 $-1 $206 reversed single #
loop $-1 $-1 $207 $78 #
plane-surface $-1 60.349742118594925 0 0 -1 0 0 0 0 1 forward_v I I I I #
coedge $-1 $208 $81 $83 $144 forward $49 $-1 #
coedge $-1 $81 $208 $207 $209 reversed $49 $-1 #
coedge $-1 $210 $84 $81 $141 forward $79 $-1 #
edge $-1 $147 12.051314479819144 $211 36.216056585790227 $140 $212 forward 7 unknown #
coedge $-1 $213 $214 $82 $143 forward $205 $-1 #
edge $-1 $215 -60.272197719247586 $146 -47.754390116267089 $142 $216 forward 7 unknown #
edge $-1 $147 51.611074950990641 $215 66.892496227976238 $83 $217 forward 7 unknown #
coedge $-1 $84 $210 $213 $218 forward $79 $-1 #
vertex $-1 $143 $219 #
vertex $-1 $85 $220 #
straight-curve $-1 36.185000012623831 46.974759762616785 15.998916377411717 0 -1 0 I I #
coedge $-1 $149 $149 $-1 $221 reversed $88 $-1 #
edge $-1 $222 0 $222 6.2831853071796004 $89 $223 forward 7 unknown #
vertex $-1 $92 $224 #
ellipse-curve $-1 43.089212042901288 29.063716623528755 9.7400125759214724 0 0.81915205242281985 0.57357642473473569 2.5 0 0 1 I I #
coedge $-1 $153 $153 $-1 $225 reversed $95 $-1 #
edge $-1 $226 0 $226 6.2831853071796004 $96 $227 forward 7 unknown #
vertex $-1 $99 $228 #
ellipse-curve $-1 53.445530088317462 29.063716623528755 9.7400125759214724 0 0.81915205242281985 0.57357642473473569 2.5 0 0 1 I I #
face $-1 $-1 $115 $15 $-1 $229 reversed single #
loop $-1 $-1 $173 $100 #
plane-surface $-1 0 33.446248113988112 0 0 -1 0 0 0 -1 forward_v I I I I #
coedge $-1 $230 $171 $174 $231 forward $101 $-1 #
coedge $-1 $177 $103 $104 $165 reversed $63 $-1 #
coedge $-1 $171 $230 $103 $163 reversed $101 $-1 #
edge $-1 $178 -15.998916377411716 $232 15.998916377411716 $162 $233 forward 7 unknown #
coedge $-1 $105 $104 $230 $234 forward $41 $-1 #
edge $-1 $169 -60.349742118594925 $232 60.349742118594925 $161 $235 forward 7 unknown #
coedge $-1 $174 $173 $105 $167 reversed $158 $-1 #
edge $-1 $236 -60.349742118594925 $168 60.349742118594925 $166 $237 forward 7 unknown #
vertex $-1 $107 $238 #
vertex $-1 $180 $239 #
straight-curve $-1 60.349742118594925 0 -15.998916377411716 0 -1 0 I I #
coedge $-1 $160 $162 $108 $172 reversed $101 $-1 #
edge $-1 $175 -33.446248113988112 $178 33.446248113988112 $171 $240 forward 7 unknown #
coedge $-1 $166 $109 $114 $181 forward $158 $-1 #
coedge $-1 $109 $166 $160 $231 reversed $158 $-1 #
vertex $-1 $110 $241 #
straight-curve $-1 0 33.446248113988112 15.998916377411716 -1 0 0 I I #
coedge $-1 $111 $161 $113 $180 reversed $63 $-1 #
vertex $-1 $172 $242 #
straight-curve $-1 0 -33.446248113988112 15.998916377411716 1 0 0 I I #
edge $-1 $116 -15.998916377411716 $169 15.998916377411716 $113 $243 forward 7 unknown #
edge $-1 $117 -15.998916377411716 $168 15.998916377411716 $114 $244 forward 7 unknown #
point $-1 60.349742118594925 -33.446248113988112 15.998916377411716 #
point $-1 60.349742118594925 33.446248113988112 15.998916377411716 #
face $-1 $-1 $193 $16 $-1 $245 reversed single #
loop $-1 $-1 $190 $119 #
plane-surface $-1 0 0 15.998916377411716 0 0 1 1 0 0 forward_v I I I I #
coedge $-1 $246 $247 $126 $196 forward $120 $-1 #
coedge $-1 $122 $200 $248 $249 reversed $71 $-1 #
edge $-1 $250 -10.105117138973107 $132 -1.6824813379041172 $122 $251 forward 7 unknown #
coedge $-1 $248 $252 $123 $191 forward $185 $-1 #
edge $-1 $194 -33.446248113988112 $250 33.446248113988112 $190 $253 forward 7 unknown #
coedge $-1 $197 $124 $252 $254 reversed $193 $-1 #
loop $-1 $-1 $124 $184 #
vertex $-1 $125 $255 #
straight-curve $-1 -48.168877025700901 -33.446248113988112 5.8937992384386115 0 0 1 I I #
edge $-1 $201 -33.446248113988112 $198 33.446248113988112 $187 $256 forward 7 unknown #
coedge $-1 $127 $192 $246 $257 forward $193 $-1 #
vertex $-1 $196 $258 #
straight-curve $-1 -27.129654786073957 -33.446248113988112 7.5762805763427288 1 0 0 I I #
coedge $-1 $188 $129 $247 $259 reversed $71 $-1 #
vertex $-1 $196 $260 #
straight-curve $-1 -27.129654786073957 33.446248113988112 7.5762805763427288 -1 0 0 I I #
point $-1 -48.168877025700901 33.446248113988112 7.5762805763427288 #
point $-1 -48.168877025700901 -33.446248113988112 7.5762805763427288 #
loop $-1 $-1 $142 $135 #
plane-surface $-1 0 33.446248113988112 0 0 -1 0 0 0 -1 forward_v I I I I #
coedge $-1 $261 $262 $139 $209 forward $136 $-1 #
coedge $-1 $139 $138 $214 $263 reversed $49 $-1 #
edge $-1 $211 26.331037845367415 $264 41.612459122353009 $207 $265 forward 7 unknown #
coedge $-1 $145 $140 $262 $266 forward $79 $-1 #
vertex $-1 $266 $267 #
straight-curve $-1 24.133685532804687 24.681185133069405 15.998916377411717 1 0 0 I I #
coedge $-1 $268 $142 $145 $218 reversed $205 $-1 #
coedge $-1 $142 $268 $208 $263 forward $205 $-1 #
vertex $-1 $143 $269 #
straight-curve $-1 36.185000012623831 33.446248113988112 63.753306493678807 0 0 1 I I #
straight-curve $-1 36.185000012623831 -4.9217107140362799 58.276234351263682 0 0.57357642473473569 -0.81915205242281985 I I #
edge $-1 $270 -60.349742118594925 $146 -36.185000012623831 $213 $271 forward 7 unknown #
point $-1 36.185000012623831 33.446248113988112 15.998916377411716 #
point $-1 36.185000012623831 24.681185133069402 15.998916377411717 #
edge $-1 $272 1 $272 0 $149 $-1 forward 7 unknown #
vertex $-1 $150 $273 #
ellipse-curve $-1 43.089212042901288 22.737581342736323 5.310405098270583 0 0.81915205242281985 0.57357642473473569 2.5 0 0 1 I I #
point $-1 45.589212042901288 29.063716623528755 9.7400125759214724 #
edge $-1 $274 1 $274 0 $153 $-1 forward 7 unknown #
vertex $-1 $154 $275 #
ellipse-curve $-1 53.445530088317462 22.737581342736323 5.310405098270583 0 0.81915205242281985 0.57357642473473569 2.5 0 0 1 I I #
point $-1 55.945530088317462 29.063716623528755 9.7400125759214724 #
plane-surface $-1 60.349742118594925 0 0 -1 0 0 0 0 1 forward_v I I I I #
coedge $-1 $162 $160 $164 $234 reversed $101 $-1 #
edge $-1 $175 -15.998916377411716 $236 15.998916377411716 $174 $276 forward 7 unknown #
vertex $-1 $234 $277 #
straight-curve $-1 -60.349742118594925 -33.446248113988112 0 0 0 -1 I I #
edge $-1 $232 -33.446248113988112 $236 33.446248113988112 $230 $278 forward 7 unknown #
straight-curve $-1 0 -33.446248113988112 -15.998916377411716 -1 0 0 I I #
vertex $-1 $167 $279 #
straight-curve $-1 0 33.446248113988112 -15.998916377411716 1 0 0 I I #
point $-1 60.349742118594925 33.446248113988112 -15.998916377411716 #
point $-1 60.349742118594925 -33.446248113988112 -15.998916377411716 #
straight-curve $-1 -60.349742118594925 0 15.998916377411716 0 -1 0 I I #
point $-1 -60.349742118594925 33.446248113988112 15.998916377411716 #
point $-1 -60.349742118594925 -33.446248113988112 15.998916377411716 #
straight-curve $-1 60.349742118594925 -33.446248113988112 0 0 0 -1 I I #
straight-curve $-1 60.349742118594925 33.446248113988112 0 0 0 -1 I I #
plane-surface $-1 0 -33.446248113988112 0 0 1 0 0 0 1 forward_v I I I I #
coedge $-1 $280 $187 $197 $257 reversed $120 $-1 #
coedge $-1 $187 $280 $200 $259 forward $120 $-1 #
coedge $-1 $281 $190 $188 $249 forward $185 $-1 #
edge $-1 $250 48.168877025700901 $282 60.349742118594925 $188 $283 forward 7 unknown #
vertex $-1 $249 $284 #
straight-curve $-1 -48.168877025700901 33.446248113988112 5.8937992384386115 0 0 -1 I I #
coedge $-1 $190 $281 $192 $254 forward $185 $-1 #
straight-curve $-1 -48.168877025700901 0 15.998916377411716 0 1 0 I I #
edge $-1 $285 -60.349742118594925 $194 -48.168877025700901 $192 $286 forward 7 unknown #
point $-1 -48.168877025700901 -33.446248113988112 15.998916377411717 #
straight-curve $-1 -60.349742118594925 0 7.5762805763427288 0 -1 0 I I #
edge $-1 $285 -15.998916377411716 $198 -7.5762805763427288 $246 $287 forward 7 unknown #
point $-1 -60.349742118594925 -33.446248113988112 7.5762805763427288 #
edge $-1 $282 -15.998916377411716 $201 -7.5762805763427288 $200 $288 forward 7 unknown #
point $-1 -60.349742118594925 33.446248113988112 7.5762805763427288 #
coedge $-1 $262 $207 $268 $289 reversed $136 $-1 #
coedge $-1 $207 $261 $210 $266 reversed $136 $-1 #
edge $-1 $264 -36.216056585790227 $215 -12.051314479819144 $214 $290 forward 7 unknown #
vertex $-1 $209 $291 #
straight-curve $-1 60.349742118594925 9.5783225861685448 37.568040070867376 0 0.57357642473473569 -0.81915205242281985 I I #
edge $-1 $211 24.681185133069402 $270 33.446248113988112 $262 $292 forward 7 unknown #
point $-1 60.349742118594918 24.681185133069402 15.998916377411717 #
coedge $-1 $214 $213 $261 $289 forward $205 $-1 #
point $-1 36.185000012623831 33.446248113988119 3.4811087744312204 #
vertex $-1 $266 $293 #
straight-curve $-1 0 33.446248113988112 15.998916377411716 -1 0 0 I I #
vertex $-1 $221 $294 #
point $-1 45.589212042901288 22.737581342736323 5.310405098270583 #
vertex $-1 $225 $295 #
point $-1 55.945530088317462 22.737581342736323 5.310405098270583 #
straight-curve $-1 -60.349742118594925 33.446248113988112 0 0 0 -1 I I #
point $-1 -60.349742118594925 -33.446248113988112 -15.998916377411716 #
straight-curve $-1 -60.349742118594925 0 -15.998916377411716 0 1 0 I I #
point $-1 -60.349742118594925 33.446248113988112 -15.998916377411716 #
coedge $-1 $247 $246 $281 $296 reversed $120 $-1 #
coedge $-1 $252 $248 $280 $296 forward $185 $-1 #
vertex $-1 $249 $297 #
straight-curve $-1 0 33.446248113988112 15.998916377411716 -1 0 0 I I #
point $-1 -48.168877025700901 33.446248113988112 15.998916377411717 #
vertex $-1 $296 $298 #
straight-curve $-1 0 -33.446248113988112 15.998916377411716 1 0 0 I I #
straight-curve $-1 -60.349742118594925 -33.446248113988112 0 0 0 -1 I I #
straight-curve $-1 -60.349742118594925 33.446248113988112 0 0 0 -1 I I #
edge $-1 $270 -15.998916377411716 $264 -3.4811087744312204 $261 $299 forward 7 unknown #
straight-curve $-1 24.133685532804687 33.446248113988119 3.4811087744312168 -1 0 0 I I #
point $-1 60.349742118594918 33.446248113988119 3.4811087744312204 #
straight-curve $-1 60.349742118594925 0 15.998916377411716 0 1 0 I I #
point $-1 60.349742118594925 33.446248113988112 15.998916377411716 #
point $-1 43.089212042901288 20.689701211679274 3.8764640364337444 #
point $-1 53.445530088317462 20.689701211679274 3.8764640364337444 #
edge $-1 $282 -33.446248113988112 $285 33.446248113988112 $280 $300 forward 7 unknown #
point $-1 -60.349742118594925 33.446248113988112 15.998916377411716 #
point $-1 -60.349742118594925 -33.446248113988112 15.998916377411716 #
straight-curve $-1 60.349742118594925 33.446248113988112 0 0 0 -1 I I #
straight-curve $-1 -60.349742118594925 0 15.998916377411716 0 -1 0 I I #
End-of-ACIS-data 