500 0 18 0           
7 Unknown 11 ACIS 5.0 NT 24 Fri Mar 26 16:58:21 1999 
-1 9.9999999999999995e-007 1e-010 
body $-1 $18 $-1 $19 #
body $-1 $20 $-1 $21 #
body $-1 $22 $-1 $23 #
body $-1 $24 $-1 $25 #
body $-1 $26 $-1 $27 #
body $-1 $28 $-1 $29 #
body $-1 $30 $-1 $31 #
body $-1 $32 $-1 $33 #
body $-1 $34 $-1 $35 #
body $-1 $36 $-1 $37 #
body $-1 $38 $-1 $39 #
body $-1 $40 $-1 $41 #
body $-1 $42 $-1 $43 #
body $-1 $44 $-1 $45 #
body $-1 $46 $-1 $47 #
body $-1 $48 $-1 $49 #
body $-1 $50 $-1 $51 #
body $-1 $52 $-1 $53 #
lump $-1 $-1 $54 $0 #
transform $-1 1 0 0 0 1 0 0 0 1 74.858241523483997 41.749455871610486 14.798651237891608 1 rotate no_reflect no_shear #
lump $-1 $-1 $55 $1 #
transform $-1 1 0 0 0 1 0 0 0 1 74.858241523483997 41.749455871610486 14.798651237891608 1 rotate no_reflect no_shear #
lump $-1 $-1 $56 $2 #
transform $-1 1 0 0 0 1 0 0 0 1 74.858241523483997 41.749455871610486 14.798651237891608 1 rotate no_reflect no_shear #
lump $-1 $-1 $57 $3 #
transform $-1 1 0 0 0 1 0 0 0 1 74.858241523483997 41.749455871610486 14.798651237891608 1 rotate no_reflect no_shear #
lump $-1 $-1 $58 $4 #
transform $-1 1 0 0 0 1 0 0 0 1 74.858241523483997 41.749455871610486 14.798651237891608 1 rotate no_reflect no_shear #
lump $-1 $-1 $59 $5 #
transform $-1 1 0 0 0 1 0 0 0 1 74.858241523483997 41.749455871610486 14.798651237891608 1 rotate no_reflect no_shear #
lump $-1 $-1 $60 $6 #
transform $-1 1 0 0 0 1 0 0 0 1 74.858241523483997 41.749455871610486 14.798651237891608 1 rotate no_reflect no_shear #
lump $-1 $-1 $61 $7 #
transform $-1 1 0 0 0 1 0 0 0 1 74.858241523483997 41.749455871610486 14.798651237891608 1 rotate no_reflect no_shear #
lump $-1 $-1 $62 $8 #
transform $-1 1 0 0 0 1 0 0 0 1 74.858241523483997 41.749455871610486 14.798651237891608 1 rotate no_reflect no_shear #
lump $-1 $-1 $63 $9 #
transform $-1 1 0 0 0 1 0 0 0 1 74.858241523483997 41.749455871610486 14.798651237891608 1 rotate no_reflect no_shear #
lump $-1 $-1 $64 $10 #
transform $-1 1 0 0 0 1 0 0 0 1 74.858241523483997 41.749455871610486 14.798651237891608 1 rotate no_reflect no_shear #
lump $-1 $-1 $65 $11 #
transform $-1 1 0 0 0 1 0 0 0 1 74.858241523483997 41.749455871610486 14.798651237891608 1 rotate no_reflect no_shear #
lump $-1 $-1 $66 $12 #
transform $-1 1 0 0 0 1 0 0 0 1 74.858241523483997 41.749455871610486 14.798651237891608 1 rotate no_reflect no_shear #
lump $-1 $-1 $67 $13 #
transform $-1 1 0 0 0 1 0 0 0 1 74.858241523483997 41.749455871610486 14.798651237891608 1 rotate no_reflect no_shear #
lump $-1 $-1 $68 $14 #
transform $-1 1 0 0 0 1 0 0 0 1 74.858241523483997 41.749455871610486 14.798651237891608 1 rotate no_reflect no_shear #
lump $-1 $-1 $69 $15 #
transform $-1 1 0 0 0 1 0 0 0 1 74.858241523483997 41.749455871610486 14.798651237891608 1 rotate no_reflect no_shear #
lump $-1 $-1 $70 $16 #
transform $-1 1 0 0 0 1 0 0 0 1 74.858241523483997 41.749455871610486 14.798651237891608 1 rotate no_reflect no_shear #
lump $-1 $-1 $71 $17 #
transform $-1 1 0 0 0 1 0 0 0 1 74.858241523483997 41.749455871610486 14.798651237891608 1 rotate no_reflect no_shear #
shell $-1 $-1 $-1 $72 $-1 $18 #
shell $-1 $-1 $-1 $73 $-1 $20 #
shell $-1 $-1 $-1 $74 $-1 $22 #
shell $-1 $-1 $-1 $75 $-1 $24 #
shell $-1 $-1 $-1 $76 $-1 $26 #
shell $-1 $-1 $-1 $77 $-1 $28 #
shell $-1 $-1 $-1 $78 $-1 $30 #
shell $-1 $-1 $-1 $79 $-1 $32 #
shell $-1 $-1 $-1 $80 $-1 $34 #
shell $-1 $-1 $-1 $81 $-1 $36 #
shell $-1 $-1 $-1 $82 $-1 $38 #
shell $-1 $-1 $-1 $83 $-1 $40 #
shell $-1 $-1 $-1 $84 $-1 $42 #
shell $-1 $-1 $-1 $85 $-1 $44 #
shell $-1 $-1 $-1 $86 $-1 $46 #
shell $-1 $-1 $-1 $87 $-1 $48 #
shell $-1 $-1 $-1 $88 $-1 $50 #
shell $-1 $-1 $-1 $89 $-1 $52 #
face $-1 $90 $91 $54 $-1 $92 forward single #
face $-1 $93 $94 $55 $-1 $95 reversed single #
face $-1 $96 $97 $56 $-1 $98 reversed single #
face $-1 $99 $100 $57 $-1 $101 reversed single #
face $-1 $102 $103 $58 $-1 $104 forward single #
face $-1 $105 $106 $59 $-1 $107 forward single #
face $-1 $108 $109 $60 $-1 $110 reversed single #
face $-1 $111 $112 $61 $-1 $113 forward single #
face $-1 $114 $115 $62 $-1 $116 forward single #
face $-1 $117 $118 $63 $-1 $119 reversed single #
face $-1 $120 $121 $64 $-1 $122 forward single #
face $-1 $123 $124 $65 $-1 $125 forward single #
face $-1 $126 $127 $66 $-1 $128 reversed single #
face $-1 $129 $130 $67 $-1 $131 forward single #
face $-1 $132 $133 $68 $-1 $134 forward single #
face $-1 $135 $136 $69 $-1 $137 reversed single #
face $-1 $138 $139 $70 $-1 $140 forward single #
face $-1 $141 $142 $71 $-1 $143 forward single #
face $-1 $144 $145 $54 $-1 $146 reversed single #
loop $-1 $-1 $147 $72 #
plane-surface $-1 0 0 14.798651237891608 0 0 1 1 0 0 forward_v I I I I #
face $-1 $148 $149 $55 $-1 $150 reversed single #
loop $-1 $-1 $151 $73 #
plane-surface $-1 0 -33.634143260661546 9.0787221040710797 0 0 1 1 0 0 forward_v I I I I #
face $-1 $152 $153 $56 $-1 $154 reversed single #
loop $-1 $-1 $155 $74 #
plane-surface $-1 0 33.634143260661538 9.0787221040710797 0 0 1 1 0 0 forward_v I I I I #
face $-1 $156 $157 $57 $-1 $158 reversed single #
loop $-1 $-1 $159 $75 #
plane-surface $-1 -175.03812381146844 12.01139829574668 115.72166554831422 0 1 0 -0.66913061440640931 0 0.74314481823134659 forward_v I I I I #
face $-1 $160 $161 $58 $-1 $162 forward single #
loop $-1 $163 $164 $76 #
cone-surface $-1 -67.93841750115115 15.065977718591732 8.3201651908461649 0.66913061440640931 0 -0.74314481823134659 1.1147172273470198 0 1.003695921609614 1 I I 0 1 1.5 forward I I I I #
face $-1 $165 $166 $59 $-1 $167 forward single #
loop $-1 $168 $169 $77 #
cone-surface $-1 -67.93841750115115 19.64784685285931 8.3201651908461649 0.66913061440640931 0 -0.74314481823134659 1.1147172273470198 0 1.003695921609614 1 I I 0 1 1.5 forward I I I I #
face $-1 $170 $171 $60 $-1 $172 reversed single #
loop $-1 $-1 $173 $78 #
plane-surface $-1 27.229113354256 -15.088122101888118 214.32730854252972 0 -1 0 -0.52991927123019833 0 -0.84804809178421925 forward_v I I I I #
face $-1 $174 $175 $61 $-1 $176 forward single #
loop $-1 $177 $178 $79 #
cone-surface $-1 68.783493332839129 -20.915720709852611 10.36574952988407 -0.52991927123019833 0 -0.84804809178421925 0.84804809178421925 0 -0.52991927123019833 1 I I 0 1 1 forward I I I I #
face $-1 $179 $180 $62 $-1 $181 forward single #
loop $-1 $182 $183 $80 #
cone-surface $-1 68.783493332839129 -17.419161545073916 10.36574952988407 -0.52991927123019833 0 -0.84804809178421925 0.84804809178421925 0 -0.52991927123019833 1 I I 0 1 1 forward I I I I #
face $-1 $184 $185 $63 $-1 $186 reversed single #
loop $-1 $-1 $187 $81 #
plane-surface $-1 27.229113354256 -2.3098280169126113 214.32730854252972 0 -1 0 -0.52991927123019833 0 -0.84804809178421925 forward_v I I I I #
face $-1 $188 $189 $64 $-1 $190 forward single #
loop $-1 $191 $192 $82 #
cone-surface $-1 68.783493332839129 -8.1374266248771008 10.36574952988407 -0.52991927123019833 0 -0.84804809178421925 0.84804809178421925 0 -0.52991927123019833 1 I I 0 1 1 forward I I I I #
face $-1 $193 $194 $65 $-1 $195 forward single #
loop $-1 $196 $197 $83 #
cone-surface $-1 68.783493332839129 -4.6408674600984128 10.36574952988407 -0.52991927123019833 0 -0.84804809178421925 0.84804809178421925 0 -0.52991927123019833 1 I I 0 1 1 forward I I I I #
face $-1 $198 $199 $66 $-1 $200 reversed single #
loop $-1 $-1 $201 $84 #
plane-surface $-1 27.229113354256 10.468466068062895 214.32730854252972 0 -1 0 -0.52991927123019833 0 -0.84804809178421925 forward_v I I I I #
face $-1 $202 $203 $67 $-1 $204 forward single #
loop $-1 $205 $206 $85 #
cone-surface $-1 68.783493332839129 4.6408674600984057 10.36574952988407 -0.52991927123019833 0 -0.84804809178421925 0.84804809178421925 0 -0.52991927123019833 1 I I 0 1 1 forward I I I I #
face $-1 $207 $208 $68 $-1 $209 forward single #
loop $-1 $210 $211 $86 #
cone-surface $-1 68.783493332839129 8.1374266248770937 10.36574952988407 -0.52991927123019833 0 -0.84804809178421925 0.84804809178421925 0 -0.52991927123019833 1 I I 0 1 1 forward I I I I #
face $-1 $212 $213 $69 $-1 $214 reversed single #
loop $-1 $-1 $215 $87 #
plane-surface $-1 27.229113354256 23.246760153038402 214.32730854252972 0 -1 0 -0.52991927123019833 0 -0.84804809178421925 forward_v I I I I #
face $-1 $216 $217 $70 $-1 $218 forward single #
loop $-1 $219 $220 $88 #
cone-surface $-1 68.783493332839129 17.419161545073912 10.36574952988407 -0.52991927123019833 0 -0.84804809178421925 0.84804809178421925 0 -0.52991927123019833 1 I I 0 1 1 forward I I I I #
face $-1 $221 $222 $71 $-1 $223 forward single #
loop $-1 $224 $225 $89 #
cone-surface $-1 68.783493332839129 20.9157207098526 10.36574952988407 -0.52991927123019833 0 -0.84804809178421925 0.84804809178421925 0 -0.52991927123019833 1 I I 0 1 1 forward I I I I #
face $-1 $226 $227 $54 $-1 $228 reversed single #
loop $-1 $-1 $229 $90 #
plane-surface $-1 0 0 -14.798651237891608 0 0 1 1 0 0 forward_v I I I I #
coedge $-1 $230 $231 $232 $233 forward $91 $-1 #
face $-1 $234 $235 $55 $-1 $236 reversed single #
loop $-1 $-1 $237 $93 #
plane-surface $-1 0 -25.518830649712605 11.938686670981344 0 -1 0 0 0 -1 forward_v I I I I #
coedge $-1 $238 $239 $240 $241 reversed $94 $-1 #
face $-1 $242 $243 $56 $-1 $244 forward single #
loop $-1 $-1 $245 $96 #
plane-surface $-1 0 25.518830649712598 11.938686670981344 0 1 0 0 0 1 forward_v I I I I #
coedge $-1 $246 $247 $248 $249 reversed $97 $-1 #
face $-1 $250 $251 $57 $-1 $252 reversed single #
loop $-1 $-1 $253 $99 #
plane-surface $-1 -74.858241523483983 17.356912285725521 4.4606369681387008 -0.66913061440640931 0 0.74314481823134659 0.74314481823134659 0 0.66913061440640931 forward_v I I I I #
coedge $-1 $254 $255 $256 $257 reversed $100 $-1 #
face $-1 $-1 $258 $58 $-1 $259 forward single #
loop $-1 $260 $261 $102 #
cone-surface $-1 -66.257509406229786 15.065977718591732 6.4533276650036591 0.66913061440640931 0 -0.74314481823134659 0.55735861367350992 0 0.50184796080480698 1 I I -0.70710678118654757 0.70710678118654757 0.75 forward I I I I #
loop $-1 $-1 $262 $76 #
coedge $-1 $164 $164 $263 $264 reversed $103 $-1 #
face $-1 $-1 $265 $59 $-1 $266 forward single #
loop $-1 $267 $268 $105 #
cone-surface $-1 -66.257509406229786 19.64784685285931 6.4533276650036591 0.66913061440640931 0 -0.74314481823134659 0.55735861367350992 0 0.50184796080480698 1 I I -0.70710678118654757 0.70710678118654757 0.75 forward I I I I #
loop $-1 $-1 $269 $77 #
coedge $-1 $169 $169 $270 $271 reversed $106 $-1 #
face $-1 $272 $273 $60 $-1 $274 reversed single #
loop $-1 $-1 $275 $108 #
plane-surface $-1 -52.108536233141621 -19.167441127463263 87.360530785904103 0.52991927123019833 0 0.84804809178421925 0.84804809178421925 0 -0.52991927123019833 forward_v I I I I #
coedge $-1 $276 $277 $278 $279 reversed $109 $-1 #
face $-1 $-1 $280 $61 $-1 $281 forward single #
loop $-1 $282 $283 $111 #
cone-surface $-1 67.865534784473482 -20.915720709852611 8.8967087956769682 -0.52991927123019833 0 -0.84804809178421925 0.42402404589210962 0 -0.26495963561509916 1 I I -0.70710678118654746 0.70710678118654746 0.5 forward I I I I #
loop $-1 $-1 $284 $79 #
coedge $-1 $178 $178 $285 $286 reversed $112 $-1 #
face $-1 $-1 $287 $62 $-1 $288 forward single #
loop $-1 $289 $290 $114 #
cone-surface $-1 67.865534784473482 -17.419161545073916 8.8967087956769682 -0.52991927123019833 0 -0.84804809178421925 0.42402404589210962 0 -0.26495963561509916 1 I I -0.70710678118654746 0.70710678118654746 0.5 forward I I I I #
loop $-1 $-1 $291 $80 #
coedge $-1 $183 $183 $292 $293 reversed $115 $-1 #
face $-1 $294 $295 $63 $-1 $296 reversed single #
loop $-1 $-1 $297 $117 #
plane-surface $-1 -52.108536233141621 -6.3891470424877568 87.360530785904103 0.52991927123019833 0 0.84804809178421925 0.84804809178421925 0 -0.52991927123019833 forward_v I I I I #
coedge $-1 $298 $299 $300 $301 reversed $118 $-1 #
face $-1 $-1 $302 $64 $-1 $303 forward single #
loop $-1 $304 $305 $120 #
cone-surface $-1 67.865534784473482 -8.1374266248771008 8.8967087956769682 -0.52991927123019833 0 -0.84804809178421925 0.42402404589210962 0 -0.26495963561509916 1 I I -0.70710678118654746 0.70710678118654746 0.5 forward I I I I #
loop $-1 $-1 $306 $82 #
coedge $-1 $192 $192 $307 $308 reversed $121 $-1 #
face $-1 $-1 $309 $65 $-1 $310 forward single #
loop $-1 $311 $312 $123 #
cone-surface $-1 67.865534784473482 -4.6408674600984128 8.8967087956769682 -0.52991927123019833 0 -0.84804809178421925 0.42402404589210962 0 -0.26495963561509916 1 I I -0.70710678118654746 0.70710678118654746 0.5 forward I I I I #
loop $-1 $-1 $313 $83 #
coedge $-1 $197 $197 $314 $315 reversed $124 $-1 #
face $-1 $316 $317 $66 $-1 $318 reversed single #
loop $-1 $-1 $319 $126 #
plane-surface $-1 -52.108536233141621 6.3891470424877497 87.360530785904103 0.52991927123019833 0 0.84804809178421925 0.84804809178421925 0 -0.52991927123019833 forward_v I I I I #
coedge $-1 $320 $321 $322 $323 reversed $127 $-1 #
face $-1 $-1 $324 $67 $-1 $325 forward single #
loop $-1 $326 $327 $129 #
cone-surface $-1 67.865534784473482 4.6408674600984057 8.8967087956769682 -0.52991927123019833 0 -0.84804809178421925 0.42402404589210962 0 -0.26495963561509916 1 I I -0.70710678118654746 0.70710678118654746 0.5 forward I I I I #
loop $-1 $-1 $328 $85 #
coedge $-1 $206 $206 $329 $330 reversed $130 $-1 #
face $-1 $-1 $331 $68 $-1 $332 forward single #
loop $-1 $333 $334 $132 #
cone-surface $-1 67.865534784473482 8.1374266248770937 8.8967087956769682 -0.52991927123019833 0 -0.84804809178421925 0.42402404589210962 0 -0.26495963561509916 1 I I -0.70710678118654746 0.70710678118654746 0.5 forward I I I I #
loop $-1 $-1 $335 $86 #
coedge $-1 $211 $211 $336 $337 reversed $133 $-1 #
face $-1 $338 $339 $69 $-1 $340 reversed single #
loop $-1 $-1 $341 $135 #
plane-surface $-1 -52.108536233141621 19.167441127463256 87.360530785904103 0.52991927123019833 0 0.84804809178421925 0.84804809178421925 0 -0.52991927123019833 forward_v I I I I #
coedge $-1 $342 $343 $344 $345 reversed $136 $-1 #
face $-1 $-1 $346 $70 $-1 $347 forward single #
loop $-1 $348 $349 $138 #
cone-surface $-1 67.865534784473482 17.419161545073912 8.8967087956769682 -0.52991927123019833 0 -0.84804809178421925 0.42402404589210962 0 -0.26495963561509916 1 I I -0.70710678118654746 0.70710678118654746 0.5 forward I I I I #
loop $-1 $-1 $350 $88 #
coedge $-1 $220 $220 $351 $352 reversed $139 $-1 #
face $-1 $-1 $353 $71 $-1 $354 forward single #
loop $-1 $355 $356 $141 #
cone-surface $-1 67.865534784473482 20.9157207098526 8.8967087956769682 -0.52991927123019833 0 -0.84804809178421925 0.42402404589210962 0 -0.26495963561509916 1 I I -0.70710678118654746 0.70710678118654746 0.5 forward I I I I #
loop $-1 $-1 $357 $89 #
coedge $-1 $225 $225 $358 $359 reversed $142 $-1 #
face $-1 $360 $361 $54 $-1 $362 reversed single #
loop $-1 $-1 $363 $144 #
plane-surface $-1 0 -41.749455871610486 0 0 1 0 0 0 1 forward_v I I I I #
coedge $-1 $364 $365 $366 $367 forward $145 $-1 #
coedge $-1 $368 $147 $369 $370 forward $91 $-1 #
coedge $-1 $147 $368 $371 $372 forward $91 $-1 #
coedge $-1 $373 $374 $147 $233 reversed $375 $-1 #
edge $-1 $376 -41.749455871610486 $377 41.749455871610486 $232 $378 forward 7 unknown #
face $-1 $379 $380 $55 $-1 $381 reversed single #
loop $-1 $-1 $382 $148 #
plane-surface $-1 -74.858241523483997 0 0 1 0 0 0 0 -1 forward_v I I I I #
coedge $-1 $383 $384 $385 $386 reversed $149 $-1 #
coedge $-1 $387 $151 $388 $389 reversed $94 $-1 #
coedge $-1 $151 $387 $383 $390 forward $94 $-1 #
coedge $-1 $385 $391 $151 $241 forward $392 $-1 #
edge $-1 $393 -24.932384241279713 $394 -8.7017590193818322 $240 $395 forward 7 unknown #
face $-1 $396 $397 $56 $-1 $398 reversed single #
loop $-1 $-1 $399 $152 #
plane-surface $-1 0 0 14.798651237891608 0 0 1 1 0 0 forward_v I I I I #
coedge $-1 $400 $401 $402 $403 reversed $153 $-1 #
coedge $-1 $404 $155 $400 $405 forward $97 $-1 #
coedge $-1 $155 $404 $406 $407 reversed $97 $-1 #
coedge $-1 $408 $409 $155 $249 forward $397 $-1 #
edge $-1 $410 8.7017590193818286 $411 24.93238424127971 $248 $412 forward 7 unknown #
face $-1 $413 $414 $57 $-1 $415 reversed single #
loop $-1 $-1 $416 $156 #
plane-surface $-1 -175.03812381146844 22.702426275704362 115.72166554831422 0 -1 0 0.66913061440640931 0 -0.74314481823134659 forward_v I I I I #
coedge $-1 $417 $418 $419 $420 reversed $157 $-1 #
coedge $-1 $255 $159 $421 $422 reversed $100 $-1 #
coedge $-1 $159 $254 $417 $423 reversed $100 $-1 #
coedge $-1 $419 $424 $159 $257 forward $425 $-1 #
edge $-1 $426 12.660820382250222 $427 24.142348158682822 $256 $428 forward 7 unknown #
loop $-1 $-1 $263 $160 #
plane-surface $-1 -74.858241523483983 17.356912285725521 4.4606369681387008 -0.66913061440640931 0 0.74314481823134659 0.74314481823134659 0 0.66913061440640931 forward_v I I I I #
loop $-1 $-1 $429 $102 #
coedge $-1 $261 $261 $262 $430 reversed $161 $-1 #
coedge $-1 $262 $262 $261 $430 forward $163 $-1 #
coedge $-1 $263 $263 $164 $264 forward $258 $-1 #
edge $-1 $431 0 $431 6.2831853071796004 $263 $432 forward 7 unknown #
loop $-1 $-1 $270 $165 #
plane-surface $-1 -74.858241523483983 17.356912285725521 4.4606369681387008 -0.66913061440640931 0 0.74314481823134659 0.74314481823134659 0 0.66913061440640931 forward_v I I I I #
loop $-1 $-1 $433 $105 #
coedge $-1 $268 $268 $269 $434 reversed $166 $-1 #
coedge $-1 $269 $269 $268 $434 forward $168 $-1 #
coedge $-1 $270 $270 $169 $271 forward $265 $-1 #
edge $-1 $435 0 $435 6.2831853071796004 $270 $436 forward 7 unknown #
face $-1 $437 $438 $60 $-1 $439 forward single #
loop $-1 $-1 $440 $170 #
plane-surface $-1 27.229113354256 -23.246760153038409 214.32730854252972 0 1 0 0.52991927123019833 0 0.84804809178421925 forward_v I I I I #
coedge $-1 $441 $442 $443 $444 reversed $171 $-1 #
coedge $-1 $277 $173 $445 $446 reversed $109 $-1 #
coedge $-1 $173 $276 $441 $447 reversed $109 $-1 #
coedge $-1 $443 $448 $173 $279 forward $438 $-1 #
edge $-1 $449 -61.243684846355997 $450 -50.400186290567341 $278 $451 forward 7 unknown #
loop $-1 $-1 $285 $174 #
plane-surface $-1 -52.108536233141621 -19.167441127463263 87.360530785904103 0.52991927123019833 0 0.84804809178421925 0.84804809178421925 0 -0.52991927123019833 forward_v I I I I #
loop $-1 $-1 $452 $111 #
coedge $-1 $283 $283 $284 $453 reversed $175 $-1 #
coedge $-1 $284 $284 $283 $453 forward $177 $-1 #
coedge $-1 $285 $285 $178 $286 forward $280 $-1 #
edge $-1 $454 0 $454 6.2831853071796004 $285 $455 forward 7 unknown #
loop $-1 $-1 $292 $179 #
plane-surface $-1 -52.108536233141621 -19.167441127463263 87.360530785904103 0.52991927123019833 0 0.84804809178421925 0.84804809178421925 0 -0.52991927123019833 forward_v I I I I #
loop $-1 $-1 $456 $114 #
coedge $-1 $290 $290 $291 $457 reversed $180 $-1 #
coedge $-1 $291 $291 $290 $457 forward $182 $-1 #
coedge $-1 $292 $292 $183 $293 forward $287 $-1 #
edge $-1 $458 0 $458 6.2831853071796004 $292 $459 forward 7 unknown #
face $-1 $460 $461 $63 $-1 $462 reversed single #
loop $-1 $-1 $463 $184 #
plane-surface $-1 27.229113354256 -10.468466068062902 214.32730854252972 0 1 0 0.52991927123019833 0 0.84804809178421925 forward_v I I I I #
coedge $-1 $464 $465 $466 $467 reversed $185 $-1 #
coedge $-1 $299 $187 $468 $469 reversed $118 $-1 #
coedge $-1 $187 $298 $464 $470 reversed $118 $-1 #
coedge $-1 $466 $471 $187 $301 forward $472 $-1 #
edge $-1 $473 -61.243684846355997 $474 -50.400186290567341 $300 $475 forward 7 unknown #
loop $-1 $-1 $307 $188 #
plane-surface $-1 -52.108536233141621 -6.3891470424877568 87.360530785904103 0.52991927123019833 0 0.84804809178421925 0.84804809178421925 0 -0.52991927123019833 forward_v I I I I #
loop $-1 $-1 $476 $120 #
coedge $-1 $305 $305 $306 $477 reversed $189 $-1 #
coedge $-1 $306 $306 $305 $477 forward $191 $-1 #
coedge $-1 $307 $307 $192 $308 forward $302 $-1 #
edge $-1 $478 0 $478 6.2831853071796004 $307 $479 forward 7 unknown #
loop $-1 $-1 $314 $193 #
plane-surface $-1 -52.108536233141621 -6.3891470424877568 87.360530785904103 0.52991927123019833 0 0.84804809178421925 0.84804809178421925 0 -0.52991927123019833 forward_v I I I I #
loop $-1 $-1 $480 $123 #
coedge $-1 $312 $312 $313 $481 reversed $194 $-1 #
coedge $-1 $313 $313 $312 $481 forward $196 $-1 #
coedge $-1 $314 $314 $197 $315 forward $309 $-1 #
edge $-1 $482 0 $482 6.2831853071796004 $314 $483 forward 7 unknown #
face $-1 $484 $485 $66 $-1 $486 reversed single #
loop $-1 $-1 $487 $198 #
plane-surface $-1 27.229113354256 2.3098280169126042 214.32730854252972 0 1 0 0.52991927123019833 0 0.84804809178421925 forward_v I I I I #
coedge $-1 $488 $489 $490 $491 reversed $199 $-1 #
coedge $-1 $321 $201 $492 $493 reversed $127 $-1 #
coedge $-1 $201 $320 $488 $494 reversed $127 $-1 #
coedge $-1 $490 $495 $201 $323 forward $496 $-1 #
edge $-1 $497 -61.243684846355997 $498 -50.400186290567341 $322 $499 forward 7 unknown #
loop $-1 $-1 $329 $202 #
plane-surface $-1 -52.108536233141621 6.3891470424877497 87.360530785904103 0.52991927123019833 0 0.84804809178421925 0.84804809178421925 0 -0.52991927123019833 forward_v I I I I #
loop $-1 $-1 $500 $129 #
coedge $-1 $327 $327 $328 $501 reversed $203 $-1 #
coedge $-1 $328 $328 $327 $501 forward $205 $-1 #
coedge $-1 $329 $329 $206 $330 forward $324 $-1 #
edge $-1 $502 0 $502 6.2831853071796004 $329 $503 forward 7 unknown #
loop $-1 $-1 $336 $207 #
plane-surface $-1 -52.108536233141621 6.3891470424877497 87.360530785904103 0.52991927123019833 0 0.84804809178421925 0.84804809178421925 0 -0.52991927123019833 forward_v I I I I #
loop $-1 $-1 $504 $132 #
coedge $-1 $334 $334 $335 $505 reversed $208 $-1 #
coedge $-1 $335 $335 $334 $505 forward $210 $-1 #
coedge $-1 $336 $336 $211 $337 forward $331 $-1 #
edge $-1 $506 0 $506 6.2831853071796004 $336 $507 forward 7 unknown #
face $-1 $508 $509 $69 $-1 $510 reversed single #
loop $-1 $-1 $511 $212 #
plane-surface $-1 27.229113354256 15.088122101888111 214.32730854252972 0 1 0 0.52991927123019833 0 0.84804809178421925 forward_v I I I I #
coedge $-1 $512 $513 $514 $515 reversed $213 $-1 #
coedge $-1 $343 $215 $516 $517 reversed $136 $-1 #
coedge $-1 $215 $342 $512 $518 reversed $136 $-1 #
coedge $-1 $514 $519 $215 $345 forward $520 $-1 #
edge $-1 $521 -61.243684846355997 $522 -50.400186290567341 $344 $523 forward 7 unknown #
loop $-1 $-1 $351 $216 #
plane-surface $-1 -52.108536233141621 19.167441127463256 87.360530785904103 0.52991927123019833 0 0.84804809178421925 0.84804809178421925 0 -0.52991927123019833 forward_v I I I I #
loop $-1 $-1 $524 $138 #
coedge $-1 $349 $349 $350 $525 reversed $217 $-1 #
coedge $-1 $350 $350 $349 $525 forward $219 $-1 #
coedge $-1 $351 $351 $220 $352 forward $346 $-1 #
edge $-1 $526 0 $526 6.2831853071796004 $351 $527 forward 7 unknown #
loop $-1 $-1 $358 $221 #
plane-surface $-1 -52.108536233141621 19.167441127463256 87.360530785904103 0.52991927123019833 0 0.84804809178421925 0.84804809178421925 0 -0.52991927123019833 forward_v I I I I #
loop $-1 $-1 $528 $141 #
coedge $-1 $356 $356 $357 $529 reversed $222 $-1 #
coedge $-1 $357 $357 $356 $529 forward $224 $-1 #
coedge $-1 $358 $358 $225 $359 forward $353 $-1 #
edge $-1 $530 0 $530 6.2831853071796004 $358 $531 forward 7 unknown #
face $-1 $532 $533 $54 $-1 $534 reversed single #
loop $-1 $-1 $535 $226 #
plane-surface $-1 -74.858241523483997 0 0 1 0 0 0 0 -1 forward_v I I I I #
coedge $-1 $536 $371 $537 $538 forward $227 $-1 #
coedge $-1 $539 $229 $536 $540 forward $145 $-1 #
coedge $-1 $229 $539 $541 $542 forward $145 $-1 #
coedge $-1 $374 $373 $229 $367 reversed $375 $-1 #
edge $-1 $543 -41.749455871610486 $544 41.749455871610486 $366 $545 forward 7 unknown #
coedge $-1 $231 $230 $546 $547 forward $91 $-1 #
coedge $-1 $548 $549 $230 $370 reversed $533 $-1 #
edge $-1 $377 -74.858241523483997 $550 74.858241523483997 $369 $551 forward 7 unknown #
coedge $-1 $363 $552 $231 $372 reversed $227 $-1 #
edge $-1 $553 -74.858241523483997 $376 74.858241523483997 $371 $554 forward 7 unknown #
coedge $-1 $366 $232 $552 $555 forward $375 $-1 #
coedge $-1 $232 $366 $548 $556 reversed $375 $-1 #
loop $-1 $-1 $373 $532 #
vertex $-1 $233 $557 #
vertex $-1 $233 $558 #
straight-curve $-1 74.858241523483997 0 14.798651237891608 0 1 0 I I #
face $-1 $559 $560 $55 $-1 $561 forward single #
loop $-1 $-1 $388 $234 #
plane-surface $-1 0 -41.749455871610486 0 0 1 0 0 0 1 forward_v I I I I #
coedge $-1 $562 $563 $564 $565 forward $235 $-1 #
coedge $-1 $564 $237 $239 $390 reversed $149 $-1 #
coedge $-1 $237 $564 $566 $567 reversed $149 $-1 #
coedge $-1 $568 $240 $237 $386 forward $392 $-1 #
edge $-1 $394 3.1093787685804077 $569 8.8293079024009362 $385 $570 forward 7 unknown #
coedge $-1 $239 $238 $562 $571 reversed $94 $-1 #
coedge $-1 $572 $573 $238 $389 forward $380 $-1 #
edge $-1 $574 -74.858241523483997 $393 74.858241523483997 $388 $575 forward 7 unknown #
edge $-1 $576 -74.858241523483997 $394 74.858241523483997 $383 $577 forward 7 unknown #
coedge $-1 $240 $568 $572 $578 forward $392 $-1 #
loop $-1 $-1 $385 $559 #
vertex $-1 $389 $579 #
vertex $-1 $241 $580 #
straight-curve $-1 74.858241523483997 -16.817071630330773 9.0787221040710797 0 1 0 I I #
face $-1 $581 $582 $56 $-1 $583 reversed single #
loop $-1 $-1 $409 $242 #
plane-surface $-1 74.858241523483997 0 0 -1 0 0 0 0 1 forward_v I I I I #
coedge $-1 $584 $585 $401 $586 forward $243 $-1 #
coedge $-1 $587 $245 $246 $405 reversed $153 $-1 #
coedge $-1 $245 $587 $399 $586 reversed $153 $-1 #
coedge $-1 $588 $589 $245 $403 forward $582 $-1 #
edge $-1 $590 3.1093787685804077 $591 8.8293079024009362 $402 $592 forward 7 unknown #
coedge $-1 $247 $246 $589 $593 reversed $97 $-1 #
edge $-1 $410 -74.858241523483997 $590 74.858241523483997 $400 $594 forward 7 unknown #
coedge $-1 $595 $596 $247 $407 forward $597 $-1 #
edge $-1 $411 -74.858241523483997 $598 74.858241523483997 $406 $599 forward 7 unknown #
coedge $-1 $600 $248 $596 $601 reversed $397 $-1 #
coedge $-1 $248 $600 $587 $602 forward $397 $-1 #
vertex $-1 $249 $603 #
vertex $-1 $407 $604 #
straight-curve $-1 74.858241523483997 16.817071630330769 9.0787221040710797 0 1 0 I I #
face $-1 $-1 $425 $57 $-1 $605 forward single #
loop $-1 $-1 $606 $250 #
plane-surface $-1 -74.858241523483997 0 0 1 0 0 0 0 -1 forward_v I I I I #
coedge $-1 $607 $608 $609 $610 reversed $251 $-1 #
coedge $-1 $611 $253 $255 $423 forward $157 $-1 #
coedge $-1 $253 $611 $607 $612 forward $157 $-1 #
coedge $-1 $609 $256 $253 $420 forward $425 $-1 #
edge $-1 $427 3.3329421528839198 $613 14.023970132841601 $419 $614 forward 7 unknown #
coedge $-1 $615 $616 $254 $422 forward $414 $-1 #
edge $-1 $617 -53.400195806018424 $426 -43.062181536265498 $421 $618 forward 7 unknown #
edge $-1 $427 -15.449919712497142 $617 1.8881026247711288e-014 $255 $619 forward 7 unknown #
coedge $-1 $256 $609 $615 $620 forward $425 $-1 #
loop $-1 $-1 $609 $413 #
vertex $-1 $422 $621 #
vertex $-1 $257 $622 #
straight-curve $-1 -87.519061905734219 12.01139829574668 14.798651237891605 1 0 0 I I #
coedge $-1 $429 $429 $-1 $623 reversed $260 $-1 #
edge $-1 $624 0 $624 6.2831853071796004 $261 $625 forward 7 unknown #
vertex $-1 $264 $626 #
ellipse-curve $-1 -69.11747763526769 15.065977718591732 9.6296441030151474 -0.66913061440640931 0 0.74314481823134659 1.1147172273470198 0 1.003695921609614 1 I I #
coedge $-1 $433 $433 $-1 $627 reversed $267 $-1 #
edge $-1 $628 0 $628 6.2831853071796004 $268 $629 forward 7 unknown #
vertex $-1 $271 $630 #
ellipse-curve $-1 -69.11747763526769 19.64784685285931 9.6296441030151474 -0.66913061440640931 0 0.74314481823134659 1.1147172273470198 0 1.003695921609614 1 I I #
face $-1 $-1 $631 $60 $-1 $632 reversed single #
loop $-1 $-1 $278 $272 #
plane-surface $-1 0 0 14.798651237891608 0 0 1 1 0 0 forward_v I I I I #
coedge $-1 $633 $634 $635 $636 reversed $273 $-1 #
coedge $-1 $637 $275 $277 $447 forward $171 $-1 #
coedge $-1 $275 $637 $633 $638 forward $171 $-1 #
coedge $-1 $635 $278 $275 $444 forward $438 $-1 #
edge $-1 $450 5.5044015381564861 $639 13.663039589306777 $443 $640 forward 7 unknown #
coedge $-1 $641 $642 $276 $446 forward $631 $-1 #
edge $-1 $643 -99.140773072758378 $449 -92.365003033373256 $445 $644 forward 7 unknown #
edge $-1 $450 136.93006366717213 $643 149.71648304696799 $277 $645 forward 7 unknown #
coedge $-1 $278 $635 $641 $646 forward $438 $-1 #
vertex $-1 $446 $647 #
vertex $-1 $279 $648 #
straight-curve $-1 13.614556677128 -15.088122101888118 14.798651237891605 -1 0 0 I I #
coedge $-1 $452 $452 $-1 $649 reversed $282 $-1 #
edge $-1 $650 0 $650 6.2831853071796004 $283 $651 forward 7 unknown #
vertex $-1 $286 $652 #
ellipse-curve $-1 69.436492245589676 -20.915720709852611 11.410766218199043 0.52991927123019833 0 0.84804809178421925 0.84804809178421925 0 -0.52991927123019833 1 I I #
coedge $-1 $456 $456 $-1 $653 reversed $289 $-1 #
edge $-1 $654 0 $654 6.2831853071796004 $290 $655 forward 7 unknown #
vertex $-1 $293 $656 #
ellipse-curve $-1 69.436492245589676 -17.419161545073916 11.410766218199043 0.52991927123019833 0 0.84804809178421925 0.84804809178421925 0 -0.52991927123019833 1 I I #
face $-1 $-1 $472 $63 $-1 $657 forward single #
loop $-1 $-1 $658 $294 #
plane-surface $-1 74.858241523483997 0 0 -1 0 0 0 0 1 forward_v I I I I #
coedge $-1 $659 $660 $661 $662 reversed $295 $-1 #
coedge $-1 $663 $297 $299 $470 forward $185 $-1 #
coedge $-1 $297 $663 $659 $664 forward $185 $-1 #
coedge $-1 $661 $300 $297 $467 forward $472 $-1 #
edge $-1 $474 -0.88474550433126709 $665 7.2738925468190239 $466 $666 forward 7 unknown #
coedge $-1 $667 $668 $298 $469 forward $461 $-1 #
edge $-1 $669 -99.140773072758378 $473 -92.365003033373256 $468 $670 forward 7 unknown #
edge $-1 $474 136.93006366717213 $669 149.71648304696799 $299 $671 forward 7 unknown #
coedge $-1 $300 $661 $667 $672 forward $472 $-1 #
loop $-1 $-1 $661 $460 #
vertex $-1 $469 $673 #
vertex $-1 $301 $674 #
straight-curve $-1 13.614556677128 -2.3098280169126113 14.798651237891605 -1 0 0 I I #
coedge $-1 $476 $476 $-1 $675 reversed $304 $-1 #
edge $-1 $676 0 $676 6.2831853071796004 $305 $677 forward 7 unknown #
vertex $-1 $308 $678 #
ellipse-curve $-1 69.436492245589676 -8.1374266248771008 11.410766218199043 0.52991927123019833 0 0.84804809178421925 0.84804809178421925 0 -0.52991927123019833 1 I I #
coedge $-1 $480 $480 $-1 $679 reversed $311 $-1 #
edge $-1 $680 0 $680 6.2831853071796004 $312 $681 forward 7 unknown #
vertex $-1 $315 $682 #
ellipse-curve $-1 69.436492245589676 -4.6408674600984128 11.410766218199043 0.52991927123019833 0 0.84804809178421925 0.84804809178421925 0 -0.52991927123019833 1 I I #
face $-1 $-1 $496 $66 $-1 $683 forward single #
loop $-1 $-1 $684 $316 #
plane-surface $-1 74.858241523483997 0 0 -1 0 0 0 0 1 forward_v I I I I #
coedge $-1 $685 $686 $687 $688 reversed $317 $-1 #
coedge $-1 $689 $319 $321 $494 forward $199 $-1 #
coedge $-1 $319 $689 $685 $690 forward $199 $-1 #
coedge $-1 $687 $322 $319 $491 forward $496 $-1 #
edge $-1 $498 -7.2738925468190203 $691 0.88474550433127064 $490 $692 forward 7 unknown #
coedge $-1 $693 $694 $320 $493 forward $485 $-1 #
edge $-1 $695 -99.140773072758378 $497 -92.365003033373256 $492 $696 forward 7 unknown #
edge $-1 $498 136.93006366717213 $695 149.71648304696799 $321 $697 forward 7 unknown #
coedge $-1 $322 $687 $693 $698 forward $496 $-1 #
loop $-1 $-1 $687 $484 #
vertex $-1 $493 $699 #
vertex $-1 $323 $700 #
straight-curve $-1 13.614556677128 10.468466068062895 14.798651237891605 -1 0 0 I I #
coedge $-1 $500 $500 $-1 $701 reversed $326 $-1 #
edge $-1 $702 0 $702 6.2831853071796004 $327 $703 forward 7 unknown #
vertex $-1 $330 $704 #
ellipse-curve $-1 69.436492245589676 4.6408674600984057 11.410766218199043 0.52991927123019833 0 0.84804809178421925 0.84804809178421925 0 -0.52991927123019833 1 I I #
coedge $-1 $504 $504 $-1 $705 reversed $333 $-1 #
edge $-1 $706 0 $706 6.2831853071796004 $334 $707 forward 7 unknown #
vertex $-1 $337 $708 #
ellipse-curve $-1 69.436492245589676 8.1374266248770937 11.410766218199043 0.52991927123019833 0 0.84804809178421925 0.84804809178421925 0 -0.52991927123019833 1 I I #
face $-1 $-1 $520 $69 $-1 $709 forward single #
loop $-1 $-1 $710 $338 #
plane-surface $-1 74.858241523483997 0 0 -1 0 0 0 0 1 forward_v I I I I #
coedge $-1 $711 $712 $713 $714 reversed $339 $-1 #
coedge $-1 $715 $341 $343 $518 forward $213 $-1 #
coedge $-1 $341 $715 $711 $716 forward $213 $-1 #
coedge $-1 $713 $344 $341 $515 forward $520 $-1 #
edge $-1 $522 -13.663039589306774 $717 -5.5044015381564826 $514 $718 forward 7 unknown #
coedge $-1 $719 $720 $342 $517 forward $509 $-1 #
edge $-1 $721 -99.140773072758378 $521 -92.365003033373256 $516 $722 forward 7 unknown #
edge $-1 $522 136.93006366717213 $721 149.71648304696799 $343 $723 forward 7 unknown #
coedge $-1 $344 $713 $719 $724 forward $520 $-1 #
loop $-1 $-1 $713 $508 #
vertex $-1 $517 $725 #
vertex $-1 $345 $726 #
straight-curve $-1 13.614556677128 23.246760153038402 14.798651237891605 -1 0 0 I I #
coedge $-1 $524 $524 $-1 $727 reversed $348 $-1 #
edge $-1 $728 0 $728 6.2831853071796004 $349 $729 forward 7 unknown #
vertex $-1 $352 $730 #
ellipse-curve $-1 69.436492245589676 17.419161545073912 11.410766218199043 0.52991927123019833 0 0.84804809178421925 0.84804809178421925 0 -0.52991927123019833 1 I I #
coedge $-1 $528 $528 $-1 $731 reversed $355 $-1 #
edge $-1 $732 0 $732 6.2831853071796004 $356 $733 forward 7 unknown #
vertex $-1 $359 $734 #
ellipse-curve $-1 69.436492245589676 20.9157207098526 11.410766218199043 0.52991927123019833 0 0.84804809178421925 0.84804809178421925 0 -0.52991927123019833 1 I I #
face $-1 $-1 $375 $54 $-1 $735 reversed single #
loop $-1 $-1 $548 $360 #
plane-surface $-1 0 41.749455871610486 0 0 -1 0 0 0 -1 forward_v I I I I #
coedge $-1 $736 $546 $549 $737 forward $361 $-1 #
coedge $-1 $552 $363 $364 $540 reversed $227 $-1 #
coedge $-1 $546 $736 $363 $538 reversed $361 $-1 #
edge $-1 $553 -14.798651237891608 $738 14.798651237891608 $537 $739 forward 7 unknown #
coedge $-1 $365 $364 $736 $740 forward $145 $-1 #
edge $-1 $544 -74.858241523483997 $738 74.858241523483997 $536 $741 forward 7 unknown #
coedge $-1 $549 $548 $365 $542 reversed $533 $-1 #
edge $-1 $742 -74.858241523483997 $543 74.858241523483997 $541 $743 forward 7 unknown #
vertex $-1 $367 $744 #
vertex $-1 $555 $745 #
straight-curve $-1 74.858241523483997 0 -14.798651237891608 0 -1 0 I I #
coedge $-1 $535 $537 $368 $547 reversed $361 $-1 #
edge $-1 $550 -41.749455871610486 $553 41.749455871610486 $546 $746 forward 7 unknown #
coedge $-1 $541 $369 $374 $556 forward $533 $-1 #
coedge $-1 $369 $541 $535 $737 reversed $533 $-1 #
vertex $-1 $370 $747 #
straight-curve $-1 0 41.749455871610486 14.798651237891608 -1 0 0 I I #
coedge $-1 $371 $536 $373 $555 reversed $227 $-1 #
vertex $-1 $547 $748 #
straight-curve $-1 0 -41.749455871610486 14.798651237891608 1 0 0 I I #
edge $-1 $376 -14.798651237891608 $544 14.798651237891608 $373 $749 forward 7 unknown #
edge $-1 $377 -14.798651237891608 $543 14.798651237891608 $374 $750 forward 7 unknown #
point $-1 74.858241523483997 -41.749455871610486 14.798651237891608 #
point $-1 74.858241523483997 41.749455871610486 14.798651237891608 #
face $-1 $-1 $392 $55 $-1 $751 reversed single #
loop $-1 $-1 $566 $379 #
plane-surface $-1 0 0 14.798651237891608 0 0 1 1 0 0 forward_v I I I I #
coedge $-1 $752 $382 $387 $571 forward $235 $-1 #
coedge $-1 $382 $752 $753 $754 reversed $235 $-1 #
coedge $-1 $384 $383 $382 $565 reversed $149 $-1 #
edge $-1 $755 -8.8293079024009362 $576 -3.1093787685804077 $382 $756 forward 7 unknown #
coedge $-1 $753 $757 $384 $567 forward $560 $-1 #
edge $-1 $569 -74.858241523483997 $755 74.858241523483997 $566 $758 forward 7 unknown #
coedge $-1 $391 $385 $757 $759 reversed $392 $-1 #
vertex $-1 $386 $760 #
straight-curve $-1 74.858241523483997 -25.518830649712605 5.969343335490672 0 0 1 I I #
edge $-1 $576 8.7017590193818322 $574 24.932384241279713 $562 $761 forward 7 unknown #
coedge $-1 $762 $388 $391 $578 reversed $380 $-1 #
coedge $-1 $388 $762 $752 $763 forward $380 $-1 #
vertex $-1 $389 $764 #
straight-curve $-1 0 -41.749455871610486 9.0787221040710797 1 0 0 I I #
vertex $-1 $571 $765 #
straight-curve $-1 0 -25.518830649712605 9.0787221040710797 1 0 0 I I #
edge $-1 $766 -14.798651237891608 $393 -9.0787221040710797 $391 $767 forward 7 unknown #
point $-1 74.858241523483997 -41.749455871610486 9.0787221040710797 #
point $-1 74.858241523483997 -25.518830649712605 9.0787221040710797 #
face $-1 $-1 $597 $56 $-1 $768 reversed single #
loop $-1 $-1 $402 $396 #
plane-surface $-1 -74.858241523483997 0 0 1 0 0 0 0 -1 forward_v I I I I #
coedge $-1 $769 $399 $600 $770 forward $243 $-1 #
coedge $-1 $399 $769 $588 $771 forward $243 $-1 #
edge $-1 $591 -74.858241523483997 $772 74.858241523483997 $399 $773 forward 7 unknown #
coedge $-1 $401 $400 $409 $602 reversed $153 $-1 #
coedge $-1 $774 $402 $585 $771 reversed $582 $-1 #
coedge $-1 $402 $774 $404 $593 forward $582 $-1 #
vertex $-1 $593 $775 #
vertex $-1 $403 $776 #
straight-curve $-1 -74.858241523483997 25.518830649712598 5.969343335490672 0 0 1 I I #
edge $-1 $598 -24.93238424127971 $590 -8.7017590193818286 $589 $777 forward 7 unknown #
straight-curve $-1 0 25.518830649712598 9.0787221040710797 -1 0 0 I I #
coedge $-1 $778 $406 $774 $779 reversed $597 $-1 #
coedge $-1 $406 $778 $408 $601 forward $597 $-1 #
loop $-1 $-1 $406 $581 #
vertex $-1 $407 $780 #
straight-curve $-1 0 41.749455871610486 9.0787221040710797 -1 0 0 I I #
coedge $-1 $409 $408 $584 $770 reversed $397 $-1 #
edge $-1 $781 -14.798651237891608 $411 -9.0787221040710797 $408 $782 forward 7 unknown #
edge $-1 $772 -8.8293079024009362 $410 -3.1093787685804077 $409 $783 forward 7 unknown #
point $-1 74.858241523483997 25.518830649712598 9.0787221040710797 #
point $-1 74.858241523483997 41.749455871610479 9.0787221040710797 #
plane-surface $-1 0 0 14.798651237891608 0 0 1 1 0 0 forward_v I I I I #
coedge $-1 $616 $615 $608 $784 forward $414 $-1 #
coedge $-1 $608 $416 $418 $612 reversed $251 $-1 #
coedge $-1 $416 $607 $606 $784 reversed $251 $-1 #
coedge $-1 $424 $419 $416 $610 forward $425 $-1 #
edge $-1 $613 -24.142348158682822 $785 -12.660820382250222 $609 $786 forward 7 unknown #
coedge $-1 $418 $417 $616 $787 reversed $157 $-1 #
edge $-1 $788 -1.8881026247711288e-014 $613 15.449919712497142 $607 $789 forward 7 unknown #
vertex $-1 $420 $790 #
straight-curve $-1 -63.376713747051397 8.6784561428627605 14.798651237891608 0 1 0 I I #
coedge $-1 $606 $421 $424 $620 reversed $414 $-1 #
coedge $-1 $421 $606 $611 $787 forward $414 $-1 #
vertex $-1 $422 $791 #
straight-curve $-1 -74.858241523483997 12.01139829574668 57.86083277415711 0 0 1 I I #
straight-curve $-1 -74.858241523483983 12.01139829574668 4.4606369681387008 -0.74314481823134659 0 -0.66913061440640931 I I #
edge $-1 $785 -22.702426275704362 $426 -12.01139829574668 $615 $792 forward 7 unknown #
point $-1 -74.858241523483997 12.01139829574668 14.798651237891608 #
point $-1 -63.376713747051397 12.01139829574668 14.798651237891608 #
edge $-1 $793 1 $793 0 $429 $-1 forward 7 unknown #
vertex $-1 $430 $794 #
ellipse-curve $-1 -66.759357367034596 15.065977718591732 7.0106862786771691 -0.66913061440640931 0 0.74314481823134659 1.1147172273470198 0 1.003695921609614 1 I I #
point $-1 -68.00276040792069 15.065977718591732 10.633340024624774 #
edge $-1 $795 1 $795 0 $433 $-1 forward 7 unknown #
vertex $-1 $434 $796 #
ellipse-curve $-1 -66.759357367034596 19.64784685285931 7.0106862786771691 -0.66913061440640931 0 0.74314481823134659 1.1147172273470198 0 1.003695921609614 1 I I #
point $-1 -68.00276040792069 19.64784685285931 10.633340024624774 #
loop $-1 $-1 $445 $437 #
plane-surface $-1 74.858241523483997 0 0 -1 0 0 0 0 1 forward_v I I I I #
coedge $-1 $634 $440 $442 $638 reversed $273 $-1 #
coedge $-1 $440 $633 $797 $798 reversed $273 $-1 #
coedge $-1 $448 $443 $440 $636 forward $438 $-1 #
edge $-1 $639 50.400186290567341 $799 61.243684846355997 $635 $800 forward 7 unknown #
coedge $-1 $442 $441 $642 $801 reversed $171 $-1 #
edge $-1 $802 -149.71648304696799 $639 -136.93006366717213 $633 $803 forward 7 unknown #
vertex $-1 $444 $804 #
straight-curve $-1 64.014742967695341 -9.5837205637316316 14.798651237891605 0 -1 0 I I #
coedge $-1 $797 $445 $448 $646 reversed $631 $-1 #
coedge $-1 $445 $797 $637 $801 forward $631 $-1 #
vertex $-1 $446 $805 #
straight-curve $-1 74.858241523483997 -15.088122101888118 107.16365427126486 0 0 1 I I #
straight-curve $-1 -52.108536233141621 -15.088122101888118 87.360530785904103 0.84804809178421925 0 -0.52991927123019833 I I #
edge $-1 $799 -23.246760153038409 $449 -15.088122101888118 $641 $806 forward 7 unknown #
point $-1 74.858241523483997 -15.088122101888118 14.798651237891608 #
point $-1 64.014742967695341 -15.088122101888118 14.798651237891605 #
edge $-1 $807 1 $807 0 $452 $-1 forward 7 unknown #
vertex $-1 $453 $808 #
ellipse-curve $-1 68.130494420088581 -20.915720709852611 9.3207328415690771 0.52991927123019833 0 0.84804809178421925 0.84804809178421925 0 -0.52991927123019833 1 I I #
point $-1 70.284540337373898 -20.915720709852611 10.880846946968862 #
edge $-1 $809 1 $809 0 $456 $-1 forward 7 unknown #
vertex $-1 $457 $810 #
ellipse-curve $-1 68.130494420088581 -17.419161545073916 9.3207328415690771 0.52991927123019833 0 0.84804809178421925 0.84804809178421925 0 -0.52991927123019833 1 I I #
point $-1 70.284540337373898 -17.419161545073916 10.880846946968862 #
plane-surface $-1 0 0 14.798651237891608 0 0 1 1 0 0 forward_v I I I I #
coedge $-1 $668 $667 $660 $811 forward $461 $-1 #
coedge $-1 $660 $463 $465 $664 reversed $295 $-1 #
coedge $-1 $463 $659 $658 $811 reversed $295 $-1 #
coedge $-1 $471 $466 $463 $662 forward $472 $-1 #
edge $-1 $665 50.400186290567341 $812 61.243684846355997 $661 $813 forward 7 unknown #
coedge $-1 $465 $464 $668 $814 reversed $185 $-1 #
edge $-1 $815 -149.71648304696799 $665 -136.93006366717213 $659 $816 forward 7 unknown #
vertex $-1 $467 $817 #
straight-curve $-1 64.014742967695341 -3.1945735212438784 14.798651237891605 0 -1 0 I I #
coedge $-1 $658 $468 $471 $672 reversed $461 $-1 #
coedge $-1 $468 $658 $663 $814 forward $461 $-1 #
vertex $-1 $469 $818 #
straight-curve $-1 74.858241523483997 -2.3098280169126113 107.16365427126486 0 0 1 I I #
straight-curve $-1 -52.108536233141621 -2.3098280169126113 87.360530785904103 0.84804809178421925 0 -0.52991927123019833 I I #
edge $-1 $812 -10.468466068062902 $473 -2.3098280169126113 $667 $819 forward 7 unknown #
point $-1 74.858241523483997 -2.3098280169126113 14.798651237891608 #
point $-1 64.014742967695341 -2.3098280169126113 14.798651237891605 #
edge $-1 $820 1 $820 0 $476 $-1 forward 7 unknown #
vertex $-1 $477 $821 #
ellipse-curve $-1 68.130494420088581 -8.1374266248771008 9.3207328415690771 0.52991927123019833 0 0.84804809178421925 0.84804809178421925 0 -0.52991927123019833 1 I I #
point $-1 70.284540337373898 -8.1374266248771008 10.880846946968862 #
edge $-1 $822 1 $822 0 $480 $-1 forward 7 unknown #
vertex $-1 $481 $823 #
ellipse-curve $-1 68.130494420088581 -4.6408674600984128 9.3207328415690771 0.52991927123019833 0 0.84804809178421925 0.84804809178421925 0 -0.52991927123019833 1 I I #
point $-1 70.284540337373898 -4.6408674600984128 10.880846946968862 #
plane-surface $-1 0 0 14.798651237891608 0 0 1 1 0 0 forward_v I I I I #
coedge $-1 $694 $693 $686 $824 forward $485 $-1 #
coedge $-1 $686 $487 $489 $690 reversed $317 $-1 #
coedge $-1 $487 $685 $684 $824 reversed $317 $-1 #
coedge $-1 $495 $490 $487 $688 forward $496 $-1 #
edge $-1 $691 50.400186290567341 $825 61.243684846355997 $687 $826 forward 7 unknown #
coedge $-1 $489 $488 $694 $827 reversed $199 $-1 #
edge $-1 $828 -149.71648304696799 $691 -136.93006366717213 $685 $829 forward 7 unknown #
vertex $-1 $491 $830 #
straight-curve $-1 64.014742967695341 3.1945735212438748 14.798651237891605 0 -1 0 I I #
coedge $-1 $684 $492 $495 $698 reversed $485 $-1 #
coedge $-1 $492 $684 $689 $827 forward $485 $-1 #
vertex $-1 $493 $831 #
straight-curve $-1 74.858241523483997 10.468466068062895 107.16365427126486 0 0 1 I I #
straight-curve $-1 -52.108536233141621 10.468466068062895 87.360530785904103 0.84804809178421925 0 -0.52991927123019833 I I #
edge $-1 $825 2.3098280169126042 $497 10.468466068062895 $693 $832 forward 7 unknown #
point $-1 74.858241523483997 10.468466068062895 14.798651237891608 #
point $-1 64.014742967695341 10.468466068062895 14.798651237891605 #
edge $-1 $833 1 $833 0 $500 $-1 forward 7 unknown #
vertex $-1 $501 $834 #
ellipse-curve $-1 68.130494420088581 4.6408674600984057 9.3207328415690771 0.52991927123019833 0 0.84804809178421925 0.84804809178421925 0 -0.52991927123019833 1 I I #
point $-1 70.284540337373898 4.6408674600984057 10.880846946968862 #
edge $-1 $835 1 $835 0 $504 $-1 forward 7 unknown #
vertex $-1 $505 $836 #
ellipse-curve $-1 68.130494420088581 8.1374266248770937 9.3207328415690771 0.52991927123019833 0 0.84804809178421925 0.84804809178421925 0 -0.52991927123019833 1 I I #
point $-1 70.284540337373898 8.1374266248770937 10.880846946968862 #
plane-surface $-1 0 0 14.798651237891608 0 0 1 1 0 0 forward_v I I I I #
coedge $-1 $720 $719 $712 $837 forward $509 $-1 #
coedge $-1 $712 $511 $513 $716 reversed $339 $-1 #
coedge $-1 $511 $711 $710 $837 reversed $339 $-1 #
coedge $-1 $519 $514 $511 $714 forward $520 $-1 #
edge $-1 $717 50.400186290567341 $838 61.243684846355997 $713 $839 forward 7 unknown #
coedge $-1 $513 $512 $720 $840 reversed $213 $-1 #
edge $-1 $841 -149.71648304696799 $717 -136.93006366717213 $711 $842 forward 7 unknown #
vertex $-1 $515 $843 #
straight-curve $-1 64.014742967695341 9.5837205637316281 14.798651237891605 0 -1 0 I I #
coedge $-1 $710 $516 $519 $724 reversed $509 $-1 #
coedge $-1 $516 $710 $715 $840 forward $509 $-1 #
vertex $-1 $517 $844 #
straight-curve $-1 74.858241523483997 23.246760153038402 107.16365427126486 0 0 1 I I #
straight-curve $-1 -52.108536233141621 23.246760153038402 87.360530785904103 0.84804809178421925 0 -0.52991927123019833 I I #
edge $-1 $838 15.088122101888111 $521 23.246760153038402 $719 $845 forward 7 unknown #
point $-1 74.858241523483997 23.246760153038402 14.798651237891608 #
point $-1 64.014742967695341 23.246760153038402 14.798651237891605 #
edge $-1 $846 1 $846 0 $524 $-1 forward 7 unknown #
vertex $-1 $525 $847 #
ellipse-curve $-1 68.130494420088581 17.419161545073912 9.3207328415690771 0.52991927123019833 0 0.84804809178421925 0.84804809178421925 0 -0.52991927123019833 1 I I #
point $-1 70.284540337373898 17.419161545073912 10.880846946968862 #
edge $-1 $848 1 $848 0 $528 $-1 forward 7 unknown #
vertex $-1 $529 $849 #
ellipse-curve $-1 68.130494420088581 20.9157207098526 9.3207328415690771 0.52991927123019833 0 0.84804809178421925 0.84804809178421925 0 -0.52991927123019833 1 I I #
point $-1 70.284540337373898 20.9157207098526 10.880846946968862 #
plane-surface $-1 74.858241523483997 0 0 -1 0 0 0 0 1 forward_v I I I I #
coedge $-1 $537 $535 $539 $740 reversed $361 $-1 #
edge $-1 $550 -14.798651237891608 $742 14.798651237891608 $549 $850 forward 7 unknown #
vertex $-1 $740 $851 #
straight-curve $-1 -74.858241523483997 -41.749455871610486 0 0 0 -1 I I #
edge $-1 $738 -41.749455871610486 $742 41.749455871610486 $736 $852 forward 7 unknown #
straight-curve $-1 0 -41.749455871610486 -14.798651237891608 -1 0 0 I I #
vertex $-1 $542 $853 #
straight-curve $-1 0 41.749455871610486 -14.798651237891608 1 0 0 I I #
point $-1 74.858241523483997 41.749455871610486 -14.798651237891608 #
point $-1 74.858241523483997 -41.749455871610486 -14.798651237891608 #
straight-curve $-1 -74.858241523483997 0 14.798651237891608 0 -1 0 I I #
point $-1 -74.858241523483997 41.749455871610486 14.798651237891608 #
point $-1 -74.858241523483997 -41.749455871610486 14.798651237891608 #
straight-curve $-1 74.858241523483997 -41.749455871610486 0 0 0 -1 I I #
straight-curve $-1 74.858241523483997 41.749455871610486 0 0 0 -1 I I #
plane-surface $-1 74.858241523483997 0 0 -1 0 0 0 0 1 forward_v I I I I #
coedge $-1 $563 $562 $573 $763 reversed $235 $-1 #
coedge $-1 $854 $566 $563 $754 forward $560 $-1 #
edge $-1 $755 25.518830649712605 $855 41.749455871610486 $563 $856 forward 7 unknown #
vertex $-1 $754 $857 #
straight-curve $-1 -74.858241523483997 -25.518830649712605 5.969343335490672 0 0 -1 I I #
coedge $-1 $566 $854 $568 $759 forward $560 $-1 #
straight-curve $-1 0 -25.518830649712605 14.798651237891608 -1 0 0 I I #
edge $-1 $766 -41.749455871610486 $569 -25.518830649712605 $568 $858 forward 7 unknown #
point $-1 74.858241523483997 -25.518830649712605 14.798651237891608 #
straight-curve $-1 -74.858241523483997 -16.817071630330773 9.0787221040710797 0 -1 0 I I #
coedge $-1 $573 $572 $854 $859 reversed $380 $-1 #
edge $-1 $855 -14.798651237891608 $574 -9.0787221040710797 $752 $860 forward 7 unknown #
point $-1 -74.858241523483997 -41.749455871610486 9.0787221040710797 #
point $-1 -74.858241523483997 -25.518830649712605 9.0787221040710797 #
vertex $-1 $759 $861 #
straight-curve $-1 74.858241523483997 -41.749455871610486 0 0 0 -1 I I #
plane-surface $-1 0 41.749455871610486 0 0 -1 0 0 0 -1 forward_v I I I I #
coedge $-1 $585 $584 $778 $862 forward $243 $-1 #
edge $-1 $772 25.518830649712598 $781 41.749455871610486 $600 $863 forward 7 unknown #
edge $-1 $864 -41.749455871610486 $591 -25.518830649712598 $588 $865 forward 7 unknown #
vertex $-1 $770 $866 #
straight-curve $-1 0 25.518830649712598 14.798651237891608 1 0 0 I I #
coedge $-1 $589 $588 $595 $779 forward $582 $-1 #
point $-1 -74.858241523483997 25.518830649712598 9.0787221040710797 #
point $-1 -74.858241523483997 25.518830649712598 14.798651237891608 #
straight-curve $-1 -74.858241523483997 16.817071630330769 9.0787221040710797 0 -1 0 I I #
coedge $-1 $596 $595 $769 $862 reversed $597 $-1 #
edge $-1 $864 -14.798651237891608 $598 -9.0787221040710797 $595 $867 forward 7 unknown #
point $-1 -74.858241523483997 41.749455871610479 9.0787221040710797 #
vertex $-1 $770 $868 #
straight-curve $-1 74.858241523483997 41.749455871610486 0 0 0 -1 I I #
straight-curve $-1 74.858241523483997 25.518830649712598 5.969343335490672 0 0 -1 I I #
edge $-1 $785 43.062181536265498 $788 53.400195806018424 $606 $869 forward 7 unknown #
vertex $-1 $620 $870 #
straight-curve $-1 -87.519061905734219 22.702426275704362 14.798651237891605 -1 0 0 I I #
edge $-1 $788 -14.023970132841601 $617 -3.3329421528839198 $616 $871 forward 7 unknown #
vertex $-1 $787 $872 #
straight-curve $-1 -74.858241523483983 22.702426275704362 4.4606369681387008 0.74314481823134659 0 0.66913061440640931 I I #
point $-1 -63.376713747051397 22.702426275704362 14.798651237891608 #
point $-1 -74.858241523483997 12.01139829574668 4.4606369681386884 #
straight-curve $-1 -74.858241523483997 0 14.798651237891608 0 -1 0 I I #
vertex $-1 $623 $873 #
point $-1 -65.644640139687567 15.065977718591732 8.0143822002867822 #
vertex $-1 $627 $874 #
point $-1 -65.644640139687567 19.64784685285931 8.0143822002867822 #
coedge $-1 $642 $641 $634 $798 forward $631 $-1 #
edge $-1 $799 92.365003033373256 $802 99.140773072758378 $797 $875 forward 7 unknown #
vertex $-1 $646 $876 #
straight-curve $-1 13.614556677128 -23.246760153038409 14.798651237891605 1 0 0 I I #
edge $-1 $802 -13.663039589306777 $643 -5.5044015381564861 $642 $877 forward 7 unknown #
vertex $-1 $801 $878 #
straight-curve $-1 -52.108536233141621 -23.246760153038409 87.360530785904103 -0.84804809178421925 0 0.52991927123019833 I I #
point $-1 64.014742967695341 -23.246760153038409 14.798651237891605 #
point $-1 74.858241523483997 -15.088122101888118 8.0228811985064823 #
straight-curve $-1 74.858241523483997 0 14.798651237891608 0 1 0 I I #
vertex $-1 $649 $879 #
point $-1 68.978542511872803 -20.915720709852611 8.7908135703388801 #
vertex $-1 $653 $880 #
point $-1 68.978542511872803 -17.419161545073916 8.7908135703388801 #
edge $-1 $812 92.365003033373256 $815 99.140773072758378 $658 $881 forward 7 unknown #
vertex $-1 $672 $882 #
straight-curve $-1 13.614556677128 -10.468466068062902 14.798651237891605 1 0 0 I I #
edge $-1 $815 -7.2738925468190239 $669 0.88474550433126709 $668 $883 forward 7 unknown #
vertex $-1 $814 $884 #
straight-curve $-1 -52.108536233141621 -10.468466068062902 87.360530785904103 -0.84804809178421925 0 0.52991927123019833 I I #
point $-1 64.014742967695341 -10.468466068062902 14.798651237891605 #
point $-1 74.858241523483997 -2.3098280169126113 8.0228811985064823 #
straight-curve $-1 74.858241523483997 0 14.798651237891608 0 1 0 I I #
vertex $-1 $675 $885 #
point $-1 68.978542511872803 -8.1374266248771008 8.7908135703388801 #
vertex $-1 $679 $886 #
point $-1 68.978542511872803 -4.6408674600984128 8.7908135703388801 #
edge $-1 $825 92.365003033373256 $828 99.140773072758378 $684 $887 forward 7 unknown #
vertex $-1 $698 $888 #
straight-curve $-1 13.614556677128 2.3098280169126042 14.798651237891605 1 0 0 I I #
edge $-1 $828 -0.88474550433127064 $695 7.2738925468190203 $694 $889 forward 7 unknown #
vertex $-1 $827 $890 #
straight-curve $-1 -52.108536233141621 2.3098280169126042 87.360530785904103 -0.84804809178421925 0 0.52991927123019833 I I #
point $-1 64.014742967695341 2.3098280169126042 14.798651237891605 #
point $-1 74.858241523483997 10.468466068062895 8.0228811985064823 #
straight-curve $-1 74.858241523483997 0 14.798651237891608 0 1 0 I I #
vertex $-1 $701 $891 #
point $-1 68.978542511872803 4.6408674600984057 8.7908135703388801 #
vertex $-1 $705 $892 #
point $-1 68.978542511872803 8.1374266248770937 8.7908135703388801 #
edge $-1 $838 92.365003033373256 $841 99.140773072758378 $710 $893 forward 7 unknown #
vertex $-1 $724 $894 #
straight-curve $-1 13.614556677128 15.088122101888111 14.798651237891605 1 0 0 I I #
edge $-1 $841 5.5044015381564826 $721 13.663039589306774 $720 $895 forward 7 unknown #
vertex $-1 $840 $896 #
straight-curve $-1 -52.108536233141621 15.088122101888111 87.360530785904103 -0.84804809178421925 0 0.52991927123019833 I I #
point $-1 64.014742967695341 15.088122101888111 14.798651237891605 #
point $-1 74.858241523483997 23.246760153038402 8.0228811985064823 #
straight-curve $-1 74.858241523483997 0 14.798651237891608 0 1 0 I I #
vertex $-1 $727 $897 #
point $-1 68.978542511872803 17.419161545073912 8.7908135703388801 #
vertex $-1 $731 $898 #
point $-1 68.978542511872803 20.9157207098526 8.7908135703388801 #
straight-curve $-1 -74.858241523483997 41.749455871610486 0 0 0 -1 I I #
point $-1 -74.858241523483997 -41.749455871610486 -14.798651237891608 #
straight-curve $-1 -74.858241523483997 0 -14.798651237891608 0 1 0 I I #
point $-1 -74.858241523483997 41.749455871610486 -14.798651237891608 #
coedge $-1 $757 $753 $762 $859 forward $560 $-1 #
vertex $-1 $754 $899 #
straight-curve $-1 -74.858241523483997 0 14.798651237891608 0 -1 0 I I #
point $-1 -74.858241523483997 -25.518830649712605 14.798651237891608 #
straight-curve $-1 74.858241523483997 0 14.798651237891608 0 1 0 I I #
edge $-1 $855 -74.858241523483997 $766 74.858241523483997 $762 $900 forward 7 unknown #
straight-curve $-1 -74.858241523483997 -41.749455871610486 0 0 0 -1 I I #
point $-1 74.858241523483997 -41.749455871610486 14.798651237891608 #
edge $-1 $781 -74.858241523483997 $864 74.858241523483997 $778 $901 forward 7 unknown #
straight-curve $-1 74.858241523483997 0 14.798651237891608 0 1 0 I I #
vertex $-1 $862 $902 #
straight-curve $-1 -74.858241523483997 0 14.798651237891608 0 -1 0 I I #
point $-1 74.858241523483997 25.518830649712598 14.798651237891608 #
straight-curve $-1 -74.858241523483997 41.749455871610486 0 0 0 -1 I I #
point $-1 74.858241523483997 41.749455871610486 14.798651237891608 #
straight-curve $-1 -74.858241523483997 22.702426275704362 57.86083277415711 0 0 -1 I I #
point $-1 -74.858241523483997 22.702426275704362 14.798651237891608 #
straight-curve $-1 -74.858241523483997 8.6784561428627605 4.4606369681386973 0 -1 0 I I #
point $-1 -74.858241523483997 22.702426275704362 4.4606369681386884 #
point $-1 -65.755661445424977 15.065977718591732 5.895969051330149 #
point $-1 -65.755661445424977 19.64784685285931 5.895969051330149 #
straight-curve $-1 74.858241523483997 -23.246760153038409 107.16365427126486 0 0 -1 I I #
point $-1 74.858241523483997 -23.246760153038409 14.798651237891608 #
straight-curve $-1 74.858241523483997 -9.5837205637316316 8.0228811985064823 0 1 0 I I #
point $-1 74.858241523483997 -23.246760153038409 8.0228811985064823 #
point $-1 67.600575148858383 -20.915720709852611 8.4726847497848592 #
point $-1 67.600575148858383 -17.419161545073916 8.4726847497848592 #
straight-curve $-1 74.858241523483997 -10.468466068062902 107.16365427126486 0 0 -1 I I #
point $-1 74.858241523483997 -10.468466068062902 14.798651237891608 #
straight-curve $-1 74.858241523483997 -3.1945735212438784 8.0228811985064823 0 1 0 I I #
point $-1 74.858241523483997 -10.468466068062902 8.0228811985064823 #
point $-1 67.600575148858383 -8.1374266248771008 8.4726847497848592 #
point $-1 67.600575148858383 -4.6408674600984128 8.4726847497848592 #
straight-curve $-1 74.858241523483997 2.3098280169126042 107.16365427126486 0 0 -1 I I #
point $-1 74.858241523483997 2.3098280169126042 14.798651237891608 #
straight-curve $-1 74.858241523483997 3.1945735212438748 8.0228811985064823 0 1 0 I I #
point $-1 74.858241523483997 2.3098280169126042 8.0228811985064823 #
point $-1 67.600575148858383 4.6408674600984057 8.4726847497848592 #
point $-1 67.600575148858383 8.1374266248770937 8.4726847497848592 #
straight-curve $-1 74.858241523483997 15.088122101888111 107.16365427126486 0 0 -1 I I #
point $-1 74.858241523483997 15.088122101888111 14.798651237891608 #
straight-curve $-1 74.858241523483997 9.5837205637316281 8.0228811985064823 0 1 0 I I #
point $-1 74.858241523483997 15.088122101888111 8.0228811985064823 #
point $-1 67.600575148858383 17.419161545073912 8.4726847497848592 #
point $-1 67.600575148858383 20.9157207098526 8.4726847497848592 #
point $-1 -74.858241523483997 -41.749455871610486 14.798651237891608 #
straight-curve $-1 0 -41.749455871610486 14.798651237891608 1 0 0 I I #
straight-curve $-1 0 41.749455871610486 14.798651237891608 -1 0 0 I I #
point $-1 -74.858241523483997 41.749455871610486 14.798651237891608 #
End-of-ACIS-data 