500 0 4 0           
7 Unknown 11 ACIS 5.0 NT 24 Fri Mar 26 20:13:01 1999 
-1 9.9999999999999995e-007 1e-010 
body $-1 $4 $-1 $5 #
body $-1 $6 $-1 $7 #
body $-1 $8 $-1 $9 #
body $-1 $10 $-1 $11 #
lump $-1 $-1 $12 $0 #
transform $-1 1 0 0 0 1 0 0 0 1 53.758964812158574 28.880083061981452 8.3500783996370149 1 rotate no_reflect no_shear #
lump $-1 $-1 $13 $1 #
transform $-1 1 0 0 0 1 0 0 0 1 53.758964812158574 28.880083061981452 8.3500783996370149 1 rotate no_reflect no_shear #
lump $-1 $-1 $14 $2 #
transform $-1 1 0 0 0 1 0 0 0 1 53.758964812158574 28.880083061981452 8.3500783996370149 1 rotate no_reflect no_shear #
lump $-1 $-1 $15 $3 #
transform $-1 1 0 0 0 1 0 0 0 1 53.758964812158574 28.880083061981452 8.3500783996370149 1 rotate no_reflect no_shear #
shell $-1 $-1 $-1 $16 $-1 $4 #
shell $-1 $-1 $-1 $17 $-1 $6 #
shell $-1 $-1 $-1 $18 $-1 $8 #
shell $-1 $-1 $-1 $19 $-1 $10 #
face $-1 $20 $21 $12 $-1 $22 forward single #
face $-1 $23 $24 $13 $-1 $25 forward single #
face $-1 $26 $27 $14 $-1 $28 reversed single #
face $-1 $29 $30 $15 $-1 $31 forward single #
face $-1 $32 $33 $12 $-1 $34 reversed single #
loop $-1 $-1 $35 $16 #
plane-surface $-1 0 0 8.3500783996370149 0 0 1 1 0 0 forward_v I I I I #
face $-1 $36 $37 $13 $-1 $38 reversed single #
loop $-1 $-1 $39 $17 #
plane-surface $-1 0 -25.936689982307406 3.7052056562249058 0 0 1 1 0 0 forward_v I I I I #
face $-1 $40 $41 $14 $-1 $42 reversed single #
loop $-1 $-1 $43 $18 #
plane-surface $-1 -22.960477332474646 64.064136405740072 117.50571335565979 -1 0 0 0 0.70710678939079041 0.70710677298230451 forward_v I I I I #
face $-1 $44 $45 $15 $-1 $46 forward single #
loop $-1 $47 $48 $19 #
cone-surface $-1 -38.35972107231661 22.484805519133065 1.9548008261962115 0 -0.70710678939079041 -0.70710677298230451 2.5 0 0 1 I I 0 1 2.5 forward I I I I #
face $-1 $49 $50 $12 $-1 $51 reversed single #
loop $-1 $-1 $52 $20 #
plane-surface $-1 0 0 -8.3500783996370149 0 0 1 1 0 0 forward_v I I I I #
coedge $-1 $53 $54 $55 $56 forward $21 $-1 #
face $-1 $57 $58 $13 $-1 $59 reversed single #
loop $-1 $-1 $60 $23 #
plane-surface $-1 0 -25.936689982307406 -0.727799923303448 0 0 1 1 0 0 forward_v I I I I #
coedge $-1 $61 $62 $63 $64 reversed $24 $-1 #
face $-1 $65 $66 $14 $-1 $67 reversed single #
loop $-1 $-1 $68 $26 #
plane-surface $-1 -38.35972107231661 -11.962521612855795 41.479057101270371 0 0.70710678939079041 0.70710677298230451 1 0 0 forward_v I I I I #
coedge $-1 $69 $70 $71 $72 reversed $27 $-1 #
face $-1 $-1 $73 $15 $-1 $74 forward single #
loop $-1 $75 $76 $29 #
cone-surface $-1 -38.35972107231661 19.062457860528816 -1.4675467529921082 0 -0.70710678939079041 -0.70710677298230451 1.25 0 0 1 I I -0.70710678118654746 0.70710678118654746 1.25 forward I I I I #
loop $-1 $-1 $77 $19 #
coedge $-1 $48 $48 $78 $79 reversed $30 $-1 #
face $-1 $80 $81 $12 $-1 $82 reversed single #
loop $-1 $-1 $83 $32 #
plane-surface $-1 0 -28.880083061981452 0 0 1 0 0 0 1 forward_v I I I I #
coedge $-1 $84 $85 $86 $87 forward $33 $-1 #
coedge $-1 $88 $35 $89 $90 forward $21 $-1 #
coedge $-1 $35 $88 $91 $92 forward $21 $-1 #
coedge $-1 $93 $94 $35 $56 reversed $95 $-1 #
edge $-1 $96 -28.880083061981452 $97 28.880083061981452 $55 $98 forward 7 unknown #
face $-1 $99 $100 $13 $-1 $101 reversed single #
loop $-1 $-1 $102 $36 #
plane-surface $-1 0 -22.993296902633361 1.4887028664607289 0 -1 0 0 0 -1 forward_v I I I I #
coedge $-1 $103 $104 $105 $106 reversed $37 $-1 #
coedge $-1 $107 $39 $108 $109 forward $24 $-1 #
coedge $-1 $39 $107 $110 $111 reversed $24 $-1 #
coedge $-1 $112 $113 $39 $64 forward $114 $-1 #
edge $-1 $115 10.024951911479658 $116 15.911738070827749 $63 $117 forward 7 unknown #
face $-1 $118 $119 $14 $-1 $120 forward single #
loop $-1 $-1 $71 $40 #
plane-surface $-1 0 28.880083061981452 0 0 -1 0 0 0 -1 forward_v I I I I #
coedge $-1 $121 $122 $123 $124 reversed $41 $-1 #
coedge $-1 $70 $43 $125 $126 reversed $27 $-1 #
coedge $-1 $43 $69 $121 $127 reversed $27 $-1 #
coedge $-1 $123 $128 $43 $72 forward $66 $-1 #
edge $-1 $129 50.402778278192883 $130 58.116405199153647 $71 $131 forward 7 unknown #
loop $-1 $-1 $78 $44 #
plane-surface $-1 -38.35972107231661 -11.962521612855795 41.479057101270371 0 0.70710678939079041 0.70710677298230451 1 0 0 forward_v I I I I #
loop $-1 $-1 $132 $29 #
coedge $-1 $76 $76 $77 $133 reversed $45 $-1 #
coedge $-1 $77 $77 $76 $133 forward $47 $-1 #
coedge $-1 $78 $78 $48 $79 forward $73 $-1 #
edge $-1 $134 2.5121472635055381e-016 $134 6.2831853071796004 $78 $135 forward 7 unknown #
face $-1 $136 $137 $12 $-1 $138 reversed single #
loop $-1 $-1 $139 $49 #
plane-surface $-1 -53.758964812158574 0 0 1 0 0 0 0 -1 forward_v I I I I #
coedge $-1 $140 $91 $141 $142 forward $50 $-1 #
coedge $-1 $143 $52 $140 $144 forward $33 $-1 #
coedge $-1 $52 $143 $145 $146 forward $33 $-1 #
coedge $-1 $94 $93 $52 $87 reversed $95 $-1 #
edge $-1 $147 -28.880083061981452 $148 28.880083061981452 $86 $149 forward 7 unknown #
coedge $-1 $54 $53 $150 $151 forward $21 $-1 #
coedge $-1 $152 $153 $53 $90 reversed $137 $-1 #
edge $-1 $97 -53.758964812158574 $154 53.758964812158574 $89 $155 forward 7 unknown #
coedge $-1 $83 $156 $54 $92 reversed $50 $-1 #
edge $-1 $157 -53.758964812158574 $96 53.758964812158574 $91 $158 forward 7 unknown #
coedge $-1 $86 $55 $156 $159 forward $95 $-1 #
coedge $-1 $55 $86 $152 $160 reversed $95 $-1 #
loop $-1 $-1 $93 $136 #
vertex $-1 $56 $161 #
vertex $-1 $56 $162 #
straight-curve $-1 53.758964812158574 0 8.3500783996370149 0 1 0 I I #
face $-1 $163 $164 $13 $-1 $165 reversed single #
loop $-1 $-1 $166 $57 #
plane-surface $-1 -53.758964812158574 0 0 1 0 0 0 0 -1 forward_v I I I I #
coedge $-1 $167 $108 $113 $168 reversed $58 $-1 #
coedge $-1 $169 $60 $170 $171 reversed $37 $-1 #
coedge $-1 $60 $169 $167 $172 forward $37 $-1 #
coedge $-1 $113 $112 $60 $106 forward $114 $-1 #
edge $-1 $173 -15.911738070827749 $174 -10.024951911479658 $105 $175 forward 7 unknown #
coedge $-1 $62 $61 $166 $176 reversed $24 $-1 #
coedge $-1 $102 $177 $61 $109 reversed $58 $-1 #
edge $-1 $115 -53.758964812158574 $178 53.758964812158574 $108 $179 forward 7 unknown #
coedge $-1 $180 $181 $62 $111 forward $164 $-1 #
edge $-1 $116 -53.758964812158574 $182 53.758964812158574 $110 $183 forward 7 unknown #
coedge $-1 $105 $63 $181 $184 forward $114 $-1 #
coedge $-1 $63 $105 $102 $168 forward $114 $-1 #
loop $-1 $-1 $63 $163 #
vertex $-1 $64 $185 #
vertex $-1 $184 $186 #
straight-curve $-1 53.758964812158574 -12.968344991153703 3.7052056562249058 0 -1 0 I I #
face $-1 $-1 $187 $14 $-1 $188 reversed single #
loop $-1 $-1 $125 $65 #
plane-surface $-1 0 0 8.3500783996370149 0 0 1 1 0 0 forward_v I I I I #
coedge $-1 $189 $68 $70 $127 forward $41 $-1 #
coedge $-1 $68 $189 $190 $191 reversed $41 $-1 #
coedge $-1 $192 $71 $68 $124 forward $66 $-1 #
edge $-1 $130 3.7806167963163411 $193 34.579104276000265 $123 $194 forward 7 unknown #
coedge $-1 $195 $196 $69 $126 forward $119 $-1 #
edge $-1 $197 -10.865611882853841 $129 -3.1519851408885842 $125 $198 forward 7 unknown #
edge $-1 $130 -57.760166123962939 $197 -46.851450443822948 $70 $199 forward 7 unknown #
coedge $-1 $71 $192 $195 $200 reversed $66 $-1 #
vertex $-1 $200 $201 #
vertex $-1 $72 $202 #
straight-curve $-1 -22.960477332474646 28.880083061981452 58.752856677829897 0 0 -1 I I #
coedge $-1 $132 $132 $-1 $203 reversed $75 $-1 #
edge $-1 $204 0 $204 6.2831853071796004 $76 $205 forward 7 unknown #
vertex $-1 $79 $206 #
ellipse-curve $-1 -38.35972107231661 25.023269690998816 4.4932649391566413 0 0.70710678939079041 0.70710677298230451 2.5 0 0 1 I I #
face $-1 $-1 $95 $12 $-1 $207 reversed single #
loop $-1 $-1 $152 $80 #
plane-surface $-1 0 28.880083061981452 0 0 -1 0 0 0 -1 forward_v I I I I #
coedge $-1 $208 $150 $153 $209 forward $81 $-1 #
coedge $-1 $156 $83 $84 $144 reversed $50 $-1 #
coedge $-1 $150 $208 $83 $142 reversed $81 $-1 #
edge $-1 $157 -8.3500783996370149 $210 8.3500783996370149 $141 $211 forward 7 unknown #
coedge $-1 $85 $84 $208 $212 forward $33 $-1 #
edge $-1 $148 -53.758964812158574 $210 53.758964812158574 $140 $213 forward 7 unknown #
coedge $-1 $153 $152 $85 $146 reversed $137 $-1 #
edge $-1 $214 -53.758964812158574 $147 53.758964812158574 $145 $215 forward 7 unknown #
vertex $-1 $87 $216 #
vertex $-1 $159 $217 #
straight-curve $-1 53.758964812158574 0 -8.3500783996370149 0 -1 0 I I #
coedge $-1 $139 $141 $88 $151 reversed $81 $-1 #
edge $-1 $154 -28.880083061981452 $157 28.880083061981452 $150 $218 forward 7 unknown #
coedge $-1 $145 $89 $94 $160 forward $137 $-1 #
coedge $-1 $89 $145 $139 $209 reversed $137 $-1 #
vertex $-1 $90 $219 #
straight-curve $-1 0 28.880083061981452 8.3500783996370149 -1 0 0 I I #
coedge $-1 $91 $140 $93 $159 reversed $50 $-1 #
vertex $-1 $151 $220 #
straight-curve $-1 0 -28.880083061981452 8.3500783996370149 1 0 0 I I #
edge $-1 $96 -8.3500783996370149 $148 8.3500783996370149 $93 $221 forward 7 unknown #
edge $-1 $97 -8.3500783996370149 $147 8.3500783996370149 $94 $222 forward 7 unknown #
point $-1 53.758964812158574 -28.880083061981452 8.3500783996370149 #
point $-1 53.758964812158574 28.880083061981452 8.3500783996370149 #
face $-1 $-1 $114 $13 $-1 $223 reversed single #
loop $-1 $-1 $110 $99 #
plane-surface $-1 0 -28.880083061981452 0 0 1 0 0 0 1 forward_v I I I I #
coedge $-1 $224 $225 $107 $176 forward $100 $-1 #
coedge $-1 $177 $102 $104 $172 reversed $58 $-1 #
edge $-1 $174 -1.4721513565338125 $115 2.9608542229945414 $113 $226 forward 7 unknown #
coedge $-1 $104 $103 $227 $228 reversed $37 $-1 #
coedge $-1 $181 $180 $103 $171 forward $164 $-1 #
edge $-1 $229 -53.758964812158574 $173 53.758964812158574 $170 $230 forward 7 unknown #
edge $-1 $231 -53.758964812158574 $174 53.758964812158574 $167 $232 forward 7 unknown #
vertex $-1 $171 $233 #
vertex $-1 $106 $234 #
straight-curve $-1 53.758964812158574 -12.968344991153703 -0.727799923303448 0 1 0 I I #
edge $-1 $182 -15.911738070827749 $178 -10.024951911479658 $166 $235 forward 7 unknown #
coedge $-1 $108 $167 $224 $236 reversed $58 $-1 #
vertex $-1 $176 $237 #
straight-curve $-1 0 -22.993296902633361 3.7052056562249058 -1 0 0 I I #
coedge $-1 $170 $110 $225 $238 forward $164 $-1 #
coedge $-1 $110 $170 $112 $184 reversed $164 $-1 #
vertex $-1 $238 $239 #
straight-curve $-1 0 -28.880083061981452 3.7052056562249058 -1 0 0 I I #
edge $-1 $116 -3.7052056562249058 $173 0.727799923303448 $112 $240 forward 7 unknown #
point $-1 53.758964812158574 -22.993296902633361 3.7052056562249058 #
point $-1 53.758964812158574 -28.880083061981452 3.7052056562249058 #
loop $-1 $-1 $190 $118 #
plane-surface $-1 -53.758964812158574 0 0 1 0 0 0 0 -1 forward_v I I I I #
coedge $-1 $122 $121 $196 $241 reversed $41 $-1 #
coedge $-1 $242 $243 $122 $191 forward $187 $-1 #
edge $-1 $193 -38.865714649845884 $244 -27.956998969705889 $190 $245 forward 7 unknown #
coedge $-1 $128 $123 $243 $246 reversed $66 $-1 #
vertex $-1 $124 $247 #
straight-curve $-1 -19.179860536158305 28.880083061981452 0.63645147867625695 -1 0 0 I I #
coedge $-1 $248 $125 $128 $200 forward $119 $-1 #
coedge $-1 $125 $248 $189 $241 forward $119 $-1 #
vertex $-1 $126 $249 #
straight-curve $-1 -22.960477332474646 32.032068202870036 8.3500783996370131 0 1 0 I I #
straight-curve $-1 -22.960477332474646 -11.962521612855795 41.479057101270371 0 -0.70710677298230451 0.70710678939079041 I I #
edge $-1 $129 22.960477332474646 $250 53.758964812158574 $128 $251 forward 7 unknown #
point $-1 -22.960477332474646 28.880083061981452 8.3500783996370149 #
point $-1 -22.960477332474646 28.880083061981452 0.63645147867624985 #
edge $-1 $252 1 $252 0 $132 $-1 forward 7 unknown #
vertex $-1 $133 $253 #
ellipse-curve $-1 -38.35972107231661 19.946341347267303 -0.58366328676422763 0 0.70710678939079041 0.70710677298230451 2.5 0 0 1 I I #
point $-1 -35.85972107231661 25.023269690998827 4.493264939156651 #
plane-surface $-1 53.758964812158574 0 0 -1 0 0 0 0 1 forward_v I I I I #
coedge $-1 $141 $139 $143 $212 reversed $81 $-1 #
edge $-1 $154 -8.3500783996370149 $214 8.3500783996370149 $153 $254 forward 7 unknown #
vertex $-1 $212 $255 #
straight-curve $-1 -53.758964812158574 -28.880083061981452 0 0 0 -1 I I #
edge $-1 $210 -28.880083061981452 $214 28.880083061981452 $208 $256 forward 7 unknown #
straight-curve $-1 0 -28.880083061981452 -8.3500783996370149 -1 0 0 I I #
vertex $-1 $146 $257 #
straight-curve $-1 0 28.880083061981452 -8.3500783996370149 1 0 0 I I #
point $-1 53.758964812158574 28.880083061981452 -8.3500783996370149 #
point $-1 53.758964812158574 -28.880083061981452 -8.3500783996370149 #
straight-curve $-1 -53.758964812158574 0 8.3500783996370149 0 -1 0 I I #
point $-1 -53.758964812158574 28.880083061981452 8.3500783996370149 #
point $-1 -53.758964812158574 -28.880083061981452 8.3500783996370149 #
straight-curve $-1 53.758964812158574 -28.880083061981452 0 0 0 -1 I I #
straight-curve $-1 53.758964812158574 28.880083061981452 0 0 0 -1 I I #
plane-surface $-1 53.758964812158574 0 0 -1 0 0 0 0 1 forward_v I I I I #
coedge $-1 $227 $166 $177 $236 forward $100 $-1 #
coedge $-1 $166 $227 $180 $238 reversed $100 $-1 #
straight-curve $-1 53.758964812158574 -22.993296902633361 0.74435143323036446 0 0 1 I I #
coedge $-1 $225 $224 $169 $228 forward $100 $-1 #
edge $-1 $231 10.024951911479658 $229 15.911738070827749 $227 $258 forward 7 unknown #
vertex $-1 $171 $259 #
straight-curve $-1 0 -28.880083061981452 -0.727799923303448 1 0 0 I I #
vertex $-1 $228 $260 #
straight-curve $-1 0 -22.993296902633361 -0.727799923303448 1 0 0 I I #
point $-1 53.758964812158574 -28.880083061981452 -0.727799923303448 #
point $-1 53.758964812158574 -22.993296902633361 -0.727799923303448 #
straight-curve $-1 -53.758964812158574 -12.968344991153703 3.7052056562249058 0 1 0 I I #
edge $-1 $178 -2.9608542229945414 $231 1.4721513565338125 $224 $261 forward 7 unknown #
point $-1 -53.758964812158574 -22.993296902633361 3.7052056562249058 #
edge $-1 $182 -3.7052056562249058 $229 0.727799923303448 $225 $262 forward 7 unknown #
point $-1 -53.758964812158574 -28.880083061981452 3.7052056562249058 #
straight-curve $-1 53.758964812158574 -28.880083061981452 0 0 0 -1 I I #
edge $-1 $244 -34.579104276000265 $197 -3.7806167963163411 $196 $263 forward 7 unknown #
coedge $-1 $243 $190 $248 $264 reversed $187 $-1 #
coedge $-1 $190 $242 $192 $246 forward $187 $-1 #
vertex $-1 $191 $265 #
straight-curve $-1 -53.758964812158574 1.3978729962778553 28.118662182107379 0 -0.70710677298230462 0.70710678939079052 I I #
edge $-1 $250 -8.3500783996370149 $193 -0.63645147867625373 $192 $266 forward 7 unknown #
point $-1 -53.758964812158574 28.880083061981452 0.63645147867625373 #
coedge $-1 $196 $195 $242 $264 forward $119 $-1 #
point $-1 -22.960477332474646 21.166456320016195 8.3500783996370131 #
vertex $-1 $200 $267 #
straight-curve $-1 0 28.880083061981452 8.3500783996370149 -1 0 0 I I #
vertex $-1 $203 $268 #
point $-1 -35.85972107231661 19.946341347267303 -0.58366328676422763 #
straight-curve $-1 -53.758964812158574 28.880083061981452 0 0 0 -1 I I #
point $-1 -53.758964812158574 -28.880083061981452 -8.3500783996370149 #
straight-curve $-1 -53.758964812158574 0 -8.3500783996370149 0 1 0 I I #
point $-1 -53.758964812158574 28.880083061981452 -8.3500783996370149 #
straight-curve $-1 -53.758964812158574 -12.968344991153703 -0.727799923303448 0 -1 0 I I #
point $-1 -53.758964812158574 -28.880083061981452 -0.727799923303448 #
point $-1 -53.758964812158574 -22.993296902633361 -0.727799923303448 #
straight-curve $-1 -53.758964812158574 -22.993296902633361 0.74435143323036446 0 0 -1 I I #
straight-curve $-1 -53.758964812158574 -28.880083061981452 0 0 0 -1 I I #
straight-curve $-1 -19.179860536158305 21.166456320016195 8.3500783996370131 1 0 0 I I #
edge $-1 $250 -28.880083061981452 $244 -21.166456320016195 $242 $269 forward 7 unknown #
point $-1 -53.758964812158574 21.166456320016195 8.3500783996370131 #
straight-curve $-1 -53.758964812158574 28.880083061981452 0 0 0 -1 I I #
point $-1 -53.758964812158574 28.880083061981452 8.3500783996370149 #
point $-1 -38.35972107231661 18.17857437379033 -2.351430219219989 #
straight-curve $-1 -53.758964812158574 0 8.3500783996370149 0 -1 0 I I #
End-of-ACIS-data 