500 0 3 0           
7 Unknown 11 ACIS 5.0 NT 24 Fri Mar 26 19:14:15 1999 
-1 9.9999999999999995e-007 1e-010 
body $-1 $3 $-1 $4 #
body $-1 $5 $-1 $6 #
body $-1 $7 $-1 $8 #
lump $-1 $-1 $9 $0 #
transform $-1 1 0 0 0 1 0 0 0 1 77.183751945554974 44.753008257966655 17.166678694857108 1 rotate no_reflect no_shear #
lump $-1 $-1 $10 $1 #
transform $-1 1 0 0 0 1 0 0 0 1 77.183751945554974 44.753008257966655 17.166678694857108 1 rotate no_reflect no_shear #
lump $-1 $-1 $11 $2 #
transform $-1 1 0 0 0 1 0 0 0 1 77.183751945554974 44.753008257966655 17.166678694857108 1 rotate no_reflect no_shear #
shell $-1 $-1 $-1 $12 $-1 $3 #
shell $-1 $-1 $-1 $13 $-1 $5 #
shell $-1 $-1 $-1 $14 $-1 $7 #
face $-1 $15 $16 $9 $-1 $17 forward single #
face $-1 $18 $19 $10 $-1 $20 reversed single #
face $-1 $21 $22 $11 $-1 $23 reversed single #
face $-1 $24 $25 $9 $-1 $26 reversed single #
loop $-1 $-1 $27 $12 #
plane-surface $-1 0 0 17.166678694857108 0 0 1 1 0 0 forward_v I I I I #
face $-1 $28 $29 $10 $-1 $30 forward single #
loop $-1 $-1 $31 $13 #
plane-surface $-1 0 -35.273760764057975 9.9365327298914146 0 0 1 1 0 0 forward_v I I I I #
face $-1 $32 $33 $11 $-1 $34 forward single #
loop $-1 $-1 $35 $14 #
plane-surface $-1 0 38.080934733282206 -11.976806186327384 0 0 1 1 0 0 forward_v I I I I #
face $-1 $36 $37 $9 $-1 $38 reversed single #
loop $-1 $-1 $39 $15 #
plane-surface $-1 0 0 -17.166678694857108 0 0 1 1 0 0 forward_v I I I I #
coedge $-1 $40 $41 $42 $43 forward $16 $-1 #
face $-1 $44 $45 $10 $-1 $46 forward single #
loop $-1 $-1 $47 $18 #
plane-surface $-1 0 -35.273760764057975 1.3039990366439831 0 0 1 1 0 0 forward_v I I I I #
coedge $-1 $48 $49 $50 $51 reversed $19 $-1 #
face $-1 $52 $53 $11 $-1 $54 reversed single #
loop $-1 $-1 $55 $21 #
plane-surface $-1 0 31.408861208597756 -14.571742440592246 0 1 0 0 0 1 forward_v I I I I #
coedge $-1 $56 $57 $58 $59 reversed $22 $-1 #
face $-1 $60 $61 $9 $-1 $62 reversed single #
loop $-1 $-1 $63 $24 #
plane-surface $-1 0 -44.753008257966655 0 0 1 0 0 0 1 forward_v I I I I #
coedge $-1 $64 $65 $66 $67 forward $25 $-1 #
coedge $-1 $68 $27 $69 $70 forward $16 $-1 #
coedge $-1 $27 $68 $71 $72 forward $16 $-1 #
coedge $-1 $73 $74 $27 $43 reversed $75 $-1 #
edge $-1 $76 -44.753008257966655 $77 44.753008257966655 $42 $78 forward 7 unknown #
face $-1 $79 $80 $10 $-1 $81 reversed single #
loop $-1 $-1 $82 $28 #
plane-surface $-1 0 -25.794513270149295 5.6202658832676988 0 -1 0 0 0 -1 forward_v I I I I #
coedge $-1 $83 $84 $85 $86 reversed $29 $-1 #
coedge $-1 $87 $31 $88 $89 reversed $19 $-1 #
coedge $-1 $31 $87 $90 $91 reversed $19 $-1 #
coedge $-1 $92 $93 $31 $51 forward $80 $-1 #
edge $-1 $94 -27.116127875937668 $95 -8.1576328881203075 $50 $96 forward 7 unknown #
face $-1 $97 $98 $11 $-1 $99 reversed single #
loop $-1 $-1 $100 $32 #
plane-surface $-1 0 44.753008257966655 0 0 -1 0 0 0 -1 forward_v I I I I #
coedge $-1 $101 $102 $103 $104 reversed $33 $-1 #
coedge $-1 $105 $35 $101 $106 reversed $22 $-1 #
coedge $-1 $35 $105 $100 $107 reversed $22 $-1 #
coedge $-1 $108 $109 $35 $59 forward $110 $-1 #
edge $-1 $111 12.368393841956653 $112 25.712540891325553 $58 $113 forward 7 unknown #
face $-1 $114 $115 $9 $-1 $116 reversed single #
loop $-1 $-1 $117 $36 #
plane-surface $-1 -77.183751945554974 0 0 1 0 0 0 0 -1 forward_v I I I I #
coedge $-1 $118 $71 $119 $120 forward $37 $-1 #
coedge $-1 $121 $39 $118 $122 forward $25 $-1 #
coedge $-1 $39 $121 $123 $124 forward $25 $-1 #
coedge $-1 $74 $73 $39 $67 reversed $75 $-1 #
edge $-1 $125 -44.753008257966655 $126 44.753008257966655 $66 $127 forward 7 unknown #
coedge $-1 $41 $40 $128 $129 forward $16 $-1 #
coedge $-1 $130 $131 $40 $70 reversed $115 $-1 #
edge $-1 $77 -77.183751945554974 $132 77.183751945554974 $69 $133 forward 7 unknown #
coedge $-1 $63 $134 $41 $72 reversed $37 $-1 #
edge $-1 $135 -77.183751945554974 $76 77.183751945554974 $71 $136 forward 7 unknown #
coedge $-1 $66 $42 $134 $137 forward $75 $-1 #
coedge $-1 $42 $66 $130 $138 reversed $75 $-1 #
loop $-1 $-1 $73 $114 #
vertex $-1 $43 $139 #
vertex $-1 $43 $140 #
straight-curve $-1 77.183751945554974 0 17.166678694857108 0 1 0 I I #
face $-1 $141 $142 $10 $-1 $143 reversed single #
loop $-1 $-1 $50 $44 #
plane-surface $-1 77.183751945554974 0 0 -1 0 0 0 0 1 forward_v I I I I #
coedge $-1 $90 $144 $92 $145 reversed $45 $-1 #
coedge $-1 $146 $47 $144 $147 reversed $29 $-1 #
coedge $-1 $47 $146 $148 $149 reversed $29 $-1 #
coedge $-1 $150 $92 $47 $86 forward $80 $-1 #
edge $-1 $151 8.1576328881203075 $152 27.116127875937668 $85 $153 forward 7 unknown #
coedge $-1 $49 $48 $154 $155 reversed $19 $-1 #
coedge $-1 $156 $157 $48 $89 forward $158 $-1 #
edge $-1 $159 -77.183751945554974 $94 77.183751945554974 $88 $160 forward 7 unknown #
coedge $-1 $161 $82 $49 $91 forward $45 $-1 #
edge $-1 $95 -77.183751945554974 $162 77.183751945554974 $90 $163 forward 7 unknown #
coedge $-1 $85 $50 $82 $145 forward $80 $-1 #
coedge $-1 $50 $164 $156 $165 forward $80 $-1 #
vertex $-1 $89 $166 #
vertex $-1 $51 $167 #
straight-curve $-1 77.183751945554974 -17.636880382028988 9.9365327298914146 0 1 0 I I #
face $-1 $168 $169 $11 $-1 $170 reversed single #
loop $-1 $-1 $171 $52 #
plane-surface $-1 -77.183751945554974 0 0 1 0 0 0 0 -1 forward_v I I I I #
coedge $-1 $172 $173 $57 $107 forward $53 $-1 #
coedge $-1 $174 $55 $56 $106 forward $33 $-1 #
coedge $-1 $55 $174 $175 $176 reversed $33 $-1 #
coedge $-1 $177 $171 $55 $104 forward $98 $-1 #
edge $-1 $178 4.6909349660312607 $179 9.8808074745609851 $103 $180 forward 7 unknown #
coedge $-1 $57 $56 $171 $181 reversed $22 $-1 #
edge $-1 $178 -77.183751945554974 $111 77.183751945554974 $101 $182 forward 7 unknown #
edge $-1 $112 -77.183751945554974 $183 77.183751945554974 $100 $184 forward 7 unknown #
coedge $-1 $185 $58 $173 $186 reversed $110 $-1 #
coedge $-1 $58 $187 $174 $188 forward $110 $-1 #
loop $-1 $-1 $58 $189 #
vertex $-1 $59 $190 #
vertex $-1 $107 $191 #
straight-curve $-1 77.183751945554974 19.040467366641103 -11.976806186327384 0 1 0 I I #
face $-1 $-1 $75 $9 $-1 $192 reversed single #
loop $-1 $-1 $130 $60 #
plane-surface $-1 0 44.753008257966655 0 0 -1 0 0 0 -1 forward_v I I I I #
coedge $-1 $193 $128 $131 $194 forward $61 $-1 #
coedge $-1 $134 $63 $64 $122 reversed $37 $-1 #
coedge $-1 $128 $193 $63 $120 reversed $61 $-1 #
edge $-1 $135 -17.166678694857108 $195 17.166678694857108 $119 $196 forward 7 unknown #
coedge $-1 $65 $64 $193 $197 forward $25 $-1 #
edge $-1 $126 -77.183751945554974 $195 77.183751945554974 $118 $198 forward 7 unknown #
coedge $-1 $131 $130 $65 $124 reversed $115 $-1 #
edge $-1 $199 -77.183751945554974 $125 77.183751945554974 $123 $200 forward 7 unknown #
vertex $-1 $67 $201 #
vertex $-1 $137 $202 #
straight-curve $-1 77.183751945554974 0 -17.166678694857108 0 -1 0 I I #
coedge $-1 $117 $119 $68 $129 reversed $61 $-1 #
edge $-1 $132 -44.753008257966655 $135 44.753008257966655 $128 $203 forward 7 unknown #
coedge $-1 $123 $69 $74 $138 forward $115 $-1 #
coedge $-1 $69 $123 $117 $194 reversed $115 $-1 #
vertex $-1 $70 $204 #
straight-curve $-1 0 44.753008257966655 17.166678694857108 -1 0 0 I I #
coedge $-1 $71 $118 $73 $137 reversed $37 $-1 #
vertex $-1 $129 $205 #
straight-curve $-1 0 -44.753008257966655 17.166678694857108 1 0 0 I I #
edge $-1 $76 -17.166678694857108 $126 17.166678694857108 $73 $206 forward 7 unknown #
edge $-1 $77 -17.166678694857108 $125 17.166678694857108 $74 $207 forward 7 unknown #
point $-1 77.183751945554974 -44.753008257966655 17.166678694857108 #
point $-1 77.183751945554974 44.753008257966655 17.166678694857108 #
face $-1 $208 $209 $10 $-1 $210 forward single #
loop $-1 $-1 $148 $79 #
plane-surface $-1 0 -44.753008257966655 0 0 1 0 0 0 1 forward_v I I I I #
coedge $-1 $82 $161 $83 $147 forward $45 $-1 #
edge $-1 $95 -7.1263997882575651 $151 1.5061339049898663 $92 $211 forward 7 unknown #
coedge $-1 $84 $83 $212 $213 reversed $29 $-1 #
edge $-1 $214 -77.183751945554974 $151 77.183751945554974 $144 $215 forward 7 unknown #
coedge $-1 $216 $217 $84 $149 forward $142 $-1 #
edge $-1 $152 -77.183751945554974 $218 77.183751945554974 $148 $219 forward 7 unknown #
coedge $-1 $220 $85 $217 $221 forward $80 $-1 #
vertex $-1 $86 $222 #
vertex $-1 $221 $223 #
straight-curve $-1 77.183751945554974 -17.636880382028988 1.3039990366439831 0 -1 0 I I #
coedge $-1 $224 $225 $87 $155 forward $226 $-1 #
edge $-1 $162 8.1576328881203075 $159 27.116127875937668 $154 $227 forward 7 unknown #
coedge $-1 $228 $88 $93 $165 reversed $158 $-1 #
coedge $-1 $88 $228 $224 $229 forward $158 $-1 #
loop $-1 $-1 $88 $230 #
vertex $-1 $155 $231 #
straight-curve $-1 0 -44.753008257966655 9.9365327298914146 1 0 0 I I #
coedge $-1 $144 $90 $225 $232 reversed $45 $-1 #
vertex $-1 $155 $233 #
straight-curve $-1 0 -25.794513270149295 9.9365327298914146 -1 0 0 I I #
coedge $-1 $93 $234 $235 $236 reversed $80 $-1 #
edge $-1 $237 -17.166678694857108 $94 -9.9365327298914146 $93 $238 forward 7 unknown #
point $-1 77.183751945554974 -44.753008257966655 9.9365327298914146 #
point $-1 77.183751945554974 -25.794513270149295 9.9365327298914146 #
face $-1 $239 $240 $11 $-1 $241 forward single #
loop $-1 $-1 $242 $97 #
plane-surface $-1 0 -35.273760764057975 9.9365327298914146 0 0 1 1 0 0 forward_v I I I I #
coedge $-1 $103 $243 $105 $181 forward $98 $-1 #
coedge $-1 $244 $100 $243 $245 reversed $53 $-1 #
coedge $-1 $100 $244 $108 $186 forward $53 $-1 #
coedge $-1 $102 $101 $109 $188 reversed $33 $-1 #
coedge $-1 $246 $247 $102 $176 forward $248 $-1 #
edge $-1 $179 -77.183751945554974 $249 77.183751945554974 $175 $250 forward 7 unknown #
coedge $-1 $251 $103 $247 $252 reversed $98 $-1 #
vertex $-1 $181 $253 #
vertex $-1 $104 $254 #
straight-curve $-1 -77.183751945554974 31.408861208597756 -7.2858712202961229 0 0 -1 I I #
edge $-1 $183 -25.712540891325553 $178 -12.368393841956653 $171 $255 forward 7 unknown #
straight-curve $-1 0 31.408861208597756 -11.976806186327384 1 0 0 I I #
vertex $-1 $181 $256 #
straight-curve $-1 0 44.753008257966655 -11.976806186327384 -1 0 0 I I #
coedge $-1 $257 $108 $258 $259 reversed $110 $-1 #
edge $-1 $260 -17.166678694857108 $112 11.976806186327384 $108 $261 forward 7 unknown #
coedge $-1 $109 $262 $246 $263 reversed $110 $-1 #
edge $-1 $249 -9.8808074745609851 $111 -4.6909349660312607 $109 $264 forward 7 unknown #
face $-1 $265 $110 $11 $-1 $266 reversed single #
point $-1 77.183751945554974 31.408861208597756 -11.976806186327384 #
point $-1 77.183751945554974 44.753008257966655 -11.976806186327384 #
plane-surface $-1 77.183751945554974 0 0 -1 0 0 0 0 1 forward_v I I I I #
coedge $-1 $119 $117 $121 $197 reversed $61 $-1 #
edge $-1 $132 -17.166678694857108 $199 17.166678694857108 $131 $267 forward 7 unknown #
vertex $-1 $197 $268 #
straight-curve $-1 -77.183751945554974 -44.753008257966655 0 0 0 -1 I I #
edge $-1 $195 -44.753008257966655 $199 44.753008257966655 $193 $269 forward 7 unknown #
straight-curve $-1 0 -44.753008257966655 -17.166678694857108 -1 0 0 I I #
vertex $-1 $124 $270 #
straight-curve $-1 0 44.753008257966655 -17.166678694857108 1 0 0 I I #
point $-1 77.183751945554974 44.753008257966655 -17.166678694857108 #
point $-1 77.183751945554974 -44.753008257966655 -17.166678694857108 #
straight-curve $-1 -77.183751945554974 0 17.166678694857108 0 -1 0 I I #
point $-1 -77.183751945554974 44.753008257966655 17.166678694857108 #
point $-1 -77.183751945554974 -44.753008257966655 17.166678694857108 #
straight-curve $-1 77.183751945554974 -44.753008257966655 0 0 0 -1 I I #
straight-curve $-1 77.183751945554974 44.753008257966655 0 0 0 -1 I I #
face $-1 $230 $271 $10 $-1 $272 reversed single #
loop $-1 $-1 $235 $141 #
plane-surface $-1 0 0 17.166678694857108 0 0 1 1 0 0 forward_v I I I I #
straight-curve $-1 77.183751945554974 -25.794513270149295 2.8101329416338494 0 0 -1 I I #
coedge $-1 $225 $273 $146 $213 forward $226 $-1 #
edge $-1 $218 -27.116127875937668 $214 -8.1576328881203075 $212 $274 forward 7 unknown #
vertex $-1 $213 $275 #
straight-curve $-1 0 -25.794513270149295 1.3039990366439831 1 0 0 I I #
coedge $-1 $276 $148 $273 $277 forward $142 $-1 #
coedge $-1 $148 $276 $150 $221 reversed $142 $-1 #
vertex $-1 $277 $278 #
straight-curve $-1 0 -44.753008257966655 1.3039990366439831 -1 0 0 I I #
coedge $-1 $234 $150 $279 $280 reversed $80 $-1 #
edge $-1 $152 -1.3039990366439831 $281 17.166678694857108 $150 $238 forward 7 unknown #
point $-1 77.183751945554974 -25.794513270149295 1.3039990366439831 #
point $-1 77.183751945554974 -44.753008257966655 1.3039990366439831 #
coedge $-1 $282 $154 $157 $229 reversed $226 $-1 #
coedge $-1 $154 $212 $161 $232 forward $226 $-1 #
loop $-1 $-1 $154 $283 #
straight-curve $-1 -77.183751945554974 -17.636880382028988 9.9365327298914146 0 -1 0 I I #
coedge $-1 $157 $156 $284 $285 reversed $158 $-1 #
edge $-1 $286 -17.166678694857108 $159 -9.9365327298914146 $224 $287 forward 7 unknown #
face $-1 $283 $158 $10 $-1 $143 reversed single #
point $-1 -77.183751945554974 -44.753008257966655 9.9365327298914146 #
edge $-1 $214 -1.5061339049898663 $162 7.1263997882575651 $225 $288 forward 7 unknown #
point $-1 -77.183751945554974 -25.794513270149295 9.9365327298914146 #
coedge $-1 $164 $220 $289 $290 reversed $80 $-1 #
coedge $-1 $291 $284 $164 $236 forward $209 $-1 #
edge $-1 $237 -44.753008257966655 $292 44.753008257966655 $164 $293 forward 7 unknown #
vertex $-1 $236 $294 #
straight-curve $-1 77.183751945554974 -44.753008257966655 0 0 0 -1 I I #
face $-1 $189 $295 $11 $-1 $296 forward single #
loop $-1 $-1 $297 $168 #
plane-surface $-1 0 -35.273760764057975 1.3039990366439831 0 0 1 1 0 0 forward_v I I I I #
coedge $-1 $298 $299 $300 $301 reversed $169 $-1 #
coedge $-1 $171 $302 $172 $245 forward $98 $-1 #
coedge $-1 $173 $172 $303 $304 reversed $53 $-1 #
edge $-1 $305 -17.166678694857108 $183 11.976806186327384 $172 $306 forward 7 unknown #
coedge $-1 $307 $175 $187 $263 forward $248 $-1 #
coedge $-1 $175 $307 $177 $252 forward $248 $-1 #
loop $-1 $-1 $175 $308 #
vertex $-1 $263 $309 #
straight-curve $-1 0 31.408861208597756 -17.166678694857108 1 0 0 I I #
coedge $-1 $310 $177 $311 $312 reversed $98 $-1 #
edge $-1 $313 -44.753008257966655 $179 31.408861208597756 $177 $314 forward 7 unknown #
point $-1 -77.183751945554974 31.408861208597756 -11.976806186327384 #
point $-1 -77.183751945554974 31.408861208597756 -17.166678694857108 #
straight-curve $-1 -77.183751945554974 19.040467366641103 -11.976806186327384 0 -1 0 I I #
point $-1 -77.183751945554974 44.753008257966655 -11.976806186327384 #
coedge $-1 $300 $185 $315 $316 forward $110 $-1 #
coedge $-1 $303 $317 $185 $259 forward $318 $-1 #
edge $-1 $319 -44.753008257966655 $260 44.753008257966655 $185 $320 forward 7 unknown #
vertex $-1 $259 $321 #
straight-curve $-1 77.183751945554974 44.753008257966655 0 0 0 -1 I I #
coedge $-1 $187 $322 $323 $324 forward $110 $-1 #
edge $-1 $249 -31.408861208597756 $325 44.753008257966655 $187 $326 forward 7 unknown #
straight-curve $-1 77.183751945554974 31.408861208597756 -7.2858712202961229 0 0 1 I I #
face $-1 $327 $328 $11 $-1 $329 reversed single #
plane-surface $-1 77.183751945554974 0 0 -1 0 0 0 0 1 forward_v I I I I #
straight-curve $-1 -77.183751945554974 44.753008257966655 0 0 0 -1 I I #
point $-1 -77.183751945554974 -44.753008257966655 -17.166678694857108 #
straight-curve $-1 -77.183751945554974 0 -17.166678694857108 0 1 0 I I #
point $-1 -77.183751945554974 44.753008257966655 -17.166678694857108 #
loop $-1 $-1 $279 $208 #
plane-surface $-1 0 0 -17.166678694857108 0 0 1 1 0 0 forward_v I I I I #
coedge $-1 $212 $330 $216 $277 reversed $226 $-1 #
straight-curve $-1 -77.183751945554974 -17.636880382028988 1.3039990366439831 0 1 0 I I #
point $-1 -77.183751945554974 -25.794513270149295 1.3039990366439831 #
coedge $-1 $217 $216 $331 $332 reversed $142 $-1 #
edge $-1 $218 -1.3039990366439831 $333 17.166678694857108 $273 $287 forward 7 unknown #
point $-1 -77.183751945554974 -44.753008257966655 1.3039990366439831 #
coedge $-1 $331 $334 $220 $280 forward $271 $-1 #
edge $-1 $335 -44.753008257966655 $281 44.753008257966655 $220 $336 forward 7 unknown #
vertex $-1 $221 $337 #
coedge $-1 $338 $224 $339 $340 reversed $226 $-1 #
face $-1 $341 $226 $10 $-1 $342 reversed single #
coedge $-1 $235 $339 $228 $285 forward $209 $-1 #
edge $-1 $286 -77.183751945554974 $237 77.183751945554974 $228 $343 forward 7 unknown #
vertex $-1 $340 $344 #
straight-curve $-1 -77.183751945554974 -44.753008257966655 0 0 0 -1 I I #
straight-curve $-1 -77.183751945554974 -25.794513270149295 2.8101329416338494 0 0 1 I I #
coedge $-1 $345 $346 $234 $290 forward $347 $-1 #
edge $-1 $292 -17.166678694857108 $335 17.166678694857108 $234 $348 forward 7 unknown #
coedge $-1 $339 $235 $346 $349 forward $209 $-1 #
vertex $-1 $236 $350 #
straight-curve $-1 77.183751945554974 0 17.166678694857108 0 1 0 I I #
point $-1 77.183751945554974 -44.753008257966655 17.166678694857108 #
loop $-1 $-1 $351 $239 #
plane-surface $-1 0 -25.794513270149295 5.6202658832676988 0 -1 0 0 0 -1 forward_v I I I I #
coedge $-1 $352 $353 $322 $354 reversed $240 $-1 #
coedge $-1 $355 $242 $356 $357 reversed $169 $-1 #
coedge $-1 $242 $355 $358 $359 reversed $169 $-1 #
coedge $-1 $360 $257 $242 $301 forward $110 $-1 #
edge $-1 $361 -27.116127875937668 $362 -8.1576328881203075 $300 $363 forward 7 unknown #
coedge $-1 $243 $364 $365 $366 reversed $98 $-1 #
coedge $-1 $365 $258 $244 $304 forward $318 $-1 #
edge $-1 $260 -77.183751945554974 $305 77.183751945554974 $244 $367 forward 7 unknown #
vertex $-1 $304 $368 #
straight-curve $-1 -77.183751945554974 44.753008257966655 0 0 0 -1 I I #
coedge $-1 $247 $246 $369 $370 forward $248 $-1 #
face $-1 $371 $248 $11 $-1 $372 reversed single #
point $-1 77.183751945554974 31.408861208597756 -17.166678694857108 #
coedge $-1 $373 $251 $374 $375 forward $98 $-1 #
coedge $-1 $369 $376 $251 $312 forward $328 $-1 #
edge $-1 $377 -1.3039990366439831 $313 17.166678694857108 $251 $378 forward 7 unknown #
vertex $-1 $252 $379 #
straight-curve $-1 -77.183751945554974 0 -17.166678694857108 0 1 0 I I #
coedge $-1 $380 $356 $257 $316 reversed $381 $-1 #
edge $-1 $319 -17.166678694857108 $361 -9.9365327298914146 $257 $382 forward 7 unknown #
coedge $-1 $258 $365 $380 $383 forward $318 $-1 #
loop $-1 $-1 $258 $327 #
vertex $-1 $259 $384 #
straight-curve $-1 77.183751945554974 0 17.166678694857108 0 1 0 I I #
point $-1 77.183751945554974 44.753008257966655 17.166678694857108 #
coedge $-1 $262 $360 $297 $354 forward $110 $-1 #
coedge $-1 $376 $369 $262 $324 reversed $328 $-1 #
edge $-1 $385 -1.3039990366439831 $325 17.166678694857108 $262 $382 forward 7 unknown #
vertex $-1 $324 $386 #
straight-curve $-1 77.183751945554974 0 -17.166678694857108 0 -1 0 I I #
face $-1 $308 $318 $11 $-1 $387 forward single #
loop $-1 $-1 $376 $265 #
plane-surface $-1 0 -44.753008257966655 0 0 1 0 0 0 1 forward_v I I I I #
coedge $-1 $273 $338 $388 $389 reversed $226 $-1 #
coedge $-1 $388 $279 $276 $332 forward $271 $-1 #
edge $-1 $281 -77.183751945554974 $333 77.183751945554974 $276 $390 forward 7 unknown #
vertex $-1 $389 $391 #
coedge $-1 $279 $388 $345 $392 forward $271 $-1 #
vertex $-1 $280 $393 #
straight-curve $-1 77.183751945554974 0 -17.166678694857108 0 -1 0 I I #
point $-1 77.183751945554974 -44.753008257966655 -17.166678694857108 #
coedge $-1 $330 $282 $394 $395 forward $226 $-1 #
coedge $-1 $284 $291 $282 $340 forward $209 $-1 #
edge $-1 $396 -44.753008257966655 $286 44.753008257966655 $282 $397 forward 7 unknown #
face $-1 $-1 $347 $10 $-1 $398 reversed single #
plane-surface $-1 -77.183751945554974 0 0 1 0 0 0 0 -1 forward_v I I I I #
straight-curve $-1 0 -44.753008257966655 17.166678694857108 1 0 0 I I #
point $-1 -77.183751945554974 -44.753008257966655 17.166678694857108 #
coedge $-1 $394 $289 $334 $392 reversed $347 $-1 #
coedge $-1 $289 $394 $291 $349 reversed $347 $-1 #
loop $-1 $-1 $289 $341 #
straight-curve $-1 77.183751945554974 44.753008257966655 0 0 0 -1 I I #
edge $-1 $292 -77.183751945554974 $396 77.183751945554974 $346 $399 forward 7 unknown #
point $-1 77.183751945554974 44.753008257966655 17.166678694857108 #
coedge $-1 $358 $400 $360 $401 reversed $295 $-1 #
coedge $-1 $374 $297 $400 $402 reversed $240 $-1 #
coedge $-1 $297 $374 $376 $403 reversed $240 $-1 #
edge $-1 $404 8.1576328881203075 $385 27.116127875937668 $322 $405 forward 7 unknown #
coedge $-1 $299 $298 $406 $407 reversed $169 $-1 #
coedge $-1 $315 $408 $298 $357 forward $381 $-1 #
edge $-1 $409 -77.183751945554974 $361 77.183751945554974 $356 $410 forward 7 unknown #
coedge $-1 $411 $351 $299 $359 forward $295 $-1 #
edge $-1 $362 -77.183751945554974 $412 77.183751945554974 $358 $413 forward 7 unknown #
coedge $-1 $322 $300 $351 $401 forward $110 $-1 #
vertex $-1 $357 $414 #
vertex $-1 $301 $415 #
straight-curve $-1 77.183751945554974 -17.636880382028988 9.9365327298914146 0 1 0 I I #
coedge $-1 $302 $406 $408 $416 reversed $98 $-1 #
coedge $-1 $317 $303 $302 $366 forward $318 $-1 #
edge $-1 $305 -44.753008257966655 $417 44.753008257966655 $302 $418 forward 7 unknown #
straight-curve $-1 0 44.753008257966655 17.166678694857108 -1 0 0 I I #
point $-1 -77.183751945554974 44.753008257966655 17.166678694857108 #
coedge $-1 $323 $311 $307 $370 reversed $328 $-1 #
edge $-1 $325 -77.183751945554974 $313 77.183751945554974 $369 $419 forward 7 unknown #
face $-1 $-1 $381 $11 $-1 $329 reversed single #
plane-surface $-1 0 0 -17.166678694857108 0 0 1 1 0 0 forward_v I I I I #
coedge $-1 $406 $310 $411 $420 forward $98 $-1 #
coedge $-1 $353 $352 $310 $375 reversed $240 $-1 #
edge $-1 $377 -27.116127875937668 $421 -8.1576328881203075 $310 $422 forward 7 unknown #
coedge $-1 $311 $323 $353 $403 forward $328 $-1 #
vertex $-1 $312 $423 #
straight-curve $-1 -77.183751945554974 -44.753008257966655 0 0 0 -1 I I #
point $-1 -77.183751945554974 -44.753008257966655 -17.166678694857108 #
coedge $-1 $408 $315 $317 $383 reversed $381 $-1 #
loop $-1 $-1 $356 $371 #
straight-curve $-1 77.183751945554974 -44.753008257966655 0 0 0 -1 I I #
edge $-1 $417 -77.183751945554974 $319 77.183751945554974 $380 $424 forward 7 unknown #
point $-1 77.183751945554974 -44.753008257966655 17.166678694857108 #
vertex $-1 $324 $425 #
point $-1 77.183751945554974 -44.753008257966655 -17.166678694857108 #
plane-surface $-1 0 0 17.166678694857108 0 0 1 1 0 0 forward_v I I I I #
coedge $-1 $334 $331 $330 $389 forward $271 $-1 #
edge $-1 $333 -44.753008257966655 $426 44.753008257966655 $330 $427 forward 7 unknown #
straight-curve $-1 0 -44.753008257966655 -17.166678694857108 -1 0 0 I I #
point $-1 -77.183751945554974 -44.753008257966655 -17.166678694857108 #
edge $-1 $426 -77.183751945554974 $335 77.183751945554974 $345 $428 forward 7 unknown #
point $-1 77.183751945554974 44.753008257966655 -17.166678694857108 #
coedge $-1 $346 $345 $338 $395 reversed $347 $-1 #
edge $-1 $396 -17.166678694857108 $426 17.166678694857108 $394 $429 forward 7 unknown #
vertex $-1 $349 $430 #
straight-curve $-1 -77.183751945554974 0 17.166678694857108 0 -1 0 I I #
plane-surface $-1 0 44.753008257966655 0 0 -1 0 0 0 -1 forward_v I I I I #
straight-curve $-1 0 44.753008257966655 17.166678694857108 -1 0 0 I I #
coedge $-1 $351 $411 $352 $402 forward $295 $-1 #
edge $-1 $362 -7.1263997882575651 $404 1.5061339049898663 $360 $431 forward 7 unknown #
edge $-1 $421 -77.183751945554974 $404 77.183751945554974 $400 $432 forward 7 unknown #
edge $-1 $385 -77.183751945554974 $377 77.183751945554974 $376 $433 forward 7 unknown #
vertex $-1 $354 $434 #
straight-curve $-1 77.183751945554974 -17.636880382028988 1.3039990366439831 0 -1 0 I I #
coedge $-1 $364 $373 $355 $407 forward $98 $-1 #
edge $-1 $412 8.1576328881203075 $409 27.116127875937668 $406 $435 forward 7 unknown #
coedge $-1 $356 $380 $364 $416 forward $381 $-1 #
vertex $-1 $407 $436 #
straight-curve $-1 0 -44.753008257966655 9.9365327298914146 1 0 0 I I #
coedge $-1 $400 $358 $373 $420 reversed $295 $-1 #
vertex $-1 $407 $437 #
straight-curve $-1 0 -25.794513270149295 9.9365327298914146 -1 0 0 I I #
point $-1 77.183751945554974 -44.753008257966655 9.9365327298914146 #
point $-1 77.183751945554974 -25.794513270149295 9.9365327298914146 #
edge $-1 $417 -17.166678694857108 $409 -9.9365327298914146 $364 $378 forward 7 unknown #
vertex $-1 $366 $438 #
straight-curve $-1 -77.183751945554974 0 17.166678694857108 0 -1 0 I I #
straight-curve $-1 0 -44.753008257966655 -17.166678694857108 -1 0 0 I I #
edge $-1 $421 -1.5061339049898663 $412 7.1263997882575651 $373 $439 forward 7 unknown #
vertex $-1 $375 $440 #
straight-curve $-1 -77.183751945554974 -17.636880382028988 1.3039990366439831 0 1 0 I I #
point $-1 -77.183751945554974 -44.753008257966655 1.3039990366439831 #
straight-curve $-1 0 -44.753008257966655 17.166678694857108 1 0 0 I I #
point $-1 77.183751945554974 -44.753008257966655 1.3039990366439831 #
vertex $-1 $392 $441 #
straight-curve $-1 -77.183751945554974 0 -17.166678694857108 0 1 0 I I #
straight-curve $-1 0 44.753008257966655 -17.166678694857108 1 0 0 I I #
straight-curve $-1 -77.183751945554974 44.753008257966655 0 0 0 -1 I I #
point $-1 -77.183751945554974 44.753008257966655 17.166678694857108 #
straight-curve $-1 77.183751945554974 -25.794513270149295 2.8101329416338494 0 0 -1 I I #
straight-curve $-1 0 -25.794513270149295 1.3039990366439831 1 0 0 I I #
straight-curve $-1 0 -44.753008257966655 1.3039990366439831 -1 0 0 I I #
point $-1 77.183751945554974 -25.794513270149295 1.3039990366439831 #
straight-curve $-1 -77.183751945554974 -17.636880382028988 9.9365327298914146 0 -1 0 I I #
point $-1 -77.183751945554974 -44.753008257966655 9.9365327298914146 #
point $-1 -77.183751945554974 -25.794513270149295 9.9365327298914146 #
point $-1 -77.183751945554974 -44.753008257966655 17.166678694857108 #
straight-curve $-1 -77.183751945554974 -25.794513270149295 2.8101329416338494 0 0 1 I I #
point $-1 -77.183751945554974 -25.794513270149295 1.3039990366439831 #
point $-1 -77.183751945554974 44.753008257966655 -17.166678694857108 #
End-of-ACIS-data 