500 0 14 0           
7 Unknown 11 ACIS 5.0 NT 24 Thu Mar 25 15:11:20 1999 
-1 9.9999999999999995e-007 1e-010 
body $-1 $14 $-1 $15 #
body $-1 $16 $-1 $17 #
body $-1 $18 $-1 $19 #
body $-1 $20 $-1 $21 #
body $-1 $22 $-1 $23 #
body $-1 $24 $-1 $25 #
body $-1 $26 $-1 $27 #
body $-1 $28 $-1 $29 #
body $-1 $30 $-1 $31 #
body $-1 $32 $-1 $33 #
body $-1 $34 $-1 $35 #
body $-1 $36 $-1 $37 #
body $-1 $38 $-1 $39 #
body $-1 $40 $-1 $41 #
lump $-1 $-1 $42 $0 #
transform $-1 1 0 0 0 1 0 0 0 1 61.508224738303781 40.146566768412633 9.5822713107418558 1 rotate no_reflect no_shear #
lump $-1 $-1 $43 $1 #
transform $-1 1 0 0 0 1 0 0 0 1 61.508224738303781 40.146566768412633 9.5822713107418558 1 rotate no_reflect no_shear #
lump $-1 $-1 $44 $2 #
transform $-1 1 0 0 0 1 0 0 0 1 61.508224738303781 40.146566768412633 9.5822713107418558 1 rotate no_reflect no_shear #
lump $-1 $-1 $45 $3 #
transform $-1 1 0 0 0 1 0 0 0 1 61.508224738303781 40.146566768412633 9.5822713107418558 1 rotate no_reflect no_shear #
lump $-1 $-1 $46 $4 #
transform $-1 1 0 0 0 1 0 0 0 1 61.508224738303781 40.146566768412633 9.5822713107418558 1 rotate no_reflect no_shear #
lump $-1 $-1 $47 $5 #
transform $-1 1 0 0 0 1 0 0 0 1 61.508224738303781 40.146566768412633 9.5822713107418558 1 rotate no_reflect no_shear #
lump $-1 $-1 $48 $6 #
transform $-1 1 0 0 0 1 0 0 0 1 61.508224738303781 40.146566768412633 9.5822713107418558 1 rotate no_reflect no_shear #
lump $-1 $-1 $49 $7 #
transform $-1 1 0 0 0 1 0 0 0 1 61.508224738303781 40.146566768412633 9.5822713107418558 1 rotate no_reflect no_shear #
lump $-1 $-1 $50 $8 #
transform $-1 1 0 0 0 1 0 0 0 1 61.508224738303781 40.146566768412633 9.5822713107418558 1 rotate no_reflect no_shear #
lump $-1 $-1 $51 $9 #
transform $-1 1 0 0 0 1 0 0 0 1 61.508224738303781 40.146566768412633 9.5822713107418558 1 rotate no_reflect no_shear #
lump $-1 $-1 $52 $10 #
transform $-1 1 0 0 0 1 0 0 0 1 61.508224738303781 40.146566768412633 9.5822713107418558 1 rotate no_reflect no_shear #
lump $-1 $-1 $53 $11 #
transform $-1 1 0 0 0 1 0 0 0 1 61.508224738303781 40.146566768412633 9.5822713107418558 1 rotate no_reflect no_shear #
lump $-1 $-1 $54 $12 #
transform $-1 1 0 0 0 1 0 0 0 1 61.508224738303781 40.146566768412633 9.5822713107418558 1 rotate no_reflect no_shear #
lump $-1 $-1 $55 $13 #
transform $-1 1 0 0 0 1 0 0 0 1 61.508224738303781 40.146566768412633 9.5822713107418558 1 rotate no_reflect no_shear #
shell $-1 $-1 $-1 $56 $-1 $14 #
shell $-1 $-1 $-1 $57 $-1 $16 #
shell $-1 $-1 $-1 $58 $-1 $18 #
shell $-1 $-1 $-1 $59 $-1 $20 #
shell $-1 $-1 $-1 $60 $-1 $22 #
shell $-1 $-1 $-1 $61 $-1 $24 #
shell $-1 $-1 $-1 $62 $-1 $26 #
shell $-1 $-1 $-1 $63 $-1 $28 #
shell $-1 $-1 $-1 $64 $-1 $30 #
shell $-1 $-1 $-1 $65 $-1 $32 #
shell $-1 $-1 $-1 $66 $-1 $34 #
shell $-1 $-1 $-1 $67 $-1 $36 #
shell $-1 $-1 $-1 $68 $-1 $38 #
shell $-1 $-1 $-1 $69 $-1 $40 #
face $-1 $70 $71 $42 $-1 $72 forward single #
face $-1 $73 $74 $43 $-1 $75 forward single #
face $-1 $76 $77 $44 $-1 $78 reversed single #
face $-1 $79 $80 $45 $-1 $81 forward single #
face $-1 $82 $83 $46 $-1 $84 forward single #
face $-1 $85 $86 $47 $-1 $87 reversed single #
face $-1 $88 $89 $48 $-1 $90 forward single #
face $-1 $91 $92 $49 $-1 $93 forward single #
face $-1 $94 $95 $50 $-1 $96 reversed single #
face $-1 $97 $98 $51 $-1 $99 forward single #
face $-1 $100 $101 $52 $-1 $102 forward single #
face $-1 $103 $104 $53 $-1 $105 reversed single #
face $-1 $106 $107 $54 $-1 $108 forward single #
face $-1 $109 $110 $55 $-1 $111 forward single #
face $-1 $112 $113 $42 $-1 $114 reversed single #
loop $-1 $-1 $115 $56 #
plane-surface $-1 0 0 9.5822713107418558 0 0 1 1 0 0 forward_v I I I I #
face $-1 $116 $117 $43 $-1 $118 reversed single #
loop $-1 $-1 $119 $57 #
plane-surface $-1 -61.508224738303781 0 0 1 0 0 0 0 -1 forward_v I I I I #
face $-1 $120 $121 $44 $-1 $122 reversed single #
loop $-1 $-1 $123 $58 #
plane-surface $-1 1.8686682757031718 -34.799398651611767 109.04538413553114 0.87461971476443456 0 0.48480960649040278 0.48480960649040278 0 -0.87461971476443456 forward_v I I I I #
face $-1 $124 $125 $45 $-1 $126 forward single #
loop $-1 $127 $128 $59 #
cone-surface $-1 57.779078150978322 -37.091042130240709 4.6993509768814814 -0.87461971476443456 0 -0.48480960649040278 0.48480960649040278 0 -0.87461971476443456 1 I I 0 1 1 forward I I I I #
face $-1 $129 $130 $46 $-1 $131 forward single #
loop $-1 $132 $133 $60 #
cone-surface $-1 57.779078150978322 -32.507755172982826 4.6993509768814814 -0.87461971476443456 0 -0.48480960649040278 0.48480960649040278 0 -0.87461971476443456 1 I I 0 1 1 forward I I I I #
face $-1 $134 $135 $47 $-1 $136 reversed single #
loop $-1 $-1 $137 $61 #
plane-surface $-1 109.46128022826714 -16.946967667338122 168.68494059813176 0 1 0 0.87461971476443456 0 0.48480960649040278 forward_v I I I I #
face $-1 $138 $139 $48 $-1 $140 forward single #
loop $-1 $141 $142 $62 #
cone-surface $-1 57.779078150978322 -13.891443029166197 4.6993509768814814 -0.87461971476443456 0 -0.48480960649040278 0.48480960649040278 0 -0.87461971476443456 1 I I 0 1 1 forward I I I I #
face $-1 $143 $144 $49 $-1 $145 forward single #
loop $-1 $146 $147 $63 #
cone-surface $-1 57.779078150978322 -9.3081560719083107 4.6993509768814814 -0.87461971476443456 0 -0.48480960649040278 0.48480960649040278 0 -0.87461971476443456 1 I I 0 1 1 forward I I I I #
face $-1 $148 $149 $50 $-1 $150 reversed single #
loop $-1 $-1 $151 $64 #
plane-surface $-1 109.46128022826714 6.2526314337363882 168.68494059813176 0 1 0 0.87461971476443456 0 0.48480960649040278 forward_v I I I I #
face $-1 $152 $153 $51 $-1 $154 forward single #
loop $-1 $155 $156 $65 #
cone-surface $-1 57.779078150978322 9.3081560719083143 4.6993509768814814 -0.87461971476443456 0 -0.48480960649040278 0.48480960649040278 0 -0.87461971476443456 1 I I 0 1 1 forward I I I I #
face $-1 $157 $158 $52 $-1 $159 forward single #
loop $-1 $160 $161 $66 #
cone-surface $-1 57.779078150978322 13.891443029166204 4.6993509768814814 -0.87461971476443456 0 -0.48480960649040278 0.48480960649040278 0 -0.87461971476443456 1 I I 0 1 1 forward I I I I #
face $-1 $162 $163 $53 $-1 $164 reversed single #
loop $-1 $-1 $165 $67 #
plane-surface $-1 109.46128022826714 29.452230534810909 168.68494059813176 0 1 0 0.87461971476443456 0 0.48480960649040278 forward_v I I I I #
face $-1 $166 $167 $54 $-1 $168 forward single #
loop $-1 $169 $170 $68 #
cone-surface $-1 57.779078150978322 32.507755172982833 4.6993509768814814 -0.87461971476443456 0 -0.48480960649040278 0.48480960649040278 0 -0.87461971476443456 1 I I 0 1 1 forward I I I I #
face $-1 $171 $172 $55 $-1 $173 forward single #
loop $-1 $174 $175 $69 #
cone-surface $-1 57.779078150978322 37.091042130240716 4.6993509768814814 -0.87461971476443456 0 -0.48480960649040278 0.48480960649040278 0 -0.87461971476443456 1 I I 0 1 1 forward I I I I #
face $-1 $176 $177 $42 $-1 $178 reversed single #
loop $-1 $-1 $179 $70 #
plane-surface $-1 0 0 -9.5822713107418558 0 0 1 1 0 0 forward_v I I I I #
coedge $-1 $180 $181 $182 $183 forward $71 $-1 #
face $-1 $184 $185 $43 $-1 $186 forward single #
loop $-1 $-1 $187 $73 #
plane-surface $-1 0 40.146566768412633 0 0 -1 0 0 0 -1 forward_v I I I I #
coedge $-1 $188 $189 $190 $191 forward $74 $-1 #
face $-1 $192 $193 $44 $-1 $194 forward single #
loop $-1 $-1 $195 $76 #
plane-surface $-1 109.46128022826714 -29.452230534810901 168.68494059813176 0 -1 0 -0.87461971476443456 0 -0.48480960649040278 forward_v I I I I #
coedge $-1 $196 $197 $198 $199 reversed $77 $-1 #
face $-1 $-1 $200 $45 $-1 $201 forward single #
loop $-1 $202 $203 $79 #
cone-surface $-1 55.865749097849047 -37.091042130240709 3.6387754036632494 -0.87461971476443456 0 -0.48480960649040278 0.24240480324520139 0 -0.43730985738221728 1 I I -0.70710678118654746 0.70710678118654746 0.5 forward I I I I #
loop $-1 $-1 $204 $59 #
coedge $-1 $128 $128 $205 $206 reversed $80 $-1 #
face $-1 $-1 $207 $46 $-1 $208 forward single #
loop $-1 $209 $210 $82 #
cone-surface $-1 55.865749097849047 -32.507755172982826 3.6387754036632494 -0.87461971476443456 0 -0.48480960649040278 0.24240480324520139 0 -0.43730985738221728 1 I I -0.70710678118654746 0.70710678118654746 0.5 forward I I I I #
loop $-1 $-1 $211 $60 #
coedge $-1 $133 $133 $212 $213 reversed $83 $-1 #
face $-1 $214 $215 $47 $-1 $216 reversed single #
loop $-1 $-1 $217 $85 #
plane-surface $-1 1.8686682757031718 -11.599799550537256 109.04538413553114 0.87461971476443456 0 0.48480960649040278 0.48480960649040278 0 -0.87461971476443456 forward_v I I I I #
coedge $-1 $218 $219 $220 $221 reversed $86 $-1 #
face $-1 $-1 $222 $48 $-1 $223 forward single #
loop $-1 $224 $225 $88 #
cone-surface $-1 55.865749097849047 -13.891443029166197 3.6387754036632494 -0.87461971476443456 0 -0.48480960649040278 0.24240480324520139 0 -0.43730985738221728 1 I I -0.70710678118654746 0.70710678118654746 0.5 forward I I I I #
loop $-1 $-1 $226 $62 #
coedge $-1 $142 $142 $227 $228 reversed $89 $-1 #
face $-1 $-1 $229 $49 $-1 $230 forward single #
loop $-1 $231 $232 $91 #
cone-surface $-1 55.865749097849047 -9.3081560719083107 3.6387754036632494 -0.87461971476443456 0 -0.48480960649040278 0.24240480324520139 0 -0.43730985738221728 1 I I -0.70710678118654746 0.70710678118654746 0.5 forward I I I I #
loop $-1 $-1 $233 $63 #
coedge $-1 $147 $147 $234 $235 reversed $92 $-1 #
face $-1 $236 $237 $50 $-1 $238 reversed single #
loop $-1 $-1 $239 $94 #
plane-surface $-1 1.8686682757031718 11.599799550537256 109.04538413553114 0.87461971476443456 0 0.48480960649040278 0.48480960649040278 0 -0.87461971476443456 forward_v I I I I #
coedge $-1 $240 $241 $242 $243 reversed $95 $-1 #
face $-1 $-1 $244 $51 $-1 $245 forward single #
loop $-1 $246 $247 $97 #
cone-surface $-1 55.865749097849047 9.3081560719083143 3.6387754036632494 -0.87461971476443456 0 -0.48480960649040278 0.24240480324520139 0 -0.43730985738221728 1 I I -0.70710678118654746 0.70710678118654746 0.5 forward I I I I #
loop $-1 $-1 $248 $65 #
coedge $-1 $156 $156 $249 $250 reversed $98 $-1 #
face $-1 $-1 $251 $52 $-1 $252 forward single #
loop $-1 $253 $254 $100 #
cone-surface $-1 55.865749097849047 13.891443029166204 3.6387754036632494 -0.87461971476443456 0 -0.48480960649040278 0.24240480324520139 0 -0.43730985738221728 1 I I -0.70710678118654746 0.70710678118654746 0.5 forward I I I I #
loop $-1 $-1 $255 $66 #
coedge $-1 $161 $161 $256 $257 reversed $101 $-1 #
face $-1 $258 $259 $53 $-1 $260 reversed single #
loop $-1 $-1 $261 $103 #
plane-surface $-1 1.8686682757031718 34.799398651611774 109.04538413553114 0.87461971476443456 0 0.48480960649040278 0.48480960649040278 0 -0.87461971476443456 forward_v I I I I #
coedge $-1 $262 $263 $264 $265 reversed $104 $-1 #
face $-1 $-1 $266 $54 $-1 $267 forward single #
loop $-1 $268 $269 $106 #
cone-surface $-1 55.865749097849047 32.507755172982833 3.6387754036632494 -0.87461971476443456 0 -0.48480960649040278 0.24240480324520139 0 -0.43730985738221728 1 I I -0.70710678118654746 0.70710678118654746 0.5 forward I I I I #
loop $-1 $-1 $270 $68 #
coedge $-1 $170 $170 $271 $272 reversed $107 $-1 #
face $-1 $-1 $273 $55 $-1 $274 forward single #
loop $-1 $275 $276 $109 #
cone-surface $-1 55.865749097849047 37.091042130240716 3.6387754036632494 -0.87461971476443456 0 -0.48480960649040278 0.24240480324520139 0 -0.43730985738221728 1 I I -0.70710678118654746 0.70710678118654746 0.5 forward I I I I #
loop $-1 $-1 $277 $69 #
coedge $-1 $175 $175 $278 $279 reversed $110 $-1 #
face $-1 $280 $281 $42 $-1 $282 reversed single #
loop $-1 $-1 $283 $112 #
plane-surface $-1 0 -40.146566768412633 0 0 1 0 0 0 1 forward_v I I I I #
coedge $-1 $284 $285 $286 $287 forward $113 $-1 #
coedge $-1 $288 $115 $289 $290 forward $71 $-1 #
coedge $-1 $115 $288 $291 $292 forward $71 $-1 #
coedge $-1 $293 $294 $115 $183 reversed $295 $-1 #
edge $-1 $296 -40.146566768412633 $297 40.146566768412633 $182 $298 forward 7 unknown #
face $-1 $299 $300 $43 $-1 $301 reversed single #
loop $-1 $-1 $190 $116 #
plane-surface $-1 -67.373164332739606 0 -5.7739356273279761 0 0 1 1 0 0 forward_v I I I I #
coedge $-1 $302 $303 $189 $304 forward $117 $-1 #
coedge $-1 $305 $119 $306 $307 reversed $74 $-1 #
coedge $-1 $119 $305 $187 $304 reversed $74 $-1 #
coedge $-1 $308 $309 $119 $191 reversed $185 $-1 #
edge $-1 $310 -40.146566768412633 $311 40.146566768412633 $190 $312 forward 7 unknown #
face $-1 $313 $314 $44 $-1 $315 reversed single #
loop $-1 $-1 $316 $120 #
plane-surface $-1 0 0 9.5822713107418558 0 0 1 1 0 0 forward_v I I I I #
coedge $-1 $317 $318 $319 $320 reversed $121 $-1 #
coedge $-1 $321 $123 $322 $323 reversed $77 $-1 #
coedge $-1 $123 $321 $317 $324 forward $77 $-1 #
coedge $-1 $319 $325 $123 $199 forward $326 $-1 #
edge $-1 $327 -22.746867442606749 $328 -12.052531209005018 $198 $329 forward 7 unknown #
loop $-1 $-1 $205 $124 #
plane-surface $-1 1.8686682757031718 -34.799398651611767 109.04538413553114 0.87461971476443456 0 0.48480960649040278 0.48480960649040278 0 -0.87461971476443456 forward_v I I I I #
loop $-1 $-1 $330 $79 #
coedge $-1 $203 $203 $204 $331 reversed $125 $-1 #
coedge $-1 $204 $204 $203 $331 forward $127 $-1 #
coedge $-1 $205 $205 $128 $206 forward $200 $-1 #
edge $-1 $332 0 $332 6.2831853071796004 $205 $333 forward 7 unknown #
loop $-1 $-1 $212 $129 #
plane-surface $-1 1.8686682757031718 -34.799398651611767 109.04538413553114 0.87461971476443456 0 0.48480960649040278 0.48480960649040278 0 -0.87461971476443456 forward_v I I I I #
loop $-1 $-1 $334 $82 #
coedge $-1 $210 $210 $211 $335 reversed $130 $-1 #
coedge $-1 $211 $211 $210 $335 forward $132 $-1 #
coedge $-1 $212 $212 $133 $213 forward $207 $-1 #
edge $-1 $336 0 $336 6.2831853071796004 $212 $337 forward 7 unknown #
face $-1 $338 $339 $47 $-1 $340 reversed single #
loop $-1 $-1 $341 $134 #
plane-surface $-1 109.46128022826714 -6.2526314337363882 168.68494059813176 0 -1 0 -0.87461971476443456 0 -0.48480960649040278 forward_v I I I I #
coedge $-1 $342 $343 $344 $345 reversed $135 $-1 #
coedge $-1 $219 $137 $346 $347 reversed $86 $-1 #
coedge $-1 $137 $218 $342 $348 reversed $86 $-1 #
coedge $-1 $344 $349 $137 $221 forward $339 $-1 #
edge $-1 $350 74.760198988324021 $351 82.889698116098685 $220 $352 forward 7 unknown #
loop $-1 $-1 $227 $138 #
plane-surface $-1 1.8686682757031718 -11.599799550537256 109.04538413553114 0.87461971476443456 0 0.48480960649040278 0.48480960649040278 0 -0.87461971476443456 forward_v I I I I #
loop $-1 $-1 $353 $88 #
coedge $-1 $225 $225 $226 $354 reversed $139 $-1 #
coedge $-1 $226 $226 $225 $354 forward $141 $-1 #
coedge $-1 $227 $227 $142 $228 forward $222 $-1 #
edge $-1 $355 0 $355 6.2831853071796004 $227 $356 forward 7 unknown #
loop $-1 $-1 $234 $143 #
plane-surface $-1 1.8686682757031718 -11.599799550537256 109.04538413553114 0.87461971476443456 0 0.48480960649040278 0.48480960649040278 0 -0.87461971476443456 forward_v I I I I #
loop $-1 $-1 $357 $91 #
coedge $-1 $232 $232 $233 $358 reversed $144 $-1 #
coedge $-1 $233 $233 $232 $358 forward $146 $-1 #
coedge $-1 $234 $234 $147 $235 forward $229 $-1 #
edge $-1 $359 0 $359 6.2831853071796004 $234 $360 forward 7 unknown #
face $-1 $361 $362 $50 $-1 $363 reversed single #
loop $-1 $-1 $364 $148 #
plane-surface $-1 109.46128022826714 16.946967667338122 168.68494059813176 0 -1 0 -0.87461971476443456 0 -0.48480960649040278 forward_v I I I I #
coedge $-1 $365 $366 $367 $368 reversed $149 $-1 #
coedge $-1 $241 $151 $369 $370 reversed $95 $-1 #
coedge $-1 $151 $240 $365 $371 reversed $95 $-1 #
coedge $-1 $367 $372 $151 $243 forward $362 $-1 #
edge $-1 $373 74.760198988324021 $374 82.889698116098685 $242 $375 forward 7 unknown #
loop $-1 $-1 $249 $152 #
plane-surface $-1 1.8686682757031718 11.599799550537256 109.04538413553114 0.87461971476443456 0 0.48480960649040278 0.48480960649040278 0 -0.87461971476443456 forward_v I I I I #
loop $-1 $-1 $376 $97 #
coedge $-1 $247 $247 $248 $377 reversed $153 $-1 #
coedge $-1 $248 $248 $247 $377 forward $155 $-1 #
coedge $-1 $249 $249 $156 $250 forward $244 $-1 #
edge $-1 $378 0 $378 6.2831853071796004 $249 $379 forward 7 unknown #
loop $-1 $-1 $256 $157 #
plane-surface $-1 1.8686682757031718 11.599799550537256 109.04538413553114 0.87461971476443456 0 0.48480960649040278 0.48480960649040278 0 -0.87461971476443456 forward_v I I I I #
loop $-1 $-1 $380 $100 #
coedge $-1 $254 $254 $255 $381 reversed $158 $-1 #
coedge $-1 $255 $255 $254 $381 forward $160 $-1 #
coedge $-1 $256 $256 $161 $257 forward $251 $-1 #
edge $-1 $382 0 $382 6.2831853071796004 $256 $383 forward 7 unknown #
face $-1 $384 $385 $53 $-1 $386 forward single #
loop $-1 $-1 $264 $162 #
plane-surface $-1 61.508224738303781 0 0 -1 0 0 0 0 1 forward_v I I I I #
coedge $-1 $387 $388 $389 $390 reversed $163 $-1 #
coedge $-1 $263 $165 $391 $392 reversed $104 $-1 #
coedge $-1 $165 $262 $387 $393 reversed $104 $-1 #
coedge $-1 $389 $394 $165 $265 forward $259 $-1 #
edge $-1 $395 74.760198988324021 $396 82.889698116098685 $264 $397 forward 7 unknown #
loop $-1 $-1 $271 $166 #
plane-surface $-1 1.8686682757031718 34.799398651611774 109.04538413553114 0.87461971476443456 0 0.48480960649040278 0.48480960649040278 0 -0.87461971476443456 forward_v I I I I #
loop $-1 $-1 $398 $106 #
coedge $-1 $269 $269 $270 $399 reversed $167 $-1 #
coedge $-1 $270 $270 $269 $399 forward $169 $-1 #
coedge $-1 $271 $271 $170 $272 forward $266 $-1 #
edge $-1 $400 0 $400 6.2831853071796004 $271 $401 forward 7 unknown #
loop $-1 $-1 $278 $171 #
plane-surface $-1 1.8686682757031718 34.799398651611774 109.04538413553114 0.87461971476443456 0 0.48480960649040278 0.48480960649040278 0 -0.87461971476443456 forward_v I I I I #
loop $-1 $-1 $402 $109 #
coedge $-1 $276 $276 $277 $403 reversed $172 $-1 #
coedge $-1 $277 $277 $276 $403 forward $174 $-1 #
coedge $-1 $278 $278 $175 $279 forward $273 $-1 #
edge $-1 $404 0 $404 6.2831853071796004 $278 $405 forward 7 unknown #
face $-1 $406 $407 $42 $-1 $408 reversed single #
loop $-1 $-1 $409 $176 #
plane-surface $-1 -61.508224738303781 0 0 1 0 0 0 0 -1 forward_v I I I I #
coedge $-1 $410 $291 $409 $411 forward $177 $-1 #
coedge $-1 $412 $179 $410 $413 forward $113 $-1 #
coedge $-1 $179 $412 $414 $415 forward $113 $-1 #
coedge $-1 $294 $293 $179 $287 reversed $295 $-1 #
edge $-1 $416 -40.146566768412633 $417 40.146566768412633 $286 $418 forward 7 unknown #
coedge $-1 $181 $180 $419 $420 forward $71 $-1 #
coedge $-1 $421 $422 $180 $290 reversed $407 $-1 #
edge $-1 $297 -61.508224738303781 $423 61.508224738303781 $289 $424 forward 7 unknown #
coedge $-1 $283 $425 $181 $292 reversed $177 $-1 #
edge $-1 $426 -61.508224738303781 $296 61.508224738303781 $291 $427 forward 7 unknown #
coedge $-1 $286 $182 $425 $428 forward $295 $-1 #
coedge $-1 $182 $286 $421 $429 reversed $295 $-1 #
loop $-1 $-1 $293 $406 #
vertex $-1 $183 $430 #
vertex $-1 $183 $431 #
straight-curve $-1 61.508224738303781 0 9.5822713107418558 0 1 0 I I #
face $-1 $432 $433 $43 $-1 $434 reversed single #
loop $-1 $-1 $435 $184 #
plane-surface $-1 -67.373164332739606 0 -9.0822713107418558 0 0 1 1 0 0 forward_v I I I I #
coedge $-1 $436 $187 $437 $438 reversed $117 $-1 #
coedge $-1 $187 $436 $308 $439 reversed $117 $-1 #
edge $-1 $310 5.7739356273279761 $440 9.0822713107418558 $187 $441 forward 7 unknown #
coedge $-1 $189 $188 $435 $442 forward $74 $-1 #
coedge $-1 $443 $444 $188 $307 forward $445 $-1 #
edge $-1 $446 -9.0822713107418558 $311 -5.7739356273279761 $306 $447 forward 7 unknown #
coedge $-1 $448 $190 $303 $439 forward $185 $-1 #
coedge $-1 $190 $448 $443 $449 forward $185 $-1 #
vertex $-1 $304 $450 #
vertex $-1 $449 $451 #
straight-curve $-1 -61.508224738303781 0 -5.7739356273279761 0 -1 0 I I #
face $-1 $-1 $326 $44 $-1 $452 reversed single #
loop $-1 $-1 $322 $192 #
plane-surface $-1 0 -40.146566768412633 0 0 1 0 0 0 1 forward_v I I I I #
coedge $-1 $453 $454 $318 $455 forward $193 $-1 #
coedge $-1 $318 $195 $197 $324 reversed $121 $-1 #
coedge $-1 $195 $317 $316 $455 reversed $121 $-1 #
coedge $-1 $456 $198 $195 $320 forward $326 $-1 #
edge $-1 $328 -82.889698116098685 $457 -74.760198988324021 $319 $458 forward 7 unknown #
coedge $-1 $197 $196 $453 $459 reversed $77 $-1 #
coedge $-1 $460 $461 $196 $323 forward $314 $-1 #
edge $-1 $462 66.48790644133193 $327 75.782802257811696 $322 $463 forward 7 unknown #
edge $-1 $464 113.72155366012777 $328 123.01644947660753 $317 $465 forward 7 unknown #
coedge $-1 $198 $456 $460 $466 forward $326 $-1 #
loop $-1 $-1 $319 $313 #
vertex $-1 $323 $467 #
vertex $-1 $199 $468 #
straight-curve $-1 61.508224738303781 -17.399699325805884 1.4527721829671876 0 1 0 I I #
coedge $-1 $330 $330 $-1 $469 reversed $202 $-1 #
edge $-1 $470 0 $470 6.2831853071796004 $203 $471 forward 7 unknown #
vertex $-1 $206 $472 #
ellipse-curve $-1 59.255097346725364 -37.091042130240709 5.5175217468545057 0.87461971476443456 0 0.48480960649040278 0.48480960649040278 0 -0.87461971476443456 1 I I #
coedge $-1 $334 $334 $-1 $473 reversed $209 $-1 #
edge $-1 $474 0 $474 6.2831853071796004 $210 $475 forward 7 unknown #
vertex $-1 $213 $476 #
ellipse-curve $-1 59.255097346725364 -32.507755172982826 5.5175217468545057 0.87461971476443456 0 0.48480960649040278 0.48480960649040278 0 -0.87461971476443456 1 I I #
face $-1 $-1 $477 $47 $-1 $478 forward single #
loop $-1 $-1 $220 $214 #
plane-surface $-1 61.508224738303781 0 0 -1 0 0 0 0 1 forward_v I I I I #
coedge $-1 $479 $480 $481 $482 reversed $215 $-1 #
coedge $-1 $483 $217 $219 $348 forward $135 $-1 #
coedge $-1 $217 $483 $479 $484 forward $135 $-1 #
coedge $-1 $481 $220 $217 $345 forward $339 $-1 #
edge $-1 $351 -11.147067892069494 $485 -0.45273165846776031 $344 $486 forward 7 unknown #
coedge $-1 $487 $488 $218 $347 forward $477 $-1 #
edge $-1 $489 2.2713298410133618 $350 6.7775846241702098 $346 $490 forward 7 unknown #
edge $-1 $351 -123.01644947660753 $489 -113.72155366012777 $219 $491 forward 7 unknown #
coedge $-1 $220 $481 $487 $492 reversed $339 $-1 #
vertex $-1 $492 $493 #
vertex $-1 $221 $494 #
straight-curve $-1 61.508224738303781 -16.946967667338122 84.34247029906588 0 0 -1 I I #
coedge $-1 $353 $353 $-1 $495 reversed $224 $-1 #
edge $-1 $496 0 $496 6.2831853071796004 $225 $497 forward 7 unknown #
vertex $-1 $228 $498 #
ellipse-curve $-1 59.255097346725364 -13.891443029166197 5.5175217468545057 0.87461971476443456 0 0.48480960649040278 0.48480960649040278 0 -0.87461971476443456 1 I I #
coedge $-1 $357 $357 $-1 $499 reversed $231 $-1 #
edge $-1 $500 0 $500 6.2831853071796004 $232 $501 forward 7 unknown #
vertex $-1 $235 $502 #
ellipse-curve $-1 59.255097346725364 -9.3081560719083107 5.5175217468545057 0.87461971476443456 0 0.48480960649040278 0.48480960649040278 0 -0.87461971476443456 1 I I #
face $-1 $-1 $503 $50 $-1 $504 forward single #
loop $-1 $-1 $242 $236 #
plane-surface $-1 61.508224738303781 0 0 -1 0 0 0 0 1 forward_v I I I I #
coedge $-1 $505 $506 $507 $508 reversed $237 $-1 #
coedge $-1 $509 $239 $241 $371 forward $149 $-1 #
coedge $-1 $239 $509 $505 $510 forward $149 $-1 #
coedge $-1 $507 $242 $239 $368 forward $362 $-1 #
edge $-1 $374 0.45273165846776031 $511 11.147067892069494 $367 $512 forward 7 unknown #
coedge $-1 $513 $514 $240 $370 forward $503 $-1 #
edge $-1 $515 2.2713298410133618 $373 6.7775846241702098 $369 $516 forward 7 unknown #
edge $-1 $374 -123.01644947660753 $515 -113.72155366012777 $241 $517 forward 7 unknown #
coedge $-1 $242 $507 $513 $518 reversed $362 $-1 #
vertex $-1 $518 $519 #
vertex $-1 $243 $520 #
straight-curve $-1 61.508224738303781 6.2526314337363882 84.34247029906588 0 0 -1 I I #
coedge $-1 $376 $376 $-1 $521 reversed $246 $-1 #
edge $-1 $522 0 $522 6.2831853071796004 $247 $523 forward 7 unknown #
vertex $-1 $250 $524 #
ellipse-curve $-1 59.255097346725364 9.3081560719083143 5.5175217468545057 0.87461971476443456 0 0.48480960649040278 0.48480960649040278 0 -0.87461971476443456 1 I I #
coedge $-1 $380 $380 $-1 $525 reversed $253 $-1 #
edge $-1 $526 0 $526 6.2831853071796004 $254 $527 forward 7 unknown #
vertex $-1 $257 $528 #
ellipse-curve $-1 59.255097346725364 13.891443029166204 5.5175217468545057 0.87461971476443456 0 0.48480960649040278 0.48480960649040278 0 -0.87461971476443456 1 I I #
face $-1 $-1 $529 $53 $-1 $530 reversed single #
loop $-1 $-1 $391 $258 #
plane-surface $-1 0 0 9.5822713107418558 0 0 1 1 0 0 forward_v I I I I #
coedge $-1 $531 $261 $263 $393 forward $163 $-1 #
coedge $-1 $261 $531 $532 $533 reversed $163 $-1 #
coedge $-1 $534 $264 $261 $390 forward $259 $-1 #
edge $-1 $396 12.052531209005021 $535 22.746867442606753 $389 $536 forward 7 unknown #
coedge $-1 $537 $538 $262 $392 forward $385 $-1 #
edge $-1 $539 2.2713298410133618 $395 6.7775846241702098 $391 $540 forward 7 unknown #
edge $-1 $396 -123.01644947660753 $539 -113.72155366012777 $263 $541 forward 7 unknown #
coedge $-1 $264 $534 $537 $542 reversed $259 $-1 #
vertex $-1 $542 $543 #
vertex $-1 $265 $544 #
straight-curve $-1 61.508224738303781 29.452230534810909 84.34247029906588 0 0 -1 I I #
coedge $-1 $398 $398 $-1 $545 reversed $268 $-1 #
edge $-1 $546 0 $546 6.2831853071796004 $269 $547 forward 7 unknown #
vertex $-1 $272 $548 #
ellipse-curve $-1 59.255097346725364 32.507755172982833 5.5175217468545057 0.87461971476443456 0 0.48480960649040278 0.48480960649040278 0 -0.87461971476443456 1 I I #
coedge $-1 $402 $402 $-1 $549 reversed $275 $-1 #
edge $-1 $550 0 $550 6.2831853071796004 $276 $551 forward 7 unknown #
vertex $-1 $279 $552 #
ellipse-curve $-1 59.255097346725364 37.091042130240716 5.5175217468545057 0.87461971476443456 0 0.48480960649040278 0.48480960649040278 0 -0.87461971476443456 1 I I #
face $-1 $-1 $295 $42 $-1 $553 reversed single #
loop $-1 $-1 $421 $280 #
plane-surface $-1 0 40.146566768412633 0 0 -1 0 0 0 -1 forward_v I I I I #
coedge $-1 $419 $554 $283 $411 reversed $281 $-1 #
coedge $-1 $425 $283 $284 $413 reversed $177 $-1 #
edge $-1 $426 -9.5822713107418558 $555 9.5822713107418558 $409 $556 forward 7 unknown #
coedge $-1 $285 $284 $554 $557 forward $113 $-1 #
edge $-1 $417 -61.508224738303781 $555 61.508224738303781 $410 $558 forward 7 unknown #
coedge $-1 $422 $421 $285 $415 reversed $407 $-1 #
edge $-1 $559 -61.508224738303781 $416 61.508224738303781 $414 $560 forward 7 unknown #
vertex $-1 $287 $561 #
vertex $-1 $428 $562 #
straight-curve $-1 61.508224738303781 0 -9.5822713107418558 0 -1 0 I I #
coedge $-1 $563 $409 $288 $420 reversed $281 $-1 #
edge $-1 $423 -40.146566768412633 $426 40.146566768412633 $419 $564 forward 7 unknown #
coedge $-1 $414 $289 $294 $429 forward $407 $-1 #
coedge $-1 $289 $414 $563 $565 reversed $407 $-1 #
vertex $-1 $290 $566 #
straight-curve $-1 0 40.146566768412633 9.5822713107418558 -1 0 0 I I #
coedge $-1 $291 $410 $293 $428 reversed $177 $-1 #
vertex $-1 $420 $567 #
straight-curve $-1 0 -40.146566768412633 9.5822713107418558 1 0 0 I I #
edge $-1 $296 -9.5822713107418558 $417 9.5822713107418558 $293 $568 forward 7 unknown #
edge $-1 $297 -9.5822713107418558 $416 9.5822713107418558 $294 $569 forward 7 unknown #
point $-1 61.508224738303781 -40.146566768412633 9.5822713107418558 #
point $-1 61.508224738303781 40.146566768412633 9.5822713107418558 #
face $-1 $-1 $445 $43 $-1 $570 reversed single #
loop $-1 $-1 $571 $299 #
plane-surface $-1 -73.238103927175416 0 -7.4281034690349159 1 0 0 0 0 -1 forward_v I I I I #
coedge $-1 $572 $437 $305 $442 reversed $300 $-1 #
coedge $-1 $303 $302 $571 $573 reversed $117 $-1 #
coedge $-1 $435 $574 $302 $438 forward $300 $-1 #
edge $-1 $575 -5.8649395944358105 $440 5.8649395944358176 $302 $576 forward 7 unknown #
edge $-1 $310 -5.8649395944358176 $577 5.8649395944358105 $303 $578 forward 7 unknown #
vertex $-1 $304 $579 #
straight-curve $-1 -61.508224738303781 40.146566768412633 0 0 0 -1 I I #
edge $-1 $446 -40.146566768412633 $440 40.146566768412633 $435 $580 forward 7 unknown #
coedge $-1 $581 $306 $309 $449 reversed $445 $-1 #
coedge $-1 $306 $581 $572 $582 reversed $445 $-1 #
loop $-1 $-1 $306 $432 #
vertex $-1 $307 $583 #
straight-curve $-1 -61.508224738303781 -40.146566768412633 0 0 0 1 I I #
coedge $-1 $309 $308 $584 $585 forward $185 $-1 #
edge $-1 $586 -5.8649395944358105 $311 5.8649395944358176 $443 $587 forward 7 unknown #
point $-1 -61.508224738303788 40.146566768412633 -5.7739356273279761 #
point $-1 -61.508224738303788 -40.146566768412633 -5.7739356273279761 #
plane-surface $-1 61.508224738303781 0 0 -1 0 0 0 0 1 forward_v I I I I #
coedge $-1 $588 $316 $321 $459 forward $193 $-1 #
coedge $-1 $316 $588 $456 $589 forward $193 $-1 #
edge $-1 $457 -6.7775846241702098 $464 -2.2713298410133618 $316 $590 forward 7 unknown #
coedge $-1 $325 $319 $454 $589 reversed $326 $-1 #
vertex $-1 $320 $591 #
straight-curve $-1 61.508224738303781 -29.452230534810901 84.34247029906588 0 0 1 I I #
edge $-1 $464 12.052531209005018 $462 22.746867442606749 $453 $592 forward 7 unknown #
coedge $-1 $461 $322 $325 $466 reversed $314 $-1 #
coedge $-1 $322 $460 $588 $593 reversed $314 $-1 #
vertex $-1 $593 $594 #
straight-curve $-1 24.767994196954092 -40.146566768412633 67.733905077743998 0.48480960649040278 0 -0.87461971476443456 I I #
vertex $-1 $459 $595 #
straight-curve $-1 1.8686682757031718 -29.452230534810901 109.04538413553114 0.48480960649040278 0 -0.87461971476443456 I I #
edge $-1 $596 -9.5822713107418558 $327 -1.4527721829671931 $325 $597 forward 7 unknown #
point $-1 61.508224738303781 -40.146566768412633 1.4527721829671931 #
point $-1 61.508224738303781 -29.452230534810901 1.4527721829671947 #
edge $-1 $598 1 $598 0 $330 $-1 forward 7 unknown #
vertex $-1 $331 $599 #
ellipse-curve $-1 56.303058955231265 -37.091042130240709 3.8811802069084509 0.87461971476443456 0 0.48480960649040278 0.48480960649040278 0 -0.87461971476443456 1 I I #
point $-1 59.739906953215772 -37.091042130240709 4.6429020320900776 #
edge $-1 $600 1 $600 0 $334 $-1 forward 7 unknown #
vertex $-1 $335 $601 #
ellipse-curve $-1 56.303058955231265 -32.507755172982826 3.8811802069084509 0.87461971476443456 0 0.48480960649040278 0.48480960649040278 0 -0.87461971476443456 1 I I #
point $-1 59.739906953215772 -32.507755172982826 4.6429020320900776 #
loop $-1 $-1 $346 $338 #
plane-surface $-1 0 0 9.5822713107418558 0 0 1 1 0 0 forward_v I I I I #
coedge $-1 $480 $341 $343 $484 reversed $215 $-1 #
coedge $-1 $341 $479 $602 $603 reversed $215 $-1 #
coedge $-1 $349 $344 $341 $482 forward $339 $-1 #
edge $-1 $485 -82.889698116098685 $604 -74.760198988324021 $481 $605 forward 7 unknown #
coedge $-1 $343 $342 $488 $606 reversed $135 $-1 #
edge $-1 $607 113.72155366012777 $485 123.01644947660753 $479 $608 forward 7 unknown #
vertex $-1 $345 $609 #
straight-curve $-1 61.508224738303781 -5.7998997752686279 1.4527721829671876 0 1 0 I I #
coedge $-1 $602 $346 $349 $492 forward $477 $-1 #
coedge $-1 $346 $602 $483 $606 forward $477 $-1 #
vertex $-1 $347 $610 #
straight-curve $-1 54.730640114133571 -16.946967667338122 9.5822713107418593 1 0 0 I I #
straight-curve $-1 1.8686682757031718 -16.946967667338122 109.04538413553114 -0.48480960649040278 0 0.87461971476443456 I I #
edge $-1 $350 -16.946967667338122 $604 -6.2526314337363882 $349 $611 forward 7 unknown #
point $-1 61.508224738303781 -16.946967667338122 9.5822713107418558 #
point $-1 61.508224738303781 -16.946967667338122 1.4527721829671947 #
edge $-1 $612 1 $612 0 $353 $-1 forward 7 unknown #
vertex $-1 $354 $613 #
ellipse-curve $-1 56.303058955231265 -13.891443029166197 3.8811802069084509 0.87461971476443456 0 0.48480960649040278 0.48480960649040278 0 -0.87461971476443456 1 I I #
point $-1 59.739906953215772 -13.891443029166197 4.6429020320900776 #
edge $-1 $614 1 $614 0 $357 $-1 forward 7 unknown #
vertex $-1 $358 $615 #
ellipse-curve $-1 56.303058955231265 -9.3081560719083107 3.8811802069084509 0.87461971476443456 0 0.48480960649040278 0.48480960649040278 0 -0.87461971476443456 1 I I #
point $-1 59.739906953215772 -9.3081560719083107 4.6429020320900776 #
loop $-1 $-1 $369 $361 #
plane-surface $-1 0 0 9.5822713107418558 0 0 1 1 0 0 forward_v I I I I #
coedge $-1 $506 $364 $366 $510 reversed $237 $-1 #
coedge $-1 $364 $505 $616 $617 reversed $237 $-1 #
coedge $-1 $372 $367 $364 $508 forward $362 $-1 #
edge $-1 $511 -82.889698116098685 $618 -74.760198988324021 $507 $619 forward 7 unknown #
coedge $-1 $366 $365 $514 $620 reversed $149 $-1 #
edge $-1 $621 113.72155366012777 $511 123.01644947660753 $505 $622 forward 7 unknown #
vertex $-1 $368 $623 #
straight-curve $-1 61.508224738303781 5.7998997752686279 1.4527721829671876 0 1 0 I I #
coedge $-1 $616 $369 $372 $518 forward $503 $-1 #
coedge $-1 $369 $616 $509 $620 forward $503 $-1 #
vertex $-1 $370 $624 #
straight-curve $-1 54.730640114133571 6.2526314337363882 9.5822713107418593 1 0 0 I I #
straight-curve $-1 1.8686682757031718 6.2526314337363882 109.04538413553114 -0.48480960649040278 0 0.87461971476443456 I I #
edge $-1 $373 6.2526314337363882 $618 16.946967667338122 $372 $625 forward 7 unknown #
point $-1 61.508224738303781 6.2526314337363882 9.5822713107418558 #
point $-1 61.508224738303781 6.2526314337363882 1.4527721829671947 #
edge $-1 $626 1 $626 0 $376 $-1 forward 7 unknown #
vertex $-1 $377 $627 #
ellipse-curve $-1 56.303058955231265 9.3081560719083143 3.8811802069084509 0.87461971476443456 0 0.48480960649040278 0.48480960649040278 0 -0.87461971476443456 1 I I #
point $-1 59.739906953215772 9.3081560719083143 4.6429020320900776 #
edge $-1 $628 1 $628 0 $380 $-1 forward 7 unknown #
vertex $-1 $381 $629 #
ellipse-curve $-1 56.303058955231265 13.891443029166204 3.8811802069084509 0.87461971476443456 0 0.48480960649040278 0.48480960649040278 0 -0.87461971476443456 1 I I #
point $-1 59.739906953215772 13.891443029166204 4.6429020320900776 #
loop $-1 $-1 $532 $384 #
plane-surface $-1 0 40.146566768412633 0 0 -1 0 0 0 -1 forward_v I I I I #
coedge $-1 $388 $387 $538 $630 reversed $163 $-1 #
coedge $-1 $631 $632 $388 $533 forward $529 $-1 #
edge $-1 $535 -75.782802257811696 $633 -66.48790644133193 $532 $634 forward 7 unknown #
coedge $-1 $394 $389 $632 $635 reversed $259 $-1 #
vertex $-1 $533 $636 #
straight-curve $-1 61.508224738303781 17.399699325805887 1.4527721829671876 0 1 0 I I #
coedge $-1 $637 $391 $394 $542 forward $385 $-1 #
coedge $-1 $391 $637 $531 $630 forward $385 $-1 #
vertex $-1 $392 $638 #
straight-curve $-1 54.730640114133571 29.452230534810909 9.5822713107418593 1 0 0 I I #
straight-curve $-1 1.8686682757031718 29.452230534810909 109.04538413553114 -0.48480960649040278 0 0.87461971476443456 I I #
edge $-1 $395 29.452230534810909 $639 40.146566768412633 $394 $640 forward 7 unknown #
point $-1 61.508224738303781 29.452230534810909 9.5822713107418558 #
point $-1 61.508224738303781 29.452230534810909 1.4527721829671947 #
edge $-1 $641 1 $641 0 $398 $-1 forward 7 unknown #
vertex $-1 $399 $642 #
ellipse-curve $-1 56.303058955231265 32.507755172982833 3.8811802069084509 0.87461971476443456 0 0.48480960649040278 0.48480960649040278 0 -0.87461971476443456 1 I I #
point $-1 59.739906953215772 32.507755172982833 4.6429020320900776 #
edge $-1 $643 1 $643 0 $402 $-1 forward 7 unknown #
vertex $-1 $403 $644 #
ellipse-curve $-1 56.303058955231265 37.091042130240716 3.8811802069084509 0.87461971476443456 0 0.48480960649040278 0.48480960649040278 0 -0.87461971476443456 1 I I #
point $-1 59.739906953215772 37.091042130240716 4.6429020320900776 #
plane-surface $-1 61.508224738303781 0 0 -1 0 0 0 0 1 forward_v I I I I #
coedge $-1 $409 $563 $412 $557 reversed $281 $-1 #
vertex $-1 $557 $645 #
straight-curve $-1 -61.508224738303781 -40.146566768412633 0 0 0 -1 I I #
edge $-1 $555 -40.146566768412633 $559 40.146566768412633 $554 $646 forward 7 unknown #
straight-curve $-1 0 -40.146566768412633 -9.5822713107418558 -1 0 0 I I #
vertex $-1 $415 $647 #
straight-curve $-1 0 40.146566768412633 -9.5822713107418558 1 0 0 I I #
point $-1 61.508224738303781 40.146566768412633 -9.5822713107418558 #
point $-1 61.508224738303781 -40.146566768412633 -9.5822713107418558 #
coedge $-1 $554 $419 $422 $565 forward $281 $-1 #
straight-curve $-1 -61.508224738303781 0 9.5822713107418558 0 -1 0 I I #
edge $-1 $423 -9.5822713107418558 $559 9.5822713107418558 $422 $648 forward 7 unknown #
point $-1 -61.508224738303781 40.146566768412633 9.5822713107418558 #
point $-1 -61.508224738303781 -40.146566768412633 9.5822713107418558 #
straight-curve $-1 61.508224738303781 -40.146566768412633 0 0 0 -1 I I #
straight-curve $-1 61.508224738303781 40.146566768412633 0 0 0 -1 I I #
plane-surface $-1 0 -40.146566768412633 0 0 1 0 0 0 1 forward_v I I I I #
coedge $-1 $649 $584 $436 $573 forward $433 $-1 #
coedge $-1 $574 $435 $444 $582 forward $300 $-1 #
edge $-1 $577 -1.6541678417069399 $575 1.6541678417069399 $436 $650 forward 7 unknown #
coedge $-1 $437 $572 $649 $651 forward $300 $-1 #
vertex $-1 $438 $652 #
straight-curve $-1 -67.373164332739606 40.146566768412633 -9.0822713107418558 1 0 0 I I #
vertex $-1 $439 $653 #
straight-curve $-1 -67.373164332739606 40.146566768412633 -5.7739356273279761 -1 0 0 I I #
point $-1 -61.508224738303788 40.146566768412633 -9.0822713107418558 #
straight-curve $-1 -61.508224738303781 0 -9.0822713107418558 0 1 0 I I #
coedge $-1 $444 $443 $654 $655 forward $445 $-1 #
edge $-1 $446 -5.8649395944358176 $656 5.8649395944358105 $444 $657 forward 7 unknown #
point $-1 -61.508224738303788 -40.146566768412633 -9.0822713107418558 #
coedge $-1 $571 $654 $448 $585 reversed $433 $-1 #
edge $-1 $577 -40.146566768412633 $586 40.146566768412633 $584 $658 forward 7 unknown #
vertex $-1 $585 $659 #
straight-curve $-1 -67.373164332739606 -40.146566768412633 -5.7739356273279761 1 0 0 I I #
coedge $-1 $454 $453 $461 $593 forward $193 $-1 #
edge $-1 $596 -40.146566768412633 $457 -29.452230534810901 $456 $660 forward 7 unknown #
straight-curve $-1 54.730640114133571 -29.452230534810901 9.5822713107418593 -1 0 0 I I #
point $-1 61.508224738303781 -29.452230534810901 9.5822713107418558 #
straight-curve $-1 57.001969955146933 -17.399699325805884 9.5822713107418664 0 -1 0 I I #
edge $-1 $462 57.001969955146933 $596 61.508224738303781 $461 $661 forward 7 unknown #
point $-1 57.001969955146933 -40.146566768412633 9.5822713107418593 #
point $-1 57.001969955146933 -29.452230534810901 9.5822713107418593 #
vertex $-1 $589 $662 #
straight-curve $-1 61.508224738303781 -40.146566768412633 0 0 0 -1 I I #
vertex $-1 $469 $663 #
point $-1 56.787868561721666 -37.091042130240709 3.0065604921440161 #
vertex $-1 $473 $664 #
point $-1 56.787868561721666 -32.507755172982826 3.0065604921440161 #
coedge $-1 $488 $487 $480 $603 forward $477 $-1 #
edge $-1 $604 -6.7775846241702098 $607 -2.2713298410133618 $602 $665 forward 7 unknown #
vertex $-1 $603 $666 #
straight-curve $-1 61.508224738303781 -6.2526314337363882 84.34247029906588 0 0 1 I I #
edge $-1 $607 0.45273165846776031 $489 11.147067892069494 $488 $667 forward 7 unknown #
vertex $-1 $606 $668 #
straight-curve $-1 1.8686682757031718 -6.2526314337363882 109.04538413553114 0.48480960649040278 0 -0.87461971476443456 I I #
point $-1 61.508224738303781 -6.2526314337363882 1.4527721829671947 #
point $-1 57.001969955146933 -16.946967667338122 9.5822713107418593 #
straight-curve $-1 61.508224738303781 0 9.5822713107418558 0 1 0 I I #
vertex $-1 $495 $669 #
point $-1 56.787868561721666 -13.891443029166197 3.0065604921440161 #
vertex $-1 $499 $670 #
point $-1 56.787868561721666 -9.3081560719083107 3.0065604921440161 #
coedge $-1 $514 $513 $506 $617 forward $503 $-1 #
edge $-1 $618 -6.7775846241702098 $621 -2.2713298410133618 $616 $671 forward 7 unknown #
vertex $-1 $617 $672 #
straight-curve $-1 61.508224738303781 16.946967667338122 84.34247029906588 0 0 1 I I #
edge $-1 $621 -11.147067892069494 $515 -0.45273165846776031 $514 $673 forward 7 unknown #
vertex $-1 $620 $674 #
straight-curve $-1 1.8686682757031718 16.946967667338122 109.04538413553114 0.48480960649040278 0 -0.87461971476443456 I I #
point $-1 61.508224738303781 16.946967667338122 1.4527721829671947 #
point $-1 57.001969955146933 6.2526314337363882 9.5822713107418593 #
straight-curve $-1 61.508224738303781 0 9.5822713107418558 0 1 0 I I #
vertex $-1 $521 $675 #
point $-1 56.787868561721666 9.3081560719083143 3.0065604921440161 #
vertex $-1 $525 $676 #
point $-1 56.787868561721666 13.891443029166204 3.0065604921440161 #
edge $-1 $633 -22.746867442606753 $539 -12.052531209005021 $538 $677 forward 7 unknown #
coedge $-1 $632 $532 $637 $678 reversed $529 $-1 #
coedge $-1 $532 $631 $534 $635 forward $529 $-1 #
vertex $-1 $533 $679 #
straight-curve $-1 24.767994196954092 40.146566768412633 67.733905077743998 -0.48480960649040278 0 0.87461971476443456 I I #
edge $-1 $639 -9.5822713107418558 $535 -1.4527721829671947 $534 $680 forward 7 unknown #
point $-1 61.508224738303781 40.14656676841264 1.4527721829671947 #
coedge $-1 $538 $537 $631 $678 forward $385 $-1 #
point $-1 57.001969955146933 29.452230534810909 9.5822713107418593 #
vertex $-1 $542 $681 #
straight-curve $-1 61.508224738303781 0 9.5822713107418558 0 1 0 I I #
vertex $-1 $545 $682 #
point $-1 56.787868561721666 32.507755172982833 3.0065604921440161 #
vertex $-1 $549 $683 #
point $-1 56.787868561721666 37.091042130240716 3.0065604921440161 #
point $-1 -61.508224738303781 -40.146566768412633 -9.5822713107418558 #
straight-curve $-1 -61.508224738303781 0 -9.5822713107418558 0 1 0 I I #
point $-1 -61.508224738303781 40.146566768412633 -9.5822713107418558 #
straight-curve $-1 -61.508224738303781 40.146566768412633 0 0 0 -1 I I #
coedge $-1 $654 $571 $574 $651 reversed $433 $-1 #
straight-curve $-1 -73.238103927175416 40.146566768412633 -7.4281034690349159 0 0 -1 I I #
edge $-1 $656 -40.146566768412633 $575 40.146566768412633 $649 $684 forward 7 unknown #
point $-1 -73.238103927175416 40.146566768412633 -9.0822713107418558 #
point $-1 -73.238103927175416 40.146566768412633 -5.7739356273279761 #
coedge $-1 $584 $649 $581 $655 reversed $433 $-1 #
edge $-1 $586 -1.6541678417069399 $656 1.6541678417069399 $654 $685 forward 7 unknown #
vertex $-1 $651 $686 #
straight-curve $-1 -67.373164332739606 -40.146566768412633 -9.0822713107418558 -1 0 0 I I #
straight-curve $-1 -73.238103927175416 0 -5.7739356273279761 0 -1 0 I I #
point $-1 -73.238103927175416 -40.146566768412633 -5.7739356273279761 #
straight-curve $-1 61.508224738303781 0 9.5822713107418558 0 1 0 I I #
straight-curve $-1 0 -40.146566768412633 9.5822713107418558 1 0 0 I I #
point $-1 61.508224738303781 -40.146566768412633 9.5822713107418558 #
point $-1 55.42843924046683 -37.091042130240709 3.3963706004180478 #
point $-1 55.42843924046683 -32.507755172982826 3.3963706004180478 #
straight-curve $-1 54.730640114133571 -6.2526314337363882 9.5822713107418593 -1 0 0 I I #
point $-1 61.508224738303781 -6.2526314337363882 9.5822713107418558 #
straight-curve $-1 57.001969955146933 -5.7998997752686279 9.5822713107418664 0 -1 0 I I #
point $-1 57.001969955146933 -6.2526314337363882 9.5822713107418593 #
point $-1 55.42843924046683 -13.891443029166197 3.3963706004180478 #
point $-1 55.42843924046683 -9.3081560719083107 3.3963706004180478 #
straight-curve $-1 54.730640114133571 16.946967667338122 9.5822713107418593 -1 0 0 I I #
point $-1 61.508224738303781 16.946967667338122 9.5822713107418558 #
straight-curve $-1 57.001969955146933 5.7998997752686279 9.5822713107418664 0 -1 0 I I #
point $-1 57.001969955146933 16.946967667338122 9.5822713107418593 #
point $-1 55.42843924046683 9.3081560719083143 3.3963706004180478 #
point $-1 55.42843924046683 13.891443029166204 3.3963706004180478 #
straight-curve $-1 57.001969955146933 17.399699325805887 9.5822713107418664 0 -1 0 I I #
edge $-1 $639 -61.508224738303781 $633 -57.001969955146933 $631 $687 forward 7 unknown #
point $-1 57.001969955146933 40.14656676841264 9.5822713107418593 #
straight-curve $-1 61.508224738303781 40.146566768412633 0 0 0 -1 I I #
point $-1 61.508224738303781 40.146566768412633 9.5822713107418558 #
point $-1 55.42843924046683 32.507755172982833 3.3963706004180478 #
point $-1 55.42843924046683 37.091042130240716 3.3963706004180478 #
straight-curve $-1 -73.238103927175416 0 -9.0822713107418558 0 1 0 I I #
straight-curve $-1 -73.238103927175416 -40.146566768412633 -7.4281034690349159 0 0 -1 I I #
point $-1 -73.238103927175416 -40.146566768412633 -9.0822713107418558 #
straight-curve $-1 0 40.146566768412633 9.5822713107418558 -1 0 0 I I #
End-of-ACIS-data 