500 0 9 0           
7 Unknown 11 ACIS 5.0 NT 24 Thu Mar 25 18:07:55 1999 
-1 9.9999999999999995e-007 1e-010 
body $-1 $9 $-1 $10 #
body $-1 $11 $-1 $12 #
body $-1 $13 $-1 $14 #
body $-1 $15 $-1 $16 #
body $-1 $17 $-1 $18 #
body $-1 $19 $-1 $20 #
body $-1 $21 $-1 $22 #
body $-1 $23 $-1 $24 #
body $-1 $25 $-1 $26 #
lump $-1 $-1 $27 $0 #
transform $-1 1 0 0 0 1 0 0 0 1 42.81136509292886 22.913036649913387 6.7832154520957006 1 rotate no_reflect no_shear #
lump $-1 $-1 $28 $1 #
transform $-1 1 0 0 0 1 0 0 0 1 42.81136509292886 22.913036649913387 6.7832154520957006 1 rotate no_reflect no_shear #
lump $-1 $-1 $29 $2 #
transform $-1 1 0 0 0 1 0 0 0 1 42.81136509292886 22.913036649913387 6.7832154520957006 1 rotate no_reflect no_shear #
lump $-1 $-1 $30 $3 #
transform $-1 1 0 0 0 1 0 0 0 1 42.81136509292886 22.913036649913387 6.7832154520957006 1 rotate no_reflect no_shear #
lump $-1 $-1 $31 $4 #
transform $-1 1 0 0 0 1 0 0 0 1 42.81136509292886 22.913036649913387 6.7832154520957006 1 rotate no_reflect no_shear #
lump $-1 $-1 $32 $5 #
transform $-1 1 0 0 0 1 0 0 0 1 42.81136509292886 22.913036649913387 6.7832154520957006 1 rotate no_reflect no_shear #
lump $-1 $-1 $33 $6 #
transform $-1 1 0 0 0 1 0 0 0 1 42.81136509292886 22.913036649913387 6.7832154520957006 1 rotate no_reflect no_shear #
lump $-1 $-1 $34 $7 #
transform $-1 1 0 0 0 1 0 0 0 1 42.81136509292886 22.913036649913387 6.7832154520957006 1 rotate no_reflect no_shear #
lump $-1 $-1 $35 $8 #
transform $-1 1 0 0 0 1 0 0 0 1 42.81136509292886 22.913036649913387 6.7832154520957006 1 rotate no_reflect no_shear #
shell $-1 $-1 $-1 $36 $-1 $9 #
shell $-1 $-1 $-1 $37 $-1 $11 #
shell $-1 $-1 $-1 $38 $-1 $13 #
shell $-1 $-1 $-1 $39 $-1 $15 #
shell $-1 $-1 $-1 $40 $-1 $17 #
shell $-1 $-1 $-1 $41 $-1 $19 #
shell $-1 $-1 $-1 $42 $-1 $21 #
shell $-1 $-1 $-1 $43 $-1 $23 #
shell $-1 $-1 $-1 $44 $-1 $25 #
face $-1 $45 $46 $27 $-1 $47 forward single #
face $-1 $48 $49 $28 $-1 $50 reversed single #
face $-1 $51 $52 $29 $-1 $53 forward single #
face $-1 $54 $55 $30 $-1 $56 reversed single #
face $-1 $57 $58 $31 $-1 $59 forward single #
face $-1 $60 $61 $32 $-1 $62 reversed single #
face $-1 $63 $64 $33 $-1 $65 forward single #
face $-1 $66 $67 $34 $-1 $68 reversed single #
face $-1 $69 $70 $35 $-1 $71 forward single #
face $-1 $72 $73 $27 $-1 $74 reversed single #
loop $-1 $-1 $75 $36 #
plane-surface $-1 0 0 6.7832154520957006 0 0 1 1 0 0 forward_v I I I I #
face $-1 $76 $77 $28 $-1 $78 reversed single #
loop $-1 $-1 $79 $37 #
plane-surface $-1 -38.625872535622122 0 3.624146131069339 0 0 1 1 0 0 forward_v I I I I #
face $-1 $80 $81 $29 $-1 $82 forward single #
loop $-1 $-1 $83 $38 #
plane-surface $-1 42.81136509292886 0 0 -1 0 0 0 0 1 forward_v I I I I #
face $-1 $84 $85 $30 $-1 $86 reversed single #
loop $-1 $-1 $87 $39 #
plane-surface $-1 28.686773460414152 44.501226332727519 95.80611725573587 1 0 0 0 -0.6560590369687036 -0.75470957328743171 forward_v I I I I #
face $-1 $88 $89 $31 $-1 $90 forward single #
loop $-1 $91 $92 $40 #
cone-surface $-1 33.199913848456113 18.559080086131306 2.6899583191073142 0 -0.6560590369687036 -0.75470957328743171 1 0 0 1 I I 0 1 1 forward I I I I #
face $-1 $93 $94 $32 $-1 $95 reversed single #
loop $-1 $-1 $96 $41 #
plane-surface $-1 -26.167738926955117 -67.012003360001216 75.551724192268367 -1 0 0 0 -0.51503808176128008 0.85716729658548041 forward_v I I I I #
face $-1 $97 $98 $33 $-1 $99 forward single #
loop $-1 $100 $101 $42 #
cone-surface $-1 -30.304059452635251 -18.300607395907335 3.1991205548459458 0 0.51503808176128008 -0.85716729658548041 2 0 0 1 I I 0 1 2 forward I I I I #
face $-1 $102 $103 $34 $-1 $104 reversed single #
loop $-1 $-1 $105 $43 #
plane-surface $-1 37.713054236498074 -67.012003360001216 75.551724192268367 -1 0 0 0 -0.51503808176128008 0.85716729658548041 forward_v I I I I #
face $-1 $106 $107 $35 $-1 $108 forward single #
loop $-1 $109 $110 $44 #
cone-surface $-1 33.57673371081794 -18.300607395907335 3.1991205548459458 0 0.51503808176128008 -0.85716729658548041 2 0 0 1 I I 0 1 2 forward I I I I #
face $-1 $111 $112 $27 $-1 $113 reversed single #
loop $-1 $-1 $114 $45 #
plane-surface $-1 0 0 -6.7832154520957006 0 0 1 1 0 0 forward_v I I I I #
coedge $-1 $115 $116 $117 $118 forward $46 $-1 #
face $-1 $119 $120 $28 $-1 $121 reversed single #
loop $-1 $-1 $122 $48 #
plane-surface $-1 -34.440379978315384 0 5.2036807915825198 -1 0 0 0 0 1 forward_v I I I I #
coedge $-1 $123 $124 $125 $126 forward $49 $-1 #
face $-1 $127 $128 $29 $-1 $129 reversed single #
loop $-1 $-1 $130 $51 #
plane-surface $-1 0 0 6.7832154520957006 0 0 1 1 0 0 forward_v I I I I #
coedge $-1 $131 $132 $133 $134 forward $52 $-1 #
face $-1 $135 $136 $30 $-1 $137 reversed single #
loop $-1 $-1 $138 $54 #
plane-surface $-1 33.199913848456113 -11.672339575637452 31.185823093462275 0 0.6560590369687036 0.75470957328743171 1 0 0 forward_v I I I I #
coedge $-1 $139 $140 $141 $142 reversed $55 $-1 #
face $-1 $-1 $143 $31 $-1 $144 forward single #
loop $-1 $145 $146 $57 #
cone-surface $-1 33.199913848456113 17.133787974092591 1.0503473373627008 0 -0.6560590369687036 -0.75470957328743171 0.5 0 0 1 I I -0.70710678118654746 0.70710678118654746 0.5 forward I I I I #
loop $-1 $-1 $147 $40 #
coedge $-1 $92 $92 $148 $149 reversed $58 $-1 #
face $-1 $150 $151 $32 $-1 $152 forward single #
loop $-1 $-1 $153 $60 #
plane-surface $-1 -30.304059452635251 -22.913036649913408 2.1587200325887039 0 -0.51503808176128008 0.85716729658548041 1 0 0 forward_v I I I I #
coedge $-1 $154 $155 $156 $157 reversed $61 $-1 #
face $-1 $-1 $158 $33 $-1 $159 forward single #
loop $-1 $160 $161 $63 #
cone-surface $-1 -30.304059452635251 -17.021366411922731 1.0701060707642203 0 0.51503808176128008 -0.85716729658548041 1 0 0 1 I I -0.70710678118654746 0.70710678118654746 1 forward I I I I #
loop $-1 $-1 $162 $42 #
coedge $-1 $101 $101 $163 $164 reversed $64 $-1 #
face $-1 $165 $166 $34 $-1 $167 reversed single #
loop $-1 $-1 $168 $66 #
plane-surface $-1 33.57673371081794 -22.913036649913408 2.1587200325887039 0 -0.51503808176128008 0.85716729658548041 1 0 0 forward_v I I I I #
coedge $-1 $169 $170 $171 $172 reversed $67 $-1 #
face $-1 $-1 $173 $35 $-1 $174 forward single #
loop $-1 $175 $176 $69 #
cone-surface $-1 33.57673371081794 -17.021366411922731 1.0701060707642203 0 0.51503808176128008 -0.85716729658548041 1 0 0 1 I I -0.70710678118654746 0.70710678118654746 1 forward I I I I #
loop $-1 $-1 $177 $44 #
coedge $-1 $110 $110 $178 $179 reversed $70 $-1 #
face $-1 $180 $181 $27 $-1 $182 reversed single #
loop $-1 $-1 $183 $72 #
plane-surface $-1 0 -22.913036649913387 0 0 1 0 0 0 1 forward_v I I I I #
coedge $-1 $184 $185 $186 $187 forward $73 $-1 #
coedge $-1 $188 $75 $189 $190 forward $46 $-1 #
coedge $-1 $75 $188 $191 $192 forward $46 $-1 #
coedge $-1 $193 $194 $75 $118 reversed $195 $-1 #
edge $-1 $196 -22.913036649913387 $197 22.913036649913387 $117 $198 forward 7 unknown #
face $-1 $199 $200 $28 $-1 $201 reversed single #
loop $-1 $-1 $202 $76 #
plane-surface $-1 0 22.913036649913387 0 0 -1 0 0 0 -1 forward_v I I I I #
coedge $-1 $125 $203 $204 $205 reversed $77 $-1 #
coedge $-1 $206 $79 $207 $208 reversed $49 $-1 #
coedge $-1 $79 $206 $209 $210 reversed $49 $-1 #
coedge $-1 $211 $122 $79 $126 reversed $77 $-1 #
edge $-1 $212 -22.913036649913387 $213 22.913036649913387 $125 $214 forward 7 unknown #
face $-1 $215 $216 $29 $-1 $217 reversed single #
loop $-1 $-1 $218 $80 #
plane-surface $-1 0 -22.913036649913387 0 0 1 0 0 0 1 forward_v I I I I #
coedge $-1 $219 $220 $221 $222 forward $81 $-1 #
coedge $-1 $221 $83 $218 $223 reversed $52 $-1 #
coedge $-1 $83 $221 $224 $225 reversed $52 $-1 #
coedge $-1 $226 $227 $83 $134 reversed $216 $-1 #
edge $-1 $228 -22.913036649913387 $229 22.913036649913387 $133 $230 forward 7 unknown #
face $-1 $231 $232 $30 $-1 $233 reversed single #
loop $-1 $-1 $234 $84 #
plane-surface $-1 37.713054236498074 44.501226332727519 95.80611725573587 -1 0 0 0 0.6560590369687036 0.75470957328743171 forward_v I I I I #
coedge $-1 $235 $236 $237 $238 reversed $85 $-1 #
coedge $-1 $140 $87 $239 $240 reversed $55 $-1 #
coedge $-1 $87 $139 $235 $241 reversed $55 $-1 #
coedge $-1 $237 $242 $87 $142 forward $243 $-1 #
edge $-1 $244 -0.66242348354962743 $245 5.850964456905853 $141 $246 forward 7 unknown #
loop $-1 $-1 $148 $88 #
plane-surface $-1 33.199913848456113 -11.672339575637452 31.185823093462275 0 0.6560590369687036 0.75470957328743171 1 0 0 forward_v I I I I #
loop $-1 $-1 $247 $57 #
coedge $-1 $146 $146 $147 $248 reversed $89 $-1 #
coedge $-1 $147 $147 $146 $248 forward $91 $-1 #
coedge $-1 $148 $148 $92 $149 forward $143 $-1 #
edge $-1 $249 1.2288164407760324e-015 $249 6.2831853071796013 $148 $250 forward 7 unknown #
face $-1 $251 $252 $32 $-1 $253 forward single #
loop $-1 $-1 $156 $93 #
plane-surface $-1 0 0 6.7832154520957006 0 0 1 1 0 0 forward_v I I I I #
coedge $-1 $254 $255 $256 $257 reversed $94 $-1 #
coedge $-1 $155 $96 $258 $259 reversed $61 $-1 #
coedge $-1 $96 $154 $254 $260 reversed $61 $-1 #
coedge $-1 $256 $261 $96 $157 forward $151 $-1 #
edge $-1 $262 10.592965030087221 $263 18.289417733652616 $156 $264 forward 7 unknown #
loop $-1 $-1 $163 $97 #
plane-surface $-1 -30.304059452635251 -22.913036649913408 2.1587200325887039 0 -0.51503808176128008 0.85716729658548041 1 0 0 forward_v I I I I #
loop $-1 $-1 $265 $63 #
coedge $-1 $161 $161 $162 $266 reversed $98 $-1 #
coedge $-1 $162 $162 $161 $266 forward $100 $-1 #
coedge $-1 $163 $163 $101 $164 forward $158 $-1 #
edge $-1 $267 -7.7114568396240041e-016 $267 6.2831853071795996 $163 $268 forward 7 unknown #
face $-1 $269 $270 $34 $-1 $271 reversed single #
loop $-1 $-1 $272 $102 #
plane-surface $-1 29.440413185137807 -67.012003360001216 75.551724192268367 1 0 0 0 0.51503808176128008 -0.85716729658548041 forward_v I I I I #
coedge $-1 $273 $274 $275 $276 reversed $103 $-1 #
coedge $-1 $170 $105 $277 $278 reversed $67 $-1 #
coedge $-1 $105 $169 $273 $279 reversed $67 $-1 #
coedge $-1 $275 $280 $105 $172 forward $281 $-1 #
edge $-1 $282 10.592965030087221 $283 18.289417733652616 $171 $284 forward 7 unknown #
loop $-1 $-1 $178 $106 #
plane-surface $-1 33.57673371081794 -22.913036649913408 2.1587200325887039 0 -0.51503808176128008 0.85716729658548041 1 0 0 forward_v I I I I #
loop $-1 $-1 $285 $69 #
coedge $-1 $176 $176 $177 $286 reversed $107 $-1 #
coedge $-1 $177 $177 $176 $286 forward $109 $-1 #
coedge $-1 $178 $178 $110 $179 forward $173 $-1 #
edge $-1 $287 -7.7114568396240041e-016 $287 6.2831853071795996 $178 $288 forward 7 unknown #
face $-1 $289 $290 $27 $-1 $291 reversed single #
loop $-1 $-1 $292 $111 #
plane-surface $-1 -42.81136509292886 0 0 1 0 0 0 0 -1 forward_v I I I I #
coedge $-1 $293 $191 $294 $295 forward $112 $-1 #
coedge $-1 $296 $114 $293 $297 forward $73 $-1 #
coedge $-1 $114 $296 $298 $299 forward $73 $-1 #
coedge $-1 $194 $193 $114 $187 reversed $195 $-1 #
edge $-1 $300 -22.913036649913387 $301 22.913036649913387 $186 $302 forward 7 unknown #
coedge $-1 $116 $115 $303 $304 forward $46 $-1 #
coedge $-1 $305 $306 $115 $190 reversed $290 $-1 #
edge $-1 $197 -42.81136509292886 $307 42.81136509292886 $189 $308 forward 7 unknown #
coedge $-1 $183 $309 $116 $192 reversed $112 $-1 #
edge $-1 $310 -42.81136509292886 $196 42.81136509292886 $191 $311 forward 7 unknown #
coedge $-1 $186 $117 $309 $312 forward $195 $-1 #
coedge $-1 $117 $186 $305 $313 reversed $195 $-1 #
loop $-1 $-1 $193 $289 #
vertex $-1 $118 $314 #
vertex $-1 $118 $315 #
straight-curve $-1 42.81136509292886 0 6.7832154520957006 0 1 0 I I #
face $-1 $316 $317 $28 $-1 $318 forward single #
loop $-1 $-1 $319 $119 #
plane-surface $-1 -42.81136509292886 0 0 1 0 0 0 0 -1 forward_v I I I I #
coedge $-1 $209 $320 $211 $321 forward $120 $-1 #
coedge $-1 $122 $211 $322 $323 reversed $77 $-1 #
coedge $-1 $324 $207 $122 $205 forward $325 $-1 #
edge $-1 $213 1.0223057352780791 $326 4.1813750563044412 $204 $327 forward 7 unknown #
coedge $-1 $124 $123 $319 $328 reversed $49 $-1 #
coedge $-1 $204 $329 $123 $208 forward $325 $-1 #
edge $-1 $330 -23.498428825117799 $213 -15.127443710504323 $207 $331 forward 7 unknown #
coedge $-1 $332 $202 $124 $210 forward $120 $-1 #
edge $-1 $212 15.127443710504323 $333 23.498428825117799 $209 $334 forward 7 unknown #
coedge $-1 $203 $125 $202 $321 reversed $77 $-1 #
vertex $-1 $210 $335 #
vertex $-1 $208 $336 #
straight-curve $-1 -34.440379978315384 0 3.624146131069339 0 -1 0 I I #
face $-1 $337 $338 $29 $-1 $339 reversed single #
loop $-1 $-1 $340 $127 #
plane-surface $-1 45.360520521144259 0 3.5028361467885665 0 0 1 1 0 0 forward_v I I I I #
coedge $-1 $341 $342 $131 $223 forward $128 $-1 #
coedge $-1 $343 $130 $342 $344 forward $81 $-1 #
coedge $-1 $130 $343 $345 $346 forward $81 $-1 #
coedge $-1 $132 $131 $130 $222 reversed $52 $-1 #
edge $-1 $347 -22.913036649913387 $348 22.913036649913387 $130 $349 forward 7 unknown #
edge $-1 $348 -6.7832154520957006 $229 -3.5028361467885665 $218 $350 forward 7 unknown #
coedge $-1 $345 $351 $132 $225 forward $352 $-1 #
edge $-1 $228 3.5028361467885665 $347 6.7832154520957006 $224 $353 forward 7 unknown #
coedge $-1 $340 $133 $351 $354 forward $216 $-1 #
coedge $-1 $133 $340 $341 $355 forward $216 $-1 #
vertex $-1 $225 $356 #
vertex $-1 $223 $357 #
straight-curve $-1 42.81136509292886 0 3.5028361467885665 0 -1 0 I I #
face $-1 $-1 $243 $30 $-1 $358 forward single #
loop $-1 $-1 $359 $135 #
plane-surface $-1 0 22.913036649913387 0 0 -1 0 0 0 -1 forward_v I I I I #
coedge $-1 $360 $361 $362 $363 reversed $136 $-1 #
coedge $-1 $364 $138 $140 $241 forward $85 $-1 #
coedge $-1 $138 $364 $360 $365 forward $85 $-1 #
coedge $-1 $362 $141 $138 $238 forward $243 $-1 #
edge $-1 $245 12.086816536186095 $366 21.113097312270018 $237 $367 forward 7 unknown #
coedge $-1 $368 $369 $139 $240 forward $232 $-1 #
edge $-1 $370 -46.781845051547236 $244 -41.119843175772232 $239 $371 forward 7 unknown #
edge $-1 $245 37.195749568694183 $370 45.826073299826788 $140 $372 forward 7 unknown #
coedge $-1 $141 $362 $368 $373 forward $243 $-1 #
loop $-1 $-1 $362 $231 #
vertex $-1 $240 $374 #
vertex $-1 $142 $375 #
straight-curve $-1 28.686773460414152 22.25061316636376 6.7832154520957033 0 -1 0 I I #
coedge $-1 $247 $247 $-1 $376 reversed $145 $-1 #
edge $-1 $377 0 $377 6.2831853071796004 $146 $378 forward 7 unknown #
vertex $-1 $149 $379 #
ellipse-curve $-1 33.199913848456113 19.65634267968565 3.9522145142081895 0 0.6560590369687036 0.75470957328743171 1 0 0 1 I I #
face $-1 $-1 $380 $32 $-1 $381 reversed single #
loop $-1 $-1 $382 $150 #
plane-surface $-1 -34.440379978315384 0 5.2036807915825198 -1 0 0 0 0 1 forward_v I I I I #
coedge $-1 $383 $153 $155 $260 forward $94 $-1 #
coedge $-1 $153 $383 $382 $384 forward $94 $-1 #
coedge $-1 $385 $156 $153 $257 forward $151 $-1 #
edge $-1 $263 11.015709200637492 $386 19.288350251997759 $256 $387 forward 7 unknown #
coedge $-1 $388 $389 $154 $259 forward $380 $-1 #
edge $-1 $390 -35.617142063545465 $262 -30.99264664403848 $258 $391 forward 7 unknown #
edge $-1 $263 -8.9789388071898895 $390 -2.49045826659878e-014 $155 $392 forward 7 unknown #
coedge $-1 $156 $385 $388 $393 forward $151 $-1 #
vertex $-1 $259 $394 #
vertex $-1 $157 $395 #
straight-curve $-1 -26.167738926955117 -33.506001680000608 6.7832154520957033 0 1 0 I I #
coedge $-1 $265 $265 $-1 $396 reversed $160 $-1 #
edge $-1 $397 0 $397 6.2831853071796004 $161 $398 forward 7 unknown #
vertex $-1 $164 $399 #
ellipse-curve $-1 -30.304059452635251 -19.064810298130674 4.4709677423422178 0 -0.51503808176128008 0.85716729658548041 2 0 0 1 I I #
face $-1 $-1 $281 $34 $-1 $400 forward single #
loop $-1 $-1 $401 $165 #
plane-surface $-1 0 -22.913036649913387 0 0 1 0 0 0 1 forward_v I I I I #
coedge $-1 $402 $403 $404 $405 reversed $166 $-1 #
coedge $-1 $406 $168 $170 $279 forward $103 $-1 #
coedge $-1 $168 $406 $402 $407 forward $103 $-1 #
coedge $-1 $404 $171 $168 $276 forward $281 $-1 #
edge $-1 $283 -20.924687381089104 $408 -12.652046329728837 $275 $409 forward 7 unknown #
coedge $-1 $410 $411 $169 $278 forward $270 $-1 #
edge $-1 $412 -35.617142063545465 $282 -30.99264664403848 $277 $413 forward 7 unknown #
edge $-1 $283 -8.9789388071898895 $412 -2.49045826659878e-014 $170 $414 forward 7 unknown #
coedge $-1 $171 $404 $410 $415 forward $281 $-1 #
loop $-1 $-1 $404 $269 #
vertex $-1 $278 $416 #
vertex $-1 $172 $417 #
straight-curve $-1 37.713054236498074 -33.506001680000608 6.7832154520957033 0 1 0 I I #
coedge $-1 $285 $285 $-1 $418 reversed $175 $-1 #
edge $-1 $419 0 $419 6.2831853071796004 $176 $420 forward 7 unknown #
vertex $-1 $179 $421 #
ellipse-curve $-1 33.57673371081794 -19.064810298130674 4.4709677423422178 0 -0.51503808176128008 0.85716729658548041 2 0 0 1 I I #
face $-1 $-1 $195 $27 $-1 $422 reversed single #
loop $-1 $-1 $305 $180 #
plane-surface $-1 0 22.913036649913387 0 0 -1 0 0 0 -1 forward_v I I I I #
coedge $-1 $423 $303 $306 $424 forward $181 $-1 #
coedge $-1 $309 $183 $184 $297 reversed $112 $-1 #
coedge $-1 $303 $423 $183 $295 reversed $181 $-1 #
edge $-1 $310 -6.7832154520957006 $425 6.7832154520957006 $294 $426 forward 7 unknown #
coedge $-1 $185 $184 $423 $427 forward $73 $-1 #
edge $-1 $301 -42.81136509292886 $425 42.81136509292886 $293 $428 forward 7 unknown #
coedge $-1 $306 $305 $185 $299 reversed $290 $-1 #
edge $-1 $429 -42.81136509292886 $300 42.81136509292886 $298 $430 forward 7 unknown #
vertex $-1 $187 $431 #
vertex $-1 $312 $432 #
straight-curve $-1 42.81136509292886 0 -6.7832154520957006 0 -1 0 I I #
coedge $-1 $292 $294 $188 $304 reversed $181 $-1 #
edge $-1 $307 -22.913036649913387 $310 22.913036649913387 $303 $433 forward 7 unknown #
coedge $-1 $298 $189 $194 $313 forward $290 $-1 #
coedge $-1 $189 $298 $292 $424 reversed $290 $-1 #
vertex $-1 $190 $434 #
straight-curve $-1 0 22.913036649913387 6.7832154520957006 -1 0 0 I I #
coedge $-1 $191 $293 $193 $312 reversed $112 $-1 #
vertex $-1 $304 $435 #
straight-curve $-1 0 -22.913036649913387 6.7832154520957006 1 0 0 I I #
edge $-1 $196 -6.7832154520957006 $301 6.7832154520957006 $193 $436 forward 7 unknown #
edge $-1 $197 -6.7832154520957006 $300 6.7832154520957006 $194 $437 forward 7 unknown #
point $-1 42.81136509292886 -22.913036649913387 6.7832154520957006 #
point $-1 42.81136509292886 22.913036649913387 6.7832154520957006 #
face $-1 $-1 $325 $28 $-1 $438 reversed single #
loop $-1 $-1 $322 $199 #
plane-surface $-1 0 0 6.7832154520957006 0 0 1 1 0 0 forward_v I I I I #
coedge $-1 $439 $440 $206 $328 forward $200 $-1 #
coedge $-1 $202 $332 $441 $442 reversed $120 $-1 #
edge $-1 $443 -4.1813750563044412 $212 -1.0223057352780791 $202 $444 forward 7 unknown #
coedge $-1 $441 $445 $203 $323 forward $317 $-1 #
edge $-1 $326 -22.913036649913387 $443 22.913036649913387 $322 $446 forward 7 unknown #
coedge $-1 $329 $204 $445 $447 reversed $325 $-1 #
loop $-1 $-1 $204 $316 #
vertex $-1 $205 $448 #
straight-curve $-1 -34.440379978315384 -22.913036649913387 2.6018403957912599 0 0 1 I I #
edge $-1 $333 -22.913036649913387 $330 22.913036649913387 $319 $449 forward 7 unknown #
coedge $-1 $207 $324 $439 $450 forward $325 $-1 #
vertex $-1 $328 $451 #
straight-curve $-1 -19.312936267811061 -22.913036649913387 3.624146131069339 1 0 0 I I #
coedge $-1 $320 $209 $440 $452 reversed $120 $-1 #
vertex $-1 $328 $453 #
straight-curve $-1 -19.312936267811061 22.913036649913387 3.624146131069339 -1 0 0 I I #
point $-1 -34.440379978315384 22.913036649913387 3.624146131069339 #
point $-1 -34.440379978315384 -22.913036649913387 3.624146131069339 #
face $-1 $-1 $352 $29 $-1 $454 reversed single #
loop $-1 $-1 $455 $215 #
plane-surface $-1 47.909675949359652 0 5.1430257994421344 -1 0 0 0 0 1 forward_v I I I I #
coedge $-1 $227 $226 $456 $457 forward $216 $-1 #
coedge $-1 $458 $218 $227 $355 reversed $128 $-1 #
coedge $-1 $218 $458 $219 $344 reversed $128 $-1 #
coedge $-1 $220 $219 $459 $460 forward $81 $-1 #
edge $-1 $348 -2.5491554282153999 $461 2.5491554282153928 $342 $462 forward 7 unknown #
coedge $-1 $463 $224 $220 $346 reversed $352 $-1 #
edge $-1 $464 -47.909675949359652 $347 -42.81136509292886 $345 $465 forward 7 unknown #
vertex $-1 $225 $466 #
vertex $-1 $344 $467 #
straight-curve $-1 42.81136509292886 0 6.7832154520957006 0 -1 0 I I #
straight-curve $-1 42.81136509292886 -22.913036649913387 0 0 0 -1 I I #
coedge $-1 $224 $463 $226 $354 reversed $352 $-1 #
loop $-1 $-1 $224 $337 #
straight-curve $-1 42.81136509292886 22.913036649913387 0 0 0 1 I I #
edge $-1 $228 -2.5491554282153928 $468 2.5491554282153928 $351 $469 forward 7 unknown #
edge $-1 $470 -2.5491554282153928 $229 2.5491554282153928 $341 $471 forward 7 unknown #
point $-1 42.811365092928867 22.913036649913387 3.5028361467885665 #
point $-1 42.811365092928867 -22.913036649913387 3.5028361467885665 #
plane-surface $-1 0 0 6.7832154520957006 0 0 1 1 0 0 forward_v I I I I #
coedge $-1 $369 $368 $361 $472 forward $232 $-1 #
coedge $-1 $361 $234 $236 $365 reversed $136 $-1 #
coedge $-1 $234 $360 $359 $472 reversed $136 $-1 #
coedge $-1 $242 $237 $234 $363 forward $243 $-1 #
edge $-1 $366 -5.850964456905853 $473 0.66242348354962743 $362 $474 forward 7 unknown #
coedge $-1 $236 $235 $369 $475 reversed $85 $-1 #
edge $-1 $476 -45.826073299826788 $366 -37.195749568694183 $360 $477 forward 7 unknown #
vertex $-1 $238 $478 #
straight-curve $-1 16.599956924228056 16.399648709457907 6.7832154520957033 1 0 0 I I #
coedge $-1 $359 $239 $242 $373 reversed $232 $-1 #
coedge $-1 $239 $359 $364 $475 forward $232 $-1 #
vertex $-1 $240 $479 #
straight-curve $-1 28.686773460414152 22.913036649913387 47.903058627867935 0 0 1 I I #
straight-curve $-1 28.686773460414152 -11.672339575637452 31.185823093462275 0 0.75470957328743171 -0.6560590369687036 I I #
edge $-1 $473 -37.713054236498074 $244 -28.686773460414152 $368 $480 forward 7 unknown #
point $-1 28.686773460414152 22.913036649913387 6.7832154520957006 #
point $-1 28.686773460414152 16.399648709457907 6.7832154520956962 #
edge $-1 $481 1 $481 0 $247 $-1 forward 7 unknown #
vertex $-1 $248 $482 #
ellipse-curve $-1 33.199913848456113 17.461817492576944 1.4277021240064167 0 0.6560590369687036 0.75470957328743171 1 0 0 1 I I #
point $-1 34.199913848456113 19.656342679685672 3.9522145142082121 #
loop $-1 $-1 $258 $251 #
plane-surface $-1 0 -22.913036649913387 0 0 1 0 0 0 1 forward_v I I I I #
coedge $-1 $483 $484 $255 $384 reversed $252 $-1 #
coedge $-1 $255 $254 $389 $485 reversed $94 $-1 #
edge $-1 $486 2.49045826659878e-014 $386 8.9789388071898895 $382 $487 forward 7 unknown #
coedge $-1 $261 $256 $484 $488 forward $151 $-1 #
vertex $-1 $488 $489 #
straight-curve $-1 -15.152029726317625 -15.216583946347992 6.7832154520957006 -1 0 0 I I #
coedge $-1 $490 $258 $261 $393 reversed $380 $-1 #
coedge $-1 $258 $490 $383 $485 forward $380 $-1 #
vertex $-1 $259 $491 #
straight-curve $-1 -26.167738926955117 -22.913036649913387 37.775862096134183 0 0 1 I I #
straight-curve $-1 -26.167738926955117 -22.913036649913408 2.1587200325887039 0 -0.85716729658548041 -0.51503808176128008 I I #
edge $-1 $492 -79.800900499459644 $262 -71.528259448099377 $388 $493 forward 7 unknown #
point $-1 -26.167738926955117 -22.913036649913387 6.7832154520957024 #
point $-1 -26.167738926955117 -15.216583946347992 6.7832154520957006 #
edge $-1 $494 1 $494 0 $265 $-1 forward 7 unknown #
vertex $-1 $266 $495 #
ellipse-curve $-1 -30.304059452635251 -17.53640449368401 1.9272733673497007 0 -0.51503808176128008 0.85716729658548041 2 0 0 1 I I #
point $-1 -28.304059452635251 -19.064810298130659 4.4709677423421912 #
plane-surface $-1 0 0 6.7832154520957006 0 0 1 1 0 0 forward_v I I I I #
coedge $-1 $411 $410 $403 $496 forward $270 $-1 #
coedge $-1 $403 $272 $274 $407 reversed $166 $-1 #
coedge $-1 $272 $402 $401 $496 reversed $166 $-1 #
coedge $-1 $280 $275 $272 $405 forward $281 $-1 #
edge $-1 $408 -18.289417733652616 $497 -10.592965030087221 $404 $498 forward 7 unknown #
coedge $-1 $274 $273 $411 $499 reversed $103 $-1 #
edge $-1 $500 2.49045826659878e-014 $408 8.9789388071898895 $402 $501 forward 7 unknown #
vertex $-1 $276 $502 #
straight-curve $-1 16.78836685540897 -15.216583946347992 6.7832154520957006 -1 0 0 I I #
coedge $-1 $401 $277 $280 $415 reversed $270 $-1 #
coedge $-1 $277 $401 $406 $499 forward $270 $-1 #
vertex $-1 $278 $503 #
straight-curve $-1 37.713054236498074 -22.913036649913387 37.775862096134183 0 0 1 I I #
straight-curve $-1 37.713054236498074 -22.913036649913408 2.1587200325887039 0 -0.85716729658548041 -0.51503808176128008 I I #
edge $-1 $497 -15.920107336006453 $282 -7.6474662846461854 $410 $504 forward 7 unknown #
point $-1 37.713054236498074 -22.913036649913387 6.7832154520957024 #
point $-1 37.713054236498074 -15.216583946347992 6.7832154520957006 #
edge $-1 $505 1 $505 0 $285 $-1 forward 7 unknown #
vertex $-1 $286 $506 #
ellipse-curve $-1 33.57673371081794 -17.53640449368401 1.9272733673497007 0 -0.51503808176128008 0.85716729658548041 2 0 0 1 I I #
point $-1 35.57673371081794 -19.064810298130659 4.4709677423421912 #
plane-surface $-1 42.81136509292886 0 0 -1 0 0 0 0 1 forward_v I I I I #
coedge $-1 $294 $292 $296 $427 reversed $181 $-1 #
edge $-1 $307 -6.7832154520957006 $429 6.7832154520957006 $306 $507 forward 7 unknown #
vertex $-1 $427 $508 #
straight-curve $-1 -42.81136509292886 -22.913036649913387 0 0 0 -1 I I #
edge $-1 $425 -22.913036649913387 $429 22.913036649913387 $423 $509 forward 7 unknown #
straight-curve $-1 0 -22.913036649913387 -6.7832154520957006 -1 0 0 I I #
vertex $-1 $299 $510 #
straight-curve $-1 0 22.913036649913387 -6.7832154520957006 1 0 0 I I #
point $-1 42.81136509292886 22.913036649913387 -6.7832154520957006 #
point $-1 42.81136509292886 -22.913036649913387 -6.7832154520957006 #
straight-curve $-1 -42.81136509292886 0 6.7832154520957006 0 -1 0 I I #
point $-1 -42.81136509292886 22.913036649913387 6.7832154520957006 #
point $-1 -42.81136509292886 -22.913036649913387 6.7832154520957006 #
straight-curve $-1 42.81136509292886 -22.913036649913387 0 0 0 -1 I I #
straight-curve $-1 42.81136509292886 22.913036649913387 0 0 0 -1 I I #
plane-surface $-1 0 -22.913036649913387 0 0 1 0 0 0 1 forward_v I I I I #
coedge $-1 $511 $319 $329 $450 reversed $200 $-1 #
coedge $-1 $319 $511 $332 $452 forward $200 $-1 #
coedge $-1 $512 $322 $320 $442 forward $317 $-1 #
edge $-1 $443 34.440379978315384 $513 42.81136509292886 $320 $514 forward 7 unknown #
vertex $-1 $442 $515 #
straight-curve $-1 -34.440379978315384 22.913036649913387 2.6018403957912599 0 0 -1 I I #
coedge $-1 $322 $512 $324 $447 forward $317 $-1 #
straight-curve $-1 -34.440379978315384 0 6.7832154520957006 0 1 0 I I #
edge $-1 $516 -42.81136509292886 $326 -34.440379978315384 $324 $517 forward 7 unknown #
point $-1 -34.440379978315384 -22.913036649913387 6.7832154520957006 #
straight-curve $-1 -42.81136509292886 0 3.624146131069339 0 -1 0 I I #
edge $-1 $516 -6.7832154520957006 $330 -3.624146131069339 $439 $518 forward 7 unknown #
point $-1 -42.81136509292886 -22.913036649913387 3.624146131069339 #
edge $-1 $513 -6.7832154520957006 $333 -3.624146131069339 $332 $519 forward 7 unknown #
point $-1 -42.81136509292886 22.913036649913387 3.624146131069339 #
plane-surface $-1 0 22.913036649913387 0 0 -1 0 0 0 -1 forward_v I I I I #
coedge $-1 $456 $459 $458 $520 forward $338 $-1 #
coedge $-1 $521 $455 $340 $457 reversed $338 $-1 #
edge $-1 $468 -22.913036649913387 $470 22.913036649913387 $456 $522 forward 7 unknown #
coedge $-1 $342 $341 $455 $520 reversed $128 $-1 #
coedge $-1 $455 $521 $343 $460 reversed $338 $-1 #
edge $-1 $461 -22.913036649913387 $464 22.913036649913387 $459 $523 forward 7 unknown #
vertex $-1 $460 $524 #
straight-curve $-1 45.360520521144259 -22.913036649913387 6.7832154520957024 1 0 0 I I #
coedge $-1 $351 $345 $521 $525 forward $352 $-1 #
vertex $-1 $460 $526 #
straight-curve $-1 0 22.913036649913387 6.7832154520957006 -1 0 0 I I #
point $-1 42.81136509292886 22.913036649913387 6.7832154520957006 #
point $-1 42.81136509292886 -22.913036649913387 6.7832154520957006 #
vertex $-1 $457 $527 #
straight-curve $-1 45.360520521144259 22.913036649913387 3.5028361467885665 1 0 0 I I #
vertex $-1 $520 $528 #
straight-curve $-1 45.360520521144259 -22.913036649913387 3.5028361467885665 -1 0 0 I I #
edge $-1 $473 41.119843175772232 $476 46.781845051547236 $359 $529 forward 7 unknown #
vertex $-1 $373 $530 #
straight-curve $-1 37.713054236498074 22.25061316636376 6.7832154520957033 0 1 0 I I #
edge $-1 $476 -21.113097312270018 $370 -12.086816536186095 $369 $531 forward 7 unknown #
vertex $-1 $475 $532 #
straight-curve $-1 37.713054236498074 -11.672339575637452 31.185823093462275 0 -0.75470957328743171 0.6560590369687036 I I #
point $-1 37.713054236498074 16.399648709457907 6.7832154520956962 #
point $-1 28.686773460414152 22.913036649913387 1.1212135763206952 #
straight-curve $-1 0 22.913036649913387 6.7832154520957006 -1 0 0 I I #
vertex $-1 $376 $533 #
point $-1 34.199913848456113 17.461817492576944 1.4277021240064167 #
coedge $-1 $484 $382 $490 $534 reversed $252 $-1 #
coedge $-1 $382 $483 $385 $488 reversed $252 $-1 #
edge $-1 $486 -19.288350251997759 $390 -11.015709200637492 $389 $535 forward 7 unknown #
vertex $-1 $534 $536 #
straight-curve $-1 -34.440379978315384 -22.913036649913408 2.1587200325887039 0 0.85716729658548041 0.51503808176128008 I I #
edge $-1 $386 15.216583946347992 $492 22.913036649913387 $385 $537 forward 7 unknown #
point $-1 -34.440379978315384 -15.216583946347992 6.7832154520957006 #
coedge $-1 $389 $388 $483 $534 forward $380 $-1 #
point $-1 -26.167738926955117 -22.913036649913387 2.1587200325887168 #
vertex $-1 $393 $538 #
straight-curve $-1 45.360520521144259 -22.913036649913387 6.7832154520957024 1 0 0 I I #
vertex $-1 $396 $539 #
point $-1 -28.304059452635251 -17.53640449368401 1.9272733673497007 #
edge $-1 $497 30.99264664403848 $500 35.617142063545465 $401 $540 forward 7 unknown #
vertex $-1 $415 $541 #
straight-curve $-1 29.440413185137807 -33.506001680000608 6.7832154520957033 0 -1 0 I I #
edge $-1 $500 12.652046329728837 $412 20.924687381089104 $411 $542 forward 7 unknown #
vertex $-1 $499 $543 #
straight-curve $-1 29.440413185137807 -22.913036649913408 2.1587200325887039 0 0.85716729658548041 0.51503808176128008 I I #
point $-1 29.440413185137807 -15.216583946347992 6.7832154520957006 #
point $-1 37.713054236498074 -22.913036649913387 2.1587200325887168 #
straight-curve $-1 45.360520521144259 -22.913036649913387 6.7832154520957024 1 0 0 I I #
vertex $-1 $418 $544 #
point $-1 35.57673371081794 -17.53640449368401 1.9272733673497007 #
straight-curve $-1 -42.81136509292886 22.913036649913387 0 0 0 -1 I I #
point $-1 -42.81136509292886 -22.913036649913387 -6.7832154520957006 #
straight-curve $-1 -42.81136509292886 0 -6.7832154520957006 0 1 0 I I #
point $-1 -42.81136509292886 22.913036649913387 -6.7832154520957006 #
coedge $-1 $440 $439 $512 $545 reversed $200 $-1 #
coedge $-1 $445 $441 $511 $545 forward $317 $-1 #
vertex $-1 $442 $546 #
straight-curve $-1 0 22.913036649913387 6.7832154520957006 -1 0 0 I I #
point $-1 -34.440379978315384 22.913036649913387 6.7832154520957006 #
vertex $-1 $545 $547 #
straight-curve $-1 0 -22.913036649913387 6.7832154520957006 1 0 0 I I #
straight-curve $-1 -42.81136509292886 -22.913036649913387 0 0 0 -1 I I #
straight-curve $-1 -42.81136509292886 22.913036649913387 0 0 0 -1 I I #
edge $-1 $461 -1.640189652653568 $470 1.640189652653568 $455 $548 forward 7 unknown #
coedge $-1 $459 $456 $463 $525 reversed $338 $-1 #
straight-curve $-1 47.909675949359652 0 3.5028361467885665 0 -1 0 I I #
straight-curve $-1 47.909675949359652 0 6.7832154520957024 0 1 0 I I #
point $-1 47.909675949359652 -22.913036649913387 6.7832154520957024 #
edge $-1 $464 -1.640189652653568 $468 1.640189652653568 $521 $549 forward 7 unknown #
point $-1 47.909675949359652 22.913036649913387 6.7832154520957024 #
point $-1 47.909675949359652 22.913036649913387 3.5028361467885665 #
point $-1 47.909675949359652 -22.913036649913387 3.5028361467885665 #
straight-curve $-1 37.713054236498074 22.913036649913387 47.903058627867935 0 0 -1 I I #
point $-1 37.713054236498074 22.913036649913387 6.7832154520957006 #
straight-curve $-1 16.599956924228056 22.913036649913387 1.121213576320697 -1 0 0 I I #
point $-1 37.713054236498074 22.913036649913387 1.1212135763206952 #
point $-1 33.199913848456113 16.805758455608238 0.67299255071898489 #
edge $-1 $492 30.992646644038484 $486 35.617142063545465 $490 $550 forward 7 unknown #
straight-curve $-1 -15.152029726317625 -22.913036649913387 2.1587200325887159 1 0 0 I I #
point $-1 -34.440379978315384 -22.913036649913387 2.1587200325887168 #
straight-curve $-1 -34.440379978315384 0 6.7832154520957006 0 -1 0 I I #
point $-1 -34.440379978315384 -22.913036649913387 6.7832154520957006 #
point $-1 -30.304059452635251 -16.506328330161452 0.21293877417873985 #
straight-curve $-1 29.440413185137807 -22.913036649913387 37.775862096134183 0 0 -1 I I #
point $-1 29.440413185137807 -22.913036649913387 6.7832154520957024 #
straight-curve $-1 16.78836685540897 -22.913036649913387 2.1587200325887159 1 0 0 I I #
point $-1 29.440413185137807 -22.913036649913387 2.1587200325887168 #
point $-1 33.57673371081794 -16.506328330161452 0.21293877417873985 #
edge $-1 $513 -22.913036649913387 $516 22.913036649913387 $511 $551 forward 7 unknown #
point $-1 -42.81136509292886 22.913036649913387 6.7832154520957006 #
point $-1 -42.81136509292886 -22.913036649913387 6.7832154520957006 #
straight-curve $-1 47.909675949359652 -22.913036649913387 5.1430257994421344 0 0 -1 I I #
straight-curve $-1 47.909675949359652 22.913036649913387 5.1430257994421344 0 0 -1 I I #
straight-curve $-1 -34.440379978315384 -22.913036649913387 37.775862096134183 0 0 -1 I I #
straight-curve $-1 -42.81136509292886 0 6.7832154520957006 0 -1 0 I I #
End-of-ACIS-data 