500 0 9 0           
7 Unknown 11 ACIS 5.0 NT 24 Thu Mar 25 21:44:31 1999 
-1 9.9999999999999995e-007 1e-010 
body $-1 $9 $-1 $10 #
body $-1 $11 $-1 $12 #
body $-1 $13 $-1 $14 #
body $-1 $15 $-1 $16 #
body $-1 $17 $-1 $18 #
body $-1 $19 $-1 $20 #
body $-1 $21 $-1 $22 #
body $-1 $23 $-1 $24 #
body $-1 $25 $-1 $26 #
lump $-1 $-1 $27 $0 #
transform $-1 1 0 0 0 1 0 0 0 1 77.38151188695943 53.666878132949051 21.792680045820291 1 rotate no_reflect no_shear #
lump $-1 $-1 $28 $1 #
transform $-1 1 0 0 0 1 0 0 0 1 77.38151188695943 53.666878132949051 21.792680045820291 1 rotate no_reflect no_shear #
lump $-1 $-1 $29 $2 #
transform $-1 1 0 0 0 1 0 0 0 1 77.38151188695943 53.666878132949051 21.792680045820291 1 rotate no_reflect no_shear #
lump $-1 $-1 $30 $3 #
transform $-1 1 0 0 0 1 0 0 0 1 77.38151188695943 53.666878132949051 21.792680045820291 1 rotate no_reflect no_shear #
lump $-1 $-1 $31 $4 #
transform $-1 1 0 0 0 1 0 0 0 1 77.38151188695943 53.666878132949051 21.792680045820291 1 rotate no_reflect no_shear #
lump $-1 $-1 $32 $5 #
transform $-1 1 0 0 0 1 0 0 0 1 77.38151188695943 53.666878132949051 21.792680045820291 1 rotate no_reflect no_shear #
lump $-1 $-1 $33 $6 #
transform $-1 1 0 0 0 1 0 0 0 1 77.38151188695943 53.666878132949051 21.792680045820291 1 rotate no_reflect no_shear #
lump $-1 $-1 $34 $7 #
transform $-1 1 0 0 0 1 0 0 0 1 77.38151188695943 53.666878132949051 21.792680045820291 1 rotate no_reflect no_shear #
lump $-1 $-1 $35 $8 #
transform $-1 1 0 0 0 1 0 0 0 1 77.38151188695943 53.666878132949051 21.792680045820291 1 rotate no_reflect no_shear #
shell $-1 $-1 $-1 $36 $-1 $9 #
shell $-1 $-1 $-1 $37 $-1 $11 #
shell $-1 $-1 $-1 $38 $-1 $13 #
shell $-1 $-1 $-1 $39 $-1 $15 #
shell $-1 $-1 $-1 $40 $-1 $17 #
shell $-1 $-1 $-1 $41 $-1 $19 #
shell $-1 $-1 $-1 $42 $-1 $21 #
shell $-1 $-1 $-1 $43 $-1 $23 #
shell $-1 $-1 $-1 $44 $-1 $25 #
face $-1 $45 $46 $27 $-1 $47 forward single #
face $-1 $48 $49 $28 $-1 $50 reversed single #
face $-1 $51 $52 $29 $-1 $53 forward single #
face $-1 $54 $55 $30 $-1 $56 forward single #
face $-1 $57 $58 $31 $-1 $59 reversed single #
face $-1 $60 $61 $32 $-1 $62 forward single #
face $-1 $63 $64 $33 $-1 $65 forward single #
face $-1 $66 $67 $34 $-1 $68 reversed single #
face $-1 $69 $70 $35 $-1 $71 forward single #
face $-1 $72 $73 $27 $-1 $74 reversed single #
loop $-1 $-1 $75 $36 #
plane-surface $-1 0 0 21.792680045820291 0 0 1 1 0 0 forward_v I I I I #
face $-1 $76 $77 $28 $-1 $78 reversed single #
loop $-1 $-1 $79 $37 #
plane-surface $-1 -51.995921093580293 -183.462072417146 88.815090984906973 -1 0 0 0 -0.83867057594974714 0.54463902268945019 forward_v I I I I #
face $-1 $80 $81 $29 $-1 $82 forward single #
loop $-1 $83 $84 $38 #
cone-surface $-1 -67.708616468191479 -47.211917304347047 12.608122124564963 0 0.83867057594974714 -0.54463902268945019 2 0 0 1 I I 0 1 2 forward I I I I #
face $-1 $85 $86 $30 $-1 $87 forward single #
loop $-1 $88 $89 $39 #
cone-surface $-1 -58.280999243424766 -47.211917304347047 12.608122124564963 0 0.83867057594974714 -0.54463902268945019 2 0 0 1 I I 0 1 2 forward I I I I #
face $-1 $90 $91 $31 $-1 $92 reversed single #
loop $-1 $-1 $93 $40 #
plane-surface $-1 25.385590793379137 -183.462072417146 88.815090984906973 -1 0 0 0 -0.83867057594974714 0.54463902268945019 forward_v I I I I #
face $-1 $94 $95 $32 $-1 $96 forward single #
loop $-1 $97 $98 $41 #
cone-surface $-1 9.6728954187679506 -47.211917304347047 12.608122124564963 0 0.83867057594974714 -0.54463902268945019 2 0 0 1 I I 0 1 2 forward I I I I #
face $-1 $99 $100 $33 $-1 $101 forward single #
loop $-1 $102 $103 $42 #
cone-surface $-1 19.100512643534671 -47.211917304347047 12.608122124564963 0 0.83867057594974714 -0.54463902268945019 2 0 0 1 I I 0 1 2 forward I I I I #
face $-1 $104 $105 $34 $-1 $106 reversed single #
loop $-1 $-1 $107 $43 #
plane-surface $-1 42.857838680905402 115.7835979362055 189.46430389108434 1 0 0 0 -0.80901700255871778 -0.5877852410284794 forward_v I I I I #
face $-1 $108 $109 $35 $-1 $110 forward single #
loop $-1 $111 $112 $44 #
cone-surface $-1 52.576873446699722 46.765407662005956 14.386950625921383 0 -0.80901700255871778 -0.5877852410284794 3 0 0 1 I I 0 1 3 forward I I I I #
face $-1 $113 $114 $27 $-1 $115 reversed single #
loop $-1 $-1 $116 $45 #
plane-surface $-1 0 0 -21.792680045820291 0 0 1 1 0 0 forward_v I I I I #
coedge $-1 $117 $118 $119 $120 forward $46 $-1 #
face $-1 $121 $122 $28 $-1 $123 reversed single #
loop $-1 $-1 $124 $48 #
plane-surface $-1 -62.994807855808119 -53.666878132949051 4.5251089682156618 0 -0.83867057594974714 0.54463902268945019 1 0 0 forward_v I I I I #
coedge $-1 $125 $126 $127 $128 reversed $49 $-1 #
face $-1 $-1 $129 $29 $-1 $130 forward single #
loop $-1 $131 $132 $51 #
cone-surface $-1 -67.708616468191479 -45.525131606333311 11.512710719422508 0 0.83867057594974714 -0.54463902268945019 1 0 0 1 I I -0.70710678118654746 0.70710678118654746 1 forward I I I I #
loop $-1 $-1 $133 $38 #
coedge $-1 $84 $84 $134 $135 reversed $52 $-1 #
face $-1 $-1 $136 $30 $-1 $137 forward single #
loop $-1 $138 $139 $54 #
cone-surface $-1 -58.280999243424766 -45.525131606333311 11.512710719422508 0 0.83867057594974714 -0.54463902268945019 1 0 0 1 I I -0.70710678118654746 0.70710678118654746 1 forward I I I I #
loop $-1 $-1 $140 $39 #
coedge $-1 $89 $89 $141 $142 reversed $55 $-1 #
face $-1 $143 $144 $31 $-1 $145 reversed single #
loop $-1 $-1 $146 $57 #
plane-surface $-1 14.386704031151311 -53.666878132949051 4.5251089682156618 0 -0.83867057594974714 0.54463902268945019 1 0 0 forward_v I I I I #
coedge $-1 $147 $148 $149 $150 reversed $58 $-1 #
face $-1 $-1 $151 $32 $-1 $152 forward single #
loop $-1 $153 $154 $60 #
cone-surface $-1 9.6728954187679506 -45.525131606333311 11.512710719422508 0 0.83867057594974714 -0.54463902268945019 1 0 0 1 I I -0.70710678118654746 0.70710678118654746 1 forward I I I I #
loop $-1 $-1 $155 $41 #
coedge $-1 $98 $98 $156 $157 reversed $61 $-1 #
face $-1 $-1 $158 $33 $-1 $159 forward single #
loop $-1 $160 $161 $63 #
cone-surface $-1 19.100512643534671 -45.525131606333311 11.512710719422508 0 0.83867057594974714 -0.54463902268945019 1 0 0 1 I I -0.70710678118654746 0.70710678118654746 1 forward I I I I #
loop $-1 $-1 $162 $42 #
coedge $-1 $103 $103 $163 $164 reversed $64 $-1 #
face $-1 $165 $166 $34 $-1 $167 reversed single #
loop $-1 $-1 $168 $66 #
plane-surface $-1 52.576873446699693 -9.4223196642939229 98.496882659835151 0 0.80901700255871778 0.5877852410284794 1 0 0 forward_v I I I I #
coedge $-1 $169 $170 $171 $172 reversed $67 $-1 #
face $-1 $-1 $173 $35 $-1 $174 forward single #
loop $-1 $175 $176 $69 #
cone-surface $-1 52.576873446699722 42.330578763782185 11.164858921274757 0 -0.80901700255871778 -0.5877852410284794 1.5 0 0 1 I I -0.70710678118654757 0.70710678118654757 1.5 forward I I I I #
loop $-1 $-1 $177 $44 #
coedge $-1 $112 $112 $178 $179 reversed $70 $-1 #
face $-1 $180 $181 $27 $-1 $182 reversed single #
loop $-1 $-1 $183 $72 #
plane-surface $-1 0 -53.666878132949051 0 0 1 0 0 0 1 forward_v I I I I #
coedge $-1 $184 $185 $186 $187 forward $73 $-1 #
coedge $-1 $188 $75 $189 $190 forward $46 $-1 #
coedge $-1 $75 $188 $191 $192 forward $46 $-1 #
coedge $-1 $193 $194 $75 $120 reversed $195 $-1 #
edge $-1 $196 -53.666878132949051 $197 53.666878132949051 $119 $198 forward 7 unknown #
face $-1 $199 $200 $28 $-1 $201 reversed single #
loop $-1 $-1 $202 $76 #
plane-surface $-1 -73.993694618035946 -183.462072417146 88.815090984906973 1 0 0 0 0.83867057594974714 -0.54463902268945019 forward_v I I I I #
coedge $-1 $203 $204 $205 $206 reversed $77 $-1 #
coedge $-1 $126 $79 $207 $208 reversed $49 $-1 #
coedge $-1 $79 $125 $203 $209 reversed $49 $-1 #
coedge $-1 $205 $210 $79 $128 forward $211 $-1 #
edge $-1 $212 38.064158075623951 $213 49.277849488699971 $127 $214 forward 7 unknown #
loop $-1 $-1 $134 $80 #
plane-surface $-1 -62.994807855808119 -53.666878132949051 4.5251089682156618 0 -0.83867057594974714 0.54463902268945019 1 0 0 forward_v I I I I #
loop $-1 $-1 $215 $51 #
coedge $-1 $132 $132 $133 $216 reversed $81 $-1 #
coedge $-1 $133 $133 $132 $216 forward $83 $-1 #
coedge $-1 $134 $134 $84 $135 forward $129 $-1 #
edge $-1 $217 -1.4897782135920807e-015 $217 6.2831853071795987 $134 $218 forward 7 unknown #
loop $-1 $-1 $141 $85 #
plane-surface $-1 -62.994807855808119 -53.666878132949051 4.5251089682156618 0 -0.83867057594974714 0.54463902268945019 1 0 0 forward_v I I I I #
loop $-1 $-1 $219 $54 #
coedge $-1 $139 $139 $140 $220 reversed $86 $-1 #
coedge $-1 $140 $140 $139 $220 forward $88 $-1 #
coedge $-1 $141 $141 $89 $142 forward $136 $-1 #
edge $-1 $221 -1.4897782135920807e-015 $221 6.2831853071795987 $141 $222 forward 7 unknown #
face $-1 $223 $224 $31 $-1 $225 reversed single #
loop $-1 $-1 $226 $90 #
plane-surface $-1 3.3878172689234844 -183.462072417146 88.815090984906973 1 0 0 0 0.83867057594974714 -0.54463902268945019 forward_v I I I I #
coedge $-1 $227 $228 $229 $230 reversed $91 $-1 #
coedge $-1 $148 $93 $231 $232 reversed $58 $-1 #
coedge $-1 $93 $147 $227 $233 reversed $58 $-1 #
coedge $-1 $229 $234 $93 $150 forward $235 $-1 #
edge $-1 $236 38.064158075623951 $237 49.277849488699971 $149 $238 forward 7 unknown #
loop $-1 $-1 $156 $94 #
plane-surface $-1 14.386704031151311 -53.666878132949051 4.5251089682156618 0 -0.83867057594974714 0.54463902268945019 1 0 0 forward_v I I I I #
loop $-1 $-1 $239 $60 #
coedge $-1 $154 $154 $155 $240 reversed $95 $-1 #
coedge $-1 $155 $155 $154 $240 forward $97 $-1 #
coedge $-1 $156 $156 $98 $157 forward $151 $-1 #
edge $-1 $241 -1.4897782135920807e-015 $241 6.2831853071795987 $156 $242 forward 7 unknown #
loop $-1 $-1 $163 $99 #
plane-surface $-1 14.386704031151311 -53.666878132949051 4.5251089682156618 0 -0.83867057594974714 0.54463902268945019 1 0 0 forward_v I I I I #
loop $-1 $-1 $243 $63 #
coedge $-1 $161 $161 $162 $244 reversed $100 $-1 #
coedge $-1 $162 $162 $161 $244 forward $102 $-1 #
coedge $-1 $163 $163 $103 $164 forward $158 $-1 #
edge $-1 $245 -1.4897782135920807e-015 $245 6.2831853071795987 $163 $246 forward 7 unknown #
face $-1 $247 $248 $34 $-1 $249 reversed single #
loop $-1 $-1 $250 $104 #
plane-surface $-1 62.295908212493984 115.7835979362055 189.46430389108434 -1 0 0 0 0.80901700255871778 0.5877852410284794 forward_v I I I I #
coedge $-1 $251 $252 $253 $254 reversed $105 $-1 #
coedge $-1 $170 $107 $255 $256 reversed $67 $-1 #
coedge $-1 $107 $169 $251 $257 reversed $67 $-1 #
coedge $-1 $253 $258 $107 $172 forward $259 $-1 #
edge $-1 $260 4.2249208351536964 $261 11.585254988268538 $171 $262 forward 7 unknown #
loop $-1 $-1 $178 $108 #
plane-surface $-1 52.576873446699693 -9.4223196642939229 98.496882659835151 0 0.80901700255871778 0.5877852410284794 1 0 0 forward_v I I I I #
loop $-1 $-1 $263 $69 #
coedge $-1 $176 $176 $177 $264 reversed $109 $-1 #
coedge $-1 $177 $177 $176 $264 forward $111 $-1 #
coedge $-1 $178 $178 $112 $179 forward $173 $-1 #
edge $-1 $265 -5.2398207024907219e-016 $265 6.2831853071795996 $178 $266 forward 7 unknown #
face $-1 $267 $268 $27 $-1 $269 reversed single #
loop $-1 $-1 $270 $113 #
plane-surface $-1 -77.38151188695943 0 0 1 0 0 0 0 -1 forward_v I I I I #
coedge $-1 $271 $191 $272 $273 forward $114 $-1 #
coedge $-1 $274 $116 $271 $275 forward $73 $-1 #
coedge $-1 $116 $274 $276 $277 forward $73 $-1 #
coedge $-1 $194 $193 $116 $187 reversed $195 $-1 #
edge $-1 $278 -53.666878132949051 $279 53.666878132949051 $186 $280 forward 7 unknown #
coedge $-1 $118 $117 $281 $282 forward $46 $-1 #
coedge $-1 $283 $284 $117 $190 reversed $268 $-1 #
edge $-1 $197 -77.38151188695943 $285 77.38151188695943 $189 $286 forward 7 unknown #
coedge $-1 $183 $287 $118 $192 reversed $114 $-1 #
edge $-1 $288 -77.38151188695943 $196 77.38151188695943 $191 $289 forward 7 unknown #
coedge $-1 $186 $119 $287 $290 forward $195 $-1 #
coedge $-1 $119 $186 $283 $291 reversed $195 $-1 #
loop $-1 $-1 $193 $267 #
vertex $-1 $120 $292 #
vertex $-1 $120 $293 #
straight-curve $-1 77.38151188695943 0 21.792680045820291 0 1 0 I I #
face $-1 $-1 $211 $28 $-1 $294 forward single #
loop $-1 $-1 $295 $121 #
plane-surface $-1 0 -53.666878132949051 0 0 1 0 0 0 1 forward_v I I I I #
coedge $-1 $296 $297 $298 $299 reversed $122 $-1 #
coedge $-1 $300 $124 $126 $209 forward $77 $-1 #
coedge $-1 $124 $300 $296 $301 forward $77 $-1 #
coedge $-1 $298 $127 $124 $206 forward $211 $-1 #
edge $-1 $213 20.498517165676233 $302 42.496290690131886 $205 $303 forward 7 unknown #
coedge $-1 $304 $305 $125 $208 forward $200 $-1 #
edge $-1 $306 -39.882436524237825 $212 -22.614865446633196 $207 $307 forward 7 unknown #
edge $-1 $213 -20.589217712866674 $306 0 $126 $308 forward 7 unknown #
coedge $-1 $127 $298 $304 $309 forward $211 $-1 #
loop $-1 $-1 $298 $199 #
vertex $-1 $208 $310 #
vertex $-1 $128 $311 #
straight-curve $-1 -51.995921093580293 -91.731036208573002 21.792680045820291 0 1 0 I I #
coedge $-1 $215 $215 $-1 $312 reversed $131 $-1 #
edge $-1 $313 0 $313 6.2831853071796004 $132 $314 forward 7 unknown #
vertex $-1 $135 $315 #
ellipse-curve $-1 -67.708616468191479 -48.060032426411041 13.158894507017971 0 -0.83867057594974714 0.54463902268945019 2 0 0 1 I I #
coedge $-1 $219 $219 $-1 $316 reversed $138 $-1 #
edge $-1 $317 0 $317 6.2831853071796004 $139 $318 forward 7 unknown #
vertex $-1 $142 $319 #
ellipse-curve $-1 -58.280999243424766 -48.060032426411041 13.158894507017971 0 -0.83867057594974714 0.54463902268945019 2 0 0 1 I I #
face $-1 $-1 $235 $31 $-1 $320 forward single #
loop $-1 $-1 $321 $143 #
plane-surface $-1 0 -53.666878132949051 0 0 1 0 0 0 1 forward_v I I I I #
coedge $-1 $322 $323 $324 $325 reversed $144 $-1 #
coedge $-1 $326 $146 $148 $233 forward $91 $-1 #
coedge $-1 $146 $326 $322 $327 forward $91 $-1 #
coedge $-1 $324 $149 $146 $230 forward $235 $-1 #
edge $-1 $237 -18.192238777803482 $328 3.805534746652171 $229 $329 forward 7 unknown #
coedge $-1 $330 $331 $147 $232 forward $224 $-1 #
edge $-1 $332 -39.882436524237825 $236 -22.614865446633196 $231 $333 forward 7 unknown #
edge $-1 $237 -20.589217712866674 $332 0 $148 $334 forward 7 unknown #
coedge $-1 $149 $324 $330 $335 forward $235 $-1 #
loop $-1 $-1 $324 $223 #
vertex $-1 $232 $336 #
vertex $-1 $150 $337 #
straight-curve $-1 25.385590793379137 -91.731036208573002 21.792680045820291 0 1 0 I I #
coedge $-1 $239 $239 $-1 $338 reversed $153 $-1 #
edge $-1 $339 0 $339 6.2831853071796004 $154 $340 forward 7 unknown #
vertex $-1 $157 $341 #
ellipse-curve $-1 9.6728954187679506 -48.060032426411041 13.158894507017971 0 -0.83867057594974714 0.54463902268945019 2 0 0 1 I I #
coedge $-1 $243 $243 $-1 $342 reversed $160 $-1 #
edge $-1 $343 0 $343 6.2831853071796004 $161 $344 forward 7 unknown #
vertex $-1 $164 $345 #
ellipse-curve $-1 19.100512643534671 -48.060032426411041 13.158894507017971 0 -0.83867057594974714 0.54463902268945019 2 0 0 1 I I #
face $-1 $-1 $259 $34 $-1 $346 forward single #
loop $-1 $-1 $347 $165 #
plane-surface $-1 0 53.666878132949051 0 0 -1 0 0 0 -1 forward_v I I I I #
coedge $-1 $348 $349 $350 $351 reversed $166 $-1 #
coedge $-1 $352 $168 $170 $257 forward $105 $-1 #
coedge $-1 $168 $352 $348 $353 forward $105 $-1 #
coedge $-1 $350 $171 $168 $254 forward $259 $-1 #
edge $-1 $261 16.569401957555556 $354 36.007471489144137 $253 $355 forward 7 unknown #
coedge $-1 $356 $357 $169 $256 forward $248 $-1 #
edge $-1 $358 -83.070103053311897 $260 -72.93947189972188 $255 $359 forward 7 unknown #
edge $-1 $261 94.811607631753986 $358 107.3337562658981 $170 $360 forward 7 unknown #
coedge $-1 $171 $350 $356 $361 forward $259 $-1 #
loop $-1 $-1 $350 $247 #
vertex $-1 $256 $362 #
vertex $-1 $172 $363 #
straight-curve $-1 42.857838680905402 57.891798968102748 21.792680045820291 0 -1 0 I I #
coedge $-1 $263 $263 $-1 $364 reversed $175 $-1 #
edge $-1 $365 0 $365 6.2831853071796004 $176 $366 forward 7 unknown #
vertex $-1 $179 $367 #
ellipse-curve $-1 52.576873446699722 49.986711056391634 16.727364469025282 0 0.80901700255871778 0.5877852410284794 3 0 0 1 I I #
face $-1 $-1 $195 $27 $-1 $368 reversed single #
loop $-1 $-1 $283 $180 #
plane-surface $-1 0 53.666878132949051 0 0 -1 0 0 0 -1 forward_v I I I I #
coedge $-1 $369 $281 $284 $370 forward $181 $-1 #
coedge $-1 $287 $183 $184 $275 reversed $114 $-1 #
coedge $-1 $281 $369 $183 $273 reversed $181 $-1 #
edge $-1 $288 -21.792680045820291 $371 21.792680045820291 $272 $372 forward 7 unknown #
coedge $-1 $185 $184 $369 $373 forward $73 $-1 #
edge $-1 $279 -77.38151188695943 $371 77.38151188695943 $271 $374 forward 7 unknown #
coedge $-1 $284 $283 $185 $277 reversed $268 $-1 #
edge $-1 $375 -77.38151188695943 $278 77.38151188695943 $276 $376 forward 7 unknown #
vertex $-1 $187 $377 #
vertex $-1 $290 $378 #
straight-curve $-1 77.38151188695943 0 -21.792680045820291 0 -1 0 I I #
coedge $-1 $270 $272 $188 $282 reversed $181 $-1 #
edge $-1 $285 -53.666878132949051 $288 53.666878132949051 $281 $379 forward 7 unknown #
coedge $-1 $276 $189 $194 $291 forward $268 $-1 #
coedge $-1 $189 $276 $270 $370 reversed $268 $-1 #
vertex $-1 $190 $380 #
straight-curve $-1 0 53.666878132949051 21.792680045820291 -1 0 0 I I #
coedge $-1 $191 $271 $193 $290 reversed $114 $-1 #
vertex $-1 $282 $381 #
straight-curve $-1 0 -53.666878132949051 21.792680045820291 1 0 0 I I #
edge $-1 $196 -21.792680045820291 $279 21.792680045820291 $193 $382 forward 7 unknown #
edge $-1 $197 -21.792680045820291 $278 21.792680045820291 $194 $383 forward 7 unknown #
point $-1 77.38151188695943 -53.666878132949051 21.792680045820291 #
point $-1 77.38151188695943 53.666878132949051 21.792680045820291 #
plane-surface $-1 0 0 21.792680045820291 0 0 1 1 0 0 forward_v I I I I #
coedge $-1 $305 $304 $297 $384 forward $200 $-1 #
coedge $-1 $297 $202 $204 $301 reversed $122 $-1 #
coedge $-1 $202 $296 $295 $384 reversed $122 $-1 #
coedge $-1 $210 $205 $202 $299 forward $211 $-1 #
edge $-1 $302 -49.277849488699971 $385 -38.064158075623951 $298 $386 forward 7 unknown #
coedge $-1 $204 $203 $305 $387 reversed $77 $-1 #
edge $-1 $388 0 $302 20.589217712866674 $296 $389 forward 7 unknown #
vertex $-1 $206 $390 #
straight-curve $-1 -31.49740392790406 -42.453186719873031 21.792680045820291 -1 0 0 I I #
coedge $-1 $295 $207 $210 $309 reversed $200 $-1 #
coedge $-1 $207 $295 $300 $387 forward $200 $-1 #
vertex $-1 $208 $391 #
straight-curve $-1 -51.995921093580293 -53.666878132949051 44.407545492453487 0 0 1 I I #
straight-curve $-1 -51.995921093580293 -53.666878132949051 4.5251089682156618 0 -0.54463902268945019 -0.83867057594974714 I I #
edge $-1 $385 -73.993694618035946 $212 -51.995921093580293 $304 $392 forward 7 unknown #
point $-1 -51.995921093580293 -53.666878132949051 21.792680045820291 #
point $-1 -51.995921093580293 -42.453186719873031 21.792680045820291 #
edge $-1 $393 1 $393 0 $215 $-1 forward 7 unknown #
vertex $-1 $216 $394 #
ellipse-curve $-1 -67.708616468191479 -46.363802182283059 12.057349742111958 0 -0.83867057594974714 0.54463902268945019 2 0 0 1 I I #
point $-1 -65.708616468191479 -48.060032426411041 13.158894507017967 #
edge $-1 $395 1 $395 0 $219 $-1 forward 7 unknown #
vertex $-1 $220 $396 #
ellipse-curve $-1 -58.280999243424766 -46.363802182283059 12.057349742111958 0 -0.83867057594974714 0.54463902268945019 2 0 0 1 I I #
point $-1 -56.280999243424766 -48.060032426411041 13.158894507017967 #
plane-surface $-1 0 0 21.792680045820291 0 0 1 1 0 0 forward_v I I I I #
coedge $-1 $331 $330 $323 $397 forward $224 $-1 #
coedge $-1 $323 $226 $228 $327 reversed $144 $-1 #
coedge $-1 $226 $322 $321 $397 reversed $144 $-1 #
coedge $-1 $234 $229 $226 $325 forward $235 $-1 #
edge $-1 $328 -49.277849488699971 $398 -38.064158075623951 $324 $399 forward 7 unknown #
coedge $-1 $228 $227 $331 $400 reversed $91 $-1 #
edge $-1 $401 0 $328 20.589217712866674 $322 $402 forward 7 unknown #
vertex $-1 $230 $403 #
straight-curve $-1 7.1933520155756554 -42.453186719873031 21.792680045820291 -1 0 0 I I #
coedge $-1 $321 $231 $234 $335 reversed $224 $-1 #
coedge $-1 $231 $321 $326 $400 forward $224 $-1 #
vertex $-1 $232 $404 #
straight-curve $-1 25.385590793379137 -53.666878132949051 44.407545492453487 0 0 1 I I #
straight-curve $-1 25.385590793379137 -53.666878132949051 4.5251089682156618 0 -0.54463902268945019 -0.83867057594974714 I I #
edge $-1 $398 3.3878172689234844 $236 25.385590793379137 $330 $405 forward 7 unknown #
point $-1 25.385590793379137 -53.666878132949051 21.792680045820291 #
point $-1 25.385590793379137 -42.453186719873031 21.792680045820291 #
edge $-1 $406 1 $406 0 $239 $-1 forward 7 unknown #
vertex $-1 $240 $407 #
ellipse-curve $-1 9.6728954187679506 -46.363802182283059 12.057349742111958 0 -0.83867057594974714 0.54463902268945019 2 0 0 1 I I #
point $-1 11.672895418767951 -48.060032426411041 13.158894507017967 #
edge $-1 $408 1 $408 0 $243 $-1 forward 7 unknown #
vertex $-1 $244 $409 #
ellipse-curve $-1 19.100512643534671 -46.363802182283059 12.057349742111958 0 -0.83867057594974714 0.54463902268945019 2 0 0 1 I I #
point $-1 21.100512643534671 -48.060032426411041 13.158894507017967 #
plane-surface $-1 0 0 21.792680045820291 0 0 1 1 0 0 forward_v I I I I #
coedge $-1 $357 $356 $349 $410 forward $248 $-1 #
coedge $-1 $349 $250 $252 $353 reversed $166 $-1 #
coedge $-1 $250 $348 $347 $410 reversed $166 $-1 #
coedge $-1 $258 $253 $250 $351 forward $259 $-1 #
edge $-1 $354 -11.585254988268538 $411 -4.2249208351536964 $350 $412 forward 7 unknown #
coedge $-1 $252 $251 $357 $413 reversed $105 $-1 #
edge $-1 $414 -107.3337562658981 $354 -94.811607631753986 $348 $415 forward 7 unknown #
vertex $-1 $254 $416 #
straight-curve $-1 26.288436723349847 46.306543979834217 21.792680045820291 1 0 0 I I #
coedge $-1 $347 $255 $258 $361 reversed $248 $-1 #
coedge $-1 $255 $347 $352 $413 forward $248 $-1 #
vertex $-1 $256 $417 #
straight-curve $-1 42.857838680905402 53.666878132949051 94.732151945542171 0 0 1 I I #
straight-curve $-1 42.857838680905402 -9.4223196642939229 98.496882659835151 0 0.5877852410284794 -0.80901700255871778 I I #
edge $-1 $411 -62.295908212493984 $260 -42.857838680905402 $356 $418 forward 7 unknown #
point $-1 42.857838680905402 53.666878132949051 21.792680045820291 #
point $-1 42.857838680905402 46.30654397983421 21.792680045820291 #
edge $-1 $419 1 $419 0 $263 $-1 forward 7 unknown #
vertex $-1 $264 $420 #
ellipse-curve $-1 52.576873446699722 43.544104267620263 12.046536782817476 0 0.80901700255871778 0.5877852410284794 3 0 0 1 I I #
point $-1 55.576873446699722 49.986711056391641 16.727364469025289 #
plane-surface $-1 77.38151188695943 0 0 -1 0 0 0 0 1 forward_v I I I I #
coedge $-1 $272 $270 $274 $373 reversed $181 $-1 #
edge $-1 $285 -21.792680045820291 $375 21.792680045820291 $284 $421 forward 7 unknown #
vertex $-1 $373 $422 #
straight-curve $-1 -77.38151188695943 -53.666878132949051 0 0 0 -1 I I #
edge $-1 $371 -53.666878132949051 $375 53.666878132949051 $369 $423 forward 7 unknown #
straight-curve $-1 0 -53.666878132949051 -21.792680045820291 -1 0 0 I I #
vertex $-1 $277 $424 #
straight-curve $-1 0 53.666878132949051 -21.792680045820291 1 0 0 I I #
point $-1 77.38151188695943 53.666878132949051 -21.792680045820291 #
point $-1 77.38151188695943 -53.666878132949051 -21.792680045820291 #
straight-curve $-1 -77.38151188695943 0 21.792680045820291 0 -1 0 I I #
point $-1 -77.38151188695943 53.666878132949051 21.792680045820291 #
point $-1 -77.38151188695943 -53.666878132949051 21.792680045820291 #
straight-curve $-1 77.38151188695943 -53.666878132949051 0 0 0 -1 I I #
straight-curve $-1 77.38151188695943 53.666878132949051 0 0 0 -1 I I #
edge $-1 $385 22.614865446633196 $388 39.882436524237825 $295 $425 forward 7 unknown #
vertex $-1 $309 $426 #
straight-curve $-1 -73.993694618035946 -91.731036208573002 21.792680045820291 0 -1 0 I I #
edge $-1 $388 -42.496290690131886 $306 -20.498517165676233 $305 $427 forward 7 unknown #
vertex $-1 $387 $428 #
straight-curve $-1 -73.993694618035946 -53.666878132949051 4.5251089682156618 0 0.54463902268945019 0.83867057594974714 I I #
point $-1 -73.993694618035946 -42.453186719873031 21.792680045820291 #
point $-1 -51.995921093580293 -53.666878132949051 4.5251089682156618 #
straight-curve $-1 0 -53.666878132949051 21.792680045820291 1 0 0 I I #
vertex $-1 $312 $429 #
point $-1 -65.708616468191479 -46.363802182283059 12.057349742111958 #
vertex $-1 $316 $430 #
point $-1 -56.280999243424766 -46.363802182283059 12.057349742111958 #
edge $-1 $398 22.614865446633196 $401 39.882436524237825 $321 $431 forward 7 unknown #
vertex $-1 $335 $432 #
straight-curve $-1 3.3878172689234844 -91.731036208573002 21.792680045820291 0 -1 0 I I #
edge $-1 $401 -3.805534746652171 $332 18.192238777803482 $331 $433 forward 7 unknown #
vertex $-1 $400 $434 #
straight-curve $-1 3.3878172689234844 -53.666878132949051 4.5251089682156618 0 0.54463902268945019 0.83867057594974714 I I #
point $-1 3.3878172689234844 -42.453186719873031 21.792680045820291 #
point $-1 25.385590793379137 -53.666878132949051 4.5251089682156618 #
straight-curve $-1 0 -53.666878132949051 21.792680045820291 1 0 0 I I #
vertex $-1 $338 $435 #
point $-1 11.672895418767951 -46.363802182283059 12.057349742111958 #
vertex $-1 $342 $436 #
point $-1 21.100512643534671 -46.363802182283059 12.057349742111958 #
edge $-1 $411 72.93947189972188 $414 83.070103053311897 $347 $437 forward 7 unknown #
vertex $-1 $361 $438 #
straight-curve $-1 62.295908212493984 57.891798968102748 21.792680045820291 0 1 0 I I #
edge $-1 $414 -36.007471489144137 $358 -16.569401957555556 $357 $439 forward 7 unknown #
vertex $-1 $413 $440 #
straight-curve $-1 62.295908212493984 -9.4223196642939229 98.496882659835151 0 -0.5877852410284794 0.80901700255871778 I I #
point $-1 62.295908212493984 46.30654397983421 21.792680045820291 #
point $-1 42.857838680905402 53.666878132949051 11.662048892230274 #
straight-curve $-1 0 53.666878132949051 21.792680045820291 -1 0 0 I I #
vertex $-1 $364 $441 #
point $-1 55.576873446699722 43.544104267620263 12.046536782817476 #
straight-curve $-1 -77.38151188695943 53.666878132949051 0 0 0 -1 I I #
point $-1 -77.38151188695943 -53.666878132949051 -21.792680045820291 #
straight-curve $-1 -77.38151188695943 0 -21.792680045820291 0 1 0 I I #
point $-1 -77.38151188695943 53.666878132949051 -21.792680045820291 #
straight-curve $-1 -73.993694618035946 -53.666878132949051 44.407545492453487 0 0 -1 I I #
point $-1 -73.993694618035946 -53.666878132949051 21.792680045820291 #
straight-curve $-1 -31.49740392790406 -53.666878132949051 4.5251089682156582 1 0 0 I I #
point $-1 -73.993694618035946 -53.666878132949051 4.5251089682156618 #
point $-1 -67.708616468191479 -44.686461030383562 10.968071696733057 #
point $-1 -58.280999243424766 -44.686461030383562 10.968071696733057 #
straight-curve $-1 3.3878172689234844 -53.666878132949051 44.407545492453487 0 0 -1 I I #
point $-1 3.3878172689234844 -53.666878132949051 21.792680045820291 #
straight-curve $-1 7.1933520155756554 -53.666878132949051 4.5251089682156582 1 0 0 I I #
point $-1 3.3878172689234844 -53.666878132949051 4.5251089682156618 #
point $-1 9.6728954187679506 -44.686461030383562 10.968071696733057 #
point $-1 19.100512643534671 -44.686461030383562 10.968071696733057 #
straight-curve $-1 62.295908212493984 53.666878132949051 94.732151945542171 0 0 -1 I I #
point $-1 62.295908212493984 53.666878132949051 21.792680045820291 #
straight-curve $-1 26.288436723349847 53.666878132949051 11.662048892230281 -1 0 0 I I #
point $-1 62.295908212493984 53.666878132949051 11.662048892230274 #
point $-1 52.576873446699722 41.117053259944107 10.283181059732037 #
End-of-ACIS-data 