500 0 7 0           
7 Unknown 11 ACIS 5.0 NT 24 Fri Mar 26 20:08:39 1999 
-1 9.9999999999999995e-007 1e-010 
body $-1 $7 $-1 $8 #
body $-1 $9 $-1 $10 #
body $-1 $11 $-1 $12 #
body $-1 $13 $-1 $14 #
body $-1 $15 $-1 $16 #
body $-1 $17 $-1 $18 #
body $-1 $19 $-1 $20 #
lump $-1 $-1 $21 $0 #
transform $-1 1 0 0 0 1 0 0 0 1 70.547807245094148 46.311544804916515 18.049022511130875 1 rotate no_reflect no_shear #
lump $-1 $-1 $22 $1 #
transform $-1 1 0 0 0 1 0 0 0 1 70.547807245094148 46.311544804916515 18.049022511130875 1 rotate no_reflect no_shear #
lump $-1 $-1 $23 $2 #
transform $-1 1 0 0 0 1 0 0 0 1 70.547807245094148 46.311544804916515 18.049022511130875 1 rotate no_reflect no_shear #
lump $-1 $-1 $24 $3 #
transform $-1 1 0 0 0 1 0 0 0 1 70.547807245094148 46.311544804916515 18.049022511130875 1 rotate no_reflect no_shear #
lump $-1 $-1 $25 $4 #
transform $-1 1 0 0 0 1 0 0 0 1 70.547807245094148 46.311544804916515 18.049022511130875 1 rotate no_reflect no_shear #
lump $-1 $-1 $26 $5 #
transform $-1 1 0 0 0 1 0 0 0 1 70.547807245094148 46.311544804916515 18.049022511130875 1 rotate no_reflect no_shear #
lump $-1 $-1 $27 $6 #
transform $-1 1 0 0 0 1 0 0 0 1 70.547807245094148 46.311544804916515 18.049022511130875 1 rotate no_reflect no_shear #
shell $-1 $-1 $-1 $28 $-1 $7 #
shell $-1 $-1 $-1 $29 $-1 $9 #
shell $-1 $-1 $-1 $30 $-1 $11 #
shell $-1 $-1 $-1 $31 $-1 $13 #
shell $-1 $-1 $-1 $32 $-1 $15 #
shell $-1 $-1 $-1 $33 $-1 $17 #
shell $-1 $-1 $-1 $34 $-1 $19 #
face $-1 $35 $36 $21 $-1 $37 forward single #
face $-1 $38 $39 $22 $-1 $40 reversed single #
face $-1 $41 $42 $23 $-1 $43 forward single #
face $-1 $44 $45 $24 $-1 $46 forward single #
face $-1 $47 $48 $25 $-1 $49 reversed single #
face $-1 $50 $51 $26 $-1 $52 forward single #
face $-1 $53 $54 $27 $-1 $55 forward single #
face $-1 $56 $57 $21 $-1 $58 reversed single #
loop $-1 $-1 $59 $28 #
plane-surface $-1 0 0 18.049022511130875 0 0 1 1 0 0 forward_v I I I I #
face $-1 $60 $61 $22 $-1 $62 reversed single #
loop $-1 $-1 $63 $29 #
plane-surface $-1 -41.901956987335495 -138.87859776785692 113.66603732123254 -1 0 0 0 -0.6560590369687036 0.75470957328743171 forward_v I I I I #
face $-1 $64 $65 $23 $-1 $66 forward single #
loop $-1 $67 $68 $30 #
cone-surface $-1 -62.363278600020251 -36.882572807793991 8.9594944954451421 0 0.6560590369687036 -0.75470957328743171 3 0 0 1 I I 0 1 3 forward I I I I #
face $-1 $69 $70 $24 $-1 $71 forward single #
loop $-1 $72 $73 $31 #
cone-surface $-1 -50.086485632409399 -36.882572807793991 8.9594944954451421 0 0.6560590369687036 -0.75470957328743171 3 0 0 1 I I 0 1 3 forward I I I I #
face $-1 $74 $75 $25 $-1 $76 reversed single #
loop $-1 $-1 $77 $32 #
plane-surface $-1 23.205264963797973 57.252918500039037 178.99933471011889 1 0 0 0 -0.6018150307709319 -0.79863550430605224 forward_v I I I I #
face $-1 $78 $79 $26 $-1 $80 forward single #
loop $-1 $81 $82 $33 #
cone-surface $-1 34.25785421426778 39.496492154558368 11.84979574423209 0 -0.6018150307709319 -0.79863550430605224 2.5 0 0 1 I I 0 1 2.5 forward I I I I #
face $-1 $83 $84 $27 $-1 $85 forward single #
loop $-1 $86 $87 $34 #
cone-surface $-1 50.836738089972485 39.496492154558368 11.84979574423209 0 -0.6018150307709319 -0.79863550430605224 2.5 0 0 1 I I 0 1 2.5 forward I I I I #
face $-1 $88 $89 $21 $-1 $90 reversed single #
loop $-1 $-1 $91 $35 #
plane-surface $-1 0 0 -18.049022511130875 0 0 1 1 0 0 forward_v I I I I #
coedge $-1 $92 $93 $94 $95 forward $36 $-1 #
face $-1 $96 $97 $22 $-1 $98 forward single #
loop $-1 $-1 $99 $38 #
plane-surface $-1 -56.224882116214822 -46.311544804916522 7.1798263166145659 0 -0.6560590369687036 0.75470957328743171 1 0 0 forward_v I I I I #
coedge $-1 $100 $101 $102 $103 reversed $39 $-1 #
face $-1 $-1 $104 $23 $-1 $105 forward single #
loop $-1 $106 $107 $41 #
cone-surface $-1 -62.363278600020251 -32.72130207877062 4.17250021708643 0 0.6560590369687036 -0.75470957328743171 1.5 0 0 1 I I -0.70710678118654757 0.70710678118654757 1.5 forward I I I I #
loop $-1 $-1 $108 $30 #
coedge $-1 $68 $68 $109 $110 reversed $42 $-1 #
face $-1 $-1 $111 $24 $-1 $112 forward single #
loop $-1 $113 $114 $44 #
cone-surface $-1 -50.086485632409399 -32.72130207877062 4.17250021708643 0 0.6560590369687036 -0.75470957328743171 1.5 0 0 1 I I -0.70710678118654757 0.70710678118654757 1.5 forward I I I I #
loop $-1 $-1 $115 $31 #
coedge $-1 $73 $73 $116 $117 reversed $45 $-1 #
face $-1 $118 $119 $25 $-1 $120 reversed single #
loop $-1 $-1 $121 $47 #
plane-surface $-1 42.54729615212014 -27.660543076017184 66.31536747637503 0 0.6018150307709319 0.79863550430605224 1 0 0 forward_v I I I I #
coedge $-1 $122 $123 $124 $125 reversed $48 $-1 #
face $-1 $-1 $126 $26 $-1 $127 forward single #
loop $-1 $128 $129 $50 #
cone-surface $-1 34.25785421426778 36.889413719536641 8.3900858761488557 0 -0.6018150307709319 -0.79863550430605224 1.25 0 0 1 I I -0.70710678118654746 0.70710678118654746 1.25 forward I I I I #
loop $-1 $-1 $130 $33 #
coedge $-1 $82 $82 $131 $132 reversed $51 $-1 #
face $-1 $-1 $133 $27 $-1 $134 forward single #
loop $-1 $135 $136 $53 #
cone-surface $-1 50.836738089972485 36.889413719536641 8.3900858761488557 0 -0.6018150307709319 -0.79863550430605224 1.25 0 0 1 I I -0.70710678118654746 0.70710678118654746 1.25 forward I I I I #
loop $-1 $-1 $137 $34 #
coedge $-1 $87 $87 $138 $139 reversed $54 $-1 #
face $-1 $140 $141 $21 $-1 $142 reversed single #
loop $-1 $-1 $143 $56 #
plane-surface $-1 0 -46.311544804916515 0 0 1 0 0 0 1 forward_v I I I I #
coedge $-1 $144 $145 $146 $147 forward $57 $-1 #
coedge $-1 $148 $59 $149 $150 forward $36 $-1 #
coedge $-1 $59 $148 $151 $152 forward $36 $-1 #
coedge $-1 $153 $154 $59 $95 reversed $155 $-1 #
edge $-1 $156 -46.311544804916515 $157 46.311544804916515 $94 $158 forward 7 unknown #
face $-1 $159 $160 $22 $-1 $161 reversed single #
loop $-1 $-1 $102 $60 #
plane-surface $-1 0 0 18.049022511130875 0 0 1 1 0 0 forward_v I I I I #
coedge $-1 $162 $163 $164 $165 reversed $61 $-1 #
coedge $-1 $101 $63 $166 $167 reversed $39 $-1 #
coedge $-1 $63 $100 $162 $168 reversed $39 $-1 #
coedge $-1 $164 $169 $63 $103 forward $97 $-1 #
edge $-1 $170 23.127754079011943 $171 35.63133372611631 $102 $172 forward 7 unknown #
loop $-1 $-1 $109 $64 #
plane-surface $-1 -56.224882116214822 -46.311544804916522 7.1798263166145659 0 -0.6560590369687036 0.75470957328743171 1 0 0 forward_v I I I I #
loop $-1 $-1 $173 $41 #
coedge $-1 $107 $107 $108 $174 reversed $65 $-1 #
coedge $-1 $108 $108 $107 $174 forward $67 $-1 #
coedge $-1 $109 $109 $68 $110 forward $104 $-1 #
edge $-1 $175 7.8837827277501867e-017 $175 6.2831853071796004 $109 $176 forward 7 unknown #
loop $-1 $-1 $116 $69 #
plane-surface $-1 -56.224882116214822 -46.311544804916522 7.1798263166145659 0 -0.6560590369687036 0.75470957328743171 1 0 0 forward_v I I I I #
loop $-1 $-1 $177 $44 #
coedge $-1 $114 $114 $115 $178 reversed $70 $-1 #
coedge $-1 $115 $115 $114 $178 forward $72 $-1 #
coedge $-1 $116 $116 $73 $117 forward $111 $-1 #
edge $-1 $179 7.8837827277501867e-017 $179 6.2831853071796004 $116 $180 forward 7 unknown #
face $-1 $181 $182 $25 $-1 $183 forward single #
loop $-1 $-1 $184 $74 #
plane-surface $-1 61.889327340442307 57.252918500039037 178.99933471011889 -1 0 0 0 0.6018150307709319 0.79863550430605224 forward_v I I I I #
coedge $-1 $185 $186 $187 $188 reversed $75 $-1 #
coedge $-1 $123 $77 $189 $190 reversed $48 $-1 #
coedge $-1 $77 $122 $185 $191 reversed $48 $-1 #
coedge $-1 $187 $192 $77 $125 forward $182 $-1 #
edge $-1 $193 -17.685085554896997 $194 -7.7645995472967506 $124 $195 forward 7 unknown #
loop $-1 $-1 $131 $78 #
plane-surface $-1 42.54729615212014 -27.660543076017184 66.31536747637503 0 0.6018150307709319 0.79863550430605224 1 0 0 forward_v I I I I #
loop $-1 $-1 $196 $50 #
coedge $-1 $129 $129 $130 $197 reversed $79 $-1 #
coedge $-1 $130 $130 $129 $197 forward $81 $-1 #
coedge $-1 $131 $131 $82 $132 forward $126 $-1 #
edge $-1 $198 -2.0385632603473823e-015 $198 6.2831853071795987 $131 $199 forward 7 unknown #
loop $-1 $-1 $138 $83 #
plane-surface $-1 42.54729615212014 -27.660543076017184 66.31536747637503 0 0.6018150307709319 0.79863550430605224 1 0 0 forward_v I I I I #
loop $-1 $-1 $200 $53 #
coedge $-1 $136 $136 $137 $201 reversed $84 $-1 #
coedge $-1 $137 $137 $136 $201 forward $86 $-1 #
coedge $-1 $138 $138 $87 $139 forward $133 $-1 #
edge $-1 $202 -2.0385632603473823e-015 $202 6.2831853071795987 $138 $203 forward 7 unknown #
face $-1 $204 $205 $21 $-1 $206 reversed single #
loop $-1 $-1 $207 $88 #
plane-surface $-1 -70.547807245094148 0 0 1 0 0 0 0 -1 forward_v I I I I #
coedge $-1 $208 $151 $209 $210 forward $89 $-1 #
coedge $-1 $211 $91 $208 $212 forward $57 $-1 #
coedge $-1 $91 $211 $213 $214 forward $57 $-1 #
coedge $-1 $154 $153 $91 $147 reversed $155 $-1 #
edge $-1 $215 -46.311544804916515 $216 46.311544804916515 $146 $217 forward 7 unknown #
coedge $-1 $93 $92 $218 $219 forward $36 $-1 #
coedge $-1 $220 $221 $92 $150 reversed $205 $-1 #
edge $-1 $157 -70.547807245094148 $222 70.547807245094148 $149 $223 forward 7 unknown #
coedge $-1 $143 $224 $93 $152 reversed $89 $-1 #
edge $-1 $225 -70.547807245094148 $156 70.547807245094148 $151 $226 forward 7 unknown #
coedge $-1 $146 $94 $224 $227 forward $155 $-1 #
coedge $-1 $94 $146 $220 $228 reversed $155 $-1 #
loop $-1 $-1 $153 $204 #
vertex $-1 $95 $229 #
vertex $-1 $95 $230 #
straight-curve $-1 70.547807245094148 0 18.049022511130875 0 1 0 I I #
face $-1 $-1 $231 $22 $-1 $232 reversed single #
loop $-1 $-1 $233 $96 #
plane-surface $-1 -70.547807245094148 0 0 1 0 0 0 0 -1 forward_v I I I I #
coedge $-1 $234 $99 $101 $168 forward $61 $-1 #
coedge $-1 $99 $234 $233 $235 reversed $61 $-1 #
coedge $-1 $236 $102 $99 $165 forward $97 $-1 #
edge $-1 $171 13.789515929228084 $237 42.435366186986741 $164 $238 forward 7 unknown #
coedge $-1 $239 $240 $100 $167 forward $231 $-1 #
edge $-1 $241 -49.653192344001695 $170 -38.78399614948539 $166 $242 forward 7 unknown #
edge $-1 $171 -16.567405648029826 $241 -9.44141639987384e-015 $101 $243 forward 7 unknown #
coedge $-1 $102 $236 $239 $244 forward $97 $-1 #
vertex $-1 $167 $245 #
vertex $-1 $103 $246 #
straight-curve $-1 -41.901956987335495 -69.439298883928458 18.049022511130872 0 1 0 I I #
coedge $-1 $173 $173 $-1 $247 reversed $106 $-1 #
edge $-1 $248 0 $248 6.2831853071796004 $107 $249 forward 7 unknown #
vertex $-1 $110 $250 #
ellipse-curve $-1 -62.363278600020251 -40.059754981364328 12.614424413872726 0 -0.6560590369687036 0.75470957328743171 3 0 0 1 I I #
coedge $-1 $177 $177 $-1 $251 reversed $113 $-1 #
edge $-1 $252 0 $252 6.2831853071796004 $114 $253 forward 7 unknown #
vertex $-1 $117 $254 #
ellipse-curve $-1 -50.086485632409399 -40.059754981364328 12.614424413872726 0 -0.6560590369687036 0.75470957328743171 3 0 0 1 I I #
face $-1 $-1 $255 $25 $-1 $256 reversed single #
loop $-1 $-1 $124 $118 #
plane-surface $-1 0 0 18.049022511130875 0 0 1 1 0 0 forward_v I I I I #
coedge $-1 $257 $258 $259 $260 reversed $119 $-1 #
coedge $-1 $261 $121 $123 $191 forward $75 $-1 #
coedge $-1 $121 $261 $257 $262 forward $75 $-1 #
coedge $-1 $259 $124 $121 $188 forward $182 $-1 #
edge $-1 $194 1.9316168877379027 $263 40.615679264382237 $187 $264 forward 7 unknown #
coedge $-1 $265 $266 $122 $190 forward $255 $-1 #
edge $-1 $267 -78.926267402324896 $193 -71.450644843928572 $189 $268 forward 7 unknown #
edge $-1 $194 80.201295244178965 $267 92.623089609833073 $123 $269 forward 7 unknown #
coedge $-1 $124 $259 $265 $270 forward $182 $-1 #
vertex $-1 $190 $271 #
vertex $-1 $125 $272 #
straight-curve $-1 23.205264963797973 28.626459250019519 18.049022511130872 0 -1 0 I I #
coedge $-1 $196 $196 $-1 $273 reversed $128 $-1 #
edge $-1 $274 0 $274 6.2831853071796004 $129 $275 forward 7 unknown #
vertex $-1 $132 $276 #
ellipse-curve $-1 34.25785421426778 41.351301801116392 14.311211231932711 0 0.6018150307709319 0.79863550430605224 2.5 0 0 1 I I #
coedge $-1 $200 $200 $-1 $277 reversed $135 $-1 #
edge $-1 $278 0 $278 6.2831853071796004 $136 $279 forward 7 unknown #
vertex $-1 $139 $280 #
ellipse-curve $-1 50.836738089972485 41.351301801116392 14.311211231932711 0 0.6018150307709319 0.79863550430605224 2.5 0 0 1 I I #
face $-1 $-1 $155 $21 $-1 $281 reversed single #
loop $-1 $-1 $220 $140 #
plane-surface $-1 0 46.311544804916515 0 0 -1 0 0 0 -1 forward_v I I I I #
coedge $-1 $282 $218 $221 $283 forward $141 $-1 #
coedge $-1 $224 $143 $144 $212 reversed $89 $-1 #
coedge $-1 $218 $282 $143 $210 reversed $141 $-1 #
edge $-1 $225 -18.049022511130875 $284 18.049022511130875 $209 $285 forward 7 unknown #
coedge $-1 $145 $144 $282 $286 forward $57 $-1 #
edge $-1 $216 -70.547807245094148 $284 70.547807245094148 $208 $287 forward 7 unknown #
coedge $-1 $221 $220 $145 $214 reversed $205 $-1 #
edge $-1 $288 -70.547807245094148 $215 70.547807245094148 $213 $289 forward 7 unknown #
vertex $-1 $147 $290 #
vertex $-1 $227 $291 #
straight-curve $-1 70.547807245094148 0 -18.049022511130875 0 -1 0 I I #
coedge $-1 $207 $209 $148 $219 reversed $141 $-1 #
edge $-1 $222 -46.311544804916515 $225 46.311544804916515 $218 $292 forward 7 unknown #
coedge $-1 $213 $149 $154 $228 forward $205 $-1 #
coedge $-1 $149 $213 $207 $283 reversed $205 $-1 #
vertex $-1 $150 $293 #
straight-curve $-1 0 46.311544804916515 18.049022511130875 -1 0 0 I I #
coedge $-1 $151 $208 $153 $227 reversed $89 $-1 #
vertex $-1 $219 $294 #
straight-curve $-1 0 -46.311544804916515 18.049022511130875 1 0 0 I I #
edge $-1 $156 -18.049022511130875 $216 18.049022511130875 $153 $295 forward 7 unknown #
edge $-1 $157 -18.049022511130875 $215 18.049022511130875 $154 $296 forward 7 unknown #
point $-1 70.547807245094148 -46.311544804916515 18.049022511130875 #
point $-1 70.547807245094148 46.311544804916515 18.049022511130875 #
loop $-1 $-1 $166 $159 #
plane-surface $-1 0 -46.311544804916515 0 0 1 0 0 0 1 forward_v I I I I #
coedge $-1 $297 $298 $163 $235 forward $160 $-1 #
coedge $-1 $163 $162 $240 $299 reversed $61 $-1 #
edge $-1 $237 -1.446717508470013 $300 15.120688139559803 $233 $301 forward 7 unknown #
coedge $-1 $169 $164 $298 $302 forward $97 $-1 #
vertex $-1 $302 $303 #
straight-curve $-1 -28.112441058107411 -33.807965157812149 18.049022511130875 -1 0 0 I I #
coedge $-1 $304 $166 $169 $244 reversed $231 $-1 #
coedge $-1 $166 $304 $234 $299 forward $231 $-1 #
vertex $-1 $167 $305 #
straight-curve $-1 -41.901956987335495 -46.311544804916515 56.833018660616268 0 0 1 I I #
straight-curve $-1 -41.901956987335495 -46.311544804916522 7.1798263166145659 0 -0.75470957328743171 -0.6560590369687036 I I #
edge $-1 $306 -70.547807245094148 $170 -41.901956987335495 $239 $307 forward 7 unknown #
point $-1 -41.901956987335495 -46.311544804916515 18.049022511130875 #
point $-1 -41.901956987335495 -33.807965157812149 18.049022511130875 #
edge $-1 $308 1 $308 0 $173 $-1 forward 7 unknown #
vertex $-1 $174 $309 #
ellipse-curve $-1 -62.363278600020251 -33.705390634223676 5.3045645770175778 0 -0.6560590369687036 0.75470957328743171 3 0 0 1 I I #
point $-1 -59.363278600020251 -40.059754981364314 12.61442441387271 #
edge $-1 $310 1 $310 0 $177 $-1 forward 7 unknown #
vertex $-1 $178 $311 #
ellipse-curve $-1 -50.086485632409399 -33.705390634223676 5.3045645770175778 0 -0.6560590369687036 0.75470957328743171 3 0 0 1 I I #
point $-1 -47.086485632409399 -40.059754981364314 12.61442441387271 #
loop $-1 $-1 $189 $181 #
plane-surface $-1 0 46.311544804916515 0 0 -1 0 0 0 -1 forward_v I I I I #
coedge $-1 $258 $184 $186 $262 reversed $119 $-1 #
coedge $-1 $184 $257 $312 $313 reversed $119 $-1 #
coedge $-1 $192 $187 $184 $260 forward $182 $-1 #
edge $-1 $263 7.7645995472967506 $314 17.685085554896997 $259 $315 forward 7 unknown #
coedge $-1 $186 $185 $266 $316 reversed $75 $-1 #
edge $-1 $317 -92.623089609833073 $263 -80.201295244178965 $257 $318 forward 7 unknown #
vertex $-1 $188 $319 #
straight-curve $-1 21.27364807606007 36.391058797316276 18.049022511130872 1 0 0 I I #
coedge $-1 $312 $189 $192 $270 reversed $255 $-1 #
coedge $-1 $189 $312 $261 $316 forward $255 $-1 #
vertex $-1 $190 $320 #
straight-curve $-1 23.205264963797973 46.311544804916515 89.499667355059444 0 0 1 I I #
straight-curve $-1 23.205264963797973 -27.660543076017184 66.31536747637503 0 0.79863550430605224 -0.6018150307709319 I I #
edge $-1 $314 -61.889327340442307 $193 -23.205264963797973 $265 $321 forward 7 unknown #
point $-1 23.205264963797973 46.311544804916515 18.049022511130875 #
point $-1 23.205264963797973 36.391058797316269 18.049022511130872 #
edge $-1 $322 1 $322 0 $196 $-1 forward 7 unknown #
vertex $-1 $197 $323 #
ellipse-curve $-1 34.25785421426778 37.641682508000308 9.3883802565314216 0 0.6018150307709319 0.79863550430605224 2.5 0 0 1 I I #
point $-1 36.75785421426778 41.351301801116421 14.311211231932758 #
edge $-1 $324 1 $324 0 $200 $-1 forward 7 unknown #
vertex $-1 $201 $325 #
ellipse-curve $-1 50.836738089972485 37.641682508000308 9.3883802565314216 0 0.6018150307709319 0.79863550430605224 2.5 0 0 1 I I #
point $-1 53.336738089972485 41.351301801116421 14.311211231932758 #
plane-surface $-1 70.547807245094148 0 0 -1 0 0 0 0 1 forward_v I I I I #
coedge $-1 $209 $207 $211 $286 reversed $141 $-1 #
edge $-1 $222 -18.049022511130875 $288 18.049022511130875 $221 $326 forward 7 unknown #
vertex $-1 $286 $327 #
straight-curve $-1 -70.547807245094148 -46.311544804916515 0 0 0 -1 I I #
edge $-1 $284 -46.311544804916515 $288 46.311544804916515 $282 $328 forward 7 unknown #
straight-curve $-1 0 -46.311544804916515 -18.049022511130875 -1 0 0 I I #
vertex $-1 $214 $329 #
straight-curve $-1 0 46.311544804916515 -18.049022511130875 1 0 0 I I #
point $-1 70.547807245094148 46.311544804916515 -18.049022511130875 #
point $-1 70.547807245094148 -46.311544804916515 -18.049022511130875 #
straight-curve $-1 -70.547807245094148 0 18.049022511130875 0 -1 0 I I #
point $-1 -70.547807245094148 46.311544804916515 18.049022511130875 #
point $-1 -70.547807245094148 -46.311544804916515 18.049022511130875 #
straight-curve $-1 70.547807245094148 -46.311544804916515 0 0 0 -1 I I #
straight-curve $-1 70.547807245094148 46.311544804916515 0 0 0 -1 I I #
coedge $-1 $298 $233 $304 $330 reversed $160 $-1 #
coedge $-1 $233 $297 $236 $302 reversed $160 $-1 #
edge $-1 $300 -42.435366186986741 $241 -13.789515929228084 $240 $331 forward 7 unknown #
vertex $-1 $235 $332 #
straight-curve $-1 -70.547807245094148 -34.899816711297007 17.099890415758274 0 -0.75470957328743171 -0.6560590369687036 I I #
edge $-1 $237 33.807965157812149 $306 46.311544804916515 $298 $333 forward 7 unknown #
point $-1 -70.547807245094148 -33.807965157812149 18.049022511130875 #
coedge $-1 $240 $239 $297 $330 forward $231 $-1 #
point $-1 -41.901956987335495 -46.311544804916515 7.1798263166145722 #
vertex $-1 $302 $334 #
straight-curve $-1 0 -46.311544804916515 18.049022511130875 1 0 0 I I #
vertex $-1 $247 $335 #
point $-1 -59.363278600020251 -33.705390634223676 5.3045645770175778 #
vertex $-1 $251 $336 #
point $-1 -47.086485632409399 -33.705390634223676 5.3045645770175778 #
coedge $-1 $266 $265 $258 $313 forward $255 $-1 #
edge $-1 $314 71.450644843928572 $317 78.926267402324896 $312 $337 forward 7 unknown #
vertex $-1 $270 $338 #
straight-curve $-1 61.889327340442307 28.626459250019519 18.049022511130872 0 1 0 I I #
edge $-1 $317 -40.615679264382237 $267 -1.9316168877379027 $266 $339 forward 7 unknown #
vertex $-1 $316 $340 #
straight-curve $-1 61.889327340442307 -27.660543076017184 66.31536747637503 0 -0.79863550430605224 0.6018150307709319 I I #
point $-1 61.889327340442307 36.391058797316269 18.049022511130872 #
point $-1 23.205264963797973 46.311544804916515 10.573399952734555 #
straight-curve $-1 0 46.311544804916515 18.049022511130875 -1 0 0 I I #
vertex $-1 $273 $341 #
point $-1 36.75785421426778 37.641682508000308 9.3883802565314216 #
vertex $-1 $277 $342 #
point $-1 53.336738089972485 37.641682508000308 9.3883802565314216 #
straight-curve $-1 -70.547807245094148 46.311544804916515 0 0 0 -1 I I #
point $-1 -70.547807245094148 -46.311544804916515 -18.049022511130875 #
straight-curve $-1 -70.547807245094148 0 -18.049022511130875 0 1 0 I I #
point $-1 -70.547807245094148 46.311544804916515 -18.049022511130875 #
edge $-1 $306 -18.049022511130875 $300 -7.1798263166145722 $297 $343 forward 7 unknown #
straight-curve $-1 -28.112441058107411 -46.311544804916515 7.179826316614573 1 0 0 I I #
point $-1 -70.547807245094148 -46.311544804916515 7.1798263166145722 #
straight-curve $-1 -70.547807245094148 0 18.049022511130875 0 -1 0 I I #
point $-1 -70.547807245094148 -46.311544804916515 18.049022511130875 #
point $-1 -62.363278600020251 -31.737213523317564 3.0404358571552823 #
point $-1 -50.086485632409399 -31.737213523317564 3.0404358571552823 #
straight-curve $-1 61.889327340442307 46.311544804916515 89.499667355059444 0 0 -1 I I #
point $-1 61.889327340442307 46.311544804916515 18.049022511130875 #
straight-curve $-1 21.27364807606007 46.311544804916515 10.573399952734562 -1 0 0 I I #
point $-1 61.889327340442307 46.311544804916515 10.573399952734555 #
point $-1 34.25785421426778 36.137144931072974 7.3917914957662907 #
point $-1 50.836738089972485 36.137144931072974 7.3917914957662907 #
straight-curve $-1 -70.547807245094148 -46.311544804916515 0 0 0 -1 I I #
End-of-ACIS-data 