500 0 8 0           
7 Unknown 11 ACIS 5.0 NT 24 Thu Mar 25 22:25:23 1999 
-1 9.9999999999999995e-007 1e-010 
body $-1 $8 $-1 $9 #
body $-1 $10 $-1 $11 #
body $-1 $12 $-1 $13 #
body $-1 $14 $-1 $15 #
body $-1 $16 $-1 $17 #
body $-1 $18 $-1 $19 #
body $-1 $20 $-1 $21 #
body $-1 $22 $-1 $23 #
lump $-1 $-1 $24 $0 #
transform $-1 1 0 0 0 1 0 0 0 1 69.335612048707546 39.442604101318665 8.1524986967681183 1 rotate no_reflect no_shear #
lump $-1 $-1 $25 $1 #
transform $-1 1 0 0 0 1 0 0 0 1 69.335612048707546 39.442604101318665 8.1524986967681183 1 rotate no_reflect no_shear #
lump $-1 $-1 $26 $2 #
transform $-1 1 0 0 0 1 0 0 0 1 69.335612048707546 39.442604101318665 8.1524986967681183 1 rotate no_reflect no_shear #
lump $-1 $-1 $27 $3 #
transform $-1 1 0 0 0 1 0 0 0 1 69.335612048707546 39.442604101318665 8.1524986967681183 1 rotate no_reflect no_shear #
lump $-1 $-1 $28 $4 #
transform $-1 1 0 0 0 1 0 0 0 1 69.335612048707546 39.442604101318665 8.1524986967681183 1 rotate no_reflect no_shear #
lump $-1 $-1 $29 $5 #
transform $-1 1 0 0 0 1 0 0 0 1 69.335612048707546 39.442604101318665 8.1524986967681183 1 rotate no_reflect no_shear #
lump $-1 $-1 $30 $6 #
transform $-1 1 0 0 0 1 0 0 0 1 69.335612048707546 39.442604101318665 8.1524986967681183 1 rotate no_reflect no_shear #
lump $-1 $-1 $31 $7 #
transform $-1 1 0 0 0 1 0 0 0 1 69.335612048707546 39.442604101318665 8.1524986967681183 1 rotate no_reflect no_shear #
shell $-1 $-1 $-1 $32 $-1 $8 #
shell $-1 $-1 $-1 $33 $-1 $10 #
shell $-1 $-1 $-1 $34 $-1 $12 #
shell $-1 $-1 $-1 $35 $-1 $14 #
shell $-1 $-1 $-1 $36 $-1 $16 #
shell $-1 $-1 $-1 $37 $-1 $18 #
shell $-1 $-1 $-1 $38 $-1 $20 #
shell $-1 $-1 $-1 $39 $-1 $22 #
face $-1 $40 $41 $24 $-1 $42 forward single #
face $-1 $43 $44 $25 $-1 $45 forward single #
face $-1 $46 $47 $26 $-1 $48 forward single #
face $-1 $49 $50 $27 $-1 $51 reversed single #
face $-1 $52 $53 $28 $-1 $54 forward single #
face $-1 $55 $56 $29 $-1 $57 forward single #
face $-1 $58 $59 $30 $-1 $60 reversed single #
face $-1 $61 $62 $31 $-1 $63 forward single #
face $-1 $64 $65 $24 $-1 $66 reversed single #
loop $-1 $-1 $67 $32 #
plane-surface $-1 0 0 8.1524986967681183 0 0 1 1 0 0 forward_v I I I I #
face $-1 $68 $69 $25 $-1 $70 reversed single #
loop $-1 $-1 $71 $33 #
plane-surface $-1 0 -39.442604101318665 0 0 1 0 0 0 1 forward_v I I I I #
face $-1 $72 $73 $26 $-1 $74 reversed single #
loop $-1 $-1 $75 $34 #
plane-surface $-1 0 39.442604101318665 0 0 -1 0 0 0 -1 forward_v I I I I #
face $-1 $76 $77 $27 $-1 $78 reversed single #
loop $-1 $-1 $79 $35 #
plane-surface $-1 86.427790537739853 13.801668991402359 197.87773718284055 0 -1 0 -0.7660444514056185 0 -0.64278759981090561 forward_v I I I I #
face $-1 $80 $81 $28 $-1 $82 forward single #
loop $-1 $83 $84 $36 #
cone-surface $-1 65.790275302890464 6.1854544569965029 4.3432510421601647 -0.7660444514056185 0 -0.64278759981090561 0.96418139971635841 0 -1.1490666771084277 1 I I 0 1 1.5 forward I I I I #
face $-1 $85 $86 $29 $-1 $87 forward single #
loop $-1 $88 $89 $37 #
cone-surface $-1 65.790275302890464 10.755183177640021 4.3432510421601647 -0.7660444514056185 0 -0.64278759981090561 0.96418139971635841 0 -1.1490666771084277 1 I I 0 1 1.5 forward I I I I #
face $-1 $90 $91 $30 $-1 $92 reversed single #
loop $-1 $-1 $93 $38 #
plane-surface $-1 -184.29926817730117 -8.4966503010699448 79.140801793917518 0 1 0 -0.82903758062907751 0 0.55919289150049634 forward_v I I I I #
face $-1 $94 $95 $31 $-1 $96 forward single #
loop $-1 $97 $98 $39 #
cone-surface $-1 -66.101458962018782 -3.6337205232238006 4.1844921968765707 0.82903758062907751 0 -0.55919289150049634 0.83878933725074445 0 1.2435563709436162 1 I I 0 1 1.5 forward I I I I #
face $-1 $99 $100 $24 $-1 $101 reversed single #
loop $-1 $-1 $102 $40 #
plane-surface $-1 0 0 -8.1524986967681183 0 0 1 1 0 0 forward_v I I I I #
coedge $-1 $103 $104 $105 $106 forward $41 $-1 #
face $-1 $107 $108 $25 $-1 $109 forward single #
loop $-1 $-1 $110 $43 #
plane-surface $-1 -69.335612048707546 0 0 1 0 0 0 0 -1 forward_v I I I I #
coedge $-1 $111 $112 $113 $114 forward $44 $-1 #
face $-1 $115 $116 $26 $-1 $117 forward single #
loop $-1 $-1 $118 $46 #
plane-surface $-1 69.335612048707546 0 0 -1 0 0 0 0 1 forward_v I I I I #
coedge $-1 $119 $120 $121 $122 forward $47 $-1 #
face $-1 $123 $124 $27 $-1 $125 reversed single #
loop $-1 $-1 $126 $49 #
plane-surface $-1 -19.800531251710069 8.4703188173182582 108.74159388242289 0.7660444514056185 0 0.64278759981090561 0.64278759981090561 0 -0.7660444514056185 forward_v I I I I #
coedge $-1 $127 $128 $129 $130 reversed $50 $-1 #
face $-1 $-1 $131 $28 $-1 $132 forward single #
loop $-1 $133 $134 $52 #
cone-surface $-1 64.036341638260907 6.1854544569965029 2.8715259895916194 -0.7660444514056185 0 -0.64278759981090561 0.48209069985817921 0 -0.57453333855421385 1 I I -0.70710678118654757 0.70710678118654757 0.75 forward I I I I #
loop $-1 $-1 $135 $36 #
coedge $-1 $84 $84 $136 $137 reversed $53 $-1 #
face $-1 $-1 $138 $29 $-1 $139 forward single #
loop $-1 $140 $141 $55 #
cone-surface $-1 64.036341638260907 10.755183177640021 2.8715259895916194 -0.7660444514056185 0 -0.64278759981090561 0.48209069985817921 0 -0.57453333855421385 1 I I -0.70710678118654757 0.70710678118654757 0.75 forward I I I I #
loop $-1 $-1 $142 $37 #
coedge $-1 $89 $89 $143 $144 reversed $56 $-1 #
face $-1 $145 $146 $30 $-1 $147 reversed single #
loop $-1 $-1 $148 $58 #
plane-surface $-1 -69.335612048707532 -3.6337205232238006 1.5968390229706699 -0.82903758062907751 0 0.55919289150049634 0.55919289150049634 0 0.82903758062907751 forward_v I I I I #
coedge $-1 $149 $150 $151 $152 reversed $59 $-1 #
face $-1 $-1 $153 $31 $-1 $154 forward single #
loop $-1 $155 $156 $61 #
cone-surface $-1 -64.45645176274661 -3.6337205232238006 3.0749208652583722 0.82903758062907751 0 -0.55919289150049634 0.41939466862537222 0 0.62177818547180808 1 I I -0.70710678118654757 0.70710678118654757 0.75 forward I I I I #
loop $-1 $-1 $157 $39 #
coedge $-1 $98 $98 $158 $159 reversed $62 $-1 #
face $-1 $160 $161 $24 $-1 $162 reversed single #
loop $-1 $-1 $163 $64 #
plane-surface $-1 0 -39.442604101318665 0 0 1 0 0 0 1 forward_v I I I I #
coedge $-1 $164 $165 $166 $167 forward $65 $-1 #
coedge $-1 $168 $67 $169 $170 forward $41 $-1 #
coedge $-1 $67 $168 $171 $172 forward $41 $-1 #
coedge $-1 $173 $174 $67 $106 reversed $175 $-1 #
edge $-1 $176 -39.442604101318665 $177 39.442604101318665 $105 $178 forward 7 unknown #
face $-1 $179 $180 $25 $-1 $181 reversed single #
loop $-1 $-1 $182 $68 #
plane-surface $-1 0 -44.377671056639315 -3.9440977982066432 0 0 1 1 0 0 forward_v I I I I #
coedge $-1 $183 $184 $112 $185 forward $69 $-1 #
coedge $-1 $186 $71 $187 $188 reversed $44 $-1 #
coedge $-1 $71 $186 $110 $185 reversed $44 $-1 #
coedge $-1 $189 $182 $71 $114 reversed $108 $-1 #
edge $-1 $190 -69.335612048707546 $191 69.335612048707546 $113 $192 forward 7 unknown #
face $-1 $193 $194 $26 $-1 $195 reversed single #
loop $-1 $-1 $196 $72 #
plane-surface $-1 0 44.377671056639315 -3.9440977982066432 0 0 1 1 0 0 forward_v I I I I #
coedge $-1 $197 $198 $120 $199 forward $73 $-1 #
coedge $-1 $200 $75 $201 $202 reversed $47 $-1 #
coedge $-1 $75 $200 $118 $199 reversed $47 $-1 #
coedge $-1 $196 $203 $75 $122 reversed $116 $-1 #
edge $-1 $204 -69.335612048707546 $205 69.335612048707546 $121 $206 forward 7 unknown #
face $-1 $207 $208 $27 $-1 $209 forward single #
loop $-1 $-1 $210 $76 #
plane-surface $-1 86.427790537739853 3.1389686432341577 197.87773718284055 0 1 0 0.7660444514056185 0 0.64278759981090561 forward_v I I I I #
coedge $-1 $211 $212 $213 $214 reversed $77 $-1 #
coedge $-1 $128 $79 $215 $216 reversed $50 $-1 #
coedge $-1 $79 $127 $211 $217 reversed $50 $-1 #
coedge $-1 $213 $218 $79 $130 forward $208 $-1 #
edge $-1 $219 -26.12171677983762 $220 -21.389843940354162 $129 $221 forward 7 unknown #
loop $-1 $-1 $136 $80 #
plane-surface $-1 -19.800531251710069 8.4703188173182582 108.74159388242289 0.7660444514056185 0 0.64278759981090561 0.64278759981090561 0 -0.7660444514056185 forward_v I I I I #
loop $-1 $-1 $222 $52 #
coedge $-1 $134 $134 $135 $223 reversed $81 $-1 #
coedge $-1 $135 $135 $134 $223 forward $83 $-1 #
coedge $-1 $136 $136 $84 $137 forward $131 $-1 #
edge $-1 $224 0 $224 6.2831853071796004 $136 $225 forward 7 unknown #
loop $-1 $-1 $143 $85 #
plane-surface $-1 -19.800531251710069 8.4703188173182582 108.74159388242289 0.7660444514056185 0 0.64278759981090561 0.64278759981090561 0 -0.7660444514056185 forward_v I I I I #
loop $-1 $-1 $226 $55 #
coedge $-1 $141 $141 $142 $227 reversed $86 $-1 #
coedge $-1 $142 $142 $141 $227 forward $88 $-1 #
coedge $-1 $143 $143 $89 $144 forward $138 $-1 #
edge $-1 $228 0 $228 6.2831853071796004 $143 $229 forward 7 unknown #
face $-1 $230 $231 $30 $-1 $232 reversed single #
loop $-1 $-1 $233 $90 #
plane-surface $-1 -184.29926817730117 1.2292092546223436 79.140801793917518 0 -1 0 0.82903758062907751 0 -0.55919289150049634 forward_v I I I I #
coedge $-1 $234 $235 $236 $237 reversed $91 $-1 #
coedge $-1 $150 $93 $238 $239 reversed $59 $-1 #
coedge $-1 $93 $149 $234 $240 reversed $59 $-1 #
coedge $-1 $236 $241 $93 $152 forward $242 $-1 #
edge $-1 $243 22.81402203994304 $244 27.235870185719889 $151 $245 forward 7 unknown #
loop $-1 $-1 $158 $94 #
plane-surface $-1 -69.335612048707532 -3.6337205232238006 1.5968390229706699 -0.82903758062907751 0 0.55919289150049634 0.55919289150049634 0 0.82903758062907751 forward_v I I I I #
loop $-1 $-1 $246 $61 #
coedge $-1 $156 $156 $157 $247 reversed $95 $-1 #
coedge $-1 $157 $157 $156 $247 forward $97 $-1 #
coedge $-1 $158 $158 $98 $159 forward $153 $-1 #
edge $-1 $248 0 $248 6.2831853071796004 $158 $249 forward 7 unknown #
face $-1 $250 $251 $24 $-1 $252 reversed single #
loop $-1 $-1 $253 $99 #
plane-surface $-1 -69.335612048707546 0 0 1 0 0 0 0 -1 forward_v I I I I #
coedge $-1 $254 $171 $255 $256 forward $100 $-1 #
coedge $-1 $257 $102 $254 $258 forward $65 $-1 #
coedge $-1 $102 $257 $259 $260 forward $65 $-1 #
coedge $-1 $174 $173 $102 $167 reversed $175 $-1 #
edge $-1 $261 -39.442604101318665 $262 39.442604101318665 $166 $263 forward 7 unknown #
coedge $-1 $104 $103 $264 $265 forward $41 $-1 #
coedge $-1 $266 $267 $103 $170 reversed $251 $-1 #
edge $-1 $177 -69.335612048707546 $268 69.335612048707546 $169 $269 forward 7 unknown #
coedge $-1 $163 $270 $104 $172 reversed $100 $-1 #
edge $-1 $271 -69.335612048707546 $176 69.335612048707546 $171 $272 forward 7 unknown #
coedge $-1 $166 $105 $270 $273 forward $175 $-1 #
coedge $-1 $105 $166 $266 $274 reversed $175 $-1 #
loop $-1 $-1 $173 $250 #
vertex $-1 $106 $275 #
vertex $-1 $106 $276 #
straight-curve $-1 69.335612048707546 0 8.1524986967681183 0 1 0 I I #
face $-1 $277 $278 $25 $-1 $279 reversed single #
loop $-1 $-1 $280 $107 #
plane-surface $-1 0 -44.377671056639315 -6.9440977982066432 0 0 1 1 0 0 forward_v I I I I #
coedge $-1 $113 $281 $282 $283 forward $108 $-1 #
coedge $-1 $284 $110 $285 $286 reversed $69 $-1 #
coedge $-1 $110 $284 $189 $287 reversed $69 $-1 #
edge $-1 $190 3.9440977982066432 $288 6.9440977982066432 $110 $289 forward 7 unknown #
coedge $-1 $112 $111 $290 $291 forward $44 $-1 #
coedge $-1 $282 $292 $111 $188 forward $293 $-1 #
edge $-1 $294 -6.9440977982066432 $191 -3.9440977982066432 $187 $295 forward 7 unknown #
coedge $-1 $281 $113 $184 $287 forward $108 $-1 #
vertex $-1 $185 $296 #
vertex $-1 $283 $297 #
straight-curve $-1 0 -39.442604101318665 -3.9440977982066432 1 0 0 I I #
face $-1 $298 $299 $26 $-1 $300 reversed single #
loop $-1 $-1 $301 $115 #
plane-surface $-1 0 44.377671056639315 -6.9440977982066432 0 0 1 1 0 0 forward_v I I I I #
coedge $-1 $302 $121 $198 $303 forward $116 $-1 #
coedge $-1 $304 $118 $301 $305 reversed $73 $-1 #
coedge $-1 $118 $304 $196 $303 reversed $73 $-1 #
edge $-1 $204 3.9440977982066432 $306 6.9440977982066432 $118 $307 forward 7 unknown #
coedge $-1 $120 $119 $308 $309 forward $47 $-1 #
coedge $-1 $310 $311 $119 $202 forward $312 $-1 #
edge $-1 $313 -6.9440977982066432 $205 -3.9440977982066432 $201 $314 forward 7 unknown #
coedge $-1 $121 $302 $310 $315 forward $116 $-1 #
vertex $-1 $199 $316 #
vertex $-1 $315 $317 #
straight-curve $-1 0 39.442604101318665 -3.9440977982066432 -1 0 0 I I #
face $-1 $-1 $318 $27 $-1 $319 reversed single #
loop $-1 $-1 $129 $123 #
plane-surface $-1 0 0 8.1524986967681183 0 0 1 1 0 0 forward_v I I I I #
coedge $-1 $320 $321 $322 $323 reversed $124 $-1 #
coedge $-1 $324 $126 $128 $217 forward $77 $-1 #
coedge $-1 $126 $324 $320 $325 forward $77 $-1 #
coedge $-1 $322 $129 $126 $214 forward $208 $-1 #
edge $-1 $220 -9.5665095827432296 $326 1.0961907654249714 $213 $327 forward 7 unknown #
coedge $-1 $328 $329 $127 $216 forward $318 $-1 #
edge $-1 $330 -96.425596498447263 $219 -90.786369894652154 $215 $331 forward 7 unknown #
edge $-1 $220 131.30973666225688 $330 138.67122409741509 $128 $332 forward 7 unknown #
coedge $-1 $129 $322 $328 $333 forward $208 $-1 #
vertex $-1 $216 $334 #
vertex $-1 $130 $335 #
straight-curve $-1 43.213895268869926 13.801668991402359 8.1524986967681201 -1 0 0 I I #
coedge $-1 $222 $222 $-1 $336 reversed $133 $-1 #
edge $-1 $337 0 $337 6.2831853071796004 $134 $338 forward 7 unknown #
vertex $-1 $137 $339 #
ellipse-curve $-1 66.969675628965831 6.1854544569965029 5.3328853948705577 0.7660444514056185 0 0.64278759981090561 0.96418139971635841 0 -1.1490666771084277 1 I I #
coedge $-1 $226 $226 $-1 $340 reversed $140 $-1 #
edge $-1 $341 0 $341 6.2831853071796004 $141 $342 forward 7 unknown #
vertex $-1 $144 $343 #
ellipse-curve $-1 66.969675628965831 10.755183177640021 5.3328853948705577 0.7660444514056185 0 0.64278759981090561 0.96418139971635841 0 -1.1490666771084277 1 I I #
face $-1 $-1 $242 $30 $-1 $344 forward single #
loop $-1 $-1 $345 $145 #
plane-surface $-1 -69.335612048707546 0 0 1 0 0 0 0 -1 forward_v I I I I #
coedge $-1 $346 $347 $348 $349 reversed $146 $-1 #
coedge $-1 $350 $148 $150 $240 forward $91 $-1 #
coedge $-1 $148 $350 $346 $351 forward $91 $-1 #
coedge $-1 $348 $151 $148 $237 forward $242 $-1 #
edge $-1 $244 -6.6797900394580445 $352 3.0460695162342439 $236 $353 forward 7 unknown #
coedge $-1 $354 $355 $149 $239 forward $231 $-1 #
edge $-1 $356 -37.97356187398811 $243 -31.417902200190639 $238 $357 forward 7 unknown #
edge $-1 $244 -7.9075542858057002 $356 2.5434524534472062e-014 $150 $358 forward 7 unknown #
coedge $-1 $151 $348 $354 $359 forward $242 $-1 #
loop $-1 $-1 $348 $230 #
vertex $-1 $239 $360 #
vertex $-1 $152 $361 #
straight-curve $-1 -92.149634088650586 -8.4966503010699448 8.1524986967681201 1 0 0 I I #
coedge $-1 $246 $246 $-1 $362 reversed $155 $-1 #
edge $-1 $363 0 $363 6.2831853071796004 $156 $364 forward 7 unknown #
vertex $-1 $159 $365 #
ellipse-curve $-1 -67.124687975819128 -3.6337205232238006 4.8746688598693861 -0.82903758062907751 0 0.55919289150049634 0.83878933725074445 0 1.2435563709436162 1 I I #
face $-1 $-1 $175 $24 $-1 $366 reversed single #
loop $-1 $-1 $266 $160 #
plane-surface $-1 0 39.442604101318665 0 0 -1 0 0 0 -1 forward_v I I I I #
coedge $-1 $367 $264 $267 $368 forward $161 $-1 #
coedge $-1 $270 $163 $164 $258 reversed $100 $-1 #
coedge $-1 $264 $367 $163 $256 reversed $161 $-1 #
edge $-1 $271 -8.1524986967681183 $369 8.1524986967681183 $255 $370 forward 7 unknown #
coedge $-1 $165 $164 $367 $371 forward $65 $-1 #
edge $-1 $262 -69.335612048707546 $369 69.335612048707546 $254 $372 forward 7 unknown #
coedge $-1 $267 $266 $165 $260 reversed $251 $-1 #
edge $-1 $373 -69.335612048707546 $261 69.335612048707546 $259 $374 forward 7 unknown #
vertex $-1 $167 $375 #
vertex $-1 $273 $376 #
straight-curve $-1 69.335612048707546 0 -8.1524986967681183 0 -1 0 I I #
coedge $-1 $253 $255 $168 $265 reversed $161 $-1 #
edge $-1 $268 -39.442604101318665 $271 39.442604101318665 $264 $377 forward 7 unknown #
coedge $-1 $259 $169 $174 $274 forward $251 $-1 #
coedge $-1 $169 $259 $253 $368 reversed $251 $-1 #
vertex $-1 $170 $378 #
straight-curve $-1 0 39.442604101318665 8.1524986967681183 -1 0 0 I I #
coedge $-1 $171 $254 $173 $273 reversed $100 $-1 #
vertex $-1 $265 $379 #
straight-curve $-1 0 -39.442604101318665 8.1524986967681183 1 0 0 I I #
edge $-1 $176 -8.1524986967681183 $262 8.1524986967681183 $173 $380 forward 7 unknown #
edge $-1 $177 -8.1524986967681183 $261 8.1524986967681183 $174 $381 forward 7 unknown #
point $-1 69.335612048707546 -39.442604101318665 8.1524986967681183 #
point $-1 69.335612048707546 39.442604101318665 8.1524986967681183 #
face $-1 $-1 $293 $25 $-1 $382 reversed single #
loop $-1 $-1 $383 $179 #
plane-surface $-1 0 -49.312738011959965 -5.4440977982066432 0 1 0 0 0 1 forward_v I I I I #
coedge $-1 $384 $290 $292 $385 forward $180 $-1 #
coedge $-1 $182 $189 $386 $387 forward $108 $-1 #
coedge $-1 $388 $187 $182 $283 reversed $293 $-1 #
edge $-1 $389 -4.9350669553206501 $191 4.9350669553206501 $282 $390 forward 7 unknown #
coedge $-1 $184 $183 $383 $391 reversed $69 $-1 #
coedge $-1 $290 $384 $183 $286 forward $180 $-1 #
edge $-1 $392 -4.9350669553206501 $288 4.9350669553206501 $183 $393 forward 7 unknown #
edge $-1 $190 -4.9350669553206501 $394 4.9350669553206501 $184 $395 forward 7 unknown #
vertex $-1 $185 $396 #
straight-curve $-1 -69.335612048707546 -39.442604101318665 0 0 0 -1 I I #
coedge $-1 $280 $285 $186 $291 reversed $180 $-1 #
edge $-1 $294 -69.335612048707546 $288 69.335612048707546 $290 $397 forward 7 unknown #
coedge $-1 $187 $388 $280 $385 reversed $293 $-1 #
loop $-1 $-1 $187 $277 #
vertex $-1 $188 $398 #
straight-curve $-1 69.335612048707546 -39.442604101318665 0 0 0 1 I I #
point $-1 -69.335612048707546 -39.442604101318665 -3.9440977982066432 #
point $-1 69.335612048707546 -39.442604101318665 -3.9440977982066432 #
face $-1 $-1 $312 $26 $-1 $399 reversed single #
loop $-1 $-1 $400 $193 #
plane-surface $-1 0 49.312738011959965 -5.4440977982066432 0 -1 0 0 0 -1 forward_v I I I I #
coedge $-1 $308 $401 $197 $305 forward $194 $-1 #
coedge $-1 $203 $196 $402 $403 forward $116 $-1 #
edge $-1 $204 -4.9350669553206501 $404 4.9350669553206501 $198 $405 forward 7 unknown #
coedge $-1 $198 $197 $400 $406 reversed $73 $-1 #
edge $-1 $407 -4.9350669553206501 $306 4.9350669553206501 $197 $408 forward 7 unknown #
vertex $-1 $199 $409 #
straight-curve $-1 69.335612048707546 39.442604101318665 0 0 0 -1 I I #
coedge $-1 $410 $301 $200 $309 reversed $194 $-1 #
edge $-1 $313 -69.335612048707546 $306 69.335612048707546 $308 $411 forward 7 unknown #
coedge $-1 $412 $201 $203 $315 reversed $312 $-1 #
coedge $-1 $201 $412 $410 $413 reversed $312 $-1 #
loop $-1 $-1 $201 $298 #
vertex $-1 $202 $414 #
straight-curve $-1 -69.335612048707546 39.442604101318665 0 0 0 1 I I #
edge $-1 $415 -4.9350669553206501 $205 4.9350669553206501 $310 $416 forward 7 unknown #
point $-1 69.335612048707546 39.442604101318665 -3.9440977982066432 #
point $-1 -69.335612048707546 39.442604101318665 -3.9440977982066432 #
loop $-1 $-1 $215 $207 #
plane-surface $-1 69.335612048707546 0 0 -1 0 0 0 0 1 forward_v I I I I #
coedge $-1 $321 $210 $212 $325 reversed $124 $-1 #
coedge $-1 $210 $320 $417 $418 reversed $124 $-1 #
coedge $-1 $218 $213 $210 $323 forward $208 $-1 #
edge $-1 $326 21.389843940354162 $419 26.12171677983762 $322 $420 forward 7 unknown #
coedge $-1 $212 $211 $329 $421 reversed $77 $-1 #
edge $-1 $422 -138.67122409741509 $326 -131.30973666225688 $320 $423 forward 7 unknown #
vertex $-1 $214 $424 #
straight-curve $-1 64.603739209224088 4.2351594086591291 8.1524986967681059 0 -1 0 I I #
coedge $-1 $417 $215 $218 $333 reversed $318 $-1 #
coedge $-1 $215 $417 $324 $421 forward $318 $-1 #
vertex $-1 $216 $425 #
straight-curve $-1 69.335612048707546 13.801668991402359 98.938868591420274 0 0 1 I I #
straight-curve $-1 -19.800531251710069 13.801668991402359 108.74159388242289 0.64278759981090561 0 -0.7660444514056185 I I #
edge $-1 $419 3.1389686432341577 $219 13.801668991402359 $328 $426 forward 7 unknown #
point $-1 69.335612048707546 13.801668991402359 8.1524986967681183 #
point $-1 64.603739209224088 13.801668991402359 8.1524986967681201 #
edge $-1 $427 1 $427 0 $222 $-1 forward 7 unknown #
vertex $-1 $223 $428 #
ellipse-curve $-1 64.610874976815126 6.1854544569965029 3.3536166894497987 0.7660444514056185 0 0.64278759981090561 0.96418139971635841 0 -1.1490666771084277 1 I I #
point $-1 67.933857028682155 6.1854544569965029 4.1838187177621027 #
edge $-1 $429 1 $429 0 $226 $-1 forward 7 unknown #
vertex $-1 $227 $430 #
ellipse-curve $-1 64.610874976815126 10.755183177640021 3.3536166894497987 0.7660444514056185 0 0.64278759981090561 0.96418139971635841 0 -1.1490666771084277 1 I I #
point $-1 67.933857028682155 10.755183177640021 4.1838187177621027 #
plane-surface $-1 0 0 8.1524986967681183 0 0 1 1 0 0 forward_v I I I I #
coedge $-1 $355 $354 $347 $431 forward $231 $-1 #
coedge $-1 $347 $233 $235 $351 reversed $146 $-1 #
coedge $-1 $233 $346 $345 $431 reversed $146 $-1 #
coedge $-1 $241 $236 $233 $349 forward $242 $-1 #
edge $-1 $352 -27.235870185719889 $432 -22.81402203994304 $348 $433 forward 7 unknown #
coedge $-1 $235 $234 $355 $434 reversed $91 $-1 #
edge $-1 $435 -2.5434524534472062e-014 $352 7.9075542858057002 $346 $436 forward 7 unknown #
vertex $-1 $237 $437 #
straight-curve $-1 -64.913763902930697 -1.8168602616119003 8.1524986967681201 0 1 0 I I #
coedge $-1 $345 $238 $241 $359 reversed $231 $-1 #
coedge $-1 $238 $345 $350 $434 forward $231 $-1 #
vertex $-1 $239 $438 #
straight-curve $-1 -69.335612048707546 -8.4966503010699448 39.570400896958759 0 0 1 I I #
straight-curve $-1 -69.335612048707532 -8.4966503010699448 1.5968390229706699 -0.55919289150049634 0 -0.82903758062907751 I I #
edge $-1 $432 -1.2292092546223436 $243 8.4966503010699448 $354 $439 forward 7 unknown #
point $-1 -69.335612048707546 -8.4966503010699448 8.1524986967681183 #
point $-1 -64.913763902930697 -8.4966503010699448 8.1524986967681183 #
edge $-1 $440 1 $440 0 $246 $-1 forward 7 unknown #
vertex $-1 $247 $441 #
ellipse-curve $-1 -65.078229948218421 -3.6337205232238006 3.4943155338837446 -0.82903758062907751 0 0.55919289150049634 0.83878933725074445 0 1.2435563709436162 1 I I #
point $-1 -66.285898638568383 -3.6337205232238006 6.1182252308130138 #
plane-surface $-1 69.335612048707546 0 0 -1 0 0 0 0 1 forward_v I I I I #
coedge $-1 $255 $253 $257 $371 reversed $161 $-1 #
edge $-1 $268 -8.1524986967681183 $373 8.1524986967681183 $267 $442 forward 7 unknown #
vertex $-1 $371 $443 #
straight-curve $-1 -69.335612048707546 -39.442604101318665 0 0 0 -1 I I #
edge $-1 $369 -39.442604101318665 $373 39.442604101318665 $367 $444 forward 7 unknown #
straight-curve $-1 0 -39.442604101318665 -8.1524986967681183 -1 0 0 I I #
vertex $-1 $260 $445 #
straight-curve $-1 0 39.442604101318665 -8.1524986967681183 1 0 0 I I #
point $-1 69.335612048707546 39.442604101318665 -8.1524986967681183 #
point $-1 69.335612048707546 -39.442604101318665 -8.1524986967681183 #
straight-curve $-1 -69.335612048707546 0 8.1524986967681183 0 -1 0 I I #
point $-1 -69.335612048707546 39.442604101318665 8.1524986967681183 #
point $-1 -69.335612048707546 -39.442604101318665 8.1524986967681183 #
straight-curve $-1 69.335612048707546 -39.442604101318665 0 0 0 -1 I I #
straight-curve $-1 69.335612048707546 39.442604101318665 0 0 0 -1 I I #
plane-surface $-1 69.335612048707546 0 0 -1 0 0 0 0 1 forward_v I I I I #
coedge $-1 $446 $386 $284 $391 forward $278 $-1 #
coedge $-1 $285 $280 $446 $447 forward $180 $-1 #
edge $-1 $294 -4.9350669553206501 $448 4.9350669553206501 $292 $449 forward 7 unknown #
coedge $-1 $383 $450 $281 $387 reversed $278 $-1 #
edge $-1 $394 -69.335612048707546 $389 69.335612048707546 $386 $451 forward 7 unknown #
coedge $-1 $292 $282 $450 $452 forward $293 $-1 #
vertex $-1 $283 $453 #
straight-curve $-1 69.335612048707546 -44.377671056639315 -3.9440977982066432 0 1 0 I I #
edge $-1 $394 -1.5 $392 1.5 $284 $454 forward 7 unknown #
vertex $-1 $286 $455 #
straight-curve $-1 -69.335612048707546 -44.377671056639315 -6.9440977982066432 0 1 0 I I #
vertex $-1 $287 $456 #
straight-curve $-1 -69.335612048707546 -44.377671056639315 -3.9440977982066432 0 -1 0 I I #
point $-1 -69.335612048707546 -39.442604101318665 -6.9440977982066432 #
straight-curve $-1 0 -39.442604101318665 -6.9440977982066432 -1 0 0 I I #
point $-1 69.335612048707546 -39.442604101318665 -6.9440977982066432 #
plane-surface $-1 -69.335612048707546 0 0 1 0 0 0 0 -1 forward_v I I I I #
coedge $-1 $457 $402 $304 $406 forward $299 $-1 #
coedge $-1 $301 $410 $457 $458 forward $194 $-1 #
coedge $-1 $400 $459 $302 $403 reversed $299 $-1 #
edge $-1 $404 -69.335612048707546 $415 69.335612048707546 $402 $460 forward 7 unknown #
vertex $-1 $303 $461 #
straight-curve $-1 69.335612048707546 44.377671056639315 -3.9440977982066432 0 1 0 I I #
edge $-1 $404 -1.5 $407 1.5 $304 $462 forward 7 unknown #
vertex $-1 $305 $463 #
straight-curve $-1 69.335612048707546 44.377671056639315 -6.9440977982066432 0 -1 0 I I #
point $-1 69.335612048707546 39.442604101318665 -6.9440977982066432 #
coedge $-1 $401 $308 $311 $413 forward $194 $-1 #
straight-curve $-1 0 39.442604101318665 -6.9440977982066432 1 0 0 I I #
coedge $-1 $311 $310 $459 $464 forward $312 $-1 #
edge $-1 $313 -4.9350669553206501 $465 4.9350669553206501 $311 $466 forward 7 unknown #
point $-1 -69.335612048707546 39.442604101318665 -6.9440977982066432 #
vertex $-1 $403 $467 #
straight-curve $-1 -69.335612048707546 44.377671056639315 -3.9440977982066432 0 -1 0 I I #
coedge $-1 $329 $328 $321 $418 forward $318 $-1 #
edge $-1 $419 90.786369894652154 $422 96.425596498447263 $417 $468 forward 7 unknown #
vertex $-1 $333 $469 #
straight-curve $-1 43.213895268869926 3.1389686432341577 8.1524986967681201 1 0 0 I I #
edge $-1 $422 -1.0961907654249714 $330 9.5665095827432296 $329 $470 forward 7 unknown #
vertex $-1 $421 $471 #
straight-curve $-1 -19.800531251710069 3.1389686432341577 108.74159388242289 -0.64278759981090561 0 0.7660444514056185 I I #
point $-1 64.603739209224088 3.1389686432341577 8.1524986967681201 #
point $-1 69.33561204870756 13.801668991402359 2.5132720929730112 #
straight-curve $-1 69.335612048707546 0 8.1524986967681183 0 1 0 I I #
vertex $-1 $336 $472 #
point $-1 65.575056376531478 6.1854544569965029 2.2045500123413708 #
vertex $-1 $340 $473 #
point $-1 65.575056376531478 10.755183177640021 2.2045500123413708 #
edge $-1 $432 31.417902200190639 $435 37.97356187398811 $345 $474 forward 7 unknown #
vertex $-1 $359 $475 #
straight-curve $-1 -92.149634088650586 1.2292092546223436 8.1524986967681201 -1 0 0 I I #
edge $-1 $435 -3.0460695162342439 $356 6.6797900394580445 $355 $476 forward 7 unknown #
vertex $-1 $434 $477 #
straight-curve $-1 -69.335612048707532 1.2292092546223436 1.5968390229706699 0.55919289150049634 0 0.82903758062907751 I I #
point $-1 -64.913763902930697 1.2292092546223436 8.1524986967681183 #
point $-1 -69.335612048707546 -8.4966503010699448 1.5968390229706488 #
straight-curve $-1 -69.335612048707546 0 8.1524986967681183 0 -1 0 I I #
vertex $-1 $362 $478 #
point $-1 -64.239440610967677 -3.6337205232238006 4.7378719048273608 #
straight-curve $-1 -69.335612048707546 39.442604101318665 0 0 0 -1 I I #
point $-1 -69.335612048707546 -39.442604101318665 -8.1524986967681183 #
straight-curve $-1 -69.335612048707546 0 -8.1524986967681183 0 1 0 I I #
point $-1 -69.335612048707546 39.442604101318665 -8.1524986967681183 #
coedge $-1 $450 $383 $384 $447 reversed $278 $-1 #
edge $-1 $448 -69.335612048707546 $392 69.335612048707546 $446 $479 forward 7 unknown #
vertex $-1 $452 $480 #
straight-curve $-1 69.335612048707546 -44.377671056639315 -6.9440977982066432 0 -1 0 I I #
coedge $-1 $386 $446 $388 $452 reversed $278 $-1 #
straight-curve $-1 0 -49.312738011959965 -3.9440977982066432 1 0 0 I I #
edge $-1 $389 -1.5 $448 1.5 $388 $481 forward 7 unknown #
point $-1 69.335612048707546 -49.312738011959965 -3.9440977982066432 #
straight-curve $-1 -69.335612048707546 -49.312738011959965 -5.4440977982066432 0 0 -1 I I #
point $-1 -69.335612048707546 -49.312738011959965 -6.9440977982066432 #
point $-1 -69.335612048707546 -49.312738011959965 -3.9440977982066432 #
coedge $-1 $459 $400 $401 $458 reversed $299 $-1 #
edge $-1 $465 -69.335612048707546 $407 69.335612048707546 $457 $482 forward 7 unknown #
coedge $-1 $402 $457 $412 $464 reversed $299 $-1 #
straight-curve $-1 0 49.312738011959965 -3.9440977982066432 -1 0 0 I I #
point $-1 69.335612048707546 49.312738011959965 -3.9440977982066432 #
straight-curve $-1 69.335612048707546 49.312738011959965 -5.4440977982066432 0 0 -1 I I #
point $-1 69.335612048707546 49.312738011959965 -6.9440977982066432 #
edge $-1 $415 -1.5 $465 1.5 $459 $483 forward 7 unknown #
vertex $-1 $458 $484 #
straight-curve $-1 -69.335612048707546 44.377671056639315 -6.9440977982066432 0 1 0 I I #
point $-1 -69.335612048707546 49.312738011959965 -3.9440977982066432 #
straight-curve $-1 69.335612048707546 3.1389686432341577 98.938868591420274 0 0 -1 I I #
point $-1 69.335612048707546 3.1389686432341577 8.1524986967681183 #
straight-curve $-1 69.335612048707532 4.2351594086591291 2.5132720929730255 0 1 0 I I #
point $-1 69.33561204870756 3.1389686432341577 2.5132720929730112 #
point $-1 63.461808299706696 6.1854544569965029 2.3894352897334401 #
point $-1 63.461808299706696 10.755183177640021 2.3894352897334401 #
straight-curve $-1 -69.335612048707546 1.2292092546223436 39.570400896958759 0 0 -1 I I #
point $-1 -69.335612048707546 1.2292092546223436 8.1524986967681183 #
straight-curve $-1 -69.335612048707546 -1.8168602616119003 1.5968390229706322 0 -1 0 I I #
point $-1 -69.335612048707546 1.2292092546223436 1.5968390229706488 #
point $-1 -63.834673577274799 -3.6337205232238006 2.6555261966329997 #
straight-curve $-1 0 -49.312738011959965 -6.9440977982066432 -1 0 0 I I #
point $-1 69.335612048707546 -49.312738011959965 -6.9440977982066432 #
straight-curve $-1 69.335612048707546 -49.312738011959965 -5.4440977982066432 0 0 -1 I I #
straight-curve $-1 0 49.312738011959965 -6.9440977982066432 1 0 0 I I #
straight-curve $-1 -69.335612048707546 49.312738011959965 -5.4440977982066432 0 0 -1 I I #
point $-1 -69.335612048707546 49.312738011959965 -6.9440977982066432 #
End-of-ACIS-data 