500 0 8 0           
7 Unknown 11 ACIS 5.0 NT 24 Fri Mar 26 00:25:09 1999 
-1 9.9999999999999995e-007 1e-010 
body $-1 $8 $-1 $9 #
body $-1 $10 $-1 $11 #
body $-1 $12 $-1 $13 #
body $-1 $14 $-1 $15 #
body $-1 $16 $-1 $17 #
body $-1 $18 $-1 $19 #
body $-1 $20 $-1 $21 #
body $-1 $22 $-1 $23 #
lump $-1 $-1 $24 $0 #
transform $-1 1 0 0 0 1 0 0 0 1 76.360972930082099 34.344843124313421 12.631506499213414 1 rotate no_reflect no_shear #
lump $-1 $-1 $25 $1 #
transform $-1 1 0 0 0 1 0 0 0 1 76.360972930082099 34.344843124313421 12.631506499213414 1 rotate no_reflect no_shear #
lump $-1 $-1 $26 $2 #
transform $-1 1 0 0 0 1 0 0 0 1 76.360972930082099 34.344843124313421 12.631506499213414 1 rotate no_reflect no_shear #
lump $-1 $-1 $27 $3 #
transform $-1 1 0 0 0 1 0 0 0 1 76.360972930082099 34.344843124313421 12.631506499213414 1 rotate no_reflect no_shear #
lump $-1 $-1 $28 $4 #
transform $-1 1 0 0 0 1 0 0 0 1 76.360972930082099 34.344843124313421 12.631506499213414 1 rotate no_reflect no_shear #
lump $-1 $-1 $29 $5 #
transform $-1 1 0 0 0 1 0 0 0 1 76.360972930082099 34.344843124313421 12.631506499213414 1 rotate no_reflect no_shear #
lump $-1 $-1 $30 $6 #
transform $-1 1 0 0 0 1 0 0 0 1 76.360972930082099 34.344843124313421 12.631506499213414 1 rotate no_reflect no_shear #
lump $-1 $-1 $31 $7 #
transform $-1 1 0 0 0 1 0 0 0 1 76.360972930082099 34.344843124313421 12.631506499213414 1 rotate no_reflect no_shear #
shell $-1 $-1 $-1 $32 $-1 $8 #
shell $-1 $-1 $-1 $33 $-1 $10 #
shell $-1 $-1 $-1 $34 $-1 $12 #
shell $-1 $-1 $-1 $35 $-1 $14 #
shell $-1 $-1 $-1 $36 $-1 $16 #
shell $-1 $-1 $-1 $37 $-1 $18 #
shell $-1 $-1 $-1 $38 $-1 $20 #
shell $-1 $-1 $-1 $39 $-1 $22 #
face $-1 $40 $41 $24 $-1 $42 forward single #
face $-1 $43 $44 $25 $-1 $45 forward single #
face $-1 $46 $47 $26 $-1 $48 reversed single #
face $-1 $49 $50 $27 $-1 $51 forward single #
face $-1 $52 $53 $28 $-1 $54 forward single #
face $-1 $55 $56 $29 $-1 $57 forward single #
face $-1 $58 $59 $30 $-1 $60 reversed single #
face $-1 $61 $62 $31 $-1 $63 forward single #
face $-1 $64 $65 $24 $-1 $66 reversed single #
loop $-1 $-1 $67 $32 #
plane-surface $-1 0 0 12.631506499213414 0 0 1 1 0 0 forward_v I I I I #
face $-1 $68 $69 $25 $-1 $70 reversed single #
loop $-1 $-1 $71 $33 #
plane-surface $-1 0 -28.937134325040653 -9.1436270929942562 0 0 1 1 0 0 forward_v I I I I #
face $-1 $72 $73 $26 $-1 $74 reversed single #
loop $-1 $-1 $75 $34 #
plane-surface $-1 -205.8765295683632 16.001587757232201 86.526020221804714 0 1 0 -0.84804810408105047 0 0.52991925155115449 forward_v I I I I #
face $-1 $76 $77 $27 $-1 $78 forward single #
loop $-1 $79 $80 $35 #
cone-surface $-1 -73.53462672110976 18.077433831847287 8.7211189937163969 0.84804810408105047 0 -0.52991925155115449 0.26495962577557725 0 0.42402405204052523 1 I I 0 1 0.5 forward I I I I #
face $-1 $81 $82 $28 $-1 $83 forward single #
loop $-1 $84 $85 $36 #
cone-surface $-1 -73.53462672110976 21.191202943769923 8.7211189937163969 0.84804810408105047 0 -0.52991925155115449 0.26495962577557725 0 0.42402405204052523 1 I I 0 1 0.5 forward I I I I #
face $-1 $86 $87 $29 $-1 $88 forward single #
loop $-1 $89 $90 $37 #
cone-surface $-1 -73.53462672110976 24.304972055692559 8.7211189937163969 0.84804810408105047 0 -0.52991925155115449 0.26495962577557725 0 0.42402405204052523 1 I I 0 1 0.5 forward I I I I #
face $-1 $91 $92 $30 $-1 $93 reversed single #
loop $-1 $-1 $94 $38 #
plane-surface $-1 113.86576064643752 -12.823954936171049 218.11044841320378 0 -1 0 -0.81915205242281985 0 -0.57357642473473569 forward_v I I I I #
face $-1 $95 $96 $31 $-1 $97 forward single #
loop $-1 $98 $99 $39 #
cone-surface $-1 72.504231970015894 -16.438586802215568 8.0906150185928905 -0.81915205242281985 0 -0.57357642473473569 0.86036463710210354 0 -1.2287280786342298 1 I I 0 1 1.5 forward I I I I #
face $-1 $100 $101 $24 $-1 $102 reversed single #
loop $-1 $-1 $103 $40 #
plane-surface $-1 0 0 -12.631506499213414 0 0 1 1 0 0 forward_v I I I I #
coedge $-1 $104 $105 $106 $107 forward $41 $-1 #
face $-1 $108 $109 $25 $-1 $110 reversed single #
loop $-1 $-1 $111 $43 #
plane-surface $-1 0 -23.529425525767884 -10.887566796103835 0 -1 0 0 0 -1 forward_v I I I I #
coedge $-1 $112 $113 $114 $115 reversed $44 $-1 #
face $-1 $116 $117 $26 $-1 $118 reversed single #
loop $-1 $-1 $119 $46 #
plane-surface $-1 -76.360972930082113 21.191202943769923 5.5957209761505595 -0.84804810408105047 0 0.52991925155115449 0.52991925155115449 0 0.84804810408105047 forward_v I I I I #
coedge $-1 $120 $121 $122 $123 reversed $47 $-1 #
face $-1 $-1 $124 $27 $-1 $125 forward single #
loop $-1 $126 $127 $49 #
cone-surface $-1 -72.69449178295244 18.077433831847287 8.1961444368630101 0.84804810408105047 0 -0.52991925155115449 0.13247981288778862 0 0.21201202602026262 1 I I -0.70710678118654746 0.70710678118654746 0.25 forward I I I I #
loop $-1 $-1 $128 $35 #
coedge $-1 $80 $80 $129 $130 reversed $50 $-1 #
face $-1 $-1 $131 $28 $-1 $132 forward single #
loop $-1 $133 $134 $52 #
cone-surface $-1 -72.69449178295244 21.191202943769923 8.1961444368630101 0.84804810408105047 0 -0.52991925155115449 0.13247981288778862 0 0.21201202602026262 1 I I -0.70710678118654746 0.70710678118654746 0.25 forward I I I I #
loop $-1 $-1 $135 $36 #
coedge $-1 $85 $85 $136 $137 reversed $53 $-1 #
face $-1 $-1 $138 $29 $-1 $139 forward single #
loop $-1 $140 $141 $55 #
cone-surface $-1 -72.69449178295244 24.304972055692559 8.1961444368630101 0.84804810408105047 0 -0.52991925155115449 0.13247981288778862 0 0.21201202602026262 1 I I -0.70710678118654746 0.70710678118654746 0.25 forward I I I I #
loop $-1 $-1 $142 $37 #
coedge $-1 $90 $90 $143 $144 reversed $56 $-1 #
face $-1 $145 $146 $30 $-1 $147 reversed single #
loop $-1 $-1 $148 $58 #
plane-surface $-1 -11.23673475492275 -16.438586802215568 130.51274072819893 0.81915205242281985 0 0.57357642473473569 0.57357642473473569 0 -0.81915205242281985 forward_v I I I I #
coedge $-1 $149 $150 $151 $152 reversed $59 $-1 #
face $-1 $-1 $153 $31 $-1 $154 forward single #
loop $-1 $155 $156 $61 #
cone-surface $-1 70.561317648465675 -16.438586802215568 6.7301718056087072 -0.81915205242281985 0 -0.57357642473473569 0.43018231855105177 0 -0.61436403931711492 1 I I -0.70710678118654757 0.70710678118654757 0.75 forward I I I I #
loop $-1 $-1 $157 $39 #
coedge $-1 $99 $99 $158 $159 reversed $62 $-1 #
face $-1 $160 $161 $24 $-1 $162 reversed single #
loop $-1 $-1 $163 $64 #
plane-surface $-1 0 -34.344843124313421 0 0 1 0 0 0 1 forward_v I I I I #
coedge $-1 $164 $165 $166 $167 forward $65 $-1 #
coedge $-1 $168 $67 $169 $170 forward $41 $-1 #
coedge $-1 $67 $168 $171 $172 forward $41 $-1 #
coedge $-1 $173 $174 $67 $107 reversed $175 $-1 #
edge $-1 $176 -34.344843124313421 $177 34.344843124313421 $106 $178 forward 7 unknown #
face $-1 $179 $180 $25 $-1 $181 reversed single #
loop $-1 $-1 $182 $68 #
plane-surface $-1 0 0 -12.631506499213414 0 0 1 1 0 0 forward_v I I I I #
coedge $-1 $183 $184 $185 $186 reversed $69 $-1 #
coedge $-1 $187 $71 $184 $188 forward $44 $-1 #
coedge $-1 $71 $187 $189 $190 reversed $44 $-1 #
coedge $-1 $191 $185 $71 $115 forward $180 $-1 #
edge $-1 $192 9.0608583632475579 $193 19.876275961793095 $114 $194 forward 7 unknown #
face $-1 $195 $196 $26 $-1 $197 forward single #
loop $-1 $-1 $198 $72 #
plane-surface $-1 -205.8765295683632 26.380818130307645 86.526020221804714 0 -1 0 0.84804810408105047 0 -0.52991925155115449 forward_v I I I I #
coedge $-1 $199 $200 $201 $202 reversed $73 $-1 #
coedge $-1 $121 $75 $203 $204 reversed $47 $-1 #
coedge $-1 $75 $120 $199 $205 reversed $47 $-1 #
coedge $-1 $201 $206 $75 $123 forward $196 $-1 #
edge $-1 $207 26.577291854099499 $208 30.973738447770046 $122 $209 forward 7 unknown #
loop $-1 $-1 $129 $76 #
plane-surface $-1 -76.360972930082113 21.191202943769923 5.5957209761505595 -0.84804810408105047 0 0.52991925155115449 0.52991925155115449 0 0.84804810408105047 forward_v I I I I #
loop $-1 $-1 $210 $49 #
coedge $-1 $127 $127 $128 $211 reversed $77 $-1 #
coedge $-1 $128 $128 $127 $211 forward $79 $-1 #
coedge $-1 $129 $129 $80 $130 forward $124 $-1 #
edge $-1 $212 0 $212 6.2831853071796004 $129 $213 forward 7 unknown #
loop $-1 $-1 $136 $81 #
plane-surface $-1 -76.360972930082113 21.191202943769923 5.5957209761505595 -0.84804810408105047 0 0.52991925155115449 0.52991925155115449 0 0.84804810408105047 forward_v I I I I #
loop $-1 $-1 $214 $52 #
coedge $-1 $134 $134 $135 $215 reversed $82 $-1 #
coedge $-1 $135 $135 $134 $215 forward $84 $-1 #
coedge $-1 $136 $136 $85 $137 forward $131 $-1 #
edge $-1 $216 0 $216 6.2831853071796004 $136 $217 forward 7 unknown #
loop $-1 $-1 $143 $86 #
plane-surface $-1 -76.360972930082113 21.191202943769923 5.5957209761505595 -0.84804810408105047 0 0.52991925155115449 0.52991925155115449 0 0.84804810408105047 forward_v I I I I #
loop $-1 $-1 $218 $55 #
coedge $-1 $141 $141 $142 $219 reversed $87 $-1 #
coedge $-1 $142 $142 $141 $219 forward $89 $-1 #
coedge $-1 $143 $143 $90 $144 forward $138 $-1 #
edge $-1 $220 0 $220 6.2831853071796004 $143 $221 forward 7 unknown #
face $-1 $222 $223 $30 $-1 $224 reversed single #
loop $-1 $-1 $225 $91 #
plane-surface $-1 113.86576064643752 -20.053218668260087 218.11044841320378 0 1 0 0.81915205242281985 0 0.57357642473473569 forward_v I I I I #
coedge $-1 $226 $227 $228 $229 reversed $92 $-1 #
coedge $-1 $150 $94 $230 $231 reversed $59 $-1 #
coedge $-1 $94 $149 $226 $232 reversed $59 $-1 #
coedge $-1 $228 $233 $94 $152 forward $234 $-1 #
edge $-1 $235 -19.428092606863338 $236 -14.371711251197091 $151 $237 forward 7 unknown #
loop $-1 $-1 $158 $95 #
plane-surface $-1 -11.23673475492275 -16.438586802215568 130.51274072819893 0.81915205242281985 0 0.57357642473473569 0.57357642473473569 0 -0.81915205242281985 forward_v I I I I #
loop $-1 $-1 $238 $61 #
coedge $-1 $156 $156 $157 $239 reversed $96 $-1 #
coedge $-1 $157 $157 $156 $239 forward $98 $-1 #
coedge $-1 $158 $158 $99 $159 forward $153 $-1 #
edge $-1 $240 0 $240 6.2831853071796004 $158 $241 forward 7 unknown #
face $-1 $242 $243 $24 $-1 $244 reversed single #
loop $-1 $-1 $245 $100 #
plane-surface $-1 -76.360972930082099 0 0 1 0 0 0 0 -1 forward_v I I I I #
coedge $-1 $246 $171 $247 $248 forward $101 $-1 #
coedge $-1 $249 $103 $246 $250 forward $65 $-1 #
coedge $-1 $103 $249 $251 $252 forward $65 $-1 #
coedge $-1 $174 $173 $103 $167 reversed $175 $-1 #
edge $-1 $253 -34.344843124313421 $254 34.344843124313421 $166 $255 forward 7 unknown #
coedge $-1 $105 $104 $256 $257 forward $41 $-1 #
coedge $-1 $258 $259 $104 $170 reversed $243 $-1 #
edge $-1 $177 -76.360972930082099 $260 76.360972930082099 $169 $261 forward 7 unknown #
coedge $-1 $163 $262 $105 $172 reversed $101 $-1 #
edge $-1 $263 -76.360972930082099 $176 76.360972930082099 $171 $264 forward 7 unknown #
coedge $-1 $166 $106 $262 $265 forward $175 $-1 #
coedge $-1 $106 $166 $258 $266 reversed $175 $-1 #
loop $-1 $-1 $173 $242 #
vertex $-1 $107 $267 #
vertex $-1 $107 $268 #
straight-curve $-1 76.360972930082099 0 12.631506499213414 0 1 0 I I #
face $-1 $269 $270 $25 $-1 $271 reversed single #
loop $-1 $-1 $185 $108 #
plane-surface $-1 76.360972930082099 0 0 -1 0 0 0 0 1 forward_v I I I I #
coedge $-1 $272 $273 $183 $274 forward $109 $-1 #
coedge $-1 $275 $111 $182 $274 reversed $69 $-1 #
coedge $-1 $111 $275 $112 $188 reversed $69 $-1 #
coedge $-1 $114 $276 $111 $186 forward $180 $-1 #
edge $-1 $277 -7.1877231011614962 $192 -3.6998436949423388 $185 $278 forward 7 unknown #
coedge $-1 $113 $112 $279 $280 reversed $44 $-1 #
edge $-1 $192 -76.360972930082099 $281 76.360972930082099 $184 $282 forward 7 unknown #
coedge $-1 $283 $284 $113 $190 forward $270 $-1 #
edge $-1 $193 -76.360972930082099 $285 76.360972930082099 $189 $286 forward 7 unknown #
coedge $-1 $276 $114 $284 $287 forward $180 $-1 #
vertex $-1 $115 $288 #
vertex $-1 $287 $289 #
straight-curve $-1 76.360972930082099 -14.468567162520326 -9.1436270929942562 0 -1 0 I I #
face $-1 $-1 $290 $26 $-1 $291 reversed single #
loop $-1 $-1 $122 $116 #
plane-surface $-1 0 0 12.631506499213414 0 0 1 1 0 0 forward_v I I I I #
coedge $-1 $292 $293 $294 $295 reversed $117 $-1 #
coedge $-1 $296 $119 $121 $205 forward $73 $-1 #
coedge $-1 $119 $296 $292 $297 forward $73 $-1 #
coedge $-1 $294 $122 $119 $202 forward $196 $-1 #
edge $-1 $208 5.4059862853472396 $298 15.785216658422684 $201 $299 forward 7 unknown #
coedge $-1 $300 $301 $120 $204 forward $290 $-1 #
edge $-1 $302 -37.667289134751776 $207 -30.631503611688942 $203 $303 forward 7 unknown #
edge $-1 $208 -8.2964462619568806 $302 -2.7114274142304302e-014 $121 $304 forward 7 unknown #
coedge $-1 $122 $294 $300 $305 forward $196 $-1 #
vertex $-1 $204 $306 #
vertex $-1 $123 $307 #
straight-curve $-1 -102.9382647841816 16.001587757232201 12.631506499213415 1 0 0 I I #
coedge $-1 $210 $210 $-1 $308 reversed $126 $-1 #
edge $-1 $309 0 $309 6.2831853071796004 $127 $310 forward 7 unknown #
vertex $-1 $130 $311 #
ellipse-curve $-1 -74.162749633246818 18.077433831847287 9.1136137376819963 -0.84804810408105047 0 0.52991925155115449 0.26495962577557725 0 0.42402405204052523 1 I I #
coedge $-1 $214 $214 $-1 $312 reversed $133 $-1 #
edge $-1 $313 0 $313 6.2831853071796004 $134 $314 forward 7 unknown #
vertex $-1 $137 $315 #
ellipse-curve $-1 -74.162749633246818 21.191202943769923 9.1136137376819963 -0.84804810408105047 0 0.52991925155115449 0.26495962577557725 0 0.42402405204052523 1 I I #
coedge $-1 $218 $218 $-1 $316 reversed $140 $-1 #
edge $-1 $317 0 $317 6.2831853071796004 $141 $318 forward 7 unknown #
vertex $-1 $144 $319 #
ellipse-curve $-1 -74.162749633246818 24.304972055692559 9.1136137376819963 -0.84804810408105047 0 0.52991925155115449 0.26495962577557725 0 0.42402405204052523 1 I I #
face $-1 $-1 $234 $30 $-1 $320 forward single #
loop $-1 $-1 $321 $145 #
plane-surface $-1 76.360972930082099 0 0 -1 0 0 0 0 1 forward_v I I I I #
coedge $-1 $322 $323 $324 $325 reversed $146 $-1 #
coedge $-1 $326 $148 $150 $232 forward $92 $-1 #
coedge $-1 $148 $326 $322 $327 forward $92 $-1 #
coedge $-1 $324 $151 $148 $229 forward $234 $-1 #
edge $-1 $236 4.6046615350632649 $328 11.833925267152303 $228 $329 forward 7 unknown #
coedge $-1 $330 $331 $149 $231 forward $223 $-1 #
edge $-1 $332 -103.64497887976323 $235 -96.423717707388477 $230 $333 forward 7 unknown #
edge $-1 $236 143.90641380965377 $332 152.72194586016423 $150 $334 forward 7 unknown #
coedge $-1 $151 $324 $330 $335 forward $234 $-1 #
loop $-1 $-1 $324 $222 #
vertex $-1 $231 $336 #
vertex $-1 $152 $337 #
straight-curve $-1 56.932880323218761 -12.823954936171049 12.631506499213415 -1 0 0 I I #
coedge $-1 $238 $238 $-1 $338 reversed $155 $-1 #
edge $-1 $339 0 $339 6.2831853071796004 $156 $340 forward 7 unknown #
vertex $-1 $159 $341 #
ellipse-curve $-1 73.83278225224899 -16.438586802215568 9.0208759130260194 0.81915205242281985 0 0.57357642473473569 0.86036463710210354 0 -1.2287280786342298 1 I I #
face $-1 $-1 $175 $24 $-1 $342 reversed single #
loop $-1 $-1 $258 $160 #
plane-surface $-1 0 34.344843124313421 0 0 -1 0 0 0 -1 forward_v I I I I #
coedge $-1 $343 $256 $259 $344 forward $161 $-1 #
coedge $-1 $262 $163 $164 $250 reversed $101 $-1 #
coedge $-1 $256 $343 $163 $248 reversed $161 $-1 #
edge $-1 $263 -12.631506499213414 $345 12.631506499213414 $247 $346 forward 7 unknown #
coedge $-1 $165 $164 $343 $347 forward $65 $-1 #
edge $-1 $254 -76.360972930082099 $345 76.360972930082099 $246 $348 forward 7 unknown #
coedge $-1 $259 $258 $165 $252 reversed $243 $-1 #
edge $-1 $349 -76.360972930082099 $253 76.360972930082099 $251 $350 forward 7 unknown #
vertex $-1 $167 $351 #
vertex $-1 $265 $352 #
straight-curve $-1 76.360972930082099 0 -12.631506499213414 0 -1 0 I I #
coedge $-1 $245 $247 $168 $257 reversed $161 $-1 #
edge $-1 $260 -34.344843124313421 $263 34.344843124313421 $256 $353 forward 7 unknown #
coedge $-1 $251 $169 $174 $266 forward $243 $-1 #
coedge $-1 $169 $251 $245 $344 reversed $243 $-1 #
vertex $-1 $170 $354 #
straight-curve $-1 0 34.344843124313421 12.631506499213414 -1 0 0 I I #
coedge $-1 $171 $246 $173 $265 reversed $101 $-1 #
vertex $-1 $257 $355 #
straight-curve $-1 0 -34.344843124313421 12.631506499213414 1 0 0 I I #
edge $-1 $176 -12.631506499213414 $254 12.631506499213414 $173 $356 forward 7 unknown #
edge $-1 $177 -12.631506499213414 $253 12.631506499213414 $174 $357 forward 7 unknown #
point $-1 76.360972930082099 -34.344843124313421 12.631506499213414 #
point $-1 76.360972930082099 34.344843124313421 12.631506499213414 #
face $-1 $-1 $358 $25 $-1 $359 reversed single #
loop $-1 $-1 $189 $179 #
plane-surface $-1 0 -34.344843124313421 0 0 1 0 0 0 1 forward_v I I I I #
coedge $-1 $360 $182 $276 $361 forward $109 $-1 #
coedge $-1 $182 $360 $362 $363 forward $109 $-1 #
edge $-1 $364 -76.360972930082099 $277 76.360972930082099 $182 $365 forward 7 unknown #
coedge $-1 $184 $183 $366 $367 reversed $69 $-1 #
coedge $-1 $185 $191 $272 $361 reversed $180 $-1 #
vertex $-1 $361 $368 #
straight-curve $-1 76.360972930082099 -23.529425525767884 -5.4437833980519175 0 0 1 I I #
coedge $-1 $366 $369 $187 $280 forward $358 $-1 #
edge $-1 $285 -19.876275961793095 $281 -9.0608583632475579 $279 $370 forward 7 unknown #
vertex $-1 $280 $371 #
straight-curve $-1 0 -23.529425525767884 -9.1436270929942562 -1 0 0 I I #
coedge $-1 $372 $189 $369 $373 forward $270 $-1 #
coedge $-1 $189 $372 $191 $287 reversed $270 $-1 #
vertex $-1 $373 $374 #
straight-curve $-1 0 -34.344843124313421 -9.1436270929942562 -1 0 0 I I #
edge $-1 $193 9.1436270929942562 $375 12.631506499213414 $191 $376 forward 7 unknown #
point $-1 76.360972930082099 -23.529425525767884 -9.1436270929942562 #
point $-1 76.360972930082099 -34.344843124313421 -9.1436270929942562 #
loop $-1 $-1 $203 $195 #
plane-surface $-1 -76.360972930082099 0 0 1 0 0 0 0 -1 forward_v I I I I #
coedge $-1 $293 $198 $200 $297 reversed $117 $-1 #
coedge $-1 $198 $292 $377 $378 reversed $117 $-1 #
coedge $-1 $206 $201 $198 $295 forward $196 $-1 #
edge $-1 $298 -30.973738447770046 $379 -26.577291854099499 $294 $380 forward 7 unknown #
coedge $-1 $200 $199 $301 $381 reversed $73 $-1 #
edge $-1 $382 2.7114274142304302e-014 $298 8.2964462619568806 $292 $383 forward 7 unknown #
vertex $-1 $202 $384 #
straight-curve $-1 -71.964526336411538 10.595601471884962 12.631506499213412 0 1 0 I I #
coedge $-1 $377 $203 $206 $305 reversed $290 $-1 #
coedge $-1 $203 $377 $296 $381 forward $290 $-1 #
vertex $-1 $204 $385 #
straight-curve $-1 -76.360972930082099 16.001587757232201 43.263010110902357 0 0 1 I I #
straight-curve $-1 -76.360972930082113 16.001587757232201 5.5957209761505595 -0.52991925155115449 0 -0.84804810408105047 I I #
edge $-1 $379 -26.380818130307645 $207 -16.001587757232201 $300 $386 forward 7 unknown #
point $-1 -76.360972930082099 16.001587757232201 12.631506499213414 #
point $-1 -71.964526336411552 16.001587757232201 12.631506499213414 #
edge $-1 $387 1 $387 0 $210 $-1 forward 7 unknown #
vertex $-1 $211 $388 #
ellipse-curve $-1 -72.906503808972701 18.077433831847287 8.3286242497507992 -0.84804810408105047 0 0.52991925155115449 0.26495962577557725 0 0.42402405204052523 1 I I #
point $-1 -73.897790007471244 18.077433831847287 9.5376377897225204 #
edge $-1 $389 1 $389 0 $214 $-1 forward 7 unknown #
vertex $-1 $215 $390 #
ellipse-curve $-1 -72.906503808972701 21.191202943769923 8.3286242497507992 -0.84804810408105047 0 0.52991925155115449 0.26495962577557725 0 0.42402405204052523 1 I I #
point $-1 -73.897790007471244 21.191202943769923 9.5376377897225204 #
edge $-1 $391 1 $391 0 $218 $-1 forward 7 unknown #
vertex $-1 $219 $392 #
ellipse-curve $-1 -72.906503808972701 24.304972055692559 8.3286242497507992 -0.84804810408105047 0 0.52991925155115449 0.26495962577557725 0 0.42402405204052523 1 I I #
point $-1 -73.897790007471244 24.304972055692559 9.5376377897225204 #
plane-surface $-1 0 0 12.631506499213414 0 0 1 1 0 0 forward_v I I I I #
coedge $-1 $331 $330 $323 $393 forward $223 $-1 #
coedge $-1 $323 $225 $227 $327 reversed $146 $-1 #
coedge $-1 $225 $322 $321 $393 reversed $146 $-1 #
coedge $-1 $233 $228 $225 $325 forward $234 $-1 #
edge $-1 $328 14.371711251197091 $394 19.428092606863338 $324 $395 forward 7 unknown #
coedge $-1 $227 $226 $331 $396 reversed $92 $-1 #
edge $-1 $397 -152.72194586016423 $328 -143.90641380965377 $322 $398 forward 7 unknown #
vertex $-1 $229 $399 #
straight-curve $-1 71.304591574415852 -8.2192934011077838 12.631506499213415 0 -1 0 I I #
coedge $-1 $321 $230 $233 $335 reversed $223 $-1 #
coedge $-1 $230 $321 $326 $396 forward $223 $-1 #
vertex $-1 $231 $400 #
straight-curve $-1 76.360972930082099 -12.823954936171049 109.05522420660189 0 0 1 I I #
straight-curve $-1 -11.23673475492275 -12.823954936171049 130.51274072819893 0.57357642473473569 0 -0.81915205242281985 I I #
edge $-1 $394 -20.053218668260087 $235 -12.823954936171049 $330 $401 forward 7 unknown #
point $-1 76.360972930082099 -12.823954936171049 12.631506499213414 #
point $-1 71.304591574415852 -12.823954936171049 12.63150649921343 #
edge $-1 $402 1 $402 0 $238 $-1 forward 7 unknown #
vertex $-1 $239 $403 #
ellipse-curve $-1 71.175681687782784 -16.438586802215568 7.1603541241597588 0.81915205242281985 0 0.57357642473473569 0.86036463710210354 0 -1.2287280786342298 1 I I #
point $-1 74.693146889351098 -16.438586802215568 7.7921478343917929 #
plane-surface $-1 76.360972930082099 0 0 -1 0 0 0 0 1 forward_v I I I I #
coedge $-1 $247 $245 $249 $347 reversed $161 $-1 #
edge $-1 $260 -12.631506499213414 $349 12.631506499213414 $259 $404 forward 7 unknown #
vertex $-1 $347 $405 #
straight-curve $-1 -76.360972930082099 -34.344843124313421 0 0 0 -1 I I #
edge $-1 $345 -34.344843124313421 $349 34.344843124313421 $343 $406 forward 7 unknown #
straight-curve $-1 0 -34.344843124313421 -12.631506499213414 -1 0 0 I I #
vertex $-1 $252 $407 #
straight-curve $-1 0 34.344843124313421 -12.631506499213414 1 0 0 I I #
point $-1 76.360972930082099 34.344843124313421 -12.631506499213414 #
point $-1 76.360972930082099 -34.344843124313421 -12.631506499213414 #
straight-curve $-1 -76.360972930082099 0 12.631506499213414 0 -1 0 I I #
point $-1 -76.360972930082099 34.344843124313421 12.631506499213414 #
point $-1 -76.360972930082099 -34.344843124313421 12.631506499213414 #
straight-curve $-1 76.360972930082099 -34.344843124313421 0 0 0 -1 I I #
straight-curve $-1 76.360972930082099 34.344843124313421 0 0 0 -1 I I #
loop $-1 $-1 $366 $269 #
plane-surface $-1 -76.360972930082099 0 0 1 0 0 0 0 -1 forward_v I I I I #
coedge $-1 $273 $272 $372 $408 forward $109 $-1 #
edge $-1 $277 23.529425525767884 $375 34.344843124313421 $276 $409 forward 7 unknown #
coedge $-1 $369 $366 $273 $363 reversed $358 $-1 #
edge $-1 $410 -34.344843124313421 $364 -23.529425525767884 $362 $411 forward 7 unknown #
vertex $-1 $367 $412 #
straight-curve $-1 0 -23.529425525767884 -12.631506499213414 1 0 0 I I #
coedge $-1 $362 $279 $275 $367 forward $358 $-1 #
edge $-1 $281 3.6998436949423388 $364 7.1877231011614962 $366 $413 forward 7 unknown #
point $-1 76.360972930082099 -23.529425525767884 -12.631506499213414 #
coedge $-1 $279 $362 $283 $373 reversed $358 $-1 #
straight-curve $-1 -76.360972930082099 -14.468567162520326 -9.1436270929942562 0 1 0 I I #
point $-1 -76.360972930082099 -23.529425525767884 -9.1436270929942562 #
coedge $-1 $284 $283 $360 $408 reversed $270 $-1 #
edge $-1 $285 9.1436270929942562 $410 12.631506499213414 $369 $414 forward 7 unknown #
point $-1 -76.360972930082099 -34.344843124313421 -9.1436270929942562 #
vertex $-1 $287 $415 #
straight-curve $-1 76.360972930082099 -34.344843124313421 0 0 0 -1 I I #
coedge $-1 $301 $300 $293 $378 forward $290 $-1 #
edge $-1 $379 30.631503611688942 $382 37.667289134751776 $377 $416 forward 7 unknown #
vertex $-1 $305 $417 #
straight-curve $-1 -102.9382647841816 26.380818130307645 12.631506499213415 -1 0 0 I I #
edge $-1 $382 -15.785216658422684 $302 -5.4059862853472396 $301 $418 forward 7 unknown #
vertex $-1 $381 $419 #
straight-curve $-1 -76.360972930082113 26.380818130307645 5.5957209761505595 0.52991925155115449 0 0.84804810408105047 I I #
point $-1 -71.964526336411552 26.380818130307645 12.631506499213414 #
point $-1 -76.360972930082099 16.001587757232201 5.5957209761505826 #
straight-curve $-1 -76.360972930082099 0 12.631506499213414 0 -1 0 I I #
vertex $-1 $308 $420 #
point $-1 -72.641544183197126 18.077433831847287 8.7526483017913232 #
vertex $-1 $312 $421 #
point $-1 -72.641544183197126 21.191202943769923 8.7526483017913232 #
vertex $-1 $316 $422 #
point $-1 -72.641544183197126 24.304972055692559 8.7526483017913232 #
edge $-1 $394 96.423717707388477 $397 103.64497887976323 $321 $423 forward 7 unknown #
vertex $-1 $335 $424 #
straight-curve $-1 56.932880323218761 -20.053218668260087 12.631506499213415 1 0 0 I I #
edge $-1 $397 -11.833925267152303 $332 -4.6046615350632649 $331 $425 forward 7 unknown #
vertex $-1 $396 $426 #
straight-curve $-1 -11.23673475492275 -20.053218668260087 130.51274072819893 -0.57357642473473569 0 0.81915205242281985 I I #
point $-1 71.304591574415852 -20.053218668260087 12.63150649921343 #
point $-1 76.360972930082099 -12.823954936171049 5.4102453268386625 #
straight-curve $-1 76.360972930082099 0 12.631506499213414 0 1 0 I I #
vertex $-1 $338 $427 #
point $-1 72.036046324884893 -16.438586802215568 5.9316260455255296 #
straight-curve $-1 -76.360972930082099 34.344843124313421 0 0 0 -1 I I #
point $-1 -76.360972930082099 -34.344843124313421 -12.631506499213414 #
straight-curve $-1 -76.360972930082099 0 -12.631506499213414 0 1 0 I I #
point $-1 -76.360972930082099 34.344843124313421 -12.631506499213414 #
edge $-1 $375 -76.360972930082099 $410 76.360972930082099 $372 $428 forward 7 unknown #
straight-curve $-1 76.360972930082099 0 -12.631506499213414 0 -1 0 I I #
vertex $-1 $363 $429 #
straight-curve $-1 -76.360972930082099 0 -12.631506499213414 0 1 0 I I #
point $-1 -76.360972930082099 -23.529425525767884 -12.631506499213414 #
straight-curve $-1 -76.360972930082099 -23.529425525767884 -5.4437833980519175 0 0 -1 I I #
straight-curve $-1 -76.360972930082099 -34.344843124313421 0 0 0 -1 I I #
point $-1 76.360972930082099 -34.344843124313421 -12.631506499213414 #
straight-curve $-1 -76.360972930082099 26.380818130307645 43.263010110902357 0 0 -1 I I #
point $-1 -76.360972930082099 26.380818130307645 12.631506499213414 #
straight-curve $-1 -76.360972930082099 10.595601471884962 5.595720976150595 0 -1 0 I I #
point $-1 -76.360972930082099 26.380818130307645 5.5957209761505826 #
point $-1 -72.482479756932179 18.077433831847287 8.063664623975221 #
point $-1 -72.482479756932179 21.191202943769923 8.063664623975221 #
point $-1 -72.482479756932179 24.304972055692559 8.063664623975221 #
straight-curve $-1 76.360972930082099 -20.053218668260087 109.05522420660189 0 0 -1 I I #
point $-1 76.360972930082099 -20.053218668260087 12.631506499213414 #
straight-curve $-1 76.360972930082113 -8.2192934011077838 5.4102453268386483 0 1 0 I I #
point $-1 76.360972930082099 -20.053218668260087 5.4102453268386625 #
point $-1 69.946953609148565 -16.438586802215568 6.2999894870576556 #
straight-curve $-1 0 -34.344843124313421 -12.631506499213414 -1 0 0 I I #
point $-1 -76.360972930082099 -34.344843124313421 -12.631506499213414 #
End-of-ACIS-data 