500 0 2 0           
7 Unknown 11 ACIS 5.0 NT 24 Fri Mar 26 18:12:52 1999 
-1 9.9999999999999995e-007 1e-010 
body $-1 $2 $-1 $3 #
body $-1 $4 $-1 $5 #
lump $-1 $-1 $6 $0 #
transform $-1 1 0 0 0 1 0 0 0 1 79.763176366466269 49.91825777387546 19.012264326675876 1 rotate no_reflect no_shear #
lump $-1 $-1 $7 $1 #
transform $-1 1 0 0 0 1 0 0 0 1 9.3024090233574945 49.91825777387546 28.326963426928035 1 rotate no_reflect no_shear #
shell $-1 $-1 $-1 $8 $-1 $2 #
shell $-1 $-1 $-1 $9 $-1 $4 #
face $-1 $10 $11 $6 $-1 $12 forward single #
face $-1 $13 $14 $7 $-1 $15 forward single #
face $-1 $16 $17 $6 $-1 $18 reversed single #
loop $-1 $-1 $19 $8 #
plane-surface $-1 0 0 19.012264326675876 0 0 1 1 0 0 forward_v I I I I #
face $-1 $20 $21 $7 $-1 $22 reversed single #
loop $-1 $-1 $23 $9 #
plane-surface $-1 0 0 4.342004993921126 0 0 1 1 0 0 forward_v I I I I #
face $-1 $24 $25 $6 $-1 $26 reversed single #
loop $-1 $-1 $27 $10 #
plane-surface $-1 0 0 -19.012264326675876 0 0 1 1 0 0 forward_v I I I I #
coedge $-1 $28 $29 $30 $31 forward $11 $-1 #
face $-1 $32 $33 $7 $-1 $34 reversed single #
loop $-1 $-1 $35 $13 #
plane-surface $-1 0 0 -4.342004993921126 0 0 1 1 0 0 forward_v I I I I #
coedge $-1 $36 $37 $38 $39 forward $14 $-1 #
face $-1 $40 $41 $6 $-1 $42 reversed single #
loop $-1 $-1 $43 $16 #
plane-surface $-1 0 -49.91825777387546 0 0 1 0 0 0 1 forward_v I I I I #
coedge $-1 $44 $45 $46 $47 forward $17 $-1 #
coedge $-1 $48 $19 $49 $50 forward $11 $-1 #
coedge $-1 $19 $48 $51 $52 forward $11 $-1 #
coedge $-1 $53 $54 $19 $31 reversed $55 $-1 #
edge $-1 $56 -49.91825777387546 $57 49.91825777387546 $30 $58 forward 7 unknown #
face $-1 $59 $60 $7 $-1 $61 reversed single #
loop $-1 $-1 $62 $20 #
plane-surface $-1 0 -49.91825777387546 0 0 1 0 0 0 1 forward_v I I I I #
coedge $-1 $63 $64 $65 $66 forward $21 $-1 #
coedge $-1 $67 $23 $68 $69 forward $14 $-1 #
coedge $-1 $23 $67 $70 $71 forward $14 $-1 #
coedge $-1 $72 $73 $23 $39 reversed $74 $-1 #
edge $-1 $75 -49.91825777387546 $76 49.91825777387546 $38 $77 forward 7 unknown #
face $-1 $78 $79 $6 $-1 $80 reversed single #
loop $-1 $-1 $81 $24 #
plane-surface $-1 -79.763176366466269 0 0 1 0 0 0 0 -1 forward_v I I I I #
coedge $-1 $82 $51 $83 $84 forward $25 $-1 #
coedge $-1 $85 $27 $82 $86 forward $17 $-1 #
coedge $-1 $27 $85 $87 $88 forward $17 $-1 #
coedge $-1 $54 $53 $27 $47 reversed $55 $-1 #
edge $-1 $89 -49.91825777387546 $90 49.91825777387546 $46 $91 forward 7 unknown #
coedge $-1 $29 $28 $92 $93 forward $11 $-1 #
coedge $-1 $94 $95 $28 $50 reversed $79 $-1 #
edge $-1 $57 -79.763176366466269 $96 79.763176366466269 $49 $97 forward 7 unknown #
coedge $-1 $43 $98 $29 $52 reversed $25 $-1 #
edge $-1 $99 -79.763176366466269 $56 79.763176366466269 $51 $100 forward 7 unknown #
coedge $-1 $46 $30 $98 $101 forward $55 $-1 #
coedge $-1 $30 $46 $94 $102 reversed $55 $-1 #
loop $-1 $-1 $53 $78 #
vertex $-1 $31 $103 #
vertex $-1 $31 $104 #
straight-curve $-1 79.763176366466269 0 19.012264326675876 0 1 0 I I #
face $-1 $105 $106 $7 $-1 $107 reversed single #
loop $-1 $-1 $108 $32 #
plane-surface $-1 -9.3024090233574945 0 0 1 0 0 0 0 -1 forward_v I I I I #
coedge $-1 $109 $70 $110 $111 forward $33 $-1 #
coedge $-1 $112 $35 $109 $113 forward $21 $-1 #
coedge $-1 $35 $112 $114 $115 forward $21 $-1 #
coedge $-1 $73 $72 $35 $66 reversed $74 $-1 #
edge $-1 $116 -49.91825777387546 $117 49.91825777387546 $65 $118 forward 7 unknown #
coedge $-1 $37 $36 $119 $120 forward $14 $-1 #
coedge $-1 $121 $122 $36 $69 reversed $106 $-1 #
edge $-1 $76 -9.3024090233574945 $123 9.3024090233574945 $68 $124 forward 7 unknown #
coedge $-1 $62 $125 $37 $71 reversed $33 $-1 #
edge $-1 $126 -9.3024090233574945 $75 9.3024090233574945 $70 $127 forward 7 unknown #
coedge $-1 $65 $38 $125 $128 forward $74 $-1 #
coedge $-1 $38 $65 $121 $129 reversed $74 $-1 #
loop $-1 $-1 $72 $105 #
vertex $-1 $39 $130 #
vertex $-1 $39 $131 #
straight-curve $-1 9.3024090233574945 0 4.342004993921126 0 1 0 I I #
face $-1 $-1 $55 $6 $-1 $132 reversed single #
loop $-1 $-1 $94 $40 #
plane-surface $-1 0 49.91825777387546 0 0 -1 0 0 0 -1 forward_v I I I I #
coedge $-1 $133 $92 $95 $134 forward $41 $-1 #
coedge $-1 $98 $43 $44 $86 reversed $25 $-1 #
coedge $-1 $92 $133 $43 $84 reversed $41 $-1 #
edge $-1 $99 -19.012264326675876 $135 19.012264326675876 $83 $136 forward 7 unknown #
coedge $-1 $45 $44 $133 $137 forward $17 $-1 #
edge $-1 $90 -79.763176366466269 $135 79.763176366466269 $82 $138 forward 7 unknown #
coedge $-1 $95 $94 $45 $88 reversed $79 $-1 #
edge $-1 $139 -79.763176366466269 $89 79.763176366466269 $87 $140 forward 7 unknown #
vertex $-1 $47 $141 #
vertex $-1 $101 $142 #
straight-curve $-1 79.763176366466269 0 -19.012264326675876 0 -1 0 I I #
coedge $-1 $81 $83 $48 $93 reversed $41 $-1 #
edge $-1 $96 -49.91825777387546 $99 49.91825777387546 $92 $143 forward 7 unknown #
coedge $-1 $87 $49 $54 $102 forward $79 $-1 #
coedge $-1 $49 $87 $81 $134 reversed $79 $-1 #
vertex $-1 $50 $144 #
straight-curve $-1 0 49.91825777387546 19.012264326675876 -1 0 0 I I #
coedge $-1 $51 $82 $53 $101 reversed $25 $-1 #
vertex $-1 $93 $145 #
straight-curve $-1 0 -49.91825777387546 19.012264326675876 1 0 0 I I #
edge $-1 $56 -19.012264326675876 $90 19.012264326675876 $53 $146 forward 7 unknown #
edge $-1 $57 -19.012264326675876 $89 19.012264326675876 $54 $147 forward 7 unknown #
point $-1 79.763176366466269 -49.91825777387546 19.012264326675876 #
point $-1 79.763176366466269 49.91825777387546 19.012264326675876 #
face $-1 $-1 $74 $7 $-1 $148 reversed single #
loop $-1 $-1 $121 $59 #
plane-surface $-1 0 49.91825777387546 0 0 -1 0 0 0 -1 forward_v I I I I #
coedge $-1 $149 $119 $122 $150 forward $60 $-1 #
coedge $-1 $125 $62 $63 $113 reversed $33 $-1 #
coedge $-1 $119 $149 $62 $111 reversed $60 $-1 #
edge $-1 $126 -4.342004993921126 $151 4.342004993921126 $110 $152 forward 7 unknown #
coedge $-1 $64 $63 $149 $153 forward $21 $-1 #
edge $-1 $117 -9.3024090233574945 $151 9.3024090233574945 $109 $154 forward 7 unknown #
coedge $-1 $122 $121 $64 $115 reversed $106 $-1 #
edge $-1 $155 -9.3024090233574945 $116 9.3024090233574945 $114 $156 forward 7 unknown #
vertex $-1 $66 $157 #
vertex $-1 $128 $158 #
straight-curve $-1 9.3024090233574945 0 -4.342004993921126 0 -1 0 I I #
coedge $-1 $108 $110 $67 $120 reversed $60 $-1 #
edge $-1 $123 -49.91825777387546 $126 49.91825777387546 $119 $159 forward 7 unknown #
coedge $-1 $114 $68 $73 $129 forward $106 $-1 #
coedge $-1 $68 $114 $108 $150 reversed $106 $-1 #
vertex $-1 $69 $160 #
straight-curve $-1 0 49.91825777387546 4.342004993921126 -1 0 0 I I #
coedge $-1 $70 $109 $72 $128 reversed $33 $-1 #
vertex $-1 $120 $161 #
straight-curve $-1 0 -49.91825777387546 4.342004993921126 1 0 0 I I #
edge $-1 $75 -4.342004993921126 $117 4.342004993921126 $72 $162 forward 7 unknown #
edge $-1 $76 -4.342004993921126 $116 4.342004993921126 $73 $163 forward 7 unknown #
point $-1 9.3024090233574945 -49.91825777387546 4.342004993921126 #
point $-1 9.3024090233574945 49.91825777387546 4.342004993921126 #
plane-surface $-1 79.763176366466269 0 0 -1 0 0 0 0 1 forward_v I I I I #
coedge $-1 $83 $81 $85 $137 reversed $41 $-1 #
edge $-1 $96 -19.012264326675876 $139 19.012264326675876 $95 $164 forward 7 unknown #
vertex $-1 $137 $165 #
straight-curve $-1 -79.763176366466269 -49.91825777387546 0 0 0 -1 I I #
edge $-1 $135 -49.91825777387546 $139 49.91825777387546 $133 $166 forward 7 unknown #
straight-curve $-1 0 -49.91825777387546 -19.012264326675876 -1 0 0 I I #
vertex $-1 $88 $167 #
straight-curve $-1 0 49.91825777387546 -19.012264326675876 1 0 0 I I #
point $-1 79.763176366466269 49.91825777387546 -19.012264326675876 #
point $-1 79.763176366466269 -49.91825777387546 -19.012264326675876 #
straight-curve $-1 -79.763176366466269 0 19.012264326675876 0 -1 0 I I #
point $-1 -79.763176366466269 49.91825777387546 19.012264326675876 #
point $-1 -79.763176366466269 -49.91825777387546 19.012264326675876 #
straight-curve $-1 79.763176366466269 -49.91825777387546 0 0 0 -1 I I #
straight-curve $-1 79.763176366466269 49.91825777387546 0 0 0 -1 I I #
plane-surface $-1 9.3024090233574945 0 0 -1 0 0 0 0 1 forward_v I I I I #
coedge $-1 $110 $108 $112 $153 reversed $60 $-1 #
edge $-1 $123 -4.342004993921126 $155 4.342004993921126 $122 $168 forward 7 unknown #
vertex $-1 $153 $169 #
straight-curve $-1 -9.3024090233574945 -49.91825777387546 0 0 0 -1 I I #
edge $-1 $151 -49.91825777387546 $155 49.91825777387546 $149 $170 forward 7 unknown #
straight-curve $-1 0 -49.91825777387546 -4.342004993921126 -1 0 0 I I #
vertex $-1 $115 $171 #
straight-curve $-1 0 49.91825777387546 -4.342004993921126 1 0 0 I I #
point $-1 9.3024090233574945 49.91825777387546 -4.342004993921126 #
point $-1 9.3024090233574945 -49.91825777387546 -4.342004993921126 #
straight-curve $-1 -9.3024090233574945 0 4.342004993921126 0 -1 0 I I #
point $-1 -9.3024090233574945 49.91825777387546 4.342004993921126 #
point $-1 -9.3024090233574945 -49.91825777387546 4.342004993921126 #
straight-curve $-1 9.3024090233574945 -49.91825777387546 0 0 0 -1 I I #
straight-curve $-1 9.3024090233574945 49.91825777387546 0 0 0 -1 I I #
straight-curve $-1 -79.763176366466269 49.91825777387546 0 0 0 -1 I I #
point $-1 -79.763176366466269 -49.91825777387546 -19.012264326675876 #
straight-curve $-1 -79.763176366466269 0 -19.012264326675876 0 1 0 I I #
point $-1 -79.763176366466269 49.91825777387546 -19.012264326675876 #
straight-curve $-1 -9.3024090233574945 49.91825777387546 0 0 0 -1 I I #
point $-1 -9.3024090233574945 -49.91825777387546 -4.342004993921126 #
straight-curve $-1 -9.3024090233574945 0 -4.342004993921126 0 1 0 I I #
point $-1 -9.3024090233574945 49.91825777387546 -4.342004993921126 #
End-of-ACIS-data 