500 0 8 0           
7 Unknown 11 ACIS 5.0 NT 24 Fri Mar 26 01:26:04 1999 
-1 9.9999999999999995e-007 1e-010 
body $-1 $8 $-1 $9 #
body $-1 $10 $-1 $11 #
body $-1 $12 $-1 $13 #
body $-1 $14 $-1 $15 #
body $-1 $16 $-1 $17 #
body $-1 $18 $-1 $19 #
body $-1 $20 $-1 $21 #
body $-1 $22 $-1 $23 #
lump $-1 $-1 $24 $0 #
transform $-1 1 0 0 0 1 0 0 0 1 60.154423657948541 31.049647456636716 10.778255868122461 1 rotate no_reflect no_shear #
lump $-1 $-1 $25 $1 #
transform $-1 1 0 0 0 1 0 0 0 1 60.154423657948541 31.049647456636716 10.778255868122461 1 rotate no_reflect no_shear #
lump $-1 $-1 $26 $2 #
transform $-1 1 0 0 0 1 0 0 0 1 60.154423657948541 31.049647456636716 10.778255868122461 1 rotate no_reflect no_shear #
lump $-1 $-1 $27 $3 #
transform $-1 1 0 0 0 1 0 0 0 1 60.154423657948541 31.049647456636716 10.778255868122461 1 rotate no_reflect no_shear #
lump $-1 $-1 $28 $4 #
transform $-1 1 0 0 0 1 0 0 0 1 60.154423657948541 31.049647456636716 10.778255868122461 1 rotate no_reflect no_shear #
lump $-1 $-1 $29 $5 #
transform $-1 1 0 0 0 1 0 0 0 1 60.154423657948541 31.049647456636716 10.778255868122461 1 rotate no_reflect no_shear #
lump $-1 $-1 $30 $6 #
transform $-1 1 0 0 0 1 0 0 0 1 60.154423657948541 31.049647456636716 10.778255868122461 1 rotate no_reflect no_shear #
lump $-1 $-1 $31 $7 #
transform $-1 1 0 0 0 1 0 0 0 1 60.154423657948541 31.049647456636716 10.778255868122461 1 rotate no_reflect no_shear #
shell $-1 $-1 $-1 $32 $-1 $8 #
shell $-1 $-1 $-1 $33 $-1 $10 #
shell $-1 $-1 $-1 $34 $-1 $12 #
shell $-1 $-1 $-1 $35 $-1 $14 #
shell $-1 $-1 $-1 $36 $-1 $16 #
shell $-1 $-1 $-1 $37 $-1 $18 #
shell $-1 $-1 $-1 $38 $-1 $20 #
shell $-1 $-1 $-1 $39 $-1 $22 #
face $-1 $40 $41 $24 $-1 $42 forward single #
face $-1 $43 $44 $25 $-1 $45 forward single #
face $-1 $46 $47 $26 $-1 $48 reversed single #
face $-1 $49 $50 $27 $-1 $51 forward single #
face $-1 $52 $53 $28 $-1 $54 forward single #
face $-1 $55 $56 $29 $-1 $57 reversed single #
face $-1 $58 $59 $30 $-1 $60 forward single #
face $-1 $61 $62 $31 $-1 $63 forward single #
face $-1 $64 $65 $24 $-1 $66 reversed single #
loop $-1 $-1 $67 $32 #
plane-surface $-1 0 0 10.778255868122461 0 0 1 1 0 0 forward_v I I I I #
face $-1 $68 $69 $25 $-1 $70 reversed single #
loop $-1 $-1 $71 $33 #
plane-surface $-1 -53.730495005618124 0 6.2423144112247968 0 0 1 1 0 0 forward_v I I I I #
face $-1 $72 $73 $26 $-1 $74 reversed single #
loop $-1 $-1 $75 $34 #
plane-surface $-1 -35.461326423721871 -22.179837284038349 32.107177114853144 0 0.51503808176128008 0.85716729658548041 1 0 0 forward_v I I I I #
face $-1 $76 $77 $27 $-1 $78 forward single #
loop $-1 $79 $80 $35 #
cone-surface $-1 -40.537857822107227 19.880847983173023 1.6186296849438175 0 -0.51503808176128008 -0.85716729658548041 3 0 0 1 I I 0 1 3 forward I I I I #
face $-1 $81 $82 $28 $-1 $83 forward single #
loop $-1 $84 $85 $36 #
cone-surface $-1 -30.384795025336519 19.880847983173023 1.6186296849438175 0 -0.51503808176128008 -0.85716729658548041 3 0 0 1 I I 0 1 3 forward I I I I #
face $-1 $86 $87 $29 $-1 $88 reversed single #
loop $-1 $-1 $89 $37 #
plane-surface $-1 1.8482730020581997 -103.45332010606866 103.42415480918916 1 0 0 0 0.6018150307709319 -0.79863550430605224 forward_v I I I I #
face $-1 $90 $91 $30 $-1 $92 forward single #
loop $-1 $93 $94 $38 #
cone-surface $-1 9.2534014889923526 -28.388031749607705 8.5540402460728124 0 0.6018150307709319 -0.79863550430605224 1 0 0 1 I I 0 1 1 forward I I I I #
face $-1 $95 $96 $31 $-1 $97 forward single #
loop $-1 $98 $99 $39 #
cone-surface $-1 20.361094219393564 -28.388031749607705 8.5540402460728124 0 0.6018150307709319 -0.79863550430605224 1 0 0 1 I I 0 1 1 forward I I I I #
face $-1 $100 $101 $24 $-1 $102 reversed single #
loop $-1 $-1 $103 $40 #
plane-surface $-1 0 0 -10.778255868122461 0 0 1 1 0 0 forward_v I I I I #
coedge $-1 $104 $105 $106 $107 forward $41 $-1 #
face $-1 $108 $109 $25 $-1 $110 reversed single #
loop $-1 $-1 $111 $43 #
plane-surface $-1 -53.730495005618124 0 2.4707965385871269 0 0 1 1 0 0 forward_v I I I I #
coedge $-1 $112 $113 $114 $115 forward $44 $-1 #
face $-1 $116 $117 $26 $-1 $118 forward single #
loop $-1 $-1 $119 $46 #
plane-surface $-1 -23.61608649415604 39.783800656452016 135.23198652393597 -1 0 0 0 0.51503808176128008 0.85716729658548041 forward_v I I I I #
coedge $-1 $120 $121 $122 $123 reversed $47 $-1 #
face $-1 $-1 $124 $27 $-1 $125 forward single #
loop $-1 $126 $127 $49 #
cone-surface $-1 -40.537857822107227 16.805591072941585 -3.4994572010482159 0 -0.51503808176128008 -0.85716729658548041 1.5 0 0 1 I I -0.70710678118654757 0.70710678118654757 1.5 forward I I I I #
loop $-1 $-1 $128 $35 #
coedge $-1 $80 $80 $129 $130 reversed $50 $-1 #
face $-1 $-1 $131 $28 $-1 $132 forward single #
loop $-1 $133 $134 $52 #
cone-surface $-1 -30.384795025336519 16.805591072941585 -3.4994572010482159 0 -0.51503808176128008 -0.85716729658548041 1.5 0 0 1 I I -0.70710678118654757 0.70710678118654757 1.5 forward I I I I #
loop $-1 $-1 $135 $36 #
coedge $-1 $85 $85 $136 $137 reversed $53 $-1 #
face $-1 $138 $139 $29 $-1 $140 reversed single #
loop $-1 $-1 $141 $55 #
plane-surface $-1 14.807247854192951 -31.049647456636706 7.3412378605778628 0 -0.6018150307709319 0.79863550430605224 1 0 0 forward_v I I I I #
coedge $-1 $142 $143 $144 $145 reversed $56 $-1 #
face $-1 $-1 $146 $30 $-1 $147 forward single #
loop $-1 $148 $149 $58 #
cone-surface $-1 9.2534014889923526 -27.706046956291679 7.64901587564243 0 0.6018150307709319 -0.79863550430605224 0.5 0 0 1 I I -0.70710678118654746 0.70710678118654746 0.5 forward I I I I #
loop $-1 $-1 $150 $38 #
coedge $-1 $94 $94 $151 $152 reversed $59 $-1 #
face $-1 $-1 $153 $31 $-1 $154 forward single #
loop $-1 $155 $156 $61 #
cone-surface $-1 20.361094219393564 -27.706046956291679 7.64901587564243 0 0.6018150307709319 -0.79863550430605224 0.5 0 0 1 I I -0.70710678118654746 0.70710678118654746 0.5 forward I I I I #
loop $-1 $-1 $157 $39 #
coedge $-1 $99 $99 $158 $159 reversed $62 $-1 #
face $-1 $160 $161 $24 $-1 $162 reversed single #
loop $-1 $-1 $163 $64 #
plane-surface $-1 0 -31.049647456636716 0 0 1 0 0 0 1 forward_v I I I I #
coedge $-1 $164 $165 $166 $167 forward $65 $-1 #
coedge $-1 $168 $67 $169 $170 forward $41 $-1 #
coedge $-1 $67 $168 $171 $172 forward $41 $-1 #
coedge $-1 $173 $174 $67 $107 reversed $175 $-1 #
edge $-1 $176 -31.049647456636716 $177 31.049647456636716 $106 $178 forward 7 unknown #
face $-1 $179 $180 $25 $-1 $181 reversed single #
loop $-1 $-1 $182 $68 #
plane-surface $-1 -47.306566353287707 0 4.3565554749059618 -1 0 0 0 0 1 forward_v I I I I #
coedge $-1 $183 $184 $185 $186 forward $69 $-1 #
coedge $-1 $187 $71 $188 $189 reversed $44 $-1 #
coedge $-1 $71 $187 $190 $191 reversed $44 $-1 #
coedge $-1 $182 $192 $71 $115 reversed $109 $-1 #
edge $-1 $193 -31.049647456636716 $194 31.049647456636716 $114 $195 forward 7 unknown #
face $-1 $196 $197 $26 $-1 $198 forward single #
loop $-1 $-1 $199 $72 #
plane-surface $-1 -47.306566353287707 0 4.3565554749059618 -1 0 0 0 0 1 forward_v I I I I #
coedge $-1 $200 $201 $202 $203 reversed $73 $-1 #
coedge $-1 $204 $75 $199 $205 forward $47 $-1 #
coedge $-1 $75 $204 $200 $206 forward $47 $-1 #
coedge $-1 $202 $207 $75 $123 forward $197 $-1 #
edge $-1 $208 -29.575903141426771 $209 -5.885423282295104 $122 $210 forward 7 unknown #
loop $-1 $-1 $129 $76 #
plane-surface $-1 -35.461326423721871 -22.179837284038349 32.107177114853144 0 0.51503808176128008 0.85716729658548041 1 0 0 forward_v I I I I #
loop $-1 $-1 $211 $49 #
coedge $-1 $127 $127 $128 $212 reversed $77 $-1 #
coedge $-1 $128 $128 $127 $212 forward $79 $-1 #
coedge $-1 $129 $129 $80 $130 forward $124 $-1 #
edge $-1 $213 7.5804143187909382e-016 $213 6.2831853071796013 $129 $214 forward 7 unknown #
loop $-1 $-1 $136 $81 #
plane-surface $-1 -35.461326423721871 -22.179837284038349 32.107177114853144 0 0.51503808176128008 0.85716729658548041 1 0 0 forward_v I I I I #
loop $-1 $-1 $215 $52 #
coedge $-1 $134 $134 $135 $216 reversed $82 $-1 #
coedge $-1 $135 $135 $134 $216 forward $84 $-1 #
coedge $-1 $136 $136 $85 $137 forward $131 $-1 #
edge $-1 $217 7.5804143187909382e-016 $217 6.2831853071796013 $136 $218 forward 7 unknown #
face $-1 $219 $220 $29 $-1 $221 reversed single #
loop $-1 $-1 $222 $86 #
plane-surface $-1 27.766222706327703 -103.45332010606866 103.42415480918916 -1 0 0 0 -0.6018150307709319 0.79863550430605224 forward_v I I I I #
coedge $-1 $223 $224 $225 $226 reversed $87 $-1 #
coedge $-1 $143 $89 $227 $228 reversed $56 $-1 #
coedge $-1 $89 $142 $223 $229 reversed $56 $-1 #
coedge $-1 $225 $230 $89 $145 forward $220 $-1 #
edge $-1 $231 40.933821536472124 $232 44.370839544016725 $144 $233 forward 7 unknown #
loop $-1 $-1 $151 $90 #
plane-surface $-1 14.807247854192951 -31.049647456636706 7.3412378605778628 0 -0.6018150307709319 0.79863550430605224 1 0 0 forward_v I I I I #
loop $-1 $-1 $234 $58 #
coedge $-1 $149 $149 $150 $235 reversed $91 $-1 #
coedge $-1 $150 $150 $149 $235 forward $93 $-1 #
coedge $-1 $151 $151 $94 $152 forward $146 $-1 #
edge $-1 $236 -1.0287021198248255e-015 $236 6.2831853071795996 $151 $237 forward 7 unknown #
loop $-1 $-1 $158 $95 #
plane-surface $-1 14.807247854192951 -31.049647456636706 7.3412378605778628 0 -0.6018150307709319 0.79863550430605224 1 0 0 forward_v I I I I #
loop $-1 $-1 $238 $61 #
coedge $-1 $156 $156 $157 $239 reversed $96 $-1 #
coedge $-1 $157 $157 $156 $239 forward $98 $-1 #
coedge $-1 $158 $158 $99 $159 forward $153 $-1 #
edge $-1 $240 -1.0287021198248255e-015 $240 6.2831853071795996 $158 $241 forward 7 unknown #
face $-1 $242 $243 $24 $-1 $244 reversed single #
loop $-1 $-1 $245 $100 #
plane-surface $-1 -60.154423657948541 0 0 1 0 0 0 0 -1 forward_v I I I I #
coedge $-1 $246 $171 $247 $248 forward $101 $-1 #
coedge $-1 $249 $103 $246 $250 forward $65 $-1 #
coedge $-1 $103 $249 $251 $252 forward $65 $-1 #
coedge $-1 $174 $173 $103 $167 reversed $175 $-1 #
edge $-1 $253 -31.049647456636716 $254 31.049647456636716 $166 $255 forward 7 unknown #
coedge $-1 $105 $104 $256 $257 forward $41 $-1 #
coedge $-1 $258 $259 $104 $170 reversed $243 $-1 #
edge $-1 $177 -60.154423657948541 $260 60.154423657948541 $169 $261 forward 7 unknown #
coedge $-1 $163 $262 $105 $172 reversed $101 $-1 #
edge $-1 $263 -60.154423657948541 $176 60.154423657948541 $171 $264 forward 7 unknown #
coedge $-1 $166 $106 $262 $265 forward $175 $-1 #
coedge $-1 $106 $166 $258 $266 reversed $175 $-1 #
loop $-1 $-1 $173 $242 #
vertex $-1 $107 $267 #
vertex $-1 $107 $268 #
straight-curve $-1 60.154423657948541 0 10.778255868122461 0 1 0 I I #
face $-1 $269 $270 $25 $-1 $271 reversed single #
loop $-1 $-1 $272 $108 #
plane-surface $-1 0 -31.049647456636716 0 0 1 0 0 0 1 forward_v I I I I #
coedge $-1 $185 $114 $273 $274 reversed $109 $-1 #
coedge $-1 $275 $111 $272 $276 reversed $69 $-1 #
coedge $-1 $111 $275 $277 $278 reversed $69 $-1 #
coedge $-1 $192 $182 $111 $186 reversed $109 $-1 #
edge $-1 $279 -31.049647456636716 $280 31.049647456636716 $185 $281 forward 7 unknown #
coedge $-1 $113 $112 $282 $283 reversed $44 $-1 #
coedge $-1 $284 $285 $112 $189 forward $286 $-1 #
edge $-1 $287 -33.289176155139479 $194 -20.441318850478645 $188 $288 forward 7 unknown #
coedge $-1 $289 $273 $113 $191 forward $180 $-1 #
edge $-1 $193 20.441318850478645 $290 33.289176155139479 $190 $291 forward 7 unknown #
coedge $-1 $114 $185 $284 $292 reversed $109 $-1 #
vertex $-1 $191 $293 #
vertex $-1 $189 $294 #
straight-curve $-1 -47.306566353287707 0 6.2423144112247968 0 1 0 I I #
face $-1 $-1 $295 $26 $-1 $296 reversed single #
loop $-1 $-1 $202 $116 #
plane-surface $-1 0 0 10.778255868122461 0 0 1 1 0 0 forward_v I I I I #
coedge $-1 $297 $298 $120 $205 reversed $117 $-1 #
coedge $-1 $201 $119 $121 $206 reversed $73 $-1 #
coedge $-1 $119 $200 $299 $300 reversed $73 $-1 #
coedge $-1 $301 $122 $119 $203 forward $197 $-1 #
edge $-1 $209 -6.5744522433376673 $302 11.157747128410708 $202 $303 forward 7 unknown #
coedge $-1 $121 $120 $304 $305 reversed $47 $-1 #
edge $-1 $208 41.412318820759801 $306 62.099294913273432 $199 $307 forward 7 unknown #
edge $-1 $308 -62.099294913273432 $209 -41.412318820759801 $200 $309 forward 7 unknown #
coedge $-1 $122 $301 $297 $310 forward $197 $-1 #
vertex $-1 $310 $311 #
vertex $-1 $123 $312 #
straight-curve $-1 -17.730663211860936 13.317448084888333 10.778255868122461 1 0 0 I I #
coedge $-1 $211 $211 $-1 $313 reversed $126 $-1 #
edge $-1 $314 0 $314 6.2831853071796004 $127 $315 forward 7 unknown #
vertex $-1 $130 $316 #
ellipse-curve $-1 -40.537857822107227 22.183547770762534 5.4509656260576156 0 0.51503808176128008 0.85716729658548041 3 0 0 1 I I #
coedge $-1 $215 $215 $-1 $317 reversed $133 $-1 #
edge $-1 $318 0 $318 6.2831853071796004 $134 $319 forward 7 unknown #
vertex $-1 $137 $320 #
ellipse-curve $-1 -30.384795025336519 22.183547770762534 5.4509656260576156 0 0.51503808176128008 0.85716729658548041 3 0 0 1 I I #
face $-1 $-1 $321 $29 $-1 $322 forward single #
loop $-1 $-1 $144 $138 #
plane-surface $-1 0 -31.049647456636716 0 0 1 0 0 0 1 forward_v I I I I #
coedge $-1 $323 $324 $325 $326 reversed $139 $-1 #
coedge $-1 $327 $141 $143 $229 forward $87 $-1 #
coedge $-1 $141 $327 $323 $328 forward $87 $-1 #
coedge $-1 $325 $144 $141 $226 forward $220 $-1 #
edge $-1 $232 -5.555350925038276 $329 20.362598779231227 $225 $330 forward 7 unknown #
coedge $-1 $331 $332 $142 $228 forward $321 $-1 #
edge $-1 $333 -25.23808945459454 $231 -20.677012596397613 $227 $334 forward 7 unknown #
edge $-1 $232 -1.3322641948408722e-014 $333 5.7110870147954582 $143 $335 forward 7 unknown #
coedge $-1 $144 $325 $331 $336 reversed $220 $-1 #
vertex $-1 $336 $337 #
vertex $-1 $145 $338 #
straight-curve $-1 1.8482730020581997 -31.04964745663672 51.712077404594581 0 0 -1 I I #
coedge $-1 $234 $234 $-1 $339 reversed $148 $-1 #
edge $-1 $340 0 $340 6.2831853071796004 $149 $341 forward 7 unknown #
vertex $-1 $152 $342 #
ellipse-curve $-1 9.2534014889923526 -28.769109027538256 9.0597468643501546 0 -0.6018150307709319 0.79863550430605224 1 0 0 1 I I #
coedge $-1 $238 $238 $-1 $343 reversed $155 $-1 #
edge $-1 $344 0 $344 6.2831853071796004 $156 $345 forward 7 unknown #
vertex $-1 $159 $346 #
ellipse-curve $-1 20.361094219393564 -28.769109027538256 9.0597468643501546 0 -0.6018150307709319 0.79863550430605224 1 0 0 1 I I #
face $-1 $-1 $175 $24 $-1 $347 reversed single #
loop $-1 $-1 $258 $160 #
plane-surface $-1 0 31.049647456636716 0 0 -1 0 0 0 -1 forward_v I I I I #
coedge $-1 $348 $256 $259 $349 forward $161 $-1 #
coedge $-1 $262 $163 $164 $250 reversed $101 $-1 #
coedge $-1 $256 $348 $163 $248 reversed $161 $-1 #
edge $-1 $263 -10.778255868122461 $350 10.778255868122461 $247 $351 forward 7 unknown #
coedge $-1 $165 $164 $348 $352 forward $65 $-1 #
edge $-1 $254 -60.154423657948541 $350 60.154423657948541 $246 $353 forward 7 unknown #
coedge $-1 $259 $258 $165 $252 reversed $243 $-1 #
edge $-1 $354 -60.154423657948541 $253 60.154423657948541 $251 $355 forward 7 unknown #
vertex $-1 $167 $356 #
vertex $-1 $265 $357 #
straight-curve $-1 60.154423657948541 0 -10.778255868122461 0 -1 0 I I #
coedge $-1 $245 $247 $168 $257 reversed $161 $-1 #
edge $-1 $260 -31.049647456636716 $263 31.049647456636716 $256 $358 forward 7 unknown #
coedge $-1 $251 $169 $174 $266 forward $243 $-1 #
coedge $-1 $169 $251 $245 $349 reversed $243 $-1 #
vertex $-1 $170 $359 #
straight-curve $-1 0 31.049647456636716 10.778255868122461 -1 0 0 I I #
coedge $-1 $171 $246 $173 $265 reversed $101 $-1 #
vertex $-1 $257 $360 #
straight-curve $-1 0 -31.049647456636716 10.778255868122461 1 0 0 I I #
edge $-1 $176 -10.778255868122461 $254 10.778255868122461 $173 $361 forward 7 unknown #
edge $-1 $177 -10.778255868122461 $253 10.778255868122461 $174 $362 forward 7 unknown #
point $-1 60.154423657948541 -31.049647456636716 10.778255868122461 #
point $-1 60.154423657948541 31.049647456636716 10.778255868122461 #
face $-1 $-1 $286 $25 $-1 $363 reversed single #
loop $-1 $-1 $364 $179 #
plane-surface $-1 -60.154423657948541 0 0 1 0 0 0 0 -1 forward_v I I I I #
coedge $-1 $273 $289 $183 $276 forward $180 $-1 #
coedge $-1 $190 $272 $182 $274 forward $180 $-1 #
edge $-1 $280 0.29251880113414597 $193 4.0640366737718159 $273 $365 forward 7 unknown #
coedge $-1 $184 $183 $364 $366 reversed $69 $-1 #
edge $-1 $367 -33.289176155139479 $280 -20.441318850478645 $272 $368 forward 7 unknown #
coedge $-1 $285 $284 $184 $278 forward $286 $-1 #
edge $-1 $279 20.441318850478645 $369 33.289176155139479 $277 $370 forward 7 unknown #
vertex $-1 $278 $371 #
vertex $-1 $276 $372 #
straight-curve $-1 -47.306566353287707 0 2.4707965385871269 0 -1 0 I I #
coedge $-1 $373 $374 $187 $283 forward $270 $-1 #
edge $-1 $290 -31.049647456636716 $287 31.049647456636716 $282 $375 forward 7 unknown #
coedge $-1 $277 $188 $192 $292 forward $286 $-1 #
coedge $-1 $188 $277 $373 $376 reversed $286 $-1 #
loop $-1 $-1 $277 $269 #
vertex $-1 $376 $377 #
straight-curve $-1 -26.865247502809062 31.049647456636716 6.2423144112247968 1 0 0 I I #
coedge $-1 $272 $190 $374 $378 forward $180 $-1 #
vertex $-1 $378 $379 #
straight-curve $-1 -26.865247502809062 -31.049647456636716 6.2423144112247968 -1 0 0 I I #
edge $-1 $194 -4.0640366737718159 $279 -0.29251880113414597 $284 $380 forward 7 unknown #
point $-1 -47.306566353287707 -31.049647456636716 6.2423144112247968 #
point $-1 -47.306566353287707 31.049647456636716 6.2423144112247968 #
loop $-1 $-1 $381 $196 #
plane-surface $-1 0 31.049647456636716 0 0 -1 0 0 0 -1 forward_v I I I I #
coedge $-1 $298 $199 $207 $310 reversed $117 $-1 #
coedge $-1 $199 $297 $381 $382 reversed $117 $-1 #
coedge $-1 $304 $383 $201 $300 forward $295 $-1 #
edge $-1 $302 56.837737393845529 $308 67.492317877975211 $299 $384 forward 7 unknown #
coedge $-1 $207 $202 $383 $385 forward $197 $-1 #
vertex $-1 $385 $386 #
straight-curve $-1 -23.61608649415604 19.891900328226008 10.778255868122457 0 1 0 I I #
coedge $-1 $381 $299 $204 $305 forward $295 $-1 #
edge $-1 $308 5.885423282295104 $306 29.575903141426771 $304 $387 forward 7 unknown #
vertex $-1 $382 $388 #
straight-curve $-1 -47.306566353287707 -22.179837284038349 32.107177114853144 0 0.85716729658548041 -0.51503808176128008 I I #
vertex $-1 $305 $389 #
straight-curve $-1 -23.61608649415604 -22.179837284038349 32.107177114853144 0 -0.85716729658548041 0.51503808176128008 I I #
edge $-1 $390 -11.157747128410708 $208 6.5744522433376673 $207 $391 forward 7 unknown #
point $-1 -47.306566353287707 13.317448084888341 10.778255868122461 #
point $-1 -23.61608649415604 13.317448084888341 10.778255868122461 #
edge $-1 $392 1 $392 0 $211 $-1 forward 7 unknown #
vertex $-1 $212 $393 #
ellipse-curve $-1 -40.537857822107227 17.578148195583505 -2.2137062561699952 0 0.51503808176128008 0.85716729658548041 3 0 0 1 I I #
point $-1 -37.537857822107227 22.183547770762544 5.4509656260576289 #
edge $-1 $394 1 $394 0 $215 $-1 forward 7 unknown #
vertex $-1 $216 $395 #
ellipse-curve $-1 -30.384795025336519 17.578148195583505 -2.2137062561699952 0 0.51503808176128008 0.85716729658548041 3 0 0 1 I I #
point $-1 -27.384795025336519 22.183547770762544 5.4509656260576289 #
loop $-1 $-1 $227 $219 #
plane-surface $-1 0 0 10.778255868122461 0 0 1 1 0 0 forward_v I I I I #
coedge $-1 $324 $222 $224 $328 reversed $139 $-1 #
coedge $-1 $222 $323 $396 $397 reversed $139 $-1 #
coedge $-1 $230 $225 $222 $326 forward $220 $-1 #
edge $-1 $329 -44.370839544016725 $398 -40.933821536472124 $325 $399 forward 7 unknown #
coedge $-1 $224 $223 $332 $400 reversed $87 $-1 #
edge $-1 $401 -5.7110870147954582 $329 1.3322641948408722e-014 $323 $402 forward 7 unknown #
vertex $-1 $226 $403 #
straight-curve $-1 7.4036239270964757 -31.049647456636716 7.3412378605778548 1 0 0 I I #
coedge $-1 $396 $227 $230 $336 forward $321 $-1 #
coedge $-1 $227 $396 $327 $400 forward $321 $-1 #
vertex $-1 $228 $404 #
straight-curve $-1 1.8482730020581997 -51.72666005303433 10.778255868122464 0 -1 0 I I #
straight-curve $-1 1.8482730020581997 -31.049647456636706 7.3412378605778628 0 0.79863550430605224 0.6018150307709319 I I #
edge $-1 $231 1.8482730020581997 $398 27.766222706327703 $230 $405 forward 7 unknown #
point $-1 1.8482730020581997 -31.049647456636716 10.778255868122461 #
point $-1 1.8482730020581997 -31.049647456636716 7.3412378605778548 #
edge $-1 $406 1 $406 0 $234 $-1 forward 7 unknown #
vertex $-1 $235 $407 #
ellipse-curve $-1 9.2534014889923526 -28.006954471677144 8.048333627795456 0 -0.6018150307709319 0.79863550430605224 1 0 0 1 I I #
point $-1 10.253401488992353 -28.769109027538267 9.0597468643501671 #
edge $-1 $408 1 $408 0 $238 $-1 forward 7 unknown #
vertex $-1 $239 $409 #
ellipse-curve $-1 20.361094219393564 -28.006954471677144 8.048333627795456 0 -0.6018150307709319 0.79863550430605224 1 0 0 1 I I #
point $-1 21.361094219393564 -28.769109027538267 9.0597468643501671 #
plane-surface $-1 60.154423657948541 0 0 -1 0 0 0 0 1 forward_v I I I I #
coedge $-1 $247 $245 $249 $352 reversed $161 $-1 #
edge $-1 $260 -10.778255868122461 $354 10.778255868122461 $259 $410 forward 7 unknown #
vertex $-1 $352 $411 #
straight-curve $-1 -60.154423657948541 -31.049647456636716 0 0 0 -1 I I #
edge $-1 $350 -31.049647456636716 $354 31.049647456636716 $348 $412 forward 7 unknown #
straight-curve $-1 0 -31.049647456636716 -10.778255868122461 -1 0 0 I I #
vertex $-1 $252 $413 #
straight-curve $-1 0 31.049647456636716 -10.778255868122461 1 0 0 I I #
point $-1 60.154423657948541 31.049647456636716 -10.778255868122461 #
point $-1 60.154423657948541 -31.049647456636716 -10.778255868122461 #
straight-curve $-1 -60.154423657948541 0 10.778255868122461 0 -1 0 I I #
point $-1 -60.154423657948541 31.049647456636716 10.778255868122461 #
point $-1 -60.154423657948541 -31.049647456636716 10.778255868122461 #
straight-curve $-1 60.154423657948541 -31.049647456636716 0 0 0 -1 I I #
straight-curve $-1 60.154423657948541 31.049647456636716 0 0 0 -1 I I #
plane-surface $-1 0 31.049647456636716 0 0 -1 0 0 0 -1 forward_v I I I I #
coedge $-1 $374 $373 $275 $366 forward $270 $-1 #
straight-curve $-1 -47.306566353287707 -31.049647456636716 2.1782777374529809 0 0 1 I I #
edge $-1 $369 -31.049647456636716 $367 31.049647456636716 $364 $414 forward 7 unknown #
vertex $-1 $276 $415 #
straight-curve $-1 -26.865247502809062 -31.049647456636716 2.4707965385871269 1 0 0 I I #
vertex $-1 $278 $416 #
straight-curve $-1 -26.865247502809062 31.049647456636716 2.4707965385871269 -1 0 0 I I #
point $-1 -47.306566353287707 31.049647456636716 2.4707965385871269 #
point $-1 -47.306566353287707 -31.049647456636716 2.4707965385871269 #
coedge $-1 $364 $282 $285 $376 forward $270 $-1 #
coedge $-1 $282 $364 $289 $378 reversed $270 $-1 #
straight-curve $-1 -60.154423657948541 0 6.2423144112247968 0 1 0 I I #
edge $-1 $287 -6.2423144112247968 $369 -2.4707965385871269 $285 $417 forward 7 unknown #
point $-1 -60.154423657948541 31.049647456636716 6.2423144112247968 #
edge $-1 $290 -6.2423144112247968 $367 -2.4707965385871269 $374 $418 forward 7 unknown #
point $-1 -60.154423657948541 -31.049647456636716 6.2423144112247968 #
straight-curve $-1 -47.306566353287707 31.049647456636716 2.1782777374529809 0 0 -1 I I #
coedge $-1 $383 $304 $298 $382 forward $295 $-1 #
edge $-1 $306 -67.492317877975211 $390 -56.837737393845529 $381 $419 forward 7 unknown #
coedge $-1 $299 $381 $301 $385 reversed $295 $-1 #
straight-curve $-1 -23.61608649415604 31.049647456636716 67.615993261967986 0 0 -1 I I #
edge $-1 $302 23.61608649415604 $390 47.306566353287707 $383 $420 forward 7 unknown #
point $-1 -23.61608649415604 31.049647456636716 10.778255868122461 #
straight-curve $-1 -17.730663211860936 31.049647456636713 0.12367538399277933 -1 0 0 I I #
point $-1 -47.306566353287707 31.049647456636713 0.12367538399277933 #
point $-1 -23.61608649415604 31.049647456636713 0.12367538399277933 #
vertex $-1 $310 $421 #
straight-curve $-1 -47.306566353287707 19.891900328226008 10.778255868122457 0 -1 0 I I #
vertex $-1 $313 $422 #
point $-1 -37.537857822107227 17.578148195583505 -2.2137062561699952 #
vertex $-1 $317 $423 #
point $-1 -27.384795025336519 17.578148195583505 -2.2137062561699952 #
coedge $-1 $332 $331 $324 $397 forward $321 $-1 #
edge $-1 $398 20.677012596397613 $401 25.23808945459454 $396 $424 forward 7 unknown #
vertex $-1 $397 $425 #
straight-curve $-1 27.766222706327703 -31.04964745663672 51.712077404594581 0 0 1 I I #
edge $-1 $401 -20.362598779231227 $333 5.555350925038276 $332 $426 forward 7 unknown #
vertex $-1 $400 $427 #
straight-curve $-1 27.766222706327703 -31.049647456636706 7.3412378605778628 0 -0.79863550430605224 -0.6018150307709319 I I #
point $-1 27.766222706327703 -31.049647456636716 7.3412378605778548 #
point $-1 1.8482730020581997 -26.488570598439789 10.778255868122461 #
straight-curve $-1 0 -31.049647456636716 10.778255868122461 1 0 0 I I #
vertex $-1 $339 $428 #
point $-1 10.253401488992353 -28.006954471677144 8.048333627795456 #
vertex $-1 $343 $429 #
point $-1 21.361094219393564 -28.006954471677144 8.048333627795456 #
straight-curve $-1 -60.154423657948541 31.049647456636716 0 0 0 -1 I I #
point $-1 -60.154423657948541 -31.049647456636716 -10.778255868122461 #
straight-curve $-1 -60.154423657948541 0 -10.778255868122461 0 1 0 I I #
point $-1 -60.154423657948541 31.049647456636716 -10.778255868122461 #
straight-curve $-1 -60.154423657948541 0 2.4707965385871269 0 -1 0 I I #
point $-1 -60.154423657948541 -31.049647456636716 2.4707965385871269 #
point $-1 -60.154423657948541 31.049647456636716 2.4707965385871269 #
straight-curve $-1 -60.154423657948541 31.049647456636716 0 0 0 -1 I I #
straight-curve $-1 -60.154423657948541 -31.049647456636716 0 0 0 -1 I I #
straight-curve $-1 -47.306566353287707 31.049647456636716 67.615993261967986 0 0 1 I I #
straight-curve $-1 0 31.049647456636716 10.778255868122461 -1 0 0 I I #
point $-1 -47.306566353287707 31.049647456636716 10.778255868122461 #
point $-1 -40.537857822107227 16.033033950299664 -4.7852081459264362 #
point $-1 -30.384795025336519 16.033033950299664 -4.7852081459264362 #
straight-curve $-1 27.766222706327703 -51.72666005303433 10.778255868122464 0 1 0 I I #
point $-1 27.766222706327703 -31.049647456636716 10.778255868122461 #
straight-curve $-1 7.4036239270964757 -26.488570598439789 10.778255868122461 -1 0 0 I I #
point $-1 27.766222706327703 -26.488570598439789 10.778255868122461 #
point $-1 9.2534014889923526 -27.405139440906215 7.249698123489404 #
point $-1 20.361094219393564 -27.405139440906215 7.249698123489404 #
End-of-ACIS-data 