500 0 9 0           
7 Unknown 11 ACIS 5.0 NT 24 Fri Mar 26 15:40:25 1999 
-1 9.9999999999999995e-007 1e-010 
body $-1 $9 $-1 $10 #
body $-1 $11 $-1 $12 #
body $-1 $13 $-1 $14 #
body $-1 $15 $-1 $16 #
body $-1 $17 $-1 $18 #
body $-1 $19 $-1 $20 #
body $-1 $21 $-1 $22 #
body $-1 $23 $-1 $24 #
body $-1 $25 $-1 $26 #
lump $-1 $-1 $27 $0 #
transform $-1 1 0 0 0 1 0 0 0 1 49.927060762352369 27.373261104027229 7.3931279471581339 1 rotate no_reflect no_shear #
lump $-1 $-1 $28 $1 #
transform $-1 1 0 0 0 1 0 0 0 1 49.927060762352369 27.373261104027229 7.3931279471581339 1 rotate no_reflect no_shear #
lump $-1 $-1 $29 $2 #
transform $-1 1 0 0 0 1 0 0 0 1 49.927060762352369 27.373261104027229 7.3931279471581339 1 rotate no_reflect no_shear #
lump $-1 $-1 $30 $3 #
transform $-1 1 0 0 0 1 0 0 0 1 49.927060762352369 27.373261104027229 7.3931279471581339 1 rotate no_reflect no_shear #
lump $-1 $-1 $31 $4 #
transform $-1 1 0 0 0 1 0 0 0 1 49.927060762352369 27.373261104027229 7.3931279471581339 1 rotate no_reflect no_shear #
lump $-1 $-1 $32 $5 #
transform $-1 1 0 0 0 1 0 0 0 1 49.927060762352369 27.373261104027229 7.3931279471581339 1 rotate no_reflect no_shear #
lump $-1 $-1 $33 $6 #
transform $-1 1 0 0 0 1 0 0 0 1 49.927060762352369 27.373261104027229 7.3931279471581339 1 rotate no_reflect no_shear #
lump $-1 $-1 $34 $7 #
transform $-1 1 0 0 0 1 0 0 0 1 49.927060762352369 27.373261104027229 7.3931279471581339 1 rotate no_reflect no_shear #
lump $-1 $-1 $35 $8 #
transform $-1 1 0 0 0 1 0 0 0 1 49.927060762352369 27.373261104027229 7.3931279471581339 1 rotate no_reflect no_shear #
shell $-1 $-1 $-1 $36 $-1 $9 #
shell $-1 $-1 $-1 $37 $-1 $11 #
shell $-1 $-1 $-1 $38 $-1 $13 #
shell $-1 $-1 $-1 $39 $-1 $15 #
shell $-1 $-1 $-1 $40 $-1 $17 #
shell $-1 $-1 $-1 $41 $-1 $19 #
shell $-1 $-1 $-1 $42 $-1 $21 #
shell $-1 $-1 $-1 $43 $-1 $23 #
shell $-1 $-1 $-1 $44 $-1 $25 #
face $-1 $45 $46 $27 $-1 $47 forward single #
face $-1 $48 $49 $28 $-1 $50 forward single #
face $-1 $51 $52 $29 $-1 $53 reversed single #
face $-1 $54 $55 $30 $-1 $56 forward single #
face $-1 $57 $58 $31 $-1 $59 forward single #
face $-1 $60 $61 $32 $-1 $62 reversed single #
face $-1 $63 $64 $33 $-1 $65 forward single #
face $-1 $66 $67 $34 $-1 $68 forward single #
face $-1 $69 $70 $35 $-1 $71 forward single #
face $-1 $72 $73 $27 $-1 $74 reversed single #
loop $-1 $-1 $75 $36 #
plane-surface $-1 0 0 7.3931279471581339 0 0 1 1 0 0 forward_v I I I I #
face $-1 $76 $77 $28 $-1 $78 reversed single #
loop $-1 $-1 $79 $37 #
plane-surface $-1 -47.041033336016945 0 -3.8931279471581339 0 0 1 1 0 0 forward_v I I I I #
face $-1 $80 $81 $29 $-1 $82 reversed single #
loop $-1 $-1 $83 $38 #
plane-surface $-1 38.195443091669574 75.977745441545494 107.19524102785651 1 0 0 0 -0.80901700255871778 -0.5877852410284794 forward_v I I I I #
face $-1 $84 $85 $30 $-1 $86 forward single #
loop $-1 $87 $88 $39 #
cone-surface $-1 41.547333854721799 25.812993084190669 5.5084687743130134 0 -0.80901700255871778 -0.5877852410284794 0.5 0 0 1 I I 0 1 0.5 forward I I I I #
face $-1 $89 $90 $31 $-1 $91 forward single #
loop $-1 $92 $93 $40 #
cone-surface $-1 46.575169999300144 25.812993084190669 5.5084687743130134 0 -0.80901700255871778 -0.5877852410284794 0.5 0 0 1 I I 0 1 0.5 forward I I I I #
face $-1 $94 $95 $32 $-1 $96 reversed single #
loop $-1 $-1 $97 $41 #
plane-surface $-1 35.719857064038401 -81.757714206060726 88.076971735775871 -1 0 0 0 -0.54463904215088732 0.83867056331134215 forward_v I I I I #
face $-1 $98 $99 $33 $-1 $100 forward single #
loop $-1 $101 $102 $42 #
cone-surface $-1 24.628814028645095 -24.51445302722087 5.0894566590657799 0 0.54463904215088732 -0.83867056331134215 1 0 0 1 I I 0 1 1 forward I I I I #
face $-1 $103 $104 $34 $-1 $105 forward single #
loop $-1 $106 $107 $43 #
cone-surface $-1 28.787955166917584 -24.51445302722087 5.0894566590657799 0 0.54463904215088732 -0.83867056331134215 1 0 0 1 I I 0 1 1 forward I I I I #
face $-1 $108 $109 $35 $-1 $110 forward single #
loop $-1 $111 $112 $44 #
cone-surface $-1 32.947096305190072 -24.51445302722087 5.0894566590657799 0 0.54463904215088732 -0.83867056331134215 1 0 0 1 I I 0 1 1 forward I I I I #
face $-1 $113 $114 $27 $-1 $115 reversed single #
loop $-1 $-1 $116 $45 #
plane-surface $-1 0 0 -7.3931279471581339 0 0 1 1 0 0 forward_v I I I I #
coedge $-1 $117 $118 $119 $120 forward $46 $-1 #
face $-1 $121 $122 $28 $-1 $123 reversed single #
loop $-1 $-1 $124 $48 #
plane-surface $-1 -47.041033336016945 0 -6.8931279471581339 0 0 1 1 0 0 forward_v I I I I #
coedge $-1 $125 $126 $127 $128 forward $49 $-1 #
face $-1 $129 $130 $29 $-1 $131 forward single #
loop $-1 $-1 $132 $51 #
plane-surface $-1 44.061251927010971 -4.805936647505078 48.502462139770863 0 0.80901700255871778 0.5877852410284794 1 0 0 forward_v I I I I #
coedge $-1 $133 $134 $135 $136 reversed $52 $-1 #
face $-1 $-1 $137 $30 $-1 $138 forward single #
loop $-1 $139 $140 $54 #
cone-surface $-1 41.547333854721799 25.20623033227163 5.0676298435416536 0 -0.80901700255871778 -0.5877852410284794 0.25 0 0 1 I I -0.70710678118654746 0.70710678118654746 0.25 forward I I I I #
loop $-1 $-1 $141 $39 #
coedge $-1 $88 $88 $142 $143 reversed $55 $-1 #
face $-1 $-1 $144 $31 $-1 $145 forward single #
loop $-1 $146 $147 $57 #
cone-surface $-1 46.575169999300144 25.20623033227163 5.0676298435416536 0 -0.80901700255871778 -0.5877852410284794 0.25 0 0 1 I I -0.70710678118654746 0.70710678118654746 0.25 forward I I I I #
loop $-1 $-1 $148 $40 #
coedge $-1 $93 $93 $149 $150 reversed $58 $-1 #
face $-1 $151 $152 $32 $-1 $153 reversed single #
loop $-1 $-1 $154 $60 #
plane-surface $-1 28.787955166917584 -27.373261104027236 4.332259387692531 0 -0.54463904215088732 0.83867056331134215 1 0 0 forward_v I I I I #
coedge $-1 $155 $156 $157 $158 reversed $61 $-1 #
face $-1 $-1 $159 $33 $-1 $160 forward single #
loop $-1 $161 $162 $63 #
cone-surface $-1 24.628814028645095 -23.739987512221681 3.8968843690505617 0 0.54463904215088732 -0.83867056331134215 0.5 0 0 1 I I -0.70710678118654746 0.70710678118654746 0.5 forward I I I I #
loop $-1 $-1 $163 $42 #
coedge $-1 $102 $102 $164 $165 reversed $64 $-1 #
face $-1 $-1 $166 $34 $-1 $167 forward single #
loop $-1 $168 $169 $66 #
cone-surface $-1 28.787955166917584 -23.739987512221681 3.8968843690505617 0 0.54463904215088732 -0.83867056331134215 0.5 0 0 1 I I -0.70710678118654746 0.70710678118654746 0.5 forward I I I I #
loop $-1 $-1 $170 $43 #
coedge $-1 $107 $107 $171 $172 reversed $67 $-1 #
face $-1 $-1 $173 $35 $-1 $174 forward single #
loop $-1 $175 $176 $69 #
cone-surface $-1 32.947096305190072 -23.739987512221681 3.8968843690505617 0 0.54463904215088732 -0.83867056331134215 0.5 0 0 1 I I -0.70710678118654746 0.70710678118654746 0.5 forward I I I I #
loop $-1 $-1 $177 $44 #
coedge $-1 $112 $112 $178 $179 reversed $70 $-1 #
face $-1 $180 $181 $27 $-1 $182 reversed single #
loop $-1 $-1 $183 $72 #
plane-surface $-1 0 -27.373261104027229 0 0 1 0 0 0 1 forward_v I I I I #
coedge $-1 $184 $185 $186 $187 forward $73 $-1 #
coedge $-1 $188 $75 $189 $190 forward $46 $-1 #
coedge $-1 $75 $188 $191 $192 forward $46 $-1 #
coedge $-1 $193 $194 $75 $120 reversed $195 $-1 #
edge $-1 $196 -27.373261104027229 $197 27.373261104027229 $119 $198 forward 7 unknown #
face $-1 $199 $200 $28 $-1 $201 reversed single #
loop $-1 $-1 $202 $76 #
plane-surface $-1 -44.15500590968152 0 -5.3931279471581339 -1 0 0 0 0 1 forward_v I I I I #
coedge $-1 $203 $204 $205 $206 forward $77 $-1 #
coedge $-1 $207 $79 $208 $209 reversed $49 $-1 #
coedge $-1 $79 $207 $210 $211 reversed $49 $-1 #
coedge $-1 $202 $212 $79 $128 reversed $122 $-1 #
edge $-1 $213 -27.373261104027229 $214 27.373261104027229 $127 $215 forward 7 unknown #
face $-1 $216 $217 $29 $-1 $218 reversed single #
loop $-1 $-1 $135 $80 #
plane-surface $-1 0 0 7.3931279471581339 0 0 1 1 0 0 forward_v I I I I #
coedge $-1 $219 $220 $221 $222 reversed $81 $-1 #
coedge $-1 $134 $83 $223 $224 reversed $52 $-1 #
coedge $-1 $83 $133 $219 $225 reversed $52 $-1 #
coedge $-1 $221 $226 $83 $136 forward $130 $-1 #
edge $-1 $227 10.615611616745518 $228 12.927130653859933 $135 $229 forward 7 unknown #
loop $-1 $-1 $142 $84 #
plane-surface $-1 44.061251927010971 -4.805936647505078 48.502462139770863 0 0.80901700255871778 0.5877852410284794 1 0 0 forward_v I I I I #
loop $-1 $-1 $230 $54 #
coedge $-1 $140 $140 $141 $231 reversed $85 $-1 #
coedge $-1 $141 $141 $140 $231 forward $87 $-1 #
coedge $-1 $142 $142 $88 $143 forward $137 $-1 #
edge $-1 $232 2.4696757961896933e-015 $232 6.2831853071796031 $142 $233 forward 7 unknown #
loop $-1 $-1 $149 $89 #
plane-surface $-1 44.061251927010971 -4.805936647505078 48.502462139770863 0 0.80901700255871778 0.5877852410284794 1 0 0 forward_v I I I I #
loop $-1 $-1 $234 $57 #
coedge $-1 $147 $147 $148 $235 reversed $90 $-1 #
coedge $-1 $148 $148 $147 $235 forward $92 $-1 #
coedge $-1 $149 $149 $93 $150 forward $144 $-1 #
edge $-1 $236 2.4696757961896933e-015 $236 6.2831853071796031 $149 $237 forward 7 unknown #
face $-1 $238 $239 $32 $-1 $240 reversed single #
loop $-1 $-1 $241 $94 #
plane-surface $-1 21.856053269796767 -81.757714206060726 88.076971735775871 1 0 0 0 0.54463904215088732 -0.83867056331134215 forward_v I I I I #
coedge $-1 $242 $243 $244 $245 reversed $95 $-1 #
coedge $-1 $156 $97 $246 $247 reversed $61 $-1 #
coedge $-1 $97 $155 $242 $248 reversed $61 $-1 #
coedge $-1 $244 $249 $97 $158 forward $250 $-1 #
edge $-1 $251 13.505595999003134 $252 18.218920164768335 $157 $253 forward 7 unknown #
loop $-1 $-1 $164 $98 #
plane-surface $-1 28.787955166917584 -27.373261104027236 4.332259387692531 0 -0.54463904215088732 0.83867056331134215 1 0 0 forward_v I I I I #
loop $-1 $-1 $254 $63 #
coedge $-1 $162 $162 $163 $255 reversed $99 $-1 #
coedge $-1 $163 $163 $162 $255 forward $101 $-1 #
coedge $-1 $164 $164 $102 $165 forward $159 $-1 #
edge $-1 $256 -3.2946360437229039e-016 $256 6.2831853071796004 $164 $257 forward 7 unknown #
loop $-1 $-1 $171 $103 #
plane-surface $-1 28.787955166917584 -27.373261104027236 4.332259387692531 0 -0.54463904215088732 0.83867056331134215 1 0 0 forward_v I I I I #
loop $-1 $-1 $258 $66 #
coedge $-1 $169 $169 $170 $259 reversed $104 $-1 #
coedge $-1 $170 $170 $169 $259 forward $106 $-1 #
coedge $-1 $171 $171 $107 $172 forward $166 $-1 #
edge $-1 $260 -3.2946360437229039e-016 $260 6.2831853071796004 $171 $261 forward 7 unknown #
loop $-1 $-1 $178 $108 #
plane-surface $-1 28.787955166917584 -27.373261104027236 4.332259387692531 0 -0.54463904215088732 0.83867056331134215 1 0 0 forward_v I I I I #
loop $-1 $-1 $262 $69 #
coedge $-1 $176 $176 $177 $263 reversed $109 $-1 #
coedge $-1 $177 $177 $176 $263 forward $111 $-1 #
coedge $-1 $178 $178 $112 $179 forward $173 $-1 #
edge $-1 $264 -3.2946360437229039e-016 $264 6.2831853071796004 $178 $265 forward 7 unknown #
face $-1 $266 $267 $27 $-1 $268 reversed single #
loop $-1 $-1 $269 $113 #
plane-surface $-1 -49.927060762352369 0 0 1 0 0 0 0 -1 forward_v I I I I #
coedge $-1 $270 $191 $271 $272 forward $114 $-1 #
coedge $-1 $273 $116 $270 $274 forward $73 $-1 #
coedge $-1 $116 $273 $275 $276 forward $73 $-1 #
coedge $-1 $194 $193 $116 $187 reversed $195 $-1 #
edge $-1 $277 -27.373261104027229 $278 27.373261104027229 $186 $279 forward 7 unknown #
coedge $-1 $118 $117 $280 $281 forward $46 $-1 #
coedge $-1 $282 $283 $117 $190 reversed $267 $-1 #
edge $-1 $197 -49.927060762352369 $284 49.927060762352369 $189 $285 forward 7 unknown #
coedge $-1 $183 $286 $118 $192 reversed $114 $-1 #
edge $-1 $287 -49.927060762352369 $196 49.927060762352369 $191 $288 forward 7 unknown #
coedge $-1 $186 $119 $286 $289 forward $195 $-1 #
coedge $-1 $119 $186 $282 $290 reversed $195 $-1 #
loop $-1 $-1 $193 $266 #
vertex $-1 $120 $291 #
vertex $-1 $120 $292 #
straight-curve $-1 49.927060762352369 0 7.3931279471581339 0 1 0 I I #
face $-1 $293 $294 $28 $-1 $295 reversed single #
loop $-1 $-1 $296 $121 #
plane-surface $-1 0 -27.373261104027229 0 0 1 0 0 0 1 forward_v I I I I #
coedge $-1 $205 $127 $297 $298 reversed $122 $-1 #
coedge $-1 $299 $124 $296 $300 reversed $77 $-1 #
coedge $-1 $124 $299 $301 $302 reversed $77 $-1 #
coedge $-1 $212 $202 $124 $206 reversed $122 $-1 #
edge $-1 $303 -27.373261104027229 $304 27.373261104027229 $205 $305 forward 7 unknown #
coedge $-1 $126 $125 $306 $307 reversed $49 $-1 #
coedge $-1 $308 $309 $125 $209 forward $310 $-1 #
edge $-1 $311 -26.406544094343896 $214 -20.634489241673048 $208 $312 forward 7 unknown #
coedge $-1 $313 $297 $126 $211 forward $200 $-1 #
edge $-1 $213 20.634489241673048 $314 26.406544094343896 $210 $315 forward 7 unknown #
coedge $-1 $127 $205 $308 $316 reversed $122 $-1 #
vertex $-1 $211 $317 #
vertex $-1 $209 $318 #
straight-curve $-1 -44.15500590968152 0 -3.8931279471581339 0 1 0 I I #
face $-1 $-1 $319 $29 $-1 $320 reversed single #
loop $-1 $-1 $321 $129 #
plane-surface $-1 49.927060762352369 0 0 -1 0 0 0 0 1 forward_v I I I I #
coedge $-1 $322 $132 $134 $225 forward $81 $-1 #
coedge $-1 $132 $322 $321 $323 reversed $81 $-1 #
coedge $-1 $324 $135 $132 $222 forward $130 $-1 #
edge $-1 $228 16.164817128164088 $325 27.896434798846883 $221 $326 forward 7 unknown #
coedge $-1 $327 $328 $133 $224 forward $319 $-1 #
edge $-1 $329 -49.386025671431909 $227 -46.204492566770121 $223 $330 forward 7 unknown #
edge $-1 $228 50.813931057807466 $329 54.746522208054486 $134 $331 forward 7 unknown #
coedge $-1 $135 $324 $327 $332 forward $130 $-1 #
vertex $-1 $224 $333 #
vertex $-1 $136 $334 #
straight-curve $-1 38.195443091669574 37.988872720772747 7.3931279471581348 0 -1 0 I I #
coedge $-1 $230 $230 $-1 $335 reversed $139 $-1 #
edge $-1 $336 0 $336 6.2831853071796004 $140 $337 forward 7 unknown #
vertex $-1 $143 $338 #
ellipse-curve $-1 41.547333854721799 26.217501585470018 5.8023613948272468 0 0.80901700255871778 0.5877852410284794 0.5 0 0 1 I I #
coedge $-1 $234 $234 $-1 $339 reversed $146 $-1 #
edge $-1 $340 0 $340 6.2831853071796004 $147 $341 forward 7 unknown #
vertex $-1 $150 $342 #
ellipse-curve $-1 46.575169999300144 26.217501585470018 5.8023613948272468 0 0.80901700255871778 0.5877852410284794 0.5 0 0 1 I I #
face $-1 $-1 $250 $32 $-1 $343 forward single #
loop $-1 $-1 $344 $151 #
plane-surface $-1 0 -27.373261104027229 0 0 1 0 0 0 1 forward_v I I I I #
coedge $-1 $345 $346 $347 $348 reversed $152 $-1 #
coedge $-1 $349 $154 $156 $248 forward $95 $-1 #
coedge $-1 $154 $349 $345 $350 forward $95 $-1 #
coedge $-1 $347 $157 $154 $245 forward $250 $-1 #
edge $-1 $252 -21.325879480579609 $351 -7.4620756863379754 $244 $352 forward 7 unknown #
coedge $-1 $353 $354 $155 $247 forward $239 $-1 #
edge $-1 $355 -39.706226480195397 $251 -36.645357920729801 $246 $356 forward 7 unknown #
edge $-1 $252 -5.6199947535483812 $355 -8.3777959833898778e-015 $156 $357 forward 7 unknown #
coedge $-1 $157 $347 $353 $358 forward $250 $-1 #
loop $-1 $-1 $347 $238 #
vertex $-1 $247 $359 #
vertex $-1 $158 $360 #
straight-curve $-1 35.719857064038401 -40.878857103030363 7.3931279471581348 0 1 0 I I #
coedge $-1 $254 $254 $-1 $361 reversed $161 $-1 #
edge $-1 $362 0 $362 6.2831853071796004 $162 $363 forward 7 unknown #
vertex $-1 $165 $364 #
ellipse-curve $-1 24.628814028645095 -25.016599021144621 5.8626936674253383 0 -0.54463904215088732 0.83867056331134215 1 0 0 1 I I #
coedge $-1 $258 $258 $-1 $365 reversed $168 $-1 #
edge $-1 $366 0 $366 6.2831853071796004 $169 $367 forward 7 unknown #
vertex $-1 $172 $368 #
ellipse-curve $-1 28.787955166917584 -25.016599021144621 5.8626936674253383 0 -0.54463904215088732 0.83867056331134215 1 0 0 1 I I #
coedge $-1 $262 $262 $-1 $369 reversed $175 $-1 #
edge $-1 $370 0 $370 6.2831853071796004 $176 $371 forward 7 unknown #
vertex $-1 $179 $372 #
ellipse-curve $-1 32.947096305190072 -25.016599021144621 5.8626936674253383 0 -0.54463904215088732 0.83867056331134215 1 0 0 1 I I #
face $-1 $-1 $195 $27 $-1 $373 reversed single #
loop $-1 $-1 $282 $180 #
plane-surface $-1 0 27.373261104027229 0 0 -1 0 0 0 -1 forward_v I I I I #
coedge $-1 $374 $280 $283 $375 forward $181 $-1 #
coedge $-1 $286 $183 $184 $274 reversed $114 $-1 #
coedge $-1 $280 $374 $183 $272 reversed $181 $-1 #
edge $-1 $287 -7.3931279471581339 $376 7.3931279471581339 $271 $377 forward 7 unknown #
coedge $-1 $185 $184 $374 $378 forward $73 $-1 #
edge $-1 $278 -49.927060762352369 $376 49.927060762352369 $270 $379 forward 7 unknown #
coedge $-1 $283 $282 $185 $276 reversed $267 $-1 #
edge $-1 $380 -49.927060762352369 $277 49.927060762352369 $275 $381 forward 7 unknown #
vertex $-1 $187 $382 #
vertex $-1 $289 $383 #
straight-curve $-1 49.927060762352369 0 -7.3931279471581339 0 -1 0 I I #
coedge $-1 $269 $271 $188 $281 reversed $181 $-1 #
edge $-1 $284 -27.373261104027229 $287 27.373261104027229 $280 $384 forward 7 unknown #
coedge $-1 $275 $189 $194 $290 forward $267 $-1 #
coedge $-1 $189 $275 $269 $375 reversed $267 $-1 #
vertex $-1 $190 $385 #
straight-curve $-1 0 27.373261104027229 7.3931279471581339 -1 0 0 I I #
coedge $-1 $191 $270 $193 $289 reversed $114 $-1 #
vertex $-1 $281 $386 #
straight-curve $-1 0 -27.373261104027229 7.3931279471581339 1 0 0 I I #
edge $-1 $196 -7.3931279471581339 $278 7.3931279471581339 $193 $387 forward 7 unknown #
edge $-1 $197 -7.3931279471581339 $277 7.3931279471581339 $194 $388 forward 7 unknown #
point $-1 49.927060762352369 -27.373261104027229 7.3931279471581339 #
point $-1 49.927060762352369 27.373261104027229 7.3931279471581339 #
face $-1 $-1 $310 $28 $-1 $389 reversed single #
loop $-1 $-1 $390 $199 #
plane-surface $-1 -49.927060762352369 0 0 1 0 0 0 0 -1 forward_v I I I I #
coedge $-1 $297 $313 $203 $300 forward $200 $-1 #
coedge $-1 $210 $296 $202 $298 forward $200 $-1 #
edge $-1 $304 -4.1965639735790674 $213 -1.196563973579067 $297 $391 forward 7 unknown #
coedge $-1 $204 $203 $390 $392 reversed $77 $-1 #
edge $-1 $393 -26.406544094343896 $304 -20.634489241673048 $296 $394 forward 7 unknown #
coedge $-1 $309 $308 $204 $302 forward $310 $-1 #
edge $-1 $303 20.634489241673048 $395 26.406544094343896 $301 $396 forward 7 unknown #
vertex $-1 $302 $397 #
vertex $-1 $300 $398 #
straight-curve $-1 -44.15500590968152 0 -6.8931279471581339 0 -1 0 I I #
coedge $-1 $399 $400 $207 $307 forward $294 $-1 #
edge $-1 $314 -27.373261104027229 $311 27.373261104027229 $306 $401 forward 7 unknown #
coedge $-1 $301 $208 $212 $316 forward $310 $-1 #
coedge $-1 $208 $301 $399 $402 reversed $310 $-1 #
loop $-1 $-1 $301 $293 #
vertex $-1 $402 $403 #
straight-curve $-1 -23.520516668008472 27.373261104027229 -3.8931279471581339 1 0 0 I I #
coedge $-1 $296 $210 $400 $404 forward $200 $-1 #
vertex $-1 $404 $405 #
straight-curve $-1 -23.520516668008472 -27.373261104027229 -3.8931279471581339 -1 0 0 I I #
edge $-1 $214 1.196563973579067 $303 4.1965639735790674 $308 $406 forward 7 unknown #
point $-1 -44.15500590968152 -27.373261104027229 -3.8931279471581339 #
point $-1 -44.15500590968152 27.373261104027229 -3.8931279471581339 #
loop $-1 $-1 $223 $216 #
plane-surface $-1 0 27.373261104027229 0 0 -1 0 0 0 -1 forward_v I I I I #
coedge $-1 $407 $408 $220 $323 forward $217 $-1 #
coedge $-1 $220 $219 $328 $409 reversed $81 $-1 #
edge $-1 $325 29.781843473929214 $410 33.714434624176242 $321 $411 forward 7 unknown #
coedge $-1 $226 $221 $408 $412 forward $130 $-1 #
vertex $-1 $412 $413 #
straight-curve $-1 22.030625963505486 25.061742066912814 7.3931279471581384 1 0 0 I I #
coedge $-1 $414 $223 $226 $332 reversed $319 $-1 #
coedge $-1 $223 $414 $322 $409 forward $319 $-1 #
vertex $-1 $224 $415 #
straight-curve $-1 38.195443091669574 27.373261104027229 53.597620513928256 0 0 1 I I #
straight-curve $-1 38.195443091669574 -4.805936647505078 48.502462139770863 0 0.5877852410284794 -0.80901700255871778 I I #
edge $-1 $416 -49.927060762352369 $227 -38.195443091669574 $327 $417 forward 7 unknown #
point $-1 38.195443091669574 27.373261104027229 7.3931279471581339 #
point $-1 38.195443091669574 25.061742066912814 7.3931279471581348 #
edge $-1 $418 1 $418 0 $230 $-1 forward 7 unknown #
vertex $-1 $231 $419 #
ellipse-curve $-1 41.547333854721799 25.40848458291131 5.2145761537987738 0 0.80901700255871778 0.5877852410284794 0.5 0 0 1 I I #
point $-1 42.047333854721799 26.217501585470028 5.802361394827253 #
edge $-1 $420 1 $420 0 $234 $-1 forward 7 unknown #
vertex $-1 $235 $421 #
ellipse-curve $-1 46.575169999300144 25.40848458291131 5.2145761537987738 0 0.80901700255871778 0.5877852410284794 0.5 0 0 1 I I #
point $-1 47.075169999300144 26.217501585470028 5.802361394827253 #
plane-surface $-1 0 0 7.3931279471581339 0 0 1 1 0 0 forward_v I I I I #
coedge $-1 $354 $353 $346 $422 forward $239 $-1 #
coedge $-1 $346 $241 $243 $350 reversed $152 $-1 #
coedge $-1 $241 $345 $344 $422 reversed $152 $-1 #
coedge $-1 $249 $244 $241 $348 forward $250 $-1 #
edge $-1 $351 -18.218920164768335 $423 -13.505595999003134 $347 $424 forward 7 unknown #
coedge $-1 $243 $242 $354 $425 reversed $95 $-1 #
edge $-1 $426 8.3777959833898778e-015 $351 5.6199947535483812 $345 $427 forward 7 unknown #
vertex $-1 $245 $428 #
straight-curve $-1 14.393977583458792 -22.659936938262028 7.3931279471581339 -1 0 0 I I #
coedge $-1 $344 $246 $249 $358 reversed $239 $-1 #
coedge $-1 $246 $344 $349 $425 forward $239 $-1 #
vertex $-1 $247 $429 #
straight-curve $-1 35.719857064038401 -27.373261104027229 44.038485867887935 0 0 1 I I #
straight-curve $-1 35.719857064038401 -27.373261104027236 4.332259387692531 0 -0.83867056331134215 -0.54463904215088732 I I #
edge $-1 $423 21.856053269796767 $251 35.719857064038401 $353 $430 forward 7 unknown #
point $-1 35.719857064038401 -27.373261104027229 7.3931279471581339 #
point $-1 35.719857064038401 -22.659936938262028 7.3931279471581339 #
edge $-1 $431 1 $431 0 $254 $-1 forward 7 unknown #
vertex $-1 $255 $432 #
ellipse-curve $-1 24.628814028645095 -24.012307033297127 4.3162196507062331 0 -0.54463904215088732 0.83867056331134215 1 0 0 1 I I #
point $-1 25.628814028645095 -25.016599021144614 5.8626936674253267 #
edge $-1 $433 1 $433 0 $258 $-1 forward 7 unknown #
vertex $-1 $259 $434 #
ellipse-curve $-1 28.787955166917584 -24.012307033297127 4.3162196507062331 0 -0.54463904215088732 0.83867056331134215 1 0 0 1 I I #
point $-1 29.787955166917584 -25.016599021144614 5.8626936674253267 #
edge $-1 $435 1 $435 0 $262 $-1 forward 7 unknown #
vertex $-1 $263 $436 #
ellipse-curve $-1 32.947096305190072 -24.012307033297127 4.3162196507062331 0 -0.54463904215088732 0.83867056331134215 1 0 0 1 I I #
point $-1 33.947096305190072 -25.016599021144614 5.8626936674253267 #
plane-surface $-1 49.927060762352369 0 0 -1 0 0 0 0 1 forward_v I I I I #
coedge $-1 $271 $269 $273 $378 reversed $181 $-1 #
edge $-1 $284 -7.3931279471581339 $380 7.3931279471581339 $283 $437 forward 7 unknown #
vertex $-1 $378 $438 #
straight-curve $-1 -49.927060762352369 -27.373261104027229 0 0 0 -1 I I #
edge $-1 $376 -27.373261104027229 $380 27.373261104027229 $374 $439 forward 7 unknown #
straight-curve $-1 0 -27.373261104027229 -7.3931279471581339 -1 0 0 I I #
vertex $-1 $276 $440 #
straight-curve $-1 0 27.373261104027229 -7.3931279471581339 1 0 0 I I #
point $-1 49.927060762352369 27.373261104027229 -7.3931279471581339 #
point $-1 49.927060762352369 -27.373261104027229 -7.3931279471581339 #
straight-curve $-1 -49.927060762352369 0 7.3931279471581339 0 -1 0 I I #
point $-1 -49.927060762352369 27.373261104027229 7.3931279471581339 #
point $-1 -49.927060762352369 -27.373261104027229 7.3931279471581339 #
straight-curve $-1 49.927060762352369 -27.373261104027229 0 0 0 -1 I I #
straight-curve $-1 49.927060762352369 27.373261104027229 0 0 0 -1 I I #
plane-surface $-1 0 27.373261104027229 0 0 -1 0 0 0 -1 forward_v I I I I #
coedge $-1 $400 $399 $299 $392 forward $294 $-1 #
straight-curve $-1 -44.15500590968152 -27.373261104027229 -2.696563973579067 0 0 1 I I #
edge $-1 $395 -27.373261104027229 $393 27.373261104027229 $390 $441 forward 7 unknown #
vertex $-1 $300 $442 #
straight-curve $-1 -23.520516668008472 -27.373261104027229 -6.8931279471581339 1 0 0 I I #
vertex $-1 $302 $443 #
straight-curve $-1 -23.520516668008472 27.373261104027229 -6.8931279471581339 -1 0 0 I I #
point $-1 -44.15500590968152 27.373261104027229 -6.8931279471581339 #
point $-1 -44.15500590968152 -27.373261104027229 -6.8931279471581339 #
coedge $-1 $390 $306 $309 $402 forward $294 $-1 #
coedge $-1 $306 $390 $313 $404 reversed $294 $-1 #
straight-curve $-1 -49.927060762352369 0 -3.8931279471581339 0 1 0 I I #
edge $-1 $311 3.8931279471581339 $395 6.8931279471581339 $309 $444 forward 7 unknown #
point $-1 -49.927060762352369 27.373261104027229 -3.8931279471581339 #
edge $-1 $314 3.8931279471581339 $393 6.8931279471581339 $400 $445 forward 7 unknown #
point $-1 -49.927060762352369 -27.373261104027229 -3.8931279471581339 #
straight-curve $-1 -44.15500590968152 27.373261104027229 -2.696563973579067 0 0 -1 I I #
coedge $-1 $408 $321 $414 $446 reversed $217 $-1 #
coedge $-1 $321 $407 $324 $412 reversed $217 $-1 #
edge $-1 $410 -27.896434798846883 $329 -16.164817128164088 $328 $447 forward 7 unknown #
vertex $-1 $323 $448 #
straight-curve $-1 49.927060762352369 7.5564140223168863 31.487145685109262 0 0.5877852410284794 -0.80901700255871778 I I #
edge $-1 $325 25.061742066912814 $416 27.373261104027229 $408 $449 forward 7 unknown #
point $-1 49.927060762352369 25.061742066912814 7.3931279471581348 #
coedge $-1 $328 $327 $407 $446 forward $319 $-1 #
point $-1 38.195443091669574 27.373261104027229 4.2115948424963463 #
vertex $-1 $412 $450 #
straight-curve $-1 0 27.373261104027229 7.3931279471581339 -1 0 0 I I #
vertex $-1 $335 $451 #
point $-1 42.047333854721799 25.40848458291131 5.2145761537987738 #
vertex $-1 $339 $452 #
point $-1 47.075169999300144 25.40848458291131 5.2145761537987738 #
edge $-1 $423 36.645357920729801 $426 39.706226480195397 $344 $453 forward 7 unknown #
vertex $-1 $358 $454 #
straight-curve $-1 21.856053269796767 -40.878857103030363 7.3931279471581348 0 -1 0 I I #
edge $-1 $426 7.4620756863379754 $355 21.325879480579609 $354 $455 forward 7 unknown #
vertex $-1 $425 $456 #
straight-curve $-1 21.856053269796767 -27.373261104027236 4.332259387692531 0 0.83867056331134215 0.54463904215088732 I I #
point $-1 21.856053269796767 -22.659936938262028 7.3931279471581339 #
point $-1 35.719857064038401 -27.373261104027229 4.3322593876925355 #
straight-curve $-1 0 -27.373261104027229 7.3931279471581339 1 0 0 I I #
vertex $-1 $361 $457 #
point $-1 25.628814028645095 -24.012307033297127 4.3162196507062331 #
vertex $-1 $365 $458 #
point $-1 29.787955166917584 -24.012307033297127 4.3162196507062331 #
vertex $-1 $369 $459 #
point $-1 33.947096305190072 -24.012307033297127 4.3162196507062331 #
straight-curve $-1 -49.927060762352369 27.373261104027229 0 0 0 -1 I I #
point $-1 -49.927060762352369 -27.373261104027229 -7.3931279471581339 #
straight-curve $-1 -49.927060762352369 0 -7.3931279471581339 0 1 0 I I #
point $-1 -49.927060762352369 27.373261104027229 -7.3931279471581339 #
straight-curve $-1 -49.927060762352369 0 -6.8931279471581339 0 -1 0 I I #
point $-1 -49.927060762352369 -27.373261104027229 -6.8931279471581339 #
point $-1 -49.927060762352369 27.373261104027229 -6.8931279471581339 #
straight-curve $-1 -49.927060762352369 27.373261104027229 0 0 0 -1 I I #
straight-curve $-1 -49.927060762352369 -27.373261104027229 0 0 0 -1 I I #
edge $-1 $416 -7.3931279471581339 $410 -4.2115948424963463 $407 $460 forward 7 unknown #
straight-curve $-1 22.030625963505486 27.373261104027229 4.2115948424963499 -1 0 0 I I #
point $-1 49.927060762352369 27.373261104027229 4.2115948424963463 #
straight-curve $-1 49.927060762352369 0 7.3931279471581339 0 1 0 I I #
point $-1 49.927060762352369 27.373261104027229 7.3931279471581339 #
point $-1 41.547333854721799 25.003976081631951 4.9206835332845333 #
point $-1 46.575169999300144 25.003976081631951 4.9206835332845333 #
straight-curve $-1 21.856053269796767 -27.373261104027229 44.038485867887935 0 0 -1 I I #
point $-1 21.856053269796767 -27.373261104027229 7.3931279471581339 #
straight-curve $-1 14.393977583458792 -27.373261104027229 4.3322593876925364 1 0 0 I I #
point $-1 21.856053269796767 -27.373261104027229 4.3322593876925355 #
point $-1 24.628814028645095 -23.467667991146236 3.4775490873948907 #
point $-1 28.787955166917584 -23.467667991146236 3.4775490873948907 #
point $-1 32.947096305190072 -23.467667991146236 3.4775490873948907 #
straight-curve $-1 49.927060762352369 27.373261104027229 0 0 0 -1 I I #
End-of-ACIS-data 