500 0 7 0           
7 Unknown 11 ACIS 5.0 NT 24 Fri Mar 26 15:07:56 1999 
-1 9.9999999999999995e-007 1e-010 
body $-1 $7 $-1 $8 #
body $-1 $9 $-1 $10 #
body $-1 $11 $-1 $12 #
body $-1 $13 $-1 $14 #
body $-1 $15 $-1 $16 #
body $-1 $17 $-1 $18 #
body $-1 $19 $-1 $20 #
lump $-1 $-1 $21 $0 #
transform $-1 1 0 0 0 1 0 0 0 1 46.689657277138586 27.530896180571236 6.3846103392603162 1 rotate no_reflect no_shear #
lump $-1 $-1 $22 $1 #
transform $-1 1 0 0 0 1 0 0 0 1 46.689657277138586 27.530896180571236 6.3846103392603162 1 rotate no_reflect no_shear #
lump $-1 $-1 $23 $2 #
transform $-1 1 0 0 0 1 0 0 0 1 46.689657277138586 27.530896180571236 6.3846103392603162 1 rotate no_reflect no_shear #
lump $-1 $-1 $24 $3 #
transform $-1 1 0 0 0 1 0 0 0 1 46.689657277138586 27.530896180571236 6.3846103392603162 1 rotate no_reflect no_shear #
lump $-1 $-1 $25 $4 #
transform $-1 1 0 0 0 1 0 0 0 1 46.689657277138586 27.530896180571236 6.3846103392603162 1 rotate no_reflect no_shear #
lump $-1 $-1 $26 $5 #
transform $-1 1 0 0 0 1 0 0 0 1 46.689657277138586 27.530896180571236 6.3846103392603162 1 rotate no_reflect no_shear #
lump $-1 $-1 $27 $6 #
transform $-1 1 0 0 0 1 0 0 0 1 46.689657277138586 27.530896180571236 6.3846103392603162 1 rotate no_reflect no_shear #
shell $-1 $-1 $-1 $28 $-1 $7 #
shell $-1 $-1 $-1 $29 $-1 $9 #
shell $-1 $-1 $-1 $30 $-1 $11 #
shell $-1 $-1 $-1 $31 $-1 $13 #
shell $-1 $-1 $-1 $32 $-1 $15 #
shell $-1 $-1 $-1 $33 $-1 $17 #
shell $-1 $-1 $-1 $34 $-1 $19 #
face $-1 $35 $36 $21 $-1 $37 forward single #
face $-1 $38 $39 $22 $-1 $40 reversed single #
face $-1 $41 $42 $23 $-1 $43 reversed single #
face $-1 $44 $45 $24 $-1 $46 forward single #
face $-1 $47 $48 $25 $-1 $49 reversed single #
face $-1 $50 $51 $26 $-1 $52 forward single #
face $-1 $53 $54 $27 $-1 $55 forward single #
face $-1 $56 $57 $21 $-1 $58 reversed single #
loop $-1 $-1 $59 $28 #
plane-surface $-1 0 0 6.3846103392603162 0 0 1 1 0 0 forward_v I I I I #
face $-1 $60 $61 $22 $-1 $62 reversed single #
loop $-1 $-1 $63 $29 #
plane-surface $-1 0 -23.936520530425206 3.3846103392603162 0 0 1 1 0 0 forward_v I I I I #
face $-1 $64 $65 $23 $-1 $66 reversed single #
loop $-1 $-1 $67 $30 #
plane-surface $-1 -111.55638052203207 -1.9539240041532402 69.646156739375897 0 1 0 -0.69465837861970381 0 0.71933979245794832 forward_v I I I I #
face $-1 $68 $69 $24 $-1 $70 forward single #
loop $-1 $71 $72 $31 #
cone-surface $-1 -43.793691312769234 1.5203523727954327 3.5271380516840729 0.69465837861970381 0 -0.71933979245794832 0.71933979245794832 0 0.69465837861970381 1 I I 0 1 1 forward I I I I #
face $-1 $73 $74 $25 $-1 $75 reversed single #
loop $-1 $-1 $76 $32 #
plane-surface $-1 55.901579795954795 -11.750148560307331 133.42100884167726 0 -1 0 -0.75470958851134928 0 -0.65605901945558964 forward_v I I I I #
face $-1 $77 $78 $26 $-1 $79 forward single #
loop $-1 $80 $81 $33 #
cone-surface $-1 43.513872954740926 -17.887288788858648 3.0497174899440749 -0.75470958851134928 0 -0.65605901945558964 0.65605901945558964 0 -0.75470958851134928 1 I I 0 1 1 forward I I I I #
face $-1 $82 $83 $27 $-1 $84 forward single #
loop $-1 $85 $86 $34 #
cone-surface $-1 43.513872954740926 -14.205004651727858 3.0497174899440749 -0.75470958851134928 0 -0.65605901945558964 0.65605901945558964 0 -0.75470958851134928 1 I I 0 1 1 forward I I I I #
face $-1 $87 $88 $21 $-1 $89 reversed single #
loop $-1 $-1 $90 $35 #
plane-surface $-1 0 0 -6.3846103392603162 0 0 1 1 0 0 forward_v I I I I #
coedge $-1 $91 $92 $93 $94 forward $36 $-1 #
face $-1 $95 $96 $22 $-1 $97 reversed single #
loop $-1 $-1 $98 $38 #
plane-surface $-1 0 -20.342144880279172 4.8846103392603162 0 -1 0 0 0 -1 forward_v I I I I #
coedge $-1 $99 $100 $101 $102 reversed $39 $-1 #
face $-1 $103 $104 $23 $-1 $105 reversed single #
loop $-1 $-1 $106 $41 #
plane-surface $-1 -46.689657277138579 1.5203523727954327 2.4746999880366758 -0.69465837861970381 0 0.71933979245794832 0.71933979245794832 0 0.69465837861970381 forward_v I I I I #
coedge $-1 $107 $108 $109 $110 reversed $42 $-1 #
face $-1 $-1 $111 $24 $-1 $112 forward single #
loop $-1 $113 $114 $44 #
cone-surface $-1 -42.574811459576978 1.5203523727954327 2.2649510434906617 0.69465837861970381 0 -0.71933979245794832 0.35966989622897416 0 0.3473291893098519 1 I I -0.70710678118654746 0.70710678118654746 0.5 forward I I I I #
loop $-1 $-1 $115 $31 #
coedge $-1 $72 $72 $116 $117 reversed $45 $-1 #
face $-1 $118 $119 $25 $-1 $120 forward single #
loop $-1 $-1 $121 $47 #
plane-surface $-1 -14.572684266775575 -16.046146720293251 72.158667297763117 0.75470958851134928 0 0.65605901945558964 0.65605901945558964 0 -0.75470958851134928 forward_v I I I I #
coedge $-1 $122 $123 $124 $125 reversed $48 $-1 #
face $-1 $-1 $126 $26 $-1 $127 forward single #
loop $-1 $128 $129 $50 #
cone-surface $-1 42.003647636307726 -17.887288788858648 1.7368986830138233 -0.75470958851134928 0 -0.65605901945558964 0.32802950972779482 0 -0.37735479425567464 1 I I -0.70710678118654746 0.70710678118654746 0.5 forward I I I I #
loop $-1 $-1 $130 $33 #
coedge $-1 $81 $81 $131 $132 reversed $51 $-1 #
face $-1 $-1 $133 $27 $-1 $134 forward single #
loop $-1 $135 $136 $53 #
cone-surface $-1 42.003647636307726 -14.205004651727858 1.7368986830138233 -0.75470958851134928 0 -0.65605901945558964 0.32802950972779482 0 -0.37735479425567464 1 I I -0.70710678118654746 0.70710678118654746 0.5 forward I I I I #
loop $-1 $-1 $137 $34 #
coedge $-1 $86 $86 $138 $139 reversed $54 $-1 #
face $-1 $140 $141 $21 $-1 $142 reversed single #
loop $-1 $-1 $143 $56 #
plane-surface $-1 0 -27.530896180571236 0 0 1 0 0 0 1 forward_v I I I I #
coedge $-1 $144 $145 $146 $147 forward $57 $-1 #
coedge $-1 $148 $59 $149 $150 forward $36 $-1 #
coedge $-1 $59 $148 $151 $152 forward $36 $-1 #
coedge $-1 $153 $154 $59 $94 reversed $155 $-1 #
edge $-1 $156 -27.530896180571236 $157 27.530896180571236 $93 $158 forward 7 unknown #
face $-1 $159 $160 $22 $-1 $161 reversed single #
loop $-1 $-1 $162 $60 #
plane-surface $-1 -46.689657277138586 0 0 1 0 0 0 0 -1 forward_v I I I I #
coedge $-1 $163 $164 $100 $165 reversed $61 $-1 #
coedge $-1 $166 $63 $167 $168 reversed $39 $-1 #
coedge $-1 $63 $166 $98 $165 forward $39 $-1 #
coedge $-1 $169 $170 $63 $102 forward $171 $-1 #
edge $-1 $172 -15.562635915358637 $173 -8.3738846150665687 $101 $174 forward 7 unknown #
face $-1 $175 $176 $23 $-1 $177 forward single #
loop $-1 $-1 $178 $64 #
plane-surface $-1 -111.55638052203207 4.9946287497441055 69.646156739375897 0 -1 0 0.69465837861970381 0 -0.71933979245794832 forward_v I I I I #
coedge $-1 $179 $180 $181 $182 reversed $65 $-1 #
coedge $-1 $108 $67 $183 $184 reversed $42 $-1 #
coedge $-1 $67 $107 $179 $185 reversed $42 $-1 #
coedge $-1 $181 $186 $67 $110 forward $176 $-1 #
edge $-1 $187 9.0885329838774496 $188 13.137363584851393 $109 $189 forward 7 unknown #
loop $-1 $-1 $116 $68 #
plane-surface $-1 -46.689657277138579 1.5203523727954327 2.4746999880366758 -0.69465837861970381 0 0.71933979245794832 0.71933979245794832 0 0.69465837861970381 forward_v I I I I #
loop $-1 $-1 $190 $44 #
coedge $-1 $114 $114 $115 $191 reversed $69 $-1 #
coedge $-1 $115 $115 $114 $191 forward $71 $-1 #
coedge $-1 $116 $116 $72 $117 forward $111 $-1 #
edge $-1 $192 0 $192 6.2831853071796004 $116 $193 forward 7 unknown #
face $-1 $194 $195 $25 $-1 $196 forward single #
loop $-1 $-1 $197 $73 #
plane-surface $-1 0 -20.342144880279172 4.8846103392603162 0 -1 0 0 0 -1 forward_v I I I I #
coedge $-1 $198 $199 $200 $201 reversed $74 $-1 #
coedge $-1 $123 $76 $202 $203 reversed $48 $-1 #
coedge $-1 $76 $122 $198 $204 reversed $48 $-1 #
coedge $-1 $200 $205 $76 $125 forward $195 $-1 #
edge $-1 $206 -18.738867379161189 $207 -14.653039782720928 $124 $208 forward 7 unknown #
loop $-1 $-1 $131 $77 #
plane-surface $-1 -14.572684266775575 -16.046146720293251 72.158667297763117 0.75470958851134928 0 0.65605901945558964 0.65605901945558964 0 -0.75470958851134928 forward_v I I I I #
loop $-1 $-1 $209 $50 #
coedge $-1 $129 $129 $130 $210 reversed $78 $-1 #
coedge $-1 $130 $130 $129 $210 forward $80 $-1 #
coedge $-1 $131 $131 $81 $132 forward $126 $-1 #
edge $-1 $211 0 $211 6.2831853071796004 $131 $212 forward 7 unknown #
loop $-1 $-1 $138 $82 #
plane-surface $-1 -14.572684266775575 -16.046146720293251 72.158667297763117 0.75470958851134928 0 0.65605901945558964 0.65605901945558964 0 -0.75470958851134928 forward_v I I I I #
loop $-1 $-1 $213 $53 #
coedge $-1 $136 $136 $137 $214 reversed $83 $-1 #
coedge $-1 $137 $137 $136 $214 forward $85 $-1 #
coedge $-1 $138 $138 $86 $139 forward $133 $-1 #
edge $-1 $215 0 $215 6.2831853071796004 $138 $216 forward 7 unknown #
face $-1 $217 $218 $21 $-1 $219 reversed single #
loop $-1 $-1 $220 $87 #
plane-surface $-1 -46.689657277138586 0 0 1 0 0 0 0 -1 forward_v I I I I #
coedge $-1 $221 $151 $222 $223 forward $88 $-1 #
coedge $-1 $224 $90 $221 $225 forward $57 $-1 #
coedge $-1 $90 $224 $226 $227 forward $57 $-1 #
coedge $-1 $154 $153 $90 $147 reversed $155 $-1 #
edge $-1 $228 -27.530896180571236 $229 27.530896180571236 $146 $230 forward 7 unknown #
coedge $-1 $92 $91 $231 $232 forward $36 $-1 #
coedge $-1 $233 $234 $91 $150 reversed $218 $-1 #
edge $-1 $157 -46.689657277138586 $235 46.689657277138586 $149 $236 forward 7 unknown #
coedge $-1 $143 $237 $92 $152 reversed $88 $-1 #
edge $-1 $238 -46.689657277138586 $156 46.689657277138586 $151 $239 forward 7 unknown #
coedge $-1 $146 $93 $237 $240 forward $155 $-1 #
coedge $-1 $93 $146 $233 $241 reversed $155 $-1 #
loop $-1 $-1 $153 $217 #
vertex $-1 $94 $242 #
vertex $-1 $94 $243 #
straight-curve $-1 46.689657277138586 0 6.3846103392603162 0 1 0 I I #
face $-1 $244 $245 $22 $-1 $246 forward single #
loop $-1 $-1 $167 $95 #
plane-surface $-1 0 -27.530896180571236 0 0 1 0 0 0 1 forward_v I I I I #
coedge $-1 $247 $248 $163 $249 forward $96 $-1 #
coedge $-1 $250 $98 $162 $249 reversed $61 $-1 #
coedge $-1 $98 $250 $169 $251 reversed $61 $-1 #
edge $-1 $252 -46.689657277138586 $173 46.689657277138586 $98 $253 forward 7 unknown #
coedge $-1 $100 $99 $247 $254 reversed $39 $-1 #
coedge $-1 $255 $256 $99 $168 forward $160 $-1 #
edge $-1 $257 -46.689657277138586 $172 46.689657277138586 $167 $258 forward 7 unknown #
coedge $-1 $259 $101 $164 $251 forward $171 $-1 #
coedge $-1 $101 $259 $255 $260 forward $171 $-1 #
loop $-1 $-1 $169 $244 #
vertex $-1 $168 $261 #
vertex $-1 $102 $262 #
straight-curve $-1 46.689657277138586 -11.968260265212603 3.3846103392603162 0 1 0 I I #
face $-1 $-1 $263 $23 $-1 $264 reversed single #
loop $-1 $-1 $109 $103 #
plane-surface $-1 0 0 6.3846103392603162 0 0 1 1 0 0 forward_v I I I I #
coedge $-1 $265 $266 $267 $268 reversed $104 $-1 #
coedge $-1 $269 $106 $108 $185 forward $65 $-1 #
coedge $-1 $106 $269 $265 $270 forward $65 $-1 #
coedge $-1 $267 $109 $106 $182 forward $176 $-1 #
edge $-1 $188 -2.7141001905509565 $271 4.2344525633463892 $181 $272 forward 7 unknown #
coedge $-1 $273 $274 $107 $184 forward $263 $-1 #
edge $-1 $275 -32.34837838165128 $187 -28.438468030427632 $183 $276 forward 7 unknown #
edge $-1 $188 -5.6285369493313926 $275 9.7385709978959816e-015 $108 $277 forward 7 unknown #
coedge $-1 $109 $267 $273 $278 forward $176 $-1 #
vertex $-1 $184 $279 #
vertex $-1 $110 $280 #
straight-curve $-1 -55.778190261016036 -1.9539240041532402 6.3846103392603162 1 0 0 I I #
coedge $-1 $190 $190 $-1 $281 reversed $113 $-1 #
edge $-1 $282 0 $282 6.2831853071796004 $114 $283 forward 7 unknown #
vertex $-1 $117 $284 #
ellipse-curve $-1 -44.665241976651615 1.5203523727954327 4.4296551636484898 -0.69465837861970381 0 0.71933979245794832 0.71933979245794832 0 0.69465837861970381 1 I I #
face $-1 $-1 $285 $25 $-1 $286 reversed single #
loop $-1 $-1 $200 $118 #
plane-surface $-1 0 0 6.3846103392603162 0 0 1 1 0 0 forward_v I I I I #
coedge $-1 $287 $288 $199 $289 reversed $119 $-1 #
coedge $-1 $290 $121 $123 $204 forward $74 $-1 #
coedge $-1 $121 $290 $197 $289 forward $74 $-1 #
coedge $-1 $291 $124 $121 $201 forward $195 $-1 #
edge $-1 $207 3.727075200160705 $292 12.319071520132546 $200 $293 forward 7 unknown #
coedge $-1 $294 $295 $122 $203 forward $285 $-1 #
edge $-1 $296 -65.026101185805899 $206 -60.325894081578312 $202 $297 forward 7 unknown #
edge $-1 $207 87.151479138142292 $296 93.379314554277201 $123 $298 forward 7 unknown #
coedge $-1 $124 $291 $294 $299 forward $195 $-1 #
vertex $-1 $203 $300 #
vertex $-1 $125 $301 #
straight-curve $-1 27.950789897977398 -11.750148560307331 6.3846103392603197 -1 0 0 I I #
coedge $-1 $209 $209 $-1 $302 reversed $128 $-1 #
edge $-1 $303 0 $303 6.2831853071796004 $129 $304 forward 7 unknown #
vertex $-1 $132 $305 #
ellipse-curve $-1 44.646743478918459 -17.887288788858648 4.0345067871465368 0.75470958851134928 0 0.65605901945558964 0.65605901945558964 0 -0.75470958851134928 1 I I #
coedge $-1 $213 $213 $-1 $306 reversed $135 $-1 #
edge $-1 $307 0 $307 6.2831853071796004 $136 $308 forward 7 unknown #
vertex $-1 $139 $309 #
ellipse-curve $-1 44.646743478918459 -14.205004651727858 4.0345067871465368 0.75470958851134928 0 0.65605901945558964 0.65605901945558964 0 -0.75470958851134928 1 I I #
face $-1 $-1 $155 $21 $-1 $310 reversed single #
loop $-1 $-1 $233 $140 #
plane-surface $-1 0 27.530896180571236 0 0 -1 0 0 0 -1 forward_v I I I I #
coedge $-1 $311 $231 $234 $312 forward $141 $-1 #
coedge $-1 $237 $143 $144 $225 reversed $88 $-1 #
coedge $-1 $231 $311 $143 $223 reversed $141 $-1 #
edge $-1 $238 -6.3846103392603162 $313 6.3846103392603162 $222 $314 forward 7 unknown #
coedge $-1 $145 $144 $311 $315 forward $57 $-1 #
edge $-1 $229 -46.689657277138586 $313 46.689657277138586 $221 $316 forward 7 unknown #
coedge $-1 $234 $233 $145 $227 reversed $218 $-1 #
edge $-1 $317 -46.689657277138586 $228 46.689657277138586 $226 $318 forward 7 unknown #
vertex $-1 $147 $319 #
vertex $-1 $240 $320 #
straight-curve $-1 46.689657277138586 0 -6.3846103392603162 0 -1 0 I I #
coedge $-1 $220 $222 $148 $232 reversed $141 $-1 #
edge $-1 $235 -27.530896180571236 $238 27.530896180571236 $231 $321 forward 7 unknown #
coedge $-1 $226 $149 $154 $241 forward $218 $-1 #
coedge $-1 $149 $226 $220 $312 reversed $218 $-1 #
vertex $-1 $150 $322 #
straight-curve $-1 0 27.530896180571236 6.3846103392603162 -1 0 0 I I #
coedge $-1 $151 $221 $153 $240 reversed $88 $-1 #
vertex $-1 $232 $323 #
straight-curve $-1 0 -27.530896180571236 6.3846103392603162 1 0 0 I I #
edge $-1 $156 -6.3846103392603162 $229 6.3846103392603162 $153 $324 forward 7 unknown #
edge $-1 $157 -6.3846103392603162 $228 6.3846103392603162 $154 $325 forward 7 unknown #
point $-1 46.689657277138586 -27.530896180571236 6.3846103392603162 #
point $-1 46.689657277138586 27.530896180571236 6.3846103392603162 #
face $-1 $-1 $171 $22 $-1 $326 reversed single #
loop $-1 $-1 $327 $159 #
plane-surface $-1 0 0 6.3846103392603162 0 0 1 1 0 0 forward_v I I I I #
coedge $-1 $328 $162 $166 $254 forward $96 $-1 #
coedge $-1 $162 $328 $329 $330 reversed $96 $-1 #
edge $-1 $331 -3.9423051696301581 $252 -0.94230516963015809 $162 $332 forward 7 unknown #
coedge $-1 $164 $163 $327 $333 reversed $61 $-1 #
edge $-1 $173 0.94230516963015809 $334 3.9423051696301581 $169 $335 forward 7 unknown #
vertex $-1 $254 $336 #
straight-curve $-1 0 -20.342144880279172 3.3846103392603162 1 0 0 I I #
edge $-1 $252 8.3738846150665687 $257 15.562635915358637 $247 $337 forward 7 unknown #
coedge $-1 $338 $167 $170 $260 reversed $160 $-1 #
coedge $-1 $167 $338 $328 $339 forward $160 $-1 #
vertex $-1 $168 $340 #
straight-curve $-1 0 -27.530896180571236 3.3846103392603162 1 0 0 I I #
coedge $-1 $170 $169 $341 $342 reversed $171 $-1 #
edge $-1 $343 -6.3846103392603162 $172 -3.3846103392603162 $170 $344 forward 7 unknown #
point $-1 46.689657277138586 -27.53089618057124 3.3846103392603162 #
point $-1 46.689657277138586 -20.342144880279172 3.3846103392603162 #
loop $-1 $-1 $183 $175 #
plane-surface $-1 -46.689657277138586 0 0 1 0 0 0 0 -1 forward_v I I I I #
coedge $-1 $266 $178 $180 $270 reversed $104 $-1 #
coedge $-1 $178 $265 $345 $346 reversed $104 $-1 #
coedge $-1 $186 $181 $178 $268 forward $176 $-1 #
edge $-1 $271 -13.137363584851393 $347 -9.0885329838774496 $267 $348 forward 7 unknown #
coedge $-1 $180 $179 $274 $349 reversed $65 $-1 #
edge $-1 $350 -9.7385709978959816e-015 $271 5.6285369493313926 $265 $351 forward 7 unknown #
vertex $-1 $182 $352 #
straight-curve $-1 -42.640826676164636 0.76017618639771634 6.3846103392603162 0 1 0 I I #
coedge $-1 $345 $183 $186 $278 reversed $263 $-1 #
coedge $-1 $183 $345 $269 $349 forward $263 $-1 #
vertex $-1 $184 $353 #
straight-curve $-1 -46.689657277138586 -1.9539240041532402 34.823078369687948 0 0 1 I I #
straight-curve $-1 -46.689657277138579 -1.9539240041532402 2.4746999880366758 -0.71933979245794832 0 -0.69465837861970381 I I #
edge $-1 $347 -4.9946287497441055 $187 1.9539240041532402 $273 $354 forward 7 unknown #
point $-1 -46.689657277138586 -1.9539240041532402 6.3846103392603162 #
point $-1 -42.640826676164643 -1.9539240041532402 6.3846103392603162 #
edge $-1 $355 1 $355 0 $190 $-1 forward 7 unknown #
vertex $-1 $191 $356 #
ellipse-curve $-1 -42.922140648886831 1.5203523727954327 2.6246209397196356 -0.69465837861970381 0 0.71933979245794832 0.71933979245794832 0 0.69465837861970381 1 I I #
point $-1 -43.945902184193685 1.5203523727954327 5.1243135422682142 #
loop $-1 $-1 $202 $194 #
plane-surface $-1 46.689657277138586 0 0 -1 0 0 0 0 1 forward_v I I I I #
coedge $-1 $288 $197 $357 $358 reversed $119 $-1 #
coedge $-1 $197 $287 $291 $359 reversed $119 $-1 #
edge $-1 $360 -93.379314554277201 $292 -87.151479138142292 $197 $361 forward 7 unknown #
coedge $-1 $199 $198 $295 $362 reversed $74 $-1 #
coedge $-1 $205 $200 $288 $359 forward $195 $-1 #
vertex $-1 $359 $363 #
straight-curve $-1 42.603829680698318 -8.0230733601466255 6.3846103392603126 0 -1 0 I I #
coedge $-1 $357 $202 $205 $299 reversed $285 $-1 #
coedge $-1 $202 $357 $290 $362 forward $285 $-1 #
vertex $-1 $203 $364 #
straight-curve $-1 46.689657277138586 -11.750148560307331 66.710504420838632 0 0 1 I I #
straight-curve $-1 -14.572684266775575 -11.750148560307331 72.158667297763117 0.65605901945558964 0 -0.75470958851134928 I I #
edge $-1 $365 -20.342144880279172 $206 -11.750148560307331 $294 $366 forward 7 unknown #
point $-1 46.689657277138586 -11.750148560307331 6.3846103392603162 #
point $-1 42.603829680698325 -11.750148560307331 6.3846103392603197 #
edge $-1 $367 1 $367 0 $209 $-1 forward 7 unknown #
vertex $-1 $210 $368 #
ellipse-curve $-1 42.381002430563399 -17.887288788858648 2.0649281927416183 0.75470958851134928 0 0.65605901945558964 0.65605901945558964 0 -0.75470958851134928 1 I I #
point $-1 45.302802498374042 -17.887288788858648 3.2797971986351824 #
edge $-1 $369 1 $369 0 $213 $-1 forward 7 unknown #
vertex $-1 $214 $370 #
ellipse-curve $-1 42.381002430563399 -14.205004651727858 2.0649281927416183 0.75470958851134928 0 0.65605901945558964 0.65605901945558964 0 -0.75470958851134928 1 I I #
point $-1 45.302802498374042 -14.205004651727858 3.2797971986351824 #
plane-surface $-1 46.689657277138586 0 0 -1 0 0 0 0 1 forward_v I I I I #
coedge $-1 $222 $220 $224 $315 reversed $141 $-1 #
edge $-1 $235 -6.3846103392603162 $317 6.3846103392603162 $234 $371 forward 7 unknown #
vertex $-1 $315 $372 #
straight-curve $-1 -46.689657277138586 -27.530896180571236 0 0 0 -1 I I #
edge $-1 $313 -27.530896180571236 $317 27.530896180571236 $311 $373 forward 7 unknown #
straight-curve $-1 0 -27.530896180571236 -6.3846103392603162 -1 0 0 I I #
vertex $-1 $227 $374 #
straight-curve $-1 0 27.530896180571236 -6.3846103392603162 1 0 0 I I #
point $-1 46.689657277138586 27.530896180571236 -6.3846103392603162 #
point $-1 46.689657277138586 -27.530896180571236 -6.3846103392603162 #
straight-curve $-1 -46.689657277138586 0 6.3846103392603162 0 -1 0 I I #
point $-1 -46.689657277138586 27.530896180571236 6.3846103392603162 #
point $-1 -46.689657277138586 -27.530896180571236 6.3846103392603162 #
straight-curve $-1 46.689657277138586 -27.530896180571236 0 0 0 -1 I I #
straight-curve $-1 46.689657277138586 27.530896180571236 0 0 0 -1 I I #
plane-surface $-1 46.689657277138586 0 0 -1 0 0 0 0 1 forward_v I I I I #
coedge $-1 $329 $341 $250 $333 forward $245 $-1 #
coedge $-1 $248 $247 $256 $339 reversed $96 $-1 #
coedge $-1 $375 $327 $248 $330 forward $245 $-1 #
edge $-1 $331 20.342144880279172 $376 27.530896180571236 $248 $377 forward 7 unknown #
vertex $-1 $330 $378 #
straight-curve $-1 -46.689657277138586 -20.342144880279172 2.4423051696301581 0 0 -1 I I #
edge $-1 $334 -46.689657277138586 $331 46.689657277138586 $327 $379 forward 7 unknown #
vertex $-1 $251 $380 #
straight-curve $-1 46.689657277138586 -20.342144880279172 2.4423051696301581 0 0 1 I I #
point $-1 -46.689657277138586 -20.342144880279172 3.3846103392603162 #
straight-curve $-1 -46.689657277138586 -11.968260265212603 3.3846103392603162 0 -1 0 I I #
coedge $-1 $256 $255 $375 $381 reversed $160 $-1 #
edge $-1 $376 -6.3846103392603162 $257 -3.3846103392603162 $328 $382 forward 7 unknown #
point $-1 -46.689657277138586 -27.53089618057124 3.3846103392603162 #
coedge $-1 $327 $375 $259 $342 forward $245 $-1 #
edge $-1 $343 -27.530896180571236 $334 -20.342144880279172 $259 $383 forward 7 unknown #
vertex $-1 $342 $384 #
straight-curve $-1 46.689657277138586 -27.530896180571236 0 0 0 -1 I I #
coedge $-1 $274 $273 $266 $346 forward $263 $-1 #
edge $-1 $347 28.438468030427632 $350 32.34837838165128 $345 $385 forward 7 unknown #
vertex $-1 $278 $386 #
straight-curve $-1 -55.778190261016036 4.9946287497441055 6.3846103392603162 -1 0 0 I I #
edge $-1 $350 -4.2344525633463892 $275 2.7141001905509565 $274 $387 forward 7 unknown #
vertex $-1 $349 $388 #
straight-curve $-1 -46.689657277138579 4.9946287497441055 2.4746999880366758 0.71933979245794832 0 0.69465837861970381 I I #
point $-1 -42.640826676164643 4.9946287497441055 6.3846103392603162 #
point $-1 -46.689657277138586 -1.9539240041532402 2.4746999880366691 #
straight-curve $-1 -46.689657277138586 0 6.3846103392603162 0 -1 0 I I #
vertex $-1 $281 $389 #
point $-1 -42.20280085642888 1.5203523727954327 3.3192793183393396 #
coedge $-1 $295 $294 $287 $358 forward $285 $-1 #
edge $-1 $365 60.325894081578312 $360 65.026101185805899 $357 $390 forward 7 unknown #
edge $-1 $292 42.603829680698325 $365 46.689657277138586 $291 $391 forward 7 unknown #
vertex $-1 $358 $392 #
straight-curve $-1 -14.572684266775575 -20.342144880279172 72.158667297763117 -0.65605901945558964 0 0.75470958851134928 I I #
edge $-1 $360 -12.319071520132546 $296 -3.727075200160705 $295 $393 forward 7 unknown #
point $-1 42.603829680698325 -20.342144880279172 6.3846103392603197 #
point $-1 46.689657277138586 -11.750148560307331 1.6844032350327325 #
vertex $-1 $299 $394 #
straight-curve $-1 46.689657277138586 0 6.3846103392603162 0 1 0 I I #
vertex $-1 $302 $395 #
point $-1 43.037061450018989 -17.887288788858648 1.3102186042302688 #
vertex $-1 $306 $396 #
point $-1 43.037061450018989 -14.205004651727858 1.3102186042302688 #
straight-curve $-1 -46.689657277138586 27.530896180571236 0 0 0 -1 I I #
point $-1 -46.689657277138586 -27.530896180571236 -6.3846103392603162 #
straight-curve $-1 -46.689657277138586 0 -6.3846103392603162 0 1 0 I I #
point $-1 -46.689657277138586 27.530896180571236 -6.3846103392603162 #
coedge $-1 $341 $329 $338 $381 forward $245 $-1 #
vertex $-1 $330 $397 #
straight-curve $-1 -46.689657277138586 0 6.3846103392603162 0 -1 0 I I #
point $-1 -46.689657277138586 -20.342144880279172 6.3846103392603162 #
straight-curve $-1 0 -20.342144880279172 6.3846103392603162 -1 0 0 I I #
point $-1 46.689657277138586 -20.342144880279172 6.3846103392603162 #
edge $-1 $376 -46.689657277138586 $343 46.689657277138586 $338 $398 forward 7 unknown #
straight-curve $-1 -46.689657277138586 -27.530896180571236 0 0 0 -1 I I #
straight-curve $-1 46.689657277138586 0 6.3846103392603162 0 1 0 I I #
point $-1 46.689657277138586 -27.530896180571236 6.3846103392603162 #
straight-curve $-1 -46.689657277138586 4.9946287497441055 34.823078369687948 0 0 -1 I I #
point $-1 -46.689657277138586 4.9946287497441055 6.3846103392603162 #
straight-curve $-1 -46.689657277138586 0.76017618639771634 2.4746999880366625 0 -1 0 I I #
point $-1 -46.689657277138586 4.9946287497441055 2.4746999880366691 #
point $-1 -42.227482270267124 1.5203523727954327 1.9052811472616875 #
straight-curve $-1 46.689657277138586 -20.342144880279172 66.710504420838632 0 0 -1 I I #
straight-curve $-1 0 -20.342144880279172 6.3846103392603162 1 0 0 I I #
point $-1 46.689657277138586 -20.342144880279172 1.6844032350327325 #
straight-curve $-1 46.689657277138586 -8.0230733601466255 1.6844032350327396 0 1 0 I I #
point $-1 46.689657277138586 -20.342144880279172 6.3846103392603162 #
point $-1 41.626292842052052 -17.887288788858648 1.4088691732860286 #
point $-1 41.626292842052052 -14.205004651727858 1.4088691732860286 #
point $-1 -46.689657277138586 -27.530896180571236 6.3846103392603162 #
straight-curve $-1 0 -27.530896180571236 6.3846103392603162 1 0 0 I I #
End-of-ACIS-data 