500 0 9 0           
7 Unknown 11 ACIS 5.0 NT 24 Thu Mar 25 15:31:27 1999 
-1 9.9999999999999995e-007 1e-010 
body $-1 $9 $-1 $10 #
body $-1 $11 $-1 $12 #
body $-1 $13 $-1 $14 #
body $-1 $15 $-1 $16 #
body $-1 $17 $-1 $18 #
body $-1 $19 $-1 $20 #
body $-1 $21 $-1 $22 #
body $-1 $23 $-1 $24 #
body $-1 $25 $-1 $26 #
lump $-1 $-1 $27 $0 #
transform $-1 1 0 0 0 1 0 0 0 1 57.600634784997098 32.68682648537095 15.52342449269387 1 rotate no_reflect no_shear #
lump $-1 $-1 $28 $1 #
transform $-1 1 0 0 0 1 0 0 0 1 57.600634784997098 -8.5291806508293178 27.185629873390827 1 rotate no_reflect no_shear #
lump $-1 $-1 $29 $2 #
transform $-1 0.55919289150049634 0 0.82903758062907751 0 1 0 -0.82903758062907751 0 0.55919289150049634 -95.506181809706163 21.72308476233265 81.314093473417358 1 rotate no_reflect no_shear #
lump $-1 $-1 $30 $3 #
transform $-1 0.55919289150049634 0 0.82903758062907751 0 -1 0 0.82903758062907751 0 -0.55919289150049634 6.1265259866367643 19.72391756490093 23.057631630687847 1 rotate no_reflect no_shear #
lump $-1 $-1 $31 $4 #
transform $-1 0.55919289150049634 0 0.82903758062907751 0 -1 0 0.82903758062907751 0 -0.55919289150049634 6.1265259866367643 23.722251959764371 23.057631630687847 1 rotate no_reflect no_shear #
lump $-1 $-1 $32 $5 #
transform $-1 0.84804809178421925 0 -0.52991927123019833 0 1 0 0.52991927123019833 0 0.84804809178421925 78.552425555366128 21.671495574654674 176.04804865855516 1 rotate no_reflect no_shear #
lump $-1 $-1 $33 $6 #
transform $-1 0.84804809178421925 0 -0.52991927123019833 0 -1 0 -0.52991927123019833 0 -0.84804809178421925 103.04837658472641 18.903615010857052 22.324574937086481 1 rotate no_reflect no_shear #
lump $-1 $-1 $34 $7 #
transform $-1 0.84804809178421925 0 -0.52991927123019833 0 -1 0 -0.52991927123019833 0 -0.84804809178421925 103.04837658472641 21.671495574654674 22.324574937086481 1 rotate no_reflect no_shear #
lump $-1 $-1 $35 $8 #
transform $-1 0.84804809178421925 0 -0.52991927123019833 0 -1 0 -0.52991927123019833 0 -0.84804809178421925 103.04837658472641 24.439376138452296 22.324574937086481 1 rotate no_reflect no_shear #
shell $-1 $-1 $-1 $36 $-1 $9 #
shell $-1 $-1 $-1 $37 $-1 $11 #
shell $-1 $-1 $-1 $38 $-1 $13 #
shell $-1 $-1 $-1 $39 $-1 $15 #
shell $-1 $-1 $-1 $40 $-1 $17 #
shell $-1 $-1 $-1 $41 $-1 $19 #
shell $-1 $-1 $-1 $42 $-1 $21 #
shell $-1 $-1 $-1 $43 $-1 $23 #
shell $-1 $-1 $-1 $44 $-1 $25 #
face $-1 $45 $46 $27 $-1 $47 forward single #
face $-1 $48 $49 $28 $-1 $50 forward single #
face $-1 $51 $52 $29 $-1 $53 forward single #
face $-1 $54 $55 $30 $-1 $56 forward single #
face $-1 $57 $58 $31 $-1 $59 forward single #
face $-1 $60 $61 $32 $-1 $62 forward single #
face $-1 $63 $64 $33 $-1 $65 forward single #
face $-1 $66 $67 $34 $-1 $68 forward single #
face $-1 $69 $70 $35 $-1 $71 forward single #
face $-1 $72 $73 $27 $-1 $74 reversed single #
loop $-1 $-1 $75 $36 #
plane-surface $-1 0 0 15.52342449269387 0 0 1 1 0 0 forward_v I I I I #
face $-1 $76 $77 $28 $-1 $78 reversed single #
loop $-1 $-1 $79 $37 #
plane-surface $-1 0 0 3.8612191119969133 0 0 1 1 0 0 forward_v I I I I #
face $-1 $80 $81 $29 $-1 $82 reversed single #
loop $-1 $-1 $83 $38 #
plane-surface $-1 0 0 115.2012695699942 0 0 1 1 0 0 forward_v I I I I #
face $-1 $84 $85 $30 $-1 $86 forward single #
loop $-1 $87 $88 $39 #
cone-surface $-1 0 0 -1.066331980346078 0 0 1 1 0 0 1 I I 0 1 1 forward I I I I #
face $-1 $89 $90 $31 $-1 $91 forward single #
loop $-1 $92 $93 $40 #
cone-surface $-1 0 0 -1.066331980346078 0 0 1 1 0 0 1 I I 0 1 1 forward I I I I #
face $-1 $94 $95 $32 $-1 $96 reversed single #
loop $-1 $-1 $97 $41 #
plane-surface $-1 0 0 115.2012695699942 0 0 1 1 0 0 forward_v I I I I #
face $-1 $98 $99 $33 $-1 $100 forward single #
loop $-1 $101 $102 $42 #
cone-surface $-1 0 0 -1.2163762321848193 0 0 1 0.5 0 0 1 I I 0 1 0.5 forward I I I I #
face $-1 $103 $104 $34 $-1 $105 forward single #
loop $-1 $106 $107 $43 #
cone-surface $-1 0 0 -1.2163762321848193 0 0 1 0.5 0 0 1 I I 0 1 0.5 forward I I I I #
face $-1 $108 $109 $35 $-1 $110 forward single #
loop $-1 $111 $112 $44 #
cone-surface $-1 0 0 -1.2163762321848193 0 0 1 0.5 0 0 1 I I 0 1 0.5 forward I I I I #
face $-1 $113 $114 $27 $-1 $115 reversed single #
loop $-1 $-1 $116 $45 #
plane-surface $-1 0 0 -15.52342449269387 0 0 1 1 0 0 forward_v I I I I #
coedge $-1 $117 $118 $119 $120 forward $46 $-1 #
face $-1 $121 $122 $28 $-1 $123 reversed single #
loop $-1 $-1 $124 $48 #
plane-surface $-1 0 0 -3.8612191119969133 0 0 1 1 0 0 forward_v I I I I #
coedge $-1 $125 $126 $127 $128 forward $49 $-1 #
face $-1 $129 $130 $29 $-1 $131 reversed single #
loop $-1 $-1 $132 $51 #
plane-surface $-1 0 0 -115.2012695699942 0 0 1 1 0 0 forward_v I I I I #
coedge $-1 $133 $134 $135 $136 forward $52 $-1 #
face $-1 $-1 $137 $30 $-1 $138 forward single #
loop $-1 $-1 $139 $54 #
plane-surface $-1 0 0 -1.6326639606921578 0 0 -1 -1 0 0 forward_v I I I I #
loop $-1 $-1 $140 $39 #
coedge $-1 $88 $88 $139 $141 reversed $55 $-1 #
face $-1 $-1 $142 $31 $-1 $143 forward single #
loop $-1 $-1 $144 $57 #
plane-surface $-1 0 0 -1.6326639606921578 0 0 -1 -1 0 0 forward_v I I I I #
loop $-1 $-1 $145 $40 #
coedge $-1 $93 $93 $144 $146 reversed $58 $-1 #
face $-1 $147 $148 $32 $-1 $149 reversed single #
loop $-1 $-1 $150 $60 #
plane-surface $-1 0 0 -115.2012695699942 0 0 1 1 0 0 forward_v I I I I #
coedge $-1 $151 $152 $153 $154 forward $61 $-1 #
face $-1 $-1 $155 $33 $-1 $156 forward single #
loop $-1 $-1 $157 $63 #
plane-surface $-1 0 0 -2.1827524643696394 0 0 -1 -1 0 0 forward_v I I I I #
loop $-1 $-1 $158 $42 #
coedge $-1 $102 $102 $157 $159 reversed $64 $-1 #
face $-1 $-1 $160 $34 $-1 $161 forward single #
loop $-1 $-1 $162 $66 #
plane-surface $-1 0 0 -2.1827524643696394 0 0 -1 -1 0 0 forward_v I I I I #
loop $-1 $-1 $163 $43 #
coedge $-1 $107 $107 $162 $164 reversed $67 $-1 #
face $-1 $-1 $165 $35 $-1 $166 forward single #
loop $-1 $-1 $167 $69 #
plane-surface $-1 0 0 -2.1827524643696394 0 0 -1 -1 0 0 forward_v I I I I #
loop $-1 $-1 $168 $44 #
coedge $-1 $112 $112 $167 $169 reversed $70 $-1 #
face $-1 $170 $171 $27 $-1 $172 reversed single #
loop $-1 $-1 $173 $72 #
plane-surface $-1 0 -32.68682648537095 0 0 1 0 0 0 1 forward_v I I I I #
coedge $-1 $174 $175 $176 $177 forward $73 $-1 #
coedge $-1 $178 $75 $179 $180 forward $46 $-1 #
coedge $-1 $75 $178 $181 $182 forward $46 $-1 #
coedge $-1 $183 $184 $75 $120 reversed $185 $-1 #
edge $-1 $186 -32.68682648537095 $187 32.68682648537095 $119 $188 forward 7 unknown #
face $-1 $189 $190 $28 $-1 $191 reversed single #
loop $-1 $-1 $192 $76 #
plane-surface $-1 0 -8.5291806508293178 0 0 1 0 0 0 1 forward_v I I I I #
coedge $-1 $193 $194 $195 $196 forward $77 $-1 #
coedge $-1 $197 $79 $198 $199 forward $49 $-1 #
coedge $-1 $79 $197 $200 $201 forward $49 $-1 #
coedge $-1 $202 $203 $79 $128 reversed $204 $-1 #
edge $-1 $205 -8.5291806508293178 $206 8.5291806508293178 $127 $207 forward 7 unknown #
face $-1 $208 $209 $29 $-1 $210 reversed single #
loop $-1 $-1 $211 $80 #
plane-surface $-1 0 -4.6647234606740149 0 0 1 0 0 0 1 forward_v I I I I #
coedge $-1 $212 $213 $214 $215 forward $81 $-1 #
coedge $-1 $216 $83 $217 $218 forward $52 $-1 #
coedge $-1 $83 $216 $219 $220 forward $52 $-1 #
coedge $-1 $221 $222 $83 $136 reversed $223 $-1 #
edge $-1 $224 -4.6647234606740149 $225 4.6647234606740149 $135 $226 forward 7 unknown #
loop $-1 $227 $228 $84 #
cone-surface $-1 0 0 0 0 0 1 0.5 0 0 1 I I -0.70710678118654746 0.70710678118654746 0.5 forward I I I I #
coedge $-1 $139 $139 $88 $141 forward $85 $-1 #
coedge $-1 $140 $140 $228 $229 forward $87 $-1 #
edge $-1 $230 0 $230 6.2831853071796004 $139 $231 forward 7 unknown #
loop $-1 $232 $233 $89 #
cone-surface $-1 0 0 0 0 0 1 0.5 0 0 1 I I -0.70710678118654746 0.70710678118654746 0.5 forward I I I I #
coedge $-1 $144 $144 $93 $146 forward $90 $-1 #
coedge $-1 $145 $145 $233 $234 forward $92 $-1 #
edge $-1 $235 0 $235 6.2831853071796004 $144 $236 forward 7 unknown #
face $-1 $237 $238 $32 $-1 $239 reversed single #
loop $-1 $-1 $240 $94 #
plane-surface $-1 0 -4.6131342729960387 0 0 1 0 0 0 1 forward_v I I I I #
coedge $-1 $241 $242 $243 $244 forward $95 $-1 #
coedge $-1 $245 $97 $246 $247 forward $61 $-1 #
coedge $-1 $97 $245 $248 $249 forward $61 $-1 #
coedge $-1 $250 $251 $97 $154 reversed $252 $-1 #
edge $-1 $253 -4.6131342729960387 $254 4.6131342729960387 $153 $255 forward 7 unknown #
loop $-1 $256 $257 $98 #
cone-surface $-1 0 0 0 0 0 1 0.25 0 0 1 I I -0.70710678118654746 0.70710678118654746 0.25 forward I I I I #
coedge $-1 $157 $157 $102 $159 forward $99 $-1 #
coedge $-1 $158 $158 $257 $258 forward $101 $-1 #
edge $-1 $259 0 $259 6.2831853071796004 $157 $260 forward 7 unknown #
loop $-1 $261 $262 $103 #
cone-surface $-1 0 0 0 0 0 1 0.25 0 0 1 I I -0.70710678118654746 0.70710678118654746 0.25 forward I I I I #
coedge $-1 $162 $162 $107 $164 forward $104 $-1 #
coedge $-1 $163 $163 $262 $263 forward $106 $-1 #
edge $-1 $264 0 $264 6.2831853071796004 $162 $265 forward 7 unknown #
loop $-1 $266 $267 $108 #
cone-surface $-1 0 0 0 0 0 1 0.25 0 0 1 I I -0.70710678118654746 0.70710678118654746 0.25 forward I I I I #
coedge $-1 $167 $167 $112 $169 forward $109 $-1 #
coedge $-1 $168 $168 $267 $268 forward $111 $-1 #
edge $-1 $269 0 $269 6.2831853071796004 $167 $270 forward 7 unknown #
face $-1 $271 $272 $27 $-1 $273 reversed single #
loop $-1 $-1 $274 $113 #
plane-surface $-1 -57.600634784997098 0 0 1 0 0 0 0 -1 forward_v I I I I #
coedge $-1 $275 $181 $276 $277 forward $114 $-1 #
coedge $-1 $278 $116 $275 $279 forward $73 $-1 #
coedge $-1 $116 $278 $280 $281 forward $73 $-1 #
coedge $-1 $184 $183 $116 $177 reversed $185 $-1 #
edge $-1 $282 -32.68682648537095 $283 32.68682648537095 $176 $284 forward 7 unknown #
coedge $-1 $118 $117 $285 $286 forward $46 $-1 #
coedge $-1 $287 $288 $117 $180 reversed $272 $-1 #
edge $-1 $187 -57.600634784997098 $289 57.600634784997098 $179 $290 forward 7 unknown #
coedge $-1 $173 $291 $118 $182 reversed $114 $-1 #
edge $-1 $292 -57.600634784997098 $186 57.600634784997098 $181 $293 forward 7 unknown #
coedge $-1 $176 $119 $291 $294 forward $185 $-1 #
coedge $-1 $119 $176 $287 $295 reversed $185 $-1 #
loop $-1 $-1 $183 $271 #
vertex $-1 $120 $296 #
vertex $-1 $120 $297 #
straight-curve $-1 57.600634784997098 0 15.52342449269387 0 1 0 I I #
face $-1 $298 $299 $28 $-1 $300 reversed single #
loop $-1 $-1 $301 $121 #
plane-surface $-1 -57.600634784997098 0 0 1 0 0 0 0 -1 forward_v I I I I #
coedge $-1 $302 $200 $303 $304 forward $122 $-1 #
coedge $-1 $305 $124 $302 $306 forward $77 $-1 #
coedge $-1 $124 $305 $307 $308 forward $77 $-1 #
coedge $-1 $203 $202 $124 $196 reversed $204 $-1 #
edge $-1 $309 -8.5291806508293178 $310 8.5291806508293178 $195 $311 forward 7 unknown #
coedge $-1 $126 $125 $312 $313 forward $49 $-1 #
coedge $-1 $314 $315 $125 $199 reversed $299 $-1 #
edge $-1 $206 -57.600634784997098 $316 57.600634784997098 $198 $317 forward 7 unknown #
coedge $-1 $192 $318 $126 $201 reversed $122 $-1 #
edge $-1 $319 -57.600634784997098 $205 57.600634784997098 $200 $320 forward 7 unknown #
coedge $-1 $195 $127 $318 $321 forward $204 $-1 #
coedge $-1 $127 $195 $314 $322 reversed $204 $-1 #
loop $-1 $-1 $202 $298 #
vertex $-1 $128 $323 #
vertex $-1 $128 $324 #
straight-curve $-1 57.600634784997098 0 3.8612191119969133 0 1 0 I I #
face $-1 $325 $326 $29 $-1 $327 reversed single #
loop $-1 $-1 $328 $129 #
plane-surface $-1 -230.40253913998839 0 0 1 0 0 0 0 -1 forward_v I I I I #
coedge $-1 $329 $219 $330 $331 forward $130 $-1 #
coedge $-1 $332 $132 $329 $333 forward $81 $-1 #
coedge $-1 $132 $332 $334 $335 forward $81 $-1 #
coedge $-1 $222 $221 $132 $215 reversed $223 $-1 #
edge $-1 $336 -4.6647234606740149 $337 4.6647234606740149 $214 $338 forward 7 unknown #
coedge $-1 $134 $133 $339 $340 forward $52 $-1 #
coedge $-1 $341 $342 $133 $218 reversed $326 $-1 #
edge $-1 $225 -230.40253913998839 $343 230.40253913998839 $217 $344 forward 7 unknown #
coedge $-1 $211 $345 $134 $220 reversed $130 $-1 #
edge $-1 $346 -230.40253913998839 $224 230.40253913998839 $219 $347 forward 7 unknown #
coedge $-1 $214 $135 $345 $348 forward $223 $-1 #
coedge $-1 $135 $214 $341 $349 reversed $223 $-1 #
loop $-1 $-1 $221 $325 #
vertex $-1 $136 $350 #
vertex $-1 $136 $351 #
straight-curve $-1 230.40253913998839 0 115.2012695699942 0 1 0 I I #
loop $-1 $-1 $352 $84 #
coedge $-1 $228 $228 $140 $229 reversed $137 $-1 #
edge $-1 $353 0 $353 6.2831853071796004 $228 $354 forward 7 unknown #
vertex $-1 $141 $355 #
ellipse-curve $-1 0 0 -1.6326639606921578 0 0 -1 1 0 0 1 I I #
loop $-1 $-1 $356 $89 #
coedge $-1 $233 $233 $145 $234 reversed $142 $-1 #
edge $-1 $357 0 $357 6.2831853071796004 $233 $358 forward 7 unknown #
vertex $-1 $146 $359 #
ellipse-curve $-1 0 0 -1.6326639606921578 0 0 -1 1 0 0 1 I I #
face $-1 $360 $361 $32 $-1 $362 reversed single #
loop $-1 $-1 $363 $147 #
plane-surface $-1 -230.40253913998839 0 0 1 0 0 0 0 -1 forward_v I I I I #
coedge $-1 $364 $248 $365 $366 forward $148 $-1 #
coedge $-1 $367 $150 $364 $368 forward $95 $-1 #
coedge $-1 $150 $367 $369 $370 forward $95 $-1 #
coedge $-1 $251 $250 $150 $244 reversed $252 $-1 #
edge $-1 $371 -4.6131342729960387 $372 4.6131342729960387 $243 $373 forward 7 unknown #
coedge $-1 $152 $151 $374 $375 forward $61 $-1 #
coedge $-1 $376 $377 $151 $247 reversed $361 $-1 #
edge $-1 $254 -230.40253913998839 $378 230.40253913998839 $246 $379 forward 7 unknown #
coedge $-1 $240 $380 $152 $249 reversed $148 $-1 #
edge $-1 $381 -230.40253913998839 $253 230.40253913998839 $248 $382 forward 7 unknown #
coedge $-1 $243 $153 $380 $383 forward $252 $-1 #
coedge $-1 $153 $243 $376 $384 reversed $252 $-1 #
loop $-1 $-1 $250 $360 #
vertex $-1 $154 $385 #
vertex $-1 $154 $386 #
straight-curve $-1 230.40253913998839 0 115.2012695699942 0 1 0 I I #
loop $-1 $-1 $387 $98 #
coedge $-1 $257 $257 $158 $258 reversed $155 $-1 #
edge $-1 $388 0 $388 6.2831853071796004 $257 $389 forward 7 unknown #
vertex $-1 $159 $390 #
ellipse-curve $-1 0 0 -2.1827524643696394 0 0 -1 0.5 0 0 1 I I #
loop $-1 $-1 $391 $103 #
coedge $-1 $262 $262 $163 $263 reversed $160 $-1 #
edge $-1 $392 0 $392 6.2831853071796004 $262 $393 forward 7 unknown #
vertex $-1 $164 $394 #
ellipse-curve $-1 0 0 -2.1827524643696394 0 0 -1 0.5 0 0 1 I I #
loop $-1 $-1 $395 $108 #
coedge $-1 $267 $267 $168 $268 reversed $165 $-1 #
edge $-1 $396 0 $396 6.2831853071796004 $267 $397 forward 7 unknown #
vertex $-1 $169 $398 #
ellipse-curve $-1 0 0 -2.1827524643696394 0 0 -1 0.5 0 0 1 I I #
face $-1 $-1 $185 $27 $-1 $399 reversed single #
loop $-1 $-1 $287 $170 #
plane-surface $-1 0 32.68682648537095 0 0 -1 0 0 0 -1 forward_v I I I I #
coedge $-1 $400 $285 $288 $401 forward $171 $-1 #
coedge $-1 $291 $173 $174 $279 reversed $114 $-1 #
coedge $-1 $285 $400 $173 $277 reversed $171 $-1 #
edge $-1 $292 -15.52342449269387 $402 15.52342449269387 $276 $403 forward 7 unknown #
coedge $-1 $175 $174 $400 $404 forward $73 $-1 #
edge $-1 $283 -57.600634784997098 $402 57.600634784997098 $275 $405 forward 7 unknown #
coedge $-1 $288 $287 $175 $281 reversed $272 $-1 #
edge $-1 $406 -57.600634784997098 $282 57.600634784997098 $280 $407 forward 7 unknown #
vertex $-1 $177 $408 #
vertex $-1 $294 $409 #
straight-curve $-1 57.600634784997098 0 -15.52342449269387 0 -1 0 I I #
coedge $-1 $274 $276 $178 $286 reversed $171 $-1 #
edge $-1 $289 -32.68682648537095 $292 32.68682648537095 $285 $410 forward 7 unknown #
coedge $-1 $280 $179 $184 $295 forward $272 $-1 #
coedge $-1 $179 $280 $274 $401 reversed $272 $-1 #
vertex $-1 $180 $411 #
straight-curve $-1 0 32.68682648537095 15.52342449269387 -1 0 0 I I #
coedge $-1 $181 $275 $183 $294 reversed $114 $-1 #
vertex $-1 $286 $412 #
straight-curve $-1 0 -32.68682648537095 15.52342449269387 1 0 0 I I #
edge $-1 $186 -15.52342449269387 $283 15.52342449269387 $183 $413 forward 7 unknown #
edge $-1 $187 -15.52342449269387 $282 15.52342449269387 $184 $414 forward 7 unknown #
point $-1 57.600634784997098 -32.68682648537095 15.52342449269387 #
point $-1 57.600634784997098 32.68682648537095 15.52342449269387 #
face $-1 $-1 $204 $28 $-1 $415 reversed single #
loop $-1 $-1 $314 $189 #
plane-surface $-1 0 8.5291806508293178 0 0 -1 0 0 0 -1 forward_v I I I I #
coedge $-1 $416 $312 $315 $417 forward $190 $-1 #
coedge $-1 $318 $192 $193 $306 reversed $122 $-1 #
coedge $-1 $312 $416 $192 $304 reversed $190 $-1 #
edge $-1 $319 -3.8612191119969133 $418 3.8612191119969133 $303 $419 forward 7 unknown #
coedge $-1 $194 $193 $416 $420 forward $77 $-1 #
edge $-1 $310 -57.600634784997098 $418 57.600634784997098 $302 $421 forward 7 unknown #
coedge $-1 $315 $314 $194 $308 reversed $299 $-1 #
edge $-1 $422 -57.600634784997098 $309 57.600634784997098 $307 $423 forward 7 unknown #
vertex $-1 $196 $424 #
vertex $-1 $321 $425 #
straight-curve $-1 57.600634784997098 0 -3.8612191119969133 0 -1 0 I I #
coedge $-1 $301 $303 $197 $313 reversed $190 $-1 #
edge $-1 $316 -8.5291806508293178 $319 8.5291806508293178 $312 $426 forward 7 unknown #
coedge $-1 $307 $198 $203 $322 forward $299 $-1 #
coedge $-1 $198 $307 $301 $417 reversed $299 $-1 #
vertex $-1 $199 $427 #
straight-curve $-1 0 8.5291806508293178 3.8612191119969133 -1 0 0 I I #
coedge $-1 $200 $302 $202 $321 reversed $122 $-1 #
vertex $-1 $313 $428 #
straight-curve $-1 0 -8.5291806508293178 3.8612191119969133 1 0 0 I I #
edge $-1 $205 -3.8612191119969133 $310 3.8612191119969133 $202 $429 forward 7 unknown #
edge $-1 $206 -3.8612191119969133 $309 3.8612191119969133 $203 $430 forward 7 unknown #
point $-1 57.600634784997098 -8.5291806508293178 3.8612191119969133 #
point $-1 57.600634784997098 8.5291806508293178 3.8612191119969133 #
face $-1 $-1 $223 $29 $-1 $431 reversed single #
loop $-1 $-1 $341 $208 #
plane-surface $-1 0 4.6647234606740149 0 0 -1 0 0 0 -1 forward_v I I I I #
coedge $-1 $432 $339 $342 $433 forward $209 $-1 #
coedge $-1 $345 $211 $212 $333 reversed $130 $-1 #
coedge $-1 $339 $432 $211 $331 reversed $209 $-1 #
edge $-1 $346 -115.2012695699942 $434 115.2012695699942 $330 $435 forward 7 unknown #
coedge $-1 $213 $212 $432 $436 forward $81 $-1 #
edge $-1 $337 -230.40253913998839 $434 230.40253913998839 $329 $437 forward 7 unknown #
coedge $-1 $342 $341 $213 $335 reversed $326 $-1 #
edge $-1 $438 -230.40253913998839 $336 230.40253913998839 $334 $439 forward 7 unknown #
vertex $-1 $215 $440 #
vertex $-1 $348 $441 #
straight-curve $-1 230.40253913998839 0 -115.2012695699942 0 -1 0 I I #
coedge $-1 $328 $330 $216 $340 reversed $209 $-1 #
edge $-1 $343 -4.6647234606740149 $346 4.6647234606740149 $339 $442 forward 7 unknown #
coedge $-1 $334 $217 $222 $349 forward $326 $-1 #
coedge $-1 $217 $334 $328 $433 reversed $326 $-1 #
vertex $-1 $218 $443 #
straight-curve $-1 0 4.6647234606740149 115.2012695699942 -1 0 0 I I #
coedge $-1 $219 $329 $221 $348 reversed $130 $-1 #
vertex $-1 $340 $444 #
straight-curve $-1 0 -4.6647234606740149 115.2012695699942 1 0 0 I I #
edge $-1 $224 -115.2012695699942 $337 115.2012695699942 $221 $445 forward 7 unknown #
edge $-1 $225 -115.2012695699942 $336 115.2012695699942 $222 $446 forward 7 unknown #
point $-1 230.40253913998839 -4.6647234606740149 115.2012695699942 #
point $-1 230.40253913998839 4.6647234606740149 115.2012695699942 #
coedge $-1 $352 $352 $-1 $447 reversed $227 $-1 #
vertex $-1 $229 $448 #
ellipse-curve $-1 0 0 -0.5 0 0 -1 1 0 0 1 I I #
point $-1 1 0 -1.6326639606921578 #
coedge $-1 $356 $356 $-1 $449 reversed $232 $-1 #
vertex $-1 $234 $450 #
ellipse-curve $-1 0 0 -0.5 0 0 -1 1 0 0 1 I I #
point $-1 1 0 -1.6326639606921578 #
face $-1 $-1 $252 $32 $-1 $451 reversed single #
loop $-1 $-1 $376 $237 #
plane-surface $-1 0 4.6131342729960387 0 0 -1 0 0 0 -1 forward_v I I I I #
coedge $-1 $452 $374 $377 $453 forward $238 $-1 #
coedge $-1 $380 $240 $241 $368 reversed $148 $-1 #
coedge $-1 $374 $452 $240 $366 reversed $238 $-1 #
edge $-1 $381 -115.2012695699942 $454 115.2012695699942 $365 $455 forward 7 unknown #
coedge $-1 $242 $241 $452 $456 forward $95 $-1 #
edge $-1 $372 -230.40253913998839 $454 230.40253913998839 $364 $457 forward 7 unknown #
coedge $-1 $377 $376 $242 $370 reversed $361 $-1 #
edge $-1 $458 -230.40253913998839 $371 230.40253913998839 $369 $459 forward 7 unknown #
vertex $-1 $244 $460 #
vertex $-1 $383 $461 #
straight-curve $-1 230.40253913998839 0 -115.2012695699942 0 -1 0 I I #
coedge $-1 $363 $365 $245 $375 reversed $238 $-1 #
edge $-1 $378 -4.6131342729960387 $381 4.6131342729960387 $374 $462 forward 7 unknown #
coedge $-1 $369 $246 $251 $384 forward $361 $-1 #
coedge $-1 $246 $369 $363 $453 reversed $361 $-1 #
vertex $-1 $247 $463 #
straight-curve $-1 0 4.6131342729960387 115.2012695699942 -1 0 0 I I #
coedge $-1 $248 $364 $250 $383 reversed $148 $-1 #
vertex $-1 $375 $464 #
straight-curve $-1 0 -4.6131342729960387 115.2012695699942 1 0 0 I I #
edge $-1 $253 -115.2012695699942 $372 115.2012695699942 $250 $465 forward 7 unknown #
edge $-1 $254 -115.2012695699942 $371 115.2012695699942 $251 $466 forward 7 unknown #
point $-1 230.40253913998839 -4.6131342729960387 115.2012695699942 #
point $-1 230.40253913998839 4.6131342729960387 115.2012695699942 #
coedge $-1 $387 $387 $-1 $467 reversed $256 $-1 #
vertex $-1 $258 $468 #
ellipse-curve $-1 0 0 -0.25 0 0 -1 0.5 0 0 1 I I #
point $-1 0.5 0 -2.1827524643696394 #
coedge $-1 $391 $391 $-1 $469 reversed $261 $-1 #
vertex $-1 $263 $470 #
ellipse-curve $-1 0 0 -0.25 0 0 -1 0.5 0 0 1 I I #
point $-1 0.5 0 -2.1827524643696394 #
coedge $-1 $395 $395 $-1 $471 reversed $266 $-1 #
vertex $-1 $268 $472 #
ellipse-curve $-1 0 0 -0.25 0 0 -1 0.5 0 0 1 I I #
point $-1 0.5 0 -2.1827524643696394 #
plane-surface $-1 57.600634784997098 0 0 -1 0 0 0 0 1 forward_v I I I I #
coedge $-1 $276 $274 $278 $404 reversed $171 $-1 #
edge $-1 $289 -15.52342449269387 $406 15.52342449269387 $288 $473 forward 7 unknown #
vertex $-1 $404 $474 #
straight-curve $-1 -57.600634784997098 -32.68682648537095 0 0 0 -1 I I #
edge $-1 $402 -32.68682648537095 $406 32.68682648537095 $400 $475 forward 7 unknown #
straight-curve $-1 0 -32.68682648537095 -15.52342449269387 -1 0 0 I I #
vertex $-1 $281 $476 #
straight-curve $-1 0 32.68682648537095 -15.52342449269387 1 0 0 I I #
point $-1 57.600634784997098 32.68682648537095 -15.52342449269387 #
point $-1 57.600634784997098 -32.68682648537095 -15.52342449269387 #
straight-curve $-1 -57.600634784997098 0 15.52342449269387 0 -1 0 I I #
point $-1 -57.600634784997098 32.68682648537095 15.52342449269387 #
point $-1 -57.600634784997098 -32.68682648537095 15.52342449269387 #
straight-curve $-1 57.600634784997098 -32.68682648537095 0 0 0 -1 I I #
straight-curve $-1 57.600634784997098 32.68682648537095 0 0 0 -1 I I #
plane-surface $-1 57.600634784997098 0 0 -1 0 0 0 0 1 forward_v I I I I #
coedge $-1 $303 $301 $305 $420 reversed $190 $-1 #
edge $-1 $316 -3.8612191119969133 $422 3.8612191119969133 $315 $477 forward 7 unknown #
vertex $-1 $420 $478 #
straight-curve $-1 -57.600634784997098 -8.5291806508293178 0 0 0 -1 I I #
edge $-1 $418 -8.5291806508293178 $422 8.5291806508293178 $416 $479 forward 7 unknown #
straight-curve $-1 0 -8.5291806508293178 -3.8612191119969133 -1 0 0 I I #
vertex $-1 $308 $480 #
straight-curve $-1 0 8.5291806508293178 -3.8612191119969133 1 0 0 I I #
point $-1 57.600634784997098 8.5291806508293178 -3.8612191119969133 #
point $-1 57.600634784997098 -8.5291806508293178 -3.8612191119969133 #
straight-curve $-1 -57.600634784997098 0 3.8612191119969133 0 -1 0 I I #
point $-1 -57.600634784997098 8.5291806508293178 3.8612191119969133 #
point $-1 -57.600634784997098 -8.5291806508293178 3.8612191119969133 #
straight-curve $-1 57.600634784997098 -8.5291806508293178 0 0 0 -1 I I #
straight-curve $-1 57.600634784997098 8.5291806508293178 0 0 0 -1 I I #
plane-surface $-1 230.40253913998839 0 0 -1 0 0 0 0 1 forward_v I I I I #
coedge $-1 $330 $328 $332 $436 reversed $209 $-1 #
edge $-1 $343 -115.2012695699942 $438 115.2012695699942 $342 $481 forward 7 unknown #
vertex $-1 $436 $482 #
straight-curve $-1 -230.40253913998839 -4.6647234606740149 0 0 0 -1 I I #
edge $-1 $434 -4.6647234606740149 $438 4.6647234606740149 $432 $483 forward 7 unknown #
straight-curve $-1 0 -4.6647234606740149 -115.2012695699942 -1 0 0 I I #
vertex $-1 $335 $484 #
straight-curve $-1 0 4.6647234606740149 -115.2012695699942 1 0 0 I I #
point $-1 230.40253913998839 4.6647234606740149 -115.2012695699942 #
point $-1 230.40253913998839 -4.6647234606740149 -115.2012695699942 #
straight-curve $-1 -230.40253913998839 0 115.2012695699942 0 -1 0 I I #
point $-1 -230.40253913998839 4.6647234606740149 115.2012695699942 #
point $-1 -230.40253913998839 -4.6647234606740149 115.2012695699942 #
straight-curve $-1 230.40253913998839 -4.6647234606740149 0 0 0 -1 I I #
straight-curve $-1 230.40253913998839 4.6647234606740149 0 0 0 -1 I I #
edge $-1 $485 1 $485 0 $352 $-1 forward 7 unknown #
point $-1 1 0 -0.5 #
edge $-1 $486 1 $486 0 $356 $-1 forward 7 unknown #
point $-1 1 0 -0.5 #
plane-surface $-1 230.40253913998839 0 0 -1 0 0 0 0 1 forward_v I I I I #
coedge $-1 $365 $363 $367 $456 reversed $238 $-1 #
edge $-1 $378 -115.2012695699942 $458 115.2012695699942 $377 $487 forward 7 unknown #
vertex $-1 $456 $488 #
straight-curve $-1 -230.40253913998839 -4.6131342729960387 0 0 0 -1 I I #
edge $-1 $454 -4.6131342729960387 $458 4.6131342729960387 $452 $489 forward 7 unknown #
straight-curve $-1 0 -4.6131342729960387 -115.2012695699942 -1 0 0 I I #
vertex $-1 $370 $490 #
straight-curve $-1 0 4.6131342729960387 -115.2012695699942 1 0 0 I I #
point $-1 230.40253913998839 4.6131342729960387 -115.2012695699942 #
point $-1 230.40253913998839 -4.6131342729960387 -115.2012695699942 #
straight-curve $-1 -230.40253913998839 0 115.2012695699942 0 -1 0 I I #
point $-1 -230.40253913998839 4.6131342729960387 115.2012695699942 #
point $-1 -230.40253913998839 -4.6131342729960387 115.2012695699942 #
straight-curve $-1 230.40253913998839 -4.6131342729960387 0 0 0 -1 I I #
straight-curve $-1 230.40253913998839 4.6131342729960387 0 0 0 -1 I I #
edge $-1 $491 1 $491 0 $387 $-1 forward 7 unknown #
point $-1 0.5 0 -0.25 #
edge $-1 $492 1 $492 0 $391 $-1 forward 7 unknown #
point $-1 0.5 0 -0.25 #
edge $-1 $493 1 $493 0 $395 $-1 forward 7 unknown #
point $-1 0.5 0 -0.25 #
straight-curve $-1 -57.600634784997098 32.68682648537095 0 0 0 -1 I I #
point $-1 -57.600634784997098 -32.68682648537095 -15.52342449269387 #
straight-curve $-1 -57.600634784997098 0 -15.52342449269387 0 1 0 I I #
point $-1 -57.600634784997098 32.68682648537095 -15.52342449269387 #
straight-curve $-1 -57.600634784997098 8.5291806508293178 0 0 0 -1 I I #
point $-1 -57.600634784997098 -8.5291806508293178 -3.8612191119969133 #
straight-curve $-1 -57.600634784997098 0 -3.8612191119969133 0 1 0 I I #
point $-1 -57.600634784997098 8.5291806508293178 -3.8612191119969133 #
straight-curve $-1 -230.40253913998839 4.6647234606740149 0 0 0 -1 I I #
point $-1 -230.40253913998839 -4.6647234606740149 -115.2012695699942 #
straight-curve $-1 -230.40253913998839 0 -115.2012695699942 0 1 0 I I #
point $-1 -230.40253913998839 4.6647234606740149 -115.2012695699942 #
vertex $-1 $447 $494 #
vertex $-1 $449 $495 #
straight-curve $-1 -230.40253913998839 4.6131342729960387 0 0 0 -1 I I #
point $-1 -230.40253913998839 -4.6131342729960387 -115.2012695699942 #
straight-curve $-1 -230.40253913998839 0 -115.2012695699942 0 1 0 I I #
point $-1 -230.40253913998839 4.6131342729960387 -115.2012695699942 #
vertex $-1 $467 $496 #
vertex $-1 $469 $497 #
vertex $-1 $471 $498 #
point $-1 0 0 0.5 #
point $-1 0 0 0.5 #
point $-1 0 0 0.25 #
point $-1 0 0 0.25 #
point $-1 0 0 0.25 #
End-of-ACIS-data 