500 0 12 0           
7 Unknown 11 ACIS 5.0 NT 24 Fri Mar 26 01:35:59 1999 
-1 9.9999999999999995e-007 1e-010 
body $-1 $12 $-1 $13 #
body $-1 $14 $-1 $15 #
body $-1 $16 $-1 $17 #
body $-1 $18 $-1 $19 #
body $-1 $20 $-1 $21 #
body $-1 $22 $-1 $23 #
body $-1 $24 $-1 $25 #
body $-1 $26 $-1 $27 #
body $-1 $28 $-1 $29 #
body $-1 $30 $-1 $31 #
body $-1 $32 $-1 $33 #
body $-1 $34 $-1 $35 #
lump $-1 $-1 $36 $0 #
transform $-1 1 0 0 0 1 0 0 0 1 68.538468581194493 44.597799737756901 15.963853667535959 1 rotate no_reflect no_shear #
lump $-1 $-1 $37 $1 #
transform $-1 1 0 0 0 1 0 0 0 1 68.538468581194493 44.597799737756901 15.963853667535959 1 rotate no_reflect no_shear #
lump $-1 $-1 $38 $2 #
transform $-1 1 0 0 0 1 0 0 0 1 68.538468581194493 44.597799737756901 15.963853667535959 1 rotate no_reflect no_shear #
lump $-1 $-1 $39 $3 #
transform $-1 1 0 0 0 1 0 0 0 1 68.538468581194493 44.597799737756901 15.963853667535959 1 rotate no_reflect no_shear #
lump $-1 $-1 $40 $4 #
transform $-1 1 0 0 0 1 0 0 0 1 68.538468581194493 44.597799737756901 15.963853667535959 1 rotate no_reflect no_shear #
lump $-1 $-1 $41 $5 #
transform $-1 1 0 0 0 1 0 0 0 1 68.538468581194493 44.597799737756901 15.963853667535959 1 rotate no_reflect no_shear #
lump $-1 $-1 $42 $6 #
transform $-1 1 0 0 0 1 0 0 0 1 68.538468581194493 44.597799737756901 15.963853667535959 1 rotate no_reflect no_shear #
lump $-1 $-1 $43 $7 #
transform $-1 1 0 0 0 1 0 0 0 1 68.538468581194493 44.597799737756901 15.963853667535959 1 rotate no_reflect no_shear #
lump $-1 $-1 $44 $8 #
transform $-1 1 0 0 0 1 0 0 0 1 68.538468581194493 44.597799737756901 15.963853667535959 1 rotate no_reflect no_shear #
lump $-1 $-1 $45 $9 #
transform $-1 1 0 0 0 1 0 0 0 1 68.538468581194493 44.597799737756901 15.963853667535959 1 rotate no_reflect no_shear #
lump $-1 $-1 $46 $10 #
transform $-1 1 0 0 0 1 0 0 0 1 68.538468581194493 44.597799737756901 15.963853667535959 1 rotate no_reflect no_shear #
lump $-1 $-1 $47 $11 #
transform $-1 1 0 0 0 1 0 0 0 1 68.538468581194493 44.597799737756901 15.963853667535959 1 rotate no_reflect no_shear #
shell $-1 $-1 $-1 $48 $-1 $12 #
shell $-1 $-1 $-1 $49 $-1 $14 #
shell $-1 $-1 $-1 $50 $-1 $16 #
shell $-1 $-1 $-1 $51 $-1 $18 #
shell $-1 $-1 $-1 $52 $-1 $20 #
shell $-1 $-1 $-1 $53 $-1 $22 #
shell $-1 $-1 $-1 $54 $-1 $24 #
shell $-1 $-1 $-1 $55 $-1 $26 #
shell $-1 $-1 $-1 $56 $-1 $28 #
shell $-1 $-1 $-1 $57 $-1 $30 #
shell $-1 $-1 $-1 $58 $-1 $32 #
shell $-1 $-1 $-1 $59 $-1 $34 #
face $-1 $60 $61 $36 $-1 $62 forward single #
face $-1 $63 $64 $37 $-1 $65 forward single #
face $-1 $66 $67 $38 $-1 $68 reversed single #
face $-1 $69 $70 $39 $-1 $71 forward single #
face $-1 $72 $73 $40 $-1 $74 forward single #
face $-1 $75 $76 $41 $-1 $77 forward single #
face $-1 $78 $79 $42 $-1 $80 reversed single #
face $-1 $81 $82 $43 $-1 $83 forward single #
face $-1 $84 $85 $44 $-1 $86 forward single #
face $-1 $87 $88 $45 $-1 $89 forward single #
face $-1 $90 $91 $46 $-1 $92 reversed single #
face $-1 $93 $94 $47 $-1 $95 forward single #
face $-1 $96 $97 $36 $-1 $98 reversed single #
loop $-1 $-1 $99 $48 #
plane-surface $-1 0 0 15.963853667535959 0 0 1 1 0 0 forward_v I I I I #
face $-1 $100 $101 $37 $-1 $102 reversed single #
loop $-1 $-1 $103 $49 #
plane-surface $-1 0 -35.811838776309202 -8.9961165423073517 0 0 1 1 0 0 forward_v I I I I #
face $-1 $104 $105 $38 $-1 $106 reversed single #
loop $-1 $-1 $107 $50 #
plane-surface $-1 31.548989501712342 -8.4125841030124437 199.74616171330936 0 -1 0 -0.55919291073839883 0 -0.82903756765294845 forward_v I I I I #
face $-1 $108 $109 $39 $-1 $110 forward single #
loop $-1 $111 $112 $51 #
cone-surface $-1 63.181402381377076 -16.026591747672825 11.922366378099374 -0.55919291073839883 0 -0.82903756765294845 0.41451878382647422 0 -0.27959645536919941 1 I I 0 1 0.5 forward I I I I #
face $-1 $113 $114 $40 $-1 $115 forward single #
loop $-1 $116 $117 $52 #
cone-surface $-1 63.181402381377076 -13.17133888092518 11.922366378099374 -0.55919291073839883 0 -0.82903756765294845 0.41451878382647422 0 -0.27959645536919941 1 I I 0 1 0.5 forward I I I I #
face $-1 $118 $119 $41 $-1 $120 forward single #
loop $-1 $121 $122 $53 #
cone-surface $-1 63.181402381377076 -10.316086014177536 11.922366378099374 -0.55919291073839883 0 -0.82903756765294845 0.41451878382647422 0 -0.27959645536919941 1 I I 0 1 0.5 forward I I I I #
face $-1 $123 $124 $42 $-1 $125 reversed single #
loop $-1 $-1 $126 $54 #
plane-surface $-1 31.548989501712342 35.502015581733318 199.74616171330936 0 -1 0 -0.55919291073839883 0 -0.82903756765294845 forward_v I I I I #
face $-1 $127 $128 $43 $-1 $129 forward single #
loop $-1 $130 $131 $55 #
cone-surface $-1 63.181402381377076 27.888007937072928 11.922366378099374 -0.55919291073839883 0 -0.82903756765294845 0.41451878382647422 0 -0.27959645536919941 1 I I 0 1 0.5 forward I I I I #
face $-1 $132 $133 $44 $-1 $134 forward single #
loop $-1 $135 $136 $56 #
cone-surface $-1 63.181402381377076 30.743260803820576 11.922366378099374 -0.55919291073839883 0 -0.82903756765294845 0.41451878382647422 0 -0.27959645536919941 1 I I 0 1 0.5 forward I I I I #
face $-1 $137 $138 $45 $-1 $139 forward single #
loop $-1 $140 $141 $57 #
cone-surface $-1 63.181402381377076 33.598513670568224 11.922366378099374 -0.55919291073839883 0 -0.82903756765294845 0.41451878382647422 0 -0.27959645536919941 1 I I 0 1 0.5 forward I I I I #
face $-1 $142 $143 $46 $-1 $144 reversed single #
loop $-1 $-1 $145 $58 #
plane-surface $-1 -168.79019511441305 -14.157785937661437 94.273168101862211 0 1 0 -0.73135370988377701 0 0.68199835119979291 forward_v I I I I #
face $-1 $146 $147 $47 $-1 $148 forward single #
loop $-1 $149 $150 $59 #
cone-surface $-1 -60.637024519073435 -10.418128088578605 7.6059833669488439 0.73135370988377701 0 -0.68199835119979291 0.68199835119979291 0 0.73135370988377701 1 I I 0 1 1 forward I I I I #
face $-1 $151 $152 $36 $-1 $153 reversed single #
loop $-1 $-1 $154 $60 #
plane-surface $-1 0 0 -15.963853667535959 0 0 1 1 0 0 forward_v I I I I #
coedge $-1 $155 $156 $157 $158 forward $61 $-1 #
face $-1 $159 $160 $37 $-1 $161 reversed single #
loop $-1 $-1 $162 $63 #
plane-surface $-1 0 -27.025877814861502 -12.479985104921656 0 -1 0 0 0 -1 forward_v I I I I #
coedge $-1 $163 $164 $165 $166 reversed $64 $-1 #
face $-1 $167 $168 $38 $-1 $169 reversed single #
loop $-1 $-1 $170 $66 #
plane-surface $-1 -45.103461985228549 -13.171338880925184 86.104231146886335 0.55919291073839883 0 0.82903756765294845 0.82903756765294845 0 -0.55919291073839883 forward_v I I I I #
coedge $-1 $171 $172 $173 $174 reversed $67 $-1 #
face $-1 $-1 $175 $39 $-1 $176 forward single #
loop $-1 $177 $178 $69 #
cone-surface $-1 62.511811236452857 -16.026591747672825 10.929656700544788 -0.55919291073839883 0 -0.82903756765294845 0.20725939191323711 0 -0.13979822768459971 1 I I -0.70710678118654746 0.70710678118654746 0.25 forward I I I I #
loop $-1 $-1 $179 $51 #
coedge $-1 $112 $112 $180 $181 reversed $70 $-1 #
face $-1 $-1 $182 $40 $-1 $183 forward single #
loop $-1 $184 $185 $72 #
cone-surface $-1 62.511811236452857 -13.17133888092518 10.929656700544788 -0.55919291073839883 0 -0.82903756765294845 0.20725939191323711 0 -0.13979822768459971 1 I I -0.70710678118654746 0.70710678118654746 0.25 forward I I I I #
loop $-1 $-1 $186 $52 #
coedge $-1 $117 $117 $187 $188 reversed $73 $-1 #
face $-1 $-1 $189 $41 $-1 $190 forward single #
loop $-1 $191 $192 $75 #
cone-surface $-1 62.511811236452857 -10.316086014177536 10.929656700544788 -0.55919291073839883 0 -0.82903756765294845 0.20725939191323711 0 -0.13979822768459971 1 I I -0.70710678118654746 0.70710678118654746 0.25 forward I I I I #
loop $-1 $-1 $193 $53 #
coedge $-1 $122 $122 $194 $195 reversed $76 $-1 #
face $-1 $196 $197 $42 $-1 $198 reversed single #
loop $-1 $-1 $199 $78 #
plane-surface $-1 -45.103461985228549 30.743260803820576 86.104231146886335 0.55919291073839883 0 0.82903756765294845 0.82903756765294845 0 -0.55919291073839883 forward_v I I I I #
coedge $-1 $200 $201 $202 $203 reversed $79 $-1 #
face $-1 $-1 $204 $43 $-1 $205 forward single #
loop $-1 $206 $207 $81 #
cone-surface $-1 62.511811236452857 27.888007937072928 10.929656700544788 -0.55919291073839883 0 -0.82903756765294845 0.20725939191323711 0 -0.13979822768459971 1 I I -0.70710678118654746 0.70710678118654746 0.25 forward I I I I #
loop $-1 $-1 $208 $55 #
coedge $-1 $131 $131 $209 $210 reversed $82 $-1 #
face $-1 $-1 $211 $44 $-1 $212 forward single #
loop $-1 $213 $214 $84 #
cone-surface $-1 62.511811236452857 30.743260803820576 10.929656700544788 -0.55919291073839883 0 -0.82903756765294845 0.20725939191323711 0 -0.13979822768459971 1 I I -0.70710678118654746 0.70710678118654746 0.25 forward I I I I #
loop $-1 $-1 $215 $56 #
coedge $-1 $136 $136 $216 $217 reversed $85 $-1 #
face $-1 $-1 $218 $45 $-1 $219 forward single #
loop $-1 $220 $221 $87 #
cone-surface $-1 62.511811236452857 33.598513670568224 10.929656700544788 -0.55919291073839883 0 -0.82903756765294845 0.20725939191323711 0 -0.13979822768459971 1 I I -0.70710678118654746 0.70710678118654746 0.25 forward I I I I #
loop $-1 $-1 $222 $57 #
coedge $-1 $141 $141 $223 $224 reversed $88 $-1 #
face $-1 $225 $226 $46 $-1 $227 reversed single #
loop $-1 $-1 $228 $90 #
plane-surface $-1 -68.538468581194479 -10.418128088578605 0.7869229695953095 -0.73135370988377701 0 0.68199835119979291 0.68199835119979291 0 0.73135370988377701 forward_v I I I I #
coedge $-1 $229 $230 $231 $232 reversed $91 $-1 #
face $-1 $-1 $233 $47 $-1 $234 forward single #
loop $-1 $235 $236 $93 #
cone-surface $-1 -59.446261848633682 -10.418128088578605 6.4955792397321641 0.73135370988377701 0 -0.68199835119979291 0.34099917559989645 0 0.36567685494188851 1 I I -0.70710678118654746 0.70710678118654746 0.5 forward I I I I #
loop $-1 $-1 $237 $59 #
coedge $-1 $150 $150 $238 $239 reversed $94 $-1 #
face $-1 $240 $241 $36 $-1 $242 reversed single #
loop $-1 $-1 $243 $96 #
plane-surface $-1 0 -44.597799737756901 0 0 1 0 0 0 1 forward_v I I I I #
coedge $-1 $244 $245 $246 $247 forward $97 $-1 #
coedge $-1 $248 $99 $249 $250 forward $61 $-1 #
coedge $-1 $99 $248 $251 $252 forward $61 $-1 #
coedge $-1 $253 $254 $99 $158 reversed $255 $-1 #
edge $-1 $256 -44.597799737756901 $257 44.597799737756901 $157 $258 forward 7 unknown #
face $-1 $259 $260 $37 $-1 $261 reversed single #
loop $-1 $-1 $262 $100 #
plane-surface $-1 0 0 -15.963853667535959 0 0 1 1 0 0 forward_v I I I I #
coedge $-1 $263 $264 $265 $266 reversed $101 $-1 #
coedge $-1 $267 $103 $264 $268 forward $64 $-1 #
coedge $-1 $103 $267 $269 $270 reversed $64 $-1 #
coedge $-1 $271 $265 $103 $166 forward $260 $-1 #
edge $-1 $272 9.1199584267069014 $273 26.6918803496023 $165 $274 forward 7 unknown #
face $-1 $275 $276 $38 $-1 $277 reversed single #
loop $-1 $-1 $278 $104 #
plane-surface $-1 31.548989501712342 -17.930093658837926 199.74616171330936 0 1 0 0.55919291073839883 0 0.82903756765294845 forward_v I I I I #
coedge $-1 $279 $280 $281 $282 reversed $105 $-1 #
coedge $-1 $172 $107 $283 $284 reversed $67 $-1 #
coedge $-1 $107 $171 $279 $285 reversed $67 $-1 #
coedge $-1 $281 $286 $107 $174 forward $287 $-1 #
edge $-1 $288 -52.763973830338323 $289 -43.109427265182596 $173 $290 forward 7 unknown #
loop $-1 $-1 $180 $108 #
plane-surface $-1 -45.103461985228549 -13.171338880925184 86.104231146886335 0.55919291073839883 0 0.82903756765294845 0.82903756765294845 0 -0.55919291073839883 forward_v I I I I #
loop $-1 $-1 $291 $69 #
coedge $-1 $178 $178 $179 $292 reversed $109 $-1 #
coedge $-1 $179 $179 $178 $292 forward $111 $-1 #
coedge $-1 $180 $180 $112 $181 forward $175 $-1 #
edge $-1 $293 0 $293 6.2831853071796004 $180 $294 forward 7 unknown #
loop $-1 $-1 $187 $113 #
plane-surface $-1 -45.103461985228549 -13.171338880925184 86.104231146886335 0.55919291073839883 0 0.82903756765294845 0.82903756765294845 0 -0.55919291073839883 forward_v I I I I #
loop $-1 $-1 $295 $72 #
coedge $-1 $185 $185 $186 $296 reversed $114 $-1 #
coedge $-1 $186 $186 $185 $296 forward $116 $-1 #
coedge $-1 $187 $187 $117 $188 forward $182 $-1 #
edge $-1 $297 0 $297 6.2831853071796004 $187 $298 forward 7 unknown #
loop $-1 $-1 $194 $118 #
plane-surface $-1 -45.103461985228549 -13.171338880925184 86.104231146886335 0.55919291073839883 0 0.82903756765294845 0.82903756765294845 0 -0.55919291073839883 forward_v I I I I #
loop $-1 $-1 $299 $75 #
coedge $-1 $192 $192 $193 $300 reversed $119 $-1 #
coedge $-1 $193 $193 $192 $300 forward $121 $-1 #
coedge $-1 $194 $194 $122 $195 forward $189 $-1 #
edge $-1 $301 0 $301 6.2831853071796004 $194 $302 forward 7 unknown #
face $-1 $303 $304 $42 $-1 $305 reversed single #
loop $-1 $-1 $306 $123 #
plane-surface $-1 31.548989501712342 25.984506025907834 199.74616171330936 0 1 0 0.55919291073839883 0 0.82903756765294845 forward_v I I I I #
coedge $-1 $307 $308 $309 $310 reversed $124 $-1 #
coedge $-1 $201 $126 $311 $312 reversed $79 $-1 #
coedge $-1 $126 $200 $307 $313 reversed $79 $-1 #
coedge $-1 $309 $314 $126 $203 forward $315 $-1 #
edge $-1 $316 -52.763973830338323 $317 -43.109427265182596 $202 $318 forward 7 unknown #
loop $-1 $-1 $209 $127 #
plane-surface $-1 -45.103461985228549 30.743260803820576 86.104231146886335 0.55919291073839883 0 0.82903756765294845 0.82903756765294845 0 -0.55919291073839883 forward_v I I I I #
loop $-1 $-1 $319 $81 #
coedge $-1 $207 $207 $208 $320 reversed $128 $-1 #
coedge $-1 $208 $208 $207 $320 forward $130 $-1 #
coedge $-1 $209 $209 $131 $210 forward $204 $-1 #
edge $-1 $321 0 $321 6.2831853071796004 $209 $322 forward 7 unknown #
loop $-1 $-1 $216 $132 #
plane-surface $-1 -45.103461985228549 30.743260803820576 86.104231146886335 0.55919291073839883 0 0.82903756765294845 0.82903756765294845 0 -0.55919291073839883 forward_v I I I I #
loop $-1 $-1 $323 $84 #
coedge $-1 $214 $214 $215 $324 reversed $133 $-1 #
coedge $-1 $215 $215 $214 $324 forward $135 $-1 #
coedge $-1 $216 $216 $136 $217 forward $211 $-1 #
edge $-1 $325 0 $325 6.2831853071796004 $216 $326 forward 7 unknown #
loop $-1 $-1 $223 $137 #
plane-surface $-1 -45.103461985228549 30.743260803820576 86.104231146886335 0.55919291073839883 0 0.82903756765294845 0.82903756765294845 0 -0.55919291073839883 forward_v I I I I #
loop $-1 $-1 $327 $87 #
coedge $-1 $221 $221 $222 $328 reversed $138 $-1 #
coedge $-1 $222 $222 $221 $328 forward $140 $-1 #
coedge $-1 $223 $223 $141 $224 forward $218 $-1 #
edge $-1 $329 0 $329 6.2831853071796004 $223 $330 forward 7 unknown #
face $-1 $331 $332 $46 $-1 $333 forward single #
loop $-1 $-1 $334 $142 #
plane-surface $-1 -168.79019511441305 -6.6784702394957733 94.273168101862211 0 -1 0 0.73135370988377701 0 -0.68199835119979291 forward_v I I I I #
coedge $-1 $335 $336 $337 $338 reversed $143 $-1 #
coedge $-1 $230 $145 $339 $340 reversed $91 $-1 #
coedge $-1 $145 $229 $335 $341 reversed $91 $-1 #
coedge $-1 $337 $342 $145 $232 forward $332 $-1 #
edge $-1 $343 15.856628976012033 $344 30.009345469258406 $231 $345 forward 7 unknown #
loop $-1 $-1 $238 $146 #
plane-surface $-1 -68.538468581194479 -10.418128088578605 0.7869229695953095 -0.73135370988377701 0 0.68199835119979291 0.68199835119979291 0 0.73135370988377701 forward_v I I I I #
loop $-1 $-1 $346 $93 #
coedge $-1 $236 $236 $237 $347 reversed $147 $-1 #
coedge $-1 $237 $237 $236 $347 forward $149 $-1 #
coedge $-1 $238 $238 $150 $239 forward $233 $-1 #
edge $-1 $348 0 $348 6.2831853071796004 $238 $349 forward 7 unknown #
face $-1 $350 $351 $36 $-1 $352 reversed single #
loop $-1 $-1 $353 $151 #
plane-surface $-1 -68.538468581194493 0 0 1 0 0 0 0 -1 forward_v I I I I #
coedge $-1 $354 $251 $355 $356 forward $152 $-1 #
coedge $-1 $357 $154 $354 $358 forward $97 $-1 #
coedge $-1 $154 $357 $359 $360 forward $97 $-1 #
coedge $-1 $254 $253 $154 $247 reversed $255 $-1 #
edge $-1 $361 -44.597799737756901 $362 44.597799737756901 $246 $363 forward 7 unknown #
coedge $-1 $156 $155 $364 $365 forward $61 $-1 #
coedge $-1 $366 $367 $155 $250 reversed $351 $-1 #
edge $-1 $257 -68.538468581194493 $368 68.538468581194493 $249 $369 forward 7 unknown #
coedge $-1 $243 $370 $156 $252 reversed $152 $-1 #
edge $-1 $371 -68.538468581194493 $256 68.538468581194493 $251 $372 forward 7 unknown #
coedge $-1 $246 $157 $370 $373 forward $255 $-1 #
coedge $-1 $157 $246 $366 $374 reversed $255 $-1 #
loop $-1 $-1 $253 $350 #
vertex $-1 $158 $375 #
vertex $-1 $158 $376 #
straight-curve $-1 68.538468581194493 0 15.963853667535959 0 1 0 I I #
face $-1 $377 $378 $37 $-1 $379 reversed single #
loop $-1 $-1 $265 $159 #
plane-surface $-1 68.538468581194493 0 0 -1 0 0 0 0 1 forward_v I I I I #
coedge $-1 $380 $381 $263 $382 forward $160 $-1 #
coedge $-1 $383 $162 $262 $382 reversed $101 $-1 #
coedge $-1 $162 $383 $163 $268 reversed $101 $-1 #
coedge $-1 $165 $384 $162 $266 forward $260 $-1 #
edge $-1 $385 -9.7238611150751328 $272 -2.7561239898465235 $265 $386 forward 7 unknown #
coedge $-1 $164 $163 $387 $388 reversed $64 $-1 #
edge $-1 $272 -68.538468581194493 $389 68.538468581194493 $264 $390 forward 7 unknown #
coedge $-1 $391 $392 $164 $270 forward $378 $-1 #
edge $-1 $273 -68.538468581194493 $393 68.538468581194493 $269 $394 forward 7 unknown #
coedge $-1 $384 $165 $392 $395 forward $260 $-1 #
vertex $-1 $166 $396 #
vertex $-1 $395 $397 #
straight-curve $-1 68.538468581194493 -17.905919388154601 -8.9961165423073517 0 -1 0 I I #
face $-1 $-1 $287 $38 $-1 $398 forward single #
loop $-1 $-1 $399 $167 #
plane-surface $-1 68.538468581194493 0 0 -1 0 0 0 0 1 forward_v I I I I #
coedge $-1 $400 $401 $402 $403 reversed $168 $-1 #
coedge $-1 $404 $170 $172 $285 forward $105 $-1 #
coedge $-1 $170 $404 $400 $405 forward $105 $-1 #
coedge $-1 $402 $173 $170 $282 forward $287 $-1 #
edge $-1 $289 1.8269146625498518 $406 11.344424218375334 $281 $407 forward 7 unknown #
coedge $-1 $408 $409 $171 $284 forward $276 $-1 #
edge $-1 $410 -90.421301196709251 $288 -83.909227189118724 $283 $411 forward 7 unknown #
edge $-1 $289 125.43144974197176 $410 137.07693716238902 $172 $412 forward 7 unknown #
coedge $-1 $173 $402 $408 $413 forward $287 $-1 #
loop $-1 $-1 $402 $275 #
vertex $-1 $284 $414 #
vertex $-1 $174 $415 #
straight-curve $-1 15.774494750856171 -8.4125841030124437 15.963853667535957 -1 0 0 I I #
coedge $-1 $291 $291 $-1 $416 reversed $177 $-1 #
edge $-1 $417 0 $417 6.2831853071796004 $178 $418 forward 7 unknown #
vertex $-1 $181 $419 #
ellipse-curve $-1 63.711195298616666 -16.026591747672825 12.707816663740676 0.55919291073839883 0 0.82903756765294845 0.41451878382647422 0 -0.27959645536919941 1 I I #
coedge $-1 $295 $295 $-1 $420 reversed $184 $-1 #
edge $-1 $421 0 $421 6.2831853071796004 $185 $422 forward 7 unknown #
vertex $-1 $188 $423 #
ellipse-curve $-1 63.711195298616666 -13.17133888092518 12.707816663740676 0.55919291073839883 0 0.82903756765294845 0.41451878382647422 0 -0.27959645536919941 1 I I #
coedge $-1 $299 $299 $-1 $424 reversed $191 $-1 #
edge $-1 $425 0 $425 6.2831853071796004 $192 $426 forward 7 unknown #
vertex $-1 $195 $427 #
ellipse-curve $-1 63.711195298616666 -10.316086014177536 12.707816663740676 0.55919291073839883 0 0.82903756765294845 0.41451878382647422 0 -0.27959645536919941 1 I I #
face $-1 $-1 $315 $42 $-1 $428 forward single #
loop $-1 $-1 $429 $196 #
plane-surface $-1 68.538468581194493 0 0 -1 0 0 0 0 1 forward_v I I I I #
coedge $-1 $430 $431 $432 $433 reversed $197 $-1 #
coedge $-1 $434 $199 $201 $313 forward $124 $-1 #
coedge $-1 $199 $434 $430 $435 forward $124 $-1 #
coedge $-1 $432 $202 $199 $310 forward $315 $-1 #
edge $-1 $317 -20.13038517982303 $436 -10.612875623997546 $309 $437 forward 7 unknown #
coedge $-1 $438 $439 $200 $312 forward $304 $-1 #
edge $-1 $440 -90.421301196709251 $316 -83.909227189118724 $311 $441 forward 7 unknown #
edge $-1 $317 125.43144974197176 $440 137.07693716238902 $201 $442 forward 7 unknown #
coedge $-1 $202 $432 $438 $443 forward $315 $-1 #
loop $-1 $-1 $432 $303 #
vertex $-1 $312 $444 #
vertex $-1 $203 $445 #
straight-curve $-1 15.774494750856171 35.502015581733318 15.963853667535957 -1 0 0 I I #
coedge $-1 $319 $319 $-1 $446 reversed $206 $-1 #
edge $-1 $447 0 $447 6.2831853071796004 $207 $448 forward 7 unknown #
vertex $-1 $210 $449 #
ellipse-curve $-1 63.711195298616666 27.888007937072928 12.707816663740676 0.55919291073839883 0 0.82903756765294845 0.41451878382647422 0 -0.27959645536919941 1 I I #
coedge $-1 $323 $323 $-1 $450 reversed $213 $-1 #
edge $-1 $451 0 $451 6.2831853071796004 $214 $452 forward 7 unknown #
vertex $-1 $217 $453 #
ellipse-curve $-1 63.711195298616666 30.743260803820576 12.707816663740676 0.55919291073839883 0 0.82903756765294845 0.41451878382647422 0 -0.27959645536919941 1 I I #
coedge $-1 $327 $327 $-1 $454 reversed $220 $-1 #
edge $-1 $455 0 $455 6.2831853071796004 $221 $456 forward 7 unknown #
vertex $-1 $224 $457 #
ellipse-curve $-1 63.711195298616666 33.598513670568224 12.707816663740676 0.55919291073839883 0 0.82903756765294845 0.41451878382647422 0 -0.27959645536919941 1 I I #
face $-1 $-1 $458 $46 $-1 $459 reversed single #
loop $-1 $-1 $231 $225 #
plane-surface $-1 0 0 15.963853667535959 0 0 1 1 0 0 forward_v I I I I #
coedge $-1 $460 $461 $462 $463 reversed $226 $-1 #
coedge $-1 $464 $228 $230 $341 forward $143 $-1 #
coedge $-1 $228 $464 $460 $465 forward $143 $-1 #
coedge $-1 $462 $231 $228 $338 forward $332 $-1 #
edge $-1 $344 -8.9487218933721344 $466 -1.4694061952064708 $337 $467 forward 7 unknown #
coedge $-1 $468 $469 $229 $340 forward $458 $-1 #
edge $-1 $470 -46.34966108133581 $343 -31.172730383395148 $339 $471 forward 7 unknown #
edge $-1 $344 -20.751833883980005 $470 2.0815709956562115e-014 $230 $472 forward 7 unknown #
coedge $-1 $231 $462 $468 $473 forward $332 $-1 #
vertex $-1 $340 $474 #
vertex $-1 $232 $475 #
straight-curve $-1 -84.395097557206526 -14.157785937661437 15.963853667535957 1 0 0 I I #
coedge $-1 $346 $346 $-1 $476 reversed $235 $-1 #
edge $-1 $477 0 $477 6.2831853071796004 $236 $478 forward 7 unknown #
vertex $-1 $239 $479 #
ellipse-curve $-1 -61.462110334571307 -10.418128088578605 8.3753883185656282 -0.73135370988377701 0 0.68199835119979291 0.68199835119979291 0 0.73135370988377701 1 I I #
face $-1 $-1 $255 $36 $-1 $480 reversed single #
loop $-1 $-1 $366 $240 #
plane-surface $-1 0 44.597799737756901 0 0 -1 0 0 0 -1 forward_v I I I I #
coedge $-1 $481 $364 $367 $482 forward $241 $-1 #
coedge $-1 $370 $243 $244 $358 reversed $152 $-1 #
coedge $-1 $364 $481 $243 $356 reversed $241 $-1 #
edge $-1 $371 -15.963853667535959 $483 15.963853667535959 $355 $484 forward 7 unknown #
coedge $-1 $245 $244 $481 $485 forward $97 $-1 #
edge $-1 $362 -68.538468581194493 $483 68.538468581194493 $354 $486 forward 7 unknown #
coedge $-1 $367 $366 $245 $360 reversed $351 $-1 #
edge $-1 $487 -68.538468581194493 $361 68.538468581194493 $359 $488 forward 7 unknown #
vertex $-1 $247 $489 #
vertex $-1 $373 $490 #
straight-curve $-1 68.538468581194493 0 -15.963853667535959 0 -1 0 I I #
coedge $-1 $353 $355 $248 $365 reversed $241 $-1 #
edge $-1 $368 -44.597799737756901 $371 44.597799737756901 $364 $491 forward 7 unknown #
coedge $-1 $359 $249 $254 $374 forward $351 $-1 #
coedge $-1 $249 $359 $353 $482 reversed $351 $-1 #
vertex $-1 $250 $492 #
straight-curve $-1 0 44.597799737756901 15.963853667535959 -1 0 0 I I #
coedge $-1 $251 $354 $253 $373 reversed $152 $-1 #
vertex $-1 $365 $493 #
straight-curve $-1 0 -44.597799737756901 15.963853667535959 1 0 0 I I #
edge $-1 $256 -15.963853667535959 $362 15.963853667535959 $253 $494 forward 7 unknown #
edge $-1 $257 -15.963853667535959 $361 15.963853667535959 $254 $495 forward 7 unknown #
point $-1 68.538468581194493 -44.597799737756901 15.963853667535959 #
point $-1 68.538468581194493 44.597799737756901 15.963853667535959 #
face $-1 $-1 $496 $37 $-1 $497 reversed single #
loop $-1 $-1 $269 $259 #
plane-surface $-1 0 -44.597799737756901 0 0 1 0 0 0 1 forward_v I I I I #
coedge $-1 $498 $262 $384 $499 forward $160 $-1 #
coedge $-1 $262 $498 $500 $501 forward $160 $-1 #
edge $-1 $502 -68.538468581194493 $385 68.538468581194493 $262 $503 forward 7 unknown #
coedge $-1 $264 $263 $504 $505 reversed $101 $-1 #
coedge $-1 $265 $271 $380 $499 reversed $260 $-1 #
vertex $-1 $499 $506 #
straight-curve $-1 68.538468581194493 -27.025877814861502 -6.2399925524608282 0 0 1 I I #
coedge $-1 $504 $507 $267 $388 forward $496 $-1 #
edge $-1 $393 -26.6918803496023 $389 -9.1199584267069014 $387 $508 forward 7 unknown #
vertex $-1 $388 $509 #
straight-curve $-1 0 -27.025877814861502 -8.9961165423073517 -1 0 0 I I #
coedge $-1 $510 $269 $507 $511 forward $378 $-1 #
coedge $-1 $269 $510 $271 $395 reversed $378 $-1 #
vertex $-1 $511 $512 #
straight-curve $-1 0 -44.597799737756901 -8.9961165423073517 -1 0 0 I I #
edge $-1 $273 8.9961165423073517 $513 15.963853667535959 $271 $514 forward 7 unknown #
point $-1 68.538468581194493 -27.025877814861502 -8.9961165423073517 #
point $-1 68.538468581194493 -44.597799737756901 -8.9961165423073517 #
plane-surface $-1 0 0 15.963853667535959 0 0 1 1 0 0 forward_v I I I I #
coedge $-1 $409 $408 $401 $515 forward $276 $-1 #
coedge $-1 $401 $278 $280 $405 reversed $168 $-1 #
coedge $-1 $278 $400 $399 $515 reversed $168 $-1 #
coedge $-1 $286 $281 $278 $403 forward $287 $-1 #
edge $-1 $406 43.109427265182596 $516 52.763973830338323 $402 $517 forward 7 unknown #
coedge $-1 $280 $279 $409 $518 reversed $105 $-1 #
edge $-1 $519 -137.07693716238902 $406 -125.43144974197176 $400 $520 forward 7 unknown #
vertex $-1 $282 $521 #
straight-curve $-1 58.883922016038767 -6.585669440462592 15.963853667535957 0 -1 0 I I #
coedge $-1 $399 $283 $286 $413 reversed $276 $-1 #
coedge $-1 $283 $399 $404 $518 forward $276 $-1 #
vertex $-1 $284 $522 #
straight-curve $-1 68.538468581194493 -8.4125841030124437 99.873080856654681 0 0 1 I I #
straight-curve $-1 -45.103461985228549 -8.4125841030124437 86.104231146886335 0.82903756765294845 0 -0.55919291073839883 I I #
edge $-1 $516 -17.930093658837926 $288 -8.4125841030124437 $408 $523 forward 7 unknown #
point $-1 68.538468581194493 -8.4125841030124437 15.963853667535959 #
point $-1 58.883922016038767 -8.4125841030124437 15.963853667535957 #
edge $-1 $524 1 $524 0 $291 $-1 forward 7 unknown #
vertex $-1 $292 $525 #
ellipse-curve $-1 62.651609464137458 -16.026591747672825 11.136916092458025 0.55919291073839883 0 0.82903756765294845 0.41451878382647422 0 -0.27959645536919941 1 I I #
point $-1 64.125714082443167 -16.026591747672825 12.428220208371522 #
edge $-1 $526 1 $526 0 $295 $-1 forward 7 unknown #
vertex $-1 $296 $527 #
ellipse-curve $-1 62.651609464137458 -13.17133888092518 11.136916092458025 0.55919291073839883 0 0.82903756765294845 0.41451878382647422 0 -0.27959645536919941 1 I I #
point $-1 64.125714082443167 -13.17133888092518 12.428220208371522 #
edge $-1 $528 1 $528 0 $299 $-1 forward 7 unknown #
vertex $-1 $300 $529 #
ellipse-curve $-1 62.651609464137458 -10.316086014177536 11.136916092458025 0.55919291073839883 0 0.82903756765294845 0.41451878382647422 0 -0.27959645536919941 1 I I #
point $-1 64.125714082443167 -10.316086014177536 12.428220208371522 #
plane-surface $-1 0 0 15.963853667535959 0 0 1 1 0 0 forward_v I I I I #
coedge $-1 $439 $438 $431 $530 forward $304 $-1 #
coedge $-1 $431 $306 $308 $435 reversed $197 $-1 #
coedge $-1 $306 $430 $429 $530 reversed $197 $-1 #
coedge $-1 $314 $309 $306 $433 forward $315 $-1 #
edge $-1 $436 43.109427265182596 $531 52.763973830338323 $432 $532 forward 7 unknown #
coedge $-1 $308 $307 $439 $533 reversed $124 $-1 #
edge $-1 $534 -137.07693716238902 $436 -125.43144974197176 $430 $535 forward 7 unknown #
vertex $-1 $310 $536 #
straight-curve $-1 58.883922016038767 15.371630401910288 15.963853667535957 0 -1 0 I I #
coedge $-1 $429 $311 $314 $443 reversed $304 $-1 #
coedge $-1 $311 $429 $434 $533 forward $304 $-1 #
vertex $-1 $312 $537 #
straight-curve $-1 68.538468581194493 35.502015581733318 99.873080856654681 0 0 1 I I #
straight-curve $-1 -45.103461985228549 35.502015581733318 86.104231146886335 0.82903756765294845 0 -0.55919291073839883 I I #
edge $-1 $531 25.984506025907834 $316 35.502015581733318 $438 $538 forward 7 unknown #
point $-1 68.538468581194493 35.502015581733318 15.963853667535959 #
point $-1 58.883922016038767 35.502015581733318 15.963853667535957 #
edge $-1 $539 1 $539 0 $319 $-1 forward 7 unknown #
vertex $-1 $320 $540 #
ellipse-curve $-1 62.651609464137458 27.888007937072928 11.136916092458025 0.55919291073839883 0 0.82903756765294845 0.41451878382647422 0 -0.27959645536919941 1 I I #
point $-1 64.125714082443167 27.888007937072928 12.428220208371522 #
edge $-1 $541 1 $541 0 $323 $-1 forward 7 unknown #
vertex $-1 $324 $542 #
ellipse-curve $-1 62.651609464137458 30.743260803820576 11.136916092458025 0.55919291073839883 0 0.82903756765294845 0.41451878382647422 0 -0.27959645536919941 1 I I #
point $-1 64.125714082443167 30.743260803820576 12.428220208371522 #
edge $-1 $543 1 $543 0 $327 $-1 forward 7 unknown #
vertex $-1 $328 $544 #
ellipse-curve $-1 62.651609464137458 33.598513670568224 11.136916092458025 0.55919291073839883 0 0.82903756765294845 0.41451878382647422 0 -0.27959645536919941 1 I I #
point $-1 64.125714082443167 33.598513670568224 12.428220208371522 #
loop $-1 $-1 $339 $331 #
plane-surface $-1 -68.538468581194493 0 0 1 0 0 0 0 -1 forward_v I I I I #
coedge $-1 $461 $334 $336 $465 reversed $226 $-1 #
coedge $-1 $334 $460 $545 $546 reversed $226 $-1 #
coedge $-1 $342 $337 $334 $463 forward $332 $-1 #
edge $-1 $466 -30.009345469258406 $547 -15.856628976012033 $462 $548 forward 7 unknown #
coedge $-1 $336 $335 $469 $549 reversed $143 $-1 #
edge $-1 $550 -2.0815709956562115e-014 $466 20.751833883980005 $460 $551 forward 7 unknown #
vertex $-1 $338 $552 #
straight-curve $-1 -54.38575208794812 -5.2090640442893026 15.963853667535957 0 1 0 I I #
coedge $-1 $545 $339 $342 $473 reversed $458 $-1 #
coedge $-1 $339 $545 $464 $549 forward $458 $-1 #
vertex $-1 $340 $553 #
straight-curve $-1 -68.538468581194493 -14.157785937661437 47.136584050931106 0 0 1 I I #
straight-curve $-1 -68.538468581194479 -14.157785937661437 0.7869229695953095 -0.68199835119979291 0 -0.73135370988377701 I I #
edge $-1 $547 6.6784702394957733 $343 14.157785937661437 $468 $554 forward 7 unknown #
point $-1 -68.538468581194493 -14.157785937661437 15.963853667535959 #
point $-1 -54.38575208794812 -14.157785937661437 15.963853667535957 #
edge $-1 $555 1 $555 0 $346 $-1 forward 7 unknown #
vertex $-1 $347 $556 #
ellipse-curve $-1 -59.811938703575571 -10.418128088578605 6.8365784153320606 -0.73135370988377701 0 0.68199835119979291 0.68199835119979291 0 0.73135370988377701 1 I I #
point $-1 -60.780111983371512 -10.418128088578605 9.1067420284494034 #
plane-surface $-1 68.538468581194493 0 0 -1 0 0 0 0 1 forward_v I I I I #
coedge $-1 $355 $353 $357 $485 reversed $241 $-1 #
edge $-1 $368 -15.963853667535959 $487 15.963853667535959 $367 $557 forward 7 unknown #
vertex $-1 $485 $558 #
straight-curve $-1 -68.538468581194493 -44.597799737756901 0 0 0 -1 I I #
edge $-1 $483 -44.597799737756901 $487 44.597799737756901 $481 $559 forward 7 unknown #
straight-curve $-1 0 -44.597799737756901 -15.963853667535959 -1 0 0 I I #
vertex $-1 $360 $560 #
straight-curve $-1 0 44.597799737756901 -15.963853667535959 1 0 0 I I #
point $-1 68.538468581194493 44.597799737756901 -15.963853667535959 #
point $-1 68.538468581194493 -44.597799737756901 -15.963853667535959 #
straight-curve $-1 -68.538468581194493 0 15.963853667535959 0 -1 0 I I #
point $-1 -68.538468581194493 44.597799737756901 15.963853667535959 #
point $-1 -68.538468581194493 -44.597799737756901 15.963853667535959 #
straight-curve $-1 68.538468581194493 -44.597799737756901 0 0 0 -1 I I #
straight-curve $-1 68.538468581194493 44.597799737756901 0 0 0 -1 I I #
loop $-1 $-1 $504 $377 #
plane-surface $-1 -68.538468581194493 0 0 1 0 0 0 0 -1 forward_v I I I I #
coedge $-1 $381 $380 $510 $561 forward $160 $-1 #
edge $-1 $385 27.025877814861502 $513 44.597799737756901 $384 $562 forward 7 unknown #
coedge $-1 $507 $504 $381 $501 reversed $496 $-1 #
edge $-1 $563 -44.597799737756901 $502 -27.025877814861502 $500 $564 forward 7 unknown #
vertex $-1 $505 $565 #
straight-curve $-1 0 -27.025877814861502 -15.963853667535959 1 0 0 I I #
coedge $-1 $500 $387 $383 $505 forward $496 $-1 #
edge $-1 $389 2.7561239898465235 $502 9.7238611150751328 $504 $566 forward 7 unknown #
point $-1 68.538468581194493 -27.025877814861502 -15.963853667535961 #
coedge $-1 $387 $500 $391 $511 reversed $496 $-1 #
straight-curve $-1 -68.538468581194493 -17.905919388154601 -8.9961165423073517 0 1 0 I I #
point $-1 -68.538468581194493 -27.025877814861502 -8.9961165423073517 #
coedge $-1 $392 $391 $498 $561 reversed $378 $-1 #
edge $-1 $393 8.9961165423073517 $563 15.963853667535959 $507 $567 forward 7 unknown #
point $-1 -68.538468581194493 -44.597799737756901 -8.9961165423073517 #
vertex $-1 $395 $568 #
straight-curve $-1 68.538468581194493 -44.597799737756901 0 0 0 -1 I I #
edge $-1 $516 83.909227189118724 $519 90.421301196709251 $399 $569 forward 7 unknown #
vertex $-1 $413 $570 #
straight-curve $-1 15.774494750856171 -17.930093658837926 15.963853667535957 1 0 0 I I #
edge $-1 $519 -11.344424218375334 $410 -1.8269146625498518 $409 $571 forward 7 unknown #
vertex $-1 $518 $572 #
straight-curve $-1 -45.103461985228549 -17.930093658837926 86.104231146886335 -0.82903756765294845 0 0.55919291073839883 I I #
point $-1 58.883922016038767 -17.930093658837926 15.963853667535957 #
point $-1 68.538468581194493 -8.4125841030124437 9.45177965994543 #
straight-curve $-1 68.538468581194493 0 15.963853667535959 0 1 0 I I #
vertex $-1 $416 $573 #
point $-1 63.066128247963931 -16.026591747672825 10.857319637088827 #
vertex $-1 $420 $574 #
point $-1 63.066128247963931 -13.17133888092518 10.857319637088827 #
vertex $-1 $424 $575 #
point $-1 63.066128247963931 -10.316086014177536 10.857319637088827 #
edge $-1 $531 83.909227189118724 $534 90.421301196709251 $429 $576 forward 7 unknown #
vertex $-1 $443 $577 #
straight-curve $-1 15.774494750856171 25.984506025907834 15.963853667535957 1 0 0 I I #
edge $-1 $534 10.612875623997546 $440 20.13038517982303 $439 $578 forward 7 unknown #
vertex $-1 $533 $579 #
straight-curve $-1 -45.103461985228549 25.984506025907834 86.104231146886335 -0.82903756765294845 0 0.55919291073839883 I I #
point $-1 58.883922016038767 25.984506025907834 15.963853667535957 #
point $-1 68.538468581194493 35.502015581733318 9.45177965994543 #
straight-curve $-1 68.538468581194493 0 15.963853667535959 0 1 0 I I #
vertex $-1 $446 $580 #
point $-1 63.066128247963931 27.888007937072928 10.857319637088827 #
vertex $-1 $450 $581 #
point $-1 63.066128247963931 30.743260803820576 10.857319637088827 #
vertex $-1 $454 $582 #
point $-1 63.066128247963931 33.598513670568224 10.857319637088827 #
coedge $-1 $469 $468 $461 $546 forward $458 $-1 #
edge $-1 $547 31.172730383395148 $550 46.34966108133581 $545 $583 forward 7 unknown #
vertex $-1 $473 $584 #
straight-curve $-1 -84.395097557206526 -6.6784702394957733 15.963853667535957 -1 0 0 I I #
edge $-1 $550 1.4694061952064708 $470 8.9487218933721344 $469 $585 forward 7 unknown #
vertex $-1 $549 $586 #
straight-curve $-1 -68.538468581194479 -6.6784702394957733 0.7869229695953095 0.68199835119979291 0 0.73135370988377701 I I #
point $-1 -54.38575208794812 -6.6784702394957733 15.963853667535957 #
point $-1 -68.538468581194493 -14.157785937661437 0.78692296959529429 #
straight-curve $-1 -68.538468581194493 0 15.963853667535959 0 -1 0 I I #
vertex $-1 $476 $587 #
point $-1 -59.129940352375776 -10.418128088578605 7.5679321252158376 #
straight-curve $-1 -68.538468581194493 44.597799737756901 0 0 0 -1 I I #
point $-1 -68.538468581194493 -44.597799737756901 -15.963853667535959 #
straight-curve $-1 -68.538468581194493 0 -15.963853667535959 0 1 0 I I #
point $-1 -68.538468581194493 44.597799737756901 -15.963853667535959 #
edge $-1 $513 -68.538468581194493 $563 68.538468581194493 $510 $588 forward 7 unknown #
straight-curve $-1 68.538468581194493 0 -15.963853667535959 0 -1 0 I I #
vertex $-1 $501 $589 #
straight-curve $-1 -68.538468581194493 0 -15.963853667535959 0 1 0 I I #
point $-1 -68.538468581194493 -27.025877814861502 -15.963853667535961 #
straight-curve $-1 -68.538468581194493 -27.025877814861502 -6.2399925524608282 0 0 -1 I I #
straight-curve $-1 -68.538468581194493 -44.597799737756901 0 0 0 -1 I I #
point $-1 68.538468581194493 -44.597799737756901 -15.963853667535959 #
straight-curve $-1 68.538468581194493 -17.930093658837926 99.873080856654681 0 0 -1 I I #
point $-1 68.538468581194493 -17.930093658837926 15.963853667535959 #
straight-curve $-1 68.538468581194493 -6.585669440462592 9.45177965994543 0 1 0 I I #
point $-1 68.538468581194493 -17.930093658837926 9.45177965994543 #
point $-1 62.372013008768256 -16.026591747672825 10.722397308631551 #
point $-1 62.372013008768256 -13.17133888092518 10.722397308631551 #
point $-1 62.372013008768256 -10.316086014177536 10.722397308631551 #
straight-curve $-1 68.538468581194493 25.984506025907834 99.873080856654681 0 0 -1 I I #
point $-1 68.538468581194493 25.984506025907834 15.963853667535959 #
straight-curve $-1 68.538468581194493 15.371630401910288 9.45177965994543 0 1 0 I I #
point $-1 68.538468581194493 25.984506025907834 9.45177965994543 #
point $-1 62.372013008768256 27.888007937072928 10.722397308631551 #
point $-1 62.372013008768256 30.743260803820576 10.722397308631551 #
point $-1 62.372013008768256 33.598513670568224 10.722397308631551 #
straight-curve $-1 -68.538468581194493 -6.6784702394957733 47.136584050931106 0 0 -1 I I #
point $-1 -68.538468581194493 -6.6784702394957733 15.963853667535959 #
straight-curve $-1 -68.538468581194493 -5.2090640442893026 0.78692296959528052 0 -1 0 I I #
point $-1 -68.538468581194493 -6.6784702394957733 0.78692296959529429 #
point $-1 -59.080584993691794 -10.418128088578605 6.1545800641322677 #
straight-curve $-1 0 -44.597799737756901 -15.963853667535959 -1 0 0 I I #
point $-1 -68.538468581194493 -44.597799737756901 -15.963853667535959 #
End-of-ACIS-data 