500 0 9 0           
7 Unknown 11 ACIS 5.0 NT 24 Thu Mar 25 23:34:22 1999 
-1 9.9999999999999995e-007 1e-010 
body $-1 $9 $-1 $10 #
body $-1 $11 $-1 $12 #
body $-1 $13 $-1 $14 #
body $-1 $15 $-1 $16 #
body $-1 $17 $-1 $18 #
body $-1 $19 $-1 $20 #
body $-1 $21 $-1 $22 #
body $-1 $23 $-1 $24 #
body $-1 $25 $-1 $26 #
lump $-1 $-1 $27 $0 #
transform $-1 1 0 0 0 1 0 0 0 1 60.515762810144352 29.514708610650899 9.614190918504697 1 rotate no_reflect no_shear #
lump $-1 $-1 $28 $1 #
transform $-1 1 0 0 0 1 0 0 0 1 60.515762810144352 29.514708610650899 9.614190918504697 1 rotate no_reflect no_shear #
lump $-1 $-1 $29 $2 #
transform $-1 1 0 0 0 1 0 0 0 1 60.515762810144352 29.514708610650899 9.614190918504697 1 rotate no_reflect no_shear #
lump $-1 $-1 $30 $3 #
transform $-1 1 0 0 0 1 0 0 0 1 60.515762810144352 29.514708610650899 9.614190918504697 1 rotate no_reflect no_shear #
lump $-1 $-1 $31 $4 #
transform $-1 1 0 0 0 1 0 0 0 1 60.515762810144352 29.514708610650899 9.614190918504697 1 rotate no_reflect no_shear #
lump $-1 $-1 $32 $5 #
transform $-1 1 0 0 0 1 0 0 0 1 60.515762810144352 29.514708610650899 9.614190918504697 1 rotate no_reflect no_shear #
lump $-1 $-1 $33 $6 #
transform $-1 1 0 0 0 1 0 0 0 1 60.515762810144352 29.514708610650899 9.614190918504697 1 rotate no_reflect no_shear #
lump $-1 $-1 $34 $7 #
transform $-1 1 0 0 0 1 0 0 0 1 60.515762810144352 29.514708610650899 9.614190918504697 1 rotate no_reflect no_shear #
lump $-1 $-1 $35 $8 #
transform $-1 1 0 0 0 1 0 0 0 1 60.515762810144352 29.514708610650899 9.614190918504697 1 rotate no_reflect no_shear #
shell $-1 $-1 $-1 $36 $-1 $9 #
shell $-1 $-1 $-1 $37 $-1 $11 #
shell $-1 $-1 $-1 $38 $-1 $13 #
shell $-1 $-1 $-1 $39 $-1 $15 #
shell $-1 $-1 $-1 $40 $-1 $17 #
shell $-1 $-1 $-1 $41 $-1 $19 #
shell $-1 $-1 $-1 $42 $-1 $21 #
shell $-1 $-1 $-1 $43 $-1 $23 #
shell $-1 $-1 $-1 $44 $-1 $25 #
face $-1 $45 $46 $27 $-1 $47 reversed single #
face $-1 $48 $49 $28 $-1 $50 forward single #
face $-1 $51 $52 $29 $-1 $53 forward single #
face $-1 $54 $55 $30 $-1 $56 reversed single #
face $-1 $57 $58 $31 $-1 $59 forward single #
face $-1 $60 $61 $32 $-1 $62 forward single #
face $-1 $63 $64 $33 $-1 $65 reversed single #
face $-1 $66 $67 $34 $-1 $68 forward single #
face $-1 $69 $70 $35 $-1 $71 forward single #
face $-1 $72 $73 $27 $-1 $74 forward single #
loop $-1 $-1 $75 $36 #
plane-surface $-1 0 -29.514708610650899 0 0 1 0 0 0 1 forward_v I I I I #
face $-1 $76 $77 $28 $-1 $78 forward single #
loop $-1 $-1 $79 $37 #
plane-surface $-1 0 -29.514708610650899 0 0 1 0 0 0 1 forward_v I I I I #
face $-1 $80 $81 $29 $-1 $82 forward single #
loop $-1 $-1 $83 $38 #
plane-surface $-1 0 29.514708610650899 0 0 -1 0 0 0 -1 forward_v I I I I #
face $-1 $84 $85 $30 $-1 $86 reversed single #
loop $-1 $-1 $87 $39 #
plane-surface $-1 45.597801975256687 -5.5033168996535737 173.87499200681427 0 -1 0 -0.64278761758704617 0 -0.76604443648966558 forward_v I I I I #
face $-1 $88 $89 $31 $-1 $90 forward single #
loop $-1 $91 $92 $40 #
cone-surface $-1 55.953181987983555 -11.525925766511616 5.490564801101212 -0.64278761758704617 0 -0.76604443648966558 0.76604443648966558 0 -0.64278761758704617 1 I I 0 1 1 forward I I I I #
face $-1 $93 $94 $32 $-1 $95 forward single #
loop $-1 $96 $97 $41 #
cone-surface $-1 55.953181987983555 -7.9123604463967894 5.490564801101212 -0.64278761758704617 0 -0.76604443648966558 0.76604443648966558 0 -0.64278761758704617 1 I I 0 1 1 forward I I I I #
face $-1 $98 $99 $33 $-1 $100 reversed single #
loop $-1 $-1 $101 $42 #
plane-surface $-1 45.597801975256687 12.927770281949602 173.87499200681427 0 -1 0 -0.64278761758704617 0 -0.76604443648966558 forward_v I I I I #
face $-1 $102 $103 $34 $-1 $104 forward single #
loop $-1 $105 $106 $43 #
cone-surface $-1 55.953181987983555 6.9051614150915555 5.490564801101212 -0.64278761758704617 0 -0.76604443648966558 0.76604443648966558 0 -0.64278761758704617 1 I I 0 1 1 forward I I I I #
face $-1 $107 $108 $35 $-1 $109 forward single #
loop $-1 $110 $111 $44 #
cone-surface $-1 55.953181987983555 10.518726735206386 5.490564801101212 -0.64278761758704617 0 -0.76604443648966558 0.76604443648966558 0 -0.64278761758704617 1 I I 0 1 1 forward I I I I #
face $-1 $112 $113 $27 $-1 $114 reversed single #
loop $-1 $-1 $115 $45 #
plane-surface $-1 0 0 9.614190918504697 0 0 1 1 0 0 forward_v I I I I #
coedge $-1 $116 $117 $118 $119 reversed $46 $-1 #
face $-1 $120 $121 $28 $-1 $122 reversed single #
loop $-1 $-1 $123 $48 #
plane-surface $-1 0 0 9.614190918504697 0 0 1 1 0 0 forward_v I I I I #
coedge $-1 $124 $125 $126 $127 forward $49 $-1 #
face $-1 $128 $129 $29 $-1 $130 reversed single #
loop $-1 $-1 $131 $51 #
plane-surface $-1 0 0 9.614190918504697 0 0 1 1 0 0 forward_v I I I I #
coedge $-1 $132 $133 $134 $135 forward $52 $-1 #
face $-1 $136 $137 $30 $-1 $138 reversed single #
loop $-1 $-1 $139 $54 #
plane-surface $-1 -32.199764031134237 -9.7191431064542044 81.159465165535678 0.64278761758704617 0 0.76604443648966558 0.76604443648966558 0 -0.64278761758704617 forward_v I I I I #
coedge $-1 $140 $141 $142 $143 reversed $55 $-1 #
face $-1 $-1 $144 $31 $-1 $145 forward single #
loop $-1 $146 $147 $57 #
cone-surface $-1 54.794802862078981 -11.525925766511616 4.1100623451328673 -0.64278761758704617 0 -0.76604443648966558 0.38302221824483279 0 -0.32139380879352308 1 I I -0.70710678118654746 0.70710678118654746 0.5 forward I I I I #
loop $-1 $-1 $148 $40 #
coedge $-1 $92 $92 $149 $150 reversed $58 $-1 #
face $-1 $-1 $151 $32 $-1 $152 forward single #
loop $-1 $153 $154 $60 #
cone-surface $-1 54.794802862078981 -7.9123604463967894 4.1100623451328673 -0.64278761758704617 0 -0.76604443648966558 0.38302221824483279 0 -0.32139380879352308 1 I I -0.70710678118654746 0.70710678118654746 0.5 forward I I I I #
loop $-1 $-1 $155 $41 #
coedge $-1 $97 $97 $156 $157 reversed $61 $-1 #
face $-1 $158 $159 $33 $-1 $160 reversed single #
loop $-1 $-1 $161 $63 #
plane-surface $-1 -32.199764031134237 8.7119440751489705 81.159465165535678 0.64278761758704617 0 0.76604443648966558 0.76604443648966558 0 -0.64278761758704617 forward_v I I I I #
coedge $-1 $162 $163 $164 $165 reversed $64 $-1 #
face $-1 $-1 $166 $34 $-1 $167 forward single #
loop $-1 $168 $169 $66 #
cone-surface $-1 54.794802862078981 6.9051614150915555 4.1100623451328673 -0.64278761758704617 0 -0.76604443648966558 0.38302221824483279 0 -0.32139380879352308 1 I I -0.70710678118654746 0.70710678118654746 0.5 forward I I I I #
loop $-1 $-1 $170 $43 #
coedge $-1 $106 $106 $171 $172 reversed $67 $-1 #
face $-1 $-1 $173 $35 $-1 $174 forward single #
loop $-1 $175 $176 $69 #
cone-surface $-1 54.794802862078981 10.518726735206386 4.1100623451328673 -0.64278761758704617 0 -0.76604443648966558 0.38302221824483279 0 -0.32139380879352308 1 I I -0.70710678118654746 0.70710678118654746 0.5 forward I I I I #
loop $-1 $-1 $177 $44 #
coedge $-1 $111 $111 $178 $179 reversed $70 $-1 #
face $-1 $180 $181 $27 $-1 $182 reversed single #
loop $-1 $-1 $183 $72 #
plane-surface $-1 0 0 -9.614190918504697 0 0 1 1 0 0 forward_v I I I I #
coedge $-1 $184 $185 $186 $187 forward $73 $-1 #
coedge $-1 $188 $75 $189 $190 reversed $46 $-1 #
coedge $-1 $75 $188 $191 $192 forward $46 $-1 #
coedge $-1 $193 $183 $75 $119 forward $113 $-1 #
edge $-1 $194 -60.515762810144352 $195 60.515762810144352 $75 $196 forward 7 unknown #
face $-1 $197 $198 $28 $-1 $199 reversed single #
loop $-1 $-1 $200 $76 #
plane-surface $-1 -60.515762810144352 0 0 1 0 0 0 0 -1 forward_v I I I I #
coedge $-1 $201 $202 $125 $203 forward $77 $-1 #
coedge $-1 $204 $79 $205 $206 reversed $49 $-1 #
coedge $-1 $79 $204 $123 $203 reversed $49 $-1 #
coedge $-1 $207 $208 $79 $127 reversed $209 $-1 #
edge $-1 $210 -9.614190918504697 $211 9.614190918504697 $126 $212 forward 7 unknown #
face $-1 $213 $214 $29 $-1 $215 reversed single #
loop $-1 $-1 $216 $80 #
plane-surface $-1 -59.015762810144352 40.598330039698624 0 0 -1 0 0 0 -1 forward_v I I I I #
coedge $-1 $217 $218 $132 $219 forward $81 $-1 #
coedge $-1 $220 $83 $131 $219 reversed $52 $-1 #
coedge $-1 $83 $220 $221 $222 reversed $52 $-1 #
coedge $-1 $223 $224 $83 $135 reversed $214 $-1 #
edge $-1 $225 -9.614190918504697 $226 9.614190918504697 $134 $227 forward 7 unknown #
face $-1 $228 $229 $30 $-1 $230 forward single #
loop $-1 $-1 $231 $84 #
plane-surface $-1 45.597801975256687 -13.934969313254836 173.87499200681427 0 1 0 0.64278761758704617 0 0.76604443648966558 forward_v I I I I #
coedge $-1 $232 $233 $234 $235 reversed $85 $-1 #
coedge $-1 $141 $87 $236 $237 reversed $55 $-1 #
coedge $-1 $87 $140 $232 $238 reversed $55 $-1 #
coedge $-1 $234 $239 $87 $143 forward $229 $-1 #
edge $-1 $240 -37.716861822516009 $241 -30.265670812416531 $142 $242 forward 7 unknown #
loop $-1 $-1 $149 $88 #
plane-surface $-1 -32.199764031134237 -9.7191431064542044 81.159465165535678 0.64278761758704617 0 0.76604443648966558 0.76604443648966558 0 -0.64278761758704617 forward_v I I I I #
loop $-1 $-1 $243 $57 #
coedge $-1 $147 $147 $148 $244 reversed $89 $-1 #
coedge $-1 $148 $148 $147 $244 forward $91 $-1 #
coedge $-1 $149 $149 $92 $150 forward $144 $-1 #
edge $-1 $245 0 $245 6.2831853071796004 $149 $246 forward 7 unknown #
loop $-1 $-1 $156 $93 #
plane-surface $-1 -32.199764031134237 -9.7191431064542044 81.159465165535678 0.64278761758704617 0 0.76604443648966558 0.76604443648966558 0 -0.64278761758704617 forward_v I I I I #
loop $-1 $-1 $247 $60 #
coedge $-1 $154 $154 $155 $248 reversed $94 $-1 #
coedge $-1 $155 $155 $154 $248 forward $96 $-1 #
coedge $-1 $156 $156 $97 $157 forward $151 $-1 #
edge $-1 $249 0 $249 6.2831853071796004 $156 $250 forward 7 unknown #
face $-1 $251 $252 $33 $-1 $253 reversed single #
loop $-1 $-1 $254 $98 #
plane-surface $-1 45.597801975256687 4.4961178683483398 173.87499200681427 0 1 0 0.64278761758704617 0 0.76604443648966558 forward_v I I I I #
coedge $-1 $255 $256 $257 $258 reversed $99 $-1 #
coedge $-1 $163 $101 $259 $260 reversed $64 $-1 #
coedge $-1 $101 $162 $255 $261 reversed $64 $-1 #
coedge $-1 $257 $262 $101 $165 forward $263 $-1 #
edge $-1 $264 -37.716861822516009 $265 -30.265670812416531 $164 $266 forward 7 unknown #
loop $-1 $-1 $171 $102 #
plane-surface $-1 -32.199764031134237 8.7119440751489705 81.159465165535678 0.64278761758704617 0 0.76604443648966558 0.76604443648966558 0 -0.64278761758704617 forward_v I I I I #
loop $-1 $-1 $267 $66 #
coedge $-1 $169 $169 $170 $268 reversed $103 $-1 #
coedge $-1 $170 $170 $169 $268 forward $105 $-1 #
coedge $-1 $171 $171 $106 $172 forward $166 $-1 #
edge $-1 $269 0 $269 6.2831853071796004 $171 $270 forward 7 unknown #
loop $-1 $-1 $178 $107 #
plane-surface $-1 -32.199764031134237 8.7119440751489705 81.159465165535678 0.64278761758704617 0 0.76604443648966558 0.76604443648966558 0 -0.64278761758704617 forward_v I I I I #
loop $-1 $-1 $271 $69 #
coedge $-1 $176 $176 $177 $272 reversed $108 $-1 #
coedge $-1 $177 $177 $176 $272 forward $110 $-1 #
coedge $-1 $178 $178 $111 $179 forward $173 $-1 #
edge $-1 $273 0 $273 6.2831853071796004 $178 $274 forward 7 unknown #
face $-1 $275 $276 $27 $-1 $277 reversed single #
loop $-1 $-1 $278 $112 #
plane-surface $-1 -60.515762810144352 0 0 1 0 0 0 0 -1 forward_v I I I I #
coedge $-1 $118 $279 $280 $281 forward $113 $-1 #
coedge $-1 $282 $115 $283 $284 forward $73 $-1 #
coedge $-1 $115 $282 $188 $285 forward $73 $-1 #
coedge $-1 $189 $286 $115 $187 reversed $287 $-1 #
edge $-1 $288 -29.514708610650899 $289 29.514708610650899 $186 $290 forward 7 unknown #
coedge $-1 $117 $116 $185 $285 reversed $46 $-1 #
coedge $-1 $280 $186 $116 $190 forward $287 $-1 #
edge $-1 $288 -9.614190918504697 $194 9.614190918504697 $189 $291 forward 7 unknown #
coedge $-1 $292 $293 $117 $192 reversed $181 $-1 #
edge $-1 $294 -9.614190918504697 $195 9.614190918504697 $191 $295 forward 7 unknown #
coedge $-1 $279 $118 $293 $296 forward $113 $-1 #
vertex $-1 $190 $297 #
vertex $-1 $296 $298 #
straight-curve $-1 0 -29.514708610650899 -9.614190918504697 -1 0 0 I I #
face $-1 $299 $209 $28 $-1 $300 reversed single #
loop $-1 $-1 $301 $120 #
plane-surface $-1 -59.015762810144352 -40.598330039698624 0 0 1 0 0 0 1 forward_v I I I I #
coedge $-1 $302 $303 $204 $304 forward $121 $-1 #
coedge $-1 $305 $123 $303 $306 forward $77 $-1 #
coedge $-1 $123 $305 $207 $307 forward $77 $-1 #
edge $-1 $210 57.515762810144352 $308 60.515762810144352 $123 $309 forward 7 unknown #
coedge $-1 $125 $124 $200 $304 reversed $49 $-1 #
coedge $-1 $310 $311 $124 $206 forward $312 $-1 #
edge $-1 $313 -60.515762810144352 $211 -57.515762810144352 $205 $314 forward 7 unknown #
coedge $-1 $315 $126 $202 $307 reversed $209 $-1 #
coedge $-1 $126 $315 $310 $316 reversed $209 $-1 #
loop $-1 $-1 $315 $197 #
vertex $-1 $203 $317 #
vertex $-1 $316 $318 #
straight-curve $-1 -57.515762810144352 -29.514708610650899 0 0 0 -1 I I #
face $-1 $319 $320 $29 $-1 $321 reversed single #
loop $-1 $-1 $134 $128 #
plane-surface $-1 -57.515762810144352 35.056519325174762 0 -1 0 0 0 0 1 forward_v I I I I #
coedge $-1 $322 $323 $324 $325 forward $129 $-1 #
coedge $-1 $326 $131 $224 $327 forward $81 $-1 #
coedge $-1 $131 $326 $328 $329 forward $81 $-1 #
edge $-1 $330 -60.515762810144352 $226 -57.515762810144352 $131 $331 forward 7 unknown #
coedge $-1 $133 $132 $332 $333 reversed $52 $-1 #
coedge $-1 $334 $335 $133 $222 forward $320 $-1 #
edge $-1 $225 57.515762810144352 $336 60.515762810144352 $221 $337 forward 7 unknown #
coedge $-1 $324 $134 $335 $338 reversed $214 $-1 #
coedge $-1 $134 $324 $217 $327 reversed $214 $-1 #
vertex $-1 $222 $339 #
vertex $-1 $327 $340 #
straight-curve $-1 -57.515762810144352 29.514708610650899 0 0 0 1 I I #
face $-1 $-1 $341 $30 $-1 $342 reversed single #
loop $-1 $-1 $142 $136 #
plane-surface $-1 0 0 9.614190918504697 0 0 1 1 0 0 forward_v I I I I #
coedge $-1 $343 $344 $345 $346 reversed $137 $-1 #
coedge $-1 $347 $139 $141 $238 forward $85 $-1 #
coedge $-1 $139 $347 $343 $348 forward $85 $-1 #
coedge $-1 $345 $142 $139 $235 forward $229 $-1 #
edge $-1 $241 0.64374534642647152 $349 9.0753977600277338 $234 $350 forward 7 unknown #
coedge $-1 $351 $352 $140 $237 forward $341 $-1 #
edge $-1 $353 -83.575596844262378 $240 -77.323305084902444 $236 $354 forward 7 unknown #
edge $-1 $241 111.30468647732209 $353 121.0315256202887 $141 $355 forward 7 unknown #
coedge $-1 $142 $345 $351 $356 forward $229 $-1 #
vertex $-1 $143 $357 #
vertex $-1 $143 $358 #
straight-curve $-1 22.798900987628343 -5.5033168996535737 9.6141909185047041 -1 0 0 I I #
coedge $-1 $243 $243 $-1 $359 reversed $146 $-1 #
edge $-1 $360 0 $360 6.2831853071796004 $147 $361 forward 7 unknown #
vertex $-1 $150 $362 #
ellipse-curve $-1 56.790167305094606 -11.525925766511616 6.4880450388247279 0.64278761758704617 0 0.76604443648966558 0.76604443648966558 0 -0.64278761758704617 1 I I #
coedge $-1 $247 $247 $-1 $363 reversed $153 $-1 #
edge $-1 $364 0 $364 6.2831853071796004 $154 $365 forward 7 unknown #
vertex $-1 $157 $366 #
ellipse-curve $-1 56.790167305094606 -7.9123604463967894 6.4880450388247279 0.64278761758704617 0 0.76604443648966558 0.76604443648966558 0 -0.64278761758704617 1 I I #
face $-1 $-1 $263 $33 $-1 $367 forward single #
loop $-1 $-1 $368 $158 #
plane-surface $-1 60.515762810144352 0 0 -1 0 0 0 0 1 forward_v I I I I #
coedge $-1 $369 $370 $371 $372 reversed $159 $-1 #
coedge $-1 $373 $161 $163 $261 forward $99 $-1 #
coedge $-1 $161 $373 $369 $374 forward $99 $-1 #
coedge $-1 $371 $164 $161 $258 forward $263 $-1 #
edge $-1 $265 -8.5717982443751168 $375 -0.14014583077385456 $257 $376 forward 7 unknown #
coedge $-1 $377 $378 $162 $260 forward $252 $-1 #
edge $-1 $379 -83.575596844262378 $264 -77.323305084902444 $259 $380 forward 7 unknown #
edge $-1 $265 111.30468647732209 $379 121.0315256202887 $163 $381 forward 7 unknown #
coedge $-1 $164 $371 $377 $382 forward $263 $-1 #
loop $-1 $-1 $371 $251 #
vertex $-1 $260 $383 #
vertex $-1 $165 $384 #
straight-curve $-1 22.798900987628343 12.927770281949602 9.6141909185047041 -1 0 0 I I #
coedge $-1 $267 $267 $-1 $385 reversed $168 $-1 #
edge $-1 $386 0 $386 6.2831853071796004 $169 $387 forward 7 unknown #
vertex $-1 $172 $388 #
ellipse-curve $-1 56.790167305094606 6.9051614150915555 6.4880450388247279 0.64278761758704617 0 0.76604443648966558 0.76604443648966558 0 -0.64278761758704617 1 I I #
coedge $-1 $271 $271 $-1 $389 reversed $175 $-1 #
edge $-1 $390 0 $390 6.2831853071796004 $176 $391 forward 7 unknown #
vertex $-1 $179 $392 #
ellipse-curve $-1 56.790167305094606 10.518726735206386 6.4880450388247279 0.64278761758704617 0 0.76604443648966558 0.76604443648966558 0 -0.64278761758704617 1 I I #
face $-1 $-1 $287 $27 $-1 $393 reversed single #
loop $-1 $-1 $283 $180 #
plane-surface $-1 0 29.514708610650899 0 0 -1 0 0 0 -1 forward_v I I I I #
coedge $-1 $293 $292 $394 $395 forward $181 $-1 #
coedge $-1 $183 $193 $396 $397 forward $113 $-1 #
coedge $-1 $286 $189 $183 $281 reversed $287 $-1 #
edge $-1 $398 -29.514708610650899 $194 29.514708610650899 $280 $399 forward 7 unknown #
coedge $-1 $185 $184 $292 $400 forward $73 $-1 #
coedge $-1 $401 $394 $184 $284 reversed $276 $-1 #
edge $-1 $289 -60.515762810144352 $402 60.515762810144352 $283 $403 forward 7 unknown #
edge $-1 $294 -60.515762810144352 $288 60.515762810144352 $188 $404 forward 7 unknown #
coedge $-1 $186 $280 $401 $405 reversed $287 $-1 #
loop $-1 $-1 $189 $275 #
vertex $-1 $187 $406 #
vertex $-1 $187 $407 #
straight-curve $-1 60.515762810144352 0 9.614190918504697 0 1 0 I I #
straight-curve $-1 60.515762810144352 -29.514708610650899 0 0 0 -1 I I #
coedge $-1 $278 $191 $282 $400 reversed $181 $-1 #
coedge $-1 $191 $278 $193 $296 reversed $181 $-1 #
vertex $-1 $400 $408 #
straight-curve $-1 -60.515762810144352 -29.514708610650899 0 0 0 -1 I I #
edge $-1 $195 -29.514708610650899 $409 29.514708610650899 $293 $410 forward 7 unknown #
point $-1 60.515762810144352 -29.514708610650899 -9.614190918504697 #
point $-1 -60.515762810144352 -29.514708610650899 -9.614190918504697 #
face $-1 $-1 $312 $28 $-1 $411 reversed single #
plane-surface $-1 -57.515762810144352 -35.056519325174762 0 -1 0 0 0 0 1 forward_v I I I I #
coedge $-1 $412 $413 $414 $415 forward $198 $-1 #
coedge $-1 $414 $200 $311 $416 reversed $121 $-1 #
coedge $-1 $200 $414 $201 $306 reversed $121 $-1 #
edge $-1 $308 -9.614190918504697 $313 9.614190918504697 $200 $417 forward 7 unknown #
coedge $-1 $202 $201 $413 $418 forward $77 $-1 #
edge $-1 $308 29.514708610650899 $419 40.598330039698624 $303 $420 forward 7 unknown #
edge $-1 $421 -5.5418107145238622 $210 5.5418107145238622 $207 $422 forward 7 unknown #
vertex $-1 $306 $423 #
straight-curve $-1 0 -29.514708610650899 9.614190918504697 -1 0 0 I I #
coedge $-1 $424 $205 $208 $316 forward $312 $-1 #
coedge $-1 $205 $424 $302 $416 forward $312 $-1 #
loop $-1 $-1 $205 $299 #
vertex $-1 $304 $425 #
straight-curve $-1 0 -29.514708610650899 -9.614190918504697 1 0 0 I I #
coedge $-1 $208 $207 $426 $427 forward $209 $-1 #
edge $-1 $211 -5.5418107145238622 $428 5.5418107145238622 $208 $429 forward 7 unknown #
point $-1 -57.515762810144352 -29.514708610650899 9.614190918504697 #
point $-1 -57.515762810144352 -29.514708610650899 -9.614190918504697 #
face $-1 $-1 $430 $29 $-1 $431 reversed single #
loop $-1 $-1 $221 $213 #
plane-surface $-1 0 0 -9.614190918504697 0 0 1 1 0 0 forward_v I I I I #
coedge $-1 $432 $216 $433 $434 reversed $129 $-1 #
coedge $-1 $216 $432 $326 $435 reversed $129 $-1 #
coedge $-1 $224 $223 $216 $325 reversed $214 $-1 #
edge $-1 $436 -9.614190918504697 $437 9.614190918504697 $324 $438 forward 7 unknown #
coedge $-1 $218 $217 $323 $435 forward $81 $-1 #
edge $-1 $226 -5.5418107145238622 $436 5.5418107145238622 $224 $439 forward 7 unknown #
coedge $-1 $440 $332 $218 $329 reversed $430 $-1 #
edge $-1 $441 -40.598330039698624 $330 -29.514708610650899 $328 $442 forward 7 unknown #
vertex $-1 $333 $443 #
straight-curve $-1 0 29.514708610650899 9.614190918504697 1 0 0 I I #
coedge $-1 $328 $444 $220 $333 forward $430 $-1 #
edge $-1 $336 -9.614190918504697 $330 9.614190918504697 $332 $445 forward 7 unknown #
coedge $-1 $433 $221 $444 $446 forward $320 $-1 #
coedge $-1 $221 $433 $223 $338 forward $320 $-1 #
vertex $-1 $446 $447 #
straight-curve $-1 0 29.514708610650899 -9.614190918504697 -1 0 0 I I #
edge $-1 $437 -5.5418107145238622 $225 5.5418107145238622 $223 $448 forward 7 unknown #
point $-1 -57.515762810144352 29.514708610650899 -9.614190918504697 #
point $-1 -57.515762810144352 29.514708610650899 9.614190918504697 #
loop $-1 $-1 $236 $228 #
plane-surface $-1 60.515762810144352 0 0 -1 0 0 0 0 1 forward_v I I I I #
coedge $-1 $344 $231 $233 $348 reversed $137 $-1 #
coedge $-1 $231 $343 $449 $450 reversed $137 $-1 #
coedge $-1 $239 $234 $231 $346 forward $229 $-1 #
edge $-1 $349 30.265670812416531 $451 37.716861822516009 $345 $452 forward 7 unknown #
coedge $-1 $233 $232 $352 $453 reversed $85 $-1 #
edge $-1 $454 -121.0315256202887 $349 -111.30468647732209 $343 $455 forward 7 unknown #
vertex $-1 $235 $456 #
straight-curve $-1 53.06457180004486 -4.8595715532271022 9.614190918504697 0 -1 0 I I #
coedge $-1 $449 $236 $239 $356 reversed $341 $-1 #
coedge $-1 $236 $449 $347 $453 forward $341 $-1 #
vertex $-1 $237 $457 #
straight-curve $-1 60.515762810144352 -5.5033168996535737 86.937496003407134 0 0 1 I I #
straight-curve $-1 -32.199764031134237 -5.5033168996535737 81.159465165535678 0.76604443648966558 0 -0.64278761758704617 I I #
edge $-1 $451 -13.934969313254836 $240 -5.5033168996535737 $351 $458 forward 7 unknown #
point $-1 60.515762810144352 -5.5033168996535737 9.614190918504697 #
point $-1 53.064571800044874 -5.5033168996535737 9.6141909185046899 #
edge $-1 $459 1 $459 0 $243 $-1 forward 7 unknown #
vertex $-1 $244 $460 #
ellipse-curve $-1 55.116196670872505 -11.525925766511616 4.4930845633776997 0.64278761758704617 0 0.76604443648966558 0.76604443648966558 0 -0.64278761758704617 1 I I #
point $-1 57.556211741584264 -11.525925766511616 5.8452574212376778 #
edge $-1 $461 1 $461 0 $247 $-1 forward 7 unknown #
vertex $-1 $248 $462 #
ellipse-curve $-1 55.116196670872505 -7.9123604463967894 4.4930845633776997 0.64278761758704617 0 0.76604443648966558 0.76604443648966558 0 -0.64278761758704617 1 I I #
point $-1 57.556211741584264 -7.9123604463967894 5.8452574212376778 #
plane-surface $-1 0 0 9.614190918504697 0 0 1 1 0 0 forward_v I I I I #
coedge $-1 $378 $377 $370 $463 forward $252 $-1 #
coedge $-1 $370 $254 $256 $374 reversed $159 $-1 #
coedge $-1 $254 $369 $368 $463 reversed $159 $-1 #
coedge $-1 $262 $257 $254 $372 forward $263 $-1 #
edge $-1 $375 30.265670812416531 $464 37.716861822516009 $371 $465 forward 7 unknown #
coedge $-1 $256 $255 $378 $466 reversed $99 $-1 #
edge $-1 $467 -121.0315256202887 $375 -111.30468647732209 $369 $468 forward 7 unknown #
vertex $-1 $258 $469 #
straight-curve $-1 53.06457180004486 4.3559720375744853 9.614190918504697 0 -1 0 I I #
coedge $-1 $368 $259 $262 $382 reversed $252 $-1 #
coedge $-1 $259 $368 $373 $466 forward $252 $-1 #
vertex $-1 $260 $470 #
straight-curve $-1 60.515762810144352 12.927770281949602 86.937496003407134 0 0 1 I I #
straight-curve $-1 -32.199764031134237 12.927770281949602 81.159465165535678 0.76604443648966558 0 -0.64278761758704617 I I #
edge $-1 $464 4.4961178683483398 $264 12.927770281949602 $377 $471 forward 7 unknown #
point $-1 60.515762810144352 12.927770281949602 9.614190918504697 #
point $-1 53.064571800044874 12.927770281949602 9.6141909185046899 #
edge $-1 $472 1 $472 0 $267 $-1 forward 7 unknown #
vertex $-1 $268 $473 #
ellipse-curve $-1 55.116196670872505 6.9051614150915555 4.4930845633776997 0.64278761758704617 0 0.76604443648966558 0.76604443648966558 0 -0.64278761758704617 1 I I #
point $-1 57.556211741584264 6.9051614150915555 5.8452574212376778 #
edge $-1 $474 1 $474 0 $271 $-1 forward 7 unknown #
vertex $-1 $272 $475 #
ellipse-curve $-1 55.116196670872505 10.518726735206386 4.4930845633776997 0.64278761758704617 0 0.76604443648966558 0.76604443648966558 0 -0.64278761758704617 1 I I #
point $-1 57.556211741584264 10.518726735206386 5.8452574212376778 #
plane-surface $-1 60.515762810144352 0 0 -1 0 0 0 0 1 forward_v I I I I #
coedge $-1 $283 $396 $278 $395 reversed $276 $-1 #
edge $-1 $402 -9.614190918504697 $409 9.614190918504697 $394 $476 forward 7 unknown #
coedge $-1 $394 $401 $279 $397 reversed $276 $-1 #
edge $-1 $409 -60.515762810144352 $398 60.515762810144352 $396 $477 forward 7 unknown #
vertex $-1 $281 $478 #
straight-curve $-1 60.515762810144352 0 -9.614190918504697 0 -1 0 I I #
edge $-1 $402 -29.514708610650899 $294 29.514708610650899 $292 $479 forward 7 unknown #
coedge $-1 $396 $283 $286 $405 forward $276 $-1 #
vertex $-1 $284 $480 #
straight-curve $-1 0 29.514708610650899 9.614190918504697 -1 0 0 I I #
straight-curve $-1 0 -29.514708610650899 9.614190918504697 1 0 0 I I #
edge $-1 $289 -9.614190918504697 $398 9.614190918504697 $286 $481 forward 7 unknown #
point $-1 60.515762810144352 -29.514708610650899 9.614190918504697 #
point $-1 60.515762810144352 29.514708610650899 9.614190918504697 #
point $-1 -60.515762810144352 -29.514708610650899 9.614190918504697 #
vertex $-1 $397 $482 #
straight-curve $-1 -60.515762810144352 0 -9.614190918504697 0 1 0 I I #
plane-surface $-1 0 0 -9.614190918504697 0 0 1 1 0 0 forward_v I I I I #
coedge $-1 $426 $301 $424 $483 reversed $198 $-1 #
coedge $-1 $301 $426 $305 $418 reversed $198 $-1 #
coedge $-1 $303 $302 $301 $415 reversed $121 $-1 #
edge $-1 $419 -9.614190918504697 $484 9.614190918504697 $414 $485 forward 7 unknown #
edge $-1 $484 -40.598330039698624 $313 -29.514708610650899 $302 $486 forward 7 unknown #
straight-curve $-1 -60.515762810144352 -29.514708610650899 0 0 0 -1 I I #
edge $-1 $419 -1.5 $421 1.5 $413 $487 forward 7 unknown #
vertex $-1 $306 $488 #
straight-curve $-1 -60.515762810144352 0 9.614190918504697 0 -1 0 I I #
vertex $-1 $307 $489 #
straight-curve $-1 -57.515762810144352 -35.056519325174762 9.614190918504697 0 1 0 I I #
point $-1 -60.515762810144352 -29.514708610650899 9.614190918504697 #
coedge $-1 $311 $310 $412 $483 forward $312 $-1 #
point $-1 -60.515762810144352 -29.514708610650899 -9.614190918504697 #
coedge $-1 $413 $412 $315 $427 reversed $198 $-1 #
edge $-1 $421 -9.614190918504697 $428 9.614190918504697 $315 $490 forward 7 unknown #
vertex $-1 $427 $491 #
straight-curve $-1 -57.515762810144352 -35.056519325174762 -9.614190918504697 0 -1 0 I I #
loop $-1 $-1 $332 $319 #
plane-surface $-1 -60.515762810144352 0 0 1 0 0 0 0 -1 forward_v I I I I #
coedge $-1 $323 $322 $440 $492 reversed $129 $-1 #
coedge $-1 $335 $334 $322 $434 forward $320 $-1 #
edge $-1 $493 -1.5 $437 1.5 $322 $494 forward 7 unknown #
edge $-1 $436 -1.5 $441 1.5 $323 $495 forward 7 unknown #
vertex $-1 $327 $496 #
vertex $-1 $338 $497 #
straight-curve $-1 -57.515762810144352 40.598330039698624 0 0 0 -1 I I #
straight-curve $-1 -57.515762810144352 35.056519325174762 9.614190918504697 0 1 0 I I #
coedge $-1 $444 $328 $432 $492 forward $430 $-1 #
vertex $-1 $435 $498 #
straight-curve $-1 -60.515762810144352 0 9.614190918504697 0 -1 0 I I #
point $-1 -60.515762810144352 29.514708610650899 9.614190918504697 #
coedge $-1 $332 $440 $334 $446 reversed $430 $-1 #
straight-curve $-1 -60.515762810144352 29.514708610650899 0 0 0 1 I I #
edge $-1 $336 -5.5418107145238622 $493 5.5418107145238622 $444 $499 forward 7 unknown #
point $-1 -60.515762810144352 29.514708610650899 -9.614190918504697 #
straight-curve $-1 -57.515762810144352 35.056519325174762 -9.614190918504697 0 -1 0 I I #
coedge $-1 $352 $351 $344 $450 forward $341 $-1 #
edge $-1 $451 77.323305084902444 $454 83.575596844262378 $449 $500 forward 7 unknown #
vertex $-1 $356 $501 #
straight-curve $-1 22.798900987628343 -13.934969313254836 9.6141909185047041 1 0 0 I I #
edge $-1 $454 -9.0753977600277338 $353 -0.64374534642647152 $352 $502 forward 7 unknown #
vertex $-1 $453 $503 #
straight-curve $-1 -32.199764031134237 -13.934969313254836 81.159465165535678 -0.76604443648966558 0 0.64278761758704617 I I #
point $-1 53.064571800044874 -13.934969313254836 9.6141909185046899 #
point $-1 60.515762810144352 -5.5033168996535737 3.3618991591447553 #
straight-curve $-1 60.515762810144352 0 9.614190918504697 0 1 0 I I #
vertex $-1 $359 $504 #
point $-1 55.882241107362169 -11.525925766511616 3.850296945790654 #
vertex $-1 $363 $505 #
point $-1 55.882241107362169 -7.9123604463967894 3.850296945790654 #
edge $-1 $464 77.323305084902444 $467 83.575596844262378 $368 $506 forward 7 unknown #
vertex $-1 $382 $507 #
straight-curve $-1 22.798900987628343 4.4961178683483398 9.6141909185047041 1 0 0 I I #
edge $-1 $467 0.14014583077385456 $379 8.5717982443751168 $378 $508 forward 7 unknown #
vertex $-1 $466 $509 #
straight-curve $-1 -32.199764031134237 4.4961178683483398 81.159465165535678 -0.76604443648966558 0 0.64278761758704617 I I #
point $-1 53.064571800044874 4.4961178683483398 9.6141909185046899 #
point $-1 60.515762810144352 12.927770281949602 3.3618991591447553 #
straight-curve $-1 60.515762810144352 0 9.614190918504697 0 1 0 I I #
vertex $-1 $385 $510 #
point $-1 55.882241107362169 6.9051614150915555 3.850296945790654 #
vertex $-1 $389 $511 #
point $-1 55.882241107362169 10.518726735206386 3.850296945790654 #
straight-curve $-1 -60.515762810144352 29.514708610650899 0 0 0 -1 I I #
straight-curve $-1 0 29.514708610650899 -9.614190918504697 1 0 0 I I #
point $-1 60.515762810144352 29.514708610650899 -9.614190918504697 #
straight-curve $-1 -60.515762810144352 0 9.614190918504697 0 -1 0 I I #
point $-1 -60.515762810144352 29.514708610650899 9.614190918504697 #
straight-curve $-1 60.515762810144352 29.514708610650899 0 0 0 -1 I I #
point $-1 -60.515762810144352 29.514708610650899 -9.614190918504697 #
edge $-1 $428 -1.5 $484 1.5 $412 $512 forward 7 unknown #
vertex $-1 $416 $513 #
straight-curve $-1 -60.515762810144352 -40.598330039698624 0 0 0 -1 I I #
straight-curve $-1 -60.515762810144352 0 -9.614190918504697 0 1 0 I I #
straight-curve $-1 -59.015762810144352 -40.598330039698624 9.614190918504697 1 0 0 I I #
point $-1 -60.515762810144352 -40.598330039698624 9.614190918504697 #
point $-1 -57.515762810144352 -40.598330039698624 9.614190918504697 #
straight-curve $-1 -57.515762810144352 -40.598330039698624 0 0 0 -1 I I #
point $-1 -57.515762810144352 -40.598330039698624 -9.614190918504697 #
edge $-1 $441 -9.614190918504697 $493 9.614190918504697 $432 $514 forward 7 unknown #
vertex $-1 $434 $515 #
straight-curve $-1 -59.015762810144352 40.598330039698624 -9.614190918504697 1 0 0 I I #
straight-curve $-1 -59.015762810144352 40.598330039698624 9.614190918504697 -1 0 0 I I #
point $-1 -57.515762810144352 40.598330039698624 9.614190918504697 #
point $-1 -57.515762810144352 40.598330039698624 -9.614190918504697 #
point $-1 -60.515762810144352 40.598330039698624 9.614190918504697 #
straight-curve $-1 -60.515762810144352 35.056519325174762 -9.614190918504697 0 1 0 I I #
straight-curve $-1 60.515762810144352 -13.934969313254836 86.937496003407134 0 0 -1 I I #
point $-1 60.515762810144352 -13.934969313254836 9.614190918504697 #
straight-curve $-1 60.515762810144345 -4.8595715532271022 3.3618991591447625 0 1 0 I I #
point $-1 60.515762810144352 -13.934969313254836 3.3618991591447553 #
point $-1 54.473409053285458 -11.525925766511616 3.7270401268880344 #
point $-1 54.473409053285458 -7.9123604463967894 3.7270401268880344 #
straight-curve $-1 60.515762810144352 4.4961178683483398 86.937496003407134 0 0 -1 I I #
point $-1 60.515762810144352 4.4961178683483398 9.614190918504697 #
straight-curve $-1 60.515762810144345 4.3559720375744853 3.3618991591447625 0 1 0 I I #
point $-1 60.515762810144352 4.4961178683483398 3.3618991591447553 #
point $-1 54.473409053285458 6.9051614150915555 3.7270401268880344 #
point $-1 54.473409053285458 10.518726735206386 3.7270401268880344 #
straight-curve $-1 -59.015762810144352 -40.598330039698624 -9.614190918504697 -1 0 0 I I #
point $-1 -60.515762810144352 -40.598330039698624 -9.614190918504697 #
straight-curve $-1 -60.515762810144352 40.598330039698624 0 0 0 -1 I I #
point $-1 -60.515762810144352 40.598330039698624 -9.614190918504697 #
End-of-ACIS-data 