500 0 4 0           
7 Unknown 11 ACIS 5.0 NT 24 Thu Mar 25 19:58:30 1999 
-1 9.9999999999999995e-007 1e-010 
body $-1 $4 $-1 $5 #
body $-1 $6 $-1 $7 #
body $-1 $8 $-1 $9 #
body $-1 $10 $-1 $11 #
lump $-1 $-1 $12 $0 #
transform $-1 1 0 0 0 1 0 0 0 1 68.981597338785974 27.713267785501039 6.0846214515351296 1 rotate no_reflect no_shear #
lump $-1 $-1 $13 $1 #
transform $-1 1 0 0 0 1 0 0 0 1 68.981597338785974 27.713267785501039 6.0846214515351296 1 rotate no_reflect no_shear #
lump $-1 $-1 $14 $2 #
transform $-1 1 0 0 0 1 0 0 0 1 68.981597338785974 27.713267785501039 6.0846214515351296 1 rotate no_reflect no_shear #
lump $-1 $-1 $15 $3 #
transform $-1 1 0 0 0 1 0 0 0 1 68.981597338785974 27.713267785501039 6.0846214515351296 1 rotate no_reflect no_shear #
shell $-1 $-1 $-1 $16 $-1 $4 #
shell $-1 $-1 $-1 $17 $-1 $6 #
shell $-1 $-1 $-1 $18 $-1 $8 #
shell $-1 $-1 $-1 $19 $-1 $10 #
face $-1 $20 $21 $12 $-1 $22 forward single #
face $-1 $23 $24 $13 $-1 $25 forward single #
face $-1 $26 $27 $14 $-1 $28 reversed single #
face $-1 $29 $30 $15 $-1 $31 reversed single #
face $-1 $32 $33 $12 $-1 $34 reversed single #
loop $-1 $-1 $35 $16 #
plane-surface $-1 0 0 6.0846214515351296 0 0 1 1 0 0 forward_v I I I I #
face $-1 $36 $37 $13 $-1 $38 forward single #
loop $-1 $-1 $39 $17 #
plane-surface $-1 61.611448282621069 -27.713267785501046 0.031253832267523762 0 -0.81915205242281985 0.57357642473473569 1 0 0 forward_v I I I I #
face $-1 $40 $41 $14 $-1 $42 reversed single #
loop $-1 $43 $44 $18 #
cone-surface $-1 58.452812972836085 -24.086003273838429 2.0020542854756727 0 0.81915205242281985 -0.57357642473473569 1 0 0 1 I I 0 1 1 forward I I I I #
face $-1 $45 $46 $15 $-1 $47 reversed single #
loop $-1 $48 $49 $19 #
cone-surface $-1 64.770083592406024 -24.086003273838429 2.0020542854756727 0 0.81915205242281985 -0.57357642473473569 1 0 0 1 I I 0 1 1 forward I I I I #
face $-1 $50 $51 $12 $-1 $52 reversed single #
loop $-1 $-1 $53 $20 #
plane-surface $-1 0 0 -6.0846214515351296 0 0 1 1 0 0 forward_v I I I I #
coedge $-1 $54 $55 $56 $57 forward $21 $-1 #
face $-1 $58 $59 $13 $-1 $60 forward single #
loop $-1 $-1 $61 $23 #
plane-surface $-1 54.24129922645615 -140.72610186444317 79.163689780411559 1 0 0 0 0.81915205242281985 -0.57357642473473569 forward_v I I I I #
coedge $-1 $62 $63 $64 $65 reversed $24 $-1 #
face $-1 $66 $67 $14 $-1 $68 forward single #
loop $-1 $69 $70 $26 #
cone-surface $-1 58.452812972836085 -22.168469491282391 0.65938271668265536 0 0.81915205242281985 -0.57357642473473569 0.5 0 0 1 I I -0.70710678118654746 0.70710678118654746 0.5 forward I I I I #
loop $-1 $-1 $71 $18 #
coedge $-1 $44 $44 $72 $73 reversed $27 $-1 #
face $-1 $74 $75 $15 $-1 $76 reversed single #
loop $-1 $77 $78 $29 #
cone-surface $-1 64.770083592406024 -22.168469491282391 0.65938271668265536 0 0.81915205242281985 -0.57357642473473569 0.5 0 0 1 I I -0.70710678118654746 0.70710678118654746 0.5 forward I I I I #
loop $-1 $-1 $79 $19 #
coedge $-1 $49 $49 $80 $81 reversed $30 $-1 #
face $-1 $82 $83 $12 $-1 $84 reversed single #
loop $-1 $-1 $85 $32 #
plane-surface $-1 0 -27.713267785501039 0 0 1 0 0 0 1 forward_v I I I I #
coedge $-1 $86 $87 $88 $89 forward $33 $-1 #
coedge $-1 $90 $35 $91 $92 forward $21 $-1 #
coedge $-1 $35 $90 $93 $94 forward $21 $-1 #
coedge $-1 $95 $96 $35 $57 reversed $97 $-1 #
edge $-1 $98 -27.713267785501039 $99 27.713267785501039 $56 $100 forward 7 unknown #
face $-1 $101 $102 $13 $-1 $103 reversed single #
loop $-1 $-1 $104 $36 #
plane-surface $-1 0 0 6.0846214515351296 0 0 1 1 0 0 forward_v I I I I #
coedge $-1 $105 $106 $104 $107 reversed $37 $-1 #
coedge $-1 $108 $39 $106 $109 reversed $24 $-1 #
coedge $-1 $39 $108 $110 $111 reversed $24 $-1 #
coedge $-1 $112 $104 $39 $65 forward $59 $-1 #
edge $-1 $113 23.435575085145615 $114 38.175873197475454 $64 $115 forward 7 unknown #
face $-1 $116 $117 $14 $-1 $118 forward single #
loop $-1 $119 $72 $40 #
plane-surface $-1 61.611448282621069 -27.713267785501046 0.031253832267523762 0 -0.81915205242281985 0.57357642473473569 1 0 0 forward_v I I I I #
loop $-1 $-1 $120 $26 #
coedge $-1 $70 $70 $71 $121 forward $41 $-1 #
coedge $-1 $71 $71 $70 $121 reversed $43 $-1 #
coedge $-1 $72 $72 $44 $73 forward $67 $-1 #
edge $-1 $122 -2.9283302665763018e-016 $122 6.2831853071796004 $72 $123 forward 7 unknown #
face $-1 $124 $125 $15 $-1 $126 reversed single #
loop $-1 $127 $128 $45 #
cone-surface $-1 58.452812972836085 -24.086003273838429 2.0020542854756727 0 0.81915205242281985 -0.57357642473473569 1 0 0 1 I I 0 1 1 forward I I I I #
loop $-1 $-1 $129 $29 #
coedge $-1 $78 $78 $79 $130 forward $46 $-1 #
coedge $-1 $79 $79 $78 $130 reversed $48 $-1 #
coedge $-1 $80 $80 $49 $81 forward $131 $-1 #
edge $-1 $132 -2.9283302665763018e-016 $132 6.2831853071796004 $80 $133 forward 7 unknown #
face $-1 $134 $135 $12 $-1 $136 reversed single #
loop $-1 $-1 $137 $50 #
plane-surface $-1 -68.981597338785974 0 0 1 0 0 0 0 -1 forward_v I I I I #
coedge $-1 $138 $93 $139 $140 forward $51 $-1 #
coedge $-1 $141 $53 $138 $142 forward $33 $-1 #
coedge $-1 $53 $141 $143 $144 forward $33 $-1 #
coedge $-1 $96 $95 $53 $89 reversed $97 $-1 #
edge $-1 $145 -27.713267785501039 $146 27.713267785501039 $88 $147 forward 7 unknown #
coedge $-1 $55 $54 $148 $149 forward $21 $-1 #
coedge $-1 $150 $151 $54 $92 reversed $135 $-1 #
edge $-1 $99 -68.981597338785974 $152 68.981597338785974 $91 $153 forward 7 unknown #
coedge $-1 $85 $154 $55 $94 reversed $51 $-1 #
edge $-1 $155 -68.981597338785974 $98 68.981597338785974 $93 $156 forward 7 unknown #
coedge $-1 $88 $56 $154 $157 forward $97 $-1 #
coedge $-1 $56 $88 $150 $158 reversed $97 $-1 #
loop $-1 $-1 $95 $134 #
vertex $-1 $57 $159 #
vertex $-1 $57 $160 #
straight-curve $-1 68.981597338785974 0 6.0846214515351296 0 1 0 I I #
face $-1 $161 $162 $13 $-1 $163 reversed single #
loop $-1 $-1 $110 $58 #
plane-surface $-1 68.981597338785974 0 0 -1 0 0 0 0 1 forward_v I I I I #
coedge $-1 $64 $164 $61 $107 forward $59 $-1 #
coedge $-1 $106 $61 $165 $166 reversed $37 $-1 #
coedge $-1 $61 $105 $62 $109 forward $37 $-1 #
edge $-1 $167 42.649783146720544 $113 46.888396657356488 $104 $168 forward 7 unknown #
coedge $-1 $63 $62 $169 $170 reversed $24 $-1 #
edge $-1 $171 1.2385527045428529e-014 $113 7.3897972926558122 $106 $172 forward 7 unknown #
coedge $-1 $173 $174 $63 $111 forward $102 $-1 #
edge $-1 $114 0.54524041398218603 $175 7.9350377066379867 $110 $176 forward 7 unknown #
coedge $-1 $177 $64 $174 $178 forward $59 $-1 #
vertex $-1 $65 $179 #
vertex $-1 $178 $180 #
straight-curve $-1 30.805724141310534 -23.474654274865095 6.0846214515351296 1 0 0 I I #
face $-1 $181 $182 $14 $-1 $183 forward single #
loop $-1 $-1 $184 $66 #
plane-surface $-1 54.24129922645615 -140.72610186444317 79.163689780411559 1 0 0 0 0.81915205242281985 -0.57357642473473569 forward_v I I I I #
loop $-1 $-1 $185 $40 #
coedge $-1 $120 $120 $-1 $186 forward $69 $-1 #
edge $-1 $187 0 $187 6.2831853071796004 $70 $188 forward 7 unknown #
vertex $-1 $73 $189 #
ellipse-curve $-1 58.452812972836085 -25.59396103018307 3.0579376419013293 0 0.81915205242281985 -0.57357642473473569 1 0 0 1 I I #
face $-1 $190 $131 $15 $-1 $191 forward single #
loop $-1 $192 $193 $74 #
cone-surface $-1 58.452812972836085 -22.168469491282391 0.65938271668265536 0 0.81915205242281985 -0.57357642473473569 0.5 0 0 1 I I -0.70710678118654746 0.70710678118654746 0.5 forward I I I I #
loop $-1 $-1 $194 $45 #
coedge $-1 $128 $128 $195 $196 reversed $75 $-1 #
coedge $-1 $129 $129 $-1 $197 forward $77 $-1 #
edge $-1 $198 0 $198 6.2831853071796004 $78 $199 forward 7 unknown #
loop $-1 $200 $80 $124 #
vertex $-1 $81 $201 #
ellipse-curve $-1 64.770083592406024 -25.59396103018307 3.0579376419013293 0 0.81915205242281985 -0.57357642473473569 1 0 0 1 I I #
face $-1 $-1 $97 $12 $-1 $202 reversed single #
loop $-1 $-1 $150 $82 #
plane-surface $-1 0 27.713267785501039 0 0 -1 0 0 0 -1 forward_v I I I I #
coedge $-1 $203 $148 $151 $204 forward $83 $-1 #
coedge $-1 $154 $85 $86 $142 reversed $51 $-1 #
coedge $-1 $148 $203 $85 $140 reversed $83 $-1 #
edge $-1 $155 -6.0846214515351296 $205 6.0846214515351296 $139 $206 forward 7 unknown #
coedge $-1 $87 $86 $203 $207 forward $33 $-1 #
edge $-1 $146 -68.981597338785974 $205 68.981597338785974 $138 $208 forward 7 unknown #
coedge $-1 $151 $150 $87 $144 reversed $135 $-1 #
edge $-1 $209 -68.981597338785974 $145 68.981597338785974 $143 $210 forward 7 unknown #
vertex $-1 $89 $211 #
vertex $-1 $157 $212 #
straight-curve $-1 68.981597338785974 0 -6.0846214515351296 0 -1 0 I I #
coedge $-1 $137 $139 $90 $149 reversed $83 $-1 #
edge $-1 $152 -27.713267785501039 $155 27.713267785501039 $148 $213 forward 7 unknown #
coedge $-1 $143 $91 $96 $158 forward $135 $-1 #
coedge $-1 $91 $143 $137 $204 reversed $135 $-1 #
vertex $-1 $92 $214 #
straight-curve $-1 0 27.713267785501039 6.0846214515351296 -1 0 0 I I #
coedge $-1 $93 $138 $95 $157 reversed $51 $-1 #
vertex $-1 $149 $215 #
straight-curve $-1 0 -27.713267785501039 6.0846214515351296 1 0 0 I I #
edge $-1 $98 -6.0846214515351296 $146 6.0846214515351296 $95 $216 forward 7 unknown #
edge $-1 $99 -6.0846214515351296 $145 6.0846214515351296 $96 $217 forward 7 unknown #
point $-1 68.981597338785974 -27.713267785501039 6.0846214515351296 #
point $-1 68.981597338785974 27.713267785501039 6.0846214515351296 #
face $-1 $218 $219 $13 $-1 $220 reversed single #
loop $-1 $-1 $221 $101 #
plane-surface $-1 0 0 -6.0846214515351296 0 0 1 1 0 0 forward_v I I I I #
coedge $-1 $104 $222 $223 $224 forward $59 $-1 #
coedge $-1 $223 $169 $105 $166 forward $219 $-1 #
edge $-1 $171 -39.550591057938249 $167 -33.497223438670652 $165 $225 forward 7 unknown #
vertex $-1 $166 $226 #
straight-curve $-1 54.24129922645615 -70.363050932221583 6.0846214515351278 0 1 0 I I #
coedge $-1 $165 $227 $108 $170 forward $219 $-1 #
edge $-1 $175 -38.175873197475454 $171 -23.435575085145615 $169 $228 forward 7 unknown #
vertex $-1 $170 $229 #
straight-curve $-1 54.24129922645615 -27.713267785501046 0.031253832267523762 0 0.57357642473473569 0.81915205242281985 I I #
coedge $-1 $230 $110 $227 $231 forward $102 $-1 #
coedge $-1 $110 $232 $112 $178 reversed $102 $-1 #
vertex $-1 $231 $233 #
straight-curve $-1 68.981597338785974 -23.161917227592305 6.5312562557125045 0 -0.57357642473473569 -0.81915205242281985 I I #
coedge $-1 $222 $112 $234 $235 forward $59 $-1 #
edge $-1 $114 -23.474654274865095 $236 27.713267785501039 $174 $237 forward 7 unknown #
point $-1 54.24129922645615 -23.474654274865095 6.0846214515351296 #
point $-1 68.981597338785988 -23.474654274865095 6.0846214515351296 #
face $-1 $238 $239 $14 $-1 $240 reversed single #
loop $-1 $-1 $241 $116 #
plane-surface $-1 0 0 6.0846214515351296 0 0 1 1 0 0 forward_v I I I I #
coedge $-1 $242 $243 $241 $244 reversed $117 $-1 #
coedge $-1 $245 $246 $247 $248 reversed $119 $-1 #
edge $-1 $249 1 $249 0 $120 $-1 forward 7 unknown #
vertex $-1 $121 $250 #
ellipse-curve $-1 58.452812972836085 -22.578045517493802 0.9461709290500232 0 -0.81915205242281985 0.57357642473473569 1 0 0 1 I I #
point $-1 59.452812972836085 -25.59396103018306 3.0579376419013222 #
face $-1 $251 $252 $15 $-1 $253 forward single #
plane-surface $-1 61.611448282621069 -27.713267785501046 0.031253832267523762 0 -0.81915205242281985 0.57357642473473569 1 0 0 forward_v I I I I #
loop $-1 $-1 $254 $74 #
coedge $-1 $193 $193 $194 $255 forward $125 $-1 #
coedge $-1 $194 $194 $193 $255 reversed $127 $-1 #
coedge $-1 $195 $195 $128 $196 forward $200 $-1 #
edge $-1 $256 -2.9283302665763018e-016 $256 6.2831853071796004 $195 $257 forward 7 unknown #
edge $-1 $258 1 $258 0 $129 $-1 forward 7 unknown #
vertex $-1 $130 $259 #
ellipse-curve $-1 64.770083592406024 -22.578045517493802 0.9461709290500232 0 -0.81915205242281985 0.57357642473473569 1 0 0 1 I I #
loop $-1 $260 $195 $124 #
point $-1 65.770083592406024 -25.59396103018306 3.0579376419013222 #
plane-surface $-1 68.981597338785974 0 0 -1 0 0 0 0 1 forward_v I I I I #
coedge $-1 $139 $137 $141 $207 reversed $83 $-1 #
edge $-1 $152 -6.0846214515351296 $209 6.0846214515351296 $151 $261 forward 7 unknown #
vertex $-1 $207 $262 #
straight-curve $-1 -68.981597338785974 -27.713267785501039 0 0 0 -1 I I #
edge $-1 $205 -27.713267785501039 $209 27.713267785501039 $203 $263 forward 7 unknown #
straight-curve $-1 0 -27.713267785501039 -6.0846214515351296 -1 0 0 I I #
vertex $-1 $144 $264 #
straight-curve $-1 0 27.713267785501039 -6.0846214515351296 1 0 0 I I #
point $-1 68.981597338785974 27.713267785501039 -6.0846214515351296 #
point $-1 68.981597338785974 -27.713267785501039 -6.0846214515351296 #
straight-curve $-1 -68.981597338785974 0 6.0846214515351296 0 -1 0 I I #
point $-1 -68.981597338785974 27.713267785501039 6.0846214515351296 #
point $-1 -68.981597338785974 -27.713267785501039 6.0846214515351296 #
straight-curve $-1 68.981597338785974 -27.713267785501039 0 0 0 -1 I I #
straight-curve $-1 68.981597338785974 27.713267785501039 0 0 0 -1 I I #
face $-1 $265 $266 $13 $-1 $267 reversed single #
loop $-1 $-1 $165 $161 #
plane-surface $-1 0 -27.713267785501039 0 0 1 0 0 0 1 forward_v I I I I #
coedge $-1 $268 $269 $230 $270 forward $162 $-1 #
coedge $-1 $164 $177 $271 $272 forward $59 $-1 #
coedge $-1 $273 $165 $164 $224 reversed $219 $-1 #
edge $-1 $274 -68.981597338785974 $167 54.24129922645615 $223 $275 forward 7 unknown #
straight-curve $-1 54.24129922645615 -27.713267785501039 39.58184489020578 0 0 1 I I #
point $-1 54.24129922645615 -27.713267785501039 6.0846214515351296 #
coedge $-1 $169 $276 $173 $231 reversed $219 $-1 #
straight-curve $-1 30.805724141310534 -27.713267785501039 0.031253832267534032 -1 0 0 I I #
point $-1 54.24129922645615 -27.713267785501039 0.031253832267533907 #
coedge $-1 $232 $173 $221 $270 reversed $102 $-1 #
edge $-1 $175 -0.031253832267533907 $277 6.0846214515351296 $173 $278 forward 7 unknown #
coedge $-1 $174 $230 $279 $280 reversed $102 $-1 #
point $-1 68.981597338785988 -27.713267785501039 0.031253832267533907 #
coedge $-1 $279 $281 $177 $235 reversed $282 $-1 #
edge $-1 $236 -68.981597338785974 $283 68.981597338785974 $234 $284 forward 7 unknown #
vertex $-1 $178 $285 #
straight-curve $-1 68.981597338785974 0 6.0846214515351296 0 1 0 I I #
face $-1 $286 $287 $14 $-1 $288 reversed single #
loop $-1 $-1 $289 $181 #
plane-surface $-1 68.981597338785974 0 0 -1 0 0 0 0 1 forward_v I I I I #
coedge $-1 $247 $290 $184 $244 forward $182 $-1 #
coedge $-1 $243 $184 $291 $292 reversed $117 $-1 #
coedge $-1 $184 $242 $245 $293 forward $117 $-1 #
edge $-1 $294 42.649783146720544 $295 46.888396657356488 $241 $296 forward 7 unknown #
coedge $-1 $297 $185 $243 $293 reversed $119 $-1 #
coedge $-1 $185 $297 $289 $298 reversed $119 $-1 #
coedge $-1 $299 $241 $185 $248 forward $182 $-1 #
edge $-1 $295 23.435575085145615 $300 38.175873197475454 $247 $301 forward 7 unknown #
vertex $-1 $186 $302 #
point $-1 59.452812972836085 -22.578045517493802 0.9461709290500232 #
face $-1 $303 $304 $15 $-1 $305 forward single #
loop $-1 $-1 $306 $190 #
plane-surface $-1 54.24129922645615 -140.72610186444317 79.163689780411559 1 0 0 0 0.81915205242281985 -0.57357642473473569 forward_v I I I I #
coedge $-1 $254 $254 $-1 $307 forward $192 $-1 #
edge $-1 $308 0 $308 6.2831853071796004 $193 $309 forward 7 unknown #
vertex $-1 $196 $310 #
ellipse-curve $-1 58.452812972836085 -25.59396103018307 3.0579376419013293 0 0.81915205242281985 -0.57357642473473569 1 0 0 1 I I #
vertex $-1 $197 $311 #
point $-1 65.770083592406024 -22.578045517493802 0.9461709290500232 #
loop $-1 $-1 $312 $124 #
straight-curve $-1 -68.981597338785974 27.713267785501039 0 0 0 -1 I I #
point $-1 -68.981597338785974 -27.713267785501039 -6.0846214515351296 #
straight-curve $-1 -68.981597338785974 0 -6.0846214515351296 0 1 0 I I #
point $-1 -68.981597338785974 27.713267785501039 -6.0846214515351296 #
face $-1 $-1 $282 $13 $-1 $313 reversed single #
loop $-1 $-1 $314 $218 #
plane-surface $-1 -68.981597338785974 0 0 1 0 0 0 0 -1 forward_v I I I I #
coedge $-1 $315 $221 $276 $316 forward $162 $-1 #
coedge $-1 $221 $315 $317 $318 forward $162 $-1 #
edge $-1 $319 -27.713267785501039 $277 27.713267785501039 $230 $320 forward 7 unknown #
coedge $-1 $314 $321 $222 $272 reversed $266 $-1 #
edge $-1 $283 -27.713267785501039 $274 27.713267785501039 $271 $322 forward 7 unknown #
coedge $-1 $276 $223 $321 $323 forward $219 $-1 #
vertex $-1 $272 $324 #
straight-curve $-1 0 -27.713267785501039 6.0846214515351296 1 0 0 I I #
coedge $-1 $227 $273 $268 $316 reversed $219 $-1 #
vertex $-1 $231 $325 #
straight-curve $-1 68.981597338785974 -27.713267785501039 0 0 0 -1 I I #
coedge $-1 $317 $234 $232 $280 forward $282 $-1 #
edge $-1 $236 -6.0846214515351296 $319 6.0846214515351296 $232 $326 forward 7 unknown #
coedge $-1 $234 $317 $314 $327 reversed $282 $-1 #
loop $-1 $-1 $279 $265 #
vertex $-1 $235 $328 #
straight-curve $-1 0 27.713267785501039 6.0846214515351296 -1 0 0 I I #
point $-1 68.981597338785974 27.713267785501039 6.0846214515351296 #
face $-1 $329 $330 $14 $-1 $331 reversed single #
loop $-1 $-1 $332 $238 #
plane-surface $-1 0 0 -6.0846214515351296 0 0 1 1 0 0 forward_v I I I I #
coedge $-1 $333 $334 $246 $298 forward $239 $-1 #
coedge $-1 $241 $335 $336 $337 forward $182 $-1 #
coedge $-1 $336 $338 $242 $292 forward $330 $-1 #
edge $-1 $339 -39.550591057938249 $294 -33.497223438670652 $291 $340 forward 7 unknown #
edge $-1 $339 1.2385527045428529e-014 $295 7.3897972926558122 $243 $341 forward 7 unknown #
vertex $-1 $292 $342 #
vertex $-1 $248 $343 #
straight-curve $-1 54.24129922645615 -70.363050932221583 6.0846214515351278 0 1 0 I I #
coedge $-1 $246 $245 $338 $344 reversed $119 $-1 #
edge $-1 $300 0.54524041398218603 $345 7.9350377066379867 $289 $346 forward 7 unknown #
coedge $-1 $347 $247 $334 $348 forward $182 $-1 #
vertex $-1 $348 $349 #
straight-curve $-1 30.805724141310534 -23.474654274865095 6.0846214515351296 1 0 0 I I #
point $-1 58.452812972836085 -21.75889346507098 0.37259450431528751 #
face $-1 $350 $351 $15 $-1 $352 reversed single #
loop $-1 $-1 $353 $251 #
plane-surface $-1 0 0 6.0846214515351296 0 0 1 1 0 0 forward_v I I I I #
coedge $-1 $354 $355 $353 $356 reversed $252 $-1 #
edge $-1 $357 1 $357 0 $254 $-1 forward 7 unknown #
vertex $-1 $255 $358 #
ellipse-curve $-1 58.452812972836085 -22.578045517493802 0.9461709290500232 0 -0.81915205242281985 0.57357642473473569 1 0 0 1 I I #
point $-1 59.452812972836085 -25.59396103018306 3.0579376419013222 #
point $-1 64.770083592406024 -21.75889346507098 0.37259450431528751 #
coedge $-1 $359 $360 $361 $362 reversed $260 $-1 #
plane-surface $-1 0 27.713267785501039 0 0 -1 0 0 0 -1 forward_v I I I I #
coedge $-1 $363 $271 $281 $327 forward $266 $-1 #
coedge $-1 $269 $268 $363 $364 forward $162 $-1 #
edge $-1 $277 -68.981597338785974 $365 68.981597338785974 $276 $366 forward 7 unknown #
coedge $-1 $281 $279 $269 $318 reversed $282 $-1 #
edge $-1 $367 -68.981597338785974 $319 68.981597338785974 $317 $368 forward 7 unknown #
vertex $-1 $270 $369 #
straight-curve $-1 68.981597338785974 0 -6.0846214515351296 0 -1 0 I I #
coedge $-1 $271 $363 $273 $323 reversed $266 $-1 #
straight-curve $-1 -68.981597338785974 0 6.0846214515351296 0 -1 0 I I #
edge $-1 $274 -6.0846214515351296 $365 6.0846214515351296 $321 $370 forward 7 unknown #
point $-1 -68.981597338785974 -27.713267785501039 6.0846214515351296 #
point $-1 68.981597338785974 -27.713267785501039 -6.0846214515351296 #
straight-curve $-1 68.981597338785974 27.713267785501039 0 0 0 -1 I I #
edge $-1 $283 -6.0846214515351296 $367 6.0846214515351296 $281 $371 forward 7 unknown #
point $-1 -68.981597338785974 27.713267785501039 6.0846214515351296 #
face $-1 $372 $373 $14 $-1 $374 reversed single #
loop $-1 $-1 $291 $286 #
plane-surface $-1 0 -27.713267785501039 0 0 1 0 0 0 1 forward_v I I I I #
coedge $-1 $375 $376 $377 $378 forward $287 $-1 #
coedge $-1 $377 $289 $379 $380 forward $239 $-1 #
coedge $-1 $289 $381 $299 $348 reversed $239 $-1 #
coedge $-1 $290 $347 $382 $383 forward $182 $-1 #
coedge $-1 $384 $291 $290 $337 reversed $330 $-1 #
edge $-1 $385 -68.981597338785974 $294 54.24129922645615 $336 $386 forward 7 unknown #
coedge $-1 $291 $379 $297 $344 forward $330 $-1 #
vertex $-1 $344 $387 #
straight-curve $-1 54.24129922645615 -27.713267785501039 39.58184489020578 0 0 1 I I #
straight-curve $-1 54.24129922645615 -27.713267785501046 0.031253832267523762 0 0.57357642473473569 0.81915205242281985 I I #
point $-1 54.24129922645615 -27.713267785501039 6.0846214515351296 #
point $-1 54.24129922645615 -23.474654274865095 6.0846214515351296 #
edge $-1 $345 -38.175873197475454 $339 -23.435575085145615 $338 $388 forward 7 unknown #
vertex $-1 $380 $389 #
straight-curve $-1 68.981597338785974 -23.161917227592305 6.5312562557125045 0 -0.57357642473473569 -0.81915205242281985 I I #
coedge $-1 $335 $299 $390 $391 forward $182 $-1 #
edge $-1 $300 -23.474654274865095 $392 27.713267785501039 $334 $393 forward 7 unknown #
point $-1 68.981597338785988 -23.474654274865095 6.0846214515351296 #
face $-1 $394 $395 $15 $-1 $396 reversed single #
loop $-1 $-1 $397 $303 #
plane-surface $-1 68.981597338785974 0 0 -1 0 0 0 0 1 forward_v I I I I #
coedge $-1 $361 $398 $306 $356 forward $304 $-1 #
coedge $-1 $355 $306 $399 $400 reversed $252 $-1 #
coedge $-1 $306 $354 $359 $401 forward $252 $-1 #
edge $-1 $402 42.649783146720544 $403 46.888396657356488 $353 $404 forward 7 unknown #
vertex $-1 $307 $405 #
point $-1 59.452812972836085 -22.578045517493802 0.9461709290500232 #
coedge $-1 $406 $312 $355 $401 reversed $260 $-1 #
coedge $-1 $312 $406 $397 $407 reversed $260 $-1 #
coedge $-1 $408 $353 $312 $362 forward $304 $-1 #
edge $-1 $403 23.435575085145615 $409 38.175873197475454 $361 $410 forward 7 unknown #
coedge $-1 $321 $314 $315 $364 reversed $266 $-1 #
edge $-1 $365 -27.713267785501039 $367 27.713267785501039 $363 $411 forward 7 unknown #
vertex $-1 $364 $412 #
straight-curve $-1 0 -27.713267785501039 -6.0846214515351296 -1 0 0 I I #
vertex $-1 $318 $413 #
straight-curve $-1 0 27.713267785501039 -6.0846214515351296 1 0 0 I I #
point $-1 68.981597338785974 27.713267785501039 -6.0846214515351296 #
straight-curve $-1 -68.981597338785974 -27.713267785501039 0 0 0 -1 I I #
straight-curve $-1 -68.981597338785974 27.713267785501039 0 0 0 -1 I I #
face $-1 $-1 $414 $14 $-1 $415 reversed single #
loop $-1 $-1 $416 $329 #
plane-surface $-1 -68.981597338785974 0 0 1 0 0 0 0 -1 forward_v I I I I #
coedge $-1 $417 $332 $418 $419 forward $287 $-1 #
coedge $-1 $332 $417 $420 $421 forward $287 $-1 #
coedge $-1 $381 $333 $332 $378 reversed $239 $-1 #
edge $-1 $422 -27.713267785501039 $423 27.713267785501039 $377 $424 forward 7 unknown #
coedge $-1 $338 $418 $333 $380 reversed $330 $-1 #
edge $-1 $345 -0.031253832267533907 $423 6.0846214515351296 $333 $425 forward 7 unknown #
coedge $-1 $334 $377 $426 $427 reversed $239 $-1 #
coedge $-1 $416 $428 $335 $383 reversed $373 $-1 #
edge $-1 $429 -27.713267785501039 $385 27.713267785501039 $382 $430 forward 7 unknown #
coedge $-1 $418 $336 $428 $431 forward $330 $-1 #
vertex $-1 $383 $432 #
straight-curve $-1 0 -27.713267785501039 6.0846214515351296 1 0 0 I I #
point $-1 54.24129922645615 -27.713267785501039 0.031253832267533907 #
straight-curve $-1 30.805724141310534 -27.713267785501039 0.031253832267534032 -1 0 0 I I #
point $-1 68.981597338785988 -27.713267785501039 0.031253832267533907 #
coedge $-1 $426 $433 $347 $391 reversed $414 $-1 #
edge $-1 $392 -68.981597338785974 $429 68.981597338785974 $390 $434 forward 7 unknown #
vertex $-1 $348 $435 #
straight-curve $-1 68.981597338785974 0 6.0846214515351296 0 1 0 I I #
face $-1 $436 $437 $15 $-1 $438 reversed single #
loop $-1 $-1 $439 $350 #
plane-surface $-1 0 0 -6.0846214515351296 0 0 1 1 0 0 forward_v I I I I #
coedge $-1 $440 $441 $360 $407 forward $351 $-1 #
coedge $-1 $353 $442 $443 $444 forward $304 $-1 #
coedge $-1 $443 $445 $354 $400 forward $437 $-1 #
edge $-1 $446 -39.550591057938249 $402 -33.497223438670652 $399 $447 forward 7 unknown #
edge $-1 $446 1.2385527045428529e-014 $403 7.3897972926558122 $355 $448 forward 7 unknown #
vertex $-1 $400 $449 #
vertex $-1 $362 $450 #
straight-curve $-1 54.24129922645615 -70.363050932221583 6.0846214515351278 0 1 0 I I #
point $-1 58.452812972836085 -21.75889346507098 0.37259450431528751 #
coedge $-1 $360 $359 $445 $451 reversed $260 $-1 #
edge $-1 $409 0.54524041398218603 $452 7.9350377066379867 $397 $453 forward 7 unknown #
coedge $-1 $454 $361 $441 $455 forward $304 $-1 #
vertex $-1 $455 $456 #
straight-curve $-1 30.805724141310534 -23.474654274865095 6.0846214515351296 1 0 0 I I #
straight-curve $-1 -68.981597338785974 0 -6.0846214515351296 0 1 0 I I #
point $-1 -68.981597338785974 -27.713267785501039 -6.0846214515351296 #
point $-1 -68.981597338785974 27.713267785501039 -6.0846214515351296 #
loop $-1 $-1 $426 $372 #
plane-surface $-1 0 27.713267785501039 0 0 -1 0 0 0 -1 forward_v I I I I #
coedge $-1 $457 $382 $433 $458 forward $373 $-1 #
coedge $-1 $376 $375 $457 $459 forward $287 $-1 #
coedge $-1 $379 $384 $375 $419 reversed $330 $-1 #
edge $-1 $423 -68.981597338785974 $460 68.981597338785974 $418 $461 forward 7 unknown #
coedge $-1 $433 $426 $376 $421 reversed $414 $-1 #
edge $-1 $462 -68.981597338785974 $422 68.981597338785974 $420 $463 forward 7 unknown #
vertex $-1 $378 $464 #
vertex $-1 $380 $465 #
straight-curve $-1 68.981597338785974 0 -6.0846214515351296 0 -1 0 I I #
straight-curve $-1 68.981597338785974 -27.713267785501039 0 0 0 -1 I I #
coedge $-1 $420 $390 $381 $427 forward $414 $-1 #
edge $-1 $392 -6.0846214515351296 $422 6.0846214515351296 $381 $466 forward 7 unknown #
coedge $-1 $382 $457 $384 $431 reversed $373 $-1 #
vertex $-1 $391 $467 #
straight-curve $-1 -68.981597338785974 0 6.0846214515351296 0 -1 0 I I #
edge $-1 $385 -6.0846214515351296 $460 6.0846214515351296 $428 $468 forward 7 unknown #
point $-1 -68.981597338785974 -27.713267785501039 6.0846214515351296 #
coedge $-1 $390 $420 $416 $458 reversed $414 $-1 #
straight-curve $-1 0 27.713267785501039 6.0846214515351296 -1 0 0 I I #
point $-1 68.981597338785974 27.713267785501039 6.0846214515351296 #
face $-1 $469 $470 $15 $-1 $471 reversed single #
loop $-1 $-1 $399 $394 #
plane-surface $-1 0 -27.713267785501039 0 0 1 0 0 0 1 forward_v I I I I #
coedge $-1 $472 $473 $474 $475 forward $395 $-1 #
coedge $-1 $474 $397 $476 $477 forward $351 $-1 #
coedge $-1 $397 $478 $408 $455 reversed $351 $-1 #
coedge $-1 $398 $454 $479 $480 forward $304 $-1 #
coedge $-1 $481 $399 $398 $444 reversed $437 $-1 #
edge $-1 $482 -68.981597338785974 $402 54.24129922645615 $443 $483 forward 7 unknown #
coedge $-1 $399 $476 $406 $451 forward $437 $-1 #
vertex $-1 $451 $484 #
straight-curve $-1 54.24129922645615 -27.713267785501039 39.58184489020578 0 0 1 I I #
straight-curve $-1 54.24129922645615 -27.713267785501046 0.031253832267523762 0 0.57357642473473569 0.81915205242281985 I I #
point $-1 54.24129922645615 -27.713267785501039 6.0846214515351296 #
point $-1 54.24129922645615 -23.474654274865095 6.0846214515351296 #
edge $-1 $452 -38.175873197475454 $446 -23.435575085145615 $445 $485 forward 7 unknown #
vertex $-1 $477 $486 #
straight-curve $-1 68.981597338785974 -23.161917227592305 6.5312562557125045 0 -0.57357642473473569 -0.81915205242281985 I I #
coedge $-1 $442 $408 $487 $488 forward $304 $-1 #
edge $-1 $409 -23.474654274865095 $489 27.713267785501039 $441 $490 forward 7 unknown #
point $-1 68.981597338785988 -23.474654274865095 6.0846214515351296 #
coedge $-1 $428 $416 $417 $459 reversed $373 $-1 #
edge $-1 $429 -6.0846214515351296 $462 6.0846214515351296 $433 $491 forward 7 unknown #
edge $-1 $460 -27.713267785501039 $462 27.713267785501039 $457 $492 forward 7 unknown #
vertex $-1 $459 $493 #
straight-curve $-1 0 -27.713267785501039 -6.0846214515351296 -1 0 0 I I #
vertex $-1 $421 $494 #
straight-curve $-1 0 27.713267785501039 -6.0846214515351296 1 0 0 I I #
point $-1 68.981597338785974 27.713267785501039 -6.0846214515351296 #
point $-1 68.981597338785974 -27.713267785501039 -6.0846214515351296 #
straight-curve $-1 68.981597338785974 27.713267785501039 0 0 0 -1 I I #
point $-1 -68.981597338785974 27.713267785501039 6.0846214515351296 #
straight-curve $-1 -68.981597338785974 -27.713267785501039 0 0 0 -1 I I #
face $-1 $-1 $495 $15 $-1 $496 reversed single #
loop $-1 $-1 $497 $436 #
plane-surface $-1 -68.981597338785974 0 0 1 0 0 0 0 -1 forward_v I I I I #
coedge $-1 $498 $439 $499 $500 forward $395 $-1 #
coedge $-1 $439 $498 $501 $502 forward $395 $-1 #
coedge $-1 $478 $440 $439 $475 reversed $351 $-1 #
edge $-1 $503 -27.713267785501039 $504 27.713267785501039 $474 $505 forward 7 unknown #
coedge $-1 $445 $499 $440 $477 reversed $437 $-1 #
edge $-1 $452 -0.031253832267533907 $504 6.0846214515351296 $440 $506 forward 7 unknown #
coedge $-1 $441 $474 $507 $508 reversed $351 $-1 #
coedge $-1 $497 $509 $442 $480 reversed $470 $-1 #
edge $-1 $510 -27.713267785501039 $482 27.713267785501039 $479 $511 forward 7 unknown #
coedge $-1 $499 $443 $509 $512 forward $437 $-1 #
vertex $-1 $480 $513 #
straight-curve $-1 0 -27.713267785501039 6.0846214515351296 1 0 0 I I #
point $-1 54.24129922645615 -27.713267785501039 0.031253832267533907 #
straight-curve $-1 30.805724141310534 -27.713267785501039 0.031253832267534032 -1 0 0 I I #
point $-1 68.981597338785988 -27.713267785501039 0.031253832267533907 #
coedge $-1 $507 $514 $454 $488 reversed $495 $-1 #
edge $-1 $489 -68.981597338785974 $510 68.981597338785974 $487 $515 forward 7 unknown #
vertex $-1 $455 $516 #
straight-curve $-1 68.981597338785974 0 6.0846214515351296 0 1 0 I I #
straight-curve $-1 -68.981597338785974 27.713267785501039 0 0 0 -1 I I #
straight-curve $-1 -68.981597338785974 0 -6.0846214515351296 0 1 0 I I #
point $-1 -68.981597338785974 -27.713267785501039 -6.0846214515351296 #
point $-1 -68.981597338785974 27.713267785501039 -6.0846214515351296 #
loop $-1 $-1 $507 $469 #
plane-surface $-1 0 27.713267785501039 0 0 -1 0 0 0 -1 forward_v I I I I #
coedge $-1 $517 $479 $514 $518 forward $470 $-1 #
coedge $-1 $473 $472 $517 $519 forward $395 $-1 #
coedge $-1 $476 $481 $472 $500 reversed $437 $-1 #
edge $-1 $504 -68.981597338785974 $520 68.981597338785974 $499 $521 forward 7 unknown #
coedge $-1 $514 $507 $473 $502 reversed $495 $-1 #
edge $-1 $522 -68.981597338785974 $503 68.981597338785974 $501 $523 forward 7 unknown #
vertex $-1 $475 $524 #
vertex $-1 $477 $525 #
straight-curve $-1 68.981597338785974 0 -6.0846214515351296 0 -1 0 I I #
straight-curve $-1 68.981597338785974 -27.713267785501039 0 0 0 -1 I I #
coedge $-1 $501 $487 $478 $508 forward $495 $-1 #
edge $-1 $489 -6.0846214515351296 $503 6.0846214515351296 $478 $526 forward 7 unknown #
coedge $-1 $479 $517 $481 $512 reversed $470 $-1 #
vertex $-1 $488 $527 #
straight-curve $-1 -68.981597338785974 0 6.0846214515351296 0 -1 0 I I #
edge $-1 $482 -6.0846214515351296 $520 6.0846214515351296 $509 $528 forward 7 unknown #
point $-1 -68.981597338785974 -27.713267785501039 6.0846214515351296 #
coedge $-1 $487 $501 $497 $518 reversed $495 $-1 #
straight-curve $-1 0 27.713267785501039 6.0846214515351296 -1 0 0 I I #
point $-1 68.981597338785974 27.713267785501039 6.0846214515351296 #
coedge $-1 $509 $497 $498 $519 reversed $470 $-1 #
edge $-1 $510 -6.0846214515351296 $522 6.0846214515351296 $514 $529 forward 7 unknown #
edge $-1 $520 -27.713267785501039 $522 27.713267785501039 $517 $530 forward 7 unknown #
vertex $-1 $519 $531 #
straight-curve $-1 0 -27.713267785501039 -6.0846214515351296 -1 0 0 I I #
vertex $-1 $502 $532 #
straight-curve $-1 0 27.713267785501039 -6.0846214515351296 1 0 0 I I #
point $-1 68.981597338785974 27.713267785501039 -6.0846214515351296 #
point $-1 68.981597338785974 -27.713267785501039 -6.0846214515351296 #
straight-curve $-1 68.981597338785974 27.713267785501039 0 0 0 -1 I I #
point $-1 -68.981597338785974 27.713267785501039 6.0846214515351296 #
straight-curve $-1 -68.981597338785974 -27.713267785501039 0 0 0 -1 I I #
straight-curve $-1 -68.981597338785974 27.713267785501039 0 0 0 -1 I I #
straight-curve $-1 -68.981597338785974 0 -6.0846214515351296 0 1 0 I I #
point $-1 -68.981597338785974 -27.713267785501039 -6.0846214515351296 #
point $-1 -68.981597338785974 27.713267785501039 -6.0846214515351296 #
End-of-ACIS-data 