500 0 7 0           
7 Unknown 11 ACIS 5.0 NT 24 Fri Mar 26 00:55:13 1999 
-1 9.9999999999999995e-007 1e-010 
body $-1 $7 $-1 $8 #
body $-1 $9 $-1 $10 #
body $-1 $11 $-1 $12 #
body $-1 $13 $-1 $14 #
body $-1 $15 $-1 $16 #
body $-1 $17 $-1 $18 #
body $-1 $19 $-1 $20 #
lump $-1 $-1 $21 $0 #
transform $-1 1 0 0 0 1 0 0 0 1 79.346903897213664 52.528730390915804 10.576923654078319 1 rotate no_reflect no_shear #
lump $-1 $-1 $22 $1 #
transform $-1 1 0 0 0 1 0 0 0 1 79.346903897213664 52.528730390915804 10.576923654078319 1 rotate no_reflect no_shear #
lump $-1 $-1 $23 $2 #
transform $-1 1 0 0 0 1 0 0 0 1 79.346903897213664 52.528730390915804 10.576923654078319 1 rotate no_reflect no_shear #
lump $-1 $-1 $24 $3 #
transform $-1 1 0 0 0 1 0 0 0 1 79.346903897213664 52.528730390915804 10.576923654078319 1 rotate no_reflect no_shear #
lump $-1 $-1 $25 $4 #
transform $-1 1 0 0 0 1 0 0 0 1 79.346903897213664 52.528730390915804 10.576923654078319 1 rotate no_reflect no_shear #
lump $-1 $-1 $26 $5 #
transform $-1 1 0 0 0 1 0 0 0 1 79.346903897213664 52.528730390915804 10.576923654078319 1 rotate no_reflect no_shear #
lump $-1 $-1 $27 $6 #
transform $-1 1 0 0 0 1 0 0 0 1 79.346903897213664 52.528730390915804 10.576923654078319 1 rotate no_reflect no_shear #
shell $-1 $-1 $-1 $28 $-1 $7 #
shell $-1 $-1 $-1 $29 $-1 $9 #
shell $-1 $-1 $-1 $30 $-1 $11 #
shell $-1 $-1 $-1 $31 $-1 $13 #
shell $-1 $-1 $-1 $32 $-1 $15 #
shell $-1 $-1 $-1 $33 $-1 $17 #
shell $-1 $-1 $-1 $34 $-1 $19 #
face $-1 $35 $36 $21 $-1 $37 forward single #
face $-1 $38 $39 $22 $-1 $40 reversed single #
face $-1 $41 $42 $23 $-1 $43 reversed single #
face $-1 $44 $45 $24 $-1 $46 forward single #
face $-1 $47 $48 $25 $-1 $49 forward single #
face $-1 $50 $51 $26 $-1 $52 reversed single #
face $-1 $53 $54 $27 $-1 $55 forward single #
face $-1 $56 $57 $21 $-1 $58 reversed single #
loop $-1 $-1 $59 $28 #
plane-surface $-1 0 0 10.576923654078319 0 0 1 1 0 0 forward_v I I I I #
face $-1 $60 $61 $22 $-1 $62 reversed single #
loop $-1 $-1 $63 $29 #
plane-surface $-1 0 -48.917443862158642 4.6191527295712387 0 0 1 1 0 0 forward_v I I I I #
face $-1 $64 $65 $23 $-1 $66 reversed single #
loop $-1 $-1 $67 $30 #
plane-surface $-1 -79.346903897213679 -39.833679719780619 4.1208641755220157 -0.81915205242281985 0 0.57357642473473569 0.57357642473473569 0 0.81915205242281985 forward_v I I I I #
face $-1 $68 $69 $24 $-1 $70 forward single #
loop $-1 $71 $72 $31 #
cone-surface $-1 -75.938620368089474 -42.179027268475274 6.5450606984470125 0.81915205242281985 0 -0.57357642473473569 0.86036463710210354 0 1.2287280786342298 1 I I 0 1 1.5 forward I I I I #
face $-1 $73 $74 $25 $-1 $75 forward single #
loop $-1 $76 $77 $32 #
cone-surface $-1 -75.938620368089474 -37.488332171085958 6.5450606984470125 0.81915205242281985 0 -0.57357642473473569 0.86036463710210354 0 1.2287280786342298 1 I I 0 1 1.5 forward I I I I #
face $-1 $78 $79 $26 $-1 $80 reversed single #
loop $-1 $-1 $81 $33 #
plane-surface $-1 106.69767012480871 -24.214617011167217 228.26445433915251 0 -1 0 -0.78801076186113728 0 -0.61566146476048833 forward_v I I I I #
face $-1 $82 $83 $27 $-1 $84 forward single #
loop $-1 $85 $86 $34 #
cone-surface $-1 76.619599192716635 -31.976288277494589 7.459172119529728 -0.78801076186113728 0 -0.61566146476048833 0.9234921971407325 0 -1.182016142791706 1 I I 0 1 1.5 forward I I I I #
face $-1 $87 $88 $21 $-1 $89 reversed single #
loop $-1 $-1 $90 $35 #
plane-surface $-1 0 0 -10.576923654078319 0 0 1 1 0 0 forward_v I I I I #
coedge $-1 $91 $92 $93 $94 forward $36 $-1 #
face $-1 $95 $96 $22 $-1 $97 reversed single #
loop $-1 $-1 $98 $38 #
plane-surface $-1 0 -45.30615733340148 7.598038191824779 0 -1 0 0 0 -1 forward_v I I I I #
coedge $-1 $99 $100 $101 $102 reversed $39 $-1 #
face $-1 $103 $104 $23 $-1 $105 forward single #
loop $-1 $-1 $106 $41 #
plane-surface $-1 -209.3412622588113 -34.361202106159752 95.143891077790968 0 -1 0 0.81915205242281985 0 -0.57357642473473569 forward_v I I I I #
coedge $-1 $107 $108 $109 $110 reversed $42 $-1 #
face $-1 $-1 $111 $24 $-1 $112 forward single #
loop $-1 $113 $114 $44 #
cone-surface $-1 -74.176263488435794 -42.179027268475274 5.311045163542806 0.81915205242281985 0 -0.57357642473473569 0.43018231855105177 0 0.61436403931711492 1 I I -0.70710678118654757 0.70710678118654757 0.75 forward I I I I #
loop $-1 $-1 $115 $31 #
coedge $-1 $72 $72 $116 $117 reversed $45 $-1 #
face $-1 $-1 $118 $25 $-1 $119 forward single #
loop $-1 $120 $121 $47 #
cone-surface $-1 -74.176263488435794 -37.488332171085958 5.311045163542806 0.81915205242281985 0 -0.57357642473473569 0.43018231855105177 0 0.61436403931711492 1 I I -0.70710678118654757 0.70710678118654757 0.75 forward I I I I #
loop $-1 $-1 $122 $32 #
coedge $-1 $77 $77 $123 $124 reversed $48 $-1 #
face $-1 $125 $126 $26 $-1 $127 reversed single #
loop $-1 $-1 $128 $50 #
plane-surface $-1 -18.354758257922853 -31.976288277494589 130.56279218401596 0.78801076186113728 0 0.61566146476048833 0.61566146476048833 0 -0.78801076186113728 forward_v I I I I #
coedge $-1 $129 $130 $131 $132 reversed $51 $-1 #
face $-1 $-1 $133 $27 $-1 $134 forward single #
loop $-1 $135 $136 $53 #
cone-surface $-1 75.280501556538709 -31.976288277494589 6.4129544128077303 -0.78801076186113728 0 -0.61566146476048833 0.46174609857036625 0 -0.59100807139585299 1 I I -0.70710678118654757 0.70710678118654757 0.75 forward I I I I #
loop $-1 $-1 $137 $34 #
coedge $-1 $86 $86 $138 $139 reversed $54 $-1 #
face $-1 $140 $141 $21 $-1 $142 reversed single #
loop $-1 $-1 $143 $56 #
plane-surface $-1 0 -52.528730390915804 0 0 1 0 0 0 1 forward_v I I I I #
coedge $-1 $144 $145 $146 $147 forward $57 $-1 #
coedge $-1 $148 $59 $149 $150 forward $36 $-1 #
coedge $-1 $59 $148 $151 $152 forward $36 $-1 #
coedge $-1 $153 $154 $59 $94 reversed $155 $-1 #
edge $-1 $156 -52.528730390915804 $157 52.528730390915804 $93 $158 forward 7 unknown #
face $-1 $159 $160 $22 $-1 $161 reversed single #
loop $-1 $-1 $162 $60 #
plane-surface $-1 -79.346903897213664 0 0 1 0 0 0 0 -1 forward_v I I I I #
coedge $-1 $163 $164 $165 $166 reversed $61 $-1 #
coedge $-1 $167 $63 $168 $169 reversed $39 $-1 #
coedge $-1 $63 $167 $170 $171 forward $39 $-1 #
coedge $-1 $172 $173 $63 $102 forward $174 $-1 #
edge $-1 $175 -28.070008459836483 $176 -20.847435402322159 $101 $177 forward 7 unknown #
face $-1 $178 $179 $23 $-1 $180 reversed single #
loop $-1 $-1 $109 $64 #
plane-surface $-1 0 0 10.576923654078319 0 0 1 1 0 0 forward_v I I I I #
coedge $-1 $181 $182 $183 $184 reversed $65 $-1 #
coedge $-1 $185 $67 $186 $187 reversed $42 $-1 #
coedge $-1 $67 $185 $181 $188 forward $42 $-1 #
coedge $-1 $183 $189 $67 $110 forward $104 $-1 #
edge $-1 $190 -25.38931747351117 $191 -14.444362246269442 $109 $192 forward 7 unknown #
loop $-1 $-1 $116 $68 #
plane-surface $-1 -79.346903897213679 -39.833679719780619 4.1208641755220157 -0.81915205242281985 0 0.57357642473473569 0.57357642473473569 0 0.81915205242281985 forward_v I I I I #
loop $-1 $-1 $193 $44 #
coedge $-1 $114 $114 $115 $194 reversed $69 $-1 #
coedge $-1 $115 $115 $114 $194 forward $71 $-1 #
coedge $-1 $116 $116 $72 $117 forward $111 $-1 #
edge $-1 $195 0 $195 6.2831853071796004 $116 $196 forward 7 unknown #
loop $-1 $-1 $123 $73 #
plane-surface $-1 -79.346903897213679 -39.833679719780619 4.1208641755220157 -0.81915205242281985 0 0.57357642473473569 0.57357642473473569 0 0.81915205242281985 forward_v I I I I #
loop $-1 $-1 $197 $47 #
coedge $-1 $121 $121 $122 $198 reversed $74 $-1 #
coedge $-1 $122 $122 $121 $198 forward $76 $-1 #
coedge $-1 $123 $123 $77 $124 forward $118 $-1 #
edge $-1 $199 0 $199 6.2831853071796004 $123 $200 forward 7 unknown #
face $-1 $201 $202 $26 $-1 $203 reversed single #
loop $-1 $-1 $204 $78 #
plane-surface $-1 106.69767012480871 -39.737959543821958 228.26445433915251 0 1 0 0.78801076186113728 0 0.61566146476048833 forward_v I I I I #
coedge $-1 $205 $206 $207 $208 reversed $79 $-1 #
coedge $-1 $130 $81 $209 $210 reversed $51 $-1 #
coedge $-1 $81 $129 $205 $211 reversed $51 $-1 #
coedge $-1 $207 $212 $81 $132 forward $213 $-1 #
edge $-1 $214 -25.99806883480931 $215 -22.039638555379376 $131 $216 forward 7 unknown #
loop $-1 $-1 $138 $82 #
plane-surface $-1 -18.354758257922853 -31.976288277494589 130.56279218401596 0.78801076186113728 0 0.61566146476048833 0.61566146476048833 0 -0.78801076186113728 forward_v I I I I #
loop $-1 $-1 $217 $53 #
coedge $-1 $136 $136 $137 $218 reversed $83 $-1 #
coedge $-1 $137 $137 $136 $218 forward $85 $-1 #
coedge $-1 $138 $138 $86 $139 forward $133 $-1 #
edge $-1 $219 0 $219 6.2831853071796004 $138 $220 forward 7 unknown #
face $-1 $221 $222 $21 $-1 $223 reversed single #
loop $-1 $-1 $224 $87 #
plane-surface $-1 -79.346903897213664 0 0 1 0 0 0 0 -1 forward_v I I I I #
coedge $-1 $225 $151 $226 $227 forward $88 $-1 #
coedge $-1 $228 $90 $225 $229 forward $57 $-1 #
coedge $-1 $90 $228 $230 $231 forward $57 $-1 #
coedge $-1 $154 $153 $90 $147 reversed $155 $-1 #
edge $-1 $232 -52.528730390915804 $233 52.528730390915804 $146 $234 forward 7 unknown #
coedge $-1 $92 $91 $235 $236 forward $36 $-1 #
coedge $-1 $237 $238 $91 $150 reversed $222 $-1 #
edge $-1 $157 -79.346903897213664 $239 79.346903897213664 $149 $240 forward 7 unknown #
coedge $-1 $143 $241 $92 $152 reversed $88 $-1 #
edge $-1 $242 -79.346903897213664 $156 79.346903897213664 $151 $243 forward 7 unknown #
coedge $-1 $146 $93 $241 $244 forward $155 $-1 #
coedge $-1 $93 $146 $237 $245 reversed $155 $-1 #
loop $-1 $-1 $153 $221 #
vertex $-1 $94 $246 #
vertex $-1 $94 $247 #
straight-curve $-1 79.346903897213664 0 10.576923654078319 0 1 0 I I #
face $-1 $248 $249 $22 $-1 $250 forward single #
loop $-1 $-1 $168 $95 #
plane-surface $-1 0 -52.528730390915804 0 0 1 0 0 0 1 forward_v I I I I #
coedge $-1 $251 $252 $164 $253 forward $96 $-1 #
coedge $-1 $170 $98 $172 $254 reversed $61 $-1 #
coedge $-1 $98 $170 $162 $253 reversed $61 $-1 #
coedge $-1 $255 $256 $98 $166 forward $249 $-1 #
edge $-1 $257 -79.346903897213664 $258 79.346903897213664 $165 $259 forward 7 unknown #
coedge $-1 $100 $99 $251 $260 reversed $39 $-1 #
coedge $-1 $261 $262 $99 $169 forward $160 $-1 #
edge $-1 $263 -79.346903897213664 $175 79.346903897213664 $168 $264 forward 7 unknown #
coedge $-1 $164 $163 $100 $171 reversed $61 $-1 #
edge $-1 $265 -79.346903897213664 $176 79.346903897213664 $170 $266 forward 7 unknown #
coedge $-1 $267 $101 $163 $254 forward $174 $-1 #
coedge $-1 $101 $267 $261 $268 forward $174 $-1 #
loop $-1 $-1 $172 $248 #
vertex $-1 $169 $269 #
vertex $-1 $102 $270 #
straight-curve $-1 79.346903897213664 -24.458721931079321 4.6191527295712387 0 1 0 I I #
face $-1 $-1 $271 $23 $-1 $272 forward single #
loop $-1 $-1 $273 $103 #
plane-surface $-1 -79.346903897213664 0 0 1 0 0 0 0 -1 forward_v I I I I #
coedge $-1 $182 $106 $108 $188 reversed $65 $-1 #
coedge $-1 $106 $181 $273 $274 reversed $65 $-1 #
coedge $-1 $275 $109 $106 $184 forward $104 $-1 #
edge $-1 $191 -29.844308609767197 $276 -25.323727232191985 $183 $277 forward 7 unknown #
coedge $-1 $108 $107 $278 $279 reversed $42 $-1 #
coedge $-1 $280 $281 $107 $187 forward $271 $-1 #
edge $-1 $282 -24.179923841610073 $190 -16.29853056491487 $186 $283 forward 7 unknown #
edge $-1 $284 2.4884734274515653e-014 $191 7.8813932766952206 $181 $285 forward 7 unknown #
coedge $-1 $109 $275 $280 $286 forward $104 $-1 #
vertex $-1 $187 $287 #
vertex $-1 $110 $288 #
straight-curve $-1 -74.826322519638452 -19.91683985989031 10.576923654078319 0 1 0 I I #
coedge $-1 $193 $193 $-1 $289 reversed $113 $-1 #
edge $-1 $290 0 $290 6.2831853071796004 $114 $291 forward 7 unknown #
vertex $-1 $117 $292 #
ellipse-curve $-1 -77.086613208426058 -42.179027268475274 7.3488939148001782 -0.81915205242281985 0 0.57357642473473569 0.86036463710210354 0 1.2287280786342298 1 I I #
coedge $-1 $197 $197 $-1 $293 reversed $120 $-1 #
edge $-1 $294 0 $294 6.2831853071796004 $121 $295 forward 7 unknown #
vertex $-1 $124 $296 #
ellipse-curve $-1 -77.086613208426058 -37.488332171085958 7.3488939148001782 -0.81915205242281985 0 0.57357642473473569 0.86036463710210354 0 1.2287280786342298 1 I I #
face $-1 $-1 $213 $26 $-1 $297 forward single #
loop $-1 $-1 $298 $125 #
plane-surface $-1 79.346903897213664 0 0 -1 0 0 0 0 1 forward_v I I I I #
coedge $-1 $299 $300 $301 $302 reversed $126 $-1 #
coedge $-1 $303 $128 $130 $211 forward $79 $-1 #
coedge $-1 $128 $303 $299 $304 forward $79 $-1 #
coedge $-1 $301 $131 $128 $208 forward $213 $-1 #
edge $-1 $215 8.2264728724199223 $305 23.749815405074663 $207 $306 forward 7 unknown #
coedge $-1 $307 $308 $129 $210 forward $202 $-1 #
edge $-1 $309 -108.62186336829184 $214 -103.55530351549794 $209 $310 forward 7 unknown #
edge $-1 $215 152.26425112082603 $309 158.6938077944273 $130 $311 forward 7 unknown #
coedge $-1 $131 $301 $307 $312 forward $213 $-1 #
loop $-1 $-1 $301 $201 #
vertex $-1 $210 $313 #
vertex $-1 $132 $314 #
straight-curve $-1 53.348835062404355 -24.214617011167217 10.576923654078314 -1 0 0 I I #
coedge $-1 $217 $217 $-1 $315 reversed $135 $-1 #
edge $-1 $316 0 $316 6.2831853071796004 $136 $317 forward 7 unknown #
vertex $-1 $139 $318 #
ellipse-curve $-1 77.367688757498698 -31.976288277494589 8.0436437276813511 0.78801076186113728 0 0.61566146476048833 0.9234921971407325 0 -1.182016142791706 1 I I #
face $-1 $-1 $155 $21 $-1 $319 reversed single #
loop $-1 $-1 $237 $140 #
plane-surface $-1 0 52.528730390915804 0 0 -1 0 0 0 -1 forward_v I I I I #
coedge $-1 $320 $235 $238 $321 forward $141 $-1 #
coedge $-1 $241 $143 $144 $229 reversed $88 $-1 #
coedge $-1 $235 $320 $143 $227 reversed $141 $-1 #
edge $-1 $242 -10.576923654078319 $322 10.576923654078319 $226 $323 forward 7 unknown #
coedge $-1 $145 $144 $320 $324 forward $57 $-1 #
edge $-1 $233 -79.346903897213664 $322 79.346903897213664 $225 $325 forward 7 unknown #
coedge $-1 $238 $237 $145 $231 reversed $222 $-1 #
edge $-1 $326 -79.346903897213664 $232 79.346903897213664 $230 $327 forward 7 unknown #
vertex $-1 $147 $328 #
vertex $-1 $244 $329 #
straight-curve $-1 79.346903897213664 0 -10.576923654078319 0 -1 0 I I #
coedge $-1 $224 $226 $148 $236 reversed $141 $-1 #
edge $-1 $239 -52.528730390915804 $242 52.528730390915804 $235 $330 forward 7 unknown #
coedge $-1 $230 $149 $154 $245 forward $222 $-1 #
coedge $-1 $149 $230 $224 $321 reversed $222 $-1 #
vertex $-1 $150 $331 #
straight-curve $-1 0 52.528730390915804 10.576923654078319 -1 0 0 I I #
coedge $-1 $151 $225 $153 $244 reversed $88 $-1 #
vertex $-1 $236 $332 #
straight-curve $-1 0 -52.528730390915804 10.576923654078319 1 0 0 I I #
edge $-1 $156 -10.576923654078319 $233 10.576923654078319 $153 $333 forward 7 unknown #
edge $-1 $157 -10.576923654078319 $232 10.576923654078319 $154 $334 forward 7 unknown #
point $-1 79.346903897213664 -52.528730390915804 10.576923654078319 #
point $-1 79.346903897213664 52.528730390915804 10.576923654078319 #
face $-1 $-1 $174 $22 $-1 $335 reversed single #
loop $-1 $-1 $165 $159 #
plane-surface $-1 0 0 10.576923654078319 0 0 1 1 0 0 forward_v I I I I #
coedge $-1 $336 $162 $167 $260 forward $96 $-1 #
coedge $-1 $162 $336 $255 $337 reversed $96 $-1 #
edge $-1 $258 -6.7779045581659298 $265 -0.82013363365884917 $162 $338 forward 7 unknown #
edge $-1 $176 0.82013363365884917 $257 6.7779045581659298 $172 $339 forward 7 unknown #
coedge $-1 $340 $165 $252 $337 forward $249 $-1 #
coedge $-1 $165 $340 $267 $341 forward $249 $-1 #
vertex $-1 $254 $342 #
vertex $-1 $337 $343 #
straight-curve $-1 0 -45.30615733340148 10.576923654078319 -1 0 0 I I #
edge $-1 $265 20.847435402322159 $263 28.070008459836483 $251 $344 forward 7 unknown #
coedge $-1 $345 $168 $173 $268 reversed $160 $-1 #
coedge $-1 $168 $345 $336 $346 forward $160 $-1 #
vertex $-1 $169 $347 #
straight-curve $-1 0 -52.528730390915804 4.6191527295712387 1 0 0 I I #
vertex $-1 $260 $348 #
straight-curve $-1 0 -45.30615733340148 4.6191527295712387 1 0 0 I I #
coedge $-1 $173 $172 $256 $341 reversed $174 $-1 #
edge $-1 $349 -10.576923654078319 $175 -4.6191527295712387 $173 $350 forward 7 unknown #
point $-1 79.346903897213664 -52.528730390915804 4.6191527295712387 #
point $-1 79.346903897213664 -45.30615733340148 4.6191527295712387 #
loop $-1 $-1 $186 $178 #
plane-surface $-1 0 -45.30615733340148 7.598038191824779 0 -1 0 0 0 -1 forward_v I I I I #
coedge $-1 $278 $351 $182 $274 forward $179 $-1 #
edge $-1 $276 36.995021884817163 $284 43.451081363373447 $273 $352 forward 7 unknown #
coedge $-1 $189 $183 $351 $353 forward $104 $-1 #
vertex $-1 $353 $354 #
straight-curve $-1 -104.67063112940565 -34.361202106159752 10.576923654078321 -1 0 0 I I #
coedge $-1 $355 $273 $185 $279 forward $179 $-1 #
edge $-1 $284 14.444362246269442 $282 25.389317473511177 $278 $356 forward 7 unknown #
coedge $-1 $281 $186 $189 $286 reversed $271 $-1 #
coedge $-1 $186 $280 $355 $357 reversed $271 $-1 #
vertex $-1 $357 $358 #
straight-curve $-1 -65.477869629784763 -45.30615733340148 23.9278984178044 0.57357642473473569 0 0.81915205242281985 I I #
vertex $-1 $279 $359 #
straight-curve $-1 -79.346903897213679 -34.361202106159752 4.1208641755220157 0.57357642473473569 0 0.81915205242281985 I I #
edge $-1 $360 -79.346903897213664 $190 -74.826322519638438 $189 $361 forward 7 unknown #
point $-1 -74.826322519638438 -45.30615733340148 10.576923654078319 #
point $-1 -74.826322519638452 -34.361202106159752 10.576923654078319 #
edge $-1 $362 1 $362 0 $193 $-1 forward 7 unknown #
vertex $-1 $194 $363 #
ellipse-curve $-1 -74.790627527752903 -42.179027268475274 5.7412274820938576 -0.81915205242281985 0 0.57357642473473569 0.86036463710210354 0 1.2287280786342298 1 I I #
point $-1 -76.226248571323936 -42.179027268475274 8.5776219934343967 #
edge $-1 $364 1 $364 0 $197 $-1 forward 7 unknown #
vertex $-1 $198 $365 #
ellipse-curve $-1 -74.790627527752903 -37.488332171085958 5.7412274820938576 -0.81915205242281985 0 0.57357642473473569 0.86036463710210354 0 1.2287280786342298 1 I I #
point $-1 -76.226248571323936 -37.488332171085958 8.5776219934343967 #
plane-surface $-1 0 0 10.576923654078319 0 0 1 1 0 0 forward_v I I I I #
coedge $-1 $308 $307 $300 $366 forward $202 $-1 #
coedge $-1 $300 $204 $206 $304 reversed $126 $-1 #
coedge $-1 $204 $299 $298 $366 reversed $126 $-1 #
coedge $-1 $212 $207 $204 $302 forward $213 $-1 #
edge $-1 $305 22.039638555379376 $367 25.99806883480931 $301 $368 forward 7 unknown #
coedge $-1 $206 $205 $308 $369 reversed $79 $-1 #
edge $-1 $370 -158.6938077944273 $305 -152.26425112082603 $299 $371 forward 7 unknown #
vertex $-1 $208 $372 #
straight-curve $-1 75.388473617783745 -15.988144138747295 10.576923654078314 0 -1 0 I I #
coedge $-1 $298 $209 $212 $312 reversed $202 $-1 #
coedge $-1 $209 $298 $303 $369 forward $202 $-1 #
vertex $-1 $210 $373 #
straight-curve $-1 79.346903897213664 -24.214617011167217 114.13222716957625 0 0 1 I I #
straight-curve $-1 -18.354758257922853 -24.214617011167217 130.56279218401596 0.61566146476048833 0 -0.78801076186113728 I I #
edge $-1 $367 -39.737959543821958 $214 -24.214617011167217 $307 $374 forward 7 unknown #
point $-1 79.346903897213664 -24.214617011167217 10.576923654078319 #
point $-1 75.388473617783731 -24.214617011167217 10.576923654078314 #
edge $-1 $375 1 $375 0 $217 $-1 forward 7 unknown #
vertex $-1 $218 $376 #
ellipse-curve $-1 75.871509627934557 -31.976288277494589 6.8747005113780961 0.78801076186113728 0 0.61566146476048833 0.9234921971407325 0 -1.182016142791706 1 I I #
point $-1 78.291180954639458 -31.976288277494589 6.8616275848896535 #
plane-surface $-1 79.346903897213664 0 0 -1 0 0 0 0 1 forward_v I I I I #
coedge $-1 $226 $224 $228 $324 reversed $141 $-1 #
edge $-1 $239 -10.576923654078319 $326 10.576923654078319 $238 $377 forward 7 unknown #
vertex $-1 $324 $378 #
straight-curve $-1 -79.346903897213664 -52.528730390915804 0 0 0 -1 I I #
edge $-1 $322 -52.528730390915804 $326 52.528730390915804 $320 $379 forward 7 unknown #
straight-curve $-1 0 -52.528730390915804 -10.576923654078319 -1 0 0 I I #
vertex $-1 $231 $380 #
straight-curve $-1 0 52.528730390915804 -10.576923654078319 1 0 0 I I #
point $-1 79.346903897213664 52.528730390915804 -10.576923654078319 #
point $-1 79.346903897213664 -52.528730390915804 -10.576923654078319 #
straight-curve $-1 -79.346903897213664 0 10.576923654078319 0 -1 0 I I #
point $-1 -79.346903897213664 52.528730390915804 10.576923654078319 #
point $-1 -79.346903897213664 -52.528730390915804 10.576923654078319 #
straight-curve $-1 79.346903897213664 -52.528730390915804 0 0 0 -1 I I #
straight-curve $-1 79.346903897213664 52.528730390915804 0 0 0 -1 I I #
plane-surface $-1 79.346903897213664 0 0 -1 0 0 0 0 1 forward_v I I I I #
coedge $-1 $252 $251 $262 $346 reversed $96 $-1 #
edge $-1 $258 45.30615733340148 $381 52.528730390915804 $252 $382 forward 7 unknown #
straight-curve $-1 -79.346903897213664 -45.30615733340148 3.7990190959123895 0 0 -1 I I #
straight-curve $-1 79.346903897213664 -45.30615733340148 3.7990190959123895 0 0 1 I I #
coedge $-1 $256 $255 $345 $383 forward $249 $-1 #
edge $-1 $349 -52.528730390915804 $257 -45.30615733340148 $267 $384 forward 7 unknown #
point $-1 79.346903897213664 -45.30615733340148 10.576923654078319 #
point $-1 -79.346903897213664 -45.30615733340148 10.576923654078319 #
straight-curve $-1 -79.346903897213664 -24.458721931079321 4.6191527295712387 0 -1 0 I I #
coedge $-1 $262 $261 $340 $383 reversed $160 $-1 #
edge $-1 $381 -10.576923654078319 $263 -4.6191527295712387 $336 $385 forward 7 unknown #
point $-1 -79.346903897213664 -52.528730390915804 4.6191527295712387 #
point $-1 -79.346903897213664 -45.30615733340148 4.6191527295712387 #
vertex $-1 $341 $386 #
straight-curve $-1 79.346903897213664 -52.528730390915804 0 0 0 -1 I I #
coedge $-1 $273 $355 $275 $353 reversed $179 $-1 #
straight-curve $-1 -79.346903897213664 -34.361202106159752 47.571945538895484 0 0 -1 I I #
edge $-1 $276 34.361202106159752 $360 45.30615733340148 $351 $387 forward 7 unknown #
point $-1 -79.346903897213664 -34.361202106159752 10.576923654078319 #
coedge $-1 $351 $278 $281 $357 forward $179 $-1 #
straight-curve $-1 -79.346903897213664 -19.91683985989031 4.1208641755220432 0 -1 0 I I #
edge $-1 $282 -43.451081363373447 $360 -36.995021884817163 $355 $388 forward 7 unknown #
point $-1 -79.346903897213664 -45.306157333401487 4.1208641755220361 #
point $-1 -79.346903897213664 -34.361202106159752 4.1208641755220361 #
vertex $-1 $357 $389 #
straight-curve $-1 0 -45.30615733340148 10.576923654078319 1 0 0 I I #
vertex $-1 $289 $390 #
point $-1 -73.930262890650809 -42.179027268475274 6.9699555607280876 #
vertex $-1 $293 $391 #
point $-1 -73.930262890650809 -37.488332171085958 6.9699555607280876 #
edge $-1 $367 103.55530351549794 $370 108.62186336829184 $298 $392 forward 7 unknown #
vertex $-1 $312 $393 #
straight-curve $-1 53.348835062404355 -39.737959543821958 10.576923654078314 1 0 0 I I #
edge $-1 $370 -23.749815405074663 $309 -8.2264728724199223 $308 $394 forward 7 unknown #
vertex $-1 $369 $395 #
straight-curve $-1 -18.354758257922853 -39.737959543821958 130.56279218401596 -0.61566146476048833 0 0.78801076186113728 I I #
point $-1 75.388473617783731 -39.737959543821958 10.576923654078314 #
point $-1 79.346903897213664 -24.214617011167217 5.5103638012844129 #
straight-curve $-1 79.346903897213664 0 10.576923654078319 0 1 0 I I #
vertex $-1 $315 $396 #
point $-1 76.795001825075289 -31.976288277494589 5.6926843685863906 #
straight-curve $-1 -79.346903897213664 52.528730390915804 0 0 0 -1 I I #
point $-1 -79.346903897213664 -52.528730390915804 -10.576923654078319 #
straight-curve $-1 -79.346903897213664 0 -10.576923654078319 0 1 0 I I #
point $-1 -79.346903897213664 52.528730390915804 -10.576923654078319 #
vertex $-1 $337 $397 #
straight-curve $-1 -79.346903897213664 0 10.576923654078319 0 -1 0 I I #
edge $-1 $381 -79.346903897213664 $349 79.346903897213664 $345 $398 forward 7 unknown #
straight-curve $-1 79.346903897213664 0 10.576923654078319 0 1 0 I I #
straight-curve $-1 -79.346903897213664 -52.528730390915804 0 0 0 -1 I I #
point $-1 79.346903897213664 -52.528730390915804 10.576923654078319 #
straight-curve $-1 -79.346903897213664 0 10.576923654078319 0 -1 0 I I #
straight-curve $-1 -79.346903897213664 -45.306157333401487 47.571945538895484 0 0 1 I I #
point $-1 -79.346903897213664 -45.30615733340148 10.576923654078319 #
point $-1 -73.561899449118684 -42.179027268475274 4.8808628449917544 #
point $-1 -73.561899449118684 -37.488332171085958 4.8808628449917544 #
straight-curve $-1 79.346903897213664 -39.737959543821958 114.13222716957625 0 0 -1 I I #
point $-1 79.346903897213664 -39.737959543821958 10.576923654078319 #
straight-curve $-1 79.346903897213664 -15.988144138747295 5.5103638012844058 0 1 0 I I #
point $-1 79.346903897213664 -39.737959543821958 5.5103638012844129 #
point $-1 74.689493485142862 -31.976288277494589 5.9512083142373644 #
point $-1 -79.346903897213664 -52.528730390915804 10.576923654078319 #
straight-curve $-1 0 -52.528730390915804 10.576923654078319 1 0 0 I I #
End-of-ACIS-data 