500 0 9 0           
7 Unknown 11 ACIS 5.0 NT 24 Fri Mar 26 18:33:38 1999 
-1 9.9999999999999995e-007 1e-010 
body $-1 $9 $-1 $10 #
body $-1 $11 $-1 $12 #
body $-1 $13 $-1 $14 #
body $-1 $15 $-1 $16 #
body $-1 $17 $-1 $18 #
body $-1 $19 $-1 $20 #
body $-1 $21 $-1 $22 #
body $-1 $23 $-1 $24 #
body $-1 $25 $-1 $26 #
lump $-1 $-1 $27 $0 #
transform $-1 1 0 0 0 1 0 0 0 1 47.068086794640948 25.142577702952327 12.283776297220472 1 rotate no_reflect no_shear #
lump $-1 $-1 $28 $1 #
transform $-1 1 0 0 0 1 0 0 0 1 47.068086794640948 25.142577702952327 12.283776297220472 1 rotate no_reflect no_shear #
lump $-1 $-1 $29 $2 #
transform $-1 1 0 0 0 1 0 0 0 1 47.068086794640948 25.142577702952327 12.283776297220472 1 rotate no_reflect no_shear #
lump $-1 $-1 $30 $3 #
transform $-1 1 0 0 0 1 0 0 0 1 47.068086794640948 25.142577702952327 12.283776297220472 1 rotate no_reflect no_shear #
lump $-1 $-1 $31 $4 #
transform $-1 1 0 0 0 1 0 0 0 1 47.068086794640948 25.142577702952327 12.283776297220472 1 rotate no_reflect no_shear #
lump $-1 $-1 $32 $5 #
transform $-1 1 0 0 0 1 0 0 0 1 47.068086794640948 25.142577702952327 12.283776297220472 1 rotate no_reflect no_shear #
lump $-1 $-1 $33 $6 #
transform $-1 1 0 0 0 1 0 0 0 1 47.068086794640948 25.142577702952327 12.283776297220472 1 rotate no_reflect no_shear #
lump $-1 $-1 $34 $7 #
transform $-1 1 0 0 0 1 0 0 0 1 47.068086794640948 25.142577702952327 12.283776297220472 1 rotate no_reflect no_shear #
lump $-1 $-1 $35 $8 #
transform $-1 1 0 0 0 1 0 0 0 1 47.068086794640948 25.142577702952327 12.283776297220472 1 rotate no_reflect no_shear #
shell $-1 $-1 $-1 $36 $-1 $9 #
shell $-1 $-1 $-1 $37 $-1 $11 #
shell $-1 $-1 $-1 $38 $-1 $13 #
shell $-1 $-1 $-1 $39 $-1 $15 #
shell $-1 $-1 $-1 $40 $-1 $17 #
shell $-1 $-1 $-1 $41 $-1 $19 #
shell $-1 $-1 $-1 $42 $-1 $21 #
shell $-1 $-1 $-1 $43 $-1 $23 #
shell $-1 $-1 $-1 $44 $-1 $25 #
face $-1 $45 $46 $27 $-1 $47 forward single #
face $-1 $48 $49 $28 $-1 $50 forward single #
face $-1 $51 $52 $29 $-1 $53 forward single #
face $-1 $54 $55 $30 $-1 $56 reversed single #
face $-1 $57 $58 $31 $-1 $59 forward single #
face $-1 $60 $61 $32 $-1 $62 forward single #
face $-1 $63 $64 $33 $-1 $65 reversed single #
face $-1 $66 $67 $34 $-1 $68 forward single #
face $-1 $69 $70 $35 $-1 $71 forward single #
face $-1 $72 $73 $27 $-1 $74 reversed single #
loop $-1 $-1 $75 $36 #
plane-surface $-1 0 0 12.283776297220472 0 0 1 1 0 0 forward_v I I I I #
face $-1 $76 $77 $28 $-1 $78 reversed single #
loop $-1 $-1 $79 $37 #
plane-surface $-1 0 -19.586211101114841 6.3584475840703814 0 0 1 1 0 0 forward_v I I I I #
face $-1 $80 $81 $29 $-1 $82 reversed single #
loop $-1 $-1 $83 $38 #
plane-surface $-1 0 19.586211101114838 6.3584475840703814 0 0 1 1 0 0 forward_v I I I I #
face $-1 $84 $85 $30 $-1 $86 reversed single #
loop $-1 $-1 $87 $39 #
plane-surface $-1 77.015519680154284 -10.58522219573854 132.97030162926583 0 1 0 0.84804810408105047 0 0.52991925155115449 forward_v I I I I #
face $-1 $88 $89 $31 $-1 $90 forward single #
loop $-1 $91 $92 $40 #
cone-surface $-1 42.914061835494216 -8.4184927966244878 6.9359730986900274 -0.84804810408105047 0 -0.52991925155115449 0.52991925155115449 0 -0.84804810408105047 1 I I 0 1 1 forward I I I I #
face $-1 $93 $94 $32 $-1 $95 forward single #
loop $-1 $96 $97 $41 #
cone-surface $-1 42.914061835494216 -5.168398697953414 6.9359730986900274 -0.84804810408105047 0 -0.52991925155115449 0.52991925155115449 0 -0.84804810408105047 1 I I 0 1 1 forward I I I I #
face $-1 $98 $99 $33 $-1 $100 reversed single #
loop $-1 $-1 $101 $42 #
plane-surface $-1 -105.02410303492776 14.029844499277353 80.835101449872568 0 -1 0 0.61566148304635926 0 -0.78801074757464917 forward_v I I I I #
face $-1 $102 $103 $34 $-1 $104 forward single #
loop $-1 $105 $106 $43 #
cone-surface $-1 -43.157865924206781 9.5326665528534598 9.0752752378057018 0.61566148304635926 0 -0.78801074757464917 0.19700268689366229 0 0.15391537076158981 1 I I 0 1 0.25 forward I I I I #
face $-1 $107 $108 $35 $-1 $109 forward single #
loop $-1 $110 $111 $44 #
cone-surface $-1 -43.157865924206781 12.230973320707793 9.0752752378057018 0.61566148304635926 0 -0.78801074757464917 0.19700268689366229 0 0.15391537076158981 1 I I 0 1 0.25 forward I I I I #
face $-1 $112 $113 $27 $-1 $114 reversed single #
loop $-1 $-1 $115 $45 #
plane-surface $-1 0 0 -12.283776297220472 0 0 1 1 0 0 forward_v I I I I #
coedge $-1 $116 $117 $118 $119 forward $46 $-1 #
face $-1 $120 $121 $28 $-1 $122 reversed single #
loop $-1 $-1 $123 $48 #
plane-surface $-1 0 -19.586211101114841 0.32246375395023641 0 0 1 1 0 0 forward_v I I I I #
coedge $-1 $124 $125 $126 $127 reversed $49 $-1 #
face $-1 $128 $129 $29 $-1 $130 reversed single #
loop $-1 $-1 $131 $51 #
plane-surface $-1 0 19.586211101114838 0.32246375395023641 0 0 1 1 0 0 forward_v I I I I #
coedge $-1 $132 $133 $134 $135 reversed $52 $-1 #
face $-1 $136 $137 $30 $-1 $138 reversed single #
loop $-1 $-1 $139 $54 #
plane-surface $-1 -2.8164838576808791 -6.7934457472889527 83.085730976944006 0.84804810408105047 0 0.52991925155115449 0.52991925155115449 0 -0.84804810408105047 forward_v I I I I #
coedge $-1 $140 $141 $142 $143 reversed $55 $-1 #
face $-1 $-1 $144 $31 $-1 $145 forward single #
loop $-1 $146 $147 $57 #
cone-surface $-1 41.157313119262597 -8.4184927966244878 5.8382347034398219 -0.84804810408105047 0 -0.52991925155115449 0.26495962577557725 0 -0.42402405204052523 1 I I -0.70710678118654746 0.70710678118654746 0.5 forward I I I I #
loop $-1 $-1 $148 $40 #
coedge $-1 $92 $92 $149 $150 reversed $58 $-1 #
face $-1 $-1 $151 $32 $-1 $152 forward single #
loop $-1 $153 $154 $60 #
cone-surface $-1 41.157313119262597 -5.168398697953414 5.8382347034398219 -0.84804810408105047 0 -0.52991925155115449 0.26495962577557725 0 -0.42402405204052523 1 I I -0.70710678118654746 0.70710678118654746 0.5 forward I I I I #
loop $-1 $-1 $155 $41 #
coedge $-1 $97 $97 $156 $157 reversed $61 $-1 #
face $-1 $158 $159 $33 $-1 $160 reversed single #
loop $-1 $-1 $161 $63 #
plane-surface $-1 -47.068086794640955 10.881819936780627 6.6547849259656005 -0.61566148304635926 0 0.78801074757464917 0.78801074757464917 0 0.61566148304635926 forward_v I I I I #
coedge $-1 $162 $163 $164 $165 reversed $64 $-1 #
face $-1 $-1 $166 $34 $-1 $167 forward single #
loop $-1 $168 $169 $66 #
cone-surface $-1 -42.773077497302808 9.5326665528534598 8.5827685205715465 0.61566148304635926 0 -0.78801074757464917 0.098501343446831147 0 0.076957685380794907 1 I I -0.70710678118654746 0.70710678118654746 0.125 forward I I I I #
loop $-1 $-1 $170 $43 #
coedge $-1 $106 $106 $171 $172 reversed $67 $-1 #
face $-1 $-1 $173 $35 $-1 $174 forward single #
loop $-1 $175 $176 $69 #
cone-surface $-1 -42.773077497302808 12.230973320707793 8.5827685205715465 0.61566148304635926 0 -0.78801074757464917 0.098501343446831147 0 0.076957685380794907 1 I I -0.70710678118654746 0.70710678118654746 0.125 forward I I I I #
loop $-1 $-1 $177 $44 #
coedge $-1 $111 $111 $178 $179 reversed $70 $-1 #
face $-1 $180 $181 $27 $-1 $182 reversed single #
loop $-1 $-1 $183 $72 #
plane-surface $-1 0 -25.142577702952327 0 0 1 0 0 0 1 forward_v I I I I #
coedge $-1 $184 $185 $186 $187 forward $73 $-1 #
coedge $-1 $188 $75 $189 $190 forward $46 $-1 #
coedge $-1 $75 $188 $191 $192 forward $46 $-1 #
coedge $-1 $193 $194 $75 $119 reversed $195 $-1 #
edge $-1 $196 -25.142577702952327 $197 25.142577702952327 $118 $198 forward 7 unknown #
face $-1 $199 $200 $28 $-1 $201 reversed single #
loop $-1 $-1 $202 $76 #
plane-surface $-1 0 -14.029844499277356 3.3404556690103089 0 -1 0 0 0 -1 forward_v I I I I #
coedge $-1 $203 $204 $205 $206 reversed $77 $-1 #
coedge $-1 $207 $79 $208 $209 forward $49 $-1 #
coedge $-1 $79 $207 $210 $211 reversed $49 $-1 #
coedge $-1 $212 $213 $79 $127 forward $214 $-1 #
edge $-1 $215 4.2367389487199354 $216 15.349472152394906 $126 $217 forward 7 unknown #
face $-1 $218 $219 $29 $-1 $220 reversed single #
loop $-1 $-1 $221 $80 #
plane-surface $-1 0 14.029844499277353 3.3404556690103089 0 1 0 0 0 1 forward_v I I I I #
coedge $-1 $222 $223 $224 $225 reversed $81 $-1 #
coedge $-1 $226 $83 $227 $228 reversed $52 $-1 #
coedge $-1 $83 $226 $229 $230 forward $52 $-1 #
coedge $-1 $231 $232 $83 $135 forward $219 $-1 #
edge $-1 $233 -15.349472152394904 $234 -4.2367389487199336 $134 $235 forward 7 unknown #
face $-1 $236 $237 $30 $-1 $238 forward single #
loop $-1 $-1 $239 $84 #
plane-surface $-1 77.015519680154284 -3.0016692988393654 132.97030162926583 0 -1 0 -0.84804810408105047 0 -0.52991925155115449 forward_v I I I I #
coedge $-1 $240 $241 $242 $243 reversed $85 $-1 #
coedge $-1 $141 $87 $244 $245 reversed $55 $-1 #
coedge $-1 $87 $140 $240 $246 reversed $55 $-1 #
coedge $-1 $242 $247 $87 $143 forward $248 $-1 #
edge $-1 $249 54.201374517412447 $250 63.231423375524088 $142 $251 forward 7 unknown #
loop $-1 $-1 $149 $88 #
plane-surface $-1 -2.8164838576808791 -6.7934457472889527 83.085730976944006 0.84804810408105047 0 0.52991925155115449 0.52991925155115449 0 -0.84804810408105047 forward_v I I I I #
loop $-1 $-1 $252 $57 #
coedge $-1 $147 $147 $148 $253 reversed $89 $-1 #
coedge $-1 $148 $148 $147 $253 forward $91 $-1 #
coedge $-1 $149 $149 $92 $150 forward $144 $-1 #
edge $-1 $254 0 $254 6.2831853071796004 $149 $255 forward 7 unknown #
loop $-1 $-1 $156 $93 #
plane-surface $-1 -2.8164838576808791 -6.7934457472889527 83.085730976944006 0.84804810408105047 0 0.52991925155115449 0.52991925155115449 0 -0.84804810408105047 forward_v I I I I #
loop $-1 $-1 $256 $60 #
coedge $-1 $154 $154 $155 $257 reversed $94 $-1 #
coedge $-1 $155 $155 $154 $257 forward $96 $-1 #
coedge $-1 $156 $156 $97 $157 forward $151 $-1 #
edge $-1 $258 0 $258 6.2831853071796004 $156 $259 forward 7 unknown #
face $-1 $260 $261 $33 $-1 $262 reversed single #
loop $-1 $-1 $263 $98 #
plane-surface $-1 -105.02410303492776 7.7337953742839005 80.835101449872568 0 1 0 -0.61566148304635926 0 0.78801074757464917 forward_v I I I I #
coedge $-1 $264 $265 $266 $267 reversed $99 $-1 #
coedge $-1 $163 $101 $268 $269 reversed $64 $-1 #
coedge $-1 $101 $162 $264 $270 reversed $64 $-1 #
coedge $-1 $266 $271 $101 $165 forward $261 $-1 #
edge $-1 $272 28.133774427715814 $273 33.762765798970676 $164 $274 forward 7 unknown #
loop $-1 $-1 $171 $102 #
plane-surface $-1 -47.068086794640955 10.881819936780627 6.6547849259656005 -0.61566148304635926 0 0.78801074757464917 0.78801074757464917 0 0.61566148304635926 forward_v I I I I #
loop $-1 $-1 $275 $66 #
coedge $-1 $169 $169 $170 $276 reversed $103 $-1 #
coedge $-1 $170 $170 $169 $276 forward $105 $-1 #
coedge $-1 $171 $171 $106 $172 forward $166 $-1 #
edge $-1 $277 0 $277 6.2831853071796004 $171 $278 forward 7 unknown #
loop $-1 $-1 $178 $107 #
plane-surface $-1 -47.068086794640955 10.881819936780627 6.6547849259656005 -0.61566148304635926 0 0.78801074757464917 0.78801074757464917 0 0.61566148304635926 forward_v I I I I #
loop $-1 $-1 $279 $69 #
coedge $-1 $176 $176 $177 $280 reversed $108 $-1 #
coedge $-1 $177 $177 $176 $280 forward $110 $-1 #
coedge $-1 $178 $178 $111 $179 forward $173 $-1 #
edge $-1 $281 0 $281 6.2831853071796004 $178 $282 forward 7 unknown #
face $-1 $283 $284 $27 $-1 $285 reversed single #
loop $-1 $-1 $286 $112 #
plane-surface $-1 -47.068086794640948 0 0 1 0 0 0 0 -1 forward_v I I I I #
coedge $-1 $287 $191 $288 $289 forward $113 $-1 #
coedge $-1 $290 $115 $287 $291 forward $73 $-1 #
coedge $-1 $115 $290 $292 $293 forward $73 $-1 #
coedge $-1 $194 $193 $115 $187 reversed $195 $-1 #
edge $-1 $294 -25.142577702952327 $295 25.142577702952327 $186 $296 forward 7 unknown #
coedge $-1 $117 $116 $297 $298 forward $46 $-1 #
coedge $-1 $299 $300 $116 $190 reversed $284 $-1 #
edge $-1 $197 -47.068086794640948 $301 47.068086794640948 $189 $302 forward 7 unknown #
coedge $-1 $183 $303 $117 $192 reversed $113 $-1 #
edge $-1 $304 -47.068086794640948 $196 47.068086794640948 $191 $305 forward 7 unknown #
coedge $-1 $186 $118 $303 $306 forward $195 $-1 #
coedge $-1 $118 $186 $299 $307 reversed $195 $-1 #
loop $-1 $-1 $193 $283 #
vertex $-1 $119 $308 #
vertex $-1 $119 $309 #
straight-curve $-1 47.068086794640948 0 12.283776297220472 0 1 0 I I #
face $-1 $310 $311 $28 $-1 $312 reversed single #
loop $-1 $-1 $313 $120 #
plane-surface $-1 -47.068086794640948 0 0 1 0 0 0 0 -1 forward_v I I I I #
coedge $-1 $314 $208 $213 $315 reversed $121 $-1 #
coedge $-1 $316 $123 $317 $318 reversed $77 $-1 #
coedge $-1 $123 $316 $314 $319 forward $77 $-1 #
coedge $-1 $213 $212 $123 $206 forward $214 $-1 #
edge $-1 $320 -15.349472152394906 $321 -4.2367389487199354 $205 $322 forward 7 unknown #
coedge $-1 $125 $124 $313 $323 reversed $49 $-1 #
coedge $-1 $202 $324 $124 $209 reversed $121 $-1 #
edge $-1 $215 -47.068086794640948 $325 47.068086794640948 $208 $326 forward 7 unknown #
coedge $-1 $327 $328 $125 $211 forward $311 $-1 #
edge $-1 $216 -47.068086794640948 $329 47.068086794640948 $210 $330 forward 7 unknown #
coedge $-1 $205 $126 $328 $331 forward $214 $-1 #
coedge $-1 $126 $205 $202 $315 forward $214 $-1 #
loop $-1 $-1 $126 $310 #
vertex $-1 $127 $332 #
vertex $-1 $331 $333 #
straight-curve $-1 47.068086794640948 -9.7931055505574207 6.3584475840703814 0 -1 0 I I #
face $-1 $334 $335 $29 $-1 $336 reversed single #
loop $-1 $-1 $134 $128 #
plane-surface $-1 47.068086794640948 0 0 -1 0 0 0 0 1 forward_v I I I I #
coedge $-1 $337 $229 $338 $339 reversed $129 $-1 #
coedge $-1 $340 $131 $337 $341 forward $81 $-1 #
coedge $-1 $131 $340 $342 $343 reversed $81 $-1 #
coedge $-1 $232 $231 $131 $225 forward $219 $-1 #
edge $-1 $344 4.2367389487199336 $345 15.349472152394904 $224 $346 forward 7 unknown #
coedge $-1 $133 $132 $347 $348 reversed $52 $-1 #
coedge $-1 $349 $350 $132 $228 forward $351 $-1 #
edge $-1 $352 -47.068086794640948 $233 47.068086794640948 $227 $353 forward 7 unknown #
coedge $-1 $221 $354 $133 $230 reversed $129 $-1 #
edge $-1 $355 -47.068086794640948 $234 47.068086794640948 $229 $356 forward 7 unknown #
coedge $-1 $224 $134 $354 $357 forward $219 $-1 #
coedge $-1 $134 $224 $349 $358 reversed $219 $-1 #
vertex $-1 $358 $359 #
vertex $-1 $135 $360 #
straight-curve $-1 47.068086794640948 9.7931055505574189 6.3584475840703814 0 -1 0 I I #
face $-1 $-1 $248 $30 $-1 $361 reversed single #
loop $-1 $-1 $362 $136 #
plane-surface $-1 0 0 12.283776297220472 0 0 1 1 0 0 forward_v I I I I #
coedge $-1 $363 $364 $365 $366 reversed $137 $-1 #
coedge $-1 $367 $139 $141 $246 forward $85 $-1 #
coedge $-1 $139 $367 $363 $368 forward $85 $-1 #
coedge $-1 $365 $142 $139 $243 forward $248 $-1 #
edge $-1 $250 -7.1884993220940636 $369 0.39505357480511094 $242 $370 forward 7 unknown #
coedge $-1 $371 $372 $140 $245 forward $237 $-1 #
edge $-1 $373 2.9177263646525304 $249 8.5603269545638057 $244 $374 forward 7 unknown #
edge $-1 $250 -94.13617358928191 $373 -83.488135093993179 $141 $375 forward 7 unknown #
coedge $-1 $142 $365 $371 $376 reversed $248 $-1 #
loop $-1 $-1 $365 $236 #
vertex $-1 $376 $377 #
vertex $-1 $143 $378 #
straight-curve $-1 47.068086794640948 -10.58522219573854 66.485150814632917 0 0 -1 I I #
coedge $-1 $252 $252 $-1 $379 reversed $146 $-1 #
edge $-1 $380 0 $380 6.2831853071796004 $147 $381 forward 7 unknown #
vertex $-1 $150 $382 #
ellipse-curve $-1 44.246786499685307 -8.4184927966244878 7.7687518681646512 0.84804810408105047 0 0.52991925155115449 0.52991925155115449 0 -0.84804810408105047 1 I I #
coedge $-1 $256 $256 $-1 $383 reversed $153 $-1 #
edge $-1 $384 0 $384 6.2831853071796004 $154 $385 forward 7 unknown #
vertex $-1 $157 $386 #
ellipse-curve $-1 44.246786499685307 -5.168398697953414 7.7687518681646512 0.84804810408105047 0 0.52991925155115449 0.52991925155115449 0 -0.84804810408105047 1 I I #
face $-1 $-1 $387 $33 $-1 $388 forward single #
loop $-1 $-1 $164 $158 #
plane-surface $-1 -47.068086794640948 0 0 1 0 0 0 0 -1 forward_v I I I I #
coedge $-1 $389 $390 $391 $392 reversed $159 $-1 #
coedge $-1 $393 $161 $163 $270 forward $99 $-1 #
coedge $-1 $161 $393 $389 $394 forward $99 $-1 #
coedge $-1 $391 $164 $161 $267 forward $261 $-1 #
edge $-1 $273 -8.5889345308870393 $395 -2.2928854058935872 $266 $396 forward 7 unknown #
coedge $-1 $397 $398 $162 $269 forward $387 $-1 #
edge $-1 $399 -12.648744980644892 $272 -5.4439647228229333 $268 $400 forward 7 unknown #
edge $-1 $273 8.8800565823946346e-015 $399 9.1429974527592943 $163 $401 forward 7 unknown #
coedge $-1 $164 $391 $397 $402 reversed $261 $-1 #
vertex $-1 $402 $403 #
vertex $-1 $165 $404 #
straight-curve $-1 -47.068086794640948 14.029844499277353 40.417550724936284 0 0 -1 I I #
coedge $-1 $275 $275 $-1 $405 reversed $168 $-1 #
edge $-1 $406 0 $406 6.2831853071796004 $169 $407 forward 7 unknown #
vertex $-1 $172 $408 #
ellipse-curve $-1 -43.465696665729972 9.5326665528534598 9.4692806115930388 -0.61566148304635926 0 0.78801074757464917 0.19700268689366229 0 0.15391537076158981 1 I I #
coedge $-1 $279 $279 $-1 $409 reversed $175 $-1 #
edge $-1 $410 0 $410 6.2831853071796004 $176 $411 forward 7 unknown #
vertex $-1 $179 $412 #
ellipse-curve $-1 -43.465696665729972 12.230973320707793 9.4692806115930388 -0.61566148304635926 0 0.78801074757464917 0.19700268689366229 0 0.15391537076158981 1 I I #
face $-1 $-1 $195 $27 $-1 $413 reversed single #
loop $-1 $-1 $299 $180 #
plane-surface $-1 0 25.142577702952327 0 0 -1 0 0 0 -1 forward_v I I I I #
coedge $-1 $414 $297 $300 $415 forward $181 $-1 #
coedge $-1 $303 $183 $184 $291 reversed $113 $-1 #
coedge $-1 $297 $414 $183 $289 reversed $181 $-1 #
edge $-1 $304 -12.283776297220472 $416 12.283776297220472 $288 $417 forward 7 unknown #
coedge $-1 $185 $184 $414 $418 forward $73 $-1 #
edge $-1 $295 -47.068086794640948 $416 47.068086794640948 $287 $419 forward 7 unknown #
coedge $-1 $300 $299 $185 $293 reversed $284 $-1 #
edge $-1 $420 -47.068086794640948 $294 47.068086794640948 $292 $421 forward 7 unknown #
vertex $-1 $187 $422 #
vertex $-1 $306 $423 #
straight-curve $-1 47.068086794640948 0 -12.283776297220472 0 -1 0 I I #
coedge $-1 $286 $288 $188 $298 reversed $181 $-1 #
edge $-1 $301 -25.142577702952327 $304 25.142577702952327 $297 $424 forward 7 unknown #
coedge $-1 $292 $189 $194 $307 forward $284 $-1 #
coedge $-1 $189 $292 $286 $415 reversed $284 $-1 #
vertex $-1 $190 $425 #
straight-curve $-1 0 25.142577702952327 12.283776297220472 -1 0 0 I I #
coedge $-1 $191 $287 $193 $306 reversed $113 $-1 #
vertex $-1 $298 $426 #
straight-curve $-1 0 -25.142577702952327 12.283776297220472 1 0 0 I I #
edge $-1 $196 -12.283776297220472 $295 12.283776297220472 $193 $427 forward 7 unknown #
edge $-1 $197 -12.283776297220472 $294 12.283776297220472 $194 $428 forward 7 unknown #
point $-1 47.068086794640948 -25.142577702952327 12.283776297220472 #
point $-1 47.068086794640948 25.142577702952327 12.283776297220472 #
face $-1 $-1 $214 $28 $-1 $429 reversed single #
loop $-1 $-1 $210 $199 #
plane-surface $-1 0 -25.142577702952327 0 0 1 0 0 0 1 forward_v I I I I #
coedge $-1 $430 $431 $207 $323 forward $200 $-1 #
coedge $-1 $324 $202 $204 $319 reversed $121 $-1 #
edge $-1 $321 -1.347764080554918 $215 4.6882197495652269 $213 $432 forward 7 unknown #
coedge $-1 $204 $203 $433 $434 reversed $77 $-1 #
coedge $-1 $328 $327 $203 $318 forward $311 $-1 #
edge $-1 $435 -47.068086794640948 $320 47.068086794640948 $317 $436 forward 7 unknown #
edge $-1 $437 -47.068086794640948 $321 47.068086794640948 $314 $438 forward 7 unknown #
vertex $-1 $318 $439 #
vertex $-1 $206 $440 #
straight-curve $-1 47.068086794640948 -9.7931055505574207 0.32246375395023641 0 1 0 I I #
edge $-1 $329 -15.349472152394906 $325 -4.2367389487199354 $313 $441 forward 7 unknown #
coedge $-1 $208 $314 $430 $442 reversed $121 $-1 #
vertex $-1 $323 $443 #
straight-curve $-1 0 -14.029844499277356 6.3584475840703814 -1 0 0 I I #
coedge $-1 $317 $210 $431 $444 forward $311 $-1 #
coedge $-1 $210 $317 $212 $331 reversed $311 $-1 #
vertex $-1 $444 $445 #
straight-curve $-1 0 -25.142577702952327 6.3584475840703814 -1 0 0 I I #
edge $-1 $216 -6.3584475840703814 $320 -0.32246375395023641 $212 $446 forward 7 unknown #
point $-1 47.068086794640948 -14.029844499277356 6.3584475840703814 #
point $-1 47.068086794640948 -25.142577702952327 6.3584475840703814 #
face $-1 $-1 $351 $29 $-1 $447 reversed single #
loop $-1 $-1 $347 $218 #
plane-surface $-1 -47.068086794640948 0 0 1 0 0 0 0 -1 forward_v I I I I #
coedge $-1 $354 $221 $222 $341 reversed $129 $-1 #
coedge $-1 $347 $448 $221 $339 forward $335 $-1 #
edge $-1 $449 -1.347764080554918 $355 4.6882197495652269 $338 $450 forward 7 unknown #
coedge $-1 $223 $222 $448 $451 reversed $81 $-1 #
edge $-1 $344 -47.068086794640948 $449 47.068086794640948 $337 $452 forward 7 unknown #
coedge $-1 $350 $349 $223 $343 forward $351 $-1 #
edge $-1 $345 -47.068086794640948 $453 47.068086794640948 $342 $454 forward 7 unknown #
vertex $-1 $225 $455 #
vertex $-1 $343 $456 #
straight-curve $-1 47.068086794640948 9.7931055505574189 0.32246375395023641 0 1 0 I I #
coedge $-1 $457 $338 $226 $348 forward $335 $-1 #
edge $-1 $355 4.2367389487199336 $352 15.349472152394904 $347 $458 forward 7 unknown #
coedge $-1 $342 $227 $232 $358 forward $351 $-1 #
coedge $-1 $227 $342 $457 $459 reversed $351 $-1 #
loop $-1 $-1 $227 $334 #
vertex $-1 $459 $460 #
straight-curve $-1 0 25.142577702952327 6.3584475840703814 1 0 0 I I #
coedge $-1 $229 $337 $231 $357 reversed $129 $-1 #
vertex $-1 $348 $461 #
straight-curve $-1 0 14.029844499277353 6.3584475840703814 1 0 0 I I #
edge $-1 $234 -4.6882197495652269 $344 1.347764080554918 $231 $462 forward 7 unknown #
edge $-1 $233 -6.3584475840703814 $345 -0.32246375395023641 $232 $463 forward 7 unknown #
point $-1 47.068086794640948 25.142577702952323 6.3584475840703814 #
point $-1 47.068086794640948 14.029844499277353 6.3584475840703814 #
plane-surface $-1 47.068086794640948 0 0 -1 0 0 0 0 1 forward_v I I I I #
coedge $-1 $372 $371 $364 $464 forward $237 $-1 #
coedge $-1 $364 $239 $241 $368 reversed $137 $-1 #
coedge $-1 $239 $363 $362 $464 reversed $137 $-1 #
coedge $-1 $247 $242 $239 $366 forward $248 $-1 #
edge $-1 $369 -63.231423375524088 $465 -54.201374517412447 $365 $466 forward 7 unknown #
coedge $-1 $241 $240 $372 $467 reversed $85 $-1 #
edge $-1 $468 83.488135093993179 $369 94.13617358928191 $363 $469 forward 7 unknown #
vertex $-1 $243 $470 #
straight-curve $-1 47.068086794640948 -3.3967228736444763 3.2537274391088289 0 1 0 I I #
coedge $-1 $362 $244 $247 $376 forward $237 $-1 #
coedge $-1 $244 $362 $367 $467 forward $237 $-1 #
vertex $-1 $245 $471 #
straight-curve $-1 38.507759840077142 -10.58522219573854 12.28377629722047 1 0 0 I I #
straight-curve $-1 -2.8164838576808791 -10.58522219573854 83.085730976944006 -0.52991925155115449 0 0.84804810408105047 I I #
edge $-1 $249 -10.58522219573854 $465 -3.0016692988393654 $247 $472 forward 7 unknown #
point $-1 47.068086794640948 -10.58522219573854 12.283776297220472 #
point $-1 47.068086794640948 -10.58522219573854 3.2537274391088289 #
edge $-1 $473 1 $473 0 $252 $-1 forward 7 unknown #
vertex $-1 $253 $474 #
ellipse-curve $-1 41.581337171303119 -8.4184927966244878 6.1031943292153992 0.84804810408105047 0 0.52991925155115449 0.52991925155115449 0 -0.84804810408105047 1 I I #
point $-1 44.776705751236463 -8.4184927966244878 6.9207037640836049 #
edge $-1 $475 1 $475 0 $256 $-1 forward 7 unknown #
vertex $-1 $257 $476 #
ellipse-curve $-1 41.581337171303119 -5.168398697953414 6.1031943292153992 0.84804810408105047 0 0.52991925155115449 0.52991925155115449 0 -0.84804810408105047 1 I I #
point $-1 44.776705751236463 -5.168398697953414 6.9207037640836049 #
loop $-1 $-1 $268 $260 #
plane-surface $-1 0 0 12.283776297220472 0 0 1 1 0 0 forward_v I I I I #
coedge $-1 $390 $263 $265 $394 reversed $159 $-1 #
coedge $-1 $263 $389 $477 $478 reversed $159 $-1 #
coedge $-1 $271 $266 $263 $392 forward $261 $-1 #
edge $-1 $395 -33.762765798970676 $479 -28.133774427715814 $391 $480 forward 7 unknown #
coedge $-1 $265 $264 $398 $481 reversed $99 $-1 #
edge $-1 $482 -9.1429974527592943 $395 -8.8800565823946346e-015 $389 $483 forward 7 unknown #
vertex $-1 $267 $484 #
straight-curve $-1 -47.068086794640948 5.4409099683903133 6.654784925965604 0 -1 0 I I #
coedge $-1 $477 $268 $271 $402 forward $387 $-1 #
coedge $-1 $268 $477 $393 $481 forward $387 $-1 #
vertex $-1 $269 $485 #
straight-curve $-1 -52.512051517463881 14.029844499277353 12.28377629722047 -1 0 0 I I #
straight-curve $-1 -47.068086794640955 14.029844499277353 6.6547849259656005 0.78801074757464917 0 0.61566148304635926 I I #
edge $-1 $272 -14.029844499277353 $479 -7.7337953742839005 $271 $486 forward 7 unknown #
point $-1 -47.068086794640948 14.029844499277353 12.283776297220472 #
point $-1 -47.068086794640948 14.029844499277353 6.6547849259656058 #
edge $-1 $487 1 $487 0 $275 $-1 forward 7 unknown #
vertex $-1 $276 $488 #
ellipse-curve $-1 -42.850035182683605 9.5326665528534598 8.6812698640183772 -0.61566148304635926 0 0.78801074757464917 0.19700268689366229 0 0.15391537076158981 1 I I #
point $-1 -43.268693978836296 9.5326665528534598 9.6231959823546163 #
edge $-1 $489 1 $489 0 $279 $-1 forward 7 unknown #
vertex $-1 $280 $490 #
ellipse-curve $-1 -42.850035182683605 12.230973320707793 8.6812698640183772 -0.61566148304635926 0 0.78801074757464917 0.19700268689366229 0 0.15391537076158981 1 I I #
point $-1 -43.268693978836296 12.230973320707793 9.6231959823546163 #
plane-surface $-1 47.068086794640948 0 0 -1 0 0 0 0 1 forward_v I I I I #
coedge $-1 $288 $286 $290 $418 reversed $181 $-1 #
edge $-1 $301 -12.283776297220472 $420 12.283776297220472 $300 $491 forward 7 unknown #
vertex $-1 $418 $492 #
straight-curve $-1 -47.068086794640948 -25.142577702952327 0 0 0 -1 I I #
edge $-1 $416 -25.142577702952327 $420 25.142577702952327 $414 $493 forward 7 unknown #
straight-curve $-1 0 -25.142577702952327 -12.283776297220472 -1 0 0 I I #
vertex $-1 $293 $494 #
straight-curve $-1 0 25.142577702952327 -12.283776297220472 1 0 0 I I #
point $-1 47.068086794640948 25.142577702952327 -12.283776297220472 #
point $-1 47.068086794640948 -25.142577702952327 -12.283776297220472 #
straight-curve $-1 -47.068086794640948 0 12.283776297220472 0 -1 0 I I #
point $-1 -47.068086794640948 25.142577702952327 12.283776297220472 #
point $-1 -47.068086794640948 -25.142577702952327 12.283776297220472 #
straight-curve $-1 47.068086794640948 -25.142577702952327 0 0 0 -1 I I #
straight-curve $-1 47.068086794640948 25.142577702952327 0 0 0 -1 I I #
plane-surface $-1 47.068086794640948 0 0 -1 0 0 0 0 1 forward_v I I I I #
coedge $-1 $433 $313 $324 $442 forward $200 $-1 #
coedge $-1 $313 $433 $327 $444 reversed $200 $-1 #
straight-curve $-1 47.068086794640948 -14.029844499277356 1.6702278345051544 0 0 1 I I #
coedge $-1 $431 $430 $316 $434 forward $200 $-1 #
edge $-1 $437 4.2367389487199354 $435 15.349472152394906 $433 $495 forward 7 unknown #
vertex $-1 $318 $496 #
straight-curve $-1 0 -25.142577702952327 0.32246375395023641 1 0 0 I I #
vertex $-1 $434 $497 #
straight-curve $-1 0 -14.029844499277356 0.32246375395023641 1 0 0 I I #
point $-1 47.068086794640948 -25.142577702952327 0.32246375395023641 #
point $-1 47.068086794640948 -14.029844499277356 0.32246375395023641 #
straight-curve $-1 -47.068086794640948 -9.7931055505574207 6.3584475840703814 0 1 0 I I #
edge $-1 $325 -4.6882197495652269 $437 1.347764080554918 $430 $498 forward 7 unknown #
point $-1 -47.068086794640948 -14.029844499277356 6.3584475840703814 #
edge $-1 $329 -6.3584475840703814 $435 -0.32246375395023641 $431 $499 forward 7 unknown #
point $-1 -47.068086794640948 -25.142577702952327 6.3584475840703814 #
straight-curve $-1 47.068086794640948 -25.142577702952327 0 0 0 -1 I I #
plane-surface $-1 0 25.142577702952327 0 0 -1 0 0 0 -1 forward_v I I I I #
coedge $-1 $338 $457 $340 $451 forward $335 $-1 #
vertex $-1 $451 $500 #
straight-curve $-1 -47.068086794640948 14.029844499277353 1.6702278345051544 0 0 1 I I #
edge $-1 $453 -15.349472152394904 $449 -4.2367389487199336 $448 $501 forward 7 unknown #
straight-curve $-1 0 14.029844499277353 0.32246375395023641 -1 0 0 I I #
vertex $-1 $343 $502 #
straight-curve $-1 0 25.142577702952327 0.32246375395023641 -1 0 0 I I #
point $-1 47.068086794640948 14.029844499277353 0.32246375395023641 #
point $-1 47.068086794640948 25.142577702952323 0.32246375395023641 #
coedge $-1 $448 $347 $350 $459 forward $335 $-1 #
straight-curve $-1 -47.068086794640948 9.7931055505574189 6.3584475840703814 0 1 0 I I #
edge $-1 $352 -6.3584475840703814 $453 -0.32246375395023641 $350 $503 forward 7 unknown #
point $-1 -47.068086794640948 25.142577702952323 6.3584475840703814 #
point $-1 -47.068086794640948 14.029844499277353 6.3584475840703814 #
straight-curve $-1 47.068086794640948 14.029844499277353 1.6702278345051544 0 0 -1 I I #
straight-curve $-1 47.068086794640948 25.142577702952327 0 0 0 -1 I I #
edge $-1 $465 -8.5603269545638057 $468 -2.9177263646525304 $362 $504 forward 7 unknown #
vertex $-1 $464 $505 #
straight-curve $-1 47.068086794640948 -3.0016692988393654 66.485150814632917 0 0 1 I I #
edge $-1 $468 -0.39505357480511094 $373 7.1884993220940636 $372 $506 forward 7 unknown #
vertex $-1 $467 $507 #
straight-curve $-1 -2.8164838576808791 -3.0016692988393654 83.085730976944006 0.52991925155115449 0 -0.84804810408105047 I I #
point $-1 47.068086794640948 -3.0016692988393654 3.2537274391088289 #
point $-1 41.425486204729673 -10.58522219573854 12.28377629722047 #
straight-curve $-1 47.068086794640948 0 12.283776297220472 0 1 0 I I #
vertex $-1 $379 $508 #
point $-1 42.111256422854275 -8.4184927966244878 5.2551462251343484 #
vertex $-1 $383 $509 #
point $-1 42.111256422854275 -5.168398697953414 5.2551462251343484 #
coedge $-1 $398 $397 $390 $478 forward $387 $-1 #
edge $-1 $479 5.4439647228229333 $482 12.648744980644892 $477 $510 forward 7 unknown #
vertex $-1 $478 $511 #
straight-curve $-1 -47.068086794640948 7.7337953742839005 40.417550724936284 0 0 1 I I #
edge $-1 $482 2.2928854058935872 $399 8.5889345308870393 $398 $512 forward 7 unknown #
vertex $-1 $481 $513 #
straight-curve $-1 -47.068086794640955 7.7337953742839005 6.6547849259656005 -0.78801074757464917 0 -0.61566148304635926 I I #
point $-1 -47.068086794640948 7.7337953742839005 6.6547849259656058 #
point $-1 -39.863306536818989 14.029844499277353 12.283776297220472 #
straight-curve $-1 -47.068086794640948 0 12.283776297220472 0 -1 0 I I #
vertex $-1 $405 $514 #
point $-1 -42.653032495789937 9.5326665528534598 8.8351852347799671 #
vertex $-1 $409 $515 #
point $-1 -42.653032495789937 12.230973320707793 8.8351852347799671 #
straight-curve $-1 -47.068086794640948 25.142577702952327 0 0 0 -1 I I #
point $-1 -47.068086794640948 -25.142577702952327 -12.283776297220472 #
straight-curve $-1 -47.068086794640948 0 -12.283776297220472 0 1 0 I I #
point $-1 -47.068086794640948 25.142577702952327 -12.283776297220472 #
straight-curve $-1 -47.068086794640948 -9.7931055505574207 0.32246375395023641 0 -1 0 I I #
point $-1 -47.068086794640948 -25.142577702952327 0.32246375395023641 #
point $-1 -47.068086794640948 -14.029844499277356 0.32246375395023641 #
straight-curve $-1 -47.068086794640948 -14.029844499277356 1.6702278345051544 0 0 -1 I I #
straight-curve $-1 -47.068086794640948 -25.142577702952327 0 0 0 -1 I I #
point $-1 -47.068086794640948 14.029844499277353 0.32246375395023641 #
straight-curve $-1 -47.068086794640948 9.7931055505574189 0.32246375395023641 0 -1 0 I I #
point $-1 -47.068086794640948 25.142577702952323 0.32246375395023641 #
straight-curve $-1 -47.068086794640948 25.142577702952327 0 0 0 -1 I I #
straight-curve $-1 38.507759840077142 -3.0016692988393654 12.28377629722047 -1 0 0 I I #
point $-1 47.068086794640948 -3.0016692988393654 12.283776297220472 #
straight-curve $-1 41.425486204729665 -3.3967228736444763 12.283776297220477 0 -1 0 I I #
point $-1 41.425486204729673 -3.0016692988393654 12.28377629722047 #
point $-1 40.733289067222074 -8.4184927966244878 5.5732750776642446 #
point $-1 40.733289067222074 -5.168398697953414 5.5732750776642446 #
straight-curve $-1 -52.512051517463881 7.7337953742839005 12.28377629722047 1 0 0 I I #
point $-1 -47.068086794640948 7.7337953742839005 12.283776297220472 #
straight-curve $-1 -39.863306536818989 5.4409099683903133 12.28377629722047 0 1 0 I I #
point $-1 -39.863306536818989 7.7337953742839005 12.283776297220472 #
point $-1 -42.69611981192201 9.5326665528534598 8.4842671771247158 #
point $-1 -42.69611981192201 12.230973320707793 8.4842671771247158 #
End-of-ACIS-data 