500 0 8 0           
7 Unknown 11 ACIS 5.0 NT 24 Fri Mar 26 15:46:58 1999 
-1 9.9999999999999995e-007 1e-010 
body $-1 $8 $-1 $9 #
body $-1 $10 $-1 $11 #
body $-1 $12 $-1 $13 #
body $-1 $14 $-1 $15 #
body $-1 $16 $-1 $17 #
body $-1 $18 $-1 $19 #
body $-1 $20 $-1 $21 #
body $-1 $22 $-1 $23 #
lump $-1 $-1 $24 $0 #
transform $-1 1 0 0 0 1 0 0 0 1 62.306588946195873 41.381866001140686 14.028815030380294 1 rotate no_reflect no_shear #
lump $-1 $-1 $25 $1 #
transform $-1 1 0 0 0 1 0 0 0 1 62.306588946195873 41.381866001140686 14.028815030380294 1 rotate no_reflect no_shear #
lump $-1 $-1 $26 $2 #
transform $-1 1 0 0 0 1 0 0 0 1 62.306588946195873 41.381866001140686 14.028815030380294 1 rotate no_reflect no_shear #
lump $-1 $-1 $27 $3 #
transform $-1 1 0 0 0 1 0 0 0 1 62.306588946195873 41.381866001140686 14.028815030380294 1 rotate no_reflect no_shear #
lump $-1 $-1 $28 $4 #
transform $-1 1 0 0 0 1 0 0 0 1 62.306588946195873 41.381866001140686 14.028815030380294 1 rotate no_reflect no_shear #
lump $-1 $-1 $29 $5 #
transform $-1 1 0 0 0 1 0 0 0 1 62.306588946195873 41.381866001140686 14.028815030380294 1 rotate no_reflect no_shear #
lump $-1 $-1 $30 $6 #
transform $-1 1 0 0 0 1 0 0 0 1 62.306588946195873 41.381866001140686 14.028815030380294 1 rotate no_reflect no_shear #
lump $-1 $-1 $31 $7 #
transform $-1 1 0 0 0 1 0 0 0 1 62.306588946195873 41.381866001140686 14.028815030380294 1 rotate no_reflect no_shear #
shell $-1 $-1 $-1 $32 $-1 $8 #
shell $-1 $-1 $-1 $33 $-1 $10 #
shell $-1 $-1 $-1 $34 $-1 $12 #
shell $-1 $-1 $-1 $35 $-1 $14 #
shell $-1 $-1 $-1 $36 $-1 $16 #
shell $-1 $-1 $-1 $37 $-1 $18 #
shell $-1 $-1 $-1 $38 $-1 $20 #
shell $-1 $-1 $-1 $39 $-1 $22 #
face $-1 $40 $41 $24 $-1 $42 reversed single #
face $-1 $43 $44 $25 $-1 $45 forward single #
face $-1 $46 $47 $26 $-1 $48 reversed single #
face $-1 $49 $50 $27 $-1 $51 forward single #
face $-1 $52 $53 $28 $-1 $54 forward single #
face $-1 $55 $56 $29 $-1 $57 reversed single #
face $-1 $58 $59 $30 $-1 $60 forward single #
face $-1 $61 $62 $31 $-1 $63 forward single #
face $-1 $64 $65 $24 $-1 $66 forward single #
loop $-1 $-1 $67 $32 #
plane-surface $-1 -62.306588946195873 0 0 1 0 0 0 0 -1 forward_v I I I I #
face $-1 $68 $69 $25 $-1 $70 reversed single #
loop $-1 $-1 $71 $33 #
plane-surface $-1 -62.306588946195873 0 0 1 0 0 0 0 -1 forward_v I I I I #
face $-1 $72 $73 $26 $-1 $74 reversed single #
loop $-1 $-1 $75 $34 #
plane-surface $-1 -27.140205663274052 -140.90237591065619 78.949267964546408 -1 0 0 0 -0.79863551827123203 0.60181501223851219 forward_v I I I I #
face $-1 $76 $77 $27 $-1 $78 forward single #
loop $-1 $79 $80 $35 #
cone-surface $-1 -43.986166855162431 -34.940939776331042 6.9985380401895592 0 0.79863551827123203 -0.60181501223851219 2 0 0 1 I I 0 1 2 forward I I I I #
face $-1 $81 $82 $28 $-1 $83 forward single #
loop $-1 $84 $85 $36 #
cone-surface $-1 -33.878590140029402 -34.940939776331042 6.9985380401895592 0 0.79863551827123203 -0.60181501223851219 2 0 0 1 I I 0 1 2 forward I I I I #
face $-1 $86 $87 $29 $-1 $88 reversed single #
loop $-1 $-1 $89 $37 #
plane-surface $-1 50.514416111873999 -41.381866001140679 3.9551867861567729 0 -0.79863551827123203 0.60181501223851219 1 0 0 forward_v I I I I #
face $-1 $90 $91 $30 $-1 $92 forward single #
loop $-1 $93 $94 $38 #
cone-surface $-1 45.460627754307481 -34.940939776331042 6.9985380401895592 0 0.79863551827123203 -0.60181501223851219 2 0 0 1 I I 0 1 2 forward I I I I #
face $-1 $95 $96 $31 $-1 $97 forward single #
loop $-1 $98 $99 $39 #
cone-surface $-1 55.568204469440516 -34.940939776331042 6.9985380401895592 0 0.79863551827123203 -0.60181501223851219 2 0 0 1 I I 0 1 2 forward I I I I #
face $-1 $100 $101 $24 $-1 $102 reversed single #
loop $-1 $-1 $103 $40 #
plane-surface $-1 0 0 14.028815030380294 0 0 1 1 0 0 forward_v I I I I #
coedge $-1 $104 $105 $106 $107 reversed $41 $-1 #
face $-1 $108 $109 $25 $-1 $110 reversed single #
loop $-1 $-1 $111 $43 #
plane-surface $-1 0 0 -14.028815030380294 0 0 1 1 0 0 forward_v I I I I #
coedge $-1 $112 $113 $114 $115 forward $44 $-1 #
face $-1 $116 $117 $26 $-1 $118 reversed single #
loop $-1 $-1 $119 $46 #
plane-surface $-1 -38.93237849759592 -41.381866001140679 3.9551867861567729 0 -0.79863551827123203 0.60181501223851219 1 0 0 forward_v I I I I #
coedge $-1 $120 $121 $122 $123 reversed $47 $-1 #
face $-1 $-1 $124 $27 $-1 $125 forward single #
loop $-1 $126 $127 $49 #
cone-surface $-1 -43.986166855162431 -31.496889606668994 4.403260159872076 0 0.79863551827123203 -0.60181501223851219 1 0 0 1 I I -0.70710678118654746 0.70710678118654746 1 forward I I I I #
loop $-1 $-1 $128 $35 #
coedge $-1 $80 $80 $129 $130 reversed $50 $-1 #
face $-1 $-1 $131 $28 $-1 $132 forward single #
loop $-1 $133 $134 $52 #
cone-surface $-1 -33.878590140029402 -31.496889606668994 4.403260159872076 0 0.79863551827123203 -0.60181501223851219 1 0 0 1 I I -0.70710678118654746 0.70710678118654746 1 forward I I I I #
loop $-1 $-1 $135 $36 #
coedge $-1 $85 $85 $136 $137 reversed $53 $-1 #
face $-1 $138 $139 $29 $-1 $140 reversed single #
loop $-1 $-1 $141 $55 #
plane-surface $-1 38.722243277552131 -140.90237591065619 78.949267964546408 1 0 0 0 0.79863551827123203 -0.60181501223851219 forward_v I I I I #
coedge $-1 $142 $143 $144 $145 reversed $56 $-1 #
face $-1 $-1 $146 $30 $-1 $147 forward single #
loop $-1 $148 $149 $58 #
cone-surface $-1 45.460627754307481 -31.496889606668994 4.403260159872076 0 0.79863551827123203 -0.60181501223851219 1 0 0 1 I I -0.70710678118654746 0.70710678118654746 1 forward I I I I #
loop $-1 $-1 $150 $38 #
coedge $-1 $94 $94 $151 $152 reversed $59 $-1 #
face $-1 $-1 $153 $31 $-1 $154 forward single #
loop $-1 $155 $156 $61 #
cone-surface $-1 55.568204469440516 -31.496889606668994 4.403260159872076 0 0.79863551827123203 -0.60181501223851219 1 0 0 1 I I -0.70710678118654746 0.70710678118654746 1 forward I I I I #
loop $-1 $-1 $157 $39 #
coedge $-1 $99 $99 $158 $159 reversed $62 $-1 #
face $-1 $160 $161 $24 $-1 $162 reversed single #
loop $-1 $-1 $163 $64 #
plane-surface $-1 0 0 -14.028815030380294 0 0 1 1 0 0 forward_v I I I I #
coedge $-1 $164 $165 $166 $167 forward $65 $-1 #
coedge $-1 $168 $67 $169 $170 reversed $41 $-1 #
coedge $-1 $67 $168 $171 $172 forward $41 $-1 #
coedge $-1 $173 $174 $67 $107 forward $101 $-1 #
edge $-1 $175 -41.381866001140686 $176 41.381866001140686 $67 $177 forward 7 unknown #
face $-1 $178 $179 $25 $-1 $180 reversed single #
loop $-1 $-1 $181 $68 #
plane-surface $-1 -68.097607753334913 -16.580058163349243 0 0 1 0 0 0 1 forward_v I I I I #
coedge $-1 $182 $183 $113 $184 forward $69 $-1 #
coedge $-1 $185 $71 $186 $187 reversed $44 $-1 #
coedge $-1 $71 $185 $111 $184 reversed $44 $-1 #
coedge $-1 $188 $189 $71 $115 reversed $190 $-1 #
edge $-1 $191 -14.028815030380294 $192 14.028815030380294 $114 $193 forward 7 unknown #
face $-1 $194 $195 $26 $-1 $196 forward single #
loop $-1 $-1 $197 $72 #
plane-surface $-1 -50.724551331917787 -140.90237591065619 78.949267964546408 1 0 0 0 0.79863551827123203 -0.60181501223851219 forward_v I I I I #
coedge $-1 $198 $199 $200 $201 reversed $73 $-1 #
coedge $-1 $121 $75 $202 $203 reversed $47 $-1 #
coedge $-1 $75 $120 $198 $204 reversed $47 $-1 #
coedge $-1 $200 $205 $75 $123 forward $195 $-1 #
edge $-1 $206 29.069321954187409 $207 36.660345101025058 $122 $208 forward 7 unknown #
loop $-1 $-1 $129 $76 #
plane-surface $-1 -38.93237849759592 -41.381866001140679 3.9551867861567729 0 -0.79863551827123203 0.60181501223851219 1 0 0 forward_v I I I I #
loop $-1 $-1 $209 $49 #
coedge $-1 $127 $127 $128 $210 reversed $77 $-1 #
coedge $-1 $128 $128 $127 $210 forward $79 $-1 #
coedge $-1 $129 $129 $80 $130 forward $124 $-1 #
edge $-1 $211 -2.1380764260872531e-015 $211 6.2831853071795987 $129 $212 forward 7 unknown #
loop $-1 $-1 $136 $81 #
plane-surface $-1 -38.93237849759592 -41.381866001140679 3.9551867861567729 0 -0.79863551827123203 0.60181501223851219 1 0 0 forward_v I I I I #
loop $-1 $-1 $213 $52 #
coedge $-1 $134 $134 $135 $214 reversed $82 $-1 #
coedge $-1 $135 $135 $134 $214 forward $84 $-1 #
coedge $-1 $136 $136 $85 $137 forward $131 $-1 #
edge $-1 $215 -2.1380764260872531e-015 $215 6.2831853071795987 $136 $216 forward 7 unknown #
face $-1 $217 $218 $29 $-1 $219 forward single #
loop $-1 $-1 $220 $86 #
plane-surface $-1 0 -41.381866001140686 0 0 1 0 0 0 1 forward_v I I I I #
coedge $-1 $221 $222 $223 $224 reversed $87 $-1 #
coedge $-1 $225 $89 $226 $227 reversed $56 $-1 #
coedge $-1 $89 $225 $221 $228 forward $56 $-1 #
coedge $-1 $223 $229 $89 $145 forward $218 $-1 #
edge $-1 $230 -37.049380890258867 $231 -13.465035221615132 $144 $232 forward 7 unknown #
loop $-1 $-1 $151 $90 #
plane-surface $-1 50.514416111873999 -41.381866001140679 3.9551867861567729 0 -0.79863551827123203 0.60181501223851219 1 0 0 forward_v I I I I #
loop $-1 $-1 $233 $58 #
coedge $-1 $149 $149 $150 $234 reversed $91 $-1 #
coedge $-1 $150 $150 $149 $234 forward $93 $-1 #
coedge $-1 $151 $151 $94 $152 forward $146 $-1 #
edge $-1 $235 -2.1380764260872531e-015 $235 6.2831853071795987 $151 $236 forward 7 unknown #
loop $-1 $-1 $158 $95 #
plane-surface $-1 50.514416111873999 -41.381866001140679 3.9551867861567729 0 -0.79863551827123203 0.60181501223851219 1 0 0 forward_v I I I I #
loop $-1 $-1 $237 $61 #
coedge $-1 $156 $156 $157 $238 reversed $96 $-1 #
coedge $-1 $157 $157 $156 $238 forward $98 $-1 #
coedge $-1 $158 $158 $99 $159 forward $153 $-1 #
edge $-1 $239 -2.1380764260872531e-015 $239 6.2831853071795987 $158 $240 forward 7 unknown #
face $-1 $241 $242 $24 $-1 $243 reversed single #
loop $-1 $-1 $169 $100 #
plane-surface $-1 0 -41.381866001140686 0 0 1 0 0 0 1 forward_v I I I I #
coedge $-1 $174 $173 $244 $245 forward $101 $-1 #
coedge $-1 $246 $103 $247 $248 forward $65 $-1 #
coedge $-1 $103 $246 $249 $250 forward $65 $-1 #
coedge $-1 $251 $252 $103 $167 reversed $253 $-1 #
edge $-1 $254 -41.381866001140686 $255 41.381866001140686 $166 $256 forward 7 unknown #
coedge $-1 $105 $104 $246 $257 reversed $41 $-1 #
coedge $-1 $258 $249 $104 $170 forward $161 $-1 #
edge $-1 $259 -14.028815030380294 $175 14.028815030380294 $104 $260 forward 7 unknown #
coedge $-1 $247 $261 $105 $172 reversed $242 $-1 #
edge $-1 $262 -14.028815030380294 $176 14.028815030380294 $171 $263 forward 7 unknown #
coedge $-1 $163 $106 $261 $264 forward $101 $-1 #
coedge $-1 $106 $163 $258 $265 forward $101 $-1 #
vertex $-1 $107 $266 #
vertex $-1 $264 $267 #
straight-curve $-1 -62.306588946195873 0 -14.028815030380294 0 1 0 I I #
face $-1 $268 $190 $25 $-1 $269 reversed single #
loop $-1 $-1 $270 $108 #
plane-surface $-1 -73.888626560473952 -14.952147051864671 0 1 0 0 0 0 -1 forward_v I I I I #
coedge $-1 $271 $272 $273 $274 forward $109 $-1 #
coedge $-1 $275 $111 $271 $276 forward $69 $-1 #
coedge $-1 $111 $275 $188 $277 forward $69 $-1 #
edge $-1 $191 13.324235940380099 $278 16.580058163349243 $111 $279 forward 7 unknown #
coedge $-1 $113 $112 $280 $281 forward $44 $-1 #
coedge $-1 $282 $283 $112 $187 forward $284 $-1 #
edge $-1 $285 -16.580058163349243 $192 -13.324235940380099 $186 $286 forward 7 unknown #
coedge $-1 $287 $114 $183 $277 reversed $190 $-1 #
coedge $-1 $114 $287 $282 $288 reversed $190 $-1 #
loop $-1 $-1 $114 $178 #
vertex $-1 $184 $289 #
vertex $-1 $288 $290 #
straight-curve $-1 -62.306588946195873 -13.324235940380099 0 0 0 1 I I #
face $-1 $-1 $291 $26 $-1 $292 reversed single #
loop $-1 $-1 $122 $116 #
plane-surface $-1 0 0 14.028815030380294 0 0 1 1 0 0 forward_v I I I I #
coedge $-1 $293 $294 $295 $296 reversed $117 $-1 #
coedge $-1 $297 $119 $121 $204 forward $73 $-1 #
coedge $-1 $119 $297 $293 $298 forward $73 $-1 #
coedge $-1 $295 $122 $119 $201 forward $195 $-1 #
edge $-1 $207 7.6740164144760925 $299 31.258362083119827 $200 $300 forward 7 unknown #
coedge $-1 $301 $302 $120 $203 forward $291 $-1 #
edge $-1 $303 -35.519447196116438 $206 -25.44581895189291 $202 $304 forward 7 unknown #
edge $-1 $207 -12.613549001714098 $303 1.1724126593787106e-014 $121 $305 forward 7 unknown #
coedge $-1 $122 $295 $301 $306 forward $195 $-1 #
vertex $-1 $123 $307 #
vertex $-1 $123 $308 #
straight-curve $-1 -27.140205663274052 -70.451187955328095 14.028815030380294 0 1 0 I I #
coedge $-1 $209 $209 $-1 $309 reversed $126 $-1 #
edge $-1 $310 0 $310 6.2831853071796004 $127 $311 forward 7 unknown #
vertex $-1 $130 $312 #
ellipse-curve $-1 -43.986166855162431 -37.586354427721858 8.9920009082685297 0 -0.79863551827123203 0.60181501223851219 2 0 0 1 I I #
coedge $-1 $213 $213 $-1 $313 reversed $133 $-1 #
edge $-1 $314 0 $314 6.2831853071796004 $134 $315 forward 7 unknown #
vertex $-1 $137 $316 #
ellipse-curve $-1 -33.878590140029402 -37.586354427721858 8.9920009082685297 0 -0.79863551827123203 0.60181501223851219 2 0 0 1 I I #
face $-1 $-1 $317 $29 $-1 $318 reversed single #
loop $-1 $-1 $223 $138 #
plane-surface $-1 0 0 14.028815030380294 0 0 1 1 0 0 forward_v I I I I #
coedge $-1 $319 $320 $222 $321 forward $139 $-1 #
coedge $-1 $222 $141 $143 $228 reversed $87 $-1 #
coedge $-1 $141 $221 $220 $321 reversed $87 $-1 #
coedge $-1 $322 $144 $141 $224 forward $218 $-1 #
edge $-1 $231 -36.660345101025058 $323 -29.069321954187409 $223 $324 forward 7 unknown #
coedge $-1 $143 $142 $319 $325 reversed $56 $-1 #
coedge $-1 $326 $327 $142 $227 forward $317 $-1 #
edge $-1 $328 -10.872737772553563 $230 1.740811229160546 $226 $329 forward 7 unknown #
edge $-1 $330 -1.1724126593787106e-014 $231 12.613549001714098 $221 $331 forward 7 unknown #
coedge $-1 $144 $322 $326 $332 forward $218 $-1 #
vertex $-1 $227 $333 #
vertex $-1 $145 $334 #
straight-curve $-1 25.257208055936999 -33.790842854303037 14.028815030380294 -1 0 0 I I #
coedge $-1 $233 $233 $-1 $335 reversed $148 $-1 #
edge $-1 $336 0 $336 6.2831853071796004 $149 $337 forward 7 unknown #
vertex $-1 $152 $338 #
ellipse-curve $-1 45.460627754307481 -37.586354427721858 8.9920009082685297 0 -0.79863551827123203 0.60181501223851219 2 0 0 1 I I #
coedge $-1 $237 $237 $-1 $339 reversed $155 $-1 #
edge $-1 $340 0 $340 6.2831853071796004 $156 $341 forward 7 unknown #
vertex $-1 $159 $342 #
ellipse-curve $-1 55.568204469440516 -37.586354427721858 8.9920009082685297 0 -0.79863551827123203 0.60181501223851219 2 0 0 1 I I #
face $-1 $-1 $253 $24 $-1 $343 reversed single #
loop $-1 $-1 $344 $160 #
plane-surface $-1 0 41.381866001140686 0 0 -1 0 0 0 -1 forward_v I I I I #
coedge $-1 $252 $251 $163 $245 reversed $253 $-1 #
edge $-1 $345 -41.381866001140686 $346 41.381866001140686 $244 $347 forward 7 unknown #
coedge $-1 $165 $164 $168 $257 forward $65 $-1 #
coedge $-1 $344 $171 $164 $248 reversed $242 $-1 #
edge $-1 $255 -62.306588946195873 $262 62.306588946195873 $247 $348 forward 7 unknown #
coedge $-1 $169 $349 $165 $250 reversed $161 $-1 #
edge $-1 $259 -62.306588946195873 $254 62.306588946195873 $249 $350 forward 7 unknown #
coedge $-1 $244 $166 $349 $351 forward $253 $-1 #
coedge $-1 $166 $244 $344 $352 reversed $253 $-1 #
loop $-1 $-1 $251 $241 #
vertex $-1 $167 $353 #
vertex $-1 $167 $354 #
straight-curve $-1 62.306588946195873 0 14.028815030380294 0 1 0 I I #
edge $-1 $262 -41.381866001140686 $259 41.381866001140686 $168 $355 forward 7 unknown #
coedge $-1 $349 $169 $174 $265 reversed $161 $-1 #
vertex $-1 $257 $356 #
straight-curve $-1 -62.306588946195873 -41.381866001140686 0 0 0 -1 I I #
coedge $-1 $171 $344 $173 $264 reversed $242 $-1 #
vertex $-1 $248 $357 #
straight-curve $-1 -62.306588946195873 41.381866001140686 0 0 0 -1 I I #
edge $-1 $176 -62.306588946195873 $345 62.306588946195873 $261 $358 forward 7 unknown #
edge $-1 $346 -62.306588946195873 $175 62.306588946195873 $258 $359 forward 7 unknown #
point $-1 -62.306588946195873 -41.381866001140686 -14.028815030380294 #
point $-1 -62.306588946195873 41.381866001140686 -14.028815030380294 #
face $-1 $-1 $284 $25 $-1 $360 forward single #
plane-surface $-1 -68.097607753334913 -13.324235940380099 0 0 -1 0 0 0 -1 forward_v I I I I #
coedge $-1 $361 $362 $287 $363 forward $179 $-1 #
coedge $-1 $280 $181 $182 $276 reversed $109 $-1 #
coedge $-1 $181 $280 $283 $364 reversed $109 $-1 #
coedge $-1 $362 $361 $181 $274 reversed $179 $-1 #
edge $-1 $365 -14.028815030380294 $366 14.028815030380294 $273 $367 forward 7 unknown #
coedge $-1 $183 $182 $361 $368 forward $69 $-1 #
edge $-1 $278 -5.7910188071390465 $366 5.7910188071390394 $271 $369 forward 7 unknown #
edge $-1 $370 -5.7910188071390394 $191 5.7910188071390465 $188 $371 forward 7 unknown #
vertex $-1 $276 $372 #
straight-curve $-1 -62.306588946195873 0 -14.028815030380294 0 -1 0 I I #
coedge $-1 $272 $271 $185 $281 reversed $109 $-1 #
edge $-1 $285 -14.028815030380294 $278 14.028815030380294 $280 $373 forward 7 unknown #
coedge $-1 $374 $186 $189 $288 forward $284 $-1 #
coedge $-1 $186 $374 $272 $364 forward $284 $-1 #
loop $-1 $-1 $186 $268 #
vertex $-1 $187 $375 #
straight-curve $-1 -62.306588946195873 0 14.028815030380294 0 1 0 I I #
coedge $-1 $189 $188 $270 $363 reversed $190 $-1 #
edge $-1 $192 -5.7910188071390465 $376 5.7910188071390394 $189 $377 forward 7 unknown #
point $-1 -62.306588946195866 -13.324235940380099 -14.028815030380294 #
point $-1 -62.306588946195866 -13.324235940380099 14.028815030380294 #
loop $-1 $-1 $202 $194 #
plane-surface $-1 0 -41.381866001140686 0 0 1 0 0 0 1 forward_v I I I I #
coedge $-1 $294 $197 $199 $298 reversed $117 $-1 #
coedge $-1 $197 $293 $378 $379 reversed $117 $-1 #
coedge $-1 $205 $200 $197 $296 forward $195 $-1 #
edge $-1 $299 -36.660345101025058 $380 -29.069321954187409 $295 $381 forward 7 unknown #
coedge $-1 $199 $198 $302 $382 reversed $73 $-1 #
edge $-1 $383 -1.1724126593787106e-014 $299 12.613549001714098 $293 $384 forward 7 unknown #
vertex $-1 $201 $385 #
straight-curve $-1 -19.46618924879796 -33.790842854303037 14.028815030380294 -1 0 0 I I #
coedge $-1 $378 $202 $205 $306 reversed $291 $-1 #
coedge $-1 $202 $378 $297 $382 forward $291 $-1 #
vertex $-1 $203 $386 #
straight-curve $-1 -27.140205663274052 -41.381866001140686 39.474633982273204 0 0 1 I I #
straight-curve $-1 -27.140205663274052 -41.381866001140679 3.9551867861567729 0 -0.60181501223851219 -0.79863551827123203 I I #
edge $-1 $380 -50.724551331917787 $206 -27.140205663274052 $301 $387 forward 7 unknown #
point $-1 -27.140205663274052 -41.381866001140686 14.028815030380294 #
point $-1 -27.140205663274052 -33.790842854303037 14.028815030380294 #
edge $-1 $388 1 $388 0 $209 $-1 forward 7 unknown #
vertex $-1 $210 $389 #
ellipse-curve $-1 -43.986166855162431 -32.295525124940227 5.0050751721105886 0 -0.79863551827123203 0.60181501223851219 2 0 0 1 I I #
point $-1 -41.986166855162431 -37.586354427721865 8.9920009082685297 #
edge $-1 $390 1 $390 0 $213 $-1 forward 7 unknown #
vertex $-1 $214 $391 #
ellipse-curve $-1 -33.878590140029402 -32.295525124940227 5.0050751721105886 0 -0.79863551827123203 0.60181501223851219 2 0 0 1 I I #
point $-1 -31.878590140029402 -37.586354427721865 8.9920009082685297 #
loop $-1 $-1 $226 $217 #
plane-surface $-1 62.306588946195873 0 0 -1 0 0 0 0 1 forward_v I I I I #
coedge $-1 $392 $220 $225 $325 forward $139 $-1 #
coedge $-1 $220 $392 $322 $393 reversed $139 $-1 #
edge $-1 $323 25.44581895189291 $330 35.519447196116438 $220 $394 forward 7 unknown #
coedge $-1 $229 $223 $320 $393 forward $218 $-1 #
vertex $-1 $393 $395 #
straight-curve $-1 38.722243277552131 -70.451187955328095 14.028815030380294 0 -1 0 I I #
edge $-1 $330 13.465035221615132 $328 37.049380890258867 $319 $396 forward 7 unknown #
coedge $-1 $327 $226 $229 $332 reversed $317 $-1 #
coedge $-1 $226 $326 $392 $397 forward $317 $-1 #
vertex $-1 $325 $398 #
straight-curve $-1 62.306588946195873 -34.83848918548523 12.63854135216728 0 0.60181501223851219 0.79863551827123203 I I #
vertex $-1 $325 $399 #
straight-curve $-1 38.722243277552131 -41.381866001140679 3.9551867861567729 0 0.60181501223851219 0.79863551827123203 I I #
edge $-1 $400 -41.381866001140686 $230 -33.790842854303037 $326 $401 forward 7 unknown #
point $-1 62.306588946195866 -33.790842854303037 14.028815030380294 #
point $-1 38.722243277552131 -33.790842854303037 14.028815030380294 #
edge $-1 $402 1 $402 0 $233 $-1 forward 7 unknown #
vertex $-1 $234 $403 #
ellipse-curve $-1 45.460627754307481 -32.295525124940227 5.0050751721105886 0 -0.79863551827123203 0.60181501223851219 2 0 0 1 I I #
point $-1 47.460627754307481 -37.586354427721865 8.9920009082685297 #
edge $-1 $404 1 $404 0 $237 $-1 forward 7 unknown #
vertex $-1 $238 $405 #
ellipse-curve $-1 55.568204469440516 -32.295525124940227 5.0050751721105886 0 -0.79863551827123203 0.60181501223851219 2 0 0 1 I I #
point $-1 57.568204469440516 -37.586354427721865 8.9920009082685297 #
plane-surface $-1 62.306588946195873 0 0 -1 0 0 0 0 1 forward_v I I I I #
coedge $-1 $261 $247 $252 $352 forward $242 $-1 #
vertex $-1 $245 $406 #
vertex $-1 $351 $407 #
straight-curve $-1 62.306588946195873 0 -14.028815030380294 0 -1 0 I I #
straight-curve $-1 0 41.381866001140686 14.028815030380294 -1 0 0 I I #
coedge $-1 $249 $258 $251 $351 reversed $161 $-1 #
straight-curve $-1 0 -41.381866001140686 14.028815030380294 1 0 0 I I #
edge $-1 $254 -14.028815030380294 $346 14.028815030380294 $251 $408 forward 7 unknown #
edge $-1 $255 -14.028815030380294 $345 14.028815030380294 $252 $409 forward 7 unknown #
point $-1 62.306588946195873 -41.381866001140686 14.028815030380294 #
point $-1 62.306588946195873 41.381866001140686 14.028815030380294 #
straight-curve $-1 -62.306588946195873 0 14.028815030380294 0 -1 0 I I #
point $-1 -62.306588946195873 -41.381866001140686 14.028815030380294 #
point $-1 -62.306588946195873 41.381866001140686 14.028815030380294 #
straight-curve $-1 0 41.381866001140686 -14.028815030380294 1 0 0 I I #
straight-curve $-1 0 -41.381866001140686 -14.028815030380294 -1 0 0 I I #
plane-surface $-1 0 0 14.028815030380294 0 0 1 1 0 0 forward_v I I I I #
coedge $-1 $273 $270 $275 $368 reversed $179 $-1 #
coedge $-1 $270 $273 $374 $410 reversed $179 $-1 #
edge $-1 $376 -14.028815030380294 $370 14.028815030380294 $287 $411 forward 7 unknown #
edge $-1 $365 -5.7910188071390394 $285 5.7910188071390465 $272 $412 forward 7 unknown #
vertex $-1 $410 $413 #
vertex $-1 $368 $414 #
straight-curve $-1 -73.888626560473952 -16.580058163349243 0 0 0 -1 I I #
edge $-1 $366 -1.6279111114845719 $370 1.6279111114845719 $361 $415 forward 7 unknown #
straight-curve $-1 -68.097607753334913 -16.580058163349243 -14.028815030380294 -1 0 0 I I #
vertex $-1 $277 $416 #
straight-curve $-1 -68.097607753334913 -13.324235940380099 -14.028815030380294 1 0 0 I I #
point $-1 -62.306588946195866 -16.580058163349243 -14.028815030380294 #
straight-curve $-1 -62.306588946195873 -16.580058163349243 0 0 0 -1 I I #
coedge $-1 $283 $282 $362 $410 forward $284 $-1 #
point $-1 -62.306588946195866 -16.580058163349243 14.028815030380294 #
vertex $-1 $288 $417 #
straight-curve $-1 -68.097607753334913 -13.324235940380099 14.028815030380294 -1 0 0 I I #
coedge $-1 $302 $301 $294 $379 forward $291 $-1 #
edge $-1 $380 25.44581895189291 $383 35.519447196116438 $378 $418 forward 7 unknown #
vertex $-1 $306 $419 #
straight-curve $-1 -50.724551331917787 -70.451187955328095 14.028815030380294 0 -1 0 I I #
edge $-1 $383 -31.258362083119827 $303 -7.6740164144760925 $302 $420 forward 7 unknown #
vertex $-1 $382 $421 #
straight-curve $-1 -50.724551331917787 -41.381866001140679 3.9551867861567729 0 0.60181501223851219 0.79863551827123203 I I #
point $-1 -50.724551331917787 -33.790842854303037 14.028815030380294 #
point $-1 -27.140205663274052 -41.381866001140686 3.9551867861567636 #
straight-curve $-1 0 -41.381866001140686 14.028815030380294 1 0 0 I I #
vertex $-1 $309 $422 #
point $-1 -41.986166855162431 -32.295525124940227 5.0050751721105886 #
vertex $-1 $313 $423 #
point $-1 -31.878590140029402 -32.295525124940227 5.0050751721105886 #
coedge $-1 $320 $319 $327 $397 reversed $139 $-1 #
edge $-1 $323 38.722243277552131 $400 62.306588946195873 $320 $424 forward 7 unknown #
straight-curve $-1 38.722243277552131 -41.381866001140686 39.474633982273204 0 0 -1 I I #
point $-1 38.722243277552131 -41.381866001140686 14.028815030380294 #
straight-curve $-1 25.257208055936999 -41.381866001140686 3.9551867861567631 1 0 0 I I #
edge $-1 $400 -14.028815030380294 $328 -3.9551867861567636 $327 $425 forward 7 unknown #
point $-1 62.306588946195866 -41.381866001140686 3.9551867861567636 #
point $-1 38.722243277552131 -41.381866001140686 3.9551867861567636 #
vertex $-1 $332 $426 #
straight-curve $-1 62.306588946195873 0 14.028815030380294 0 1 0 I I #
vertex $-1 $335 $427 #
point $-1 47.460627754307481 -32.295525124940227 5.0050751721105886 #
vertex $-1 $339 $428 #
point $-1 57.568204469440516 -32.295525124940227 5.0050751721105886 #
point $-1 62.306588946195873 41.381866001140686 -14.028815030380294 #
point $-1 62.306588946195873 -41.381866001140686 -14.028815030380294 #
straight-curve $-1 62.306588946195873 -41.381866001140686 0 0 0 -1 I I #
straight-curve $-1 62.306588946195873 41.381866001140686 0 0 0 -1 I I #
edge $-1 $376 -1.6279111114845719 $365 1.6279111114845719 $362 $429 forward 7 unknown #
straight-curve $-1 -73.888626560473952 -13.324235940380099 0 0 0 -1 I I #
straight-curve $-1 -68.097607753334913 -16.580058163349243 14.028815030380294 1 0 0 I I #
point $-1 -73.888626560473952 -16.580058163349243 14.028815030380294 #
point $-1 -73.888626560473952 -16.580058163349243 -14.028815030380294 #
straight-curve $-1 -73.888626560473952 -14.952147051864671 -14.028815030380294 0 1 0 I I #
point $-1 -73.888626560473952 -13.324235940380099 -14.028815030380294 #
point $-1 -73.888626560473952 -13.324235940380099 14.028815030380294 #
straight-curve $-1 -50.724551331917787 -41.381866001140686 39.474633982273204 0 0 -1 I I #
point $-1 -50.724551331917787 -41.381866001140686 14.028815030380294 #
straight-curve $-1 -19.46618924879796 -41.381866001140686 3.9551867861567631 1 0 0 I I #
point $-1 -50.724551331917787 -41.381866001140686 3.9551867861567636 #
point $-1 -43.986166855162431 -30.698254088397761 3.8014451476335638 #
point $-1 -33.878590140029402 -30.698254088397761 3.8014451476335638 #
straight-curve $-1 0 -41.381866001140686 14.028815030380294 1 0 0 I I #
straight-curve $-1 62.306588946195873 -41.381866001140686 0 0 0 -1 I I #
point $-1 62.306588946195873 -41.381866001140686 14.028815030380294 #
point $-1 45.460627754307481 -30.698254088397761 3.8014451476335638 #
point $-1 55.568204469440516 -30.698254088397761 3.8014451476335638 #
straight-curve $-1 -73.888626560473952 -14.952147051864671 14.028815030380294 0 -1 0 I I #
End-of-ACIS-data 