500 0 9 0           
7 Unknown 11 ACIS 5.0 NT 24 Fri Mar 26 00:14:37 1999 
-1 9.9999999999999995e-007 1e-010 
body $-1 $9 $-1 $10 #
body $-1 $11 $-1 $12 #
body $-1 $13 $-1 $14 #
body $-1 $15 $-1 $16 #
body $-1 $17 $-1 $18 #
body $-1 $19 $-1 $20 #
body $-1 $21 $-1 $22 #
body $-1 $23 $-1 $24 #
body $-1 $25 $-1 $26 #
lump $-1 $-1 $27 $0 #
transform $-1 1 0 0 0 1 0 0 0 1 40.963164159062472 28.14653304875209 12.995061980695096 1 rotate no_reflect no_shear #
lump $-1 $-1 $28 $1 #
transform $-1 1 0 0 0 1 0 0 0 1 40.963164159062472 28.14653304875209 12.995061980695096 1 rotate no_reflect no_shear #
lump $-1 $-1 $29 $2 #
transform $-1 1 0 0 0 1 0 0 0 1 40.963164159062472 28.14653304875209 12.995061980695096 1 rotate no_reflect no_shear #
lump $-1 $-1 $30 $3 #
transform $-1 1 0 0 0 1 0 0 0 1 40.963164159062472 28.14653304875209 12.995061980695096 1 rotate no_reflect no_shear #
lump $-1 $-1 $31 $4 #
transform $-1 1 0 0 0 1 0 0 0 1 40.963164159062472 28.14653304875209 12.995061980695096 1 rotate no_reflect no_shear #
lump $-1 $-1 $32 $5 #
transform $-1 1 0 0 0 1 0 0 0 1 40.963164159062472 28.14653304875209 12.995061980695096 1 rotate no_reflect no_shear #
lump $-1 $-1 $33 $6 #
transform $-1 1 0 0 0 1 0 0 0 1 40.963164159062472 28.14653304875209 12.995061980695096 1 rotate no_reflect no_shear #
lump $-1 $-1 $34 $7 #
transform $-1 1 0 0 0 1 0 0 0 1 40.963164159062472 28.14653304875209 12.995061980695096 1 rotate no_reflect no_shear #
lump $-1 $-1 $35 $8 #
transform $-1 1 0 0 0 1 0 0 0 1 40.963164159062472 28.14653304875209 12.995061980695096 1 rotate no_reflect no_shear #
shell $-1 $-1 $-1 $36 $-1 $9 #
shell $-1 $-1 $-1 $37 $-1 $11 #
shell $-1 $-1 $-1 $38 $-1 $13 #
shell $-1 $-1 $-1 $39 $-1 $15 #
shell $-1 $-1 $-1 $40 $-1 $17 #
shell $-1 $-1 $-1 $41 $-1 $19 #
shell $-1 $-1 $-1 $42 $-1 $21 #
shell $-1 $-1 $-1 $43 $-1 $23 #
shell $-1 $-1 $-1 $44 $-1 $25 #
face $-1 $45 $46 $27 $-1 $47 forward single #
face $-1 $48 $49 $28 $-1 $50 forward single #
face $-1 $51 $52 $29 $-1 $53 reversed single #
face $-1 $54 $55 $30 $-1 $56 forward single #
face $-1 $57 $58 $31 $-1 $59 forward single #
face $-1 $60 $61 $32 $-1 $62 reversed single #
face $-1 $63 $64 $33 $-1 $65 forward single #
face $-1 $66 $67 $34 $-1 $68 reversed single #
face $-1 $69 $70 $35 $-1 $71 forward single #
face $-1 $72 $73 $27 $-1 $74 reversed single #
loop $-1 $-1 $75 $36 #
plane-surface $-1 0 0 12.995061980695096 0 0 1 1 0 0 forward_v I I I I #
face $-1 $76 $77 $28 $-1 $78 reversed single #
loop $-1 $-1 $79 $37 #
plane-surface $-1 -35.172614193522996 0 -9.9950619806950964 0 0 1 1 0 0 forward_v I I I I #
face $-1 $80 $81 $29 $-1 $82 reversed single #
loop $-1 $-1 $83 $38 #
plane-surface $-1 30.894739017535713 44.563500961086064 100.92934911936887 1 0 0 0 -0.69465837861970381 -0.71933979245794832 forward_v I I I I #
face $-1 $84 $85 $30 $-1 $86 forward single #
loop $-1 $87 $88 $39 #
cone-surface $-1 33.771431915114789 22.164284177958944 7.1656027321624567 0 -0.69465837861970381 -0.71933979245794832 1 0 0 1 I I 0 1 1 forward I I I I #
face $-1 $89 $90 $31 $-1 $91 forward single #
loop $-1 $92 $93 $40 #
cone-surface $-1 38.086471261483396 22.164284177958944 7.1656027321624567 0 -0.69465837861970381 -0.71933979245794832 1 0 0 1 I I 0 1 1 forward I I I I #
face $-1 $94 $95 $32 $-1 $96 reversed single #
loop $-1 $-1 $97 $41 #
plane-surface $-1 -14.524272650449177 -89.029660687176829 57.82949238850135 -1 0 0 0 -0.74314483375859142 0.66913059716165679 forward_v I I I I #
face $-1 $98 $99 $33 $-1 $100 forward single #
loop $-1 $101 $102 $42 #
cone-surface $-1 -21.953168439216348 -19.757604930247119 4.4966955693886312 0 0.74314483375859142 -0.66913059716165679 3 0 0 1 I I 0 1 3 forward I I I I #
face $-1 $103 $104 $34 $-1 $105 reversed single #
loop $-1 $-1 $106 $43 #
plane-surface $-1 20.648341543073819 -89.029660687176829 57.82949238850135 -1 0 0 0 -0.74314483375859142 0.66913059716165679 forward_v I I I I #
face $-1 $107 $108 $35 $-1 $109 forward single #
loop $-1 $110 $111 $44 #
cone-surface $-1 13.219445754306648 -19.757604930247119 4.4966955693886312 0 0.74314483375859142 -0.66913059716165679 3 0 0 1 I I 0 1 3 forward I I I I #
face $-1 $112 $113 $27 $-1 $114 reversed single #
loop $-1 $-1 $115 $45 #
plane-surface $-1 0 0 -12.995061980695096 0 0 1 1 0 0 forward_v I I I I #
coedge $-1 $116 $117 $118 $119 forward $46 $-1 #
face $-1 $120 $121 $28 $-1 $122 reversed single #
loop $-1 $-1 $123 $48 #
plane-surface $-1 -29.38206422798352 0 -11.495061980695096 -1 0 0 0 0 1 forward_v I I I I #
coedge $-1 $124 $125 $126 $127 forward $49 $-1 #
face $-1 $128 $129 $29 $-1 $130 reversed single #
loop $-1 $-1 $131 $51 #
plane-surface $-1 35.928951588299086 -12.347309434648139 41.996481110167132 0 0.69465837861970381 0.71933979245794832 1 0 0 forward_v I I I I #
coedge $-1 $132 $133 $134 $135 reversed $52 $-1 #
face $-1 $-1 $136 $30 $-1 $137 forward single #
loop $-1 $138 $139 $54 #
cone-surface $-1 33.771431915114789 21.065703374709543 6.0279890340768549 0 -0.69465837861970381 -0.71933979245794832 0.5 0 0 1 I I -0.70710678118654746 0.70710678118654746 0.5 forward I I I I #
loop $-1 $-1 $140 $39 #
coedge $-1 $88 $88 $141 $142 reversed $55 $-1 #
face $-1 $-1 $143 $31 $-1 $144 forward single #
loop $-1 $145 $146 $57 #
cone-surface $-1 38.086471261483396 21.065703374709543 6.0279890340768549 0 -0.69465837861970381 -0.71933979245794832 0.5 0 0 1 I I -0.70710678118654746 0.70710678118654746 0.5 forward I I I I #
loop $-1 $-1 $147 $40 #
coedge $-1 $93 $93 $148 $149 reversed $58 $-1 #
face $-1 $150 $151 $32 $-1 $152 reversed single #
loop $-1 $-1 $153 $60 #
plane-surface $-1 -21.953168439216348 -28.146533048752083 3.0100793977324543 0 -0.74314483375859142 0.66913059716165679 1 0 0 forward_v I I I I #
coedge $-1 $154 $155 $156 $157 reversed $61 $-1 #
face $-1 $-1 $158 $33 $-1 $159 forward single #
loop $-1 $160 $161 $63 #
cone-surface $-1 -21.953168439216348 -14.749218799195743 -0.012875446178995276 0 0.74314483375859142 -0.66913059716165679 1.5 0 0 1 I I -0.70710678118654757 0.70710678118654757 1.5 forward I I I I #
loop $-1 $-1 $162 $42 #
coedge $-1 $102 $102 $163 $164 reversed $64 $-1 #
face $-1 $165 $166 $34 $-1 $167 reversed single #
loop $-1 $-1 $168 $66 #
plane-surface $-1 13.219445754306648 -28.146533048752083 3.0100793977324543 0 -0.74314483375859142 0.66913059716165679 1 0 0 forward_v I I I I #
coedge $-1 $169 $170 $171 $172 reversed $67 $-1 #
face $-1 $-1 $173 $35 $-1 $174 forward single #
loop $-1 $175 $176 $69 #
cone-surface $-1 13.219445754306648 -14.749218799195743 -0.012875446178995276 0 0.74314483375859142 -0.66913059716165679 1.5 0 0 1 I I -0.70710678118654757 0.70710678118654757 1.5 forward I I I I #
loop $-1 $-1 $177 $44 #
coedge $-1 $111 $111 $178 $179 reversed $70 $-1 #
face $-1 $180 $181 $27 $-1 $182 reversed single #
loop $-1 $-1 $183 $72 #
plane-surface $-1 0 -28.14653304875209 0 0 1 0 0 0 1 forward_v I I I I #
coedge $-1 $184 $185 $186 $187 forward $73 $-1 #
coedge $-1 $188 $75 $189 $190 forward $46 $-1 #
coedge $-1 $75 $188 $191 $192 forward $46 $-1 #
coedge $-1 $193 $194 $75 $119 reversed $195 $-1 #
edge $-1 $196 -28.14653304875209 $197 28.14653304875209 $118 $198 forward 7 unknown #
face $-1 $199 $200 $28 $-1 $201 reversed single #
loop $-1 $-1 $202 $76 #
plane-surface $-1 0 0 -12.995061980695096 0 0 1 1 0 0 forward_v I I I I #
coedge $-1 $203 $126 $204 $205 reversed $77 $-1 #
coedge $-1 $206 $79 $207 $208 reversed $49 $-1 #
coedge $-1 $79 $206 $209 $210 reversed $49 $-1 #
coedge $-1 $123 $211 $79 $127 reversed $77 $-1 #
edge $-1 $212 -28.14653304875209 $213 28.14653304875209 $126 $214 forward 7 unknown #
face $-1 $215 $216 $29 $-1 $217 reversed single #
loop $-1 $-1 $218 $80 #
plane-surface $-1 40.963164159062472 0 0 -1 0 0 0 0 1 forward_v I I I I #
coedge $-1 $219 $220 $221 $222 reversed $81 $-1 #
coedge $-1 $133 $83 $223 $224 reversed $52 $-1 #
coedge $-1 $83 $132 $219 $225 reversed $52 $-1 #
coedge $-1 $221 $226 $83 $135 forward $227 $-1 #
edge $-1 $228 -5.8647825682090584 $229 4.5972119454981666 $134 $230 forward 7 unknown #
loop $-1 $-1 $141 $84 #
plane-surface $-1 35.928951588299086 -12.347309434648139 41.996481110167132 0 0.69465837861970381 0.71933979245794832 1 0 0 forward_v I I I I #
loop $-1 $-1 $231 $54 #
coedge $-1 $139 $139 $140 $232 reversed $85 $-1 #
coedge $-1 $140 $140 $139 $232 forward $87 $-1 #
coedge $-1 $141 $141 $88 $142 forward $136 $-1 #
edge $-1 $233 -9.7090317224199819e-016 $233 6.2831853071795996 $141 $234 forward 7 unknown #
loop $-1 $-1 $148 $89 #
plane-surface $-1 35.928951588299086 -12.347309434648139 41.996481110167132 0 0.69465837861970381 0.71933979245794832 1 0 0 forward_v I I I I #
loop $-1 $-1 $235 $57 #
coedge $-1 $146 $146 $147 $236 reversed $90 $-1 #
coedge $-1 $147 $147 $146 $236 forward $92 $-1 #
coedge $-1 $148 $148 $93 $149 forward $143 $-1 #
edge $-1 $237 -9.7090317224199819e-016 $237 6.2831853071795996 $148 $238 forward 7 unknown #
face $-1 $239 $240 $32 $-1 $241 forward single #
loop $-1 $-1 $242 $94 #
plane-surface $-1 -29.38206422798352 -89.029660687176829 57.82949238850135 1 0 0 0 0.74314483375859142 -0.66913059716165679 forward_v I I I I #
coedge $-1 $243 $244 $245 $246 reversed $95 $-1 #
coedge $-1 $155 $97 $247 $248 reversed $61 $-1 #
coedge $-1 $97 $154 $243 $249 reversed $61 $-1 #
coedge $-1 $245 $250 $97 $157 forward $240 $-1 #
edge $-1 $251 16.368297294836324 $252 25.358815771019295 $156 $253 forward 7 unknown #
loop $-1 $-1 $163 $98 #
plane-surface $-1 -21.953168439216348 -28.146533048752083 3.0100793977324543 0 -0.74314483375859142 0.66913059716165679 1 0 0 forward_v I I I I #
loop $-1 $-1 $254 $63 #
coedge $-1 $161 $161 $162 $255 reversed $99 $-1 #
coedge $-1 $162 $162 $161 $255 forward $101 $-1 #
coedge $-1 $163 $163 $102 $164 forward $158 $-1 #
edge $-1 $256 8.8006027207469067e-016 $256 6.2831853071796013 $163 $257 forward 7 unknown #
face $-1 $258 $259 $34 $-1 $260 reversed single #
loop $-1 $-1 $261 $103 #
plane-surface $-1 5.7905499655394754 -89.029660687176829 57.82949238850135 1 0 0 0 0.74314483375859142 -0.66913059716165679 forward_v I I I I #
coedge $-1 $262 $263 $264 $265 reversed $104 $-1 #
coedge $-1 $170 $106 $266 $267 reversed $67 $-1 #
coedge $-1 $106 $169 $262 $268 reversed $67 $-1 #
coedge $-1 $264 $269 $106 $172 forward $270 $-1 #
edge $-1 $271 16.368297294836324 $272 25.358815771019295 $171 $273 forward 7 unknown #
loop $-1 $-1 $178 $107 #
plane-surface $-1 13.219445754306648 -28.146533048752083 3.0100793977324543 0 -0.74314483375859142 0.66913059716165679 1 0 0 forward_v I I I I #
loop $-1 $-1 $274 $69 #
coedge $-1 $176 $176 $177 $275 reversed $108 $-1 #
coedge $-1 $177 $177 $176 $275 forward $110 $-1 #
coedge $-1 $178 $178 $111 $179 forward $173 $-1 #
edge $-1 $276 8.8006027207469067e-016 $276 6.2831853071796013 $178 $277 forward 7 unknown #
face $-1 $278 $279 $27 $-1 $280 reversed single #
loop $-1 $-1 $281 $112 #
plane-surface $-1 -40.963164159062472 0 0 1 0 0 0 0 -1 forward_v I I I I #
coedge $-1 $282 $191 $283 $284 forward $113 $-1 #
coedge $-1 $285 $115 $282 $286 forward $73 $-1 #
coedge $-1 $115 $285 $287 $288 forward $73 $-1 #
coedge $-1 $194 $193 $115 $187 reversed $195 $-1 #
edge $-1 $289 -28.14653304875209 $290 28.14653304875209 $186 $291 forward 7 unknown #
coedge $-1 $117 $116 $292 $293 forward $46 $-1 #
coedge $-1 $294 $295 $116 $190 reversed $279 $-1 #
edge $-1 $197 -40.963164159062472 $296 40.963164159062472 $189 $297 forward 7 unknown #
coedge $-1 $183 $298 $117 $192 reversed $113 $-1 #
edge $-1 $299 -40.963164159062472 $196 40.963164159062472 $191 $300 forward 7 unknown #
coedge $-1 $186 $118 $298 $301 forward $195 $-1 #
coedge $-1 $118 $186 $294 $302 reversed $195 $-1 #
loop $-1 $-1 $193 $278 #
vertex $-1 $119 $303 #
vertex $-1 $119 $304 #
straight-curve $-1 40.963164159062472 0 12.995061980695096 0 1 0 I I #
face $-1 $305 $306 $28 $-1 $307 reversed single #
loop $-1 $-1 $204 $120 #
plane-surface $-1 0 -28.14653304875209 0 0 1 0 0 0 1 forward_v I I I I #
coedge $-1 $308 $309 $203 $310 forward $121 $-1 #
coedge $-1 $211 $123 $202 $310 reversed $77 $-1 #
coedge $-1 $209 $311 $123 $205 forward $200 $-1 #
edge $-1 $312 -7.2475309903475482 $212 -4.2475309903475482 $204 $313 forward 7 unknown #
coedge $-1 $125 $124 $314 $315 reversed $49 $-1 #
coedge $-1 $316 $317 $124 $208 forward $318 $-1 #
edge $-1 $319 -23.376857062300974 $213 -11.795757131222022 $207 $320 forward 7 unknown #
coedge $-1 $321 $204 $125 $210 forward $200 $-1 #
edge $-1 $212 11.795757131222022 $322 23.376857062300974 $209 $323 forward 7 unknown #
coedge $-1 $126 $203 $316 $324 reversed $77 $-1 #
vertex $-1 $210 $325 #
vertex $-1 $208 $326 #
straight-curve $-1 -29.38206422798352 0 -9.9950619806950964 0 1 0 I I #
face $-1 $-1 $227 $29 $-1 $327 forward single #
loop $-1 $-1 $328 $128 #
plane-surface $-1 0 28.14653304875209 0 0 -1 0 0 0 -1 forward_v I I I I #
coedge $-1 $329 $330 $220 $331 forward $129 $-1 #
coedge $-1 $332 $131 $133 $225 forward $81 $-1 #
coedge $-1 $131 $332 $218 $331 reversed $81 $-1 #
coedge $-1 $333 $134 $131 $222 forward $227 $-1 #
edge $-1 $229 12.93026322338617 $334 22.998688364912915 $221 $335 forward 7 unknown #
coedge $-1 $336 $328 $132 $224 forward $216 $-1 #
edge $-1 $337 -47.572643472341376 $228 -37.469612578989334 $223 $338 forward 7 unknown #
edge $-1 $229 41.74918207579713 $337 56.29306609750418 $133 $339 forward 7 unknown #
coedge $-1 $134 $333 $336 $340 forward $227 $-1 #
loop $-1 $-1 $221 $215 #
vertex $-1 $224 $341 #
vertex $-1 $135 $342 #
straight-curve $-1 30.894739017535713 22.281750480543032 12.995061980695098 0 -1 0 I I #
coedge $-1 $231 $231 $-1 $343 reversed $138 $-1 #
edge $-1 $344 0 $344 6.2831853071796004 $139 $345 forward 7 unknown #
vertex $-1 $142 $346 #
ellipse-curve $-1 33.771431915114789 22.915535791898478 7.9435465340190712 0 0.69465837861970381 0.71933979245794832 1 0 0 1 I I #
coedge $-1 $235 $235 $-1 $347 reversed $145 $-1 #
edge $-1 $348 0 $348 6.2831853071796004 $146 $349 forward 7 unknown #
vertex $-1 $149 $350 #
ellipse-curve $-1 38.086471261483396 22.915535791898478 7.9435465340190712 0 0.69465837861970381 0.71933979245794832 1 0 0 1 I I #
face $-1 $-1 $351 $32 $-1 $352 reversed single #
loop $-1 $-1 $156 $150 #
plane-surface $-1 0 0 12.995061980695096 0 0 1 1 0 0 forward_v I I I I #
coedge $-1 $353 $354 $355 $356 reversed $151 $-1 #
coedge $-1 $357 $153 $155 $249 forward $95 $-1 #
coedge $-1 $153 $357 $353 $358 forward $95 $-1 #
coedge $-1 $355 $156 $153 $246 forward $240 $-1 #
edge $-1 $252 3.5476884308410028 $359 18.405480008375346 $245 $360 forward 7 unknown #
coedge $-1 $361 $362 $154 $248 forward $351 $-1 #
edge $-1 $363 -25.904666796518228 $251 -15.919684213555579 $247 $364 forward 7 unknown #
edge $-1 $252 -13.436119218459417 $363 1.0694865687384493e-014 $155 $365 forward 7 unknown #
coedge $-1 $156 $355 $361 $366 forward $240 $-1 #
vertex $-1 $248 $367 #
vertex $-1 $157 $368 #
straight-curve $-1 -14.524272650449177 -44.514830343588415 12.995061980695098 0 1 0 I I #
coedge $-1 $254 $254 $-1 $369 reversed $160 $-1 #
edge $-1 $370 0 $370 6.2831853071796004 $161 $371 forward 7 unknown #
vertex $-1 $164 $372 #
ellipse-curve $-1 -21.953168439216348 -23.651273810660605 8.0025706892137691 0 -0.74314483375859142 0.66913059716165679 3 0 0 1 I I #
face $-1 $-1 $270 $34 $-1 $373 forward single #
loop $-1 $-1 $374 $165 #
plane-surface $-1 0 -28.14653304875209 0 0 1 0 0 0 1 forward_v I I I I #
coedge $-1 $375 $376 $377 $378 reversed $166 $-1 #
coedge $-1 $379 $168 $170 $268 forward $104 $-1 #
coedge $-1 $168 $379 $375 $380 forward $104 $-1 #
coedge $-1 $377 $171 $168 $265 forward $270 $-1 #
edge $-1 $272 -14.038618665920495 $381 0.81917291161384842 $264 $382 forward 7 unknown #
coedge $-1 $383 $384 $169 $267 forward $259 $-1 #
edge $-1 $385 -25.904666796518228 $271 -15.919684213555579 $266 $386 forward 7 unknown #
edge $-1 $272 -13.436119218459417 $385 1.0694865687384493e-014 $170 $387 forward 7 unknown #
coedge $-1 $171 $377 $383 $388 forward $270 $-1 #
loop $-1 $-1 $377 $258 #
vertex $-1 $267 $389 #
vertex $-1 $172 $390 #
straight-curve $-1 20.648341543073819 -44.514830343588415 12.995061980695098 0 1 0 I I #
coedge $-1 $274 $274 $-1 $391 reversed $175 $-1 #
edge $-1 $392 0 $392 6.2831853071796004 $176 $393 forward 7 unknown #
vertex $-1 $179 $394 #
ellipse-curve $-1 13.219445754306648 -23.651273810660605 8.0025706892137691 0 -0.74314483375859142 0.66913059716165679 3 0 0 1 I I #
face $-1 $-1 $195 $27 $-1 $395 reversed single #
loop $-1 $-1 $294 $180 #
plane-surface $-1 0 28.14653304875209 0 0 -1 0 0 0 -1 forward_v I I I I #
coedge $-1 $396 $292 $295 $397 forward $181 $-1 #
coedge $-1 $298 $183 $184 $286 reversed $113 $-1 #
coedge $-1 $292 $396 $183 $284 reversed $181 $-1 #
edge $-1 $299 -12.995061980695096 $398 12.995061980695096 $283 $399 forward 7 unknown #
coedge $-1 $185 $184 $396 $400 forward $73 $-1 #
edge $-1 $290 -40.963164159062472 $398 40.963164159062472 $282 $401 forward 7 unknown #
coedge $-1 $295 $294 $185 $288 reversed $279 $-1 #
edge $-1 $402 -40.963164159062472 $289 40.963164159062472 $287 $403 forward 7 unknown #
vertex $-1 $187 $404 #
vertex $-1 $301 $405 #
straight-curve $-1 40.963164159062472 0 -12.995061980695096 0 -1 0 I I #
coedge $-1 $281 $283 $188 $293 reversed $181 $-1 #
edge $-1 $296 -28.14653304875209 $299 28.14653304875209 $292 $406 forward 7 unknown #
coedge $-1 $287 $189 $194 $302 forward $279 $-1 #
coedge $-1 $189 $287 $281 $397 reversed $279 $-1 #
vertex $-1 $190 $407 #
straight-curve $-1 0 28.14653304875209 12.995061980695096 -1 0 0 I I #
coedge $-1 $191 $282 $193 $301 reversed $113 $-1 #
vertex $-1 $293 $408 #
straight-curve $-1 0 -28.14653304875209 12.995061980695096 1 0 0 I I #
edge $-1 $196 -12.995061980695096 $290 12.995061980695096 $193 $409 forward 7 unknown #
edge $-1 $197 -12.995061980695096 $289 12.995061980695096 $194 $410 forward 7 unknown #
point $-1 40.963164159062472 -28.14653304875209 12.995061980695096 #
point $-1 40.963164159062472 28.14653304875209 12.995061980695096 #
face $-1 $-1 $318 $28 $-1 $411 reversed single #
loop $-1 $-1 $314 $199 #
plane-surface $-1 -40.963164159062472 0 0 1 0 0 0 0 -1 forward_v I I I I #
coedge $-1 $412 $202 $311 $413 forward $121 $-1 #
coedge $-1 $202 $412 $414 $415 forward $121 $-1 #
edge $-1 $416 -28.14653304875209 $312 28.14653304875209 $202 $417 forward 7 unknown #
coedge $-1 $204 $321 $308 $413 reversed $200 $-1 #
vertex $-1 $413 $418 #
straight-curve $-1 -29.38206422798352 -28.14653304875209 -5.7475309903475482 0 0 1 I I #
coedge $-1 $419 $420 $206 $315 forward $306 $-1 #
edge $-1 $322 -28.14653304875209 $319 28.14653304875209 $314 $421 forward 7 unknown #
coedge $-1 $414 $207 $211 $324 forward $318 $-1 #
coedge $-1 $207 $414 $419 $422 reversed $318 $-1 #
loop $-1 $-1 $316 $305 #
vertex $-1 $422 $423 #
straight-curve $-1 -17.586307096761498 28.14653304875209 -9.9950619806950964 1 0 0 I I #
coedge $-1 $311 $209 $420 $424 forward $200 $-1 #
vertex $-1 $424 $425 #
straight-curve $-1 -17.586307096761498 -28.14653304875209 -9.9950619806950964 -1 0 0 I I #
edge $-1 $213 4.2475309903475482 $416 7.2475309903475482 $316 $426 forward 7 unknown #
point $-1 -29.38206422798352 -28.14653304875209 -9.9950619806950964 #
point $-1 -29.38206422798352 28.14653304875209 -9.9950619806950964 #
plane-surface $-1 0 0 12.995061980695096 0 0 1 1 0 0 forward_v I I I I #
coedge $-1 $223 $427 $332 $428 forward $216 $-1 #
coedge $-1 $330 $218 $427 $429 reversed $129 $-1 #
coedge $-1 $218 $329 $333 $430 reversed $129 $-1 #
edge $-1 $334 22.721622834869336 $431 37.265506856576394 $218 $432 forward 7 unknown #
coedge $-1 $220 $219 $328 $428 reversed $81 $-1 #
coedge $-1 $226 $221 $330 $430 forward $227 $-1 #
vertex $-1 $430 $433 #
straight-curve $-1 17.964475794149543 17.684538535044869 12.995061980695095 1 0 0 I I #
coedge $-1 $427 $223 $226 $340 reversed $216 $-1 #
vertex $-1 $224 $434 #
straight-curve $-1 30.894739017535713 28.14653304875209 50.464674559684433 0 0 1 I I #
straight-curve $-1 30.894739017535713 -12.347309434648139 41.996481110167132 0 0.71933979245794832 -0.69465837861970381 I I #
edge $-1 $435 -40.963164159062472 $228 -30.894739017535713 $336 $436 forward 7 unknown #
point $-1 30.894739017535713 28.14653304875209 12.995061980695096 #
point $-1 30.894739017535713 17.684538535044865 12.995061980695098 #
edge $-1 $437 1 $437 0 $231 $-1 forward 7 unknown #
vertex $-1 $232 $438 #
ellipse-curve $-1 33.771431915114789 21.413032564019396 6.3876589303058289 0 0.69465837861970381 0.71933979245794832 1 0 0 1 I I #
point $-1 34.771431915114789 22.915535791898488 7.9435465340190836 #
edge $-1 $439 1 $439 0 $235 $-1 forward 7 unknown #
vertex $-1 $236 $440 #
ellipse-curve $-1 38.086471261483396 21.413032564019396 6.3876589303058289 0 0.69465837861970381 0.71933979245794832 1 0 0 1 I I #
point $-1 39.086471261483396 22.915535791898488 7.9435465340190836 #
loop $-1 $-1 $247 $239 #
plane-surface $-1 0 -28.14653304875209 0 0 1 0 0 0 1 forward_v I I I I #
coedge $-1 $354 $242 $244 $358 reversed $151 $-1 #
coedge $-1 $242 $353 $441 $442 reversed $151 $-1 #
coedge $-1 $250 $245 $242 $356 forward $240 $-1 #
edge $-1 $359 -25.358815771019295 $443 -16.368297294836324 $355 $444 forward 7 unknown #
coedge $-1 $244 $243 $362 $445 reversed $95 $-1 #
edge $-1 $446 -1.0694865687384493e-014 $359 13.436119218459417 $353 $447 forward 7 unknown #
vertex $-1 $246 $448 #
straight-curve $-1 -10.976584219608174 -19.156014572569113 12.995061980695096 -1 0 0 I I #
coedge $-1 $441 $247 $250 $366 reversed $351 $-1 #
coedge $-1 $247 $441 $357 $445 forward $351 $-1 #
vertex $-1 $248 $449 #
straight-curve $-1 -14.524272650449177 -28.14653304875209 28.914746194250675 0 0 1 I I #
straight-curve $-1 -14.524272650449177 -28.146533048752083 3.0100793977324543 0 -0.66913059716165679 -0.74314483375859142 I I #
edge $-1 $443 -29.38206422798352 $251 -14.524272650449177 $361 $450 forward 7 unknown #
point $-1 -14.524272650449177 -28.14653304875209 12.995061980695096 #
point $-1 -14.524272650449177 -19.15601457256912 12.995061980695096 #
edge $-1 $451 1 $451 0 $254 $-1 forward 7 unknown #
vertex $-1 $255 $452 #
ellipse-curve $-1 -21.953168439216348 -15.863936049833629 0.9908204495634898 0 -0.74314483375859142 0.66913059716165679 3 0 0 1 I I #
point $-1 -18.953168439216348 -23.651273810660605 8.0025706892137727 #
plane-surface $-1 0 0 12.995061980695096 0 0 1 1 0 0 forward_v I I I I #
coedge $-1 $384 $383 $376 $453 forward $259 $-1 #
coedge $-1 $376 $261 $263 $380 reversed $166 $-1 #
coedge $-1 $261 $375 $374 $453 reversed $166 $-1 #
coedge $-1 $269 $264 $261 $378 forward $270 $-1 #
edge $-1 $381 -25.358815771019295 $454 -16.368297294836324 $377 $455 forward 7 unknown #
coedge $-1 $263 $262 $384 $456 reversed $104 $-1 #
edge $-1 $457 -1.0694865687384493e-014 $381 13.436119218459417 $375 $458 forward 7 unknown #
vertex $-1 $265 $459 #
straight-curve $-1 6.6097228771533239 -19.156014572569113 12.995061980695096 -1 0 0 I I #
coedge $-1 $374 $266 $269 $388 reversed $259 $-1 #
coedge $-1 $266 $374 $379 $456 forward $259 $-1 #
vertex $-1 $267 $460 #
straight-curve $-1 20.648341543073819 -28.14653304875209 28.914746194250675 0 0 1 I I #
straight-curve $-1 20.648341543073819 -28.146533048752083 3.0100793977324543 0 -0.66913059716165679 -0.74314483375859142 I I #
edge $-1 $454 5.7905499655394754 $271 20.648341543073819 $383 $461 forward 7 unknown #
point $-1 20.648341543073819 -28.14653304875209 12.995061980695096 #
point $-1 20.648341543073819 -19.15601457256912 12.995061980695096 #
edge $-1 $462 1 $462 0 $274 $-1 forward 7 unknown #
vertex $-1 $275 $463 #
ellipse-curve $-1 13.219445754306648 -15.863936049833629 0.9908204495634898 0 -0.74314483375859142 0.66913059716165679 3 0 0 1 I I #
point $-1 16.219445754306648 -23.651273810660605 8.0025706892137727 #
plane-surface $-1 40.963164159062472 0 0 -1 0 0 0 0 1 forward_v I I I I #
coedge $-1 $283 $281 $285 $400 reversed $181 $-1 #
edge $-1 $296 -12.995061980695096 $402 12.995061980695096 $295 $464 forward 7 unknown #
vertex $-1 $400 $465 #
straight-curve $-1 -40.963164159062472 -28.14653304875209 0 0 0 -1 I I #
edge $-1 $398 -28.14653304875209 $402 28.14653304875209 $396 $466 forward 7 unknown #
straight-curve $-1 0 -28.14653304875209 -12.995061980695096 -1 0 0 I I #
vertex $-1 $288 $467 #
straight-curve $-1 0 28.14653304875209 -12.995061980695096 1 0 0 I I #
point $-1 40.963164159062472 28.14653304875209 -12.995061980695096 #
point $-1 40.963164159062472 -28.14653304875209 -12.995061980695096 #
straight-curve $-1 -40.963164159062472 0 12.995061980695096 0 -1 0 I I #
point $-1 -40.963164159062472 28.14653304875209 12.995061980695096 #
point $-1 -40.963164159062472 -28.14653304875209 12.995061980695096 #
straight-curve $-1 40.963164159062472 -28.14653304875209 0 0 0 -1 I I #
straight-curve $-1 40.963164159062472 28.14653304875209 0 0 0 -1 I I #
plane-surface $-1 0 28.14653304875209 0 0 -1 0 0 0 -1 forward_v I I I I #
coedge $-1 $309 $308 $468 $469 forward $121 $-1 #
edge $-1 $312 29.38206422798352 $470 40.963164159062472 $311 $471 forward 7 unknown #
coedge $-1 $317 $316 $309 $415 reversed $318 $-1 #
edge $-1 $472 -40.963164159062472 $416 -29.38206422798352 $414 $473 forward 7 unknown #
vertex $-1 $324 $474 #
straight-curve $-1 -29.38206422798352 0 -12.995061980695096 0 -1 0 I I #
point $-1 -29.38206422798352 -28.14653304875209 -12.995061980695096 #
coedge $-1 $468 $314 $317 $422 forward $306 $-1 #
coedge $-1 $314 $468 $321 $424 reversed $306 $-1 #
straight-curve $-1 -40.963164159062472 0 -9.9950619806950964 0 1 0 I I #
edge $-1 $319 9.9950619806950964 $472 12.995061980695096 $317 $475 forward 7 unknown #
point $-1 -40.963164159062472 28.14653304875209 -9.9950619806950964 #
edge $-1 $322 9.9950619806950964 $470 12.995061980695096 $420 $476 forward 7 unknown #
point $-1 -40.963164159062472 -28.14653304875209 -9.9950619806950964 #
straight-curve $-1 -29.38206422798352 28.14653304875209 -5.7475309903475482 0 0 -1 I I #
coedge $-1 $328 $336 $329 $429 forward $216 $-1 #
edge $-1 $431 -22.998688364912915 $337 -12.93026322338617 $328 $477 forward 7 unknown #
edge $-1 $435 -12.995061980695096 $431 -2.8920310873430566 $329 $478 forward 7 unknown #
edge $-1 $334 17.684538535044865 $435 28.14653304875209 $330 $479 forward 7 unknown #
vertex $-1 $331 $480 #
straight-curve $-1 40.963164159062472 1.3399710807021741 28.778827658773871 0 0.71933979245794832 -0.69465837861970381 I I #
point $-1 40.963164159062458 17.684538535044865 12.995061980695098 #
point $-1 30.894739017535713 28.14653304875209 2.8920310873430566 #
vertex $-1 $430 $481 #
straight-curve $-1 0 28.14653304875209 12.995061980695096 -1 0 0 I I #
vertex $-1 $343 $482 #
point $-1 34.771431915114789 21.413032564019396 6.3876589303058289 #
vertex $-1 $347 $483 #
point $-1 39.086471261483396 21.413032564019396 6.3876589303058289 #
coedge $-1 $362 $361 $354 $442 forward $351 $-1 #
edge $-1 $443 15.919684213555579 $446 25.904666796518228 $441 $484 forward 7 unknown #
vertex $-1 $366 $485 #
straight-curve $-1 -29.38206422798352 -44.514830343588415 12.995061980695098 0 -1 0 I I #
edge $-1 $446 -18.405480008375346 $363 -3.5476884308410028 $362 $486 forward 7 unknown #
vertex $-1 $445 $487 #
straight-curve $-1 -29.38206422798352 -28.146533048752083 3.0100793977324543 0 0.66913059716165679 0.74314483375859142 I I #
point $-1 -29.38206422798352 -19.15601457256912 12.995061980695096 #
point $-1 -14.524272650449177 -28.14653304875209 3.0100793977324463 #
straight-curve $-1 0 -28.14653304875209 12.995061980695096 1 0 0 I I #
vertex $-1 $369 $488 #
point $-1 -18.953168439216348 -15.863936049833629 0.9908204495634898 #
edge $-1 $454 15.919684213555579 $457 25.904666796518228 $374 $489 forward 7 unknown #
vertex $-1 $388 $490 #
straight-curve $-1 5.7905499655394754 -44.514830343588415 12.995061980695098 0 -1 0 I I #
edge $-1 $457 -0.81917291161384842 $385 14.038618665920495 $384 $491 forward 7 unknown #
vertex $-1 $456 $492 #
straight-curve $-1 5.7905499655394754 -28.146533048752083 3.0100793977324543 0 0.66913059716165679 0.74314483375859142 I I #
point $-1 5.7905499655394754 -19.15601457256912 12.995061980695096 #
point $-1 20.648341543073819 -28.14653304875209 3.0100793977324463 #
straight-curve $-1 0 -28.14653304875209 12.995061980695096 1 0 0 I I #
vertex $-1 $391 $493 #
point $-1 16.219445754306648 -15.863936049833629 0.9908204495634898 #
straight-curve $-1 -40.963164159062472 28.14653304875209 0 0 0 -1 I I #
point $-1 -40.963164159062472 -28.14653304875209 -12.995061980695096 #
straight-curve $-1 -40.963164159062472 0 -12.995061980695096 0 1 0 I I #
point $-1 -40.963164159062472 28.14653304875209 -12.995061980695096 #
coedge $-1 $420 $419 $412 $469 reversed $306 $-1 #
edge $-1 $470 -28.14653304875209 $472 28.14653304875209 $468 $494 forward 7 unknown #
vertex $-1 $469 $495 #
straight-curve $-1 0 -28.14653304875209 -12.995061980695096 -1 0 0 I I #
vertex $-1 $415 $496 #
straight-curve $-1 0 28.14653304875209 -12.995061980695096 1 0 0 I I #
point $-1 -29.38206422798352 28.14653304875209 -12.995061980695096 #
straight-curve $-1 -40.963164159062472 28.14653304875209 0 0 0 -1 I I #
straight-curve $-1 -40.963164159062472 -28.14653304875209 0 0 0 -1 I I #
straight-curve $-1 17.964475794149543 28.146533048752087 2.8920310873430566 -1 0 0 I I #
straight-curve $-1 40.963164159062472 28.14653304875209 0 0 0 -1 I I #
straight-curve $-1 40.963164159062472 0 12.995061980695096 0 1 0 I I #
point $-1 40.963164159062458 28.14653304875209 2.8920310873430566 #
point $-1 40.963164159062472 28.14653304875209 12.995061980695096 #
point $-1 33.771431915114789 20.718374185399689 5.668319137847881 #
point $-1 38.086471261483396 20.718374185399689 5.668319137847881 #
straight-curve $-1 -29.38206422798352 -28.14653304875209 28.914746194250675 0 0 -1 I I #
point $-1 -29.38206422798352 -28.14653304875209 12.995061980695096 #
straight-curve $-1 -10.976584219608174 -28.14653304875209 3.0100793977324471 1 0 0 I I #
point $-1 -29.38206422798352 -28.14653304875209 3.0100793977324463 #
point $-1 -21.953168439216348 -13.634501548557857 -1.0165713419214804 #
straight-curve $-1 5.7905499655394754 -28.14653304875209 28.914746194250675 0 0 -1 I I #
point $-1 5.7905499655394754 -28.14653304875209 12.995061980695096 #
straight-curve $-1 6.6097228771533239 -28.14653304875209 3.0100793977324471 1 0 0 I I #
point $-1 5.7905499655394754 -28.14653304875209 3.0100793977324463 #
point $-1 13.219445754306648 -13.634501548557857 -1.0165713419214804 #
straight-curve $-1 -40.963164159062472 0 -12.995061980695096 0 1 0 I I #
point $-1 -40.963164159062472 -28.14653304875209 -12.995061980695096 #
point $-1 -40.963164159062472 28.14653304875209 -12.995061980695096 #
End-of-ACIS-data 