500 0 10 0           
7 Unknown 11 ACIS 5.0 NT 24 Thu Mar 25 16:01:28 1999 
-1 9.9999999999999995e-007 1e-010 
body $-1 $10 $-1 $11 #
body $-1 $12 $-1 $13 #
body $-1 $14 $-1 $15 #
body $-1 $16 $-1 $17 #
body $-1 $18 $-1 $19 #
body $-1 $20 $-1 $21 #
body $-1 $22 $-1 $23 #
body $-1 $24 $-1 $25 #
body $-1 $26 $-1 $27 #
body $-1 $28 $-1 $29 #
lump $-1 $-1 $30 $0 #
transform $-1 1 0 0 0 1 0 0 0 1 50.018616290780358 31.212978197751745 7.7263242335875857 1 rotate no_reflect no_shear #
lump $-1 $-1 $31 $1 #
transform $-1 1 0 0 0 1 0 0 0 1 50.018616290780358 31.212978197751745 7.7263242335875857 1 rotate no_reflect no_shear #
lump $-1 $-1 $32 $2 #
transform $-1 1 0 0 0 1 0 0 0 1 50.018616290780358 31.212978197751745 7.7263242335875857 1 rotate no_reflect no_shear #
lump $-1 $-1 $33 $3 #
transform $-1 1 0 0 0 1 0 0 0 1 50.018616290780358 31.212978197751745 7.7263242335875857 1 rotate no_reflect no_shear #
lump $-1 $-1 $34 $4 #
transform $-1 1 0 0 0 1 0 0 0 1 50.018616290780358 31.212978197751745 7.7263242335875857 1 rotate no_reflect no_shear #
lump $-1 $-1 $35 $5 #
transform $-1 1 0 0 0 1 0 0 0 1 50.018616290780358 31.212978197751745 7.7263242335875857 1 rotate no_reflect no_shear #
lump $-1 $-1 $36 $6 #
transform $-1 1 0 0 0 1 0 0 0 1 50.018616290780358 31.212978197751745 7.7263242335875857 1 rotate no_reflect no_shear #
lump $-1 $-1 $37 $7 #
transform $-1 1 0 0 0 1 0 0 0 1 50.018616290780358 31.212978197751745 7.7263242335875857 1 rotate no_reflect no_shear #
lump $-1 $-1 $38 $8 #
transform $-1 1 0 0 0 1 0 0 0 1 50.018616290780358 31.212978197751745 7.7263242335875857 1 rotate no_reflect no_shear #
lump $-1 $-1 $39 $9 #
transform $-1 1 0 0 0 1 0 0 0 1 50.018616290780358 31.212978197751745 7.7263242335875857 1 rotate no_reflect no_shear #
shell $-1 $-1 $-1 $40 $-1 $10 #
shell $-1 $-1 $-1 $41 $-1 $12 #
shell $-1 $-1 $-1 $42 $-1 $14 #
shell $-1 $-1 $-1 $43 $-1 $16 #
shell $-1 $-1 $-1 $44 $-1 $18 #
shell $-1 $-1 $-1 $45 $-1 $20 #
shell $-1 $-1 $-1 $46 $-1 $22 #
shell $-1 $-1 $-1 $47 $-1 $24 #
shell $-1 $-1 $-1 $48 $-1 $26 #
shell $-1 $-1 $-1 $49 $-1 $28 #
face $-1 $50 $51 $30 $-1 $52 forward single #
face $-1 $53 $54 $31 $-1 $55 forward single #
face $-1 $56 $57 $32 $-1 $58 reversed single #
face $-1 $59 $60 $33 $-1 $61 forward single #
face $-1 $62 $63 $34 $-1 $64 reversed single #
face $-1 $65 $66 $35 $-1 $67 forward single #
face $-1 $68 $69 $36 $-1 $70 forward single #
face $-1 $71 $72 $37 $-1 $73 reversed single #
face $-1 $74 $75 $38 $-1 $76 forward single #
face $-1 $77 $78 $39 $-1 $79 forward single #
face $-1 $80 $81 $30 $-1 $82 reversed single #
loop $-1 $-1 $83 $40 #
plane-surface $-1 0 0 7.7263242335875857 0 0 1 1 0 0 forward_v I I I I #
face $-1 $84 $85 $31 $-1 $86 reversed single #
loop $-1 $-1 $87 $41 #
plane-surface $-1 -50.018616290780358 0 0 1 0 0 0 0 -1 forward_v I I I I #
face $-1 $88 $89 $32 $-1 $90 reversed single #
loop $-1 $-1 $91 $42 #
plane-surface $-1 16.279819002568708 45.654369799463545 120.90404328472165 1 0 0 0 -0.62932039886446345 -0.77714595512881146 forward_v I I I I #
face $-1 $92 $93 $33 $-1 $94 forward single #
loop $-1 $95 $96 $43 #
cone-surface $-1 29.651533653827727 27.764491717748303 4.4788237669670821 0 -0.62932039886446345 -0.77714595512881146 1.5 0 0 1 I I 0 1 1.5 forward I I I I #
face $-1 $97 $98 $34 $-1 $99 reversed single #
loop $-1 $-1 $100 $44 #
plane-surface $-1 -25.305086866714468 -85.697160730398508 85.420450835491948 -1 0 0 0 -0.54463904215088732 0.83867056331134215 forward_v I I I I #
face $-1 $101 $102 $35 $-1 $103 forward single #
loop $-1 $104 $105 $45 #
cone-surface $-1 -35.292656349640474 -24.955277654247837 2.3438300950065298 0 0.54463904215088732 -0.83867056331134215 1.5 0 0 1 I I 0 1 1.5 forward I I I I #
face $-1 $106 $107 $36 $-1 $108 forward single #
loop $-1 $109 $110 $46 #
cone-surface $-1 -29.300114659884869 -24.955277654247837 2.3438300950065298 0 0.54463904215088732 -0.83867056331134215 1.5 0 0 1 I I 0 1 1.5 forward I I I I #
face $-1 $111 $112 $37 $-1 $113 reversed single #
loop $-1 $-1 $114 $47 #
plane-surface $-1 46.697471245209996 -85.697160730398508 85.420450835491948 -1 0 0 0 -0.54463904215088732 0.83867056331134215 forward_v I I I I #
face $-1 $115 $116 $38 $-1 $117 forward single #
loop $-1 $118 $119 $48 #
cone-surface $-1 36.709901762283977 -24.955277654247837 2.3438300950065298 0 0.54463904215088732 -0.83867056331134215 1.5 0 0 1 I I 0 1 1.5 forward I I I I #
face $-1 $120 $121 $39 $-1 $122 forward single #
loop $-1 $123 $124 $49 #
cone-surface $-1 42.702443452039589 -24.955277654247837 2.3438300950065298 0 0.54463904215088732 -0.83867056331134215 1.5 0 0 1 I I 0 1 1.5 forward I I I I #
face $-1 $125 $126 $30 $-1 $127 reversed single #
loop $-1 $-1 $128 $50 #
plane-surface $-1 0 0 -7.7263242335875857 0 0 1 1 0 0 forward_v I I I I #
coedge $-1 $129 $130 $131 $132 forward $51 $-1 #
face $-1 $133 $134 $31 $-1 $135 forward single #
loop $-1 $-1 $136 $53 #
plane-surface $-1 0 31.212978197751745 0 0 -1 0 0 0 -1 forward_v I I I I #
coedge $-1 $137 $138 $139 $140 forward $54 $-1 #
face $-1 $141 $142 $32 $-1 $143 reversed single #
loop $-1 $-1 $144 $56 #
plane-surface $-1 29.651533653827727 -17.301101310061341 43.16051262168159 0 0.62932039886446345 0.77714595512881146 1 0 0 forward_v I I I I #
coedge $-1 $145 $146 $147 $148 reversed $57 $-1 #
face $-1 $-1 $149 $33 $-1 $150 forward single #
loop $-1 $151 $152 $59 #
cone-surface $-1 29.651533653827727 26.222265900047049 2.5743335291099081 0 -0.62932039886446345 -0.77714595512881146 0.75 0 0 1 I I -0.70710678118654768 0.70710678118654735 0.75 forward I I I I #
loop $-1 $-1 $153 $43 #
coedge $-1 $96 $96 $154 $155 reversed $60 $-1 #
face $-1 $156 $157 $34 $-1 $158 reversed single #
loop $-1 $-1 $159 $62 #
plane-surface $-1 -32.296385504762675 -31.212978197751745 1.5221686342066789 0 -0.54463904215088732 0.83867056331134215 1 0 0 forward_v I I I I #
coedge $-1 $160 $161 $162 $163 reversed $63 $-1 #
face $-1 $-1 $164 $35 $-1 $165 forward single #
loop $-1 $166 $167 $65 #
cone-surface $-1 -35.292656349640474 -23.065878658921605 -0.56558916636757317 0 0.54463904215088732 -0.83867056331134215 0.75 0 0 1 I I -0.70710678118654757 0.70710678118654757 0.75 forward I I I I #
loop $-1 $-1 $168 $45 #
coedge $-1 $105 $105 $169 $170 reversed $66 $-1 #
face $-1 $-1 $171 $36 $-1 $172 forward single #
loop $-1 $173 $174 $68 #
cone-surface $-1 -29.300114659884869 -23.065878658921605 -0.56558916636757317 0 0.54463904215088732 -0.83867056331134215 0.75 0 0 1 I I -0.70710678118654757 0.70710678118654757 0.75 forward I I I I #
loop $-1 $-1 $175 $46 #
coedge $-1 $110 $110 $176 $177 reversed $69 $-1 #
face $-1 $178 $179 $37 $-1 $180 reversed single #
loop $-1 $-1 $181 $71 #
plane-surface $-1 39.70617260716179 -31.212978197751745 1.5221686342066789 0 -0.54463904215088732 0.83867056331134215 1 0 0 forward_v I I I I #
coedge $-1 $182 $183 $184 $185 reversed $72 $-1 #
face $-1 $-1 $186 $38 $-1 $187 forward single #
loop $-1 $188 $189 $74 #
cone-surface $-1 36.709901762283977 -23.065878658921605 -0.56558916636757317 0 0.54463904215088732 -0.83867056331134215 0.75 0 0 1 I I -0.70710678118654757 0.70710678118654757 0.75 forward I I I I #
loop $-1 $-1 $190 $48 #
coedge $-1 $119 $119 $191 $192 reversed $75 $-1 #
face $-1 $-1 $193 $39 $-1 $194 forward single #
loop $-1 $195 $196 $77 #
cone-surface $-1 42.702443452039589 -23.065878658921605 -0.56558916636757317 0 0.54463904215088732 -0.83867056331134215 0.75 0 0 1 I I -0.70710678118654757 0.70710678118654757 0.75 forward I I I I #
loop $-1 $-1 $197 $49 #
coedge $-1 $124 $124 $198 $199 reversed $78 $-1 #
face $-1 $200 $201 $30 $-1 $202 reversed single #
loop $-1 $-1 $203 $80 #
plane-surface $-1 0 -31.212978197751745 0 0 1 0 0 0 1 forward_v I I I I #
coedge $-1 $204 $205 $206 $207 forward $81 $-1 #
coedge $-1 $208 $83 $209 $210 forward $51 $-1 #
coedge $-1 $83 $208 $211 $212 forward $51 $-1 #
coedge $-1 $213 $214 $83 $132 reversed $215 $-1 #
edge $-1 $216 -31.212978197751745 $217 31.212978197751745 $131 $218 forward 7 unknown #
face $-1 $219 $220 $31 $-1 $221 reversed single #
loop $-1 $-1 $139 $84 #
plane-surface $-1 -53.723509841979912 0 4.5825034075779127 0 0 1 1 0 0 forward_v I I I I #
coedge $-1 $222 $223 $138 $224 forward $85 $-1 #
coedge $-1 $225 $87 $226 $227 reversed $54 $-1 #
coedge $-1 $87 $225 $136 $224 reversed $54 $-1 #
coedge $-1 $228 $229 $87 $140 reversed $134 $-1 #
edge $-1 $230 -31.212978197751745 $231 31.212978197751745 $139 $232 forward 7 unknown #
face $-1 $233 $234 $32 $-1 $235 forward single #
loop $-1 $-1 $236 $88 #
plane-surface $-1 43.023248305086746 45.654369799463545 120.90404328472165 -1 0 0 0 0.62932039886446345 0.77714595512881146 forward_v I I I I #
coedge $-1 $237 $238 $239 $240 reversed $89 $-1 #
coedge $-1 $146 $91 $241 $242 reversed $57 $-1 #
coedge $-1 $91 $145 $237 $243 reversed $57 $-1 #
coedge $-1 $239 $244 $91 $148 forward $234 $-1 #
edge $-1 $245 -8.3857932980199728 $246 -3.6292913751189424 $147 $247 forward 7 unknown #
loop $-1 $-1 $154 $92 #
plane-surface $-1 29.651533653827727 -17.301101310061341 43.16051262168159 0 0.62932039886446345 0.77714595512881146 1 0 0 forward_v I I I I #
loop $-1 $-1 $248 $59 #
coedge $-1 $152 $152 $153 $249 reversed $93 $-1 #
coedge $-1 $153 $153 $152 $249 forward $95 $-1 #
coedge $-1 $154 $154 $96 $155 forward $149 $-1 #
edge $-1 $250 -1.0053411895908183e-015 $250 6.2831853071795996 $154 $251 forward 7 unknown #
face $-1 $252 $253 $34 $-1 $254 reversed single #
loop $-1 $-1 $255 $97 #
plane-surface $-1 -39.287684142810882 -85.697160730398508 85.420450835491948 1 0 0 0 0.54463904215088732 -0.83867056331134215 forward_v I I I I #
coedge $-1 $256 $257 $258 $259 reversed $98 $-1 #
coedge $-1 $161 $100 $260 $261 reversed $63 $-1 #
coedge $-1 $100 $160 $256 $262 reversed $63 $-1 #
coedge $-1 $258 $263 $100 $163 forward $264 $-1 #
edge $-1 $265 11.635602167447509 $266 21.18916382702918 $162 $267 forward 7 unknown #
loop $-1 $-1 $169 $101 #
plane-surface $-1 -32.296385504762675 -31.212978197751745 1.5221686342066789 0 -0.54463904215088732 0.83867056331134215 1 0 0 forward_v I I I I #
loop $-1 $-1 $268 $65 #
coedge $-1 $167 $167 $168 $269 reversed $102 $-1 #
coedge $-1 $168 $168 $167 $269 forward $104 $-1 #
coedge $-1 $169 $169 $105 $170 forward $164 $-1 #
edge $-1 $270 7.4783088461426891e-016 $270 6.2831853071796013 $169 $271 forward 7 unknown #
loop $-1 $-1 $176 $106 #
plane-surface $-1 -32.296385504762675 -31.212978197751745 1.5221686342066789 0 -0.54463904215088732 0.83867056331134215 1 0 0 forward_v I I I I #
loop $-1 $-1 $272 $68 #
coedge $-1 $174 $174 $175 $273 reversed $107 $-1 #
coedge $-1 $175 $175 $174 $273 forward $109 $-1 #
coedge $-1 $176 $176 $110 $177 forward $171 $-1 #
edge $-1 $274 7.4783088461426891e-016 $274 6.2831853071796013 $176 $275 forward 7 unknown #
face $-1 $276 $277 $37 $-1 $278 reversed single #
loop $-1 $-1 $279 $111 #
plane-surface $-1 32.714873969113583 -85.697160730398508 85.420450835491948 1 0 0 0 0.54463904215088732 -0.83867056331134215 forward_v I I I I #
coedge $-1 $280 $281 $282 $283 reversed $112 $-1 #
coedge $-1 $183 $114 $284 $285 reversed $72 $-1 #
coedge $-1 $114 $182 $280 $286 reversed $72 $-1 #
coedge $-1 $282 $287 $114 $185 forward $288 $-1 #
edge $-1 $289 11.635602167447509 $290 21.18916382702918 $184 $291 forward 7 unknown #
loop $-1 $-1 $191 $115 #
plane-surface $-1 39.70617260716179 -31.212978197751745 1.5221686342066789 0 -0.54463904215088732 0.83867056331134215 1 0 0 forward_v I I I I #
loop $-1 $-1 $292 $74 #
coedge $-1 $189 $189 $190 $293 reversed $116 $-1 #
coedge $-1 $190 $190 $189 $293 forward $118 $-1 #
coedge $-1 $191 $191 $119 $192 forward $186 $-1 #
edge $-1 $294 7.4783088461426891e-016 $294 6.2831853071796013 $191 $295 forward 7 unknown #
loop $-1 $-1 $198 $120 #
plane-surface $-1 39.70617260716179 -31.212978197751745 1.5221686342066789 0 -0.54463904215088732 0.83867056331134215 1 0 0 forward_v I I I I #
loop $-1 $-1 $296 $77 #
coedge $-1 $196 $196 $197 $297 reversed $121 $-1 #
coedge $-1 $197 $197 $196 $297 forward $123 $-1 #
coedge $-1 $198 $198 $124 $199 forward $193 $-1 #
edge $-1 $298 7.4783088461426891e-016 $298 6.2831853071796013 $198 $299 forward 7 unknown #
face $-1 $300 $301 $30 $-1 $302 reversed single #
loop $-1 $-1 $303 $125 #
plane-surface $-1 -50.018616290780358 0 0 1 0 0 0 0 -1 forward_v I I I I #
coedge $-1 $304 $211 $303 $305 forward $126 $-1 #
coedge $-1 $306 $128 $304 $307 forward $81 $-1 #
coedge $-1 $128 $306 $308 $309 forward $81 $-1 #
coedge $-1 $214 $213 $128 $207 reversed $215 $-1 #
edge $-1 $310 -31.212978197751745 $311 31.212978197751745 $206 $312 forward 7 unknown #
coedge $-1 $130 $129 $313 $314 forward $51 $-1 #
coedge $-1 $315 $316 $129 $210 reversed $301 $-1 #
edge $-1 $217 -50.018616290780358 $317 50.018616290780358 $209 $318 forward 7 unknown #
coedge $-1 $203 $319 $130 $212 reversed $126 $-1 #
edge $-1 $320 -50.018616290780358 $216 50.018616290780358 $211 $321 forward 7 unknown #
coedge $-1 $206 $131 $319 $322 forward $215 $-1 #
coedge $-1 $131 $206 $315 $323 reversed $215 $-1 #
loop $-1 $-1 $213 $300 #
vertex $-1 $132 $324 #
vertex $-1 $132 $325 #
straight-curve $-1 50.018616290780358 0 7.7263242335875857 0 1 0 I I #
face $-1 $326 $327 $31 $-1 $328 reversed single #
loop $-1 $-1 $329 $133 #
plane-surface $-1 -53.723509841979912 0 1.4241116543135837 0 0 1 1 0 0 forward_v I I I I #
coedge $-1 $330 $136 $331 $332 reversed $85 $-1 #
coedge $-1 $136 $330 $228 $333 reversed $85 $-1 #
edge $-1 $230 -4.5825034075779127 $334 -1.4241116543135837 $136 $335 forward 7 unknown #
coedge $-1 $138 $137 $329 $336 forward $54 $-1 #
coedge $-1 $337 $338 $137 $227 forward $339 $-1 #
edge $-1 $340 1.4241116543135837 $231 4.5825034075779127 $226 $341 forward 7 unknown #
coedge $-1 $342 $139 $223 $333 forward $134 $-1 #
coedge $-1 $139 $342 $337 $343 forward $134 $-1 #
vertex $-1 $224 $344 #
vertex $-1 $343 $345 #
straight-curve $-1 -50.018616290780358 0 4.5825034075779127 0 -1 0 I I #
face $-1 $-1 $346 $32 $-1 $347 reversed single #
loop $-1 $-1 $147 $141 #
plane-surface $-1 0 0 7.7263242335875857 0 0 1 1 0 0 forward_v I I I I #
coedge $-1 $348 $349 $350 $351 reversed $142 $-1 #
coedge $-1 $352 $144 $146 $243 forward $89 $-1 #
coedge $-1 $144 $352 $348 $353 forward $89 $-1 #
coedge $-1 $350 $147 $144 $240 forward $234 $-1 #
edge $-1 $246 1.4540521756548443 $354 28.197481478172882 $239 $355 forward 7 unknown #
coedge $-1 $356 $357 $145 $242 forward $346 $-1 #
edge $-1 $358 -56.577436798993084 $245 -52.725697408773243 $241 $359 forward 7 unknown #
edge $-1 $246 56.305481996183403 $358 62.425956395503476 $146 $360 forward 7 unknown #
coedge $-1 $147 $350 $356 $361 forward $234 $-1 #
vertex $-1 $242 $362 #
vertex $-1 $148 $363 #
straight-curve $-1 16.279819002568708 22.827184899731773 7.726324233587583 0 -1 0 I I #
coedge $-1 $248 $248 $-1 $364 reversed $151 $-1 #
edge $-1 $365 0 $365 6.2831853071796004 $152 $366 forward 7 unknown #
vertex $-1 $155 $367 #
ellipse-curve $-1 29.651533653827727 28.834727236301227 5.8004545384776671 0 0.62932039886446345 0.77714595512881146 1.5 0 0 1 I I #
face $-1 $-1 $264 $34 $-1 $368 forward single #
loop $-1 $-1 $369 $156 #
plane-surface $-1 0 -31.212978197751745 0 0 1 0 0 0 1 forward_v I I I I #
coedge $-1 $370 $371 $372 $373 reversed $157 $-1 #
coedge $-1 $374 $159 $161 $262 forward $98 $-1 #
coedge $-1 $159 $374 $370 $375 forward $98 $-1 #
coedge $-1 $372 $162 $159 $259 forward $264 $-1 #
edge $-1 $266 9.1568941143331308 $376 23.139491390429544 $258 $377 forward 7 unknown #
coedge $-1 $378 $379 $160 $261 forward $253 $-1 #
edge $-1 $380 -41.188056783539295 $265 -34.983901184158391 $260 $381 forward 7 unknown #
edge $-1 $266 -11.391316301672882 $380 0 $161 $382 forward 7 unknown #
coedge $-1 $162 $372 $378 $383 forward $264 $-1 #
loop $-1 $-1 $372 $252 #
vertex $-1 $261 $384 #
vertex $-1 $163 $385 #
straight-curve $-1 -25.305086866714468 -42.848580365199254 7.726324233587583 0 1 0 I I #
coedge $-1 $268 $268 $-1 $386 reversed $166 $-1 #
edge $-1 $387 0 $387 6.2831853071796004 $167 $388 forward 7 unknown #
vertex $-1 $170 $389 #
ellipse-curve $-1 -35.292656349640474 -26.436197367960908 4.6242464338971345 0 -0.54463904215088732 0.83867056331134215 1.5 0 0 1 I I #
coedge $-1 $272 $272 $-1 $390 reversed $173 $-1 #
edge $-1 $391 0 $391 6.2831853071796004 $174 $392 forward 7 unknown #
vertex $-1 $177 $393 #
ellipse-curve $-1 -29.300114659884869 -26.436197367960908 4.6242464338971345 0 -0.54463904215088732 0.83867056331134215 1.5 0 0 1 I I #
face $-1 $-1 $288 $37 $-1 $394 forward single #
loop $-1 $-1 $395 $178 #
plane-surface $-1 0 -31.212978197751745 0 0 1 0 0 0 1 forward_v I I I I #
coedge $-1 $396 $397 $398 $399 reversed $179 $-1 #
coedge $-1 $400 $181 $183 $286 forward $112 $-1 #
coedge $-1 $181 $400 $396 $401 forward $112 $-1 #
coedge $-1 $398 $184 $181 $283 forward $288 $-1 #
edge $-1 $290 -26.844384941629102 $402 -12.861787665532688 $282 $403 forward 7 unknown #
coedge $-1 $404 $405 $182 $285 forward $277 $-1 #
edge $-1 $406 -41.188056783539295 $289 -34.983901184158391 $284 $407 forward 7 unknown #
edge $-1 $290 -11.391316301672882 $406 0 $183 $408 forward 7 unknown #
coedge $-1 $184 $398 $404 $409 forward $288 $-1 #
loop $-1 $-1 $398 $276 #
vertex $-1 $285 $410 #
vertex $-1 $185 $411 #
straight-curve $-1 46.697471245209996 -42.848580365199254 7.726324233587583 0 1 0 I I #
coedge $-1 $292 $292 $-1 $412 reversed $188 $-1 #
edge $-1 $413 0 $413 6.2831853071796004 $189 $414 forward 7 unknown #
vertex $-1 $192 $415 #
ellipse-curve $-1 36.709901762283977 -26.436197367960908 4.6242464338971345 0 -0.54463904215088732 0.83867056331134215 1.5 0 0 1 I I #
coedge $-1 $296 $296 $-1 $416 reversed $195 $-1 #
edge $-1 $417 0 $417 6.2831853071796004 $196 $418 forward 7 unknown #
vertex $-1 $199 $419 #
ellipse-curve $-1 42.702443452039589 -26.436197367960908 4.6242464338971345 0 -0.54463904215088732 0.83867056331134215 1.5 0 0 1 I I #
face $-1 $-1 $215 $30 $-1 $420 reversed single #
loop $-1 $-1 $315 $200 #
plane-surface $-1 0 31.212978197751745 0 0 -1 0 0 0 -1 forward_v I I I I #
coedge $-1 $313 $421 $203 $305 reversed $201 $-1 #
coedge $-1 $319 $203 $204 $307 reversed $126 $-1 #
edge $-1 $320 -7.7263242335875857 $422 7.7263242335875857 $303 $423 forward 7 unknown #
coedge $-1 $205 $204 $421 $424 forward $81 $-1 #
edge $-1 $311 -50.018616290780358 $422 50.018616290780358 $304 $425 forward 7 unknown #
coedge $-1 $316 $315 $205 $309 reversed $301 $-1 #
edge $-1 $426 -50.018616290780358 $310 50.018616290780358 $308 $427 forward 7 unknown #
vertex $-1 $207 $428 #
vertex $-1 $322 $429 #
straight-curve $-1 50.018616290780358 0 -7.7263242335875857 0 -1 0 I I #
coedge $-1 $430 $303 $208 $314 reversed $201 $-1 #
edge $-1 $317 -31.212978197751745 $320 31.212978197751745 $313 $431 forward 7 unknown #
coedge $-1 $308 $209 $214 $323 forward $301 $-1 #
coedge $-1 $209 $308 $430 $432 reversed $301 $-1 #
vertex $-1 $210 $433 #
straight-curve $-1 0 31.212978197751745 7.7263242335875857 -1 0 0 I I #
coedge $-1 $211 $304 $213 $322 reversed $126 $-1 #
vertex $-1 $314 $434 #
straight-curve $-1 0 -31.212978197751745 7.7263242335875857 1 0 0 I I #
edge $-1 $216 -7.7263242335875857 $311 7.7263242335875857 $213 $435 forward 7 unknown #
edge $-1 $217 -7.7263242335875857 $310 7.7263242335875857 $214 $436 forward 7 unknown #
point $-1 50.018616290780358 -31.212978197751745 7.7263242335875857 #
point $-1 50.018616290780358 31.212978197751745 7.7263242335875857 #
face $-1 $-1 $339 $31 $-1 $437 reversed single #
loop $-1 $-1 $438 $219 #
plane-surface $-1 -57.428403393179465 0 3.0033075309457482 1 0 0 0 0 -1 forward_v I I I I #
coedge $-1 $439 $331 $225 $336 reversed $220 $-1 #
coedge $-1 $223 $222 $438 $440 reversed $85 $-1 #
coedge $-1 $329 $441 $222 $332 forward $220 $-1 #
edge $-1 $442 -3.7048935511995538 $334 3.7048935511995538 $222 $443 forward 7 unknown #
edge $-1 $230 -3.7048935511995538 $444 3.7048935511995538 $223 $445 forward 7 unknown #
vertex $-1 $224 $446 #
straight-curve $-1 -50.018616290780358 31.212978197751745 0 0 0 -1 I I #
edge $-1 $340 -31.212978197751745 $334 31.212978197751745 $329 $447 forward 7 unknown #
coedge $-1 $448 $226 $229 $343 reversed $339 $-1 #
coedge $-1 $226 $448 $439 $449 reversed $339 $-1 #
loop $-1 $-1 $226 $326 #
vertex $-1 $227 $450 #
straight-curve $-1 -50.018616290780358 -31.212978197751745 0 0 0 1 I I #
coedge $-1 $229 $228 $451 $452 forward $134 $-1 #
edge $-1 $453 -3.7048935511995538 $231 3.7048935511995538 $337 $454 forward 7 unknown #
point $-1 -50.018616290780358 31.212978197751745 4.5825034075779127 #
point $-1 -50.018616290780358 -31.212978197751745 4.5825034075779127 #
loop $-1 $-1 $241 $233 #
plane-surface $-1 0 31.212978197751745 0 0 -1 0 0 0 -1 forward_v I I I I #
coedge $-1 $349 $236 $238 $353 reversed $142 $-1 #
coedge $-1 $236 $348 $455 $456 reversed $142 $-1 #
coedge $-1 $244 $239 $236 $351 forward $234 $-1 #
edge $-1 $354 3.6292913751189424 $457 8.3857932980199728 $350 $458 forward 7 unknown #
coedge $-1 $238 $237 $357 $459 reversed $89 $-1 #
edge $-1 $460 -62.425956395503476 $354 -56.305481996183403 $348 $461 forward 7 unknown #
vertex $-1 $240 $462 #
straight-curve $-1 14.825766826913863 26.456476274850708 7.7263242335875866 1 0 0 I I #
coedge $-1 $455 $241 $244 $361 reversed $346 $-1 #
coedge $-1 $241 $455 $352 $459 forward $346 $-1 #
vertex $-1 $242 $463 #
straight-curve $-1 16.279819002568708 31.212978197751745 60.452021642360826 0 0 1 I I #
straight-curve $-1 16.279819002568708 -17.301101310061341 43.16051262168159 0 0.77714595512881146 -0.62932039886446345 I I #
edge $-1 $457 -43.023248305086746 $245 -16.279819002568708 $356 $464 forward 7 unknown #
point $-1 16.279819002568708 31.212978197751745 7.7263242335875857 #
point $-1 16.279819002568708 26.456476274850715 7.726324233587583 #
edge $-1 $465 1 $465 0 $248 $-1 forward 7 unknown #
vertex $-1 $249 $466 #
ellipse-curve $-1 29.651533653827727 26.694256199195397 3.1571929954565165 0 0.62932039886446345 0.77714595512881146 1.5 0 0 1 I I #
point $-1 31.151533653827727 28.834727236301209 5.8004545384776476 #
plane-surface $-1 0 0 7.7263242335875857 0 0 1 1 0 0 forward_v I I I I #
coedge $-1 $379 $378 $371 $467 forward $253 $-1 #
coedge $-1 $371 $255 $257 $375 reversed $157 $-1 #
coedge $-1 $255 $370 $369 $467 reversed $157 $-1 #
coedge $-1 $263 $258 $255 $373 forward $264 $-1 #
edge $-1 $376 -21.18916382702918 $468 -11.635602167447509 $372 $469 forward 7 unknown #
coedge $-1 $257 $256 $379 $470 reversed $98 $-1 #
edge $-1 $471 0 $376 11.391316301672882 $370 $472 forward 7 unknown #
vertex $-1 $259 $473 #
straight-curve $-1 -16.148192752381338 -21.659416538170074 7.7263242335875857 -1 0 0 I I #
coedge $-1 $369 $260 $263 $383 reversed $253 $-1 #
coedge $-1 $260 $369 $374 $470 forward $253 $-1 #
vertex $-1 $261 $474 #
straight-curve $-1 -25.305086866714468 -31.212978197751745 42.710225417745974 0 0 1 I I #
straight-curve $-1 -25.305086866714468 -31.212978197751745 1.5221686342066789 0 -0.83867056331134215 -0.54463904215088732 I I #
edge $-1 $468 -39.287684142810882 $265 -25.305086866714468 $378 $475 forward 7 unknown #
point $-1 -25.305086866714468 -31.212978197751745 7.7263242335875857 #
point $-1 -25.305086866714468 -21.659416538170074 7.7263242335875857 #
edge $-1 $476 1 $476 0 $268 $-1 forward 7 unknown #
vertex $-1 $269 $477 #
ellipse-curve $-1 -35.292656349640474 -23.47435794053477 0.063413756115933473 0 -0.54463904215088732 0.83867056331134215 1.5 0 0 1 I I #
point $-1 -33.792656349640474 -26.436197367960901 4.6242464338971256 #
edge $-1 $478 1 $478 0 $272 $-1 forward 7 unknown #
vertex $-1 $273 $479 #
ellipse-curve $-1 -29.300114659884869 -23.47435794053477 0.063413756115933473 0 -0.54463904215088732 0.83867056331134215 1.5 0 0 1 I I #
point $-1 -27.800114659884869 -26.436197367960901 4.6242464338971256 #
plane-surface $-1 0 0 7.7263242335875857 0 0 1 1 0 0 forward_v I I I I #
coedge $-1 $405 $404 $397 $480 forward $277 $-1 #
coedge $-1 $397 $279 $281 $401 reversed $179 $-1 #
coedge $-1 $279 $396 $395 $480 reversed $179 $-1 #
coedge $-1 $287 $282 $279 $399 forward $288 $-1 #
edge $-1 $402 -21.18916382702918 $481 -11.635602167447509 $398 $482 forward 7 unknown #
coedge $-1 $281 $280 $405 $483 reversed $112 $-1 #
edge $-1 $484 0 $402 11.391316301672882 $396 $485 forward 7 unknown #
vertex $-1 $283 $486 #
straight-curve $-1 19.853086303580895 -21.659416538170074 7.7263242335875857 -1 0 0 I I #
coedge $-1 $395 $284 $287 $409 reversed $277 $-1 #
coedge $-1 $284 $395 $400 $483 forward $277 $-1 #
vertex $-1 $285 $487 #
straight-curve $-1 46.697471245209996 -31.212978197751745 42.710225417745974 0 0 1 I I #
straight-curve $-1 46.697471245209996 -31.212978197751745 1.5221686342066789 0 -0.83867056331134215 -0.54463904215088732 I I #
edge $-1 $481 32.714873969113583 $289 46.697471245209996 $404 $488 forward 7 unknown #
point $-1 46.697471245209996 -31.212978197751745 7.7263242335875857 #
point $-1 46.697471245209996 -21.659416538170074 7.7263242335875857 #
edge $-1 $489 1 $489 0 $292 $-1 forward 7 unknown #
vertex $-1 $293 $490 #
ellipse-curve $-1 36.709901762283977 -23.47435794053477 0.063413756115933473 0 -0.54463904215088732 0.83867056331134215 1.5 0 0 1 I I #
point $-1 38.209901762283977 -26.436197367960901 4.6242464338971256 #
edge $-1 $491 1 $491 0 $296 $-1 forward 7 unknown #
vertex $-1 $297 $492 #
ellipse-curve $-1 42.702443452039589 -23.47435794053477 0.063413756115933473 0 -0.54463904215088732 0.83867056331134215 1.5 0 0 1 I I #
point $-1 44.202443452039589 -26.436197367960901 4.6242464338971256 #
plane-surface $-1 50.018616290780358 0 0 -1 0 0 0 0 1 forward_v I I I I #
coedge $-1 $303 $430 $306 $424 reversed $201 $-1 #
vertex $-1 $424 $493 #
straight-curve $-1 -50.018616290780358 -31.212978197751745 0 0 0 -1 I I #
edge $-1 $422 -31.212978197751745 $426 31.212978197751745 $421 $494 forward 7 unknown #
straight-curve $-1 0 -31.212978197751745 -7.7263242335875857 -1 0 0 I I #
vertex $-1 $309 $495 #
straight-curve $-1 0 31.212978197751745 -7.7263242335875857 1 0 0 I I #
point $-1 50.018616290780358 31.212978197751745 -7.7263242335875857 #
point $-1 50.018616290780358 -31.212978197751745 -7.7263242335875857 #
coedge $-1 $421 $313 $316 $432 forward $201 $-1 #
straight-curve $-1 -50.018616290780358 0 7.7263242335875857 0 -1 0 I I #
edge $-1 $317 -7.7263242335875857 $426 7.7263242335875857 $316 $496 forward 7 unknown #
point $-1 -50.018616290780358 31.212978197751745 7.7263242335875857 #
point $-1 -50.018616290780358 -31.212978197751745 7.7263242335875857 #
straight-curve $-1 50.018616290780358 -31.212978197751745 0 0 0 -1 I I #
straight-curve $-1 50.018616290780358 31.212978197751745 0 0 0 -1 I I #
plane-surface $-1 0 -31.212978197751745 0 0 1 0 0 0 1 forward_v I I I I #
coedge $-1 $497 $451 $330 $440 forward $327 $-1 #
coedge $-1 $441 $329 $338 $449 forward $220 $-1 #
edge $-1 $444 -1.5791958766321645 $442 1.5791958766321645 $330 $498 forward 7 unknown #
coedge $-1 $331 $439 $497 $499 forward $220 $-1 #
vertex $-1 $332 $500 #
straight-curve $-1 -53.723509841979912 31.212978197751745 1.4241116543135837 1 0 0 I I #
vertex $-1 $333 $501 #
straight-curve $-1 -53.723509841979912 31.212978197751745 4.5825034075779127 -1 0 0 I I #
point $-1 -50.018616290780358 31.212978197751745 1.4241116543135837 #
straight-curve $-1 -50.018616290780358 0 1.4241116543135837 0 1 0 I I #
coedge $-1 $338 $337 $502 $503 forward $339 $-1 #
edge $-1 $340 -3.7048935511995538 $504 3.7048935511995538 $338 $505 forward 7 unknown #
point $-1 -50.018616290780358 -31.212978197751745 1.4241116543135837 #
coedge $-1 $438 $502 $342 $452 reversed $327 $-1 #
edge $-1 $444 -31.212978197751745 $453 31.212978197751745 $451 $506 forward 7 unknown #
vertex $-1 $452 $507 #
straight-curve $-1 -53.723509841979912 -31.212978197751745 4.5825034075779127 1 0 0 I I #
coedge $-1 $357 $356 $349 $456 forward $346 $-1 #
edge $-1 $457 52.725697408773243 $460 56.577436798993084 $455 $508 forward 7 unknown #
vertex $-1 $361 $509 #
straight-curve $-1 43.023248305086746 22.827184899731773 7.726324233587583 0 1 0 I I #
edge $-1 $460 -28.197481478172882 $358 -1.4540521756548443 $357 $510 forward 7 unknown #
vertex $-1 $459 $511 #
straight-curve $-1 43.023248305086746 -17.301101310061341 43.16051262168159 0 -0.77714595512881146 0.62932039886446345 I I #
point $-1 43.023248305086746 26.456476274850715 7.726324233587583 #
point $-1 16.279819002568708 31.212978197751745 3.8745848433677423 #
straight-curve $-1 0 31.212978197751745 7.7263242335875857 -1 0 0 I I #
vertex $-1 $364 $512 #
point $-1 31.151533653827727 26.694256199195397 3.1571929954565165 #
edge $-1 $468 34.983901184158391 $471 41.188056783539295 $369 $513 forward 7 unknown #
vertex $-1 $383 $514 #
straight-curve $-1 -39.287684142810882 -42.848580365199254 7.726324233587583 0 -1 0 I I #
edge $-1 $471 -23.139491390429544 $380 -9.1568941143331308 $379 $515 forward 7 unknown #
vertex $-1 $470 $516 #
straight-curve $-1 -39.287684142810882 -31.212978197751745 1.5221686342066789 0 0.83867056331134215 0.54463904215088732 I I #
point $-1 -39.287684142810882 -21.659416538170074 7.7263242335875857 #
point $-1 -25.305086866714468 -31.212978197751745 1.5221686342066789 #
straight-curve $-1 0 -31.212978197751745 7.7263242335875857 1 0 0 I I #
vertex $-1 $386 $517 #
point $-1 -33.792656349640474 -23.47435794053477 0.063413756115933473 #
vertex $-1 $390 $518 #
point $-1 -27.800114659884869 -23.47435794053477 0.063413756115933473 #
edge $-1 $481 34.983901184158391 $484 41.188056783539295 $395 $519 forward 7 unknown #
vertex $-1 $409 $520 #
straight-curve $-1 32.714873969113583 -42.848580365199254 7.726324233587583 0 -1 0 I I #
edge $-1 $484 12.861787665532688 $406 26.844384941629102 $405 $521 forward 7 unknown #
vertex $-1 $483 $522 #
straight-curve $-1 32.714873969113583 -31.212978197751745 1.5221686342066789 0 0.83867056331134215 0.54463904215088732 I I #
point $-1 32.714873969113583 -21.659416538170074 7.7263242335875857 #
point $-1 46.697471245209996 -31.212978197751745 1.5221686342066789 #
straight-curve $-1 0 -31.212978197751745 7.7263242335875857 1 0 0 I I #
vertex $-1 $412 $523 #
point $-1 38.209901762283977 -23.47435794053477 0.063413756115933473 #
vertex $-1 $416 $524 #
point $-1 44.202443452039589 -23.47435794053477 0.063413756115933473 #
point $-1 -50.018616290780358 -31.212978197751745 -7.7263242335875857 #
straight-curve $-1 -50.018616290780358 0 -7.7263242335875857 0 1 0 I I #
point $-1 -50.018616290780358 31.212978197751745 -7.7263242335875857 #
straight-curve $-1 -50.018616290780358 31.212978197751745 0 0 0 -1 I I #
coedge $-1 $502 $438 $441 $499 reversed $327 $-1 #
straight-curve $-1 -57.428403393179465 31.212978197751745 3.0033075309457482 0 0 -1 I I #
edge $-1 $504 -31.212978197751745 $442 31.212978197751745 $497 $525 forward 7 unknown #
point $-1 -57.428403393179465 31.212978197751745 1.4241116543135837 #
point $-1 -57.428403393179465 31.212978197751745 4.5825034075779127 #
coedge $-1 $451 $497 $448 $503 reversed $327 $-1 #
edge $-1 $453 -1.5791958766321645 $504 1.5791958766321645 $502 $526 forward 7 unknown #
vertex $-1 $499 $527 #
straight-curve $-1 -53.723509841979912 -31.212978197751745 1.4241116543135837 -1 0 0 I I #
straight-curve $-1 -57.428403393179465 0 4.5825034075779127 0 -1 0 I I #
point $-1 -57.428403393179465 -31.212978197751745 4.5825034075779127 #
straight-curve $-1 43.023248305086746 31.212978197751745 60.452021642360826 0 0 -1 I I #
point $-1 43.023248305086746 31.212978197751745 7.7263242335875857 #
straight-curve $-1 14.825766826913863 31.212978197751745 3.8745848433677352 -1 0 0 I I #
point $-1 43.023248305086746 31.212978197751745 3.8745848433677423 #
point $-1 29.651533653827727 25.7502756008987 1.9914740627632999 #
straight-curve $-1 -39.287684142810882 -31.212978197751745 42.710225417745974 0 0 -1 I I #
point $-1 -39.287684142810882 -31.212978197751745 7.7263242335875857 #
straight-curve $-1 -16.148192752381338 -31.212978197751745 1.5221686342066783 1 0 0 I I #
point $-1 -39.287684142810882 -31.212978197751745 1.5221686342066789 #
point $-1 -35.292656349640474 -22.65739937730844 -1.1945920888510799 #
point $-1 -29.300114659884869 -22.65739937730844 -1.1945920888510799 #
straight-curve $-1 32.714873969113583 -31.212978197751745 42.710225417745974 0 0 -1 I I #
point $-1 32.714873969113583 -31.212978197751745 7.7263242335875857 #
straight-curve $-1 19.853086303580895 -31.212978197751745 1.5221686342066783 1 0 0 I I #
point $-1 32.714873969113583 -31.212978197751745 1.5221686342066789 #
point $-1 36.709901762283977 -22.65739937730844 -1.1945920888510799 #
point $-1 42.702443452039589 -22.65739937730844 -1.1945920888510799 #
straight-curve $-1 -57.428403393179465 0 1.4241116543135837 0 1 0 I I #
straight-curve $-1 -57.428403393179465 -31.212978197751745 3.0033075309457482 0 0 -1 I I #
point $-1 -57.428403393179465 -31.212978197751745 1.4241116543135837 #
End-of-ACIS-data 