500 0 10 0           
7 Unknown 11 ACIS 5.0 NT 24 Fri Mar 26 01:42:58 1999 
-1 9.9999999999999995e-007 1e-010 
body $-1 $10 $-1 $11 #
body $-1 $12 $-1 $13 #
body $-1 $14 $-1 $15 #
body $-1 $16 $-1 $17 #
body $-1 $18 $-1 $19 #
body $-1 $20 $-1 $21 #
body $-1 $22 $-1 $23 #
body $-1 $24 $-1 $25 #
body $-1 $26 $-1 $27 #
body $-1 $28 $-1 $29 #
lump $-1 $-1 $30 $0 #
transform $-1 1 0 0 0 1 0 0 0 1 52.390514847254863 29.914892841598366 14.363658576194075 1 rotate no_reflect no_shear #
lump $-1 $-1 $31 $1 #
transform $-1 1 0 0 0 1 0 0 0 1 52.390514847254863 29.914892841598366 14.363658576194075 1 rotate no_reflect no_shear #
lump $-1 $-1 $32 $2 #
transform $-1 1 0 0 0 1 0 0 0 1 52.390514847254863 29.914892841598366 14.363658576194075 1 rotate no_reflect no_shear #
lump $-1 $-1 $33 $3 #
transform $-1 1 0 0 0 1 0 0 0 1 52.390514847254863 29.914892841598366 14.363658576194075 1 rotate no_reflect no_shear #
lump $-1 $-1 $34 $4 #
transform $-1 1 0 0 0 1 0 0 0 1 52.390514847254863 29.914892841598366 14.363658576194075 1 rotate no_reflect no_shear #
lump $-1 $-1 $35 $5 #
transform $-1 1 0 0 0 1 0 0 0 1 52.390514847254863 29.914892841598366 14.363658576194075 1 rotate no_reflect no_shear #
lump $-1 $-1 $36 $6 #
transform $-1 1 0 0 0 1 0 0 0 1 52.390514847254863 29.914892841598366 14.363658576194075 1 rotate no_reflect no_shear #
lump $-1 $-1 $37 $7 #
transform $-1 1 0 0 0 1 0 0 0 1 52.390514847254863 29.914892841598366 14.363658576194075 1 rotate no_reflect no_shear #
lump $-1 $-1 $38 $8 #
transform $-1 1 0 0 0 1 0 0 0 1 52.390514847254863 29.914892841598366 14.363658576194075 1 rotate no_reflect no_shear #
lump $-1 $-1 $39 $9 #
transform $-1 1 0 0 0 1 0 0 0 1 52.390514847254863 29.914892841598366 14.363658576194075 1 rotate no_reflect no_shear #
shell $-1 $-1 $-1 $40 $-1 $10 #
shell $-1 $-1 $-1 $41 $-1 $12 #
shell $-1 $-1 $-1 $42 $-1 $14 #
shell $-1 $-1 $-1 $43 $-1 $16 #
shell $-1 $-1 $-1 $44 $-1 $18 #
shell $-1 $-1 $-1 $45 $-1 $20 #
shell $-1 $-1 $-1 $46 $-1 $22 #
shell $-1 $-1 $-1 $47 $-1 $24 #
shell $-1 $-1 $-1 $48 $-1 $26 #
shell $-1 $-1 $-1 $49 $-1 $28 #
face $-1 $50 $51 $30 $-1 $52 forward single #
face $-1 $53 $54 $31 $-1 $55 forward single #
face $-1 $56 $57 $32 $-1 $58 forward single #
face $-1 $59 $60 $33 $-1 $61 reversed single #
face $-1 $62 $63 $34 $-1 $64 forward single #
face $-1 $65 $66 $35 $-1 $67 forward single #
face $-1 $68 $69 $36 $-1 $70 reversed single #
face $-1 $71 $72 $37 $-1 $73 forward single #
face $-1 $74 $75 $38 $-1 $76 reversed single #
face $-1 $77 $78 $39 $-1 $79 forward single #
face $-1 $80 $81 $30 $-1 $82 reversed single #
loop $-1 $-1 $83 $40 #
plane-surface $-1 0 0 14.363658576194075 0 0 1 1 0 0 forward_v I I I I #
face $-1 $84 $85 $31 $-1 $86 reversed single #
loop $-1 $-1 $87 $41 #
plane-surface $-1 -52.390514847254863 0 0 1 0 0 0 0 -1 forward_v I I I I #
face $-1 $88 $89 $32 $-1 $90 reversed single #
loop $-1 $-1 $91 $42 #
plane-surface $-1 47.567618506820807 0 -8.6878354353713316 0 0 1 1 0 0 forward_v I I I I #
face $-1 $92 $93 $33 $-1 $94 reversed single #
loop $-1 $-1 $95 $43 #
plane-surface $-1 42.744722166386765 -116.78230419535825 64.212732114303094 -1 0 0 0 -0.82903758062907751 0.55919289150049634 forward_v I I I I #
face $-1 $96 $97 $34 $-1 $98 forward single #
loop $-1 $99 $100 $44 #
cone-surface $-1 28.462261693352829 -23.812516048587391 7.8647188299223689 0 0.82903758062907751 -0.55919289150049634 2.5 0 0 1 I I 0 1 2.5 forward I I I I #
face $-1 $101 $102 $35 $-1 $103 forward single #
loop $-1 $104 $105 $45 #
cone-surface $-1 37.031737977173194 -23.812516048587391 7.8647188299223689 0 0.82903758062907751 -0.55919289150049634 2.5 0 0 1 I I 0 1 2.5 forward I I I I #
face $-1 $106 $107 $36 $-1 $108 reversed single #
loop $-1 $-1 $109 $46 #
plane-surface $-1 -21.656798487986421 32.59697773107596 128.86534204936902 1 0 0 0 -0.51503808176128008 -0.85716729658548041 forward_v I I I I #
face $-1 $110 $111 $37 $-1 $112 forward single #
loop $-1 $113 $114 $47 #
cone-surface $-1 -12.943728134097356 23.194684183862147 8.6019293472073564 0 -0.51503808176128008 -0.85716729658548041 2.5 0 0 1 I I 0 1 2.5 forward I I I I #
face $-1 $115 $116 $38 $-1 $117 reversed single #
loop $-1 $-1 $118 $48 #
plane-surface $-1 17.132541115818221 32.59697773107596 128.86534204936902 1 0 0 0 -0.51503808176128008 -0.85716729658548041 forward_v I I I I #
face $-1 $119 $120 $39 $-1 $121 forward single #
loop $-1 $122 $123 $49 #
cone-surface $-1 25.845611469707279 23.194684183862147 8.6019293472073564 0 -0.51503808176128008 -0.85716729658548041 2.5 0 0 1 I I 0 1 2.5 forward I I I I #
face $-1 $124 $125 $30 $-1 $126 reversed single #
loop $-1 $-1 $127 $50 #
plane-surface $-1 0 0 -14.363658576194075 0 0 1 1 0 0 forward_v I I I I #
coedge $-1 $128 $129 $130 $131 forward $51 $-1 #
face $-1 $132 $133 $31 $-1 $134 forward single #
loop $-1 $-1 $135 $53 #
plane-surface $-1 0 29.914892841598366 0 0 -1 0 0 0 -1 forward_v I I I I #
coedge $-1 $136 $137 $138 $139 forward $54 $-1 #
face $-1 $140 $141 $32 $-1 $142 reversed single #
loop $-1 $-1 $143 $56 #
plane-surface $-1 47.567618506820807 0 -11.687835435371332 0 0 1 1 0 0 forward_v I I I I #
coedge $-1 $144 $145 $146 $147 reversed $57 $-1 #
face $-1 $148 $149 $33 $-1 $150 reversed single #
loop $-1 $-1 $151 $59 #
plane-surface $-1 32.746999835263011 -29.914892841598373 5.6199251450308338 0 -0.82903758062907751 0.55919289150049634 1 0 0 forward_v I I I I #
coedge $-1 $152 $153 $154 $155 reversed $60 $-1 #
face $-1 $-1 $156 $34 $-1 $157 forward single #
loop $-1 $158 $159 $62 #
cone-surface $-1 28.462261693352829 -19.622703522106498 5.0386546848566685 0 0.82903758062907751 -0.55919289150049634 1.25 0 0 1 I I -0.70710678118654746 0.70710678118654746 1.25 forward I I I I #
loop $-1 $-1 $160 $44 #
coedge $-1 $100 $100 $161 $162 reversed $63 $-1 #
face $-1 $-1 $163 $35 $-1 $164 forward single #
loop $-1 $165 $166 $65 #
cone-surface $-1 37.031737977173194 -19.622703522106498 5.0386546848566685 0 0.82903758062907751 -0.55919289150049634 1.25 0 0 1 I I -0.70710678118654746 0.70710678118654746 1.25 forward I I I I #
loop $-1 $-1 $167 $45 #
coedge $-1 $105 $105 $168 $169 reversed $66 $-1 #
face $-1 $170 $171 $36 $-1 $172 reversed single #
loop $-1 $-1 $173 $68 #
plane-surface $-1 -12.943728134097348 -21.369242807756059 39.05047009268317 0 0.51503808176128008 0.85716729658548041 1 0 0 forward_v I I I I #
coedge $-1 $174 $175 $176 $177 reversed $69 $-1 #
face $-1 $-1 $178 $37 $-1 $179 forward single #
loop $-1 $180 $181 $71 #
cone-surface $-1 -12.943728134097356 20.929869174756014 4.832644264475304 0 -0.51503808176128008 -0.85716729658548041 1.25 0 0 1 I I -0.70710678118654724 0.70710678118654768 1.25 forward I I I I #
loop $-1 $-1 $182 $47 #
coedge $-1 $114 $114 $183 $184 reversed $72 $-1 #
face $-1 $185 $186 $38 $-1 $187 reversed single #
loop $-1 $-1 $188 $74 #
plane-surface $-1 25.845611469707293 -21.369242807756059 39.05047009268317 0 0.51503808176128008 0.85716729658548041 1 0 0 forward_v I I I I #
coedge $-1 $189 $190 $191 $192 reversed $75 $-1 #
face $-1 $-1 $193 $39 $-1 $194 forward single #
loop $-1 $195 $196 $77 #
cone-surface $-1 25.845611469707279 20.929869174756014 4.832644264475304 0 -0.51503808176128008 -0.85716729658548041 1.25 0 0 1 I I -0.70710678118654724 0.70710678118654768 1.25 forward I I I I #
loop $-1 $-1 $197 $49 #
coedge $-1 $123 $123 $198 $199 reversed $78 $-1 #
face $-1 $200 $201 $30 $-1 $202 reversed single #
loop $-1 $-1 $203 $80 #
plane-surface $-1 0 -29.914892841598366 0 0 1 0 0 0 1 forward_v I I I I #
coedge $-1 $204 $205 $206 $207 forward $81 $-1 #
coedge $-1 $208 $83 $209 $210 forward $51 $-1 #
coedge $-1 $83 $208 $211 $212 forward $51 $-1 #
coedge $-1 $213 $214 $83 $131 reversed $215 $-1 #
edge $-1 $216 -29.914892841598366 $217 29.914892841598366 $130 $218 forward 7 unknown #
face $-1 $219 $220 $31 $-1 $221 reversed single #
loop $-1 $-1 $138 $84 #
plane-surface $-1 -61.168793750271043 0 11.510635819685714 0 0 1 1 0 0 forward_v I I I I #
coedge $-1 $222 $223 $137 $224 forward $85 $-1 #
coedge $-1 $225 $87 $226 $227 reversed $54 $-1 #
coedge $-1 $87 $225 $135 $224 reversed $54 $-1 #
coedge $-1 $228 $229 $87 $139 reversed $133 $-1 #
edge $-1 $230 -29.914892841598366 $231 29.914892841598366 $138 $232 forward 7 unknown #
face $-1 $233 $234 $32 $-1 $235 reversed single #
loop $-1 $-1 $236 $88 #
plane-surface $-1 42.744722166386758 0 -10.187835435371332 1 0 0 0 0 -1 forward_v I I I I #
coedge $-1 $237 $238 $239 $240 reversed $89 $-1 #
coedge $-1 $241 $91 $242 $243 reversed $57 $-1 #
coedge $-1 $91 $241 $244 $245 reversed $57 $-1 #
coedge $-1 $246 $247 $91 $147 forward $248 $-1 #
edge $-1 $249 -29.914892841598366 $250 29.914892841598366 $146 $251 forward 7 unknown #
face $-1 $252 $253 $33 $-1 $254 forward single #
loop $-1 $-1 $255 $92 #
plane-surface $-1 22.749277504139258 -116.78230419535825 64.212732114303094 1 0 0 0 0.82903758062907751 -0.55919289150049634 forward_v I I I I #
coedge $-1 $256 $257 $258 $259 reversed $93 $-1 #
coedge $-1 $153 $95 $260 $261 reversed $60 $-1 #
coedge $-1 $95 $152 $256 $262 reversed $60 $-1 #
coedge $-1 $258 $263 $95 $155 forward $253 $-1 #
edge $-1 $264 28.476259256080759 $265 34.373981740713603 $154 $266 forward 7 unknown #
loop $-1 $-1 $161 $96 #
plane-surface $-1 32.746999835263011 -29.914892841598373 5.6199251450308338 0 -0.82903758062907751 0.55919289150049634 1 0 0 forward_v I I I I #
loop $-1 $-1 $267 $62 #
coedge $-1 $159 $159 $160 $268 reversed $97 $-1 #
coedge $-1 $160 $160 $159 $268 forward $99 $-1 #
coedge $-1 $161 $161 $100 $162 forward $156 $-1 #
edge $-1 $269 -7.6694473457502311e-016 $269 6.2831853071795996 $161 $270 forward 7 unknown #
loop $-1 $-1 $168 $101 #
plane-surface $-1 32.746999835263011 -29.914892841598373 5.6199251450308338 0 -0.82903758062907751 0.55919289150049634 1 0 0 forward_v I I I I #
loop $-1 $-1 $271 $65 #
coedge $-1 $166 $166 $167 $272 reversed $102 $-1 #
coedge $-1 $167 $167 $166 $272 forward $104 $-1 #
coedge $-1 $168 $168 $105 $169 forward $163 $-1 #
edge $-1 $273 -7.6694473457502311e-016 $273 6.2831853071795996 $168 $274 forward 7 unknown #
face $-1 $275 $276 $36 $-1 $277 reversed single #
loop $-1 $-1 $278 $106 #
plane-surface $-1 -4.2306577802082739 32.59697773107596 128.86534204936902 -1 0 0 0 0.51503808176128008 0.85716729658548041 forward_v I I I I #
coedge $-1 $279 $280 $281 $282 reversed $107 $-1 #
coedge $-1 $175 $109 $283 $284 reversed $69 $-1 #
coedge $-1 $109 $174 $279 $285 reversed $69 $-1 #
coedge $-1 $281 $286 $109 $177 forward $287 $-1 #
edge $-1 $288 -13.616403976060386 $289 -3.4180214743969835 $176 $290 forward 7 unknown #
loop $-1 $-1 $183 $110 #
plane-surface $-1 -12.943728134097348 -21.369242807756059 39.05047009268317 0 0.51503808176128008 0.85716729658548041 1 0 0 forward_v I I I I #
loop $-1 $-1 $291 $71 #
coedge $-1 $181 $181 $182 $292 reversed $111 $-1 #
coedge $-1 $182 $182 $181 $292 forward $113 $-1 #
coedge $-1 $183 $183 $114 $184 forward $178 $-1 #
edge $-1 $293 -2.4571827870130346e-016 $293 6.2831853071796004 $183 $294 forward 7 unknown #
face $-1 $295 $296 $38 $-1 $297 forward single #
loop $-1 $-1 $298 $115 #
plane-surface $-1 34.558681823596366 32.59697773107596 128.86534204936902 -1 0 0 0 0.51503808176128008 0.85716729658548041 forward_v I I I I #
coedge $-1 $299 $300 $301 $302 reversed $116 $-1 #
coedge $-1 $190 $118 $303 $304 reversed $75 $-1 #
coedge $-1 $118 $189 $299 $305 reversed $75 $-1 #
coedge $-1 $301 $306 $118 $192 forward $296 $-1 #
edge $-1 $307 -13.616403976060386 $308 -3.4180214743969835 $191 $309 forward 7 unknown #
loop $-1 $-1 $198 $119 #
plane-surface $-1 25.845611469707293 -21.369242807756059 39.05047009268317 0 0.51503808176128008 0.85716729658548041 1 0 0 forward_v I I I I #
loop $-1 $-1 $310 $77 #
coedge $-1 $196 $196 $197 $311 reversed $120 $-1 #
coedge $-1 $197 $197 $196 $311 forward $122 $-1 #
coedge $-1 $198 $198 $123 $199 forward $193 $-1 #
edge $-1 $312 -2.4571827870130346e-016 $312 6.2831853071796004 $198 $313 forward 7 unknown #
face $-1 $314 $315 $30 $-1 $316 reversed single #
loop $-1 $-1 $317 $124 #
plane-surface $-1 -52.390514847254863 0 0 1 0 0 0 0 -1 forward_v I I I I #
coedge $-1 $318 $211 $319 $320 forward $125 $-1 #
coedge $-1 $321 $127 $318 $322 forward $81 $-1 #
coedge $-1 $127 $321 $323 $324 forward $81 $-1 #
coedge $-1 $214 $213 $127 $207 reversed $215 $-1 #
edge $-1 $325 -29.914892841598366 $326 29.914892841598366 $206 $327 forward 7 unknown #
coedge $-1 $129 $128 $328 $329 forward $51 $-1 #
coedge $-1 $330 $331 $128 $210 reversed $315 $-1 #
edge $-1 $217 -52.390514847254863 $332 52.390514847254863 $209 $333 forward 7 unknown #
coedge $-1 $203 $334 $129 $212 reversed $125 $-1 #
edge $-1 $335 -52.390514847254863 $216 52.390514847254863 $211 $336 forward 7 unknown #
coedge $-1 $206 $130 $334 $337 forward $215 $-1 #
coedge $-1 $130 $206 $330 $338 reversed $215 $-1 #
loop $-1 $-1 $213 $314 #
vertex $-1 $131 $339 #
vertex $-1 $131 $340 #
straight-curve $-1 52.390514847254863 0 14.363658576194075 0 1 0 I I #
face $-1 $341 $342 $31 $-1 $343 reversed single #
loop $-1 $-1 $344 $132 #
plane-surface $-1 -61.168793750271043 0 5.2827161793335407 0 0 1 1 0 0 forward_v I I I I #
coedge $-1 $345 $135 $346 $347 reversed $85 $-1 #
coedge $-1 $135 $345 $228 $348 reversed $85 $-1 #
edge $-1 $230 -11.510635819685714 $349 -5.2827161793335407 $135 $350 forward 7 unknown #
coedge $-1 $137 $136 $344 $351 forward $54 $-1 #
coedge $-1 $352 $353 $136 $227 forward $354 $-1 #
edge $-1 $355 5.2827161793335407 $231 11.510635819685714 $226 $356 forward 7 unknown #
coedge $-1 $357 $138 $223 $348 forward $133 $-1 #
coedge $-1 $138 $357 $352 $358 forward $133 $-1 #
vertex $-1 $224 $359 #
vertex $-1 $358 $360 #
straight-curve $-1 -52.390514847254863 0 11.510635819685714 0 -1 0 I I #
face $-1 $361 $362 $32 $-1 $363 reversed single #
loop $-1 $-1 $244 $140 #
plane-surface $-1 0 -29.914892841598366 0 0 1 0 0 0 1 forward_v I I I I #
coedge $-1 $364 $365 $366 $367 reversed $141 $-1 #
coedge $-1 $368 $143 $369 $370 reversed $89 $-1 #
coedge $-1 $143 $368 $371 $372 reversed $89 $-1 #
coedge $-1 $247 $246 $143 $240 forward $248 $-1 #
edge $-1 $373 -29.914892841598366 $374 29.914892841598366 $239 $375 forward 7 unknown #
coedge $-1 $145 $144 $365 $376 forward $57 $-1 #
coedge $-1 $377 $366 $144 $243 forward $362 $-1 #
edge $-1 $378 18.960912912976355 $249 28.606705593844453 $242 $379 forward 7 unknown #
coedge $-1 $380 $381 $145 $245 forward $234 $-1 #
edge $-1 $250 -28.606705593844453 $382 -18.960912912976355 $244 $383 forward 7 unknown #
coedge $-1 $239 $146 $381 $384 forward $248 $-1 #
coedge $-1 $146 $239 $377 $385 reversed $248 $-1 #
loop $-1 $-1 $146 $361 #
vertex $-1 $385 $386 #
vertex $-1 $384 $387 #
straight-curve $-1 52.390514847254863 0 -8.6878354353713316 0 -1 0 I I #
face $-1 $-1 $388 $33 $-1 $389 reversed single #
loop $-1 $-1 $154 $148 #
plane-surface $-1 0 0 14.363658576194075 0 0 1 1 0 0 forward_v I I I I #
coedge $-1 $390 $391 $392 $393 reversed $149 $-1 #
coedge $-1 $394 $151 $153 $262 forward $93 $-1 #
coedge $-1 $151 $394 $390 $395 forward $93 $-1 #
coedge $-1 $392 $154 $151 $259 forward $253 $-1 #
edge $-1 $265 -26.371222248755259 $396 -6.3757775865077519 $258 $397 forward 7 unknown #
coedge $-1 $398 $399 $152 $261 forward $388 $-1 #
edge $-1 $400 -26.486440912120703 $264 -17.742707480957471 $260 $401 forward 7 unknown #
edge $-1 $265 -10.546848098886489 $400 -1.2809303928265426e-014 $153 $402 forward 7 unknown #
coedge $-1 $154 $392 $398 $403 forward $253 $-1 #
vertex $-1 $261 $404 #
vertex $-1 $155 $405 #
straight-curve $-1 42.744722166386765 -58.391152097679125 14.363658576194076 0 1 0 I I #
coedge $-1 $267 $267 $-1 $406 reversed $158 $-1 #
edge $-1 $407 0 $407 6.2831853071796004 $159 $408 forward 7 unknown #
vertex $-1 $162 $409 #
ellipse-curve $-1 28.462261693352829 -26.966031599281948 9.9917918606124569 0 -0.82903758062907751 0.55919289150049634 2.5 0 0 1 I I #
coedge $-1 $271 $271 $-1 $410 reversed $165 $-1 #
edge $-1 $411 0 $411 6.2831853071796004 $166 $412 forward 7 unknown #
vertex $-1 $169 $413 #
ellipse-curve $-1 37.031737977173194 -26.966031599281948 9.9917918606124569 0 -0.82903758062907751 0.55919289150049634 2.5 0 0 1 I I #
face $-1 $-1 $287 $36 $-1 $414 forward single #
loop $-1 $-1 $415 $170 #
plane-surface $-1 0 29.914892841598366 0 0 -1 0 0 0 -1 forward_v I I I I #
coedge $-1 $416 $417 $418 $419 reversed $171 $-1 #
coedge $-1 $420 $173 $175 $285 forward $107 $-1 #
coedge $-1 $173 $420 $416 $421 forward $107 $-1 #
coedge $-1 $418 $176 $173 $282 forward $287 $-1 #
edge $-1 $289 -15.184934420937747 $422 2.2412062868404004 $281 $423 forward 7 unknown #
coedge $-1 $424 $425 $174 $284 forward $276 $-1 #
edge $-1 $426 -56.196818982463483 $288 -50.069012448490433 $283 $427 forward 7 unknown #
edge $-1 $289 47.932012002039528 $426 59.829785683196732 $175 $428 forward 7 unknown #
coedge $-1 $176 $418 $424 $429 forward $287 $-1 #
loop $-1 $-1 $418 $275 #
vertex $-1 $284 $430 #
vertex $-1 $177 $431 #
straight-curve $-1 -21.656798487986421 16.29848886553798 14.363658576194076 0 -1 0 I I #
coedge $-1 $291 $291 $-1 $432 reversed $180 $-1 #
edge $-1 $433 0 $433 6.2831853071796004 $181 $434 forward 7 unknown #
vertex $-1 $184 $435 #
ellipse-curve $-1 -12.943728134097356 24.815701590766675 11.299755309207548 0 0.51503808176128008 0.85716729658548041 2.5 0 0 1 I I #
face $-1 $-1 $436 $38 $-1 $437 reversed single #
loop $-1 $-1 $191 $185 #
plane-surface $-1 0 0 14.363658576194075 0 0 1 1 0 0 forward_v I I I I #
coedge $-1 $438 $439 $440 $441 reversed $186 $-1 #
coedge $-1 $442 $188 $190 $305 forward $116 $-1 #
coedge $-1 $188 $442 $438 $443 forward $116 $-1 #
coedge $-1 $440 $191 $188 $302 forward $296 $-1 #
edge $-1 $308 4.2097353809645739 $444 21.63587608874272 $301 $445 forward 7 unknown #
coedge $-1 $446 $447 $189 $304 forward $436 $-1 #
edge $-1 $448 -56.196818982463483 $307 -50.069012448490433 $303 $449 forward 7 unknown #
edge $-1 $308 47.932012002039528 $448 59.829785683196732 $190 $450 forward 7 unknown #
coedge $-1 $191 $440 $446 $451 forward $296 $-1 #
vertex $-1 $304 $452 #
vertex $-1 $192 $453 #
straight-curve $-1 17.132541115818221 16.29848886553798 14.363658576194076 0 -1 0 I I #
coedge $-1 $310 $310 $-1 $454 reversed $195 $-1 #
edge $-1 $455 0 $455 6.2831853071796004 $196 $456 forward 7 unknown #
vertex $-1 $199 $457 #
ellipse-curve $-1 25.845611469707279 24.815701590766675 11.299755309207548 0 0.51503808176128008 0.85716729658548041 2.5 0 0 1 I I #
face $-1 $-1 $215 $30 $-1 $458 reversed single #
loop $-1 $-1 $330 $200 #
plane-surface $-1 0 29.914892841598366 0 0 -1 0 0 0 -1 forward_v I I I I #
coedge $-1 $459 $328 $331 $460 forward $201 $-1 #
coedge $-1 $334 $203 $204 $322 reversed $125 $-1 #
coedge $-1 $328 $459 $203 $320 reversed $201 $-1 #
edge $-1 $335 -14.363658576194075 $461 14.363658576194075 $319 $462 forward 7 unknown #
coedge $-1 $205 $204 $459 $463 forward $81 $-1 #
edge $-1 $326 -52.390514847254863 $461 52.390514847254863 $318 $464 forward 7 unknown #
coedge $-1 $331 $330 $205 $324 reversed $315 $-1 #
edge $-1 $465 -52.390514847254863 $325 52.390514847254863 $323 $466 forward 7 unknown #
vertex $-1 $207 $467 #
vertex $-1 $337 $468 #
straight-curve $-1 52.390514847254863 0 -14.363658576194075 0 -1 0 I I #
coedge $-1 $317 $319 $208 $329 reversed $201 $-1 #
edge $-1 $332 -29.914892841598366 $335 29.914892841598366 $328 $469 forward 7 unknown #
coedge $-1 $323 $209 $214 $338 forward $315 $-1 #
coedge $-1 $209 $323 $317 $460 reversed $315 $-1 #
vertex $-1 $210 $470 #
straight-curve $-1 0 29.914892841598366 14.363658576194075 -1 0 0 I I #
coedge $-1 $211 $318 $213 $337 reversed $125 $-1 #
vertex $-1 $329 $471 #
straight-curve $-1 0 -29.914892841598366 14.363658576194075 1 0 0 I I #
edge $-1 $216 -14.363658576194075 $326 14.363658576194075 $213 $472 forward 7 unknown #
edge $-1 $217 -14.363658576194075 $325 14.363658576194075 $214 $473 forward 7 unknown #
point $-1 52.390514847254863 -29.914892841598366 14.363658576194075 #
point $-1 52.390514847254863 29.914892841598366 14.363658576194075 #
face $-1 $-1 $354 $31 $-1 $474 reversed single #
loop $-1 $-1 $475 $219 #
plane-surface $-1 -69.947072653287222 0 8.3966759995096272 1 0 0 0 0 -1 forward_v I I I I #
coedge $-1 $476 $346 $225 $351 reversed $220 $-1 #
coedge $-1 $223 $222 $475 $477 reversed $85 $-1 #
coedge $-1 $344 $478 $222 $347 forward $220 $-1 #
edge $-1 $479 -8.7782789030161794 $349 8.7782789030161794 $222 $480 forward 7 unknown #
edge $-1 $230 -8.7782789030161794 $481 8.7782789030161794 $223 $482 forward 7 unknown #
vertex $-1 $224 $483 #
straight-curve $-1 -52.390514847254863 29.914892841598366 0 0 0 -1 I I #
edge $-1 $355 -29.914892841598366 $349 29.914892841598366 $344 $484 forward 7 unknown #
coedge $-1 $485 $226 $229 $358 reversed $354 $-1 #
coedge $-1 $226 $485 $476 $486 reversed $354 $-1 #
loop $-1 $-1 $226 $341 #
vertex $-1 $227 $487 #
straight-curve $-1 -52.390514847254863 -29.914892841598366 0 0 0 1 I I #
coedge $-1 $229 $228 $488 $489 forward $133 $-1 #
edge $-1 $490 -8.7782789030161794 $231 8.7782789030161794 $352 $491 forward 7 unknown #
point $-1 -52.390514847254863 29.914892841598366 11.510635819685714 #
point $-1 -52.390514847254863 -29.914892841598366 11.510635819685714 #
face $-1 $-1 $248 $32 $-1 $492 reversed single #
loop $-1 $-1 $242 $233 #
plane-surface $-1 0 29.914892841598366 0 0 -1 0 0 0 -1 forward_v I I I I #
coedge $-1 $493 $236 $368 $494 reversed $141 $-1 #
coedge $-1 $236 $493 $241 $376 reversed $141 $-1 #
coedge $-1 $242 $371 $236 $367 forward $362 $-1 #
edge $-1 $495 -6.5939177176856658 $378 -3.5939177176856658 $366 $496 forward 7 unknown #
coedge $-1 $238 $237 $364 $494 forward $89 $-1 #
coedge $-1 $381 $380 $237 $370 forward $234 $-1 #
edge $-1 $497 18.960912912976355 $373 28.606705593844453 $369 $498 forward 7 unknown #
coedge $-1 $366 $377 $238 $372 forward $362 $-1 #
edge $-1 $374 -28.606705593844453 $495 -18.960912912976355 $371 $499 forward 7 unknown #
vertex $-1 $240 $500 #
vertex $-1 $240 $501 #
straight-curve $-1 52.390514847254863 0 -11.687835435371332 0 1 0 I I #
edge $-1 $378 -29.914892841598366 $382 29.914892841598366 $365 $502 forward 7 unknown #
coedge $-1 $371 $242 $247 $385 forward $362 $-1 #
vertex $-1 $243 $503 #
straight-curve $-1 23.783809253410404 29.914892841598366 -8.6878354353713316 1 0 0 I I #
coedge $-1 $369 $244 $493 $504 forward $234 $-1 #
coedge $-1 $244 $369 $246 $384 reversed $234 $-1 #
vertex $-1 $245 $505 #
straight-curve $-1 23.783809253410404 -29.914892841598366 -8.6878354353713316 -1 0 0 I I #
edge $-1 $250 8.6878354353713316 $373 11.687835435371332 $246 $506 forward 7 unknown #
edge $-1 $249 8.6878354353713316 $374 11.687835435371332 $247 $507 forward 7 unknown #
point $-1 52.390514847254856 29.914892841598366 -8.6878354353713316 #
point $-1 52.390514847254856 -29.914892841598366 -8.6878354353713316 #
loop $-1 $-1 $260 $252 #
plane-surface $-1 0 -29.914892841598366 0 0 1 0 0 0 1 forward_v I I I I #
coedge $-1 $391 $255 $257 $395 reversed $149 $-1 #
coedge $-1 $255 $390 $508 $509 reversed $149 $-1 #
coedge $-1 $263 $258 $255 $393 forward $253 $-1 #
edge $-1 $396 -34.373981740713603 $510 -28.476259256080759 $392 $511 forward 7 unknown #
coedge $-1 $257 $256 $399 $512 reversed $93 $-1 #
edge $-1 $513 1.2809303928265426e-014 $396 10.546848098886489 $390 $514 forward 7 unknown #
vertex $-1 $259 $515 #
straight-curve $-1 16.373499917631506 -24.017170356965526 14.363658576194075 -1 0 0 I I #
coedge $-1 $508 $260 $263 $403 reversed $388 $-1 #
coedge $-1 $260 $508 $394 $512 forward $388 $-1 #
vertex $-1 $261 $516 #
straight-curve $-1 42.744722166386765 -29.914892841598366 32.106366057151547 0 0 1 I I #
straight-curve $-1 42.744722166386765 -29.914892841598373 5.6199251450308338 0 -0.55919289150049634 -0.82903758062907751 I I #
edge $-1 $510 22.749277504139258 $264 42.744722166386765 $398 $517 forward 7 unknown #
point $-1 42.744722166386765 -29.914892841598366 14.363658576194075 #
point $-1 42.744722166386765 -24.017170356965526 14.363658576194075 #
edge $-1 $518 1 $518 0 $267 $-1 forward 7 unknown #
vertex $-1 $268 $519 #
ellipse-curve $-1 28.462261693352829 -20.659000497892844 5.7376457992322889 0 -0.82903758062907751 0.55919289150049634 2.5 0 0 1 I I #
point $-1 30.962261693352829 -26.966031599281941 9.9917918606124498 #
edge $-1 $520 1 $520 0 $271 $-1 forward 7 unknown #
vertex $-1 $272 $521 #
ellipse-curve $-1 37.031737977173194 -20.659000497892844 5.7376457992322889 0 -0.82903758062907751 0.55919289150049634 2.5 0 0 1 I I #
point $-1 39.531737977173194 -26.966031599281941 9.9917918606124498 #
plane-surface $-1 0 0 14.363658576194075 0 0 1 1 0 0 forward_v I I I I #
coedge $-1 $425 $424 $417 $522 forward $276 $-1 #
coedge $-1 $417 $278 $280 $421 reversed $171 $-1 #
coedge $-1 $278 $416 $415 $522 reversed $171 $-1 #
coedge $-1 $286 $281 $278 $419 forward $287 $-1 #
edge $-1 $422 3.4180214743969835 $523 13.616403976060386 $418 $524 forward 7 unknown #
coedge $-1 $280 $279 $425 $525 reversed $107 $-1 #
edge $-1 $526 -59.829785683196732 $422 -47.932012002039528 $416 $527 forward 7 unknown #
vertex $-1 $282 $528 #
straight-curve $-1 -6.4718640670486742 19.716510339934974 14.363658576194073 1 0 0 I I #
coedge $-1 $415 $283 $286 $429 reversed $276 $-1 #
coedge $-1 $283 $415 $420 $525 forward $276 $-1 #
vertex $-1 $284 $529 #
straight-curve $-1 -21.656798487986421 29.914892841598366 64.43267102468451 0 0 1 I I #
straight-curve $-1 -21.656798487986421 -21.369242807756059 39.05047009268317 0 0.85716729658548041 -0.51503808176128008 I I #
edge $-1 $523 4.2306577802082739 $288 21.656798487986421 $424 $530 forward 7 unknown #
point $-1 -21.656798487986421 29.914892841598366 14.363658576194075 #
point $-1 -21.656798487986421 19.716510339934963 14.363658576194076 #
edge $-1 $531 1 $531 0 $291 $-1 forward 7 unknown #
vertex $-1 $292 $532 #
ellipse-curve $-1 -12.943728134097356 21.573666776957616 5.9041033852071552 0 0.51503808176128008 0.85716729658548041 2.5 0 0 1 I I #
point $-1 -10.443728134097356 24.815701590766679 11.299755309207555 #
loop $-1 $-1 $303 $295 #
plane-surface $-1 0 29.914892841598366 0 0 -1 0 0 0 -1 forward_v I I I I #
coedge $-1 $439 $298 $300 $443 reversed $186 $-1 #
coedge $-1 $298 $438 $533 $534 reversed $186 $-1 #
coedge $-1 $306 $301 $298 $441 forward $296 $-1 #
edge $-1 $444 3.4180214743969835 $535 13.616403976060386 $440 $536 forward 7 unknown #
coedge $-1 $300 $299 $447 $537 reversed $116 $-1 #
edge $-1 $538 -59.829785683196732 $444 -47.932012002039528 $438 $539 forward 7 unknown #
vertex $-1 $302 $540 #
straight-curve $-1 12.922805734853647 19.716510339934974 14.363658576194073 1 0 0 I I #
coedge $-1 $533 $303 $306 $451 reversed $436 $-1 #
coedge $-1 $303 $533 $442 $537 forward $436 $-1 #
vertex $-1 $304 $541 #
straight-curve $-1 17.132541115818221 29.914892841598366 64.43267102468451 0 0 1 I I #
straight-curve $-1 17.132541115818221 -21.369242807756059 39.05047009268317 0 0.85716729658548041 -0.51503808176128008 I I #
edge $-1 $535 -34.558681823596366 $307 -17.132541115818221 $446 $542 forward 7 unknown #
point $-1 17.132541115818221 29.914892841598366 14.363658576194075 #
point $-1 17.132541115818221 19.716510339934963 14.363658576194076 #
edge $-1 $543 1 $543 0 $310 $-1 forward 7 unknown #
vertex $-1 $311 $544 #
ellipse-curve $-1 25.845611469707279 21.573666776957616 5.9041033852071552 0 0.51503808176128008 0.85716729658548041 2.5 0 0 1 I I #
point $-1 28.345611469707279 24.815701590766679 11.299755309207555 #
plane-surface $-1 52.390514847254863 0 0 -1 0 0 0 0 1 forward_v I I I I #
coedge $-1 $319 $317 $321 $463 reversed $201 $-1 #
edge $-1 $332 -14.363658576194075 $465 14.363658576194075 $331 $545 forward 7 unknown #
vertex $-1 $463 $546 #
straight-curve $-1 -52.390514847254863 -29.914892841598366 0 0 0 -1 I I #
edge $-1 $461 -29.914892841598366 $465 29.914892841598366 $459 $547 forward 7 unknown #
straight-curve $-1 0 -29.914892841598366 -14.363658576194075 -1 0 0 I I #
vertex $-1 $324 $548 #
straight-curve $-1 0 29.914892841598366 -14.363658576194075 1 0 0 I I #
point $-1 52.390514847254863 29.914892841598366 -14.363658576194075 #
point $-1 52.390514847254863 -29.914892841598366 -14.363658576194075 #
straight-curve $-1 -52.390514847254863 0 14.363658576194075 0 -1 0 I I #
point $-1 -52.390514847254863 29.914892841598366 14.363658576194075 #
point $-1 -52.390514847254863 -29.914892841598366 14.363658576194075 #
straight-curve $-1 52.390514847254863 -29.914892841598366 0 0 0 -1 I I #
straight-curve $-1 52.390514847254863 29.914892841598366 0 0 0 -1 I I #
plane-surface $-1 0 -29.914892841598366 0 0 1 0 0 0 1 forward_v I I I I #
coedge $-1 $549 $488 $345 $477 forward $342 $-1 #
coedge $-1 $478 $344 $353 $486 forward $220 $-1 #
edge $-1 $481 -3.1139598201760865 $479 3.1139598201760865 $345 $550 forward 7 unknown #
coedge $-1 $346 $476 $549 $551 forward $220 $-1 #
vertex $-1 $347 $552 #
straight-curve $-1 -61.168793750271043 29.914892841598366 5.2827161793335407 1 0 0 I I #
vertex $-1 $348 $553 #
straight-curve $-1 -61.168793750271043 29.914892841598366 11.510635819685714 -1 0 0 I I #
point $-1 -52.390514847254863 29.914892841598366 5.2827161793335407 #
straight-curve $-1 -52.390514847254863 0 5.2827161793335407 0 1 0 I I #
coedge $-1 $353 $352 $554 $555 forward $354 $-1 #
edge $-1 $355 -8.7782789030161794 $556 8.7782789030161794 $353 $557 forward 7 unknown #
point $-1 -52.390514847254863 -29.914892841598366 5.2827161793335407 #
coedge $-1 $475 $554 $357 $489 reversed $342 $-1 #
edge $-1 $481 -29.914892841598366 $490 29.914892841598366 $488 $558 forward 7 unknown #
vertex $-1 $489 $559 #
straight-curve $-1 -61.168793750271043 -29.914892841598366 11.510635819685714 1 0 0 I I #
plane-surface $-1 52.390514847254863 0 0 -1 0 0 0 0 1 forward_v I I I I #
coedge $-1 $365 $364 $380 $504 reversed $141 $-1 #
edge $-1 $497 -29.914892841598366 $495 29.914892841598366 $364 $560 forward 7 unknown #
vertex $-1 $372 $561 #
straight-curve $-1 42.744722166386758 29.914892841598366 -5.0939177176856658 0 0 1 I I #
vertex $-1 $370 $562 #
straight-curve $-1 23.783809253410404 -29.914892841598366 -11.687835435371332 1 0 0 I I #
straight-curve $-1 23.783809253410404 29.914892841598366 -11.687835435371332 -1 0 0 I I #
point $-1 52.390514847254856 -29.914892841598366 -11.687835435371332 #
point $-1 52.390514847254856 29.914892841598366 -11.687835435371332 #
straight-curve $-1 42.744722166386758 0 -8.6878354353713316 0 -1 0 I I #
point $-1 42.744722166386758 29.914892841598366 -8.6878354353713316 #
edge $-1 $382 3.5939177176856658 $497 6.5939177176856658 $380 $563 forward 7 unknown #
point $-1 42.744722166386758 -29.914892841598366 -8.6878354353713316 #
straight-curve $-1 52.390514847254863 -29.914892841598366 0 0 0 -1 I I #
straight-curve $-1 52.390514847254863 29.914892841598366 0 0 0 -1 I I #
coedge $-1 $399 $398 $391 $509 forward $388 $-1 #
edge $-1 $510 17.742707480957471 $513 26.486440912120703 $508 $564 forward 7 unknown #
vertex $-1 $403 $565 #
straight-curve $-1 22.749277504139258 -58.391152097679125 14.363658576194076 0 -1 0 I I #
edge $-1 $513 6.3757775865077519 $400 26.371222248755259 $399 $566 forward 7 unknown #
vertex $-1 $512 $567 #
straight-curve $-1 22.749277504139258 -29.914892841598373 5.6199251450308338 0 0.55919289150049634 0.82903758062907751 I I #
point $-1 22.749277504139258 -24.017170356965526 14.363658576194075 #
point $-1 42.744722166386765 -29.914892841598366 5.6199251450308445 #
straight-curve $-1 0 -29.914892841598366 14.363658576194075 1 0 0 I I #
vertex $-1 $406 $568 #
point $-1 30.962261693352829 -20.659000497892844 5.7376457992322889 #
vertex $-1 $410 $569 #
point $-1 39.531737977173194 -20.659000497892844 5.7376457992322889 #
edge $-1 $523 50.069012448490433 $526 56.196818982463483 $415 $570 forward 7 unknown #
vertex $-1 $429 $571 #
straight-curve $-1 -4.2306577802082739 16.29848886553798 14.363658576194076 0 1 0 I I #
edge $-1 $526 -2.2412062868404004 $426 15.184934420937747 $425 $572 forward 7 unknown #
vertex $-1 $525 $573 #
straight-curve $-1 -4.2306577802082739 -21.369242807756059 39.05047009268317 0 -0.85716729658548041 0.51503808176128008 I I #
point $-1 -4.2306577802082739 19.716510339934963 14.363658576194076 #
point $-1 -21.656798487986421 29.914892841598366 8.2358520422210262 #
straight-curve $-1 0 29.914892841598366 14.363658576194075 -1 0 0 I I #
vertex $-1 $432 $574 #
point $-1 -10.443728134097356 21.573666776957616 5.9041033852071552 #
coedge $-1 $447 $446 $439 $534 forward $436 $-1 #
edge $-1 $535 50.069012448490433 $538 56.196818982463483 $533 $575 forward 7 unknown #
vertex $-1 $451 $576 #
straight-curve $-1 34.558681823596366 16.29848886553798 14.363658576194076 0 1 0 I I #
edge $-1 $538 -21.63587608874272 $448 -4.2097353809645739 $447 $577 forward 7 unknown #
vertex $-1 $537 $578 #
straight-curve $-1 34.558681823596366 -21.369242807756059 39.05047009268317 0 -0.85716729658548041 0.51503808176128008 I I #
point $-1 34.558681823596366 19.716510339934963 14.363658576194076 #
point $-1 17.132541115818221 29.914892841598366 8.2358520422210262 #
straight-curve $-1 0 29.914892841598366 14.363658576194075 -1 0 0 I I #
vertex $-1 $454 $579 #
point $-1 28.345611469707279 21.573666776957616 5.9041033852071552 #
straight-curve $-1 -52.390514847254863 29.914892841598366 0 0 0 -1 I I #
point $-1 -52.390514847254863 -29.914892841598366 -14.363658576194075 #
straight-curve $-1 -52.390514847254863 0 -14.363658576194075 0 1 0 I I #
point $-1 -52.390514847254863 29.914892841598366 -14.363658576194075 #
coedge $-1 $554 $475 $478 $551 reversed $342 $-1 #
straight-curve $-1 -69.947072653287222 29.914892841598366 8.3966759995096272 0 0 -1 I I #
edge $-1 $556 -29.914892841598366 $479 29.914892841598366 $549 $580 forward 7 unknown #
point $-1 -69.947072653287222 29.914892841598366 5.2827161793335407 #
point $-1 -69.947072653287222 29.914892841598366 11.510635819685714 #
coedge $-1 $488 $549 $485 $555 reversed $342 $-1 #
edge $-1 $490 -3.1139598201760865 $556 3.1139598201760865 $554 $581 forward 7 unknown #
vertex $-1 $551 $582 #
straight-curve $-1 -61.168793750271043 -29.914892841598366 5.2827161793335407 -1 0 0 I I #
straight-curve $-1 -69.947072653287222 0 11.510635819685714 0 -1 0 I I #
point $-1 -69.947072653287222 -29.914892841598366 11.510635819685714 #
straight-curve $-1 42.744722166386758 0 -11.687835435371332 0 1 0 I I #
point $-1 42.744722166386758 29.914892841598366 -11.687835435371332 #
point $-1 42.744722166386758 -29.914892841598366 -11.687835435371332 #
straight-curve $-1 42.744722166386758 -29.914892841598366 -5.0939177176856658 0 0 -1 I I #
straight-curve $-1 22.749277504139258 -29.914892841598366 32.106366057151547 0 0 -1 I I #
point $-1 22.749277504139258 -29.914892841598366 14.363658576194075 #
straight-curve $-1 16.373499917631506 -29.914892841598366 5.6199251450308454 1 0 0 I I #
point $-1 22.749277504139258 -29.914892841598366 5.6199251450308445 #
point $-1 28.462261693352829 -18.586406546320152 4.339663570481048 #
point $-1 37.031737977173194 -18.586406546320152 4.339663570481048 #
straight-curve $-1 -4.2306577802082739 29.914892841598366 64.43267102468451 0 0 -1 I I #
point $-1 -4.2306577802082739 29.914892841598366 14.363658576194075 #
straight-curve $-1 -6.4718640670486742 29.914892841598366 8.2358520422210244 -1 0 0 I I #
point $-1 -4.2306577802082739 29.914892841598366 8.2358520422210262 #
point $-1 -12.943728134097356 20.286071572554413 3.7611851437434529 #
straight-curve $-1 34.558681823596366 29.914892841598366 64.43267102468451 0 0 -1 I I #
point $-1 34.558681823596366 29.914892841598366 14.363658576194075 #
straight-curve $-1 12.922805734853647 29.914892841598366 8.2358520422210244 -1 0 0 I I #
point $-1 34.558681823596366 29.914892841598366 8.2358520422210262 #
point $-1 25.845611469707279 20.286071572554413 3.7611851437434529 #
straight-curve $-1 -69.947072653287222 0 5.2827161793335407 0 1 0 I I #
straight-curve $-1 -69.947072653287222 -29.914892841598366 8.3966759995096272 0 0 -1 I I #
point $-1 -69.947072653287222 -29.914892841598366 5.2827161793335407 #
End-of-ACIS-data 