500 0 6 0           
7 Unknown 11 ACIS 5.0 NT 24 Thu Mar 25 22:16:35 1999 
-1 9.9999999999999995e-007 1e-010 
body $-1 $6 $-1 $7 #
body $-1 $8 $-1 $9 #
body $-1 $10 $-1 $11 #
body $-1 $12 $-1 $13 #
body $-1 $14 $-1 $15 #
body $-1 $16 $-1 $17 #
lump $-1 $-1 $18 $0 #
transform $-1 1 0 0 0 1 0 0 0 1 72.331308938871416 48.673692917884665 16.388062677305545 1 rotate no_reflect no_shear #
lump $-1 $-1 $19 $1 #
transform $-1 1 0 0 0 1 0 0 0 1 72.331308938871416 48.673692917884665 16.388062677305545 1 rotate no_reflect no_shear #
lump $-1 $-1 $20 $2 #
transform $-1 1 0 0 0 1 0 0 0 1 72.331308938871416 48.673692917884665 16.388062677305545 1 rotate no_reflect no_shear #
lump $-1 $-1 $21 $3 #
transform $-1 1 0 0 0 1 0 0 0 1 72.331308938871416 48.673692917884665 16.388062677305545 1 rotate no_reflect no_shear #
lump $-1 $-1 $22 $4 #
transform $-1 1 0 0 0 1 0 0 0 1 72.331308938871416 48.673692917884665 16.388062677305545 1 rotate no_reflect no_shear #
lump $-1 $-1 $23 $5 #
transform $-1 1 0 0 0 1 0 0 0 1 72.331308938871416 48.673692917884665 16.388062677305545 1 rotate no_reflect no_shear #
shell $-1 $-1 $-1 $24 $-1 $6 #
shell $-1 $-1 $-1 $25 $-1 $8 #
shell $-1 $-1 $-1 $26 $-1 $10 #
shell $-1 $-1 $-1 $27 $-1 $12 #
shell $-1 $-1 $-1 $28 $-1 $14 #
shell $-1 $-1 $-1 $29 $-1 $16 #
face $-1 $30 $31 $18 $-1 $32 forward single #
face $-1 $33 $34 $19 $-1 $35 reversed single #
face $-1 $36 $37 $20 $-1 $38 reversed single #
face $-1 $39 $40 $21 $-1 $41 forward single #
face $-1 $42 $43 $22 $-1 $44 reversed single #
face $-1 $45 $46 $23 $-1 $47 forward single #
face $-1 $48 $49 $18 $-1 $50 reversed single #
loop $-1 $-1 $51 $24 #
plane-surface $-1 0 0 16.388062677305545 0 0 1 1 0 0 forward_v I I I I #
face $-1 $52 $53 $19 $-1 $54 reversed single #
loop $-1 $-1 $55 $25 #
plane-surface $-1 -62.99647498401778 -42.308220676936799 0 0 -1 0 0 0 -1 forward_v I I I I #
face $-1 $56 $57 $20 $-1 $58 reversed single #
loop $-1 $-1 $59 $26 #
plane-surface $-1 62.426095194398073 -48.673692917884679 0.29581461160221068 0 -0.79863551827123203 0.60181501223851219 1 0 0 forward_v I I I I #
face $-1 $60 $61 $21 $-1 $62 forward single #
loop $-1 $63 $64 $27 #
cone-surface $-1 62.426095194398073 -41.17785515511661 7.2623605333778931 0 0.79863551827123203 -0.60181501223851219 1.5 0 0 1 I I 0 1 1.5 forward I I I I #
face $-1 $65 $66 $22 $-1 $67 reversed single #
loop $-1 $-1 $68 $28 #
plane-surface $-1 62.426095194398073 -9.9114252802560117 78.040894550901427 0 0.79863551827123203 0.60181501223851219 1 0 0 forward_v I I I I #
face $-1 $69 $70 $23 $-1 $71 forward single #
loop $-1 $72 $73 $29 #
cone-surface $-1 62.426095194398073 41.177855155116603 7.2623605333778789 0 -0.79863551827123203 -0.60181501223851219 1.5 0 0 1 I I 0 1 1.5 forward I I I I #
face $-1 $74 $75 $18 $-1 $76 reversed single #
loop $-1 $-1 $77 $30 #
plane-surface $-1 0 0 -16.388062677305545 0 0 1 1 0 0 forward_v I I I I #
coedge $-1 $78 $79 $80 $81 forward $31 $-1 #
face $-1 $82 $83 $19 $-1 $84 forward single #
loop $-1 $-1 $85 $33 #
plane-surface $-1 -53.661641029164144 -45.490956797410732 0 -1 0 0 0 0 1 forward_v I I I I #
coedge $-1 $86 $87 $88 $89 forward $34 $-1 #
face $-1 $90 $91 $20 $-1 $92 reversed single #
loop $-1 $-1 $93 $36 #
plane-surface $-1 52.52088144992473 -164.20639772114902 87.355949760151219 1 0 0 0 0.79863551827123203 -0.60181501223851219 forward_v I I I I #
coedge $-1 $94 $95 $96 $97 reversed $37 $-1 #
face $-1 $-1 $98 $21 $-1 $99 forward single #
loop $-1 $100 $101 $39 #
cone-surface $-1 62.426095194398073 -39.1462299338422 5.7314211631230272 0 0.79863551827123203 -0.60181501223851219 0.75 0 0 1 I I -0.70710678118654757 0.70710678118654757 0.75 forward I I I I #
loop $-1 $-1 $102 $27 #
coedge $-1 $64 $64 $103 $104 reversed $40 $-1 #
face $-1 $105 $106 $22 $-1 $107 reversed single #
loop $-1 $-1 $108 $42 #
plane-surface $-1 52.52088144992473 105.62127952300833 165.10102969945044 1 0 0 0 -0.79863551827123203 -0.60181501223851219 forward_v I I I I #
coedge $-1 $109 $110 $111 $112 reversed $43 $-1 #
face $-1 $-1 $113 $23 $-1 $114 forward single #
loop $-1 $115 $116 $45 #
cone-surface $-1 62.426095194398073 39.146229933842193 5.731421163123013 0 -0.79863551827123203 -0.60181501223851219 0.75 0 0 1 I I -0.70710678118654757 0.70710678118654757 0.75 forward I I I I #
loop $-1 $-1 $117 $29 #
coedge $-1 $73 $73 $118 $119 reversed $46 $-1 #
face $-1 $120 $121 $18 $-1 $122 reversed single #
loop $-1 $-1 $123 $48 #
plane-surface $-1 0 -48.673692917884665 0 0 1 0 0 0 1 forward_v I I I I #
coedge $-1 $124 $125 $126 $127 forward $49 $-1 #
coedge $-1 $128 $51 $129 $130 forward $31 $-1 #
coedge $-1 $51 $128 $131 $132 forward $31 $-1 #
coedge $-1 $133 $134 $51 $81 reversed $135 $-1 #
edge $-1 $136 -48.673692917884665 $137 48.673692917884665 $80 $138 forward 7 unknown #
face $-1 $139 $140 $19 $-1 $141 reversed single #
loop $-1 $-1 $142 $52 #
plane-surface $-1 0 0 16.388062677305545 0 0 1 1 0 0 forward_v I I I I #
coedge $-1 $143 $144 $145 $146 reversed $53 $-1 #
coedge $-1 $147 $55 $148 $149 reversed $34 $-1 #
coedge $-1 $55 $147 $150 $151 reversed $34 $-1 #
coedge $-1 $144 $143 $55 $89 reversed $53 $-1 #
edge $-1 $152 -16.388062677305545 $153 16.388062677305545 $88 $154 forward 7 unknown #
face $-1 $155 $156 $20 $-1 $157 forward single #
loop $-1 $-1 $158 $56 #
plane-surface $-1 72.331308938871416 0 0 -1 0 0 0 0 1 forward_v I I I I #
coedge $-1 $159 $160 $161 $162 reversed $57 $-1 #
coedge $-1 $163 $59 $158 $164 reversed $37 $-1 #
coedge $-1 $59 $163 $159 $165 forward $37 $-1 #
coedge $-1 $161 $166 $59 $97 forward $156 $-1 #
edge $-1 $167 -41.11826134167238 $168 -21.307833852725693 $96 $169 forward 7 unknown #
loop $-1 $-1 $103 $60 #
plane-surface $-1 62.426095194398073 -48.673692917884679 0.29581461160221068 0 -0.79863551827123203 0.60181501223851219 1 0 0 forward_v I I I I #
loop $-1 $-1 $170 $39 #
coedge $-1 $101 $101 $102 $171 reversed $61 $-1 #
coedge $-1 $102 $102 $101 $171 forward $63 $-1 #
coedge $-1 $103 $103 $64 $104 forward $98 $-1 #
edge $-1 $172 1.918439362715164e-015 $172 6.2831853071796022 $103 $173 forward 7 unknown #
face $-1 $174 $175 $22 $-1 $176 reversed single #
loop $-1 $-1 $177 $65 #
plane-surface $-1 72.331308938871416 0 0 -1 0 0 0 0 1 forward_v I I I I #
coedge $-1 $178 $179 $180 $181 reversed $66 $-1 #
coedge $-1 $182 $68 $177 $183 reversed $43 $-1 #
coedge $-1 $68 $182 $178 $184 forward $43 $-1 #
coedge $-1 $180 $185 $68 $112 forward $175 $-1 #
edge $-1 $186 -41.11826134167238 $187 -21.307833852725693 $111 $188 forward 7 unknown #
loop $-1 $-1 $118 $69 #
plane-surface $-1 62.426095194398073 -9.9114252802560117 78.040894550901427 0 0.79863551827123203 0.60181501223851219 1 0 0 forward_v I I I I #
loop $-1 $-1 $189 $45 #
coedge $-1 $116 $116 $117 $190 reversed $70 $-1 #
coedge $-1 $117 $117 $116 $190 forward $72 $-1 #
coedge $-1 $118 $118 $73 $119 forward $113 $-1 #
edge $-1 $191 -2.6890475956407987e-017 $191 6.2831853071796004 $118 $192 forward 7 unknown #
face $-1 $193 $194 $18 $-1 $195 reversed single #
loop $-1 $-1 $196 $74 #
plane-surface $-1 -72.331308938871416 0 0 1 0 0 0 0 -1 forward_v I I I I #
coedge $-1 $197 $131 $198 $199 forward $75 $-1 #
coedge $-1 $200 $77 $197 $201 forward $49 $-1 #
coedge $-1 $77 $200 $202 $203 forward $49 $-1 #
coedge $-1 $134 $133 $77 $127 reversed $135 $-1 #
edge $-1 $204 -48.673692917884665 $205 48.673692917884665 $126 $206 forward 7 unknown #
coedge $-1 $79 $78 $207 $208 forward $31 $-1 #
coedge $-1 $209 $210 $78 $130 reversed $194 $-1 #
edge $-1 $137 -72.331308938871416 $211 72.331308938871416 $129 $212 forward 7 unknown #
coedge $-1 $123 $213 $79 $132 reversed $75 $-1 #
edge $-1 $214 -72.331308938871416 $136 72.331308938871416 $131 $215 forward 7 unknown #
coedge $-1 $126 $80 $213 $216 forward $135 $-1 #
coedge $-1 $80 $126 $209 $217 reversed $135 $-1 #
loop $-1 $-1 $133 $193 #
vertex $-1 $81 $218 #
vertex $-1 $81 $219 #
straight-curve $-1 72.331308938871416 0 16.388062677305545 0 1 0 I I #
face $-1 $220 $221 $19 $-1 $222 reversed single #
loop $-1 $-1 $223 $82 #
plane-surface $-1 -72.331308938871416 0 0 1 0 0 0 0 -1 forward_v I I I I #
coedge $-1 $150 $224 $144 $225 forward $83 $-1 #
coedge $-1 $88 $85 $226 $227 reversed $53 $-1 #
coedge $-1 $85 $88 $142 $225 reversed $53 $-1 #
coedge $-1 $228 $229 $85 $146 forward $230 $-1 #
edge $-1 $231 -16.388062677305545 $232 16.388062677305545 $145 $233 forward 7 unknown #
coedge $-1 $87 $86 $223 $234 reversed $34 $-1 #
coedge $-1 $226 $235 $86 $149 forward $221 $-1 #
edge $-1 $236 -40.833071446862526 $153 -22.163403537155254 $148 $237 forward 7 unknown #
coedge $-1 $238 $142 $87 $151 forward $83 $-1 #
edge $-1 $152 22.163403537155254 $239 40.833071446862526 $150 $240 forward 7 unknown #
vertex $-1 $151 $241 #
vertex $-1 $149 $242 #
straight-curve $-1 -53.661641029164144 -42.308220676936799 0 0 0 -1 I I #
face $-1 $-1 $243 $20 $-1 $244 reversed single #
loop $-1 $-1 $96 $90 #
plane-surface $-1 0 0 16.388062677305545 0 0 1 1 0 0 forward_v I I I I #
coedge $-1 $245 $246 $94 $164 forward $91 $-1 #
coedge $-1 $160 $93 $95 $165 reversed $57 $-1 #
coedge $-1 $93 $159 $247 $248 reversed $57 $-1 #
coedge $-1 $249 $96 $93 $162 forward $156 $-1 #
edge $-1 $168 -45.555884303083971 $250 -33.429505942689843 $161 $251 forward 7 unknown #
coedge $-1 $95 $94 $252 $253 reversed $37 $-1 #
edge $-1 $254 -14.528155521710588 $167 5.6215218937610327 $158 $255 forward 7 unknown #
edge $-1 $256 2.3625585895707848e-014 $168 20.149677415471643 $159 $257 forward 7 unknown #
coedge $-1 $96 $249 $245 $258 forward $156 $-1 #
vertex $-1 $164 $259 #
vertex $-1 $97 $260 #
straight-curve $-1 31.213047597199036 -36.547314557490544 16.388062677305545 -1 0 0 I I #
coedge $-1 $170 $170 $-1 $261 reversed $100 $-1 #
edge $-1 $262 0 $262 6.2831853071796004 $101 $263 forward 7 unknown #
vertex $-1 $104 $264 #
ellipse-curve $-1 62.426095194398073 -42.610503737687608 8.341938644453883 0 -0.79863551827123203 0.60181501223851219 1.5 0 0 1 I I #
face $-1 $-1 $265 $22 $-1 $266 forward single #
loop $-1 $-1 $111 $105 #
plane-surface $-1 0 48.673692917884665 0 0 -1 0 0 0 -1 forward_v I I I I #
coedge $-1 $267 $268 $109 $183 forward $106 $-1 #
coedge $-1 $179 $108 $110 $184 reversed $66 $-1 #
coedge $-1 $108 $178 $269 $270 reversed $66 $-1 #
coedge $-1 $271 $111 $108 $181 forward $175 $-1 #
edge $-1 $187 -82.254700238123007 $272 -66.162452172419677 $180 $273 forward 7 unknown #
coedge $-1 $110 $109 $274 $275 reversed $43 $-1 #
edge $-1 $276 43.052171024123624 $186 63.201848439595253 $177 $277 forward 7 unknown #
edge $-1 $278 77.197708420297673 $187 97.347385835769302 $178 $279 forward 7 unknown #
coedge $-1 $111 $271 $267 $280 forward $175 $-1 #
vertex $-1 $112 $281 #
vertex $-1 $112 $282 #
straight-curve $-1 31.213047597199036 48.673692917884665 0.29581461160221778 -1 0 0 I I #
coedge $-1 $189 $189 $-1 $283 reversed $115 $-1 #
edge $-1 $284 0 $284 6.2831853071796004 $116 $285 forward 7 unknown #
vertex $-1 $119 $286 #
ellipse-curve $-1 62.426095194398073 42.610503737687601 8.3419386444538723 0 0.79863551827123203 0.60181501223851219 1.5 0 0 1 I I #
face $-1 $-1 $135 $18 $-1 $287 reversed single #
loop $-1 $-1 $209 $120 #
plane-surface $-1 0 48.673692917884665 0 0 -1 0 0 0 -1 forward_v I I I I #
coedge $-1 $288 $207 $210 $289 forward $121 $-1 #
coedge $-1 $213 $123 $124 $201 reversed $75 $-1 #
coedge $-1 $207 $288 $123 $199 reversed $121 $-1 #
edge $-1 $214 -16.388062677305545 $290 16.388062677305545 $198 $291 forward 7 unknown #
coedge $-1 $125 $124 $288 $292 forward $49 $-1 #
edge $-1 $205 -72.331308938871416 $290 72.331308938871416 $197 $293 forward 7 unknown #
coedge $-1 $210 $209 $125 $203 reversed $194 $-1 #
edge $-1 $294 -72.331308938871416 $204 72.331308938871416 $202 $295 forward 7 unknown #
vertex $-1 $127 $296 #
vertex $-1 $216 $297 #
straight-curve $-1 72.331308938871416 0 -16.388062677305545 0 -1 0 I I #
coedge $-1 $196 $198 $128 $208 reversed $121 $-1 #
edge $-1 $211 -48.673692917884665 $214 48.673692917884665 $207 $298 forward 7 unknown #
coedge $-1 $202 $129 $134 $217 forward $194 $-1 #
coedge $-1 $129 $202 $196 $289 reversed $194 $-1 #
vertex $-1 $130 $299 #
straight-curve $-1 0 48.673692917884665 16.388062677305545 -1 0 0 I I #
coedge $-1 $131 $197 $133 $216 reversed $75 $-1 #
vertex $-1 $208 $300 #
straight-curve $-1 0 -48.673692917884665 16.388062677305545 1 0 0 I I #
edge $-1 $136 -16.388062677305545 $205 16.388062677305545 $133 $301 forward 7 unknown #
edge $-1 $137 -16.388062677305545 $204 16.388062677305545 $134 $302 forward 7 unknown #
point $-1 72.331308938871416 -48.673692917884665 16.388062677305545 #
point $-1 72.331308938871416 48.673692917884665 16.388062677305545 #
face $-1 $-1 $230 $19 $-1 $303 reversed single #
loop $-1 $-1 $226 $139 #
plane-surface $-1 0 0 -16.388062677305545 0 0 1 1 0 0 forward_v I I I I #
coedge $-1 $304 $305 $147 $234 forward $140 $-1 #
coedge $-1 $142 $238 $228 $306 forward $83 $-1 #
edge $-1 $232 -25.928214519179299 $152 -19.562742278231433 $142 $307 forward 7 unknown #
coedge $-1 $308 $148 $143 $227 forward $221 $-1 #
edge $-1 $153 19.562742278231433 $231 25.928214519179299 $226 $309 forward 7 unknown #
coedge $-1 $310 $145 $224 $306 reversed $230 $-1 #
coedge $-1 $145 $310 $308 $311 reversed $230 $-1 #
loop $-1 $-1 $145 $220 #
vertex $-1 $311 $312 #
vertex $-1 $146 $313 #
straight-curve $-1 -53.661641029164144 -48.673692917884665 0 0 0 1 I I #
edge $-1 $239 -16.388062677305545 $236 16.388062677305545 $223 $314 forward 7 unknown #
coedge $-1 $148 $308 $304 $315 forward $221 $-1 #
vertex $-1 $149 $316 #
straight-curve $-1 -31.49823749200889 -42.308220676936799 -16.388062677305545 1 0 0 I I #
coedge $-1 $224 $150 $305 $317 forward $83 $-1 #
vertex $-1 $317 $318 #
straight-curve $-1 -31.49823749200889 -42.308220676936799 16.388062677305545 -1 0 0 I I #
point $-1 -53.661641029164144 -42.308220676936799 16.388062677305545 #
point $-1 -53.661641029164144 -42.308220676936799 -16.388062677305545 #
loop $-1 $-1 $252 $155 #
plane-surface $-1 0 -48.673692917884665 0 0 1 0 0 0 1 forward_v I I I I #
coedge $-1 $246 $158 $166 $258 reversed $91 $-1 #
coedge $-1 $158 $245 $319 $320 forward $91 $-1 #
coedge $-1 $252 $321 $160 $248 forward $243 $-1 #
edge $-1 $250 27.289912202770065 $256 43.382160268473378 $247 $322 forward 7 unknown #
coedge $-1 $166 $161 $321 $323 forward $156 $-1 #
vertex $-1 $323 $324 #
straight-curve $-1 52.52088144992473 -82.103198860574508 16.388062677305548 0 -1 0 I I #
coedge $-1 $319 $247 $163 $253 forward $243 $-1 #
edge $-1 $256 21.307833852725693 $254 41.11826134167238 $252 $325 forward 7 unknown #
vertex $-1 $164 $326 #
straight-curve $-1 72.331308938871416 -39.9304308247834 11.898515626208626 0 0.60181501223851219 0.79863551827123203 I I #
vertex $-1 $253 $327 #
straight-curve $-1 52.52088144992473 -48.673692917884679 0.29581461160221068 0 0.60181501223851219 0.79863551827123203 I I #
edge $-1 $328 -48.673692917884665 $167 -36.547314557490537 $245 $329 forward 7 unknown #
point $-1 72.331308938871416 -36.547314557490537 16.388062677305545 #
point $-1 52.52088144992473 -36.547314557490537 16.388062677305545 #
edge $-1 $330 1 $330 0 $170 $-1 forward 7 unknown #
vertex $-1 $171 $331 #
ellipse-curve $-1 62.426095194398073 -39.745206572545626 6.1827824223019112 0 -0.79863551827123203 0.60181501223851219 1.5 0 0 1 I I #
point $-1 63.926095194398073 -42.610503737687594 8.3419386444538759 #
loop $-1 $-1 $274 $174 #
plane-surface $-1 0 0 16.388062677305545 0 0 1 1 0 0 forward_v I I I I #
coedge $-1 $268 $177 $185 $280 reversed $106 $-1 #
coedge $-1 $177 $267 $332 $333 reversed $106 $-1 #
coedge $-1 $274 $334 $179 $270 forward $265 $-1 #
edge $-1 $272 4.1369468436194978 $278 16.263325204013633 $269 $335 forward 7 unknown #
coedge $-1 $185 $180 $334 $336 reversed $175 $-1 #
vertex $-1 $181 $337 #
straight-curve $-1 52.52088144992473 48.673692917884665 82.550514849725218 0 0 1 I I #
coedge $-1 $332 $269 $182 $275 forward $265 $-1 #
edge $-1 $278 21.307833852725693 $276 41.11826134167238 $274 $338 forward 7 unknown #
vertex $-1 $333 $339 #
straight-curve $-1 72.331308938871416 10.637871725713051 50.771055595858229 0 0.60181501223851219 -0.79863551827123203 I I #
vertex $-1 $275 $340 #
straight-curve $-1 52.52088144992473 -9.9114252802560117 78.040894550901427 0 0.60181501223851219 -0.79863551827123203 I I #
edge $-1 $341 -16.388062677305545 $186 -0.29581461160221595 $267 $342 forward 7 unknown #
point $-1 72.331308938871416 48.673692917884665 0.29581461160221595 #
point $-1 52.52088144992473 48.673692917884665 0.29581461160221068 #
edge $-1 $343 1 $343 0 $189 $-1 forward 7 unknown #
vertex $-1 $190 $344 #
ellipse-curve $-1 62.426095194398073 39.745206572545619 6.182782422301897 0 0.79863551827123203 0.60181501223851219 1.5 0 0 1 I I #
point $-1 63.926095194398073 42.610503737687587 8.3419386444538617 #
plane-surface $-1 72.331308938871416 0 0 -1 0 0 0 0 1 forward_v I I I I #
coedge $-1 $198 $196 $200 $292 reversed $121 $-1 #
edge $-1 $211 -16.388062677305545 $294 16.388062677305545 $210 $345 forward 7 unknown #
vertex $-1 $292 $346 #
straight-curve $-1 -72.331308938871416 -48.673692917884665 0 0 0 -1 I I #
edge $-1 $290 -48.673692917884665 $294 48.673692917884665 $288 $347 forward 7 unknown #
straight-curve $-1 0 -48.673692917884665 -16.388062677305545 -1 0 0 I I #
vertex $-1 $203 $348 #
straight-curve $-1 0 48.673692917884665 -16.388062677305545 1 0 0 I I #
point $-1 72.331308938871416 48.673692917884665 -16.388062677305545 #
point $-1 72.331308938871416 -48.673692917884665 -16.388062677305545 #
straight-curve $-1 -72.331308938871416 0 16.388062677305545 0 -1 0 I I #
point $-1 -72.331308938871416 48.673692917884665 16.388062677305545 #
point $-1 -72.331308938871416 -48.673692917884665 16.388062677305545 #
straight-curve $-1 72.331308938871416 -48.673692917884665 0 0 0 -1 I I #
straight-curve $-1 72.331308938871416 48.673692917884665 0 0 0 -1 I I #
plane-surface $-1 0 -48.673692917884665 0 0 1 0 0 0 1 forward_v I I I I #
coedge $-1 $349 $223 $235 $315 reversed $140 $-1 #
coedge $-1 $223 $349 $238 $317 reversed $140 $-1 #
edge $-1 $350 -72.331308938871416 $232 -53.661641029164144 $228 $351 forward 7 unknown #
straight-curve $-1 -53.661641029164144 -22.745478398705366 16.388062677305545 0 1 0 I I #
coedge $-1 $235 $226 $229 $311 forward $221 $-1 #
straight-curve $-1 -53.661641029164144 -22.745478398705366 -16.388062677305545 0 -1 0 I I #
coedge $-1 $229 $228 $349 $352 forward $230 $-1 #
edge $-1 $231 53.661641029164144 $353 72.331308938871416 $229 $354 forward 7 unknown #
point $-1 -53.661641029164144 -48.673692917884665 -16.388062677305545 #
point $-1 -53.661641029164144 -48.673692917884665 16.388062677305545 #
straight-curve $-1 -72.331308938871416 -42.308220676936799 0 0 0 -1 I I #
edge $-1 $353 -48.673692917884665 $236 -42.308220676936799 $304 $355 forward 7 unknown #
point $-1 -72.331308938871416 -42.308220676936799 -16.388062677305545 #
edge $-1 $239 42.308220676936799 $350 48.673692917884665 $305 $356 forward 7 unknown #
point $-1 -72.331308938871416 -42.308220676936799 16.388062677305545 #
coedge $-1 $321 $252 $246 $320 reversed $243 $-1 #
edge $-1 $328 -16.388062677305545 $254 -0.29581461160222955 $246 $357 forward 7 unknown #
coedge $-1 $247 $319 $249 $323 reversed $243 $-1 #
straight-curve $-1 52.52088144992473 -48.673692917884665 43.67797488007561 0 0 -1 I I #
edge $-1 $250 52.52088144992473 $328 72.331308938871416 $321 $358 forward 7 unknown #
point $-1 52.52088144992473 -48.673692917884665 16.388062677305545 #
straight-curve $-1 31.213047597199036 -48.673692917884665 0.29581461160223066 1 0 0 I I #
point $-1 72.331308938871416 -48.673692917884665 0.29581461160222955 #
point $-1 52.52088144992473 -48.673692917884665 0.29581461160222955 #
vertex $-1 $258 $359 #
straight-curve $-1 72.331308938871416 0 16.388062677305545 0 1 0 I I #
vertex $-1 $261 $360 #
point $-1 63.926095194398073 -39.745206572545626 6.1827824223019112 #
coedge $-1 $334 $274 $268 $333 forward $265 $-1 #
edge $-1 $276 36.54731455749053 $341 48.673692917884665 $268 $361 forward 7 unknown #
coedge $-1 $269 $332 $271 $336 forward $265 $-1 #
straight-curve $-1 52.52088144992473 52.810639761504163 16.388062677305541 0 -1 0 I I #
edge $-1 $341 -72.331308938871416 $272 -52.52088144992473 $271 $362 forward 7 unknown #
point $-1 52.52088144992473 48.673692917884665 16.388062677305545 #
straight-curve $-1 31.213047597199036 36.547314557490523 16.388062677305555 1 0 0 I I #
point $-1 72.331308938871416 36.54731455749053 16.388062677305541 #
point $-1 52.52088144992473 36.54731455749053 16.388062677305541 #
vertex $-1 $333 $363 #
straight-curve $-1 72.331308938871416 48.673692917884665 0 0 0 -1 I I #
vertex $-1 $283 $364 #
point $-1 63.926095194398073 39.745206572545619 6.182782422301897 #
straight-curve $-1 -72.331308938871416 48.673692917884665 0 0 0 -1 I I #
point $-1 -72.331308938871416 -48.673692917884665 -16.388062677305545 #
straight-curve $-1 -72.331308938871416 0 -16.388062677305545 0 1 0 I I #
point $-1 -72.331308938871416 48.673692917884665 -16.388062677305545 #
coedge $-1 $305 $304 $310 $352 reversed $140 $-1 #
vertex $-1 $317 $365 #
straight-curve $-1 0 -48.673692917884665 16.388062677305545 1 0 0 I I #
edge $-1 $350 -16.388062677305545 $353 16.388062677305545 $349 $366 forward 7 unknown #
vertex $-1 $315 $367 #
straight-curve $-1 0 -48.673692917884665 -16.388062677305545 -1 0 0 I I #
straight-curve $-1 -72.331308938871416 0 -16.388062677305545 0 1 0 I I #
straight-curve $-1 -72.331308938871416 0 16.388062677305545 0 -1 0 I I #
straight-curve $-1 72.331308938871416 -48.673692917884665 0 0 0 -1 I I #
straight-curve $-1 0 -48.673692917884665 16.388062677305545 1 0 0 I I #
point $-1 72.331308938871416 -48.673692917884665 16.388062677305545 #
point $-1 62.426095194398073 -38.547253295138773 5.2800599039441432 #
straight-curve $-1 72.331308938871416 0 16.388062677305545 0 1 0 I I #
straight-curve $-1 0 48.673692917884665 16.388062677305545 -1 0 0 I I #
point $-1 72.331308938871416 48.673692917884665 16.388062677305545 #
point $-1 62.426095194398073 38.547253295138766 5.2800599039441289 #
point $-1 -72.331308938871416 -48.673692917884665 16.388062677305545 #
straight-curve $-1 -72.331308938871416 -48.673692917884665 0 0 0 -1 I I #
point $-1 -72.331308938871416 -48.673692917884665 -16.388062677305545 #
End-of-ACIS-data 