500 0 10 0           
7 Unknown 11 ACIS 5.0 NT 24 Fri Mar 26 18:09:18 1999 
-1 9.9999999999999995e-007 1e-010 
body $-1 $10 $-1 $11 #
body $-1 $12 $-1 $13 #
body $-1 $14 $-1 $15 #
body $-1 $16 $-1 $17 #
body $-1 $18 $-1 $19 #
body $-1 $20 $-1 $21 #
body $-1 $22 $-1 $23 #
body $-1 $24 $-1 $25 #
body $-1 $26 $-1 $27 #
body $-1 $28 $-1 $29 #
lump $-1 $-1 $30 $0 #
transform $-1 1 0 0 0 1 0 0 0 1 56.072267830439159 35.973216731807703 13.280459247454189 1 rotate no_reflect no_shear #
lump $-1 $-1 $31 $1 #
transform $-1 1 0 0 0 1 0 0 0 1 56.072267830439159 35.973216731807703 13.280459247454189 1 rotate no_reflect no_shear #
lump $-1 $-1 $32 $2 #
transform $-1 1 0 0 0 1 0 0 0 1 56.072267830439159 35.973216731807703 13.280459247454189 1 rotate no_reflect no_shear #
lump $-1 $-1 $33 $3 #
transform $-1 1 0 0 0 1 0 0 0 1 56.072267830439159 35.973216731807703 13.280459247454189 1 rotate no_reflect no_shear #
lump $-1 $-1 $34 $4 #
transform $-1 1 0 0 0 1 0 0 0 1 56.072267830439159 35.973216731807703 13.280459247454189 1 rotate no_reflect no_shear #
lump $-1 $-1 $35 $5 #
transform $-1 1 0 0 0 1 0 0 0 1 56.072267830439159 35.973216731807703 13.280459247454189 1 rotate no_reflect no_shear #
lump $-1 $-1 $36 $6 #
transform $-1 1 0 0 0 1 0 0 0 1 56.072267830439159 35.973216731807703 13.280459247454189 1 rotate no_reflect no_shear #
lump $-1 $-1 $37 $7 #
transform $-1 1 0 0 0 1 0 0 0 1 56.072267830439159 35.973216731807703 13.280459247454189 1 rotate no_reflect no_shear #
lump $-1 $-1 $38 $8 #
transform $-1 1 0 0 0 1 0 0 0 1 56.072267830439159 35.973216731807703 13.280459247454189 1 rotate no_reflect no_shear #
lump $-1 $-1 $39 $9 #
transform $-1 1 0 0 0 1 0 0 0 1 56.072267830439159 35.973216731807703 13.280459247454189 1 rotate no_reflect no_shear #
shell $-1 $-1 $-1 $40 $-1 $10 #
shell $-1 $-1 $-1 $41 $-1 $12 #
shell $-1 $-1 $-1 $42 $-1 $14 #
shell $-1 $-1 $-1 $43 $-1 $16 #
shell $-1 $-1 $-1 $44 $-1 $18 #
shell $-1 $-1 $-1 $45 $-1 $20 #
shell $-1 $-1 $-1 $46 $-1 $22 #
shell $-1 $-1 $-1 $47 $-1 $24 #
shell $-1 $-1 $-1 $48 $-1 $26 #
shell $-1 $-1 $-1 $49 $-1 $28 #
face $-1 $50 $51 $30 $-1 $52 forward single #
face $-1 $53 $54 $31 $-1 $55 reversed single #
face $-1 $56 $57 $32 $-1 $58 reversed single #
face $-1 $59 $60 $33 $-1 $61 forward single #
face $-1 $62 $63 $34 $-1 $64 forward single #
face $-1 $65 $66 $35 $-1 $67 forward single #
face $-1 $68 $69 $36 $-1 $70 reversed single #
face $-1 $71 $72 $37 $-1 $73 forward single #
face $-1 $74 $75 $38 $-1 $76 forward single #
face $-1 $77 $78 $39 $-1 $79 forward single #
face $-1 $80 $81 $30 $-1 $82 reversed single #
loop $-1 $-1 $83 $40 #
plane-surface $-1 0 0 13.280459247454189 0 0 1 1 0 0 forward_v I I I I #
face $-1 $84 $85 $31 $-1 $86 reversed single #
loop $-1 $-1 $87 $41 #
plane-surface $-1 0 -28.632807348641784 10.280459247454189 0 0 1 1 0 0 forward_v I I I I #
face $-1 $88 $89 $32 $-1 $90 reversed single #
loop $-1 $-1 $91 $42 #
plane-surface $-1 83.612232567148112 31.192921865624069 157.00199604562903 0 -1 0 -0.81915205242281985 0 -0.57357642473473569 forward_v I I I I #
face $-1 $92 $93 $33 $-1 $94 forward single #
loop $-1 $95 $96 $43 #
cone-surface $-1 51.292794277102608 23.942651119049671 6.7569822960019694 -0.81915205242281985 0 -0.57357642473473569 0.28678821236736785 0 -0.40957602621140993 1 I I 0 1 0.5 forward I I I I #
face $-1 $97 $98 $34 $-1 $99 forward single #
loop $-1 $100 $101 $44 #
cone-surface $-1 51.292794277102608 26.66150264901507 6.7569822960019694 -0.81915205242281985 0 -0.57357642473473569 0.28678821236736785 0 -0.40957602621140993 1 I I 0 1 0.5 forward I I I I #
face $-1 $102 $103 $35 $-1 $104 forward single #
loop $-1 $105 $106 $45 #
cone-surface $-1 51.292794277102608 29.380354178980475 6.7569822960019694 -0.81915205242281985 0 -0.57357642473473569 0.28678821236736785 0 -0.40957602621140993 1 I I 0 1 0.5 forward I I I I #
face $-1 $107 $108 $36 $-1 $109 reversed single #
loop $-1 $-1 $110 $46 #
plane-surface $-1 -56.072267830439159 -15.037812267083691 4.2763347130588727 -0.52991927123019833 0 0.84804809178421925 0.84804809178421925 0 0.52991927123019833 forward_v I I I I #
face $-1 $111 $112 $37 $-1 $113 forward single #
loop $-1 $114 $115 $47 #
cone-surface $-1 -48.529824104736747 -18.790563686118997 8.2380629845832996 0.52991927123019833 0 -0.84804809178421925 0.84804809178421925 0 0.52991927123019833 1 I I 0 1 1 forward I I I I #
face $-1 $116 $117 $38 $-1 $118 forward single #
loop $-1 $119 $120 $48 #
cone-surface $-1 -48.529824104736747 -15.037812267083691 8.2380629845832996 0.52991927123019833 0 -0.84804809178421925 0.84804809178421925 0 0.52991927123019833 1 I I 0 1 1 forward I I I I #
face $-1 $121 $122 $39 $-1 $123 forward single #
loop $-1 $124 $125 $49 #
cone-surface $-1 -48.529824104736747 -11.285060848048385 8.2380629845832996 0.52991927123019833 0 -0.84804809178421925 0.84804809178421925 0 0.52991927123019833 1 I I 0 1 1 forward I I I I #
face $-1 $126 $127 $30 $-1 $128 reversed single #
loop $-1 $-1 $129 $50 #
plane-surface $-1 0 0 -13.280459247454189 0 0 1 1 0 0 forward_v I I I I #
coedge $-1 $130 $131 $132 $133 forward $51 $-1 #
face $-1 $134 $135 $31 $-1 $136 reversed single #
loop $-1 $-1 $137 $53 #
plane-surface $-1 0 -21.292397965475864 11.780459247454189 0 -1 0 0 0 -1 forward_v I I I I #
coedge $-1 $138 $139 $140 $141 reversed $54 $-1 #
face $-1 $142 $143 $32 $-1 $144 reversed single #
loop $-1 $-1 $145 $56 #
plane-surface $-1 -8.2511939874644753 26.66150264901507 92.678534227725379 0.81915205242281985 0 0.57357642473473569 0.57357642473473569 0 -0.81915205242281985 forward_v I I I I #
coedge $-1 $146 $147 $148 $149 reversed $57 $-1 #
face $-1 $-1 $150 $33 $-1 $151 forward single #
loop $-1 $152 $153 $59 #
cone-surface $-1 50.672699148335198 23.942651119049671 6.3227870255367833 -0.81915205242281985 0 -0.57357642473473569 0.14339410618368392 0 -0.20478801310570496 1 I I -0.70710678118654746 0.70710678118654746 0.25 forward I I I I #
loop $-1 $-1 $154 $43 #
coedge $-1 $96 $96 $155 $156 reversed $60 $-1 #
face $-1 $-1 $157 $34 $-1 $158 forward single #
loop $-1 $159 $160 $62 #
cone-surface $-1 50.672699148335198 26.66150264901507 6.3227870255367833 -0.81915205242281985 0 -0.57357642473473569 0.14339410618368392 0 -0.20478801310570496 1 I I -0.70710678118654746 0.70710678118654746 0.25 forward I I I I #
loop $-1 $-1 $161 $44 #
coedge $-1 $101 $101 $162 $163 reversed $63 $-1 #
face $-1 $-1 $164 $35 $-1 $165 forward single #
loop $-1 $166 $167 $65 #
cone-surface $-1 50.672699148335198 29.380354178980475 6.3227870255367833 -0.81915205242281985 0 -0.57357642473473569 0.14339410618368392 0 -0.20478801310570496 1 I I -0.70710678118654746 0.70710678118654746 0.25 forward I I I I #
loop $-1 $-1 $168 $45 #
coedge $-1 $106 $106 $169 $170 reversed $66 $-1 #
face $-1 $171 $172 $36 $-1 $173 forward single #
loop $-1 $-1 $174 $68 #
plane-surface $-1 -115.49981844030079 -8.7832265686915179 99.380294184294058 0 -1 0 0.52991927123019833 0 -0.84804809178421925 forward_v I I I I #
coedge $-1 $175 $176 $177 $178 reversed $69 $-1 #
face $-1 $-1 $179 $37 $-1 $180 forward single #
loop $-1 $181 $182 $71 #
cone-surface $-1 -47.92722630923187 -18.790563686118997 7.2737049430179503 0.52991927123019833 0 -0.84804809178421925 0.42402404589210962 0 0.26495963561509916 1 I I -0.70710678118654746 0.70710678118654746 0.5 forward I I I I #
loop $-1 $-1 $183 $47 #
coedge $-1 $115 $115 $184 $185 reversed $72 $-1 #
face $-1 $-1 $186 $38 $-1 $187 forward single #
loop $-1 $188 $189 $74 #
cone-surface $-1 -47.92722630923187 -15.037812267083691 7.2737049430179503 0.52991927123019833 0 -0.84804809178421925 0.42402404589210962 0 0.26495963561509916 1 I I -0.70710678118654746 0.70710678118654746 0.5 forward I I I I #
loop $-1 $-1 $190 $48 #
coedge $-1 $120 $120 $191 $192 reversed $75 $-1 #
face $-1 $-1 $193 $39 $-1 $194 forward single #
loop $-1 $195 $196 $77 #
cone-surface $-1 -47.92722630923187 -11.285060848048385 7.2737049430179503 0.52991927123019833 0 -0.84804809178421925 0.42402404589210962 0 0.26495963561509916 1 I I -0.70710678118654746 0.70710678118654746 0.5 forward I I I I #
loop $-1 $-1 $197 $49 #
coedge $-1 $125 $125 $198 $199 reversed $78 $-1 #
face $-1 $200 $201 $30 $-1 $202 reversed single #
loop $-1 $-1 $203 $80 #
plane-surface $-1 0 -35.973216731807703 0 0 1 0 0 0 1 forward_v I I I I #
coedge $-1 $204 $205 $206 $207 forward $81 $-1 #
coedge $-1 $208 $83 $209 $210 forward $51 $-1 #
coedge $-1 $83 $208 $211 $212 forward $51 $-1 #
coedge $-1 $213 $214 $83 $133 reversed $215 $-1 #
edge $-1 $216 -35.973216731807703 $217 35.973216731807703 $132 $218 forward 7 unknown #
face $-1 $219 $220 $31 $-1 $221 reversed single #
loop $-1 $-1 $222 $84 #
plane-surface $-1 -56.072267830439159 0 0 1 0 0 0 0 -1 forward_v I I I I #
coedge $-1 $223 $224 $225 $226 reversed $85 $-1 #
coedge $-1 $227 $87 $228 $229 reversed $54 $-1 #
coedge $-1 $87 $227 $230 $231 forward $54 $-1 #
coedge $-1 $232 $233 $87 $141 forward $234 $-1 #
edge $-1 $235 -21.656813057486811 $236 -6.9759942911549722 $140 $237 forward 7 unknown #
face $-1 $238 $239 $32 $-1 $240 reversed single #
loop $-1 $-1 $241 $88 #
plane-surface $-1 83.612232567148112 22.130083432406071 157.00199604562903 0 1 0 0.81915205242281985 0 0.57357642473473569 forward_v I I I I #
coedge $-1 $242 $243 $244 $245 reversed $89 $-1 #
coedge $-1 $147 $91 $246 $247 reversed $57 $-1 #
coedge $-1 $91 $146 $242 $248 reversed $57 $-1 #
coedge $-1 $244 $249 $91 $149 forward $250 $-1 #
edge $-1 $251 -14.266151546865103 $252 -5.5378186715154669 $148 $253 forward 7 unknown #
loop $-1 $-1 $155 $92 #
plane-surface $-1 -8.2511939874644753 26.66150264901507 92.678534227725379 0.81915205242281985 0 0.57357642473473569 0.57357642473473569 0 -0.81915205242281985 forward_v I I I I #
loop $-1 $-1 $254 $59 #
coedge $-1 $153 $153 $154 $255 reversed $93 $-1 #
coedge $-1 $154 $154 $153 $255 forward $95 $-1 #
coedge $-1 $155 $155 $96 $156 forward $150 $-1 #
edge $-1 $256 0 $256 6.2831853071796004 $155 $257 forward 7 unknown #
loop $-1 $-1 $162 $97 #
plane-surface $-1 -8.2511939874644753 26.66150264901507 92.678534227725379 0.81915205242281985 0 0.57357642473473569 0.57357642473473569 0 -0.81915205242281985 forward_v I I I I #
loop $-1 $-1 $258 $62 #
coedge $-1 $160 $160 $161 $259 reversed $98 $-1 #
coedge $-1 $161 $161 $160 $259 forward $100 $-1 #
coedge $-1 $162 $162 $101 $163 forward $157 $-1 #
edge $-1 $260 0 $260 6.2831853071796004 $162 $261 forward 7 unknown #
loop $-1 $-1 $169 $102 #
plane-surface $-1 -8.2511939874644753 26.66150264901507 92.678534227725379 0.81915205242281985 0 0.57357642473473569 0.57357642473473569 0 -0.81915205242281985 forward_v I I I I #
loop $-1 $-1 $262 $65 #
coedge $-1 $167 $167 $168 $263 reversed $103 $-1 #
coedge $-1 $168 $168 $167 $263 forward $105 $-1 #
coedge $-1 $169 $169 $106 $170 forward $164 $-1 #
edge $-1 $264 0 $264 6.2831853071796004 $169 $265 forward 7 unknown #
face $-1 $266 $267 $36 $-1 $268 reversed single #
loop $-1 $-1 $177 $107 #
plane-surface $-1 0 0 13.280459247454189 0 0 1 1 0 0 forward_v I I I I #
coedge $-1 $269 $270 $271 $272 reversed $108 $-1 #
coedge $-1 $273 $110 $274 $275 reversed $69 $-1 #
coedge $-1 $110 $273 $269 $276 forward $69 $-1 #
coedge $-1 $271 $277 $110 $178 forward $172 $-1 #
edge $-1 $278 -13.773491831934018 $279 -1.2643204351496724 $177 $280 forward 7 unknown #
loop $-1 $-1 $184 $111 #
plane-surface $-1 -56.072267830439159 -15.037812267083691 4.2763347130588727 -0.52991927123019833 0 0.84804809178421925 0.84804809178421925 0 0.52991927123019833 forward_v I I I I #
loop $-1 $-1 $281 $71 #
coedge $-1 $182 $182 $183 $282 reversed $112 $-1 #
coedge $-1 $183 $183 $182 $282 forward $114 $-1 #
coedge $-1 $184 $184 $115 $185 forward $179 $-1 #
edge $-1 $283 0 $283 6.2831853071796004 $184 $284 forward 7 unknown #
loop $-1 $-1 $191 $116 #
plane-surface $-1 -56.072267830439159 -15.037812267083691 4.2763347130588727 -0.52991927123019833 0 0.84804809178421925 0.84804809178421925 0 0.52991927123019833 forward_v I I I I #
loop $-1 $-1 $285 $74 #
coedge $-1 $189 $189 $190 $286 reversed $117 $-1 #
coedge $-1 $190 $190 $189 $286 forward $119 $-1 #
coedge $-1 $191 $191 $120 $192 forward $186 $-1 #
edge $-1 $287 0 $287 6.2831853071796004 $191 $288 forward 7 unknown #
loop $-1 $-1 $198 $121 #
plane-surface $-1 -56.072267830439159 -15.037812267083691 4.2763347130588727 -0.52991927123019833 0 0.84804809178421925 0.84804809178421925 0 0.52991927123019833 forward_v I I I I #
loop $-1 $-1 $289 $77 #
coedge $-1 $196 $196 $197 $290 reversed $122 $-1 #
coedge $-1 $197 $197 $196 $290 forward $124 $-1 #
coedge $-1 $198 $198 $125 $199 forward $193 $-1 #
edge $-1 $291 0 $291 6.2831853071796004 $198 $292 forward 7 unknown #
face $-1 $293 $294 $30 $-1 $295 reversed single #
loop $-1 $-1 $296 $126 #
plane-surface $-1 -56.072267830439159 0 0 1 0 0 0 0 -1 forward_v I I I I #
coedge $-1 $297 $211 $298 $299 forward $127 $-1 #
coedge $-1 $300 $129 $297 $301 forward $81 $-1 #
coedge $-1 $129 $300 $302 $303 forward $81 $-1 #
coedge $-1 $214 $213 $129 $207 reversed $215 $-1 #
edge $-1 $304 -35.973216731807703 $305 35.973216731807703 $206 $306 forward 7 unknown #
coedge $-1 $131 $130 $307 $308 forward $51 $-1 #
coedge $-1 $309 $310 $130 $210 reversed $294 $-1 #
edge $-1 $217 -56.072267830439159 $311 56.072267830439159 $209 $312 forward 7 unknown #
coedge $-1 $203 $313 $131 $212 reversed $127 $-1 #
edge $-1 $314 -56.072267830439159 $216 56.072267830439159 $211 $315 forward 7 unknown #
coedge $-1 $206 $132 $313 $316 forward $215 $-1 #
coedge $-1 $132 $206 $309 $317 reversed $215 $-1 #
loop $-1 $-1 $213 $293 #
vertex $-1 $133 $318 #
vertex $-1 $133 $319 #
straight-curve $-1 56.072267830439159 0 13.280459247454189 0 1 0 I I #
face $-1 $320 $321 $31 $-1 $322 forward single #
loop $-1 $-1 $228 $134 #
plane-surface $-1 0 -35.973216731807703 0 0 1 0 0 0 1 forward_v I I I I #
coedge $-1 $323 $324 $224 $325 forward $135 $-1 #
coedge $-1 $230 $137 $232 $326 reversed $85 $-1 #
coedge $-1 $137 $230 $222 $325 reversed $85 $-1 #
coedge $-1 $327 $328 $137 $226 forward $321 $-1 #
edge $-1 $329 -56.072267830439159 $330 56.072267830439159 $225 $331 forward 7 unknown #
coedge $-1 $139 $138 $323 $332 reversed $54 $-1 #
coedge $-1 $333 $334 $138 $229 forward $220 $-1 #
edge $-1 $335 -56.072267830439159 $235 56.072267830439159 $228 $336 forward 7 unknown #
coedge $-1 $224 $223 $139 $231 reversed $85 $-1 #
edge $-1 $337 -56.072267830439159 $236 56.072267830439159 $230 $338 forward 7 unknown #
coedge $-1 $339 $140 $223 $326 forward $234 $-1 #
coedge $-1 $140 $339 $333 $340 forward $234 $-1 #
loop $-1 $-1 $232 $320 #
vertex $-1 $229 $341 #
vertex $-1 $141 $342 #
straight-curve $-1 56.072267830439159 -14.316403674320892 10.280459247454189 0 1 0 I I #
face $-1 $-1 $250 $32 $-1 $343 forward single #
loop $-1 $-1 $344 $142 #
plane-surface $-1 56.072267830439159 0 0 -1 0 0 0 0 1 forward_v I I I I #
coedge $-1 $345 $346 $347 $348 reversed $143 $-1 #
coedge $-1 $349 $145 $147 $248 forward $89 $-1 #
coedge $-1 $145 $349 $345 $350 forward $89 $-1 #
coedge $-1 $347 $148 $145 $245 forward $250 $-1 #
edge $-1 $252 -17.862170541116534 $351 -8.799332107898536 $244 $352 forward 7 unknown #
coedge $-1 $353 $354 $146 $247 forward $239 $-1 #
edge $-1 $355 -77.685890349701694 $251 -65.220538775360325 $246 $356 forward 7 unknown #
edge $-1 $252 96.927151370046829 $355 112.1445356608783 $147 $357 forward 7 unknown #
coedge $-1 $148 $347 $353 $358 forward $250 $-1 #
loop $-1 $-1 $347 $238 #
vertex $-1 $247 $359 #
vertex $-1 $149 $360 #
straight-curve $-1 41.806116283574056 31.192921865624069 13.280459247454189 -1 0 0 I I #
coedge $-1 $254 $254 $-1 $361 reversed $152 $-1 #
edge $-1 $362 0 $362 6.2831853071796004 $153 $363 forward 7 unknown #
vertex $-1 $156 $364 #
ellipse-curve $-1 51.708101392764348 23.942651119049671 7.0477834602834957 0.81915205242281985 0 0.57357642473473569 0.28678821236736785 0 -0.40957602621140993 1 I I #
coedge $-1 $258 $258 $-1 $365 reversed $159 $-1 #
edge $-1 $366 0 $366 6.2831853071796004 $160 $367 forward 7 unknown #
vertex $-1 $163 $368 #
ellipse-curve $-1 51.708101392764348 26.66150264901507 7.0477834602834957 0.81915205242281985 0 0.57357642473473569 0.28678821236736785 0 -0.40957602621140993 1 I I #
coedge $-1 $262 $262 $-1 $369 reversed $166 $-1 #
edge $-1 $370 0 $370 6.2831853071796004 $167 $371 forward 7 unknown #
vertex $-1 $170 $372 #
ellipse-curve $-1 51.708101392764348 29.380354178980475 7.0477834602834957 0.81915205242281985 0 0.57357642473473569 0.28678821236736785 0 -0.40957602621140993 1 I I #
face $-1 $-1 $373 $36 $-1 $374 forward single #
loop $-1 $-1 $375 $171 #
plane-surface $-1 -56.072267830439159 0 0 1 0 0 0 0 -1 forward_v I I I I #
coedge $-1 $270 $174 $176 $276 reversed $108 $-1 #
coedge $-1 $174 $269 $375 $376 reversed $108 $-1 #
coedge $-1 $377 $177 $174 $272 forward $172 $-1 #
edge $-1 $279 -16.087252521336509 $378 -1.6776413897112334 $271 $379 forward 7 unknown #
coedge $-1 $176 $175 $380 $381 reversed $69 $-1 #
coedge $-1 $382 $383 $175 $275 forward $373 $-1 #
edge $-1 $384 -25.764279970052506 $278 -8.7727776351923321 $274 $385 forward 7 unknown #
edge $-1 $386 0 $279 16.991502334860176 $269 $387 forward 7 unknown #
coedge $-1 $177 $377 $382 $388 forward $172 $-1 #
vertex $-1 $275 $389 #
vertex $-1 $178 $390 #
straight-curve $-1 -41.662656698813883 -7.5189061335418454 13.280459247454189 0 1 0 I I #
coedge $-1 $281 $281 $-1 $391 reversed $181 $-1 #
edge $-1 $392 0 $392 6.2831853071796004 $182 $393 forward 7 unknown #
vertex $-1 $185 $394 #
ellipse-curve $-1 -48.867462264626525 -18.790563686118997 8.7783969802565309 -0.52991927123019833 0 0.84804809178421925 0.84804809178421925 0 0.52991927123019833 1 I I #
coedge $-1 $285 $285 $-1 $395 reversed $188 $-1 #
edge $-1 $396 0 $396 6.2831853071796004 $189 $397 forward 7 unknown #
vertex $-1 $192 $398 #
ellipse-curve $-1 -48.867462264626525 -15.037812267083691 8.7783969802565309 -0.52991927123019833 0 0.84804809178421925 0.84804809178421925 0 0.52991927123019833 1 I I #
coedge $-1 $289 $289 $-1 $399 reversed $195 $-1 #
edge $-1 $400 0 $400 6.2831853071796004 $196 $401 forward 7 unknown #
vertex $-1 $199 $402 #
ellipse-curve $-1 -48.867462264626525 -11.285060848048385 8.7783969802565309 -0.52991927123019833 0 0.84804809178421925 0.84804809178421925 0 0.52991927123019833 1 I I #
face $-1 $-1 $215 $30 $-1 $403 reversed single #
loop $-1 $-1 $309 $200 #
plane-surface $-1 0 35.973216731807703 0 0 -1 0 0 0 -1 forward_v I I I I #
coedge $-1 $404 $307 $310 $405 forward $201 $-1 #
coedge $-1 $313 $203 $204 $301 reversed $127 $-1 #
coedge $-1 $307 $404 $203 $299 reversed $201 $-1 #
edge $-1 $314 -13.280459247454189 $406 13.280459247454189 $298 $407 forward 7 unknown #
coedge $-1 $205 $204 $404 $408 forward $81 $-1 #
edge $-1 $305 -56.072267830439159 $406 56.072267830439159 $297 $409 forward 7 unknown #
coedge $-1 $310 $309 $205 $303 reversed $294 $-1 #
edge $-1 $410 -56.072267830439159 $304 56.072267830439159 $302 $411 forward 7 unknown #
vertex $-1 $207 $412 #
vertex $-1 $316 $413 #
straight-curve $-1 56.072267830439159 0 -13.280459247454189 0 -1 0 I I #
coedge $-1 $296 $298 $208 $308 reversed $201 $-1 #
edge $-1 $311 -35.973216731807703 $314 35.973216731807703 $307 $414 forward 7 unknown #
coedge $-1 $302 $209 $214 $317 forward $294 $-1 #
coedge $-1 $209 $302 $296 $405 reversed $294 $-1 #
vertex $-1 $210 $415 #
straight-curve $-1 0 35.973216731807703 13.280459247454189 -1 0 0 I I #
coedge $-1 $211 $297 $213 $316 reversed $127 $-1 #
vertex $-1 $308 $416 #
straight-curve $-1 0 -35.973216731807703 13.280459247454189 1 0 0 I I #
edge $-1 $216 -13.280459247454189 $305 13.280459247454189 $213 $417 forward 7 unknown #
edge $-1 $217 -13.280459247454189 $304 13.280459247454189 $214 $418 forward 7 unknown #
point $-1 56.072267830439159 -35.973216731807703 13.280459247454189 #
point $-1 56.072267830439159 35.973216731807703 13.280459247454189 #
face $-1 $-1 $234 $31 $-1 $419 reversed single #
loop $-1 $-1 $225 $219 #
plane-surface $-1 0 0 13.280459247454189 0 0 1 1 0 0 forward_v I I I I #
coedge $-1 $420 $222 $227 $332 forward $135 $-1 #
coedge $-1 $222 $420 $327 $421 reversed $135 $-1 #
edge $-1 $330 -7.3902296237270946 $337 -4.3902296237270946 $222 $422 forward 7 unknown #
edge $-1 $236 4.3902296237270946 $329 7.3902296237270946 $232 $423 forward 7 unknown #
coedge $-1 $424 $225 $324 $421 forward $321 $-1 #
coedge $-1 $225 $424 $339 $425 forward $321 $-1 #
vertex $-1 $326 $426 #
vertex $-1 $421 $427 #
straight-curve $-1 0 -21.292397965475864 13.280459247454189 -1 0 0 I I #
edge $-1 $337 6.9759942911549722 $335 21.656813057486811 $323 $428 forward 7 unknown #
coedge $-1 $429 $228 $233 $340 reversed $220 $-1 #
coedge $-1 $228 $429 $420 $430 forward $220 $-1 #
vertex $-1 $229 $431 #
straight-curve $-1 0 -35.973216731807703 10.280459247454189 1 0 0 I I #
vertex $-1 $332 $432 #
straight-curve $-1 0 -21.292397965475864 10.280459247454189 1 0 0 I I #
coedge $-1 $233 $232 $328 $425 reversed $234 $-1 #
edge $-1 $433 -13.280459247454189 $235 -10.280459247454189 $233 $434 forward 7 unknown #
point $-1 56.072267830439159 -35.973216731807703 10.280459247454189 #
point $-1 56.072267830439159 -21.292397965475864 10.280459247454189 #
plane-surface $-1 0 0 13.280459247454189 0 0 1 1 0 0 forward_v I I I I #
coedge $-1 $354 $353 $346 $435 forward $239 $-1 #
coedge $-1 $346 $241 $243 $350 reversed $143 $-1 #
coedge $-1 $241 $345 $344 $435 reversed $143 $-1 #
coedge $-1 $249 $244 $241 $348 forward $250 $-1 #
edge $-1 $351 5.5378186715154669 $436 14.266151546865103 $347 $437 forward 7 unknown #
coedge $-1 $243 $242 $354 $438 reversed $89 $-1 #
edge $-1 $439 -112.1445356608783 $351 -96.927151370046829 $345 $440 forward 7 unknown #
vertex $-1 $245 $441 #
straight-curve $-1 47.343934955089516 13.330751324507535 13.280459247454196 0 -1 0 I I #
coedge $-1 $344 $246 $249 $358 reversed $239 $-1 #
coedge $-1 $246 $344 $349 $438 forward $239 $-1 #
vertex $-1 $247 $442 #
straight-curve $-1 56.072267830439159 31.192921865624069 78.500998022814514 0 0 1 I I #
straight-curve $-1 -8.2511939874644753 31.192921865624069 92.678534227725379 0.57357642473473569 0 -0.81915205242281985 I I #
edge $-1 $436 22.130083432406071 $251 31.192921865624069 $353 $443 forward 7 unknown #
point $-1 56.072267830439159 31.192921865624069 13.280459247454189 #
point $-1 47.343934955089523 31.192921865624069 13.280459247454189 #
edge $-1 $444 1 $444 0 $254 $-1 forward 7 unknown #
vertex $-1 $255 $445 #
ellipse-curve $-1 50.877487161440904 23.942651119049671 6.4661811317204672 0.81915205242281985 0 0.57357642473473569 0.28678821236736785 0 -0.40957602621140993 1 I I #
point $-1 51.994889605131689 23.942651119049671 6.6382074340720614 #
edge $-1 $446 1 $446 0 $258 $-1 forward 7 unknown #
vertex $-1 $259 $447 #
ellipse-curve $-1 50.877487161440904 26.66150264901507 6.4661811317204672 0.81915205242281985 0 0.57357642473473569 0.28678821236736785 0 -0.40957602621140993 1 I I #
point $-1 51.994889605131689 26.66150264901507 6.6382074340720614 #
edge $-1 $448 1 $448 0 $262 $-1 forward 7 unknown #
vertex $-1 $263 $449 #
ellipse-curve $-1 50.877487161440904 29.380354178980475 6.4661811317204672 0.81915205242281985 0 0.57357642473473569 0.28678821236736785 0 -0.40957602621140993 1 I I #
point $-1 51.994889605131689 29.380354178980475 6.6382074340720614 #
loop $-1 $-1 $274 $266 #
plane-surface $-1 0 -21.292397965475864 11.780459247454189 0 -1 0 0 0 -1 forward_v I I I I #
coedge $-1 $380 $450 $270 $376 forward $267 $-1 #
edge $-1 $378 36.40968784469284 $386 45.413812379088156 $375 $451 forward 7 unknown #
coedge $-1 $277 $271 $450 $452 forward $172 $-1 #
vertex $-1 $452 $453 #
straight-curve $-1 -57.749909220150393 -8.7832265686915179 13.280459247454189 -1 0 0 I I #
coedge $-1 $454 $375 $273 $381 forward $267 $-1 #
edge $-1 $386 1.2643204351496724 $384 13.773491831934018 $380 $455 forward 7 unknown #
coedge $-1 $383 $274 $277 $388 reversed $373 $-1 #
coedge $-1 $274 $382 $454 $456 reversed $373 $-1 #
vertex $-1 $456 $457 #
straight-curve $-1 -34.222919365641751 -21.292397965475864 17.929323178559891 0.84804809178421925 0 0.52991927123019833 I I #
vertex $-1 $381 $458 #
straight-curve $-1 -56.072267830439159 -8.7832265686915179 4.2763347130588727 0.84804809178421925 0 0.52991927123019833 I I #
edge $-1 $459 -56.072267830439159 $278 -41.662656698813883 $277 $460 forward 7 unknown #
point $-1 -41.662656698813883 -21.292397965475864 13.280459247454189 #
point $-1 -41.662656698813883 -8.7832265686915179 13.280459247454189 #
edge $-1 $461 1 $461 0 $281 $-1 forward 7 unknown #
vertex $-1 $282 $462 #
ellipse-curve $-1 -48.192185944846969 -18.790563686118997 7.6977289889100602 -0.52991927123019833 0 0.84804809178421925 0.84804809178421925 0 0.52991927123019833 1 I I #
point $-1 -48.019414172842311 -18.790563686118997 9.3083162514867368 #
edge $-1 $463 1 $463 0 $285 $-1 forward 7 unknown #
vertex $-1 $286 $464 #
ellipse-curve $-1 -48.192185944846969 -15.037812267083691 7.6977289889100602 -0.52991927123019833 0 0.84804809178421925 0.84804809178421925 0 0.52991927123019833 1 I I #
point $-1 -48.019414172842311 -15.037812267083691 9.3083162514867368 #
edge $-1 $465 1 $465 0 $289 $-1 forward 7 unknown #
vertex $-1 $290 $466 #
ellipse-curve $-1 -48.192185944846969 -11.285060848048385 7.6977289889100602 -0.52991927123019833 0 0.84804809178421925 0.84804809178421925 0 0.52991927123019833 1 I I #
point $-1 -48.019414172842311 -11.285060848048385 9.3083162514867368 #
plane-surface $-1 56.072267830439159 0 0 -1 0 0 0 0 1 forward_v I I I I #
coedge $-1 $298 $296 $300 $408 reversed $201 $-1 #
edge $-1 $311 -13.280459247454189 $410 13.280459247454189 $310 $467 forward 7 unknown #
vertex $-1 $408 $468 #
straight-curve $-1 -56.072267830439159 -35.973216731807703 0 0 0 -1 I I #
edge $-1 $406 -35.973216731807703 $410 35.973216731807703 $404 $469 forward 7 unknown #
straight-curve $-1 0 -35.973216731807703 -13.280459247454189 -1 0 0 I I #
vertex $-1 $303 $470 #
straight-curve $-1 0 35.973216731807703 -13.280459247454189 1 0 0 I I #
point $-1 56.072267830439159 35.973216731807703 -13.280459247454189 #
point $-1 56.072267830439159 -35.973216731807703 -13.280459247454189 #
straight-curve $-1 -56.072267830439159 0 13.280459247454189 0 -1 0 I I #
point $-1 -56.072267830439159 35.973216731807703 13.280459247454189 #
point $-1 -56.072267830439159 -35.973216731807703 13.280459247454189 #
straight-curve $-1 56.072267830439159 -35.973216731807703 0 0 0 -1 I I #
straight-curve $-1 56.072267830439159 35.973216731807703 0 0 0 -1 I I #
plane-surface $-1 56.072267830439159 0 0 -1 0 0 0 0 1 forward_v I I I I #
coedge $-1 $324 $323 $334 $430 reversed $135 $-1 #
edge $-1 $330 21.292397965475864 $471 35.973216731807703 $324 $472 forward 7 unknown #
straight-curve $-1 -56.072267830439159 -21.292397965475864 5.8902296237270946 0 0 -1 I I #
straight-curve $-1 56.072267830439159 -21.292397965475864 5.8902296237270946 0 0 1 I I #
coedge $-1 $328 $327 $429 $473 forward $321 $-1 #
edge $-1 $433 -35.973216731807703 $329 -21.292397965475864 $339 $474 forward 7 unknown #
point $-1 56.072267830439159 -21.292397965475864 13.280459247454189 #
point $-1 -56.072267830439159 -21.292397965475864 13.280459247454189 #
straight-curve $-1 -56.072267830439159 -14.316403674320892 10.280459247454189 0 -1 0 I I #
coedge $-1 $334 $333 $424 $473 reversed $220 $-1 #
edge $-1 $471 -13.280459247454189 $335 -10.280459247454189 $420 $475 forward 7 unknown #
point $-1 -56.072267830439159 -35.973216731807703 10.280459247454189 #
point $-1 -56.072267830439159 -21.292397965475864 10.280459247454189 #
vertex $-1 $425 $476 #
straight-curve $-1 56.072267830439159 -35.973216731807703 0 0 0 -1 I I #
edge $-1 $436 65.220538775360325 $439 77.685890349701694 $344 $477 forward 7 unknown #
vertex $-1 $358 $478 #
straight-curve $-1 41.806116283574056 22.130083432406071 13.280459247454189 1 0 0 I I #
edge $-1 $439 8.799332107898536 $355 17.862170541116534 $354 $479 forward 7 unknown #
vertex $-1 $438 $480 #
straight-curve $-1 -8.2511939874644753 22.130083432406071 92.678534227725379 -0.57357642473473569 0 0.81915205242281985 I I #
point $-1 47.343934955089523 22.130083432406071 13.280459247454189 #
point $-1 56.072267830439159 31.192921865624069 0.81510767311281995 #
straight-curve $-1 56.072267830439159 0 13.280459247454189 0 1 0 I I #
vertex $-1 $361 $481 #
point $-1 51.164275373808273 23.942651119049671 6.0566051055090568 #
vertex $-1 $365 $482 #
point $-1 51.164275373808273 26.66150264901507 6.0566051055090568 #
vertex $-1 $369 $483 #
point $-1 51.164275373808273 29.380354178980475 6.0566051055090568 #
coedge $-1 $375 $454 $377 $452 reversed $267 $-1 #
straight-curve $-1 -56.072267830439159 -8.7832265686915179 49.690147092147029 0 0 -1 I I #
edge $-1 $378 8.7832265686915179 $459 21.292397965475864 $450 $484 forward 7 unknown #
point $-1 -56.072267830439159 -8.7832265686915179 13.280459247454189 #
coedge $-1 $450 $380 $383 $456 forward $267 $-1 #
straight-curve $-1 -56.072267830439159 -7.5189061335418454 4.2763347130588727 0 -1 0 I I #
edge $-1 $384 -45.413812379088156 $459 -36.40968784469284 $454 $485 forward 7 unknown #
point $-1 -56.072267830439159 -21.292397965475864 4.2763347130588727 #
point $-1 -56.072267830439159 -8.7832265686915179 4.2763347130588727 #
vertex $-1 $456 $486 #
straight-curve $-1 0 -21.292397965475864 13.280459247454189 1 0 0 I I #
vertex $-1 $391 $487 #
point $-1 -47.344137853062747 -18.790563686118997 8.2276482601402581 #
vertex $-1 $395 $488 #
point $-1 -47.344137853062747 -15.037812267083691 8.2276482601402581 #
vertex $-1 $399 $489 #
point $-1 -47.344137853062747 -11.285060848048385 8.2276482601402581 #
straight-curve $-1 -56.072267830439159 35.973216731807703 0 0 0 -1 I I #
point $-1 -56.072267830439159 -35.973216731807703 -13.280459247454189 #
straight-curve $-1 -56.072267830439159 0 -13.280459247454189 0 1 0 I I #
point $-1 -56.072267830439159 35.973216731807703 -13.280459247454189 #
vertex $-1 $421 $490 #
straight-curve $-1 -56.072267830439159 0 13.280459247454189 0 -1 0 I I #
edge $-1 $471 -56.072267830439159 $433 56.072267830439159 $429 $491 forward 7 unknown #
straight-curve $-1 56.072267830439159 0 13.280459247454189 0 1 0 I I #
straight-curve $-1 -56.072267830439159 -35.973216731807703 0 0 0 -1 I I #
point $-1 56.072267830439159 -35.973216731807703 13.280459247454189 #
straight-curve $-1 56.072267830439159 22.130083432406071 78.500998022814514 0 0 -1 I I #
point $-1 56.072267830439159 22.130083432406071 13.280459247454189 #
straight-curve $-1 56.072267830439159 13.330751324507535 0.81510767311281995 0 1 0 I I #
point $-1 56.072267830439159 22.130083432406071 0.81510767311281995 #
point $-1 50.467911135229492 23.942651119049671 6.1793929193530994 #
point $-1 50.467911135229492 26.66150264901507 6.1793929193530994 #
point $-1 50.467911135229492 29.380354178980475 6.1793929193530994 #
straight-curve $-1 -56.072267830439159 0 13.280459247454189 0 -1 0 I I #
straight-curve $-1 -56.072267830439159 -21.292397965475864 49.690147092147029 0 0 1 I I #
point $-1 -56.072267830439159 -21.292397965475864 13.280459247454189 #
point $-1 -47.66226667361677 -18.790563686118997 6.8496808971258405 #
point $-1 -47.66226667361677 -15.037812267083691 6.8496808971258405 #
point $-1 -47.66226667361677 -11.285060848048385 6.8496808971258405 #
point $-1 -56.072267830439159 -35.973216731807703 13.280459247454189 #
straight-curve $-1 0 -35.973216731807703 13.280459247454189 1 0 0 I I #
End-of-ACIS-data 