500 0 9 0           
7 Unknown 11 ACIS 5.0 NT 24 Fri Mar 26 17:50:16 1999 
-1 9.9999999999999995e-007 1e-010 
body $-1 $9 $-1 $10 #
body $-1 $11 $-1 $12 #
body $-1 $13 $-1 $14 #
body $-1 $15 $-1 $16 #
body $-1 $17 $-1 $18 #
body $-1 $19 $-1 $20 #
body $-1 $21 $-1 $22 #
body $-1 $23 $-1 $24 #
body $-1 $25 $-1 $26 #
lump $-1 $-1 $27 $0 #
transform $-1 1 0 0 0 1 0 0 0 1 55.665761284218881 24.832906038032103 6.9964422120396978 1 rotate no_reflect no_shear #
lump $-1 $-1 $28 $1 #
transform $-1 1 0 0 0 1 0 0 0 1 55.665761284218881 24.832906038032103 6.9964422120396978 1 rotate no_reflect no_shear #
lump $-1 $-1 $29 $2 #
transform $-1 1 0 0 0 1 0 0 0 1 55.665761284218881 24.832906038032103 6.9964422120396978 1 rotate no_reflect no_shear #
lump $-1 $-1 $30 $3 #
transform $-1 1 0 0 0 1 0 0 0 1 55.665761284218881 24.832906038032103 6.9964422120396978 1 rotate no_reflect no_shear #
lump $-1 $-1 $31 $4 #
transform $-1 1 0 0 0 1 0 0 0 1 55.665761284218881 24.832906038032103 6.9964422120396978 1 rotate no_reflect no_shear #
lump $-1 $-1 $32 $5 #
transform $-1 1 0 0 0 1 0 0 0 1 55.665761284218881 24.832906038032103 6.9964422120396978 1 rotate no_reflect no_shear #
lump $-1 $-1 $33 $6 #
transform $-1 1 0 0 0 1 0 0 0 1 55.665761284218881 24.832906038032103 6.9964422120396978 1 rotate no_reflect no_shear #
lump $-1 $-1 $34 $7 #
transform $-1 1 0 0 0 1 0 0 0 1 55.665761284218881 24.832906038032103 6.9964422120396978 1 rotate no_reflect no_shear #
lump $-1 $-1 $35 $8 #
transform $-1 1 0 0 0 1 0 0 0 1 55.665761284218881 24.832906038032103 6.9964422120396978 1 rotate no_reflect no_shear #
shell $-1 $-1 $-1 $36 $-1 $9 #
shell $-1 $-1 $-1 $37 $-1 $11 #
shell $-1 $-1 $-1 $38 $-1 $13 #
shell $-1 $-1 $-1 $39 $-1 $15 #
shell $-1 $-1 $-1 $40 $-1 $17 #
shell $-1 $-1 $-1 $41 $-1 $19 #
shell $-1 $-1 $-1 $42 $-1 $21 #
shell $-1 $-1 $-1 $43 $-1 $23 #
shell $-1 $-1 $-1 $44 $-1 $25 #
face $-1 $45 $46 $27 $-1 $47 forward single #
face $-1 $48 $49 $28 $-1 $50 reversed single #
face $-1 $51 $52 $29 $-1 $53 forward single #
face $-1 $54 $55 $30 $-1 $56 reversed single #
face $-1 $57 $58 $31 $-1 $59 forward single #
face $-1 $60 $61 $32 $-1 $62 forward single #
face $-1 $63 $64 $33 $-1 $65 reversed single #
face $-1 $66 $67 $34 $-1 $68 forward single #
face $-1 $69 $70 $35 $-1 $71 forward single #
face $-1 $72 $73 $27 $-1 $74 reversed single #
loop $-1 $-1 $75 $36 #
plane-surface $-1 0 0 6.9964422120396978 0 0 1 1 0 0 forward_v I I I I #
face $-1 $76 $77 $28 $-1 $78 reversed single #
loop $-1 $-1 $79 $37 #
plane-surface $-1 -44.672876860139482 -22.255690631840018 0 1 0 0 0 0 -1 forward_v I I I I #
face $-1 $80 $81 $29 $-1 $82 reversed single #
loop $-1 $-1 $83 $38 #
plane-surface $-1 0 24.832906038032103 0 0 -1 0 0 0 -1 forward_v I I I I #
face $-1 $84 $85 $30 $-1 $86 reversed single #
loop $-1 $-1 $87 $39 #
plane-surface $-1 -113.00573510742973 -19.678475225647929 96.194097759535069 0 1 0 -0.51503808176128008 0 0.85716729658548041 forward_v I I I I #
face $-1 $88 $89 $31 $-1 $90 forward single #
loop $-1 $91 $92 $40 #
cone-surface $-1 -50.222277006930987 -17.571722395754641 3.4518162251280415 0.51503808176128008 0 -0.85716729658548041 0.4285836482927402 0 0.25751904088064004 1 I I 0 1 0.5 forward I I I I #
face $-1 $93 $94 $32 $-1 $95 forward single #
loop $-1 $96 $97 $41 #
cone-surface $-1 -50.222277006930987 -14.411593150914705 3.4518162251280415 0.51503808176128008 0 -0.85716729658548041 0.4285836482927402 0 0.25751904088064004 1 I I 0 1 0.5 forward I I I I #
face $-1 $98 $99 $33 $-1 $100 reversed single #
loop $-1 $-1 $101 $42 #
plane-surface $-1 17.575994882696541 -12.304840321021416 153.5340715827459 0 -1 0 -0.51503808176128008 0 -0.85716729658548041 forward_v I I I I #
face $-1 $102 $103 $34 $-1 $104 forward single #
loop $-1 $105 $106 $43 #
cone-surface $-1 50.222277006930995 -17.571722395754641 3.4518162251280415 -0.51503808176128008 0 -0.85716729658548041 0.4285836482927402 0 -0.25751904088064004 1 I I 0 1 0.5 forward I I I I #
face $-1 $107 $108 $35 $-1 $109 forward single #
loop $-1 $110 $111 $44 #
cone-surface $-1 50.222277006930995 -14.411593150914705 3.4518162251280415 -0.51503808176128008 0 -0.85716729658548041 0.4285836482927402 0 -0.25751904088064004 1 I I 0 1 0.5 forward I I I I #
face $-1 $112 $113 $27 $-1 $114 reversed single #
loop $-1 $-1 $115 $45 #
plane-surface $-1 0 0 -6.9964422120396978 0 0 1 1 0 0 forward_v I I I I #
coedge $-1 $116 $117 $118 $119 forward $46 $-1 #
face $-1 $120 $121 $28 $-1 $122 reversed single #
loop $-1 $-1 $123 $48 #
plane-surface $-1 -43.172876860139482 -19.678475225647929 0 0 -1 0 0 0 -1 forward_v I I I I #
coedge $-1 $124 $125 $126 $127 forward $49 $-1 #
face $-1 $128 $129 $29 $-1 $130 forward single #
loop $-1 $-1 $131 $51 #
plane-surface $-1 55.665761284218881 0 0 -1 0 0 0 0 1 forward_v I I I I #
coedge $-1 $132 $133 $134 $135 forward $52 $-1 #
face $-1 $136 $137 $30 $-1 $138 reversed single #
loop $-1 $-1 $139 $54 #
plane-surface $-1 -55.665761284218881 -15.991657773334673 0.76435753480187429 -0.51503808176128008 0 0.85716729658548041 0.85716729658548041 0 0.51503808176128008 forward_v I I I I #
coedge $-1 $140 $141 $142 $143 reversed $55 $-1 #
face $-1 $-1 $144 $31 $-1 $145 forward single #
loop $-1 $146 $147 $57 #
cone-surface $-1 -49.835998445610031 -17.571722395754641 2.8089407526889314 0.51503808176128008 0 -0.85716729658548041 0.2142918241463701 0 0.12875952044032002 1 I I -0.70710678118654746 0.70710678118654746 0.25 forward I I I I #
loop $-1 $-1 $148 $40 #
coedge $-1 $92 $92 $149 $150 reversed $58 $-1 #
face $-1 $-1 $151 $32 $-1 $152 forward single #
loop $-1 $153 $154 $60 #
cone-surface $-1 -49.835998445610031 -14.411593150914705 2.8089407526889314 0.51503808176128008 0 -0.85716729658548041 0.2142918241463701 0 0.12875952044032002 1 I I -0.70710678118654746 0.70710678118654746 0.25 forward I I I I #
loop $-1 $-1 $155 $41 #
coedge $-1 $97 $97 $156 $157 reversed $61 $-1 #
face $-1 $158 $159 $33 $-1 $160 reversed single #
loop $-1 $-1 $161 $63 #
plane-surface $-1 -39.763978940514306 -15.991657773334673 58.104331358012701 0.51503808176128008 0 0.85716729658548041 0.85716729658548041 0 -0.51503808176128008 forward_v I I I I #
coedge $-1 $162 $163 $164 $165 reversed $64 $-1 #
face $-1 $-1 $166 $34 $-1 $167 forward single #
loop $-1 $168 $169 $66 #
cone-surface $-1 49.835998445610038 -17.571722395754641 2.8089407526889314 -0.51503808176128008 0 -0.85716729658548041 0.2142918241463701 0 -0.12875952044032002 1 I I -0.70710678118654746 0.70710678118654746 0.25 forward I I I I #
loop $-1 $-1 $170 $43 #
coedge $-1 $106 $106 $171 $172 reversed $67 $-1 #
face $-1 $-1 $173 $35 $-1 $174 forward single #
loop $-1 $175 $176 $69 #
cone-surface $-1 49.835998445610038 -14.411593150914705 2.8089407526889314 -0.51503808176128008 0 -0.85716729658548041 0.2142918241463701 0 -0.12875952044032002 1 I I -0.70710678118654746 0.70710678118654746 0.25 forward I I I I #
loop $-1 $-1 $177 $44 #
coedge $-1 $111 $111 $178 $179 reversed $70 $-1 #
face $-1 $180 $181 $27 $-1 $182 reversed single #
loop $-1 $-1 $183 $72 #
plane-surface $-1 0 -24.832906038032103 0 0 1 0 0 0 1 forward_v I I I I #
coedge $-1 $184 $185 $186 $187 forward $73 $-1 #
coedge $-1 $188 $75 $189 $190 forward $46 $-1 #
coedge $-1 $75 $188 $191 $192 forward $46 $-1 #
coedge $-1 $193 $194 $75 $119 reversed $195 $-1 #
edge $-1 $196 -24.832906038032103 $197 24.832906038032103 $118 $198 forward 7 unknown #
face $-1 $199 $200 $28 $-1 $201 forward single #
loop $-1 $-1 $202 $76 #
plane-surface $-1 -41.672876860139482 -22.255690631840018 0 -1 0 0 0 0 1 forward_v I I I I #
coedge $-1 $203 $204 $205 $206 forward $77 $-1 #
coedge $-1 $207 $79 $208 $209 reversed $49 $-1 #
coedge $-1 $79 $207 $210 $211 reversed $49 $-1 #
coedge $-1 $204 $203 $79 $127 reversed $77 $-1 #
edge $-1 $212 -6.9964422120396978 $213 6.9964422120396978 $126 $214 forward 7 unknown #
face $-1 $215 $216 $29 $-1 $217 reversed single #
loop $-1 $-1 $218 $80 #
plane-surface $-1 0 28.093813512418681 4.6238820555685685 0 0 1 1 0 0 forward_v I I I I #
coedge $-1 $219 $220 $133 $221 forward $81 $-1 #
coedge $-1 $222 $83 $223 $224 reversed $52 $-1 #
coedge $-1 $83 $222 $131 $221 reversed $52 $-1 #
coedge $-1 $218 $225 $83 $135 reversed $129 $-1 #
edge $-1 $226 -55.665761284218881 $227 55.665761284218881 $134 $228 forward 7 unknown #
face $-1 $229 $230 $30 $-1 $231 reversed single #
loop $-1 $-1 $232 $84 #
plane-surface $-1 -113.00573510742973 -12.304840321021416 96.194097759535069 0 -1 0 0.51503808176128008 0 -0.85716729658548041 forward_v I I I I #
coedge $-1 $233 $234 $235 $236 reversed $85 $-1 #
coedge $-1 $141 $87 $237 $238 reversed $55 $-1 #
coedge $-1 $87 $140 $233 $239 reversed $55 $-1 #
coedge $-1 $235 $240 $87 $143 forward $241 $-1 #
edge $-1 $242 0.83710626949598321 $243 11.209036742310474 $142 $244 forward 7 unknown #
loop $-1 $-1 $149 $88 #
plane-surface $-1 -55.665761284218881 -15.991657773334673 0.76435753480187429 -0.51503808176128008 0 0.85716729658548041 0.85716729658548041 0 0.51503808176128008 forward_v I I I I #
loop $-1 $-1 $245 $57 #
coedge $-1 $147 $147 $148 $246 reversed $89 $-1 #
coedge $-1 $148 $148 $147 $246 forward $91 $-1 #
coedge $-1 $149 $149 $92 $150 forward $144 $-1 #
edge $-1 $247 0 $247 6.2831853071796004 $149 $248 forward 7 unknown #
loop $-1 $-1 $156 $93 #
plane-surface $-1 -55.665761284218881 -15.991657773334673 0.76435753480187429 -0.51503808176128008 0 0.85716729658548041 0.85716729658548041 0 0.51503808176128008 forward_v I I I I #
loop $-1 $-1 $249 $60 #
coedge $-1 $154 $154 $155 $250 reversed $94 $-1 #
coedge $-1 $155 $155 $154 $250 forward $96 $-1 #
coedge $-1 $156 $156 $97 $157 forward $151 $-1 #
edge $-1 $251 0 $251 6.2831853071796004 $156 $252 forward 7 unknown #
face $-1 $253 $254 $33 $-1 $255 forward single #
loop $-1 $-1 $256 $98 #
plane-surface $-1 17.575994882696541 -19.678475225647929 153.5340715827459 0 1 0 0.51503808176128008 0 0.85716729658548041 forward_v I I I I #
coedge $-1 $257 $258 $259 $260 reversed $99 $-1 #
coedge $-1 $163 $101 $261 $262 reversed $64 $-1 #
coedge $-1 $101 $162 $257 $263 reversed $64 $-1 #
coedge $-1 $259 $264 $101 $165 forward $254 $-1 #
edge $-1 $265 -46.877763842870607 $266 -36.505833370056109 $164 $267 forward 7 unknown #
loop $-1 $-1 $171 $102 #
plane-surface $-1 -39.763978940514306 -15.991657773334673 58.104331358012701 0.51503808176128008 0 0.85716729658548041 0.85716729658548041 0 -0.51503808176128008 forward_v I I I I #
loop $-1 $-1 $268 $66 #
coedge $-1 $169 $169 $170 $269 reversed $103 $-1 #
coedge $-1 $170 $170 $169 $269 forward $105 $-1 #
coedge $-1 $171 $171 $106 $172 forward $166 $-1 #
edge $-1 $270 0 $270 6.2831853071796004 $171 $271 forward 7 unknown #
loop $-1 $-1 $178 $107 #
plane-surface $-1 -39.763978940514306 -15.991657773334673 58.104331358012701 0.51503808176128008 0 0.85716729658548041 0.85716729658548041 0 -0.51503808176128008 forward_v I I I I #
loop $-1 $-1 $272 $69 #
coedge $-1 $176 $176 $177 $273 reversed $108 $-1 #
coedge $-1 $177 $177 $176 $273 forward $110 $-1 #
coedge $-1 $178 $178 $111 $179 forward $173 $-1 #
edge $-1 $274 0 $274 6.2831853071796004 $178 $275 forward 7 unknown #
face $-1 $276 $277 $27 $-1 $278 reversed single #
loop $-1 $-1 $279 $112 #
plane-surface $-1 -55.665761284218881 0 0 1 0 0 0 0 -1 forward_v I I I I #
coedge $-1 $280 $191 $281 $282 forward $113 $-1 #
coedge $-1 $283 $115 $280 $284 forward $73 $-1 #
coedge $-1 $115 $283 $285 $286 forward $73 $-1 #
coedge $-1 $194 $193 $115 $187 reversed $195 $-1 #
edge $-1 $287 -24.832906038032103 $288 24.832906038032103 $186 $289 forward 7 unknown #
coedge $-1 $117 $116 $290 $291 forward $46 $-1 #
coedge $-1 $292 $293 $116 $190 reversed $277 $-1 #
edge $-1 $197 -55.665761284218881 $294 55.665761284218881 $189 $295 forward 7 unknown #
coedge $-1 $183 $296 $117 $192 reversed $113 $-1 #
edge $-1 $297 -55.665761284218881 $196 55.665761284218881 $191 $298 forward 7 unknown #
coedge $-1 $186 $118 $296 $299 forward $195 $-1 #
coedge $-1 $118 $186 $292 $300 reversed $195 $-1 #
loop $-1 $-1 $193 $276 #
vertex $-1 $119 $301 #
vertex $-1 $119 $302 #
straight-curve $-1 55.665761284218881 0 6.9964422120396978 0 1 0 I I #
face $-1 $303 $304 $28 $-1 $305 reversed single #
loop $-1 $-1 $306 $120 #
plane-surface $-1 0 0 6.9964422120396978 0 0 1 1 0 0 forward_v I I I I #
coedge $-1 $307 $308 $309 $310 reversed $121 $-1 #
coedge $-1 $126 $123 $311 $312 reversed $77 $-1 #
coedge $-1 $123 $126 $313 $314 reversed $77 $-1 #
coedge $-1 $308 $307 $123 $206 reversed $121 $-1 #
edge $-1 $315 -6.9964422120396978 $316 6.9964422120396978 $205 $317 forward 7 unknown #
coedge $-1 $125 $124 $318 $319 reversed $49 $-1 #
coedge $-1 $311 $320 $124 $209 forward $304 $-1 #
edge $-1 $321 -13.705060722112098 $213 -8.5506299097279204 $208 $322 forward 7 unknown #
coedge $-1 $323 $313 $125 $211 forward $200 $-1 #
edge $-1 $212 8.5506299097279204 $324 13.705060722112098 $210 $325 forward 7 unknown #
vertex $-1 $211 $326 #
vertex $-1 $209 $327 #
straight-curve $-1 -44.672876860139482 -19.678475225647929 0 0 0 -1 I I #
face $-1 $328 $329 $29 $-1 $330 reversed single #
loop $-1 $-1 $331 $128 #
plane-surface $-1 0 28.093813512418681 1.6238820555685685 0 0 1 1 0 0 forward_v I I I I #
coedge $-1 $332 $134 $220 $333 forward $129 $-1 #
coedge $-1 $334 $131 $331 $335 reversed $81 $-1 #
coedge $-1 $131 $334 $218 $333 reversed $81 $-1 #
edge $-1 $226 -4.6238820555685685 $336 -1.6238820555685685 $131 $337 forward 7 unknown #
coedge $-1 $133 $132 $338 $339 forward $52 $-1 #
coedge $-1 $340 $341 $132 $224 forward $342 $-1 #
edge $-1 $343 1.6238820555685685 $227 4.6238820555685685 $223 $344 forward 7 unknown #
coedge $-1 $134 $332 $340 $345 forward $129 $-1 #
vertex $-1 $221 $346 #
vertex $-1 $345 $347 #
straight-curve $-1 0 24.832906038032103 4.6238820555685685 -1 0 0 I I #
face $-1 $-1 $241 $30 $-1 $348 forward single #
loop $-1 $-1 $349 $136 #
plane-surface $-1 -55.665761284218881 0 0 1 0 0 0 0 -1 forward_v I I I I #
coedge $-1 $350 $351 $352 $353 reversed $137 $-1 #
coedge $-1 $354 $139 $141 $239 forward $85 $-1 #
coedge $-1 $139 $354 $350 $355 forward $85 $-1 #
coedge $-1 $352 $142 $139 $236 forward $241 $-1 #
edge $-1 $243 -11.682646338980593 $356 -4.3090114343540797 $235 $357 forward 7 unknown #
coedge $-1 $358 $359 $140 $238 forward $230 $-1 #
edge $-1 $360 -47.33269134496566 $242 -41.100606667727838 $237 $361 forward 7 unknown #
edge $-1 $243 -12.100240541293395 $360 0 $141 $362 forward 7 unknown #
coedge $-1 $142 $352 $358 $363 forward $241 $-1 #
loop $-1 $-1 $352 $229 #
vertex $-1 $238 $364 #
vertex $-1 $143 $365 #
straight-curve $-1 -56.502867553714864 -19.678475225647929 6.9964422120396961 1 0 0 I I #
coedge $-1 $245 $245 $-1 $366 reversed $146 $-1 #
edge $-1 $367 0 $367 6.2831853071796004 $147 $368 forward 7 unknown #
vertex $-1 $150 $369 #
ellipse-curve $-1 -50.479796047811632 -17.571722395754641 3.8803998734207887 -0.51503808176128008 0 0.85716729658548041 0.4285836482927402 0 0.25751904088064004 1 I I #
coedge $-1 $249 $249 $-1 $370 reversed $153 $-1 #
edge $-1 $371 0 $371 6.2831853071796004 $154 $372 forward 7 unknown #
vertex $-1 $157 $373 #
ellipse-curve $-1 -50.479796047811632 -14.411593150914705 3.8803998734207887 -0.51503808176128008 0 0.85716729658548041 0.4285836482927402 0 0.25751904088064004 1 I I #
face $-1 $-1 $374 $33 $-1 $375 reversed single #
loop $-1 $-1 $164 $158 #
plane-surface $-1 0 0 6.9964422120396978 0 0 1 1 0 0 forward_v I I I I #
coedge $-1 $376 $377 $378 $379 reversed $159 $-1 #
coedge $-1 $380 $161 $163 $263 forward $99 $-1 #
coedge $-1 $161 $380 $376 $381 forward $99 $-1 #
coedge $-1 $378 $164 $161 $260 forward $254 $-1 #
edge $-1 $266 4.3090114343540797 $382 11.682646338980593 $259 $383 forward 7 unknown #
coedge $-1 $384 $385 $162 $262 forward $374 $-1 #
edge $-1 $386 -76.002678256571102 $265 -69.770593579333251 $261 $387 forward 7 unknown #
edge $-1 $266 99.231282027144331 $386 111.33152256843776 $163 $388 forward 7 unknown #
coedge $-1 $164 $378 $384 $389 forward $254 $-1 #
vertex $-1 $165 $390 #
vertex $-1 $165 $391 #
straight-curve $-1 8.7879974413482707 -12.304840321021416 6.9964422120396961 -1 0 0 I I #
coedge $-1 $268 $268 $-1 $392 reversed $168 $-1 #
edge $-1 $393 0 $393 6.2831853071796004 $169 $394 forward 7 unknown #
vertex $-1 $172 $395 #
ellipse-curve $-1 50.479796047811632 -17.571722395754641 3.8803998734207754 0.51503808176128008 0 0.85716729658548041 0.4285836482927402 0 -0.25751904088064004 1 I I #
coedge $-1 $272 $272 $-1 $396 reversed $175 $-1 #
edge $-1 $397 0 $397 6.2831853071796004 $176 $398 forward 7 unknown #
vertex $-1 $179 $399 #
ellipse-curve $-1 50.479796047811632 -14.411593150914705 3.8803998734207754 0.51503808176128008 0 0.85716729658548041 0.4285836482927402 0 -0.25751904088064004 1 I I #
face $-1 $-1 $195 $27 $-1 $400 reversed single #
loop $-1 $-1 $293 $180 #
plane-surface $-1 0 24.832906038032103 0 0 -1 0 0 0 -1 forward_v I I I I #
coedge $-1 $401 $290 $293 $402 forward $181 $-1 #
coedge $-1 $296 $183 $184 $284 reversed $113 $-1 #
coedge $-1 $290 $401 $183 $282 reversed $181 $-1 #
edge $-1 $297 -6.9964422120396978 $403 6.9964422120396978 $281 $404 forward 7 unknown #
coedge $-1 $185 $184 $401 $405 forward $73 $-1 #
edge $-1 $288 -55.665761284218881 $403 55.665761284218881 $280 $406 forward 7 unknown #
coedge $-1 $293 $292 $185 $286 reversed $277 $-1 #
edge $-1 $407 -55.665761284218881 $287 55.665761284218881 $285 $408 forward 7 unknown #
vertex $-1 $187 $409 #
vertex $-1 $299 $410 #
straight-curve $-1 55.665761284218881 0 -6.9964422120396978 0 -1 0 I I #
coedge $-1 $279 $281 $188 $291 reversed $181 $-1 #
edge $-1 $294 -24.832906038032103 $297 24.832906038032103 $290 $411 forward 7 unknown #
coedge $-1 $285 $189 $194 $300 forward $277 $-1 #
coedge $-1 $189 $285 $279 $402 reversed $277 $-1 #
vertex $-1 $190 $412 #
straight-curve $-1 0 24.832906038032103 6.9964422120396978 -1 0 0 I I #
coedge $-1 $191 $280 $193 $299 reversed $113 $-1 #
vertex $-1 $291 $413 #
straight-curve $-1 0 -24.832906038032103 6.9964422120396978 1 0 0 I I #
edge $-1 $196 -6.9964422120396978 $288 6.9964422120396978 $193 $414 forward 7 unknown #
edge $-1 $197 -6.9964422120396978 $287 6.9964422120396978 $194 $415 forward 7 unknown #
point $-1 55.665761284218881 -24.832906038032103 6.9964422120396978 #
point $-1 55.665761284218881 24.832906038032103 6.9964422120396978 #
face $-1 $-1 $416 $28 $-1 $417 reversed single #
loop $-1 $-1 $418 $199 #
plane-surface $-1 0 0 -6.9964422120396978 0 0 1 1 0 0 forward_v I I I I #
coedge $-1 $313 $323 $308 $419 forward $200 $-1 #
coedge $-1 $205 $202 $418 $420 reversed $121 $-1 #
coedge $-1 $202 $205 $306 $419 reversed $121 $-1 #
coedge $-1 $421 $422 $202 $310 forward $416 $-1 #
edge $-1 $423 -6.9964422120396978 $424 6.9964422120396978 $309 $425 forward 7 unknown #
coedge $-1 $418 $208 $203 $312 forward $304 $-1 #
edge $-1 $213 -23.086438430069741 $316 -20.086438430069741 $311 $426 forward 7 unknown #
coedge $-1 $210 $306 $204 $314 forward $200 $-1 #
edge $-1 $315 20.086438430069741 $212 23.086438430069741 $313 $427 forward 7 unknown #
vertex $-1 $314 $428 #
vertex $-1 $312 $429 #
straight-curve $-1 -41.672876860139482 -19.678475225647929 0 0 0 -1 I I #
coedge $-1 $422 $421 $207 $319 forward $416 $-1 #
edge $-1 $324 -6.9964422120396978 $321 6.9964422120396978 $318 $430 forward 7 unknown #
coedge $-1 $208 $418 $422 $431 forward $304 $-1 #
vertex $-1 $209 $432 #
straight-curve $-1 -44.672876860139482 -11.127845315920009 -6.9964422120396978 0 1 0 I I #
coedge $-1 $306 $210 $421 $433 forward $200 $-1 #
vertex $-1 $433 $434 #
straight-curve $-1 -44.672876860139482 -11.127845315920009 6.9964422120396978 0 -1 0 I I #
point $-1 -44.672876860139482 -19.678475225647929 6.9964422120396978 #
point $-1 -44.672876860139482 -19.678475225647929 -6.9964422120396978 #
face $-1 $-1 $342 $29 $-1 $435 reversed single #
loop $-1 $-1 $436 $215 #
plane-surface $-1 0 31.354720986805262 3.1238820555685685 0 -1 0 0 0 -1 forward_v I I I I #
coedge $-1 $338 $437 $219 $335 forward $216 $-1 #
coedge $-1 $225 $218 $438 $439 forward $129 $-1 #
edge $-1 $226 -3.2609074743865811 $440 3.2609074743865811 $220 $441 forward 7 unknown #
coedge $-1 $220 $219 $436 $442 reversed $81 $-1 #
edge $-1 $443 -3.2609074743865811 $336 3.2609074743865811 $219 $444 forward 7 unknown #
vertex $-1 $221 $445 #
straight-curve $-1 55.665761284218881 24.832906038032103 0 0 0 -1 I I #
coedge $-1 $446 $331 $222 $339 reversed $216 $-1 #
edge $-1 $343 -55.665761284218881 $336 55.665761284218881 $338 $447 forward 7 unknown #
coedge $-1 $448 $223 $225 $345 reversed $342 $-1 #
coedge $-1 $223 $448 $446 $449 reversed $342 $-1 #
loop $-1 $-1 $223 $328 #
vertex $-1 $224 $450 #
straight-curve $-1 -55.665761284218881 24.832906038032103 0 0 0 1 I I #
edge $-1 $451 -3.2609074743865811 $227 3.2609074743865811 $340 $452 forward 7 unknown #
point $-1 55.665761284218881 24.8329060380321 4.6238820555685685 #
point $-1 -55.665761284218881 24.8329060380321 4.6238820555685685 #
plane-surface $-1 0 0 6.9964422120396978 0 0 1 1 0 0 forward_v I I I I #
coedge $-1 $359 $358 $351 $453 forward $230 $-1 #
coedge $-1 $351 $232 $234 $355 reversed $137 $-1 #
coedge $-1 $232 $350 $349 $453 reversed $137 $-1 #
coedge $-1 $240 $235 $232 $353 forward $241 $-1 #
edge $-1 $356 -11.209036742310474 $454 -0.83710626949598321 $352 $455 forward 7 unknown #
coedge $-1 $234 $233 $359 $456 reversed $85 $-1 #
edge $-1 $457 0 $356 12.100240541293395 $350 $458 forward 7 unknown #
vertex $-1 $236 $459 #
straight-curve $-1 -45.293830811404391 -7.9958288866673364 6.9964422120396978 0 1 0 I I #
coedge $-1 $349 $237 $240 $363 reversed $230 $-1 #
coedge $-1 $237 $349 $354 $456 forward $230 $-1 #
vertex $-1 $238 $460 #
straight-curve $-1 -55.665761284218881 -19.678475225647929 48.097048879767534 0 0 1 I I #
straight-curve $-1 -55.665761284218881 -19.678475225647929 0.76435753480187429 -0.85716729658548041 0 -0.51503808176128008 I I #
edge $-1 $454 12.304840321021416 $242 19.678475225647929 $358 $461 forward 7 unknown #
point $-1 -55.665761284218881 -19.678475225647929 6.9964422120396978 #
point $-1 -45.293830811404391 -19.678475225647929 6.9964422120396978 #
edge $-1 $462 1 $462 0 $245 $-1 forward 7 unknown #
vertex $-1 $246 $463 #
ellipse-curve $-1 -49.96475796605035 -17.571722395754641 3.0232325768353014 -0.51503808176128008 0 0.85716729658548041 0.4285836482927402 0 0.25751904088064004 1 I I #
point $-1 -50.051212399518889 -17.571722395754641 4.1379189143014221 #
edge $-1 $464 1 $464 0 $249 $-1 forward 7 unknown #
vertex $-1 $250 $465 #
ellipse-curve $-1 -49.96475796605035 -14.411593150914705 3.0232325768353014 -0.51503808176128008 0 0.85716729658548041 0.4285836482927402 0 0.25751904088064004 1 I I #
point $-1 -50.051212399518889 -14.411593150914705 4.1379189143014221 #
loop $-1 $-1 $261 $253 #
plane-surface $-1 55.665761284218881 0 0 -1 0 0 0 0 1 forward_v I I I I #
coedge $-1 $377 $256 $258 $381 reversed $159 $-1 #
coedge $-1 $256 $376 $466 $467 reversed $159 $-1 #
coedge $-1 $264 $259 $256 $379 forward $254 $-1 #
edge $-1 $382 36.505833370056109 $468 46.877763842870607 $378 $469 forward 7 unknown #
coedge $-1 $258 $257 $385 $470 reversed $99 $-1 #
edge $-1 $471 -111.33152256843776 $382 -99.231282027144331 $376 $472 forward 7 unknown #
vertex $-1 $260 $473 #
straight-curve $-1 45.293830811404376 -7.9958288866673364 6.9964422120396961 0 -1 0 I I #
coedge $-1 $466 $261 $264 $389 reversed $374 $-1 #
coedge $-1 $261 $466 $380 $470 forward $374 $-1 #
vertex $-1 $262 $474 #
straight-curve $-1 55.665761284218881 -12.304840321021416 76.767035791372948 0 0 1 I I #
straight-curve $-1 -39.763978940514306 -12.304840321021416 58.104331358012701 0.85716729658548041 0 -0.51503808176128008 I I #
edge $-1 $468 -19.678475225647929 $265 -12.304840321021416 $384 $475 forward 7 unknown #
point $-1 55.665761284218881 -12.304840321021416 6.9964422120396978 #
point $-1 45.293830811404376 -12.304840321021416 6.9964422120396961 #
edge $-1 $476 1 $476 0 $268 $-1 forward 7 unknown #
vertex $-1 $269 $477 #
ellipse-curve $-1 49.964757966050357 -17.571722395754641 3.0232325768353014 0.51503808176128008 0 0.85716729658548041 0.4285836482927402 0 -0.25751904088064004 1 I I #
point $-1 50.908379696104376 -17.571722395754641 3.622880832540142 #
edge $-1 $478 1 $478 0 $272 $-1 forward 7 unknown #
vertex $-1 $273 $479 #
ellipse-curve $-1 49.964757966050357 -14.411593150914705 3.0232325768353014 0.51503808176128008 0 0.85716729658548041 0.4285836482927402 0 -0.25751904088064004 1 I I #
point $-1 50.908379696104376 -14.411593150914705 3.622880832540142 #
plane-surface $-1 55.665761284218881 0 0 -1 0 0 0 0 1 forward_v I I I I #
coedge $-1 $281 $279 $283 $405 reversed $181 $-1 #
edge $-1 $294 -6.9964422120396978 $407 6.9964422120396978 $293 $480 forward 7 unknown #
vertex $-1 $405 $481 #
straight-curve $-1 -55.665761284218881 -24.832906038032103 0 0 0 -1 I I #
edge $-1 $403 -24.832906038032103 $407 24.832906038032103 $401 $482 forward 7 unknown #
straight-curve $-1 0 -24.832906038032103 -6.9964422120396978 -1 0 0 I I #
vertex $-1 $286 $483 #
straight-curve $-1 0 24.832906038032103 -6.9964422120396978 1 0 0 I I #
point $-1 55.665761284218881 24.832906038032103 -6.9964422120396978 #
point $-1 55.665761284218881 -24.832906038032103 -6.9964422120396978 #
straight-curve $-1 -55.665761284218881 0 6.9964422120396978 0 -1 0 I I #
point $-1 -55.665761284218881 24.832906038032103 6.9964422120396978 #
point $-1 -55.665761284218881 -24.832906038032103 6.9964422120396978 #
straight-curve $-1 55.665761284218881 -24.832906038032103 0 0 0 -1 I I #
straight-curve $-1 55.665761284218881 24.832906038032103 0 0 0 -1 I I #
loop $-1 $-1 $309 $303 #
plane-surface $-1 0 -24.832906038032103 0 0 1 0 0 0 1 forward_v I I I I #
coedge $-1 $320 $311 $307 $420 forward $304 $-1 #
edge $-1 $424 -13.705060722112098 $315 -8.5506299097279204 $306 $484 forward 7 unknown #
edge $-1 $316 8.5506299097279204 $423 13.705060722112098 $418 $485 forward 7 unknown #
coedge $-1 $318 $309 $323 $433 reversed $416 $-1 #
coedge $-1 $309 $318 $320 $431 reversed $416 $-1 #
vertex $-1 $431 $486 #
vertex $-1 $310 $487 #
straight-curve $-1 -41.672876860139482 -24.832906038032103 0 0 0 1 I I #
straight-curve $-1 -21.586438430069741 -19.678475225647929 -6.9964422120396978 1 0 0 I I #
straight-curve $-1 -21.586438430069741 -19.678475225647929 6.9964422120396978 -1 0 0 I I #
point $-1 -41.672876860139482 -19.678475225647929 6.9964422120396978 #
point $-1 -41.672876860139482 -19.678475225647929 -6.9964422120396978 #
straight-curve $-1 -44.672876860139482 -24.832906038032103 0 0 0 -1 I I #
edge $-1 $423 41.672876860139482 $321 44.672876860139482 $422 $488 forward 7 unknown #
point $-1 -44.672876860139482 -24.832906038032107 -6.9964422120396978 #
edge $-1 $324 -44.672876860139482 $424 -41.672876860139482 $421 $489 forward 7 unknown #
point $-1 -44.672876860139482 -24.832906038032107 6.9964422120396978 #
plane-surface $-1 -55.665761284218881 0 0 1 0 0 0 0 -1 forward_v I I I I #
coedge $-1 $490 $438 $334 $442 forward $329 $-1 #
coedge $-1 $331 $446 $490 $491 forward $216 $-1 #
coedge $-1 $436 $492 $332 $439 reversed $329 $-1 #
edge $-1 $440 -55.665761284218881 $451 55.665761284218881 $438 $493 forward 7 unknown #
vertex $-1 $333 $494 #
straight-curve $-1 55.665761284218881 28.093813512418681 4.6238820555685685 0 1 0 I I #
edge $-1 $440 -1.5 $443 1.5 $334 $495 forward 7 unknown #
vertex $-1 $335 $496 #
straight-curve $-1 55.665761284218881 28.093813512418681 1.6238820555685685 0 -1 0 I I #
point $-1 55.665761284218881 24.8329060380321 1.6238820555685685 #
coedge $-1 $437 $338 $341 $449 forward $216 $-1 #
straight-curve $-1 0 24.832906038032103 1.6238820555685685 1 0 0 I I #
coedge $-1 $341 $340 $492 $497 forward $342 $-1 #
edge $-1 $343 -3.2609074743865811 $498 3.2609074743865811 $341 $499 forward 7 unknown #
point $-1 -55.665761284218881 24.8329060380321 1.6238820555685685 #
vertex $-1 $439 $500 #
straight-curve $-1 -55.665761284218881 28.093813512418681 4.6238820555685685 0 -1 0 I I #
edge $-1 $454 41.100606667727838 $457 47.33269134496566 $349 $501 forward 7 unknown #
vertex $-1 $363 $502 #
straight-curve $-1 -56.502867553714864 -12.304840321021416 6.9964422120396961 -1 0 0 I I #
edge $-1 $457 4.3090114343540797 $360 11.682646338980593 $359 $503 forward 7 unknown #
vertex $-1 $456 $504 #
straight-curve $-1 -55.665761284218881 -12.304840321021416 0.76435753480187429 0.85716729658548041 0 0.51503808176128008 I I #
point $-1 -45.293830811404391 -12.304840321021416 6.9964422120396978 #
point $-1 -55.665761284218881 -19.678475225647929 0.76435753480187429 #
straight-curve $-1 -55.665761284218881 0 6.9964422120396978 0 -1 0 I I #
vertex $-1 $366 $505 #
point $-1 -49.536174317757613 -17.571722395754641 3.2807516177159415 #
vertex $-1 $370 $506 #
point $-1 -49.536174317757613 -14.411593150914705 3.2807516177159415 #
coedge $-1 $385 $384 $377 $467 forward $374 $-1 #
edge $-1 $468 69.770593579333251 $471 76.002678256571102 $466 $507 forward 7 unknown #
vertex $-1 $389 $508 #
straight-curve $-1 8.7879974413482707 -19.678475225647929 6.9964422120396961 1 0 0 I I #
edge $-1 $471 -11.682646338980593 $386 -4.3090114343540797 $385 $509 forward 7 unknown #
vertex $-1 $470 $510 #
straight-curve $-1 -39.763978940514306 -19.678475225647929 58.104331358012701 -0.85716729658548041 0 0.51503808176128008 I I #
point $-1 45.293830811404376 -19.678475225647929 6.9964422120396961 #
point $-1 55.665761284218888 -12.304840321021416 0.76435753480185298 #
straight-curve $-1 55.665761284218881 0 6.9964422120396978 0 1 0 I I #
vertex $-1 $392 $511 #
point $-1 50.3933416143431 -17.571722395754641 2.7657135359546614 #
vertex $-1 $396 $512 #
point $-1 50.3933416143431 -14.411593150914705 2.7657135359546614 #
straight-curve $-1 -55.665761284218881 24.832906038032103 0 0 0 -1 I I #
point $-1 -55.665761284218881 -24.832906038032103 -6.9964422120396978 #
straight-curve $-1 -55.665761284218881 0 -6.9964422120396978 0 1 0 I I #
point $-1 -55.665761284218881 24.832906038032103 -6.9964422120396978 #
straight-curve $-1 -41.672876860139482 -11.127845315920009 6.9964422120396978 0 1 0 I I #
straight-curve $-1 -41.672876860139482 -11.127845315920009 -6.9964422120396978 0 -1 0 I I #
point $-1 -41.672876860139482 -24.832906038032107 -6.9964422120396978 #
point $-1 -41.672876860139482 -24.832906038032107 6.9964422120396978 #
straight-curve $-1 0 -24.832906038032103 -6.9964422120396978 -1 0 0 I I #
straight-curve $-1 0 -24.832906038032103 6.9964422120396978 1 0 0 I I #
coedge $-1 $492 $436 $437 $491 reversed $329 $-1 #
edge $-1 $498 -55.665761284218881 $443 55.665761284218881 $490 $513 forward 7 unknown #
coedge $-1 $438 $490 $448 $497 reversed $329 $-1 #
straight-curve $-1 0 31.354720986805262 4.6238820555685685 -1 0 0 I I #
point $-1 55.665761284218881 31.354720986805262 4.6238820555685685 #
straight-curve $-1 55.665761284218881 31.354720986805262 3.1238820555685685 0 0 -1 I I #
point $-1 55.665761284218881 31.354720986805262 1.6238820555685685 #
edge $-1 $451 -1.5 $498 1.5 $492 $514 forward 7 unknown #
vertex $-1 $491 $515 #
straight-curve $-1 -55.665761284218881 28.093813512418681 1.6238820555685685 0 1 0 I I #
point $-1 -55.665761284218881 31.354720986805262 4.6238820555685685 #
straight-curve $-1 -55.665761284218881 -12.304840321021416 48.097048879767534 0 0 -1 I I #
point $-1 -55.665761284218881 -12.304840321021416 6.9964422120396978 #
straight-curve $-1 -55.665761284218881 -7.9958288866673364 0.76435753480187529 0 -1 0 I I #
point $-1 -55.665761284218881 -12.304840321021416 0.76435753480187429 #
point $-1 -49.707238925169712 -17.571722395754641 2.5946489285425614 #
point $-1 -49.707238925169712 -14.411593150914705 2.5946489285425614 #
straight-curve $-1 55.665761284218881 -19.678475225647929 76.767035791372948 0 0 -1 I I #
point $-1 55.665761284218881 -19.678475225647929 6.9964422120396978 #
straight-curve $-1 55.665761284218888 -7.9958288866673364 0.76435753480185653 0 1 0 I I #
point $-1 55.665761284218888 -19.678475225647929 0.76435753480185298 #
point $-1 49.707238925169719 -17.571722395754641 2.5946489285425614 #
point $-1 49.707238925169719 -14.411593150914705 2.5946489285425614 #
straight-curve $-1 0 31.354720986805262 1.6238820555685685 1 0 0 I I #
straight-curve $-1 -55.665761284218881 31.354720986805262 3.1238820555685685 0 0 -1 I I #
point $-1 -55.665761284218881 31.354720986805262 1.6238820555685685 #
End-of-ACIS-data 