500 0 7 0           
7 Unknown 11 ACIS 5.0 NT 24 Thu Mar 25 20:18:12 1999 
-1 9.9999999999999995e-007 1e-010 
body $-1 $7 $-1 $8 #
body $-1 $9 $-1 $10 #
body $-1 $11 $-1 $12 #
body $-1 $13 $-1 $14 #
body $-1 $15 $-1 $16 #
body $-1 $17 $-1 $18 #
body $-1 $19 $-1 $20 #
lump $-1 $-1 $21 $0 #
transform $-1 1 0 0 0 1 0 0 0 1 56.118655964842674 32.032865190711128 8.4718408686392603 1 rotate no_reflect no_shear #
lump $-1 $-1 $22 $1 #
transform $-1 1 0 0 0 1 0 0 0 1 56.118655964842674 32.032865190711128 8.4718408686392603 1 rotate no_reflect no_shear #
lump $-1 $-1 $23 $2 #
transform $-1 1 0 0 0 1 0 0 0 1 56.118655964842674 32.032865190711128 8.4718408686392603 1 rotate no_reflect no_shear #
lump $-1 $-1 $24 $3 #
transform $-1 1 0 0 0 1 0 0 0 1 56.118655964842674 32.032865190711128 8.4718408686392603 1 rotate no_reflect no_shear #
lump $-1 $-1 $25 $4 #
transform $-1 1 0 0 0 1 0 0 0 1 56.118655964842674 32.032865190711128 8.4718408686392603 1 rotate no_reflect no_shear #
lump $-1 $-1 $26 $5 #
transform $-1 1 0 0 0 1 0 0 0 1 56.118655964842674 32.032865190711128 8.4718408686392603 1 rotate no_reflect no_shear #
lump $-1 $-1 $27 $6 #
transform $-1 1 0 0 0 1 0 0 0 1 56.118655964842674 32.032865190711128 8.4718408686392603 1 rotate no_reflect no_shear #
shell $-1 $-1 $-1 $28 $-1 $7 #
shell $-1 $-1 $-1 $29 $-1 $9 #
shell $-1 $-1 $-1 $30 $-1 $11 #
shell $-1 $-1 $-1 $31 $-1 $13 #
shell $-1 $-1 $-1 $32 $-1 $15 #
shell $-1 $-1 $-1 $33 $-1 $17 #
shell $-1 $-1 $-1 $34 $-1 $19 #
face $-1 $35 $36 $21 $-1 $37 forward single #
face $-1 $38 $39 $22 $-1 $40 reversed single #
face $-1 $41 $42 $23 $-1 $43 reversed single #
face $-1 $44 $45 $24 $-1 $46 reversed single #
face $-1 $47 $48 $25 $-1 $49 forward single #
face $-1 $50 $51 $26 $-1 $52 forward single #
face $-1 $53 $54 $27 $-1 $55 forward single #
face $-1 $56 $57 $21 $-1 $58 reversed single #
loop $-1 $-1 $59 $28 #
plane-surface $-1 0 0 8.4718408686392603 0 0 1 1 0 0 forward_v I I I I #
face $-1 $60 $61 $22 $-1 $62 reversed single #
loop $-1 $-1 $63 $29 #
plane-surface $-1 -51.344955782399332 0 3.8217524638776244 0 0 1 1 0 0 forward_v I I I I #
face $-1 $64 $65 $23 $-1 $66 reversed single #
loop $-1 $-1 $67 $30 #
plane-surface $-1 51.575919256820669 -26.713610400343335 0 0 1 0 0 0 1 forward_v I I I I #
face $-1 $68 $69 $24 $-1 $70 reversed single #
loop $-1 $-1 $71 $31 #
plane-surface $-1 27.064712761126032 41.682277056801574 133.73403094730361 1 0 0 0 -0.55919291073839883 -0.82903756765294845 forward_v I I I I #
face $-1 $72 $73 $25 $-1 $74 forward single #
loop $-1 $75 $76 $32 #
cone-surface $-1 29.775519229123688 28.743981403031714 5.7593509379797592 0 -0.55919291073839883 -0.82903756765294845 1 0 0 1 I I 0 1 1 forward I I I I #
face $-1 $77 $78 $26 $-1 $79 forward single #
loop $-1 $80 $81 $33 #
cone-surface $-1 33.841728931120173 28.743981403031714 5.7593509379797592 0 -0.55919291073839883 -0.82903756765294845 1 0 0 1 I I 0 1 1 forward I I I I #
face $-1 $82 $83 $27 $-1 $84 forward single #
loop $-1 $85 $86 $34 #
cone-surface $-1 37.907938633116657 28.743981403031714 5.7593509379797592 0 -0.55919291073839883 -0.82903756765294845 1 0 0 1 I I 0 1 1 forward I I I I #
face $-1 $87 $88 $21 $-1 $89 reversed single #
loop $-1 $-1 $90 $35 #
plane-surface $-1 0 0 -8.4718408686392603 0 0 1 1 0 0 forward_v I I I I #
coedge $-1 $91 $92 $93 $94 forward $36 $-1 #
face $-1 $95 $96 $22 $-1 $97 reversed single #
loop $-1 $-1 $98 $38 #
plane-surface $-1 -46.57125559995599 0 6.1467966662584423 -1 0 0 0 0 1 forward_v I I I I #
coedge $-1 $99 $100 $101 $102 forward $39 $-1 #
face $-1 $103 $104 $23 $-1 $105 reversed single #
loop $-1 $-1 $106 $41 #
plane-surface $-1 47.033182548798671 -25.213610400343335 0 1 0 0 0 0 -1 forward_v I I I I #
coedge $-1 $107 $108 $109 $110 forward $42 $-1 #
face $-1 $111 $112 $24 $-1 $113 reversed single #
loop $-1 $-1 $114 $44 #
plane-surface $-1 33.841728931120173 -21.08003209461279 40.68508286521201 0 0.55919291073839883 0.82903756765294845 1 0 0 forward_v I I I I #
coedge $-1 $115 $116 $117 $118 reversed $45 $-1 #
face $-1 $-1 $119 $25 $-1 $120 forward single #
loop $-1 $121 $122 $47 #
cone-surface $-1 29.775519229123688 27.852902627502978 4.4382723504918946 0 -0.55919291073839883 -0.82903756765294845 0.5 0 0 1 I I -0.70710678118654746 0.70710678118654746 0.5 forward I I I I #
loop $-1 $-1 $123 $32 #
coedge $-1 $76 $76 $124 $125 reversed $48 $-1 #
face $-1 $-1 $126 $26 $-1 $127 forward single #
loop $-1 $128 $129 $50 #
cone-surface $-1 33.841728931120173 27.852902627502978 4.4382723504918946 0 -0.55919291073839883 -0.82903756765294845 0.5 0 0 1 I I -0.70710678118654746 0.70710678118654746 0.5 forward I I I I #
loop $-1 $-1 $130 $33 #
coedge $-1 $81 $81 $131 $132 reversed $51 $-1 #
face $-1 $-1 $133 $27 $-1 $134 forward single #
loop $-1 $135 $136 $53 #
cone-surface $-1 37.907938633116657 27.852902627502978 4.4382723504918946 0 -0.55919291073839883 -0.82903756765294845 0.5 0 0 1 I I -0.70710678118654746 0.70710678118654746 0.5 forward I I I I #
loop $-1 $-1 $137 $34 #
coedge $-1 $86 $86 $138 $139 reversed $54 $-1 #
face $-1 $140 $141 $21 $-1 $142 reversed single #
loop $-1 $-1 $143 $56 #
plane-surface $-1 0 -32.032865190711128 0 0 1 0 0 0 1 forward_v I I I I #
coedge $-1 $144 $145 $146 $147 forward $57 $-1 #
coedge $-1 $148 $59 $149 $150 forward $36 $-1 #
coedge $-1 $59 $148 $151 $152 forward $36 $-1 #
coedge $-1 $153 $154 $59 $94 reversed $155 $-1 #
edge $-1 $156 -32.032865190711128 $157 32.032865190711128 $93 $158 forward 7 unknown #
face $-1 $159 $160 $22 $-1 $161 reversed single #
loop $-1 $-1 $162 $60 #
plane-surface $-1 0 32.032865190711128 0 0 -1 0 0 0 -1 forward_v I I I I #
coedge $-1 $101 $163 $164 $165 reversed $61 $-1 #
coedge $-1 $166 $63 $167 $168 reversed $39 $-1 #
coedge $-1 $63 $166 $169 $170 reversed $39 $-1 #
coedge $-1 $171 $98 $63 $102 reversed $61 $-1 #
edge $-1 $172 -32.032865190711128 $173 32.032865190711128 $101 $174 forward 7 unknown #
face $-1 $175 $176 $23 $-1 $177 forward single #
loop $-1 $-1 $178 $64 #
plane-surface $-1 51.575919256820669 -23.713610400343335 0 0 -1 0 0 0 -1 forward_v I I I I #
coedge $-1 $179 $180 $181 $182 forward $65 $-1 #
coedge $-1 $183 $67 $184 $185 reversed $42 $-1 #
coedge $-1 $67 $183 $186 $187 reversed $42 $-1 #
coedge $-1 $180 $179 $67 $110 reversed $65 $-1 #
edge $-1 $188 -8.4718408686392603 $189 8.4718408686392603 $109 $190 forward 7 unknown #
face $-1 $191 $192 $24 $-1 $193 reversed single #
loop $-1 $-1 $194 $68 #
plane-surface $-1 40.618745101114314 41.682277056801574 133.73403094730361 -1 0 0 0 0.55919291073839883 0.82903756765294845 forward_v I I I I #
coedge $-1 $195 $196 $197 $198 reversed $69 $-1 #
coedge $-1 $116 $71 $199 $200 reversed $45 $-1 #
coedge $-1 $71 $115 $195 $201 reversed $45 $-1 #
coedge $-1 $197 $202 $71 $118 forward $203 $-1 #
edge $-1 $204 -11.191726662310341 $205 -5.8369237272705838 $117 $206 forward 7 unknown #
loop $-1 $-1 $124 $72 #
plane-surface $-1 33.841728931120173 -21.08003209461279 40.68508286521201 0 0.55919291073839883 0.82903756765294845 1 0 0 forward_v I I I I #
loop $-1 $-1 $207 $47 #
coedge $-1 $122 $122 $123 $208 reversed $73 $-1 #
coedge $-1 $123 $123 $122 $208 forward $75 $-1 #
coedge $-1 $124 $124 $76 $125 forward $119 $-1 #
edge $-1 $209 9.2403545600880889e-016 $209 6.2831853071796013 $124 $210 forward 7 unknown #
loop $-1 $-1 $131 $77 #
plane-surface $-1 33.841728931120173 -21.08003209461279 40.68508286521201 0 0.55919291073839883 0.82903756765294845 1 0 0 forward_v I I I I #
loop $-1 $-1 $211 $50 #
coedge $-1 $129 $129 $130 $212 reversed $78 $-1 #
coedge $-1 $130 $130 $129 $212 forward $80 $-1 #
coedge $-1 $131 $131 $81 $132 forward $126 $-1 #
edge $-1 $213 9.2403545600880889e-016 $213 6.2831853071796013 $131 $214 forward 7 unknown #
loop $-1 $-1 $138 $82 #
plane-surface $-1 33.841728931120173 -21.08003209461279 40.68508286521201 0 0.55919291073839883 0.82903756765294845 1 0 0 forward_v I I I I #
loop $-1 $-1 $215 $53 #
coedge $-1 $136 $136 $137 $216 reversed $83 $-1 #
coedge $-1 $137 $137 $136 $216 forward $85 $-1 #
coedge $-1 $138 $138 $86 $139 forward $133 $-1 #
edge $-1 $217 9.2403545600880889e-016 $217 6.2831853071796013 $138 $218 forward 7 unknown #
face $-1 $219 $220 $21 $-1 $221 reversed single #
loop $-1 $-1 $222 $87 #
plane-surface $-1 -56.118655964842674 0 0 1 0 0 0 0 -1 forward_v I I I I #
coedge $-1 $223 $151 $224 $225 forward $88 $-1 #
coedge $-1 $226 $90 $223 $227 forward $57 $-1 #
coedge $-1 $90 $226 $228 $229 forward $57 $-1 #
coedge $-1 $154 $153 $90 $147 reversed $155 $-1 #
edge $-1 $230 -32.032865190711128 $231 32.032865190711128 $146 $232 forward 7 unknown #
coedge $-1 $92 $91 $233 $234 forward $36 $-1 #
coedge $-1 $235 $236 $91 $150 reversed $220 $-1 #
edge $-1 $157 -56.118655964842674 $237 56.118655964842674 $149 $238 forward 7 unknown #
coedge $-1 $143 $239 $92 $152 reversed $88 $-1 #
edge $-1 $240 -56.118655964842674 $156 56.118655964842674 $151 $241 forward 7 unknown #
coedge $-1 $146 $93 $239 $242 forward $155 $-1 #
coedge $-1 $93 $146 $235 $243 reversed $155 $-1 #
loop $-1 $-1 $153 $219 #
vertex $-1 $94 $244 #
vertex $-1 $94 $245 #
straight-curve $-1 56.118655964842674 0 8.4718408686392603 0 1 0 I I #
face $-1 $246 $247 $22 $-1 $248 forward single #
loop $-1 $-1 $249 $95 #
plane-surface $-1 -56.118655964842674 0 0 1 0 0 0 0 -1 forward_v I I I I #
coedge $-1 $169 $250 $171 $251 forward $96 $-1 #
coedge $-1 $98 $171 $252 $253 reversed $61 $-1 #
coedge $-1 $254 $167 $98 $165 forward $255 $-1 #
edge $-1 $173 0.74835413074840318 $256 5.3984425355100392 $164 $257 forward 7 unknown #
coedge $-1 $100 $99 $249 $258 reversed $39 $-1 #
coedge $-1 $164 $259 $99 $168 forward $255 $-1 #
edge $-1 $260 -30.446178073643008 $173 -20.898777708756324 $167 $261 forward 7 unknown #
coedge $-1 $262 $162 $100 $170 forward $96 $-1 #
edge $-1 $172 20.898777708756324 $263 30.446178073643008 $169 $264 forward 7 unknown #
coedge $-1 $163 $101 $162 $251 reversed $61 $-1 #
vertex $-1 $170 $265 #
vertex $-1 $168 $266 #
straight-curve $-1 -46.57125559995599 0 3.8217524638776244 0 -1 0 I I #
face $-1 $267 $268 $23 $-1 $269 reversed single #
loop $-1 $-1 $270 $103 #
plane-surface $-1 0 0 8.4718408686392603 0 0 1 1 0 0 forward_v I I I I #
coedge $-1 $271 $272 $273 $274 reversed $104 $-1 #
coedge $-1 $109 $106 $275 $276 reversed $65 $-1 #
coedge $-1 $106 $109 $277 $278 reversed $65 $-1 #
coedge $-1 $272 $271 $106 $182 reversed $104 $-1 #
edge $-1 $279 -8.4718408686392603 $280 8.4718408686392603 $181 $281 forward 7 unknown #
coedge $-1 $108 $107 $282 $283 reversed $42 $-1 #
coedge $-1 $275 $284 $107 $185 forward $268 $-1 #
edge $-1 $285 -30.330696336432332 $189 -21.245222920388336 $184 $286 forward 7 unknown #
coedge $-1 $287 $277 $108 $187 forward $176 $-1 #
edge $-1 $188 21.245222920388336 $288 30.330696336432332 $186 $289 forward 7 unknown #
vertex $-1 $187 $290 #
vertex $-1 $185 $291 #
straight-curve $-1 47.033182548798671 -26.713610400343335 0 0 0 -1 I I #
face $-1 $-1 $203 $24 $-1 $292 forward single #
loop $-1 $-1 $293 $111 #
plane-surface $-1 0 32.032865190711128 0 0 -1 0 0 0 -1 forward_v I I I I #
coedge $-1 $294 $295 $296 $297 reversed $112 $-1 #
coedge $-1 $298 $114 $116 $201 forward $69 $-1 #
coedge $-1 $114 $298 $294 $299 forward $69 $-1 #
coedge $-1 $296 $117 $114 $198 forward $203 $-1 #
edge $-1 $205 10.143848295565945 $300 23.697880635554228 $197 $301 forward 7 unknown #
coedge $-1 $302 $303 $115 $200 forward $192 $-1 #
edge $-1 $304 -62.007034859008783 $204 -58.395174605012542 $199 $305 forward 7 unknown #
edge $-1 $205 57.606670932283542 $304 64.06573038142227 $116 $306 forward 7 unknown #
coedge $-1 $117 $296 $302 $307 forward $203 $-1 #
loop $-1 $-1 $296 $191 #
vertex $-1 $200 $308 #
vertex $-1 $118 $309 #
straight-curve $-1 27.064712761126032 20.841138528400787 8.4718408686392621 0 -1 0 I I #
coedge $-1 $207 $207 $-1 $310 reversed $121 $-1 #
edge $-1 $311 0 $311 6.2831853071796004 $122 $312 forward 7 unknown #
vertex $-1 $125 $313 #
ellipse-curve $-1 29.775519229123688 29.355463723191246 6.6659107416411416 0 0.55919291073839883 0.82903756765294845 1 0 0 1 I I #
coedge $-1 $211 $211 $-1 $314 reversed $128 $-1 #
edge $-1 $315 0 $315 6.2831853071796004 $129 $316 forward 7 unknown #
vertex $-1 $132 $317 #
ellipse-curve $-1 33.841728931120173 29.355463723191246 6.6659107416411416 0 0.55919291073839883 0.82903756765294845 1 0 0 1 I I #
coedge $-1 $215 $215 $-1 $318 reversed $135 $-1 #
edge $-1 $319 0 $319 6.2831853071796004 $136 $320 forward 7 unknown #
vertex $-1 $139 $321 #
ellipse-curve $-1 37.907938633116657 29.355463723191246 6.6659107416411416 0 0.55919291073839883 0.82903756765294845 1 0 0 1 I I #
face $-1 $-1 $155 $21 $-1 $322 reversed single #
loop $-1 $-1 $235 $140 #
plane-surface $-1 0 32.032865190711128 0 0 -1 0 0 0 -1 forward_v I I I I #
coedge $-1 $323 $233 $236 $324 forward $141 $-1 #
coedge $-1 $239 $143 $144 $227 reversed $88 $-1 #
coedge $-1 $233 $323 $143 $225 reversed $141 $-1 #
edge $-1 $240 -8.4718408686392603 $325 8.4718408686392603 $224 $326 forward 7 unknown #
coedge $-1 $145 $144 $323 $327 forward $57 $-1 #
edge $-1 $231 -56.118655964842674 $325 56.118655964842674 $223 $328 forward 7 unknown #
coedge $-1 $236 $235 $145 $229 reversed $220 $-1 #
edge $-1 $329 -56.118655964842674 $230 56.118655964842674 $228 $330 forward 7 unknown #
vertex $-1 $147 $331 #
vertex $-1 $242 $332 #
straight-curve $-1 56.118655964842674 0 -8.4718408686392603 0 -1 0 I I #
coedge $-1 $222 $224 $148 $234 reversed $141 $-1 #
edge $-1 $237 -32.032865190711128 $240 32.032865190711128 $233 $333 forward 7 unknown #
coedge $-1 $228 $149 $154 $243 forward $220 $-1 #
coedge $-1 $149 $228 $222 $324 reversed $220 $-1 #
vertex $-1 $150 $334 #
straight-curve $-1 0 32.032865190711128 8.4718408686392603 -1 0 0 I I #
coedge $-1 $151 $223 $153 $242 reversed $88 $-1 #
vertex $-1 $234 $335 #
straight-curve $-1 0 -32.032865190711128 8.4718408686392603 1 0 0 I I #
edge $-1 $156 -8.4718408686392603 $231 8.4718408686392603 $153 $336 forward 7 unknown #
edge $-1 $157 -8.4718408686392603 $230 8.4718408686392603 $154 $337 forward 7 unknown #
point $-1 56.118655964842674 -32.032865190711128 8.4718408686392603 #
point $-1 56.118655964842674 32.032865190711128 8.4718408686392603 #
face $-1 $-1 $255 $22 $-1 $338 reversed single #
loop $-1 $-1 $252 $159 #
plane-surface $-1 0 0 8.4718408686392603 0 0 1 1 0 0 forward_v I I I I #
coedge $-1 $339 $340 $166 $258 forward $160 $-1 #
coedge $-1 $162 $262 $341 $342 reversed $96 $-1 #
edge $-1 $343 -5.3984425355100392 $172 -0.74835413074840318 $162 $344 forward 7 unknown #
coedge $-1 $341 $345 $163 $253 forward $247 $-1 #
edge $-1 $256 -32.032865190711128 $343 32.032865190711128 $252 $346 forward 7 unknown #
coedge $-1 $259 $164 $345 $347 reversed $255 $-1 #
loop $-1 $-1 $164 $246 #
vertex $-1 $165 $348 #
straight-curve $-1 -46.57125559995599 -32.032865190711128 3.0733983331292212 0 0 1 I I #
edge $-1 $263 -32.032865190711128 $260 32.032865190711128 $249 $349 forward 7 unknown #
coedge $-1 $167 $254 $339 $350 forward $255 $-1 #
vertex $-1 $258 $351 #
straight-curve $-1 -25.672477891199666 -32.032865190711128 3.8217524638776244 1 0 0 I I #
coedge $-1 $250 $169 $340 $352 reversed $96 $-1 #
vertex $-1 $258 $353 #
straight-curve $-1 -25.672477891199666 32.032865190711128 3.8217524638776244 -1 0 0 I I #
point $-1 -46.57125559995599 32.032865190711128 3.8217524638776244 #
point $-1 -46.57125559995599 -32.032865190711128 3.8217524638776244 #
face $-1 $-1 $354 $23 $-1 $355 reversed single #
loop $-1 $-1 $356 $175 #
plane-surface $-1 0 0 -8.4718408686392603 0 0 1 1 0 0 forward_v I I I I #
coedge $-1 $277 $287 $272 $357 forward $176 $-1 #
coedge $-1 $181 $178 $356 $358 reversed $104 $-1 #
coedge $-1 $178 $181 $270 $357 reversed $104 $-1 #
coedge $-1 $359 $360 $178 $274 forward $354 $-1 #
edge $-1 $361 -8.4718408686392603 $362 8.4718408686392603 $273 $363 forward 7 unknown #
coedge $-1 $356 $184 $179 $276 forward $268 $-1 #
edge $-1 $189 -14.106805200171667 $280 -11.106805200171667 $275 $364 forward 7 unknown #
coedge $-1 $186 $270 $180 $278 forward $176 $-1 #
edge $-1 $279 11.106805200171667 $188 14.106805200171667 $277 $365 forward 7 unknown #
vertex $-1 $278 $366 #
vertex $-1 $276 $367 #
straight-curve $-1 47.033182548798671 -23.713610400343335 0 0 0 -1 I I #
coedge $-1 $360 $359 $183 $283 forward $354 $-1 #
edge $-1 $288 -8.4718408686392603 $285 8.4718408686392603 $282 $368 forward 7 unknown #
coedge $-1 $184 $356 $360 $369 forward $268 $-1 #
vertex $-1 $283 $370 #
straight-curve $-1 25.787959628410334 -26.713610400343335 -8.4718408686392603 -1 0 0 I I #
coedge $-1 $270 $186 $359 $371 forward $176 $-1 #
vertex $-1 $371 $372 #
straight-curve $-1 25.787959628410334 -26.713610400343335 8.4718408686392603 1 0 0 I I #
point $-1 47.033182548798671 -26.713610400343335 8.4718408686392603 #
point $-1 47.033182548798671 -26.713610400343335 -8.4718408686392603 #
plane-surface $-1 0 0 8.4718408686392603 0 0 1 1 0 0 forward_v I I I I #
coedge $-1 $303 $302 $295 $373 forward $192 $-1 #
coedge $-1 $295 $194 $196 $299 reversed $112 $-1 #
coedge $-1 $194 $294 $293 $373 reversed $112 $-1 #
coedge $-1 $202 $197 $194 $297 forward $203 $-1 #
edge $-1 $300 5.8369237272705838 $374 11.191726662310341 $296 $375 forward 7 unknown #
coedge $-1 $196 $195 $303 $376 reversed $69 $-1 #
edge $-1 $377 -64.06573038142227 $300 -57.606670932283542 $294 $378 forward 7 unknown #
vertex $-1 $198 $379 #
straight-curve $-1 16.920864465560086 26.678062255671378 8.4718408686392586 1 0 0 I I #
coedge $-1 $293 $199 $202 $307 reversed $192 $-1 #
coedge $-1 $199 $293 $298 $376 forward $192 $-1 #
vertex $-1 $200 $380 #
straight-curve $-1 27.064712761126032 32.032865190711128 66.867015473651804 0 0 1 I I #
straight-curve $-1 27.064712761126032 -21.08003209461279 40.68508286521201 0 0.82903756765294845 -0.55919291073839883 I I #
edge $-1 $374 -40.618745101114314 $204 -27.064712761126032 $302 $381 forward 7 unknown #
point $-1 27.064712761126032 32.032865190711128 8.4718408686392603 #
point $-1 27.064712761126032 26.678062255671371 8.4718408686392621 #
edge $-1 $382 1 $382 0 $207 $-1 forward 7 unknown #
vertex $-1 $208 $383 #
ellipse-curve $-1 29.775519229123688 28.132499082872176 4.8527911343183687 0 0.55919291073839883 0.82903756765294845 1 0 0 1 I I #
point $-1 30.775519229123688 29.355463723191253 6.6659107416411505 #
edge $-1 $384 1 $384 0 $211 $-1 forward 7 unknown #
vertex $-1 $212 $385 #
ellipse-curve $-1 33.841728931120173 28.132499082872176 4.8527911343183687 0 0.55919291073839883 0.82903756765294845 1 0 0 1 I I #
point $-1 34.841728931120173 29.355463723191253 6.6659107416411505 #
edge $-1 $386 1 $386 0 $215 $-1 forward 7 unknown #
vertex $-1 $216 $387 #
ellipse-curve $-1 37.907938633116657 28.132499082872176 4.8527911343183687 0 0.55919291073839883 0.82903756765294845 1 0 0 1 I I #
point $-1 38.907938633116657 29.355463723191253 6.6659107416411505 #
plane-surface $-1 56.118655964842674 0 0 -1 0 0 0 0 1 forward_v I I I I #
coedge $-1 $224 $222 $226 $327 reversed $141 $-1 #
edge $-1 $237 -8.4718408686392603 $329 8.4718408686392603 $236 $388 forward 7 unknown #
vertex $-1 $327 $389 #
straight-curve $-1 -56.118655964842674 -32.032865190711128 0 0 0 -1 I I #
edge $-1 $325 -32.032865190711128 $329 32.032865190711128 $323 $390 forward 7 unknown #
straight-curve $-1 0 -32.032865190711128 -8.4718408686392603 -1 0 0 I I #
vertex $-1 $229 $391 #
straight-curve $-1 0 32.032865190711128 -8.4718408686392603 1 0 0 I I #
point $-1 56.118655964842674 32.032865190711128 -8.4718408686392603 #
point $-1 56.118655964842674 -32.032865190711128 -8.4718408686392603 #
straight-curve $-1 -56.118655964842674 0 8.4718408686392603 0 -1 0 I I #
point $-1 -56.118655964842674 32.032865190711128 8.4718408686392603 #
point $-1 -56.118655964842674 -32.032865190711128 8.4718408686392603 #
straight-curve $-1 56.118655964842674 -32.032865190711128 0 0 0 -1 I I #
straight-curve $-1 56.118655964842674 32.032865190711128 0 0 0 -1 I I #
plane-surface $-1 0 -32.032865190711128 0 0 1 0 0 0 1 forward_v I I I I #
coedge $-1 $392 $249 $259 $350 reversed $160 $-1 #
coedge $-1 $249 $392 $262 $352 forward $160 $-1 #
coedge $-1 $393 $252 $250 $342 forward $247 $-1 #
edge $-1 $343 46.57125559995599 $394 56.118655964842674 $250 $395 forward 7 unknown #
vertex $-1 $342 $396 #
straight-curve $-1 -46.57125559995599 32.032865190711128 3.0733983331292212 0 0 -1 I I #
coedge $-1 $252 $393 $254 $347 forward $247 $-1 #
straight-curve $-1 -46.57125559995599 0 8.4718408686392603 0 1 0 I I #
edge $-1 $397 -56.118655964842674 $256 -46.57125559995599 $254 $398 forward 7 unknown #
point $-1 -46.57125559995599 -32.032865190711128 8.4718408686392603 #
straight-curve $-1 -56.118655964842674 0 3.8217524638776244 0 -1 0 I I #
edge $-1 $397 -8.4718408686392603 $260 -3.8217524638776244 $339 $399 forward 7 unknown #
point $-1 -56.118655964842674 -32.032865190711128 3.8217524638776244 #
edge $-1 $394 -8.4718408686392603 $263 -3.8217524638776244 $262 $400 forward 7 unknown #
point $-1 -56.118655964842674 32.032865190711128 3.8217524638776244 #
loop $-1 $-1 $273 $267 #
plane-surface $-1 56.118655964842674 0 0 -1 0 0 0 0 1 forward_v I I I I #
coedge $-1 $284 $275 $271 $358 forward $268 $-1 #
edge $-1 $362 -30.330696336432332 $279 -21.245222920388336 $270 $401 forward 7 unknown #
edge $-1 $280 21.245222920388336 $361 30.330696336432332 $356 $402 forward 7 unknown #
coedge $-1 $282 $273 $287 $371 reversed $354 $-1 #
coedge $-1 $273 $282 $284 $369 reversed $354 $-1 #
vertex $-1 $369 $403 #
vertex $-1 $274 $404 #
straight-curve $-1 56.118655964842674 -23.713610400343335 0 0 0 1 I I #
straight-curve $-1 47.033182548798671 -12.606805200171667 -8.4718408686392603 0 1 0 I I #
straight-curve $-1 47.033182548798671 -12.606805200171667 8.4718408686392603 0 -1 0 I I #
point $-1 47.033182548798671 -23.713610400343335 8.4718408686392603 #
point $-1 47.033182548798671 -23.713610400343335 -8.4718408686392603 #
straight-curve $-1 56.118655964842674 -26.713610400343335 0 0 0 -1 I I #
edge $-1 $361 23.713610400343335 $285 26.713610400343335 $360 $405 forward 7 unknown #
point $-1 56.118655964842667 -26.713610400343335 -8.4718408686392603 #
edge $-1 $288 -26.713610400343335 $362 -23.713610400343335 $359 $406 forward 7 unknown #
point $-1 56.118655964842667 -26.713610400343335 8.4718408686392603 #
edge $-1 $374 58.395174605012542 $377 62.007034859008783 $293 $407 forward 7 unknown #
vertex $-1 $307 $408 #
straight-curve $-1 40.618745101114314 20.841138528400787 8.4718408686392621 0 1 0 I I #
edge $-1 $377 -23.697880635554228 $304 -10.143848295565945 $303 $409 forward 7 unknown #
vertex $-1 $376 $410 #
straight-curve $-1 40.618745101114314 -21.08003209461279 40.68508286521201 0 -0.82903756765294845 0.55919291073839883 I I #
point $-1 40.618745101114314 26.678062255671371 8.4718408686392621 #
point $-1 27.064712761126032 32.032865190711128 4.8599806146430211 #
straight-curve $-1 0 32.032865190711128 8.4718408686392603 -1 0 0 I I #
vertex $-1 $310 $411 #
point $-1 30.775519229123688 28.132499082872176 4.8527911343183687 #
vertex $-1 $314 $412 #
point $-1 34.841728931120173 28.132499082872176 4.8527911343183687 #
vertex $-1 $318 $413 #
point $-1 38.907938633116657 28.132499082872176 4.8527911343183687 #
straight-curve $-1 -56.118655964842674 32.032865190711128 0 0 0 -1 I I #
point $-1 -56.118655964842674 -32.032865190711128 -8.4718408686392603 #
straight-curve $-1 -56.118655964842674 0 -8.4718408686392603 0 1 0 I I #
point $-1 -56.118655964842674 32.032865190711128 -8.4718408686392603 #
coedge $-1 $340 $339 $393 $414 reversed $160 $-1 #
coedge $-1 $345 $341 $392 $414 forward $247 $-1 #
vertex $-1 $342 $415 #
straight-curve $-1 0 32.032865190711128 8.4718408686392603 -1 0 0 I I #
point $-1 -46.57125559995599 32.032865190711128 8.4718408686392603 #
vertex $-1 $414 $416 #
straight-curve $-1 0 -32.032865190711128 8.4718408686392603 1 0 0 I I #
straight-curve $-1 -56.118655964842674 -32.032865190711128 0 0 0 -1 I I #
straight-curve $-1 -56.118655964842674 32.032865190711128 0 0 0 -1 I I #
straight-curve $-1 25.787959628410334 -23.713610400343335 8.4718408686392603 -1 0 0 I I #
straight-curve $-1 25.787959628410334 -23.713610400343335 -8.4718408686392603 1 0 0 I I #
point $-1 56.118655964842667 -23.713610400343335 -8.4718408686392603 #
point $-1 56.118655964842667 -23.713610400343335 8.4718408686392603 #
straight-curve $-1 56.118655964842674 0 -8.4718408686392603 0 -1 0 I I #
straight-curve $-1 56.118655964842674 0 8.4718408686392603 0 1 0 I I #
straight-curve $-1 40.618745101114314 32.032865190711128 66.867015473651804 0 0 -1 I I #
point $-1 40.618745101114314 32.032865190711128 8.4718408686392603 #
straight-curve $-1 16.920864465560086 32.032865190711135 4.8599806146430211 -1 0 0 I I #
point $-1 40.618745101114314 32.032865190711128 4.8599806146430211 #
point $-1 29.775519229123688 27.57330617213378 4.0237535666654205 #
point $-1 33.841728931120173 27.57330617213378 4.0237535666654205 #
point $-1 37.907938633116657 27.57330617213378 4.0237535666654205 #
edge $-1 $394 -32.032865190711128 $397 32.032865190711128 $392 $417 forward 7 unknown #
point $-1 -56.118655964842674 32.032865190711128 8.4718408686392603 #
point $-1 -56.118655964842674 -32.032865190711128 8.4718408686392603 #
straight-curve $-1 -56.118655964842674 0 8.4718408686392603 0 -1 0 I I #
End-of-ACIS-data 