500 0 12 0           
7 Unknown 11 ACIS 5.0 NT 24 Fri Mar 26 14:36:42 1999 
-1 9.9999999999999995e-007 1e-010 
body $-1 $12 $-1 $13 #
body $-1 $14 $-1 $15 #
body $-1 $16 $-1 $17 #
body $-1 $18 $-1 $19 #
body $-1 $20 $-1 $21 #
body $-1 $22 $-1 $23 #
body $-1 $24 $-1 $25 #
body $-1 $26 $-1 $27 #
body $-1 $28 $-1 $29 #
body $-1 $30 $-1 $31 #
body $-1 $32 $-1 $33 #
body $-1 $34 $-1 $35 #
lump $-1 $-1 $36 $0 #
transform $-1 1 0 0 0 1 0 0 0 1 71.844233527634515 30.123622547465981 6.977608043855466 1 rotate no_reflect no_shear #
lump $-1 $-1 $37 $1 #
transform $-1 1 0 0 0 1 0 0 0 1 71.844233527634515 30.123622547465981 6.977608043855466 1 rotate no_reflect no_shear #
lump $-1 $-1 $38 $2 #
transform $-1 1 0 0 0 1 0 0 0 1 71.844233527634515 30.123622547465981 6.977608043855466 1 rotate no_reflect no_shear #
lump $-1 $-1 $39 $3 #
transform $-1 1 0 0 0 1 0 0 0 1 71.844233527634515 30.123622547465981 6.977608043855466 1 rotate no_reflect no_shear #
lump $-1 $-1 $40 $4 #
transform $-1 1 0 0 0 1 0 0 0 1 71.844233527634515 30.123622547465981 6.977608043855466 1 rotate no_reflect no_shear #
lump $-1 $-1 $41 $5 #
transform $-1 1 0 0 0 1 0 0 0 1 71.844233527634515 30.123622547465981 6.977608043855466 1 rotate no_reflect no_shear #
lump $-1 $-1 $42 $6 #
transform $-1 1 0 0 0 1 0 0 0 1 71.844233527634515 30.123622547465981 6.977608043855466 1 rotate no_reflect no_shear #
lump $-1 $-1 $43 $7 #
transform $-1 1 0 0 0 1 0 0 0 1 71.844233527634515 30.123622547465981 6.977608043855466 1 rotate no_reflect no_shear #
lump $-1 $-1 $44 $8 #
transform $-1 1 0 0 0 1 0 0 0 1 71.844233527634515 30.123622547465981 6.977608043855466 1 rotate no_reflect no_shear #
lump $-1 $-1 $45 $9 #
transform $-1 1 0 0 0 1 0 0 0 1 71.844233527634515 30.123622547465981 6.977608043855466 1 rotate no_reflect no_shear #
lump $-1 $-1 $46 $10 #
transform $-1 1 0 0 0 1 0 0 0 1 71.844233527634515 30.123622547465981 6.977608043855466 1 rotate no_reflect no_shear #
lump $-1 $-1 $47 $11 #
transform $-1 1 0 0 0 1 0 0 0 1 71.844233527634515 30.123622547465981 6.977608043855466 1 rotate no_reflect no_shear #
shell $-1 $-1 $-1 $48 $-1 $12 #
shell $-1 $-1 $-1 $49 $-1 $14 #
shell $-1 $-1 $-1 $50 $-1 $16 #
shell $-1 $-1 $-1 $51 $-1 $18 #
shell $-1 $-1 $-1 $52 $-1 $20 #
shell $-1 $-1 $-1 $53 $-1 $22 #
shell $-1 $-1 $-1 $54 $-1 $24 #
shell $-1 $-1 $-1 $55 $-1 $26 #
shell $-1 $-1 $-1 $56 $-1 $28 #
shell $-1 $-1 $-1 $57 $-1 $30 #
shell $-1 $-1 $-1 $58 $-1 $32 #
shell $-1 $-1 $-1 $59 $-1 $34 #
face $-1 $60 $61 $36 $-1 $62 forward single #
face $-1 $63 $64 $37 $-1 $65 forward single #
face $-1 $66 $67 $38 $-1 $68 reversed single #
face $-1 $69 $70 $39 $-1 $71 forward single #
face $-1 $72 $73 $40 $-1 $74 forward single #
face $-1 $75 $76 $41 $-1 $77 reversed single #
face $-1 $78 $79 $42 $-1 $80 forward single #
face $-1 $81 $82 $43 $-1 $83 forward single #
face $-1 $84 $85 $44 $-1 $86 reversed single #
face $-1 $87 $88 $45 $-1 $89 forward single #
face $-1 $90 $91 $46 $-1 $92 forward single #
face $-1 $93 $94 $47 $-1 $95 forward single #
face $-1 $96 $97 $36 $-1 $98 reversed single #
loop $-1 $-1 $99 $48 #
plane-surface $-1 0 0 6.977608043855466 0 0 1 1 0 0 forward_v I I I I #
face $-1 $100 $101 $37 $-1 $102 reversed single #
loop $-1 $-1 $103 $49 #
plane-surface $-1 0 -25.809117516409245 -0.72420746716017259 0 0 1 1 0 0 forward_v I I I I #
face $-1 $104 $105 $38 $-1 $106 reversed single #
loop $-1 $-1 $107 $50 #
plane-surface $-1 -176.9313269760184 -21.494612485352512 99.366890784644156 0 1 0 -0.73135370988377701 0 0.68199835119979291 forward_v I I I I #
face $-1 $108 $109 $39 $-1 $110 forward single #
loop $-1 $111 $112 $51 #
cone-surface $-1 -68.864710013086224 -19.774848133177663 3.8336014295903094 0.73135370988377701 0 -0.68199835119979291 0.34099917559989645 0 0.36567685494188851 1 I I 0 1 0.5 forward I I I I #
face $-1 $113 $114 $40 $-1 $115 forward single #
loop $-1 $116 $117 $52 #
cone-surface $-1 -68.864710013086224 -17.195201604915386 3.8336014295903094 0.73135370988377701 0 -0.68199835119979291 0.34099917559989645 0 0.36567685494188851 1 I I 0 1 0.5 forward I I I I #
face $-1 $118 $119 $41 $-1 $120 reversed single #
loop $-1 $-1 $121 $53 #
plane-surface $-1 -176.9313269760184 4.3145050310567337 99.366890784644156 0 1 0 -0.73135370988377701 0 0.68199835119979291 forward_v I I I I #
face $-1 $122 $123 $42 $-1 $124 forward single #
loop $-1 $125 $126 $54 #
cone-surface $-1 -68.864710013086224 6.0342693832315781 3.8336014295903094 0.73135370988377701 0 -0.68199835119979291 0.34099917559989645 0 0.36567685494188851 1 I I 0 1 0.5 forward I I I I #
face $-1 $127 $128 $43 $-1 $129 forward single #
loop $-1 $130 $131 $55 #
cone-surface $-1 -68.864710013086224 8.6139159114938515 3.8336014295903094 0.73135370988377701 0 -0.68199835119979291 0.34099917559989645 0 0.36567685494188851 1 I I 0 1 0.5 forward I I I I #
face $-1 $132 $133 $44 $-1 $134 reversed single #
loop $-1 $-1 $135 $56 #
plane-surface $-1 114.09317668148628 -6.0017296066032948 200.09304265439542 0 -1 0 -0.83867057594974714 0 -0.54463902268945019 forward_v I I I I #
face $-1 $136 $137 $45 $-1 $138 forward single #
loop $-1 $139 $140 $57 #
cone-surface $-1 69.452158863644897 -14.593717744137059 3.7905063048534373 -0.83867057594974714 0 -0.54463902268945019 0.54463902268945019 0 -0.83867057594974714 1 I I 0 1 1 forward I I I I #
face $-1 $141 $142 $46 $-1 $143 forward single #
loop $-1 $144 $145 $58 #
cone-surface $-1 69.452158863644897 -11.371722192561897 3.7905063048534373 -0.83867057594974714 0 -0.54463902268945019 0.54463902268945019 0 -0.83867057594974714 1 I I 0 1 1 forward I I I I #
face $-1 $146 $147 $47 $-1 $148 forward single #
loop $-1 $149 $150 $59 #
cone-surface $-1 69.452158863644897 -8.149726640986735 3.7905063048534373 -0.83867057594974714 0 -0.54463902268945019 0.54463902268945019 0 -0.83867057594974714 1 I I 0 1 1 forward I I I I #
face $-1 $151 $152 $36 $-1 $153 reversed single #
loop $-1 $-1 $154 $60 #
plane-surface $-1 0 0 -6.977608043855466 0 0 1 1 0 0 forward_v I I I I #
coedge $-1 $155 $156 $157 $158 forward $61 $-1 #
face $-1 $159 $160 $37 $-1 $161 reversed single #
loop $-1 $-1 $162 $63 #
plane-surface $-1 0 -25.809117516409245 -4.4085599819823562 0 0 1 1 0 0 forward_v I I I I #
coedge $-1 $163 $164 $165 $166 reversed $64 $-1 #
face $-1 $167 $168 $38 $-1 $169 reversed single #
loop $-1 $-1 $170 $66 #
plane-surface $-1 -71.844233527634515 -18.485024869046523 1.3715931665249173 -0.73135370988377701 0 0.68199835119979291 0.68199835119979291 0 0.73135370988377701 forward_v I I I I #
coedge $-1 $171 $172 $173 $174 reversed $67 $-1 #
face $-1 $-1 $175 $39 $-1 $176 forward single #
loop $-1 $177 $178 $69 #
cone-surface $-1 -68.316194730673388 -19.774848133177663 3.3221026661904647 0.73135370988377701 0 -0.68199835119979291 0.17049958779994823 0 0.18283842747094425 1 I I -0.70710678118654746 0.70710678118654746 0.25 forward I I I I #
loop $-1 $-1 $179 $51 #
coedge $-1 $112 $112 $180 $181 reversed $70 $-1 #
face $-1 $-1 $182 $40 $-1 $183 forward single #
loop $-1 $184 $185 $72 #
cone-surface $-1 -68.316194730673388 -17.195201604915386 3.3221026661904647 0.73135370988377701 0 -0.68199835119979291 0.17049958779994823 0 0.18283842747094425 1 I I -0.70710678118654746 0.70710678118654746 0.25 forward I I I I #
loop $-1 $-1 $186 $52 #
coedge $-1 $117 $117 $187 $188 reversed $73 $-1 #
face $-1 $189 $190 $41 $-1 $191 reversed single #
loop $-1 $-1 $192 $75 #
plane-surface $-1 -71.844233527634515 7.3240926473627219 1.3715931665249173 -0.73135370988377701 0 0.68199835119979291 0.68199835119979291 0 0.73135370988377701 forward_v I I I I #
coedge $-1 $193 $194 $195 $196 reversed $76 $-1 #
face $-1 $-1 $197 $42 $-1 $198 forward single #
loop $-1 $199 $200 $78 #
cone-surface $-1 -68.316194730673388 6.0342693832315781 3.3221026661904647 0.73135370988377701 0 -0.68199835119979291 0.17049958779994823 0 0.18283842747094425 1 I I -0.70710678118654746 0.70710678118654746 0.25 forward I I I I #
loop $-1 $-1 $201 $54 #
coedge $-1 $126 $126 $202 $203 reversed $79 $-1 #
face $-1 $-1 $204 $43 $-1 $205 forward single #
loop $-1 $206 $207 $81 #
cone-surface $-1 -68.316194730673388 8.6139159114938515 3.3221026661904647 0.73135370988377701 0 -0.68199835119979291 0.17049958779994823 0 0.18283842747094425 1 I I -0.70710678118654746 0.70710678118654746 0.25 forward I I I I #
loop $-1 $-1 $208 $55 #
coedge $-1 $131 $131 $209 $210 reversed $82 $-1 #
face $-1 $211 $212 $44 $-1 $213 reversed single #
loop $-1 $-1 $214 $84 #
plane-surface $-1 -6.4141127410924668 -11.371722192561897 121.83469638566844 0.83867057594974714 0 0.54463902268945019 0.54463902268945019 0 -0.83867057594974714 forward_v I I I I #
coedge $-1 $215 $216 $217 $218 reversed $85 $-1 #
face $-1 $-1 $219 $45 $-1 $220 forward single #
loop $-1 $221 $222 $87 #
cone-surface $-1 68.475390595122235 -14.593717744137059 3.1561855948895667 -0.83867057594974714 0 -0.54463902268945019 0.2723195113447251 0 -0.41933528797487357 1 I I -0.70710678118654746 0.70710678118654746 0.5 forward I I I I #
loop $-1 $-1 $223 $57 #
coedge $-1 $140 $140 $224 $225 reversed $88 $-1 #
face $-1 $-1 $226 $46 $-1 $227 forward single #
loop $-1 $228 $229 $90 #
cone-surface $-1 68.475390595122235 -11.371722192561897 3.1561855948895667 -0.83867057594974714 0 -0.54463902268945019 0.2723195113447251 0 -0.41933528797487357 1 I I -0.70710678118654746 0.70710678118654746 0.5 forward I I I I #
loop $-1 $-1 $230 $58 #
coedge $-1 $145 $145 $231 $232 reversed $91 $-1 #
face $-1 $-1 $233 $47 $-1 $234 forward single #
loop $-1 $235 $236 $93 #
cone-surface $-1 68.475390595122235 -8.149726640986735 3.1561855948895667 -0.83867057594974714 0 -0.54463902268945019 0.2723195113447251 0 -0.41933528797487357 1 I I -0.70710678118654746 0.70710678118654746 0.5 forward I I I I #
loop $-1 $-1 $237 $59 #
coedge $-1 $150 $150 $238 $239 reversed $94 $-1 #
face $-1 $240 $241 $36 $-1 $242 reversed single #
loop $-1 $-1 $243 $96 #
plane-surface $-1 0 -30.123622547465981 0 0 1 0 0 0 1 forward_v I I I I #
coedge $-1 $244 $245 $246 $247 forward $97 $-1 #
coedge $-1 $248 $99 $249 $250 forward $61 $-1 #
coedge $-1 $99 $248 $251 $252 forward $61 $-1 #
coedge $-1 $253 $254 $99 $158 reversed $255 $-1 #
edge $-1 $256 -30.123622547465981 $257 30.123622547465981 $157 $258 forward 7 unknown #
face $-1 $259 $260 $37 $-1 $261 reversed single #
loop $-1 $-1 $262 $100 #
plane-surface $-1 0 -21.494612485352512 -2.5663837245712644 0 -1 0 0 0 -1 forward_v I I I I #
coedge $-1 $263 $264 $265 $266 reversed $101 $-1 #
coedge $-1 $267 $103 $268 $269 forward $64 $-1 #
coedge $-1 $103 $267 $270 $271 reversed $64 $-1 #
coedge $-1 $272 $273 $103 $166 forward $274 $-1 #
edge $-1 $275 8.5900537271478896 $276 17.219063789261355 $165 $277 forward 7 unknown #
face $-1 $278 $279 $38 $-1 $280 reversed single #
loop $-1 $-1 $281 $104 #
plane-surface $-1 -176.9313269760184 -15.475437252740534 99.366890784644156 0 -1 0 0.73135370988377701 0 -0.68199835119979291 forward_v I I I I #
coedge $-1 $282 $283 $284 $285 reversed $105 $-1 #
coedge $-1 $172 $107 $286 $287 reversed $67 $-1 #
coedge $-1 $107 $171 $282 $288 reversed $67 $-1 #
coedge $-1 $284 $289 $107 $174 forward $290 $-1 #
edge $-1 $291 16.621429960374684 $292 21.849123279587516 $173 $293 forward 7 unknown #
loop $-1 $-1 $180 $108 #
plane-surface $-1 -71.844233527634515 -18.485024869046523 1.3715931665249173 -0.73135370988377701 0 0.68199835119979291 0.68199835119979291 0 0.73135370988377701 forward_v I I I I #
loop $-1 $-1 $294 $69 #
coedge $-1 $178 $178 $179 $295 reversed $109 $-1 #
coedge $-1 $179 $179 $178 $295 forward $111 $-1 #
coedge $-1 $180 $180 $112 $181 forward $175 $-1 #
edge $-1 $296 0 $296 6.2831853071796004 $180 $297 forward 7 unknown #
loop $-1 $-1 $187 $113 #
plane-surface $-1 -71.844233527634515 -18.485024869046523 1.3715931665249173 -0.73135370988377701 0 0.68199835119979291 0.68199835119979291 0 0.73135370988377701 forward_v I I I I #
loop $-1 $-1 $298 $72 #
coedge $-1 $185 $185 $186 $299 reversed $114 $-1 #
coedge $-1 $186 $186 $185 $299 forward $116 $-1 #
coedge $-1 $187 $187 $117 $188 forward $182 $-1 #
edge $-1 $300 0 $300 6.2831853071796004 $187 $301 forward 7 unknown #
face $-1 $302 $303 $41 $-1 $304 forward single #
loop $-1 $-1 $305 $118 #
plane-surface $-1 -176.9313269760184 10.333680263668711 99.366890784644156 0 -1 0 0.73135370988377701 0 -0.68199835119979291 forward_v I I I I #
coedge $-1 $306 $307 $308 $309 reversed $119 $-1 #
coedge $-1 $194 $121 $310 $311 reversed $76 $-1 #
coedge $-1 $121 $193 $306 $312 reversed $76 $-1 #
coedge $-1 $308 $313 $121 $196 forward $303 $-1 #
edge $-1 $314 16.621429960374684 $315 21.849123279587516 $195 $316 forward 7 unknown #
loop $-1 $-1 $202 $122 #
plane-surface $-1 -71.844233527634515 7.3240926473627219 1.3715931665249173 -0.73135370988377701 0 0.68199835119979291 0.68199835119979291 0 0.73135370988377701 forward_v I I I I #
loop $-1 $-1 $317 $78 #
coedge $-1 $200 $200 $201 $318 reversed $123 $-1 #
coedge $-1 $201 $201 $200 $318 forward $125 $-1 #
coedge $-1 $202 $202 $126 $203 forward $197 $-1 #
edge $-1 $319 0 $319 6.2831853071796004 $202 $320 forward 7 unknown #
loop $-1 $-1 $209 $127 #
plane-surface $-1 -71.844233527634515 7.3240926473627219 1.3715931665249173 -0.73135370988377701 0 0.68199835119979291 0.68199835119979291 0 0.73135370988377701 forward_v I I I I #
loop $-1 $-1 $321 $81 #
coedge $-1 $207 $207 $208 $322 reversed $128 $-1 #
coedge $-1 $208 $208 $207 $322 forward $130 $-1 #
coedge $-1 $209 $209 $131 $210 forward $204 $-1 #
edge $-1 $323 0 $323 6.2831853071796004 $209 $324 forward 7 unknown #
face $-1 $325 $326 $44 $-1 $327 forward single #
loop $-1 $-1 $328 $132 #
plane-surface $-1 114.09317668148628 -16.7417147785205 200.09304265439542 0 1 0 0.83867057594974714 0 0.54463902268945019 forward_v I I I I #
coedge $-1 $329 $330 $331 $332 reversed $133 $-1 #
coedge $-1 $216 $135 $333 $334 reversed $85 $-1 #
coedge $-1 $135 $215 $329 $335 reversed $85 $-1 #
coedge $-1 $331 $336 $135 $218 forward $326 $-1 #
edge $-1 $337 -14.797645186891373 $338 -11.128361820007711 $217 $339 forward 7 unknown #
loop $-1 $-1 $224 $136 #
plane-surface $-1 -6.4141127410924668 -11.371722192561897 121.83469638566844 0.83867057594974714 0 0.54463902268945019 0.54463902268945019 0 -0.83867057594974714 forward_v I I I I #
loop $-1 $-1 $340 $87 #
coedge $-1 $222 $222 $223 $341 reversed $137 $-1 #
coedge $-1 $223 $223 $222 $341 forward $139 $-1 #
coedge $-1 $224 $224 $140 $225 forward $219 $-1 #
edge $-1 $342 0 $342 6.2831853071796004 $224 $343 forward 7 unknown #
loop $-1 $-1 $231 $141 #
plane-surface $-1 -6.4141127410924668 -11.371722192561897 121.83469638566844 0.83867057594974714 0 0.54463902268945019 0.54463902268945019 0 -0.83867057594974714 forward_v I I I I #
loop $-1 $-1 $344 $90 #
coedge $-1 $229 $229 $230 $345 reversed $142 $-1 #
coedge $-1 $230 $230 $229 $345 forward $144 $-1 #
coedge $-1 $231 $231 $145 $232 forward $226 $-1 #
edge $-1 $346 0 $346 6.2831853071796004 $231 $347 forward 7 unknown #
loop $-1 $-1 $238 $146 #
plane-surface $-1 -6.4141127410924668 -11.371722192561897 121.83469638566844 0.83867057594974714 0 0.54463902268945019 0.54463902268945019 0 -0.83867057594974714 forward_v I I I I #
loop $-1 $-1 $348 $93 #
coedge $-1 $236 $236 $237 $349 reversed $147 $-1 #
coedge $-1 $237 $237 $236 $349 forward $149 $-1 #
coedge $-1 $238 $238 $150 $239 forward $233 $-1 #
edge $-1 $350 0 $350 6.2831853071796004 $238 $351 forward 7 unknown #
face $-1 $352 $353 $36 $-1 $354 reversed single #
loop $-1 $-1 $355 $151 #
plane-surface $-1 -71.844233527634515 0 0 1 0 0 0 0 -1 forward_v I I I I #
coedge $-1 $356 $251 $357 $358 forward $152 $-1 #
coedge $-1 $359 $154 $356 $360 forward $97 $-1 #
coedge $-1 $154 $359 $361 $362 forward $97 $-1 #
coedge $-1 $254 $253 $154 $247 reversed $255 $-1 #
edge $-1 $363 -30.123622547465981 $364 30.123622547465981 $246 $365 forward 7 unknown #
coedge $-1 $156 $155 $366 $367 forward $61 $-1 #
coedge $-1 $368 $369 $155 $250 reversed $353 $-1 #
edge $-1 $257 -71.844233527634515 $370 71.844233527634515 $249 $371 forward 7 unknown #
coedge $-1 $243 $372 $156 $252 reversed $152 $-1 #
edge $-1 $373 -71.844233527634515 $256 71.844233527634515 $251 $374 forward 7 unknown #
coedge $-1 $246 $157 $372 $375 forward $255 $-1 #
coedge $-1 $157 $246 $368 $376 reversed $255 $-1 #
loop $-1 $-1 $253 $352 #
vertex $-1 $158 $377 #
vertex $-1 $158 $378 #
straight-curve $-1 71.844233527634515 0 6.977608043855466 0 1 0 I I #
face $-1 $379 $380 $37 $-1 $381 reversed single #
loop $-1 $-1 $382 $159 #
plane-surface $-1 -71.844233527634515 0 0 1 0 0 0 0 -1 forward_v I I I I #
coedge $-1 $383 $268 $273 $384 reversed $160 $-1 #
coedge $-1 $385 $162 $386 $387 reversed $101 $-1 #
coedge $-1 $162 $385 $383 $388 forward $101 $-1 #
coedge $-1 $273 $272 $162 $266 forward $274 $-1 #
edge $-1 $389 -17.219063789261355 $390 -8.5900537271478896 $265 $391 forward 7 unknown #
coedge $-1 $164 $163 $382 $392 reversed $64 $-1 #
coedge $-1 $262 $393 $163 $269 reversed $160 $-1 #
edge $-1 $275 -71.844233527634515 $394 71.844233527634515 $268 $395 forward 7 unknown #
coedge $-1 $396 $397 $164 $271 forward $380 $-1 #
edge $-1 $276 -71.844233527634515 $398 71.844233527634515 $270 $399 forward 7 unknown #
coedge $-1 $265 $165 $397 $400 forward $274 $-1 #
coedge $-1 $165 $265 $262 $384 forward $274 $-1 #
loop $-1 $-1 $165 $379 #
vertex $-1 $166 $401 #
vertex $-1 $400 $402 #
straight-curve $-1 71.844233527634515 -12.904558758204622 -0.72420746716017259 0 -1 0 I I #
face $-1 $-1 $290 $38 $-1 $403 forward single #
loop $-1 $-1 $404 $167 #
plane-surface $-1 -71.844233527634515 0 0 1 0 0 0 0 -1 forward_v I I I I #
coedge $-1 $405 $406 $407 $408 reversed $168 $-1 #
coedge $-1 $409 $170 $172 $288 forward $105 $-1 #
coedge $-1 $170 $409 $405 $410 forward $105 $-1 #
coedge $-1 $407 $173 $170 $285 forward $290 $-1 #
edge $-1 $292 -12.252100050829251 $411 -6.2329248182172723 $284 $412 forward 7 unknown #
coedge $-1 $413 $414 $171 $287 forward $279 $-1 #
edge $-1 $415 -48.311852225797161 $291 -42.705837348466609 $286 $416 forward 7 unknown #
edge $-1 $292 -7.6652580024806687 $415 0 $172 $417 forward 7 unknown #
coedge $-1 $173 $407 $413 $418 forward $290 $-1 #
loop $-1 $-1 $407 $278 #
vertex $-1 $287 $419 #
vertex $-1 $174 $420 #
straight-curve $-1 -88.465663488009199 -21.494612485352512 6.9776080438554686 1 0 0 I I #
coedge $-1 $294 $294 $-1 $421 reversed $177 $-1 #
edge $-1 $422 0 $422 6.2831853071796004 $178 $423 forward 7 unknown #
vertex $-1 $181 $424 #
ellipse-curve $-1 -69.230386868028091 -19.774848133177663 4.1746006051901912 -0.73135370988377701 0 0.68199835119979291 0.34099917559989645 0 0.36567685494188851 1 I I #
coedge $-1 $298 $298 $-1 $425 reversed $184 $-1 #
edge $-1 $426 0 $426 6.2831853071796004 $185 $427 forward 7 unknown #
vertex $-1 $188 $428 #
ellipse-curve $-1 -69.230386868028091 -17.195201604915386 4.1746006051901912 -0.73135370988377701 0 0.68199835119979291 0.34099917559989645 0 0.36567685494188851 1 I I #
face $-1 $-1 $429 $41 $-1 $430 reversed single #
loop $-1 $-1 $195 $189 #
plane-surface $-1 0 0 6.977608043855466 0 0 1 1 0 0 forward_v I I I I #
coedge $-1 $431 $432 $433 $434 reversed $190 $-1 #
coedge $-1 $435 $192 $194 $312 forward $119 $-1 #
coedge $-1 $192 $435 $431 $436 forward $119 $-1 #
coedge $-1 $433 $195 $192 $309 forward $303 $-1 #
edge $-1 $315 0.6524587073753727 $437 6.6716339399873501 $308 $438 forward 7 unknown #
coedge $-1 $439 $440 $193 $311 forward $429 $-1 #
edge $-1 $441 -48.311852225797161 $314 -42.705837348466609 $310 $442 forward 7 unknown #
edge $-1 $315 -7.6652580024806687 $441 0 $194 $443 forward 7 unknown #
coedge $-1 $195 $433 $439 $444 forward $303 $-1 #
vertex $-1 $196 $445 #
vertex $-1 $196 $446 #
straight-curve $-1 -88.465663488009199 4.3145050310567337 6.9776080438554686 1 0 0 I I #
coedge $-1 $317 $317 $-1 $447 reversed $199 $-1 #
edge $-1 $448 0 $448 6.2831853071796004 $200 $449 forward 7 unknown #
vertex $-1 $203 $450 #
ellipse-curve $-1 -69.230386868028091 6.0342693832315781 4.1746006051901912 -0.73135370988377701 0 0.68199835119979291 0.34099917559989645 0 0.36567685494188851 1 I I #
coedge $-1 $321 $321 $-1 $451 reversed $206 $-1 #
edge $-1 $452 0 $452 6.2831853071796004 $207 $453 forward 7 unknown #
vertex $-1 $210 $454 #
ellipse-curve $-1 -69.230386868028091 8.6139159114938515 4.1746006051901912 -0.73135370988377701 0 0.68199835119979291 0.34099917559989645 0 0.36567685494188851 1 I I #
face $-1 $-1 $455 $44 $-1 $456 reversed single #
loop $-1 $-1 $217 $211 #
plane-surface $-1 0 0 6.977608043855466 0 0 1 1 0 0 forward_v I I I I #
coedge $-1 $457 $458 $459 $460 reversed $212 $-1 #
coedge $-1 $461 $214 $216 $335 forward $133 $-1 #
coedge $-1 $214 $461 $457 $462 forward $133 $-1 #
coedge $-1 $459 $217 $214 $332 forward $326 $-1 #
edge $-1 $338 0.3158685103223462 $463 11.055853682239551 $331 $464 forward 7 unknown #
coedge $-1 $465 $466 $215 $334 forward $455 $-1 #
edge $-1 $467 -98.719114364108023 $337 -93.068913283342241 $333 $468 forward 7 unknown #
edge $-1 $338 136.95137475372113 $467 143.68846705526903 $216 $469 forward 7 unknown #
coedge $-1 $217 $459 $465 $470 forward $326 $-1 #
vertex $-1 $334 $471 #
vertex $-1 $218 $472 #
straight-curve $-1 57.046588340743142 -6.0017296066032948 6.9776080438554686 -1 0 0 I I #
coedge $-1 $340 $340 $-1 $473 reversed $221 $-1 #
edge $-1 $474 0 $474 6.2831853071796004 $222 $475 forward 7 unknown #
vertex $-1 $225 $476 #
ellipse-curve $-1 70.009591844192684 -14.593717744137059 4.15250750347258 0.83867057594974714 0 0.54463902268945019 0.54463902268945019 0 -0.83867057594974714 1 I I #
coedge $-1 $344 $344 $-1 $477 reversed $228 $-1 #
edge $-1 $478 0 $478 6.2831853071796004 $229 $479 forward 7 unknown #
vertex $-1 $232 $480 #
ellipse-curve $-1 70.009591844192684 -11.371722192561897 4.15250750347258 0.83867057594974714 0 0.54463902268945019 0.54463902268945019 0 -0.83867057594974714 1 I I #
coedge $-1 $348 $348 $-1 $481 reversed $235 $-1 #
edge $-1 $482 0 $482 6.2831853071796004 $236 $483 forward 7 unknown #
vertex $-1 $239 $484 #
ellipse-curve $-1 70.009591844192684 -8.149726640986735 4.15250750347258 0.83867057594974714 0 0.54463902268945019 0.54463902268945019 0 -0.83867057594974714 1 I I #
face $-1 $-1 $255 $36 $-1 $485 reversed single #
loop $-1 $-1 $368 $240 #
plane-surface $-1 0 30.123622547465981 0 0 -1 0 0 0 -1 forward_v I I I I #
coedge $-1 $486 $366 $369 $487 forward $241 $-1 #
coedge $-1 $372 $243 $244 $360 reversed $152 $-1 #
coedge $-1 $366 $486 $243 $358 reversed $241 $-1 #
edge $-1 $373 -6.977608043855466 $488 6.977608043855466 $357 $489 forward 7 unknown #
coedge $-1 $245 $244 $486 $490 forward $97 $-1 #
edge $-1 $364 -71.844233527634515 $488 71.844233527634515 $356 $491 forward 7 unknown #
coedge $-1 $369 $368 $245 $362 reversed $353 $-1 #
edge $-1 $492 -71.844233527634515 $363 71.844233527634515 $361 $493 forward 7 unknown #
vertex $-1 $247 $494 #
vertex $-1 $375 $495 #
straight-curve $-1 71.844233527634515 0 -6.977608043855466 0 -1 0 I I #
coedge $-1 $355 $357 $248 $367 reversed $241 $-1 #
edge $-1 $370 -30.123622547465981 $373 30.123622547465981 $366 $496 forward 7 unknown #
coedge $-1 $361 $249 $254 $376 forward $353 $-1 #
coedge $-1 $249 $361 $355 $487 reversed $353 $-1 #
vertex $-1 $250 $497 #
straight-curve $-1 0 30.123622547465981 6.977608043855466 -1 0 0 I I #
coedge $-1 $251 $356 $253 $375 reversed $152 $-1 #
vertex $-1 $367 $498 #
straight-curve $-1 0 -30.123622547465981 6.977608043855466 1 0 0 I I #
edge $-1 $256 -6.977608043855466 $364 6.977608043855466 $253 $499 forward 7 unknown #
edge $-1 $257 -6.977608043855466 $363 6.977608043855466 $254 $500 forward 7 unknown #
point $-1 71.844233527634515 -30.123622547465981 6.977608043855466 #
point $-1 71.844233527634515 30.123622547465981 6.977608043855466 #
face $-1 $-1 $274 $37 $-1 $501 reversed single #
loop $-1 $-1 $270 $259 #
plane-surface $-1 0 -30.123622547465981 0 0 1 0 0 0 1 forward_v I I I I #
coedge $-1 $502 $503 $267 $392 forward $260 $-1 #
coedge $-1 $393 $262 $264 $388 reversed $160 $-1 #
edge $-1 $390 -3.125368119696724 $275 0.55898439512545961 $273 $504 forward 7 unknown #
coedge $-1 $264 $263 $505 $506 reversed $101 $-1 #
coedge $-1 $397 $396 $263 $387 forward $380 $-1 #
edge $-1 $507 -71.844233527634515 $389 71.844233527634515 $386 $508 forward 7 unknown #
edge $-1 $509 -71.844233527634515 $390 71.844233527634515 $383 $510 forward 7 unknown #
vertex $-1 $387 $511 #
vertex $-1 $266 $512 #
straight-curve $-1 71.844233527634515 -12.904558758204622 -4.4085599819823562 0 1 0 I I #
edge $-1 $398 -17.219063789261355 $394 -8.5900537271478896 $382 $513 forward 7 unknown #
coedge $-1 $268 $383 $502 $514 reversed $160 $-1 #
vertex $-1 $392 $515 #
straight-curve $-1 0 -21.494612485352512 -0.72420746716017259 -1 0 0 I I #
coedge $-1 $386 $270 $503 $516 forward $380 $-1 #
coedge $-1 $270 $386 $272 $400 reversed $380 $-1 #
vertex $-1 $516 $517 #
straight-curve $-1 0 -30.123622547465981 -0.72420746716017259 -1 0 0 I I #
edge $-1 $276 0.72420746716017259 $389 4.4085599819823562 $272 $518 forward 7 unknown #
point $-1 71.844233527634515 -21.494612485352512 -0.72420746716017259 #
point $-1 71.844233527634515 -30.123622547465978 -0.72420746716017259 #
plane-surface $-1 0 0 6.977608043855466 0 0 1 1 0 0 forward_v I I I I #
coedge $-1 $414 $413 $406 $519 forward $279 $-1 #
coedge $-1 $406 $281 $283 $410 reversed $168 $-1 #
coedge $-1 $281 $405 $404 $519 reversed $168 $-1 #
coedge $-1 $289 $284 $281 $408 forward $290 $-1 #
edge $-1 $411 -21.849123279587516 $520 -16.621429960374684 $407 $521 forward 7 unknown #
coedge $-1 $283 $282 $414 $522 reversed $105 $-1 #
edge $-1 $523 0 $411 7.6652580024806687 $405 $524 forward 7 unknown #
vertex $-1 $285 $525 #
straight-curve $-1 -66.616540208421682 -9.2425124345232614 6.9776080438554633 0 1 0 I I #
coedge $-1 $404 $286 $289 $418 reversed $279 $-1 #
coedge $-1 $286 $404 $409 $522 forward $279 $-1 #
vertex $-1 $287 $526 #
straight-curve $-1 -71.844233527634515 -21.494612485352512 49.683445392322078 0 0 1 I I #
straight-curve $-1 -71.844233527634515 -21.494612485352512 1.3715931665249173 -0.68199835119979291 0 -0.73135370988377701 I I #
edge $-1 $520 15.475437252740534 $291 21.494612485352512 $413 $527 forward 7 unknown #
point $-1 -71.844233527634515 -21.494612485352512 6.977608043855466 #
point $-1 -66.616540208421682 -21.494612485352512 6.977608043855466 #
edge $-1 $528 1 $528 0 $294 $-1 forward 7 unknown #
vertex $-1 $295 $529 #
ellipse-curve $-1 -68.499033158144329 -19.774848133177663 3.4926022539904129 -0.73135370988377701 0 0.68199835119979291 0.34099917559989645 0 0.36567685494188851 1 I I #
point $-1 -68.889387692428215 -19.774848133177663 4.5402774601320939 #
edge $-1 $530 1 $530 0 $298 $-1 forward 7 unknown #
vertex $-1 $299 $531 #
ellipse-curve $-1 -68.499033158144329 -17.195201604915386 3.4926022539904129 -0.73135370988377701 0 0.68199835119979291 0.34099917559989645 0 0.36567685494188851 1 I I #
point $-1 -68.889387692428215 -17.195201604915386 4.5402774601320939 #
loop $-1 $-1 $310 $302 #
plane-surface $-1 -71.844233527634515 0 0 1 0 0 0 0 -1 forward_v I I I I #
coedge $-1 $432 $305 $307 $436 reversed $190 $-1 #
coedge $-1 $305 $431 $532 $533 reversed $190 $-1 #
coedge $-1 $313 $308 $305 $434 forward $303 $-1 #
edge $-1 $437 -21.849123279587516 $534 -16.621429960374684 $433 $535 forward 7 unknown #
coedge $-1 $307 $306 $440 $536 reversed $119 $-1 #
edge $-1 $537 0 $437 7.6652580024806687 $431 $538 forward 7 unknown #
vertex $-1 $309 $539 #
straight-curve $-1 -66.616540208421682 3.662046323681361 6.9776080438554633 0 1 0 I I #
coedge $-1 $532 $310 $313 $444 reversed $429 $-1 #
coedge $-1 $310 $532 $435 $536 forward $429 $-1 #
vertex $-1 $311 $540 #
straight-curve $-1 -71.844233527634515 4.3145050310567337 49.683445392322078 0 0 1 I I #
straight-curve $-1 -71.844233527634515 4.3145050310567337 1.3715931665249173 -0.68199835119979291 0 -0.73135370988377701 I I #
edge $-1 $534 -10.333680263668711 $314 -4.3145050310567337 $439 $541 forward 7 unknown #
point $-1 -71.844233527634515 4.3145050310567337 6.977608043855466 #
point $-1 -66.616540208421682 4.3145050310567337 6.977608043855466 #
edge $-1 $542 1 $542 0 $317 $-1 forward 7 unknown #
vertex $-1 $318 $543 #
ellipse-curve $-1 -68.499033158144329 6.0342693832315781 3.4926022539904129 -0.73135370988377701 0 0.68199835119979291 0.34099917559989645 0 0.36567685494188851 1 I I #
point $-1 -68.889387692428215 6.0342693832315781 4.5402774601320939 #
edge $-1 $544 1 $544 0 $321 $-1 forward 7 unknown #
vertex $-1 $322 $545 #
ellipse-curve $-1 -68.499033158144329 8.6139159114938515 3.4926022539904129 -0.73135370988377701 0 0.68199835119979291 0.34099917559989645 0 0.36567685494188851 1 I I #
point $-1 -68.889387692428215 8.6139159114938515 4.5402774601320939 #
loop $-1 $-1 $333 $325 #
plane-surface $-1 71.844233527634515 0 0 -1 0 0 0 0 1 forward_v I I I I #
coedge $-1 $458 $328 $330 $462 reversed $212 $-1 #
coedge $-1 $328 $457 $546 $547 reversed $212 $-1 #
coedge $-1 $336 $331 $328 $460 forward $326 $-1 #
edge $-1 $463 11.128361820007711 $548 14.797645186891373 $459 $549 forward 7 unknown #
coedge $-1 $330 $329 $466 $550 reversed $133 $-1 #
edge $-1 $551 -143.68846705526903 $463 -136.95137475372113 $457 $552 forward 7 unknown #
vertex $-1 $332 $553 #
straight-curve $-1 68.174950160750853 -5.6858610962809486 6.9776080438554686 0 -1 0 I I #
coedge $-1 $546 $333 $336 $470 reversed $455 $-1 #
coedge $-1 $333 $546 $461 $550 forward $455 $-1 #
vertex $-1 $334 $554 #
straight-curve $-1 71.844233527634515 -6.0017296066032948 100.04652132719771 0 0 1 I I #
straight-curve $-1 -6.4141127410924668 -6.0017296066032948 121.83469638566844 0.54463902268945019 0 -0.83867057594974714 I I #
edge $-1 $548 -16.7417147785205 $337 -6.0017296066032948 $465 $555 forward 7 unknown #
point $-1 71.844233527634515 -6.0017296066032948 6.977608043855466 #
point $-1 68.174950160750853 -6.0017296066032948 6.9776080438554828 #
edge $-1 $556 1 $556 0 $340 $-1 forward 7 unknown #
vertex $-1 $341 $557 #
ellipse-curve $-1 68.894725883097109 -14.593717744137059 3.4285051062342919 0.83867057594974714 0 0.54463902268945019 0.54463902268945019 0 -0.83867057594974714 1 I I #
point $-1 70.554230866882151 -14.593717744137059 3.3138369275228352 #
edge $-1 $558 1 $558 0 $344 $-1 forward 7 unknown #
vertex $-1 $345 $559 #
ellipse-curve $-1 68.894725883097109 -11.371722192561897 3.4285051062342919 0.83867057594974714 0 0.54463902268945019 0.54463902268945019 0 -0.83867057594974714 1 I I #
point $-1 70.554230866882151 -11.371722192561897 3.3138369275228352 #
edge $-1 $560 1 $560 0 $348 $-1 forward 7 unknown #
vertex $-1 $349 $561 #
ellipse-curve $-1 68.894725883097109 -8.149726640986735 3.4285051062342919 0.83867057594974714 0 0.54463902268945019 0.54463902268945019 0 -0.83867057594974714 1 I I #
point $-1 70.554230866882151 -8.149726640986735 3.3138369275228352 #
plane-surface $-1 71.844233527634515 0 0 -1 0 0 0 0 1 forward_v I I I I #
coedge $-1 $357 $355 $359 $490 reversed $241 $-1 #
edge $-1 $370 -6.977608043855466 $492 6.977608043855466 $369 $562 forward 7 unknown #
vertex $-1 $490 $563 #
straight-curve $-1 -71.844233527634515 -30.123622547465981 0 0 0 -1 I I #
edge $-1 $488 -30.123622547465981 $492 30.123622547465981 $486 $564 forward 7 unknown #
straight-curve $-1 0 -30.123622547465981 -6.977608043855466 -1 0 0 I I #
vertex $-1 $362 $565 #
straight-curve $-1 0 30.123622547465981 -6.977608043855466 1 0 0 I I #
point $-1 71.844233527634515 30.123622547465981 -6.977608043855466 #
point $-1 71.844233527634515 -30.123622547465981 -6.977608043855466 #
straight-curve $-1 -71.844233527634515 0 6.977608043855466 0 -1 0 I I #
point $-1 -71.844233527634515 30.123622547465981 6.977608043855466 #
point $-1 -71.844233527634515 -30.123622547465981 6.977608043855466 #
straight-curve $-1 71.844233527634515 -30.123622547465981 0 0 0 -1 I I #
straight-curve $-1 71.844233527634515 30.123622547465981 0 0 0 -1 I I #
plane-surface $-1 71.844233527634515 0 0 -1 0 0 0 0 1 forward_v I I I I #
coedge $-1 $505 $382 $393 $514 forward $260 $-1 #
coedge $-1 $382 $505 $396 $516 reversed $260 $-1 #
straight-curve $-1 71.844233527634515 -21.494612485352512 -1.2831918622856322 0 0 1 I I #
coedge $-1 $503 $502 $385 $506 forward $260 $-1 #
edge $-1 $509 8.5900537271478896 $507 17.219063789261355 $505 $566 forward 7 unknown #
vertex $-1 $387 $567 #
straight-curve $-1 0 -30.123622547465981 -4.4085599819823562 1 0 0 I I #
vertex $-1 $506 $568 #
straight-curve $-1 0 -21.494612485352512 -4.4085599819823562 1 0 0 I I #
point $-1 71.844233527634515 -30.123622547465978 -4.4085599819823562 #
point $-1 71.844233527634515 -21.494612485352512 -4.4085599819823562 #
straight-curve $-1 -71.844233527634515 -12.904558758204622 -0.72420746716017259 0 1 0 I I #
edge $-1 $394 -0.55898439512545961 $509 3.125368119696724 $502 $569 forward 7 unknown #
point $-1 -71.844233527634515 -21.494612485352512 -0.72420746716017259 #
edge $-1 $398 0.72420746716017259 $507 4.4085599819823562 $503 $570 forward 7 unknown #
point $-1 -71.844233527634515 -30.123622547465978 -0.72420746716017259 #
straight-curve $-1 71.844233527634515 -30.123622547465981 0 0 0 -1 I I #
edge $-1 $520 42.705837348466609 $523 48.311852225797161 $404 $571 forward 7 unknown #
vertex $-1 $418 $572 #
straight-curve $-1 -88.465663488009199 -15.475437252740534 6.9776080438554686 -1 0 0 I I #
edge $-1 $523 6.2329248182172723 $415 12.252100050829251 $414 $573 forward 7 unknown #
vertex $-1 $522 $574 #
straight-curve $-1 -71.844233527634515 -15.475437252740534 1.3715931665249173 0.68199835119979291 0 0.73135370988377701 I I #
point $-1 -66.616540208421682 -15.475437252740534 6.977608043855466 #
point $-1 -71.844233527634515 -21.494612485352512 1.3715931665249173 #
straight-curve $-1 -71.844233527634515 0 6.977608043855466 0 -1 0 I I #
vertex $-1 $421 $575 #
point $-1 -68.158033982544438 -19.774848133177663 3.8582791089323014 #
vertex $-1 $425 $576 #
point $-1 -68.158033982544438 -17.195201604915386 3.8582791089323014 #
coedge $-1 $440 $439 $432 $533 forward $429 $-1 #
edge $-1 $534 42.705837348466609 $537 48.311852225797161 $532 $577 forward 7 unknown #
vertex $-1 $444 $578 #
straight-curve $-1 -88.465663488009199 10.333680263668711 6.9776080438554686 -1 0 0 I I #
edge $-1 $537 -6.6716339399873501 $441 -0.6524587073753727 $440 $579 forward 7 unknown #
vertex $-1 $536 $580 #
straight-curve $-1 -71.844233527634515 10.333680263668711 1.3715931665249173 0.68199835119979291 0 0.73135370988377701 I I #
point $-1 -66.616540208421682 10.333680263668711 6.977608043855466 #
point $-1 -71.844233527634515 4.3145050310567337 1.3715931665249173 #
straight-curve $-1 -71.844233527634515 0 6.977608043855466 0 -1 0 I I #
vertex $-1 $447 $581 #
point $-1 -68.158033982544438 6.0342693832315781 3.8582791089323014 #
vertex $-1 $451 $582 #
point $-1 -68.158033982544438 8.6139159114938515 3.8582791089323014 #
coedge $-1 $466 $465 $458 $547 forward $455 $-1 #
edge $-1 $548 93.068913283342241 $551 98.719114364108023 $546 $583 forward 7 unknown #
vertex $-1 $470 $584 #
straight-curve $-1 57.046588340743142 -16.7417147785205 6.9776080438554686 1 0 0 I I #
edge $-1 $551 -11.055853682239551 $467 -0.3158685103223462 $466 $585 forward 7 unknown #
vertex $-1 $550 $586 #
straight-curve $-1 -6.4141127410924668 -16.7417147785205 121.83469638566844 -0.54463902268945019 0 0.83867057594974714 I I #
point $-1 68.174950160750853 -16.7417147785205 6.9776080438554828 #
point $-1 71.844233527634515 -6.0017296066032948 1.3274069630896861 #
straight-curve $-1 71.844233527634515 0 6.977608043855466 0 1 0 I I #
vertex $-1 $473 $587 #
point $-1 69.439364905786562 -14.593717744137059 2.5898345302845449 #
vertex $-1 $477 $588 #
point $-1 69.439364905786562 -11.371722192561897 2.5898345302845449 #
vertex $-1 $481 $589 #
point $-1 69.439364905786562 -8.149726640986735 2.5898345302845449 #
straight-curve $-1 -71.844233527634515 30.123622547465981 0 0 0 -1 I I #
point $-1 -71.844233527634515 -30.123622547465981 -6.977608043855466 #
straight-curve $-1 -71.844233527634515 0 -6.977608043855466 0 1 0 I I #
point $-1 -71.844233527634515 30.123622547465981 -6.977608043855466 #
straight-curve $-1 -71.844233527634515 -12.904558758204622 -4.4085599819823562 0 -1 0 I I #
point $-1 -71.844233527634515 -30.123622547465978 -4.4085599819823562 #
point $-1 -71.844233527634515 -21.494612485352512 -4.4085599819823562 #
straight-curve $-1 -71.844233527634515 -21.494612485352512 -1.2831918622856322 0 0 -1 I I #
straight-curve $-1 -71.844233527634515 -30.123622547465981 0 0 0 -1 I I #
straight-curve $-1 -71.844233527634515 -15.475437252740534 49.683445392322078 0 0 -1 I I #
point $-1 -71.844233527634515 -15.475437252740534 6.977608043855466 #
straight-curve $-1 -71.844233527634515 -9.2425124345232614 1.3715931665249204 0 -1 0 I I #
point $-1 -71.844233527634515 -15.475437252740534 1.3715931665249173 #
point $-1 -68.133356303202447 -19.774848133177663 3.1516030783905165 #
point $-1 -68.133356303202447 -17.195201604915386 3.1516030783905165 #
straight-curve $-1 -71.844233527634515 10.333680263668711 49.683445392322078 0 0 -1 I I #
point $-1 -71.844233527634515 10.333680263668711 6.977608043855466 #
straight-curve $-1 -71.844233527634515 3.662046323681361 1.3715931665249204 0 -1 0 I I #
point $-1 -71.844233527634515 10.333680263668711 1.3715931665249173 #
point $-1 -68.133356303202447 6.0342693832315781 3.1516030783905165 #
point $-1 -68.133356303202447 8.6139159114938515 3.1516030783905165 #
straight-curve $-1 71.844233527634515 -16.7417147785205 100.04652132719771 0 0 -1 I I #
point $-1 71.844233527634515 -16.7417147785205 6.977608043855466 #
straight-curve $-1 71.844233527634515 -5.6858610962809486 1.3274069630896932 0 1 0 I I #
point $-1 71.844233527634515 -16.7417147785205 1.3274069630896861 #
point $-1 68.056055307147361 -14.593717744137059 2.8838660835448415 #
point $-1 68.056055307147361 -11.371722192561897 2.8838660835448415 #
point $-1 68.056055307147361 -8.149726640986735 2.8838660835448415 #
End-of-ACIS-data 