500 0 5 0           
7 Unknown 11 ACIS 5.0 NT 24 Thu Mar 25 15:19:28 1999 
-1 9.9999999999999995e-007 1e-010 
body $-1 $5 $-1 $6 #
body $-1 $7 $-1 $8 #
body $-1 $9 $-1 $10 #
body $-1 $11 $-1 $12 #
body $-1 $13 $-1 $14 #
lump $-1 $-1 $15 $0 #
transform $-1 1 0 0 0 1 0 0 0 1 55.139622180852683 37.305361191598408 8.7149067144788468 1 rotate no_reflect no_shear #
lump $-1 $-1 $16 $1 #
transform $-1 1 0 0 0 1 0 0 0 1 55.139622180852683 37.305361191598408 8.7149067144788468 1 rotate no_reflect no_shear #
lump $-1 $-1 $17 $2 #
transform $-1 1 0 0 0 1 0 0 0 1 55.139622180852683 37.305361191598408 8.7149067144788468 1 rotate no_reflect no_shear #
lump $-1 $-1 $18 $3 #
transform $-1 1 0 0 0 1 0 0 0 1 55.139622180852683 37.305361191598408 8.7149067144788468 1 rotate no_reflect no_shear #
lump $-1 $-1 $19 $4 #
transform $-1 1 0 0 0 1 0 0 0 1 55.139622180852683 37.305361191598408 8.7149067144788468 1 rotate no_reflect no_shear #
shell $-1 $-1 $-1 $20 $-1 $5 #
shell $-1 $-1 $-1 $21 $-1 $7 #
shell $-1 $-1 $-1 $22 $-1 $9 #
shell $-1 $-1 $-1 $23 $-1 $11 #
shell $-1 $-1 $-1 $24 $-1 $13 #
face $-1 $25 $26 $15 $-1 $27 forward single #
face $-1 $28 $29 $16 $-1 $30 forward single #
face $-1 $31 $32 $17 $-1 $33 reversed single #
face $-1 $34 $35 $18 $-1 $36 forward single #
face $-1 $37 $38 $19 $-1 $39 forward single #
face $-1 $40 $41 $15 $-1 $42 reversed single #
loop $-1 $-1 $43 $20 #
plane-surface $-1 0 0 8.7149067144788468 0 0 1 1 0 0 forward_v I I I I #
face $-1 $44 $45 $16 $-1 $46 reversed single #
loop $-1 $-1 $47 $21 #
plane-surface $-1 0 -37.305361191598408 0 0 1 0 0 0 1 forward_v I I I I #
face $-1 $48 $49 $17 $-1 $50 reversed single #
loop $-1 $-1 $51 $22 #
plane-surface $-1 8.6565498627945274 97.585767481108192 123.74538482694285 1 0 0 0 -0.87461971476443456 -0.48480960649040278 forward_v I I I I #
face $-1 $52 $53 $18 $-1 $54 forward single #
loop $-1 $55 $56 $23 #
cone-surface $-1 15.649698933684689 35.214919654961918 6.2780592226464718 0 -0.87461971476443456 -0.48480960649040278 1 0 0 1 I I 0 1 1 forward I I I I #
face $-1 $57 $58 $19 $-1 $59 forward single #
loop $-1 $60 $61 $24 #
cone-surface $-1 26.139422540019922 35.214919654961918 6.2780592226464718 0 -0.87461971476443456 -0.48480960649040278 1 0 0 1 I I 0 1 1 forward I I I I #
face $-1 $62 $63 $15 $-1 $64 reversed single #
loop $-1 $-1 $65 $25 #
plane-surface $-1 0 0 -8.7149067144788468 0 0 1 1 0 0 forward_v I I I I #
coedge $-1 $66 $67 $68 $69 forward $26 $-1 #
face $-1 $70 $71 $16 $-1 $72 forward single #
loop $-1 $-1 $73 $28 #
plane-surface $-1 -55.139622180852683 0 0 1 0 0 0 0 -1 forward_v I I I I #
coedge $-1 $74 $75 $76 $77 forward $29 $-1 #
face $-1 $78 $79 $17 $-1 $80 reversed single #
loop $-1 $-1 $81 $31 #
plane-surface $-1 20.894560736852299 1.133366233036071 70.280947763885507 0 0.87461971476443456 0.48480960649040278 1 0 0 forward_v I I I I #
coedge $-1 $82 $83 $84 $85 reversed $32 $-1 #
face $-1 $-1 $86 $18 $-1 $87 forward single #
loop $-1 $88 $89 $34 #
cone-surface $-1 15.649698933684689 33.709859465237273 5.4437907674455737 0 -0.87461971476443456 -0.48480960649040278 0.5 0 0 1 I I -0.70710678118654746 0.70710678118654746 0.5 forward I I I I #
loop $-1 $-1 $90 $23 #
coedge $-1 $56 $56 $91 $92 reversed $35 $-1 #
face $-1 $-1 $93 $19 $-1 $94 forward single #
loop $-1 $95 $96 $37 #
cone-surface $-1 26.139422540019922 33.709859465237273 5.4437907674455737 0 -0.87461971476443456 -0.48480960649040278 0.5 0 0 1 I I -0.70710678118654746 0.70710678118654746 0.5 forward I I I I #
loop $-1 $-1 $97 $24 #
coedge $-1 $61 $61 $98 $99 reversed $38 $-1 #
face $-1 $100 $101 $15 $-1 $102 reversed single #
loop $-1 $-1 $103 $40 #
plane-surface $-1 0 -37.305361191598408 0 0 1 0 0 0 1 forward_v I I I I #
coedge $-1 $104 $105 $106 $107 forward $41 $-1 #
coedge $-1 $108 $43 $109 $110 forward $26 $-1 #
coedge $-1 $43 $108 $111 $112 forward $26 $-1 #
coedge $-1 $113 $114 $43 $69 reversed $115 $-1 #
edge $-1 $116 -37.305361191598408 $117 37.305361191598408 $68 $118 forward 7 unknown #
face $-1 $119 $120 $16 $-1 $121 reversed single #
loop $-1 $-1 $122 $44 #
plane-surface $-1 0 -42.993830572774741 -4.4836143060384739 0 0 1 1 0 0 forward_v I I I I #
coedge $-1 $123 $124 $75 $125 forward $45 $-1 #
coedge $-1 $126 $47 $127 $128 reversed $29 $-1 #
coedge $-1 $47 $126 $73 $125 reversed $29 $-1 #
coedge $-1 $129 $122 $47 $77 reversed $71 $-1 #
edge $-1 $130 -55.139622180852683 $131 55.139622180852683 $76 $132 forward 7 unknown #
face $-1 $133 $134 $17 $-1 $135 forward single #
loop $-1 $-1 $136 $48 #
plane-surface $-1 33.13257161091007 97.585767481108192 123.74538482694285 -1 0 0 0 0.87461971476443456 0.48480960649040278 forward_v I I I I #
coedge $-1 $137 $138 $139 $140 reversed $49 $-1 #
coedge $-1 $83 $51 $141 $142 reversed $32 $-1 #
coedge $-1 $51 $82 $137 $143 reversed $32 $-1 #
coedge $-1 $139 $144 $51 $85 forward $134 $-1 #
edge $-1 $145 11.487522548955688 $146 13.532904957543806 $84 $147 forward 7 unknown #
loop $-1 $-1 $91 $52 #
plane-surface $-1 20.894560736852299 1.133366233036071 70.280947763885507 0 0.87461971476443456 0.48480960649040278 1 0 0 forward_v I I I I #
loop $-1 $-1 $148 $34 #
coedge $-1 $89 $89 $90 $149 reversed $53 $-1 #
coedge $-1 $90 $90 $89 $149 forward $55 $-1 #
coedge $-1 $91 $91 $56 $92 forward $86 $-1 #
edge $-1 $150 1.5536367121960996e-015 $150 6.2831853071796022 $91 $151 forward 7 unknown #
loop $-1 $-1 $98 $57 #
plane-surface $-1 20.894560736852299 1.133366233036071 70.280947763885507 0 0.87461971476443456 0.48480960649040278 1 0 0 forward_v I I I I #
loop $-1 $-1 $152 $37 #
coedge $-1 $96 $96 $97 $153 reversed $58 $-1 #
coedge $-1 $97 $97 $96 $153 forward $60 $-1 #
coedge $-1 $98 $98 $61 $99 forward $93 $-1 #
edge $-1 $154 1.5536367121960996e-015 $154 6.2831853071796022 $98 $155 forward 7 unknown #
face $-1 $156 $157 $15 $-1 $158 reversed single #
loop $-1 $-1 $159 $62 #
plane-surface $-1 -55.139622180852683 0 0 1 0 0 0 0 -1 forward_v I I I I #
coedge $-1 $160 $111 $161 $162 forward $63 $-1 #
coedge $-1 $163 $65 $160 $164 forward $41 $-1 #
coedge $-1 $65 $163 $165 $166 forward $41 $-1 #
coedge $-1 $114 $113 $65 $107 reversed $115 $-1 #
edge $-1 $167 -37.305361191598408 $168 37.305361191598408 $106 $169 forward 7 unknown #
coedge $-1 $67 $66 $170 $171 forward $26 $-1 #
coedge $-1 $172 $173 $66 $110 reversed $157 $-1 #
edge $-1 $117 -55.139622180852683 $174 55.139622180852683 $109 $175 forward 7 unknown #
coedge $-1 $103 $176 $67 $112 reversed $63 $-1 #
edge $-1 $177 -55.139622180852683 $116 55.139622180852683 $111 $178 forward 7 unknown #
coedge $-1 $106 $68 $176 $179 forward $115 $-1 #
coedge $-1 $68 $106 $172 $180 reversed $115 $-1 #
loop $-1 $-1 $113 $156 #
vertex $-1 $69 $181 #
vertex $-1 $69 $182 #
straight-curve $-1 55.139622180852683 0 8.7149067144788468 0 1 0 I I #
face $-1 $183 $184 $16 $-1 $185 reversed single #
loop $-1 $-1 $186 $70 #
plane-surface $-1 0 -42.993830572774741 -7.4836143060384739 0 0 1 1 0 0 forward_v I I I I #
coedge $-1 $76 $187 $188 $189 forward $71 $-1 #
coedge $-1 $190 $73 $191 $192 reversed $45 $-1 #
coedge $-1 $73 $190 $129 $193 reversed $45 $-1 #
edge $-1 $130 4.4836143060384739 $194 7.4836143060384739 $73 $195 forward 7 unknown #
coedge $-1 $75 $74 $196 $197 forward $29 $-1 #
coedge $-1 $188 $198 $74 $128 forward $199 $-1 #
edge $-1 $200 -7.4836143060384739 $131 -4.4836143060384739 $127 $201 forward 7 unknown #
coedge $-1 $187 $76 $124 $193 forward $71 $-1 #
vertex $-1 $125 $202 #
vertex $-1 $189 $203 #
straight-curve $-1 0 -37.305361191598408 -4.4836143060384739 1 0 0 I I #
face $-1 $-1 $204 $17 $-1 $205 reversed single #
loop $-1 $-1 $84 $78 #
plane-surface $-1 0 0 8.7149067144788468 0 0 1 1 0 0 forward_v I I I I #
coedge $-1 $206 $207 $208 $209 reversed $79 $-1 #
coedge $-1 $210 $81 $83 $143 forward $49 $-1 #
coedge $-1 $81 $210 $206 $211 forward $49 $-1 #
coedge $-1 $208 $84 $81 $140 forward $134 $-1 #
edge $-1 $146 -1.7907305056316218 $212 22.68529124248392 $139 $213 forward 7 unknown #
coedge $-1 $214 $215 $82 $142 forward $204 $-1 #
edge $-1 $216 -56.847753378745935 $145 -53.157785698992583 $141 $217 forward 7 unknown #
edge $-1 $146 70.39178286301096 $216 74.61072238319683 $83 $218 forward 7 unknown #
coedge $-1 $84 $208 $214 $219 forward $134 $-1 #
vertex $-1 $142 $220 #
vertex $-1 $85 $221 #
straight-curve $-1 8.6565498627945274 48.792883740554096 8.7149067144788432 0 -1 0 I I #
coedge $-1 $148 $148 $-1 $222 reversed $88 $-1 #
edge $-1 $223 0 $223 6.2831853071796004 $89 $224 forward 7 unknown #
vertex $-1 $92 $225 #
ellipse-curve $-1 15.649698933684689 36.282669987304345 6.869922874602171 0 0.87461971476443456 0.48480960649040278 1 0 0 1 I I #
coedge $-1 $152 $152 $-1 $226 reversed $95 $-1 #
edge $-1 $227 0 $227 6.2831853071796004 $96 $228 forward 7 unknown #
vertex $-1 $99 $229 #
ellipse-curve $-1 26.139422540019922 36.282669987304345 6.869922874602171 0 0.87461971476443456 0.48480960649040278 1 0 0 1 I I #
face $-1 $-1 $115 $15 $-1 $230 reversed single #
loop $-1 $-1 $172 $100 #
plane-surface $-1 0 37.305361191598408 0 0 -1 0 0 0 -1 forward_v I I I I #
coedge $-1 $231 $170 $173 $232 forward $101 $-1 #
coedge $-1 $176 $103 $104 $164 reversed $63 $-1 #
coedge $-1 $170 $231 $103 $162 reversed $101 $-1 #
edge $-1 $177 -8.7149067144788468 $233 8.7149067144788468 $161 $234 forward 7 unknown #
coedge $-1 $105 $104 $231 $235 forward $41 $-1 #
edge $-1 $168 -55.139622180852683 $233 55.139622180852683 $160 $236 forward 7 unknown #
coedge $-1 $173 $172 $105 $166 reversed $157 $-1 #
edge $-1 $237 -55.139622180852683 $167 55.139622180852683 $165 $238 forward 7 unknown #
vertex $-1 $107 $239 #
vertex $-1 $179 $240 #
straight-curve $-1 55.139622180852683 0 -8.7149067144788468 0 -1 0 I I #
coedge $-1 $159 $161 $108 $171 reversed $101 $-1 #
edge $-1 $174 -37.305361191598408 $177 37.305361191598408 $170 $241 forward 7 unknown #
coedge $-1 $165 $109 $114 $180 forward $157 $-1 #
coedge $-1 $109 $165 $159 $232 reversed $157 $-1 #
vertex $-1 $110 $242 #
straight-curve $-1 0 37.305361191598408 8.7149067144788468 -1 0 0 I I #
coedge $-1 $111 $160 $113 $179 reversed $63 $-1 #
vertex $-1 $171 $243 #
straight-curve $-1 0 -37.305361191598408 8.7149067144788468 1 0 0 I I #
edge $-1 $116 -8.7149067144788468 $168 8.7149067144788468 $113 $244 forward 7 unknown #
edge $-1 $117 -8.7149067144788468 $167 8.7149067144788468 $114 $245 forward 7 unknown #
point $-1 55.139622180852683 -37.305361191598408 8.7149067144788468 #
point $-1 55.139622180852683 37.305361191598408 8.7149067144788468 #
face $-1 $-1 $199 $16 $-1 $246 reversed single #
loop $-1 $-1 $247 $119 #
plane-surface $-1 0 -48.682299953951073 -5.9836143060384739 0 1 0 0 0 1 forward_v I I I I #
coedge $-1 $248 $196 $198 $249 forward $120 $-1 #
coedge $-1 $122 $129 $250 $251 forward $71 $-1 #
coedge $-1 $252 $127 $122 $189 reversed $199 $-1 #
edge $-1 $253 -5.6884693811763327 $131 5.6884693811763327 $188 $254 forward 7 unknown #
coedge $-1 $124 $123 $247 $255 reversed $45 $-1 #
coedge $-1 $196 $248 $123 $192 forward $120 $-1 #
edge $-1 $256 -5.6884693811763327 $194 5.6884693811763327 $123 $257 forward 7 unknown #
edge $-1 $130 -5.6884693811763327 $258 5.6884693811763327 $124 $259 forward 7 unknown #
vertex $-1 $125 $260 #
straight-curve $-1 -55.139622180852683 -37.305361191598408 0 0 0 -1 I I #
coedge $-1 $186 $191 $126 $197 reversed $120 $-1 #
edge $-1 $200 -55.139622180852683 $194 55.139622180852683 $196 $261 forward 7 unknown #
coedge $-1 $127 $252 $186 $249 reversed $199 $-1 #
loop $-1 $-1 $127 $183 #
vertex $-1 $128 $262 #
straight-curve $-1 55.139622180852683 -37.305361191598408 0 0 0 1 I I #
point $-1 -55.139622180852683 -37.305361191598408 -4.4836143060384739 #
point $-1 55.139622180852683 -37.305361191598408 -4.4836143060384739 #
loop $-1 $-1 $141 $133 #
plane-surface $-1 0 37.305361191598408 0 0 -1 0 0 0 -1 forward_v I I I I #
coedge $-1 $207 $136 $138 $211 reversed $79 $-1 #
coedge $-1 $136 $206 $263 $264 reversed $79 $-1 #
coedge $-1 $144 $139 $136 $209 forward $134 $-1 #
edge $-1 $212 -13.532904957543806 $265 -11.487522548955688 $208 $266 forward 7 unknown #
coedge $-1 $138 $137 $215 $267 reversed $49 $-1 #
edge $-1 $268 -74.61072238319683 $212 -70.39178286301096 $206 $269 forward 7 unknown #
vertex $-1 $140 $270 #
straight-curve $-1 10.447280368426149 35.259978783010297 8.7149067144788432 1 0 0 I I #
coedge $-1 $263 $141 $144 $219 reversed $204 $-1 #
coedge $-1 $141 $263 $210 $267 forward $204 $-1 #
vertex $-1 $142 $271 #
straight-curve $-1 8.6565498627945274 37.305361191598408 61.872692413471427 0 0 1 I I #
straight-curve $-1 8.6565498627945274 1.133366233036071 70.280947763885507 0 0.48480960649040278 -0.87461971476443456 I I #
edge $-1 $265 -33.13257161091007 $145 -8.6565498627945274 $214 $272 forward 7 unknown #
point $-1 8.6565498627945274 37.305361191598408 8.7149067144788468 #
point $-1 8.6565498627945274 35.25997878301029 8.7149067144788503 #
edge $-1 $273 1 $273 0 $148 $-1 forward 7 unknown #
vertex $-1 $149 $274 #
ellipse-curve $-1 15.649698933684689 34.14716932261949 5.6861955706907752 0 0.87461971476443456 0.48480960649040278 1 0 0 1 I I #
point $-1 16.649698933684689 36.282669987304345 6.8699228746021692 #
edge $-1 $275 1 $275 0 $152 $-1 forward 7 unknown #
vertex $-1 $153 $276 #
ellipse-curve $-1 26.139422540019922 34.14716932261949 5.6861955706907752 0 0.87461971476443456 0.48480960649040278 1 0 0 1 I I #
point $-1 27.139422540019922 36.282669987304345 6.8699228746021692 #
plane-surface $-1 55.139622180852683 0 0 -1 0 0 0 0 1 forward_v I I I I #
coedge $-1 $161 $159 $163 $235 reversed $101 $-1 #
edge $-1 $174 -8.7149067144788468 $237 8.7149067144788468 $173 $277 forward 7 unknown #
vertex $-1 $235 $278 #
straight-curve $-1 -55.139622180852683 -37.305361191598408 0 0 0 -1 I I #
edge $-1 $233 -37.305361191598408 $237 37.305361191598408 $231 $279 forward 7 unknown #
straight-curve $-1 0 -37.305361191598408 -8.7149067144788468 -1 0 0 I I #
vertex $-1 $166 $280 #
straight-curve $-1 0 37.305361191598408 -8.7149067144788468 1 0 0 I I #
point $-1 55.139622180852683 37.305361191598408 -8.7149067144788468 #
point $-1 55.139622180852683 -37.305361191598408 -8.7149067144788468 #
straight-curve $-1 -55.139622180852683 0 8.7149067144788468 0 -1 0 I I #
point $-1 -55.139622180852683 37.305361191598408 8.7149067144788468 #
point $-1 -55.139622180852683 -37.305361191598408 8.7149067144788468 #
straight-curve $-1 55.139622180852683 -37.305361191598408 0 0 0 -1 I I #
straight-curve $-1 55.139622180852683 37.305361191598408 0 0 0 -1 I I #
plane-surface $-1 55.139622180852683 0 0 -1 0 0 0 0 1 forward_v I I I I #
coedge $-1 $281 $250 $190 $255 forward $184 $-1 #
coedge $-1 $191 $186 $281 $282 forward $120 $-1 #
edge $-1 $200 -5.6884693811763327 $283 5.6884693811763327 $198 $284 forward 7 unknown #
coedge $-1 $247 $285 $187 $251 reversed $184 $-1 #
edge $-1 $258 -55.139622180852683 $253 55.139622180852683 $250 $286 forward 7 unknown #
coedge $-1 $198 $188 $285 $287 forward $199 $-1 #
vertex $-1 $189 $288 #
straight-curve $-1 55.139622180852683 -42.993830572774741 -4.4836143060384739 0 1 0 I I #
edge $-1 $258 -1.5 $256 1.5 $190 $289 forward 7 unknown #
vertex $-1 $192 $290 #
straight-curve $-1 -55.139622180852683 -42.993830572774741 -7.4836143060384739 0 1 0 I I #
vertex $-1 $193 $291 #
straight-curve $-1 -55.139622180852683 -42.993830572774741 -4.4836143060384739 0 -1 0 I I #
point $-1 -55.139622180852683 -37.305361191598408 -7.4836143060384739 #
straight-curve $-1 0 -37.305361191598408 -7.4836143060384739 -1 0 0 I I #
point $-1 55.139622180852683 -37.305361191598408 -7.4836143060384739 #
coedge $-1 $215 $214 $207 $264 forward $204 $-1 #
edge $-1 $265 53.157785698992583 $268 56.847753378745935 $263 $292 forward 7 unknown #
vertex $-1 $219 $293 #
straight-curve $-1 33.13257161091007 48.792883740554096 8.7149067144788432 0 1 0 I I #
edge $-1 $268 -22.68529124248392 $216 1.7907305056316218 $215 $294 forward 7 unknown #
vertex $-1 $267 $295 #
straight-curve $-1 33.13257161091007 1.133366233036071 70.280947763885507 0 -0.48480960649040278 0.87461971476443456 I I #
point $-1 33.13257161091007 35.25997878301029 8.7149067144788503 #
point $-1 8.6565498627945274 37.305361191598408 5.0249390347254916 #
straight-curve $-1 0 37.305361191598408 8.7149067144788468 -1 0 0 I I #
vertex $-1 $222 $296 #
point $-1 16.649698933684689 34.14716932261949 5.6861955706907752 #
vertex $-1 $226 $297 #
point $-1 27.139422540019922 34.14716932261949 5.6861955706907752 #
straight-curve $-1 -55.139622180852683 37.305361191598408 0 0 0 -1 I I #
point $-1 -55.139622180852683 -37.305361191598408 -8.7149067144788468 #
straight-curve $-1 -55.139622180852683 0 -8.7149067144788468 0 1 0 I I #
point $-1 -55.139622180852683 37.305361191598408 -8.7149067144788468 #
coedge $-1 $285 $247 $248 $282 reversed $184 $-1 #
edge $-1 $283 -55.139622180852683 $256 55.139622180852683 $281 $298 forward 7 unknown #
vertex $-1 $287 $299 #
straight-curve $-1 55.139622180852683 -42.993830572774741 -7.4836143060384739 0 -1 0 I I #
coedge $-1 $250 $281 $252 $287 reversed $184 $-1 #
straight-curve $-1 0 -48.682299953951073 -4.4836143060384739 1 0 0 I I #
edge $-1 $253 -1.5 $283 1.5 $252 $300 forward 7 unknown #
point $-1 55.139622180852683 -48.682299953951073 -4.4836143060384739 #
straight-curve $-1 -55.139622180852683 -48.682299953951073 -5.9836143060384739 0 0 -1 I I #
point $-1 -55.139622180852683 -48.682299953951073 -7.4836143060384739 #
point $-1 -55.139622180852683 -48.682299953951073 -4.4836143060384739 #
straight-curve $-1 33.13257161091007 37.305361191598408 61.872692413471427 0 0 -1 I I #
point $-1 33.13257161091007 37.305361191598408 8.7149067144788468 #
straight-curve $-1 10.447280368426149 37.305361191598408 5.0249390347254952 -1 0 0 I I #
point $-1 33.13257161091007 37.305361191598408 5.0249390347254916 #
point $-1 15.649698933684689 33.272549607855055 5.2013859642003721 #
point $-1 26.139422540019922 33.272549607855055 5.2013859642003721 #
straight-curve $-1 0 -48.682299953951073 -7.4836143060384739 -1 0 0 I I #
point $-1 55.139622180852683 -48.682299953951073 -7.4836143060384739 #
straight-curve $-1 55.139622180852683 -48.682299953951073 -5.9836143060384739 0 0 -1 I I #
End-of-ACIS-data 