500 0 6 0           
7 Unknown 11 ACIS 5.0 NT 24 Fri Mar 26 01:48:52 1999 
-1 9.9999999999999995e-007 1e-010 
body $-1 $6 $-1 $7 #
body $-1 $8 $-1 $9 #
body $-1 $10 $-1 $11 #
body $-1 $12 $-1 $13 #
body $-1 $14 $-1 $15 #
body $-1 $16 $-1 $17 #
lump $-1 $-1 $18 $0 #
transform $-1 1 0 0 0 1 0 0 0 1 61.094393749809257 39.276831920426247 9.5724616850285962 1 rotate no_reflect no_shear #
lump $-1 $-1 $19 $1 #
transform $-1 1 0 0 0 1 0 0 0 1 61.094393749809257 39.276831920426247 9.5724616850285962 1 rotate no_reflect no_shear #
lump $-1 $-1 $20 $2 #
transform $-1 1 0 0 0 1 0 0 0 1 61.094393749809257 39.276831920426247 9.5724616850285962 1 rotate no_reflect no_shear #
lump $-1 $-1 $21 $3 #
transform $-1 1 0 0 0 1 0 0 0 1 61.094393749809257 39.276831920426247 9.5724616850285962 1 rotate no_reflect no_shear #
lump $-1 $-1 $22 $4 #
transform $-1 1 0 0 0 1 0 0 0 1 61.094393749809257 39.276831920426247 9.5724616850285962 1 rotate no_reflect no_shear #
lump $-1 $-1 $23 $5 #
transform $-1 1 0 0 0 1 0 0 0 1 61.094393749809257 39.276831920426247 9.5724616850285962 1 rotate no_reflect no_shear #
shell $-1 $-1 $-1 $24 $-1 $6 #
shell $-1 $-1 $-1 $25 $-1 $8 #
shell $-1 $-1 $-1 $26 $-1 $10 #
shell $-1 $-1 $-1 $27 $-1 $12 #
shell $-1 $-1 $-1 $28 $-1 $14 #
shell $-1 $-1 $-1 $29 $-1 $16 #
face $-1 $30 $31 $18 $-1 $32 forward single #
face $-1 $33 $34 $19 $-1 $35 forward single #
face $-1 $36 $37 $20 $-1 $38 forward single #
face $-1 $39 $40 $21 $-1 $41 reversed single #
face $-1 $42 $43 $22 $-1 $44 forward single #
face $-1 $45 $46 $23 $-1 $47 forward single #
face $-1 $48 $49 $18 $-1 $50 reversed single #
loop $-1 $-1 $51 $24 #
plane-surface $-1 0 0 9.5724616850285962 0 0 1 1 0 0 forward_v I I I I #
face $-1 $52 $53 $19 $-1 $54 reversed single #
loop $-1 $-1 $55 $25 #
plane-surface $-1 -57.608089006250879 0 8.7957217353955706 0 0 1 1 0 0 forward_v I I I I #
face $-1 $56 $57 $20 $-1 $58 reversed single #
loop $-1 $-1 $59 $26 #
plane-surface $-1 57.608089006250879 0 8.7957217353955706 0 0 1 1 0 0 forward_v I I I I #
face $-1 $60 $61 $21 $-1 $62 reversed single #
loop $-1 $-1 $63 $27 #
plane-surface $-1 44.779842686980274 -10.158589723546712 62.087077808324011 0 0.77714596973225614 0.62932038083071107 1 0 0 forward_v I I I I #
face $-1 $64 $65 $22 $-1 $66 forward single #
loop $-1 $67 $68 $28 #
cone-surface $-1 40.77615344024646 34.345524437168237 4.1104176103035197 0 -0.77714596973225614 -0.62932038083071107 2.5 0 0 1 I I 0 1 2.5 forward I I I I #
face $-1 $69 $70 $23 $-1 $71 forward single #
loop $-1 $72 $73 $29 #
cone-surface $-1 48.783531933714087 34.345524437168237 4.1104176103035197 0 -0.77714596973225614 -0.62932038083071107 2.5 0 0 1 I I 0 1 2.5 forward I I I I #
face $-1 $74 $75 $18 $-1 $76 reversed single #
loop $-1 $-1 $77 $30 #
plane-surface $-1 0 0 -9.5724616850285962 0 0 1 1 0 0 forward_v I I I I #
coedge $-1 $78 $79 $80 $81 forward $31 $-1 #
face $-1 $82 $83 $19 $-1 $84 reversed single #
loop $-1 $-1 $85 $33 #
plane-surface $-1 -57.608089006250879 0 3.5132373248293298 0 0 1 1 0 0 forward_v I I I I #
coedge $-1 $86 $87 $88 $89 forward $34 $-1 #
face $-1 $90 $91 $20 $-1 $92 reversed single #
loop $-1 $-1 $93 $36 #
plane-surface $-1 57.608089006250879 0 3.5132373248293298 0 0 1 1 0 0 forward_v I I I I #
coedge $-1 $94 $95 $96 $97 reversed $37 $-1 #
face $-1 $98 $99 $21 $-1 $100 forward single #
loop $-1 $-1 $101 $39 #
plane-surface $-1 35.437901111268047 84.799934028252892 138.98297209082676 1 0 0 0 -0.77714596973225614 -0.62932038083071107 forward_v I I I I #
coedge $-1 $102 $103 $104 $105 reversed $40 $-1 #
face $-1 $-1 $106 $22 $-1 $107 forward single #
loop $-1 $108 $109 $42 #
cone-surface $-1 40.77615344024646 31.897747062410716 2.1282466287028363 0 -0.77714596973225614 -0.62932038083071107 1.25 0 0 1 I I -0.70710678118654746 0.70710678118654746 1.25 forward I I I I #
loop $-1 $-1 $110 $28 #
coedge $-1 $68 $68 $111 $112 reversed $43 $-1 #
face $-1 $-1 $113 $23 $-1 $114 forward single #
loop $-1 $115 $116 $45 #
cone-surface $-1 48.783531933714087 31.897747062410716 2.1282466287028363 0 -0.77714596973225614 -0.62932038083071107 1.25 0 0 1 I I -0.70710678118654746 0.70710678118654746 1.25 forward I I I I #
loop $-1 $-1 $117 $29 #
coedge $-1 $73 $73 $118 $119 reversed $46 $-1 #
face $-1 $120 $121 $18 $-1 $122 reversed single #
loop $-1 $-1 $123 $48 #
plane-surface $-1 0 -39.276831920426247 0 0 1 0 0 0 1 forward_v I I I I #
coedge $-1 $124 $125 $126 $127 forward $49 $-1 #
coedge $-1 $128 $51 $129 $130 forward $31 $-1 #
coedge $-1 $51 $128 $131 $132 forward $31 $-1 #
coedge $-1 $133 $134 $51 $81 reversed $135 $-1 #
edge $-1 $136 -39.276831920426247 $137 39.276831920426247 $80 $138 forward 7 unknown #
face $-1 $139 $140 $19 $-1 $141 reversed single #
loop $-1 $-1 $142 $52 #
plane-surface $-1 -54.121784262692501 0 6.1544795301124502 -1 0 0 0 0 1 forward_v I I I I #
coedge $-1 $143 $144 $145 $146 forward $53 $-1 #
coedge $-1 $147 $55 $148 $149 reversed $34 $-1 #
coedge $-1 $55 $147 $150 $151 reversed $34 $-1 #
coedge $-1 $142 $152 $55 $89 reversed $83 $-1 #
edge $-1 $153 -39.276831920426247 $154 39.276831920426247 $88 $155 forward 7 unknown #
face $-1 $156 $157 $20 $-1 $158 reversed single #
loop $-1 $-1 $159 $56 #
plane-surface $-1 54.121784262692501 0 6.1544795301124502 1 0 0 0 0 -1 forward_v I I I I #
coedge $-1 $160 $161 $162 $163 reversed $57 $-1 #
coedge $-1 $164 $59 $165 $166 reversed $37 $-1 #
coedge $-1 $59 $164 $167 $168 reversed $37 $-1 #
coedge $-1 $169 $170 $59 $97 forward $171 $-1 #
edge $-1 $172 -39.276831920426247 $173 39.276831920426247 $96 $174 forward 7 unknown #
face $-1 $175 $176 $21 $-1 $177 reversed single #
loop $-1 $-1 $178 $60 #
plane-surface $-1 54.121784262692501 0 6.1544795301124502 1 0 0 0 0 -1 forward_v I I I I #
coedge $-1 $179 $180 $181 $182 reversed $61 $-1 #
coedge $-1 $183 $63 $178 $184 forward $40 $-1 #
coedge $-1 $63 $183 $179 $185 forward $40 $-1 #
coedge $-1 $181 $186 $63 $105 forward $176 $-1 #
edge $-1 $187 -31.731862919202364 $188 -13.04797976777791 $104 $189 forward 7 unknown #
loop $-1 $-1 $111 $64 #
plane-surface $-1 44.779842686980274 -10.158589723546712 62.087077808324011 0 0.77714596973225614 0.62932038083071107 1 0 0 forward_v I I I I #
loop $-1 $-1 $190 $42 #
coedge $-1 $109 $109 $110 $191 reversed $65 $-1 #
coedge $-1 $110 $110 $109 $191 forward $67 $-1 #
coedge $-1 $111 $111 $68 $112 forward $106 $-1 #
edge $-1 $192 -8.2829313512773997e-016 $192 6.2831853071795996 $111 $193 forward 7 unknown #
loop $-1 $-1 $118 $69 #
plane-surface $-1 44.779842686980274 -10.158589723546712 62.087077808324011 0 0.77714596973225614 0.62932038083071107 1 0 0 forward_v I I I I #
loop $-1 $-1 $194 $45 #
coedge $-1 $116 $116 $117 $195 reversed $70 $-1 #
coedge $-1 $117 $117 $116 $195 forward $72 $-1 #
coedge $-1 $118 $118 $73 $119 forward $113 $-1 #
edge $-1 $196 -8.2829313512773997e-016 $196 6.2831853071795996 $118 $197 forward 7 unknown #
face $-1 $198 $199 $18 $-1 $200 reversed single #
loop $-1 $-1 $201 $74 #
plane-surface $-1 -61.094393749809257 0 0 1 0 0 0 0 -1 forward_v I I I I #
coedge $-1 $202 $131 $203 $204 forward $75 $-1 #
coedge $-1 $205 $77 $202 $206 forward $49 $-1 #
coedge $-1 $77 $205 $207 $208 forward $49 $-1 #
coedge $-1 $134 $133 $77 $127 reversed $135 $-1 #
edge $-1 $209 -39.276831920426247 $210 39.276831920426247 $126 $211 forward 7 unknown #
coedge $-1 $79 $78 $212 $213 forward $31 $-1 #
coedge $-1 $214 $215 $78 $130 reversed $199 $-1 #
edge $-1 $137 -61.094393749809257 $216 61.094393749809257 $129 $217 forward 7 unknown #
coedge $-1 $123 $218 $79 $132 reversed $75 $-1 #
edge $-1 $219 -61.094393749809257 $136 61.094393749809257 $131 $220 forward 7 unknown #
coedge $-1 $126 $80 $218 $221 forward $135 $-1 #
coedge $-1 $80 $126 $214 $222 reversed $135 $-1 #
loop $-1 $-1 $133 $198 #
vertex $-1 $81 $223 #
vertex $-1 $81 $224 #
straight-curve $-1 61.094393749809257 0 9.5724616850285962 0 1 0 I I #
face $-1 $225 $226 $19 $-1 $227 reversed single #
loop $-1 $-1 $228 $82 #
plane-surface $-1 0 -39.276831920426247 0 0 1 0 0 0 1 forward_v I I I I #
coedge $-1 $145 $88 $229 $230 reversed $83 $-1 #
coedge $-1 $231 $85 $228 $232 reversed $53 $-1 #
coedge $-1 $85 $231 $233 $234 reversed $53 $-1 #
coedge $-1 $152 $142 $85 $146 reversed $83 $-1 #
edge $-1 $235 -39.276831920426247 $236 39.276831920426247 $145 $237 forward 7 unknown #
coedge $-1 $87 $86 $238 $239 reversed $34 $-1 #
coedge $-1 $240 $241 $86 $149 forward $242 $-1 #
edge $-1 $243 -32.290349246683817 $154 -25.317739759567061 $148 $244 forward 7 unknown #
coedge $-1 $245 $229 $87 $151 forward $140 $-1 #
edge $-1 $153 25.317739759567061 $246 32.290349246683817 $150 $247 forward 7 unknown #
coedge $-1 $88 $145 $240 $248 reversed $83 $-1 #
vertex $-1 $151 $249 #
vertex $-1 $149 $250 #
straight-curve $-1 -54.121784262692501 0 8.7957217353955706 0 1 0 I I #
face $-1 $251 $252 $20 $-1 $253 reversed single #
loop $-1 $-1 $167 $90 #
plane-surface $-1 0 -39.276831920426247 0 0 1 0 0 0 1 forward_v I I I I #
coedge $-1 $254 $255 $256 $257 reversed $91 $-1 #
coedge $-1 $258 $93 $259 $260 reversed $57 $-1 #
coedge $-1 $93 $258 $261 $262 reversed $57 $-1 #
coedge $-1 $170 $169 $93 $163 forward $171 $-1 #
edge $-1 $263 -39.276831920426247 $264 39.276831920426247 $162 $265 forward 7 unknown #
coedge $-1 $95 $94 $255 $266 forward $37 $-1 #
coedge $-1 $267 $256 $94 $166 forward $252 $-1 #
edge $-1 $268 25.317739759567061 $172 32.290349246683817 $165 $269 forward 7 unknown #
coedge $-1 $270 $271 $95 $168 forward $157 $-1 #
edge $-1 $173 -32.290349246683817 $272 -25.317739759567061 $167 $273 forward 7 unknown #
coedge $-1 $162 $96 $271 $274 forward $171 $-1 #
coedge $-1 $96 $162 $267 $275 reversed $171 $-1 #
loop $-1 $-1 $96 $251 #
vertex $-1 $275 $276 #
vertex $-1 $274 $277 #
straight-curve $-1 61.094393749809257 0 8.7957217353955706 0 -1 0 I I #
face $-1 $-1 $278 $21 $-1 $279 forward single #
loop $-1 $-1 $186 $98 #
plane-surface $-1 0 39.276831920426247 0 0 -1 0 0 0 -1 forward_v I I I I #
coedge $-1 $280 $281 $102 $184 reversed $99 $-1 #
coedge $-1 $180 $101 $103 $185 reversed $61 $-1 #
coedge $-1 $101 $179 $282 $283 reversed $61 $-1 #
coedge $-1 $284 $104 $101 $182 forward $176 $-1 #
edge $-1 $188 -68.452071498710353 $285 -59.919024360384782 $181 $286 forward 7 unknown #
coedge $-1 $103 $102 $287 $288 reversed $40 $-1 #
edge $-1 $187 -78.553663840852508 $289 -67.57368392631291 $178 $290 forward 7 unknown #
edge $-1 $291 67.57368392631291 $188 78.553663840852508 $179 $292 forward 7 unknown #
coedge $-1 $104 $284 $280 $293 forward $176 $-1 #
vertex $-1 $105 $294 #
vertex $-1 $105 $295 #
straight-curve $-1 22.389921343490137 39.27683192042624 1.0394145467030249 -1 0 0 I I #
coedge $-1 $190 $190 $-1 $296 reversed $108 $-1 #
edge $-1 $297 0 $297 6.2831853071796004 $109 $298 forward 7 unknown #
vertex $-1 $112 $299 #
ellipse-curve $-1 40.77615344024646 35.821869349760433 5.3059381158658105 0 0.77714596973225614 0.62932038083071107 2.5 0 0 1 I I #
coedge $-1 $194 $194 $-1 $300 reversed $115 $-1 #
edge $-1 $301 0 $301 6.2831853071796004 $116 $302 forward 7 unknown #
vertex $-1 $119 $303 #
ellipse-curve $-1 48.783531933714087 35.821869349760433 5.3059381158658105 0 0.77714596973225614 0.62932038083071107 2.5 0 0 1 I I #
face $-1 $-1 $135 $18 $-1 $304 reversed single #
loop $-1 $-1 $214 $120 #
plane-surface $-1 0 39.276831920426247 0 0 -1 0 0 0 -1 forward_v I I I I #
coedge $-1 $305 $212 $215 $306 forward $121 $-1 #
coedge $-1 $218 $123 $124 $206 reversed $75 $-1 #
coedge $-1 $212 $305 $123 $204 reversed $121 $-1 #
edge $-1 $219 -9.5724616850285962 $307 9.5724616850285962 $203 $308 forward 7 unknown #
coedge $-1 $125 $124 $305 $309 forward $49 $-1 #
edge $-1 $210 -61.094393749809257 $307 61.094393749809257 $202 $310 forward 7 unknown #
coedge $-1 $215 $214 $125 $208 reversed $199 $-1 #
edge $-1 $311 -61.094393749809257 $209 61.094393749809257 $207 $312 forward 7 unknown #
vertex $-1 $127 $313 #
vertex $-1 $221 $314 #
straight-curve $-1 61.094393749809257 0 -9.5724616850285962 0 -1 0 I I #
coedge $-1 $201 $203 $128 $213 reversed $121 $-1 #
edge $-1 $216 -39.276831920426247 $219 39.276831920426247 $212 $315 forward 7 unknown #
coedge $-1 $207 $129 $134 $222 forward $199 $-1 #
coedge $-1 $129 $207 $201 $306 reversed $199 $-1 #
vertex $-1 $130 $316 #
straight-curve $-1 0 39.276831920426247 9.5724616850285962 -1 0 0 I I #
coedge $-1 $131 $202 $133 $221 reversed $75 $-1 #
vertex $-1 $213 $317 #
straight-curve $-1 0 -39.276831920426247 9.5724616850285962 1 0 0 I I #
edge $-1 $136 -9.5724616850285962 $210 9.5724616850285962 $133 $318 forward 7 unknown #
edge $-1 $137 -9.5724616850285962 $209 9.5724616850285962 $134 $319 forward 7 unknown #
point $-1 61.094393749809257 -39.276831920426247 9.5724616850285962 #
point $-1 61.094393749809257 39.276831920426247 9.5724616850285962 #
face $-1 $-1 $242 $19 $-1 $320 reversed single #
loop $-1 $-1 $321 $139 #
plane-surface $-1 -61.094393749809257 0 0 1 0 0 0 0 -1 forward_v I I I I #
coedge $-1 $229 $245 $143 $232 forward $140 $-1 #
coedge $-1 $150 $228 $142 $230 forward $140 $-1 #
edge $-1 $236 0.43599755977310473 $153 5.7184819703393455 $229 $322 forward 7 unknown #
coedge $-1 $144 $143 $321 $323 reversed $53 $-1 #
edge $-1 $324 -32.290349246683817 $236 -25.317739759567061 $228 $325 forward 7 unknown #
coedge $-1 $241 $240 $144 $234 forward $242 $-1 #
edge $-1 $235 25.317739759567061 $326 32.290349246683817 $233 $327 forward 7 unknown #
vertex $-1 $234 $328 #
vertex $-1 $232 $329 #
straight-curve $-1 -54.121784262692501 0 3.5132373248293298 0 -1 0 I I #
coedge $-1 $330 $331 $147 $239 forward $226 $-1 #
edge $-1 $246 -39.276831920426247 $243 39.276831920426247 $238 $332 forward 7 unknown #
coedge $-1 $233 $148 $152 $248 forward $242 $-1 #
coedge $-1 $148 $233 $330 $333 reversed $242 $-1 #
loop $-1 $-1 $233 $225 #
vertex $-1 $333 $334 #
straight-curve $-1 -28.804044503125439 39.276831920426247 8.7957217353955706 1 0 0 I I #
coedge $-1 $228 $150 $331 $335 forward $140 $-1 #
vertex $-1 $335 $336 #
straight-curve $-1 -28.804044503125439 -39.276831920426247 8.7957217353955706 -1 0 0 I I #
edge $-1 $154 -5.7184819703393455 $235 -0.43599755977310473 $240 $337 forward 7 unknown #
point $-1 -54.121784262692501 -39.276831920426247 8.7957217353955706 #
point $-1 -54.121784262692501 39.276831920426247 8.7957217353955706 #
face $-1 $-1 $171 $20 $-1 $338 reversed single #
loop $-1 $-1 $165 $156 #
plane-surface $-1 0 39.276831920426247 0 0 -1 0 0 0 -1 forward_v I I I I #
coedge $-1 $339 $159 $258 $340 reversed $91 $-1 #
coedge $-1 $159 $339 $164 $266 reversed $91 $-1 #
coedge $-1 $165 $261 $159 $257 forward $252 $-1 #
edge $-1 $341 0.43599755977310473 $268 5.7184819703393455 $256 $342 forward 7 unknown #
coedge $-1 $161 $160 $254 $340 forward $57 $-1 #
coedge $-1 $271 $270 $160 $260 forward $157 $-1 #
edge $-1 $343 25.317739759567061 $263 32.290349246683817 $259 $344 forward 7 unknown #
coedge $-1 $256 $267 $161 $262 forward $252 $-1 #
edge $-1 $264 -32.290349246683817 $341 -25.317739759567061 $261 $345 forward 7 unknown #
vertex $-1 $163 $346 #
vertex $-1 $163 $347 #
straight-curve $-1 61.094393749809257 0 3.5132373248293298 0 1 0 I I #
edge $-1 $268 -39.276831920426247 $272 39.276831920426247 $255 $348 forward 7 unknown #
coedge $-1 $261 $165 $170 $275 forward $252 $-1 #
vertex $-1 $166 $349 #
straight-curve $-1 28.804044503125439 39.276831920426247 8.7957217353955706 1 0 0 I I #
coedge $-1 $259 $167 $339 $350 forward $157 $-1 #
coedge $-1 $167 $259 $169 $274 reversed $157 $-1 #
vertex $-1 $168 $351 #
straight-curve $-1 28.804044503125439 -39.276831920426247 8.7957217353955706 -1 0 0 I I #
edge $-1 $173 -8.7957217353955706 $263 -3.5132373248293298 $169 $352 forward 7 unknown #
edge $-1 $172 -8.7957217353955706 $264 -3.5132373248293298 $170 $353 forward 7 unknown #
point $-1 61.094393749809257 39.276831920426247 8.7957217353955706 #
point $-1 61.094393749809257 -39.276831920426247 8.7957217353955706 #
loop $-1 $-1 $354 $175 #
plane-surface $-1 0 0 9.5724616850285962 0 0 1 1 0 0 forward_v I I I I #
coedge $-1 $281 $178 $186 $293 reversed $99 $-1 #
coedge $-1 $178 $280 $354 $355 reversed $99 $-1 #
coedge $-1 $287 $356 $180 $283 forward $278 $-1 #
edge $-1 $285 3.1231350937001991 $291 10.033060235031819 $282 $357 forward 7 unknown #
coedge $-1 $186 $181 $356 $358 reversed $176 $-1 #
vertex $-1 $283 $359 #
straight-curve $-1 35.437901111268047 39.276831920426247 69.491486045413382 0 0 1 I I #
coedge $-1 $354 $282 $183 $288 forward $278 $-1 #
edge $-1 $291 13.04797976777791 $289 31.731862919202364 $287 $360 forward 7 unknown #
vertex $-1 $355 $361 #
straight-curve $-1 54.121784262692501 -10.158589723546712 62.087077808324011 0 -0.62932038083071107 0.77714596973225614 I I #
vertex $-1 $288 $362 #
straight-curve $-1 35.437901111268047 -10.158589723546712 62.087077808324011 0 0.62932038083071107 -0.77714596973225614 I I #
edge $-1 $363 59.919024360384782 $187 68.452071498710353 $186 $364 forward 7 unknown #
point $-1 54.121784262692501 39.276831920426247 1.0394145467030214 #
point $-1 35.437901111268047 39.276831920426247 1.0394145467030214 #
edge $-1 $365 1 $365 0 $190 $-1 forward 7 unknown #
vertex $-1 $191 $366 #
ellipse-curve $-1 40.77615344024646 32.869179524576033 2.9148971047412253 0 0.77714596973225614 0.62932038083071107 2.5 0 0 1 I I #
point $-1 43.27615344024646 35.821869349760433 5.3059381158658132 #
edge $-1 $367 1 $367 0 $194 $-1 forward 7 unknown #
vertex $-1 $195 $368 #
ellipse-curve $-1 48.783531933714087 32.869179524576033 2.9148971047412253 0 0.77714596973225614 0.62932038083071107 2.5 0 0 1 I I #
point $-1 51.283531933714087 35.821869349760433 5.3059381158658132 #
plane-surface $-1 61.094393749809257 0 0 -1 0 0 0 0 1 forward_v I I I I #
coedge $-1 $203 $201 $205 $309 reversed $121 $-1 #
edge $-1 $216 -9.5724616850285962 $311 9.5724616850285962 $215 $369 forward 7 unknown #
vertex $-1 $309 $370 #
straight-curve $-1 -61.094393749809257 -39.276831920426247 0 0 0 -1 I I #
edge $-1 $307 -39.276831920426247 $311 39.276831920426247 $305 $371 forward 7 unknown #
straight-curve $-1 0 -39.276831920426247 -9.5724616850285962 -1 0 0 I I #
vertex $-1 $208 $372 #
straight-curve $-1 0 39.276831920426247 -9.5724616850285962 1 0 0 I I #
point $-1 61.094393749809257 39.276831920426247 -9.5724616850285962 #
point $-1 61.094393749809257 -39.276831920426247 -9.5724616850285962 #
straight-curve $-1 -61.094393749809257 0 9.5724616850285962 0 -1 0 I I #
point $-1 -61.094393749809257 39.276831920426247 9.5724616850285962 #
point $-1 -61.094393749809257 -39.276831920426247 9.5724616850285962 #
straight-curve $-1 61.094393749809257 -39.276831920426247 0 0 0 -1 I I #
straight-curve $-1 61.094393749809257 39.276831920426247 0 0 0 -1 I I #
plane-surface $-1 0 39.276831920426247 0 0 -1 0 0 0 -1 forward_v I I I I #
coedge $-1 $331 $330 $231 $323 forward $226 $-1 #
straight-curve $-1 -54.121784262692501 -39.276831920426247 3.0772397650562251 0 0 1 I I #
edge $-1 $326 -39.276831920426247 $324 39.276831920426247 $321 $373 forward 7 unknown #
vertex $-1 $232 $374 #
straight-curve $-1 -28.804044503125439 -39.276831920426247 3.5132373248293298 1 0 0 I I #
vertex $-1 $234 $375 #
straight-curve $-1 -28.804044503125439 39.276831920426247 3.5132373248293298 -1 0 0 I I #
point $-1 -54.121784262692501 39.276831920426247 3.5132373248293298 #
point $-1 -54.121784262692501 -39.276831920426247 3.5132373248293298 #
coedge $-1 $321 $238 $241 $333 forward $226 $-1 #
coedge $-1 $238 $321 $245 $335 reversed $226 $-1 #
straight-curve $-1 -61.094393749809257 0 8.7957217353955706 0 1 0 I I #
edge $-1 $243 -8.7957217353955706 $326 -3.5132373248293298 $241 $376 forward 7 unknown #
point $-1 -61.094393749809257 39.276831920426247 8.7957217353955706 #
edge $-1 $246 -8.7957217353955706 $324 -3.5132373248293298 $331 $377 forward 7 unknown #
point $-1 -61.094393749809257 -39.276831920426247 8.7957217353955706 #
straight-curve $-1 -54.121784262692501 39.276831920426247 3.0772397650562251 0 0 -1 I I #
plane-surface $-1 61.094393749809257 0 0 -1 0 0 0 0 1 forward_v I I I I #
coedge $-1 $255 $254 $270 $350 reversed $91 $-1 #
edge $-1 $343 -39.276831920426247 $341 39.276831920426247 $254 $378 forward 7 unknown #
vertex $-1 $262 $379 #
straight-curve $-1 54.121784262692501 39.276831920426247 3.0772397650562251 0 0 1 I I #
vertex $-1 $260 $380 #
straight-curve $-1 28.804044503125439 -39.276831920426247 3.5132373248293298 1 0 0 I I #
straight-curve $-1 28.804044503125439 39.276831920426247 3.5132373248293298 -1 0 0 I I #
point $-1 61.094393749809257 -39.276831920426247 3.5132373248293298 #
point $-1 61.094393749809257 39.276831920426247 3.5132373248293298 #
straight-curve $-1 54.121784262692501 0 8.7957217353955706 0 -1 0 I I #
point $-1 54.121784262692501 39.276831920426247 8.7957217353955706 #
edge $-1 $272 -5.7184819703393455 $343 -0.43599755977310473 $270 $381 forward 7 unknown #
point $-1 54.121784262692501 -39.276831920426247 8.7957217353955706 #
straight-curve $-1 61.094393749809257 -39.276831920426247 0 0 0 -1 I I #
straight-curve $-1 61.094393749809257 39.276831920426247 0 0 0 -1 I I #
coedge $-1 $356 $287 $281 $355 forward $278 $-1 #
edge $-1 $289 -10.033060235031819 $363 -3.1231350937001991 $354 $382 forward 7 unknown #
coedge $-1 $282 $354 $284 $358 forward $278 $-1 #
straight-curve $-1 35.437901111268047 42.399967014126446 9.5724616850285997 0 -1 0 I I #
edge $-1 $363 -54.121784262692501 $285 -35.437901111268047 $284 $383 forward 7 unknown #
point $-1 35.437901111268047 39.276831920426247 9.5724616850285962 #
straight-curve $-1 22.389921343490137 32.36690677909462 9.5724616850285997 1 0 0 I I #
point $-1 54.121784262692501 32.366906779094627 9.5724616850285926 #
point $-1 35.437901111268047 32.366906779094627 9.5724616850285926 #
vertex $-1 $358 $384 #
straight-curve $-1 54.121784262692501 39.276831920426247 69.491486045413382 0 0 -1 I I #
vertex $-1 $296 $385 #
point $-1 43.27615344024646 32.869179524576033 2.9148971047412253 #
vertex $-1 $300 $386 #
point $-1 51.283531933714087 32.869179524576033 2.9148971047412253 #
straight-curve $-1 -61.094393749809257 39.276831920426247 0 0 0 -1 I I #
point $-1 -61.094393749809257 -39.276831920426247 -9.5724616850285962 #
straight-curve $-1 -61.094393749809257 0 -9.5724616850285962 0 1 0 I I #
point $-1 -61.094393749809257 39.276831920426247 -9.5724616850285962 #
straight-curve $-1 -61.094393749809257 0 3.5132373248293298 0 -1 0 I I #
point $-1 -61.094393749809257 -39.276831920426247 3.5132373248293298 #
point $-1 -61.094393749809257 39.276831920426247 3.5132373248293298 #
straight-curve $-1 -61.094393749809257 39.276831920426247 0 0 0 -1 I I #
straight-curve $-1 -61.094393749809257 -39.276831920426247 0 0 0 -1 I I #
straight-curve $-1 54.121784262692501 0 3.5132373248293298 0 1 0 I I #
point $-1 54.121784262692501 39.276831920426247 3.5132373248293298 #
point $-1 54.121784262692501 -39.276831920426247 3.5132373248293298 #
straight-curve $-1 54.121784262692501 -39.276831920426247 3.0772397650562251 0 0 -1 I I #
straight-curve $-1 54.121784262692501 42.399967014126446 9.5724616850285997 0 1 0 I I #
straight-curve $-1 0 39.276831920426247 9.5724616850285962 -1 0 0 I I #
point $-1 54.121784262692501 39.276831920426247 9.5724616850285962 #
point $-1 40.77615344024646 30.926314600245394 1.3415961526644475 #
point $-1 48.783531933714087 30.926314600245394 1.3415961526644475 #
End-of-ACIS-data 