500 0 8 0           
7 Unknown 11 ACIS 5.0 NT 24 Fri Mar 26 17:45:57 1999 
-1 9.9999999999999995e-007 1e-010 
body $-1 $8 $-1 $9 #
body $-1 $10 $-1 $11 #
body $-1 $12 $-1 $13 #
body $-1 $14 $-1 $15 #
body $-1 $16 $-1 $17 #
body $-1 $18 $-1 $19 #
body $-1 $20 $-1 $21 #
body $-1 $22 $-1 $23 #
lump $-1 $-1 $24 $0 #
transform $-1 1 0 0 0 1 0 0 0 1 73.974425489059115 31.92434319279263 8.9593150160918764 1 rotate no_reflect no_shear #
lump $-1 $-1 $25 $1 #
transform $-1 1 0 0 0 1 0 0 0 1 73.974425489059115 31.92434319279263 8.9593150160918764 1 rotate no_reflect no_shear #
lump $-1 $-1 $26 $2 #
transform $-1 1 0 0 0 1 0 0 0 1 73.974425489059115 31.92434319279263 8.9593150160918764 1 rotate no_reflect no_shear #
lump $-1 $-1 $27 $3 #
transform $-1 1 0 0 0 1 0 0 0 1 73.974425489059115 31.92434319279263 8.9593150160918764 1 rotate no_reflect no_shear #
lump $-1 $-1 $28 $4 #
transform $-1 1 0 0 0 1 0 0 0 1 73.974425489059115 31.92434319279263 8.9593150160918764 1 rotate no_reflect no_shear #
lump $-1 $-1 $29 $5 #
transform $-1 1 0 0 0 1 0 0 0 1 73.974425489059115 31.92434319279263 8.9593150160918764 1 rotate no_reflect no_shear #
lump $-1 $-1 $30 $6 #
transform $-1 1 0 0 0 1 0 0 0 1 73.974425489059115 31.92434319279263 8.9593150160918764 1 rotate no_reflect no_shear #
lump $-1 $-1 $31 $7 #
transform $-1 1 0 0 0 1 0 0 0 1 73.974425489059115 31.92434319279263 8.9593150160918764 1 rotate no_reflect no_shear #
shell $-1 $-1 $-1 $32 $-1 $8 #
shell $-1 $-1 $-1 $33 $-1 $10 #
shell $-1 $-1 $-1 $34 $-1 $12 #
shell $-1 $-1 $-1 $35 $-1 $14 #
shell $-1 $-1 $-1 $36 $-1 $16 #
shell $-1 $-1 $-1 $37 $-1 $18 #
shell $-1 $-1 $-1 $38 $-1 $20 #
shell $-1 $-1 $-1 $39 $-1 $22 #
face $-1 $40 $41 $24 $-1 $42 forward single #
face $-1 $43 $44 $25 $-1 $45 forward single #
face $-1 $46 $47 $26 $-1 $48 reversed single #
face $-1 $49 $50 $27 $-1 $51 forward single #
face $-1 $52 $53 $28 $-1 $54 forward single #
face $-1 $55 $56 $29 $-1 $57 reversed single #
face $-1 $58 $59 $30 $-1 $60 forward single #
face $-1 $61 $62 $31 $-1 $63 forward single #
face $-1 $64 $65 $24 $-1 $66 reversed single #
loop $-1 $-1 $67 $32 #
plane-surface $-1 0 0 8.9593150160918764 0 0 1 1 0 0 forward_v I I I I #
face $-1 $68 $69 $25 $-1 $70 reversed single #
loop $-1 $-1 $71 $33 #
plane-surface $-1 -69.040546267576417 0 -5.7485953130992176 0 0 1 1 0 0 forward_v I I I I #
face $-1 $72 $73 $26 $-1 $74 reversed single #
loop $-1 $-1 $75 $34 #
plane-surface $-1 55.618535997379297 116.49484686406274 141.75250317727367 1 0 0 0 -0.81915205242281985 -0.57357642473473569 forward_v I I I I #
face $-1 $76 $77 $27 $-1 $78 forward single #
loop $-1 $79 $80 $35 #
cone-surface $-1 60.863075852144959 29.795495644697215 6.3553299733446549 0 -0.81915205242281985 -0.57357642473473569 1 0 0 1 I I 0 1 1 forward I I I I #
face $-1 $81 $82 $28 $-1 $83 forward single #
loop $-1 $84 $85 $36 #
cone-surface $-1 68.729885634293453 29.795495644697215 6.3553299733446549 0 -0.81915205242281985 -0.57357642473473569 1 0 0 1 I I 0 1 1 forward I I I I #
face $-1 $86 $87 $29 $-1 $88 reversed single #
loop $-1 $-1 $89 $37 #
plane-surface $-1 64.796480743219206 -31.924343192792662 4.5907476923792814 0 -0.81915205242281985 0.57357642473473569 1 0 0 forward_v I I I I #
face $-1 $90 $91 $30 $-1 $92 forward single #
loop $-1 $93 $94 $38 #
cone-surface $-1 60.863075852144959 -29.795495644697215 6.3553299733446602 0 0.81915205242281985 -0.57357642473473569 1 0 0 1 I I 0 1 1 forward I I I I #
face $-1 $95 $96 $31 $-1 $97 forward single #
loop $-1 $98 $99 $39 #
cone-surface $-1 68.729885634293453 -29.795495644697215 6.3553299733446602 0 0.81915205242281985 -0.57357642473473569 1 0 0 1 I I 0 1 1 forward I I I I #
face $-1 $100 $101 $24 $-1 $102 reversed single #
loop $-1 $-1 $103 $40 #
plane-surface $-1 0 0 -8.9593150160918764 0 0 1 1 0 0 forward_v I I I I #
coedge $-1 $104 $105 $106 $107 forward $41 $-1 #
face $-1 $108 $109 $25 $-1 $110 reversed single #
loop $-1 $-1 $111 $43 #
plane-surface $-1 -64.106667046093719 0 -7.353955164595547 -1 0 0 0 0 1 forward_v I I I I #
coedge $-1 $112 $113 $114 $115 forward $44 $-1 #
face $-1 $116 $117 $26 $-1 $118 reversed single #
loop $-1 $-1 $119 $46 #
plane-surface $-1 64.796480743219206 -4.6977580682607254 56.89253018963241 0 0.81915205242281985 0.57357642473473569 1 0 0 forward_v I I I I #
coedge $-1 $120 $121 $122 $123 reversed $47 $-1 #
face $-1 $-1 $124 $27 $-1 $125 forward single #
loop $-1 $126 $127 $49 #
cone-surface $-1 60.863075852144959 28.786523909848587 5.6488403800863782 0 -0.81915205242281985 -0.57357642473473569 0.5 0 0 1 I I -0.70710678118654691 0.70710678118654813 0.5 forward I I I I #
loop $-1 $-1 $128 $35 #
coedge $-1 $80 $80 $129 $130 reversed $50 $-1 #
face $-1 $-1 $131 $28 $-1 $132 forward single #
loop $-1 $133 $134 $52 #
cone-surface $-1 68.729885634293453 28.786523909848587 5.6488403800863782 0 -0.81915205242281985 -0.57357642473473569 0.5 0 0 1 I I -0.70710678118654691 0.70710678118654813 0.5 forward I I I I #
loop $-1 $-1 $135 $36 #
coedge $-1 $85 $85 $136 $137 reversed $53 $-1 #
face $-1 $138 $139 $29 $-1 $140 forward single #
loop $-1 $-1 $141 $55 #
plane-surface $-1 55.618535997379297 -153.11694812511612 89.450720680020538 1 0 0 0 0.81915205242281985 -0.57357642473473569 forward_v I I I I #
coedge $-1 $142 $143 $144 $145 reversed $56 $-1 #
face $-1 $-1 $146 $30 $-1 $147 forward single #
loop $-1 $148 $149 $58 #
cone-surface $-1 60.863075852144959 -28.786523909848587 5.6488403800863836 0 0.81915205242281985 -0.57357642473473569 0.5 0 0 1 I I -0.70710678118654691 0.70710678118654813 0.5 forward I I I I #
loop $-1 $-1 $150 $38 #
coedge $-1 $94 $94 $151 $152 reversed $59 $-1 #
face $-1 $-1 $153 $31 $-1 $154 forward single #
loop $-1 $155 $156 $61 #
cone-surface $-1 68.729885634293453 -28.786523909848587 5.6488403800863836 0 0.81915205242281985 -0.57357642473473569 0.5 0 0 1 I I -0.70710678118654691 0.70710678118654813 0.5 forward I I I I #
loop $-1 $-1 $157 $39 #
coedge $-1 $99 $99 $158 $159 reversed $62 $-1 #
face $-1 $160 $161 $24 $-1 $162 reversed single #
loop $-1 $-1 $163 $64 #
plane-surface $-1 0 -31.92434319279263 0 0 1 0 0 0 1 forward_v I I I I #
coedge $-1 $164 $165 $166 $167 forward $65 $-1 #
coedge $-1 $168 $67 $169 $170 forward $41 $-1 #
coedge $-1 $67 $168 $171 $172 forward $41 $-1 #
coedge $-1 $173 $174 $67 $107 reversed $175 $-1 #
edge $-1 $176 -31.92434319279263 $177 31.92434319279263 $106 $178 forward 7 unknown #
face $-1 $179 $180 $25 $-1 $181 reversed single #
loop $-1 $-1 $182 $68 #
plane-surface $-1 0 0 -8.9593150160918764 0 0 1 1 0 0 forward_v I I I I #
coedge $-1 $183 $114 $184 $185 reversed $69 $-1 #
coedge $-1 $186 $71 $187 $188 reversed $44 $-1 #
coedge $-1 $71 $186 $189 $190 reversed $44 $-1 #
coedge $-1 $111 $191 $71 $115 reversed $69 $-1 #
edge $-1 $192 -31.92434319279263 $193 31.92434319279263 $114 $194 forward 7 unknown #
face $-1 $195 $196 $26 $-1 $197 reversed single #
loop $-1 $-1 $198 $72 #
plane-surface $-1 73.974425489059115 0 0 -1 0 0 0 0 1 forward_v I I I I #
coedge $-1 $199 $200 $201 $202 reversed $73 $-1 #
coedge $-1 $121 $75 $203 $204 reversed $47 $-1 #
coedge $-1 $75 $120 $199 $205 reversed $47 $-1 #
coedge $-1 $201 $206 $75 $123 forward $207 $-1 #
edge $-1 $208 26.323080239238738 $209 29.381983918155079 $122 $210 forward 7 unknown #
loop $-1 $-1 $129 $76 #
plane-surface $-1 64.796480743219206 -4.6977580682607254 56.89253018963241 0 0.81915205242281985 0.57357642473473569 1 0 0 forward_v I I I I #
loop $-1 $-1 $211 $49 #
coedge $-1 $127 $127 $128 $212 reversed $77 $-1 #
coedge $-1 $128 $128 $127 $212 forward $79 $-1 #
coedge $-1 $129 $129 $80 $130 forward $124 $-1 #
edge $-1 $213 -1.0264253903780563e-015 $213 6.2831853071795996 $129 $214 forward 7 unknown #
loop $-1 $-1 $136 $81 #
plane-surface $-1 64.796480743219206 -4.6977580682607254 56.89253018963241 0 0.81915205242281985 0.57357642473473569 1 0 0 forward_v I I I I #
loop $-1 $-1 $215 $52 #
coedge $-1 $134 $134 $135 $216 reversed $82 $-1 #
coedge $-1 $135 $135 $134 $216 forward $84 $-1 #
coedge $-1 $136 $136 $85 $137 forward $131 $-1 #
edge $-1 $217 -1.0264253903780563e-015 $217 6.2831853071795996 $136 $218 forward 7 unknown #
face $-1 $219 $220 $29 $-1 $221 reversed single #
loop $-1 $-1 $144 $86 #
plane-surface $-1 0 0 8.9593150160918764 0 0 1 1 0 0 forward_v I I I I #
coedge $-1 $222 $223 $224 $225 reversed $87 $-1 #
coedge $-1 $226 $89 $227 $228 reversed $56 $-1 #
coedge $-1 $89 $226 $222 $229 forward $56 $-1 #
coedge $-1 $224 $230 $89 $145 forward $139 $-1 #
edge $-1 $231 -41.576185117449512 $232 -23.220295625769694 $144 $233 forward 7 unknown #
loop $-1 $-1 $151 $90 #
plane-surface $-1 64.796480743219206 -31.924343192792662 4.5907476923792814 0 -0.81915205242281985 0.57357642473473569 1 0 0 forward_v I I I I #
loop $-1 $-1 $234 $58 #
coedge $-1 $149 $149 $150 $235 reversed $91 $-1 #
coedge $-1 $150 $150 $149 $235 forward $93 $-1 #
coedge $-1 $151 $151 $94 $152 forward $146 $-1 #
edge $-1 $236 -5.7660727085713821e-016 $236 6.2831853071795996 $151 $237 forward 7 unknown #
loop $-1 $-1 $158 $95 #
plane-surface $-1 64.796480743219206 -31.924343192792662 4.5907476923792814 0 -0.81915205242281985 0.57357642473473569 1 0 0 forward_v I I I I #
loop $-1 $-1 $238 $61 #
coedge $-1 $156 $156 $157 $239 reversed $96 $-1 #
coedge $-1 $157 $157 $156 $239 forward $98 $-1 #
coedge $-1 $158 $158 $99 $159 forward $153 $-1 #
edge $-1 $240 -5.7660727085713821e-016 $240 6.2831853071795996 $158 $241 forward 7 unknown #
face $-1 $242 $243 $24 $-1 $244 reversed single #
loop $-1 $-1 $245 $100 #
plane-surface $-1 -73.974425489059115 0 0 1 0 0 0 0 -1 forward_v I I I I #
coedge $-1 $246 $171 $247 $248 forward $101 $-1 #
coedge $-1 $249 $103 $246 $250 forward $65 $-1 #
coedge $-1 $103 $249 $251 $252 forward $65 $-1 #
coedge $-1 $174 $173 $103 $167 reversed $175 $-1 #
edge $-1 $253 -31.92434319279263 $254 31.92434319279263 $166 $255 forward 7 unknown #
coedge $-1 $105 $104 $256 $257 forward $41 $-1 #
coedge $-1 $258 $259 $104 $170 reversed $243 $-1 #
edge $-1 $177 -73.974425489059115 $260 73.974425489059115 $169 $261 forward 7 unknown #
coedge $-1 $163 $262 $105 $172 reversed $101 $-1 #
edge $-1 $263 -73.974425489059115 $176 73.974425489059115 $171 $264 forward 7 unknown #
coedge $-1 $166 $106 $262 $265 forward $175 $-1 #
coedge $-1 $106 $166 $258 $266 reversed $175 $-1 #
loop $-1 $-1 $173 $242 #
vertex $-1 $107 $267 #
vertex $-1 $107 $268 #
straight-curve $-1 73.974425489059115 0 8.9593150160918764 0 1 0 I I #
face $-1 $269 $270 $25 $-1 $271 reversed single #
loop $-1 $-1 $184 $108 #
plane-surface $-1 0 -31.92434319279263 0 0 1 0 0 0 1 forward_v I I I I #
coedge $-1 $272 $273 $183 $274 forward $109 $-1 #
coedge $-1 $191 $111 $182 $274 reversed $69 $-1 #
coedge $-1 $189 $275 $111 $185 forward $180 $-1 #
edge $-1 $276 -5.2823374337941029 $192 -2.0716177308014441 $184 $277 forward 7 unknown #
coedge $-1 $113 $112 $278 $279 reversed $44 $-1 #
coedge $-1 $280 $281 $112 $188 forward $282 $-1 #
edge $-1 $283 -39.454152355270907 $193 -29.58639391230551 $187 $284 forward 7 unknown #
coedge $-1 $285 $184 $113 $190 forward $180 $-1 #
edge $-1 $192 29.58639391230551 $286 39.454152355270907 $189 $287 forward 7 unknown #
coedge $-1 $114 $183 $280 $288 reversed $69 $-1 #
vertex $-1 $190 $289 #
vertex $-1 $188 $290 #
straight-curve $-1 -64.106667046093719 0 -5.7485953130992176 0 1 0 I I #
face $-1 $-1 $207 $26 $-1 $291 forward single #
loop $-1 $-1 $292 $116 #
plane-surface $-1 0 31.92434319279263 0 0 -1 0 0 0 -1 forward_v I I I I #
coedge $-1 $293 $294 $200 $295 forward $117 $-1 #
coedge $-1 $296 $119 $121 $205 forward $73 $-1 #
coedge $-1 $119 $296 $198 $295 reversed $73 $-1 #
coedge $-1 $297 $122 $119 $202 forward $207 $-1 #
edge $-1 $209 23.220295625769694 $298 41.576185117449512 $201 $299 forward 7 unknown #
coedge $-1 $300 $292 $120 $204 forward $196 $-1 #
edge $-1 $301 -66.285503896257495 $208 -61.916936572544955 $203 $302 forward 7 unknown #
edge $-1 $209 58.515650460458055 $301 63.848686385585218 $121 $303 forward 7 unknown #
coedge $-1 $122 $297 $300 $304 forward $207 $-1 #
loop $-1 $-1 $201 $195 #
vertex $-1 $204 $305 #
vertex $-1 $123 $306 #
straight-curve $-1 55.618535997379297 58.247423432031368 8.9593150160918782 0 -1 0 I I #
coedge $-1 $211 $211 $-1 $307 reversed $126 $-1 #
edge $-1 $308 0 $308 6.2831853071796004 $127 $309 forward 7 unknown #
vertex $-1 $130 $310 #
ellipse-curve $-1 60.863075852144959 30.394891353334479 6.775031354235594 0 0.81915205242281985 0.57357642473473569 1 0 0 1 I I #
coedge $-1 $215 $215 $-1 $311 reversed $133 $-1 #
edge $-1 $312 0 $312 6.2831853071796004 $134 $313 forward 7 unknown #
vertex $-1 $137 $314 #
ellipse-curve $-1 68.729885634293453 30.394891353334479 6.775031354235594 0 0.81915205242281985 0.57357642473473569 1 0 0 1 I I #
face $-1 $-1 $315 $29 $-1 $316 reversed single #
loop $-1 $-1 $317 $138 #
plane-surface $-1 0 -31.92434319279263 0 0 1 0 0 0 1 forward_v I I I I #
coedge $-1 $223 $141 $143 $229 reversed $87 $-1 #
coedge $-1 $141 $222 $318 $319 reversed $87 $-1 #
coedge $-1 $320 $144 $141 $225 forward $139 $-1 #
edge $-1 $232 -47.69303454868178 $321 -44.634130869765428 $224 $322 forward 7 unknown #
coedge $-1 $143 $142 $317 $323 reversed $56 $-1 #
coedge $-1 $324 $325 $142 $228 forward $315 $-1 #
edge $-1 $326 -7.2752651180793926 $231 -1.9422291929522257 $227 $327 forward 7 unknown #
edge $-1 $328 5.5444987236098963e-014 $232 5.3330359251272226 $222 $329 forward 7 unknown #
coedge $-1 $144 $320 $324 $330 forward $139 $-1 #
vertex $-1 $228 $331 #
vertex $-1 $145 $332 #
straight-curve $-1 32.398240371609603 -28.865439513876289 8.9593150160918764 -1 0 0 I I #
coedge $-1 $234 $234 $-1 $333 reversed $148 $-1 #
edge $-1 $334 0 $334 6.2831853071796004 $149 $335 forward 7 unknown #
vertex $-1 $152 $336 #
ellipse-curve $-1 60.863075852144959 -30.394891353334465 6.7750313542355913 0 -0.81915205242281985 0.57357642473473569 1 0 0 1 I I #
coedge $-1 $238 $238 $-1 $337 reversed $155 $-1 #
edge $-1 $338 0 $338 6.2831853071796004 $156 $339 forward 7 unknown #
vertex $-1 $159 $340 #
ellipse-curve $-1 68.729885634293453 -30.394891353334465 6.7750313542355913 0 -0.81915205242281985 0.57357642473473569 1 0 0 1 I I #
face $-1 $-1 $175 $24 $-1 $341 reversed single #
loop $-1 $-1 $258 $160 #
plane-surface $-1 0 31.92434319279263 0 0 -1 0 0 0 -1 forward_v I I I I #
coedge $-1 $342 $256 $259 $343 forward $161 $-1 #
coedge $-1 $262 $163 $164 $250 reversed $101 $-1 #
coedge $-1 $256 $342 $163 $248 reversed $161 $-1 #
edge $-1 $263 -8.9593150160918764 $344 8.9593150160918764 $247 $345 forward 7 unknown #
coedge $-1 $165 $164 $342 $346 forward $65 $-1 #
edge $-1 $254 -73.974425489059115 $344 73.974425489059115 $246 $347 forward 7 unknown #
coedge $-1 $259 $258 $165 $252 reversed $243 $-1 #
edge $-1 $348 -73.974425489059115 $253 73.974425489059115 $251 $349 forward 7 unknown #
vertex $-1 $167 $350 #
vertex $-1 $265 $351 #
straight-curve $-1 73.974425489059115 0 -8.9593150160918764 0 -1 0 I I #
coedge $-1 $245 $247 $168 $257 reversed $161 $-1 #
edge $-1 $260 -31.92434319279263 $263 31.92434319279263 $256 $352 forward 7 unknown #
coedge $-1 $251 $169 $174 $266 forward $243 $-1 #
coedge $-1 $169 $251 $245 $343 reversed $243 $-1 #
vertex $-1 $170 $353 #
straight-curve $-1 0 31.92434319279263 8.9593150160918764 -1 0 0 I I #
coedge $-1 $171 $246 $173 $265 reversed $101 $-1 #
vertex $-1 $257 $354 #
straight-curve $-1 0 -31.92434319279263 8.9593150160918764 1 0 0 I I #
edge $-1 $176 -8.9593150160918764 $254 8.9593150160918764 $173 $355 forward 7 unknown #
edge $-1 $177 -8.9593150160918764 $253 8.9593150160918764 $174 $356 forward 7 unknown #
point $-1 73.974425489059115 -31.92434319279263 8.9593150160918764 #
point $-1 73.974425489059115 31.92434319279263 8.9593150160918764 #
face $-1 $-1 $282 $25 $-1 $357 reversed single #
loop $-1 $-1 $278 $179 #
plane-surface $-1 -73.974425489059115 0 0 1 0 0 0 0 -1 forward_v I I I I #
coedge $-1 $358 $182 $275 $359 forward $109 $-1 #
coedge $-1 $182 $358 $360 $361 forward $109 $-1 #
edge $-1 $362 -31.92434319279263 $276 31.92434319279263 $182 $363 forward 7 unknown #
coedge $-1 $184 $285 $272 $359 reversed $180 $-1 #
vertex $-1 $359 $364 #
straight-curve $-1 -64.106667046093719 -31.92434319279263 -3.6769775822977735 0 0 1 I I #
coedge $-1 $365 $366 $186 $279 forward $270 $-1 #
edge $-1 $286 -31.92434319279263 $283 31.92434319279263 $278 $367 forward 7 unknown #
coedge $-1 $360 $187 $191 $288 forward $282 $-1 #
coedge $-1 $187 $360 $365 $368 reversed $282 $-1 #
loop $-1 $-1 $280 $269 #
vertex $-1 $368 $369 #
straight-curve $-1 -34.520273133788208 31.92434319279263 -5.7485953130992176 1 0 0 I I #
coedge $-1 $275 $189 $366 $370 forward $180 $-1 #
vertex $-1 $370 $371 #
straight-curve $-1 -34.520273133788208 -31.92434319279263 -5.7485953130992176 -1 0 0 I I #
edge $-1 $193 2.0716177308014441 $362 5.2823374337941029 $280 $372 forward 7 unknown #
point $-1 -64.106667046093719 -31.92434319279263 -5.7485953130992176 #
point $-1 -64.106667046093719 31.92434319279263 -5.7485953130992176 #
plane-surface $-1 0 0 8.9593150160918764 0 0 1 1 0 0 forward_v I I I I #
coedge $-1 $203 $373 $296 $374 forward $196 $-1 #
coedge $-1 $294 $198 $373 $375 reversed $117 $-1 #
coedge $-1 $198 $293 $297 $376 reversed $117 $-1 #
edge $-1 $298 33.86657238574486 $377 39.199608310872023 $198 $378 forward 7 unknown #
coedge $-1 $200 $199 $292 $374 reversed $73 $-1 #
coedge $-1 $206 $201 $294 $376 forward $207 $-1 #
vertex $-1 $376 $379 #
straight-curve $-1 32.398240371609603 28.865439513876289 8.9593150160918782 1 0 0 I I #
coedge $-1 $373 $203 $206 $304 reversed $196 $-1 #
vertex $-1 $204 $380 #
straight-curve $-1 55.618535997379297 31.924343192792634 70.876251588636833 0 0 1 I I #
straight-curve $-1 55.618535997379297 -4.6977580682607254 56.89253018963241 0 0.57357642473473569 -0.81915205242281985 I I #
edge $-1 $381 -73.974425489059115 $208 -55.618535997379297 $300 $382 forward 7 unknown #
point $-1 55.618535997379297 31.92434319279263 8.9593150160918764 #
point $-1 55.618535997379297 28.865439513876289 8.9593150160918782 #
edge $-1 $383 1 $383 0 $211 $-1 forward 7 unknown #
vertex $-1 $212 $384 #
ellipse-curve $-1 60.863075852144959 29.196099936059998 5.9356285924537469 0 0.81915205242281985 0.57357642473473569 1 0 0 1 I I #
point $-1 61.863075852144959 30.394891353334433 6.7750313542355629 #
edge $-1 $385 1 $385 0 $215 $-1 forward 7 unknown #
vertex $-1 $216 $386 #
ellipse-curve $-1 68.729885634293453 29.196099936059998 5.9356285924537469 0 0.81915205242281985 0.57357642473473569 1 0 0 1 I I #
point $-1 69.729885634293453 30.394891353334433 6.7750313542355629 #
loop $-1 $-1 $227 $219 #
plane-surface $-1 73.974425489059115 0 0 -1 0 0 0 0 1 forward_v I I I I #
coedge $-1 $387 $318 $226 $323 forward $220 $-1 #
coedge $-1 $317 $388 $223 $319 forward $220 $-1 #
edge $-1 $321 35.766045323918391 $328 40.134612647630945 $318 $389 forward 7 unknown #
coedge $-1 $230 $224 $388 $390 forward $139 $-1 #
vertex $-1 $390 $391 #
straight-curve $-1 55.618535997379297 -76.558474062558062 8.9593150160918782 0 -1 0 I I #
edge $-1 $328 23.220295625769694 $326 41.576185117449512 $317 $392 forward 7 unknown #
coedge $-1 $325 $227 $230 $330 reversed $315 $-1 #
coedge $-1 $227 $324 $387 $393 forward $315 $-1 #
vertex $-1 $323 $394 #
straight-curve $-1 73.974425489059115 -27.75142263736732 10.550296045774211 0 0.57357642473473569 0.81915205242281985 I I #
vertex $-1 $323 $395 #
straight-curve $-1 55.618535997379297 -31.924343192792662 4.5907476923792814 0 0.57357642473473569 0.81915205242281985 I I #
edge $-1 $396 -31.92434319279263 $231 -28.865439513876286 $324 $397 forward 7 unknown #
point $-1 73.974425489059115 -28.865439513876286 8.9593150160918764 #
point $-1 55.618535997379297 -28.865439513876286 8.9593150160918764 #
edge $-1 $398 1 $398 0 $234 $-1 forward 7 unknown #
vertex $-1 $235 $399 #
ellipse-curve $-1 60.863075852144959 -29.196099936059998 5.9356285924537522 0 -0.81915205242281985 0.57357642473473569 1 0 0 1 I I #
point $-1 61.863075852144959 -30.394891353334433 6.7750313542355682 #
edge $-1 $400 1 $400 0 $238 $-1 forward 7 unknown #
vertex $-1 $239 $401 #
ellipse-curve $-1 68.729885634293453 -29.196099936059998 5.9356285924537522 0 -0.81915205242281985 0.57357642473473569 1 0 0 1 I I #
point $-1 69.729885634293453 -30.394891353334433 6.7750313542355682 #
plane-surface $-1 73.974425489059115 0 0 -1 0 0 0 0 1 forward_v I I I I #
coedge $-1 $247 $245 $249 $346 reversed $161 $-1 #
edge $-1 $260 -8.9593150160918764 $348 8.9593150160918764 $259 $402 forward 7 unknown #
vertex $-1 $346 $403 #
straight-curve $-1 -73.974425489059115 -31.92434319279263 0 0 0 -1 I I #
edge $-1 $344 -31.92434319279263 $348 31.92434319279263 $342 $404 forward 7 unknown #
straight-curve $-1 0 -31.92434319279263 -8.9593150160918764 -1 0 0 I I #
vertex $-1 $252 $405 #
straight-curve $-1 0 31.92434319279263 -8.9593150160918764 1 0 0 I I #
point $-1 73.974425489059115 31.92434319279263 -8.9593150160918764 #
point $-1 73.974425489059115 -31.92434319279263 -8.9593150160918764 #
straight-curve $-1 -73.974425489059115 0 8.9593150160918764 0 -1 0 I I #
point $-1 -73.974425489059115 31.92434319279263 8.9593150160918764 #
point $-1 -73.974425489059115 -31.92434319279263 8.9593150160918764 #
straight-curve $-1 73.974425489059115 -31.92434319279263 0 0 0 -1 I I #
straight-curve $-1 73.974425489059115 31.92434319279263 0 0 0 -1 I I #
plane-surface $-1 0 31.92434319279263 0 0 -1 0 0 0 -1 forward_v I I I I #
coedge $-1 $273 $272 $406 $407 forward $109 $-1 #
edge $-1 $276 64.106667046093719 $408 73.974425489059115 $275 $409 forward 7 unknown #
coedge $-1 $281 $280 $273 $361 reversed $282 $-1 #
edge $-1 $410 -73.974425489059115 $362 -64.106667046093719 $360 $411 forward 7 unknown #
vertex $-1 $288 $412 #
straight-curve $-1 -64.106667046093719 0 -8.9593150160918764 0 -1 0 I I #
point $-1 -64.106667046093719 -31.92434319279263 -8.9593150160918764 #
coedge $-1 $406 $278 $281 $368 forward $270 $-1 #
coedge $-1 $278 $406 $285 $370 reversed $270 $-1 #
straight-curve $-1 -73.974425489059115 0 -5.7485953130992176 0 1 0 I I #
edge $-1 $283 5.7485953130992176 $410 8.9593150160918764 $281 $413 forward 7 unknown #
point $-1 -73.974425489059115 31.92434319279263 -5.7485953130992176 #
edge $-1 $286 5.7485953130992176 $408 8.9593150160918764 $366 $414 forward 7 unknown #
point $-1 -73.974425489059115 -31.92434319279263 -5.7485953130992176 #
straight-curve $-1 -64.106667046093719 31.92434319279263 -3.6769775822977735 0 0 -1 I I #
coedge $-1 $292 $300 $293 $375 forward $196 $-1 #
edge $-1 $377 -41.576185117449512 $301 -23.220295625769694 $292 $415 forward 7 unknown #
edge $-1 $381 -8.9593150160918764 $377 -4.5907476923793311 $293 $416 forward 7 unknown #
edge $-1 $298 28.865439513876289 $381 31.92434319279263 $294 $417 forward 7 unknown #
vertex $-1 $295 $418 #
straight-curve $-1 73.974425489059115 9.4403720068406258 36.701187294400775 0 0.57357642473473569 -0.81915205242281985 I I #
point $-1 73.974425489059115 28.865439513876289 8.9593150160918782 #
point $-1 55.618535997379297 31.924343192792634 4.5907476923793311 #
vertex $-1 $376 $419 #
straight-curve $-1 0 31.92434319279263 8.9593150160918764 -1 0 0 I I #
vertex $-1 $307 $420 #
point $-1 61.863075852144959 29.196099936059998 5.9356285924537469 #
vertex $-1 $311 $421 #
point $-1 69.729885634293453 29.196099936059998 5.9356285924537469 #
coedge $-1 $388 $317 $325 $393 reversed $220 $-1 #
coedge $-1 $318 $387 $320 $390 reversed $220 $-1 #
straight-curve $-1 55.618535997379297 -31.924343192792634 44.725360340010269 0 0 -1 I I #
edge $-1 $321 55.618535997379297 $396 73.974425489059115 $388 $422 forward 7 unknown #
point $-1 55.618535997379297 -31.92434319279263 8.9593150160918764 #
straight-curve $-1 32.398240371609603 -31.92434319279263 4.5907476923793311 1 0 0 I I #
edge $-1 $396 -8.9593150160918764 $326 -4.5907476923793267 $325 $423 forward 7 unknown #
point $-1 73.974425489059115 -31.92434319279263 4.5907476923793267 #
point $-1 55.618535997379297 -31.92434319279263 4.5907476923793267 #
vertex $-1 $330 $424 #
straight-curve $-1 73.974425489059115 0 8.9593150160918764 0 1 0 I I #
vertex $-1 $333 $425 #
point $-1 61.863075852144959 -29.196099936059998 5.9356285924537522 #
vertex $-1 $337 $426 #
point $-1 69.729885634293453 -29.196099936059998 5.9356285924537522 #
straight-curve $-1 -73.974425489059115 31.92434319279263 0 0 0 -1 I I #
point $-1 -73.974425489059115 -31.92434319279263 -8.9593150160918764 #
straight-curve $-1 -73.974425489059115 0 -8.9593150160918764 0 1 0 I I #
point $-1 -73.974425489059115 31.92434319279263 -8.9593150160918764 #
coedge $-1 $366 $365 $358 $407 reversed $270 $-1 #
edge $-1 $408 -31.92434319279263 $410 31.92434319279263 $406 $427 forward 7 unknown #
vertex $-1 $407 $428 #
straight-curve $-1 0 -31.92434319279263 -8.9593150160918764 -1 0 0 I I #
vertex $-1 $361 $429 #
straight-curve $-1 0 31.92434319279263 -8.9593150160918764 1 0 0 I I #
point $-1 -64.106667046093719 31.92434319279263 -8.9593150160918764 #
straight-curve $-1 -73.974425489059115 31.92434319279263 0 0 0 -1 I I #
straight-curve $-1 -73.974425489059115 -31.92434319279263 0 0 0 -1 I I #
straight-curve $-1 32.398240371609603 31.924343192792634 4.5907476923793276 -1 0 0 I I #
straight-curve $-1 73.974425489059115 31.92434319279263 0 0 0 -1 I I #
straight-curve $-1 73.974425489059115 0 8.9593150160918764 0 1 0 I I #
point $-1 73.974425489059115 31.924343192792634 4.5907476923793311 #
point $-1 73.974425489059115 31.92434319279263 8.9593150160918764 #
point $-1 60.863075852144959 28.376947883637175 5.3620521677190096 #
point $-1 68.729885634293453 28.376947883637175 5.3620521677190096 #
straight-curve $-1 0 -31.92434319279263 8.9593150160918764 1 0 0 I I #
straight-curve $-1 73.974425489059115 -31.92434319279263 0 0 0 -1 I I #
point $-1 73.974425489059115 -31.92434319279263 8.9593150160918764 #
point $-1 60.863075852144959 -28.376947883637175 5.3620521677190149 #
point $-1 68.729885634293453 -28.376947883637175 5.3620521677190149 #
straight-curve $-1 -73.974425489059115 0 -8.9593150160918764 0 1 0 I I #
point $-1 -73.974425489059115 -31.92434319279263 -8.9593150160918764 #
point $-1 -73.974425489059115 31.92434319279263 -8.9593150160918764 #
End-of-ACIS-data 