500 0 11 0           
7 Unknown 11 ACIS 5.0 NT 24 Fri Mar 26 19:10:53 1999 
-1 9.9999999999999995e-007 1e-010 
body $-1 $11 $-1 $12 #
body $-1 $13 $-1 $14 #
body $-1 $15 $-1 $16 #
body $-1 $17 $-1 $18 #
body $-1 $19 $-1 $20 #
body $-1 $21 $-1 $22 #
body $-1 $23 $-1 $24 #
body $-1 $25 $-1 $26 #
body $-1 $27 $-1 $28 #
body $-1 $29 $-1 $30 #
body $-1 $31 $-1 $32 #
lump $-1 $-1 $33 $0 #
transform $-1 1 0 0 0 1 0 0 0 1 45.778984954374828 19.587012401649488 4.3546088425408556 1 rotate no_reflect no_shear #
lump $-1 $-1 $34 $1 #
transform $-1 1 0 0 0 1 0 0 0 1 45.778984954374828 19.587012401649488 4.3546088425408556 1 rotate no_reflect no_shear #
lump $-1 $-1 $35 $2 #
transform $-1 1 0 0 0 1 0 0 0 1 45.778984954374828 19.587012401649488 4.3546088425408556 1 rotate no_reflect no_shear #
lump $-1 $-1 $36 $3 #
transform $-1 1 0 0 0 1 0 0 0 1 45.778984954374828 19.587012401649488 4.3546088425408556 1 rotate no_reflect no_shear #
lump $-1 $-1 $37 $4 #
transform $-1 1 0 0 0 1 0 0 0 1 45.778984954374828 19.587012401649488 4.3546088425408556 1 rotate no_reflect no_shear #
lump $-1 $-1 $38 $5 #
transform $-1 1 0 0 0 1 0 0 0 1 45.778984954374828 19.587012401649488 4.3546088425408556 1 rotate no_reflect no_shear #
lump $-1 $-1 $39 $6 #
transform $-1 1 0 0 0 1 0 0 0 1 45.778984954374828 19.587012401649488 4.3546088425408556 1 rotate no_reflect no_shear #
lump $-1 $-1 $40 $7 #
transform $-1 1 0 0 0 1 0 0 0 1 45.778984954374828 19.587012401649488 4.3546088425408556 1 rotate no_reflect no_shear #
lump $-1 $-1 $41 $8 #
transform $-1 1 0 0 0 1 0 0 0 1 45.778984954374828 19.587012401649488 4.3546088425408556 1 rotate no_reflect no_shear #
lump $-1 $-1 $42 $9 #
transform $-1 1 0 0 0 1 0 0 0 1 45.778984954374828 19.587012401649488 4.3546088425408556 1 rotate no_reflect no_shear #
lump $-1 $-1 $43 $10 #
transform $-1 1 0 0 0 1 0 0 0 1 45.778984954374828 19.587012401649488 4.3546088425408556 1 rotate no_reflect no_shear #
shell $-1 $-1 $-1 $44 $-1 $11 #
shell $-1 $-1 $-1 $45 $-1 $13 #
shell $-1 $-1 $-1 $46 $-1 $15 #
shell $-1 $-1 $-1 $47 $-1 $17 #
shell $-1 $-1 $-1 $48 $-1 $19 #
shell $-1 $-1 $-1 $49 $-1 $21 #
shell $-1 $-1 $-1 $50 $-1 $23 #
shell $-1 $-1 $-1 $51 $-1 $25 #
shell $-1 $-1 $-1 $52 $-1 $27 #
shell $-1 $-1 $-1 $53 $-1 $29 #
shell $-1 $-1 $-1 $54 $-1 $31 #
face $-1 $55 $56 $33 $-1 $57 forward single #
face $-1 $58 $59 $34 $-1 $60 reversed single #
face $-1 $61 $62 $35 $-1 $63 reversed single #
face $-1 $64 $65 $36 $-1 $66 forward single #
face $-1 $67 $68 $37 $-1 $69 reversed single #
face $-1 $70 $71 $38 $-1 $72 forward single #
face $-1 $73 $74 $39 $-1 $75 reversed single #
face $-1 $76 $77 $40 $-1 $78 forward single #
face $-1 $79 $80 $41 $-1 $81 reversed single #
face $-1 $82 $83 $42 $-1 $84 forward single #
face $-1 $85 $86 $43 $-1 $87 forward single #
face $-1 $88 $89 $33 $-1 $90 reversed single #
loop $-1 $-1 $91 $44 #
plane-surface $-1 0 0 4.3546088425408556 0 0 1 1 0 0 forward_v I I I I #
face $-1 $92 $93 $34 $-1 $94 reversed single #
loop $-1 $-1 $95 $45 #
plane-surface $-1 0 -16.784060714446095 1.3546088425408556 0 0 1 1 0 0 forward_v I I I I #
face $-1 $96 $97 $35 $-1 $98 reversed single #
loop $-1 $-1 $99 $46 #
plane-surface $-1 -124.25948359616868 -9.1493785827748404 47.665032067946342 0 1 0 -0.85716730853699208 0 0.51503806187062418 forward_v I I I I #
face $-1 $100 $101 $36 $-1 $102 forward single #
loop $-1 $103 $104 $47 #
cone-surface $-1 -43.734885165892791 -5.970556900193408 1.8978436933615463 0.85716730853699208 0 -0.51503806187062418 0.51503806187062418 0 0.85716730853699208 1 I I 0 1 1 forward I I I I #
face $-1 $105 $106 $37 $-1 $107 reversed single #
loop $-1 $-1 $108 $48 #
plane-surface $-1 -124.25948359616868 -0.37586999537804289 47.665032067946342 0 1 0 -0.85716730853699208 0 0.51503806187062418 forward_v I I I I #
face $-1 $109 $110 $38 $-1 $111 forward single #
loop $-1 $112 $113 $49 #
cone-surface $-1 -43.734885165892791 2.8029516872033895 1.8978436933615463 0.85716730853699208 0 -0.51503806187062418 0.51503806187062418 0 0.85716730853699208 1 I I 0 1 1 forward I I I I #
face $-1 $114 $115 $39 $-1 $116 reversed single #
loop $-1 $-1 $117 $50 #
plane-surface $-1 -124.25948359616868 8.3976385920187546 47.665032067946342 0 1 0 -0.85716730853699208 0 0.51503806187062418 forward_v I I I I #
face $-1 $118 $119 $40 $-1 $120 forward single #
loop $-1 $121 $122 $51 #
cone-surface $-1 -43.734885165892791 11.576460274600187 1.8978436933615463 0.85716730853699208 0 -0.51503806187062418 0.51503806187062418 0 0.85716730853699208 1 I I 0 1 1 forward I I I I #
face $-1 $123 $124 $41 $-1 $125 reversed single #
loop $-1 $-1 $126 $52 #
plane-surface $-1 70.485416881645364 -4.9095549900944597 127.29699666129765 0 -1 0 -0.82903758062907751 0 -0.55919289150049634 forward_v I I I I #
face $-1 $127 $128 $42 $-1 $129 forward single #
loop $-1 $130 $131 $53 #
cone-surface $-1 42.82410329444162 -11.38923644520035 1.2275159418408306 -0.82903758062907751 0 -0.55919289150049634 0.55919289150049634 0 -0.82903758062907751 1 I I 0 1 1 forward I I I I #
face $-1 $132 $133 $43 $-1 $134 forward single #
loop $-1 $135 $136 $54 #
cone-surface $-1 42.82410329444162 -7.5014275721368158 1.2275159418408306 -0.82903758062907751 0 -0.55919289150049634 0.55919289150049634 0 -0.82903758062907751 1 I I 0 1 1 forward I I I I #
face $-1 $137 $138 $33 $-1 $139 reversed single #
loop $-1 $-1 $140 $55 #
plane-surface $-1 0 0 -4.3546088425408556 0 0 1 1 0 0 forward_v I I I I #
coedge $-1 $141 $142 $143 $144 forward $56 $-1 #
face $-1 $145 $146 $34 $-1 $147 reversed single #
loop $-1 $-1 $148 $58 #
plane-surface $-1 0 -13.981109027242704 2.8546088425408556 0 -1 0 0 0 -1 forward_v I I I I #
coedge $-1 $149 $150 $151 $152 reversed $59 $-1 #
face $-1 $153 $154 $35 $-1 $155 reversed single #
loop $-1 $-1 $156 $61 #
plane-surface $-1 -45.77898495437482 -5.970556900193408 0.50919269733498851 -0.85716730853699208 0 0.51503806187062418 0.51503806187062418 0 0.85716730853699208 forward_v I I I I #
coedge $-1 $157 $158 $159 $160 reversed $62 $-1 #
face $-1 $-1 $161 $36 $-1 $162 forward single #
loop $-1 $163 $164 $64 #
cone-surface $-1 -42.417481246047302 -5.970556900193408 1.1062675858498556 0.85716730853699208 0 -0.51503806187062418 0.25751903093531209 0 0.42858365426849604 1 I I -0.70710678118654746 0.70710678118654746 0.5 forward I I I I #
loop $-1 $-1 $165 $47 #
coedge $-1 $104 $104 $166 $167 reversed $65 $-1 #
face $-1 $168 $169 $37 $-1 $170 reversed single #
loop $-1 $-1 $171 $67 #
plane-surface $-1 -45.77898495437482 2.8029516872033895 0.50919269733498851 -0.85716730853699208 0 0.51503806187062418 0.51503806187062418 0 0.85716730853699208 forward_v I I I I #
coedge $-1 $172 $173 $174 $175 reversed $68 $-1 #
face $-1 $-1 $176 $38 $-1 $177 forward single #
loop $-1 $178 $179 $70 #
cone-surface $-1 -42.417481246047302 2.8029516872033895 1.1062675858498556 0.85716730853699208 0 -0.51503806187062418 0.25751903093531209 0 0.42858365426849604 1 I I -0.70710678118654746 0.70710678118654746 0.5 forward I I I I #
loop $-1 $-1 $180 $49 #
coedge $-1 $113 $113 $181 $182 reversed $71 $-1 #
face $-1 $183 $184 $39 $-1 $185 reversed single #
loop $-1 $-1 $186 $73 #
plane-surface $-1 -45.77898495437482 11.576460274600187 0.50919269733498851 -0.85716730853699208 0 0.51503806187062418 0.51503806187062418 0 0.85716730853699208 forward_v I I I I #
coedge $-1 $187 $188 $189 $190 reversed $74 $-1 #
face $-1 $-1 $191 $40 $-1 $192 forward single #
loop $-1 $193 $194 $76 #
cone-surface $-1 -42.417481246047302 11.576460274600187 1.1062675858498556 0.85716730853699208 0 -0.51503806187062418 0.25751903093531209 0 0.42858365426849604 1 I I -0.70710678118654746 0.70710678118654746 0.5 forward I I I I #
loop $-1 $-1 $195 $51 #
coedge $-1 $122 $122 $196 $197 reversed $77 $-1 #
face $-1 $198 $199 $41 $-1 $200 forward single #
loop $-1 $-1 $201 $79 #
plane-surface $-1 -5.4195809788143237 -9.4453320086685828 76.098430728108497 0.82903758062907751 0 0.55919289150049634 0.55919289150049634 0 -0.82903758062907751 forward_v I I I I #
coedge $-1 $202 $203 $204 $205 reversed $80 $-1 #
face $-1 $-1 $206 $42 $-1 $207 forward single #
loop $-1 $208 $209 $82 #
cone-surface $-1 40.858077118057672 -11.38923644520035 -0.098585417163405964 -0.82903758062907751 0 -0.55919289150049634 0.27959644575024817 0 -0.41451879031453875 1 I I -0.70710678118654746 0.70710678118654746 0.5 forward I I I I #
loop $-1 $-1 $210 $53 #
coedge $-1 $131 $131 $211 $212 reversed $83 $-1 #
face $-1 $-1 $213 $43 $-1 $214 forward single #
loop $-1 $215 $216 $85 #
cone-surface $-1 40.858077118057672 -7.5014275721368158 -0.098585417163405964 -0.82903758062907751 0 -0.55919289150049634 0.27959644575024817 0 -0.41451879031453875 1 I I -0.70710678118654746 0.70710678118654746 0.5 forward I I I I #
loop $-1 $-1 $217 $54 #
coedge $-1 $136 $136 $218 $219 reversed $86 $-1 #
face $-1 $220 $221 $33 $-1 $222 reversed single #
loop $-1 $-1 $223 $88 #
plane-surface $-1 0 -19.587012401649488 0 0 1 0 0 0 1 forward_v I I I I #
coedge $-1 $224 $225 $226 $227 forward $89 $-1 #
coedge $-1 $228 $91 $229 $230 forward $56 $-1 #
coedge $-1 $91 $228 $231 $232 forward $56 $-1 #
coedge $-1 $233 $234 $91 $144 reversed $235 $-1 #
edge $-1 $236 -19.587012401649488 $237 19.587012401649488 $143 $238 forward 7 unknown #
face $-1 $239 $240 $34 $-1 $241 reversed single #
loop $-1 $-1 $242 $92 #
plane-surface $-1 -45.778984954374828 0 0 1 0 0 0 0 -1 forward_v I I I I #
coedge $-1 $243 $244 $245 $246 reversed $93 $-1 #
coedge $-1 $247 $95 $248 $249 reversed $59 $-1 #
coedge $-1 $95 $247 $243 $250 forward $59 $-1 #
coedge $-1 $245 $251 $95 $152 forward $252 $-1 #
edge $-1 $253 -11.194982044426441 $254 -5.5890786700196564 $151 $255 forward 7 unknown #
face $-1 $256 $257 $35 $-1 $258 forward single #
loop $-1 $-1 $259 $96 #
plane-surface $-1 -124.25948359616868 -2.7917352176119756 47.665032067946342 0 -1 0 0.85716730853699208 0 -0.51503806187062418 forward_v I I I I #
coedge $-1 $260 $261 $262 $263 reversed $97 $-1 #
coedge $-1 $158 $99 $264 $265 reversed $62 $-1 #
coedge $-1 $99 $157 $260 $266 reversed $62 $-1 #
coedge $-1 $262 $267 $99 $160 forward $257 $-1 #
edge $-1 $268 16.350756843709512 $269 18.661315889519614 $159 $270 forward 7 unknown #
loop $-1 $-1 $166 $100 #
plane-surface $-1 -45.77898495437482 -5.970556900193408 0.50919269733498851 -0.85716730853699208 0 0.51503806187062418 0.51503806187062418 0 0.85716730853699208 forward_v I I I I #
loop $-1 $-1 $271 $64 #
coedge $-1 $164 $164 $165 $272 reversed $101 $-1 #
coedge $-1 $165 $165 $164 $272 forward $103 $-1 #
coedge $-1 $166 $166 $104 $167 forward $161 $-1 #
edge $-1 $273 0 $273 6.2831853071796004 $166 $274 forward 7 unknown #
face $-1 $275 $276 $37 $-1 $277 forward single #
loop $-1 $-1 $278 $105 #
plane-surface $-1 -124.25948359616868 5.9817733697848219 47.665032067946342 0 -1 0 0.85716730853699208 0 -0.51503806187062418 forward_v I I I I #
coedge $-1 $279 $280 $281 $282 reversed $106 $-1 #
coedge $-1 $173 $108 $283 $284 reversed $68 $-1 #
coedge $-1 $108 $172 $279 $285 reversed $68 $-1 #
coedge $-1 $281 $286 $108 $175 forward $276 $-1 #
edge $-1 $287 16.350756843709512 $288 18.661315889519614 $174 $289 forward 7 unknown #
loop $-1 $-1 $181 $109 #
plane-surface $-1 -45.77898495437482 2.8029516872033895 0.50919269733498851 -0.85716730853699208 0 0.51503806187062418 0.51503806187062418 0 0.85716730853699208 forward_v I I I I #
loop $-1 $-1 $290 $70 #
coedge $-1 $179 $179 $180 $291 reversed $110 $-1 #
coedge $-1 $180 $180 $179 $291 forward $112 $-1 #
coedge $-1 $181 $181 $113 $182 forward $176 $-1 #
edge $-1 $292 0 $292 6.2831853071796004 $181 $293 forward 7 unknown #
face $-1 $294 $295 $39 $-1 $296 forward single #
loop $-1 $-1 $297 $114 #
plane-surface $-1 -124.25948359616868 14.755281957181619 47.665032067946342 0 -1 0 0.85716730853699208 0 -0.51503806187062418 forward_v I I I I #
coedge $-1 $298 $299 $300 $301 reversed $115 $-1 #
coedge $-1 $188 $117 $302 $303 reversed $74 $-1 #
coedge $-1 $117 $187 $298 $304 reversed $74 $-1 #
coedge $-1 $300 $305 $117 $190 forward $295 $-1 #
edge $-1 $306 16.350756843709512 $307 18.661315889519614 $189 $308 forward 7 unknown #
loop $-1 $-1 $196 $118 #
plane-surface $-1 -45.77898495437482 11.576460274600187 0.50919269733498851 -0.85716730853699208 0 0.51503806187062418 0.51503806187062418 0 0.85716730853699208 forward_v I I I I #
loop $-1 $-1 $309 $76 #
coedge $-1 $194 $194 $195 $310 reversed $119 $-1 #
coedge $-1 $195 $195 $194 $310 forward $121 $-1 #
coedge $-1 $196 $196 $122 $197 forward $191 $-1 #
edge $-1 $311 0 $311 6.2831853071796004 $196 $312 forward 7 unknown #
face $-1 $313 $314 $41 $-1 $315 forward single #
loop $-1 $-1 $316 $123 #
plane-surface $-1 0 -13.981109027242704 2.8546088425408556 0 -1 0 0 0 -1 forward_v I I I I #
coedge $-1 $317 $318 $319 $320 reversed $124 $-1 #
coedge $-1 $203 $126 $321 $322 reversed $80 $-1 #
coedge $-1 $126 $202 $317 $323 reversed $80 $-1 #
coedge $-1 $319 $324 $126 $205 forward $314 $-1 #
edge $-1 $325 -10.536276513552146 $326 -7.7295279658245306 $204 $327 forward 7 unknown #
loop $-1 $-1 $211 $127 #
plane-surface $-1 -5.4195809788143237 -9.4453320086685828 76.098430728108497 0.82903758062907751 0 0.55919289150049634 0.55919289150049634 0 -0.82903758062907751 forward_v I I I I #
loop $-1 $-1 $328 $82 #
coedge $-1 $209 $209 $210 $329 reversed $128 $-1 #
coedge $-1 $210 $210 $209 $329 forward $130 $-1 #
coedge $-1 $211 $211 $131 $212 forward $206 $-1 #
edge $-1 $330 0 $330 6.2831853071796004 $211 $331 forward 7 unknown #
loop $-1 $-1 $218 $132 #
plane-surface $-1 -5.4195809788143237 -9.4453320086685828 76.098430728108497 0.82903758062907751 0 0.55919289150049634 0.55919289150049634 0 -0.82903758062907751 forward_v I I I I #
loop $-1 $-1 $332 $85 #
coedge $-1 $216 $216 $217 $333 reversed $133 $-1 #
coedge $-1 $217 $217 $216 $333 forward $135 $-1 #
coedge $-1 $218 $218 $136 $219 forward $213 $-1 #
edge $-1 $334 0 $334 6.2831853071796004 $218 $335 forward 7 unknown #
face $-1 $336 $337 $33 $-1 $338 reversed single #
loop $-1 $-1 $339 $137 #
plane-surface $-1 -45.778984954374828 0 0 1 0 0 0 0 -1 forward_v I I I I #
coedge $-1 $340 $231 $341 $342 forward $138 $-1 #
coedge $-1 $343 $140 $340 $344 forward $89 $-1 #
coedge $-1 $140 $343 $345 $346 forward $89 $-1 #
coedge $-1 $234 $233 $140 $227 reversed $235 $-1 #
edge $-1 $347 -19.587012401649488 $348 19.587012401649488 $226 $349 forward 7 unknown #
coedge $-1 $142 $141 $350 $351 forward $56 $-1 #
coedge $-1 $352 $353 $141 $230 reversed $337 $-1 #
edge $-1 $237 -45.778984954374828 $354 45.778984954374828 $229 $355 forward 7 unknown #
coedge $-1 $223 $356 $142 $232 reversed $138 $-1 #
edge $-1 $357 -45.778984954374828 $236 45.778984954374828 $231 $358 forward 7 unknown #
coedge $-1 $226 $143 $356 $359 forward $235 $-1 #
coedge $-1 $143 $226 $352 $360 reversed $235 $-1 #
loop $-1 $-1 $233 $336 #
vertex $-1 $144 $361 #
vertex $-1 $144 $362 #
straight-curve $-1 45.778984954374828 0 4.3546088425408556 0 1 0 I I #
face $-1 $363 $364 $34 $-1 $365 forward single #
loop $-1 $-1 $248 $145 #
plane-surface $-1 0 -19.587012401649488 0 0 1 0 0 0 1 forward_v I I I I #
coedge $-1 $366 $367 $368 $369 forward $146 $-1 #
coedge $-1 $368 $148 $150 $250 reversed $93 $-1 #
coedge $-1 $148 $368 $370 $371 reversed $93 $-1 #
coedge $-1 $372 $151 $148 $246 forward $252 $-1 #
edge $-1 $254 -0.072695578729572219 $373 2.9273044212704278 $245 $374 forward 7 unknown #
coedge $-1 $150 $149 $366 $375 reversed $59 $-1 #
coedge $-1 $376 $377 $149 $249 forward $240 $-1 #
edge $-1 $378 -45.778984954374828 $253 45.778984954374828 $248 $379 forward 7 unknown #
edge $-1 $380 -45.778984954374828 $254 45.778984954374828 $243 $381 forward 7 unknown #
coedge $-1 $151 $372 $376 $382 forward $252 $-1 #
loop $-1 $-1 $245 $363 #
vertex $-1 $249 $383 #
vertex $-1 $152 $384 #
straight-curve $-1 45.778984954374828 -8.3920303572230477 1.3546088425408556 0 1 0 I I #
face $-1 $-1 $385 $35 $-1 $386 reversed single #
loop $-1 $-1 $159 $153 #
plane-surface $-1 0 0 4.3546088425408556 0 0 1 1 0 0 forward_v I I I I #
coedge $-1 $387 $388 $389 $390 reversed $154 $-1 #
coedge $-1 $391 $156 $158 $266 forward $97 $-1 #
coedge $-1 $156 $391 $387 $392 forward $97 $-1 #
coedge $-1 $389 $159 $156 $263 forward $257 $-1 #
edge $-1 $269 -6.1641001326781364 $393 0.19354323248472838 $262 $394 forward 7 unknown #
coedge $-1 $395 $396 $157 $265 forward $385 $-1 #
edge $-1 $397 -23.323323336638193 $268 -19.477907191432315 $264 $398 forward 7 unknown #
edge $-1 $269 -4.4861908601824796 $397 1.3842187171284396e-014 $158 $399 forward 7 unknown #
coedge $-1 $159 $389 $395 $400 forward $257 $-1 #
vertex $-1 $265 $401 #
vertex $-1 $160 $402 #
straight-curve $-1 -62.129741798084339 -9.1493785827748404 4.3546088425408556 1 0 0 I I #
coedge $-1 $271 $271 $-1 $403 reversed $163 $-1 #
edge $-1 $404 0 $404 6.2831853071796004 $164 $405 forward 7 unknown #
vertex $-1 $167 $406 #
ellipse-curve $-1 -44.623705431469773 -5.970556900193408 2.4319007699379194 -0.85716730853699208 0 0.51503806187062418 0.51503806187062418 0 0.85716730853699208 1 I I #
face $-1 $-1 $407 $37 $-1 $408 reversed single #
loop $-1 $-1 $174 $168 #
plane-surface $-1 0 0 4.3546088425408556 0 0 1 1 0 0 forward_v I I I I #
coedge $-1 $409 $410 $411 $412 reversed $169 $-1 #
coedge $-1 $413 $171 $173 $285 forward $106 $-1 #
coedge $-1 $171 $413 $409 $414 forward $106 $-1 #
coedge $-1 $411 $174 $171 $282 forward $276 $-1 #
edge $-1 $288 -1.7773458389797376 $415 4.5802975261831271 $281 $416 forward 7 unknown #
coedge $-1 $417 $418 $172 $284 forward $407 $-1 #
edge $-1 $419 -23.323323336638193 $287 -19.477907191432315 $283 $420 forward 7 unknown #
edge $-1 $288 -4.4861908601824796 $419 1.3842187171284396e-014 $173 $421 forward 7 unknown #
coedge $-1 $174 $411 $417 $422 forward $276 $-1 #
vertex $-1 $175 $423 #
vertex $-1 $175 $424 #
straight-curve $-1 -62.129741798084339 -0.37586999537804289 4.3546088425408556 1 0 0 I I #
coedge $-1 $290 $290 $-1 $425 reversed $178 $-1 #
edge $-1 $426 0 $426 6.2831853071796004 $179 $427 forward 7 unknown #
vertex $-1 $182 $428 #
ellipse-curve $-1 -44.623705431469773 2.8029516872033895 2.4319007699379194 -0.85716730853699208 0 0.51503806187062418 0.51503806187062418 0 0.85716730853699208 1 I I #
face $-1 $-1 $429 $39 $-1 $430 reversed single #
loop $-1 $-1 $189 $183 #
plane-surface $-1 0 0 4.3546088425408556 0 0 1 1 0 0 forward_v I I I I #
coedge $-1 $431 $432 $433 $434 reversed $184 $-1 #
coedge $-1 $435 $186 $188 $304 forward $115 $-1 #
coedge $-1 $186 $435 $431 $436 forward $115 $-1 #
coedge $-1 $433 $189 $186 $301 forward $295 $-1 #
edge $-1 $307 2.6094084547186611 $437 8.9670518198815259 $300 $438 forward 7 unknown #
coedge $-1 $439 $440 $187 $303 forward $429 $-1 #
edge $-1 $441 -23.323323336638193 $306 -19.477907191432315 $302 $442 forward 7 unknown #
edge $-1 $307 -4.4861908601824796 $441 1.3842187171284396e-014 $188 $443 forward 7 unknown #
coedge $-1 $189 $433 $439 $444 forward $295 $-1 #
vertex $-1 $190 $445 #
vertex $-1 $190 $446 #
straight-curve $-1 -62.129741798084339 8.3976385920187546 4.3546088425408556 1 0 0 I I #
coedge $-1 $309 $309 $-1 $447 reversed $193 $-1 #
edge $-1 $448 0 $448 6.2831853071796004 $194 $449 forward 7 unknown #
vertex $-1 $197 $450 #
ellipse-curve $-1 -44.623705431469773 11.576460274600187 2.4319007699379194 -0.85716730853699208 0 0.51503806187062418 0.51503806187062418 0 0.85716730853699208 1 I I #
face $-1 $-1 $451 $41 $-1 $452 reversed single #
loop $-1 $-1 $319 $198 #
plane-surface $-1 0 0 4.3546088425408556 0 0 1 1 0 0 forward_v I I I I #
coedge $-1 $453 $454 $318 $455 reversed $199 $-1 #
coedge $-1 $456 $201 $203 $323 forward $124 $-1 #
coedge $-1 $201 $456 $316 $455 forward $124 $-1 #
coedge $-1 $457 $204 $201 $320 forward $314 $-1 #
edge $-1 $326 0.18688898576016832 $458 9.2584430229084145 $319 $459 forward 7 unknown #
coedge $-1 $460 $461 $202 $322 forward $451 $-1 #
edge $-1 $462 -63.455065463000018 $325 -59.293889488107972 $321 $463 forward 7 unknown #
edge $-1 $326 86.538684809834677 $462 91.557969908749655 $203 $464 forward 7 unknown #
coedge $-1 $204 $457 $460 $465 forward $314 $-1 #
vertex $-1 $322 $466 #
vertex $-1 $205 $467 #
straight-curve $-1 35.242708440822682 -4.9095549900944597 4.3546088425408556 -1 0 0 I I #
coedge $-1 $328 $328 $-1 $468 reversed $208 $-1 #
edge $-1 $469 0 $469 6.2831853071796004 $209 $470 forward 7 unknown #
vertex $-1 $212 $471 #
ellipse-curve $-1 44.375610680511024 -11.38923644520035 2.2740208550948169 0.82903758062907751 0 0.55919289150049634 0.55919289150049634 0 -0.82903758062907751 1 I I #
coedge $-1 $332 $332 $-1 $472 reversed $215 $-1 #
edge $-1 $473 0 $473 6.2831853071796004 $216 $474 forward 7 unknown #
vertex $-1 $219 $475 #
ellipse-curve $-1 44.375610680511024 -7.5014275721368158 2.2740208550948169 0.82903758062907751 0 0.55919289150049634 0.55919289150049634 0 -0.82903758062907751 1 I I #
face $-1 $-1 $235 $33 $-1 $476 reversed single #
loop $-1 $-1 $352 $220 #
plane-surface $-1 0 19.587012401649488 0 0 -1 0 0 0 -1 forward_v I I I I #
coedge $-1 $477 $350 $353 $478 forward $221 $-1 #
coedge $-1 $356 $223 $224 $344 reversed $138 $-1 #
coedge $-1 $350 $477 $223 $342 reversed $221 $-1 #
edge $-1 $357 -4.3546088425408556 $479 4.3546088425408556 $341 $480 forward 7 unknown #
coedge $-1 $225 $224 $477 $481 forward $89 $-1 #
edge $-1 $348 -45.778984954374828 $479 45.778984954374828 $340 $482 forward 7 unknown #
coedge $-1 $353 $352 $225 $346 reversed $337 $-1 #
edge $-1 $483 -45.778984954374828 $347 45.778984954374828 $345 $484 forward 7 unknown #
vertex $-1 $227 $485 #
vertex $-1 $359 $486 #
straight-curve $-1 45.778984954374828 0 -4.3546088425408556 0 -1 0 I I #
coedge $-1 $339 $341 $228 $351 reversed $221 $-1 #
edge $-1 $354 -19.587012401649488 $357 19.587012401649488 $350 $487 forward 7 unknown #
coedge $-1 $345 $229 $234 $360 forward $337 $-1 #
coedge $-1 $229 $345 $339 $478 reversed $337 $-1 #
vertex $-1 $230 $488 #
straight-curve $-1 0 19.587012401649488 4.3546088425408556 -1 0 0 I I #
coedge $-1 $231 $340 $233 $359 reversed $138 $-1 #
vertex $-1 $351 $489 #
straight-curve $-1 0 -19.587012401649488 4.3546088425408556 1 0 0 I I #
edge $-1 $236 -4.3546088425408556 $348 4.3546088425408556 $233 $490 forward 7 unknown #
edge $-1 $237 -4.3546088425408556 $347 4.3546088425408556 $234 $491 forward 7 unknown #
point $-1 45.778984954374828 -19.587012401649488 4.3546088425408556 #
point $-1 45.778984954374828 19.587012401649488 4.3546088425408556 #
face $-1 $-1 $252 $34 $-1 $492 reversed single #
loop $-1 $-1 $370 $239 #
plane-surface $-1 0 0 4.3546088425408556 0 0 1 1 0 0 forward_v I I I I #
coedge $-1 $493 $242 $247 $375 forward $146 $-1 #
coedge $-1 $242 $493 $494 $495 reversed $146 $-1 #
coedge $-1 $244 $243 $242 $369 reversed $93 $-1 #
edge $-1 $496 -2.9273044212704278 $380 0.072695578729572219 $242 $497 forward 7 unknown #
coedge $-1 $494 $498 $244 $371 forward $364 $-1 #
edge $-1 $373 -45.778984954374828 $496 45.778984954374828 $370 $499 forward 7 unknown #
coedge $-1 $251 $245 $498 $500 reversed $252 $-1 #
vertex $-1 $246 $501 #
straight-curve $-1 45.778984954374828 -13.981109027242704 1.4273044212704278 0 0 1 I I #
edge $-1 $380 5.5890786700196564 $378 11.194982044426441 $366 $502 forward 7 unknown #
coedge $-1 $503 $248 $251 $382 reversed $240 $-1 #
coedge $-1 $248 $503 $493 $504 forward $240 $-1 #
vertex $-1 $249 $505 #
straight-curve $-1 0 -19.587012401649488 1.3546088425408556 1 0 0 I I #
vertex $-1 $375 $506 #
straight-curve $-1 0 -13.981109027242704 1.3546088425408556 1 0 0 I I #
edge $-1 $507 -4.3546088425408556 $253 -1.3546088425408556 $251 $508 forward 7 unknown #
point $-1 45.778984954374828 -19.587012401649488 1.3546088425408556 #
point $-1 45.778984954374828 -13.981109027242704 1.3546088425408556 #
loop $-1 $-1 $264 $256 #
plane-surface $-1 -45.778984954374828 0 0 1 0 0 0 0 -1 forward_v I I I I #
coedge $-1 $388 $259 $261 $392 reversed $154 $-1 #
coedge $-1 $259 $387 $509 $510 reversed $154 $-1 #
coedge $-1 $267 $262 $259 $390 forward $257 $-1 #
edge $-1 $393 -18.661315889519614 $511 -16.350756843709512 $389 $512 forward 7 unknown #
coedge $-1 $261 $260 $396 $513 reversed $97 $-1 #
edge $-1 $514 -1.3842187171284396e-014 $393 4.4861908601824796 $387 $515 forward 7 unknown #
vertex $-1 $263 $516 #
straight-curve $-1 -43.468425908564726 -2.985278450096704 4.3546088425408556 0 1 0 I I #
coedge $-1 $509 $264 $267 $400 reversed $385 $-1 #
coedge $-1 $264 $509 $391 $513 forward $385 $-1 #
vertex $-1 $265 $517 #
straight-curve $-1 -45.778984954374828 -9.1493785827748404 23.832516033973171 0 0 1 I I #
straight-curve $-1 -45.77898495437482 -9.1493785827748404 0.50919269733498851 -0.51503806187062418 0 -0.85716730853699208 I I #
edge $-1 $511 2.7917352176119756 $268 9.1493785827748404 $395 $518 forward 7 unknown #
point $-1 -45.778984954374828 -9.1493785827748404 4.3546088425408556 #
point $-1 -43.468425908564726 -9.1493785827748404 4.3546088425408556 #
edge $-1 $519 1 $519 0 $271 $-1 forward 7 unknown #
vertex $-1 $272 $520 #
ellipse-curve $-1 -42.846064900315795 -5.970556900193408 1.3637866167851678 -0.85716730853699208 0 0.51503806187062418 0.51503806187062418 0 0.85716730853699208 1 I I #
point $-1 -44.108667369599161 -5.970556900193408 3.2890680784749167 #
loop $-1 $-1 $283 $275 #
plane-surface $-1 -45.778984954374828 0 0 1 0 0 0 0 -1 forward_v I I I I #
coedge $-1 $410 $278 $280 $414 reversed $169 $-1 #
coedge $-1 $278 $409 $521 $522 reversed $169 $-1 #
coedge $-1 $286 $281 $278 $412 forward $276 $-1 #
edge $-1 $415 -18.661315889519614 $523 -16.350756843709512 $411 $524 forward 7 unknown #
coedge $-1 $280 $279 $418 $525 reversed $106 $-1 #
edge $-1 $526 -1.3842187171284396e-014 $415 4.4861908601824796 $409 $527 forward 7 unknown #
vertex $-1 $282 $528 #
straight-curve $-1 -43.468425908564726 1.4014758436016947 4.3546088425408556 0 1 0 I I #
coedge $-1 $521 $283 $286 $422 reversed $407 $-1 #
coedge $-1 $283 $521 $413 $525 forward $407 $-1 #
vertex $-1 $284 $529 #
straight-curve $-1 -45.778984954374828 -0.37586999537804289 23.832516033973171 0 0 1 I I #
straight-curve $-1 -45.77898495437482 -0.37586999537804289 0.50919269733498851 -0.51503806187062418 0 -0.85716730853699208 I I #
edge $-1 $523 -5.9817733697848219 $287 0.37586999537804289 $417 $530 forward 7 unknown #
point $-1 -45.778984954374828 -0.37586999537804289 4.3546088425408556 #
point $-1 -43.468425908564726 -0.37586999537804289 4.3546088425408556 #
edge $-1 $531 1 $531 0 $290 $-1 forward 7 unknown #
vertex $-1 $291 $532 #
ellipse-curve $-1 -42.846064900315795 2.8029516872033895 1.3637866167851678 -0.85716730853699208 0 0.51503806187062418 0.51503806187062418 0 0.85716730853699208 1 I I #
point $-1 -44.108667369599161 2.8029516872033895 3.2890680784749167 #
loop $-1 $-1 $302 $294 #
plane-surface $-1 -45.778984954374828 0 0 1 0 0 0 0 -1 forward_v I I I I #
coedge $-1 $432 $297 $299 $436 reversed $184 $-1 #
coedge $-1 $297 $431 $533 $534 reversed $184 $-1 #
coedge $-1 $305 $300 $297 $434 forward $295 $-1 #
edge $-1 $437 -18.661315889519614 $535 -16.350756843709512 $433 $536 forward 7 unknown #
coedge $-1 $299 $298 $440 $537 reversed $115 $-1 #
edge $-1 $538 -1.3842187171284396e-014 $437 4.4861908601824796 $431 $539 forward 7 unknown #
vertex $-1 $301 $540 #
straight-curve $-1 -43.468425908564726 5.7882301373000935 4.3546088425408556 0 1 0 I I #
coedge $-1 $533 $302 $305 $444 reversed $429 $-1 #
coedge $-1 $302 $533 $435 $537 forward $429 $-1 #
vertex $-1 $303 $541 #
straight-curve $-1 -45.778984954374828 8.3976385920187546 23.832516033973171 0 0 1 I I #
straight-curve $-1 -45.77898495437482 8.3976385920187546 0.50919269733498851 -0.51503806187062418 0 -0.85716730853699208 I I #
edge $-1 $535 -14.755281957181619 $306 -8.3976385920187546 $439 $542 forward 7 unknown #
point $-1 -45.778984954374828 8.3976385920187546 4.3546088425408556 #
point $-1 -43.468425908564726 8.3976385920187546 4.3546088425408556 #
edge $-1 $543 1 $543 0 $309 $-1 forward 7 unknown #
vertex $-1 $310 $544 #
ellipse-curve $-1 -42.846064900315795 11.576460274600187 1.3637866167851678 -0.85716730853699208 0 0.51503806187062418 0.51503806187062418 0 0.85716730853699208 1 I I #
point $-1 -44.108667369599161 11.576460274600187 3.2890680784749167 #
loop $-1 $-1 $321 $313 #
plane-surface $-1 45.778984954374828 0 0 -1 0 0 0 0 1 forward_v I I I I #
coedge $-1 $454 $316 $545 $546 reversed $199 $-1 #
coedge $-1 $316 $453 $457 $547 reversed $199 $-1 #
edge $-1 $548 -91.557969908749655 $458 -86.538684809834677 $316 $549 forward 7 unknown #
coedge $-1 $318 $317 $461 $550 reversed $124 $-1 #
coedge $-1 $324 $319 $454 $547 forward $314 $-1 #
vertex $-1 $547 $551 #
straight-curve $-1 42.972236406647212 -4.7226660043342914 4.3546088425408556 0 -1 0 I I #
coedge $-1 $545 $321 $324 $465 reversed $451 $-1 #
coedge $-1 $321 $545 $456 $550 forward $451 $-1 #
vertex $-1 $322 $552 #
straight-curve $-1 45.778984954374828 -4.9095549900944597 63.648498330648827 0 0 1 I I #
straight-curve $-1 -5.4195809788143237 -4.9095549900944597 76.098430728108497 0.55919289150049634 0 -0.82903758062907751 I I #
edge $-1 $553 -13.981109027242704 $325 -4.9095549900944597 $460 $554 forward 7 unknown #
point $-1 45.778984954374828 -4.9095549900944597 4.3546088425408556 #
point $-1 42.972236406647212 -4.9095549900944597 4.3546088425408556 #
edge $-1 $555 1 $555 0 $328 $-1 forward 7 unknown #
vertex $-1 $329 $556 #
ellipse-curve $-1 41.27259590837221 -11.38923644520035 0.1810110285868422 0.82903758062907751 0 0.55919289150049634 0.55919289150049634 0 -0.82903758062907751 1 I I #
point $-1 44.934803572011525 -11.38923644520035 1.4449832744657416 #
edge $-1 $557 1 $557 0 $332 $-1 forward 7 unknown #
vertex $-1 $333 $558 #
ellipse-curve $-1 41.27259590837221 -7.5014275721368158 0.1810110285868422 0.82903758062907751 0 0.55919289150049634 0.55919289150049634 0 -0.82903758062907751 1 I I #
point $-1 44.934803572011525 -7.5014275721368158 1.4449832744657416 #
plane-surface $-1 45.778984954374828 0 0 -1 0 0 0 0 1 forward_v I I I I #
coedge $-1 $341 $339 $343 $481 reversed $221 $-1 #
edge $-1 $354 -4.3546088425408556 $483 4.3546088425408556 $353 $559 forward 7 unknown #
vertex $-1 $481 $560 #
straight-curve $-1 -45.778984954374828 -19.587012401649488 0 0 0 -1 I I #
edge $-1 $479 -19.587012401649488 $483 19.587012401649488 $477 $561 forward 7 unknown #
straight-curve $-1 0 -19.587012401649488 -4.3546088425408556 -1 0 0 I I #
vertex $-1 $346 $562 #
straight-curve $-1 0 19.587012401649488 -4.3546088425408556 1 0 0 I I #
point $-1 45.778984954374828 19.587012401649488 -4.3546088425408556 #
point $-1 45.778984954374828 -19.587012401649488 -4.3546088425408556 #
straight-curve $-1 -45.778984954374828 0 4.3546088425408556 0 -1 0 I I #
point $-1 -45.778984954374828 19.587012401649488 4.3546088425408556 #
point $-1 -45.778984954374828 -19.587012401649488 4.3546088425408556 #
straight-curve $-1 45.778984954374828 -19.587012401649488 0 0 0 -1 I I #
straight-curve $-1 45.778984954374828 19.587012401649488 0 0 0 -1 I I #
plane-surface $-1 45.778984954374828 0 0 -1 0 0 0 0 1 forward_v I I I I #
coedge $-1 $367 $366 $377 $504 reversed $146 $-1 #
coedge $-1 $563 $370 $367 $495 forward $364 $-1 #
edge $-1 $496 13.981109027242704 $564 19.587012401649488 $367 $565 forward 7 unknown #
vertex $-1 $495 $566 #
straight-curve $-1 -45.778984954374828 -13.981109027242704 1.4273044212704278 0 0 -1 I I #
coedge $-1 $370 $563 $372 $500 forward $364 $-1 #
straight-curve $-1 0 -13.981109027242704 4.3546088425408556 -1 0 0 I I #
edge $-1 $507 -19.587012401649488 $373 -13.981109027242704 $372 $567 forward 7 unknown #
point $-1 45.778984954374828 -13.981109027242704 4.3546088425408556 #
straight-curve $-1 -45.778984954374828 -8.3920303572230477 1.3546088425408556 0 -1 0 I I #
coedge $-1 $377 $376 $563 $568 reversed $240 $-1 #
edge $-1 $564 -4.3546088425408556 $378 -1.3546088425408556 $493 $569 forward 7 unknown #
point $-1 -45.778984954374828 -19.587012401649488 1.3546088425408556 #
point $-1 -45.778984954374828 -13.981109027242704 1.3546088425408556 #
vertex $-1 $500 $570 #
straight-curve $-1 45.778984954374828 -19.587012401649488 0 0 0 -1 I I #
coedge $-1 $396 $395 $388 $510 forward $385 $-1 #
edge $-1 $511 19.477907191432315 $514 23.323323336638193 $509 $571 forward 7 unknown #
vertex $-1 $400 $572 #
straight-curve $-1 -62.129741798084339 -2.7917352176119756 4.3546088425408556 -1 0 0 I I #
edge $-1 $514 -0.19354323248472838 $397 6.1641001326781364 $396 $573 forward 7 unknown #
vertex $-1 $513 $574 #
straight-curve $-1 -45.77898495437482 -2.7917352176119756 0.50919269733498851 0.51503806187062418 0 0.85716730853699208 I I #
point $-1 -43.468425908564726 -2.7917352176119756 4.3546088425408556 #
point $-1 -45.778984954374828 -9.1493785827748404 0.50919269733497663 #
straight-curve $-1 -45.778984954374828 0 4.3546088425408556 0 -1 0 I I #
vertex $-1 $403 $575 #
point $-1 -42.331026838445176 -5.970556900193408 2.22095392532216 #
coedge $-1 $418 $417 $410 $522 forward $407 $-1 #
edge $-1 $523 19.477907191432315 $526 23.323323336638193 $521 $576 forward 7 unknown #
vertex $-1 $422 $577 #
straight-curve $-1 -62.129741798084339 5.9817733697848219 4.3546088425408556 -1 0 0 I I #
edge $-1 $526 -4.5802975261831271 $419 1.7773458389797376 $418 $578 forward 7 unknown #
vertex $-1 $525 $579 #
straight-curve $-1 -45.77898495437482 5.9817733697848219 0.50919269733498851 0.51503806187062418 0 0.85716730853699208 I I #
point $-1 -43.468425908564726 5.9817733697848219 4.3546088425408556 #
point $-1 -45.778984954374828 -0.37586999537804289 0.50919269733497663 #
straight-curve $-1 -45.778984954374828 0 4.3546088425408556 0 -1 0 I I #
vertex $-1 $425 $580 #
point $-1 -42.331026838445176 2.8029516872033895 2.22095392532216 #
coedge $-1 $440 $439 $432 $534 forward $429 $-1 #
edge $-1 $535 19.477907191432315 $538 23.323323336638193 $533 $581 forward 7 unknown #
vertex $-1 $444 $582 #
straight-curve $-1 -62.129741798084339 14.755281957181619 4.3546088425408556 -1 0 0 I I #
edge $-1 $538 -8.9670518198815259 $441 -2.6094084547186611 $440 $583 forward 7 unknown #
vertex $-1 $537 $584 #
straight-curve $-1 -45.77898495437482 14.755281957181619 0.50919269733498851 0.51503806187062418 0 0.85716730853699208 I I #
point $-1 -43.468425908564726 14.755281957181619 4.3546088425408556 #
point $-1 -45.778984954374828 8.3976385920187546 0.50919269733497663 #
straight-curve $-1 -45.778984954374828 0 4.3546088425408556 0 -1 0 I I #
vertex $-1 $447 $585 #
point $-1 -42.331026838445176 11.576460274600187 2.22095392532216 #
coedge $-1 $461 $460 $453 $546 forward $451 $-1 #
edge $-1 $553 59.293889488107972 $548 63.455065463000018 $545 $586 forward 7 unknown #
edge $-1 $458 42.972236406647212 $553 45.778984954374828 $457 $587 forward 7 unknown #
vertex $-1 $546 $588 #
straight-curve $-1 -5.4195809788143237 -13.981109027242706 76.098430728108497 -0.55919289150049634 0 0.82903758062907751 I I #
edge $-1 $548 -9.2584430229084145 $462 -0.18688898576016832 $461 $589 forward 7 unknown #
point $-1 42.972236406647212 -13.981109027242706 4.3546088425408556 #
point $-1 45.778984954374828 -4.9095549900944597 0.19343286764880929 #
vertex $-1 $465 $590 #
straight-curve $-1 45.778984954374828 0 4.3546088425408556 0 1 0 I I #
vertex $-1 $468 $591 #
point $-1 41.831788799872704 -11.38923644520035 -0.64802655204223525 #
vertex $-1 $472 $592 #
point $-1 41.831788799872704 -7.5014275721368158 -0.64802655204223525 #
straight-curve $-1 -45.778984954374828 19.587012401649488 0 0 0 -1 I I #
point $-1 -45.778984954374828 -19.587012401649488 -4.3546088425408556 #
straight-curve $-1 -45.778984954374828 0 -4.3546088425408556 0 1 0 I I #
point $-1 -45.778984954374828 19.587012401649488 -4.3546088425408556 #
coedge $-1 $498 $494 $503 $568 forward $364 $-1 #
vertex $-1 $495 $593 #
straight-curve $-1 -45.778984954374828 0 4.3546088425408556 0 -1 0 I I #
point $-1 -45.778984954374828 -13.981109027242704 4.3546088425408556 #
straight-curve $-1 45.778984954374828 0 4.3546088425408556 0 1 0 I I #
edge $-1 $564 -45.778984954374828 $507 45.778984954374828 $503 $594 forward 7 unknown #
straight-curve $-1 -45.778984954374828 -19.587012401649488 0 0 0 -1 I I #
point $-1 45.778984954374828 -19.587012401649488 4.3546088425408556 #
straight-curve $-1 -45.778984954374828 -2.7917352176119756 23.832516033973171 0 0 -1 I I #
point $-1 -45.778984954374828 -2.7917352176119756 4.3546088425408556 #
straight-curve $-1 -45.778984954374828 -2.985278450096704 0.50919269733496764 0 -1 0 I I #
point $-1 -45.778984954374828 -2.7917352176119756 0.50919269733497663 #
point $-1 -41.988897591778809 -5.970556900193408 0.84874855491454348 #
straight-curve $-1 -45.778984954374828 5.9817733697848219 23.832516033973171 0 0 -1 I I #
point $-1 -45.778984954374828 5.9817733697848219 4.3546088425408556 #
straight-curve $-1 -45.778984954374828 1.4014758436016947 0.50919269733496764 0 -1 0 I I #
point $-1 -45.778984954374828 5.9817733697848219 0.50919269733497663 #
point $-1 -41.988897591778809 2.8029516872033895 0.84874855491454348 #
straight-curve $-1 -45.778984954374828 14.755281957181619 23.832516033973171 0 0 -1 I I #
point $-1 -45.778984954374828 14.755281957181619 4.3546088425408556 #
straight-curve $-1 -45.778984954374828 5.7882301373000935 0.50919269733496764 0 -1 0 I I #
point $-1 -45.778984954374828 14.755281957181619 0.50919269733497663 #
point $-1 -41.988897591778809 11.576460274600187 0.84874855491454348 #
straight-curve $-1 45.778984954374828 -13.981109027242706 63.648498330648827 0 0 -1 I I #
straight-curve $-1 0 -13.981109027242704 4.3546088425408556 1 0 0 I I #
point $-1 45.778984954374828 -13.981109027242706 0.19343286764880929 #
straight-curve $-1 45.778984954374835 -4.7226660043342914 0.19343286764880219 0 1 0 I I #
point $-1 45.778984954374828 -13.981109027242704 4.3546088425408556 #
point $-1 40.443558327743133 -11.38923644520035 -0.37818186291365413 #
point $-1 40.443558327743133 -7.5014275721368158 -0.37818186291365413 #
point $-1 -45.778984954374828 -19.587012401649488 4.3546088425408556 #
straight-curve $-1 0 -19.587012401649488 4.3546088425408556 1 0 0 I I #
End-of-ACIS-data 