500 0 8 0           
7 Unknown 11 ACIS 5.0 NT 24 Thu Mar 25 19:58:29 1999 
-1 9.9999999999999995e-007 1e-010 
body $-1 $8 $-1 $9 #
body $-1 $10 $-1 $11 #
body $-1 $12 $-1 $13 #
body $-1 $14 $-1 $15 #
body $-1 $16 $-1 $17 #
body $-1 $18 $-1 $19 #
body $-1 $20 $-1 $21 #
body $-1 $22 $-1 $23 #
lump $-1 $-1 $24 $0 #
transform $-1 1 0 0 0 1 0 0 0 1 62.128360850856048 41.097966636757867 17.144450689855859 1 rotate no_reflect no_shear #
lump $-1 $-1 $25 $1 #
transform $-1 1 0 0 0 1 0 0 0 1 62.128360850856048 41.097966636757867 17.144450689855859 1 rotate no_reflect no_shear #
lump $-1 $-1 $26 $2 #
transform $-1 1 0 0 0 1 0 0 0 1 62.128360850856048 41.097966636757867 17.144450689855859 1 rotate no_reflect no_shear #
lump $-1 $-1 $27 $3 #
transform $-1 1 0 0 0 1 0 0 0 1 62.128360850856048 41.097966636757867 17.144450689855859 1 rotate no_reflect no_shear #
lump $-1 $-1 $28 $4 #
transform $-1 1 0 0 0 1 0 0 0 1 62.128360850856048 41.097966636757867 17.144450689855859 1 rotate no_reflect no_shear #
lump $-1 $-1 $29 $5 #
transform $-1 1 0 0 0 1 0 0 0 1 62.128360850856048 41.097966636757867 17.144450689855859 1 rotate no_reflect no_shear #
lump $-1 $-1 $30 $6 #
transform $-1 1 0 0 0 1 0 0 0 1 62.128360850856048 41.097966636757867 17.144450689855859 1 rotate no_reflect no_shear #
lump $-1 $-1 $31 $7 #
transform $-1 1 0 0 0 1 0 0 0 1 62.128360850856048 41.097966636757867 17.144450689855859 1 rotate no_reflect no_shear #
shell $-1 $-1 $-1 $32 $-1 $8 #
shell $-1 $-1 $-1 $33 $-1 $10 #
shell $-1 $-1 $-1 $34 $-1 $12 #
shell $-1 $-1 $-1 $35 $-1 $14 #
shell $-1 $-1 $-1 $36 $-1 $16 #
shell $-1 $-1 $-1 $37 $-1 $18 #
shell $-1 $-1 $-1 $38 $-1 $20 #
shell $-1 $-1 $-1 $39 $-1 $22 #
face $-1 $40 $41 $24 $-1 $42 forward single #
face $-1 $43 $44 $25 $-1 $45 forward single #
face $-1 $46 $47 $26 $-1 $48 forward single #
face $-1 $49 $50 $27 $-1 $51 reversed single #
face $-1 $52 $53 $28 $-1 $54 forward single #
face $-1 $55 $56 $29 $-1 $57 reversed single #
face $-1 $58 $59 $30 $-1 $60 forward single #
face $-1 $61 $62 $31 $-1 $63 forward single #
face $-1 $64 $65 $24 $-1 $66 reversed single #
loop $-1 $-1 $67 $32 #
plane-surface $-1 0 0 17.144450689855859 0 0 1 1 0 0 forward_v I I I I #
face $-1 $68 $69 $25 $-1 $70 reversed single #
loop $-1 $-1 $71 $33 #
plane-surface $-1 -62.128360850856048 0 0 1 0 0 0 0 -1 forward_v I I I I #
face $-1 $72 $73 $26 $-1 $74 reversed single #
loop $-1 $-1 $75 $34 #
plane-surface $-1 62.128360850856048 0 0 -1 0 0 0 0 1 forward_v I I I I #
face $-1 $76 $77 $27 $-1 $78 reversed single #
loop $-1 $-1 $79 $35 #
plane-surface $-1 35.508970123430792 -149.77534512907303 68.920823495877755 -1 0 0 0 -0.87461971476443456 0.48480960649040278 forward_v I I I I #
face $-1 $80 $81 $28 $-1 $82 forward single #
loop $-1 $83 $84 $36 #
cone-surface $-1 30.589947650393661 -37.787025470096218 12.377317979040594 0 0.87461971476443456 -0.48480960649040278 1 0 0 1 I I 0 1 1 forward I I I I #
face $-1 $85 $86 $29 $-1 $87 reversed single #
loop $-1 $-1 $88 $37 #
plane-surface $-1 22.074844972833247 73.382680675273377 153.36689892221048 1 0 0 0 -0.71933980857756763 -0.69465836192734942 forward_v I I I I #
face $-1 $89 $90 $30 $-1 $91 forward single #
loop $-1 $92 $93 $38 #
cone-surface $-1 26.148786770761511 34.478325555811175 10.44100411625686 0 -0.71933980857756763 -0.69465836192734942 2 0 0 1 I I 0 1 2 forward I I I I #
face $-1 $94 $95 $31 $-1 $96 forward single #
loop $-1 $97 $98 $39 #
cone-surface $-1 32.25969946765391 34.478325555811175 10.44100411625686 0 -0.71933980857756763 -0.69465836192734942 2 0 0 1 I I 0 1 2 forward I I I I #
face $-1 $99 $100 $24 $-1 $101 reversed single #
loop $-1 $-1 $102 $40 #
plane-surface $-1 0 0 -17.144450689855859 0 0 1 1 0 0 forward_v I I I I #
coedge $-1 $103 $104 $105 $106 forward $41 $-1 #
face $-1 $107 $108 $25 $-1 $109 forward single #
loop $-1 $-1 $110 $43 #
plane-surface $-1 0 41.097966636757867 0 0 -1 0 0 0 -1 forward_v I I I I #
coedge $-1 $111 $112 $113 $114 forward $44 $-1 #
face $-1 $115 $116 $26 $-1 $117 forward single #
loop $-1 $-1 $118 $46 #
plane-surface $-1 0 41.097966636757867 0 0 -1 0 0 0 -1 forward_v I I I I #
coedge $-1 $119 $120 $121 $122 forward $47 $-1 #
face $-1 $123 $124 $27 $-1 $125 reversed single #
loop $-1 $-1 $126 $49 #
plane-surface $-1 30.589947650393661 -41.097966636757874 8.6799711438832219 0 -0.87461971476443456 0.48480960649040278 1 0 0 forward_v I I I I #
coedge $-1 $127 $128 $129 $130 reversed $50 $-1 #
face $-1 $-1 $131 $28 $-1 $132 forward single #
loop $-1 $133 $134 $52 #
cone-surface $-1 30.589947650393661 -36.384743173120391 11.600020237966447 0 0.87461971476443456 -0.48480960649040278 0.5 0 0 1 I I -0.70710678118654746 0.70710678118654746 0.5 forward I I I I #
loop $-1 $-1 $135 $36 #
coedge $-1 $84 $84 $136 $137 reversed $53 $-1 #
face $-1 $138 $139 $29 $-1 $140 reversed single #
loop $-1 $-1 $141 $55 #
plane-surface $-1 29.20424311920771 -16.00012572811228 67.050928166436634 0 0.71933980857756763 0.69465836192734942 1 0 0 forward_v I I I I #
coedge $-1 $142 $143 $144 $145 reversed $56 $-1 #
face $-1 $-1 $146 $30 $-1 $147 forward single #
loop $-1 $148 $149 $58 #
cone-surface $-1 26.148786770761511 31.591328876023276 7.6530638958527959 0 -0.71933980857756763 -0.69465836192734942 1 0 0 1 I I -0.70710678118654746 0.70710678118654746 1 forward I I I I #
loop $-1 $-1 $150 $38 #
coedge $-1 $93 $93 $151 $152 reversed $59 $-1 #
face $-1 $-1 $153 $31 $-1 $154 forward single #
loop $-1 $155 $156 $61 #
cone-surface $-1 32.25969946765391 31.591328876023276 7.6530638958527959 0 -0.71933980857756763 -0.69465836192734942 1 0 0 1 I I -0.70710678118654746 0.70710678118654746 1 forward I I I I #
loop $-1 $-1 $157 $39 #
coedge $-1 $98 $98 $158 $159 reversed $62 $-1 #
face $-1 $160 $161 $24 $-1 $162 reversed single #
loop $-1 $-1 $163 $64 #
plane-surface $-1 0 -41.097966636757867 0 0 1 0 0 0 1 forward_v I I I I #
coedge $-1 $164 $165 $166 $167 forward $65 $-1 #
coedge $-1 $168 $67 $169 $170 forward $41 $-1 #
coedge $-1 $67 $168 $171 $172 forward $41 $-1 #
coedge $-1 $173 $174 $67 $106 reversed $175 $-1 #
edge $-1 $176 -41.097966636757867 $177 41.097966636757867 $105 $178 forward 7 unknown #
face $-1 $179 $180 $25 $-1 $181 reversed single #
loop $-1 $-1 $113 $68 #
plane-surface $-1 -68.640887144675887 0 -11.84535197173329 0 0 1 1 0 0 forward_v I I I I #
coedge $-1 $182 $183 $112 $184 forward $69 $-1 #
coedge $-1 $185 $71 $186 $187 reversed $44 $-1 #
coedge $-1 $71 $185 $110 $184 reversed $44 $-1 #
coedge $-1 $188 $189 $71 $114 reversed $108 $-1 #
edge $-1 $190 -41.097966636757867 $191 41.097966636757867 $113 $192 forward 7 unknown #
face $-1 $193 $194 $26 $-1 $195 reversed single #
loop $-1 $-1 $196 $72 #
plane-surface $-1 68.640887144675901 0 -11.84535197173329 0 0 1 1 0 0 forward_v I I I I #
coedge $-1 $197 $198 $119 $199 forward $73 $-1 #
coedge $-1 $200 $75 $118 $199 reversed $47 $-1 #
coedge $-1 $75 $200 $201 $202 reversed $47 $-1 #
coedge $-1 $203 $204 $75 $122 reversed $116 $-1 #
edge $-1 $205 -41.097966636757867 $206 41.097966636757867 $121 $207 forward 7 unknown #
face $-1 $208 $209 $27 $-1 $210 forward single #
loop $-1 $-1 $211 $76 #
plane-surface $-1 25.67092517735653 -149.77534512907303 68.920823495877755 1 0 0 0 0.87461971476443456 -0.48480960649040278 forward_v I I I I #
coedge $-1 $212 $213 $214 $215 reversed $77 $-1 #
coedge $-1 $128 $79 $216 $217 reversed $50 $-1 #
coedge $-1 $79 $127 $212 $218 reversed $50 $-1 #
coedge $-1 $214 $219 $79 $130 forward $209 $-1 #
edge $-1 $220 33.789705927778648 $221 38.481643381914708 $129 $222 forward 7 unknown #
loop $-1 $-1 $136 $80 #
plane-surface $-1 30.589947650393661 -41.097966636757874 8.6799711438832219 0 -0.87461971476443456 0.48480960649040278 1 0 0 forward_v I I I I #
loop $-1 $-1 $223 $52 #
coedge $-1 $134 $134 $135 $224 reversed $81 $-1 #
coedge $-1 $135 $135 $134 $224 forward $83 $-1 #
coedge $-1 $136 $136 $84 $137 forward $131 $-1 #
edge $-1 $225 -4.6609101365882991e-015 $225 6.283185307179596 $136 $226 forward 7 unknown #
face $-1 $227 $228 $29 $-1 $229 reversed single #
loop $-1 $-1 $230 $85 #
plane-surface $-1 36.333641265582173 73.382680675273377 153.36689892221048 -1 0 0 0 0.71933980857756763 0.69465836192734942 forward_v I I I I #
coedge $-1 $231 $232 $233 $234 reversed $86 $-1 #
coedge $-1 $143 $88 $235 $236 reversed $56 $-1 #
coedge $-1 $88 $142 $231 $237 reversed $56 $-1 #
coedge $-1 $233 $238 $88 $145 forward $239 $-1 #
edge $-1 $240 -4.4066262991211786 $241 4.4973421203515329 $144 $242 forward 7 unknown #
loop $-1 $-1 $151 $89 #
plane-surface $-1 29.20424311920771 -16.00012572811228 67.050928166436634 0 0.71933980857756763 0.69465836192734942 1 0 0 forward_v I I I I #
loop $-1 $-1 $243 $58 #
coedge $-1 $149 $149 $150 $244 reversed $90 $-1 #
coedge $-1 $150 $150 $149 $244 forward $92 $-1 #
coedge $-1 $151 $151 $93 $152 forward $146 $-1 #
edge $-1 $245 -5.5121598128299967e-016 $245 6.2831853071795996 $151 $246 forward 7 unknown #
loop $-1 $-1 $158 $94 #
plane-surface $-1 29.20424311920771 -16.00012572811228 67.050928166436634 0 0.71933980857756763 0.69465836192734942 1 0 0 forward_v I I I I #
loop $-1 $-1 $247 $61 #
coedge $-1 $156 $156 $157 $248 reversed $95 $-1 #
coedge $-1 $157 $157 $156 $248 forward $97 $-1 #
coedge $-1 $158 $158 $98 $159 forward $153 $-1 #
edge $-1 $249 -5.5121598128299967e-016 $249 6.2831853071795996 $158 $250 forward 7 unknown #
face $-1 $251 $252 $24 $-1 $253 reversed single #
loop $-1 $-1 $254 $99 #
plane-surface $-1 -62.128360850856048 0 0 1 0 0 0 0 -1 forward_v I I I I #
coedge $-1 $255 $171 $256 $257 forward $100 $-1 #
coedge $-1 $258 $102 $255 $259 forward $65 $-1 #
coedge $-1 $102 $258 $260 $261 forward $65 $-1 #
coedge $-1 $174 $173 $102 $167 reversed $175 $-1 #
edge $-1 $262 -41.097966636757867 $263 41.097966636757867 $166 $264 forward 7 unknown #
coedge $-1 $104 $103 $265 $266 forward $41 $-1 #
coedge $-1 $267 $268 $103 $170 reversed $252 $-1 #
edge $-1 $177 -62.128360850856048 $269 62.128360850856048 $169 $270 forward 7 unknown #
coedge $-1 $163 $271 $104 $172 reversed $100 $-1 #
edge $-1 $272 -62.128360850856048 $176 62.128360850856048 $171 $273 forward 7 unknown #
coedge $-1 $166 $105 $271 $274 forward $175 $-1 #
coedge $-1 $105 $166 $267 $275 reversed $175 $-1 #
loop $-1 $-1 $173 $251 #
vertex $-1 $106 $276 #
vertex $-1 $106 $277 #
straight-curve $-1 62.128360850856048 0 17.144450689855859 0 1 0 I I #
face $-1 $278 $279 $25 $-1 $280 reversed single #
loop $-1 $-1 $281 $107 #
plane-surface $-1 -75.153413438495718 0 -14.494901330794574 1 0 0 0 0 -1 forward_v I I I I #
coedge $-1 $282 $110 $283 $284 reversed $69 $-1 #
coedge $-1 $110 $282 $188 $285 reversed $69 $-1 #
edge $-1 $190 11.84535197173329 $286 17.144450689855859 $110 $287 forward 7 unknown #
coedge $-1 $112 $111 $288 $289 reversed $44 $-1 #
coedge $-1 $290 $291 $111 $187 forward $292 $-1 #
edge $-1 $293 -17.144450689855859 $191 -11.84535197173329 $186 $294 forward 7 unknown #
coedge $-1 $295 $113 $183 $285 forward $108 $-1 #
coedge $-1 $113 $295 $290 $296 forward $108 $-1 #
vertex $-1 $184 $297 #
vertex $-1 $296 $298 #
straight-curve $-1 -62.128360850856048 0 -11.84535197173329 0 -1 0 I I #
face $-1 $299 $300 $26 $-1 $301 reversed single #
loop $-1 $-1 $302 $115 #
plane-surface $-1 75.153413438495733 0 -14.494901330794574 -1 0 0 0 0 1 forward_v I I I I #
coedge $-1 $204 $203 $303 $304 forward $116 $-1 #
coedge $-1 $305 $118 $204 $306 reversed $73 $-1 #
coedge $-1 $118 $305 $307 $308 reversed $73 $-1 #
edge $-1 $309 -17.144450689855859 $206 -11.84535197173329 $118 $310 forward 7 unknown #
coedge $-1 $120 $119 $311 $312 reversed $47 $-1 #
coedge $-1 $313 $314 $120 $202 forward $315 $-1 #
edge $-1 $205 11.84535197173329 $316 17.144450689855859 $201 $317 forward 7 unknown #
coedge $-1 $196 $121 $314 $318 forward $116 $-1 #
coedge $-1 $121 $196 $197 $306 forward $116 $-1 #
vertex $-1 $202 $319 #
vertex $-1 $306 $320 #
straight-curve $-1 62.128360850856048 0 -11.84535197173329 0 1 0 I I #
face $-1 $-1 $321 $27 $-1 $322 reversed single #
loop $-1 $-1 $129 $123 #
plane-surface $-1 0 0 17.144450689855859 0 0 1 1 0 0 forward_v I I I I #
coedge $-1 $323 $324 $325 $326 reversed $124 $-1 #
coedge $-1 $327 $126 $128 $218 forward $77 $-1 #
coedge $-1 $126 $327 $323 $328 forward $77 $-1 #
coedge $-1 $325 $129 $126 $215 forward $209 $-1 #
edge $-1 $221 -20.213996298233962 $329 -10.375951352159699 $214 $330 forward 7 unknown #
coedge $-1 $331 $332 $127 $217 forward $321 $-1 #
edge $-1 $333 -25.780440604055642 $220 -17.315961058083019 $216 $334 forward 7 unknown #
edge $-1 $221 -9.6778970369452679 $333 -1.4320236426557382e-014 $128 $335 forward 7 unknown #
coedge $-1 $129 $325 $331 $336 forward $209 $-1 #
vertex $-1 $217 $337 #
vertex $-1 $130 $338 #
straight-curve $-1 35.508970123430792 -74.887672564536516 17.144450689855859 0 1 0 I I #
coedge $-1 $223 $223 $-1 $339 reversed $133 $-1 #
edge $-1 $340 0 $340 6.2831853071796004 $134 $341 forward 7 unknown #
vertex $-1 $137 $342 #
ellipse-curve $-1 30.589947650393661 -38.751997909689834 12.912210916869544 0 -0.87461971476443456 0.48480960649040278 1 0 0 1 I I #
face $-1 $-1 $239 $29 $-1 $343 forward single #
loop $-1 $-1 $344 $138 #
plane-surface $-1 0 41.097966636757867 0 0 -1 0 0 0 -1 forward_v I I I I #
coedge $-1 $345 $346 $347 $348 reversed $139 $-1 #
coedge $-1 $349 $141 $143 $237 forward $86 $-1 #
coedge $-1 $141 $349 $345 $350 forward $86 $-1 #
coedge $-1 $347 $144 $141 $234 forward $239 $-1 #
edge $-1 $241 7.4727234132293923 $351 21.731519705978318 $233 $352 forward 7 unknown #
coedge $-1 $353 $354 $142 $236 forward $228 $-1 #
edge $-1 $355 -68.759328201493929 $240 -59.538998771249382 $235 $356 forward 7 unknown #
edge $-1 $241 69.378167149217745 $355 82.19593327351572 $143 $357 forward 7 unknown #
coedge $-1 $144 $347 $353 $358 forward $239 $-1 #
loop $-1 $-1 $347 $227 #
vertex $-1 $236 $359 #
vertex $-1 $145 $360 #
straight-curve $-1 22.074844972833247 36.691340337636689 17.144450689855859 0 -1 0 I I #
coedge $-1 $243 $243 $-1 $361 reversed $148 $-1 #
edge $-1 $362 0 $362 6.2831853071796004 $149 $363 forward 7 unknown #
vertex $-1 $152 $364 #
ellipse-curve $-1 26.148786770761511 36.645982427021515 12.534285974733578 0 0.71933980857756763 0.69465836192734942 2 0 0 1 I I #
coedge $-1 $247 $247 $-1 $365 reversed $155 $-1 #
edge $-1 $366 0 $366 6.2831853071796004 $156 $367 forward 7 unknown #
vertex $-1 $159 $368 #
ellipse-curve $-1 32.25969946765391 36.645982427021515 12.534285974733578 0 0.71933980857756763 0.69465836192734942 2 0 0 1 I I #
face $-1 $-1 $175 $24 $-1 $369 reversed single #
loop $-1 $-1 $267 $160 #
plane-surface $-1 0 41.097966636757867 0 0 -1 0 0 0 -1 forward_v I I I I #
coedge $-1 $370 $265 $268 $371 forward $161 $-1 #
coedge $-1 $271 $163 $164 $259 reversed $100 $-1 #
coedge $-1 $265 $370 $163 $257 reversed $161 $-1 #
edge $-1 $272 -17.144450689855859 $372 17.144450689855859 $256 $373 forward 7 unknown #
coedge $-1 $165 $164 $370 $374 forward $65 $-1 #
edge $-1 $263 -62.128360850856048 $372 62.128360850856048 $255 $375 forward 7 unknown #
coedge $-1 $268 $267 $165 $261 reversed $252 $-1 #
edge $-1 $376 -62.128360850856048 $262 62.128360850856048 $260 $377 forward 7 unknown #
vertex $-1 $167 $378 #
vertex $-1 $274 $379 #
straight-curve $-1 62.128360850856048 0 -17.144450689855859 0 -1 0 I I #
coedge $-1 $254 $256 $168 $266 reversed $161 $-1 #
edge $-1 $269 -41.097966636757867 $272 41.097966636757867 $265 $380 forward 7 unknown #
coedge $-1 $260 $169 $174 $275 forward $252 $-1 #
coedge $-1 $169 $260 $254 $371 reversed $252 $-1 #
vertex $-1 $170 $381 #
straight-curve $-1 0 41.097966636757867 17.144450689855859 -1 0 0 I I #
coedge $-1 $171 $255 $173 $274 reversed $100 $-1 #
vertex $-1 $266 $382 #
straight-curve $-1 0 -41.097966636757867 17.144450689855859 1 0 0 I I #
edge $-1 $176 -17.144450689855859 $263 17.144450689855859 $173 $383 forward 7 unknown #
edge $-1 $177 -17.144450689855859 $262 17.144450689855859 $174 $384 forward 7 unknown #
point $-1 62.128360850856048 -41.097966636757867 17.144450689855859 #
point $-1 62.128360850856048 41.097966636757867 17.144450689855859 #
face $-1 $-1 $292 $25 $-1 $385 reversed single #
loop $-1 $-1 $288 $179 #
plane-surface $-1 0 0 -17.144450689855859 0 0 1 1 0 0 forward_v I I I I #
coedge $-1 $386 $387 $282 $388 forward $180 $-1 #
coedge $-1 $183 $182 $281 $388 reversed $69 $-1 #
coedge $-1 $288 $389 $182 $284 forward $279 $-1 #
edge $-1 $390 -75.153413438495718 $286 -62.128360850856048 $182 $391 forward 7 unknown #
edge $-1 $190 -6.5125262938198318 $392 6.5125262938198318 $183 $393 forward 7 unknown #
vertex $-1 $184 $394 #
straight-curve $-1 -62.128360850856048 41.097966636757867 0 0 0 -1 I I #
coedge $-1 $395 $283 $185 $289 forward $279 $-1 #
edge $-1 $286 -41.097966636757867 $293 41.097966636757867 $288 $396 forward 7 unknown #
coedge $-1 $397 $186 $189 $296 reversed $292 $-1 #
coedge $-1 $186 $397 $395 $398 reversed $292 $-1 #
loop $-1 $-1 $186 $278 #
vertex $-1 $398 $399 #
straight-curve $-1 -62.128360850856048 -41.097966636757867 0 0 0 1 I I #
coedge $-1 $189 $188 $387 $400 forward $108 $-1 #
edge $-1 $401 -6.5125262938198318 $191 6.5125262938198318 $290 $402 forward 7 unknown #
point $-1 -62.128360850856055 41.097966636757867 -11.84535197173329 #
point $-1 -62.128360850856055 -41.097966636757867 -11.84535197173329 #
face $-1 $-1 $315 $26 $-1 $403 reversed single #
loop $-1 $-1 $311 $193 #
plane-surface $-1 0 0 -17.144450689855859 0 0 1 1 0 0 forward_v I I I I #
coedge $-1 $404 $303 $405 $406 forward $194 $-1 #
coedge $-1 $302 $407 $196 $304 reversed $194 $-1 #
edge $-1 $408 -41.097966636757867 $409 41.097966636757867 $303 $410 forward 7 unknown #
coedge $-1 $198 $197 $407 $411 forward $73 $-1 #
edge $-1 $409 -6.5125262938198318 $206 6.5125262938198389 $197 $412 forward 7 unknown #
coedge $-1 $413 $311 $198 $308 forward $300 $-1 #
edge $-1 $309 -6.5125262938198532 $414 6.5125262938198318 $198 $415 forward 7 unknown #
vertex $-1 $308 $416 #
straight-curve $-1 62.128360850856048 41.097966636757867 0 0 0 1 I I #
coedge $-1 $307 $417 $200 $312 forward $300 $-1 #
edge $-1 $316 -41.097966636757867 $309 41.097966636757867 $311 $418 forward 7 unknown #
coedge $-1 $405 $201 $417 $419 reversed $315 $-1 #
coedge $-1 $201 $405 $203 $318 reversed $315 $-1 #
loop $-1 $-1 $201 $299 #
vertex $-1 $202 $420 #
straight-curve $-1 62.128360850856048 -41.097966636757867 0 0 0 -1 I I #
edge $-1 $205 -6.5125262938198389 $408 6.5125262938198318 $314 $421 forward 7 unknown #
point $-1 62.128360850856062 -41.097966636757867 -11.84535197173329 #
point $-1 62.128360850856062 41.097966636757867 -11.84535197173329 #
loop $-1 $-1 $216 $208 #
plane-surface $-1 0 -41.097966636757867 0 0 1 0 0 0 1 forward_v I I I I #
coedge $-1 $324 $211 $213 $328 reversed $124 $-1 #
coedge $-1 $211 $323 $422 $423 reversed $124 $-1 #
coedge $-1 $219 $214 $211 $326 forward $209 $-1 #
edge $-1 $329 -38.481643381914708 $424 -33.789705927778648 $325 $425 forward 7 unknown #
coedge $-1 $213 $212 $332 $426 reversed $77 $-1 #
edge $-1 $427 1.4320236426557382e-014 $329 9.6778970369452679 $323 $428 forward 7 unknown #
vertex $-1 $215 $429 #
straight-curve $-1 15.294973825196831 -36.406029182621801 17.144450689855859 -1 0 0 I I #
coedge $-1 $422 $216 $219 $336 reversed $321 $-1 #
coedge $-1 $216 $422 $327 $426 forward $321 $-1 #
vertex $-1 $217 $430 #
straight-curve $-1 35.508970123430792 -41.097966636757867 34.460411747938878 0 0 1 I I #
straight-curve $-1 35.508970123430792 -41.097966636757874 8.6799711438832219 0 -0.48480960649040278 -0.87461971476443456 I I #
edge $-1 $424 25.67092517735653 $220 35.508970123430792 $331 $431 forward 7 unknown #
point $-1 35.508970123430792 -41.097966636757867 17.144450689855859 #
point $-1 35.508970123430792 -36.406029182621808 17.144450689855859 #
edge $-1 $432 1 $432 0 $223 $-1 forward 7 unknown #
vertex $-1 $224 $433 #
ellipse-curve $-1 30.589947650393661 -36.822053030502609 11.842425041211648 0 -0.87461971476443456 0.48480960649040278 1 0 0 1 I I #
point $-1 31.589947650393661 -38.751997909689834 12.912210916869538 #
plane-surface $-1 0 0 17.144450689855859 0 0 1 1 0 0 forward_v I I I I #
coedge $-1 $354 $353 $346 $434 forward $228 $-1 #
coedge $-1 $346 $230 $232 $350 reversed $139 $-1 #
coedge $-1 $230 $345 $344 $434 reversed $139 $-1 #
coedge $-1 $238 $233 $230 $348 forward $239 $-1 #
edge $-1 $351 -4.4973421203515329 $435 4.4066262991211786 $347 $436 forward 7 unknown #
coedge $-1 $232 $231 $354 $437 reversed $86 $-1 #
edge $-1 $438 -82.19593327351572 $351 -69.378167149217745 $345 $439 forward 7 unknown #
vertex $-1 $234 $440 #
straight-curve $-1 14.602121559603855 32.193998217285149 17.144450689855859 1 0 0 I I #
coedge $-1 $344 $235 $238 $358 reversed $228 $-1 #
coedge $-1 $235 $344 $349 $437 forward $228 $-1 #
vertex $-1 $236 $441 #
straight-curve $-1 22.074844972833247 41.097966636757867 76.683449461105241 0 0 1 I I #
straight-curve $-1 22.074844972833247 -16.00012572811228 67.050928166436634 0 0.69465836192734942 -0.71933980857756763 I I #
edge $-1 $435 -36.333641265582173 $240 -22.074844972833247 $353 $442 forward 7 unknown #
point $-1 22.074844972833247 41.097966636757867 17.144450689855859 #
point $-1 22.074844972833247 32.193998217285156 17.144450689855859 #
edge $-1 $443 1 $443 0 $243 $-1 forward 7 unknown #
vertex $-1 $244 $444 #
ellipse-curve $-1 26.148786770761511 32.310668684600842 8.3477222577801449 0 0.71933980857756763 0.69465836192734942 2 0 0 1 I I #
point $-1 28.148786770761511 36.645982427021508 12.534285974733573 #
edge $-1 $445 1 $445 0 $247 $-1 forward 7 unknown #
vertex $-1 $248 $446 #
ellipse-curve $-1 32.25969946765391 32.310668684600842 8.3477222577801449 0 0.71933980857756763 0.69465836192734942 2 0 0 1 I I #
point $-1 34.25969946765391 36.645982427021508 12.534285974733573 #
plane-surface $-1 62.128360850856048 0 0 -1 0 0 0 0 1 forward_v I I I I #
coedge $-1 $256 $254 $258 $374 reversed $161 $-1 #
edge $-1 $269 -17.144450689855859 $376 17.144450689855859 $268 $447 forward 7 unknown #
vertex $-1 $374 $448 #
straight-curve $-1 -62.128360850856048 -41.097966636757867 0 0 0 -1 I I #
edge $-1 $372 -41.097966636757867 $376 41.097966636757867 $370 $449 forward 7 unknown #
straight-curve $-1 0 -41.097966636757867 -17.144450689855859 -1 0 0 I I #
vertex $-1 $261 $450 #
straight-curve $-1 0 41.097966636757867 -17.144450689855859 1 0 0 I I #
point $-1 62.128360850856048 41.097966636757867 -17.144450689855859 #
point $-1 62.128360850856048 -41.097966636757867 -17.144450689855859 #
straight-curve $-1 -62.128360850856048 0 17.144450689855859 0 -1 0 I I #
point $-1 -62.128360850856048 41.097966636757867 17.144450689855859 #
point $-1 -62.128360850856048 -41.097966636757867 17.144450689855859 #
straight-curve $-1 62.128360850856048 -41.097966636757867 0 0 0 -1 I I #
straight-curve $-1 62.128360850856048 41.097966636757867 0 0 0 -1 I I #
plane-surface $-1 0 -41.097966636757867 0 0 1 0 0 0 1 forward_v I I I I #
coedge $-1 $451 $281 $389 $452 reversed $180 $-1 #
coedge $-1 $281 $451 $295 $400 reversed $180 $-1 #
edge $-1 $392 -2.6495493590612842 $390 2.6495493590612842 $282 $453 forward 7 unknown #
coedge $-1 $283 $395 $386 $452 forward $279 $-1 #
vertex $-1 $284 $454 #
straight-curve $-1 0 41.097966636757867 -17.144450689855859 1 0 0 I I #
vertex $-1 $285 $455 #
straight-curve $-1 -68.640887144675887 41.097966636757867 -11.84535197173329 -1 0 0 I I #
point $-1 -62.128360850856048 41.097966636757867 -17.144450689855859 #
coedge $-1 $389 $288 $291 $398 forward $279 $-1 #
straight-curve $-1 -62.128360850856048 0 -17.144450689855859 0 -1 0 I I #
coedge $-1 $291 $290 $451 $456 forward $292 $-1 #
edge $-1 $293 -6.5125262938198389 $457 6.5125262938198318 $291 $458 forward 7 unknown #
point $-1 -62.128360850856048 -41.097966636757867 -17.144450689855859 #
edge $-1 $392 -41.097966636757867 $401 41.097966636757867 $387 $459 forward 7 unknown #
vertex $-1 $400 $460 #
straight-curve $-1 -68.640887144675887 -41.097966636757867 -11.84535197173329 1 0 0 I I #
plane-surface $-1 0 -41.097966636757867 0 0 1 0 0 0 1 forward_v I I I I #
coedge $-1 $407 $302 $413 $461 reversed $194 $-1 #
coedge $-1 $314 $313 $302 $406 reversed $315 $-1 #
edge $-1 $408 -2.6495493590612842 $462 2.6495493590612842 $302 $463 forward 7 unknown #
coedge $-1 $303 $404 $305 $411 reversed $194 $-1 #
vertex $-1 $304 $464 #
vertex $-1 $304 $465 #
straight-curve $-1 75.153413438495733 0 -11.84535197173329 0 1 0 I I #
edge $-1 $409 -2.6495493590612842 $414 2.6495493590612842 $407 $466 forward 7 unknown #
straight-curve $-1 68.640887144675901 41.097966636757867 -11.84535197173329 -1 0 0 I I #
coedge $-1 $417 $307 $404 $461 forward $300 $-1 #
vertex $-1 $461 $467 #
straight-curve $-1 68.640887144675901 41.097966636757867 -17.144450689855859 1 0 0 I I #
point $-1 62.128360850856048 41.097966636757867 -17.144450689855859 #
coedge $-1 $311 $413 $313 $419 forward $300 $-1 #
straight-curve $-1 62.128360850856048 0 -17.144450689855859 0 1 0 I I #
edge $-1 $462 -6.5125262938198318 $316 6.5125262938198532 $313 $468 forward 7 unknown #
point $-1 62.128360850856048 -41.097966636757867 -17.144450689855859 #
straight-curve $-1 68.640887144675901 -41.097966636757867 -11.84535197173329 1 0 0 I I #
coedge $-1 $332 $331 $324 $423 forward $321 $-1 #
edge $-1 $424 17.315961058083019 $427 25.780440604055642 $422 $469 forward 7 unknown #
vertex $-1 $336 $470 #
straight-curve $-1 25.67092517735653 -74.887672564536516 17.144450689855859 0 -1 0 I I #
edge $-1 $427 10.375951352159699 $333 20.213996298233962 $332 $471 forward 7 unknown #
vertex $-1 $426 $472 #
straight-curve $-1 25.67092517735653 -41.097966636757874 8.6799711438832219 0 0.48480960649040278 0.87461971476443456 I I #
point $-1 25.67092517735653 -36.406029182621808 17.144450689855859 #
point $-1 35.508970123430792 -41.097966636757867 8.6799711438832343 #
straight-curve $-1 0 -41.097966636757867 17.144450689855859 1 0 0 I I #
vertex $-1 $339 $473 #
point $-1 31.589947650393661 -36.822053030502609 11.842425041211648 #
edge $-1 $435 59.538998771249382 $438 68.759328201493929 $344 $474 forward 7 unknown #
vertex $-1 $358 $475 #
straight-curve $-1 36.333641265582173 36.691340337636689 17.144450689855859 0 1 0 I I #
edge $-1 $438 -21.731519705978318 $355 -7.4727234132293923 $354 $476 forward 7 unknown #
vertex $-1 $437 $477 #
straight-curve $-1 36.333641265582173 -16.00012572811228 67.050928166436634 0 -0.69465836192734942 0.71933980857756763 I I #
point $-1 36.333641265582173 32.193998217285156 17.144450689855859 #
point $-1 22.074844972833247 41.097966636757867 7.9241212596113115 #
straight-curve $-1 0 41.097966636757867 17.144450689855859 -1 0 0 I I #
vertex $-1 $361 $478 #
point $-1 28.148786770761511 32.310668684600842 8.3477222577801449 #
vertex $-1 $365 $479 #
point $-1 34.25969946765391 32.310668684600842 8.3477222577801449 #
straight-curve $-1 -62.128360850856048 41.097966636757867 0 0 0 -1 I I #
point $-1 -62.128360850856048 -41.097966636757867 -17.144450689855859 #
straight-curve $-1 -62.128360850856048 0 -17.144450689855859 0 1 0 I I #
point $-1 -62.128360850856048 41.097966636757867 -17.144450689855859 #
coedge $-1 $387 $386 $397 $456 reversed $180 $-1 #
edge $-1 $457 -41.097966636757867 $390 41.097966636757867 $386 $480 forward 7 unknown #
straight-curve $-1 -75.153413438495718 41.097966636757867 -14.494901330794574 0 0 -1 I I #
point $-1 -75.153413438495718 41.097966636757867 -17.144450689855859 #
point $-1 -75.153413438495718 41.097966636757867 -11.84535197173329 #
edge $-1 $401 -2.6495493590612842 $457 2.6495493590612842 $451 $481 forward 7 unknown #
vertex $-1 $452 $482 #
straight-curve $-1 -68.640887144675887 -41.097966636757867 -17.144450689855859 -1 0 0 I I #
straight-curve $-1 -75.153413438495718 0 -11.84535197173329 0 -1 0 I I #
point $-1 -75.153413438495718 -41.097966636757867 -11.84535197173329 #
edge $-1 $414 -41.097966636757867 $462 41.097966636757867 $404 $483 forward 7 unknown #
vertex $-1 $406 $484 #
straight-curve $-1 75.153413438495733 -41.097966636757867 -14.494901330794574 0 0 -1 I I #
point $-1 75.153413438495733 -41.097966636757867 -11.84535197173329 #
point $-1 75.153413438495733 41.097966636757867 -11.84535197173329 #
straight-curve $-1 75.153413438495733 41.097966636757867 -14.494901330794574 0 0 -1 I I #
point $-1 75.153413438495733 41.097966636757867 -17.144450689855859 #
straight-curve $-1 68.640887144675901 -41.097966636757867 -17.144450689855859 -1 0 0 I I #
straight-curve $-1 25.67092517735653 -41.097966636757867 34.460411747938878 0 0 -1 I I #
point $-1 25.67092517735653 -41.097966636757867 17.144450689855859 #
straight-curve $-1 15.294973825196831 -41.097966636757867 8.6799711438832432 1 0 0 I I #
point $-1 25.67092517735653 -41.097966636757867 8.6799711438832343 #
point $-1 30.589947650393661 -35.947433315738174 11.357615434721247 #
straight-curve $-1 36.333641265582173 41.097966636757867 76.683449461105241 0 0 -1 I I #
point $-1 36.333641265582173 41.097966636757867 17.144450689855859 #
straight-curve $-1 14.602121559603855 41.097966636757867 7.9241212596113115 -1 0 0 I I #
point $-1 36.333641265582173 41.097966636757867 7.9241212596113115 #
point $-1 26.148786770761511 30.871989067445707 6.9584055339254469 #
point $-1 32.25969946765391 30.871989067445707 6.9584055339254469 #
straight-curve $-1 -75.153413438495718 0 -17.144450689855859 0 1 0 I I #
straight-curve $-1 -75.153413438495718 -41.097966636757867 -14.494901330794574 0 0 -1 I I #
point $-1 -75.153413438495718 -41.097966636757867 -17.144450689855859 #
straight-curve $-1 75.153413438495733 0 -17.144450689855859 0 -1 0 I I #
point $-1 75.153413438495733 -41.097966636757867 -17.144450689855859 #
End-of-ACIS-data 