500 0 7 0           
7 Unknown 11 ACIS 5.0 NT 24 Thu Mar 25 18:55:52 1999 
-1 9.9999999999999995e-007 1e-010 
body $-1 $7 $-1 $8 #
body $-1 $9 $-1 $10 #
body $-1 $11 $-1 $12 #
body $-1 $13 $-1 $14 #
body $-1 $15 $-1 $16 #
body $-1 $17 $-1 $18 #
body $-1 $19 $-1 $20 #
lump $-1 $-1 $21 $0 #
transform $-1 1 0 0 0 1 0 0 0 1 52.33314004943999 30.186864227193528 10.878952674522628 1 rotate no_reflect no_shear #
lump $-1 $-1 $22 $1 #
transform $-1 1 0 0 0 1 0 0 0 1 52.33314004943999 30.186864227193528 10.878952674522628 1 rotate no_reflect no_shear #
lump $-1 $-1 $23 $2 #
transform $-1 1 0 0 0 1 0 0 0 1 52.33314004943999 30.186864227193528 10.878952674522628 1 rotate no_reflect no_shear #
lump $-1 $-1 $24 $3 #
transform $-1 1 0 0 0 1 0 0 0 1 52.33314004943999 30.186864227193528 10.878952674522628 1 rotate no_reflect no_shear #
lump $-1 $-1 $25 $4 #
transform $-1 1 0 0 0 1 0 0 0 1 52.33314004943999 30.186864227193528 10.878952674522628 1 rotate no_reflect no_shear #
lump $-1 $-1 $26 $5 #
transform $-1 1 0 0 0 1 0 0 0 1 52.33314004943999 30.186864227193528 10.878952674522628 1 rotate no_reflect no_shear #
lump $-1 $-1 $27 $6 #
transform $-1 1 0 0 0 1 0 0 0 1 52.33314004943999 30.186864227193528 10.878952674522628 1 rotate no_reflect no_shear #
shell $-1 $-1 $-1 $28 $-1 $7 #
shell $-1 $-1 $-1 $29 $-1 $9 #
shell $-1 $-1 $-1 $30 $-1 $11 #
shell $-1 $-1 $-1 $31 $-1 $13 #
shell $-1 $-1 $-1 $32 $-1 $15 #
shell $-1 $-1 $-1 $33 $-1 $17 #
shell $-1 $-1 $-1 $34 $-1 $19 #
face $-1 $35 $36 $21 $-1 $37 forward single #
face $-1 $38 $39 $22 $-1 $40 forward single #
face $-1 $41 $42 $23 $-1 $43 forward single #
face $-1 $44 $45 $24 $-1 $46 reversed single #
face $-1 $47 $48 $25 $-1 $49 forward single #
face $-1 $50 $51 $26 $-1 $52 reversed single #
face $-1 $53 $54 $27 $-1 $55 forward single #
face $-1 $56 $57 $21 $-1 $58 reversed single #
loop $-1 $-1 $59 $28 #
plane-surface $-1 0 0 10.878952674522628 0 0 1 1 0 0 forward_v I I I I #
face $-1 $60 $61 $22 $-1 $62 forward single #
loop $-1 $-1 $63 $29 #
plane-surface $-1 0 -30.186864227193528 0 0 1 0 0 0 1 forward_v I I I I #
face $-1 $64 $65 $23 $-1 $66 reversed single #
loop $-1 $-1 $67 $30 #
plane-surface $-1 0 30.186864227193528 0 0 -1 0 0 0 -1 forward_v I I I I #
face $-1 $68 $69 $24 $-1 $70 reversed single #
loop $-1 $-1 $71 $31 #
plane-surface $-1 88.142535611040827 8.7833188536301066 145.31137751922469 0 -1 0 -0.85716730853699208 0 -0.51503806187062418 forward_v I I I I #
face $-1 $72 $73 $25 $-1 $74 forward single #
loop $-1 $75 $76 $32 #
cone-surface $-1 48.110810175839333 3.8976043646452574 5.4054842078703942 -0.85716730853699208 0 -0.51503806187062418 0.77255709280593621 0 -1.2857509628054882 1 I I 0 1 1.5 forward I I I I #
face $-1 $77 $78 $26 $-1 $79 reversed single #
loop $-1 $-1 $80 $33 #
plane-surface $-1 -142.04965365637588 -0.98811012433959178 55.594863912288794 0 1 0 -0.85716730853699208 0 0.51503806187062418 forward_v I I I I #
face $-1 $81 $82 $27 $-1 $83 forward single #
loop $-1 $84 $85 $34 #
cone-surface $-1 -48.110810175839333 3.8976043646452574 5.40548420787038 0.85716730853699208 0 -0.51503806187062418 0.77255709280593621 0 1.2857509628054882 1 I I 0 1 1.5 forward I I I I #
face $-1 $86 $87 $21 $-1 $88 reversed single #
loop $-1 $-1 $89 $35 #
plane-surface $-1 0 0 -10.878952674522628 0 0 1 1 0 0 forward_v I I I I #
coedge $-1 $90 $91 $92 $93 forward $36 $-1 #
face $-1 $94 $95 $22 $-1 $96 reversed single #
loop $-1 $-1 $97 $38 #
plane-surface $-1 0 0 10.878952674522628 0 0 1 1 0 0 forward_v I I I I #
coedge $-1 $98 $99 $100 $101 forward $39 $-1 #
face $-1 $102 $103 $23 $-1 $104 reversed single #
loop $-1 $-1 $105 $41 #
plane-surface $-1 52.33314004943999 0 0 -1 0 0 0 0 1 forward_v I I I I #
coedge $-1 $106 $107 $108 $109 forward $42 $-1 #
face $-1 $110 $111 $24 $-1 $112 reversed single #
loop $-1 $-1 $113 $44 #
plane-surface $-1 -1.5739779958950635 3.8976043646452574 91.404259473889667 0.85716730853699208 0 0.51503806187062418 0.51503806187062418 0 -0.85716730853699208 forward_v I I I I #
coedge $-1 $114 $115 $116 $117 reversed $45 $-1 #
face $-1 $-1 $118 $25 $-1 $119 forward single #
loop $-1 $120 $121 $47 #
cone-surface $-1 46.006921831689979 3.8976043646452574 4.1413405985996068 -0.85716730853699208 0 -0.51503806187062418 0.3862785464029681 0 -0.64287548140274409 1 I I -0.70710678118654757 0.70710678118654757 0.75 forward I I I I #
loop $-1 $-1 $122 $32 #
coedge $-1 $76 $76 $123 $124 reversed $48 $-1 #
face $-1 $125 $126 $26 $-1 $127 reversed single #
loop $-1 $-1 $128 $50 #
plane-surface $-1 -52.33314004943999 3.8976043646452574 1.6877458669537688 -0.85716730853699208 0 0.51503806187062418 0.51503806187062418 0 0.85716730853699208 forward_v I I I I #
coedge $-1 $129 $130 $131 $132 reversed $51 $-1 #
face $-1 $-1 $133 $27 $-1 $134 forward single #
loop $-1 $135 $136 $53 #
cone-surface $-1 -46.006921831689979 3.8976043646452574 4.1413405985995926 0.85716730853699208 0 -0.51503806187062418 0.3862785464029681 0 0.64287548140274409 1 I I -0.70710678118654757 0.70710678118654757 0.75 forward I I I I #
loop $-1 $-1 $137 $34 #
coedge $-1 $85 $85 $138 $139 reversed $54 $-1 #
face $-1 $140 $141 $21 $-1 $142 reversed single #
loop $-1 $-1 $143 $56 #
plane-surface $-1 0 -30.186864227193528 0 0 1 0 0 0 1 forward_v I I I I #
coedge $-1 $144 $145 $146 $147 forward $57 $-1 #
coedge $-1 $148 $59 $149 $150 forward $36 $-1 #
coedge $-1 $59 $148 $151 $152 forward $36 $-1 #
coedge $-1 $153 $154 $59 $93 reversed $155 $-1 #
edge $-1 $156 -30.186864227193528 $157 30.186864227193528 $92 $158 forward 7 unknown #
face $-1 $159 $160 $22 $-1 $161 reversed single #
loop $-1 $-1 $162 $60 #
plane-surface $-1 -52.33314004943999 0 0 1 0 0 0 0 -1 forward_v I I I I #
coedge $-1 $163 $164 $165 $166 forward $61 $-1 #
coedge $-1 $165 $63 $162 $167 reversed $39 $-1 #
coedge $-1 $63 $165 $168 $169 reversed $39 $-1 #
coedge $-1 $170 $171 $63 $101 reversed $160 $-1 #
edge $-1 $172 -52.33314004943999 $173 52.33314004943999 $100 $174 forward 7 unknown #
face $-1 $175 $176 $23 $-1 $177 reversed single #
loop $-1 $-1 $178 $64 #
plane-surface $-1 0 34.901803046752363 7.8789526745226279 0 0 1 1 0 0 forward_v I I I I #
coedge $-1 $179 $180 $106 $181 forward $65 $-1 #
coedge $-1 $182 $67 $105 $181 reversed $42 $-1 #
coedge $-1 $67 $182 $183 $184 reversed $42 $-1 #
coedge $-1 $185 $178 $67 $109 reversed $103 $-1 #
edge $-1 $186 -52.33314004943999 $187 52.33314004943999 $108 $188 forward 7 unknown #
face $-1 $189 $190 $24 $-1 $191 forward single #
loop $-1 $-1 $192 $68 #
plane-surface $-1 88.142535611040827 -0.98811012433959178 145.31137751922469 0 1 0 0.85716730853699208 0 0.51503806187062418 forward_v I I I I #
coedge $-1 $193 $194 $195 $196 reversed $69 $-1 #
coedge $-1 $115 $71 $197 $198 reversed $45 $-1 #
coedge $-1 $71 $114 $193 $199 reversed $45 $-1 #
coedge $-1 $195 $200 $71 $117 forward $190 $-1 #
edge $-1 $201 -8.2618722439195764 $202 -2.7392382222114691 $116 $203 forward 7 unknown #
loop $-1 $-1 $123 $72 #
plane-surface $-1 -1.5739779958950635 3.8976043646452574 91.404259473889667 0.85716730853699208 0 0.51503806187062418 0.51503806187062418 0 -0.85716730853699208 forward_v I I I I #
loop $-1 $-1 $204 $47 #
coedge $-1 $121 $121 $122 $205 reversed $73 $-1 #
coedge $-1 $122 $122 $121 $205 forward $75 $-1 #
coedge $-1 $123 $123 $76 $124 forward $118 $-1 #
edge $-1 $206 0 $206 6.2831853071796004 $123 $207 forward 7 unknown #
face $-1 $208 $209 $26 $-1 $210 reversed single #
loop $-1 $-1 $211 $77 #
plane-surface $-1 -142.04965365637588 8.7833188536301066 55.594863912288794 0 -1 0 0.85716730853699208 0 -0.51503806187062418 forward_v I I I I #
coedge $-1 $212 $213 $214 $215 reversed $78 $-1 #
coedge $-1 $130 $80 $216 $217 reversed $51 $-1 #
coedge $-1 $80 $129 $212 $218 reversed $51 $-1 #
coedge $-1 $214 $219 $80 $132 forward $220 $-1 #
edge $-1 $221 18.69168677874795 $222 24.214320800456044 $131 $223 forward 7 unknown #
loop $-1 $-1 $138 $81 #
plane-surface $-1 -52.33314004943999 3.8976043646452574 1.6877458669537688 -0.85716730853699208 0 0.51503806187062418 0.51503806187062418 0 0.85716730853699208 forward_v I I I I #
loop $-1 $-1 $224 $53 #
coedge $-1 $136 $136 $137 $225 reversed $82 $-1 #
coedge $-1 $137 $137 $136 $225 forward $84 $-1 #
coedge $-1 $138 $138 $85 $139 forward $133 $-1 #
edge $-1 $226 0 $226 6.2831853071796004 $138 $227 forward 7 unknown #
face $-1 $228 $229 $21 $-1 $230 reversed single #
loop $-1 $-1 $231 $86 #
plane-surface $-1 -52.33314004943999 0 0 1 0 0 0 0 -1 forward_v I I I I #
coedge $-1 $232 $151 $233 $234 forward $87 $-1 #
coedge $-1 $235 $89 $232 $236 forward $57 $-1 #
coedge $-1 $89 $235 $237 $238 forward $57 $-1 #
coedge $-1 $154 $153 $89 $147 reversed $155 $-1 #
edge $-1 $239 -30.186864227193528 $240 30.186864227193528 $146 $241 forward 7 unknown #
coedge $-1 $91 $90 $242 $243 forward $36 $-1 #
coedge $-1 $244 $245 $90 $150 reversed $229 $-1 #
edge $-1 $157 -52.33314004943999 $246 52.33314004943999 $149 $247 forward 7 unknown #
coedge $-1 $143 $248 $91 $152 reversed $87 $-1 #
edge $-1 $249 -52.33314004943999 $156 52.33314004943999 $151 $250 forward 7 unknown #
coedge $-1 $146 $92 $248 $251 forward $155 $-1 #
coedge $-1 $92 $146 $244 $252 reversed $155 $-1 #
loop $-1 $-1 $153 $228 #
vertex $-1 $93 $253 #
vertex $-1 $93 $254 #
straight-curve $-1 52.33314004943999 0 10.878952674522628 0 1 0 I I #
face $-1 $255 $256 $22 $-1 $257 reversed single #
loop $-1 $-1 $170 $94 #
plane-surface $-1 0 -34.901803046752363 7.8789526745226279 0 0 1 1 0 0 forward_v I I I I #
coedge $-1 $258 $259 $98 $167 forward $95 $-1 #
coedge $-1 $260 $97 $259 $261 forward $61 $-1 #
coedge $-1 $97 $260 $262 $263 forward $61 $-1 #
coedge $-1 $99 $98 $97 $166 reversed $39 $-1 #
edge $-1 $264 -52.33314004943999 $265 52.33314004943999 $97 $266 forward 7 unknown #
edge $-1 $265 -10.878952674522628 $173 -7.8789526745226279 $162 $267 forward 7 unknown #
coedge $-1 $262 $268 $99 $169 forward $269 $-1 #
edge $-1 $172 7.8789526745226279 $264 10.878952674522628 $168 $270 forward 7 unknown #
coedge $-1 $271 $100 $268 $272 forward $160 $-1 #
coedge $-1 $100 $271 $258 $273 forward $160 $-1 #
vertex $-1 $169 $274 #
vertex $-1 $167 $275 #
straight-curve $-1 0 -30.186864227193528 7.8789526745226279 -1 0 0 I I #
face $-1 $276 $277 $23 $-1 $278 forward single #
loop $-1 $-1 $279 $102 #
plane-surface $-1 0 39.616741866311202 9.3789526745226279 0 -1 0 0 0 -1 forward_v I I I I #
coedge $-1 $108 $280 $179 $281 forward $103 $-1 #
coedge $-1 $282 $105 $178 $281 reversed $65 $-1 #
coedge $-1 $105 $282 $283 $284 reversed $65 $-1 #
edge $-1 $285 -10.878952674522628 $187 -7.8789526745226279 $105 $286 forward 7 unknown #
coedge $-1 $107 $106 $287 $288 reversed $42 $-1 #
coedge $-1 $289 $290 $107 $184 forward $291 $-1 #
edge $-1 $186 7.8789526745226279 $292 10.878952674522628 $183 $293 forward 7 unknown #
coedge $-1 $280 $108 $290 $294 forward $103 $-1 #
vertex $-1 $184 $295 #
vertex $-1 $181 $296 #
straight-curve $-1 0 30.186864227193528 7.8789526745226279 1 0 0 I I #
face $-1 $-1 $297 $24 $-1 $298 reversed single #
loop $-1 $-1 $116 $110 #
plane-surface $-1 0 0 10.878952674522628 0 0 1 1 0 0 forward_v I I I I #
coedge $-1 $299 $300 $301 $302 reversed $111 $-1 #
coedge $-1 $303 $113 $115 $199 forward $69 $-1 #
coedge $-1 $113 $303 $299 $304 forward $69 $-1 #
coedge $-1 $301 $116 $113 $196 forward $190 $-1 #
edge $-1 $202 -6.8345166713074779 $305 2.9369123066622205 $195 $306 forward 7 unknown #
coedge $-1 $307 $308 $114 $198 forward $297 $-1 #
edge $-1 $309 -70.967942892658598 $201 -61.776736085089716 $197 $310 forward 7 unknown #
edge $-1 $202 93.943511374468031 $309 104.66628009888004 $115 $311 forward 7 unknown #
coedge $-1 $116 $301 $307 $312 forward $190 $-1 #
vertex $-1 $198 $313 #
vertex $-1 $117 $314 #
straight-curve $-1 44.071267805520414 8.7833188536301066 10.878952674522623 -1 0 0 I I #
coedge $-1 $204 $204 $-1 $315 reversed $120 $-1 #
edge $-1 $316 0 $316 6.2831853071796004 $121 $317 forward 7 unknown #
vertex $-1 $124 $318 #
ellipse-curve $-1 49.571823038585919 3.8976043646452574 6.2833492707381993 0.85716730853699208 0 0.51503806187062418 0.77255709280593621 0 -1.2857509628054882 1 I I #
face $-1 $-1 $220 $26 $-1 $319 forward single #
loop $-1 $-1 $320 $125 #
plane-surface $-1 -52.33314004943999 0 0 1 0 0 0 0 -1 forward_v I I I I #
coedge $-1 $321 $322 $323 $324 reversed $126 $-1 #
coedge $-1 $325 $128 $130 $218 forward $78 $-1 #
coedge $-1 $128 $325 $321 $326 forward $78 $-1 #
coedge $-1 $323 $131 $128 $215 forward $220 $-1 #
edge $-1 $222 -2.9369123066622205 $327 6.8345166713074779 $214 $328 forward 7 unknown #
coedge $-1 $329 $330 $129 $217 forward $209 $-1 #
edge $-1 $331 -26.109686089190628 $221 -16.918479281621771 $216 $332 forward 7 unknown #
edge $-1 $222 -10.722768724411988 $331 0 $130 $333 forward 7 unknown #
coedge $-1 $131 $323 $329 $334 forward $220 $-1 #
loop $-1 $-1 $323 $208 #
vertex $-1 $217 $335 #
vertex $-1 $132 $336 #
straight-curve $-1 -71.02482682818794 -0.98811012433959178 10.87895267452263 1 0 0 I I #
coedge $-1 $224 $224 $-1 $337 reversed $135 $-1 #
edge $-1 $338 0 $338 6.2831853071796004 $136 $339 forward 7 unknown #
vertex $-1 $139 $340 #
ellipse-curve $-1 -49.57182303858594 3.8976043646452574 6.2833492707381993 -0.85716730853699208 0 0.51503806187062418 0.77255709280593621 0 1.2857509628054882 1 I I #
face $-1 $-1 $155 $21 $-1 $341 reversed single #
loop $-1 $-1 $244 $140 #
plane-surface $-1 0 30.186864227193528 0 0 -1 0 0 0 -1 forward_v I I I I #
coedge $-1 $342 $242 $245 $343 forward $141 $-1 #
coedge $-1 $248 $143 $144 $236 reversed $87 $-1 #
coedge $-1 $242 $342 $143 $234 reversed $141 $-1 #
edge $-1 $249 -10.878952674522628 $344 10.878952674522628 $233 $345 forward 7 unknown #
coedge $-1 $145 $144 $342 $346 forward $57 $-1 #
edge $-1 $240 -52.33314004943999 $344 52.33314004943999 $232 $347 forward 7 unknown #
coedge $-1 $245 $244 $145 $238 reversed $229 $-1 #
edge $-1 $348 -52.33314004943999 $239 52.33314004943999 $237 $349 forward 7 unknown #
vertex $-1 $147 $350 #
vertex $-1 $251 $351 #
straight-curve $-1 52.33314004943999 0 -10.878952674522628 0 -1 0 I I #
coedge $-1 $231 $233 $148 $243 reversed $141 $-1 #
edge $-1 $246 -30.186864227193528 $249 30.186864227193528 $242 $352 forward 7 unknown #
coedge $-1 $237 $149 $154 $252 forward $229 $-1 #
coedge $-1 $149 $237 $231 $343 reversed $229 $-1 #
vertex $-1 $150 $353 #
straight-curve $-1 0 30.186864227193528 10.878952674522628 -1 0 0 I I #
coedge $-1 $151 $232 $153 $251 reversed $87 $-1 #
vertex $-1 $243 $354 #
straight-curve $-1 0 -30.186864227193528 10.878952674522628 1 0 0 I I #
edge $-1 $156 -10.878952674522628 $240 10.878952674522628 $153 $355 forward 7 unknown #
edge $-1 $157 -10.878952674522628 $239 10.878952674522628 $154 $356 forward 7 unknown #
point $-1 52.33314004943999 -30.186864227193528 10.878952674522628 #
point $-1 52.33314004943999 30.186864227193528 10.878952674522628 #
face $-1 $-1 $269 $22 $-1 $357 reversed single #
loop $-1 $-1 $358 $159 #
plane-surface $-1 0 -39.616741866311195 9.3789526745226279 0 1 0 0 0 1 forward_v I I I I #
coedge $-1 $359 $162 $171 $273 reversed $95 $-1 #
coedge $-1 $162 $359 $163 $261 reversed $95 $-1 #
coedge $-1 $164 $163 $360 $361 forward $61 $-1 #
edge $-1 $265 30.186864227193528 $362 39.616741866311195 $259 $363 forward 7 unknown #
coedge $-1 $364 $168 $164 $263 reversed $269 $-1 #
edge $-1 $365 -39.616741866311195 $264 -30.186864227193528 $262 $366 forward 7 unknown #
vertex $-1 $169 $367 #
vertex $-1 $261 $368 #
straight-curve $-1 0 -30.186864227193528 10.878952674522628 -1 0 0 I I #
straight-curve $-1 -52.33314004943999 -30.186864227193528 0 0 0 -1 I I #
coedge $-1 $168 $364 $170 $272 reversed $269 $-1 #
loop $-1 $-1 $168 $255 #
straight-curve $-1 52.33314004943999 -30.186864227193528 0 0 0 1 I I #
coedge $-1 $171 $170 $369 $370 forward $160 $-1 #
edge $-1 $172 -4.7149388195588315 $371 4.7149388195588315 $268 $372 forward 7 unknown #
edge $-1 $373 -4.7149388195588315 $173 4.7149388195588315 $258 $374 forward 7 unknown #
point $-1 52.33314004943999 -30.186864227193531 7.8789526745226279 #
point $-1 -52.33314004943999 -30.186864227193531 7.8789526745226279 #
face $-1 $-1 $291 $23 $-1 $375 reversed single #
loop $-1 $-1 $287 $175 #
plane-surface $-1 0 0 10.878952674522628 0 0 1 1 0 0 forward_v I I I I #
coedge $-1 $376 $377 $282 $378 forward $176 $-1 #
coedge $-1 $178 $185 $376 $379 forward $103 $-1 #
edge $-1 $380 -4.7149388195588386 $187 4.7149388195588351 $179 $381 forward 7 unknown #
coedge $-1 $180 $179 $279 $378 reversed $65 $-1 #
coedge $-1 $382 $287 $180 $284 forward $277 $-1 #
edge $-1 $285 30.186864227193528 $383 39.616741866311202 $180 $384 forward 7 unknown #
vertex $-1 $284 $385 #
straight-curve $-1 52.33314004943999 30.186864227193528 0 0 0 -1 I I #
coedge $-1 $283 $386 $182 $288 forward $277 $-1 #
edge $-1 $292 -52.33314004943999 $285 52.33314004943999 $287 $387 forward 7 unknown #
coedge $-1 $388 $183 $386 $389 reversed $291 $-1 #
coedge $-1 $183 $388 $185 $294 reversed $291 $-1 #
loop $-1 $-1 $183 $276 #
vertex $-1 $184 $390 #
straight-curve $-1 -52.33314004943999 30.186864227193528 0 0 0 1 I I #
edge $-1 $186 -4.7149388195588351 $391 4.7149388195588386 $290 $392 forward 7 unknown #
point $-1 -52.33314004943999 30.186864227193528 7.8789526745226279 #
point $-1 52.33314004943999 30.186864227193528 7.8789526745226279 #
loop $-1 $-1 $197 $189 #
plane-surface $-1 52.33314004943999 0 0 -1 0 0 0 0 1 forward_v I I I I #
coedge $-1 $300 $192 $194 $304 reversed $111 $-1 #
coedge $-1 $192 $299 $393 $394 reversed $111 $-1 #
coedge $-1 $200 $195 $192 $302 forward $190 $-1 #
edge $-1 $305 2.7392382222114691 $395 8.2618722439195764 $301 $396 forward 7 unknown #
coedge $-1 $194 $193 $308 $397 reversed $69 $-1 #
edge $-1 $398 -104.66628009888004 $305 -93.943511374468031 $299 $399 forward 7 unknown #
vertex $-1 $196 $400 #
straight-curve $-1 46.810506027731876 1.9488021823226287 10.87895267452263 0 -1 0 I I #
coedge $-1 $393 $197 $200 $312 reversed $297 $-1 #
coedge $-1 $197 $393 $303 $397 forward $297 $-1 #
vertex $-1 $198 $401 #
straight-curve $-1 52.33314004943999 8.7833188536301066 72.655688759612346 0 0 1 I I #
straight-curve $-1 -1.5739779958950635 8.7833188536301066 91.404259473889667 0.51503806187062418 0 -0.85716730853699208 I I #
edge $-1 $395 -0.98811012433959178 $201 8.7833188536301066 $307 $402 forward 7 unknown #
point $-1 52.33314004943999 8.7833188536301066 10.878952674522628 #
point $-1 46.810506027731883 8.7833188536301066 10.878952674522623 #
edge $-1 $403 1 $403 0 $204 $-1 forward 7 unknown #
vertex $-1 $205 $404 #
ellipse-curve $-1 46.649797313092726 3.8976043646452574 4.5276191450025749 0.85716730853699208 0 0.51503806187062418 0.77255709280593621 0 -1.2857509628054882 1 I I #
point $-1 50.34438013139188 3.8976043646452574 4.9975983079327246 #
plane-surface $-1 0 0 10.878952674522628 0 0 1 1 0 0 forward_v I I I I #
coedge $-1 $330 $329 $322 $405 forward $209 $-1 #
coedge $-1 $322 $211 $213 $326 reversed $126 $-1 #
coedge $-1 $211 $321 $320 $405 reversed $126 $-1 #
coedge $-1 $219 $214 $211 $324 forward $220 $-1 #
edge $-1 $327 -24.214320800456044 $406 -18.69168677874795 $323 $407 forward 7 unknown #
coedge $-1 $213 $212 $330 $408 reversed $78 $-1 #
edge $-1 $409 0 $327 10.722768724411988 $321 $410 forward 7 unknown #
vertex $-1 $215 $411 #
straight-curve $-1 -46.81050602773189 1.9488021823226287 10.878952674522628 0 1 0 I I #
coedge $-1 $320 $216 $219 $334 reversed $209 $-1 #
coedge $-1 $216 $320 $325 $408 forward $209 $-1 #
vertex $-1 $217 $412 #
straight-curve $-1 -52.33314004943999 -0.98811012433959178 27.797431956144397 0 0 1 I I #
straight-curve $-1 -52.33314004943999 -0.98811012433959178 1.6877458669537688 -0.51503806187062418 0 -0.85716730853699208 I I #
edge $-1 $406 -8.7833188536301066 $221 0.98811012433959178 $329 $413 forward 7 unknown #
point $-1 -52.33314004943999 -0.98811012433959178 10.878952674522628 #
point $-1 -46.810506027731897 -0.98811012433959178 10.878952674522628 #
edge $-1 $414 1 $414 0 $224 $-1 forward 7 unknown #
vertex $-1 $225 $415 #
ellipse-curve $-1 -46.649797313092726 3.8976043646452574 4.5276191450025607 -0.85716730853699208 0 0.51503806187062418 0.77255709280593621 0 1.2857509628054882 1 I I #
point $-1 -48.799265945780007 3.8976043646452574 7.5691002335436872 #
plane-surface $-1 52.33314004943999 0 0 -1 0 0 0 0 1 forward_v I I I I #
coedge $-1 $233 $231 $235 $346 reversed $141 $-1 #
edge $-1 $246 -10.878952674522628 $348 10.878952674522628 $245 $416 forward 7 unknown #
vertex $-1 $346 $417 #
straight-curve $-1 -52.33314004943999 -30.186864227193528 0 0 0 -1 I I #
edge $-1 $344 -30.186864227193528 $348 30.186864227193528 $342 $418 forward 7 unknown #
straight-curve $-1 0 -30.186864227193528 -10.878952674522628 -1 0 0 I I #
vertex $-1 $238 $419 #
straight-curve $-1 0 30.186864227193528 -10.878952674522628 1 0 0 I I #
point $-1 52.33314004943999 30.186864227193528 -10.878952674522628 #
point $-1 52.33314004943999 -30.186864227193528 -10.878952674522628 #
straight-curve $-1 -52.33314004943999 0 10.878952674522628 0 -1 0 I I #
point $-1 -52.33314004943999 30.186864227193528 10.878952674522628 #
point $-1 -52.33314004943999 -30.186864227193528 10.878952674522628 #
straight-curve $-1 52.33314004943999 -30.186864227193528 0 0 0 -1 I I #
straight-curve $-1 52.33314004943999 30.186864227193528 0 0 0 -1 I I #
plane-surface $-1 52.33314004943999 0 0 -1 0 0 0 0 1 forward_v I I I I #
coedge $-1 $369 $360 $359 $420 forward $256 $-1 #
coedge $-1 $259 $258 $358 $420 reversed $95 $-1 #
coedge $-1 $358 $421 $260 $361 reversed $256 $-1 #
edge $-1 $362 -52.33314004943999 $365 52.33314004943999 $360 $422 forward 7 unknown #
vertex $-1 $261 $423 #
straight-curve $-1 -52.33314004943999 0 10.878952674522628 0 -1 0 I I #
coedge $-1 $268 $262 $421 $424 forward $269 $-1 #
vertex $-1 $263 $425 #
straight-curve $-1 52.33314004943999 0 10.878952674522628 0 1 0 I I #
point $-1 52.33314004943999 -30.186864227193528 10.878952674522628 #
point $-1 -52.33314004943999 -30.186864227193528 10.878952674522628 #
coedge $-1 $421 $358 $271 $370 reversed $256 $-1 #
edge $-1 $371 -52.33314004943999 $373 52.33314004943999 $369 $426 forward 7 unknown #
vertex $-1 $424 $427 #
straight-curve $-1 52.33314004943999 -34.901803046752363 7.8789526745226279 0 -1 0 I I #
vertex $-1 $273 $428 #
straight-curve $-1 -52.33314004943999 -34.901803046752363 7.8789526745226279 0 1 0 I I #
plane-surface $-1 -52.33314004943999 0 0 1 0 0 0 0 -1 forward_v I I I I #
coedge $-1 $429 $279 $280 $379 reversed $176 $-1 #
coedge $-1 $279 $429 $382 $430 reversed $176 $-1 #
edge $-1 $383 -1.5 $380 1.5 $282 $431 forward 7 unknown #
edge $-1 $391 -52.33314004943999 $380 52.33314004943999 $376 $432 forward 7 unknown #
vertex $-1 $281 $433 #
straight-curve $-1 52.33314004943999 34.901803046752363 7.8789526745226279 0 -1 0 I I #
coedge $-1 $386 $283 $377 $430 forward $277 $-1 #
vertex $-1 $284 $434 #
straight-curve $-1 52.33314004943999 0 10.878952674522628 0 1 0 I I #
point $-1 52.33314004943999 30.186864227193528 10.878952674522628 #
coedge $-1 $287 $382 $289 $389 forward $277 $-1 #
straight-curve $-1 0 30.186864227193528 10.878952674522628 1 0 0 I I #
coedge $-1 $290 $289 $429 $435 forward $291 $-1 #
edge $-1 $436 -39.616741866311202 $292 -30.186864227193528 $289 $437 forward 7 unknown #
point $-1 -52.33314004943999 30.186864227193528 10.878952674522628 #
vertex $-1 $379 $438 #
straight-curve $-1 -52.33314004943999 34.901803046752363 7.8789526745226279 0 1 0 I I #
coedge $-1 $308 $307 $300 $394 forward $297 $-1 #
edge $-1 $395 61.776736085089716 $398 70.967942892658598 $393 $439 forward 7 unknown #
vertex $-1 $312 $440 #
straight-curve $-1 44.071267805520414 -0.98811012433959178 10.878952674522623 1 0 0 I I #
edge $-1 $398 -2.9369123066622205 $309 6.8345166713074779 $308 $441 forward 7 unknown #
vertex $-1 $397 $442 #
straight-curve $-1 -1.5739779958950635 -0.98811012433959178 91.404259473889667 -0.51503806187062418 0 0.85716730853699208 I I #
point $-1 46.810506027731883 -0.98811012433959178 10.878952674522623 #
point $-1 52.33314004943999 8.7833188536301066 1.6877458669537475 #
straight-curve $-1 52.33314004943999 0 10.878952674522628 0 1 0 I I #
vertex $-1 $315 $443 #
point $-1 47.422354405898659 3.8976043646452574 3.2418681821970869 #
edge $-1 $406 16.918479281621771 $409 26.109686089190628 $320 $444 forward 7 unknown #
vertex $-1 $334 $445 #
straight-curve $-1 -71.02482682818794 8.7833188536301066 10.87895267452263 -1 0 0 I I #
edge $-1 $409 -6.8345166713074779 $331 2.9369123066622205 $330 $446 forward 7 unknown #
vertex $-1 $408 $447 #
straight-curve $-1 -52.33314004943999 8.7833188536301066 1.6877458669537688 0.51503806187062418 0 0.85716730853699208 I I #
point $-1 -46.810506027731897 8.7833188536301066 10.878952674522628 #
point $-1 -52.33314004943999 -0.98811012433959178 1.6877458669537688 #
straight-curve $-1 -52.33314004943999 0 10.878952674522628 0 -1 0 I I #
vertex $-1 $337 $448 #
point $-1 -45.877240220286787 3.8976043646452574 5.8133701078080486 #
straight-curve $-1 -52.33314004943999 30.186864227193528 0 0 0 -1 I I #
point $-1 -52.33314004943999 -30.186864227193528 -10.878952674522628 #
straight-curve $-1 -52.33314004943999 0 -10.878952674522628 0 1 0 I I #
point $-1 -52.33314004943999 30.186864227193528 -10.878952674522628 #
edge $-1 $362 -1.5 $373 1.5 $359 $449 forward 7 unknown #
coedge $-1 $360 $369 $364 $424 reversed $256 $-1 #
straight-curve $-1 0 -39.616741866311195 10.878952674522628 1 0 0 I I #
point $-1 -52.33314004943999 -39.616741866311195 10.878952674522628 #
edge $-1 $365 -1.5 $371 1.5 $364 $450 forward 7 unknown #
point $-1 52.33314004943999 -39.616741866311195 10.878952674522628 #
straight-curve $-1 0 -39.616741866311195 7.8789526745226279 -1 0 0 I I #
point $-1 52.33314004943999 -39.616741866311195 7.8789526745226279 #
point $-1 -52.33314004943999 -39.616741866311195 7.8789526745226279 #
coedge $-1 $377 $376 $388 $435 reversed $176 $-1 #
edge $-1 $383 -52.33314004943999 $436 52.33314004943999 $377 $451 forward 7 unknown #
straight-curve $-1 52.33314004943999 39.616741866311202 9.3789526745226279 0 0 -1 I I #
straight-curve $-1 0 39.616741866311202 7.8789526745226279 1 0 0 I I #
point $-1 52.33314004943999 39.616741866311202 7.8789526745226279 #
point $-1 52.33314004943999 39.616741866311202 10.878952674522628 #
edge $-1 $436 -1.5 $391 1.5 $429 $452 forward 7 unknown #
vertex $-1 $430 $453 #
straight-curve $-1 -52.33314004943999 0 10.878952674522628 0 -1 0 I I #
point $-1 -52.33314004943999 39.616741866311202 7.8789526745226279 #
straight-curve $-1 52.33314004943999 -0.98811012433959178 72.655688759612346 0 0 -1 I I #
point $-1 52.33314004943999 -0.98811012433959178 10.878952674522628 #
straight-curve $-1 52.33314004943999 1.9488021823226287 1.6877458669537333 0 1 0 I I #
point $-1 52.33314004943999 -0.98811012433959178 1.6877458669537475 #
point $-1 45.364046350287232 3.8976043646452574 3.7550620521966387 #
straight-curve $-1 -52.33314004943999 8.7833188536301066 27.797431956144397 0 0 -1 I I #
point $-1 -52.33314004943999 8.7833188536301066 10.878952674522628 #
straight-curve $-1 -52.33314004943999 1.9488021823226287 1.687745866953767 0 -1 0 I I #
point $-1 -52.33314004943999 8.7833188536301066 1.6877458669537688 #
point $-1 -45.364046350287232 3.8976043646452574 3.7550620521966245 #
straight-curve $-1 -52.33314004943999 -39.616741866311195 9.3789526745226279 0 0 -1 I I #
straight-curve $-1 52.33314004943999 -39.616741866311195 9.3789526745226279 0 0 -1 I I #
straight-curve $-1 0 39.616741866311202 10.878952674522628 -1 0 0 I I #
straight-curve $-1 -52.33314004943999 39.616741866311202 9.3789526745226279 0 0 -1 I I #
point $-1 -52.33314004943999 39.616741866311202 10.878952674522628 #
End-of-ACIS-data 