500 0 5 0           
7 Unknown 11 ACIS 5.0 NT 24 Fri Mar 26 19:14:59 1999 
-1 9.9999999999999995e-007 1e-010 
body $-1 $5 $-1 $6 #
body $-1 $7 $-1 $8 #
body $-1 $9 $-1 $10 #
body $-1 $11 $-1 $12 #
body $-1 $13 $-1 $14 #
lump $-1 $-1 $15 $0 #
transform $-1 1 0 0 0 1 0 0 0 1 71.370586260567038 49.745082989347821 22.675025468578113 1 rotate no_reflect no_shear #
lump $-1 $-1 $16 $1 #
transform $-1 1 0 0 0 1 0 0 0 1 71.370586260567038 49.745082989347821 22.675025468578113 1 rotate no_reflect no_shear #
lump $-1 $-1 $17 $2 #
transform $-1 1 0 0 0 1 0 0 0 1 71.370586260567038 49.745082989347821 22.675025468578113 1 rotate no_reflect no_shear #
lump $-1 $-1 $18 $3 #
transform $-1 1 0 0 0 1 0 0 0 1 71.370586260567038 49.745082989347821 22.675025468578113 1 rotate no_reflect no_shear #
lump $-1 $-1 $19 $4 #
transform $-1 1 0 0 0 1 0 0 0 1 71.370586260567038 49.745082989347821 22.675025468578113 1 rotate no_reflect no_shear #
shell $-1 $-1 $-1 $20 $-1 $5 #
shell $-1 $-1 $-1 $21 $-1 $7 #
shell $-1 $-1 $-1 $22 $-1 $9 #
shell $-1 $-1 $-1 $23 $-1 $11 #
shell $-1 $-1 $-1 $24 $-1 $13 #
face $-1 $25 $26 $15 $-1 $27 forward single #
face $-1 $28 $29 $16 $-1 $30 reversed single #
face $-1 $31 $32 $17 $-1 $33 reversed single #
face $-1 $34 $35 $18 $-1 $36 forward single #
face $-1 $37 $38 $19 $-1 $39 reversed single #
face $-1 $40 $41 $15 $-1 $42 reversed single #
loop $-1 $-1 $43 $20 #
plane-surface $-1 0 0 22.675025468578113 0 0 1 1 0 0 forward_v I I I I #
face $-1 $44 $45 $16 $-1 $46 forward single #
loop $-1 $-1 $47 $21 #
plane-surface $-1 0 -37.401169210121402 -14.9451579345008 0 0 1 1 0 0 forward_v I I I I #
face $-1 $48 $49 $17 $-1 $50 forward single #
loop $-1 $-1 $51 $22 #
plane-surface $-1 0 37.401169210121395 -14.9451579345008 0 0 1 1 0 0 forward_v I I I I #
face $-1 $52 $53 $18 $-1 $54 forward single #
loop $-1 $-1 $55 $23 #
plane-surface $-1 -177.44795118429164 8.5493455399892326 100.45180787221976 0 -1 0 0.74314483375859142 0 -0.66913059716165679 forward_v I I I I #
face $-1 $56 $57 $19 $-1 $58 reversed single #
loop $-1 $59 $60 $24 #
cone-surface $-1 -62.130753028894297 1.1967707630522497 12.677001121475769 0.74314483375859142 0 -0.66913059716165679 1.0036958957424851 0 1.1147172506378871 1 I I 0 1 1.5 forward I I I I #
face $-1 $61 $62 $15 $-1 $63 reversed single #
loop $-1 $-1 $64 $25 #
plane-surface $-1 0 0 -22.675025468578113 0 0 1 1 0 0 forward_v I I I I #
coedge $-1 $65 $66 $67 $68 forward $26 $-1 #
face $-1 $69 $70 $16 $-1 $71 reversed single #
loop $-1 $-1 $72 $28 #
plane-surface $-1 0 -25.057255430894983 -18.810091701539456 0 -1 0 0 0 -1 forward_v I I I I #
coedge $-1 $73 $74 $75 $76 reversed $29 $-1 #
face $-1 $77 $78 $17 $-1 $79 reversed single #
loop $-1 $-1 $80 $31 #
plane-surface $-1 0 25.057255430894976 -18.810091701539456 0 1 0 0 0 1 forward_v I I I I #
coedge $-1 $81 $82 $83 $84 reversed $32 $-1 #
face $-1 $85 $86 $18 $-1 $87 forward single #
loop $-1 $-1 $88 $34 #
plane-surface $-1 -71.370586260567038 1.1967707630522497 4.9393218635982379 -0.74314483375859142 0 0.66913059716165679 0.66913059716165679 0 0.74314483375859142 forward_v I I I I #
coedge $-1 $89 $90 $91 $92 reversed $35 $-1 #
face $-1 $93 $94 $19 $-1 $95 forward single #
loop $-1 $96 $97 $37 #
cone-surface $-1 -60.318210600372879 1.1967707630522497 11.044980628992121 0.74314483375859142 0 -0.66913059716165679 0.50184794787124254 0 0.55735862531894353 1 I I -0.70710678118654757 0.70710678118654757 0.75 forward I I I I #
loop $-1 $-1 $98 $24 #
coedge $-1 $60 $60 $99 $100 reversed $38 $-1 #
face $-1 $101 $102 $15 $-1 $103 reversed single #
loop $-1 $-1 $104 $40 #
plane-surface $-1 0 -49.745082989347821 0 0 1 0 0 0 1 forward_v I I I I #
coedge $-1 $105 $106 $107 $108 forward $41 $-1 #
coedge $-1 $109 $43 $110 $111 forward $26 $-1 #
coedge $-1 $43 $109 $112 $113 forward $26 $-1 #
coedge $-1 $114 $115 $43 $68 reversed $116 $-1 #
edge $-1 $117 -49.745082989347821 $118 49.745082989347821 $67 $119 forward 7 unknown #
face $-1 $120 $121 $16 $-1 $122 reversed single #
loop $-1 $-1 $123 $44 #
plane-surface $-1 0 -49.745082989347821 0 0 1 0 0 0 1 forward_v I I I I #
coedge $-1 $124 $125 $126 $127 reversed $45 $-1 #
coedge $-1 $128 $47 $123 $129 reversed $29 $-1 #
coedge $-1 $47 $128 $124 $130 reversed $29 $-1 #
coedge $-1 $126 $131 $47 $76 forward $132 $-1 #
edge $-1 $133 -31.04449838428712 $134 -6.3566708258342821 $75 $135 forward 7 unknown #
face $-1 $136 $137 $17 $-1 $138 reversed single #
loop $-1 $-1 $139 $48 #
plane-surface $-1 0 49.745082989347821 0 0 -1 0 0 0 -1 forward_v I I I I #
coedge $-1 $140 $141 $142 $143 reversed $49 $-1 #
coedge $-1 $144 $51 $140 $145 reversed $32 $-1 #
coedge $-1 $51 $144 $139 $146 reversed $32 $-1 #
coedge $-1 $147 $148 $51 $84 forward $149 $-1 #
edge $-1 $150 6.3566708258342786 $151 31.044498384287117 $83 $152 forward 7 unknown #
face $-1 $153 $154 $18 $-1 $155 reversed single #
loop $-1 $-1 $156 $52 #
plane-surface $-1 -177.44795118429164 -6.1558040138847332 100.45180787221976 0 1 0 -0.74314483375859142 0 0.66913059716165679 forward_v I I I I #
coedge $-1 $157 $158 $159 $160 reversed $53 $-1 #
coedge $-1 $90 $55 $158 $161 forward $35 $-1 #
coedge $-1 $55 $89 $162 $163 reversed $35 $-1 #
coedge $-1 $164 $159 $55 $92 forward $154 $-1 #
edge $-1 $165 -45.286582072511642 $166 -27.550878467531767 $91 $167 forward 7 unknown #
face $-1 $168 $169 $19 $-1 $170 forward single #
loop $-1 $-1 $171 $56 #
plane-surface $-1 -177.44795118429164 8.5493455399892326 100.45180787221976 0 -1 0 0.74314483375859142 0 -0.66913059716165679 forward_v I I I I #
loop $-1 $-1 $172 $37 #
coedge $-1 $97 $97 $98 $173 forward $57 $-1 #
coedge $-1 $98 $98 $97 $173 reversed $59 $-1 #
coedge $-1 $99 $99 $60 $100 forward $169 $-1 #
edge $-1 $174 0 $174 6.2831853071796004 $99 $175 forward 7 unknown #
face $-1 $176 $177 $15 $-1 $178 reversed single #
loop $-1 $-1 $179 $61 #
plane-surface $-1 -71.370586260567038 0 0 1 0 0 0 0 -1 forward_v I I I I #
coedge $-1 $180 $112 $181 $182 forward $62 $-1 #
coedge $-1 $183 $64 $180 $184 forward $41 $-1 #
coedge $-1 $64 $183 $185 $186 forward $41 $-1 #
coedge $-1 $115 $114 $64 $108 reversed $116 $-1 #
edge $-1 $187 -49.745082989347821 $188 49.745082989347821 $107 $189 forward 7 unknown #
coedge $-1 $66 $65 $190 $191 forward $26 $-1 #
coedge $-1 $192 $193 $65 $111 reversed $177 $-1 #
edge $-1 $118 -71.370586260567038 $194 71.370586260567038 $110 $195 forward 7 unknown #
coedge $-1 $104 $196 $66 $113 reversed $62 $-1 #
edge $-1 $197 -71.370586260567038 $117 71.370586260567038 $112 $198 forward 7 unknown #
coedge $-1 $107 $67 $196 $199 forward $116 $-1 #
coedge $-1 $67 $107 $192 $200 reversed $116 $-1 #
loop $-1 $-1 $114 $176 #
vertex $-1 $68 $201 #
vertex $-1 $68 $202 #
straight-curve $-1 71.370586260567038 0 22.675025468578113 0 1 0 I I #
face $-1 $203 $204 $16 $-1 $205 forward single #
loop $-1 $-1 $206 $69 #
plane-surface $-1 0 0 -22.675025468578113 0 0 1 1 0 0 forward_v I I I I #
coedge $-1 $207 $208 $73 $129 forward $70 $-1 #
coedge $-1 $209 $72 $74 $130 forward $45 $-1 #
coedge $-1 $72 $209 $206 $210 reversed $45 $-1 #
coedge $-1 $211 $75 $72 $127 forward $132 $-1 #
edge $-1 $134 5.5401120837310724 $212 13.269979617808385 $126 $213 forward 7 unknown #
coedge $-1 $74 $73 $214 $215 reversed $29 $-1 #
edge $-1 $216 -71.370586260567038 $133 71.370586260567038 $123 $217 forward 7 unknown #
edge $-1 $134 -71.370586260567038 $218 71.370586260567038 $124 $219 forward 7 unknown #
coedge $-1 $75 $220 $207 $221 forward $132 $-1 #
loop $-1 $-1 $126 $222 #
vertex $-1 $129 $223 #
vertex $-1 $76 $224 #
straight-curve $-1 71.370586260567038 -18.700584605060701 -14.9451579345008 0 1 0 I I #
face $-1 $225 $226 $17 $-1 $227 reversed single #
loop $-1 $-1 $228 $77 #
plane-surface $-1 -71.370586260567038 0 0 1 0 0 0 0 -1 forward_v I I I I #
coedge $-1 $229 $230 $82 $146 forward $78 $-1 #
coedge $-1 $231 $80 $81 $145 forward $49 $-1 #
coedge $-1 $80 $231 $232 $233 reversed $49 $-1 #
coedge $-1 $234 $228 $80 $143 forward $137 $-1 #
edge $-1 $235 5.5401120837310724 $236 13.269979617808385 $142 $237 forward 7 unknown #
coedge $-1 $82 $81 $228 $238 reversed $32 $-1 #
edge $-1 $235 -71.370586260567038 $150 71.370586260567038 $140 $239 forward 7 unknown #
edge $-1 $151 -71.370586260567038 $240 71.370586260567038 $139 $241 forward 7 unknown #
coedge $-1 $242 $83 $230 $243 reversed $149 $-1 #
coedge $-1 $83 $244 $231 $245 forward $149 $-1 #
loop $-1 $-1 $83 $246 #
vertex $-1 $84 $247 #
vertex $-1 $146 $248 #
straight-curve $-1 71.370586260567038 18.700584605060698 -14.9451579345008 0 1 0 I I #
face $-1 $249 $250 $18 $-1 $251 reversed single #
loop $-1 $-1 $252 $85 #
plane-surface $-1 -71.370586260567038 0 0 1 0 0 0 0 -1 forward_v I I I I #
coedge $-1 $253 $254 $252 $255 reversed $86 $-1 #
coedge $-1 $256 $88 $254 $257 reversed $53 $-1 #
coedge $-1 $88 $256 $89 $161 reversed $53 $-1 #
coedge $-1 $91 $252 $88 $160 forward $154 $-1 #
edge $-1 $258 -6.7541893954108581 $165 7.9509601584631078 $159 $259 forward 7 unknown #
edge $-1 $165 0 $260 23.865742987512 $89 $261 forward 7 unknown #
coedge $-1 $262 $263 $90 $163 forward $264 $-1 #
edge $-1 $166 17.353389331578782 $260 33.322688188519308 $162 $265 forward 7 unknown #
coedge $-1 $266 $91 $263 $267 reversed $154 $-1 #
vertex $-1 $160 $268 #
vertex $-1 $163 $269 #
straight-curve $-1 -71.370586260567038 8.5493455399892326 50.22590393610988 0 0 1 I I #
face $-1 $270 $271 $19 $-1 $272 forward single #
loop $-1 $273 $99 $93 #
plane-surface $-1 -71.370586260567038 1.1967707630522497 4.9393218635982379 -0.74314483375859142 0 0.66913059716165679 0.66913059716165679 0 0.74314483375859142 forward_v I I I I #
coedge $-1 $274 $275 $276 $277 reversed $94 $-1 #
coedge $-1 $172 $172 $-1 $278 forward $96 $-1 #
edge $-1 $279 0 $279 6.2831853071796004 $97 $280 forward 7 unknown #
vertex $-1 $100 $281 #
ellipse-curve $-1 -63.385936832096775 1.1967707630522497 13.807173666088175 0.74314483375859142 0 -0.66913059716165679 1.0036958957424851 0 1.1147172506378871 1 I I #
face $-1 $-1 $116 $15 $-1 $282 reversed single #
loop $-1 $-1 $192 $101 #
plane-surface $-1 0 49.745082989347821 0 0 -1 0 0 0 -1 forward_v I I I I #
coedge $-1 $283 $190 $193 $284 forward $102 $-1 #
coedge $-1 $196 $104 $105 $184 reversed $62 $-1 #
coedge $-1 $190 $283 $104 $182 reversed $102 $-1 #
edge $-1 $197 -22.675025468578113 $285 22.675025468578113 $181 $286 forward 7 unknown #
coedge $-1 $106 $105 $283 $287 forward $41 $-1 #
edge $-1 $188 -71.370586260567038 $285 71.370586260567038 $180 $288 forward 7 unknown #
coedge $-1 $193 $192 $106 $186 reversed $177 $-1 #
edge $-1 $289 -71.370586260567038 $187 71.370586260567038 $185 $290 forward 7 unknown #
vertex $-1 $108 $291 #
vertex $-1 $199 $292 #
straight-curve $-1 71.370586260567038 0 -22.675025468578113 0 -1 0 I I #
coedge $-1 $179 $181 $109 $191 reversed $102 $-1 #
edge $-1 $194 -49.745082989347821 $197 49.745082989347821 $190 $293 forward 7 unknown #
coedge $-1 $185 $110 $115 $200 forward $177 $-1 #
coedge $-1 $110 $185 $179 $284 reversed $177 $-1 #
vertex $-1 $111 $294 #
straight-curve $-1 0 49.745082989347821 22.675025468578113 -1 0 0 I I #
coedge $-1 $112 $180 $114 $199 reversed $62 $-1 #
vertex $-1 $191 $295 #
straight-curve $-1 0 -49.745082989347821 22.675025468578113 1 0 0 I I #
edge $-1 $117 -22.675025468578113 $188 22.675025468578113 $114 $296 forward 7 unknown #
edge $-1 $118 -22.675025468578113 $187 22.675025468578113 $115 $297 forward 7 unknown #
point $-1 71.370586260567038 -49.745082989347821 22.675025468578113 #
point $-1 71.370586260567038 49.745082989347821 22.675025468578113 #
face $-1 $298 $299 $16 $-1 $300 reversed single #
loop $-1 $-1 $301 $120 #
plane-surface $-1 0 0 22.675025468578113 0 0 1 1 0 0 forward_v I I I I #
coedge $-1 $302 $303 $125 $210 forward $121 $-1 #
coedge $-1 $304 $123 $131 $221 reversed $70 $-1 #
coedge $-1 $123 $304 $305 $306 forward $70 $-1 #
coedge $-1 $125 $124 $307 $308 reversed $45 $-1 #
edge $-1 $212 -71.370586260567038 $309 71.370586260567038 $206 $310 forward 7 unknown #
coedge $-1 $311 $126 $303 $312 reversed $132 $-1 #
vertex $-1 $210 $313 #
straight-curve $-1 71.370586260567038 -25.057255430894983 -9.4050458507697279 0 0 -1 I I #
coedge $-1 $305 $307 $128 $215 forward $299 $-1 #
edge $-1 $218 6.3566708258342821 $216 31.04449838428712 $214 $314 forward 7 unknown #
vertex $-1 $129 $315 #
straight-curve $-1 0 -49.745082989347821 -14.9451579345008 1 0 0 I I #
vertex $-1 $215 $316 #
straight-curve $-1 0 -25.057255430894983 -14.9451579345008 -1 0 0 I I #
coedge $-1 $131 $311 $301 $317 reversed $132 $-1 #
edge $-1 $318 -22.675025468578113 $133 14.9451579345008 $131 $319 forward 7 unknown #
face $-1 $-1 $132 $16 $-1 $320 reversed single #
point $-1 71.370586260567038 -49.745082989347821 -14.9451579345008 #
point $-1 71.370586260567038 -25.057255430894983 -14.9451579345008 #
face $-1 $321 $322 $17 $-1 $323 forward single #
loop $-1 $-1 $324 $136 #
plane-surface $-1 0 -37.401169210121402 -14.9451579345008 0 0 1 1 0 0 forward_v I I I I #
coedge $-1 $142 $325 $144 $238 forward $137 $-1 #
coedge $-1 $326 $139 $325 $327 reversed $78 $-1 #
coedge $-1 $139 $326 $147 $243 forward $78 $-1 #
coedge $-1 $141 $140 $148 $245 reversed $49 $-1 #
coedge $-1 $328 $329 $141 $233 forward $330 $-1 #
edge $-1 $236 -71.370586260567038 $331 71.370586260567038 $232 $332 forward 7 unknown #
coedge $-1 $333 $142 $329 $334 reversed $137 $-1 #
vertex $-1 $238 $335 #
vertex $-1 $143 $336 #
straight-curve $-1 -71.370586260567038 25.057255430894976 -9.4050458507697279 0 0 -1 I I #
edge $-1 $240 -31.044498384287117 $235 -6.3566708258342786 $228 $337 forward 7 unknown #
straight-curve $-1 0 25.057255430894976 -14.9451579345008 1 0 0 I I #
vertex $-1 $238 $338 #
straight-curve $-1 0 49.745082989347821 -14.9451579345008 -1 0 0 I I #
coedge $-1 $339 $147 $340 $341 reversed $149 $-1 #
edge $-1 $342 -22.675025468578113 $151 14.9451579345008 $147 $343 forward 7 unknown #
coedge $-1 $148 $344 $328 $345 reversed $149 $-1 #
edge $-1 $331 -13.269979617808385 $150 -5.5401120837310724 $148 $346 forward 7 unknown #
face $-1 $-1 $149 $17 $-1 $347 reversed single #
point $-1 71.370586260567038 25.057255430894976 -14.9451579345008 #
point $-1 71.370586260567038 49.745082989347814 -14.9451579345008 #
face $-1 $348 $349 $18 $-1 $350 forward single #
loop $-1 $-1 $351 $153 #
plane-surface $-1 0 37.401169210121395 -14.9451579345008 0 0 1 1 0 0 forward_v I I I I #
coedge $-1 $159 $352 $156 $255 forward $154 $-1 #
coedge $-1 $254 $156 $353 $354 reversed $86 $-1 #
coedge $-1 $156 $253 $157 $257 forward $86 $-1 #
edge $-1 $355 27.550878467531767 $258 45.286582072511642 $252 $356 forward 7 unknown #
coedge $-1 $158 $157 $262 $357 reversed $53 $-1 #
edge $-1 $358 -23.865742987512 $258 0 $254 $359 forward 7 unknown #
vertex $-1 $160 $360 #
straight-curve $-1 -71.370586260567038 0.59838538152612486 4.9393218635982405 0 1 0 I I #
vertex $-1 $357 $361 #
straight-curve $-1 -71.370586260567038 8.5493455399892326 4.9393218635982379 0.66913059716165679 0 0.74314483375859142 I I #
coedge $-1 $353 $162 $256 $357 forward $264 $-1 #
coedge $-1 $162 $362 $164 $267 forward $264 $-1 #
loop $-1 $-1 $353 $363 #
straight-curve $-1 -88.72397559214582 8.5493455399892326 22.675025468578113 1 0 0 I I #
coedge $-1 $364 $164 $365 $366 forward $154 $-1 #
edge $-1 $367 -49.745082989347821 $166 -8.5493455399892326 $164 $368 forward 7 unknown #
point $-1 -71.370586260567038 8.5493455399892326 4.9393218635982379 #
point $-1 -71.370586260567038 8.5493455399892326 22.675025468578113 #
face $-1 $369 $370 $19 $-1 $371 reversed single #
loop $-1 $-1 $372 $168 #
plane-surface $-1 -177.44795118429164 -6.1558040138847332 100.45180787221976 0 1 0 -0.74314483375859142 0 0.66913059716165679 forward_v I I I I #
loop $-1 $-1 $373 $93 #
coedge $-1 $275 $171 $374 $375 forward $94 $-1 #
coedge $-1 $171 $274 $376 $377 reversed $94 $-1 #
coedge $-1 $378 $379 $171 $277 forward $370 $-1 #
edge $-1 $380 -45.286582072511642 $381 -27.550878467531767 $276 $382 forward 7 unknown #
edge $-1 $383 1 $383 0 $172 $-1 forward 7 unknown #
vertex $-1 $173 $384 #
ellipse-curve $-1 -60.875569225691819 1.1967707630522497 11.546828576863364 -0.74314483375859142 0 0.66913059716165679 1.0036958957424851 0 1.1147172506378871 1 I I #
point $-1 -62.382240936354286 1.1967707630522497 14.921890916726063 #
plane-surface $-1 71.370586260567038 0 0 -1 0 0 0 0 1 forward_v I I I I #
coedge $-1 $181 $179 $183 $287 reversed $102 $-1 #
edge $-1 $194 -22.675025468578113 $289 22.675025468578113 $193 $385 forward 7 unknown #
vertex $-1 $287 $386 #
straight-curve $-1 -71.370586260567038 -49.745082989347821 0 0 0 -1 I I #
edge $-1 $285 -49.745082989347821 $289 49.745082989347821 $283 $387 forward 7 unknown #
straight-curve $-1 0 -49.745082989347821 -22.675025468578113 -1 0 0 I I #
vertex $-1 $186 $388 #
straight-curve $-1 0 49.745082989347821 -22.675025468578113 1 0 0 I I #
point $-1 71.370586260567038 49.745082989347821 -22.675025468578113 #
point $-1 71.370586260567038 -49.745082989347821 -22.675025468578113 #
straight-curve $-1 -71.370586260567038 0 22.675025468578113 0 -1 0 I I #
point $-1 -71.370586260567038 49.745082989347821 22.675025468578113 #
point $-1 -71.370586260567038 -49.745082989347821 22.675025468578113 #
straight-curve $-1 71.370586260567038 -49.745082989347821 0 0 0 -1 I I #
straight-curve $-1 71.370586260567038 49.745082989347821 0 0 0 -1 I I #
face $-1 $222 $389 $16 $-1 $390 reversed single #
loop $-1 $-1 $214 $203 #
plane-surface $-1 -71.370586260567038 0 0 1 0 0 0 0 -1 forward_v I I I I #
coedge $-1 $391 $392 $220 $317 forward $204 $-1 #
coedge $-1 $393 $206 $394 $395 forward $121 $-1 #
coedge $-1 $206 $393 $211 $312 forward $121 $-1 #
coedge $-1 $208 $207 $392 $396 reversed $70 $-1 #
coedge $-1 $397 $214 $208 $306 reversed $299 $-1 #
edge $-1 $398 -22.675025468578113 $216 14.9451579345008 $305 $399 forward 7 unknown #
coedge $-1 $214 $394 $209 $308 forward $299 $-1 #
edge $-1 $309 -13.269979617808385 $218 -5.5401120837310724 $307 $400 forward 7 unknown #
vertex $-1 $395 $401 #
straight-curve $-1 0 -25.057255430894983 -22.675025468578113 -1 0 0 I I #
coedge $-1 $220 $211 $402 $403 reversed $132 $-1 #
edge $-1 $404 -49.745082989347821 $212 25.057255430894983 $211 $405 forward 7 unknown #
point $-1 71.370586260567038 -25.057255430894983 -22.675025468578113 #
straight-curve $-1 -71.370586260567038 -18.700584605060701 -14.9451579345008 0 -1 0 I I #
point $-1 -71.370586260567038 -49.745082989347821 -14.9451579345008 #
point $-1 -71.370586260567038 -25.057255430894983 -14.9451579345008 #
edge $-1 $318 -49.745082989347821 $406 49.745082989347821 $220 $407 forward 7 unknown #
vertex $-1 $317 $408 #
straight-curve $-1 71.370586260567038 -49.745082989347821 0 0 0 -1 I I #
plane-surface $-1 71.370586260567038 0 0 -1 0 0 0 0 1 forward_v I I I I #
face $-1 $409 $410 $17 $-1 $411 reversed single #
loop $-1 $-1 $412 $225 #
plane-surface $-1 0 -25.057255430894983 -18.810091701539456 0 -1 0 0 0 -1 forward_v I I I I #
coedge $-1 $413 $414 $415 $416 reversed $226 $-1 #
coedge $-1 $228 $417 $229 $327 forward $137 $-1 #
coedge $-1 $230 $229 $418 $419 reversed $78 $-1 #
edge $-1 $420 -22.675025468578113 $240 14.9451579345008 $229 $421 forward 7 unknown #
coedge $-1 $422 $232 $244 $345 forward $330 $-1 #
coedge $-1 $232 $422 $234 $334 forward $330 $-1 #
loop $-1 $-1 $232 $409 #
vertex $-1 $345 $423 #
straight-curve $-1 0 25.057255430894976 -22.675025468578113 1 0 0 I I #
coedge $-1 $424 $234 $425 $426 forward $137 $-1 #
edge $-1 $427 -25.057255430894983 $236 25.057255430894976 $234 $428 forward 7 unknown #
point $-1 -71.370586260567038 25.057255430894976 -14.9451579345008 #
point $-1 -71.370586260567038 25.057255430894976 -22.675025468578113 #
straight-curve $-1 -71.370586260567038 18.700584605060698 -14.9451579345008 0 -1 0 I I #
point $-1 -71.370586260567038 49.745082989347814 -14.9451579345008 #
coedge $-1 $415 $242 $429 $430 forward $149 $-1 #
coedge $-1 $418 $431 $242 $341 forward $432 $-1 #
edge $-1 $433 -49.745082989347821 $342 49.745082989347821 $242 $434 forward 7 unknown #
vertex $-1 $341 $435 #
straight-curve $-1 71.370586260567038 49.745082989347821 0 0 0 -1 I I #
coedge $-1 $244 $415 $412 $436 forward $149 $-1 #
edge $-1 $331 -25.057255430894976 $437 25.057255430894983 $244 $438 forward 7 unknown #
straight-curve $-1 71.370586260567038 25.057255430894976 -9.4050458507697279 0 0 1 I I #
plane-surface $-1 71.370586260567038 0 0 -1 0 0 0 0 1 forward_v I I I I #
face $-1 $439 $440 $18 $-1 $441 reversed single #
loop $-1 $-1 $442 $249 #
plane-surface $-1 0 25.057255430894976 -18.810091701539456 0 1 0 0 0 1 forward_v I I I I #
coedge $-1 $443 $444 $445 $446 reversed $250 $-1 #
coedge $-1 $252 $447 $448 $449 reversed $154 $-1 #
coedge $-1 $448 $262 $253 $354 forward $264 $-1 #
edge $-1 $358 -33.322688188519308 $355 -17.353389331578782 $353 $450 forward 7 unknown #
vertex $-1 $449 $451 #
straight-curve $-1 -71.370586260567038 -6.1558040138847332 50.22590393610988 0 0 -1 I I #
edge $-1 $260 -7.9509601584631078 $358 6.7541893954108581 $262 $452 forward 7 unknown #
vertex $-1 $357 $453 #
straight-curve $-1 -71.370586260567038 -6.1558040138847332 4.9393218635982379 -0.66913059716165679 0 -0.74314483375859142 I I #
point $-1 -71.370586260567038 -6.1558040138847332 4.9393218635982379 #
point $-1 -55.401287403626512 8.5493455399892326 22.675025468578113 #
coedge $-1 $263 $454 $455 $456 forward $264 $-1 #
face $-1 $457 $264 $18 $-1 $458 forward single #
coedge $-1 $459 $266 $460 $461 forward $154 $-1 #
coedge $-1 $455 $462 $266 $366 reversed $440 $-1 #
edge $-1 $367 -22.675025468578113 $463 14.9451579345008 $365 $464 forward 7 unknown #
vertex $-1 $456 $465 #
straight-curve $-1 -71.370586260567038 0 22.675025468578113 0 -1 0 I I #
face $-1 $466 $467 $19 $-1 $468 reversed single #
loop $-1 $-1 $469 $270 #
plane-surface $-1 -71.370586260567038 0 0 1 0 0 0 0 -1 forward_v I I I I #
coedge $-1 $470 $471 $469 $472 reversed $271 $-1 #
coedge $-1 $473 $374 $379 $474 reversed $273 $-1 #
coedge $-1 $373 $475 $274 $375 reversed $273 $-1 #
edge $-1 $380 0 $476 23.865742987512 $274 $477 forward 7 unknown #
coedge $-1 $478 $479 $275 $377 forward $480 $-1 #
edge $-1 $381 17.353389331578782 $476 33.322688188519308 $376 $481 forward 7 unknown #
coedge $-1 $482 $276 $479 $483 reversed $370 $-1 #
coedge $-1 $276 $469 $373 $474 forward $370 $-1 #
vertex $-1 $474 $484 #
vertex $-1 $377 $485 #
straight-curve $-1 -71.370586260567038 8.5493455399892326 50.22590393610988 0 0 1 I I #
vertex $-1 $278 $486 #
point $-1 -59.871873329949338 1.1967707630522497 12.66154582750125 #
straight-curve $-1 -71.370586260567038 49.745082989347821 0 0 0 -1 I I #
point $-1 -71.370586260567038 -49.745082989347821 -22.675025468578113 #
straight-curve $-1 -71.370586260567038 0 -22.675025468578113 0 1 0 I I #
point $-1 -71.370586260567038 49.745082989347821 -22.675025468578113 #
loop $-1 $-1 $402 $298 #
plane-surface $-1 0 49.745082989347821 0 0 -1 0 0 0 -1 forward_v I I I I #
coedge $-1 $487 $301 $488 $489 forward $204 $-1 #
coedge $-1 $301 $487 $304 $396 forward $204 $-1 #
coedge $-1 $303 $302 $490 $491 forward $121 $-1 #
coedge $-1 $307 $492 $302 $395 reversed $299 $-1 #
edge $-1 $309 -25.057255430894983 $493 49.745082989347821 $394 $494 forward 7 unknown #
edge $-1 $398 -71.370586260567038 $318 71.370586260567038 $304 $495 forward 7 unknown #
coedge $-1 $492 $305 $487 $496 reversed $299 $-1 #
vertex $-1 $496 $497 #
straight-curve $-1 -71.370586260567038 -49.745082989347821 0 0 0 -1 I I #
straight-curve $-1 -71.370586260567038 -25.057255430894983 -9.4050458507697279 0 0 1 I I #
point $-1 -71.370586260567038 -25.057255430894983 -22.675025468578113 #
coedge $-1 $490 $488 $311 $403 forward $389 $-1 #
edge $-1 $406 -22.675025468578113 $404 22.675025468578113 $311 $498 forward 7 unknown #
vertex $-1 $312 $499 #
straight-curve $-1 71.370586260567038 0 -22.675025468578113 0 -1 0 I I #
vertex $-1 $317 $500 #
straight-curve $-1 71.370586260567038 0 22.675025468578113 0 1 0 I I #
point $-1 71.370586260567038 -49.745082989347821 22.675025468578113 #
face $-1 $501 $330 $17 $-1 $502 reversed single #
loop $-1 $-1 $503 $321 #
plane-surface $-1 0 -49.745082989347821 0 0 1 0 0 0 1 forward_v I I I I #
coedge $-1 $504 $505 $344 $436 reversed $322 $-1 #
coedge $-1 $506 $324 $503 $507 reversed $226 $-1 #
coedge $-1 $324 $506 $504 $508 reversed $226 $-1 #
coedge $-1 $344 $339 $324 $416 forward $149 $-1 #
edge $-1 $509 -31.04449838428712 $510 -6.3566708258342821 $415 $511 forward 7 unknown #
coedge $-1 $325 $512 $513 $514 reversed $137 $-1 #
coedge $-1 $513 $340 $326 $419 forward $432 $-1 #
edge $-1 $342 -71.370586260567038 $420 71.370586260567038 $326 $515 forward 7 unknown #
vertex $-1 $419 $516 #
straight-curve $-1 -71.370586260567038 49.745082989347821 0 0 0 -1 I I #
coedge $-1 $329 $328 $505 $517 forward $330 $-1 #
point $-1 71.370586260567038 25.057255430894976 -22.675025468578113 #
coedge $-1 $512 $333 $506 $518 forward $137 $-1 #
coedge $-1 $505 $504 $333 $426 reversed $322 $-1 #
edge $-1 $427 -13.269979617808385 $519 -5.5401120837310724 $333 $520 forward 7 unknown #
vertex $-1 $334 $521 #
straight-curve $-1 -71.370586260567038 0 -22.675025468578113 0 1 0 I I #
coedge $-1 $522 $503 $339 $430 reversed $410 $-1 #
edge $-1 $433 -22.675025468578113 $509 14.9451579345008 $339 $523 forward 7 unknown #
coedge $-1 $340 $513 $522 $524 forward $432 $-1 #
loop $-1 $-1 $340 $501 #
vertex $-1 $341 $525 #
straight-curve $-1 71.370586260567038 0 22.675025468578113 0 1 0 I I #
point $-1 71.370586260567038 49.745082989347821 22.675025468578113 #
edge $-1 $510 5.5401120837310724 $437 13.269979617808385 $344 $526 forward 7 unknown #
vertex $-1 $517 $527 #
straight-curve $-1 71.370586260567038 0 -22.675025468578113 0 -1 0 I I #
face $-1 $528 $529 $18 $-1 $530 reversed single #
loop $-1 $-1 $462 $348 #
plane-surface $-1 0 49.745082989347821 0 0 -1 0 0 0 -1 forward_v I I I I #
coedge $-1 $531 $532 $459 $533 reversed $349 $-1 #
coedge $-1 $460 $351 $531 $534 reversed $250 $-1 #
coedge $-1 $351 $460 $462 $535 reversed $250 $-1 #
coedge $-1 $536 $537 $351 $446 forward $538 $-1 #
edge $-1 $539 6.3566708258342786 $540 31.044498384287117 $445 $541 forward 7 unknown #
coedge $-1 $352 $542 $543 $544 reversed $154 $-1 #
coedge $-1 $545 $353 $352 $449 forward $264 $-1 #
edge $-1 $355 6.1558040138847332 $546 49.745082989347821 $352 $368 forward 7 unknown #
straight-curve $-1 -88.72397559214582 -6.1558040138847332 22.675025468578113 -1 0 0 I I #
point $-1 -71.370586260567038 -6.1558040138847332 22.675025468578113 #
straight-curve $-1 -55.401287403626505 0.59838538152612486 22.675025468578113 0 -1 0 I I #
point $-1 -55.401287403626512 -6.1558040138847332 22.675025468578113 #
coedge $-1 $362 $545 $547 $548 forward $264 $-1 #
coedge $-1 $549 $365 $362 $456 reversed $440 $-1 #
edge $-1 $550 -71.370586260567038 $367 71.370586260567038 $455 $551 forward 7 unknown #
face $-1 $-1 $538 $18 $-1 $552 reversed single #
plane-surface $-1 0 0 22.675025468578113 0 0 1 1 0 0 forward_v I I I I #
coedge $-1 $553 $364 $442 $533 forward $154 $-1 #
coedge $-1 $444 $443 $364 $461 reversed $250 $-1 #
edge $-1 $463 -31.044498384287117 $554 -6.3566708258342786 $364 $555 forward 7 unknown #
coedge $-1 $365 $549 $444 $535 forward $440 $-1 #
vertex $-1 $461 $556 #
straight-curve $-1 -71.370586260567038 49.745082989347821 0 0 0 -1 I I #
point $-1 -71.370586260567038 49.745082989347821 22.675025468578113 #
face $-1 $557 $558 $19 $-1 $559 forward single #
loop $-1 $-1 $560 $369 #
plane-surface $-1 0 37.401169210121395 -14.9451579345008 0 0 1 1 0 0 forward_v I I I I #
coedge $-1 $379 $561 $372 $472 forward $370 $-1 #
coedge $-1 $471 $372 $562 $563 reversed $271 $-1 #
coedge $-1 $372 $470 $473 $564 forward $271 $-1 #
edge $-1 $565 27.550878467531767 $566 45.286582072511642 $469 $567 forward 7 unknown #
coedge $-1 $475 $373 $471 $564 reversed $273 $-1 #
edge $-1 $566 -6.7541893954108581 $380 7.9509601584631078 $379 $568 forward 7 unknown #
coedge $-1 $374 $473 $478 $569 reversed $273 $-1 #
vertex $-1 $569 $570 #
straight-curve $-1 -71.370586260567038 8.5493455399892326 4.9393218635982379 0.66913059716165679 0 0.74314483375859142 I I #
coedge $-1 $562 $376 $475 $569 forward $480 $-1 #
coedge $-1 $376 $571 $378 $483 forward $480 $-1 #
loop $-1 $-1 $562 $572 #
straight-curve $-1 -88.72397559214582 8.5493455399892326 22.675025468578113 1 0 0 I I #
coedge $-1 $573 $378 $574 $575 forward $370 $-1 #
edge $-1 $576 -49.745082989347821 $381 -8.5493455399892326 $378 $577 forward 7 unknown #
point $-1 -71.370586260567038 8.5493455399892326 4.9393218635982379 #
point $-1 -71.370586260567038 8.5493455399892326 22.675025468578113 #
point $-1 -59.760851975053939 1.1967707630522497 10.543132681120879 #
coedge $-1 $392 $391 $397 $496 forward $204 $-1 #
coedge $-1 $402 $578 $391 $489 reversed $389 $-1 #
edge $-1 $406 -71.370586260567038 $579 71.370586260567038 $488 $580 forward 7 unknown #
coedge $-1 $578 $402 $393 $491 reversed $389 $-1 #
edge $-1 $493 -71.370586260567038 $404 71.370586260567038 $490 $581 forward 7 unknown #
coedge $-1 $394 $397 $578 $582 forward $299 $-1 #
vertex $-1 $491 $583 #
straight-curve $-1 -71.370586260567038 0 -22.675025468578113 0 1 0 I I #
straight-curve $-1 0 -49.745082989347821 22.675025468578113 1 0 0 I I #
edge $-1 $579 -49.745082989347821 $398 49.745082989347821 $397 $584 forward 7 unknown #
point $-1 -71.370586260567038 -49.745082989347821 22.675025468578113 #
straight-curve $-1 71.370586260567038 49.745082989347821 0 0 0 -1 I I #
point $-1 71.370586260567038 49.745082989347821 -22.675025468578113 #
point $-1 71.370586260567038 49.745082989347821 22.675025468578113 #
face $-1 $246 $432 $17 $-1 $585 forward single #
plane-surface $-1 0 0 -22.675025468578113 0 0 1 1 0 0 forward_v I I I I #
coedge $-1 $429 $586 $413 $507 forward $410 $-1 #
coedge $-1 $425 $412 $414 $508 forward $322 $-1 #
coedge $-1 $412 $425 $422 $517 reversed $322 $-1 #
coedge $-1 $414 $413 $424 $518 reversed $226 $-1 #
edge $-1 $587 -71.370586260567038 $509 71.370586260567038 $503 $588 forward 7 unknown #
edge $-1 $510 -71.370586260567038 $519 71.370586260567038 $504 $589 forward 7 unknown #
vertex $-1 $507 $590 #
vertex $-1 $416 $591 #
straight-curve $-1 71.370586260567038 -18.700584605060701 -14.9451579345008 0 1 0 I I #
coedge $-1 $417 $424 $586 $592 reversed $137 $-1 #
coedge $-1 $431 $418 $417 $514 forward $432 $-1 #
edge $-1 $420 -49.745082989347821 $593 49.745082989347821 $417 $594 forward 7 unknown #
straight-curve $-1 0 49.745082989347821 22.675025468578113 -1 0 0 I I #
point $-1 -71.370586260567038 49.745082989347821 22.675025468578113 #
edge $-1 $437 -71.370586260567038 $427 71.370586260567038 $422 $595 forward 7 unknown #
edge $-1 $519 6.3566708258342821 $587 31.04449838428712 $424 $596 forward 7 unknown #
vertex $-1 $518 $597 #
straight-curve $-1 -71.370586260567038 -25.057255430894983 -9.4050458507697279 0 0 1 I I #
point $-1 -71.370586260567038 -25.057255430894983 -22.675025468578113 #
coedge $-1 $586 $429 $431 $524 reversed $410 $-1 #
straight-curve $-1 71.370586260567038 -49.745082989347821 0 0 0 -1 I I #
edge $-1 $593 -71.370586260567038 $433 71.370586260567038 $522 $598 forward 7 unknown #
point $-1 71.370586260567038 -49.745082989347821 22.675025468578113 #
straight-curve $-1 71.370586260567038 -25.057255430894983 -9.4050458507697279 0 0 -1 I I #
point $-1 71.370586260567038 -25.057255430894983 -22.675025468578113 #
face $-1 $599 $600 $18 $-1 $601 forward single #
loop $-1 $-1 $602 $439 #
plane-surface $-1 0 -37.401169210121402 -14.9451579345008 0 0 1 1 0 0 forward_v I I I I #
coedge $-1 $603 $442 $443 $534 forward $349 $-1 #
coedge $-1 $442 $603 $604 $605 reversed $349 $-1 #
edge $-1 $554 5.5401120837310724 $606 13.269979617808385 $459 $607 forward 7 unknown #
edge $-1 $554 -71.370586260567038 $539 71.370586260567038 $531 $608 forward 7 unknown #
edge $-1 $540 -71.370586260567038 $463 71.370586260567038 $462 $609 forward 7 unknown #
coedge $-1 $547 $445 $549 $610 reversed $538 $-1 #
coedge $-1 $445 $611 $603 $612 forward $538 $-1 #
loop $-1 $-1 $445 $457 #
vertex $-1 $446 $613 #
vertex $-1 $535 $614 #
straight-curve $-1 71.370586260567038 18.700584605060698 -14.9451579345008 0 1 0 I I #
coedge $-1 $447 $615 $616 $617 forward $154 $-1 #
coedge $-1 $618 $619 $447 $544 forward $620 $-1 #
edge $-1 $546 -22.675025468578113 $621 14.9451579345008 $447 $622 forward 7 unknown #
coedge $-1 $454 $448 $619 $623 forward $264 $-1 #
vertex $-1 $449 $624 #
coedge $-1 $625 $536 $454 $548 reversed $538 $-1 #
edge $-1 $626 -49.745082989347821 $550 49.745082989347821 $547 $627 forward 7 unknown #
coedge $-1 $462 $455 $536 $610 forward $440 $-1 #
vertex $-1 $548 $628 #
straight-curve $-1 0 49.745082989347821 22.675025468578113 -1 0 0 I I #
plane-surface $-1 71.370586260567038 0 0 -1 0 0 0 0 1 forward_v I I I I #
coedge $-1 $615 $459 $629 $630 reversed $154 $-1 #
vertex $-1 $461 $631 #
straight-curve $-1 -71.370586260567038 18.700584605060698 -14.9451579345008 0 -1 0 I I #
point $-1 -71.370586260567038 49.745082989347814 -14.9451579345008 #
face $-1 $632 $633 $19 $-1 $634 reversed single #
loop $-1 $-1 $635 $466 #
plane-surface $-1 0 25.057255430894976 -18.810091701539456 0 1 0 0 0 1 forward_v I I I I #
coedge $-1 $636 $637 $638 $639 reversed $467 $-1 #
coedge $-1 $469 $640 $641 $642 reversed $370 $-1 #
coedge $-1 $641 $478 $470 $563 forward $480 $-1 #
edge $-1 $643 -33.322688188519308 $565 -17.353389331578782 $562 $644 forward 7 unknown #
edge $-1 $643 -23.865742987512 $566 0 $471 $645 forward 7 unknown #
vertex $-1 $642 $646 #
vertex $-1 $474 $647 #
straight-curve $-1 -71.370586260567038 -6.1558040138847332 50.22590393610988 0 0 -1 I I #
straight-curve $-1 -71.370586260567038 0.59838538152612486 4.9393218635982405 0 1 0 I I #
edge $-1 $476 -7.9509601584631078 $643 6.7541893954108581 $478 $648 forward 7 unknown #
point $-1 -55.401287403626512 8.5493455399892326 22.675025468578113 #
coedge $-1 $479 $649 $650 $651 forward $480 $-1 #
face $-1 $652 $480 $19 $-1 $653 forward single #
coedge $-1 $654 $482 $655 $656 forward $370 $-1 #
coedge $-1 $650 $657 $482 $575 reversed $633 $-1 #
edge $-1 $576 -22.675025468578113 $658 14.9451579345008 $574 $659 forward 7 unknown #
vertex $-1 $651 $660 #
straight-curve $-1 -71.370586260567038 0 22.675025468578113 0 -1 0 I I #
coedge $-1 $488 $490 $492 $582 reversed $389 $-1 #
vertex $-1 $489 $661 #
straight-curve $-1 0 49.745082989347821 22.675025468578113 -1 0 0 I I #
straight-curve $-1 0 49.745082989347821 -22.675025468578113 1 0 0 I I #
edge $-1 $579 -22.675025468578113 $493 22.675025468578113 $578 $662 forward 7 unknown #
point $-1 -71.370586260567038 49.745082989347821 -22.675025468578113 #
straight-curve $-1 -71.370586260567038 0 22.675025468578113 0 -1 0 I I #
plane-surface $-1 0 0 22.675025468578113 0 0 1 1 0 0 forward_v I I I I #
coedge $-1 $503 $522 $512 $592 forward $410 $-1 #
vertex $-1 $507 $663 #
straight-curve $-1 0 -49.745082989347821 -14.9451579345008 1 0 0 I I #
straight-curve $-1 0 -25.057255430894983 -14.9451579345008 -1 0 0 I I #
point $-1 71.370586260567038 -49.745082989347821 -14.9451579345008 #
point $-1 71.370586260567038 -25.057255430894983 -14.9451579345008 #
edge $-1 $593 -22.675025468578113 $587 14.9451579345008 $512 $664 forward 7 unknown #
vertex $-1 $514 $665 #
straight-curve $-1 -71.370586260567038 0 22.675025468578113 0 -1 0 I I #
straight-curve $-1 0 -25.057255430894983 -22.675025468578113 -1 0 0 I I #
straight-curve $-1 -71.370586260567038 -18.700584605060701 -14.9451579345008 0 -1 0 I I #
point $-1 -71.370586260567038 -25.057255430894983 -14.9451579345008 #
straight-curve $-1 0 -49.745082989347821 22.675025468578113 1 0 0 I I #
face $-1 $666 $620 $18 $-1 $667 reversed single #
loop $-1 $-1 $668 $528 #
plane-surface $-1 0 -25.057255430894983 -18.810091701539456 0 -1 0 0 0 -1 forward_v I I I I #
coedge $-1 $669 $670 $671 $672 reversed $529 $-1 #
coedge $-1 $532 $531 $537 $612 reversed $349 $-1 #
coedge $-1 $673 $629 $532 $605 forward $674 $-1 #
edge $-1 $606 -71.370586260567038 $675 71.370586260567038 $604 $676 forward 7 unknown #
vertex $-1 $533 $677 #
straight-curve $-1 -71.370586260567038 25.057255430894976 -9.4050458507697279 0 0 -1 I I #
straight-curve $-1 0 25.057255430894976 -14.9451579345008 1 0 0 I I #
straight-curve $-1 0 49.745082989347821 -14.9451579345008 -1 0 0 I I #
edge $-1 $550 -22.675025468578113 $540 14.9451579345008 $536 $678 forward 7 unknown #
coedge $-1 $537 $679 $673 $680 reversed $538 $-1 #
edge $-1 $675 -13.269979617808385 $539 -5.5401120837310724 $537 $681 forward 7 unknown #
point $-1 71.370586260567038 25.057255430894976 -14.9451579345008 #
point $-1 71.370586260567038 49.745082989347814 -14.9451579345008 #
coedge $-1 $542 $553 $682 $683 forward $154 $-1 #
coedge $-1 $670 $669 $542 $617 reversed $529 $-1 #
edge $-1 $684 6.3566708258342821 $621 31.04449838428712 $542 $685 forward 7 unknown #
coedge $-1 $686 $543 $669 $687 forward $620 $-1 #
coedge $-1 $543 $686 $545 $623 reversed $620 $-1 #
loop $-1 $-1 $618 $599 #
vertex $-1 $687 $688 #
straight-curve $-1 -71.370586260567038 -49.745082989347821 0 0 0 -1 I I #
edge $-1 $546 -71.370586260567038 $626 71.370586260567038 $619 $689 forward 7 unknown #
point $-1 -71.370586260567038 -49.745082989347821 22.675025468578113 #
coedge $-1 $671 $547 $686 $690 forward $538 $-1 #
vertex $-1 $548 $691 #
straight-curve $-1 71.370586260567038 0 22.675025468578113 0 1 0 I I #
point $-1 71.370586260567038 49.745082989347821 22.675025468578113 #
coedge $-1 $604 $692 $553 $630 forward $674 $-1 #
edge $-1 $693 -25.057255430894983 $606 25.057255430894976 $553 $694 forward 7 unknown #
point $-1 -71.370586260567038 25.057255430894976 -14.9451579345008 #
face $-1 $695 $696 $19 $-1 $697 reversed single #
loop $-1 $-1 $657 $557 #
plane-surface $-1 0 49.745082989347821 0 0 -1 0 0 0 -1 forward_v I I I I #
coedge $-1 $698 $699 $654 $700 reversed $558 $-1 #
coedge $-1 $655 $560 $698 $701 reversed $467 $-1 #
coedge $-1 $560 $655 $657 $702 reversed $467 $-1 #
coedge $-1 $703 $704 $560 $639 forward $705 $-1 #
edge $-1 $706 6.3566708258342786 $707 31.044498384287117 $638 $708 forward 7 unknown #
coedge $-1 $561 $709 $710 $711 reversed $370 $-1 #
coedge $-1 $712 $562 $561 $642 forward $480 $-1 #
edge $-1 $565 6.1558040138847332 $713 49.745082989347821 $561 $577 forward 7 unknown #
vertex $-1 $569 $714 #
straight-curve $-1 -88.72397559214582 -6.1558040138847332 22.675025468578113 -1 0 0 I I #
straight-curve $-1 -71.370586260567038 -6.1558040138847332 4.9393218635982379 -0.66913059716165679 0 -0.74314483375859142 I I #
point $-1 -71.370586260567038 -6.1558040138847332 22.675025468578113 #
point $-1 -71.370586260567038 -6.1558040138847332 4.9393218635982379 #
straight-curve $-1 -55.401287403626505 0.59838538152612486 22.675025468578113 0 -1 0 I I #
coedge $-1 $571 $712 $715 $716 forward $480 $-1 #
coedge $-1 $717 $574 $571 $651 reversed $633 $-1 #
edge $-1 $718 -71.370586260567038 $576 71.370586260567038 $650 $719 forward 7 unknown #
face $-1 $-1 $705 $19 $-1 $720 reversed single #
plane-surface $-1 0 0 22.675025468578113 0 0 1 1 0 0 forward_v I I I I #
coedge $-1 $721 $573 $635 $700 forward $370 $-1 #
coedge $-1 $637 $636 $573 $656 reversed $467 $-1 #
edge $-1 $658 -31.044498384287117 $722 -6.3566708258342786 $573 $723 forward 7 unknown #
coedge $-1 $574 $717 $637 $702 forward $633 $-1 #
vertex $-1 $656 $724 #
straight-curve $-1 -71.370586260567038 49.745082989347821 0 0 0 -1 I I #
point $-1 -71.370586260567038 49.745082989347821 22.675025468578113 #
point $-1 -71.370586260567038 49.745082989347821 22.675025468578113 #
straight-curve $-1 -71.370586260567038 49.745082989347821 0 0 0 -1 I I #
point $-1 -71.370586260567038 -49.745082989347821 -14.9451579345008 #
straight-curve $-1 -71.370586260567038 -49.745082989347821 0 0 0 -1 I I #
point $-1 -71.370586260567038 -49.745082989347821 22.675025468578113 #
face $-1 $363 $674 $18 $-1 $725 reversed single #
plane-surface $-1 0 -49.745082989347821 0 0 1 0 0 0 1 forward_v I I I I #
coedge $-1 $726 $727 $679 $728 reversed $600 $-1 #
coedge $-1 $616 $602 $618 $687 reversed $529 $-1 #
coedge $-1 $602 $616 $726 $729 reversed $529 $-1 #
coedge $-1 $679 $625 $602 $672 forward $538 $-1 #
edge $-1 $730 -31.04449838428712 $731 -6.3566708258342821 $671 $732 forward 7 unknown #
coedge $-1 $692 $604 $611 $680 forward $674 $-1 #
loop $-1 $-1 $604 $666 #
vertex $-1 $680 $733 #
straight-curve $-1 0 25.057255430894976 -22.675025468578113 1 0 0 I I #
point $-1 -71.370586260567038 25.057255430894976 -22.675025468578113 #
straight-curve $-1 71.370586260567038 49.745082989347821 0 0 0 -1 I I #
coedge $-1 $611 $671 $668 $728 forward $538 $-1 #
edge $-1 $675 -25.057255430894976 $734 25.057255430894983 $611 $735 forward 7 unknown #
straight-curve $-1 71.370586260567038 25.057255430894976 -9.4050458507697279 0 0 1 I I #
coedge $-1 $727 $726 $615 $683 reversed $600 $-1 #
edge $-1 $693 -13.269979617808385 $684 -5.5401120837310724 $615 $736 forward 7 unknown #
vertex $-1 $617 $737 #
straight-curve $-1 -71.370586260567038 -18.700584605060701 -14.9451579345008 0 -1 0 I I #
coedge $-1 $619 $618 $625 $690 reversed $620 $-1 #
edge $-1 $621 -71.370586260567038 $730 71.370586260567038 $618 $738 forward 7 unknown #
point $-1 -71.370586260567038 -49.745082989347821 -14.9451579345008 #
straight-curve $-1 0 -49.745082989347821 22.675025468578113 1 0 0 I I #
edge $-1 $626 -22.675025468578113 $730 14.9451579345008 $625 $739 forward 7 unknown #
point $-1 71.370586260567038 -49.745082989347821 22.675025468578113 #
coedge $-1 $629 $673 $727 $740 forward $674 $-1 #
vertex $-1 $630 $741 #
straight-curve $-1 -71.370586260567038 0 -22.675025468578113 0 1 0 I I #
face $-1 $742 $743 $19 $-1 $744 forward single #
loop $-1 $-1 $745 $632 #
plane-surface $-1 0 -37.401169210121402 -14.9451579345008 0 0 1 1 0 0 forward_v I I I I #
coedge $-1 $746 $635 $636 $701 forward $558 $-1 #
coedge $-1 $635 $746 $747 $748 reversed $558 $-1 #
edge $-1 $722 5.5401120837310724 $749 13.269979617808385 $654 $750 forward 7 unknown #
edge $-1 $722 -71.370586260567038 $706 71.370586260567038 $698 $751 forward 7 unknown #
edge $-1 $707 -71.370586260567038 $658 71.370586260567038 $657 $752 forward 7 unknown #
coedge $-1 $715 $638 $717 $753 reversed $705 $-1 #
coedge $-1 $638 $754 $746 $755 forward $705 $-1 #
loop $-1 $-1 $638 $652 #
vertex $-1 $639 $756 #
vertex $-1 $702 $757 #
straight-curve $-1 71.370586260567038 18.700584605060698 -14.9451579345008 0 1 0 I I #
coedge $-1 $640 $758 $759 $760 forward $370 $-1 #
coedge $-1 $761 $762 $640 $711 forward $763 $-1 #
edge $-1 $713 -22.675025468578113 $764 14.9451579345008 $640 $765 forward 7 unknown #
coedge $-1 $649 $641 $762 $766 forward $480 $-1 #
vertex $-1 $642 $767 #
point $-1 -55.401287403626512 -6.1558040138847332 22.675025468578113 #
coedge $-1 $768 $703 $649 $716 reversed $705 $-1 #
edge $-1 $769 -49.745082989347821 $718 49.745082989347821 $715 $770 forward 7 unknown #
coedge $-1 $657 $650 $703 $753 forward $633 $-1 #
vertex $-1 $716 $771 #
straight-curve $-1 0 49.745082989347821 22.675025468578113 -1 0 0 I I #
plane-surface $-1 71.370586260567038 0 0 -1 0 0 0 0 1 forward_v I I I I #
coedge $-1 $758 $654 $772 $773 reversed $370 $-1 #
vertex $-1 $656 $774 #
straight-curve $-1 -71.370586260567038 18.700584605060698 -14.9451579345008 0 -1 0 I I #
point $-1 -71.370586260567038 49.745082989347814 -14.9451579345008 #
plane-surface $-1 0 0 -22.675025468578113 0 0 1 1 0 0 forward_v I I I I #
coedge $-1 $682 $668 $670 $729 forward $600 $-1 #
coedge $-1 $668 $682 $692 $740 reversed $600 $-1 #
edge $-1 $731 5.5401120837310724 $734 13.269979617808385 $679 $775 forward 7 unknown #
edge $-1 $731 -71.370586260567038 $684 71.370586260567038 $726 $776 forward 7 unknown #
vertex $-1 $687 $777 #
vertex $-1 $672 $778 #
straight-curve $-1 71.370586260567038 -18.700584605060701 -14.9451579345008 0 1 0 I I #
point $-1 71.370586260567038 25.057255430894976 -22.675025468578113 #
vertex $-1 $740 $779 #
straight-curve $-1 71.370586260567038 0 -22.675025468578113 0 -1 0 I I #
straight-curve $-1 -71.370586260567038 -25.057255430894983 -9.4050458507697279 0 0 1 I I #
point $-1 -71.370586260567038 -25.057255430894983 -14.9451579345008 #
straight-curve $-1 0 -49.745082989347821 -14.9451579345008 1 0 0 I I #
straight-curve $-1 71.370586260567038 -49.745082989347821 0 0 0 -1 I I #
edge $-1 $734 -71.370586260567038 $693 71.370586260567038 $692 $780 forward 7 unknown #
point $-1 -71.370586260567038 -25.057255430894983 -22.675025468578113 #
face $-1 $781 $763 $19 $-1 $782 reversed single #
loop $-1 $-1 $783 $695 #
plane-surface $-1 0 -25.057255430894983 -18.810091701539456 0 -1 0 0 0 -1 forward_v I I I I #
coedge $-1 $784 $785 $786 $787 reversed $696 $-1 #
coedge $-1 $699 $698 $704 $755 reversed $558 $-1 #
coedge $-1 $788 $772 $699 $748 forward $789 $-1 #
edge $-1 $749 -71.370586260567038 $790 71.370586260567038 $747 $791 forward 7 unknown #
vertex $-1 $700 $792 #
straight-curve $-1 -71.370586260567038 25.057255430894976 -9.4050458507697279 0 0 -1 I I #
straight-curve $-1 0 25.057255430894976 -14.9451579345008 1 0 0 I I #
straight-curve $-1 0 49.745082989347821 -14.9451579345008 -1 0 0 I I #
edge $-1 $718 -22.675025468578113 $707 14.9451579345008 $703 $793 forward 7 unknown #
coedge $-1 $704 $794 $788 $795 reversed $705 $-1 #
edge $-1 $790 -13.269979617808385 $706 -5.5401120837310724 $704 $796 forward 7 unknown #
point $-1 71.370586260567038 25.057255430894976 -14.9451579345008 #
point $-1 71.370586260567038 49.745082989347814 -14.9451579345008 #
coedge $-1 $709 $721 $797 $798 forward $370 $-1 #
coedge $-1 $785 $784 $709 $760 reversed $696 $-1 #
edge $-1 $799 6.3566708258342821 $764 31.04449838428712 $709 $800 forward 7 unknown #
coedge $-1 $801 $710 $784 $802 forward $763 $-1 #
coedge $-1 $710 $801 $712 $766 reversed $763 $-1 #
loop $-1 $-1 $761 $742 #
vertex $-1 $802 $803 #
straight-curve $-1 -71.370586260567038 -49.745082989347821 0 0 0 -1 I I #
edge $-1 $713 -71.370586260567038 $769 71.370586260567038 $762 $804 forward 7 unknown #
point $-1 -71.370586260567038 -49.745082989347821 22.675025468578113 #
coedge $-1 $786 $715 $801 $805 forward $705 $-1 #
vertex $-1 $716 $806 #
straight-curve $-1 71.370586260567038 0 22.675025468578113 0 1 0 I I #
point $-1 71.370586260567038 49.745082989347821 22.675025468578113 #
coedge $-1 $747 $807 $721 $773 forward $789 $-1 #
edge $-1 $808 -25.057255430894983 $749 25.057255430894976 $721 $809 forward 7 unknown #
point $-1 -71.370586260567038 25.057255430894976 -14.9451579345008 #
straight-curve $-1 71.370586260567038 -25.057255430894983 -9.4050458507697279 0 0 -1 I I #
straight-curve $-1 0 -25.057255430894983 -14.9451579345008 -1 0 0 I I #
point $-1 71.370586260567038 -49.745082989347821 -14.9451579345008 #
point $-1 71.370586260567038 -25.057255430894983 -14.9451579345008 #
point $-1 71.370586260567038 -25.057255430894983 -22.675025468578113 #
straight-curve $-1 0 -25.057255430894983 -22.675025468578113 -1 0 0 I I #
face $-1 $572 $789 $19 $-1 $810 reversed single #
plane-surface $-1 0 -49.745082989347821 0 0 1 0 0 0 1 forward_v I I I I #
coedge $-1 $811 $812 $794 $813 reversed $743 $-1 #
coedge $-1 $759 $745 $761 $802 reversed $696 $-1 #
coedge $-1 $745 $759 $811 $814 reversed $696 $-1 #
coedge $-1 $794 $768 $745 $787 forward $705 $-1 #
edge $-1 $815 -31.04449838428712 $816 -6.3566708258342821 $786 $817 forward 7 unknown #
coedge $-1 $807 $747 $754 $795 forward $789 $-1 #
loop $-1 $-1 $747 $781 #
vertex $-1 $795 $818 #
straight-curve $-1 0 25.057255430894976 -22.675025468578113 1 0 0 I I #
point $-1 -71.370586260567038 25.057255430894976 -22.675025468578113 #
straight-curve $-1 71.370586260567038 49.745082989347821 0 0 0 -1 I I #
coedge $-1 $754 $786 $783 $813 forward $705 $-1 #
edge $-1 $790 -25.057255430894976 $819 25.057255430894983 $754 $820 forward 7 unknown #
straight-curve $-1 71.370586260567038 25.057255430894976 -9.4050458507697279 0 0 1 I I #
coedge $-1 $812 $811 $758 $798 reversed $743 $-1 #
edge $-1 $808 -13.269979617808385 $799 -5.5401120837310724 $758 $821 forward 7 unknown #
vertex $-1 $760 $822 #
straight-curve $-1 -71.370586260567038 -18.700584605060701 -14.9451579345008 0 -1 0 I I #
coedge $-1 $762 $761 $768 $805 reversed $763 $-1 #
edge $-1 $764 -71.370586260567038 $815 71.370586260567038 $761 $823 forward 7 unknown #
point $-1 -71.370586260567038 -49.745082989347821 -14.9451579345008 #
straight-curve $-1 0 -49.745082989347821 22.675025468578113 1 0 0 I I #
edge $-1 $769 -22.675025468578113 $815 14.9451579345008 $768 $824 forward 7 unknown #
point $-1 71.370586260567038 -49.745082989347821 22.675025468578113 #
coedge $-1 $772 $788 $812 $825 forward $789 $-1 #
vertex $-1 $773 $826 #
straight-curve $-1 -71.370586260567038 0 -22.675025468578113 0 1 0 I I #
plane-surface $-1 0 0 -22.675025468578113 0 0 1 1 0 0 forward_v I I I I #
coedge $-1 $797 $783 $785 $814 forward $743 $-1 #
coedge $-1 $783 $797 $807 $825 reversed $743 $-1 #
edge $-1 $816 5.5401120837310724 $819 13.269979617808385 $794 $827 forward 7 unknown #
edge $-1 $816 -71.370586260567038 $799 71.370586260567038 $811 $828 forward 7 unknown #
vertex $-1 $802 $829 #
vertex $-1 $787 $830 #
straight-curve $-1 71.370586260567038 -18.700584605060701 -14.9451579345008 0 1 0 I I #
point $-1 71.370586260567038 25.057255430894976 -22.675025468578113 #
vertex $-1 $825 $831 #
straight-curve $-1 71.370586260567038 0 -22.675025468578113 0 -1 0 I I #
straight-curve $-1 -71.370586260567038 -25.057255430894983 -9.4050458507697279 0 0 1 I I #
point $-1 -71.370586260567038 -25.057255430894983 -14.9451579345008 #
straight-curve $-1 0 -49.745082989347821 -14.9451579345008 1 0 0 I I #
straight-curve $-1 71.370586260567038 -49.745082989347821 0 0 0 -1 I I #
edge $-1 $819 -71.370586260567038 $808 71.370586260567038 $807 $832 forward 7 unknown #
point $-1 -71.370586260567038 -25.057255430894983 -22.675025468578113 #
straight-curve $-1 71.370586260567038 -25.057255430894983 -9.4050458507697279 0 0 -1 I I #
straight-curve $-1 0 -25.057255430894983 -14.9451579345008 -1 0 0 I I #
point $-1 71.370586260567038 -49.745082989347821 -14.9451579345008 #
point $-1 71.370586260567038 -25.057255430894983 -14.9451579345008 #
point $-1 71.370586260567038 -25.057255430894983 -22.675025468578113 #
straight-curve $-1 0 -25.057255430894983 -22.675025468578113 -1 0 0 I I #
End-of-ACIS-data 