500 0 13 0           
7 Unknown 11 ACIS 5.0 NT 24 Thu Mar 25 21:16:11 1999 
-1 9.9999999999999995e-007 1e-010 
body $-1 $13 $-1 $14 #
body $-1 $15 $-1 $16 #
body $-1 $17 $-1 $18 #
body $-1 $19 $-1 $20 #
body $-1 $21 $-1 $22 #
body $-1 $23 $-1 $24 #
body $-1 $25 $-1 $26 #
body $-1 $27 $-1 $28 #
body $-1 $29 $-1 $30 #
body $-1 $31 $-1 $32 #
body $-1 $33 $-1 $34 #
body $-1 $35 $-1 $36 #
body $-1 $37 $-1 $38 #
lump $-1 $-1 $39 $0 #
transform $-1 1 0 0 0 1 0 0 0 1 45.277260658589434 20.12182981159231 8.6954282646920973 1 rotate no_reflect no_shear #
lump $-1 $-1 $40 $1 #
transform $-1 1 0 0 0 1 0 0 0 1 45.277260658589434 20.12182981159231 8.6954282646920973 1 rotate no_reflect no_shear #
lump $-1 $-1 $41 $2 #
transform $-1 1 0 0 0 1 0 0 0 1 45.277260658589434 20.12182981159231 8.6954282646920973 1 rotate no_reflect no_shear #
lump $-1 $-1 $42 $3 #
transform $-1 1 0 0 0 1 0 0 0 1 45.277260658589434 20.12182981159231 8.6954282646920973 1 rotate no_reflect no_shear #
lump $-1 $-1 $43 $4 #
transform $-1 1 0 0 0 1 0 0 0 1 45.277260658589434 20.12182981159231 8.6954282646920973 1 rotate no_reflect no_shear #
lump $-1 $-1 $44 $5 #
transform $-1 1 0 0 0 1 0 0 0 1 45.277260658589434 20.12182981159231 8.6954282646920973 1 rotate no_reflect no_shear #
lump $-1 $-1 $45 $6 #
transform $-1 1 0 0 0 1 0 0 0 1 45.277260658589434 20.12182981159231 8.6954282646920973 1 rotate no_reflect no_shear #
lump $-1 $-1 $46 $7 #
transform $-1 1 0 0 0 1 0 0 0 1 45.277260658589434 20.12182981159231 8.6954282646920973 1 rotate no_reflect no_shear #
lump $-1 $-1 $47 $8 #
transform $-1 1 0 0 0 1 0 0 0 1 45.277260658589434 20.12182981159231 8.6954282646920973 1 rotate no_reflect no_shear #
lump $-1 $-1 $48 $9 #
transform $-1 1 0 0 0 1 0 0 0 1 45.277260658589434 20.12182981159231 8.6954282646920973 1 rotate no_reflect no_shear #
lump $-1 $-1 $49 $10 #
transform $-1 1 0 0 0 1 0 0 0 1 45.277260658589434 20.12182981159231 8.6954282646920973 1 rotate no_reflect no_shear #
lump $-1 $-1 $50 $11 #
transform $-1 1 0 0 0 1 0 0 0 1 45.277260658589434 20.12182981159231 8.6954282646920973 1 rotate no_reflect no_shear #
lump $-1 $-1 $51 $12 #
transform $-1 1 0 0 0 1 0 0 0 1 45.277260658589434 20.12182981159231 8.6954282646920973 1 rotate no_reflect no_shear #
shell $-1 $-1 $-1 $52 $-1 $13 #
shell $-1 $-1 $-1 $53 $-1 $15 #
shell $-1 $-1 $-1 $54 $-1 $17 #
shell $-1 $-1 $-1 $55 $-1 $19 #
shell $-1 $-1 $-1 $56 $-1 $21 #
shell $-1 $-1 $-1 $57 $-1 $23 #
shell $-1 $-1 $-1 $58 $-1 $25 #
shell $-1 $-1 $-1 $59 $-1 $27 #
shell $-1 $-1 $-1 $60 $-1 $29 #
shell $-1 $-1 $-1 $61 $-1 $31 #
shell $-1 $-1 $-1 $62 $-1 $33 #
shell $-1 $-1 $-1 $63 $-1 $35 #
shell $-1 $-1 $-1 $64 $-1 $37 #
face $-1 $65 $66 $39 $-1 $67 reversed single #
face $-1 $68 $69 $40 $-1 $70 forward single #
face $-1 $71 $72 $41 $-1 $73 forward single #
face $-1 $74 $75 $42 $-1 $76 reversed single #
face $-1 $77 $78 $43 $-1 $79 forward single #
face $-1 $80 $81 $44 $-1 $82 forward single #
face $-1 $83 $84 $45 $-1 $85 reversed single #
face $-1 $86 $87 $46 $-1 $88 forward single #
face $-1 $89 $90 $47 $-1 $91 forward single #
face $-1 $92 $93 $48 $-1 $94 reversed single #
face $-1 $95 $96 $49 $-1 $97 forward single #
face $-1 $98 $99 $50 $-1 $100 forward single #
face $-1 $101 $102 $51 $-1 $103 forward single #
face $-1 $104 $105 $39 $-1 $106 forward single #
loop $-1 $-1 $107 $52 #
plane-surface $-1 45.277260658589434 0 0 -1 0 0 0 0 1 forward_v I I I I #
face $-1 $108 $109 $40 $-1 $110 reversed single #
loop $-1 $-1 $111 $53 #
plane-surface $-1 -45.277260658589434 0 0 1 0 0 0 0 -1 forward_v I I I I #
face $-1 $112 $113 $41 $-1 $114 reversed single #
loop $-1 $-1 $115 $54 #
plane-surface $-1 45.277260658589434 0 0 -1 0 0 0 0 1 forward_v I I I I #
face $-1 $116 $117 $42 $-1 $118 reversed single #
loop $-1 $-1 $119 $55 #
plane-surface $-1 -19.147661039946868 72.69096269016012 88.038348440950841 1 0 0 0 -0.82903758062907751 -0.55919289150049634 forward_v I I I I #
face $-1 $120 $121 $43 $-1 $122 forward single #
loop $-1 $123 $124 $56 #
cone-surface $-1 -14.493397672852382 17.864378417282591 5.903355593156693 0 -0.82903758062907751 -0.55919289150049634 0.5 0 0 1 I I 0 1 0.5 forward I I I I #
face $-1 $125 $126 $44 $-1 $127 forward single #
loop $-1 $128 $129 $57 #
cone-surface $-1 -7.5120026222106517 17.864378417282591 5.903355593156693 0 -0.82903758062907751 -0.55919289150049634 0.5 0 0 1 I I 0 1 0.5 forward I I I I #
face $-1 $130 $131 $45 $-1 $132 reversed single #
loop $-1 $-1 $133 $58 #
plane-surface $-1 17.307185779036054 72.69096269016012 88.038348440950841 1 0 0 0 -0.82903758062907751 -0.55919289150049634 forward_v I I I I #
face $-1 $134 $135 $46 $-1 $136 forward single #
loop $-1 $137 $138 $59 #
cone-surface $-1 21.961449146130541 17.864378417282591 5.903355593156693 0 -0.82903758062907751 -0.55919289150049634 0.5 0 0 1 I I 0 1 0.5 forward I I I I #
face $-1 $139 $140 $47 $-1 $141 forward single #
loop $-1 $142 $143 $60 #
cone-surface $-1 28.942844196772278 17.864378417282591 5.903355593156693 0 -0.82903758062907751 -0.55919289150049634 0.5 0 0 1 I I 0 1 0.5 forward I I I I #
face $-1 $144 $145 $48 $-1 $146 reversed single #
loop $-1 $-1 $147 $61 #
plane-surface $-1 2.1561902686334147 -92.441886875540774 59.461080969434335 -1 0 0 0 -0.79863551827123203 0.60181501223851219 forward_v I I I I #
face $-1 $148 $149 $49 $-1 $150 forward single #
loop $-1 $151 $152 $62 #
cone-surface $-1 -10.823946943529627 -18.316599651034966 6.5288119335686545 0 0.79863551827123203 -0.60181501223851219 0.25 0 0 1 I I 0 1 0.25 forward I I I I #
face $-1 $153 $154 $50 $-1 $155 forward single #
loop $-1 $156 $157 $63 #
cone-surface $-1 -5.9563954889684894 -18.316599651034966 6.5288119335686545 0 0.79863551827123203 -0.60181501223851219 0.25 0 0 1 I I 0 1 0.25 forward I I I I #
face $-1 $158 $159 $51 $-1 $160 forward single #
loop $-1 $161 $162 $64 #
cone-surface $-1 -1.0888440344073516 -18.316599651034966 6.5288119335686545 0 0.79863551827123203 -0.60181501223851219 0.25 0 0 1 I I 0 1 0.25 forward I I I I #
face $-1 $163 $164 $39 $-1 $165 reversed single #
loop $-1 $-1 $166 $65 #
plane-surface $-1 0 0 8.6954282646920973 0 0 1 1 0 0 forward_v I I I I #
coedge $-1 $167 $168 $169 $170 reversed $66 $-1 #
face $-1 $171 $172 $40 $-1 $173 forward single #
loop $-1 $-1 $174 $68 #
plane-surface $-1 0 20.12182981159231 0 0 -1 0 0 0 -1 forward_v I I I I #
coedge $-1 $175 $176 $177 $178 forward $69 $-1 #
face $-1 $179 $180 $41 $-1 $181 forward single #
loop $-1 $-1 $182 $71 #
plane-surface $-1 0 -20.12182981159231 0 0 1 0 0 0 1 forward_v I I I I #
coedge $-1 $183 $184 $185 $186 forward $72 $-1 #
face $-1 $187 $188 $42 $-1 $189 reversed single #
loop $-1 $-1 $190 $74 #
plane-surface $-1 -11.002700147531513 -2.3821385776580684 37.400903827154259 0 0.82903758062907751 0.55919289150049634 1 0 0 forward_v I I I I #
coedge $-1 $191 $192 $193 $194 reversed $75 $-1 #
face $-1 $-1 $195 $43 $-1 $196 forward single #
loop $-1 $197 $198 $77 #
cone-surface $-1 -14.493397672852382 16.970608250513816 5.3005000223476237 0 -0.82903758062907751 -0.55919289150049634 0.25 0 0 1 I I -0.70710678118654746 0.70710678118654746 0.25 forward I I I I #
loop $-1 $-1 $199 $56 #
coedge $-1 $124 $124 $200 $201 reversed $78 $-1 #
face $-1 $-1 $202 $44 $-1 $203 forward single #
loop $-1 $204 $205 $80 #
cone-surface $-1 -7.5120026222106517 16.970608250513816 5.3005000223476237 0 -0.82903758062907751 -0.55919289150049634 0.25 0 0 1 I I -0.70710678118654746 0.70710678118654746 0.25 forward I I I I #
loop $-1 $-1 $206 $57 #
coedge $-1 $129 $129 $207 $208 reversed $81 $-1 #
face $-1 $209 $210 $45 $-1 $211 reversed single #
loop $-1 $-1 $212 $83 #
plane-surface $-1 25.452146671451409 -2.3821385776580684 37.400903827154259 0 0.82903758062907751 0.55919289150049634 1 0 0 forward_v I I I I #
coedge $-1 $213 $214 $215 $216 reversed $84 $-1 #
face $-1 $-1 $217 $46 $-1 $218 forward single #
loop $-1 $219 $220 $86 #
cone-surface $-1 21.961449146130541 16.970608250513816 5.3005000223476237 0 -0.82903758062907751 -0.55919289150049634 0.25 0 0 1 I I -0.70710678118654746 0.70710678118654746 0.25 forward I I I I #
loop $-1 $-1 $221 $59 #
coedge $-1 $138 $138 $222 $223 reversed $87 $-1 #
face $-1 $-1 $224 $47 $-1 $225 forward single #
loop $-1 $226 $227 $89 #
cone-surface $-1 28.942844196772278 16.970608250513816 5.3005000223476237 0 -0.82903758062907751 -0.55919289150049634 0.25 0 0 1 I I -0.70710678118654746 0.70710678118654746 0.25 forward I I I I #
loop $-1 $-1 $228 $60 #
coedge $-1 $143 $143 $229 $230 reversed $90 $-1 #
face $-1 $231 $232 $48 $-1 $233 reversed single #
loop $-1 $-1 $234 $92 #
plane-surface $-1 -5.9563954889684894 -20.121829811592306 4.9640106146837226 0 -0.79863551827123203 0.60181501223851219 1 0 0 forward_v I I I I #
coedge $-1 $235 $236 $237 $238 reversed $93 $-1 #
face $-1 $-1 $239 $49 $-1 $240 forward single #
loop $-1 $241 $242 $95 #
cone-surface $-1 -10.823946943529627 -17.817452452115447 6.1526775509195843 0 0.79863551827123203 -0.60181501223851219 0.125 0 0 1 I I -0.70710678118654746 0.70710678118654746 0.125 forward I I I I #
loop $-1 $-1 $243 $62 #
coedge $-1 $152 $152 $244 $245 reversed $96 $-1 #
face $-1 $-1 $246 $50 $-1 $247 forward single #
loop $-1 $248 $249 $98 #
cone-surface $-1 -5.9563954889684894 -17.817452452115447 6.1526775509195843 0 0.79863551827123203 -0.60181501223851219 0.125 0 0 1 I I -0.70710678118654746 0.70710678118654746 0.125 forward I I I I #
loop $-1 $-1 $250 $63 #
coedge $-1 $157 $157 $251 $252 reversed $99 $-1 #
face $-1 $-1 $253 $51 $-1 $254 forward single #
loop $-1 $255 $256 $101 #
cone-surface $-1 -1.0888440344073516 -17.817452452115447 6.1526775509195843 0 0.79863551827123203 -0.60181501223851219 0.125 0 0 1 I I -0.70710678118654746 0.70710678118654746 0.125 forward I I I I #
loop $-1 $-1 $257 $64 #
coedge $-1 $162 $162 $258 $259 reversed $102 $-1 #
face $-1 $260 $261 $39 $-1 $262 reversed single #
loop $-1 $-1 $263 $104 #
plane-surface $-1 0 0 -8.6954282646920973 0 0 1 1 0 0 forward_v I I I I #
coedge $-1 $264 $265 $167 $266 forward $105 $-1 #
coedge $-1 $267 $107 $166 $266 reversed $66 $-1 #
coedge $-1 $107 $267 $263 $268 reversed $66 $-1 #
coedge $-1 $269 $270 $107 $170 forward $271 $-1 #
edge $-1 $272 -8.6954282646920973 $273 8.6954282646920973 $107 $274 forward 7 unknown #
face $-1 $275 $276 $40 $-1 $277 reversed single #
loop $-1 $-1 $177 $108 #
plane-surface $-1 -49.494669418432302 0 -4.5293854751320204 0 0 1 1 0 0 forward_v I I I I #
coedge $-1 $278 $279 $176 $280 forward $109 $-1 #
coedge $-1 $281 $111 $282 $283 reversed $69 $-1 #
coedge $-1 $111 $281 $174 $280 reversed $69 $-1 #
coedge $-1 $284 $285 $111 $178 reversed $172 $-1 #
edge $-1 $286 -20.12182981159231 $287 20.12182981159231 $177 $288 forward 7 unknown #
face $-1 $289 $290 $41 $-1 $291 reversed single #
loop $-1 $-1 $292 $112 #
plane-surface $-1 49.882265738353077 0 0.59505417405328132 0 0 1 1 0 0 forward_v I I I I #
coedge $-1 $293 $294 $184 $295 forward $113 $-1 #
coedge $-1 $296 $115 $297 $298 reversed $72 $-1 #
coedge $-1 $115 $296 $182 $295 reversed $72 $-1 #
coedge $-1 $299 $300 $115 $186 reversed $180 $-1 #
edge $-1 $301 -20.12182981159231 $302 20.12182981159231 $185 $303 forward 7 unknown #
face $-1 $304 $305 $42 $-1 $306 reversed single #
loop $-1 $-1 $307 $116 #
plane-surface $-1 -2.8577392551161562 72.69096269016012 88.038348440950841 -1 0 0 0 0.82903758062907751 0.55919289150049634 forward_v I I I I #
coedge $-1 $308 $309 $310 $311 reversed $117 $-1 #
coedge $-1 $192 $119 $312 $313 reversed $75 $-1 #
coedge $-1 $119 $191 $308 $314 reversed $75 $-1 #
coedge $-1 $310 $315 $119 $194 forward $316 $-1 #
edge $-1 $317 16.22365153348775 $318 19.365532778884166 $193 $319 forward 7 unknown #
loop $-1 $-1 $200 $120 #
plane-surface $-1 -11.002700147531513 -2.3821385776580684 37.400903827154259 0 0.82903758062907751 0.55919289150049634 1 0 0 forward_v I I I I #
loop $-1 $-1 $320 $77 #
coedge $-1 $198 $198 $199 $321 reversed $121 $-1 #
coedge $-1 $199 $199 $198 $321 forward $123 $-1 #
coedge $-1 $200 $200 $124 $201 forward $195 $-1 #
edge $-1 $322 -5.8327605653577847e-016 $322 6.2831853071795996 $200 $323 forward 7 unknown #
loop $-1 $-1 $207 $125 #
plane-surface $-1 -11.002700147531513 -2.3821385776580684 37.400903827154259 0 0.82903758062907751 0.55919289150049634 1 0 0 forward_v I I I I #
loop $-1 $-1 $324 $80 #
coedge $-1 $205 $205 $206 $325 reversed $126 $-1 #
coedge $-1 $206 $206 $205 $325 forward $128 $-1 #
coedge $-1 $207 $207 $129 $208 forward $202 $-1 #
edge $-1 $326 -5.8327605653577847e-016 $326 6.2831853071795996 $207 $327 forward 7 unknown #
face $-1 $328 $329 $45 $-1 $330 forward single #
loop $-1 $-1 $331 $130 #
plane-surface $-1 33.597107563866764 72.69096269016012 88.038348440950841 -1 0 0 0 0.82903758062907751 0.55919289150049634 forward_v I I I I #
coedge $-1 $332 $333 $334 $335 reversed $131 $-1 #
coedge $-1 $214 $133 $336 $337 reversed $84 $-1 #
coedge $-1 $133 $213 $332 $338 reversed $84 $-1 #
coedge $-1 $334 $339 $133 $216 forward $329 $-1 #
edge $-1 $340 16.22365153348775 $341 19.365532778884166 $215 $342 forward 7 unknown #
loop $-1 $-1 $222 $134 #
plane-surface $-1 25.452146671451409 -2.3821385776580684 37.400903827154259 0 0.82903758062907751 0.55919289150049634 1 0 0 forward_v I I I I #
loop $-1 $-1 $343 $86 #
coedge $-1 $220 $220 $221 $344 reversed $135 $-1 #
coedge $-1 $221 $221 $220 $344 forward $137 $-1 #
coedge $-1 $222 $222 $138 $223 forward $217 $-1 #
edge $-1 $345 -5.8327605653577847e-016 $345 6.2831853071795996 $222 $346 forward 7 unknown #
loop $-1 $-1 $229 $139 #
plane-surface $-1 25.452146671451409 -2.3821385776580684 37.400903827154259 0 0.82903758062907751 0.55919289150049634 1 0 0 forward_v I I I I #
loop $-1 $-1 $347 $89 #
coedge $-1 $227 $227 $228 $348 reversed $140 $-1 #
coedge $-1 $228 $228 $227 $348 forward $142 $-1 #
coedge $-1 $229 $229 $143 $230 forward $224 $-1 #
edge $-1 $349 -5.8327605653577847e-016 $349 6.2831853071795996 $229 $350 forward 7 unknown #
face $-1 $351 $352 $48 $-1 $353 forward single #
loop $-1 $-1 $354 $144 #
plane-surface $-1 -14.068981246570393 -92.441886875540774 59.461080969434335 1 0 0 0 0.79863551827123203 -0.60181501223851219 forward_v I I I I #
coedge $-1 $355 $356 $357 $358 reversed $145 $-1 #
coedge $-1 $236 $147 $359 $360 reversed $93 $-1 #
coedge $-1 $147 $235 $355 $361 reversed $93 $-1 #
coedge $-1 $357 $362 $147 $238 forward $352 $-1 #
edge $-1 $363 26.099113626178077 $364 28.910938429021542 $237 $365 forward 7 unknown #
loop $-1 $-1 $244 $148 #
plane-surface $-1 -5.9563954889684894 -20.121829811592306 4.9640106146837226 0 -0.79863551827123203 0.60181501223851219 1 0 0 forward_v I I I I #
loop $-1 $-1 $366 $95 #
coedge $-1 $242 $242 $243 $367 reversed $149 $-1 #
coedge $-1 $243 $243 $242 $367 forward $151 $-1 #
coedge $-1 $244 $244 $152 $245 forward $239 $-1 #
edge $-1 $368 2.7969876162035207e-015 $368 6.2831853071796031 $244 $369 forward 7 unknown #
loop $-1 $-1 $251 $153 #
plane-surface $-1 -5.9563954889684894 -20.121829811592306 4.9640106146837226 0 -0.79863551827123203 0.60181501223851219 1 0 0 forward_v I I I I #
loop $-1 $-1 $370 $98 #
coedge $-1 $249 $249 $250 $371 reversed $154 $-1 #
coedge $-1 $250 $250 $249 $371 forward $156 $-1 #
coedge $-1 $251 $251 $157 $252 forward $246 $-1 #
edge $-1 $372 2.7969876162035207e-015 $372 6.2831853071796031 $251 $373 forward 7 unknown #
loop $-1 $-1 $258 $158 #
plane-surface $-1 -5.9563954889684894 -20.121829811592306 4.9640106146837226 0 -0.79863551827123203 0.60181501223851219 1 0 0 forward_v I I I I #
loop $-1 $-1 $374 $101 #
coedge $-1 $256 $256 $257 $375 reversed $159 $-1 #
coedge $-1 $257 $257 $256 $375 forward $161 $-1 #
coedge $-1 $258 $258 $162 $259 forward $253 $-1 #
edge $-1 $376 2.7969876162035207e-015 $376 6.2831853071796031 $258 $377 forward 7 unknown #
face $-1 $378 $379 $39 $-1 $380 reversed single #
loop $-1 $-1 $381 $163 #
plane-surface $-1 0 -20.12182981159231 0 0 1 0 0 0 1 forward_v I I I I #
coedge $-1 $382 $383 $168 $268 forward $164 $-1 #
coedge $-1 $384 $166 $270 $385 forward $105 $-1 #
coedge $-1 $166 $384 $386 $387 forward $105 $-1 #
edge $-1 $388 -20.12182981159231 $272 20.12182981159231 $167 $389 forward 7 unknown #
coedge $-1 $168 $167 $390 $391 forward $66 $-1 #
edge $-1 $273 -20.12182981159231 $392 20.12182981159231 $168 $393 forward 7 unknown #
coedge $-1 $394 $169 $383 $395 reversed $271 $-1 #
coedge $-1 $169 $394 $264 $385 reversed $271 $-1 #
loop $-1 $-1 $169 $378 #
vertex $-1 $266 $396 #
vertex $-1 $268 $397 #
straight-curve $-1 45.277260658589434 20.12182981159231 0 0 0 -1 I I #
face $-1 $398 $399 $40 $-1 $400 reversed single #
loop $-1 $-1 $401 $171 #
plane-surface $-1 -49.494669418432302 0 -7.5293854751320204 0 0 1 1 0 0 forward_v I I I I #
coedge $-1 $402 $174 $403 $404 reversed $109 $-1 #
coedge $-1 $174 $402 $284 $405 reversed $109 $-1 #
edge $-1 $286 4.5293854751320204 $406 7.5293854751320204 $174 $407 forward 7 unknown #
coedge $-1 $176 $175 $401 $408 forward $69 $-1 #
coedge $-1 $409 $410 $175 $283 forward $411 $-1 #
edge $-1 $412 -7.5293854751320204 $287 -4.5293854751320204 $282 $413 forward 7 unknown #
coedge $-1 $414 $177 $279 $405 forward $172 $-1 #
coedge $-1 $177 $414 $409 $415 forward $172 $-1 #
vertex $-1 $280 $416 #
vertex $-1 $415 $417 #
straight-curve $-1 -45.277260658589434 0 -4.5293854751320204 0 -1 0 I I #
face $-1 $418 $419 $41 $-1 $420 reversed single #
loop $-1 $-1 $421 $179 #
plane-surface $-1 49.882265738353077 0 -2.4049458259467187 0 0 1 1 0 0 forward_v I I I I #
coedge $-1 $300 $299 $422 $423 forward $180 $-1 #
coedge $-1 $424 $182 $425 $426 reversed $113 $-1 #
coedge $-1 $182 $424 $299 $427 reversed $113 $-1 #
edge $-1 $301 -0.59505417405328132 $428 2.4049458259467187 $182 $429 forward 7 unknown #
coedge $-1 $184 $183 $430 $431 forward $72 $-1 #
coedge $-1 $432 $433 $183 $298 forward $434 $-1 #
edge $-1 $435 -2.4049458259467187 $302 0.59505417405328132 $297 $436 forward 7 unknown #
coedge $-1 $292 $185 $294 $427 forward $180 $-1 #
coedge $-1 $185 $292 $432 $437 forward $180 $-1 #
vertex $-1 $295 $438 #
vertex $-1 $437 $439 #
straight-curve $-1 45.277260658589434 0 0.59505417405328132 0 1 0 I I #
face $-1 $-1 $316 $42 $-1 $440 forward single #
loop $-1 $-1 $441 $187 #
plane-surface $-1 0 20.12182981159231 0 0 -1 0 0 0 -1 forward_v I I I I #
coedge $-1 $442 $443 $444 $445 reversed $188 $-1 #
coedge $-1 $446 $190 $192 $314 forward $117 $-1 #
coedge $-1 $190 $446 $442 $447 forward $117 $-1 #
coedge $-1 $444 $193 $190 $311 forward $316 $-1 #
edge $-1 $318 -13.646310966181112 $448 2.6436108186496003 $310 $449 forward 7 unknown #
coedge $-1 $450 $451 $191 $313 forward $305 $-1 #
edge $-1 $452 -39.981776602986223 $317 -35.323745955783323 $312 $453 forward 7 unknown #
edge $-1 $318 34.62505950656702 $452 40.243659623184612 $192 $454 forward 7 unknown #
coedge $-1 $193 $444 $450 $455 forward $316 $-1 #
loop $-1 $-1 $444 $304 #
vertex $-1 $313 $456 #
vertex $-1 $194 $457 #
straight-curve $-1 -19.147661039946868 36.34548134508006 8.6954282646920973 0 -1 0 I I #
coedge $-1 $320 $320 $-1 $458 reversed $197 $-1 #
edge $-1 $459 0 $459 6.2831853071796004 $198 $460 forward 7 unknown #
vertex $-1 $201 $461 #
ellipse-curve $-1 -14.493397672852382 18.550889188894104 6.3664129410906432 0 0.82903758062907751 0.55919289150049634 0.5 0 0 1 I I #
coedge $-1 $324 $324 $-1 $462 reversed $204 $-1 #
edge $-1 $463 0 $463 6.2831853071796004 $205 $464 forward 7 unknown #
vertex $-1 $208 $465 #
ellipse-curve $-1 -7.5120026222106517 18.550889188894104 6.3664129410906432 0 0.82903758062907751 0.55919289150049634 0.5 0 0 1 I I #
face $-1 $-1 $466 $45 $-1 $467 reversed single #
loop $-1 $-1 $215 $209 #
plane-surface $-1 0 0 8.6954282646920973 0 0 1 1 0 0 forward_v I I I I #
coedge $-1 $468 $469 $470 $471 reversed $210 $-1 #
coedge $-1 $472 $212 $214 $338 forward $131 $-1 #
coedge $-1 $212 $472 $468 $473 forward $131 $-1 #
coedge $-1 $470 $215 $212 $335 forward $329 $-1 #
edge $-1 $341 4.5811124433103494 $474 20.87103422814106 $334 $475 forward 7 unknown #
coedge $-1 $476 $477 $213 $337 forward $466 $-1 #
edge $-1 $478 -39.981776602986223 $340 -35.323745955783323 $336 $479 forward 7 unknown #
edge $-1 $341 34.62505950656702 $478 40.243659623184612 $214 $480 forward 7 unknown #
coedge $-1 $215 $470 $476 $481 forward $329 $-1 #
vertex $-1 $216 $482 #
vertex $-1 $216 $483 #
straight-curve $-1 17.307185779036054 36.34548134508006 8.6954282646920973 0 -1 0 I I #
coedge $-1 $343 $343 $-1 $484 reversed $219 $-1 #
edge $-1 $485 0 $485 6.2831853071796004 $220 $486 forward 7 unknown #
vertex $-1 $223 $487 #
ellipse-curve $-1 21.961449146130541 18.550889188894104 6.3664129410906432 0 0.82903758062907751 0.55919289150049634 0.5 0 0 1 I I #
coedge $-1 $347 $347 $-1 $488 reversed $226 $-1 #
edge $-1 $489 0 $489 6.2831853071796004 $227 $490 forward 7 unknown #
vertex $-1 $230 $491 #
ellipse-curve $-1 28.942844196772278 18.550889188894104 6.3664129410906432 0 0.82903758062907751 0.55919289150049634 0.5 0 0 1 I I #
face $-1 $-1 $492 $48 $-1 $493 reversed single #
loop $-1 $-1 $237 $231 #
plane-surface $-1 0 0 8.6954282646920973 0 0 1 1 0 0 forward_v I I I I #
coedge $-1 $494 $495 $496 $497 reversed $232 $-1 #
coedge $-1 $498 $234 $236 $361 forward $145 $-1 #
coedge $-1 $234 $498 $494 $499 forward $145 $-1 #
coedge $-1 $496 $237 $234 $358 forward $352 $-1 #
edge $-1 $364 -5.1343880131176594 $500 11.090783502086149 $357 $501 forward 7 unknown #
coedge $-1 $502 $503 $235 $360 forward $492 $-1 #
edge $-1 $504 -24.766529870033448 $363 -21.03511222002507 $359 $505 forward 7 unknown #
edge $-1 $364 -4.6722410469366507 $504 5.6847305887599196e-015 $236 $506 forward 7 unknown #
coedge $-1 $237 $496 $502 $507 forward $352 $-1 #
vertex $-1 $360 $508 #
vertex $-1 $238 $509 #
straight-curve $-1 2.1561902686334147 -46.220943437770387 8.6954282646920973 0 1 0 I I #
coedge $-1 $366 $366 $-1 $510 reversed $241 $-1 #
edge $-1 $511 0 $511 6.2831853071796004 $242 $512 forward 7 unknown #
vertex $-1 $245 $513 #
ellipse-curve $-1 -10.823946943529627 -18.715917410170579 6.8297194396879073 0 -0.79863551827123203 0.60181501223851219 0.25 0 0 1 I I #
coedge $-1 $370 $370 $-1 $514 reversed $248 $-1 #
edge $-1 $515 0 $515 6.2831853071796004 $249 $516 forward 7 unknown #
vertex $-1 $252 $517 #
ellipse-curve $-1 -5.9563954889684894 -18.715917410170579 6.8297194396879073 0 -0.79863551827123203 0.60181501223851219 0.25 0 0 1 I I #
coedge $-1 $374 $374 $-1 $518 reversed $255 $-1 #
edge $-1 $519 0 $519 6.2831853071796004 $256 $520 forward 7 unknown #
vertex $-1 $259 $521 #
ellipse-curve $-1 -1.0888440344073516 -18.715917410170579 6.8297194396879073 0 -0.79863551827123203 0.60181501223851219 0.25 0 0 1 I I #
face $-1 $-1 $271 $39 $-1 $522 reversed single #
loop $-1 $-1 $523 $260 #
plane-surface $-1 -45.277260658589434 0 0 1 0 0 0 0 -1 forward_v I I I I #
coedge $-1 $524 $386 $523 $525 forward $261 $-1 #
coedge $-1 $526 $263 $524 $527 forward $164 $-1 #
coedge $-1 $263 $526 $269 $395 forward $164 $-1 #
coedge $-1 $265 $264 $528 $529 forward $105 $-1 #
edge $-1 $272 -45.277260658589434 $530 45.277260658589434 $270 $531 forward 7 unknown #
coedge $-1 $381 $390 $265 $387 reversed $261 $-1 #
edge $-1 $532 -45.277260658589434 $388 45.277260658589434 $386 $533 forward 7 unknown #
vertex $-1 $266 $534 #
straight-curve $-1 45.277260658589434 0 8.6954282646920973 0 1 0 I I #
coedge $-1 $386 $524 $267 $391 reversed $261 $-1 #
edge $-1 $388 -8.6954282646920973 $392 8.6954282646920973 $267 $535 forward 7 unknown #
vertex $-1 $391 $536 #
straight-curve $-1 45.277260658589434 0 -8.6954282646920973 0 -1 0 I I #
coedge $-1 $270 $269 $537 $538 reversed $271 $-1 #
edge $-1 $539 -45.277260658589434 $273 45.277260658589434 $269 $540 forward 7 unknown #
point $-1 45.277260658589434 20.12182981159231 8.6954282646920973 #
point $-1 45.277260658589434 20.12182981159231 -8.6954282646920973 #
face $-1 $-1 $411 $40 $-1 $541 reversed single #
loop $-1 $-1 $542 $275 #
plane-surface $-1 -53.712078178275171 0 -6.0293854751320204 1 0 0 0 0 -1 forward_v I I I I #
coedge $-1 $543 $403 $281 $408 reversed $276 $-1 #
coedge $-1 $279 $278 $542 $544 reversed $109 $-1 #
coedge $-1 $401 $545 $278 $404 forward $276 $-1 #
edge $-1 $546 -4.2174087598428684 $406 4.2174087598428684 $278 $547 forward 7 unknown #
edge $-1 $286 -4.2174087598428684 $548 4.2174087598428684 $279 $549 forward 7 unknown #
vertex $-1 $280 $550 #
straight-curve $-1 -45.277260658589434 20.12182981159231 0 0 0 -1 I I #
edge $-1 $412 -20.12182981159231 $406 20.12182981159231 $401 $551 forward 7 unknown #
coedge $-1 $552 $282 $285 $415 reversed $411 $-1 #
coedge $-1 $282 $552 $543 $553 reversed $411 $-1 #
loop $-1 $-1 $282 $398 #
vertex $-1 $283 $554 #
straight-curve $-1 -45.277260658589434 -20.12182981159231 0 0 0 1 I I #
coedge $-1 $285 $284 $555 $556 forward $172 $-1 #
edge $-1 $557 -4.2174087598428684 $287 4.2174087598428684 $409 $558 forward 7 unknown #
point $-1 -45.277260658589434 20.12182981159231 -4.5293854751320204 #
point $-1 -45.277260658589434 -20.12182981159231 -4.5293854751320204 #
face $-1 $-1 $434 $41 $-1 $559 reversed single #
loop $-1 $-1 $560 $289 #
plane-surface $-1 54.48727081811672 0 -0.90494582594671868 -1 0 0 0 0 1 forward_v I I I I #
coedge $-1 $425 $561 $562 $563 forward $290 $-1 #
coedge $-1 $560 $564 $292 $423 reversed $419 $-1 #
edge $-1 $565 -20.12182981159231 $566 20.12182981159231 $422 $567 forward 7 unknown #
coedge $-1 $294 $293 $560 $568 reversed $113 $-1 #
coedge $-1 $430 $421 $293 $426 forward $290 $-1 #
edge $-1 $569 -4.605005079763643 $428 4.605005079763643 $293 $570 forward 7 unknown #
edge $-1 $301 -4.605005079763643 $565 4.605005079763643 $294 $571 forward 7 unknown #
vertex $-1 $295 $572 #
straight-curve $-1 45.277260658589434 -20.12182981159231 0 0 0 -1 I I #
coedge $-1 $561 $425 $296 $431 reversed $290 $-1 #
edge $-1 $435 -20.12182981159231 $428 20.12182981159231 $430 $573 forward 7 unknown #
coedge $-1 $574 $297 $300 $437 reversed $434 $-1 #
coedge $-1 $297 $574 $561 $575 reversed $434 $-1 #
loop $-1 $-1 $297 $418 #
vertex $-1 $298 $576 #
straight-curve $-1 45.277260658589434 20.12182981159231 0 0 0 1 I I #
edge $-1 $566 -4.605005079763643 $302 4.605005079763643 $432 $577 forward 7 unknown #
point $-1 45.277260658589434 -20.12182981159231 0.59505417405328132 #
point $-1 45.277260658589434 20.12182981159231 0.59505417405328132 #
plane-surface $-1 0 0 8.6954282646920973 0 0 1 1 0 0 forward_v I I I I #
coedge $-1 $451 $450 $443 $578 forward $305 $-1 #
coedge $-1 $443 $307 $309 $447 reversed $188 $-1 #
coedge $-1 $307 $442 $441 $578 reversed $188 $-1 #
coedge $-1 $315 $310 $307 $445 forward $316 $-1 #
edge $-1 $448 -19.365532778884166 $579 -16.22365153348775 $444 $580 forward 7 unknown #
coedge $-1 $309 $308 $451 $581 reversed $117 $-1 #
edge $-1 $582 -40.243659623184612 $448 -34.62505950656702 $442 $583 forward 7 unknown #
vertex $-1 $311 $584 #
straight-curve $-1 -5.5013500737657566 16.97994856619589 8.6954282646920973 1 0 0 I I #
coedge $-1 $441 $312 $315 $455 reversed $305 $-1 #
coedge $-1 $312 $441 $446 $581 forward $305 $-1 #
vertex $-1 $313 $585 #
straight-curve $-1 -19.147661039946868 20.12182981159231 44.019174220475421 0 0 1 I I #
straight-curve $-1 -19.147661039946868 -2.3821385776580684 37.400903827154259 0 0.55919289150049634 -0.82903758062907751 I I #
edge $-1 $579 2.8577392551161562 $317 19.147661039946868 $450 $586 forward 7 unknown #
point $-1 -19.147661039946868 20.12182981159231 8.6954282646920973 #
point $-1 -19.147661039946868 16.979948566195894 8.6954282646920973 #
edge $-1 $587 1 $587 0 $320 $-1 forward 7 unknown #
vertex $-1 $321 $588 #
ellipse-curve $-1 -14.493397672852382 17.177867645671085 5.4402982452227482 0 0.82903758062907751 0.55919289150049634 0.5 0 0 1 I I #
point $-1 -13.993397672852382 18.550889188894097 6.3664129410906387 #
edge $-1 $589 1 $589 0 $324 $-1 forward 7 unknown #
vertex $-1 $325 $590 #
ellipse-curve $-1 -7.5120026222106517 17.177867645671085 5.4402982452227482 0 0.82903758062907751 0.55919289150049634 0.5 0 0 1 I I #
point $-1 -7.0120026222106517 18.550889188894097 6.3664129410906387 #
loop $-1 $-1 $336 $328 #
plane-surface $-1 0 20.12182981159231 0 0 -1 0 0 0 -1 forward_v I I I I #
coedge $-1 $469 $331 $333 $473 reversed $210 $-1 #
coedge $-1 $331 $468 $591 $592 reversed $210 $-1 #
coedge $-1 $339 $334 $331 $471 forward $329 $-1 #
edge $-1 $474 -19.365532778884166 $593 -16.22365153348775 $470 $594 forward 7 unknown #
coedge $-1 $333 $332 $477 $595 reversed $131 $-1 #
edge $-1 $596 -40.243659623184612 $474 -34.62505950656702 $468 $597 forward 7 unknown #
vertex $-1 $335 $598 #
straight-curve $-1 12.726073335725705 16.97994856619589 8.6954282646920973 1 0 0 I I #
coedge $-1 $591 $336 $339 $481 reversed $466 $-1 #
coedge $-1 $336 $591 $472 $595 forward $466 $-1 #
vertex $-1 $337 $599 #
straight-curve $-1 17.307185779036054 20.12182981159231 44.019174220475421 0 0 1 I I #
straight-curve $-1 17.307185779036054 -2.3821385776580684 37.400903827154259 0 0.55919289150049634 -0.82903758062907751 I I #
edge $-1 $593 -33.597107563866764 $340 -17.307185779036054 $476 $600 forward 7 unknown #
point $-1 17.307185779036054 20.12182981159231 8.6954282646920973 #
point $-1 17.307185779036054 16.979948566195894 8.6954282646920973 #
edge $-1 $601 1 $601 0 $343 $-1 forward 7 unknown #
vertex $-1 $344 $602 #
ellipse-curve $-1 21.961449146130541 17.177867645671085 5.4402982452227482 0 0.82903758062907751 0.55919289150049634 0.5 0 0 1 I I #
point $-1 22.461449146130541 18.550889188894097 6.3664129410906387 #
edge $-1 $603 1 $603 0 $347 $-1 forward 7 unknown #
vertex $-1 $348 $604 #
ellipse-curve $-1 28.942844196772278 17.177867645671085 5.4402982452227482 0 0.82903758062907751 0.55919289150049634 0.5 0 0 1 I I #
point $-1 29.442844196772278 18.550889188894097 6.3664129410906387 #
loop $-1 $-1 $359 $351 #
plane-surface $-1 0 -20.12182981159231 0 0 1 0 0 0 1 forward_v I I I I #
coedge $-1 $495 $354 $356 $499 reversed $232 $-1 #
coedge $-1 $354 $494 $605 $606 reversed $232 $-1 #
coedge $-1 $362 $357 $354 $497 forward $352 $-1 #
edge $-1 $500 -28.910938429021542 $607 -26.099113626178077 $496 $608 forward 7 unknown #
coedge $-1 $356 $355 $503 $609 reversed $145 $-1 #
edge $-1 $610 -5.6847305887599196e-015 $500 4.6722410469366507 $494 $611 forward 7 unknown #
vertex $-1 $358 $612 #
straight-curve $-1 -2.9781977444842447 -17.310005008748846 8.6954282646920973 -1 0 0 I I #
coedge $-1 $605 $359 $362 $507 reversed $492 $-1 #
coedge $-1 $359 $605 $498 $609 forward $492 $-1 #
vertex $-1 $360 $613 #
straight-curve $-1 2.1561902686334147 -20.121829811592306 29.730540484717167 0 0 1 I I #
straight-curve $-1 2.1561902686334147 -20.121829811592306 4.9640106146837226 0 -0.60181501223851219 -0.79863551827123203 I I #
edge $-1 $607 -14.068981246570393 $363 2.1561902686334147 $502 $614 forward 7 unknown #
point $-1 2.1561902686334147 -20.12182981159231 8.6954282646920973 #
point $-1 2.1561902686334147 -17.310005008748846 8.6954282646920973 #
edge $-1 $615 1 $615 0 $366 $-1 forward 7 unknown #
vertex $-1 $367 $616 #
ellipse-curve $-1 -10.823946943529627 -17.91728189189935 6.2279044274493982 0 -0.79863551827123203 0.60181501223851219 0.25 0 0 1 I I #
point $-1 -10.573946943529627 -18.715917410170583 6.8297194396879108 #
edge $-1 $617 1 $617 0 $370 $-1 forward 7 unknown #
vertex $-1 $371 $618 #
ellipse-curve $-1 -5.9563954889684894 -17.91728189189935 6.2279044274493982 0 -0.79863551827123203 0.60181501223851219 0.25 0 0 1 I I #
point $-1 -5.7063954889684894 -18.715917410170583 6.8297194396879108 #
edge $-1 $619 1 $619 0 $374 $-1 forward 7 unknown #
vertex $-1 $375 $620 #
ellipse-curve $-1 -1.0888440344073516 -17.91728189189935 6.2279044274493982 0 -0.79863551827123203 0.60181501223851219 0.25 0 0 1 I I #
point $-1 -0.83884403440735156 -18.715917410170583 6.8297194396879108 #
plane-surface $-1 0 20.12182981159231 0 0 -1 0 0 0 -1 forward_v I I I I #
coedge $-1 $528 $621 $381 $525 reversed $379 $-1 #
coedge $-1 $390 $381 $382 $527 reversed $261 $-1 #
edge $-1 $532 -8.6954282646920973 $622 8.6954282646920973 $523 $623 forward 7 unknown #
coedge $-1 $383 $382 $621 $624 forward $164 $-1 #
edge $-1 $392 -45.277260658589434 $622 45.277260658589434 $524 $625 forward 7 unknown #
coedge $-1 $537 $523 $384 $529 reversed $379 $-1 #
edge $-1 $530 -20.12182981159231 $532 20.12182981159231 $528 $626 forward 7 unknown #
vertex $-1 $385 $627 #
straight-curve $-1 0 20.12182981159231 8.6954282646920973 -1 0 0 I I #
vertex $-1 $529 $628 #
straight-curve $-1 0 -20.12182981159231 8.6954282646920973 1 0 0 I I #
point $-1 45.277260658589434 -20.12182981159231 8.6954282646920973 #
straight-curve $-1 45.277260658589434 -20.12182981159231 0 0 0 -1 I I #
point $-1 45.277260658589434 -20.12182981159231 -8.6954282646920973 #
coedge $-1 $621 $528 $394 $538 forward $379 $-1 #
edge $-1 $530 -8.6954282646920973 $539 8.6954282646920973 $394 $629 forward 7 unknown #
vertex $-1 $395 $630 #
straight-curve $-1 0 20.12182981159231 -8.6954282646920973 1 0 0 I I #
plane-surface $-1 0 -20.12182981159231 0 0 1 0 0 0 1 forward_v I I I I #
coedge $-1 $631 $555 $402 $544 forward $399 $-1 #
coedge $-1 $545 $401 $410 $553 forward $276 $-1 #
edge $-1 $548 -1.5 $546 1.5 $402 $632 forward 7 unknown #
coedge $-1 $403 $543 $631 $633 forward $276 $-1 #
vertex $-1 $404 $634 #
straight-curve $-1 -49.494669418432302 20.12182981159231 -7.5293854751320204 1 0 0 I I #
vertex $-1 $405 $635 #
straight-curve $-1 -49.494669418432302 20.12182981159231 -4.5293854751320204 -1 0 0 I I #
point $-1 -45.277260658589434 20.12182981159231 -7.5293854751320204 #
straight-curve $-1 -45.277260658589434 0 -7.5293854751320204 0 1 0 I I #
coedge $-1 $410 $409 $636 $637 forward $411 $-1 #
edge $-1 $412 -4.2174087598428684 $638 4.2174087598428684 $410 $639 forward 7 unknown #
point $-1 -45.277260658589434 -20.12182981159231 -7.5293854751320204 #
coedge $-1 $542 $636 $414 $556 reversed $399 $-1 #
edge $-1 $548 -20.12182981159231 $557 20.12182981159231 $555 $640 forward 7 unknown #
vertex $-1 $556 $641 #
straight-curve $-1 -49.494669418432302 -20.12182981159231 -4.5293854751320204 1 0 0 I I #
plane-surface $-1 0 20.12182981159231 0 0 -1 0 0 0 -1 forward_v I I I I #
coedge $-1 $562 $422 $424 $568 forward $419 $-1 #
coedge $-1 $421 $430 $433 $575 forward $290 $-1 #
coedge $-1 $564 $560 $421 $563 reversed $419 $-1 #
edge $-1 $642 -20.12182981159231 $569 20.12182981159231 $562 $643 forward 7 unknown #
coedge $-1 $422 $562 $574 $644 reversed $419 $-1 #
vertex $-1 $423 $645 #
vertex $-1 $423 $646 #
straight-curve $-1 54.48727081811672 0 0.59505417405328132 0 1 0 I I #
edge $-1 $565 -1.5 $569 1.5 $560 $647 forward 7 unknown #
vertex $-1 $568 $648 #
straight-curve $-1 49.882265738353077 -20.12182981159231 -2.4049458259467187 -1 0 0 I I #
straight-curve $-1 49.882265738353077 -20.12182981159231 0.59505417405328132 1 0 0 I I #
point $-1 45.277260658589434 -20.12182981159231 -2.4049458259467187 #
straight-curve $-1 45.277260658589434 0 -2.4049458259467187 0 -1 0 I I #
coedge $-1 $433 $432 $564 $644 forward $434 $-1 #
edge $-1 $435 -4.605005079763643 $642 4.605005079763643 $433 $649 forward 7 unknown #
point $-1 45.277260658589434 20.12182981159231 -2.4049458259467187 #
straight-curve $-1 49.882265738353077 20.12182981159231 0.59505417405328132 -1 0 0 I I #
edge $-1 $579 35.323745955783323 $582 39.981776602986223 $441 $650 forward 7 unknown #
vertex $-1 $455 $651 #
straight-curve $-1 -2.8577392551161562 36.34548134508006 8.6954282646920973 0 1 0 I I #
edge $-1 $582 -2.6436108186496003 $452 13.646310966181112 $451 $652 forward 7 unknown #
vertex $-1 $581 $653 #
straight-curve $-1 -2.8577392551161562 -2.3821385776580684 37.400903827154259 0 -0.55919289150049634 0.82903758062907751 I I #
point $-1 -2.8577392551161562 16.979948566195894 8.6954282646920973 #
point $-1 -19.147661039946868 20.12182981159231 4.0373976174891979 #
straight-curve $-1 0 20.12182981159231 8.6954282646920973 -1 0 0 I I #
vertex $-1 $458 $654 #
point $-1 -13.993397672852382 17.177867645671085 5.4402982452227482 #
vertex $-1 $462 $655 #
point $-1 -7.0120026222106517 17.177867645671085 5.4402982452227482 #
coedge $-1 $477 $476 $469 $592 forward $466 $-1 #
edge $-1 $593 35.323745955783323 $596 39.981776602986223 $591 $656 forward 7 unknown #
vertex $-1 $481 $657 #
straight-curve $-1 33.597107563866764 36.34548134508006 8.6954282646920973 0 1 0 I I #
edge $-1 $596 -20.87103422814106 $478 -4.5811124433103494 $477 $658 forward 7 unknown #
vertex $-1 $595 $659 #
straight-curve $-1 33.597107563866764 -2.3821385776580684 37.400903827154259 0 -0.55919289150049634 0.82903758062907751 I I #
point $-1 33.597107563866764 16.979948566195894 8.6954282646920973 #
point $-1 17.307185779036054 20.12182981159231 4.0373976174891979 #
straight-curve $-1 0 20.12182981159231 8.6954282646920973 -1 0 0 I I #
vertex $-1 $484 $660 #
point $-1 22.461449146130541 17.177867645671085 5.4402982452227482 #
vertex $-1 $488 $661 #
point $-1 29.442844196772278 17.177867645671085 5.4402982452227482 #
coedge $-1 $503 $502 $495 $606 forward $492 $-1 #
edge $-1 $607 21.03511222002507 $610 24.766529870033448 $605 $662 forward 7 unknown #
vertex $-1 $507 $663 #
straight-curve $-1 -14.068981246570393 -46.220943437770387 8.6954282646920973 0 -1 0 I I #
edge $-1 $610 -11.090783502086149 $504 5.1343880131176594 $503 $664 forward 7 unknown #
vertex $-1 $609 $665 #
straight-curve $-1 -14.068981246570393 -20.121829811592306 4.9640106146837226 0 0.60181501223851219 0.79863551827123203 I I #
point $-1 -14.068981246570393 -17.310005008748846 8.6954282646920973 #
point $-1 2.1561902686334147 -20.12182981159231 4.9640106146837182 #
straight-curve $-1 0 -20.12182981159231 8.6954282646920973 1 0 0 I I #
vertex $-1 $510 $666 #
point $-1 -10.573946943529627 -17.91728189189935 6.2279044274493982 #
vertex $-1 $514 $667 #
point $-1 -5.7063954889684894 -17.91728189189935 6.2279044274493982 #
vertex $-1 $518 $668 #
point $-1 -0.83884403440735156 -17.91728189189935 6.2279044274493982 #
coedge $-1 $523 $537 $526 $624 reversed $379 $-1 #
vertex $-1 $624 $669 #
straight-curve $-1 -45.277260658589434 -20.12182981159231 0 0 0 -1 I I #
edge $-1 $622 -20.12182981159231 $539 20.12182981159231 $621 $670 forward 7 unknown #
straight-curve $-1 0 -20.12182981159231 -8.6954282646920973 -1 0 0 I I #
straight-curve $-1 -45.277260658589434 0 8.6954282646920973 0 -1 0 I I #
point $-1 -45.277260658589434 20.12182981159231 8.6954282646920973 #
point $-1 -45.277260658589434 -20.12182981159231 8.6954282646920973 #
straight-curve $-1 -45.277260658589434 20.12182981159231 0 0 0 -1 I I #
point $-1 -45.277260658589434 20.12182981159231 -8.6954282646920973 #
coedge $-1 $636 $542 $545 $633 reversed $399 $-1 #
straight-curve $-1 -53.712078178275171 20.12182981159231 -6.0293854751320204 0 0 -1 I I #
edge $-1 $638 -20.12182981159231 $546 20.12182981159231 $631 $671 forward 7 unknown #
point $-1 -53.712078178275171 20.12182981159231 -7.5293854751320204 #
point $-1 -53.712078178275171 20.12182981159231 -4.5293854751320204 #
coedge $-1 $555 $631 $552 $637 reversed $399 $-1 #
edge $-1 $557 -1.5 $638 1.5 $636 $672 forward 7 unknown #
vertex $-1 $633 $673 #
straight-curve $-1 -49.494669418432302 -20.12182981159231 -7.5293854751320204 -1 0 0 I I #
straight-curve $-1 -53.712078178275171 0 -4.5293854751320204 0 -1 0 I I #
point $-1 -53.712078178275171 -20.12182981159231 -4.5293854751320204 #
vertex $-1 $563 $674 #
straight-curve $-1 54.48727081811672 0 -2.4049458259467187 0 -1 0 I I #
edge $-1 $566 -1.5 $642 1.5 $564 $675 forward 7 unknown #
point $-1 54.48727081811672 -20.12182981159231 0.59505417405328132 #
point $-1 54.48727081811672 20.12182981159231 0.59505417405328132 #
straight-curve $-1 54.48727081811672 -20.12182981159231 -0.90494582594671868 0 0 -1 I I #
point $-1 54.48727081811672 -20.12182981159231 -2.4049458259467187 #
straight-curve $-1 49.882265738353077 20.12182981159231 -2.4049458259467187 1 0 0 I I #
straight-curve $-1 -2.8577392551161562 20.12182981159231 44.019174220475421 0 0 -1 I I #
point $-1 -2.8577392551161562 20.12182981159231 8.6954282646920973 #
straight-curve $-1 -5.5013500737657566 20.121829811592313 4.0373976174891926 -1 0 0 I I #
point $-1 -2.8577392551161562 20.12182981159231 4.0373976174891979 #
point $-1 -14.493397672852382 16.763348855356547 5.1607017994724993 #
point $-1 -7.5120026222106517 16.763348855356547 5.1607017994724993 #
straight-curve $-1 33.597107563866764 20.12182981159231 44.019174220475421 0 0 -1 I I #
point $-1 33.597107563866764 20.12182981159231 8.6954282646920973 #
straight-curve $-1 12.726073335725705 20.121829811592313 4.0373976174891926 -1 0 0 I I #
point $-1 33.597107563866764 20.12182981159231 4.0373976174891979 #
point $-1 21.961449146130541 16.763348855356547 5.1607017994724993 #
point $-1 28.942844196772278 16.763348855356547 5.1607017994724993 #
straight-curve $-1 -14.068981246570393 -20.121829811592306 29.730540484717167 0 0 -1 I I #
point $-1 -14.068981246570393 -20.12182981159231 8.6954282646920973 #
straight-curve $-1 -2.9781977444842447 -20.12182981159231 4.9640106146837137 1 0 0 I I #
point $-1 -14.068981246570393 -20.12182981159231 4.9640106146837182 #
point $-1 -10.823946943529627 -17.717623012331543 6.0774506743897705 #
point $-1 -5.9563954889684894 -17.717623012331543 6.0774506743897705 #
point $-1 -1.0888440344073516 -17.717623012331543 6.0774506743897705 #
point $-1 -45.277260658589434 -20.12182981159231 -8.6954282646920973 #
straight-curve $-1 -45.277260658589434 0 -8.6954282646920973 0 1 0 I I #
straight-curve $-1 -53.712078178275171 0 -7.5293854751320204 0 1 0 I I #
straight-curve $-1 -53.712078178275171 -20.12182981159231 -6.0293854751320204 0 0 -1 I I #
point $-1 -53.712078178275171 -20.12182981159231 -7.5293854751320204 #
point $-1 54.48727081811672 20.12182981159231 -2.4049458259467187 #
straight-curve $-1 54.48727081811672 20.12182981159231 -0.90494582594671868 0 0 -1 I I #
End-of-ACIS-data 