500 0 10 0           
7 Unknown 11 ACIS 5.0 NT 24 Thu Mar 25 19:31:18 1999 
-1 9.9999999999999995e-007 1e-010 
body $-1 $10 $-1 $11 #
body $-1 $12 $-1 $13 #
body $-1 $14 $-1 $15 #
body $-1 $16 $-1 $17 #
body $-1 $18 $-1 $19 #
body $-1 $20 $-1 $21 #
body $-1 $22 $-1 $23 #
body $-1 $24 $-1 $25 #
body $-1 $26 $-1 $27 #
body $-1 $28 $-1 $29 #
lump $-1 $-1 $30 $0 #
transform $-1 1 0 0 0 1 0 0 0 1 71.290017395550393 34.606346192674465 12.361099169093331 1 rotate no_reflect no_shear #
lump $-1 $-1 $31 $1 #
transform $-1 1 0 0 0 1 0 0 0 1 71.290017395550393 34.606346192674465 12.361099169093331 1 rotate no_reflect no_shear #
lump $-1 $-1 $32 $2 #
transform $-1 1 0 0 0 1 0 0 0 1 71.290017395550393 34.606346192674465 12.361099169093331 1 rotate no_reflect no_shear #
lump $-1 $-1 $33 $3 #
transform $-1 1 0 0 0 1 0 0 0 1 71.290017395550393 34.606346192674465 12.361099169093331 1 rotate no_reflect no_shear #
lump $-1 $-1 $34 $4 #
transform $-1 1 0 0 0 1 0 0 0 1 71.290017395550393 34.606346192674465 12.361099169093331 1 rotate no_reflect no_shear #
lump $-1 $-1 $35 $5 #
transform $-1 1 0 0 0 1 0 0 0 1 71.290017395550393 34.606346192674465 12.361099169093331 1 rotate no_reflect no_shear #
lump $-1 $-1 $36 $6 #
transform $-1 1 0 0 0 1 0 0 0 1 71.290017395550393 34.606346192674465 12.361099169093331 1 rotate no_reflect no_shear #
lump $-1 $-1 $37 $7 #
transform $-1 1 0 0 0 1 0 0 0 1 71.290017395550393 34.606346192674465 12.361099169093331 1 rotate no_reflect no_shear #
lump $-1 $-1 $38 $8 #
transform $-1 1 0 0 0 1 0 0 0 1 71.290017395550393 34.606346192674465 12.361099169093331 1 rotate no_reflect no_shear #
lump $-1 $-1 $39 $9 #
transform $-1 1 0 0 0 1 0 0 0 1 71.290017395550393 34.606346192674465 12.361099169093331 1 rotate no_reflect no_shear #
shell $-1 $-1 $-1 $40 $-1 $10 #
shell $-1 $-1 $-1 $41 $-1 $12 #
shell $-1 $-1 $-1 $42 $-1 $14 #
shell $-1 $-1 $-1 $43 $-1 $16 #
shell $-1 $-1 $-1 $44 $-1 $18 #
shell $-1 $-1 $-1 $45 $-1 $20 #
shell $-1 $-1 $-1 $46 $-1 $22 #
shell $-1 $-1 $-1 $47 $-1 $24 #
shell $-1 $-1 $-1 $48 $-1 $26 #
shell $-1 $-1 $-1 $49 $-1 $28 #
face $-1 $50 $51 $30 $-1 $52 forward single #
face $-1 $53 $54 $31 $-1 $55 forward single #
face $-1 $56 $57 $32 $-1 $58 reversed single #
face $-1 $59 $60 $33 $-1 $61 forward single #
face $-1 $62 $63 $34 $-1 $64 forward single #
face $-1 $65 $66 $35 $-1 $67 forward single #
face $-1 $68 $69 $36 $-1 $70 reversed single #
face $-1 $71 $72 $37 $-1 $73 forward single #
face $-1 $74 $75 $38 $-1 $76 forward single #
face $-1 $77 $78 $39 $-1 $79 forward single #
face $-1 $80 $81 $30 $-1 $82 reversed single #
loop $-1 $-1 $83 $40 #
plane-surface $-1 0 0 12.361099169093331 0 0 1 1 0 0 forward_v I I I I #
face $-1 $84 $85 $31 $-1 $86 reversed single #
loop $-1 $-1 $87 $41 #
plane-surface $-1 -64.379454876188589 0 -2.4562578519637857 0 0 1 1 0 0 forward_v I I I I #
face $-1 $88 $89 $32 $-1 $90 reversed single #
loop $-1 $-1 $91 $42 #
plane-surface $-1 -18.372146179267411 -140.56396244480123 96.651115304002218 1 0 0 0 0.74314483375859142 -0.66913059716165679 forward_v I I I I #
face $-1 $92 $93 $33 $-1 $94 forward single #
loop $-1 $95 $96 $43 #
cone-surface $-1 -11.01661613962127 -28.292395482152749 5.6241434369511181 0 0.74314483375859142 -0.66913059716165679 2 0 0 1 I I 0 1 2 forward I I I I #
face $-1 $97 $98 $34 $-1 $99 forward single #
loop $-1 $100 $101 $44 #
cone-surface $-1 0.01667891984791936 -28.292395482152749 5.6241434369511181 0 0.74314483375859142 -0.66913059716165679 2 0 0 1 I I 0 1 2 forward I I I I #
face $-1 $102 $103 $35 $-1 $104 forward single #
loop $-1 $105 $106 $45 #
cone-surface $-1 11.049973979317116 -28.292395482152749 5.6241434369511181 0 0.74314483375859142 -0.66913059716165679 2 0 0 1 I I 0 1 2 forward I I I I #
face $-1 $107 $108 $36 $-1 $109 reversed single #
loop $-1 $-1 $110 $46 #
plane-surface $-1 54.339203802642004 78.575958772518732 157.79741350324556 1 0 0 0 -0.66913061440640931 -0.74314481823134659 forward_v I I I I #
face $-1 $111 $112 $37 $-1 $113 forward single #
loop $-1 $114 $115 $47 #
cone-surface $-1 57.729366521223682 30.454682435271305 8.5478996563008831 0 -0.66913061440640931 -0.74314481823134659 0.5 0 0 1 I I 0 1 0.5 forward I I I I #
face $-1 $116 $117 $38 $-1 $118 forward single #
loop $-1 $119 $120 $48 #
cone-surface $-1 62.814610599096198 30.454682435271305 8.5478996563008831 0 -0.66913061440640931 -0.74314481823134659 0.5 0 0 1 I I 0 1 0.5 forward I I I I #
face $-1 $121 $122 $39 $-1 $123 forward single #
loop $-1 $124 $125 $49 #
cone-surface $-1 67.899854676968715 30.454682435271305 8.5478996563008831 0 -0.66913061440640931 -0.74314481823134659 0.5 0 0 1 I I 0 1 0.5 forward I I I I #
face $-1 $126 $127 $30 $-1 $128 reversed single #
loop $-1 $-1 $129 $50 #
plane-surface $-1 0 0 -12.361099169093331 0 0 1 1 0 0 forward_v I I I I #
coedge $-1 $130 $131 $132 $133 forward $51 $-1 #
face $-1 $134 $135 $31 $-1 $136 reversed single #
loop $-1 $-1 $137 $53 #
plane-surface $-1 -64.379454876188589 0 -7.7374240163305323 0 0 1 1 0 0 forward_v I I I I #
coedge $-1 $138 $139 $140 $141 forward $54 $-1 #
face $-1 $142 $143 $32 $-1 $144 reversed single #
loop $-1 $-1 $145 $56 #
plane-surface $-1 0.01667891984791936 -34.606346192674465 1.2464514809031471 0 -0.74314483375859142 0.66913059716165679 1 0 0 forward_v I I I I #
coedge $-1 $146 $147 $148 $149 reversed $57 $-1 #
face $-1 $-1 $150 $33 $-1 $151 forward single #
loop $-1 $152 $153 $59 #
cone-surface $-1 -11.01661613962127 -26.239136678030718 3.7753809517423331 0 0.74314483375859142 -0.66913059716165679 1 0 0 1 I I -0.70710678118654746 0.70710678118654746 1 forward I I I I #
loop $-1 $-1 $154 $43 #
coedge $-1 $96 $96 $155 $156 reversed $60 $-1 #
face $-1 $-1 $157 $34 $-1 $158 forward single #
loop $-1 $159 $160 $62 #
cone-surface $-1 0.01667891984791936 -26.239136678030718 3.7753809517423331 0 0.74314483375859142 -0.66913059716165679 1 0 0 1 I I -0.70710678118654746 0.70710678118654746 1 forward I I I I #
loop $-1 $-1 $161 $44 #
coedge $-1 $101 $101 $162 $163 reversed $63 $-1 #
face $-1 $-1 $164 $35 $-1 $165 forward single #
loop $-1 $166 $167 $65 #
cone-surface $-1 11.049973979317116 -26.239136678030718 3.7753809517423331 0 0.74314483375859142 -0.66913059716165679 1 0 0 1 I I -0.70710678118654746 0.70710678118654746 1 forward I I I I #
loop $-1 $-1 $168 $45 #
coedge $-1 $106 $106 $169 $170 reversed $66 $-1 #
face $-1 $171 $172 $36 $-1 $173 forward single #
loop $-1 $-1 $174 $68 #
plane-surface $-1 62.814610599096198 -16.828707509337747 51.839799464993902 0 0.66913061440640931 0.74314481823134659 1 0 0 forward_v I I I I #
coedge $-1 $175 $176 $177 $178 reversed $69 $-1 #
face $-1 $-1 $179 $37 $-1 $180 forward single #
loop $-1 $181 $182 $71 #
cone-surface $-1 57.729366521223682 29.930494043784392 7.9657294812654822 0 -0.66913061440640931 -0.74314481823134659 0.25 0 0 1 I I -0.70710678118654746 0.70710678118654746 0.25 forward I I I I #
loop $-1 $-1 $183 $47 #
coedge $-1 $115 $115 $184 $185 reversed $72 $-1 #
face $-1 $-1 $186 $38 $-1 $187 forward single #
loop $-1 $188 $189 $74 #
cone-surface $-1 62.814610599096198 29.930494043784392 7.9657294812654822 0 -0.66913061440640931 -0.74314481823134659 0.25 0 0 1 I I -0.70710678118654746 0.70710678118654746 0.25 forward I I I I #
loop $-1 $-1 $190 $48 #
coedge $-1 $120 $120 $191 $192 reversed $75 $-1 #
face $-1 $-1 $193 $39 $-1 $194 forward single #
loop $-1 $195 $196 $77 #
cone-surface $-1 67.899854676968715 29.930494043784392 7.9657294812654822 0 -0.66913061440640931 -0.74314481823134659 0.25 0 0 1 I I -0.70710678118654746 0.70710678118654746 0.25 forward I I I I #
loop $-1 $-1 $197 $49 #
coedge $-1 $125 $125 $198 $199 reversed $78 $-1 #
face $-1 $200 $201 $30 $-1 $202 reversed single #
loop $-1 $-1 $203 $80 #
plane-surface $-1 0 -34.606346192674465 0 0 1 0 0 0 1 forward_v I I I I #
coedge $-1 $204 $205 $206 $207 forward $81 $-1 #
coedge $-1 $208 $83 $209 $210 forward $51 $-1 #
coedge $-1 $83 $208 $211 $212 forward $51 $-1 #
coedge $-1 $213 $214 $83 $133 reversed $215 $-1 #
edge $-1 $216 -34.606346192674465 $217 34.606346192674465 $132 $218 forward 7 unknown #
face $-1 $219 $220 $31 $-1 $221 reversed single #
loop $-1 $-1 $222 $84 #
plane-surface $-1 -57.468892356826785 0 -5.096840934147159 -1 0 0 0 0 1 forward_v I I I I #
coedge $-1 $223 $224 $225 $226 forward $85 $-1 #
coedge $-1 $227 $87 $228 $229 reversed $54 $-1 #
coedge $-1 $87 $227 $230 $231 reversed $54 $-1 #
coedge $-1 $222 $232 $87 $141 reversed $135 $-1 #
edge $-1 $233 -34.606346192674465 $234 34.606346192674465 $140 $235 forward 7 unknown #
face $-1 $236 $237 $32 $-1 $238 forward single #
loop $-1 $-1 $239 $88 #
plane-surface $-1 18.405504018963249 -140.56396244480123 96.651115304002218 -1 0 0 0 -0.74314483375859142 0.66913059716165679 forward_v I I I I #
coedge $-1 $240 $241 $242 $243 reversed $89 $-1 #
coedge $-1 $147 $91 $244 $245 reversed $57 $-1 #
coedge $-1 $91 $146 $240 $246 reversed $57 $-1 #
coedge $-1 $242 $247 $91 $149 forward $248 $-1 #
edge $-1 $249 35.96445848290778 $250 47.079106171097962 $148 $251 forward 7 unknown #
loop $-1 $-1 $155 $92 #
plane-surface $-1 0.01667891984791936 -34.606346192674465 1.2464514809031471 0 -0.74314483375859142 0.66913059716165679 1 0 0 forward_v I I I I #
loop $-1 $-1 $252 $59 #
coedge $-1 $153 $153 $154 $253 reversed $93 $-1 #
coedge $-1 $154 $154 $153 $253 forward $95 $-1 #
coedge $-1 $155 $155 $96 $156 forward $150 $-1 #
edge $-1 $254 -2.6561811788015849e-016 $254 6.2831853071796004 $155 $255 forward 7 unknown #
loop $-1 $-1 $162 $97 #
plane-surface $-1 0.01667891984791936 -34.606346192674465 1.2464514809031471 0 -0.74314483375859142 0.66913059716165679 1 0 0 forward_v I I I I #
loop $-1 $-1 $256 $62 #
coedge $-1 $160 $160 $161 $257 reversed $98 $-1 #
coedge $-1 $161 $161 $160 $257 forward $100 $-1 #
coedge $-1 $162 $162 $101 $163 forward $157 $-1 #
edge $-1 $258 -2.6561811788015849e-016 $258 6.2831853071796004 $162 $259 forward 7 unknown #
loop $-1 $-1 $169 $102 #
plane-surface $-1 0.01667891984791936 -34.606346192674465 1.2464514809031471 0 -0.74314483375859142 0.66913059716165679 1 0 0 forward_v I I I I #
loop $-1 $-1 $260 $65 #
coedge $-1 $167 $167 $168 $261 reversed $103 $-1 #
coedge $-1 $168 $168 $167 $261 forward $105 $-1 #
coedge $-1 $169 $169 $106 $170 forward $164 $-1 #
edge $-1 $262 -2.6561811788015849e-016 $262 6.2831853071796004 $169 $263 forward 7 unknown #
face $-1 $264 $265 $36 $-1 $266 reversed single #
loop $-1 $-1 $177 $107 #
plane-surface $-1 0 0 12.361099169093331 0 0 1 1 0 0 forward_v I I I I #
coedge $-1 $267 $268 $269 $270 reversed $108 $-1 #
coedge $-1 $176 $110 $271 $272 reversed $69 $-1 #
coedge $-1 $110 $175 $267 $273 reversed $69 $-1 #
coedge $-1 $269 $274 $110 $178 forward $172 $-1 #
edge $-1 $275 4.6816331935849007 $276 12.271149232620587 $177 $277 forward 7 unknown #
loop $-1 $-1 $184 $111 #
plane-surface $-1 62.814610599096198 -16.828707509337747 51.839799464993902 0 0.66913061440640931 0.74314481823134659 1 0 0 forward_v I I I I #
loop $-1 $-1 $278 $71 #
coedge $-1 $182 $182 $183 $279 reversed $112 $-1 #
coedge $-1 $183 $183 $182 $279 forward $114 $-1 #
coedge $-1 $184 $184 $115 $185 forward $179 $-1 #
edge $-1 $280 4.7544589734116678e-015 $280 6.2831853071796049 $184 $281 forward 7 unknown #
loop $-1 $-1 $191 $116 #
plane-surface $-1 62.814610599096198 -16.828707509337747 51.839799464993902 0 0.66913061440640931 0.74314481823134659 1 0 0 forward_v I I I I #
loop $-1 $-1 $282 $74 #
coedge $-1 $189 $189 $190 $283 reversed $117 $-1 #
coedge $-1 $190 $190 $189 $283 forward $119 $-1 #
coedge $-1 $191 $191 $120 $192 forward $186 $-1 #
edge $-1 $284 4.7544589734116678e-015 $284 6.2831853071796049 $191 $285 forward 7 unknown #
loop $-1 $-1 $198 $121 #
plane-surface $-1 62.814610599096198 -16.828707509337747 51.839799464993902 0 0.66913061440640931 0.74314481823134659 1 0 0 forward_v I I I I #
loop $-1 $-1 $286 $77 #
coedge $-1 $196 $196 $197 $287 reversed $122 $-1 #
coedge $-1 $197 $197 $196 $287 forward $124 $-1 #
coedge $-1 $198 $198 $125 $199 forward $193 $-1 #
edge $-1 $288 4.7544589734116678e-015 $288 6.2831853071796049 $198 $289 forward 7 unknown #
face $-1 $290 $291 $30 $-1 $292 reversed single #
loop $-1 $-1 $293 $126 #
plane-surface $-1 -71.290017395550393 0 0 1 0 0 0 0 -1 forward_v I I I I #
coedge $-1 $294 $211 $295 $296 forward $127 $-1 #
coedge $-1 $297 $129 $294 $298 forward $81 $-1 #
coedge $-1 $129 $297 $299 $300 forward $81 $-1 #
coedge $-1 $214 $213 $129 $207 reversed $215 $-1 #
edge $-1 $301 -34.606346192674465 $302 34.606346192674465 $206 $303 forward 7 unknown #
coedge $-1 $131 $130 $304 $305 forward $51 $-1 #
coedge $-1 $306 $307 $130 $210 reversed $291 $-1 #
edge $-1 $217 -71.290017395550393 $308 71.290017395550393 $209 $309 forward 7 unknown #
coedge $-1 $203 $310 $131 $212 reversed $127 $-1 #
edge $-1 $311 -71.290017395550393 $216 71.290017395550393 $211 $312 forward 7 unknown #
coedge $-1 $206 $132 $310 $313 forward $215 $-1 #
coedge $-1 $132 $206 $306 $314 reversed $215 $-1 #
loop $-1 $-1 $213 $290 #
vertex $-1 $133 $315 #
vertex $-1 $133 $316 #
straight-curve $-1 71.290017395550393 0 12.361099169093331 0 1 0 I I #
face $-1 $317 $318 $31 $-1 $319 reversed single #
loop $-1 $-1 $320 $134 #
plane-surface $-1 0 -34.606346192674465 0 0 1 0 0 0 1 forward_v I I I I #
coedge $-1 $225 $140 $321 $322 reversed $135 $-1 #
coedge $-1 $323 $137 $320 $324 reversed $85 $-1 #
coedge $-1 $137 $323 $325 $326 reversed $85 $-1 #
coedge $-1 $232 $222 $137 $226 reversed $135 $-1 #
edge $-1 $327 -34.606346192674465 $328 34.606346192674465 $225 $329 forward 7 unknown #
coedge $-1 $139 $138 $330 $331 reversed $54 $-1 #
coedge $-1 $332 $333 $138 $229 forward $334 $-1 #
edge $-1 $335 -39.100289957456098 $234 -25.279164918732491 $228 $336 forward 7 unknown #
coedge $-1 $337 $321 $139 $231 forward $220 $-1 #
edge $-1 $233 25.279164918732491 $338 39.100289957456098 $230 $339 forward 7 unknown #
coedge $-1 $140 $225 $332 $340 reversed $135 $-1 #
vertex $-1 $231 $341 #
vertex $-1 $229 $342 #
straight-curve $-1 -57.468892356826785 0 -2.4562578519637857 0 1 0 I I #
face $-1 $-1 $248 $32 $-1 $343 reversed single #
loop $-1 $-1 $344 $142 #
plane-surface $-1 0 0 12.361099169093331 0 0 1 1 0 0 forward_v I I I I #
coedge $-1 $345 $346 $347 $348 reversed $143 $-1 #
coedge $-1 $349 $145 $147 $246 forward $89 $-1 #
coedge $-1 $145 $349 $345 $350 forward $89 $-1 #
coedge $-1 $347 $148 $145 $243 forward $248 $-1 #
edge $-1 $250 -18.38048563919137 $351 18.39716455903929 $242 $352 forward 7 unknown #
coedge $-1 $353 $354 $146 $245 forward $237 $-1 #
edge $-1 $355 -45.683308510042728 $249 -35.675635029726152 $244 $356 forward 7 unknown #
edge $-1 $250 0 $355 14.956233540608514 $147 $357 forward 7 unknown #
coedge $-1 $148 $347 $353 $358 reversed $248 $-1 #
loop $-1 $-1 $347 $236 #
vertex $-1 $358 $359 #
vertex $-1 $149 $360 #
straight-curve $-1 -18.372146179267411 -34.606346192674465 48.325557652001109 0 0 -1 I I #
coedge $-1 $252 $252 $-1 $361 reversed $152 $-1 #
edge $-1 $362 0 $362 6.2831853071796004 $153 $363 forward 7 unknown #
vertex $-1 $156 $364 #
ellipse-curve $-1 -11.01661613962127 -29.602509452516177 6.803775324998238 0 -0.74314483375859142 0.66913059716165679 2 0 0 1 I I #
coedge $-1 $256 $256 $-1 $365 reversed $159 $-1 #
edge $-1 $366 0 $366 6.2831853071796004 $160 $367 forward 7 unknown #
vertex $-1 $163 $368 #
ellipse-curve $-1 0.01667891984791936 -29.602509452516177 6.803775324998238 0 -0.74314483375859142 0.66913059716165679 2 0 0 1 I I #
coedge $-1 $260 $260 $-1 $369 reversed $166 $-1 #
edge $-1 $370 0 $370 6.2831853071796004 $167 $371 forward 7 unknown #
vertex $-1 $170 $372 #
ellipse-curve $-1 11.049973979317116 -29.602509452516177 6.803775324998238 0 -0.74314483375859142 0.66913059716165679 2 0 0 1 I I #
face $-1 $-1 $373 $36 $-1 $374 reversed single #
loop $-1 $-1 $375 $171 #
plane-surface $-1 71.290017395550393 0 0 -1 0 0 0 0 1 forward_v I I I I #
coedge $-1 $376 $174 $176 $273 forward $108 $-1 #
coedge $-1 $174 $376 $375 $377 reversed $108 $-1 #
coedge $-1 $378 $177 $174 $270 forward $172 $-1 #
edge $-1 $276 22.931898503093905 $379 39.882712096002294 $269 $380 forward 7 unknown #
coedge $-1 $381 $382 $175 $272 forward $373 $-1 #
edge $-1 $383 -73.37123866715919 $275 -66.537607582529446 $271 $384 forward 7 unknown #
edge $-1 $276 58.999991101770796 $383 69.212692385348902 $176 $385 forward 7 unknown #
coedge $-1 $177 $378 $381 $386 forward $172 $-1 #
vertex $-1 $272 $387 #
vertex $-1 $178 $388 #
straight-curve $-1 54.339203802642004 39.287979386259366 12.361099169093336 0 -1 0 I I #
coedge $-1 $278 $278 $-1 $389 reversed $181 $-1 #
edge $-1 $390 0 $390 6.2831853071796004 $182 $391 forward 7 unknown #
vertex $-1 $185 $392 #
ellipse-curve $-1 57.729366521223682 30.811588173156618 8.94428362677845 0 0.66913061440640931 0.74314481823134659 0.5 0 0 1 I I #
coedge $-1 $282 $282 $-1 $393 reversed $188 $-1 #
edge $-1 $394 0 $394 6.2831853071796004 $189 $395 forward 7 unknown #
vertex $-1 $192 $396 #
ellipse-curve $-1 62.814610599096198 30.811588173156618 8.94428362677845 0 0.66913061440640931 0.74314481823134659 0.5 0 0 1 I I #
coedge $-1 $286 $286 $-1 $397 reversed $195 $-1 #
edge $-1 $398 0 $398 6.2831853071796004 $196 $399 forward 7 unknown #
vertex $-1 $199 $400 #
ellipse-curve $-1 67.899854676968715 30.811588173156618 8.94428362677845 0 0.66913061440640931 0.74314481823134659 0.5 0 0 1 I I #
face $-1 $-1 $215 $30 $-1 $401 reversed single #
loop $-1 $-1 $306 $200 #
plane-surface $-1 0 34.606346192674465 0 0 -1 0 0 0 -1 forward_v I I I I #
coedge $-1 $402 $304 $307 $403 forward $201 $-1 #
coedge $-1 $310 $203 $204 $298 reversed $127 $-1 #
coedge $-1 $304 $402 $203 $296 reversed $201 $-1 #
edge $-1 $311 -12.361099169093331 $404 12.361099169093331 $295 $405 forward 7 unknown #
coedge $-1 $205 $204 $402 $406 forward $81 $-1 #
edge $-1 $302 -71.290017395550393 $404 71.290017395550393 $294 $407 forward 7 unknown #
coedge $-1 $307 $306 $205 $300 reversed $291 $-1 #
edge $-1 $408 -71.290017395550393 $301 71.290017395550393 $299 $409 forward 7 unknown #
vertex $-1 $207 $410 #
vertex $-1 $313 $411 #
straight-curve $-1 71.290017395550393 0 -12.361099169093331 0 -1 0 I I #
coedge $-1 $293 $295 $208 $305 reversed $201 $-1 #
edge $-1 $308 -34.606346192674465 $311 34.606346192674465 $304 $412 forward 7 unknown #
coedge $-1 $299 $209 $214 $314 forward $291 $-1 #
coedge $-1 $209 $299 $293 $403 reversed $291 $-1 #
vertex $-1 $210 $413 #
straight-curve $-1 0 34.606346192674465 12.361099169093331 -1 0 0 I I #
coedge $-1 $211 $294 $213 $313 reversed $127 $-1 #
vertex $-1 $305 $414 #
straight-curve $-1 0 -34.606346192674465 12.361099169093331 1 0 0 I I #
edge $-1 $216 -12.361099169093331 $302 12.361099169093331 $213 $415 forward 7 unknown #
edge $-1 $217 -12.361099169093331 $301 12.361099169093331 $214 $416 forward 7 unknown #
point $-1 71.290017395550393 -34.606346192674465 12.361099169093331 #
point $-1 71.290017395550393 34.606346192674465 12.361099169093331 #
face $-1 $-1 $334 $31 $-1 $417 reversed single #
loop $-1 $-1 $418 $219 #
plane-surface $-1 -71.290017395550393 0 0 1 0 0 0 0 -1 forward_v I I I I #
coedge $-1 $321 $337 $223 $324 forward $220 $-1 #
coedge $-1 $230 $320 $222 $322 forward $220 $-1 #
edge $-1 $328 -5.1890035492569524 $233 0.092162615109793844 $321 $419 forward 7 unknown #
coedge $-1 $224 $223 $418 $420 reversed $85 $-1 #
edge $-1 $421 -39.100289957456098 $328 -25.279164918732491 $320 $422 forward 7 unknown #
coedge $-1 $333 $332 $224 $326 forward $334 $-1 #
edge $-1 $327 25.279164918732491 $423 39.100289957456098 $325 $424 forward 7 unknown #
vertex $-1 $326 $425 #
vertex $-1 $324 $426 #
straight-curve $-1 -57.468892356826785 0 -7.7374240163305323 0 -1 0 I I #
coedge $-1 $427 $428 $227 $331 forward $318 $-1 #
edge $-1 $338 -34.606346192674465 $335 34.606346192674465 $330 $429 forward 7 unknown #
coedge $-1 $325 $228 $232 $340 forward $334 $-1 #
coedge $-1 $228 $325 $427 $430 reversed $334 $-1 #
loop $-1 $-1 $325 $317 #
vertex $-1 $430 $431 #
straight-curve $-1 -32.189727438094295 34.606346192674465 -2.4562578519637857 1 0 0 I I #
coedge $-1 $320 $230 $428 $432 forward $220 $-1 #
vertex $-1 $432 $433 #
straight-curve $-1 -32.189727438094295 -34.606346192674465 -2.4562578519637857 -1 0 0 I I #
edge $-1 $234 -0.092162615109793844 $327 5.1890035492569524 $332 $434 forward 7 unknown #
point $-1 -57.468892356826785 -34.606346192674465 -2.4562578519637857 #
point $-1 -57.468892356826785 34.606346192674465 -2.4562578519637857 #
plane-surface $-1 0 -34.606346192674465 0 0 1 0 0 0 1 forward_v I I I I #
coedge $-1 $354 $353 $346 $435 forward $237 $-1 #
coedge $-1 $346 $239 $241 $350 reversed $143 $-1 #
coedge $-1 $239 $345 $344 $435 reversed $143 $-1 #
coedge $-1 $247 $242 $239 $348 forward $248 $-1 #
edge $-1 $351 -47.079106171097962 $436 -35.96445848290778 $347 $437 forward 7 unknown #
coedge $-1 $241 $240 $354 $438 reversed $89 $-1 #
edge $-1 $439 -14.956233540608514 $351 0 $345 $440 forward 7 unknown #
vertex $-1 $243 $441 #
straight-curve $-1 0.0083394599239596801 -34.606346192674465 1.2464514809031477 1 0 0 I I #
coedge $-1 $344 $244 $247 $358 forward $237 $-1 #
coedge $-1 $244 $344 $349 $438 forward $237 $-1 #
vertex $-1 $245 $442 #
straight-curve $-1 -18.372146179267411 -70.281981222400617 12.361099169093329 0 -1 0 I I #
straight-curve $-1 -18.372146179267411 -34.606346192674465 1.2464514809031471 0 0.66913059716165679 0.74314483375859142 I I #
edge $-1 $249 -18.372146179267411 $436 18.405504018963249 $247 $443 forward 7 unknown #
point $-1 -18.372146179267411 -34.606346192674465 12.361099169093331 #
point $-1 -18.372146179267411 -34.606346192674465 1.2464514809031471 #
edge $-1 $444 1 $444 0 $252 $-1 forward 7 unknown #
vertex $-1 $253 $445 #
ellipse-curve $-1 -11.01661613962127 -26.98228151178931 4.4445115489039901 0 -0.74314483375859142 0.66913059716165679 2 0 0 1 I I #
point $-1 -9.0166161396212701 -29.602509452516188 6.8037753249982469 #
edge $-1 $446 1 $446 0 $256 $-1 forward 7 unknown #
vertex $-1 $257 $447 #
ellipse-curve $-1 0.01667891984791936 -26.98228151178931 4.4445115489039901 0 -0.74314483375859142 0.66913059716165679 2 0 0 1 I I #
point $-1 2.0166789198479194 -29.602509452516188 6.8037753249982469 #
edge $-1 $448 1 $448 0 $260 $-1 forward 7 unknown #
vertex $-1 $261 $449 #
ellipse-curve $-1 11.049973979317116 -26.98228151178931 4.4445115489039901 0 -0.74314483375859142 0.66913059716165679 2 0 0 1 I I #
point $-1 13.049973979317116 -29.602509452516188 6.8037753249982469 #
loop $-1 $-1 $271 $264 #
plane-surface $-1 0 34.606346192674465 0 0 -1 0 0 0 -1 forward_v I I I I #
coedge $-1 $450 $451 $268 $377 forward $265 $-1 #
coedge $-1 $268 $267 $382 $452 reversed $108 $-1 #
edge $-1 $379 35.403109276864939 $453 45.615810560443045 $375 $454 forward 7 unknown #
coedge $-1 $274 $269 $451 $455 forward $172 $-1 #
vertex $-1 $455 $456 #
straight-curve $-1 31.407305299548099 27.016830153638786 12.361099169093322 1 0 0 I I #
coedge $-1 $457 $271 $274 $386 reversed $373 $-1 #
coedge $-1 $271 $457 $376 $452 forward $373 $-1 #
vertex $-1 $272 $458 #
straight-curve $-1 54.339203802642004 34.606346192674465 78.898706751622782 0 0 1 I I #
straight-curve $-1 54.339203802642004 -16.828707509337747 51.839799464993902 0 0.74314481823134659 -0.66913061440640931 I I #
edge $-1 $459 -71.290017395550393 $275 -54.339203802642004 $381 $460 forward 7 unknown #
point $-1 54.339203802642004 34.606346192674465 12.361099169093331 #
point $-1 54.339203802642004 27.016830153638779 12.361099169093329 #
edge $-1 $461 1 $461 0 $278 $-1 forward 7 unknown #
vertex $-1 $279 $462 #
ellipse-curve $-1 57.729366521223682 30.097776697385996 8.151515685823318 0 0.66913061440640931 0.74314481823134659 0.5 0 0 1 I I #
point $-1 58.229366521223682 30.811588173156618 8.9442836267784465 #
edge $-1 $463 1 $463 0 $282 $-1 forward 7 unknown #
vertex $-1 $283 $464 #
ellipse-curve $-1 62.814610599096198 30.097776697385996 8.151515685823318 0 0.66913061440640931 0.74314481823134659 0.5 0 0 1 I I #
point $-1 63.314610599096198 30.811588173156618 8.9442836267784465 #
edge $-1 $465 1 $465 0 $286 $-1 forward 7 unknown #
vertex $-1 $287 $466 #
ellipse-curve $-1 67.899854676968715 30.097776697385996 8.151515685823318 0 0.66913061440640931 0.74314481823134659 0.5 0 0 1 I I #
point $-1 68.399854676968715 30.811588173156618 8.9442836267784465 #
plane-surface $-1 71.290017395550393 0 0 -1 0 0 0 0 1 forward_v I I I I #
coedge $-1 $295 $293 $297 $406 reversed $201 $-1 #
edge $-1 $308 -12.361099169093331 $408 12.361099169093331 $307 $467 forward 7 unknown #
vertex $-1 $406 $468 #
straight-curve $-1 -71.290017395550393 -34.606346192674465 0 0 0 -1 I I #
edge $-1 $404 -34.606346192674465 $408 34.606346192674465 $402 $469 forward 7 unknown #
straight-curve $-1 0 -34.606346192674465 -12.361099169093331 -1 0 0 I I #
vertex $-1 $300 $470 #
straight-curve $-1 0 34.606346192674465 -12.361099169093331 1 0 0 I I #
point $-1 71.290017395550393 34.606346192674465 -12.361099169093331 #
point $-1 71.290017395550393 -34.606346192674465 -12.361099169093331 #
straight-curve $-1 -71.290017395550393 0 12.361099169093331 0 -1 0 I I #
point $-1 -71.290017395550393 34.606346192674465 12.361099169093331 #
point $-1 -71.290017395550393 -34.606346192674465 12.361099169093331 #
straight-curve $-1 71.290017395550393 -34.606346192674465 0 0 0 -1 I I #
straight-curve $-1 71.290017395550393 34.606346192674465 0 0 0 -1 I I #
plane-surface $-1 0 34.606346192674465 0 0 -1 0 0 0 -1 forward_v I I I I #
coedge $-1 $428 $427 $323 $420 forward $318 $-1 #
straight-curve $-1 -57.468892356826785 -34.606346192674465 -2.5484204670735795 0 0 1 I I #
edge $-1 $423 -34.606346192674465 $421 34.606346192674465 $418 $471 forward 7 unknown #
vertex $-1 $324 $472 #
straight-curve $-1 -32.189727438094295 -34.606346192674465 -7.7374240163305323 1 0 0 I I #
vertex $-1 $326 $473 #
straight-curve $-1 -32.189727438094295 34.606346192674465 -7.7374240163305323 -1 0 0 I I #
point $-1 -57.468892356826785 34.606346192674465 -7.7374240163305323 #
point $-1 -57.468892356826785 -34.606346192674465 -7.7374240163305323 #
coedge $-1 $418 $330 $333 $430 forward $318 $-1 #
coedge $-1 $330 $418 $337 $432 reversed $318 $-1 #
straight-curve $-1 -71.290017395550393 0 -2.4562578519637857 0 1 0 I I #
edge $-1 $335 2.4562578519637857 $423 7.7374240163305323 $333 $474 forward 7 unknown #
point $-1 -71.290017395550393 34.606346192674465 -2.4562578519637857 #
edge $-1 $338 2.4562578519637857 $421 7.7374240163305323 $428 $475 forward 7 unknown #
point $-1 -71.290017395550393 -34.606346192674465 -2.4562578519637857 #
straight-curve $-1 -57.468892356826785 34.606346192674465 -2.5484204670735795 0 0 -1 I I #
edge $-1 $436 35.675635029726152 $439 45.683308510042728 $344 $476 forward 7 unknown #
vertex $-1 $435 $477 #
straight-curve $-1 18.405504018963249 -34.606346192674465 48.325557652001109 0 0 1 I I #
edge $-1 $439 -18.39716455903929 $355 18.38048563919137 $354 $478 forward 7 unknown #
vertex $-1 $438 $479 #
straight-curve $-1 18.405504018963249 -34.606346192674465 1.2464514809031471 0 -0.66913059716165679 -0.74314483375859142 I I #
point $-1 18.405504018963249 -34.606346192674465 1.2464514809031471 #
point $-1 -18.372146179267411 -24.598672712357889 12.361099169093331 #
straight-curve $-1 0 -34.606346192674465 12.361099169093331 1 0 0 I I #
vertex $-1 $361 $480 #
point $-1 -9.0166161396212701 -26.98228151178931 4.4445115489039901 #
vertex $-1 $365 $481 #
point $-1 2.0166789198479194 -26.98228151178931 4.4445115489039901 #
vertex $-1 $369 $482 #
point $-1 13.049973979317116 -26.98228151178931 4.4445115489039901 #
coedge $-1 $451 $375 $457 $483 reversed $265 $-1 #
coedge $-1 $375 $450 $378 $455 reversed $265 $-1 #
edge $-1 $453 -39.882712096002294 $383 -22.931898503093905 $382 $484 forward 7 unknown #
vertex $-1 $377 $485 #
straight-curve $-1 71.290017395550393 0.70719294525848397 36.050403431419213 0 0.74314481823134659 -0.66913061440640931 I I #
edge $-1 $379 27.016830153638779 $459 34.606346192674465 $451 $486 forward 7 unknown #
point $-1 71.290017395550393 27.016830153638779 12.361099169093329 #
coedge $-1 $382 $381 $450 $483 forward $373 $-1 #
point $-1 54.339203802642004 34.606346192674472 5.5274680844635853 #
vertex $-1 $455 $487 #
straight-curve $-1 0 34.606346192674465 12.361099169093331 -1 0 0 I I #
vertex $-1 $389 $488 #
point $-1 58.229366521223682 30.097776697385996 8.151515685823318 #
vertex $-1 $393 $489 #
point $-1 63.314610599096198 30.097776697385996 8.151515685823318 #
vertex $-1 $397 $490 #
point $-1 68.399854676968715 30.097776697385996 8.151515685823318 #
straight-curve $-1 -71.290017395550393 34.606346192674465 0 0 0 -1 I I #
point $-1 -71.290017395550393 -34.606346192674465 -12.361099169093331 #
straight-curve $-1 -71.290017395550393 0 -12.361099169093331 0 1 0 I I #
point $-1 -71.290017395550393 34.606346192674465 -12.361099169093331 #
straight-curve $-1 -71.290017395550393 0 -7.7374240163305323 0 -1 0 I I #
point $-1 -71.290017395550393 -34.606346192674465 -7.7374240163305323 #
point $-1 -71.290017395550393 34.606346192674465 -7.7374240163305323 #
straight-curve $-1 -71.290017395550393 34.606346192674465 0 0 0 -1 I I #
straight-curve $-1 -71.290017395550393 -34.606346192674465 0 0 0 -1 I I #
straight-curve $-1 18.405504018963249 -70.281981222400617 12.361099169093329 0 1 0 I I #
point $-1 18.405504018963249 -34.606346192674465 12.361099169093331 #
straight-curve $-1 0.0083394599239596801 -24.598672712357889 12.361099169093331 -1 0 0 I I #
point $-1 18.405504018963249 -24.598672712357889 12.361099169093331 #
point $-1 -11.01661613962127 -25.495991844272126 3.1062503545806761 #
point $-1 0.01667891984791936 -25.495991844272126 3.1062503545806761 #
point $-1 11.049973979317116 -25.495991844272126 3.1062503545806761 #
edge $-1 $459 -12.361099169093331 $453 -5.5274680844635853 $450 $491 forward 7 unknown #
straight-curve $-1 31.407305299548099 34.606346192674465 5.5274680844635959 -1 0 0 I I #
point $-1 71.290017395550393 34.606346192674472 5.5274680844635853 #
straight-curve $-1 71.290017395550393 0 12.361099169093331 0 1 0 I I #
point $-1 71.290017395550393 34.606346192674465 12.361099169093331 #
point $-1 57.729366521223682 29.763211390182789 7.7799432767076455 #
point $-1 62.814610599096198 29.763211390182789 7.7799432767076455 #
point $-1 67.899854676968715 29.763211390182789 7.7799432767076455 #
straight-curve $-1 71.290017395550393 34.606346192674465 0 0 0 -1 I I #
End-of-ACIS-data 