500 0 7 0           
7 Unknown 11 ACIS 5.0 NT 24 Fri Mar 26 20:13:16 1999 
-1 9.9999999999999995e-007 1e-010 
body $-1 $7 $-1 $8 #
body $-1 $9 $-1 $10 #
body $-1 $11 $-1 $12 #
body $-1 $13 $-1 $14 #
body $-1 $15 $-1 $16 #
body $-1 $17 $-1 $18 #
body $-1 $19 $-1 $20 #
lump $-1 $-1 $21 $0 #
transform $-1 1 0 0 0 1 0 0 0 1 66.778160954618983 39.260675665344792 8.4003012488835047 1 rotate no_reflect no_shear #
lump $-1 $-1 $22 $1 #
transform $-1 1 0 0 0 1 0 0 0 1 66.778160954618983 39.260675665344792 8.4003012488835047 1 rotate no_reflect no_shear #
lump $-1 $-1 $23 $2 #
transform $-1 1 0 0 0 1 0 0 0 1 66.778160954618983 39.260675665344792 8.4003012488835047 1 rotate no_reflect no_shear #
lump $-1 $-1 $24 $3 #
transform $-1 1 0 0 0 1 0 0 0 1 66.778160954618983 39.260675665344792 8.4003012488835047 1 rotate no_reflect no_shear #
lump $-1 $-1 $25 $4 #
transform $-1 1 0 0 0 1 0 0 0 1 66.778160954618983 39.260675665344792 8.4003012488835047 1 rotate no_reflect no_shear #
lump $-1 $-1 $26 $5 #
transform $-1 1 0 0 0 1 0 0 0 1 66.778160954618983 39.260675665344792 8.4003012488835047 1 rotate no_reflect no_shear #
lump $-1 $-1 $27 $6 #
transform $-1 1 0 0 0 1 0 0 0 1 66.778160954618983 39.260675665344792 8.4003012488835047 1 rotate no_reflect no_shear #
shell $-1 $-1 $-1 $28 $-1 $7 #
shell $-1 $-1 $-1 $29 $-1 $9 #
shell $-1 $-1 $-1 $30 $-1 $11 #
shell $-1 $-1 $-1 $31 $-1 $13 #
shell $-1 $-1 $-1 $32 $-1 $15 #
shell $-1 $-1 $-1 $33 $-1 $17 #
shell $-1 $-1 $-1 $34 $-1 $19 #
face $-1 $35 $36 $21 $-1 $37 forward single #
face $-1 $38 $39 $22 $-1 $40 forward single #
face $-1 $41 $42 $23 $-1 $43 reversed single #
face $-1 $44 $45 $24 $-1 $46 forward single #
face $-1 $47 $48 $25 $-1 $49 reversed single #
face $-1 $50 $51 $26 $-1 $52 forward single #
face $-1 $53 $54 $27 $-1 $55 forward single #
face $-1 $56 $57 $21 $-1 $58 reversed single #
loop $-1 $-1 $59 $28 #
plane-surface $-1 0 0 8.4003012488835047 0 0 1 1 0 0 forward_v I I I I #
face $-1 $60 $61 $22 $-1 $62 reversed single #
loop $-1 $-1 $63 $29 #
plane-surface $-1 0 -35.655262882764433 -5.4003012488835047 0 0 1 1 0 0 forward_v I I I I #
face $-1 $64 $65 $23 $-1 $66 reversed single #
loop $-1 $-1 $67 $30 #
plane-surface $-1 -177.50137094797191 18.244225408194524 77.93839681884468 0 1 0 -0.82903758062907751 0 0.55919289150049634 forward_v I I I I #
face $-1 $68 $69 $24 $-1 $70 forward single #
loop $-1 $71 $72 $31 #
cone-surface $-1 -64.285958971442966 26.341442354802851 5.3170016319398448 0.82903758062907751 0 -0.55919289150049634 0.83878933725074445 0 1.2435563709436162 1 I I 0 1 1.5 forward I I I I #
face $-1 $73 $74 $25 $-1 $75 reversed single #
loop $-1 $-1 $76 $32 #
plane-surface $-1 86.521202892376408 9.6758083401291408 191.87238587986022 0 -1 0 -0.77714596973225614 0 -0.62932038083071107 forward_v I I I I #
face $-1 $77 $78 $26 $-1 $79 forward single #
loop $-1 $80 $81 $33 #
cone-surface $-1 63.817885030885975 -5.3264533672188961 5.2508644123702704 -0.77714596973225614 0 -0.62932038083071107 0.62932038083071107 0 -0.77714596973225614 1 I I 0 1 1 forward I I I I #
face $-1 $82 $83 $27 $-1 $84 forward single #
loop $-1 $85 $86 $34 #
cone-surface $-1 63.817885030885975 3.6749036571899296 5.2508644123702704 -0.77714596973225614 0 -0.62932038083071107 0.62932038083071107 0 -0.77714596973225614 1 I I 0 1 1 forward I I I I #
face $-1 $87 $88 $21 $-1 $89 reversed single #
loop $-1 $-1 $90 $35 #
plane-surface $-1 0 0 -8.4003012488835047 0 0 1 1 0 0 forward_v I I I I #
coedge $-1 $91 $92 $93 $94 forward $36 $-1 #
face $-1 $95 $96 $22 $-1 $97 reversed single #
loop $-1 $-1 $98 $38 #
plane-surface $-1 0 -32.049850100184074 -6.9003012488835047 0 -1 0 0 0 -1 forward_v I I I I #
coedge $-1 $99 $100 $101 $102 reversed $39 $-1 #
face $-1 $103 $104 $23 $-1 $105 reversed single #
loop $-1 $-1 $106 $41 #
plane-surface $-1 -66.778160954619011 26.341442354802851 3.254650992246809 -0.82903758062907751 0 0.55919289150049634 0.55919289150049634 0 0.82903758062907751 forward_v I I I I #
coedge $-1 $107 $108 $109 $110 reversed $42 $-1 #
face $-1 $-1 $111 $24 $-1 $112 forward single #
loop $-1 $113 $114 $44 #
cone-surface $-1 -62.907371210142664 26.341442354802851 4.3871324746891567 0.82903758062907751 0 -0.55919289150049634 0.41939466862537222 0 0.62177818547180808 1 I I -0.70710678118654757 0.70710678118654757 0.75 forward I I I I #
loop $-1 $-1 $115 $31 #
coedge $-1 $72 $72 $116 $117 reversed $45 $-1 #
face $-1 $118 $119 $25 $-1 $120 reversed single #
loop $-1 $-1 $121 $47 #
plane-surface $-1 -17.271554411651692 -0.82577485501448677 107.82267051358954 0.77714596973225614 0 0.62932038083071107 0.62932038083071107 0 -0.77714596973225614 forward_v I I I I #
coedge $-1 $122 $123 $124 $125 reversed $48 $-1 #
face $-1 $-1 $126 $26 $-1 $127 forward single #
loop $-1 $128 $129 $50 #
cone-surface $-1 62.23857130126467 -5.3264533672188961 3.9719614051027072 -0.77714596973225614 0 -0.62932038083071107 0.31466019041535553 0 -0.38857298486612807 1 I I -0.70710678118654746 0.70710678118654746 0.5 forward I I I I #
loop $-1 $-1 $130 $33 #
coedge $-1 $81 $81 $131 $132 reversed $51 $-1 #
face $-1 $-1 $133 $27 $-1 $134 forward single #
loop $-1 $135 $136 $53 #
cone-surface $-1 62.23857130126467 3.6749036571899296 3.9719614051027072 -0.77714596973225614 0 -0.62932038083071107 0.31466019041535553 0 -0.38857298486612807 1 I I -0.70710678118654746 0.70710678118654746 0.5 forward I I I I #
loop $-1 $-1 $137 $34 #
coedge $-1 $86 $86 $138 $139 reversed $54 $-1 #
face $-1 $140 $141 $21 $-1 $142 reversed single #
loop $-1 $-1 $143 $56 #
plane-surface $-1 0 -39.260675665344792 0 0 1 0 0 0 1 forward_v I I I I #
coedge $-1 $144 $145 $146 $147 forward $57 $-1 #
coedge $-1 $148 $59 $149 $150 forward $36 $-1 #
coedge $-1 $59 $148 $151 $152 forward $36 $-1 #
coedge $-1 $153 $154 $59 $94 reversed $155 $-1 #
edge $-1 $156 -39.260675665344792 $157 39.260675665344792 $93 $158 forward 7 unknown #
face $-1 $159 $160 $22 $-1 $161 reversed single #
loop $-1 $-1 $162 $60 #
plane-surface $-1 0 0 -8.4003012488835047 0 0 1 1 0 0 forward_v I I I I #
coedge $-1 $163 $164 $165 $166 reversed $61 $-1 #
coedge $-1 $167 $63 $164 $168 forward $39 $-1 #
coedge $-1 $63 $167 $169 $170 reversed $39 $-1 #
coedge $-1 $171 $165 $63 $102 forward $160 $-1 #
edge $-1 $172 14.222218658801857 $173 21.433044223962575 $101 $174 forward 7 unknown #
face $-1 $175 $176 $23 $-1 $177 forward single #
loop $-1 $-1 $178 $64 #
plane-surface $-1 -177.50137094797191 34.438659301411178 77.93839681884468 0 -1 0 0.82903758062907751 0 -0.55919289150049634 forward_v I I I I #
coedge $-1 $179 $180 $181 $182 reversed $65 $-1 #
coedge $-1 $108 $67 $183 $184 reversed $42 $-1 #
coedge $-1 $67 $107 $179 $185 reversed $42 $-1 #
coedge $-1 $181 $186 $67 $110 forward $176 $-1 #
edge $-1 $187 21.972524519366971 $188 25.443309334062015 $109 $189 forward 7 unknown #
loop $-1 $-1 $116 $68 #
plane-surface $-1 -66.778160954619011 26.341442354802851 3.254650992246809 -0.82903758062907751 0 0.55919289150049634 0.55919289150049634 0 0.82903758062907751 forward_v I I I I #
loop $-1 $-1 $190 $44 #
coedge $-1 $114 $114 $115 $191 reversed $69 $-1 #
coedge $-1 $115 $115 $114 $191 forward $71 $-1 #
coedge $-1 $116 $116 $72 $117 forward $111 $-1 #
edge $-1 $192 0 $192 6.2831853071796004 $116 $193 forward 7 unknown #
face $-1 $194 $195 $25 $-1 $196 reversed single #
loop $-1 $-1 $197 $73 #
plane-surface $-1 86.521202892376408 -11.327358050158114 191.87238587986022 0 1 0 0.77714596973225614 0 0.62932038083071107 forward_v I I I I #
coedge $-1 $198 $199 $200 $201 reversed $74 $-1 #
coedge $-1 $123 $76 $202 $203 reversed $48 $-1 #
coedge $-1 $76 $122 $198 $204 reversed $48 $-1 #
coedge $-1 $200 $205 $76 $125 forward $206 $-1 #
edge $-1 $207 -23.517559508430779 $208 -19.978489150475099 $124 $209 forward 7 unknown #
loop $-1 $-1 $131 $77 #
plane-surface $-1 -17.271554411651692 -0.82577485501448677 107.82267051358954 0.77714596973225614 0 0.62932038083071107 0.62932038083071107 0 -0.77714596973225614 forward_v I I I I #
loop $-1 $-1 $210 $50 #
coedge $-1 $129 $129 $130 $211 reversed $78 $-1 #
coedge $-1 $130 $130 $129 $211 forward $80 $-1 #
coedge $-1 $131 $131 $81 $132 forward $126 $-1 #
edge $-1 $212 0 $212 6.2831853071796004 $131 $213 forward 7 unknown #
loop $-1 $-1 $138 $82 #
plane-surface $-1 -17.271554411651692 -0.82577485501448677 107.82267051358954 0.77714596973225614 0 0.62932038083071107 0.62932038083071107 0 -0.77714596973225614 forward_v I I I I #
loop $-1 $-1 $214 $53 #
coedge $-1 $136 $136 $137 $215 reversed $83 $-1 #
coedge $-1 $137 $137 $136 $215 forward $85 $-1 #
coedge $-1 $138 $138 $86 $139 forward $133 $-1 #
edge $-1 $216 0 $216 6.2831853071796004 $138 $217 forward 7 unknown #
face $-1 $218 $219 $21 $-1 $220 reversed single #
loop $-1 $-1 $221 $87 #
plane-surface $-1 -66.778160954618983 0 0 1 0 0 0 0 -1 forward_v I I I I #
coedge $-1 $222 $151 $223 $224 forward $88 $-1 #
coedge $-1 $225 $90 $222 $226 forward $57 $-1 #
coedge $-1 $90 $225 $227 $228 forward $57 $-1 #
coedge $-1 $154 $153 $90 $147 reversed $155 $-1 #
edge $-1 $229 -39.260675665344792 $230 39.260675665344792 $146 $231 forward 7 unknown #
coedge $-1 $92 $91 $232 $233 forward $36 $-1 #
coedge $-1 $234 $235 $91 $150 reversed $219 $-1 #
edge $-1 $157 -66.778160954618983 $236 66.778160954618983 $149 $237 forward 7 unknown #
coedge $-1 $143 $238 $92 $152 reversed $88 $-1 #
edge $-1 $239 -66.778160954618983 $156 66.778160954618983 $151 $240 forward 7 unknown #
coedge $-1 $146 $93 $238 $241 forward $155 $-1 #
coedge $-1 $93 $146 $234 $242 reversed $155 $-1 #
loop $-1 $-1 $153 $218 #
vertex $-1 $94 $243 #
vertex $-1 $94 $244 #
straight-curve $-1 66.778160954618983 0 8.4003012488835047 0 1 0 I I #
face $-1 $245 $246 $22 $-1 $247 reversed single #
loop $-1 $-1 $165 $95 #
plane-surface $-1 66.778160954618983 0 0 -1 0 0 0 0 1 forward_v I I I I #
coedge $-1 $248 $249 $163 $250 forward $96 $-1 #
coedge $-1 $251 $98 $162 $250 reversed $61 $-1 #
coedge $-1 $98 $251 $99 $168 reversed $61 $-1 #
coedge $-1 $101 $252 $98 $166 forward $160 $-1 #
edge $-1 $253 -4.9501506244417524 $172 -1.9501506244417524 $165 $254 forward 7 unknown #
coedge $-1 $100 $99 $255 $256 reversed $39 $-1 #
edge $-1 $172 -66.778160954618983 $257 66.778160954618983 $164 $258 forward 7 unknown #
coedge $-1 $259 $260 $100 $170 forward $246 $-1 #
edge $-1 $173 -66.778160954618983 $261 66.778160954618983 $169 $262 forward 7 unknown #
coedge $-1 $252 $101 $260 $263 forward $160 $-1 #
vertex $-1 $102 $264 #
vertex $-1 $263 $265 #
straight-curve $-1 66.778160954618983 -17.827631441382216 -5.4003012488835047 0 -1 0 I I #
face $-1 $-1 $266 $23 $-1 $267 reversed single #
loop $-1 $-1 $109 $103 #
plane-surface $-1 0 0 8.4003012488835047 0 0 1 1 0 0 forward_v I I I I #
coedge $-1 $268 $269 $270 $271 reversed $104 $-1 #
coedge $-1 $272 $106 $108 $185 forward $65 $-1 #
coedge $-1 $106 $272 $268 $273 forward $65 $-1 #
coedge $-1 $270 $109 $106 $182 forward $176 $-1 #
edge $-1 $188 5.0735042307930982 $274 21.267938124009753 $181 $275 forward 7 unknown #
coedge $-1 $276 $277 $107 $184 forward $266 $-1 #
edge $-1 $278 -35.714547417175488 $187 -30.568897160538835 $183 $279 forward 7 unknown #
edge $-1 $188 -6.2067756358308301 $278 -5.0869049068944123e-014 $108 $280 forward 7 unknown #
coedge $-1 $109 $270 $276 $281 forward $176 $-1 #
vertex $-1 $184 $282 #
vertex $-1 $110 $283 #
straight-curve $-1 -88.750685473985953 18.244225408194524 8.4003012488835083 1 0 0 I I #
coedge $-1 $190 $190 $-1 $284 reversed $113 $-1 #
edge $-1 $285 0 $285 6.2831853071796004 $114 $286 forward 7 unknown #
vertex $-1 $117 $287 #
ellipse-curve $-1 -65.042768547271464 26.341442354802851 5.8274761205651675 -0.82903758062907751 0 0.55919289150049634 0.83878933725074445 0 1.2435563709436162 1 I I #
face $-1 $-1 $206 $25 $-1 $288 forward single #
loop $-1 $-1 $289 $118 #
plane-surface $-1 66.778160954618983 0 0 -1 0 0 0 0 1 forward_v I I I I #
coedge $-1 $290 $291 $292 $293 reversed $119 $-1 #
coedge $-1 $294 $121 $123 $204 forward $74 $-1 #
coedge $-1 $121 $294 $290 $295 forward $74 $-1 #
coedge $-1 $292 $124 $121 $201 forward $206 $-1 #
edge $-1 $208 -10.088695767636384 $296 10.914470622650871 $200 $297 forward 7 unknown #
coedge $-1 $298 $299 $122 $203 forward $195 $-1 #
edge $-1 $300 -91.906279730368666 $207 -87.535891691046601 $202 $301 forward 7 unknown #
edge $-1 $208 127.93268335285741 $300 133.55632190923797 $123 $302 forward 7 unknown #
coedge $-1 $124 $292 $298 $303 forward $206 $-1 #
loop $-1 $-1 $292 $194 #
vertex $-1 $203 $304 #
vertex $-1 $125 $305 #
straight-curve $-1 43.260601446188204 9.6758083401291408 8.4003012488835083 -1 0 0 I I #
coedge $-1 $210 $210 $-1 $306 reversed $128 $-1 #
edge $-1 $307 0 $307 6.2831853071796004 $129 $308 forward 7 unknown #
vertex $-1 $132 $309 #
ellipse-curve $-1 65.008625775641136 -5.3264533672188961 6.2151072292224674 0.77714596973225614 0 0.62932038083071107 0.62932038083071107 0 -0.77714596973225614 1 I I #
coedge $-1 $214 $214 $-1 $310 reversed $135 $-1 #
edge $-1 $311 0 $311 6.2831853071796004 $136 $312 forward 7 unknown #
vertex $-1 $139 $313 #
ellipse-curve $-1 65.008625775641136 3.6749036571899296 6.2151072292224674 0.77714596973225614 0 0.62932038083071107 0.62932038083071107 0 -0.77714596973225614 1 I I #
face $-1 $-1 $155 $21 $-1 $314 reversed single #
loop $-1 $-1 $234 $140 #
plane-surface $-1 0 39.260675665344792 0 0 -1 0 0 0 -1 forward_v I I I I #
coedge $-1 $315 $232 $235 $316 forward $141 $-1 #
coedge $-1 $238 $143 $144 $226 reversed $88 $-1 #
coedge $-1 $232 $315 $143 $224 reversed $141 $-1 #
edge $-1 $239 -8.4003012488835047 $317 8.4003012488835047 $223 $318 forward 7 unknown #
coedge $-1 $145 $144 $315 $319 forward $57 $-1 #
edge $-1 $230 -66.778160954618983 $317 66.778160954618983 $222 $320 forward 7 unknown #
coedge $-1 $235 $234 $145 $228 reversed $219 $-1 #
edge $-1 $321 -66.778160954618983 $229 66.778160954618983 $227 $322 forward 7 unknown #
vertex $-1 $147 $323 #
vertex $-1 $241 $324 #
straight-curve $-1 66.778160954618983 0 -8.4003012488835047 0 -1 0 I I #
coedge $-1 $221 $223 $148 $233 reversed $141 $-1 #
edge $-1 $236 -39.260675665344792 $239 39.260675665344792 $232 $325 forward 7 unknown #
coedge $-1 $227 $149 $154 $242 forward $219 $-1 #
coedge $-1 $149 $227 $221 $316 reversed $219 $-1 #
vertex $-1 $150 $326 #
straight-curve $-1 0 39.260675665344792 8.4003012488835047 -1 0 0 I I #
coedge $-1 $151 $222 $153 $241 reversed $88 $-1 #
vertex $-1 $233 $327 #
straight-curve $-1 0 -39.260675665344792 8.4003012488835047 1 0 0 I I #
edge $-1 $156 -8.4003012488835047 $230 8.4003012488835047 $153 $328 forward 7 unknown #
edge $-1 $157 -8.4003012488835047 $229 8.4003012488835047 $154 $329 forward 7 unknown #
point $-1 66.778160954618983 -39.260675665344792 8.4003012488835047 #
point $-1 66.778160954618983 39.260675665344792 8.4003012488835047 #
face $-1 $-1 $330 $22 $-1 $331 reversed single #
loop $-1 $-1 $169 $159 #
plane-surface $-1 0 -39.260675665344792 0 0 1 0 0 0 1 forward_v I I I I #
coedge $-1 $332 $162 $252 $333 forward $96 $-1 #
coedge $-1 $162 $332 $334 $335 forward $96 $-1 #
edge $-1 $336 -66.778160954618983 $253 66.778160954618983 $162 $337 forward 7 unknown #
coedge $-1 $164 $163 $338 $339 reversed $61 $-1 #
coedge $-1 $165 $171 $248 $333 reversed $160 $-1 #
vertex $-1 $333 $340 #
straight-curve $-1 66.778160954618983 -32.049850100184074 -3.4501506244417524 0 0 1 I I #
coedge $-1 $338 $341 $167 $256 forward $330 $-1 #
edge $-1 $261 -21.433044223962575 $257 -14.222218658801857 $255 $342 forward 7 unknown #
vertex $-1 $256 $343 #
straight-curve $-1 0 -32.049850100184074 -5.4003012488835047 -1 0 0 I I #
coedge $-1 $344 $169 $341 $345 forward $246 $-1 #
coedge $-1 $169 $344 $171 $263 reversed $246 $-1 #
vertex $-1 $345 $346 #
straight-curve $-1 0 -39.260675665344792 -5.4003012488835047 -1 0 0 I I #
edge $-1 $173 5.4003012488835047 $347 8.4003012488835047 $171 $348 forward 7 unknown #
point $-1 66.778160954618983 -32.049850100184074 -5.4003012488835047 #
point $-1 66.778160954618983 -39.260675665344792 -5.4003012488835047 #
loop $-1 $-1 $183 $175 #
plane-surface $-1 -66.778160954618983 0 0 1 0 0 0 0 -1 forward_v I I I I #
coedge $-1 $269 $178 $180 $273 reversed $104 $-1 #
coedge $-1 $178 $268 $349 $350 reversed $104 $-1 #
coedge $-1 $186 $181 $178 $271 forward $176 $-1 #
edge $-1 $274 -25.443309334062015 $351 -21.972524519366971 $270 $352 forward 7 unknown #
coedge $-1 $180 $179 $277 $353 reversed $65 $-1 #
edge $-1 $354 5.0869049068944123e-014 $274 6.2067756358308301 $268 $355 forward 7 unknown #
vertex $-1 $182 $356 #
straight-curve $-1 -63.307376139923932 13.170721177401425 8.4003012488835047 0 1 0 I I #
coedge $-1 $349 $183 $186 $281 reversed $266 $-1 #
coedge $-1 $183 $349 $272 $353 forward $266 $-1 #
vertex $-1 $184 $357 #
straight-curve $-1 -66.778160954618983 18.244225408194524 38.96919840942234 0 0 1 I I #
straight-curve $-1 -66.778160954619011 18.244225408194524 3.254650992246809 -0.55919289150049634 0 -0.82903758062907751 I I #
edge $-1 $351 -34.438659301411178 $187 -18.244225408194524 $276 $358 forward 7 unknown #
point $-1 -66.778160954618983 18.244225408194524 8.4003012488835047 #
point $-1 -63.307376139923939 18.244225408194524 8.4003012488835047 #
edge $-1 $359 1 $359 0 $190 $-1 forward 7 unknown #
vertex $-1 $191 $360 #
ellipse-curve $-1 -63.529149395614475 26.341442354802851 4.8065271433145291 -0.82903758062907751 0 0.55919289150049634 0.83878933725074445 0 1.2435563709436162 1 I I #
point $-1 -64.203979210020705 26.341442354802851 7.0710324915087774 #
plane-surface $-1 0 0 8.4003012488835047 0 0 1 1 0 0 forward_v I I I I #
coedge $-1 $299 $298 $291 $361 forward $195 $-1 #
coedge $-1 $291 $197 $199 $295 reversed $119 $-1 #
coedge $-1 $197 $290 $289 $361 reversed $119 $-1 #
coedge $-1 $205 $200 $197 $293 forward $206 $-1 #
edge $-1 $296 19.978489150475099 $362 23.517559508430779 $292 $363 forward 7 unknown #
coedge $-1 $199 $198 $299 $364 reversed $74 $-1 #
edge $-1 $365 -133.55632190923797 $296 -127.93268335285741 $290 $366 forward 7 unknown #
vertex $-1 $201 $367 #
straight-curve $-1 63.239090596663303 -0.41288742750724339 8.4003012488835083 0 -1 0 I I #
coedge $-1 $289 $202 $205 $303 reversed $195 $-1 #
coedge $-1 $202 $289 $294 $364 forward $195 $-1 #
vertex $-1 $203 $368 #
straight-curve $-1 66.778160954618983 9.6758083401291408 95.936192939930109 0 0 1 I I #
straight-curve $-1 -17.271554411651692 9.6758083401291408 107.82267051358954 0.62932038083071107 0 -0.77714596973225614 I I #
edge $-1 $362 -11.327358050158114 $207 9.6758083401291408 $298 $369 forward 7 unknown #
point $-1 66.778160954618983 9.6758083401291408 8.4003012488835047 #
point $-1 63.239090596663303 9.6758083401291408 8.4003012488835083 #
edge $-1 $370 1 $370 0 $210 $-1 forward 7 unknown #
vertex $-1 $211 $371 #
ellipse-curve $-1 62.6271442861308 -5.3264533672188961 4.2866215955180627 0.77714596973225614 0 0.62932038083071107 0.62932038083071107 0 -0.77714596973225614 1 I I #
point $-1 65.637946156471855 -5.3264533672188961 5.4379612594902209 #
edge $-1 $372 1 $372 0 $214 $-1 forward 7 unknown #
vertex $-1 $215 $373 #
ellipse-curve $-1 62.6271442861308 3.6749036571899296 4.2866215955180627 0.77714596973225614 0 0.62932038083071107 0.62932038083071107 0 -0.77714596973225614 1 I I #
point $-1 65.637946156471855 3.6749036571899296 5.4379612594902209 #
plane-surface $-1 66.778160954618983 0 0 -1 0 0 0 0 1 forward_v I I I I #
coedge $-1 $223 $221 $225 $319 reversed $141 $-1 #
edge $-1 $236 -8.4003012488835047 $321 8.4003012488835047 $235 $374 forward 7 unknown #
vertex $-1 $319 $375 #
straight-curve $-1 -66.778160954618983 -39.260675665344792 0 0 0 -1 I I #
edge $-1 $317 -39.260675665344792 $321 39.260675665344792 $315 $376 forward 7 unknown #
straight-curve $-1 0 -39.260675665344792 -8.4003012488835047 -1 0 0 I I #
vertex $-1 $228 $377 #
straight-curve $-1 0 39.260675665344792 -8.4003012488835047 1 0 0 I I #
point $-1 66.778160954618983 39.260675665344792 -8.4003012488835047 #
point $-1 66.778160954618983 -39.260675665344792 -8.4003012488835047 #
straight-curve $-1 -66.778160954618983 0 8.4003012488835047 0 -1 0 I I #
point $-1 -66.778160954618983 39.260675665344792 8.4003012488835047 #
point $-1 -66.778160954618983 -39.260675665344792 8.4003012488835047 #
straight-curve $-1 66.778160954618983 -39.260675665344792 0 0 0 -1 I I #
straight-curve $-1 66.778160954618983 39.260675665344792 0 0 0 -1 I I #
loop $-1 $-1 $338 $245 #
plane-surface $-1 -66.778160954618983 0 0 1 0 0 0 0 -1 forward_v I I I I #
coedge $-1 $249 $248 $344 $378 forward $96 $-1 #
edge $-1 $253 32.049850100184074 $347 39.260675665344792 $252 $379 forward 7 unknown #
coedge $-1 $341 $338 $249 $335 reversed $330 $-1 #
edge $-1 $380 -39.260675665344792 $336 -32.049850100184074 $334 $381 forward 7 unknown #
vertex $-1 $339 $382 #
straight-curve $-1 0 -32.049850100184074 -8.4003012488835047 1 0 0 I I #
coedge $-1 $334 $255 $251 $339 forward $330 $-1 #
edge $-1 $257 1.9501506244417524 $336 4.9501506244417524 $338 $383 forward 7 unknown #
point $-1 66.778160954618983 -32.049850100184074 -8.4003012488835047 #
coedge $-1 $255 $334 $259 $345 reversed $330 $-1 #
straight-curve $-1 -66.778160954618983 -17.827631441382216 -5.4003012488835047 0 1 0 I I #
point $-1 -66.778160954618983 -32.049850100184074 -5.4003012488835047 #
coedge $-1 $260 $259 $332 $378 reversed $246 $-1 #
edge $-1 $261 5.4003012488835047 $380 8.4003012488835047 $341 $384 forward 7 unknown #
point $-1 -66.778160954618983 -39.260675665344792 -5.4003012488835047 #
vertex $-1 $263 $385 #
straight-curve $-1 66.778160954618983 -39.260675665344792 0 0 0 -1 I I #
coedge $-1 $277 $276 $269 $350 forward $266 $-1 #
edge $-1 $351 30.568897160538835 $354 35.714547417175488 $349 $386 forward 7 unknown #
vertex $-1 $281 $387 #
straight-curve $-1 -88.750685473985953 34.438659301411178 8.4003012488835083 -1 0 0 I I #
edge $-1 $354 -21.267938124009753 $278 -5.0735042307930982 $277 $388 forward 7 unknown #
vertex $-1 $353 $389 #
straight-curve $-1 -66.778160954619011 34.438659301411178 3.254650992246809 0.55919289150049634 0 0.82903758062907751 I I #
point $-1 -63.307376139923939 34.438659301411178 8.4003012488835047 #
point $-1 -66.778160954618983 18.244225408194524 3.2546509922468512 #
straight-curve $-1 -66.778160954618983 0 8.4003012488835047 0 -1 0 I I #
vertex $-1 $284 $390 #
point $-1 -62.69036005836373 26.341442354802851 6.0500835142581453 #
edge $-1 $362 87.535891691046601 $365 91.906279730368666 $289 $391 forward 7 unknown #
vertex $-1 $303 $392 #
straight-curve $-1 43.260601446188204 -11.327358050158114 8.4003012488835083 1 0 0 I I #
edge $-1 $365 -10.914470622650871 $300 10.088695767636384 $299 $393 forward 7 unknown #
vertex $-1 $364 $394 #
straight-curve $-1 -17.271554411651692 -11.327358050158114 107.82267051358954 -0.62932038083071107 0 0.77714596973225614 I I #
point $-1 63.239090596663303 -11.327358050158114 8.4003012488835083 #
point $-1 66.778160954618983 9.6758083401291408 4.0299132095614425 #
straight-curve $-1 66.778160954618983 0 8.4003012488835047 0 1 0 I I #
vertex $-1 $306 $395 #
point $-1 63.256464666961513 -5.3264533672188961 3.5094756257858064 #
vertex $-1 $310 $396 #
point $-1 63.256464666961513 3.6749036571899296 3.5094756257858064 #
straight-curve $-1 -66.778160954618983 39.260675665344792 0 0 0 -1 I I #
point $-1 -66.778160954618983 -39.260675665344792 -8.4003012488835047 #
straight-curve $-1 -66.778160954618983 0 -8.4003012488835047 0 1 0 I I #
point $-1 -66.778160954618983 39.260675665344792 -8.4003012488835047 #
edge $-1 $347 -66.778160954618983 $380 66.778160954618983 $344 $397 forward 7 unknown #
straight-curve $-1 66.778160954618983 0 -8.4003012488835047 0 -1 0 I I #
vertex $-1 $335 $398 #
straight-curve $-1 -66.778160954618983 0 -8.4003012488835047 0 1 0 I I #
point $-1 -66.778160954618983 -32.049850100184074 -8.4003012488835047 #
straight-curve $-1 -66.778160954618983 -32.049850100184074 -3.4501506244417524 0 0 -1 I I #
straight-curve $-1 -66.778160954618983 -39.260675665344792 0 0 0 -1 I I #
point $-1 66.778160954618983 -39.260675665344792 -8.4003012488835047 #
straight-curve $-1 -66.778160954618983 34.438659301411178 38.96919840942234 0 0 -1 I I #
point $-1 -66.778160954618983 34.438659301411178 8.4003012488835047 #
straight-curve $-1 -66.778160954618983 13.170721177401425 3.2546509922468463 0 -1 0 I I #
point $-1 -66.778160954618983 34.438659301411178 3.2546509922468512 #
point $-1 -62.285593024670852 26.341442354802851 3.9677378060637842 #
straight-curve $-1 66.778160954618983 -11.327358050158114 95.936192939930109 0 0 -1 I I #
point $-1 66.778160954618983 -11.327358050158114 8.4003012488835047 #
straight-curve $-1 66.778160954618983 -0.41288742750724339 4.0299132095614354 0 1 0 I I #
point $-1 66.778160954618983 -11.327358050158114 4.0299132095614425 #
point $-1 61.849998316398541 -5.3264533672188961 3.6573012146873518 #
point $-1 61.849998316398541 3.6749036571899296 3.6573012146873518 #
straight-curve $-1 0 -39.260675665344792 -8.4003012488835047 -1 0 0 I I #
point $-1 -66.778160954618983 -39.260675665344792 -8.4003012488835047 #
End-of-ACIS-data 