500 0 9 0           
7 Unknown 11 ACIS 5.0 NT 24 Thu Mar 25 22:50:29 1999 
-1 9.9999999999999995e-007 1e-010 
body $-1 $9 $-1 $10 #
body $-1 $11 $-1 $12 #
body $-1 $13 $-1 $14 #
body $-1 $15 $-1 $16 #
body $-1 $17 $-1 $18 #
body $-1 $19 $-1 $20 #
body $-1 $21 $-1 $22 #
body $-1 $23 $-1 $24 #
body $-1 $25 $-1 $26 #
lump $-1 $-1 $27 $0 #
transform $-1 1 0 0 0 1 0 0 0 1 62.652058473464152 42.142481606017839 17.464043984246192 1 rotate no_reflect no_shear #
lump $-1 $-1 $28 $1 #
transform $-1 1 0 0 0 1 0 0 0 1 62.652058473464152 42.142481606017839 17.464043984246192 1 rotate no_reflect no_shear #
lump $-1 $-1 $29 $2 #
transform $-1 1 0 0 0 1 0 0 0 1 62.652058473464152 42.142481606017839 17.464043984246192 1 rotate no_reflect no_shear #
lump $-1 $-1 $30 $3 #
transform $-1 1 0 0 0 1 0 0 0 1 62.652058473464152 42.142481606017839 17.464043984246192 1 rotate no_reflect no_shear #
lump $-1 $-1 $31 $4 #
transform $-1 1 0 0 0 1 0 0 0 1 62.652058473464152 42.142481606017839 17.464043984246192 1 rotate no_reflect no_shear #
lump $-1 $-1 $32 $5 #
transform $-1 1 0 0 0 1 0 0 0 1 62.652058473464152 42.142481606017839 17.464043984246192 1 rotate no_reflect no_shear #
lump $-1 $-1 $33 $6 #
transform $-1 1 0 0 0 1 0 0 0 1 62.652058473464152 42.142481606017839 17.464043984246192 1 rotate no_reflect no_shear #
lump $-1 $-1 $34 $7 #
transform $-1 1 0 0 0 1 0 0 0 1 62.652058473464152 42.142481606017839 17.464043984246192 1 rotate no_reflect no_shear #
lump $-1 $-1 $35 $8 #
transform $-1 1 0 0 0 1 0 0 0 1 62.652058473464152 42.142481606017839 17.464043984246192 1 rotate no_reflect no_shear #
shell $-1 $-1 $-1 $36 $-1 $9 #
shell $-1 $-1 $-1 $37 $-1 $11 #
shell $-1 $-1 $-1 $38 $-1 $13 #
shell $-1 $-1 $-1 $39 $-1 $15 #
shell $-1 $-1 $-1 $40 $-1 $17 #
shell $-1 $-1 $-1 $41 $-1 $19 #
shell $-1 $-1 $-1 $42 $-1 $21 #
shell $-1 $-1 $-1 $43 $-1 $23 #
shell $-1 $-1 $-1 $44 $-1 $25 #
face $-1 $45 $46 $27 $-1 $47 forward single #
face $-1 $48 $49 $28 $-1 $50 forward single #
face $-1 $51 $52 $29 $-1 $53 forward single #
face $-1 $54 $55 $30 $-1 $56 reversed single #
face $-1 $57 $58 $31 $-1 $59 forward single #
face $-1 $60 $61 $32 $-1 $62 forward single #
face $-1 $63 $64 $33 $-1 $65 reversed single #
face $-1 $66 $67 $34 $-1 $68 forward single #
face $-1 $69 $70 $35 $-1 $71 forward single #
face $-1 $72 $73 $27 $-1 $74 reversed single #
loop $-1 $-1 $75 $36 #
plane-surface $-1 0 0 17.464043984246192 0 0 1 1 0 0 forward_v I I I I #
face $-1 $76 $77 $28 $-1 $78 reversed single #
loop $-1 $-1 $79 $37 #
plane-surface $-1 -56.296728337723067 0 -8.2918679818592551 0 0 1 1 0 0 forward_v I I I I #
face $-1 $80 $81 $29 $-1 $82 reversed single #
loop $-1 $-1 $83 $38 #
plane-surface $-1 52.597924088134448 0 -11.938462466186134 0 0 1 1 0 0 forward_v I I I I #
face $-1 $84 $85 $30 $-1 $86 reversed single #
loop $-1 $-1 $87 $39 #
plane-surface $-1 -49.941398201981983 -140.88347426570382 87.634846330571293 1 0 0 0 0.78801076186113728 -0.61566146476048833 forward_v I I I I #
face $-1 $88 $89 $31 $-1 $90 forward single #
loop $-1 $91 $92 $40 #
cone-surface $-1 -42.695047099993118 -37.192367251619679 12.238058616081043 0 0.78801076186113728 -0.61566146476048833 1.5 0 0 1 I I 0 1 1.5 forward I I I I #
face $-1 $93 $94 $32 $-1 $95 forward single #
loop $-1 $96 $97 $41 #
cone-surface $-1 -31.825520447009815 -37.192367251619679 12.238058616081043 0 0.78801076186113728 -0.61566146476048833 1.5 0 0 1 I I 0 1 1.5 forward I I I I #
face $-1 $98 $99 $33 $-1 $100 reversed single #
loop $-1 $-1 $101 $42 #
plane-surface $-1 42.543789702804752 60.738711278131092 153.60693762452703 -1 0 0 0 0.6560590369687036 0.75470957328743171 forward_v I I I I #
face $-1 $102 $103 $34 $-1 $104 forward single #
loop $-1 $105 $106 $43 #
cone-surface $-1 30.78783359732401 33.634944905988718 9.8956056554771568 0 -0.6560590369687036 -0.75470957328743171 1.5 0 0 1 I I 0 1 1.5 forward I I I I #
face $-1 $107 $108 $35 $-1 $109 forward single #
loop $-1 $110 $111 $44 #
cone-surface $-1 37.841407260612456 33.634944905988718 9.8956056554771568 0 -0.6560590369687036 -0.75470957328743171 1.5 0 0 1 I I 0 1 1.5 forward I I I I #
face $-1 $112 $113 $27 $-1 $114 reversed single #
loop $-1 $-1 $115 $45 #
plane-surface $-1 0 0 -17.464043984246192 0 0 1 1 0 0 forward_v I I I I #
coedge $-1 $116 $117 $118 $119 forward $46 $-1 #
face $-1 $120 $121 $28 $-1 $122 reversed single #
loop $-1 $-1 $123 $48 #
plane-surface $-1 -56.296728337723067 0 -16.458668298354645 0 0 1 1 0 0 forward_v I I I I #
coedge $-1 $124 $125 $126 $127 forward $49 $-1 #
face $-1 $128 $129 $29 $-1 $130 reversed single #
loop $-1 $-1 $131 $51 #
plane-surface $-1 42.543789702804744 0 -14.701253225216163 1 0 0 0 0 -1 forward_v I I I I #
coedge $-1 $132 $133 $134 $135 reversed $52 $-1 #
face $-1 $136 $137 $30 $-1 $138 reversed single #
loop $-1 $-1 $139 $54 #
plane-surface $-1 -37.26028377350147 -42.142481606017824 10.489930150505899 0 -0.78801076186113728 0.61566146476048833 1 0 0 forward_v I I I I #
coedge $-1 $140 $141 $142 $143 reversed $55 $-1 #
face $-1 $-1 $144 $31 $-1 $145 forward single #
loop $-1 $146 $147 $57 #
cone-surface $-1 -42.695047099993118 -34.375632198496838 10.037384066215679 0 0.78801076186113728 -0.61566146476048833 0.75 0 0 1 I I -0.70710678118654757 0.70710678118654757 0.75 forward I I I I #
loop $-1 $-1 $148 $40 #
coedge $-1 $92 $92 $149 $150 reversed $58 $-1 #
face $-1 $-1 $151 $32 $-1 $152 forward single #
loop $-1 $153 $154 $60 #
cone-surface $-1 -31.825520447009815 -34.375632198496838 10.037384066215679 0 0.78801076186113728 -0.61566146476048833 0.75 0 0 1 I I -0.70710678118654757 0.70710678118654757 0.75 forward I I I I #
loop $-1 $-1 $155 $41 #
coedge $-1 $97 $97 $156 $157 reversed $61 $-1 #
face $-1 $158 $159 $33 $-1 $160 reversed single #
loop $-1 $-1 $161 $63 #
plane-surface $-1 34.31462042896824 -21.468187014284496 59.038720992352339 0 0.6560590369687036 0.75470957328743171 1 0 0 forward_v I I I I #
coedge $-1 $162 $163 $164 $165 reversed $64 $-1 #
face $-1 $-1 $166 $34 $-1 $167 forward single #
loop $-1 $168 $169 $66 #
cone-surface $-1 30.78783359732401 32.527601263662305 8.6217525406048345 0 -0.6560590369687036 -0.75470957328743171 0.75 0 0 1 I I -0.70710678118654757 0.70710678118654757 0.75 forward I I I I #
loop $-1 $-1 $170 $43 #
coedge $-1 $106 $106 $171 $172 reversed $67 $-1 #
face $-1 $-1 $173 $35 $-1 $174 forward single #
loop $-1 $175 $176 $69 #
cone-surface $-1 37.841407260612456 32.527601263662305 8.6217525406048345 0 -0.6560590369687036 -0.75470957328743171 0.75 0 0 1 I I -0.70710678118654757 0.70710678118654757 0.75 forward I I I I #
loop $-1 $-1 $177 $44 #
coedge $-1 $111 $111 $178 $179 reversed $70 $-1 #
face $-1 $180 $181 $27 $-1 $182 reversed single #
loop $-1 $-1 $183 $72 #
plane-surface $-1 0 -42.142481606017839 0 0 1 0 0 0 1 forward_v I I I I #
coedge $-1 $184 $185 $186 $187 forward $73 $-1 #
coedge $-1 $188 $75 $189 $190 forward $46 $-1 #
coedge $-1 $75 $188 $191 $192 forward $46 $-1 #
coedge $-1 $193 $194 $75 $119 reversed $195 $-1 #
edge $-1 $196 -42.142481606017839 $197 42.142481606017839 $118 $198 forward 7 unknown #
face $-1 $199 $200 $28 $-1 $201 reversed single #
loop $-1 $-1 $202 $76 #
plane-surface $-1 -49.941398201981983 0 -12.37526814010695 -1 0 0 0 0 1 forward_v I I I I #
coedge $-1 $203 $204 $205 $206 forward $77 $-1 #
coedge $-1 $207 $79 $208 $209 reversed $49 $-1 #
coedge $-1 $79 $207 $210 $211 reversed $49 $-1 #
coedge $-1 $202 $212 $79 $127 reversed $121 $-1 #
edge $-1 $213 -42.142481606017839 $214 42.142481606017839 $126 $215 forward 7 unknown #
face $-1 $216 $217 $29 $-1 $218 reversed single #
loop $-1 $-1 $219 $80 #
plane-surface $-1 0 -42.142481606017839 0 0 1 0 0 0 1 forward_v I I I I #
coedge $-1 $220 $221 $222 $223 reversed $81 $-1 #
coedge $-1 $224 $83 $225 $226 reversed $52 $-1 #
coedge $-1 $83 $224 $219 $227 reversed $52 $-1 #
coedge $-1 $228 $229 $83 $135 forward $230 $-1 #
edge $-1 $231 -42.142481606017839 $232 42.142481606017839 $134 $233 forward 7 unknown #
face $-1 $234 $235 $30 $-1 $236 forward single #
loop $-1 $-1 $237 $84 #
plane-surface $-1 -24.579169345020954 -140.88347426570382 87.634846330571293 -1 0 0 0 -0.78801076186113728 0.61566146476048833 forward_v I I I I #
coedge $-1 $238 $239 $240 $241 reversed $85 $-1 #
coedge $-1 $141 $87 $242 $243 reversed $55 $-1 #
coedge $-1 $87 $140 $238 $244 reversed $55 $-1 #
coedge $-1 $240 $245 $87 $143 forward $246 $-1 #
edge $-1 $247 26.353379181039454 $248 33.327493014779762 $142 $249 forward 7 unknown #
loop $-1 $-1 $149 $88 #
plane-surface $-1 -37.26028377350147 -42.142481606017824 10.489930150505899 0 -0.78801076186113728 0.61566146476048833 1 0 0 forward_v I I I I #
loop $-1 $-1 $250 $57 #
coedge $-1 $147 $147 $148 $251 reversed $89 $-1 #
coedge $-1 $148 $148 $147 $251 forward $91 $-1 #
coedge $-1 $149 $149 $92 $150 forward $144 $-1 #
edge $-1 $252 9.3319220423535563e-016 $252 6.2831853071796013 $149 $253 forward 7 unknown #
loop $-1 $-1 $156 $93 #
plane-surface $-1 -37.26028377350147 -42.142481606017824 10.489930150505899 0 -0.78801076186113728 0.61566146476048833 1 0 0 forward_v I I I I #
loop $-1 $-1 $254 $60 #
coedge $-1 $154 $154 $155 $255 reversed $94 $-1 #
coedge $-1 $155 $155 $154 $255 forward $96 $-1 #
coedge $-1 $156 $156 $97 $157 forward $151 $-1 #
edge $-1 $256 9.3319220423535563e-016 $256 6.2831853071796013 $156 $257 forward 7 unknown #
face $-1 $258 $259 $33 $-1 $260 reversed single #
loop $-1 $-1 $261 $98 #
plane-surface $-1 26.085451155131729 60.738711278131092 153.60693762452703 1 0 0 0 -0.6560590369687036 -0.75470957328743171 forward_v I I I I #
coedge $-1 $262 $263 $264 $265 reversed $99 $-1 #
coedge $-1 $163 $101 $266 $267 reversed $64 $-1 #
coedge $-1 $101 $162 $262 $268 reversed $64 $-1 #
coedge $-1 $264 $269 $101 $165 forward $259 $-1 #
edge $-1 $270 59.339424828017329 $271 73.060659615741926 $164 $272 forward 7 unknown #
loop $-1 $-1 $171 $102 #
plane-surface $-1 34.31462042896824 -21.468187014284496 59.038720992352339 0 0.6560590369687036 0.75470957328743171 1 0 0 forward_v I I I I #
loop $-1 $-1 $273 $66 #
coedge $-1 $169 $169 $170 $274 reversed $103 $-1 #
coedge $-1 $170 $170 $169 $274 forward $105 $-1 #
coedge $-1 $171 $171 $106 $172 forward $166 $-1 #
edge $-1 $275 2.0211627562269992e-015 $275 6.2831853071796022 $171 $276 forward 7 unknown #
loop $-1 $-1 $178 $107 #
plane-surface $-1 34.31462042896824 -21.468187014284496 59.038720992352339 0 0.6560590369687036 0.75470957328743171 1 0 0 forward_v I I I I #
loop $-1 $-1 $277 $69 #
coedge $-1 $176 $176 $177 $278 reversed $108 $-1 #
coedge $-1 $177 $177 $176 $278 forward $110 $-1 #
coedge $-1 $178 $178 $111 $179 forward $173 $-1 #
edge $-1 $279 2.0211627562269992e-015 $279 6.2831853071796022 $178 $280 forward 7 unknown #
face $-1 $281 $282 $27 $-1 $283 reversed single #
loop $-1 $-1 $284 $112 #
plane-surface $-1 -62.652058473464152 0 0 1 0 0 0 0 -1 forward_v I I I I #
coedge $-1 $285 $191 $286 $287 forward $113 $-1 #
coedge $-1 $288 $115 $285 $289 forward $73 $-1 #
coedge $-1 $115 $288 $290 $291 forward $73 $-1 #
coedge $-1 $194 $193 $115 $187 reversed $195 $-1 #
edge $-1 $292 -42.142481606017839 $293 42.142481606017839 $186 $294 forward 7 unknown #
coedge $-1 $117 $116 $295 $296 forward $46 $-1 #
coedge $-1 $297 $298 $116 $190 reversed $282 $-1 #
edge $-1 $197 -62.652058473464152 $299 62.652058473464152 $189 $300 forward 7 unknown #
coedge $-1 $183 $301 $117 $192 reversed $113 $-1 #
edge $-1 $302 -62.652058473464152 $196 62.652058473464152 $191 $303 forward 7 unknown #
coedge $-1 $186 $118 $301 $304 forward $195 $-1 #
coedge $-1 $118 $186 $297 $305 reversed $195 $-1 #
loop $-1 $-1 $193 $281 #
vertex $-1 $119 $306 #
vertex $-1 $119 $307 #
straight-curve $-1 62.652058473464152 0 17.464043984246192 0 1 0 I I #
face $-1 $308 $309 $28 $-1 $310 reversed single #
loop $-1 $-1 $311 $120 #
plane-surface $-1 0 -42.142481606017839 0 0 1 0 0 0 1 forward_v I I I I #
coedge $-1 $205 $126 $312 $313 reversed $121 $-1 #
coedge $-1 $314 $123 $311 $315 reversed $77 $-1 #
coedge $-1 $123 $314 $316 $317 reversed $77 $-1 #
coedge $-1 $212 $202 $123 $206 reversed $121 $-1 #
edge $-1 $318 -42.142481606017839 $319 42.142481606017839 $205 $320 forward 7 unknown #
coedge $-1 $125 $124 $321 $322 reversed $49 $-1 #
coedge $-1 $323 $324 $124 $209 forward $325 $-1 #
edge $-1 $326 -34.503694304602618 $214 -21.793034033120449 $208 $327 forward 7 unknown #
coedge $-1 $328 $312 $125 $211 forward $200 $-1 #
edge $-1 $213 21.793034033120449 $329 34.503694304602618 $210 $330 forward 7 unknown #
coedge $-1 $126 $205 $323 $331 reversed $121 $-1 #
vertex $-1 $211 $332 #
vertex $-1 $209 $333 #
straight-curve $-1 -49.941398201981983 0 -8.2918679818592551 0 1 0 I I #
face $-1 $334 $335 $29 $-1 $336 reversed single #
loop $-1 $-1 $337 $128 #
plane-surface $-1 0 0 -17.464043984246192 0 0 1 1 0 0 forward_v I I I I #
coedge $-1 $338 $339 $133 $227 forward $129 $-1 #
coedge $-1 $340 $131 $337 $341 reversed $81 $-1 #
coedge $-1 $131 $340 $224 $342 reversed $81 $-1 #
coedge $-1 $225 $343 $131 $223 forward $335 $-1 #
edge $-1 $344 -10.113417371638111 $345 -4.5878358535780528 $222 $346 forward 7 unknown #
coedge $-1 $133 $132 $221 $342 forward $52 $-1 #
coedge $-1 $347 $222 $132 $226 forward $335 $-1 #
edge $-1 $345 16.24482765873752 $231 36.353096429396928 $225 $348 forward 7 unknown #
edge $-1 $232 -36.353096429396928 $349 -16.24482765873752 $219 $350 forward 7 unknown #
coedge $-1 $351 $134 $339 $352 forward $230 $-1 #
coedge $-1 $134 $351 $347 $353 reversed $230 $-1 #
loop $-1 $-1 $134 $334 #
vertex $-1 $353 $354 #
vertex $-1 $352 $355 #
straight-curve $-1 62.652058473464152 0 -11.938462466186134 0 -1 0 I I #
face $-1 $-1 $246 $30 $-1 $356 reversed single #
loop $-1 $-1 $357 $136 #
plane-surface $-1 0 0 17.464043984246192 0 0 1 1 0 0 forward_v I I I I #
coedge $-1 $358 $359 $360 $361 reversed $137 $-1 #
coedge $-1 $362 $139 $141 $244 forward $85 $-1 #
coedge $-1 $139 $362 $358 $363 forward $85 $-1 #
coedge $-1 $360 $142 $139 $241 forward $246 $-1 #
edge $-1 $248 -31.311256315231248 $364 -5.9490274582702192 $240 $365 forward 7 unknown #
coedge $-1 $366 $367 $140 $243 forward $235 $-1 #
edge $-1 $368 -33.748030272176415 $247 -28.299255526834074 $242 $369 forward 7 unknown #
edge $-1 $248 -2.274695869299009e-014 $368 8.8502773962994006 $141 $370 forward 7 unknown #
coedge $-1 $142 $360 $366 $371 reversed $246 $-1 #
loop $-1 $-1 $360 $234 #
vertex $-1 $371 $372 #
vertex $-1 $143 $373 #
straight-curve $-1 -49.941398201981983 -42.142481606017839 43.817423165285646 0 0 -1 I I #
coedge $-1 $250 $250 $-1 $374 reversed $146 $-1 #
edge $-1 $375 0 $375 6.2831853071796004 $147 $376 forward 7 unknown #
vertex $-1 $150 $377 #
ellipse-curve $-1 -42.695047099993118 -39.418094233346665 13.976987067376038 0 -0.78801076186113728 0.61566146476048833 1.5 0 0 1 I I #
coedge $-1 $254 $254 $-1 $378 reversed $153 $-1 #
edge $-1 $379 0 $379 6.2831853071796004 $154 $380 forward 7 unknown #
vertex $-1 $157 $381 #
ellipse-curve $-1 -31.825520447009815 -39.418094233346665 13.976987067376038 0 -0.78801076186113728 0.61566146476048833 1.5 0 0 1 I I #
face $-1 $-1 $382 $33 $-1 $383 forward single #
loop $-1 $-1 $164 $158 #
plane-surface $-1 0 42.142481606017839 0 0 -1 0 0 0 -1 forward_v I I I I #
coedge $-1 $384 $385 $386 $387 reversed $159 $-1 #
coedge $-1 $388 $161 $163 $268 forward $99 $-1 #
coedge $-1 $161 $388 $384 $389 forward $99 $-1 #
coedge $-1 $386 $164 $161 $265 forward $259 $-1 #
edge $-1 $271 -25.386479488320632 $390 -8.9281409406476087 $264 $391 forward 7 unknown #
coedge $-1 $392 $393 $162 $267 forward $382 $-1 #
edge $-1 $394 -4.0113487039061582 $270 11.773125966952293 $266 $395 forward 7 unknown #
edge $-1 $271 -84.284963212035706 $394 -63.370328987769767 $163 $396 forward 7 unknown #
coedge $-1 $164 $386 $392 $397 reversed $259 $-1 #
vertex $-1 $397 $398 #
vertex $-1 $165 $399 #
straight-curve $-1 42.543789702804752 42.142481606017839 76.803468812263517 0 0 -1 I I #
coedge $-1 $273 $273 $-1 $400 reversed $168 $-1 #
edge $-1 $401 0 $401 6.2831853071796004 $169 $402 forward 7 unknown #
vertex $-1 $172 $403 #
ellipse-curve $-1 30.78783359732401 34.250244270588603 10.603426590383901 0 0.6560590369687036 0.75470957328743171 1.5 0 0 1 I I #
coedge $-1 $277 $277 $-1 $404 reversed $175 $-1 #
edge $-1 $405 0 $405 6.2831853071796004 $176 $406 forward 7 unknown #
vertex $-1 $179 $407 #
ellipse-curve $-1 37.841407260612456 34.250244270588603 10.603426590383901 0 0.6560590369687036 0.75470957328743171 1.5 0 0 1 I I #
face $-1 $-1 $195 $27 $-1 $408 reversed single #
loop $-1 $-1 $297 $180 #
plane-surface $-1 0 42.142481606017839 0 0 -1 0 0 0 -1 forward_v I I I I #
coedge $-1 $409 $295 $298 $410 forward $181 $-1 #
coedge $-1 $301 $183 $184 $289 reversed $113 $-1 #
coedge $-1 $295 $409 $183 $287 reversed $181 $-1 #
edge $-1 $302 -17.464043984246192 $411 17.464043984246192 $286 $412 forward 7 unknown #
coedge $-1 $185 $184 $409 $413 forward $73 $-1 #
edge $-1 $293 -62.652058473464152 $411 62.652058473464152 $285 $414 forward 7 unknown #
coedge $-1 $298 $297 $185 $291 reversed $282 $-1 #
edge $-1 $415 -62.652058473464152 $292 62.652058473464152 $290 $416 forward 7 unknown #
vertex $-1 $187 $417 #
vertex $-1 $304 $418 #
straight-curve $-1 62.652058473464152 0 -17.464043984246192 0 -1 0 I I #
coedge $-1 $284 $286 $188 $296 reversed $181 $-1 #
edge $-1 $299 -42.142481606017839 $302 42.142481606017839 $295 $419 forward 7 unknown #
coedge $-1 $290 $189 $194 $305 forward $282 $-1 #
coedge $-1 $189 $290 $284 $410 reversed $282 $-1 #
vertex $-1 $190 $420 #
straight-curve $-1 0 42.142481606017839 17.464043984246192 -1 0 0 I I #
coedge $-1 $191 $285 $193 $304 reversed $113 $-1 #
vertex $-1 $296 $421 #
straight-curve $-1 0 -42.142481606017839 17.464043984246192 1 0 0 I I #
edge $-1 $196 -17.464043984246192 $293 17.464043984246192 $193 $422 forward 7 unknown #
edge $-1 $197 -17.464043984246192 $292 17.464043984246192 $194 $423 forward 7 unknown #
point $-1 62.652058473464152 -42.142481606017839 17.464043984246192 #
point $-1 62.652058473464152 42.142481606017839 17.464043984246192 #
face $-1 $-1 $325 $28 $-1 $424 reversed single #
loop $-1 $-1 $425 $199 #
plane-surface $-1 -62.652058473464152 0 0 1 0 0 0 0 -1 forward_v I I I I #
coedge $-1 $312 $328 $203 $315 forward $200 $-1 #
coedge $-1 $210 $311 $202 $313 forward $200 $-1 #
edge $-1 $319 -10.27103422830117 $213 -2.10423391180578 $312 $426 forward 7 unknown #
coedge $-1 $204 $203 $425 $427 reversed $77 $-1 #
edge $-1 $428 -34.503694304602618 $319 -21.793034033120449 $311 $429 forward 7 unknown #
coedge $-1 $324 $323 $204 $317 forward $325 $-1 #
edge $-1 $318 21.793034033120449 $430 34.503694304602618 $316 $431 forward 7 unknown #
vertex $-1 $317 $432 #
vertex $-1 $315 $433 #
straight-curve $-1 -49.941398201981983 0 -16.458668298354645 0 -1 0 I I #
coedge $-1 $434 $435 $207 $322 forward $309 $-1 #
edge $-1 $329 -42.142481606017839 $326 42.142481606017839 $321 $436 forward 7 unknown #
coedge $-1 $316 $208 $212 $331 forward $325 $-1 #
coedge $-1 $208 $316 $434 $437 reversed $325 $-1 #
loop $-1 $-1 $316 $308 #
vertex $-1 $437 $438 #
straight-curve $-1 -28.148364168861534 42.142481606017839 -8.2918679818592551 1 0 0 I I #
coedge $-1 $311 $210 $435 $439 forward $200 $-1 #
vertex $-1 $439 $440 #
straight-curve $-1 -28.148364168861534 -42.142481606017839 -8.2918679818592551 -1 0 0 I I #
edge $-1 $214 2.10423391180578 $318 10.27103422830117 $323 $441 forward 7 unknown #
point $-1 -49.941398201981983 -42.142481606017839 -8.2918679818592551 #
point $-1 -49.941398201981983 42.142481606017839 -8.2918679818592551 #
face $-1 $-1 $230 $29 $-1 $442 reversed single #
loop $-1 $-1 $225 $216 #
plane-surface $-1 0 42.142481606017839 0 0 -1 0 0 0 -1 forward_v I I I I #
coedge $-1 $443 $444 $220 $341 forward $217 $-1 #
coedge $-1 $445 $219 $340 $446 forward $129 $-1 #
coedge $-1 $219 $445 $228 $352 reversed $129 $-1 #
coedge $-1 $221 $220 $338 $446 reversed $81 $-1 #
edge $-1 $447 -42.142481606017839 $344 42.142481606017839 $337 $448 forward 7 unknown #
edge $-1 $345 -42.142481606017839 $349 42.142481606017839 $221 $449 forward 7 unknown #
coedge $-1 $222 $347 $443 $450 reversed $335 $-1 #
vertex $-1 $450 $451 #
vertex $-1 $226 $452 #
straight-curve $-1 42.543789702804744 42.142481606017839 -7.3506266126080817 0 0 1 I I #
coedge $-1 $343 $225 $229 $353 forward $335 $-1 #
straight-curve $-1 26.298962044067224 42.142481606017839 -11.938462466186134 1 0 0 I I #
vertex $-1 $227 $453 #
straight-curve $-1 26.298962044067224 -42.142481606017839 -11.938462466186134 -1 0 0 I I #
coedge $-1 $229 $228 $454 $455 reversed $230 $-1 #
edge $-1 $232 11.938462466186134 $456 17.464043984246192 $228 $457 forward 7 unknown #
edge $-1 $231 11.938462466186134 $458 17.464043984246192 $229 $459 forward 7 unknown #
point $-1 62.652058473464152 42.142481606017839 -11.938462466186134 #
point $-1 62.652058473464152 -42.142481606017839 -11.938462466186134 #
plane-surface $-1 0 -42.142481606017839 0 0 1 0 0 0 1 forward_v I I I I #
coedge $-1 $367 $366 $359 $460 forward $235 $-1 #
coedge $-1 $359 $237 $239 $363 reversed $137 $-1 #
coedge $-1 $237 $358 $357 $460 reversed $137 $-1 #
coedge $-1 $245 $240 $237 $361 forward $246 $-1 #
edge $-1 $364 -33.327493014779762 $461 -26.353379181039454 $360 $462 forward 7 unknown #
coedge $-1 $239 $238 $367 $463 reversed $85 $-1 #
edge $-1 $464 -8.8502773962994006 $364 2.274695869299009e-014 $358 $465 forward 7 unknown #
vertex $-1 $241 $466 #
straight-curve $-1 -18.630141886750735 -42.142481606017839 10.489930150505876 1 0 0 I I #
coedge $-1 $357 $242 $245 $371 forward $235 $-1 #
coedge $-1 $242 $357 $362 $463 forward $235 $-1 #
vertex $-1 $243 $467 #
straight-curve $-1 -49.941398201981983 -70.441737132851912 17.464043984246189 0 -1 0 I I #
straight-curve $-1 -49.941398201981983 -42.142481606017824 10.489930150505899 0 0.61566146476048833 0.78801076186113728 I I #
edge $-1 $247 -49.941398201981983 $461 -24.579169345020954 $245 $468 forward 7 unknown #
point $-1 -49.941398201981983 -42.142481606017839 17.464043984246192 #
point $-1 -49.941398201981983 -42.142481606017839 10.489930150505881 #
edge $-1 $469 1 $469 0 $250 $-1 forward 7 unknown #
vertex $-1 $251 $470 #
ellipse-curve $-1 -42.695047099993118 -34.966640269892693 10.499130164786045 0 -0.78801076186113728 0.61566146476048833 1.5 0 0 1 I I #
point $-1 -41.195047099993118 -39.418094233346665 13.97698706737604 #
edge $-1 $471 1 $471 0 $254 $-1 forward 7 unknown #
vertex $-1 $255 $472 #
ellipse-curve $-1 -31.825520447009815 -34.966640269892693 10.499130164786045 0 -0.78801076186113728 0.61566146476048833 1.5 0 0 1 I I #
point $-1 -30.325520447009815 -39.418094233346665 13.97698706737604 #
loop $-1 $-1 $266 $258 #
plane-surface $-1 0 0 17.464043984246192 0 0 1 1 0 0 forward_v I I I I #
coedge $-1 $385 $261 $263 $389 reversed $159 $-1 #
coedge $-1 $261 $384 $473 $474 reversed $159 $-1 #
coedge $-1 $269 $264 $261 $387 forward $259 $-1 #
edge $-1 $390 -73.060659615741926 $475 -59.339424828017329 $386 $476 forward 7 unknown #
coedge $-1 $263 $262 $393 $477 reversed $99 $-1 #
edge $-1 $478 63.370328987769767 $390 84.284963212035706 $384 $479 forward 7 unknown #
vertex $-1 $265 $480 #
straight-curve $-1 17.15731021448412 42.142481606017839 3.7428091965215913 -1 0 0 I I #
coedge $-1 $473 $266 $269 $397 forward $382 $-1 #
coedge $-1 $266 $473 $388 $477 forward $382 $-1 #
vertex $-1 $267 $481 #
straight-curve $-1 42.543789702804752 30.369355639065546 17.464043984246189 0 1 0 I I #
straight-curve $-1 42.543789702804752 -21.468187014284496 59.038720992352339 0 -0.75470957328743171 0.6560590369687036 I I #
edge $-1 $270 -42.543789702804752 $475 -26.085451155131729 $269 $482 forward 7 unknown #
point $-1 42.543789702804752 42.142481606017839 17.464043984246192 #
point $-1 42.543789702804752 42.142481606017839 3.7428091965215913 #
edge $-1 $483 1 $483 0 $273 $-1 forward 7 unknown #
vertex $-1 $274 $484 #
ellipse-curve $-1 30.78783359732401 33.019645541388833 9.1877847205704075 0 0.6560590369687036 0.75470957328743171 1.5 0 0 1 I I #
point $-1 32.28783359732401 34.25024427058861 10.603426590383904 #
edge $-1 $485 1 $485 0 $277 $-1 forward 7 unknown #
vertex $-1 $278 $486 #
ellipse-curve $-1 37.841407260612456 33.019645541388833 9.1877847205704075 0 0.6560590369687036 0.75470957328743171 1.5 0 0 1 I I #
point $-1 39.341407260612456 34.25024427058861 10.603426590383904 #
plane-surface $-1 62.652058473464152 0 0 -1 0 0 0 0 1 forward_v I I I I #
coedge $-1 $286 $284 $288 $413 reversed $181 $-1 #
edge $-1 $299 -17.464043984246192 $415 17.464043984246192 $298 $487 forward 7 unknown #
vertex $-1 $413 $488 #
straight-curve $-1 -62.652058473464152 -42.142481606017839 0 0 0 -1 I I #
edge $-1 $411 -42.142481606017839 $415 42.142481606017839 $409 $489 forward 7 unknown #
straight-curve $-1 0 -42.142481606017839 -17.464043984246192 -1 0 0 I I #
vertex $-1 $291 $490 #
straight-curve $-1 0 42.142481606017839 -17.464043984246192 1 0 0 I I #
point $-1 62.652058473464152 42.142481606017839 -17.464043984246192 #
point $-1 62.652058473464152 -42.142481606017839 -17.464043984246192 #
straight-curve $-1 -62.652058473464152 0 17.464043984246192 0 -1 0 I I #
point $-1 -62.652058473464152 42.142481606017839 17.464043984246192 #
point $-1 -62.652058473464152 -42.142481606017839 17.464043984246192 #
straight-curve $-1 62.652058473464152 -42.142481606017839 0 0 0 -1 I I #
straight-curve $-1 62.652058473464152 42.142481606017839 0 0 0 -1 I I #
plane-surface $-1 0 42.142481606017839 0 0 -1 0 0 0 -1 forward_v I I I I #
coedge $-1 $435 $434 $314 $427 forward $309 $-1 #
straight-curve $-1 -49.941398201981983 -42.142481606017839 -6.1876340700534751 0 0 1 I I #
edge $-1 $430 -42.142481606017839 $428 42.142481606017839 $425 $491 forward 7 unknown #
vertex $-1 $315 $492 #
straight-curve $-1 -28.148364168861534 -42.142481606017839 -16.458668298354645 1 0 0 I I #
vertex $-1 $317 $493 #
straight-curve $-1 -28.148364168861534 42.142481606017839 -16.458668298354645 -1 0 0 I I #
point $-1 -49.941398201981983 42.142481606017839 -16.458668298354645 #
point $-1 -49.941398201981983 -42.142481606017839 -16.458668298354645 #
coedge $-1 $425 $321 $324 $437 forward $309 $-1 #
coedge $-1 $321 $425 $328 $439 reversed $309 $-1 #
straight-curve $-1 -62.652058473464152 0 -8.2918679818592551 0 1 0 I I #
edge $-1 $326 8.2918679818592551 $430 16.458668298354645 $324 $494 forward 7 unknown #
point $-1 -62.652058473464152 42.142481606017839 -8.2918679818592551 #
edge $-1 $329 8.2918679818592551 $428 16.458668298354645 $435 $495 forward 7 unknown #
point $-1 -62.652058473464152 -42.142481606017839 -8.2918679818592551 #
straight-curve $-1 -49.941398201981983 42.142481606017839 -6.1876340700534751 0 0 -1 I I #
plane-surface $-1 62.652058473464152 0 0 -1 0 0 0 0 1 forward_v I I I I #
coedge $-1 $454 $337 $343 $450 forward $217 $-1 #
coedge $-1 $337 $454 $445 $496 forward $217 $-1 #
coedge $-1 $339 $338 $444 $496 reversed $129 $-1 #
edge $-1 $349 4.5878358535780528 $447 10.113417371638111 $338 $497 forward 7 unknown #
vertex $-1 $341 $498 #
straight-curve $-1 42.543789702804744 0 -17.464043984246192 0 1 0 I I #
straight-curve $-1 42.543789702804744 0 -11.938462466186134 0 -1 0 I I #
edge $-1 $344 42.543789702804744 $458 62.652058473464152 $343 $499 forward 7 unknown #
point $-1 42.543789702804744 42.142481606017839 -17.464043984246192 #
point $-1 42.543789702804744 42.142481606017839 -11.938462466186134 #
point $-1 42.543789702804744 -42.142481606017839 -11.938462466186134 #
coedge $-1 $444 $443 $351 $455 forward $217 $-1 #
edge $-1 $458 -42.142481606017839 $456 42.142481606017839 $351 $500 forward 7 unknown #
vertex $-1 $352 $501 #
straight-curve $-1 62.652058473464152 -42.142481606017839 0 0 0 -1 I I #
vertex $-1 $455 $502 #
straight-curve $-1 62.652058473464152 42.142481606017839 0 0 0 -1 I I #
edge $-1 $461 28.299255526834074 $464 33.748030272176415 $357 $503 forward 7 unknown #
vertex $-1 $460 $504 #
straight-curve $-1 -24.579169345020954 -42.142481606017839 43.817423165285646 0 0 1 I I #
edge $-1 $464 5.9490274582702192 $368 31.311256315231248 $367 $505 forward 7 unknown #
vertex $-1 $463 $506 #
straight-curve $-1 -24.579169345020954 -42.142481606017824 10.489930150505899 0 -0.61566146476048833 -0.78801076186113728 I I #
point $-1 -24.579169345020954 -42.142481606017839 10.489930150505881 #
point $-1 -49.941398201981983 -36.693706860675498 17.464043984246192 #
straight-curve $-1 0 -42.142481606017839 17.464043984246192 1 0 0 I I #
vertex $-1 $374 $507 #
point $-1 -41.195047099993118 -34.966640269892693 10.499130164786045 #
vertex $-1 $378 $508 #
point $-1 -30.325520447009815 -34.966640269892693 10.499130164786045 #
coedge $-1 $393 $392 $385 $474 forward $382 $-1 #
edge $-1 $475 -11.773125966952293 $478 4.0113487039061582 $473 $509 forward 7 unknown #
vertex $-1 $474 $510 #
straight-curve $-1 26.085451155131729 42.142481606017839 76.803468812263517 0 0 1 I I #
edge $-1 $478 8.9281409406476087 $394 25.386479488320632 $393 $511 forward 7 unknown #
vertex $-1 $477 $512 #
straight-curve $-1 26.085451155131729 -21.468187014284496 59.038720992352339 0 0.75470957328743171 -0.6560590369687036 I I #
point $-1 26.085451155131729 42.142481606017839 3.7428091965215913 #
point $-1 42.543789702804752 26.358006935159388 17.464043984246189 #
straight-curve $-1 0 42.142481606017839 17.464043984246192 -1 0 0 I I #
vertex $-1 $400 $513 #
point $-1 32.28783359732401 33.019645541388833 9.1877847205704075 #
vertex $-1 $404 $514 #
point $-1 39.341407260612456 33.019645541388833 9.1877847205704075 #
straight-curve $-1 -62.652058473464152 42.142481606017839 0 0 0 -1 I I #
point $-1 -62.652058473464152 -42.142481606017839 -17.464043984246192 #
straight-curve $-1 -62.652058473464152 0 -17.464043984246192 0 1 0 I I #
point $-1 -62.652058473464152 42.142481606017839 -17.464043984246192 #
straight-curve $-1 -62.652058473464152 0 -16.458668298354645 0 -1 0 I I #
point $-1 -62.652058473464152 -42.142481606017839 -16.458668298354645 #
point $-1 -62.652058473464152 42.142481606017839 -16.458668298354645 #
straight-curve $-1 -62.652058473464152 42.142481606017839 0 0 0 -1 I I #
straight-curve $-1 -62.652058473464152 -42.142481606017839 0 0 0 -1 I I #
edge $-1 $456 -62.652058473464152 $447 -42.543789702804744 $445 $515 forward 7 unknown #
straight-curve $-1 42.543789702804744 -42.142481606017839 -7.3506266126080817 0 0 -1 I I #
point $-1 42.543789702804744 -42.142481606017839 -17.464043984246192 #
straight-curve $-1 0 42.142481606017839 -17.464043984246192 1 0 0 I I #
straight-curve $-1 62.652058473464152 0 -17.464043984246192 0 -1 0 I I #
point $-1 62.652058473464152 -42.142481606017839 -17.464043984246192 #
point $-1 62.652058473464152 42.142481606017839 -17.464043984246192 #
straight-curve $-1 -24.579169345020954 -70.441737132851912 17.464043984246189 0 1 0 I I #
point $-1 -24.579169345020954 -42.142481606017839 17.464043984246192 #
straight-curve $-1 -18.630141886750735 -36.693706860675498 17.464043984246192 -1 0 0 I I #
point $-1 -24.579169345020954 -36.693706860675498 17.464043984246192 #
point $-1 -42.695047099993118 -33.784624127100983 9.5756379676453136 #
point $-1 -31.825520447009815 -33.784624127100983 9.5756379676453136 #
straight-curve $-1 26.085451155131729 30.369355639065546 17.464043984246189 0 -1 0 I I #
point $-1 26.085451155131729 42.142481606017839 17.464043984246192 #
straight-curve $-1 17.15731021448412 26.35800693515937 17.464043984246196 1 0 0 I I #
point $-1 26.085451155131729 26.358006935159388 17.464043984246189 #
point $-1 30.78783359732401 32.035556985935777 8.0557203606392616 #
point $-1 37.841407260612456 32.035556985935777 8.0557203606392616 #
straight-curve $-1 0 -42.142481606017839 -17.464043984246192 -1 0 0 I I #
End-of-ACIS-data 