500 0 7 0           
7 Unknown 11 ACIS 5.0 NT 24 Thu Mar 25 15:13:44 1999 
-1 9.9999999999999995e-007 1e-010 
body $-1 $7 $-1 $8 #
body $-1 $9 $-1 $10 #
body $-1 $11 $-1 $12 #
body $-1 $13 $-1 $14 #
body $-1 $15 $-1 $16 #
body $-1 $17 $-1 $18 #
body $-1 $19 $-1 $20 #
lump $-1 $-1 $21 $0 #
transform $-1 1 0 0 0 1 0 0 0 1 52.035279396954252 21.58446955886906 5.2941136935842383 1 rotate no_reflect no_shear #
lump $-1 $-1 $22 $1 #
transform $-1 1 0 0 0 1 0 0 0 1 52.035279396954252 21.58446955886906 5.2941136935842383 1 rotate no_reflect no_shear #
lump $-1 $-1 $23 $2 #
transform $-1 1 0 0 0 1 0 0 0 1 52.035279396954252 21.58446955886906 5.2941136935842383 1 rotate no_reflect no_shear #
lump $-1 $-1 $24 $3 #
transform $-1 1 0 0 0 1 0 0 0 1 52.035279396954252 21.58446955886906 5.2941136935842383 1 rotate no_reflect no_shear #
lump $-1 $-1 $25 $4 #
transform $-1 1 0 0 0 1 0 0 0 1 52.035279396954252 21.58446955886906 5.2941136935842383 1 rotate no_reflect no_shear #
lump $-1 $-1 $26 $5 #
transform $-1 1 0 0 0 1 0 0 0 1 52.035279396954252 21.58446955886906 5.2941136935842383 1 rotate no_reflect no_shear #
lump $-1 $-1 $27 $6 #
transform $-1 1 0 0 0 1 0 0 0 1 52.035279396954252 21.58446955886906 5.2941136935842383 1 rotate no_reflect no_shear #
shell $-1 $-1 $-1 $28 $-1 $7 #
shell $-1 $-1 $-1 $29 $-1 $9 #
shell $-1 $-1 $-1 $30 $-1 $11 #
shell $-1 $-1 $-1 $31 $-1 $13 #
shell $-1 $-1 $-1 $32 $-1 $15 #
shell $-1 $-1 $-1 $33 $-1 $17 #
shell $-1 $-1 $-1 $34 $-1 $19 #
face $-1 $35 $36 $21 $-1 $37 forward single #
face $-1 $38 $39 $22 $-1 $40 reversed single #
face $-1 $41 $42 $23 $-1 $43 reversed single #
face $-1 $44 $45 $24 $-1 $46 reversed single #
face $-1 $47 $48 $25 $-1 $49 forward single #
face $-1 $50 $51 $26 $-1 $52 reversed single #
face $-1 $53 $54 $27 $-1 $55 forward single #
face $-1 $56 $57 $21 $-1 $58 reversed single #
loop $-1 $-1 $59 $28 #
plane-surface $-1 0 0 5.2941136935842383 0 0 1 1 0 0 forward_v I I I I #
face $-1 $60 $61 $22 $-1 $62 reversed single #
loop $-1 $-1 $63 $29 #
plane-surface $-1 0 -17.682048405816602 3.7941136935842383 0 -1 0 0 0 -1 forward_v I I I I #
face $-1 $64 $65 $23 $-1 $66 reversed single #
loop $-1 $-1 $67 $30 #
plane-surface $-1 0 19.633258982342831 2.2941136935842383 0 0 1 1 0 0 forward_v I I I I #
face $-1 $68 $69 $24 $-1 $70 reversed single #
loop $-1 $-1 $71 $31 #
plane-surface $-1 -52.035279396954266 -12.871737020117759 0.95203582889366345 -0.83867057594974714 0 0.54463902268945019 0.54463902268945019 0 0.83867057594974714 forward_v I I I I #
face $-1 $72 $73 $25 $-1 $74 forward single #
loop $-1 $75 $76 $32 #
cone-surface $-1 -49.924830188635823 -12.871737020117759 2.6681257366095044 0.83867057594974714 0 -0.54463902268945019 0.54463902268945019 0 0.83867057594974714 1 I I 0 1 1 forward I I I I #
face $-1 $77 $78 $26 $-1 $79 reversed single #
loop $-1 $-1 $80 $33 #
plane-surface $-1 82.635307447794219 -8.0614256344189137 144.91383874425222 0 -1 0 -0.83867057594974714 0 -0.54463902268945019 forward_v I I I I #
face $-1 $81 $82 $27 $-1 $83 forward single #
loop $-1 $84 $85 $34 #
cone-surface $-1 49.924830188635823 -12.871737020117759 2.6681257366095008 -0.83867057594974714 0 -0.54463902268945019 0.54463902268945019 0 -0.83867057594974714 1 I I 0 1 1 forward I I I I #
face $-1 $86 $87 $21 $-1 $88 reversed single #
loop $-1 $-1 $89 $35 #
plane-surface $-1 0 0 -5.2941136935842383 0 0 1 1 0 0 forward_v I I I I #
coedge $-1 $90 $91 $92 $93 forward $36 $-1 #
face $-1 $94 $95 $22 $-1 $96 reversed single #
loop $-1 $-1 $97 $38 #
plane-surface $-1 0 -19.633258982342831 2.2941136935842383 0 0 1 1 0 0 forward_v I I I I #
coedge $-1 $98 $99 $100 $101 reversed $39 $-1 #
face $-1 $102 $103 $23 $-1 $104 forward single #
loop $-1 $-1 $105 $41 #
plane-surface $-1 0 17.682048405816602 3.7941136935842383 0 1 0 0 0 1 forward_v I I I I #
coedge $-1 $106 $107 $108 $109 reversed $42 $-1 #
face $-1 $110 $111 $24 $-1 $112 reversed single #
loop $-1 $-1 $113 $44 #
plane-surface $-1 -139.31619488005353 -8.0614256344189137 57.63292326115296 0 -1 0 0.83867057594974714 0 -0.54463902268945019 forward_v I I I I #
coedge $-1 $114 $115 $116 $117 reversed $45 $-1 #
face $-1 $-1 $118 $25 $-1 $119 forward single #
loop $-1 $120 $121 $47 #
cone-surface $-1 -48.804934814772082 -12.871737020117759 1.9408572006353371 0.83867057594974714 0 -0.54463902268945019 0.2723195113447251 0 0.41933528797487357 1 I I -0.70710678118654735 0.70710678118654768 0.5 forward I I I I #
loop $-1 $-1 $122 $32 #
coedge $-1 $76 $76 $123 $124 reversed $48 $-1 #
face $-1 $125 $126 $26 $-1 $127 forward single #
loop $-1 $-1 $128 $50 #
plane-surface $-1 -4.6456080353050453 -12.871737020117759 88.23295131199292 0.83867057594974714 0 0.54463902268945019 0.54463902268945019 0 -0.83867057594974714 forward_v I I I I #
coedge $-1 $129 $130 $131 $132 reversed $51 $-1 #
face $-1 $-1 $133 $27 $-1 $134 forward single #
loop $-1 $135 $136 $53 #
cone-surface $-1 48.804934814772082 -12.871737020117759 1.9408572006353335 -0.83867057594974714 0 -0.54463902268945019 0.2723195113447251 0 -0.41933528797487357 1 I I -0.70710678118654735 0.70710678118654768 0.5 forward I I I I #
loop $-1 $-1 $137 $34 #
coedge $-1 $85 $85 $138 $139 reversed $54 $-1 #
face $-1 $140 $141 $21 $-1 $142 reversed single #
loop $-1 $-1 $143 $56 #
plane-surface $-1 0 -21.58446955886906 0 0 1 0 0 0 1 forward_v I I I I #
coedge $-1 $144 $145 $146 $147 forward $57 $-1 #
coedge $-1 $148 $59 $149 $150 forward $36 $-1 #
coedge $-1 $59 $148 $151 $152 forward $36 $-1 #
coedge $-1 $153 $154 $59 $93 reversed $155 $-1 #
edge $-1 $156 -21.58446955886906 $157 21.58446955886906 $92 $158 forward 7 unknown #
face $-1 $159 $160 $22 $-1 $161 reversed single #
loop $-1 $-1 $162 $60 #
plane-surface $-1 -52.035279396954252 0 0 1 0 0 0 0 -1 forward_v I I I I #
coedge $-1 $163 $100 $164 $165 reversed $61 $-1 #
coedge $-1 $166 $63 $162 $167 reversed $39 $-1 #
coedge $-1 $63 $166 $168 $169 reversed $39 $-1 #
coedge $-1 $97 $170 $63 $101 forward $61 $-1 #
edge $-1 $171 -52.035279396954252 $172 52.035279396954252 $63 $173 forward 7 unknown #
face $-1 $174 $175 $23 $-1 $176 reversed single #
loop $-1 $-1 $177 $64 #
plane-surface $-1 0 0 5.2941136935842383 0 0 1 1 0 0 forward_v I I I I #
coedge $-1 $178 $179 $180 $181 reversed $65 $-1 #
coedge $-1 $182 $67 $178 $183 forward $42 $-1 #
coedge $-1 $67 $182 $184 $185 reversed $42 $-1 #
coedge $-1 $186 $187 $67 $109 forward $175 $-1 #
edge $-1 $188 7.8654189146451863 $189 11.767840067697644 $108 $190 forward 7 unknown #
face $-1 $191 $192 $24 $-1 $193 forward single #
loop $-1 $-1 $194 $68 #
plane-surface $-1 -52.035279396954252 0 0 1 0 0 0 0 -1 forward_v I I I I #
coedge $-1 $195 $196 $197 $198 reversed $69 $-1 #
coedge $-1 $199 $71 $200 $201 reversed $45 $-1 #
coedge $-1 $71 $199 $195 $202 forward $45 $-1 #
coedge $-1 $197 $203 $71 $117 forward $192 $-1 #
edge $-1 $204 -11.246179895757725 $205 -1.625557124360034 $116 $206 forward 7 unknown #
loop $-1 $-1 $123 $72 #
plane-surface $-1 -52.035279396954266 -12.871737020117759 0.95203582889366345 -0.83867057594974714 0 0.54463902268945019 0.54463902268945019 0 0.83867057594974714 forward_v I I I I #
loop $-1 $-1 $207 $47 #
coedge $-1 $121 $121 $122 $208 reversed $73 $-1 #
coedge $-1 $122 $122 $121 $208 forward $75 $-1 #
coedge $-1 $123 $123 $76 $124 forward $118 $-1 #
edge $-1 $209 0 $209 6.2831853071796004 $123 $210 forward 7 unknown #
face $-1 $211 $212 $26 $-1 $213 forward single #
loop $-1 $-1 $131 $77 #
plane-surface $-1 0 0 5.2941136935842383 0 0 1 1 0 0 forward_v I I I I #
coedge $-1 $214 $215 $216 $217 reversed $78 $-1 #
coedge $-1 $130 $80 $218 $219 reversed $51 $-1 #
coedge $-1 $80 $129 $214 $220 reversed $51 $-1 #
coedge $-1 $216 $221 $80 $132 forward $126 $-1 #
edge $-1 $222 -10.717625673057142 $223 -7.8978474281980056 $131 $224 forward 7 unknown #
loop $-1 $-1 $138 $81 #
plane-surface $-1 -4.6456080353050453 -12.871737020117759 88.23295131199292 0.83867057594974714 0 0.54463902268945019 0.54463902268945019 0 -0.83867057594974714 forward_v I I I I #
loop $-1 $-1 $225 $53 #
coedge $-1 $136 $136 $137 $226 reversed $82 $-1 #
coedge $-1 $137 $137 $136 $226 forward $84 $-1 #
coedge $-1 $138 $138 $85 $139 forward $133 $-1 #
edge $-1 $227 0 $227 6.2831853071796004 $138 $228 forward 7 unknown #
face $-1 $229 $230 $21 $-1 $231 reversed single #
loop $-1 $-1 $232 $86 #
plane-surface $-1 -52.035279396954252 0 0 1 0 0 0 0 -1 forward_v I I I I #
coedge $-1 $233 $151 $234 $235 forward $87 $-1 #
coedge $-1 $236 $89 $233 $237 forward $57 $-1 #
coedge $-1 $89 $236 $238 $239 forward $57 $-1 #
coedge $-1 $154 $153 $89 $147 reversed $155 $-1 #
edge $-1 $240 -21.58446955886906 $241 21.58446955886906 $146 $242 forward 7 unknown #
coedge $-1 $91 $90 $243 $244 forward $36 $-1 #
coedge $-1 $245 $246 $90 $150 reversed $230 $-1 #
edge $-1 $157 -52.035279396954252 $247 52.035279396954252 $149 $248 forward 7 unknown #
coedge $-1 $143 $249 $91 $152 reversed $87 $-1 #
edge $-1 $250 -52.035279396954252 $156 52.035279396954252 $151 $251 forward 7 unknown #
coedge $-1 $146 $92 $249 $252 forward $155 $-1 #
coedge $-1 $92 $146 $245 $253 reversed $155 $-1 #
loop $-1 $-1 $153 $229 #
vertex $-1 $93 $254 #
vertex $-1 $93 $255 #
straight-curve $-1 52.035279396954252 0 5.2941136935842383 0 1 0 I I #
face $-1 $256 $257 $22 $-1 $258 forward single #
loop $-1 $-1 $259 $94 #
plane-surface $-1 0 -21.58446955886906 0 0 1 0 0 0 1 forward_v I I I I #
coedge $-1 $260 $261 $98 $167 forward $95 $-1 #
coedge $-1 $170 $97 $259 $262 reversed $61 $-1 #
coedge $-1 $168 $263 $97 $165 forward $264 $-1 #
edge $-1 $265 -11.767840067697644 $172 -7.8654189146451863 $164 $266 forward 7 unknown #
coedge $-1 $99 $98 $267 $268 reversed $39 $-1 #
edge $-1 $269 -3.3970568467921192 $171 -0.39705684679211917 $162 $270 forward 7 unknown #
coedge $-1 $271 $164 $99 $169 forward $264 $-1 #
edge $-1 $172 0.39705684679211917 $272 3.3970568467921192 $168 $273 forward 7 unknown #
coedge $-1 $100 $163 $260 $274 reversed $61 $-1 #
vertex $-1 $274 $275 #
vertex $-1 $165 $276 #
straight-curve $-1 0 -17.682048405816602 2.2941136935842383 1 0 0 I I #
face $-1 $277 $278 $23 $-1 $279 reversed single #
loop $-1 $-1 $187 $102 #
plane-surface $-1 52.035279396954252 0 0 -1 0 0 0 0 1 forward_v I I I I #
coedge $-1 $280 $281 $179 $282 forward $103 $-1 #
coedge $-1 $283 $105 $106 $183 reversed $65 $-1 #
coedge $-1 $105 $283 $177 $282 reversed $65 $-1 #
coedge $-1 $284 $285 $105 $181 forward $278 $-1 #
edge $-1 $286 0.39705684679211917 $287 3.3970568467921192 $180 $288 forward 7 unknown #
coedge $-1 $107 $106 $285 $289 reversed $42 $-1 #
edge $-1 $188 -52.035279396954252 $286 52.035279396954252 $178 $290 forward 7 unknown #
coedge $-1 $291 $292 $107 $185 forward $293 $-1 #
edge $-1 $189 -52.035279396954252 $294 52.035279396954252 $184 $295 forward 7 unknown #
coedge $-1 $296 $108 $292 $297 reversed $175 $-1 #
coedge $-1 $108 $296 $283 $298 forward $175 $-1 #
vertex $-1 $109 $299 #
vertex $-1 $185 $300 #
straight-curve $-1 52.035279396954252 9.8166294911714154 2.2941136935842383 0 1 0 I I #
face $-1 $-1 $301 $24 $-1 $302 forward single #
loop $-1 $-1 $197 $110 #
plane-surface $-1 0 0 5.2941136935842383 0 0 1 1 0 0 forward_v I I I I #
coedge $-1 $303 $304 $196 $305 forward $111 $-1 #
coedge $-1 $196 $113 $115 $202 reversed $69 $-1 #
coedge $-1 $113 $195 $194 $305 reversed $69 $-1 #
coedge $-1 $306 $116 $113 $198 forward $192 $-1 #
edge $-1 $205 -20.442596287931622 $307 -17.622818043072513 $197 $308 forward 7 unknown #
coedge $-1 $115 $114 $303 $309 reversed $45 $-1 #
coedge $-1 $310 $311 $114 $201 forward $301 $-1 #
edge $-1 $312 -15.362005397901836 $204 -10.184671186822124 $200 $313 forward 7 unknown #
edge $-1 $314 2.6082680278521875e-014 $205 5.1773342110797387 $195 $315 forward 7 unknown #
coedge $-1 $116 $306 $310 $316 forward $192 $-1 #
vertex $-1 $201 $317 #
vertex $-1 $117 $318 #
straight-curve $-1 -49.215501152095143 -6.4358685100588797 5.2941136935842383 0 1 0 I I #
coedge $-1 $207 $207 $-1 $319 reversed $120 $-1 #
edge $-1 $320 0 $320 6.2831853071796004 $121 $321 forward 7 unknown #
vertex $-1 $124 $322 #
ellipse-curve $-1 -50.625390274524705 -12.871737020117759 3.1230747612389536 -0.83867057594974714 0 0.54463902268945019 0.54463902268945019 0 0.83867057594974714 1 I I #
face $-1 $-1 $323 $26 $-1 $324 reversed single #
loop $-1 $-1 $325 $125 #
plane-surface $-1 0 -17.682048405816602 3.7941136935842383 0 -1 0 0 0 -1 forward_v I I I I #
coedge $-1 $326 $128 $130 $220 forward $78 $-1 #
coedge $-1 $128 $326 $325 $327 forward $78 $-1 #
coedge $-1 $328 $131 $128 $217 forward $126 $-1 #
edge $-1 $223 1.625557124360034 $329 11.246179895757722 $216 $330 forward 7 unknown #
coedge $-1 $331 $332 $129 $219 forward $323 $-1 #
edge $-1 $333 -71.504883543232452 $222 -67.162805678541872 $218 $334 forward 7 unknown #
edge $-1 $223 98.893224582828751 $333 104.0705587939085 $130 $335 forward 7 unknown #
coedge $-1 $131 $328 $331 $336 forward $126 $-1 #
vertex $-1 $219 $337 #
vertex $-1 $132 $338 #
straight-curve $-1 41.317653723897109 -8.0614256344189137 5.2941136935842366 -1 0 0 I I #
coedge $-1 $225 $225 $-1 $339 reversed $135 $-1 #
edge $-1 $340 0 $340 6.2831853071796004 $136 $341 forward 7 unknown #
vertex $-1 $139 $342 #
ellipse-curve $-1 50.625390274524683 -12.871737020117759 3.123074761238938 0.83867057594974714 0 0.54463902268945019 0.54463902268945019 0 -0.83867057594974714 1 I I #
face $-1 $-1 $155 $21 $-1 $343 reversed single #
loop $-1 $-1 $245 $140 #
plane-surface $-1 0 21.58446955886906 0 0 -1 0 0 0 -1 forward_v I I I I #
coedge $-1 $344 $243 $246 $345 forward $141 $-1 #
coedge $-1 $249 $143 $144 $237 reversed $87 $-1 #
coedge $-1 $243 $344 $143 $235 reversed $141 $-1 #
edge $-1 $250 -5.2941136935842383 $346 5.2941136935842383 $234 $347 forward 7 unknown #
coedge $-1 $145 $144 $344 $348 forward $57 $-1 #
edge $-1 $241 -52.035279396954252 $346 52.035279396954252 $233 $349 forward 7 unknown #
coedge $-1 $246 $245 $145 $239 reversed $230 $-1 #
edge $-1 $350 -52.035279396954252 $240 52.035279396954252 $238 $351 forward 7 unknown #
vertex $-1 $147 $352 #
vertex $-1 $252 $353 #
straight-curve $-1 52.035279396954252 0 -5.2941136935842383 0 -1 0 I I #
coedge $-1 $232 $234 $148 $244 reversed $141 $-1 #
edge $-1 $247 -21.58446955886906 $250 21.58446955886906 $243 $354 forward 7 unknown #
coedge $-1 $238 $149 $154 $253 forward $230 $-1 #
coedge $-1 $149 $238 $232 $345 reversed $230 $-1 #
vertex $-1 $150 $355 #
straight-curve $-1 0 21.58446955886906 5.2941136935842383 -1 0 0 I I #
coedge $-1 $151 $233 $153 $252 reversed $87 $-1 #
vertex $-1 $244 $356 #
straight-curve $-1 0 -21.58446955886906 5.2941136935842383 1 0 0 I I #
edge $-1 $156 -5.2941136935842383 $241 5.2941136935842383 $153 $357 forward 7 unknown #
edge $-1 $157 -5.2941136935842383 $240 5.2941136935842383 $154 $358 forward 7 unknown #
point $-1 52.035279396954252 -21.58446955886906 5.2941136935842383 #
point $-1 52.035279396954252 21.58446955886906 5.2941136935842383 #
face $-1 $-1 $264 $22 $-1 $359 reversed single #
loop $-1 $-1 $267 $159 #
plane-surface $-1 0 0 5.2941136935842383 0 0 1 1 0 0 forward_v I I I I #
coedge $-1 $360 $361 $163 $262 forward $160 $-1 #
coedge $-1 $362 $162 $170 $274 forward $95 $-1 #
coedge $-1 $162 $362 $363 $364 reversed $95 $-1 #
edge $-1 $365 -52.035279396954252 $265 52.035279396954252 $259 $366 forward 7 unknown #
coedge $-1 $164 $271 $360 $367 forward $264 $-1 #
loop $-1 $-1 $168 $256 #
vertex $-1 $262 $368 #
straight-curve $-1 52.035279396954252 -9.8166294911714154 2.2941136935842383 0 1 0 I I #
coedge $-1 $363 $369 $166 $268 forward $257 $-1 #
edge $-1 $272 -52.035279396954252 $269 52.035279396954252 $267 $370 forward 7 unknown #
vertex $-1 $364 $371 #
straight-curve $-1 -52.035279396954252 -17.682048405816602 1.8970568467921192 0 0 -1 I I #
coedge $-1 $263 $168 $369 $372 reversed $264 $-1 #
vertex $-1 $169 $373 #
straight-curve $-1 52.035279396954252 -17.682048405816602 1.8970568467921192 0 0 1 I I #
edge $-1 $171 7.8654189146451863 $365 11.767840067697644 $260 $374 forward 7 unknown #
point $-1 -52.035279396954252 -17.682048405816602 2.2941136935842383 #
point $-1 52.035279396954252 -17.682048405816602 2.2941136935842383 #
face $-1 $-1 $293 $23 $-1 $375 reversed single #
loop $-1 $-1 $180 $174 #
plane-surface $-1 -52.035279396954252 0 0 1 0 0 0 0 -1 forward_v I I I I #
coedge $-1 $376 $177 $296 $377 forward $103 $-1 #
coedge $-1 $177 $376 $284 $378 forward $103 $-1 #
edge $-1 $287 -52.035279396954252 $379 52.035279396954252 $177 $380 forward 7 unknown #
coedge $-1 $179 $178 $187 $298 reversed $65 $-1 #
coedge $-1 $381 $180 $281 $378 reversed $278 $-1 #
coedge $-1 $180 $381 $182 $289 forward $278 $-1 #
vertex $-1 $289 $382 #
vertex $-1 $181 $383 #
straight-curve $-1 -52.035279396954252 17.682048405816602 1.8970568467921192 0 0 1 I I #
edge $-1 $294 -11.767840067697644 $286 -7.8654189146451863 $285 $384 forward 7 unknown #
straight-curve $-1 0 17.682048405816602 2.2941136935842383 -1 0 0 I I #
coedge $-1 $385 $184 $381 $386 reversed $293 $-1 #
coedge $-1 $184 $385 $186 $297 forward $293 $-1 #
loop $-1 $-1 $184 $277 #
vertex $-1 $185 $387 #
straight-curve $-1 0 21.58446955886906 2.2941136935842383 -1 0 0 I I #
coedge $-1 $187 $186 $280 $377 reversed $175 $-1 #
edge $-1 $388 -5.2941136935842383 $189 -2.2941136935842383 $186 $389 forward 7 unknown #
edge $-1 $379 -3.3970568467921192 $188 -0.39705684679211917 $187 $390 forward 7 unknown #
point $-1 52.035279396954252 17.682048405816602 2.2941136935842383 #
point $-1 52.035279396954252 21.58446955886906 2.2941136935842383 #
loop $-1 $-1 $200 $191 #
plane-surface $-1 0 -17.682048405816602 3.7941136935842383 0 -1 0 0 0 -1 forward_v I I I I #
coedge $-1 $391 $194 $199 $309 forward $111 $-1 #
coedge $-1 $194 $391 $306 $392 reversed $111 $-1 #
edge $-1 $307 23.52234793699224 $314 27.864425801682795 $194 $393 forward 7 unknown #
coedge $-1 $203 $197 $304 $392 forward $192 $-1 #
vertex $-1 $392 $394 #
straight-curve $-1 -69.658097440026765 -8.0614256344189137 5.2941136935842401 -1 0 0 I I #
edge $-1 $314 1.625557124360034 $312 11.246179895757725 $303 $395 forward 7 unknown #
coedge $-1 $311 $200 $203 $316 reversed $301 $-1 #
coedge $-1 $200 $310 $391 $396 reversed $301 $-1 #
vertex $-1 $396 $397 #
straight-curve $-1 -43.668531790490938 -17.682048405816602 13.835697743695142 0.54463902268945019 0 0.83867057594974714 I I #
vertex $-1 $309 $398 #
straight-curve $-1 -52.035279396954266 -8.0614256344189137 0.95203582889366345 0.54463902268945019 0 0.83867057594974714 I I #
edge $-1 $399 -52.035279396954252 $204 -49.215501152095143 $203 $400 forward 7 unknown #
point $-1 -49.215501152095143 -17.682048405816605 5.2941136935842383 #
point $-1 -49.215501152095143 -8.0614256344189137 5.2941136935842383 #
edge $-1 $401 1 $401 0 $207 $-1 forward 7 unknown #
vertex $-1 $208 $402 #
ellipse-curve $-1 -49.224270102746956 -12.871737020117759 2.2131767119800623 -0.83867057594974714 0 0.54463902268945019 0.54463902268945019 0 0.83867057594974714 1 I I #
point $-1 -50.080751251835238 -12.871737020117759 3.9617453371886939 #
loop $-1 $-1 $218 $211 #
plane-surface $-1 52.035279396954252 0 0 -1 0 0 0 0 1 forward_v I I I I #
coedge $-1 $403 $404 $215 $327 reversed $212 $-1 #
coedge $-1 $215 $214 $332 $405 reversed $78 $-1 #
edge $-1 $406 -104.0705587939085 $329 -98.893224582828765 $325 $407 forward 7 unknown #
coedge $-1 $221 $216 $404 $408 forward $126 $-1 #
vertex $-1 $408 $409 #
straight-curve $-1 49.215501152095115 -6.4358685100588797 5.2941136935842366 0 -1 0 I I #
coedge $-1 $410 $218 $221 $336 reversed $323 $-1 #
coedge $-1 $218 $410 $326 $405 forward $323 $-1 #
vertex $-1 $219 $411 #
straight-curve $-1 52.035279396954252 -8.0614256344189137 72.456919372126109 0 0 1 I I #
straight-curve $-1 -4.6456080353050453 -8.0614256344189137 88.23295131199292 0.54463902268945019 0 -0.83867057594974714 I I #
edge $-1 $412 -17.682048405816602 $222 -8.0614256344189137 $331 $413 forward 7 unknown #
point $-1 52.035279396954252 -8.0614256344189137 5.2941136935842383 #
point $-1 49.215501152095115 -8.0614256344189137 5.2941136935842366 #
edge $-1 $414 1 $414 0 $225 $-1 forward 7 unknown #
vertex $-1 $226 $415 #
ellipse-curve $-1 49.224270102746956 -12.871737020117759 2.2131767119800587 0.83867057594974714 0 0.54463902268945019 0.54463902268945019 0 -0.83867057594974714 1 I I #
point $-1 51.170029297214143 -12.871737020117759 2.2844041852891959 #
plane-surface $-1 52.035279396954252 0 0 -1 0 0 0 0 1 forward_v I I I I #
coedge $-1 $234 $232 $236 $348 reversed $141 $-1 #
edge $-1 $247 -5.2941136935842383 $350 5.2941136935842383 $246 $416 forward 7 unknown #
vertex $-1 $348 $417 #
straight-curve $-1 -52.035279396954252 -21.58446955886906 0 0 0 -1 I I #
edge $-1 $346 -21.58446955886906 $350 21.58446955886906 $344 $418 forward 7 unknown #
straight-curve $-1 0 -21.58446955886906 -5.2941136935842383 -1 0 0 I I #
vertex $-1 $239 $419 #
straight-curve $-1 0 21.58446955886906 -5.2941136935842383 1 0 0 I I #
point $-1 52.035279396954252 21.58446955886906 -5.2941136935842383 #
point $-1 52.035279396954252 -21.58446955886906 -5.2941136935842383 #
straight-curve $-1 -52.035279396954252 0 5.2941136935842383 0 -1 0 I I #
point $-1 -52.035279396954252 21.58446955886906 5.2941136935842383 #
point $-1 -52.035279396954252 -21.58446955886906 5.2941136935842383 #
straight-curve $-1 52.035279396954252 -21.58446955886906 0 0 0 -1 I I #
straight-curve $-1 52.035279396954252 21.58446955886906 0 0 0 -1 I I #
plane-surface $-1 52.035279396954252 0 0 -1 0 0 0 0 1 forward_v I I I I #
coedge $-1 $420 $259 $263 $367 reversed $160 $-1 #
coedge $-1 $259 $420 $362 $421 forward $160 $-1 #
coedge $-1 $261 $260 $361 $421 reversed $95 $-1 #
coedge $-1 $422 $267 $261 $364 forward $257 $-1 #
edge $-1 $269 17.682048405816602 $423 21.58446955886906 $261 $424 forward 7 unknown #
vertex $-1 $262 $425 #
straight-curve $-1 0 -21.58446955886906 2.2941136935842383 1 0 0 I I #
edge $-1 $426 -5.2941136935842383 $265 -2.2941136935842383 $263 $427 forward 7 unknown #
point $-1 52.035279396954252 -21.58446955886906 2.2941136935842383 #
coedge $-1 $267 $422 $271 $372 forward $257 $-1 #
straight-curve $-1 0 -17.682048405816602 5.2941136935842383 -1 0 0 I I #
point $-1 -52.035279396954252 -17.682048405816602 5.2941136935842383 #
edge $-1 $426 -21.58446955886906 $272 -17.682048405816602 $271 $428 forward 7 unknown #
point $-1 52.035279396954252 -17.682048405816602 5.2941136935842383 #
straight-curve $-1 -52.035279396954252 -9.8166294911714154 2.2941136935842383 0 -1 0 I I #
plane-surface $-1 0 21.58446955886906 0 0 -1 0 0 0 -1 forward_v I I I I #
coedge $-1 $281 $280 $385 $429 forward $103 $-1 #
edge $-1 $379 17.682048405816602 $388 21.58446955886906 $296 $430 forward 7 unknown #
edge $-1 $431 -21.58446955886906 $287 -17.682048405816602 $284 $432 forward 7 unknown #
vertex $-1 $377 $433 #
straight-curve $-1 0 17.682048405816602 5.2941136935842383 1 0 0 I I #
coedge $-1 $285 $284 $291 $386 forward $278 $-1 #
point $-1 -52.035279396954252 17.682048405816602 2.2941136935842383 #
point $-1 -52.035279396954252 17.682048405816602 5.2941136935842383 #
straight-curve $-1 -52.035279396954252 9.8166294911714154 2.2941136935842383 0 -1 0 I I #
coedge $-1 $292 $291 $376 $429 reversed $293 $-1 #
edge $-1 $431 -5.2941136935842383 $294 -2.2941136935842383 $291 $434 forward 7 unknown #
point $-1 -52.035279396954252 21.58446955886906 2.2941136935842383 #
vertex $-1 $377 $435 #
straight-curve $-1 52.035279396954252 21.58446955886906 0 0 0 -1 I I #
straight-curve $-1 52.035279396954252 17.682048405816602 1.8970568467921192 0 0 -1 I I #
coedge $-1 $304 $303 $311 $396 forward $111 $-1 #
edge $-1 $307 8.0614256344189137 $399 17.682048405816602 $304 $436 forward 7 unknown #
straight-curve $-1 -52.035279396954252 -8.0614256344189137 28.81646163057648 0 0 -1 I I #
point $-1 -52.035279396954252 -8.0614256344189137 5.2941136935842383 #
straight-curve $-1 -52.035279396954252 -6.4358685100588797 0.95203582889368088 0 -1 0 I I #
edge $-1 $312 -27.864425801682795 $399 -23.52234793699224 $391 $437 forward 7 unknown #
point $-1 -52.035279396954252 -17.682048405816605 0.95203582889368532 #
point $-1 -52.035279396954252 -8.0614256344189137 0.95203582889368532 #
vertex $-1 $396 $438 #
straight-curve $-1 0 -17.682048405816602 5.2941136935842383 1 0 0 I I #
vertex $-1 $319 $439 #
point $-1 -48.679631080057504 -12.871737020117759 3.0518472879298093 #
coedge $-1 $404 $325 $410 $440 reversed $212 $-1 #
coedge $-1 $325 $403 $328 $408 reversed $212 $-1 #
edge $-1 $406 -11.246179895757725 $333 -1.625557124360034 $332 $441 forward 7 unknown #
vertex $-1 $440 $442 #
straight-curve $-1 -4.6456080353050453 -17.682048405816605 88.23295131199292 -0.54463902268945019 0 0.83867057594974714 I I #
edge $-1 $329 49.215501152095122 $412 52.035279396954252 $328 $443 forward 7 unknown #
point $-1 49.215501152095122 -17.682048405816602 5.2941136935842383 #
coedge $-1 $332 $331 $403 $440 forward $323 $-1 #
point $-1 52.035279396954252 -8.0614256344189137 0.95203582889365634 #
vertex $-1 $336 $444 #
straight-curve $-1 52.035279396954252 0 5.2941136935842383 0 1 0 I I #
vertex $-1 $339 $445 #
point $-1 49.768909125436409 -12.871737020117759 1.3745061360303117 #
straight-curve $-1 -52.035279396954252 21.58446955886906 0 0 0 -1 I I #
point $-1 -52.035279396954252 -21.58446955886906 -5.2941136935842383 #
straight-curve $-1 -52.035279396954252 0 -5.2941136935842383 0 1 0 I I #
point $-1 -52.035279396954252 21.58446955886906 -5.2941136935842383 #
coedge $-1 $361 $360 $422 $446 reversed $160 $-1 #
edge $-1 $423 -5.2941136935842383 $365 -2.2941136935842383 $362 $447 forward 7 unknown #
coedge $-1 $369 $363 $420 $446 forward $257 $-1 #
vertex $-1 $364 $448 #
straight-curve $-1 -52.035279396954252 0 5.2941136935842383 0 -1 0 I I #
point $-1 -52.035279396954252 -21.58446955886906 2.2941136935842383 #
vertex $-1 $372 $449 #
straight-curve $-1 52.035279396954252 -21.58446955886906 0 0 0 -1 I I #
straight-curve $-1 52.035279396954252 0 5.2941136935842383 0 1 0 I I #
edge $-1 $388 -52.035279396954252 $431 52.035279396954252 $385 $450 forward 7 unknown #
straight-curve $-1 52.035279396954252 0 5.2941136935842383 0 1 0 I I #
vertex $-1 $429 $451 #
straight-curve $-1 -52.035279396954252 0 5.2941136935842383 0 -1 0 I I #
point $-1 52.035279396954252 17.682048405816602 5.2941136935842383 #
straight-curve $-1 -52.035279396954252 21.58446955886906 0 0 0 -1 I I #
point $-1 52.035279396954252 21.58446955886906 5.2941136935842383 #
straight-curve $-1 -52.035279396954252 0 5.2941136935842383 0 -1 0 I I #
straight-curve $-1 -52.035279396954252 -17.682048405816605 28.81646163057648 0 0 1 I I #
point $-1 -52.035279396954252 -17.682048405816602 5.2941136935842383 #
point $-1 -48.385599526797208 -12.871737020117759 1.6685376892906119 #
edge $-1 $412 67.162805678541872 $406 71.504883543232452 $410 $452 forward 7 unknown #
straight-curve $-1 52.035279396954252 -6.4358685100588797 0.95203582889364213 0 1 0 I I #
point $-1 52.035279396954252 -17.682048405816605 0.95203582889365634 #
straight-curve $-1 0 -17.682048405816602 5.2941136935842383 1 0 0 I I #
point $-1 52.035279396954252 -17.682048405816602 5.2941136935842383 #
point $-1 48.385599526797208 -12.871737020117759 1.6685376892906083 #
edge $-1 $423 -52.035279396954252 $426 52.035279396954252 $420 $453 forward 7 unknown #
straight-curve $-1 -52.035279396954252 -21.58446955886906 0 0 0 -1 I I #
point $-1 -52.035279396954252 -21.58446955886906 5.2941136935842383 #
point $-1 52.035279396954252 -21.58446955886906 5.2941136935842383 #
straight-curve $-1 0 21.58446955886906 5.2941136935842383 -1 0 0 I I #
point $-1 -52.035279396954252 21.58446955886906 5.2941136935842383 #
straight-curve $-1 52.035279396954252 -17.682048405816605 72.456919372126109 0 0 -1 I I #
straight-curve $-1 0 -21.58446955886906 5.2941136935842383 1 0 0 I I #
End-of-ACIS-data 