500 0 7 0           
7 Unknown 11 ACIS 5.0 NT 24 Thu Mar 25 23:14:01 1999 
-1 9.9999999999999995e-007 1e-010 
body $-1 $7 $-1 $8 #
body $-1 $9 $-1 $10 #
body $-1 $11 $-1 $12 #
body $-1 $13 $-1 $14 #
body $-1 $15 $-1 $16 #
body $-1 $17 $-1 $18 #
body $-1 $19 $-1 $20 #
lump $-1 $-1 $21 $0 #
transform $-1 1 0 0 0 1 0 0 0 1 57.58598590044862 34.911866423828599 10.255141011261106 1 rotate no_reflect no_shear #
lump $-1 $-1 $22 $1 #
transform $-1 1 0 0 0 1 0 0 0 1 57.58598590044862 34.911866423828599 10.255141011261106 1 rotate no_reflect no_shear #
lump $-1 $-1 $23 $2 #
transform $-1 1 0 0 0 1 0 0 0 1 57.58598590044862 34.911866423828599 10.255141011261106 1 rotate no_reflect no_shear #
lump $-1 $-1 $24 $3 #
transform $-1 1 0 0 0 1 0 0 0 1 57.58598590044862 34.911866423828599 10.255141011261106 1 rotate no_reflect no_shear #
lump $-1 $-1 $25 $4 #
transform $-1 1 0 0 0 1 0 0 0 1 57.58598590044862 34.911866423828599 10.255141011261106 1 rotate no_reflect no_shear #
lump $-1 $-1 $26 $5 #
transform $-1 1 0 0 0 1 0 0 0 1 57.58598590044862 34.911866423828599 10.255141011261106 1 rotate no_reflect no_shear #
lump $-1 $-1 $27 $6 #
transform $-1 1 0 0 0 1 0 0 0 1 57.58598590044862 34.911866423828599 10.255141011261106 1 rotate no_reflect no_shear #
shell $-1 $-1 $-1 $28 $-1 $7 #
shell $-1 $-1 $-1 $29 $-1 $9 #
shell $-1 $-1 $-1 $30 $-1 $11 #
shell $-1 $-1 $-1 $31 $-1 $13 #
shell $-1 $-1 $-1 $32 $-1 $15 #
shell $-1 $-1 $-1 $33 $-1 $17 #
shell $-1 $-1 $-1 $34 $-1 $19 #
face $-1 $35 $36 $21 $-1 $37 forward single #
face $-1 $38 $39 $22 $-1 $40 reversed single #
face $-1 $41 $42 $23 $-1 $43 reversed single #
face $-1 $44 $45 $24 $-1 $46 reversed single #
face $-1 $47 $48 $25 $-1 $49 forward single #
face $-1 $50 $51 $26 $-1 $52 forward single #
face $-1 $53 $54 $27 $-1 $55 forward single #
face $-1 $56 $57 $21 $-1 $58 reversed single #
loop $-1 $-1 $59 $28 #
plane-surface $-1 0 0 10.255141011261106 0 0 1 1 0 0 forward_v I I I I #
face $-1 $60 $61 $22 $-1 $62 reversed single #
loop $-1 $-1 $63 $29 #
plane-surface $-1 0 -30.114997378494962 6.986152459894722 0 0 1 1 0 0 forward_v I I I I #
face $-1 $64 $65 $23 $-1 $66 reversed single #
loop $-1 $-1 $67 $30 #
plane-surface $-1 0 30.114997378494962 6.986152459894722 0 0 1 1 0 0 forward_v I I I I #
face $-1 $68 $69 $24 $-1 $70 reversed single #
loop $-1 $-1 $71 $31 #
plane-surface $-1 66.110351470655715 -8.9281931098709233 163.36573458516921 0 -1 0 -0.74314483375859142 0 -0.66913059716165679 forward_v I I I I #
face $-1 $72 $73 $25 $-1 $74 forward single #
loop $-1 $75 $76 $32 #
cone-surface $-1 52.402243261681548 -20.23380927200985 4.6844739485211786 -0.74314483375859142 0 -0.66913059716165679 0.66913059716165679 0 -0.74314483375859142 1 I I 0 1 1 forward I I I I #
face $-1 $77 $78 $26 $-1 $79 forward single #
loop $-1 $80 $81 $33 #
cone-surface $-1 52.402243261681548 -15.994203211207754 4.6844739485211786 -0.74314483375859142 0 -0.66913059716165679 0.66913059716165679 0 -0.74314483375859142 1 I I 0 1 1 forward I I I I #
face $-1 $82 $83 $27 $-1 $84 forward single #
loop $-1 $85 $86 $34 #
cone-surface $-1 52.402243261681548 -11.754597150405658 4.6844739485211786 -0.74314483375859142 0 -0.66913059716165679 0.66913059716165679 0 -0.74314483375859142 1 I I 0 1 1 forward I I I I #
face $-1 $87 $88 $21 $-1 $89 reversed single #
loop $-1 $-1 $90 $35 #
plane-surface $-1 0 0 -10.255141011261106 0 0 1 1 0 0 forward_v I I I I #
coedge $-1 $91 $92 $93 $94 forward $36 $-1 #
face $-1 $95 $96 $22 $-1 $97 reversed single #
loop $-1 $-1 $98 $38 #
plane-surface $-1 0 -25.318128333161326 8.6206467355779139 0 -1 0 0 0 -1 forward_v I I I I #
coedge $-1 $99 $100 $101 $102 reversed $39 $-1 #
face $-1 $103 $104 $23 $-1 $105 forward single #
loop $-1 $-1 $106 $41 #
plane-surface $-1 0 25.318128333161326 8.6206467355779139 0 1 0 0 0 1 forward_v I I I I #
coedge $-1 $107 $108 $109 $110 reversed $42 $-1 #
face $-1 $111 $112 $24 $-1 $113 reversed single #
loop $-1 $-1 $114 $44 #
plane-surface $-1 -19.479104366971242 -15.994203211207754 86.300644317749345 0.74314483375859142 0 0.66913059716165679 0.66913059716165679 0 -0.74314483375859142 forward_v I I I I #
coedge $-1 $115 $116 $117 $118 reversed $45 $-1 #
face $-1 $-1 $119 $25 $-1 $120 forward single #
loop $-1 $121 $122 $47 #
cone-surface $-1 51.143634827908755 -20.23380927200985 3.5512178527697777 -0.74314483375859142 0 -0.66913059716165679 0.3345652985808284 0 -0.37157241687929571 1 I I -0.70710678118654746 0.70710678118654746 0.5 forward I I I I #
loop $-1 $-1 $123 $32 #
coedge $-1 $76 $76 $124 $125 reversed $48 $-1 #
face $-1 $-1 $126 $26 $-1 $127 forward single #
loop $-1 $128 $129 $50 #
cone-surface $-1 51.143634827908755 -15.994203211207754 3.5512178527697777 -0.74314483375859142 0 -0.66913059716165679 0.3345652985808284 0 -0.37157241687929571 1 I I -0.70710678118654746 0.70710678118654746 0.5 forward I I I I #
loop $-1 $-1 $130 $33 #
coedge $-1 $81 $81 $131 $132 reversed $51 $-1 #
face $-1 $-1 $133 $27 $-1 $134 forward single #
loop $-1 $135 $136 $53 #
cone-surface $-1 51.143634827908755 -11.754597150405658 3.5512178527697777 -0.74314483375859142 0 -0.66913059716165679 0.3345652985808284 0 -0.37157241687929571 1 I I -0.70710678118654746 0.70710678118654746 0.5 forward I I I I #
loop $-1 $-1 $137 $34 #
coedge $-1 $86 $86 $138 $139 reversed $54 $-1 #
face $-1 $140 $141 $21 $-1 $142 reversed single #
loop $-1 $-1 $143 $56 #
plane-surface $-1 0 -34.911866423828599 0 0 1 0 0 0 1 forward_v I I I I #
coedge $-1 $144 $145 $146 $147 forward $57 $-1 #
coedge $-1 $148 $59 $149 $150 forward $36 $-1 #
coedge $-1 $59 $148 $151 $152 forward $36 $-1 #
coedge $-1 $153 $154 $59 $94 reversed $155 $-1 #
edge $-1 $156 -34.911866423828599 $157 34.911866423828599 $93 $158 forward 7 unknown #
face $-1 $159 $160 $22 $-1 $161 reversed single #
loop $-1 $-1 $162 $60 #
plane-surface $-1 -57.58598590044862 0 0 1 0 0 0 0 -1 forward_v I I I I #
coedge $-1 $163 $164 $165 $166 reversed $61 $-1 #
coedge $-1 $167 $63 $168 $169 reversed $39 $-1 #
coedge $-1 $63 $167 $163 $170 forward $39 $-1 #
coedge $-1 $165 $171 $63 $102 forward $172 $-1 #
edge $-1 $173 -19.854367734581118 $174 -10.260629643913845 $101 $175 forward 7 unknown #
face $-1 $176 $177 $23 $-1 $178 reversed single #
loop $-1 $-1 $179 $64 #
plane-surface $-1 0 0 10.255141011261106 0 0 1 1 0 0 forward_v I I I I #
coedge $-1 $180 $181 $182 $183 reversed $65 $-1 #
coedge $-1 $184 $67 $180 $185 forward $42 $-1 #
coedge $-1 $67 $184 $186 $187 reversed $42 $-1 #
coedge $-1 $188 $189 $67 $110 forward $177 $-1 #
edge $-1 $190 10.260629643913845 $191 19.854367734581118 $109 $192 forward 7 unknown #
face $-1 $193 $194 $24 $-1 $195 forward single #
loop $-1 $-1 $196 $68 #
plane-surface $-1 66.110351470655715 -23.060213312544583 163.36573458516921 0 1 0 0.74314483375859142 0 0.66913059716165679 forward_v I I I I #
coedge $-1 $197 $198 $199 $200 reversed $69 $-1 #
coedge $-1 $116 $71 $201 $202 reversed $45 $-1 #
coedge $-1 $71 $115 $197 $203 reversed $45 $-1 #
coedge $-1 $199 $204 $71 $118 forward $194 $-1 #
edge $-1 $205 -24.530810165120762 $206 -15.937396921373612 $117 $207 forward 7 unknown #
loop $-1 $-1 $124 $72 #
plane-surface $-1 -19.479104366971242 -15.994203211207754 86.300644317749345 0.74314483375859142 0 0.66913059716165679 0.66913059716165679 0 -0.74314483375859142 forward_v I I I I #
loop $-1 $-1 $208 $47 #
coedge $-1 $122 $122 $123 $209 reversed $73 $-1 #
coedge $-1 $123 $123 $122 $209 forward $75 $-1 #
coedge $-1 $124 $124 $76 $125 forward $119 $-1 #
edge $-1 $210 0 $210 6.2831853071796004 $124 $211 forward 7 unknown #
loop $-1 $-1 $131 $77 #
plane-surface $-1 -19.479104366971242 -15.994203211207754 86.300644317749345 0.74314483375859142 0 0.66913059716165679 0.66913059716165679 0 -0.74314483375859142 forward_v I I I I #
loop $-1 $-1 $212 $50 #
coedge $-1 $129 $129 $130 $213 reversed $78 $-1 #
coedge $-1 $130 $130 $129 $213 forward $80 $-1 #
coedge $-1 $131 $131 $81 $132 forward $126 $-1 #
edge $-1 $214 0 $214 6.2831853071796004 $131 $215 forward 7 unknown #
loop $-1 $-1 $138 $82 #
plane-surface $-1 -19.479104366971242 -15.994203211207754 86.300644317749345 0.74314483375859142 0 0.66913059716165679 0.66913059716165679 0 -0.74314483375859142 forward_v I I I I #
loop $-1 $-1 $216 $53 #
coedge $-1 $136 $136 $137 $217 reversed $83 $-1 #
coedge $-1 $137 $137 $136 $217 forward $85 $-1 #
coedge $-1 $138 $138 $86 $139 forward $133 $-1 #
edge $-1 $218 0 $218 6.2831853071796004 $138 $219 forward 7 unknown #
face $-1 $220 $221 $21 $-1 $222 reversed single #
loop $-1 $-1 $223 $87 #
plane-surface $-1 -57.58598590044862 0 0 1 0 0 0 0 -1 forward_v I I I I #
coedge $-1 $224 $151 $225 $226 forward $88 $-1 #
coedge $-1 $227 $90 $224 $228 forward $57 $-1 #
coedge $-1 $90 $227 $229 $230 forward $57 $-1 #
coedge $-1 $154 $153 $90 $147 reversed $155 $-1 #
edge $-1 $231 -34.911866423828599 $232 34.911866423828599 $146 $233 forward 7 unknown #
coedge $-1 $92 $91 $234 $235 forward $36 $-1 #
coedge $-1 $236 $237 $91 $150 reversed $221 $-1 #
edge $-1 $157 -57.58598590044862 $238 57.58598590044862 $149 $239 forward 7 unknown #
coedge $-1 $143 $240 $92 $152 reversed $88 $-1 #
edge $-1 $241 -57.58598590044862 $156 57.58598590044862 $151 $242 forward 7 unknown #
coedge $-1 $146 $93 $240 $243 forward $155 $-1 #
coedge $-1 $93 $146 $236 $244 reversed $155 $-1 #
loop $-1 $-1 $153 $220 #
vertex $-1 $94 $245 #
vertex $-1 $94 $246 #
straight-curve $-1 57.58598590044862 0 10.255141011261106 0 1 0 I I #
face $-1 $247 $248 $22 $-1 $249 forward single #
loop $-1 $-1 $168 $95 #
plane-surface $-1 0 -34.911866423828599 0 0 1 0 0 0 1 forward_v I I I I #
coedge $-1 $250 $251 $252 $253 forward $96 $-1 #
coedge $-1 $252 $98 $100 $170 reversed $61 $-1 #
coedge $-1 $98 $252 $254 $255 reversed $61 $-1 #
coedge $-1 $256 $101 $98 $166 forward $172 $-1 #
edge $-1 $174 2.675829092105765 $257 5.9448176434721489 $165 $258 forward 7 unknown #
coedge $-1 $100 $99 $250 $259 reversed $39 $-1 #
coedge $-1 $260 $261 $99 $169 forward $160 $-1 #
edge $-1 $262 -57.58598590044862 $173 57.58598590044862 $168 $263 forward 7 unknown #
edge $-1 $264 -57.58598590044862 $174 57.58598590044862 $163 $265 forward 7 unknown #
coedge $-1 $101 $256 $260 $266 forward $172 $-1 #
loop $-1 $-1 $165 $247 #
vertex $-1 $169 $267 #
vertex $-1 $102 $268 #
straight-curve $-1 57.58598590044862 -15.057498689247481 6.986152459894722 0 1 0 I I #
face $-1 $269 $270 $23 $-1 $271 reversed single #
loop $-1 $-1 $189 $103 #
plane-surface $-1 57.58598590044862 0 0 -1 0 0 0 0 1 forward_v I I I I #
coedge $-1 $272 $273 $181 $274 forward $104 $-1 #
coedge $-1 $275 $106 $107 $185 reversed $65 $-1 #
coedge $-1 $106 $275 $179 $274 reversed $65 $-1 #
coedge $-1 $276 $277 $106 $183 forward $270 $-1 #
edge $-1 $278 2.675829092105765 $279 5.9448176434721489 $182 $280 forward 7 unknown #
coedge $-1 $108 $107 $277 $281 reversed $42 $-1 #
edge $-1 $190 -57.58598590044862 $278 57.58598590044862 $180 $282 forward 7 unknown #
coedge $-1 $283 $284 $108 $187 forward $285 $-1 #
edge $-1 $191 -57.58598590044862 $286 57.58598590044862 $186 $287 forward 7 unknown #
coedge $-1 $288 $109 $284 $289 reversed $177 $-1 #
coedge $-1 $109 $288 $275 $290 forward $177 $-1 #
vertex $-1 $110 $291 #
vertex $-1 $187 $292 #
straight-curve $-1 57.58598590044862 15.057498689247481 6.986152459894722 0 1 0 I I #
face $-1 $-1 $293 $24 $-1 $294 reversed single #
loop $-1 $-1 $117 $111 #
plane-surface $-1 0 0 10.255141011261106 0 0 1 1 0 0 forward_v I I I I #
coedge $-1 $295 $296 $297 $298 reversed $112 $-1 #
coedge $-1 $299 $114 $116 $203 forward $69 $-1 #
coedge $-1 $114 $299 $295 $300 forward $69 $-1 #
coedge $-1 $297 $117 $114 $200 forward $194 $-1 #
edge $-1 $206 0.93109150426704623 $301 15.063111706940706 $199 $302 forward 7 unknown #
coedge $-1 $303 $304 $115 $202 forward $293 $-1 #
edge $-1 $305 -80.971678812462216 $205 -71.427726281323501 $201 $306 forward 7 unknown #
edge $-1 $206 102.32931704829883 $305 115.17197180089723 $116 $307 forward 7 unknown #
coedge $-1 $117 $297 $303 $308 forward $194 $-1 #
vertex $-1 $202 $309 #
vertex $-1 $118 $310 #
straight-curve $-1 33.055175735327857 -8.9281931098709233 10.255141011261102 -1 0 0 I I #
coedge $-1 $208 $208 $-1 $311 reversed $121 $-1 #
edge $-1 $312 0 $312 6.2831853071796004 $122 $313 forward 7 unknown #
vertex $-1 $125 $314 #
ellipse-curve $-1 53.289279278575044 -20.23380927200985 5.4831647456917523 0.74314483375859142 0 0.66913059716165679 0.66913059716165679 0 -0.74314483375859142 1 I I #
coedge $-1 $212 $212 $-1 $315 reversed $128 $-1 #
edge $-1 $316 0 $316 6.2831853071796004 $129 $317 forward 7 unknown #
vertex $-1 $132 $318 #
ellipse-curve $-1 53.289279278575044 -15.994203211207754 5.4831647456917523 0.74314483375859142 0 0.66913059716165679 0.66913059716165679 0 -0.74314483375859142 1 I I #
coedge $-1 $216 $216 $-1 $319 reversed $135 $-1 #
edge $-1 $320 0 $320 6.2831853071796004 $136 $321 forward 7 unknown #
vertex $-1 $139 $322 #
ellipse-curve $-1 53.289279278575044 -11.754597150405658 5.4831647456917523 0.74314483375859142 0 0.66913059716165679 0.66913059716165679 0 -0.74314483375859142 1 I I #
face $-1 $-1 $155 $21 $-1 $323 reversed single #
loop $-1 $-1 $236 $140 #
plane-surface $-1 0 34.911866423828599 0 0 -1 0 0 0 -1 forward_v I I I I #
coedge $-1 $324 $234 $237 $325 forward $141 $-1 #
coedge $-1 $240 $143 $144 $228 reversed $88 $-1 #
coedge $-1 $234 $324 $143 $226 reversed $141 $-1 #
edge $-1 $241 -10.255141011261106 $326 10.255141011261106 $225 $327 forward 7 unknown #
coedge $-1 $145 $144 $324 $328 forward $57 $-1 #
edge $-1 $232 -57.58598590044862 $326 57.58598590044862 $224 $329 forward 7 unknown #
coedge $-1 $237 $236 $145 $230 reversed $221 $-1 #
edge $-1 $330 -57.58598590044862 $231 57.58598590044862 $229 $331 forward 7 unknown #
vertex $-1 $147 $332 #
vertex $-1 $243 $333 #
straight-curve $-1 57.58598590044862 0 -10.255141011261106 0 -1 0 I I #
coedge $-1 $223 $225 $148 $235 reversed $141 $-1 #
edge $-1 $238 -34.911866423828599 $241 34.911866423828599 $234 $334 forward 7 unknown #
coedge $-1 $229 $149 $154 $244 forward $221 $-1 #
coedge $-1 $149 $229 $223 $325 reversed $221 $-1 #
vertex $-1 $150 $335 #
straight-curve $-1 0 34.911866423828599 10.255141011261106 -1 0 0 I I #
coedge $-1 $151 $224 $153 $243 reversed $88 $-1 #
vertex $-1 $235 $336 #
straight-curve $-1 0 -34.911866423828599 10.255141011261106 1 0 0 I I #
edge $-1 $156 -10.255141011261106 $232 10.255141011261106 $153 $337 forward 7 unknown #
edge $-1 $157 -10.255141011261106 $231 10.255141011261106 $154 $338 forward 7 unknown #
point $-1 57.58598590044862 -34.911866423828599 10.255141011261106 #
point $-1 57.58598590044862 34.911866423828599 10.255141011261106 #
face $-1 $-1 $172 $22 $-1 $339 reversed single #
loop $-1 $-1 $254 $159 #
plane-surface $-1 0 0 10.255141011261106 0 0 1 1 0 0 forward_v I I I I #
coedge $-1 $340 $162 $167 $259 forward $96 $-1 #
coedge $-1 $162 $340 $341 $342 reversed $96 $-1 #
coedge $-1 $164 $163 $162 $253 reversed $61 $-1 #
edge $-1 $343 -5.9448176434721489 $264 -2.675829092105765 $162 $344 forward 7 unknown #
coedge $-1 $341 $345 $164 $255 forward $248 $-1 #
edge $-1 $257 -57.58598590044862 $343 57.58598590044862 $254 $346 forward 7 unknown #
coedge $-1 $171 $165 $345 $347 reversed $172 $-1 #
vertex $-1 $166 $348 #
straight-curve $-1 57.58598590044862 -25.318128333161326 4.310323367788957 0 0 1 I I #
edge $-1 $264 10.260629643913845 $262 19.854367734581118 $250 $349 forward 7 unknown #
coedge $-1 $350 $168 $171 $266 reversed $160 $-1 #
coedge $-1 $168 $350 $340 $351 forward $160 $-1 #
vertex $-1 $169 $352 #
straight-curve $-1 0 -34.911866423828599 6.986152459894722 1 0 0 I I #
vertex $-1 $259 $353 #
straight-curve $-1 0 -25.318128333161326 6.986152459894722 1 0 0 I I #
edge $-1 $354 -10.255141011261106 $173 -6.986152459894722 $171 $355 forward 7 unknown #
point $-1 57.58598590044862 -34.911866423828599 6.986152459894722 #
point $-1 57.58598590044862 -25.318128333161326 6.986152459894722 #
face $-1 $-1 $285 $23 $-1 $356 reversed single #
loop $-1 $-1 $182 $176 #
plane-surface $-1 -57.58598590044862 0 0 1 0 0 0 0 -1 forward_v I I I I #
coedge $-1 $357 $179 $288 $358 forward $104 $-1 #
coedge $-1 $179 $357 $276 $359 forward $104 $-1 #
edge $-1 $279 -57.58598590044862 $360 57.58598590044862 $179 $361 forward 7 unknown #
coedge $-1 $181 $180 $189 $290 reversed $65 $-1 #
coedge $-1 $362 $182 $273 $359 reversed $270 $-1 #
coedge $-1 $182 $362 $184 $281 forward $270 $-1 #
vertex $-1 $281 $363 #
vertex $-1 $183 $364 #
straight-curve $-1 -57.58598590044862 25.318128333161326 4.310323367788957 0 0 1 I I #
edge $-1 $286 -19.854367734581118 $278 -10.260629643913845 $277 $365 forward 7 unknown #
straight-curve $-1 0 25.318128333161326 6.986152459894722 -1 0 0 I I #
coedge $-1 $366 $186 $362 $367 reversed $285 $-1 #
coedge $-1 $186 $366 $188 $289 forward $285 $-1 #
loop $-1 $-1 $186 $269 #
vertex $-1 $187 $368 #
straight-curve $-1 0 34.911866423828599 6.986152459894722 -1 0 0 I I #
coedge $-1 $189 $188 $272 $358 reversed $177 $-1 #
edge $-1 $369 -10.255141011261106 $191 -6.986152459894722 $188 $370 forward 7 unknown #
edge $-1 $360 -5.9448176434721489 $190 -2.675829092105765 $189 $371 forward 7 unknown #
point $-1 57.58598590044862 25.318128333161326 6.986152459894722 #
point $-1 57.58598590044862 34.911866423828599 6.986152459894722 #
loop $-1 $-1 $201 $193 #
plane-surface $-1 57.58598590044862 0 0 -1 0 0 0 0 1 forward_v I I I I #
coedge $-1 $296 $196 $198 $300 reversed $112 $-1 #
coedge $-1 $196 $295 $372 $373 reversed $112 $-1 #
coedge $-1 $204 $199 $196 $298 forward $194 $-1 #
edge $-1 $301 15.937396921373612 $374 24.530810165120762 $297 $375 forward 7 unknown #
coedge $-1 $198 $197 $304 $376 reversed $69 $-1 #
edge $-1 $377 -115.17197180089723 $301 -102.32931704829883 $295 $378 forward 7 unknown #
vertex $-1 $200 $379 #
straight-curve $-1 48.992572656701462 -7.9971016056038771 10.255141011261117 0 -1 0 I I #
coedge $-1 $372 $201 $204 $308 reversed $293 $-1 #
coedge $-1 $201 $372 $299 $376 forward $293 $-1 #
vertex $-1 $202 $380 #
straight-curve $-1 57.58598590044862 -8.9281931098709233 81.682867292584604 0 0 1 I I #
straight-curve $-1 -19.479104366971242 -8.9281931098709233 86.300644317749345 0.66913059716165679 0 -0.74314483375859142 I I #
edge $-1 $374 -23.060213312544583 $205 -8.9281931098709233 $303 $381 forward 7 unknown #
point $-1 57.58598590044862 -8.9281931098709233 10.255141011261106 #
point $-1 48.992572656701469 -8.9281931098709233 10.255141011261102 #
edge $-1 $382 1 $382 0 $208 $-1 forward 7 unknown #
vertex $-1 $209 $383 #
ellipse-curve $-1 51.515207244788051 -20.23380927200985 3.8857831513506063 0.74314483375859142 0 0.66913059716165679 0.66913059716165679 0 -0.74314483375859142 1 I I #
point $-1 53.958409875736699 -20.23380927200985 4.7400199119331585 #
edge $-1 $384 1 $384 0 $212 $-1 forward 7 unknown #
vertex $-1 $213 $385 #
ellipse-curve $-1 51.515207244788051 -15.994203211207754 3.8857831513506063 0.74314483375859142 0 0.66913059716165679 0.66913059716165679 0 -0.74314483375859142 1 I I #
point $-1 53.958409875736699 -15.994203211207754 4.7400199119331585 #
edge $-1 $386 1 $386 0 $216 $-1 forward 7 unknown #
vertex $-1 $217 $387 #
ellipse-curve $-1 51.515207244788051 -11.754597150405658 3.8857831513506063 0.74314483375859142 0 0.66913059716165679 0.66913059716165679 0 -0.74314483375859142 1 I I #
point $-1 53.958409875736699 -11.754597150405658 4.7400199119331585 #
plane-surface $-1 57.58598590044862 0 0 -1 0 0 0 0 1 forward_v I I I I #
coedge $-1 $225 $223 $227 $328 reversed $141 $-1 #
edge $-1 $238 -10.255141011261106 $330 10.255141011261106 $237 $388 forward 7 unknown #
vertex $-1 $328 $389 #
straight-curve $-1 -57.58598590044862 -34.911866423828599 0 0 0 -1 I I #
edge $-1 $326 -34.911866423828599 $330 34.911866423828599 $324 $390 forward 7 unknown #
straight-curve $-1 0 -34.911866423828599 -10.255141011261106 -1 0 0 I I #
vertex $-1 $230 $391 #
straight-curve $-1 0 34.911866423828599 -10.255141011261106 1 0 0 I I #
point $-1 57.58598590044862 34.911866423828599 -10.255141011261106 #
point $-1 57.58598590044862 -34.911866423828599 -10.255141011261106 #
straight-curve $-1 -57.58598590044862 0 10.255141011261106 0 -1 0 I I #
point $-1 -57.58598590044862 34.911866423828599 10.255141011261106 #
point $-1 -57.58598590044862 -34.911866423828599 10.255141011261106 #
straight-curve $-1 57.58598590044862 -34.911866423828599 0 0 0 -1 I I #
straight-curve $-1 57.58598590044862 34.911866423828599 0 0 0 -1 I I #
plane-surface $-1 57.58598590044862 0 0 -1 0 0 0 0 1 forward_v I I I I #
coedge $-1 $251 $250 $261 $351 reversed $96 $-1 #
coedge $-1 $392 $254 $251 $342 forward $248 $-1 #
edge $-1 $343 25.318128333161326 $393 34.911866423828599 $251 $394 forward 7 unknown #
vertex $-1 $342 $395 #
straight-curve $-1 -57.58598590044862 -25.318128333161326 4.310323367788957 0 0 -1 I I #
coedge $-1 $254 $392 $256 $347 forward $248 $-1 #
straight-curve $-1 0 -25.318128333161326 10.255141011261106 -1 0 0 I I #
edge $-1 $354 -34.911866423828599 $257 -25.318128333161326 $256 $396 forward 7 unknown #
point $-1 57.58598590044862 -25.318128333161326 10.255141011261106 #
straight-curve $-1 -57.58598590044862 -15.057498689247481 6.986152459894722 0 -1 0 I I #
coedge $-1 $261 $260 $392 $397 reversed $160 $-1 #
edge $-1 $393 -10.255141011261106 $262 -6.986152459894722 $340 $398 forward 7 unknown #
point $-1 -57.58598590044862 -34.911866423828599 6.986152459894722 #
point $-1 -57.58598590044862 -25.318128333161326 6.986152459894722 #
vertex $-1 $347 $399 #
straight-curve $-1 57.58598590044862 -34.911866423828599 0 0 0 -1 I I #
plane-surface $-1 0 34.911866423828599 0 0 -1 0 0 0 -1 forward_v I I I I #
coedge $-1 $273 $272 $366 $400 forward $104 $-1 #
edge $-1 $360 25.318128333161326 $369 34.911866423828599 $288 $401 forward 7 unknown #
edge $-1 $402 -34.911866423828599 $279 -25.318128333161326 $276 $403 forward 7 unknown #
vertex $-1 $358 $404 #
straight-curve $-1 0 25.318128333161326 10.255141011261106 1 0 0 I I #
coedge $-1 $277 $276 $283 $367 forward $270 $-1 #
point $-1 -57.58598590044862 25.318128333161326 6.986152459894722 #
point $-1 -57.58598590044862 25.318128333161326 10.255141011261106 #
straight-curve $-1 -57.58598590044862 15.057498689247481 6.986152459894722 0 -1 0 I I #
coedge $-1 $284 $283 $357 $400 reversed $285 $-1 #
edge $-1 $402 -10.255141011261106 $286 -6.986152459894722 $283 $405 forward 7 unknown #
point $-1 -57.58598590044862 34.911866423828599 6.986152459894722 #
vertex $-1 $358 $406 #
straight-curve $-1 57.58598590044862 34.911866423828599 0 0 0 -1 I I #
straight-curve $-1 57.58598590044862 25.318128333161326 4.310323367788957 0 0 -1 I I #
coedge $-1 $304 $303 $296 $373 forward $293 $-1 #
edge $-1 $374 71.427726281323501 $377 80.971678812462216 $372 $407 forward 7 unknown #
vertex $-1 $308 $408 #
straight-curve $-1 33.055175735327857 -23.060213312544583 10.255141011261102 1 0 0 I I #
edge $-1 $377 -15.063111706940706 $305 -0.93109150426704623 $304 $409 forward 7 unknown #
vertex $-1 $376 $410 #
straight-curve $-1 -19.479104366971242 -23.060213312544583 86.300644317749345 -0.66913059716165679 0 0.74314483375859142 I I #
point $-1 48.992572656701469 -23.060213312544583 10.255141011261102 #
point $-1 57.58598590044862 -8.9281931098709233 0.711188480122388 #
straight-curve $-1 57.58598590044862 0 10.255141011261106 0 1 0 I I #
vertex $-1 $311 $411 #
point $-1 52.184337841949706 -20.23380927200985 3.1426383175920147 #
vertex $-1 $315 $412 #
point $-1 52.184337841949706 -15.994203211207754 3.1426383175920147 #
vertex $-1 $319 $413 #
point $-1 52.184337841949706 -11.754597150405658 3.1426383175920147 #
straight-curve $-1 -57.58598590044862 34.911866423828599 0 0 0 -1 I I #
point $-1 -57.58598590044862 -34.911866423828599 -10.255141011261106 #
straight-curve $-1 -57.58598590044862 0 -10.255141011261106 0 1 0 I I #
point $-1 -57.58598590044862 34.911866423828599 -10.255141011261106 #
coedge $-1 $345 $341 $350 $397 forward $248 $-1 #
vertex $-1 $342 $414 #
straight-curve $-1 -57.58598590044862 0 10.255141011261106 0 -1 0 I I #
point $-1 -57.58598590044862 -25.318128333161326 10.255141011261106 #
straight-curve $-1 57.58598590044862 0 10.255141011261106 0 1 0 I I #
edge $-1 $393 -57.58598590044862 $354 57.58598590044862 $350 $415 forward 7 unknown #
straight-curve $-1 -57.58598590044862 -34.911866423828599 0 0 0 -1 I I #
point $-1 57.58598590044862 -34.911866423828599 10.255141011261106 #
edge $-1 $369 -57.58598590044862 $402 57.58598590044862 $366 $416 forward 7 unknown #
straight-curve $-1 57.58598590044862 0 10.255141011261106 0 1 0 I I #
vertex $-1 $400 $417 #
straight-curve $-1 -57.58598590044862 0 10.255141011261106 0 -1 0 I I #
point $-1 57.58598590044862 25.318128333161326 10.255141011261106 #
straight-curve $-1 -57.58598590044862 34.911866423828599 0 0 0 -1 I I #
point $-1 57.58598590044862 34.911866423828599 10.255141011261106 #
straight-curve $-1 57.58598590044862 -23.060213312544583 81.682867292584604 0 0 -1 I I #
point $-1 57.58598590044862 -23.060213312544583 10.255141011261106 #
straight-curve $-1 57.58598590044862 -7.9971016056038771 0.71118848012239511 0 1 0 I I #
point $-1 57.58598590044862 -23.060213312544583 0.711188480122388 #
point $-1 50.772062411029459 -20.23380927200985 3.2166525541889492 #
point $-1 50.772062411029459 -15.994203211207754 3.2166525541889492 #
point $-1 50.772062411029459 -11.754597150405658 3.2166525541889492 #
point $-1 -57.58598590044862 -34.911866423828599 10.255141011261106 #
straight-curve $-1 0 -34.911866423828599 10.255141011261106 1 0 0 I I #
straight-curve $-1 0 34.911866423828599 10.255141011261106 -1 0 0 I I #
point $-1 -57.58598590044862 34.911866423828599 10.255141011261106 #
End-of-ACIS-data 