500 0 11 0           
7 Unknown 11 ACIS 5.0 NT 24 Thu Mar 25 22:23:29 1999 
-1 9.9999999999999995e-007 1e-010 
body $-1 $11 $-1 $12 #
body $-1 $13 $-1 $14 #
body $-1 $15 $-1 $16 #
body $-1 $17 $-1 $18 #
body $-1 $19 $-1 $20 #
body $-1 $21 $-1 $22 #
body $-1 $23 $-1 $24 #
body $-1 $25 $-1 $26 #
body $-1 $27 $-1 $28 #
body $-1 $29 $-1 $30 #
body $-1 $31 $-1 $32 #
lump $-1 $-1 $33 $0 #
transform $-1 1 0 0 0 1 0 0 0 1 54.987029633472702 24.181237248129264 7.3835906526378041 1 rotate no_reflect no_shear #
lump $-1 $-1 $34 $1 #
transform $-1 1 0 0 0 1 0 0 0 1 54.987029633472702 24.181237248129264 7.3835906526378041 1 rotate no_reflect no_shear #
lump $-1 $-1 $35 $2 #
transform $-1 1 0 0 0 1 0 0 0 1 54.987029633472702 24.181237248129264 7.3835906526378041 1 rotate no_reflect no_shear #
lump $-1 $-1 $36 $3 #
transform $-1 1 0 0 0 1 0 0 0 1 54.987029633472702 24.181237248129264 7.3835906526378041 1 rotate no_reflect no_shear #
lump $-1 $-1 $37 $4 #
transform $-1 1 0 0 0 1 0 0 0 1 54.987029633472702 24.181237248129264 7.3835906526378041 1 rotate no_reflect no_shear #
lump $-1 $-1 $38 $5 #
transform $-1 1 0 0 0 1 0 0 0 1 54.987029633472702 24.181237248129264 7.3835906526378041 1 rotate no_reflect no_shear #
lump $-1 $-1 $39 $6 #
transform $-1 1 0 0 0 1 0 0 0 1 54.987029633472702 24.181237248129264 7.3835906526378041 1 rotate no_reflect no_shear #
lump $-1 $-1 $40 $7 #
transform $-1 1 0 0 0 1 0 0 0 1 54.987029633472702 24.181237248129264 7.3835906526378041 1 rotate no_reflect no_shear #
lump $-1 $-1 $41 $8 #
transform $-1 1 0 0 0 1 0 0 0 1 54.987029633472702 24.181237248129264 7.3835906526378041 1 rotate no_reflect no_shear #
lump $-1 $-1 $42 $9 #
transform $-1 1 0 0 0 1 0 0 0 1 54.987029633472702 24.181237248129264 7.3835906526378041 1 rotate no_reflect no_shear #
lump $-1 $-1 $43 $10 #
transform $-1 1 0 0 0 1 0 0 0 1 54.987029633472702 24.181237248129264 7.3835906526378041 1 rotate no_reflect no_shear #
shell $-1 $-1 $-1 $44 $-1 $11 #
shell $-1 $-1 $-1 $45 $-1 $13 #
shell $-1 $-1 $-1 $46 $-1 $15 #
shell $-1 $-1 $-1 $47 $-1 $17 #
shell $-1 $-1 $-1 $48 $-1 $19 #
shell $-1 $-1 $-1 $49 $-1 $21 #
shell $-1 $-1 $-1 $50 $-1 $23 #
shell $-1 $-1 $-1 $51 $-1 $25 #
shell $-1 $-1 $-1 $52 $-1 $27 #
shell $-1 $-1 $-1 $53 $-1 $29 #
shell $-1 $-1 $-1 $54 $-1 $31 #
face $-1 $55 $56 $33 $-1 $57 forward single #
face $-1 $58 $59 $34 $-1 $60 forward single #
face $-1 $61 $62 $35 $-1 $63 forward single #
face $-1 $64 $65 $36 $-1 $66 reversed single #
face $-1 $67 $68 $37 $-1 $69 forward single #
face $-1 $70 $71 $38 $-1 $72 forward single #
face $-1 $73 $74 $39 $-1 $75 forward single #
face $-1 $76 $77 $40 $-1 $78 reversed single #
face $-1 $79 $80 $41 $-1 $81 forward single #
face $-1 $82 $83 $42 $-1 $84 forward single #
face $-1 $85 $86 $43 $-1 $87 forward single #
face $-1 $88 $89 $33 $-1 $90 reversed single #
loop $-1 $-1 $91 $44 #
plane-surface $-1 0 0 7.3835906526378041 0 0 1 1 0 0 forward_v I I I I #
face $-1 $92 $93 $34 $-1 $94 reversed single #
loop $-1 $-1 $95 $45 #
plane-surface $-1 -54.987029633472702 0 0 1 0 0 0 0 -1 forward_v I I I I #
face $-1 $96 $97 $35 $-1 $98 reversed single #
loop $-1 $-1 $99 $46 #
plane-surface $-1 54.987029633472702 0 0 -1 0 0 0 0 1 forward_v I I I I #
face $-1 $100 $101 $36 $-1 $102 reversed single #
loop $-1 $-1 $103 $47 #
plane-surface $-1 0.38131734548897889 -94.871200800705722 86.48570841457169 -1 0 0 0 -0.64278761758704617 0.76604443648966558 forward_v I I I I #
face $-1 $104 $105 $37 $-1 $106 forward single #
loop $-1 $107 $108 $48 #
cone-surface $-1 -18.653530357654319 -20.253259793869599 3.7831293678031246 0 0.64278761758704617 -0.76604443648966558 1.5 0 0 1 I I 0 1 1.5 forward I I I I #
face $-1 $109 $110 $38 $-1 $111 forward single #
loop $-1 $112 $113 $49 #
cone-surface $-1 -11.515462468975578 -20.253259793869599 3.7831293678031246 0 0.64278761758704617 -0.76604443648966558 1.5 0 0 1 I I 0 1 1.5 forward I I I I #
face $-1 $114 $115 $39 $-1 $116 forward single #
loop $-1 $117 $118 $50 #
cone-surface $-1 -4.377394580296837 -20.253259793869599 3.7831293678031246 0 0.64278761758704617 -0.76604443648966558 1.5 0 0 1 I I 0 1 1.5 forward I I I I #
face $-1 $119 $120 $40 $-1 $121 reversed single #
loop $-1 $-1 $122 $51 #
plane-surface $-1 -23.41224228344015 57.823396277973529 117.57250817663599 1 0 0 0 -0.64278761758704617 -0.76604443648966558 forward_v I I I I #
face $-1 $123 $124 $41 $-1 $125 forward single #
loop $-1 $126 $127 $52 #
cone-surface $-1 -18.653530357654319 20.253259793869599 3.7831293678031246 0 -0.64278761758704617 -0.76604443648966558 1.5 0 0 1 I I 0 1 1.5 forward I I I I #
face $-1 $128 $129 $42 $-1 $130 forward single #
loop $-1 $131 $132 $53 #
cone-surface $-1 -11.515462468975578 20.253259793869599 3.7831293678031246 0 -0.64278761758704617 -0.76604443648966558 1.5 0 0 1 I I 0 1 1.5 forward I I I I #
face $-1 $133 $134 $43 $-1 $135 forward single #
loop $-1 $136 $137 $54 #
cone-surface $-1 -4.377394580296837 20.253259793869599 3.7831293678031246 0 -0.64278761758704617 -0.76604443648966558 1.5 0 0 1 I I 0 1 1.5 forward I I I I #
face $-1 $138 $139 $33 $-1 $140 reversed single #
loop $-1 $-1 $141 $55 #
plane-surface $-1 0 0 -7.3835906526378041 0 0 1 1 0 0 forward_v I I I I #
coedge $-1 $142 $143 $144 $145 forward $56 $-1 #
face $-1 $146 $147 $34 $-1 $148 forward single #
loop $-1 $-1 $149 $58 #
plane-surface $-1 0 24.181237248129264 0 0 -1 0 0 0 -1 forward_v I I I I #
coedge $-1 $150 $151 $152 $153 forward $59 $-1 #
face $-1 $154 $155 $35 $-1 $156 forward single #
loop $-1 $-1 $157 $61 #
plane-surface $-1 0 -24.181237248129264 0 0 1 0 0 0 1 forward_v I I I I #
coedge $-1 $158 $159 $160 $161 forward $62 $-1 #
face $-1 $162 $163 $36 $-1 $164 reversed single #
loop $-1 $-1 $165 $64 #
plane-surface $-1 -11.515462468975585 -24.181237248129264 2.2406921549434173 0 -0.64278761758704617 0.76604443648966558 1 0 0 forward_v I I I I #
coedge $-1 $166 $167 $168 $169 reversed $65 $-1 #
face $-1 $-1 $170 $37 $-1 $171 forward single #
loop $-1 $172 $173 $67 #
cone-surface $-1 -18.653530357654319 -18.907725442720448 2.1795840044483965 0 0.64278761758704617 -0.76604443648966558 0.75 0 0 1 I I -0.70710678118654757 0.70710678118654757 0.75 forward I I I I #
loop $-1 $-1 $174 $48 #
coedge $-1 $108 $108 $175 $176 reversed $68 $-1 #
face $-1 $-1 $177 $38 $-1 $178 forward single #
loop $-1 $179 $180 $70 #
cone-surface $-1 -11.515462468975578 -18.907725442720448 2.1795840044483965 0 0.64278761758704617 -0.76604443648966558 0.75 0 0 1 I I -0.70710678118654757 0.70710678118654757 0.75 forward I I I I #
loop $-1 $-1 $181 $49 #
coedge $-1 $113 $113 $182 $183 reversed $71 $-1 #
face $-1 $-1 $184 $39 $-1 $185 forward single #
loop $-1 $186 $187 $73 #
cone-surface $-1 -4.377394580296837 -18.907725442720448 2.1795840044483965 0 0.64278761758704617 -0.76604443648966558 0.75 0 0 1 I I -0.70710678118654757 0.70710678118654757 0.75 forward I I I I #
loop $-1 $-1 $188 $50 #
coedge $-1 $118 $118 $189 $190 reversed $74 $-1 #
face $-1 $191 $192 $40 $-1 $193 reversed single #
loop $-1 $-1 $194 $76 #
plane-surface $-1 -11.515462468975585 -12.866567274602929 33.32749191700772 0 0.64278761758704617 0.76604443648966558 1 0 0 forward_v I I I I #
coedge $-1 $195 $196 $197 $198 reversed $77 $-1 #
face $-1 $-1 $199 $41 $-1 $200 forward single #
loop $-1 $201 $202 $79 #
cone-surface $-1 -18.653530357654319 18.907725442720448 2.1795840044483965 0 -0.64278761758704617 -0.76604443648966558 0.75 0 0 1 I I -0.70710678118654757 0.70710678118654757 0.75 forward I I I I #
loop $-1 $-1 $203 $52 #
coedge $-1 $127 $127 $204 $205 reversed $80 $-1 #
face $-1 $-1 $206 $42 $-1 $207 forward single #
loop $-1 $208 $209 $82 #
cone-surface $-1 -11.515462468975578 18.907725442720448 2.1795840044483965 0 -0.64278761758704617 -0.76604443648966558 0.75 0 0 1 I I -0.70710678118654757 0.70710678118654757 0.75 forward I I I I #
loop $-1 $-1 $210 $53 #
coedge $-1 $132 $132 $211 $212 reversed $83 $-1 #
face $-1 $-1 $213 $43 $-1 $214 forward single #
loop $-1 $215 $216 $85 #
cone-surface $-1 -4.377394580296837 18.907725442720448 2.1795840044483965 0 -0.64278761758704617 -0.76604443648966558 0.75 0 0 1 I I -0.70710678118654757 0.70710678118654757 0.75 forward I I I I #
loop $-1 $-1 $217 $54 #
coedge $-1 $137 $137 $218 $219 reversed $86 $-1 #
face $-1 $220 $221 $33 $-1 $222 reversed single #
loop $-1 $-1 $223 $88 #
plane-surface $-1 0 -24.181237248129264 0 0 1 0 0 0 1 forward_v I I I I #
coedge $-1 $224 $225 $226 $227 forward $89 $-1 #
coedge $-1 $228 $91 $229 $230 forward $56 $-1 #
coedge $-1 $91 $228 $231 $232 forward $56 $-1 #
coedge $-1 $233 $234 $91 $145 reversed $235 $-1 #
edge $-1 $236 -24.181237248129264 $237 24.181237248129264 $144 $238 forward 7 unknown #
face $-1 $239 $240 $34 $-1 $241 reversed single #
loop $-1 $-1 $152 $92 #
plane-surface $-1 -59.353132215521029 0 1.4147097518844278 0 0 1 1 0 0 forward_v I I I I #
coedge $-1 $242 $243 $151 $244 forward $93 $-1 #
coedge $-1 $245 $95 $246 $247 reversed $59 $-1 #
coedge $-1 $95 $245 $149 $244 reversed $59 $-1 #
coedge $-1 $248 $249 $95 $153 reversed $147 $-1 #
edge $-1 $250 -24.181237248129264 $251 24.181237248129264 $152 $252 forward 7 unknown #
face $-1 $253 $254 $35 $-1 $255 reversed single #
loop $-1 $-1 $256 $96 #
plane-surface $-1 59.353132215521029 0 1.4147097518844278 0 0 1 1 0 0 forward_v I I I I #
coedge $-1 $257 $258 $159 $259 forward $97 $-1 #
coedge $-1 $260 $99 $261 $262 reversed $62 $-1 #
coedge $-1 $99 $260 $157 $259 reversed $62 $-1 #
coedge $-1 $263 $264 $99 $161 reversed $155 $-1 #
edge $-1 $265 -24.181237248129264 $266 24.181237248129264 $160 $267 forward 7 unknown #
face $-1 $268 $269 $36 $-1 $270 forward single #
loop $-1 $-1 $271 $100 #
plane-surface $-1 -23.41224228344015 -94.871200800705722 86.48570841457169 1 0 0 0 0.64278761758704617 -0.76604443648966558 forward_v I I I I #
coedge $-1 $272 $273 $274 $275 reversed $101 $-1 #
coedge $-1 $167 $103 $276 $277 reversed $65 $-1 #
coedge $-1 $103 $166 $272 $278 reversed $65 $-1 #
coedge $-1 $274 $279 $103 $169 forward $269 $-1 #
edge $-1 $280 23.254363152223597 $281 29.383430784825173 $168 $282 forward 7 unknown #
loop $-1 $-1 $175 $104 #
plane-surface $-1 -11.515462468975585 -24.181237248129264 2.2406921549434173 0 -0.64278761758704617 0.76604443648966558 1 0 0 forward_v I I I I #
loop $-1 $-1 $283 $67 #
coedge $-1 $173 $173 $174 $284 reversed $105 $-1 #
coedge $-1 $174 $174 $173 $284 forward $107 $-1 #
coedge $-1 $175 $175 $108 $176 forward $170 $-1 #
edge $-1 $285 -1.2304961166962078e-015 $285 6.2831853071795996 $175 $286 forward 7 unknown #
loop $-1 $-1 $182 $109 #
plane-surface $-1 -11.515462468975585 -24.181237248129264 2.2406921549434173 0 -0.64278761758704617 0.76604443648966558 1 0 0 forward_v I I I I #
loop $-1 $-1 $287 $70 #
coedge $-1 $180 $180 $181 $288 reversed $110 $-1 #
coedge $-1 $181 $181 $180 $288 forward $112 $-1 #
coedge $-1 $182 $182 $113 $183 forward $177 $-1 #
edge $-1 $289 -1.2304961166962078e-015 $289 6.2831853071795996 $182 $290 forward 7 unknown #
loop $-1 $-1 $189 $114 #
plane-surface $-1 -11.515462468975585 -24.181237248129264 2.2406921549434173 0 -0.64278761758704617 0.76604443648966558 1 0 0 forward_v I I I I #
loop $-1 $-1 $291 $73 #
coedge $-1 $187 $187 $188 $292 reversed $115 $-1 #
coedge $-1 $188 $188 $187 $292 forward $117 $-1 #
coedge $-1 $189 $189 $118 $190 forward $184 $-1 #
edge $-1 $293 -1.2304961166962078e-015 $293 6.2831853071795996 $189 $294 forward 7 unknown #
face $-1 $295 $296 $40 $-1 $297 reversed single #
loop $-1 $-1 $298 $119 #
plane-surface $-1 0.38131734548897889 57.823396277973529 117.57250817663599 -1 0 0 0 0.64278761758704617 0.76604443648966558 forward_v I I I I #
coedge $-1 $299 $300 $301 $302 reversed $120 $-1 #
coedge $-1 $196 $122 $303 $304 reversed $77 $-1 #
coedge $-1 $122 $195 $299 $305 reversed $77 $-1 #
coedge $-1 $301 $306 $122 $198 forward $307 $-1 #
edge $-1 $308 4.7304608908575005 $309 10.859528523459076 $197 $310 forward 7 unknown #
loop $-1 $-1 $204 $123 #
plane-surface $-1 -11.515462468975585 -12.866567274602929 33.32749191700772 0 0.64278761758704617 0.76604443648966558 1 0 0 forward_v I I I I #
loop $-1 $-1 $311 $79 #
coedge $-1 $202 $202 $203 $312 reversed $124 $-1 #
coedge $-1 $203 $203 $202 $312 forward $126 $-1 #
coedge $-1 $204 $204 $127 $205 forward $199 $-1 #
edge $-1 $313 4.6928266284118009e-016 $313 6.2831853071796013 $204 $314 forward 7 unknown #
loop $-1 $-1 $211 $128 #
plane-surface $-1 -11.515462468975585 -12.866567274602929 33.32749191700772 0 0.64278761758704617 0.76604443648966558 1 0 0 forward_v I I I I #
loop $-1 $-1 $315 $82 #
coedge $-1 $209 $209 $210 $316 reversed $129 $-1 #
coedge $-1 $210 $210 $209 $316 forward $131 $-1 #
coedge $-1 $211 $211 $132 $212 forward $206 $-1 #
edge $-1 $317 4.6928266284118009e-016 $317 6.2831853071796013 $211 $318 forward 7 unknown #
loop $-1 $-1 $218 $133 #
plane-surface $-1 -11.515462468975585 -12.866567274602929 33.32749191700772 0 0.64278761758704617 0.76604443648966558 1 0 0 forward_v I I I I #
loop $-1 $-1 $319 $85 #
coedge $-1 $216 $216 $217 $320 reversed $134 $-1 #
coedge $-1 $217 $217 $216 $320 forward $136 $-1 #
coedge $-1 $218 $218 $137 $219 forward $213 $-1 #
edge $-1 $321 4.6928266284118009e-016 $321 6.2831853071796013 $218 $322 forward 7 unknown #
face $-1 $323 $324 $33 $-1 $325 reversed single #
loop $-1 $-1 $326 $138 #
plane-surface $-1 -54.987029633472702 0 0 1 0 0 0 0 -1 forward_v I I I I #
coedge $-1 $327 $231 $328 $329 forward $139 $-1 #
coedge $-1 $330 $141 $327 $331 forward $89 $-1 #
coedge $-1 $141 $330 $332 $333 forward $89 $-1 #
coedge $-1 $234 $233 $141 $227 reversed $235 $-1 #
edge $-1 $334 -24.181237248129264 $335 24.181237248129264 $226 $336 forward 7 unknown #
coedge $-1 $143 $142 $337 $338 forward $56 $-1 #
coedge $-1 $339 $340 $142 $230 reversed $324 $-1 #
edge $-1 $237 -54.987029633472702 $341 54.987029633472702 $229 $342 forward 7 unknown #
coedge $-1 $223 $343 $143 $232 reversed $139 $-1 #
edge $-1 $344 -54.987029633472702 $236 54.987029633472702 $231 $345 forward 7 unknown #
coedge $-1 $226 $144 $343 $346 forward $235 $-1 #
coedge $-1 $144 $226 $339 $347 reversed $235 $-1 #
loop $-1 $-1 $233 $323 #
vertex $-1 $145 $348 #
vertex $-1 $145 $349 #
straight-curve $-1 54.987029633472702 0 7.3835906526378041 0 1 0 I I #
face $-1 $350 $351 $34 $-1 $352 reversed single #
loop $-1 $-1 $353 $146 #
plane-surface $-1 -59.353132215521029 0 -1.5852902481155722 0 0 1 1 0 0 forward_v I I I I #
coedge $-1 $354 $149 $355 $356 reversed $93 $-1 #
coedge $-1 $149 $354 $248 $357 reversed $93 $-1 #
edge $-1 $250 -1.4147097518844278 $358 1.5852902481155722 $149 $359 forward 7 unknown #
coedge $-1 $151 $150 $353 $360 forward $59 $-1 #
coedge $-1 $361 $362 $150 $247 forward $363 $-1 #
edge $-1 $364 -1.5852902481155722 $251 1.4147097518844278 $246 $365 forward 7 unknown #
coedge $-1 $366 $152 $243 $357 forward $147 $-1 #
coedge $-1 $152 $366 $361 $367 forward $147 $-1 #
vertex $-1 $244 $368 #
vertex $-1 $367 $369 #
straight-curve $-1 -54.987029633472702 0 1.4147097518844278 0 -1 0 I I #
face $-1 $370 $371 $35 $-1 $372 reversed single #
loop $-1 $-1 $373 $154 #
plane-surface $-1 59.353132215521029 0 -1.5852902481155722 0 0 1 1 0 0 forward_v I I I I #
coedge $-1 $264 $263 $374 $375 forward $155 $-1 #
coedge $-1 $376 $157 $377 $378 reversed $97 $-1 #
coedge $-1 $157 $376 $263 $379 reversed $97 $-1 #
edge $-1 $265 -1.4147097518844278 $380 1.5852902481155722 $157 $381 forward 7 unknown #
coedge $-1 $159 $158 $382 $383 forward $62 $-1 #
coedge $-1 $384 $385 $158 $262 forward $386 $-1 #
edge $-1 $387 -1.5852902481155722 $266 1.4147097518844278 $261 $388 forward 7 unknown #
coedge $-1 $256 $160 $258 $379 forward $155 $-1 #
coedge $-1 $160 $256 $384 $389 forward $155 $-1 #
vertex $-1 $259 $390 #
vertex $-1 $389 $391 #
straight-curve $-1 54.987029633472702 0 1.4147097518844278 0 1 0 I I #
face $-1 $-1 $392 $36 $-1 $393 reversed single #
loop $-1 $-1 $168 $162 #
plane-surface $-1 0 0 7.3835906526378041 0 0 1 1 0 0 forward_v I I I I #
coedge $-1 $394 $395 $396 $397 reversed $163 $-1 #
coedge $-1 $398 $165 $167 $278 forward $101 $-1 #
coedge $-1 $165 $398 $394 $399 forward $101 $-1 #
coedge $-1 $396 $168 $165 $275 forward $269 $-1 #
edge $-1 $281 -6.1390485799767713 $400 17.654511048952358 $274 $401 forward 7 unknown #
coedge $-1 $402 $403 $166 $277 forward $392 $-1 #
edge $-1 $404 -41.002162052342428 $280 -35.859263554648038 $276 $405 forward 7 unknown #
edge $-1 $281 -8.0009296336482976 $404 0 $167 $406 forward 7 unknown #
coedge $-1 $168 $396 $402 $407 forward $269 $-1 #
vertex $-1 $277 $408 #
vertex $-1 $169 $409 #
straight-curve $-1 0.38131734548897889 -47.435600400352861 7.3835906526378068 0 1 0 I I #
coedge $-1 $283 $283 $-1 $410 reversed $172 $-1 #
edge $-1 $411 0 $411 6.2831853071796004 $173 $412 forward 7 unknown #
vertex $-1 $176 $413 #
ellipse-curve $-1 -18.653530357654319 -21.116703431828473 4.8121414037906121 0 -0.64278761758704617 0.76604443648966558 1.5 0 0 1 I I #
coedge $-1 $287 $287 $-1 $414 reversed $179 $-1 #
edge $-1 $415 0 $415 6.2831853071796004 $180 $416 forward 7 unknown #
vertex $-1 $183 $417 #
ellipse-curve $-1 -11.515462468975578 -21.116703431828473 4.8121414037906121 0 -0.64278761758704617 0.76604443648966558 1.5 0 0 1 I I #
coedge $-1 $291 $291 $-1 $418 reversed $186 $-1 #
edge $-1 $419 0 $419 6.2831853071796004 $187 $420 forward 7 unknown #
vertex $-1 $190 $421 #
ellipse-curve $-1 -4.377394580296837 -21.116703431828473 4.8121414037906121 0 -0.64278761758704617 0.76604443648966558 1.5 0 0 1 I I #
face $-1 $-1 $307 $40 $-1 $422 forward single #
loop $-1 $-1 $423 $191 #
plane-surface $-1 0 24.181237248129264 0 0 -1 0 0 0 -1 forward_v I I I I #
coedge $-1 $424 $425 $426 $427 reversed $192 $-1 #
coedge $-1 $428 $194 $196 $305 forward $120 $-1 #
coedge $-1 $194 $428 $424 $429 forward $120 $-1 #
coedge $-1 $426 $197 $194 $302 forward $307 $-1 #
edge $-1 $309 -17.654511048952358 $430 6.1390485799767713 $301 $431 forward 7 unknown #
coedge $-1 $432 $433 $195 $304 forward $296 $-1 #
edge $-1 $434 -56.545561933374586 $308 -51.402663435680189 $303 $435 forward 7 unknown #
edge $-1 $309 40.361544862610238 $434 48.362474496258535 $196 $436 forward 7 unknown #
coedge $-1 $197 $426 $432 $437 forward $307 $-1 #
loop $-1 $-1 $426 $295 #
vertex $-1 $304 $438 #
vertex $-1 $198 $439 #
straight-curve $-1 -23.41224228344015 28.911698138986765 7.3835906526378068 0 -1 0 I I #
coedge $-1 $311 $311 $-1 $440 reversed $201 $-1 #
edge $-1 $441 0 $441 6.2831853071796004 $202 $442 forward 7 unknown #
vertex $-1 $205 $443 #
ellipse-curve $-1 -18.653530357654319 21.116703431828473 4.8121414037906103 0 0.64278761758704617 0.76604443648966558 1.5 0 0 1 I I #
coedge $-1 $315 $315 $-1 $444 reversed $208 $-1 #
edge $-1 $445 0 $445 6.2831853071796004 $209 $446 forward 7 unknown #
vertex $-1 $212 $447 #
ellipse-curve $-1 -11.515462468975578 21.116703431828473 4.8121414037906103 0 0.64278761758704617 0.76604443648966558 1.5 0 0 1 I I #
coedge $-1 $319 $319 $-1 $448 reversed $215 $-1 #
edge $-1 $449 0 $449 6.2831853071796004 $216 $450 forward 7 unknown #
vertex $-1 $219 $451 #
ellipse-curve $-1 -4.377394580296837 21.116703431828473 4.8121414037906103 0 0.64278761758704617 0.76604443648966558 1.5 0 0 1 I I #
face $-1 $-1 $235 $33 $-1 $452 reversed single #
loop $-1 $-1 $339 $220 #
plane-surface $-1 0 24.181237248129264 0 0 -1 0 0 0 -1 forward_v I I I I #
coedge $-1 $453 $337 $340 $454 forward $221 $-1 #
coedge $-1 $343 $223 $224 $331 reversed $139 $-1 #
coedge $-1 $337 $453 $223 $329 reversed $221 $-1 #
edge $-1 $344 -7.3835906526378041 $455 7.3835906526378041 $328 $456 forward 7 unknown #
coedge $-1 $225 $224 $453 $457 forward $89 $-1 #
edge $-1 $335 -54.987029633472702 $455 54.987029633472702 $327 $458 forward 7 unknown #
coedge $-1 $340 $339 $225 $333 reversed $324 $-1 #
edge $-1 $459 -54.987029633472702 $334 54.987029633472702 $332 $460 forward 7 unknown #
vertex $-1 $227 $461 #
vertex $-1 $346 $462 #
straight-curve $-1 54.987029633472702 0 -7.3835906526378041 0 -1 0 I I #
coedge $-1 $326 $328 $228 $338 reversed $221 $-1 #
edge $-1 $341 -24.181237248129264 $344 24.181237248129264 $337 $463 forward 7 unknown #
coedge $-1 $332 $229 $234 $347 forward $324 $-1 #
coedge $-1 $229 $332 $326 $454 reversed $324 $-1 #
vertex $-1 $230 $464 #
straight-curve $-1 0 24.181237248129264 7.3835906526378041 -1 0 0 I I #
coedge $-1 $231 $327 $233 $346 reversed $139 $-1 #
vertex $-1 $338 $465 #
straight-curve $-1 0 -24.181237248129264 7.3835906526378041 1 0 0 I I #
edge $-1 $236 -7.3835906526378041 $335 7.3835906526378041 $233 $466 forward 7 unknown #
edge $-1 $237 -7.3835906526378041 $334 7.3835906526378041 $234 $467 forward 7 unknown #
point $-1 54.987029633472702 -24.181237248129264 7.3835906526378041 #
point $-1 54.987029633472702 24.181237248129264 7.3835906526378041 #
face $-1 $-1 $363 $34 $-1 $468 reversed single #
loop $-1 $-1 $469 $239 #
plane-surface $-1 -63.719234797569356 0 -0.085290248115572176 1 0 0 0 0 -1 forward_v I I I I #
coedge $-1 $470 $355 $245 $360 reversed $240 $-1 #
coedge $-1 $243 $242 $469 $471 reversed $93 $-1 #
coedge $-1 $353 $472 $242 $356 forward $240 $-1 #
edge $-1 $473 -4.3661025820483275 $358 4.3661025820483275 $242 $474 forward 7 unknown #
edge $-1 $250 -4.3661025820483275 $475 4.3661025820483275 $243 $476 forward 7 unknown #
vertex $-1 $244 $477 #
straight-curve $-1 -54.987029633472702 24.181237248129264 0 0 0 -1 I I #
edge $-1 $364 -24.181237248129264 $358 24.181237248129264 $353 $478 forward 7 unknown #
coedge $-1 $479 $246 $249 $367 reversed $363 $-1 #
coedge $-1 $246 $479 $470 $480 reversed $363 $-1 #
loop $-1 $-1 $246 $350 #
vertex $-1 $247 $481 #
straight-curve $-1 -54.987029633472702 -24.181237248129264 0 0 0 1 I I #
coedge $-1 $249 $248 $482 $483 forward $147 $-1 #
edge $-1 $484 -4.3661025820483275 $251 4.3661025820483275 $361 $485 forward 7 unknown #
point $-1 -54.987029633472702 24.181237248129264 1.4147097518844278 #
point $-1 -54.987029633472702 -24.181237248129264 1.4147097518844278 #
face $-1 $-1 $386 $35 $-1 $486 reversed single #
loop $-1 $-1 $487 $253 #
plane-surface $-1 63.719234797569356 0 -0.085290248115572176 -1 0 0 0 0 1 forward_v I I I I #
coedge $-1 $377 $488 $489 $490 forward $254 $-1 #
coedge $-1 $487 $491 $256 $375 reversed $371 $-1 #
edge $-1 $492 -24.181237248129264 $493 24.181237248129264 $374 $494 forward 7 unknown #
coedge $-1 $258 $257 $487 $495 reversed $97 $-1 #
coedge $-1 $382 $373 $257 $378 forward $254 $-1 #
edge $-1 $496 -4.3661025820483275 $380 4.3661025820483275 $257 $497 forward 7 unknown #
edge $-1 $265 -4.3661025820483275 $492 4.3661025820483275 $258 $498 forward 7 unknown #
vertex $-1 $259 $499 #
straight-curve $-1 54.987029633472702 -24.181237248129264 0 0 0 -1 I I #
coedge $-1 $488 $377 $260 $383 reversed $254 $-1 #
edge $-1 $387 -24.181237248129264 $380 24.181237248129264 $382 $500 forward 7 unknown #
coedge $-1 $501 $261 $264 $389 reversed $386 $-1 #
coedge $-1 $261 $501 $488 $502 reversed $386 $-1 #
loop $-1 $-1 $261 $370 #
vertex $-1 $262 $503 #
straight-curve $-1 54.987029633472702 24.181237248129264 0 0 0 1 I I #
edge $-1 $493 -4.3661025820483275 $266 4.3661025820483275 $384 $504 forward 7 unknown #
point $-1 54.987029633472702 -24.181237248129264 1.4147097518844278 #
point $-1 54.987029633472702 24.181237248129264 1.4147097518844278 #
loop $-1 $-1 $276 $268 #
plane-surface $-1 0 -24.181237248129264 0 0 1 0 0 0 1 forward_v I I I I #
coedge $-1 $395 $271 $273 $399 reversed $163 $-1 #
coedge $-1 $271 $394 $505 $506 reversed $163 $-1 #
coedge $-1 $279 $274 $271 $397 forward $269 $-1 #
edge $-1 $400 -29.383430784825173 $507 -23.254363152223597 $396 $508 forward 7 unknown #
coedge $-1 $273 $272 $403 $509 reversed $101 $-1 #
edge $-1 $510 0 $400 8.0009296336482976 $394 $511 forward 7 unknown #
vertex $-1 $275 $512 #
straight-curve $-1 -5.7577312344877924 -18.052169615527689 7.383590652637805 -1 0 0 I I #
coedge $-1 $505 $276 $279 $407 reversed $392 $-1 #
coedge $-1 $276 $505 $398 $509 forward $392 $-1 #
vertex $-1 $277 $513 #
straight-curve $-1 0.38131734548897889 -24.181237248129264 43.242854207285845 0 0 1 I I #
straight-curve $-1 0.38131734548897889 -24.181237248129264 2.2406921549434173 0 -0.76604443648966558 -0.64278761758704617 I I #
edge $-1 $507 -23.41224228344015 $280 0.38131734548897889 $402 $514 forward 7 unknown #
point $-1 0.38131734548897889 -24.181237248129264 7.3835906526378041 #
point $-1 0.38131734548897889 -18.052169615527689 7.383590652637805 #
edge $-1 $515 1 $515 0 $283 $-1 forward 7 unknown #
vertex $-1 $284 $516 #
ellipse-curve $-1 -18.653530357654319 -19.389816155910733 2.7541173318156456 0 -0.64278761758704617 0.76604443648966558 1.5 0 0 1 I I #
point $-1 -17.153530357654319 -21.116703431828469 4.812141403790605 #
edge $-1 $517 1 $517 0 $287 $-1 forward 7 unknown #
vertex $-1 $288 $518 #
ellipse-curve $-1 -11.515462468975578 -19.389816155910733 2.7541173318156456 0 -0.64278761758704617 0.76604443648966558 1.5 0 0 1 I I #
point $-1 -10.015462468975578 -21.116703431828469 4.812141403790605 #
edge $-1 $519 1 $519 0 $291 $-1 forward 7 unknown #
vertex $-1 $292 $520 #
ellipse-curve $-1 -4.377394580296837 -19.389816155910733 2.7541173318156456 0 -0.64278761758704617 0.76604443648966558 1.5 0 0 1 I I #
point $-1 -2.877394580296837 -21.116703431828469 4.812141403790605 #
plane-surface $-1 0 0 7.3835906526378041 0 0 1 1 0 0 forward_v I I I I #
coedge $-1 $433 $432 $425 $521 forward $296 $-1 #
coedge $-1 $425 $298 $300 $429 reversed $192 $-1 #
coedge $-1 $298 $424 $423 $521 reversed $192 $-1 #
coedge $-1 $306 $301 $298 $427 forward $307 $-1 #
edge $-1 $430 -10.859528523459076 $522 -4.7304608908575005 $426 $523 forward 7 unknown #
coedge $-1 $300 $299 $433 $524 reversed $120 $-1 #
edge $-1 $525 -48.362474496258535 $430 -40.361544862610238 $424 $526 forward 7 unknown #
vertex $-1 $302 $527 #
straight-curve $-1 -5.7577312344877924 18.052169615527689 7.3835906526378032 1 0 0 I I #
coedge $-1 $423 $303 $306 $437 reversed $296 $-1 #
coedge $-1 $303 $423 $428 $524 forward $296 $-1 #
vertex $-1 $304 $528 #
straight-curve $-1 -23.41224228344015 24.181237248129264 58.786254088317996 0 0 1 I I #
straight-curve $-1 -23.41224228344015 -12.866567274602929 33.32749191700772 0 0.76604443648966558 -0.64278761758704617 I I #
edge $-1 $522 -0.38131734548897889 $308 23.41224228344015 $432 $529 forward 7 unknown #
point $-1 -23.41224228344015 24.181237248129264 7.3835906526378041 #
point $-1 -23.41224228344015 18.052169615527689 7.3835906526378032 #
edge $-1 $530 1 $530 0 $311 $-1 forward 7 unknown #
vertex $-1 $312 $531 #
ellipse-curve $-1 -18.653530357654319 19.389816155910733 2.7541173318156456 0 0.64278761758704617 0.76604443648966558 1.5 0 0 1 I I #
point $-1 -17.153530357654319 21.116703431828469 4.812141403790605 #
edge $-1 $532 1 $532 0 $315 $-1 forward 7 unknown #
vertex $-1 $316 $533 #
ellipse-curve $-1 -11.515462468975578 19.389816155910733 2.7541173318156456 0 0.64278761758704617 0.76604443648966558 1.5 0 0 1 I I #
point $-1 -10.015462468975578 21.116703431828469 4.812141403790605 #
edge $-1 $534 1 $534 0 $319 $-1 forward 7 unknown #
vertex $-1 $320 $535 #
ellipse-curve $-1 -4.377394580296837 19.389816155910733 2.7541173318156456 0 0.64278761758704617 0.76604443648966558 1.5 0 0 1 I I #
point $-1 -2.877394580296837 21.116703431828469 4.812141403790605 #
plane-surface $-1 54.987029633472702 0 0 -1 0 0 0 0 1 forward_v I I I I #
coedge $-1 $328 $326 $330 $457 reversed $221 $-1 #
edge $-1 $341 -7.3835906526378041 $459 7.3835906526378041 $340 $536 forward 7 unknown #
vertex $-1 $457 $537 #
straight-curve $-1 -54.987029633472702 -24.181237248129264 0 0 0 -1 I I #
edge $-1 $455 -24.181237248129264 $459 24.181237248129264 $453 $538 forward 7 unknown #
straight-curve $-1 0 -24.181237248129264 -7.3835906526378041 -1 0 0 I I #
vertex $-1 $333 $539 #
straight-curve $-1 0 24.181237248129264 -7.3835906526378041 1 0 0 I I #
point $-1 54.987029633472702 24.181237248129264 -7.3835906526378041 #
point $-1 54.987029633472702 -24.181237248129264 -7.3835906526378041 #
straight-curve $-1 -54.987029633472702 0 7.3835906526378041 0 -1 0 I I #
point $-1 -54.987029633472702 24.181237248129264 7.3835906526378041 #
point $-1 -54.987029633472702 -24.181237248129264 7.3835906526378041 #
straight-curve $-1 54.987029633472702 -24.181237248129264 0 0 0 -1 I I #
straight-curve $-1 54.987029633472702 24.181237248129264 0 0 0 -1 I I #
plane-surface $-1 0 -24.181237248129264 0 0 1 0 0 0 1 forward_v I I I I #
coedge $-1 $540 $482 $354 $471 forward $351 $-1 #
coedge $-1 $472 $353 $362 $480 forward $240 $-1 #
edge $-1 $475 -1.5 $473 1.5 $354 $541 forward 7 unknown #
coedge $-1 $355 $470 $540 $542 forward $240 $-1 #
vertex $-1 $356 $543 #
straight-curve $-1 -59.353132215521029 24.181237248129264 -1.5852902481155722 1 0 0 I I #
vertex $-1 $357 $544 #
straight-curve $-1 -59.353132215521029 24.181237248129264 1.4147097518844278 -1 0 0 I I #
point $-1 -54.987029633472702 24.181237248129264 -1.5852902481155722 #
straight-curve $-1 -54.987029633472702 0 -1.5852902481155722 0 1 0 I I #
coedge $-1 $362 $361 $545 $546 forward $363 $-1 #
edge $-1 $364 -4.3661025820483275 $547 4.3661025820483275 $362 $548 forward 7 unknown #
point $-1 -54.987029633472702 -24.181237248129264 -1.5852902481155722 #
coedge $-1 $469 $545 $366 $483 reversed $351 $-1 #
edge $-1 $475 -24.181237248129264 $484 24.181237248129264 $482 $549 forward 7 unknown #
vertex $-1 $483 $550 #
straight-curve $-1 -59.353132215521029 -24.181237248129264 1.4147097518844278 1 0 0 I I #
plane-surface $-1 0 24.181237248129264 0 0 -1 0 0 0 -1 forward_v I I I I #
coedge $-1 $489 $374 $376 $495 forward $371 $-1 #
coedge $-1 $373 $382 $385 $502 forward $254 $-1 #
coedge $-1 $491 $487 $373 $490 reversed $371 $-1 #
edge $-1 $551 -24.181237248129264 $496 24.181237248129264 $489 $552 forward 7 unknown #
coedge $-1 $374 $489 $501 $553 reversed $371 $-1 #
vertex $-1 $375 $554 #
vertex $-1 $375 $555 #
straight-curve $-1 63.719234797569356 0 1.4147097518844278 0 1 0 I I #
edge $-1 $492 -1.5 $496 1.5 $487 $556 forward 7 unknown #
vertex $-1 $495 $557 #
straight-curve $-1 59.353132215521029 -24.181237248129264 -1.5852902481155722 -1 0 0 I I #
straight-curve $-1 59.353132215521029 -24.181237248129264 1.4147097518844278 1 0 0 I I #
point $-1 54.987029633472702 -24.181237248129264 -1.5852902481155722 #
straight-curve $-1 54.987029633472702 0 -1.5852902481155722 0 -1 0 I I #
coedge $-1 $385 $384 $491 $553 forward $386 $-1 #
edge $-1 $387 -4.3661025820483275 $551 4.3661025820483275 $385 $558 forward 7 unknown #
point $-1 54.987029633472702 24.181237248129264 -1.5852902481155722 #
straight-curve $-1 59.353132215521029 24.181237248129264 1.4147097518844278 -1 0 0 I I #
coedge $-1 $403 $402 $395 $506 forward $392 $-1 #
edge $-1 $507 35.859263554648038 $510 41.002162052342428 $505 $559 forward 7 unknown #
vertex $-1 $407 $560 #
straight-curve $-1 -23.41224228344015 -47.435600400352861 7.3835906526378068 0 -1 0 I I #
edge $-1 $510 -17.654511048952358 $404 6.1390485799767713 $403 $561 forward 7 unknown #
vertex $-1 $509 $562 #
straight-curve $-1 -23.41224228344015 -24.181237248129264 2.2406921549434173 0 0.76604443648966558 0.64278761758704617 I I #
point $-1 -23.41224228344015 -18.052169615527689 7.383590652637805 #
point $-1 0.38131734548897889 -24.181237248129264 2.2406921549434173 #
straight-curve $-1 0 -24.181237248129264 7.3835906526378041 1 0 0 I I #
vertex $-1 $410 $563 #
point $-1 -17.153530357654319 -19.389816155910733 2.7541173318156456 #
vertex $-1 $414 $564 #
point $-1 -10.015462468975578 -19.389816155910733 2.7541173318156456 #
vertex $-1 $418 $565 #
point $-1 -2.877394580296837 -19.389816155910733 2.7541173318156456 #
edge $-1 $522 51.402663435680189 $525 56.545561933374586 $423 $566 forward 7 unknown #
vertex $-1 $437 $567 #
straight-curve $-1 0.38131734548897889 28.911698138986765 7.3835906526378068 0 1 0 I I #
edge $-1 $525 -6.1390485799767713 $434 17.654511048952358 $433 $568 forward 7 unknown #
vertex $-1 $524 $569 #
straight-curve $-1 0.38131734548897889 -12.866567274602929 33.32749191700772 0 -0.76604443648966558 0.64278761758704617 I I #
point $-1 0.38131734548897889 18.052169615527689 7.3835906526378032 #
point $-1 -23.41224228344015 24.181237248129264 2.2406921549434138 #
straight-curve $-1 0 24.181237248129264 7.3835906526378041 -1 0 0 I I #
vertex $-1 $440 $570 #
point $-1 -17.153530357654319 19.389816155910733 2.7541173318156456 #
vertex $-1 $444 $571 #
point $-1 -10.015462468975578 19.389816155910733 2.7541173318156456 #
vertex $-1 $448 $572 #
point $-1 -2.877394580296837 19.389816155910733 2.7541173318156456 #
straight-curve $-1 -54.987029633472702 24.181237248129264 0 0 0 -1 I I #
point $-1 -54.987029633472702 -24.181237248129264 -7.3835906526378041 #
straight-curve $-1 -54.987029633472702 0 -7.3835906526378041 0 1 0 I I #
point $-1 -54.987029633472702 24.181237248129264 -7.3835906526378041 #
coedge $-1 $545 $469 $472 $542 reversed $351 $-1 #
straight-curve $-1 -63.719234797569356 24.181237248129264 -0.085290248115572176 0 0 -1 I I #
edge $-1 $547 -24.181237248129264 $473 24.181237248129264 $540 $573 forward 7 unknown #
point $-1 -63.719234797569356 24.181237248129264 -1.5852902481155722 #
point $-1 -63.719234797569356 24.181237248129264 1.4147097518844278 #
coedge $-1 $482 $540 $479 $546 reversed $351 $-1 #
edge $-1 $484 -1.5 $547 1.5 $545 $574 forward 7 unknown #
vertex $-1 $542 $575 #
straight-curve $-1 -59.353132215521029 -24.181237248129264 -1.5852902481155722 -1 0 0 I I #
straight-curve $-1 -63.719234797569356 0 1.4147097518844278 0 -1 0 I I #
point $-1 -63.719234797569356 -24.181237248129264 1.4147097518844278 #
vertex $-1 $490 $576 #
straight-curve $-1 63.719234797569356 0 -1.5852902481155722 0 -1 0 I I #
edge $-1 $493 -1.5 $551 1.5 $491 $577 forward 7 unknown #
point $-1 63.719234797569356 -24.181237248129264 1.4147097518844278 #
point $-1 63.719234797569356 24.181237248129264 1.4147097518844278 #
straight-curve $-1 63.719234797569356 -24.181237248129264 -0.085290248115572176 0 0 -1 I I #
point $-1 63.719234797569356 -24.181237248129264 -1.5852902481155722 #
straight-curve $-1 59.353132215521029 24.181237248129264 -1.5852902481155722 1 0 0 I I #
straight-curve $-1 -23.41224228344015 -24.181237248129264 43.242854207285845 0 0 -1 I I #
point $-1 -23.41224228344015 -24.181237248129264 7.3835906526378041 #
straight-curve $-1 -5.7577312344877924 -24.181237248129264 2.2406921549434173 1 0 0 I I #
point $-1 -23.41224228344015 -24.181237248129264 2.2406921549434173 #
point $-1 -18.653530357654319 -18.425634729530163 1.6050506770811475 #
point $-1 -11.515462468975578 -18.425634729530163 1.6050506770811475 #
point $-1 -4.377394580296837 -18.425634729530163 1.6050506770811475 #
straight-curve $-1 0.38131734548897889 24.181237248129264 58.786254088317996 0 0 -1 I I #
point $-1 0.38131734548897889 24.181237248129264 7.3835906526378041 #
straight-curve $-1 -5.7577312344877924 24.181237248129264 2.2406921549434156 -1 0 0 I I #
point $-1 0.38131734548897889 24.181237248129264 2.2406921549434138 #
point $-1 -18.653530357654319 18.425634729530163 1.6050506770811475 #
point $-1 -11.515462468975578 18.425634729530163 1.6050506770811475 #
point $-1 -4.377394580296837 18.425634729530163 1.6050506770811475 #
straight-curve $-1 -63.719234797569356 0 -1.5852902481155722 0 1 0 I I #
straight-curve $-1 -63.719234797569356 -24.181237248129264 -0.085290248115572176 0 0 -1 I I #
point $-1 -63.719234797569356 -24.181237248129264 -1.5852902481155722 #
point $-1 63.719234797569356 24.181237248129264 -1.5852902481155722 #
straight-curve $-1 63.719234797569356 24.181237248129264 -0.085290248115572176 0 0 -1 I I #
End-of-ACIS-data 