500 0 7 0           
7 Unknown 11 ACIS 5.0 NT 24 Thu Mar 25 17:26:45 1999 
-1 9.9999999999999995e-007 1e-010 
body $-1 $7 $-1 $8 #
body $-1 $9 $-1 $10 #
body $-1 $11 $-1 $12 #
body $-1 $13 $-1 $14 #
body $-1 $15 $-1 $16 #
body $-1 $17 $-1 $18 #
body $-1 $19 $-1 $20 #
lump $-1 $-1 $21 $0 #
transform $-1 1 0 0 0 1 0 0 0 1 65.325479903561501 39.555538017474085 17.732692042417181 1 rotate no_reflect no_shear #
lump $-1 $-1 $22 $1 #
transform $-1 1 0 0 0 1 0 0 0 1 65.325479903561501 39.555538017474085 17.732692042417181 1 rotate no_reflect no_shear #
lump $-1 $-1 $23 $2 #
transform $-1 1 0 0 0 1 0 0 0 1 65.325479903561501 39.555538017474085 17.732692042417181 1 rotate no_reflect no_shear #
lump $-1 $-1 $24 $3 #
transform $-1 1 0 0 0 1 0 0 0 1 65.325479903561501 39.555538017474085 17.732692042417181 1 rotate no_reflect no_shear #
lump $-1 $-1 $25 $4 #
transform $-1 1 0 0 0 1 0 0 0 1 65.325479903561501 39.555538017474085 17.732692042417181 1 rotate no_reflect no_shear #
lump $-1 $-1 $26 $5 #
transform $-1 1 0 0 0 1 0 0 0 1 65.325479903561501 39.555538017474085 17.732692042417181 1 rotate no_reflect no_shear #
lump $-1 $-1 $27 $6 #
transform $-1 1 0 0 0 1 0 0 0 1 65.325479903561501 39.555538017474085 17.732692042417181 1 rotate no_reflect no_shear #
shell $-1 $-1 $-1 $28 $-1 $7 #
shell $-1 $-1 $-1 $29 $-1 $9 #
shell $-1 $-1 $-1 $30 $-1 $11 #
shell $-1 $-1 $-1 $31 $-1 $13 #
shell $-1 $-1 $-1 $32 $-1 $15 #
shell $-1 $-1 $-1 $33 $-1 $17 #
shell $-1 $-1 $-1 $34 $-1 $19 #
face $-1 $35 $36 $21 $-1 $37 forward single #
face $-1 $38 $39 $22 $-1 $40 reversed single #
face $-1 $41 $42 $23 $-1 $43 reversed single #
face $-1 $44 $45 $24 $-1 $46 reversed single #
face $-1 $47 $48 $25 $-1 $49 forward single #
face $-1 $50 $51 $26 $-1 $52 forward single #
face $-1 $53 $54 $27 $-1 $55 forward single #
face $-1 $56 $57 $21 $-1 $58 reversed single #
loop $-1 $-1 $59 $28 #
plane-surface $-1 0 0 17.732692042417181 0 0 1 1 0 0 forward_v I I I I #
face $-1 $60 $61 $22 $-1 $62 reversed single #
loop $-1 $-1 $63 $29 #
plane-surface $-1 -54.916486545046709 0 13.623114820464988 0 0 1 1 0 0 forward_v I I I I #
face $-1 $64 $65 $23 $-1 $66 reversed single #
loop $-1 $-1 $67 $30 #
plane-surface $-1 54.916486545046709 0 13.623114820464988 0 0 1 1 0 0 forward_v I I I I #
face $-1 $68 $69 $24 $-1 $70 reversed single #
loop $-1 $-1 $71 $31 #
plane-surface $-1 37.242341393361869 -39.555538017474063 13.540300328299594 0 -0.66913061440640931 0.74314481823134659 1 0 0 forward_v I I I I #
face $-1 $72 $73 $25 $-1 $74 forward single #
loop $-1 $75 $76 $32 #
cone-surface $-1 32.883250317459826 -36.712247980575881 15.064276716490754 0 0.66913061440640931 -0.74314481823134659 1 0 0 1 I I 0 1 1 forward I I I I #
face $-1 $77 $78 $26 $-1 $79 forward single #
loop $-1 $80 $81 $33 #
cone-surface $-1 37.242341393361855 -36.712247980575881 15.064276716490754 0 0.66913061440640931 -0.74314481823134659 1 0 0 1 I I 0 1 1 forward I I I I #
face $-1 $82 $83 $27 $-1 $84 forward single #
loop $-1 $85 $86 $34 #
cone-surface $-1 41.601432469263884 -36.712247980575881 15.064276716490754 0 0.66913061440640931 -0.74314481823134659 1 0 0 1 I I 0 1 1 forward I I I I #
face $-1 $87 $88 $21 $-1 $89 reversed single #
loop $-1 $-1 $90 $35 #
plane-surface $-1 0 0 -17.732692042417181 0 0 1 1 0 0 forward_v I I I I #
coedge $-1 $91 $92 $93 $94 forward $36 $-1 #
face $-1 $95 $96 $22 $-1 $97 reversed single #
loop $-1 $-1 $98 $38 #
plane-surface $-1 -44.507493186531917 0 15.677903431441084 -1 0 0 0 0 1 forward_v I I I I #
coedge $-1 $99 $100 $101 $102 forward $39 $-1 #
face $-1 $103 $104 $23 $-1 $105 forward single #
loop $-1 $-1 $106 $41 #
plane-surface $-1 44.507493186531917 0 15.677903431441084 1 0 0 0 0 -1 forward_v I I I I #
coedge $-1 $107 $108 $109 $110 reversed $42 $-1 #
face $-1 $111 $112 $24 $-1 $113 forward single #
loop $-1 $-1 $114 $44 #
plane-surface $-1 29.977189600191814 -126.97809502600137 110.63288410591498 1 0 0 0 0.66913061440640931 -0.74314481823134659 forward_v I I I I #
coedge $-1 $115 $116 $117 $118 reversed $45 $-1 #
face $-1 $-1 $119 $25 $-1 $120 forward single #
loop $-1 $121 $122 $47 #
cone-surface $-1 32.883250317459826 -35.862453938157955 14.120484838507441 0 0.66913061440640931 -0.74314481823134659 0.5 0 0 1 I I -0.70710678118654746 0.70710678118654746 0.5 forward I I I I #
loop $-1 $-1 $123 $32 #
coedge $-1 $76 $76 $124 $125 reversed $48 $-1 #
face $-1 $-1 $126 $26 $-1 $127 forward single #
loop $-1 $128 $129 $50 #
cone-surface $-1 37.242341393361855 -35.862453938157955 14.120484838507441 0 0.66913061440640931 -0.74314481823134659 0.5 0 0 1 I I -0.70710678118654746 0.70710678118654746 0.5 forward I I I I #
loop $-1 $-1 $130 $33 #
coedge $-1 $81 $81 $131 $132 reversed $51 $-1 #
face $-1 $-1 $133 $27 $-1 $134 forward single #
loop $-1 $135 $136 $53 #
cone-surface $-1 41.601432469263884 -35.862453938157955 14.120484838507441 0 0.66913061440640931 -0.74314481823134659 0.5 0 0 1 I I -0.70710678118654746 0.70710678118654746 0.5 forward I I I I #
loop $-1 $-1 $137 $34 #
coedge $-1 $86 $86 $138 $139 reversed $54 $-1 #
face $-1 $140 $141 $21 $-1 $142 reversed single #
loop $-1 $-1 $143 $56 #
plane-surface $-1 0 -39.555538017474085 0 0 1 0 0 0 1 forward_v I I I I #
coedge $-1 $144 $145 $146 $147 forward $57 $-1 #
coedge $-1 $148 $59 $149 $150 forward $36 $-1 #
coedge $-1 $59 $148 $151 $152 forward $36 $-1 #
coedge $-1 $153 $154 $59 $94 reversed $155 $-1 #
edge $-1 $156 -39.555538017474085 $157 39.555538017474085 $93 $158 forward 7 unknown #
face $-1 $159 $160 $22 $-1 $161 reversed single #
loop $-1 $-1 $162 $60 #
plane-surface $-1 0 39.555538017474085 0 0 -1 0 0 0 -1 forward_v I I I I #
coedge $-1 $101 $163 $164 $165 reversed $61 $-1 #
coedge $-1 $166 $63 $167 $168 reversed $39 $-1 #
coedge $-1 $63 $166 $169 $170 reversed $39 $-1 #
coedge $-1 $171 $98 $63 $102 reversed $61 $-1 #
edge $-1 $172 -39.555538017474085 $173 39.555538017474085 $101 $174 forward 7 unknown #
face $-1 $175 $176 $23 $-1 $177 reversed single #
loop $-1 $-1 $178 $64 #
plane-surface $-1 0 0 17.732692042417181 0 0 1 1 0 0 forward_v I I I I #
coedge $-1 $179 $180 $178 $181 reversed $65 $-1 #
coedge $-1 $182 $67 $183 $184 reversed $42 $-1 #
coedge $-1 $67 $182 $185 $186 reversed $42 $-1 #
coedge $-1 $187 $188 $67 $110 forward $189 $-1 #
edge $-1 $190 -39.555538017474085 $191 39.555538017474085 $109 $192 forward 7 unknown #
face $-1 $193 $194 $24 $-1 $195 reversed single #
loop $-1 $-1 $117 $68 #
plane-surface $-1 0 0 17.732692042417181 0 0 1 1 0 0 forward_v I I I I #
coedge $-1 $196 $197 $198 $199 reversed $69 $-1 #
coedge $-1 $200 $71 $201 $202 reversed $45 $-1 #
coedge $-1 $71 $200 $196 $203 forward $45 $-1 #
coedge $-1 $198 $204 $71 $118 forward $112 $-1 #
edge $-1 $205 -25.886322489850983 $206 -11.356018903510879 $117 $207 forward 7 unknown #
loop $-1 $-1 $124 $72 #
plane-surface $-1 37.242341393361869 -39.555538017474063 13.540300328299594 0 -0.66913061440640931 0.74314481823134659 1 0 0 forward_v I I I I #
loop $-1 $-1 $208 $47 #
coedge $-1 $122 $122 $123 $209 reversed $73 $-1 #
coedge $-1 $123 $123 $122 $209 forward $75 $-1 #
coedge $-1 $124 $124 $76 $125 forward $119 $-1 #
edge $-1 $210 -1.5777076461262981e-015 $210 6.2831853071795987 $124 $211 forward 7 unknown #
loop $-1 $-1 $131 $77 #
plane-surface $-1 37.242341393361869 -39.555538017474063 13.540300328299594 0 -0.66913061440640931 0.74314481823134659 1 0 0 forward_v I I I I #
loop $-1 $-1 $212 $50 #
coedge $-1 $129 $129 $130 $213 reversed $78 $-1 #
coedge $-1 $130 $130 $129 $213 forward $80 $-1 #
coedge $-1 $131 $131 $81 $132 forward $126 $-1 #
edge $-1 $214 -1.5777076461262981e-015 $214 6.2831853071795987 $131 $215 forward 7 unknown #
loop $-1 $-1 $138 $82 #
plane-surface $-1 37.242341393361869 -39.555538017474063 13.540300328299594 0 -0.66913061440640931 0.74314481823134659 1 0 0 forward_v I I I I #
loop $-1 $-1 $216 $53 #
coedge $-1 $136 $136 $137 $217 reversed $83 $-1 #
coedge $-1 $137 $137 $136 $217 forward $85 $-1 #
coedge $-1 $138 $138 $86 $139 forward $133 $-1 #
edge $-1 $218 -1.5777076461262981e-015 $218 6.2831853071795987 $138 $219 forward 7 unknown #
face $-1 $220 $221 $21 $-1 $222 reversed single #
loop $-1 $-1 $223 $87 #
plane-surface $-1 -65.325479903561501 0 0 1 0 0 0 0 -1 forward_v I I I I #
coedge $-1 $224 $151 $225 $226 forward $88 $-1 #
coedge $-1 $227 $90 $224 $228 forward $57 $-1 #
coedge $-1 $90 $227 $229 $230 forward $57 $-1 #
coedge $-1 $154 $153 $90 $147 reversed $155 $-1 #
edge $-1 $231 -39.555538017474085 $232 39.555538017474085 $146 $233 forward 7 unknown #
coedge $-1 $92 $91 $234 $235 forward $36 $-1 #
coedge $-1 $236 $237 $91 $150 reversed $221 $-1 #
edge $-1 $157 -65.325479903561501 $238 65.325479903561501 $149 $239 forward 7 unknown #
coedge $-1 $143 $240 $92 $152 reversed $88 $-1 #
edge $-1 $241 -65.325479903561501 $156 65.325479903561501 $151 $242 forward 7 unknown #
coedge $-1 $146 $93 $240 $243 forward $155 $-1 #
coedge $-1 $93 $146 $236 $244 reversed $155 $-1 #
loop $-1 $-1 $153 $220 #
vertex $-1 $94 $245 #
vertex $-1 $94 $246 #
straight-curve $-1 65.325479903561501 0 17.732692042417181 0 1 0 I I #
face $-1 $247 $248 $22 $-1 $249 forward single #
loop $-1 $-1 $250 $95 #
plane-surface $-1 -65.325479903561501 0 0 1 0 0 0 0 -1 forward_v I I I I #
coedge $-1 $169 $251 $171 $252 forward $96 $-1 #
coedge $-1 $98 $171 $253 $254 reversed $61 $-1 #
coedge $-1 $255 $167 $98 $165 forward $256 $-1 #
edge $-1 $173 5.7841631047444455 $257 9.8937403266966388 $164 $258 forward 7 unknown #
coedge $-1 $100 $99 $250 $259 reversed $39 $-1 #
coedge $-1 $164 $260 $99 $168 forward $256 $-1 #
edge $-1 $261 -37.867236631038146 $173 -17.049249914008563 $167 $262 forward 7 unknown #
coedge $-1 $263 $162 $100 $170 forward $96 $-1 #
edge $-1 $172 17.049249914008563 $264 37.867236631038146 $169 $265 forward 7 unknown #
coedge $-1 $163 $101 $162 $252 reversed $61 $-1 #
vertex $-1 $170 $266 #
vertex $-1 $168 $267 #
straight-curve $-1 -44.507493186531917 0 13.623114820464988 0 -1 0 I I #
face $-1 $268 $269 $23 $-1 $270 reversed single #
loop $-1 $-1 $271 $103 #
plane-surface $-1 0 -39.555538017474085 0 0 1 0 0 0 1 forward_v I I I I #
coedge $-1 $272 $273 $106 $181 forward $104 $-1 #
coedge $-1 $274 $106 $275 $276 reversed $65 $-1 #
coedge $-1 $106 $274 $271 $277 reversed $65 $-1 #
edge $-1 $278 -39.555538017474085 $279 39.555538017474085 $178 $280 forward 7 unknown #
coedge $-1 $108 $107 $274 $281 forward $42 $-1 #
coedge $-1 $282 $271 $107 $184 forward $176 $-1 #
edge $-1 $283 17.049249914008563 $190 37.867236631038146 $183 $284 forward 7 unknown #
coedge $-1 $275 $285 $108 $186 forward $269 $-1 #
edge $-1 $191 -37.867236631038146 $286 -17.049249914008563 $185 $287 forward 7 unknown #
coedge $-1 $288 $109 $285 $289 reversed $189 $-1 #
coedge $-1 $109 $288 $282 $290 forward $189 $-1 #
loop $-1 $-1 $109 $268 #
vertex $-1 $184 $291 #
vertex $-1 $110 $292 #
straight-curve $-1 65.325479903561501 0 13.623114820464988 0 1 0 I I #
face $-1 $-1 $293 $24 $-1 $294 forward single #
loop $-1 $-1 $295 $111 #
plane-surface $-1 0 -39.555538017474085 0 0 1 0 0 0 1 forward_v I I I I #
coedge $-1 $197 $114 $116 $203 reversed $69 $-1 #
coedge $-1 $114 $196 $295 $296 reversed $69 $-1 #
coedge $-1 $297 $117 $114 $199 forward $112 $-1 #
edge $-1 $206 -28.589632098893603 $298 -23.9335094955266 $198 $299 forward 7 unknown #
coedge $-1 $116 $115 $300 $301 reversed $45 $-1 #
coedge $-1 $302 $303 $115 $202 forward $293 $-1 #
edge $-1 $304 -15.412914393900527 $205 -9.1474833646586386 $201 $305 forward 7 unknown #
edge $-1 $306 -2.8915846743243384e-014 $206 6.26543102924186 $196 $307 forward 7 unknown #
coedge $-1 $117 $297 $302 $308 forward $112 $-1 #
vertex $-1 $202 $309 #
vertex $-1 $118 $310 #
straight-curve $-1 18.621170696680934 -34.899415414107082 17.732692042417181 -1 0 0 I I #
coedge $-1 $208 $208 $-1 $311 reversed $121 $-1 #
edge $-1 $312 0 $312 6.2831853071796004 $122 $313 forward 7 unknown #
vertex $-1 $125 $314 #
ellipse-curve $-1 32.883250317459826 -37.227476715790587 15.636496185358373 0 -0.66913061440640931 0.74314481823134659 1 0 0 1 I I #
coedge $-1 $212 $212 $-1 $315 reversed $128 $-1 #
edge $-1 $316 0 $316 6.2831853071796004 $129 $317 forward 7 unknown #
vertex $-1 $132 $318 #
ellipse-curve $-1 37.242341393361855 -37.227476715790587 15.636496185358373 0 -0.66913061440640931 0.74314481823134659 1 0 0 1 I I #
coedge $-1 $216 $216 $-1 $319 reversed $135 $-1 #
edge $-1 $320 0 $320 6.2831853071796004 $136 $321 forward 7 unknown #
vertex $-1 $139 $322 #
ellipse-curve $-1 41.601432469263884 -37.227476715790587 15.636496185358373 0 -0.66913061440640931 0.74314481823134659 1 0 0 1 I I #
face $-1 $-1 $155 $21 $-1 $323 reversed single #
loop $-1 $-1 $236 $140 #
plane-surface $-1 0 39.555538017474085 0 0 -1 0 0 0 -1 forward_v I I I I #
coedge $-1 $324 $234 $237 $325 forward $141 $-1 #
coedge $-1 $240 $143 $144 $228 reversed $88 $-1 #
coedge $-1 $234 $324 $143 $226 reversed $141 $-1 #
edge $-1 $241 -17.732692042417181 $326 17.732692042417181 $225 $327 forward 7 unknown #
coedge $-1 $145 $144 $324 $328 forward $57 $-1 #
edge $-1 $232 -65.325479903561501 $326 65.325479903561501 $224 $329 forward 7 unknown #
coedge $-1 $237 $236 $145 $230 reversed $221 $-1 #
edge $-1 $330 -65.325479903561501 $231 65.325479903561501 $229 $331 forward 7 unknown #
vertex $-1 $147 $332 #
vertex $-1 $243 $333 #
straight-curve $-1 65.325479903561501 0 -17.732692042417181 0 -1 0 I I #
coedge $-1 $223 $225 $148 $235 reversed $141 $-1 #
edge $-1 $238 -39.555538017474085 $241 39.555538017474085 $234 $334 forward 7 unknown #
coedge $-1 $229 $149 $154 $244 forward $221 $-1 #
coedge $-1 $149 $229 $223 $325 reversed $221 $-1 #
vertex $-1 $150 $335 #
straight-curve $-1 0 39.555538017474085 17.732692042417181 -1 0 0 I I #
coedge $-1 $151 $224 $153 $243 reversed $88 $-1 #
vertex $-1 $235 $336 #
straight-curve $-1 0 -39.555538017474085 17.732692042417181 1 0 0 I I #
edge $-1 $156 -17.732692042417181 $232 17.732692042417181 $153 $337 forward 7 unknown #
edge $-1 $157 -17.732692042417181 $231 17.732692042417181 $154 $338 forward 7 unknown #
point $-1 65.325479903561501 -39.555538017474085 17.732692042417181 #
point $-1 65.325479903561501 39.555538017474085 17.732692042417181 #
face $-1 $-1 $256 $22 $-1 $339 reversed single #
loop $-1 $-1 $253 $159 #
plane-surface $-1 0 0 17.732692042417181 0 0 1 1 0 0 forward_v I I I I #
coedge $-1 $340 $341 $166 $259 forward $160 $-1 #
coedge $-1 $162 $263 $342 $343 reversed $96 $-1 #
edge $-1 $344 -9.8937403266966388 $172 -5.7841631047444455 $162 $345 forward 7 unknown #
coedge $-1 $342 $346 $163 $254 forward $248 $-1 #
edge $-1 $257 -39.555538017474085 $344 39.555538017474085 $253 $347 forward 7 unknown #
coedge $-1 $260 $164 $346 $348 reversed $256 $-1 #
loop $-1 $-1 $164 $247 #
vertex $-1 $165 $349 #
straight-curve $-1 -44.507493186531917 -39.555538017474085 7.8389517157205422 0 0 1 I I #
edge $-1 $264 -39.555538017474085 $261 39.555538017474085 $250 $350 forward 7 unknown #
coedge $-1 $167 $255 $340 $351 forward $256 $-1 #
vertex $-1 $259 $352 #
straight-curve $-1 -27.458243272523355 -39.555538017474085 13.623114820464988 1 0 0 I I #
coedge $-1 $251 $169 $341 $353 reversed $96 $-1 #
vertex $-1 $259 $354 #
straight-curve $-1 -27.458243272523355 39.555538017474085 13.623114820464988 -1 0 0 I I #
point $-1 -44.507493186531917 39.555538017474085 13.623114820464988 #
point $-1 -44.507493186531917 -39.555538017474085 13.623114820464988 #
face $-1 $-1 $189 $23 $-1 $355 reversed single #
loop $-1 $-1 $275 $175 #
plane-surface $-1 0 39.555538017474085 0 0 -1 0 0 0 -1 forward_v I I I I #
coedge $-1 $183 $356 $180 $277 forward $176 $-1 #
coedge $-1 $357 $178 $356 $358 forward $104 $-1 #
coedge $-1 $178 $357 $359 $360 forward $104 $-1 #
coedge $-1 $180 $179 $182 $281 reversed $65 $-1 #
coedge $-1 $359 $185 $179 $276 forward $269 $-1 #
edge $-1 $286 5.7841631047444455 $278 9.8937403266966388 $275 $361 forward 7 unknown #
edge $-1 $279 -9.8937403266966388 $283 -5.7841631047444455 $271 $362 forward 7 unknown #
vertex $-1 $276 $363 #
vertex $-1 $358 $364 #
straight-curve $-1 44.507493186531917 0 17.732692042417181 0 -1 0 I I #
edge $-1 $283 -39.555538017474085 $286 39.555538017474085 $274 $365 forward 7 unknown #
coedge $-1 $356 $183 $188 $290 reversed $176 $-1 #
vertex $-1 $184 $366 #
straight-curve $-1 27.458243272523355 -39.555538017474085 13.623114820464988 1 0 0 I I #
coedge $-1 $185 $359 $187 $289 forward $269 $-1 #
vertex $-1 $186 $367 #
straight-curve $-1 27.458243272523355 39.555538017474085 13.623114820464988 -1 0 0 I I #
coedge $-1 $188 $187 $357 $368 reversed $189 $-1 #
edge $-1 $369 -17.732692042417181 $191 -13.623114820464988 $187 $370 forward 7 unknown #
edge $-1 $371 -17.732692042417181 $190 -13.623114820464988 $188 $372 forward 7 unknown #
point $-1 65.325479903561501 -39.555538017474085 13.623114820464988 #
point $-1 65.325479903561501 39.555538017474085 13.623114820464988 #
loop $-1 $-1 $201 $193 #
plane-surface $-1 44.507493186531917 0 15.677903431441084 1 0 0 0 0 -1 forward_v I I I I #
coedge $-1 $300 $373 $197 $296 forward $194 $-1 #
edge $-1 $298 37.583750010540314 $306 41.776141724657919 $295 $374 forward 7 unknown #
coedge $-1 $204 $198 $373 $375 forward $112 $-1 #
vertex $-1 $375 $376 #
straight-curve $-1 29.977189600191814 -63.489047513000685 17.732692042417185 0 -1 0 I I #
coedge $-1 $377 $295 $200 $301 forward $194 $-1 #
edge $-1 $306 11.356018903510879 $304 25.88632248985099 $300 $378 forward 7 unknown #
coedge $-1 $303 $201 $204 $308 reversed $293 $-1 #
coedge $-1 $201 $302 $377 $379 reversed $293 $-1 #
vertex $-1 $379 $380 #
straight-curve $-1 44.507493186531917 -28.101510551803571 23.853553206483625 0 0.74314481823134659 0.66913061440640931 I I #
vertex $-1 $301 $381 #
straight-curve $-1 29.977189600191814 -39.555538017474063 13.540300328299594 0 0.74314481823134659 0.66913061440640931 I I #
edge $-1 $382 -39.555538017474085 $205 -34.899415414107082 $204 $383 forward 7 unknown #
point $-1 44.507493186531917 -34.899415414107082 17.732692042417181 #
point $-1 29.977189600191814 -34.899415414107082 17.732692042417181 #
edge $-1 $384 1 $384 0 $208 $-1 forward 7 unknown #
vertex $-1 $209 $385 #
ellipse-curve $-1 32.883250317459826 -36.197019245361162 14.492057247623114 0 -0.66913061440640931 0.74314481823134659 1 0 0 1 I I #
point $-1 33.883250317459826 -37.227476715790608 15.636496185358395 #
edge $-1 $386 1 $386 0 $212 $-1 forward 7 unknown #
vertex $-1 $213 $387 #
ellipse-curve $-1 37.242341393361855 -36.197019245361162 14.492057247623114 0 -0.66913061440640931 0.74314481823134659 1 0 0 1 I I #
point $-1 38.242341393361855 -37.227476715790608 15.636496185358395 #
edge $-1 $388 1 $388 0 $216 $-1 forward 7 unknown #
vertex $-1 $217 $389 #
ellipse-curve $-1 41.601432469263884 -36.197019245361162 14.492057247623114 0 -0.66913061440640931 0.74314481823134659 1 0 0 1 I I #
point $-1 42.601432469263884 -37.227476715790608 15.636496185358395 #
plane-surface $-1 65.325479903561501 0 0 -1 0 0 0 0 1 forward_v I I I I #
coedge $-1 $225 $223 $227 $328 reversed $141 $-1 #
edge $-1 $238 -17.732692042417181 $330 17.732692042417181 $237 $390 forward 7 unknown #
vertex $-1 $328 $391 #
straight-curve $-1 -65.325479903561501 -39.555538017474085 0 0 0 -1 I I #
edge $-1 $326 -39.555538017474085 $330 39.555538017474085 $324 $392 forward 7 unknown #
straight-curve $-1 0 -39.555538017474085 -17.732692042417181 -1 0 0 I I #
vertex $-1 $230 $393 #
straight-curve $-1 0 39.555538017474085 -17.732692042417181 1 0 0 I I #
point $-1 65.325479903561501 39.555538017474085 -17.732692042417181 #
point $-1 65.325479903561501 -39.555538017474085 -17.732692042417181 #
straight-curve $-1 -65.325479903561501 0 17.732692042417181 0 -1 0 I I #
point $-1 -65.325479903561501 39.555538017474085 17.732692042417181 #
point $-1 -65.325479903561501 -39.555538017474085 17.732692042417181 #
straight-curve $-1 65.325479903561501 -39.555538017474085 0 0 0 -1 I I #
straight-curve $-1 65.325479903561501 39.555538017474085 0 0 0 -1 I I #
plane-surface $-1 0 -39.555538017474085 0 0 1 0 0 0 1 forward_v I I I I #
coedge $-1 $394 $250 $260 $351 reversed $160 $-1 #
coedge $-1 $250 $394 $263 $353 forward $160 $-1 #
coedge $-1 $395 $253 $251 $343 forward $248 $-1 #
edge $-1 $344 44.507493186531917 $396 65.325479903561501 $251 $397 forward 7 unknown #
vertex $-1 $343 $398 #
straight-curve $-1 -44.507493186531917 39.555538017474085 7.8389517157205422 0 0 -1 I I #
coedge $-1 $253 $395 $255 $348 forward $248 $-1 #
straight-curve $-1 -44.507493186531917 0 17.732692042417181 0 1 0 I I #
edge $-1 $399 -65.325479903561501 $257 -44.507493186531917 $255 $400 forward 7 unknown #
point $-1 -44.507493186531917 -39.555538017474085 17.732692042417181 #
straight-curve $-1 -65.325479903561501 0 13.623114820464988 0 -1 0 I I #
edge $-1 $399 -17.732692042417181 $261 -13.623114820464988 $340 $401 forward 7 unknown #
point $-1 -65.325479903561501 -39.555538017474085 13.623114820464988 #
edge $-1 $396 -17.732692042417181 $264 -13.623114820464988 $263 $402 forward 7 unknown #
point $-1 -65.325479903561501 39.555538017474085 13.623114820464988 #
plane-surface $-1 65.325479903561501 0 0 -1 0 0 0 0 1 forward_v I I I I #
coedge $-1 $271 $282 $272 $358 reversed $176 $-1 #
coedge $-1 $273 $272 $288 $368 forward $104 $-1 #
edge $-1 $279 44.507493186531917 $371 65.325479903561501 $356 $403 forward 7 unknown #
coedge $-1 $285 $275 $273 $360 reversed $269 $-1 #
edge $-1 $369 -65.325479903561501 $278 -44.507493186531917 $359 $404 forward 7 unknown #
straight-curve $-1 44.507493186531917 39.555538017474085 7.8389517157205422 0 0 1 I I #
straight-curve $-1 44.507493186531917 -39.555538017474085 7.8389517157205422 0 0 -1 I I #
point $-1 44.507493186531917 39.555538017474085 17.732692042417181 #
point $-1 44.507493186531917 -39.555538017474085 17.732692042417181 #
straight-curve $-1 44.507493186531917 0 13.623114820464988 0 1 0 I I #
point $-1 44.507493186531917 -39.555538017474085 13.623114820464988 #
point $-1 44.507493186531917 39.555538017474085 13.623114820464988 #
edge $-1 $371 -39.555538017474085 $369 39.555538017474085 $288 $405 forward 7 unknown #
vertex $-1 $368 $406 #
straight-curve $-1 65.325479903561501 39.555538017474085 0 0 0 -1 I I #
vertex $-1 $368 $407 #
straight-curve $-1 65.325479903561501 -39.555538017474085 0 0 0 -1 I I #
coedge $-1 $295 $377 $297 $375 reversed $194 $-1 #
straight-curve $-1 29.977189600191814 -39.555538017474085 55.316442052957491 0 0 -1 I I #
edge $-1 $298 29.977189600191814 $382 44.507493186531917 $373 $408 forward 7 unknown #
point $-1 29.977189600191814 -39.555538017474085 17.732692042417181 #
coedge $-1 $373 $300 $303 $379 forward $194 $-1 #
straight-curve $-1 18.621170696680934 -39.555538017474085 13.54030032829958 1 0 0 I I #
edge $-1 $304 -41.776141724657919 $382 -37.583750010540314 $377 $409 forward 7 unknown #
point $-1 44.507493186531924 -39.555538017474085 13.540300328299574 #
point $-1 29.977189600191814 -39.555538017474085 13.540300328299574 #
vertex $-1 $308 $410 #
straight-curve $-1 44.507493186531917 0 17.732692042417181 0 1 0 I I #
vertex $-1 $311 $411 #
point $-1 33.883250317459826 -36.197019245361162 14.492057247623114 #
vertex $-1 $315 $412 #
point $-1 38.242341393361855 -36.197019245361162 14.492057247623114 #
vertex $-1 $319 $413 #
point $-1 42.601432469263884 -36.197019245361162 14.492057247623114 #
straight-curve $-1 -65.325479903561501 39.555538017474085 0 0 0 -1 I I #
point $-1 -65.325479903561501 -39.555538017474085 -17.732692042417181 #
straight-curve $-1 -65.325479903561501 0 -17.732692042417181 0 1 0 I I #
point $-1 -65.325479903561501 39.555538017474085 -17.732692042417181 #
coedge $-1 $341 $340 $395 $414 reversed $160 $-1 #
coedge $-1 $346 $342 $394 $414 forward $248 $-1 #
vertex $-1 $343 $415 #
straight-curve $-1 0 39.555538017474085 17.732692042417181 -1 0 0 I I #
point $-1 -44.507493186531917 39.555538017474085 17.732692042417181 #
vertex $-1 $414 $416 #
straight-curve $-1 0 -39.555538017474085 17.732692042417181 1 0 0 I I #
straight-curve $-1 -65.325479903561501 -39.555538017474085 0 0 0 -1 I I #
straight-curve $-1 -65.325479903561501 39.555538017474085 0 0 0 -1 I I #
straight-curve $-1 0 -39.555538017474085 17.732692042417181 1 0 0 I I #
straight-curve $-1 0 39.555538017474085 17.732692042417181 -1 0 0 I I #
straight-curve $-1 65.325479903561501 0 17.732692042417181 0 1 0 I I #
point $-1 65.325479903561501 39.555538017474085 17.732692042417181 #
point $-1 65.325479903561501 -39.555538017474085 17.732692042417181 #
straight-curve $-1 0 -39.555538017474085 17.732692042417181 1 0 0 I I #
straight-curve $-1 44.507493186531924 -39.555538017474085 55.316442052957491 0 0 1 I I #
point $-1 44.507493186531917 -39.555538017474085 17.732692042417181 #
point $-1 32.883250317459826 -35.527888630954749 13.748912429391767 #
point $-1 37.242341393361855 -35.527888630954749 13.748912429391767 #
point $-1 41.601432469263884 -35.527888630954749 13.748912429391767 #
edge $-1 $396 -39.555538017474085 $399 39.555538017474085 $394 $417 forward 7 unknown #
point $-1 -65.325479903561501 39.555538017474085 17.732692042417181 #
point $-1 -65.325479903561501 -39.555538017474085 17.732692042417181 #
straight-curve $-1 -65.325479903561501 0 17.732692042417181 0 -1 0 I I #
End-of-ACIS-data 