500 0 11 0           
7 Unknown 11 ACIS 5.0 NT 24 Fri Mar 26 18:43:33 1999 
-1 9.9999999999999995e-007 1e-010 
body $-1 $11 $-1 $12 #
body $-1 $13 $-1 $14 #
body $-1 $15 $-1 $16 #
body $-1 $17 $-1 $18 #
body $-1 $19 $-1 $20 #
body $-1 $21 $-1 $22 #
body $-1 $23 $-1 $24 #
body $-1 $25 $-1 $26 #
body $-1 $27 $-1 $28 #
body $-1 $29 $-1 $30 #
body $-1 $31 $-1 $32 #
lump $-1 $-1 $33 $0 #
transform $-1 1 0 0 0 1 0 0 0 1 72.729270302438437 32.622186264932971 15.627129328517116 1 rotate no_reflect no_shear #
lump $-1 $-1 $34 $1 #
transform $-1 1 0 0 0 1 0 0 0 1 72.729270302438437 32.622186264932971 15.627129328517116 1 rotate no_reflect no_shear #
lump $-1 $-1 $35 $2 #
transform $-1 1 0 0 0 1 0 0 0 1 72.729270302438437 32.622186264932971 15.627129328517116 1 rotate no_reflect no_shear #
lump $-1 $-1 $36 $3 #
transform $-1 1 0 0 0 1 0 0 0 1 72.729270302438437 32.622186264932971 15.627129328517116 1 rotate no_reflect no_shear #
lump $-1 $-1 $37 $4 #
transform $-1 1 0 0 0 1 0 0 0 1 72.729270302438437 32.622186264932971 15.627129328517116 1 rotate no_reflect no_shear #
lump $-1 $-1 $38 $5 #
transform $-1 1 0 0 0 1 0 0 0 1 72.729270302438437 32.622186264932971 15.627129328517116 1 rotate no_reflect no_shear #
lump $-1 $-1 $39 $6 #
transform $-1 1 0 0 0 1 0 0 0 1 72.729270302438437 32.622186264932971 15.627129328517116 1 rotate no_reflect no_shear #
lump $-1 $-1 $40 $7 #
transform $-1 1 0 0 0 1 0 0 0 1 72.729270302438437 32.622186264932971 15.627129328517116 1 rotate no_reflect no_shear #
lump $-1 $-1 $41 $8 #
transform $-1 1 0 0 0 1 0 0 0 1 72.729270302438437 32.622186264932971 15.627129328517116 1 rotate no_reflect no_shear #
lump $-1 $-1 $42 $9 #
transform $-1 1 0 0 0 1 0 0 0 1 72.729270302438437 32.622186264932971 15.627129328517116 1 rotate no_reflect no_shear #
lump $-1 $-1 $43 $10 #
transform $-1 1 0 0 0 1 0 0 0 1 72.729270302438437 32.622186264932971 15.627129328517116 1 rotate no_reflect no_shear #
shell $-1 $-1 $-1 $44 $-1 $11 #
shell $-1 $-1 $-1 $45 $-1 $13 #
shell $-1 $-1 $-1 $46 $-1 $15 #
shell $-1 $-1 $-1 $47 $-1 $17 #
shell $-1 $-1 $-1 $48 $-1 $19 #
shell $-1 $-1 $-1 $49 $-1 $21 #
shell $-1 $-1 $-1 $50 $-1 $23 #
shell $-1 $-1 $-1 $51 $-1 $25 #
shell $-1 $-1 $-1 $52 $-1 $27 #
shell $-1 $-1 $-1 $53 $-1 $29 #
shell $-1 $-1 $-1 $54 $-1 $31 #
face $-1 $55 $56 $33 $-1 $57 forward single #
face $-1 $58 $59 $34 $-1 $60 reversed single #
face $-1 $61 $62 $35 $-1 $63 forward single #
face $-1 $64 $65 $36 $-1 $66 forward single #
face $-1 $67 $68 $37 $-1 $69 reversed single #
face $-1 $70 $71 $38 $-1 $72 forward single #
face $-1 $73 $74 $39 $-1 $75 forward single #
face $-1 $76 $77 $40 $-1 $78 reversed single #
face $-1 $79 $80 $41 $-1 $81 forward single #
face $-1 $82 $83 $42 $-1 $84 forward single #
face $-1 $85 $86 $43 $-1 $87 forward single #
face $-1 $88 $89 $33 $-1 $90 reversed single #
loop $-1 $-1 $91 $44 #
plane-surface $-1 0 0 15.627129328517116 0 0 1 1 0 0 forward_v I I I I #
face $-1 $92 $93 $34 $-1 $94 reversed single #
loop $-1 $-1 $95 $45 #
plane-surface $-1 -11.512711215989064 -159.84309355882129 76.299729961157439 -1 0 0 0 -0.87461971476443456 0.48480960649040278 forward_v I I I I #
face $-1 $96 $97 $35 $-1 $98 forward single #
loop $-1 $99 $100 $46 #
cone-surface $-1 -35.373292158742842 -27.933619211721346 9.6174678354603724 0 0.87461971476443456 -0.48480960649040278 2.5 0 0 1 I I 0 1 2.5 forward I I I I #
face $-1 $101 $102 $36 $-1 $103 forward single #
loop $-1 $104 $105 $47 #
cone-surface $-1 -21.056943593090573 -27.933619211721346 9.6174678354603724 0 0.87461971476443456 -0.48480960649040278 2.5 0 0 1 I I 0 1 2.5 forward I I I I #
face $-1 $106 $107 $37 $-1 $108 reversed single #
loop $-1 $-1 $109 $48 #
plane-surface $-1 61.216559086449365 -159.84309355882129 76.299729961157439 -1 0 0 0 -0.87461971476443456 0.48480960649040278 forward_v I I I I #
face $-1 $110 $111 $38 $-1 $112 forward single #
loop $-1 $113 $114 $49 #
cone-surface $-1 37.355978143695594 -27.933619211721346 9.6174678354603724 0 0.87461971476443456 -0.48480960649040278 2.5 0 0 1 I I 0 1 2.5 forward I I I I #
face $-1 $115 $116 $39 $-1 $117 forward single #
loop $-1 $118 $119 $50 #
cone-surface $-1 51.672326709347857 -27.933619211721346 9.6174678354603724 0 0.87461971476443456 -0.48480960649040278 2.5 0 0 1 I I 0 1 2.5 forward I I I I #
face $-1 $120 $121 $40 $-1 $122 reversed single #
loop $-1 $-1 $123 $51 #
plane-surface $-1 47.87209393240127 57.126051830121334 159.95035048250105 1 0 0 0 -0.54463904215088732 -0.83867056331134215 forward_v I I I I #
face $-1 $124 $125 $41 $-1 $126 forward single #
loop $-1 $127 $128 $52 #
cone-surface $-1 52.843529206408704 21.264276233071993 7.1894955566078895 0 -0.54463904215088732 -0.83867056331134215 2 0 0 1 I I 0 1 2 forward I I I I #
face $-1 $129 $130 $42 $-1 $131 forward single #
loop $-1 $132 $133 $53 #
cone-surface $-1 60.300682117419854 21.264276233071993 7.1894955566078895 0 -0.54463904215088732 -0.83867056331134215 2 0 0 1 I I 0 1 2 forward I I I I #
face $-1 $134 $135 $43 $-1 $136 forward single #
loop $-1 $137 $138 $54 #
cone-surface $-1 67.757835028431003 21.264276233071993 7.1894955566078895 0 -0.54463904215088732 -0.83867056331134215 2 0 0 1 I I 0 1 2 forward I I I I #
face $-1 $139 $140 $33 $-1 $141 reversed single #
loop $-1 $-1 $142 $55 #
plane-surface $-1 0 0 -15.627129328517116 0 0 1 1 0 0 forward_v I I I I #
coedge $-1 $143 $144 $145 $146 forward $56 $-1 #
face $-1 $147 $148 $34 $-1 $149 reversed single #
loop $-1 $-1 $150 $58 #
plane-surface $-1 -28.215117875916711 -32.622186264932964 5.7800321298388013 0 -0.87461971476443456 0.48480960649040278 1 0 0 forward_v I I I I #
coedge $-1 $151 $152 $153 $154 reversed $59 $-1 #
face $-1 $-1 $155 $35 $-1 $156 forward single #
loop $-1 $157 $158 $61 #
cone-surface $-1 -35.373292158742842 -24.880944967705172 7.9253429336297803 0 0.87461971476443456 -0.48480960649040278 1.25 0 0 1 I I -0.70710678118654746 0.70710678118654746 1.25 forward I I I I #
loop $-1 $-1 $159 $46 #
coedge $-1 $100 $100 $160 $161 reversed $62 $-1 #
face $-1 $-1 $162 $36 $-1 $163 forward single #
loop $-1 $164 $165 $64 #
cone-surface $-1 -21.056943593090573 -24.880944967705172 7.9253429336297803 0 0.87461971476443456 -0.48480960649040278 1.25 0 0 1 I I -0.70710678118654746 0.70710678118654746 1.25 forward I I I I #
loop $-1 $-1 $166 $47 #
coedge $-1 $105 $105 $167 $168 reversed $65 $-1 #
face $-1 $169 $170 $37 $-1 $171 reversed single #
loop $-1 $-1 $172 $67 #
plane-surface $-1 44.514152426521719 -32.622186264932964 5.7800321298388013 0 -0.87461971476443456 0.48480960649040278 1 0 0 forward_v I I I I #
coedge $-1 $173 $174 $175 $176 reversed $68 $-1 #
face $-1 $-1 $177 $38 $-1 $178 forward single #
loop $-1 $179 $180 $70 #
cone-surface $-1 37.355978143695594 -24.880944967705172 7.9253429336297803 0 0.87461971476443456 -0.48480960649040278 1.25 0 0 1 I I -0.70710678118654746 0.70710678118654746 1.25 forward I I I I #
loop $-1 $-1 $181 $49 #
coedge $-1 $114 $114 $182 $183 reversed $71 $-1 #
face $-1 $-1 $184 $39 $-1 $185 forward single #
loop $-1 $186 $187 $73 #
cone-surface $-1 51.672326709347857 -24.880944967705172 7.9253429336297803 0 0.87461971476443456 -0.48480960649040278 1.25 0 0 1 I I -0.70710678118654746 0.70710678118654746 1.25 forward I I I I #
loop $-1 $-1 $188 $50 #
coedge $-1 $119 $119 $189 $190 reversed $74 $-1 #
face $-1 $191 $192 $40 $-1 $193 forward single #
loop $-1 $-1 $194 $76 #
plane-surface $-1 60.300682117419854 -22.096348397584755 37.958554294963221 0 0.54463904215088732 0.83867056331134215 1 0 0 forward_v I I I I #
coedge $-1 $195 $196 $197 $198 reversed $77 $-1 #
face $-1 $-1 $199 $41 $-1 $200 forward single #
loop $-1 $201 $202 $79 #
cone-surface $-1 52.843529206408704 19.527305361652274 4.5147950183651897 0 -0.54463904215088732 -0.83867056331134215 1 0 0 1 I I -0.70710678118654746 0.70710678118654746 1 forward I I I I #
loop $-1 $-1 $203 $52 #
coedge $-1 $128 $128 $204 $205 reversed $80 $-1 #
face $-1 $-1 $206 $42 $-1 $207 forward single #
loop $-1 $208 $209 $82 #
cone-surface $-1 60.300682117419854 19.527305361652274 4.5147950183651897 0 -0.54463904215088732 -0.83867056331134215 1 0 0 1 I I -0.70710678118654746 0.70710678118654746 1 forward I I I I #
loop $-1 $-1 $210 $53 #
coedge $-1 $133 $133 $211 $212 reversed $83 $-1 #
face $-1 $-1 $213 $43 $-1 $214 forward single #
loop $-1 $215 $216 $85 #
cone-surface $-1 67.757835028431003 19.527305361652274 4.5147950183651897 0 -0.54463904215088732 -0.83867056331134215 1 0 0 1 I I -0.70710678118654746 0.70710678118654746 1 forward I I I I #
loop $-1 $-1 $217 $54 #
coedge $-1 $138 $138 $218 $219 reversed $86 $-1 #
face $-1 $220 $221 $33 $-1 $222 reversed single #
loop $-1 $-1 $223 $88 #
plane-surface $-1 0 -32.622186264932971 0 0 1 0 0 0 1 forward_v I I I I #
coedge $-1 $224 $225 $226 $227 forward $89 $-1 #
coedge $-1 $228 $91 $229 $230 forward $56 $-1 #
coedge $-1 $91 $228 $231 $232 forward $56 $-1 #
coedge $-1 $233 $234 $91 $146 reversed $235 $-1 #
edge $-1 $236 -32.622186264932971 $237 32.622186264932971 $145 $238 forward 7 unknown #
face $-1 $239 $240 $34 $-1 $241 reversed single #
loop $-1 $-1 $242 $92 #
plane-surface $-1 -44.917524535844358 -159.84309355882129 76.299729961157439 1 0 0 0 0.87461971476443456 -0.48480960649040278 forward_v I I I I #
coedge $-1 $243 $244 $245 $246 reversed $93 $-1 #
coedge $-1 $152 $95 $247 $248 reversed $59 $-1 #
coedge $-1 $95 $151 $243 $249 reversed $59 $-1 #
coedge $-1 $245 $250 $95 $154 forward $251 $-1 #
edge $-1 $252 47.299360514477677 $253 52.757695419779672 $153 $254 forward 7 unknown #
loop $-1 $-1 $160 $96 #
plane-surface $-1 -28.215117875916711 -32.622186264932964 5.7800321298388013 0 -0.87461971476443456 0.48480960649040278 1 0 0 forward_v I I I I #
loop $-1 $-1 $255 $61 #
coedge $-1 $158 $158 $159 $256 reversed $97 $-1 #
coedge $-1 $159 $159 $158 $256 forward $99 $-1 #
coedge $-1 $160 $160 $100 $161 forward $155 $-1 #
edge $-1 $257 -8.2395829495393081e-016 $257 6.2831853071795996 $160 $258 forward 7 unknown #
loop $-1 $-1 $167 $101 #
plane-surface $-1 -28.215117875916711 -32.622186264932964 5.7800321298388013 0 -0.87461971476443456 0.48480960649040278 1 0 0 forward_v I I I I #
loop $-1 $-1 $259 $64 #
coedge $-1 $165 $165 $166 $260 reversed $102 $-1 #
coedge $-1 $166 $166 $165 $260 forward $104 $-1 #
coedge $-1 $167 $167 $105 $168 forward $162 $-1 #
edge $-1 $261 -8.2395829495393081e-016 $261 6.2831853071795996 $167 $262 forward 7 unknown #
face $-1 $263 $264 $37 $-1 $265 reversed single #
loop $-1 $-1 $266 $106 #
plane-surface $-1 27.811745766594072 -159.84309355882129 76.299729961157439 1 0 0 0 0.87461971476443456 -0.48480960649040278 forward_v I I I I #
coedge $-1 $267 $268 $269 $270 reversed $107 $-1 #
coedge $-1 $174 $109 $271 $272 reversed $68 $-1 #
coedge $-1 $109 $173 $267 $273 reversed $68 $-1 #
coedge $-1 $269 $274 $109 $176 forward $275 $-1 #
edge $-1 $276 47.299360514477677 $277 52.757695419779672 $175 $278 forward 7 unknown #
loop $-1 $-1 $182 $110 #
plane-surface $-1 44.514152426521719 -32.622186264932964 5.7800321298388013 0 -0.87461971476443456 0.48480960649040278 1 0 0 forward_v I I I I #
loop $-1 $-1 $279 $70 #
coedge $-1 $180 $180 $181 $280 reversed $111 $-1 #
coedge $-1 $181 $181 $180 $280 forward $113 $-1 #
coedge $-1 $182 $182 $114 $183 forward $177 $-1 #
edge $-1 $281 -8.2395829495393081e-016 $281 6.2831853071795996 $182 $282 forward 7 unknown #
loop $-1 $-1 $189 $115 #
plane-surface $-1 44.514152426521719 -32.622186264932964 5.7800321298388013 0 -0.87461971476443456 0.48480960649040278 1 0 0 forward_v I I I I #
loop $-1 $-1 $283 $73 #
coedge $-1 $187 $187 $188 $284 reversed $116 $-1 #
coedge $-1 $188 $188 $187 $284 forward $118 $-1 #
coedge $-1 $189 $189 $119 $190 forward $184 $-1 #
edge $-1 $285 -8.2395829495393081e-016 $285 6.2831853071795996 $189 $286 forward 7 unknown #
face $-1 $287 $288 $40 $-1 $289 reversed single #
loop $-1 $-1 $197 $120 #
plane-surface $-1 0 0 15.627129328517116 0 0 1 1 0 0 forward_v I I I I #
coedge $-1 $290 $291 $292 $293 reversed $121 $-1 #
coedge $-1 $196 $123 $294 $295 reversed $77 $-1 #
coedge $-1 $123 $195 $290 $296 reversed $77 $-1 #
coedge $-1 $292 $297 $123 $198 forward $192 $-1 #
edge $-1 $298 -4.0591603498723039 $299 16.271996055311991 $197 $300 forward 7 unknown #
loop $-1 $-1 $204 $124 #
plane-surface $-1 60.300682117419854 -22.096348397584755 37.958554294963221 0 0.54463904215088732 0.83867056331134215 1 0 0 forward_v I I I I #
loop $-1 $-1 $301 $79 #
coedge $-1 $202 $202 $203 $302 reversed $125 $-1 #
coedge $-1 $203 $203 $202 $302 forward $127 $-1 #
coedge $-1 $204 $204 $128 $205 forward $199 $-1 #
edge $-1 $303 -4.83736643764565e-016 $303 6.2831853071795996 $204 $304 forward 7 unknown #
loop $-1 $-1 $211 $129 #
plane-surface $-1 60.300682117419854 -22.096348397584755 37.958554294963221 0 0.54463904215088732 0.83867056331134215 1 0 0 forward_v I I I I #
loop $-1 $-1 $305 $82 #
coedge $-1 $209 $209 $210 $306 reversed $130 $-1 #
coedge $-1 $210 $210 $209 $306 forward $132 $-1 #
coedge $-1 $211 $211 $133 $212 forward $206 $-1 #
edge $-1 $307 -4.83736643764565e-016 $307 6.2831853071795996 $211 $308 forward 7 unknown #
loop $-1 $-1 $218 $134 #
plane-surface $-1 60.300682117419854 -22.096348397584755 37.958554294963221 0 0.54463904215088732 0.83867056331134215 1 0 0 forward_v I I I I #
loop $-1 $-1 $309 $85 #
coedge $-1 $216 $216 $217 $310 reversed $135 $-1 #
coedge $-1 $217 $217 $216 $310 forward $137 $-1 #
coedge $-1 $218 $218 $138 $219 forward $213 $-1 #
edge $-1 $311 -4.83736643764565e-016 $311 6.2831853071795996 $218 $312 forward 7 unknown #
face $-1 $313 $314 $33 $-1 $315 reversed single #
loop $-1 $-1 $316 $139 #
plane-surface $-1 -72.729270302438437 0 0 1 0 0 0 0 -1 forward_v I I I I #
coedge $-1 $317 $231 $318 $319 forward $140 $-1 #
coedge $-1 $320 $142 $317 $321 forward $89 $-1 #
coedge $-1 $142 $320 $322 $323 forward $89 $-1 #
coedge $-1 $234 $233 $142 $227 reversed $235 $-1 #
edge $-1 $324 -32.622186264932971 $325 32.622186264932971 $226 $326 forward 7 unknown #
coedge $-1 $144 $143 $327 $328 forward $56 $-1 #
coedge $-1 $329 $330 $143 $230 reversed $314 $-1 #
edge $-1 $237 -72.729270302438437 $331 72.729270302438437 $229 $332 forward 7 unknown #
coedge $-1 $223 $333 $144 $232 reversed $140 $-1 #
edge $-1 $334 -72.729270302438437 $236 72.729270302438437 $231 $335 forward 7 unknown #
coedge $-1 $226 $145 $333 $336 forward $235 $-1 #
coedge $-1 $145 $226 $329 $337 reversed $235 $-1 #
loop $-1 $-1 $233 $313 #
vertex $-1 $146 $338 #
vertex $-1 $146 $339 #
straight-curve $-1 72.729270302438437 0 15.627129328517116 0 1 0 I I #
face $-1 $-1 $251 $34 $-1 $340 forward single #
loop $-1 $-1 $341 $147 #
plane-surface $-1 0 -32.622186264932971 0 0 1 0 0 0 1 forward_v I I I I #
coedge $-1 $342 $343 $344 $345 reversed $148 $-1 #
coedge $-1 $346 $150 $152 $249 forward $93 $-1 #
coedge $-1 $150 $346 $342 $347 forward $93 $-1 #
coedge $-1 $344 $153 $150 $246 forward $251 $-1 #
edge $-1 $253 -2.5948477219692911 $348 30.809965597886002 $245 $349 forward 7 unknown #
coedge $-1 $350 $351 $151 $248 forward $240 $-1 #
edge $-1 $352 -32.369832850739932 $252 -22.522735652061606 $247 $353 forward 7 unknown #
edge $-1 $253 -11.258718540697977 $352 1.4320236426557382e-014 $152 $354 forward 7 unknown #
coedge $-1 $153 $344 $350 $355 forward $251 $-1 #
loop $-1 $-1 $344 $239 #
vertex $-1 $248 $356 #
vertex $-1 $154 $357 #
straight-curve $-1 -11.512711215989064 -79.921546779410647 15.627129328517114 0 1 0 I I #
coedge $-1 $255 $255 $-1 $358 reversed $157 $-1 #
edge $-1 $359 0 $359 6.2831853071796004 $158 $360 forward 7 unknown #
vertex $-1 $161 $361 #
ellipse-curve $-1 -35.373292158742842 -29.893018812281969 10.703580729177958 0 -0.87461971476443456 0.48480960649040278 2.5 0 0 1 I I #
coedge $-1 $259 $259 $-1 $362 reversed $164 $-1 #
edge $-1 $363 0 $363 6.2831853071796004 $165 $364 forward 7 unknown #
vertex $-1 $168 $365 #
ellipse-curve $-1 -21.056943593090573 -29.893018812281969 10.703580729177958 0 -0.87461971476443456 0.48480960649040278 2.5 0 0 1 I I #
face $-1 $-1 $275 $37 $-1 $366 forward single #
loop $-1 $-1 $367 $169 #
plane-surface $-1 0 -32.622186264932971 0 0 1 0 0 0 1 forward_v I I I I #
coedge $-1 $368 $369 $370 $371 reversed $170 $-1 #
coedge $-1 $372 $172 $174 $273 forward $107 $-1 #
coedge $-1 $172 $372 $368 $373 forward $107 $-1 #
coedge $-1 $370 $175 $172 $270 forward $275 $-1 #
edge $-1 $277 -38.959482873188506 $374 -5.5546695533332127 $269 $375 forward 7 unknown #
coedge $-1 $376 $377 $173 $272 forward $264 $-1 #
edge $-1 $378 -32.369832850739932 $276 -22.522735652061606 $271 $379 forward 7 unknown #
edge $-1 $277 -11.258718540697977 $378 1.4320236426557382e-014 $174 $380 forward 7 unknown #
coedge $-1 $175 $370 $376 $381 forward $275 $-1 #
loop $-1 $-1 $370 $263 #
vertex $-1 $272 $382 #
vertex $-1 $176 $383 #
straight-curve $-1 61.216559086449365 -79.921546779410647 15.627129328517114 0 1 0 I I #
coedge $-1 $279 $279 $-1 $384 reversed $179 $-1 #
edge $-1 $385 0 $385 6.2831853071796004 $180 $386 forward 7 unknown #
vertex $-1 $183 $387 #
ellipse-curve $-1 37.355978143695594 -29.893018812281969 10.703580729177958 0 -0.87461971476443456 0.48480960649040278 2.5 0 0 1 I I #
coedge $-1 $283 $283 $-1 $388 reversed $186 $-1 #
edge $-1 $389 0 $389 6.2831853071796004 $187 $390 forward 7 unknown #
vertex $-1 $190 $391 #
ellipse-curve $-1 51.672326709347857 -29.893018812281969 10.703580729177958 0 -0.87461971476443456 0.48480960649040278 2.5 0 0 1 I I #
face $-1 $-1 $392 $40 $-1 $393 reversed single #
loop $-1 $-1 $294 $191 #
plane-surface $-1 0 32.622186264932971 0 0 -1 0 0 0 -1 forward_v I I I I #
coedge $-1 $394 $194 $196 $296 forward $121 $-1 #
coedge $-1 $194 $394 $395 $396 reversed $121 $-1 #
coedge $-1 $397 $197 $194 $293 forward $192 $-1 #
edge $-1 $299 17.721752873691344 $398 42.57892924372851 $292 $399 forward 7 unknown #
coedge $-1 $400 $401 $195 $295 forward $288 $-1 #
edge $-1 $402 -77.551253506689164 $298 -64.348045912733411 $294 $403 forward 7 unknown #
edge $-1 $299 41.002247797467646 $402 65.244372529865942 $196 $404 forward 7 unknown #
coedge $-1 $197 $397 $400 $405 forward $192 $-1 #
vertex $-1 $295 $406 #
vertex $-1 $198 $407 #
straight-curve $-1 47.87209393240127 28.563025915060667 15.627129328517114 0 -1 0 I I #
coedge $-1 $301 $301 $-1 $408 reversed $201 $-1 #
edge $-1 $409 0 $409 6.2831853071796004 $202 $410 forward 7 unknown #
vertex $-1 $205 $411 #
ellipse-curve $-1 52.843529206408704 22.45660806234082 9.0255255315392464 0 0.54463904215088732 0.83867056331134215 2 0 0 1 I I #
coedge $-1 $305 $305 $-1 $412 reversed $208 $-1 #
edge $-1 $413 0 $413 6.2831853071796004 $209 $414 forward 7 unknown #
vertex $-1 $212 $415 #
ellipse-curve $-1 60.300682117419854 22.45660806234082 9.0255255315392464 0 0.54463904215088732 0.83867056331134215 2 0 0 1 I I #
coedge $-1 $309 $309 $-1 $416 reversed $215 $-1 #
edge $-1 $417 0 $417 6.2831853071796004 $216 $418 forward 7 unknown #
vertex $-1 $219 $419 #
ellipse-curve $-1 67.757835028431003 22.45660806234082 9.0255255315392464 0 0.54463904215088732 0.83867056331134215 2 0 0 1 I I #
face $-1 $-1 $235 $33 $-1 $420 reversed single #
loop $-1 $-1 $329 $220 #
plane-surface $-1 0 32.622186264932971 0 0 -1 0 0 0 -1 forward_v I I I I #
coedge $-1 $421 $327 $330 $422 forward $221 $-1 #
coedge $-1 $333 $223 $224 $321 reversed $140 $-1 #
coedge $-1 $327 $421 $223 $319 reversed $221 $-1 #
edge $-1 $334 -15.627129328517116 $423 15.627129328517116 $318 $424 forward 7 unknown #
coedge $-1 $225 $224 $421 $425 forward $89 $-1 #
edge $-1 $325 -72.729270302438437 $423 72.729270302438437 $317 $426 forward 7 unknown #
coedge $-1 $330 $329 $225 $323 reversed $314 $-1 #
edge $-1 $427 -72.729270302438437 $324 72.729270302438437 $322 $428 forward 7 unknown #
vertex $-1 $227 $429 #
vertex $-1 $336 $430 #
straight-curve $-1 72.729270302438437 0 -15.627129328517116 0 -1 0 I I #
coedge $-1 $316 $318 $228 $328 reversed $221 $-1 #
edge $-1 $331 -32.622186264932971 $334 32.622186264932971 $327 $431 forward 7 unknown #
coedge $-1 $322 $229 $234 $337 forward $314 $-1 #
coedge $-1 $229 $322 $316 $422 reversed $314 $-1 #
vertex $-1 $230 $432 #
straight-curve $-1 0 32.622186264932971 15.627129328517116 -1 0 0 I I #
coedge $-1 $231 $317 $233 $336 reversed $140 $-1 #
vertex $-1 $328 $433 #
straight-curve $-1 0 -32.622186264932971 15.627129328517116 1 0 0 I I #
edge $-1 $236 -15.627129328517116 $325 15.627129328517116 $233 $434 forward 7 unknown #
edge $-1 $237 -15.627129328517116 $324 15.627129328517116 $234 $435 forward 7 unknown #
point $-1 72.729270302438437 -32.622186264932971 15.627129328517116 #
point $-1 72.729270302438437 32.622186264932971 15.627129328517116 #
plane-surface $-1 0 0 15.627129328517116 0 0 1 1 0 0 forward_v I I I I #
coedge $-1 $351 $350 $343 $436 forward $240 $-1 #
coedge $-1 $343 $242 $244 $347 reversed $148 $-1 #
coedge $-1 $242 $342 $341 $436 reversed $148 $-1 #
coedge $-1 $250 $245 $242 $345 forward $251 $-1 #
edge $-1 $348 -52.757695419779672 $437 -47.299360514477677 $344 $438 forward 7 unknown #
coedge $-1 $244 $243 $351 $439 reversed $93 $-1 #
edge $-1 $440 -1.4320236426557382e-014 $348 11.258718540697977 $342 $441 forward 7 unknown #
vertex $-1 $246 $442 #
straight-curve $-1 -14.107558937958355 -27.163851359630982 15.627129328517116 -1 0 0 I I #
coedge $-1 $341 $247 $250 $355 reversed $240 $-1 #
coedge $-1 $247 $341 $346 $439 forward $240 $-1 #
vertex $-1 $248 $443 #
straight-curve $-1 -11.512711215989064 -32.622186264932971 38.14986498057872 0 0 1 I I #
straight-curve $-1 -11.512711215989064 -32.622186264932964 5.7800321298388013 0 -0.48480960649040278 -0.87461971476443456 I I #
edge $-1 $437 -44.917524535844358 $252 -11.512711215989064 $350 $444 forward 7 unknown #
point $-1 -11.512711215989064 -32.622186264932971 15.627129328517116 #
point $-1 -11.512711215989064 -27.163851359630975 15.627129328517116 #
edge $-1 $445 1 $445 0 $255 $-1 forward 7 unknown #
vertex $-1 $256 $446 #
ellipse-curve $-1 -35.373292158742842 -25.974219611160716 8.5313549417427836 0 -0.87461971476443456 0.48480960649040278 2.5 0 0 1 I I #
point $-1 -32.873292158742842 -29.89301881228198 10.703580729177961 #
edge $-1 $447 1 $447 0 $259 $-1 forward 7 unknown #
vertex $-1 $260 $448 #
ellipse-curve $-1 -21.056943593090573 -25.974219611160716 8.5313549417427836 0 -0.87461971476443456 0.48480960649040278 2.5 0 0 1 I I #
point $-1 -18.556943593090573 -29.89301881228198 10.703580729177961 #
plane-surface $-1 0 0 15.627129328517116 0 0 1 1 0 0 forward_v I I I I #
coedge $-1 $377 $376 $369 $449 forward $264 $-1 #
coedge $-1 $369 $266 $268 $373 reversed $170 $-1 #
coedge $-1 $266 $368 $367 $449 reversed $170 $-1 #
coedge $-1 $274 $269 $266 $371 forward $275 $-1 #
edge $-1 $374 -52.757695419779672 $450 -47.299360514477677 $370 $451 forward 7 unknown #
coedge $-1 $268 $267 $377 $452 reversed $107 $-1 #
edge $-1 $453 -1.4320236426557382e-014 $374 11.258718540697977 $368 $454 forward 7 unknown #
vertex $-1 $270 $455 #
straight-curve $-1 22.257076213260859 -27.163851359630982 15.627129328517116 -1 0 0 I I #
coedge $-1 $367 $271 $274 $381 reversed $264 $-1 #
coedge $-1 $271 $367 $372 $452 forward $264 $-1 #
vertex $-1 $272 $456 #
straight-curve $-1 61.216559086449365 -32.622186264932971 38.14986498057872 0 0 1 I I #
straight-curve $-1 61.216559086449365 -32.622186264932964 5.7800321298388013 0 -0.48480960649040278 -0.87461971476443456 I I #
edge $-1 $450 27.811745766594072 $276 61.216559086449365 $376 $457 forward 7 unknown #
point $-1 61.216559086449365 -32.622186264932971 15.627129328517116 #
point $-1 61.216559086449365 -27.163851359630975 15.627129328517116 #
edge $-1 $458 1 $458 0 $279 $-1 forward 7 unknown #
vertex $-1 $280 $459 #
ellipse-curve $-1 37.355978143695594 -25.974219611160716 8.5313549417427836 0 -0.87461971476443456 0.48480960649040278 2.5 0 0 1 I I #
point $-1 39.855978143695594 -29.89301881228198 10.703580729177961 #
edge $-1 $460 1 $460 0 $283 $-1 forward 7 unknown #
vertex $-1 $284 $461 #
ellipse-curve $-1 51.672326709347857 -25.974219611160716 8.5313549417427836 0 -0.87461971476443456 0.48480960649040278 2.5 0 0 1 I I #
point $-1 54.172326709347857 -29.89301881228198 10.703580729177961 #
loop $-1 $-1 $395 $287 #
plane-surface $-1 72.729270302438437 0 0 -1 0 0 0 0 1 forward_v I I I I #
coedge $-1 $291 $290 $401 $462 reversed $121 $-1 #
coedge $-1 $463 $464 $291 $396 forward $392 $-1 #
edge $-1 $398 21.399613992283996 $465 45.641738724682298 $395 $466 forward 7 unknown #
coedge $-1 $297 $292 $464 $467 forward $192 $-1 #
vertex $-1 $467 $468 #
straight-curve $-1 30.150341058709927 12.291029859748674 15.627129328517114 1 0 0 I I #
coedge $-1 $469 $294 $297 $405 reversed $288 $-1 #
coedge $-1 $294 $469 $394 $462 forward $288 $-1 #
vertex $-1 $295 $470 #
straight-curve $-1 47.87209393240127 32.622186264932971 79.975175241250525 0 0 1 I I #
straight-curve $-1 47.87209393240127 -22.096348397584755 37.958554294963221 0 0.83867056331134215 -0.54463904215088732 I I #
edge $-1 $471 -72.729270302438437 $298 -47.87209393240127 $400 $472 forward 7 unknown #
point $-1 47.87209393240127 32.622186264932971 15.627129328517116 #
point $-1 47.87209393240127 12.291029859748676 15.627129328517114 #
edge $-1 $473 1 $473 0 $301 $-1 forward 7 unknown #
vertex $-1 $302 $474 #
ellipse-curve $-1 52.843529206408704 20.071944403803162 5.3534655816765317 0 0.54463904215088732 0.83867056331134215 2 0 0 1 I I #
point $-1 54.843529206408704 22.45660806234082 9.0255255315392482 #
edge $-1 $475 1 $475 0 $305 $-1 forward 7 unknown #
vertex $-1 $306 $476 #
ellipse-curve $-1 60.300682117419854 20.071944403803162 5.3534655816765317 0 0.54463904215088732 0.83867056331134215 2 0 0 1 I I #
point $-1 62.300682117419854 22.45660806234082 9.0255255315392482 #
edge $-1 $477 1 $477 0 $309 $-1 forward 7 unknown #
vertex $-1 $310 $478 #
ellipse-curve $-1 67.757835028431003 20.071944403803162 5.3534655816765317 0 0.54463904215088732 0.83867056331134215 2 0 0 1 I I #
point $-1 69.757835028431003 22.45660806234082 9.0255255315392482 #
plane-surface $-1 72.729270302438437 0 0 -1 0 0 0 0 1 forward_v I I I I #
coedge $-1 $318 $316 $320 $425 reversed $221 $-1 #
edge $-1 $331 -15.627129328517116 $427 15.627129328517116 $330 $479 forward 7 unknown #
vertex $-1 $425 $480 #
straight-curve $-1 -72.729270302438437 -32.622186264932971 0 0 0 -1 I I #
edge $-1 $423 -32.622186264932971 $427 32.622186264932971 $421 $481 forward 7 unknown #
straight-curve $-1 0 -32.622186264932971 -15.627129328517116 -1 0 0 I I #
vertex $-1 $323 $482 #
straight-curve $-1 0 32.622186264932971 -15.627129328517116 1 0 0 I I #
point $-1 72.729270302438437 32.622186264932971 -15.627129328517116 #
point $-1 72.729270302438437 -32.622186264932971 -15.627129328517116 #
straight-curve $-1 -72.729270302438437 0 15.627129328517116 0 -1 0 I I #
point $-1 -72.729270302438437 32.622186264932971 15.627129328517116 #
point $-1 -72.729270302438437 -32.622186264932971 15.627129328517116 #
straight-curve $-1 72.729270302438437 -32.622186264932971 0 0 0 -1 I I #
straight-curve $-1 72.729270302438437 32.622186264932971 0 0 0 -1 I I #
edge $-1 $437 22.522735652061606 $440 32.369832850739932 $341 $483 forward 7 unknown #
vertex $-1 $355 $484 #
straight-curve $-1 -44.917524535844358 -79.921546779410647 15.627129328517114 0 -1 0 I I #
edge $-1 $440 -30.809965597886002 $352 2.5948477219692911 $351 $485 forward 7 unknown #
vertex $-1 $439 $486 #
straight-curve $-1 -44.917524535844358 -32.622186264932964 5.7800321298388013 0 0.48480960649040278 0.87461971476443456 I I #
point $-1 -44.917524535844358 -27.163851359630975 15.627129328517116 #
point $-1 -11.512711215989064 -32.622186264932971 5.7800321298387889 #
straight-curve $-1 0 -32.622186264932971 15.627129328517116 1 0 0 I I #
vertex $-1 $358 $487 #
point $-1 -32.873292158742842 -25.974219611160716 8.5313549417427836 #
vertex $-1 $362 $488 #
point $-1 -18.556943593090573 -25.974219611160716 8.5313549417427836 #
edge $-1 $450 22.522735652061606 $453 32.369832850739932 $367 $489 forward 7 unknown #
vertex $-1 $381 $490 #
straight-curve $-1 27.811745766594072 -79.921546779410647 15.627129328517114 0 -1 0 I I #
edge $-1 $453 5.5546695533332127 $378 38.959482873188506 $377 $491 forward 7 unknown #
vertex $-1 $452 $492 #
straight-curve $-1 27.811745766594072 -32.622186264932964 5.7800321298388013 0 0.48480960649040278 0.87461971476443456 I I #
point $-1 27.811745766594072 -27.163851359630975 15.627129328517116 #
point $-1 61.216559086449365 -32.622186264932971 5.7800321298387889 #
straight-curve $-1 0 -32.622186264932971 15.627129328517116 1 0 0 I I #
vertex $-1 $384 $493 #
point $-1 39.855978143695594 -25.974219611160716 8.5313549417427836 #
vertex $-1 $388 $494 #
point $-1 54.172326709347857 -25.974219611160716 8.5313549417427836 #
edge $-1 $465 -42.57892924372851 $402 -17.721752873691344 $401 $495 forward 7 unknown #
coedge $-1 $464 $395 $469 $496 reversed $392 $-1 #
coedge $-1 $395 $463 $397 $467 reversed $392 $-1 #
vertex $-1 $396 $497 #
straight-curve $-1 72.729270302438437 -5.6561964618054255 27.282194595673396 0 0.83867056331134215 -0.54463904215088732 I I #
edge $-1 $398 12.291029859748676 $471 32.622186264932971 $464 $498 forward 7 unknown #
point $-1 72.729270302438437 12.291029859748676 15.627129328517114 #
coedge $-1 $401 $400 $463 $496 forward $288 $-1 #
point $-1 47.87209393240127 32.622186264932971 2.4239217345613682 #
vertex $-1 $467 $499 #
straight-curve $-1 0 32.622186264932971 15.627129328517116 -1 0 0 I I #
vertex $-1 $408 $500 #
point $-1 54.843529206408704 20.071944403803162 5.3534655816765317 #
vertex $-1 $412 $501 #
point $-1 62.300682117419854 20.071944403803162 5.3534655816765317 #
vertex $-1 $416 $502 #
point $-1 69.757835028431003 20.071944403803162 5.3534655816765317 #
straight-curve $-1 -72.729270302438437 32.622186264932971 0 0 0 -1 I I #
point $-1 -72.729270302438437 -32.622186264932971 -15.627129328517116 #
straight-curve $-1 -72.729270302438437 0 -15.627129328517116 0 1 0 I I #
point $-1 -72.729270302438437 32.622186264932971 -15.627129328517116 #
straight-curve $-1 -44.917524535844358 -32.622186264932971 38.14986498057872 0 0 -1 I I #
point $-1 -44.917524535844358 -32.622186264932971 15.627129328517116 #
straight-curve $-1 -14.107558937958355 -32.622186264932971 5.7800321298387889 1 0 0 I I #
point $-1 -44.917524535844358 -32.622186264932971 5.7800321298387889 #
point $-1 -35.373292158742842 -23.787670324249628 7.3193309255167769 #
point $-1 -21.056943593090573 -23.787670324249628 7.3193309255167769 #
straight-curve $-1 27.811745766594072 -32.622186264932971 38.14986498057872 0 0 -1 I I #
point $-1 27.811745766594072 -32.622186264932971 15.627129328517116 #
straight-curve $-1 22.257076213260859 -32.622186264932971 5.7800321298387889 1 0 0 I I #
point $-1 27.811745766594072 -32.622186264932971 5.7800321298387889 #
point $-1 37.355978143695594 -23.787670324249628 7.3193309255167769 #
point $-1 51.672326709347857 -23.787670324249628 7.3193309255167769 #
straight-curve $-1 30.150341058709927 32.622186264932964 2.4239217345613753 -1 0 0 I I #
edge $-1 $471 -15.627129328517116 $465 -2.4239217345613682 $463 $503 forward 7 unknown #
point $-1 72.729270302438437 32.622186264932971 2.4239217345613682 #
straight-curve $-1 72.729270302438437 0 15.627129328517116 0 1 0 I I #
point $-1 72.729270302438437 32.622186264932971 15.627129328517116 #
point $-1 52.843529206408704 18.982666319501387 3.6761244550538477 #
point $-1 60.300682117419854 18.982666319501387 3.6761244550538477 #
point $-1 67.757835028431003 18.982666319501387 3.6761244550538477 #
straight-curve $-1 72.729270302438437 32.622186264932971 0 0 0 -1 I I #
End-of-ACIS-data 