500 0 13 0           
7 Unknown 11 ACIS 5.0 NT 24 Fri Mar 26 18:40:42 1999 
-1 9.9999999999999995e-007 1e-010 
body $-1 $13 $-1 $14 #
body $-1 $15 $-1 $16 #
body $-1 $17 $-1 $18 #
body $-1 $19 $-1 $20 #
body $-1 $21 $-1 $22 #
body $-1 $23 $-1 $24 #
body $-1 $25 $-1 $26 #
body $-1 $27 $-1 $28 #
body $-1 $29 $-1 $30 #
body $-1 $31 $-1 $32 #
body $-1 $33 $-1 $34 #
body $-1 $35 $-1 $36 #
body $-1 $37 $-1 $38 #
lump $-1 $-1 $39 $0 #
transform $-1 1 0 0 0 1 0 0 0 1 68.658101138340399 31.62773448934756 10.828350981026542 1 rotate no_reflect no_shear #
lump $-1 $-1 $40 $1 #
transform $-1 1 0 0 0 1 0 0 0 1 68.658101138340399 31.62773448934756 10.828350981026542 1 rotate no_reflect no_shear #
lump $-1 $-1 $41 $2 #
transform $-1 1 0 0 0 1 0 0 0 1 68.658101138340399 31.62773448934756 10.828350981026542 1 rotate no_reflect no_shear #
lump $-1 $-1 $42 $3 #
transform $-1 1 0 0 0 1 0 0 0 1 68.658101138340399 31.62773448934756 10.828350981026542 1 rotate no_reflect no_shear #
lump $-1 $-1 $43 $4 #
transform $-1 1 0 0 0 1 0 0 0 1 68.658101138340399 31.62773448934756 10.828350981026542 1 rotate no_reflect no_shear #
lump $-1 $-1 $44 $5 #
transform $-1 1 0 0 0 1 0 0 0 1 68.658101138340399 31.62773448934756 10.828350981026542 1 rotate no_reflect no_shear #
lump $-1 $-1 $45 $6 #
transform $-1 1 0 0 0 1 0 0 0 1 68.658101138340399 31.62773448934756 10.828350981026542 1 rotate no_reflect no_shear #
lump $-1 $-1 $46 $7 #
transform $-1 1 0 0 0 1 0 0 0 1 68.658101138340399 31.62773448934756 10.828350981026542 1 rotate no_reflect no_shear #
lump $-1 $-1 $47 $8 #
transform $-1 1 0 0 0 1 0 0 0 1 68.658101138340399 31.62773448934756 10.828350981026542 1 rotate no_reflect no_shear #
lump $-1 $-1 $48 $9 #
transform $-1 1 0 0 0 1 0 0 0 1 68.658101138340399 31.62773448934756 10.828350981026542 1 rotate no_reflect no_shear #
lump $-1 $-1 $49 $10 #
transform $-1 1 0 0 0 1 0 0 0 1 68.658101138340399 31.62773448934756 10.828350981026542 1 rotate no_reflect no_shear #
lump $-1 $-1 $50 $11 #
transform $-1 1 0 0 0 1 0 0 0 1 68.658101138340399 31.62773448934756 10.828350981026542 1 rotate no_reflect no_shear #
lump $-1 $-1 $51 $12 #
transform $-1 1 0 0 0 1 0 0 0 1 68.658101138340399 31.62773448934756 10.828350981026542 1 rotate no_reflect no_shear #
shell $-1 $-1 $-1 $52 $-1 $13 #
shell $-1 $-1 $-1 $53 $-1 $15 #
shell $-1 $-1 $-1 $54 $-1 $17 #
shell $-1 $-1 $-1 $55 $-1 $19 #
shell $-1 $-1 $-1 $56 $-1 $21 #
shell $-1 $-1 $-1 $57 $-1 $23 #
shell $-1 $-1 $-1 $58 $-1 $25 #
shell $-1 $-1 $-1 $59 $-1 $27 #
shell $-1 $-1 $-1 $60 $-1 $29 #
shell $-1 $-1 $-1 $61 $-1 $31 #
shell $-1 $-1 $-1 $62 $-1 $33 #
shell $-1 $-1 $-1 $63 $-1 $35 #
shell $-1 $-1 $-1 $64 $-1 $37 #
face $-1 $65 $66 $39 $-1 $67 forward single #
face $-1 $68 $69 $40 $-1 $70 reversed single #
face $-1 $71 $72 $41 $-1 $73 reversed single #
face $-1 $74 $75 $42 $-1 $76 reversed single #
face $-1 $77 $78 $43 $-1 $79 forward single #
face $-1 $80 $81 $44 $-1 $82 forward single #
face $-1 $83 $84 $45 $-1 $85 forward single #
face $-1 $86 $87 $46 $-1 $88 reversed single #
face $-1 $89 $90 $47 $-1 $91 forward single #
face $-1 $92 $93 $48 $-1 $94 forward single #
face $-1 $95 $96 $49 $-1 $97 forward single #
face $-1 $98 $99 $50 $-1 $100 reversed single #
face $-1 $101 $102 $51 $-1 $103 forward single #
face $-1 $104 $105 $39 $-1 $106 reversed single #
loop $-1 $-1 $107 $52 #
plane-surface $-1 0 0 10.828350981026542 0 0 1 1 0 0 forward_v I I I I #
face $-1 $108 $109 $40 $-1 $110 reversed single #
loop $-1 $-1 $111 $53 #
plane-surface $-1 -50.001399176287315 -26.586518642185123 0 1 0 0 0 0 -1 forward_v I I I I #
face $-1 $112 $113 $41 $-1 $114 reversed single #
loop $-1 $-1 $115 $54 #
plane-surface $-1 -48.501399176287315 21.545302795022689 0 0 1 0 0 0 1 forward_v I I I I #
face $-1 $116 $117 $42 $-1 $118 reversed single #
loop $-1 $-1 $119 $55 #
plane-surface $-1 55.111784138494883 -4.0541636786755451 199.17736646884268 0 -1 0 -0.6560590369687036 0 -0.75470957328743171 forward_v I I I I #
face $-1 $120 $121 $43 $-1 $122 forward single #
loop $-1 $123 $124 $56 #
cone-surface $-1 65.093157062397694 -10.15304963413217 7.5959233904359573 -0.6560590369687036 0 -0.75470957328743171 0.37735478664371586 0 -0.3280295184843518 1 I I 0 1 0.5 forward I I I I #
face $-1 $125 $126 $44 $-1 $127 forward single #
loop $-1 $128 $129 $57 #
cone-surface $-1 65.093157062397694 -7.8659674008359346 7.5959233904359573 -0.6560590369687036 0 -0.75470957328743171 0.37735478664371586 0 -0.3280295184843518 1 I I 0 1 0.5 forward I I I I #
face $-1 $130 $131 $45 $-1 $132 forward single #
loop $-1 $133 $134 $58 #
cone-surface $-1 65.093157062397694 -5.5788851675397026 7.5959233904359573 -0.6560590369687036 0 -0.75470957328743171 0.37735478664371586 0 -0.3280295184843518 1 I I 0 1 0.5 forward I I I I #
face $-1 $135 $136 $46 $-1 $137 reversed single #
loop $-1 $-1 $138 $59 #
plane-surface $-1 55.111784138494883 11.677771122996331 199.17736646884268 0 -1 0 -0.6560590369687036 0 -0.75470957328743171 forward_v I I I I #
face $-1 $139 $140 $47 $-1 $141 forward single #
loop $-1 $142 $143 $60 #
cone-surface $-1 65.093157062397694 5.5788851675397098 7.5959233904359573 -0.6560590369687036 0 -0.75470957328743171 0.37735478664371586 0 -0.3280295184843518 1 I I 0 1 0.5 forward I I I I #
face $-1 $144 $145 $48 $-1 $146 forward single #
loop $-1 $147 $148 $61 #
cone-surface $-1 65.093157062397694 7.8659674008359417 7.5959233904359573 -0.6560590369687036 0 -0.75470957328743171 0.37735478664371586 0 -0.3280295184843518 1 I I 0 1 0.5 forward I I I I #
face $-1 $149 $150 $49 $-1 $151 forward single #
loop $-1 $152 $153 $62 #
cone-surface $-1 65.093157062397694 10.153049634132174 7.5959233904359573 -0.6560590369687036 0 -0.75470957328743171 0.37735478664371586 0 -0.3280295184843518 1 I I 0 1 0.5 forward I I I I #
face $-1 $154 $155 $50 $-1 $156 reversed single #
loop $-1 $-1 $157 $63 #
plane-surface $-1 -158.74563656417928 5.3450644861191208 110.8907316349096 0 1 0 -0.6560590369687036 0 0.75470957328743171 forward_v I I I I #
face $-1 $158 $159 $51 $-1 $160 forward single #
loop $-1 $161 $162 $64 #
cone-surface $-1 -66.275817516933813 11.777684161086924 8.6652603084821411 0.6560590369687036 0 -0.75470957328743171 0.37735478664371586 0 0.3280295184843518 1 I I 0 1 0.5 forward I I I I #
face $-1 $163 $164 $39 $-1 $165 reversed single #
loop $-1 $-1 $166 $65 #
plane-surface $-1 0 0 -10.828350981026542 0 0 1 1 0 0 forward_v I I I I #
coedge $-1 $167 $168 $169 $170 forward $66 $-1 #
face $-1 $171 $172 $40 $-1 $173 reversed single #
loop $-1 $-1 $174 $68 #
plane-surface $-1 -48.501399176287315 -21.545302795022685 0 0 -1 0 0 0 -1 forward_v I I I I #
coedge $-1 $175 $176 $177 $178 forward $69 $-1 #
face $-1 $179 $180 $41 $-1 $181 reversed single #
loop $-1 $-1 $182 $71 #
plane-surface $-1 -50.001399176287315 26.586518642185126 0 1 0 0 0 0 -1 forward_v I I I I #
coedge $-1 $183 $184 $185 $186 forward $72 $-1 #
face $-1 $187 $188 $42 $-1 $189 reversed single #
loop $-1 $-1 $190 $74 #
plane-surface $-1 -34.975751287344025 -7.8659674008359346 95.543514043158254 0.6560590369687036 0 0.75470957328743171 0.75470957328743171 0 -0.6560590369687036 forward_v I I I I #
coedge $-1 $191 $192 $193 $194 reversed $75 $-1 #
face $-1 $-1 $195 $43 $-1 $196 forward single #
loop $-1 $197 $198 $77 #
cone-surface $-1 64.454301880756461 -10.15304963413217 6.8610045883771171 -0.6560590369687036 0 -0.75470957328743171 0.18867739332185793 0 -0.1640147592421759 1 I I -0.70710678118654746 0.70710678118654746 0.25 forward I I I I #
loop $-1 $-1 $199 $56 #
coedge $-1 $124 $124 $200 $201 reversed $78 $-1 #
face $-1 $-1 $202 $44 $-1 $203 forward single #
loop $-1 $204 $205 $80 #
cone-surface $-1 64.454301880756461 -7.8659674008359346 6.8610045883771171 -0.6560590369687036 0 -0.75470957328743171 0.18867739332185793 0 -0.1640147592421759 1 I I -0.70710678118654746 0.70710678118654746 0.25 forward I I I I #
loop $-1 $-1 $206 $57 #
coedge $-1 $129 $129 $207 $208 reversed $81 $-1 #
face $-1 $-1 $209 $45 $-1 $210 forward single #
loop $-1 $211 $212 $83 #
cone-surface $-1 64.454301880756461 -5.5788851675397026 6.8610045883771171 -0.6560590369687036 0 -0.75470957328743171 0.18867739332185793 0 -0.1640147592421759 1 I I -0.70710678118654746 0.70710678118654746 0.25 forward I I I I #
loop $-1 $-1 $213 $58 #
coedge $-1 $134 $134 $214 $215 reversed $84 $-1 #
face $-1 $216 $217 $46 $-1 $218 reversed single #
loop $-1 $-1 $219 $86 #
plane-surface $-1 -34.975751287344025 7.8659674008359417 95.543514043158254 0.6560590369687036 0 0.75470957328743171 0.75470957328743171 0 -0.6560590369687036 forward_v I I I I #
coedge $-1 $220 $221 $222 $223 reversed $87 $-1 #
face $-1 $-1 $224 $47 $-1 $225 forward single #
loop $-1 $226 $227 $89 #
cone-surface $-1 64.454301880756461 5.5788851675397098 6.8610045883771171 -0.6560590369687036 0 -0.75470957328743171 0.18867739332185793 0 -0.1640147592421759 1 I I -0.70710678118654746 0.70710678118654746 0.25 forward I I I I #
loop $-1 $-1 $228 $60 #
coedge $-1 $143 $143 $229 $230 reversed $90 $-1 #
face $-1 $-1 $231 $48 $-1 $232 forward single #
loop $-1 $233 $234 $92 #
cone-surface $-1 64.454301880756461 7.8659674008359417 6.8610045883771171 -0.6560590369687036 0 -0.75470957328743171 0.18867739332185793 0 -0.1640147592421759 1 I I -0.70710678118654746 0.70710678118654746 0.25 forward I I I I #
loop $-1 $-1 $235 $61 #
coedge $-1 $148 $148 $236 $237 reversed $93 $-1 #
face $-1 $-1 $238 $49 $-1 $239 forward single #
loop $-1 $240 $241 $95 #
cone-surface $-1 64.454301880756461 10.153049634132174 6.8610045883771171 -0.6560590369687036 0 -0.75470957328743171 0.18867739332185793 0 -0.1640147592421759 1 I I -0.70710678118654746 0.70710678118654746 0.25 forward I I I I #
loop $-1 $-1 $242 $62 #
coedge $-1 $153 $153 $243 $244 reversed $96 $-1 #
face $-1 $245 $246 $50 $-1 $247 reversed single #
loop $-1 $-1 $248 $98 #
plane-surface $-1 -68.658101138340371 11.777684161086924 7.2568792092251755 -0.6560590369687036 0 0.75470957328743171 0.75470957328743171 0 0.6560590369687036 forward_v I I I I #
coedge $-1 $249 $250 $251 $252 reversed $99 $-1 #
face $-1 $-1 $253 $51 $-1 $254 forward single #
loop $-1 $255 $256 $101 #
cone-surface $-1 -65.783773239207292 11.777684161086924 8.0992281285165681 0.6560590369687036 0 -0.75470957328743171 0.18867739332185793 0 0.1640147592421759 1 I I -0.70710678118654746 0.70710678118654746 0.25 forward I I I I #
loop $-1 $-1 $257 $64 #
coedge $-1 $162 $162 $258 $259 reversed $102 $-1 #
face $-1 $260 $261 $39 $-1 $262 reversed single #
loop $-1 $-1 $263 $104 #
plane-surface $-1 0 -31.62773448934756 0 0 1 0 0 0 1 forward_v I I I I #
coedge $-1 $264 $265 $266 $267 forward $105 $-1 #
coedge $-1 $268 $107 $269 $270 forward $66 $-1 #
coedge $-1 $107 $268 $271 $272 forward $66 $-1 #
coedge $-1 $273 $274 $107 $170 reversed $275 $-1 #
edge $-1 $276 -31.62773448934756 $277 31.62773448934756 $169 $278 forward 7 unknown #
face $-1 $279 $280 $40 $-1 $281 forward single #
loop $-1 $-1 $282 $108 #
plane-surface $-1 -47.001399176287315 -26.586518642185123 0 -1 0 0 0 0 1 forward_v I I I I #
coedge $-1 $283 $284 $285 $286 forward $109 $-1 #
coedge $-1 $287 $111 $288 $289 reversed $69 $-1 #
coedge $-1 $111 $287 $290 $291 reversed $69 $-1 #
coedge $-1 $284 $283 $111 $178 reversed $109 $-1 #
edge $-1 $292 -10.828350981026542 $293 10.828350981026542 $177 $294 forward 7 unknown #
face $-1 $295 $296 $41 $-1 $297 reversed single #
loop $-1 $-1 $298 $112 #
plane-surface $-1 -47.001399176287315 26.586518642185126 0 -1 0 0 0 0 1 forward_v I I I I #
coedge $-1 $299 $300 $301 $302 reversed $113 $-1 #
coedge $-1 $303 $115 $304 $305 reversed $72 $-1 #
coedge $-1 $115 $303 $306 $307 reversed $72 $-1 #
coedge $-1 $300 $299 $115 $186 reversed $113 $-1 #
edge $-1 $308 -10.828350981026542 $309 10.828350981026542 $185 $310 forward 7 unknown #
face $-1 $311 $312 $42 $-1 $313 forward single #
loop $-1 $-1 $314 $116 #
plane-surface $-1 55.111784138494883 -11.677771122996324 199.17736646884268 0 1 0 0.6560590369687036 0 0.75470957328743171 forward_v I I I I #
coedge $-1 $315 $316 $317 $318 reversed $117 $-1 #
coedge $-1 $192 $119 $319 $320 reversed $75 $-1 #
coedge $-1 $119 $191 $315 $321 reversed $75 $-1 #
coedge $-1 $317 $322 $119 $194 forward $312 $-1 #
edge $-1 $323 -41.102209069092957 $324 -34.922001762005642 $193 $325 forward 7 unknown #
loop $-1 $-1 $200 $120 #
plane-surface $-1 -34.975751287344025 -7.8659674008359346 95.543514043158254 0.6560590369687036 0 0.75470957328743171 0.75470957328743171 0 -0.6560590369687036 forward_v I I I I #
loop $-1 $-1 $326 $77 #
coedge $-1 $198 $198 $199 $327 reversed $121 $-1 #
coedge $-1 $199 $199 $198 $327 forward $123 $-1 #
coedge $-1 $200 $200 $124 $201 forward $195 $-1 #
edge $-1 $328 0 $328 6.2831853071796004 $200 $329 forward 7 unknown #
loop $-1 $-1 $207 $125 #
plane-surface $-1 -34.975751287344025 -7.8659674008359346 95.543514043158254 0.6560590369687036 0 0.75470957328743171 0.75470957328743171 0 -0.6560590369687036 forward_v I I I I #
loop $-1 $-1 $330 $80 #
coedge $-1 $205 $205 $206 $331 reversed $126 $-1 #
coedge $-1 $206 $206 $205 $331 forward $128 $-1 #
coedge $-1 $207 $207 $129 $208 forward $202 $-1 #
edge $-1 $332 0 $332 6.2831853071796004 $207 $333 forward 7 unknown #
loop $-1 $-1 $214 $130 #
plane-surface $-1 -34.975751287344025 -7.8659674008359346 95.543514043158254 0.6560590369687036 0 0.75470957328743171 0.75470957328743171 0 -0.6560590369687036 forward_v I I I I #
loop $-1 $-1 $334 $83 #
coedge $-1 $212 $212 $213 $335 reversed $131 $-1 #
coedge $-1 $213 $213 $212 $335 forward $133 $-1 #
coedge $-1 $214 $214 $134 $215 forward $209 $-1 #
edge $-1 $336 0 $336 6.2831853071796004 $214 $337 forward 7 unknown #
face $-1 $338 $339 $46 $-1 $340 reversed single #
loop $-1 $-1 $341 $135 #
plane-surface $-1 55.111784138494883 4.0541636786755522 199.17736646884268 0 1 0 0.6560590369687036 0 0.75470957328743171 forward_v I I I I #
coedge $-1 $342 $343 $344 $345 reversed $136 $-1 #
coedge $-1 $221 $138 $346 $347 reversed $87 $-1 #
coedge $-1 $138 $220 $342 $348 reversed $87 $-1 #
coedge $-1 $344 $349 $138 $223 forward $350 $-1 #
edge $-1 $351 -41.102209069092957 $352 -34.922001762005642 $222 $353 forward 7 unknown #
loop $-1 $-1 $229 $139 #
plane-surface $-1 -34.975751287344025 7.8659674008359417 95.543514043158254 0.6560590369687036 0 0.75470957328743171 0.75470957328743171 0 -0.6560590369687036 forward_v I I I I #
loop $-1 $-1 $354 $89 #
coedge $-1 $227 $227 $228 $355 reversed $140 $-1 #
coedge $-1 $228 $228 $227 $355 forward $142 $-1 #
coedge $-1 $229 $229 $143 $230 forward $224 $-1 #
edge $-1 $356 0 $356 6.2831853071796004 $229 $357 forward 7 unknown #
loop $-1 $-1 $236 $144 #
plane-surface $-1 -34.975751287344025 7.8659674008359417 95.543514043158254 0.6560590369687036 0 0.75470957328743171 0.75470957328743171 0 -0.6560590369687036 forward_v I I I I #
loop $-1 $-1 $358 $92 #
coedge $-1 $234 $234 $235 $359 reversed $145 $-1 #
coedge $-1 $235 $235 $234 $359 forward $147 $-1 #
coedge $-1 $236 $236 $148 $237 forward $231 $-1 #
edge $-1 $360 0 $360 6.2831853071796004 $236 $361 forward 7 unknown #
loop $-1 $-1 $243 $149 #
plane-surface $-1 -34.975751287344025 7.8659674008359417 95.543514043158254 0.6560590369687036 0 0.75470957328743171 0.75470957328743171 0 -0.6560590369687036 forward_v I I I I #
loop $-1 $-1 $362 $95 #
coedge $-1 $241 $241 $242 $363 reversed $150 $-1 #
coedge $-1 $242 $242 $241 $363 forward $152 $-1 #
coedge $-1 $243 $243 $153 $244 forward $238 $-1 #
edge $-1 $364 0 $364 6.2831853071796004 $243 $365 forward 7 unknown #
face $-1 $366 $367 $50 $-1 $368 reversed single #
loop $-1 $-1 $369 $154 #
plane-surface $-1 -158.74563656417928 18.210303836054727 110.8907316349096 0 -1 0 0.6560590369687036 0 -0.75470957328743171 forward_v I I I I #
coedge $-1 $370 $371 $372 $373 reversed $155 $-1 #
coedge $-1 $250 $157 $374 $375 reversed $99 $-1 #
coedge $-1 $157 $249 $370 $376 reversed $99 $-1 #
coedge $-1 $372 $377 $157 $252 forward $378 $-1 #
edge $-1 $379 10.71471714374924 $380 14.823225349593699 $251 $381 forward 7 unknown #
loop $-1 $-1 $258 $158 #
plane-surface $-1 -68.658101138340371 11.777684161086924 7.2568792092251755 -0.6560590369687036 0 0.75470957328743171 0.75470957328743171 0 0.6560590369687036 forward_v I I I I #
loop $-1 $-1 $382 $101 #
coedge $-1 $256 $256 $257 $383 reversed $159 $-1 #
coedge $-1 $257 $257 $256 $383 forward $161 $-1 #
coedge $-1 $258 $258 $162 $259 forward $253 $-1 #
edge $-1 $384 0 $384 6.2831853071796004 $258 $385 forward 7 unknown #
face $-1 $386 $387 $39 $-1 $388 reversed single #
loop $-1 $-1 $389 $163 #
plane-surface $-1 -68.658101138340399 0 0 1 0 0 0 0 -1 forward_v I I I I #
coedge $-1 $390 $271 $391 $392 forward $164 $-1 #
coedge $-1 $393 $166 $390 $394 forward $105 $-1 #
coedge $-1 $166 $393 $395 $396 forward $105 $-1 #
coedge $-1 $274 $273 $166 $267 reversed $275 $-1 #
edge $-1 $397 -31.62773448934756 $398 31.62773448934756 $266 $399 forward 7 unknown #
coedge $-1 $168 $167 $400 $401 forward $66 $-1 #
coedge $-1 $402 $403 $167 $270 reversed $387 $-1 #
edge $-1 $277 -68.658101138340399 $404 68.658101138340399 $269 $405 forward 7 unknown #
coedge $-1 $263 $406 $168 $272 reversed $164 $-1 #
edge $-1 $407 -68.658101138340399 $276 68.658101138340399 $271 $408 forward 7 unknown #
coedge $-1 $266 $169 $406 $409 forward $275 $-1 #
coedge $-1 $169 $266 $402 $410 reversed $275 $-1 #
loop $-1 $-1 $273 $386 #
vertex $-1 $170 $411 #
vertex $-1 $170 $412 #
straight-curve $-1 68.658101138340399 0 10.828350981026542 0 1 0 I I #
face $-1 $413 $414 $40 $-1 $415 reversed single #
loop $-1 $-1 $416 $171 #
plane-surface $-1 0 0 10.828350981026542 0 0 1 1 0 0 forward_v I I I I #
coedge $-1 $417 $418 $419 $420 reversed $172 $-1 #
coedge $-1 $177 $174 $421 $422 reversed $109 $-1 #
coedge $-1 $174 $177 $423 $424 reversed $109 $-1 #
coedge $-1 $418 $417 $174 $286 reversed $172 $-1 #
edge $-1 $425 -10.828350981026542 $426 10.828350981026542 $285 $427 forward 7 unknown #
coedge $-1 $176 $175 $428 $429 reversed $69 $-1 #
coedge $-1 $421 $430 $175 $289 forward $414 $-1 #
edge $-1 $431 -18.334475168254997 $293 -8.2520434739301241 $288 $432 forward 7 unknown #
coedge $-1 $433 $423 $176 $291 forward $280 $-1 #
edge $-1 $292 8.2520434739301241 $434 18.334475168254997 $290 $435 forward 7 unknown #
vertex $-1 $291 $436 #
vertex $-1 $289 $437 #
straight-curve $-1 -50.001399176287315 -21.545302795022685 0 0 0 -1 I I #
face $-1 $438 $439 $41 $-1 $440 forward single #
loop $-1 $-1 $441 $179 #
plane-surface $-1 0 0 -10.828350981026542 0 0 1 1 0 0 forward_v I I I I #
coedge $-1 $442 $443 $303 $444 forward $180 $-1 #
coedge $-1 $185 $182 $445 $446 reversed $113 $-1 #
coedge $-1 $182 $185 $447 $448 reversed $113 $-1 #
coedge $-1 $449 $450 $182 $302 forward $451 $-1 #
edge $-1 $452 -10.828350981026542 $453 10.828350981026542 $301 $454 forward 7 unknown #
coedge $-1 $184 $183 $298 $444 reversed $72 $-1 #
coedge $-1 $445 $441 $183 $305 forward $296 $-1 #
edge $-1 $455 22.750699588143657 $309 25.750699588143657 $304 $456 forward 7 unknown #
coedge $-1 $457 $447 $184 $307 forward $439 $-1 #
edge $-1 $308 -25.750699588143657 $458 -22.750699588143657 $306 $459 forward 7 unknown #
vertex $-1 $307 $460 #
vertex $-1 $305 $461 #
straight-curve $-1 -50.001399176287315 21.545302795022689 0 0 0 -1 I I #
face $-1 $-1 $462 $42 $-1 $463 reversed single #
loop $-1 $-1 $193 $187 #
plane-surface $-1 0 0 10.828350981026542 0 0 1 1 0 0 forward_v I I I I #
coedge $-1 $464 $465 $466 $467 reversed $188 $-1 #
coedge $-1 $468 $190 $192 $321 forward $117 $-1 #
coedge $-1 $190 $468 $464 $469 forward $117 $-1 #
coedge $-1 $466 $193 $190 $318 forward $312 $-1 #
edge $-1 $324 0.12117997825757776 $470 7.7447874225783568 $317 $471 forward 7 unknown #
coedge $-1 $472 $473 $191 $320 forward $462 $-1 #
edge $-1 $474 -94.132704617101993 $323 -88.760332253394793 $319 $475 forward 7 unknown #
edge $-1 $324 129.12734721795005 $474 137.3162022766808 $192 $476 forward 7 unknown #
coedge $-1 $193 $466 $472 $477 forward $312 $-1 #
vertex $-1 $194 $478 #
vertex $-1 $194 $479 #
straight-curve $-1 27.555892069247442 -4.0541636786755451 10.828350981026546 -1 0 0 I I #
coedge $-1 $326 $326 $-1 $480 reversed $197 $-1 #
edge $-1 $481 0 $481 6.2831853071796004 $198 $482 forward 7 unknown #
vertex $-1 $201 $483 #
ellipse-curve $-1 65.567997484796749 -10.15304963413217 8.1421647991729458 0.6560590369687036 0 0.75470957328743171 0.37735478664371586 0 -0.3280295184843518 1 I I #
coedge $-1 $330 $330 $-1 $484 reversed $204 $-1 #
edge $-1 $485 0 $485 6.2831853071796004 $205 $486 forward 7 unknown #
vertex $-1 $208 $487 #
ellipse-curve $-1 65.567997484796749 -7.8659674008359346 8.1421647991729458 0.6560590369687036 0 0.75470957328743171 0.37735478664371586 0 -0.3280295184843518 1 I I #
coedge $-1 $334 $334 $-1 $488 reversed $211 $-1 #
edge $-1 $489 0 $489 6.2831853071796004 $212 $490 forward 7 unknown #
vertex $-1 $215 $491 #
ellipse-curve $-1 65.567997484796749 -5.5788851675397026 8.1421647991729458 0.6560590369687036 0 0.75470957328743171 0.37735478664371586 0 -0.3280295184843518 1 I I #
face $-1 $-1 $350 $46 $-1 $492 forward single #
loop $-1 $-1 $493 $216 #
plane-surface $-1 68.658101138340399 0 0 -1 0 0 0 0 1 forward_v I I I I #
coedge $-1 $494 $495 $496 $497 reversed $217 $-1 #
coedge $-1 $498 $219 $221 $348 forward $136 $-1 #
coedge $-1 $219 $498 $494 $499 forward $136 $-1 #
coedge $-1 $496 $222 $219 $345 forward $350 $-1 #
edge $-1 $352 -7.7447874225783604 $500 -0.12117997825758131 $344 $501 forward 7 unknown #
coedge $-1 $502 $503 $220 $347 forward $339 $-1 #
edge $-1 $504 -94.132704617101993 $351 -88.760332253394793 $346 $505 forward 7 unknown #
edge $-1 $352 129.12734721795005 $504 137.3162022766808 $221 $506 forward 7 unknown #
coedge $-1 $222 $496 $502 $507 forward $350 $-1 #
loop $-1 $-1 $496 $338 #
vertex $-1 $347 $508 #
vertex $-1 $223 $509 #
straight-curve $-1 27.555892069247442 11.677771122996331 10.828350981026546 -1 0 0 I I #
coedge $-1 $354 $354 $-1 $510 reversed $226 $-1 #
edge $-1 $511 0 $511 6.2831853071796004 $227 $512 forward 7 unknown #
vertex $-1 $230 $513 #
ellipse-curve $-1 65.567997484796749 5.5788851675397098 8.1421647991729458 0.6560590369687036 0 0.75470957328743171 0.37735478664371586 0 -0.3280295184843518 1 I I #
coedge $-1 $358 $358 $-1 $514 reversed $233 $-1 #
edge $-1 $515 0 $515 6.2831853071796004 $234 $516 forward 7 unknown #
vertex $-1 $237 $517 #
ellipse-curve $-1 65.567997484796749 7.8659674008359417 8.1421647991729458 0.6560590369687036 0 0.75470957328743171 0.37735478664371586 0 -0.3280295184843518 1 I I #
coedge $-1 $362 $362 $-1 $518 reversed $240 $-1 #
edge $-1 $519 0 $519 6.2831853071796004 $241 $520 forward 7 unknown #
vertex $-1 $244 $521 #
ellipse-curve $-1 65.567997484796749 10.153049634132174 8.1421647991729458 0.6560590369687036 0 0.75470957328743171 0.37735478664371586 0 -0.3280295184843518 1 I I #
face $-1 $-1 $378 $50 $-1 $522 forward single #
loop $-1 $-1 $523 $245 #
plane-surface $-1 -68.658101138340399 0 0 1 0 0 0 0 -1 forward_v I I I I #
coedge $-1 $524 $525 $526 $527 reversed $246 $-1 #
coedge $-1 $528 $248 $250 $376 forward $155 $-1 #
coedge $-1 $248 $528 $524 $529 forward $155 $-1 #
coedge $-1 $526 $251 $248 $373 forward $378 $-1 #
edge $-1 $380 -0.54377759442434126 $530 12.321461755511265 $372 $531 forward 7 unknown #
coedge $-1 $532 $533 $249 $375 forward $367 $-1 #
edge $-1 $534 -48.188486608229653 $379 -44.617014836428254 $374 $535 forward 7 unknown #
edge $-1 $380 -5.4438268060496755 $534 3.776566559949536e-014 $250 $536 forward 7 unknown #
coedge $-1 $251 $526 $532 $537 forward $378 $-1 #
loop $-1 $-1 $526 $366 #
vertex $-1 $375 $538 #
vertex $-1 $252 $539 #
straight-curve $-1 -79.372818282089639 5.3450644861191208 10.828350981026546 1 0 0 I I #
coedge $-1 $382 $382 $-1 $540 reversed $255 $-1 #
edge $-1 $541 0 $541 6.2831853071796004 $256 $542 forward 7 unknown #
vertex $-1 $259 $543 #
ellipse-curve $-1 -66.603847035418156 11.777684161086924 9.0426150951258517 -0.6560590369687036 0 0.75470957328743171 0.37735478664371586 0 0.3280295184843518 1 I I #
face $-1 $-1 $275 $39 $-1 $544 reversed single #
loop $-1 $-1 $402 $260 #
plane-surface $-1 0 31.62773448934756 0 0 -1 0 0 0 -1 forward_v I I I I #
coedge $-1 $545 $400 $403 $546 forward $261 $-1 #
coedge $-1 $406 $263 $264 $394 reversed $164 $-1 #
coedge $-1 $400 $545 $263 $392 reversed $261 $-1 #
edge $-1 $407 -10.828350981026542 $547 10.828350981026542 $391 $548 forward 7 unknown #
coedge $-1 $265 $264 $545 $549 forward $105 $-1 #
edge $-1 $398 -68.658101138340399 $547 68.658101138340399 $390 $550 forward 7 unknown #
coedge $-1 $403 $402 $265 $396 reversed $387 $-1 #
edge $-1 $551 -68.658101138340399 $397 68.658101138340399 $395 $552 forward 7 unknown #
vertex $-1 $267 $553 #
vertex $-1 $409 $554 #
straight-curve $-1 68.658101138340399 0 -10.828350981026542 0 -1 0 I I #
coedge $-1 $389 $391 $268 $401 reversed $261 $-1 #
edge $-1 $404 -31.62773448934756 $407 31.62773448934756 $400 $555 forward 7 unknown #
coedge $-1 $395 $269 $274 $410 forward $387 $-1 #
coedge $-1 $269 $395 $389 $546 reversed $387 $-1 #
vertex $-1 $270 $556 #
straight-curve $-1 0 31.62773448934756 10.828350981026542 -1 0 0 I I #
coedge $-1 $271 $390 $273 $409 reversed $164 $-1 #
vertex $-1 $401 $557 #
straight-curve $-1 0 -31.62773448934756 10.828350981026542 1 0 0 I I #
edge $-1 $276 -10.828350981026542 $398 10.828350981026542 $273 $558 forward 7 unknown #
edge $-1 $277 -10.828350981026542 $397 10.828350981026542 $274 $559 forward 7 unknown #
point $-1 68.658101138340399 -31.62773448934756 10.828350981026542 #
point $-1 68.658101138340399 31.62773448934756 10.828350981026542 #
face $-1 $-1 $560 $40 $-1 $561 reversed single #
loop $-1 $-1 $562 $279 #
plane-surface $-1 0 0 -10.828350981026542 0 0 1 1 0 0 forward_v I I I I #
coedge $-1 $423 $433 $418 $563 forward $280 $-1 #
coedge $-1 $285 $282 $562 $564 reversed $172 $-1 #
coedge $-1 $282 $285 $416 $563 reversed $172 $-1 #
coedge $-1 $565 $566 $282 $420 forward $560 $-1 #
edge $-1 $567 -10.828350981026542 $568 10.828350981026542 $419 $569 forward 7 unknown #
coedge $-1 $562 $288 $283 $422 forward $414 $-1 #
edge $-1 $293 -25.750699588143657 $426 -22.750699588143657 $421 $570 forward 7 unknown #
coedge $-1 $290 $416 $284 $424 forward $280 $-1 #
edge $-1 $425 22.750699588143657 $292 25.750699588143657 $423 $571 forward 7 unknown #
vertex $-1 $424 $572 #
vertex $-1 $422 $573 #
straight-curve $-1 -47.001399176287315 -21.545302795022685 0 0 0 -1 I I #
coedge $-1 $566 $565 $287 $429 forward $560 $-1 #
edge $-1 $434 -10.828350981026542 $431 10.828350981026542 $428 $574 forward 7 unknown #
coedge $-1 $288 $562 $566 $575 forward $414 $-1 #
vertex $-1 $289 $576 #
straight-curve $-1 -50.001399176287315 -13.293259321092561 -10.828350981026542 0 1 0 I I #
coedge $-1 $416 $290 $565 $577 forward $280 $-1 #
vertex $-1 $577 $578 #
straight-curve $-1 -50.001399176287315 -13.293259321092561 10.828350981026542 0 -1 0 I I #
point $-1 -50.001399176287315 -21.545302795022685 10.828350981026542 #
point $-1 -50.001399176287315 -21.545302795022685 -10.828350981026542 #
face $-1 $-1 $451 $41 $-1 $579 reversed single #
loop $-1 $-1 $457 $295 #
plane-surface $-1 0 0 10.828350981026542 0 0 1 1 0 0 forward_v I I I I #
coedge $-1 $304 $580 $442 $581 forward $296 $-1 #
coedge $-1 $582 $298 $441 $581 reversed $180 $-1 #
coedge $-1 $298 $582 $457 $583 reversed $180 $-1 #
edge $-1 $458 -10.828350981026542 $455 10.828350981026542 $298 $584 forward 7 unknown #
coedge $-1 $580 $304 $299 $446 forward $296 $-1 #
edge $-1 $309 8.2520434739301258 $452 18.334475168255 $445 $585 forward 7 unknown #
coedge $-1 $306 $586 $300 $448 forward $439 $-1 #
edge $-1 $453 -18.334475168255 $308 -8.2520434739301258 $447 $587 forward 7 unknown #
coedge $-1 $588 $301 $586 $589 reversed $451 $-1 #
coedge $-1 $301 $588 $580 $590 reversed $451 $-1 #
loop $-1 $-1 $588 $438 #
vertex $-1 $590 $591 #
vertex $-1 $302 $592 #
straight-curve $-1 -50.001399176287315 31.62773448934756 0 0 0 1 I I #
vertex $-1 $305 $593 #
straight-curve $-1 -24.250699588143657 21.545302795022689 -10.828350981026542 -1 0 0 I I #
coedge $-1 $586 $306 $443 $583 forward $439 $-1 #
vertex $-1 $307 $594 #
straight-curve $-1 -24.250699588143657 21.545302795022689 10.828350981026542 1 0 0 I I #
point $-1 -50.001399176287315 21.545302795022689 10.828350981026542 #
point $-1 -50.001399176287315 21.545302795022689 -10.828350981026542 #
loop $-1 $-1 $319 $311 #
plane-surface $-1 68.658101138340399 0 0 -1 0 0 0 0 1 forward_v I I I I #
coedge $-1 $465 $314 $316 $469 reversed $188 $-1 #
coedge $-1 $314 $464 $595 $596 reversed $188 $-1 #
coedge $-1 $322 $317 $314 $467 forward $312 $-1 #
edge $-1 $470 34.922001762005642 $597 41.102209069092957 $466 $598 forward 7 unknown #
coedge $-1 $316 $315 $473 $599 reversed $117 $-1 #
edge $-1 $600 -137.3162022766808 $470 -129.12734721795005 $464 $601 forward 7 unknown #
vertex $-1 $318 $602 #
straight-curve $-1 62.47789383125307 -3.9329837004179673 10.828350981026553 0 -1 0 I I #
coedge $-1 $595 $319 $322 $477 reversed $462 $-1 #
coedge $-1 $319 $595 $468 $599 forward $462 $-1 #
vertex $-1 $320 $603 #
straight-curve $-1 68.658101138340399 -4.0541636786755451 99.588683234421339 0 0 1 I I #
straight-curve $-1 -34.975751287344025 -4.0541636786755451 95.543514043158254 0.75470957328743171 0 -0.6560590369687036 I I #
edge $-1 $597 -11.677771122996324 $323 -4.0541636786755451 $472 $604 forward 7 unknown #
point $-1 68.658101138340399 -4.0541636786755451 10.828350981026542 #
point $-1 62.477893831253084 -4.0541636786755451 10.828350981026531 #
edge $-1 $605 1 $605 0 $326 $-1 forward 7 unknown #
vertex $-1 $327 $606 #
ellipse-curve $-1 64.618316639998639 -10.15304963413217 7.0496819816989751 0.6560590369687036 0 0.75470957328743171 0.37735478664371586 0 -0.3280295184843518 1 I I #
point $-1 65.945352271440456 -10.15304963413217 7.8141352806885891 #
edge $-1 $607 1 $607 0 $330 $-1 forward 7 unknown #
vertex $-1 $331 $608 #
ellipse-curve $-1 64.618316639998639 -7.8659674008359346 7.0496819816989751 0.6560590369687036 0 0.75470957328743171 0.37735478664371586 0 -0.3280295184843518 1 I I #
point $-1 65.945352271440456 -7.8659674008359346 7.8141352806885891 #
edge $-1 $609 1 $609 0 $334 $-1 forward 7 unknown #
vertex $-1 $335 $610 #
ellipse-curve $-1 64.618316639998639 -5.5788851675397026 7.0496819816989751 0.6560590369687036 0 0.75470957328743171 0.37735478664371586 0 -0.3280295184843518 1 I I #
point $-1 65.945352271440456 -5.5788851675397026 7.8141352806885891 #
plane-surface $-1 0 0 10.828350981026542 0 0 1 1 0 0 forward_v I I I I #
coedge $-1 $503 $502 $495 $611 forward $339 $-1 #
coedge $-1 $495 $341 $343 $499 reversed $217 $-1 #
coedge $-1 $341 $494 $493 $611 reversed $217 $-1 #
coedge $-1 $349 $344 $341 $497 forward $350 $-1 #
edge $-1 $500 34.922001762005642 $612 41.102209069092957 $496 $613 forward 7 unknown #
coedge $-1 $343 $342 $503 $614 reversed $136 $-1 #
edge $-1 $615 -137.3162022766808 $500 -129.12734721795005 $494 $616 forward 7 unknown #
vertex $-1 $345 $617 #
straight-curve $-1 62.47789383125307 3.9329837004179709 10.828350981026553 0 -1 0 I I #
coedge $-1 $493 $346 $349 $507 reversed $339 $-1 #
coedge $-1 $346 $493 $498 $614 forward $339 $-1 #
vertex $-1 $347 $618 #
straight-curve $-1 68.658101138340399 11.677771122996331 99.588683234421339 0 0 1 I I #
straight-curve $-1 -34.975751287344025 11.677771122996331 95.543514043158254 0.75470957328743171 0 -0.6560590369687036 I I #
edge $-1 $612 4.0541636786755522 $351 11.677771122996331 $502 $619 forward 7 unknown #
point $-1 68.658101138340399 11.677771122996331 10.828350981026542 #
point $-1 62.477893831253084 11.677771122996331 10.828350981026531 #
edge $-1 $620 1 $620 0 $354 $-1 forward 7 unknown #
vertex $-1 $355 $621 #
ellipse-curve $-1 64.618316639998639 5.5788851675397098 7.0496819816989751 0.6560590369687036 0 0.75470957328743171 0.37735478664371586 0 -0.3280295184843518 1 I I #
point $-1 65.945352271440456 5.5788851675397098 7.8141352806885891 #
edge $-1 $622 1 $622 0 $358 $-1 forward 7 unknown #
vertex $-1 $359 $623 #
ellipse-curve $-1 64.618316639998639 7.8659674008359417 7.0496819816989751 0.6560590369687036 0 0.75470957328743171 0.37735478664371586 0 -0.3280295184843518 1 I I #
point $-1 65.945352271440456 7.8659674008359417 7.8141352806885891 #
edge $-1 $624 1 $624 0 $362 $-1 forward 7 unknown #
vertex $-1 $363 $625 #
ellipse-curve $-1 64.618316639998639 10.153049634132174 7.0496819816989751 0.6560590369687036 0 0.75470957328743171 0.37735478664371586 0 -0.3280295184843518 1 I I #
point $-1 65.945352271440456 10.153049634132174 7.8141352806885891 #
plane-surface $-1 0 0 10.828350981026542 0 0 1 1 0 0 forward_v I I I I #
coedge $-1 $533 $532 $525 $626 forward $367 $-1 #
coedge $-1 $525 $369 $371 $529 reversed $246 $-1 #
coedge $-1 $369 $524 $523 $626 reversed $246 $-1 #
coedge $-1 $377 $372 $369 $527 forward $378 $-1 #
edge $-1 $530 -14.823225349593699 $627 -10.71471714374924 $526 $628 forward 7 unknown #
coedge $-1 $371 $370 $533 $629 reversed $155 $-1 #
edge $-1 $630 -3.776566559949536e-014 $530 5.4438268060496755 $524 $631 forward 7 unknown #
vertex $-1 $373 $632 #
straight-curve $-1 -64.549592932495926 5.888842080543462 10.828350981026544 0 1 0 I I #
coedge $-1 $523 $374 $377 $537 reversed $367 $-1 #
coedge $-1 $374 $523 $528 $629 forward $367 $-1 #
vertex $-1 $375 $633 #
straight-curve $-1 -68.658101138340399 5.3450644861191208 55.4453658174548 0 0 1 I I #
straight-curve $-1 -68.658101138340371 5.3450644861191208 7.2568792092251755 -0.75470957328743171 0 -0.6560590369687036 I I #
edge $-1 $627 -18.210303836054727 $379 -5.3450644861191208 $532 $634 forward 7 unknown #
point $-1 -68.658101138340399 5.3450644861191208 10.828350981026542 #
point $-1 -64.549592932495941 5.3450644861191208 10.828350981026542 #
edge $-1 $635 1 $635 0 $382 $-1 forward 7 unknown #
vertex $-1 $383 $636 #
ellipse-curve $-1 -65.947787998449471 11.777684161086924 8.2879055218384252 -0.6560590369687036 0 0.75470957328743171 0.37735478664371586 0 0.3280295184843518 1 I I #
point $-1 -66.226492248774463 11.777684161086924 9.3706446136102102 #
plane-surface $-1 68.658101138340399 0 0 -1 0 0 0 0 1 forward_v I I I I #
coedge $-1 $391 $389 $393 $549 reversed $261 $-1 #
edge $-1 $404 -10.828350981026542 $551 10.828350981026542 $403 $637 forward 7 unknown #
vertex $-1 $549 $638 #
straight-curve $-1 -68.658101138340399 -31.62773448934756 0 0 0 -1 I I #
edge $-1 $547 -31.62773448934756 $551 31.62773448934756 $545 $639 forward 7 unknown #
straight-curve $-1 0 -31.62773448934756 -10.828350981026542 -1 0 0 I I #
vertex $-1 $396 $640 #
straight-curve $-1 0 31.62773448934756 -10.828350981026542 1 0 0 I I #
point $-1 68.658101138340399 31.62773448934756 -10.828350981026542 #
point $-1 68.658101138340399 -31.62773448934756 -10.828350981026542 #
straight-curve $-1 -68.658101138340399 0 10.828350981026542 0 -1 0 I I #
point $-1 -68.658101138340399 31.62773448934756 10.828350981026542 #
point $-1 -68.658101138340399 -31.62773448934756 10.828350981026542 #
straight-curve $-1 68.658101138340399 -31.62773448934756 0 0 0 -1 I I #
straight-curve $-1 68.658101138340399 31.62773448934756 0 0 0 -1 I I #
loop $-1 $-1 $419 $413 #
plane-surface $-1 0 -31.62773448934756 0 0 1 0 0 0 1 forward_v I I I I #
coedge $-1 $430 $421 $417 $564 forward $414 $-1 #
edge $-1 $568 -18.334475168254997 $425 -8.2520434739301241 $416 $641 forward 7 unknown #
edge $-1 $426 8.2520434739301241 $567 18.334475168254997 $562 $642 forward 7 unknown #
coedge $-1 $428 $419 $433 $577 reversed $560 $-1 #
coedge $-1 $419 $428 $430 $575 reversed $560 $-1 #
vertex $-1 $575 $643 #
vertex $-1 $420 $644 #
straight-curve $-1 -47.001399176287315 -31.62773448934756 0 0 0 1 I I #
straight-curve $-1 -24.250699588143657 -21.545302795022685 -10.828350981026542 1 0 0 I I #
straight-curve $-1 -24.250699588143657 -21.545302795022685 10.828350981026542 -1 0 0 I I #
point $-1 -47.001399176287315 -21.545302795022685 10.828350981026542 #
point $-1 -47.001399176287315 -21.545302795022685 -10.828350981026542 #
straight-curve $-1 -50.001399176287315 -31.62773448934756 0 0 0 -1 I I #
edge $-1 $567 47.001399176287315 $431 50.001399176287315 $566 $645 forward 7 unknown #
point $-1 -50.001399176287315 -31.62773448934756 -10.828350981026542 #
edge $-1 $434 -50.001399176287315 $568 -47.001399176287315 $565 $646 forward 7 unknown #
point $-1 -50.001399176287315 -31.62773448934756 10.828350981026542 #
plane-surface $-1 0 31.62773448934756 0 0 -1 0 0 0 -1 forward_v I I I I #
coedge $-1 $441 $445 $450 $590 forward $296 $-1 #
edge $-1 $647 -18.334475168255 $455 -8.2520434739301258 $441 $648 forward 7 unknown #
coedge $-1 $443 $442 $588 $649 reversed $180 $-1 #
edge $-1 $458 8.2520434739301258 $650 18.334475168255 $457 $651 forward 7 unknown #
straight-curve $-1 -47.001399176287315 21.545302795022689 0 0 0 -1 I I #
straight-curve $-1 -50.001399176287315 13.293259321092563 -10.828350981026542 0 1 0 I I #
coedge $-1 $447 $457 $449 $589 forward $439 $-1 #
straight-curve $-1 -50.001399176287315 13.293259321092563 10.828350981026542 0 -1 0 I I #
coedge $-1 $450 $449 $582 $649 forward $451 $-1 #
edge $-1 $650 47.001399176287315 $453 50.001399176287315 $449 $652 forward 7 unknown #
edge $-1 $452 -50.001399176287315 $647 -47.001399176287315 $450 $653 forward 7 unknown #
point $-1 -50.001399176287315 31.627734489347564 -10.828350981026542 #
point $-1 -50.001399176287315 31.627734489347564 10.828350981026542 #
point $-1 -47.001399176287315 21.545302795022689 -10.828350981026542 #
point $-1 -47.001399176287315 21.545302795022689 10.828350981026542 #
coedge $-1 $473 $472 $465 $596 forward $462 $-1 #
edge $-1 $597 88.760332253394793 $600 94.132704617101993 $595 $654 forward 7 unknown #
vertex $-1 $477 $655 #
straight-curve $-1 27.555892069247442 -11.677771122996324 10.828350981026546 1 0 0 I I #
edge $-1 $600 -7.7447874225783568 $474 -0.12117997825757776 $473 $656 forward 7 unknown #
vertex $-1 $599 $657 #
straight-curve $-1 -34.975751287344025 -11.677771122996324 95.543514043158254 -0.75470957328743171 0 0.6560590369687036 I I #
point $-1 62.477893831253084 -11.677771122996324 10.828350981026531 #
point $-1 68.658101138340399 -4.0541636786755451 5.4559786173193459 #
straight-curve $-1 68.658101138340399 0 10.828350981026542 0 1 0 I I #
vertex $-1 $480 $658 #
point $-1 64.995671426642346 -10.15304963413217 6.7216524632146228 #
vertex $-1 $484 $659 #
point $-1 64.995671426642346 -7.8659674008359346 6.7216524632146228 #
vertex $-1 $488 $660 #
point $-1 64.995671426642346 -5.5788851675397026 6.7216524632146228 #
edge $-1 $612 88.760332253394793 $615 94.132704617101993 $493 $661 forward 7 unknown #
vertex $-1 $507 $662 #
straight-curve $-1 27.555892069247442 4.0541636786755522 10.828350981026546 1 0 0 I I #
edge $-1 $615 0.12117997825758131 $504 7.7447874225783604 $503 $663 forward 7 unknown #
vertex $-1 $614 $664 #
straight-curve $-1 -34.975751287344025 4.0541636786755522 95.543514043158254 -0.75470957328743171 0 0.6560590369687036 I I #
point $-1 62.477893831253084 4.0541636786755522 10.828350981026531 #
point $-1 68.658101138340399 11.677771122996331 5.4559786173193459 #
straight-curve $-1 68.658101138340399 0 10.828350981026542 0 1 0 I I #
vertex $-1 $510 $665 #
point $-1 64.995671426642346 5.5788851675397098 6.7216524632146228 #
vertex $-1 $514 $666 #
point $-1 64.995671426642346 7.8659674008359417 6.7216524632146228 #
vertex $-1 $518 $667 #
point $-1 64.995671426642346 10.153049634132174 6.7216524632146228 #
edge $-1 $627 44.617014836428254 $630 48.188486608229653 $523 $668 forward 7 unknown #
vertex $-1 $537 $669 #
straight-curve $-1 -79.372818282089639 18.210303836054727 10.828350981026546 -1 0 0 I I #
edge $-1 $630 -12.321461755511265 $534 0.54377759442434126 $533 $670 forward 7 unknown #
vertex $-1 $629 $671 #
straight-curve $-1 -68.658101138340371 18.210303836054727 7.2568792092251755 0.75470957328743171 0 0.6560590369687036 I I #
point $-1 -64.549592932495941 18.210303836054727 10.828350981026542 #
point $-1 -68.658101138340399 5.3450644861191208 7.2568792092251506 #
straight-curve $-1 -68.658101138340399 0 10.828350981026542 0 -1 0 I I #
vertex $-1 $540 $672 #
point $-1 -65.570433211805749 11.777684161086924 8.6159350403227783 #
straight-curve $-1 -68.658101138340399 31.62773448934756 0 0 0 -1 I I #
point $-1 -68.658101138340399 -31.62773448934756 -10.828350981026542 #
straight-curve $-1 -68.658101138340399 0 -10.828350981026542 0 1 0 I I #
point $-1 -68.658101138340399 31.62773448934756 -10.828350981026542 #
straight-curve $-1 -47.001399176287315 -13.293259321092561 10.828350981026542 0 1 0 I I #
straight-curve $-1 -47.001399176287315 -13.293259321092561 -10.828350981026542 0 -1 0 I I #
point $-1 -47.001399176287315 -31.62773448934756 -10.828350981026542 #
point $-1 -47.001399176287315 -31.62773448934756 10.828350981026542 #
straight-curve $-1 0 -31.62773448934756 -10.828350981026542 -1 0 0 I I #
straight-curve $-1 0 -31.62773448934756 10.828350981026542 1 0 0 I I #
vertex $-1 $649 $673 #
straight-curve $-1 -47.001399176287315 13.293259321092563 -10.828350981026542 0 -1 0 I I #
edge $-1 $650 -10.828350981026542 $647 10.828350981026542 $588 $674 forward 7 unknown #
vertex $-1 $589 $675 #
straight-curve $-1 -47.001399176287315 13.293259321092563 10.828350981026542 0 1 0 I I #
straight-curve $-1 0 31.62773448934756 10.828350981026542 -1 0 0 I I #
straight-curve $-1 0 31.62773448934756 -10.828350981026542 1 0 0 I I #
straight-curve $-1 68.658101138340399 -11.677771122996324 99.588683234421339 0 0 -1 I I #
point $-1 68.658101138340399 -11.677771122996324 10.828350981026542 #
straight-curve $-1 68.658101138340399 -3.9329837004179673 5.4559786173193459 0 1 0 I I #
point $-1 68.658101138340399 -11.677771122996324 5.4559786173193459 #
point $-1 64.290287121514282 -10.15304963413217 6.6723271950552592 #
point $-1 64.290287121514282 -7.8659674008359346 6.6723271950552592 #
point $-1 64.290287121514282 -5.5788851675397026 6.6723271950552592 #
straight-curve $-1 68.658101138340399 4.0541636786755522 99.588683234421339 0 0 -1 I I #
point $-1 68.658101138340399 4.0541636786755522 10.828350981026542 #
straight-curve $-1 68.658101138340399 3.9329837004179709 5.4559786173193459 0 1 0 I I #
point $-1 68.658101138340399 4.0541636786755522 5.4559786173193459 #
point $-1 64.290287121514282 5.5788851675397098 6.6723271950552592 #
point $-1 64.290287121514282 7.8659674008359417 6.6723271950552592 #
point $-1 64.290287121514282 10.153049634132174 6.6723271950552592 #
straight-curve $-1 -68.658101138340399 18.210303836054727 55.4453658174548 0 0 -1 I I #
point $-1 -68.658101138340399 18.210303836054727 10.828350981026542 #
straight-curve $-1 -68.658101138340399 5.888842080543462 7.2568792092251471 0 -1 0 I I #
point $-1 -68.658101138340399 18.210303836054727 7.2568792092251506 #
point $-1 -65.619758479965114 11.777684161086924 7.9105507351947102 #
point $-1 -47.001399176287315 31.627734489347564 -10.828350981026542 #
straight-curve $-1 -47.001399176287315 31.62773448934756 0 0 0 -1 I I #
point $-1 -47.001399176287315 31.627734489347564 10.828350981026542 #
End-of-ACIS-data 