500 0 11 0           
7 Unknown 11 ACIS 5.0 NT 24 Fri Mar 26 01:53:20 1999 
-1 9.9999999999999995e-007 1e-010 
body $-1 $11 $-1 $12 #
body $-1 $13 $-1 $14 #
body $-1 $15 $-1 $16 #
body $-1 $17 $-1 $18 #
body $-1 $19 $-1 $20 #
body $-1 $21 $-1 $22 #
body $-1 $23 $-1 $24 #
body $-1 $25 $-1 $26 #
body $-1 $27 $-1 $28 #
body $-1 $29 $-1 $30 #
body $-1 $31 $-1 $32 #
lump $-1 $-1 $33 $0 #
transform $-1 1 0 0 0 1 0 0 0 1 66.862392040772733 31.413917637516164 14.252218420700066 1 rotate no_reflect no_shear #
lump $-1 $-1 $34 $1 #
transform $-1 1 0 0 0 1 0 0 0 1 66.862392040772733 31.413917637516164 14.252218420700066 1 rotate no_reflect no_shear #
lump $-1 $-1 $35 $2 #
transform $-1 1 0 0 0 1 0 0 0 1 66.862392040772733 31.413917637516164 14.252218420700066 1 rotate no_reflect no_shear #
lump $-1 $-1 $36 $3 #
transform $-1 1 0 0 0 1 0 0 0 1 66.862392040772733 31.413917637516164 14.252218420700066 1 rotate no_reflect no_shear #
lump $-1 $-1 $37 $4 #
transform $-1 1 0 0 0 1 0 0 0 1 66.862392040772733 31.413917637516164 14.252218420700066 1 rotate no_reflect no_shear #
lump $-1 $-1 $38 $5 #
transform $-1 1 0 0 0 1 0 0 0 1 66.862392040772733 31.413917637516164 14.252218420700066 1 rotate no_reflect no_shear #
lump $-1 $-1 $39 $6 #
transform $-1 1 0 0 0 1 0 0 0 1 66.862392040772733 31.413917637516164 14.252218420700066 1 rotate no_reflect no_shear #
lump $-1 $-1 $40 $7 #
transform $-1 1 0 0 0 1 0 0 0 1 66.862392040772733 31.413917637516164 14.252218420700066 1 rotate no_reflect no_shear #
lump $-1 $-1 $41 $8 #
transform $-1 1 0 0 0 1 0 0 0 1 66.862392040772733 31.413917637516164 14.252218420700066 1 rotate no_reflect no_shear #
lump $-1 $-1 $42 $9 #
transform $-1 1 0 0 0 1 0 0 0 1 66.862392040772733 31.413917637516164 14.252218420700066 1 rotate no_reflect no_shear #
lump $-1 $-1 $43 $10 #
transform $-1 1 0 0 0 1 0 0 0 1 66.862392040772733 31.413917637516164 14.252218420700066 1 rotate no_reflect no_shear #
shell $-1 $-1 $-1 $44 $-1 $11 #
shell $-1 $-1 $-1 $45 $-1 $13 #
shell $-1 $-1 $-1 $46 $-1 $15 #
shell $-1 $-1 $-1 $47 $-1 $17 #
shell $-1 $-1 $-1 $48 $-1 $19 #
shell $-1 $-1 $-1 $49 $-1 $21 #
shell $-1 $-1 $-1 $50 $-1 $23 #
shell $-1 $-1 $-1 $51 $-1 $25 #
shell $-1 $-1 $-1 $52 $-1 $27 #
shell $-1 $-1 $-1 $53 $-1 $29 #
shell $-1 $-1 $-1 $54 $-1 $31 #
face $-1 $55 $56 $33 $-1 $57 reversed single #
face $-1 $58 $59 $34 $-1 $60 forward single #
face $-1 $61 $62 $35 $-1 $63 forward single #
face $-1 $64 $65 $36 $-1 $66 reversed single #
face $-1 $67 $68 $37 $-1 $69 forward single #
face $-1 $70 $71 $38 $-1 $72 reversed single #
face $-1 $73 $74 $39 $-1 $75 forward single #
face $-1 $76 $77 $40 $-1 $78 reversed single #
face $-1 $79 $80 $41 $-1 $81 forward single #
face $-1 $82 $83 $42 $-1 $84 reversed single #
face $-1 $85 $86 $43 $-1 $87 forward single #
face $-1 $88 $89 $33 $-1 $90 reversed single #
loop $-1 $-1 $91 $44 #
plane-surface $-1 0 31.413917637516164 0 0 -1 0 0 0 -1 forward_v I I I I #
face $-1 $92 $93 $34 $-1 $94 reversed single #
loop $-1 $-1 $95 $45 #
plane-surface $-1 0 -31.413917637516164 0 0 1 0 0 0 1 forward_v I I I I #
face $-1 $96 $97 $35 $-1 $98 reversed single #
loop $-1 $-1 $99 $46 #
plane-surface $-1 0 31.413917637516164 0 0 -1 0 0 0 -1 forward_v I I I I #
face $-1 $100 $101 $36 $-1 $102 reversed single #
loop $-1 $-1 $103 $47 #
plane-surface $-1 -139.6941303547799 -12.815230203471728 118.10938960883435 0 1 0 -0.54463904215088732 0 0.83867056331134215 forward_v I I I I #
face $-1 $104 $105 $37 $-1 $106 forward single #
loop $-1 $107 $108 $48 #
cone-surface $-1 -60.129332179879675 -9.8375462513073018 9.5704258138616858 0.54463904215088732 0 -0.83867056331134215 0.83867056331134215 0 0.54463904215088732 1 I I 0 1 1 forward I I I I #
face $-1 $109 $110 $38 $-1 $111 reversed single #
loop $-1 $-1 $112 $49 #
plane-surface $-1 -139.6941303547799 -2.9776839521644263 118.10938960883435 0 1 0 -0.54463904215088732 0 0.83867056331134215 forward_v I I I I #
face $-1 $113 $114 $39 $-1 $115 forward single #
loop $-1 $116 $117 $50 #
cone-surface $-1 -60.129332179879675 0 9.5704258138616858 0.54463904215088732 0 -0.83867056331134215 0.83867056331134215 0 0.54463904215088732 1 I I 0 1 1 forward I I I I #
face $-1 $118 $119 $40 $-1 $120 reversed single #
loop $-1 $-1 $121 $51 #
plane-surface $-1 -139.6941303547799 6.8598622991428755 118.10938960883435 0 1 0 -0.54463904215088732 0 0.83867056331134215 forward_v I I I I #
face $-1 $122 $123 $41 $-1 $124 forward single #
loop $-1 $125 $126 $52 #
cone-surface $-1 -60.129332179879675 9.8375462513073018 9.5704258138616858 0.54463904215088732 0 -0.83867056331134215 0.83867056331134215 0 0.54463904215088732 1 I I 0 1 1 forward I I I I #
face $-1 $127 $128 $42 $-1 $129 reversed single #
loop $-1 $-1 $130 $53 #
plane-surface $-1 89.909764582163149 14.597857045227357 190.14288185837222 0 -1 0 -0.78801076186113728 0 -0.61566146476048833 forward_v I I I I #
face $-1 $131 $132 $43 $-1 $133 forward single #
loop $-1 $134 $135 $54 #
cone-surface $-1 60.938345960886153 11.397269971459465 7.3223071416398637 -0.78801076186113728 0 -0.61566146476048833 0.9234921971407325 0 -1.182016142791706 1 I I 0 1 1.5 forward I I I I #
face $-1 $136 $137 $33 $-1 $138 forward single #
loop $-1 $-1 $139 $55 #
plane-surface $-1 0 -31.413917637516164 0 0 1 0 0 0 1 forward_v I I I I #
coedge $-1 $140 $141 $142 $143 reversed $56 $-1 #
face $-1 $144 $145 $34 $-1 $146 reversed single #
loop $-1 $-1 $147 $58 #
plane-surface $-1 0 0 -14.252218420700066 0 0 1 1 0 0 forward_v I I I I #
coedge $-1 $148 $149 $150 $151 forward $59 $-1 #
face $-1 $152 $153 $35 $-1 $154 reversed single #
loop $-1 $-1 $155 $61 #
plane-surface $-1 0 0 -14.252218420700066 0 0 1 1 0 0 forward_v I I I I #
coedge $-1 $156 $157 $158 $159 forward $62 $-1 #
face $-1 $160 $161 $36 $-1 $162 reversed single #
loop $-1 $-1 $163 $64 #
plane-surface $-1 -66.862392040772761 -9.8375462513073018 5.9583496144770152 -0.54463904215088732 0 0.83867056331134215 0.83867056331134215 0 0.54463904215088732 forward_v I I I I #
coedge $-1 $164 $165 $166 $167 reversed $65 $-1 #
face $-1 $-1 $168 $37 $-1 $169 forward single #
loop $-1 $170 $171 $67 #
cone-surface $-1 -59.509671673549946 -9.8375462513073018 8.6162323284791835 0.54463904215088732 0 -0.83867056331134215 0.41933528165567108 0 0.27231952107544366 1 I I -0.70710678118654746 0.70710678118654746 0.5 forward I I I I #
loop $-1 $-1 $172 $48 #
coedge $-1 $108 $108 $173 $174 reversed $68 $-1 #
face $-1 $175 $176 $38 $-1 $177 reversed single #
loop $-1 $-1 $178 $70 #
plane-surface $-1 -66.862392040772761 0 5.9583496144770152 -0.54463904215088732 0 0.83867056331134215 0.83867056331134215 0 0.54463904215088732 forward_v I I I I #
coedge $-1 $179 $180 $181 $182 reversed $71 $-1 #
face $-1 $-1 $183 $39 $-1 $184 forward single #
loop $-1 $185 $186 $73 #
cone-surface $-1 -59.509671673549946 0 8.6162323284791835 0.54463904215088732 0 -0.83867056331134215 0.41933528165567108 0 0.27231952107544366 1 I I -0.70710678118654746 0.70710678118654746 0.5 forward I I I I #
loop $-1 $-1 $187 $50 #
coedge $-1 $117 $117 $188 $189 reversed $74 $-1 #
face $-1 $190 $191 $40 $-1 $192 reversed single #
loop $-1 $-1 $193 $76 #
plane-surface $-1 -66.862392040772761 9.8375462513073018 5.9583496144770152 -0.54463904215088732 0 0.83867056331134215 0.83867056331134215 0 0.54463904215088732 forward_v I I I I #
coedge $-1 $194 $195 $196 $197 reversed $77 $-1 #
face $-1 $-1 $198 $41 $-1 $199 forward single #
loop $-1 $200 $201 $79 #
cone-surface $-1 -59.509671673549946 9.8375462513073018 8.6162323284791835 0.54463904215088732 0 -0.83867056331134215 0.41933528165567108 0 0.27231952107544366 1 I I -0.70710678118654746 0.70710678118654746 0.5 forward I I I I #
loop $-1 $-1 $202 $52 #
coedge $-1 $126 $126 $203 $204 reversed $80 $-1 #
face $-1 $205 $206 $42 $-1 $207 reversed single #
loop $-1 $-1 $208 $82 #
plane-surface $-1 -15.466804401651572 11.397269971459465 107.8136854159479 0.78801076186113728 0 0.61566146476048833 0.61566146476048833 0 -0.78801076186113728 forward_v I I I I #
coedge $-1 $209 $210 $211 $212 reversed $83 $-1 #
face $-1 $-1 $213 $43 $-1 $214 forward single #
loop $-1 $215 $216 $85 #
cone-surface $-1 59.038776361740759 11.397269971459465 5.8382007582927375 -0.78801076186113728 0 -0.61566146476048833 0.46174609857036625 0 -0.59100807139585299 1 I I -0.70710678118654757 0.70710678118654757 0.75 forward I I I I #
loop $-1 $-1 $217 $54 #
coedge $-1 $135 $135 $218 $219 reversed $86 $-1 #
face $-1 $220 $221 $33 $-1 $222 reversed single #
loop $-1 $-1 $223 $88 #
plane-surface $-1 0 0 14.252218420700066 0 0 1 1 0 0 forward_v I I I I #
coedge $-1 $224 $225 $226 $227 reversed $89 $-1 #
coedge $-1 $228 $91 $229 $230 reversed $56 $-1 #
coedge $-1 $91 $228 $231 $232 forward $56 $-1 #
coedge $-1 $233 $234 $91 $143 forward $221 $-1 #
edge $-1 $235 -66.862392040772733 $236 66.862392040772733 $91 $237 forward 7 unknown #
face $-1 $238 $239 $34 $-1 $240 reversed single #
loop $-1 $-1 $241 $92 #
plane-surface $-1 -42.083218762597433 -48.229978229804971 0 0 1 0 0 0 1 forward_v I I I I #
coedge $-1 $242 $243 $149 $244 forward $93 $-1 #
coedge $-1 $245 $95 $246 $247 reversed $59 $-1 #
coedge $-1 $95 $245 $147 $244 reversed $59 $-1 #
coedge $-1 $248 $249 $95 $151 reversed $239 $-1 #
edge $-1 $250 -14.252218420700066 $251 14.252218420700066 $150 $252 forward 7 unknown #
face $-1 $253 $254 $35 $-1 $255 reversed single #
loop $-1 $-1 $256 $96 #
plane-surface $-1 -43.981412262453297 39.821947933660567 0 1 0 0 0 0 -1 forward_v I I I I #
coedge $-1 $257 $258 $157 $259 forward $97 $-1 #
coedge $-1 $260 $99 $261 $262 reversed $62 $-1 #
coedge $-1 $99 $260 $155 $259 reversed $62 $-1 #
coedge $-1 $263 $264 $99 $159 reversed $265 $-1 #
edge $-1 $266 -14.252218420700066 $267 14.252218420700066 $158 $268 forward 7 unknown #
face $-1 $269 $270 $36 $-1 $271 reversed single #
loop $-1 $-1 $272 $100 #
plane-surface $-1 -139.6941303547799 -6.8598622991428755 118.10938960883435 0 -1 0 0.54463904215088732 0 -0.83867056331134215 forward_v I I I I #
coedge $-1 $273 $274 $275 $276 reversed $101 $-1 #
coedge $-1 $165 $103 $277 $278 reversed $65 $-1 #
coedge $-1 $103 $164 $273 $279 reversed $65 $-1 #
coedge $-1 $275 $280 $103 $167 forward $281 $-1 #
edge $-1 $282 2.9846731366172179 $283 15.756110887894678 $166 $284 forward 7 unknown #
loop $-1 $-1 $173 $104 #
plane-surface $-1 -66.862392040772761 -9.8375462513073018 5.9583496144770152 -0.54463904215088732 0 0.83867056331134215 0.83867056331134215 0 0.54463904215088732 forward_v I I I I #
loop $-1 $-1 $285 $67 #
coedge $-1 $171 $171 $172 $286 reversed $105 $-1 #
coedge $-1 $172 $172 $171 $286 forward $107 $-1 #
coedge $-1 $173 $173 $108 $174 forward $168 $-1 #
edge $-1 $287 0 $287 6.2831853071796004 $173 $288 forward 7 unknown #
face $-1 $289 $290 $38 $-1 $291 forward single #
loop $-1 $-1 $292 $109 #
plane-surface $-1 -139.6941303547799 2.9776839521644263 118.10938960883435 0 -1 0 0.54463904215088732 0 -0.83867056331134215 forward_v I I I I #
coedge $-1 $293 $294 $295 $296 reversed $110 $-1 #
coedge $-1 $180 $112 $297 $298 reversed $71 $-1 #
coedge $-1 $112 $179 $293 $299 reversed $71 $-1 #
coedge $-1 $295 $300 $112 $182 forward $290 $-1 #
edge $-1 $301 2.9846731366172179 $302 15.756110887894678 $181 $303 forward 7 unknown #
loop $-1 $-1 $188 $113 #
plane-surface $-1 -66.862392040772761 0 5.9583496144770152 -0.54463904215088732 0 0.83867056331134215 0.83867056331134215 0 0.54463904215088732 forward_v I I I I #
loop $-1 $-1 $304 $73 #
coedge $-1 $186 $186 $187 $305 reversed $114 $-1 #
coedge $-1 $187 $187 $186 $305 forward $116 $-1 #
coedge $-1 $188 $188 $117 $189 forward $183 $-1 #
edge $-1 $306 0 $306 6.2831853071796004 $188 $307 forward 7 unknown #
face $-1 $308 $309 $40 $-1 $310 forward single #
loop $-1 $-1 $311 $118 #
plane-surface $-1 -139.6941303547799 12.815230203471728 118.10938960883435 0 -1 0 0.54463904215088732 0 -0.83867056331134215 forward_v I I I I #
coedge $-1 $312 $313 $314 $315 reversed $119 $-1 #
coedge $-1 $195 $121 $316 $317 reversed $77 $-1 #
coedge $-1 $121 $194 $312 $318 reversed $77 $-1 #
coedge $-1 $314 $319 $121 $197 forward $309 $-1 #
edge $-1 $320 2.9846731366172179 $321 15.756110887894678 $196 $322 forward 7 unknown #
loop $-1 $-1 $203 $122 #
plane-surface $-1 -66.862392040772761 9.8375462513073018 5.9583496144770152 -0.54463904215088732 0 0.83867056331134215 0.83867056331134215 0 0.54463904215088732 forward_v I I I I #
loop $-1 $-1 $323 $79 #
coedge $-1 $201 $201 $202 $324 reversed $123 $-1 #
coedge $-1 $202 $202 $201 $324 forward $125 $-1 #
coedge $-1 $203 $203 $126 $204 forward $198 $-1 #
edge $-1 $325 0 $325 6.2831853071796004 $203 $326 forward 7 unknown #
face $-1 $327 $328 $42 $-1 $329 forward single #
loop $-1 $-1 $330 $127 #
plane-surface $-1 89.909764582163149 8.1966828976915735 190.14288185837222 0 1 0 0.78801076186113728 0 0.61566146476048833 forward_v I I I I #
coedge $-1 $331 $332 $333 $334 reversed $128 $-1 #
coedge $-1 $210 $130 $335 $336 reversed $83 $-1 #
coedge $-1 $130 $209 $331 $337 reversed $83 $-1 #
coedge $-1 $333 $338 $130 $212 forward $328 $-1 #
edge $-1 $339 -21.907509749691158 $340 -12.676540645417077 $211 $341 forward 7 unknown #
loop $-1 $-1 $218 $131 #
plane-surface $-1 -15.466804401651572 11.397269971459465 107.8136854159479 0.78801076186113728 0 0.61566146476048833 0.61566146476048833 0 -0.78801076186113728 forward_v I I I I #
loop $-1 $-1 $342 $85 #
coedge $-1 $216 $216 $217 $343 reversed $132 $-1 #
coedge $-1 $217 $217 $216 $343 forward $134 $-1 #
coedge $-1 $218 $218 $135 $219 forward $213 $-1 #
edge $-1 $344 0 $344 6.2831853071796004 $218 $345 forward 7 unknown #
face $-1 $346 $347 $33 $-1 $348 reversed single #
loop $-1 $-1 $233 $136 #
plane-surface $-1 0 0 -14.252218420700066 0 0 1 1 0 0 forward_v I I I I #
coedge $-1 $349 $350 $351 $352 forward $137 $-1 #
coedge $-1 $353 $139 $354 $355 reversed $89 $-1 #
coedge $-1 $139 $353 $356 $357 forward $89 $-1 #
coedge $-1 $234 $233 $139 $227 forward $221 $-1 #
edge $-1 $358 -66.862392040772733 $359 66.862392040772733 $139 $360 forward 7 unknown #
coedge $-1 $141 $140 $349 $361 reversed $56 $-1 #
coedge $-1 $362 $363 $140 $230 forward $347 $-1 #
edge $-1 $364 -14.252218420700066 $235 14.252218420700066 $140 $365 forward 7 unknown #
coedge $-1 $351 $366 $141 $232 reversed $367 $-1 #
edge $-1 $368 -14.252218420700066 $236 14.252218420700066 $231 $369 forward 7 unknown #
coedge $-1 $226 $142 $366 $370 forward $221 $-1 #
coedge $-1 $142 $226 $362 $371 forward $221 $-1 #
vertex $-1 $143 $372 #
vertex $-1 $370 $373 #
straight-curve $-1 0 31.413917637516164 -14.252218420700066 1 0 0 I I #
face $-1 $374 $375 $34 $-1 $376 reversed single #
loop $-1 $-1 $150 $144 #
plane-surface $-1 -43.981412262453297 -39.821947933660567 0 1 0 0 0 0 -1 forward_v I I I I #
coedge $-1 $377 $378 $379 $380 forward $145 $-1 #
coedge $-1 $381 $147 $382 $383 forward $93 $-1 #
coedge $-1 $147 $381 $248 $384 forward $93 $-1 #
edge $-1 $250 -43.981412262453297 $385 -40.185025262741568 $147 $386 forward 7 unknown #
coedge $-1 $149 $148 $387 $388 forward $59 $-1 #
coedge $-1 $389 $390 $148 $247 forward $391 $-1 #
edge $-1 $392 40.185025262741568 $251 43.981412262453297 $246 $393 forward 7 unknown #
coedge $-1 $379 $150 $243 $384 reversed $239 $-1 #
coedge $-1 $150 $379 $389 $394 reversed $239 $-1 #
vertex $-1 $244 $395 #
vertex $-1 $394 $396 #
straight-curve $-1 -43.981412262453297 -31.413917637516164 0 0 0 1 I I #
face $-1 $397 $265 $35 $-1 $398 reversed single #
loop $-1 $-1 $399 $152 #
plane-surface $-1 -42.083218762597433 48.229978229804971 0 0 -1 0 0 0 -1 forward_v I I I I #
coedge $-1 $400 $401 $402 $403 forward $153 $-1 #
coedge $-1 $404 $155 $400 $405 forward $97 $-1 #
coedge $-1 $155 $404 $263 $406 forward $97 $-1 #
edge $-1 $266 40.185025262741568 $407 43.981412262453297 $155 $408 forward 7 unknown #
coedge $-1 $157 $156 $409 $410 forward $62 $-1 #
coedge $-1 $411 $412 $156 $262 forward $413 $-1 #
edge $-1 $414 -43.981412262453297 $267 -40.185025262741568 $261 $415 forward 7 unknown #
coedge $-1 $416 $158 $258 $406 reversed $265 $-1 #
coedge $-1 $158 $416 $411 $417 reversed $265 $-1 #
loop $-1 $-1 $158 $253 #
vertex $-1 $259 $418 #
vertex $-1 $417 $419 #
straight-curve $-1 -40.185025262741568 31.413917637516164 0 0 0 1 I I #
face $-1 $-1 $281 $36 $-1 $420 forward single #
loop $-1 $-1 $421 $160 #
plane-surface $-1 -66.862392040772733 0 0 1 0 0 0 0 -1 forward_v I I I I #
coedge $-1 $422 $423 $424 $425 reversed $161 $-1 #
coedge $-1 $426 $163 $165 $279 forward $101 $-1 #
coedge $-1 $163 $426 $422 $427 forward $101 $-1 #
coedge $-1 $424 $166 $163 $276 forward $281 $-1 #
edge $-1 $283 -7.8964570778180772 $428 -1.9410891734892246 $275 $429 forward 7 unknown #
coedge $-1 $430 $431 $164 $278 forward $270 $-1 #
edge $-1 $432 -53.096345189940138 $282 -44.802476383717107 $277 $433 forward 7 unknown #
edge $-1 $283 -15.228193655506079 $432 -3.3994920577324079e-014 $165 $434 forward 7 unknown #
coedge $-1 $166 $424 $430 $435 forward $281 $-1 #
loop $-1 $-1 $424 $269 #
vertex $-1 $278 $436 #
vertex $-1 $167 $437 #
straight-curve $-1 -69.84706517738995 -12.815230203471728 14.252218420700068 1 0 0 I I #
coedge $-1 $285 $285 $-1 $438 reversed $170 $-1 #
edge $-1 $439 0 $439 6.2831853071796004 $171 $440 forward 7 unknown #
vertex $-1 $174 $441 #
ellipse-curve $-1 -60.476673165133988 -9.8375462513073018 10.105284017588559 -0.54463904215088732 0 0.83867056331134215 0.83867056331134215 0 0.54463904215088732 1 I I #
face $-1 $-1 $442 $38 $-1 $443 reversed single #
loop $-1 $-1 $181 $175 #
plane-surface $-1 0 0 14.252218420700066 0 0 1 1 0 0 forward_v I I I I #
coedge $-1 $444 $445 $446 $447 reversed $176 $-1 #
coedge $-1 $448 $178 $180 $299 forward $110 $-1 #
coedge $-1 $178 $448 $444 $449 forward $110 $-1 #
coedge $-1 $446 $181 $178 $296 forward $290 $-1 #
edge $-1 $302 -2.9776839521644263 $450 2.9776839521644263 $295 $451 forward 7 unknown #
coedge $-1 $452 $453 $179 $298 forward $442 $-1 #
edge $-1 $454 -53.096345189940138 $301 -44.802476383717107 $297 $455 forward 7 unknown #
edge $-1 $302 -15.228193655506079 $454 -3.3994920577324079e-014 $180 $456 forward 7 unknown #
coedge $-1 $181 $446 $452 $457 forward $290 $-1 #
vertex $-1 $298 $458 #
vertex $-1 $182 $459 #
straight-curve $-1 -69.84706517738995 -2.9776839521644263 14.252218420700068 1 0 0 I I #
coedge $-1 $304 $304 $-1 $460 reversed $185 $-1 #
edge $-1 $461 0 $461 6.2831853071796004 $186 $462 forward 7 unknown #
vertex $-1 $189 $463 #
ellipse-curve $-1 -60.476673165133988 0 10.105284017588559 -0.54463904215088732 0 0.83867056331134215 0.83867056331134215 0 0.54463904215088732 1 I I #
face $-1 $-1 $464 $40 $-1 $465 reversed single #
loop $-1 $-1 $196 $190 #
plane-surface $-1 0 0 14.252218420700066 0 0 1 1 0 0 forward_v I I I I #
coedge $-1 $466 $467 $468 $469 reversed $191 $-1 #
coedge $-1 $470 $193 $195 $318 forward $119 $-1 #
coedge $-1 $193 $470 $466 $471 forward $119 $-1 #
coedge $-1 $468 $196 $193 $315 forward $309 $-1 #
edge $-1 $321 1.9410891734892246 $472 7.8964570778180772 $314 $473 forward 7 unknown #
coedge $-1 $474 $475 $194 $317 forward $464 $-1 #
edge $-1 $476 -53.096345189940138 $320 -44.802476383717107 $316 $477 forward 7 unknown #
edge $-1 $321 -15.228193655506079 $476 -3.3994920577324079e-014 $195 $478 forward 7 unknown #
coedge $-1 $196 $468 $474 $479 forward $309 $-1 #
vertex $-1 $197 $480 #
vertex $-1 $197 $481 #
straight-curve $-1 -69.84706517738995 6.8598622991428755 14.252218420700068 1 0 0 I I #
coedge $-1 $323 $323 $-1 $482 reversed $200 $-1 #
edge $-1 $483 0 $483 6.2831853071796004 $201 $484 forward 7 unknown #
vertex $-1 $204 $485 #
ellipse-curve $-1 -60.476673165133988 9.8375462513073018 10.105284017588559 -0.54463904215088732 0 0.83867056331134215 0.83867056331134215 0 0.54463904215088732 1 I I #
face $-1 $-1 $486 $42 $-1 $487 reversed single #
loop $-1 $-1 $211 $205 #
plane-surface $-1 0 0 14.252218420700066 0 0 1 1 0 0 forward_v I I I I #
coedge $-1 $488 $489 $490 $491 reversed $206 $-1 #
coedge $-1 $492 $208 $210 $337 forward $128 $-1 #
coedge $-1 $208 $492 $488 $493 forward $128 $-1 #
coedge $-1 $490 $211 $208 $334 forward $328 $-1 #
edge $-1 $340 -8.8992220594976246 $494 -2.4980479119618408 $333 $495 forward 7 unknown #
coedge $-1 $496 $497 $209 $336 forward $486 $-1 #
edge $-1 $498 -92.634324497052916 $339 -80.81922250848605 $335 $499 forward 7 unknown #
edge $-1 $340 118.73120460217164 $498 133.72478408154544 $210 $500 forward 7 unknown #
coedge $-1 $211 $490 $496 $501 forward $328 $-1 #
vertex $-1 $212 $502 #
vertex $-1 $212 $503 #
straight-curve $-1 44.954882291081574 14.597857045227357 14.252218420700061 -1 0 0 I I #
coedge $-1 $342 $342 $-1 $504 reversed $215 $-1 #
edge $-1 $505 0 $505 6.2831853071796004 $216 $506 forward 7 unknown #
vertex $-1 $219 $507 #
ellipse-curve $-1 62.246907488635685 11.397269971459465 8.3446674264166205 0.78801076186113728 0 0.61566146476048833 0.9234921971407325 0 -1.182016142791706 1 I I #
face $-1 $-1 $367 $33 $-1 $508 reversed single #
loop $-1 $-1 $229 $220 #
plane-surface $-1 -66.862392040772733 0 0 1 0 0 0 0 -1 forward_v I I I I #
coedge $-1 $509 $223 $228 $361 forward $137 $-1 #
coedge $-1 $223 $509 $353 $510 forward $137 $-1 #
coedge $-1 $354 $231 $223 $352 reversed $367 $-1 #
edge $-1 $511 -31.413917637516164 $368 31.413917637516164 $351 $512 forward 7 unknown #
coedge $-1 $225 $224 $350 $510 reversed $89 $-1 #
coedge $-1 $366 $351 $224 $355 forward $367 $-1 #
edge $-1 $511 -14.252218420700066 $358 14.252218420700066 $354 $513 forward 7 unknown #
coedge $-1 $363 $362 $225 $357 reversed $347 $-1 #
edge $-1 $514 -14.252218420700066 $359 14.252218420700066 $356 $515 forward 7 unknown #
vertex $-1 $355 $516 #
vertex $-1 $371 $517 #
straight-curve $-1 0 -31.413917637516164 -14.252218420700066 -1 0 0 I I #
edge $-1 $368 -66.862392040772733 $364 66.862392040772733 $228 $518 forward 7 unknown #
coedge $-1 $356 $229 $234 $371 reversed $347 $-1 #
coedge $-1 $229 $356 $509 $519 reversed $347 $-1 #
vertex $-1 $361 $520 #
straight-curve $-1 -66.862392040772733 31.413917637516164 0 0 0 -1 I I #
coedge $-1 $231 $354 $233 $370 reversed $367 $-1 #
loop $-1 $-1 $354 $346 #
vertex $-1 $352 $521 #
straight-curve $-1 66.862392040772733 31.413917637516164 0 0 0 -1 I I #
edge $-1 $236 -31.413917637516164 $358 31.413917637516164 $366 $522 forward 7 unknown #
edge $-1 $359 -31.413917637516164 $235 31.413917637516164 $362 $523 forward 7 unknown #
point $-1 -66.862392040772733 31.413917637516164 -14.252218420700066 #
point $-1 66.862392040772733 31.413917637516164 -14.252218420700066 #
face $-1 $-1 $391 $34 $-1 $524 forward single #
loop $-1 $-1 $525 $238 #
plane-surface $-1 -40.185025262741568 -39.821947933660567 0 -1 0 0 0 0 1 forward_v I I I I #
coedge $-1 $526 $241 $381 $527 reversed $145 $-1 #
coedge $-1 $241 $526 $528 $529 reversed $145 $-1 #
coedge $-1 $249 $248 $241 $380 reversed $239 $-1 #
edge $-1 $530 -14.252218420700066 $531 14.252218420700066 $379 $532 forward 7 unknown #
coedge $-1 $243 $242 $377 $527 forward $93 $-1 #
coedge $-1 $387 $525 $242 $383 reversed $375 $-1 #
edge $-1 $385 -8.4080302961444033 $533 8.4080302961444033 $382 $534 forward 7 unknown #
edge $-1 $531 -8.4080302961444033 $250 8.4080302961444033 $248 $535 forward 7 unknown #
vertex $-1 $383 $536 #
straight-curve $-1 0 -31.413917637516164 -14.252218420700066 1 0 0 I I #
coedge $-1 $537 $382 $245 $388 reversed $375 $-1 #
edge $-1 $392 -14.252218420700066 $385 14.252218420700066 $387 $538 forward 7 unknown #
coedge $-1 $528 $246 $249 $394 forward $391 $-1 #
coedge $-1 $246 $528 $537 $539 forward $391 $-1 #
loop $-1 $-1 $246 $374 #
vertex $-1 $247 $540 #
straight-curve $-1 0 -31.413917637516164 14.252218420700066 -1 0 0 I I #
edge $-1 $251 -8.4080302961444033 $530 8.4080302961444033 $249 $541 forward 7 unknown #
point $-1 -43.981412262453297 -31.413917637516164 -14.252218420700066 #
point $-1 -43.981412262453297 -31.413917637516164 14.252218420700066 #
face $-1 $-1 $413 $35 $-1 $542 forward single #
plane-surface $-1 -40.185025262741568 39.821947933660567 0 -1 0 0 0 0 1 forward_v I I I I #
coedge $-1 $543 $544 $416 $545 forward $254 $-1 #
coedge $-1 $409 $256 $257 $405 reversed $153 $-1 #
coedge $-1 $256 $409 $412 $546 reversed $153 $-1 #
coedge $-1 $544 $543 $256 $403 reversed $254 $-1 #
edge $-1 $547 -14.252218420700066 $548 14.252218420700066 $402 $549 forward 7 unknown #
coedge $-1 $258 $257 $543 $550 forward $97 $-1 #
edge $-1 $407 -8.4080302961444033 $548 8.4080302961444033 $400 $551 forward 7 unknown #
edge $-1 $552 -8.4080302961444033 $266 8.4080302961444033 $263 $553 forward 7 unknown #
vertex $-1 $405 $554 #
straight-curve $-1 0 31.413917637516164 -14.252218420700066 -1 0 0 I I #
coedge $-1 $401 $400 $260 $410 reversed $153 $-1 #
edge $-1 $414 -14.252218420700066 $407 14.252218420700066 $409 $555 forward 7 unknown #
coedge $-1 $556 $261 $264 $417 forward $413 $-1 #
coedge $-1 $261 $556 $401 $546 forward $413 $-1 #
loop $-1 $-1 $261 $397 #
vertex $-1 $262 $557 #
straight-curve $-1 0 31.413917637516164 14.252218420700066 1 0 0 I I #
coedge $-1 $264 $263 $399 $545 reversed $265 $-1 #
edge $-1 $267 -8.4080302961444033 $558 8.4080302961444033 $264 $559 forward 7 unknown #
point $-1 -40.185025262741568 31.413917637516164 -14.252218420700066 #
point $-1 -40.185025262741568 31.413917637516164 14.252218420700066 #
plane-surface $-1 0 0 14.252218420700066 0 0 1 1 0 0 forward_v I I I I #
coedge $-1 $431 $430 $423 $560 forward $270 $-1 #
coedge $-1 $423 $272 $274 $427 reversed $161 $-1 #
coedge $-1 $272 $422 $421 $560 reversed $161 $-1 #
coedge $-1 $280 $275 $272 $425 forward $281 $-1 #
edge $-1 $428 -15.756110887894678 $561 -2.9846731366172179 $424 $562 forward 7 unknown #
coedge $-1 $274 $273 $431 $563 reversed $101 $-1 #
edge $-1 $564 3.3994920577324079e-014 $428 15.228193655506079 $422 $565 forward 7 unknown #
vertex $-1 $276 $566 #
straight-curve $-1 -54.090954289495272 -4.9187731256536509 14.252218420700066 0 1 0 I I #
coedge $-1 $421 $277 $280 $435 reversed $270 $-1 #
coedge $-1 $277 $421 $426 $563 forward $270 $-1 #
vertex $-1 $278 $567 #
straight-curve $-1 -66.862392040772733 -12.815230203471728 59.054694804417174 0 0 1 I I #
straight-curve $-1 -66.862392040772761 -12.815230203471728 5.9583496144770152 -0.83867056331134215 0 -0.54463904215088732 I I #
edge $-1 $561 6.8598622991428755 $282 12.815230203471728 $430 $568 forward 7 unknown #
point $-1 -66.862392040772733 -12.815230203471728 14.252218420700066 #
point $-1 -54.090954289495272 -12.815230203471728 14.252218420700066 #
edge $-1 $569 1 $569 0 $285 $-1 forward 7 unknown #
vertex $-1 $286 $570 #
ellipse-curve $-1 -59.781991194625391 -9.8375462513073018 9.035567610134855 -0.54463904215088732 0 0.83867056331134215 0.83867056331134215 0 0.54463904215088732 1 I I #
point $-1 -59.638002601822613 -9.8375462513073018 10.649923059739406 #
loop $-1 $-1 $297 $289 #
plane-surface $-1 -66.862392040772733 0 0 1 0 0 0 0 -1 forward_v I I I I #
coedge $-1 $445 $292 $294 $449 reversed $176 $-1 #
coedge $-1 $292 $444 $571 $572 reversed $176 $-1 #
coedge $-1 $300 $295 $292 $447 forward $290 $-1 #
edge $-1 $450 -15.756110887894678 $573 -2.9846731366172179 $446 $574 forward 7 unknown #
coedge $-1 $294 $293 $453 $575 reversed $110 $-1 #
edge $-1 $576 3.3994920577324079e-014 $450 15.228193655506079 $444 $577 forward 7 unknown #
vertex $-1 $296 $578 #
straight-curve $-1 -54.090954289495272 0 14.252218420700066 0 1 0 I I #
coedge $-1 $571 $297 $300 $457 reversed $442 $-1 #
coedge $-1 $297 $571 $448 $575 forward $442 $-1 #
vertex $-1 $298 $579 #
straight-curve $-1 -66.862392040772733 -2.9776839521644263 59.054694804417174 0 0 1 I I #
straight-curve $-1 -66.862392040772761 -2.9776839521644263 5.9583496144770152 -0.83867056331134215 0 -0.54463904215088732 I I #
edge $-1 $573 -2.9776839521644263 $301 2.9776839521644263 $452 $580 forward 7 unknown #
point $-1 -66.862392040772733 -2.9776839521644263 14.252218420700066 #
point $-1 -54.090954289495272 -2.9776839521644263 14.252218420700066 #
edge $-1 $581 1 $581 0 $304 $-1 forward 7 unknown #
vertex $-1 $305 $582 #
ellipse-curve $-1 -59.781991194625391 0 9.035567610134855 -0.54463904215088732 0 0.83867056331134215 0.83867056331134215 0 0.54463904215088732 1 I I #
point $-1 -59.638002601822613 0 10.649923059739406 #
loop $-1 $-1 $316 $308 #
plane-surface $-1 -66.862392040772733 0 0 1 0 0 0 0 -1 forward_v I I I I #
coedge $-1 $467 $311 $313 $471 reversed $191 $-1 #
coedge $-1 $311 $466 $583 $584 reversed $191 $-1 #
coedge $-1 $319 $314 $311 $469 forward $309 $-1 #
edge $-1 $472 -15.756110887894678 $585 -2.9846731366172179 $468 $586 forward 7 unknown #
coedge $-1 $313 $312 $475 $587 reversed $119 $-1 #
edge $-1 $588 3.3994920577324079e-014 $472 15.228193655506079 $466 $589 forward 7 unknown #
vertex $-1 $315 $590 #
straight-curve $-1 -54.090954289495272 4.9187731256536509 14.252218420700066 0 1 0 I I #
coedge $-1 $583 $316 $319 $479 reversed $464 $-1 #
coedge $-1 $316 $583 $470 $587 forward $464 $-1 #
vertex $-1 $317 $591 #
straight-curve $-1 -66.862392040772733 6.8598622991428755 59.054694804417174 0 0 1 I I #
straight-curve $-1 -66.862392040772761 6.8598622991428755 5.9583496144770152 -0.83867056331134215 0 -0.54463904215088732 I I #
edge $-1 $585 -12.815230203471728 $320 -6.8598622991428755 $474 $592 forward 7 unknown #
point $-1 -66.862392040772733 6.8598622991428755 14.252218420700066 #
point $-1 -54.090954289495272 6.8598622991428755 14.252218420700066 #
edge $-1 $593 1 $593 0 $323 $-1 forward 7 unknown #
vertex $-1 $324 $594 #
ellipse-curve $-1 -59.781991194625391 9.8375462513073018 9.035567610134855 -0.54463904215088732 0 0.83867056331134215 0.83867056331134215 0 0.54463904215088732 1 I I #
point $-1 -59.638002601822613 9.8375462513073018 10.649923059739406 #
loop $-1 $-1 $335 $327 #
plane-surface $-1 66.862392040772733 0 0 -1 0 0 0 0 1 forward_v I I I I #
coedge $-1 $489 $330 $332 $493 reversed $206 $-1 #
coedge $-1 $330 $488 $595 $596 reversed $206 $-1 #
coedge $-1 $338 $333 $330 $491 forward $328 $-1 #
edge $-1 $494 12.676540645417077 $597 21.907509749691158 $490 $598 forward 7 unknown #
coedge $-1 $332 $331 $497 $599 reversed $128 $-1 #
edge $-1 $600 -133.72478408154544 $494 -118.73120460217164 $488 $601 forward 7 unknown #
vertex $-1 $334 $602 #
straight-curve $-1 57.631422936498652 5.6986349857297327 14.252218420700061 0 -1 0 I I #
coedge $-1 $595 $335 $338 $501 reversed $486 $-1 #
coedge $-1 $335 $595 $492 $599 forward $486 $-1 #
vertex $-1 $336 $603 #
straight-curve $-1 66.862392040772733 14.597857045227357 95.07144092918611 0 0 1 I I #
straight-curve $-1 -15.466804401651572 14.597857045227357 107.8136854159479 0.61566146476048833 0 -0.78801076186113728 I I #
edge $-1 $597 8.1966828976915735 $339 14.597857045227357 $496 $604 forward 7 unknown #
point $-1 66.862392040772733 14.597857045227357 14.252218420700066 #
point $-1 57.631422936498652 14.597857045227357 14.252218420700061 #
edge $-1 $605 1 $605 0 $342 $-1 forward 7 unknown #
vertex $-1 $343 $606 #
ellipse-curve $-1 59.629784433136614 11.397269971459465 6.2999468568631034 0.78801076186113728 0 0.61566146476048833 0.9234921971407325 0 -1.182016142791706 1 I I #
point $-1 63.170399685776424 11.397269971459465 7.1626512836249168 #
plane-surface $-1 66.862392040772733 0 0 -1 0 0 0 0 1 forward_v I I I I #
coedge $-1 $350 $349 $363 $519 forward $137 $-1 #
edge $-1 $514 -66.862392040772733 $511 66.862392040772733 $353 $607 forward 7 unknown #
vertex $-1 $352 $608 #
straight-curve $-1 66.862392040772733 0 14.252218420700066 0 1 0 I I #
straight-curve $-1 66.862392040772733 -31.413917637516164 0 0 0 -1 I I #
vertex $-1 $519 $609 #
straight-curve $-1 -66.862392040772733 -31.413917637516164 0 0 0 -1 I I #
point $-1 66.862392040772733 -31.413917637516164 -14.252218420700066 #
point $-1 -66.862392040772733 -31.413917637516164 -14.252218420700066 #
straight-curve $-1 0 31.413917637516164 14.252218420700066 -1 0 0 I I #
edge $-1 $364 -31.413917637516164 $514 31.413917637516164 $363 $610 forward 7 unknown #
point $-1 -66.862392040772733 31.413917637516164 14.252218420700066 #
point $-1 66.862392040772733 31.413917637516164 14.252218420700066 #
straight-curve $-1 66.862392040772733 0 -14.252218420700066 0 -1 0 I I #
straight-curve $-1 -66.862392040772733 0 -14.252218420700066 0 1 0 I I #
plane-surface $-1 0 0 14.252218420700066 0 0 1 1 0 0 forward_v I I I I #
coedge $-1 $382 $537 $526 $611 forward $375 $-1 #
coedge $-1 $378 $377 $525 $611 reversed $145 $-1 #
edge $-1 $533 -1.8981934998558643 $531 1.8981934998558643 $377 $612 forward 7 unknown #
coedge $-1 $390 $389 $378 $529 forward $391 $-1 #
edge $-1 $530 -1.8981934998558643 $613 1.8981934998558643 $378 $614 forward 7 unknown #
vertex $-1 $394 $615 #
vertex $-1 $384 $616 #
straight-curve $-1 -43.981412262453297 -48.229978229804971 0 0 0 -1 I I #
vertex $-1 $611 $617 #
straight-curve $-1 -40.185025262741568 -39.821947933660567 -14.252218420700066 0 -1 0 I I #
straight-curve $-1 -43.981412262453297 -39.821947933660567 -14.252218420700066 0 1 0 I I #
point $-1 -40.185025262741568 -31.413917637516164 -14.252218420700066 #
coedge $-1 $525 $387 $390 $539 reversed $375 $-1 #
straight-curve $-1 -40.185025262741568 -31.413917637516164 0 0 0 -1 I I #
edge $-1 $613 -8.4080302961444033 $392 8.4080302961444033 $537 $618 forward 7 unknown #
point $-1 -40.185025262741568 -31.413917637516164 14.252218420700066 #
straight-curve $-1 -43.981412262453297 -39.821947933660567 14.252218420700066 0 -1 0 I I #
plane-surface $-1 0 0 14.252218420700066 0 0 1 1 0 0 forward_v I I I I #
coedge $-1 $402 $399 $404 $550 reversed $254 $-1 #
coedge $-1 $399 $402 $556 $619 reversed $254 $-1 #
edge $-1 $558 -14.252218420700066 $552 14.252218420700066 $416 $620 forward 7 unknown #
edge $-1 $547 -8.4080302961444033 $414 8.4080302961444033 $401 $621 forward 7 unknown #
vertex $-1 $619 $622 #
vertex $-1 $550 $623 #
straight-curve $-1 -43.981412262453297 48.229978229804971 0 0 0 -1 I I #
edge $-1 $548 -1.8981934998558643 $552 1.8981934998558643 $543 $624 forward 7 unknown #
straight-curve $-1 -43.981412262453297 39.821947933660567 -14.252218420700066 0 1 0 I I #
vertex $-1 $406 $625 #
straight-curve $-1 -40.185025262741568 39.821947933660567 -14.252218420700066 0 -1 0 I I #
point $-1 -43.981412262453297 31.413917637516164 -14.252218420700066 #
straight-curve $-1 -43.981412262453297 31.413917637516164 0 0 0 -1 I I #
coedge $-1 $412 $411 $544 $619 forward $413 $-1 #
point $-1 -43.981412262453297 31.413917637516164 14.252218420700066 #
vertex $-1 $417 $626 #
straight-curve $-1 -40.185025262741568 39.821947933660567 14.252218420700066 0 1 0 I I #
edge $-1 $561 44.802476383717107 $564 53.096345189940138 $421 $627 forward 7 unknown #
vertex $-1 $435 $628 #
straight-curve $-1 -69.84706517738995 -6.8598622991428755 14.252218420700068 -1 0 0 I I #
edge $-1 $564 1.9410891734892246 $432 7.8964570778180772 $431 $629 forward 7 unknown #
vertex $-1 $563 $630 #
straight-curve $-1 -66.862392040772761 -6.8598622991428755 5.9583496144770152 0.83867056331134215 0 0.54463904215088732 I I #
point $-1 -54.090954289495272 -6.8598622991428755 14.252218420700066 #
point $-1 -66.862392040772733 -12.815230203471728 5.9583496144770338 #
straight-curve $-1 -66.862392040772733 0 14.252218420700066 0 -1 0 I I #
vertex $-1 $438 $631 #
point $-1 -58.943320631314045 -9.8375462513073018 9.5802066522857423 #
coedge $-1 $453 $452 $445 $572 forward $442 $-1 #
edge $-1 $573 44.802476383717107 $576 53.096345189940138 $571 $632 forward 7 unknown #
vertex $-1 $457 $633 #
straight-curve $-1 -69.84706517738995 2.9776839521644263 14.252218420700068 -1 0 0 I I #
edge $-1 $576 -2.9776839521644263 $454 2.9776839521644263 $453 $634 forward 7 unknown #
vertex $-1 $575 $635 #
straight-curve $-1 -66.862392040772761 2.9776839521644263 5.9583496144770152 0.83867056331134215 0 0.54463904215088732 I I #
point $-1 -54.090954289495272 2.9776839521644263 14.252218420700066 #
point $-1 -66.862392040772733 -2.9776839521644263 5.9583496144770338 #
straight-curve $-1 -66.862392040772733 0 14.252218420700066 0 -1 0 I I #
vertex $-1 $460 $636 #
point $-1 -58.943320631314045 0 9.5802066522857423 #
coedge $-1 $475 $474 $467 $584 forward $464 $-1 #
edge $-1 $585 44.802476383717107 $588 53.096345189940138 $583 $637 forward 7 unknown #
vertex $-1 $479 $638 #
straight-curve $-1 -69.84706517738995 12.815230203471728 14.252218420700068 -1 0 0 I I #
edge $-1 $588 -7.8964570778180772 $476 -1.9410891734892246 $475 $639 forward 7 unknown #
vertex $-1 $587 $640 #
straight-curve $-1 -66.862392040772761 12.815230203471728 5.9583496144770152 0.83867056331134215 0 0.54463904215088732 I I #
point $-1 -54.090954289495272 12.815230203471728 14.252218420700066 #
point $-1 -66.862392040772733 6.8598622991428755 5.9583496144770338 #
straight-curve $-1 -66.862392040772733 0 14.252218420700066 0 -1 0 I I #
vertex $-1 $482 $641 #
point $-1 -58.943320631314045 9.8375462513073018 9.5802066522857423 #
coedge $-1 $497 $496 $489 $596 forward $486 $-1 #
edge $-1 $597 80.81922250848605 $600 92.634324497052916 $595 $642 forward 7 unknown #
vertex $-1 $501 $643 #
straight-curve $-1 44.954882291081574 8.1966828976915735 14.252218420700061 1 0 0 I I #
edge $-1 $600 2.4980479119618408 $498 8.8992220594976246 $497 $644 forward 7 unknown #
vertex $-1 $599 $645 #
straight-curve $-1 -15.466804401651572 8.1966828976915735 107.8136854159479 -0.61566146476048833 0 0.78801076186113728 I I #
point $-1 57.631422936498652 8.1966828976915735 14.252218420700061 #
point $-1 66.862392040772718 14.597857045227357 2.4371164321331946 #
straight-curve $-1 66.862392040772733 0 14.252218420700066 0 1 0 I I #
vertex $-1 $504 $646 #
point $-1 60.553276630277345 11.397269971459465 5.1179307140713979 #
straight-curve $-1 0 -31.413917637516164 14.252218420700066 1 0 0 I I #
point $-1 66.862392040772733 -31.413917637516164 14.252218420700066 #
point $-1 -66.862392040772733 -31.413917637516164 14.252218420700066 #
straight-curve $-1 -66.862392040772733 0 14.252218420700066 0 -1 0 I I #
edge $-1 $613 -14.252218420700066 $533 14.252218420700066 $525 $647 forward 7 unknown #
straight-curve $-1 -42.083218762597433 -48.229978229804971 -14.252218420700066 -1 0 0 I I #
vertex $-1 $539 $648 #
straight-curve $-1 -42.083218762597433 -48.229978229804971 14.252218420700066 1 0 0 I I #
point $-1 -43.981412262453297 -48.229978229804971 14.252218420700066 #
point $-1 -43.981412262453297 -48.229978229804971 -14.252218420700066 #
point $-1 -40.185025262741568 -48.229978229804971 -14.252218420700066 #
straight-curve $-1 -40.185025262741568 -39.821947933660567 14.252218420700066 0 1 0 I I #
edge $-1 $558 -1.8981934998558643 $547 1.8981934998558643 $544 $649 forward 7 unknown #
straight-curve $-1 -40.185025262741568 48.229978229804971 0 0 0 -1 I I #
straight-curve $-1 -43.981412262453297 39.821947933660567 14.252218420700066 0 -1 0 I I #
point $-1 -43.981412262453297 48.229978229804971 14.252218420700066 #
point $-1 -43.981412262453297 48.229978229804971 -14.252218420700066 #
straight-curve $-1 -42.083218762597433 48.229978229804971 -14.252218420700066 1 0 0 I I #
point $-1 -40.185025262741568 48.229978229804971 -14.252218420700066 #
point $-1 -40.185025262741568 48.229978229804971 14.252218420700066 #
straight-curve $-1 -66.862392040772733 -6.8598622991428755 59.054694804417174 0 0 -1 I I #
point $-1 -66.862392040772733 -6.8598622991428755 14.252218420700066 #
straight-curve $-1 -66.862392040772733 -4.9187731256536509 5.958349614477032 0 -1 0 I I #
point $-1 -66.862392040772733 -6.8598622991428755 5.9583496144770338 #
point $-1 -59.2373521524745 -9.8375462513073018 8.1968970468235121 #
straight-curve $-1 -66.862392040772733 2.9776839521644263 59.054694804417174 0 0 -1 I I #
point $-1 -66.862392040772733 2.9776839521644263 14.252218420700066 #
straight-curve $-1 -66.862392040772733 0 5.958349614477032 0 -1 0 I I #
point $-1 -66.862392040772733 2.9776839521644263 5.9583496144770338 #
point $-1 -59.2373521524745 0 8.1968970468235121 #
straight-curve $-1 -66.862392040772733 12.815230203471728 59.054694804417174 0 0 -1 I I #
point $-1 -66.862392040772733 12.815230203471728 14.252218420700066 #
straight-curve $-1 -66.862392040772733 4.9187731256536509 5.958349614477032 0 -1 0 I I #
point $-1 -66.862392040772733 12.815230203471728 5.9583496144770338 #
point $-1 -59.2373521524745 9.8375462513073018 8.1968970468235121 #
straight-curve $-1 66.862392040772733 8.1966828976915735 95.07144092918611 0 0 -1 I I #
point $-1 66.862392040772733 8.1966828976915735 14.252218420700066 #
straight-curve $-1 66.862392040772733 5.6986349857297327 2.4371164321331804 0 1 0 I I #
point $-1 66.862392040772718 8.1966828976915735 2.4371164321331946 #
point $-1 58.447768290344904 11.397269971459465 5.3764546597223717 #
straight-curve $-1 -40.185025262741568 -48.229978229804971 0 0 0 -1 I I #
point $-1 -40.185025262741568 -48.229978229804971 14.252218420700066 #
straight-curve $-1 -42.083218762597433 48.229978229804971 14.252218420700066 -1 0 0 I I #
End-of-ACIS-data 