500 0 8 0           
7 Unknown 11 ACIS 5.0 NT 24 Thu Mar 25 15:36:43 1999 
-1 9.9999999999999995e-007 1e-010 
body $-1 $8 $-1 $9 #
body $-1 $10 $-1 $11 #
body $-1 $12 $-1 $13 #
body $-1 $14 $-1 $15 #
body $-1 $16 $-1 $17 #
body $-1 $18 $-1 $19 #
body $-1 $20 $-1 $21 #
body $-1 $22 $-1 $23 #
lump $-1 $-1 $24 $0 #
transform $-1 1 0 0 0 1 0 0 0 1 57.119663075655382 34.706553665915962 12.026704741203327 1 rotate no_reflect no_shear #
lump $-1 $-1 $25 $1 #
transform $-1 1 0 0 0 1 0 0 0 1 57.119663075655382 34.706553665915962 12.026704741203327 1 rotate no_reflect no_shear #
lump $-1 $-1 $26 $2 #
transform $-1 1 0 0 0 1 0 0 0 1 57.119663075655382 34.706553665915962 12.026704741203327 1 rotate no_reflect no_shear #
lump $-1 $-1 $27 $3 #
transform $-1 1 0 0 0 1 0 0 0 1 57.119663075655382 34.706553665915962 12.026704741203327 1 rotate no_reflect no_shear #
lump $-1 $-1 $28 $4 #
transform $-1 1 0 0 0 1 0 0 0 1 57.119663075655382 34.706553665915962 12.026704741203327 1 rotate no_reflect no_shear #
lump $-1 $-1 $29 $5 #
transform $-1 1 0 0 0 1 0 0 0 1 57.119663075655382 34.706553665915962 12.026704741203327 1 rotate no_reflect no_shear #
lump $-1 $-1 $30 $6 #
transform $-1 1 0 0 0 1 0 0 0 1 57.119663075655382 34.706553665915962 12.026704741203327 1 rotate no_reflect no_shear #
lump $-1 $-1 $31 $7 #
transform $-1 1 0 0 0 1 0 0 0 1 57.119663075655382 34.706553665915962 12.026704741203327 1 rotate no_reflect no_shear #
shell $-1 $-1 $-1 $32 $-1 $8 #
shell $-1 $-1 $-1 $33 $-1 $10 #
shell $-1 $-1 $-1 $34 $-1 $12 #
shell $-1 $-1 $-1 $35 $-1 $14 #
shell $-1 $-1 $-1 $36 $-1 $16 #
shell $-1 $-1 $-1 $37 $-1 $18 #
shell $-1 $-1 $-1 $38 $-1 $20 #
shell $-1 $-1 $-1 $39 $-1 $22 #
face $-1 $40 $41 $24 $-1 $42 forward single #
face $-1 $43 $44 $25 $-1 $45 reversed single #
face $-1 $46 $47 $26 $-1 $48 reversed single #
face $-1 $49 $50 $27 $-1 $51 forward single #
face $-1 $52 $53 $28 $-1 $54 forward single #
face $-1 $55 $56 $29 $-1 $57 reversed single #
face $-1 $58 $59 $30 $-1 $60 forward single #
face $-1 $61 $62 $31 $-1 $63 forward single #
face $-1 $64 $65 $24 $-1 $66 reversed single #
loop $-1 $-1 $67 $32 #
plane-surface $-1 0 0 12.026704741203327 0 0 1 1 0 0 forward_v I I I I #
face $-1 $68 $69 $25 $-1 $70 reversed single #
loop $-1 $-1 $71 $33 #
plane-surface $-1 -47.946106570102387 -33.206553665915962 0 -1 0 0 0 0 1 forward_v I I I I #
face $-1 $72 $73 $26 $-1 $74 reversed single #
loop $-1 $-1 $75 $34 #
plane-surface $-1 -37.420130578873064 -34.706553665915962 3.2977899245260573 0 -0.69465837861970381 0.71933979245794832 1 0 0 forward_v I I I I #
face $-1 $76 $77 $27 $-1 $78 forward single #
loop $-1 $79 $80 $35 #
cone-surface $-1 -41.931263146542776 -28.260947823618906 5.6677352272650907 0 0.69465837861970381 -0.71933979245794832 2 0 0 1 I I 0 1 2 forward I I I I #
face $-1 $81 $82 $28 $-1 $83 forward single #
loop $-1 $84 $85 $36 #
cone-surface $-1 -32.908998011203352 -28.260947823618906 5.6677352272650907 0 0.69465837861970381 -0.71933979245794832 2 0 0 1 I I 0 1 2 forward I I I I #
face $-1 $86 $87 $29 $-1 $88 reversed single #
loop $-1 $-1 $89 $37 #
plane-surface $-1 -41.288023979140775 75.384973363898283 127.82979384017545 1 0 0 0 -0.75470958851134928 -0.65605901945558964 forward_v I I I I #
face $-1 $90 $91 $30 $-1 $92 forward single #
loop $-1 $93 $94 $38 #
cone-surface $-1 -36.939069106552267 27.243796133651259 4.1306354839238431 0 -0.75470958851134928 -0.65605901945558964 2 0 0 1 I I 0 1 2 forward I I I I #
face $-1 $95 $96 $31 $-1 $97 forward single #
loop $-1 $98 $99 $39 #
cone-surface $-1 -30.415636797669507 27.243796133651259 4.1306354839238431 0 -0.75470958851134928 -0.65605901945558964 2 0 0 1 I I 0 1 2 forward I I I I #
face $-1 $100 $101 $24 $-1 $102 reversed single #
loop $-1 $-1 $103 $40 #
plane-surface $-1 0 0 -12.026704741203327 0 0 1 1 0 0 forward_v I I I I #
coedge $-1 $104 $105 $106 $107 forward $41 $-1 #
face $-1 $108 $109 $25 $-1 $110 forward single #
loop $-1 $-1 $111 $43 #
plane-surface $-1 -52.532884822878884 -31.706553665915962 0 0 -1 0 0 0 -1 forward_v I I I I #
coedge $-1 $112 $113 $114 $115 reversed $44 $-1 #
face $-1 $116 $117 $26 $-1 $118 forward single #
loop $-1 $-1 $119 $46 #
plane-surface $-1 -26.89415458764374 -114.06385874479302 85.474683088745806 -1 0 0 0 -0.69465837861970381 0.71933979245794832 forward_v I I I I #
coedge $-1 $120 $121 $122 $123 reversed $47 $-1 #
face $-1 $-1 $124 $27 $-1 $125 forward single #
loop $-1 $126 $127 $49 #
cone-surface $-1 -41.931263146542776 -25.640211449676592 2.9538833292075459 0 0.69465837861970381 -0.71933979245794832 1 0 0 1 I I -0.70710678118654768 0.70710678118654735 1 forward I I I I #
loop $-1 $-1 $128 $35 #
coedge $-1 $80 $80 $129 $130 reversed $50 $-1 #
face $-1 $-1 $131 $28 $-1 $132 forward single #
loop $-1 $133 $134 $52 #
cone-surface $-1 -32.908998011203352 -25.640211449676592 2.9538833292075459 0 0.69465837861970381 -0.71933979245794832 1 0 0 1 I I -0.70710678118654768 0.70710678118654735 1 forward I I I I #
loop $-1 $-1 $135 $36 #
coedge $-1 $85 $85 $136 $137 reversed $53 $-1 #
face $-1 $138 $139 $29 $-1 $140 reversed single #
loop $-1 $-1 $141 $55 #
plane-surface $-1 -33.677352952110887 -10.832541467571289 52.88205354207922 0 0.75470958851134928 0.65605901945558964 1 0 0 forward_v I I I I #
coedge $-1 $142 $143 $144 $145 reversed $56 $-1 #
face $-1 $-1 $146 $30 $-1 $147 forward single #
loop $-1 $148 $149 $58 #
cone-surface $-1 -36.939069106552267 24.038370591992397 1.344201642601325 0 -0.75470958851134928 -0.65605901945558964 1 0 0 1 I I -0.70710678118654746 0.70710678118654746 1 forward I I I I #
loop $-1 $-1 $150 $38 #
coedge $-1 $94 $94 $151 $152 reversed $59 $-1 #
face $-1 $-1 $153 $31 $-1 $154 forward single #
loop $-1 $155 $156 $61 #
cone-surface $-1 -30.415636797669507 24.038370591992397 1.344201642601325 0 -0.75470958851134928 -0.65605901945558964 1 0 0 1 I I -0.70710678118654746 0.70710678118654746 1 forward I I I I #
loop $-1 $-1 $157 $39 #
coedge $-1 $99 $99 $158 $159 reversed $62 $-1 #
face $-1 $160 $161 $24 $-1 $162 reversed single #
loop $-1 $-1 $163 $64 #
plane-surface $-1 0 -34.706553665915962 0 0 1 0 0 0 1 forward_v I I I I #
coedge $-1 $164 $165 $166 $167 forward $65 $-1 #
coedge $-1 $168 $67 $169 $170 forward $41 $-1 #
coedge $-1 $67 $168 $171 $172 forward $41 $-1 #
coedge $-1 $173 $174 $67 $107 reversed $175 $-1 #
edge $-1 $176 -34.706553665915962 $177 34.706553665915962 $106 $178 forward 7 unknown #
face $-1 $179 $180 $25 $-1 $181 reversed single #
loop $-1 $-1 $182 $68 #
plane-surface $-1 0 0 12.026704741203327 0 0 1 1 0 0 forward_v I I I I #
coedge $-1 $183 $184 $185 $186 forward $69 $-1 #
coedge $-1 $185 $71 $187 $188 reversed $44 $-1 #
coedge $-1 $71 $185 $182 $189 reversed $44 $-1 #
coedge $-1 $190 $191 $71 $115 forward $192 $-1 #
edge $-1 $193 -12.026704741203327 $194 12.026704741203327 $114 $195 forward 7 unknown #
face $-1 $196 $197 $26 $-1 $198 forward single #
loop $-1 $-1 $199 $72 #
plane-surface $-1 0 0 12.026704741203327 0 0 1 1 0 0 forward_v I I I I #
coedge $-1 $200 $201 $202 $203 reversed $73 $-1 #
coedge $-1 $204 $75 $205 $206 reversed $47 $-1 #
coedge $-1 $75 $204 $200 $207 forward $47 $-1 #
coedge $-1 $202 $208 $75 $123 forward $209 $-1 #
edge $-1 $210 -29.236041280665855 $211 -8.1840892982072084 $122 $212 forward 7 unknown #
loop $-1 $-1 $129 $76 #
plane-surface $-1 -37.420130578873064 -34.706553665915962 3.2977899245260573 0 -0.69465837861970381 0.71933979245794832 1 0 0 forward_v I I I I #
loop $-1 $-1 $213 $49 #
coedge $-1 $127 $127 $128 $214 reversed $77 $-1 #
coedge $-1 $128 $128 $127 $214 forward $79 $-1 #
coedge $-1 $129 $129 $80 $130 forward $124 $-1 #
edge $-1 $215 4.3842998277633797e-017 $215 6.2831853071796004 $129 $216 forward 7 unknown #
loop $-1 $-1 $136 $81 #
plane-surface $-1 -37.420130578873064 -34.706553665915962 3.2977899245260573 0 -0.69465837861970381 0.71933979245794832 1 0 0 forward_v I I I I #
loop $-1 $-1 $217 $52 #
coedge $-1 $134 $134 $135 $218 reversed $82 $-1 #
coedge $-1 $135 $135 $134 $218 forward $84 $-1 #
coedge $-1 $136 $136 $85 $137 forward $131 $-1 #
edge $-1 $219 4.3842998277633797e-017 $219 6.2831853071796004 $136 $220 forward 7 unknown #
face $-1 $221 $222 $29 $-1 $223 reversed single #
loop $-1 $-1 $224 $86 #
plane-surface $-1 -26.066681925080999 75.384973363898283 127.82979384017545 -1 0 0 0 0.75470958851134928 0.65605901945558964 forward_v I I I I #
coedge $-1 $225 $226 $227 $228 reversed $87 $-1 #
coedge $-1 $143 $89 $229 $230 reversed $56 $-1 #
coedge $-1 $89 $142 $225 $231 reversed $56 $-1 #
coedge $-1 $227 $232 $89 $145 forward $233 $-1 #
edge $-1 $234 2.9859330160331794 $235 13.010016174267555 $144 $236 forward 7 unknown #
loop $-1 $-1 $151 $90 #
plane-surface $-1 -33.677352952110887 -10.832541467571289 52.88205354207922 0 0.75470958851134928 0.65605901945558964 1 0 0 forward_v I I I I #
loop $-1 $-1 $237 $58 #
coedge $-1 $149 $149 $150 $238 reversed $91 $-1 #
coedge $-1 $150 $150 $149 $238 forward $93 $-1 #
coedge $-1 $151 $151 $94 $152 forward $146 $-1 #
edge $-1 $239 1.0054751544848131e-015 $239 6.2831853071796013 $151 $240 forward 7 unknown #
loop $-1 $-1 $158 $95 #
plane-surface $-1 -33.677352952110887 -10.832541467571289 52.88205354207922 0 0.75470958851134928 0.65605901945558964 1 0 0 forward_v I I I I #
loop $-1 $-1 $241 $61 #
coedge $-1 $156 $156 $157 $242 reversed $96 $-1 #
coedge $-1 $157 $157 $156 $242 forward $98 $-1 #
coedge $-1 $158 $158 $99 $159 forward $153 $-1 #
edge $-1 $243 1.0054751544848131e-015 $243 6.2831853071796013 $158 $244 forward 7 unknown #
face $-1 $245 $246 $24 $-1 $247 reversed single #
loop $-1 $-1 $248 $100 #
plane-surface $-1 -57.119663075655382 0 0 1 0 0 0 0 -1 forward_v I I I I #
coedge $-1 $249 $171 $250 $251 forward $101 $-1 #
coedge $-1 $252 $103 $249 $253 forward $65 $-1 #
coedge $-1 $103 $252 $254 $255 forward $65 $-1 #
coedge $-1 $174 $173 $103 $167 reversed $175 $-1 #
edge $-1 $256 -34.706553665915962 $257 34.706553665915962 $166 $258 forward 7 unknown #
coedge $-1 $105 $104 $259 $260 forward $41 $-1 #
coedge $-1 $261 $262 $104 $170 reversed $246 $-1 #
edge $-1 $177 -57.119663075655382 $263 57.119663075655382 $169 $264 forward 7 unknown #
coedge $-1 $163 $265 $105 $172 reversed $101 $-1 #
edge $-1 $266 -57.119663075655382 $176 57.119663075655382 $171 $267 forward 7 unknown #
coedge $-1 $166 $106 $265 $268 forward $175 $-1 #
coedge $-1 $106 $166 $261 $269 reversed $175 $-1 #
loop $-1 $-1 $173 $245 #
vertex $-1 $107 $270 #
vertex $-1 $107 $271 #
straight-curve $-1 57.119663075655382 0 12.026704741203327 0 1 0 I I #
face $-1 $272 $273 $25 $-1 $274 reversed single #
loop $-1 $-1 $275 $108 #
plane-surface $-1 -57.119663075655382 0 0 1 0 0 0 0 -1 forward_v I I I I #
coedge $-1 $276 $277 $113 $189 forward $109 $-1 #
coedge $-1 $278 $111 $279 $280 reversed $69 $-1 #
coedge $-1 $111 $278 $276 $281 reversed $69 $-1 #
coedge $-1 $113 $112 $111 $186 reversed $44 $-1 #
edge $-1 $282 -12.026704741203327 $283 12.026704741203327 $185 $284 forward 7 unknown #
coedge $-1 $285 $279 $112 $188 forward $273 $-1 #
edge $-1 $283 15.103276832957981 $193 18.103276832957981 $187 $286 forward 7 unknown #
edge $-1 $194 -18.103276832957981 $282 -15.103276832957981 $182 $287 forward 7 unknown #
coedge $-1 $288 $114 $277 $289 reversed $192 $-1 #
coedge $-1 $114 $288 $285 $290 reversed $192 $-1 #
loop $-1 $-1 $114 $272 #
vertex $-1 $290 $291 #
vertex $-1 $115 $292 #
straight-curve $-1 -47.946106570102387 -34.706553665915962 0 0 0 1 I I #
face $-1 $-1 $209 $26 $-1 $293 reversed single #
loop $-1 $-1 $205 $116 #
plane-surface $-1 -47.946106570102387 -33.206553665915962 0 -1 0 0 0 0 1 forward_v I I I I #
coedge $-1 $294 $295 $201 $296 forward $117 $-1 #
coedge $-1 $201 $119 $121 $207 reversed $73 $-1 #
coedge $-1 $119 $200 $199 $296 reversed $73 $-1 #
coedge $-1 $297 $122 $119 $203 forward $209 $-1 #
edge $-1 $211 -39.439551619846846 $298 -30.710636803169578 $202 $299 forward 7 unknown #
coedge $-1 $121 $120 $294 $300 reversed $47 $-1 #
coedge $-1 $301 $302 $120 $206 forward $197 $-1 #
edge $-1 $303 -13.171680117219942 $210 -0.60591385665637221 $205 $304 forward 7 unknown #
edge $-1 $305 -12.565766260563571 $211 0 $200 $306 forward 7 unknown #
coedge $-1 $122 $297 $301 $307 forward $209 $-1 #
loop $-1 $-1 $202 $196 #
vertex $-1 $206 $308 #
vertex $-1 $123 $309 #
straight-curve $-1 -18.710065289436532 -34.706553665915962 3.2977899245260582 1 0 0 I I #
coedge $-1 $213 $213 $-1 $310 reversed $126 $-1 #
edge $-1 $311 0 $311 6.2831853071796004 $127 $312 forward 7 unknown #
vertex $-1 $130 $313 #
ellipse-curve $-1 -41.931263146542776 -30.187025818941517 7.6622473328646903 0 -0.69465837861970381 0.71933979245794832 2 0 0 1 I I #
coedge $-1 $217 $217 $-1 $314 reversed $133 $-1 #
edge $-1 $315 0 $315 6.2831853071796004 $134 $316 forward 7 unknown #
vertex $-1 $137 $317 #
ellipse-curve $-1 -32.908998011203352 -30.187025818941517 7.6622473328646903 0 -0.69465837861970381 0.71933979245794832 2 0 0 1 I I #
face $-1 $-1 $233 $29 $-1 $318 forward single #
loop $-1 $-1 $319 $138 #
plane-surface $-1 0 34.706553665915962 0 0 -1 0 0 0 -1 forward_v I I I I #
coedge $-1 $320 $321 $322 $323 reversed $139 $-1 #
coedge $-1 $324 $141 $143 $231 forward $87 $-1 #
coedge $-1 $141 $324 $320 $325 forward $87 $-1 #
coedge $-1 $322 $144 $141 $228 forward $233 $-1 #
edge $-1 $235 -24.449347503085331 $326 -9.2280054490255559 $227 $327 forward 7 unknown #
coedge $-1 $328 $329 $142 $230 forward $222 $-1 #
edge $-1 $330 -63.4195810497095 $234 -51.888192178884402 $229 $331 forward 7 unknown #
edge $-1 $235 54.13386741443464 $330 69.413107331831938 $143 $332 forward 7 unknown #
coedge $-1 $144 $322 $328 $333 forward $233 $-1 #
loop $-1 $-1 $322 $221 #
vertex $-1 $230 $334 #
vertex $-1 $145 $335 #
straight-curve $-1 -41.288023979140775 37.692486681949141 12.026704741203325 0 -1 0 I I #
coedge $-1 $237 $237 $-1 $336 reversed $148 $-1 #
edge $-1 $337 0 $337 6.2831853071796004 $149 $338 forward 7 unknown #
vertex $-1 $152 $339 #
ellipse-curve $-1 -36.939069106552267 29.694512086798774 6.2610103057907747 0 0.75470958851134928 0.65605901945558964 2 0 0 1 I I #
coedge $-1 $241 $241 $-1 $340 reversed $155 $-1 #
edge $-1 $341 0 $341 6.2831853071796004 $156 $342 forward 7 unknown #
vertex $-1 $159 $343 #
ellipse-curve $-1 -30.415636797669507 29.694512086798774 6.2610103057907747 0 0.75470958851134928 0.65605901945558964 2 0 0 1 I I #
face $-1 $-1 $175 $24 $-1 $344 reversed single #
loop $-1 $-1 $261 $160 #
plane-surface $-1 0 34.706553665915962 0 0 -1 0 0 0 -1 forward_v I I I I #
coedge $-1 $345 $259 $262 $346 forward $161 $-1 #
coedge $-1 $265 $163 $164 $253 reversed $101 $-1 #
coedge $-1 $259 $345 $163 $251 reversed $161 $-1 #
edge $-1 $266 -12.026704741203327 $347 12.026704741203327 $250 $348 forward 7 unknown #
coedge $-1 $165 $164 $345 $349 forward $65 $-1 #
edge $-1 $257 -57.119663075655382 $347 57.119663075655382 $249 $350 forward 7 unknown #
coedge $-1 $262 $261 $165 $255 reversed $246 $-1 #
edge $-1 $351 -57.119663075655382 $256 57.119663075655382 $254 $352 forward 7 unknown #
vertex $-1 $167 $353 #
vertex $-1 $268 $354 #
straight-curve $-1 57.119663075655382 0 -12.026704741203327 0 -1 0 I I #
coedge $-1 $248 $250 $168 $260 reversed $161 $-1 #
edge $-1 $263 -34.706553665915962 $266 34.706553665915962 $259 $355 forward 7 unknown #
coedge $-1 $254 $169 $174 $269 forward $246 $-1 #
coedge $-1 $169 $254 $248 $346 reversed $246 $-1 #
vertex $-1 $170 $356 #
straight-curve $-1 0 34.706553665915962 12.026704741203327 -1 0 0 I I #
coedge $-1 $171 $249 $173 $268 reversed $101 $-1 #
vertex $-1 $260 $357 #
straight-curve $-1 0 -34.706553665915962 12.026704741203327 1 0 0 I I #
edge $-1 $176 -12.026704741203327 $257 12.026704741203327 $173 $358 forward 7 unknown #
edge $-1 $177 -12.026704741203327 $256 12.026704741203327 $174 $359 forward 7 unknown #
point $-1 57.119663075655382 -34.706553665915962 12.026704741203327 #
point $-1 57.119663075655382 34.706553665915962 12.026704741203327 #
face $-1 $-1 $192 $25 $-1 $360 reversed single #
loop $-1 $-1 $187 $179 #
plane-surface $-1 0 0 -12.026704741203327 0 0 1 1 0 0 forward_v I I I I #
coedge $-1 $361 $362 $278 $363 forward $180 $-1 #
coedge $-1 $364 $182 $184 $281 forward $109 $-1 #
coedge $-1 $182 $364 $190 $289 forward $109 $-1 #
coedge $-1 $184 $183 $275 $363 reversed $69 $-1 #
coedge $-1 $187 $365 $183 $280 forward $273 $-1 #
edge $-1 $366 -30.853220664215939 $283 -21.679664158662945 $279 $367 forward 7 unknown #
edge $-1 $282 21.679664158662945 $368 30.853220664215939 $276 $369 forward 7 unknown #
vertex $-1 $281 $370 #
vertex $-1 $280 $371 #
straight-curve $-1 -47.946106570102387 -31.706553665915962 0 0 0 -1 I I #
coedge $-1 $365 $187 $191 $290 forward $273 $-1 #
straight-curve $-1 -47.946106570102387 -16.603276832957981 -12.026704741203327 0 -1 0 I I #
straight-curve $-1 -47.946106570102387 -16.603276832957981 12.026704741203327 0 1 0 I I #
coedge $-1 $191 $190 $372 $373 forward $192 $-1 #
edge $-1 $374 -57.119663075655382 $194 -47.946106570102387 $190 $375 forward 7 unknown #
edge $-1 $193 47.946106570102387 $376 57.119663075655382 $191 $377 forward 7 unknown #
point $-1 -47.946106570102387 -34.706553665915962 -12.026704741203327 #
point $-1 -47.946106570102387 -34.706553665915962 12.026704741203327 #
plane-surface $-1 0 -34.706553665915962 0 0 1 0 0 0 1 forward_v I I I I #
coedge $-1 $378 $199 $204 $300 forward $117 $-1 #
coedge $-1 $199 $378 $297 $379 forward $117 $-1 #
edge $-1 $298 22.32537570648055 $305 31.364431400429439 $199 $380 forward 7 unknown #
coedge $-1 $208 $202 $295 $379 reversed $209 $-1 #
vertex $-1 $296 $381 #
straight-curve $-1 -26.89415458764374 -34.706553665915962 42.737341544372903 0 0 1 I I #
edge $-1 $305 8.1840892982072084 $303 29.236041280665855 $294 $382 forward 7 unknown #
coedge $-1 $302 $205 $208 $307 reversed $197 $-1 #
coedge $-1 $205 $301 $378 $383 reversed $197 $-1 #
vertex $-1 $383 $384 #
straight-curve $-1 -47.946106570102387 -35.142411613810552 2.8768867872779302 0 -0.71933979245794832 -0.69465837861970381 I I #
vertex $-1 $300 $385 #
straight-curve $-1 -26.89415458764374 -34.706553665915962 3.2977899245260573 0 -0.71933979245794832 -0.69465837861970381 I I #
edge $-1 $386 -12.026704741203327 $210 -3.2977899245260573 $208 $387 forward 7 unknown #
point $-1 -47.946106570102387 -34.706553665915962 3.2977899245260573 #
point $-1 -26.89415458764374 -34.706553665915962 3.2977899245260573 #
edge $-1 $388 1 $388 0 $213 $-1 forward 7 unknown #
vertex $-1 $214 $389 #
ellipse-curve $-1 -41.931263146542776 -26.334869828296295 3.6732231216654938 0 -0.69465837861970381 0.71933979245794832 2 0 0 1 I I #
point $-1 -39.931263146542776 -30.187025818941514 7.6622473328646867 #
edge $-1 $390 1 $390 0 $217 $-1 forward 7 unknown #
vertex $-1 $218 $391 #
ellipse-curve $-1 -32.908998011203352 -26.334869828296295 3.6732231216654938 0 -0.69465837861970381 0.71933979245794832 2 0 0 1 I I #
point $-1 -30.908998011203352 -30.187025818941514 7.6622473328646867 #
plane-surface $-1 0 0 12.026704741203327 0 0 1 1 0 0 forward_v I I I I #
coedge $-1 $329 $328 $321 $392 forward $222 $-1 #
coedge $-1 $321 $224 $226 $325 reversed $139 $-1 #
coedge $-1 $224 $320 $319 $392 reversed $139 $-1 #
coedge $-1 $232 $227 $224 $323 forward $233 $-1 #
edge $-1 $326 -13.010016174267555 $393 -2.9859330160331794 $322 $394 forward 7 unknown #
coedge $-1 $226 $225 $329 $395 reversed $87 $-1 #
edge $-1 $396 -69.413107331831938 $326 -54.13386741443464 $320 $397 forward 7 unknown #
vertex $-1 $228 $398 #
straight-curve $-1 -16.838676476055443 24.682470507681586 12.026704741203321 1 0 0 I I #
coedge $-1 $319 $229 $232 $333 reversed $222 $-1 #
coedge $-1 $229 $319 $324 $395 forward $222 $-1 #
vertex $-1 $230 $399 #
straight-curve $-1 -41.288023979140775 34.706553665915962 63.914896920087727 0 0 1 I I #
straight-curve $-1 -41.288023979140775 -10.832541467571289 52.88205354207922 0 0.65605901945558964 -0.75470958851134928 I I #
edge $-1 $393 26.066681925080999 $234 41.288023979140775 $328 $400 forward 7 unknown #
point $-1 -41.288023979140775 34.706553665915962 12.026704741203327 #
point $-1 -41.288023979140775 24.682470507681586 12.026704741203325 #
edge $-1 $401 1 $401 0 $237 $-1 forward 7 unknown #
vertex $-1 $238 $402 #
ellipse-curve $-1 -36.939069106552267 24.793080180503747 2.0002606620569146 0 0.75470958851134928 0.65605901945558964 2 0 0 1 I I #
point $-1 -34.939069106552267 29.694512086798774 6.261010305790772 #
edge $-1 $403 1 $403 0 $241 $-1 forward 7 unknown #
vertex $-1 $242 $404 #
ellipse-curve $-1 -30.415636797669507 24.793080180503747 2.0002606620569146 0 0.75470958851134928 0.65605901945558964 2 0 0 1 I I #
point $-1 -28.415636797669507 29.694512086798774 6.261010305790772 #
plane-surface $-1 57.119663075655382 0 0 -1 0 0 0 0 1 forward_v I I I I #
coedge $-1 $250 $248 $252 $349 reversed $161 $-1 #
edge $-1 $263 -12.026704741203327 $351 12.026704741203327 $262 $405 forward 7 unknown #
vertex $-1 $349 $406 #
straight-curve $-1 -57.119663075655382 -34.706553665915962 0 0 0 -1 I I #
edge $-1 $347 -34.706553665915962 $351 34.706553665915962 $345 $407 forward 7 unknown #
straight-curve $-1 0 -34.706553665915962 -12.026704741203327 -1 0 0 I I #
vertex $-1 $255 $408 #
straight-curve $-1 0 34.706553665915962 -12.026704741203327 1 0 0 I I #
point $-1 57.119663075655382 34.706553665915962 -12.026704741203327 #
point $-1 57.119663075655382 -34.706553665915962 -12.026704741203327 #
straight-curve $-1 -57.119663075655382 0 12.026704741203327 0 -1 0 I I #
point $-1 -57.119663075655382 34.706553665915962 12.026704741203327 #
point $-1 -57.119663075655382 -34.706553665915962 12.026704741203327 #
straight-curve $-1 57.119663075655382 -34.706553665915962 0 0 0 -1 I I #
straight-curve $-1 57.119663075655382 34.706553665915962 0 0 0 -1 I I #
plane-surface $-1 0 -34.706553665915962 0 0 1 0 0 0 1 forward_v I I I I #
coedge $-1 $372 $275 $365 $409 reversed $180 $-1 #
coedge $-1 $275 $372 $364 $410 reversed $180 $-1 #
edge $-1 $368 -12.026704741203327 $366 12.026704741203327 $275 $411 forward 7 unknown #
coedge $-1 $277 $276 $362 $410 forward $109 $-1 #
coedge $-1 $279 $285 $361 $409 forward $273 $-1 #
vertex $-1 $280 $412 #
straight-curve $-1 -26.266442411439442 -31.706553665915962 -12.026704741203327 1 0 0 I I #
vertex $-1 $410 $413 #
straight-curve $-1 -26.266442411439442 -31.706553665915962 12.026704741203327 -1 0 0 I I #
point $-1 -47.946106570102387 -31.706553665915962 12.026704741203327 #
point $-1 -47.946106570102387 -31.706553665915962 -12.026704741203327 #
coedge $-1 $362 $361 $288 $373 reversed $180 $-1 #
edge $-1 $374 -12.026704741203327 $376 12.026704741203327 $372 $414 forward 7 unknown #
vertex $-1 $410 $415 #
straight-curve $-1 0 -34.706553665915962 12.026704741203327 1 0 0 I I #
vertex $-1 $409 $416 #
straight-curve $-1 0 -34.706553665915962 -12.026704741203327 -1 0 0 I I #
coedge $-1 $295 $294 $302 $383 forward $117 $-1 #
edge $-1 $386 -47.946106570102387 $298 -26.89415458764374 $297 $417 forward 7 unknown #
straight-curve $-1 -26.89415458764374 -57.031929372396512 12.026704741203325 0 1 0 I I #
point $-1 -26.89415458764374 -34.706553665915962 12.026704741203327 #
straight-curve $-1 -18.710065289436532 -25.667497971967073 12.026704741203327 -1 0 0 I I #
edge $-1 $303 -31.364431400429439 $386 -22.32537570648055 $378 $418 forward 7 unknown #
point $-1 -47.946106570102387 -25.667497971967073 12.026704741203327 #
point $-1 -26.89415458764374 -25.667497971967073 12.026704741203327 #
vertex $-1 $379 $419 #
straight-curve $-1 -47.946106570102387 -34.706553665915962 0 0 0 -1 I I #
vertex $-1 $310 $420 #
point $-1 -39.931263146542776 -26.334869828296295 3.6732231216654938 #
vertex $-1 $314 $421 #
point $-1 -30.908998011203352 -26.334869828296295 3.6732231216654938 #
edge $-1 $393 51.888192178884402 $396 63.4195810497095 $319 $422 forward 7 unknown #
vertex $-1 $333 $423 #
straight-curve $-1 -26.066681925080999 37.692486681949141 12.026704741203325 0 1 0 I I #
edge $-1 $396 9.2280054490255559 $330 24.449347503085331 $329 $424 forward 7 unknown #
vertex $-1 $395 $425 #
straight-curve $-1 -26.066681925080999 -10.832541467571289 52.88205354207922 0 -0.65605901945558964 0.75470958851134928 I I #
point $-1 -26.066681925080999 24.682470507681586 12.026704741203325 #
point $-1 -41.288023979140775 34.706553665915962 0.49531587037822788 #
straight-curve $-1 0 34.706553665915962 12.026704741203327 -1 0 0 I I #
vertex $-1 $336 $426 #
point $-1 -34.939069106552267 24.793080180503747 2.0002606620569146 #
vertex $-1 $340 $427 #
point $-1 -28.415636797669507 24.793080180503747 2.0002606620569146 #
straight-curve $-1 -57.119663075655382 34.706553665915962 0 0 0 -1 I I #
point $-1 -57.119663075655382 -34.706553665915962 -12.026704741203327 #
straight-curve $-1 -57.119663075655382 0 -12.026704741203327 0 1 0 I I #
point $-1 -57.119663075655382 34.706553665915962 -12.026704741203327 #
edge $-1 $376 -34.706553665915962 $366 -31.706553665915962 $361 $428 forward 7 unknown #
edge $-1 $368 31.706553665915962 $374 34.706553665915962 $362 $429 forward 7 unknown #
straight-curve $-1 -57.119663075655382 -31.706553665915962 0 0 0 -1 I I #
point $-1 -57.119663075655382 -31.706553665915962 -12.026704741203327 #
point $-1 -57.119663075655382 -31.706553665915962 12.026704741203327 #
straight-curve $-1 -57.119663075655382 -34.706553665915962 0 0 0 -1 I I #
point $-1 -57.119663075655382 -34.706553665915962 12.026704741203327 #
point $-1 -57.119663075655382 -34.706553665915962 -12.026704741203327 #
straight-curve $-1 0 -34.706553665915962 12.026704741203327 1 0 0 I I #
straight-curve $-1 -47.946106570102387 -57.031929372396512 12.026704741203325 0 -1 0 I I #
point $-1 -47.946106570102387 -34.706553665915962 12.026704741203327 #
point $-1 -41.931263146542776 -24.945553071056889 2.234543536749598 #
point $-1 -32.908998011203352 -24.945553071056889 2.234543536749598 #
straight-curve $-1 -26.066681925080999 34.706553665915962 63.914896920087727 0 0 -1 I I #
point $-1 -26.066681925080999 34.706553665915962 12.026704741203327 #
straight-curve $-1 -16.838676476055443 34.706553665915962 0.49531587037822788 -1 0 0 I I #
point $-1 -26.066681925080999 34.706553665915962 0.49531587037822788 #
point $-1 -36.939069106552267 23.283661003481047 0.68814262314573538 #
point $-1 -30.415636797669507 23.283661003481047 0.68814262314573538 #
straight-curve $-1 -57.119663075655382 0 -12.026704741203327 0 1 0 I I #
straight-curve $-1 -57.119663075655382 0 12.026704741203327 0 -1 0 I I #
End-of-ACIS-data 