500 0 12 0           
7 Unknown 11 ACIS 5.0 NT 24 Fri Mar 26 01:00:08 1999 
-1 9.9999999999999995e-007 1e-010 
body $-1 $12 $-1 $13 #
body $-1 $14 $-1 $15 #
body $-1 $16 $-1 $17 #
body $-1 $18 $-1 $19 #
body $-1 $20 $-1 $21 #
body $-1 $22 $-1 $23 #
body $-1 $24 $-1 $25 #
body $-1 $26 $-1 $27 #
body $-1 $28 $-1 $29 #
body $-1 $30 $-1 $31 #
body $-1 $32 $-1 $33 #
body $-1 $34 $-1 $35 #
lump $-1 $-1 $36 $0 #
transform $-1 1 0 0 0 1 0 0 0 1 75.710318308053843 34.606041151012143 12.737076250173548 1 rotate no_reflect no_shear #
lump $-1 $-1 $37 $1 #
transform $-1 1 0 0 0 1 0 0 0 1 75.710318308053843 34.606041151012143 12.737076250173548 1 rotate no_reflect no_shear #
lump $-1 $-1 $38 $2 #
transform $-1 1 0 0 0 1 0 0 0 1 75.710318308053843 34.606041151012143 12.737076250173548 1 rotate no_reflect no_shear #
lump $-1 $-1 $39 $3 #
transform $-1 1 0 0 0 1 0 0 0 1 75.710318308053843 34.606041151012143 12.737076250173548 1 rotate no_reflect no_shear #
lump $-1 $-1 $40 $4 #
transform $-1 1 0 0 0 1 0 0 0 1 75.710318308053843 34.606041151012143 12.737076250173548 1 rotate no_reflect no_shear #
lump $-1 $-1 $41 $5 #
transform $-1 1 0 0 0 1 0 0 0 1 75.710318308053843 34.606041151012143 12.737076250173548 1 rotate no_reflect no_shear #
lump $-1 $-1 $42 $6 #
transform $-1 1 0 0 0 1 0 0 0 1 75.710318308053843 34.606041151012143 12.737076250173548 1 rotate no_reflect no_shear #
lump $-1 $-1 $43 $7 #
transform $-1 1 0 0 0 1 0 0 0 1 75.710318308053843 34.606041151012143 12.737076250173548 1 rotate no_reflect no_shear #
lump $-1 $-1 $44 $8 #
transform $-1 1 0 0 0 1 0 0 0 1 75.710318308053843 34.606041151012143 12.737076250173548 1 rotate no_reflect no_shear #
lump $-1 $-1 $45 $9 #
transform $-1 1 0 0 0 1 0 0 0 1 75.710318308053843 34.606041151012143 12.737076250173548 1 rotate no_reflect no_shear #
lump $-1 $-1 $46 $10 #
transform $-1 1 0 0 0 1 0 0 0 1 75.710318308053843 34.606041151012143 12.737076250173548 1 rotate no_reflect no_shear #
lump $-1 $-1 $47 $11 #
transform $-1 1 0 0 0 1 0 0 0 1 75.710318308053843 34.606041151012143 12.737076250173548 1 rotate no_reflect no_shear #
shell $-1 $-1 $-1 $48 $-1 $12 #
shell $-1 $-1 $-1 $49 $-1 $14 #
shell $-1 $-1 $-1 $50 $-1 $16 #
shell $-1 $-1 $-1 $51 $-1 $18 #
shell $-1 $-1 $-1 $52 $-1 $20 #
shell $-1 $-1 $-1 $53 $-1 $22 #
shell $-1 $-1 $-1 $54 $-1 $24 #
shell $-1 $-1 $-1 $55 $-1 $26 #
shell $-1 $-1 $-1 $56 $-1 $28 #
shell $-1 $-1 $-1 $57 $-1 $30 #
shell $-1 $-1 $-1 $58 $-1 $32 #
shell $-1 $-1 $-1 $59 $-1 $34 #
face $-1 $60 $61 $36 $-1 $62 reversed single #
face $-1 $63 $64 $37 $-1 $65 forward single #
face $-1 $66 $67 $38 $-1 $68 reversed single #
face $-1 $69 $70 $39 $-1 $71 forward single #
face $-1 $72 $73 $40 $-1 $74 forward single #
face $-1 $75 $76 $41 $-1 $77 reversed single #
face $-1 $78 $79 $42 $-1 $80 forward single #
face $-1 $81 $82 $43 $-1 $83 forward single #
face $-1 $84 $85 $44 $-1 $86 reversed single #
face $-1 $87 $88 $45 $-1 $89 forward single #
face $-1 $90 $91 $46 $-1 $92 reversed single #
face $-1 $93 $94 $47 $-1 $95 forward single #
face $-1 $96 $97 $36 $-1 $98 forward single #
loop $-1 $-1 $99 $48 #
plane-surface $-1 0 -34.606041151012143 0 0 1 0 0 0 1 forward_v I I I I #
face $-1 $100 $101 $37 $-1 $102 forward single #
loop $-1 $-1 $103 $49 #
plane-surface $-1 0 -34.606041151012143 0 0 1 0 0 0 1 forward_v I I I I #
face $-1 $104 $105 $38 $-1 $106 reversed single #
loop $-1 $-1 $107 $50 #
plane-surface $-1 79.447598672436357 -6.1623765640086736 216.64328694086055 0 -1 0 -0.71933980857756763 0 -0.69465836192734942 forward_v I I I I #
face $-1 $108 $109 $39 $-1 $110 forward single #
loop $-1 $111 $112 $51 #
cone-surface $-1 70.14333608865762 -15.513172694711699 7.0170561353109928 -0.71933980857756763 0 -0.69465836192734942 1.0419875428910241 0 -1.0790097128663514 1 I I 0 1 1.5 forward I I I I #
face $-1 $113 $114 $40 $-1 $115 forward single #
loop $-1 $116 $117 $52 #
cone-surface $-1 70.14333608865762 -9.9026950162898828 7.0170561353109928 -0.71933980857756763 0 -0.69465836192734942 1.0419875428910241 0 -1.0790097128663514 1 I I 0 1 1.5 forward I I I I #
face $-1 $118 $119 $41 $-1 $120 reversed single #
loop $-1 $-1 $121 $53 #
plane-surface $-1 79.447598672436357 31.937725264977104 216.64328694086055 0 -1 0 -0.71933980857756763 0 -0.69465836192734942 forward_v I I I I #
face $-1 $122 $123 $42 $-1 $124 forward single #
loop $-1 $125 $126 $54 #
cone-surface $-1 70.14333608865762 22.586929134274079 7.0170561353109928 -0.71933980857756763 0 -0.69465836192734942 1.0419875428910241 0 -1.0790097128663514 1 I I 0 1 1.5 forward I I I I #
face $-1 $127 $128 $43 $-1 $129 forward single #
loop $-1 $130 $131 $55 #
cone-surface $-1 70.14333608865762 28.197406812695895 7.0170561353109928 -0.71933980857756763 0 -0.69465836192734942 1.0419875428910241 0 -1.0790097128663514 1 I I 0 1 1.5 forward I I I I #
face $-1 $132 $133 $44 $-1 $134 reversed single #
loop $-1 $-1 $135 $56 #
plane-surface $-1 -184.63321006617815 -17.518351078375098 109.03919593954245 0 1 0 -0.71933980857756763 0 0.69465836192734942 forward_v I I I I #
face $-1 $136 $137 $45 $-1 $138 forward single #
loop $-1 $139 $140 $57 #
cone-surface $-1 -70.283223368914534 -10.982100362911467 7.1966171215248966 0.71933980857756763 0 -0.69465836192734942 1.7366459048183736 0 1.7983495214439191 1 I I 0 1 2.5 forward I I I I #
face $-1 $141 $142 $46 $-1 $143 reversed single #
loop $-1 $-1 $144 $58 #
plane-surface $-1 -184.63321006617815 17.130083765432033 109.03919593954245 0 1 0 -0.71933980857756763 0 0.69465836192734942 forward_v I I I I #
face $-1 $145 $146 $47 $-1 $147 forward single #
loop $-1 $148 $149 $59 #
cone-surface $-1 -70.283223368914534 23.666334480895664 7.1966171215248966 0.71933980857756763 0 -0.69465836192734942 1.7366459048183736 0 1.7983495214439191 1 I I 0 1 2.5 forward I I I I #
face $-1 $150 $151 $36 $-1 $152 reversed single #
loop $-1 $-1 $153 $60 #
plane-surface $-1 0 0 12.737076250173548 0 0 1 1 0 0 forward_v I I I I #
coedge $-1 $154 $155 $156 $157 reversed $61 $-1 #
face $-1 $158 $159 $37 $-1 $160 reversed single #
loop $-1 $-1 $161 $63 #
plane-surface $-1 0 0 12.737076250173548 0 0 1 1 0 0 forward_v I I I I #
coedge $-1 $162 $163 $164 $165 forward $64 $-1 #
face $-1 $166 $167 $38 $-1 $168 reversed single #
loop $-1 $-1 $169 $66 #
plane-surface $-1 -29.47529308568798 -12.707933855500791 111.45767554711875 0.71933980857756763 0 0.69465836192734942 0.69465836192734942 0 -0.71933980857756763 forward_v I I I I #
coedge $-1 $170 $171 $172 $173 reversed $67 $-1 #
face $-1 $-1 $174 $39 $-1 $175 forward single #
loop $-1 $176 $177 $69 #
cone-surface $-1 68.962968549435402 -15.513172694711699 5.8771884795924727 -0.71933980857756763 0 -0.69465836192734942 0.52099377144551207 0 -0.53950485643317569 1 I I -0.70710678118654757 0.70710678118654757 0.75 forward I I I I #
loop $-1 $-1 $178 $51 #
coedge $-1 $112 $112 $179 $180 reversed $70 $-1 #
face $-1 $-1 $181 $40 $-1 $182 forward single #
loop $-1 $183 $184 $72 #
cone-surface $-1 68.962968549435402 -9.9026950162898828 5.8771884795924727 -0.71933980857756763 0 -0.69465836192734942 0.52099377144551207 0 -0.53950485643317569 1 I I -0.70710678118654757 0.70710678118654757 0.75 forward I I I I #
loop $-1 $-1 $185 $52 #
coedge $-1 $117 $117 $186 $187 reversed $73 $-1 #
face $-1 $188 $189 $41 $-1 $190 reversed single #
loop $-1 $-1 $191 $75 #
plane-surface $-1 -29.47529308568798 25.392167973484987 111.45767554711875 0.71933980857756763 0 0.69465836192734942 0.69465836192734942 0 -0.71933980857756763 forward_v I I I I #
coedge $-1 $192 $193 $194 $195 reversed $76 $-1 #
face $-1 $-1 $196 $42 $-1 $197 forward single #
loop $-1 $198 $199 $78 #
cone-surface $-1 68.962968549435402 22.586929134274079 5.8771884795924727 -0.71933980857756763 0 -0.69465836192734942 0.52099377144551207 0 -0.53950485643317569 1 I I -0.70710678118654757 0.70710678118654757 0.75 forward I I I I #
loop $-1 $-1 $200 $54 #
coedge $-1 $126 $126 $201 $202 reversed $79 $-1 #
face $-1 $-1 $203 $43 $-1 $204 forward single #
loop $-1 $205 $206 $81 #
cone-surface $-1 68.962968549435402 28.197406812695895 5.8771884795924727 -0.71933980857756763 0 -0.69465836192734942 0.52099377144551207 0 -0.53950485643317569 1 I I -0.70710678118654757 0.70710678118654757 0.75 forward I I I I #
loop $-1 $-1 $207 $55 #
coedge $-1 $131 $131 $208 $209 reversed $82 $-1 #
face $-1 $210 $211 $44 $-1 $212 reversed single #
loop $-1 $-1 $213 $84 #
plane-surface $-1 -75.710318308053814 -10.982100362911467 3.8535845458006577 -0.71933980857756763 0 0.69465836192734942 0.69465836192734942 0 0.71933980857756763 forward_v I I I I #
coedge $-1 $214 $215 $216 $217 reversed $85 $-1 #
face $-1 $-1 $218 $45 $-1 $219 forward single #
loop $-1 $220 $221 $87 #
cone-surface $-1 -68.246297677247014 -10.982100362911467 5.2295808926534981 0.71933980857756763 0 -0.69465836192734942 0.86832295240918678 0 0.89917476072195957 1 I I -0.70710678118654746 0.70710678118654746 1.25 forward I I I I #
loop $-1 $-1 $222 $57 #
coedge $-1 $140 $140 $223 $224 reversed $88 $-1 #
face $-1 $225 $226 $46 $-1 $227 reversed single #
loop $-1 $-1 $228 $90 #
plane-surface $-1 -75.710318308053814 23.666334480895664 3.8535845458006577 -0.71933980857756763 0 0.69465836192734942 0.69465836192734942 0 0.71933980857756763 forward_v I I I I #
coedge $-1 $229 $230 $231 $232 reversed $91 $-1 #
face $-1 $-1 $233 $47 $-1 $234 forward single #
loop $-1 $235 $236 $93 #
cone-surface $-1 -68.246297677247014 23.666334480895664 5.2295808926534981 0.71933980857756763 0 -0.69465836192734942 0.86832295240918678 0 0.89917476072195957 1 I I -0.70710678118654746 0.70710678118654746 1.25 forward I I I I #
loop $-1 $-1 $237 $59 #
coedge $-1 $149 $149 $238 $239 reversed $94 $-1 #
face $-1 $240 $241 $36 $-1 $242 reversed single #
loop $-1 $-1 $243 $96 #
plane-surface $-1 0 0 -12.737076250173548 0 0 1 1 0 0 forward_v I I I I #
coedge $-1 $244 $245 $246 $247 forward $97 $-1 #
coedge $-1 $248 $99 $249 $250 reversed $61 $-1 #
coedge $-1 $99 $248 $251 $252 forward $61 $-1 #
coedge $-1 $253 $243 $99 $157 forward $151 $-1 #
edge $-1 $254 -75.710318308053843 $255 75.710318308053843 $99 $256 forward 7 unknown #
face $-1 $257 $258 $37 $-1 $259 reversed single #
loop $-1 $-1 $260 $100 #
plane-surface $-1 -75.710318308053843 0 0 1 0 0 0 0 -1 forward_v I I I I #
coedge $-1 $261 $262 $163 $263 forward $101 $-1 #
coedge $-1 $264 $103 $265 $266 reversed $64 $-1 #
coedge $-1 $103 $264 $161 $263 reversed $64 $-1 #
coedge $-1 $267 $268 $103 $165 reversed $269 $-1 #
edge $-1 $270 -12.737076250173548 $271 12.737076250173548 $164 $272 forward 7 unknown #
face $-1 $273 $274 $38 $-1 $275 forward single #
loop $-1 $-1 $276 $104 #
plane-surface $-1 79.447598672436357 -19.253491146992907 216.64328694086055 0 1 0 0.71933980857756763 0 0.69465836192734942 forward_v I I I I #
coedge $-1 $277 $278 $279 $280 reversed $105 $-1 #
coedge $-1 $171 $107 $281 $282 reversed $67 $-1 #
coedge $-1 $107 $170 $277 $283 reversed $67 $-1 #
coedge $-1 $279 $284 $107 $173 forward $274 $-1 #
edge $-1 $285 -35.986518971835665 $286 -26.134279898621301 $172 $287 forward 7 unknown #
loop $-1 $-1 $179 $108 #
plane-surface $-1 -29.47529308568798 -12.707933855500791 111.45767554711875 0.71933980857756763 0 0.69465836192734942 0.69465836192734942 0 -0.71933980857756763 forward_v I I I I #
loop $-1 $-1 $288 $69 #
coedge $-1 $177 $177 $178 $289 reversed $109 $-1 #
coedge $-1 $178 $178 $177 $289 forward $111 $-1 #
coedge $-1 $179 $179 $112 $180 forward $174 $-1 #
edge $-1 $290 0 $290 6.2831853071796004 $179 $291 forward 7 unknown #
loop $-1 $-1 $186 $113 #
plane-surface $-1 -29.47529308568798 -12.707933855500791 111.45767554711875 0.71933980857756763 0 0.69465836192734942 0.69465836192734942 0 -0.71933980857756763 forward_v I I I I #
loop $-1 $-1 $292 $72 #
coedge $-1 $184 $184 $185 $293 reversed $114 $-1 #
coedge $-1 $185 $185 $184 $293 forward $116 $-1 #
coedge $-1 $186 $186 $117 $187 forward $181 $-1 #
edge $-1 $294 0 $294 6.2831853071796004 $186 $295 forward 7 unknown #
face $-1 $296 $297 $41 $-1 $298 reversed single #
loop $-1 $-1 $299 $118 #
plane-surface $-1 79.447598672436357 18.846610681992871 216.64328694086055 0 1 0 0.71933980857756763 0 0.69465836192734942 forward_v I I I I #
coedge $-1 $300 $301 $302 $303 reversed $119 $-1 #
coedge $-1 $193 $121 $304 $305 reversed $76 $-1 #
coedge $-1 $121 $192 $300 $306 reversed $76 $-1 #
coedge $-1 $302 $307 $121 $195 forward $308 $-1 #
edge $-1 $309 -35.986518971835665 $310 -26.134279898621301 $194 $311 forward 7 unknown #
loop $-1 $-1 $201 $122 #
plane-surface $-1 -29.47529308568798 25.392167973484987 111.45767554711875 0.71933980857756763 0 0.69465836192734942 0.69465836192734942 0 -0.71933980857756763 forward_v I I I I #
loop $-1 $-1 $312 $78 #
coedge $-1 $199 $199 $200 $313 reversed $123 $-1 #
coedge $-1 $200 $200 $199 $313 forward $125 $-1 #
coedge $-1 $201 $201 $126 $202 forward $196 $-1 #
edge $-1 $314 0 $314 6.2831853071796004 $201 $315 forward 7 unknown #
loop $-1 $-1 $208 $127 #
plane-surface $-1 -29.47529308568798 25.392167973484987 111.45767554711875 0.71933980857756763 0 0.69465836192734942 0.69465836192734942 0 -0.71933980857756763 forward_v I I I I #
loop $-1 $-1 $316 $81 #
coedge $-1 $206 $206 $207 $317 reversed $128 $-1 #
coedge $-1 $207 $207 $206 $317 forward $130 $-1 #
coedge $-1 $208 $208 $131 $209 forward $203 $-1 #
edge $-1 $318 0 $318 6.2831853071796004 $208 $319 forward 7 unknown #
face $-1 $320 $321 $44 $-1 $322 reversed single #
loop $-1 $-1 $323 $132 #
plane-surface $-1 -184.63321006617815 -4.4458496474478348 109.03919593954245 0 -1 0 0.71933980857756763 0 -0.69465836192734942 forward_v I I I I #
coedge $-1 $324 $325 $326 $327 reversed $133 $-1 #
coedge $-1 $215 $135 $328 $329 reversed $85 $-1 #
coedge $-1 $135 $214 $324 $330 reversed $85 $-1 #
coedge $-1 $326 $331 $135 $217 forward $332 $-1 #
edge $-1 $333 16.606286725035233 $334 25.184974741422778 $216 $335 forward 7 unknown #
loop $-1 $-1 $223 $136 #
plane-surface $-1 -75.710318308053814 -10.982100362911467 3.8535845458006577 -0.71933980857756763 0 0.69465836192734942 0.69465836192734942 0 0.71933980857756763 forward_v I I I I #
loop $-1 $-1 $336 $87 #
coedge $-1 $221 $221 $222 $337 reversed $137 $-1 #
coedge $-1 $222 $222 $221 $337 forward $139 $-1 #
coedge $-1 $223 $223 $140 $224 forward $218 $-1 #
edge $-1 $338 0 $338 6.2831853071796004 $223 $339 forward 7 unknown #
face $-1 $340 $341 $46 $-1 $342 forward single #
loop $-1 $-1 $343 $141 #
plane-surface $-1 -184.63321006617815 30.202585196359294 109.03919593954245 0 -1 0 0.71933980857756763 0 -0.69465836192734942 forward_v I I I I #
coedge $-1 $344 $345 $346 $347 reversed $142 $-1 #
coedge $-1 $230 $144 $348 $349 reversed $91 $-1 #
coedge $-1 $144 $229 $344 $350 reversed $91 $-1 #
coedge $-1 $346 $351 $144 $232 forward $341 $-1 #
edge $-1 $352 16.606286725035233 $353 25.184974741422778 $231 $354 forward 7 unknown #
loop $-1 $-1 $238 $145 #
plane-surface $-1 -75.710318308053814 23.666334480895664 3.8535845458006577 -0.71933980857756763 0 0.69465836192734942 0.69465836192734942 0 0.71933980857756763 forward_v I I I I #
loop $-1 $-1 $355 $93 #
coedge $-1 $236 $236 $237 $356 reversed $146 $-1 #
coedge $-1 $237 $237 $236 $356 forward $148 $-1 #
coedge $-1 $238 $238 $149 $239 forward $233 $-1 #
edge $-1 $357 0 $357 6.2831853071796004 $238 $358 forward 7 unknown #
face $-1 $359 $360 $36 $-1 $361 reversed single #
loop $-1 $-1 $362 $150 #
plane-surface $-1 -75.710318308053843 0 0 1 0 0 0 0 -1 forward_v I I I I #
coedge $-1 $156 $363 $364 $365 forward $151 $-1 #
coedge $-1 $366 $153 $367 $368 forward $97 $-1 #
coedge $-1 $153 $366 $248 $369 forward $97 $-1 #
coedge $-1 $249 $370 $153 $247 reversed $371 $-1 #
edge $-1 $372 -34.606041151012143 $373 34.606041151012143 $246 $374 forward 7 unknown #
coedge $-1 $155 $154 $245 $369 reversed $61 $-1 #
coedge $-1 $364 $246 $154 $250 forward $371 $-1 #
edge $-1 $372 -12.737076250173548 $254 12.737076250173548 $249 $375 forward 7 unknown #
coedge $-1 $376 $377 $155 $252 reversed $241 $-1 #
edge $-1 $378 -12.737076250173548 $255 12.737076250173548 $251 $379 forward 7 unknown #
coedge $-1 $363 $156 $377 $380 forward $151 $-1 #
vertex $-1 $250 $381 #
vertex $-1 $380 $382 #
straight-curve $-1 0 -34.606041151012143 -12.737076250173548 -1 0 0 I I #
face $-1 $383 $269 $37 $-1 $384 reversed single #
loop $-1 $-1 $385 $158 #
plane-surface $-1 -72.321215042500441 -47.290275268996332 0 0 1 0 0 0 1 forward_v I I I I #
coedge $-1 $386 $387 $264 $388 forward $159 $-1 #
coedge $-1 $389 $161 $387 $390 forward $101 $-1 #
coedge $-1 $161 $389 $267 $391 forward $101 $-1 #
edge $-1 $270 68.932111776947039 $392 75.710318308053843 $161 $393 forward 7 unknown #
coedge $-1 $163 $162 $260 $388 reversed $64 $-1 #
coedge $-1 $394 $395 $162 $266 forward $396 $-1 #
edge $-1 $397 -75.710318308053843 $271 -68.932111776947039 $265 $398 forward 7 unknown #
coedge $-1 $399 $164 $262 $391 reversed $269 $-1 #
coedge $-1 $164 $399 $394 $400 reversed $269 $-1 #
loop $-1 $-1 $399 $257 #
vertex $-1 $263 $401 #
vertex $-1 $400 $402 #
straight-curve $-1 -68.932111776947039 -34.606041151012143 0 0 0 -1 I I #
face $-1 $-1 $403 $38 $-1 $404 reversed single #
loop $-1 $-1 $172 $166 #
plane-surface $-1 0 0 12.737076250173548 0 0 1 1 0 0 forward_v I I I I #
coedge $-1 $405 $406 $407 $408 reversed $167 $-1 #
coedge $-1 $409 $169 $171 $283 forward $105 $-1 #
coedge $-1 $169 $409 $405 $410 forward $105 $-1 #
coedge $-1 $407 $172 $169 $280 forward $274 $-1 #
edge $-1 $286 -0.19159036374172178 $411 12.899524219242512 $279 $412 forward 7 unknown #
coedge $-1 $413 $414 $170 $282 forward $403 $-1 #
edge $-1 $415 -105.78685968143589 $285 -95.58456722025673 $281 $416 forward 7 unknown #
edge $-1 $286 137.23778125411508 $415 151.42063661610774 $171 $417 forward 7 unknown #
coedge $-1 $172 $407 $413 $418 forward $274 $-1 #
vertex $-1 $282 $419 #
vertex $-1 $173 $420 #
straight-curve $-1 39.723799336218178 -6.1623765640086736 12.737076250173544 -1 0 0 I I #
coedge $-1 $288 $288 $-1 $421 reversed $176 $-1 #
edge $-1 $422 0 $422 6.2831853071796004 $177 $423 forward 7 unknown #
vertex $-1 $180 $424 #
ellipse-curve $-1 70.78419877144664 -15.513172694711699 7.635930019583979 0.71933980857756763 0 0.69465836192734942 1.0419875428910241 0 -1.0790097128663514 1 I I #
coedge $-1 $292 $292 $-1 $425 reversed $183 $-1 #
edge $-1 $426 0 $426 6.2831853071796004 $184 $427 forward 7 unknown #
vertex $-1 $187 $428 #
ellipse-curve $-1 70.78419877144664 -9.9026950162898828 7.635930019583979 0.71933980857756763 0 0.69465836192734942 1.0419875428910241 0 -1.0790097128663514 1 I I #
face $-1 $-1 $308 $41 $-1 $429 forward single #
loop $-1 $-1 $430 $188 #
plane-surface $-1 75.710318308053843 0 0 -1 0 0 0 0 1 forward_v I I I I #
coedge $-1 $431 $432 $433 $434 reversed $189 $-1 #
coedge $-1 $435 $191 $193 $306 forward $119 $-1 #
coedge $-1 $191 $435 $431 $436 forward $119 $-1 #
coedge $-1 $433 $194 $191 $303 forward $308 $-1 #
edge $-1 $310 -19.24164127823461 $437 -6.1505266952503774 $302 $438 forward 7 unknown #
coedge $-1 $439 $440 $192 $305 forward $297 $-1 #
edge $-1 $441 -105.78685968143589 $309 -95.58456722025673 $304 $442 forward 7 unknown #
edge $-1 $310 137.23778125411508 $441 151.42063661610774 $193 $443 forward 7 unknown #
coedge $-1 $194 $433 $439 $444 forward $308 $-1 #
loop $-1 $-1 $433 $296 #
vertex $-1 $305 $445 #
vertex $-1 $195 $446 #
straight-curve $-1 39.723799336218178 31.937725264977104 12.737076250173544 -1 0 0 I I #
coedge $-1 $312 $312 $-1 $447 reversed $198 $-1 #
edge $-1 $448 0 $448 6.2831853071796004 $199 $449 forward 7 unknown #
vertex $-1 $202 $450 #
ellipse-curve $-1 70.78419877144664 22.586929134274079 7.635930019583979 0.71933980857756763 0 0.69465836192734942 1.0419875428910241 0 -1.0790097128663514 1 I I #
coedge $-1 $316 $316 $-1 $451 reversed $205 $-1 #
edge $-1 $452 0 $452 6.2831853071796004 $206 $453 forward 7 unknown #
vertex $-1 $209 $454 #
ellipse-curve $-1 70.78419877144664 28.197406812695895 7.635930019583979 0.71933980857756763 0 0.69465836192734942 1.0419875428910241 0 -1.0790097128663514 1 I I #
face $-1 $-1 $332 $44 $-1 $455 forward single #
loop $-1 $-1 $456 $210 #
plane-surface $-1 -75.710318308053843 0 0 1 0 0 0 0 -1 forward_v I I I I #
coedge $-1 $457 $458 $459 $460 reversed $211 $-1 #
coedge $-1 $461 $213 $215 $330 forward $133 $-1 #
coedge $-1 $213 $461 $457 $462 forward $133 $-1 #
coedge $-1 $459 $216 $213 $327 forward $332 $-1 #
edge $-1 $334 -12.027300896919364 $463 1.0452005340078987 $326 $464 forward 7 unknown #
coedge $-1 $465 $466 $214 $329 forward $321 $-1 #
edge $-1 $467 -50.666013423970597 $333 -41.782521719597682 $328 $468 forward 7 unknown #
edge $-1 $334 -12.349506587073538 $467 4.082714723162343e-014 $215 $469 forward 7 unknown #
coedge $-1 $216 $459 $465 $470 forward $332 $-1 #
loop $-1 $-1 $459 $320 #
vertex $-1 $329 $471 #
vertex $-1 $217 $472 #
straight-curve $-1 -92.316605033089076 -17.518351078375098 12.737076250173544 1 0 0 I I #
coedge $-1 $336 $336 $-1 $473 reversed $220 $-1 #
edge $-1 $474 0 $474 6.2831853071796004 $221 $475 forward 7 unknown #
vertex $-1 $224 $476 #
ellipse-curve $-1 -71.420974299860077 -10.982100362911467 8.2953303979870867 -0.71933980857756763 0 0.69465836192734942 1.7366459048183736 0 1.7983495214439191 1 I I #
face $-1 $-1 $477 $46 $-1 $478 reversed single #
loop $-1 $-1 $231 $225 #
plane-surface $-1 0 0 12.737076250173548 0 0 1 1 0 0 forward_v I I I I #
coedge $-1 $479 $480 $481 $482 reversed $226 $-1 #
coedge $-1 $483 $228 $230 $350 forward $142 $-1 #
coedge $-1 $228 $483 $479 $484 forward $142 $-1 #
coedge $-1 $481 $231 $228 $347 forward $341 $-1 #
edge $-1 $353 5.2969165249842014 $485 18.369417955911462 $346 $486 forward 7 unknown #
coedge $-1 $487 $488 $229 $349 forward $477 $-1 #
edge $-1 $489 -50.666013423970597 $352 -41.782521719597682 $348 $490 forward 7 unknown #
edge $-1 $353 -12.349506587073538 $489 4.082714723162343e-014 $230 $491 forward 7 unknown #
coedge $-1 $231 $481 $487 $492 forward $341 $-1 #
vertex $-1 $349 $493 #
vertex $-1 $232 $494 #
straight-curve $-1 -92.316605033089076 17.130083765432033 12.737076250173544 1 0 0 I I #
coedge $-1 $355 $355 $-1 $495 reversed $235 $-1 #
edge $-1 $496 0 $496 6.2831853071796004 $236 $497 forward 7 unknown #
vertex $-1 $239 $498 #
ellipse-curve $-1 -71.420974299860077 23.666334480895664 8.2953303979870867 -0.71933980857756763 0 0.69465836192734942 1.7366459048183736 0 1.7983495214439191 1 I I #
face $-1 $-1 $371 $36 $-1 $499 reversed single #
loop $-1 $-1 $500 $240 #
plane-surface $-1 0 34.606041151012143 0 0 -1 0 0 0 -1 forward_v I I I I #
coedge $-1 $377 $376 $501 $502 forward $241 $-1 #
coedge $-1 $243 $253 $503 $504 forward $151 $-1 #
coedge $-1 $370 $249 $243 $365 reversed $371 $-1 #
edge $-1 $505 -34.606041151012143 $254 34.606041151012143 $364 $506 forward 7 unknown #
coedge $-1 $245 $244 $376 $507 forward $97 $-1 #
coedge $-1 $500 $501 $244 $368 reversed $360 $-1 #
edge $-1 $373 -75.710318308053843 $508 75.710318308053843 $367 $509 forward 7 unknown #
edge $-1 $378 -75.710318308053843 $372 75.710318308053843 $248 $510 forward 7 unknown #
coedge $-1 $246 $364 $500 $511 reversed $371 $-1 #
loop $-1 $-1 $249 $359 #
vertex $-1 $247 $512 #
vertex $-1 $247 $513 #
straight-curve $-1 75.710318308053843 0 12.737076250173548 0 1 0 I I #
straight-curve $-1 75.710318308053843 -34.606041151012143 0 0 0 -1 I I #
coedge $-1 $362 $251 $366 $507 reversed $241 $-1 #
coedge $-1 $251 $362 $253 $380 reversed $241 $-1 #
vertex $-1 $507 $514 #
straight-curve $-1 -75.710318308053843 -34.606041151012143 0 0 0 -1 I I #
edge $-1 $255 -34.606041151012143 $515 34.606041151012143 $377 $516 forward 7 unknown #
point $-1 75.710318308053843 -34.606041151012143 -12.737076250173548 #
point $-1 -75.710318308053843 -34.606041151012143 -12.737076250173548 #
face $-1 $-1 $396 $37 $-1 $517 reversed single #
plane-surface $-1 -68.932111776947039 -40.948158210004237 0 -1 0 0 0 0 1 forward_v I I I I #
coedge $-1 $518 $519 $520 $521 forward $258 $-1 #
coedge $-1 $520 $260 $395 $522 reversed $159 $-1 #
coedge $-1 $260 $520 $261 $390 reversed $159 $-1 #
edge $-1 $392 -12.737076250173548 $397 12.737076250173548 $260 $523 forward 7 unknown #
coedge $-1 $262 $261 $519 $524 forward $101 $-1 #
edge $-1 $392 34.606041151012143 $525 47.290275268996332 $387 $526 forward 7 unknown #
edge $-1 $527 -6.3421170589920948 $270 6.3421170589920948 $267 $528 forward 7 unknown #
vertex $-1 $390 $529 #
straight-curve $-1 0 -34.606041151012143 12.737076250173548 -1 0 0 I I #
coedge $-1 $530 $265 $268 $400 forward $396 $-1 #
coedge $-1 $265 $530 $386 $522 forward $396 $-1 #
loop $-1 $-1 $265 $383 #
vertex $-1 $388 $531 #
straight-curve $-1 0 -34.606041151012143 -12.737076250173548 1 0 0 I I #
coedge $-1 $268 $267 $532 $533 forward $269 $-1 #
edge $-1 $271 -6.3421170589920948 $534 6.3421170589920948 $268 $535 forward 7 unknown #
point $-1 -68.932111776947039 -34.606041151012143 12.737076250173548 #
point $-1 -68.932111776947039 -34.606041151012143 -12.737076250173548 #
loop $-1 $-1 $281 $273 #
plane-surface $-1 75.710318308053843 0 0 -1 0 0 0 0 1 forward_v I I I I #
coedge $-1 $406 $276 $278 $410 reversed $167 $-1 #
coedge $-1 $276 $405 $536 $537 reversed $167 $-1 #
coedge $-1 $284 $279 $276 $408 forward $274 $-1 #
edge $-1 $411 26.134279898621301 $538 35.986518971835665 $407 $539 forward 7 unknown #
coedge $-1 $278 $277 $414 $540 reversed $105 $-1 #
edge $-1 $541 -151.42063661610774 $411 -137.23778125411508 $405 $542 forward 7 unknown #
vertex $-1 $280 $543 #
straight-curve $-1 65.858079234839465 -6.3539669277503954 12.737076250173558 0 -1 0 I I #
coedge $-1 $536 $281 $284 $418 reversed $403 $-1 #
coedge $-1 $281 $536 $409 $540 forward $403 $-1 #
vertex $-1 $282 $544 #
straight-curve $-1 75.710318308053843 -6.1623765640086736 108.32164347043027 0 0 1 I I #
straight-curve $-1 -29.47529308568798 -6.1623765640086736 111.45767554711875 0.69465836192734942 0 -0.71933980857756763 I I #
edge $-1 $538 -19.253491146992907 $285 -6.1623765640086736 $413 $545 forward 7 unknown #
point $-1 75.710318308053843 -6.1623765640086736 12.737076250173548 #
point $-1 65.858079234839479 -6.1623765640086736 12.73707625017353 #
edge $-1 $546 1 $546 0 $288 $-1 forward 7 unknown #
vertex $-1 $289 $547 #
ellipse-curve $-1 69.502473405868571 -15.513172694711699 6.3981822510379844 0.71933980857756763 0 0.69465836192734942 1.0419875428910241 0 -1.0790097128663514 1 I I #
point $-1 71.82618631433769 -15.513172694711699 6.5569203067176502 #
edge $-1 $548 1 $548 0 $292 $-1 forward 7 unknown #
vertex $-1 $293 $549 #
ellipse-curve $-1 69.502473405868571 -9.9026950162898828 6.3981822510379844 0.71933980857756763 0 0.69465836192734942 1.0419875428910241 0 -1.0790097128663514 1 I I #
point $-1 71.82618631433769 -9.9026950162898828 6.5569203067176502 #
plane-surface $-1 0 0 12.737076250173548 0 0 1 1 0 0 forward_v I I I I #
coedge $-1 $440 $439 $432 $550 forward $297 $-1 #
coedge $-1 $432 $299 $301 $436 reversed $189 $-1 #
coedge $-1 $299 $431 $430 $550 reversed $189 $-1 #
coedge $-1 $307 $302 $299 $434 forward $308 $-1 #
edge $-1 $437 26.134279898621301 $551 35.986518971835665 $433 $552 forward 7 unknown #
coedge $-1 $301 $300 $440 $553 reversed $119 $-1 #
edge $-1 $554 -151.42063661610774 $437 -137.23778125411508 $431 $555 forward 7 unknown #
vertex $-1 $303 $556 #
straight-curve $-1 65.858079234839465 12.696083986742494 12.737076250173558 0 -1 0 I I #
coedge $-1 $430 $304 $307 $444 reversed $297 $-1 #
coedge $-1 $304 $430 $435 $553 forward $297 $-1 #
vertex $-1 $305 $557 #
straight-curve $-1 75.710318308053843 31.937725264977104 108.32164347043027 0 0 1 I I #
straight-curve $-1 -29.47529308568798 31.937725264977104 111.45767554711875 0.69465836192734942 0 -0.71933980857756763 I I #
edge $-1 $551 18.846610681992871 $309 31.937725264977104 $439 $558 forward 7 unknown #
point $-1 75.710318308053843 31.937725264977104 12.737076250173548 #
point $-1 65.858079234839479 31.937725264977104 12.73707625017353 #
edge $-1 $559 1 $559 0 $312 $-1 forward 7 unknown #
vertex $-1 $313 $560 #
ellipse-curve $-1 69.502473405868571 22.586929134274079 6.3981822510379844 0.71933980857756763 0 0.69465836192734942 1.0419875428910241 0 -1.0790097128663514 1 I I #
point $-1 71.82618631433769 22.586929134274079 6.5569203067176502 #
edge $-1 $561 1 $561 0 $316 $-1 forward 7 unknown #
vertex $-1 $317 $562 #
ellipse-curve $-1 69.502473405868571 28.197406812695895 6.3981822510379844 0.71933980857756763 0 0.69465836192734942 1.0419875428910241 0 -1.0790097128663514 1 I I #
point $-1 71.82618631433769 28.197406812695895 6.5569203067176502 #
plane-surface $-1 0 0 12.737076250173548 0 0 1 1 0 0 forward_v I I I I #
coedge $-1 $466 $465 $458 $563 forward $321 $-1 #
coedge $-1 $458 $323 $325 $462 reversed $211 $-1 #
coedge $-1 $323 $457 $456 $563 reversed $211 $-1 #
coedge $-1 $331 $326 $323 $460 forward $332 $-1 #
edge $-1 $463 -25.184974741422778 $564 -16.606286725035233 $459 $565 forward 7 unknown #
coedge $-1 $325 $324 $466 $566 reversed $133 $-1 #
edge $-1 $567 -4.082714723162343e-014 $463 12.349506587073538 $457 $568 forward 7 unknown #
vertex $-1 $327 $569 #
straight-curve $-1 -67.131630291666298 -5.4910501814557335 12.737076250173548 0 1 0 I I #
coedge $-1 $456 $328 $331 $470 reversed $321 $-1 #
coedge $-1 $328 $456 $461 $566 forward $321 $-1 #
vertex $-1 $329 $570 #
straight-curve $-1 -75.710318308053843 -17.518351078375098 54.519597969771226 0 0 1 I I #
straight-curve $-1 -75.710318308053814 -17.518351078375098 3.8535845458006577 -0.69465836192734942 0 -0.71933980857756763 I I #
edge $-1 $564 4.4458496474478348 $333 17.518351078375098 $465 $571 forward 7 unknown #
point $-1 -75.710318308053843 -17.518351078375098 12.737076250173548 #
point $-1 -67.131630291666298 -17.518351078375098 12.737076250173548 #
edge $-1 $572 1 $572 0 $336 $-1 forward 7 unknown #
vertex $-1 $337 $573 #
ellipse-curve $-1 -69.145472437968976 -10.982100362911467 6.0979038450626852 -0.71933980857756763 0 0.69465836192734942 1.7366459048183736 0 1.7983495214439191 1 I I #
point $-1 -69.684328395041717 -10.982100362911467 10.093679919431027 #
loop $-1 $-1 $348 $340 #
plane-surface $-1 -75.710318308053843 0 0 1 0 0 0 0 -1 forward_v I I I I #
coedge $-1 $480 $343 $345 $484 reversed $226 $-1 #
coedge $-1 $343 $479 $574 $575 reversed $226 $-1 #
coedge $-1 $351 $346 $343 $482 forward $341 $-1 #
edge $-1 $485 -25.184974741422778 $576 -16.606286725035233 $481 $577 forward 7 unknown #
coedge $-1 $345 $344 $488 $578 reversed $142 $-1 #
edge $-1 $579 -4.082714723162343e-014 $485 12.349506587073538 $479 $580 forward 7 unknown #
vertex $-1 $347 $581 #
straight-curve $-1 -67.131630291666298 11.833167240447832 12.737076250173548 0 1 0 I I #
coedge $-1 $574 $348 $351 $492 reversed $477 $-1 #
coedge $-1 $348 $574 $483 $578 forward $477 $-1 #
vertex $-1 $349 $582 #
straight-curve $-1 -75.710318308053843 17.130083765432033 54.519597969771226 0 0 1 I I #
straight-curve $-1 -75.710318308053814 17.130083765432033 3.8535845458006577 -0.69465836192734942 0 -0.71933980857756763 I I #
edge $-1 $576 -30.202585196359294 $352 -17.130083765432033 $487 $583 forward 7 unknown #
point $-1 -75.710318308053843 17.130083765432033 12.737076250173548 #
point $-1 -67.131630291666298 17.130083765432033 12.737076250173548 #
edge $-1 $584 1 $584 0 $355 $-1 forward 7 unknown #
vertex $-1 $356 $585 #
ellipse-curve $-1 -69.145472437968976 23.666334480895664 6.0979038450626852 -0.71933980857756763 0 0.69465836192734942 1.7366459048183736 0 1.7983495214439191 1 I I #
point $-1 -69.684328395041717 23.666334480895664 10.093679919431027 #
plane-surface $-1 75.710318308053843 0 0 -1 0 0 0 0 1 forward_v I I I I #
coedge $-1 $503 $367 $370 $511 forward $360 $-1 #
coedge $-1 $367 $503 $362 $502 reversed $360 $-1 #
edge $-1 $508 -12.737076250173548 $515 12.737076250173548 $501 $586 forward 7 unknown #
coedge $-1 $501 $500 $363 $504 reversed $360 $-1 #
edge $-1 $515 -75.710318308053843 $505 75.710318308053843 $503 $587 forward 7 unknown #
vertex $-1 $365 $588 #
straight-curve $-1 75.710318308053843 0 -12.737076250173548 0 -1 0 I I #
edge $-1 $508 -34.606041151012143 $378 34.606041151012143 $376 $589 forward 7 unknown #
vertex $-1 $368 $590 #
straight-curve $-1 0 34.606041151012143 12.737076250173548 -1 0 0 I I #
straight-curve $-1 0 -34.606041151012143 12.737076250173548 1 0 0 I I #
edge $-1 $373 -12.737076250173548 $505 12.737076250173548 $370 $591 forward 7 unknown #
point $-1 75.710318308053843 -34.606041151012143 12.737076250173548 #
point $-1 75.710318308053843 34.606041151012143 12.737076250173548 #
point $-1 -75.710318308053843 -34.606041151012143 12.737076250173548 #
vertex $-1 $504 $592 #
straight-curve $-1 -75.710318308053843 0 -12.737076250173548 0 1 0 I I #
plane-surface $-1 0 0 -12.737076250173548 0 0 1 1 0 0 forward_v I I I I #
coedge $-1 $532 $385 $530 $593 reversed $258 $-1 #
coedge $-1 $385 $532 $389 $524 reversed $258 $-1 #
coedge $-1 $387 $386 $385 $521 reversed $159 $-1 #
edge $-1 $525 -12.737076250173548 $594 12.737076250173548 $520 $595 forward 7 unknown #
edge $-1 $594 -47.290275268996332 $397 -34.606041151012143 $386 $596 forward 7 unknown #
straight-curve $-1 -75.710318308053843 -34.606041151012143 0 0 0 -1 I I #
edge $-1 $525 -3.3891032655534019 $527 3.3891032655534019 $519 $597 forward 7 unknown #
vertex $-1 $390 $598 #
straight-curve $-1 -75.710318308053843 0 12.737076250173548 0 -1 0 I I #
vertex $-1 $391 $599 #
straight-curve $-1 -68.932111776947039 -40.948158210004237 12.737076250173548 0 1 0 I I #
point $-1 -75.710318308053843 -34.606041151012143 12.737076250173548 #
coedge $-1 $395 $394 $518 $593 forward $396 $-1 #
point $-1 -75.710318308053843 -34.606041151012143 -12.737076250173548 #
coedge $-1 $519 $518 $399 $533 reversed $258 $-1 #
edge $-1 $527 -12.737076250173548 $534 12.737076250173548 $399 $600 forward 7 unknown #
vertex $-1 $533 $601 #
straight-curve $-1 -68.932111776947039 -40.948158210004237 -12.737076250173548 0 -1 0 I I #
coedge $-1 $414 $413 $406 $537 forward $403 $-1 #
edge $-1 $538 95.58456722025673 $541 105.78685968143589 $536 $602 forward 7 unknown #
vertex $-1 $418 $603 #
straight-curve $-1 39.723799336218178 -19.253491146992907 12.737076250173544 1 0 0 I I #
edge $-1 $541 -12.899524219242512 $415 0.19159036374172178 $414 $604 forward 7 unknown #
vertex $-1 $540 $605 #
straight-curve $-1 -29.47529308568798 -19.253491146992907 111.45767554711875 -0.69465836192734942 0 0.71933980857756763 I I #
point $-1 65.858079234839479 -19.253491146992907 12.73707625017353 #
point $-1 75.710318308053857 -6.1623765640086736 2.5347837889943889 #
straight-curve $-1 75.710318308053843 0 12.737076250173548 0 1 0 I I #
vertex $-1 $421 $606 #
point $-1 70.544460948759607 -15.513172694711699 5.3191725381716335 #
vertex $-1 $425 $607 #
point $-1 70.544460948759607 -9.9026950162898828 5.3191725381716335 #
edge $-1 $551 95.58456722025673 $554 105.78685968143589 $430 $608 forward 7 unknown #
vertex $-1 $444 $609 #
straight-curve $-1 39.723799336218178 18.846610681992871 12.737076250173544 1 0 0 I I #
edge $-1 $554 6.1505266952503774 $441 19.24164127823461 $440 $610 forward 7 unknown #
vertex $-1 $553 $611 #
straight-curve $-1 -29.47529308568798 18.846610681992871 111.45767554711875 -0.69465836192734942 0 0.71933980857756763 I I #
point $-1 65.858079234839479 18.846610681992871 12.73707625017353 #
point $-1 75.710318308053857 31.937725264977104 2.5347837889943889 #
straight-curve $-1 75.710318308053843 0 12.737076250173548 0 1 0 I I #
vertex $-1 $447 $612 #
point $-1 70.544460948759607 22.586929134274079 5.3191725381716335 #
vertex $-1 $451 $613 #
point $-1 70.544460948759607 28.197406812695895 5.3191725381716335 #
edge $-1 $564 41.782521719597682 $567 50.666013423970597 $456 $614 forward 7 unknown #
vertex $-1 $470 $615 #
straight-curve $-1 -92.316605033089076 -4.4458496474478348 12.737076250173544 -1 0 0 I I #
edge $-1 $567 -1.0452005340078987 $467 12.027300896919364 $466 $616 forward 7 unknown #
vertex $-1 $566 $617 #
straight-curve $-1 -75.710318308053814 -4.4458496474478348 3.8535845458006577 0.69465836192734942 0 0.71933980857756763 I I #
point $-1 -67.131630291666298 -4.4458496474478348 12.737076250173548 #
point $-1 -75.710318308053843 -17.518351078375098 3.8535845458006284 #
straight-curve $-1 -75.710318308053843 0 12.737076250173548 0 -1 0 I I #
vertex $-1 $473 $618 #
point $-1 -67.408826533150602 -10.982100362911467 7.8962533665066044 #
coedge $-1 $488 $487 $480 $575 forward $477 $-1 #
edge $-1 $576 41.782521719597682 $579 50.666013423970597 $574 $619 forward 7 unknown #
vertex $-1 $492 $620 #
straight-curve $-1 -92.316605033089076 30.202585196359294 12.737076250173544 -1 0 0 I I #
edge $-1 $579 -18.369417955911462 $489 -5.2969165249842014 $488 $621 forward 7 unknown #
vertex $-1 $578 $622 #
straight-curve $-1 -75.710318308053814 30.202585196359294 3.8535845458006577 0.69465836192734942 0 0.71933980857756763 I I #
point $-1 -67.131630291666298 30.202585196359294 12.737076250173548 #
point $-1 -75.710318308053843 17.130083765432033 3.8535845458006284 #
straight-curve $-1 -75.710318308053843 0 12.737076250173548 0 -1 0 I I #
vertex $-1 $495 $623 #
point $-1 -67.408826533150602 23.666334480895664 7.8962533665066044 #
straight-curve $-1 -75.710318308053843 34.606041151012143 0 0 0 -1 I I #
straight-curve $-1 0 34.606041151012143 -12.737076250173548 1 0 0 I I #
point $-1 75.710318308053843 34.606041151012143 -12.737076250173548 #
straight-curve $-1 -75.710318308053843 0 12.737076250173548 0 -1 0 I I #
point $-1 -75.710318308053843 34.606041151012143 12.737076250173548 #
straight-curve $-1 75.710318308053843 34.606041151012143 0 0 0 -1 I I #
point $-1 -75.710318308053843 34.606041151012143 -12.737076250173548 #
edge $-1 $534 -3.3891032655534019 $594 3.3891032655534019 $518 $624 forward 7 unknown #
vertex $-1 $522 $625 #
straight-curve $-1 -75.710318308053843 -47.290275268996332 0 0 0 -1 I I #
straight-curve $-1 -75.710318308053843 0 -12.737076250173548 0 1 0 I I #
straight-curve $-1 -72.321215042500441 -47.290275268996332 12.737076250173548 1 0 0 I I #
point $-1 -75.710318308053843 -47.290275268996332 12.737076250173548 #
point $-1 -68.932111776947039 -47.290275268996332 12.737076250173548 #
straight-curve $-1 -68.932111776947039 -47.290275268996332 0 0 0 -1 I I #
point $-1 -68.932111776947039 -47.290275268996332 -12.737076250173548 #
straight-curve $-1 75.710318308053843 -19.253491146992907 108.32164347043027 0 0 -1 I I #
point $-1 75.710318308053843 -19.253491146992907 12.737076250173548 #
straight-curve $-1 75.710318308053843 -6.3539669277503954 2.5347837889944032 0 1 0 I I #
point $-1 75.710318308053857 -19.253491146992907 2.5347837889943889 #
point $-1 68.423463693002233 -15.513172694711699 5.356194708146961 #
point $-1 68.423463693002233 -9.9026950162898828 5.356194708146961 #
straight-curve $-1 75.710318308053843 18.846610681992871 108.32164347043027 0 0 -1 I I #
point $-1 75.710318308053843 18.846610681992871 12.737076250173548 #
straight-curve $-1 75.710318308053843 12.696083986742494 2.5347837889944032 0 1 0 I I #
point $-1 75.710318308053857 18.846610681992871 2.5347837889943889 #
point $-1 68.423463693002233 22.586929134274079 5.356194708146961 #
point $-1 68.423463693002233 28.197406812695895 5.356194708146961 #
straight-curve $-1 -75.710318308053843 -4.4458496474478348 54.519597969771226 0 0 -1 I I #
point $-1 -75.710318308053843 -4.4458496474478348 12.737076250173548 #
straight-curve $-1 -75.710318308053843 -5.4910501814557335 3.8535845458006324 0 -1 0 I I #
point $-1 -75.710318308053843 -4.4458496474478348 3.8535845458006284 #
point $-1 -67.347122916525052 -10.982100362911467 4.361257940244311 #
straight-curve $-1 -75.710318308053843 30.202585196359294 54.519597969771226 0 0 -1 I I #
point $-1 -75.710318308053843 30.202585196359294 12.737076250173548 #
straight-curve $-1 -75.710318308053843 11.833167240447832 3.8535845458006324 0 -1 0 I I #
point $-1 -75.710318308053843 30.202585196359294 3.8535845458006284 #
point $-1 -67.347122916525052 23.666334480895664 4.361257940244311 #
straight-curve $-1 -72.321215042500441 -47.290275268996332 -12.737076250173548 -1 0 0 I I #
point $-1 -75.710318308053843 -47.290275268996332 -12.737076250173548 #
End-of-ACIS-data 