500 0 6 0           
7 Unknown 11 ACIS 5.0 NT 24 Fri Mar 26 18:40:49 1999 
-1 9.9999999999999995e-007 1e-010 
body $-1 $6 $-1 $7 #
body $-1 $8 $-1 $9 #
body $-1 $10 $-1 $11 #
body $-1 $12 $-1 $13 #
body $-1 $14 $-1 $15 #
body $-1 $16 $-1 $17 #
lump $-1 $-1 $18 $0 #
transform $-1 1 0 0 0 1 0 0 0 1 79.078341013824883 34.610620806957208 11.306467093167861 1 rotate no_reflect no_shear #
lump $-1 $-1 $19 $1 #
transform $-1 1 0 0 0 1 0 0 0 1 79.078341013824883 34.610620806957208 11.306467093167861 1 rotate no_reflect no_shear #
lump $-1 $-1 $20 $2 #
transform $-1 1 0 0 0 1 0 0 0 1 79.078341013824883 34.610620806957208 11.306467093167861 1 rotate no_reflect no_shear #
lump $-1 $-1 $21 $3 #
transform $-1 1 0 0 0 1 0 0 0 1 79.078341013824883 34.610620806957208 11.306467093167861 1 rotate no_reflect no_shear #
lump $-1 $-1 $22 $4 #
transform $-1 1 0 0 0 1 0 0 0 1 79.078341013824883 34.610620806957208 11.306467093167861 1 rotate no_reflect no_shear #
lump $-1 $-1 $23 $5 #
transform $-1 1 0 0 0 1 0 0 0 1 79.078341013824883 34.610620806957208 11.306467093167861 1 rotate no_reflect no_shear #
shell $-1 $-1 $-1 $24 $-1 $6 #
shell $-1 $-1 $-1 $25 $-1 $8 #
shell $-1 $-1 $-1 $26 $-1 $10 #
shell $-1 $-1 $-1 $27 $-1 $12 #
shell $-1 $-1 $-1 $28 $-1 $14 #
shell $-1 $-1 $-1 $29 $-1 $16 #
face $-1 $30 $31 $18 $-1 $32 forward single #
face $-1 $33 $34 $19 $-1 $35 reversed single #
face $-1 $36 $37 $20 $-1 $38 reversed single #
face $-1 $39 $40 $21 $-1 $41 forward single #
face $-1 $42 $43 $22 $-1 $44 forward single #
face $-1 $45 $46 $23 $-1 $47 forward single #
face $-1 $48 $49 $18 $-1 $50 reversed single #
loop $-1 $-1 $51 $24 #
plane-surface $-1 0 0 11.306467093167861 0 0 1 1 0 0 forward_v I I I I #
face $-1 $52 $53 $19 $-1 $54 reversed single #
loop $-1 $-1 $55 $25 #
plane-surface $-1 0 -27.710066588892946 8.3064670931678606 0 0 1 1 0 0 forward_v I I I I #
face $-1 $56 $57 $20 $-1 $58 reversed single #
loop $-1 $-1 $59 $26 #
plane-surface $-1 -54.690442601363998 74.509148063036122 176.08629451750826 -1 0 0 0 0.6018150307709319 0.79863550430605224 forward_v I I I I #
face $-1 $60 $61 $21 $-1 $62 forward single #
loop $-1 $63 $64 $27 #
cone-surface $-1 -74.2007613313327 31.999153673612273 9.0540807520472235 0 -0.6018150307709319 -0.79863550430605224 0.5 0 0 1 I I 0 1 0.5 forward I I I I #
face $-1 $65 $66 $22 $-1 $67 forward single #
loop $-1 $68 $69 $28 #
cone-surface $-1 -66.88439180759444 31.999153673612273 9.0540807520472235 0 -0.6018150307709319 -0.79863550430605224 0.5 0 0 1 I I 0 1 0.5 forward I I I I #
face $-1 $70 $71 $23 $-1 $72 forward single #
loop $-1 $73 $74 $29 #
cone-surface $-1 -59.568022283856173 31.999153673612273 9.0540807520472235 0 -0.6018150307709319 -0.79863550430605224 0.5 0 0 1 I I 0 1 0.5 forward I I I I #
face $-1 $75 $76 $18 $-1 $77 reversed single #
loop $-1 $-1 $78 $30 #
plane-surface $-1 0 0 -11.306467093167861 0 0 1 1 0 0 forward_v I I I I #
coedge $-1 $79 $80 $81 $82 forward $31 $-1 #
face $-1 $83 $84 $19 $-1 $85 reversed single #
loop $-1 $-1 $86 $33 #
plane-surface $-1 0 -20.809512370828685 9.8064670931678606 0 -1 0 0 0 -1 forward_v I I I I #
coedge $-1 $87 $88 $89 $90 reversed $34 $-1 #
face $-1 $91 $92 $20 $-1 $93 reversed single #
loop $-1 $-1 $94 $36 #
plane-surface $-1 -66.88439180759444 -20.671920398062412 49.776753006984251 0 0.6018150307709319 0.79863550430605224 1 0 0 forward_v I I I I #
coedge $-1 $95 $96 $97 $98 reversed $37 $-1 #
face $-1 $-1 $99 $21 $-1 $100 forward single #
loop $-1 $101 $102 $39 #
cone-surface $-1 -74.2007613313327 31.352607037645789 8.1960844038818799 0 -0.6018150307709319 -0.79863550430605224 0.25 0 0 1 I I -0.70710678118654746 0.70710678118654746 0.25 forward I I I I #
loop $-1 $-1 $103 $27 #
coedge $-1 $64 $64 $104 $105 reversed $40 $-1 #
face $-1 $-1 $106 $22 $-1 $107 forward single #
loop $-1 $108 $109 $42 #
cone-surface $-1 -66.88439180759444 31.352607037645789 8.1960844038818799 0 -0.6018150307709319 -0.79863550430605224 0.25 0 0 1 I I -0.70710678118654746 0.70710678118654746 0.25 forward I I I I #
loop $-1 $-1 $110 $28 #
coedge $-1 $69 $69 $111 $112 reversed $43 $-1 #
face $-1 $-1 $113 $23 $-1 $114 forward single #
loop $-1 $115 $116 $45 #
cone-surface $-1 -59.568022283856173 31.352607037645789 8.1960844038818799 0 -0.6018150307709319 -0.79863550430605224 0.25 0 0 1 I I -0.70710678118654746 0.70710678118654746 0.25 forward I I I I #
loop $-1 $-1 $117 $29 #
coedge $-1 $74 $74 $118 $119 reversed $46 $-1 #
face $-1 $120 $121 $18 $-1 $122 reversed single #
loop $-1 $-1 $123 $48 #
plane-surface $-1 0 -34.610620806957208 0 0 1 0 0 0 1 forward_v I I I I #
coedge $-1 $124 $125 $126 $127 forward $49 $-1 #
coedge $-1 $128 $51 $129 $130 forward $31 $-1 #
coedge $-1 $51 $128 $131 $132 forward $31 $-1 #
coedge $-1 $133 $134 $51 $82 reversed $135 $-1 #
edge $-1 $136 -34.610620806957208 $137 34.610620806957208 $81 $138 forward 7 unknown #
face $-1 $139 $140 $19 $-1 $141 reversed single #
loop $-1 $-1 $142 $52 #
plane-surface $-1 -79.078341013824883 0 0 1 0 0 0 0 -1 forward_v I I I I #
coedge $-1 $143 $144 $145 $146 reversed $53 $-1 #
coedge $-1 $147 $55 $148 $149 reversed $34 $-1 #
coedge $-1 $55 $147 $143 $150 forward $34 $-1 #
coedge $-1 $145 $151 $55 $90 forward $152 $-1 #
edge $-1 $153 -20.755587512510736 $154 -6.9544790763822117 $89 $155 forward 7 unknown #
face $-1 $156 $157 $20 $-1 $158 forward single #
loop $-1 $-1 $159 $56 #
plane-surface $-1 -79.078341013824883 0 0 1 0 0 0 0 -1 forward_v I I I I #
coedge $-1 $160 $161 $162 $163 reversed $57 $-1 #
coedge $-1 $96 $59 $164 $165 reversed $37 $-1 #
coedge $-1 $59 $95 $160 $166 reversed $37 $-1 #
coedge $-1 $162 $167 $59 $98 forward $168 $-1 #
edge $-1 $169 76.736680165586279 $170 79.924777903649897 $97 $171 forward 7 unknown #
loop $-1 $-1 $104 $60 #
plane-surface $-1 -66.88439180759444 -20.671920398062412 49.776753006984251 0 0.6018150307709319 0.79863550430605224 1 0 0 forward_v I I I I #
loop $-1 $-1 $172 $39 #
coedge $-1 $102 $102 $103 $173 reversed $61 $-1 #
coedge $-1 $103 $103 $102 $173 forward $63 $-1 #
coedge $-1 $104 $104 $64 $105 forward $99 $-1 #
edge $-1 $174 -5.7553188133256822e-015 $174 6.2831853071795951 $104 $175 forward 7 unknown #
loop $-1 $-1 $111 $65 #
plane-surface $-1 -66.88439180759444 -20.671920398062412 49.776753006984251 0 0.6018150307709319 0.79863550430605224 1 0 0 forward_v I I I I #
loop $-1 $-1 $176 $42 #
coedge $-1 $109 $109 $110 $177 reversed $66 $-1 #
coedge $-1 $110 $110 $109 $177 forward $68 $-1 #
coedge $-1 $111 $111 $69 $112 forward $106 $-1 #
edge $-1 $178 -5.7553188133256822e-015 $178 6.2831853071795951 $111 $179 forward 7 unknown #
loop $-1 $-1 $118 $70 #
plane-surface $-1 -66.88439180759444 -20.671920398062412 49.776753006984251 0 0.6018150307709319 0.79863550430605224 1 0 0 forward_v I I I I #
loop $-1 $-1 $180 $45 #
coedge $-1 $116 $116 $117 $181 reversed $71 $-1 #
coedge $-1 $117 $117 $116 $181 forward $73 $-1 #
coedge $-1 $118 $118 $74 $119 forward $113 $-1 #
edge $-1 $182 -5.7553188133256822e-015 $182 6.2831853071795951 $118 $183 forward 7 unknown #
face $-1 $184 $185 $18 $-1 $186 reversed single #
loop $-1 $-1 $187 $75 #
plane-surface $-1 -79.078341013824883 0 0 1 0 0 0 0 -1 forward_v I I I I #
coedge $-1 $188 $131 $189 $190 forward $76 $-1 #
coedge $-1 $191 $78 $188 $192 forward $49 $-1 #
coedge $-1 $78 $191 $193 $194 forward $49 $-1 #
coedge $-1 $134 $133 $78 $127 reversed $135 $-1 #
edge $-1 $195 -34.610620806957208 $196 34.610620806957208 $126 $197 forward 7 unknown #
coedge $-1 $80 $79 $198 $199 forward $31 $-1 #
coedge $-1 $200 $201 $79 $130 reversed $185 $-1 #
edge $-1 $137 -79.078341013824883 $202 79.078341013824883 $129 $203 forward 7 unknown #
coedge $-1 $123 $204 $80 $132 reversed $76 $-1 #
edge $-1 $205 -79.078341013824883 $136 79.078341013824883 $131 $206 forward 7 unknown #
coedge $-1 $126 $81 $204 $207 forward $135 $-1 #
coedge $-1 $81 $126 $200 $208 reversed $135 $-1 #
loop $-1 $-1 $133 $184 #
vertex $-1 $82 $209 #
vertex $-1 $82 $210 #
straight-curve $-1 79.078341013824883 0 11.306467093167861 0 1 0 I I #
face $-1 $211 $212 $19 $-1 $213 forward single #
loop $-1 $-1 $148 $83 #
plane-surface $-1 0 -34.610620806957208 0 0 1 0 0 0 1 forward_v I I I I #
coedge $-1 $214 $215 $216 $217 forward $84 $-1 #
coedge $-1 $216 $86 $88 $150 reversed $53 $-1 #
coedge $-1 $86 $216 $218 $219 reversed $53 $-1 #
coedge $-1 $220 $89 $86 $146 forward $152 $-1 #
edge $-1 $154 3.4032335465839303 $221 6.4032335465839303 $145 $222 forward 7 unknown #
coedge $-1 $88 $87 $214 $223 reversed $34 $-1 #
coedge $-1 $224 $225 $87 $149 forward $140 $-1 #
edge $-1 $226 -79.078341013824883 $153 79.078341013824883 $148 $227 forward 7 unknown #
edge $-1 $228 -79.078341013824883 $154 79.078341013824883 $143 $229 forward 7 unknown #
coedge $-1 $89 $220 $224 $230 forward $152 $-1 #
loop $-1 $-1 $145 $211 #
vertex $-1 $149 $231 #
vertex $-1 $90 $232 #
straight-curve $-1 79.078341013824883 -13.855033294446473 8.3064670931678606 0 1 0 I I #
face $-1 $-1 $168 $20 $-1 $233 reversed single #
loop $-1 $-1 $164 $91 #
plane-surface $-1 0 0 11.306467093167861 0 0 1 1 0 0 forward_v I I I I #
coedge $-1 $234 $235 $161 $236 forward $92 $-1 #
coedge $-1 $237 $94 $96 $166 forward $57 $-1 #
coedge $-1 $94 $237 $159 $236 reversed $57 $-1 #
coedge $-1 $238 $97 $94 $163 forward $168 $-1 #
edge $-1 $170 21.248246697566778 $239 45.636145110027662 $162 $240 forward 7 unknown #
coedge $-1 $241 $242 $95 $165 forward $157 $-1 #
edge $-1 $243 -6.8747017347032511 $169 -2.6439532245608532 $164 $244 forward 7 unknown #
edge $-1 $170 -69.221241613914401 $243 -63.923770505591264 $96 $245 forward 7 unknown #
coedge $-1 $97 $238 $241 $246 reversed $168 $-1 #
loop $-1 $-1 $162 $156 #
vertex $-1 $246 $247 #
vertex $-1 $98 $248 #
straight-curve $-1 -54.690442601363998 34.610620806957208 88.043147258754132 0 0 -1 I I #
coedge $-1 $172 $172 $-1 $249 reversed $101 $-1 #
edge $-1 $250 0 $250 6.2831853071796004 $102 $251 forward 7 unknown #
vertex $-1 $105 $252 #
ellipse-curve $-1 -74.2007613313327 32.495246551886012 9.7124182241360408 0 0.6018150307709319 0.79863550430605224 0.5 0 0 1 I I #
coedge $-1 $176 $176 $-1 $253 reversed $108 $-1 #
edge $-1 $254 0 $254 6.2831853071796004 $109 $255 forward 7 unknown #
vertex $-1 $112 $256 #
ellipse-curve $-1 -66.88439180759444 32.495246551886012 9.7124182241360408 0 0.6018150307709319 0.79863550430605224 0.5 0 0 1 I I #
coedge $-1 $180 $180 $-1 $257 reversed $115 $-1 #
edge $-1 $258 0 $258 6.2831853071796004 $116 $259 forward 7 unknown #
vertex $-1 $119 $260 #
ellipse-curve $-1 -59.568022283856173 32.495246551886012 9.7124182241360408 0 0.6018150307709319 0.79863550430605224 0.5 0 0 1 I I #
face $-1 $-1 $135 $18 $-1 $261 reversed single #
loop $-1 $-1 $200 $120 #
plane-surface $-1 0 34.610620806957208 0 0 -1 0 0 0 -1 forward_v I I I I #
coedge $-1 $262 $198 $201 $263 forward $121 $-1 #
coedge $-1 $204 $123 $124 $192 reversed $76 $-1 #
coedge $-1 $198 $262 $123 $190 reversed $121 $-1 #
edge $-1 $205 -11.306467093167861 $264 11.306467093167861 $189 $265 forward 7 unknown #
coedge $-1 $125 $124 $262 $266 forward $49 $-1 #
edge $-1 $196 -79.078341013824883 $264 79.078341013824883 $188 $267 forward 7 unknown #
coedge $-1 $201 $200 $125 $194 reversed $185 $-1 #
edge $-1 $268 -79.078341013824883 $195 79.078341013824883 $193 $269 forward 7 unknown #
vertex $-1 $127 $270 #
vertex $-1 $207 $271 #
straight-curve $-1 79.078341013824883 0 -11.306467093167861 0 -1 0 I I #
coedge $-1 $187 $189 $128 $199 reversed $121 $-1 #
edge $-1 $202 -34.610620806957208 $205 34.610620806957208 $198 $272 forward 7 unknown #
coedge $-1 $193 $129 $134 $208 forward $185 $-1 #
coedge $-1 $129 $193 $187 $263 reversed $185 $-1 #
vertex $-1 $130 $273 #
straight-curve $-1 0 34.610620806957208 11.306467093167861 -1 0 0 I I #
coedge $-1 $131 $188 $133 $207 reversed $76 $-1 #
vertex $-1 $199 $274 #
straight-curve $-1 0 -34.610620806957208 11.306467093167861 1 0 0 I I #
edge $-1 $136 -11.306467093167861 $196 11.306467093167861 $133 $275 forward 7 unknown #
edge $-1 $137 -11.306467093167861 $195 11.306467093167861 $134 $276 forward 7 unknown #
point $-1 79.078341013824883 -34.610620806957208 11.306467093167861 #
point $-1 79.078341013824883 34.610620806957208 11.306467093167861 #
face $-1 $-1 $152 $19 $-1 $277 reversed single #
loop $-1 $-1 $218 $139 #
plane-surface $-1 0 0 11.306467093167861 0 0 1 1 0 0 forward_v I I I I #
coedge $-1 $278 $142 $147 $223 forward $84 $-1 #
coedge $-1 $142 $278 $279 $280 reversed $84 $-1 #
coedge $-1 $144 $143 $142 $217 reversed $53 $-1 #
edge $-1 $281 -6.4032335465839303 $228 -3.4032335465839303 $142 $282 forward 7 unknown #
coedge $-1 $279 $283 $144 $219 forward $212 $-1 #
edge $-1 $221 -79.078341013824883 $281 79.078341013824883 $218 $284 forward 7 unknown #
coedge $-1 $151 $145 $283 $285 reversed $152 $-1 #
vertex $-1 $146 $286 #
straight-curve $-1 79.078341013824883 -20.809512370828685 4.9032335465839303 0 0 1 I I #
edge $-1 $228 6.9544790763822117 $226 20.755587512510736 $214 $287 forward 7 unknown #
coedge $-1 $288 $148 $151 $230 reversed $140 $-1 #
coedge $-1 $148 $288 $278 $289 forward $140 $-1 #
vertex $-1 $149 $290 #
straight-curve $-1 0 -34.610620806957208 8.3064670931678606 1 0 0 I I #
vertex $-1 $223 $291 #
straight-curve $-1 0 -20.809512370828685 8.3064670931678606 1 0 0 I I #
edge $-1 $292 -11.306467093167861 $153 -8.3064670931678606 $151 $293 forward 7 unknown #
point $-1 79.078341013824883 -34.610620806957208 8.3064670931678606 #
point $-1 79.078341013824883 -20.809512370828685 8.3064670931678606 #
plane-surface $-1 0 34.610620806957208 0 0 -1 0 0 0 -1 forward_v I I I I #
coedge $-1 $235 $159 $294 $295 reversed $92 $-1 #
coedge $-1 $159 $234 $238 $296 forward $92 $-1 #
edge $-1 $239 -45.988377756586189 $297 -40.690906648263038 $159 $298 forward 7 unknown #
coedge $-1 $161 $160 $242 $299 reversed $57 $-1 #
coedge $-1 $167 $162 $235 $296 reversed $168 $-1 #
vertex $-1 $236 $300 #
straight-curve $-1 -33.44219590379722 34.610620806957208 8.1183693551042495 -1 0 0 I I #
coedge $-1 $294 $164 $167 $246 forward $157 $-1 #
coedge $-1 $164 $294 $237 $299 forward $157 $-1 #
vertex $-1 $165 $301 #
straight-curve $-1 -54.690442601363998 37.254574031518061 11.306467093167868 0 1 0 I I #
straight-curve $-1 -54.690442601363998 -20.671920398062412 49.776753006984251 0 -0.79863550430605224 0.6018150307709319 I I #
edge $-1 $169 54.690442601363998 $302 79.078341013824883 $167 $303 forward 7 unknown #
point $-1 -54.690442601363998 34.610620806957208 11.306467093167861 #
point $-1 -54.690442601363998 34.610620806957208 8.1183693551042424 #
edge $-1 $304 1 $304 0 $172 $-1 forward 7 unknown #
vertex $-1 $173 $305 #
ellipse-curve $-1 -74.2007613313327 31.503060795338524 8.3957432799583938 0 0.6018150307709319 0.79863550430605224 0.5 0 0 1 I I #
point $-1 -73.7007613313327 32.495246551886019 9.712418224136055 #
edge $-1 $306 1 $306 0 $176 $-1 forward 7 unknown #
vertex $-1 $177 $307 #
ellipse-curve $-1 -66.88439180759444 31.503060795338524 8.3957432799583938 0 0.6018150307709319 0.79863550430605224 0.5 0 0 1 I I #
point $-1 -66.38439180759444 32.495246551886019 9.712418224136055 #
edge $-1 $308 1 $308 0 $180 $-1 forward 7 unknown #
vertex $-1 $181 $309 #
ellipse-curve $-1 -59.568022283856173 31.503060795338524 8.3957432799583938 0 0.6018150307709319 0.79863550430605224 0.5 0 0 1 I I #
point $-1 -59.068022283856173 32.495246551886019 9.712418224136055 #
plane-surface $-1 79.078341013824883 0 0 -1 0 0 0 0 1 forward_v I I I I #
coedge $-1 $189 $187 $191 $266 reversed $121 $-1 #
edge $-1 $202 -11.306467093167861 $268 11.306467093167861 $201 $310 forward 7 unknown #
vertex $-1 $266 $311 #
straight-curve $-1 -79.078341013824883 -34.610620806957208 0 0 0 -1 I I #
edge $-1 $264 -34.610620806957208 $268 34.610620806957208 $262 $312 forward 7 unknown #
straight-curve $-1 0 -34.610620806957208 -11.306467093167861 -1 0 0 I I #
vertex $-1 $194 $313 #
straight-curve $-1 0 34.610620806957208 -11.306467093167861 1 0 0 I I #
point $-1 79.078341013824883 34.610620806957208 -11.306467093167861 #
point $-1 79.078341013824883 -34.610620806957208 -11.306467093167861 #
straight-curve $-1 -79.078341013824883 0 11.306467093167861 0 -1 0 I I #
point $-1 -79.078341013824883 34.610620806957208 11.306467093167861 #
point $-1 -79.078341013824883 -34.610620806957208 11.306467093167861 #
straight-curve $-1 79.078341013824883 -34.610620806957208 0 0 0 -1 I I #
straight-curve $-1 79.078341013824883 34.610620806957208 0 0 0 -1 I I #
plane-surface $-1 79.078341013824883 0 0 -1 0 0 0 0 1 forward_v I I I I #
coedge $-1 $215 $214 $225 $289 reversed $84 $-1 #
coedge $-1 $314 $218 $215 $280 forward $212 $-1 #
edge $-1 $281 20.809512370828685 $315 34.610620806957208 $215 $316 forward 7 unknown #
vertex $-1 $280 $317 #
straight-curve $-1 -79.078341013824883 -20.809512370828685 4.9032335465839303 0 0 -1 I I #
coedge $-1 $218 $314 $220 $285 forward $212 $-1 #
straight-curve $-1 0 -20.809512370828685 11.306467093167861 -1 0 0 I I #
edge $-1 $292 -34.610620806957208 $221 -20.809512370828685 $220 $318 forward 7 unknown #
point $-1 79.078341013824883 -20.809512370828685 11.306467093167861 #
straight-curve $-1 -79.078341013824883 -13.855033294446473 8.3064670931678606 0 -1 0 I I #
coedge $-1 $225 $224 $314 $319 reversed $140 $-1 #
edge $-1 $315 -11.306467093167861 $226 -8.3064670931678606 $278 $320 forward 7 unknown #
point $-1 -79.078341013824883 -34.610620806957208 8.3064670931678606 #
point $-1 -79.078341013824883 -20.809512370828685 8.3064670931678606 #
vertex $-1 $285 $321 #
straight-curve $-1 79.078341013824883 -34.610620806957208 0 0 0 -1 I I #
coedge $-1 $242 $241 $234 $295 forward $157 $-1 #
edge $-1 $302 -34.610620806957208 $297 -30.37987229681481 $234 $322 forward 7 unknown #
edge $-1 $302 -11.306467093167861 $239 -8.1183693551042477 $238 $323 forward 7 unknown #
vertex $-1 $236 $324 #
straight-curve $-1 -79.078341013824883 -2.1173304548912313 35.7948663297894 0 -0.79863550430605224 0.6018150307709319 I I #
edge $-1 $297 -45.636145110027662 $243 -21.248246697566778 $242 $325 forward 7 unknown #
point $-1 -79.078341013824883 34.610620806957208 8.1183693551042477 #
point $-1 -54.690442601363998 30.37987229681481 11.306467093167861 #
vertex $-1 $246 $326 #
straight-curve $-1 0 34.610620806957208 11.306467093167861 -1 0 0 I I #
vertex $-1 $249 $327 #
point $-1 -73.7007613313327 31.503060795338524 8.3957432799583938 #
vertex $-1 $253 $328 #
point $-1 -66.38439180759444 31.503060795338524 8.3957432799583938 #
vertex $-1 $257 $329 #
point $-1 -59.068022283856173 31.503060795338524 8.3957432799583938 #
straight-curve $-1 -79.078341013824883 34.610620806957208 0 0 0 -1 I I #
point $-1 -79.078341013824883 -34.610620806957208 -11.306467093167861 #
straight-curve $-1 -79.078341013824883 0 -11.306467093167861 0 1 0 I I #
point $-1 -79.078341013824883 34.610620806957208 -11.306467093167861 #
coedge $-1 $283 $279 $288 $319 forward $212 $-1 #
vertex $-1 $280 $330 #
straight-curve $-1 -79.078341013824883 0 11.306467093167861 0 -1 0 I I #
point $-1 -79.078341013824883 -20.809512370828685 11.306467093167861 #
straight-curve $-1 79.078341013824883 0 11.306467093167861 0 1 0 I I #
edge $-1 $315 -79.078341013824883 $292 79.078341013824883 $288 $331 forward 7 unknown #
straight-curve $-1 -79.078341013824883 -34.610620806957208 0 0 0 -1 I I #
point $-1 79.078341013824883 -34.610620806957208 11.306467093167861 #
straight-curve $-1 -79.078341013824883 0 11.306467093167861 0 -1 0 I I #
straight-curve $-1 -79.078341013824883 34.610620806957208 0 0 0 -1 I I #
point $-1 -79.078341013824883 30.37987229681481 11.306467093167861 #
straight-curve $-1 -33.44219590379722 30.379872296814813 11.306467093167857 1 0 0 I I #
point $-1 -79.078341013824883 34.610620806957208 11.306467093167861 #
point $-1 -74.2007613313327 31.202153279953055 7.9964255278053669 #
point $-1 -66.88439180759444 31.202153279953055 7.9964255278053669 #
point $-1 -59.568022283856173 31.202153279953055 7.9964255278053669 #
point $-1 -79.078341013824883 -34.610620806957208 11.306467093167861 #
straight-curve $-1 0 -34.610620806957208 11.306467093167861 1 0 0 I I #
End-of-ACIS-data 