500 0 5 0           
7 Unknown 11 ACIS 5.0 NT 24 Fri Mar 26 20:42:46 1999 
-1 9.9999999999999995e-007 1e-010 
body $-1 $5 $-1 $6 #
body $-1 $7 $-1 $8 #
body $-1 $9 $-1 $10 #
body $-1 $11 $-1 $12 #
body $-1 $13 $-1 $14 #
lump $-1 $-1 $15 $0 #
transform $-1 1 0 0 0 1 0 0 0 1 63.919186986907562 26.928300818609213 7.8160858005196854 1 rotate no_reflect no_shear #
lump $-1 $-1 $16 $1 #
transform $-1 1 0 0 0 1 0 0 0 1 63.919186986907562 26.928300818609213 7.8160858005196854 1 rotate no_reflect no_shear #
lump $-1 $-1 $17 $2 #
transform $-1 1 0 0 0 1 0 0 0 1 63.919186986907562 26.928300818609213 7.8160858005196854 1 rotate no_reflect no_shear #
lump $-1 $-1 $18 $3 #
transform $-1 1 0 0 0 1 0 0 0 1 63.919186986907562 26.928300818609213 7.8160858005196854 1 rotate no_reflect no_shear #
lump $-1 $-1 $19 $4 #
transform $-1 1 0 0 0 1 0 0 0 1 63.919186986907562 26.928300818609213 7.8160858005196854 1 rotate no_reflect no_shear #
shell $-1 $-1 $-1 $20 $-1 $5 #
shell $-1 $-1 $-1 $21 $-1 $7 #
shell $-1 $-1 $-1 $22 $-1 $9 #
shell $-1 $-1 $-1 $23 $-1 $11 #
shell $-1 $-1 $-1 $24 $-1 $13 #
face $-1 $25 $26 $15 $-1 $27 forward single #
face $-1 $28 $29 $16 $-1 $30 forward single #
face $-1 $31 $32 $17 $-1 $33 forward single #
face $-1 $34 $35 $18 $-1 $36 reversed single #
face $-1 $37 $38 $19 $-1 $39 forward single #
face $-1 $40 $41 $15 $-1 $42 reversed single #
loop $-1 $-1 $43 $20 #
plane-surface $-1 0 0 7.8160858005196854 0 0 1 1 0 0 forward_v I I I I #
face $-1 $44 $45 $16 $-1 $46 reversed single #
loop $-1 $-1 $47 $21 #
plane-surface $-1 -63.919186986907562 0 0 1 0 0 0 0 -1 forward_v I I I I #
face $-1 $48 $49 $17 $-1 $50 reversed single #
loop $-1 $-1 $51 $22 #
plane-surface $-1 63.919186986907562 0 0 -1 0 0 0 0 1 forward_v I I I I #
face $-1 $52 $53 $18 $-1 $54 reversed single #
loop $-1 $-1 $55 $23 #
plane-surface $-1 -35.65122381928056 -115.73229840863895 95.143986845207394 -1 0 0 0 -0.69465837861970381 0.71933979245794832 forward_v I I I I #
face $-1 $56 $57 $19 $-1 $58 forward single #
loop $-1 $59 $60 $24 #
cone-surface $-1 -44.560090762742938 -23.703228926104053 4.6439019064318776 0 0.69465837861970381 -0.71933979245794832 1.5 0 0 1 I I 0 1 1.5 forward I I I I #
face $-1 $61 $62 $15 $-1 $63 reversed single #
loop $-1 $-1 $64 $25 #
plane-surface $-1 0 0 -7.8160858005196854 0 0 1 1 0 0 forward_v I I I I #
coedge $-1 $65 $66 $67 $68 forward $26 $-1 #
face $-1 $69 $70 $16 $-1 $71 reversed single #
loop $-1 $-1 $72 $28 #
plane-surface $-1 0 0 -7.8160858005196854 0 0 1 1 0 0 forward_v I I I I #
coedge $-1 $73 $74 $75 $76 forward $29 $-1 #
face $-1 $77 $78 $17 $-1 $79 reversed single #
loop $-1 $-1 $80 $31 #
plane-surface $-1 0 0 -7.8160858005196854 0 0 1 1 0 0 forward_v I I I I #
coedge $-1 $81 $82 $83 $84 forward $32 $-1 #
face $-1 $85 $86 $18 $-1 $87 reversed single #
loop $-1 $-1 $88 $34 #
plane-surface $-1 -44.560090762742938 -26.928300818609202 3.1847574427216472 0 -0.69465837861970381 0.71933979245794832 1 0 0 forward_v I I I I #
coedge $-1 $89 $90 $91 $92 reversed $35 $-1 #
face $-1 $-1 $93 $19 $-1 $94 forward single #
loop $-1 $95 $96 $37 #
cone-surface $-1 -44.560090762742938 -22.355103649001922 3.2478773468996227 0 0.69465837861970381 -0.71933979245794832 0.75 0 0 1 I I -0.70710678118654757 0.70710678118654757 0.75 forward I I I I #
loop $-1 $-1 $97 $24 #
coedge $-1 $60 $60 $98 $99 reversed $38 $-1 #
face $-1 $100 $101 $15 $-1 $102 reversed single #
loop $-1 $-1 $103 $40 #
plane-surface $-1 0 -26.928300818609213 0 0 1 0 0 0 1 forward_v I I I I #
coedge $-1 $104 $105 $106 $107 forward $41 $-1 #
coedge $-1 $108 $43 $109 $110 forward $26 $-1 #
coedge $-1 $43 $108 $111 $112 forward $26 $-1 #
coedge $-1 $113 $114 $43 $68 reversed $115 $-1 #
edge $-1 $116 -26.928300818609213 $117 26.928300818609213 $67 $118 forward 7 unknown #
face $-1 $119 $120 $16 $-1 $121 reversed single #
loop $-1 $-1 $122 $44 #
plane-surface $-1 -68.134778205424368 -14.296129217569842 0 0 1 0 0 0 1 forward_v I I I I #
coedge $-1 $123 $124 $74 $125 forward $45 $-1 #
coedge $-1 $126 $47 $127 $128 reversed $29 $-1 #
coedge $-1 $47 $126 $72 $125 reversed $29 $-1 #
coedge $-1 $129 $130 $47 $76 reversed $131 $-1 #
edge $-1 $132 -7.8160858005196854 $133 7.8160858005196854 $75 $134 forward 7 unknown #
face $-1 $135 $136 $17 $-1 $137 reversed single #
loop $-1 $-1 $83 $48 #
plane-surface $-1 68.134778205424368 -14.296129217569842 0 0 1 0 0 0 1 forward_v I I I I #
coedge $-1 $138 $139 $82 $140 forward $49 $-1 #
coedge $-1 $141 $51 $142 $143 reversed $32 $-1 #
coedge $-1 $51 $141 $80 $140 reversed $32 $-1 #
coedge $-1 $144 $145 $51 $84 reversed $78 $-1 #
edge $-1 $146 -7.8160858005196854 $147 7.8160858005196854 $83 $148 forward 7 unknown #
face $-1 $149 $150 $18 $-1 $151 forward single #
loop $-1 $-1 $152 $52 #
plane-surface $-1 -53.468957706205316 -115.73229840863895 95.143986845207394 1 0 0 0 0.69465837861970381 -0.71933979245794832 forward_v I I I I #
coedge $-1 $153 $154 $155 $156 reversed $53 $-1 #
coedge $-1 $90 $55 $157 $158 reversed $35 $-1 #
coedge $-1 $55 $89 $153 $159 reversed $35 $-1 #
coedge $-1 $155 $160 $55 $92 forward $150 $-1 #
edge $-1 $161 30.937848385710264 $162 35.733729184445892 $91 $163 forward 7 unknown #
loop $-1 $-1 $98 $56 #
plane-surface $-1 -44.560090762742938 -26.928300818609202 3.1847574427216472 0 -0.69465837861970381 0.71933979245794832 1 0 0 forward_v I I I I #
loop $-1 $-1 $164 $37 #
coedge $-1 $96 $96 $97 $165 reversed $57 $-1 #
coedge $-1 $97 $97 $96 $165 forward $59 $-1 #
coedge $-1 $98 $98 $60 $99 forward $93 $-1 #
edge $-1 $166 -9.9801276771573405e-016 $166 6.2831853071795996 $98 $167 forward 7 unknown #
face $-1 $168 $169 $15 $-1 $170 reversed single #
loop $-1 $-1 $171 $61 #
plane-surface $-1 -63.919186986907562 0 0 1 0 0 0 0 -1 forward_v I I I I #
coedge $-1 $172 $111 $173 $174 forward $62 $-1 #
coedge $-1 $175 $64 $172 $176 forward $41 $-1 #
coedge $-1 $64 $175 $177 $178 forward $41 $-1 #
coedge $-1 $114 $113 $64 $107 reversed $115 $-1 #
edge $-1 $179 -26.928300818609213 $180 26.928300818609213 $106 $181 forward 7 unknown #
coedge $-1 $66 $65 $182 $183 forward $26 $-1 #
coedge $-1 $184 $185 $65 $110 reversed $169 $-1 #
edge $-1 $117 -63.919186986907562 $186 63.919186986907562 $109 $187 forward 7 unknown #
coedge $-1 $103 $188 $66 $112 reversed $62 $-1 #
edge $-1 $189 -63.919186986907562 $116 63.919186986907562 $111 $190 forward 7 unknown #
coedge $-1 $106 $67 $188 $191 forward $115 $-1 #
coedge $-1 $67 $106 $184 $192 reversed $115 $-1 #
loop $-1 $-1 $113 $168 #
vertex $-1 $68 $193 #
vertex $-1 $68 $194 #
straight-curve $-1 63.919186986907562 0 7.8160858005196854 0 1 0 I I #
face $-1 $195 $131 $16 $-1 $196 reversed single #
loop $-1 $-1 $197 $69 #
plane-surface $-1 -72.350369423941174 -12.796129217569842 0 1 0 0 0 0 -1 forward_v I I I I #
coedge $-1 $198 $199 $200 $201 forward $70 $-1 #
coedge $-1 $202 $72 $198 $203 forward $45 $-1 #
coedge $-1 $72 $202 $129 $204 forward $45 $-1 #
edge $-1 $132 11.296129217569842 $205 14.296129217569842 $72 $206 forward 7 unknown #
coedge $-1 $74 $73 $207 $208 forward $29 $-1 #
coedge $-1 $209 $210 $73 $128 forward $211 $-1 #
edge $-1 $212 -14.296129217569842 $133 -11.296129217569842 $127 $213 forward 7 unknown #
coedge $-1 $214 $75 $124 $204 reversed $131 $-1 #
coedge $-1 $75 $214 $209 $215 reversed $131 $-1 #
loop $-1 $-1 $75 $119 #
vertex $-1 $125 $216 #
vertex $-1 $215 $217 #
straight-curve $-1 -63.919186986907562 -11.296129217569842 0 0 0 1 I I #
face $-1 $218 $219 $17 $-1 $220 reversed single #
loop $-1 $-1 $221 $77 #
plane-surface $-1 68.134778205424368 -11.296129217569842 0 0 -1 0 0 0 -1 forward_v I I I I #
coedge $-1 $222 $80 $223 $224 forward $49 $-1 #
coedge $-1 $80 $222 $144 $225 forward $49 $-1 #
edge $-1 $146 -14.296129217569842 $226 -11.296129217569842 $80 $227 forward 7 unknown #
coedge $-1 $82 $81 $228 $229 forward $32 $-1 #
coedge $-1 $230 $231 $81 $143 forward $232 $-1 #
edge $-1 $233 11.296129217569842 $147 14.296129217569842 $142 $234 forward 7 unknown #
coedge $-1 $235 $83 $139 $225 reversed $78 $-1 #
coedge $-1 $83 $235 $230 $236 reversed $78 $-1 #
vertex $-1 $140 $237 #
vertex $-1 $236 $238 #
straight-curve $-1 63.919186986907562 -14.296129217569842 0 0 0 1 I I #
face $-1 $-1 $239 $18 $-1 $240 reversed single #
loop $-1 $-1 $91 $85 #
plane-surface $-1 0 0 7.8160858005196854 0 0 1 1 0 0 forward_v I I I I #
coedge $-1 $241 $242 $243 $244 reversed $86 $-1 #
coedge $-1 $245 $88 $90 $159 forward $53 $-1 #
coedge $-1 $88 $245 $241 $246 forward $53 $-1 #
coedge $-1 $243 $91 $88 $156 forward $150 $-1 #
edge $-1 $162 13.371178437909091 $247 31.188912324833847 $155 $248 forward 7 unknown #
coedge $-1 $249 $250 $89 $158 forward $239 $-1 #
edge $-1 $251 -44.387235979882057 $161 -39.75590762208401 $157 $252 forward 7 unknown #
edge $-1 $162 -6.667058946298976 $251 1.4762101642082446e-014 $90 $253 forward 7 unknown #
coedge $-1 $91 $243 $249 $254 forward $150 $-1 #
vertex $-1 $92 $255 #
vertex $-1 $92 $256 #
straight-curve $-1 -35.65122381928056 -57.866149204319477 7.8160858005196872 0 1 0 I I #
coedge $-1 $164 $164 $-1 $257 reversed $95 $-1 #
edge $-1 $258 0 $258 6.2831853071796004 $96 $259 forward 7 unknown #
vertex $-1 $99 $260 #
ellipse-curve $-1 -44.560090762742938 -24.530360419241401 5.5004216216206618 0 -0.69465837861970381 0.71933979245794832 1.5 0 0 1 I I #
face $-1 $-1 $115 $15 $-1 $261 reversed single #
loop $-1 $-1 $184 $100 #
plane-surface $-1 0 26.928300818609213 0 0 -1 0 0 0 -1 forward_v I I I I #
coedge $-1 $262 $182 $185 $263 forward $101 $-1 #
coedge $-1 $188 $103 $104 $176 reversed $62 $-1 #
coedge $-1 $182 $262 $103 $174 reversed $101 $-1 #
edge $-1 $189 -7.8160858005196854 $264 7.8160858005196854 $173 $265 forward 7 unknown #
coedge $-1 $105 $104 $262 $266 forward $41 $-1 #
edge $-1 $180 -63.919186986907562 $264 63.919186986907562 $172 $267 forward 7 unknown #
coedge $-1 $185 $184 $105 $178 reversed $169 $-1 #
edge $-1 $268 -63.919186986907562 $179 63.919186986907562 $177 $269 forward 7 unknown #
vertex $-1 $107 $270 #
vertex $-1 $191 $271 #
straight-curve $-1 63.919186986907562 0 -7.8160858005196854 0 -1 0 I I #
coedge $-1 $171 $173 $108 $183 reversed $101 $-1 #
edge $-1 $186 -26.928300818609213 $189 26.928300818609213 $182 $272 forward 7 unknown #
coedge $-1 $177 $109 $114 $192 forward $169 $-1 #
coedge $-1 $109 $177 $171 $263 reversed $169 $-1 #
vertex $-1 $110 $273 #
straight-curve $-1 0 26.928300818609213 7.8160858005196854 -1 0 0 I I #
coedge $-1 $111 $172 $113 $191 reversed $62 $-1 #
vertex $-1 $183 $274 #
straight-curve $-1 0 -26.928300818609213 7.8160858005196854 1 0 0 I I #
edge $-1 $116 -7.8160858005196854 $180 7.8160858005196854 $113 $275 forward 7 unknown #
edge $-1 $117 -7.8160858005196854 $179 7.8160858005196854 $114 $276 forward 7 unknown #
point $-1 63.919186986907562 -26.928300818609213 7.8160858005196854 #
point $-1 63.919186986907562 26.928300818609213 7.8160858005196854 #
face $-1 $-1 $211 $16 $-1 $277 forward single #
plane-surface $-1 -68.134778205424368 -11.296129217569842 0 0 -1 0 0 0 -1 forward_v I I I I #
coedge $-1 $278 $279 $214 $280 forward $120 $-1 #
coedge $-1 $207 $122 $123 $203 reversed $70 $-1 #
coedge $-1 $122 $207 $210 $281 reversed $70 $-1 #
coedge $-1 $279 $278 $122 $201 reversed $120 $-1 #
edge $-1 $282 -7.8160858005196854 $283 7.8160858005196854 $200 $284 forward 7 unknown #
coedge $-1 $124 $123 $278 $285 forward $45 $-1 #
edge $-1 $205 -4.2155912185168063 $283 4.2155912185168063 $198 $286 forward 7 unknown #
edge $-1 $287 -4.2155912185168063 $132 4.2155912185168063 $129 $288 forward 7 unknown #
vertex $-1 $203 $289 #
straight-curve $-1 -63.919186986907562 0 -7.8160858005196854 0 -1 0 I I #
coedge $-1 $199 $198 $126 $208 reversed $70 $-1 #
edge $-1 $212 -7.8160858005196854 $205 7.8160858005196854 $207 $290 forward 7 unknown #
coedge $-1 $291 $127 $130 $215 forward $211 $-1 #
coedge $-1 $127 $291 $199 $281 forward $211 $-1 #
loop $-1 $-1 $127 $195 #
vertex $-1 $128 $292 #
straight-curve $-1 -63.919186986907562 0 7.8160858005196854 0 1 0 I I #
coedge $-1 $130 $129 $197 $280 reversed $131 $-1 #
edge $-1 $133 -4.2155912185168063 $293 4.2155912185168063 $130 $294 forward 7 unknown #
point $-1 -63.919186986907562 -11.296129217569842 -7.8160858005196854 #
point $-1 -63.919186986907562 -11.296129217569842 7.8160858005196854 #
face $-1 $-1 $232 $17 $-1 $295 forward single #
loop $-1 $-1 $296 $135 #
plane-surface $-1 72.350369423941174 -12.796129217569842 0 -1 0 0 0 0 1 forward_v I I I I #
coedge $-1 $223 $297 $298 $299 forward $136 $-1 #
coedge $-1 $139 $138 $300 $301 forward $49 $-1 #
coedge $-1 $228 $221 $138 $224 reversed $136 $-1 #
edge $-1 $226 -4.2155912185168063 $302 4.2155912185168063 $223 $303 forward 7 unknown #
edge $-1 $304 -4.2155912185168063 $146 4.2155912185168063 $144 $305 forward 7 unknown #
vertex $-1 $224 $306 #
straight-curve $-1 63.919186986907562 0 -7.8160858005196854 0 1 0 I I #
coedge $-1 $297 $223 $141 $229 reversed $136 $-1 #
edge $-1 $233 -7.8160858005196854 $226 7.8160858005196854 $228 $307 forward 7 unknown #
coedge $-1 $308 $142 $145 $236 forward $232 $-1 #
coedge $-1 $142 $308 $297 $309 forward $232 $-1 #
loop $-1 $-1 $142 $218 #
vertex $-1 $143 $310 #
straight-curve $-1 63.919186986907562 0 7.8160858005196854 0 -1 0 I I #
coedge $-1 $145 $144 $296 $311 reversed $78 $-1 #
edge $-1 $147 -4.2155912185168063 $312 4.2155912185168063 $145 $313 forward 7 unknown #
point $-1 63.919186986907562 -14.296129217569842 -7.8160858005196854 #
point $-1 63.919186986907562 -14.296129217569842 7.8160858005196854 #
loop $-1 $-1 $157 $149 #
plane-surface $-1 0 -26.928300818609213 0 0 1 0 0 0 1 forward_v I I I I #
coedge $-1 $242 $152 $154 $246 reversed $86 $-1 #
coedge $-1 $152 $241 $314 $315 reversed $86 $-1 #
coedge $-1 $160 $155 $152 $244 forward $150 $-1 #
edge $-1 $247 -35.733729184445892 $316 -30.937848385710264 $243 $317 forward 7 unknown #
coedge $-1 $154 $153 $250 $318 reversed $53 $-1 #
edge $-1 $319 -1.4762101642082446e-014 $247 6.667058946298976 $241 $320 forward 7 unknown #
vertex $-1 $156 $321 #
straight-curve $-1 -22.280045381371469 -22.132420019873585 7.8160858005196854 -1 0 0 I I #
coedge $-1 $314 $157 $160 $254 reversed $239 $-1 #
coedge $-1 $157 $314 $245 $318 forward $239 $-1 #
vertex $-1 $158 $322 #
straight-curve $-1 -35.65122381928056 -26.928300818609216 47.571993422603697 0 0 1 I I #
straight-curve $-1 -35.65122381928056 -26.928300818609202 3.1847574427216472 0 -0.71933979245794832 -0.69465837861970381 I I #
edge $-1 $316 -53.468957706205316 $161 -35.65122381928056 $249 $323 forward 7 unknown #
point $-1 -35.65122381928056 -26.928300818609213 7.8160858005196854 #
point $-1 -35.65122381928056 -22.132420019873589 7.8160858005196854 #
edge $-1 $324 1 $324 0 $164 $-1 forward 7 unknown #
vertex $-1 $165 $325 #
ellipse-curve $-1 -44.560090762742938 -22.876097432966699 3.7873821912430841 0 -0.69465837861970381 0.71933979245794832 1.5 0 0 1 I I #
point $-1 -43.060090762742938 -24.530360419241411 5.5004216216206707 #
plane-surface $-1 63.919186986907562 0 0 -1 0 0 0 0 1 forward_v I I I I #
coedge $-1 $173 $171 $175 $266 reversed $101 $-1 #
edge $-1 $186 -7.8160858005196854 $268 7.8160858005196854 $185 $326 forward 7 unknown #
vertex $-1 $266 $327 #
straight-curve $-1 -63.919186986907562 -26.928300818609213 0 0 0 -1 I I #
edge $-1 $264 -26.928300818609213 $268 26.928300818609213 $262 $328 forward 7 unknown #
straight-curve $-1 0 -26.928300818609213 -7.8160858005196854 -1 0 0 I I #
vertex $-1 $178 $329 #
straight-curve $-1 0 26.928300818609213 -7.8160858005196854 1 0 0 I I #
point $-1 63.919186986907562 26.928300818609213 -7.8160858005196854 #
point $-1 63.919186986907562 -26.928300818609213 -7.8160858005196854 #
straight-curve $-1 -63.919186986907562 0 7.8160858005196854 0 -1 0 I I #
point $-1 -63.919186986907562 26.928300818609213 7.8160858005196854 #
point $-1 -63.919186986907562 -26.928300818609213 7.8160858005196854 #
straight-curve $-1 63.919186986907562 -26.928300818609213 0 0 0 -1 I I #
straight-curve $-1 63.919186986907562 26.928300818609213 0 0 0 -1 I I #
plane-surface $-1 0 0 7.8160858005196854 0 0 1 1 0 0 forward_v I I I I #
coedge $-1 $200 $197 $202 $285 reversed $120 $-1 #
coedge $-1 $197 $200 $291 $330 reversed $120 $-1 #
edge $-1 $293 -7.8160858005196854 $287 7.8160858005196854 $214 $331 forward 7 unknown #
edge $-1 $282 -4.2155912185168063 $212 4.2155912185168063 $199 $332 forward 7 unknown #
vertex $-1 $330 $333 #
vertex $-1 $285 $334 #
straight-curve $-1 -72.350369423941174 -14.296129217569842 0 0 0 -1 I I #
edge $-1 $283 -1.5 $287 1.5 $278 $335 forward 7 unknown #
straight-curve $-1 -68.134778205424368 -14.296129217569842 -7.8160858005196854 -1 0 0 I I #
vertex $-1 $204 $336 #
straight-curve $-1 -68.134778205424368 -11.296129217569842 -7.8160858005196854 1 0 0 I I #
point $-1 -63.919186986907562 -14.296129217569842 -7.8160858005196854 #
straight-curve $-1 -63.919186986907562 -14.296129217569842 0 0 0 -1 I I #
coedge $-1 $210 $209 $279 $330 forward $211 $-1 #
point $-1 -63.919186986907562 -14.296129217569842 7.8160858005196854 #
vertex $-1 $215 $337 #
straight-curve $-1 -68.134778205424368 -11.296129217569842 7.8160858005196854 -1 0 0 I I #
plane-surface $-1 0 0 7.8160858005196854 0 0 1 1 0 0 forward_v I I I I #
coedge $-1 $300 $338 $235 $311 forward $219 $-1 #
coedge $-1 $221 $228 $231 $309 reversed $136 $-1 #
coedge $-1 $338 $300 $221 $299 reversed $219 $-1 #
edge $-1 $339 -7.8160858005196854 $302 7.8160858005196854 $298 $340 forward 7 unknown #
coedge $-1 $298 $296 $222 $301 reversed $219 $-1 #
edge $-1 $302 -1.5 $304 1.5 $300 $341 forward 7 unknown #
vertex $-1 $301 $342 #
straight-curve $-1 68.134778205424368 -11.296129217569842 -7.8160858005196854 1 0 0 I I #
vertex $-1 $311 $343 #
straight-curve $-1 68.134778205424368 -14.296129217569842 -7.8160858005196854 -1 0 0 I I #
point $-1 63.919186986907562 -11.296129217569842 -7.8160858005196854 #
straight-curve $-1 63.919186986907562 -11.296129217569842 0 0 0 -1 I I #
coedge $-1 $231 $230 $338 $344 forward $232 $-1 #
edge $-1 $339 -4.2155912185168063 $233 4.2155912185168063 $297 $345 forward 7 unknown #
point $-1 63.919186986907562 -11.296129217569842 7.8160858005196854 #
edge $-1 $312 -7.8160858005196854 $304 7.8160858005196854 $296 $346 forward 7 unknown #
vertex $-1 $344 $347 #
straight-curve $-1 68.134778205424368 -14.296129217569842 7.8160858005196854 1 0 0 I I #
coedge $-1 $250 $249 $242 $315 forward $239 $-1 #
edge $-1 $316 39.75590762208401 $319 44.387235979882057 $314 $348 forward 7 unknown #
vertex $-1 $254 $349 #
straight-curve $-1 -53.468957706205316 -57.866149204319477 7.8160858005196872 0 -1 0 I I #
edge $-1 $319 -31.188912324833847 $251 -13.371178437909091 $250 $350 forward 7 unknown #
vertex $-1 $318 $351 #
straight-curve $-1 -53.468957706205316 -26.928300818609202 3.1847574427216472 0 0.71933979245794832 0.69465837861970381 I I #
point $-1 -53.468957706205316 -22.132420019873589 7.8160858005196854 #
point $-1 -35.65122381928056 -26.928300818609213 3.184757442721637 #
straight-curve $-1 0 -26.928300818609213 7.8160858005196854 1 0 0 I I #
vertex $-1 $257 $352 #
point $-1 -43.060090762742938 -22.876097432966699 3.7873821912430841 #
straight-curve $-1 -63.919186986907562 26.928300818609213 0 0 0 -1 I I #
point $-1 -63.919186986907562 -26.928300818609213 -7.8160858005196854 #
straight-curve $-1 -63.919186986907562 0 -7.8160858005196854 0 1 0 I I #
point $-1 -63.919186986907562 26.928300818609213 -7.8160858005196854 #
edge $-1 $293 -1.5 $282 1.5 $279 $353 forward 7 unknown #
straight-curve $-1 -72.350369423941174 -11.296129217569842 0 0 0 -1 I I #
straight-curve $-1 -68.134778205424368 -14.296129217569842 7.8160858005196854 1 0 0 I I #
point $-1 -72.350369423941174 -14.296129217569842 7.8160858005196854 #
point $-1 -72.350369423941174 -14.296129217569842 -7.8160858005196854 #
straight-curve $-1 -72.350369423941174 -12.796129217569842 -7.8160858005196854 0 1 0 I I #
point $-1 -72.350369423941174 -11.296129217569842 -7.8160858005196854 #
point $-1 -72.350369423941174 -11.296129217569842 7.8160858005196854 #
coedge $-1 $296 $298 $308 $344 reversed $219 $-1 #
vertex $-1 $344 $354 #
straight-curve $-1 72.350369423941174 -11.296129217569842 0 0 0 -1 I I #
straight-curve $-1 72.350369423941174 -12.796129217569842 -7.8160858005196854 0 -1 0 I I #
point $-1 72.350369423941174 -11.296129217569842 -7.8160858005196854 #
point $-1 72.350369423941174 -14.296129217569842 -7.8160858005196854 #
edge $-1 $312 -1.5 $339 1.5 $338 $355 forward 7 unknown #
straight-curve $-1 68.134778205424368 -11.296129217569842 7.8160858005196854 -1 0 0 I I #
straight-curve $-1 72.350369423941174 -14.296129217569842 0 0 0 -1 I I #
point $-1 72.350369423941174 -14.296129217569842 7.8160858005196854 #
straight-curve $-1 -53.468957706205316 -26.928300818609216 47.571993422603697 0 0 -1 I I #
point $-1 -53.468957706205316 -26.928300818609213 7.8160858005196854 #
straight-curve $-1 -22.280045381371469 -26.928300818609213 3.184757442721637 1 0 0 I I #
point $-1 -53.468957706205316 -26.928300818609213 3.184757442721637 #
point $-1 -44.560090762742938 -21.834109865037146 2.7083725025561614 #
straight-curve $-1 -72.350369423941174 -12.796129217569842 7.8160858005196854 0 -1 0 I I #
point $-1 72.350369423941174 -11.296129217569842 7.8160858005196854 #
straight-curve $-1 72.350369423941174 -12.796129217569842 7.8160858005196854 0 1 0 I I #
End-of-ACIS-data 