500 0 9 0           
7 Unknown 11 ACIS 5.0 NT 24 Fri Mar 26 19:33:27 1999 
-1 9.9999999999999995e-007 1e-010 
body $-1 $9 $-1 $10 #
body $-1 $11 $-1 $12 #
body $-1 $13 $-1 $14 #
body $-1 $15 $-1 $16 #
body $-1 $17 $-1 $18 #
body $-1 $19 $-1 $20 #
body $-1 $21 $-1 $22 #
body $-1 $23 $-1 $24 #
body $-1 $25 $-1 $26 #
lump $-1 $-1 $27 $0 #
transform $-1 1 0 0 0 1 0 0 0 1 60.326548051393168 27.209267056841934 13.249643396068297 1 rotate no_reflect no_shear #
lump $-1 $-1 $28 $1 #
transform $-1 1 0 0 0 1 0 0 0 1 60.326548051393168 27.209267056841934 13.249643396068297 1 rotate no_reflect no_shear #
lump $-1 $-1 $29 $2 #
transform $-1 1 0 0 0 1 0 0 0 1 60.326548051393168 27.209267056841934 13.249643396068297 1 rotate no_reflect no_shear #
lump $-1 $-1 $30 $3 #
transform $-1 1 0 0 0 1 0 0 0 1 60.326548051393168 27.209267056841934 13.249643396068297 1 rotate no_reflect no_shear #
lump $-1 $-1 $31 $4 #
transform $-1 1 0 0 0 1 0 0 0 1 60.326548051393168 27.209267056841934 13.249643396068297 1 rotate no_reflect no_shear #
lump $-1 $-1 $32 $5 #
transform $-1 1 0 0 0 1 0 0 0 1 60.326548051393168 27.209267056841934 13.249643396068297 1 rotate no_reflect no_shear #
lump $-1 $-1 $33 $6 #
transform $-1 1 0 0 0 1 0 0 0 1 60.326548051393168 27.209267056841934 13.249643396068297 1 rotate no_reflect no_shear #
lump $-1 $-1 $34 $7 #
transform $-1 1 0 0 0 1 0 0 0 1 60.326548051393168 27.209267056841934 13.249643396068297 1 rotate no_reflect no_shear #
lump $-1 $-1 $35 $8 #
transform $-1 1 0 0 0 1 0 0 0 1 60.326548051393168 27.209267056841934 13.249643396068297 1 rotate no_reflect no_shear #
shell $-1 $-1 $-1 $36 $-1 $9 #
shell $-1 $-1 $-1 $37 $-1 $11 #
shell $-1 $-1 $-1 $38 $-1 $13 #
shell $-1 $-1 $-1 $39 $-1 $15 #
shell $-1 $-1 $-1 $40 $-1 $17 #
shell $-1 $-1 $-1 $41 $-1 $19 #
shell $-1 $-1 $-1 $42 $-1 $21 #
shell $-1 $-1 $-1 $43 $-1 $23 #
shell $-1 $-1 $-1 $44 $-1 $25 #
face $-1 $45 $46 $27 $-1 $47 forward single #
face $-1 $48 $49 $28 $-1 $50 forward single #
face $-1 $51 $52 $29 $-1 $53 reversed single #
face $-1 $54 $55 $30 $-1 $56 forward single #
face $-1 $57 $58 $31 $-1 $59 forward single #
face $-1 $60 $61 $32 $-1 $62 reversed single #
face $-1 $63 $64 $33 $-1 $65 forward single #
face $-1 $66 $67 $34 $-1 $68 forward single #
face $-1 $69 $70 $35 $-1 $71 forward single #
face $-1 $72 $73 $27 $-1 $74 reversed single #
loop $-1 $-1 $75 $36 #
plane-surface $-1 0 0 13.249643396068297 0 0 1 1 0 0 forward_v I I I I #
face $-1 $76 $77 $28 $-1 $78 reversed single #
loop $-1 $-1 $79 $37 #
plane-surface $-1 -52.366402326755903 0 -8.1234179500611496 0 0 1 1 0 0 forward_v I I I I #
face $-1 $80 $81 $29 $-1 $82 reversed single #
loop $-1 $-1 $83 $38 #
plane-surface $-1 20.636694519902179 -92.921653750802435 109.44934946463685 1 0 0 0 0.54463904215088732 -0.83867056331134215 forward_v I I I I #
face $-1 $84 $85 $30 $-1 $86 forward single #
loop $-1 $87 $88 $39 #
cone-surface $-1 28.95754824992212 -22.01739156291886 8.6749280034402556 0 0.54463904215088732 -0.83867056331134215 1.5 0 0 1 I I 0 1 1.5 forward I I I I #
face $-1 $89 $90 $31 $-1 $91 forward single #
loop $-1 $92 $93 $40 #
cone-surface $-1 41.438828844952035 -22.01739156291886 8.6749280034402556 0 0.54463904215088732 -0.83867056331134215 1.5 0 0 1 I I 0 1 1.5 forward I I I I #
face $-1 $94 $95 $32 $-1 $96 reversed single #
loop $-1 $-1 $97 $41 #
plane-surface $-1 -31.450708549731299 92.833262024918852 118.21743350600998 1 0 0 0 -0.80901700255871778 -0.5877852410284794 forward_v I I I I #
face $-1 $98 $99 $33 $-1 $100 forward single #
loop $-1 $101 $102 $42 #
cone-surface $-1 -26.57016688471365 21.908572578487995 7.0434873894394858 0 -0.80901700255871778 -0.5877852410284794 1.5 0 0 1 I I 0 1 1.5 forward I I I I #
face $-1 $103 $104 $34 $-1 $105 forward single #
loop $-1 $106 $107 $43 #
cone-surface $-1 -19.249354387187175 21.908572578487995 7.0434873894394858 0 -0.80901700255871778 -0.5877852410284794 1.5 0 0 1 I I 0 1 1.5 forward I I I I #
face $-1 $108 $109 $35 $-1 $110 forward single #
loop $-1 $111 $112 $44 #
cone-surface $-1 -11.9285418896607 21.908572578487995 7.0434873894394858 0 -0.80901700255871778 -0.5877852410284794 1.5 0 0 1 I I 0 1 1.5 forward I I I I #
face $-1 $113 $114 $27 $-1 $115 reversed single #
loop $-1 $-1 $116 $45 #
plane-surface $-1 0 0 -13.249643396068297 0 0 1 1 0 0 forward_v I I I I #
coedge $-1 $117 $118 $119 $120 forward $46 $-1 #
face $-1 $121 $122 $28 $-1 $123 reversed single #
loop $-1 $-1 $124 $48 #
plane-surface $-1 -44.406256602118638 0 -10.686530673064723 -1 0 0 0 0 1 forward_v I I I I #
coedge $-1 $125 $126 $127 $128 forward $49 $-1 #
face $-1 $129 $130 $29 $-1 $131 reversed single #
loop $-1 $-1 $132 $51 #
plane-surface $-1 35.198188547437091 -27.209267056841938 8.2611493908555502 0 -0.54463904215088732 0.83867056331134215 1 0 0 forward_v I I I I #
coedge $-1 $133 $134 $135 $136 reversed $52 $-1 #
face $-1 $-1 $137 $30 $-1 $138 forward single #
loop $-1 $139 $140 $54 #
cone-surface $-1 28.95754824992212 -20.25784028625112 5.9654566909350812 0 0.54463904215088732 -0.83867056331134215 0.75 0 0 1 I I -0.70710678118654757 0.70710678118654757 0.75 forward I I I I #
loop $-1 $-1 $141 $39 #
coedge $-1 $88 $88 $142 $143 reversed $55 $-1 #
face $-1 $-1 $144 $31 $-1 $145 forward single #
loop $-1 $146 $147 $57 #
cone-surface $-1 41.438828844952035 -20.25784028625112 5.9654566909350812 0 0.54463904215088732 -0.83867056331134215 0.75 0 0 1 I I -0.70710678118654757 0.70710678118654757 0.75 forward I I I I #
loop $-1 $-1 $148 $40 #
coedge $-1 $93 $93 $149 $150 reversed $58 $-1 #
face $-1 $151 $152 $32 $-1 $153 reversed single #
loop $-1 $-1 $154 $60 #
plane-surface $-1 -19.249354387187175 -4.7771441335862477 47.29932433240144 0 0.80901700255871778 0.5877852410284794 1 0 0 forward_v I I I I #
coedge $-1 $155 $156 $157 $158 reversed $61 $-1 #
face $-1 $-1 $159 $33 $-1 $160 forward single #
loop $-1 $161 $162 $63 #
cone-surface $-1 -26.57016688471365 19.625050672961091 5.3844116600186744 0 -0.80901700255871778 -0.5877852410284794 0.75 0 0 1 I I -0.70710678118654757 0.70710678118654757 0.75 forward I I I I #
loop $-1 $-1 $163 $42 #
coedge $-1 $102 $102 $164 $165 reversed $64 $-1 #
face $-1 $-1 $166 $34 $-1 $167 forward single #
loop $-1 $168 $169 $66 #
cone-surface $-1 -19.249354387187175 19.625050672961091 5.3844116600186744 0 -0.80901700255871778 -0.5877852410284794 0.75 0 0 1 I I -0.70710678118654757 0.70710678118654757 0.75 forward I I I I #
loop $-1 $-1 $170 $43 #
coedge $-1 $107 $107 $171 $172 reversed $67 $-1 #
face $-1 $-1 $173 $35 $-1 $174 forward single #
loop $-1 $175 $176 $69 #
cone-surface $-1 -11.9285418896607 19.625050672961091 5.3844116600186744 0 -0.80901700255871778 -0.5877852410284794 0.75 0 0 1 I I -0.70710678118654757 0.70710678118654757 0.75 forward I I I I #
loop $-1 $-1 $177 $44 #
coedge $-1 $112 $112 $178 $179 reversed $70 $-1 #
face $-1 $180 $181 $27 $-1 $182 reversed single #
loop $-1 $-1 $183 $72 #
plane-surface $-1 0 -27.209267056841934 0 0 1 0 0 0 1 forward_v I I I I #
coedge $-1 $184 $185 $186 $187 forward $73 $-1 #
coedge $-1 $188 $75 $189 $190 forward $46 $-1 #
coedge $-1 $75 $188 $191 $192 forward $46 $-1 #
coedge $-1 $193 $194 $75 $120 reversed $195 $-1 #
edge $-1 $196 -27.209267056841934 $197 27.209267056841934 $119 $198 forward 7 unknown #
face $-1 $199 $200 $28 $-1 $201 reversed single #
loop $-1 $-1 $202 $76 #
plane-surface $-1 0 0 -13.249643396068297 0 0 1 1 0 0 forward_v I I I I #
coedge $-1 $203 $127 $204 $205 reversed $77 $-1 #
coedge $-1 $206 $79 $207 $208 reversed $49 $-1 #
coedge $-1 $79 $206 $209 $210 reversed $49 $-1 #
coedge $-1 $124 $211 $79 $128 reversed $77 $-1 #
edge $-1 $212 -27.209267056841934 $213 27.209267056841934 $127 $214 forward 7 unknown #
face $-1 $215 $216 $29 $-1 $217 forward single #
loop $-1 $-1 $218 $80 #
plane-surface $-1 49.759682574972004 -92.921653750802435 109.44934946463685 -1 0 0 0 -0.54463904215088732 0.83867056331134215 forward_v I I I I #
coedge $-1 $219 $220 $221 $222 reversed $81 $-1 #
coedge $-1 $134 $83 $223 $224 reversed $52 $-1 #
coedge $-1 $83 $133 $219 $225 reversed $52 $-1 #
coedge $-1 $221 $226 $83 $136 forward $227 $-1 #
edge $-1 $228 41.475031336250126 $229 46.463525341462876 $135 $230 forward 7 unknown #
loop $-1 $-1 $142 $84 #
plane-surface $-1 35.198188547437091 -27.209267056841938 8.2611493908555502 0 -0.54463904215088732 0.83867056331134215 1 0 0 forward_v I I I I #
loop $-1 $-1 $231 $54 #
coedge $-1 $140 $140 $141 $232 reversed $85 $-1 #
coedge $-1 $141 $141 $140 $232 forward $87 $-1 #
coedge $-1 $142 $142 $88 $143 forward $137 $-1 #
edge $-1 $233 5.1424346464091278e-017 $233 6.2831853071796004 $142 $234 forward 7 unknown #
loop $-1 $-1 $149 $89 #
plane-surface $-1 35.198188547437091 -27.209267056841938 8.2611493908555502 0 -0.54463904215088732 0.83867056331134215 1 0 0 forward_v I I I I #
loop $-1 $-1 $235 $57 #
coedge $-1 $147 $147 $148 $236 reversed $90 $-1 #
coedge $-1 $148 $148 $147 $236 forward $92 $-1 #
coedge $-1 $149 $149 $93 $150 forward $144 $-1 #
edge $-1 $237 5.1424346464091278e-017 $237 6.2831853071796004 $149 $238 forward 7 unknown #
face $-1 $239 $240 $32 $-1 $241 reversed single #
loop $-1 $-1 $242 $94 #
plane-surface $-1 -7.0480002246430509 92.833262024918852 118.21743350600998 -1 0 0 0 0.80901700255871778 0.5877852410284794 forward_v I I I I #
coedge $-1 $243 $244 $245 $246 reversed $95 $-1 #
coedge $-1 $156 $97 $247 $248 reversed $61 $-1 #
coedge $-1 $97 $155 $243 $249 reversed $61 $-1 #
coedge $-1 $245 $250 $97 $158 forward $251 $-1 #
edge $-1 $252 19.207363955617492 $253 26.455234605109631 $157 $254 forward 7 unknown #
loop $-1 $-1 $164 $98 #
plane-surface $-1 -19.249354387187175 -4.7771441335862477 47.29932433240144 0 0.80901700255871778 0.5877852410284794 1 0 0 forward_v I I I I #
loop $-1 $-1 $255 $63 #
coedge $-1 $162 $162 $163 $256 reversed $99 $-1 #
coedge $-1 $163 $163 $162 $256 forward $101 $-1 #
coedge $-1 $164 $164 $102 $165 forward $159 $-1 #
edge $-1 $257 1.7979110008126439e-016 $257 6.2831853071796004 $164 $258 forward 7 unknown #
loop $-1 $-1 $171 $103 #
plane-surface $-1 -19.249354387187175 -4.7771441335862477 47.29932433240144 0 0.80901700255871778 0.5877852410284794 1 0 0 forward_v I I I I #
loop $-1 $-1 $259 $66 #
coedge $-1 $169 $169 $170 $260 reversed $104 $-1 #
coedge $-1 $170 $170 $169 $260 forward $106 $-1 #
coedge $-1 $171 $171 $107 $172 forward $166 $-1 #
edge $-1 $261 1.7979110008126439e-016 $261 6.2831853071796004 $171 $262 forward 7 unknown #
loop $-1 $-1 $178 $108 #
plane-surface $-1 -19.249354387187175 -4.7771441335862477 47.29932433240144 0 0.80901700255871778 0.5877852410284794 1 0 0 forward_v I I I I #
loop $-1 $-1 $263 $69 #
coedge $-1 $176 $176 $177 $264 reversed $109 $-1 #
coedge $-1 $177 $177 $176 $264 forward $111 $-1 #
coedge $-1 $178 $178 $112 $179 forward $173 $-1 #
edge $-1 $265 1.7979110008126439e-016 $265 6.2831853071796004 $178 $266 forward 7 unknown #
face $-1 $267 $268 $27 $-1 $269 reversed single #
loop $-1 $-1 $270 $113 #
plane-surface $-1 -60.326548051393168 0 0 1 0 0 0 0 -1 forward_v I I I I #
coedge $-1 $271 $191 $272 $273 forward $114 $-1 #
coedge $-1 $274 $116 $271 $275 forward $73 $-1 #
coedge $-1 $116 $274 $276 $277 forward $73 $-1 #
coedge $-1 $194 $193 $116 $187 reversed $195 $-1 #
edge $-1 $278 -27.209267056841934 $279 27.209267056841934 $186 $280 forward 7 unknown #
coedge $-1 $118 $117 $281 $282 forward $46 $-1 #
coedge $-1 $283 $284 $117 $190 reversed $268 $-1 #
edge $-1 $197 -60.326548051393168 $285 60.326548051393168 $189 $286 forward 7 unknown #
coedge $-1 $183 $287 $118 $192 reversed $114 $-1 #
edge $-1 $288 -60.326548051393168 $196 60.326548051393168 $191 $289 forward 7 unknown #
coedge $-1 $186 $119 $287 $290 forward $195 $-1 #
coedge $-1 $119 $186 $283 $291 reversed $195 $-1 #
loop $-1 $-1 $193 $267 #
vertex $-1 $120 $292 #
vertex $-1 $120 $293 #
straight-curve $-1 60.326548051393168 0 13.249643396068297 0 1 0 I I #
face $-1 $294 $295 $28 $-1 $296 reversed single #
loop $-1 $-1 $204 $121 #
plane-surface $-1 0 -27.209267056841934 0 0 1 0 0 0 1 forward_v I I I I #
coedge $-1 $297 $298 $203 $299 forward $122 $-1 #
coedge $-1 $211 $124 $202 $299 reversed $77 $-1 #
coedge $-1 $209 $300 $124 $205 forward $200 $-1 #
edge $-1 $301 -7.9063780595359354 $212 -2.780152613528788 $204 $302 forward 7 unknown #
coedge $-1 $126 $125 $303 $304 reversed $49 $-1 #
coedge $-1 $305 $306 $125 $208 forward $307 $-1 #
edge $-1 $308 -34.143346888015216 $213 -18.223055438740687 $207 $309 forward 7 unknown #
coedge $-1 $310 $204 $126 $210 forward $200 $-1 #
edge $-1 $212 18.223055438740687 $311 34.143346888015216 $209 $312 forward 7 unknown #
coedge $-1 $127 $203 $305 $313 reversed $77 $-1 #
vertex $-1 $210 $314 #
vertex $-1 $208 $315 #
straight-curve $-1 -44.406256602118638 0 -8.1234179500611496 0 1 0 I I #
face $-1 $-1 $227 $29 $-1 $316 reversed single #
loop $-1 $-1 $317 $129 #
plane-surface $-1 0 0 13.249643396068297 0 0 1 1 0 0 forward_v I I I I #
coedge $-1 $318 $319 $320 $321 reversed $130 $-1 #
coedge $-1 $322 $132 $134 $225 forward $81 $-1 #
coedge $-1 $132 $322 $318 $323 forward $81 $-1 #
coedge $-1 $320 $135 $132 $222 forward $227 $-1 #
edge $-1 $229 3.0376002461836329 $324 32.160588301253455 $221 $325 forward 7 unknown #
coedge $-1 $326 $327 $133 $224 forward $216 $-1 #
edge $-1 $328 -26.933166816296271 $228 -19.251559818559283 $223 $329 forward 7 unknown #
edge $-1 $229 3.9470296698126564e-015 $328 9.1592662647029446 $134 $330 forward 7 unknown #
coedge $-1 $135 $320 $326 $331 reversed $227 $-1 #
loop $-1 $-1 $320 $215 #
vertex $-1 $331 $332 #
vertex $-1 $136 $333 #
straight-curve $-1 20.636694519902179 -27.209267056841938 54.724674732318427 0 0 -1 I I #
coedge $-1 $231 $231 $-1 $334 reversed $139 $-1 #
edge $-1 $335 0 $335 6.2831853071796004 $140 $336 forward 7 unknown #
vertex $-1 $143 $337 #
ellipse-curve $-1 28.95754824992212 -23.368463557973438 10.755396393461927 0 -0.54463904215088732 0.83867056331134215 1.5 0 0 1 I I #
coedge $-1 $235 $235 $-1 $338 reversed $146 $-1 #
edge $-1 $339 0 $339 6.2831853071796004 $147 $340 forward 7 unknown #
vertex $-1 $150 $341 #
ellipse-curve $-1 41.438828844952035 -23.368463557973438 10.755396393461927 0 -0.54463904215088732 0.83867056331134215 1.5 0 0 1 I I #
face $-1 $-1 $251 $32 $-1 $342 forward single #
loop $-1 $-1 $343 $151 #
plane-surface $-1 0 27.209267056841934 0 0 -1 0 0 0 -1 forward_v I I I I #
coedge $-1 $344 $345 $346 $347 reversed $152 $-1 #
coedge $-1 $348 $154 $156 $249 forward $95 $-1 #
coedge $-1 $154 $348 $344 $349 forward $95 $-1 #
coedge $-1 $346 $157 $154 $246 forward $251 $-1 #
edge $-1 $253 -21.826031356137712 $350 2.5766769689505367 $245 $351 forward 7 unknown #
coedge $-1 $352 $353 $155 $248 forward $240 $-1 #
edge $-1 $354 -55.834911772895374 $252 -45.85907335693669 $247 $355 forward 7 unknown #
edge $-1 $253 42.08771982373986 $354 54.418534113683833 $156 $356 forward 7 unknown #
coedge $-1 $157 $346 $352 $357 forward $251 $-1 #
loop $-1 $-1 $346 $239 #
vertex $-1 $248 $358 #
vertex $-1 $158 $359 #
straight-curve $-1 -31.450708549731299 46.416631012459426 13.249643396068294 0 -1 0 I I #
coedge $-1 $255 $255 $-1 $360 reversed $161 $-1 #
edge $-1 $361 0 $361 6.2831853071796004 $162 $362 forward 7 unknown #
vertex $-1 $165 $363 #
ellipse-curve $-1 -26.57016688471365 23.585331732095874 8.261724188088948 0 0.80901700255871778 0.5877852410284794 1.5 0 0 1 I I #
coedge $-1 $259 $259 $-1 $364 reversed $168 $-1 #
edge $-1 $365 0 $365 6.2831853071796004 $169 $366 forward 7 unknown #
vertex $-1 $172 $367 #
ellipse-curve $-1 -19.249354387187175 23.585331732095874 8.261724188088948 0 0.80901700255871778 0.5877852410284794 1.5 0 0 1 I I #
coedge $-1 $263 $263 $-1 $368 reversed $175 $-1 #
edge $-1 $369 0 $369 6.2831853071796004 $176 $370 forward 7 unknown #
vertex $-1 $179 $371 #
ellipse-curve $-1 -11.9285418896607 23.585331732095874 8.261724188088948 0 0.80901700255871778 0.5877852410284794 1.5 0 0 1 I I #
face $-1 $-1 $195 $27 $-1 $372 reversed single #
loop $-1 $-1 $283 $180 #
plane-surface $-1 0 27.209267056841934 0 0 -1 0 0 0 -1 forward_v I I I I #
coedge $-1 $373 $281 $284 $374 forward $181 $-1 #
coedge $-1 $287 $183 $184 $275 reversed $114 $-1 #
coedge $-1 $281 $373 $183 $273 reversed $181 $-1 #
edge $-1 $288 -13.249643396068297 $375 13.249643396068297 $272 $376 forward 7 unknown #
coedge $-1 $185 $184 $373 $377 forward $73 $-1 #
edge $-1 $279 -60.326548051393168 $375 60.326548051393168 $271 $378 forward 7 unknown #
coedge $-1 $284 $283 $185 $277 reversed $268 $-1 #
edge $-1 $379 -60.326548051393168 $278 60.326548051393168 $276 $380 forward 7 unknown #
vertex $-1 $187 $381 #
vertex $-1 $290 $382 #
straight-curve $-1 60.326548051393168 0 -13.249643396068297 0 -1 0 I I #
coedge $-1 $270 $272 $188 $282 reversed $181 $-1 #
edge $-1 $285 -27.209267056841934 $288 27.209267056841934 $281 $383 forward 7 unknown #
coedge $-1 $276 $189 $194 $291 forward $268 $-1 #
coedge $-1 $189 $276 $270 $374 reversed $268 $-1 #
vertex $-1 $190 $384 #
straight-curve $-1 0 27.209267056841934 13.249643396068297 -1 0 0 I I #
coedge $-1 $191 $271 $193 $290 reversed $114 $-1 #
vertex $-1 $282 $385 #
straight-curve $-1 0 -27.209267056841934 13.249643396068297 1 0 0 I I #
edge $-1 $196 -13.249643396068297 $279 13.249643396068297 $193 $386 forward 7 unknown #
edge $-1 $197 -13.249643396068297 $278 13.249643396068297 $194 $387 forward 7 unknown #
point $-1 60.326548051393168 -27.209267056841934 13.249643396068297 #
point $-1 60.326548051393168 27.209267056841934 13.249643396068297 #
face $-1 $-1 $307 $28 $-1 $388 reversed single #
loop $-1 $-1 $303 $199 #
plane-surface $-1 -60.326548051393168 0 0 1 0 0 0 0 -1 forward_v I I I I #
coedge $-1 $389 $202 $300 $390 forward $122 $-1 #
coedge $-1 $202 $389 $391 $392 forward $122 $-1 #
edge $-1 $393 -27.209267056841934 $301 27.209267056841934 $202 $394 forward 7 unknown #
coedge $-1 $204 $310 $297 $390 reversed $200 $-1 #
vertex $-1 $390 $395 #
straight-curve $-1 -44.406256602118638 -27.209267056841934 -5.3432653365323617 0 0 1 I I #
coedge $-1 $396 $397 $206 $304 forward $295 $-1 #
edge $-1 $311 -27.209267056841934 $308 27.209267056841934 $303 $398 forward 7 unknown #
coedge $-1 $391 $207 $211 $313 forward $307 $-1 #
coedge $-1 $207 $391 $396 $399 reversed $307 $-1 #
loop $-1 $-1 $305 $294 #
vertex $-1 $399 $400 #
straight-curve $-1 -26.183201163377952 27.209267056841934 -8.1234179500611496 1 0 0 I I #
coedge $-1 $300 $209 $397 $401 forward $200 $-1 #
vertex $-1 $401 $402 #
straight-curve $-1 -26.183201163377952 -27.209267056841934 -8.1234179500611496 -1 0 0 I I #
edge $-1 $213 2.780152613528788 $393 7.9063780595359354 $305 $403 forward 7 unknown #
point $-1 -44.406256602118638 -27.209267056841934 -8.1234179500611496 #
point $-1 -44.406256602118638 27.209267056841934 -8.1234179500611496 #
plane-surface $-1 0 -27.209267056841934 0 0 1 0 0 0 1 forward_v I I I I #
coedge $-1 $327 $326 $319 $404 forward $216 $-1 #
coedge $-1 $319 $218 $220 $323 reversed $130 $-1 #
coedge $-1 $218 $318 $317 $404 reversed $130 $-1 #
coedge $-1 $226 $221 $218 $321 forward $227 $-1 #
edge $-1 $324 -46.463525341462876 $405 -41.475031336250126 $320 $406 forward 7 unknown #
coedge $-1 $220 $219 $327 $407 reversed $81 $-1 #
edge $-1 $408 -9.1592662647029446 $324 -3.9470296698126564e-015 $318 $409 forward 7 unknown #
vertex $-1 $222 $410 #
straight-curve $-1 17.599094273718546 -27.209267056841934 8.261149390855552 1 0 0 I I #
coedge $-1 $317 $223 $226 $331 forward $216 $-1 #
coedge $-1 $223 $317 $322 $407 forward $216 $-1 #
vertex $-1 $224 $411 #
straight-curve $-1 20.636694519902179 -46.460826875401217 13.249643396068294 0 -1 0 I I #
straight-curve $-1 20.636694519902179 -27.209267056841938 8.2611493908555502 0 0.83867056331134215 0.54463904215088732 I I #
edge $-1 $228 20.636694519902179 $405 49.759682574972004 $226 $412 forward 7 unknown #
point $-1 20.636694519902179 -27.209267056841934 13.249643396068297 #
point $-1 20.636694519902179 -27.209267056841934 8.261149390855552 #
edge $-1 $413 1 $413 0 $231 $-1 forward 7 unknown #
vertex $-1 $232 $414 #
ellipse-curve $-1 28.95754824992212 -20.666319567864285 6.5944596134185876 0 -0.54463904215088732 0.83867056331134215 1.5 0 0 1 I I #
point $-1 30.45754824992212 -23.368463557973435 10.755396393461922 #
edge $-1 $415 1 $415 0 $235 $-1 forward 7 unknown #
vertex $-1 $236 $416 #
ellipse-curve $-1 41.438828844952035 -20.666319567864285 6.5944596134185876 0 -0.54463904215088732 0.83867056331134215 1.5 0 0 1 I I #
point $-1 42.938828844952035 -23.368463557973435 10.755396393461922 #
plane-surface $-1 0 0 13.249643396068297 0 0 1 1 0 0 forward_v I I I I #
coedge $-1 $353 $352 $345 $417 forward $240 $-1 #
coedge $-1 $345 $242 $244 $349 reversed $152 $-1 #
coedge $-1 $242 $344 $343 $417 reversed $152 $-1 #
coedge $-1 $250 $245 $242 $347 forward $251 $-1 #
edge $-1 $350 -26.455234605109631 $418 -19.207363955617492 $346 $419 forward 7 unknown #
coedge $-1 $244 $243 $353 $420 reversed $95 $-1 #
edge $-1 $421 -54.418534113683833 $350 -42.08771982373986 $344 $422 forward 7 unknown #
vertex $-1 $246 $423 #
straight-curve $-1 -9.6246771935935875 19.961396407349795 13.249643396068301 1 0 0 I I #
coedge $-1 $343 $247 $250 $357 reversed $240 $-1 #
coedge $-1 $247 $343 $348 $420 forward $240 $-1 #
vertex $-1 $248 $424 #
straight-curve $-1 -31.450708549731299 27.209267056841938 59.108716753004991 0 0 1 I I #
straight-curve $-1 -31.450708549731299 -4.7771441335862477 47.29932433240144 0 0.5877852410284794 -0.80901700255871778 I I #
edge $-1 $418 7.0480002246430509 $252 31.450708549731299 $352 $425 forward 7 unknown #
point $-1 -31.450708549731299 27.209267056841934 13.249643396068297 #
point $-1 -31.450708549731299 19.961396407349795 13.249643396068294 #
edge $-1 $426 1 $426 0 $255 $-1 forward 7 unknown #
vertex $-1 $256 $427 #
ellipse-curve $-1 -26.57016688471365 20.23181342488013 5.8252505907900343 0 0.80901700255871778 0.5877852410284794 1.5 0 0 1 I I #
point $-1 -25.07016688471365 23.58533173209586 8.2617241880889374 #
edge $-1 $428 1 $428 0 $259 $-1 forward 7 unknown #
vertex $-1 $260 $429 #
ellipse-curve $-1 -19.249354387187175 20.23181342488013 5.8252505907900343 0 0.80901700255871778 0.5877852410284794 1.5 0 0 1 I I #
point $-1 -17.749354387187175 23.58533173209586 8.2617241880889374 #
edge $-1 $430 1 $430 0 $263 $-1 forward 7 unknown #
vertex $-1 $264 $431 #
ellipse-curve $-1 -11.9285418896607 20.23181342488013 5.8252505907900343 0 0.80901700255871778 0.5877852410284794 1.5 0 0 1 I I #
point $-1 -10.4285418896607 23.58533173209586 8.2617241880889374 #
plane-surface $-1 60.326548051393168 0 0 -1 0 0 0 0 1 forward_v I I I I #
coedge $-1 $272 $270 $274 $377 reversed $181 $-1 #
edge $-1 $285 -13.249643396068297 $379 13.249643396068297 $284 $432 forward 7 unknown #
vertex $-1 $377 $433 #
straight-curve $-1 -60.326548051393168 -27.209267056841934 0 0 0 -1 I I #
edge $-1 $375 -27.209267056841934 $379 27.209267056841934 $373 $434 forward 7 unknown #
straight-curve $-1 0 -27.209267056841934 -13.249643396068297 -1 0 0 I I #
vertex $-1 $277 $435 #
straight-curve $-1 0 27.209267056841934 -13.249643396068297 1 0 0 I I #
point $-1 60.326548051393168 27.209267056841934 -13.249643396068297 #
point $-1 60.326548051393168 -27.209267056841934 -13.249643396068297 #
straight-curve $-1 -60.326548051393168 0 13.249643396068297 0 -1 0 I I #
point $-1 -60.326548051393168 27.209267056841934 13.249643396068297 #
point $-1 -60.326548051393168 -27.209267056841934 13.249643396068297 #
straight-curve $-1 60.326548051393168 -27.209267056841934 0 0 0 -1 I I #
straight-curve $-1 60.326548051393168 27.209267056841934 0 0 0 -1 I I #
plane-surface $-1 0 27.209267056841934 0 0 -1 0 0 0 -1 forward_v I I I I #
coedge $-1 $298 $297 $436 $437 forward $122 $-1 #
edge $-1 $301 44.406256602118638 $438 60.326548051393168 $300 $439 forward 7 unknown #
coedge $-1 $306 $305 $298 $392 reversed $307 $-1 #
edge $-1 $440 -60.326548051393168 $393 -44.406256602118638 $391 $441 forward 7 unknown #
vertex $-1 $313 $442 #
straight-curve $-1 -44.406256602118638 0 -13.249643396068297 0 -1 0 I I #
point $-1 -44.406256602118638 -27.209267056841934 -13.249643396068297 #
coedge $-1 $436 $303 $306 $399 forward $295 $-1 #
coedge $-1 $303 $436 $310 $401 reversed $295 $-1 #
straight-curve $-1 -60.326548051393168 0 -8.1234179500611496 0 1 0 I I #
edge $-1 $308 8.1234179500611496 $440 13.249643396068297 $306 $443 forward 7 unknown #
point $-1 -60.326548051393168 27.209267056841934 -8.1234179500611496 #
edge $-1 $311 8.1234179500611496 $438 13.249643396068297 $397 $444 forward 7 unknown #
point $-1 -60.326548051393168 -27.209267056841934 -8.1234179500611496 #
straight-curve $-1 -44.406256602118638 27.209267056841934 -5.3432653365323617 0 0 -1 I I #
edge $-1 $405 19.251559818559283 $408 26.933166816296271 $317 $445 forward 7 unknown #
vertex $-1 $321 $446 #
straight-curve $-1 49.759682574972004 -27.209267056841938 54.724674732318427 0 0 1 I I #
edge $-1 $408 -32.160588301253455 $328 -3.0376002461836329 $327 $447 forward 7 unknown #
vertex $-1 $407 $448 #
straight-curve $-1 49.759682574972004 -27.209267056841938 8.2611493908555502 0 -0.83867056331134215 -0.54463904215088732 I I #
point $-1 49.759682574972004 -27.209267056841934 8.261149390855552 #
point $-1 20.636694519902179 -19.527660059104946 13.249643396068297 #
straight-curve $-1 0 -27.209267056841934 13.249643396068297 1 0 0 I I #
vertex $-1 $334 $449 #
point $-1 30.45754824992212 -20.666319567864285 6.5944596134185876 #
vertex $-1 $338 $450 #
point $-1 42.938828844952035 -20.666319567864285 6.5944596134185876 #
edge $-1 $418 45.85907335693669 $421 55.834911772895374 $343 $451 forward 7 unknown #
vertex $-1 $357 $452 #
straight-curve $-1 -7.0480002246430509 46.416631012459426 13.249643396068294 0 1 0 I I #
edge $-1 $421 -2.5766769689505367 $354 21.826031356137712 $353 $453 forward 7 unknown #
vertex $-1 $420 $454 #
straight-curve $-1 -7.0480002246430509 -4.7771441335862477 47.29932433240144 0 -0.5877852410284794 0.80901700255871778 I I #
point $-1 -7.0480002246430509 19.961396407349795 13.249643396068294 #
point $-1 -31.450708549731299 27.209267056841934 3.2738049801096167 #
straight-curve $-1 0 27.209267056841934 13.249643396068297 -1 0 0 I I #
vertex $-1 $360 $455 #
point $-1 -25.07016688471365 20.23181342488013 5.8252505907900343 #
vertex $-1 $364 $456 #
point $-1 -17.749354387187175 20.23181342488013 5.8252505907900343 #
vertex $-1 $368 $457 #
point $-1 -10.4285418896607 20.23181342488013 5.8252505907900343 #
straight-curve $-1 -60.326548051393168 27.209267056841934 0 0 0 -1 I I #
point $-1 -60.326548051393168 -27.209267056841934 -13.249643396068297 #
straight-curve $-1 -60.326548051393168 0 -13.249643396068297 0 1 0 I I #
point $-1 -60.326548051393168 27.209267056841934 -13.249643396068297 #
coedge $-1 $397 $396 $389 $437 reversed $295 $-1 #
edge $-1 $438 -27.209267056841934 $440 27.209267056841934 $436 $458 forward 7 unknown #
vertex $-1 $437 $459 #
straight-curve $-1 0 -27.209267056841934 -13.249643396068297 -1 0 0 I I #
vertex $-1 $392 $460 #
straight-curve $-1 0 27.209267056841934 -13.249643396068297 1 0 0 I I #
point $-1 -44.406256602118638 27.209267056841934 -13.249643396068297 #
straight-curve $-1 -60.326548051393168 27.209267056841934 0 0 0 -1 I I #
straight-curve $-1 -60.326548051393168 -27.209267056841934 0 0 0 -1 I I #
straight-curve $-1 49.759682574972004 -46.460826875401217 13.249643396068294 0 1 0 I I #
point $-1 49.759682574972004 -27.209267056841934 13.249643396068297 #
straight-curve $-1 17.599094273718546 -19.527660059104946 13.249643396068297 -1 0 0 I I #
point $-1 49.759682574972004 -19.527660059104946 13.249643396068297 #
point $-1 28.95754824992212 -19.849361004637956 5.3364537684515749 #
point $-1 41.438828844952035 -19.849361004637956 5.3364537684515749 #
straight-curve $-1 -7.0480002246430509 27.209267056841938 59.108716753004991 0 0 -1 I I #
point $-1 -7.0480002246430509 27.209267056841934 13.249643396068297 #
straight-curve $-1 -9.6246771935935875 27.209267056841938 3.2738049801096132 -1 0 0 I I #
point $-1 -7.0480002246430509 27.209267056841934 3.2738049801096167 #
point $-1 -26.57016688471365 19.018287921042052 4.9435727292473146 #
point $-1 -19.249354387187175 19.018287921042052 4.9435727292473146 #
point $-1 -11.9285418896607 19.018287921042052 4.9435727292473146 #
straight-curve $-1 -60.326548051393168 0 -13.249643396068297 0 1 0 I I #
point $-1 -60.326548051393168 -27.209267056841934 -13.249643396068297 #
point $-1 -60.326548051393168 27.209267056841934 -13.249643396068297 #
End-of-ACIS-data 