500 0 8 0           
7 Unknown 11 ACIS 5.0 NT 24 Thu Mar 25 18:45:05 1999 
-1 9.9999999999999995e-007 1e-010 
body $-1 $8 $-1 $9 #
body $-1 $10 $-1 $11 #
body $-1 $12 $-1 $13 #
body $-1 $14 $-1 $15 #
body $-1 $16 $-1 $17 #
body $-1 $18 $-1 $19 #
body $-1 $20 $-1 $21 #
body $-1 $22 $-1 $23 #
lump $-1 $-1 $24 $0 #
transform $-1 1 0 0 0 1 0 0 0 1 50.75594347972045 25.850415441185177 5.5149183367902159 1 rotate no_reflect no_shear #
lump $-1 $-1 $25 $1 #
transform $-1 1 0 0 0 1 0 0 0 1 50.75594347972045 25.850415441185177 5.5149183367902159 1 rotate no_reflect no_shear #
lump $-1 $-1 $26 $2 #
transform $-1 1 0 0 0 1 0 0 0 1 50.75594347972045 25.850415441185177 5.5149183367902159 1 rotate no_reflect no_shear #
lump $-1 $-1 $27 $3 #
transform $-1 1 0 0 0 1 0 0 0 1 50.75594347972045 25.850415441185177 5.5149183367902159 1 rotate no_reflect no_shear #
lump $-1 $-1 $28 $4 #
transform $-1 1 0 0 0 1 0 0 0 1 50.75594347972045 25.850415441185177 5.5149183367902159 1 rotate no_reflect no_shear #
lump $-1 $-1 $29 $5 #
transform $-1 1 0 0 0 1 0 0 0 1 50.75594347972045 25.850415441185177 5.5149183367902159 1 rotate no_reflect no_shear #
lump $-1 $-1 $30 $6 #
transform $-1 1 0 0 0 1 0 0 0 1 50.75594347972045 25.850415441185177 5.5149183367902159 1 rotate no_reflect no_shear #
lump $-1 $-1 $31 $7 #
transform $-1 1 0 0 0 1 0 0 0 1 50.75594347972045 25.850415441185177 5.5149183367902159 1 rotate no_reflect no_shear #
shell $-1 $-1 $-1 $32 $-1 $8 #
shell $-1 $-1 $-1 $33 $-1 $10 #
shell $-1 $-1 $-1 $34 $-1 $12 #
shell $-1 $-1 $-1 $35 $-1 $14 #
shell $-1 $-1 $-1 $36 $-1 $16 #
shell $-1 $-1 $-1 $37 $-1 $18 #
shell $-1 $-1 $-1 $38 $-1 $20 #
shell $-1 $-1 $-1 $39 $-1 $22 #
face $-1 $40 $41 $24 $-1 $42 forward single #
face $-1 $43 $44 $25 $-1 $45 reversed single #
face $-1 $46 $47 $26 $-1 $48 reversed single #
face $-1 $49 $50 $27 $-1 $51 forward single #
face $-1 $52 $53 $28 $-1 $54 forward single #
face $-1 $55 $56 $29 $-1 $57 reversed single #
face $-1 $58 $59 $30 $-1 $60 forward single #
face $-1 $61 $62 $31 $-1 $63 forward single #
face $-1 $64 $65 $24 $-1 $66 reversed single #
loop $-1 $-1 $67 $32 #
plane-surface $-1 0 0 5.5149183367902159 0 0 1 1 0 0 forward_v I I I I #
face $-1 $68 $69 $25 $-1 $70 reversed single #
loop $-1 $-1 $71 $33 #
plane-surface $-1 0 -23.669918018023594 2.5149183367902159 0 0 1 1 0 0 forward_v I I I I #
face $-1 $72 $73 $26 $-1 $74 reversed single #
loop $-1 $-1 $75 $34 #
plane-surface $-1 50.755945145376806 11.718670843963723 144.36944648323103 0 -1 0 -0.70710678939079041 0 -0.70710677298230451 forward_v I I I I #
face $-1 $76 $77 $27 $-1 $78 forward single #
loop $-1 $79 $80 $35 #
cone-surface $-1 47.325475167643447 5.7061660824038931 2.0844499951385349 -0.70710678939079041 0 -0.70710677298230451 0.70710677298230451 0 -0.70710678939079041 1 I I 0 1 1 forward I I I I #
face $-1 $81 $82 $28 $-1 $83 forward single #
loop $-1 $84 $85 $36 #
cone-surface $-1 47.325475167643447 9.3136689393397916 2.0844499951385349 -0.70710678939079041 0 -0.70710677298230451 0.70710677298230451 0 -0.70710678939079041 1 I I 0 1 1 forward I I I I #
face $-1 $86 $87 $29 $-1 $88 reversed single #
loop $-1 $-1 $89 $37 #
plane-surface $-1 -50.755943479720472 -18.208446145411685 0.72967707229422274 -0.84804810408105047 0 0.52991925155115449 0.52991925155115449 0 0.84804810408105047 forward_v I I I I #
face $-1 $90 $91 $30 $-1 $92 forward single #
loop $-1 $93 $94 $38 #
cone-surface $-1 -48.836844173593242 -19.614578052318969 2.8573380787666385 0.84804810408105047 0 -0.52991925155115449 0.26495962577557725 0 0.42402405204052523 1 I I 0 1 0.5 forward I I I I #
face $-1 $95 $96 $31 $-1 $97 forward single #
loop $-1 $98 $99 $39 #
cone-surface $-1 -48.836844173593242 -16.802314238504405 2.8573380787666385 0.84804810408105047 0 -0.52991925155115449 0.26495962577557725 0 0.42402405204052523 1 I I 0 1 0.5 forward I I I I #
face $-1 $100 $101 $24 $-1 $102 reversed single #
loop $-1 $-1 $103 $40 #
plane-surface $-1 0 0 -5.5149183367902159 0 0 1 1 0 0 forward_v I I I I #
coedge $-1 $104 $105 $106 $107 forward $41 $-1 #
face $-1 $108 $109 $25 $-1 $110 reversed single #
loop $-1 $-1 $111 $43 #
plane-surface $-1 0 -21.489420594862011 4.0149183367902159 0 -1 0 0 0 -1 forward_v I I I I #
coedge $-1 $112 $113 $114 $115 reversed $44 $-1 #
face $-1 $116 $117 $26 $-1 $118 reversed single #
loop $-1 $-1 $119 $46 #
plane-surface $-1 -21.02379932751429 7.5099175108718441 72.58970367599629 0.70710678939079041 0 0.70710677298230451 0.70710677298230451 0 -0.70710678939079041 forward_v I I I I #
coedge $-1 $120 $121 $122 $123 reversed $47 $-1 #
face $-1 $-1 $124 $27 $-1 $125 forward single #
loop $-1 $126 $127 $49 #
cone-surface $-1 45.893932973124059 5.7061660824038931 0.65290783383822859 -0.70710678939079041 0 -0.70710677298230451 0.35355338649115226 0 -0.35355339469539521 1 I I -0.70710678118654735 0.70710678118654768 0.5 forward I I I I #
loop $-1 $-1 $128 $35 #
coedge $-1 $80 $80 $129 $130 reversed $50 $-1 #
face $-1 $-1 $131 $28 $-1 $132 forward single #
loop $-1 $133 $134 $52 #
cone-surface $-1 45.893932973124059 9.3136689393397916 0.65290783383822859 -0.70710678939079041 0 -0.70710677298230451 0.35355338649115226 0 -0.35355339469539521 1 I I -0.70710678118654735 0.70710678118654768 0.5 forward I I I I #
loop $-1 $-1 $135 $36 #
coedge $-1 $85 $85 $136 $137 reversed $53 $-1 #
face $-1 $138 $139 $29 $-1 $140 forward single #
loop $-1 $-1 $141 $55 #
plane-surface $-1 -136.84290675736423 -14.927471695961357 54.522780233386541 0 -1 0 0.84804810408105047 0 -0.52991925155115449 forward_v I I I I #
coedge $-1 $142 $143 $144 $145 reversed $56 $-1 #
face $-1 $-1 $146 $30 $-1 $147 forward single #
loop $-1 $148 $149 $58 #
cone-surface $-1 -48.200808095532452 -19.614578052318969 2.4598986401032725 0.84804810408105047 0 -0.52991925155115449 0.13247981288778862 0 0.21201202602026262 1 I I -0.70710678118654746 0.70710678118654746 0.25 forward I I I I #
loop $-1 $-1 $150 $38 #
coedge $-1 $94 $94 $151 $152 reversed $59 $-1 #
face $-1 $-1 $153 $31 $-1 $154 forward single #
loop $-1 $155 $156 $61 #
cone-surface $-1 -48.200808095532452 -16.802314238504405 2.4598986401032725 0.84804810408105047 0 -0.52991925155115449 0.13247981288778862 0 0.21201202602026262 1 I I -0.70710678118654746 0.70710678118654746 0.25 forward I I I I #
loop $-1 $-1 $157 $39 #
coedge $-1 $99 $99 $158 $159 reversed $62 $-1 #
face $-1 $160 $161 $24 $-1 $162 reversed single #
loop $-1 $-1 $163 $64 #
plane-surface $-1 0 -25.850415441185177 0 0 1 0 0 0 1 forward_v I I I I #
coedge $-1 $164 $165 $166 $167 forward $65 $-1 #
coedge $-1 $168 $67 $169 $170 forward $41 $-1 #
coedge $-1 $67 $168 $171 $172 forward $41 $-1 #
coedge $-1 $173 $174 $67 $107 reversed $175 $-1 #
edge $-1 $176 -25.850415441185177 $177 25.850415441185177 $106 $178 forward 7 unknown #
face $-1 $179 $180 $25 $-1 $181 reversed single #
loop $-1 $-1 $182 $68 #
plane-surface $-1 -50.75594347972045 0 0 1 0 0 0 0 -1 forward_v I I I I #
coedge $-1 $183 $184 $185 $186 reversed $69 $-1 #
coedge $-1 $187 $71 $188 $189 reversed $44 $-1 #
coedge $-1 $71 $187 $183 $190 forward $44 $-1 #
coedge $-1 $185 $191 $71 $115 forward $192 $-1 #
edge $-1 $193 -14.01545643217338 $194 -9.6544615858502141 $114 $195 forward 7 unknown #
face $-1 $196 $197 $26 $-1 $198 reversed single #
loop $-1 $-1 $199 $72 #
plane-surface $-1 50.755945145376806 3.301164177779965 144.36944648323103 0 1 0 0.70710678939079041 0 0.70710677298230451 forward_v I I I I #
coedge $-1 $200 $201 $202 $203 reversed $73 $-1 #
coedge $-1 $121 $75 $204 $205 reversed $47 $-1 #
coedge $-1 $75 $120 $200 $206 reversed $47 $-1 #
coedge $-1 $202 $207 $75 $123 forward $208 $-1 #
edge $-1 $209 -25.377970907032047 $210 -20.673011882526065 $122 $211 forward 7 unknown #
loop $-1 $-1 $129 $76 #
plane-surface $-1 -21.02379932751429 7.5099175108718441 72.58970367599629 0.70710678939079041 0 0.70710677298230451 0.70710677298230451 0 -0.70710678939079041 forward_v I I I I #
loop $-1 $-1 $212 $49 #
coedge $-1 $127 $127 $128 $213 reversed $77 $-1 #
coedge $-1 $128 $128 $127 $213 forward $79 $-1 #
coedge $-1 $129 $129 $80 $130 forward $124 $-1 #
edge $-1 $214 0 $214 6.2831853071796004 $129 $215 forward 7 unknown #
loop $-1 $-1 $136 $81 #
plane-surface $-1 -21.02379932751429 7.5099175108718441 72.58970367599629 0.70710678939079041 0 0.70710677298230451 0.70710677298230451 0 -0.70710678939079041 forward_v I I I I #
loop $-1 $-1 $216 $52 #
coedge $-1 $134 $134 $135 $217 reversed $82 $-1 #
coedge $-1 $135 $135 $134 $217 forward $84 $-1 #
coedge $-1 $136 $136 $85 $137 forward $131 $-1 #
edge $-1 $218 0 $218 6.2831853071796004 $136 $219 forward 7 unknown #
face $-1 $220 $221 $29 $-1 $222 reversed single #
loop $-1 $-1 $144 $86 #
plane-surface $-1 0 0 5.5149183367902159 0 0 1 1 0 0 forward_v I I I I #
coedge $-1 $223 $224 $225 $226 reversed $87 $-1 #
coedge $-1 $227 $89 $228 $229 reversed $56 $-1 #
coedge $-1 $89 $227 $223 $230 forward $56 $-1 #
coedge $-1 $225 $231 $89 $145 forward $139 $-1 #
edge $-1 $232 -12.385197522156169 $233 -5.8232486232555143 $144 $234 forward 7 unknown #
loop $-1 $-1 $151 $90 #
plane-surface $-1 -50.755943479720472 -18.208446145411685 0.72967707229422274 -0.84804810408105047 0 0.52991925155115449 0.52991925155115449 0 0.84804810408105047 forward_v I I I I #
loop $-1 $-1 $235 $58 #
coedge $-1 $149 $149 $150 $236 reversed $91 $-1 #
coedge $-1 $150 $150 $149 $236 forward $93 $-1 #
coedge $-1 $151 $151 $94 $152 forward $146 $-1 #
edge $-1 $237 0 $237 6.2831853071796004 $151 $238 forward 7 unknown #
loop $-1 $-1 $158 $95 #
plane-surface $-1 -50.755943479720472 -18.208446145411685 0.72967707229422274 -0.84804810408105047 0 0.52991925155115449 0.52991925155115449 0 0.84804810408105047 forward_v I I I I #
loop $-1 $-1 $239 $61 #
coedge $-1 $156 $156 $157 $240 reversed $96 $-1 #
coedge $-1 $157 $157 $156 $240 forward $98 $-1 #
coedge $-1 $158 $158 $99 $159 forward $153 $-1 #
edge $-1 $241 0 $241 6.2831853071796004 $158 $242 forward 7 unknown #
face $-1 $243 $244 $24 $-1 $245 reversed single #
loop $-1 $-1 $246 $100 #
plane-surface $-1 -50.75594347972045 0 0 1 0 0 0 0 -1 forward_v I I I I #
coedge $-1 $247 $171 $248 $249 forward $101 $-1 #
coedge $-1 $250 $103 $247 $251 forward $65 $-1 #
coedge $-1 $103 $250 $252 $253 forward $65 $-1 #
coedge $-1 $174 $173 $103 $167 reversed $175 $-1 #
edge $-1 $254 -25.850415441185177 $255 25.850415441185177 $166 $256 forward 7 unknown #
coedge $-1 $105 $104 $257 $258 forward $41 $-1 #
coedge $-1 $259 $260 $104 $170 reversed $244 $-1 #
edge $-1 $177 -50.75594347972045 $261 50.75594347972045 $169 $262 forward 7 unknown #
coedge $-1 $163 $263 $105 $172 reversed $101 $-1 #
edge $-1 $264 -50.75594347972045 $176 50.75594347972045 $171 $265 forward 7 unknown #
coedge $-1 $166 $106 $263 $266 forward $175 $-1 #
coedge $-1 $106 $166 $259 $267 reversed $175 $-1 #
loop $-1 $-1 $173 $243 #
vertex $-1 $107 $268 #
vertex $-1 $107 $269 #
straight-curve $-1 50.75594347972045 0 5.5149183367902159 0 1 0 I I #
face $-1 $270 $271 $25 $-1 $272 forward single #
loop $-1 $-1 $188 $108 #
plane-surface $-1 0 -25.850415441185177 0 0 1 0 0 0 1 forward_v I I I I #
coedge $-1 $273 $274 $275 $276 forward $109 $-1 #
coedge $-1 $275 $111 $113 $190 reversed $69 $-1 #
coedge $-1 $111 $275 $277 $278 reversed $69 $-1 #
coedge $-1 $279 $114 $111 $186 forward $192 $-1 #
edge $-1 $194 0.50745916839510796 $280 3.507459168395108 $185 $281 forward 7 unknown #
coedge $-1 $113 $112 $273 $282 reversed $44 $-1 #
coedge $-1 $283 $284 $112 $189 forward $180 $-1 #
edge $-1 $285 -50.75594347972045 $193 50.75594347972045 $188 $286 forward 7 unknown #
edge $-1 $287 -50.75594347972045 $194 50.75594347972045 $183 $288 forward 7 unknown #
coedge $-1 $114 $279 $283 $289 forward $192 $-1 #
loop $-1 $-1 $185 $270 #
vertex $-1 $189 $290 #
vertex $-1 $115 $291 #
straight-curve $-1 50.75594347972045 -11.834959009011797 2.5149183367902159 0 1 0 I I #
face $-1 $-1 $208 $26 $-1 $292 forward single #
loop $-1 $-1 $293 $116 #
plane-surface $-1 50.75594347972045 0 0 -1 0 0 0 0 1 forward_v I I I I #
coedge $-1 $294 $295 $296 $297 reversed $117 $-1 #
coedge $-1 $298 $119 $121 $206 forward $73 $-1 #
coedge $-1 $119 $298 $294 $299 forward $73 $-1 #
coedge $-1 $296 $122 $119 $203 forward $208 $-1 #
edge $-1 $210 -7.9637120885278012 $300 0.4537945776559571 $202 $301 forward 7 unknown #
coedge $-1 $302 $303 $120 $205 forward $197 $-1 #
edge $-1 $304 -71.374764038510321 $209 -66.669804904825298 $204 $305 forward 7 unknown #
edge $-1 $210 94.858070019373642 $304 101.51188695944093 $121 $306 forward 7 unknown #
coedge $-1 $122 $296 $302 $307 forward $208 $-1 #
loop $-1 $-1 $296 $196 #
vertex $-1 $205 $308 #
vertex $-1 $123 $309 #
straight-curve $-1 25.377972572688403 11.718670843963723 5.5149183367902168 -1 0 0 I I #
coedge $-1 $212 $212 $-1 $310 reversed $126 $-1 #
edge $-1 $311 0 $311 6.2831853071796004 $127 $312 forward 7 unknown #
vertex $-1 $130 $313 #
ellipse-curve $-1 48.403463967467452 5.7061660824038931 3.1624387699476983 0.70710678939079041 0 0.70710677298230451 0.70710677298230451 0 -0.70710678939079041 1 I I #
coedge $-1 $216 $216 $-1 $314 reversed $133 $-1 #
edge $-1 $315 0 $315 6.2831853071796004 $134 $316 forward 7 unknown #
vertex $-1 $137 $317 #
ellipse-curve $-1 48.403463967467452 9.3136689393397916 3.1624387699476983 0.70710678939079041 0 0.70710677298230451 0.70710677298230451 0 -0.70710678939079041 1 I I #
face $-1 $-1 $318 $29 $-1 $319 forward single #
loop $-1 $-1 $320 $138 #
plane-surface $-1 -50.75594347972045 0 0 1 0 0 0 0 -1 forward_v I I I I #
coedge $-1 $224 $141 $143 $230 reversed $87 $-1 #
coedge $-1 $141 $223 $320 $321 reversed $87 $-1 #
coedge $-1 $322 $144 $141 $226 forward $139 $-1 #
edge $-1 $233 -20.655660407135016 $323 -17.665509898961666 $225 $324 forward 7 unknown #
coedge $-1 $143 $142 $325 $326 reversed $56 $-1 #
coedge $-1 $327 $328 $142 $229 forward $318 $-1 #
edge $-1 $329 -14.841297103175375 $232 -9.1986440019326423 $228 $330 forward 7 unknown #
edge $-1 $331 4.0200649947886212e-014 $233 5.6426531012427734 $223 $332 forward 7 unknown #
coedge $-1 $144 $322 $327 $333 forward $139 $-1 #
vertex $-1 $229 $334 #
vertex $-1 $145 $335 #
straight-curve $-1 -47.7657929715471 -9.1042230727058424 5.5149183367902168 0 1 0 I I #
coedge $-1 $235 $235 $-1 $336 reversed $148 $-1 #
edge $-1 $337 0 $337 6.2831853071796004 $149 $338 forward 7 unknown #
vertex $-1 $152 $339 #
ellipse-curve $-1 -49.260868225633786 -19.614578052318969 3.1222977045422251 -0.84804810408105047 0 0.52991925155115449 0.26495962577557725 0 0.42402405204052523 1 I I #
coedge $-1 $239 $239 $-1 $340 reversed $155 $-1 #
edge $-1 $341 0 $341 6.2831853071796004 $156 $342 forward 7 unknown #
vertex $-1 $159 $343 #
ellipse-curve $-1 -49.260868225633786 -16.802314238504405 3.1222977045422251 -0.84804810408105047 0 0.52991925155115449 0.26495962577557725 0 0.42402405204052523 1 I I #
face $-1 $-1 $175 $24 $-1 $344 reversed single #
loop $-1 $-1 $259 $160 #
plane-surface $-1 0 25.850415441185177 0 0 -1 0 0 0 -1 forward_v I I I I #
coedge $-1 $345 $257 $260 $346 forward $161 $-1 #
coedge $-1 $263 $163 $164 $251 reversed $101 $-1 #
coedge $-1 $257 $345 $163 $249 reversed $161 $-1 #
edge $-1 $264 -5.5149183367902159 $347 5.5149183367902159 $248 $348 forward 7 unknown #
coedge $-1 $165 $164 $345 $349 forward $65 $-1 #
edge $-1 $255 -50.75594347972045 $347 50.75594347972045 $247 $350 forward 7 unknown #
coedge $-1 $260 $259 $165 $253 reversed $244 $-1 #
edge $-1 $351 -50.75594347972045 $254 50.75594347972045 $252 $352 forward 7 unknown #
vertex $-1 $167 $353 #
vertex $-1 $266 $354 #
straight-curve $-1 50.75594347972045 0 -5.5149183367902159 0 -1 0 I I #
coedge $-1 $246 $248 $168 $258 reversed $161 $-1 #
edge $-1 $261 -25.850415441185177 $264 25.850415441185177 $257 $355 forward 7 unknown #
coedge $-1 $252 $169 $174 $267 forward $244 $-1 #
coedge $-1 $169 $252 $246 $346 reversed $244 $-1 #
vertex $-1 $170 $356 #
straight-curve $-1 0 25.850415441185177 5.5149183367902159 -1 0 0 I I #
coedge $-1 $171 $247 $173 $266 reversed $101 $-1 #
vertex $-1 $258 $357 #
straight-curve $-1 0 -25.850415441185177 5.5149183367902159 1 0 0 I I #
edge $-1 $176 -5.5149183367902159 $255 5.5149183367902159 $173 $358 forward 7 unknown #
edge $-1 $177 -5.5149183367902159 $254 5.5149183367902159 $174 $359 forward 7 unknown #
point $-1 50.75594347972045 -25.850415441185177 5.5149183367902159 #
point $-1 50.75594347972045 25.850415441185177 5.5149183367902159 #
face $-1 $-1 $192 $25 $-1 $360 reversed single #
loop $-1 $-1 $277 $179 #
plane-surface $-1 0 0 5.5149183367902159 0 0 1 1 0 0 forward_v I I I I #
coedge $-1 $361 $182 $187 $282 forward $109 $-1 #
coedge $-1 $182 $361 $362 $363 reversed $109 $-1 #
coedge $-1 $184 $183 $182 $276 reversed $69 $-1 #
edge $-1 $364 -3.507459168395108 $287 -0.50745916839510796 $182 $365 forward 7 unknown #
coedge $-1 $362 $366 $184 $278 forward $271 $-1 #
edge $-1 $280 -50.75594347972045 $364 50.75594347972045 $277 $367 forward 7 unknown #
coedge $-1 $191 $185 $366 $368 reversed $192 $-1 #
vertex $-1 $186 $369 #
straight-curve $-1 50.75594347972045 -21.489420594862011 2.007459168395108 0 0 1 I I #
edge $-1 $287 9.6544615858502141 $285 14.01545643217338 $273 $370 forward 7 unknown #
coedge $-1 $371 $188 $191 $289 reversed $180 $-1 #
coedge $-1 $188 $371 $361 $372 forward $180 $-1 #
vertex $-1 $189 $373 #
straight-curve $-1 0 -25.850415441185177 2.5149183367902159 1 0 0 I I #
vertex $-1 $282 $374 #
straight-curve $-1 0 -21.489420594862011 2.5149183367902159 1 0 0 I I #
edge $-1 $375 -5.5149183367902159 $193 -2.5149183367902159 $191 $376 forward 7 unknown #
point $-1 50.75594347972045 -25.850415441185177 2.5149183367902159 #
point $-1 50.75594347972045 -21.489420594862011 2.5149183367902159 #
plane-surface $-1 0 0 5.5149183367902159 0 0 1 1 0 0 forward_v I I I I #
coedge $-1 $303 $302 $295 $377 forward $197 $-1 #
coedge $-1 $295 $199 $201 $299 reversed $117 $-1 #
coedge $-1 $199 $294 $293 $377 reversed $117 $-1 #
coedge $-1 $207 $202 $199 $297 forward $208 $-1 #
edge $-1 $300 20.673011882526065 $378 25.377970907032047 $296 $379 forward 7 unknown #
coedge $-1 $201 $200 $303 $380 reversed $73 $-1 #
edge $-1 $381 -101.51188695944093 $300 -94.858070019373642 $294 $382 forward 7 unknown #
vertex $-1 $203 $383 #
straight-curve $-1 46.050984455214483 3.7549587554359221 5.5149183367902097 0 -1 0 I I #
coedge $-1 $293 $204 $207 $307 reversed $197 $-1 #
coedge $-1 $204 $293 $298 $380 forward $197 $-1 #
vertex $-1 $205 $384 #
straight-curve $-1 50.75594347972045 11.718670843963723 72.184723241615515 0 0 1 I I #
straight-curve $-1 -21.02379932751429 11.718670843963723 72.58970367599629 0.70710677298230451 0 -0.70710678939079041 I I #
edge $-1 $378 3.301164177779965 $209 11.718670843963723 $302 $385 forward 7 unknown #
point $-1 50.75594347972045 11.718670843963723 5.5149183367902159 #
point $-1 46.050984455214468 11.718670843963723 5.5149183367902168 #
edge $-1 $386 1 $386 0 $212 $-1 forward 7 unknown #
vertex $-1 $213 $387 #
ellipse-curve $-1 46.247486367819455 5.7061660824038931 1.006461220329381 0.70710678939079041 0 0.70710677298230451 0.70710677298230451 0 -0.70710678939079041 1 I I #
point $-1 49.110570740449752 5.7061660824038931 2.4553319805568985 #
edge $-1 $388 1 $388 0 $216 $-1 forward 7 unknown #
vertex $-1 $217 $389 #
ellipse-curve $-1 46.247486367819455 9.3136689393397916 1.006461220329381 0.70710678939079041 0 0.70710677298230451 0.70710677298230451 0 -0.70710678939079041 1 I I #
point $-1 49.110570740449752 9.3136689393397916 2.4553319805568985 #
loop $-1 $-1 $228 $220 #
plane-surface $-1 0 -21.489420594862011 4.0149183367902159 0 -1 0 0 0 -1 forward_v I I I I #
coedge $-1 $325 $390 $224 $321 forward $221 $-1 #
edge $-1 $323 21.746471779903054 $331 26.531713044399012 $320 $391 forward 7 unknown #
coedge $-1 $231 $225 $390 $392 forward $139 $-1 #
vertex $-1 $392 $393 #
straight-curve $-1 -68.421453378682116 -14.927471695961357 5.5149183367902168 -1 0 0 I I #
coedge $-1 $394 $320 $227 $326 forward $221 $-1 #
edge $-1 $331 5.8232486232555143 $329 12.385197522156169 $325 $395 forward 7 unknown #
coedge $-1 $328 $228 $231 $333 reversed $318 $-1 #
coedge $-1 $228 $327 $394 $396 reversed $318 $-1 #
vertex $-1 $396 $397 #
straight-curve $-1 -42.891254426757442 -21.489420594862011 13.315810942745722 0.52991925155115449 0 0.84804810408105047 I I #
vertex $-1 $326 $398 #
straight-curve $-1 -50.755943479720472 -14.927471695961357 0.72967707229422274 0.52991925155115449 0 0.84804810408105047 I I #
edge $-1 $399 -50.75594347972045 $232 -47.7657929715471 $231 $400 forward 7 unknown #
point $-1 -47.7657929715471 -21.489420594862011 5.5149183367902159 #
point $-1 -47.7657929715471 -14.927471695961357 5.5149183367902159 #
edge $-1 $401 1 $401 0 $235 $-1 forward 7 unknown #
vertex $-1 $236 $402 #
ellipse-curve $-1 -48.412820121552713 -19.614578052318969 2.5923784529910612 -0.84804810408105047 0 0.52991925155115449 0.26495962577557725 0 0.42402405204052523 1 I I #
point $-1 -48.99590859985819 -19.614578052318969 3.5463217565827412 #
edge $-1 $403 1 $403 0 $239 $-1 forward 7 unknown #
vertex $-1 $240 $404 #
ellipse-curve $-1 -48.412820121552713 -16.802314238504405 2.5923784529910612 -0.84804810408105047 0 0.52991925155115449 0.26495962577557725 0 0.42402405204052523 1 I I #
point $-1 -48.99590859985819 -16.802314238504405 3.5463217565827412 #
plane-surface $-1 50.75594347972045 0 0 -1 0 0 0 0 1 forward_v I I I I #
coedge $-1 $248 $246 $250 $349 reversed $161 $-1 #
edge $-1 $261 -5.5149183367902159 $351 5.5149183367902159 $260 $405 forward 7 unknown #
vertex $-1 $349 $406 #
straight-curve $-1 -50.75594347972045 -25.850415441185177 0 0 0 -1 I I #
edge $-1 $347 -25.850415441185177 $351 25.850415441185177 $345 $407 forward 7 unknown #
straight-curve $-1 0 -25.850415441185177 -5.5149183367902159 -1 0 0 I I #
vertex $-1 $253 $408 #
straight-curve $-1 0 25.850415441185177 -5.5149183367902159 1 0 0 I I #
point $-1 50.75594347972045 25.850415441185177 -5.5149183367902159 #
point $-1 50.75594347972045 -25.850415441185177 -5.5149183367902159 #
straight-curve $-1 -50.75594347972045 0 5.5149183367902159 0 -1 0 I I #
point $-1 -50.75594347972045 25.850415441185177 5.5149183367902159 #
point $-1 -50.75594347972045 -25.850415441185177 5.5149183367902159 #
straight-curve $-1 50.75594347972045 -25.850415441185177 0 0 0 -1 I I #
straight-curve $-1 50.75594347972045 25.850415441185177 0 0 0 -1 I I #
plane-surface $-1 50.75594347972045 0 0 -1 0 0 0 0 1 forward_v I I I I #
coedge $-1 $274 $273 $284 $372 reversed $109 $-1 #
coedge $-1 $409 $277 $274 $363 forward $271 $-1 #
edge $-1 $364 21.489420594862011 $410 25.850415441185177 $274 $411 forward 7 unknown #
vertex $-1 $363 $412 #
straight-curve $-1 -50.75594347972045 -21.489420594862011 2.007459168395108 0 0 -1 I I #
coedge $-1 $277 $409 $279 $368 forward $271 $-1 #
straight-curve $-1 0 -21.489420594862011 5.5149183367902159 -1 0 0 I I #
edge $-1 $375 -25.850415441185177 $280 -21.489420594862011 $279 $413 forward 7 unknown #
point $-1 50.75594347972045 -21.489420594862011 5.5149183367902159 #
straight-curve $-1 -50.75594347972045 -11.834959009011797 2.5149183367902159 0 -1 0 I I #
coedge $-1 $284 $283 $409 $414 reversed $180 $-1 #
edge $-1 $410 -5.5149183367902159 $285 -2.5149183367902159 $361 $415 forward 7 unknown #
point $-1 -50.75594347972045 -25.850415441185177 2.5149183367902159 #
point $-1 -50.75594347972045 -21.489420594862011 2.5149183367902159 #
vertex $-1 $368 $416 #
straight-curve $-1 50.75594347972045 -25.850415441185177 0 0 0 -1 I I #
edge $-1 $378 66.669804904825298 $381 71.374764038510321 $293 $417 forward 7 unknown #
vertex $-1 $307 $418 #
straight-curve $-1 25.377972572688403 3.301164177779965 5.5149183367902168 1 0 0 I I #
edge $-1 $381 -0.4537945776559571 $304 7.9637120885278012 $303 $419 forward 7 unknown #
vertex $-1 $380 $420 #
straight-curve $-1 -21.02379932751429 3.301164177779965 72.58970367599629 -0.70710677298230451 0 0.70710678939079041 I I #
point $-1 46.050984455214468 3.301164177779965 5.5149183367902168 #
point $-1 50.75594347972045 11.718670843963723 0.80995920310519409 #
straight-curve $-1 50.75594347972045 0 5.5149183367902159 0 1 0 I I #
vertex $-1 $310 $421 #
point $-1 46.954593140801762 5.7061660824038931 0.2993544309385906 #
vertex $-1 $314 $422 #
point $-1 46.954593140801762 9.3136689393397916 0.2993544309385906 #
coedge $-1 $320 $394 $322 $392 reversed $221 $-1 #
straight-curve $-1 -50.75594347972045 -14.927471695961357 27.261390116693271 0 0 -1 I I #
edge $-1 $323 14.927471695961357 $399 21.489420594862011 $390 $423 forward 7 unknown #
point $-1 -50.75594347972045 -14.927471695961357 5.5149183367902159 #
coedge $-1 $390 $325 $328 $396 forward $221 $-1 #
straight-curve $-1 -50.75594347972045 -9.1042230727058424 0.72967707229425316 0 -1 0 I I #
edge $-1 $329 -26.531713044399012 $399 -21.746471779903054 $394 $424 forward 7 unknown #
point $-1 -50.75594347972045 -21.489420594862011 0.72967707229425682 #
point $-1 -50.75594347972045 -14.927471695961357 0.72967707229425682 #
vertex $-1 $396 $425 #
straight-curve $-1 0 -21.489420594862011 5.5149183367902159 1 0 0 I I #
vertex $-1 $336 $426 #
point $-1 -48.147860495777138 -19.614578052318969 3.0164025050315866 #
vertex $-1 $340 $427 #
point $-1 -48.147860495777138 -16.802314238504405 3.0164025050315866 #
straight-curve $-1 -50.75594347972045 25.850415441185177 0 0 0 -1 I I #
point $-1 -50.75594347972045 -25.850415441185177 -5.5149183367902159 #
straight-curve $-1 -50.75594347972045 0 -5.5149183367902159 0 1 0 I I #
point $-1 -50.75594347972045 25.850415441185177 -5.5149183367902159 #
coedge $-1 $366 $362 $371 $414 forward $271 $-1 #
vertex $-1 $363 $428 #
straight-curve $-1 -50.75594347972045 0 5.5149183367902159 0 -1 0 I I #
point $-1 -50.75594347972045 -21.489420594862011 5.5149183367902159 #
straight-curve $-1 50.75594347972045 0 5.5149183367902159 0 1 0 I I #
edge $-1 $410 -50.75594347972045 $375 50.75594347972045 $371 $429 forward 7 unknown #
straight-curve $-1 -50.75594347972045 -25.850415441185177 0 0 0 -1 I I #
point $-1 50.75594347972045 -25.850415441185177 5.5149183367902159 #
straight-curve $-1 50.75594347972045 3.301164177779965 72.184723241615515 0 0 -1 I I #
point $-1 50.75594347972045 3.301164177779965 5.5149183367902159 #
straight-curve $-1 50.755943479720443 3.7549587554359221 0.80995920310519409 0 1 0 I I #
point $-1 50.75594347972045 3.301164177779965 0.80995920310519409 #
point $-1 45.540379578428663 5.7061660824038931 0.29935444734707617 #
point $-1 45.540379578428663 9.3136689393397916 0.29935444734707617 #
straight-curve $-1 -50.75594347972045 0 5.5149183367902159 0 -1 0 I I #
straight-curve $-1 -50.75594347972045 -21.489420594862011 27.261390116693271 0 0 1 I I #
point $-1 -50.75594347972045 -21.489420594862011 5.5149183367902159 #
point $-1 -47.98879606951219 -19.614578052318969 2.3274188272154839 #
point $-1 -47.98879606951219 -16.802314238504405 2.3274188272154839 #
point $-1 -50.75594347972045 -25.850415441185177 5.5149183367902159 #
straight-curve $-1 0 -25.850415441185177 5.5149183367902159 1 0 0 I I #
End-of-ACIS-data 