500 0 12 0           
7 Unknown 11 ACIS 5.0 NT 24 Fri Mar 26 15:27:44 1999 
-1 9.9999999999999995e-007 1e-010 
body $-1 $12 $-1 $13 #
body $-1 $14 $-1 $15 #
body $-1 $16 $-1 $17 #
body $-1 $18 $-1 $19 #
body $-1 $20 $-1 $21 #
body $-1 $22 $-1 $23 #
body $-1 $24 $-1 $25 #
body $-1 $26 $-1 $27 #
body $-1 $28 $-1 $29 #
body $-1 $30 $-1 $31 #
body $-1 $32 $-1 $33 #
body $-1 $34 $-1 $35 #
lump $-1 $-1 $36 $0 #
transform $-1 1 0 0 0 1 0 0 0 1 44.709616382335888 30.22343869605562 6.054095957073601 1 rotate no_reflect no_shear #
lump $-1 $-1 $37 $1 #
transform $-1 1 0 0 0 1 0 0 0 1 44.709616382335888 30.22343869605562 6.054095957073601 1 rotate no_reflect no_shear #
lump $-1 $-1 $38 $2 #
transform $-1 1 0 0 0 1 0 0 0 1 44.709616382335888 30.22343869605562 6.054095957073601 1 rotate no_reflect no_shear #
lump $-1 $-1 $39 $3 #
transform $-1 1 0 0 0 1 0 0 0 1 44.709616382335888 30.22343869605562 6.054095957073601 1 rotate no_reflect no_shear #
lump $-1 $-1 $40 $4 #
transform $-1 1 0 0 0 1 0 0 0 1 44.709616382335888 30.22343869605562 6.054095957073601 1 rotate no_reflect no_shear #
lump $-1 $-1 $41 $5 #
transform $-1 1 0 0 0 1 0 0 0 1 44.709616382335888 30.22343869605562 6.054095957073601 1 rotate no_reflect no_shear #
lump $-1 $-1 $42 $6 #
transform $-1 1 0 0 0 1 0 0 0 1 44.709616382335888 30.22343869605562 6.054095957073601 1 rotate no_reflect no_shear #
lump $-1 $-1 $43 $7 #
transform $-1 1 0 0 0 1 0 0 0 1 44.709616382335888 30.22343869605562 6.054095957073601 1 rotate no_reflect no_shear #
lump $-1 $-1 $44 $8 #
transform $-1 1 0 0 0 1 0 0 0 1 44.709616382335888 30.22343869605562 6.054095957073601 1 rotate no_reflect no_shear #
lump $-1 $-1 $45 $9 #
transform $-1 1 0 0 0 1 0 0 0 1 44.709616382335888 30.22343869605562 6.054095957073601 1 rotate no_reflect no_shear #
lump $-1 $-1 $46 $10 #
transform $-1 1 0 0 0 1 0 0 0 1 44.709616382335888 30.22343869605562 6.054095957073601 1 rotate no_reflect no_shear #
lump $-1 $-1 $47 $11 #
transform $-1 1 0 0 0 1 0 0 0 1 44.709616382335888 30.22343869605562 6.054095957073601 1 rotate no_reflect no_shear #
shell $-1 $-1 $-1 $48 $-1 $12 #
shell $-1 $-1 $-1 $49 $-1 $14 #
shell $-1 $-1 $-1 $50 $-1 $16 #
shell $-1 $-1 $-1 $51 $-1 $18 #
shell $-1 $-1 $-1 $52 $-1 $20 #
shell $-1 $-1 $-1 $53 $-1 $22 #
shell $-1 $-1 $-1 $54 $-1 $24 #
shell $-1 $-1 $-1 $55 $-1 $26 #
shell $-1 $-1 $-1 $56 $-1 $28 #
shell $-1 $-1 $-1 $57 $-1 $30 #
shell $-1 $-1 $-1 $58 $-1 $32 #
shell $-1 $-1 $-1 $59 $-1 $34 #
face $-1 $60 $61 $36 $-1 $62 forward single #
face $-1 $63 $64 $37 $-1 $65 forward single #
face $-1 $66 $67 $38 $-1 $68 reversed single #
face $-1 $69 $70 $39 $-1 $71 forward single #
face $-1 $72 $73 $40 $-1 $74 forward single #
face $-1 $75 $76 $41 $-1 $77 reversed single #
face $-1 $78 $79 $42 $-1 $80 forward single #
face $-1 $81 $82 $43 $-1 $83 forward single #
face $-1 $84 $85 $44 $-1 $86 reversed single #
face $-1 $87 $88 $45 $-1 $89 forward single #
face $-1 $90 $91 $46 $-1 $92 forward single #
face $-1 $93 $94 $47 $-1 $95 forward single #
face $-1 $96 $97 $36 $-1 $98 reversed single #
loop $-1 $-1 $99 $48 #
plane-surface $-1 0 0 6.054095957073601 0 0 1 1 0 0 forward_v I I I I #
face $-1 $100 $101 $37 $-1 $102 reversed single #
loop $-1 $-1 $103 $49 #
plane-surface $-1 0 -26.946832704602798 -1.4563333568197443 0 0 1 1 0 0 forward_v I I I I #
face $-1 $104 $105 $38 $-1 $106 reversed single #
loop $-1 $-1 $107 $50 #
plane-surface $-1 -90.763926498017838 -23.670226713149972 76.666535748117667 0 1 0 -0.51503808176128008 0 0.85716729658548041 forward_v I I I I #
face $-1 $108 $109 $39 $-1 $110 forward single #
loop $-1 $111 $112 $51 #
cone-surface $-1 -39.410238328651815 -21.869988353400526 2.5747251771110276 0.51503808176128008 0 -0.85716729658548041 0.4285836482927402 0 0.25751904088064004 1 I I 0 1 0.5 forward I I I I #
face $-1 $113 $114 $40 $-1 $115 forward single #
loop $-1 $116 $117 $52 #
cone-surface $-1 -39.410238328651815 -19.169630813776354 2.5747251771110276 0.51503808176128008 0 -0.85716729658548041 0.4285836482927402 0 0.25751904088064004 1 I I 0 1 0.5 forward I I I I #
face $-1 $118 $119 $41 $-1 $120 reversed single #
loop $-1 $-1 $121 $53 #
plane-surface $-1 -90.763926498017838 23.922604436932549 76.666535748117667 0 1 0 -0.51503808176128008 0 0.85716729658548041 forward_v I I I I #
face $-1 $122 $123 $42 $-1 $124 forward single #
loop $-1 $125 $126 $54 #
cone-surface $-1 -39.410238328651815 25.722842796681999 2.5747251771110276 0.51503808176128008 0 -0.85716729658548041 0.4285836482927402 0 0.25751904088064004 1 I I 0 1 0.5 forward I I I I #
face $-1 $127 $128 $43 $-1 $129 forward single #
loop $-1 $130 $131 $55 #
cone-surface $-1 -39.410238328651815 28.42320033630617 2.5747251771110276 0.51503808176128008 0 -0.85716729658548041 0.4285836482927402 0 0.25751904088064004 1 I I 0 1 0.5 forward I I I I #
face $-1 $132 $133 $44 $-1 $134 reversed single #
loop $-1 $-1 $135 $56 #
plane-surface $-1 -12.767957623400171 23.420835687622688 69.969811783963323 0.7660444514056185 0 0.64278759981090561 0.64278759981090561 0 -0.7660444514056185 forward_v I I I I #
face $-1 $136 $137 $45 $-1 $138 forward single #
loop $-1 $139 $140 $57 #
cone-surface $-1 41.700453668886098 19.339273882562939 2.8509688130568174 -0.7660444514056185 0 -0.64278759981090561 0.64278759981090561 0 -0.7660444514056185 1 I I 0 1 1 forward I I I I #
face $-1 $141 $142 $46 $-1 $143 forward single #
loop $-1 $144 $145 $58 #
cone-surface $-1 41.700453668886098 23.420835687622695 2.8509688130568174 -0.7660444514056185 0 -0.64278759981090561 0.64278759981090561 0 -0.7660444514056185 1 I I 0 1 1 forward I I I I #
face $-1 $146 $147 $47 $-1 $148 forward single #
loop $-1 $149 $150 $59 #
cone-surface $-1 41.700453668886098 27.502397492682451 2.8509688130568174 -0.7660444514056185 0 -0.64278759981090561 0.64278759981090561 0 -0.7660444514056185 1 I I 0 1 1 forward I I I I #
face $-1 $151 $152 $36 $-1 $153 reversed single #
loop $-1 $-1 $154 $60 #
plane-surface $-1 0 0 -6.054095957073601 0 0 1 1 0 0 forward_v I I I I #
coedge $-1 $155 $156 $157 $158 forward $61 $-1 #
face $-1 $159 $160 $37 $-1 $161 reversed single #
loop $-1 $-1 $162 $63 #
plane-surface $-1 0 -26.946832704602798 -4.4563333568197443 0 0 1 1 0 0 forward_v I I I I #
coedge $-1 $163 $164 $165 $166 reversed $64 $-1 #
face $-1 $167 $168 $38 $-1 $169 reversed single #
loop $-1 $-1 $170 $66 #
plane-surface $-1 -44.709616382335881 -20.51980958358844 0.019293736476143408 -0.51503808176128008 0 0.85716729658548041 0.85716729658548041 0 0.51503808176128008 forward_v I I I I #
coedge $-1 $171 $172 $173 $174 reversed $67 $-1 #
face $-1 $-1 $175 $39 $-1 $176 forward single #
loop $-1 $177 $178 $69 #
cone-surface $-1 -39.003899421499746 -21.869988353400526 1.8984636833008057 0.51503808176128008 0 -0.85716729658548041 0.2142918241463701 0 0.12875952044032002 1 I I -0.70710678118654746 0.70710678118654746 0.25 forward I I I I #
loop $-1 $-1 $179 $51 #
coedge $-1 $112 $112 $180 $181 reversed $70 $-1 #
face $-1 $-1 $182 $40 $-1 $183 forward single #
loop $-1 $184 $185 $72 #
cone-surface $-1 -39.003899421499746 -19.169630813776354 1.8984636833008057 0.51503808176128008 0 -0.85716729658548041 0.2142918241463701 0 0.12875952044032002 1 I I -0.70710678118654746 0.70710678118654746 0.25 forward I I I I #
loop $-1 $-1 $186 $52 #
coedge $-1 $117 $117 $187 $188 reversed $73 $-1 #
face $-1 $189 $190 $41 $-1 $191 forward single #
loop $-1 $-1 $192 $75 #
plane-surface $-1 -44.709616382335881 27.073021566494081 0.019293736476143408 -0.51503808176128008 0 0.85716729658548041 0.85716729658548041 0 0.51503808176128008 forward_v I I I I #
coedge $-1 $193 $194 $195 $196 reversed $76 $-1 #
face $-1 $-1 $197 $42 $-1 $198 forward single #
loop $-1 $199 $200 $78 #
cone-surface $-1 -39.003899421499746 25.722842796681999 1.8984636833008057 0.51503808176128008 0 -0.85716729658548041 0.2142918241463701 0 0.12875952044032002 1 I I -0.70710678118654746 0.70710678118654746 0.25 forward I I I I #
loop $-1 $-1 $201 $54 #
coedge $-1 $126 $126 $202 $203 reversed $79 $-1 #
face $-1 $-1 $204 $43 $-1 $205 forward single #
loop $-1 $206 $207 $81 #
cone-surface $-1 -39.003899421499746 28.42320033630617 1.8984636833008057 0.51503808176128008 0 -0.85716729658548041 0.2142918241463701 0 0.12875952044032002 1 I I -0.70710678118654746 0.70710678118654746 0.25 forward I I I I #
loop $-1 $-1 $208 $55 #
coedge $-1 $131 $131 $209 $210 reversed $82 $-1 #
face $-1 $211 $212 $44 $-1 $213 reversed single #
loop $-1 $-1 $214 $84 #
plane-surface $-1 55.731149484924124 16.618232679189767 127.44738578969938 0 1 0 0.7660444514056185 0 0.64278759981090561 forward_v I I I I #
coedge $-1 $215 $216 $217 $218 reversed $85 $-1 #
face $-1 $-1 $219 $45 $-1 $220 forward single #
loop $-1 $221 $222 $87 #
cone-surface $-1 40.231229646284511 19.339273882562939 1.6181435098518744 -0.7660444514056185 0 -0.64278759981090561 0.3213937999054528 0 -0.38302222570280925 1 I I -0.70710678118654746 0.70710678118654746 0.5 forward I I I I #
loop $-1 $-1 $223 $57 #
coedge $-1 $140 $140 $224 $225 reversed $88 $-1 #
face $-1 $-1 $226 $46 $-1 $227 forward single #
loop $-1 $228 $229 $90 #
cone-surface $-1 40.231229646284511 23.420835687622695 1.6181435098518744 -0.7660444514056185 0 -0.64278759981090561 0.3213937999054528 0 -0.38302222570280925 1 I I -0.70710678118654746 0.70710678118654746 0.5 forward I I I I #
loop $-1 $-1 $230 $58 #
coedge $-1 $145 $145 $231 $232 reversed $91 $-1 #
face $-1 $-1 $233 $47 $-1 $234 forward single #
loop $-1 $235 $236 $93 #
cone-surface $-1 40.231229646284511 27.502397492682451 1.6181435098518744 -0.7660444514056185 0 -0.64278759981090561 0.3213937999054528 0 -0.38302222570280925 1 I I -0.70710678118654746 0.70710678118654746 0.5 forward I I I I #
loop $-1 $-1 $237 $59 #
coedge $-1 $150 $150 $238 $239 reversed $94 $-1 #
face $-1 $240 $241 $36 $-1 $242 reversed single #
loop $-1 $-1 $243 $96 #
plane-surface $-1 0 -30.22343869605562 0 0 1 0 0 0 1 forward_v I I I I #
coedge $-1 $244 $245 $246 $247 forward $97 $-1 #
coedge $-1 $248 $99 $249 $250 forward $61 $-1 #
coedge $-1 $99 $248 $251 $252 forward $61 $-1 #
coedge $-1 $253 $254 $99 $158 reversed $255 $-1 #
edge $-1 $256 -30.22343869605562 $257 30.22343869605562 $157 $258 forward 7 unknown #
face $-1 $259 $260 $37 $-1 $261 reversed single #
loop $-1 $-1 $262 $100 #
plane-surface $-1 0 -23.670226713149976 -2.9563333568197443 0 -1 0 0 0 -1 forward_v I I I I #
coedge $-1 $263 $264 $265 $266 reversed $101 $-1 #
coedge $-1 $267 $103 $268 $269 forward $64 $-1 #
coedge $-1 $103 $267 $270 $271 reversed $64 $-1 #
coedge $-1 $272 $273 $103 $166 forward $274 $-1 #
edge $-1 $275 10.196810360848577 $276 16.750022343754221 $165 $277 forward 7 unknown #
face $-1 $278 $279 $38 $-1 $280 reversed single #
loop $-1 $-1 $281 $104 #
plane-surface $-1 -90.763926498017838 -17.369392454026908 76.666535748117667 0 -1 0 0.51503808176128008 0 -0.85716729658548041 forward_v I I I I #
coedge $-1 $282 $283 $284 $285 reversed $105 $-1 #
coedge $-1 $172 $107 $286 $287 reversed $67 $-1 #
coedge $-1 $107 $171 $282 $288 reversed $67 $-1 #
coedge $-1 $284 $289 $107 $174 forward $290 $-1 #
edge $-1 $291 0.67234686667303123 $292 10.71594420061772 $173 $293 forward 7 unknown #
loop $-1 $-1 $180 $108 #
plane-surface $-1 -44.709616382335881 -20.51980958358844 0.019293736476143408 -0.51503808176128008 0 0.85716729658548041 0.85716729658548041 0 0.51503808176128008 forward_v I I I I #
loop $-1 $-1 $294 $69 #
coedge $-1 $178 $178 $179 $295 reversed $109 $-1 #
coedge $-1 $179 $179 $178 $295 forward $111 $-1 #
coedge $-1 $180 $180 $112 $181 forward $175 $-1 #
edge $-1 $296 0 $296 6.2831853071796004 $180 $297 forward 7 unknown #
loop $-1 $-1 $187 $113 #
plane-surface $-1 -44.709616382335881 -20.51980958358844 0.019293736476143408 -0.51503808176128008 0 0.85716729658548041 0.85716729658548041 0 0.51503808176128008 forward_v I I I I #
loop $-1 $-1 $298 $72 #
coedge $-1 $185 $185 $186 $299 reversed $114 $-1 #
coedge $-1 $186 $186 $185 $299 forward $116 $-1 #
coedge $-1 $187 $187 $117 $188 forward $182 $-1 #
edge $-1 $300 0 $300 6.2831853071796004 $187 $301 forward 7 unknown #
face $-1 $302 $303 $41 $-1 $304 reversed single #
loop $-1 $-1 $195 $118 #
plane-surface $-1 0 0 6.054095957073601 0 0 1 1 0 0 forward_v I I I I #
coedge $-1 $305 $306 $307 $308 reversed $119 $-1 #
coedge $-1 $194 $121 $309 $310 reversed $76 $-1 #
coedge $-1 $121 $193 $305 $311 reversed $76 $-1 #
coedge $-1 $307 $312 $121 $196 forward $190 $-1 #
edge $-1 $313 0.67234686667303123 $314 10.71594420061772 $195 $315 forward 7 unknown #
loop $-1 $-1 $202 $122 #
plane-surface $-1 -44.709616382335881 27.073021566494081 0.019293736476143408 -0.51503808176128008 0 0.85716729658548041 0.85716729658548041 0 0.51503808176128008 forward_v I I I I #
loop $-1 $-1 $316 $78 #
coedge $-1 $200 $200 $201 $317 reversed $123 $-1 #
coedge $-1 $201 $201 $200 $317 forward $125 $-1 #
coedge $-1 $202 $202 $126 $203 forward $197 $-1 #
edge $-1 $318 0 $318 6.2831853071796004 $202 $319 forward 7 unknown #
loop $-1 $-1 $209 $127 #
plane-surface $-1 -44.709616382335881 27.073021566494081 0.019293736476143408 -0.51503808176128008 0 0.85716729658548041 0.85716729658548041 0 0.51503808176128008 forward_v I I I I #
loop $-1 $-1 $320 $81 #
coedge $-1 $207 $207 $208 $321 reversed $128 $-1 #
coedge $-1 $208 $208 $207 $321 forward $130 $-1 #
coedge $-1 $209 $209 $131 $210 forward $204 $-1 #
edge $-1 $322 0 $322 6.2831853071796004 $209 $323 forward 7 unknown #
face $-1 $324 $325 $44 $-1 $326 forward single #
loop $-1 $-1 $327 $132 #
plane-surface $-1 44.709616382335888 0 0 -1 0 0 0 0 1 forward_v I I I I #
coedge $-1 $328 $329 $330 $331 reversed $133 $-1 #
coedge $-1 $332 $135 $333 $334 reversed $85 $-1 #
coedge $-1 $135 $332 $328 $335 forward $85 $-1 #
coedge $-1 $330 $336 $135 $218 forward $325 $-1 #
edge $-1 $337 -18.513020852244267 $338 -4.9078148353784226 $217 $339 forward 7 unknown #
loop $-1 $-1 $224 $136 #
plane-surface $-1 -12.767957623400171 23.420835687622688 69.969811783963323 0.7660444514056185 0 0.64278759981090561 0.64278759981090561 0 -0.7660444514056185 forward_v I I I I #
loop $-1 $-1 $340 $87 #
coedge $-1 $222 $222 $223 $341 reversed $137 $-1 #
coedge $-1 $223 $223 $222 $341 forward $139 $-1 #
coedge $-1 $224 $224 $140 $225 forward $219 $-1 #
edge $-1 $342 0 $342 6.2831853071796004 $224 $343 forward 7 unknown #
loop $-1 $-1 $231 $141 #
plane-surface $-1 -12.767957623400171 23.420835687622688 69.969811783963323 0.7660444514056185 0 0.64278759981090561 0.64278759981090561 0 -0.7660444514056185 forward_v I I I I #
loop $-1 $-1 $344 $90 #
coedge $-1 $229 $229 $230 $345 reversed $142 $-1 #
coedge $-1 $230 $230 $229 $345 forward $144 $-1 #
coedge $-1 $231 $231 $145 $232 forward $226 $-1 #
edge $-1 $346 0 $346 6.2831853071796004 $231 $347 forward 7 unknown #
loop $-1 $-1 $238 $146 #
plane-surface $-1 -12.767957623400171 23.420835687622688 69.969811783963323 0.7660444514056185 0 0.64278759981090561 0.64278759981090561 0 -0.7660444514056185 forward_v I I I I #
loop $-1 $-1 $348 $93 #
coedge $-1 $236 $236 $237 $349 reversed $147 $-1 #
coedge $-1 $237 $237 $236 $349 forward $149 $-1 #
coedge $-1 $238 $238 $150 $239 forward $233 $-1 #
edge $-1 $350 0 $350 6.2831853071796004 $238 $351 forward 7 unknown #
face $-1 $352 $353 $36 $-1 $354 reversed single #
loop $-1 $-1 $355 $151 #
plane-surface $-1 -44.709616382335888 0 0 1 0 0 0 0 -1 forward_v I I I I #
coedge $-1 $356 $251 $357 $358 forward $152 $-1 #
coedge $-1 $359 $154 $356 $360 forward $97 $-1 #
coedge $-1 $154 $359 $361 $362 forward $97 $-1 #
coedge $-1 $254 $253 $154 $247 reversed $255 $-1 #
edge $-1 $363 -30.22343869605562 $364 30.22343869605562 $246 $365 forward 7 unknown #
coedge $-1 $156 $155 $366 $367 forward $61 $-1 #
coedge $-1 $368 $369 $155 $250 reversed $353 $-1 #
edge $-1 $257 -44.709616382335888 $370 44.709616382335888 $249 $371 forward 7 unknown #
coedge $-1 $243 $372 $156 $252 reversed $152 $-1 #
edge $-1 $373 -44.709616382335888 $256 44.709616382335888 $251 $374 forward 7 unknown #
coedge $-1 $246 $157 $372 $375 forward $255 $-1 #
coedge $-1 $157 $246 $368 $376 reversed $255 $-1 #
loop $-1 $-1 $253 $352 #
vertex $-1 $158 $377 #
vertex $-1 $158 $378 #
straight-curve $-1 44.709616382335888 0 6.054095957073601 0 1 0 I I #
face $-1 $379 $380 $37 $-1 $381 reversed single #
loop $-1 $-1 $382 $159 #
plane-surface $-1 -44.709616382335888 0 0 1 0 0 0 0 -1 forward_v I I I I #
coedge $-1 $383 $268 $273 $384 reversed $160 $-1 #
coedge $-1 $385 $162 $386 $387 reversed $101 $-1 #
coedge $-1 $162 $385 $383 $388 forward $101 $-1 #
coedge $-1 $273 $272 $162 $266 forward $274 $-1 #
edge $-1 $389 -16.750022343754221 $390 -10.196810360848577 $265 $391 forward 7 unknown #
coedge $-1 $164 $163 $382 $392 reversed $64 $-1 #
coedge $-1 $262 $393 $163 $269 reversed $160 $-1 #
edge $-1 $275 -44.709616382335888 $394 44.709616382335888 $268 $395 forward 7 unknown #
coedge $-1 $396 $397 $164 $271 forward $380 $-1 #
edge $-1 $276 -44.709616382335888 $398 44.709616382335888 $270 $399 forward 7 unknown #
coedge $-1 $265 $165 $397 $400 forward $274 $-1 #
coedge $-1 $165 $265 $262 $384 forward $274 $-1 #
loop $-1 $-1 $165 $379 #
vertex $-1 $166 $401 #
vertex $-1 $400 $402 #
straight-curve $-1 44.709616382335888 -13.473416352301399 -1.4563333568197443 0 -1 0 I I #
face $-1 $-1 $290 $38 $-1 $403 forward single #
loop $-1 $-1 $404 $167 #
plane-surface $-1 -44.709616382335888 0 0 1 0 0 0 0 -1 forward_v I I I I #
coedge $-1 $405 $406 $407 $408 reversed $168 $-1 #
coedge $-1 $409 $170 $172 $288 forward $105 $-1 #
coedge $-1 $170 $409 $405 $410 forward $105 $-1 #
coedge $-1 $407 $173 $170 $285 forward $290 $-1 #
edge $-1 $292 -13.410321921355752 $411 -7.1094876622326879 $284 $412 forward 7 unknown #
coedge $-1 $413 $414 $171 $287 forward $279 $-1 #
edge $-1 $415 -38.313974137582697 $291 -32.279171916985234 $286 $416 forward 7 unknown #
edge $-1 $292 -11.71719613423573 $415 8.2902105390775236e-015 $172 $417 forward 7 unknown #
coedge $-1 $173 $407 $413 $418 forward $290 $-1 #
loop $-1 $-1 $407 $278 #
vertex $-1 $287 $419 #
vertex $-1 $174 $420 #
straight-curve $-1 -45.381963249008919 -23.670226713149972 6.0540959570735993 1 0 0 I I #
coedge $-1 $294 $294 $-1 $421 reversed $177 $-1 #
edge $-1 $422 0 $422 6.2831853071796004 $178 $423 forward 7 unknown #
vertex $-1 $181 $424 #
ellipse-curve $-1 -39.687817715363551 -21.869988353400526 3.0366948467748651 -0.51503808176128008 0 0.85716729658548041 0.4285836482927402 0 0.25751904088064004 1 I I #
coedge $-1 $298 $298 $-1 $425 reversed $184 $-1 #
edge $-1 $426 0 $426 6.2831853071796004 $185 $427 forward 7 unknown #
vertex $-1 $188 $428 #
ellipse-curve $-1 -39.687817715363551 -19.169630813776354 3.0366948467748651 -0.51503808176128008 0 0.85716729658548041 0.4285836482927402 0 0.25751904088064004 1 I I #
face $-1 $-1 $429 $41 $-1 $430 reversed single #
loop $-1 $-1 $431 $189 #
plane-surface $-1 0 30.22343869605562 0 0 -1 0 0 0 -1 forward_v I I I I #
coedge $-1 $432 $192 $194 $311 forward $119 $-1 #
coedge $-1 $192 $432 $431 $433 reversed $119 $-1 #
coedge $-1 $434 $195 $192 $308 forward $190 $-1 #
edge $-1 $314 10.386093653685508 $435 16.686927912808571 $307 $436 forward 7 unknown #
coedge $-1 $437 $438 $193 $310 forward $429 $-1 #
edge $-1 $439 -38.313974137582697 $313 -32.279171916985234 $309 $440 forward 7 unknown #
edge $-1 $314 -11.71719613423573 $439 8.2902105390775236e-015 $194 $441 forward 7 unknown #
coedge $-1 $195 $434 $437 $442 forward $190 $-1 #
vertex $-1 $310 $443 #
vertex $-1 $196 $444 #
straight-curve $-1 -45.381963249008919 23.922604436932549 6.0540959570735993 1 0 0 I I #
coedge $-1 $316 $316 $-1 $445 reversed $199 $-1 #
edge $-1 $446 0 $446 6.2831853071796004 $200 $447 forward 7 unknown #
vertex $-1 $203 $448 #
ellipse-curve $-1 -39.687817715363551 25.722842796681999 3.0366948467748651 -0.51503808176128008 0 0.85716729658548041 0.4285836482927402 0 0.25751904088064004 1 I I #
coedge $-1 $320 $320 $-1 $449 reversed $206 $-1 #
edge $-1 $450 0 $450 6.2831853071796004 $207 $451 forward 7 unknown #
vertex $-1 $210 $452 #
ellipse-curve $-1 -39.687817715363551 28.42320033630617 3.0366948467748651 -0.51503808176128008 0 0.85716729658548041 0.4285836482927402 0 0.25751904088064004 1 I I #
face $-1 $-1 $453 $44 $-1 $454 reversed single #
loop $-1 $-1 $330 $211 #
plane-surface $-1 0 0 6.054095957073601 0 0 1 1 0 0 forward_v I I I I #
coedge $-1 $455 $456 $329 $457 forward $212 $-1 #
coedge $-1 $329 $214 $216 $335 reversed $133 $-1 #
coedge $-1 $214 $328 $327 $457 reversed $133 $-1 #
coedge $-1 $458 $217 $214 $331 forward $325 $-1 #
edge $-1 $338 12.998119806771765 $459 16.844041639873826 $330 $460 forward 7 unknown #
coedge $-1 $216 $215 $455 $461 reversed $85 $-1 #
coedge $-1 $462 $463 $215 $334 forward $453 $-1 #
edge $-1 $464 -58.515697305555122 $337 -52.532504981631249 $333 $465 forward 7 unknown #
edge $-1 $466 -89.419232764671804 $338 -83.436040440747931 $328 $467 forward 7 unknown #
coedge $-1 $217 $458 $462 $468 forward $325 $-1 #
vertex $-1 $334 $469 #
vertex $-1 $218 $470 #
straight-curve $-1 40.86369454923382 11.710417843811344 6.0540959570735922 0 -1 0 I I #
coedge $-1 $340 $340 $-1 $471 reversed $221 $-1 #
edge $-1 $472 0 $472 6.2831853071796004 $222 $473 forward 7 unknown #
vertex $-1 $225 $474 #
ellipse-curve $-1 42.786655465784861 19.339273882562939 3.7624003163562998 0.7660444514056185 0 0.64278759981090561 0.64278759981090561 0 -0.7660444514056185 1 I I #
coedge $-1 $344 $344 $-1 $475 reversed $228 $-1 #
edge $-1 $476 0 $476 6.2831853071796004 $229 $477 forward 7 unknown #
vertex $-1 $232 $478 #
ellipse-curve $-1 42.786655465784861 23.420835687622695 3.7624003163562998 0.7660444514056185 0 0.64278759981090561 0.64278759981090561 0 -0.7660444514056185 1 I I #
coedge $-1 $348 $348 $-1 $479 reversed $235 $-1 #
edge $-1 $480 0 $480 6.2831853071796004 $236 $481 forward 7 unknown #
vertex $-1 $239 $482 #
ellipse-curve $-1 42.786655465784861 27.502397492682451 3.7624003163562998 0.7660444514056185 0 0.64278759981090561 0.64278759981090561 0 -0.7660444514056185 1 I I #
face $-1 $-1 $255 $36 $-1 $483 reversed single #
loop $-1 $-1 $368 $240 #
plane-surface $-1 0 30.22343869605562 0 0 -1 0 0 0 -1 forward_v I I I I #
coedge $-1 $484 $366 $369 $485 forward $241 $-1 #
coedge $-1 $372 $243 $244 $360 reversed $152 $-1 #
coedge $-1 $366 $484 $243 $358 reversed $241 $-1 #
edge $-1 $373 -6.054095957073601 $486 6.054095957073601 $357 $487 forward 7 unknown #
coedge $-1 $245 $244 $484 $488 forward $97 $-1 #
edge $-1 $364 -44.709616382335888 $486 44.709616382335888 $356 $489 forward 7 unknown #
coedge $-1 $369 $368 $245 $362 reversed $353 $-1 #
edge $-1 $490 -44.709616382335888 $363 44.709616382335888 $361 $491 forward 7 unknown #
vertex $-1 $247 $492 #
vertex $-1 $375 $493 #
straight-curve $-1 44.709616382335888 0 -6.054095957073601 0 -1 0 I I #
coedge $-1 $355 $357 $248 $367 reversed $241 $-1 #
edge $-1 $370 -30.22343869605562 $373 30.22343869605562 $366 $494 forward 7 unknown #
coedge $-1 $361 $249 $254 $376 forward $353 $-1 #
coedge $-1 $249 $361 $355 $485 reversed $353 $-1 #
vertex $-1 $250 $495 #
straight-curve $-1 0 30.22343869605562 6.054095957073601 -1 0 0 I I #
coedge $-1 $251 $356 $253 $375 reversed $152 $-1 #
vertex $-1 $367 $496 #
straight-curve $-1 0 -30.22343869605562 6.054095957073601 1 0 0 I I #
edge $-1 $256 -6.054095957073601 $364 6.054095957073601 $253 $497 forward 7 unknown #
edge $-1 $257 -6.054095957073601 $363 6.054095957073601 $254 $498 forward 7 unknown #
point $-1 44.709616382335888 -30.22343869605562 6.054095957073601 #
point $-1 44.709616382335888 30.22343869605562 6.054095957073601 #
face $-1 $-1 $274 $37 $-1 $499 reversed single #
loop $-1 $-1 $270 $259 #
plane-surface $-1 0 -30.22343869605562 0 0 1 0 0 0 1 forward_v I I I I #
coedge $-1 $500 $501 $267 $392 forward $260 $-1 #
coedge $-1 $393 $262 $264 $388 reversed $160 $-1 #
edge $-1 $390 -2.9781666784098721 $275 0.021833321590127852 $273 $502 forward 7 unknown #
coedge $-1 $264 $263 $503 $504 reversed $101 $-1 #
coedge $-1 $397 $396 $263 $387 forward $380 $-1 #
edge $-1 $505 -44.709616382335888 $389 44.709616382335888 $386 $506 forward 7 unknown #
edge $-1 $507 -44.709616382335888 $390 44.709616382335888 $383 $508 forward 7 unknown #
vertex $-1 $387 $509 #
vertex $-1 $266 $510 #
straight-curve $-1 44.709616382335888 -13.473416352301399 -4.4563333568197443 0 1 0 I I #
edge $-1 $398 -16.750022343754221 $394 -10.196810360848577 $382 $511 forward 7 unknown #
coedge $-1 $268 $383 $500 $512 reversed $160 $-1 #
vertex $-1 $392 $513 #
straight-curve $-1 0 -23.670226713149976 -1.4563333568197443 -1 0 0 I I #
coedge $-1 $386 $270 $501 $514 forward $380 $-1 #
coedge $-1 $270 $386 $272 $400 reversed $380 $-1 #
vertex $-1 $514 $515 #
straight-curve $-1 0 -30.22343869605562 -1.4563333568197443 -1 0 0 I I #
edge $-1 $276 1.4563333568197443 $389 4.4563333568197443 $272 $516 forward 7 unknown #
point $-1 44.709616382335888 -23.670226713149976 -1.4563333568197443 #
point $-1 44.709616382335888 -30.22343869605562 -1.4563333568197443 #
plane-surface $-1 0 0 6.054095957073601 0 0 1 1 0 0 forward_v I I I I #
coedge $-1 $414 $413 $406 $517 forward $279 $-1 #
coedge $-1 $406 $281 $283 $410 reversed $168 $-1 #
coedge $-1 $281 $405 $404 $517 reversed $168 $-1 #
coedge $-1 $289 $284 $281 $408 forward $290 $-1 #
edge $-1 $411 -10.71594420061772 $518 -0.67234686667303123 $407 $519 forward 7 unknown #
coedge $-1 $283 $282 $414 $520 reversed $105 $-1 #
edge $-1 $521 -8.2902105390775236e-015 $411 11.71719613423573 $405 $522 forward 7 unknown #
vertex $-1 $285 $523 #
straight-curve $-1 -34.666019048391199 -10.25990479179422 6.0540959570736002 0 1 0 I I #
coedge $-1 $404 $286 $289 $418 reversed $279 $-1 #
coedge $-1 $286 $404 $409 $520 forward $279 $-1 #
vertex $-1 $287 $524 #
straight-curve $-1 -44.709616382335888 -23.670226713149972 38.333267874058834 0 0 1 I I #
straight-curve $-1 -44.709616382335881 -23.670226713149972 0.019293736476143408 -0.85716729658548041 0 -0.51503808176128008 I I #
edge $-1 $518 17.369392454026908 $291 23.670226713149972 $413 $525 forward 7 unknown #
point $-1 -44.709616382335888 -23.670226713149972 6.054095957073601 #
point $-1 -34.666019048391199 -23.670226713149972 6.054095957073601 #
edge $-1 $526 1 $526 0 $294 $-1 forward 7 unknown #
vertex $-1 $295 $527 #
ellipse-curve $-1 -39.132658941940065 -21.869988353400526 2.1127555074471758 -0.51503808176128008 0 0.85716729658548041 0.4285836482927402 0 0.25751904088064004 1 I I #
point $-1 -39.259234067070814 -21.869988353400526 3.2942138876555194 #
edge $-1 $528 1 $528 0 $298 $-1 forward 7 unknown #
vertex $-1 $299 $529 #
ellipse-curve $-1 -39.132658941940065 -19.169630813776354 2.1127555074471758 -0.51503808176128008 0 0.85716729658548041 0.4285836482927402 0 0.25751904088064004 1 I I #
point $-1 -39.259234067070814 -19.169630813776354 3.2942138876555194 #
loop $-1 $-1 $309 $302 #
plane-surface $-1 -44.709616382335888 0 0 1 0 0 0 0 -1 forward_v I I I I #
coedge $-1 $530 $531 $306 $433 forward $303 $-1 #
coedge $-1 $306 $305 $438 $532 reversed $119 $-1 #
edge $-1 $435 7.4396458641623067 $533 19.156841998398043 $431 $534 forward 7 unknown #
coedge $-1 $312 $307 $531 $535 forward $190 $-1 #
vertex $-1 $535 $536 #
straight-curve $-1 -34.666019048391199 13.53651078324704 6.0540959570736002 0 1 0 I I #
coedge $-1 $537 $309 $312 $442 reversed $429 $-1 #
coedge $-1 $309 $537 $432 $532 forward $429 $-1 #
vertex $-1 $310 $538 #
straight-curve $-1 -44.709616382335888 23.922604436932549 38.333267874058834 0 0 1 I I #
straight-curve $-1 -44.709616382335881 23.922604436932549 0.019293736476143408 -0.85716729658548041 0 -0.51503808176128008 I I #
edge $-1 $539 -30.22343869605562 $313 -23.922604436932549 $437 $540 forward 7 unknown #
point $-1 -44.709616382335888 23.922604436932549 6.054095957073601 #
point $-1 -34.666019048391199 23.922604436932549 6.054095957073601 #
edge $-1 $541 1 $541 0 $316 $-1 forward 7 unknown #
vertex $-1 $317 $542 #
ellipse-curve $-1 -39.132658941940065 25.722842796681999 2.1127555074471758 -0.51503808176128008 0 0.85716729658548041 0.4285836482927402 0 0.25751904088064004 1 I I #
point $-1 -39.259234067070814 25.722842796681999 3.2942138876555194 #
edge $-1 $543 1 $543 0 $320 $-1 forward 7 unknown #
vertex $-1 $321 $544 #
ellipse-curve $-1 -39.132658941940065 28.42320033630617 2.1127555074471758 -0.51503808176128008 0 0.85716729658548041 0.4285836482927402 0 0.25751904088064004 1 I I #
point $-1 -39.259234067070814 28.42320033630617 3.2942138876555194 #
loop $-1 $-1 $333 $324 #
plane-surface $-1 0 30.22343869605562 0 0 -1 0 0 0 -1 forward_v I I I I #
coedge $-1 $545 $327 $332 $461 forward $212 $-1 #
coedge $-1 $327 $545 $458 $546 reversed $212 $-1 #
edge $-1 $459 57.669596937776092 $466 62.252988219210664 $327 $547 forward 7 unknown #
coedge $-1 $336 $330 $456 $546 forward $325 $-1 #
vertex $-1 $546 $548 #
straight-curve $-1 27.865574742462062 16.618232679189767 6.0540959570735993 1 0 0 I I #
edge $-1 $466 4.9078148353784226 $464 18.513020852244267 $455 $549 forward 7 unknown #
coedge $-1 $463 $333 $336 $468 reversed $453 $-1 #
coedge $-1 $333 $462 $545 $550 forward $453 $-1 #
vertex $-1 $334 $551 #
straight-curve $-1 7.0964517600366364 30.22343869605562 46.296329916690219 -0.64278759981090572 0 0.76604445140561861 I I #
vertex $-1 $461 $552 #
straight-curve $-1 -12.767957623400171 16.618232679189767 69.969811783963323 -0.64278759981090561 0 0.7660444514056185 I I #
edge $-1 $553 -44.709616382335888 $337 -40.863694549233827 $462 $554 forward 7 unknown #
point $-1 40.863694549233827 30.223438696055609 6.0540959570735993 #
point $-1 40.863694549233827 16.618232679189767 6.0540959570735993 #
edge $-1 $555 1 $555 0 $340 $-1 forward 7 unknown #
vertex $-1 $341 $556 #
ellipse-curve $-1 40.614251871987321 19.339273882562939 1.9395373097573272 0.7660444514056185 0 0.64278759981090561 0.64278759981090561 0 -0.7660444514056185 1 I I #
point $-1 43.429443065595777 19.339273882562939 2.9963558649506892 #
edge $-1 $557 1 $557 0 $344 $-1 forward 7 unknown #
vertex $-1 $345 $558 #
ellipse-curve $-1 40.614251871987321 23.420835687622695 1.9395373097573272 0.7660444514056185 0 0.64278759981090561 0.64278759981090561 0 -0.7660444514056185 1 I I #
point $-1 43.429443065595777 23.420835687622695 2.9963558649506892 #
edge $-1 $559 1 $559 0 $348 $-1 forward 7 unknown #
vertex $-1 $349 $560 #
ellipse-curve $-1 40.614251871987321 27.502397492682451 1.9395373097573272 0.7660444514056185 0 0.64278759981090561 0.64278759981090561 0 -0.7660444514056185 1 I I #
point $-1 43.429443065595777 27.502397492682451 2.9963558649506892 #
plane-surface $-1 44.709616382335888 0 0 -1 0 0 0 0 1 forward_v I I I I #
coedge $-1 $357 $355 $359 $488 reversed $241 $-1 #
edge $-1 $370 -6.054095957073601 $490 6.054095957073601 $369 $561 forward 7 unknown #
vertex $-1 $488 $562 #
straight-curve $-1 -44.709616382335888 -30.22343869605562 0 0 0 -1 I I #
edge $-1 $486 -30.22343869605562 $490 30.22343869605562 $484 $563 forward 7 unknown #
straight-curve $-1 0 -30.22343869605562 -6.054095957073601 -1 0 0 I I #
vertex $-1 $362 $564 #
straight-curve $-1 0 30.22343869605562 -6.054095957073601 1 0 0 I I #
point $-1 44.709616382335888 30.22343869605562 -6.054095957073601 #
point $-1 44.709616382335888 -30.22343869605562 -6.054095957073601 #
straight-curve $-1 -44.709616382335888 0 6.054095957073601 0 -1 0 I I #
point $-1 -44.709616382335888 30.22343869605562 6.054095957073601 #
point $-1 -44.709616382335888 -30.22343869605562 6.054095957073601 #
straight-curve $-1 44.709616382335888 -30.22343869605562 0 0 0 -1 I I #
straight-curve $-1 44.709616382335888 30.22343869605562 0 0 0 -1 I I #
plane-surface $-1 44.709616382335888 0 0 -1 0 0 0 0 1 forward_v I I I I #
coedge $-1 $503 $382 $393 $512 forward $260 $-1 #
coedge $-1 $382 $503 $396 $514 reversed $260 $-1 #
straight-curve $-1 44.709616382335888 -23.670226713149976 -1.4781666784098721 0 0 1 I I #
coedge $-1 $501 $500 $385 $504 forward $260 $-1 #
edge $-1 $507 10.196810360848577 $505 16.750022343754221 $503 $565 forward 7 unknown #
vertex $-1 $387 $566 #
straight-curve $-1 0 -30.22343869605562 -4.4563333568197443 1 0 0 I I #
vertex $-1 $504 $567 #
straight-curve $-1 0 -23.670226713149976 -4.4563333568197443 1 0 0 I I #
point $-1 44.709616382335888 -30.22343869605562 -4.4563333568197443 #
point $-1 44.709616382335888 -23.670226713149976 -4.4563333568197443 #
straight-curve $-1 -44.709616382335888 -13.473416352301399 -1.4563333568197443 0 1 0 I I #
edge $-1 $394 -0.021833321590127852 $507 2.9781666784098721 $500 $568 forward 7 unknown #
point $-1 -44.709616382335888 -23.670226713149976 -1.4563333568197443 #
edge $-1 $398 1.4563333568197443 $505 4.4563333568197443 $501 $569 forward 7 unknown #
point $-1 -44.709616382335888 -30.22343869605562 -1.4563333568197443 #
straight-curve $-1 44.709616382335888 -30.22343869605562 0 0 0 -1 I I #
edge $-1 $518 32.279171916985234 $521 38.313974137582697 $404 $570 forward 7 unknown #
vertex $-1 $418 $571 #
straight-curve $-1 -45.381963249008919 -17.369392454026908 6.0540959570735993 -1 0 0 I I #
edge $-1 $521 7.1094876622326879 $415 13.410321921355752 $414 $572 forward 7 unknown #
vertex $-1 $520 $573 #
straight-curve $-1 -44.709616382335881 -17.369392454026908 0.019293736476143408 0.85716729658548041 0 0.51503808176128008 I I #
point $-1 -34.666019048391199 -17.369392454026908 6.054095957073601 #
point $-1 -44.709616382335888 -23.670226713149972 0.019293736476139137 #
straight-curve $-1 -44.709616382335888 0 6.054095957073601 0 -1 0 I I #
vertex $-1 $421 $574 #
point $-1 -38.704075293647328 -21.869988353400526 2.3702745483278158 #
vertex $-1 $425 $575 #
point $-1 -38.704075293647328 -19.169630813776354 2.3702745483278158 #
coedge $-1 $531 $431 $537 $576 reversed $303 $-1 #
coedge $-1 $431 $530 $434 $535 reversed $303 $-1 #
edge $-1 $533 -16.686927912808571 $439 -10.386093653685508 $438 $577 forward 7 unknown #
vertex $-1 $433 $578 #
straight-curve $-1 -28.288997915453844 30.22343869605562 9.8857968919349961 -0.85716729658548041 0 -0.51503808176128008 I I #
edge $-1 $435 34.666019048391199 $539 44.709616382335888 $531 $579 forward 7 unknown #
point $-1 -34.666019048391199 30.223438696055613 6.054095957073601 #
coedge $-1 $438 $437 $530 $576 forward $429 $-1 #
point $-1 -44.709616382335888 23.922604436932549 0.019293736476139137 #
vertex $-1 $535 $580 #
straight-curve $-1 -44.709616382335888 0 6.054095957073601 0 -1 0 I I #
vertex $-1 $445 $581 #
point $-1 -38.704075293647328 25.722842796681999 2.3702745483278158 #
vertex $-1 $449 $582 #
point $-1 -38.704075293647328 28.42320033630617 2.3702745483278158 #
coedge $-1 $456 $455 $463 $550 reversed $212 $-1 #
edge $-1 $459 16.618232679189767 $553 30.22343869605562 $456 $583 forward 7 unknown #
straight-curve $-1 44.709616382335888 16.618232679189767 63.723692894849691 0 0 -1 I I #
point $-1 44.709616382335888 16.618232679189767 6.054095957073601 #
straight-curve $-1 44.709616382335888 11.710417843811344 1.470704675639027 0 1 0 I I #
edge $-1 $553 -6.054095957073601 $464 -1.470704675639027 $545 $584 forward 7 unknown #
point $-1 44.709616382335888 30.223438696055609 1.470704675639027 #
point $-1 44.709616382335888 16.618232679189767 1.470704675639027 #
vertex $-1 $546 $585 #
straight-curve $-1 0 30.22343869605562 6.054095957073601 -1 0 0 I I #
vertex $-1 $471 $586 #
point $-1 41.257039471798223 19.339273882562939 1.1734928583517088 #
vertex $-1 $475 $587 #
point $-1 41.257039471798223 23.420835687622695 1.1734928583517088 #
vertex $-1 $479 $588 #
point $-1 41.257039471798223 27.502397492682451 1.1734928583517088 #
straight-curve $-1 -44.709616382335888 30.22343869605562 0 0 0 -1 I I #
point $-1 -44.709616382335888 -30.22343869605562 -6.054095957073601 #
straight-curve $-1 -44.709616382335888 0 -6.054095957073601 0 1 0 I I #
point $-1 -44.709616382335888 30.22343869605562 -6.054095957073601 #
straight-curve $-1 -44.709616382335888 -13.473416352301399 -4.4563333568197443 0 -1 0 I I #
point $-1 -44.709616382335888 -30.22343869605562 -4.4563333568197443 #
point $-1 -44.709616382335888 -23.670226713149976 -4.4563333568197443 #
straight-curve $-1 -44.709616382335888 -23.670226713149976 -1.4781666784098721 0 0 -1 I I #
straight-curve $-1 -44.709616382335888 -30.22343869605562 0 0 0 -1 I I #
straight-curve $-1 -44.709616382335888 -17.369392454026908 38.333267874058834 0 0 -1 I I #
point $-1 -44.709616382335888 -17.369392454026908 6.054095957073601 #
straight-curve $-1 -44.709616382335888 -10.25990479179422 0.019293736476136285 0 -1 0 I I #
point $-1 -44.709616382335888 -17.369392454026908 0.019293736476139137 #
point $-1 -38.875139901059427 -21.869988353400526 1.6841718591544357 #
point $-1 -38.875139901059427 -19.169630813776354 1.6841718591544357 #
edge $-1 $539 -6.054095957073601 $533 -0.019293736476139137 $530 $589 forward 7 unknown #
straight-curve $-1 -44.709616382335888 13.53651078324704 0.019293736476136285 0 -1 0 I I #
point $-1 -44.709616382335888 30.223438696055613 0.019293736476139137 #
straight-curve $-1 0 30.22343869605562 6.054095957073601 -1 0 0 I I #
point $-1 -44.709616382335888 30.22343869605562 6.054095957073601 #
point $-1 -38.875139901059427 25.722842796681999 1.6841718591544357 #
point $-1 -38.875139901059427 28.42320033630617 1.6841718591544357 #
straight-curve $-1 44.709616382335888 0 6.054095957073601 0 1 0 I I #
straight-curve $-1 44.709616382335888 30.22343869605562 0 0 0 -1 I I #
point $-1 44.709616382335888 30.22343869605562 6.054095957073601 #
point $-1 39.848207420581701 19.339273882562939 1.2967497099464216 #
point $-1 39.848207420581701 23.420835687622695 1.2967497099464216 #
point $-1 39.848207420581701 27.502397492682451 1.2967497099464216 #
straight-curve $-1 -44.709616382335888 30.22343869605562 0 0 0 -1 I I #
End-of-ACIS-data 