500 0 13 0           
7 Unknown 11 ACIS 5.0 NT 24 Fri Mar 26 18:19:26 1999 
-1 9.9999999999999995e-007 1e-010 
body $-1 $13 $-1 $14 #
body $-1 $15 $-1 $16 #
body $-1 $17 $-1 $18 #
body $-1 $19 $-1 $20 #
body $-1 $21 $-1 $22 #
body $-1 $23 $-1 $24 #
body $-1 $25 $-1 $26 #
body $-1 $27 $-1 $28 #
body $-1 $29 $-1 $30 #
body $-1 $31 $-1 $32 #
body $-1 $33 $-1 $34 #
body $-1 $35 $-1 $36 #
body $-1 $37 $-1 $38 #
lump $-1 $-1 $39 $0 #
transform $-1 1 0 0 0 1 0 0 0 1 47.217017120883817 19.200655120362821 7.0871963708686243 1 rotate no_reflect no_shear #
lump $-1 $-1 $40 $1 #
transform $-1 1 0 0 0 1 0 0 0 1 47.217017120883817 19.200655120362821 7.0871963708686243 1 rotate no_reflect no_shear #
lump $-1 $-1 $41 $2 #
transform $-1 1 0 0 0 1 0 0 0 1 47.217017120883817 19.200655120362821 7.0871963708686243 1 rotate no_reflect no_shear #
lump $-1 $-1 $42 $3 #
transform $-1 1 0 0 0 1 0 0 0 1 47.217017120883817 19.200655120362821 7.0871963708686243 1 rotate no_reflect no_shear #
lump $-1 $-1 $43 $4 #
transform $-1 1 0 0 0 1 0 0 0 1 47.217017120883817 19.200655120362821 7.0871963708686243 1 rotate no_reflect no_shear #
lump $-1 $-1 $44 $5 #
transform $-1 1 0 0 0 1 0 0 0 1 47.217017120883817 19.200655120362821 7.0871963708686243 1 rotate no_reflect no_shear #
lump $-1 $-1 $45 $6 #
transform $-1 1 0 0 0 1 0 0 0 1 47.217017120883817 19.200655120362821 7.0871963708686243 1 rotate no_reflect no_shear #
lump $-1 $-1 $46 $7 #
transform $-1 1 0 0 0 1 0 0 0 1 47.217017120883817 19.200655120362821 7.0871963708686243 1 rotate no_reflect no_shear #
lump $-1 $-1 $47 $8 #
transform $-1 1 0 0 0 1 0 0 0 1 47.217017120883817 19.200655120362821 7.0871963708686243 1 rotate no_reflect no_shear #
lump $-1 $-1 $48 $9 #
transform $-1 1 0 0 0 1 0 0 0 1 47.217017120883817 19.200655120362821 7.0871963708686243 1 rotate no_reflect no_shear #
lump $-1 $-1 $49 $10 #
transform $-1 1 0 0 0 1 0 0 0 1 47.217017120883817 19.200655120362821 7.0871963708686243 1 rotate no_reflect no_shear #
lump $-1 $-1 $50 $11 #
transform $-1 1 0 0 0 1 0 0 0 1 47.217017120883817 19.200655120362821 7.0871963708686243 1 rotate no_reflect no_shear #
lump $-1 $-1 $51 $12 #
transform $-1 1 0 0 0 1 0 0 0 1 47.217017120883817 19.200655120362821 7.0871963708686243 1 rotate no_reflect no_shear #
shell $-1 $-1 $-1 $52 $-1 $13 #
shell $-1 $-1 $-1 $53 $-1 $15 #
shell $-1 $-1 $-1 $54 $-1 $17 #
shell $-1 $-1 $-1 $55 $-1 $19 #
shell $-1 $-1 $-1 $56 $-1 $21 #
shell $-1 $-1 $-1 $57 $-1 $23 #
shell $-1 $-1 $-1 $58 $-1 $25 #
shell $-1 $-1 $-1 $59 $-1 $27 #
shell $-1 $-1 $-1 $60 $-1 $29 #
shell $-1 $-1 $-1 $61 $-1 $31 #
shell $-1 $-1 $-1 $62 $-1 $33 #
shell $-1 $-1 $-1 $63 $-1 $35 #
shell $-1 $-1 $-1 $64 $-1 $37 #
face $-1 $65 $66 $39 $-1 $67 reversed single #
face $-1 $68 $69 $40 $-1 $70 forward single #
face $-1 $71 $72 $41 $-1 $73 reversed single #
face $-1 $74 $75 $42 $-1 $76 forward single #
face $-1 $77 $78 $43 $-1 $79 forward single #
face $-1 $80 $81 $44 $-1 $82 forward single #
face $-1 $83 $84 $45 $-1 $85 reversed single #
face $-1 $86 $87 $46 $-1 $88 forward single #
face $-1 $89 $90 $47 $-1 $91 forward single #
face $-1 $92 $93 $48 $-1 $94 forward single #
face $-1 $95 $96 $49 $-1 $97 reversed single #
face $-1 $98 $99 $50 $-1 $100 forward single #
face $-1 $101 $102 $51 $-1 $103 forward single #
face $-1 $104 $105 $39 $-1 $106 forward single #
loop $-1 $-1 $107 $52 #
plane-surface $-1 0 -19.200655120362821 0 0 1 0 0 0 1 forward_v I I I I #
face $-1 $108 $109 $40 $-1 $110 reversed single #
loop $-1 $-1 $111 $53 #
plane-surface $-1 0 -19.200655120362821 0 0 1 0 0 0 1 forward_v I I I I #
face $-1 $112 $113 $41 $-1 $114 reversed single #
loop $-1 $-1 $115 $54 #
plane-surface $-1 33.257253478808032 -2.466040291943262 134.84049794161788 0 -1 0 -0.62932039886446345 0 -0.77714595512881146 forward_v I I I I #
face $-1 $116 $117 $42 $-1 $118 forward single #
loop $-1 $119 $120 $55 #
cone-surface $-1 43.774985949450773 -8.2392268676671261 4.1661282622313367 -0.62932039886446345 0 -0.77714595512881146 0.38857297756440573 0 -0.31466019943223172 1 I I 0 1 0.5 forward I I I I #
face $-1 $121 $122 $43 $-1 $123 forward single #
loop $-1 $124 $125 $56 #
cone-surface $-1 43.774985949450773 -6.0742819017706768 4.1661282622313367 -0.62932039886446345 0 -0.77714595512881146 0.38857297756440573 0 -0.31466019943223172 1 I I 0 1 0.5 forward I I I I #
face $-1 $126 $127 $44 $-1 $128 forward single #
loop $-1 $129 $130 $57 #
cone-surface $-1 43.774985949450773 -3.9093369358742276 4.1661282622313367 -0.62932039886446345 0 -0.77714595512881146 0.38857297756440573 0 -0.31466019943223172 1 I I 0 1 0.5 forward I I I I #
face $-1 $131 $132 $45 $-1 $133 reversed single #
loop $-1 $-1 $134 $58 #
plane-surface $-1 33.257253478808032 16.871220767897825 134.84049794161788 0 -1 0 -0.62932039886446345 0 -0.77714595512881146 forward_v I I I I #
face $-1 $135 $136 $46 $-1 $137 forward single #
loop $-1 $138 $139 $59 #
cone-surface $-1 43.774985949450773 11.098034192173966 4.1661282622313367 -0.62932039886446345 0 -0.77714595512881146 0.38857297756440573 0 -0.31466019943223172 1 I I 0 1 0.5 forward I I I I #
face $-1 $140 $141 $47 $-1 $142 forward single #
loop $-1 $143 $144 $60 #
cone-surface $-1 43.774985949450773 13.262979158070412 4.1661282622313367 -0.62932039886446345 0 -0.77714595512881146 0.38857297756440573 0 -0.31466019943223172 1 I I 0 1 0.5 forward I I I I #
face $-1 $145 $146 $48 $-1 $147 forward single #
loop $-1 $148 $149 $61 #
cone-surface $-1 43.774985949450773 15.427924123966864 4.1661282622313367 -0.62932039886446345 0 -0.77714595512881146 0.38857297756440573 0 -0.31466019943223172 1 I I 0 1 0.5 forward I I I I #
face $-1 $150 $151 $49 $-1 $152 reversed single #
loop $-1 $-1 $153 $62 #
plane-surface $-1 -125.5063803977223 2.827179118219366 56.709553760782285 0 1 0 -0.82903758062907751 0 0.55919289150049634 forward_v I I I I #
face $-1 $154 $155 $50 $-1 $156 forward single #
loop $-1 $157 $158 $63 #
cone-surface $-1 -45.728517819059526 5.4853581183069373 5.2153582882197478 0.82903758062907751 0 -0.55919289150049634 0.27959644575024817 0 0.41451879031453875 1 I I 0 1 0.5 forward I I I I #
face $-1 $159 $160 $51 $-1 $161 forward single #
loop $-1 $162 $163 $64 #
cone-surface $-1 -45.728517819059526 9.4726266184382943 5.2153582882197478 0.82903758062907751 0 -0.55919289150049634 0.27959644575024817 0 0.41451879031453875 1 I I 0 1 0.5 forward I I I I #
face $-1 $164 $165 $39 $-1 $166 reversed single #
loop $-1 $-1 $167 $65 #
plane-surface $-1 0 0 7.0871963708686243 0 0 1 1 0 0 forward_v I I I I #
coedge $-1 $168 $169 $170 $171 reversed $66 $-1 #
face $-1 $172 $173 $40 $-1 $174 reversed single #
loop $-1 $-1 $175 $68 #
plane-surface $-1 0 0 -7.0871963708686243 0 0 1 1 0 0 forward_v I I I I #
coedge $-1 $176 $177 $178 $179 forward $69 $-1 #
face $-1 $180 $181 $41 $-1 $182 reversed single #
loop $-1 $-1 $183 $71 #
plane-surface $-1 -26.172010616601575 -6.0742819017706768 61.451470204132491 0.62932039886446345 0 0.77714595512881146 0.77714595512881146 0 -0.62932039886446345 forward_v I I I I #
coedge $-1 $184 $185 $186 $187 reversed $72 $-1 #
face $-1 $-1 $188 $42 $-1 $189 forward single #
loop $-1 $190 $191 $74 #
cone-surface $-1 43.302995650302428 -8.2392268676671261 3.5832687958847282 -0.62932039886446345 0 -0.77714595512881146 0.19428648878220287 0 -0.15733009971611586 1 I I -0.70710678118654746 0.70710678118654746 0.25 forward I I I I #
loop $-1 $-1 $192 $55 #
coedge $-1 $120 $120 $193 $194 reversed $75 $-1 #
face $-1 $-1 $195 $43 $-1 $196 forward single #
loop $-1 $197 $198 $77 #
cone-surface $-1 43.302995650302428 -6.0742819017706768 3.5832687958847282 -0.62932039886446345 0 -0.77714595512881146 0.19428648878220287 0 -0.15733009971611586 1 I I -0.70710678118654746 0.70710678118654746 0.25 forward I I I I #
loop $-1 $-1 $199 $56 #
coedge $-1 $125 $125 $200 $201 reversed $78 $-1 #
face $-1 $-1 $202 $44 $-1 $203 forward single #
loop $-1 $204 $205 $80 #
cone-surface $-1 43.302995650302428 -3.9093369358742276 3.5832687958847282 -0.62932039886446345 0 -0.77714595512881146 0.19428648878220287 0 -0.15733009971611586 1 I I -0.70710678118654746 0.70710678118654746 0.25 forward I I I I #
loop $-1 $-1 $206 $57 #
coedge $-1 $130 $130 $207 $208 reversed $81 $-1 #
face $-1 $209 $210 $45 $-1 $211 reversed single #
loop $-1 $-1 $212 $83 #
plane-surface $-1 -26.172010616601575 13.262979158070412 61.451470204132491 0.62932039886446345 0 0.77714595512881146 0.77714595512881146 0 -0.62932039886446345 forward_v I I I I #
coedge $-1 $213 $214 $215 $216 reversed $84 $-1 #
face $-1 $-1 $217 $46 $-1 $218 forward single #
loop $-1 $219 $220 $86 #
cone-surface $-1 43.302995650302428 11.098034192173966 3.5832687958847282 -0.62932039886446345 0 -0.77714595512881146 0.19428648878220287 0 -0.15733009971611586 1 I I -0.70710678118654746 0.70710678118654746 0.25 forward I I I I #
loop $-1 $-1 $221 $59 #
coedge $-1 $139 $139 $222 $223 reversed $87 $-1 #
face $-1 $-1 $224 $47 $-1 $225 forward single #
loop $-1 $226 $227 $89 #
cone-surface $-1 43.302995650302428 13.262979158070412 3.5832687958847282 -0.62932039886446345 0 -0.77714595512881146 0.19428648878220287 0 -0.15733009971611586 1 I I -0.70710678118654746 0.70710678118654746 0.25 forward I I I I #
loop $-1 $-1 $228 $60 #
coedge $-1 $144 $144 $229 $230 reversed $90 $-1 #
face $-1 $-1 $231 $48 $-1 $232 forward single #
loop $-1 $233 $234 $92 #
cone-surface $-1 43.302995650302428 15.427924123966864 3.5832687958847282 -0.62932039886446345 0 -0.77714595512881146 0.19428648878220287 0 -0.15733009971611586 1 I I -0.70710678118654746 0.70710678118654746 0.25 forward I I I I #
loop $-1 $-1 $235 $61 #
coedge $-1 $149 $149 $236 $237 reversed $93 $-1 #
face $-1 $238 $239 $49 $-1 $240 reversed single #
loop $-1 $-1 $241 $95 #
plane-surface $-1 -47.217017120883796 7.4789923683726158 3.9027130970713628 -0.82903758062907751 0 0.55919289150049634 0.55919289150049634 0 0.82903758062907751 forward_v I I I I #
coedge $-1 $242 $243 $244 $245 reversed $96 $-1 #
face $-1 $-1 $246 $50 $-1 $247 forward single #
loop $-1 $248 $249 $98 #
cone-surface $-1 -45.106739633587715 5.4853581183069373 4.7959636195943753 0.82903758062907751 0 -0.55919289150049634 0.13979822287512408 0 0.20725939515726938 1 I I -0.70710678118654746 0.70710678118654746 0.25 forward I I I I #
loop $-1 $-1 $250 $63 #
coedge $-1 $158 $158 $251 $252 reversed $99 $-1 #
face $-1 $-1 $253 $51 $-1 $254 forward single #
loop $-1 $255 $256 $101 #
cone-surface $-1 -45.106739633587715 9.4726266184382943 4.7959636195943753 0.82903758062907751 0 -0.55919289150049634 0.13979822287512408 0 0.20725939515726938 1 I I -0.70710678118654746 0.70710678118654746 0.25 forward I I I I #
loop $-1 $-1 $257 $64 #
coedge $-1 $163 $163 $258 $259 reversed $102 $-1 #
face $-1 $260 $261 $39 $-1 $262 reversed single #
loop $-1 $-1 $263 $104 #
plane-surface $-1 0 0 -7.0871963708686243 0 0 1 1 0 0 forward_v I I I I #
coedge $-1 $264 $265 $266 $267 forward $105 $-1 #
coedge $-1 $268 $107 $269 $270 reversed $66 $-1 #
coedge $-1 $107 $268 $271 $272 forward $66 $-1 #
coedge $-1 $273 $263 $107 $171 forward $165 $-1 #
edge $-1 $274 -47.217017120883817 $275 47.217017120883817 $107 $276 forward 7 unknown #
face $-1 $277 $278 $40 $-1 $279 reversed single #
loop $-1 $-1 $280 $108 #
plane-surface $-1 -44.547015844988991 -26.389352376662554 0 0 1 0 0 0 1 forward_v I I I I #
coedge $-1 $281 $282 $177 $283 forward $109 $-1 #
coedge $-1 $284 $111 $285 $286 reversed $69 $-1 #
coedge $-1 $111 $284 $175 $283 reversed $69 $-1 #
coedge $-1 $287 $288 $111 $179 reversed $278 $-1 #
edge $-1 $289 -7.0871963708686243 $290 7.0871963708686243 $178 $291 forward 7 unknown #
face $-1 $292 $293 $41 $-1 $294 forward single #
loop $-1 $-1 $295 $112 #
plane-surface $-1 33.257253478808032 -9.6825235115980917 134.84049794161788 0 1 0 0.62932039886446345 0 0.77714595512881146 forward_v I I I I #
coedge $-1 $296 $297 $298 $299 reversed $113 $-1 #
coedge $-1 $185 $115 $300 $301 reversed $72 $-1 #
coedge $-1 $115 $184 $296 $302 reversed $72 $-1 #
coedge $-1 $298 $303 $115 $187 forward $293 $-1 #
edge $-1 $304 -30.588390381479801 $305 -24.333648437478193 $186 $306 forward 7 unknown #
loop $-1 $-1 $193 $116 #
plane-surface $-1 -26.172010616601575 -6.0742819017706768 61.451470204132491 0.62932039886446345 0 0.77714595512881146 0.77714595512881146 0 -0.62932039886446345 forward_v I I I I #
loop $-1 $-1 $307 $74 #
coedge $-1 $191 $191 $192 $308 reversed $117 $-1 #
coedge $-1 $192 $192 $191 $308 forward $119 $-1 #
coedge $-1 $193 $193 $120 $194 forward $188 $-1 #
edge $-1 $309 0 $309 6.2831853071796004 $193 $310 forward 7 unknown #
loop $-1 $-1 $200 $121 #
plane-surface $-1 -26.172010616601575 -6.0742819017706768 61.451470204132491 0.62932039886446345 0 0.77714595512881146 0.77714595512881146 0 -0.62932039886446345 forward_v I I I I #
loop $-1 $-1 $311 $77 #
coedge $-1 $198 $198 $199 $312 reversed $122 $-1 #
coedge $-1 $199 $199 $198 $312 forward $124 $-1 #
coedge $-1 $200 $200 $125 $201 forward $195 $-1 #
edge $-1 $313 0 $313 6.2831853071796004 $200 $314 forward 7 unknown #
loop $-1 $-1 $207 $126 #
plane-surface $-1 -26.172010616601575 -6.0742819017706768 61.451470204132491 0.62932039886446345 0 0.77714595512881146 0.77714595512881146 0 -0.62932039886446345 forward_v I I I I #
loop $-1 $-1 $315 $80 #
coedge $-1 $205 $205 $206 $316 reversed $127 $-1 #
coedge $-1 $206 $206 $205 $316 forward $129 $-1 #
coedge $-1 $207 $207 $130 $208 forward $202 $-1 #
edge $-1 $317 0 $317 6.2831853071796004 $207 $318 forward 7 unknown #
face $-1 $319 $320 $45 $-1 $321 reversed single #
loop $-1 $-1 $322 $131 #
plane-surface $-1 33.257253478808032 9.6547375482429967 134.84049794161788 0 1 0 0.62932039886446345 0 0.77714595512881146 forward_v I I I I #
coedge $-1 $323 $324 $325 $326 reversed $132 $-1 #
coedge $-1 $214 $134 $327 $328 reversed $84 $-1 #
coedge $-1 $134 $213 $323 $329 reversed $84 $-1 #
coedge $-1 $325 $330 $134 $216 forward $331 $-1 #
edge $-1 $332 -30.588390381479801 $333 -24.333648437478193 $215 $334 forward 7 unknown #
loop $-1 $-1 $222 $135 #
plane-surface $-1 -26.172010616601575 13.262979158070412 61.451470204132491 0.62932039886446345 0 0.77714595512881146 0.77714595512881146 0 -0.62932039886446345 forward_v I I I I #
loop $-1 $-1 $335 $86 #
coedge $-1 $220 $220 $221 $336 reversed $136 $-1 #
coedge $-1 $221 $221 $220 $336 forward $138 $-1 #
coedge $-1 $222 $222 $139 $223 forward $217 $-1 #
edge $-1 $337 0 $337 6.2831853071796004 $222 $338 forward 7 unknown #
loop $-1 $-1 $229 $140 #
plane-surface $-1 -26.172010616601575 13.262979158070412 61.451470204132491 0.62932039886446345 0 0.77714595512881146 0.77714595512881146 0 -0.62932039886446345 forward_v I I I I #
loop $-1 $-1 $339 $89 #
coedge $-1 $227 $227 $228 $340 reversed $141 $-1 #
coedge $-1 $228 $228 $227 $340 forward $143 $-1 #
coedge $-1 $229 $229 $144 $230 forward $224 $-1 #
edge $-1 $341 0 $341 6.2831853071796004 $229 $342 forward 7 unknown #
loop $-1 $-1 $236 $145 #
plane-surface $-1 -26.172010616601575 13.262979158070412 61.451470204132491 0.62932039886446345 0 0.77714595512881146 0.77714595512881146 0 -0.62932039886446345 forward_v I I I I #
loop $-1 $-1 $343 $92 #
coedge $-1 $234 $234 $235 $344 reversed $146 $-1 #
coedge $-1 $235 $235 $234 $344 forward $148 $-1 #
coedge $-1 $236 $236 $149 $237 forward $231 $-1 #
edge $-1 $345 0 $345 6.2831853071796004 $236 $346 forward 7 unknown #
face $-1 $347 $348 $49 $-1 $349 reversed single #
loop $-1 $-1 $350 $150 #
plane-surface $-1 -125.5063803977223 12.130805618525866 56.709553760782285 0 -1 0 0.82903758062907751 0 -0.55919289150049634 forward_v I I I I #
coedge $-1 $351 $352 $353 $354 reversed $151 $-1 #
coedge $-1 $243 $153 $355 $356 reversed $96 $-1 #
coedge $-1 $153 $242 $351 $357 reversed $96 $-1 #
coedge $-1 $353 $358 $153 $245 forward $359 $-1 #
edge $-1 $360 15.536173077977331 $361 17.684134100996872 $244 $362 forward 7 unknown #
loop $-1 $-1 $251 $154 #
plane-surface $-1 -47.217017120883796 7.4789923683726158 3.9027130970713628 -0.82903758062907751 0 0.55919289150049634 0.55919289150049634 0 0.82903758062907751 forward_v I I I I #
loop $-1 $-1 $363 $98 #
coedge $-1 $249 $249 $250 $364 reversed $155 $-1 #
coedge $-1 $250 $250 $249 $364 forward $157 $-1 #
coedge $-1 $251 $251 $158 $252 forward $246 $-1 #
edge $-1 $365 0 $365 6.2831853071796004 $251 $366 forward 7 unknown #
loop $-1 $-1 $258 $159 #
plane-surface $-1 -47.217017120883796 7.4789923683726158 3.9027130970713628 -0.82903758062907751 0 0.55919289150049634 0.55919289150049634 0 0.82903758062907751 forward_v I I I I #
loop $-1 $-1 $367 $101 #
coedge $-1 $256 $256 $257 $368 reversed $160 $-1 #
coedge $-1 $257 $257 $256 $368 forward $162 $-1 #
coedge $-1 $258 $258 $163 $259 forward $253 $-1 #
edge $-1 $369 0 $369 6.2831853071796004 $258 $370 forward 7 unknown #
face $-1 $371 $372 $39 $-1 $373 reversed single #
loop $-1 $-1 $374 $164 #
plane-surface $-1 -47.217017120883817 0 0 1 0 0 0 0 -1 forward_v I I I I #
coedge $-1 $170 $375 $376 $377 forward $165 $-1 #
coedge $-1 $378 $167 $379 $380 forward $105 $-1 #
coedge $-1 $167 $378 $268 $381 forward $105 $-1 #
coedge $-1 $269 $382 $167 $267 reversed $383 $-1 #
edge $-1 $384 -19.200655120362821 $385 19.200655120362821 $266 $386 forward 7 unknown #
coedge $-1 $169 $168 $265 $381 reversed $66 $-1 #
coedge $-1 $376 $266 $168 $270 forward $383 $-1 #
edge $-1 $384 -7.0871963708686243 $274 7.0871963708686243 $269 $387 forward 7 unknown #
coedge $-1 $388 $389 $169 $272 reversed $261 $-1 #
edge $-1 $390 -7.0871963708686243 $275 7.0871963708686243 $271 $391 forward 7 unknown #
coedge $-1 $375 $170 $389 $392 forward $165 $-1 #
vertex $-1 $270 $393 #
vertex $-1 $392 $394 #
straight-curve $-1 0 -19.200655120362821 -7.0871963708686243 -1 0 0 I I #
face $-1 $395 $396 $40 $-1 $397 reversed single #
loop $-1 $-1 $178 $172 #
plane-surface $-1 -46.661927641430239 -22.795003748512688 0 1 0 0 0 0 -1 forward_v I I I I #
coedge $-1 $398 $399 $400 $401 forward $173 $-1 #
coedge $-1 $402 $175 $403 $404 forward $109 $-1 #
coedge $-1 $175 $402 $287 $405 forward $109 $-1 #
edge $-1 $289 -46.661927641430239 $406 -42.432104048547743 $175 $407 forward 7 unknown #
coedge $-1 $177 $176 $408 $409 forward $69 $-1 #
coedge $-1 $410 $411 $176 $286 forward $412 $-1 #
edge $-1 $413 42.432104048547743 $290 46.661927641430239 $285 $414 forward 7 unknown #
coedge $-1 $400 $178 $282 $405 reversed $278 $-1 #
coedge $-1 $178 $400 $410 $415 reversed $278 $-1 #
vertex $-1 $283 $416 #
vertex $-1 $415 $417 #
straight-curve $-1 -46.661927641430239 -19.200655120362821 0 0 0 1 I I #
face $-1 $-1 $418 $41 $-1 $419 reversed single #
loop $-1 $-1 $186 $180 #
plane-surface $-1 0 0 7.0871963708686243 0 0 1 1 0 0 forward_v I I I I #
coedge $-1 $420 $421 $422 $423 reversed $181 $-1 #
coedge $-1 $424 $183 $185 $302 forward $113 $-1 #
coedge $-1 $183 $424 $420 $425 forward $113 $-1 #
coedge $-1 $422 $186 $183 $299 forward $293 $-1 #
edge $-1 $305 -0.5711006589420764 $426 6.6453825607127532 $298 $427 forward 7 unknown #
coedge $-1 $428 $429 $184 $301 forward $418 $-1 #
edge $-1 $430 -65.398042862086058 $304 -60.333052599940316 $300 $431 forward 7 unknown #
edge $-1 $305 86.385685147594074 $430 94.434034241767634 $185 $432 forward 7 unknown #
coedge $-1 $186 $422 $428 $433 forward $293 $-1 #
vertex $-1 $187 $434 #
vertex $-1 $187 $435 #
straight-curve $-1 16.628626739404016 -2.466040291943262 7.0871963708686252 -1 0 0 I I #
coedge $-1 $307 $307 $-1 $436 reversed $190 $-1 #
edge $-1 $437 0 $437 6.2831853071796004 $191 $438 forward 7 unknown #
vertex $-1 $194 $439 #
ellipse-curve $-1 44.089646148883013 -8.2392268676671261 4.5547012397957536 0.62932039886446345 0 0.77714595512881146 0.38857297756440573 0 -0.31466019943223172 1 I I #
coedge $-1 $311 $311 $-1 $440 reversed $197 $-1 #
edge $-1 $441 0 $441 6.2831853071796004 $198 $442 forward 7 unknown #
vertex $-1 $201 $443 #
ellipse-curve $-1 44.089646148883013 -6.0742819017706768 4.5547012397957536 0.62932039886446345 0 0.77714595512881146 0.38857297756440573 0 -0.31466019943223172 1 I I #
coedge $-1 $315 $315 $-1 $444 reversed $204 $-1 #
edge $-1 $445 0 $445 6.2831853071796004 $205 $446 forward 7 unknown #
vertex $-1 $208 $447 #
ellipse-curve $-1 44.089646148883013 -3.9093369358742276 4.5547012397957536 0.62932039886446345 0 0.77714595512881146 0.38857297756440573 0 -0.31466019943223172 1 I I #
face $-1 $-1 $331 $45 $-1 $448 forward single #
loop $-1 $-1 $449 $209 #
plane-surface $-1 47.217017120883817 0 0 -1 0 0 0 0 1 forward_v I I I I #
coedge $-1 $450 $451 $452 $453 reversed $210 $-1 #
coedge $-1 $454 $212 $214 $329 forward $132 $-1 #
coedge $-1 $212 $454 $450 $455 forward $132 $-1 #
coedge $-1 $452 $215 $212 $326 forward $331 $-1 #
edge $-1 $333 -10.239731188862619 $456 -3.0232479692077909 $325 $457 forward 7 unknown #
coedge $-1 $458 $459 $213 $328 forward $320 $-1 #
edge $-1 $460 -65.398042862086058 $332 -60.333052599940316 $327 $461 forward 7 unknown #
edge $-1 $333 86.385685147594074 $460 94.434034241767634 $214 $462 forward 7 unknown #
coedge $-1 $215 $452 $458 $463 forward $331 $-1 #
loop $-1 $-1 $452 $319 #
vertex $-1 $328 $464 #
vertex $-1 $216 $465 #
straight-curve $-1 16.628626739404016 16.871220767897825 7.0871963708686252 -1 0 0 I I #
coedge $-1 $335 $335 $-1 $466 reversed $219 $-1 #
edge $-1 $467 0 $467 6.2831853071796004 $220 $468 forward 7 unknown #
vertex $-1 $223 $469 #
ellipse-curve $-1 44.089646148883013 11.098034192173966 4.5547012397957536 0.62932039886446345 0 0.77714595512881146 0.38857297756440573 0 -0.31466019943223172 1 I I #
coedge $-1 $339 $339 $-1 $470 reversed $226 $-1 #
edge $-1 $471 0 $471 6.2831853071796004 $227 $472 forward 7 unknown #
vertex $-1 $230 $473 #
ellipse-curve $-1 44.089646148883013 13.262979158070412 4.5547012397957536 0.62932039886446345 0 0.77714595512881146 0.38857297756440573 0 -0.31466019943223172 1 I I #
coedge $-1 $343 $343 $-1 $474 reversed $233 $-1 #
edge $-1 $475 0 $475 6.2831853071796004 $234 $476 forward 7 unknown #
vertex $-1 $237 $477 #
ellipse-curve $-1 44.089646148883013 15.427924123966864 4.5547012397957536 0.62932039886446345 0 0.77714595512881146 0.38857297756440573 0 -0.31466019943223172 1 I I #
face $-1 $-1 $359 $49 $-1 $478 forward single #
loop $-1 $-1 $479 $238 #
plane-surface $-1 -47.217017120883817 0 0 1 0 0 0 0 -1 forward_v I I I I #
coedge $-1 $480 $481 $482 $483 reversed $239 $-1 #
coedge $-1 $484 $241 $243 $357 forward $151 $-1 #
coedge $-1 $241 $484 $480 $485 forward $151 $-1 #
coedge $-1 $482 $244 $241 $354 forward $359 $-1 #
edge $-1 $361 -0.91231706596694195 $486 8.3913094343395578 $353 $487 forward 7 unknown #
coedge $-1 $488 $489 $242 $356 forward $348 $-1 #
edge $-1 $490 -24.452063783319812 $360 -21.267580509522517 $355 $491 forward 7 unknown #
edge $-1 $361 -3.8411808441552955 $490 3.8059745140678707e-014 $243 $492 forward 7 unknown #
coedge $-1 $244 $482 $488 $493 forward $359 $-1 #
loop $-1 $-1 $482 $347 #
vertex $-1 $356 $494 #
vertex $-1 $245 $495 #
straight-curve $-1 -62.753190198861148 2.827179118219366 7.0871963708686252 1 0 0 I I #
coedge $-1 $363 $363 $-1 $496 reversed $248 $-1 #
edge $-1 $497 0 $497 6.2831853071796004 $249 $498 forward 7 unknown #
vertex $-1 $252 $499 #
ellipse-curve $-1 -46.143036609374043 5.4853581183069373 5.4949547339699825 -0.82903758062907751 0 0.55919289150049634 0.27959644575024817 0 0.41451879031453875 1 I I #
coedge $-1 $367 $367 $-1 $500 reversed $255 $-1 #
edge $-1 $501 0 $501 6.2831853071796004 $256 $502 forward 7 unknown #
vertex $-1 $259 $503 #
ellipse-curve $-1 -46.143036609374043 9.4726266184382943 5.4949547339699825 -0.82903758062907751 0 0.55919289150049634 0.27959644575024817 0 0.41451879031453875 1 I I #
face $-1 $-1 $383 $39 $-1 $504 reversed single #
loop $-1 $-1 $505 $260 #
plane-surface $-1 0 19.200655120362821 0 0 -1 0 0 0 -1 forward_v I I I I #
coedge $-1 $389 $388 $506 $507 forward $261 $-1 #
coedge $-1 $263 $273 $508 $509 forward $165 $-1 #
coedge $-1 $382 $269 $263 $377 reversed $383 $-1 #
edge $-1 $510 -19.200655120362821 $274 19.200655120362821 $376 $511 forward 7 unknown #
coedge $-1 $265 $264 $388 $512 forward $105 $-1 #
coedge $-1 $505 $506 $264 $380 reversed $372 $-1 #
edge $-1 $385 -47.217017120883817 $513 47.217017120883817 $379 $514 forward 7 unknown #
edge $-1 $390 -47.217017120883817 $384 47.217017120883817 $268 $515 forward 7 unknown #
coedge $-1 $266 $376 $505 $516 reversed $383 $-1 #
loop $-1 $-1 $269 $371 #
vertex $-1 $267 $517 #
vertex $-1 $267 $518 #
straight-curve $-1 47.217017120883817 0 7.0871963708686243 0 1 0 I I #
straight-curve $-1 47.217017120883817 -19.200655120362821 0 0 0 -1 I I #
coedge $-1 $374 $271 $378 $512 reversed $261 $-1 #
coedge $-1 $271 $374 $273 $392 reversed $261 $-1 #
vertex $-1 $512 $519 #
straight-curve $-1 -47.217017120883817 -19.200655120362821 0 0 0 -1 I I #
edge $-1 $275 -19.200655120362821 $520 19.200655120362821 $389 $521 forward 7 unknown #
point $-1 47.217017120883817 -19.200655120362821 -7.0871963708686243 #
point $-1 -47.217017120883817 -19.200655120362821 -7.0871963708686243 #
face $-1 $-1 $412 $40 $-1 $522 forward single #
loop $-1 $-1 $523 $277 #
plane-surface $-1 -42.432104048547743 -22.795003748512688 0 -1 0 0 0 0 1 forward_v I I I I #
coedge $-1 $524 $280 $402 $525 reversed $173 $-1 #
coedge $-1 $280 $524 $526 $527 reversed $173 $-1 #
coedge $-1 $288 $287 $280 $401 reversed $278 $-1 #
edge $-1 $528 -7.0871963708686243 $529 7.0871963708686243 $400 $530 forward 7 unknown #
coedge $-1 $282 $281 $398 $525 forward $109 $-1 #
coedge $-1 $408 $523 $281 $404 reversed $396 $-1 #
edge $-1 $406 -3.5943486281498664 $531 3.5943486281498664 $403 $532 forward 7 unknown #
edge $-1 $529 -3.5943486281498664 $289 3.5943486281498664 $287 $533 forward 7 unknown #
vertex $-1 $404 $534 #
straight-curve $-1 0 -19.200655120362821 -7.0871963708686243 1 0 0 I I #
coedge $-1 $535 $403 $284 $409 reversed $396 $-1 #
edge $-1 $413 -7.0871963708686243 $406 7.0871963708686243 $408 $536 forward 7 unknown #
coedge $-1 $526 $285 $288 $415 forward $412 $-1 #
coedge $-1 $285 $526 $535 $537 forward $412 $-1 #
loop $-1 $-1 $285 $395 #
vertex $-1 $286 $538 #
straight-curve $-1 0 -19.200655120362821 7.0871963708686243 -1 0 0 I I #
edge $-1 $290 -3.5943486281498664 $528 3.5943486281498664 $288 $539 forward 7 unknown #
point $-1 -46.661927641430239 -19.200655120362821 -7.0871963708686243 #
point $-1 -46.661927641430239 -19.200655120362821 7.0871963708686243 #
loop $-1 $-1 $300 $292 #
plane-surface $-1 47.217017120883817 0 0 -1 0 0 0 0 1 forward_v I I I I #
coedge $-1 $421 $295 $297 $425 reversed $181 $-1 #
coedge $-1 $295 $420 $540 $541 reversed $181 $-1 #
coedge $-1 $303 $298 $295 $423 forward $293 $-1 #
edge $-1 $426 24.333648437478193 $542 30.588390381479801 $422 $543 forward 7 unknown #
coedge $-1 $297 $296 $429 $544 reversed $113 $-1 #
edge $-1 $545 -94.434034241767634 $426 -86.385685147594074 $420 $546 forward 7 unknown #
vertex $-1 $299 $547 #
straight-curve $-1 40.962275176882216 -3.0371409508853384 7.0871963708686252 0 -1 0 I I #
coedge $-1 $540 $300 $303 $433 reversed $418 $-1 #
coedge $-1 $300 $540 $424 $544 forward $418 $-1 #
vertex $-1 $301 $548 #
straight-curve $-1 47.217017120883817 -2.466040291943262 67.420248970808942 0 0 1 I I #
straight-curve $-1 -26.172010616601575 -2.466040291943262 61.451470204132491 0.77714595512881146 0 -0.62932039886446345 I I #
edge $-1 $542 -9.6825235115980917 $304 -2.466040291943262 $428 $549 forward 7 unknown #
point $-1 47.217017120883817 -2.466040291943262 7.0871963708686243 #
point $-1 40.962275176882208 -2.466040291943262 7.0871963708686252 #
edge $-1 $550 1 $550 0 $307 $-1 forward 7 unknown #
vertex $-1 $308 $551 #
ellipse-curve $-1 43.460325750018541 -8.2392268676671261 3.7775552846669309 0.62932039886446345 0 0.77714595512881146 0.38857297756440573 0 -0.31466019943223172 1 I I #
point $-1 44.478219126447414 -8.2392268676671261 4.2400410403635114 #
edge $-1 $552 1 $552 0 $311 $-1 forward 7 unknown #
vertex $-1 $312 $553 #
ellipse-curve $-1 43.460325750018541 -6.0742819017706768 3.7775552846669309 0.62932039886446345 0 0.77714595512881146 0.38857297756440573 0 -0.31466019943223172 1 I I #
point $-1 44.478219126447414 -6.0742819017706768 4.2400410403635114 #
edge $-1 $554 1 $554 0 $315 $-1 forward 7 unknown #
vertex $-1 $316 $555 #
ellipse-curve $-1 43.460325750018541 -3.9093369358742276 3.7775552846669309 0.62932039886446345 0 0.77714595512881146 0.38857297756440573 0 -0.31466019943223172 1 I I #
point $-1 44.478219126447414 -3.9093369358742276 4.2400410403635114 #
plane-surface $-1 0 0 7.0871963708686243 0 0 1 1 0 0 forward_v I I I I #
coedge $-1 $459 $458 $451 $556 forward $320 $-1 #
coedge $-1 $451 $322 $324 $455 reversed $210 $-1 #
coedge $-1 $322 $450 $449 $556 reversed $210 $-1 #
coedge $-1 $330 $325 $322 $453 forward $331 $-1 #
edge $-1 $456 24.333648437478193 $557 30.588390381479801 $452 $558 forward 7 unknown #
coedge $-1 $324 $323 $459 $559 reversed $132 $-1 #
edge $-1 $560 -94.434034241767634 $456 -86.385685147594074 $450 $561 forward 7 unknown #
vertex $-1 $326 $562 #
straight-curve $-1 40.962275176882216 6.6314895790352058 7.0871963708686252 0 -1 0 I I #
coedge $-1 $449 $327 $330 $463 reversed $320 $-1 #
coedge $-1 $327 $449 $454 $559 forward $320 $-1 #
vertex $-1 $328 $563 #
straight-curve $-1 47.217017120883817 16.871220767897825 67.420248970808942 0 0 1 I I #
straight-curve $-1 -26.172010616601575 16.871220767897825 61.451470204132491 0.77714595512881146 0 -0.62932039886446345 I I #
edge $-1 $557 9.6547375482429967 $332 16.871220767897825 $458 $564 forward 7 unknown #
point $-1 47.217017120883817 16.871220767897825 7.0871963708686243 #
point $-1 40.962275176882208 16.871220767897825 7.0871963708686252 #
edge $-1 $565 1 $565 0 $335 $-1 forward 7 unknown #
vertex $-1 $336 $566 #
ellipse-curve $-1 43.460325750018541 11.098034192173966 3.7775552846669309 0.62932039886446345 0 0.77714595512881146 0.38857297756440573 0 -0.31466019943223172 1 I I #
point $-1 44.478219126447414 11.098034192173966 4.2400410403635114 #
edge $-1 $567 1 $567 0 $339 $-1 forward 7 unknown #
vertex $-1 $340 $568 #
ellipse-curve $-1 43.460325750018541 13.262979158070412 3.7775552846669309 0.62932039886446345 0 0.77714595512881146 0.38857297756440573 0 -0.31466019943223172 1 I I #
point $-1 44.478219126447414 13.262979158070412 4.2400410403635114 #
edge $-1 $569 1 $569 0 $343 $-1 forward 7 unknown #
vertex $-1 $344 $570 #
ellipse-curve $-1 43.460325750018541 15.427924123966864 3.7775552846669309 0.62932039886446345 0 0.77714595512881146 0.38857297756440573 0 -0.31466019943223172 1 I I #
point $-1 44.478219126447414 15.427924123966864 4.2400410403635114 #
plane-surface $-1 0 0 7.0871963708686243 0 0 1 1 0 0 forward_v I I I I #
coedge $-1 $489 $488 $481 $571 forward $348 $-1 #
coedge $-1 $481 $350 $352 $485 reversed $239 $-1 #
coedge $-1 $350 $480 $479 $571 reversed $239 $-1 #
coedge $-1 $358 $353 $350 $483 forward $359 $-1 #
edge $-1 $486 -17.684134100996872 $572 -15.536173077977331 $482 $573 forward 7 unknown #
coedge $-1 $352 $351 $489 $574 reversed $151 $-1 #
edge $-1 $575 -3.8059745140678707e-014 $486 3.8411808441552955 $480 $576 forward 7 unknown #
vertex $-1 $354 $577 #
straight-curve $-1 -45.069056097864284 3.7394961841863079 7.0871963708686234 0 1 0 I I #
coedge $-1 $479 $355 $358 $493 reversed $348 $-1 #
coedge $-1 $355 $479 $484 $574 forward $348 $-1 #
vertex $-1 $356 $578 #
straight-curve $-1 -47.217017120883817 2.827179118219366 28.354776880391142 0 0 1 I I #
straight-curve $-1 -47.217017120883796 2.827179118219366 3.9027130970713628 -0.55919289150049634 0 -0.82903758062907751 I I #
edge $-1 $572 -12.130805618525866 $360 -2.827179118219366 $488 $579 forward 7 unknown #
point $-1 -47.217017120883817 2.827179118219366 7.0871963708686243 #
point $-1 -45.069056097864276 2.827179118219366 7.0871963708686243 #
edge $-1 $580 1 $580 0 $363 $-1 forward 7 unknown #
vertex $-1 $364 $581 #
ellipse-curve $-1 -45.313999028744988 5.4853581183069373 4.9357618424694998 -0.82903758062907751 0 0.55919289150049634 0.27959644575024817 0 0.41451879031453875 1 I I #
point $-1 -45.863440163623814 5.4853581183069373 5.9094735242845342 #
edge $-1 $582 1 $582 0 $367 $-1 forward 7 unknown #
vertex $-1 $368 $583 #
ellipse-curve $-1 -45.313999028744988 9.4726266184382943 4.9357618424694998 -0.82903758062907751 0 0.55919289150049634 0.27959644575024817 0 0.41451879031453875 1 I I #
point $-1 -45.863440163623814 9.4726266184382943 5.9094735242845342 #
plane-surface $-1 47.217017120883817 0 0 -1 0 0 0 0 1 forward_v I I I I #
coedge $-1 $508 $379 $382 $516 forward $372 $-1 #
coedge $-1 $379 $508 $374 $507 reversed $372 $-1 #
edge $-1 $513 -7.0871963708686243 $520 7.0871963708686243 $506 $584 forward 7 unknown #
coedge $-1 $506 $505 $375 $509 reversed $372 $-1 #
edge $-1 $520 -47.217017120883817 $510 47.217017120883817 $508 $585 forward 7 unknown #
vertex $-1 $377 $586 #
straight-curve $-1 47.217017120883817 0 -7.0871963708686243 0 -1 0 I I #
edge $-1 $513 -19.200655120362821 $390 19.200655120362821 $388 $587 forward 7 unknown #
vertex $-1 $380 $588 #
straight-curve $-1 0 19.200655120362821 7.0871963708686243 -1 0 0 I I #
straight-curve $-1 0 -19.200655120362821 7.0871963708686243 1 0 0 I I #
edge $-1 $385 -7.0871963708686243 $510 7.0871963708686243 $382 $589 forward 7 unknown #
point $-1 47.217017120883817 -19.200655120362821 7.0871963708686243 #
point $-1 47.217017120883817 19.200655120362821 7.0871963708686243 #
point $-1 -47.217017120883817 -19.200655120362821 7.0871963708686243 #
vertex $-1 $509 $590 #
straight-curve $-1 -47.217017120883817 0 -7.0871963708686243 0 1 0 I I #
plane-surface $-1 0 0 7.0871963708686243 0 0 1 1 0 0 forward_v I I I I #
coedge $-1 $403 $535 $524 $591 forward $396 $-1 #
coedge $-1 $399 $398 $523 $591 reversed $173 $-1 #
edge $-1 $531 -2.1149117964412483 $529 2.1149117964412483 $398 $592 forward 7 unknown #
coedge $-1 $411 $410 $399 $527 forward $412 $-1 #
edge $-1 $528 -2.1149117964412483 $593 2.1149117964412483 $399 $594 forward 7 unknown #
vertex $-1 $415 $595 #
vertex $-1 $405 $596 #
straight-curve $-1 -46.661927641430239 -26.389352376662554 0 0 0 -1 I I #
vertex $-1 $591 $597 #
straight-curve $-1 -42.432104048547743 -22.795003748512688 -7.0871963708686243 0 -1 0 I I #
straight-curve $-1 -46.661927641430239 -22.795003748512688 -7.0871963708686243 0 1 0 I I #
point $-1 -42.432104048547743 -19.200655120362821 -7.0871963708686243 #
coedge $-1 $523 $408 $411 $537 reversed $396 $-1 #
straight-curve $-1 -42.432104048547743 -19.200655120362821 0 0 0 -1 I I #
edge $-1 $593 -3.5943486281498664 $413 3.5943486281498664 $535 $598 forward 7 unknown #
point $-1 -42.432104048547743 -19.200655120362821 7.0871963708686243 #
straight-curve $-1 -46.661927641430239 -22.795003748512688 7.0871963708686243 0 -1 0 I I #
coedge $-1 $429 $428 $421 $541 forward $418 $-1 #
edge $-1 $542 60.333052599940316 $545 65.398042862086058 $540 $599 forward 7 unknown #
vertex $-1 $433 $600 #
straight-curve $-1 16.628626739404016 -9.6825235115980917 7.0871963708686252 1 0 0 I I #
edge $-1 $545 -6.6453825607127532 $430 0.5711006589420764 $429 $601 forward 7 unknown #
vertex $-1 $544 $602 #
straight-curve $-1 -26.172010616601575 -9.6825235115980917 61.451470204132491 -0.77714595512881146 0 0.62932039886446345 I I #
point $-1 40.962275176882208 -9.6825235115980917 7.0871963708686252 #
point $-1 47.217017120883817 -2.466040291943262 2.0222061087228838 #
straight-curve $-1 47.217017120883817 0 7.0871963708686243 0 1 0 I I #
vertex $-1 $436 $603 #
point $-1 43.848898727582949 -8.2392268676671261 3.4628950852346994 #
vertex $-1 $440 $604 #
point $-1 43.848898727582949 -6.0742819017706768 3.4628950852346994 #
vertex $-1 $444 $605 #
point $-1 43.848898727582949 -3.9093369358742276 3.4628950852346994 #
edge $-1 $557 60.333052599940316 $560 65.398042862086058 $449 $606 forward 7 unknown #
vertex $-1 $463 $607 #
straight-curve $-1 16.628626739404016 9.6547375482429967 7.0871963708686252 1 0 0 I I #
edge $-1 $560 3.0232479692077909 $460 10.239731188862619 $459 $608 forward 7 unknown #
vertex $-1 $559 $609 #
straight-curve $-1 -26.172010616601575 9.6547375482429967 61.451470204132491 -0.77714595512881146 0 0.62932039886446345 I I #
point $-1 40.962275176882208 9.6547375482429967 7.0871963708686252 #
point $-1 47.217017120883817 16.871220767897825 2.0222061087228838 #
straight-curve $-1 47.217017120883817 0 7.0871963708686243 0 1 0 I I #
vertex $-1 $466 $610 #
point $-1 43.848898727582949 11.098034192173966 3.4628950852346994 #
vertex $-1 $470 $611 #
point $-1 43.848898727582949 13.262979158070412 3.4628950852346994 #
vertex $-1 $474 $612 #
point $-1 43.848898727582949 15.427924123966864 3.4628950852346994 #
edge $-1 $572 21.267580509522517 $575 24.452063783319812 $479 $613 forward 7 unknown #
vertex $-1 $493 $614 #
straight-curve $-1 -62.753190198861148 12.130805618525866 7.0871963708686252 -1 0 0 I I #
edge $-1 $575 -8.3913094343395578 $490 0.91231706596694195 $489 $615 forward 7 unknown #
vertex $-1 $574 $616 #
straight-curve $-1 -47.217017120883796 12.130805618525866 3.9027130970713628 0.55919289150049634 0 0.82903758062907751 I I #
point $-1 -45.069056097864276 12.130805618525866 7.0871963708686243 #
point $-1 -47.217017120883817 2.827179118219366 3.9027130970713313 #
straight-curve $-1 -47.217017120883817 0 7.0871963708686243 0 -1 0 I I #
vertex $-1 $496 $617 #
point $-1 -45.034402582994737 5.4853581183069373 5.3502806327840382 #
vertex $-1 $500 $618 #
point $-1 -45.034402582994737 9.4726266184382943 5.3502806327840382 #
straight-curve $-1 -47.217017120883817 19.200655120362821 0 0 0 -1 I I #
straight-curve $-1 0 19.200655120362821 -7.0871963708686243 1 0 0 I I #
point $-1 47.217017120883817 19.200655120362821 -7.0871963708686243 #
straight-curve $-1 -47.217017120883817 0 7.0871963708686243 0 -1 0 I I #
point $-1 -47.217017120883817 19.200655120362821 7.0871963708686243 #
straight-curve $-1 47.217017120883817 19.200655120362821 0 0 0 -1 I I #
point $-1 -47.217017120883817 19.200655120362821 -7.0871963708686243 #
edge $-1 $593 -7.0871963708686243 $531 7.0871963708686243 $523 $619 forward 7 unknown #
straight-curve $-1 -44.547015844988991 -26.389352376662554 -7.0871963708686243 -1 0 0 I I #
vertex $-1 $537 $620 #
straight-curve $-1 -44.547015844988991 -26.389352376662554 7.0871963708686243 1 0 0 I I #
point $-1 -46.661927641430239 -26.389352376662554 7.0871963708686243 #
point $-1 -46.661927641430239 -26.389352376662554 -7.0871963708686243 #
point $-1 -42.432104048547743 -26.389352376662554 -7.0871963708686243 #
straight-curve $-1 -42.432104048547743 -22.795003748512688 7.0871963708686243 0 1 0 I I #
straight-curve $-1 47.217017120883817 -9.6825235115980917 67.420248970808942 0 0 -1 I I #
point $-1 47.217017120883817 -9.6825235115980917 7.0871963708686243 #
straight-curve $-1 47.217017120883817 -3.0371409508853384 2.0222061087228873 0 1 0 I I #
point $-1 47.217017120883817 -9.6825235115980917 2.0222061087228838 #
point $-1 43.145665550586315 -8.2392268676671261 3.3889823071025256 #
point $-1 43.145665550586315 -6.0742819017706768 3.3889823071025256 #
point $-1 43.145665550586315 -3.9093369358742276 3.3889823071025256 #
straight-curve $-1 47.217017120883817 9.6547375482429967 67.420248970808942 0 0 -1 I I #
point $-1 47.217017120883817 9.6547375482429967 7.0871963708686243 #
straight-curve $-1 47.217017120883817 6.6314895790352058 2.0222061087228873 0 1 0 I I #
point $-1 47.217017120883817 9.6547375482429967 2.0222061087228838 #
point $-1 43.145665550586315 11.098034192173966 3.3889823071025256 #
point $-1 43.145665550586315 13.262979158070412 3.3889823071025256 #
point $-1 43.145665550586315 15.427924123966864 3.3889823071025256 #
straight-curve $-1 -47.217017120883817 12.130805618525866 28.354776880391142 0 0 -1 I I #
point $-1 -47.217017120883817 12.130805618525866 7.0871963708686243 #
straight-curve $-1 -47.217017120883817 3.7394961841863079 3.9027130970713344 0 -1 0 I I #
point $-1 -47.217017120883817 12.130805618525866 3.9027130970713313 #
point $-1 -44.899480238430442 5.4853581183069373 4.6561653967192509 #
point $-1 -44.899480238430442 9.4726266184382943 4.6561653967192509 #
straight-curve $-1 -42.432104048547743 -26.389352376662554 0 0 0 -1 I I #
point $-1 -42.432104048547743 -26.389352376662554 7.0871963708686243 #
End-of-ACIS-data 