500 0 12 0           
7 Unknown 11 ACIS 5.0 NT 24 Fri Mar 26 20:38:38 1999 
-1 9.9999999999999995e-007 1e-010 
body $-1 $12 $-1 $13 #
body $-1 $14 $-1 $15 #
body $-1 $16 $-1 $17 #
body $-1 $18 $-1 $19 #
body $-1 $20 $-1 $21 #
body $-1 $22 $-1 $23 #
body $-1 $24 $-1 $25 #
body $-1 $26 $-1 $27 #
body $-1 $28 $-1 $29 #
body $-1 $30 $-1 $31 #
body $-1 $32 $-1 $33 #
body $-1 $34 $-1 $35 #
lump $-1 $-1 $36 $0 #
transform $-1 1 0 0 0 1 0 0 0 1 65.782036805322434 34.636198754688159 7.429864724473636 1 rotate no_reflect no_shear #
lump $-1 $-1 $37 $1 #
transform $-1 1 0 0 0 1 0 0 0 1 65.782036805322434 34.636198754688159 7.429864724473636 1 rotate no_reflect no_shear #
lump $-1 $-1 $38 $2 #
transform $-1 1 0 0 0 1 0 0 0 1 65.782036805322434 34.636198754688159 7.429864724473636 1 rotate no_reflect no_shear #
lump $-1 $-1 $39 $3 #
transform $-1 1 0 0 0 1 0 0 0 1 65.782036805322434 34.636198754688159 7.429864724473636 1 rotate no_reflect no_shear #
lump $-1 $-1 $40 $4 #
transform $-1 1 0 0 0 1 0 0 0 1 65.782036805322434 34.636198754688159 7.429864724473636 1 rotate no_reflect no_shear #
lump $-1 $-1 $41 $5 #
transform $-1 1 0 0 0 1 0 0 0 1 65.782036805322434 34.636198754688159 7.429864724473636 1 rotate no_reflect no_shear #
lump $-1 $-1 $42 $6 #
transform $-1 1 0 0 0 1 0 0 0 1 65.782036805322434 34.636198754688159 7.429864724473636 1 rotate no_reflect no_shear #
lump $-1 $-1 $43 $7 #
transform $-1 1 0 0 0 1 0 0 0 1 65.782036805322434 34.636198754688159 7.429864724473636 1 rotate no_reflect no_shear #
lump $-1 $-1 $44 $8 #
transform $-1 1 0 0 0 1 0 0 0 1 65.782036805322434 34.636198754688159 7.429864724473636 1 rotate no_reflect no_shear #
lump $-1 $-1 $45 $9 #
transform $-1 1 0 0 0 1 0 0 0 1 65.782036805322434 34.636198754688159 7.429864724473636 1 rotate no_reflect no_shear #
lump $-1 $-1 $46 $10 #
transform $-1 1 0 0 0 1 0 0 0 1 65.782036805322434 34.636198754688159 7.429864724473636 1 rotate no_reflect no_shear #
lump $-1 $-1 $47 $11 #
transform $-1 1 0 0 0 1 0 0 0 1 65.782036805322434 34.636198754688159 7.429864724473636 1 rotate no_reflect no_shear #
shell $-1 $-1 $-1 $48 $-1 $12 #
shell $-1 $-1 $-1 $49 $-1 $14 #
shell $-1 $-1 $-1 $50 $-1 $16 #
shell $-1 $-1 $-1 $51 $-1 $18 #
shell $-1 $-1 $-1 $52 $-1 $20 #
shell $-1 $-1 $-1 $53 $-1 $22 #
shell $-1 $-1 $-1 $54 $-1 $24 #
shell $-1 $-1 $-1 $55 $-1 $26 #
shell $-1 $-1 $-1 $56 $-1 $28 #
shell $-1 $-1 $-1 $57 $-1 $30 #
shell $-1 $-1 $-1 $58 $-1 $32 #
shell $-1 $-1 $-1 $59 $-1 $34 #
face $-1 $60 $61 $36 $-1 $62 forward single #
face $-1 $63 $64 $37 $-1 $65 forward single #
face $-1 $66 $67 $38 $-1 $68 reversed single #
face $-1 $69 $70 $39 $-1 $71 forward single #
face $-1 $72 $73 $40 $-1 $74 forward single #
face $-1 $75 $76 $41 $-1 $77 forward single #
face $-1 $78 $79 $42 $-1 $80 reversed single #
face $-1 $81 $82 $43 $-1 $83 forward single #
face $-1 $84 $85 $44 $-1 $86 forward single #
face $-1 $87 $88 $45 $-1 $89 reversed single #
face $-1 $90 $91 $46 $-1 $92 forward single #
face $-1 $93 $94 $47 $-1 $95 forward single #
face $-1 $96 $97 $36 $-1 $98 reversed single #
loop $-1 $-1 $99 $48 #
plane-surface $-1 0 0 7.429864724473636 0 0 1 1 0 0 forward_v I I I I #
face $-1 $100 $101 $37 $-1 $102 forward single #
loop $-1 $-1 $103 $49 #
plane-surface $-1 0 -34.636198754688159 0 0 1 0 0 0 1 forward_v I I I I #
face $-1 $104 $105 $38 $-1 $106 reversed single #
loop $-1 $-1 $107 $50 #
plane-surface $-1 72.275428848301885 -1.8166941890090893 189.37133073453904 0 -1 0 -0.73135370988377701 0 -0.68199835119979291 forward_v I I I I #
face $-1 $108 $109 $39 $-1 $110 forward single #
loop $-1 $111 $112 $51 #
cone-surface $-1 62.668667298289712 -15.187449958483697 4.2654506737484157 -0.73135370988377701 0 -0.68199835119979291 0.68199835119979291 0 -0.73135370988377701 1 I I 0 1 1 forward I I I I #
face $-1 $113 $114 $40 $-1 $115 forward single #
loop $-1 $116 $117 $52 #
cone-surface $-1 62.668667298289712 -10.173416544930721 4.2654506737484157 -0.73135370988377701 0 -0.68199835119979291 0.68199835119979291 0 -0.73135370988377701 1 I I 0 1 1 forward I I I I #
face $-1 $118 $119 $41 $-1 $120 forward single #
loop $-1 $121 $122 $53 #
cone-surface $-1 62.668667298289712 -5.1593831313777443 4.2654506737484157 -0.73135370988377701 0 -0.68199835119979291 0.68199835119979291 0 -0.73135370988377701 1 I I 0 1 1 forward I I I I #
face $-1 $123 $124 $42 $-1 $125 reversed single #
loop $-1 $-1 $126 $54 #
plane-surface $-1 -133.54254490644882 -26.997861554013433 117.1775457341347 0 1 0 -0.51503808176128008 0 0.85716729658548041 forward_v I I I I #
face $-1 $127 $128 $43 $-1 $129 forward single #
loop $-1 $130 $131 $55 #
cone-surface $-1 -62.562584129008414 -23.589553292872914 4.7484279403098597 0.51503808176128008 0 -0.85716729658548041 0.85716729658548041 0 0.51503808176128008 1 I I 0 1 1 forward I I I I #
face $-1 $132 $133 $44 $-1 $134 forward single #
loop $-1 $135 $136 $56 #
cone-surface $-1 -62.562584129008414 -18.477090901162128 4.7484279403098597 0.51503808176128008 0 -0.85716729658548041 0.85716729658548041 0 0.51503808176128008 1 I I 0 1 1 forward I I I I #
face $-1 $137 $138 $45 $-1 $139 reversed single #
loop $-1 $-1 $140 $57 #
plane-surface $-1 -133.54254490644882 22.70711984069634 117.1775457341347 0 1 0 -0.51503808176128008 0 0.85716729658548041 forward_v I I I I #
face $-1 $141 $142 $46 $-1 $143 forward single #
loop $-1 $144 $145 $58 #
cone-surface $-1 -62.562584129008414 26.115428101836855 4.7484279403098597 0.51503808176128008 0 -0.85716729658548041 0.85716729658548041 0 0.51503808176128008 1 I I 0 1 1 forward I I I I #
face $-1 $146 $147 $47 $-1 $148 forward single #
loop $-1 $149 $150 $59 #
cone-surface $-1 -62.562584129008414 31.22789049354764 4.7484279403098597 0.51503808176128008 0 -0.85716729658548041 0.85716729658548041 0 0.51503808176128008 1 I I 0 1 1 forward I I I I #
face $-1 $151 $152 $36 $-1 $153 reversed single #
loop $-1 $-1 $154 $60 #
plane-surface $-1 0 0 -7.429864724473636 0 0 1 1 0 0 forward_v I I I I #
coedge $-1 $155 $156 $157 $158 forward $61 $-1 #
face $-1 $159 $160 $37 $-1 $161 reversed single #
loop $-1 $-1 $162 $63 #
plane-surface $-1 0 0 7.429864724473636 0 0 1 1 0 0 forward_v I I I I #
coedge $-1 $163 $164 $165 $166 forward $64 $-1 #
face $-1 $167 $168 $38 $-1 $169 reversed single #
loop $-1 $-1 $170 $66 #
plane-surface $-1 -23.944444474265566 -10.173416544930717 99.644849454951057 0.73135370988377701 0 0.68199835119979291 0.68199835119979291 0 -0.73135370988377701 forward_v I I I I #
coedge $-1 $171 $172 $173 $174 reversed $67 $-1 #
face $-1 $-1 $175 $39 $-1 $176 forward single #
loop $-1 $177 $178 $69 #
cone-surface $-1 61.056930406159907 -15.187449958483697 2.7624817434683093 -0.73135370988377701 0 -0.68199835119979291 0.34099917559989645 0 -0.36567685494188851 1 I I -0.70710678118654746 0.70710678118654746 0.5 forward I I I I #
loop $-1 $-1 $179 $51 #
coedge $-1 $112 $112 $180 $181 reversed $70 $-1 #
face $-1 $-1 $182 $40 $-1 $183 forward single #
loop $-1 $184 $185 $72 #
cone-surface $-1 61.056930406159907 -10.173416544930721 2.7624817434683093 -0.73135370988377701 0 -0.68199835119979291 0.34099917559989645 0 -0.36567685494188851 1 I I -0.70710678118654746 0.70710678118654746 0.5 forward I I I I #
loop $-1 $-1 $186 $52 #
coedge $-1 $117 $117 $187 $188 reversed $73 $-1 #
face $-1 $-1 $189 $41 $-1 $190 forward single #
loop $-1 $191 $192 $75 #
cone-surface $-1 61.056930406159907 -5.1593831313777443 2.7624817434683093 -0.73135370988377701 0 -0.68199835119979291 0.34099917559989645 0 -0.36567685494188851 1 I I -0.70710678118654746 0.70710678118654746 0.5 forward I I I I #
loop $-1 $-1 $193 $53 #
coedge $-1 $122 $122 $194 $195 reversed $76 $-1 #
face $-1 $196 $197 $42 $-1 $198 reversed single #
loop $-1 $-1 $199 $78 #
plane-surface $-1 -65.782036805322448 -21.033322097017521 4.4051244295250882 -0.51503808176128008 0 0.85716729658548041 0.85716729658548041 0 0.51503808176128008 forward_v I I I I #
coedge $-1 $200 $201 $202 $203 reversed $79 $-1 #
face $-1 $-1 $204 $43 $-1 $205 forward single #
loop $-1 $206 $207 $81 #
cone-surface $-1 -61.602618972404287 -23.589553292872914 3.1507776553276114 0.51503808176128008 0 -0.85716729658548041 0.4285836482927402 0 0.25751904088064004 1 I I -0.70710678118654746 0.70710678118654746 0.5 forward I I I I #
loop $-1 $-1 $208 $55 #
coedge $-1 $131 $131 $209 $210 reversed $82 $-1 #
face $-1 $-1 $211 $44 $-1 $212 forward single #
loop $-1 $213 $214 $84 #
cone-surface $-1 -61.602618972404287 -18.477090901162128 3.1507776553276114 0.51503808176128008 0 -0.85716729658548041 0.4285836482927402 0 0.25751904088064004 1 I I -0.70710678118654746 0.70710678118654746 0.5 forward I I I I #
loop $-1 $-1 $215 $56 #
coedge $-1 $136 $136 $216 $217 reversed $85 $-1 #
face $-1 $218 $219 $45 $-1 $220 forward single #
loop $-1 $-1 $221 $87 #
plane-surface $-1 -65.782036805322448 28.671659297692251 4.4051244295250882 -0.51503808176128008 0 0.85716729658548041 0.85716729658548041 0 0.51503808176128008 forward_v I I I I #
coedge $-1 $222 $223 $224 $225 reversed $88 $-1 #
face $-1 $-1 $226 $46 $-1 $227 forward single #
loop $-1 $228 $229 $90 #
cone-surface $-1 -61.602618972404287 26.115428101836855 3.1507776553276114 0.51503808176128008 0 -0.85716729658548041 0.4285836482927402 0 0.25751904088064004 1 I I -0.70710678118654746 0.70710678118654746 0.5 forward I I I I #
loop $-1 $-1 $230 $58 #
coedge $-1 $145 $145 $231 $232 reversed $91 $-1 #
face $-1 $-1 $233 $47 $-1 $234 forward single #
loop $-1 $235 $236 $93 #
cone-surface $-1 -61.602618972404287 31.22789049354764 3.1507776553276114 0.51503808176128008 0 -0.85716729658548041 0.4285836482927402 0 0.25751904088064004 1 I I -0.70710678118654746 0.70710678118654746 0.5 forward I I I I #
loop $-1 $-1 $237 $59 #
coedge $-1 $150 $150 $238 $239 reversed $94 $-1 #
face $-1 $240 $241 $36 $-1 $242 reversed single #
loop $-1 $-1 $243 $96 #
plane-surface $-1 0 -34.636198754688159 0 0 1 0 0 0 1 forward_v I I I I #
coedge $-1 $244 $245 $246 $247 forward $97 $-1 #
coedge $-1 $248 $99 $249 $250 forward $61 $-1 #
coedge $-1 $99 $248 $251 $252 forward $61 $-1 #
coedge $-1 $253 $254 $99 $158 reversed $255 $-1 #
edge $-1 $256 -34.636198754688159 $257 34.636198754688159 $157 $258 forward 7 unknown #
face $-1 $259 $260 $37 $-1 $261 reversed single #
loop $-1 $-1 $262 $100 #
plane-surface $-1 -65.782036805322434 0 0 1 0 0 0 0 -1 forward_v I I I I #
coedge $-1 $263 $264 $265 $266 forward $101 $-1 #
coedge $-1 $265 $103 $262 $267 reversed $64 $-1 #
coedge $-1 $103 $265 $268 $269 reversed $64 $-1 #
coedge $-1 $270 $271 $103 $166 reversed $260 $-1 #
edge $-1 $272 -65.782036805322434 $273 65.782036805322434 $165 $274 forward 7 unknown #
face $-1 $275 $276 $38 $-1 $277 reversed single #
loop $-1 $-1 $278 $104 #
plane-surface $-1 72.275428848301885 -18.530138900852343 189.37133073453904 0 1 0 0.73135370988377701 0 0.68199835119979291 forward_v I I I I #
coedge $-1 $279 $280 $281 $282 reversed $105 $-1 #
coedge $-1 $172 $107 $283 $284 reversed $67 $-1 #
coedge $-1 $107 $171 $279 $285 reversed $67 $-1 #
coedge $-1 $281 $286 $107 $174 forward $287 $-1 #
edge $-1 $288 -29.644322381171492 $289 -25.90970344148181 $173 $290 forward 7 unknown #
loop $-1 $-1 $180 $108 #
plane-surface $-1 -23.944444474265566 -10.173416544930717 99.644849454951057 0.73135370988377701 0 0.68199835119979291 0.68199835119979291 0 -0.73135370988377701 forward_v I I I I #
loop $-1 $-1 $291 $69 #
coedge $-1 $178 $178 $179 $292 reversed $109 $-1 #
coedge $-1 $179 $179 $178 $292 forward $111 $-1 #
coedge $-1 $180 $180 $112 $181 forward $175 $-1 #
edge $-1 $293 0 $293 6.2831853071796004 $180 $294 forward 7 unknown #
loop $-1 $-1 $187 $113 #
plane-surface $-1 -23.944444474265566 -10.173416544930717 99.644849454951057 0.73135370988377701 0 0.68199835119979291 0.68199835119979291 0 -0.73135370988377701 forward_v I I I I #
loop $-1 $-1 $295 $72 #
coedge $-1 $185 $185 $186 $296 reversed $114 $-1 #
coedge $-1 $186 $186 $185 $296 forward $116 $-1 #
coedge $-1 $187 $187 $117 $188 forward $182 $-1 #
edge $-1 $297 0 $297 6.2831853071796004 $187 $298 forward 7 unknown #
loop $-1 $-1 $194 $118 #
plane-surface $-1 -23.944444474265566 -10.173416544930717 99.644849454951057 0.73135370988377701 0 0.68199835119979291 0.68199835119979291 0 -0.73135370988377701 forward_v I I I I #
loop $-1 $-1 $299 $75 #
coedge $-1 $192 $192 $193 $300 reversed $119 $-1 #
coedge $-1 $193 $193 $192 $300 forward $121 $-1 #
coedge $-1 $194 $194 $122 $195 forward $189 $-1 #
edge $-1 $301 0 $301 6.2831853071796004 $194 $302 forward 7 unknown #
face $-1 $303 $304 $42 $-1 $305 forward single #
loop $-1 $-1 $306 $123 #
plane-surface $-1 -133.54254490644882 -15.06878264002161 117.1775457341347 0 -1 0 0.51503808176128008 0 -0.85716729658548041 forward_v I I I I #
coedge $-1 $307 $308 $309 $310 reversed $124 $-1 #
coedge $-1 $201 $126 $311 $312 reversed $79 $-1 #
coedge $-1 $126 $200 $307 $313 reversed $79 $-1 #
coedge $-1 $309 $314 $126 $203 forward $304 $-1 #
edge $-1 $315 0.98923564790197815 $316 6.0232487690830396 $202 $317 forward 7 unknown #
loop $-1 $-1 $209 $127 #
plane-surface $-1 -65.782036805322448 -21.033322097017521 4.4051244295250882 -0.51503808176128008 0 0.85716729658548041 0.85716729658548041 0 0.51503808176128008 forward_v I I I I #
loop $-1 $-1 $318 $81 #
coedge $-1 $207 $207 $208 $319 reversed $128 $-1 #
coedge $-1 $208 $208 $207 $319 forward $130 $-1 #
coedge $-1 $209 $209 $131 $210 forward $204 $-1 #
edge $-1 $320 0 $320 6.2831853071796004 $209 $321 forward 7 unknown #
loop $-1 $-1 $216 $132 #
plane-surface $-1 -65.782036805322448 -21.033322097017521 4.4051244295250882 -0.51503808176128008 0 0.85716729658548041 0.85716729658548041 0 0.51503808176128008 forward_v I I I I #
loop $-1 $-1 $322 $84 #
coedge $-1 $214 $214 $215 $323 reversed $133 $-1 #
coedge $-1 $215 $215 $214 $323 forward $135 $-1 #
coedge $-1 $216 $216 $136 $217 forward $211 $-1 #
edge $-1 $324 0 $324 6.2831853071796004 $216 $325 forward 7 unknown #
face $-1 $326 $327 $45 $-1 $328 reversed single #
loop $-1 $-1 $224 $137 #
plane-surface $-1 0 0 7.429864724473636 0 0 1 1 0 0 forward_v I I I I #
coedge $-1 $329 $330 $331 $332 reversed $138 $-1 #
coedge $-1 $223 $140 $333 $334 reversed $88 $-1 #
coedge $-1 $140 $222 $329 $335 reversed $88 $-1 #
coedge $-1 $331 $336 $140 $225 forward $219 $-1 #
edge $-1 $337 0.98923564790197815 $338 6.0232487690830396 $224 $339 forward 7 unknown #
loop $-1 $-1 $231 $141 #
plane-surface $-1 -65.782036805322448 28.671659297692251 4.4051244295250882 -0.51503808176128008 0 0.85716729658548041 0.85716729658548041 0 0.51503808176128008 forward_v I I I I #
loop $-1 $-1 $340 $90 #
coedge $-1 $229 $229 $230 $341 reversed $142 $-1 #
coedge $-1 $230 $230 $229 $341 forward $144 $-1 #
coedge $-1 $231 $231 $145 $232 forward $226 $-1 #
edge $-1 $342 0 $342 6.2831853071796004 $231 $343 forward 7 unknown #
loop $-1 $-1 $238 $146 #
plane-surface $-1 -65.782036805322448 28.671659297692251 4.4051244295250882 -0.51503808176128008 0 0.85716729658548041 0.85716729658548041 0 0.51503808176128008 forward_v I I I I #
loop $-1 $-1 $344 $93 #
coedge $-1 $236 $236 $237 $345 reversed $147 $-1 #
coedge $-1 $237 $237 $236 $345 forward $149 $-1 #
coedge $-1 $238 $238 $150 $239 forward $233 $-1 #
edge $-1 $346 0 $346 6.2831853071796004 $238 $347 forward 7 unknown #
face $-1 $348 $349 $36 $-1 $350 reversed single #
loop $-1 $-1 $351 $151 #
plane-surface $-1 -65.782036805322434 0 0 1 0 0 0 0 -1 forward_v I I I I #
coedge $-1 $352 $251 $353 $354 forward $152 $-1 #
coedge $-1 $355 $154 $352 $356 forward $97 $-1 #
coedge $-1 $154 $355 $357 $358 forward $97 $-1 #
coedge $-1 $254 $253 $154 $247 reversed $255 $-1 #
edge $-1 $359 -34.636198754688159 $360 34.636198754688159 $246 $361 forward 7 unknown #
coedge $-1 $156 $155 $362 $363 forward $61 $-1 #
coedge $-1 $364 $365 $155 $250 reversed $349 $-1 #
edge $-1 $257 -65.782036805322434 $366 65.782036805322434 $249 $367 forward 7 unknown #
coedge $-1 $243 $368 $156 $252 reversed $152 $-1 #
edge $-1 $369 -65.782036805322434 $256 65.782036805322434 $251 $370 forward 7 unknown #
coedge $-1 $246 $157 $368 $371 forward $255 $-1 #
coedge $-1 $157 $246 $364 $372 reversed $255 $-1 #
loop $-1 $-1 $253 $348 #
vertex $-1 $158 $373 #
vertex $-1 $158 $374 #
straight-curve $-1 65.782036805322434 0 7.429864724473636 0 1 0 I I #
face $-1 $375 $376 $37 $-1 $377 reversed single #
loop $-1 $-1 $270 $159 #
plane-surface $-1 0 -38.455367355025523 4.429864724473636 0 0 1 1 0 0 forward_v I I I I #
coedge $-1 $378 $379 $163 $267 forward $160 $-1 #
coedge $-1 $380 $162 $379 $381 forward $101 $-1 #
coedge $-1 $162 $380 $382 $383 forward $101 $-1 #
coedge $-1 $164 $163 $162 $266 reversed $64 $-1 #
edge $-1 $384 -65.782036805322434 $385 65.782036805322434 $162 $386 forward 7 unknown #
edge $-1 $385 -7.429864724473636 $273 -4.429864724473636 $262 $387 forward 7 unknown #
coedge $-1 $382 $388 $164 $269 forward $389 $-1 #
edge $-1 $272 4.429864724473636 $384 7.429864724473636 $268 $390 forward 7 unknown #
coedge $-1 $391 $165 $388 $392 forward $260 $-1 #
coedge $-1 $165 $391 $378 $393 forward $260 $-1 #
vertex $-1 $269 $394 #
vertex $-1 $267 $395 #
straight-curve $-1 0 -34.636198754688159 4.429864724473636 -1 0 0 I I #
face $-1 $-1 $287 $38 $-1 $396 forward single #
loop $-1 $-1 $397 $167 #
plane-surface $-1 65.782036805322434 0 0 -1 0 0 0 0 1 forward_v I I I I #
coedge $-1 $398 $399 $400 $401 reversed $168 $-1 #
coedge $-1 $402 $170 $172 $285 forward $105 $-1 #
coedge $-1 $170 $402 $398 $403 forward $105 $-1 #
coedge $-1 $400 $173 $170 $282 forward $287 $-1 #
edge $-1 $289 -3.2700140834562692 $404 13.443430628386984 $281 $405 forward 7 unknown #
coedge $-1 $406 $407 $171 $284 forward $276 $-1 #
edge $-1 $408 -91.26068923488593 $288 -87.25580064279589 $283 $409 forward 7 unknown #
edge $-1 $289 126.08807952192075 $408 131.5640736106449 $172 $410 forward 7 unknown #
coedge $-1 $173 $400 $406 $411 forward $287 $-1 #
loop $-1 $-1 $400 $275 #
vertex $-1 $284 $412 #
vertex $-1 $174 $413 #
straight-curve $-1 36.137714424150943 -1.8166941890090893 7.4298647244736316 -1 0 0 I I #
coedge $-1 $291 $291 $-1 $414 reversed $177 $-1 #
edge $-1 $415 0 $415 6.2831853071796004 $178 $416 forward 7 unknown #
vertex $-1 $181 $417 #
ellipse-curve $-1 63.9147273354776 -15.187449958483697 5.4274204284285972 0.73135370988377701 0 0.68199835119979291 0.68199835119979291 0 -0.73135370988377701 1 I I #
coedge $-1 $295 $295 $-1 $418 reversed $184 $-1 #
edge $-1 $419 0 $419 6.2831853071796004 $185 $420 forward 7 unknown #
vertex $-1 $188 $421 #
ellipse-curve $-1 63.9147273354776 -10.173416544930721 5.4274204284285972 0.73135370988377701 0 0.68199835119979291 0.68199835119979291 0 -0.73135370988377701 1 I I #
coedge $-1 $299 $299 $-1 $422 reversed $191 $-1 #
edge $-1 $423 0 $423 6.2831853071796004 $192 $424 forward 7 unknown #
vertex $-1 $195 $425 #
ellipse-curve $-1 63.9147273354776 -5.1593831313777443 5.4274204284285972 0.73135370988377701 0 0.68199835119979291 0.68199835119979291 0 -0.73135370988377701 1 I I #
face $-1 $-1 $426 $42 $-1 $427 reversed single #
loop $-1 $-1 $202 $196 #
plane-surface $-1 0 0 7.429864724473636 0 0 1 1 0 0 forward_v I I I I #
coedge $-1 $428 $429 $430 $431 reversed $197 $-1 #
coedge $-1 $432 $199 $201 $313 forward $124 $-1 #
coedge $-1 $199 $432 $428 $433 forward $124 $-1 #
coedge $-1 $430 $202 $199 $310 forward $304 $-1 #
edge $-1 $316 -16.481200505504674 $434 -4.552121591512849 $309 $435 forward 7 unknown #
coedge $-1 $436 $437 $200 $312 forward $426 $-1 #
edge $-1 $438 -54.183648437542253 $315 -51.15890814259371 $311 $439 forward 7 unknown #
edge $-1 $316 -5.8728478573949676 $438 -1.6755537013839907e-014 $201 $440 forward 7 unknown #
coedge $-1 $202 $430 $436 $441 forward $304 $-1 #
vertex $-1 $312 $442 #
vertex $-1 $203 $443 #
straight-curve $-1 -66.771272453224412 -26.997861554013433 7.4298647244736387 1 0 0 I I #
coedge $-1 $318 $318 $-1 $444 reversed $206 $-1 #
edge $-1 $445 0 $445 6.2831853071796004 $207 $446 forward 7 unknown #
vertex $-1 $210 $447 #
ellipse-curve $-1 -63.265030244731904 -23.589553292872914 5.9174945769993661 -0.51503808176128008 0 0.85716729658548041 0.85716729658548041 0 0.51503808176128008 1 I I #
coedge $-1 $322 $322 $-1 $448 reversed $213 $-1 #
edge $-1 $449 0 $449 6.2831853071796004 $214 $450 forward 7 unknown #
vertex $-1 $217 $451 #
ellipse-curve $-1 -63.265030244731904 -18.477090901162128 5.9174945769993661 -0.51503808176128008 0 0.85716729658548041 0.85716729658548041 0 0.51503808176128008 1 I I #
face $-1 $-1 $452 $45 $-1 $453 reversed single #
loop $-1 $-1 $454 $218 #
plane-surface $-1 0 34.636198754688159 0 0 -1 0 0 0 -1 forward_v I I I I #
coedge $-1 $455 $221 $223 $335 forward $138 $-1 #
coedge $-1 $221 $455 $454 $456 reversed $138 $-1 #
coedge $-1 $457 $224 $221 $332 forward $219 $-1 #
edge $-1 $338 8.3712901918502141 $458 20.300369105842041 $331 $459 forward 7 unknown #
coedge $-1 $460 $461 $222 $334 forward $452 $-1 #
edge $-1 $462 -54.183648437542253 $337 -51.15890814259371 $333 $463 forward 7 unknown #
edge $-1 $338 -5.8728478573949676 $462 -1.6755537013839907e-014 $223 $464 forward 7 unknown #
coedge $-1 $224 $457 $460 $465 forward $219 $-1 #
vertex $-1 $334 $466 #
vertex $-1 $225 $467 #
straight-curve $-1 -66.771272453224412 22.70711984069634 7.4298647244736387 1 0 0 I I #
coedge $-1 $340 $340 $-1 $468 reversed $228 $-1 #
edge $-1 $469 0 $469 6.2831853071796004 $229 $470 forward 7 unknown #
vertex $-1 $232 $471 #
ellipse-curve $-1 -63.265030244731904 26.115428101836855 5.9174945769993661 -0.51503808176128008 0 0.85716729658548041 0.85716729658548041 0 0.51503808176128008 1 I I #
coedge $-1 $344 $344 $-1 $472 reversed $235 $-1 #
edge $-1 $473 0 $473 6.2831853071796004 $236 $474 forward 7 unknown #
vertex $-1 $239 $475 #
ellipse-curve $-1 -63.265030244731904 31.22789049354764 5.9174945769993661 -0.51503808176128008 0 0.85716729658548041 0.85716729658548041 0 0.51503808176128008 1 I I #
face $-1 $-1 $255 $36 $-1 $476 reversed single #
loop $-1 $-1 $364 $240 #
plane-surface $-1 0 34.636198754688159 0 0 -1 0 0 0 -1 forward_v I I I I #
coedge $-1 $477 $362 $365 $478 forward $241 $-1 #
coedge $-1 $368 $243 $244 $356 reversed $152 $-1 #
coedge $-1 $362 $477 $243 $354 reversed $241 $-1 #
edge $-1 $369 -7.429864724473636 $479 7.429864724473636 $353 $480 forward 7 unknown #
coedge $-1 $245 $244 $477 $481 forward $97 $-1 #
edge $-1 $360 -65.782036805322434 $479 65.782036805322434 $352 $482 forward 7 unknown #
coedge $-1 $365 $364 $245 $358 reversed $349 $-1 #
edge $-1 $483 -65.782036805322434 $359 65.782036805322434 $357 $484 forward 7 unknown #
vertex $-1 $247 $485 #
vertex $-1 $371 $486 #
straight-curve $-1 65.782036805322434 0 -7.429864724473636 0 -1 0 I I #
coedge $-1 $351 $353 $248 $363 reversed $241 $-1 #
edge $-1 $366 -34.636198754688159 $369 34.636198754688159 $362 $487 forward 7 unknown #
coedge $-1 $357 $249 $254 $372 forward $349 $-1 #
coedge $-1 $249 $357 $351 $478 reversed $349 $-1 #
vertex $-1 $250 $488 #
straight-curve $-1 0 34.636198754688159 7.429864724473636 -1 0 0 I I #
coedge $-1 $251 $352 $253 $371 reversed $152 $-1 #
vertex $-1 $363 $489 #
straight-curve $-1 0 -34.636198754688159 7.429864724473636 1 0 0 I I #
edge $-1 $256 -7.429864724473636 $360 7.429864724473636 $253 $490 forward 7 unknown #
edge $-1 $257 -7.429864724473636 $359 7.429864724473636 $254 $491 forward 7 unknown #
point $-1 65.782036805322434 -34.636198754688159 7.429864724473636 #
point $-1 65.782036805322434 34.636198754688159 7.429864724473636 #
face $-1 $-1 $389 $37 $-1 $492 reversed single #
loop $-1 $-1 $493 $259 #
plane-surface $-1 0 -42.274535955362886 5.929864724473636 0 1 0 0 0 1 forward_v I I I I #
coedge $-1 $494 $262 $271 $393 reversed $160 $-1 #
coedge $-1 $262 $494 $263 $381 reversed $160 $-1 #
coedge $-1 $264 $263 $495 $496 forward $101 $-1 #
edge $-1 $385 34.636198754688159 $497 42.274535955362886 $379 $498 forward 7 unknown #
coedge $-1 $499 $268 $264 $383 reversed $389 $-1 #
edge $-1 $500 -42.274535955362886 $384 -34.636198754688159 $382 $501 forward 7 unknown #
vertex $-1 $269 $502 #
vertex $-1 $381 $503 #
straight-curve $-1 0 -34.636198754688159 7.429864724473636 -1 0 0 I I #
straight-curve $-1 -65.782036805322434 -34.636198754688159 0 0 0 -1 I I #
coedge $-1 $268 $499 $270 $392 reversed $389 $-1 #
loop $-1 $-1 $268 $375 #
straight-curve $-1 65.782036805322434 -34.636198754688159 0 0 0 1 I I #
coedge $-1 $271 $270 $504 $505 forward $260 $-1 #
edge $-1 $272 -3.8191686003373633 $506 3.8191686003373633 $388 $507 forward 7 unknown #
edge $-1 $508 -3.8191686003373633 $273 3.8191686003373633 $378 $509 forward 7 unknown #
point $-1 65.782036805322434 -34.636198754688159 4.429864724473636 #
point $-1 -65.782036805322434 -34.636198754688159 4.429864724473636 #
plane-surface $-1 0 0 7.429864724473636 0 0 1 1 0 0 forward_v I I I I #
coedge $-1 $407 $406 $399 $510 forward $276 $-1 #
coedge $-1 $399 $278 $280 $403 reversed $168 $-1 #
coedge $-1 $278 $398 $397 $510 reversed $168 $-1 #
coedge $-1 $286 $281 $278 $401 forward $287 $-1 #
edge $-1 $404 25.90970344148181 $511 29.644322381171492 $400 $512 forward 7 unknown #
coedge $-1 $280 $279 $407 $513 reversed $105 $-1 #
edge $-1 $514 -131.5640736106449 $404 -126.08807952192075 $398 $515 forward 7 unknown #
vertex $-1 $282 $516 #
straight-curve $-1 62.047417865632738 -5.0867082724653585 7.4298647244736244 0 -1 0 I I #
coedge $-1 $397 $283 $286 $411 reversed $276 $-1 #
coedge $-1 $283 $397 $402 $513 forward $276 $-1 #
vertex $-1 $284 $517 #
straight-curve $-1 65.782036805322434 -1.8166941890090893 94.685665367269522 0 0 1 I I #
straight-curve $-1 -23.944444474265566 -1.8166941890090893 99.644849454951057 0.68199835119979291 0 -0.73135370988377701 I I #
edge $-1 $511 -18.530138900852343 $288 -1.8166941890090893 $406 $518 forward 7 unknown #
point $-1 65.782036805322434 -1.8166941890090893 7.429864724473636 #
point $-1 62.047417865632752 -1.8166941890090893 7.4298647244736316 #
edge $-1 $519 1 $519 0 $291 $-1 forward 7 unknown #
vertex $-1 $292 $520 #
ellipse-curve $-1 61.422607261101795 -15.187449958483697 3.1034809190682058 0.73135370988377701 0 0.68199835119979291 0.68199835119979291 0 -0.73135370988377701 1 I I #
point $-1 64.596725686677431 -15.187449958483697 4.6960667185448486 #
edge $-1 $521 1 $521 0 $295 $-1 forward 7 unknown #
vertex $-1 $296 $522 #
ellipse-curve $-1 61.422607261101795 -10.173416544930721 3.1034809190682058 0.73135370988377701 0 0.68199835119979291 0.68199835119979291 0 -0.73135370988377701 1 I I #
point $-1 64.596725686677431 -10.173416544930721 4.6960667185448486 #
edge $-1 $523 1 $523 0 $299 $-1 forward 7 unknown #
vertex $-1 $300 $524 #
ellipse-curve $-1 61.422607261101795 -5.1593831313777443 3.1034809190682058 0.73135370988377701 0 0.68199835119979291 0.68199835119979291 0 -0.73135370988377701 1 I I #
point $-1 64.596725686677431 -5.1593831313777443 4.6960667185448486 #
loop $-1 $-1 $311 $303 #
plane-surface $-1 -65.782036805322434 0 0 1 0 0 0 0 -1 forward_v I I I I #
coedge $-1 $429 $306 $308 $433 reversed $197 $-1 #
coedge $-1 $306 $428 $525 $526 reversed $197 $-1 #
coedge $-1 $314 $309 $306 $431 forward $304 $-1 #
edge $-1 $434 -6.0232487690830396 $527 -0.98923564790197815 $430 $528 forward 7 unknown #
coedge $-1 $308 $307 $437 $529 reversed $124 $-1 #
edge $-1 $530 1.6755537013839907e-014 $434 5.8728478573949676 $428 $531 forward 7 unknown #
vertex $-1 $310 $532 #
straight-curve $-1 -60.748023684141366 -10.516661048508761 7.4298647244736351 0 1 0 I I #
coedge $-1 $525 $311 $314 $441 reversed $426 $-1 #
coedge $-1 $311 $525 $432 $529 forward $426 $-1 #
vertex $-1 $312 $533 #
straight-curve $-1 -65.782036805322434 -26.997861554013433 58.588772867067348 0 0 1 I I #
straight-curve $-1 -65.782036805322448 -26.997861554013433 4.4051244295250882 -0.85716729658548041 0 -0.51503808176128008 I I #
edge $-1 $527 15.06878264002161 $315 26.997861554013433 $436 $534 forward 7 unknown #
point $-1 -65.782036805322434 -26.997861554013433 7.429864724473636 #
point $-1 -60.748023684141373 -26.997861554013433 7.429864724473636 #
edge $-1 $535 1 $535 0 $318 $-1 forward 7 unknown #
vertex $-1 $319 $536 #
ellipse-curve $-1 -61.860138013284924 -23.589553292872914 3.5793613036203515 -0.51503808176128008 0 0.85716729658548041 0.85716729658548041 0 0.51503808176128008 1 I I #
point $-1 -62.407862948146423 -23.589553292872914 6.4325326587606479 #
edge $-1 $537 1 $537 0 $322 $-1 forward 7 unknown #
vertex $-1 $323 $538 #
ellipse-curve $-1 -61.860138013284924 -18.477090901162128 3.5793613036203515 -0.51503808176128008 0 0.85716729658548041 0.85716729658548041 0 0.51503808176128008 1 I I #
point $-1 -62.407862948146423 -18.477090901162128 6.4325326587606479 #
loop $-1 $-1 $333 $326 #
plane-surface $-1 -65.782036805322434 0 0 1 0 0 0 0 -1 forward_v I I I I #
coedge $-1 $539 $540 $330 $456 forward $327 $-1 #
coedge $-1 $330 $329 $461 $541 reversed $138 $-1 #
edge $-1 $458 21.185854050706261 $542 27.058701908101213 $454 $543 forward 7 unknown #
coedge $-1 $336 $331 $540 $544 forward $219 $-1 #
vertex $-1 $544 $545 #
straight-curve $-1 -60.748023684141366 14.335829648846126 7.4298647244736351 0 1 0 I I #
coedge $-1 $546 $333 $336 $465 reversed $452 $-1 #
coedge $-1 $333 $546 $455 $541 forward $452 $-1 #
vertex $-1 $334 $547 #
straight-curve $-1 -65.782036805322434 22.70711984069634 58.588772867067348 0 0 1 I I #
straight-curve $-1 -65.782036805322448 22.70711984069634 4.4051244295250882 -0.85716729658548041 0 -0.51503808176128008 I I #
edge $-1 $548 -34.636198754688159 $337 -22.70711984069634 $460 $549 forward 7 unknown #
point $-1 -65.782036805322434 22.70711984069634 7.429864724473636 #
point $-1 -60.748023684141373 22.70711984069634 7.429864724473636 #
edge $-1 $550 1 $550 0 $340 $-1 forward 7 unknown #
vertex $-1 $341 $551 #
ellipse-curve $-1 -61.860138013284924 26.115428101836855 3.5793613036203515 -0.51503808176128008 0 0.85716729658548041 0.85716729658548041 0 0.51503808176128008 1 I I #
point $-1 -62.407862948146423 26.115428101836855 6.4325326587606479 #
edge $-1 $552 1 $552 0 $344 $-1 forward 7 unknown #
vertex $-1 $345 $553 #
ellipse-curve $-1 -61.860138013284924 31.22789049354764 3.5793613036203515 -0.51503808176128008 0 0.85716729658548041 0.85716729658548041 0 0.51503808176128008 1 I I #
point $-1 -62.407862948146423 31.22789049354764 6.4325326587606479 #
plane-surface $-1 65.782036805322434 0 0 -1 0 0 0 0 1 forward_v I I I I #
coedge $-1 $353 $351 $355 $481 reversed $241 $-1 #
edge $-1 $366 -7.429864724473636 $483 7.429864724473636 $365 $554 forward 7 unknown #
vertex $-1 $481 $555 #
straight-curve $-1 -65.782036805322434 -34.636198754688159 0 0 0 -1 I I #
edge $-1 $479 -34.636198754688159 $483 34.636198754688159 $477 $556 forward 7 unknown #
straight-curve $-1 0 -34.636198754688159 -7.429864724473636 -1 0 0 I I #
vertex $-1 $358 $557 #
straight-curve $-1 0 34.636198754688159 -7.429864724473636 1 0 0 I I #
point $-1 65.782036805322434 34.636198754688159 -7.429864724473636 #
point $-1 65.782036805322434 -34.636198754688159 -7.429864724473636 #
straight-curve $-1 -65.782036805322434 0 7.429864724473636 0 -1 0 I I #
point $-1 -65.782036805322434 34.636198754688159 7.429864724473636 #
point $-1 -65.782036805322434 -34.636198754688159 7.429864724473636 #
straight-curve $-1 65.782036805322434 -34.636198754688159 0 0 0 -1 I I #
straight-curve $-1 65.782036805322434 34.636198754688159 0 0 0 -1 I I #
plane-surface $-1 65.782036805322434 0 0 -1 0 0 0 0 1 forward_v I I I I #
coedge $-1 $504 $495 $494 $558 forward $376 $-1 #
coedge $-1 $379 $378 $493 $558 reversed $160 $-1 #
coedge $-1 $493 $559 $380 $496 reversed $376 $-1 #
edge $-1 $497 -65.782036805322434 $500 65.782036805322434 $495 $560 forward 7 unknown #
vertex $-1 $381 $561 #
straight-curve $-1 -65.782036805322434 0 7.429864724473636 0 -1 0 I I #
coedge $-1 $388 $382 $559 $562 forward $389 $-1 #
vertex $-1 $383 $563 #
straight-curve $-1 65.782036805322434 0 7.429864724473636 0 1 0 I I #
point $-1 65.782036805322434 -34.636198754688159 7.429864724473636 #
point $-1 -65.782036805322434 -34.636198754688159 7.429864724473636 #
coedge $-1 $559 $493 $391 $505 reversed $376 $-1 #
edge $-1 $506 -65.782036805322434 $508 65.782036805322434 $504 $564 forward 7 unknown #
vertex $-1 $562 $565 #
straight-curve $-1 65.782036805322434 -38.455367355025523 4.429864724473636 0 -1 0 I I #
vertex $-1 $393 $566 #
straight-curve $-1 -65.782036805322434 -38.455367355025523 4.429864724473636 0 1 0 I I #
edge $-1 $511 87.25580064279589 $514 91.26068923488593 $397 $567 forward 7 unknown #
vertex $-1 $411 $568 #
straight-curve $-1 36.137714424150943 -18.530138900852343 7.4298647244736316 1 0 0 I I #
edge $-1 $514 -13.443430628386984 $408 3.2700140834562692 $407 $569 forward 7 unknown #
vertex $-1 $513 $570 #
straight-curve $-1 -23.944444474265566 -18.530138900852343 99.644849454951057 -0.68199835119979291 0 0.73135370988377701 I I #
point $-1 62.047417865632752 -18.530138900852343 7.4298647244736316 #
point $-1 65.782036805322434 -1.8166941890090893 3.4249761323835912 #
straight-curve $-1 65.782036805322434 0 7.429864724473636 0 1 0 I I #
vertex $-1 $414 $571 #
point $-1 62.10460561230159 -15.187449958483697 2.3721272091844288 #
vertex $-1 $418 $572 #
point $-1 62.10460561230159 -10.173416544930721 2.3721272091844288 #
vertex $-1 $422 $573 #
point $-1 62.10460561230159 -5.1593831313777443 2.3721272091844288 #
coedge $-1 $437 $436 $429 $526 forward $426 $-1 #
edge $-1 $527 51.15890814259371 $530 54.183648437542253 $525 $574 forward 7 unknown #
vertex $-1 $441 $575 #
straight-curve $-1 -66.771272453224412 -15.06878264002161 7.4298647244736387 -1 0 0 I I #
edge $-1 $530 4.552121591512849 $438 16.481200505504674 $437 $576 forward 7 unknown #
vertex $-1 $529 $577 #
straight-curve $-1 -65.782036805322448 -15.06878264002161 4.4051244295250882 0.85716729658548041 0 0.51503808176128008 I I #
point $-1 -60.748023684141373 -15.06878264002161 7.429864724473636 #
point $-1 -65.782036805322434 -26.997861554013433 4.4051244295250971 #
straight-curve $-1 -65.782036805322434 0 7.429864724473636 0 -1 0 I I #
vertex $-1 $444 $578 #
point $-1 -61.002970716699444 -23.589553292872914 4.0943993853816316 #
vertex $-1 $448 $579 #
point $-1 -61.002970716699444 -18.477090901162128 4.0943993853816316 #
coedge $-1 $540 $454 $546 $580 reversed $327 $-1 #
coedge $-1 $454 $539 $457 $544 reversed $327 $-1 #
edge $-1 $542 -20.300369105842041 $462 -8.3712901918502141 $461 $581 forward 7 unknown #
vertex $-1 $456 $582 #
straight-curve $-1 -42.588202441642935 34.636198754688159 18.341386355223833 -0.85716729658548041 0 -0.51503808176128008 I I #
edge $-1 $458 60.748023684141373 $548 65.782036805322434 $540 $583 forward 7 unknown #
point $-1 -60.748023684141373 34.636198754688166 7.429864724473636 #
coedge $-1 $461 $460 $539 $580 forward $452 $-1 #
point $-1 -65.782036805322434 22.70711984069634 4.4051244295250971 #
vertex $-1 $544 $584 #
straight-curve $-1 -65.782036805322434 0 7.429864724473636 0 -1 0 I I #
vertex $-1 $468 $585 #
point $-1 -61.002970716699444 26.115428101836855 4.0943993853816316 #
vertex $-1 $472 $586 #
point $-1 -61.002970716699444 31.22789049354764 4.0943993853816316 #
straight-curve $-1 -65.782036805322434 34.636198754688159 0 0 0 -1 I I #
point $-1 -65.782036805322434 -34.636198754688159 -7.429864724473636 #
straight-curve $-1 -65.782036805322434 0 -7.429864724473636 0 1 0 I I #
point $-1 -65.782036805322434 34.636198754688159 -7.429864724473636 #
edge $-1 $497 -1.5 $508 1.5 $494 $587 forward 7 unknown #
coedge $-1 $495 $504 $499 $562 reversed $376 $-1 #
straight-curve $-1 0 -42.274535955362886 7.429864724473636 1 0 0 I I #
point $-1 -65.782036805322434 -42.274535955362886 7.429864724473636 #
edge $-1 $500 -1.5 $506 1.5 $499 $588 forward 7 unknown #
point $-1 65.782036805322434 -42.274535955362886 7.429864724473636 #
straight-curve $-1 0 -42.274535955362886 4.429864724473636 -1 0 0 I I #
point $-1 65.782036805322434 -42.274535955362886 4.429864724473636 #
point $-1 -65.782036805322434 -42.274535955362886 4.429864724473636 #
straight-curve $-1 65.782036805322434 -18.530138900852343 94.685665367269522 0 0 -1 I I #
point $-1 65.782036805322434 -18.530138900852343 7.429864724473636 #
straight-curve $-1 65.782036805322434 -5.0867082724653585 3.4249761323835912 0 1 0 I I #
point $-1 65.782036805322434 -18.530138900852343 3.4249761323835912 #
point $-1 60.691253551218018 -15.187449958483697 2.4214825678684129 #
point $-1 60.691253551218018 -10.173416544930721 2.4214825678684129 #
point $-1 60.691253551218018 -5.1593831313777443 2.4214825678684129 #
straight-curve $-1 -65.782036805322434 -15.06878264002161 58.588772867067348 0 0 -1 I I #
point $-1 -65.782036805322434 -15.06878264002161 7.429864724473636 #
straight-curve $-1 -65.782036805322434 -10.516661048508761 4.4051244295250962 0 -1 0 I I #
point $-1 -65.782036805322434 -15.06878264002161 4.4051244295250971 #
point $-1 -61.345099931523649 -23.589553292872914 2.7221940070348714 #
point $-1 -61.345099931523649 -18.477090901162128 2.7221940070348714 #
edge $-1 $548 -7.429864724473636 $542 -4.4051244295250971 $539 $589 forward 7 unknown #
straight-curve $-1 -65.782036805322434 14.335829648846126 4.4051244295250962 0 -1 0 I I #
point $-1 -65.782036805322434 34.636198754688166 4.4051244295250971 #
straight-curve $-1 0 34.636198754688159 7.429864724473636 -1 0 0 I I #
point $-1 -65.782036805322434 34.636198754688159 7.429864724473636 #
point $-1 -61.345099931523649 26.115428101836855 2.7221940070348714 #
point $-1 -61.345099931523649 31.22789049354764 2.7221940070348714 #
straight-curve $-1 -65.782036805322434 -42.274535955362886 5.929864724473636 0 0 -1 I I #
straight-curve $-1 65.782036805322434 -42.274535955362886 5.929864724473636 0 0 -1 I I #
straight-curve $-1 -65.782036805322434 34.636198754688159 0 0 0 -1 I I #
End-of-ACIS-data 