500 0 9 0           
7 Unknown 11 ACIS 5.0 NT 24 Fri Mar 26 02:39:56 1999 
-1 9.9999999999999995e-007 1e-010 
body $-1 $9 $-1 $10 #
body $-1 $11 $-1 $12 #
body $-1 $13 $-1 $14 #
body $-1 $15 $-1 $16 #
body $-1 $17 $-1 $18 #
body $-1 $19 $-1 $20 #
body $-1 $21 $-1 $22 #
body $-1 $23 $-1 $24 #
body $-1 $25 $-1 $26 #
lump $-1 $-1 $27 $0 #
transform $-1 1 0 0 0 1 0 0 0 1 63.765373699148533 27.939458091171463 12.885899424940325 1 rotate no_reflect no_shear #
lump $-1 $-1 $28 $1 #
transform $-1 1 0 0 0 1 0 0 0 1 63.765373699148533 27.939458091171463 12.885899424940325 1 rotate no_reflect no_shear #
lump $-1 $-1 $29 $2 #
transform $-1 1 0 0 0 1 0 0 0 1 63.765373699148533 27.939458091171463 12.885899424940325 1 rotate no_reflect no_shear #
lump $-1 $-1 $30 $3 #
transform $-1 1 0 0 0 1 0 0 0 1 63.765373699148533 27.939458091171463 12.885899424940325 1 rotate no_reflect no_shear #
lump $-1 $-1 $31 $4 #
transform $-1 1 0 0 0 1 0 0 0 1 63.765373699148533 27.939458091171463 12.885899424940325 1 rotate no_reflect no_shear #
lump $-1 $-1 $32 $5 #
transform $-1 1 0 0 0 1 0 0 0 1 63.765373699148533 27.939458091171463 12.885899424940325 1 rotate no_reflect no_shear #
lump $-1 $-1 $33 $6 #
transform $-1 1 0 0 0 1 0 0 0 1 63.765373699148533 27.939458091171463 12.885899424940325 1 rotate no_reflect no_shear #
lump $-1 $-1 $34 $7 #
transform $-1 1 0 0 0 1 0 0 0 1 63.765373699148533 27.939458091171463 12.885899424940325 1 rotate no_reflect no_shear #
lump $-1 $-1 $35 $8 #
transform $-1 1 0 0 0 1 0 0 0 1 63.765373699148533 27.939458091171463 12.885899424940325 1 rotate no_reflect no_shear #
shell $-1 $-1 $-1 $36 $-1 $9 #
shell $-1 $-1 $-1 $37 $-1 $11 #
shell $-1 $-1 $-1 $38 $-1 $13 #
shell $-1 $-1 $-1 $39 $-1 $15 #
shell $-1 $-1 $-1 $40 $-1 $17 #
shell $-1 $-1 $-1 $41 $-1 $19 #
shell $-1 $-1 $-1 $42 $-1 $21 #
shell $-1 $-1 $-1 $43 $-1 $23 #
shell $-1 $-1 $-1 $44 $-1 $25 #
face $-1 $45 $46 $27 $-1 $47 forward single #
face $-1 $48 $49 $28 $-1 $50 reversed single #
face $-1 $51 $52 $29 $-1 $53 reversed single #
face $-1 $54 $55 $30 $-1 $56 forward single #
face $-1 $57 $58 $31 $-1 $59 forward single #
face $-1 $60 $61 $32 $-1 $62 forward single #
face $-1 $63 $64 $33 $-1 $65 reversed single #
face $-1 $66 $67 $34 $-1 $68 forward single #
face $-1 $69 $70 $35 $-1 $71 forward single #
face $-1 $72 $73 $27 $-1 $74 reversed single #
loop $-1 $-1 $75 $36 #
plane-surface $-1 0 0 12.885899424940325 0 0 1 1 0 0 forward_v I I I I #
face $-1 $76 $77 $28 $-1 $78 reversed single #
loop $-1 $-1 $79 $37 #
plane-surface $-1 -55.664540770037043 0 5.8258878884498433 0 0 1 1 0 0 forward_v I I I I #
face $-1 $80 $81 $29 $-1 $82 reversed single #
loop $-1 $-1 $83 $38 #
plane-surface $-1 15.766798132919966 -128.43505950922381 86.517229761344367 -1 0 0 0 -0.78801076186113728 0.61566146476048833 forward_v I I I I #
face $-1 $84 $85 $30 $-1 $86 forward single #
loop $-1 $87 $88 $39 #
cone-surface $-1 5.2323428254492725 -24.559005434742176 9.2933297892300928 0 0.78801076186113728 -0.61566146476048833 1 0 0 1 I I 0 1 1 forward I I I I #
face $-1 $89 $90 $31 $-1 $91 forward single #
loop $-1 $92 $93 $40 #
cone-surface $-1 9.1827635657507827 -24.559005434742176 9.2933297892300928 0 0.78801076186113728 -0.61566146476048833 1 0 0 1 I I 0 1 1 forward I I I I #
face $-1 $94 $95 $32 $-1 $96 forward single #
loop $-1 $97 $98 $41 #
cone-surface $-1 13.133184306052293 -24.559005434742176 9.2933297892300928 0 0.78801076186113728 -0.61566146476048833 1 0 0 1 I I 0 1 1 forward I I I I #
face $-1 $99 $100 $33 $-1 $101 reversed single #
loop $-1 $-1 $102 $42 #
plane-surface $-1 -23.93647416259585 62.422040653908454 141.25226110261698 -1 0 0 0 0.61566148304635926 0.78801074757464917 forward_v I I I I #
face $-1 $103 $104 $34 $-1 $105 forward single #
loop $-1 $106 $107 $43 #
cone-surface $-1 -40.813069647117061 22.15933201760846 7.5721169743855157 0 -0.61566148304635926 -0.78801074757464917 2.5 0 0 1 I I 0 1 2.5 forward I I I I #
face $-1 $108 $109 $35 $-1 $110 forward single #
loop $-1 $111 $112 $44 #
cone-surface $-1 -30.687112356404334 22.15933201760846 7.5721169743855157 0 -0.61566148304635926 -0.78801074757464917 2.5 0 0 1 I I 0 1 2.5 forward I I I I #
face $-1 $113 $114 $27 $-1 $115 reversed single #
loop $-1 $-1 $116 $45 #
plane-surface $-1 0 0 -12.885899424940325 0 0 1 1 0 0 forward_v I I I I #
coedge $-1 $117 $118 $119 $120 forward $46 $-1 #
face $-1 $121 $122 $28 $-1 $123 reversed single #
loop $-1 $-1 $124 $48 #
plane-surface $-1 -47.563707840925552 0 9.3558936566950859 -1 0 0 0 0 1 forward_v I I I I #
coedge $-1 $125 $126 $127 $128 forward $49 $-1 #
face $-1 $129 $130 $29 $-1 $131 reversed single #
loop $-1 $-1 $132 $51 #
plane-surface $-1 9.1827635657507827 -27.939458091171474 8.001463016108957 0 -0.78801076186113728 0.61566146476048833 1 0 0 forward_v I I I I #
coedge $-1 $133 $134 $135 $136 reversed $52 $-1 #
face $-1 $-1 $137 $30 $-1 $138 forward single #
loop $-1 $139 $140 $54 #
cone-surface $-1 5.2323428254492725 -22.692617324554512 7.8351476255552992 0 0.78801076186113728 -0.61566146476048833 0.5 0 0 1 I I -0.70710678118654746 0.70710678118654746 0.5 forward I I I I #
loop $-1 $-1 $141 $39 #
coedge $-1 $88 $88 $142 $143 reversed $55 $-1 #
face $-1 $-1 $144 $31 $-1 $145 forward single #
loop $-1 $146 $147 $57 #
cone-surface $-1 9.1827635657507827 -22.692617324554512 7.8351476255552992 0 0.78801076186113728 -0.61566146476048833 0.5 0 0 1 I I -0.70710678118654746 0.70710678118654746 0.5 forward I I I I #
loop $-1 $-1 $148 $40 #
coedge $-1 $93 $93 $149 $150 reversed $58 $-1 #
face $-1 $-1 $151 $32 $-1 $152 forward single #
loop $-1 $153 $154 $60 #
cone-surface $-1 13.133184306052293 -22.692617324554512 7.8351476255552992 0 0.78801076186113728 -0.61566146476048833 0.5 0 0 1 I I -0.70710678118654746 0.70710678118654746 0.5 forward I I I I #
loop $-1 $-1 $155 $41 #
coedge $-1 $98 $98 $156 $157 reversed $61 $-1 #
face $-1 $158 $159 $33 $-1 $160 forward single #
loop $-1 $-1 $161 $63 #
plane-surface $-1 -35.750091001760701 -16.093728423337737 40.756661506531174 0 0.61566148304635926 0.78801074757464917 1 0 0 forward_v I I I I #
coedge $-1 $162 $163 $164 $165 reversed $64 $-1 #
face $-1 $-1 $166 $34 $-1 $167 forward single #
loop $-1 $168 $169 $66 #
cone-surface $-1 -40.813069647117061 19.789748353117002 4.5391882524891916 0 -0.61566148304635926 -0.78801074757464917 1.25 0 0 1 I I -0.70710678118654746 0.70710678118654746 1.25 forward I I I I #
loop $-1 $-1 $170 $43 #
coedge $-1 $107 $107 $171 $172 reversed $67 $-1 #
face $-1 $-1 $173 $35 $-1 $174 forward single #
loop $-1 $175 $176 $69 #
cone-surface $-1 -30.687112356404334 19.789748353117002 4.5391882524891916 0 -0.61566148304635926 -0.78801074757464917 1.25 0 0 1 I I -0.70710678118654746 0.70710678118654746 1.25 forward I I I I #
loop $-1 $-1 $177 $44 #
coedge $-1 $112 $112 $178 $179 reversed $70 $-1 #
face $-1 $180 $181 $27 $-1 $182 reversed single #
loop $-1 $-1 $183 $72 #
plane-surface $-1 0 -27.939458091171463 0 0 1 0 0 0 1 forward_v I I I I #
coedge $-1 $184 $185 $186 $187 forward $73 $-1 #
coedge $-1 $188 $75 $189 $190 forward $46 $-1 #
coedge $-1 $75 $188 $191 $192 forward $46 $-1 #
coedge $-1 $193 $194 $75 $120 reversed $195 $-1 #
edge $-1 $196 -27.939458091171463 $197 27.939458091171463 $119 $198 forward 7 unknown #
face $-1 $199 $200 $28 $-1 $201 reversed single #
loop $-1 $-1 $202 $76 #
plane-surface $-1 0 27.939458091171463 0 0 -1 0 0 0 -1 forward_v I I I I #
coedge $-1 $127 $203 $204 $205 reversed $77 $-1 #
coedge $-1 $206 $79 $207 $208 reversed $49 $-1 #
coedge $-1 $79 $206 $209 $210 reversed $49 $-1 #
coedge $-1 $211 $124 $79 $128 reversed $77 $-1 #
edge $-1 $212 -27.939458091171463 $213 27.939458091171463 $127 $214 forward 7 unknown #
face $-1 $215 $216 $29 $-1 $217 reversed single #
loop $-1 $-1 $218 $80 #
plane-surface $-1 2.5987289985815991 -128.43505950922381 86.517229761344367 1 0 0 0 0.78801076186113728 -0.61566146476048833 forward_v I I I I #
coedge $-1 $219 $220 $221 $222 reversed $81 $-1 #
coedge $-1 $134 $83 $223 $224 reversed $52 $-1 #
coedge $-1 $83 $133 $219 $225 reversed $52 $-1 #
coedge $-1 $221 $226 $83 $136 forward $227 $-1 #
edge $-1 $228 36.278071663440443 $229 40.094211517784828 $135 $230 forward 7 unknown #
loop $-1 $-1 $142 $84 #
plane-surface $-1 9.1827635657507827 -27.939458091171474 8.001463016108957 0 -0.78801076186113728 0.61566146476048833 1 0 0 forward_v I I I I #
loop $-1 $-1 $231 $54 #
coedge $-1 $140 $140 $141 $232 reversed $85 $-1 #
coedge $-1 $141 $141 $140 $232 forward $87 $-1 #
coedge $-1 $142 $142 $88 $143 forward $137 $-1 #
edge $-1 $233 7.8748060101190622e-016 $233 6.2831853071796013 $142 $234 forward 7 unknown #
loop $-1 $-1 $149 $89 #
plane-surface $-1 9.1827635657507827 -27.939458091171474 8.001463016108957 0 -0.78801076186113728 0.61566146476048833 1 0 0 forward_v I I I I #
loop $-1 $-1 $235 $57 #
coedge $-1 $147 $147 $148 $236 reversed $90 $-1 #
coedge $-1 $148 $148 $147 $236 forward $92 $-1 #
coedge $-1 $149 $149 $93 $150 forward $144 $-1 #
edge $-1 $237 7.8748060101190622e-016 $237 6.2831853071796013 $149 $238 forward 7 unknown #
loop $-1 $-1 $156 $94 #
plane-surface $-1 9.1827635657507827 -27.939458091171474 8.001463016108957 0 -0.78801076186113728 0.61566146476048833 1 0 0 forward_v I I I I #
loop $-1 $-1 $239 $60 #
coedge $-1 $154 $154 $155 $240 reversed $95 $-1 #
coedge $-1 $155 $155 $154 $240 forward $97 $-1 #
coedge $-1 $156 $156 $98 $157 forward $151 $-1 #
edge $-1 $241 7.8748060101190622e-016 $241 6.2831853071796013 $156 $242 forward 7 unknown #
face $-1 $243 $244 $33 $-1 $245 forward single #
loop $-1 $-1 $246 $99 #
plane-surface $-1 0 0 12.885899424940325 0 0 1 1 0 0 forward_v I I I I #
coedge $-1 $247 $248 $249 $250 reversed $100 $-1 #
coedge $-1 $163 $102 $251 $252 reversed $64 $-1 #
coedge $-1 $102 $162 $247 $253 reversed $64 $-1 #
coedge $-1 $249 $254 $102 $165 forward $255 $-1 #
edge $-1 $256 57.740231126368165 $257 64.271965452621757 $164 $258 forward 7 unknown #
loop $-1 $-1 $171 $103 #
plane-surface $-1 -35.750091001760701 -16.093728423337737 40.756661506531174 0 0.61566148304635926 0.78801074757464917 1 0 0 forward_v I I I I #
loop $-1 $-1 $259 $66 #
coedge $-1 $169 $169 $170 $260 reversed $104 $-1 #
coedge $-1 $170 $170 $169 $260 forward $106 $-1 #
coedge $-1 $171 $171 $107 $172 forward $166 $-1 #
edge $-1 $261 -4.3745379446588062e-016 $261 6.2831853071796004 $171 $262 forward 7 unknown #
loop $-1 $-1 $178 $108 #
plane-surface $-1 -35.750091001760701 -16.093728423337737 40.756661506531174 0 0.61566148304635926 0.78801074757464917 1 0 0 forward_v I I I I #
loop $-1 $-1 $263 $69 #
coedge $-1 $176 $176 $177 $264 reversed $109 $-1 #
coedge $-1 $177 $177 $176 $264 forward $111 $-1 #
coedge $-1 $178 $178 $112 $179 forward $173 $-1 #
edge $-1 $265 -4.3745379446588062e-016 $265 6.2831853071796004 $178 $266 forward 7 unknown #
face $-1 $267 $268 $27 $-1 $269 reversed single #
loop $-1 $-1 $270 $113 #
plane-surface $-1 -63.765373699148533 0 0 1 0 0 0 0 -1 forward_v I I I I #
coedge $-1 $271 $191 $272 $273 forward $114 $-1 #
coedge $-1 $274 $116 $271 $275 forward $73 $-1 #
coedge $-1 $116 $274 $276 $277 forward $73 $-1 #
coedge $-1 $194 $193 $116 $187 reversed $195 $-1 #
edge $-1 $278 -27.939458091171463 $279 27.939458091171463 $186 $280 forward 7 unknown #
coedge $-1 $118 $117 $281 $282 forward $46 $-1 #
coedge $-1 $283 $284 $117 $190 reversed $268 $-1 #
edge $-1 $197 -63.765373699148533 $285 63.765373699148533 $189 $286 forward 7 unknown #
coedge $-1 $183 $287 $118 $192 reversed $114 $-1 #
edge $-1 $288 -63.765373699148533 $196 63.765373699148533 $191 $289 forward 7 unknown #
coedge $-1 $186 $119 $287 $290 forward $195 $-1 #
coedge $-1 $119 $186 $283 $291 reversed $195 $-1 #
loop $-1 $-1 $193 $267 #
vertex $-1 $120 $292 #
vertex $-1 $120 $293 #
straight-curve $-1 63.765373699148533 0 12.885899424940325 0 1 0 I I #
face $-1 $294 $295 $28 $-1 $296 forward single #
loop $-1 $-1 $297 $121 #
plane-surface $-1 -63.765373699148533 0 0 1 0 0 0 0 -1 forward_v I I I I #
coedge $-1 $209 $298 $211 $299 forward $122 $-1 #
coedge $-1 $124 $211 $300 $301 reversed $77 $-1 #
coedge $-1 $302 $207 $124 $205 forward $303 $-1 #
edge $-1 $213 1.1479410601023003 $304 8.2079525965927864 $204 $305 forward 7 unknown #
coedge $-1 $126 $125 $297 $306 reversed $49 $-1 #
coedge $-1 $204 $307 $125 $208 forward $303 $-1 #
edge $-1 $308 -35.933103314130008 $213 -19.731437455907031 $207 $309 forward 7 unknown #
coedge $-1 $310 $202 $126 $210 forward $122 $-1 #
edge $-1 $212 19.731437455907031 $311 35.933103314130008 $209 $312 forward 7 unknown #
coedge $-1 $203 $127 $202 $299 reversed $77 $-1 #
vertex $-1 $210 $313 #
vertex $-1 $208 $314 #
straight-curve $-1 -47.563707840925552 0 5.8258878884498433 0 -1 0 I I #
face $-1 $-1 $227 $29 $-1 $315 forward single #
loop $-1 $-1 $316 $129 #
plane-surface $-1 0 -27.939458091171463 0 0 1 0 0 0 1 forward_v I I I I #
coedge $-1 $317 $318 $319 $320 reversed $130 $-1 #
coedge $-1 $321 $132 $134 $225 forward $81 $-1 #
coedge $-1 $132 $321 $317 $322 forward $81 $-1 #
coedge $-1 $319 $135 $132 $222 forward $227 $-1 #
edge $-1 $229 -11.175416350044575 $323 1.9926527842937922 $221 $324 forward 7 unknown #
coedge $-1 $325 $326 $133 $224 forward $216 $-1 #
edge $-1 $327 -35.257151864563212 $228 -30.372715455731857 $223 $328 forward 7 unknown #
edge $-1 $229 -6.1984387082420334 $327 -1.7760113172919084e-014 $134 $329 forward 7 unknown #
coedge $-1 $135 $319 $325 $330 forward $227 $-1 #
loop $-1 $-1 $319 $215 #
vertex $-1 $224 $331 #
vertex $-1 $136 $332 #
straight-curve $-1 15.766798132919966 -64.217529754611903 12.885899424940327 0 1 0 I I #
coedge $-1 $231 $231 $-1 $333 reversed $139 $-1 #
edge $-1 $334 0 $334 6.2831853071796004 $140 $335 forward 7 unknown #
vertex $-1 $143 $336 #
ellipse-curve $-1 5.2323428254492725 -26.031388163999271 10.443681220524645 0 -0.78801076186113728 0.61566146476048833 1 0 0 1 I I #
coedge $-1 $235 $235 $-1 $337 reversed $146 $-1 #
edge $-1 $338 0 $338 6.2831853071796004 $147 $339 forward 7 unknown #
vertex $-1 $150 $340 #
ellipse-curve $-1 9.1827635657507827 -26.031388163999271 10.443681220524645 0 -0.78801076186113728 0.61566146476048833 1 0 0 1 I I #
coedge $-1 $239 $239 $-1 $341 reversed $153 $-1 #
edge $-1 $342 0 $342 6.2831853071796004 $154 $343 forward 7 unknown #
vertex $-1 $157 $344 #
ellipse-curve $-1 13.133184306052293 -26.031388163999271 10.443681220524645 0 -0.78801076186113728 0.61566146476048833 1 0 0 1 I I #
face $-1 $-1 $255 $33 $-1 $345 reversed single #
loop $-1 $-1 $346 $158 #
plane-surface $-1 -47.563707840925552 0 9.3558936566950859 -1 0 0 0 0 1 forward_v I I I I #
coedge $-1 $251 $347 $348 $349 forward $159 $-1 #
coedge $-1 $348 $161 $163 $253 forward $100 $-1 #
coedge $-1 $161 $348 $346 $350 reversed $100 $-1 #
coedge $-1 $351 $164 $161 $250 forward $255 $-1 #
edge $-1 $257 6.0614286617154995 $352 29.688662340045202 $249 $353 forward 7 unknown #
coedge $-1 $354 $246 $162 $252 forward $159 $-1 #
edge $-1 $355 -11.631800761541761 $256 -3.2715622357827634 $251 $356 forward 7 unknown #
edge $-1 $257 -55.878916182342905 $355 -45.269621129591087 $163 $357 forward 7 unknown #
coedge $-1 $164 $351 $354 $358 reversed $255 $-1 #
loop $-1 $-1 $249 $243 #
vertex $-1 $358 $359 #
vertex $-1 $165 $360 #
straight-curve $-1 -23.93647416259585 27.939458091171463 70.626130551308492 0 0 -1 I I #
coedge $-1 $259 $259 $-1 $361 reversed $168 $-1 #
edge $-1 $362 0 $362 6.2831853071796004 $169 $363 forward 7 unknown #
vertex $-1 $172 $364 #
ellipse-curve $-1 -40.813069647117061 23.759338828291966 9.6200322618135274 0 0.61566148304635926 0.78801074757464917 2.5 0 0 1 I I #
coedge $-1 $263 $263 $-1 $365 reversed $175 $-1 #
edge $-1 $366 0 $366 6.2831853071796004 $176 $367 forward 7 unknown #
vertex $-1 $179 $368 #
ellipse-curve $-1 -30.687112356404334 23.759338828291966 9.6200322618135274 0 0.61566148304635926 0.78801074757464917 2.5 0 0 1 I I #
face $-1 $-1 $195 $27 $-1 $369 reversed single #
loop $-1 $-1 $283 $180 #
plane-surface $-1 0 27.939458091171463 0 0 -1 0 0 0 -1 forward_v I I I I #
coedge $-1 $370 $281 $284 $371 forward $181 $-1 #
coedge $-1 $287 $183 $184 $275 reversed $114 $-1 #
coedge $-1 $281 $370 $183 $273 reversed $181 $-1 #
edge $-1 $288 -12.885899424940325 $372 12.885899424940325 $272 $373 forward 7 unknown #
coedge $-1 $185 $184 $370 $374 forward $73 $-1 #
edge $-1 $279 -63.765373699148533 $372 63.765373699148533 $271 $375 forward 7 unknown #
coedge $-1 $284 $283 $185 $277 reversed $268 $-1 #
edge $-1 $376 -63.765373699148533 $278 63.765373699148533 $276 $377 forward 7 unknown #
vertex $-1 $187 $378 #
vertex $-1 $290 $379 #
straight-curve $-1 63.765373699148533 0 -12.885899424940325 0 -1 0 I I #
coedge $-1 $270 $272 $188 $282 reversed $181 $-1 #
edge $-1 $285 -27.939458091171463 $288 27.939458091171463 $281 $380 forward 7 unknown #
coedge $-1 $276 $189 $194 $291 forward $268 $-1 #
coedge $-1 $189 $276 $270 $371 reversed $268 $-1 #
vertex $-1 $190 $381 #
straight-curve $-1 0 27.939458091171463 12.885899424940325 -1 0 0 I I #
coedge $-1 $191 $271 $193 $290 reversed $114 $-1 #
vertex $-1 $282 $382 #
straight-curve $-1 0 -27.939458091171463 12.885899424940325 1 0 0 I I #
edge $-1 $196 -12.885899424940325 $279 12.885899424940325 $193 $383 forward 7 unknown #
edge $-1 $197 -12.885899424940325 $278 12.885899424940325 $194 $384 forward 7 unknown #
point $-1 63.765373699148533 -27.939458091171463 12.885899424940325 #
point $-1 63.765373699148533 27.939458091171463 12.885899424940325 #
face $-1 $-1 $303 $28 $-1 $385 reversed single #
loop $-1 $-1 $300 $199 #
plane-surface $-1 0 0 12.885899424940325 0 0 1 1 0 0 forward_v I I I I #
coedge $-1 $386 $387 $206 $306 forward $200 $-1 #
coedge $-1 $202 $310 $388 $389 reversed $122 $-1 #
edge $-1 $390 -8.2079525965927864 $212 -1.1479410601023003 $202 $391 forward 7 unknown #
coedge $-1 $388 $392 $203 $301 forward $295 $-1 #
edge $-1 $304 -27.939458091171463 $390 27.939458091171463 $300 $393 forward 7 unknown #
coedge $-1 $307 $204 $392 $394 reversed $303 $-1 #
loop $-1 $-1 $204 $294 #
vertex $-1 $205 $395 #
straight-curve $-1 -47.563707840925552 -27.939458091171463 4.6779468283475429 0 0 1 I I #
edge $-1 $311 -27.939458091171463 $308 27.939458091171463 $297 $396 forward 7 unknown #
coedge $-1 $207 $302 $386 $397 forward $303 $-1 #
vertex $-1 $306 $398 #
straight-curve $-1 -27.832270385018521 -27.939458091171463 5.8258878884498433 1 0 0 I I #
coedge $-1 $298 $209 $387 $399 reversed $122 $-1 #
vertex $-1 $306 $400 #
straight-curve $-1 -27.832270385018521 27.939458091171463 5.8258878884498433 -1 0 0 I I #
point $-1 -47.563707840925552 27.939458091171463 5.8258878884498433 #
point $-1 -47.563707840925552 -27.939458091171463 5.8258878884498433 #
plane-surface $-1 0 0 12.885899424940325 0 0 1 1 0 0 forward_v I I I I #
coedge $-1 $326 $325 $318 $401 forward $216 $-1 #
coedge $-1 $318 $218 $220 $322 reversed $130 $-1 #
coedge $-1 $218 $317 $316 $401 reversed $130 $-1 #
coedge $-1 $226 $221 $218 $320 forward $227 $-1 #
edge $-1 $323 -40.094211517784828 $402 -36.278071663440443 $319 $403 forward 7 unknown #
coedge $-1 $220 $219 $326 $404 reversed $81 $-1 #
edge $-1 $405 1.7760113172919084e-014 $323 6.1984387082420334 $317 $406 forward 7 unknown #
vertex $-1 $222 $407 #
straight-curve $-1 4.5913817828753913 -24.123318236827075 12.885899424940325 -1 0 0 I I #
coedge $-1 $316 $223 $226 $330 reversed $216 $-1 #
coedge $-1 $223 $316 $321 $404 forward $216 $-1 #
vertex $-1 $224 $408 #
straight-curve $-1 15.766798132919966 -27.93945809117146 43.258614880672184 0 0 1 I I #
straight-curve $-1 15.766798132919966 -27.939458091171474 8.001463016108957 0 -0.61566146476048833 -0.78801076186113728 I I #
edge $-1 $402 2.5987289985815991 $228 15.766798132919966 $325 $409 forward 7 unknown #
point $-1 15.766798132919966 -27.939458091171463 12.885899424940325 #
point $-1 15.766798132919966 -24.123318236827075 12.885899424940325 #
edge $-1 $410 1 $410 0 $231 $-1 forward 7 unknown #
vertex $-1 $232 $411 #
ellipse-curve $-1 5.2323428254492725 -23.08662270548508 8.1429783579355437 0 -0.78801076186113728 0.61566146476048833 1 0 0 1 I I #
point $-1 6.2323428254492725 -26.031388163999267 10.443681220524644 #
edge $-1 $412 1 $412 0 $235 $-1 forward 7 unknown #
vertex $-1 $236 $413 #
ellipse-curve $-1 9.1827635657507827 -23.08662270548508 8.1429783579355437 0 -0.78801076186113728 0.61566146476048833 1 0 0 1 I I #
point $-1 10.182763565750783 -26.031388163999267 10.443681220524644 #
edge $-1 $414 1 $414 0 $239 $-1 forward 7 unknown #
vertex $-1 $240 $415 #
ellipse-curve $-1 13.133184306052293 -23.08662270548508 8.1429783579355437 0 -0.78801076186113728 0.61566146476048833 1 0 0 1 I I #
point $-1 14.133184306052293 -26.031388163999267 10.443681220524644 #
plane-surface $-1 0 27.939458091171463 0 0 -1 0 0 0 -1 forward_v I I I I #
coedge $-1 $416 $417 $248 $350 forward $244 $-1 #
coedge $-1 $246 $354 $416 $418 forward $159 $-1 #
coedge $-1 $248 $247 $246 $349 reversed $100 $-1 #
edge $-1 $419 -29.688662340045202 $355 -6.0614286617154995 $246 $420 forward 7 unknown #
edge $-1 $352 -39.871779047661768 $419 -29.262483994909942 $346 $421 forward 7 unknown #
coedge $-1 $254 $249 $417 $422 forward $255 $-1 #
vertex $-1 $422 $423 #
straight-curve $-1 -17.875045500880351 27.939458091171467 6.35416509868673 -1 0 0 I I #
coedge $-1 $347 $251 $254 $358 forward $159 $-1 #
vertex $-1 $252 $424 #
straight-curve $-1 -23.93647416259585 31.211020326954227 12.88589942494032 0 1 0 I I #
straight-curve $-1 -23.93647416259585 -16.093728423337737 40.756661506531174 0 -0.78801074757464917 0.61566148304635926 I I #
edge $-1 $256 23.93647416259585 $425 47.563707840925552 $254 $426 forward 7 unknown #
point $-1 -23.93647416259585 27.939458091171463 12.885899424940325 #
point $-1 -23.93647416259585 27.93945809117146 6.3541650986867353 #
edge $-1 $427 1 $427 0 $259 $-1 forward 7 unknown #
vertex $-1 $260 $428 #
ellipse-curve $-1 -40.813069647117061 20.559325206924949 5.524201686957503 0 0.61566148304635926 0.78801074757464917 2.5 0 0 1 I I #
point $-1 -38.313069647117061 23.759338828291966 9.6200322618135292 #
edge $-1 $429 1 $429 0 $263 $-1 forward 7 unknown #
vertex $-1 $264 $430 #
ellipse-curve $-1 -30.687112356404334 20.559325206924949 5.524201686957503 0 0.61566148304635926 0.78801074757464917 2.5 0 0 1 I I #
point $-1 -28.187112356404334 23.759338828291966 9.6200322618135292 #
plane-surface $-1 63.765373699148533 0 0 -1 0 0 0 0 1 forward_v I I I I #
coedge $-1 $272 $270 $274 $374 reversed $181 $-1 #
edge $-1 $285 -12.885899424940325 $376 12.885899424940325 $284 $431 forward 7 unknown #
vertex $-1 $374 $432 #
straight-curve $-1 -63.765373699148533 -27.939458091171463 0 0 0 -1 I I #
edge $-1 $372 -27.939458091171463 $376 27.939458091171463 $370 $433 forward 7 unknown #
straight-curve $-1 0 -27.939458091171463 -12.885899424940325 -1 0 0 I I #
vertex $-1 $277 $434 #
straight-curve $-1 0 27.939458091171463 -12.885899424940325 1 0 0 I I #
point $-1 63.765373699148533 27.939458091171463 -12.885899424940325 #
point $-1 63.765373699148533 -27.939458091171463 -12.885899424940325 #
straight-curve $-1 -63.765373699148533 0 12.885899424940325 0 -1 0 I I #
point $-1 -63.765373699148533 27.939458091171463 12.885899424940325 #
point $-1 -63.765373699148533 -27.939458091171463 12.885899424940325 #
straight-curve $-1 63.765373699148533 -27.939458091171463 0 0 0 -1 I I #
straight-curve $-1 63.765373699148533 27.939458091171463 0 0 0 -1 I I #
plane-surface $-1 0 -27.939458091171463 0 0 1 0 0 0 1 forward_v I I I I #
coedge $-1 $435 $297 $307 $397 reversed $200 $-1 #
coedge $-1 $297 $435 $310 $399 forward $200 $-1 #
coedge $-1 $436 $300 $298 $389 forward $295 $-1 #
edge $-1 $390 47.563707840925552 $437 63.765373699148533 $298 $438 forward 7 unknown #
vertex $-1 $389 $439 #
straight-curve $-1 -47.563707840925552 27.939458091171463 4.6779468283475429 0 0 -1 I I #
coedge $-1 $300 $436 $302 $394 forward $295 $-1 #
straight-curve $-1 -47.563707840925552 0 12.885899424940325 0 1 0 I I #
edge $-1 $440 -63.765373699148533 $304 -47.563707840925552 $302 $441 forward 7 unknown #
point $-1 -47.563707840925552 -27.939458091171463 12.885899424940328 #
straight-curve $-1 -63.765373699148533 0 5.8258878884498433 0 -1 0 I I #
edge $-1 $440 -12.885899424940325 $308 -5.8258878884498433 $386 $442 forward 7 unknown #
point $-1 -63.765373699148533 -27.939458091171463 5.8258878884498433 #
edge $-1 $437 -12.885899424940325 $311 -5.8258878884498433 $310 $443 forward 7 unknown #
point $-1 -63.765373699148533 27.939458091171463 5.8258878884498433 #
edge $-1 $402 30.372715455731857 $405 35.257151864563212 $316 $444 forward 7 unknown #
vertex $-1 $330 $445 #
straight-curve $-1 2.5987289985815991 -64.217529754611903 12.885899424940327 0 -1 0 I I #
edge $-1 $405 -1.9926527842937922 $327 11.175416350044575 $326 $446 forward 7 unknown #
vertex $-1 $404 $447 #
straight-curve $-1 2.5987289985815991 -27.939458091171474 8.001463016108957 0 0.61566146476048833 0.78801076186113728 I I #
point $-1 2.5987289985815991 -24.123318236827075 12.885899424940325 #
point $-1 15.766798132919966 -27.939458091171463 8.0014630161089713 #
straight-curve $-1 0 -27.939458091171463 12.885899424940325 1 0 0 I I #
vertex $-1 $333 $448 #
point $-1 6.2323428254492725 -23.08662270548508 8.1429783579355437 #
vertex $-1 $337 $449 #
point $-1 10.182763565750783 -23.08662270548508 8.1429783579355437 #
vertex $-1 $341 $450 #
point $-1 14.133184306052293 -23.08662270548508 8.1429783579355437 #
coedge $-1 $417 $346 $347 $418 reversed $244 $-1 #
coedge $-1 $346 $416 $351 $422 reversed $244 $-1 #
edge $-1 $425 -27.939458091171463 $419 -19.579219565412465 $347 $451 forward 7 unknown #
vertex $-1 $350 $452 #
straight-curve $-1 -17.875045500880351 19.579219565412465 12.885899424940327 1 0 0 I I #
straight-curve $-1 -47.563707840925552 -3.4799323233077271 30.901683718866934 0 -0.78801074757464917 0.61566148304635926 I I #
edge $-1 $352 1.6762182703391941 $425 8.2079525965927864 $351 $453 forward 7 unknown #
point $-1 -47.563707840925552 27.939458091171463 6.3541650986867371 #
point $-1 -23.93647416259585 19.579219565412465 12.885899424940327 #
vertex $-1 $418 $454 #
straight-curve $-1 0 27.939458091171463 12.885899424940325 -1 0 0 I I #
vertex $-1 $361 $455 #
point $-1 -38.313069647117061 20.559325206924949 5.524201686957503 #
vertex $-1 $365 $456 #
point $-1 -28.187112356404334 20.559325206924949 5.524201686957503 #
straight-curve $-1 -63.765373699148533 27.939458091171463 0 0 0 -1 I I #
point $-1 -63.765373699148533 -27.939458091171463 -12.885899424940325 #
straight-curve $-1 -63.765373699148533 0 -12.885899424940325 0 1 0 I I #
point $-1 -63.765373699148533 27.939458091171463 -12.885899424940325 #
coedge $-1 $387 $386 $436 $457 reversed $200 $-1 #
coedge $-1 $392 $388 $435 $457 forward $295 $-1 #
vertex $-1 $389 $458 #
straight-curve $-1 0 27.939458091171463 12.885899424940325 -1 0 0 I I #
point $-1 -47.563707840925552 27.939458091171463 12.885899424940328 #
vertex $-1 $457 $459 #
straight-curve $-1 0 -27.939458091171463 12.885899424940325 1 0 0 I I #
straight-curve $-1 -63.765373699148533 -27.939458091171463 0 0 0 -1 I I #
straight-curve $-1 -63.765373699148533 27.939458091171463 0 0 0 -1 I I #
straight-curve $-1 2.5987289985815991 -27.93945809117146 43.258614880672184 0 0 -1 I I #
point $-1 2.5987289985815991 -27.939458091171463 12.885899424940325 #
straight-curve $-1 4.5913817828753913 -27.939458091171463 8.0014630161089677 1 0 0 I I #
point $-1 2.5987289985815991 -27.939458091171463 8.0014630161089713 #
point $-1 5.2323428254492725 -22.298611943623943 7.5273168931750547 #
point $-1 9.1827635657507827 -22.298611943623943 7.5273168931750547 #
point $-1 13.133184306052293 -22.298611943623943 7.5273168931750547 #
straight-curve $-1 -47.563707840925552 0 12.885899424940325 0 -1 0 I I #
point $-1 -47.563707840925552 19.579219565412465 12.885899424940327 #
straight-curve $-1 -47.563707840925552 27.939458091171463 4.6779468283475429 0 0 1 I I #
point $-1 -47.563707840925552 27.939458091171463 12.885899424940328 #
point $-1 -40.813069647117061 19.020171499309054 3.5541748180208801 #
point $-1 -30.687112356404334 19.020171499309054 3.5541748180208801 #
edge $-1 $437 -27.939458091171463 $440 27.939458091171463 $435 $460 forward 7 unknown #
point $-1 -63.765373699148533 27.939458091171463 12.885899424940325 #
point $-1 -63.765373699148533 -27.939458091171463 12.885899424940325 #
straight-curve $-1 -63.765373699148533 0 12.885899424940325 0 -1 0 I I #
End-of-ACIS-data 