500 0 7 0           
7 Unknown 11 ACIS 5.0 NT 24 Fri Mar 26 15:58:23 1999 
-1 9.9999999999999995e-007 1e-010 
body $-1 $7 $-1 $8 #
body $-1 $9 $-1 $10 #
body $-1 $11 $-1 $12 #
body $-1 $13 $-1 $14 #
body $-1 $15 $-1 $16 #
body $-1 $17 $-1 $18 #
body $-1 $19 $-1 $20 #
lump $-1 $-1 $21 $0 #
transform $-1 1 0 0 0 1 0 0 0 1 71.786858729819642 30.371009405796801 10.828529578113434 1 rotate no_reflect no_shear #
lump $-1 $-1 $22 $1 #
transform $-1 1 0 0 0 1 0 0 0 1 71.786858729819642 30.371009405796801 10.828529578113434 1 rotate no_reflect no_shear #
lump $-1 $-1 $23 $2 #
transform $-1 1 0 0 0 1 0 0 0 1 71.786858729819642 30.371009405796801 10.828529578113434 1 rotate no_reflect no_shear #
lump $-1 $-1 $24 $3 #
transform $-1 1 0 0 0 1 0 0 0 1 71.786858729819642 30.371009405796801 10.828529578113434 1 rotate no_reflect no_shear #
lump $-1 $-1 $25 $4 #
transform $-1 1 0 0 0 1 0 0 0 1 71.786858729819642 30.371009405796801 10.828529578113434 1 rotate no_reflect no_shear #
lump $-1 $-1 $26 $5 #
transform $-1 1 0 0 0 1 0 0 0 1 71.786858729819642 30.371009405796801 10.828529578113434 1 rotate no_reflect no_shear #
lump $-1 $-1 $27 $6 #
transform $-1 1 0 0 0 1 0 0 0 1 71.786858729819642 30.371009405796801 10.828529578113434 1 rotate no_reflect no_shear #
shell $-1 $-1 $-1 $28 $-1 $7 #
shell $-1 $-1 $-1 $29 $-1 $9 #
shell $-1 $-1 $-1 $30 $-1 $11 #
shell $-1 $-1 $-1 $31 $-1 $13 #
shell $-1 $-1 $-1 $32 $-1 $15 #
shell $-1 $-1 $-1 $33 $-1 $17 #
shell $-1 $-1 $-1 $34 $-1 $19 #
face $-1 $35 $36 $21 $-1 $37 forward single #
face $-1 $38 $39 $22 $-1 $40 reversed single #
face $-1 $41 $42 $23 $-1 $43 forward single #
face $-1 $44 $45 $24 $-1 $46 reversed single #
face $-1 $47 $48 $25 $-1 $49 forward single #
face $-1 $50 $51 $26 $-1 $52 reversed single #
face $-1 $53 $54 $27 $-1 $55 forward single #
face $-1 $56 $57 $21 $-1 $58 reversed single #
loop $-1 $-1 $59 $28 #
plane-surface $-1 0 0 10.828529578113434 0 0 1 1 0 0 forward_v I I I I #
face $-1 $60 $61 $22 $-1 $62 reversed single #
loop $-1 $-1 $63 $29 #
plane-surface $-1 -66.821025997741629 -26.649504884629199 0 0 1 0 0 0 1 forward_v I I I I #
face $-1 $64 $65 $23 $-1 $66 reversed single #
loop $-1 $-1 $67 $30 #
plane-surface $-1 65.438750168619208 0 10.328529578113432 0 0 1 1 0 0 forward_v I I I I #
face $-1 $68 $69 $24 $-1 $70 reversed single #
loop $-1 $-1 $71 $31 #
plane-surface $-1 25.307791345007494 65.620199063698635 153.45064222116389 -1 0 0 0 0.5877852598018023 0.80901698891910034 forward_v I I I I #
face $-1 $72 $73 $25 $-1 $74 forward single #
loop $-1 $75 $76 $32 #
cone-surface $-1 13.456265910813457 23.519498783823629 5.5281296505895092 0 -0.5877852598018023 -0.80901698891910034 1.5 0 0 1 I I 0 1 1.5 forward I I I I #
face $-1 $77 $78 $26 $-1 $79 reversed single #
loop $-1 $-1 $80 $33 #
plane-surface $-1 25.307791345007494 -114.76152422352143 117.74737891310539 -1 0 0 0 -0.5877852598018023 0.80901698891910034 forward_v I I I I #
face $-1 $81 $82 $27 $-1 $83 forward single #
loop $-1 $84 $85 $34 #
cone-surface $-1 13.456265910813457 -23.519498783823625 5.5281296505895092 0 0.5877852598018023 -0.80901698891910034 1.5 0 0 1 I I 0 1 1.5 forward I I I I #
face $-1 $86 $87 $21 $-1 $88 reversed single #
loop $-1 $-1 $89 $35 #
plane-surface $-1 0 0 -10.828529578113434 0 0 1 1 0 0 forward_v I I I I #
coedge $-1 $90 $91 $92 $93 forward $36 $-1 #
face $-1 $94 $95 $22 $-1 $96 reversed single #
loop $-1 $-1 $97 $38 #
plane-surface $-1 -66.821025997741629 -23.649504884629199 0 0 -1 0 0 0 -1 forward_v I I I I #
coedge $-1 $98 $99 $100 $101 reversed $39 $-1 #
face $-1 $102 $103 $23 $-1 $104 reversed single #
loop $-1 $-1 $105 $41 #
plane-surface $-1 65.438750168619208 0 5.6508506704818409 0 0 1 1 0 0 forward_v I I I I #
coedge $-1 $106 $107 $108 $109 reversed $42 $-1 #
face $-1 $110 $111 $24 $-1 $112 reversed single #
loop $-1 $-1 $113 $44 #
plane-surface $-1 13.456265910813443 -18.770315754026001 37.297065634044856 0 0.5877852598018023 0.80901698891910034 1 0 0 forward_v I I I I #
coedge $-1 $114 $115 $116 $117 reversed $45 $-1 #
face $-1 $-1 $118 $25 $-1 $119 forward single #
loop $-1 $120 $121 $47 #
cone-surface $-1 13.456265910813457 22.582404908103204 4.2383306074397975 0 -0.5877852598018023 -0.80901698891910034 0.75 0 0 1 I I -0.70710678118654757 0.70710678118654757 0.75 forward I I I I #
loop $-1 $-1 $122 $32 #
coedge $-1 $76 $76 $123 $124 reversed $48 $-1 #
face $-1 $125 $126 $26 $-1 $127 reversed single #
loop $-1 $-1 $128 $50 #
plane-surface $-1 13.456265910813443 -30.371009405796798 1.5938023259863598 0 -0.5877852598018023 0.80901698891910034 1 0 0 forward_v I I I I #
coedge $-1 $129 $130 $131 $132 reversed $51 $-1 #
face $-1 $-1 $133 $27 $-1 $134 forward single #
loop $-1 $135 $136 $53 #
cone-surface $-1 13.456265910813457 -22.5824049081032 4.2383306074397975 0 0.5877852598018023 -0.80901698891910034 0.75 0 0 1 I I -0.70710678118654757 0.70710678118654757 0.75 forward I I I I #
loop $-1 $-1 $137 $34 #
coedge $-1 $85 $85 $138 $139 reversed $54 $-1 #
face $-1 $140 $141 $21 $-1 $142 reversed single #
loop $-1 $-1 $143 $56 #
plane-surface $-1 0 -30.371009405796801 0 0 1 0 0 0 1 forward_v I I I I #
coedge $-1 $144 $145 $146 $147 forward $57 $-1 #
coedge $-1 $148 $59 $149 $150 forward $36 $-1 #
coedge $-1 $59 $148 $151 $152 forward $36 $-1 #
coedge $-1 $153 $154 $59 $93 reversed $155 $-1 #
edge $-1 $156 -30.371009405796801 $157 30.371009405796801 $92 $158 forward 7 unknown #
face $-1 $159 $160 $22 $-1 $161 reversed single #
loop $-1 $-1 $162 $60 #
plane-surface $-1 -61.855193265663608 -25.149504884629199 0 -1 0 0 0 0 1 forward_v I I I I #
coedge $-1 $163 $164 $165 $166 forward $61 $-1 #
coedge $-1 $167 $63 $168 $169 reversed $39 $-1 #
coedge $-1 $63 $167 $170 $171 reversed $39 $-1 #
coedge $-1 $172 $173 $63 $101 forward $174 $-1 #
edge $-1 $175 -10.828529578113434 $176 10.828529578113434 $100 $177 forward 7 unknown #
face $-1 $178 $179 $23 $-1 $180 reversed single #
loop $-1 $-1 $181 $64 #
plane-surface $-1 59.090641607418775 0 7.9896901242976366 1 0 0 0 0 -1 forward_v I I I I #
coedge $-1 $182 $183 $184 $185 reversed $65 $-1 #
coedge $-1 $186 $67 $187 $188 reversed $42 $-1 #
coedge $-1 $67 $186 $189 $190 reversed $42 $-1 #
coedge $-1 $191 $192 $67 $109 forward $179 $-1 #
edge $-1 $193 -30.371009405796801 $194 30.371009405796801 $108 $195 forward 7 unknown #
face $-1 $196 $197 $24 $-1 $198 reversed single #
loop $-1 $-1 $199 $68 #
plane-surface $-1 1.6047404766193907 65.620199063698635 153.45064222116389 1 0 0 0 -0.5877852598018023 -0.80901698891910034 forward_v I I I I #
coedge $-1 $200 $201 $202 $203 reversed $69 $-1 #
coedge $-1 $115 $71 $204 $205 reversed $45 $-1 #
coedge $-1 $71 $114 $200 $206 reversed $45 $-1 #
coedge $-1 $202 $207 $71 $117 forward $197 $-1 #
edge $-1 $208 65.896791532468512 $209 75.131518784595585 $116 $210 forward 7 unknown #
loop $-1 $-1 $123 $72 #
plane-surface $-1 13.456265910813443 -18.770315754026001 37.297065634044856 0 0.5877852598018023 0.80901698891910034 1 0 0 forward_v I I I I #
loop $-1 $-1 $211 $47 #
coedge $-1 $121 $121 $122 $212 reversed $73 $-1 #
coedge $-1 $122 $122 $121 $212 forward $75 $-1 #
coedge $-1 $123 $123 $76 $124 forward $118 $-1 #
edge $-1 $213 1.2200595710448646e-015 $213 6.2831853071796013 $123 $214 forward 7 unknown #
face $-1 $215 $216 $26 $-1 $217 reversed single #
loop $-1 $-1 $218 $77 #
plane-surface $-1 1.6047404766193907 -114.76152422352143 117.74737891310539 1 0 0 0 0.5877852598018023 -0.80901698891910034 forward_v I I I I #
coedge $-1 $219 $220 $221 $222 reversed $78 $-1 #
coedge $-1 $130 $80 $223 $224 reversed $51 $-1 #
coedge $-1 $80 $129 $219 $225 reversed $51 $-1 #
coedge $-1 $221 $226 $80 $132 forward $227 $-1 #
edge $-1 $228 27.009752705963916 $229 39.720264088172101 $131 $230 forward 7 unknown #
loop $-1 $-1 $138 $81 #
plane-surface $-1 13.456265910813443 -30.371009405796798 1.5938023259863598 0 -0.5877852598018023 0.80901698891910034 1 0 0 forward_v I I I I #
loop $-1 $-1 $231 $53 #
coedge $-1 $136 $136 $137 $232 reversed $82 $-1 #
coedge $-1 $137 $137 $136 $232 forward $84 $-1 #
coedge $-1 $138 $138 $85 $139 forward $133 $-1 #
edge $-1 $233 1.7594320469727973e-016 $233 6.2831853071796004 $138 $234 forward 7 unknown #
face $-1 $235 $236 $21 $-1 $237 reversed single #
loop $-1 $-1 $238 $86 #
plane-surface $-1 -71.786858729819642 0 0 1 0 0 0 0 -1 forward_v I I I I #
coedge $-1 $239 $151 $240 $241 forward $87 $-1 #
coedge $-1 $242 $89 $239 $243 forward $57 $-1 #
coedge $-1 $89 $242 $244 $245 forward $57 $-1 #
coedge $-1 $154 $153 $89 $147 reversed $155 $-1 #
edge $-1 $246 -30.371009405796801 $247 30.371009405796801 $146 $248 forward 7 unknown #
coedge $-1 $91 $90 $249 $250 forward $36 $-1 #
coedge $-1 $251 $252 $90 $150 reversed $236 $-1 #
edge $-1 $157 -71.786858729819642 $253 71.786858729819642 $149 $254 forward 7 unknown #
coedge $-1 $143 $255 $91 $152 reversed $87 $-1 #
edge $-1 $256 -71.786858729819642 $156 71.786858729819642 $151 $257 forward 7 unknown #
coedge $-1 $146 $92 $255 $258 forward $155 $-1 #
coedge $-1 $92 $146 $251 $259 reversed $155 $-1 #
loop $-1 $-1 $153 $235 #
vertex $-1 $93 $260 #
vertex $-1 $93 $261 #
straight-curve $-1 71.786858729819642 0 10.828529578113434 0 1 0 I I #
face $-1 $262 $263 $22 $-1 $264 forward single #
loop $-1 $-1 $265 $94 #
plane-surface $-1 0 0 -10.828529578113434 0 0 1 1 0 0 forward_v I I I I #
coedge $-1 $266 $267 $167 $268 forward $95 $-1 #
coedge $-1 $269 $97 $265 $270 reversed $61 $-1 #
coedge $-1 $97 $269 $271 $272 reversed $61 $-1 #
coedge $-1 $267 $266 $97 $166 reversed $95 $-1 #
edge $-1 $273 -10.828529578113434 $274 10.828529578113434 $165 $275 forward 7 unknown #
coedge $-1 $99 $98 $162 $268 reversed $39 $-1 #
coedge $-1 $276 $277 $98 $169 forward $160 $-1 #
edge $-1 $278 28.444680266792794 $175 38.376345730948827 $168 $279 forward 7 unknown #
coedge $-1 $280 $281 $99 $171 forward $263 $-1 #
edge $-1 $176 -38.376345730948827 $282 -28.444680266792794 $170 $283 forward 7 unknown #
coedge $-1 $284 $100 $281 $285 reversed $174 $-1 #
coedge $-1 $100 $284 $276 $286 reversed $174 $-1 #
loop $-1 $-1 $284 $262 #
vertex $-1 $286 $287 #
vertex $-1 $101 $288 #
straight-curve $-1 -71.786858729819642 -26.649504884629199 0 0 0 1 I I #
face $-1 $289 $290 $23 $-1 $291 reversed single #
loop $-1 $-1 $184 $102 #
plane-surface $-1 71.786858729819642 0 0 -1 0 0 0 0 1 forward_v I I I I #
coedge $-1 $292 $293 $294 $295 reversed $103 $-1 #
coedge $-1 $296 $105 $297 $298 reversed $65 $-1 #
coedge $-1 $105 $296 $299 $300 reversed $65 $-1 #
coedge $-1 $192 $191 $105 $185 forward $179 $-1 #
edge $-1 $301 -30.371009405796801 $302 30.371009405796801 $184 $303 forward 7 unknown #
coedge $-1 $107 $106 $293 $304 forward $42 $-1 #
coedge $-1 $305 $294 $106 $188 forward $290 $-1 #
edge $-1 $306 26.371266523109171 $193 39.067483645510038 $187 $307 forward 7 unknown #
coedge $-1 $308 $309 $107 $190 forward $310 $-1 #
edge $-1 $194 -39.067483645510038 $311 -26.371266523109171 $189 $312 forward 7 unknown #
coedge $-1 $184 $108 $309 $313 forward $179 $-1 #
coedge $-1 $108 $184 $305 $314 reversed $179 $-1 #
vertex $-1 $314 $315 #
vertex $-1 $313 $316 #
straight-curve $-1 71.786858729819642 0 10.328529578113432 0 -1 0 I I #
face $-1 $-1 $317 $24 $-1 $318 forward single #
loop $-1 $-1 $116 $110 #
plane-surface $-1 0 30.371009405796801 0 0 -1 0 0 0 -1 forward_v I I I I #
coedge $-1 $319 $320 $321 $322 reversed $111 $-1 #
coedge $-1 $323 $113 $115 $206 forward $69 $-1 #
coedge $-1 $113 $323 $319 $324 forward $69 $-1 #
coedge $-1 $321 $116 $113 $203 forward $197 $-1 #
edge $-1 $209 -18.579658389600773 $325 5.1233924787873306 $202 $326 forward 7 unknown #
coedge $-1 $327 $328 $114 $205 forward $317 $-1 #
edge $-1 $329 -15.149601508260716 $208 -2.4390901260525162 $204 $330 forward 7 unknown #
edge $-1 $209 -60.742018811593596 $329 -45.030962608447261 $115 $331 forward 7 unknown #
coedge $-1 $116 $321 $327 $332 reversed $197 $-1 #
vertex $-1 $332 $333 #
vertex $-1 $117 $334 #
straight-curve $-1 25.307791345007494 30.371009405796801 76.725321110581945 0 0 -1 I I #
coedge $-1 $211 $211 $-1 $335 reversed $120 $-1 #
edge $-1 $336 0 $336 6.2831853071796004 $121 $337 forward 7 unknown #
vertex $-1 $124 $338 #
ellipse-curve $-1 13.456265910813457 24.0157537146927 6.2111659520498925 0 0.5877852598018023 0.80901698891910034 1.5 0 0 1 I I #
face $-1 $-1 $227 $26 $-1 $339 forward single #
loop $-1 $-1 $340 $125 #
plane-surface $-1 0 -30.371009405796801 0 0 1 0 0 0 1 forward_v I I I I #
coedge $-1 $341 $342 $343 $344 reversed $126 $-1 #
coedge $-1 $345 $128 $130 $225 forward $78 $-1 #
coedge $-1 $128 $345 $341 $346 forward $78 $-1 #
coedge $-1 $343 $131 $128 $222 forward $227 $-1 #
edge $-1 $229 -18.579658389600773 $347 5.1233924787873306 $221 $348 forward 7 unknown #
coedge $-1 $349 $350 $129 $224 forward $216 $-1 #
edge $-1 $351 -57.279887130566337 $228 -48.045159878439264 $223 $352 forward 7 unknown #
edge $-1 $229 -15.711056203146315 $351 4.4403802724362578e-015 $130 $353 forward 7 unknown #
coedge $-1 $131 $343 $349 $354 forward $227 $-1 #
loop $-1 $-1 $343 $215 #
vertex $-1 $224 $355 #
vertex $-1 $132 $356 #
straight-curve $-1 25.307791345007494 -57.380762111760717 10.828529578113432 0 1 0 I I #
coedge $-1 $231 $231 $-1 $357 reversed $135 $-1 #
edge $-1 $358 0 $358 6.2831853071796004 $136 $359 forward 7 unknown #
vertex $-1 $139 $360 #
ellipse-curve $-1 13.456265910813457 -24.015753714692703 6.2111659520498987 0 -0.5877852598018023 0.80901698891910034 1.5 0 0 1 I I #
face $-1 $-1 $155 $21 $-1 $361 reversed single #
loop $-1 $-1 $251 $140 #
plane-surface $-1 0 30.371009405796801 0 0 -1 0 0 0 -1 forward_v I I I I #
coedge $-1 $362 $249 $252 $363 forward $141 $-1 #
coedge $-1 $255 $143 $144 $243 reversed $87 $-1 #
coedge $-1 $249 $362 $143 $241 reversed $141 $-1 #
edge $-1 $256 -10.828529578113434 $364 10.828529578113434 $240 $365 forward 7 unknown #
coedge $-1 $145 $144 $362 $366 forward $57 $-1 #
edge $-1 $247 -71.786858729819642 $364 71.786858729819642 $239 $367 forward 7 unknown #
coedge $-1 $252 $251 $145 $245 reversed $236 $-1 #
edge $-1 $368 -71.786858729819642 $246 71.786858729819642 $244 $369 forward 7 unknown #
vertex $-1 $147 $370 #
vertex $-1 $258 $371 #
straight-curve $-1 71.786858729819642 0 -10.828529578113434 0 -1 0 I I #
coedge $-1 $238 $240 $148 $250 reversed $141 $-1 #
edge $-1 $253 -30.371009405796801 $256 30.371009405796801 $249 $372 forward 7 unknown #
coedge $-1 $244 $149 $154 $259 forward $236 $-1 #
coedge $-1 $149 $244 $238 $363 reversed $236 $-1 #
vertex $-1 $150 $373 #
straight-curve $-1 0 30.371009405796801 10.828529578113434 -1 0 0 I I #
coedge $-1 $151 $239 $153 $258 reversed $87 $-1 #
vertex $-1 $250 $374 #
straight-curve $-1 0 -30.371009405796801 10.828529578113434 1 0 0 I I #
edge $-1 $156 -10.828529578113434 $247 10.828529578113434 $153 $375 forward 7 unknown #
edge $-1 $157 -10.828529578113434 $246 10.828529578113434 $154 $376 forward 7 unknown #
point $-1 71.786858729819642 -30.371009405796801 10.828529578113434 #
point $-1 71.786858729819642 30.371009405796801 10.828529578113434 #
face $-1 $-1 $174 $22 $-1 $377 reversed single #
loop $-1 $-1 $271 $159 #
plane-surface $-1 0 0 10.828529578113434 0 0 1 1 0 0 forward_v I I I I #
coedge $-1 $277 $276 $163 $270 forward $160 $-1 #
coedge $-1 $165 $162 $277 $378 reversed $95 $-1 #
coedge $-1 $162 $165 $280 $379 reversed $95 $-1 #
edge $-1 $282 -10.828529578113434 $278 10.828529578113434 $162 $380 forward 7 unknown #
coedge $-1 $164 $163 $284 $381 reversed $61 $-1 #
edge $-1 $382 -38.376345730948827 $274 -28.444680266792794 $265 $383 forward 7 unknown #
coedge $-1 $281 $280 $164 $272 forward $263 $-1 #
edge $-1 $273 28.444680266792794 $384 38.376345730948827 $271 $385 forward 7 unknown #
vertex $-1 $272 $386 #
vertex $-1 $270 $387 #
straight-curve $-1 -61.855193265663608 -23.649504884629199 0 0 0 -1 I I #
coedge $-1 $265 $168 $173 $286 forward $160 $-1 #
coedge $-1 $168 $265 $266 $378 forward $160 $-1 #
vertex $-1 $169 $388 #
straight-curve $-1 -33.410512998870814 -26.649504884629199 -10.828529578113434 -1 0 0 I I #
coedge $-1 $271 $170 $267 $379 forward $263 $-1 #
coedge $-1 $170 $271 $172 $285 forward $263 $-1 #
vertex $-1 $171 $389 #
straight-curve $-1 -33.410512998870814 -26.649504884629199 10.828529578113434 1 0 0 I I #
coedge $-1 $173 $172 $269 $381 forward $174 $-1 #
edge $-1 $384 23.649504884629199 $176 26.649504884629199 $172 $390 forward 7 unknown #
edge $-1 $175 -26.649504884629199 $382 -23.649504884629199 $173 $391 forward 7 unknown #
point $-1 -71.786858729819642 -26.649504884629199 -10.828529578113434 #
point $-1 -71.786858729819642 -26.649504884629199 10.828529578113434 #
face $-1 $-1 $310 $23 $-1 $392 reversed single #
loop $-1 $-1 $299 $178 #
plane-surface $-1 0 30.371009405796801 0 0 -1 0 0 0 -1 forward_v I I I I #
coedge $-1 $393 $181 $296 $394 reversed $103 $-1 #
coedge $-1 $181 $393 $186 $304 reversed $103 $-1 #
coedge $-1 $187 $299 $181 $295 forward $290 $-1 #
edge $-1 $395 1.6560056083330226 $306 6.333684515964614 $294 $396 forward 7 unknown #
coedge $-1 $183 $182 $292 $394 forward $65 $-1 #
coedge $-1 $309 $308 $182 $298 forward $310 $-1 #
edge $-1 $397 26.371266523109171 $301 39.067483645510038 $297 $398 forward 7 unknown #
coedge $-1 $294 $305 $183 $300 forward $290 $-1 #
edge $-1 $302 -39.067483645510038 $395 -26.371266523109171 $299 $399 forward 7 unknown #
vertex $-1 $185 $400 #
vertex $-1 $185 $401 #
straight-curve $-1 71.786858729819642 0 5.6508506704818409 0 1 0 I I #
edge $-1 $306 -30.371009405796801 $311 30.371009405796801 $293 $402 forward 7 unknown #
coedge $-1 $299 $187 $192 $314 forward $290 $-1 #
vertex $-1 $188 $403 #
straight-curve $-1 32.719375084309604 30.371009405796801 10.328529578113432 1 0 0 I I #
coedge $-1 $297 $189 $393 $404 forward $310 $-1 #
coedge $-1 $189 $297 $191 $313 reversed $310 $-1 #
loop $-1 $-1 $297 $289 #
vertex $-1 $190 $405 #
straight-curve $-1 32.719375084309604 -30.371009405796801 10.328529578113432 -1 0 0 I I #
edge $-1 $194 -10.328529578113432 $301 -5.6508506704818409 $191 $406 forward 7 unknown #
edge $-1 $193 -10.328529578113432 $302 -5.6508506704818409 $192 $407 forward 7 unknown #
point $-1 71.786858729819642 30.371009405796801 10.328529578113432 #
point $-1 71.786858729819642 -30.371009405796801 10.328529578113432 #
loop $-1 $-1 $204 $196 #
plane-surface $-1 0 0 10.828529578113434 0 0 1 1 0 0 forward_v I I I I #
coedge $-1 $320 $199 $201 $324 reversed $111 $-1 #
coedge $-1 $199 $319 $408 $409 reversed $111 $-1 #
coedge $-1 $207 $202 $199 $322 forward $197 $-1 #
edge $-1 $325 -75.131518784595585 $410 -65.896791532468512 $321 $411 forward 7 unknown #
coedge $-1 $201 $200 $328 $412 reversed $69 $-1 #
edge $-1 $413 45.030962608447261 $325 60.742018811593596 $319 $414 forward 7 unknown #
vertex $-1 $203 $415 #
straight-curve $-1 6.7281329554067213 30.371009405796805 1.5938023259863527 -1 0 0 I I #
coedge $-1 $408 $204 $207 $332 forward $317 $-1 #
coedge $-1 $204 $408 $323 $412 forward $317 $-1 #
vertex $-1 $205 $416 #
straight-curve $-1 25.307791345007494 32.810099531849318 10.828529578113432 0 1 0 I I #
straight-curve $-1 25.307791345007494 -18.770315754026001 37.297065634044856 0 -0.80901698891910034 0.5877852598018023 I I #
edge $-1 $208 -25.307791345007494 $410 -1.6047404766193907 $207 $417 forward 7 unknown #
point $-1 25.307791345007494 30.371009405796801 10.828529578113434 #
point $-1 25.307791345007494 30.371009405796798 1.5938023259863527 #
edge $-1 $418 1 $418 0 $211 $-1 forward 7 unknown #
vertex $-1 $212 $419 #
ellipse-curve $-1 13.456265910813457 23.023243852954554 4.8450933491291224 0 0.5877852598018023 0.80901698891910034 1.5 0 0 1 I I #
point $-1 14.956265910813457 24.015753714692703 6.2111659520498943 #
plane-surface $-1 0 0 10.828529578113434 0 0 1 1 0 0 forward_v I I I I #
coedge $-1 $350 $349 $342 $420 forward $216 $-1 #
coedge $-1 $342 $218 $220 $346 reversed $126 $-1 #
coedge $-1 $218 $341 $340 $420 reversed $126 $-1 #
coedge $-1 $226 $221 $218 $344 forward $227 $-1 #
edge $-1 $347 -39.720264088172101 $421 -27.009752705963916 $343 $422 forward 7 unknown #
coedge $-1 $220 $219 $350 $423 reversed $78 $-1 #
edge $-1 $424 -4.4403802724362578e-015 $347 15.711056203146315 $341 $425 forward 7 unknown #
vertex $-1 $222 $426 #
straight-curve $-1 6.7281329554067213 -17.660498023588612 10.828529578113434 -1 0 0 I I #
coedge $-1 $340 $223 $226 $354 reversed $216 $-1 #
coedge $-1 $223 $340 $345 $423 forward $216 $-1 #
vertex $-1 $224 $427 #
straight-curve $-1 25.307791345007494 -30.371009405796798 58.873689456552697 0 0 1 I I #
straight-curve $-1 25.307791345007494 -30.371009405796798 1.5938023259863598 0 -0.80901698891910034 -0.5877852598018023 I I #
edge $-1 $421 1.6047404766193907 $228 25.307791345007494 $349 $428 forward 7 unknown #
point $-1 25.307791345007494 -30.371009405796801 10.828529578113434 #
point $-1 25.307791345007494 -17.660498023588612 10.828529578113434 #
edge $-1 $429 1 $429 0 $231 $-1 forward 7 unknown #
vertex $-1 $232 $430 #
ellipse-curve $-1 13.456265910813457 -23.02324385295455 4.8450933491291224 0 -0.5877852598018023 0.80901698891910034 1.5 0 0 1 I I #
point $-1 14.956265910813457 -24.0157537146927 6.2111659520498943 #
plane-surface $-1 71.786858729819642 0 0 -1 0 0 0 0 1 forward_v I I I I #
coedge $-1 $240 $238 $242 $366 reversed $141 $-1 #
edge $-1 $253 -10.828529578113434 $368 10.828529578113434 $252 $431 forward 7 unknown #
vertex $-1 $366 $432 #
straight-curve $-1 -71.786858729819642 -30.371009405796801 0 0 0 -1 I I #
edge $-1 $364 -30.371009405796801 $368 30.371009405796801 $362 $433 forward 7 unknown #
straight-curve $-1 0 -30.371009405796801 -10.828529578113434 -1 0 0 I I #
vertex $-1 $245 $434 #
straight-curve $-1 0 30.371009405796801 -10.828529578113434 1 0 0 I I #
point $-1 71.786858729819642 30.371009405796801 -10.828529578113434 #
point $-1 71.786858729819642 -30.371009405796801 -10.828529578113434 #
straight-curve $-1 -71.786858729819642 0 10.828529578113434 0 -1 0 I I #
point $-1 -71.786858729819642 30.371009405796801 10.828529578113434 #
point $-1 -71.786858729819642 -30.371009405796801 10.828529578113434 #
straight-curve $-1 71.786858729819642 -30.371009405796801 0 0 0 -1 I I #
straight-curve $-1 71.786858729819642 30.371009405796801 0 0 0 -1 I I #
plane-surface $-1 -71.786858729819642 0 0 1 0 0 0 0 -1 forward_v I I I I #
edge $-1 $274 11.074752442314599 $278 14.074752442314599 $277 $435 forward 7 unknown #
edge $-1 $282 -14.074752442314599 $273 -11.074752442314599 $280 $436 forward 7 unknown #
straight-curve $-1 -61.855193265663608 -26.649504884629199 0 0 0 -1 I I #
edge $-1 $384 -10.828529578113434 $382 10.828529578113434 $284 $437 forward 7 unknown #
vertex $-1 $381 $438 #
straight-curve $-1 -33.410512998870814 -23.649504884629199 -10.828529578113434 1 0 0 I I #
vertex $-1 $285 $439 #
straight-curve $-1 -33.410512998870814 -23.649504884629199 10.828529578113434 -1 0 0 I I #
point $-1 -61.855193265663608 -23.649504884629199 10.828529578113434 #
point $-1 -61.855193265663608 -23.649504884629199 -10.828529578113434 #
point $-1 -61.855193265663608 -26.649504884629199 -10.828529578113434 #
point $-1 -61.855193265663608 -26.649504884629199 10.828529578113434 #
straight-curve $-1 -71.786858729819642 0 10.828529578113434 0 -1 0 I I #
straight-curve $-1 -71.786858729819642 0 -10.828529578113434 0 1 0 I I #
plane-surface $-1 0 -30.371009405796801 0 0 1 0 0 0 1 forward_v I I I I #
coedge $-1 $293 $292 $308 $404 reversed $103 $-1 #
edge $-1 $397 -30.371009405796801 $395 30.371009405796801 $292 $440 forward 7 unknown #
vertex $-1 $300 $441 #
straight-curve $-1 59.090641607418775 30.371009405796801 3.9948450621488183 0 0 1 I I #
vertex $-1 $298 $442 #
straight-curve $-1 32.719375084309604 -30.371009405796801 5.6508506704818409 1 0 0 I I #
straight-curve $-1 32.719375084309604 30.371009405796801 5.6508506704818409 -1 0 0 I I #
point $-1 71.786858729819642 -30.371009405796801 5.6508506704818409 #
point $-1 71.786858729819642 30.371009405796801 5.6508506704818409 #
straight-curve $-1 59.090641607418775 0 10.328529578113432 0 -1 0 I I #
point $-1 59.090641607418775 30.371009405796801 10.328529578113432 #
edge $-1 $311 -6.333684515964614 $397 -1.6560056083330226 $308 $443 forward 7 unknown #
point $-1 59.090641607418775 -30.371009405796801 10.328529578113432 #
straight-curve $-1 71.786858729819642 -30.371009405796801 0 0 0 -1 I I #
straight-curve $-1 71.786858729819642 30.371009405796801 0 0 0 -1 I I #
coedge $-1 $328 $327 $320 $409 forward $317 $-1 #
edge $-1 $410 2.4390901260525162 $413 15.149601508260716 $408 $444 forward 7 unknown #
vertex $-1 $409 $445 #
straight-curve $-1 1.6047404766193907 30.371009405796801 76.725321110581945 0 0 1 I I #
edge $-1 $413 -5.1233924787873306 $329 18.579658389600773 $328 $446 forward 7 unknown #
vertex $-1 $412 $447 #
straight-curve $-1 1.6047404766193907 -18.770315754026001 37.297065634044856 0 0.80901698891910034 -0.5877852598018023 I I #
point $-1 1.6047404766193907 30.371009405796798 1.5938023259863527 #
point $-1 25.307791345007494 17.660498023588602 10.828529578113432 #
straight-curve $-1 0 30.371009405796801 10.828529578113434 -1 0 0 I I #
vertex $-1 $335 $448 #
point $-1 14.956265910813457 23.023243852954554 4.8450933491291224 #
edge $-1 $421 48.045159878439264 $424 57.279887130566337 $340 $449 forward 7 unknown #
vertex $-1 $354 $450 #
straight-curve $-1 1.6047404766193907 -57.380762111760717 10.828529578113432 0 -1 0 I I #
edge $-1 $424 -5.1233924787873306 $351 18.579658389600773 $350 $451 forward 7 unknown #
vertex $-1 $423 $452 #
straight-curve $-1 1.6047404766193907 -30.371009405796798 1.5938023259863598 0 0.80901698891910034 0.5877852598018023 I I #
point $-1 1.6047404766193907 -17.660498023588612 10.828529578113434 #
point $-1 25.307791345007494 -30.371009405796801 1.5938023259863572 #
straight-curve $-1 0 -30.371009405796801 10.828529578113434 1 0 0 I I #
vertex $-1 $357 $453 #
point $-1 14.956265910813457 -23.02324385295455 4.8450933491291224 #
straight-curve $-1 -71.786858729819642 30.371009405796801 0 0 0 -1 I I #
point $-1 -71.786858729819642 -30.371009405796801 -10.828529578113434 #
straight-curve $-1 -71.786858729819642 0 -10.828529578113434 0 1 0 I I #
point $-1 -71.786858729819642 30.371009405796801 -10.828529578113434 #
straight-curve $-1 -61.855193265663608 -12.574752442314599 -10.828529578113434 0 -1 0 I I #
straight-curve $-1 -61.855193265663608 -12.574752442314599 10.828529578113434 0 1 0 I I #
straight-curve $-1 -71.786858729819642 -23.649504884629199 0 0 0 -1 I I #
point $-1 -71.786858729819642 -23.649504884629199 -10.828529578113434 #
point $-1 -71.786858729819642 -23.649504884629199 10.828529578113434 #
straight-curve $-1 59.090641607418775 0 5.6508506704818409 0 1 0 I I #
point $-1 59.090641607418775 30.371009405796801 5.6508506704818409 #
point $-1 59.090641607418775 -30.371009405796801 5.6508506704818409 #
straight-curve $-1 59.090641607418775 -30.371009405796801 3.9948450621488183 0 0 -1 I I #
straight-curve $-1 1.6047404766193907 32.810099531849318 10.828529578113432 0 -1 0 I I #
point $-1 1.6047404766193907 30.371009405796801 10.828529578113434 #
straight-curve $-1 6.7281329554067213 17.660498023588598 10.828529578113436 1 0 0 I I #
point $-1 1.6047404766193907 17.660498023588602 10.828529578113432 #
point $-1 13.456265910813457 22.141565963251853 3.6315678657504722 #
straight-curve $-1 1.6047404766193907 -30.371009405796798 58.873689456552697 0 0 -1 I I #
point $-1 1.6047404766193907 -30.371009405796801 10.828529578113434 #
straight-curve $-1 6.7281329554067213 -30.371009405796801 1.5938023259863572 1 0 0 I I #
point $-1 1.6047404766193907 -30.371009405796801 1.5938023259863572 #
point $-1 13.456265910813457 -22.14156596325185 3.6315678657504722 #
End-of-ACIS-data 