500 0 6 0           
7 Unknown 11 ACIS 5.0 NT 24 Fri Mar 26 17:25:50 1999 
-1 9.9999999999999995e-007 1e-010 
body $-1 $6 $-1 $7 #
body $-1 $8 $-1 $9 #
body $-1 $10 $-1 $11 #
body $-1 $12 $-1 $13 #
body $-1 $14 $-1 $15 #
body $-1 $16 $-1 $17 #
lump $-1 $-1 $18 $0 #
transform $-1 1 0 0 0 1 0 0 0 1 66.673177282021555 38.795458846162525 11.477971625056856 1 rotate no_reflect no_shear #
lump $-1 $-1 $19 $1 #
transform $-1 1 0 0 0 1 0 0 0 1 66.673177282021555 38.795458846162525 11.477971625056856 1 rotate no_reflect no_shear #
lump $-1 $-1 $20 $2 #
transform $-1 1 0 0 0 1 0 0 0 1 66.673177282021555 38.795458846162525 11.477971625056856 1 rotate no_reflect no_shear #
lump $-1 $-1 $21 $3 #
transform $-1 1 0 0 0 1 0 0 0 1 66.673177282021555 38.795458846162525 11.477971625056856 1 rotate no_reflect no_shear #
lump $-1 $-1 $22 $4 #
transform $-1 1 0 0 0 1 0 0 0 1 66.673177282021555 38.795458846162525 11.477971625056856 1 rotate no_reflect no_shear #
lump $-1 $-1 $23 $5 #
transform $-1 1 0 0 0 1 0 0 0 1 66.673177282021555 38.795458846162525 11.477971625056856 1 rotate no_reflect no_shear #
shell $-1 $-1 $-1 $24 $-1 $6 #
shell $-1 $-1 $-1 $25 $-1 $8 #
shell $-1 $-1 $-1 $26 $-1 $10 #
shell $-1 $-1 $-1 $27 $-1 $12 #
shell $-1 $-1 $-1 $28 $-1 $14 #
shell $-1 $-1 $-1 $29 $-1 $16 #
face $-1 $30 $31 $18 $-1 $32 forward single #
face $-1 $33 $34 $19 $-1 $35 forward single #
face $-1 $36 $37 $20 $-1 $38 reversed single #
face $-1 $39 $40 $21 $-1 $41 forward single #
face $-1 $42 $43 $22 $-1 $44 reversed single #
face $-1 $45 $46 $23 $-1 $47 forward single #
face $-1 $48 $49 $18 $-1 $50 reversed single #
loop $-1 $-1 $51 $24 #
plane-surface $-1 0 0 11.477971625056856 0 0 1 1 0 0 forward_v I I I I #
face $-1 $52 $53 $19 $-1 $54 reversed single #
loop $-1 $-1 $55 $25 #
plane-surface $-1 0 -38.795458846162525 0 0 1 0 0 0 1 forward_v I I I I #
face $-1 $56 $57 $20 $-1 $58 reversed single #
loop $-1 $-1 $59 $26 #
plane-surface $-1 21.051493695356072 -13.532557287080778 186.48315126787924 0 -1 0 -0.51503808176128008 0 -0.85716729658548041 forward_v I I I I #
face $-1 $60 $61 $21 $-1 $62 forward single #
loop $-1 $63 $64 $27 #
cone-surface $-1 59.256359144634864 -21.747551366609919 6.1900839574573974 -0.51503808176128008 0 -0.85716729658548041 0.85716729658548041 0 -0.51503808176128008 1 I I 0 1 1 forward I I I I #
face $-1 $65 $66 $22 $-1 $67 reversed single #
loop $-1 $-1 $68 $28 #
plane-surface $-1 21.051493695356072 20.846444859070022 186.48315126787924 0 -1 0 -0.51503808176128008 0 -0.85716729658548041 forward_v I I I I #
face $-1 $69 $70 $23 $-1 $71 forward single #
loop $-1 $72 $73 $29 #
cone-surface $-1 59.256359144634864 12.631450779540877 6.1900839574573974 -0.51503808176128008 0 -0.85716729658548041 0.85716729658548041 0 -0.51503808176128008 1 I I 0 1 1 forward I I I I #
face $-1 $74 $75 $18 $-1 $76 reversed single #
loop $-1 $-1 $77 $30 #
plane-surface $-1 0 0 -11.477971625056856 0 0 1 1 0 0 forward_v I I I I #
coedge $-1 $78 $79 $80 $81 forward $31 $-1 #
face $-1 $82 $83 $19 $-1 $84 forward single #
loop $-1 $-1 $85 $33 #
plane-surface $-1 -66.673177282021555 0 0 1 0 0 0 0 -1 forward_v I I I I #
coedge $-1 $86 $87 $88 $89 forward $34 $-1 #
face $-1 $90 $91 $20 $-1 $92 reversed single #
loop $-1 $-1 $93 $36 #
plane-surface $-1 -47.626956969168205 -21.747551366609922 72.183017016689462 0.51503808176128008 0 0.85716729658548041 0.85716729658548041 0 -0.51503808176128008 forward_v I I I I #
coedge $-1 $94 $95 $96 $97 reversed $37 $-1 #
face $-1 $-1 $98 $21 $-1 $99 forward single #
loop $-1 $100 $101 $39 #
cone-surface $-1 58.217009246310852 -21.747551366609919 4.4603152780110555 -0.51503808176128008 0 -0.85716729658548041 0.4285836482927402 0 -0.25751904088064004 1 I I -0.70710678118654746 0.70710678118654746 0.5 forward I I I I #
loop $-1 $-1 $102 $27 #
coedge $-1 $64 $64 $103 $104 reversed $40 $-1 #
face $-1 $105 $106 $22 $-1 $107 reversed single #
loop $-1 $-1 $108 $42 #
plane-surface $-1 -47.626956969168205 12.631450779540877 72.183017016689462 0.51503808176128008 0 0.85716729658548041 0.85716729658548041 0 -0.51503808176128008 forward_v I I I I #
coedge $-1 $109 $110 $111 $112 reversed $43 $-1 #
face $-1 $-1 $113 $23 $-1 $114 forward single #
loop $-1 $115 $116 $45 #
cone-surface $-1 58.217009246310852 12.631450779540877 4.4603152780110555 -0.51503808176128008 0 -0.85716729658548041 0.4285836482927402 0 -0.25751904088064004 1 I I -0.70710678118654746 0.70710678118654746 0.5 forward I I I I #
loop $-1 $-1 $117 $29 #
coedge $-1 $73 $73 $118 $119 reversed $46 $-1 #
face $-1 $120 $121 $18 $-1 $122 reversed single #
loop $-1 $-1 $123 $48 #
plane-surface $-1 0 -38.795458846162525 0 0 1 0 0 0 1 forward_v I I I I #
coedge $-1 $124 $125 $126 $127 forward $49 $-1 #
coedge $-1 $128 $51 $129 $130 forward $31 $-1 #
coedge $-1 $51 $128 $131 $132 forward $31 $-1 #
coedge $-1 $133 $134 $51 $81 reversed $135 $-1 #
edge $-1 $136 -38.795458846162525 $137 38.795458846162525 $80 $138 forward 7 unknown #
face $-1 $139 $140 $19 $-1 $141 reversed single #
loop $-1 $-1 $142 $52 #
plane-surface $-1 0 -43.211915546174254 4.867144988593747 0 0 1 1 0 0 forward_v I I I I #
coedge $-1 $143 $144 $87 $145 forward $53 $-1 #
coedge $-1 $146 $55 $147 $148 reversed $34 $-1 #
coedge $-1 $55 $146 $85 $145 reversed $34 $-1 #
coedge $-1 $149 $142 $55 $89 reversed $83 $-1 #
edge $-1 $150 -66.673177282021555 $151 66.673177282021555 $88 $152 forward 7 unknown #
face $-1 $153 $154 $20 $-1 $155 reversed single #
loop $-1 $-1 $156 $56 #
plane-surface $-1 21.051493695356072 -29.962545446139067 186.48315126787924 0 1 0 0.51503808176128008 0 0.85716729658548041 forward_v I I I I #
coedge $-1 $157 $158 $159 $160 reversed $57 $-1 #
coedge $-1 $95 $59 $161 $162 reversed $37 $-1 #
coedge $-1 $59 $94 $157 $163 reversed $37 $-1 #
coedge $-1 $159 $164 $59 $97 forward $165 $-1 #
edge $-1 $166 -56.147430434343519 $167 -42.877455874456956 $96 $168 forward 7 unknown #
loop $-1 $-1 $103 $60 #
plane-surface $-1 -47.626956969168205 -21.747551366609922 72.183017016689462 0.51503808176128008 0 0.85716729658548041 0.85716729658548041 0 -0.51503808176128008 forward_v I I I I #
loop $-1 $-1 $169 $39 #
coedge $-1 $101 $101 $102 $170 reversed $61 $-1 #
coedge $-1 $102 $102 $101 $170 forward $63 $-1 #
coedge $-1 $103 $103 $64 $104 forward $98 $-1 #
edge $-1 $171 0 $171 6.2831853071796004 $103 $172 forward 7 unknown #
face $-1 $173 $174 $22 $-1 $175 reversed single #
loop $-1 $-1 $176 $65 #
plane-surface $-1 21.051493695356072 4.4164567000117323 186.48315126787924 0 1 0 0.51503808176128008 0 0.85716729658548041 forward_v I I I I #
coedge $-1 $177 $178 $179 $180 reversed $66 $-1 #
coedge $-1 $110 $68 $181 $182 reversed $43 $-1 #
coedge $-1 $68 $109 $177 $183 reversed $43 $-1 #
coedge $-1 $179 $184 $68 $112 forward $185 $-1 #
edge $-1 $186 -56.147430434343519 $187 -42.877455874456956 $111 $188 forward 7 unknown #
loop $-1 $-1 $118 $69 #
plane-surface $-1 -47.626956969168205 12.631450779540877 72.183017016689462 0.51503808176128008 0 0.85716729658548041 0.85716729658548041 0 -0.51503808176128008 forward_v I I I I #
loop $-1 $-1 $189 $45 #
coedge $-1 $116 $116 $117 $190 reversed $70 $-1 #
coedge $-1 $117 $117 $116 $190 forward $72 $-1 #
coedge $-1 $118 $118 $73 $119 forward $113 $-1 #
edge $-1 $191 0 $191 6.2831853071796004 $118 $192 forward 7 unknown #
face $-1 $193 $194 $18 $-1 $195 reversed single #
loop $-1 $-1 $196 $74 #
plane-surface $-1 -66.673177282021555 0 0 1 0 0 0 0 -1 forward_v I I I I #
coedge $-1 $197 $131 $198 $199 forward $75 $-1 #
coedge $-1 $200 $77 $197 $201 forward $49 $-1 #
coedge $-1 $77 $200 $202 $203 forward $49 $-1 #
coedge $-1 $134 $133 $77 $127 reversed $135 $-1 #
edge $-1 $204 -38.795458846162525 $205 38.795458846162525 $126 $206 forward 7 unknown #
coedge $-1 $79 $78 $207 $208 forward $31 $-1 #
coedge $-1 $209 $210 $78 $130 reversed $194 $-1 #
edge $-1 $137 -66.673177282021555 $211 66.673177282021555 $129 $212 forward 7 unknown #
coedge $-1 $123 $213 $79 $132 reversed $75 $-1 #
edge $-1 $214 -66.673177282021555 $136 66.673177282021555 $131 $215 forward 7 unknown #
coedge $-1 $126 $80 $213 $216 forward $135 $-1 #
coedge $-1 $80 $126 $209 $217 reversed $135 $-1 #
loop $-1 $-1 $133 $193 #
vertex $-1 $81 $218 #
vertex $-1 $81 $219 #
straight-curve $-1 66.673177282021555 0 11.477971625056856 0 1 0 I I #
face $-1 $220 $221 $19 $-1 $222 reversed single #
loop $-1 $-1 $223 $82 #
plane-surface $-1 0 -43.211915546174254 -0.93373717044633864 0 0 1 1 0 0 forward_v I I I I #
coedge $-1 $88 $224 $225 $226 forward $83 $-1 #
coedge $-1 $227 $85 $228 $229 reversed $53 $-1 #
coedge $-1 $85 $227 $149 $230 reversed $53 $-1 #
edge $-1 $150 -4.867144988593747 $231 0.93373717044633864 $85 $232 forward 7 unknown #
coedge $-1 $87 $86 $233 $234 forward $34 $-1 #
coedge $-1 $225 $235 $86 $148 forward $236 $-1 #
edge $-1 $237 -0.93373717044633864 $151 4.867144988593747 $147 $238 forward 7 unknown #
coedge $-1 $224 $88 $144 $230 forward $83 $-1 #
vertex $-1 $145 $239 #
vertex $-1 $226 $240 #
straight-curve $-1 0 -38.795458846162525 4.867144988593747 1 0 0 I I #
face $-1 $-1 $165 $20 $-1 $241 forward single #
loop $-1 $-1 $242 $90 #
plane-surface $-1 66.673177282021555 0 0 -1 0 0 0 0 1 forward_v I I I I #
coedge $-1 $243 $244 $245 $246 reversed $91 $-1 #
coedge $-1 $247 $93 $95 $163 forward $57 $-1 #
coedge $-1 $93 $247 $243 $248 forward $57 $-1 #
coedge $-1 $245 $96 $93 $160 forward $165 $-1 #
edge $-1 $167 2.6587816037758163 $249 19.088769762834104 $159 $250 forward 7 unknown #
coedge $-1 $251 $252 $94 $162 forward $154 $-1 #
edge $-1 $253 -89.737009281774434 $166 -81.763604008882766 $161 $254 forward 7 unknown #
edge $-1 $167 117.86515898793164 $253 133.34635456404311 $95 $255 forward 7 unknown #
coedge $-1 $96 $245 $251 $256 forward $165 $-1 #
loop $-1 $-1 $245 $153 #
vertex $-1 $162 $257 #
vertex $-1 $97 $258 #
straight-curve $-1 10.525746847678036 -13.532557287080778 11.477971625056853 -1 0 0 I I #
coedge $-1 $169 $169 $-1 $259 reversed $100 $-1 #
edge $-1 $260 0 $260 6.2831853071796004 $101 $261 forward 7 unknown #
vertex $-1 $104 $262 #
ellipse-curve $-1 60.03819000207826 -21.747551366609919 7.4912689886110355 0.51503808176128008 0 0.85716729658548041 0.85716729658548041 0 -0.51503808176128008 1 I I #
face $-1 $-1 $185 $22 $-1 $263 forward single #
loop $-1 $-1 $264 $105 #
plane-surface $-1 66.673177282021555 0 0 -1 0 0 0 0 1 forward_v I I I I #
coedge $-1 $265 $266 $267 $268 reversed $106 $-1 #
coedge $-1 $269 $108 $110 $183 forward $66 $-1 #
coedge $-1 $108 $269 $265 $270 forward $66 $-1 #
coedge $-1 $267 $111 $108 $180 forward $185 $-1 #
edge $-1 $187 -14.530719469299584 $271 1.8992686897587063 $179 $272 forward 7 unknown #
coedge $-1 $273 $274 $109 $182 forward $174 $-1 #
edge $-1 $275 -89.737009281774434 $186 -81.763604008882766 $181 $276 forward 7 unknown #
edge $-1 $187 117.86515898793164 $275 133.34635456404311 $110 $277 forward 7 unknown #
coedge $-1 $111 $267 $273 $278 forward $185 $-1 #
loop $-1 $-1 $267 $173 #
vertex $-1 $182 $279 #
vertex $-1 $112 $280 #
straight-curve $-1 10.525746847678036 20.846444859070022 11.477971625056853 -1 0 0 I I #
coedge $-1 $189 $189 $-1 $281 reversed $115 $-1 #
edge $-1 $282 0 $282 6.2831853071796004 $116 $283 forward 7 unknown #
vertex $-1 $119 $284 #
ellipse-curve $-1 60.03819000207826 12.631450779540877 7.4912689886110355 0.51503808176128008 0 0.85716729658548041 0.85716729658548041 0 -0.51503808176128008 1 I I #
face $-1 $-1 $135 $18 $-1 $285 reversed single #
loop $-1 $-1 $209 $120 #
plane-surface $-1 0 38.795458846162525 0 0 -1 0 0 0 -1 forward_v I I I I #
coedge $-1 $286 $207 $210 $287 forward $121 $-1 #
coedge $-1 $213 $123 $124 $201 reversed $75 $-1 #
coedge $-1 $207 $286 $123 $199 reversed $121 $-1 #
edge $-1 $214 -11.477971625056856 $288 11.477971625056856 $198 $289 forward 7 unknown #
coedge $-1 $125 $124 $286 $290 forward $49 $-1 #
edge $-1 $205 -66.673177282021555 $288 66.673177282021555 $197 $291 forward 7 unknown #
coedge $-1 $210 $209 $125 $203 reversed $194 $-1 #
edge $-1 $292 -66.673177282021555 $204 66.673177282021555 $202 $293 forward 7 unknown #
vertex $-1 $127 $294 #
vertex $-1 $216 $295 #
straight-curve $-1 66.673177282021555 0 -11.477971625056856 0 -1 0 I I #
coedge $-1 $196 $198 $128 $208 reversed $121 $-1 #
edge $-1 $211 -38.795458846162525 $214 38.795458846162525 $207 $296 forward 7 unknown #
coedge $-1 $202 $129 $134 $217 forward $194 $-1 #
coedge $-1 $129 $202 $196 $287 reversed $194 $-1 #
vertex $-1 $130 $297 #
straight-curve $-1 0 38.795458846162525 11.477971625056856 -1 0 0 I I #
coedge $-1 $131 $197 $133 $216 reversed $75 $-1 #
vertex $-1 $208 $298 #
straight-curve $-1 0 -38.795458846162525 11.477971625056856 1 0 0 I I #
edge $-1 $136 -11.477971625056856 $205 11.477971625056856 $133 $299 forward 7 unknown #
edge $-1 $137 -11.477971625056856 $204 11.477971625056856 $134 $300 forward 7 unknown #
point $-1 66.673177282021555 -38.795458846162525 11.477971625056856 #
point $-1 66.673177282021555 38.795458846162525 11.477971625056856 #
face $-1 $-1 $236 $19 $-1 $301 reversed single #
loop $-1 $-1 $302 $139 #
plane-surface $-1 0 -47.628372246185982 1.9667039090737042 0 1 0 0 0 1 forward_v I I I I #
coedge $-1 $303 $233 $235 $304 forward $140 $-1 #
coedge $-1 $142 $149 $305 $306 forward $83 $-1 #
coedge $-1 $307 $147 $142 $226 reversed $236 $-1 #
edge $-1 $308 -4.4164567000117287 $151 4.4164567000117287 $225 $309 forward 7 unknown #
coedge $-1 $144 $143 $302 $310 reversed $53 $-1 #
coedge $-1 $233 $303 $143 $229 forward $140 $-1 #
edge $-1 $311 -4.4164567000117287 $231 4.4164567000117287 $143 $312 forward 7 unknown #
edge $-1 $150 -4.4164567000117287 $313 4.4164567000117287 $144 $314 forward 7 unknown #
vertex $-1 $145 $315 #
straight-curve $-1 -66.673177282021555 -38.795458846162525 0 0 0 -1 I I #
coedge $-1 $223 $228 $146 $234 reversed $140 $-1 #
edge $-1 $237 -66.673177282021555 $231 66.673177282021555 $233 $316 forward 7 unknown #
coedge $-1 $147 $307 $223 $304 reversed $236 $-1 #
loop $-1 $-1 $147 $220 #
vertex $-1 $148 $317 #
straight-curve $-1 66.673177282021555 -38.795458846162525 0 0 0 1 I I #
point $-1 -66.673177282021555 -38.795458846162525 4.867144988593747 #
point $-1 66.673177282021555 -38.795458846162525 4.867144988593747 #
plane-surface $-1 0 0 11.477971625056856 0 0 1 1 0 0 forward_v I I I I #
coedge $-1 $252 $251 $244 $318 forward $154 $-1 #
coedge $-1 $244 $156 $158 $248 reversed $91 $-1 #
coedge $-1 $156 $243 $242 $318 reversed $91 $-1 #
coedge $-1 $164 $159 $156 $246 forward $165 $-1 #
edge $-1 $249 42.877455874456956 $319 56.147430434343519 $245 $320 forward 7 unknown #
coedge $-1 $158 $157 $252 $321 reversed $57 $-1 #
edge $-1 $322 -133.34635456404311 $249 -117.86515898793164 $243 $323 forward 7 unknown #
vertex $-1 $160 $324 #
straight-curve $-1 53.403202722134999 -10.873775683304961 11.477971625056853 0 -1 0 I I #
coedge $-1 $242 $161 $164 $256 reversed $154 $-1 #
coedge $-1 $161 $242 $247 $321 forward $154 $-1 #
vertex $-1 $162 $325 #
straight-curve $-1 66.673177282021555 -13.532557287080778 93.241575633939618 0 0 1 I I #
straight-curve $-1 -47.626956969168205 -13.532557287080778 72.183017016689462 0.85716729658548041 0 -0.51503808176128008 I I #
edge $-1 $319 -29.962545446139067 $166 -13.532557287080778 $251 $326 forward 7 unknown #
point $-1 66.673177282021555 -13.532557287080778 11.477971625056856 #
point $-1 53.403202722134992 -13.532557287080778 11.477971625056853 #
edge $-1 $327 1 $327 0 $169 $-1 forward 7 unknown #
vertex $-1 $170 $328 #
ellipse-curve $-1 58.47452828719149 -21.747551366609919 4.8888989263037956 0.51503808176128008 0 0.85716729658548041 0.85716729658548041 0 -0.51503808176128008 1 I I #
point $-1 60.895357298663711 -21.747551366609919 6.9762309068497199 #
plane-surface $-1 0 0 11.477971625056856 0 0 1 1 0 0 forward_v I I I I #
coedge $-1 $274 $273 $266 $329 forward $174 $-1 #
coedge $-1 $266 $176 $178 $270 reversed $106 $-1 #
coedge $-1 $176 $265 $264 $329 reversed $106 $-1 #
coedge $-1 $184 $179 $176 $268 forward $185 $-1 #
edge $-1 $271 42.877455874456956 $330 56.147430434343519 $267 $331 forward 7 unknown #
coedge $-1 $178 $177 $274 $332 reversed $66 $-1 #
edge $-1 $333 -133.34635456404311 $271 -117.86515898793164 $265 $334 forward 7 unknown #
vertex $-1 $180 $335 #
straight-curve $-1 53.403202722134999 6.3157253897704386 11.477971625056853 0 -1 0 I I #
coedge $-1 $264 $181 $184 $278 reversed $174 $-1 #
coedge $-1 $181 $264 $269 $332 forward $174 $-1 #
vertex $-1 $182 $336 #
straight-curve $-1 66.673177282021555 20.846444859070022 93.241575633939618 0 0 1 I I #
straight-curve $-1 -47.626956969168205 20.846444859070022 72.183017016689462 0.85716729658548041 0 -0.51503808176128008 I I #
edge $-1 $330 4.4164567000117323 $186 20.846444859070022 $273 $337 forward 7 unknown #
point $-1 66.673177282021555 20.846444859070022 11.477971625056856 #
point $-1 53.403202722134992 20.846444859070022 11.477971625056853 #
edge $-1 $338 1 $338 0 $189 $-1 forward 7 unknown #
vertex $-1 $190 $339 #
ellipse-curve $-1 58.47452828719149 12.631450779540877 4.8888989263037956 0.51503808176128008 0 0.85716729658548041 0.85716729658548041 0 -0.51503808176128008 1 I I #
point $-1 60.895357298663711 12.631450779540877 6.9762309068497199 #
plane-surface $-1 66.673177282021555 0 0 -1 0 0 0 0 1 forward_v I I I I #
coedge $-1 $198 $196 $200 $290 reversed $121 $-1 #
edge $-1 $211 -11.477971625056856 $292 11.477971625056856 $210 $340 forward 7 unknown #
vertex $-1 $290 $341 #
straight-curve $-1 -66.673177282021555 -38.795458846162525 0 0 0 -1 I I #
edge $-1 $288 -38.795458846162525 $292 38.795458846162525 $286 $342 forward 7 unknown #
straight-curve $-1 0 -38.795458846162525 -11.477971625056856 -1 0 0 I I #
vertex $-1 $203 $343 #
straight-curve $-1 0 38.795458846162525 -11.477971625056856 1 0 0 I I #
point $-1 66.673177282021555 38.795458846162525 -11.477971625056856 #
point $-1 66.673177282021555 -38.795458846162525 -11.477971625056856 #
straight-curve $-1 -66.673177282021555 0 11.477971625056856 0 -1 0 I I #
point $-1 -66.673177282021555 38.795458846162525 11.477971625056856 #
point $-1 -66.673177282021555 -38.795458846162525 11.477971625056856 #
straight-curve $-1 66.673177282021555 -38.795458846162525 0 0 0 -1 I I #
straight-curve $-1 66.673177282021555 38.795458846162525 0 0 0 -1 I I #
plane-surface $-1 66.673177282021555 0 0 -1 0 0 0 0 1 forward_v I I I I #
coedge $-1 $344 $305 $227 $310 forward $221 $-1 #
coedge $-1 $228 $223 $344 $345 forward $140 $-1 #
edge $-1 $237 -4.4164567000117287 $346 4.4164567000117287 $235 $347 forward 7 unknown #
coedge $-1 $302 $348 $224 $306 reversed $221 $-1 #
edge $-1 $313 -66.673177282021555 $308 66.673177282021555 $305 $349 forward 7 unknown #
coedge $-1 $235 $225 $348 $350 forward $236 $-1 #
vertex $-1 $226 $351 #
straight-curve $-1 66.673177282021555 -43.211915546174254 4.867144988593747 0 1 0 I I #
edge $-1 $313 -2.9004410795200428 $311 2.9004410795200428 $227 $352 forward 7 unknown #
vertex $-1 $229 $353 #
straight-curve $-1 -66.673177282021555 -43.211915546174254 -0.93373717044633864 0 1 0 I I #
vertex $-1 $230 $354 #
straight-curve $-1 -66.673177282021555 -43.211915546174254 4.867144988593747 0 -1 0 I I #
point $-1 -66.673177282021555 -38.795458846162525 -0.93373717044633864 #
straight-curve $-1 0 -38.795458846162525 -0.93373717044633864 -1 0 0 I I #
point $-1 66.673177282021555 -38.795458846162525 -0.93373717044633864 #
edge $-1 $319 81.763604008882766 $322 89.737009281774434 $242 $355 forward 7 unknown #
vertex $-1 $256 $356 #
straight-curve $-1 10.525746847678036 -29.962545446139067 11.477971625056853 1 0 0 I I #
edge $-1 $322 -19.088769762834104 $253 -2.6587816037758163 $252 $357 forward 7 unknown #
vertex $-1 $321 $358 #
straight-curve $-1 -47.626956969168205 -29.962545446139067 72.183017016689462 -0.85716729658548041 0 0.51503808176128008 I I #
point $-1 53.403202722134992 -29.962545446139067 11.477971625056853 #
point $-1 66.67317728202157 -13.532557287080778 3.5045663521651846 #
straight-curve $-1 66.673177282021555 0 11.477971625056856 0 1 0 I I #
vertex $-1 $259 $359 #
point $-1 59.33169558377697 -21.747551366609919 4.3738608445425156 #
edge $-1 $330 81.763604008882766 $333 89.737009281774434 $264 $360 forward 7 unknown #
vertex $-1 $278 $361 #
straight-curve $-1 10.525746847678036 4.4164567000117323 11.477971625056853 1 0 0 I I #
edge $-1 $333 -1.8992686897587063 $275 14.530719469299584 $274 $362 forward 7 unknown #
vertex $-1 $332 $363 #
straight-curve $-1 -47.626956969168205 4.4164567000117323 72.183017016689462 -0.85716729658548041 0 0.51503808176128008 I I #
point $-1 53.403202722134992 4.4164567000117323 11.477971625056853 #
point $-1 66.67317728202157 20.846444859070022 3.5045663521651846 #
straight-curve $-1 66.673177282021555 0 11.477971625056856 0 1 0 I I #
vertex $-1 $281 $364 #
point $-1 59.33169558377697 12.631450779540877 4.3738608445425156 #
straight-curve $-1 -66.673177282021555 38.795458846162525 0 0 0 -1 I I #
point $-1 -66.673177282021555 -38.795458846162525 -11.477971625056856 #
straight-curve $-1 -66.673177282021555 0 -11.477971625056856 0 1 0 I I #
point $-1 -66.673177282021555 38.795458846162525 -11.477971625056856 #
coedge $-1 $348 $302 $303 $345 reversed $221 $-1 #
edge $-1 $346 -66.673177282021555 $311 66.673177282021555 $344 $365 forward 7 unknown #
vertex $-1 $350 $366 #
straight-curve $-1 66.673177282021555 -43.211915546174254 -0.93373717044633864 0 -1 0 I I #
coedge $-1 $305 $344 $307 $350 reversed $221 $-1 #
straight-curve $-1 0 -47.628372246185982 4.867144988593747 1 0 0 I I #
edge $-1 $308 -2.9004410795200428 $346 2.9004410795200428 $307 $367 forward 7 unknown #
point $-1 66.673177282021555 -47.628372246185982 4.867144988593747 #
straight-curve $-1 -66.673177282021555 -47.628372246185982 1.9667039090737042 0 0 -1 I I #
point $-1 -66.673177282021555 -47.628372246185982 -0.93373717044633864 #
point $-1 -66.673177282021555 -47.628372246185982 4.867144988593747 #
straight-curve $-1 66.673177282021555 -29.962545446139067 93.241575633939618 0 0 -1 I I #
point $-1 66.673177282021555 -29.962545446139067 11.477971625056856 #
straight-curve $-1 66.673177282021541 -10.873775683304961 3.5045663521651917 0 1 0 I I #
point $-1 66.67317728202157 -29.962545446139067 3.5045663521651846 #
point $-1 57.959490205430214 -21.747551366609919 4.0317316297183154 #
straight-curve $-1 66.673177282021555 4.4164567000117323 93.241575633939618 0 0 -1 I I #
point $-1 66.673177282021555 4.4164567000117323 11.477971625056856 #
straight-curve $-1 66.673177282021541 6.3157253897704386 3.5045663521651917 0 1 0 I I #
point $-1 66.67317728202157 4.4164567000117323 3.5045663521651846 #
point $-1 57.959490205430214 12.631450779540877 4.0317316297183154 #
straight-curve $-1 0 -47.628372246185982 -0.93373717044633864 -1 0 0 I I #
point $-1 66.673177282021555 -47.628372246185982 -0.93373717044633864 #
straight-curve $-1 66.673177282021555 -47.628372246185982 1.9667039090737042 0 0 -1 I I #
End-of-ACIS-data 