500 0 6 0           
7 Unknown 11 ACIS 5.0 NT 24 Fri Mar 26 19:01:04 1999 
-1 9.9999999999999995e-007 1e-010 
body $-1 $6 $-1 $7 #
body $-1 $8 $-1 $9 #
body $-1 $10 $-1 $11 #
body $-1 $12 $-1 $13 #
body $-1 $14 $-1 $15 #
body $-1 $16 $-1 $17 #
lump $-1 $-1 $18 $0 #
transform $-1 1 0 0 0 1 0 0 0 1 56.119876705221714 28.100357954351733 6.324488657544272 1 rotate no_reflect no_shear #
lump $-1 $-1 $19 $1 #
transform $-1 1 0 0 0 1 0 0 0 1 56.119876705221714 28.100357954351733 6.324488657544272 1 rotate no_reflect no_shear #
lump $-1 $-1 $20 $2 #
transform $-1 1 0 0 0 1 0 0 0 1 56.119876705221714 28.100357954351733 6.324488657544272 1 rotate no_reflect no_shear #
lump $-1 $-1 $21 $3 #
transform $-1 1 0 0 0 1 0 0 0 1 56.119876705221714 28.100357954351733 6.324488657544272 1 rotate no_reflect no_shear #
lump $-1 $-1 $22 $4 #
transform $-1 1 0 0 0 1 0 0 0 1 56.119876705221714 28.100357954351733 6.324488657544272 1 rotate no_reflect no_shear #
lump $-1 $-1 $23 $5 #
transform $-1 1 0 0 0 1 0 0 0 1 56.119876705221714 28.100357954351733 6.324488657544272 1 rotate no_reflect no_shear #
shell $-1 $-1 $-1 $24 $-1 $6 #
shell $-1 $-1 $-1 $25 $-1 $8 #
shell $-1 $-1 $-1 $26 $-1 $10 #
shell $-1 $-1 $-1 $27 $-1 $12 #
shell $-1 $-1 $-1 $28 $-1 $14 #
shell $-1 $-1 $-1 $29 $-1 $16 #
face $-1 $30 $31 $18 $-1 $32 reversed single #
face $-1 $33 $34 $19 $-1 $35 forward single #
face $-1 $36 $37 $20 $-1 $38 reversed single #
face $-1 $39 $40 $21 $-1 $41 forward single #
face $-1 $42 $43 $22 $-1 $44 forward single #
face $-1 $45 $46 $23 $-1 $47 forward single #
face $-1 $48 $49 $18 $-1 $50 forward single #
loop $-1 $-1 $51 $24 #
plane-surface $-1 0 -28.100357954351733 0 0 1 0 0 0 1 forward_v I I I I #
face $-1 $52 $53 $19 $-1 $54 reversed single #
loop $-1 $-1 $55 $25 #
plane-surface $-1 0 -28.100357954351733 0 0 1 0 0 0 1 forward_v I I I I #
face $-1 $56 $57 $20 $-1 $58 reversed single #
loop $-1 $-1 $59 $26 #
plane-surface $-1 89.121905738047133 -6.6306232216321952 156.01900527662769 0 -1 0 -0.83867057594974714 0 -0.54463902268945019 forward_v I I I I #
face $-1 $60 $61 $21 $-1 $62 forward single #
loop $-1 $63 $64 $27 #
cone-surface $-1 52.895330868663592 -16.910295309728415 2.6205955033424311 -0.83867057594974714 0 -0.54463902268945019 0.54463902268945019 0 -0.83867057594974714 1 I I 0 1 1 forward I I I I #
face $-1 $65 $66 $22 $-1 $67 forward single #
loop $-1 $68 $69 $28 #
cone-surface $-1 52.895330868663592 -13.055418276692333 2.6205955033424311 -0.83867057594974714 0 -0.54463902268945019 0.54463902268945019 0 -0.83867057594974714 1 I I 0 1 1 forward I I I I #
face $-1 $70 $71 $23 $-1 $72 forward single #
loop $-1 $73 $74 $29 #
cone-surface $-1 52.895330868663592 -9.2005412436562501 2.6205955033424311 -0.83867057594974714 0 -0.54463902268945019 0.54463902268945019 0 -0.83867057594974714 1 I I 0 1 1 forward I I I I #
face $-1 $75 $76 $18 $-1 $77 reversed single #
loop $-1 $-1 $78 $30 #
plane-surface $-1 0 0 6.324488657544272 0 0 1 1 0 0 forward_v I I I I #
coedge $-1 $79 $80 $81 $82 reversed $31 $-1 #
face $-1 $83 $84 $19 $-1 $85 reversed single #
loop $-1 $-1 $86 $33 #
plane-surface $-1 0 0 -6.324488657544272 0 0 1 1 0 0 forward_v I I I I #
coedge $-1 $87 $88 $89 $90 forward $34 $-1 #
face $-1 $91 $92 $20 $-1 $93 reversed single #
loop $-1 $-1 $94 $36 #
plane-surface $-1 -5.0102728991470542 -13.055418276692333 94.888855672258899 0.83867057594974714 0 0.54463902268945019 0.54463902268945019 0 -0.83867057594974714 forward_v I I I I #
coedge $-1 $95 $96 $97 $98 reversed $37 $-1 #
face $-1 $-1 $99 $21 $-1 $100 forward single #
loop $-1 $101 $102 $39 #
cone-surface $-1 51.059339258527928 -16.910295309728415 1.428288649035629 -0.83867057594974714 0 -0.54463902268945019 0.2723195113447251 0 -0.41933528797487357 1 I I -0.70710678118654746 0.70710678118654746 0.5 forward I I I I #
loop $-1 $-1 $103 $27 #
coedge $-1 $64 $64 $104 $105 reversed $40 $-1 #
face $-1 $-1 $106 $22 $-1 $107 forward single #
loop $-1 $108 $109 $42 #
cone-surface $-1 51.059339258527928 -13.055418276692333 1.428288649035629 -0.83867057594974714 0 -0.54463902268945019 0.2723195113447251 0 -0.41933528797487357 1 I I -0.70710678118654746 0.70710678118654746 0.5 forward I I I I #
loop $-1 $-1 $110 $28 #
coedge $-1 $69 $69 $111 $112 reversed $43 $-1 #
face $-1 $-1 $113 $23 $-1 $114 forward single #
loop $-1 $115 $116 $45 #
cone-surface $-1 51.059339258527928 -9.2005412436562501 1.428288649035629 -0.83867057594974714 0 -0.54463902268945019 0.2723195113447251 0 -0.41933528797487357 1 I I -0.70710678118654746 0.70710678118654746 0.5 forward I I I I #
loop $-1 $-1 $117 $29 #
coedge $-1 $74 $74 $118 $119 reversed $46 $-1 #
face $-1 $120 $121 $18 $-1 $122 reversed single #
loop $-1 $-1 $123 $48 #
plane-surface $-1 0 0 -6.324488657544272 0 0 1 1 0 0 forward_v I I I I #
coedge $-1 $124 $125 $126 $127 forward $49 $-1 #
coedge $-1 $128 $51 $129 $130 reversed $31 $-1 #
coedge $-1 $51 $128 $131 $132 forward $31 $-1 #
coedge $-1 $133 $123 $51 $82 forward $76 $-1 #
edge $-1 $134 -56.119876705221714 $135 56.119876705221714 $51 $136 forward 7 unknown #
face $-1 $137 $138 $19 $-1 $139 reversed single #
loop $-1 $-1 $140 $52 #
plane-surface $-1 -44.97089939013317 -32.34178197556021 0 0 1 0 0 0 1 forward_v I I I I #
coedge $-1 $141 $142 $88 $143 forward $53 $-1 #
coedge $-1 $144 $55 $145 $146 reversed $34 $-1 #
coedge $-1 $55 $144 $86 $143 reversed $34 $-1 #
coedge $-1 $147 $148 $55 $90 reversed $138 $-1 #
edge $-1 $149 -6.324488657544272 $150 6.324488657544272 $89 $151 forward 7 unknown #
face $-1 $152 $153 $20 $-1 $154 forward single #
loop $-1 $-1 $155 $56 #
plane-surface $-1 89.121905738047133 -19.48021333175247 156.01900527662769 0 1 0 0.83867057594974714 0 0.54463902268945019 forward_v I I I I #
coedge $-1 $156 $157 $158 $159 reversed $57 $-1 #
coedge $-1 $96 $59 $160 $161 reversed $37 $-1 #
coedge $-1 $59 $95 $156 $162 reversed $37 $-1 #
coedge $-1 $158 $163 $59 $98 forward $153 $-1 #
edge $-1 $164 -11.558923836198147 $165 -7.9431448074035274 $97 $166 forward 7 unknown #
loop $-1 $-1 $104 $60 #
plane-surface $-1 -5.0102728991470542 -13.055418276692333 94.888855672258899 0.83867057594974714 0 0.54463902268945019 0.54463902268945019 0 -0.83867057594974714 forward_v I I I I #
loop $-1 $-1 $167 $39 #
coedge $-1 $102 $102 $103 $168 reversed $61 $-1 #
coedge $-1 $103 $103 $102 $168 forward $63 $-1 #
coedge $-1 $104 $104 $64 $105 forward $99 $-1 #
edge $-1 $169 0 $169 6.2831853071796004 $104 $170 forward 7 unknown #
loop $-1 $-1 $111 $65 #
plane-surface $-1 -5.0102728991470542 -13.055418276692333 94.888855672258899 0.83867057594974714 0 0.54463902268945019 0.54463902268945019 0 -0.83867057594974714 forward_v I I I I #
loop $-1 $-1 $171 $42 #
coedge $-1 $109 $109 $110 $172 reversed $66 $-1 #
coedge $-1 $110 $110 $109 $172 forward $68 $-1 #
coedge $-1 $111 $111 $69 $112 forward $106 $-1 #
edge $-1 $173 0 $173 6.2831853071796004 $111 $174 forward 7 unknown #
loop $-1 $-1 $118 $70 #
plane-surface $-1 -5.0102728991470542 -13.055418276692333 94.888855672258899 0.83867057594974714 0 0.54463902268945019 0.54463902268945019 0 -0.83867057594974714 forward_v I I I I #
loop $-1 $-1 $175 $45 #
coedge $-1 $116 $116 $117 $176 reversed $71 $-1 #
coedge $-1 $117 $117 $116 $176 forward $73 $-1 #
coedge $-1 $118 $118 $74 $119 forward $113 $-1 #
edge $-1 $177 0 $177 6.2831853071796004 $118 $178 forward 7 unknown #
face $-1 $179 $180 $18 $-1 $181 reversed single #
loop $-1 $-1 $182 $75 #
plane-surface $-1 -56.119876705221714 0 0 1 0 0 0 0 -1 forward_v I I I I #
coedge $-1 $81 $183 $184 $185 forward $76 $-1 #
coedge $-1 $186 $78 $187 $188 forward $49 $-1 #
coedge $-1 $78 $186 $128 $189 forward $49 $-1 #
coedge $-1 $129 $190 $78 $127 reversed $191 $-1 #
edge $-1 $192 -28.100357954351733 $193 28.100357954351733 $126 $194 forward 7 unknown #
coedge $-1 $80 $79 $125 $189 reversed $31 $-1 #
coedge $-1 $184 $126 $79 $130 forward $191 $-1 #
edge $-1 $192 -6.324488657544272 $134 6.324488657544272 $129 $195 forward 7 unknown #
coedge $-1 $196 $197 $80 $132 reversed $121 $-1 #
edge $-1 $198 -6.324488657544272 $135 6.324488657544272 $131 $199 forward 7 unknown #
coedge $-1 $183 $81 $197 $200 forward $76 $-1 #
vertex $-1 $130 $201 #
vertex $-1 $200 $202 #
straight-curve $-1 0 -28.100357954351733 -6.324488657544272 -1 0 0 I I #
face $-1 $203 $204 $19 $-1 $205 reversed single #
loop $-1 $-1 $89 $83 #
plane-surface $-1 -46.47089939013317 -30.221069964955969 0 1 0 0 0 0 -1 forward_v I I I I #
coedge $-1 $206 $207 $208 $209 forward $84 $-1 #
coedge $-1 $210 $86 $211 $212 forward $53 $-1 #
coedge $-1 $86 $210 $147 $213 forward $53 $-1 #
edge $-1 $149 -46.47089939013317 $214 -43.47089939013317 $86 $215 forward 7 unknown #
coedge $-1 $88 $87 $216 $217 forward $34 $-1 #
coedge $-1 $218 $219 $87 $146 forward $220 $-1 #
edge $-1 $221 43.47089939013317 $150 46.47089939013317 $145 $222 forward 7 unknown #
coedge $-1 $208 $89 $142 $213 reversed $138 $-1 #
coedge $-1 $89 $208 $218 $223 reversed $138 $-1 #
vertex $-1 $143 $224 #
vertex $-1 $223 $225 #
straight-curve $-1 -46.47089939013317 -28.100357954351733 0 0 0 1 I I #
face $-1 $-1 $226 $20 $-1 $227 reversed single #
loop $-1 $-1 $97 $91 #
plane-surface $-1 0 0 6.324488657544272 0 0 1 1 0 0 forward_v I I I I #
coedge $-1 $228 $229 $230 $231 reversed $92 $-1 #
coedge $-1 $232 $94 $96 $162 forward $57 $-1 #
coedge $-1 $94 $232 $228 $233 forward $57 $-1 #
coedge $-1 $230 $97 $94 $159 forward $153 $-1 #
edge $-1 $165 0.10291408328602891 $234 12.952504193406304 $158 $235 forward 7 unknown #
coedge $-1 $236 $237 $95 $161 forward $226 $-1 #
edge $-1 $238 -77.252825603249093 $164 -71.685013980769583 $160 $239 forward 7 unknown #
edge $-1 $165 105.60089927373508 $238 112.23975341044337 $96 $240 forward 7 unknown #
coedge $-1 $97 $230 $236 $241 forward $153 $-1 #
vertex $-1 $98 $242 #
vertex $-1 $98 $243 #
straight-curve $-1 44.560952869023566 -6.6306232216321952 6.3244886575442791 -1 0 0 I I #
coedge $-1 $167 $167 $-1 $244 reversed $101 $-1 #
edge $-1 $245 0 $245 6.2831853071796004 $102 $246 forward 7 unknown #
vertex $-1 $105 $247 #
ellipse-curve $-1 54.311987190824397 -16.910295309728415 3.5405828463045168 0.83867057594974714 0 0.54463902268945019 0.54463902268945019 0 -0.83867057594974714 1 I I #
coedge $-1 $171 $171 $-1 $248 reversed $108 $-1 #
edge $-1 $249 0 $249 6.2831853071796004 $109 $250 forward 7 unknown #
vertex $-1 $112 $251 #
ellipse-curve $-1 54.311987190824397 -13.055418276692333 3.5405828463045168 0.83867057594974714 0 0.54463902268945019 0.54463902268945019 0 -0.83867057594974714 1 I I #
coedge $-1 $175 $175 $-1 $252 reversed $115 $-1 #
edge $-1 $253 0 $253 6.2831853071796004 $116 $254 forward 7 unknown #
vertex $-1 $119 $255 #
ellipse-curve $-1 54.311987190824397 -9.2005412436562501 3.5405828463045168 0.83867057594974714 0 0.54463902268945019 0.54463902268945019 0 -0.83867057594974714 1 I I #
face $-1 $-1 $191 $18 $-1 $256 reversed single #
loop $-1 $-1 $257 $120 #
plane-surface $-1 0 28.100357954351733 0 0 -1 0 0 0 -1 forward_v I I I I #
coedge $-1 $197 $196 $258 $259 forward $121 $-1 #
coedge $-1 $123 $133 $260 $261 forward $76 $-1 #
coedge $-1 $190 $129 $123 $185 reversed $191 $-1 #
edge $-1 $262 -28.100357954351733 $134 28.100357954351733 $184 $263 forward 7 unknown #
coedge $-1 $125 $124 $196 $264 forward $49 $-1 #
coedge $-1 $257 $258 $124 $188 reversed $180 $-1 #
edge $-1 $193 -56.119876705221714 $265 56.119876705221714 $187 $266 forward 7 unknown #
edge $-1 $198 -56.119876705221714 $192 56.119876705221714 $128 $267 forward 7 unknown #
coedge $-1 $126 $184 $257 $268 reversed $191 $-1 #
loop $-1 $-1 $129 $179 #
vertex $-1 $127 $269 #
vertex $-1 $127 $270 #
straight-curve $-1 56.119876705221714 0 6.324488657544272 0 1 0 I I #
straight-curve $-1 56.119876705221714 -28.100357954351733 0 0 0 -1 I I #
coedge $-1 $182 $131 $186 $264 reversed $121 $-1 #
coedge $-1 $131 $182 $133 $200 reversed $121 $-1 #
vertex $-1 $264 $271 #
straight-curve $-1 -56.119876705221714 -28.100357954351733 0 0 0 -1 I I #
edge $-1 $135 -28.100357954351733 $272 28.100357954351733 $197 $273 forward 7 unknown #
point $-1 56.119876705221714 -28.100357954351733 -6.324488657544272 #
point $-1 -56.119876705221714 -28.100357954351733 -6.324488657544272 #
face $-1 $-1 $220 $19 $-1 $274 forward single #
loop $-1 $-1 $275 $137 #
plane-surface $-1 -43.47089939013317 -30.221069964955969 0 -1 0 0 0 0 1 forward_v I I I I #
coedge $-1 $276 $140 $210 $277 reversed $84 $-1 #
coedge $-1 $140 $276 $278 $279 reversed $84 $-1 #
coedge $-1 $148 $147 $140 $209 reversed $138 $-1 #
edge $-1 $280 -6.324488657544272 $281 6.324488657544272 $208 $282 forward 7 unknown #
coedge $-1 $142 $141 $206 $277 forward $53 $-1 #
coedge $-1 $216 $275 $141 $212 reversed $204 $-1 #
edge $-1 $214 -2.1207120106042368 $283 2.1207120106042403 $211 $284 forward 7 unknown #
edge $-1 $281 -2.1207120106042403 $149 2.1207120106042368 $147 $285 forward 7 unknown #
vertex $-1 $212 $286 #
straight-curve $-1 0 -28.100357954351733 -6.324488657544272 1 0 0 I I #
coedge $-1 $287 $211 $144 $217 reversed $204 $-1 #
edge $-1 $221 -6.324488657544272 $214 6.324488657544272 $216 $288 forward 7 unknown #
coedge $-1 $278 $145 $148 $223 forward $220 $-1 #
coedge $-1 $145 $278 $287 $289 forward $220 $-1 #
loop $-1 $-1 $145 $203 #
vertex $-1 $146 $290 #
straight-curve $-1 0 -28.100357954351733 6.324488657544272 -1 0 0 I I #
edge $-1 $150 -2.1207120106042368 $280 2.1207120106042403 $148 $291 forward 7 unknown #
point $-1 -46.47089939013317 -28.100357954351733 -6.324488657544272 #
point $-1 -46.47089939013317 -28.100357954351733 6.324488657544272 #
loop $-1 $-1 $160 $152 #
plane-surface $-1 56.119876705221714 0 0 -1 0 0 0 0 1 forward_v I I I I #
coedge $-1 $229 $155 $157 $233 reversed $92 $-1 #
coedge $-1 $155 $228 $292 $293 reversed $92 $-1 #
coedge $-1 $163 $158 $155 $231 forward $153 $-1 #
edge $-1 $234 7.9431448074035274 $294 11.558923836198147 $230 $295 forward 7 unknown #
coedge $-1 $157 $156 $237 $296 reversed $57 $-1 #
edge $-1 $297 -112.23975341044337 $234 -105.60089927373508 $228 $298 forward 7 unknown #
vertex $-1 $159 $299 #
straight-curve $-1 52.504097676427094 -6.5277091383461663 6.3244886575442649 0 -1 0 I I #
coedge $-1 $292 $160 $163 $241 reversed $226 $-1 #
coedge $-1 $160 $292 $232 $296 forward $226 $-1 #
vertex $-1 $161 $300 #
straight-curve $-1 56.119876705221714 -6.6306232216321952 78.009502638313847 0 0 1 I I #
straight-curve $-1 -5.0102728991470542 -6.6306232216321952 94.888855672258899 0.54463902268945019 0 -0.83867057594974714 I I #
edge $-1 $294 -19.48021333175247 $164 -6.6306232216321952 $236 $301 forward 7 unknown #
point $-1 56.119876705221714 -6.6306232216321952 6.324488657544272 #
point $-1 52.504097676427094 -6.6306232216321952 6.3244886575442649 #
edge $-1 $302 1 $302 0 $167 $-1 forward 7 unknown #
vertex $-1 $168 $303 #
ellipse-curve $-1 51.478674546502802 -16.910295309728415 1.7006081603803542 0.83867057594974714 0 0.54463902268945019 0.54463902268945019 0 -0.83867057594974714 1 I I #
point $-1 54.856626213513827 -16.910295309728415 2.7019122703547613 #
edge $-1 $304 1 $304 0 $171 $-1 forward 7 unknown #
vertex $-1 $172 $305 #
ellipse-curve $-1 51.478674546502802 -13.055418276692333 1.7006081603803542 0.83867057594974714 0 0.54463902268945019 0.54463902268945019 0 -0.83867057594974714 1 I I #
point $-1 54.856626213513827 -13.055418276692333 2.7019122703547613 #
edge $-1 $306 1 $306 0 $175 $-1 forward 7 unknown #
vertex $-1 $176 $307 #
ellipse-curve $-1 51.478674546502802 -9.2005412436562501 1.7006081603803542 0.83867057594974714 0 0.54463902268945019 0.54463902268945019 0 -0.83867057594974714 1 I I #
point $-1 54.856626213513827 -9.2005412436562501 2.7019122703547613 #
plane-surface $-1 56.119876705221714 0 0 -1 0 0 0 0 1 forward_v I I I I #
coedge $-1 $260 $187 $190 $268 forward $180 $-1 #
coedge $-1 $187 $260 $182 $259 reversed $180 $-1 #
edge $-1 $265 -6.324488657544272 $272 6.324488657544272 $258 $308 forward 7 unknown #
coedge $-1 $258 $257 $183 $261 reversed $180 $-1 #
edge $-1 $272 -56.119876705221714 $262 56.119876705221714 $260 $309 forward 7 unknown #
vertex $-1 $185 $310 #
straight-curve $-1 56.119876705221714 0 -6.324488657544272 0 -1 0 I I #
edge $-1 $265 -28.100357954351733 $198 28.100357954351733 $196 $311 forward 7 unknown #
vertex $-1 $188 $312 #
straight-curve $-1 0 28.100357954351733 6.324488657544272 -1 0 0 I I #
straight-curve $-1 0 -28.100357954351733 6.324488657544272 1 0 0 I I #
edge $-1 $193 -6.324488657544272 $262 6.324488657544272 $190 $313 forward 7 unknown #
point $-1 56.119876705221714 -28.100357954351733 6.324488657544272 #
point $-1 56.119876705221714 28.100357954351733 6.324488657544272 #
point $-1 -56.119876705221714 -28.100357954351733 6.324488657544272 #
vertex $-1 $261 $314 #
straight-curve $-1 -56.119876705221714 0 -6.324488657544272 0 1 0 I I #
plane-surface $-1 0 0 6.324488657544272 0 0 1 1 0 0 forward_v I I I I #
coedge $-1 $211 $287 $276 $315 forward $204 $-1 #
coedge $-1 $207 $206 $275 $315 reversed $84 $-1 #
edge $-1 $283 -1.5 $281 1.5 $206 $316 forward 7 unknown #
coedge $-1 $219 $218 $207 $279 forward $220 $-1 #
edge $-1 $280 -1.5 $317 1.5 $207 $318 forward 7 unknown #
vertex $-1 $223 $319 #
vertex $-1 $213 $320 #
straight-curve $-1 -46.47089939013317 -32.34178197556021 0 0 0 -1 I I #
vertex $-1 $315 $321 #
straight-curve $-1 -43.47089939013317 -30.221069964955969 -6.324488657544272 0 -1 0 I I #
straight-curve $-1 -46.47089939013317 -30.221069964955969 -6.324488657544272 0 1 0 I I #
point $-1 -43.47089939013317 -28.100357954351733 -6.324488657544272 #
coedge $-1 $275 $216 $219 $289 reversed $204 $-1 #
straight-curve $-1 -43.47089939013317 -28.100357954351733 0 0 0 -1 I I #
edge $-1 $317 -2.1207120106042403 $221 2.1207120106042368 $287 $322 forward 7 unknown #
point $-1 -43.47089939013317 -28.100357954351733 6.324488657544272 #
straight-curve $-1 -46.47089939013317 -30.221069964955969 6.324488657544272 0 -1 0 I I #
coedge $-1 $237 $236 $229 $293 forward $226 $-1 #
edge $-1 $294 71.685013980769583 $297 77.252825603249093 $292 $323 forward 7 unknown #
vertex $-1 $241 $324 #
straight-curve $-1 44.560952869023566 -19.48021333175247 6.3244886575442791 1 0 0 I I #
edge $-1 $297 -12.952504193406304 $238 -0.10291408328602891 $237 $325 forward 7 unknown #
vertex $-1 $296 $326 #
straight-curve $-1 -5.0102728991470542 -19.48021333175247 94.888855672258899 -0.54463902268945019 0 0.83867057594974714 I I #
point $-1 52.504097676427094 -19.48021333175247 6.3244886575442649 #
point $-1 56.119876705221714 -6.6306232216321952 0.75667703506475448 #
straight-curve $-1 56.119876705221714 0 6.324488657544272 0 1 0 I I #
vertex $-1 $244 $327 #
point $-1 52.023313569192254 -16.910295309728415 0.86193758443060697 #
vertex $-1 $248 $328 #
point $-1 52.023313569192254 -13.055418276692333 0.86193758443060697 #
vertex $-1 $252 $329 #
point $-1 52.023313569192254 -9.2005412436562501 0.86193758443060697 #
straight-curve $-1 -56.119876705221714 28.100357954351733 0 0 0 -1 I I #
straight-curve $-1 0 28.100357954351733 -6.324488657544272 1 0 0 I I #
point $-1 56.119876705221714 28.100357954351733 -6.324488657544272 #
straight-curve $-1 -56.119876705221714 0 6.324488657544272 0 -1 0 I I #
point $-1 -56.119876705221714 28.100357954351733 6.324488657544272 #
straight-curve $-1 56.119876705221714 28.100357954351733 0 0 0 -1 I I #
point $-1 -56.119876705221714 28.100357954351733 -6.324488657544272 #
edge $-1 $317 -6.324488657544272 $283 6.324488657544272 $275 $330 forward 7 unknown #
straight-curve $-1 -44.97089939013317 -32.34178197556021 -6.324488657544272 -1 0 0 I I #
vertex $-1 $289 $331 #
straight-curve $-1 -44.97089939013317 -32.34178197556021 6.324488657544272 1 0 0 I I #
point $-1 -46.47089939013317 -32.34178197556021 6.324488657544272 #
point $-1 -46.47089939013317 -32.34178197556021 -6.324488657544272 #
point $-1 -43.47089939013317 -32.34178197556021 -6.324488657544272 #
straight-curve $-1 -43.47089939013317 -30.221069964955969 6.324488657544272 0 1 0 I I #
straight-curve $-1 56.119876705221714 -19.48021333175247 78.009502638313847 0 0 -1 I I #
point $-1 56.119876705221714 -19.48021333175247 6.324488657544272 #
straight-curve $-1 56.119876705221706 -6.5277091383461663 0.75667703506476158 0 1 0 I I #
point $-1 56.119876705221714 -19.48021333175247 0.75667703506475448 #
point $-1 50.640003970553053 -16.910295309728415 1.1559691376909038 #
point $-1 50.640003970553053 -13.055418276692333 1.1559691376909038 #
point $-1 50.640003970553053 -9.2005412436562501 1.1559691376909038 #
straight-curve $-1 -43.47089939013317 -32.34178197556021 0 0 0 -1 I I #
point $-1 -43.47089939013317 -32.34178197556021 6.324488657544272 #
End-of-ACIS-data 