500 0 11 0           
7 Unknown 11 ACIS 5.0 NT 24 Fri Mar 26 01:47:06 1999 
-1 9.9999999999999995e-007 1e-010 
body $-1 $11 $-1 $12 #
body $-1 $13 $-1 $14 #
body $-1 $15 $-1 $16 #
body $-1 $17 $-1 $18 #
body $-1 $19 $-1 $20 #
body $-1 $21 $-1 $22 #
body $-1 $23 $-1 $24 #
body $-1 $25 $-1 $26 #
body $-1 $27 $-1 $28 #
body $-1 $29 $-1 $30 #
body $-1 $31 $-1 $32 #
lump $-1 $-1 $33 $0 #
transform $-1 1 0 0 0 1 0 0 0 1 53.9310892056032 21.885485188357364 6.0011260069237977 1 rotate no_reflect no_shear #
lump $-1 $-1 $34 $1 #
transform $-1 1 0 0 0 1 0 0 0 1 53.9310892056032 21.885485188357364 6.0011260069237977 1 rotate no_reflect no_shear #
lump $-1 $-1 $35 $2 #
transform $-1 1 0 0 0 1 0 0 0 1 53.9310892056032 21.885485188357364 6.0011260069237977 1 rotate no_reflect no_shear #
lump $-1 $-1 $36 $3 #
transform $-1 1 0 0 0 1 0 0 0 1 53.9310892056032 21.885485188357364 6.0011260069237977 1 rotate no_reflect no_shear #
lump $-1 $-1 $37 $4 #
transform $-1 1 0 0 0 1 0 0 0 1 53.9310892056032 21.885485188357364 6.0011260069237977 1 rotate no_reflect no_shear #
lump $-1 $-1 $38 $5 #
transform $-1 1 0 0 0 1 0 0 0 1 53.9310892056032 21.885485188357364 6.0011260069237977 1 rotate no_reflect no_shear #
lump $-1 $-1 $39 $6 #
transform $-1 1 0 0 0 1 0 0 0 1 53.9310892056032 21.885485188357364 6.0011260069237977 1 rotate no_reflect no_shear #
lump $-1 $-1 $40 $7 #
transform $-1 1 0 0 0 1 0 0 0 1 53.9310892056032 21.885485188357364 6.0011260069237977 1 rotate no_reflect no_shear #
lump $-1 $-1 $41 $8 #
transform $-1 1 0 0 0 1 0 0 0 1 53.9310892056032 21.885485188357364 6.0011260069237977 1 rotate no_reflect no_shear #
lump $-1 $-1 $42 $9 #
transform $-1 1 0 0 0 1 0 0 0 1 53.9310892056032 21.885485188357364 6.0011260069237977 1 rotate no_reflect no_shear #
lump $-1 $-1 $43 $10 #
transform $-1 1 0 0 0 1 0 0 0 1 53.9310892056032 21.885485188357364 6.0011260069237977 1 rotate no_reflect no_shear #
shell $-1 $-1 $-1 $44 $-1 $11 #
shell $-1 $-1 $-1 $45 $-1 $13 #
shell $-1 $-1 $-1 $46 $-1 $15 #
shell $-1 $-1 $-1 $47 $-1 $17 #
shell $-1 $-1 $-1 $48 $-1 $19 #
shell $-1 $-1 $-1 $49 $-1 $21 #
shell $-1 $-1 $-1 $50 $-1 $23 #
shell $-1 $-1 $-1 $51 $-1 $25 #
shell $-1 $-1 $-1 $52 $-1 $27 #
shell $-1 $-1 $-1 $53 $-1 $29 #
shell $-1 $-1 $-1 $54 $-1 $31 #
face $-1 $55 $56 $33 $-1 $57 forward single #
face $-1 $58 $59 $34 $-1 $60 forward single #
face $-1 $61 $62 $35 $-1 $63 reversed single #
face $-1 $64 $65 $36 $-1 $66 forward single #
face $-1 $67 $68 $37 $-1 $69 forward single #
face $-1 $70 $71 $38 $-1 $72 reversed single #
face $-1 $73 $74 $39 $-1 $75 forward single #
face $-1 $76 $77 $40 $-1 $78 forward single #
face $-1 $79 $80 $41 $-1 $81 reversed single #
face $-1 $82 $83 $42 $-1 $84 forward single #
face $-1 $85 $86 $43 $-1 $87 forward single #
face $-1 $88 $89 $33 $-1 $90 reversed single #
loop $-1 $-1 $91 $44 #
plane-surface $-1 0 0 6.0011260069237977 0 0 1 1 0 0 forward_v I I I I #
face $-1 $92 $93 $34 $-1 $94 reversed single #
loop $-1 $-1 $95 $45 #
plane-surface $-1 0 -21.885485188357364 0 0 1 0 0 0 1 forward_v I I I I #
face $-1 $96 $97 $35 $-1 $98 reversed single #
loop $-1 $-1 $99 $46 #
plane-surface $-1 -126.10497491710747 15.00778307565631 81.8285513274257 0 1 0 -0.66913061440640931 0 0.74314481823134659 forward_v I I I I #
face $-1 $100 $101 $36 $-1 $102 forward single #
loop $-1 $103 $104 $47 #
cone-surface $-1 -50.904738713070373 16.972840822142331 3.145440387448021 0.66913061440640931 0 -0.74314481823134659 0.3715724091156733 0 0.33456530720320465 1 I I 0 1 0.5 forward I I I I #
face $-1 $105 $106 $37 $-1 $107 forward single #
loop $-1 $108 $109 $48 #
cone-surface $-1 -50.904738713070373 19.920427441871354 3.145440387448021 0.66913061440640931 0 -0.74314481823134659 0.3715724091156733 0 0.33456530720320465 1 I I 0 1 0.5 forward I I I I #
face $-1 $110 $111 $38 $-1 $112 reversed single #
loop $-1 $-1 $113 $49 #
plane-surface $-1 59.25466570952419 -6.7042408445066757 153.07572201264668 0 -1 0 -0.73135370988377701 0 -0.68199835119979291 forward_v I I I I #
face $-1 $114 $115 $39 $-1 $116 forward single #
loop $-1 $117 $118 $50 #
cone-surface $-1 50.725348538513103 -13.50813894635869 2.6613866092906031 -0.73135370988377701 0 -0.68199835119979291 0.68199835119979291 0 -0.73135370988377701 1 I I 0 1 1 forward I I I I #
face $-1 $119 $120 $40 $-1 $121 forward single #
loop $-1 $122 $123 $51 #
cone-surface $-1 50.725348538513103 -9.4258000852474808 2.6613866092906031 -0.73135370988377701 0 -0.68199835119979291 0.68199835119979291 0 -0.73135370988377701 1 I I 0 1 1 forward I I I I #
face $-1 $124 $125 $41 $-1 $126 reversed single #
loop $-1 $-1 $127 $52 #
plane-surface $-1 59.25466570952419 12.360027845764538 153.07572201264668 0 1 0 0.73135370988377701 0 0.68199835119979291 forward_v I I I I #
face $-1 $128 $129 $42 $-1 $130 forward single #
loop $-1 $131 $132 $53 #
cone-surface $-1 50.725348538513103 15.081587086505344 2.6613866092906031 -0.73135370988377701 0 -0.68199835119979291 0.68199835119979291 0 -0.73135370988377701 1 I I 0 1 1 forward I I I I #
face $-1 $133 $134 $43 $-1 $135 forward single #
loop $-1 $136 $137 $54 #
cone-surface $-1 50.725348538513103 19.163925947616555 2.6613866092906031 -0.73135370988377701 0 -0.68199835119979291 0.68199835119979291 0 -0.73135370988377701 1 I I 0 1 1 forward I I I I #
face $-1 $138 $139 $33 $-1 $140 reversed single #
loop $-1 $-1 $141 $55 #
plane-surface $-1 0 0 -6.0011260069237977 0 0 1 1 0 0 forward_v I I I I #
coedge $-1 $142 $143 $144 $145 forward $56 $-1 #
face $-1 $146 $147 $34 $-1 $148 forward single #
loop $-1 $-1 $149 $58 #
plane-surface $-1 -53.9310892056032 0 0 1 0 0 0 0 -1 forward_v I I I I #
coedge $-1 $150 $151 $152 $153 forward $59 $-1 #
face $-1 $154 $155 $35 $-1 $156 forward single #
loop $-1 $-1 $157 $61 #
plane-surface $-1 -53.931089205603186 18.446634132006835 1.6713323579926396 -0.66913061440640931 0 0.74314481823134659 0.74314481823134659 0 0.66913061440640931 forward_v I I I I #
coedge $-1 $158 $159 $160 $161 reversed $62 $-1 #
face $-1 $-1 $162 $36 $-1 $163 forward single #
loop $-1 $164 $165 $64 #
cone-surface $-1 -50.115467021140645 16.972840822142331 2.2688653878799769 0.66913061440640931 0 -0.74314481823134659 0.18578620455783665 0 0.16728265360160233 1 I I -0.70710678118654746 0.70710678118654746 0.25 forward I I I I #
loop $-1 $-1 $166 $47 #
coedge $-1 $104 $104 $167 $168 reversed $65 $-1 #
face $-1 $-1 $169 $37 $-1 $170 forward single #
loop $-1 $171 $172 $67 #
cone-surface $-1 -50.115467021140645 19.920427441871354 2.2688653878799769 0.66913061440640931 0 -0.74314481823134659 0.18578620455783665 0 0.16728265360160233 1 I I -0.70710678118654746 0.70710678118654746 0.25 forward I I I I #
loop $-1 $-1 $173 $48 #
coedge $-1 $109 $109 $174 $175 reversed $68 $-1 #
face $-1 $176 $177 $38 $-1 $178 reversed single #
loop $-1 $-1 $179 $70 #
plane-surface $-1 -19.63073862765745 -11.466969515803086 79.513894179386014 0.73135370988377701 0 0.68199835119979291 0.68199835119979291 0 -0.73135370988377701 forward_v I I I I #
coedge $-1 $180 $181 $182 $183 reversed $71 $-1 #
face $-1 $-1 $184 $39 $-1 $185 forward single #
loop $-1 $186 $187 $73 #
cone-surface $-1 49.658963093584603 -13.50813894635869 1.6669661184172213 -0.73135370988377701 0 -0.68199835119979291 0.34099917559989645 0 -0.36567685494188851 1 I I -0.70710678118654746 0.70710678118654746 0.5 forward I I I I #
loop $-1 $-1 $188 $50 #
coedge $-1 $118 $118 $189 $190 reversed $74 $-1 #
face $-1 $-1 $191 $40 $-1 $192 forward single #
loop $-1 $193 $194 $76 #
cone-surface $-1 49.658963093584603 -9.4258000852474808 1.6669661184172213 -0.73135370988377701 0 -0.68199835119979291 0.34099917559989645 0 -0.36567685494188851 1 I I -0.70710678118654746 0.70710678118654746 0.5 forward I I I I #
loop $-1 $-1 $195 $51 #
coedge $-1 $123 $123 $196 $197 reversed $77 $-1 #
face $-1 $198 $199 $41 $-1 $200 reversed single #
loop $-1 $-1 $201 $79 #
plane-surface $-1 -19.63073862765745 17.122756517060949 79.513894179386014 0.73135370988377701 0 0.68199835119979291 0.68199835119979291 0 -0.73135370988377701 forward_v I I I I #
coedge $-1 $202 $203 $204 $205 reversed $80 $-1 #
face $-1 $-1 $206 $42 $-1 $207 forward single #
loop $-1 $208 $209 $82 #
cone-surface $-1 49.658963093584603 15.081587086505344 1.6669661184172213 -0.73135370988377701 0 -0.68199835119979291 0.34099917559989645 0 -0.36567685494188851 1 I I -0.70710678118654746 0.70710678118654746 0.5 forward I I I I #
loop $-1 $-1 $210 $53 #
coedge $-1 $132 $132 $211 $212 reversed $83 $-1 #
face $-1 $-1 $213 $43 $-1 $214 forward single #
loop $-1 $215 $216 $85 #
cone-surface $-1 49.658963093584603 19.163925947616555 1.6669661184172213 -0.73135370988377701 0 -0.68199835119979291 0.34099917559989645 0 -0.36567685494188851 1 I I -0.70710678118654746 0.70710678118654746 0.5 forward I I I I #
loop $-1 $-1 $217 $54 #
coedge $-1 $137 $137 $218 $219 reversed $86 $-1 #
face $-1 $220 $221 $33 $-1 $222 reversed single #
loop $-1 $-1 $223 $88 #
plane-surface $-1 0 -21.885485188357364 0 0 1 0 0 0 1 forward_v I I I I #
coedge $-1 $224 $225 $226 $227 forward $89 $-1 #
coedge $-1 $228 $91 $229 $230 forward $56 $-1 #
coedge $-1 $91 $228 $231 $232 forward $56 $-1 #
coedge $-1 $233 $234 $91 $145 reversed $235 $-1 #
edge $-1 $236 -21.885485188357364 $237 21.885485188357364 $144 $238 forward 7 unknown #
face $-1 $239 $240 $34 $-1 $241 reversed single #
loop $-1 $-1 $242 $92 #
plane-surface $-1 0 -24.7133786889863 0.33580910951020293 0 0 1 1 0 0 forward_v I I I I #
coedge $-1 $243 $244 $151 $245 forward $93 $-1 #
coedge $-1 $246 $95 $247 $248 reversed $59 $-1 #
coedge $-1 $95 $246 $149 $245 reversed $59 $-1 #
coedge $-1 $249 $242 $95 $153 reversed $147 $-1 #
edge $-1 $250 -53.9310892056032 $251 53.9310892056032 $152 $252 forward 7 unknown #
face $-1 $253 $254 $35 $-1 $255 reversed single #
loop $-1 $-1 $160 $96 #
plane-surface $-1 0 0 6.0011260069237977 0 0 1 1 0 0 forward_v I I I I #
coedge $-1 $256 $257 $258 $259 reversed $97 $-1 #
coedge $-1 $159 $99 $260 $261 reversed $62 $-1 #
coedge $-1 $99 $158 $256 $262 reversed $62 $-1 #
coedge $-1 $258 $263 $99 $161 forward $155 $-1 #
edge $-1 $264 9.1213982529505344 $265 13.930121161359992 $160 $266 forward 7 unknown #
loop $-1 $-1 $167 $100 #
plane-surface $-1 -53.931089205603186 18.446634132006835 1.6713323579926396 -0.66913061440640931 0 0.74314481823134659 0.74314481823134659 0 0.66913061440640931 forward_v I I I I #
loop $-1 $-1 $267 $64 #
coedge $-1 $165 $165 $166 $268 reversed $101 $-1 #
coedge $-1 $166 $166 $165 $268 forward $103 $-1 #
coedge $-1 $167 $167 $104 $168 forward $162 $-1 #
edge $-1 $269 0 $269 6.2831853071796004 $167 $270 forward 7 unknown #
loop $-1 $-1 $174 $105 #
plane-surface $-1 -53.931089205603186 18.446634132006835 1.6713323579926396 -0.66913061440640931 0 0.74314481823134659 0.74314481823134659 0 0.66913061440640931 forward_v I I I I #
loop $-1 $-1 $271 $67 #
coedge $-1 $172 $172 $173 $272 reversed $106 $-1 #
coedge $-1 $173 $173 $172 $272 forward $108 $-1 #
coedge $-1 $174 $174 $109 $175 forward $169 $-1 #
edge $-1 $273 0 $273 6.2831853071796004 $174 $274 forward 7 unknown #
face $-1 $275 $276 $38 $-1 $277 reversed single #
loop $-1 $-1 $278 $110 #
plane-surface $-1 59.25466570952419 -16.229698187099498 153.07572201264668 0 1 0 0.73135370988377701 0 0.68199835119979291 forward_v I I I I #
coedge $-1 $279 $280 $281 $282 reversed $111 $-1 #
coedge $-1 $181 $113 $283 $284 reversed $71 $-1 #
coedge $-1 $113 $180 $279 $285 reversed $71 $-1 #
coedge $-1 $281 $286 $113 $183 forward $287 $-1 #
edge $-1 $288 -24.303756350841105 $289 -19.293692196634105 $182 $290 forward 7 unknown #
loop $-1 $-1 $189 $114 #
plane-surface $-1 -19.63073862765745 -11.466969515803086 79.513894179386014 0.73135370988377701 0 0.68199835119979291 0.68199835119979291 0 -0.73135370988377701 forward_v I I I I #
loop $-1 $-1 $291 $73 #
coedge $-1 $187 $187 $188 $292 reversed $115 $-1 #
coedge $-1 $188 $188 $187 $292 forward $117 $-1 #
coedge $-1 $189 $189 $118 $190 forward $184 $-1 #
edge $-1 $293 0 $293 6.2831853071796004 $189 $294 forward 7 unknown #
loop $-1 $-1 $196 $119 #
plane-surface $-1 -19.63073862765745 -11.466969515803086 79.513894179386014 0.73135370988377701 0 0.68199835119979291 0.68199835119979291 0 -0.73135370988377701 forward_v I I I I #
loop $-1 $-1 $295 $76 #
coedge $-1 $194 $194 $195 $296 reversed $120 $-1 #
coedge $-1 $195 $195 $194 $296 forward $122 $-1 #
coedge $-1 $196 $196 $123 $197 forward $191 $-1 #
edge $-1 $297 0 $297 6.2831853071796004 $196 $298 forward 7 unknown #
face $-1 $299 $300 $41 $-1 $301 forward single #
loop $-1 $-1 $204 $124 #
plane-surface $-1 53.9310892056032 0 0 -1 0 0 0 0 1 forward_v I I I I #
coedge $-1 $302 $303 $304 $305 reversed $125 $-1 #
coedge $-1 $203 $127 $306 $307 reversed $80 $-1 #
coedge $-1 $127 $202 $302 $308 reversed $80 $-1 #
coedge $-1 $304 $309 $127 $205 forward $199 $-1 #
edge $-1 $310 70.536734999399542 $311 75.909371164118951 $204 $312 forward 7 unknown #
loop $-1 $-1 $211 $128 #
plane-surface $-1 -19.63073862765745 17.122756517060949 79.513894179386014 0.73135370988377701 0 0.68199835119979291 0.68199835119979291 0 -0.73135370988377701 forward_v I I I I #
loop $-1 $-1 $313 $82 #
coedge $-1 $209 $209 $210 $314 reversed $129 $-1 #
coedge $-1 $210 $210 $209 $314 forward $131 $-1 #
coedge $-1 $211 $211 $132 $212 forward $206 $-1 #
edge $-1 $315 0 $315 6.2831853071796004 $211 $316 forward 7 unknown #
loop $-1 $-1 $218 $133 #
plane-surface $-1 -19.63073862765745 17.122756517060949 79.513894179386014 0.73135370988377701 0 0.68199835119979291 0.68199835119979291 0 -0.73135370988377701 forward_v I I I I #
loop $-1 $-1 $317 $85 #
coedge $-1 $216 $216 $217 $318 reversed $134 $-1 #
coedge $-1 $217 $217 $216 $318 forward $136 $-1 #
coedge $-1 $218 $218 $137 $219 forward $213 $-1 #
edge $-1 $319 0 $319 6.2831853071796004 $218 $320 forward 7 unknown #
face $-1 $321 $322 $33 $-1 $323 reversed single #
loop $-1 $-1 $324 $138 #
plane-surface $-1 -53.9310892056032 0 0 1 0 0 0 0 -1 forward_v I I I I #
coedge $-1 $325 $231 $326 $327 forward $139 $-1 #
coedge $-1 $328 $141 $325 $329 forward $89 $-1 #
coedge $-1 $141 $328 $330 $331 forward $89 $-1 #
coedge $-1 $234 $233 $141 $227 reversed $235 $-1 #
edge $-1 $332 -21.885485188357364 $333 21.885485188357364 $226 $334 forward 7 unknown #
coedge $-1 $143 $142 $335 $336 forward $56 $-1 #
coedge $-1 $337 $338 $142 $230 reversed $322 $-1 #
edge $-1 $237 -53.9310892056032 $339 53.9310892056032 $229 $340 forward 7 unknown #
coedge $-1 $223 $341 $143 $232 reversed $139 $-1 #
edge $-1 $342 -53.9310892056032 $236 53.9310892056032 $231 $343 forward 7 unknown #
coedge $-1 $226 $144 $341 $344 forward $235 $-1 #
coedge $-1 $144 $226 $337 $345 reversed $235 $-1 #
loop $-1 $-1 $233 $321 #
vertex $-1 $145 $346 #
vertex $-1 $145 $347 #
straight-curve $-1 53.9310892056032 0 6.0011260069237977 0 1 0 I I #
face $-1 $348 $349 $34 $-1 $350 reversed single #
loop $-1 $-1 $351 $146 #
plane-surface $-1 0 -24.7133786889863 -2.6641908904897971 0 0 1 1 0 0 forward_v I I I I #
coedge $-1 $152 $352 $353 $354 forward $147 $-1 #
coedge $-1 $355 $149 $356 $357 reversed $93 $-1 #
coedge $-1 $149 $355 $249 $358 reversed $93 $-1 #
edge $-1 $250 -0.33580910951020293 $359 2.6641908904897971 $149 $360 forward 7 unknown #
coedge $-1 $151 $150 $361 $362 forward $59 $-1 #
coedge $-1 $353 $363 $150 $248 forward $364 $-1 #
edge $-1 $365 -2.6641908904897971 $251 0.33580910951020293 $247 $366 forward 7 unknown #
coedge $-1 $352 $152 $244 $358 forward $147 $-1 #
vertex $-1 $245 $367 #
vertex $-1 $354 $368 #
straight-curve $-1 0 -21.885485188357364 0.33580910951020293 1 0 0 I I #
face $-1 $-1 $369 $35 $-1 $370 reversed single #
loop $-1 $-1 $371 $154 #
plane-surface $-1 0 21.885485188357364 0 0 -1 0 0 0 -1 forward_v I I I I #
coedge $-1 $372 $157 $159 $262 forward $97 $-1 #
coedge $-1 $157 $372 $371 $373 reversed $97 $-1 #
coedge $-1 $374 $160 $157 $259 forward $155 $-1 #
edge $-1 $265 5.7844660096528919 $375 12.662168122353943 $258 $376 forward 7 unknown #
coedge $-1 $377 $378 $158 $261 forward $369 $-1 #
edge $-1 $379 -39.242943305720225 $264 -34.913149656789052 $260 $380 forward 7 unknown #
edge $-1 $265 -6.4707749962571226 $379 1.9178179933549516e-014 $159 $381 forward 7 unknown #
coedge $-1 $160 $374 $377 $382 forward $155 $-1 #
vertex $-1 $261 $383 #
vertex $-1 $161 $384 #
straight-curve $-1 -63.052487458553735 15.00778307565631 6.0011260069237977 1 0 0 I I #
coedge $-1 $267 $267 $-1 $385 reversed $164 $-1 #
edge $-1 $386 0 $386 6.2831853071796004 $165 $387 forward 7 unknown #
vertex $-1 $168 $388 #
ellipse-curve $-1 -51.526727751398475 16.972840822142331 3.836229182458208 -0.66913061440640931 0 0.74314481823134659 0.3715724091156733 0 0.33456530720320465 1 I I #
coedge $-1 $271 $271 $-1 $389 reversed $171 $-1 #
edge $-1 $390 0 $390 6.2831853071796004 $172 $391 forward 7 unknown #
vertex $-1 $175 $392 #
ellipse-curve $-1 -51.526727751398475 19.920427441871354 3.836229182458208 -0.66913061440640931 0 0.74314481823134659 0.3715724091156733 0 0.33456530720320465 1 I I #
face $-1 $-1 $287 $38 $-1 $393 forward single #
loop $-1 $-1 $394 $176 #
plane-surface $-1 53.9310892056032 0 0 -1 0 0 0 0 1 forward_v I I I I #
coedge $-1 $395 $396 $397 $398 reversed $177 $-1 #
coedge $-1 $399 $179 $181 $285 forward $111 $-1 #
coedge $-1 $179 $399 $395 $400 forward $111 $-1 #
coedge $-1 $397 $182 $179 $282 forward $287 $-1 #
edge $-1 $289 0.97075608660513257 $401 10.496213429197955 $281 $402 forward 7 unknown #
coedge $-1 $403 $404 $180 $284 forward $276 $-1 #
edge $-1 $405 -75.909371164118951 $288 -70.536734999399542 $283 $406 forward 7 unknown #
edge $-1 $289 100.51602552770873 $405 107.86217841120637 $181 $407 forward 7 unknown #
coedge $-1 $182 $397 $403 $408 forward $287 $-1 #
loop $-1 $-1 $397 $275 #
vertex $-1 $284 $409 #
vertex $-1 $183 $410 #
straight-curve $-1 29.627332854762095 -6.7042408445066757 6.0011260069237977 -1 0 0 I I #
coedge $-1 $291 $291 $-1 $411 reversed $186 $-1 #
edge $-1 $412 0 $412 6.2831853071796004 $187 $413 forward 7 unknown #
vertex $-1 $190 $414 #
ellipse-curve $-1 51.426057128499707 -13.50813894635869 3.3148079245640796 0.73135370988377701 0 0.68199835119979291 0.68199835119979291 0 -0.73135370988377701 1 I I #
coedge $-1 $295 $295 $-1 $415 reversed $193 $-1 #
edge $-1 $416 0 $416 6.2831853071796004 $194 $417 forward 7 unknown #
vertex $-1 $197 $418 #
ellipse-curve $-1 51.426057128499707 -9.4258000852474808 3.3148079245640796 0.73135370988377701 0 0.68199835119979291 0.68199835119979291 0 -0.73135370988377701 1 I I #
face $-1 $-1 $419 $41 $-1 $420 reversed single #
loop $-1 $-1 $306 $198 #
plane-surface $-1 0 0 6.0011260069237977 0 0 1 1 0 0 forward_v I I I I #
coedge $-1 $421 $201 $203 $308 forward $125 $-1 #
coedge $-1 $201 $421 $422 $423 reversed $125 $-1 #
coedge $-1 $424 $204 $201 $305 forward $199 $-1 #
edge $-1 $311 3.7986495872340633 $425 13.32410692982689 $304 $426 forward 7 unknown #
coedge $-1 $427 $428 $202 $307 forward $300 $-1 #
edge $-1 $429 19.293692196634105 $310 24.303756350841105 $306 $430 forward 7 unknown #
edge $-1 $311 -107.86217841120637 $429 -100.51602552770873 $203 $431 forward 7 unknown #
coedge $-1 $204 $424 $427 $432 reversed $199 $-1 #
vertex $-1 $432 $433 #
vertex $-1 $205 $434 #
straight-curve $-1 53.9310892056032 12.360027845764538 76.53786100632334 0 0 -1 I I #
coedge $-1 $313 $313 $-1 $435 reversed $208 $-1 #
edge $-1 $436 0 $436 6.2831853071796004 $209 $437 forward 7 unknown #
vertex $-1 $212 $438 #
ellipse-curve $-1 51.426057128499707 15.081587086505344 3.3148079245640796 0.73135370988377701 0 0.68199835119979291 0.68199835119979291 0 -0.73135370988377701 1 I I #
coedge $-1 $317 $317 $-1 $439 reversed $215 $-1 #
edge $-1 $440 0 $440 6.2831853071796004 $216 $441 forward 7 unknown #
vertex $-1 $219 $442 #
ellipse-curve $-1 51.426057128499707 19.163925947616555 3.3148079245640796 0.73135370988377701 0 0.68199835119979291 0.68199835119979291 0 -0.73135370988377701 1 I I #
face $-1 $-1 $235 $33 $-1 $443 reversed single #
loop $-1 $-1 $337 $220 #
plane-surface $-1 0 21.885485188357364 0 0 -1 0 0 0 -1 forward_v I I I I #
coedge $-1 $444 $335 $338 $445 forward $221 $-1 #
coedge $-1 $341 $223 $224 $329 reversed $139 $-1 #
coedge $-1 $335 $444 $223 $327 reversed $221 $-1 #
edge $-1 $342 -6.0011260069237977 $446 6.0011260069237977 $326 $447 forward 7 unknown #
coedge $-1 $225 $224 $444 $448 forward $89 $-1 #
edge $-1 $333 -53.9310892056032 $446 53.9310892056032 $325 $449 forward 7 unknown #
coedge $-1 $338 $337 $225 $331 reversed $322 $-1 #
edge $-1 $450 -53.9310892056032 $332 53.9310892056032 $330 $451 forward 7 unknown #
vertex $-1 $227 $452 #
vertex $-1 $344 $453 #
straight-curve $-1 53.9310892056032 0 -6.0011260069237977 0 -1 0 I I #
coedge $-1 $324 $326 $228 $336 reversed $221 $-1 #
edge $-1 $339 -21.885485188357364 $342 21.885485188357364 $335 $454 forward 7 unknown #
coedge $-1 $330 $229 $234 $345 forward $322 $-1 #
coedge $-1 $229 $330 $324 $445 reversed $322 $-1 #
vertex $-1 $230 $455 #
straight-curve $-1 0 21.885485188357364 6.0011260069237977 -1 0 0 I I #
coedge $-1 $231 $325 $233 $344 reversed $139 $-1 #
vertex $-1 $336 $456 #
straight-curve $-1 0 -21.885485188357364 6.0011260069237977 1 0 0 I I #
edge $-1 $236 -6.0011260069237977 $333 6.0011260069237977 $233 $457 forward 7 unknown #
edge $-1 $237 -6.0011260069237977 $332 6.0011260069237977 $234 $458 forward 7 unknown #
point $-1 53.9310892056032 -21.885485188357364 6.0011260069237977 #
point $-1 53.9310892056032 21.885485188357364 6.0011260069237977 #
face $-1 $-1 $364 $34 $-1 $459 reversed single #
loop $-1 $-1 $460 $239 #
plane-surface $-1 0 -27.541272189615235 -1.1641908904897971 0 1 0 0 0 1 forward_v I I I I #
coedge $-1 $461 $361 $363 $462 forward $240 $-1 #
coedge $-1 $242 $249 $463 $464 forward $147 $-1 #
coedge $-1 $465 $247 $242 $354 reversed $364 $-1 #
edge $-1 $466 -2.8278935006289352 $251 2.8278935006289352 $353 $467 forward 7 unknown #
coedge $-1 $244 $243 $460 $468 reversed $93 $-1 #
coedge $-1 $361 $461 $243 $357 forward $240 $-1 #
edge $-1 $469 -2.8278935006289352 $359 2.8278935006289352 $243 $470 forward 7 unknown #
edge $-1 $250 -2.8278935006289352 $471 2.8278935006289352 $244 $472 forward 7 unknown #
vertex $-1 $245 $473 #
straight-curve $-1 -53.9310892056032 -21.885485188357364 0 0 0 -1 I I #
coedge $-1 $351 $356 $246 $362 reversed $240 $-1 #
edge $-1 $365 -53.9310892056032 $359 53.9310892056032 $361 $474 forward 7 unknown #
coedge $-1 $247 $465 $351 $462 reversed $364 $-1 #
loop $-1 $-1 $247 $348 #
vertex $-1 $248 $475 #
straight-curve $-1 53.9310892056032 -21.885485188357364 0 0 0 1 I I #
point $-1 -53.9310892056032 -21.885485188357364 0.33580910951020293 #
point $-1 53.9310892056032 -21.885485188357364 0.33580910951020293 #
loop $-1 $-1 $260 $253 #
plane-surface $-1 -53.9310892056032 0 0 1 0 0 0 0 -1 forward_v I I I I #
coedge $-1 $476 $477 $257 $373 forward $254 $-1 #
coedge $-1 $257 $256 $378 $478 reversed $97 $-1 #
edge $-1 $375 13.009359922310674 $479 19.480134918567813 $371 $480 forward 7 unknown #
coedge $-1 $263 $258 $477 $481 forward $155 $-1 #
vertex $-1 $481 $482 #
straight-curve $-1 -49.122366297193743 9.2233170660034176 6.0011260069237959 0 1 0 I I #
coedge $-1 $483 $260 $263 $382 reversed $369 $-1 #
coedge $-1 $260 $483 $372 $478 forward $369 $-1 #
vertex $-1 $261 $484 #
straight-curve $-1 -53.9310892056032 15.00778307565631 40.91427566371285 0 0 1 I I #
straight-curve $-1 -53.931089205603186 15.00778307565631 1.6713323579926396 -0.74314481823134659 0 -0.66913061440640931 I I #
edge $-1 $485 -21.885485188357364 $264 -15.00778307565631 $377 $486 forward 7 unknown #
point $-1 -53.9310892056032 15.00778307565631 6.0011260069237977 #
point $-1 -49.122366297193743 15.00778307565631 6.0011260069237977 #
edge $-1 $487 1 $487 0 $267 $-1 forward 7 unknown #
vertex $-1 $268 $488 #
ellipse-curve $-1 -50.282749674742249 16.972840822142331 2.4546515924378136 -0.66913061440640931 0 0.74314481823134659 0.3715724091156733 0 0.33456530720320465 1 I I #
point $-1 -51.155155342282825 16.972840822142331 4.170794489661434 #
edge $-1 $489 1 $489 0 $271 $-1 forward 7 unknown #
vertex $-1 $272 $490 #
ellipse-curve $-1 -50.282749674742249 19.920427441871354 2.4546515924378136 -0.66913061440640931 0 0.74314481823134659 0.3715724091156733 0 0.33456530720320465 1 I I #
point $-1 -51.155155342282825 19.920427441871354 4.170794489661434 #
plane-surface $-1 0 0 6.0011260069237977 0 0 1 1 0 0 forward_v I I I I #
coedge $-1 $404 $403 $396 $491 forward $276 $-1 #
coedge $-1 $396 $278 $280 $400 reversed $177 $-1 #
coedge $-1 $278 $395 $394 $491 reversed $177 $-1 #
coedge $-1 $286 $281 $278 $398 forward $287 $-1 #
edge $-1 $401 19.293692196634105 $492 24.303756350841105 $397 $493 forward 7 unknown #
coedge $-1 $280 $279 $404 $494 reversed $111 $-1 #
edge $-1 $495 -107.86217841120637 $401 -100.51602552770873 $395 $496 forward 7 unknown #
vertex $-1 $282 $497 #
straight-curve $-1 48.9210250513962 -5.7334847579015431 6.0011260069237906 0 -1 0 I I #
coedge $-1 $394 $283 $286 $408 reversed $276 $-1 #
coedge $-1 $283 $394 $399 $494 forward $276 $-1 #
vertex $-1 $284 $498 #
straight-curve $-1 53.9310892056032 -6.7042408445066757 76.53786100632334 0 0 1 I I #
straight-curve $-1 -19.63073862765745 -6.7042408445066757 79.513894179386014 0.68199835119979291 0 -0.73135370988377701 I I #
edge $-1 $492 -16.229698187099498 $288 -6.7042408445066757 $403 $499 forward 7 unknown #
point $-1 53.9310892056032 -6.7042408445066757 6.0011260069237977 #
point $-1 48.9210250513962 -6.7042408445066757 6.0011260069237977 #
edge $-1 $500 1 $500 0 $291 $-1 forward 7 unknown #
vertex $-1 $292 $501 #
ellipse-curve $-1 50.024639948526492 -13.50813894635869 2.0079652940171178 0.73135370988377701 0 0.68199835119979291 0.68199835119979291 0 -0.73135370988377701 1 I I #
point $-1 52.108055479699509 -13.50813894635869 2.5834542146803114 #
edge $-1 $502 1 $502 0 $295 $-1 forward 7 unknown #
vertex $-1 $296 $503 #
ellipse-curve $-1 50.024639948526492 -9.4258000852474808 2.0079652940171178 0.73135370988377701 0 0.68199835119979291 0.68199835119979291 0 -0.73135370988377701 1 I I #
point $-1 52.108055479699509 -9.4258000852474808 2.5834542146803114 #
loop $-1 $-1 $422 $299 #
plane-surface $-1 0 21.885485188357364 0 0 -1 0 0 0 -1 forward_v I I I I #
coedge $-1 $303 $302 $428 $504 reversed $125 $-1 #
coedge $-1 $505 $506 $303 $423 forward $419 $-1 #
edge $-1 $425 -72.091721975058135 $507 -64.745569091560483 $422 $508 forward 7 unknown #
coedge $-1 $309 $304 $506 $509 reversed $199 $-1 #
vertex $-1 $305 $510 #
straight-curve $-1 53.9310892056032 8.5613782585304747 0.62848984220438808 0 1 0 I I #
coedge $-1 $511 $306 $309 $432 forward $300 $-1 #
coedge $-1 $306 $511 $421 $504 forward $300 $-1 #
vertex $-1 $307 $512 #
straight-curve $-1 29.627332854762095 12.360027845764538 6.0011260069237977 1 0 0 I I #
straight-curve $-1 -19.63073862765745 12.360027845764538 79.513894179386014 -0.68199835119979291 0 0.73135370988377701 I I #
edge $-1 $310 12.360027845764538 $513 21.885485188357364 $309 $514 forward 7 unknown #
point $-1 53.9310892056032 12.360027845764538 6.0011260069237977 #
point $-1 53.9310892056032 12.360027845764538 0.62848984220438808 #
edge $-1 $515 1 $515 0 $313 $-1 forward 7 unknown #
vertex $-1 $314 $516 #
ellipse-curve $-1 50.024639948526492 15.081587086505344 2.0079652940171178 0.73135370988377701 0 0.68199835119979291 0.68199835119979291 0 -0.73135370988377701 1 I I #
point $-1 52.108055479699509 15.081587086505344 2.5834542146803114 #
edge $-1 $517 1 $517 0 $317 $-1 forward 7 unknown #
vertex $-1 $318 $518 #
ellipse-curve $-1 50.024639948526492 19.163925947616555 2.0079652940171178 0.73135370988377701 0 0.68199835119979291 0.68199835119979291 0 -0.73135370988377701 1 I I #
point $-1 52.108055479699509 19.163925947616555 2.5834542146803114 #
plane-surface $-1 53.9310892056032 0 0 -1 0 0 0 0 1 forward_v I I I I #
coedge $-1 $326 $324 $328 $448 reversed $221 $-1 #
edge $-1 $339 -6.0011260069237977 $450 6.0011260069237977 $338 $519 forward 7 unknown #
vertex $-1 $448 $520 #
straight-curve $-1 -53.9310892056032 -21.885485188357364 0 0 0 -1 I I #
edge $-1 $446 -21.885485188357364 $450 21.885485188357364 $444 $521 forward 7 unknown #
straight-curve $-1 0 -21.885485188357364 -6.0011260069237977 -1 0 0 I I #
vertex $-1 $331 $522 #
straight-curve $-1 0 21.885485188357364 -6.0011260069237977 1 0 0 I I #
point $-1 53.9310892056032 21.885485188357364 -6.0011260069237977 #
point $-1 53.9310892056032 -21.885485188357364 -6.0011260069237977 #
straight-curve $-1 -53.9310892056032 0 6.0011260069237977 0 -1 0 I I #
point $-1 -53.9310892056032 21.885485188357364 6.0011260069237977 #
point $-1 -53.9310892056032 -21.885485188357364 6.0011260069237977 #
straight-curve $-1 53.9310892056032 -21.885485188357364 0 0 0 -1 I I #
straight-curve $-1 53.9310892056032 21.885485188357364 0 0 0 -1 I I #
plane-surface $-1 53.9310892056032 0 0 -1 0 0 0 0 1 forward_v I I I I #
coedge $-1 $523 $463 $355 $468 forward $349 $-1 #
coedge $-1 $356 $351 $523 $524 forward $240 $-1 #
edge $-1 $365 -2.8278935006289352 $525 2.8278935006289352 $363 $526 forward 7 unknown #
coedge $-1 $460 $527 $352 $464 reversed $349 $-1 #
edge $-1 $471 -53.9310892056032 $466 53.9310892056032 $463 $528 forward 7 unknown #
coedge $-1 $363 $353 $527 $529 forward $364 $-1 #
vertex $-1 $354 $530 #
straight-curve $-1 53.9310892056032 -24.7133786889863 0.33580910951020293 0 1 0 I I #
edge $-1 $471 -1.5 $469 1.5 $355 $531 forward 7 unknown #
vertex $-1 $357 $532 #
straight-curve $-1 -53.9310892056032 -24.7133786889863 -2.6641908904897971 0 1 0 I I #
vertex $-1 $358 $533 #
straight-curve $-1 -53.9310892056032 -24.7133786889863 0.33580910951020293 0 -1 0 I I #
point $-1 -53.9310892056032 -21.885485188357364 -2.6641908904897971 #
straight-curve $-1 0 -21.885485188357364 -2.6641908904897971 -1 0 0 I I #
point $-1 53.9310892056032 -21.885485188357364 -2.6641908904897971 #
coedge $-1 $477 $371 $483 $534 reversed $254 $-1 #
coedge $-1 $371 $476 $374 $481 reversed $254 $-1 #
edge $-1 $479 -12.662168122353943 $379 -5.7844660096528919 $378 $535 forward 7 unknown #
vertex $-1 $373 $536 #
straight-curve $-1 -39.454527882422013 21.885485188357364 14.706087004773657 -0.74314481823134659 0 -0.66913061440640931 I I #
edge $-1 $375 49.122366297193743 $485 53.9310892056032 $477 $537 forward 7 unknown #
point $-1 -49.122366297193743 21.885485188357361 6.0011260069237977 #
coedge $-1 $378 $377 $476 $534 forward $369 $-1 #
point $-1 -53.9310892056032 15.00778307565631 1.6713323579926267 #
vertex $-1 $481 $538 #
straight-curve $-1 -53.9310892056032 0 6.0011260069237977 0 -1 0 I I #
vertex $-1 $385 $539 #
point $-1 -49.911177265626577 16.972840822142331 2.7892168996410183 #
vertex $-1 $389 $540 #
point $-1 -49.911177265626577 19.920427441871354 2.7892168996410183 #
edge $-1 $492 70.536734999399542 $495 75.909371164118951 $394 $541 forward 7 unknown #
vertex $-1 $408 $542 #
straight-curve $-1 29.627332854762095 -16.229698187099498 6.0011260069237977 1 0 0 I I #
edge $-1 $495 -10.496213429197955 $405 -0.97075608660513257 $404 $543 forward 7 unknown #
vertex $-1 $494 $544 #
straight-curve $-1 -19.63073862765745 -16.229698187099498 79.513894179386014 -0.68199835119979291 0 0.73135370988377701 I I #
point $-1 48.9210250513962 -16.229698187099498 6.0011260069237977 #
point $-1 53.9310892056032 -6.7042408445066757 0.62848984220438808 #
straight-curve $-1 53.9310892056032 0 6.0011260069237977 0 1 0 I I #
vertex $-1 $411 $545 #
point $-1 50.706638299726286 -13.50813894635869 1.2766115841333407 #
vertex $-1 $415 $546 #
point $-1 50.706638299726286 -9.4258000852474808 1.2766115841333407 #
edge $-1 $507 -13.324106929826886 $429 -3.7986495872340633 $428 $547 forward 7 unknown #
coedge $-1 $506 $422 $511 $548 reversed $419 $-1 #
coedge $-1 $422 $505 $424 $509 forward $419 $-1 #
vertex $-1 $423 $549 #
straight-curve $-1 4.7646536834596738 21.885485188357364 53.353038160572964 -0.68199835119979291 0 0.73135370988377701 I I #
edge $-1 $513 -6.0011260069237977 $425 -0.62848984220438542 $424 $550 forward 7 unknown #
point $-1 53.9310892056032 21.885485188357364 0.62848984220438542 #
coedge $-1 $428 $427 $505 $548 forward $300 $-1 #
point $-1 48.9210250513962 12.360027845764538 6.0011260069237977 #
vertex $-1 $432 $551 #
straight-curve $-1 53.9310892056032 0 6.0011260069237977 0 1 0 I I #
vertex $-1 $435 $552 #
point $-1 50.706638299726286 15.081587086505344 1.2766115841333407 #
vertex $-1 $439 $553 #
point $-1 50.706638299726286 19.163925947616555 1.2766115841333407 #
straight-curve $-1 -53.9310892056032 21.885485188357364 0 0 0 -1 I I #
point $-1 -53.9310892056032 -21.885485188357364 -6.0011260069237977 #
straight-curve $-1 -53.9310892056032 0 -6.0011260069237977 0 1 0 I I #
point $-1 -53.9310892056032 21.885485188357364 -6.0011260069237977 #
coedge $-1 $527 $460 $461 $524 reversed $349 $-1 #
edge $-1 $525 -53.9310892056032 $469 53.9310892056032 $523 $554 forward 7 unknown #
vertex $-1 $529 $555 #
straight-curve $-1 53.9310892056032 -24.7133786889863 -2.6641908904897971 0 -1 0 I I #
coedge $-1 $463 $523 $465 $529 reversed $349 $-1 #
straight-curve $-1 0 -27.541272189615235 0.33580910951020293 1 0 0 I I #
edge $-1 $466 -1.5 $525 1.5 $465 $556 forward 7 unknown #
point $-1 53.9310892056032 -27.541272189615235 0.33580910951020293 #
straight-curve $-1 -53.9310892056032 -27.541272189615235 -1.1641908904897971 0 0 -1 I I #
point $-1 -53.9310892056032 -27.541272189615235 -2.6641908904897971 #
point $-1 -53.9310892056032 -27.541272189615235 0.33580910951020293 #
edge $-1 $485 -6.0011260069237977 $479 -1.6713323579926267 $476 $557 forward 7 unknown #
straight-curve $-1 -53.9310892056032 9.2233170660034176 1.6713323579926245 0 -1 0 I I #
point $-1 -53.9310892056032 21.885485188357361 1.6713323579926267 #
straight-curve $-1 0 21.885485188357364 6.0011260069237977 -1 0 0 I I #
point $-1 -53.9310892056032 21.885485188357364 6.0011260069237977 #
point $-1 -49.948184367539042 16.972840822142331 2.0830791833221403 #
point $-1 -49.948184367539042 19.920427441871354 2.0830791833221403 #
straight-curve $-1 53.9310892056032 -16.229698187099498 76.53786100632334 0 0 -1 I I #
point $-1 53.9310892056032 -16.229698187099498 6.0011260069237977 #
straight-curve $-1 53.9310892056032 -5.7334847579015431 0.62848984220438808 0 1 0 I I #
point $-1 53.9310892056032 -16.229698187099498 0.62848984220438808 #
point $-1 49.293286238642715 -13.50813894635869 1.3259669428173249 #
point $-1 49.293286238642715 -9.4258000852474808 1.3259669428173249 #
straight-curve $-1 48.9210250513962 8.5613782585304747 6.0011260069237906 0 -1 0 I I #
edge $-1 $513 -53.9310892056032 $507 -48.9210250513962 $505 $558 forward 7 unknown #
point $-1 48.9210250513962 21.885485188357361 6.0011260069237977 #
straight-curve $-1 53.9310892056032 21.885485188357364 0 0 0 -1 I I #
point $-1 53.9310892056032 21.885485188357364 6.0011260069237977 #
point $-1 49.293286238642715 15.081587086505344 1.3259669428173249 #
point $-1 49.293286238642715 19.163925947616555 1.3259669428173249 #
straight-curve $-1 0 -27.541272189615235 -2.6641908904897971 -1 0 0 I I #
point $-1 53.9310892056032 -27.541272189615235 -2.6641908904897971 #
straight-curve $-1 53.9310892056032 -27.541272189615235 -1.1641908904897971 0 0 -1 I I #
straight-curve $-1 -53.9310892056032 21.885485188357364 0 0 0 -1 I I #
straight-curve $-1 0 21.885485188357364 6.0011260069237977 -1 0 0 I I #
End-of-ACIS-data 