500 0 12 0           
7 Unknown 11 ACIS 5.0 NT 24 Thu Mar 25 16:48:21 1999 
-1 9.9999999999999995e-007 1e-010 
body $-1 $12 $-1 $13 #
body $-1 $14 $-1 $15 #
body $-1 $16 $-1 $17 #
body $-1 $18 $-1 $19 #
body $-1 $20 $-1 $21 #
body $-1 $22 $-1 $23 #
body $-1 $24 $-1 $25 #
body $-1 $26 $-1 $27 #
body $-1 $28 $-1 $29 #
body $-1 $30 $-1 $31 #
body $-1 $32 $-1 $33 #
body $-1 $34 $-1 $35 #
lump $-1 $-1 $36 $0 #
transform $-1 1 0 0 0 1 0 0 0 1 52.268440809350871 28.37030855209656 11.949002174925205 1 rotate no_reflect no_shear #
lump $-1 $-1 $37 $1 #
transform $-1 1 0 0 0 1 0 0 0 1 52.268440809350871 28.37030855209656 11.949002174925205 1 rotate no_reflect no_shear #
lump $-1 $-1 $38 $2 #
transform $-1 1 0 0 0 1 0 0 0 1 52.268440809350871 28.37030855209656 11.949002174925205 1 rotate no_reflect no_shear #
lump $-1 $-1 $39 $3 #
transform $-1 1 0 0 0 1 0 0 0 1 52.268440809350871 28.37030855209656 11.949002174925205 1 rotate no_reflect no_shear #
lump $-1 $-1 $40 $4 #
transform $-1 1 0 0 0 1 0 0 0 1 52.268440809350871 28.37030855209656 11.949002174925205 1 rotate no_reflect no_shear #
lump $-1 $-1 $41 $5 #
transform $-1 1 0 0 0 1 0 0 0 1 52.268440809350871 28.37030855209656 11.949002174925205 1 rotate no_reflect no_shear #
lump $-1 $-1 $42 $6 #
transform $-1 1 0 0 0 1 0 0 0 1 52.268440809350871 28.37030855209656 11.949002174925205 1 rotate no_reflect no_shear #
lump $-1 $-1 $43 $7 #
transform $-1 1 0 0 0 1 0 0 0 1 52.268440809350871 28.37030855209656 11.949002174925205 1 rotate no_reflect no_shear #
lump $-1 $-1 $44 $8 #
transform $-1 1 0 0 0 1 0 0 0 1 52.268440809350871 28.37030855209656 11.949002174925205 1 rotate no_reflect no_shear #
lump $-1 $-1 $45 $9 #
transform $-1 1 0 0 0 1 0 0 0 1 52.268440809350871 28.37030855209656 11.949002174925205 1 rotate no_reflect no_shear #
lump $-1 $-1 $46 $10 #
transform $-1 1 0 0 0 1 0 0 0 1 52.268440809350871 28.37030855209656 11.949002174925205 1 rotate no_reflect no_shear #
lump $-1 $-1 $47 $11 #
transform $-1 1 0 0 0 1 0 0 0 1 52.268440809350871 28.37030855209656 11.949002174925205 1 rotate no_reflect no_shear #
shell $-1 $-1 $-1 $48 $-1 $12 #
shell $-1 $-1 $-1 $49 $-1 $14 #
shell $-1 $-1 $-1 $50 $-1 $16 #
shell $-1 $-1 $-1 $51 $-1 $18 #
shell $-1 $-1 $-1 $52 $-1 $20 #
shell $-1 $-1 $-1 $53 $-1 $22 #
shell $-1 $-1 $-1 $54 $-1 $24 #
shell $-1 $-1 $-1 $55 $-1 $26 #
shell $-1 $-1 $-1 $56 $-1 $28 #
shell $-1 $-1 $-1 $57 $-1 $30 #
shell $-1 $-1 $-1 $58 $-1 $32 #
shell $-1 $-1 $-1 $59 $-1 $34 #
face $-1 $60 $61 $36 $-1 $62 forward single #
face $-1 $63 $64 $37 $-1 $65 reversed single #
face $-1 $66 $67 $38 $-1 $68 reversed single #
face $-1 $69 $70 $39 $-1 $71 forward single #
face $-1 $72 $73 $40 $-1 $74 forward single #
face $-1 $75 $76 $41 $-1 $77 reversed single #
face $-1 $78 $79 $42 $-1 $80 forward single #
face $-1 $81 $82 $43 $-1 $83 forward single #
face $-1 $84 $85 $44 $-1 $86 reversed single #
face $-1 $87 $88 $45 $-1 $89 forward single #
face $-1 $90 $91 $46 $-1 $92 forward single #
face $-1 $93 $94 $47 $-1 $95 forward single #
face $-1 $96 $97 $36 $-1 $98 reversed single #
loop $-1 $-1 $99 $48 #
plane-surface $-1 0 0 11.949002174925205 0 0 1 1 0 0 forward_v I I I I #
face $-1 $100 $101 $37 $-1 $102 reversed single #
loop $-1 $-1 $103 $49 #
plane-surface $-1 -47.296518041358674 -21.390365683676997 0 1 0 0 0 0 -1 forward_v I I I I #
face $-1 $104 $105 $38 $-1 $106 reversed single #
loop $-1 $-1 $107 $50 #
plane-surface $-1 24.059721854035409 6.9799428684195703 147.6300755467833 0 -1 0 -0.55919291073839883 0 -0.82903756765294845 forward_v I I I I #
face $-1 $108 $109 $39 $-1 $110 forward single #
loop $-1 $111 $112 $51 #
cone-surface $-1 44.990999706375916 2.0081766186464201 6.8143774874927967 -0.55919291073839883 0 -0.82903756765294845 0.41451878382647422 0 -0.27959645536919941 1 I I 0 1 0.5 forward I I I I #
face $-1 $113 $114 $40 $-1 $115 forward single #
loop $-1 $116 $117 $52 #
cone-surface $-1 44.990999706375916 4.9912363685103074 6.8143774874927967 -0.55919291073839883 0 -0.82903756765294845 0.41451878382647422 0 -0.27959645536919941 1 I I 0 1 0.5 forward I I I I #
face $-1 $118 $119 $41 $-1 $120 reversed single #
loop $-1 $-1 $121 $53 #
plane-surface $-1 24.059721854035409 21.409835802414158 147.6300755467833 0 1 0 0.55919291073839883 0 0.82903756765294845 forward_v I I I I #
face $-1 $122 $123 $42 $-1 $124 forward single #
loop $-1 $125 $126 $54 #
cone-surface $-1 44.990999706375916 23.39854230232342 6.8143774874927967 -0.55919291073839883 0 -0.82903756765294845 0.41451878382647422 0 -0.27959645536919941 1 I I 0 1 0.5 forward I I I I #
face $-1 $127 $128 $43 $-1 $129 forward single #
loop $-1 $130 $131 $55 #
cone-surface $-1 44.990999706375916 26.381602052187304 6.8143774874927967 -0.55919291073839883 0 -0.82903756765294845 0.41451878382647422 0 -0.27959645536919941 1 I I 0 1 0.5 forward I I I I #
face $-1 $132 $133 $44 $-1 $134 reversed single #
loop $-1 $-1 $135 $56 #
plane-surface $-1 -106.10891579155304 16.693445125264926 93.696514011360392 0 1 0 -0.51503808176128008 0 0.85716729658548041 forward_v I I I I #
face $-1 $136 $137 $45 $-1 $138 forward single #
loop $-1 $139 $140 $57 #
cone-surface $-1 -45.063326698843447 19.02881781063126 6.9114002012569502 0.51503808176128008 0 -0.85716729658548041 0.85716729658548041 0 0.51503808176128008 1 I I 0 1 1 forward I I I I #
face $-1 $141 $142 $46 $-1 $143 forward single #
loop $-1 $144 $145 $58 #
cone-surface $-1 -45.063326698843447 22.531876838680752 6.9114002012569502 0.51503808176128008 0 -0.85716729658548041 0.85716729658548041 0 0.51503808176128008 1 I I 0 1 1 forward I I I I #
face $-1 $146 $147 $47 $-1 $148 forward single #
loop $-1 $149 $150 $59 #
cone-surface $-1 -45.063326698843447 26.034935866730244 6.9114002012569502 0.51503808176128008 0 -0.85716729658548041 0.85716729658548041 0 0.51503808176128008 1 I I 0 1 1 forward I I I I #
face $-1 $151 $152 $36 $-1 $153 reversed single #
loop $-1 $-1 $154 $60 #
plane-surface $-1 0 0 -11.949002174925205 0 0 1 1 0 0 forward_v I I I I #
coedge $-1 $155 $156 $157 $158 forward $61 $-1 #
face $-1 $159 $160 $37 $-1 $161 reversed single #
loop $-1 $-1 $162 $63 #
plane-surface $-1 -44.199667210641266 -14.410422815257432 0 0 -1 0 0 0 -1 forward_v I I I I #
coedge $-1 $163 $164 $165 $166 forward $64 $-1 #
face $-1 $167 $168 $38 $-1 $169 reversed single #
loop $-1 $-1 $170 $66 #
plane-surface $-1 -34.396561257841839 3.4997064935783655 60.9650734795906 0.55919291073839883 0 0.82903756765294845 0.82903756765294845 0 -0.55919291073839883 forward_v I I I I #
coedge $-1 $171 $172 $173 $174 reversed $67 $-1 #
face $-1 $-1 $175 $39 $-1 $176 forward single #
loop $-1 $177 $178 $69 #
cone-surface $-1 44.571605023322114 2.0081766186464201 6.1925993117530851 -0.55919291073839883 0 -0.82903756765294845 0.20725939191323711 0 -0.13979822768459971 1 I I -0.70710678118654746 0.70710678118654746 0.25 forward I I I I #
loop $-1 $-1 $179 $51 #
coedge $-1 $112 $112 $180 $181 reversed $70 $-1 #
face $-1 $-1 $182 $40 $-1 $183 forward single #
loop $-1 $184 $185 $72 #
cone-surface $-1 44.571605023322114 4.9912363685103074 6.1925993117530851 -0.55919291073839883 0 -0.82903756765294845 0.20725939191323711 0 -0.13979822768459971 1 I I -0.70710678118654746 0.70710678118654746 0.25 forward I I I I #
loop $-1 $-1 $186 $52 #
coedge $-1 $117 $117 $187 $188 reversed $73 $-1 #
face $-1 $189 $190 $41 $-1 $191 reversed single #
loop $-1 $-1 $192 $75 #
plane-surface $-1 -34.396561257841839 24.890072177255362 60.9650734795906 0.55919291073839883 0 0.82903756765294845 0.82903756765294845 0 -0.55919291073839883 forward_v I I I I #
coedge $-1 $193 $194 $195 $196 reversed $76 $-1 #
face $-1 $-1 $197 $42 $-1 $198 forward single #
loop $-1 $199 $200 $78 #
cone-surface $-1 44.571605023322114 23.39854230232342 6.1925993117530851 -0.55919291073839883 0 -0.82903756765294845 0.20725939191323711 0 -0.13979822768459971 1 I I -0.70710678118654746 0.70710678118654746 0.25 forward I I I I #
loop $-1 $-1 $201 $54 #
coedge $-1 $126 $126 $202 $203 reversed $79 $-1 #
face $-1 $-1 $204 $43 $-1 $205 forward single #
loop $-1 $206 $207 $81 #
cone-surface $-1 44.571605023322114 26.381602052187304 6.1925993117530851 -0.55919291073839883 0 -0.82903756765294845 0.20725939191323711 0 -0.13979822768459971 1 I I -0.70710678118654746 0.70710678118654746 0.25 forward I I I I #
loop $-1 $-1 $208 $55 #
coedge $-1 $131 $131 $209 $210 reversed $82 $-1 #
face $-1 $211 $212 $44 $-1 $213 forward single #
loop $-1 $-1 $214 $84 #
plane-surface $-1 -52.268440809350878 22.531876838680745 4.0909178007814262 -0.51503808176128008 0 0.85716729658548041 0.85716729658548041 0 0.51503808176128008 forward_v I I I I #
coedge $-1 $215 $216 $217 $218 reversed $85 $-1 #
face $-1 $-1 $219 $45 $-1 $220 forward single #
loop $-1 $221 $222 $87 #
cone-surface $-1 -44.139717726299921 19.02881781063126 5.37425676636785 0.51503808176128008 0 -0.85716729658548041 0.4285836482927402 0 0.25751904088064004 1 I I -0.70710678118654746 0.70710678118654746 0.5 forward I I I I #
loop $-1 $-1 $223 $57 #
coedge $-1 $140 $140 $224 $225 reversed $88 $-1 #
face $-1 $-1 $226 $46 $-1 $227 forward single #
loop $-1 $228 $229 $90 #
cone-surface $-1 -44.139717726299921 22.531876838680752 5.37425676636785 0.51503808176128008 0 -0.85716729658548041 0.4285836482927402 0 0.25751904088064004 1 I I -0.70710678118654746 0.70710678118654746 0.5 forward I I I I #
loop $-1 $-1 $230 $58 #
coedge $-1 $145 $145 $231 $232 reversed $91 $-1 #
face $-1 $-1 $233 $47 $-1 $234 forward single #
loop $-1 $235 $236 $93 #
cone-surface $-1 -44.139717726299921 26.034935866730244 5.37425676636785 0.51503808176128008 0 -0.85716729658548041 0.4285836482927402 0 0.25751904088064004 1 I I -0.70710678118654746 0.70710678118654746 0.5 forward I I I I #
loop $-1 $-1 $237 $59 #
coedge $-1 $150 $150 $238 $239 reversed $94 $-1 #
face $-1 $240 $241 $36 $-1 $242 reversed single #
loop $-1 $-1 $243 $96 #
plane-surface $-1 0 -28.37030855209656 0 0 1 0 0 0 1 forward_v I I I I #
coedge $-1 $244 $245 $246 $247 forward $97 $-1 #
coedge $-1 $248 $99 $249 $250 forward $61 $-1 #
coedge $-1 $99 $248 $251 $252 forward $61 $-1 #
coedge $-1 $253 $254 $99 $158 reversed $255 $-1 #
edge $-1 $256 -28.37030855209656 $257 28.37030855209656 $157 $258 forward 7 unknown #
face $-1 $259 $260 $37 $-1 $261 forward single #
loop $-1 $-1 $262 $100 #
plane-surface $-1 -41.102816379923858 -21.390365683676997 0 -1 0 0 0 0 1 forward_v I I I I #
coedge $-1 $263 $264 $265 $266 forward $101 $-1 #
coedge $-1 $267 $103 $268 $269 reversed $64 $-1 #
coedge $-1 $103 $267 $270 $271 reversed $64 $-1 #
coedge $-1 $264 $263 $103 $166 reversed $101 $-1 #
edge $-1 $272 -11.949002174925205 $273 11.949002174925205 $165 $274 forward 7 unknown #
face $-1 $275 $276 $38 $-1 $277 reversed single #
loop $-1 $-1 $278 $104 #
plane-surface $-1 24.059721854035409 0.019470118737160647 147.6300755467833 0 1 0 0.55919291073839883 0 0.82903756765294845 forward_v I I I I #
coedge $-1 $279 $280 $281 $282 reversed $105 $-1 #
coedge $-1 $172 $107 $283 $284 reversed $67 $-1 #
coedge $-1 $107 $171 $279 $285 reversed $67 $-1 #
coedge $-1 $281 $286 $107 $174 forward $287 $-1 #
edge $-1 $288 -40.23857988233317 $289 -26.242890587121682 $173 $290 forward 7 unknown #
loop $-1 $-1 $180 $108 #
plane-surface $-1 -34.396561257841839 3.4997064935783655 60.9650734795906 0.55919291073839883 0 0.82903756765294845 0.82903756765294845 0 -0.55919291073839883 forward_v I I I I #
loop $-1 $-1 $291 $69 #
coedge $-1 $178 $178 $179 $292 reversed $109 $-1 #
coedge $-1 $179 $179 $178 $292 forward $111 $-1 #
coedge $-1 $180 $180 $112 $181 forward $175 $-1 #
edge $-1 $293 0 $293 6.2831853071796004 $180 $294 forward 7 unknown #
loop $-1 $-1 $187 $113 #
plane-surface $-1 -34.396561257841839 3.4997064935783655 60.9650734795906 0.55919291073839883 0 0.82903756765294845 0.82903756765294845 0 -0.55919291073839883 forward_v I I I I #
loop $-1 $-1 $295 $72 #
coedge $-1 $185 $185 $186 $296 reversed $114 $-1 #
coedge $-1 $186 $186 $185 $296 forward $116 $-1 #
coedge $-1 $187 $187 $117 $188 forward $182 $-1 #
edge $-1 $297 0 $297 6.2831853071796004 $187 $298 forward 7 unknown #
face $-1 $299 $300 $41 $-1 $301 reversed single #
loop $-1 $-1 $195 $118 #
plane-surface $-1 52.268440809350871 0 0 -1 0 0 0 0 1 forward_v I I I I #
coedge $-1 $302 $303 $304 $305 reversed $119 $-1 #
coedge $-1 $194 $121 $306 $307 reversed $76 $-1 #
coedge $-1 $121 $193 $302 $308 reversed $76 $-1 #
coedge $-1 $304 $309 $121 $196 forward $190 $-1 #
edge $-1 $310 61.866035598466446 $311 71.306247405678306 $195 $312 forward 7 unknown #
loop $-1 $-1 $202 $122 #
plane-surface $-1 -34.396561257841839 24.890072177255362 60.9650734795906 0.55919291073839883 0 0.82903756765294845 0.82903756765294845 0 -0.55919291073839883 forward_v I I I I #
loop $-1 $-1 $313 $78 #
coedge $-1 $200 $200 $201 $314 reversed $123 $-1 #
coedge $-1 $201 $201 $200 $314 forward $125 $-1 #
coedge $-1 $202 $202 $126 $203 forward $197 $-1 #
edge $-1 $315 0 $315 6.2831853071796004 $202 $316 forward 7 unknown #
loop $-1 $-1 $209 $127 #
plane-surface $-1 -34.396561257841839 24.890072177255362 60.9650734795906 0.55919291073839883 0 0.82903756765294845 0.82903756765294845 0 -0.55919291073839883 forward_v I I I I #
loop $-1 $-1 $317 $81 #
coedge $-1 $207 $207 $208 $318 reversed $128 $-1 #
coedge $-1 $208 $208 $207 $318 forward $130 $-1 #
coedge $-1 $209 $209 $131 $210 forward $204 $-1 #
edge $-1 $319 0 $319 6.2831853071796004 $209 $320 forward 7 unknown #
face $-1 $321 $322 $44 $-1 $323 reversed single #
loop $-1 $-1 $217 $132 #
plane-surface $-1 0 0 11.949002174925205 0 0 1 1 0 0 forward_v I I I I #
coedge $-1 $324 $325 $326 $327 reversed $133 $-1 #
coedge $-1 $216 $135 $328 $329 reversed $85 $-1 #
coedge $-1 $135 $215 $324 $330 reversed $85 $-1 #
coedge $-1 $326 $331 $135 $218 forward $212 $-1 #
edge $-1 $332 0.78601708642565171 $333 13.864065444114701 $217 $334 forward 7 unknown #
loop $-1 $-1 $224 $136 #
plane-surface $-1 -52.268440809350878 22.531876838680745 4.0909178007814262 -0.51503808176128008 0 0.85716729658548041 0.85716729658548041 0 0.51503808176128008 forward_v I I I I #
loop $-1 $-1 $335 $87 #
coedge $-1 $222 $222 $223 $336 reversed $137 $-1 #
coedge $-1 $223 $223 $222 $336 forward $139 $-1 #
coedge $-1 $224 $224 $140 $225 forward $219 $-1 #
edge $-1 $337 0 $337 6.2831853071796004 $224 $338 forward 7 unknown #
loop $-1 $-1 $231 $141 #
plane-surface $-1 -52.268440809350878 22.531876838680745 4.0909178007814262 -0.51503808176128008 0 0.85716729658548041 0.85716729658548041 0 0.51503808176128008 forward_v I I I I #
loop $-1 $-1 $339 $90 #
coedge $-1 $229 $229 $230 $340 reversed $142 $-1 #
coedge $-1 $230 $230 $229 $340 forward $144 $-1 #
coedge $-1 $231 $231 $145 $232 forward $226 $-1 #
edge $-1 $341 0 $341 6.2831853071796004 $231 $342 forward 7 unknown #
loop $-1 $-1 $238 $146 #
plane-surface $-1 -52.268440809350878 22.531876838680745 4.0909178007814262 -0.51503808176128008 0 0.85716729658548041 0.85716729658548041 0 0.51503808176128008 forward_v I I I I #
loop $-1 $-1 $343 $93 #
coedge $-1 $236 $236 $237 $344 reversed $147 $-1 #
coedge $-1 $237 $237 $236 $344 forward $149 $-1 #
coedge $-1 $238 $238 $150 $239 forward $233 $-1 #
edge $-1 $345 0 $345 6.2831853071796004 $238 $346 forward 7 unknown #
face $-1 $347 $348 $36 $-1 $349 reversed single #
loop $-1 $-1 $350 $151 #
plane-surface $-1 -52.268440809350871 0 0 1 0 0 0 0 -1 forward_v I I I I #
coedge $-1 $351 $251 $352 $353 forward $152 $-1 #
coedge $-1 $354 $154 $351 $355 forward $97 $-1 #
coedge $-1 $154 $354 $356 $357 forward $97 $-1 #
coedge $-1 $254 $253 $154 $247 reversed $255 $-1 #
edge $-1 $358 -28.37030855209656 $359 28.37030855209656 $246 $360 forward 7 unknown #
coedge $-1 $156 $155 $361 $362 forward $61 $-1 #
coedge $-1 $363 $364 $155 $250 reversed $348 $-1 #
edge $-1 $257 -52.268440809350871 $365 52.268440809350871 $249 $366 forward 7 unknown #
coedge $-1 $243 $367 $156 $252 reversed $152 $-1 #
edge $-1 $368 -52.268440809350871 $256 52.268440809350871 $251 $369 forward 7 unknown #
coedge $-1 $246 $157 $367 $370 forward $255 $-1 #
coedge $-1 $157 $246 $363 $371 reversed $255 $-1 #
loop $-1 $-1 $253 $347 #
vertex $-1 $158 $372 #
vertex $-1 $158 $373 #
straight-curve $-1 52.268440809350871 0 11.949002174925205 0 1 0 I I #
face $-1 $374 $375 $37 $-1 $376 reversed single #
loop $-1 $-1 $377 $159 #
plane-surface $-1 0 0 11.949002174925205 0 0 1 1 0 0 forward_v I I I I #
coedge $-1 $378 $379 $380 $381 reversed $160 $-1 #
coedge $-1 $165 $162 $382 $383 reversed $101 $-1 #
coedge $-1 $162 $165 $384 $385 reversed $101 $-1 #
coedge $-1 $379 $378 $162 $266 reversed $160 $-1 #
edge $-1 $386 -11.949002174925205 $387 11.949002174925205 $265 $388 forward 7 unknown #
coedge $-1 $164 $163 $389 $390 reversed $64 $-1 #
coedge $-1 $382 $391 $163 $269 forward $375 $-1 #
edge $-1 $392 -17.675125710258062 $273 -3.7152399734189334 $268 $393 forward 7 unknown #
coedge $-1 $394 $384 $164 $271 forward $260 $-1 #
edge $-1 $272 3.7152399734189334 $395 17.675125710258062 $270 $396 forward 7 unknown #
vertex $-1 $271 $397 #
vertex $-1 $269 $398 #
straight-curve $-1 -47.296518041358674 -14.410422815257432 0 0 0 -1 I I #
face $-1 $-1 $287 $38 $-1 $399 forward single #
loop $-1 $-1 $400 $167 #
plane-surface $-1 52.268440809350871 0 0 -1 0 0 0 0 1 forward_v I I I I #
coedge $-1 $401 $402 $403 $404 reversed $168 $-1 #
coedge $-1 $405 $170 $172 $285 forward $105 $-1 #
coedge $-1 $170 $405 $401 $406 forward $105 $-1 #
coedge $-1 $403 $173 $170 $282 forward $287 $-1 #
edge $-1 $289 -5.2300896216303876 $407 1.7303831280520221 $281 $408 forward 7 unknown #
coedge $-1 $409 $410 $171 $284 forward $276 $-1 #
edge $-1 $411 -71.306247405678306 $288 -61.866035598466446 $283 $412 forward 7 unknown #
edge $-1 $289 87.655029889311407 $411 104.53688161870176 $172 $413 forward 7 unknown #
coedge $-1 $173 $403 $409 $414 forward $287 $-1 #
loop $-1 $-1 $403 $275 #
vertex $-1 $284 $415 #
vertex $-1 $174 $416 #
straight-curve $-1 12.029860927017705 6.9799428684195703 11.949002174925212 -1 0 0 I I #
coedge $-1 $291 $291 $-1 $417 reversed $177 $-1 #
edge $-1 $418 0 $418 6.2831853071796004 $178 $419 forward 7 unknown #
vertex $-1 $181 $420 #
ellipse-curve $-1 45.270596161745118 2.0081766186464201 7.228896271319277 0.55919291073839883 0 0.82903756765294845 0.41451878382647422 0 -0.27959645536919941 1 I I #
coedge $-1 $295 $295 $-1 $421 reversed $184 $-1 #
edge $-1 $422 0 $422 6.2831853071796004 $185 $423 forward 7 unknown #
vertex $-1 $188 $424 #
ellipse-curve $-1 45.270596161745118 4.9912363685103074 7.228896271319277 0.55919291073839883 0 0.82903756765294845 0.41451878382647422 0 -0.27959645536919941 1 I I #
face $-1 $-1 $425 $41 $-1 $426 forward single #
loop $-1 $-1 $427 $189 #
plane-surface $-1 0 28.37030855209656 0 0 -1 0 0 0 -1 forward_v I I I I #
coedge $-1 $428 $192 $194 $308 forward $119 $-1 #
coedge $-1 $192 $428 $427 $429 reversed $119 $-1 #
coedge $-1 $430 $195 $192 $305 forward $190 $-1 #
edge $-1 $311 8.9647997137864763 $431 15.925272463468879 $304 $432 forward 7 unknown #
coedge $-1 $433 $434 $193 $307 forward $425 $-1 #
edge $-1 $435 26.242890587121682 $310 40.23857988233317 $306 $436 forward 7 unknown #
edge $-1 $311 -104.53688161870176 $435 -87.655029889311407 $194 $437 forward 7 unknown #
coedge $-1 $195 $430 $433 $438 reversed $190 $-1 #
vertex $-1 $438 $439 #
vertex $-1 $196 $440 #
straight-curve $-1 52.268440809350871 21.409835802414158 73.815037773391651 0 0 -1 I I #
coedge $-1 $313 $313 $-1 $441 reversed $199 $-1 #
edge $-1 $442 0 $442 6.2831853071796004 $200 $443 forward 7 unknown #
vertex $-1 $203 $444 #
ellipse-curve $-1 45.270596161745118 23.39854230232342 7.228896271319277 0.55919291073839883 0 0.82903756765294845 0.41451878382647422 0 -0.27959645536919941 1 I I #
coedge $-1 $317 $317 $-1 $445 reversed $206 $-1 #
edge $-1 $446 0 $446 6.2831853071796004 $207 $447 forward 7 unknown #
vertex $-1 $210 $448 #
ellipse-curve $-1 45.270596161745118 26.381602052187304 7.228896271319277 0.55919291073839883 0 0.82903756765294845 0.41451878382647422 0 -0.27959645536919941 1 I I #
face $-1 $-1 $449 $44 $-1 $450 reversed single #
loop $-1 $-1 $451 $211 #
plane-surface $-1 0 28.37030855209656 0 0 -1 0 0 0 -1 forward_v I I I I #
coedge $-1 $452 $214 $216 $330 forward $133 $-1 #
coedge $-1 $214 $452 $451 $453 reversed $133 $-1 #
coedge $-1 $454 $217 $214 $327 forward $212 $-1 #
edge $-1 $333 5.4275067059245536 $455 17.104370132756191 $326 $456 forward 7 unknown #
coedge $-1 $457 $458 $215 $329 forward $449 $-1 #
edge $-1 $459 -42.757339204898763 $332 -34.899254830754991 $328 $460 forward 7 unknown #
edge $-1 $333 -15.257288057751811 $459 -8.3777685069199533e-015 $216 $461 forward 7 unknown #
coedge $-1 $217 $454 $457 $462 forward $212 $-1 #
vertex $-1 $329 $463 #
vertex $-1 $218 $464 #
straight-curve $-1 -53.054457895776522 16.693445125264926 11.949002174925205 1 0 0 I I #
coedge $-1 $335 $335 $-1 $465 reversed $221 $-1 #
edge $-1 $466 0 $466 6.2831853071796004 $222 $467 forward 7 unknown #
vertex $-1 $225 $468 #
ellipse-curve $-1 -45.729416630506343 19.02881781063126 8.0199599878533228 -0.51503808176128008 0 0.85716729658548041 0.85716729658548041 0 0.51503808176128008 1 I I #
coedge $-1 $339 $339 $-1 $469 reversed $228 $-1 #
edge $-1 $470 0 $470 6.2831853071796004 $229 $471 forward 7 unknown #
vertex $-1 $232 $472 #
ellipse-curve $-1 -45.729416630506343 22.531876838680752 8.0199599878533228 -0.51503808176128008 0 0.85716729658548041 0.85716729658548041 0 0.51503808176128008 1 I I #
coedge $-1 $343 $343 $-1 $473 reversed $235 $-1 #
edge $-1 $474 0 $474 6.2831853071796004 $236 $475 forward 7 unknown #
vertex $-1 $239 $476 #
ellipse-curve $-1 -45.729416630506343 26.034935866730244 8.0199599878533228 -0.51503808176128008 0 0.85716729658548041 0.85716729658548041 0 0.51503808176128008 1 I I #
face $-1 $-1 $255 $36 $-1 $477 reversed single #
loop $-1 $-1 $363 $240 #
plane-surface $-1 0 28.37030855209656 0 0 -1 0 0 0 -1 forward_v I I I I #
coedge $-1 $478 $361 $364 $479 forward $241 $-1 #
coedge $-1 $367 $243 $244 $355 reversed $152 $-1 #
coedge $-1 $361 $478 $243 $353 reversed $241 $-1 #
edge $-1 $368 -11.949002174925205 $480 11.949002174925205 $352 $481 forward 7 unknown #
coedge $-1 $245 $244 $478 $482 forward $97 $-1 #
edge $-1 $359 -52.268440809350871 $480 52.268440809350871 $351 $483 forward 7 unknown #
coedge $-1 $364 $363 $245 $357 reversed $348 $-1 #
edge $-1 $484 -52.268440809350871 $358 52.268440809350871 $356 $485 forward 7 unknown #
vertex $-1 $247 $486 #
vertex $-1 $370 $487 #
straight-curve $-1 52.268440809350871 0 -11.949002174925205 0 -1 0 I I #
coedge $-1 $350 $352 $248 $362 reversed $241 $-1 #
edge $-1 $365 -28.37030855209656 $368 28.37030855209656 $361 $488 forward 7 unknown #
coedge $-1 $356 $249 $254 $371 forward $348 $-1 #
coedge $-1 $249 $356 $350 $479 reversed $348 $-1 #
vertex $-1 $250 $489 #
straight-curve $-1 0 28.37030855209656 11.949002174925205 -1 0 0 I I #
coedge $-1 $251 $351 $253 $370 reversed $152 $-1 #
vertex $-1 $362 $490 #
straight-curve $-1 0 -28.37030855209656 11.949002174925205 1 0 0 I I #
edge $-1 $256 -11.949002174925205 $359 11.949002174925205 $253 $491 forward 7 unknown #
edge $-1 $257 -11.949002174925205 $358 11.949002174925205 $254 $492 forward 7 unknown #
point $-1 52.268440809350871 -28.37030855209656 11.949002174925205 #
point $-1 52.268440809350871 28.37030855209656 11.949002174925205 #
face $-1 $-1 $493 $37 $-1 $494 reversed single #
loop $-1 $-1 $495 $259 #
plane-surface $-1 0 0 -11.949002174925205 0 0 1 1 0 0 forward_v I I I I #
coedge $-1 $384 $394 $379 $496 forward $260 $-1 #
coedge $-1 $265 $262 $495 $497 reversed $160 $-1 #
coedge $-1 $262 $265 $377 $496 reversed $160 $-1 #
coedge $-1 $498 $499 $262 $381 forward $493 $-1 #
edge $-1 $500 -11.949002174925205 $501 11.949002174925205 $380 $502 forward 7 unknown #
coedge $-1 $495 $268 $263 $383 forward $375 $-1 #
edge $-1 $273 -25.196684436038041 $387 -19.002982774603225 $382 $503 forward 7 unknown #
coedge $-1 $270 $377 $264 $385 forward $260 $-1 #
edge $-1 $386 19.002982774603225 $272 25.196684436038041 $384 $504 forward 7 unknown #
vertex $-1 $385 $505 #
vertex $-1 $383 $506 #
straight-curve $-1 -41.102816379923858 -14.410422815257432 0 0 0 -1 I I #
coedge $-1 $499 $498 $267 $390 forward $493 $-1 #
edge $-1 $395 -11.949002174925205 $392 11.949002174925205 $389 $507 forward 7 unknown #
coedge $-1 $268 $495 $499 $508 forward $375 $-1 #
vertex $-1 $269 $509 #
straight-curve $-1 -47.296518041358674 -10.695182841838498 -11.949002174925205 0 1 0 I I #
coedge $-1 $377 $270 $498 $510 forward $260 $-1 #
vertex $-1 $510 $511 #
straight-curve $-1 -47.296518041358674 -10.695182841838498 11.949002174925205 0 -1 0 I I #
point $-1 -47.296518041358674 -14.410422815257432 11.949002174925205 #
point $-1 -47.296518041358674 -14.410422815257432 -11.949002174925205 #
plane-surface $-1 0 0 11.949002174925205 0 0 1 1 0 0 forward_v I I I I #
coedge $-1 $410 $409 $402 $512 forward $276 $-1 #
coedge $-1 $402 $278 $280 $406 reversed $168 $-1 #
coedge $-1 $278 $401 $400 $512 reversed $168 $-1 #
coedge $-1 $286 $281 $278 $404 forward $287 $-1 #
edge $-1 $407 26.242890587121682 $513 40.23857988233317 $403 $514 forward 7 unknown #
coedge $-1 $280 $279 $410 $515 reversed $105 $-1 #
edge $-1 $516 -104.53688161870176 $407 -87.655029889311407 $401 $517 forward 7 unknown #
vertex $-1 $282 $518 #
straight-curve $-1 38.272751514139394 1.7498532467891827 11.949002174925205 0 -1 0 I I #
coedge $-1 $400 $283 $286 $414 reversed $276 $-1 #
coedge $-1 $283 $400 $405 $515 forward $276 $-1 #
vertex $-1 $284 $519 #
straight-curve $-1 52.268440809350871 6.9799428684195703 73.815037773391651 0 0 1 I I #
straight-curve $-1 -34.396561257841839 6.9799428684195703 60.9650734795906 0.82903756765294845 0 -0.55919291073839883 I I #
edge $-1 $513 0.019470118737160647 $288 6.9799428684195703 $409 $520 forward 7 unknown #
point $-1 52.268440809350871 6.9799428684195703 11.949002174925205 #
point $-1 38.272751514139387 6.9799428684195703 11.949002174925205 #
edge $-1 $521 1 $521 0 $291 $-1 forward 7 unknown #
vertex $-1 $292 $522 #
ellipse-curve $-1 44.711403251006715 2.0081766186464201 6.3998587036663226 0.55919291073839883 0 0.82903756765294845 0.41451878382647422 0 -0.27959645536919941 1 I I #
point $-1 45.685114945571584 2.0081766186464201 6.949299815950071 #
edge $-1 $523 1 $523 0 $295 $-1 forward 7 unknown #
vertex $-1 $296 $524 #
ellipse-curve $-1 44.711403251006715 4.9912363685103074 6.3998587036663226 0.55919291073839883 0 0.82903756765294845 0.41451878382647422 0 -0.27959645536919941 1 I I #
point $-1 45.685114945571584 4.9912363685103074 6.949299815950071 #
loop $-1 $-1 $306 $299 #
plane-surface $-1 0 0 11.949002174925205 0 0 1 1 0 0 forward_v I I I I #
coedge $-1 $525 $526 $303 $429 forward $300 $-1 #
coedge $-1 $303 $302 $434 $527 reversed $119 $-1 #
edge $-1 $431 -73.233242432072004 $528 -56.351390702681663 $427 $529 forward 7 unknown #
coedge $-1 $309 $304 $526 $530 reversed $190 $-1 #
vertex $-1 $429 $531 #
straight-curve $-1 52.268440809350871 12.445036088627681 2.508790367713349 0 1 0 I I #
coedge $-1 $532 $306 $309 $438 forward $425 $-1 #
coedge $-1 $306 $532 $428 $527 forward $425 $-1 #
vertex $-1 $307 $533 #
straight-curve $-1 12.029860927017705 21.409835802414158 11.949002174925212 1 0 0 I I #
straight-curve $-1 -34.396561257841839 21.409835802414158 60.9650734795906 -0.82903756765294845 0 0.55919291073839883 I I #
edge $-1 $310 21.409835802414158 $534 28.37030855209656 $309 $535 forward 7 unknown #
point $-1 52.268440809350871 21.409835802414158 11.949002174925205 #
point $-1 52.268440809350878 21.409835802414158 2.5087903677133454 #
edge $-1 $536 1 $536 0 $313 $-1 forward 7 unknown #
vertex $-1 $314 $537 #
ellipse-curve $-1 44.711403251006715 23.39854230232342 6.3998587036663226 0.55919291073839883 0 0.82903756765294845 0.41451878382647422 0 -0.27959645536919941 1 I I #
point $-1 45.685114945571584 23.39854230232342 6.949299815950071 #
edge $-1 $538 1 $538 0 $317 $-1 forward 7 unknown #
vertex $-1 $318 $539 #
ellipse-curve $-1 44.711403251006715 26.381602052187304 6.3998587036663226 0.55919291073839883 0 0.82903756765294845 0.41451878382647422 0 -0.27959645536919941 1 I I #
point $-1 45.685114945571584 26.381602052187304 6.949299815950071 #
loop $-1 $-1 $328 $321 #
plane-surface $-1 -52.268440809350871 0 0 1 0 0 0 0 -1 forward_v I I I I #
coedge $-1 $540 $541 $325 $453 forward $322 $-1 #
coedge $-1 $325 $324 $458 $542 reversed $133 $-1 #
edge $-1 $455 6.0906217665141629 $543 21.347909824265965 $451 $544 forward 7 unknown #
coedge $-1 $331 $326 $541 $545 forward $212 $-1 #
vertex $-1 $545 $546 #
straight-curve $-1 -39.190392451661822 11.265938419340372 11.949002174925205 0 1 0 I I #
coedge $-1 $547 $328 $331 $462 reversed $449 $-1 #
coedge $-1 $328 $547 $452 $542 forward $449 $-1 #
vertex $-1 $329 $548 #
straight-curve $-1 -52.268440809350871 16.693445125264926 46.848257005680196 0 0 1 I I #
straight-curve $-1 -52.268440809350878 16.693445125264926 4.0909178007814262 -0.85716729658548041 0 -0.51503808176128008 I I #
edge $-1 $549 -28.37030855209656 $332 -16.693445125264926 $457 $550 forward 7 unknown #
point $-1 -52.268440809350871 16.693445125264926 11.949002174925205 #
point $-1 -39.190392451661822 16.693445125264926 11.949002174925205 #
edge $-1 $551 1 $551 0 $335 $-1 forward 7 unknown #
vertex $-1 $336 $552 #
ellipse-curve $-1 -44.397236767180559 19.02881781063126 5.8028404146605901 -0.51503808176128008 0 0.85716729658548041 0.85716729658548041 0 0.51503808176128008 1 I I #
point $-1 -44.872249333920848 19.02881781063126 8.5349980696145895 #
edge $-1 $553 1 $553 0 $339 $-1 forward 7 unknown #
vertex $-1 $340 $554 #
ellipse-curve $-1 -44.397236767180559 22.531876838680752 5.8028404146605901 -0.51503808176128008 0 0.85716729658548041 0.85716729658548041 0 0.51503808176128008 1 I I #
point $-1 -44.872249333920848 22.531876838680752 8.5349980696145895 #
edge $-1 $555 1 $555 0 $343 $-1 forward 7 unknown #
vertex $-1 $344 $556 #
ellipse-curve $-1 -44.397236767180559 26.034935866730244 5.8028404146605901 -0.51503808176128008 0 0.85716729658548041 0.85716729658548041 0 0.51503808176128008 1 I I #
point $-1 -44.872249333920848 26.034935866730244 8.5349980696145895 #
plane-surface $-1 52.268440809350871 0 0 -1 0 0 0 0 1 forward_v I I I I #
coedge $-1 $352 $350 $354 $482 reversed $241 $-1 #
edge $-1 $365 -11.949002174925205 $484 11.949002174925205 $364 $557 forward 7 unknown #
vertex $-1 $482 $558 #
straight-curve $-1 -52.268440809350871 -28.37030855209656 0 0 0 -1 I I #
edge $-1 $480 -28.37030855209656 $484 28.37030855209656 $478 $559 forward 7 unknown #
straight-curve $-1 0 -28.37030855209656 -11.949002174925205 -1 0 0 I I #
vertex $-1 $357 $560 #
straight-curve $-1 0 28.37030855209656 -11.949002174925205 1 0 0 I I #
point $-1 52.268440809350871 28.37030855209656 -11.949002174925205 #
point $-1 52.268440809350871 -28.37030855209656 -11.949002174925205 #
straight-curve $-1 -52.268440809350871 0 11.949002174925205 0 -1 0 I I #
point $-1 -52.268440809350871 28.37030855209656 11.949002174925205 #
point $-1 -52.268440809350871 -28.37030855209656 11.949002174925205 #
straight-curve $-1 52.268440809350871 -28.37030855209656 0 0 0 -1 I I #
straight-curve $-1 52.268440809350871 28.37030855209656 0 0 0 -1 I I #
loop $-1 $-1 $380 $374 #
plane-surface $-1 0 -28.37030855209656 0 0 1 0 0 0 1 forward_v I I I I #
coedge $-1 $391 $382 $378 $497 forward $375 $-1 #
edge $-1 $501 -17.675125710258062 $386 -3.7152399734189334 $377 $561 forward 7 unknown #
edge $-1 $387 3.7152399734189334 $500 17.675125710258062 $495 $562 forward 7 unknown #
coedge $-1 $389 $380 $394 $510 reversed $493 $-1 #
coedge $-1 $380 $389 $391 $508 reversed $493 $-1 #
vertex $-1 $508 $563 #
vertex $-1 $381 $564 #
straight-curve $-1 -41.102816379923858 -28.37030855209656 0 0 0 1 I I #
straight-curve $-1 -22.099833605320633 -14.410422815257432 -11.949002174925205 1 0 0 I I #
straight-curve $-1 -22.099833605320633 -14.410422815257432 11.949002174925205 -1 0 0 I I #
point $-1 -41.102816379923858 -14.410422815257432 11.949002174925205 #
point $-1 -41.102816379923858 -14.410422815257432 -11.949002174925205 #
straight-curve $-1 -47.296518041358674 -28.37030855209656 0 0 0 -1 I I #
edge $-1 $500 41.102816379923858 $392 47.296518041358674 $499 $565 forward 7 unknown #
point $-1 -47.296518041358674 -28.37030855209656 -11.949002174925205 #
edge $-1 $395 -47.296518041358674 $501 -41.102816379923858 $498 $566 forward 7 unknown #
point $-1 -47.296518041358674 -28.37030855209656 11.949002174925205 #
edge $-1 $513 61.866035598466446 $516 71.306247405678306 $400 $567 forward 7 unknown #
vertex $-1 $414 $568 #
straight-curve $-1 12.029860927017705 0.019470118737160647 11.949002174925212 1 0 0 I I #
edge $-1 $516 -1.7303831280520221 $411 5.2300896216303876 $410 $569 forward 7 unknown #
vertex $-1 $515 $570 #
straight-curve $-1 -34.396561257841839 0.019470118737160647 60.9650734795906 -0.82903756765294845 0 0.55919291073839883 I I #
point $-1 38.272751514139387 0.019470118737160647 11.949002174925205 #
point $-1 52.268440809350878 6.9799428684195703 2.5087903677133454 #
straight-curve $-1 52.268440809350871 0 11.949002174925205 0 1 0 I I #
vertex $-1 $417 $571 #
point $-1 45.125922034833188 2.0081766186464201 6.1202622482971227 #
vertex $-1 $421 $572 #
point $-1 45.125922034833188 4.9912363685103074 6.1202622482971227 #
coedge $-1 $526 $427 $532 $573 reversed $300 $-1 #
coedge $-1 $427 $525 $430 $530 forward $300 $-1 #
edge $-1 $528 -15.925272463468886 $435 -8.9647997137864763 $434 $574 forward 7 unknown #
vertex $-1 $429 $575 #
straight-curve $-1 -8.4446683678728007 28.37030855209656 43.46030036611451 -0.82903756765294845 0 0.55919291073839883 I I #
edge $-1 $534 -11.949002174925205 $431 -2.5087903677133476 $430 $576 forward 7 unknown #
point $-1 52.268440809350871 28.37030855209656 2.5087903677133476 #
coedge $-1 $434 $433 $525 $573 forward $425 $-1 #
point $-1 38.272751514139387 21.409835802414158 11.949002174925205 #
vertex $-1 $438 $577 #
straight-curve $-1 52.268440809350871 0 11.949002174925205 0 1 0 I I #
vertex $-1 $441 $578 #
point $-1 45.125922034833188 23.39854230232342 6.1202622482971227 #
vertex $-1 $445 $579 #
point $-1 45.125922034833188 26.381602052187304 6.1202622482971227 #
coedge $-1 $541 $451 $547 $580 reversed $322 $-1 #
coedge $-1 $451 $540 $454 $545 reversed $322 $-1 #
edge $-1 $543 -17.104370132756191 $459 -5.4275067059245536 $458 $581 forward 7 unknown #
vertex $-1 $453 $582 #
straight-curve $-1 -33.969710657534193 28.37030855209656 15.08590432628416 -0.85716729658548041 0 -0.51503808176128008 I I #
edge $-1 $455 39.190392451661822 $549 52.268440809350871 $541 $583 forward 7 unknown #
point $-1 -39.190392451661822 28.370308552096564 11.949002174925205 #
coedge $-1 $458 $457 $540 $580 forward $449 $-1 #
point $-1 -52.268440809350871 16.693445125264926 4.0909178007814306 #
vertex $-1 $545 $584 #
straight-curve $-1 -52.268440809350871 0 11.949002174925205 0 -1 0 I I #
vertex $-1 $465 $585 #
point $-1 -43.540069470595078 19.02881781063126 6.3178784964218702 #
vertex $-1 $469 $586 #
point $-1 -43.540069470595078 22.531876838680752 6.3178784964218702 #
vertex $-1 $473 $587 #
point $-1 -43.540069470595078 26.034935866730244 6.3178784964218702 #
straight-curve $-1 -52.268440809350871 28.37030855209656 0 0 0 -1 I I #
point $-1 -52.268440809350871 -28.37030855209656 -11.949002174925205 #
straight-curve $-1 -52.268440809350871 0 -11.949002174925205 0 1 0 I I #
point $-1 -52.268440809350871 28.37030855209656 -11.949002174925205 #
straight-curve $-1 -41.102816379923858 -10.695182841838498 11.949002174925205 0 1 0 I I #
straight-curve $-1 -41.102816379923858 -10.695182841838498 -11.949002174925205 0 -1 0 I I #
point $-1 -41.102816379923858 -28.37030855209656 -11.949002174925205 #
point $-1 -41.102816379923858 -28.37030855209656 11.949002174925205 #
straight-curve $-1 0 -28.37030855209656 -11.949002174925205 -1 0 0 I I #
straight-curve $-1 0 -28.37030855209656 11.949002174925205 1 0 0 I I #
straight-curve $-1 52.268440809350871 0.019470118737160647 73.815037773391651 0 0 -1 I I #
point $-1 52.268440809350871 0.019470118737160647 11.949002174925205 #
straight-curve $-1 52.268440809350871 1.7498532467891827 2.508790367713349 0 1 0 I I #
point $-1 52.268440809350878 0.019470118737160647 2.5087903677133454 #
point $-1 44.431806795637513 2.0081766186464201 5.9853399198398476 #
point $-1 44.431806795637513 4.9912363685103074 5.9853399198398476 #
edge $-1 $534 -52.268440809350871 $528 -38.272751514139387 $525 $588 forward 7 unknown #
straight-curve $-1 38.272751514139394 12.445036088627681 11.949002174925205 0 -1 0 I I #
point $-1 38.272751514139387 28.370308552096567 11.949002174925205 #
straight-curve $-1 52.268440809350871 28.37030855209656 0 0 0 -1 I I #
point $-1 52.268440809350871 28.37030855209656 11.949002174925205 #
point $-1 44.431806795637513 23.39854230232342 5.9853399198398476 #
point $-1 44.431806795637513 26.381602052187304 5.9853399198398476 #
edge $-1 $549 -11.949002174925205 $543 -4.0909178007814306 $540 $589 forward 7 unknown #
straight-curve $-1 -52.268440809350871 11.265938419340372 4.0909178007814333 0 -1 0 I I #
point $-1 -52.268440809350871 28.370308552096564 4.0909178007814306 #
straight-curve $-1 0 28.37030855209656 11.949002174925205 -1 0 0 I I #
point $-1 -52.268440809350871 28.37030855209656 11.949002174925205 #
point $-1 -43.882198685419283 19.02881781063126 4.9456731180751099 #
point $-1 -43.882198685419283 22.531876838680752 4.9456731180751099 #
point $-1 -43.882198685419283 26.034935866730244 4.9456731180751099 #
straight-curve $-1 0 28.37030855209656 11.949002174925205 -1 0 0 I I #
straight-curve $-1 -52.268440809350871 28.37030855209656 0 0 0 -1 I I #
End-of-ACIS-data 