500 0 16 0           
7 Unknown 11 ACIS 5.0 NT 24 Thu Mar 25 23:11:29 1999 
-1 9.9999999999999995e-007 1e-010 
body $-1 $16 $-1 $17 #
body $-1 $18 $-1 $19 #
body $-1 $20 $-1 $21 #
body $-1 $22 $-1 $23 #
body $-1 $24 $-1 $25 #
body $-1 $26 $-1 $27 #
body $-1 $28 $-1 $29 #
body $-1 $30 $-1 $31 #
body $-1 $32 $-1 $33 #
body $-1 $34 $-1 $35 #
body $-1 $36 $-1 $37 #
body $-1 $38 $-1 $39 #
body $-1 $40 $-1 $41 #
body $-1 $42 $-1 $43 #
body $-1 $44 $-1 $45 #
body $-1 $46 $-1 $47 #
lump $-1 $-1 $48 $0 #
transform $-1 1 0 0 0 1 0 0 0 1 67.484969634083072 37.681150423542604 11.655776737202087 1 rotate no_reflect no_shear #
lump $-1 $-1 $49 $1 #
transform $-1 1 0 0 0 1 0 0 0 1 67.484969634083072 37.681150423542604 11.655776737202087 1 rotate no_reflect no_shear #
lump $-1 $-1 $50 $2 #
transform $-1 1 0 0 0 1 0 0 0 1 67.484969634083072 37.681150423542604 11.655776737202087 1 rotate no_reflect no_shear #
lump $-1 $-1 $51 $3 #
transform $-1 1 0 0 0 1 0 0 0 1 67.484969634083072 37.681150423542604 11.655776737202087 1 rotate no_reflect no_shear #
lump $-1 $-1 $52 $4 #
transform $-1 1 0 0 0 1 0 0 0 1 67.484969634083072 37.681150423542604 11.655776737202087 1 rotate no_reflect no_shear #
lump $-1 $-1 $53 $5 #
transform $-1 1 0 0 0 1 0 0 0 1 67.484969634083072 37.681150423542604 11.655776737202087 1 rotate no_reflect no_shear #
lump $-1 $-1 $54 $6 #
transform $-1 1 0 0 0 1 0 0 0 1 67.484969634083072 37.681150423542604 11.655776737202087 1 rotate no_reflect no_shear #
lump $-1 $-1 $55 $7 #
transform $-1 1 0 0 0 1 0 0 0 1 67.484969634083072 37.681150423542604 11.655776737202087 1 rotate no_reflect no_shear #
lump $-1 $-1 $56 $8 #
transform $-1 1 0 0 0 1 0 0 0 1 67.484969634083072 37.681150423542604 11.655776737202087 1 rotate no_reflect no_shear #
lump $-1 $-1 $57 $9 #
transform $-1 1 0 0 0 1 0 0 0 1 67.484969634083072 37.681150423542604 11.655776737202087 1 rotate no_reflect no_shear #
lump $-1 $-1 $58 $10 #
transform $-1 1 0 0 0 1 0 0 0 1 67.484969634083072 37.681150423542604 11.655776737202087 1 rotate no_reflect no_shear #
lump $-1 $-1 $59 $11 #
transform $-1 1 0 0 0 1 0 0 0 1 67.484969634083072 37.681150423542604 11.655776737202087 1 rotate no_reflect no_shear #
lump $-1 $-1 $60 $12 #
transform $-1 1 0 0 0 1 0 0 0 1 67.484969634083072 37.681150423542604 11.655776737202087 1 rotate no_reflect no_shear #
lump $-1 $-1 $61 $13 #
transform $-1 1 0 0 0 1 0 0 0 1 67.484969634083072 37.681150423542604 11.655776737202087 1 rotate no_reflect no_shear #
lump $-1 $-1 $62 $14 #
transform $-1 1 0 0 0 1 0 0 0 1 67.484969634083072 37.681150423542604 11.655776737202087 1 rotate no_reflect no_shear #
lump $-1 $-1 $63 $15 #
transform $-1 1 0 0 0 1 0 0 0 1 67.484969634083072 37.681150423542604 11.655776737202087 1 rotate no_reflect no_shear #
shell $-1 $-1 $-1 $64 $-1 $16 #
shell $-1 $-1 $-1 $65 $-1 $18 #
shell $-1 $-1 $-1 $66 $-1 $20 #
shell $-1 $-1 $-1 $67 $-1 $22 #
shell $-1 $-1 $-1 $68 $-1 $24 #
shell $-1 $-1 $-1 $69 $-1 $26 #
shell $-1 $-1 $-1 $70 $-1 $28 #
shell $-1 $-1 $-1 $71 $-1 $30 #
shell $-1 $-1 $-1 $72 $-1 $32 #
shell $-1 $-1 $-1 $73 $-1 $34 #
shell $-1 $-1 $-1 $74 $-1 $36 #
shell $-1 $-1 $-1 $75 $-1 $38 #
shell $-1 $-1 $-1 $76 $-1 $40 #
shell $-1 $-1 $-1 $77 $-1 $42 #
shell $-1 $-1 $-1 $78 $-1 $44 #
shell $-1 $-1 $-1 $79 $-1 $46 #
face $-1 $80 $81 $48 $-1 $82 forward single #
face $-1 $83 $84 $49 $-1 $85 reversed single #
face $-1 $86 $87 $50 $-1 $88 reversed single #
face $-1 $89 $90 $51 $-1 $91 forward single #
face $-1 $92 $93 $52 $-1 $94 forward single #
face $-1 $95 $96 $53 $-1 $97 reversed single #
face $-1 $98 $99 $54 $-1 $100 forward single #
face $-1 $101 $102 $55 $-1 $103 forward single #
face $-1 $104 $105 $56 $-1 $106 reversed single #
face $-1 $107 $108 $57 $-1 $109 forward single #
face $-1 $110 $111 $58 $-1 $112 forward single #
face $-1 $113 $114 $59 $-1 $115 reversed single #
face $-1 $116 $117 $60 $-1 $118 forward single #
face $-1 $119 $120 $61 $-1 $121 forward single #
face $-1 $122 $123 $62 $-1 $124 reversed single #
face $-1 $125 $126 $63 $-1 $127 forward single #
face $-1 $128 $129 $48 $-1 $130 reversed single #
loop $-1 $-1 $131 $64 #
plane-surface $-1 0 0 11.655776737202087 0 0 1 1 0 0 forward_v I I I I #
face $-1 $132 $133 $49 $-1 $134 reversed single #
loop $-1 $-1 $135 $65 #
plane-surface $-1 -56.090488327041797 -36.156085217530261 0 -1 0 0 0 0 1 forward_v I I I I #
face $-1 $136 $137 $50 $-1 $138 reversed single #
loop $-1 $-1 $139 $66 #
plane-surface $-1 -46.736578164338326 -37.681150423542618 1.4565859837315713 0 -0.75470958851134928 0.65605901945558964 1 0 0 forward_v I I I I #
face $-1 $140 $141 $51 $-1 $142 forward single #
loop $-1 $143 $144 $67 #
cone-surface $-1 -50.745396805496952 -32.383979347985139 5.8049780659646082 0 0.75470958851134928 -0.65605901945558964 2 0 0 1 I I 0 1 2 forward I I I I #
face $-1 $145 $146 $52 $-1 $147 forward single #
loop $-1 $148 $149 $68 #
cone-surface $-1 -42.727759523179699 -32.383979347985139 5.8049780659646082 0 0.75470958851134928 -0.65605901945558964 2 0 0 1 I I 0 1 2 forward I I I I #
face $-1 $150 $151 $53 $-1 $152 reversed single #
loop $-1 $-1 $153 $69 #
plane-surface $-1 -6.4888035113536446 -139.5442577500221 90.004831995985143 -1 0 0 0 -0.75470958851134928 0.65605901945558964 forward_v I I I I #
face $-1 $154 $155 $54 $-1 $156 forward single #
loop $-1 $157 $158 $70 #
cone-surface $-1 -19.851532315215735 -32.383979347985139 5.8049780659646082 0 0.75470958851134928 -0.65605901945558964 2 0 0 1 I I 0 1 2 forward I I I I #
face $-1 $159 $160 $55 $-1 $161 forward single #
loop $-1 $162 $163 $71 #
cone-surface $-1 -11.833895032898482 -32.383979347985139 5.8049780659646082 0 0.75470958851134928 -0.65605901945558964 2 0 0 1 I I 0 1 2 forward I I I I #
face $-1 $164 $165 $56 $-1 $166 reversed single #
loop $-1 $-1 $167 $72 #
plane-surface $-1 24.405060978927573 -139.5442577500221 90.004831995985143 -1 0 0 0 -0.75470958851134928 0.65605901945558964 forward_v I I I I #
face $-1 $168 $169 $57 $-1 $170 forward single #
loop $-1 $171 $172 $73 #
cone-surface $-1 11.042332175065482 -32.383979347985139 5.8049780659646082 0 0.75470958851134928 -0.65605901945558964 2 0 0 1 I I 0 1 2 forward I I I I #
face $-1 $173 $174 $58 $-1 $175 forward single #
loop $-1 $176 $177 $74 #
cone-surface $-1 19.059969457382735 -32.383979347985139 5.8049780659646082 0 0.75470958851134928 -0.65605901945558964 2 0 0 1 I I 0 1 2 forward I I I I #
face $-1 $178 $179 $59 $-1 $180 reversed single #
loop $-1 $-1 $181 $75 #
plane-surface $-1 55.29892546920879 -139.5442577500221 90.004831995985143 -1 0 0 0 -0.75470958851134928 0.65605901945558964 forward_v I I I I #
face $-1 $182 $183 $60 $-1 $184 forward single #
loop $-1 $185 $186 $76 #
cone-surface $-1 41.936196665346699 -32.383979347985139 5.8049780659646082 0 0.75470958851134928 -0.65605901945558964 2 0 0 1 I I 0 1 2 forward I I I I #
face $-1 $187 $188 $61 $-1 $189 forward single #
loop $-1 $190 $191 $77 #
cone-surface $-1 49.953833947663952 -32.383979347985139 5.8049780659646082 0 0.75470958851134928 -0.65605901945558964 2 0 0 1 I I 0 1 2 forward I I I I #
face $-1 $192 $193 $62 $-1 $194 reversed single #
loop $-1 $-1 $195 $78 #
plane-surface $-1 -6.7266981630115517 87.556142134104547 146.42249267359011 1 0 0 0 -0.74314483375859142 -0.66913059716165679 forward_v I I I I #
face $-1 $196 $197 $63 $-1 $198 forward single #
loop $-1 $199 $200 $79 #
cone-surface $-1 -0.13232373087174665 29.017009494026667 2.7614145346198855 0 -0.74314483375859142 -0.66913059716165679 3 0 0 1 I I 0 1 3 forward I I I I #
face $-1 $201 $202 $48 $-1 $203 reversed single #
loop $-1 $-1 $204 $80 #
plane-surface $-1 0 0 -11.655776737202087 0 0 1 1 0 0 forward_v I I I I #
coedge $-1 $205 $206 $207 $208 forward $81 $-1 #
face $-1 $209 $210 $49 $-1 $211 forward single #
loop $-1 $-1 $212 $83 #
plane-surface $-1 -61.787728980562434 -34.631020011517919 0 0 -1 0 0 0 -1 forward_v I I I I #
coedge $-1 $213 $214 $215 $216 reversed $84 $-1 #
face $-1 $217 $218 $50 $-1 $219 forward single #
loop $-1 $-1 $220 $86 #
plane-surface $-1 -37.382668001634862 -139.5442577500221 90.004831995985143 -1 0 0 0 -0.75470958851134928 0.65605901945558964 forward_v I I I I #
coedge $-1 $221 $222 $223 $224 reversed $87 $-1 #
face $-1 $-1 $225 $51 $-1 $226 forward single #
loop $-1 $227 $228 $89 #
cone-surface $-1 -50.745396805496952 -30.765109200028089 4.397715752006798 0 0.75470958851134928 -0.65605901945558964 1 0 0 1 I I -0.70710678118654746 0.70710678118654746 1 forward I I I I #
loop $-1 $-1 $229 $67 #
coedge $-1 $144 $144 $230 $231 reversed $90 $-1 #
face $-1 $-1 $232 $52 $-1 $233 forward single #
loop $-1 $234 $235 $92 #
cone-surface $-1 -42.727759523179699 -30.765109200028089 4.397715752006798 0 0.75470958851134928 -0.65605901945558964 1 0 0 1 I I -0.70710678118654746 0.70710678118654746 1 forward I I I I #
loop $-1 $-1 $236 $68 #
coedge $-1 $149 $149 $237 $238 reversed $93 $-1 #
face $-1 $239 $240 $53 $-1 $241 reversed single #
loop $-1 $-1 $242 $95 #
plane-surface $-1 -15.842713674057109 -37.681150423542618 1.4565859837315713 0 -0.75470958851134928 0.65605901945558964 1 0 0 forward_v I I I I #
coedge $-1 $243 $244 $245 $246 reversed $96 $-1 #
face $-1 $-1 $247 $54 $-1 $248 forward single #
loop $-1 $249 $250 $98 #
cone-surface $-1 -19.851532315215735 -30.765109200028089 4.397715752006798 0 0.75470958851134928 -0.65605901945558964 1 0 0 1 I I -0.70710678118654746 0.70710678118654746 1 forward I I I I #
loop $-1 $-1 $251 $70 #
coedge $-1 $158 $158 $252 $253 reversed $99 $-1 #
face $-1 $-1 $254 $55 $-1 $255 forward single #
loop $-1 $256 $257 $101 #
cone-surface $-1 -11.833895032898482 -30.765109200028089 4.397715752006798 0 0.75470958851134928 -0.65605901945558964 1 0 0 1 I I -0.70710678118654746 0.70710678118654746 1 forward I I I I #
loop $-1 $-1 $258 $71 #
coedge $-1 $163 $163 $259 $260 reversed $102 $-1 #
face $-1 $261 $262 $56 $-1 $263 reversed single #
loop $-1 $-1 $264 $104 #
plane-surface $-1 15.051150816224109 -37.681150423542618 1.4565859837315713 0 -0.75470958851134928 0.65605901945558964 1 0 0 forward_v I I I I #
coedge $-1 $265 $266 $267 $268 reversed $105 $-1 #
face $-1 $-1 $269 $57 $-1 $270 forward single #
loop $-1 $271 $272 $107 #
cone-surface $-1 11.042332175065482 -30.765109200028089 4.397715752006798 0 0.75470958851134928 -0.65605901945558964 1 0 0 1 I I -0.70710678118654746 0.70710678118654746 1 forward I I I I #
loop $-1 $-1 $273 $73 #
coedge $-1 $172 $172 $274 $275 reversed $108 $-1 #
face $-1 $-1 $276 $58 $-1 $277 forward single #
loop $-1 $278 $279 $110 #
cone-surface $-1 19.059969457382735 -30.765109200028089 4.397715752006798 0 0.75470958851134928 -0.65605901945558964 1 0 0 1 I I -0.70710678118654746 0.70710678118654746 1 forward I I I I #
loop $-1 $-1 $280 $74 #
coedge $-1 $177 $177 $281 $282 reversed $111 $-1 #
face $-1 $283 $284 $59 $-1 $285 reversed single #
loop $-1 $-1 $286 $113 #
plane-surface $-1 45.945015306505326 -37.681150423542618 1.4565859837315713 0 -0.75470958851134928 0.65605901945558964 1 0 0 forward_v I I I I #
coedge $-1 $287 $288 $289 $290 reversed $114 $-1 #
face $-1 $-1 $291 $60 $-1 $292 forward single #
loop $-1 $293 $294 $116 #
cone-surface $-1 41.936196665346699 -30.765109200028089 4.397715752006798 0 0.75470958851134928 -0.65605901945558964 1 0 0 1 I I -0.70710678118654746 0.70710678118654746 1 forward I I I I #
loop $-1 $-1 $295 $76 #
coedge $-1 $186 $186 $296 $297 reversed $117 $-1 #
face $-1 $-1 $298 $61 $-1 $299 forward single #
loop $-1 $300 $301 $119 #
cone-surface $-1 49.953833947663952 -30.765109200028089 4.397715752006798 0 0.75470958851134928 -0.65605901945558964 1 0 0 1 I I -0.70710678118654746 0.70710678118654746 1 forward I I I I #
loop $-1 $-1 $302 $77 #
coedge $-1 $191 $191 $303 $304 reversed $120 $-1 #
face $-1 $305 $306 $62 $-1 $307 reversed single #
loop $-1 $-1 $308 $122 #
plane-surface $-1 -0.13232373087174665 -12.746070945743966 56.10997661220955 0 0.74314483375859142 0.66913059716165679 1 0 0 forward_v I I I I #
coedge $-1 $309 $310 $311 $312 reversed $123 $-1 #
face $-1 $-1 $313 $63 $-1 $314 forward single #
loop $-1 $315 $316 $125 #
cone-surface $-1 -0.13232373087174665 24.43839181987731 -1.3611912338724874 0 -0.74314483375859142 -0.66913059716165679 1.5 0 0 1 I I -0.70710678118654757 0.70710678118654757 1.5 forward I I I I #
loop $-1 $-1 $317 $79 #
coedge $-1 $200 $200 $318 $319 reversed $126 $-1 #
face $-1 $320 $321 $48 $-1 $322 reversed single #
loop $-1 $-1 $323 $128 #
plane-surface $-1 0 -37.681150423542604 0 0 1 0 0 0 1 forward_v I I I I #
coedge $-1 $324 $325 $326 $327 forward $129 $-1 #
coedge $-1 $328 $131 $329 $330 forward $81 $-1 #
coedge $-1 $131 $328 $331 $332 forward $81 $-1 #
coedge $-1 $333 $334 $131 $208 reversed $335 $-1 #
edge $-1 $336 -37.681150423542604 $337 37.681150423542604 $207 $338 forward 7 unknown #
face $-1 $339 $340 $49 $-1 $341 reversed single #
loop $-1 $-1 $342 $132 #
plane-surface $-1 0 0 11.655776737202087 0 0 1 1 0 0 forward_v I I I I #
coedge $-1 $343 $344 $345 $346 forward $133 $-1 #
coedge $-1 $345 $135 $347 $348 reversed $84 $-1 #
coedge $-1 $135 $345 $342 $349 reversed $84 $-1 #
coedge $-1 $350 $351 $135 $216 forward $352 $-1 #
edge $-1 $353 -11.655776737202087 $354 11.655776737202087 $215 $355 forward 7 unknown #
face $-1 $356 $357 $50 $-1 $358 forward single #
loop $-1 $-1 $359 $136 #
plane-surface $-1 0 0 11.655776737202087 0 0 1 1 0 0 forward_v I I I I #
coedge $-1 $360 $361 $362 $363 reversed $137 $-1 #
coedge $-1 $364 $139 $365 $366 reversed $87 $-1 #
coedge $-1 $139 $364 $360 $367 forward $87 $-1 #
coedge $-1 $362 $368 $139 $224 forward $369 $-1 #
edge $-1 $370 -32.722199244872634 $371 -14.014378919465699 $223 $372 forward 7 unknown #
loop $-1 $-1 $230 $140 #
plane-surface $-1 -46.736578164338326 -37.681150423542618 1.4565859837315713 0 -0.75470958851134928 0.65605901945558964 1 0 0 forward_v I I I I #
loop $-1 $-1 $373 $89 #
coedge $-1 $228 $228 $229 $374 reversed $141 $-1 #
coedge $-1 $229 $229 $228 $374 forward $143 $-1 #
coedge $-1 $230 $230 $144 $231 forward $225 $-1 #
edge $-1 $375 -6.8563561093412139e-016 $375 6.2831853071795996 $230 $376 forward 7 unknown #
loop $-1 $-1 $237 $145 #
plane-surface $-1 -46.736578164338326 -37.681150423542618 1.4565859837315713 0 -0.75470958851134928 0.65605901945558964 1 0 0 forward_v I I I I #
loop $-1 $-1 $377 $92 #
coedge $-1 $235 $235 $236 $378 reversed $146 $-1 #
coedge $-1 $236 $236 $235 $378 forward $148 $-1 #
coedge $-1 $237 $237 $149 $238 forward $232 $-1 #
edge $-1 $379 -6.8563561093412139e-016 $379 6.2831853071795996 $237 $380 forward 7 unknown #
face $-1 $381 $382 $53 $-1 $383 forward single #
loop $-1 $-1 $384 $150 #
plane-surface $-1 -25.196623836760573 -139.5442577500221 90.004831995985143 1 0 0 0 0.75470958851134928 -0.65605901945558964 forward_v I I I I #
coedge $-1 $385 $386 $387 $388 reversed $151 $-1 #
coedge $-1 $244 $153 $389 $390 reversed $96 $-1 #
coedge $-1 $153 $243 $385 $391 reversed $96 $-1 #
coedge $-1 $387 $392 $153 $246 forward $382 $-1 #
edge $-1 $393 32.090978451468445 $394 40.956999483691952 $245 $395 forward 7 unknown #
loop $-1 $-1 $252 $154 #
plane-surface $-1 -15.842713674057109 -37.681150423542618 1.4565859837315713 0 -0.75470958851134928 0.65605901945558964 1 0 0 forward_v I I I I #
loop $-1 $-1 $396 $98 #
coedge $-1 $250 $250 $251 $397 reversed $155 $-1 #
coedge $-1 $251 $251 $250 $397 forward $157 $-1 #
coedge $-1 $252 $252 $158 $253 forward $247 $-1 #
edge $-1 $398 -6.8563561093412139e-016 $398 6.2831853071795996 $252 $399 forward 7 unknown #
loop $-1 $-1 $259 $159 #
plane-surface $-1 -15.842713674057109 -37.681150423542618 1.4565859837315713 0 -0.75470958851134928 0.65605901945558964 1 0 0 forward_v I I I I #
loop $-1 $-1 $400 $101 #
coedge $-1 $257 $257 $258 $401 reversed $160 $-1 #
coedge $-1 $258 $258 $257 $401 forward $162 $-1 #
coedge $-1 $259 $259 $163 $260 forward $254 $-1 #
edge $-1 $402 -6.8563561093412139e-016 $402 6.2831853071795996 $259 $403 forward 7 unknown #
face $-1 $404 $405 $56 $-1 $406 reversed single #
loop $-1 $-1 $407 $164 #
plane-surface $-1 5.6972406535206446 -139.5442577500221 90.004831995985143 1 0 0 0 0.75470958851134928 -0.65605901945558964 forward_v I I I I #
coedge $-1 $408 $409 $410 $411 reversed $165 $-1 #
coedge $-1 $266 $167 $412 $413 reversed $105 $-1 #
coedge $-1 $167 $265 $408 $414 reversed $105 $-1 #
coedge $-1 $410 $415 $167 $268 forward $416 $-1 #
edge $-1 $417 32.090978451468445 $418 40.956999483691952 $267 $419 forward 7 unknown #
loop $-1 $-1 $274 $168 #
plane-surface $-1 15.051150816224109 -37.681150423542618 1.4565859837315713 0 -0.75470958851134928 0.65605901945558964 1 0 0 forward_v I I I I #
loop $-1 $-1 $420 $107 #
coedge $-1 $272 $272 $273 $421 reversed $169 $-1 #
coedge $-1 $273 $273 $272 $421 forward $171 $-1 #
coedge $-1 $274 $274 $172 $275 forward $269 $-1 #
edge $-1 $422 -6.8563561093412139e-016 $422 6.2831853071795996 $274 $423 forward 7 unknown #
loop $-1 $-1 $281 $173 #
plane-surface $-1 15.051150816224109 -37.681150423542618 1.4565859837315713 0 -0.75470958851134928 0.65605901945558964 1 0 0 forward_v I I I I #
loop $-1 $-1 $424 $110 #
coedge $-1 $279 $279 $280 $425 reversed $174 $-1 #
coedge $-1 $280 $280 $279 $425 forward $176 $-1 #
coedge $-1 $281 $281 $177 $282 forward $276 $-1 #
edge $-1 $426 -6.8563561093412139e-016 $426 6.2831853071795996 $281 $427 forward 7 unknown #
face $-1 $428 $429 $59 $-1 $430 reversed single #
loop $-1 $-1 $431 $178 #
plane-surface $-1 36.591105143801862 -139.5442577500221 90.004831995985143 1 0 0 0 0.75470958851134928 -0.65605901945558964 forward_v I I I I #
coedge $-1 $432 $433 $434 $435 reversed $179 $-1 #
coedge $-1 $288 $181 $436 $437 reversed $114 $-1 #
coedge $-1 $181 $287 $432 $438 reversed $114 $-1 #
coedge $-1 $434 $439 $181 $290 forward $440 $-1 #
edge $-1 $441 32.090978451468445 $442 40.956999483691952 $289 $443 forward 7 unknown #
loop $-1 $-1 $296 $182 #
plane-surface $-1 45.945015306505326 -37.681150423542618 1.4565859837315713 0 -0.75470958851134928 0.65605901945558964 1 0 0 forward_v I I I I #
loop $-1 $-1 $444 $116 #
coedge $-1 $294 $294 $295 $445 reversed $183 $-1 #
coedge $-1 $295 $295 $294 $445 forward $185 $-1 #
coedge $-1 $296 $296 $186 $297 forward $291 $-1 #
edge $-1 $446 -6.8563561093412139e-016 $446 6.2831853071795996 $296 $447 forward 7 unknown #
loop $-1 $-1 $303 $187 #
plane-surface $-1 45.945015306505326 -37.681150423542618 1.4565859837315713 0 -0.75470958851134928 0.65605901945558964 1 0 0 forward_v I I I I #
loop $-1 $-1 $448 $119 #
coedge $-1 $301 $301 $302 $449 reversed $188 $-1 #
coedge $-1 $302 $302 $301 $449 forward $190 $-1 #
coedge $-1 $303 $303 $191 $304 forward $298 $-1 #
edge $-1 $450 -6.8563561093412139e-016 $450 6.2831853071795996 $303 $451 forward 7 unknown #
face $-1 $452 $453 $62 $-1 $454 reversed single #
loop $-1 $-1 $455 $192 #
plane-surface $-1 6.4620507012680584 87.556142134104547 146.42249267359011 -1 0 0 0 0.74314483375859142 0.66913059716165679 forward_v I I I I #
coedge $-1 $456 $457 $458 $459 reversed $193 $-1 #
coedge $-1 $310 $195 $460 $461 reversed $123 $-1 #
coedge $-1 $195 $309 $456 $462 reversed $123 $-1 #
coedge $-1 $458 $463 $195 $312 forward $464 $-1 #
edge $-1 $465 6.0969206435096694 $466 16.497401655518601 $311 $467 forward 7 unknown #
loop $-1 $-1 $318 $196 #
plane-surface $-1 -0.13232373087174665 -12.746070945743966 56.10997661220955 0 0.74314483375859142 0.66913059716165679 1 0 0 forward_v I I I I #
loop $-1 $-1 $468 $125 #
coedge $-1 $316 $316 $317 $469 reversed $197 $-1 #
coedge $-1 $317 $317 $316 $469 forward $199 $-1 #
coedge $-1 $318 $318 $200 $319 forward $313 $-1 #
edge $-1 $470 -8.8006027207469067e-016 $470 6.2831853071795996 $318 $471 forward 7 unknown #
face $-1 $472 $473 $48 $-1 $474 reversed single #
loop $-1 $-1 $475 $201 #
plane-surface $-1 -67.484969634083072 0 0 1 0 0 0 0 -1 forward_v I I I I #
coedge $-1 $476 $331 $477 $478 forward $202 $-1 #
coedge $-1 $479 $204 $476 $480 forward $129 $-1 #
coedge $-1 $204 $479 $481 $482 forward $129 $-1 #
coedge $-1 $334 $333 $204 $327 reversed $335 $-1 #
edge $-1 $483 -37.681150423542604 $484 37.681150423542604 $326 $485 forward 7 unknown #
coedge $-1 $206 $205 $486 $487 forward $81 $-1 #
coedge $-1 $488 $489 $205 $330 reversed $473 $-1 #
edge $-1 $337 -67.484969634083072 $490 67.484969634083072 $329 $491 forward 7 unknown #
coedge $-1 $323 $492 $206 $332 reversed $202 $-1 #
edge $-1 $493 -67.484969634083072 $336 67.484969634083072 $331 $494 forward 7 unknown #
coedge $-1 $326 $207 $492 $495 forward $335 $-1 #
coedge $-1 $207 $326 $488 $496 reversed $335 $-1 #
loop $-1 $-1 $333 $472 #
vertex $-1 $208 $497 #
vertex $-1 $208 $498 #
straight-curve $-1 67.484969634083072 0 11.655776737202087 0 1 0 I I #
face $-1 $499 $500 $49 $-1 $501 reversed single #
loop $-1 $-1 $502 $209 #
plane-surface $-1 -67.484969634083072 0 0 1 0 0 0 0 -1 forward_v I I I I #
coedge $-1 $503 $504 $214 $349 forward $210 $-1 #
coedge $-1 $505 $212 $506 $507 reversed $133 $-1 #
coedge $-1 $212 $505 $503 $508 reversed $133 $-1 #
coedge $-1 $214 $213 $212 $346 reversed $84 $-1 #
edge $-1 $509 -11.655776737202087 $510 11.655776737202087 $345 $511 forward 7 unknown #
coedge $-1 $512 $506 $213 $348 forward $500 $-1 #
edge $-1 $510 16.552977402752788 $353 19.603107814777474 $347 $513 forward 7 unknown #
edge $-1 $354 -19.603107814777474 $509 -16.552977402752788 $342 $514 forward 7 unknown #
coedge $-1 $515 $215 $504 $516 reversed $352 $-1 #
coedge $-1 $215 $515 $512 $517 reversed $352 $-1 #
loop $-1 $-1 $215 $499 #
vertex $-1 $517 $518 #
vertex $-1 $216 $519 #
straight-curve $-1 -56.090488327041797 -37.681150423542604 0 0 0 1 I I #
face $-1 $-1 $369 $50 $-1 $520 reversed single #
loop $-1 $-1 $365 $217 #
plane-surface $-1 -56.090488327041797 -36.156085217530261 0 -1 0 0 0 0 1 forward_v I I I I #
coedge $-1 $521 $522 $361 $523 forward $218 $-1 #
coedge $-1 $361 $220 $222 $367 reversed $137 $-1 #
coedge $-1 $220 $360 $359 $523 reversed $137 $-1 #
coedge $-1 $524 $223 $220 $363 forward $369 $-1 #
edge $-1 $371 -43.545830014260986 $525 -33.346639260790482 $362 $526 forward 7 unknown #
coedge $-1 $222 $221 $521 $527 reversed $87 $-1 #
coedge $-1 $528 $529 $221 $366 forward $357 $-1 #
edge $-1 $530 -13.563443433949265 $370 -0.049383312375594873 $365 $531 forward 7 unknown #
edge $-1 $532 -13.514060121573694 $371 -2.1724019648727301e-014 $360 $533 forward 7 unknown #
coedge $-1 $223 $524 $528 $534 forward $369 $-1 #
loop $-1 $-1 $362 $356 #
vertex $-1 $366 $535 #
vertex $-1 $224 $536 #
straight-curve $-1 -23.368289082169163 -37.681150423542604 1.456585983731584 1 0 0 I I #
coedge $-1 $373 $373 $-1 $537 reversed $227 $-1 #
edge $-1 $538 0 $538 6.2831853071796004 $228 $539 forward 7 unknown #
vertex $-1 $231 $540 #
ellipse-curve $-1 -50.745396805496952 -33.248139907430847 6.5561813604668364 0 -0.75470958851134928 0.65605901945558964 2 0 0 1 I I #
coedge $-1 $377 $377 $-1 $541 reversed $234 $-1 #
edge $-1 $542 0 $542 6.2831853071796004 $235 $543 forward 7 unknown #
vertex $-1 $238 $544 #
ellipse-curve $-1 -42.727759523179699 -33.248139907430847 6.5561813604668364 0 -0.75470958851134928 0.65605901945558964 2 0 0 1 I I #
face $-1 $-1 $545 $53 $-1 $546 reversed single #
loop $-1 $-1 $245 $239 #
plane-surface $-1 0 0 11.655776737202087 0 0 1 1 0 0 forward_v I I I I #
coedge $-1 $547 $548 $549 $550 reversed $240 $-1 #
coedge $-1 $551 $242 $244 $391 forward $151 $-1 #
coedge $-1 $242 $551 $547 $552 forward $151 $-1 #
coedge $-1 $549 $245 $242 $388 forward $382 $-1 #
edge $-1 $394 -1.4325533256749097 $553 17.275266999732018 $387 $554 forward 7 unknown #
coedge $-1 $555 $556 $243 $390 forward $545 $-1 #
edge $-1 $557 -43.545830014260986 $393 -33.346639260790482 $389 $558 forward 7 unknown #
edge $-1 $394 -13.514060121573694 $557 -2.1724019648727301e-014 $244 $559 forward 7 unknown #
coedge $-1 $245 $549 $555 $560 forward $382 $-1 #
vertex $-1 $390 $561 #
vertex $-1 $246 $562 #
straight-curve $-1 -6.4888035113536446 -69.772128875011049 11.655776737202089 0 1 0 I I #
coedge $-1 $396 $396 $-1 $563 reversed $249 $-1 #
edge $-1 $564 0 $564 6.2831853071796004 $250 $565 forward 7 unknown #
vertex $-1 $253 $566 #
ellipse-curve $-1 -19.851532315215735 -33.248139907430847 6.5561813604668364 0 -0.75470958851134928 0.65605901945558964 2 0 0 1 I I #
coedge $-1 $400 $400 $-1 $567 reversed $256 $-1 #
edge $-1 $568 0 $568 6.2831853071796004 $257 $569 forward 7 unknown #
vertex $-1 $260 $570 #
ellipse-curve $-1 -11.833895032898482 -33.248139907430847 6.5561813604668364 0 -0.75470958851134928 0.65605901945558964 2 0 0 1 I I #
face $-1 $-1 $416 $56 $-1 $571 forward single #
loop $-1 $-1 $572 $261 #
plane-surface $-1 0 -37.681150423542604 0 0 1 0 0 0 1 forward_v I I I I #
coedge $-1 $573 $574 $575 $576 reversed $262 $-1 #
coedge $-1 $577 $264 $266 $414 forward $165 $-1 #
coedge $-1 $264 $577 $573 $578 forward $165 $-1 #
coedge $-1 $575 $267 $264 $411 forward $416 $-1 #
edge $-1 $418 -16.879485570815518 $579 1.8283347545914097 $410 $580 forward 7 unknown #
coedge $-1 $581 $582 $265 $413 forward $405 $-1 #
edge $-1 $583 -43.545830014260986 $417 -33.346639260790482 $412 $584 forward 7 unknown #
edge $-1 $418 -13.514060121573694 $583 -2.1724019648727301e-014 $266 $585 forward 7 unknown #
coedge $-1 $267 $575 $581 $586 forward $416 $-1 #
loop $-1 $-1 $575 $404 #
vertex $-1 $413 $587 #
vertex $-1 $268 $588 #
straight-curve $-1 24.405060978927573 -69.772128875011049 11.655776737202089 0 1 0 I I #
coedge $-1 $420 $420 $-1 $589 reversed $271 $-1 #
edge $-1 $590 0 $590 6.2831853071796004 $272 $591 forward 7 unknown #
vertex $-1 $275 $592 #
ellipse-curve $-1 11.042332175065482 -33.248139907430847 6.5561813604668364 0 -0.75470958851134928 0.65605901945558964 2 0 0 1 I I #
coedge $-1 $424 $424 $-1 $593 reversed $278 $-1 #
edge $-1 $594 0 $594 6.2831853071796004 $279 $595 forward 7 unknown #
vertex $-1 $282 $596 #
ellipse-curve $-1 19.059969457382735 -33.248139907430847 6.5561813604668364 0 -0.75470958851134928 0.65605901945558964 2 0 0 1 I I #
face $-1 $-1 $440 $59 $-1 $597 forward single #
loop $-1 $-1 $598 $283 #
plane-surface $-1 0 -37.681150423542604 0 0 1 0 0 0 1 forward_v I I I I #
coedge $-1 $599 $600 $601 $602 reversed $284 $-1 #
coedge $-1 $603 $286 $288 $438 forward $179 $-1 #
coedge $-1 $286 $603 $599 $604 forward $179 $-1 #
coedge $-1 $601 $289 $286 $435 forward $440 $-1 #
edge $-1 $442 -32.326417815956127 $605 -13.618597490549199 $434 $606 forward 7 unknown #
coedge $-1 $607 $608 $287 $437 forward $429 $-1 #
edge $-1 $609 -43.545830014260986 $441 -33.346639260790482 $436 $610 forward 7 unknown #
edge $-1 $442 -13.514060121573694 $609 -2.1724019648727301e-014 $288 $611 forward 7 unknown #
coedge $-1 $289 $601 $607 $612 forward $440 $-1 #
loop $-1 $-1 $601 $428 #
vertex $-1 $437 $613 #
vertex $-1 $290 $614 #
straight-curve $-1 55.29892546920879 -69.772128875011049 11.655776737202089 0 1 0 I I #
coedge $-1 $444 $444 $-1 $615 reversed $293 $-1 #
edge $-1 $616 0 $616 6.2831853071796004 $294 $617 forward 7 unknown #
vertex $-1 $297 $618 #
ellipse-curve $-1 41.936196665346699 -33.248139907430847 6.5561813604668364 0 -0.75470958851134928 0.65605901945558964 2 0 0 1 I I #
coedge $-1 $448 $448 $-1 $619 reversed $300 $-1 #
edge $-1 $620 0 $620 6.2831853071796004 $301 $621 forward 7 unknown #
vertex $-1 $304 $622 #
ellipse-curve $-1 49.953833947663952 -33.248139907430847 6.5561813604668364 0 -0.75470958851134928 0.65605901945558964 2 0 0 1 I I #
face $-1 $-1 $464 $62 $-1 $623 forward single #
loop $-1 $-1 $624 $305 #
plane-surface $-1 0 37.681150423542604 0 0 -1 0 0 0 -1 forward_v I I I I #
coedge $-1 $625 $626 $627 $628 reversed $306 $-1 #
coedge $-1 $629 $308 $310 $462 forward $193 $-1 #
coedge $-1 $308 $629 $625 $630 forward $193 $-1 #
coedge $-1 $627 $311 $308 $459 forward $464 $-1 #
edge $-1 $466 -6.6605362975756783 $631 6.5282125667039317 $458 $632 forward 7 unknown #
coedge $-1 $633 $634 $309 $461 forward $453 $-1 #
edge $-1 $635 -73.106374259257606 $465 -61.555469599592968 $460 $636 forward 7 unknown #
edge $-1 $466 59.81902565368339 $635 75.362300847085208 $310 $637 forward 7 unknown #
coedge $-1 $311 $627 $633 $638 forward $464 $-1 #
loop $-1 $-1 $627 $452 #
vertex $-1 $461 $639 #
vertex $-1 $312 $640 #
straight-curve $-1 -6.7266981630115517 43.778071067052274 11.655776737202089 0 -1 0 I I #
coedge $-1 $468 $468 $-1 $641 reversed $315 $-1 #
edge $-1 $642 0 $642 6.2831853071796004 $316 $643 forward 7 unknown #
vertex $-1 $319 $644 #
ellipse-curve $-1 -0.13232373087174665 32.480909917538135 5.8803244073697707 0 0.74314483375859142 0.66913059716165679 3 0 0 1 I I #
face $-1 $-1 $335 $48 $-1 $645 reversed single #
loop $-1 $-1 $488 $320 #
plane-surface $-1 0 37.681150423542604 0 0 -1 0 0 0 -1 forward_v I I I I #
coedge $-1 $646 $486 $489 $647 forward $321 $-1 #
coedge $-1 $492 $323 $324 $480 reversed $202 $-1 #
coedge $-1 $486 $646 $323 $478 reversed $321 $-1 #
edge $-1 $493 -11.655776737202087 $648 11.655776737202087 $477 $649 forward 7 unknown #
coedge $-1 $325 $324 $646 $650 forward $129 $-1 #
edge $-1 $484 -67.484969634083072 $648 67.484969634083072 $476 $651 forward 7 unknown #
coedge $-1 $489 $488 $325 $482 reversed $473 $-1 #
edge $-1 $652 -67.484969634083072 $483 67.484969634083072 $481 $653 forward 7 unknown #
vertex $-1 $327 $654 #
vertex $-1 $495 $655 #
straight-curve $-1 67.484969634083072 0 -11.655776737202087 0 -1 0 I I #
coedge $-1 $475 $477 $328 $487 reversed $321 $-1 #
edge $-1 $490 -37.681150423542604 $493 37.681150423542604 $486 $656 forward 7 unknown #
coedge $-1 $481 $329 $334 $496 forward $473 $-1 #
coedge $-1 $329 $481 $475 $647 reversed $473 $-1 #
vertex $-1 $330 $657 #
straight-curve $-1 0 37.681150423542604 11.655776737202087 -1 0 0 I I #
coedge $-1 $331 $476 $333 $495 reversed $202 $-1 #
vertex $-1 $487 $658 #
straight-curve $-1 0 -37.681150423542604 11.655776737202087 1 0 0 I I #
edge $-1 $336 -11.655776737202087 $484 11.655776737202087 $333 $659 forward 7 unknown #
edge $-1 $337 -11.655776737202087 $483 11.655776737202087 $334 $660 forward 7 unknown #
point $-1 67.484969634083072 -37.681150423542604 11.655776737202087 #
point $-1 67.484969634083072 37.681150423542604 11.655776737202087 #
face $-1 $-1 $352 $49 $-1 $661 reversed single #
loop $-1 $-1 $347 $339 #
plane-surface $-1 0 0 -11.655776737202087 0 0 1 1 0 0 forward_v I I I I #
coedge $-1 $662 $663 $505 $664 forward $340 $-1 #
coedge $-1 $665 $342 $344 $508 forward $210 $-1 #
coedge $-1 $342 $665 $350 $516 forward $210 $-1 #
coedge $-1 $344 $343 $502 $664 reversed $133 $-1 #
coedge $-1 $347 $666 $343 $507 forward $500 $-1 #
edge $-1 $667 -36.591105143801855 $510 -25.19662383676058 $506 $668 forward 7 unknown #
edge $-1 $509 25.19662383676058 $669 36.591105143801855 $503 $670 forward 7 unknown #
vertex $-1 $508 $671 #
vertex $-1 $507 $672 #
straight-curve $-1 -56.090488327041797 -34.631020011517919 0 0 0 -1 I I #
coedge $-1 $666 $347 $351 $517 forward $500 $-1 #
straight-curve $-1 -56.090488327041797 -18.078042608765131 -11.655776737202087 0 -1 0 I I #
straight-curve $-1 -56.090488327041797 -18.078042608765131 11.655776737202087 0 1 0 I I #
coedge $-1 $351 $350 $673 $674 forward $352 $-1 #
edge $-1 $675 -67.484969634083072 $354 -56.090488327041797 $350 $676 forward 7 unknown #
edge $-1 $353 56.090488327041797 $677 67.484969634083072 $351 $678 forward 7 unknown #
point $-1 -56.090488327041797 -37.681150423542604 -11.655776737202087 #
point $-1 -56.090488327041797 -37.681150423542604 11.655776737202087 #
plane-surface $-1 0 -37.681150423542604 0 0 1 0 0 0 1 forward_v I I I I #
coedge $-1 $679 $359 $364 $527 forward $218 $-1 #
coedge $-1 $359 $679 $524 $680 forward $218 $-1 #
edge $-1 $525 32.090978451468445 $532 40.956999483691952 $359 $681 forward 7 unknown #
coedge $-1 $368 $362 $522 $680 reversed $369 $-1 #
vertex $-1 $523 $682 #
straight-curve $-1 -37.382668001634862 -37.681150423542604 45.002415997992571 0 0 1 I I #
edge $-1 $532 14.014378919465699 $530 32.722199244872627 $521 $683 forward 7 unknown #
coedge $-1 $529 $365 $368 $534 reversed $357 $-1 #
coedge $-1 $365 $528 $679 $684 reversed $357 $-1 #
vertex $-1 $684 $685 #
straight-curve $-1 -56.090488327041797 -37.713548791037205 1.4193159243692741 0 -0.65605901945558975 -0.75470958851134939 I I #
vertex $-1 $527 $686 #
straight-curve $-1 -37.382668001634862 -37.681150423542618 1.4565859837315713 0 -0.65605901945558964 -0.75470958851134928 I I #
edge $-1 $687 -11.655776737202087 $370 -1.4565859837315878 $368 $688 forward 7 unknown #
point $-1 -56.090488327041797 -37.681150423542604 1.4565859837315878 #
point $-1 -37.382668001634862 -37.681150423542604 1.4565859837315878 #
edge $-1 $689 1 $689 0 $373 $-1 forward 7 unknown #
vertex $-1 $374 $690 #
ellipse-curve $-1 -50.745396805496952 -31.519818788539439 5.053774771462388 0 -0.75470958851134928 0.65605901945558964 2 0 0 1 I I #
point $-1 -48.745396805496952 -33.24813990743084 6.5561813604668284 #
edge $-1 $691 1 $691 0 $377 $-1 forward 7 unknown #
vertex $-1 $378 $692 #
ellipse-curve $-1 -42.727759523179699 -31.519818788539439 5.053774771462388 0 -0.75470958851134928 0.65605901945558964 2 0 0 1 I I #
point $-1 -40.727759523179699 -33.24813990743084 6.5561813604668284 #
loop $-1 $-1 $389 $381 #
plane-surface $-1 0 -37.681150423542604 0 0 1 0 0 0 1 forward_v I I I I #
coedge $-1 $548 $384 $386 $552 reversed $240 $-1 #
coedge $-1 $384 $547 $693 $694 reversed $240 $-1 #
coedge $-1 $392 $387 $384 $550 forward $382 $-1 #
edge $-1 $553 -40.956999483691952 $695 -32.090978451468445 $549 $696 forward 7 unknown #
coedge $-1 $386 $385 $556 $697 reversed $151 $-1 #
edge $-1 $698 2.1724019648727301e-014 $553 13.514060121573694 $547 $699 forward 7 unknown #
vertex $-1 $388 $700 #
straight-curve $-1 -7.9213568370285543 -28.815129391319097 11.655776737202087 -1 0 0 I I #
coedge $-1 $693 $389 $392 $560 reversed $545 $-1 #
coedge $-1 $389 $693 $551 $697 forward $545 $-1 #
vertex $-1 $390 $701 #
straight-curve $-1 -6.4888035113536446 -37.681150423542604 45.002415997992571 0 0 1 I I #
straight-curve $-1 -6.4888035113536446 -37.681150423542618 1.4565859837315713 0 -0.65605901945558964 -0.75470958851134928 I I #
edge $-1 $695 -25.196623836760573 $393 -6.4888035113536446 $555 $702 forward 7 unknown #
point $-1 -6.4888035113536446 -37.681150423542604 11.655776737202087 #
point $-1 -6.4888035113536446 -28.815129391319097 11.655776737202087 #
edge $-1 $703 1 $703 0 $396 $-1 forward 7 unknown #
vertex $-1 $397 $704 #
ellipse-curve $-1 -19.851532315215735 -31.519818788539439 5.053774771462388 0 -0.75470958851134928 0.65605901945558964 2 0 0 1 I I #
point $-1 -17.851532315215735 -33.24813990743084 6.5561813604668284 #
edge $-1 $705 1 $705 0 $400 $-1 forward 7 unknown #
vertex $-1 $401 $706 #
ellipse-curve $-1 -11.833895032898482 -31.519818788539439 5.053774771462388 0 -0.75470958851134928 0.65605901945558964 2 0 0 1 I I #
point $-1 -9.8338950328984822 -33.24813990743084 6.5561813604668284 #
plane-surface $-1 0 0 11.655776737202087 0 0 1 1 0 0 forward_v I I I I #
coedge $-1 $582 $581 $574 $707 forward $405 $-1 #
coedge $-1 $574 $407 $409 $578 reversed $262 $-1 #
coedge $-1 $407 $573 $572 $707 reversed $262 $-1 #
coedge $-1 $415 $410 $407 $576 forward $416 $-1 #
edge $-1 $579 -40.956999483691952 $708 -32.090978451468445 $575 $709 forward 7 unknown #
coedge $-1 $409 $408 $582 $710 reversed $165 $-1 #
edge $-1 $711 2.1724019648727301e-014 $579 13.514060121573694 $573 $712 forward 7 unknown #
vertex $-1 $411 $713 #
straight-curve $-1 7.5255754081120543 -28.815129391319097 11.655776737202087 -1 0 0 I I #
coedge $-1 $572 $412 $415 $586 reversed $405 $-1 #
coedge $-1 $412 $572 $577 $710 forward $405 $-1 #
vertex $-1 $413 $714 #
straight-curve $-1 24.405060978927573 -37.681150423542604 45.002415997992571 0 0 1 I I #
straight-curve $-1 24.405060978927573 -37.681150423542618 1.4565859837315713 0 -0.65605901945558964 -0.75470958851134928 I I #
edge $-1 $708 5.6972406535206446 $417 24.405060978927573 $581 $715 forward 7 unknown #
point $-1 24.405060978927573 -37.681150423542604 11.655776737202087 #
point $-1 24.405060978927573 -28.815129391319097 11.655776737202087 #
edge $-1 $716 1 $716 0 $420 $-1 forward 7 unknown #
vertex $-1 $421 $717 #
ellipse-curve $-1 11.042332175065482 -31.519818788539439 5.053774771462388 0 -0.75470958851134928 0.65605901945558964 2 0 0 1 I I #
point $-1 13.042332175065482 -33.24813990743084 6.5561813604668284 #
edge $-1 $718 1 $718 0 $424 $-1 forward 7 unknown #
vertex $-1 $425 $719 #
ellipse-curve $-1 19.059969457382735 -31.519818788539439 5.053774771462388 0 -0.75470958851134928 0.65605901945558964 2 0 0 1 I I #
point $-1 21.059969457382735 -33.24813990743084 6.5561813604668284 #
plane-surface $-1 0 0 11.655776737202087 0 0 1 1 0 0 forward_v I I I I #
coedge $-1 $608 $607 $600 $720 forward $429 $-1 #
coedge $-1 $600 $431 $433 $604 reversed $284 $-1 #
coedge $-1 $431 $599 $598 $720 reversed $284 $-1 #
coedge $-1 $439 $434 $431 $602 forward $440 $-1 #
edge $-1 $605 -40.956999483691952 $721 -32.090978451468445 $601 $722 forward 7 unknown #
coedge $-1 $433 $432 $608 $723 reversed $179 $-1 #
edge $-1 $724 2.1724019648727301e-014 $605 13.514060121573694 $599 $725 forward 7 unknown #
vertex $-1 $435 $726 #
straight-curve $-1 22.972507653252663 -28.815129391319097 11.655776737202087 -1 0 0 I I #
coedge $-1 $598 $436 $439 $612 reversed $429 $-1 #
coedge $-1 $436 $598 $603 $723 forward $429 $-1 #
vertex $-1 $437 $727 #
straight-curve $-1 55.29892546920879 -37.681150423542604 45.002415997992571 0 0 1 I I #
straight-curve $-1 55.29892546920879 -37.681150423542618 1.4565859837315713 0 -0.65605901945558964 -0.75470958851134928 I I #
edge $-1 $721 36.591105143801862 $441 55.29892546920879 $607 $728 forward 7 unknown #
point $-1 55.29892546920879 -37.681150423542604 11.655776737202087 #
point $-1 55.29892546920879 -28.815129391319097 11.655776737202087 #
edge $-1 $729 1 $729 0 $444 $-1 forward 7 unknown #
vertex $-1 $445 $730 #
ellipse-curve $-1 41.936196665346699 -31.519818788539439 5.053774771462388 0 -0.75470958851134928 0.65605901945558964 2 0 0 1 I I #
point $-1 43.936196665346699 -33.24813990743084 6.5561813604668284 #
edge $-1 $731 1 $731 0 $448 $-1 forward 7 unknown #
vertex $-1 $449 $732 #
ellipse-curve $-1 49.953833947663952 -31.519818788539439 5.053774771462388 0 -0.75470958851134928 0.65605901945558964 2 0 0 1 I I #
point $-1 51.953833947663952 -33.24813990743084 6.5561813604668284 #
plane-surface $-1 0 0 11.655776737202087 0 0 1 1 0 0 forward_v I I I I #
coedge $-1 $634 $633 $626 $733 forward $453 $-1 #
coedge $-1 $626 $455 $457 $630 reversed $306 $-1 #
coedge $-1 $455 $625 $624 $733 reversed $306 $-1 #
coedge $-1 $463 $458 $455 $628 forward $464 $-1 #
edge $-1 $631 -16.497401655518601 $734 -6.0969206435096694 $627 $735 forward 7 unknown #
coedge $-1 $457 $456 $634 $736 reversed $193 $-1 #
edge $-1 $737 -75.362300847085208 $631 -59.81902565368339 $625 $738 forward 7 unknown #
vertex $-1 $459 $739 #
straight-curve $-1 -0.066161865435873324 27.280669411533665 11.655776737202093 1 0 0 I I #
coedge $-1 $624 $460 $463 $638 reversed $453 $-1 #
coedge $-1 $460 $624 $629 $736 forward $453 $-1 #
vertex $-1 $461 $740 #
straight-curve $-1 -6.7266981630115517 37.681150423542604 73.211246336795057 0 0 1 I I #
straight-curve $-1 -6.7266981630115517 -12.746070945743966 56.10997661220955 0 0.66913059716165679 -0.74314483375859142 I I #
edge $-1 $734 -6.4620507012680584 $465 6.7266981630115517 $633 $741 forward 7 unknown #
point $-1 -6.7266981630115517 37.681150423542604 11.655776737202087 #
point $-1 -6.7266981630115517 27.280669411533673 11.655776737202089 #
edge $-1 $742 1 $742 0 $468 $-1 forward 7 unknown #
vertex $-1 $469 $743 #
ellipse-curve $-1 -0.13232373087174665 25.553109070515198 -0.35749533813000234 0 0.74314483375859142 0.66913059716165679 3 0 0 1 I I #
point $-1 2.8676762691282534 32.480909917538135 5.8803244073697742 #
plane-surface $-1 67.484969634083072 0 0 -1 0 0 0 0 1 forward_v I I I I #
coedge $-1 $477 $475 $479 $650 reversed $321 $-1 #
edge $-1 $490 -11.655776737202087 $652 11.655776737202087 $489 $744 forward 7 unknown #
vertex $-1 $650 $745 #
straight-curve $-1 -67.484969634083072 -37.681150423542604 0 0 0 -1 I I #
edge $-1 $648 -37.681150423542604 $652 37.681150423542604 $646 $746 forward 7 unknown #
straight-curve $-1 0 -37.681150423542604 -11.655776737202087 -1 0 0 I I #
vertex $-1 $482 $747 #
straight-curve $-1 0 37.681150423542604 -11.655776737202087 1 0 0 I I #
point $-1 67.484969634083072 37.681150423542604 -11.655776737202087 #
point $-1 67.484969634083072 -37.681150423542604 -11.655776737202087 #
straight-curve $-1 -67.484969634083072 0 11.655776737202087 0 -1 0 I I #
point $-1 -67.484969634083072 37.681150423542604 11.655776737202087 #
point $-1 -67.484969634083072 -37.681150423542604 11.655776737202087 #
straight-curve $-1 67.484969634083072 -37.681150423542604 0 0 0 -1 I I #
straight-curve $-1 67.484969634083072 37.681150423542604 0 0 0 -1 I I #
plane-surface $-1 0 -37.681150423542604 0 0 1 0 0 0 1 forward_v I I I I #
coedge $-1 $673 $502 $666 $748 reversed $340 $-1 #
coedge $-1 $502 $673 $665 $749 reversed $340 $-1 #
edge $-1 $669 -11.655776737202087 $667 11.655776737202087 $502 $750 forward 7 unknown #
coedge $-1 $504 $503 $663 $749 forward $210 $-1 #
coedge $-1 $506 $512 $662 $748 forward $500 $-1 #
vertex $-1 $507 $751 #
straight-curve $-1 -30.893864490281217 -34.631020011517919 -11.655776737202087 1 0 0 I I #
vertex $-1 $749 $752 #
straight-curve $-1 -30.893864490281217 -34.631020011517919 11.655776737202087 -1 0 0 I I #
point $-1 -56.090488327041797 -34.631020011517919 11.655776737202087 #
point $-1 -56.090488327041797 -34.631020011517919 -11.655776737202087 #
coedge $-1 $663 $662 $515 $674 reversed $340 $-1 #
edge $-1 $675 -11.655776737202087 $677 11.655776737202087 $673 $753 forward 7 unknown #
vertex $-1 $749 $754 #
straight-curve $-1 0 -37.681150423542604 11.655776737202087 1 0 0 I I #
vertex $-1 $748 $755 #
straight-curve $-1 0 -37.681150423542604 -11.655776737202087 -1 0 0 I I #
coedge $-1 $522 $521 $529 $684 forward $218 $-1 #
edge $-1 $687 -56.090488327041797 $525 -37.382668001634862 $524 $756 forward 7 unknown #
straight-curve $-1 -37.382668001634862 -69.772128875011049 11.655776737202089 0 1 0 I I #
point $-1 -37.382668001634862 -37.681150423542604 11.655776737202087 #
straight-curve $-1 -23.368289082169163 -28.815129391319097 11.655776737202087 -1 0 0 I I #
edge $-1 $530 -40.956999483691952 $687 -32.090978451468445 $679 $757 forward 7 unknown #
point $-1 -56.09048832704179 -28.815129391319097 11.655776737202087 #
point $-1 -37.382668001634862 -28.815129391319097 11.655776737202087 #
vertex $-1 $680 $758 #
straight-curve $-1 -56.090488327041797 -37.681150423542604 0 0 0 -1 I I #
vertex $-1 $537 $759 #
point $-1 -48.745396805496952 -31.519818788539439 5.053774771462388 #
vertex $-1 $541 $760 #
point $-1 -40.727759523179699 -31.519818788539439 5.053774771462388 #
coedge $-1 $556 $555 $548 $694 forward $545 $-1 #
edge $-1 $695 33.346639260790482 $698 43.545830014260986 $693 $761 forward 7 unknown #
vertex $-1 $560 $762 #
straight-curve $-1 -25.196623836760573 -69.772128875011049 11.655776737202089 0 -1 0 I I #
edge $-1 $698 -17.275266999732018 $557 1.4325533256749097 $556 $763 forward 7 unknown #
vertex $-1 $697 $764 #
straight-curve $-1 -25.196623836760573 -37.681150423542618 1.4565859837315713 0 0.65605901945558964 0.75470958851134928 I I #
point $-1 -25.196623836760573 -28.815129391319097 11.655776737202087 #
point $-1 -6.4888035113536446 -37.681150423542604 1.4565859837315878 #
straight-curve $-1 0 -37.681150423542604 11.655776737202087 1 0 0 I I #
vertex $-1 $563 $765 #
point $-1 -17.851532315215735 -31.519818788539439 5.053774771462388 #
vertex $-1 $567 $766 #
point $-1 -9.8338950328984822 -31.519818788539439 5.053774771462388 #
edge $-1 $708 33.346639260790482 $711 43.545830014260986 $572 $767 forward 7 unknown #
vertex $-1 $586 $768 #
straight-curve $-1 5.6972406535206446 -69.772128875011049 11.655776737202089 0 -1 0 I I #
edge $-1 $711 -1.8283347545914097 $583 16.879485570815518 $582 $769 forward 7 unknown #
vertex $-1 $710 $770 #
straight-curve $-1 5.6972406535206446 -37.681150423542618 1.4565859837315713 0 0.65605901945558964 0.75470958851134928 I I #
point $-1 5.6972406535206446 -28.815129391319097 11.655776737202087 #
point $-1 24.405060978927573 -37.681150423542604 1.4565859837315878 #
straight-curve $-1 0 -37.681150423542604 11.655776737202087 1 0 0 I I #
vertex $-1 $589 $771 #
point $-1 13.042332175065482 -31.519818788539439 5.053774771462388 #
vertex $-1 $593 $772 #
point $-1 21.059969457382735 -31.519818788539439 5.053774771462388 #
edge $-1 $721 33.346639260790482 $724 43.545830014260986 $598 $773 forward 7 unknown #
vertex $-1 $612 $774 #
straight-curve $-1 36.591105143801862 -69.772128875011049 11.655776737202089 0 -1 0 I I #
edge $-1 $724 13.618597490549199 $609 32.326417815956127 $608 $775 forward 7 unknown #
vertex $-1 $723 $776 #
straight-curve $-1 36.591105143801862 -37.681150423542618 1.4565859837315713 0 0.65605901945558964 0.75470958851134928 I I #
point $-1 36.591105143801862 -28.815129391319097 11.655776737202087 #
point $-1 55.29892546920879 -37.681150423542604 1.4565859837315878 #
straight-curve $-1 0 -37.681150423542604 11.655776737202087 1 0 0 I I #
vertex $-1 $615 $777 #
point $-1 43.936196665346699 -31.519818788539439 5.053774771462388 #
vertex $-1 $619 $778 #
point $-1 51.953833947663952 -31.519818788539439 5.053774771462388 #
edge $-1 $734 61.555469599592968 $737 73.106374259257606 $624 $779 forward 7 unknown #
vertex $-1 $638 $780 #
straight-curve $-1 6.4620507012680584 43.778071067052274 11.655776737202089 0 1 0 I I #
edge $-1 $737 -6.5282125667039317 $635 6.6605362975756783 $634 $781 forward 7 unknown #
vertex $-1 $736 $782 #
straight-curve $-1 6.4620507012680584 -12.746070945743966 56.10997661220955 0 -0.66913059716165679 0.74314483375859142 I I #
point $-1 6.4620507012680584 27.280669411533673 11.655776737202089 #
point $-1 -6.7266981630115517 37.681150423542604 0.10487207753745054 #
straight-curve $-1 0 37.681150423542604 11.655776737202087 -1 0 0 I I #
vertex $-1 $641 $783 #
point $-1 2.8676762691282534 25.553109070515198 -0.35749533813000234 #
straight-curve $-1 -67.484969634083072 37.681150423542604 0 0 0 -1 I I #
point $-1 -67.484969634083072 -37.681150423542604 -11.655776737202087 #
straight-curve $-1 -67.484969634083072 0 -11.655776737202087 0 1 0 I I #
point $-1 -67.484969634083072 37.681150423542604 -11.655776737202087 #
edge $-1 $677 -37.681150423542604 $667 -34.631020011517919 $662 $784 forward 7 unknown #
edge $-1 $669 34.631020011517919 $675 37.681150423542604 $663 $785 forward 7 unknown #
straight-curve $-1 -67.484969634083072 -34.631020011517919 0 0 0 -1 I I #
point $-1 -67.484969634083072 -34.631020011517919 -11.655776737202087 #
point $-1 -67.484969634083072 -34.631020011517919 11.655776737202087 #
straight-curve $-1 -67.484969634083072 -37.681150423542604 0 0 0 -1 I I #
point $-1 -67.484969634083072 -37.681150423542604 11.655776737202087 #
point $-1 -67.484969634083072 -37.681150423542604 -11.655776737202087 #
straight-curve $-1 0 -37.681150423542604 11.655776737202087 1 0 0 I I #
straight-curve $-1 -56.09048832704179 -69.772128875011049 11.655776737202089 0 -1 0 I I #
point $-1 -56.090488327041797 -37.681150423542604 11.655776737202087 #
point $-1 -50.745396805496952 -30.010399611516739 3.7416567325512085 #
point $-1 -42.727759523179699 -30.010399611516739 3.7416567325512085 #
straight-curve $-1 -25.196623836760573 -37.681150423542604 45.002415997992571 0 0 -1 I I #
point $-1 -25.196623836760573 -37.681150423542604 11.655776737202087 #
straight-curve $-1 -7.9213568370285543 -37.681150423542604 1.456585983731584 1 0 0 I I #
point $-1 -25.196623836760573 -37.681150423542604 1.4565859837315878 #
point $-1 -19.851532315215735 -30.010399611516739 3.7416567325512085 #
point $-1 -11.833895032898482 -30.010399611516739 3.7416567325512085 #
straight-curve $-1 5.6972406535206446 -37.681150423542604 45.002415997992571 0 0 -1 I I #
point $-1 5.6972406535206446 -37.681150423542604 11.655776737202087 #
straight-curve $-1 7.5255754081120543 -37.681150423542604 1.456585983731584 1 0 0 I I #
point $-1 5.6972406535206446 -37.681150423542604 1.4565859837315878 #
point $-1 11.042332175065482 -30.010399611516739 3.7416567325512085 #
point $-1 19.059969457382735 -30.010399611516739 3.7416567325512085 #
straight-curve $-1 36.591105143801862 -37.681150423542604 45.002415997992571 0 0 -1 I I #
point $-1 36.591105143801862 -37.681150423542604 11.655776737202087 #
straight-curve $-1 22.972507653252663 -37.681150423542604 1.456585983731584 1 0 0 I I #
point $-1 36.591105143801862 -37.681150423542604 1.4565859837315878 #
point $-1 41.936196665346699 -30.010399611516739 3.7416567325512085 #
point $-1 49.953833947663952 -30.010399611516739 3.7416567325512085 #
straight-curve $-1 6.4620507012680584 37.681150423542604 73.211246336795057 0 0 -1 I I #
point $-1 6.4620507012680584 37.681150423542604 11.655776737202087 #
straight-curve $-1 -0.066161865435873324 37.681150423542604 0.10487207753745054 -1 0 0 I I #
point $-1 6.4620507012680584 37.681150423542604 0.10487207753745054 #
point $-1 -0.13232373087174665 23.323674569239422 -2.3648871296149725 #
straight-curve $-1 -67.484969634083072 0 -11.655776737202087 0 1 0 I I #
straight-curve $-1 -67.484969634083072 0 11.655776737202087 0 -1 0 I I #
End-of-ACIS-data 