500 0 8 0           
7 Unknown 11 ACIS 5.0 NT 24 Fri Mar 26 19:21:42 1999 
-1 9.9999999999999995e-007 1e-010 
body $-1 $8 $-1 $9 #
body $-1 $10 $-1 $11 #
body $-1 $12 $-1 $13 #
body $-1 $14 $-1 $15 #
body $-1 $16 $-1 $17 #
body $-1 $18 $-1 $19 #
body $-1 $20 $-1 $21 #
body $-1 $22 $-1 $23 #
lump $-1 $-1 $24 $0 #
transform $-1 1 0 0 0 1 0 0 0 1 40.277108066042054 25.306959937903592 8.0832130713858152 1 rotate no_reflect no_shear #
lump $-1 $-1 $25 $1 #
transform $-1 1 0 0 0 1 0 0 0 1 40.277108066042054 25.306959937903592 8.0832130713858152 1 rotate no_reflect no_shear #
lump $-1 $-1 $26 $2 #
transform $-1 1 0 0 0 1 0 0 0 1 40.277108066042054 25.306959937903592 8.0832130713858152 1 rotate no_reflect no_shear #
lump $-1 $-1 $27 $3 #
transform $-1 1 0 0 0 1 0 0 0 1 40.277108066042054 25.306959937903592 8.0832130713858152 1 rotate no_reflect no_shear #
lump $-1 $-1 $28 $4 #
transform $-1 1 0 0 0 1 0 0 0 1 40.277108066042054 25.306959937903592 8.0832130713858152 1 rotate no_reflect no_shear #
lump $-1 $-1 $29 $5 #
transform $-1 1 0 0 0 1 0 0 0 1 40.277108066042054 25.306959937903592 8.0832130713858152 1 rotate no_reflect no_shear #
lump $-1 $-1 $30 $6 #
transform $-1 1 0 0 0 1 0 0 0 1 40.277108066042054 25.306959937903592 8.0832130713858152 1 rotate no_reflect no_shear #
lump $-1 $-1 $31 $7 #
transform $-1 1 0 0 0 1 0 0 0 1 40.277108066042054 25.306959937903592 8.0832130713858152 1 rotate no_reflect no_shear #
shell $-1 $-1 $-1 $32 $-1 $8 #
shell $-1 $-1 $-1 $33 $-1 $10 #
shell $-1 $-1 $-1 $34 $-1 $12 #
shell $-1 $-1 $-1 $35 $-1 $14 #
shell $-1 $-1 $-1 $36 $-1 $16 #
shell $-1 $-1 $-1 $37 $-1 $18 #
shell $-1 $-1 $-1 $38 $-1 $20 #
shell $-1 $-1 $-1 $39 $-1 $22 #
face $-1 $40 $41 $24 $-1 $42 forward single #
face $-1 $43 $44 $25 $-1 $45 forward single #
face $-1 $46 $47 $26 $-1 $48 forward single #
face $-1 $49 $50 $27 $-1 $51 reversed single #
face $-1 $52 $53 $28 $-1 $54 forward single #
face $-1 $55 $56 $29 $-1 $57 reversed single #
face $-1 $58 $59 $30 $-1 $60 forward single #
face $-1 $61 $62 $31 $-1 $63 forward single #
face $-1 $64 $65 $24 $-1 $66 reversed single #
loop $-1 $-1 $67 $32 #
plane-surface $-1 0 0 8.0832130713858152 0 0 1 1 0 0 forward_v I I I I #
face $-1 $68 $69 $25 $-1 $70 reversed single #
loop $-1 $-1 $71 $33 #
plane-surface $-1 -40.277108066042054 0 0 1 0 0 0 0 -1 forward_v I I I I #
face $-1 $72 $73 $26 $-1 $74 reversed single #
loop $-1 $-1 $75 $34 #
plane-surface $-1 40.277108066042054 0 0 -1 0 0 0 0 1 forward_v I I I I #
face $-1 $76 $77 $27 $-1 $78 reversed single #
loop $-1 $-1 $79 $35 #
plane-surface $-1 -28.262144274785342 43.228126617349552 95.957319270679022 1 0 0 0 -0.68199836817093118 -0.7313536940579346 forward_v I I I I #
face $-1 $80 $81 $28 $-1 $82 forward single #
loop $-1 $83 $84 $36 #
cone-surface $-1 -22.867690009639706 21.432804463098858 4.3454790718159577 0 -0.68199836817093118 -0.7313536940579346 1 0 0 1 I I 0 1 1 forward I I I I #
face $-1 $85 $86 $29 $-1 $87 reversed single #
loop $-1 $-1 $88 $37 #
plane-surface $-1 17.493191225158519 -84.2205847528829 59.597234795921196 -1 0 0 0 -0.73135370988377701 0.68199835119979291 forward_v I I I I #
face $-1 $89 $90 $30 $-1 $91 forward single #
loop $-1 $92 $93 $38 #
cone-surface $-1 4.2366938926777138 -23.196925959152605 5.8923146793675762 0 0.73135370988377701 -0.68199835119979291 0.5 0 0 1 I I 0 1 0.5 forward I I I I #
face $-1 $94 $95 $31 $-1 $96 forward single #
loop $-1 $97 $98 $39 #
cone-surface $-1 12.190592292166201 -23.196925959152605 5.8923146793675762 0 0.73135370988377701 -0.68199835119979291 0.5 0 0 1 I I 0 1 0.5 forward I I I I #
face $-1 $99 $100 $24 $-1 $101 reversed single #
loop $-1 $-1 $102 $40 #
plane-surface $-1 0 0 -8.0832130713858152 0 0 1 1 0 0 forward_v I I I I #
coedge $-1 $103 $104 $105 $106 forward $41 $-1 #
face $-1 $107 $108 $25 $-1 $109 reversed single #
loop $-1 $-1 $110 $43 #
plane-surface $-1 0 0 -8.0832130713858152 0 0 1 1 0 0 forward_v I I I I #
coedge $-1 $111 $112 $113 $114 forward $44 $-1 #
face $-1 $115 $116 $26 $-1 $117 reversed single #
loop $-1 $-1 $118 $46 #
plane-surface $-1 0 0 -8.0832130713858152 0 0 1 1 0 0 forward_v I I I I #
coedge $-1 $119 $120 $121 $122 forward $47 $-1 #
face $-1 $123 $124 $27 $-1 $125 reversed single #
loop $-1 $-1 $126 $49 #
plane-surface $-1 -22.867690009639702 -11.709717334020311 37.04369573053804 0 0.68199836817093118 0.7313536940579346 1 0 0 forward_v I I I I #
coedge $-1 $127 $128 $129 $130 reversed $50 $-1 #
face $-1 $-1 $131 $28 $-1 $132 forward single #
loop $-1 $133 $134 $52 #
cone-surface $-1 -22.867690009639706 20.197831069885495 3.0211322766584043 0 -0.68199836817093118 -0.7313536940579346 0.5 0 0 1 I I -0.70710678118654746 0.70710678118654746 0.5 forward I I I I #
loop $-1 $-1 $135 $36 #
coedge $-1 $84 $84 $136 $137 reversed $53 $-1 #
face $-1 $138 $139 $29 $-1 $140 reversed single #
loop $-1 $-1 $141 $55 #
plane-surface $-1 8.2136430924219539 -25.306959937903592 4.6593922116480755 0 -0.73135370988377701 0.68199835119979291 1 0 0 forward_v I I I I #
coedge $-1 $142 $143 $144 $145 reversed $56 $-1 #
face $-1 $-1 $146 $30 $-1 $147 forward single #
loop $-1 $148 $149 $58 #
cone-surface $-1 4.2366938926777138 -22.500435816114692 5.2428271294182505 0 0.73135370988377701 -0.68199835119979291 0.25 0 0 1 I I -0.70710678118654746 0.70710678118654746 0.25 forward I I I I #
loop $-1 $-1 $150 $38 #
coedge $-1 $93 $93 $151 $152 reversed $59 $-1 #
face $-1 $-1 $153 $31 $-1 $154 forward single #
loop $-1 $155 $156 $61 #
cone-surface $-1 12.190592292166201 -22.500435816114692 5.2428271294182505 0 0.73135370988377701 -0.68199835119979291 0.25 0 0 1 I I -0.70710678118654746 0.70710678118654746 0.25 forward I I I I #
loop $-1 $-1 $157 $39 #
coedge $-1 $98 $98 $158 $159 reversed $62 $-1 #
face $-1 $160 $161 $24 $-1 $162 reversed single #
loop $-1 $-1 $163 $64 #
plane-surface $-1 0 -25.306959937903592 0 0 1 0 0 0 1 forward_v I I I I #
coedge $-1 $164 $165 $166 $167 forward $65 $-1 #
coedge $-1 $168 $67 $169 $170 forward $41 $-1 #
coedge $-1 $67 $168 $171 $172 forward $41 $-1 #
coedge $-1 $173 $174 $67 $106 reversed $175 $-1 #
edge $-1 $176 -25.306959937903592 $177 25.306959937903592 $105 $178 forward 7 unknown #
face $-1 $179 $180 $25 $-1 $181 reversed single #
loop $-1 $-1 $182 $68 #
plane-surface $-1 -43.681138127121777 -17.675600176450949 0 0 1 0 0 0 1 forward_v I I I I #
coedge $-1 $183 $184 $112 $185 forward $69 $-1 #
coedge $-1 $186 $71 $187 $188 reversed $44 $-1 #
coedge $-1 $71 $186 $110 $185 reversed $44 $-1 #
coedge $-1 $189 $190 $71 $114 reversed $191 $-1 #
edge $-1 $192 -8.0832130713858152 $193 8.0832130713858152 $113 $194 forward 7 unknown #
face $-1 $195 $196 $26 $-1 $197 reversed single #
loop $-1 $-1 $121 $72 #
plane-surface $-1 43.681138127121777 -17.675600176450949 0 0 1 0 0 0 1 forward_v I I I I #
coedge $-1 $198 $199 $120 $200 forward $73 $-1 #
coedge $-1 $201 $75 $202 $203 reversed $47 $-1 #
coedge $-1 $75 $201 $118 $200 reversed $47 $-1 #
coedge $-1 $204 $205 $75 $122 reversed $116 $-1 #
edge $-1 $206 -8.0832130713858152 $207 8.0832130713858152 $121 $208 forward 7 unknown #
face $-1 $209 $210 $27 $-1 $211 reversed single #
loop $-1 $-1 $212 $76 #
plane-surface $-1 -17.473235744494062 43.228126617349552 95.957319270679022 -1 0 0 0 0.68199836817093118 0.7313536940579346 forward_v I I I I #
coedge $-1 $213 $214 $215 $216 reversed $77 $-1 #
coedge $-1 $128 $79 $217 $218 reversed $50 $-1 #
coedge $-1 $79 $127 $213 $219 reversed $50 $-1 #
coedge $-1 $215 $220 $79 $130 forward $221 $-1 #
edge $-1 $222 -3.6928966292288159 $223 2.2674659021248473 $129 $224 forward 7 unknown #
loop $-1 $-1 $136 $80 #
plane-surface $-1 -22.867690009639702 -11.709717334020311 37.04369573053804 0 0.68199836817093118 0.7313536940579346 1 0 0 forward_v I I I I #
loop $-1 $-1 $225 $52 #
coedge $-1 $134 $134 $135 $226 reversed $81 $-1 #
coedge $-1 $135 $135 $134 $226 forward $83 $-1 #
coedge $-1 $136 $136 $84 $137 forward $131 $-1 #
edge $-1 $227 -1.3868178071606574e-015 $227 6.2831853071795987 $136 $228 forward 7 unknown #
face $-1 $229 $230 $29 $-1 $231 forward single #
loop $-1 $-1 $232 $85 #
plane-surface $-1 -1.0659050403146111 -84.2205847528829 59.597234795921196 1 0 0 0 0.73135370988377701 -0.68199835119979291 forward_v I I I I #
coedge $-1 $233 $234 $235 $236 reversed $86 $-1 #
coedge $-1 $143 $88 $237 $238 reversed $56 $-1 #
coedge $-1 $88 $142 $233 $239 reversed $56 $-1 #
coedge $-1 $235 $240 $88 $145 forward $230 $-1 #
edge $-1 $241 16.803332438537858 $242 19.996096964905909 $144 $243 forward 7 unknown #
loop $-1 $-1 $151 $89 #
plane-surface $-1 8.2136430924219539 -25.306959937903592 4.6593922116480755 0 -0.73135370988377701 0.68199835119979291 1 0 0 forward_v I I I I #
loop $-1 $-1 $244 $58 #
coedge $-1 $149 $149 $150 $245 reversed $90 $-1 #
coedge $-1 $150 $150 $149 $245 forward $92 $-1 #
coedge $-1 $151 $151 $93 $152 forward $146 $-1 #
edge $-1 $246 7.0138183167478191e-016 $246 6.2831853071796013 $151 $247 forward 7 unknown #
loop $-1 $-1 $158 $94 #
plane-surface $-1 8.2136430924219539 -25.306959937903592 4.6593922116480755 0 -0.73135370988377701 0.68199835119979291 1 0 0 forward_v I I I I #
loop $-1 $-1 $248 $61 #
coedge $-1 $156 $156 $157 $249 reversed $95 $-1 #
coedge $-1 $157 $157 $156 $249 forward $97 $-1 #
coedge $-1 $158 $158 $98 $159 forward $153 $-1 #
edge $-1 $250 7.0138183167478191e-016 $250 6.2831853071796013 $158 $251 forward 7 unknown #
face $-1 $252 $253 $24 $-1 $254 reversed single #
loop $-1 $-1 $255 $99 #
plane-surface $-1 -40.277108066042054 0 0 1 0 0 0 0 -1 forward_v I I I I #
coedge $-1 $256 $171 $257 $258 forward $100 $-1 #
coedge $-1 $259 $102 $256 $260 forward $65 $-1 #
coedge $-1 $102 $259 $261 $262 forward $65 $-1 #
coedge $-1 $174 $173 $102 $167 reversed $175 $-1 #
edge $-1 $263 -25.306959937903592 $264 25.306959937903592 $166 $265 forward 7 unknown #
coedge $-1 $104 $103 $266 $267 forward $41 $-1 #
coedge $-1 $268 $269 $103 $170 reversed $253 $-1 #
edge $-1 $177 -40.277108066042054 $270 40.277108066042054 $169 $271 forward 7 unknown #
coedge $-1 $163 $272 $104 $172 reversed $100 $-1 #
edge $-1 $273 -40.277108066042054 $176 40.277108066042054 $171 $274 forward 7 unknown #
coedge $-1 $166 $105 $272 $275 forward $175 $-1 #
coedge $-1 $105 $166 $268 $276 reversed $175 $-1 #
loop $-1 $-1 $173 $252 #
vertex $-1 $106 $277 #
vertex $-1 $106 $278 #
straight-curve $-1 40.277108066042054 0 8.0832130713858152 0 1 0 I I #
face $-1 $279 $191 $25 $-1 $280 reversed single #
loop $-1 $-1 $281 $107 #
plane-surface $-1 -47.0851681882015 -16.175600176450949 0 1 0 0 0 0 -1 forward_v I I I I #
coedge $-1 $282 $283 $284 $285 forward $108 $-1 #
coedge $-1 $286 $110 $282 $287 forward $69 $-1 #
coedge $-1 $110 $286 $189 $288 forward $69 $-1 #
edge $-1 $192 14.675600176450949 $289 17.675600176450949 $110 $290 forward 7 unknown #
coedge $-1 $112 $111 $291 $292 forward $44 $-1 #
coedge $-1 $293 $294 $111 $188 forward $295 $-1 #
edge $-1 $296 -17.675600176450949 $193 -14.675600176450949 $187 $297 forward 7 unknown #
coedge $-1 $298 $113 $184 $288 reversed $191 $-1 #
coedge $-1 $113 $298 $293 $299 reversed $191 $-1 #
loop $-1 $-1 $113 $179 #
vertex $-1 $185 $300 #
vertex $-1 $299 $301 #
straight-curve $-1 -40.277108066042054 -14.675600176450949 0 0 0 1 I I #
face $-1 $302 $303 $26 $-1 $304 reversed single #
loop $-1 $-1 $305 $115 #
plane-surface $-1 43.681138127121777 -14.675600176450949 0 0 -1 0 0 0 -1 forward_v I I I I #
coedge $-1 $306 $118 $307 $308 forward $73 $-1 #
coedge $-1 $118 $306 $204 $309 forward $73 $-1 #
edge $-1 $206 -17.675600176450949 $310 -14.675600176450949 $118 $311 forward 7 unknown #
coedge $-1 $120 $119 $312 $313 forward $47 $-1 #
coedge $-1 $314 $315 $119 $203 forward $316 $-1 #
edge $-1 $317 14.675600176450949 $207 17.675600176450949 $202 $318 forward 7 unknown #
coedge $-1 $319 $121 $199 $309 reversed $116 $-1 #
coedge $-1 $121 $319 $314 $320 reversed $116 $-1 #
vertex $-1 $200 $321 #
vertex $-1 $320 $322 #
straight-curve $-1 40.277108066042054 -17.675600176450949 0 0 0 1 I I #
face $-1 $-1 $221 $27 $-1 $323 forward single #
loop $-1 $-1 $324 $123 #
plane-surface $-1 0 25.306959937903592 0 0 -1 0 0 0 -1 forward_v I I I I #
coedge $-1 $325 $326 $327 $328 reversed $124 $-1 #
coedge $-1 $329 $126 $128 $219 forward $77 $-1 #
coedge $-1 $126 $329 $325 $330 forward $77 $-1 #
coedge $-1 $327 $129 $126 $216 forward $221 $-1 #
edge $-1 $223 -16.828299269965491 $331 -6.0393907396742108 $215 $332 forward 7 unknown #
coedge $-1 $333 $334 $127 $218 forward $210 $-1 #
edge $-1 $335 -45.453574666836232 $222 -39.895446563953698 $217 $336 forward 7 unknown #
edge $-1 $223 42.464152424326301 $335 50.613919875807184 $128 $337 forward 7 unknown #
coedge $-1 $129 $327 $333 $338 forward $221 $-1 #
loop $-1 $-1 $327 $209 #
vertex $-1 $218 $339 #
vertex $-1 $130 $340 #
straight-curve $-1 -28.262144274785342 21.614063308674776 8.0832130713858135 0 -1 0 I I #
coedge $-1 $225 $225 $-1 $341 reversed $133 $-1 #
edge $-1 $342 0 $342 6.2831853071796004 $134 $343 forward 7 unknown #
vertex $-1 $137 $344 #
ellipse-curve $-1 -22.867690009639706 22.326778672226755 5.3041490199445454 0 0.68199836817093118 0.7313536940579346 1 0 0 1 I I #
face $-1 $-1 $345 $29 $-1 $346 reversed single #
loop $-1 $-1 $144 $138 #
plane-surface $-1 0 0 8.0832130713858152 0 0 1 1 0 0 forward_v I I I I #
coedge $-1 $347 $348 $349 $350 reversed $139 $-1 #
coedge $-1 $351 $141 $143 $239 forward $86 $-1 #
coedge $-1 $141 $351 $347 $352 forward $86 $-1 #
coedge $-1 $349 $144 $141 $236 forward $230 $-1 #
edge $-1 $242 -13.386369678947542 $353 5.172726586525588 $235 $354 forward 7 unknown #
coedge $-1 $355 $356 $142 $238 forward $345 $-1 #
edge $-1 $357 -25.139225186312522 $241 -21.715404326574784 $237 $358 forward 7 unknown #
edge $-1 $242 -4.6814842304988584 $357 0 $143 $359 forward 7 unknown #
coedge $-1 $144 $349 $355 $360 forward $230 $-1 #
vertex $-1 $145 $361 #
vertex $-1 $145 $362 #
straight-curve $-1 17.493191225158519 -42.11029237644145 8.0832130713858135 0 1 0 I I #
coedge $-1 $244 $244 $-1 $363 reversed $148 $-1 #
edge $-1 $364 0 $364 6.2831853071796004 $149 $365 forward 7 unknown #
vertex $-1 $152 $366 #
ellipse-curve $-1 4.2366938926777138 -23.710577674719566 6.3713026415169463 0 -0.73135370988377701 0.68199835119979291 0.5 0 0 1 I I #
coedge $-1 $248 $248 $-1 $367 reversed $155 $-1 #
edge $-1 $368 0 $368 6.2831853071796004 $156 $369 forward 7 unknown #
vertex $-1 $159 $370 #
ellipse-curve $-1 12.190592292166201 -23.710577674719566 6.3713026415169463 0 -0.73135370988377701 0.68199835119979291 0.5 0 0 1 I I #
face $-1 $-1 $175 $24 $-1 $371 reversed single #
loop $-1 $-1 $268 $160 #
plane-surface $-1 0 25.306959937903592 0 0 -1 0 0 0 -1 forward_v I I I I #
coedge $-1 $372 $266 $269 $373 forward $161 $-1 #
coedge $-1 $272 $163 $164 $260 reversed $100 $-1 #
coedge $-1 $266 $372 $163 $258 reversed $161 $-1 #
edge $-1 $273 -8.0832130713858152 $374 8.0832130713858152 $257 $375 forward 7 unknown #
coedge $-1 $165 $164 $372 $376 forward $65 $-1 #
edge $-1 $264 -40.277108066042054 $374 40.277108066042054 $256 $377 forward 7 unknown #
coedge $-1 $269 $268 $165 $262 reversed $253 $-1 #
edge $-1 $378 -40.277108066042054 $263 40.277108066042054 $261 $379 forward 7 unknown #
vertex $-1 $167 $380 #
vertex $-1 $275 $381 #
straight-curve $-1 40.277108066042054 0 -8.0832130713858152 0 -1 0 I I #
coedge $-1 $255 $257 $168 $267 reversed $161 $-1 #
edge $-1 $270 -25.306959937903592 $273 25.306959937903592 $266 $382 forward 7 unknown #
coedge $-1 $261 $169 $174 $276 forward $253 $-1 #
coedge $-1 $169 $261 $255 $373 reversed $253 $-1 #
vertex $-1 $170 $383 #
straight-curve $-1 0 25.306959937903592 8.0832130713858152 -1 0 0 I I #
coedge $-1 $171 $256 $173 $275 reversed $100 $-1 #
vertex $-1 $267 $384 #
straight-curve $-1 0 -25.306959937903592 8.0832130713858152 1 0 0 I I #
edge $-1 $176 -8.0832130713858152 $264 8.0832130713858152 $173 $385 forward 7 unknown #
edge $-1 $177 -8.0832130713858152 $263 8.0832130713858152 $174 $386 forward 7 unknown #
point $-1 40.277108066042054 -25.306959937903592 8.0832130713858152 #
point $-1 40.277108066042054 25.306959937903592 8.0832130713858152 #
face $-1 $-1 $295 $25 $-1 $387 forward single #
plane-surface $-1 -43.681138127121777 -14.675600176450949 0 0 -1 0 0 0 -1 forward_v I I I I #
coedge $-1 $388 $389 $298 $390 forward $180 $-1 #
coedge $-1 $291 $182 $183 $287 reversed $108 $-1 #
coedge $-1 $182 $291 $294 $391 reversed $108 $-1 #
coedge $-1 $389 $388 $182 $285 reversed $180 $-1 #
edge $-1 $392 -8.0832130713858152 $393 8.0832130713858152 $284 $394 forward 7 unknown #
coedge $-1 $184 $183 $388 $395 forward $69 $-1 #
edge $-1 $289 -3.4040300610797232 $393 3.4040300610797232 $282 $396 forward 7 unknown #
edge $-1 $397 -3.4040300610797232 $192 3.4040300610797232 $189 $398 forward 7 unknown #
vertex $-1 $287 $399 #
straight-curve $-1 -40.277108066042054 0 -8.0832130713858152 0 -1 0 I I #
coedge $-1 $283 $282 $186 $292 reversed $108 $-1 #
edge $-1 $296 -8.0832130713858152 $289 8.0832130713858152 $291 $400 forward 7 unknown #
coedge $-1 $401 $187 $190 $299 forward $295 $-1 #
coedge $-1 $187 $401 $283 $391 forward $295 $-1 #
loop $-1 $-1 $187 $279 #
vertex $-1 $188 $402 #
straight-curve $-1 -40.277108066042054 0 8.0832130713858152 0 1 0 I I #
coedge $-1 $190 $189 $281 $390 reversed $191 $-1 #
edge $-1 $193 -3.4040300610797232 $403 3.4040300610797232 $190 $404 forward 7 unknown #
point $-1 -40.277108066042054 -14.675600176450949 -8.0832130713858152 #
point $-1 -40.277108066042054 -14.675600176450949 8.0832130713858152 #
face $-1 $-1 $316 $26 $-1 $405 forward single #
loop $-1 $-1 $406 $195 #
plane-surface $-1 47.0851681882015 -16.175600176450949 0 -1 0 0 0 0 1 forward_v I I I I #
coedge $-1 $307 $407 $408 $409 forward $196 $-1 #
coedge $-1 $199 $198 $410 $411 forward $73 $-1 #
coedge $-1 $312 $305 $198 $308 reversed $196 $-1 #
edge $-1 $310 -3.4040300610797232 $412 3.4040300610797232 $307 $413 forward 7 unknown #
edge $-1 $414 -3.4040300610797232 $206 3.4040300610797232 $204 $415 forward 7 unknown #
vertex $-1 $308 $416 #
straight-curve $-1 40.277108066042054 0 -8.0832130713858152 0 1 0 I I #
coedge $-1 $407 $307 $201 $313 reversed $196 $-1 #
edge $-1 $317 -8.0832130713858152 $310 8.0832130713858152 $312 $417 forward 7 unknown #
coedge $-1 $418 $202 $205 $320 forward $316 $-1 #
coedge $-1 $202 $418 $407 $419 forward $316 $-1 #
loop $-1 $-1 $202 $302 #
vertex $-1 $203 $420 #
straight-curve $-1 40.277108066042054 0 8.0832130713858152 0 -1 0 I I #
coedge $-1 $205 $204 $406 $421 reversed $116 $-1 #
edge $-1 $207 -3.4040300610797232 $422 3.4040300610797232 $205 $423 forward 7 unknown #
point $-1 40.277108066042054 -17.675600176450949 -8.0832130713858152 #
point $-1 40.277108066042054 -17.675600176450949 8.0832130713858152 #
plane-surface $-1 0 0 8.0832130713858152 0 0 1 1 0 0 forward_v I I I I #
coedge $-1 $334 $333 $326 $424 forward $210 $-1 #
coedge $-1 $326 $212 $214 $330 reversed $124 $-1 #
coedge $-1 $212 $325 $324 $424 reversed $124 $-1 #
coedge $-1 $220 $215 $212 $328 forward $221 $-1 #
edge $-1 $331 -2.2674659021248473 $425 3.6928966292288159 $327 $426 forward 7 unknown #
coedge $-1 $214 $213 $334 $427 reversed $77 $-1 #
edge $-1 $428 -50.613919875807184 $331 -42.464152424326301 $325 $429 forward 7 unknown #
vertex $-1 $216 $430 #
straight-curve $-1 -11.433845004819851 19.346597406549925 8.0832130713858135 1 0 0 I I #
coedge $-1 $324 $217 $220 $338 reversed $210 $-1 #
coedge $-1 $217 $324 $329 $427 forward $210 $-1 #
vertex $-1 $218 $431 #
straight-curve $-1 -28.262144274785342 25.306959937903592 47.978659635339511 0 0 1 I I #
straight-curve $-1 -28.262144274785342 -11.709717334020311 37.04369573053804 0 0.7313536940579346 -0.68199836817093118 I I #
edge $-1 $425 17.473235744494062 $222 28.262144274785342 $333 $432 forward 7 unknown #
point $-1 -28.262144274785342 25.306959937903592 8.0832130713858152 #
point $-1 -28.262144274785342 19.346597406549929 8.0832130713858135 #
edge $-1 $433 1 $433 0 $225 $-1 forward 7 unknown #
vertex $-1 $226 $434 #
ellipse-curve $-1 -22.867690009639706 20.538830253970961 3.3868091236873719 0 0.68199836817093118 0.7313536940579346 1 0 0 1 I I #
point $-1 -21.867690009639706 22.326778672226752 5.3041490199445436 #
loop $-1 $-1 $237 $229 #
plane-surface $-1 0 -25.306959937903592 0 0 1 0 0 0 1 forward_v I I I I #
coedge $-1 $348 $232 $234 $352 reversed $139 $-1 #
coedge $-1 $232 $347 $435 $436 reversed $139 $-1 #
coedge $-1 $240 $235 $232 $350 forward $230 $-1 #
edge $-1 $353 -19.996096964905909 $437 -16.803332438537858 $349 $438 forward 7 unknown #
coedge $-1 $234 $233 $356 $439 reversed $86 $-1 #
edge $-1 $440 0 $353 4.6814842304988584 $347 $441 forward 7 unknown #
vertex $-1 $236 $442 #
straight-curve $-1 4.1068215462109769 -22.114195411535537 8.0832130713858152 -1 0 0 I I #
coedge $-1 $435 $237 $240 $360 reversed $345 $-1 #
coedge $-1 $237 $435 $351 $439 forward $345 $-1 #
vertex $-1 $238 $443 #
straight-curve $-1 17.493191225158519 -25.306959937903592 29.798617397960598 0 0 1 I I #
straight-curve $-1 17.493191225158519 -25.306959937903592 4.6593922116480755 0 -0.68199835119979291 -0.73135370988377701 I I #
edge $-1 $437 -1.0659050403146111 $241 17.493191225158519 $355 $444 forward 7 unknown #
point $-1 17.493191225158519 -25.306959937903592 8.0832130713858152 #
point $-1 17.493191225158519 -22.11419541153554 8.0832130713858152 #
edge $-1 $445 1 $445 0 $244 $-1 forward 7 unknown #
vertex $-1 $245 $446 #
ellipse-curve $-1 4.2366938926777138 -22.683274243585636 5.4133267172181991 0 -0.73135370988377701 0.68199835119979291 0.5 0 0 1 I I #
point $-1 4.7366938926777138 -23.710577674719573 6.3713026415169534 #
edge $-1 $447 1 $447 0 $248 $-1 forward 7 unknown #
vertex $-1 $249 $448 #
ellipse-curve $-1 12.190592292166201 -22.683274243585636 5.4133267172181991 0 -0.73135370988377701 0.68199835119979291 0.5 0 0 1 I I #
point $-1 12.690592292166201 -23.710577674719573 6.3713026415169534 #
plane-surface $-1 40.277108066042054 0 0 -1 0 0 0 0 1 forward_v I I I I #
coedge $-1 $257 $255 $259 $376 reversed $161 $-1 #
edge $-1 $270 -8.0832130713858152 $378 8.0832130713858152 $269 $449 forward 7 unknown #
vertex $-1 $376 $450 #
straight-curve $-1 -40.277108066042054 -25.306959937903592 0 0 0 -1 I I #
edge $-1 $374 -25.306959937903592 $378 25.306959937903592 $372 $451 forward 7 unknown #
straight-curve $-1 0 -25.306959937903592 -8.0832130713858152 -1 0 0 I I #
vertex $-1 $262 $452 #
straight-curve $-1 0 25.306959937903592 -8.0832130713858152 1 0 0 I I #
point $-1 40.277108066042054 25.306959937903592 -8.0832130713858152 #
point $-1 40.277108066042054 -25.306959937903592 -8.0832130713858152 #
straight-curve $-1 -40.277108066042054 0 8.0832130713858152 0 -1 0 I I #
point $-1 -40.277108066042054 25.306959937903592 8.0832130713858152 #
point $-1 -40.277108066042054 -25.306959937903592 8.0832130713858152 #
straight-curve $-1 40.277108066042054 -25.306959937903592 0 0 0 -1 I I #
straight-curve $-1 40.277108066042054 25.306959937903592 0 0 0 -1 I I #
plane-surface $-1 0 0 8.0832130713858152 0 0 1 1 0 0 forward_v I I I I #
coedge $-1 $284 $281 $286 $395 reversed $180 $-1 #
coedge $-1 $281 $284 $401 $453 reversed $180 $-1 #
edge $-1 $403 -8.0832130713858152 $397 8.0832130713858152 $298 $454 forward 7 unknown #
edge $-1 $392 -3.4040300610797232 $296 3.4040300610797232 $283 $455 forward 7 unknown #
vertex $-1 $453 $456 #
vertex $-1 $395 $457 #
straight-curve $-1 -47.0851681882015 -17.675600176450949 0 0 0 -1 I I #
edge $-1 $393 -1.5 $397 1.5 $388 $458 forward 7 unknown #
straight-curve $-1 -43.681138127121777 -17.675600176450949 -8.0832130713858152 -1 0 0 I I #
vertex $-1 $288 $459 #
straight-curve $-1 -43.681138127121777 -14.675600176450949 -8.0832130713858152 1 0 0 I I #
point $-1 -40.277108066042054 -17.675600176450949 -8.0832130713858152 #
straight-curve $-1 -40.277108066042054 -17.675600176450949 0 0 0 -1 I I #
coedge $-1 $294 $293 $389 $453 forward $295 $-1 #
point $-1 -40.277108066042054 -17.675600176450949 8.0832130713858152 #
vertex $-1 $299 $460 #
straight-curve $-1 -43.681138127121777 -14.675600176450949 8.0832130713858152 -1 0 0 I I #
plane-surface $-1 0 0 8.0832130713858152 0 0 1 1 0 0 forward_v I I I I #
coedge $-1 $410 $461 $319 $421 forward $303 $-1 #
coedge $-1 $305 $312 $315 $419 reversed $196 $-1 #
coedge $-1 $461 $410 $305 $409 reversed $303 $-1 #
edge $-1 $462 -8.0832130713858152 $412 8.0832130713858152 $408 $463 forward 7 unknown #
coedge $-1 $408 $406 $306 $411 reversed $303 $-1 #
edge $-1 $412 -1.5 $414 1.5 $410 $464 forward 7 unknown #
vertex $-1 $411 $465 #
straight-curve $-1 43.681138127121777 -14.675600176450949 -8.0832130713858152 1 0 0 I I #
vertex $-1 $421 $466 #
straight-curve $-1 43.681138127121777 -17.675600176450949 -8.0832130713858152 -1 0 0 I I #
point $-1 40.277108066042054 -14.675600176450949 -8.0832130713858152 #
straight-curve $-1 40.277108066042054 -14.675600176450949 0 0 0 -1 I I #
coedge $-1 $315 $314 $461 $467 forward $316 $-1 #
edge $-1 $462 -3.4040300610797232 $317 3.4040300610797232 $407 $468 forward 7 unknown #
point $-1 40.277108066042054 -14.675600176450949 8.0832130713858152 #
edge $-1 $422 -8.0832130713858152 $414 8.0832130713858152 $406 $469 forward 7 unknown #
vertex $-1 $467 $470 #
straight-curve $-1 43.681138127121777 -17.675600176450949 8.0832130713858152 1 0 0 I I #
edge $-1 $425 39.895446563953698 $428 45.453574666836232 $324 $471 forward 7 unknown #
vertex $-1 $338 $472 #
straight-curve $-1 -17.473235744494062 21.614063308674776 8.0832130713858135 0 1 0 I I #
edge $-1 $428 6.0393907396742108 $335 16.828299269965491 $334 $473 forward 7 unknown #
vertex $-1 $427 $474 #
straight-curve $-1 -17.473235744494062 -11.709717334020311 37.04369573053804 0 -0.7313536940579346 0.68199836817093118 I I #
point $-1 -17.473235744494062 19.346597406549929 8.0832130713858135 #
point $-1 -28.262144274785342 25.306959937903592 2.525084968503279 #
straight-curve $-1 0 25.306959937903592 8.0832130713858152 -1 0 0 I I #
vertex $-1 $341 $475 #
point $-1 -21.867690009639706 20.538830253970961 3.3868091236873719 #
coedge $-1 $356 $355 $348 $436 forward $345 $-1 #
edge $-1 $437 21.715404326574784 $440 25.139225186312522 $435 $476 forward 7 unknown #
vertex $-1 $360 $477 #
straight-curve $-1 -1.0659050403146111 -42.11029237644145 8.0832130713858135 0 -1 0 I I #
edge $-1 $440 -5.172726586525588 $357 13.386369678947542 $356 $478 forward 7 unknown #
vertex $-1 $439 $479 #
straight-curve $-1 -1.0659050403146111 -25.306959937903592 4.6593922116480755 0 0.68199835119979291 0.73135370988377701 I I #
point $-1 -1.0659050403146111 -22.11419541153554 8.0832130713858152 #
point $-1 17.493191225158519 -25.306959937903592 4.6593922116480755 #
straight-curve $-1 0 -25.306959937903592 8.0832130713858152 1 0 0 I I #
vertex $-1 $363 $480 #
point $-1 4.7366938926777138 -22.683274243585636 5.4133267172181991 #
vertex $-1 $367 $481 #
point $-1 12.690592292166201 -22.683274243585636 5.4133267172181991 #
straight-curve $-1 -40.277108066042054 25.306959937903592 0 0 0 -1 I I #
point $-1 -40.277108066042054 -25.306959937903592 -8.0832130713858152 #
straight-curve $-1 -40.277108066042054 0 -8.0832130713858152 0 1 0 I I #
point $-1 -40.277108066042054 25.306959937903592 -8.0832130713858152 #
edge $-1 $403 -1.5 $392 1.5 $389 $482 forward 7 unknown #
straight-curve $-1 -47.0851681882015 -14.675600176450949 0 0 0 -1 I I #
straight-curve $-1 -43.681138127121777 -17.675600176450949 8.0832130713858152 1 0 0 I I #
point $-1 -47.0851681882015 -17.675600176450949 8.0832130713858152 #
point $-1 -47.0851681882015 -17.675600176450949 -8.0832130713858152 #
straight-curve $-1 -47.0851681882015 -16.175600176450949 -8.0832130713858152 0 1 0 I I #
point $-1 -47.0851681882015 -14.675600176450949 -8.0832130713858152 #
point $-1 -47.0851681882015 -14.675600176450949 8.0832130713858152 #
coedge $-1 $406 $408 $418 $467 reversed $303 $-1 #
vertex $-1 $467 $483 #
straight-curve $-1 47.0851681882015 -14.675600176450949 0 0 0 -1 I I #
straight-curve $-1 47.0851681882015 -16.175600176450949 -8.0832130713858152 0 -1 0 I I #
point $-1 47.0851681882015 -14.675600176450949 -8.0832130713858152 #
point $-1 47.0851681882015 -17.675600176450949 -8.0832130713858152 #
edge $-1 $422 -1.5 $462 1.5 $461 $484 forward 7 unknown #
straight-curve $-1 43.681138127121777 -14.675600176450949 8.0832130713858152 -1 0 0 I I #
straight-curve $-1 47.0851681882015 -17.675600176450949 0 0 0 -1 I I #
point $-1 47.0851681882015 -17.675600176450949 8.0832130713858152 #
straight-curve $-1 -17.473235744494062 25.306959937903592 47.978659635339511 0 0 -1 I I #
point $-1 -17.473235744494062 25.306959937903592 8.0832130713858152 #
straight-curve $-1 -11.433845004819851 25.306959937903592 2.5250849685032826 -1 0 0 I I #
point $-1 -17.473235744494062 25.306959937903592 2.525084968503279 #
point $-1 -22.867690009639706 19.85683188580003 2.6554554296294368 #
straight-curve $-1 -1.0659050403146111 -25.306959937903592 29.798617397960598 0 0 -1 I I #
point $-1 -1.0659050403146111 -25.306959937903592 8.0832130713858152 #
straight-curve $-1 4.1068215462109769 -25.306959937903592 4.6593922116480755 1 0 0 I I #
point $-1 -1.0659050403146111 -25.306959937903592 4.6593922116480755 #
point $-1 4.2366938926777138 -22.317597388643748 5.0723275416183018 #
point $-1 12.190592292166201 -22.317597388643748 5.0723275416183018 #
straight-curve $-1 -47.0851681882015 -16.175600176450949 8.0832130713858152 0 -1 0 I I #
point $-1 47.0851681882015 -14.675600176450949 8.0832130713858152 #
straight-curve $-1 47.0851681882015 -16.175600176450949 8.0832130713858152 0 1 0 I I #
End-of-ACIS-data 