500 0 8 0           
7 Unknown 11 ACIS 5.0 NT 24 Fri Mar 26 20:27:14 1999 
-1 9.9999999999999995e-007 1e-010 
body $-1 $8 $-1 $9 #
body $-1 $10 $-1 $11 #
body $-1 $12 $-1 $13 #
body $-1 $14 $-1 $15 #
body $-1 $16 $-1 $17 #
body $-1 $18 $-1 $19 #
body $-1 $20 $-1 $21 #
body $-1 $22 $-1 $23 #
lump $-1 $-1 $24 $0 #
transform $-1 1 0 0 0 1 0 0 0 1 73.189489425336461 41.328038790283834 19.249252675238925 1 rotate no_reflect no_shear #
lump $-1 $-1 $25 $1 #
transform $-1 1 0 0 0 1 0 0 0 1 73.189489425336461 41.328038790283834 19.249252675238925 1 rotate no_reflect no_shear #
lump $-1 $-1 $26 $2 #
transform $-1 1 0 0 0 1 0 0 0 1 73.189489425336461 41.328038790283834 19.249252675238925 1 rotate no_reflect no_shear #
lump $-1 $-1 $27 $3 #
transform $-1 1 0 0 0 1 0 0 0 1 73.189489425336461 41.328038790283834 19.249252675238925 1 rotate no_reflect no_shear #
lump $-1 $-1 $28 $4 #
transform $-1 1 0 0 0 1 0 0 0 1 73.189489425336461 41.328038790283834 19.249252675238925 1 rotate no_reflect no_shear #
lump $-1 $-1 $29 $5 #
transform $-1 1 0 0 0 1 0 0 0 1 73.189489425336461 41.328038790283834 19.249252675238925 1 rotate no_reflect no_shear #
lump $-1 $-1 $30 $6 #
transform $-1 1 0 0 0 1 0 0 0 1 73.189489425336461 41.328038790283834 19.249252675238925 1 rotate no_reflect no_shear #
lump $-1 $-1 $31 $7 #
transform $-1 1 0 0 0 1 0 0 0 1 73.189489425336461 41.328038790283834 19.249252675238925 1 rotate no_reflect no_shear #
shell $-1 $-1 $-1 $32 $-1 $8 #
shell $-1 $-1 $-1 $33 $-1 $10 #
shell $-1 $-1 $-1 $34 $-1 $12 #
shell $-1 $-1 $-1 $35 $-1 $14 #
shell $-1 $-1 $-1 $36 $-1 $16 #
shell $-1 $-1 $-1 $37 $-1 $18 #
shell $-1 $-1 $-1 $38 $-1 $20 #
shell $-1 $-1 $-1 $39 $-1 $22 #
face $-1 $40 $41 $24 $-1 $42 forward single #
face $-1 $43 $44 $25 $-1 $45 forward single #
face $-1 $46 $47 $26 $-1 $48 reversed single #
face $-1 $49 $50 $27 $-1 $51 forward single #
face $-1 $52 $53 $28 $-1 $54 forward single #
face $-1 $55 $56 $29 $-1 $57 reversed single #
face $-1 $58 $59 $30 $-1 $60 forward single #
face $-1 $61 $62 $31 $-1 $63 forward single #
face $-1 $64 $65 $24 $-1 $66 reversed single #
loop $-1 $-1 $67 $32 #
plane-surface $-1 0 0 19.249252675238925 0 0 1 1 0 0 forward_v I I I I #
face $-1 $68 $69 $25 $-1 $70 reversed single #
loop $-1 $-1 $71 $33 #
plane-surface $-1 0 -29.013774831707487 -13.020900164682017 0 0 1 1 0 0 forward_v I I I I #
face $-1 $72 $73 $26 $-1 $74 reversed single #
loop $-1 $-1 $75 $34 #
plane-surface $-1 -150.75853122130567 -16.699510873131139 128.67442178609397 0 1 0 -0.52991927123019833 0 0.84804809178421925 forward_v I I I I #
face $-1 $76 $77 $27 $-1 $78 forward single #
loop $-1 $79 $80 $35 #
cone-surface $-1 -60.933703880549814 -13.046353810521232 11.118541293605725 0.52991927123019833 0 -0.84804809178421925 0.84804809178421925 0 0.52991927123019833 1 I I 0 1 1 forward I I I I #
face $-1 $81 $82 $28 $-1 $83 forward single #
loop $-1 $84 $85 $36 #
cone-surface $-1 -60.933703880549814 -7.5666182166063649 11.118541293605725 0.52991927123019833 0 -0.84804809178421925 0.84804809178421925 0 0.52991927123019833 1 I I 0 1 1 forward I I I I #
face $-1 $86 $87 $29 $-1 $88 reversed single #
loop $-1 $-1 $89 $37 #
plane-surface $-1 26.622117529669922 21.358347266306332 216.86272981905668 0 -1 0 -0.52991927123019833 0 -0.84804809178421925 forward_v I I I I #
face $-1 $90 $91 $30 $-1 $92 forward single #
loop $-1 $93 $94 $38 #
cone-surface $-1 69.650262732009836 15.661079728695256 16.779239457453198 -0.52991927123019833 0 -0.84804809178421925 0.42402404589210962 0 -0.26495963561509916 1 I I 0 1 0.5 forward I I I I #
face $-1 $95 $96 $31 $-1 $97 forward single #
loop $-1 $98 $99 $39 #
cone-surface $-1 69.650262732009836 19.0794402512619 16.779239457453198 -0.52991927123019833 0 -0.84804809178421925 0.42402404589210962 0 -0.26495963561509916 1 I I 0 1 0.5 forward I I I I #
face $-1 $100 $101 $24 $-1 $102 reversed single #
loop $-1 $-1 $103 $40 #
plane-surface $-1 0 0 -19.249252675238925 0 0 1 1 0 0 forward_v I I I I #
coedge $-1 $104 $105 $106 $107 forward $41 $-1 #
face $-1 $108 $109 $25 $-1 $110 reversed single #
loop $-1 $-1 $111 $43 #
plane-surface $-1 0 -16.699510873131139 -16.13507641996047 0 -1 0 0 0 -1 forward_v I I I I #
coedge $-1 $112 $113 $114 $115 reversed $44 $-1 #
face $-1 $116 $117 $26 $-1 $118 reversed single #
loop $-1 $-1 $119 $46 #
plane-surface $-1 -73.189489425336461 -10.306486013563799 4.5380080944582204 -0.52991927123019833 0 0.84804809178421925 0.84804809178421925 0 0.52991927123019833 forward_v I I I I #
coedge $-1 $120 $121 $122 $123 reversed $47 $-1 #
face $-1 $-1 $124 $27 $-1 $125 forward single #
loop $-1 $126 $127 $49 #
cone-surface $-1 -60.184414817925777 -13.046353810521232 9.9194281564707865 0.52991927123019833 0 -0.84804809178421925 0.42402404589210962 0 0.26495963561509916 1 I I -0.70710678118654746 0.70710678118654746 0.5 forward I I I I #
loop $-1 $-1 $128 $35 #
coedge $-1 $80 $80 $129 $130 reversed $50 $-1 #
face $-1 $-1 $131 $28 $-1 $132 forward single #
loop $-1 $133 $134 $52 #
cone-surface $-1 -60.184414817925777 -7.5666182166063649 9.9194281564707865 0.52991927123019833 0 -0.84804809178421925 0.42402404589210962 0 0.26495963561509916 1 I I -0.70710678118654746 0.70710678118654746 0.5 forward I I I I #
loop $-1 $-1 $135 $36 #
coedge $-1 $85 $85 $136 $137 reversed $53 $-1 #
face $-1 $138 $139 $29 $-1 $140 reversed single #
loop $-1 $-1 $141 $55 #
plane-surface $-1 -50.946924266299291 17.370259989978578 92.72631612742093 0.52991927123019833 0 0.84804809178421925 0.84804809178421925 0 -0.52991927123019833 forward_v I I I I #
coedge $-1 $142 $143 $144 $145 reversed $56 $-1 #
face $-1 $-1 $146 $30 $-1 $147 forward single #
loop $-1 $148 $149 $58 #
cone-surface $-1 69.252823278587186 15.661079728695256 16.143203388615031 -0.52991927123019833 0 -0.84804809178421925 0.21201202294605481 0 -0.13247981780754958 1 I I -0.70710678118654746 0.70710678118654746 0.25 forward I I I I #
loop $-1 $-1 $150 $38 #
coedge $-1 $94 $94 $151 $152 reversed $59 $-1 #
face $-1 $-1 $153 $31 $-1 $154 forward single #
loop $-1 $155 $156 $61 #
cone-surface $-1 69.252823278587186 19.0794402512619 16.143203388615031 -0.52991927123019833 0 -0.84804809178421925 0.21201202294605481 0 -0.13247981780754958 1 I I -0.70710678118654746 0.70710678118654746 0.25 forward I I I I #
loop $-1 $-1 $157 $39 #
coedge $-1 $99 $99 $158 $159 reversed $62 $-1 #
face $-1 $160 $161 $24 $-1 $162 reversed single #
loop $-1 $-1 $163 $64 #
plane-surface $-1 0 -41.328038790283834 0 0 1 0 0 0 1 forward_v I I I I #
coedge $-1 $164 $165 $166 $167 forward $65 $-1 #
coedge $-1 $168 $67 $169 $170 forward $41 $-1 #
coedge $-1 $67 $168 $171 $172 forward $41 $-1 #
coedge $-1 $173 $174 $67 $107 reversed $175 $-1 #
edge $-1 $176 -41.328038790283834 $177 41.328038790283834 $106 $178 forward 7 unknown #
face $-1 $179 $180 $25 $-1 $181 reversed single #
loop $-1 $-1 $182 $68 #
plane-surface $-1 0 0 -19.249252675238925 0 0 1 1 0 0 forward_v I I I I #
coedge $-1 $183 $184 $185 $186 reversed $69 $-1 #
coedge $-1 $187 $71 $184 $188 forward $44 $-1 #
coedge $-1 $71 $187 $189 $190 reversed $44 $-1 #
coedge $-1 $191 $185 $71 $115 forward $180 $-1 #
edge $-1 $192 2.1926234572773957 $193 26.821151374430091 $114 $194 forward 7 unknown #
face $-1 $195 $196 $26 $-1 $197 forward single #
loop $-1 $-1 $198 $72 #
plane-surface $-1 -150.75853122130567 -3.9134611539964563 128.67442178609397 0 -1 0 0.52991927123019833 0 -0.84804809178421925 forward_v I I I I #
coedge $-1 $199 $200 $201 $202 reversed $73 $-1 #
coedge $-1 $121 $75 $203 $204 reversed $47 $-1 #
coedge $-1 $75 $120 $199 $205 reversed $47 $-1 #
coedge $-1 $201 $206 $75 $123 forward $196 $-1 #
edge $-1 $207 2.1897761853163757 $208 25.732688420871725 $122 $209 forward 7 unknown #
loop $-1 $-1 $129 $76 #
plane-surface $-1 -73.189489425336461 -10.306486013563799 4.5380080944582204 -0.52991927123019833 0 0.84804809178421925 0.84804809178421925 0 0.52991927123019833 forward_v I I I I #
loop $-1 $-1 $210 $49 #
coedge $-1 $127 $127 $128 $211 reversed $77 $-1 #
coedge $-1 $128 $128 $127 $211 forward $79 $-1 #
coedge $-1 $129 $129 $80 $130 forward $124 $-1 #
edge $-1 $212 0 $212 6.2831853071796004 $129 $213 forward 7 unknown #
loop $-1 $-1 $136 $81 #
plane-surface $-1 -73.189489425336461 -10.306486013563799 4.5380080944582204 -0.52991927123019833 0 0.84804809178421925 0.84804809178421925 0 0.52991927123019833 forward_v I I I I #
loop $-1 $-1 $214 $52 #
coedge $-1 $134 $134 $135 $215 reversed $82 $-1 #
coedge $-1 $135 $135 $134 $215 forward $84 $-1 #
coedge $-1 $136 $136 $85 $137 forward $131 $-1 #
edge $-1 $216 0 $216 6.2831853071796004 $136 $217 forward 7 unknown #
face $-1 $218 $219 $29 $-1 $220 reversed single #
loop $-1 $-1 $221 $86 #
plane-surface $-1 26.622117529669922 13.382172713650824 216.86272981905668 0 1 0 0.52991927123019833 0 0.84804809178421925 forward_v I I I I #
coedge $-1 $222 $223 $224 $225 reversed $87 $-1 #
coedge $-1 $143 $89 $226 $227 reversed $56 $-1 #
coedge $-1 $89 $142 $222 $228 reversed $56 $-1 #
coedge $-1 $224 $229 $89 $145 forward $230 $-1 #
edge $-1 $231 -59.8784306605015 $232 -53.329896545078434 $144 $233 forward 7 unknown #
loop $-1 $-1 $151 $90 #
plane-surface $-1 -50.946924266299291 17.370259989978578 92.72631612742093 0.52991927123019833 0 0.84804809178421925 0.84804809178421925 0 -0.52991927123019833 forward_v I I I I #
loop $-1 $-1 $234 $58 #
coedge $-1 $149 $149 $150 $235 reversed $91 $-1 #
coedge $-1 $150 $150 $149 $235 forward $93 $-1 #
coedge $-1 $151 $151 $94 $152 forward $146 $-1 #
edge $-1 $236 0 $236 6.2831853071796004 $151 $237 forward 7 unknown #
loop $-1 $-1 $158 $95 #
plane-surface $-1 -50.946924266299291 17.370259989978578 92.72631612742093 0.52991927123019833 0 0.84804809178421925 0.84804809178421925 0 -0.52991927123019833 forward_v I I I I #
loop $-1 $-1 $238 $61 #
coedge $-1 $156 $156 $157 $239 reversed $96 $-1 #
coedge $-1 $157 $157 $156 $239 forward $98 $-1 #
coedge $-1 $158 $158 $99 $159 forward $153 $-1 #
edge $-1 $240 0 $240 6.2831853071796004 $158 $241 forward 7 unknown #
face $-1 $242 $243 $24 $-1 $244 reversed single #
loop $-1 $-1 $245 $100 #
plane-surface $-1 -73.189489425336461 0 0 1 0 0 0 0 -1 forward_v I I I I #
coedge $-1 $246 $171 $247 $248 forward $101 $-1 #
coedge $-1 $249 $103 $246 $250 forward $65 $-1 #
coedge $-1 $103 $249 $251 $252 forward $65 $-1 #
coedge $-1 $174 $173 $103 $167 reversed $175 $-1 #
edge $-1 $253 -41.328038790283834 $254 41.328038790283834 $166 $255 forward 7 unknown #
coedge $-1 $105 $104 $256 $257 forward $41 $-1 #
coedge $-1 $258 $259 $104 $170 reversed $243 $-1 #
edge $-1 $177 -73.189489425336461 $260 73.189489425336461 $169 $261 forward 7 unknown #
coedge $-1 $163 $262 $105 $172 reversed $101 $-1 #
edge $-1 $263 -73.189489425336461 $176 73.189489425336461 $171 $264 forward 7 unknown #
coedge $-1 $166 $106 $262 $265 forward $175 $-1 #
coedge $-1 $106 $166 $258 $266 reversed $175 $-1 #
loop $-1 $-1 $173 $242 #
vertex $-1 $107 $267 #
vertex $-1 $107 $268 #
straight-curve $-1 73.189489425336461 0 19.249252675238925 0 1 0 I I #
face $-1 $269 $270 $25 $-1 $271 reversed single #
loop $-1 $-1 $185 $108 #
plane-surface $-1 73.189489425336461 0 0 -1 0 0 0 0 1 forward_v I I I I #
coedge $-1 $272 $273 $183 $274 forward $109 $-1 #
coedge $-1 $275 $111 $182 $274 reversed $69 $-1 #
coedge $-1 $111 $275 $112 $188 reversed $69 $-1 #
coedge $-1 $114 $276 $111 $186 forward $180 $-1 #
edge $-1 $277 -11.181714465258686 $192 -4.9533619547017818 $185 $278 forward 7 unknown #
coedge $-1 $113 $112 $279 $280 reversed $44 $-1 #
edge $-1 $192 -73.189489425336461 $281 73.189489425336461 $184 $282 forward 7 unknown #
coedge $-1 $283 $284 $113 $190 forward $270 $-1 #
edge $-1 $193 -73.189489425336461 $285 73.189489425336461 $189 $286 forward 7 unknown #
coedge $-1 $276 $114 $284 $287 forward $180 $-1 #
vertex $-1 $115 $288 #
vertex $-1 $287 $289 #
straight-curve $-1 73.189489425336461 -14.506887415853743 -13.020900164682017 0 -1 0 I I #
face $-1 $-1 $290 $26 $-1 $291 reversed single #
loop $-1 $-1 $122 $116 #
plane-surface $-1 0 0 19.249252675238925 0 0 1 1 0 0 forward_v I I I I #
coedge $-1 $292 $293 $294 $295 reversed $117 $-1 #
coedge $-1 $296 $119 $121 $205 forward $73 $-1 #
coedge $-1 $119 $296 $292 $297 forward $73 $-1 #
coedge $-1 $294 $122 $119 $202 forward $196 $-1 #
edge $-1 $208 -11.54626786634924 $298 1.239781852785443 $201 $299 forward 7 unknown #
coedge $-1 $300 $301 $120 $204 forward $290 $-1 #
edge $-1 $302 -59.799202798588766 $207 -45.087958217808065 $203 $303 forward 7 unknown #
edge $-1 $208 -27.761293803542578 $302 0 $121 $304 forward 7 unknown #
coedge $-1 $122 $294 $300 $305 forward $196 $-1 #
vertex $-1 $204 $306 #
vertex $-1 $123 $307 #
straight-curve $-1 -75.379265610652837 -16.699510873131139 19.249252675238921 1 0 0 I I #
coedge $-1 $210 $210 $-1 $308 reversed $126 $-1 #
edge $-1 $309 0 $309 6.2831853071796004 $127 $310 forward 7 unknown #
vertex $-1 $130 $311 #
ellipse-curve $-1 -61.418033307558773 -13.046353810521232 11.893630384848581 -0.52991927123019833 0 0.84804809178421925 0.84804809178421925 0 0.52991927123019833 1 I I #
coedge $-1 $214 $214 $-1 $312 reversed $133 $-1 #
edge $-1 $313 0 $313 6.2831853071796004 $134 $314 forward 7 unknown #
vertex $-1 $137 $315 #
ellipse-curve $-1 -61.418033307558773 -7.5666182166063649 11.893630384848581 -0.52991927123019833 0 0.84804809178421925 0.84804809178421925 0 0.52991927123019833 1 I I #
face $-1 $-1 $230 $29 $-1 $316 forward single #
loop $-1 $-1 $317 $138 #
plane-surface $-1 73.189489425336461 0 0 -1 0 0 0 0 1 forward_v I I I I #
coedge $-1 $318 $319 $320 $321 reversed $139 $-1 #
coedge $-1 $322 $141 $143 $228 forward $87 $-1 #
coedge $-1 $141 $322 $318 $323 forward $87 $-1 #
coedge $-1 $320 $144 $141 $225 forward $230 $-1 #
edge $-1 $232 -12.673217271317043 $324 -4.6970427186615353 $224 $325 forward 7 unknown #
coedge $-1 $326 $327 $142 $227 forward $219 $-1 #
edge $-1 $328 -93.274090578076624 $231 -89.18211223428942 $226 $329 forward 7 unknown #
edge $-1 $232 138.65708880827506 $328 146.37897885067292 $143 $330 forward 7 unknown #
coedge $-1 $144 $320 $326 $331 forward $230 $-1 #
loop $-1 $-1 $320 $218 #
vertex $-1 $227 $332 #
vertex $-1 $145 $333 #
straight-curve $-1 13.311058764834961 21.358347266306332 19.249252675238921 -1 0 0 I I #
coedge $-1 $234 $234 $-1 $334 reversed $148 $-1 #
edge $-1 $335 0 $335 6.2831853071796004 $149 $336 forward 7 unknown #
vertex $-1 $152 $337 #
ellipse-curve $-1 69.915222367624935 15.661079728695256 17.203263503345312 0.52991927123019833 0 0.84804809178421925 0.42402404589210962 0 -0.26495963561509916 1 I I #
coedge $-1 $238 $238 $-1 $338 reversed $155 $-1 #
edge $-1 $339 0 $339 6.2831853071796004 $156 $340 forward 7 unknown #
vertex $-1 $159 $341 #
ellipse-curve $-1 69.915222367624935 19.0794402512619 17.203263503345312 0.52991927123019833 0 0.84804809178421925 0.42402404589210962 0 -0.26495963561509916 1 I I #
face $-1 $-1 $175 $24 $-1 $342 reversed single #
loop $-1 $-1 $258 $160 #
plane-surface $-1 0 41.328038790283834 0 0 -1 0 0 0 -1 forward_v I I I I #
coedge $-1 $343 $256 $259 $344 forward $161 $-1 #
coedge $-1 $262 $163 $164 $250 reversed $101 $-1 #
coedge $-1 $256 $343 $163 $248 reversed $161 $-1 #
edge $-1 $263 -19.249252675238925 $345 19.249252675238925 $247 $346 forward 7 unknown #
coedge $-1 $165 $164 $343 $347 forward $65 $-1 #
edge $-1 $254 -73.189489425336461 $345 73.189489425336461 $246 $348 forward 7 unknown #
coedge $-1 $259 $258 $165 $252 reversed $243 $-1 #
edge $-1 $349 -73.189489425336461 $253 73.189489425336461 $251 $350 forward 7 unknown #
vertex $-1 $167 $351 #
vertex $-1 $265 $352 #
straight-curve $-1 73.189489425336461 0 -19.249252675238925 0 -1 0 I I #
coedge $-1 $245 $247 $168 $257 reversed $161 $-1 #
edge $-1 $260 -41.328038790283834 $263 41.328038790283834 $256 $353 forward 7 unknown #
coedge $-1 $251 $169 $174 $266 forward $243 $-1 #
coedge $-1 $169 $251 $245 $344 reversed $243 $-1 #
vertex $-1 $170 $354 #
straight-curve $-1 0 41.328038790283834 19.249252675238925 -1 0 0 I I #
coedge $-1 $171 $246 $173 $265 reversed $101 $-1 #
vertex $-1 $257 $355 #
straight-curve $-1 0 -41.328038790283834 19.249252675238925 1 0 0 I I #
edge $-1 $176 -19.249252675238925 $254 19.249252675238925 $173 $356 forward 7 unknown #
edge $-1 $177 -19.249252675238925 $253 19.249252675238925 $174 $357 forward 7 unknown #
point $-1 73.189489425336461 -41.328038790283834 19.249252675238925 #
point $-1 73.189489425336461 41.328038790283834 19.249252675238925 #
face $-1 $-1 $358 $25 $-1 $359 reversed single #
loop $-1 $-1 $189 $179 #
plane-surface $-1 0 -41.328038790283834 0 0 1 0 0 0 1 forward_v I I I I #
coedge $-1 $360 $182 $276 $361 forward $109 $-1 #
coedge $-1 $182 $360 $362 $363 forward $109 $-1 #
edge $-1 $364 -73.189489425336461 $277 73.189489425336461 $182 $365 forward 7 unknown #
coedge $-1 $184 $183 $366 $367 reversed $69 $-1 #
coedge $-1 $185 $191 $272 $361 reversed $180 $-1 #
vertex $-1 $361 $368 #
straight-curve $-1 73.189489425336461 -16.699510873131139 -8.0675382099802349 0 0 1 I I #
coedge $-1 $366 $369 $187 $280 forward $358 $-1 #
edge $-1 $285 -26.821151374430091 $281 -2.1926234572773957 $279 $370 forward 7 unknown #
vertex $-1 $280 $371 #
straight-curve $-1 0 -16.699510873131139 -13.020900164682017 -1 0 0 I I #
coedge $-1 $372 $189 $369 $373 forward $270 $-1 #
coedge $-1 $189 $372 $191 $287 reversed $270 $-1 #
vertex $-1 $373 $374 #
straight-curve $-1 0 -41.328038790283834 -13.020900164682017 -1 0 0 I I #
edge $-1 $193 13.020900164682017 $375 19.249252675238925 $191 $376 forward 7 unknown #
point $-1 73.189489425336461 -16.699510873131139 -13.020900164682017 #
point $-1 73.189489425336461 -41.328038790283834 -13.020900164682017 #
loop $-1 $-1 $203 $195 #
plane-surface $-1 -73.189489425336461 0 0 1 0 0 0 0 -1 forward_v I I I I #
coedge $-1 $293 $198 $200 $297 reversed $117 $-1 #
coedge $-1 $198 $292 $377 $378 reversed $117 $-1 #
coedge $-1 $206 $201 $198 $295 forward $196 $-1 #
edge $-1 $298 -25.732688420871725 $379 -2.1897761853163757 $294 $380 forward 7 unknown #
coedge $-1 $200 $199 $301 $381 reversed $73 $-1 #
edge $-1 $382 0 $298 27.761293803542578 $292 $383 forward 7 unknown #
vertex $-1 $202 $384 #
straight-curve $-1 -49.646577189781105 -5.1532430067818993 19.249252675238925 0 1 0 I I #
coedge $-1 $377 $203 $206 $305 reversed $290 $-1 #
coedge $-1 $203 $377 $296 $381 forward $290 $-1 #
vertex $-1 $204 $385 #
straight-curve $-1 -73.189489425336461 -16.699510873131139 64.337210893046986 0 0 1 I I #
straight-curve $-1 -73.189489425336461 -16.699510873131139 4.5380080944582204 -0.84804809178421925 0 -0.52991927123019833 I I #
edge $-1 $379 3.9134611539964563 $207 16.699510873131139 $300 $386 forward 7 unknown #
point $-1 -73.189489425336461 -16.699510873131139 19.249252675238925 #
point $-1 -49.646577189781112 -16.699510873131139 19.249252675238925 #
edge $-1 $387 1 $387 0 $210 $-1 forward 7 unknown #
vertex $-1 $211 $388 #
ellipse-curve $-1 -60.449374453540877 -13.046353810521232 10.343452202362895 -0.52991927123019833 0 0.84804809178421925 0.84804809178421925 0 0.52991927123019833 1 I I #
point $-1 -60.569985215774537 -13.046353810521232 12.423549656078754 #
edge $-1 $389 1 $389 0 $214 $-1 forward 7 unknown #
vertex $-1 $215 $390 #
ellipse-curve $-1 -60.449374453540877 -7.5666182166063649 10.343452202362895 -0.52991927123019833 0 0.84804809178421925 0.84804809178421925 0 0.52991927123019833 1 I I #
point $-1 -60.569985215774537 -7.5666182166063649 12.423549656078754 #
plane-surface $-1 0 0 19.249252675238925 0 0 1 1 0 0 forward_v I I I I #
coedge $-1 $327 $326 $319 $391 forward $219 $-1 #
coedge $-1 $319 $221 $223 $323 reversed $139 $-1 #
coedge $-1 $221 $318 $317 $391 reversed $139 $-1 #
coedge $-1 $229 $224 $221 $321 forward $230 $-1 #
edge $-1 $324 53.329896545078434 $392 59.8784306605015 $320 $393 forward 7 unknown #
coedge $-1 $223 $222 $327 $394 reversed $87 $-1 #
edge $-1 $395 -146.37897885067292 $324 -138.65708880827506 $318 $396 forward 7 unknown #
vertex $-1 $225 $397 #
straight-curve $-1 66.640955309913394 8.6851299949892891 19.249252675238921 0 -1 0 I I #
coedge $-1 $317 $226 $229 $331 reversed $219 $-1 #
coedge $-1 $226 $317 $322 $394 forward $219 $-1 #
vertex $-1 $227 $398 #
straight-curve $-1 73.189489425336461 21.358347266306332 108.43136490952834 0 0 1 I I #
straight-curve $-1 -50.946924266299291 21.358347266306332 92.72631612742093 0.84804809178421925 0 -0.52991927123019833 I I #
edge $-1 $392 13.382172713650824 $231 21.358347266306332 $326 $399 forward 7 unknown #
point $-1 73.189489425336461 21.358347266306332 19.249252675238925 #
point $-1 66.640955309913394 21.358347266306332 19.249252675238921 #
edge $-1 $400 1 $400 0 $234 $-1 forward 7 unknown #
vertex $-1 $235 $401 #
ellipse-curve $-1 69.385303096394736 15.661079728695256 16.355215411561087 0.52991927123019833 0 0.84804809178421925 0.42402404589210962 0 -0.26495963561509916 1 I I #
point $-1 70.339246413517046 15.661079728695256 16.938303867730205 #
edge $-1 $402 1 $402 0 $238 $-1 forward 7 unknown #
vertex $-1 $239 $403 #
ellipse-curve $-1 69.385303096394736 19.0794402512619 16.355215411561087 0.52991927123019833 0 0.84804809178421925 0.42402404589210962 0 -0.26495963561509916 1 I I #
point $-1 70.339246413517046 19.0794402512619 16.938303867730205 #
plane-surface $-1 73.189489425336461 0 0 -1 0 0 0 0 1 forward_v I I I I #
coedge $-1 $247 $245 $249 $347 reversed $161 $-1 #
edge $-1 $260 -19.249252675238925 $349 19.249252675238925 $259 $404 forward 7 unknown #
vertex $-1 $347 $405 #
straight-curve $-1 -73.189489425336461 -41.328038790283834 0 0 0 -1 I I #
edge $-1 $345 -41.328038790283834 $349 41.328038790283834 $343 $406 forward 7 unknown #
straight-curve $-1 0 -41.328038790283834 -19.249252675238925 -1 0 0 I I #
vertex $-1 $252 $407 #
straight-curve $-1 0 41.328038790283834 -19.249252675238925 1 0 0 I I #
point $-1 73.189489425336461 41.328038790283834 -19.249252675238925 #
point $-1 73.189489425336461 -41.328038790283834 -19.249252675238925 #
straight-curve $-1 -73.189489425336461 0 19.249252675238925 0 -1 0 I I #
point $-1 -73.189489425336461 41.328038790283834 19.249252675238925 #
point $-1 -73.189489425336461 -41.328038790283834 19.249252675238925 #
straight-curve $-1 73.189489425336461 -41.328038790283834 0 0 0 -1 I I #
straight-curve $-1 73.189489425336461 41.328038790283834 0 0 0 -1 I I #
loop $-1 $-1 $366 $269 #
plane-surface $-1 -73.189489425336461 0 0 1 0 0 0 0 -1 forward_v I I I I #
coedge $-1 $273 $272 $372 $408 forward $109 $-1 #
edge $-1 $277 16.699510873131139 $375 41.328038790283834 $276 $409 forward 7 unknown #
coedge $-1 $369 $366 $273 $363 reversed $358 $-1 #
edge $-1 $410 -41.328038790283834 $364 -16.699510873131139 $362 $411 forward 7 unknown #
vertex $-1 $367 $412 #
straight-curve $-1 0 -16.699510873131139 -19.249252675238925 1 0 0 I I #
coedge $-1 $362 $279 $275 $367 forward $358 $-1 #
edge $-1 $281 4.9533619547017818 $364 11.181714465258686 $366 $413 forward 7 unknown #
point $-1 73.189489425336461 -16.699510873131139 -19.249252675238921 #
coedge $-1 $279 $362 $283 $373 reversed $358 $-1 #
straight-curve $-1 -73.189489425336461 -14.506887415853743 -13.020900164682017 0 1 0 I I #
point $-1 -73.189489425336461 -16.699510873131139 -13.020900164682017 #
coedge $-1 $284 $283 $360 $408 reversed $270 $-1 #
edge $-1 $285 13.020900164682017 $410 19.249252675238925 $369 $414 forward 7 unknown #
point $-1 -73.189489425336461 -41.328038790283834 -13.020900164682017 #
vertex $-1 $287 $415 #
straight-curve $-1 73.189489425336461 -41.328038790283834 0 0 0 -1 I I #
coedge $-1 $301 $300 $293 $378 forward $290 $-1 #
edge $-1 $379 45.087958217808065 $382 59.799202798588766 $377 $416 forward 7 unknown #
vertex $-1 $305 $417 #
straight-curve $-1 -75.379265610652837 -3.9134611539964563 19.249252675238921 -1 0 0 I I #
edge $-1 $382 -1.239781852785443 $302 11.54626786634924 $301 $418 forward 7 unknown #
vertex $-1 $381 $419 #
straight-curve $-1 -73.189489425336461 -3.9134611539964563 4.5380080944582204 0.84804809178421925 0 0.52991927123019833 I I #
point $-1 -49.646577189781112 -3.9134611539964563 19.249252675238925 #
point $-1 -73.189489425336461 -16.699510873131139 4.5380080944582204 #
straight-curve $-1 -73.189489425336461 0 19.249252675238925 0 -1 0 I I #
vertex $-1 $308 $420 #
point $-1 -59.601326361756655 -13.046353810521232 10.873371473593094 #
vertex $-1 $312 $421 #
point $-1 -59.601326361756655 -7.5666182166063649 10.873371473593094 #
edge $-1 $392 89.18211223428942 $395 93.274090578076624 $317 $422 forward 7 unknown #
vertex $-1 $331 $423 #
straight-curve $-1 13.311058764834961 13.382172713650824 19.249252675238921 1 0 0 I I #
edge $-1 $395 4.6970427186615353 $328 12.673217271317043 $327 $424 forward 7 unknown #
vertex $-1 $394 $425 #
straight-curve $-1 -50.946924266299291 13.382172713650824 92.72631612742093 -0.84804809178421925 0 0.52991927123019833 I I #
point $-1 66.640955309913394 13.382172713650824 19.249252675238921 #
point $-1 73.189489425336461 21.358347266306332 15.157274331451717 #
straight-curve $-1 73.189489425336461 0 19.249252675238925 0 1 0 I I #
vertex $-1 $334 $426 #
point $-1 69.809327142286847 15.661079728695256 16.090255775945987 #
vertex $-1 $338 $427 #
point $-1 69.809327142286847 19.0794402512619 16.090255775945987 #
straight-curve $-1 -73.189489425336461 41.328038790283834 0 0 0 -1 I I #
point $-1 -73.189489425336461 -41.328038790283834 -19.249252675238925 #
straight-curve $-1 -73.189489425336461 0 -19.249252675238925 0 1 0 I I #
point $-1 -73.189489425336461 41.328038790283834 -19.249252675238925 #
edge $-1 $375 -73.189489425336461 $410 73.189489425336461 $372 $428 forward 7 unknown #
straight-curve $-1 73.189489425336461 0 -19.249252675238925 0 -1 0 I I #
vertex $-1 $363 $429 #
straight-curve $-1 -73.189489425336461 0 -19.249252675238925 0 1 0 I I #
point $-1 -73.189489425336461 -16.699510873131139 -19.249252675238921 #
straight-curve $-1 -73.189489425336461 -16.699510873131139 -8.0675382099802349 0 0 -1 I I #
straight-curve $-1 -73.189489425336461 -41.328038790283834 0 0 0 -1 I I #
point $-1 73.189489425336461 -41.328038790283834 -19.249252675238925 #
straight-curve $-1 -73.189489425336461 -3.9134611539964563 64.337210893046986 0 0 -1 I I #
point $-1 -73.189489425336461 -3.9134611539964563 19.249252675238925 #
straight-curve $-1 -73.189489425336461 -5.1532430067818993 4.5380080944582195 0 -1 0 I I #
point $-1 -73.189489425336461 -3.9134611539964563 4.5380080944582204 #
point $-1 -59.919455182310678 -13.046353810521232 9.4954041105786775 #
point $-1 -59.919455182310678 -7.5666182166063649 9.4954041105786775 #
straight-curve $-1 73.189489425336461 13.382172713650824 108.43136490952834 0 0 -1 I I #
point $-1 73.189489425336461 13.382172713650824 19.249252675238925 #
straight-curve $-1 73.189489425336461 8.6851299949892891 15.157274331451717 0 1 0 I I #
point $-1 73.189489425336461 13.382172713650824 15.157274331451717 #
point $-1 69.120343460779637 15.661079728695256 15.931191365668976 #
point $-1 69.120343460779637 19.0794402512619 15.931191365668976 #
straight-curve $-1 0 -41.328038790283834 -19.249252675238925 -1 0 0 I I #
point $-1 -73.189489425336461 -41.328038790283834 -19.249252675238925 #
End-of-ACIS-data 