500 0 6 0           
7 Unknown 11 ACIS 5.0 NT 24 Fri Mar 26 17:30:34 1999 
-1 9.9999999999999995e-007 1e-010 
body $-1 $6 $-1 $7 #
body $-1 $8 $-1 $9 #
body $-1 $10 $-1 $11 #
body $-1 $12 $-1 $13 #
body $-1 $14 $-1 $15 #
body $-1 $16 $-1 $17 #
lump $-1 $-1 $18 $0 #
transform $-1 1 0 0 0 1 0 0 0 1 44.279915768913845 29.635394781452604 9.4611316650684394 1 rotate no_reflect no_shear #
lump $-1 $-1 $19 $1 #
transform $-1 1 0 0 0 1 0 0 0 1 44.279915768913845 29.635394781452604 9.4611316650684394 1 rotate no_reflect no_shear #
lump $-1 $-1 $20 $2 #
transform $-1 1 0 0 0 1 0 0 0 1 44.279915768913845 29.635394781452604 9.4611316650684394 1 rotate no_reflect no_shear #
lump $-1 $-1 $21 $3 #
transform $-1 1 0 0 0 1 0 0 0 1 44.279915768913845 29.635394781452604 9.4611316650684394 1 rotate no_reflect no_shear #
lump $-1 $-1 $22 $4 #
transform $-1 1 0 0 0 1 0 0 0 1 44.279915768913845 29.635394781452604 9.4611316650684394 1 rotate no_reflect no_shear #
lump $-1 $-1 $23 $5 #
transform $-1 1 0 0 0 1 0 0 0 1 44.279915768913845 29.635394781452604 9.4611316650684394 1 rotate no_reflect no_shear #
shell $-1 $-1 $-1 $24 $-1 $6 #
shell $-1 $-1 $-1 $25 $-1 $8 #
shell $-1 $-1 $-1 $26 $-1 $10 #
shell $-1 $-1 $-1 $27 $-1 $12 #
shell $-1 $-1 $-1 $28 $-1 $14 #
shell $-1 $-1 $-1 $29 $-1 $16 #
face $-1 $30 $31 $18 $-1 $32 forward single #
face $-1 $33 $34 $19 $-1 $35 reversed single #
face $-1 $36 $37 $20 $-1 $38 reversed single #
face $-1 $39 $40 $21 $-1 $41 forward single #
face $-1 $42 $43 $22 $-1 $44 reversed single #
face $-1 $45 $46 $23 $-1 $47 forward single #
face $-1 $48 $49 $18 $-1 $50 reversed single #
loop $-1 $-1 $51 $24 #
plane-surface $-1 0 0 9.4611316650684394 0 0 1 1 0 0 forward_v I I I I #
face $-1 $52 $53 $19 $-1 $54 reversed single #
loop $-1 $-1 $55 $25 #
plane-surface $-1 -34.609629736347017 -25.267096133695084 0 1 0 0 0 0 -1 forward_v I I I I #
face $-1 $56 $57 $20 $-1 $58 reversed single #
loop $-1 $-1 $59 $26 #
plane-surface $-1 76.695065738120348 17.811095684506228 122.00250552058525 0 1 0 0.86602541151947299 0 0.49999998660252726 forward_v I I I I #
face $-1 $60 $61 $21 $-1 $62 forward single #
loop $-1 $63 $64 $27 #
cone-surface $-1 40.80901785870077 23.723245232979416 4.6460060339154099 -0.86602541151947299 0 -0.49999998660252726 0.49999998660252726 0 -0.86602541151947299 1 I I 0 1 1 forward I I I I #
face $-1 $65 $66 $22 $-1 $67 reversed single #
loop $-1 $-1 $68 $28 #
plane-surface $-1 -120.97498032055626 17.811095684506228 45.307440968942814 0 1 0 -0.86602541151947299 0 0.49999998660252726 forward_v I I I I #
face $-1 $69 $70 $23 $-1 $71 forward single #
loop $-1 $72 $73 $29 #
cone-surface $-1 -40.809017858700763 23.723245232979416 4.6460060339154081 0.86602541151947299 0 -0.49999998660252726 0.49999998660252726 0 0.86602541151947299 1 I I 0 1 1 forward I I I I #
face $-1 $74 $75 $18 $-1 $76 reversed single #
loop $-1 $-1 $77 $30 #
plane-surface $-1 0 0 -9.4611316650684394 0 0 1 1 0 0 forward_v I I I I #
coedge $-1 $78 $79 $80 $81 forward $31 $-1 #
face $-1 $82 $83 $19 $-1 $84 reversed single #
loop $-1 $-1 $85 $33 #
plane-surface $-1 -32.839800135192291 -20.898797485937564 0 0 -1 0 0 0 -1 forward_v I I I I #
coedge $-1 $86 $87 $88 $89 forward $34 $-1 #
face $-1 $90 $91 $20 $-1 $92 reversed single #
loop $-1 $-1 $93 $36 #
plane-surface $-1 1.1864779168035966e-006 23.723245232979416 77.722590938149324 0.86602541151947299 0 0.49999998660252726 0.49999998660252726 0 -0.86602541151947299 forward_v I I I I #
coedge $-1 $94 $95 $96 $97 reversed $37 $-1 #
face $-1 $-1 $98 $21 $-1 $99 forward single #
loop $-1 $100 $101 $39 #
cone-surface $-1 39.339679294657266 23.723245232979416 3.7976830487418844 -0.86602541151947299 0 -0.49999998660252726 0.24999999330126363 0 -0.43301270575973649 1 I I -0.70710678118654746 0.70710678118654746 0.5 forward I I I I #
loop $-1 $-1 $102 $27 #
coedge $-1 $64 $64 $103 $104 reversed $40 $-1 #
face $-1 $105 $106 $22 $-1 $107 forward single #
loop $-1 $-1 $108 $42 #
plane-surface $-1 -44.279915768913824 23.723245232979416 1.0275263865068993 -0.86602541151947299 0 0.49999998660252726 0.49999998660252726 0 0.86602541151947299 forward_v I I I I #
coedge $-1 $109 $110 $111 $112 reversed $43 $-1 #
face $-1 $-1 $113 $23 $-1 $114 forward single #
loop $-1 $115 $116 $45 #
cone-surface $-1 -39.339679294657259 23.723245232979416 3.7976830487418827 0.86602541151947299 0 -0.49999998660252726 0.24999999330126363 0 0.43301270575973649 1 I I -0.70710678118654746 0.70710678118654746 0.5 forward I I I I #
loop $-1 $-1 $117 $29 #
coedge $-1 $73 $73 $118 $119 reversed $46 $-1 #
face $-1 $120 $121 $18 $-1 $122 reversed single #
loop $-1 $-1 $123 $48 #
plane-surface $-1 0 -29.635394781452604 0 0 1 0 0 0 1 forward_v I I I I #
coedge $-1 $124 $125 $126 $127 forward $49 $-1 #
coedge $-1 $128 $51 $129 $130 forward $31 $-1 #
coedge $-1 $51 $128 $131 $132 forward $31 $-1 #
coedge $-1 $133 $134 $51 $81 reversed $135 $-1 #
edge $-1 $136 -29.635394781452604 $137 29.635394781452604 $80 $138 forward 7 unknown #
face $-1 $139 $140 $19 $-1 $141 forward single #
loop $-1 $-1 $142 $52 #
plane-surface $-1 -31.069970534037562 -25.267096133695084 0 -1 0 0 0 0 1 forward_v I I I I #
coedge $-1 $143 $144 $145 $146 forward $53 $-1 #
coedge $-1 $147 $55 $148 $149 reversed $34 $-1 #
coedge $-1 $55 $147 $150 $151 reversed $34 $-1 #
coedge $-1 $144 $143 $55 $89 reversed $53 $-1 #
edge $-1 $152 -9.4611316650684394 $153 9.4611316650684394 $88 $154 forward 7 unknown #
face $-1 $155 $156 $20 $-1 $157 reversed single #
loop $-1 $-1 $96 $56 #
plane-surface $-1 44.279915768913845 0 0 -1 0 0 0 0 1 forward_v I I I I #
coedge $-1 $158 $159 $160 $161 reversed $57 $-1 #
coedge $-1 $95 $59 $162 $163 reversed $37 $-1 #
coedge $-1 $59 $94 $158 $164 reversed $37 $-1 #
coedge $-1 $160 $165 $59 $97 forward $91 $-1 #
edge $-1 $166 51.54012109522418 $167 59.973726373785745 $96 $168 forward 7 unknown #
loop $-1 $-1 $103 $60 #
plane-surface $-1 1.1864779168035966e-006 23.723245232979416 77.722590938149324 0.86602541151947299 0 0.49999998660252726 0.49999998660252726 0 -0.86602541151947299 forward_v I I I I #
loop $-1 $-1 $169 $39 #
coedge $-1 $101 $101 $102 $170 reversed $61 $-1 #
coedge $-1 $102 $102 $101 $170 forward $63 $-1 #
coedge $-1 $103 $103 $64 $104 forward $98 $-1 #
edge $-1 $171 0 $171 6.2831853071796004 $103 $172 forward 7 unknown #
face $-1 $173 $174 $22 $-1 $175 reversed single #
loop $-1 $-1 $111 $65 #
plane-surface $-1 0 0 9.4611316650684394 0 0 1 1 0 0 forward_v I I I I #
coedge $-1 $176 $177 $178 $179 reversed $66 $-1 #
coedge $-1 $110 $68 $180 $181 reversed $43 $-1 #
coedge $-1 $68 $109 $176 $182 reversed $43 $-1 #
coedge $-1 $178 $183 $68 $112 forward $106 $-1 #
edge $-1 $184 16.207574391364282 $185 21.07671849522292 $111 $186 forward 7 unknown #
loop $-1 $-1 $118 $69 #
plane-surface $-1 -44.279915768913824 23.723245232979416 1.0275263865068993 -0.86602541151947299 0 0.49999998660252726 0.49999998660252726 0 0.86602541151947299 forward_v I I I I #
loop $-1 $-1 $187 $45 #
coedge $-1 $116 $116 $117 $188 reversed $70 $-1 #
coedge $-1 $117 $117 $116 $188 forward $72 $-1 #
coedge $-1 $118 $118 $73 $119 forward $113 $-1 #
edge $-1 $189 0 $189 6.2831853071796004 $118 $190 forward 7 unknown #
face $-1 $191 $192 $18 $-1 $193 reversed single #
loop $-1 $-1 $194 $74 #
plane-surface $-1 -44.279915768913845 0 0 1 0 0 0 0 -1 forward_v I I I I #
coedge $-1 $195 $131 $196 $197 forward $75 $-1 #
coedge $-1 $198 $77 $195 $199 forward $49 $-1 #
coedge $-1 $77 $198 $200 $201 forward $49 $-1 #
coedge $-1 $134 $133 $77 $127 reversed $135 $-1 #
edge $-1 $202 -29.635394781452604 $203 29.635394781452604 $126 $204 forward 7 unknown #
coedge $-1 $79 $78 $205 $206 forward $31 $-1 #
coedge $-1 $207 $208 $78 $130 reversed $192 $-1 #
edge $-1 $137 -44.279915768913845 $209 44.279915768913845 $129 $210 forward 7 unknown #
coedge $-1 $123 $211 $79 $132 reversed $75 $-1 #
edge $-1 $212 -44.279915768913845 $136 44.279915768913845 $131 $213 forward 7 unknown #
coedge $-1 $126 $80 $211 $214 forward $135 $-1 #
coedge $-1 $80 $126 $207 $215 reversed $135 $-1 #
loop $-1 $-1 $133 $191 #
vertex $-1 $81 $216 #
vertex $-1 $81 $217 #
straight-curve $-1 44.279915768913845 0 9.4611316650684394 0 1 0 I I #
face $-1 $218 $219 $19 $-1 $220 reversed single #
loop $-1 $-1 $221 $82 #
plane-surface $-1 0 0 9.4611316650684394 0 0 1 1 0 0 forward_v I I I I #
coedge $-1 $222 $223 $224 $225 reversed $83 $-1 #
coedge $-1 $88 $85 $226 $227 reversed $53 $-1 #
coedge $-1 $85 $88 $228 $229 reversed $53 $-1 #
coedge $-1 $223 $222 $85 $146 reversed $83 $-1 #
edge $-1 $230 -9.4611316650684394 $231 9.4611316650684394 $145 $232 forward 7 unknown #
coedge $-1 $87 $86 $233 $234 reversed $34 $-1 #
coedge $-1 $226 $235 $86 $149 forward $219 $-1 #
edge $-1 $236 -17.001846714605062 $153 -8.2652494190900221 $148 $237 forward 7 unknown #
coedge $-1 $238 $228 $87 $151 forward $140 $-1 #
edge $-1 $152 8.2652494190900221 $239 17.001846714605062 $150 $240 forward 7 unknown #
vertex $-1 $151 $241 #
vertex $-1 $149 $242 #
straight-curve $-1 -34.609629736347017 -20.898797485937564 0 0 0 -1 I I #
face $-1 $-1 $243 $20 $-1 $244 forward single #
loop $-1 $-1 $245 $90 #
plane-surface $-1 0 29.635394781452604 0 0 -1 0 0 0 -1 forward_v I I I I #
coedge $-1 $246 $93 $95 $164 forward $57 $-1 #
coedge $-1 $93 $246 $245 $247 reversed $57 $-1 #
coedge $-1 $248 $96 $93 $161 forward $91 $-1 #
edge $-1 $167 5.9494730680165198 $249 17.773772164962896 $160 $250 forward 7 unknown #
coedge $-1 $251 $252 $94 $163 forward $243 $-1 #
edge $-1 $253 1.0632387959950407 $166 5.9323828998536712 $162 $254 forward 7 unknown #
edge $-1 $167 -88.559831537827705 $253 -78.821543069173543 $95 $255 forward 7 unknown #
coedge $-1 $96 $248 $251 $256 reversed $91 $-1 #
vertex $-1 $256 $257 #
vertex $-1 $97 $258 #
straight-curve $-1 44.279915768913845 17.811095684506228 61.001252760292623 0 0 -1 I I #
coedge $-1 $169 $169 $-1 $259 reversed $100 $-1 #
edge $-1 $260 0 $260 6.2831853071796004 $101 $261 forward 7 unknown #
vertex $-1 $104 $262 #
ellipse-curve $-1 41.84534371698453 23.723245232979416 5.2443290257876649 0.86602541151947299 0 0.49999998660252726 0.49999998660252726 0 -0.86602541151947299 1 I I #
face $-1 $-1 $263 $22 $-1 $264 reversed single #
loop $-1 $-1 $265 $105 #
plane-surface $-1 0 29.635394781452604 0 0 -1 0 0 0 -1 forward_v I I I I #
coedge $-1 $266 $108 $110 $182 forward $66 $-1 #
coedge $-1 $108 $266 $265 $267 reversed $66 $-1 #
coedge $-1 $268 $111 $108 $179 forward $106 $-1 #
edge $-1 $185 5.9494730680165198 $269 17.773772164962896 $178 $270 forward 7 unknown #
coedge $-1 $271 $272 $109 $181 forward $263 $-1 #
edge $-1 $273 -21.626194097964543 $184 -13.192588819402967 $180 $274 forward 7 unknown #
edge $-1 $185 -9.7382884686541402 $273 4.2579321629893116e-014 $110 $275 forward 7 unknown #
coedge $-1 $111 $268 $271 $276 forward $106 $-1 #
vertex $-1 $181 $277 #
vertex $-1 $112 $278 #
straight-curve $-1 -60.487490160278128 17.811095684506228 9.4611316650684394 1 0 0 I I #
coedge $-1 $187 $187 $-1 $279 reversed $115 $-1 #
edge $-1 $280 0 $280 6.2831853071796004 $116 $281 forward 7 unknown #
vertex $-1 $119 $282 #
ellipse-curve $-1 -41.845343716984523 23.723245232979416 5.2443290257876622 -0.86602541151947299 0 0.49999998660252726 0.49999998660252726 0 0.86602541151947299 1 I I #
face $-1 $-1 $135 $18 $-1 $283 reversed single #
loop $-1 $-1 $207 $120 #
plane-surface $-1 0 29.635394781452604 0 0 -1 0 0 0 -1 forward_v I I I I #
coedge $-1 $284 $205 $208 $285 forward $121 $-1 #
coedge $-1 $211 $123 $124 $199 reversed $75 $-1 #
coedge $-1 $205 $284 $123 $197 reversed $121 $-1 #
edge $-1 $212 -9.4611316650684394 $286 9.4611316650684394 $196 $287 forward 7 unknown #
coedge $-1 $125 $124 $284 $288 forward $49 $-1 #
edge $-1 $203 -44.279915768913845 $286 44.279915768913845 $195 $289 forward 7 unknown #
coedge $-1 $208 $207 $125 $201 reversed $192 $-1 #
edge $-1 $290 -44.279915768913845 $202 44.279915768913845 $200 $291 forward 7 unknown #
vertex $-1 $127 $292 #
vertex $-1 $214 $293 #
straight-curve $-1 44.279915768913845 0 -9.4611316650684394 0 -1 0 I I #
coedge $-1 $194 $196 $128 $206 reversed $121 $-1 #
edge $-1 $209 -29.635394781452604 $212 29.635394781452604 $205 $294 forward 7 unknown #
coedge $-1 $200 $129 $134 $215 forward $192 $-1 #
coedge $-1 $129 $200 $194 $285 reversed $192 $-1 #
vertex $-1 $130 $295 #
straight-curve $-1 0 29.635394781452604 9.4611316650684394 -1 0 0 I I #
coedge $-1 $131 $195 $133 $214 reversed $75 $-1 #
vertex $-1 $206 $296 #
straight-curve $-1 0 -29.635394781452604 9.4611316650684394 1 0 0 I I #
edge $-1 $136 -9.4611316650684394 $203 9.4611316650684394 $133 $297 forward 7 unknown #
edge $-1 $137 -9.4611316650684394 $202 9.4611316650684394 $134 $298 forward 7 unknown #
point $-1 44.279915768913845 -29.635394781452604 9.4611316650684394 #
point $-1 44.279915768913845 29.635394781452604 9.4611316650684394 #
face $-1 $-1 $299 $19 $-1 $300 reversed single #
loop $-1 $-1 $301 $139 #
plane-surface $-1 0 0 -9.4611316650684394 0 0 1 1 0 0 forward_v I I I I #
coedge $-1 $228 $238 $223 $302 forward $140 $-1 #
coedge $-1 $145 $142 $301 $303 reversed $83 $-1 #
coedge $-1 $142 $145 $221 $302 reversed $83 $-1 #
coedge $-1 $304 $305 $142 $225 forward $299 $-1 #
edge $-1 $306 -9.4611316650684394 $307 9.4611316650684394 $224 $308 forward 7 unknown #
coedge $-1 $301 $148 $143 $227 forward $219 $-1 #
edge $-1 $153 -18.189729668750871 $231 -14.650070466441417 $226 $309 forward 7 unknown #
coedge $-1 $150 $221 $144 $229 forward $140 $-1 #
edge $-1 $230 14.650070466441417 $152 18.189729668750871 $228 $310 forward 7 unknown #
vertex $-1 $229 $311 #
vertex $-1 $227 $312 #
straight-curve $-1 -31.069970534037562 -20.898797485937564 0 0 0 -1 I I #
coedge $-1 $305 $304 $147 $234 forward $299 $-1 #
edge $-1 $239 -9.4611316650684394 $236 9.4611316650684394 $233 $313 forward 7 unknown #
coedge $-1 $148 $301 $305 $314 forward $219 $-1 #
vertex $-1 $149 $315 #
straight-curve $-1 -34.609629736347017 -12.633548066847542 -9.4611316650684394 0 1 0 I I #
coedge $-1 $221 $150 $304 $316 forward $140 $-1 #
vertex $-1 $316 $317 #
straight-curve $-1 -34.609629736347017 -12.633548066847542 9.4611316650684394 0 -1 0 I I #
point $-1 -34.609629736347017 -20.898797485937564 9.4611316650684394 #
point $-1 -34.609629736347017 -20.898797485937564 -9.4611316650684394 #
loop $-1 $-1 $162 $155 #
plane-surface $-1 0 0 9.4611316650684394 0 0 1 1 0 0 forward_v I I I I #
coedge $-1 $318 $319 $159 $247 forward $156 $-1 #
coedge $-1 $159 $158 $252 $320 reversed $57 $-1 #
edge $-1 $249 -54.904962433661964 $321 -45.166673965007803 $245 $322 forward 7 unknown #
coedge $-1 $165 $160 $319 $323 reversed $91 $-1 #
vertex $-1 $247 $324 #
straight-curve $-1 44.279915768913845 11.861622616489708 1.0275263865068709 0 1 0 I I #
coedge $-1 $325 $162 $165 $256 forward $243 $-1 #
coedge $-1 $162 $325 $246 $320 forward $243 $-1 #
vertex $-1 $163 $326 #
straight-curve $-1 38.347532869060174 17.811095684506228 9.4611316650684358 1 0 0 I I #
straight-curve $-1 1.1864779168035966e-006 17.811095684506228 77.722590938149324 -0.49999998660252726 0 0.86602541151947299 I I #
edge $-1 $166 17.811095684506228 $327 29.635394781452604 $165 $328 forward 7 unknown #
point $-1 44.279915768913845 17.811095684506228 9.4611316650684394 #
point $-1 44.279915768913845 17.811095684506228 1.027526386506878 #
edge $-1 $329 1 $329 0 $169 $-1 forward 7 unknown #
vertex $-1 $170 $330 #
ellipse-curve $-1 39.772692000417003 23.723245232979416 4.0476830420431478 0.86602541151947299 0 0.49999998660252726 0.49999998660252726 0 -0.86602541151947299 1 I I #
point $-1 42.345343703587069 23.723245232979416 4.3783036142681979 #
loop $-1 $-1 $180 $173 #
plane-surface $-1 -44.279915768913845 0 0 1 0 0 0 0 -1 forward_v I I I I #
coedge $-1 $331 $332 $177 $267 forward $174 $-1 #
coedge $-1 $177 $176 $272 $333 reversed $66 $-1 #
edge $-1 $269 0.88675819609395456 $334 10.625046664748137 $265 $335 forward 7 unknown #
coedge $-1 $183 $178 $332 $336 forward $106 $-1 #
vertex $-1 $336 $337 #
straight-curve $-1 -39.410771665055208 11.861622616489708 9.4611316650684394 0 1 0 I I #
coedge $-1 $338 $180 $183 $276 reversed $263 $-1 #
coedge $-1 $180 $338 $266 $333 forward $263 $-1 #
vertex $-1 $181 $339 #
straight-curve $-1 -44.279915768913845 17.811095684506228 22.653720484471407 0 0 1 I I #
straight-curve $-1 -44.279915768913824 17.811095684506228 1.0275263865068993 -0.49999998660252726 0 -0.86602541151947299 I I #
edge $-1 $340 -29.635394781452604 $184 -17.811095684506228 $271 $341 forward 7 unknown #
point $-1 -44.279915768913845 17.811095684506228 9.4611316650684394 #
point $-1 -39.410771665055208 17.811095684506228 9.4611316650684394 #
edge $-1 $342 1 $342 0 $187 $-1 forward 7 unknown #
vertex $-1 $188 $343 #
ellipse-curve $-1 -39.772692000416995 23.723245232979416 4.047683042043146 -0.86602541151947299 0 0.49999998660252726 0.49999998660252726 0 0.86602541151947299 1 I I #
point $-1 -41.345343730382005 23.723245232979416 6.1103544373071426 #
plane-surface $-1 44.279915768913845 0 0 -1 0 0 0 0 1 forward_v I I I I #
coedge $-1 $196 $194 $198 $288 reversed $121 $-1 #
edge $-1 $209 -9.4611316650684394 $290 9.4611316650684394 $208 $344 forward 7 unknown #
vertex $-1 $288 $345 #
straight-curve $-1 -44.279915768913845 -29.635394781452604 0 0 0 -1 I I #
edge $-1 $286 -29.635394781452604 $290 29.635394781452604 $284 $346 forward 7 unknown #
straight-curve $-1 0 -29.635394781452604 -9.4611316650684394 -1 0 0 I I #
vertex $-1 $201 $347 #
straight-curve $-1 0 29.635394781452604 -9.4611316650684394 1 0 0 I I #
point $-1 44.279915768913845 29.635394781452604 -9.4611316650684394 #
point $-1 44.279915768913845 -29.635394781452604 -9.4611316650684394 #
straight-curve $-1 -44.279915768913845 0 9.4611316650684394 0 -1 0 I I #
point $-1 -44.279915768913845 29.635394781452604 9.4611316650684394 #
point $-1 -44.279915768913845 -29.635394781452604 9.4611316650684394 #
straight-curve $-1 44.279915768913845 -29.635394781452604 0 0 0 -1 I I #
straight-curve $-1 44.279915768913845 29.635394781452604 0 0 0 -1 I I #
loop $-1 $-1 $224 $218 #
plane-surface $-1 0 -29.635394781452604 0 0 1 0 0 0 1 forward_v I I I I #
coedge $-1 $235 $226 $222 $303 forward $219 $-1 #
edge $-1 $307 -17.001846714605062 $230 -8.2652494190900221 $221 $348 forward 7 unknown #
edge $-1 $231 8.2652494190900221 $306 17.001846714605062 $301 $349 forward 7 unknown #
coedge $-1 $233 $224 $238 $316 reversed $299 $-1 #
coedge $-1 $224 $233 $235 $314 reversed $299 $-1 #
vertex $-1 $314 $350 #
vertex $-1 $225 $351 #
straight-curve $-1 -31.069970534037562 -29.635394781452604 0 0 0 1 I I #
straight-curve $-1 -16.419900067596146 -20.898797485937564 -9.4611316650684394 1 0 0 I I #
straight-curve $-1 -16.419900067596146 -20.898797485937564 9.4611316650684394 -1 0 0 I I #
point $-1 -31.069970534037562 -20.898797485937564 9.4611316650684394 #
point $-1 -31.069970534037562 -20.898797485937564 -9.4611316650684394 #
straight-curve $-1 -34.609629736347017 -29.635394781452604 0 0 0 -1 I I #
edge $-1 $306 31.069970534037562 $236 34.609629736347017 $305 $352 forward 7 unknown #
point $-1 -34.609629736347017 -29.635394781452604 -9.4611316650684394 #
edge $-1 $239 -34.609629736347017 $307 -31.069970534037562 $304 $353 forward 7 unknown #
point $-1 -34.609629736347017 -29.635394781452604 9.4611316650684394 #
coedge $-1 $319 $245 $325 $354 reversed $156 $-1 #
coedge $-1 $245 $318 $248 $323 forward $156 $-1 #
edge $-1 $321 -17.773772164962896 $253 -5.9494730680165198 $252 $355 forward 7 unknown #
vertex $-1 $247 $356 #
straight-curve $-1 16.827435287670596 29.635394781452604 48.576619072580186 -0.49999998660252726 0 0.86602541151947299 I I #
edge $-1 $327 -9.4611316650684394 $249 -1.0275263865068696 $248 $357 forward 7 unknown #
point $-1 44.279915768913845 29.635394781452604 1.0275263865068696 #
coedge $-1 $252 $251 $318 $354 forward $243 $-1 #
point $-1 39.410771665055215 17.811095684506228 9.4611316650684358 #
vertex $-1 $256 $358 #
straight-curve $-1 44.279915768913845 0 9.4611316650684394 0 1 0 I I #
vertex $-1 $259 $359 #
point $-1 40.272691987019527 23.723245232979416 3.181657630523675 #
coedge $-1 $332 $265 $338 $360 reversed $174 $-1 #
coedge $-1 $265 $331 $268 $336 reversed $174 $-1 #
edge $-1 $334 -17.773772164962896 $273 -5.9494730680165198 $272 $361 forward 7 unknown #
vertex $-1 $267 $362 #
straight-curve $-1 -38.96739257888855 29.635394781452604 10.229086796758972 -0.49999998660252726 0 -0.86602541151947299 I I #
edge $-1 $269 39.410771665055208 $340 44.279915768913845 $332 $363 forward 7 unknown #
point $-1 -39.410771665055208 29.635394781452604 9.4611316650684394 #
coedge $-1 $272 $271 $331 $360 forward $263 $-1 #
point $-1 -44.279915768913845 17.811095684506228 1.0275263865068625 #
vertex $-1 $336 $364 #
straight-curve $-1 -44.279915768913845 0 9.4611316650684394 0 -1 0 I I #
vertex $-1 $279 $365 #
point $-1 -39.272692013814471 23.723245232979416 4.9137084535626192 #
straight-curve $-1 -44.279915768913845 29.635394781452604 0 0 0 -1 I I #
point $-1 -44.279915768913845 -29.635394781452604 -9.4611316650684394 #
straight-curve $-1 -44.279915768913845 0 -9.4611316650684394 0 1 0 I I #
point $-1 -44.279915768913845 29.635394781452604 -9.4611316650684394 #
straight-curve $-1 -31.069970534037562 -12.633548066847542 9.4611316650684394 0 1 0 I I #
straight-curve $-1 -31.069970534037562 -12.633548066847542 -9.4611316650684394 0 -1 0 I I #
point $-1 -31.069970534037562 -29.635394781452604 -9.4611316650684394 #
point $-1 -31.069970534037562 -29.635394781452604 9.4611316650684394 #
straight-curve $-1 0 -29.635394781452604 -9.4611316650684394 -1 0 0 I I #
straight-curve $-1 0 -29.635394781452604 9.4611316650684394 1 0 0 I I #
edge $-1 $327 -44.279915768913845 $321 -39.410771665055215 $318 $366 forward 7 unknown #
straight-curve $-1 39.410771665055222 11.861622616489708 9.4611316650684358 0 -1 0 I I #
point $-1 39.410771665055215 29.635394781452604 9.4611316650684358 #
straight-curve $-1 44.279915768913845 29.635394781452604 0 0 0 -1 I I #
point $-1 44.279915768913845 29.635394781452604 9.4611316650684394 #
point $-1 38.906666588897529 23.723245232979416 3.5476830554406207 #
edge $-1 $340 -9.4611316650684394 $334 -1.0275263865068625 $331 $367 forward 7 unknown #
straight-curve $-1 -44.279915768913845 11.861622616489708 1.0275263865068669 0 -1 0 I I #
point $-1 -44.279915768913845 29.635394781452604 1.0275263865068625 #
straight-curve $-1 0 29.635394781452604 9.4611316650684394 -1 0 0 I I #
point $-1 -44.279915768913845 29.635394781452604 9.4611316650684394 #
point $-1 -38.906666588897522 23.723245232979416 3.5476830554406189 #
straight-curve $-1 0 29.635394781452604 9.4611316650684394 -1 0 0 I I #
straight-curve $-1 -44.279915768913845 29.635394781452604 0 0 0 -1 I I #
End-of-ACIS-data 