500 0 7 0           
7 Unknown 11 ACIS 5.0 NT 24 Fri Mar 26 19:01:34 1999 
-1 9.9999999999999995e-007 1e-010 
body $-1 $7 $-1 $8 #
body $-1 $9 $-1 $10 #
body $-1 $11 $-1 $12 #
body $-1 $13 $-1 $14 #
body $-1 $15 $-1 $16 #
body $-1 $17 $-1 $18 #
body $-1 $19 $-1 $20 #
lump $-1 $-1 $21 $0 #
transform $-1 1 0 0 0 1 0 0 0 1 67.33115634632405 38.167952411585766 16.611976065167642 1 rotate no_reflect no_shear #
lump $-1 $-1 $22 $1 #
transform $-1 1 0 0 0 1 0 0 0 1 67.33115634632405 38.167952411585766 16.611976065167642 1 rotate no_reflect no_shear #
lump $-1 $-1 $23 $2 #
transform $-1 1 0 0 0 1 0 0 0 1 67.33115634632405 38.167952411585766 16.611976065167642 1 rotate no_reflect no_shear #
lump $-1 $-1 $24 $3 #
transform $-1 1 0 0 0 1 0 0 0 1 67.33115634632405 38.167952411585766 16.611976065167642 1 rotate no_reflect no_shear #
lump $-1 $-1 $25 $4 #
transform $-1 1 0 0 0 1 0 0 0 1 67.33115634632405 38.167952411585766 16.611976065167642 1 rotate no_reflect no_shear #
lump $-1 $-1 $26 $5 #
transform $-1 1 0 0 0 1 0 0 0 1 67.33115634632405 38.167952411585766 16.611976065167642 1 rotate no_reflect no_shear #
lump $-1 $-1 $27 $6 #
transform $-1 1 0 0 0 1 0 0 0 1 67.33115634632405 38.167952411585766 16.611976065167642 1 rotate no_reflect no_shear #
shell $-1 $-1 $-1 $28 $-1 $7 #
shell $-1 $-1 $-1 $29 $-1 $9 #
shell $-1 $-1 $-1 $30 $-1 $11 #
shell $-1 $-1 $-1 $31 $-1 $13 #
shell $-1 $-1 $-1 $32 $-1 $15 #
shell $-1 $-1 $-1 $33 $-1 $17 #
shell $-1 $-1 $-1 $34 $-1 $19 #
face $-1 $35 $36 $21 $-1 $37 forward single #
face $-1 $38 $39 $22 $-1 $40 reversed single #
face $-1 $41 $42 $23 $-1 $43 reversed single #
face $-1 $44 $45 $24 $-1 $46 forward single #
face $-1 $47 $48 $25 $-1 $49 forward single #
face $-1 $50 $51 $26 $-1 $52 reversed single #
face $-1 $53 $54 $27 $-1 $55 forward single #
face $-1 $56 $57 $21 $-1 $58 reversed single #
loop $-1 $-1 $59 $28 #
plane-surface $-1 0 0 16.611976065167642 0 0 1 1 0 0 forward_v I I I I #
face $-1 $60 $61 $22 $-1 $62 reversed single #
loop $-1 $-1 $63 $29 #
plane-surface $-1 -61.399666438588532 -37.401605370662921 0 0 1 0 0 0 1 forward_v I I I I #
face $-1 $64 $65 $23 $-1 $66 reversed single #
loop $-1 $-1 $67 $30 #
plane-surface $-1 -55.468176530853015 60.92083812789938 153.56024583191763 1 0 0 0 -0.61566148304635926 -0.78801074757464917 forward_v I I I I #
face $-1 $68 $69 $24 $-1 $70 forward single #
loop $-1 $71 $72 $31 #
cone-surface $-1 -46.991950022571416 27.170331375880757 7.6940538779898917 0 -0.61566148304635926 -0.78801074757464917 2 0 0 1 I I 0 1 2 forward I I I I #
face $-1 $73 $74 $25 $-1 $75 forward single #
loop $-1 $76 $77 $32 #
cone-surface $-1 -34.277610260149011 27.170331375880757 7.6940538779898917 0 -0.61566148304635926 -0.78801074757464917 2 0 0 1 I I 0 1 2 forward I I I I #
face $-1 $78 $79 $26 $-1 $80 reversed single #
loop $-1 $-1 $81 $33 #
plane-surface $-1 17.562414134953748 -121.07435155439407 117.02254423734946 -1 0 0 0 -0.61566148304635926 0.78801074757464917 forward_v I I I I #
face $-1 $82 $83 $27 $-1 $84 forward single #
loop $-1 $85 $86 $34 #
cone-surface $-1 8.2856622614981319 -33.730811341585699 12.753234470784211 0 0.61566148304635926 -0.78801074757464917 1 0 0 1 I I 0 1 1 forward I I I I #
face $-1 $87 $88 $21 $-1 $89 reversed single #
loop $-1 $-1 $90 $35 #
plane-surface $-1 0 0 -16.611976065167642 0 0 1 1 0 0 forward_v I I I I #
coedge $-1 $91 $92 $93 $94 forward $36 $-1 #
face $-1 $95 $96 $22 $-1 $97 reversed single #
loop $-1 $-1 $98 $38 #
plane-surface $-1 -61.399666438588532 -32.941563308963467 0 0 -1 0 0 0 -1 forward_v I I I I #
coedge $-1 $99 $100 $101 $102 reversed $39 $-1 #
face $-1 $103 $104 $23 $-1 $105 reversed single #
loop $-1 $-1 $106 $41 #
plane-surface $-1 -40.63478014136021 -21.985561014908917 47.444896136852833 0 0.61566148304635926 0.78801074757464917 1 0 0 forward_v I I I I #
coedge $-1 $107 $108 $109 $110 reversed $42 $-1 #
face $-1 $-1 $111 $24 $-1 $112 forward single #
loop $-1 $113 $114 $44 #
cone-surface $-1 -46.991950022571416 25.901636947958174 6.070199093954642 0 -0.61566148304635926 -0.78801074757464917 1 0 0 1 I I -0.70710678118654746 0.70710678118654746 1 forward I I I I #
loop $-1 $-1 $115 $31 #
coedge $-1 $72 $72 $116 $117 reversed $45 $-1 #
face $-1 $-1 $118 $25 $-1 $119 forward single #
loop $-1 $120 $121 $47 #
cone-surface $-1 -34.277610260149011 25.901636947958174 6.070199093954642 0 -0.61566148304635926 -0.78801074757464917 1 0 0 1 I I -0.70710678118654746 0.70710678118654746 1 forward I I I I #
loop $-1 $-1 $122 $32 #
coedge $-1 $77 $77 $123 $124 reversed $48 $-1 #
face $-1 $125 $126 $26 $-1 $127 reversed single #
loop $-1 $-1 $128 $50 #
plane-surface $-1 8.2856622614981319 -38.167952411585787 10.907194542284685 0 -0.61566148304635926 0.78801074757464917 1 0 0 forward_v I I I I #
coedge $-1 $129 $130 $131 $132 reversed $51 $-1 #
face $-1 $-1 $133 $27 $-1 $134 forward single #
loop $-1 $135 $136 $53 #
cone-surface $-1 8.2856622614981319 -32.636733143183406 11.35287826405494 0 0.61566148304635926 -0.78801074757464917 0.5 0 0 1 I I -0.70710678118654746 0.70710678118654746 0.5 forward I I I I #
loop $-1 $-1 $137 $34 #
coedge $-1 $86 $86 $138 $139 reversed $54 $-1 #
face $-1 $140 $141 $21 $-1 $142 reversed single #
loop $-1 $-1 $143 $56 #
plane-surface $-1 0 -38.167952411585766 0 0 1 0 0 0 1 forward_v I I I I #
coedge $-1 $144 $145 $146 $147 forward $57 $-1 #
coedge $-1 $148 $59 $149 $150 forward $36 $-1 #
coedge $-1 $59 $148 $151 $152 forward $36 $-1 #
coedge $-1 $153 $154 $59 $94 reversed $155 $-1 #
edge $-1 $156 -38.167952411585766 $157 38.167952411585766 $93 $158 forward 7 unknown #
face $-1 $159 $160 $22 $-1 $161 reversed single #
loop $-1 $-1 $162 $60 #
plane-surface $-1 -55.468176530853015 -35.171584339813194 0 -1 0 0 0 0 1 forward_v I I I I #
coedge $-1 $163 $164 $165 $166 forward $61 $-1 #
coedge $-1 $167 $63 $168 $169 reversed $39 $-1 #
coedge $-1 $63 $167 $170 $171 reversed $39 $-1 #
coedge $-1 $172 $173 $63 $102 forward $174 $-1 #
edge $-1 $175 -16.611976065167642 $176 16.611976065167642 $101 $177 forward 7 unknown #
face $-1 $178 $179 $23 $-1 $180 reversed single #
loop $-1 $-1 $181 $64 #
plane-surface $-1 -25.801383751867409 60.92083812789938 153.56024583191763 -1 0 0 0 0.61566148304635926 0.78801074757464917 forward_v I I I I #
coedge $-1 $182 $183 $184 $185 reversed $65 $-1 #
coedge $-1 $108 $67 $186 $187 reversed $42 $-1 #
coedge $-1 $67 $107 $182 $188 reversed $42 $-1 #
coedge $-1 $184 $189 $67 $110 forward $190 $-1 #
edge $-1 $191 -7.7075333476360761 $192 12.981642834021553 $109 $193 forward 7 unknown #
loop $-1 $-1 $116 $68 #
plane-surface $-1 -40.63478014136021 -21.985561014908917 47.444896136852833 0 0.61566148304635926 0.78801074757464917 1 0 0 forward_v I I I I #
loop $-1 $-1 $194 $44 #
coedge $-1 $114 $114 $115 $195 reversed $69 $-1 #
coedge $-1 $115 $115 $114 $195 forward $71 $-1 #
coedge $-1 $116 $116 $72 $117 forward $111 $-1 #
edge $-1 $196 1.9647103961553225e-016 $196 6.2831853071796004 $116 $197 forward 7 unknown #
loop $-1 $-1 $123 $73 #
plane-surface $-1 -40.63478014136021 -21.985561014908917 47.444896136852833 0 0.61566148304635926 0.78801074757464917 1 0 0 forward_v I I I I #
loop $-1 $-1 $198 $47 #
coedge $-1 $121 $121 $122 $199 reversed $74 $-1 #
coedge $-1 $122 $122 $121 $199 forward $76 $-1 #
coedge $-1 $123 $123 $77 $124 forward $118 $-1 #
edge $-1 $200 1.9647103961553225e-016 $200 6.2831853071796004 $123 $201 forward 7 unknown #
face $-1 $202 $203 $26 $-1 $204 forward single #
loop $-1 $-1 $205 $78 #
plane-surface $-1 -0.99108961195748435 -121.07435155439407 117.02254423734946 1 0 0 0 0.61566148304635926 -0.78801074757464917 forward_v I I I I #
coedge $-1 $206 $207 $208 $209 reversed $79 $-1 #
coedge $-1 $130 $81 $210 $211 reversed $51 $-1 #
coedge $-1 $81 $129 $206 $212 reversed $51 $-1 #
coedge $-1 $208 $213 $81 $132 forward $203 $-1 #
edge $-1 $214 22.369223365611269 $215 29.67101059185314 $131 $216 forward 7 unknown #
loop $-1 $-1 $138 $82 #
plane-surface $-1 8.2856622614981319 -38.167952411585787 10.907194542284685 0 -0.61566148304635926 0.78801074757464917 1 0 0 forward_v I I I I #
loop $-1 $-1 $217 $53 #
coedge $-1 $136 $136 $137 $218 reversed $83 $-1 #
coedge $-1 $137 $137 $136 $218 forward $85 $-1 #
coedge $-1 $138 $138 $86 $139 forward $133 $-1 #
edge $-1 $219 2.6196138615404312e-016 $219 6.2831853071796004 $138 $220 forward 7 unknown #
face $-1 $221 $222 $21 $-1 $223 reversed single #
loop $-1 $-1 $224 $87 #
plane-surface $-1 -67.33115634632405 0 0 1 0 0 0 0 -1 forward_v I I I I #
coedge $-1 $225 $151 $226 $227 forward $88 $-1 #
coedge $-1 $228 $90 $225 $229 forward $57 $-1 #
coedge $-1 $90 $228 $230 $231 forward $57 $-1 #
coedge $-1 $154 $153 $90 $147 reversed $155 $-1 #
edge $-1 $232 -38.167952411585766 $233 38.167952411585766 $146 $234 forward 7 unknown #
coedge $-1 $92 $91 $235 $236 forward $36 $-1 #
coedge $-1 $237 $238 $91 $150 reversed $222 $-1 #
edge $-1 $157 -67.33115634632405 $239 67.33115634632405 $149 $240 forward 7 unknown #
coedge $-1 $143 $241 $92 $152 reversed $88 $-1 #
edge $-1 $242 -67.33115634632405 $156 67.33115634632405 $151 $243 forward 7 unknown #
coedge $-1 $146 $93 $241 $244 forward $155 $-1 #
coedge $-1 $93 $146 $237 $245 reversed $155 $-1 #
loop $-1 $-1 $153 $221 #
vertex $-1 $94 $246 #
vertex $-1 $94 $247 #
straight-curve $-1 67.33115634632405 0 16.611976065167642 0 1 0 I I #
face $-1 $248 $249 $22 $-1 $250 forward single #
loop $-1 $-1 $251 $95 #
plane-surface $-1 0 0 -16.611976065167642 0 0 1 1 0 0 forward_v I I I I #
coedge $-1 $252 $253 $167 $254 forward $96 $-1 #
coedge $-1 $255 $98 $251 $256 reversed $61 $-1 #
coedge $-1 $98 $255 $257 $258 reversed $61 $-1 #
coedge $-1 $253 $252 $98 $166 reversed $96 $-1 #
edge $-1 $259 -16.611976065167642 $260 16.611976065167642 $165 $261 forward 7 unknown #
coedge $-1 $100 $99 $162 $254 reversed $39 $-1 #
coedge $-1 $262 $263 $99 $169 forward $160 $-1 #
edge $-1 $264 24.768343311558748 $175 36.631323127029788 $168 $265 forward 7 unknown #
coedge $-1 $266 $267 $100 $171 forward $249 $-1 #
edge $-1 $176 -36.631323127029788 $268 -24.768343311558748 $170 $269 forward 7 unknown #
coedge $-1 $270 $101 $267 $271 reversed $174 $-1 #
coedge $-1 $101 $270 $262 $272 reversed $174 $-1 #
loop $-1 $-1 $270 $248 #
vertex $-1 $272 $273 #
vertex $-1 $102 $274 #
straight-curve $-1 -67.33115634632405 -37.401605370662921 0 0 0 1 I I #
face $-1 $-1 $190 $23 $-1 $275 forward single #
loop $-1 $-1 $276 $103 #
plane-surface $-1 0 38.167952411585766 0 0 -1 0 0 0 -1 forward_v I I I I #
coedge $-1 $277 $278 $279 $280 reversed $104 $-1 #
coedge $-1 $281 $106 $108 $188 forward $65 $-1 #
coedge $-1 $106 $281 $277 $282 forward $65 $-1 #
coedge $-1 $279 $109 $106 $185 forward $190 $-1 #
edge $-1 $192 -35.15078646017291 $283 -5.4839936811873038 $184 $284 forward 7 unknown #
coedge $-1 $285 $286 $107 $187 forward $179 $-1 #
edge $-1 $287 -76.332303152225506 $191 -60.168146850791175 $186 $288 forward 7 unknown #
edge $-1 $192 50.080963192825678 $287 76.33590482317156 $108 $289 forward 7 unknown #
coedge $-1 $109 $279 $285 $290 forward $190 $-1 #
loop $-1 $-1 $279 $178 #
vertex $-1 $187 $291 #
vertex $-1 $110 $292 #
straight-curve $-1 -55.468176530853015 30.46041906394969 16.611976065167639 0 -1 0 I I #
coedge $-1 $194 $194 $-1 $293 reversed $113 $-1 #
edge $-1 $294 0 $294 6.2831853071796004 $114 $295 forward 7 unknown #
vertex $-1 $117 $296 #
ellipse-curve $-1 -46.991950022571416 27.823364320756962 8.5298979144504656 0 0.61566148304635926 0.78801074757464917 2 0 0 1 I I #
coedge $-1 $198 $198 $-1 $297 reversed $120 $-1 #
edge $-1 $298 0 $298 6.2831853071796004 $121 $299 forward 7 unknown #
vertex $-1 $124 $300 #
ellipse-curve $-1 -34.277610260149011 27.823364320756962 8.5298979144504656 0 0.61566148304635926 0.78801074757464917 2 0 0 1 I I #
face $-1 $-1 $301 $26 $-1 $302 reversed single #
loop $-1 $-1 $131 $125 #
plane-surface $-1 0 0 16.611976065167642 0 0 1 1 0 0 forward_v I I I I #
coedge $-1 $303 $304 $305 $306 reversed $126 $-1 #
coedge $-1 $307 $128 $130 $212 forward $79 $-1 #
coedge $-1 $128 $307 $303 $308 forward $79 $-1 #
coedge $-1 $305 $131 $128 $209 forward $203 $-1 #
edge $-1 $215 -13.419583004204682 $309 5.1339207427065503 $208 $310 forward 7 unknown #
coedge $-1 $311 $312 $129 $211 forward $301 $-1 #
edge $-1 $313 -47.604077576390033 $214 -41.899296053507086 $210 $314 forward 7 unknown #
edge $-1 $215 -9.266101063615487 $313 -2.6640169747183902e-014 $130 $315 forward 7 unknown #
coedge $-1 $131 $305 $311 $316 forward $203 $-1 #
vertex $-1 $211 $317 #
vertex $-1 $132 $318 #
straight-curve $-1 17.562414134953748 -60.537175777197035 16.611976065167639 0 1 0 I I #
coedge $-1 $217 $217 $-1 $319 reversed $135 $-1 #
edge $-1 $320 0 $320 6.2831853071796004 $136 $321 forward 7 unknown #
vertex $-1 $139 $322 #
ellipse-curve $-1 8.2856622614981319 -34.517058798464831 13.759585303726174 0 -0.61566148304635926 0.78801074757464917 1 0 0 1 I I #
face $-1 $-1 $155 $21 $-1 $323 reversed single #
loop $-1 $-1 $237 $140 #
plane-surface $-1 0 38.167952411585766 0 0 -1 0 0 0 -1 forward_v I I I I #
coedge $-1 $324 $235 $238 $325 forward $141 $-1 #
coedge $-1 $241 $143 $144 $229 reversed $88 $-1 #
coedge $-1 $235 $324 $143 $227 reversed $141 $-1 #
edge $-1 $242 -16.611976065167642 $326 16.611976065167642 $226 $327 forward 7 unknown #
coedge $-1 $145 $144 $324 $328 forward $57 $-1 #
edge $-1 $233 -67.33115634632405 $326 67.33115634632405 $225 $329 forward 7 unknown #
coedge $-1 $238 $237 $145 $231 reversed $222 $-1 #
edge $-1 $330 -67.33115634632405 $232 67.33115634632405 $230 $331 forward 7 unknown #
vertex $-1 $147 $332 #
vertex $-1 $244 $333 #
straight-curve $-1 67.33115634632405 0 -16.611976065167642 0 -1 0 I I #
coedge $-1 $224 $226 $148 $236 reversed $141 $-1 #
edge $-1 $239 -38.167952411585766 $242 38.167952411585766 $235 $334 forward 7 unknown #
coedge $-1 $230 $149 $154 $245 forward $222 $-1 #
coedge $-1 $149 $230 $224 $325 reversed $222 $-1 #
vertex $-1 $150 $335 #
straight-curve $-1 0 38.167952411585766 16.611976065167642 -1 0 0 I I #
coedge $-1 $151 $225 $153 $244 reversed $88 $-1 #
vertex $-1 $236 $336 #
straight-curve $-1 0 -38.167952411585766 16.611976065167642 1 0 0 I I #
edge $-1 $156 -16.611976065167642 $233 16.611976065167642 $153 $337 forward 7 unknown #
edge $-1 $157 -16.611976065167642 $232 16.611976065167642 $154 $338 forward 7 unknown #
point $-1 67.33115634632405 -38.167952411585766 16.611976065167642 #
point $-1 67.33115634632405 38.167952411585766 16.611976065167642 #
face $-1 $-1 $174 $22 $-1 $339 reversed single #
loop $-1 $-1 $257 $159 #
plane-surface $-1 0 0 16.611976065167642 0 0 1 1 0 0 forward_v I I I I #
coedge $-1 $263 $262 $163 $256 forward $160 $-1 #
coedge $-1 $165 $162 $263 $340 reversed $96 $-1 #
coedge $-1 $162 $165 $266 $341 reversed $96 $-1 #
edge $-1 $268 -16.611976065167642 $264 16.611976065167642 $162 $342 forward 7 unknown #
coedge $-1 $164 $163 $270 $343 reversed $61 $-1 #
edge $-1 $344 -36.631323127029788 $260 -24.768343311558748 $251 $345 forward 7 unknown #
coedge $-1 $267 $266 $164 $258 forward $249 $-1 #
edge $-1 $259 24.768343311558748 $346 36.631323127029788 $257 $347 forward 7 unknown #
vertex $-1 $258 $348 #
vertex $-1 $256 $349 #
straight-curve $-1 -55.468176530853015 -32.941563308963467 0 0 0 -1 I I #
coedge $-1 $251 $168 $173 $272 forward $160 $-1 #
coedge $-1 $168 $251 $252 $340 forward $160 $-1 #
vertex $-1 $169 $350 #
straight-curve $-1 -30.699833219294266 -37.401605370662921 -16.611976065167642 -1 0 0 I I #
coedge $-1 $257 $170 $253 $341 forward $249 $-1 #
coedge $-1 $170 $257 $172 $271 forward $249 $-1 #
vertex $-1 $171 $351 #
straight-curve $-1 -30.699833219294266 -37.401605370662921 16.611976065167642 1 0 0 I I #
coedge $-1 $173 $172 $255 $343 forward $174 $-1 #
edge $-1 $346 32.941563308963467 $176 37.401605370662921 $172 $352 forward 7 unknown #
edge $-1 $175 -37.401605370662921 $344 -32.941563308963467 $173 $353 forward 7 unknown #
point $-1 -67.33115634632405 -37.401605370662921 -16.611976065167642 #
point $-1 -67.33115634632405 -37.401605370662921 16.611976065167642 #
plane-surface $-1 0 0 16.611976065167642 0 0 1 1 0 0 forward_v I I I I #
coedge $-1 $286 $285 $278 $354 forward $179 $-1 #
coedge $-1 $278 $181 $183 $282 reversed $104 $-1 #
coedge $-1 $181 $277 $276 $354 reversed $104 $-1 #
coedge $-1 $189 $184 $181 $280 forward $190 $-1 #
edge $-1 $283 -12.981642834021553 $355 7.7075333476360761 $279 $356 forward 7 unknown #
coedge $-1 $183 $182 $286 $357 reversed $65 $-1 #
edge $-1 $358 -76.33590482317156 $283 -50.080963192825678 $277 $359 forward 7 unknown #
vertex $-1 $185 $360 #
straight-curve $-1 -20.317390070680105 17.47877622992813 16.611976065167639 1 0 0 I I #
coedge $-1 $276 $186 $189 $290 reversed $179 $-1 #
coedge $-1 $186 $276 $281 $357 forward $179 $-1 #
vertex $-1 $187 $361 #
straight-curve $-1 -55.468176530853015 38.167952411585766 76.780122915958813 0 0 1 I I #
straight-curve $-1 -55.468176530853015 -21.985561014908917 47.444896136852833 0 0.78801074757464917 -0.61566148304635926 I I #
edge $-1 $355 25.801383751867409 $191 55.468176530853015 $285 $362 forward 7 unknown #
point $-1 -55.468176530853015 38.167952411585766 16.611976065167642 #
point $-1 -55.468176530853015 17.478776229928137 16.611976065167642 #
edge $-1 $363 1 $363 0 $194 $-1 forward 7 unknown #
vertex $-1 $195 $364 #
ellipse-curve $-1 -46.991950022571416 26.517298431004534 6.8582098415292911 0 0.61566148304635926 0.78801074757464917 2 0 0 1 I I #
point $-1 -44.991950022571416 27.823364320756983 8.5298979144504923 #
edge $-1 $365 1 $365 0 $198 $-1 forward 7 unknown #
vertex $-1 $199 $366 #
ellipse-curve $-1 -34.277610260149011 26.517298431004534 6.8582098415292911 0 0.61566148304635926 0.78801074757464917 2 0 0 1 I I #
point $-1 -32.277610260149011 27.823364320756983 8.5298979144504923 #
loop $-1 $-1 $210 $202 #
plane-surface $-1 0 -38.167952411585766 0 0 1 0 0 0 1 forward_v I I I I #
coedge $-1 $304 $205 $207 $308 reversed $126 $-1 #
coedge $-1 $205 $303 $367 $368 reversed $126 $-1 #
coedge $-1 $213 $208 $205 $306 forward $203 $-1 #
edge $-1 $309 -29.67101059185314 $369 -22.369223365611269 $305 $370 forward 7 unknown #
coedge $-1 $207 $206 $312 $371 reversed $79 $-1 #
edge $-1 $372 2.6640169747183902e-014 $309 9.266101063615487 $303 $373 forward 7 unknown #
vertex $-1 $209 $374 #
straight-curve $-1 4.1428311307490659 -30.866165185343895 16.611976065167642 -1 0 0 I I #
coedge $-1 $367 $210 $213 $316 reversed $301 $-1 #
coedge $-1 $210 $367 $307 $371 forward $301 $-1 #
vertex $-1 $211 $375 #
straight-curve $-1 17.562414134953748 -38.167952411585766 58.511272118674732 0 0 1 I I #
straight-curve $-1 17.562414134953748 -38.167952411585787 10.907194542284685 0 -0.78801074757464917 -0.61566148304635926 I I #
edge $-1 $369 -0.99108961195748435 $214 17.562414134953748 $311 $376 forward 7 unknown #
point $-1 17.562414134953748 -38.167952411585766 16.611976065167642 #
point $-1 17.562414134953748 -30.866165185343895 16.611976065167642 #
edge $-1 $377 1 $377 0 $217 $-1 forward 7 unknown #
vertex $-1 $218 $378 #
ellipse-curve $-1 8.2856622614981319 -32.944563884706582 11.746883637842265 0 -0.61566148304635926 0.78801074757464917 1 0 0 1 I I #
point $-1 9.2856622614981319 -34.517058798464817 13.759585303726157 #
plane-surface $-1 67.33115634632405 0 0 -1 0 0 0 0 1 forward_v I I I I #
coedge $-1 $226 $224 $228 $328 reversed $141 $-1 #
edge $-1 $239 -16.611976065167642 $330 16.611976065167642 $238 $379 forward 7 unknown #
vertex $-1 $328 $380 #
straight-curve $-1 -67.33115634632405 -38.167952411585766 0 0 0 -1 I I #
edge $-1 $326 -38.167952411585766 $330 38.167952411585766 $324 $381 forward 7 unknown #
straight-curve $-1 0 -38.167952411585766 -16.611976065167642 -1 0 0 I I #
vertex $-1 $231 $382 #
straight-curve $-1 0 38.167952411585766 -16.611976065167642 1 0 0 I I #
point $-1 67.33115634632405 38.167952411585766 -16.611976065167642 #
point $-1 67.33115634632405 -38.167952411585766 -16.611976065167642 #
straight-curve $-1 -67.33115634632405 0 16.611976065167642 0 -1 0 I I #
point $-1 -67.33115634632405 38.167952411585766 16.611976065167642 #
point $-1 -67.33115634632405 -38.167952411585766 16.611976065167642 #
straight-curve $-1 67.33115634632405 -38.167952411585766 0 0 0 -1 I I #
straight-curve $-1 67.33115634632405 38.167952411585766 0 0 0 -1 I I #
plane-surface $-1 -67.33115634632405 0 0 1 0 0 0 0 -1 forward_v I I I I #
edge $-1 $260 15.35577113905687 $264 19.815813200756324 $263 $383 forward 7 unknown #
edge $-1 $268 -19.815813200756324 $259 -15.35577113905687 $266 $384 forward 7 unknown #
straight-curve $-1 -55.468176530853015 -37.401605370662921 0 0 0 -1 I I #
edge $-1 $346 -16.611976065167642 $344 16.611976065167642 $270 $385 forward 7 unknown #
vertex $-1 $343 $386 #
straight-curve $-1 -30.699833219294266 -32.941563308963467 -16.611976065167642 1 0 0 I I #
vertex $-1 $271 $387 #
straight-curve $-1 -30.699833219294266 -32.941563308963467 16.611976065167642 -1 0 0 I I #
point $-1 -55.468176530853015 -32.941563308963467 16.611976065167642 #
point $-1 -55.468176530853015 -32.941563308963467 -16.611976065167642 #
point $-1 -55.468176530853015 -37.401605370662921 -16.611976065167642 #
point $-1 -55.468176530853015 -37.401605370662921 16.611976065167642 #
straight-curve $-1 -67.33115634632405 0 16.611976065167642 0 -1 0 I I #
straight-curve $-1 -67.33115634632405 0 -16.611976065167642 0 1 0 I I #
edge $-1 $355 60.168146850791175 $358 76.332303152225506 $276 $388 forward 7 unknown #
vertex $-1 $290 $389 #
straight-curve $-1 -25.801383751867409 30.46041906394969 16.611976065167639 0 1 0 I I #
edge $-1 $358 5.4839936811873038 $287 35.15078646017291 $286 $390 forward 7 unknown #
vertex $-1 $357 $391 #
straight-curve $-1 -25.801383751867409 -21.985561014908917 47.444896136852833 0 -0.78801074757464917 0.61566148304635926 I I #
point $-1 -25.801383751867409 17.478776229928137 16.611976065167642 #
point $-1 -55.468176530853015 38.167952411585773 0.44781976373329968 #
straight-curve $-1 0 38.167952411585766 16.611976065167642 -1 0 0 I I #
vertex $-1 $293 $392 #
point $-1 -44.991950022571416 26.517298431004534 6.8582098415292911 #
vertex $-1 $297 $393 #
point $-1 -32.277610260149011 26.517298431004534 6.8582098415292911 #
coedge $-1 $312 $311 $304 $368 forward $301 $-1 #
edge $-1 $369 41.899296053507086 $372 47.604077576390033 $367 $394 forward 7 unknown #
vertex $-1 $316 $395 #
straight-curve $-1 -0.99108961195748435 -60.537175777197035 16.611976065167639 0 -1 0 I I #
edge $-1 $372 -5.1339207427065503 $313 13.419583004204682 $312 $396 forward 7 unknown #
vertex $-1 $371 $397 #
straight-curve $-1 -0.99108961195748435 -38.167952411585787 10.907194542284685 0 0.78801074757464917 0.61566148304635926 I I #
point $-1 -0.99108961195748435 -30.866165185343895 16.611976065167642 #
point $-1 17.562414134953748 -38.167952411585766 10.907194542284701 #
straight-curve $-1 0 -38.167952411585766 16.611976065167642 1 0 0 I I #
vertex $-1 $319 $398 #
point $-1 9.2856622614981319 -32.944563884706582 11.746883637842265 #
straight-curve $-1 -67.33115634632405 38.167952411585766 0 0 0 -1 I I #
point $-1 -67.33115634632405 -38.167952411585766 -16.611976065167642 #
straight-curve $-1 -67.33115634632405 0 -16.611976065167642 0 1 0 I I #
point $-1 -67.33115634632405 38.167952411585766 -16.611976065167642 #
straight-curve $-1 -55.468176530853015 -17.585792169906597 -16.611976065167642 0 -1 0 I I #
straight-curve $-1 -55.468176530853015 -17.585792169906597 16.611976065167642 0 1 0 I I #
straight-curve $-1 -67.33115634632405 -32.941563308963467 0 0 0 -1 I I #
point $-1 -67.33115634632405 -32.941563308963467 -16.611976065167642 #
point $-1 -67.33115634632405 -32.941563308963467 16.611976065167642 #
straight-curve $-1 -25.801383751867409 38.167952411585766 76.780122915958813 0 0 -1 I I #
point $-1 -25.801383751867409 38.167952411585766 16.611976065167642 #
straight-curve $-1 -20.317390070680105 38.167952411585766 0.44781976373330679 -1 0 0 I I #
point $-1 -25.801383751867409 38.167952411585773 0.44781976373329968 #
point $-1 -46.991950022571416 25.285975464911814 5.2821883463799928 #
point $-1 -34.277610260149011 25.285975464911814 5.2821883463799928 #
straight-curve $-1 -0.99108961195748435 -38.167952411585766 58.511272118674732 0 0 -1 I I #
point $-1 -0.99108961195748435 -38.167952411585766 16.611976065167642 #
straight-curve $-1 4.1428311307490659 -38.167952411585766 10.907194542284701 1 0 0 I I #
point $-1 -0.99108961195748435 -38.167952411585766 10.907194542284701 #
point $-1 8.2856622614981319 -32.32890240166023 10.958872890267616 #
End-of-ACIS-data 