500 0 5 0           
7 Unknown 11 ACIS 5.0 NT 24 Fri Mar 26 00:59:59 1999 
-1 9.9999999999999995e-007 1e-010 
body $-1 $5 $-1 $6 #
body $-1 $7 $-1 $8 #
body $-1 $9 $-1 $10 #
body $-1 $11 $-1 $12 #
body $-1 $13 $-1 $14 #
lump $-1 $-1 $15 $0 #
transform $-1 1 0 0 0 1 0 0 0 1 47.384258552812284 32.641444821922484 10.191896912063086 1 rotate no_reflect no_shear #
lump $-1 $-1 $16 $1 #
transform $-1 1 0 0 0 1 0 0 0 1 47.384258552812284 32.641444821922484 10.191896912063086 1 rotate no_reflect no_shear #
lump $-1 $-1 $17 $2 #
transform $-1 1 0 0 0 1 0 0 0 1 47.384258552812284 32.641444821922484 10.191896912063086 1 rotate no_reflect no_shear #
lump $-1 $-1 $18 $3 #
transform $-1 1 0 0 0 1 0 0 0 1 47.384258552812284 32.641444821922484 10.191896912063086 1 rotate no_reflect no_shear #
lump $-1 $-1 $19 $4 #
transform $-1 1 0 0 0 1 0 0 0 1 47.384258552812284 32.641444821922484 10.191896912063086 1 rotate no_reflect no_shear #
shell $-1 $-1 $-1 $20 $-1 $5 #
shell $-1 $-1 $-1 $21 $-1 $7 #
shell $-1 $-1 $-1 $22 $-1 $9 #
shell $-1 $-1 $-1 $23 $-1 $11 #
shell $-1 $-1 $-1 $24 $-1 $13 #
face $-1 $25 $26 $15 $-1 $27 forward single #
face $-1 $28 $29 $16 $-1 $30 reversed single #
face $-1 $31 $32 $17 $-1 $33 reversed single #
face $-1 $34 $35 $18 $-1 $36 forward single #
face $-1 $37 $38 $19 $-1 $39 reversed single #
face $-1 $40 $41 $15 $-1 $42 reversed single #
loop $-1 $-1 $43 $20 #
plane-surface $-1 0 0 10.191896912063086 0 0 1 1 0 0 forward_v I I I I #
face $-1 $44 $45 $16 $-1 $46 reversed single #
loop $-1 $-1 $47 $21 #
plane-surface $-1 0 -36.439569498402882 7.1918969120630862 0 0 1 1 0 0 forward_v I I I I #
face $-1 $48 $49 $17 $-1 $50 reversed single #
loop $-1 $-1 $51 $22 #
plane-surface $-1 0 36.439569498402882 7.1918969120630862 0 0 1 1 0 0 forward_v I I I I #
face $-1 $52 $53 $18 $-1 $54 forward single #
loop $-1 $-1 $55 $23 #
plane-surface $-1 26.418455647652721 7.2978373741010909 137.59642449776402 0 -1 0 -0.5877852598018023 0 -0.80901698891910034 forward_v I I I I #
face $-1 $56 $57 $19 $-1 $58 reversed single #
loop $-1 $59 $60 $24 #
cone-surface $-1 42.939568525066022 1.9770745340998701 6.2962196149896066 -0.5877852598018023 0 -0.80901698891910034 1.6180339778382007 0 -1.1755705196036046 1 I I 0 1 2 forward I I I I #
face $-1 $61 $62 $15 $-1 $63 reversed single #
loop $-1 $-1 $64 $25 #
plane-surface $-1 0 0 -10.191896912063086 0 0 1 1 0 0 forward_v I I I I #
coedge $-1 $65 $66 $67 $68 forward $26 $-1 #
face $-1 $69 $70 $16 $-1 $71 forward single #
loop $-1 $-1 $72 $28 #
plane-surface $-1 0 -40.237694174883281 8.6918969120630862 0 1 0 0 0 1 forward_v I I I I #
coedge $-1 $73 $74 $75 $76 forward $29 $-1 #
face $-1 $77 $78 $17 $-1 $79 reversed single #
loop $-1 $-1 $80 $31 #
plane-surface $-1 0 40.237694174883281 8.6918969120630862 0 -1 0 0 0 -1 forward_v I I I I #
coedge $-1 $81 $82 $83 $84 forward $32 $-1 #
face $-1 $85 $86 $18 $-1 $87 forward single #
loop $-1 $-1 $88 $34 #
plane-surface $-1 -29.285081800308362 1.9770745340998701 60.927084144643374 0.5877852598018023 0 0.80901698891910034 0.80901698891910034 0 -0.5877852598018023 forward_v I I I I #
coedge $-1 $89 $90 $91 $92 reversed $35 $-1 #
face $-1 $93 $94 $19 $-1 $95 forward single #
loop $-1 $96 $97 $37 #
cone-surface $-1 41.326266876287221 1.9770745340998701 4.0757004366874057 -0.5877852598018023 0 -0.80901698891910034 0.80901698891910034 0 -0.5877852598018023 1 I I -0.70710678118654746 0.70710678118654746 1 forward I I I I #
loop $-1 $-1 $98 $24 #
coedge $-1 $60 $60 $99 $100 reversed $38 $-1 #
face $-1 $101 $102 $15 $-1 $103 reversed single #
loop $-1 $-1 $104 $40 #
plane-surface $-1 0 -32.641444821922484 0 0 1 0 0 0 1 forward_v I I I I #
coedge $-1 $105 $106 $107 $108 forward $41 $-1 #
coedge $-1 $109 $43 $110 $111 forward $26 $-1 #
coedge $-1 $43 $109 $112 $113 forward $26 $-1 #
coedge $-1 $114 $115 $43 $68 reversed $116 $-1 #
edge $-1 $117 -32.641444821922484 $118 32.641444821922484 $67 $119 forward 7 unknown #
face $-1 $120 $121 $16 $-1 $122 reversed single #
loop $-1 $-1 $123 $44 #
plane-surface $-1 0 0 10.191896912063086 0 0 1 1 0 0 forward_v I I I I #
coedge $-1 $124 $125 $126 $127 forward $45 $-1 #
coedge $-1 $128 $47 $124 $129 forward $29 $-1 #
coedge $-1 $47 $128 $130 $131 reversed $29 $-1 #
coedge $-1 $132 $133 $47 $76 reversed $134 $-1 #
edge $-1 $135 -3.7981246764803984 $136 3.7981246764803984 $75 $137 forward 7 unknown #
face $-1 $138 $139 $17 $-1 $140 reversed single #
loop $-1 $-1 $141 $48 #
plane-surface $-1 0 -36.439569498402882 7.1918969120630862 0 0 1 1 0 0 forward_v I I I I #
coedge $-1 $142 $143 $144 $145 forward $49 $-1 #
coedge $-1 $146 $51 $147 $148 reversed $32 $-1 #
coedge $-1 $51 $146 $142 $149 forward $32 $-1 #
coedge $-1 $144 $150 $51 $84 reversed $151 $-1 #
edge $-1 $152 -3.7981246764803984 $153 3.7981246764803984 $83 $154 forward 7 unknown #
face $-1 $155 $156 $18 $-1 $157 forward single #
loop $-1 $-1 $158 $52 #
plane-surface $-1 26.418455647652721 -3.3436883059013507 137.59642449776402 0 1 0 0.5877852598018023 0 0.80901698891910034 forward_v I I I I #
coedge $-1 $159 $160 $161 $162 reversed $53 $-1 #
coedge $-1 $90 $55 $160 $163 forward $35 $-1 #
coedge $-1 $55 $89 $164 $165 reversed $35 $-1 #
coedge $-1 $166 $161 $55 $92 forward $156 $-1 #
edge $-1 $167 27.336683451447392 $168 34.175030728985924 $91 $169 forward 7 unknown #
face $-1 $170 $171 $19 $-1 $172 forward single #
loop $-1 $-1 $173 $56 #
plane-surface $-1 26.418455647652721 7.2978373741010909 137.59642449776402 0 -1 0 -0.5877852598018023 0 -0.80901698891910034 forward_v I I I I #
loop $-1 $-1 $174 $37 #
coedge $-1 $97 $97 $98 $175 forward $57 $-1 #
coedge $-1 $98 $98 $97 $175 reversed $59 $-1 #
coedge $-1 $99 $99 $60 $100 forward $171 $-1 #
edge $-1 $176 0 $176 6.2831853071796004 $99 $177 forward 7 unknown #
face $-1 $178 $179 $15 $-1 $180 reversed single #
loop $-1 $-1 $181 $61 #
plane-surface $-1 -47.384258552812284 0 0 1 0 0 0 0 -1 forward_v I I I I #
coedge $-1 $182 $112 $183 $184 forward $62 $-1 #
coedge $-1 $185 $64 $182 $186 forward $41 $-1 #
coedge $-1 $64 $185 $187 $188 forward $41 $-1 #
coedge $-1 $115 $114 $64 $108 reversed $116 $-1 #
edge $-1 $189 -32.641444821922484 $190 32.641444821922484 $107 $191 forward 7 unknown #
coedge $-1 $66 $65 $192 $193 forward $26 $-1 #
coedge $-1 $194 $195 $65 $111 reversed $179 $-1 #
edge $-1 $118 -47.384258552812284 $196 47.384258552812284 $110 $197 forward 7 unknown #
coedge $-1 $104 $198 $66 $113 reversed $62 $-1 #
edge $-1 $199 -47.384258552812284 $117 47.384258552812284 $112 $200 forward 7 unknown #
coedge $-1 $107 $67 $198 $201 forward $116 $-1 #
coedge $-1 $67 $107 $194 $202 reversed $116 $-1 #
loop $-1 $-1 $114 $178 #
vertex $-1 $68 $203 #
vertex $-1 $68 $204 #
straight-curve $-1 47.384258552812284 0 10.191896912063086 0 1 0 I I #
face $-1 $205 $206 $16 $-1 $207 reversed single #
loop $-1 $-1 $208 $69 #
plane-surface $-1 0 0 -10.191896912063086 0 0 1 1 0 0 forward_v I I I I #
coedge $-1 $209 $210 $211 $212 forward $70 $-1 #
coedge $-1 $213 $72 $73 $129 reversed $45 $-1 #
coedge $-1 $72 $213 $210 $214 reversed $45 $-1 #
coedge $-1 $215 $216 $72 $127 reversed $217 $-1 #
edge $-1 $218 -1.5 $219 1.5 $126 $220 forward 7 unknown #
coedge $-1 $74 $73 $216 $221 forward $29 $-1 #
edge $-1 $136 -47.384258552812284 $219 47.384258552812284 $124 $222 forward 7 unknown #
coedge $-1 $223 $224 $74 $131 forward $206 $-1 #
edge $-1 $135 -47.384258552812284 $225 47.384258552812284 $130 $226 forward 7 unknown #
coedge $-1 $227 $75 $224 $228 forward $134 $-1 #
coedge $-1 $75 $211 $213 $229 forward $134 $-1 #
loop $-1 $-1 $132 $230 #
vertex $-1 $228 $231 #
vertex $-1 $229 $232 #
straight-curve $-1 47.384258552812284 -36.439569498402882 7.1918969120630862 0 -1 0 I I #
face $-1 $233 $234 $17 $-1 $235 forward single #
loop $-1 $-1 $236 $77 #
plane-surface $-1 0 -40.237694174883281 8.6918969120630862 0 1 0 0 0 1 forward_v I I I I #
coedge $-1 $237 $238 $239 $240 forward $78 $-1 #
coedge $-1 $241 $80 $82 $149 reversed $49 $-1 #
coedge $-1 $80 $241 $242 $243 reversed $49 $-1 #
coedge $-1 $244 $83 $80 $145 reversed $151 $-1 #
edge $-1 $245 -1.5 $152 1.5 $144 $246 forward 7 unknown #
coedge $-1 $82 $81 $247 $248 forward $32 $-1 #
coedge $-1 $249 $250 $81 $148 forward $251 $-1 #
edge $-1 $252 -47.384258552812284 $153 47.384258552812284 $147 $253 forward 7 unknown #
edge $-1 $254 -47.384258552812284 $152 47.384258552812284 $142 $255 forward 7 unknown #
coedge $-1 $83 $256 $249 $257 reversed $151 $-1 #
loop $-1 $-1 $258 $259 #
vertex $-1 $84 $260 #
vertex $-1 $257 $261 #
straight-curve $-1 47.384258552812284 36.439569498402882 7.1918969120630862 0 -1 0 I I #
face $-1 $262 $263 $18 $-1 $264 reversed single #
loop $-1 $-1 $265 $85 #
plane-surface $-1 0 0 10.191896912063086 0 0 1 1 0 0 forward_v I I I I #
coedge $-1 $266 $267 $265 $268 reversed $86 $-1 #
coedge $-1 $269 $88 $267 $270 reversed $53 $-1 #
coedge $-1 $88 $269 $89 $163 reversed $53 $-1 #
coedge $-1 $91 $265 $88 $162 forward $156 $-1 #
edge $-1 $271 -4.3322255729512857 $167 6.3093001070511558 $161 $272 forward 7 unknown #
edge $-1 $167 86.315854959833274 $273 94.768517105624568 $89 $274 forward 7 unknown #
coedge $-1 $275 $276 $90 $165 forward $277 $-1 #
edge $-1 $168 58.606315336818923 $273 63.574665552199718 $164 $278 forward 7 unknown #
coedge $-1 $279 $91 $276 $280 forward $156 $-1 #
vertex $-1 $162 $281 #
vertex $-1 $280 $282 #
straight-curve $-1 13.20922782382636 7.2978373741010909 10.191896912063086 1 0 0 I I #
face $-1 $283 $284 $19 $-1 $285 forward single #
loop $-1 $286 $99 $93 #
plane-surface $-1 -29.285081800308362 1.9770745340998701 60.927084144643374 0.5877852598018023 0 0.80901698891910034 0.80901698891910034 0 -0.5877852598018023 forward_v I I I I #
coedge $-1 $287 $288 $289 $290 reversed $94 $-1 #
coedge $-1 $174 $174 $-1 $291 forward $96 $-1 #
edge $-1 $292 0 $292 6.2831853071796004 $97 $293 forward 7 unknown #
vertex $-1 $100 $294 #
ellipse-curve $-1 43.965084914043004 1.9770745340998701 7.7077218043726896 -0.5877852598018023 0 -0.80901698891910034 1.6180339778382007 0 -1.1755705196036046 1 I I #
face $-1 $-1 $116 $15 $-1 $295 reversed single #
loop $-1 $-1 $194 $101 #
plane-surface $-1 0 32.641444821922484 0 0 -1 0 0 0 -1 forward_v I I I I #
coedge $-1 $296 $192 $195 $297 forward $102 $-1 #
coedge $-1 $198 $104 $105 $186 reversed $62 $-1 #
coedge $-1 $192 $296 $104 $184 reversed $102 $-1 #
edge $-1 $199 -10.191896912063086 $298 10.191896912063086 $183 $299 forward 7 unknown #
coedge $-1 $106 $105 $296 $300 forward $41 $-1 #
edge $-1 $190 -47.384258552812284 $298 47.384258552812284 $182 $301 forward 7 unknown #
coedge $-1 $195 $194 $106 $188 reversed $179 $-1 #
edge $-1 $302 -47.384258552812284 $189 47.384258552812284 $187 $303 forward 7 unknown #
vertex $-1 $108 $304 #
vertex $-1 $201 $305 #
straight-curve $-1 47.384258552812284 0 -10.191896912063086 0 -1 0 I I #
coedge $-1 $181 $183 $109 $193 reversed $102 $-1 #
edge $-1 $196 -32.641444821922484 $199 32.641444821922484 $192 $306 forward 7 unknown #
coedge $-1 $187 $110 $115 $202 forward $179 $-1 #
coedge $-1 $110 $187 $181 $297 reversed $179 $-1 #
vertex $-1 $111 $307 #
straight-curve $-1 0 32.641444821922484 10.191896912063086 -1 0 0 I I #
coedge $-1 $112 $182 $114 $201 reversed $62 $-1 #
vertex $-1 $193 $308 #
straight-curve $-1 0 -32.641444821922484 10.191896912063086 1 0 0 I I #
edge $-1 $117 -10.191896912063086 $190 10.191896912063086 $114 $309 forward 7 unknown #
edge $-1 $118 -10.191896912063086 $189 10.191896912063086 $115 $310 forward 7 unknown #
point $-1 47.384258552812284 -32.641444821922484 10.191896912063086 #
point $-1 47.384258552812284 32.641444821922484 10.191896912063086 #
face $-1 $311 $217 $16 $-1 $312 reversed single #
loop $-1 $-1 $130 $120 #
plane-surface $-1 0 -32.641444821922484 0 0 1 0 0 0 1 forward_v I I I I #
coedge $-1 $313 $314 $227 $315 forward $121 $-1 #
coedge $-1 $316 $123 $317 $318 forward $70 $-1 #
coedge $-1 $123 $316 $125 $214 forward $70 $-1 #
coedge $-1 $133 $319 $123 $212 reversed $134 $-1 #
edge $-1 $320 -40.237694174883281 $321 32.641444821922484 $211 $322 forward 7 unknown #
coedge $-1 $125 $124 $133 $229 reversed $45 $-1 #
edge $-1 $218 -47.384258552812284 $320 47.384258552812284 $125 $323 forward 7 unknown #
coedge $-1 $324 $126 $316 $325 reversed $217 $-1 #
coedge $-1 $126 $326 $128 $221 reversed $217 $-1 #
loop $-1 $-1 $324 $205 #
vertex $-1 $325 $327 #
vertex $-1 $221 $328 #
straight-curve $-1 -47.384258552812284 -40.237694174883281 8.6918969120630862 0 0 -1 I I #
edge $-1 $219 -3.7981246764803984 $225 3.7981246764803984 $216 $329 forward 7 unknown #
straight-curve $-1 0 -40.237694174883281 7.1918969120630862 -1 0 0 I I #
coedge $-1 $330 $130 $326 $331 forward $206 $-1 #
coedge $-1 $130 $330 $132 $228 reversed $206 $-1 #
vertex $-1 $331 $332 #
straight-curve $-1 0 -32.641444821922484 7.1918969120630862 -1 0 0 I I #
coedge $-1 $319 $132 $208 $315 reversed $134 $-1 #
edge $-1 $135 -7.1918969120630862 $333 10.191896912063086 $132 $334 forward 7 unknown #
edge $-1 $320 -1.5 $136 1.5 $133 $335 forward 7 unknown #
face $-1 $-1 $134 $16 $-1 $336 reversed single #
point $-1 47.384258552812284 -32.641444821922484 7.1918969120630862 #
point $-1 47.384258552812284 -40.237694174883281 7.1918969120630862 #
face $-1 $337 $338 $17 $-1 $339 reversed single #
loop $-1 $-1 $340 $138 #
plane-surface $-1 0 0 10.191896912063086 0 0 1 1 0 0 forward_v I I I I #
coedge $-1 $341 $342 $343 $344 forward $139 $-1 #
coedge $-1 $345 $141 $341 $346 forward $78 $-1 #
coedge $-1 $141 $345 $347 $348 reversed $78 $-1 #
coedge $-1 $258 $349 $141 $240 reversed $151 $-1 #
edge $-1 $350 -3.7981246764803984 $351 3.7981246764803984 $239 $352 forward 7 unknown #
coedge $-1 $143 $142 $353 $354 reversed $49 $-1 #
coedge $-1 $355 $340 $143 $243 forward $234 $-1 #
edge $-1 $245 -47.384258552812284 $356 47.384258552812284 $143 $357 forward 7 unknown #
coedge $-1 $349 $144 $340 $358 reversed $151 $-1 #
vertex $-1 $358 $359 #
straight-curve $-1 47.384258552812284 40.237694174883281 8.6918969120630862 0 0 -1 I I #
coedge $-1 $360 $353 $146 $248 reversed $361 $-1 #
edge $-1 $252 -3.7981246764803984 $254 3.7981246764803984 $247 $362 forward 7 unknown #
coedge $-1 $363 $147 $150 $257 forward $251 $-1 #
coedge $-1 $147 $363 $360 $364 reversed $251 $-1 #
loop $-1 $-1 $147 $365 #
vertex $-1 $364 $366 #
straight-curve $-1 0 32.641444821922484 7.1918969120630862 1 0 0 I I #
vertex $-1 $149 $367 #
straight-curve $-1 0 40.237694174883281 7.1918969120630862 1 0 0 I I #
coedge $-1 $150 $258 $368 $369 reversed $151 $-1 #
edge $-1 $153 -7.1918969120630862 $370 10.191896912063086 $150 $371 forward 7 unknown #
coedge $-1 $256 $239 $372 $373 forward $151 $-1 #
face $-1 $-1 $151 $17 $-1 $374 reversed single #
point $-1 47.384258552812284 40.237694174883281 7.1918969120630862 #
point $-1 47.384258552812284 32.641444821922484 7.1918969120630862 #
face $-1 $375 $376 $18 $-1 $377 reversed single #
loop $-1 $-1 $378 $155 #
plane-surface $-1 0 36.439569498402882 7.1918969120630862 0 0 1 1 0 0 forward_v I I I I #
coedge $-1 $161 $379 $158 $268 forward $156 $-1 #
coedge $-1 $267 $158 $380 $381 reversed $86 $-1 #
coedge $-1 $158 $266 $159 $270 forward $86 $-1 #
edge $-1 $382 -34.175030728985924 $271 -27.336683451447392 $265 $383 forward 7 unknown #
coedge $-1 $160 $159 $275 $384 reversed $53 $-1 #
edge $-1 $385 -94.768517105624568 $271 -86.315854959833274 $267 $386 forward 7 unknown #
vertex $-1 $162 $387 #
straight-curve $-1 40.545911275273745 0.98853726704993505 10.191896912063086 0 1 0 I I #
vertex $-1 $384 $388 #
straight-curve $-1 -29.285081800308362 7.2978373741010909 60.927084144643374 0.80901698891910034 0 -0.5877852598018023 I I #
coedge $-1 $380 $164 $269 $384 forward $277 $-1 #
coedge $-1 $164 $389 $166 $280 reversed $277 $-1 #
loop $-1 $-1 $380 $390 #
straight-curve $-1 47.384258552812284 7.2978373741010909 68.79821224888201 0 0 -1 I I #
coedge $-1 $391 $166 $392 $393 forward $156 $-1 #
edge $-1 $168 7.2978373741010909 $394 40.237694174883281 $276 $395 forward 7 unknown #
point $-1 40.545911275273752 7.2978373741010909 10.191896912063086 #
point $-1 47.384258552812284 7.2978373741010909 10.191896912063086 #
face $-1 $396 $397 $19 $-1 $398 forward single #
loop $-1 $-1 $399 $170 #
plane-surface $-1 26.418455647652721 -3.3436883059013507 137.59642449776402 0 1 0 0.5877852598018023 0 0.80901698891910034 forward_v I I I I #
loop $-1 $-1 $400 $93 #
coedge $-1 $288 $173 $401 $402 forward $94 $-1 #
coedge $-1 $173 $287 $403 $404 reversed $94 $-1 #
coedge $-1 $405 $406 $173 $290 forward $397 $-1 #
edge $-1 $407 27.336683451447392 $408 34.175030728985924 $289 $409 forward 7 unknown #
edge $-1 $410 1 $410 0 $174 $-1 forward 7 unknown #
vertex $-1 $175 $411 #
ellipse-curve $-1 41.914052136089026 1.9770745340998701 4.8847174256065058 0.5877852598018023 0 0.80901698891910034 1.6180339778382007 0 -1.1755705196036046 1 I I #
point $-1 45.583118891881213 1.9770745340998701 6.5321512847691023 #
plane-surface $-1 47.384258552812284 0 0 -1 0 0 0 0 1 forward_v I I I I #
coedge $-1 $183 $181 $185 $300 reversed $102 $-1 #
edge $-1 $196 -10.191896912063086 $302 10.191896912063086 $195 $412 forward 7 unknown #
vertex $-1 $300 $413 #
straight-curve $-1 -47.384258552812284 -32.641444821922484 0 0 0 -1 I I #
edge $-1 $298 -32.641444821922484 $302 32.641444821922484 $296 $414 forward 7 unknown #
straight-curve $-1 0 -32.641444821922484 -10.191896912063086 -1 0 0 I I #
vertex $-1 $188 $415 #
straight-curve $-1 0 32.641444821922484 -10.191896912063086 1 0 0 I I #
point $-1 47.384258552812284 32.641444821922484 -10.191896912063086 #
point $-1 47.384258552812284 -32.641444821922484 -10.191896912063086 #
straight-curve $-1 -47.384258552812284 0 10.191896912063086 0 -1 0 I I #
point $-1 -47.384258552812284 32.641444821922484 10.191896912063086 #
point $-1 -47.384258552812284 -32.641444821922484 10.191896912063086 #
straight-curve $-1 47.384258552812284 -32.641444821922484 0 0 0 -1 I I #
straight-curve $-1 47.384258552812284 32.641444821922484 0 0 0 -1 I I #
face $-1 $230 $416 $16 $-1 $417 reversed single #
plane-surface $-1 -47.384258552812284 0 0 1 0 0 0 0 -1 forward_v I I I I #
coedge $-1 $418 $208 $330 $419 forward $121 $-1 #
coedge $-1 $208 $418 $420 $421 forward $121 $-1 #
edge $-1 $422 -32.641444821922484 $333 32.641444821922484 $227 $423 forward 7 unknown #
coedge $-1 $210 $209 $215 $325 forward $70 $-1 #
coedge $-1 $424 $425 $209 $318 reversed $416 $-1 #
edge $-1 $321 -47.384258552812284 $426 47.384258552812284 $317 $427 forward 7 unknown #
coedge $-1 $211 $227 $424 $428 reversed $134 $-1 #
vertex $-1 $212 $429 #
vertex $-1 $212 $430 #
straight-curve $-1 47.384258552812284 0 10.191896912063086 0 1 0 I I #
straight-curve $-1 0 -40.237694174883281 10.191896912063086 1 0 0 I I #
coedge $-1 $431 $215 $425 $432 forward $217 $-1 #
edge $-1 $426 -32.641444821922484 $218 40.237694174883281 $215 $433 forward 7 unknown #
coedge $-1 $216 $431 $223 $331 reversed $217 $-1 #
point $-1 -47.384258552812284 -40.237694174883281 10.191896912063086 #
point $-1 -47.384258552812284 -40.237694174883281 7.1918969120630862 #
straight-curve $-1 -47.384258552812284 -36.439569498402882 7.1918969120630862 0 1 0 I I #
coedge $-1 $224 $223 $313 $419 reversed $206 $-1 #
edge $-1 $225 -7.1918969120630862 $434 10.191896912063086 $326 $435 forward 7 unknown #
point $-1 -47.384258552812284 -32.641444821922484 7.1918969120630862 #
vertex $-1 $228 $436 #
straight-curve $-1 47.384258552812284 -32.641444821922484 0 0 0 -1 I I #
straight-curve $-1 47.384258552812284 -40.237694174883281 8.6918969120630862 0 0 -1 I I #
plane-surface $-1 47.384258552812284 0 0 -1 0 0 0 0 1 forward_v I I I I #
face $-1 $437 $438 $17 $-1 $439 reversed single #
loop $-1 $-1 $368 $233 #
plane-surface $-1 0 0 -10.191896912063086 0 0 1 1 0 0 forward_v I I I I #
coedge $-1 $242 $440 $244 $358 forward $234 $-1 #
coedge $-1 $441 $236 $237 $346 reversed $139 $-1 #
coedge $-1 $236 $441 $440 $442 reversed $139 $-1 #
coedge $-1 $443 $444 $236 $344 reversed $361 $-1 #
edge $-1 $445 -1.5 $446 1.5 $343 $447 forward 7 unknown #
coedge $-1 $238 $237 $444 $448 forward $78 $-1 #
edge $-1 $351 -47.384258552812284 $446 47.384258552812284 $341 $449 forward 7 unknown #
coedge $-1 $450 $372 $238 $348 forward $438 $-1 #
edge $-1 $350 -47.384258552812284 $451 47.384258552812284 $347 $452 forward 7 unknown #
coedge $-1 $239 $244 $441 $453 forward $151 $-1 #
vertex $-1 $373 $454 #
vertex $-1 $453 $455 #
straight-curve $-1 47.384258552812284 -36.439569498402882 7.1918969120630862 0 -1 0 I I #
coedge $-1 $247 $443 $241 $354 forward $361 $-1 #
edge $-1 $356 -1.5 $254 1.5 $241 $456 forward 7 unknown #
coedge $-1 $440 $242 $443 $457 forward $234 $-1 #
vertex $-1 $243 $458 #
straight-curve $-1 0 40.237694174883281 10.191896912063086 -1 0 0 I I #
edge $-1 $459 -40.237694174883281 $245 40.237694174883281 $244 $460 forward 7 unknown #
point $-1 47.384258552812284 40.237694174883281 10.191896912063086 #
coedge $-1 $461 $247 $250 $364 forward $361 $-1 #
loop $-1 $-1 $360 $437 #
straight-curve $-1 -47.384258552812284 36.439569498402882 7.1918969120630862 0 1 0 I I #
coedge $-1 $250 $249 $462 $463 reversed $251 $-1 #
edge $-1 $252 -7.1918969120630862 $464 10.191896912063086 $250 $465 forward 7 unknown #
face $-1 $259 $251 $17 $-1 $466 reversed single #
point $-1 -47.384258552812284 32.641444821922484 7.1918969120630862 #
point $-1 -47.384258552812284 40.237694174883281 7.1918969120630862 #
coedge $-1 $467 $462 $256 $369 forward $338 $-1 #
edge $-1 $370 -32.641444821922484 $468 32.641444821922484 $256 $469 forward 7 unknown #
vertex $-1 $369 $470 #
straight-curve $-1 47.384258552812284 32.641444821922484 0 0 0 -1 I I #
coedge $-1 $347 $471 $258 $373 reversed $438 $-1 #
edge $-1 $350 -7.1918969120630862 $468 10.191896912063086 $258 $472 forward 7 unknown #
plane-surface $-1 47.384258552812284 0 0 -1 0 0 0 0 1 forward_v I I I I #
face $-1 $473 $474 $18 $-1 $475 reversed single #
loop $-1 $-1 $476 $262 #
plane-surface $-1 0 40.237694174883281 8.6918969120630862 0 -1 0 0 0 -1 forward_v I I I I #
coedge $-1 $477 $478 $479 $480 forward $263 $-1 #
coedge $-1 $265 $481 $482 $483 forward $156 $-1 #
coedge $-1 $482 $275 $266 $381 forward $277 $-1 #
edge $-1 $385 -63.574665552199718 $382 -58.606315336818923 $380 $484 forward 7 unknown #
vertex $-1 $381 $485 #
straight-curve $-1 13.20922782382636 -3.3436883059013507 10.191896912063086 -1 0 0 I I #
edge $-1 $273 -6.3093001070511558 $385 4.3322255729512857 $275 $486 forward 7 unknown #
vertex $-1 $384 $487 #
straight-curve $-1 -29.285081800308362 -3.3436883059013507 60.927084144643374 -0.80901698891910034 0 0.5877852598018023 I I #
point $-1 40.545911275273752 -3.3436883059013507 10.191896912063086 #
point $-1 47.384258552812284 7.2978373741010909 5.2235466966822912 #
coedge $-1 $276 $479 $476 $488 reversed $277 $-1 #
face $-1 $-1 $277 $18 $-1 $489 reversed single #
coedge $-1 $481 $279 $490 $491 forward $156 $-1 #
coedge $-1 $476 $492 $279 $393 reversed $376 $-1 #
edge $-1 $394 -47.384258552812284 $493 47.384258552812284 $392 $494 forward 7 unknown #
vertex $-1 $280 $495 #
straight-curve $-1 47.384258552812284 0 10.191896912063086 0 1 0 I I #
face $-1 $496 $497 $19 $-1 $498 reversed single #
loop $-1 $-1 $499 $283 #
plane-surface $-1 0 0 10.191896912063086 0 0 1 1 0 0 forward_v I I I I #
coedge $-1 $500 $501 $499 $502 reversed $284 $-1 #
coedge $-1 $503 $401 $406 $504 reversed $286 $-1 #
coedge $-1 $400 $505 $287 $402 reversed $286 $-1 #
edge $-1 $407 86.315854959833274 $506 94.768517105624568 $287 $507 forward 7 unknown #
coedge $-1 $508 $509 $288 $404 forward $510 $-1 #
edge $-1 $408 58.606315336818923 $506 63.574665552199718 $403 $511 forward 7 unknown #
coedge $-1 $512 $289 $509 $513 forward $397 $-1 #
coedge $-1 $289 $499 $400 $504 forward $397 $-1 #
vertex $-1 $504 $514 #
vertex $-1 $513 $515 #
straight-curve $-1 13.20922782382636 7.2978373741010909 10.191896912063086 1 0 0 I I #
vertex $-1 $291 $516 #
point $-1 43.532086113927221 1.9770745340998701 3.7091469060029016 #
straight-curve $-1 -47.384258552812284 32.641444821922484 0 0 0 -1 I I #
point $-1 -47.384258552812284 -32.641444821922484 -10.191896912063086 #
straight-curve $-1 -47.384258552812284 0 -10.191896912063086 0 1 0 I I #
point $-1 -47.384258552812284 32.641444821922484 -10.191896912063086 #
loop $-1 $-1 $424 $311 #
plane-surface $-1 0 32.641444821922484 0 0 -1 0 0 0 -1 forward_v I I I I #
coedge $-1 $314 $313 $431 $517 forward $121 $-1 #
edge $-1 $333 -47.384258552812284 $434 47.384258552812284 $330 $518 forward 7 unknown #
coedge $-1 $425 $424 $314 $421 reversed $416 $-1 #
edge $-1 $519 -47.384258552812284 $422 47.384258552812284 $420 $520 forward 7 unknown #
vertex $-1 $315 $521 #
straight-curve $-1 47.384258552812284 0 -10.191896912063086 0 -1 0 I I #
coedge $-1 $420 $317 $319 $428 forward $416 $-1 #
coedge $-1 $317 $420 $324 $432 reversed $416 $-1 #
vertex $-1 $318 $522 #
straight-curve $-1 0 32.641444821922484 10.191896912063086 -1 0 0 I I #
edge $-1 $321 -10.191896912063086 $422 10.191896912063086 $319 $523 forward 7 unknown #
point $-1 47.384258552812284 -40.237694174883281 10.191896912063086 #
point $-1 47.384258552812284 32.641444821922484 10.191896912063086 #
coedge $-1 $326 $324 $418 $517 reversed $217 $-1 #
edge $-1 $426 -10.191896912063086 $519 10.191896912063086 $425 $524 forward 7 unknown #
straight-curve $-1 -47.384258552812284 0 10.191896912063086 0 -1 0 I I #
vertex $-1 $517 $525 #
straight-curve $-1 -47.384258552812284 -32.641444821922484 0 0 0 -1 I I #
point $-1 47.384258552812284 -32.641444821922484 -10.191896912063086 #
face $-1 $365 $361 $17 $-1 $526 reversed single #
loop $-1 $-1 $347 $337 #
plane-surface $-1 0 -32.641444821922484 0 0 1 0 0 0 1 forward_v I I I I #
coedge $-1 $340 $355 $342 $442 forward $234 $-1 #
coedge $-1 $342 $341 $349 $453 reversed $139 $-1 #
edge $-1 $445 -47.384258552812284 $459 47.384258552812284 $342 $527 forward 7 unknown #
coedge $-1 $353 $343 $355 $457 reversed $361 $-1 #
coedge $-1 $343 $528 $345 $448 reversed $361 $-1 #
vertex $-1 $457 $529 #
vertex $-1 $448 $530 #
straight-curve $-1 -47.384258552812284 -40.237694174883281 8.6918969120630862 0 0 -1 I I #
edge $-1 $446 -3.7981246764803984 $451 3.7981246764803984 $444 $531 forward 7 unknown #
straight-curve $-1 0 -40.237694174883281 7.1918969120630862 -1 0 0 I I #
coedge $-1 $471 $347 $528 $532 forward $438 $-1 #
vertex $-1 $532 $533 #
straight-curve $-1 0 -32.641444821922484 7.1918969120630862 -1 0 0 I I #
edge $-1 $459 -1.5 $351 1.5 $349 $534 forward 7 unknown #
point $-1 47.384258552812284 -32.641444821922484 7.1918969120630862 #
point $-1 47.384258552812284 -40.237694174883281 7.1918969120630862 #
straight-curve $-1 -47.384258552812284 40.237694174883281 8.6918969120630862 0 0 -1 I I #
edge $-1 $356 -40.237694174883281 $445 40.237694174883281 $443 $535 forward 7 unknown #
point $-1 -47.384258552812284 40.237694174883281 10.191896912063086 #
vertex $-1 $358 $536 #
straight-curve $-1 47.384258552812284 0 10.191896912063086 0 1 0 I I #
coedge $-1 $528 $360 $537 $538 reversed $361 $-1 #
coedge $-1 $368 $537 $363 $463 forward $338 $-1 #
edge $-1 $464 -47.384258552812284 $370 47.384258552812284 $363 $539 forward 7 unknown #
vertex $-1 $463 $540 #
straight-curve $-1 -47.384258552812284 32.641444821922484 0 0 0 -1 I I #
plane-surface $-1 0 32.641444821922484 0 0 -1 0 0 0 -1 forward_v I I I I #
coedge $-1 $537 $368 $471 $541 forward $338 $-1 #
vertex $-1 $373 $542 #
straight-curve $-1 47.384258552812284 0 -10.191896912063086 0 -1 0 I I #
point $-1 47.384258552812284 32.641444821922484 -10.191896912063086 #
coedge $-1 $372 $450 $467 $541 reversed $438 $-1 #
straight-curve $-1 47.384258552812284 -32.641444821922484 0 0 0 -1 I I #
face $-1 $543 $544 $18 $-1 $545 reversed single #
loop $-1 $-1 $546 $375 #
plane-surface $-1 0 -36.439569498402882 7.1918969120630862 0 0 1 1 0 0 forward_v I I I I #
coedge $-1 $547 $392 $389 $488 forward $376 $-1 #
coedge $-1 $548 $378 $549 $550 reversed $263 $-1 #
coedge $-1 $378 $548 $547 $551 forward $263 $-1 #
coedge $-1 $389 $552 $378 $480 reversed $277 $-1 #
edge $-1 $553 -3.7981246764803984 $554 3.7981246764803984 $479 $555 forward 7 unknown #
coedge $-1 $379 $391 $556 $557 forward $156 $-1 #
coedge $-1 $558 $380 $379 $483 reversed $277 $-1 #
edge $-1 $559 -40.237694174883281 $382 -3.3436883059013507 $482 $395 forward 7 unknown #
straight-curve $-1 47.384258552812284 -3.3436883059013507 68.79821224888201 0 0 1 I I #
point $-1 47.384258552812284 -3.3436883059013507 10.191896912063086 #
straight-curve $-1 47.384258552812284 0.98853726704993505 5.2235466966822841 0 -1 0 I I #
point $-1 47.384258552812284 -3.3436883059013507 5.2235466966822912 #
edge $-1 $394 -1.5 $553 1.5 $389 $560 forward 7 unknown #
plane-surface $-1 47.384258552812284 0 0 -1 0 0 0 0 1 forward_v I I I I #
coedge $-1 $561 $562 $391 $491 reversed $563 $-1 #
edge $-1 $493 -40.237694174883281 $564 40.237694174883281 $490 $565 forward 7 unknown #
coedge $-1 $392 $547 $561 $566 reversed $376 $-1 #
vertex $-1 $393 $567 #
straight-curve $-1 0 40.237694174883281 10.191896912063086 -1 0 0 I I #
point $-1 47.384258552812284 40.237694174883281 10.191896912063086 #
face $-1 $568 $569 $19 $-1 $570 reversed single #
loop $-1 $-1 $571 $396 #
plane-surface $-1 0 36.439569498402882 7.1918969120630862 0 0 1 1 0 0 forward_v I I I I #
coedge $-1 $406 $572 $399 $502 forward $397 $-1 #
coedge $-1 $501 $399 $573 $574 reversed $284 $-1 #
coedge $-1 $399 $500 $503 $575 forward $284 $-1 #
edge $-1 $576 -34.175030728985924 $577 -27.336683451447392 $499 $578 forward 7 unknown #
coedge $-1 $505 $400 $501 $575 reversed $286 $-1 #
edge $-1 $577 -4.3322255729512857 $407 6.3093001070511558 $406 $579 forward 7 unknown #
coedge $-1 $401 $503 $508 $580 reversed $286 $-1 #
vertex $-1 $580 $581 #
straight-curve $-1 -29.285081800308362 7.2978373741010909 60.927084144643374 0.80901698891910034 0 -0.5877852598018023 I I #
coedge $-1 $573 $403 $505 $580 forward $510 $-1 #
coedge $-1 $403 $582 $405 $513 reversed $510 $-1 #
loop $-1 $-1 $573 $583 #
straight-curve $-1 47.384258552812284 7.2978373741010909 68.79821224888201 0 0 -1 I I #
coedge $-1 $584 $405 $585 $586 forward $397 $-1 #
edge $-1 $408 7.2978373741010909 $587 40.237694174883281 $509 $588 forward 7 unknown #
point $-1 40.545911275273752 7.2978373741010909 10.191896912063086 #
point $-1 47.384258552812284 7.2978373741010909 10.191896912063086 #
point $-1 40.738481616485416 1.9770745340998701 3.2666834477683055 #
edge $-1 $434 -32.641444821922484 $519 32.641444821922484 $431 $589 forward 7 unknown #
straight-curve $-1 0 -32.641444821922484 -10.191896912063086 -1 0 0 I I #
vertex $-1 $421 $590 #
straight-curve $-1 0 32.641444821922484 -10.191896912063086 1 0 0 I I #
point $-1 47.384258552812284 32.641444821922484 -10.191896912063086 #
point $-1 -47.384258552812284 32.641444821922484 10.191896912063086 #
straight-curve $-1 47.384258552812284 32.641444821922484 0 0 0 -1 I I #
straight-curve $-1 -47.384258552812284 32.641444821922484 0 0 0 -1 I I #
point $-1 -47.384258552812284 -32.641444821922484 -10.191896912063086 #
plane-surface $-1 -47.384258552812284 0 0 1 0 0 0 0 -1 forward_v I I I I #
straight-curve $-1 0 -40.237694174883281 10.191896912063086 1 0 0 I I #
coedge $-1 $444 $461 $450 $532 reversed $361 $-1 #
point $-1 -47.384258552812284 -40.237694174883281 10.191896912063086 #
point $-1 -47.384258552812284 -40.237694174883281 7.1918969120630862 #
straight-curve $-1 -47.384258552812284 -36.439569498402882 7.1918969120630862 0 1 0 I I #
edge $-1 $451 -7.1918969120630862 $591 10.191896912063086 $528 $592 forward 7 unknown #
point $-1 -47.384258552812284 -32.641444821922484 7.1918969120630862 #
straight-curve $-1 47.384258552812284 -40.237694174883281 8.6918969120630862 0 0 -1 I I #
straight-curve $-1 -47.384258552812284 0 10.191896912063086 0 -1 0 I I #
point $-1 47.384258552812284 -40.237694174883281 10.191896912063086 #
coedge $-1 $462 $467 $461 $538 forward $338 $-1 #
edge $-1 $591 -32.641444821922484 $464 32.641444821922484 $461 $593 forward 7 unknown #
straight-curve $-1 0 32.641444821922484 -10.191896912063086 1 0 0 I I #
point $-1 -47.384258552812284 32.641444821922484 -10.191896912063086 #
edge $-1 $468 -47.384258552812284 $591 47.384258552812284 $471 $594 forward 7 unknown #
point $-1 47.384258552812284 -32.641444821922484 -10.191896912063086 #
face $-1 $595 $596 $18 $-1 $597 reversed single #
loop $-1 $-1 $598 $473 #
plane-surface $-1 0 -40.237694174883281 8.6918969120630862 0 1 0 0 0 1 forward_v I I I I #
coedge $-1 $599 $600 $601 $602 forward $474 $-1 #
coedge $-1 $492 $476 $478 $551 reversed $376 $-1 #
coedge $-1 $478 $477 $603 $604 forward $263 $-1 #
coedge $-1 $605 $606 $477 $550 forward $607 $-1 #
edge $-1 $608 -47.384258552812284 $554 47.384258552812284 $549 $609 forward 7 unknown #
edge $-1 $610 -47.384258552812284 $553 47.384258552812284 $547 $611 forward 7 unknown #
coedge $-1 $479 $612 $605 $613 reversed $277 $-1 #
vertex $-1 $480 $614 #
vertex $-1 $613 $615 #
straight-curve $-1 47.384258552812284 36.439569498402882 7.1918969120630862 0 -1 0 I I #
coedge $-1 $598 $616 $481 $557 reversed $544 $-1 #
edge $-1 $564 -47.384258552812284 $559 47.384258552812284 $556 $617 forward 7 unknown #
coedge $-1 $601 $482 $616 $618 forward $277 $-1 #
vertex $-1 $483 $619 #
straight-curve $-1 47.384258552812284 40.237694174883281 8.6918969120630862 0 0 -1 I I #
coedge $-1 $603 $490 $492 $566 forward $563 $-1 #
coedge $-1 $490 $620 $598 $621 reversed $563 $-1 #
loop $-1 $-1 $622 $623 #
vertex $-1 $491 $624 #
straight-curve $-1 -47.384258552812284 0 10.191896912063086 0 -1 0 I I #
edge $-1 $493 -1.5 $610 1.5 $492 $625 forward 7 unknown #
point $-1 -47.384258552812284 40.237694174883281 10.191896912063086 #
face $-1 $626 $627 $19 $-1 $628 reversed single #
loop $-1 $-1 $629 $496 #
plane-surface $-1 0 40.237694174883281 8.6918969120630862 0 -1 0 0 0 -1 forward_v I I I I #
coedge $-1 $630 $631 $632 $633 forward $497 $-1 #
coedge $-1 $499 $634 $635 $636 forward $397 $-1 #
coedge $-1 $635 $508 $500 $574 forward $510 $-1 #
edge $-1 $637 -63.574665552199718 $576 -58.606315336818923 $573 $638 forward 7 unknown #
edge $-1 $637 -94.768517105624568 $577 -86.315854959833274 $501 $639 forward 7 unknown #
vertex $-1 $574 $640 #
vertex $-1 $504 $641 #
straight-curve $-1 13.20922782382636 -3.3436883059013507 10.191896912063086 -1 0 0 I I #
straight-curve $-1 40.545911275273745 0.98853726704993505 10.191896912063086 0 1 0 I I #
edge $-1 $506 -6.3093001070511558 $637 4.3322255729512857 $508 $642 forward 7 unknown #
point $-1 47.384258552812284 7.2978373741010909 5.2235466966822912 #
coedge $-1 $509 $632 $629 $643 reversed $510 $-1 #
face $-1 $-1 $510 $19 $-1 $644 reversed single #
coedge $-1 $634 $512 $645 $646 forward $397 $-1 #
coedge $-1 $629 $647 $512 $586 reversed $569 $-1 #
edge $-1 $587 -47.384258552812284 $648 47.384258552812284 $585 $649 forward 7 unknown #
vertex $-1 $513 $650 #
straight-curve $-1 47.384258552812284 0 10.191896912063086 0 1 0 I I #
straight-curve $-1 -47.384258552812284 0 -10.191896912063086 0 1 0 I I #
point $-1 -47.384258552812284 32.641444821922484 -10.191896912063086 #
vertex $-1 $538 $651 #
straight-curve $-1 -47.384258552812284 -32.641444821922484 0 0 0 -1 I I #
straight-curve $-1 -47.384258552812284 0 -10.191896912063086 0 1 0 I I #
straight-curve $-1 0 -32.641444821922484 -10.191896912063086 -1 0 0 I I #
face $-1 $623 $652 $18 $-1 $653 reversed single #
loop $-1 $-1 $654 $543 #
plane-surface $-1 0 0 -10.191896912063086 0 0 1 1 0 0 forward_v I I I I #
coedge $-1 $655 $556 $562 $621 forward $544 $-1 #
coedge $-1 $656 $546 $655 $657 forward $474 $-1 #
coedge $-1 $546 $656 $658 $659 reversed $474 $-1 #
coedge $-1 $660 $558 $546 $602 reversed $277 $-1 #
edge $-1 $661 -3.7981246764803984 $662 3.7981246764803984 $601 $663 forward 7 unknown #
coedge $-1 $622 $561 $548 $604 reversed $563 $-1 #
edge $-1 $608 -3.7981246764803984 $610 3.7981246764803984 $603 $664 forward 7 unknown #
coedge $-1 $665 $549 $552 $613 forward $607 $-1 #
coedge $-1 $549 $665 $622 $666 reversed $607 $-1 #
loop $-1 $-1 $549 $667 #
vertex $-1 $666 $668 #
straight-curve $-1 0 32.641444821922484 7.1918969120630862 1 0 0 I I #
vertex $-1 $551 $669 #
straight-curve $-1 0 40.237694174883281 7.1918969120630862 1 0 0 I I #
coedge $-1 $552 $660 $654 $670 reversed $277 $-1 #
edge $-1 $554 -7.1918969120630862 $671 10.191896912063086 $552 $672 forward 7 unknown #
point $-1 47.384258552812284 40.237694174883281 7.1918969120630862 #
point $-1 47.384258552812284 32.641444821922484 7.1918969120630862 #
coedge $-1 $556 $655 $558 $618 reversed $544 $-1 #
straight-curve $-1 0 -40.237694174883281 10.191896912063086 1 0 0 I I #
edge $-1 $559 -1.5 $662 1.5 $558 $673 forward 7 unknown #
point $-1 47.384258552812284 -40.237694174883281 10.191896912063086 #
coedge $-1 $562 $674 $656 $675 reversed $563 $-1 #
edge $-1 $564 -1.5 $676 1.5 $562 $677 forward 7 unknown #
coedge $-1 $678 $603 $606 $666 forward $563 $-1 #
face $-1 $667 $563 $18 $-1 $679 reversed single #
point $-1 -47.384258552812284 -40.237694174883281 10.191896912063086 #
straight-curve $-1 -47.384258552812284 40.237694174883281 8.6918969120630862 0 0 -1 I I #
face $-1 $680 $681 $19 $-1 $682 reversed single #
loop $-1 $-1 $683 $568 #
plane-surface $-1 0 -36.439569498402882 7.1918969120630862 0 0 1 1 0 0 forward_v I I I I #
coedge $-1 $684 $585 $582 $643 forward $569 $-1 #
coedge $-1 $685 $571 $686 $687 reversed $497 $-1 #
coedge $-1 $571 $685 $684 $688 forward $497 $-1 #
coedge $-1 $582 $689 $571 $633 reversed $510 $-1 #
edge $-1 $690 -3.7981246764803984 $691 3.7981246764803984 $632 $692 forward 7 unknown #
coedge $-1 $572 $584 $693 $694 forward $397 $-1 #
coedge $-1 $695 $573 $572 $636 reversed $510 $-1 #
edge $-1 $696 -40.237694174883281 $576 -3.3436883059013507 $635 $588 forward 7 unknown #
vertex $-1 $580 $697 #
straight-curve $-1 47.384258552812284 -3.3436883059013507 68.79821224888201 0 0 1 I I #
straight-curve $-1 -29.285081800308362 -3.3436883059013507 60.927084144643374 -0.80901698891910034 0 0.5877852598018023 I I #
point $-1 47.384258552812284 -3.3436883059013507 10.191896912063086 #
point $-1 40.545911275273752 -3.3436883059013507 10.191896912063086 #
straight-curve $-1 47.384258552812284 0.98853726704993505 5.2235466966822841 0 -1 0 I I #
edge $-1 $587 -1.5 $690 1.5 $582 $698 forward 7 unknown #
plane-surface $-1 47.384258552812284 0 0 -1 0 0 0 0 1 forward_v I I I I #
coedge $-1 $699 $700 $584 $646 reversed $701 $-1 #
edge $-1 $648 -40.237694174883281 $702 40.237694174883281 $645 $703 forward 7 unknown #
coedge $-1 $585 $684 $699 $704 reversed $569 $-1 #
vertex $-1 $586 $705 #
straight-curve $-1 0 40.237694174883281 10.191896912063086 -1 0 0 I I #
point $-1 47.384258552812284 40.237694174883281 10.191896912063086 #
point $-1 -47.384258552812284 -32.641444821922484 -10.191896912063086 #
loop $-1 $-1 $658 $595 #
plane-surface $-1 0 -32.641444821922484 0 0 1 0 0 0 1 forward_v I I I I #
coedge $-1 $706 $707 $612 $670 forward $596 $-1 #
coedge $-1 $616 $598 $599 $657 reversed $544 $-1 #
coedge $-1 $600 $599 $620 $675 forward $474 $-1 #
edge $-1 $662 -47.384258552812284 $676 47.384258552812284 $655 $708 forward 7 unknown #
coedge $-1 $709 $710 $600 $659 forward $652 $-1 #
edge $-1 $661 -47.384258552812284 $711 47.384258552812284 $658 $712 forward 7 unknown #
coedge $-1 $612 $601 $710 $713 forward $277 $-1 #
vertex $-1 $713 $714 #
vertex $-1 $618 $715 #
straight-curve $-1 47.384258552812284 -36.439569498402882 7.1918969120630862 0 -1 0 I I #
straight-curve $-1 -47.384258552812284 36.439569498402882 7.1918969120630862 0 1 0 I I #
coedge $-1 $606 $605 $707 $716 reversed $607 $-1 #
edge $-1 $608 -7.1918969120630862 $717 10.191896912063086 $606 $718 forward 7 unknown #
face $-1 $390 $607 $18 $-1 $719 reversed single #
point $-1 -47.384258552812284 32.641444821922484 7.1918969120630862 #
point $-1 -47.384258552812284 40.237694174883281 7.1918969120630862 #
edge $-1 $671 -32.641444821922484 $720 32.641444821922484 $612 $721 forward 7 unknown #
vertex $-1 $670 $722 #
straight-curve $-1 47.384258552812284 32.641444821922484 0 0 0 -1 I I #
straight-curve $-1 47.384258552812284 -40.237694174883281 8.6918969120630862 0 0 -1 I I #
coedge $-1 $620 $678 $709 $723 reversed $563 $-1 #
edge $-1 $676 -3.7981246764803984 $711 3.7981246764803984 $620 $724 forward 7 unknown #
vertex $-1 $675 $725 #
straight-curve $-1 -47.384258552812284 -40.237694174883281 8.6918969120630862 0 0 -1 I I #
coedge $-1 $674 $622 $726 $727 reversed $563 $-1 #
plane-surface $-1 -47.384258552812284 0 0 1 0 0 0 0 -1 forward_v I I I I #
face $-1 $728 $729 $19 $-1 $730 reversed single #
loop $-1 $-1 $731 $626 #
plane-surface $-1 0 -40.237694174883281 8.6918969120630862 0 1 0 0 0 1 forward_v I I I I #
coedge $-1 $732 $733 $734 $735 forward $627 $-1 #
coedge $-1 $647 $629 $631 $688 reversed $569 $-1 #
coedge $-1 $631 $630 $736 $737 forward $497 $-1 #
coedge $-1 $738 $739 $630 $687 forward $740 $-1 #
edge $-1 $741 -47.384258552812284 $691 47.384258552812284 $686 $742 forward 7 unknown #
edge $-1 $743 -47.384258552812284 $690 47.384258552812284 $684 $744 forward 7 unknown #
coedge $-1 $632 $745 $738 $746 reversed $510 $-1 #
vertex $-1 $633 $747 #
vertex $-1 $746 $748 #
straight-curve $-1 47.384258552812284 36.439569498402882 7.1918969120630862 0 -1 0 I I #
coedge $-1 $731 $749 $634 $694 reversed $681 $-1 #
edge $-1 $702 -47.384258552812284 $696 47.384258552812284 $693 $750 forward 7 unknown #
coedge $-1 $734 $635 $749 $751 forward $510 $-1 #
vertex $-1 $636 $752 #
point $-1 47.384258552812284 -3.3436883059013507 5.2235466966822912 #
straight-curve $-1 47.384258552812284 40.237694174883281 8.6918969120630862 0 0 -1 I I #
coedge $-1 $736 $645 $647 $704 forward $701 $-1 #
coedge $-1 $645 $753 $731 $754 reversed $701 $-1 #
loop $-1 $-1 $755 $756 #
vertex $-1 $646 $757 #
straight-curve $-1 -47.384258552812284 0 10.191896912063086 0 -1 0 I I #
edge $-1 $648 -1.5 $743 1.5 $647 $758 forward 7 unknown #
point $-1 -47.384258552812284 40.237694174883281 10.191896912063086 #
coedge $-1 $726 $654 $759 $760 forward $596 $-1 #
coedge $-1 $654 $726 $665 $716 forward $596 $-1 #
straight-curve $-1 0 -40.237694174883281 7.1918969120630862 -1 0 0 I I #
coedge $-1 $759 $658 $674 $723 forward $652 $-1 #
coedge $-1 $658 $759 $660 $713 reversed $652 $-1 #
vertex $-1 $723 $761 #
straight-curve $-1 0 -32.641444821922484 7.1918969120630862 -1 0 0 I I #
edge $-1 $661 -7.1918969120630862 $720 10.191896912063086 $660 $762 forward 7 unknown #
point $-1 47.384258552812284 -32.641444821922484 7.1918969120630862 #
point $-1 47.384258552812284 -40.237694174883281 7.1918969120630862 #
edge $-1 $717 -47.384258552812284 $671 47.384258552812284 $665 $763 forward 7 unknown #
vertex $-1 $716 $764 #
straight-curve $-1 -47.384258552812284 32.641444821922484 0 0 0 -1 I I #
plane-surface $-1 0 32.641444821922484 0 0 -1 0 0 0 -1 forward_v I I I I #
vertex $-1 $713 $765 #
straight-curve $-1 47.384258552812284 0 -10.191896912063086 0 -1 0 I I #
point $-1 47.384258552812284 32.641444821922484 -10.191896912063086 #
edge $-1 $711 -7.1918969120630862 $766 10.191896912063086 $674 $767 forward 7 unknown #
straight-curve $-1 -47.384258552812284 -36.439569498402882 7.1918969120630862 0 1 0 I I #
point $-1 -47.384258552812284 -40.237694174883281 7.1918969120630862 #
coedge $-1 $707 $706 $678 $727 forward $596 $-1 #
edge $-1 $766 -32.641444821922484 $717 32.641444821922484 $678 $768 forward 7 unknown #
face $-1 $756 $769 $19 $-1 $770 reversed single #
loop $-1 $-1 $771 $680 #
plane-surface $-1 0 0 -10.191896912063086 0 0 1 1 0 0 forward_v I I I I #
coedge $-1 $772 $693 $700 $754 forward $681 $-1 #
coedge $-1 $773 $683 $772 $774 forward $627 $-1 #
coedge $-1 $683 $773 $775 $776 reversed $627 $-1 #
coedge $-1 $777 $695 $683 $735 reversed $510 $-1 #
edge $-1 $778 -3.7981246764803984 $779 3.7981246764803984 $734 $780 forward 7 unknown #
coedge $-1 $755 $699 $685 $737 reversed $701 $-1 #
edge $-1 $741 -3.7981246764803984 $743 3.7981246764803984 $736 $781 forward 7 unknown #
coedge $-1 $782 $686 $689 $746 forward $740 $-1 #
coedge $-1 $686 $782 $755 $783 reversed $740 $-1 #
loop $-1 $-1 $686 $784 #
vertex $-1 $783 $785 #
straight-curve $-1 0 32.641444821922484 7.1918969120630862 1 0 0 I I #
vertex $-1 $688 $786 #
straight-curve $-1 0 40.237694174883281 7.1918969120630862 1 0 0 I I #
coedge $-1 $689 $777 $771 $787 reversed $510 $-1 #
edge $-1 $691 -7.1918969120630862 $788 10.191896912063086 $689 $789 forward 7 unknown #
point $-1 47.384258552812284 40.237694174883281 7.1918969120630862 #
point $-1 47.384258552812284 32.641444821922484 7.1918969120630862 #
coedge $-1 $693 $772 $695 $751 reversed $681 $-1 #
straight-curve $-1 0 -40.237694174883281 10.191896912063086 1 0 0 I I #
edge $-1 $696 -1.5 $779 1.5 $695 $790 forward 7 unknown #
point $-1 47.384258552812284 -40.237694174883281 10.191896912063086 #
coedge $-1 $700 $791 $773 $792 reversed $701 $-1 #
edge $-1 $702 -1.5 $793 1.5 $700 $794 forward 7 unknown #
coedge $-1 $795 $736 $739 $783 forward $701 $-1 #
face $-1 $784 $701 $19 $-1 $796 reversed single #
point $-1 -47.384258552812284 -40.237694174883281 10.191896912063086 #
straight-curve $-1 -47.384258552812284 40.237694174883281 8.6918969120630862 0 0 -1 I I #
coedge $-1 $710 $709 $706 $760 reversed $652 $-1 #
edge $-1 $720 -47.384258552812284 $766 47.384258552812284 $759 $797 forward 7 unknown #
point $-1 -47.384258552812284 -32.641444821922484 7.1918969120630862 #
straight-curve $-1 47.384258552812284 -32.641444821922484 0 0 0 -1 I I #
straight-curve $-1 0 32.641444821922484 -10.191896912063086 1 0 0 I I #
point $-1 -47.384258552812284 32.641444821922484 -10.191896912063086 #
point $-1 47.384258552812284 -32.641444821922484 -10.191896912063086 #
vertex $-1 $727 $798 #
straight-curve $-1 -47.384258552812284 -32.641444821922484 0 0 0 -1 I I #
straight-curve $-1 -47.384258552812284 0 -10.191896912063086 0 1 0 I I #
loop $-1 $-1 $775 $728 #
plane-surface $-1 0 -32.641444821922484 0 0 1 0 0 0 1 forward_v I I I I #
coedge $-1 $799 $800 $745 $787 forward $729 $-1 #
coedge $-1 $749 $731 $732 $774 reversed $681 $-1 #
coedge $-1 $733 $732 $753 $792 forward $627 $-1 #
edge $-1 $779 -47.384258552812284 $793 47.384258552812284 $772 $801 forward 7 unknown #
coedge $-1 $802 $803 $733 $776 forward $769 $-1 #
edge $-1 $778 -47.384258552812284 $804 47.384258552812284 $775 $805 forward 7 unknown #
coedge $-1 $745 $734 $803 $806 forward $510 $-1 #
vertex $-1 $806 $807 #
vertex $-1 $751 $808 #
straight-curve $-1 47.384258552812284 -36.439569498402882 7.1918969120630862 0 -1 0 I I #
straight-curve $-1 -47.384258552812284 36.439569498402882 7.1918969120630862 0 1 0 I I #
coedge $-1 $739 $738 $800 $809 reversed $740 $-1 #
edge $-1 $741 -7.1918969120630862 $810 10.191896912063086 $739 $811 forward 7 unknown #
face $-1 $583 $740 $19 $-1 $812 reversed single #
point $-1 -47.384258552812284 32.641444821922484 7.1918969120630862 #
point $-1 -47.384258552812284 40.237694174883281 7.1918969120630862 #
edge $-1 $788 -32.641444821922484 $813 32.641444821922484 $745 $814 forward 7 unknown #
vertex $-1 $787 $815 #
straight-curve $-1 47.384258552812284 32.641444821922484 0 0 0 -1 I I #
straight-curve $-1 47.384258552812284 -40.237694174883281 8.6918969120630862 0 0 -1 I I #
coedge $-1 $753 $795 $802 $816 reversed $701 $-1 #
edge $-1 $793 -3.7981246764803984 $804 3.7981246764803984 $753 $817 forward 7 unknown #
vertex $-1 $792 $818 #
straight-curve $-1 -47.384258552812284 -40.237694174883281 8.6918969120630862 0 0 -1 I I #
coedge $-1 $791 $755 $819 $820 reversed $701 $-1 #
plane-surface $-1 -47.384258552812284 0 0 1 0 0 0 0 -1 forward_v I I I I #
straight-curve $-1 0 -32.641444821922484 -10.191896912063086 -1 0 0 I I #
point $-1 -47.384258552812284 -32.641444821922484 -10.191896912063086 #
coedge $-1 $819 $771 $821 $822 forward $729 $-1 #
coedge $-1 $771 $819 $782 $809 forward $729 $-1 #
straight-curve $-1 0 -40.237694174883281 7.1918969120630862 -1 0 0 I I #
coedge $-1 $821 $775 $791 $816 forward $769 $-1 #
coedge $-1 $775 $821 $777 $806 reversed $769 $-1 #
vertex $-1 $816 $823 #
straight-curve $-1 0 -32.641444821922484 7.1918969120630862 -1 0 0 I I #
edge $-1 $778 -7.1918969120630862 $813 10.191896912063086 $777 $824 forward 7 unknown #
point $-1 47.384258552812284 -32.641444821922484 7.1918969120630862 #
point $-1 47.384258552812284 -40.237694174883281 7.1918969120630862 #
edge $-1 $810 -47.384258552812284 $788 47.384258552812284 $782 $825 forward 7 unknown #
vertex $-1 $809 $826 #
straight-curve $-1 -47.384258552812284 32.641444821922484 0 0 0 -1 I I #
plane-surface $-1 0 32.641444821922484 0 0 -1 0 0 0 -1 forward_v I I I I #
vertex $-1 $806 $827 #
straight-curve $-1 47.384258552812284 0 -10.191896912063086 0 -1 0 I I #
point $-1 47.384258552812284 32.641444821922484 -10.191896912063086 #
edge $-1 $804 -7.1918969120630862 $828 10.191896912063086 $791 $829 forward 7 unknown #
straight-curve $-1 -47.384258552812284 -36.439569498402882 7.1918969120630862 0 1 0 I I #
point $-1 -47.384258552812284 -40.237694174883281 7.1918969120630862 #
coedge $-1 $800 $799 $795 $820 forward $729 $-1 #
edge $-1 $828 -32.641444821922484 $810 32.641444821922484 $795 $830 forward 7 unknown #
coedge $-1 $803 $802 $799 $822 reversed $769 $-1 #
edge $-1 $813 -47.384258552812284 $828 47.384258552812284 $821 $831 forward 7 unknown #
point $-1 -47.384258552812284 -32.641444821922484 7.1918969120630862 #
straight-curve $-1 47.384258552812284 -32.641444821922484 0 0 0 -1 I I #
straight-curve $-1 0 32.641444821922484 -10.191896912063086 1 0 0 I I #
point $-1 -47.384258552812284 32.641444821922484 -10.191896912063086 #
point $-1 47.384258552812284 -32.641444821922484 -10.191896912063086 #
vertex $-1 $820 $832 #
straight-curve $-1 -47.384258552812284 -32.641444821922484 0 0 0 -1 I I #
straight-curve $-1 -47.384258552812284 0 -10.191896912063086 0 1 0 I I #
straight-curve $-1 0 -32.641444821922484 -10.191896912063086 -1 0 0 I I #
point $-1 -47.384258552812284 -32.641444821922484 -10.191896912063086 #
End-of-ACIS-data 