500 0 7 0           
7 Unknown 11 ACIS 5.0 NT 24 Fri Mar 26 15:53:27 1999 
-1 9.9999999999999995e-007 1e-010 
body $-1 $7 $-1 $8 #
body $-1 $9 $-1 $10 #
body $-1 $11 $-1 $12 #
body $-1 $13 $-1 $14 #
body $-1 $15 $-1 $16 #
body $-1 $17 $-1 $18 #
body $-1 $19 $-1 $20 #
lump $-1 $-1 $21 $0 #
transform $-1 1 0 0 0 1 0 0 0 1 59.728385265663626 27.661859948180339 7.7256003030420111 1 rotate no_reflect no_shear #
lump $-1 $-1 $22 $1 #
transform $-1 1 0 0 0 1 0 0 0 1 59.728385265663626 27.661859948180339 7.7256003030420111 1 rotate no_reflect no_shear #
lump $-1 $-1 $23 $2 #
transform $-1 1 0 0 0 1 0 0 0 1 59.728385265663626 27.661859948180339 7.7256003030420111 1 rotate no_reflect no_shear #
lump $-1 $-1 $24 $3 #
transform $-1 1 0 0 0 1 0 0 0 1 59.728385265663626 27.661859948180339 7.7256003030420111 1 rotate no_reflect no_shear #
lump $-1 $-1 $25 $4 #
transform $-1 1 0 0 0 1 0 0 0 1 59.728385265663626 27.661859948180339 7.7256003030420111 1 rotate no_reflect no_shear #
lump $-1 $-1 $26 $5 #
transform $-1 1 0 0 0 1 0 0 0 1 59.728385265663626 27.661859948180339 7.7256003030420111 1 rotate no_reflect no_shear #
lump $-1 $-1 $27 $6 #
transform $-1 1 0 0 0 1 0 0 0 1 59.728385265663626 27.661859948180339 7.7256003030420111 1 rotate no_reflect no_shear #
shell $-1 $-1 $-1 $28 $-1 $7 #
shell $-1 $-1 $-1 $29 $-1 $9 #
shell $-1 $-1 $-1 $30 $-1 $11 #
shell $-1 $-1 $-1 $31 $-1 $13 #
shell $-1 $-1 $-1 $32 $-1 $15 #
shell $-1 $-1 $-1 $33 $-1 $17 #
shell $-1 $-1 $-1 $34 $-1 $19 #
face $-1 $35 $36 $21 $-1 $37 forward single #
face $-1 $38 $39 $22 $-1 $40 reversed single #
face $-1 $41 $42 $23 $-1 $43 forward single #
face $-1 $44 $45 $24 $-1 $46 reversed single #
face $-1 $47 $48 $25 $-1 $49 forward single #
face $-1 $50 $51 $26 $-1 $52 reversed single #
face $-1 $53 $54 $27 $-1 $55 forward single #
face $-1 $56 $57 $21 $-1 $58 reversed single #
loop $-1 $-1 $59 $28 #
plane-surface $-1 0 0 7.7256003030420111 0 0 1 1 0 0 forward_v I I I I #
face $-1 $60 $61 $22 $-1 $62 reversed single #
loop $-1 $-1 $63 $29 #
plane-surface $-1 -11.960100299635464 -104.44719288265463 92.375946315091127 -1 0 0 0 -0.64278761758704617 0.76604443648966558 forward_v I I I I #
face $-1 $64 $65 $23 $-1 $66 forward single #
loop $-1 $67 $68 $30 #
cone-surface $-1 -24.282189949507575 -21.08560117799518 1.3296270894645041 0 0.64278761758704617 -0.76604443648966558 2 0 0 1 I I 0 1 2 forward I I I I #
face $-1 $69 $70 $24 $-1 $71 reversed single #
loop $-1 $-1 $72 $31 #
plane-surface $-1 -34.348246546262878 64.279212746698562 129.98933437060995 1 0 0 0 -0.6560590369687036 -0.75470957328743171 forward_v I I I I #
face $-1 $73 $74 $25 $-1 $75 forward single #
loop $-1 $76 $77 $32 #
cone-surface $-1 -24.897191571908309 24.279761614741563 4.5118789326387478 0 -0.6560590369687036 -0.75470957328743171 1 0 0 1 I I 0 1 1 forward I I I I #
face $-1 $78 $79 $26 $-1 $80 reversed single #
loop $-1 $-1 $81 $33 #
plane-surface $-1 15.446136597553734 64.279212746698562 129.98933437060995 1 0 0 0 -0.6560590369687036 -0.75470957328743171 forward_v I I I I #
face $-1 $82 $83 $27 $-1 $84 forward single #
loop $-1 $85 $86 $34 #
cone-surface $-1 24.897191571908301 24.279761614741563 4.5118789326387478 0 -0.6560590369687036 -0.75470957328743171 1 0 0 1 I I 0 1 1 forward I I I I #
face $-1 $87 $88 $21 $-1 $89 reversed single #
loop $-1 $-1 $90 $35 #
plane-surface $-1 0 0 -7.7256003030420111 0 0 1 1 0 0 forward_v I I I I #
coedge $-1 $91 $92 $93 $94 forward $36 $-1 #
face $-1 $95 $96 $22 $-1 $97 reversed single #
loop $-1 $-1 $98 $38 #
plane-surface $-1 -24.282189949507575 -27.661859948180322 0.866751848545249 0 -0.64278761758704617 0.76604443648966558 1 0 0 forward_v I I I I #
coedge $-1 $99 $100 $101 $102 reversed $39 $-1 #
face $-1 $-1 $103 $23 $-1 $104 forward single #
loop $-1 $105 $106 $41 #
cone-surface $-1 -24.282189949507575 -17.953583347973201 -2.4029663333542928 0 0.64278761758704617 -0.76604443648966558 1 0 0 1 I I -0.70710678118654746 0.70710678118654746 1 forward I I I I #
loop $-1 $-1 $107 $30 #
coedge $-1 $68 $68 $108 $109 reversed $42 $-1 #
face $-1 $110 $111 $24 $-1 $112 reversed single #
loop $-1 $-1 $113 $44 #
plane-surface $-1 -24.897191571908309 -14.091481087475401 39.83416605661732 0 0.6560590369687036 0.75470957328743171 1 0 0 forward_v I I I I #
coedge $-1 $114 $115 $116 $117 reversed $45 $-1 #
face $-1 $-1 $118 $25 $-1 $119 forward single #
loop $-1 $120 $121 $47 #
cone-surface $-1 -24.897191571908309 22.977964852903444 3.0143330971704749 0 -0.6560590369687036 -0.75470957328743171 0.5 0 0 1 I I -0.70710678118654779 0.70710678118654713 0.5 forward I I I I #
loop $-1 $-1 $122 $32 #
coedge $-1 $77 $77 $123 $124 reversed $48 $-1 #
face $-1 $125 $126 $26 $-1 $127 reversed single #
loop $-1 $-1 $128 $50 #
plane-surface $-1 24.897191571908301 -14.091481087475401 39.83416605661732 0 0.6560590369687036 0.75470957328743171 1 0 0 forward_v I I I I #
coedge $-1 $129 $130 $131 $132 reversed $51 $-1 #
face $-1 $-1 $133 $27 $-1 $134 forward single #
loop $-1 $135 $136 $53 #
cone-surface $-1 24.897191571908301 22.977964852903444 3.0143330971704749 0 -0.6560590369687036 -0.75470957328743171 0.5 0 0 1 I I -0.70710678118654779 0.70710678118654713 0.5 forward I I I I #
loop $-1 $-1 $137 $34 #
coedge $-1 $86 $86 $138 $139 reversed $54 $-1 #
face $-1 $140 $141 $21 $-1 $142 reversed single #
loop $-1 $-1 $143 $56 #
plane-surface $-1 0 -27.661859948180339 0 0 1 0 0 0 1 forward_v I I I I #
coedge $-1 $144 $145 $146 $147 forward $57 $-1 #
coedge $-1 $148 $59 $149 $150 forward $36 $-1 #
coedge $-1 $59 $148 $151 $152 forward $36 $-1 #
coedge $-1 $153 $154 $59 $94 reversed $155 $-1 #
edge $-1 $156 -27.661859948180339 $157 27.661859948180339 $93 $158 forward 7 unknown #
face $-1 $159 $160 $22 $-1 $161 reversed single #
loop $-1 $-1 $162 $60 #
plane-surface $-1 -36.604279599379687 -104.44719288265463 92.375946315091127 1 0 0 0 0.64278761758704617 -0.76604443648966558 forward_v I I I I #
coedge $-1 $163 $164 $165 $166 reversed $61 $-1 #
coedge $-1 $100 $63 $167 $168 reversed $39 $-1 #
coedge $-1 $63 $99 $163 $169 reversed $39 $-1 #
coedge $-1 $165 $170 $63 $102 forward $171 $-1 #
edge $-1 $172 24.561736493146977 $173 32.735793608647455 $101 $174 forward 7 unknown #
loop $-1 $-1 $108 $64 #
plane-surface $-1 -24.282189949507575 -27.661859948180322 0.866751848545249 0 -0.64278761758704617 0.76604443648966558 1 0 0 forward_v I I I I #
loop $-1 $-1 $175 $41 #
coedge $-1 $106 $106 $107 $176 reversed $65 $-1 #
coedge $-1 $107 $107 $106 $176 forward $67 $-1 #
coedge $-1 $108 $108 $68 $109 forward $103 $-1 #
edge $-1 $177 4.8497590100138397e-016 $177 6.2831853071796013 $108 $178 forward 7 unknown #
face $-1 $179 $180 $24 $-1 $181 reversed single #
loop $-1 $-1 $182 $69 #
plane-surface $-1 -15.446136597553741 64.279212746698562 129.98933437060995 -1 0 0 0 0.6560590369687036 0.75470957328743171 forward_v I I I I #
coedge $-1 $183 $184 $185 $186 reversed $70 $-1 #
coedge $-1 $115 $72 $187 $188 reversed $45 $-1 #
coedge $-1 $72 $114 $183 $189 reversed $45 $-1 #
coedge $-1 $185 $190 $72 $117 forward $191 $-1 #
edge $-1 $192 4.4777464251689416 $193 9.2944086053389228 $116 $194 forward 7 unknown #
loop $-1 $-1 $123 $73 #
plane-surface $-1 -24.897191571908309 -14.091481087475401 39.83416605661732 0 0.6560590369687036 0.75470957328743171 1 0 0 forward_v I I I I #
loop $-1 $-1 $195 $47 #
coedge $-1 $121 $121 $122 $196 reversed $74 $-1 #
coedge $-1 $122 $122 $121 $196 forward $76 $-1 #
coedge $-1 $123 $123 $77 $124 forward $118 $-1 #
edge $-1 $197 5.7840436573664235e-016 $197 6.2831853071796013 $123 $198 forward 7 unknown #
face $-1 $199 $200 $26 $-1 $201 forward single #
loop $-1 $-1 $202 $78 #
plane-surface $-1 34.348246546262871 64.279212746698562 129.98933437060995 -1 0 0 0 0.6560590369687036 0.75470957328743171 forward_v I I I I #
coedge $-1 $203 $204 $205 $206 reversed $79 $-1 #
coedge $-1 $130 $81 $207 $208 reversed $51 $-1 #
coedge $-1 $81 $129 $203 $209 reversed $51 $-1 #
coedge $-1 $205 $210 $81 $132 forward $200 $-1 #
edge $-1 $211 4.4777464251689416 $212 9.2944086053389228 $131 $213 forward 7 unknown #
loop $-1 $-1 $138 $82 #
plane-surface $-1 24.897191571908301 -14.091481087475401 39.83416605661732 0 0.6560590369687036 0.75470957328743171 1 0 0 forward_v I I I I #
loop $-1 $-1 $214 $53 #
coedge $-1 $136 $136 $137 $215 reversed $83 $-1 #
coedge $-1 $137 $137 $136 $215 forward $85 $-1 #
coedge $-1 $138 $138 $86 $139 forward $133 $-1 #
edge $-1 $216 5.7840436573664235e-016 $216 6.2831853071796013 $138 $217 forward 7 unknown #
face $-1 $218 $219 $21 $-1 $220 reversed single #
loop $-1 $-1 $221 $87 #
plane-surface $-1 -59.728385265663626 0 0 1 0 0 0 0 -1 forward_v I I I I #
coedge $-1 $222 $151 $223 $224 forward $88 $-1 #
coedge $-1 $225 $90 $222 $226 forward $57 $-1 #
coedge $-1 $90 $225 $227 $228 forward $57 $-1 #
coedge $-1 $154 $153 $90 $147 reversed $155 $-1 #
edge $-1 $229 -27.661859948180339 $230 27.661859948180339 $146 $231 forward 7 unknown #
coedge $-1 $92 $91 $232 $233 forward $36 $-1 #
coedge $-1 $234 $235 $91 $150 reversed $219 $-1 #
edge $-1 $157 -59.728385265663626 $236 59.728385265663626 $149 $237 forward 7 unknown #
coedge $-1 $143 $238 $92 $152 reversed $88 $-1 #
edge $-1 $239 -59.728385265663626 $156 59.728385265663626 $151 $240 forward 7 unknown #
coedge $-1 $146 $93 $238 $241 forward $155 $-1 #
coedge $-1 $93 $146 $234 $242 reversed $155 $-1 #
loop $-1 $-1 $153 $218 #
vertex $-1 $94 $243 #
vertex $-1 $94 $244 #
straight-curve $-1 59.728385265663626 0 7.7256003030420111 0 1 0 I I #
face $-1 $-1 $171 $22 $-1 $245 forward single #
loop $-1 $-1 $246 $95 #
plane-surface $-1 0 -27.661859948180339 0 0 1 0 0 0 1 forward_v I I I I #
coedge $-1 $247 $248 $249 $250 reversed $96 $-1 #
coedge $-1 $251 $98 $100 $169 forward $61 $-1 #
coedge $-1 $98 $251 $247 $252 forward $61 $-1 #
coedge $-1 $249 $101 $98 $166 forward $171 $-1 #
edge $-1 $173 -0.18099467511832401 $253 24.463184624625899 $165 $254 forward 7 unknown #
coedge $-1 $255 $256 $99 $168 forward $160 $-1 #
edge $-1 $257 -45.321221309000329 $172 -38.462372854503556 $167 $258 forward 7 unknown #
edge $-1 $173 -10.670473834334462 $257 2.3170426754483076e-014 $100 $259 forward 7 unknown #
coedge $-1 $101 $249 $255 $260 forward $171 $-1 #
loop $-1 $-1 $249 $159 #
vertex $-1 $168 $261 #
vertex $-1 $102 $262 #
straight-curve $-1 -11.960100299635464 -52.223596441327317 7.7256003030420146 0 1 0 I I #
coedge $-1 $175 $175 $-1 $263 reversed $105 $-1 #
edge $-1 $264 0 $264 6.2831853071796004 $106 $265 forward 7 unknown #
vertex $-1 $109 $266 #
ellipse-curve $-1 -24.282189949507575 -23.574831390430102 4.2961760757936212 0 -0.64278761758704617 0.76604443648966558 2 0 0 1 I I #
face $-1 $-1 $191 $24 $-1 $267 forward single #
loop $-1 $-1 $268 $110 #
plane-surface $-1 0 27.661859948180339 0 0 -1 0 0 0 -1 forward_v I I I I #
coedge $-1 $269 $270 $271 $272 reversed $111 $-1 #
coedge $-1 $273 $113 $115 $189 forward $70 $-1 #
coedge $-1 $113 $273 $269 $274 forward $70 $-1 #
coedge $-1 $271 $116 $113 $186 forward $191 $-1 #
edge $-1 $193 -21.899650760308724 $275 -2.9975408115995865 $185 $276 forward 7 unknown #
coedge $-1 $277 $278 $114 $188 forward $180 $-1 #
edge $-1 $279 -61.456127525420328 $192 -57.269066882262962 $187 $280 forward 7 unknown #
edge $-1 $193 48.941579864415473 $279 55.32371989636065 $115 $281 forward 7 unknown #
coedge $-1 $116 $271 $277 $282 forward $191 $-1 #
loop $-1 $-1 $271 $179 #
vertex $-1 $188 $283 #
vertex $-1 $117 $284 #
straight-curve $-1 -34.348246546262878 32.139606373349281 7.7256003030420146 0 -1 0 I I #
coedge $-1 $195 $195 $-1 $285 reversed $120 $-1 #
edge $-1 $286 0 $286 6.2831853071796004 $121 $287 forward 7 unknown #
vertex $-1 $124 $288 #
ellipse-curve $-1 -24.897191571908309 25.253528858095351 5.6320699814633262 0 0.6560590369687036 0.75470957328743171 1 0 0 1 I I #
face $-1 $-1 $289 $26 $-1 $290 reversed single #
loop $-1 $-1 $131 $125 #
plane-surface $-1 0 0 7.7256003030420111 0 0 1 1 0 0 forward_v I I I I #
coedge $-1 $291 $292 $293 $294 reversed $126 $-1 #
coedge $-1 $295 $128 $130 $209 forward $79 $-1 #
coedge $-1 $128 $295 $291 $296 forward $79 $-1 #
coedge $-1 $293 $131 $128 $206 forward $200 $-1 #
edge $-1 $212 2.997540811599583 $297 21.89965076030872 $205 $298 forward 7 unknown #
coedge $-1 $299 $300 $129 $208 forward $289 $-1 #
edge $-1 $301 -61.456127525420328 $211 -57.269066882262962 $207 $302 forward 7 unknown #
edge $-1 $212 48.941579864415473 $301 55.32371989636065 $130 $303 forward 7 unknown #
coedge $-1 $131 $293 $299 $304 forward $200 $-1 #
vertex $-1 $132 $305 #
vertex $-1 $132 $306 #
straight-curve $-1 15.446136597553734 32.139606373349281 7.7256003030420146 0 -1 0 I I #
coedge $-1 $214 $214 $-1 $307 reversed $135 $-1 #
edge $-1 $308 0 $308 6.2831853071796004 $136 $309 forward 7 unknown #
vertex $-1 $139 $310 #
ellipse-curve $-1 24.897191571908301 25.253528858095351 5.6320699814633262 0 0.6560590369687036 0.75470957328743171 1 0 0 1 I I #
face $-1 $-1 $155 $21 $-1 $311 reversed single #
loop $-1 $-1 $234 $140 #
plane-surface $-1 0 27.661859948180339 0 0 -1 0 0 0 -1 forward_v I I I I #
coedge $-1 $312 $232 $235 $313 forward $141 $-1 #
coedge $-1 $238 $143 $144 $226 reversed $88 $-1 #
coedge $-1 $232 $312 $143 $224 reversed $141 $-1 #
edge $-1 $239 -7.7256003030420111 $314 7.7256003030420111 $223 $315 forward 7 unknown #
coedge $-1 $145 $144 $312 $316 forward $57 $-1 #
edge $-1 $230 -59.728385265663626 $314 59.728385265663626 $222 $317 forward 7 unknown #
coedge $-1 $235 $234 $145 $228 reversed $219 $-1 #
edge $-1 $318 -59.728385265663626 $229 59.728385265663626 $227 $319 forward 7 unknown #
vertex $-1 $147 $320 #
vertex $-1 $241 $321 #
straight-curve $-1 59.728385265663626 0 -7.7256003030420111 0 -1 0 I I #
coedge $-1 $221 $223 $148 $233 reversed $141 $-1 #
edge $-1 $236 -27.661859948180339 $239 27.661859948180339 $232 $322 forward 7 unknown #
coedge $-1 $227 $149 $154 $242 forward $219 $-1 #
coedge $-1 $149 $227 $221 $313 reversed $219 $-1 #
vertex $-1 $150 $323 #
straight-curve $-1 0 27.661859948180339 7.7256003030420111 -1 0 0 I I #
coedge $-1 $151 $222 $153 $241 reversed $88 $-1 #
vertex $-1 $233 $324 #
straight-curve $-1 0 -27.661859948180339 7.7256003030420111 1 0 0 I I #
edge $-1 $156 -7.7256003030420111 $230 7.7256003030420111 $153 $325 forward 7 unknown #
edge $-1 $157 -7.7256003030420111 $229 7.7256003030420111 $154 $326 forward 7 unknown #
point $-1 59.728385265663626 -27.661859948180339 7.7256003030420111 #
point $-1 59.728385265663626 27.661859948180339 7.7256003030420111 #
plane-surface $-1 0 0 7.7256003030420111 0 0 1 1 0 0 forward_v I I I I #
coedge $-1 $256 $255 $248 $327 forward $160 $-1 #
coedge $-1 $248 $162 $164 $252 reversed $96 $-1 #
coedge $-1 $162 $247 $246 $327 reversed $96 $-1 #
coedge $-1 $170 $165 $162 $250 forward $171 $-1 #
edge $-1 $253 -32.735793608647455 $328 -24.561736493146977 $249 $329 forward 7 unknown #
coedge $-1 $164 $163 $256 $330 reversed $61 $-1 #
edge $-1 $331 -2.3170426754483076e-014 $253 10.670473834334462 $247 $332 forward 7 unknown #
vertex $-1 $166 $333 #
straight-curve $-1 -12.141094974753788 -19.487802832679858 7.7256003030420111 -1 0 0 I I #
coedge $-1 $246 $167 $170 $260 reversed $160 $-1 #
coedge $-1 $167 $246 $251 $330 forward $160 $-1 #
vertex $-1 $168 $334 #
straight-curve $-1 -11.960100299635464 -27.661859948180336 46.187973157545564 0 0 1 I I #
straight-curve $-1 -11.960100299635464 -27.661859948180322 0.866751848545249 0 -0.76604443648966558 -0.64278761758704617 I I #
edge $-1 $328 -36.604279599379687 $172 -11.960100299635464 $255 $335 forward 7 unknown #
point $-1 -11.960100299635464 -27.661859948180339 7.7256003030420111 #
point $-1 -11.960100299635464 -19.487802832679858 7.725600303042012 #
edge $-1 $336 1 $336 0 $175 $-1 forward 7 unknown #
vertex $-1 $176 $337 #
ellipse-curve $-1 -24.282189949507575 -18.596370965560247 -1.6369218968646271 0 -0.64278761758704617 0.76604443648966558 2 0 0 1 I I #
point $-1 -22.282189949507575 -23.574831390430113 4.2961760757936354 #
plane-surface $-1 0 0 7.7256003030420111 0 0 1 1 0 0 forward_v I I I I #
coedge $-1 $278 $277 $270 $338 forward $180 $-1 #
coedge $-1 $270 $182 $184 $274 reversed $111 $-1 #
coedge $-1 $182 $269 $268 $338 reversed $111 $-1 #
coedge $-1 $190 $185 $182 $272 forward $191 $-1 #
edge $-1 $275 -9.2944086053389228 $339 -4.4777464251689416 $271 $340 forward 7 unknown #
coedge $-1 $184 $183 $278 $341 reversed $70 $-1 #
edge $-1 $342 -55.32371989636065 $275 -48.941579864415473 $269 $343 forward 7 unknown #
vertex $-1 $186 $344 #
straight-curve $-1 -12.448595785954154 22.845197768010358 7.7256003030420146 1 0 0 I I #
coedge $-1 $268 $187 $190 $282 reversed $180 $-1 #
coedge $-1 $187 $268 $273 $341 forward $180 $-1 #
vertex $-1 $188 $345 #
straight-curve $-1 -34.348246546262878 27.661859948180339 64.994667185304976 0 0 1 I I #
straight-curve $-1 -34.348246546262878 -14.091481087475401 39.83416605661732 0 0.75470957328743171 -0.6560590369687036 I I #
edge $-1 $339 15.446136597553741 $192 34.348246546262878 $277 $346 forward 7 unknown #
point $-1 -34.348246546262878 27.661859948180339 7.7256003030420111 #
point $-1 -34.348246546262878 22.845197768010358 7.7256003030420146 #
edge $-1 $347 1 $347 0 $195 $-1 forward 7 unknown #
vertex $-1 $196 $348 #
ellipse-curve $-1 -24.897191571908309 23.305994371387797 3.3916878838141904 0 0.6560590369687036 0.75470957328743171 1 0 0 1 I I #
point $-1 -23.897191571908309 25.253528858095333 5.6320699814633048 #
loop $-1 $-1 $207 $199 #
plane-surface $-1 0 27.661859948180339 0 0 -1 0 0 0 -1 forward_v I I I I #
coedge $-1 $292 $202 $204 $296 reversed $126 $-1 #
coedge $-1 $202 $291 $349 $350 reversed $126 $-1 #
coedge $-1 $210 $205 $202 $294 forward $200 $-1 #
edge $-1 $297 -9.2944086053389228 $351 -4.4777464251689416 $293 $352 forward 7 unknown #
coedge $-1 $204 $203 $300 $353 reversed $79 $-1 #
edge $-1 $354 -55.32371989636065 $297 -48.941579864415473 $291 $355 forward 7 unknown #
vertex $-1 $206 $356 #
straight-curve $-1 12.448595785954151 22.845197768010358 7.7256003030420146 1 0 0 I I #
coedge $-1 $349 $207 $210 $304 reversed $289 $-1 #
coedge $-1 $207 $349 $295 $353 forward $289 $-1 #
vertex $-1 $208 $357 #
straight-curve $-1 15.446136597553734 27.661859948180339 64.994667185304976 0 0 1 I I #
straight-curve $-1 15.446136597553734 -14.091481087475401 39.83416605661732 0 0.75470957328743171 -0.6560590369687036 I I #
edge $-1 $351 -34.348246546262871 $211 -15.446136597553734 $299 $358 forward 7 unknown #
point $-1 15.446136597553734 27.661859948180339 7.7256003030420111 #
point $-1 15.446136597553734 22.845197768010358 7.7256003030420146 #
edge $-1 $359 1 $359 0 $214 $-1 forward 7 unknown #
vertex $-1 $215 $360 #
ellipse-curve $-1 24.897191571908301 23.305994371387797 3.3916878838141904 0 0.6560590369687036 0.75470957328743171 1 0 0 1 I I #
point $-1 25.897191571908301 25.253528858095333 5.6320699814633048 #
plane-surface $-1 59.728385265663626 0 0 -1 0 0 0 0 1 forward_v I I I I #
coedge $-1 $223 $221 $225 $316 reversed $141 $-1 #
edge $-1 $236 -7.7256003030420111 $318 7.7256003030420111 $235 $361 forward 7 unknown #
vertex $-1 $316 $362 #
straight-curve $-1 -59.728385265663626 -27.661859948180339 0 0 0 -1 I I #
edge $-1 $314 -27.661859948180339 $318 27.661859948180339 $312 $363 forward 7 unknown #
straight-curve $-1 0 -27.661859948180339 -7.7256003030420111 -1 0 0 I I #
vertex $-1 $228 $364 #
straight-curve $-1 0 27.661859948180339 -7.7256003030420111 1 0 0 I I #
point $-1 59.728385265663626 27.661859948180339 -7.7256003030420111 #
point $-1 59.728385265663626 -27.661859948180339 -7.7256003030420111 #
straight-curve $-1 -59.728385265663626 0 7.7256003030420111 0 -1 0 I I #
point $-1 -59.728385265663626 27.661859948180339 7.7256003030420111 #
point $-1 -59.728385265663626 -27.661859948180339 7.7256003030420111 #
straight-curve $-1 59.728385265663626 -27.661859948180339 0 0 0 -1 I I #
straight-curve $-1 59.728385265663626 27.661859948180339 0 0 0 -1 I I #
edge $-1 $328 38.462372854503556 $331 45.321221309000329 $246 $365 forward 7 unknown #
vertex $-1 $260 $366 #
straight-curve $-1 -36.604279599379687 -52.223596441327317 7.7256003030420146 0 -1 0 I I #
edge $-1 $331 -24.463184624625899 $257 0.18099467511832401 $256 $367 forward 7 unknown #
vertex $-1 $330 $368 #
straight-curve $-1 -36.604279599379687 -27.661859948180322 0.866751848545249 0 0.76604443648966558 0.64278761758704617 I I #
point $-1 -36.604279599379687 -19.487802832679858 7.725600303042012 #
point $-1 -11.960100299635464 -27.661859948180339 0.86675184854523413 #
straight-curve $-1 0 -27.661859948180339 7.7256003030420111 1 0 0 I I #
vertex $-1 $263 $369 #
point $-1 -22.282189949507575 -18.596370965560247 -1.6369218968646271 #
edge $-1 $339 57.269066882262962 $342 61.456127525420328 $268 $370 forward 7 unknown #
vertex $-1 $282 $371 #
straight-curve $-1 -15.446136597553741 32.139606373349281 7.7256003030420146 0 1 0 I I #
edge $-1 $342 2.9975408115995865 $279 21.899650760308724 $278 $372 forward 7 unknown #
vertex $-1 $341 $373 #
straight-curve $-1 -15.446136597553741 -14.091481087475401 39.83416605661732 0 -0.75470957328743171 0.6560590369687036 I I #
point $-1 -15.446136597553741 22.845197768010358 7.7256003030420146 #
point $-1 -34.348246546262878 27.661859948180336 3.5385396598846484 #
straight-curve $-1 0 27.661859948180339 7.7256003030420111 -1 0 0 I I #
vertex $-1 $285 $374 #
point $-1 -23.897191571908309 23.305994371387797 3.3916878838141904 #
coedge $-1 $300 $299 $292 $350 forward $289 $-1 #
edge $-1 $351 57.269066882262962 $354 61.456127525420328 $349 $375 forward 7 unknown #
vertex $-1 $304 $376 #
straight-curve $-1 34.348246546262871 32.139606373349281 7.7256003030420146 0 1 0 I I #
edge $-1 $354 -21.89965076030872 $301 -2.997540811599583 $300 $377 forward 7 unknown #
vertex $-1 $353 $378 #
straight-curve $-1 34.348246546262871 -14.091481087475401 39.83416605661732 0 -0.75470957328743171 0.6560590369687036 I I #
point $-1 34.348246546262871 22.845197768010358 7.7256003030420146 #
point $-1 15.446136597553734 27.661859948180336 3.5385396598846484 #
straight-curve $-1 0 27.661859948180339 7.7256003030420111 -1 0 0 I I #
vertex $-1 $307 $379 #
point $-1 25.897191571908301 23.305994371387797 3.3916878838141904 #
straight-curve $-1 -59.728385265663626 27.661859948180339 0 0 0 -1 I I #
point $-1 -59.728385265663626 -27.661859948180339 -7.7256003030420111 #
straight-curve $-1 -59.728385265663626 0 -7.7256003030420111 0 1 0 I I #
point $-1 -59.728385265663626 27.661859948180339 -7.7256003030420111 #
straight-curve $-1 -36.604279599379687 -27.661859948180336 46.187973157545564 0 0 -1 I I #
point $-1 -36.604279599379687 -27.661859948180339 7.7256003030420111 #
straight-curve $-1 -12.141094974753788 -27.661859948180339 0.86675184854523235 1 0 0 I I #
point $-1 -36.604279599379687 -27.661859948180339 0.86675184854523413 #
point $-1 -24.282189949507575 -17.310795730386154 -3.1690107698439585 #
straight-curve $-1 -15.446136597553741 27.661859948180339 64.994667185304976 0 0 -1 I I #
point $-1 -15.446136597553741 27.661859948180339 7.7256003030420111 #
straight-curve $-1 -12.448595785954154 27.661859948180339 3.5385396598846519 -1 0 0 I I #
point $-1 -15.446136597553741 27.661859948180336 3.5385396598846484 #
point $-1 -24.897191571908309 22.649935334419091 2.6369783105267595 #
straight-curve $-1 34.348246546262871 27.661859948180339 64.994667185304976 0 0 -1 I I #
point $-1 34.348246546262871 27.661859948180339 7.7256003030420111 #
straight-curve $-1 12.448595785954151 27.661859948180339 3.5385396598846519 -1 0 0 I I #
point $-1 34.348246546262871 27.661859948180336 3.5385396598846484 #
point $-1 24.897191571908301 22.649935334419091 2.6369783105267595 #
End-of-ACIS-data 