500 0 8 0           
7 Unknown 11 ACIS 5.0 NT 24 Fri Mar 26 00:08:18 1999 
-1 9.9999999999999995e-007 1e-010 
body $-1 $8 $-1 $9 #
body $-1 $10 $-1 $11 #
body $-1 $12 $-1 $13 #
body $-1 $14 $-1 $15 #
body $-1 $16 $-1 $17 #
body $-1 $18 $-1 $19 #
body $-1 $20 $-1 $21 #
body $-1 $22 $-1 $23 #
lump $-1 $-1 $24 $0 #
transform $-1 1 0 0 0 1 0 0 0 1 73.539841914120913 46.297535230378912 17.001666666879068 1 rotate no_reflect no_shear #
lump $-1 $-1 $25 $1 #
transform $-1 1 0 0 0 1 0 0 0 1 73.539841914120913 46.297535230378912 17.001666666879068 1 rotate no_reflect no_shear #
lump $-1 $-1 $26 $2 #
transform $-1 1 0 0 0 1 0 0 0 1 73.539841914120913 46.297535230378912 17.001666666879068 1 rotate no_reflect no_shear #
lump $-1 $-1 $27 $3 #
transform $-1 1 0 0 0 1 0 0 0 1 73.539841914120913 46.297535230378912 17.001666666879068 1 rotate no_reflect no_shear #
lump $-1 $-1 $28 $4 #
transform $-1 1 0 0 0 1 0 0 0 1 73.539841914120913 46.297535230378912 17.001666666879068 1 rotate no_reflect no_shear #
lump $-1 $-1 $29 $5 #
transform $-1 1 0 0 0 1 0 0 0 1 73.539841914120913 46.297535230378912 17.001666666879068 1 rotate no_reflect no_shear #
lump $-1 $-1 $30 $6 #
transform $-1 1 0 0 0 1 0 0 0 1 73.539841914120913 46.297535230378912 17.001666666879068 1 rotate no_reflect no_shear #
lump $-1 $-1 $31 $7 #
transform $-1 1 0 0 0 1 0 0 0 1 73.539841914120913 46.297535230378912 17.001666666879068 1 rotate no_reflect no_shear #
shell $-1 $-1 $-1 $32 $-1 $8 #
shell $-1 $-1 $-1 $33 $-1 $10 #
shell $-1 $-1 $-1 $34 $-1 $12 #
shell $-1 $-1 $-1 $35 $-1 $14 #
shell $-1 $-1 $-1 $36 $-1 $16 #
shell $-1 $-1 $-1 $37 $-1 $18 #
shell $-1 $-1 $-1 $38 $-1 $20 #
shell $-1 $-1 $-1 $39 $-1 $22 #
face $-1 $40 $41 $24 $-1 $42 forward single #
face $-1 $43 $44 $25 $-1 $45 forward single #
face $-1 $46 $47 $26 $-1 $48 reversed single #
face $-1 $49 $50 $27 $-1 $51 forward single #
face $-1 $52 $53 $28 $-1 $54 forward single #
face $-1 $55 $56 $29 $-1 $57 reversed single #
face $-1 $58 $59 $30 $-1 $60 forward single #
face $-1 $61 $62 $31 $-1 $63 forward single #
face $-1 $64 $65 $24 $-1 $66 reversed single #
loop $-1 $-1 $67 $32 #
plane-surface $-1 0 0 17.001666666879068 0 0 1 1 0 0 forward_v I I I I #
face $-1 $68 $69 $25 $-1 $70 reversed single #
loop $-1 $-1 $71 $33 #
plane-surface $-1 0 -39.564258818050767 -11.490380830450462 0 0 1 1 0 0 forward_v I I I I #
face $-1 $72 $73 $26 $-1 $74 reversed single #
loop $-1 $-1 $75 $34 #
plane-surface $-1 -149.29148013907417 28.258107159654031 131.15517469226339 0 1 0 -0.51503808176128008 0 0.85716729658548041 forward_v I I I I #
face $-1 $76 $77 $27 $-1 $78 forward single #
loop $-1 $79 $80 $35 #
cone-surface $-1 -62.842212583490195 33.412229465575422 9.7445580970999188 0.51503808176128008 0 -0.85716729658548041 1.2857509448782207 0 0.77255712264192011 1 I I 0 1 1.5 forward I I I I #
face $-1 $81 $82 $28 $-1 $83 forward single #
loop $-1 $84 $85 $36 #
cone-surface $-1 -62.842212583490195 41.143412924457508 9.7445580970999188 0.51503808176128008 0 -0.85716729658548041 1.2857509448782207 0 0.77255712264192011 1 I I 0 1 1.5 forward I I I I #
face $-1 $86 $87 $29 $-1 $88 reversed single #
loop $-1 $-1 $89 $37 #
plane-surface $-1 123.86010334220488 -10.300423042678318 207.88834281230092 0 -1 0 -0.85716730853699208 0 -0.51503806187062418 forward_v I I I I #
face $-1 $90 $91 $30 $-1 $92 forward single #
loop $-1 $93 $94 $38 #
cone-surface $-1 68.765402528919964 -22.014164882573894 10.638751673113278 -0.85716730853699208 0 -0.51503806187062418 0.77255709280593621 0 -1.2857509628054882 1 I I 0 1 1.5 forward I I I I #
face $-1 $95 $96 $31 $-1 $97 forward single #
loop $-1 $98 $99 $39 #
cone-surface $-1 68.765402528919964 -14.985919778636546 10.638751673113278 -0.85716730853699208 0 -0.51503806187062418 0.77255709280593621 0 -1.2857509628054882 1 I I 0 1 1.5 forward I I I I #
face $-1 $100 $101 $24 $-1 $102 reversed single #
loop $-1 $-1 $103 $40 #
plane-surface $-1 0 0 -17.001666666879068 0 0 1 1 0 0 forward_v I I I I #
coedge $-1 $104 $105 $106 $107 forward $41 $-1 #
face $-1 $108 $109 $25 $-1 $110 reversed single #
loop $-1 $-1 $111 $43 #
plane-surface $-1 0 -32.830982405722622 -14.246023748664765 0 -1 0 0 0 -1 forward_v I I I I #
coedge $-1 $112 $113 $114 $115 reversed $44 $-1 #
face $-1 $116 $117 $26 $-1 $118 reversed single #
loop $-1 $-1 $119 $46 #
plane-surface $-1 -73.539841914120927 37.277821195016472 5.0832797225621391 -0.51503808176128008 0 0.85716729658548041 0.85716729658548041 0 0.51503808176128008 forward_v I I I I #
coedge $-1 $120 $121 $122 $123 reversed $47 $-1 #
face $-1 $-1 $124 $27 $-1 $125 forward single #
loop $-1 $126 $127 $49 #
cone-surface $-1 -61.676067939048203 33.412229465575422 7.8037675270401259 0.51503808176128008 0 -0.85716729658548041 0.64287547243911036 0 0.38627856132096006 1 I I -0.70710678118654757 0.70710678118654757 0.75 forward I I I I #
loop $-1 $-1 $128 $35 #
coedge $-1 $80 $80 $129 $130 reversed $50 $-1 #
face $-1 $-1 $131 $28 $-1 $132 forward single #
loop $-1 $133 $134 $52 #
cone-surface $-1 -61.676067939048203 41.143412924457508 7.8037675270401259 0.51503808176128008 0 -0.85716729658548041 0.64287547243911036 0 0.38627856132096006 1 I I -0.70710678118654757 0.70710678118654757 0.75 forward I I I I #
loop $-1 $-1 $135 $36 #
coedge $-1 $85 $85 $136 $137 reversed $53 $-1 #
face $-1 $138 $139 $29 $-1 $140 reversed single #
loop $-1 $-1 $141 $55 #
plane-surface $-1 -2.2117933853209308 -18.500042330605222 132.13670751285906 0.85716730853699208 0 0.51503806187062418 0.51503806187062418 0 -0.85716730853699208 forward_v I I I I #
coedge $-1 $142 $143 $144 $145 reversed $56 $-1 #
face $-1 $-1 $146 $30 $-1 $147 forward single #
loop $-1 $148 $149 $58 #
cone-surface $-1 66.633850546696394 -22.014164882573894 9.3579860737174201 -0.85716730853699208 0 -0.51503806187062418 0.3862785464029681 0 -0.64287548140274409 1 I I -0.70710678118654757 0.70710678118654757 0.75 forward I I I I #
loop $-1 $-1 $150 $38 #
coedge $-1 $94 $94 $151 $152 reversed $59 $-1 #
face $-1 $-1 $153 $31 $-1 $154 forward single #
loop $-1 $155 $156 $61 #
cone-surface $-1 66.633850546696394 -14.985919778636546 9.3579860737174201 -0.85716730853699208 0 -0.51503806187062418 0.3862785464029681 0 -0.64287548140274409 1 I I -0.70710678118654757 0.70710678118654757 0.75 forward I I I I #
loop $-1 $-1 $157 $39 #
coedge $-1 $99 $99 $158 $159 reversed $62 $-1 #
face $-1 $160 $161 $24 $-1 $162 reversed single #
loop $-1 $-1 $163 $64 #
plane-surface $-1 0 -46.297535230378912 0 0 1 0 0 0 1 forward_v I I I I #
coedge $-1 $164 $165 $166 $167 forward $65 $-1 #
coedge $-1 $168 $67 $169 $170 forward $41 $-1 #
coedge $-1 $67 $168 $171 $172 forward $41 $-1 #
coedge $-1 $173 $174 $67 $107 reversed $175 $-1 #
edge $-1 $176 -46.297535230378912 $177 46.297535230378912 $106 $178 forward 7 unknown #
face $-1 $179 $180 $25 $-1 $181 reversed single #
loop $-1 $-1 $182 $68 #
plane-surface $-1 0 0 -17.001666666879068 0 0 1 1 0 0 forward_v I I I I #
coedge $-1 $183 $184 $185 $186 reversed $69 $-1 #
coedge $-1 $187 $71 $184 $188 forward $44 $-1 #
coedge $-1 $71 $187 $189 $190 reversed $44 $-1 #
coedge $-1 $191 $185 $71 $115 forward $180 $-1 #
edge $-1 $192 13.048852996697239 $193 26.515405821353529 $114 $194 forward 7 unknown #
face $-1 $195 $196 $26 $-1 $197 reversed single #
loop $-1 $-1 $198 $72 #
plane-surface $-1 0 46.297535230378912 0 0 -1 0 0 0 -1 forward_v I I I I #
coedge $-1 $199 $200 $201 $202 reversed $73 $-1 #
coedge $-1 $121 $75 $203 $204 reversed $47 $-1 #
coedge $-1 $75 $120 $199 $205 reversed $47 $-1 #
coedge $-1 $201 $206 $75 $123 forward $207 $-1 #
edge $-1 $208 1.1058981554161704 $209 20.941424650435536 $122 $210 forward 7 unknown #
loop $-1 $-1 $129 $76 #
plane-surface $-1 -73.539841914120927 37.277821195016472 5.0832797225621391 -0.51503808176128008 0 0.85716729658548041 0.85716729658548041 0 0.51503808176128008 forward_v I I I I #
loop $-1 $-1 $211 $49 #
coedge $-1 $127 $127 $128 $212 reversed $77 $-1 #
coedge $-1 $128 $128 $127 $212 forward $79 $-1 #
coedge $-1 $129 $129 $80 $130 forward $124 $-1 #
edge $-1 $213 0 $213 6.2831853071796004 $129 $214 forward 7 unknown #
loop $-1 $-1 $136 $81 #
plane-surface $-1 -73.539841914120927 37.277821195016472 5.0832797225621391 -0.51503808176128008 0 0.85716729658548041 0.85716729658548041 0 0.51503808176128008 forward_v I I I I #
loop $-1 $-1 $215 $52 #
coedge $-1 $134 $134 $135 $216 reversed $82 $-1 #
coedge $-1 $135 $135 $134 $216 forward $84 $-1 #
coedge $-1 $136 $136 $85 $137 forward $131 $-1 #
edge $-1 $217 0 $217 6.2831853071796004 $136 $218 forward 7 unknown #
face $-1 $219 $220 $29 $-1 $221 forward single #
loop $-1 $-1 $222 $86 #
plane-surface $-1 123.86010334220488 -26.699661618532126 207.88834281230092 0 1 0 0.85716730853699208 0 0.51503806187062418 forward_v I I I I #
coedge $-1 $223 $224 $225 $226 reversed $87 $-1 #
coedge $-1 $143 $89 $227 $228 reversed $56 $-1 #
coedge $-1 $89 $142 $223 $229 reversed $56 $-1 #
coedge $-1 $225 $230 $89 $145 forward $220 $-1 #
edge $-1 $231 -11.609790243018473 $232 -5.0382644742582769 $144 $233 forward 7 unknown #
loop $-1 $-1 $151 $90 #
plane-surface $-1 -2.2117933853209308 -18.500042330605222 132.13670751285906 0.85716730853699208 0 0.51503806187062418 0.51503806187062418 0 -0.85716730853699208 forward_v I I I I #
loop $-1 $-1 $234 $58 #
coedge $-1 $149 $149 $150 $235 reversed $91 $-1 #
coedge $-1 $150 $150 $149 $235 forward $93 $-1 #
coedge $-1 $151 $151 $94 $152 forward $146 $-1 #
edge $-1 $236 0 $236 6.2831853071796004 $151 $237 forward 7 unknown #
loop $-1 $-1 $158 $95 #
plane-surface $-1 -2.2117933853209308 -18.500042330605222 132.13670751285906 0.85716730853699208 0 0.51503806187062418 0.51503806187062418 0 -0.85716730853699208 forward_v I I I I #
loop $-1 $-1 $238 $61 #
coedge $-1 $156 $156 $157 $239 reversed $96 $-1 #
coedge $-1 $157 $157 $156 $239 forward $98 $-1 #
coedge $-1 $158 $158 $99 $159 forward $153 $-1 #
edge $-1 $240 0 $240 6.2831853071796004 $158 $241 forward 7 unknown #
face $-1 $242 $243 $24 $-1 $244 reversed single #
loop $-1 $-1 $245 $100 #
plane-surface $-1 -73.539841914120913 0 0 1 0 0 0 0 -1 forward_v I I I I #
coedge $-1 $246 $171 $247 $248 forward $101 $-1 #
coedge $-1 $249 $103 $246 $250 forward $65 $-1 #
coedge $-1 $103 $249 $251 $252 forward $65 $-1 #
coedge $-1 $174 $173 $103 $167 reversed $175 $-1 #
edge $-1 $253 -46.297535230378912 $254 46.297535230378912 $166 $255 forward 7 unknown #
coedge $-1 $105 $104 $256 $257 forward $41 $-1 #
coedge $-1 $258 $259 $104 $170 reversed $243 $-1 #
edge $-1 $177 -73.539841914120913 $260 73.539841914120913 $169 $261 forward 7 unknown #
coedge $-1 $163 $262 $105 $172 reversed $101 $-1 #
edge $-1 $263 -73.539841914120913 $176 73.539841914120913 $171 $264 forward 7 unknown #
coedge $-1 $166 $106 $262 $265 forward $175 $-1 #
coedge $-1 $106 $166 $258 $266 reversed $175 $-1 #
loop $-1 $-1 $173 $242 #
vertex $-1 $107 $267 #
vertex $-1 $107 $268 #
straight-curve $-1 73.539841914120913 0 17.001666666879068 0 1 0 I I #
face $-1 $269 $270 $25 $-1 $271 reversed single #
loop $-1 $-1 $185 $108 #
plane-surface $-1 73.539841914120913 0 0 -1 0 0 0 0 1 forward_v I I I I #
coedge $-1 $272 $273 $183 $274 forward $109 $-1 #
coedge $-1 $275 $111 $182 $274 reversed $69 $-1 #
coedge $-1 $111 $275 $112 $188 reversed $69 $-1 #
coedge $-1 $114 $276 $111 $186 forward $180 $-1 #
edge $-1 $277 -9.8786547925466852 $192 -4.3673689561180797 $185 $278 forward 7 unknown #
coedge $-1 $113 $112 $279 $280 reversed $44 $-1 #
edge $-1 $192 -73.539841914120913 $281 73.539841914120913 $184 $282 forward 7 unknown #
coedge $-1 $283 $284 $113 $190 forward $270 $-1 #
edge $-1 $193 -73.539841914120913 $285 73.539841914120913 $189 $286 forward 7 unknown #
coedge $-1 $276 $114 $284 $287 forward $180 $-1 #
vertex $-1 $115 $288 #
vertex $-1 $287 $289 #
straight-curve $-1 73.539841914120913 -19.782129409025384 -11.490380830450462 0 -1 0 I I #
face $-1 $-1 $207 $26 $-1 $290 forward single #
loop $-1 $-1 $291 $116 #
plane-surface $-1 -73.539841914120913 0 0 1 0 0 0 0 -1 forward_v I I I I #
coedge $-1 $292 $293 $200 $294 forward $117 $-1 #
coedge $-1 $295 $119 $121 $205 forward $73 $-1 #
coedge $-1 $119 $295 $198 $294 reversed $73 $-1 #
coedge $-1 $296 $122 $119 $202 forward $207 $-1 #
edge $-1 $209 9.6191965621457953 $297 27.658624632870676 $201 $298 forward 7 unknown #
coedge $-1 $299 $291 $120 $204 forward $196 $-1 #
edge $-1 $300 -60.494307623569547 $208 -48.575920679252626 $203 $301 forward 7 unknown #
edge $-1 $209 -23.140787771575106 $300 -1.6755537013839907e-014 $121 $302 forward 7 unknown #
coedge $-1 $122 $296 $299 $303 forward $207 $-1 #
loop $-1 $-1 $201 $195 #
vertex $-1 $204 $304 #
vertex $-1 $123 $305 #
straight-curve $-1 -74.645740069537084 28.258107159654031 17.001666666879068 1 0 0 I I #
coedge $-1 $211 $211 $-1 $306 reversed $126 $-1 #
edge $-1 $307 0 $307 6.2831853071796004 $127 $308 forward 7 unknown #
vertex $-1 $130 $309 #
ellipse-curve $-1 -63.62207866661123 33.412229465575422 11.042473194720611 -0.51503808176128008 0 0.85716729658548041 1.2857509448782207 0 0.77255712264192011 1 I I #
coedge $-1 $215 $215 $-1 $310 reversed $133 $-1 #
edge $-1 $311 0 $311 6.2831853071796004 $134 $312 forward 7 unknown #
vertex $-1 $137 $313 #
ellipse-curve $-1 -63.62207866661123 41.143412924457508 11.042473194720611 -0.51503808176128008 0 0.85716729658548041 1.2857509448782207 0 0.77255712264192011 1 I I #
face $-1 $-1 $314 $29 $-1 $315 reversed single #
loop $-1 $-1 $144 $138 #
plane-surface $-1 0 0 17.001666666879068 0 0 1 1 0 0 forward_v I I I I #
coedge $-1 $316 $317 $318 $319 reversed $139 $-1 #
coedge $-1 $320 $141 $143 $229 forward $87 $-1 #
coedge $-1 $141 $320 $316 $321 forward $87 $-1 #
coedge $-1 $318 $144 $141 $226 forward $220 $-1 #
edge $-1 $232 1.0504018773757071 $322 17.449640453229513 $225 $323 forward 7 unknown #
coedge $-1 $324 $325 $142 $228 forward $314 $-1 #
edge $-1 $326 -97.879360620817167 $231 -86.942504739271385 $227 $327 forward 7 unknown #
edge $-1 $232 134.32038261292516 $326 147.07968382824183 $143 $328 forward 7 unknown #
coedge $-1 $144 $318 $324 $329 forward $220 $-1 #
vertex $-1 $228 $330 #
vertex $-1 $145 $331 #
straight-curve $-1 61.93005167110244 -10.300423042678318 17.001666666879061 -1 0 0 I I #
coedge $-1 $234 $234 $-1 $332 reversed $148 $-1 #
edge $-1 $333 0 $333 6.2831853071796004 $149 $334 forward 7 unknown #
vertex $-1 $152 $335 #
ellipse-curve $-1 70.254079029740808 -22.014164882573894 11.533238726106175 0.85716730853699208 0 0.51503806187062418 0.77255709280593621 0 -1.2857509628054882 1 I I #
coedge $-1 $238 $238 $-1 $336 reversed $155 $-1 #
edge $-1 $337 0 $337 6.2831853071796004 $156 $338 forward 7 unknown #
vertex $-1 $159 $339 #
ellipse-curve $-1 70.254079029740808 -14.985919778636546 11.533238726106175 0.85716730853699208 0 0.51503806187062418 0.77255709280593621 0 -1.2857509628054882 1 I I #
face $-1 $-1 $175 $24 $-1 $340 reversed single #
loop $-1 $-1 $258 $160 #
plane-surface $-1 0 46.297535230378912 0 0 -1 0 0 0 -1 forward_v I I I I #
coedge $-1 $341 $256 $259 $342 forward $161 $-1 #
coedge $-1 $262 $163 $164 $250 reversed $101 $-1 #
coedge $-1 $256 $341 $163 $248 reversed $161 $-1 #
edge $-1 $263 -17.001666666879068 $343 17.001666666879068 $247 $344 forward 7 unknown #
coedge $-1 $165 $164 $341 $345 forward $65 $-1 #
edge $-1 $254 -73.539841914120913 $343 73.539841914120913 $246 $346 forward 7 unknown #
coedge $-1 $259 $258 $165 $252 reversed $243 $-1 #
edge $-1 $347 -73.539841914120913 $253 73.539841914120913 $251 $348 forward 7 unknown #
vertex $-1 $167 $349 #
vertex $-1 $265 $350 #
straight-curve $-1 73.539841914120913 0 -17.001666666879068 0 -1 0 I I #
coedge $-1 $245 $247 $168 $257 reversed $161 $-1 #
edge $-1 $260 -46.297535230378912 $263 46.297535230378912 $256 $351 forward 7 unknown #
coedge $-1 $251 $169 $174 $266 forward $243 $-1 #
coedge $-1 $169 $251 $245 $342 reversed $243 $-1 #
vertex $-1 $170 $352 #
straight-curve $-1 0 46.297535230378912 17.001666666879068 -1 0 0 I I #
coedge $-1 $171 $246 $173 $265 reversed $101 $-1 #
vertex $-1 $257 $353 #
straight-curve $-1 0 -46.297535230378912 17.001666666879068 1 0 0 I I #
edge $-1 $176 -17.001666666879068 $254 17.001666666879068 $173 $354 forward 7 unknown #
edge $-1 $177 -17.001666666879068 $253 17.001666666879068 $174 $355 forward 7 unknown #
point $-1 73.539841914120913 -46.297535230378912 17.001666666879068 #
point $-1 73.539841914120913 46.297535230378912 17.001666666879068 #
face $-1 $-1 $356 $25 $-1 $357 reversed single #
loop $-1 $-1 $189 $179 #
plane-surface $-1 0 -46.297535230378912 0 0 1 0 0 0 1 forward_v I I I I #
coedge $-1 $358 $182 $276 $359 forward $109 $-1 #
coedge $-1 $182 $358 $360 $361 forward $109 $-1 #
edge $-1 $362 -73.539841914120913 $277 73.539841914120913 $182 $363 forward 7 unknown #
coedge $-1 $184 $183 $364 $365 reversed $69 $-1 #
coedge $-1 $185 $191 $272 $359 reversed $180 $-1 #
vertex $-1 $359 $366 #
straight-curve $-1 73.539841914120913 -32.830982405722622 -7.1230118743323825 0 0 1 I I #
coedge $-1 $364 $367 $187 $280 forward $356 $-1 #
edge $-1 $285 -26.515405821353529 $281 -13.048852996697239 $279 $368 forward 7 unknown #
vertex $-1 $280 $369 #
straight-curve $-1 0 -32.830982405722622 -11.490380830450462 -1 0 0 I I #
coedge $-1 $370 $189 $367 $371 forward $270 $-1 #
coedge $-1 $189 $370 $191 $287 reversed $270 $-1 #
vertex $-1 $371 $372 #
straight-curve $-1 0 -46.297535230378912 -11.490380830450462 -1 0 0 I I #
edge $-1 $193 11.490380830450462 $373 17.001666666879068 $191 $374 forward 7 unknown #
point $-1 73.539841914120913 -32.830982405722622 -11.490380830450462 #
point $-1 73.539841914120913 -46.297535230378912 -11.490380830450462 #
plane-surface $-1 0 0 17.001666666879068 0 0 1 1 0 0 forward_v I I I I #
coedge $-1 $203 $375 $295 $376 forward $196 $-1 #
coedge $-1 $293 $198 $375 $377 reversed $117 $-1 #
coedge $-1 $198 $292 $296 $378 reversed $117 $-1 #
edge $-1 $297 7.0681446521680016 $379 30.208932423743093 $198 $380 forward 7 unknown #
coedge $-1 $200 $199 $291 $376 reversed $73 $-1 #
coedge $-1 $206 $201 $293 $378 forward $207 $-1 #
vertex $-1 $378 $381 #
straight-curve $-1 -53.704315419101555 18.638910597508236 17.001666666879068 0 1 0 I I #
coedge $-1 $375 $203 $206 $303 reversed $196 $-1 #
vertex $-1 $204 $382 #
straight-curve $-1 -73.539841914120913 28.258107159654031 65.577587346131693 0 0 1 I I #
straight-curve $-1 -73.539841914120927 28.258107159654031 5.0832797225621391 -0.85716729658548041 0 -0.51503808176128008 I I #
edge $-1 $383 -46.297535230378912 $208 -28.258107159654031 $299 $384 forward 7 unknown #
point $-1 -73.539841914120913 28.258107159654031 17.001666666879068 #
point $-1 -53.704315419101547 28.258107159654031 17.001666666879068 #
edge $-1 $385 1 $385 0 $211 $-1 forward 7 unknown #
vertex $-1 $212 $386 #
ellipse-curve $-1 -62.062346500369159 33.412229465575422 8.446642999479236 -0.51503808176128008 0 0.85716729658548041 1.2857509448782207 0 0.77255712264192011 1 I I #
point $-1 -62.336327721732999 33.412229465575422 11.81503031736252 #
edge $-1 $387 1 $387 0 $215 $-1 forward 7 unknown #
vertex $-1 $216 $388 #
ellipse-curve $-1 -62.062346500369159 41.143412924457508 8.446642999479236 -0.51503808176128008 0 0.85716729658548041 1.2857509448782207 0 0.77255712264192011 1 I I #
point $-1 -62.336327721732999 41.143412924457508 11.81503031736252 #
loop $-1 $-1 $227 $219 #
plane-surface $-1 73.539841914120913 0 0 -1 0 0 0 0 1 forward_v I I I I #
coedge $-1 $317 $222 $224 $321 reversed $139 $-1 #
coedge $-1 $222 $316 $389 $390 reversed $139 $-1 #
coedge $-1 $230 $225 $222 $319 forward $220 $-1 #
edge $-1 $322 5.0382644742582769 $391 11.609790243018473 $318 $392 forward 7 unknown #
coedge $-1 $224 $223 $325 $393 reversed $87 $-1 #
edge $-1 $394 -147.07968382824183 $322 -134.32038261292516 $316 $395 forward 7 unknown #
vertex $-1 $226 $396 #
straight-curve $-1 66.968316145360689 -9.250021165302611 17.001666666879075 0 -1 0 I I #
coedge $-1 $389 $227 $230 $329 reversed $314 $-1 #
coedge $-1 $227 $389 $320 $393 forward $314 $-1 #
vertex $-1 $228 $397 #
straight-curve $-1 73.539841914120913 -10.300423042678318 103.94417140615046 0 0 1 I I #
straight-curve $-1 -2.2117933853209308 -10.300423042678318 132.13670751285906 0.51503806187062418 0 -0.85716730853699208 I I #
edge $-1 $391 -26.699661618532126 $231 -10.300423042678318 $324 $398 forward 7 unknown #
point $-1 73.539841914120913 -10.300423042678318 17.001666666879068 #
point $-1 66.968316145360717 -10.300423042678318 17.001666666879046 #
edge $-1 $399 1 $399 0 $234 $-1 forward 7 unknown #
vertex $-1 $235 $400 #
ellipse-curve $-1 67.276726028099134 -22.014164882573894 9.7442646201203882 0.85716730853699208 0 0.51503806187062418 0.77255709280593621 0 -1.2857509628054882 1 I I #
point $-1 71.026636122546734 -22.014164882573894 10.247487763300679 #
edge $-1 $401 1 $401 0 $238 $-1 forward 7 unknown #
vertex $-1 $239 $402 #
ellipse-curve $-1 67.276726028099134 -14.985919778636546 9.7442646201203882 0.85716730853699208 0 0.51503806187062418 0.77255709280593621 0 -1.2857509628054882 1 I I #
point $-1 71.026636122546734 -14.985919778636546 10.247487763300679 #
plane-surface $-1 73.539841914120913 0 0 -1 0 0 0 0 1 forward_v I I I I #
coedge $-1 $247 $245 $249 $345 reversed $161 $-1 #
edge $-1 $260 -17.001666666879068 $347 17.001666666879068 $259 $403 forward 7 unknown #
vertex $-1 $345 $404 #
straight-curve $-1 -73.539841914120913 -46.297535230378912 0 0 0 -1 I I #
edge $-1 $343 -46.297535230378912 $347 46.297535230378912 $341 $405 forward 7 unknown #
straight-curve $-1 0 -46.297535230378912 -17.001666666879068 -1 0 0 I I #
vertex $-1 $252 $406 #
straight-curve $-1 0 46.297535230378912 -17.001666666879068 1 0 0 I I #
point $-1 73.539841914120913 46.297535230378912 -17.001666666879068 #
point $-1 73.539841914120913 -46.297535230378912 -17.001666666879068 #
straight-curve $-1 -73.539841914120913 0 17.001666666879068 0 -1 0 I I #
point $-1 -73.539841914120913 46.297535230378912 17.001666666879068 #
point $-1 -73.539841914120913 -46.297535230378912 17.001666666879068 #
straight-curve $-1 73.539841914120913 -46.297535230378912 0 0 0 -1 I I #
straight-curve $-1 73.539841914120913 46.297535230378912 0 0 0 -1 I I #
loop $-1 $-1 $364 $269 #
plane-surface $-1 -73.539841914120913 0 0 1 0 0 0 0 -1 forward_v I I I I #
coedge $-1 $273 $272 $370 $407 forward $109 $-1 #
edge $-1 $277 32.830982405722622 $373 46.297535230378912 $276 $408 forward 7 unknown #
coedge $-1 $367 $364 $273 $361 reversed $356 $-1 #
edge $-1 $409 -46.297535230378912 $362 -32.830982405722622 $360 $410 forward 7 unknown #
vertex $-1 $365 $411 #
straight-curve $-1 0 -32.830982405722622 -17.001666666879068 1 0 0 I I #
coedge $-1 $360 $279 $275 $365 forward $356 $-1 #
edge $-1 $281 4.3673689561180797 $362 9.8786547925466852 $364 $412 forward 7 unknown #
point $-1 73.539841914120913 -32.830982405722622 -17.001666666879068 #
coedge $-1 $279 $360 $283 $371 reversed $356 $-1 #
straight-curve $-1 -73.539841914120913 -19.782129409025384 -11.490380830450462 0 1 0 I I #
point $-1 -73.539841914120913 -32.830982405722622 -11.490380830450462 #
coedge $-1 $284 $283 $358 $407 reversed $270 $-1 #
edge $-1 $285 11.490380830450462 $409 17.001666666879068 $367 $413 forward 7 unknown #
point $-1 -73.539841914120913 -46.297535230378912 -11.490380830450462 #
vertex $-1 $287 $414 #
straight-curve $-1 73.539841914120913 -46.297535230378912 0 0 0 -1 I I #
coedge $-1 $291 $299 $292 $377 forward $196 $-1 #
edge $-1 $379 -27.658624632870676 $300 -9.6191965621457953 $291 $415 forward 7 unknown #
edge $-1 $383 -17.001666666879068 $379 -5.083279722562148 $292 $416 forward 7 unknown #
edge $-1 $297 53.704315419101547 $383 73.539841914120913 $293 $417 forward 7 unknown #
vertex $-1 $294 $418 #
straight-curve $-1 -47.645732975727583 46.297535230378912 20.64203033014293 -0.85716729658548041 0 -0.51503808176128008 I I #
point $-1 -53.704315419101547 46.297535230378912 17.001666666879068 #
point $-1 -73.539841914120913 28.258107159654031 5.083279722562148 #
vertex $-1 $378 $419 #
straight-curve $-1 -73.539841914120913 0 17.001666666879068 0 -1 0 I I #
vertex $-1 $306 $420 #
point $-1 -60.776595555490943 33.412229465575422 9.2192001221211566 #
vertex $-1 $310 $421 #
point $-1 -60.776595555490943 41.143412924457508 9.2192001221211566 #
coedge $-1 $325 $324 $317 $390 forward $314 $-1 #
edge $-1 $391 86.942504739271385 $394 97.879360620817167 $389 $422 forward 7 unknown #
vertex $-1 $329 $423 #
straight-curve $-1 61.93005167110244 -26.699661618532126 17.001666666879061 1 0 0 I I #
edge $-1 $394 -17.449640453229513 $326 -1.0504018773757071 $325 $424 forward 7 unknown #
vertex $-1 $393 $425 #
straight-curve $-1 -2.2117933853209308 -26.699661618532126 132.13670751285906 -0.51503806187062418 0 0.85716730853699208 I I #
point $-1 66.968316145360717 -26.699661618532126 17.001666666879046 #
point $-1 73.539841914120913 -10.300423042678318 6.0648107853332931 #
straight-curve $-1 73.539841914120913 0 17.001666666879068 0 1 0 I I #
vertex $-1 $332 $426 #
point $-1 68.049283120905073 -22.014164882573894 8.4585136573148993 #
vertex $-1 $336 $427 #
point $-1 68.049283120905073 -14.985919778636546 8.4585136573148993 #
straight-curve $-1 -73.539841914120913 46.297535230378912 0 0 0 -1 I I #
point $-1 -73.539841914120913 -46.297535230378912 -17.001666666879068 #
straight-curve $-1 -73.539841914120913 0 -17.001666666879068 0 1 0 I I #
point $-1 -73.539841914120913 46.297535230378912 -17.001666666879068 #
edge $-1 $373 -73.539841914120913 $409 73.539841914120913 $370 $428 forward 7 unknown #
straight-curve $-1 73.539841914120913 0 -17.001666666879068 0 -1 0 I I #
vertex $-1 $361 $429 #
straight-curve $-1 -73.539841914120913 0 -17.001666666879068 0 1 0 I I #
point $-1 -73.539841914120913 -32.830982405722622 -17.001666666879068 #
straight-curve $-1 -73.539841914120913 -32.830982405722622 -7.1230118743323825 0 0 -1 I I #
straight-curve $-1 -73.539841914120913 -46.297535230378912 0 0 0 -1 I I #
point $-1 73.539841914120913 -46.297535230378912 -17.001666666879068 #
straight-curve $-1 -73.539841914120913 18.638910597508236 5.0832797225621551 0 -1 0 I I #
straight-curve $-1 -73.539841914120913 46.297535230378912 0 0 0 -1 I I #
straight-curve $-1 0 46.297535230378912 17.001666666879068 -1 0 0 I I #
point $-1 -73.539841914120913 46.297535230378912 5.083279722562148 #
point $-1 -73.539841914120913 46.297535230378912 17.001666666879068 #
point $-1 -61.289789377727246 33.412229465575422 7.1608920546010157 #
point $-1 -61.289789377727246 41.143412924457508 7.1608920546010157 #
straight-curve $-1 73.539841914120913 -26.699661618532126 103.94417140615046 0 0 -1 I I #
point $-1 73.539841914120913 -26.699661618532126 17.001666666879068 #
straight-curve $-1 73.539841914120913 -9.250021165302611 6.0648107853332647 0 1 0 I I #
point $-1 73.539841914120913 -26.699661618532126 6.0648107853332931 #
point $-1 65.990975065293654 -22.014164882573894 8.971707527314452 #
point $-1 65.990975065293654 -14.985919778636546 8.971707527314452 #
straight-curve $-1 0 -46.297535230378912 -17.001666666879068 -1 0 0 I I #
point $-1 -73.539841914120913 -46.297535230378912 -17.001666666879068 #
End-of-ACIS-data 