500 0 8 0           
7 Unknown 11 ACIS 5.0 NT 24 Fri Mar 26 19:08:40 1999 
-1 9.9999999999999995e-007 1e-010 
body $-1 $8 $-1 $9 #
body $-1 $10 $-1 $11 #
body $-1 $12 $-1 $13 #
body $-1 $14 $-1 $15 #
body $-1 $16 $-1 $17 #
body $-1 $18 $-1 $19 #
body $-1 $20 $-1 $21 #
body $-1 $22 $-1 $23 #
lump $-1 $-1 $24 $0 #
transform $-1 1 0 0 0 1 0 0 0 1 52.385631885738704 30.081410334656276 10.127356123745253 1 rotate no_reflect no_shear #
lump $-1 $-1 $25 $1 #
transform $-1 1 0 0 0 1 0 0 0 1 52.385631885738704 30.081410334656276 10.127356123745253 1 rotate no_reflect no_shear #
lump $-1 $-1 $26 $2 #
transform $-1 1 0 0 0 1 0 0 0 1 52.385631885738704 30.081410334656276 10.127356123745253 1 rotate no_reflect no_shear #
lump $-1 $-1 $27 $3 #
transform $-1 1 0 0 0 1 0 0 0 1 52.385631885738704 30.081410334656276 10.127356123745253 1 rotate no_reflect no_shear #
lump $-1 $-1 $28 $4 #
transform $-1 1 0 0 0 1 0 0 0 1 52.385631885738704 30.081410334656276 10.127356123745253 1 rotate no_reflect no_shear #
lump $-1 $-1 $29 $5 #
transform $-1 1 0 0 0 1 0 0 0 1 52.385631885738704 30.081410334656276 10.127356123745253 1 rotate no_reflect no_shear #
lump $-1 $-1 $30 $6 #
transform $-1 1 0 0 0 1 0 0 0 1 52.385631885738704 30.081410334656276 10.127356123745253 1 rotate no_reflect no_shear #
lump $-1 $-1 $31 $7 #
transform $-1 1 0 0 0 1 0 0 0 1 52.385631885738704 30.081410334656276 10.127356123745253 1 rotate no_reflect no_shear #
shell $-1 $-1 $-1 $32 $-1 $8 #
shell $-1 $-1 $-1 $33 $-1 $10 #
shell $-1 $-1 $-1 $34 $-1 $12 #
shell $-1 $-1 $-1 $35 $-1 $14 #
shell $-1 $-1 $-1 $36 $-1 $16 #
shell $-1 $-1 $-1 $37 $-1 $18 #
shell $-1 $-1 $-1 $38 $-1 $20 #
shell $-1 $-1 $-1 $39 $-1 $22 #
face $-1 $40 $41 $24 $-1 $42 forward single #
face $-1 $43 $44 $25 $-1 $45 forward single #
face $-1 $46 $47 $26 $-1 $48 reversed single #
face $-1 $49 $50 $27 $-1 $51 forward single #
face $-1 $52 $53 $28 $-1 $54 forward single #
face $-1 $55 $56 $29 $-1 $57 reversed single #
face $-1 $58 $59 $30 $-1 $60 forward single #
face $-1 $61 $62 $31 $-1 $63 forward single #
face $-1 $64 $65 $24 $-1 $66 reversed single #
loop $-1 $-1 $67 $32 #
plane-surface $-1 0 0 10.127356123745253 0 0 1 1 0 0 forward_v I I I I #
face $-1 $68 $69 $25 $-1 $70 reversed single #
loop $-1 $-1 $71 $33 #
plane-surface $-1 0 -30.081410334656276 0 0 1 0 0 0 1 forward_v I I I I #
face $-1 $72 $73 $26 $-1 $74 reversed single #
loop $-1 $-1 $75 $34 #
plane-surface $-1 21.579577825107947 -6.4333089913352213 151.32977211915241 0 -1 0 -0.54463904215088732 0 -0.83867056331134215 forward_v I I I I #
face $-1 $76 $77 $27 $-1 $78 forward single #
loop $-1 $79 $80 $35 #
cone-surface $-1 48.743891935713712 -16.98546446926688 7.0759213804470136 -0.54463904215088732 0 -0.83867056331134215 1.2580058449670133 0 -0.81695856322633098 1 I I 0 1 1.5 forward I I I I #
face $-1 $81 $82 $28 $-1 $83 forward single #
loop $-1 $84 $85 $36 #
cone-surface $-1 48.743891935713712 -10.654171182507881 7.0759213804470136 -0.54463904215088732 0 -0.83867056331134215 1.2580058449670133 0 -0.81695856322633098 1 I I 0 1 1.5 forward I I I I #
face $-1 $86 $87 $29 $-1 $88 reversed single #
loop $-1 $-1 $89 $37 #
plane-surface $-1 -109.44815263117412 -21.206326660439547 94.267251373716974 0 1 0 -0.54463904215088732 0 0.83867056331134215 forward_v I I I I #
face $-1 $90 $91 $30 $-1 $92 forward single #
loop $-1 $93 $94 $38 #
cone-surface $-1 -48.743891935713719 -16.98546446926688 7.0759213804470171 0.54463904215088732 0 -0.83867056331134215 1.2580058449670133 0 0.81695856322633098 1 I I 0 1 1.5 forward I I I I #
face $-1 $95 $96 $31 $-1 $97 forward single #
loop $-1 $98 $99 $39 #
cone-surface $-1 -48.743891935713719 -10.654171182507881 7.0759213804470171 0.54463904215088732 0 -0.83867056331134215 1.2580058449670133 0 0.81695856322633098 1 I I 0 1 1.5 forward I I I I #
face $-1 $100 $101 $24 $-1 $102 reversed single #
loop $-1 $-1 $103 $40 #
plane-surface $-1 0 0 -10.127356123745253 0 0 1 1 0 0 forward_v I I I I #
coedge $-1 $104 $105 $106 $107 forward $41 $-1 #
face $-1 $108 $109 $25 $-1 $110 forward single #
loop $-1 $-1 $111 $43 #
plane-surface $-1 -52.385631885738704 0 0 1 0 0 0 0 -1 forward_v I I I I #
coedge $-1 $112 $113 $114 $115 forward $44 $-1 #
face $-1 $116 $117 $26 $-1 $118 reversed single #
loop $-1 $-1 $119 $46 #
plane-surface $-1 -35.482942920327467 -13.819817825887384 63.461197313086231 0.54463904215088732 0 0.83867056331134215 0.83867056331134215 0 -0.54463904215088732 forward_v I I I I #
coedge $-1 $120 $121 $122 $123 reversed $47 $-1 #
face $-1 $-1 $124 $27 $-1 $125 forward single #
loop $-1 $126 $127 $49 #
cone-surface $-1 47.5645041554599 -16.98546446926688 5.2598234927124903 -0.54463904215088732 0 -0.83867056331134215 0.62900292248350664 0 -0.40847928161316549 1 I I -0.70710678118654757 0.70710678118654757 0.75 forward I I I I #
loop $-1 $-1 $128 $35 #
coedge $-1 $80 $80 $129 $130 reversed $50 $-1 #
face $-1 $-1 $131 $28 $-1 $132 forward single #
loop $-1 $133 $134 $52 #
cone-surface $-1 47.5645041554599 -10.654171182507881 5.2598234927124903 -0.54463904215088732 0 -0.83867056331134215 0.62900292248350664 0 -0.40847928161316549 1 I I -0.70710678118654757 0.70710678118654757 0.75 forward I I I I #
loop $-1 $-1 $135 $36 #
coedge $-1 $85 $85 $136 $137 reversed $53 $-1 #
face $-1 $138 $139 $29 $-1 $140 reversed single #
loop $-1 $-1 $141 $55 #
plane-surface $-1 -52.385631885738711 -13.819817825887384 6.3986765676507957 -0.54463904215088732 0 0.83867056331134215 0.83867056331134215 0 0.54463904215088732 forward_v I I I I #
coedge $-1 $142 $143 $144 $145 reversed $56 $-1 #
face $-1 $-1 $146 $30 $-1 $147 forward single #
loop $-1 $148 $149 $58 #
cone-surface $-1 -47.564504155459908 -16.98546446926688 5.2598234927124938 0.54463904215088732 0 -0.83867056331134215 0.62900292248350664 0 0.40847928161316549 1 I I -0.70710678118654757 0.70710678118654757 0.75 forward I I I I #
loop $-1 $-1 $150 $38 #
coedge $-1 $94 $94 $151 $152 reversed $59 $-1 #
face $-1 $-1 $153 $31 $-1 $154 forward single #
loop $-1 $155 $156 $61 #
cone-surface $-1 -47.564504155459908 -10.654171182507881 5.2598234927124938 0.54463904215088732 0 -0.83867056331134215 0.62900292248350664 0 0.40847928161316549 1 I I -0.70710678118654757 0.70710678118654757 0.75 forward I I I I #
loop $-1 $-1 $157 $39 #
coedge $-1 $99 $99 $158 $159 reversed $62 $-1 #
face $-1 $160 $161 $24 $-1 $162 reversed single #
loop $-1 $-1 $163 $64 #
plane-surface $-1 0 -30.081410334656276 0 0 1 0 0 0 1 forward_v I I I I #
coedge $-1 $164 $165 $166 $167 forward $65 $-1 #
coedge $-1 $168 $67 $169 $170 forward $41 $-1 #
coedge $-1 $67 $168 $171 $172 forward $41 $-1 #
coedge $-1 $173 $174 $67 $107 reversed $175 $-1 #
edge $-1 $176 -30.081410334656276 $177 30.081410334656276 $106 $178 forward 7 unknown #
face $-1 $179 $180 $25 $-1 $181 reversed single #
loop $-1 $-1 $182 $68 #
plane-surface $-1 0 -34.518952171764639 0.67619583930891602 0 0 1 1 0 0 forward_v I I I I #
coedge $-1 $183 $184 $113 $185 forward $69 $-1 #
coedge $-1 $186 $71 $187 $188 reversed $44 $-1 #
coedge $-1 $71 $186 $111 $185 reversed $44 $-1 #
coedge $-1 $189 $182 $71 $115 reversed $109 $-1 #
edge $-1 $190 -52.385631885738704 $191 52.385631885738704 $114 $192 forward 7 unknown #
face $-1 $193 $194 $26 $-1 $195 reversed single #
loop $-1 $-1 $196 $72 #
plane-surface $-1 21.579577825107947 -21.206326660439547 151.32977211915241 0 1 0 0.54463904215088732 0 0.83867056331134215 forward_v I I I I #
coedge $-1 $197 $198 $199 $200 reversed $73 $-1 #
coedge $-1 $121 $75 $201 $202 reversed $47 $-1 #
coedge $-1 $75 $120 $197 $203 reversed $47 $-1 #
coedge $-1 $199 $204 $75 $123 forward $205 $-1 #
edge $-1 $206 -41.59584297318473 $207 -35.854180070416071 $122 $208 forward 7 unknown #
loop $-1 $-1 $129 $76 #
plane-surface $-1 -35.482942920327467 -13.819817825887384 63.461197313086231 0.54463904215088732 0 0.83867056331134215 0.83867056331134215 0 -0.54463904215088732 forward_v I I I I #
loop $-1 $-1 $209 $49 #
coedge $-1 $127 $127 $128 $210 reversed $77 $-1 #
coedge $-1 $128 $128 $127 $210 forward $79 $-1 #
coedge $-1 $129 $129 $80 $130 forward $124 $-1 #
edge $-1 $211 0 $211 6.2831853071796004 $129 $212 forward 7 unknown #
loop $-1 $-1 $136 $81 #
plane-surface $-1 -35.482942920327467 -13.819817825887384 63.461197313086231 0.54463904215088732 0 0.83867056331134215 0.83867056331134215 0 -0.54463904215088732 forward_v I I I I #
loop $-1 $-1 $213 $52 #
coedge $-1 $134 $134 $135 $214 reversed $82 $-1 #
coedge $-1 $135 $135 $134 $214 forward $84 $-1 #
coedge $-1 $136 $136 $85 $137 forward $131 $-1 #
edge $-1 $215 0 $215 6.2831853071796004 $136 $216 forward 7 unknown #
face $-1 $217 $218 $29 $-1 $219 forward single #
loop $-1 $-1 $220 $86 #
plane-surface $-1 -109.44815263117412 -6.4333089913352213 94.267251373716974 0 -1 0 0.54463904215088732 0 -0.83867056331134215 forward_v I I I I #
coedge $-1 $221 $222 $223 $224 reversed $87 $-1 #
coedge $-1 $143 $89 $225 $226 reversed $56 $-1 #
coedge $-1 $89 $142 $221 $227 reversed $56 $-1 #
coedge $-1 $223 $228 $89 $145 forward $218 $-1 #
edge $-1 $229 2.3384444298483587 $230 8.0801073326170396 $144 $231 forward 7 unknown #
loop $-1 $-1 $151 $90 #
plane-surface $-1 -52.385631885738711 -13.819817825887384 6.3986765676507957 -0.54463904215088732 0 0.83867056331134215 0.83867056331134215 0 0.54463904215088732 forward_v I I I I #
loop $-1 $-1 $232 $58 #
coedge $-1 $149 $149 $150 $233 reversed $91 $-1 #
coedge $-1 $150 $150 $149 $233 forward $93 $-1 #
coedge $-1 $151 $151 $94 $152 forward $146 $-1 #
edge $-1 $234 0 $234 6.2831853071796004 $151 $235 forward 7 unknown #
loop $-1 $-1 $158 $95 #
plane-surface $-1 -52.385631885738711 -13.819817825887384 6.3986765676507957 -0.54463904215088732 0 0.83867056331134215 0.83867056331134215 0 0.54463904215088732 forward_v I I I I #
loop $-1 $-1 $236 $61 #
coedge $-1 $156 $156 $157 $237 reversed $96 $-1 #
coedge $-1 $157 $157 $156 $237 forward $98 $-1 #
coedge $-1 $158 $158 $99 $159 forward $153 $-1 #
edge $-1 $238 0 $238 6.2831853071796004 $158 $239 forward 7 unknown #
face $-1 $240 $241 $24 $-1 $242 reversed single #
loop $-1 $-1 $243 $100 #
plane-surface $-1 -52.385631885738704 0 0 1 0 0 0 0 -1 forward_v I I I I #
coedge $-1 $244 $171 $245 $246 forward $101 $-1 #
coedge $-1 $247 $103 $244 $248 forward $65 $-1 #
coedge $-1 $103 $247 $249 $250 forward $65 $-1 #
coedge $-1 $174 $173 $103 $167 reversed $175 $-1 #
edge $-1 $251 -30.081410334656276 $252 30.081410334656276 $166 $253 forward 7 unknown #
coedge $-1 $105 $104 $254 $255 forward $41 $-1 #
coedge $-1 $256 $257 $104 $170 reversed $241 $-1 #
edge $-1 $177 -52.385631885738704 $258 52.385631885738704 $169 $259 forward 7 unknown #
coedge $-1 $163 $260 $105 $172 reversed $101 $-1 #
edge $-1 $261 -52.385631885738704 $176 52.385631885738704 $171 $262 forward 7 unknown #
coedge $-1 $166 $106 $260 $263 forward $175 $-1 #
coedge $-1 $106 $166 $256 $264 reversed $175 $-1 #
loop $-1 $-1 $173 $240 #
vertex $-1 $107 $265 #
vertex $-1 $107 $266 #
straight-curve $-1 52.385631885738704 0 10.127356123745253 0 1 0 I I #
face $-1 $267 $268 $25 $-1 $269 reversed single #
loop $-1 $-1 $270 $108 #
plane-surface $-1 0 -34.518952171764639 -2.8847441565441856 0 0 1 1 0 0 forward_v I I I I #
coedge $-1 $114 $271 $272 $273 forward $109 $-1 #
coedge $-1 $274 $111 $275 $276 reversed $69 $-1 #
coedge $-1 $111 $274 $189 $277 reversed $69 $-1 #
edge $-1 $190 -0.67619583930891602 $278 2.8847441565441856 $111 $279 forward 7 unknown #
coedge $-1 $113 $112 $280 $281 forward $44 $-1 #
coedge $-1 $272 $282 $112 $188 forward $283 $-1 #
edge $-1 $284 -2.8847441565441856 $191 0.67619583930891602 $187 $285 forward 7 unknown #
coedge $-1 $271 $114 $184 $277 forward $109 $-1 #
vertex $-1 $185 $286 #
vertex $-1 $273 $287 #
straight-curve $-1 0 -30.081410334656276 0.67619583930891602 1 0 0 I I #
face $-1 $-1 $205 $26 $-1 $288 forward single #
loop $-1 $-1 $289 $116 #
plane-surface $-1 52.385631885738704 0 0 -1 0 0 0 0 1 forward_v I I I I #
coedge $-1 $290 $291 $292 $293 reversed $117 $-1 #
coedge $-1 $294 $119 $121 $203 forward $73 $-1 #
coedge $-1 $119 $294 $290 $295 forward $73 $-1 #
coedge $-1 $292 $122 $119 $200 forward $205 $-1 #
edge $-1 $207 -0.47659992160847064 $296 14.296417747495855 $199 $297 forward 7 unknown #
coedge $-1 $298 $299 $120 $202 forward $194 $-1 #
edge $-1 $300 -69.26620949192538 $206 -65.537529935830946 $201 $301 forward 7 unknown #
edge $-1 $207 97.925115648549706 $300 104.77126377147741 $121 $302 forward 7 unknown #
coedge $-1 $122 $292 $298 $303 forward $205 $-1 #
loop $-1 $-1 $292 $193 #
vertex $-1 $202 $304 #
vertex $-1 $123 $305 #
straight-curve $-1 10.789788912553973 -6.4333089913352213 10.127356123745258 -1 0 0 I I #
coedge $-1 $209 $209 $-1 $306 reversed $126 $-1 #
edge $-1 $307 0 $307 6.2831853071796004 $127 $308 forward 7 unknown #
vertex $-1 $130 $309 #
ellipse-curve $-1 49.51480043435437 -16.98546446926688 8.2630163456980377 0.54463904215088732 0 0.83867056331134215 1.2580058449670133 0 -0.81695856322633098 1 I I #
coedge $-1 $213 $213 $-1 $310 reversed $133 $-1 #
edge $-1 $311 0 $311 6.2831853071796004 $134 $312 forward 7 unknown #
vertex $-1 $137 $313 #
ellipse-curve $-1 49.51480043435437 -10.654171182507881 8.2630163456980377 0.54463904215088732 0 0.83867056331134215 1.2580058449670133 0 -0.81695856322633098 1 I I #
face $-1 $-1 $314 $29 $-1 $315 reversed single #
loop $-1 $-1 $144 $138 #
plane-surface $-1 0 0 10.127356123745253 0 0 1 1 0 0 forward_v I I I I #
coedge $-1 $316 $317 $318 $319 reversed $139 $-1 #
coedge $-1 $320 $141 $143 $227 forward $87 $-1 #
coedge $-1 $141 $320 $316 $321 forward $87 $-1 #
coedge $-1 $318 $144 $141 $224 forward $218 $-1 #
edge $-1 $230 -14.296417747495855 $322 0.47659992160847064 $223 $323 forward 7 unknown #
coedge $-1 $324 $325 $142 $226 forward $314 $-1 #
edge $-1 $326 -40.734949119207684 $229 -37.006269563113236 $225 $327 forward 7 unknown #
edge $-1 $230 -6.8461481229277332 $326 -8.3777959833898778e-015 $143 $328 forward 7 unknown #
coedge $-1 $144 $318 $324 $329 forward $218 $-1 #
vertex $-1 $145 $330 #
vertex $-1 $145 $331 #
straight-curve $-1 -54.724076315587062 -21.206326660439547 10.127356123745251 1 0 0 I I #
coedge $-1 $232 $232 $-1 $332 reversed $148 $-1 #
edge $-1 $333 0 $333 6.2831853071796004 $149 $334 forward 7 unknown #
vertex $-1 $152 $335 #
ellipse-curve $-1 -49.514800434354363 -16.98546446926688 8.2630163456980252 -0.54463904215088732 0 0.83867056331134215 1.2580058449670133 0 0.81695856322633098 1 I I #
coedge $-1 $236 $236 $-1 $336 reversed $155 $-1 #
edge $-1 $337 0 $337 6.2831853071796004 $156 $338 forward 7 unknown #
vertex $-1 $159 $339 #
ellipse-curve $-1 -49.514800434354363 -10.654171182507881 8.2630163456980252 -0.54463904215088732 0 0.83867056331134215 1.2580058449670133 0 0.81695856322633098 1 I I #
face $-1 $-1 $175 $24 $-1 $340 reversed single #
loop $-1 $-1 $256 $160 #
plane-surface $-1 0 30.081410334656276 0 0 -1 0 0 0 -1 forward_v I I I I #
coedge $-1 $341 $254 $257 $342 forward $161 $-1 #
coedge $-1 $260 $163 $164 $248 reversed $101 $-1 #
coedge $-1 $254 $341 $163 $246 reversed $161 $-1 #
edge $-1 $261 -10.127356123745253 $343 10.127356123745253 $245 $344 forward 7 unknown #
coedge $-1 $165 $164 $341 $345 forward $65 $-1 #
edge $-1 $252 -52.385631885738704 $343 52.385631885738704 $244 $346 forward 7 unknown #
coedge $-1 $257 $256 $165 $250 reversed $241 $-1 #
edge $-1 $347 -52.385631885738704 $251 52.385631885738704 $249 $348 forward 7 unknown #
vertex $-1 $167 $349 #
vertex $-1 $263 $350 #
straight-curve $-1 52.385631885738704 0 -10.127356123745253 0 -1 0 I I #
coedge $-1 $243 $245 $168 $255 reversed $161 $-1 #
edge $-1 $258 -30.081410334656276 $261 30.081410334656276 $254 $351 forward 7 unknown #
coedge $-1 $249 $169 $174 $264 forward $241 $-1 #
coedge $-1 $169 $249 $243 $342 reversed $241 $-1 #
vertex $-1 $170 $352 #
straight-curve $-1 0 30.081410334656276 10.127356123745253 -1 0 0 I I #
coedge $-1 $171 $244 $173 $263 reversed $101 $-1 #
vertex $-1 $255 $353 #
straight-curve $-1 0 -30.081410334656276 10.127356123745253 1 0 0 I I #
edge $-1 $176 -10.127356123745253 $252 10.127356123745253 $173 $354 forward 7 unknown #
edge $-1 $177 -10.127356123745253 $251 10.127356123745253 $174 $355 forward 7 unknown #
point $-1 52.385631885738704 -30.081410334656276 10.127356123745253 #
point $-1 52.385631885738704 30.081410334656276 10.127356123745253 #
face $-1 $-1 $283 $25 $-1 $356 reversed single #
loop $-1 $-1 $357 $179 #
plane-surface $-1 0 -38.956494008873001 -1.1042741586176348 0 1 0 0 0 1 forward_v I I I I #
coedge $-1 $358 $280 $282 $359 forward $180 $-1 #
coedge $-1 $182 $189 $360 $361 forward $109 $-1 #
coedge $-1 $362 $187 $182 $273 reversed $283 $-1 #
edge $-1 $363 -4.4375418371083626 $191 4.4375418371083661 $272 $364 forward 7 unknown #
coedge $-1 $184 $183 $357 $365 reversed $69 $-1 #
coedge $-1 $280 $358 $183 $276 forward $180 $-1 #
edge $-1 $366 -4.4375418371083626 $278 4.4375418371083661 $183 $367 forward 7 unknown #
edge $-1 $190 -4.4375418371083661 $368 4.4375418371083626 $184 $369 forward 7 unknown #
vertex $-1 $185 $370 #
straight-curve $-1 -52.385631885738704 -30.081410334656276 0 0 0 -1 I I #
coedge $-1 $270 $275 $186 $281 reversed $180 $-1 #
edge $-1 $284 -52.385631885738704 $278 52.385631885738704 $280 $371 forward 7 unknown #
coedge $-1 $187 $362 $270 $359 reversed $283 $-1 #
loop $-1 $-1 $187 $267 #
vertex $-1 $188 $372 #
straight-curve $-1 52.385631885738704 -30.081410334656276 0 0 0 1 I I #
point $-1 -52.385631885738704 -30.081410334656272 0.67619583930891602 #
point $-1 52.385631885738704 -30.081410334656272 0.67619583930891602 #
plane-surface $-1 0 0 10.127356123745253 0 0 1 1 0 0 forward_v I I I I #
coedge $-1 $299 $298 $291 $373 forward $194 $-1 #
coedge $-1 $291 $196 $198 $295 reversed $117 $-1 #
coedge $-1 $196 $290 $289 $373 reversed $117 $-1 #
coedge $-1 $204 $199 $196 $293 forward $205 $-1 #
edge $-1 $296 35.854180070416071 $374 41.59584297318473 $292 $375 forward 7 unknown #
coedge $-1 $198 $197 $299 $376 reversed $73 $-1 #
edge $-1 $377 -104.77126377147741 $296 -97.925115648549706 $290 $378 forward 7 unknown #
vertex $-1 $200 $379 #
straight-curve $-1 46.643968982970058 -6.9099089129436919 10.127356123745244 0 -1 0 I I #
coedge $-1 $289 $201 $204 $303 reversed $194 $-1 #
coedge $-1 $201 $289 $294 $376 forward $194 $-1 #
vertex $-1 $202 $380 #
straight-curve $-1 52.385631885738704 -6.4333089913352213 75.664886059576205 0 0 1 I I #
straight-curve $-1 -35.482942920327467 -6.4333089913352213 63.461197313086231 0.83867056331134215 0 -0.54463904215088732 I I #
edge $-1 $374 -21.206326660439547 $206 -6.4333089913352213 $298 $381 forward 7 unknown #
point $-1 52.385631885738704 -6.4333089913352213 10.127356123745253 #
point $-1 46.643968982970044 -6.4333089913352213 10.127356123745251 #
edge $-1 $382 1 $382 0 $209 $-1 forward 7 unknown #
vertex $-1 $210 $383 #
ellipse-curve $-1 47.972983437073069 -16.98546446926688 5.8888264151959966 0.54463904215088732 0 0.83867056331134215 1.2580058449670133 0 -0.81695856322633098 1 I I #
point $-1 50.772806279321379 -16.98546446926688 7.4460577824716987 #
edge $-1 $384 1 $384 0 $213 $-1 forward 7 unknown #
vertex $-1 $214 $385 #
ellipse-curve $-1 47.972983437073069 -10.654171182507881 5.8888264151959966 0.54463904215088732 0 0.83867056331134215 1.2580058449670133 0 -0.81695856322633098 1 I I #
point $-1 50.772806279321379 -10.654171182507881 7.4460577824716987 #
loop $-1 $-1 $225 $217 #
plane-surface $-1 -52.385631885738704 0 0 1 0 0 0 0 -1 forward_v I I I I #
coedge $-1 $317 $220 $222 $321 reversed $139 $-1 #
coedge $-1 $220 $316 $386 $387 reversed $139 $-1 #
coedge $-1 $228 $223 $220 $319 forward $218 $-1 #
edge $-1 $322 -8.0801073326170396 $388 -2.3384444298483587 $318 $389 forward 7 unknown #
coedge $-1 $222 $221 $325 $390 reversed $87 $-1 #
edge $-1 $391 8.3777959833898778e-015 $322 6.8461481229277332 $316 $392 forward 7 unknown #
vertex $-1 $224 $393 #
straight-curve $-1 -46.643968982970016 -6.9099089129436919 10.127356123745253 0 1 0 I I #
coedge $-1 $386 $225 $228 $329 reversed $314 $-1 #
coedge $-1 $225 $386 $320 $390 forward $314 $-1 #
vertex $-1 $226 $394 #
straight-curve $-1 -52.385631885738704 -21.206326660439547 47.133625686858487 0 0 1 I I #
straight-curve $-1 -52.385631885738711 -21.206326660439547 6.3986765676507957 -0.83867056331134215 0 -0.54463904215088732 I I #
edge $-1 $388 6.4333089913352213 $229 21.206326660439547 $324 $395 forward 7 unknown #
point $-1 -52.385631885738704 -21.206326660439547 10.127356123745253 #
point $-1 -46.643968982970023 -21.206326660439547 10.127356123745253 #
edge $-1 $396 1 $396 0 $232 $-1 forward 7 unknown #
vertex $-1 $233 $397 #
ellipse-curve $-1 -47.972983437073076 -16.98546446926688 5.8888264151960001 -0.54463904215088732 0 0.83867056331134215 1.2580058449670133 0 0.81695856322633098 1 I I #
point $-1 -48.256794589387361 -16.98546446926688 9.0799749089243633 #
edge $-1 $398 1 $398 0 $236 $-1 forward 7 unknown #
vertex $-1 $237 $399 #
ellipse-curve $-1 -47.972983437073076 -10.654171182507881 5.8888264151960001 -0.54463904215088732 0 0.83867056331134215 1.2580058449670133 0 0.81695856322633098 1 I I #
point $-1 -48.256794589387361 -10.654171182507881 9.0799749089243633 #
plane-surface $-1 52.385631885738704 0 0 -1 0 0 0 0 1 forward_v I I I I #
coedge $-1 $245 $243 $247 $345 reversed $161 $-1 #
edge $-1 $258 -10.127356123745253 $347 10.127356123745253 $257 $400 forward 7 unknown #
vertex $-1 $345 $401 #
straight-curve $-1 -52.385631885738704 -30.081410334656276 0 0 0 -1 I I #
edge $-1 $343 -30.081410334656276 $347 30.081410334656276 $341 $402 forward 7 unknown #
straight-curve $-1 0 -30.081410334656276 -10.127356123745253 -1 0 0 I I #
vertex $-1 $250 $403 #
straight-curve $-1 0 30.081410334656276 -10.127356123745253 1 0 0 I I #
point $-1 52.385631885738704 30.081410334656276 -10.127356123745253 #
point $-1 52.385631885738704 -30.081410334656276 -10.127356123745253 #
straight-curve $-1 -52.385631885738704 0 10.127356123745253 0 -1 0 I I #
point $-1 -52.385631885738704 30.081410334656276 10.127356123745253 #
point $-1 -52.385631885738704 -30.081410334656276 10.127356123745253 #
straight-curve $-1 52.385631885738704 -30.081410334656276 0 0 0 -1 I I #
straight-curve $-1 52.385631885738704 30.081410334656276 0 0 0 -1 I I #
plane-surface $-1 52.385631885738704 0 0 -1 0 0 0 0 1 forward_v I I I I #
coedge $-1 $404 $360 $274 $365 forward $268 $-1 #
coedge $-1 $275 $270 $404 $405 forward $180 $-1 #
edge $-1 $284 -4.4375418371083661 $406 4.4375418371083626 $282 $407 forward 7 unknown #
coedge $-1 $357 $408 $271 $361 reversed $268 $-1 #
edge $-1 $368 -52.385631885738704 $363 52.385631885738704 $360 $409 forward 7 unknown #
coedge $-1 $282 $272 $408 $410 forward $283 $-1 #
vertex $-1 $273 $411 #
straight-curve $-1 52.385631885738704 -34.518952171764639 0.67619583930891602 0 1 0 I I #
edge $-1 $368 -1.7804699979265508 $366 1.7804699979265508 $274 $412 forward 7 unknown #
vertex $-1 $276 $413 #
straight-curve $-1 -52.385631885738704 -34.518952171764639 -2.8847441565441856 0 1 0 I I #
vertex $-1 $277 $414 #
straight-curve $-1 -52.385631885738704 -34.518952171764639 0.67619583930891602 0 -1 0 I I #
point $-1 -52.385631885738704 -30.081410334656272 -2.8847441565441856 #
straight-curve $-1 0 -30.081410334656276 -2.8847441565441856 -1 0 0 I I #
point $-1 52.385631885738704 -30.081410334656272 -2.8847441565441856 #
edge $-1 $374 65.537529935830946 $377 69.26620949192538 $289 $415 forward 7 unknown #
vertex $-1 $303 $416 #
straight-curve $-1 10.789788912553973 -21.206326660439547 10.127356123745258 1 0 0 I I #
edge $-1 $377 -14.296417747495855 $300 0.47659992160847064 $299 $417 forward 7 unknown #
vertex $-1 $376 $418 #
straight-curve $-1 -35.482942920327467 -21.206326660439547 63.461197313086231 -0.83867056331134215 0 0.54463904215088732 I I #
point $-1 46.643968982970044 -21.206326660439547 10.127356123745251 #
point $-1 52.385631885738697 -6.4333089913352213 6.3986765676508242 #
straight-curve $-1 52.385631885738704 0 10.127356123745253 0 1 0 I I #
vertex $-1 $306 $419 #
point $-1 49.230989282040078 -16.98546446926688 5.0718678519696656 #
vertex $-1 $310 $420 #
point $-1 49.230989282040078 -10.654171182507881 5.0718678519696656 #
coedge $-1 $325 $324 $317 $387 forward $314 $-1 #
edge $-1 $388 37.006269563113236 $391 40.734949119207684 $386 $421 forward 7 unknown #
vertex $-1 $329 $422 #
straight-curve $-1 -54.724076315587062 -6.4333089913352213 10.127356123745251 -1 0 0 I I #
edge $-1 $391 -0.47659992160847064 $326 14.296417747495855 $325 $423 forward 7 unknown #
vertex $-1 $390 $424 #
straight-curve $-1 -52.385631885738711 -6.4333089913352213 6.3986765676507957 0.83867056331134215 0 0.54463904215088732 I I #
point $-1 -46.643968982970023 -6.4333089913352213 10.127356123745253 #
point $-1 -52.385631885738704 -21.206326660439547 6.3986765676508002 #
straight-curve $-1 -52.385631885738704 0 10.127356123745253 0 -1 0 I I #
vertex $-1 $332 $425 #
point $-1 -46.714977592106059 -16.98546446926688 6.7057849784223311 #
vertex $-1 $336 $426 #
point $-1 -46.714977592106059 -10.654171182507881 6.7057849784223311 #
straight-curve $-1 -52.385631885738704 30.081410334656276 0 0 0 -1 I I #
point $-1 -52.385631885738704 -30.081410334656276 -10.127356123745253 #
straight-curve $-1 -52.385631885738704 0 -10.127356123745253 0 1 0 I I #
point $-1 -52.385631885738704 30.081410334656276 -10.127356123745253 #
coedge $-1 $408 $357 $358 $405 reversed $268 $-1 #
edge $-1 $406 -52.385631885738704 $366 52.385631885738704 $404 $427 forward 7 unknown #
vertex $-1 $410 $428 #
straight-curve $-1 52.385631885738704 -34.518952171764639 -2.8847441565441856 0 -1 0 I I #
coedge $-1 $360 $404 $362 $410 reversed $268 $-1 #
straight-curve $-1 0 -38.956494008873001 0.67619583930891602 1 0 0 I I #
edge $-1 $363 -1.7804699979265508 $406 1.7804699979265508 $362 $429 forward 7 unknown #
point $-1 52.385631885738704 -38.956494008873001 0.67619583930891602 #
straight-curve $-1 -52.385631885738704 -38.956494008873001 -1.1042741586176348 0 0 -1 I I #
point $-1 -52.385631885738704 -38.956494008873001 -2.8847441565441856 #
point $-1 -52.385631885738704 -38.956494008873001 0.67619583930891602 #
straight-curve $-1 52.385631885738704 -21.206326660439547 75.664886059576205 0 0 -1 I I #
point $-1 52.385631885738704 -21.206326660439547 10.127356123745253 #
straight-curve $-1 52.385631885738704 -6.9099089129436919 6.3986765676508242 0 1 0 I I #
point $-1 52.385631885738697 -21.206326660439547 6.3986765676508242 #
point $-1 47.156024873846732 -16.98546446926688 4.630820570228984 #
point $-1 47.156024873846732 -10.654171182507881 4.630820570228984 #
straight-curve $-1 -52.385631885738704 -6.4333089913352213 47.133625686858487 0 0 -1 I I #
point $-1 -52.385631885738704 -6.4333089913352213 10.127356123745253 #
straight-curve $-1 -52.385631885738704 -6.9099089129436919 6.3986765676507993 0 -1 0 I I #
point $-1 -52.385631885738704 -6.4333089913352213 6.3986765676508002 #
point $-1 -47.156024873846739 -16.98546446926688 4.6308205702289875 #
point $-1 -47.156024873846739 -10.654171182507881 4.6308205702289875 #
straight-curve $-1 0 -38.956494008873001 -2.8847441565441856 -1 0 0 I I #
point $-1 52.385631885738704 -38.956494008873001 -2.8847441565441856 #
straight-curve $-1 52.385631885738704 -38.956494008873001 -1.1042741586176348 0 0 -1 I I #
End-of-ACIS-data 