500 0 6 0           
7 Unknown 11 ACIS 5.0 NT 24 Fri Mar 26 18:53:38 1999 
-1 9.9999999999999995e-007 1e-010 
body $-1 $6 $-1 $7 #
body $-1 $8 $-1 $9 #
body $-1 $10 $-1 $11 #
body $-1 $12 $-1 $13 #
body $-1 $14 $-1 $15 #
body $-1 $16 $-1 $17 #
lump $-1 $-1 $18 $0 #
transform $-1 1 0 0 0 1 0 0 0 1 79.582506790368356 50.815787677322916 10.658645195699108 1 rotate no_reflect no_shear #
lump $-1 $-1 $19 $1 #
transform $-1 1 0 0 0 1 0 0 0 1 79.582506790368356 50.815787677322916 10.658645195699108 1 rotate no_reflect no_shear #
lump $-1 $-1 $20 $2 #
transform $-1 1 0 0 0 1 0 0 0 1 79.582506790368356 50.815787677322916 10.658645195699108 1 rotate no_reflect no_shear #
lump $-1 $-1 $21 $3 #
transform $-1 1 0 0 0 1 0 0 0 1 79.582506790368356 50.815787677322916 10.658645195699108 1 rotate no_reflect no_shear #
lump $-1 $-1 $22 $4 #
transform $-1 1 0 0 0 1 0 0 0 1 79.582506790368356 50.815787677322916 10.658645195699108 1 rotate no_reflect no_shear #
lump $-1 $-1 $23 $5 #
transform $-1 1 0 0 0 1 0 0 0 1 79.582506790368356 50.815787677322916 10.658645195699108 1 rotate no_reflect no_shear #
shell $-1 $-1 $-1 $24 $-1 $6 #
shell $-1 $-1 $-1 $25 $-1 $8 #
shell $-1 $-1 $-1 $26 $-1 $10 #
shell $-1 $-1 $-1 $27 $-1 $12 #
shell $-1 $-1 $-1 $28 $-1 $14 #
shell $-1 $-1 $-1 $29 $-1 $16 #
face $-1 $30 $31 $18 $-1 $32 forward single #
face $-1 $33 $34 $19 $-1 $35 reversed single #
face $-1 $36 $37 $20 $-1 $38 reversed single #
face $-1 $39 $40 $21 $-1 $41 forward single #
face $-1 $42 $43 $22 $-1 $44 forward single #
face $-1 $45 $46 $23 $-1 $47 forward single #
face $-1 $48 $49 $18 $-1 $50 reversed single #
loop $-1 $-1 $51 $24 #
plane-surface $-1 0 0 10.658645195699108 0 0 1 1 0 0 forward_v I I I I #
face $-1 $52 $53 $19 $-1 $54 reversed single #
loop $-1 $-1 $55 $25 #
plane-surface $-1 0 -46.148776578741256 7.6586451956991084 0 0 1 1 0 0 forward_v I I I I #
face $-1 $56 $57 $20 $-1 $58 reversed single #
loop $-1 $-1 $59 $26 #
plane-surface $-1 -36.534782904805141 45.676568260988347 195.16957328651793 1 0 0 0 -0.51503808176128008 -0.85716729658548041 forward_v I I I I #
face $-1 $60 $61 $21 $-1 $62 forward single #
loop $-1 $63 $64 $27 #
cone-surface $-1 -33.134256173418969 46.430595204078593 7.1339480980642964 0 -0.51503808176128008 -0.85716729658548041 1 0 0 1 I I 0 1 1 forward I I I I #
face $-1 $65 $66 $22 $-1 $67 forward single #
loop $-1 $68 $69 $28 #
cone-surface $-1 -28.033466076339721 46.430595204078593 7.1339480980642964 0 -0.51503808176128008 -0.85716729658548041 1 0 0 1 I I 0 1 1 forward I I I I #
face $-1 $70 $71 $23 $-1 $72 forward single #
loop $-1 $73 $74 $29 #
cone-surface $-1 -22.932675979260466 46.430595204078593 7.1339480980642964 0 -0.51503808176128008 -0.85716729658548041 1 0 0 1 I I 0 1 1 forward I I I I #
face $-1 $75 $76 $18 $-1 $77 reversed single #
loop $-1 $-1 $78 $30 #
plane-surface $-1 0 0 -10.658645195699108 0 0 1 1 0 0 forward_v I I I I #
coedge $-1 $79 $80 $81 $82 forward $31 $-1 #
face $-1 $83 $84 $19 $-1 $85 reversed single #
loop $-1 $-1 $86 $33 #
plane-surface $-1 0 -41.481765480159595 9.1586451956991084 0 -1 0 0 0 -1 forward_v I I I I #
coedge $-1 $87 $88 $89 $90 reversed $34 $-1 #
face $-1 $91 $92 $20 $-1 $93 reversed single #
loop $-1 $-1 $94 $36 #
plane-surface $-1 -28.033466076339721 -36.299475017142385 58.738528884526573 0 0.51503808176128008 0.85716729658548041 1 0 0 forward_v I I I I #
coedge $-1 $95 $96 $97 $98 reversed $37 $-1 #
face $-1 $-1 $99 $21 $-1 $100 forward single #
loop $-1 $101 $102 $39 #
cone-surface $-1 -33.134256173418969 45.336333792993784 5.3127913162399096 0 -0.51503808176128008 -0.85716729658548041 0.5 0 0 1 I I -0.70710678118654746 0.70710678118654746 0.5 forward I I I I #
loop $-1 $-1 $103 $27 #
coedge $-1 $64 $64 $104 $105 reversed $40 $-1 #
face $-1 $-1 $106 $22 $-1 $107 forward single #
loop $-1 $108 $109 $42 #
cone-surface $-1 -28.033466076339721 45.336333792993784 5.3127913162399096 0 -0.51503808176128008 -0.85716729658548041 0.5 0 0 1 I I -0.70710678118654746 0.70710678118654746 0.5 forward I I I I #
loop $-1 $-1 $110 $28 #
coedge $-1 $69 $69 $111 $112 reversed $43 $-1 #
face $-1 $-1 $113 $23 $-1 $114 forward single #
loop $-1 $115 $116 $45 #
cone-surface $-1 -22.932675979260466 45.336333792993784 5.3127913162399096 0 -0.51503808176128008 -0.85716729658548041 0.5 0 0 1 I I -0.70710678118654746 0.70710678118654746 0.5 forward I I I I #
loop $-1 $-1 $117 $29 #
coedge $-1 $74 $74 $118 $119 reversed $46 $-1 #
face $-1 $120 $121 $18 $-1 $122 reversed single #
loop $-1 $-1 $123 $48 #
plane-surface $-1 0 -50.815787677322916 0 0 1 0 0 0 1 forward_v I I I I #
coedge $-1 $124 $125 $126 $127 forward $49 $-1 #
coedge $-1 $128 $51 $129 $130 forward $31 $-1 #
coedge $-1 $51 $128 $131 $132 forward $31 $-1 #
coedge $-1 $133 $134 $51 $82 reversed $135 $-1 #
edge $-1 $136 -50.815787677322916 $137 50.815787677322916 $81 $138 forward 7 unknown #
face $-1 $139 $140 $19 $-1 $141 reversed single #
loop $-1 $-1 $142 $52 #
plane-surface $-1 -79.582506790368356 0 0 1 0 0 0 0 -1 forward_v I I I I #
coedge $-1 $143 $144 $145 $146 reversed $53 $-1 #
coedge $-1 $147 $55 $148 $149 reversed $34 $-1 #
coedge $-1 $55 $147 $143 $150 forward $34 $-1 #
coedge $-1 $145 $151 $55 $90 forward $152 $-1 #
edge $-1 $153 -27.741399387952288 $154 -18.407377190788967 $89 $155 forward 7 unknown #
face $-1 $156 $157 $20 $-1 $158 forward single #
loop $-1 $-1 $159 $56 #
plane-surface $-1 -19.532149247874305 45.676568260988347 195.16957328651793 -1 0 0 0 0.51503808176128008 0.85716729658548041 forward_v I I I I #
coedge $-1 $160 $161 $162 $163 reversed $57 $-1 #
coedge $-1 $96 $59 $164 $165 reversed $37 $-1 #
coedge $-1 $59 $95 $160 $166 reversed $37 $-1 #
coedge $-1 $162 $167 $59 $98 forward $157 $-1 #
edge $-1 $168 -27.977503546828743 $169 -20.880603340748436 $97 $170 forward 7 unknown #
loop $-1 $-1 $104 $60 #
plane-surface $-1 -28.033466076339721 -36.299475017142385 58.738528884526573 0 0.51503808176128008 0.85716729658548041 1 0 0 forward_v I I I I #
loop $-1 $-1 $171 $39 #
coedge $-1 $102 $102 $103 $172 reversed $61 $-1 #
coedge $-1 $103 $103 $102 $172 forward $63 $-1 #
coedge $-1 $104 $104 $64 $105 forward $99 $-1 #
edge $-1 $173 4.5744570954411763e-015 $173 6.2831853071796049 $104 $174 forward 7 unknown #
loop $-1 $-1 $111 $65 #
plane-surface $-1 -28.033466076339721 -36.299475017142385 58.738528884526573 0 0.51503808176128008 0.85716729658548041 1 0 0 forward_v I I I I #
loop $-1 $-1 $175 $42 #
coedge $-1 $109 $109 $110 $176 reversed $66 $-1 #
coedge $-1 $110 $110 $109 $176 forward $68 $-1 #
coedge $-1 $111 $111 $69 $112 forward $106 $-1 #
edge $-1 $177 4.5744570954411763e-015 $177 6.2831853071796049 $111 $178 forward 7 unknown #
loop $-1 $-1 $118 $70 #
plane-surface $-1 -28.033466076339721 -36.299475017142385 58.738528884526573 0 0.51503808176128008 0.85716729658548041 1 0 0 forward_v I I I I #
loop $-1 $-1 $179 $45 #
coedge $-1 $116 $116 $117 $180 reversed $71 $-1 #
coedge $-1 $117 $117 $116 $180 forward $73 $-1 #
coedge $-1 $118 $118 $74 $119 forward $113 $-1 #
edge $-1 $181 4.5744570954411763e-015 $181 6.2831853071796049 $118 $182 forward 7 unknown #
face $-1 $183 $184 $18 $-1 $185 reversed single #
loop $-1 $-1 $186 $75 #
plane-surface $-1 -79.582506790368356 0 0 1 0 0 0 0 -1 forward_v I I I I #
coedge $-1 $187 $131 $188 $189 forward $76 $-1 #
coedge $-1 $190 $78 $187 $191 forward $49 $-1 #
coedge $-1 $78 $190 $192 $193 forward $49 $-1 #
coedge $-1 $134 $133 $78 $127 reversed $135 $-1 #
edge $-1 $194 -50.815787677322916 $195 50.815787677322916 $126 $196 forward 7 unknown #
coedge $-1 $80 $79 $197 $198 forward $31 $-1 #
coedge $-1 $199 $200 $79 $130 reversed $184 $-1 #
edge $-1 $137 -79.582506790368356 $201 79.582506790368356 $129 $202 forward 7 unknown #
coedge $-1 $123 $203 $80 $132 reversed $76 $-1 #
edge $-1 $204 -79.582506790368356 $136 79.582506790368356 $131 $205 forward 7 unknown #
coedge $-1 $126 $81 $203 $206 forward $135 $-1 #
coedge $-1 $81 $126 $199 $207 reversed $135 $-1 #
loop $-1 $-1 $133 $183 #
vertex $-1 $82 $208 #
vertex $-1 $82 $209 #
straight-curve $-1 79.582506790368356 0 10.658645195699108 0 1 0 I I #
face $-1 $210 $211 $19 $-1 $212 forward single #
loop $-1 $-1 $148 $83 #
plane-surface $-1 0 -50.815787677322916 0 0 1 0 0 0 1 forward_v I I I I #
coedge $-1 $213 $214 $215 $216 forward $84 $-1 #
coedge $-1 $215 $86 $88 $150 reversed $53 $-1 #
coedge $-1 $86 $215 $217 $218 reversed $53 $-1 #
coedge $-1 $219 $89 $86 $146 forward $152 $-1 #
edge $-1 $154 3.0793225978495542 $220 6.0793225978495542 $145 $221 forward 7 unknown #
coedge $-1 $88 $87 $213 $222 reversed $34 $-1 #
coedge $-1 $223 $224 $87 $149 forward $140 $-1 #
edge $-1 $225 -79.582506790368356 $153 79.582506790368356 $148 $226 forward 7 unknown #
edge $-1 $227 -79.582506790368356 $154 79.582506790368356 $143 $228 forward 7 unknown #
coedge $-1 $89 $219 $223 $229 forward $152 $-1 #
loop $-1 $-1 $145 $210 #
vertex $-1 $149 $230 #
vertex $-1 $90 $231 #
straight-curve $-1 79.582506790368356 -23.074388289370628 7.6586451956991084 0 1 0 I I #
face $-1 $-1 $232 $20 $-1 $233 reversed single #
loop $-1 $-1 $97 $91 #
plane-surface $-1 0 0 10.658645195699108 0 0 1 1 0 0 forward_v I I I I #
coedge $-1 $234 $235 $236 $237 reversed $92 $-1 #
coedge $-1 $238 $94 $96 $166 forward $57 $-1 #
coedge $-1 $94 $238 $234 $239 forward $57 $-1 #
coedge $-1 $236 $97 $94 $163 forward $157 $-1 #
edge $-1 $169 -22.51804986663528 $240 -5.5154162097044441 $162 $241 forward 7 unknown #
coedge $-1 $242 $243 $95 $165 forward $232 $-1 #
edge $-1 $244 -91.190389375766159 $168 -86.926141447559857 $164 $245 forward 7 unknown #
edge $-1 $169 93.352094517765138 $244 101.63157535464582 $96 $246 forward 7 unknown #
coedge $-1 $97 $236 $242 $247 forward $157 $-1 #
vertex $-1 $165 $248 #
vertex $-1 $98 $249 #
straight-curve $-1 -36.534782904805141 22.838284130494173 10.658645195699108 0 -1 0 I I #
coedge $-1 $171 $171 $-1 $250 reversed $101 $-1 #
edge $-1 $251 0 $251 6.2831853071796004 $102 $252 forward 7 unknown #
vertex $-1 $105 $253 #
ellipse-curve $-1 -33.134256173418969 47.267337574282763 8.526521231595952 0 0.51503808176128008 0.85716729658548041 1 0 0 1 I I #
coedge $-1 $175 $175 $-1 $254 reversed $108 $-1 #
edge $-1 $255 0 $255 6.2831853071796004 $109 $256 forward 7 unknown #
vertex $-1 $112 $257 #
ellipse-curve $-1 -28.033466076339721 47.267337574282763 8.526521231595952 0 0.51503808176128008 0.85716729658548041 1 0 0 1 I I #
coedge $-1 $179 $179 $-1 $258 reversed $115 $-1 #
edge $-1 $259 0 $259 6.2831853071796004 $116 $260 forward 7 unknown #
vertex $-1 $119 $261 #
ellipse-curve $-1 -22.932675979260466 47.267337574282763 8.526521231595952 0 0.51503808176128008 0.85716729658548041 1 0 0 1 I I #
face $-1 $-1 $135 $18 $-1 $262 reversed single #
loop $-1 $-1 $199 $120 #
plane-surface $-1 0 50.815787677322916 0 0 -1 0 0 0 -1 forward_v I I I I #
coedge $-1 $263 $197 $200 $264 forward $121 $-1 #
coedge $-1 $203 $123 $124 $191 reversed $76 $-1 #
coedge $-1 $197 $263 $123 $189 reversed $121 $-1 #
edge $-1 $204 -10.658645195699108 $265 10.658645195699108 $188 $266 forward 7 unknown #
coedge $-1 $125 $124 $263 $267 forward $49 $-1 #
edge $-1 $195 -79.582506790368356 $265 79.582506790368356 $187 $268 forward 7 unknown #
coedge $-1 $200 $199 $125 $193 reversed $184 $-1 #
edge $-1 $269 -79.582506790368356 $194 79.582506790368356 $192 $270 forward 7 unknown #
vertex $-1 $127 $271 #
vertex $-1 $206 $272 #
straight-curve $-1 79.582506790368356 0 -10.658645195699108 0 -1 0 I I #
coedge $-1 $186 $188 $128 $198 reversed $121 $-1 #
edge $-1 $201 -50.815787677322916 $204 50.815787677322916 $197 $273 forward 7 unknown #
coedge $-1 $192 $129 $134 $207 forward $184 $-1 #
coedge $-1 $129 $192 $186 $264 reversed $184 $-1 #
vertex $-1 $130 $274 #
straight-curve $-1 0 50.815787677322916 10.658645195699108 -1 0 0 I I #
coedge $-1 $131 $187 $133 $206 reversed $76 $-1 #
vertex $-1 $198 $275 #
straight-curve $-1 0 -50.815787677322916 10.658645195699108 1 0 0 I I #
edge $-1 $136 -10.658645195699108 $195 10.658645195699108 $133 $276 forward 7 unknown #
edge $-1 $137 -10.658645195699108 $194 10.658645195699108 $134 $277 forward 7 unknown #
point $-1 79.582506790368356 -50.815787677322916 10.658645195699108 #
point $-1 79.582506790368356 50.815787677322916 10.658645195699108 #
face $-1 $-1 $152 $19 $-1 $278 reversed single #
loop $-1 $-1 $217 $139 #
plane-surface $-1 0 0 10.658645195699108 0 0 1 1 0 0 forward_v I I I I #
coedge $-1 $279 $142 $147 $222 forward $84 $-1 #
coedge $-1 $142 $279 $280 $281 reversed $84 $-1 #
coedge $-1 $144 $143 $142 $216 reversed $53 $-1 #
edge $-1 $282 -6.0793225978495542 $227 -3.0793225978495542 $142 $283 forward 7 unknown #
coedge $-1 $280 $284 $144 $218 forward $211 $-1 #
edge $-1 $220 -79.582506790368356 $282 79.582506790368356 $217 $285 forward 7 unknown #
coedge $-1 $151 $145 $284 $286 reversed $152 $-1 #
vertex $-1 $146 $287 #
straight-curve $-1 79.582506790368356 -41.481765480159595 4.5793225978495542 0 0 1 I I #
edge $-1 $227 18.407377190788967 $225 27.741399387952288 $213 $288 forward 7 unknown #
coedge $-1 $289 $148 $151 $229 reversed $140 $-1 #
coedge $-1 $148 $289 $279 $290 forward $140 $-1 #
vertex $-1 $149 $291 #
straight-curve $-1 0 -50.815787677322916 7.6586451956991084 1 0 0 I I #
vertex $-1 $222 $292 #
straight-curve $-1 0 -41.481765480159595 7.6586451956991084 1 0 0 I I #
edge $-1 $293 -10.658645195699108 $153 -7.6586451956991084 $151 $294 forward 7 unknown #
point $-1 79.582506790368356 -50.815787677322916 7.6586451956991084 #
point $-1 79.582506790368356 -41.481765480159595 7.6586451956991084 #
loop $-1 $-1 $164 $156 #
plane-surface $-1 0 50.815787677322916 0 0 -1 0 0 0 -1 forward_v I I I I #
coedge $-1 $235 $159 $161 $239 reversed $92 $-1 #
coedge $-1 $159 $234 $295 $296 reversed $92 $-1 #
coedge $-1 $167 $162 $159 $237 forward $157 $-1 #
edge $-1 $240 20.880603340748436 $297 27.977503546828743 $236 $298 forward 7 unknown #
coedge $-1 $161 $160 $243 $299 reversed $57 $-1 #
edge $-1 $300 -101.63157535464582 $240 -93.352094517765138 $234 $301 forward 7 unknown #
vertex $-1 $163 $302 #
straight-curve $-1 -14.01673303816986 43.71888747124261 10.658645195699108 1 0 0 I I #
coedge $-1 $295 $164 $167 $247 reversed $232 $-1 #
coedge $-1 $164 $295 $238 $299 forward $232 $-1 #
vertex $-1 $165 $303 #
straight-curve $-1 -36.534782904805141 50.815787677322916 97.584786643258965 0 0 1 I I #
straight-curve $-1 -36.534782904805141 -36.299475017142385 58.738528884526573 0 0.85716729658548041 -0.51503808176128008 I I #
edge $-1 $297 19.532149247874305 $168 36.534782904805141 $242 $304 forward 7 unknown #
point $-1 -36.534782904805141 50.815787677322916 10.658645195699108 #
point $-1 -36.534782904805141 43.71888747124261 10.658645195699108 #
edge $-1 $305 1 $305 0 $171 $-1 forward 7 unknown #
vertex $-1 $172 $306 #
ellipse-curve $-1 -33.134256173418969 45.593852833874422 5.7413749645326497 0 0.51503808176128008 0.85716729658548041 1 0 0 1 I I #
point $-1 -32.134256173418969 47.267337574282763 8.5265212315959431 #
edge $-1 $307 1 $307 0 $175 $-1 forward 7 unknown #
vertex $-1 $176 $308 #
ellipse-curve $-1 -28.033466076339721 45.593852833874422 5.7413749645326497 0 0.51503808176128008 0.85716729658548041 1 0 0 1 I I #
point $-1 -27.033466076339721 47.267337574282763 8.5265212315959431 #
edge $-1 $309 1 $309 0 $179 $-1 forward 7 unknown #
vertex $-1 $180 $310 #
ellipse-curve $-1 -22.932675979260466 45.593852833874422 5.7413749645326497 0 0.51503808176128008 0.85716729658548041 1 0 0 1 I I #
point $-1 -21.932675979260466 47.267337574282763 8.5265212315959431 #
plane-surface $-1 79.582506790368356 0 0 -1 0 0 0 0 1 forward_v I I I I #
coedge $-1 $188 $186 $190 $267 reversed $121 $-1 #
edge $-1 $201 -10.658645195699108 $269 10.658645195699108 $200 $311 forward 7 unknown #
vertex $-1 $267 $312 #
straight-curve $-1 -79.582506790368356 -50.815787677322916 0 0 0 -1 I I #
edge $-1 $265 -50.815787677322916 $269 50.815787677322916 $263 $313 forward 7 unknown #
straight-curve $-1 0 -50.815787677322916 -10.658645195699108 -1 0 0 I I #
vertex $-1 $193 $314 #
straight-curve $-1 0 50.815787677322916 -10.658645195699108 1 0 0 I I #
point $-1 79.582506790368356 50.815787677322916 -10.658645195699108 #
point $-1 79.582506790368356 -50.815787677322916 -10.658645195699108 #
straight-curve $-1 -79.582506790368356 0 10.658645195699108 0 -1 0 I I #
point $-1 -79.582506790368356 50.815787677322916 10.658645195699108 #
point $-1 -79.582506790368356 -50.815787677322916 10.658645195699108 #
straight-curve $-1 79.582506790368356 -50.815787677322916 0 0 0 -1 I I #
straight-curve $-1 79.582506790368356 50.815787677322916 0 0 0 -1 I I #
plane-surface $-1 79.582506790368356 0 0 -1 0 0 0 0 1 forward_v I I I I #
coedge $-1 $214 $213 $224 $290 reversed $84 $-1 #
coedge $-1 $315 $217 $214 $281 forward $211 $-1 #
edge $-1 $282 41.481765480159595 $316 50.815787677322916 $214 $317 forward 7 unknown #
vertex $-1 $281 $318 #
straight-curve $-1 -79.582506790368356 -41.481765480159595 4.5793225978495542 0 0 -1 I I #
coedge $-1 $217 $315 $219 $286 forward $211 $-1 #
straight-curve $-1 0 -41.481765480159595 10.658645195699108 -1 0 0 I I #
edge $-1 $293 -50.815787677322916 $220 -41.481765480159595 $219 $319 forward 7 unknown #
point $-1 79.582506790368356 -41.481765480159595 10.658645195699108 #
straight-curve $-1 -79.582506790368356 -23.074388289370628 7.6586451956991084 0 -1 0 I I #
coedge $-1 $224 $223 $315 $320 reversed $140 $-1 #
edge $-1 $316 -10.658645195699108 $225 -7.6586451956991084 $279 $321 forward 7 unknown #
point $-1 -79.582506790368356 -50.815787677322916 7.6586451956991084 #
point $-1 -79.582506790368356 -41.481765480159595 7.6586451956991084 #
vertex $-1 $286 $322 #
straight-curve $-1 79.582506790368356 -50.815787677322916 0 0 0 -1 I I #
coedge $-1 $243 $242 $235 $296 forward $232 $-1 #
edge $-1 $297 86.926141447559857 $300 91.190389375766159 $295 $323 forward 7 unknown #
vertex $-1 $247 $324 #
straight-curve $-1 -19.532149247874305 22.838284130494173 10.658645195699108 0 1 0 I I #
edge $-1 $300 5.5154162097044441 $244 22.51804986663528 $243 $325 forward 7 unknown #
vertex $-1 $299 $326 #
straight-curve $-1 -19.532149247874305 -36.299475017142385 58.738528884526573 0 -0.85716729658548041 0.51503808176128008 I I #
point $-1 -19.532149247874305 43.71888747124261 10.658645195699108 #
point $-1 -36.534782904805141 50.815787677322916 6.3943972674927991 #
straight-curve $-1 0 50.815787677322916 10.658645195699108 -1 0 0 I I #
vertex $-1 $250 $327 #
point $-1 -32.134256173418969 45.593852833874422 5.7413749645326497 #
vertex $-1 $254 $328 #
point $-1 -27.033466076339721 45.593852833874422 5.7413749645326497 #
vertex $-1 $258 $329 #
point $-1 -21.932675979260466 45.593852833874422 5.7413749645326497 #
straight-curve $-1 -79.582506790368356 50.815787677322916 0 0 0 -1 I I #
point $-1 -79.582506790368356 -50.815787677322916 -10.658645195699108 #
straight-curve $-1 -79.582506790368356 0 -10.658645195699108 0 1 0 I I #
point $-1 -79.582506790368356 50.815787677322916 -10.658645195699108 #
coedge $-1 $284 $280 $289 $320 forward $211 $-1 #
vertex $-1 $281 $330 #
straight-curve $-1 -79.582506790368356 0 10.658645195699108 0 -1 0 I I #
point $-1 -79.582506790368356 -41.481765480159595 10.658645195699108 #
straight-curve $-1 79.582506790368356 0 10.658645195699108 0 1 0 I I #
edge $-1 $316 -79.582506790368356 $293 79.582506790368356 $289 $331 forward 7 unknown #
straight-curve $-1 -79.582506790368356 -50.815787677322916 0 0 0 -1 I I #
point $-1 79.582506790368356 -50.815787677322916 10.658645195699108 #
straight-curve $-1 -19.532149247874305 50.815787677322916 97.584786643258965 0 0 -1 I I #
point $-1 -19.532149247874305 50.815787677322916 10.658645195699108 #
straight-curve $-1 -14.01673303816986 50.815787677322916 6.3943972674927991 -1 0 0 I I #
point $-1 -19.532149247874305 50.815787677322916 6.3943972674927991 #
point $-1 -33.134256173418969 45.078814752113146 4.8842076679471695 #
point $-1 -28.033466076339721 45.078814752113146 4.8842076679471695 #
point $-1 -22.932675979260466 45.078814752113146 4.8842076679471695 #
point $-1 -79.582506790368356 -50.815787677322916 10.658645195699108 #
straight-curve $-1 0 -50.815787677322916 10.658645195699108 1 0 0 I I #
End-of-ACIS-data 