500 0 12 0           
7 Unknown 11 ACIS 5.0 NT 24 Fri Mar 26 03:01:11 1999 
-1 9.9999999999999995e-007 1e-010 
body $-1 $12 $-1 $13 #
body $-1 $14 $-1 $15 #
body $-1 $16 $-1 $17 #
body $-1 $18 $-1 $19 #
body $-1 $20 $-1 $21 #
body $-1 $22 $-1 $23 #
body $-1 $24 $-1 $25 #
body $-1 $26 $-1 $27 #
body $-1 $28 $-1 $29 #
body $-1 $30 $-1 $31 #
body $-1 $32 $-1 $33 #
body $-1 $34 $-1 $35 #
lump $-1 $-1 $36 $0 #
transform $-1 1 0 0 0 1 0 0 0 1 64.54908902249214 25.881688781524353 11.311973312993093 1 rotate no_reflect no_shear #
lump $-1 $-1 $37 $1 #
transform $-1 1 0 0 0 1 0 0 0 1 64.54908902249214 25.881688781524353 11.311973312993093 1 rotate no_reflect no_shear #
lump $-1 $-1 $38 $2 #
transform $-1 1 0 0 0 1 0 0 0 1 64.54908902249214 25.881688781524353 11.311973312993093 1 rotate no_reflect no_shear #
lump $-1 $-1 $39 $3 #
transform $-1 1 0 0 0 1 0 0 0 1 64.54908902249214 25.881688781524353 11.311973312993093 1 rotate no_reflect no_shear #
lump $-1 $-1 $40 $4 #
transform $-1 1 0 0 0 1 0 0 0 1 64.54908902249214 25.881688781524353 11.311973312993093 1 rotate no_reflect no_shear #
lump $-1 $-1 $41 $5 #
transform $-1 1 0 0 0 1 0 0 0 1 64.54908902249214 25.881688781524353 11.311973312993093 1 rotate no_reflect no_shear #
lump $-1 $-1 $42 $6 #
transform $-1 1 0 0 0 1 0 0 0 1 64.54908902249214 25.881688781524353 11.311973312993093 1 rotate no_reflect no_shear #
lump $-1 $-1 $43 $7 #
transform $-1 1 0 0 0 1 0 0 0 1 64.54908902249214 25.881688781524353 11.311973312993093 1 rotate no_reflect no_shear #
lump $-1 $-1 $44 $8 #
transform $-1 1 0 0 0 1 0 0 0 1 64.54908902249214 25.881688781524353 11.311973312993093 1 rotate no_reflect no_shear #
lump $-1 $-1 $45 $9 #
transform $-1 1 0 0 0 1 0 0 0 1 64.54908902249214 25.881688781524353 11.311973312993093 1 rotate no_reflect no_shear #
lump $-1 $-1 $46 $10 #
transform $-1 1 0 0 0 1 0 0 0 1 64.54908902249214 25.881688781524353 11.311973312993093 1 rotate no_reflect no_shear #
lump $-1 $-1 $47 $11 #
transform $-1 1 0 0 0 1 0 0 0 1 64.54908902249214 25.881688781524353 11.311973312993093 1 rotate no_reflect no_shear #
shell $-1 $-1 $-1 $48 $-1 $12 #
shell $-1 $-1 $-1 $49 $-1 $14 #
shell $-1 $-1 $-1 $50 $-1 $16 #
shell $-1 $-1 $-1 $51 $-1 $18 #
shell $-1 $-1 $-1 $52 $-1 $20 #
shell $-1 $-1 $-1 $53 $-1 $22 #
shell $-1 $-1 $-1 $54 $-1 $24 #
shell $-1 $-1 $-1 $55 $-1 $26 #
shell $-1 $-1 $-1 $56 $-1 $28 #
shell $-1 $-1 $-1 $57 $-1 $30 #
shell $-1 $-1 $-1 $58 $-1 $32 #
shell $-1 $-1 $-1 $59 $-1 $34 #
face $-1 $60 $61 $36 $-1 $62 forward single #
face $-1 $63 $64 $37 $-1 $65 forward single #
face $-1 $66 $67 $38 $-1 $68 forward single #
face $-1 $69 $70 $39 $-1 $71 reversed single #
face $-1 $72 $73 $40 $-1 $74 forward single #
face $-1 $75 $76 $41 $-1 $77 forward single #
face $-1 $78 $79 $42 $-1 $80 reversed single #
face $-1 $81 $82 $43 $-1 $83 forward single #
face $-1 $84 $85 $44 $-1 $86 forward single #
face $-1 $87 $88 $45 $-1 $89 reversed single #
face $-1 $90 $91 $46 $-1 $92 forward single #
face $-1 $93 $94 $47 $-1 $95 forward single #
face $-1 $96 $97 $36 $-1 $98 reversed single #
loop $-1 $-1 $99 $48 #
plane-surface $-1 0 0 11.311973312993093 0 0 1 1 0 0 forward_v I I I I #
face $-1 $100 $101 $37 $-1 $102 reversed single #
loop $-1 $-1 $103 $49 #
plane-surface $-1 0 -25.881688781524353 0 0 1 0 0 0 1 forward_v I I I I #
face $-1 $104 $105 $38 $-1 $106 reversed single #
loop $-1 $-1 $107 $50 #
plane-surface $-1 0 25.881688781524353 0 0 -1 0 0 0 -1 forward_v I I I I #
face $-1 $108 $109 $39 $-1 $110 reversed single #
loop $-1 $-1 $111 $51 #
plane-surface $-1 -140.43109514460252 -15.479962173902599 112.07831093906753 0 1 0 -0.5877852598018023 0 0.80901698891910034 forward_v I I I I #
face $-1 $112 $113 $40 $-1 $114 forward single #
loop $-1 $115 $116 $52 #
cone-surface $-1 -61.72118100292812 -13.675814727664992 9.0637749172768078 0.5877852598018023 0 -0.80901698891910034 0.40450849445955017 0 0.29389262990090115 1 I I 0 1 0.5 forward I I I I #
face $-1 $117 $118 $41 $-1 $119 forward single #
loop $-1 $120 $121 $53 #
cone-surface $-1 -61.72118100292812 -10.969593558308585 9.0637749172768078 0.5877852598018023 0 -0.80901698891910034 0.40450849445955017 0 0.29389262990090115 1 I I 0 1 0.5 forward I I I I #
face $-1 $122 $123 $42 $-1 $124 reversed single #
loop $-1 $-1 $125 $54 #
plane-surface $-1 -140.43109514460252 -5.1599873913008656 112.07831093906753 0 1 0 -0.5877852598018023 0 0.80901698891910034 forward_v I I I I #
face $-1 $126 $127 $43 $-1 $128 forward single #
loop $-1 $129 $130 $55 #
cone-surface $-1 -61.72118100292812 -3.3558399450632592 9.0637749172768078 0.5877852598018023 0 -0.80901698891910034 0.40450849445955017 0 0.29389262990090115 1 I I 0 1 0.5 forward I I I I #
face $-1 $131 $132 $44 $-1 $133 forward single #
loop $-1 $134 $135 $56 #
cone-surface $-1 -61.72118100292812 -0.64961877570685189 9.0637749172768078 0.5877852598018023 0 -0.80901698891910034 0.40450849445955017 0 0.29389262990090115 1 I I 0 1 0.5 forward I I I I #
face $-1 $136 $137 $45 $-1 $138 reversed single #
loop $-1 $-1 $139 $57 #
plane-surface $-1 -140.43109514460252 5.1599873913008709 112.07831093906753 0 1 0 -0.5877852598018023 0 0.80901698891910034 forward_v I I I I #
face $-1 $140 $141 $46 $-1 $142 forward single #
loop $-1 $143 $144 $58 #
cone-surface $-1 -61.72118100292812 6.9641348375384737 9.0637749172768078 0.5877852598018023 0 -0.80901698891910034 0.40450849445955017 0 0.29389262990090115 1 I I 0 1 0.5 forward I I I I #
face $-1 $145 $146 $47 $-1 $147 forward single #
loop $-1 $148 $149 $59 #
cone-surface $-1 -61.72118100292812 9.6703560068948846 9.0637749172768078 0.5877852598018023 0 -0.80901698891910034 0.40450849445955017 0 0.29389262990090115 1 I I 0 1 0.5 forward I I I I #
face $-1 $150 $151 $36 $-1 $152 reversed single #
loop $-1 $-1 $153 $60 #
plane-surface $-1 0 0 -11.311973312993093 0 0 1 1 0 0 forward_v I I I I #
coedge $-1 $154 $155 $156 $157 forward $61 $-1 #
face $-1 $158 $159 $37 $-1 $160 reversed single #
loop $-1 $-1 $161 $63 #
plane-surface $-1 0 0 -11.311973312993093 0 0 1 1 0 0 forward_v I I I I #
coedge $-1 $162 $163 $164 $165 forward $64 $-1 #
face $-1 $166 $167 $38 $-1 $168 forward single #
loop $-1 $-1 $169 $66 #
plane-surface $-1 -64.54908902249214 0 0 1 0 0 0 0 -1 forward_v I I I I #
coedge $-1 $170 $171 $172 $173 forward $67 $-1 #
face $-1 $174 $175 $39 $-1 $176 reversed single #
loop $-1 $-1 $177 $69 #
plane-surface $-1 -64.549089022492112 -12.32270414298679 7.635691662172448 -0.5877852598018023 0 0.80901698891910034 0.80901698891910034 0 0.5877852598018023 forward_v I I I I #
coedge $-1 $178 $179 $180 $181 reversed $70 $-1 #
face $-1 $-1 $182 $40 $-1 $183 forward single #
loop $-1 $184 $185 $72 #
cone-surface $-1 -61.27631041840452 -13.675814727664992 8.4514630997410656 0.5877852598018023 0 -0.80901698891910034 0.20225424722977509 0 0.14694631495045057 1 I I -0.70710678118654746 0.70710678118654746 0.25 forward I I I I #
loop $-1 $-1 $186 $52 #
coedge $-1 $116 $116 $187 $188 reversed $73 $-1 #
face $-1 $-1 $189 $41 $-1 $190 forward single #
loop $-1 $191 $192 $75 #
cone-surface $-1 -61.27631041840452 -10.969593558308585 8.4514630997410656 0.5877852598018023 0 -0.80901698891910034 0.20225424722977509 0 0.14694631495045057 1 I I -0.70710678118654746 0.70710678118654746 0.25 forward I I I I #
loop $-1 $-1 $193 $53 #
coedge $-1 $121 $121 $194 $195 reversed $76 $-1 #
face $-1 $196 $197 $42 $-1 $198 reversed single #
loop $-1 $-1 $199 $78 #
plane-surface $-1 -64.549089022492112 -2.0027293603850573 7.635691662172448 -0.5877852598018023 0 0.80901698891910034 0.80901698891910034 0 0.5877852598018023 forward_v I I I I #
coedge $-1 $200 $201 $202 $203 reversed $79 $-1 #
face $-1 $-1 $204 $43 $-1 $205 forward single #
loop $-1 $206 $207 $81 #
cone-surface $-1 -61.27631041840452 -3.3558399450632592 8.4514630997410656 0.5877852598018023 0 -0.80901698891910034 0.20225424722977509 0 0.14694631495045057 1 I I -0.70710678118654746 0.70710678118654746 0.25 forward I I I I #
loop $-1 $-1 $208 $55 #
coedge $-1 $130 $130 $209 $210 reversed $82 $-1 #
face $-1 $-1 $211 $44 $-1 $212 forward single #
loop $-1 $213 $214 $84 #
cone-surface $-1 -61.27631041840452 -0.64961877570685189 8.4514630997410656 0.5877852598018023 0 -0.80901698891910034 0.20225424722977509 0 0.14694631495045057 1 I I -0.70710678118654746 0.70710678118654746 0.25 forward I I I I #
loop $-1 $-1 $215 $56 #
coedge $-1 $135 $135 $216 $217 reversed $85 $-1 #
face $-1 $218 $219 $45 $-1 $220 reversed single #
loop $-1 $-1 $221 $87 #
plane-surface $-1 -64.549089022492112 8.3172454222166792 7.635691662172448 -0.5877852598018023 0 0.80901698891910034 0.80901698891910034 0 0.5877852598018023 forward_v I I I I #
coedge $-1 $222 $223 $224 $225 reversed $88 $-1 #
face $-1 $-1 $226 $46 $-1 $227 forward single #
loop $-1 $228 $229 $90 #
cone-surface $-1 -61.27631041840452 6.9641348375384737 8.4514630997410656 0.5877852598018023 0 -0.80901698891910034 0.20225424722977509 0 0.14694631495045057 1 I I -0.70710678118654746 0.70710678118654746 0.25 forward I I I I #
loop $-1 $-1 $230 $58 #
coedge $-1 $144 $144 $231 $232 reversed $91 $-1 #
face $-1 $-1 $233 $47 $-1 $234 forward single #
loop $-1 $235 $236 $93 #
cone-surface $-1 -61.27631041840452 9.6703560068948846 8.4514630997410656 0.5877852598018023 0 -0.80901698891910034 0.20225424722977509 0 0.14694631495045057 1 I I -0.70710678118654746 0.70710678118654746 0.25 forward I I I I #
loop $-1 $-1 $237 $59 #
coedge $-1 $149 $149 $238 $239 reversed $94 $-1 #
face $-1 $240 $241 $36 $-1 $242 reversed single #
loop $-1 $-1 $243 $96 #
plane-surface $-1 0 -25.881688781524353 0 0 1 0 0 0 1 forward_v I I I I #
coedge $-1 $244 $245 $246 $247 forward $97 $-1 #
coedge $-1 $248 $99 $249 $250 forward $61 $-1 #
coedge $-1 $99 $248 $251 $252 forward $61 $-1 #
coedge $-1 $253 $254 $99 $157 reversed $255 $-1 #
edge $-1 $256 -25.881688781524353 $257 25.881688781524353 $156 $258 forward 7 unknown #
face $-1 $259 $260 $37 $-1 $261 forward single #
loop $-1 $-1 $262 $100 #
plane-surface $-1 64.54908902249214 0 0 -1 0 0 0 0 1 forward_v I I I I #
coedge $-1 $263 $264 $265 $266 forward $101 $-1 #
coedge $-1 $265 $103 $262 $267 reversed $64 $-1 #
coedge $-1 $103 $265 $268 $269 reversed $64 $-1 #
coedge $-1 $270 $271 $103 $165 reversed $260 $-1 #
edge $-1 $272 -64.54908902249214 $273 64.54908902249214 $164 $274 forward 7 unknown #
face $-1 $275 $276 $38 $-1 $277 reversed single #
loop $-1 $-1 $278 $104 #
plane-surface $-1 0 31.08255208533523 -4.6153762509862748 0 0 1 1 0 0 forward_v I I I I #
coedge $-1 $279 $280 $170 $281 forward $105 $-1 #
coedge $-1 $282 $107 $169 $281 reversed $67 $-1 #
coedge $-1 $107 $282 $283 $284 reversed $67 $-1 #
coedge $-1 $278 $285 $107 $173 reversed $167 $-1 #
edge $-1 $286 -64.54908902249214 $287 64.54908902249214 $172 $288 forward 7 unknown #
face $-1 $289 $290 $39 $-1 $291 reversed single #
loop $-1 $-1 $292 $108 #
plane-surface $-1 -140.43109514460252 -9.1654461120709811 112.07831093906753 0 -1 0 0.5877852598018023 0 -0.80901698891910034 forward_v I I I I #
coedge $-1 $293 $294 $295 $296 reversed $109 $-1 #
coedge $-1 $179 $111 $297 $298 reversed $70 $-1 #
coedge $-1 $111 $178 $293 $299 reversed $70 $-1 #
coedge $-1 $295 $300 $111 $181 forward $301 $-1 #
edge $-1 $302 5.6664585498091213 $303 10.726426049790916 $180 $304 forward 7 unknown #
loop $-1 $-1 $187 $112 #
plane-surface $-1 -64.549089022492112 -12.32270414298679 7.635691662172448 -0.5877852598018023 0 0.80901698891910034 0.80901698891910034 0 0.5877852598018023 forward_v I I I I #
loop $-1 $-1 $305 $72 #
coedge $-1 $185 $185 $186 $306 reversed $113 $-1 #
coedge $-1 $186 $186 $185 $306 forward $115 $-1 #
coedge $-1 $187 $187 $116 $188 forward $182 $-1 #
edge $-1 $307 0 $307 6.2831853071796004 $187 $308 forward 7 unknown #
loop $-1 $-1 $194 $117 #
plane-surface $-1 -64.549089022492112 -12.32270414298679 7.635691662172448 -0.5877852598018023 0 0.80901698891910034 0.80901698891910034 0 0.5877852598018023 forward_v I I I I #
loop $-1 $-1 $309 $75 #
coedge $-1 $192 $192 $193 $310 reversed $118 $-1 #
coedge $-1 $193 $193 $192 $310 forward $120 $-1 #
coedge $-1 $194 $194 $121 $195 forward $189 $-1 #
edge $-1 $311 0 $311 6.2831853071796004 $194 $312 forward 7 unknown #
face $-1 $313 $314 $42 $-1 $315 forward single #
loop $-1 $-1 $316 $122 #
plane-surface $-1 -140.43109514460252 1.1545286705307509 112.07831093906753 0 -1 0 0.5877852598018023 0 -0.80901698891910034 forward_v I I I I #
coedge $-1 $317 $318 $319 $320 reversed $123 $-1 #
coedge $-1 $201 $125 $321 $322 reversed $79 $-1 #
coedge $-1 $125 $200 $317 $323 reversed $79 $-1 #
coedge $-1 $319 $324 $125 $203 forward $314 $-1 #
edge $-1 $325 5.6664585498091213 $326 10.726426049790916 $202 $327 forward 7 unknown #
loop $-1 $-1 $209 $126 #
plane-surface $-1 -64.549089022492112 -2.0027293603850573 7.635691662172448 -0.5877852598018023 0 0.80901698891910034 0.80901698891910034 0 0.5877852598018023 forward_v I I I I #
loop $-1 $-1 $328 $81 #
coedge $-1 $207 $207 $208 $329 reversed $127 $-1 #
coedge $-1 $208 $208 $207 $329 forward $129 $-1 #
coedge $-1 $209 $209 $130 $210 forward $204 $-1 #
edge $-1 $330 0 $330 6.2831853071796004 $209 $331 forward 7 unknown #
loop $-1 $-1 $216 $131 #
plane-surface $-1 -64.549089022492112 -2.0027293603850573 7.635691662172448 -0.5877852598018023 0 0.80901698891910034 0.80901698891910034 0 0.5877852598018023 forward_v I I I I #
loop $-1 $-1 $332 $84 #
coedge $-1 $214 $214 $215 $333 reversed $132 $-1 #
coedge $-1 $215 $215 $214 $333 forward $134 $-1 #
coedge $-1 $216 $216 $135 $217 forward $211 $-1 #
edge $-1 $334 0 $334 6.2831853071796004 $216 $335 forward 7 unknown #
face $-1 $336 $337 $45 $-1 $338 forward single #
loop $-1 $-1 $339 $136 #
plane-surface $-1 -140.43109514460252 11.474503453132488 112.07831093906753 0 -1 0 0.5877852598018023 0 -0.80901698891910034 forward_v I I I I #
coedge $-1 $340 $341 $342 $343 reversed $137 $-1 #
coedge $-1 $223 $139 $344 $345 reversed $88 $-1 #
coedge $-1 $139 $222 $340 $346 reversed $88 $-1 #
coedge $-1 $342 $347 $139 $225 forward $337 $-1 #
edge $-1 $348 5.6664585498091213 $349 10.726426049790916 $224 $350 forward 7 unknown #
loop $-1 $-1 $231 $140 #
plane-surface $-1 -64.549089022492112 8.3172454222166792 7.635691662172448 -0.5877852598018023 0 0.80901698891910034 0.80901698891910034 0 0.5877852598018023 forward_v I I I I #
loop $-1 $-1 $351 $90 #
coedge $-1 $229 $229 $230 $352 reversed $141 $-1 #
coedge $-1 $230 $230 $229 $352 forward $143 $-1 #
coedge $-1 $231 $231 $144 $232 forward $226 $-1 #
edge $-1 $353 0 $353 6.2831853071796004 $231 $354 forward 7 unknown #
loop $-1 $-1 $238 $145 #
plane-surface $-1 -64.549089022492112 8.3172454222166792 7.635691662172448 -0.5877852598018023 0 0.80901698891910034 0.80901698891910034 0 0.5877852598018023 forward_v I I I I #
loop $-1 $-1 $355 $93 #
coedge $-1 $236 $236 $237 $356 reversed $146 $-1 #
coedge $-1 $237 $237 $236 $356 forward $148 $-1 #
coedge $-1 $238 $238 $149 $239 forward $233 $-1 #
edge $-1 $357 0 $357 6.2831853071796004 $238 $358 forward 7 unknown #
face $-1 $359 $360 $36 $-1 $361 reversed single #
loop $-1 $-1 $362 $150 #
plane-surface $-1 -64.54908902249214 0 0 1 0 0 0 0 -1 forward_v I I I I #
coedge $-1 $363 $251 $364 $365 forward $151 $-1 #
coedge $-1 $366 $153 $363 $367 forward $97 $-1 #
coedge $-1 $153 $366 $368 $369 forward $97 $-1 #
coedge $-1 $254 $253 $153 $247 reversed $255 $-1 #
edge $-1 $370 -25.881688781524353 $371 25.881688781524353 $246 $372 forward 7 unknown #
coedge $-1 $155 $154 $373 $374 forward $61 $-1 #
coedge $-1 $375 $376 $154 $250 reversed $360 $-1 #
edge $-1 $257 -64.54908902249214 $377 64.54908902249214 $249 $378 forward 7 unknown #
coedge $-1 $243 $379 $155 $252 reversed $151 $-1 #
edge $-1 $380 -64.54908902249214 $256 64.54908902249214 $251 $381 forward 7 unknown #
coedge $-1 $246 $156 $379 $382 forward $255 $-1 #
coedge $-1 $156 $246 $375 $383 reversed $255 $-1 #
loop $-1 $-1 $253 $359 #
vertex $-1 $157 $384 #
vertex $-1 $157 $385 #
straight-curve $-1 64.54908902249214 0 11.311973312993093 0 1 0 I I #
face $-1 $386 $387 $37 $-1 $388 reversed single #
loop $-1 $-1 $271 $158 #
plane-surface $-1 0 -31.08255208533523 -4.6153762509862748 0 0 1 1 0 0 forward_v I I I I #
coedge $-1 $389 $390 $162 $267 forward $159 $-1 #
coedge $-1 $391 $161 $390 $392 forward $101 $-1 #
coedge $-1 $161 $391 $393 $394 forward $101 $-1 #
coedge $-1 $163 $162 $161 $266 reversed $64 $-1 #
edge $-1 $395 -64.54908902249214 $396 64.54908902249214 $161 $397 forward 7 unknown #
edge $-1 $396 -11.311973312993093 $273 -4.6153762509862748 $262 $398 forward 7 unknown #
coedge $-1 $393 $399 $163 $269 forward $400 $-1 #
edge $-1 $272 4.6153762509862748 $395 11.311973312993093 $268 $401 forward 7 unknown #
coedge $-1 $402 $164 $399 $403 forward $260 $-1 #
coedge $-1 $164 $402 $389 $404 forward $260 $-1 #
vertex $-1 $269 $405 #
vertex $-1 $404 $406 #
straight-curve $-1 0 -25.881688781524353 -4.6153762509862748 1 0 0 I I #
face $-1 $407 $408 $38 $-1 $409 reversed single #
loop $-1 $-1 $410 $166 #
plane-surface $-1 0 36.283415389146107 -7.9636747819896838 0 -1 0 0 0 -1 forward_v I I I I #
coedge $-1 $411 $172 $412 $413 forward $167 $-1 #
coedge $-1 $414 $169 $285 $415 reversed $105 $-1 #
coedge $-1 $169 $414 $416 $417 reversed $105 $-1 #
edge $-1 $418 -11.311973312993093 $287 -4.6153762509862748 $169 $419 forward 7 unknown #
coedge $-1 $171 $170 $420 $421 reversed $67 $-1 #
coedge $-1 $422 $412 $171 $284 forward $423 $-1 #
edge $-1 $286 4.6153762509862748 $424 11.311973312993093 $283 $425 forward 7 unknown #
coedge $-1 $172 $411 $279 $415 forward $167 $-1 #
vertex $-1 $284 $426 #
vertex $-1 $415 $427 #
straight-curve $-1 0 25.881688781524353 -4.6153762509862748 -1 0 0 I I #
face $-1 $-1 $301 $39 $-1 $428 forward single #
loop $-1 $-1 $429 $174 #
plane-surface $-1 -64.54908902249214 0 0 1 0 0 0 0 -1 forward_v I I I I #
coedge $-1 $430 $431 $432 $433 reversed $175 $-1 #
coedge $-1 $434 $177 $179 $299 forward $109 $-1 #
coedge $-1 $177 $434 $430 $435 forward $109 $-1 #
coedge $-1 $432 $180 $177 $296 forward $301 $-1 #
edge $-1 $303 -9.3186101024092043 $436 -3.004094040577586 $295 $437 forward 7 unknown #
coedge $-1 $438 $439 $178 $298 forward $290 $-1 #
edge $-1 $440 -48.403463807361341 $302 -44.727182156540678 $297 $441 forward 7 unknown #
edge $-1 $303 -6.2544638360959679 $440 3.5000983996316274e-014 $179 $442 forward 7 unknown #
coedge $-1 $180 $432 $438 $443 forward $301 $-1 #
loop $-1 $-1 $432 $289 #
vertex $-1 $298 $444 #
vertex $-1 $181 $445 #
straight-curve $-1 -70.215547572301261 -15.479962173902599 11.311973312993096 1 0 0 I I #
coedge $-1 $305 $305 $-1 $446 reversed $184 $-1 #
edge $-1 $447 0 $447 6.2831853071796004 $185 $448 forward 7 unknown #
vertex $-1 $188 $449 #
ellipse-curve $-1 -62.01910527250125 -13.675814727664992 9.4738324875827544 -0.5877852598018023 0 0.80901698891910034 0.40450849445955017 0 0.29389262990090115 1 I I #
coedge $-1 $309 $309 $-1 $450 reversed $191 $-1 #
edge $-1 $451 0 $451 6.2831853071796004 $192 $452 forward 7 unknown #
vertex $-1 $195 $453 #
ellipse-curve $-1 -62.01910527250125 -10.969593558308585 9.4738324875827544 -0.5877852598018023 0 0.80901698891910034 0.40450849445955017 0 0.29389262990090115 1 I I #
face $-1 $-1 $454 $42 $-1 $455 reversed single #
loop $-1 $-1 $202 $196 #
plane-surface $-1 0 0 11.311973312993093 0 0 1 1 0 0 forward_v I I I I #
coedge $-1 $456 $457 $458 $459 reversed $197 $-1 #
coedge $-1 $460 $199 $201 $323 forward $123 $-1 #
coedge $-1 $199 $460 $456 $461 forward $123 $-1 #
coedge $-1 $458 $202 $199 $320 forward $314 $-1 #
edge $-1 $326 -4.1586227111083369 $462 2.1558933507232796 $319 $463 forward 7 unknown #
coedge $-1 $464 $465 $200 $322 forward $454 $-1 #
edge $-1 $466 -48.403463807361341 $325 -44.727182156540678 $321 $467 forward 7 unknown #
edge $-1 $326 -6.2544638360959679 $466 3.5000983996316274e-014 $201 $468 forward 7 unknown #
coedge $-1 $202 $458 $464 $469 forward $314 $-1 #
vertex $-1 $203 $470 #
vertex $-1 $203 $471 #
straight-curve $-1 -70.215547572301261 -5.1599873913008656 11.311973312993096 1 0 0 I I #
coedge $-1 $328 $328 $-1 $472 reversed $206 $-1 #
edge $-1 $473 0 $473 6.2831853071796004 $207 $474 forward 7 unknown #
vertex $-1 $210 $475 #
ellipse-curve $-1 -62.01910527250125 -3.3558399450632592 9.4738324875827544 -0.5877852598018023 0 0.80901698891910034 0.40450849445955017 0 0.29389262990090115 1 I I #
coedge $-1 $332 $332 $-1 $476 reversed $213 $-1 #
edge $-1 $477 0 $477 6.2831853071796004 $214 $478 forward 7 unknown #
vertex $-1 $217 $479 #
ellipse-curve $-1 -62.01910527250125 -0.64961877570685189 9.4738324875827544 -0.5877852598018023 0 0.80901698891910034 0.40450849445955017 0 0.29389262990090115 1 I I #
face $-1 $-1 $480 $45 $-1 $481 reversed single #
loop $-1 $-1 $224 $218 #
plane-surface $-1 0 0 11.311973312993093 0 0 1 1 0 0 forward_v I I I I #
coedge $-1 $482 $483 $484 $485 reversed $219 $-1 #
coedge $-1 $486 $221 $223 $346 forward $137 $-1 #
coedge $-1 $221 $486 $482 $487 forward $137 $-1 #
coedge $-1 $484 $224 $221 $343 forward $337 $-1 #
edge $-1 $349 1.0013646801925313 $488 7.3158807420241487 $342 $489 forward 7 unknown #
coedge $-1 $490 $491 $222 $345 forward $480 $-1 #
edge $-1 $492 -48.403463807361341 $348 -44.727182156540678 $344 $493 forward 7 unknown #
edge $-1 $349 -6.2544638360959679 $492 3.5000983996316274e-014 $223 $494 forward 7 unknown #
coedge $-1 $224 $484 $490 $495 forward $337 $-1 #
vertex $-1 $225 $496 #
vertex $-1 $225 $497 #
straight-curve $-1 -70.215547572301261 5.1599873913008709 11.311973312993096 1 0 0 I I #
coedge $-1 $351 $351 $-1 $498 reversed $228 $-1 #
edge $-1 $499 0 $499 6.2831853071796004 $229 $500 forward 7 unknown #
vertex $-1 $232 $501 #
ellipse-curve $-1 -62.01910527250125 6.9641348375384737 9.4738324875827544 -0.5877852598018023 0 0.80901698891910034 0.40450849445955017 0 0.29389262990090115 1 I I #
coedge $-1 $355 $355 $-1 $502 reversed $235 $-1 #
edge $-1 $503 0 $503 6.2831853071796004 $236 $504 forward 7 unknown #
vertex $-1 $239 $505 #
ellipse-curve $-1 -62.01910527250125 9.6703560068948846 9.4738324875827544 -0.5877852598018023 0 0.80901698891910034 0.40450849445955017 0 0.29389262990090115 1 I I #
face $-1 $-1 $255 $36 $-1 $506 reversed single #
loop $-1 $-1 $375 $240 #
plane-surface $-1 0 25.881688781524353 0 0 -1 0 0 0 -1 forward_v I I I I #
coedge $-1 $507 $373 $376 $508 forward $241 $-1 #
coedge $-1 $379 $243 $244 $367 reversed $151 $-1 #
coedge $-1 $373 $507 $243 $365 reversed $241 $-1 #
edge $-1 $380 -11.311973312993093 $509 11.311973312993093 $364 $510 forward 7 unknown #
coedge $-1 $245 $244 $507 $511 forward $97 $-1 #
edge $-1 $371 -64.54908902249214 $509 64.54908902249214 $363 $512 forward 7 unknown #
coedge $-1 $376 $375 $245 $369 reversed $360 $-1 #
edge $-1 $513 -64.54908902249214 $370 64.54908902249214 $368 $514 forward 7 unknown #
vertex $-1 $247 $515 #
vertex $-1 $382 $516 #
straight-curve $-1 64.54908902249214 0 -11.311973312993093 0 -1 0 I I #
coedge $-1 $362 $364 $248 $374 reversed $241 $-1 #
edge $-1 $377 -25.881688781524353 $380 25.881688781524353 $373 $517 forward 7 unknown #
coedge $-1 $368 $249 $254 $383 forward $360 $-1 #
coedge $-1 $249 $368 $362 $508 reversed $360 $-1 #
vertex $-1 $250 $518 #
straight-curve $-1 0 25.881688781524353 11.311973312993093 -1 0 0 I I #
coedge $-1 $251 $363 $253 $382 reversed $151 $-1 #
vertex $-1 $374 $519 #
straight-curve $-1 0 -25.881688781524353 11.311973312993093 1 0 0 I I #
edge $-1 $256 -11.311973312993093 $371 11.311973312993093 $253 $520 forward 7 unknown #
edge $-1 $257 -11.311973312993093 $370 11.311973312993093 $254 $521 forward 7 unknown #
point $-1 64.54908902249214 -25.881688781524353 11.311973312993093 #
point $-1 64.54908902249214 25.881688781524353 11.311973312993093 #
face $-1 $-1 $400 $37 $-1 $522 reversed single #
loop $-1 $-1 $523 $259 #
plane-surface $-1 0 -36.283415389146107 -7.9636747819896838 0 1 0 0 0 1 forward_v I I I I #
coedge $-1 $524 $262 $271 $404 reversed $159 $-1 #
coedge $-1 $262 $524 $263 $392 reversed $159 $-1 #
coedge $-1 $264 $263 $525 $526 forward $101 $-1 #
edge $-1 $396 25.881688781524353 $527 36.283415389146107 $390 $528 forward 7 unknown #
coedge $-1 $529 $268 $264 $394 reversed $400 $-1 #
edge $-1 $530 -36.283415389146107 $395 -25.881688781524353 $393 $531 forward 7 unknown #
vertex $-1 $269 $532 #
vertex $-1 $392 $533 #
straight-curve $-1 0 -25.881688781524353 -11.311973312993093 1 0 0 I I #
straight-curve $-1 64.54908902249214 -25.881688781524353 0 0 0 1 I I #
coedge $-1 $268 $529 $270 $403 reversed $400 $-1 #
loop $-1 $-1 $268 $386 #
straight-curve $-1 -64.54908902249214 -25.881688781524353 0 0 0 -1 I I #
coedge $-1 $271 $270 $534 $535 forward $260 $-1 #
edge $-1 $272 -5.2008633038108769 $536 5.2008633038108769 $399 $537 forward 7 unknown #
edge $-1 $538 -5.2008633038108769 $273 5.2008633038108769 $389 $539 forward 7 unknown #
point $-1 -64.54908902249214 -25.881688781524353 -4.6153762509862748 #
point $-1 64.54908902249214 -25.881688781524353 -4.6153762509862748 #
face $-1 $-1 $423 $38 $-1 $540 reversed single #
loop $-1 $-1 $420 $275 #
plane-surface $-1 0 0 -11.311973312993093 0 0 1 1 0 0 forward_v I I I I #
coedge $-1 $541 $542 $543 $544 forward $276 $-1 #
coedge $-1 $285 $278 $542 $545 forward $167 $-1 #
coedge $-1 $283 $543 $278 $413 reversed $423 $-1 #
edge $-1 $286 -5.2008633038108769 $546 5.2008633038108769 $412 $547 forward 7 unknown #
coedge $-1 $280 $279 $548 $549 forward $105 $-1 #
edge $-1 $550 -5.2008633038108769 $287 5.2008633038108769 $279 $551 forward 7 unknown #
coedge $-1 $552 $420 $280 $417 forward $408 $-1 #
edge $-1 $418 -5.2008633038108769 $553 5.2008633038108769 $280 $554 forward 7 unknown #
vertex $-1 $417 $555 #
straight-curve $-1 -64.54908902249214 25.881688781524353 0 0 0 1 I I #
coedge $-1 $416 $556 $282 $421 forward $408 $-1 #
edge $-1 $424 -64.54908902249214 $418 64.54908902249214 $420 $557 forward 7 unknown #
coedge $-1 $543 $283 $556 $558 reversed $423 $-1 #
loop $-1 $-1 $283 $407 #
vertex $-1 $284 $559 #
straight-curve $-1 64.54908902249214 25.881688781524353 0 0 0 -1 I I #
point $-1 64.54908902249214 25.881688781524353 -4.6153762509862748 #
point $-1 -64.54908902249214 25.881688781524353 -4.6153762509862748 #
plane-surface $-1 0 0 11.311973312993093 0 0 1 1 0 0 forward_v I I I I #
coedge $-1 $439 $438 $431 $560 forward $290 $-1 #
coedge $-1 $431 $292 $294 $435 reversed $175 $-1 #
coedge $-1 $292 $430 $429 $560 reversed $175 $-1 #
coedge $-1 $300 $295 $292 $433 forward $301 $-1 #
edge $-1 $436 -10.726426049790916 $561 -5.6664585498091213 $432 $562 forward 7 unknown #
coedge $-1 $294 $293 $439 $563 reversed $109 $-1 #
edge $-1 $564 -3.5000983996316274e-014 $436 6.2544638360959679 $430 $565 forward 7 unknown #
vertex $-1 $296 $566 #
straight-curve $-1 -59.489121522510345 -6.1613520714933951 11.311973312993093 0 1 0 I I #
coedge $-1 $429 $297 $300 $443 reversed $290 $-1 #
coedge $-1 $297 $429 $434 $563 forward $290 $-1 #
vertex $-1 $298 $567 #
straight-curve $-1 -64.54908902249214 -15.479962173902599 56.039155469533767 0 0 1 I I #
straight-curve $-1 -64.549089022492112 -15.479962173902599 7.635691662172448 -0.80901698891910034 0 -0.5877852598018023 I I #
edge $-1 $561 9.1654461120709811 $302 15.479962173902599 $438 $568 forward 7 unknown #
point $-1 -64.54908902249214 -15.479962173902599 11.311973312993093 #
point $-1 -59.489121522510345 -15.479962173902599 11.311973312993093 #
edge $-1 $569 1 $569 0 $305 $-1 forward 7 unknown #
vertex $-1 $306 $570 #
ellipse-curve $-1 -61.423256733354968 -13.675814727664992 8.6537173469708399 -0.5877852598018023 0 0.80901698891910034 0.40450849445955017 0 0.29389262990090115 1 I I #
point $-1 -61.614596778041715 -13.675814727664992 9.7677251174836766 #
edge $-1 $571 1 $571 0 $309 $-1 forward 7 unknown #
vertex $-1 $310 $572 #
ellipse-curve $-1 -61.423256733354968 -10.969593558308585 8.6537173469708399 -0.5877852598018023 0 0.80901698891910034 0.40450849445955017 0 0.29389262990090115 1 I I #
point $-1 -61.614596778041715 -10.969593558308585 9.7677251174836766 #
loop $-1 $-1 $321 $313 #
plane-surface $-1 -64.54908902249214 0 0 1 0 0 0 0 -1 forward_v I I I I #
coedge $-1 $457 $316 $318 $461 reversed $197 $-1 #
coedge $-1 $316 $456 $573 $574 reversed $197 $-1 #
coedge $-1 $324 $319 $316 $459 forward $314 $-1 #
edge $-1 $462 -10.726426049790916 $575 -5.6664585498091213 $458 $576 forward 7 unknown #
coedge $-1 $318 $317 $465 $577 reversed $123 $-1 #
edge $-1 $578 -3.5000983996316274e-014 $462 6.2544638360959679 $456 $579 forward 7 unknown #
vertex $-1 $320 $580 #
straight-curve $-1 -59.489121522510345 -1.0013646801925287 11.311973312993093 0 1 0 I I #
coedge $-1 $573 $321 $324 $469 reversed $454 $-1 #
coedge $-1 $321 $573 $460 $577 forward $454 $-1 #
vertex $-1 $322 $581 #
straight-curve $-1 -64.54908902249214 -5.1599873913008656 56.039155469533767 0 0 1 I I #
straight-curve $-1 -64.549089022492112 -5.1599873913008656 7.635691662172448 -0.80901698891910034 0 -0.5877852598018023 I I #
edge $-1 $575 -1.1545286705307509 $325 5.1599873913008656 $464 $582 forward 7 unknown #
point $-1 -64.54908902249214 -5.1599873913008656 11.311973312993093 #
point $-1 -59.489121522510345 -5.1599873913008656 11.311973312993093 #
edge $-1 $583 1 $583 0 $328 $-1 forward 7 unknown #
vertex $-1 $329 $584 #
ellipse-curve $-1 -61.423256733354968 -3.3558399450632592 8.6537173469708399 -0.5877852598018023 0 0.80901698891910034 0.40450849445955017 0 0.29389262990090115 1 I I #
point $-1 -61.614596778041715 -3.3558399450632592 9.7677251174836766 #
edge $-1 $585 1 $585 0 $332 $-1 forward 7 unknown #
vertex $-1 $333 $586 #
ellipse-curve $-1 -61.423256733354968 -0.64961877570685189 8.6537173469708399 -0.5877852598018023 0 0.80901698891910034 0.40450849445955017 0 0.29389262990090115 1 I I #
point $-1 -61.614596778041715 -0.64961877570685189 9.7677251174836766 #
loop $-1 $-1 $344 $336 #
plane-surface $-1 -64.54908902249214 0 0 1 0 0 0 0 -1 forward_v I I I I #
coedge $-1 $483 $339 $341 $487 reversed $219 $-1 #
coedge $-1 $339 $482 $587 $588 reversed $219 $-1 #
coedge $-1 $347 $342 $339 $485 forward $337 $-1 #
edge $-1 $488 -10.726426049790916 $589 -5.6664585498091213 $484 $590 forward 7 unknown #
coedge $-1 $341 $340 $491 $591 reversed $137 $-1 #
edge $-1 $592 -3.5000983996316274e-014 $488 6.2544638360959679 $482 $593 forward 7 unknown #
vertex $-1 $343 $594 #
straight-curve $-1 -59.489121522510345 4.1586227111083396 11.311973312993093 0 1 0 I I #
coedge $-1 $587 $344 $347 $495 reversed $480 $-1 #
coedge $-1 $344 $587 $486 $591 forward $480 $-1 #
vertex $-1 $345 $595 #
straight-curve $-1 -64.54908902249214 5.1599873913008709 56.039155469533767 0 0 1 I I #
straight-curve $-1 -64.549089022492112 5.1599873913008709 7.635691662172448 -0.80901698891910034 0 -0.5877852598018023 I I #
edge $-1 $589 -11.474503453132488 $348 -5.1599873913008709 $490 $596 forward 7 unknown #
point $-1 -64.54908902249214 5.1599873913008709 11.311973312993093 #
point $-1 -59.489121522510345 5.1599873913008709 11.311973312993093 #
edge $-1 $597 1 $597 0 $351 $-1 forward 7 unknown #
vertex $-1 $352 $598 #
ellipse-curve $-1 -61.423256733354968 6.9641348375384737 8.6537173469708399 -0.5877852598018023 0 0.80901698891910034 0.40450849445955017 0 0.29389262990090115 1 I I #
point $-1 -61.614596778041715 6.9641348375384737 9.7677251174836766 #
edge $-1 $599 1 $599 0 $355 $-1 forward 7 unknown #
vertex $-1 $356 $600 #
ellipse-curve $-1 -61.423256733354968 9.6703560068948846 8.6537173469708399 -0.5877852598018023 0 0.80901698891910034 0.40450849445955017 0 0.29389262990090115 1 I I #
point $-1 -61.614596778041715 9.6703560068948846 9.7677251174836766 #
plane-surface $-1 64.54908902249214 0 0 -1 0 0 0 0 1 forward_v I I I I #
coedge $-1 $364 $362 $366 $511 reversed $241 $-1 #
edge $-1 $377 -11.311973312993093 $513 11.311973312993093 $376 $601 forward 7 unknown #
vertex $-1 $511 $602 #
straight-curve $-1 -64.54908902249214 -25.881688781524353 0 0 0 -1 I I #
edge $-1 $509 -25.881688781524353 $513 25.881688781524353 $507 $603 forward 7 unknown #
straight-curve $-1 0 -25.881688781524353 -11.311973312993093 -1 0 0 I I #
vertex $-1 $369 $604 #
straight-curve $-1 0 25.881688781524353 -11.311973312993093 1 0 0 I I #
point $-1 64.54908902249214 25.881688781524353 -11.311973312993093 #
point $-1 64.54908902249214 -25.881688781524353 -11.311973312993093 #
straight-curve $-1 -64.54908902249214 0 11.311973312993093 0 -1 0 I I #
point $-1 -64.54908902249214 25.881688781524353 11.311973312993093 #
point $-1 -64.54908902249214 -25.881688781524353 11.311973312993093 #
straight-curve $-1 64.54908902249214 -25.881688781524353 0 0 0 -1 I I #
straight-curve $-1 64.54908902249214 25.881688781524353 0 0 0 -1 I I #
plane-surface $-1 -64.54908902249214 0 0 1 0 0 0 0 -1 forward_v I I I I #
coedge $-1 $525 $534 $529 $605 forward $387 $-1 #
coedge $-1 $390 $389 $606 $607 forward $159 $-1 #
coedge $-1 $606 $523 $391 $526 reversed $387 $-1 #
edge $-1 $527 -64.54908902249214 $530 64.54908902249214 $525 $608 forward 7 unknown #
vertex $-1 $607 $609 #
straight-curve $-1 64.54908902249214 0 -11.311973312993093 0 -1 0 I I #
coedge $-1 $399 $393 $523 $605 reversed $400 $-1 #
vertex $-1 $394 $610 #
straight-curve $-1 -64.54908902249214 0 -11.311973312993093 0 1 0 I I #
point $-1 -64.54908902249214 -25.881688781524353 -11.311973312993093 #
point $-1 64.54908902249214 -25.881688781524353 -11.311973312993093 #
coedge $-1 $523 $606 $402 $535 reversed $387 $-1 #
edge $-1 $536 -64.54908902249214 $538 64.54908902249214 $534 $611 forward 7 unknown #
vertex $-1 $403 $612 #
straight-curve $-1 -64.54908902249214 -31.08255208533523 -4.6153762509862748 0 -1 0 I I #
vertex $-1 $404 $613 #
straight-curve $-1 64.54908902249214 -31.08255208533523 -4.6153762509862748 0 1 0 I I #
plane-surface $-1 64.54908902249214 0 0 -1 0 0 0 0 1 forward_v I I I I #
coedge $-1 $548 $410 $552 $614 reversed $276 $-1 #
coedge $-1 $410 $548 $411 $545 reversed $276 $-1 #
coedge $-1 $412 $422 $410 $544 reversed $423 $-1 #
edge $-1 $546 -3.348298531003409 $615 3.348298531003409 $543 $616 forward 7 unknown #
edge $-1 $546 -64.54908902249214 $550 64.54908902249214 $542 $617 forward 7 unknown #
vertex $-1 $413 $618 #
straight-curve $-1 64.54908902249214 31.08255208533523 -4.6153762509862748 0 1 0 I I #
coedge $-1 $542 $541 $414 $549 reversed $276 $-1 #
edge $-1 $550 -3.348298531003409 $553 3.348298531003409 $548 $619 forward 7 unknown #
vertex $-1 $545 $620 #
straight-curve $-1 -64.54908902249214 31.08255208533523 -4.6153762509862748 0 -1 0 I I #
coedge $-1 $556 $416 $541 $614 forward $408 $-1 #
vertex $-1 $614 $621 #
straight-curve $-1 -64.54908902249214 31.08255208533523 -11.311973312993093 0 1 0 I I #
point $-1 -64.54908902249214 25.881688781524353 -11.311973312993093 #
coedge $-1 $420 $552 $422 $558 forward $408 $-1 #
straight-curve $-1 0 25.881688781524353 -11.311973312993093 -1 0 0 I I #
edge $-1 $615 -36.283415389146107 $424 -25.881688781524353 $422 $622 forward 7 unknown #
point $-1 64.54908902249214 25.881688781524353 -11.311973312993093 #
edge $-1 $561 44.727182156540678 $564 48.403463807361341 $429 $623 forward 7 unknown #
vertex $-1 $443 $624 #
straight-curve $-1 -70.215547572301261 -9.1654461120709811 11.311973312993096 -1 0 0 I I #
edge $-1 $564 3.004094040577586 $440 9.3186101024092043 $439 $625 forward 7 unknown #
vertex $-1 $563 $626 #
straight-curve $-1 -64.549089022492112 -9.1654461120709811 7.635691662172448 0.80901698891910034 0 0.5877852598018023 I I #
point $-1 -59.489121522510345 -9.1654461120709811 11.311973312993093 #
point $-1 -64.54908902249214 -15.479962173902599 7.6356916621724276 #
straight-curve $-1 -64.54908902249214 0 11.311973312993093 0 -1 0 I I #
vertex $-1 $446 $627 #
point $-1 -61.018748238895419 -13.675814727664992 8.9476099768717425 #
vertex $-1 $450 $628 #
point $-1 -61.018748238895419 -10.969593558308585 8.9476099768717425 #
coedge $-1 $465 $464 $457 $574 forward $454 $-1 #
edge $-1 $575 44.727182156540678 $578 48.403463807361341 $573 $629 forward 7 unknown #
vertex $-1 $469 $630 #
straight-curve $-1 -70.215547572301261 1.1545286705307509 11.311973312993096 -1 0 0 I I #
edge $-1 $578 -2.1558933507232796 $466 4.1586227111083369 $465 $631 forward 7 unknown #
vertex $-1 $577 $632 #
straight-curve $-1 -64.549089022492112 1.1545286705307509 7.635691662172448 0.80901698891910034 0 0.5877852598018023 I I #
point $-1 -59.489121522510345 1.1545286705307509 11.311973312993093 #
point $-1 -64.54908902249214 -5.1599873913008656 7.6356916621724276 #
straight-curve $-1 -64.54908902249214 0 11.311973312993093 0 -1 0 I I #
vertex $-1 $472 $633 #
point $-1 -61.018748238895419 -3.3558399450632592 8.9476099768717425 #
vertex $-1 $476 $634 #
point $-1 -61.018748238895419 -0.64961877570685189 8.9476099768717425 #
coedge $-1 $491 $490 $483 $588 forward $480 $-1 #
edge $-1 $589 44.727182156540678 $592 48.403463807361341 $587 $635 forward 7 unknown #
vertex $-1 $495 $636 #
straight-curve $-1 -70.215547572301261 11.474503453132488 11.311973312993096 -1 0 0 I I #
edge $-1 $592 -7.3158807420241487 $492 -1.0013646801925313 $491 $637 forward 7 unknown #
vertex $-1 $591 $638 #
straight-curve $-1 -64.549089022492112 11.474503453132488 7.635691662172448 0.80901698891910034 0 0.5877852598018023 I I #
point $-1 -59.489121522510345 11.474503453132488 11.311973312993093 #
point $-1 -64.54908902249214 5.1599873913008709 7.6356916621724276 #
straight-curve $-1 -64.54908902249214 0 11.311973312993093 0 -1 0 I I #
vertex $-1 $498 $639 #
point $-1 -61.018748238895419 6.9641348375384737 8.9476099768717425 #
vertex $-1 $502 $640 #
point $-1 -61.018748238895419 9.6703560068948846 8.9476099768717425 #
straight-curve $-1 -64.54908902249214 25.881688781524353 0 0 0 -1 I I #
point $-1 -64.54908902249214 -25.881688781524353 -11.311973312993093 #
straight-curve $-1 -64.54908902249214 0 -11.311973312993093 0 1 0 I I #
point $-1 -64.54908902249214 25.881688781524353 -11.311973312993093 #
edge $-1 $536 -3.348298531003409 $530 3.348298531003409 $529 $641 forward 7 unknown #
coedge $-1 $534 $525 $524 $607 reversed $387 $-1 #
edge $-1 $538 -3.348298531003409 $527 3.348298531003409 $524 $642 forward 7 unknown #
straight-curve $-1 0 -36.283415389146107 -11.311973312993093 -1 0 0 I I #
point $-1 64.54908902249214 -36.283415389146107 -11.311973312993093 #
point $-1 -64.54908902249214 -36.283415389146107 -11.311973312993093 #
straight-curve $-1 0 -36.283415389146107 -4.6153762509862748 1 0 0 I I #
point $-1 -64.54908902249214 -36.283415389146107 -4.6153762509862748 #
point $-1 64.54908902249214 -36.283415389146107 -4.6153762509862748 #
edge $-1 $553 -64.54908902249214 $615 64.54908902249214 $541 $643 forward 7 unknown #
vertex $-1 $558 $644 #
straight-curve $-1 64.54908902249214 36.283415389146107 -7.9636747819896838 0 0 -1 I I #
straight-curve $-1 0 36.283415389146107 -4.6153762509862748 -1 0 0 I I #
point $-1 64.54908902249214 36.283415389146107 -4.6153762509862748 #
straight-curve $-1 -64.54908902249214 36.283415389146107 -7.9636747819896838 0 0 -1 I I #
point $-1 -64.54908902249214 36.283415389146107 -4.6153762509862748 #
point $-1 -64.54908902249214 36.283415389146107 -11.311973312993093 #
straight-curve $-1 64.54908902249214 0 -11.311973312993093 0 -1 0 I I #
straight-curve $-1 -64.54908902249214 -9.1654461120709811 56.039155469533767 0 0 -1 I I #
point $-1 -64.54908902249214 -9.1654461120709811 11.311973312993093 #
straight-curve $-1 -64.54908902249214 -6.1613520714933951 7.6356916621724249 0 -1 0 I I #
point $-1 -64.54908902249214 -9.1654461120709811 7.6356916621724276 #
point $-1 -61.129364103454073 -13.675814727664992 8.2492088525112912 #
point $-1 -61.129364103454073 -10.969593558308585 8.2492088525112912 #
straight-curve $-1 -64.54908902249214 1.1545286705307509 56.039155469533767 0 0 -1 I I #
point $-1 -64.54908902249214 1.1545286705307509 11.311973312993093 #
straight-curve $-1 -64.54908902249214 -1.0013646801925287 7.6356916621724249 0 -1 0 I I #
point $-1 -64.54908902249214 1.1545286705307509 7.6356916621724276 #
point $-1 -61.129364103454073 -3.3558399450632592 8.2492088525112912 #
point $-1 -61.129364103454073 -0.64961877570685189 8.2492088525112912 #
straight-curve $-1 -64.54908902249214 11.474503453132488 56.039155469533767 0 0 -1 I I #
point $-1 -64.54908902249214 11.474503453132488 11.311973312993093 #
straight-curve $-1 -64.54908902249214 4.1586227111083396 7.6356916621724249 0 -1 0 I I #
point $-1 -64.54908902249214 11.474503453132488 7.6356916621724276 #
point $-1 -61.129364103454073 6.9641348375384737 8.2492088525112912 #
point $-1 -61.129364103454073 9.6703560068948846 8.2492088525112912 #
straight-curve $-1 -64.54908902249214 -36.283415389146107 -7.9636747819896838 0 0 -1 I I #
straight-curve $-1 64.54908902249214 -36.283415389146107 -7.9636747819896838 0 0 -1 I I #
straight-curve $-1 0 36.283415389146107 -11.311973312993093 1 0 0 I I #
point $-1 64.54908902249214 36.283415389146107 -11.311973312993093 #
End-of-ACIS-data 