500 0 14 0           
7 Unknown 11 ACIS 5.0 NT 24 Thu Mar 25 17:56:18 1999 
-1 9.9999999999999995e-007 1e-010 
body $-1 $14 $-1 $15 #
body $-1 $16 $-1 $17 #
body $-1 $18 $-1 $19 #
body $-1 $20 $-1 $21 #
body $-1 $22 $-1 $23 #
body $-1 $24 $-1 $25 #
body $-1 $26 $-1 $27 #
body $-1 $28 $-1 $29 #
body $-1 $30 $-1 $31 #
body $-1 $32 $-1 $33 #
body $-1 $34 $-1 $35 #
body $-1 $36 $-1 $37 #
body $-1 $38 $-1 $39 #
body $-1 $40 $-1 $41 #
lump $-1 $-1 $42 $0 #
transform $-1 1 0 0 0 1 0 0 0 1 77.126377147740101 37.427488724210804 11.652699719772373 1 rotate no_reflect no_shear #
lump $-1 $-1 $43 $1 #
transform $-1 1 0 0 0 1 0 0 0 1 77.126377147740101 37.427488724210804 11.652699719772373 1 rotate no_reflect no_shear #
lump $-1 $-1 $44 $2 #
transform $-1 1 0 0 0 1 0 0 0 1 77.126377147740101 37.427488724210804 11.652699719772373 1 rotate no_reflect no_shear #
lump $-1 $-1 $45 $3 #
transform $-1 1 0 0 0 1 0 0 0 1 77.126377147740101 37.427488724210804 11.652699719772373 1 rotate no_reflect no_shear #
lump $-1 $-1 $46 $4 #
transform $-1 1 0 0 0 1 0 0 0 1 77.126377147740101 37.427488724210804 11.652699719772373 1 rotate no_reflect no_shear #
lump $-1 $-1 $47 $5 #
transform $-1 1 0 0 0 1 0 0 0 1 77.126377147740101 37.427488724210804 11.652699719772373 1 rotate no_reflect no_shear #
lump $-1 $-1 $48 $6 #
transform $-1 1 0 0 0 1 0 0 0 1 77.126377147740101 37.427488724210804 11.652699719772373 1 rotate no_reflect no_shear #
lump $-1 $-1 $49 $7 #
transform $-1 1 0 0 0 1 0 0 0 1 77.126377147740101 37.427488724210804 11.652699719772373 1 rotate no_reflect no_shear #
lump $-1 $-1 $50 $8 #
transform $-1 1 0 0 0 1 0 0 0 1 77.126377147740101 37.427488724210804 11.652699719772373 1 rotate no_reflect no_shear #
lump $-1 $-1 $51 $9 #
transform $-1 1 0 0 0 1 0 0 0 1 77.126377147740101 37.427488724210804 11.652699719772373 1 rotate no_reflect no_shear #
lump $-1 $-1 $52 $10 #
transform $-1 1 0 0 0 1 0 0 0 1 77.126377147740101 37.427488724210804 11.652699719772373 1 rotate no_reflect no_shear #
lump $-1 $-1 $53 $11 #
transform $-1 1 0 0 0 1 0 0 0 1 77.126377147740101 37.427488724210804 11.652699719772373 1 rotate no_reflect no_shear #
lump $-1 $-1 $54 $12 #
transform $-1 1 0 0 0 1 0 0 0 1 77.126377147740101 37.427488724210804 11.652699719772373 1 rotate no_reflect no_shear #
lump $-1 $-1 $55 $13 #
transform $-1 1 0 0 0 1 0 0 0 1 77.126377147740101 37.427488724210804 11.652699719772373 1 rotate no_reflect no_shear #
shell $-1 $-1 $-1 $56 $-1 $14 #
shell $-1 $-1 $-1 $57 $-1 $16 #
shell $-1 $-1 $-1 $58 $-1 $18 #
shell $-1 $-1 $-1 $59 $-1 $20 #
shell $-1 $-1 $-1 $60 $-1 $22 #
shell $-1 $-1 $-1 $61 $-1 $24 #
shell $-1 $-1 $-1 $62 $-1 $26 #
shell $-1 $-1 $-1 $63 $-1 $28 #
shell $-1 $-1 $-1 $64 $-1 $30 #
shell $-1 $-1 $-1 $65 $-1 $32 #
shell $-1 $-1 $-1 $66 $-1 $34 #
shell $-1 $-1 $-1 $67 $-1 $36 #
shell $-1 $-1 $-1 $68 $-1 $38 #
shell $-1 $-1 $-1 $69 $-1 $40 #
face $-1 $70 $71 $42 $-1 $72 forward single #
face $-1 $73 $74 $43 $-1 $75 forward single #
face $-1 $76 $77 $44 $-1 $78 forward single #
face $-1 $79 $80 $45 $-1 $81 reversed single #
face $-1 $82 $83 $46 $-1 $84 forward single #
face $-1 $85 $86 $47 $-1 $87 forward single #
face $-1 $88 $89 $48 $-1 $90 reversed single #
face $-1 $91 $92 $49 $-1 $93 forward single #
face $-1 $94 $95 $50 $-1 $96 forward single #
face $-1 $97 $98 $51 $-1 $99 forward single #
face $-1 $100 $101 $52 $-1 $102 reversed single #
face $-1 $103 $104 $53 $-1 $105 forward single #
face $-1 $106 $107 $54 $-1 $108 forward single #
face $-1 $109 $110 $55 $-1 $111 forward single #
face $-1 $112 $113 $42 $-1 $114 reversed single #
loop $-1 $-1 $115 $56 #
plane-surface $-1 0 0 11.652699719772373 0 0 1 1 0 0 forward_v I I I I #
face $-1 $116 $117 $43 $-1 $118 reversed single #
loop $-1 $-1 $119 $57 #
plane-surface $-1 0 -32.251637392521069 -0.80484467331953802 0 0 1 1 0 0 forward_v I I I I #
face $-1 $120 $121 $44 $-1 $122 reversed single #
loop $-1 $-1 $123 $58 #
plane-surface $-1 0 32.251637392521076 -0.80484467331953802 0 0 1 1 0 0 forward_v I I I I #
face $-1 $124 $125 $45 $-1 $126 reversed single #
loop $-1 $-1 $127 $59 #
plane-surface $-1 -209.34679538161478 -10.962513023284906 81.596869384943034 0 -1 0 0.85716730853699208 0 -0.51503806187062418 forward_v I I I I #
face $-1 $128 $129 $46 $-1 $130 forward single #
loop $-1 $131 $132 $60 #
cone-surface $-1 -73.589880967663802 -15.686867803008486 6.49207002121054 0.85716730853699208 0 -0.51503806187062418 0.25751903093531209 0 0.42858365426849604 1 I I 0 1 0.5 forward I I I I #
face $-1 $133 $134 $47 $-1 $135 forward single #
loop $-1 $136 $137 $61 #
cone-surface $-1 -73.589880967663802 -12.852254935174336 6.49207002121054 0.85716730853699208 0 -0.51503806187062418 0.25751903093531209 0 0.42858365426849604 1 I I 0 1 0.5 forward I I I I #
face $-1 $138 $139 $48 $-1 $140 reversed single #
loop $-1 $-1 $141 $62 #
plane-surface $-1 115.00709410646849 -11.13852096989028 220.39267290091846 0 1 0 0.81915205242281985 0 0.57357642473473569 forward_v I I I I #
face $-1 $142 $143 $49 $-1 $144 forward single #
loop $-1 $145 $146 $63 #
cone-surface $-1 74.197524181989635 -8.9108167759122239 8.0492612036377054 -0.81915205242281985 0 -0.57357642473473569 0.28678821236736785 0 -0.40957602621140993 1 I I 0 1 0.5 forward I I I I #
face $-1 $147 $148 $50 $-1 $149 forward single #
loop $-1 $150 $151 $64 #
cone-surface $-1 74.197524181989635 -5.5692604849451399 8.0492612036377054 -0.81915205242281985 0 -0.57357642473473569 0.28678821236736785 0 -0.40957602621140993 1 I I 0 1 0.5 forward I I I I #
face $-1 $152 $153 $51 $-1 $154 forward single #
loop $-1 $155 $156 $65 #
cone-surface $-1 74.197524181989635 -2.227704193978056 8.0492612036377054 -0.81915205242281985 0 -0.57357642473473569 0.28678821236736785 0 -0.40957602621140993 1 I I 0 1 0.5 forward I I I I #
face $-1 $157 $158 $52 $-1 $159 reversed single #
loop $-1 $-1 $160 $66 #
plane-surface $-1 115.00709410646849 11.13852096989028 220.39267290091846 0 -1 0 -0.81915205242281985 0 -0.57357642473473569 forward_v I I I I #
face $-1 $161 $162 $53 $-1 $163 forward single #
loop $-1 $164 $165 $67 #
cone-surface $-1 74.197524181989635 2.227704193978056 8.0492612036377054 -0.81915205242281985 0 -0.57357642473473569 0.28678821236736785 0 -0.40957602621140993 1 I I 0 1 0.5 forward I I I I #
face $-1 $166 $167 $54 $-1 $168 forward single #
loop $-1 $169 $170 $68 #
cone-surface $-1 74.197524181989635 5.5692604849451399 8.0492612036377054 -0.81915205242281985 0 -0.57357642473473569 0.28678821236736785 0 -0.40957602621140993 1 I I 0 1 0.5 forward I I I I #
face $-1 $171 $172 $55 $-1 $173 forward single #
loop $-1 $174 $175 $69 #
cone-surface $-1 74.197524181989635 8.9108167759122239 8.0492612036377054 -0.81915205242281985 0 -0.57357642473473569 0.28678821236736785 0 -0.40957602621140993 1 I I 0 1 0.5 forward I I I I #
face $-1 $176 $177 $42 $-1 $178 reversed single #
loop $-1 $-1 $179 $70 #
plane-surface $-1 0 0 -11.652699719772373 0 0 1 1 0 0 forward_v I I I I #
coedge $-1 $180 $181 $182 $183 forward $71 $-1 #
face $-1 $184 $185 $43 $-1 $186 reversed single #
loop $-1 $-1 $187 $73 #
plane-surface $-1 0 -32.251637392521069 -6.6734069864891179 0 0 1 1 0 0 forward_v I I I I #
coedge $-1 $188 $189 $190 $191 reversed $74 $-1 #
face $-1 $192 $193 $44 $-1 $194 reversed single #
loop $-1 $-1 $195 $76 #
plane-surface $-1 0 32.251637392521076 -6.6734069864891179 0 0 1 1 0 0 forward_v I I I I #
coedge $-1 $196 $197 $198 $199 reversed $77 $-1 #
face $-1 $200 $201 $45 $-1 $202 reversed single #
loop $-1 $-1 $203 $79 #
plane-surface $-1 -77.126377147740072 -14.269561369091413 2.1508297743933156 -0.85716730853699208 0 0.51503806187062418 0.51503806187062418 0 0.85716730853699208 forward_v I I I I #
coedge $-1 $204 $205 $206 $207 reversed $80 $-1 #
face $-1 $-1 $208 $46 $-1 $209 forward single #
loop $-1 $210 $211 $82 #
cone-surface $-1 -72.693742590738097 -15.686867803008486 5.9536157798705798 0.85716730853699208 0 -0.51503806187062418 0.12875951546765604 0 0.21429182713424802 1 I I -0.70710678118654746 0.70710678118654746 0.25 forward I I I I #
loop $-1 $-1 $212 $60 #
coedge $-1 $132 $132 $213 $214 reversed $83 $-1 #
face $-1 $-1 $215 $47 $-1 $216 forward single #
loop $-1 $217 $218 $85 #
cone-surface $-1 -72.693742590738097 -12.852254935174336 5.9536157798705798 0.85716730853699208 0 -0.51503806187062418 0.12875951546765604 0 0.21429182713424802 1 I I -0.70710678118654746 0.70710678118654746 0.25 forward I I I I #
loop $-1 $-1 $219 $61 #
coedge $-1 $137 $137 $220 $221 reversed $86 $-1 #
face $-1 $222 $223 $48 $-1 $224 reversed single #
loop $-1 $-1 $225 $88 #
plane-surface $-1 -11.349366166547057 -5.5692604849451399 131.91692958663128 0.81915205242281985 0 0.57357642473473569 0.57357642473473569 0 -0.81915205242281985 forward_v I I I I #
coedge $-1 $226 $227 $228 $229 reversed $89 $-1 #
face $-1 $-1 $230 $49 $-1 $231 forward single #
loop $-1 $232 $233 $91 #
cone-surface $-1 73.196795966208555 -8.9108167759122239 7.3485437843976893 -0.81915205242281985 0 -0.57357642473473569 0.14339410618368392 0 -0.20478801310570496 1 I I -0.70710678118654746 0.70710678118654746 0.25 forward I I I I #
loop $-1 $-1 $234 $63 #
coedge $-1 $146 $146 $235 $236 reversed $92 $-1 #
face $-1 $-1 $237 $50 $-1 $238 forward single #
loop $-1 $239 $240 $94 #
cone-surface $-1 73.196795966208555 -5.5692604849451399 7.3485437843976893 -0.81915205242281985 0 -0.57357642473473569 0.14339410618368392 0 -0.20478801310570496 1 I I -0.70710678118654746 0.70710678118654746 0.25 forward I I I I #
loop $-1 $-1 $241 $64 #
coedge $-1 $151 $151 $242 $243 reversed $95 $-1 #
face $-1 $-1 $244 $51 $-1 $245 forward single #
loop $-1 $246 $247 $97 #
cone-surface $-1 73.196795966208555 -2.227704193978056 7.3485437843976893 -0.81915205242281985 0 -0.57357642473473569 0.14339410618368392 0 -0.20478801310570496 1 I I -0.70710678118654746 0.70710678118654746 0.25 forward I I I I #
loop $-1 $-1 $248 $65 #
coedge $-1 $156 $156 $249 $250 reversed $98 $-1 #
face $-1 $251 $252 $52 $-1 $253 forward single #
loop $-1 $-1 $254 $100 #
plane-surface $-1 -11.349366166547057 -5.5692604849451399 131.91692958663128 0.81915205242281985 0 0.57357642473473569 0.57357642473473569 0 -0.81915205242281985 forward_v I I I I #
coedge $-1 $255 $256 $257 $258 reversed $101 $-1 #
face $-1 $-1 $259 $53 $-1 $260 forward single #
loop $-1 $261 $262 $103 #
cone-surface $-1 73.196795966208555 2.227704193978056 7.3485437843976893 -0.81915205242281985 0 -0.57357642473473569 0.14339410618368392 0 -0.20478801310570496 1 I I -0.70710678118654746 0.70710678118654746 0.25 forward I I I I #
loop $-1 $-1 $263 $67 #
coedge $-1 $165 $165 $264 $265 reversed $104 $-1 #
face $-1 $-1 $266 $54 $-1 $267 forward single #
loop $-1 $268 $269 $106 #
cone-surface $-1 73.196795966208555 5.5692604849451399 7.3485437843976893 -0.81915205242281985 0 -0.57357642473473569 0.14339410618368392 0 -0.20478801310570496 1 I I -0.70710678118654746 0.70710678118654746 0.25 forward I I I I #
loop $-1 $-1 $270 $68 #
coedge $-1 $170 $170 $271 $272 reversed $107 $-1 #
face $-1 $-1 $273 $55 $-1 $274 forward single #
loop $-1 $275 $276 $109 #
cone-surface $-1 73.196795966208555 8.9108167759122239 7.3485437843976893 -0.81915205242281985 0 -0.57357642473473569 0.14339410618368392 0 -0.20478801310570496 1 I I -0.70710678118654746 0.70710678118654746 0.25 forward I I I I #
loop $-1 $-1 $277 $69 #
coedge $-1 $175 $175 $278 $279 reversed $110 $-1 #
face $-1 $280 $281 $42 $-1 $282 reversed single #
loop $-1 $-1 $283 $112 #
plane-surface $-1 0 -37.427488724210804 0 0 1 0 0 0 1 forward_v I I I I #
coedge $-1 $284 $285 $286 $287 forward $113 $-1 #
coedge $-1 $288 $115 $289 $290 forward $71 $-1 #
coedge $-1 $115 $288 $291 $292 forward $71 $-1 #
coedge $-1 $293 $294 $115 $183 reversed $295 $-1 #
edge $-1 $296 -37.427488724210804 $297 37.427488724210804 $182 $298 forward 7 unknown #
face $-1 $299 $300 $43 $-1 $301 reversed single #
loop $-1 $-1 $302 $116 #
plane-surface $-1 0 -27.075786060831337 -3.739125829904328 0 -1 0 0 0 -1 forward_v I I I I #
coedge $-1 $303 $304 $305 $306 reversed $117 $-1 #
coedge $-1 $307 $119 $308 $309 forward $74 $-1 #
coedge $-1 $119 $307 $310 $311 reversed $74 $-1 #
coedge $-1 $312 $313 $119 $191 forward $314 $-1 #
edge $-1 $315 10.949967364570803 $316 21.301670027950269 $190 $317 forward 7 unknown #
face $-1 $318 $319 $44 $-1 $320 reversed single #
loop $-1 $-1 $321 $120 #
plane-surface $-1 0 27.075786060831341 -3.739125829904328 0 1 0 0 0 1 forward_v I I I I #
coedge $-1 $322 $323 $324 $325 reversed $121 $-1 #
coedge $-1 $326 $123 $327 $328 reversed $77 $-1 #
coedge $-1 $123 $326 $329 $330 forward $77 $-1 #
coedge $-1 $331 $332 $123 $199 forward $319 $-1 #
edge $-1 $333 -21.301670027950273 $334 -10.949967364570803 $198 $335 forward 7 unknown #
face $-1 $336 $337 $45 $-1 $338 reversed single #
loop $-1 $-1 $339 $124 #
plane-surface $-1 -209.34679538161478 -17.57660971489792 81.596869384943034 0 1 0 -0.85716730853699208 0 0.51503806187062418 forward_v I I I I #
coedge $-1 $340 $341 $342 $343 reversed $125 $-1 #
coedge $-1 $205 $127 $344 $345 reversed $80 $-1 #
coedge $-1 $127 $204 $340 $346 reversed $80 $-1 #
coedge $-1 $342 $347 $127 $207 forward $337 $-1 #
edge $-1 $348 29.145734972699145 $349 38.647604918078251 $206 $350 forward 7 unknown #
loop $-1 $-1 $213 $128 #
plane-surface $-1 -77.126377147740072 -14.269561369091413 2.1508297743933156 -0.85716730853699208 0 0.51503806187062418 0.51503806187062418 0 0.85716730853699208 forward_v I I I I #
loop $-1 $-1 $351 $82 #
coedge $-1 $211 $211 $212 $352 reversed $129 $-1 #
coedge $-1 $212 $212 $211 $352 forward $131 $-1 #
coedge $-1 $213 $213 $132 $214 forward $208 $-1 #
edge $-1 $353 0 $353 6.2831853071796004 $213 $354 forward 7 unknown #
loop $-1 $-1 $220 $133 #
plane-surface $-1 -77.126377147740072 -14.269561369091413 2.1508297743933156 -0.85716730853699208 0 0.51503806187062418 0.51503806187062418 0 0.85716730853699208 forward_v I I I I #
loop $-1 $-1 $355 $85 #
coedge $-1 $218 $218 $219 $356 reversed $134 $-1 #
coedge $-1 $219 $219 $218 $356 forward $136 $-1 #
coedge $-1 $220 $220 $137 $221 forward $215 $-1 #
edge $-1 $357 0 $357 6.2831853071796004 $220 $358 forward 7 unknown #
face $-1 $359 $360 $48 $-1 $361 forward single #
loop $-1 $-1 $362 $138 #
plane-surface $-1 115.00709410646849 0 220.39267290091846 0 -1 0 -0.81915205242281985 0 -0.57357642473473569 forward_v I I I I #
coedge $-1 $363 $364 $365 $366 reversed $139 $-1 #
coedge $-1 $227 $141 $367 $368 reversed $89 $-1 #
coedge $-1 $141 $226 $363 $369 reversed $89 $-1 #
coedge $-1 $365 $370 $141 $229 forward $371 $-1 #
edge $-1 $372 98.543636730686856 $373 104.63586713684347 $228 $374 forward 7 unknown #
loop $-1 $-1 $235 $142 #
plane-surface $-1 -11.349366166547057 -5.5692604849451399 131.91692958663128 0.81915205242281985 0 0.57357642473473569 0.57357642473473569 0 -0.81915205242281985 forward_v I I I I #
loop $-1 $-1 $375 $91 #
coedge $-1 $233 $233 $234 $376 reversed $143 $-1 #
coedge $-1 $234 $234 $233 $376 forward $145 $-1 #
coedge $-1 $235 $235 $146 $236 forward $230 $-1 #
edge $-1 $377 0 $377 6.2831853071796004 $235 $378 forward 7 unknown #
loop $-1 $-1 $242 $147 #
plane-surface $-1 -11.349366166547057 -5.5692604849451399 131.91692958663128 0.81915205242281985 0 0.57357642473473569 0.57357642473473569 0 -0.81915205242281985 forward_v I I I I #
loop $-1 $-1 $379 $94 #
coedge $-1 $240 $240 $241 $380 reversed $148 $-1 #
coedge $-1 $241 $241 $240 $380 forward $150 $-1 #
coedge $-1 $242 $242 $151 $243 forward $237 $-1 #
edge $-1 $381 0 $381 6.2831853071796004 $242 $382 forward 7 unknown #
loop $-1 $-1 $249 $152 #
plane-surface $-1 -11.349366166547057 -5.5692604849451399 131.91692958663128 0.81915205242281985 0 0.57357642473473569 0.57357642473473569 0 -0.81915205242281985 forward_v I I I I #
loop $-1 $-1 $383 $97 #
coedge $-1 $247 $247 $248 $384 reversed $153 $-1 #
coedge $-1 $248 $248 $247 $384 forward $155 $-1 #
coedge $-1 $249 $249 $156 $250 forward $244 $-1 #
edge $-1 $385 0 $385 6.2831853071796004 $249 $386 forward 7 unknown #
face $-1 $387 $388 $52 $-1 $389 forward single #
loop $-1 $-1 $390 $157 #
plane-surface $-1 0 0 11.652699719772373 0 0 1 1 0 0 forward_v I I I I #
coedge $-1 $391 $392 $393 $394 reversed $158 $-1 #
coedge $-1 $256 $160 $395 $396 reversed $101 $-1 #
coedge $-1 $160 $255 $390 $397 reversed $101 $-1 #
coedge $-1 $398 $399 $160 $258 forward $400 $-1 #
edge $-1 $401 -104.63586713684347 $402 -98.543636730686856 $257 $403 forward 7 unknown #
loop $-1 $-1 $264 $161 #
plane-surface $-1 -11.349366166547057 -5.5692604849451399 131.91692958663128 0.81915205242281985 0 0.57357642473473569 0.57357642473473569 0 -0.81915205242281985 forward_v I I I I #
loop $-1 $-1 $404 $103 #
coedge $-1 $262 $262 $263 $405 reversed $162 $-1 #
coedge $-1 $263 $263 $262 $405 forward $164 $-1 #
coedge $-1 $264 $264 $165 $265 forward $259 $-1 #
edge $-1 $406 0 $406 6.2831853071796004 $264 $407 forward 7 unknown #
loop $-1 $-1 $271 $166 #
plane-surface $-1 -11.349366166547057 -5.5692604849451399 131.91692958663128 0.81915205242281985 0 0.57357642473473569 0.57357642473473569 0 -0.81915205242281985 forward_v I I I I #
loop $-1 $-1 $408 $106 #
coedge $-1 $269 $269 $270 $409 reversed $167 $-1 #
coedge $-1 $270 $270 $269 $409 forward $169 $-1 #
coedge $-1 $271 $271 $170 $272 forward $266 $-1 #
edge $-1 $410 0 $410 6.2831853071796004 $271 $411 forward 7 unknown #
loop $-1 $-1 $278 $171 #
plane-surface $-1 -11.349366166547057 -5.5692604849451399 131.91692958663128 0.81915205242281985 0 0.57357642473473569 0.57357642473473569 0 -0.81915205242281985 forward_v I I I I #
loop $-1 $-1 $412 $109 #
coedge $-1 $276 $276 $277 $413 reversed $172 $-1 #
coedge $-1 $277 $277 $276 $413 forward $174 $-1 #
coedge $-1 $278 $278 $175 $279 forward $273 $-1 #
edge $-1 $414 0 $414 6.2831853071796004 $278 $415 forward 7 unknown #
face $-1 $416 $417 $42 $-1 $418 reversed single #
loop $-1 $-1 $419 $176 #
plane-surface $-1 -77.126377147740101 0 0 1 0 0 0 0 -1 forward_v I I I I #
coedge $-1 $420 $291 $421 $422 forward $177 $-1 #
coedge $-1 $423 $179 $420 $424 forward $113 $-1 #
coedge $-1 $179 $423 $425 $426 forward $113 $-1 #
coedge $-1 $294 $293 $179 $287 reversed $295 $-1 #
edge $-1 $427 -37.427488724210804 $428 37.427488724210804 $286 $429 forward 7 unknown #
coedge $-1 $181 $180 $430 $431 forward $71 $-1 #
coedge $-1 $432 $433 $180 $290 reversed $417 $-1 #
edge $-1 $297 -77.126377147740101 $434 77.126377147740101 $289 $435 forward 7 unknown #
coedge $-1 $283 $436 $181 $292 reversed $177 $-1 #
edge $-1 $437 -77.126377147740101 $296 77.126377147740101 $291 $438 forward 7 unknown #
coedge $-1 $286 $182 $436 $439 forward $295 $-1 #
coedge $-1 $182 $286 $432 $440 reversed $295 $-1 #
loop $-1 $-1 $293 $416 #
vertex $-1 $183 $441 #
vertex $-1 $183 $442 #
straight-curve $-1 77.126377147740101 0 11.652699719772373 0 1 0 I I #
face $-1 $443 $444 $43 $-1 $445 reversed single #
loop $-1 $-1 $446 $184 #
plane-surface $-1 -77.126377147740101 0 0 1 0 0 0 0 -1 forward_v I I I I #
coedge $-1 $447 $308 $313 $448 reversed $185 $-1 #
coedge $-1 $449 $187 $450 $451 reversed $117 $-1 #
coedge $-1 $187 $449 $447 $452 forward $117 $-1 #
coedge $-1 $313 $312 $187 $306 forward $314 $-1 #
edge $-1 $453 -21.301670027950269 $454 -10.949967364570803 $305 $455 forward 7 unknown #
coedge $-1 $189 $188 $446 $456 reversed $74 $-1 #
coedge $-1 $302 $457 $188 $309 reversed $185 $-1 #
edge $-1 $315 -77.126377147740101 $458 77.126377147740101 $308 $459 forward 7 unknown #
coedge $-1 $460 $461 $189 $311 forward $444 $-1 #
edge $-1 $316 -77.126377147740101 $462 77.126377147740101 $310 $463 forward 7 unknown #
coedge $-1 $305 $190 $461 $464 forward $314 $-1 #
coedge $-1 $190 $305 $302 $448 forward $314 $-1 #
loop $-1 $-1 $190 $443 #
vertex $-1 $191 $465 #
vertex $-1 $464 $466 #
straight-curve $-1 77.126377147740101 -16.125818696260534 -0.80484467331953802 0 -1 0 I I #
face $-1 $467 $468 $44 $-1 $469 reversed single #
loop $-1 $-1 $198 $192 #
plane-surface $-1 77.126377147740101 0 0 -1 0 0 0 0 1 forward_v I I I I #
coedge $-1 $470 $329 $471 $472 reversed $193 $-1 #
coedge $-1 $473 $195 $470 $474 forward $121 $-1 #
coedge $-1 $195 $473 $475 $476 reversed $121 $-1 #
coedge $-1 $332 $331 $195 $325 forward $319 $-1 #
edge $-1 $477 10.949967364570803 $478 21.301670027950273 $324 $479 forward 7 unknown #
coedge $-1 $197 $196 $480 $481 reversed $77 $-1 #
coedge $-1 $482 $483 $196 $328 forward $484 $-1 #
edge $-1 $485 -77.126377147740101 $333 77.126377147740101 $327 $486 forward 7 unknown #
coedge $-1 $321 $487 $197 $330 reversed $193 $-1 #
edge $-1 $488 -77.126377147740101 $334 77.126377147740101 $329 $489 forward 7 unknown #
coedge $-1 $324 $198 $487 $490 forward $319 $-1 #
coedge $-1 $198 $324 $482 $491 reversed $319 $-1 #
vertex $-1 $491 $492 #
vertex $-1 $199 $493 #
straight-curve $-1 77.126377147740101 16.125818696260538 -0.80484467331953802 0 -1 0 I I #
face $-1 $-1 $494 $45 $-1 $495 forward single #
loop $-1 $-1 $206 $200 #
plane-surface $-1 -77.126377147740101 0 0 1 0 0 0 0 -1 forward_v I I I I #
coedge $-1 $496 $497 $498 $499 reversed $201 $-1 #
coedge $-1 $500 $203 $205 $346 forward $125 $-1 #
coedge $-1 $203 $500 $496 $501 forward $125 $-1 #
coedge $-1 $498 $206 $203 $343 forward $337 $-1 #
edge $-1 $349 3.8277323387391995 $502 10.441829030352213 $342 $503 forward 7 unknown #
coedge $-1 $504 $505 $204 $345 forward $494 $-1 #
edge $-1 $506 -33.256319803637012 $348 -27.547020543067291 $344 $507 forward 7 unknown #
edge $-1 $349 -5.5368748685137586e-014 $506 11.085198712952309 $205 $508 forward 7 unknown #
coedge $-1 $206 $498 $504 $509 reversed $337 $-1 #
vertex $-1 $509 $510 #
vertex $-1 $207 $511 #
straight-curve $-1 -77.126377147740101 -10.962513023284906 40.798434692471517 0 0 -1 I I #
coedge $-1 $351 $351 $-1 $512 reversed $210 $-1 #
edge $-1 $513 0 $513 6.2831853071796004 $211 $514 forward 7 unknown #
vertex $-1 $214 $515 #
ellipse-curve $-1 -74.271727517455233 -15.686867803008486 6.9017647470828294 -0.85716730853699208 0 0.51503806187062418 0.25751903093531209 0 0.42858365426849604 1 I I #
coedge $-1 $355 $355 $-1 $516 reversed $217 $-1 #
edge $-1 $517 0 $517 6.2831853071796004 $218 $518 forward 7 unknown #
vertex $-1 $221 $519 #
ellipse-curve $-1 -74.271727517455233 -12.852254935174336 6.9017647470828294 -0.85716730853699208 0 0.51503806187062418 0.25751903093531209 0 0.42858365426849604 1 I I #
face $-1 $-1 $371 $48 $-1 $520 reversed single #
loop $-1 $-1 $521 $222 #
plane-surface $-1 0 0 11.652699719772373 0 0 1 1 0 0 forward_v I I I I #
coedge $-1 $522 $523 $524 $525 reversed $223 $-1 #
coedge $-1 $526 $225 $227 $369 forward $139 $-1 #
coedge $-1 $225 $526 $522 $527 forward $139 $-1 #
coedge $-1 $524 $228 $225 $366 forward $371 $-1 #
edge $-1 $373 -8.3538907274177099 $528 2.78463024247257 $365 $529 forward 7 unknown #
coedge $-1 $530 $531 $226 $368 forward $360 $-1 #
edge $-1 $532 15.357004568355705 $372 19.622830094505858 $367 $533 forward 7 unknown #
edge $-1 $373 -154.2527542954802 $532 -146.81551430061293 $227 $534 forward 7 unknown #
coedge $-1 $228 $524 $530 $535 reversed $371 $-1 #
loop $-1 $-1 $524 $359 #
vertex $-1 $535 $536 #
vertex $-1 $229 $537 #
straight-curve $-1 77.126377147740101 -11.13852096989028 110.19633645045923 0 0 -1 I I #
coedge $-1 $375 $375 $-1 $538 reversed $232 $-1 #
edge $-1 $539 0 $539 6.2831853071796004 $233 $540 forward 7 unknown #
vertex $-1 $236 $541 #
ellipse-curve $-1 74.993464384665018 -8.9108167759122239 8.6065845166940473 0.81915205242281985 0 0.57357642473473569 0.28678821236736785 0 -0.40957602621140993 1 I I #
coedge $-1 $379 $379 $-1 $542 reversed $239 $-1 #
edge $-1 $543 0 $543 6.2831853071796004 $240 $544 forward 7 unknown #
vertex $-1 $243 $545 #
ellipse-curve $-1 74.993464384665018 -5.5692604849451399 8.6065845166940473 0.81915205242281985 0 0.57357642473473569 0.28678821236736785 0 -0.40957602621140993 1 I I #
coedge $-1 $383 $383 $-1 $546 reversed $246 $-1 #
edge $-1 $547 0 $547 6.2831853071796004 $247 $548 forward 7 unknown #
vertex $-1 $250 $549 #
ellipse-curve $-1 74.993464384665018 -2.227704193978056 8.6065845166940473 0.81915205242281985 0 0.57357642473473569 0.28678821236736785 0 -0.40957602621140993 1 I I #
face $-1 $-1 $400 $52 $-1 $550 reversed single #
loop $-1 $-1 $551 $251 #
plane-surface $-1 115.00709410646849 0 220.39267290091846 0 -1 0 -0.81915205242281985 0 -0.57357642473473569 forward_v I I I I #
coedge $-1 $552 $553 $256 $397 forward $252 $-1 #
coedge $-1 $395 $254 $552 $554 reversed $158 $-1 #
coedge $-1 $254 $395 $399 $555 reversed $158 $-1 #
coedge $-1 $551 $556 $254 $394 forward $388 $-1 #
edge $-1 $557 146.81551430061293 $558 154.2527542954802 $393 $559 forward 7 unknown #
coedge $-1 $392 $391 $255 $396 forward $158 $-1 #
edge $-1 $560 146.81551430061293 $401 154.2527542954802 $255 $561 forward 7 unknown #
edge $-1 $402 -19.622830094505858 $560 -15.357004568355705 $390 $562 forward 7 unknown #
coedge $-1 $563 $257 $553 $564 reversed $400 $-1 #
coedge $-1 $257 $563 $392 $555 forward $400 $-1 #
loop $-1 $-1 $257 $387 #
vertex $-1 $258 $565 #
vertex $-1 $397 $566 #
straight-curve $-1 77.126377147740101 11.13852096989028 110.19633645045923 0 0 1 I I #
coedge $-1 $404 $404 $-1 $567 reversed $261 $-1 #
edge $-1 $568 0 $568 6.2831853071796004 $262 $569 forward 7 unknown #
vertex $-1 $265 $570 #
ellipse-curve $-1 74.993464384665018 2.227704193978056 8.6065845166940473 0.81915205242281985 0 0.57357642473473569 0.28678821236736785 0 -0.40957602621140993 1 I I #
coedge $-1 $408 $408 $-1 $571 reversed $268 $-1 #
edge $-1 $572 0 $572 6.2831853071796004 $269 $573 forward 7 unknown #
vertex $-1 $272 $574 #
ellipse-curve $-1 74.993464384665018 5.5692604849451399 8.6065845166940473 0.81915205242281985 0 0.57357642473473569 0.28678821236736785 0 -0.40957602621140993 1 I I #
coedge $-1 $412 $412 $-1 $575 reversed $275 $-1 #
edge $-1 $576 0 $576 6.2831853071796004 $276 $577 forward 7 unknown #
vertex $-1 $279 $578 #
ellipse-curve $-1 74.993464384665018 8.9108167759122239 8.6065845166940473 0.81915205242281985 0 0.57357642473473569 0.28678821236736785 0 -0.40957602621140993 1 I I #
face $-1 $-1 $295 $42 $-1 $579 reversed single #
loop $-1 $-1 $432 $280 #
plane-surface $-1 0 37.427488724210804 0 0 -1 0 0 0 -1 forward_v I I I I #
coedge $-1 $580 $430 $433 $581 forward $281 $-1 #
coedge $-1 $436 $283 $284 $424 reversed $177 $-1 #
coedge $-1 $430 $580 $283 $422 reversed $281 $-1 #
edge $-1 $437 -11.652699719772373 $582 11.652699719772373 $421 $583 forward 7 unknown #
coedge $-1 $285 $284 $580 $584 forward $113 $-1 #
edge $-1 $428 -77.126377147740101 $582 77.126377147740101 $420 $585 forward 7 unknown #
coedge $-1 $433 $432 $285 $426 reversed $417 $-1 #
edge $-1 $586 -77.126377147740101 $427 77.126377147740101 $425 $587 forward 7 unknown #
vertex $-1 $287 $588 #
vertex $-1 $439 $589 #
straight-curve $-1 77.126377147740101 0 -11.652699719772373 0 -1 0 I I #
coedge $-1 $419 $421 $288 $431 reversed $281 $-1 #
edge $-1 $434 -37.427488724210804 $437 37.427488724210804 $430 $590 forward 7 unknown #
coedge $-1 $425 $289 $294 $440 forward $417 $-1 #
coedge $-1 $289 $425 $419 $581 reversed $417 $-1 #
vertex $-1 $290 $591 #
straight-curve $-1 0 37.427488724210804 11.652699719772373 -1 0 0 I I #
coedge $-1 $291 $420 $293 $439 reversed $177 $-1 #
vertex $-1 $431 $592 #
straight-curve $-1 0 -37.427488724210804 11.652699719772373 1 0 0 I I #
edge $-1 $296 -11.652699719772373 $428 11.652699719772373 $293 $593 forward 7 unknown #
edge $-1 $297 -11.652699719772373 $427 11.652699719772373 $294 $594 forward 7 unknown #
point $-1 77.126377147740101 -37.427488724210804 11.652699719772373 #
point $-1 77.126377147740101 37.427488724210804 11.652699719772373 #
face $-1 $-1 $314 $43 $-1 $595 reversed single #
loop $-1 $-1 $310 $299 #
plane-surface $-1 0 -37.427488724210804 0 0 1 0 0 0 1 forward_v I I I I #
coedge $-1 $596 $597 $307 $456 forward $300 $-1 #
coedge $-1 $457 $302 $304 $452 reversed $185 $-1 #
edge $-1 $454 -4.8038440715369539 $315 1.064718241632626 $313 $598 forward 7 unknown #
coedge $-1 $304 $303 $599 $600 reversed $117 $-1 #
coedge $-1 $461 $460 $303 $451 forward $444 $-1 #
edge $-1 $601 -77.126377147740101 $453 77.126377147740101 $450 $602 forward 7 unknown #
edge $-1 $603 -77.126377147740101 $454 77.126377147740101 $447 $604 forward 7 unknown #
vertex $-1 $451 $605 #
vertex $-1 $306 $606 #
straight-curve $-1 77.126377147740101 -16.125818696260534 -6.6734069864891179 0 1 0 I I #
edge $-1 $462 -21.301670027950269 $458 -10.949967364570803 $446 $607 forward 7 unknown #
coedge $-1 $308 $447 $596 $608 reversed $185 $-1 #
vertex $-1 $456 $609 #
straight-curve $-1 0 -27.075786060831337 -0.80484467331953802 -1 0 0 I I #
coedge $-1 $450 $310 $597 $610 forward $444 $-1 #
coedge $-1 $310 $450 $312 $464 reversed $444 $-1 #
vertex $-1 $610 $611 #
straight-curve $-1 0 -37.427488724210804 -0.80484467331953802 -1 0 0 I I #
edge $-1 $316 0.80484467331953802 $453 6.6734069864891179 $312 $612 forward 7 unknown #
point $-1 77.126377147740101 -27.075786060831337 -0.80484467331953802 #
point $-1 77.126377147740101 -37.427488724210804 -0.80484467331953802 #
face $-1 $-1 $484 $44 $-1 $613 reversed single #
loop $-1 $-1 $480 $318 #
plane-surface $-1 -77.126377147740101 0 0 1 0 0 0 0 -1 forward_v I I I I #
coedge $-1 $487 $321 $322 $474 reversed $193 $-1 #
coedge $-1 $480 $614 $321 $472 forward $468 $-1 #
edge $-1 $615 -4.8038440715369539 $488 1.064718241632626 $471 $616 forward 7 unknown #
coedge $-1 $323 $322 $614 $617 reversed $121 $-1 #
edge $-1 $477 -77.126377147740101 $615 77.126377147740101 $470 $618 forward 7 unknown #
coedge $-1 $483 $482 $323 $476 forward $484 $-1 #
edge $-1 $478 -77.126377147740101 $619 77.126377147740101 $475 $620 forward 7 unknown #
vertex $-1 $325 $621 #
vertex $-1 $476 $622 #
straight-curve $-1 77.126377147740101 16.125818696260538 -6.6734069864891179 0 1 0 I I #
coedge $-1 $623 $471 $326 $481 forward $468 $-1 #
edge $-1 $488 10.949967364570803 $485 21.301670027950273 $480 $624 forward 7 unknown #
coedge $-1 $475 $327 $332 $491 forward $484 $-1 #
coedge $-1 $327 $475 $623 $625 reversed $484 $-1 #
loop $-1 $-1 $327 $467 #
vertex $-1 $625 $626 #
straight-curve $-1 0 37.427488724210804 -0.80484467331953802 1 0 0 I I #
coedge $-1 $329 $470 $331 $490 reversed $193 $-1 #
vertex $-1 $481 $627 #
straight-curve $-1 0 27.075786060831341 -0.80484467331953802 1 0 0 I I #
edge $-1 $334 -1.064718241632626 $477 4.8038440715369539 $331 $628 forward 7 unknown #
edge $-1 $333 0.80484467331953802 $478 6.6734069864891179 $332 $629 forward 7 unknown #
point $-1 77.126377147740101 37.427488724210811 -0.80484467331953802 #
point $-1 77.126377147740101 27.075786060831341 -0.80484467331953802 #
loop $-1 $-1 $344 $336 #
plane-surface $-1 0 0 11.652699719772373 0 0 1 1 0 0 forward_v I I I I #
coedge $-1 $497 $339 $341 $501 reversed $201 $-1 #
coedge $-1 $339 $496 $630 $631 reversed $201 $-1 #
coedge $-1 $347 $342 $339 $499 forward $337 $-1 #
edge $-1 $502 -38.647604918078251 $632 -29.145734972699145 $498 $633 forward 7 unknown #
coedge $-1 $341 $340 $505 $634 reversed $125 $-1 #
edge $-1 $635 -11.085198712952309 $502 5.5368748685137586e-014 $496 $636 forward 7 unknown #
vertex $-1 $343 $637 #
straight-curve $-1 -77.126377147740101 -7.1347806845457065 2.1508297743932618 0 -1 0 I I #
coedge $-1 $630 $344 $347 $509 forward $494 $-1 #
coedge $-1 $344 $630 $500 $634 forward $494 $-1 #
vertex $-1 $345 $638 #
straight-curve $-1 -104.67339769080739 -10.962513023284906 11.652699719772372 -1 0 0 I I #
straight-curve $-1 -77.126377147740072 -10.962513023284906 2.1508297743933156 0.51503806187062418 0 0.85716730853699208 I I #
edge $-1 $348 10.962513023284906 $632 17.57660971489792 $347 $639 forward 7 unknown #
point $-1 -77.126377147740101 -10.962513023284906 11.652699719772373 #
point $-1 -77.126377147740101 -10.962513023284906 2.1508297743932681 #
edge $-1 $640 1 $640 0 $351 $-1 forward 7 unknown #
vertex $-1 $352 $641 #
ellipse-curve $-1 -72.908034417872344 -15.686867803008486 6.0823752953382355 -0.85716730853699208 0 0.51503806187062418 0.25751903093531209 0 0.42858365426849604 1 I I #
point $-1 -74.014208486519948 -15.686867803008486 7.3303484013513414 #
edge $-1 $642 1 $642 0 $355 $-1 forward 7 unknown #
vertex $-1 $356 $643 #
ellipse-curve $-1 -72.908034417872344 -12.852254935174336 6.0823752953382355 -0.85716730853699208 0 0.51503806187062418 0.25751903093531209 0 0.42858365426849604 1 I I #
point $-1 -74.014208486519948 -12.852254935174336 7.3303484013513414 #
plane-surface $-1 77.126377147740101 0 0 -1 0 0 0 0 1 forward_v I I I I #
coedge $-1 $531 $530 $523 $644 forward $360 $-1 #
coedge $-1 $523 $362 $364 $527 reversed $223 $-1 #
coedge $-1 $362 $522 $521 $644 reversed $223 $-1 #
coedge $-1 $370 $365 $362 $525 forward $371 $-1 #
edge $-1 $528 -104.63586713684347 $645 -98.543636730686856 $524 $646 forward 7 unknown #
coedge $-1 $364 $363 $531 $647 reversed $139 $-1 #
edge $-1 $648 146.81551430061293 $528 154.2527542954802 $522 $649 forward 7 unknown #
vertex $-1 $366 $650 #
straight-curve $-1 77.126377147740101 -2.78463024247257 5.5604693136157621 0 1 0 I I #
coedge $-1 $521 $367 $370 $535 forward $360 $-1 #
coedge $-1 $367 $521 $526 $647 forward $360 $-1 #
vertex $-1 $368 $651 #
straight-curve $-1 57.503547053234243 -11.13852096989028 11.652699719772372 1 0 0 I I #
straight-curve $-1 -11.349366166547057 -11.13852096989028 131.91692958663128 -0.57357642473473569 0 0.81915205242281985 I I #
edge $-1 $372 -11.13852096989028 $645 0 $370 $652 forward 7 unknown #
point $-1 77.126377147740101 -11.13852096989028 11.652699719772373 #
point $-1 77.126377147740101 -11.13852096989028 5.560469313615755 #
edge $-1 $653 1 $653 0 $375 $-1 forward 7 unknown #
vertex $-1 $376 $654 #
ellipse-curve $-1 73.401583979314253 -8.9108167759122239 7.4919378905813732 0.81915205242281985 0 0.57357642473473569 0.28678821236736785 0 -0.40957602621140993 1 I I #
point $-1 75.280252597032373 -8.9108167759122239 8.1970084904826308 #
edge $-1 $655 1 $655 0 $379 $-1 forward 7 unknown #
vertex $-1 $380 $656 #
ellipse-curve $-1 73.401583979314253 -5.5692604849451399 7.4919378905813732 0.81915205242281985 0 0.57357642473473569 0.28678821236736785 0 -0.40957602621140993 1 I I #
point $-1 75.280252597032373 -5.5692604849451399 8.1970084904826308 #
edge $-1 $657 1 $657 0 $383 $-1 forward 7 unknown #
vertex $-1 $384 $658 #
ellipse-curve $-1 73.401583979314253 -2.227704193978056 7.4919378905813732 0.81915205242281985 0 0.57357642473473569 0.28678821236736785 0 -0.40957602621140993 1 I I #
point $-1 75.280252597032373 -2.227704193978056 8.1970084904826308 #
plane-surface $-1 77.126377147740101 0 0 -1 0 0 0 0 1 forward_v I I I I #
coedge $-1 $556 $393 $563 $659 reversed $388 $-1 #
coedge $-1 $660 $390 $391 $554 forward $252 $-1 #
coedge $-1 $390 $660 $398 $564 forward $252 $-1 #
edge $-1 $560 -13.92315121236285 $557 -2.78463024247257 $552 $661 forward 7 unknown #
edge $-1 $558 2.78463024247257 $401 13.92315121236285 $399 $662 forward 7 unknown #
coedge $-1 $393 $551 $660 $663 reversed $388 $-1 #
vertex $-1 $554 $664 #
vertex $-1 $555 $665 #
straight-curve $-1 -11.349366166547057 0 131.91692958663128 0.57357642473473569 0 -0.81915205242281985 I I #
vertex $-1 $397 $666 #
straight-curve $-1 -11.349366166547057 11.13852096989028 131.91692958663128 0.57357642473473569 0 -0.81915205242281985 I I #
straight-curve $-1 57.503547053234243 11.13852096989028 11.652699719772372 -1 0 0 I I #
coedge $-1 $399 $398 $551 $659 forward $400 $-1 #
edge $-1 $667 0 $402 11.13852096989028 $398 $668 forward 7 unknown #
point $-1 77.126377147740101 11.13852096989028 5.560469313615755 #
point $-1 77.126377147740101 11.13852096989028 11.652699719772373 #
edge $-1 $669 1 $669 0 $404 $-1 forward 7 unknown #
vertex $-1 $405 $670 #
ellipse-curve $-1 73.401583979314253 2.227704193978056 7.4919378905813732 0.81915205242281985 0 0.57357642473473569 0.28678821236736785 0 -0.40957602621140993 1 I I #
point $-1 75.280252597032373 2.227704193978056 8.1970084904826308 #
edge $-1 $671 1 $671 0 $408 $-1 forward 7 unknown #
vertex $-1 $409 $672 #
ellipse-curve $-1 73.401583979314253 5.5692604849451399 7.4919378905813732 0.81915205242281985 0 0.57357642473473569 0.28678821236736785 0 -0.40957602621140993 1 I I #
point $-1 75.280252597032373 5.5692604849451399 8.1970084904826308 #
edge $-1 $673 1 $673 0 $412 $-1 forward 7 unknown #
vertex $-1 $413 $674 #
ellipse-curve $-1 73.401583979314253 8.9108167759122239 7.4919378905813732 0.81915205242281985 0 0.57357642473473569 0.28678821236736785 0 -0.40957602621140993 1 I I #
point $-1 75.280252597032373 8.9108167759122239 8.1970084904826308 #
plane-surface $-1 77.126377147740101 0 0 -1 0 0 0 0 1 forward_v I I I I #
coedge $-1 $421 $419 $423 $584 reversed $281 $-1 #
edge $-1 $434 -11.652699719772373 $586 11.652699719772373 $433 $675 forward 7 unknown #
vertex $-1 $584 $676 #
straight-curve $-1 -77.126377147740101 -37.427488724210804 0 0 0 -1 I I #
edge $-1 $582 -37.427488724210804 $586 37.427488724210804 $580 $677 forward 7 unknown #
straight-curve $-1 0 -37.427488724210804 -11.652699719772373 -1 0 0 I I #
vertex $-1 $426 $678 #
straight-curve $-1 0 37.427488724210804 -11.652699719772373 1 0 0 I I #
point $-1 77.126377147740101 37.427488724210804 -11.652699719772373 #
point $-1 77.126377147740101 -37.427488724210804 -11.652699719772373 #
straight-curve $-1 -77.126377147740101 0 11.652699719772373 0 -1 0 I I #
point $-1 -77.126377147740101 37.427488724210804 11.652699719772373 #
point $-1 -77.126377147740101 -37.427488724210804 11.652699719772373 #
straight-curve $-1 77.126377147740101 -37.427488724210804 0 0 0 -1 I I #
straight-curve $-1 77.126377147740101 37.427488724210804 0 0 0 -1 I I #
plane-surface $-1 77.126377147740101 0 0 -1 0 0 0 0 1 forward_v I I I I #
coedge $-1 $599 $446 $457 $608 forward $300 $-1 #
coedge $-1 $446 $599 $460 $610 reversed $300 $-1 #
straight-curve $-1 77.126377147740101 -27.075786060831337 -1.869562914952164 0 0 1 I I #
coedge $-1 $597 $596 $449 $600 forward $300 $-1 #
edge $-1 $603 10.949967364570803 $601 21.301670027950269 $599 $679 forward 7 unknown #
vertex $-1 $451 $680 #
straight-curve $-1 0 -37.427488724210804 -6.6734069864891179 1 0 0 I I #
vertex $-1 $600 $681 #
straight-curve $-1 0 -27.075786060831337 -6.6734069864891179 1 0 0 I I #
point $-1 77.126377147740101 -37.427488724210804 -6.6734069864891179 #
point $-1 77.126377147740101 -27.075786060831337 -6.6734069864891179 #
straight-curve $-1 -77.126377147740101 -16.125818696260534 -0.80484467331953802 0 1 0 I I #
edge $-1 $458 -1.064718241632626 $603 4.8038440715369539 $596 $682 forward 7 unknown #
point $-1 -77.126377147740101 -27.075786060831337 -0.80484467331953802 #
edge $-1 $462 0.80484467331953802 $601 6.6734069864891179 $597 $683 forward 7 unknown #
point $-1 -77.126377147740101 -37.427488724210804 -0.80484467331953802 #
straight-curve $-1 77.126377147740101 -37.427488724210804 0 0 0 -1 I I #
plane-surface $-1 0 37.427488724210804 0 0 -1 0 0 0 -1 forward_v I I I I #
coedge $-1 $471 $623 $473 $617 forward $468 $-1 #
vertex $-1 $617 $684 #
straight-curve $-1 -77.126377147740101 27.075786060831341 -1.869562914952164 0 0 1 I I #
edge $-1 $619 -21.301670027950273 $615 -10.949967364570803 $614 $685 forward 7 unknown #
straight-curve $-1 0 27.075786060831341 -6.6734069864891179 -1 0 0 I I #
vertex $-1 $476 $686 #
straight-curve $-1 0 37.427488724210804 -6.6734069864891179 -1 0 0 I I #
point $-1 77.126377147740101 27.075786060831341 -6.6734069864891179 #
point $-1 77.126377147740101 37.427488724210811 -6.6734069864891179 #
coedge $-1 $614 $480 $483 $625 forward $468 $-1 #
straight-curve $-1 -77.126377147740101 16.125818696260538 -0.80484467331953802 0 1 0 I I #
edge $-1 $485 0.80484467331953802 $619 6.6734069864891179 $483 $687 forward 7 unknown #
point $-1 -77.126377147740101 37.427488724210811 -0.80484467331953802 #
point $-1 -77.126377147740101 27.075786060831341 -0.80484467331953802 #
straight-curve $-1 77.126377147740101 27.075786060831341 -1.869562914952164 0 0 -1 I I #
straight-curve $-1 77.126377147740101 37.427488724210804 0 0 0 -1 I I #
coedge $-1 $505 $504 $497 $631 forward $494 $-1 #
edge $-1 $632 27.547020543067291 $635 33.256319803637012 $630 $688 forward 7 unknown #
vertex $-1 $631 $689 #
straight-curve $-1 -77.126377147740101 -17.57660971489792 40.798434692471517 0 0 1 I I #
edge $-1 $635 -10.441829030352213 $506 -3.8277323387391995 $505 $690 forward 7 unknown #
vertex $-1 $634 $691 #
straight-curve $-1 -77.126377147740072 -17.57660971489792 2.1508297743933156 -0.51503806187062418 0 -0.85716730853699208 I I #
point $-1 -77.126377147740101 -17.57660971489792 2.1508297743932681 #
point $-1 -71.417077887170379 -10.962513023284906 11.652699719772373 #
straight-curve $-1 -77.126377147740101 0 11.652699719772373 0 -1 0 I I #
vertex $-1 $512 $692 #
point $-1 -72.65051538693703 -15.686867803008486 6.5109589496067315 #
vertex $-1 $516 $693 #
point $-1 -72.65051538693703 -12.852254935174336 6.5109589496067315 #
edge $-1 $645 -19.622830094505858 $648 -15.357004568355705 $521 $694 forward 7 unknown #
vertex $-1 $525 $695 #
straight-curve $-1 77.126377147740101 0 110.19633645045923 0 0 1 I I #
edge $-1 $648 -2.78463024247257 $532 8.3538907274177099 $531 $696 forward 7 unknown #
vertex $-1 $647 $697 #
straight-curve $-1 -11.349366166547057 0 131.91692958663128 0.57357642473473569 0 -0.81915205242281985 I I #
point $-1 77.126377147740101 0 5.560469313615755 #
point $-1 72.860551621589948 -11.13852096989028 11.652699719772357 #
straight-curve $-1 77.126377147740101 0 11.652699719772373 0 1 0 I I #
vertex $-1 $538 $698 #
point $-1 73.688372191681623 -8.9108167759122239 7.0823618643699628 #
vertex $-1 $542 $699 #
point $-1 73.688372191681623 -5.5692604849451399 7.0823618643699628 #
vertex $-1 $546 $700 #
point $-1 73.688372191681623 -2.227704193978056 7.0823618643699628 #
edge $-1 $667 98.543636730686856 $558 104.63586713684347 $563 $701 forward 7 unknown #
coedge $-1 $553 $552 $556 $663 forward $252 $-1 #
straight-curve $-1 72.860551621589948 -2.78463024247257 11.652699719772372 0 -1 0 I I #
straight-curve $-1 77.126377147740101 -2.78463024247257 5.5604693136157621 0 1 0 I I #
edge $-1 $557 15.357004568355705 $667 19.622830094505858 $660 $702 forward 7 unknown #
point $-1 72.860551621589948 0 11.652699719772357 #
point $-1 77.126377147740101 0 5.560469313615755 #
point $-1 72.860551621589948 11.13852096989028 11.652699719772357 #
vertex $-1 $564 $703 #
straight-curve $-1 77.126377147740101 0 11.652699719772373 0 1 0 I I #
vertex $-1 $567 $704 #
point $-1 73.688372191681623 2.227704193978056 7.0823618643699628 #
vertex $-1 $571 $705 #
point $-1 73.688372191681623 5.5692604849451399 7.0823618643699628 #
vertex $-1 $575 $706 #
point $-1 73.688372191681623 8.9108167759122239 7.0823618643699628 #
straight-curve $-1 -77.126377147740101 37.427488724210804 0 0 0 -1 I I #
point $-1 -77.126377147740101 -37.427488724210804 -11.652699719772373 #
straight-curve $-1 -77.126377147740101 0 -11.652699719772373 0 1 0 I I #
point $-1 -77.126377147740101 37.427488724210804 -11.652699719772373 #
straight-curve $-1 -77.126377147740101 -16.125818696260534 -6.6734069864891179 0 -1 0 I I #
point $-1 -77.126377147740101 -37.427488724210804 -6.6734069864891179 #
point $-1 -77.126377147740101 -27.075786060831337 -6.6734069864891179 #
straight-curve $-1 -77.126377147740101 -27.075786060831337 -1.869562914952164 0 0 -1 I I #
straight-curve $-1 -77.126377147740101 -37.427488724210804 0 0 0 -1 I I #
point $-1 -77.126377147740101 27.075786060831341 -6.6734069864891179 #
straight-curve $-1 -77.126377147740101 16.125818696260538 -6.6734069864891179 0 -1 0 I I #
point $-1 -77.126377147740101 37.427488724210811 -6.6734069864891179 #
straight-curve $-1 -77.126377147740101 37.427488724210804 0 0 0 -1 I I #
straight-curve $-1 -104.67339769080739 -17.57660971489792 11.652699719772372 1 0 0 I I #
point $-1 -77.126377147740101 -17.57660971489792 11.652699719772373 #
straight-curve $-1 -71.417077887170365 -7.1347806845457065 11.652699719772373 0 1 0 I I #
point $-1 -71.417077887170379 -17.57660971489792 11.652699719772373 #
point $-1 -72.47945076360385 -15.686867803008486 5.824856264402924 #
point $-1 -72.47945076360385 -12.852254935174336 5.824856264402924 #
straight-curve $-1 57.503547053234243 0 11.652699719772372 -1 0 0 I I #
point $-1 77.126377147740101 0 11.652699719772373 #
straight-curve $-1 72.860551621589948 -2.78463024247257 11.652699719772372 0 -1 0 I I #
point $-1 72.860551621589948 0 11.652699719772357 #
point $-1 72.992007953102856 -8.9108167759122239 7.2051496782140054 #
point $-1 72.992007953102856 -5.5692604849451399 7.2051496782140054 #
point $-1 72.992007953102856 -2.227704193978056 7.2051496782140054 #
straight-curve $-1 77.126377147740101 0 110.19633645045923 0 0 -1 I I #
straight-curve $-1 57.503547053234243 0 11.652699719772372 1 0 0 I I #
point $-1 77.126377147740101 0 11.652699719772373 #
point $-1 72.992007953102856 2.227704193978056 7.2051496782140054 #
point $-1 72.992007953102856 5.5692604849451399 7.2051496782140054 #
point $-1 72.992007953102856 8.9108167759122239 7.2051496782140054 #
End-of-ACIS-data 