500 0 5 0           
7 Unknown 11 ACIS 5.0 NT 24 Fri Mar 26 19:00:33 1999 
-1 9.9999999999999995e-007 1e-010 
body $-1 $5 $-1 $6 #
body $-1 $7 $-1 $8 #
body $-1 $9 $-1 $10 #
body $-1 $11 $-1 $12 #
body $-1 $13 $-1 $14 #
lump $-1 $-1 $15 $0 #
transform $-1 1 0 0 0 1 0 0 0 1 62.760704367198706 31.510596877863989 11.156368800911761 1 rotate no_reflect no_shear #
lump $-1 $-1 $16 $1 #
transform $-1 1 0 0 0 1 0 0 0 1 62.760704367198706 31.510596877863989 11.156368800911761 1 rotate no_reflect no_shear #
lump $-1 $-1 $17 $2 #
transform $-1 1 0 0 0 1 0 0 0 1 62.760704367198706 31.510596877863989 11.156368800911761 1 rotate no_reflect no_shear #
lump $-1 $-1 $18 $3 #
transform $-1 1 0 0 0 1 0 0 0 1 62.760704367198706 31.510596877863989 11.156368800911761 1 rotate no_reflect no_shear #
lump $-1 $-1 $19 $4 #
transform $-1 1 0 0 0 1 0 0 0 1 62.760704367198706 31.510596877863989 11.156368800911761 1 rotate no_reflect no_shear #
shell $-1 $-1 $-1 $20 $-1 $5 #
shell $-1 $-1 $-1 $21 $-1 $7 #
shell $-1 $-1 $-1 $22 $-1 $9 #
shell $-1 $-1 $-1 $23 $-1 $11 #
shell $-1 $-1 $-1 $24 $-1 $13 #
face $-1 $25 $26 $15 $-1 $27 forward single #
face $-1 $28 $29 $16 $-1 $30 reversed single #
face $-1 $31 $32 $17 $-1 $33 reversed single #
face $-1 $34 $35 $18 $-1 $36 forward single #
face $-1 $37 $38 $19 $-1 $39 forward single #
face $-1 $40 $41 $15 $-1 $42 reversed single #
loop $-1 $-1 $43 $20 #
plane-surface $-1 0 0 11.156368800911761 0 0 1 1 0 0 forward_v I I I I #
face $-1 $44 $45 $16 $-1 $46 reversed single #
loop $-1 $-1 $47 $21 #
plane-surface $-1 -60.335393478819093 -19.514240361606625 0 0 -1 0 0 0 -1 forward_v I I I I #
face $-1 $48 $49 $17 $-1 $50 reversed single #
loop $-1 $-1 $51 $22 #
plane-surface $-1 -143.44431164375186 -11.36313321953218 103.51729012509848 0 -1 0 0.64278761758704617 0 -0.76604443648966558 forward_v I I I I #
face $-1 $52 $53 $18 $-1 $54 forward single #
loop $-1 $55 $56 $23 #
cone-surface $-1 -60.178520971145907 -17.185352606728213 8.8763188340950627 0.64278761758704617 0 -0.76604443648966558 0.1915111091224164 0 0.16069690439676154 1 I I 0 1 0.25 forward I I I I #
face $-1 $57 $58 $19 $-1 $59 forward single #
loop $-1 $60 $61 $24 #
cone-surface $-1 -60.178520971145907 -13.692020974410596 8.8763188340950627 0.64278761758704617 0 -0.76604443648966558 0.1915111091224164 0 0.16069690439676154 1 I I 0 1 0.25 forward I I I I #
face $-1 $62 $63 $15 $-1 $64 reversed single #
loop $-1 $-1 $65 $25 #
plane-surface $-1 0 0 -11.156368800911761 0 0 1 1 0 0 forward_v I I I I #
coedge $-1 $66 $67 $68 $69 forward $26 $-1 #
face $-1 $70 $71 $16 $-1 $72 forward single #
loop $-1 $-1 $73 $28 #
plane-surface $-1 -57.91008259043948 -25.512418619735307 0 -1 0 0 0 0 1 forward_v I I I I #
coedge $-1 $74 $75 $76 $77 forward $29 $-1 #
face $-1 $78 $79 $17 $-1 $80 reversed single #
loop $-1 $-1 $81 $31 #
plane-surface $-1 -62.760704367198684 -15.438686790569403 7.3623133037680191 -0.64278761758704617 0 0.76604443648966558 0.76604443648966558 0 0.64278761758704617 forward_v I I I I #
coedge $-1 $82 $83 $84 $85 reversed $32 $-1 #
face $-1 $-1 $86 $18 $-1 $87 forward single #
loop $-1 $88 $89 $34 #
cone-surface $-1 -59.776778710154005 -17.185352606728213 8.3975410612890222 0.64278761758704617 0 -0.76604443648966558 0.095755554561208198 0 0.080348452198380771 1 I I -0.70710678118654746 0.70710678118654746 0.125 forward I I I I #
loop $-1 $-1 $90 $23 #
coedge $-1 $56 $56 $91 $92 reversed $35 $-1 #
face $-1 $-1 $93 $19 $-1 $94 forward single #
loop $-1 $95 $96 $37 #
cone-surface $-1 -59.776778710154005 -13.692020974410596 8.3975410612890222 0.64278761758704617 0 -0.76604443648966558 0.095755554561208198 0 0.080348452198380771 1 I I -0.70710678118654746 0.70710678118654746 0.125 forward I I I I #
loop $-1 $-1 $97 $24 #
coedge $-1 $61 $61 $98 $99 reversed $38 $-1 #
face $-1 $100 $101 $15 $-1 $102 reversed single #
loop $-1 $-1 $103 $40 #
plane-surface $-1 0 -31.510596877863989 0 0 1 0 0 0 1 forward_v I I I I #
coedge $-1 $104 $105 $106 $107 forward $41 $-1 #
coedge $-1 $108 $43 $109 $110 forward $26 $-1 #
coedge $-1 $43 $108 $111 $112 forward $26 $-1 #
coedge $-1 $113 $114 $43 $69 reversed $115 $-1 #
edge $-1 $116 -31.510596877863989 $117 31.510596877863989 $68 $118 forward 7 unknown #
face $-1 $119 $120 $16 $-1 $121 reversed single #
loop $-1 $-1 $122 $44 #
plane-surface $-1 0 0 11.156368800911761 0 0 1 1 0 0 forward_v I I I I #
coedge $-1 $123 $124 $125 $126 reversed $45 $-1 #
coedge $-1 $127 $47 $128 $129 reversed $29 $-1 #
coedge $-1 $47 $127 $130 $131 reversed $29 $-1 #
coedge $-1 $124 $123 $47 $77 reversed $45 $-1 #
edge $-1 $132 -11.156368800911761 $133 11.156368800911761 $76 $134 forward 7 unknown #
face $-1 $135 $136 $17 $-1 $137 forward single #
loop $-1 $-1 $84 $48 #
plane-surface $-1 -62.760704367198706 0 0 1 0 0 0 0 -1 forward_v I I I I #
coedge $-1 $138 $139 $140 $141 reversed $49 $-1 #
coedge $-1 $83 $51 $142 $143 reversed $32 $-1 #
coedge $-1 $51 $82 $138 $144 reversed $32 $-1 #
coedge $-1 $140 $145 $51 $85 forward $79 $-1 #
edge $-1 $146 40.602276261637485 $147 44.396331758781244 $84 $148 forward 7 unknown #
loop $-1 $-1 $91 $52 #
plane-surface $-1 -62.760704367198684 -15.438686790569403 7.3623133037680191 -0.64278761758704617 0 0.76604443648966558 0.76604443648966558 0 0.64278761758704617 forward_v I I I I #
loop $-1 $-1 $149 $34 #
coedge $-1 $89 $89 $90 $150 reversed $53 $-1 #
coedge $-1 $90 $90 $89 $150 forward $55 $-1 #
coedge $-1 $91 $91 $56 $92 forward $86 $-1 #
edge $-1 $151 0 $151 6.2831853071796004 $91 $152 forward 7 unknown #
loop $-1 $-1 $98 $57 #
plane-surface $-1 -62.760704367198684 -15.438686790569403 7.3623133037680191 -0.64278761758704617 0 0.76604443648966558 0.76604443648966558 0 0.64278761758704617 forward_v I I I I #
loop $-1 $-1 $153 $37 #
coedge $-1 $96 $96 $97 $154 reversed $58 $-1 #
coedge $-1 $97 $97 $96 $154 forward $60 $-1 #
coedge $-1 $98 $98 $61 $99 forward $93 $-1 #
edge $-1 $155 0 $155 6.2831853071796004 $98 $156 forward 7 unknown #
face $-1 $157 $158 $15 $-1 $159 reversed single #
loop $-1 $-1 $160 $62 #
plane-surface $-1 -62.760704367198706 0 0 1 0 0 0 0 -1 forward_v I I I I #
coedge $-1 $161 $111 $162 $163 forward $63 $-1 #
coedge $-1 $164 $65 $161 $165 forward $41 $-1 #
coedge $-1 $65 $164 $166 $167 forward $41 $-1 #
coedge $-1 $114 $113 $65 $107 reversed $115 $-1 #
edge $-1 $168 -31.510596877863989 $169 31.510596877863989 $106 $170 forward 7 unknown #
coedge $-1 $67 $66 $171 $172 forward $26 $-1 #
coedge $-1 $173 $174 $66 $110 reversed $158 $-1 #
edge $-1 $117 -62.760704367198706 $175 62.760704367198706 $109 $176 forward 7 unknown #
coedge $-1 $103 $177 $67 $112 reversed $63 $-1 #
edge $-1 $178 -62.760704367198706 $116 62.760704367198706 $111 $179 forward 7 unknown #
coedge $-1 $106 $68 $177 $180 forward $115 $-1 #
coedge $-1 $68 $106 $173 $181 reversed $115 $-1 #
loop $-1 $-1 $113 $157 #
vertex $-1 $69 $182 #
vertex $-1 $69 $183 #
straight-curve $-1 62.760704367198706 0 11.156368800911761 0 1 0 I I #
face $-1 $184 $185 $16 $-1 $186 reversed single #
loop $-1 $-1 $187 $70 #
plane-surface $-1 -62.760704367198706 0 0 1 0 0 0 0 -1 forward_v I I I I #
coedge $-1 $130 $188 $124 $189 forward $71 $-1 #
coedge $-1 $76 $73 $190 $191 reversed $45 $-1 #
coedge $-1 $73 $76 $122 $189 reversed $45 $-1 #
coedge $-1 $192 $193 $73 $126 forward $194 $-1 #
edge $-1 $195 -11.156368800911761 $196 11.156368800911761 $125 $197 forward 7 unknown #
coedge $-1 $75 $74 $187 $198 reversed $29 $-1 #
coedge $-1 $190 $199 $74 $129 forward $185 $-1 #
edge $-1 $200 -32.593007627789163 $133 -27.742385851029933 $128 $201 forward 7 unknown #
coedge $-1 $202 $122 $75 $131 forward $71 $-1 #
edge $-1 $132 27.742385851029933 $203 32.593007627789163 $130 $204 forward 7 unknown #
vertex $-1 $131 $205 #
vertex $-1 $129 $206 #
straight-curve $-1 -57.91008259043948 -19.514240361606625 0 0 0 -1 I I #
face $-1 $-1 $207 $17 $-1 $208 forward single #
loop $-1 $-1 $209 $78 #
plane-surface $-1 -60.335393478819093 -19.514240361606625 0 0 -1 0 0 0 -1 forward_v I I I I #
coedge $-1 $210 $81 $83 $144 forward $49 $-1 #
coedge $-1 $81 $210 $209 $211 reversed $49 $-1 #
coedge $-1 $212 $84 $81 $141 forward $79 $-1 #
edge $-1 $147 3.6437898242474791 $213 11.794896966321923 $140 $214 forward 7 unknown #
coedge $-1 $215 $216 $82 $143 forward $207 $-1 #
edge $-1 $217 -13.483030629195817 $146 -8.9614514546772241 $142 $218 forward 7 unknown #
edge $-1 $147 -2.7747421096340558e-014 $217 5.9025024647895474 $83 $219 forward 7 unknown #
coedge $-1 $84 $212 $215 $220 reversed $79 $-1 #
vertex $-1 $220 $221 #
vertex $-1 $85 $222 #
straight-curve $-1 -62.760704367198706 -11.36313321953218 51.758645062549242 0 0 -1 I I #
coedge $-1 $149 $149 $-1 $223 reversed $88 $-1 #
edge $-1 $224 0 $224 6.2831853071796004 $89 $225 forward 7 unknown #
vertex $-1 $92 $226 #
ellipse-curve $-1 -60.499914779939417 -17.185352606728213 9.2593410523398774 -0.64278761758704617 0 0.76604443648966558 0.1915111091224164 0 0.16069690439676154 1 I I #
coedge $-1 $153 $153 $-1 $227 reversed $95 $-1 #
edge $-1 $228 0 $228 6.2831853071796004 $96 $229 forward 7 unknown #
vertex $-1 $99 $230 #
ellipse-curve $-1 -60.499914779939417 -13.692020974410596 9.2593410523398774 -0.64278761758704617 0 0.76604443648966558 0.1915111091224164 0 0.16069690439676154 1 I I #
face $-1 $-1 $115 $15 $-1 $231 reversed single #
loop $-1 $-1 $173 $100 #
plane-surface $-1 0 31.510596877863989 0 0 -1 0 0 0 -1 forward_v I I I I #
coedge $-1 $232 $171 $174 $233 forward $101 $-1 #
coedge $-1 $177 $103 $104 $165 reversed $63 $-1 #
coedge $-1 $171 $232 $103 $163 reversed $101 $-1 #
edge $-1 $178 -11.156368800911761 $234 11.156368800911761 $162 $235 forward 7 unknown #
coedge $-1 $105 $104 $232 $236 forward $41 $-1 #
edge $-1 $169 -62.760704367198706 $234 62.760704367198706 $161 $237 forward 7 unknown #
coedge $-1 $174 $173 $105 $167 reversed $158 $-1 #
edge $-1 $238 -62.760704367198706 $168 62.760704367198706 $166 $239 forward 7 unknown #
vertex $-1 $107 $240 #
vertex $-1 $180 $241 #
straight-curve $-1 62.760704367198706 0 -11.156368800911761 0 -1 0 I I #
coedge $-1 $160 $162 $108 $172 reversed $101 $-1 #
edge $-1 $175 -31.510596877863989 $178 31.510596877863989 $171 $242 forward 7 unknown #
coedge $-1 $166 $109 $114 $181 forward $158 $-1 #
coedge $-1 $109 $166 $160 $233 reversed $158 $-1 #
vertex $-1 $110 $243 #
straight-curve $-1 0 31.510596877863989 11.156368800911761 -1 0 0 I I #
coedge $-1 $111 $161 $113 $180 reversed $63 $-1 #
vertex $-1 $172 $244 #
straight-curve $-1 0 -31.510596877863989 11.156368800911761 1 0 0 I I #
edge $-1 $116 -11.156368800911761 $169 11.156368800911761 $113 $245 forward 7 unknown #
edge $-1 $117 -11.156368800911761 $168 11.156368800911761 $114 $246 forward 7 unknown #
point $-1 62.760704367198706 -31.510596877863989 11.156368800911761 #
point $-1 62.760704367198706 31.510596877863989 11.156368800911761 #
face $-1 $-1 $194 $16 $-1 $247 reversed single #
loop $-1 $-1 $190 $119 #
plane-surface $-1 0 0 -11.156368800911761 0 0 1 1 0 0 forward_v I I I I #
coedge $-1 $248 $249 $127 $198 forward $120 $-1 #
coedge $-1 $122 $202 $192 $250 forward $71 $-1 #
edge $-1 $196 -18.754387567996336 $132 -6.7580310517389712 $122 $251 forward 7 unknown #
coedge $-1 $252 $128 $123 $191 forward $185 $-1 #
edge $-1 $133 6.7580310517389712 $195 18.754387567996336 $190 $253 forward 7 unknown #
coedge $-1 $254 $125 $188 $250 reversed $194 $-1 #
coedge $-1 $125 $254 $252 $255 reversed $194 $-1 #
loop $-1 $-1 $125 $184 #
vertex $-1 $255 $256 #
vertex $-1 $126 $257 #
straight-curve $-1 -57.91008259043948 -31.510596877863989 0 0 0 1 I I #
edge $-1 $203 -11.156368800911761 $200 11.156368800911761 $187 $258 forward 7 unknown #
coedge $-1 $128 $252 $248 $259 forward $185 $-1 #
vertex $-1 $129 $260 #
straight-curve $-1 -30.167696739409546 -19.514240361606625 -11.156368800911761 1 0 0 I I #
coedge $-1 $188 $130 $249 $261 forward $71 $-1 #
vertex $-1 $261 $262 #
straight-curve $-1 -30.167696739409546 -19.514240361606625 11.156368800911761 -1 0 0 I I #
point $-1 -57.91008259043948 -19.514240361606625 11.156368800911761 #
point $-1 -57.91008259043948 -19.514240361606625 -11.156368800911761 #
loop $-1 $-1 $142 $135 #
plane-surface $-1 0 0 11.156368800911761 0 0 1 1 0 0 forward_v I I I I #
coedge $-1 $263 $264 $139 $211 forward $136 $-1 #
coedge $-1 $139 $138 $216 $265 reversed $49 $-1 #
edge $-1 $213 1.4372539578287089 $266 7.3397564226182883 $209 $267 forward 7 unknown #
coedge $-1 $145 $140 $264 $268 forward $79 $-1 #
vertex $-1 $268 $269 #
straight-curve $-1 -62.760704367198706 -7.7193433952847013 7.3623133037680084 0 -1 0 I I #
coedge $-1 $270 $142 $145 $220 forward $207 $-1 #
coedge $-1 $142 $270 $210 $265 forward $207 $-1 #
vertex $-1 $143 $271 #
straight-curve $-1 -71.72215582187593 -11.36313321953218 11.156368800911757 -1 0 0 I I #
straight-curve $-1 -62.760704367198684 -11.36313321953218 7.3623133037680191 0.76604443648966558 0 0.64278761758704617 I I #
edge $-1 $146 11.36313321953218 $272 19.514240361606625 $145 $273 forward 7 unknown #
point $-1 -62.760704367198706 -11.36313321953218 11.156368800911761 #
point $-1 -62.760704367198706 -11.36313321953218 7.3623133037680013 #
edge $-1 $274 1 $274 0 $149 $-1 forward 7 unknown #
vertex $-1 $150 $275 #
ellipse-curve $-1 -59.857127162352384 -17.185352606728213 8.4932966158502303 -0.64278761758704617 0 0.76604443648966558 0.1915111091224164 0 0.16069690439676154 1 I I #
point $-1 -60.308403670817015 -17.185352606728213 9.4200379567366568 #
edge $-1 $276 1 $276 0 $153 $-1 forward 7 unknown #
vertex $-1 $154 $277 #
ellipse-curve $-1 -59.857127162352384 -13.692020974410596 8.4932966158502303 -0.64278761758704617 0 0.76604443648966558 0.1915111091224164 0 0.16069690439676154 1 I I #
point $-1 -60.308403670817015 -13.692020974410596 9.4200379567366568 #
plane-surface $-1 62.760704367198706 0 0 -1 0 0 0 0 1 forward_v I I I I #
coedge $-1 $162 $160 $164 $236 reversed $101 $-1 #
edge $-1 $175 -11.156368800911761 $238 11.156368800911761 $174 $278 forward 7 unknown #
vertex $-1 $236 $279 #
straight-curve $-1 -62.760704367198706 -31.510596877863989 0 0 0 -1 I I #
edge $-1 $234 -31.510596877863989 $238 31.510596877863989 $232 $280 forward 7 unknown #
straight-curve $-1 0 -31.510596877863989 -11.156368800911761 -1 0 0 I I #
vertex $-1 $167 $281 #
straight-curve $-1 0 31.510596877863989 -11.156368800911761 1 0 0 I I #
point $-1 62.760704367198706 31.510596877863989 -11.156368800911761 #
point $-1 62.760704367198706 -31.510596877863989 -11.156368800911761 #
straight-curve $-1 -62.760704367198706 0 11.156368800911761 0 -1 0 I I #
point $-1 -62.760704367198706 31.510596877863989 11.156368800911761 #
point $-1 -62.760704367198706 -31.510596877863989 11.156368800911761 #
straight-curve $-1 62.760704367198706 -31.510596877863989 0 0 0 -1 I I #
straight-curve $-1 62.760704367198706 31.510596877863989 0 0 0 -1 I I #
plane-surface $-1 0 -31.510596877863989 0 0 1 0 0 0 1 forward_v I I I I #
coedge $-1 $282 $187 $199 $259 reversed $120 $-1 #
coedge $-1 $187 $282 $202 $261 reversed $120 $-1 #
edge $-1 $283 -62.760704367198706 $196 -57.91008259043948 $192 $284 forward 7 unknown #
straight-curve $-1 -57.91008259043948 -12.756209309867653 11.156368800911761 0 1 0 I I #
coedge $-1 $199 $190 $193 $255 forward $185 $-1 #
straight-curve $-1 -57.91008259043948 -12.756209309867653 -11.156368800911761 0 -1 0 I I #
coedge $-1 $193 $192 $282 $285 forward $194 $-1 #
edge $-1 $195 57.91008259043948 $286 62.760704367198706 $193 $287 forward 7 unknown #
point $-1 -57.91008259043948 -31.510596877863989 -11.156368800911761 #
point $-1 -57.91008259043948 -31.510596877863989 11.156368800911761 #
straight-curve $-1 -62.760704367198706 -19.514240361606625 0 0 0 -1 I I #
edge $-1 $286 -31.510596877863989 $200 -19.514240361606625 $248 $288 forward 7 unknown #
point $-1 -62.760704367198706 -19.514240361606625 -11.156368800911761 #
edge $-1 $203 19.514240361606625 $283 31.510596877863989 $249 $289 forward 7 unknown #
point $-1 -62.760704367198706 -19.514240361606625 11.156368800911761 #
coedge $-1 $264 $209 $270 $290 reversed $136 $-1 #
coedge $-1 $209 $263 $212 $268 reversed $136 $-1 #
edge $-1 $266 -11.794896966321923 $217 -3.6437898242474791 $216 $291 forward 7 unknown #
vertex $-1 $211 $292 #
straight-curve $-1 -63.861704765416142 -19.514240361606625 6.4384642563477357 0.76604443648966558 0 0.64278761758704617 I I #
edge $-1 $213 7.3623133037680022 $272 11.156368800911761 $212 $293 forward 7 unknown #
point $-1 -62.760704367198706 -19.514240361606625 7.3623133037680022 #
coedge $-1 $216 $215 $263 $290 forward $207 $-1 #
point $-1 -58.239125192680113 -11.36313321953218 11.156368800911761 #
vertex $-1 $268 $294 #
straight-curve $-1 -62.760704367198706 0 11.156368800911761 0 -1 0 I I #
vertex $-1 $223 $295 #
point $-1 -59.665616053229968 -17.185352606728213 8.653993520246992 #
vertex $-1 $227 $296 #
point $-1 -59.665616053229968 -13.692020974410596 8.653993520246992 #
straight-curve $-1 -62.760704367198706 31.510596877863989 0 0 0 -1 I I #
point $-1 -62.760704367198706 -31.510596877863989 -11.156368800911761 #
straight-curve $-1 -62.760704367198706 0 -11.156368800911761 0 1 0 I I #
point $-1 -62.760704367198706 31.510596877863989 -11.156368800911761 #
coedge $-1 $249 $248 $254 $285 reversed $120 $-1 #
vertex $-1 $261 $297 #
straight-curve $-1 0 -31.510596877863989 11.156368800911761 1 0 0 I I #
edge $-1 $283 -11.156368800911761 $286 11.156368800911761 $282 $298 forward 7 unknown #
vertex $-1 $259 $299 #
straight-curve $-1 0 -31.510596877863989 -11.156368800911761 -1 0 0 I I #
straight-curve $-1 -62.760704367198706 0 -11.156368800911761 0 1 0 I I #
straight-curve $-1 -62.760704367198706 0 11.156368800911761 0 -1 0 I I #
edge $-1 $272 -32.593007627789163 $266 -28.07142845327056 $270 $300 forward 7 unknown #
straight-curve $-1 -58.239125192680113 -7.7193433952847013 11.156368800911762 0 1 0 I I #
point $-1 -58.239125192680106 -19.514240361606625 11.156368800911761 #
straight-curve $-1 -62.760704367198706 -19.514240361606625 0 0 0 1 I I #
point $-1 -62.760704367198706 -19.514240361606625 11.156368800911761 #
point $-1 -59.696430257955626 -17.185352606728213 8.3017855067278141 #
point $-1 -59.696430257955626 -13.692020974410596 8.3017855067278141 #
point $-1 -62.760704367198706 -31.510596877863989 11.156368800911761 #
straight-curve $-1 -62.760704367198706 -31.510596877863989 0 0 0 -1 I I #
point $-1 -62.760704367198706 -31.510596877863989 -11.156368800911761 #
straight-curve $-1 -30.167696739409546 -19.514240361606625 11.156368800911761 1 0 0 I I #
End-of-ACIS-data 