500 0 8 0           
7 Unknown 11 ACIS 5.0 NT 24 Fri Mar 26 16:44:27 1999 
-1 9.9999999999999995e-007 1e-010 
body $-1 $8 $-1 $9 #
body $-1 $10 $-1 $11 #
body $-1 $12 $-1 $13 #
body $-1 $14 $-1 $15 #
body $-1 $16 $-1 $17 #
body $-1 $18 $-1 $19 #
body $-1 $20 $-1 $21 #
body $-1 $22 $-1 $23 #
lump $-1 $-1 $24 $0 #
transform $-1 1 0 0 0 1 0 0 0 1 53.9371929074984 28.978792687113163 10.660873941673195 1 rotate no_reflect no_shear #
lump $-1 $-1 $25 $1 #
transform $-1 1 0 0 0 1 0 0 0 1 53.9371929074984 28.978792687113163 10.660873941673195 1 rotate no_reflect no_shear #
lump $-1 $-1 $26 $2 #
transform $-1 1 0 0 0 1 0 0 0 1 53.9371929074984 28.978792687113163 10.660873941673195 1 rotate no_reflect no_shear #
lump $-1 $-1 $27 $3 #
transform $-1 1 0 0 0 1 0 0 0 1 53.9371929074984 28.978792687113163 10.660873941673195 1 rotate no_reflect no_shear #
lump $-1 $-1 $28 $4 #
transform $-1 1 0 0 0 1 0 0 0 1 53.9371929074984 28.978792687113163 10.660873941673195 1 rotate no_reflect no_shear #
lump $-1 $-1 $29 $5 #
transform $-1 1 0 0 0 1 0 0 0 1 53.9371929074984 28.978792687113163 10.660873941673195 1 rotate no_reflect no_shear #
lump $-1 $-1 $30 $6 #
transform $-1 1 0 0 0 1 0 0 0 1 53.9371929074984 28.978792687113163 10.660873941673195 1 rotate no_reflect no_shear #
lump $-1 $-1 $31 $7 #
transform $-1 1 0 0 0 1 0 0 0 1 53.9371929074984 28.978792687113163 10.660873941673195 1 rotate no_reflect no_shear #
shell $-1 $-1 $-1 $32 $-1 $8 #
shell $-1 $-1 $-1 $33 $-1 $10 #
shell $-1 $-1 $-1 $34 $-1 $12 #
shell $-1 $-1 $-1 $35 $-1 $14 #
shell $-1 $-1 $-1 $36 $-1 $16 #
shell $-1 $-1 $-1 $37 $-1 $18 #
shell $-1 $-1 $-1 $38 $-1 $20 #
shell $-1 $-1 $-1 $39 $-1 $22 #
face $-1 $40 $41 $24 $-1 $42 forward single #
face $-1 $43 $44 $25 $-1 $45 forward single #
face $-1 $46 $47 $26 $-1 $48 reversed single #
face $-1 $49 $50 $27 $-1 $51 forward single #
face $-1 $52 $53 $28 $-1 $54 forward single #
face $-1 $55 $56 $29 $-1 $57 reversed single #
face $-1 $58 $59 $30 $-1 $60 forward single #
face $-1 $61 $62 $31 $-1 $63 forward single #
face $-1 $64 $65 $24 $-1 $66 reversed single #
loop $-1 $-1 $67 $32 #
plane-surface $-1 0 0 10.660873941673195 0 0 1 1 0 0 forward_v I I I I #
face $-1 $68 $69 $25 $-1 $70 reversed single #
loop $-1 $-1 $71 $33 #
plane-surface $-1 -53.9371929074984 0 0 1 0 0 0 0 -1 forward_v I I I I #
face $-1 $72 $73 $26 $-1 $74 reversed single #
loop $-1 $-1 $75 $34 #
plane-surface $-1 47.334271605929544 -28.97879268711317 7.3356602921823253 0 -0.57357644374324357 0.81915203911291934 1 0 0 forward_v I I I I #
face $-1 $76 $77 $27 $-1 $78 forward single #
loop $-1 $79 $80 $35 #
cone-surface $-1 44.504448190971459 -26.236946753185716 8.4735693242423888 0 0.57357644374324357 -0.81915203911291934 1 0 0 1 I I 0 1 1 forward I I I I #
face $-1 $81 $82 $28 $-1 $83 forward single #
loop $-1 $84 $85 $36 #
cone-surface $-1 50.164095020887615 -26.236946753185716 8.4735693242423888 0 0.57357644374324357 -0.81915203911291934 1 0 0 1 I I 0 1 1 forward I I I I #
face $-1 $86 $87 $29 $-1 $88 reversed single #
loop $-1 $-1 $89 $37 #
plane-surface $-1 47.334271605929544 -18.49728155424544 40.578765999076467 0 0.57357644374324357 0.81915203911291934 1 0 0 forward_v I I I I #
face $-1 $90 $91 $30 $-1 $92 forward single #
loop $-1 $93 $94 $38 #
cone-surface $-1 44.504448190971459 26.236946753185716 8.4735693242423853 0 -0.57357644374324357 -0.81915203911291934 1 0 0 1 I I 0 1 1 forward I I I I #
face $-1 $95 $96 $31 $-1 $97 forward single #
loop $-1 $98 $99 $39 #
cone-surface $-1 50.164095020887615 26.236946753185716 8.4735693242423853 0 -0.57357644374324357 -0.81915203911291934 1 0 0 1 I I 0 1 1 forward I I I I #
face $-1 $100 $101 $24 $-1 $102 reversed single #
loop $-1 $-1 $103 $40 #
plane-surface $-1 0 0 -10.660873941673195 0 0 1 1 0 0 forward_v I I I I #
coedge $-1 $104 $105 $106 $107 forward $41 $-1 #
face $-1 $108 $109 $25 $-1 $110 reversed single #
loop $-1 $-1 $111 $43 #
plane-surface $-1 0 0 -10.660873941673195 0 0 1 1 0 0 forward_v I I I I #
coedge $-1 $112 $113 $114 $115 forward $44 $-1 #
face $-1 $116 $117 $26 $-1 $118 reversed single #
loop $-1 $-1 $119 $46 #
plane-surface $-1 40.731350304360689 -90.852999273865635 95.701183400590736 1 0 0 0 0.57357644374324357 -0.81915203911291934 forward_v I I I I #
coedge $-1 $120 $121 $122 $123 reversed $47 $-1 #
face $-1 $-1 $124 $27 $-1 $125 forward single #
loop $-1 $126 $127 $49 #
cone-surface $-1 44.504448190971459 -25.582761174537303 7.5392955120005603 0 0.57357644374324357 -0.81915203911291934 0.5 0 0 1 I I -0.70710678118654746 0.70710678118654746 0.5 forward I I I I #
loop $-1 $-1 $128 $35 #
coedge $-1 $80 $80 $129 $130 reversed $50 $-1 #
face $-1 $-1 $131 $28 $-1 $132 forward single #
loop $-1 $133 $134 $52 #
cone-surface $-1 50.164095020887615 -25.582761174537303 7.5392955120005603 0 0.57357644374324357 -0.81915203911291934 0.5 0 0 1 I I -0.70710678118654746 0.70710678118654746 0.5 forward I I I I #
loop $-1 $-1 $135 $36 #
coedge $-1 $85 $85 $136 $137 reversed $53 $-1 #
face $-1 $138 $139 $29 $-1 $140 reversed single #
loop $-1 $-1 $141 $55 #
plane-surface $-1 40.731350304360689 43.376925032507025 128.94428910748488 1 0 0 0 -0.57357644374324357 -0.81915203911291934 forward_v I I I I #
coedge $-1 $142 $143 $144 $145 reversed $56 $-1 #
face $-1 $-1 $146 $30 $-1 $147 forward single #
loop $-1 $148 $149 $58 #
cone-surface $-1 44.504448190971459 25.582761174537303 7.5392955120005567 0 -0.57357644374324357 -0.81915203911291934 0.5 0 0 1 I I -0.70710678118654746 0.70710678118654746 0.5 forward I I I I #
loop $-1 $-1 $150 $38 #
coedge $-1 $94 $94 $151 $152 reversed $59 $-1 #
face $-1 $-1 $153 $31 $-1 $154 forward single #
loop $-1 $155 $156 $61 #
cone-surface $-1 50.164095020887615 25.582761174537303 7.5392955120005567 0 -0.57357644374324357 -0.81915203911291934 0.5 0 0 1 I I -0.70710678118654746 0.70710678118654746 0.5 forward I I I I #
loop $-1 $-1 $157 $39 #
coedge $-1 $99 $99 $158 $159 reversed $62 $-1 #
face $-1 $160 $161 $24 $-1 $162 reversed single #
loop $-1 $-1 $163 $64 #
plane-surface $-1 0 -28.978792687113163 0 0 1 0 0 0 1 forward_v I I I I #
coedge $-1 $164 $165 $166 $167 forward $65 $-1 #
coedge $-1 $168 $67 $169 $170 forward $41 $-1 #
coedge $-1 $67 $168 $171 $172 forward $41 $-1 #
coedge $-1 $173 $174 $67 $107 reversed $175 $-1 #
edge $-1 $176 -28.978792687113163 $177 28.978792687113163 $106 $178 forward 7 unknown #
face $-1 $179 $180 $25 $-1 $181 reversed single #
loop $-1 $-1 $182 $68 #
plane-surface $-1 -59.780953870544707 -10.80198146855151 0 0 1 0 0 0 1 forward_v I I I I #
coedge $-1 $183 $184 $113 $185 forward $69 $-1 #
coedge $-1 $186 $71 $187 $188 reversed $44 $-1 #
coedge $-1 $71 $186 $111 $185 reversed $44 $-1 #
coedge $-1 $189 $190 $71 $115 reversed $191 $-1 #
edge $-1 $192 -10.660873941673195 $193 10.660873941673195 $114 $194 forward 7 unknown #
face $-1 $195 $196 $26 $-1 $197 forward single #
loop $-1 $-1 $198 $72 #
plane-surface $-1 0 -28.978792687113163 0 0 1 0 0 0 1 forward_v I I I I #
coedge $-1 $199 $200 $201 $202 reversed $73 $-1 #
coedge $-1 $203 $75 $204 $205 reversed $47 $-1 #
coedge $-1 $75 $203 $199 $206 forward $47 $-1 #
coedge $-1 $201 $207 $75 $123 forward $196 $-1 #
edge $-1 $208 -30.270057104533628 $209 -17.064214501395917 $122 $210 forward 7 unknown #
loop $-1 $-1 $129 $76 #
plane-surface $-1 47.334271605929544 -28.97879268711317 7.3356602921823253 0 -0.57357644374324357 0.81915203911291934 1 0 0 forward_v I I I I #
loop $-1 $-1 $211 $49 #
coedge $-1 $127 $127 $128 $212 reversed $77 $-1 #
coedge $-1 $128 $128 $127 $212 forward $79 $-1 #
coedge $-1 $129 $129 $80 $130 forward $124 $-1 #
edge $-1 $213 8.7245977684942397e-016 $213 6.2831853071796013 $129 $214 forward 7 unknown #
loop $-1 $-1 $136 $81 #
plane-surface $-1 47.334271605929544 -28.97879268711317 7.3356602921823253 0 -0.57357644374324357 0.81915203911291934 1 0 0 forward_v I I I I #
loop $-1 $-1 $215 $52 #
coedge $-1 $134 $134 $135 $216 reversed $82 $-1 #
coedge $-1 $135 $135 $134 $216 forward $84 $-1 #
coedge $-1 $136 $136 $85 $137 forward $131 $-1 #
edge $-1 $217 8.7245977684942397e-016 $217 6.2831853071796013 $136 $218 forward 7 unknown #
face $-1 $219 $220 $29 $-1 $221 forward single #
loop $-1 $-1 $144 $86 #
plane-surface $-1 0 28.978792687113163 0 0 -1 0 0 0 -1 forward_v I I I I #
coedge $-1 $222 $223 $224 $225 reversed $87 $-1 #
coedge $-1 $226 $89 $227 $228 reversed $56 $-1 #
coedge $-1 $89 $226 $222 $229 forward $56 $-1 #
coedge $-1 $224 $230 $89 $145 forward $139 $-1 #
edge $-1 $231 -30.270057104533628 $232 -17.064214501395917 $144 $233 forward 7 unknown #
loop $-1 $-1 $151 $90 #
plane-surface $-1 47.334271605929544 -18.49728155424544 40.578765999076467 0 0.57357644374324357 0.81915203911291934 1 0 0 forward_v I I I I #
loop $-1 $-1 $234 $58 #
coedge $-1 $149 $149 $150 $235 reversed $91 $-1 #
coedge $-1 $150 $150 $149 $235 forward $93 $-1 #
coedge $-1 $151 $151 $94 $152 forward $146 $-1 #
edge $-1 $236 -1.4641666191275965e-016 $236 6.2831853071796004 $151 $237 forward 7 unknown #
loop $-1 $-1 $158 $95 #
plane-surface $-1 47.334271605929544 -18.49728155424544 40.578765999076467 0 0.57357644374324357 0.81915203911291934 1 0 0 forward_v I I I I #
loop $-1 $-1 $238 $61 #
coedge $-1 $156 $156 $157 $239 reversed $96 $-1 #
coedge $-1 $157 $157 $156 $239 forward $98 $-1 #
coedge $-1 $158 $158 $99 $159 forward $153 $-1 #
edge $-1 $240 -1.4641666191275965e-016 $240 6.2831853071796004 $158 $241 forward 7 unknown #
face $-1 $242 $243 $24 $-1 $244 reversed single #
loop $-1 $-1 $245 $100 #
plane-surface $-1 -53.9371929074984 0 0 1 0 0 0 0 -1 forward_v I I I I #
coedge $-1 $246 $171 $247 $248 forward $101 $-1 #
coedge $-1 $249 $103 $246 $250 forward $65 $-1 #
coedge $-1 $103 $249 $251 $252 forward $65 $-1 #
coedge $-1 $174 $173 $103 $167 reversed $175 $-1 #
edge $-1 $253 -28.978792687113163 $254 28.978792687113163 $166 $255 forward 7 unknown #
coedge $-1 $105 $104 $256 $257 forward $41 $-1 #
coedge $-1 $258 $259 $104 $170 reversed $243 $-1 #
edge $-1 $177 -53.9371929074984 $260 53.9371929074984 $169 $261 forward 7 unknown #
coedge $-1 $163 $262 $105 $172 reversed $101 $-1 #
edge $-1 $263 -53.9371929074984 $176 53.9371929074984 $171 $264 forward 7 unknown #
coedge $-1 $166 $106 $262 $265 forward $175 $-1 #
coedge $-1 $106 $166 $258 $266 reversed $175 $-1 #
loop $-1 $-1 $173 $242 #
vertex $-1 $107 $267 #
vertex $-1 $107 $268 #
straight-curve $-1 53.9371929074984 0 10.660873941673195 0 1 0 I I #
face $-1 $269 $191 $25 $-1 $270 reversed single #
loop $-1 $-1 $271 $108 #
plane-surface $-1 -65.624714833591014 -9.2295131361591416 0 1 0 0 0 0 -1 forward_v I I I I #
coedge $-1 $272 $273 $274 $275 forward $109 $-1 #
coedge $-1 $276 $111 $272 $277 forward $69 $-1 #
coedge $-1 $111 $276 $189 $278 forward $69 $-1 #
edge $-1 $192 7.6570448037667731 $279 10.80198146855151 $111 $280 forward 7 unknown #
coedge $-1 $113 $112 $281 $282 forward $44 $-1 #
coedge $-1 $283 $284 $112 $188 forward $285 $-1 #
edge $-1 $286 -10.80198146855151 $193 -7.6570448037667731 $187 $287 forward 7 unknown #
coedge $-1 $288 $114 $184 $278 reversed $191 $-1 #
coedge $-1 $114 $288 $283 $289 reversed $191 $-1 #
loop $-1 $-1 $114 $179 #
vertex $-1 $185 $290 #
vertex $-1 $289 $291 #
straight-curve $-1 -53.9371929074984 -7.6570448037667731 0 0 0 1 I I #
face $-1 $-1 $292 $26 $-1 $293 reversed single #
loop $-1 $-1 $201 $116 #
plane-surface $-1 0 0 10.660873941673195 0 0 1 1 0 0 forward_v I I I I #
coedge $-1 $294 $295 $200 $296 forward $117 $-1 #
coedge $-1 $200 $119 $121 $206 reversed $73 $-1 #
coedge $-1 $119 $199 $198 $296 reversed $73 $-1 #
coedge $-1 $297 $122 $119 $202 forward $196 $-1 #
edge $-1 $209 -21.196604104120965 $298 -16.447706949819654 $201 $299 forward 7 unknown #
coedge $-1 $121 $120 $294 $300 reversed $47 $-1 #
coedge $-1 $301 $302 $120 $205 forward $292 $-1 #
edge $-1 $303 -9.7652375888904128 $208 -3.9679045816454925 $204 $304 forward 7 unknown #
edge $-1 $305 8.8770546250341341e-015 $209 5.7973330072449301 $199 $306 forward 7 unknown #
coedge $-1 $122 $297 $301 $307 forward $196 $-1 #
vertex $-1 $205 $308 #
vertex $-1 $123 $309 #
straight-curve $-1 23.667135802964772 -24.229895532811852 10.660873941673195 -1 0 0 I I #
coedge $-1 $211 $211 $-1 $310 reversed $126 $-1 #
edge $-1 $311 0 $311 6.2831853071796004 $127 $312 forward 7 unknown #
vertex $-1 $130 $313 #
ellipse-curve $-1 44.504448190971459 -26.604344109962508 8.9982671169277619 0 -0.57357644374324357 0.81915203911291934 1 0 0 1 I I #
coedge $-1 $215 $215 $-1 $314 reversed $133 $-1 #
edge $-1 $315 0 $315 6.2831853071796004 $134 $316 forward 7 unknown #
vertex $-1 $137 $317 #
ellipse-curve $-1 50.164095020887615 -26.604344109962508 8.9982671169277619 0 -0.57357644374324357 0.81915203911291934 1 0 0 1 I I #
face $-1 $-1 $318 $29 $-1 $319 reversed single #
loop $-1 $-1 $320 $138 #
plane-surface $-1 0 0 10.660873941673195 0 0 1 1 0 0 forward_v I I I I #
coedge $-1 $223 $141 $143 $229 reversed $87 $-1 #
coedge $-1 $141 $222 $321 $322 reversed $87 $-1 #
coedge $-1 $323 $144 $141 $225 forward $139 $-1 #
edge $-1 $232 -57.136484261560135 $324 -53.811270612069244 $224 $325 forward 7 unknown #
coedge $-1 $143 $142 $320 $326 reversed $56 $-1 #
coedge $-1 $327 $328 $142 $228 forward $318 $-1 #
edge $-1 $329 32.946697268758626 $231 38.744030276003592 $227 $330 forward 7 unknown #
edge $-1 $331 52.160252366981361 $232 57.957585374226326 $222 $332 forward 7 unknown #
coedge $-1 $144 $323 $327 $333 forward $139 $-1 #
vertex $-1 $228 $334 #
vertex $-1 $145 $335 #
straight-curve $-1 23.667135802964772 28.978792687113163 7.3356602921823022 -1 0 0 I I #
coedge $-1 $234 $234 $-1 $336 reversed $148 $-1 #
edge $-1 $337 0 $337 6.2831853071796004 $149 $338 forward 7 unknown #
vertex $-1 $152 $339 #
ellipse-curve $-1 44.504448190971459 26.604344109962501 8.9982671169277495 0 0.57357644374324357 0.81915203911291934 1 0 0 1 I I #
coedge $-1 $238 $238 $-1 $340 reversed $155 $-1 #
edge $-1 $341 0 $341 6.2831853071796004 $156 $342 forward 7 unknown #
vertex $-1 $159 $343 #
ellipse-curve $-1 50.164095020887615 26.604344109962501 8.9982671169277495 0 0.57357644374324357 0.81915203911291934 1 0 0 1 I I #
face $-1 $-1 $175 $24 $-1 $344 reversed single #
loop $-1 $-1 $258 $160 #
plane-surface $-1 0 28.978792687113163 0 0 -1 0 0 0 -1 forward_v I I I I #
coedge $-1 $345 $256 $259 $346 forward $161 $-1 #
coedge $-1 $262 $163 $164 $250 reversed $101 $-1 #
coedge $-1 $256 $345 $163 $248 reversed $161 $-1 #
edge $-1 $263 -10.660873941673195 $347 10.660873941673195 $247 $348 forward 7 unknown #
coedge $-1 $165 $164 $345 $349 forward $65 $-1 #
edge $-1 $254 -53.9371929074984 $347 53.9371929074984 $246 $350 forward 7 unknown #
coedge $-1 $259 $258 $165 $252 reversed $243 $-1 #
edge $-1 $351 -53.9371929074984 $253 53.9371929074984 $251 $352 forward 7 unknown #
vertex $-1 $167 $353 #
vertex $-1 $265 $354 #
straight-curve $-1 53.9371929074984 0 -10.660873941673195 0 -1 0 I I #
coedge $-1 $245 $247 $168 $257 reversed $161 $-1 #
edge $-1 $260 -28.978792687113163 $263 28.978792687113163 $256 $355 forward 7 unknown #
coedge $-1 $251 $169 $174 $266 forward $243 $-1 #
coedge $-1 $169 $251 $245 $346 reversed $243 $-1 #
vertex $-1 $170 $356 #
straight-curve $-1 0 28.978792687113163 10.660873941673195 -1 0 0 I I #
coedge $-1 $171 $246 $173 $265 reversed $101 $-1 #
vertex $-1 $257 $357 #
straight-curve $-1 0 -28.978792687113163 10.660873941673195 1 0 0 I I #
edge $-1 $176 -10.660873941673195 $254 10.660873941673195 $173 $358 forward 7 unknown #
edge $-1 $177 -10.660873941673195 $253 10.660873941673195 $174 $359 forward 7 unknown #
point $-1 53.9371929074984 -28.978792687113163 10.660873941673195 #
point $-1 53.9371929074984 28.978792687113163 10.660873941673195 #
face $-1 $-1 $285 $25 $-1 $360 forward single #
plane-surface $-1 -59.780953870544707 -7.6570448037667731 0 0 -1 0 0 0 -1 forward_v I I I I #
coedge $-1 $361 $362 $288 $363 forward $180 $-1 #
coedge $-1 $281 $182 $183 $277 reversed $109 $-1 #
coedge $-1 $182 $281 $284 $364 reversed $109 $-1 #
coedge $-1 $362 $361 $182 $275 reversed $180 $-1 #
edge $-1 $365 -10.660873941673195 $366 10.660873941673195 $274 $367 forward 7 unknown #
coedge $-1 $184 $183 $361 $368 forward $69 $-1 #
edge $-1 $279 -5.8437609630463072 $366 5.8437609630463072 $272 $369 forward 7 unknown #
edge $-1 $370 -5.8437609630463072 $192 5.8437609630463072 $189 $371 forward 7 unknown #
vertex $-1 $277 $372 #
straight-curve $-1 -53.9371929074984 0 -10.660873941673195 0 -1 0 I I #
coedge $-1 $273 $272 $186 $282 reversed $109 $-1 #
edge $-1 $286 -10.660873941673195 $279 10.660873941673195 $281 $373 forward 7 unknown #
coedge $-1 $374 $187 $190 $289 forward $285 $-1 #
coedge $-1 $187 $374 $273 $364 forward $285 $-1 #
loop $-1 $-1 $187 $269 #
vertex $-1 $188 $375 #
straight-curve $-1 -53.9371929074984 0 10.660873941673195 0 1 0 I I #
coedge $-1 $190 $189 $271 $363 reversed $191 $-1 #
edge $-1 $193 -5.8437609630463072 $376 5.8437609630463072 $190 $377 forward 7 unknown #
point $-1 -53.9371929074984 -7.6570448037667731 -10.660873941673195 #
point $-1 -53.9371929074984 -7.6570448037667731 10.660873941673195 #
loop $-1 $-1 $204 $195 #
plane-surface $-1 53.9371929074984 0 0 -1 0 0 0 0 1 forward_v I I I I #
coedge $-1 $378 $198 $203 $300 forward $117 $-1 #
coedge $-1 $198 $378 $297 $379 reversed $117 $-1 #
edge $-1 $298 37.189717758622173 $305 40.514931408113036 $198 $380 forward 7 unknown #
coedge $-1 $207 $201 $295 $379 forward $196 $-1 #
vertex $-1 $379 $381 #
straight-curve $-1 40.731350304360689 -45.426499636932817 10.660873941673195 0 -1 0 I I #
edge $-1 $305 17.064214501395917 $303 30.270057104533628 $294 $382 forward 7 unknown #
coedge $-1 $302 $204 $207 $307 reversed $292 $-1 #
coedge $-1 $204 $301 $378 $383 forward $292 $-1 #
vertex $-1 $300 $384 #
straight-curve $-1 53.9371929074984 -20.979578403751454 12.936770540725941 0 0.81915203911291934 0.57357644374324357 I I #
vertex $-1 $300 $385 #
straight-curve $-1 40.731350304360689 -28.97879268711317 7.3356602921823253 0 0.81915203911291934 0.57357644374324357 I I #
edge $-1 $386 -28.978792687113163 $208 -24.229895532811852 $301 $387 forward 7 unknown #
point $-1 53.9371929074984 -24.229895532811852 10.660873941673195 #
point $-1 40.731350304360689 -24.229895532811852 10.660873941673195 #
edge $-1 $388 1 $388 0 $211 $-1 forward 7 unknown #
vertex $-1 $212 $389 #
ellipse-curve $-1 44.504448190971459 -25.869549396408924 7.9488715315570202 0 -0.57357644374324357 0.81915203911291934 1 0 0 1 I I #
point $-1 45.504448190971459 -26.604344109962504 8.9982671169277584 #
edge $-1 $390 1 $390 0 $215 $-1 forward 7 unknown #
vertex $-1 $216 $391 #
ellipse-curve $-1 50.164095020887615 -25.869549396408924 7.9488715315570202 0 -0.57357644374324357 0.81915203911291934 1 0 0 1 I I #
point $-1 51.164095020887615 -26.604344109962504 8.9982671169277584 #
loop $-1 $-1 $227 $219 #
plane-surface $-1 53.9371929074984 0 0 -1 0 0 0 0 1 forward_v I I I I #
coedge $-1 $392 $321 $226 $326 forward $220 $-1 #
coedge $-1 $320 $393 $223 $322 forward $220 $-1 #
edge $-1 $324 -7.2903301708596508 $331 -2.5414330165583046 $321 $394 forward 7 unknown #
coedge $-1 $230 $224 $393 $395 reversed $139 $-1 #
vertex $-1 $225 $396 #
straight-curve $-1 40.731350304360689 28.978792687113163 64.472144553742439 0 0 1 I I #
edge $-1 $331 17.064214501395917 $329 30.270057104533628 $320 $397 forward 7 unknown #
coedge $-1 $328 $227 $230 $333 reversed $318 $-1 #
coedge $-1 $227 $327 $392 $398 reversed $318 $-1 #
vertex $-1 $398 $399 #
straight-curve $-1 53.9371929074984 -2.7584587169278603 29.558323394173001 0 0.81915203911291934 -0.57357644374324357 I I #
vertex $-1 $326 $400 #
straight-curve $-1 40.731350304360689 -18.49728155424544 40.578765999076467 0 0.81915203911291934 -0.57357644374324357 I I #
edge $-1 $401 -10.660873941673195 $231 -7.3356602921823049 $327 $402 forward 7 unknown #
point $-1 53.9371929074984 28.978792687113163 7.3356602921823049 #
point $-1 40.731350304360689 28.978792687113163 7.335660292182304 #
edge $-1 $403 1 $403 0 $234 $-1 forward 7 unknown #
vertex $-1 $235 $404 #
ellipse-curve $-1 44.504448190971459 25.869549396408924 7.9488715315570166 0 0.57357644374324357 0.81915203911291934 1 0 0 1 I I #
point $-1 45.504448190971459 26.604344109962504 8.9982671169277548 #
edge $-1 $405 1 $405 0 $238 $-1 forward 7 unknown #
vertex $-1 $239 $406 #
ellipse-curve $-1 50.164095020887615 25.869549396408924 7.9488715315570166 0 0.57357644374324357 0.81915203911291934 1 0 0 1 I I #
point $-1 51.164095020887615 26.604344109962504 8.9982671169277548 #
plane-surface $-1 53.9371929074984 0 0 -1 0 0 0 0 1 forward_v I I I I #
coedge $-1 $247 $245 $249 $349 reversed $161 $-1 #
edge $-1 $260 -10.660873941673195 $351 10.660873941673195 $259 $407 forward 7 unknown #
vertex $-1 $349 $408 #
straight-curve $-1 -53.9371929074984 -28.978792687113163 0 0 0 -1 I I #
edge $-1 $347 -28.978792687113163 $351 28.978792687113163 $345 $409 forward 7 unknown #
straight-curve $-1 0 -28.978792687113163 -10.660873941673195 -1 0 0 I I #
vertex $-1 $252 $410 #
straight-curve $-1 0 28.978792687113163 -10.660873941673195 1 0 0 I I #
point $-1 53.9371929074984 28.978792687113163 -10.660873941673195 #
point $-1 53.9371929074984 -28.978792687113163 -10.660873941673195 #
straight-curve $-1 -53.9371929074984 0 10.660873941673195 0 -1 0 I I #
point $-1 -53.9371929074984 28.978792687113163 10.660873941673195 #
point $-1 -53.9371929074984 -28.978792687113163 10.660873941673195 #
straight-curve $-1 53.9371929074984 -28.978792687113163 0 0 0 -1 I I #
straight-curve $-1 53.9371929074984 28.978792687113163 0 0 0 -1 I I #
plane-surface $-1 0 0 10.660873941673195 0 0 1 1 0 0 forward_v I I I I #
coedge $-1 $274 $271 $276 $368 reversed $180 $-1 #
coedge $-1 $271 $274 $374 $411 reversed $180 $-1 #
edge $-1 $376 -10.660873941673195 $370 10.660873941673195 $288 $412 forward 7 unknown #
edge $-1 $365 -5.8437609630463072 $286 5.8437609630463072 $273 $413 forward 7 unknown #
vertex $-1 $411 $414 #
vertex $-1 $368 $415 #
straight-curve $-1 -65.624714833591014 -10.80198146855151 0 0 0 -1 I I #
edge $-1 $366 -1.5724683323923685 $370 1.5724683323923685 $361 $416 forward 7 unknown #
straight-curve $-1 -59.780953870544707 -10.80198146855151 -10.660873941673195 -1 0 0 I I #
vertex $-1 $278 $417 #
straight-curve $-1 -59.780953870544707 -7.6570448037667731 -10.660873941673195 1 0 0 I I #
point $-1 -53.9371929074984 -10.80198146855151 -10.660873941673195 #
straight-curve $-1 -53.9371929074984 -10.80198146855151 0 0 0 -1 I I #
coedge $-1 $284 $283 $362 $411 forward $285 $-1 #
point $-1 -53.9371929074984 -10.80198146855151 10.660873941673195 #
vertex $-1 $289 $418 #
straight-curve $-1 -59.780953870544707 -7.6570448037667731 10.660873941673195 -1 0 0 I I #
coedge $-1 $295 $294 $302 $383 reversed $117 $-1 #
edge $-1 $298 40.731350304360689 $386 53.9371929074984 $295 $419 forward 7 unknown #
straight-curve $-1 40.731350304360689 -28.978792687113163 47.850591700295368 0 0 -1 I I #
point $-1 40.731350304360689 -28.978792687113163 10.660873941673195 #
straight-curve $-1 23.667135802964772 -28.978792687113163 7.3356602921823306 1 0 0 I I #
edge $-1 $386 -10.660873941673195 $303 -7.3356602921823306 $302 $420 forward 7 unknown #
point $-1 53.9371929074984 -28.978792687113163 7.3356602921823306 #
point $-1 40.731350304360689 -28.978792687113163 7.3356602921823306 #
vertex $-1 $307 $421 #
straight-curve $-1 53.9371929074984 0 10.660873941673195 0 1 0 I I #
vertex $-1 $310 $422 #
point $-1 45.504448190971459 -25.869549396408924 7.9488715315570202 #
vertex $-1 $314 $423 #
point $-1 51.164095020887615 -25.869549396408924 7.9488715315570202 #
coedge $-1 $393 $320 $328 $398 forward $220 $-1 #
coedge $-1 $321 $392 $323 $395 forward $220 $-1 #
straight-curve $-1 40.731350304360689 21.688462516253512 10.660873941673195 0 -1 0 I I #
edge $-1 $401 -53.9371929074984 $324 -40.731350304360689 $323 $424 forward 7 unknown #
point $-1 40.731350304360689 28.978792687113163 10.660873941673195 #
straight-curve $-1 23.667135802964772 24.22989553281181 10.660873941673199 1 0 0 I I #
edge $-1 $329 24.229895532811817 $401 28.978792687113163 $328 $425 forward 7 unknown #
point $-1 53.9371929074984 24.229895532811817 10.660873941673195 #
point $-1 40.731350304360689 24.229895532811817 10.660873941673195 #
vertex $-1 $398 $426 #
straight-curve $-1 53.9371929074984 28.978792687113163 0 0 0 -1 I I #
vertex $-1 $336 $427 #
point $-1 45.504448190971459 25.869549396408924 7.9488715315570166 #
vertex $-1 $340 $428 #
point $-1 51.164095020887615 25.869549396408924 7.9488715315570166 #
straight-curve $-1 -53.9371929074984 28.978792687113163 0 0 0 -1 I I #
point $-1 -53.9371929074984 -28.978792687113163 -10.660873941673195 #
straight-curve $-1 -53.9371929074984 0 -10.660873941673195 0 1 0 I I #
point $-1 -53.9371929074984 28.978792687113163 -10.660873941673195 #
edge $-1 $376 -1.5724683323923685 $365 1.5724683323923685 $362 $429 forward 7 unknown #
straight-curve $-1 -65.624714833591014 -7.6570448037667731 0 0 0 -1 I I #
straight-curve $-1 -59.780953870544707 -10.80198146855151 10.660873941673195 1 0 0 I I #
point $-1 -65.624714833591014 -10.80198146855151 10.660873941673195 #
point $-1 -65.624714833591014 -10.80198146855151 -10.660873941673195 #
straight-curve $-1 -65.624714833591014 -9.2295131361591416 -10.660873941673195 0 1 0 I I #
point $-1 -65.624714833591014 -7.6570448037667731 -10.660873941673195 #
point $-1 -65.624714833591014 -7.6570448037667731 10.660873941673195 #
straight-curve $-1 0 -28.978792687113163 10.660873941673195 1 0 0 I I #
straight-curve $-1 53.9371929074984 -28.978792687113163 0 0 0 -1 I I #
point $-1 53.9371929074984 -28.978792687113163 10.660873941673195 #
point $-1 44.504448190971459 -25.295972952665682 7.1297194924441003 #
point $-1 50.164095020887615 -25.295972952665682 7.1297194924441003 #
straight-curve $-1 0 28.978792687113163 10.660873941673195 -1 0 0 I I #
straight-curve $-1 53.9371929074984 0 10.660873941673195 0 1 0 I I #
point $-1 53.9371929074984 28.978792687113163 10.660873941673195 #
point $-1 44.504448190971459 25.295972952665682 7.1297194924440968 #
point $-1 50.164095020887615 25.295972952665682 7.1297194924440968 #
straight-curve $-1 -65.624714833591014 -9.2295131361591416 10.660873941673195 0 -1 0 I I #
End-of-ACIS-data 