500 0 13 0           
7 Unknown 11 ACIS 5.0 NT 24 Thu Mar 25 17:55:16 1999 
-1 9.9999999999999995e-007 1e-010 
body $-1 $13 $-1 $14 #
body $-1 $15 $-1 $16 #
body $-1 $17 $-1 $18 #
body $-1 $19 $-1 $20 #
body $-1 $21 $-1 $22 #
body $-1 $23 $-1 $24 #
body $-1 $25 $-1 $26 #
body $-1 $27 $-1 $28 #
body $-1 $29 $-1 $30 #
body $-1 $31 $-1 $32 #
body $-1 $33 $-1 $34 #
body $-1 $35 $-1 $36 #
body $-1 $37 $-1 $38 #
lump $-1 $-1 $39 $0 #
transform $-1 1 0 0 0 1 0 0 0 1 40.53468428601947 27.036771732229244 9.9771273767691984 1 rotate no_reflect no_shear #
lump $-1 $-1 $40 $1 #
transform $-1 1 0 0 0 1 0 0 0 1 1.5 6.1692152944118925 9.9771273767691984 1 rotate no_reflect no_shear #
lump $-1 $-1 $41 $2 #
transform $-1 0.70710677298230451 0 0.70710678939079041 0 1 0 -0.70710678939079041 0 0.70710677298230451 -57.324700928913103 15.383612786191115 69.25547374451881 1 rotate no_reflect no_shear #
lump $-1 $-1 $42 $3 #
transform $-1 0.70710677298230451 0 0.70710678939079041 0 -1 0 0.70710678939079041 0 -0.70710677298230451 5.4651913431727657 15.383612786191115 14.489063351000269 1 rotate no_reflect no_shear #
lump $-1 $-1 $43 $4 #
transform $-1 0.70710677298230451 0 0.70710678939079041 0 1 0 -0.70710678939079041 0 0.70710677298230451 -57.324700928913103 27.2651956131578 69.25547374451881 1 rotate no_reflect no_shear #
lump $-1 $-1 $44 $5 #
transform $-1 0.70710677298230451 0 0.70710678939079041 0 -1 0 0.70710678939079041 0 -0.70710677298230451 5.4651913431727657 27.2651956131578 14.489063351000269 1 rotate no_reflect no_shear #
lump $-1 $-1 $45 $6 #
transform $-1 0.70710677298230451 0 0.70710678939079041 0 1 0 -0.70710678939079041 0 0.70710677298230451 -57.324700928913103 39.146778440124486 69.25547374451881 1 rotate no_reflect no_shear #
lump $-1 $-1 $46 $7 #
transform $-1 0.70710677298230451 0 0.70710678939079041 0 -1 0 0.70710678939079041 0 -0.70710677298230451 5.4651913431727657 39.146778440124486 14.489063351000269 1 rotate no_reflect no_shear #
lump $-1 $-1 $47 $8 #
transform $-1 0.70710677298230451 0 0.70710678939079041 0 1 0 -0.70710678939079041 0 0.70710677298230451 -57.324700928913103 51.028361267091171 69.25547374451881 1 rotate no_reflect no_shear #
lump $-1 $-1 $48 $9 #
transform $-1 0.70710677298230451 0 0.70710678939079041 0 -1 0 0.70710678939079041 0 -0.70710677298230451 5.4651913431727657 51.028361267091171 14.489063351000269 1 rotate no_reflect no_shear #
lump $-1 $-1 $49 $10 #
transform $-1 0.68199835119979291 0 -0.73135370988377701 0 1 0 0.73135370988377701 0 0.68199835119979291 85.070576336196041 44.248664594916406 131.48121982816633 1 rotate no_reflect no_shear #
lump $-1 $-1 $50 $11 #
transform $-1 0.68199835119979291 0 -0.73135370988377701 0 -1 0 -0.73135370988377701 0 -0.68199835119979291 78.353387435563135 42.018553310542728 17.222508400857542 1 rotate no_reflect no_shear #
lump $-1 $-1 $51 $12 #
transform $-1 0.68199835119979291 0 -0.73135370988377701 0 -1 0 -0.73135370988377701 0 -0.68199835119979291 78.353387435563135 46.47877587929009 17.222508400857542 1 rotate no_reflect no_shear #
shell $-1 $-1 $-1 $52 $-1 $13 #
shell $-1 $-1 $-1 $53 $-1 $15 #
shell $-1 $-1 $-1 $54 $-1 $17 #
shell $-1 $-1 $-1 $55 $-1 $19 #
shell $-1 $-1 $-1 $56 $-1 $21 #
shell $-1 $-1 $-1 $57 $-1 $23 #
shell $-1 $-1 $-1 $58 $-1 $25 #
shell $-1 $-1 $-1 $59 $-1 $27 #
shell $-1 $-1 $-1 $60 $-1 $29 #
shell $-1 $-1 $-1 $61 $-1 $31 #
shell $-1 $-1 $-1 $62 $-1 $33 #
shell $-1 $-1 $-1 $63 $-1 $35 #
shell $-1 $-1 $-1 $64 $-1 $37 #
face $-1 $65 $66 $39 $-1 $67 forward single #
face $-1 $68 $69 $40 $-1 $70 forward single #
face $-1 $71 $72 $41 $-1 $73 forward single #
face $-1 $74 $75 $42 $-1 $76 forward single #
face $-1 $77 $78 $43 $-1 $79 forward single #
face $-1 $80 $81 $44 $-1 $82 forward single #
face $-1 $83 $84 $45 $-1 $85 forward single #
face $-1 $86 $87 $46 $-1 $88 forward single #
face $-1 $89 $90 $47 $-1 $91 forward single #
face $-1 $92 $93 $48 $-1 $94 forward single #
face $-1 $95 $96 $49 $-1 $97 forward single #
face $-1 $98 $99 $50 $-1 $100 forward single #
face $-1 $101 $102 $51 $-1 $103 forward single #
face $-1 $104 $105 $39 $-1 $106 reversed single #
loop $-1 $-1 $107 $52 #
plane-surface $-1 0 0 9.9771273767691984 0 0 1 1 0 0 forward_v I I I I #
face $-1 $108 $109 $40 $-1 $110 reversed single #
loop $-1 $-1 $111 $53 #
plane-surface $-1 0 0 9.9771273767691984 0 0 1 1 0 0 forward_v I I I I #
face $-1 $112 $113 $41 $-1 $114 reversed single #
loop $-1 $-1 $115 $54 #
plane-surface $-1 0 0 81.06936857203894 0 0 1 1 0 0 forward_v I I I I #
face $-1 $116 $117 $42 $-1 $118 forward single #
loop $-1 $119 $120 $55 #
cone-surface $-1 0 0 -1.1527451399273669 0 0 1 0.5 0 0 1 I I 0 1 0.5 forward I I I I #
face $-1 $121 $122 $43 $-1 $123 reversed single #
loop $-1 $-1 $124 $56 #
plane-surface $-1 0 0 81.06936857203894 0 0 1 1 0 0 forward_v I I I I #
face $-1 $125 $126 $44 $-1 $127 forward single #
loop $-1 $128 $129 $57 #
cone-surface $-1 0 0 -1.1527451399273669 0 0 1 0.5 0 0 1 I I 0 1 0.5 forward I I I I #
face $-1 $130 $131 $45 $-1 $132 reversed single #
loop $-1 $-1 $133 $58 #
plane-surface $-1 0 0 81.06936857203894 0 0 1 1 0 0 forward_v I I I I #
face $-1 $134 $135 $46 $-1 $136 forward single #
loop $-1 $137 $138 $59 #
cone-surface $-1 0 0 -1.1527451399273669 0 0 1 0.5 0 0 1 I I 0 1 0.5 forward I I I I #
face $-1 $139 $140 $47 $-1 $141 reversed single #
loop $-1 $-1 $142 $60 #
plane-surface $-1 0 0 81.06936857203894 0 0 1 1 0 0 forward_v I I I I #
face $-1 $143 $144 $48 $-1 $145 forward single #
loop $-1 $146 $147 $61 #
cone-surface $-1 0 0 -1.1527451399273669 0 0 1 0.5 0 0 1 I I 0 1 0.5 forward I I I I #
face $-1 $148 $149 $49 $-1 $150 reversed single #
loop $-1 $-1 $151 $62 #
plane-surface $-1 0 0 81.06936857203894 0 0 1 1 0 0 forward_v I I I I #
face $-1 $152 $153 $50 $-1 $154 forward single #
loop $-1 $155 $156 $63 #
cone-surface $-1 0 0 -1.1337626270332954 0 0 1 1 0 0 1 I I 0 1 1 forward I I I I #
face $-1 $157 $158 $51 $-1 $159 forward single #
loop $-1 $160 $161 $64 #
cone-surface $-1 0 0 -1.1337626270332954 0 0 1 1 0 0 1 I I 0 1 1 forward I I I I #
face $-1 $162 $163 $39 $-1 $164 reversed single #
loop $-1 $-1 $165 $65 #
plane-surface $-1 0 0 -9.9771273767691984 0 0 1 1 0 0 forward_v I I I I #
coedge $-1 $166 $167 $168 $169 forward $66 $-1 #
face $-1 $170 $171 $40 $-1 $172 reversed single #
loop $-1 $-1 $173 $68 #
plane-surface $-1 0 0 -9.9771273767691984 0 0 1 1 0 0 forward_v I I I I #
coedge $-1 $174 $175 $176 $177 forward $69 $-1 #
face $-1 $178 $179 $41 $-1 $180 reversed single #
loop $-1 $-1 $181 $71 #
plane-surface $-1 0 0 -81.06936857203894 0 0 1 1 0 0 forward_v I I I I #
coedge $-1 $182 $183 $184 $185 forward $72 $-1 #
face $-1 $-1 $186 $42 $-1 $187 forward single #
loop $-1 $-1 $188 $74 #
plane-surface $-1 0 0 -2.055490279854733 0 0 -1 -1 0 0 forward_v I I I I #
loop $-1 $-1 $189 $55 #
coedge $-1 $120 $120 $188 $190 reversed $75 $-1 #
face $-1 $191 $192 $43 $-1 $193 reversed single #
loop $-1 $-1 $194 $77 #
plane-surface $-1 0 0 -81.06936857203894 0 0 1 1 0 0 forward_v I I I I #
coedge $-1 $195 $196 $197 $198 forward $78 $-1 #
face $-1 $-1 $199 $44 $-1 $200 forward single #
loop $-1 $-1 $201 $80 #
plane-surface $-1 0 0 -2.055490279854733 0 0 -1 -1 0 0 forward_v I I I I #
loop $-1 $-1 $202 $57 #
coedge $-1 $129 $129 $201 $203 reversed $81 $-1 #
face $-1 $204 $205 $45 $-1 $206 reversed single #
loop $-1 $-1 $207 $83 #
plane-surface $-1 0 0 -81.06936857203894 0 0 1 1 0 0 forward_v I I I I #
coedge $-1 $208 $209 $210 $211 forward $84 $-1 #
face $-1 $-1 $212 $46 $-1 $213 forward single #
loop $-1 $-1 $214 $86 #
plane-surface $-1 0 0 -2.055490279854733 0 0 -1 -1 0 0 forward_v I I I I #
loop $-1 $-1 $215 $59 #
coedge $-1 $138 $138 $214 $216 reversed $87 $-1 #
face $-1 $217 $218 $47 $-1 $219 reversed single #
loop $-1 $-1 $220 $89 #
plane-surface $-1 0 0 -81.06936857203894 0 0 1 1 0 0 forward_v I I I I #
coedge $-1 $221 $222 $223 $224 forward $90 $-1 #
face $-1 $-1 $225 $48 $-1 $226 forward single #
loop $-1 $-1 $227 $92 #
plane-surface $-1 0 0 -2.055490279854733 0 0 -1 -1 0 0 forward_v I I I I #
loop $-1 $-1 $228 $61 #
coedge $-1 $147 $147 $227 $229 reversed $93 $-1 #
face $-1 $230 $231 $49 $-1 $232 reversed single #
loop $-1 $-1 $233 $95 #
plane-surface $-1 0 0 -81.06936857203894 0 0 1 1 0 0 forward_v I I I I #
coedge $-1 $234 $235 $236 $237 forward $96 $-1 #
face $-1 $-1 $238 $50 $-1 $239 forward single #
loop $-1 $-1 $240 $98 #
plane-surface $-1 0 0 -1.7675252540665909 0 0 -1 -1 0 0 forward_v I I I I #
loop $-1 $-1 $241 $63 #
coedge $-1 $156 $156 $240 $242 reversed $99 $-1 #
face $-1 $-1 $243 $51 $-1 $244 forward single #
loop $-1 $-1 $245 $101 #
plane-surface $-1 0 0 -1.7675252540665909 0 0 -1 -1 0 0 forward_v I I I I #
loop $-1 $-1 $246 $64 #
coedge $-1 $161 $161 $245 $247 reversed $102 $-1 #
face $-1 $248 $249 $39 $-1 $250 reversed single #
loop $-1 $-1 $251 $104 #
plane-surface $-1 0 -27.036771732229244 0 0 1 0 0 0 1 forward_v I I I I #
coedge $-1 $252 $253 $254 $255 forward $105 $-1 #
coedge $-1 $256 $107 $257 $258 forward $66 $-1 #
coedge $-1 $107 $256 $259 $260 forward $66 $-1 #
coedge $-1 $261 $262 $107 $169 reversed $263 $-1 #
edge $-1 $264 -27.036771732229244 $265 27.036771732229244 $168 $266 forward 7 unknown #
face $-1 $267 $268 $40 $-1 $269 reversed single #
loop $-1 $-1 $270 $108 #
plane-surface $-1 0 -6.1692152944118925 0 0 1 0 0 0 1 forward_v I I I I #
coedge $-1 $271 $272 $273 $274 forward $109 $-1 #
coedge $-1 $275 $111 $276 $277 forward $69 $-1 #
coedge $-1 $111 $275 $278 $279 forward $69 $-1 #
coedge $-1 $280 $281 $111 $177 reversed $282 $-1 #
edge $-1 $283 -6.1692152944118925 $284 6.1692152944118925 $176 $285 forward 7 unknown #
face $-1 $286 $287 $41 $-1 $288 reversed single #
loop $-1 $-1 $289 $112 #
plane-surface $-1 0 -3.045182197367331 0 0 1 0 0 0 1 forward_v I I I I #
coedge $-1 $290 $291 $292 $293 forward $113 $-1 #
coedge $-1 $294 $115 $295 $296 forward $72 $-1 #
coedge $-1 $115 $294 $297 $298 forward $72 $-1 #
coedge $-1 $299 $300 $115 $185 reversed $301 $-1 #
edge $-1 $302 -3.045182197367331 $303 3.045182197367331 $184 $304 forward 7 unknown #
loop $-1 $305 $306 $116 #
cone-surface $-1 0 0 0 0 0 1 0.25 0 0 1 I I -0.70710678118654746 0.70710678118654746 0.25 forward I I I I #
coedge $-1 $188 $188 $120 $190 forward $117 $-1 #
coedge $-1 $189 $189 $306 $307 forward $119 $-1 #
edge $-1 $308 0 $308 6.2831853071796004 $188 $309 forward 7 unknown #
face $-1 $310 $311 $43 $-1 $312 reversed single #
loop $-1 $-1 $313 $121 #
plane-surface $-1 0 -3.045182197367331 0 0 1 0 0 0 1 forward_v I I I I #
coedge $-1 $314 $315 $316 $317 forward $122 $-1 #
coedge $-1 $318 $124 $319 $320 forward $78 $-1 #
coedge $-1 $124 $318 $321 $322 forward $78 $-1 #
coedge $-1 $323 $324 $124 $198 reversed $325 $-1 #
edge $-1 $326 -3.045182197367331 $327 3.045182197367331 $197 $328 forward 7 unknown #
loop $-1 $329 $330 $125 #
cone-surface $-1 0 0 0 0 0 1 0.25 0 0 1 I I -0.70710678118654746 0.70710678118654746 0.25 forward I I I I #
coedge $-1 $201 $201 $129 $203 forward $126 $-1 #
coedge $-1 $202 $202 $330 $331 forward $128 $-1 #
edge $-1 $332 0 $332 6.2831853071796004 $201 $333 forward 7 unknown #
face $-1 $334 $335 $45 $-1 $336 reversed single #
loop $-1 $-1 $337 $130 #
plane-surface $-1 0 -3.045182197367331 0 0 1 0 0 0 1 forward_v I I I I #
coedge $-1 $338 $339 $340 $341 forward $131 $-1 #
coedge $-1 $342 $133 $343 $344 forward $84 $-1 #
coedge $-1 $133 $342 $345 $346 forward $84 $-1 #
coedge $-1 $347 $348 $133 $211 reversed $349 $-1 #
edge $-1 $350 -3.045182197367331 $351 3.045182197367331 $210 $352 forward 7 unknown #
loop $-1 $353 $354 $134 #
cone-surface $-1 0 0 0 0 0 1 0.25 0 0 1 I I -0.70710678118654746 0.70710678118654746 0.25 forward I I I I #
coedge $-1 $214 $214 $138 $216 forward $135 $-1 #
coedge $-1 $215 $215 $354 $355 forward $137 $-1 #
edge $-1 $356 0 $356 6.2831853071796004 $214 $357 forward 7 unknown #
face $-1 $358 $359 $47 $-1 $360 reversed single #
loop $-1 $-1 $361 $139 #
plane-surface $-1 0 -3.045182197367331 0 0 1 0 0 0 1 forward_v I I I I #
coedge $-1 $362 $363 $364 $365 forward $140 $-1 #
coedge $-1 $366 $142 $367 $368 forward $90 $-1 #
coedge $-1 $142 $366 $369 $370 forward $90 $-1 #
coedge $-1 $371 $372 $142 $224 reversed $373 $-1 #
edge $-1 $374 -3.045182197367331 $375 3.045182197367331 $223 $376 forward 7 unknown #
loop $-1 $377 $378 $143 #
cone-surface $-1 0 0 0 0 0 1 0.25 0 0 1 I I -0.70710678118654746 0.70710678118654746 0.25 forward I I I I #
coedge $-1 $227 $227 $147 $229 forward $144 $-1 #
coedge $-1 $228 $228 $378 $379 forward $146 $-1 #
edge $-1 $380 0 $380 6.2831853071796004 $227 $381 forward 7 unknown #
face $-1 $382 $383 $49 $-1 $384 reversed single #
loop $-1 $-1 $385 $148 #
plane-surface $-1 0 -5.2035929968719223 0 0 1 0 0 0 1 forward_v I I I I #
coedge $-1 $386 $387 $388 $389 forward $149 $-1 #
coedge $-1 $390 $151 $391 $392 forward $96 $-1 #
coedge $-1 $151 $390 $393 $394 forward $96 $-1 #
coedge $-1 $395 $396 $151 $237 reversed $397 $-1 #
edge $-1 $398 -5.2035929968719223 $399 5.2035929968719223 $236 $400 forward 7 unknown #
loop $-1 $401 $402 $152 #
cone-surface $-1 0 0 0 0 0 1 0.5 0 0 1 I I -0.70710678118654746 0.70710678118654746 0.5 forward I I I I #
coedge $-1 $240 $240 $156 $242 forward $153 $-1 #
coedge $-1 $241 $241 $402 $403 forward $155 $-1 #
edge $-1 $404 0 $404 6.2831853071796004 $240 $405 forward 7 unknown #
loop $-1 $406 $407 $157 #
cone-surface $-1 0 0 0 0 0 1 0.5 0 0 1 I I -0.70710678118654746 0.70710678118654746 0.5 forward I I I I #
coedge $-1 $245 $245 $161 $247 forward $158 $-1 #
coedge $-1 $246 $246 $407 $408 forward $160 $-1 #
edge $-1 $409 0 $409 6.2831853071796004 $245 $410 forward 7 unknown #
face $-1 $411 $412 $39 $-1 $413 reversed single #
loop $-1 $-1 $414 $162 #
plane-surface $-1 -40.53468428601947 0 0 1 0 0 0 0 -1 forward_v I I I I #
coedge $-1 $415 $259 $416 $417 forward $163 $-1 #
coedge $-1 $418 $165 $415 $419 forward $105 $-1 #
coedge $-1 $165 $418 $420 $421 forward $105 $-1 #
coedge $-1 $262 $261 $165 $255 reversed $263 $-1 #
edge $-1 $422 -27.036771732229244 $423 27.036771732229244 $254 $424 forward 7 unknown #
coedge $-1 $167 $166 $425 $426 forward $66 $-1 #
coedge $-1 $427 $428 $166 $258 reversed $412 $-1 #
edge $-1 $265 -40.53468428601947 $429 40.53468428601947 $257 $430 forward 7 unknown #
coedge $-1 $251 $431 $167 $260 reversed $163 $-1 #
edge $-1 $432 -40.53468428601947 $264 40.53468428601947 $259 $433 forward 7 unknown #
coedge $-1 $254 $168 $431 $434 forward $263 $-1 #
coedge $-1 $168 $254 $427 $435 reversed $263 $-1 #
loop $-1 $-1 $261 $411 #
vertex $-1 $169 $436 #
vertex $-1 $169 $437 #
straight-curve $-1 40.53468428601947 0 9.9771273767691984 0 1 0 I I #
face $-1 $438 $439 $40 $-1 $440 reversed single #
loop $-1 $-1 $441 $170 #
plane-surface $-1 -1.5 0 0 1 0 0 0 0 -1 forward_v I I I I #
coedge $-1 $442 $278 $443 $444 forward $171 $-1 #
coedge $-1 $445 $173 $442 $446 forward $109 $-1 #
coedge $-1 $173 $445 $447 $448 forward $109 $-1 #
coedge $-1 $281 $280 $173 $274 reversed $282 $-1 #
edge $-1 $449 -6.1692152944118925 $450 6.1692152944118925 $273 $451 forward 7 unknown #
coedge $-1 $175 $174 $452 $453 forward $69 $-1 #
coedge $-1 $454 $455 $174 $277 reversed $439 $-1 #
edge $-1 $284 -1.5 $456 1.5 $276 $457 forward 7 unknown #
coedge $-1 $270 $458 $175 $279 reversed $171 $-1 #
edge $-1 $459 -1.5 $283 1.5 $278 $460 forward 7 unknown #
coedge $-1 $273 $176 $458 $461 forward $282 $-1 #
coedge $-1 $176 $273 $454 $462 reversed $282 $-1 #
loop $-1 $-1 $280 $438 #
vertex $-1 $177 $463 #
vertex $-1 $177 $464 #
straight-curve $-1 1.5 0 9.9771273767691984 0 1 0 I I #
face $-1 $465 $466 $41 $-1 $467 reversed single #
loop $-1 $-1 $468 $178 #
plane-surface $-1 -162.13873714407788 0 0 1 0 0 0 0 -1 forward_v I I I I #
coedge $-1 $469 $297 $470 $471 forward $179 $-1 #
coedge $-1 $472 $181 $469 $473 forward $113 $-1 #
coedge $-1 $181 $472 $474 $475 forward $113 $-1 #
coedge $-1 $300 $299 $181 $293 reversed $301 $-1 #
edge $-1 $476 -3.045182197367331 $477 3.045182197367331 $292 $478 forward 7 unknown #
coedge $-1 $183 $182 $479 $480 forward $72 $-1 #
coedge $-1 $481 $482 $182 $296 reversed $466 $-1 #
edge $-1 $303 -162.13873714407788 $483 162.13873714407788 $295 $484 forward 7 unknown #
coedge $-1 $289 $485 $183 $298 reversed $179 $-1 #
edge $-1 $486 -162.13873714407788 $302 162.13873714407788 $297 $487 forward 7 unknown #
coedge $-1 $292 $184 $485 $488 forward $301 $-1 #
coedge $-1 $184 $292 $481 $489 reversed $301 $-1 #
loop $-1 $-1 $299 $465 #
vertex $-1 $185 $490 #
vertex $-1 $185 $491 #
straight-curve $-1 162.13873714407788 0 81.06936857203894 0 1 0 I I #
loop $-1 $-1 $492 $116 #
coedge $-1 $306 $306 $189 $307 reversed $186 $-1 #
edge $-1 $493 0 $493 6.2831853071796004 $306 $494 forward 7 unknown #
vertex $-1 $190 $495 #
ellipse-curve $-1 0 0 -2.055490279854733 0 0 -1 0.5 0 0 1 I I #
face $-1 $496 $497 $43 $-1 $498 reversed single #
loop $-1 $-1 $499 $191 #
plane-surface $-1 -162.13873714407788 0 0 1 0 0 0 0 -1 forward_v I I I I #
coedge $-1 $500 $321 $501 $502 forward $192 $-1 #
coedge $-1 $503 $194 $500 $504 forward $122 $-1 #
coedge $-1 $194 $503 $505 $506 forward $122 $-1 #
coedge $-1 $324 $323 $194 $317 reversed $325 $-1 #
edge $-1 $507 -3.045182197367331 $508 3.045182197367331 $316 $509 forward 7 unknown #
coedge $-1 $196 $195 $510 $511 forward $78 $-1 #
coedge $-1 $512 $513 $195 $320 reversed $497 $-1 #
edge $-1 $327 -162.13873714407788 $514 162.13873714407788 $319 $515 forward 7 unknown #
coedge $-1 $313 $516 $196 $322 reversed $192 $-1 #
edge $-1 $517 -162.13873714407788 $326 162.13873714407788 $321 $518 forward 7 unknown #
coedge $-1 $316 $197 $516 $519 forward $325 $-1 #
coedge $-1 $197 $316 $512 $520 reversed $325 $-1 #
loop $-1 $-1 $323 $496 #
vertex $-1 $198 $521 #
vertex $-1 $198 $522 #
straight-curve $-1 162.13873714407788 0 81.06936857203894 0 1 0 I I #
loop $-1 $-1 $523 $125 #
coedge $-1 $330 $330 $202 $331 reversed $199 $-1 #
edge $-1 $524 0 $524 6.2831853071796004 $330 $525 forward 7 unknown #
vertex $-1 $203 $526 #
ellipse-curve $-1 0 0 -2.055490279854733 0 0 -1 0.5 0 0 1 I I #
face $-1 $527 $528 $45 $-1 $529 reversed single #
loop $-1 $-1 $530 $204 #
plane-surface $-1 -162.13873714407788 0 0 1 0 0 0 0 -1 forward_v I I I I #
coedge $-1 $531 $345 $532 $533 forward $205 $-1 #
coedge $-1 $534 $207 $531 $535 forward $131 $-1 #
coedge $-1 $207 $534 $536 $537 forward $131 $-1 #
coedge $-1 $348 $347 $207 $341 reversed $349 $-1 #
edge $-1 $538 -3.045182197367331 $539 3.045182197367331 $340 $540 forward 7 unknown #
coedge $-1 $209 $208 $541 $542 forward $84 $-1 #
coedge $-1 $543 $544 $208 $344 reversed $528 $-1 #
edge $-1 $351 -162.13873714407788 $545 162.13873714407788 $343 $546 forward 7 unknown #
coedge $-1 $337 $547 $209 $346 reversed $205 $-1 #
edge $-1 $548 -162.13873714407788 $350 162.13873714407788 $345 $549 forward 7 unknown #
coedge $-1 $340 $210 $547 $550 forward $349 $-1 #
coedge $-1 $210 $340 $543 $551 reversed $349 $-1 #
loop $-1 $-1 $347 $527 #
vertex $-1 $211 $552 #
vertex $-1 $211 $553 #
straight-curve $-1 162.13873714407788 0 81.06936857203894 0 1 0 I I #
loop $-1 $-1 $554 $134 #
coedge $-1 $354 $354 $215 $355 reversed $212 $-1 #
edge $-1 $555 0 $555 6.2831853071796004 $354 $556 forward 7 unknown #
vertex $-1 $216 $557 #
ellipse-curve $-1 0 0 -2.055490279854733 0 0 -1 0.5 0 0 1 I I #
face $-1 $558 $559 $47 $-1 $560 reversed single #
loop $-1 $-1 $561 $217 #
plane-surface $-1 -162.13873714407788 0 0 1 0 0 0 0 -1 forward_v I I I I #
coedge $-1 $562 $369 $563 $564 forward $218 $-1 #
coedge $-1 $565 $220 $562 $566 forward $140 $-1 #
coedge $-1 $220 $565 $567 $568 forward $140 $-1 #
coedge $-1 $372 $371 $220 $365 reversed $373 $-1 #
edge $-1 $569 -3.045182197367331 $570 3.045182197367331 $364 $571 forward 7 unknown #
coedge $-1 $222 $221 $572 $573 forward $90 $-1 #
coedge $-1 $574 $575 $221 $368 reversed $559 $-1 #
edge $-1 $375 -162.13873714407788 $576 162.13873714407788 $367 $577 forward 7 unknown #
coedge $-1 $361 $578 $222 $370 reversed $218 $-1 #
edge $-1 $579 -162.13873714407788 $374 162.13873714407788 $369 $580 forward 7 unknown #
coedge $-1 $364 $223 $578 $581 forward $373 $-1 #
coedge $-1 $223 $364 $574 $582 reversed $373 $-1 #
loop $-1 $-1 $371 $558 #
vertex $-1 $224 $583 #
vertex $-1 $224 $584 #
straight-curve $-1 162.13873714407788 0 81.06936857203894 0 1 0 I I #
loop $-1 $-1 $585 $143 #
coedge $-1 $378 $378 $228 $379 reversed $225 $-1 #
edge $-1 $586 0 $586 6.2831853071796004 $378 $587 forward 7 unknown #
vertex $-1 $229 $588 #
ellipse-curve $-1 0 0 -2.055490279854733 0 0 -1 0.5 0 0 1 I I #
face $-1 $589 $590 $49 $-1 $591 reversed single #
loop $-1 $-1 $592 $230 #
plane-surface $-1 -162.13873714407788 0 0 1 0 0 0 0 -1 forward_v I I I I #
coedge $-1 $593 $393 $594 $595 forward $231 $-1 #
coedge $-1 $596 $233 $593 $597 forward $149 $-1 #
coedge $-1 $233 $596 $598 $599 forward $149 $-1 #
coedge $-1 $396 $395 $233 $389 reversed $397 $-1 #
edge $-1 $600 -5.2035929968719223 $601 5.2035929968719223 $388 $602 forward 7 unknown #
coedge $-1 $235 $234 $603 $604 forward $96 $-1 #
coedge $-1 $605 $606 $234 $392 reversed $590 $-1 #
edge $-1 $399 -162.13873714407788 $607 162.13873714407788 $391 $608 forward 7 unknown #
coedge $-1 $385 $609 $235 $394 reversed $231 $-1 #
edge $-1 $610 -162.13873714407788 $398 162.13873714407788 $393 $611 forward 7 unknown #
coedge $-1 $388 $236 $609 $612 forward $397 $-1 #
coedge $-1 $236 $388 $605 $613 reversed $397 $-1 #
loop $-1 $-1 $395 $589 #
vertex $-1 $237 $614 #
vertex $-1 $237 $615 #
straight-curve $-1 162.13873714407788 0 81.06936857203894 0 1 0 I I #
loop $-1 $-1 $616 $152 #
coedge $-1 $402 $402 $241 $403 reversed $238 $-1 #
edge $-1 $617 0 $617 6.2831853071796004 $402 $618 forward 7 unknown #
vertex $-1 $242 $619 #
ellipse-curve $-1 0 0 -1.7675252540665909 0 0 -1 1 0 0 1 I I #
loop $-1 $-1 $620 $157 #
coedge $-1 $407 $407 $246 $408 reversed $243 $-1 #
edge $-1 $621 0 $621 6.2831853071796004 $407 $622 forward 7 unknown #
vertex $-1 $247 $623 #
ellipse-curve $-1 0 0 -1.7675252540665909 0 0 -1 1 0 0 1 I I #
face $-1 $-1 $263 $39 $-1 $624 reversed single #
loop $-1 $-1 $427 $248 #
plane-surface $-1 0 27.036771732229244 0 0 -1 0 0 0 -1 forward_v I I I I #
coedge $-1 $625 $425 $428 $626 forward $249 $-1 #
coedge $-1 $431 $251 $252 $419 reversed $163 $-1 #
coedge $-1 $425 $625 $251 $417 reversed $249 $-1 #
edge $-1 $432 -9.9771273767691984 $627 9.9771273767691984 $416 $628 forward 7 unknown #
coedge $-1 $253 $252 $625 $629 forward $105 $-1 #
edge $-1 $423 -40.53468428601947 $627 40.53468428601947 $415 $630 forward 7 unknown #
coedge $-1 $428 $427 $253 $421 reversed $412 $-1 #
edge $-1 $631 -40.53468428601947 $422 40.53468428601947 $420 $632 forward 7 unknown #
vertex $-1 $255 $633 #
vertex $-1 $434 $634 #
straight-curve $-1 40.53468428601947 0 -9.9771273767691984 0 -1 0 I I #
coedge $-1 $414 $416 $256 $426 reversed $249 $-1 #
edge $-1 $429 -27.036771732229244 $432 27.036771732229244 $425 $635 forward 7 unknown #
coedge $-1 $420 $257 $262 $435 forward $412 $-1 #
coedge $-1 $257 $420 $414 $626 reversed $412 $-1 #
vertex $-1 $258 $636 #
straight-curve $-1 0 27.036771732229244 9.9771273767691984 -1 0 0 I I #
coedge $-1 $259 $415 $261 $434 reversed $163 $-1 #
vertex $-1 $426 $637 #
straight-curve $-1 0 -27.036771732229244 9.9771273767691984 1 0 0 I I #
edge $-1 $264 -9.9771273767691984 $423 9.9771273767691984 $261 $638 forward 7 unknown #
edge $-1 $265 -9.9771273767691984 $422 9.9771273767691984 $262 $639 forward 7 unknown #
point $-1 40.53468428601947 -27.036771732229244 9.9771273767691984 #
point $-1 40.53468428601947 27.036771732229244 9.9771273767691984 #
face $-1 $-1 $282 $40 $-1 $640 reversed single #
loop $-1 $-1 $454 $267 #
plane-surface $-1 0 6.1692152944118925 0 0 -1 0 0 0 -1 forward_v I I I I #
coedge $-1 $641 $452 $455 $642 forward $268 $-1 #
coedge $-1 $458 $270 $271 $446 reversed $171 $-1 #
coedge $-1 $452 $641 $270 $444 reversed $268 $-1 #
edge $-1 $459 -9.9771273767691984 $643 9.9771273767691984 $443 $644 forward 7 unknown #
coedge $-1 $272 $271 $641 $645 forward $109 $-1 #
edge $-1 $450 -1.5 $643 1.5 $442 $646 forward 7 unknown #
coedge $-1 $455 $454 $272 $448 reversed $439 $-1 #
edge $-1 $647 -1.5 $449 1.5 $447 $648 forward 7 unknown #
vertex $-1 $274 $649 #
vertex $-1 $461 $650 #
straight-curve $-1 1.5 0 -9.9771273767691984 0 -1 0 I I #
coedge $-1 $441 $443 $275 $453 reversed $268 $-1 #
edge $-1 $456 -6.1692152944118925 $459 6.1692152944118925 $452 $651 forward 7 unknown #
coedge $-1 $447 $276 $281 $462 forward $439 $-1 #
coedge $-1 $276 $447 $441 $642 reversed $439 $-1 #
vertex $-1 $277 $652 #
straight-curve $-1 0 6.1692152944118925 9.9771273767691984 -1 0 0 I I #
coedge $-1 $278 $442 $280 $461 reversed $171 $-1 #
vertex $-1 $453 $653 #
straight-curve $-1 0 -6.1692152944118925 9.9771273767691984 1 0 0 I I #
edge $-1 $283 -9.9771273767691984 $450 9.9771273767691984 $280 $654 forward 7 unknown #
edge $-1 $284 -9.9771273767691984 $449 9.9771273767691984 $281 $655 forward 7 unknown #
point $-1 1.5 -6.1692152944118925 9.9771273767691984 #
point $-1 1.5 6.1692152944118925 9.9771273767691984 #
face $-1 $-1 $301 $41 $-1 $656 reversed single #
loop $-1 $-1 $481 $286 #
plane-surface $-1 0 3.045182197367331 0 0 -1 0 0 0 -1 forward_v I I I I #
coedge $-1 $657 $479 $482 $658 forward $287 $-1 #
coedge $-1 $485 $289 $290 $473 reversed $179 $-1 #
coedge $-1 $479 $657 $289 $471 reversed $287 $-1 #
edge $-1 $486 -81.06936857203894 $659 81.06936857203894 $470 $660 forward 7 unknown #
coedge $-1 $291 $290 $657 $661 forward $113 $-1 #
edge $-1 $477 -162.13873714407788 $659 162.13873714407788 $469 $662 forward 7 unknown #
coedge $-1 $482 $481 $291 $475 reversed $466 $-1 #
edge $-1 $663 -162.13873714407788 $476 162.13873714407788 $474 $664 forward 7 unknown #
vertex $-1 $293 $665 #
vertex $-1 $488 $666 #
straight-curve $-1 162.13873714407788 0 -81.06936857203894 0 -1 0 I I #
coedge $-1 $468 $470 $294 $480 reversed $287 $-1 #
edge $-1 $483 -3.045182197367331 $486 3.045182197367331 $479 $667 forward 7 unknown #
coedge $-1 $474 $295 $300 $489 forward $466 $-1 #
coedge $-1 $295 $474 $468 $658 reversed $466 $-1 #
vertex $-1 $296 $668 #
straight-curve $-1 0 3.045182197367331 81.06936857203894 -1 0 0 I I #
coedge $-1 $297 $469 $299 $488 reversed $179 $-1 #
vertex $-1 $480 $669 #
straight-curve $-1 0 -3.045182197367331 81.06936857203894 1 0 0 I I #
edge $-1 $302 -81.06936857203894 $477 81.06936857203894 $299 $670 forward 7 unknown #
edge $-1 $303 -81.06936857203894 $476 81.06936857203894 $300 $671 forward 7 unknown #
point $-1 162.13873714407788 -3.045182197367331 81.06936857203894 #
point $-1 162.13873714407788 3.045182197367331 81.06936857203894 #
coedge $-1 $492 $492 $-1 $672 reversed $305 $-1 #
vertex $-1 $307 $673 #
ellipse-curve $-1 0 0 -0.25 0 0 -1 0.5 0 0 1 I I #
point $-1 0.5 0 -2.055490279854733 #
face $-1 $-1 $325 $43 $-1 $674 reversed single #
loop $-1 $-1 $512 $310 #
plane-surface $-1 0 3.045182197367331 0 0 -1 0 0 0 -1 forward_v I I I I #
coedge $-1 $675 $510 $513 $676 forward $311 $-1 #
coedge $-1 $516 $313 $314 $504 reversed $192 $-1 #
coedge $-1 $510 $675 $313 $502 reversed $311 $-1 #
edge $-1 $517 -81.06936857203894 $677 81.06936857203894 $501 $678 forward 7 unknown #
coedge $-1 $315 $314 $675 $679 forward $122 $-1 #
edge $-1 $508 -162.13873714407788 $677 162.13873714407788 $500 $680 forward 7 unknown #
coedge $-1 $513 $512 $315 $506 reversed $497 $-1 #
edge $-1 $681 -162.13873714407788 $507 162.13873714407788 $505 $682 forward 7 unknown #
vertex $-1 $317 $683 #
vertex $-1 $519 $684 #
straight-curve $-1 162.13873714407788 0 -81.06936857203894 0 -1 0 I I #
coedge $-1 $499 $501 $318 $511 reversed $311 $-1 #
edge $-1 $514 -3.045182197367331 $517 3.045182197367331 $510 $685 forward 7 unknown #
coedge $-1 $505 $319 $324 $520 forward $497 $-1 #
coedge $-1 $319 $505 $499 $676 reversed $497 $-1 #
vertex $-1 $320 $686 #
straight-curve $-1 0 3.045182197367331 81.06936857203894 -1 0 0 I I #
coedge $-1 $321 $500 $323 $519 reversed $192 $-1 #
vertex $-1 $511 $687 #
straight-curve $-1 0 -3.045182197367331 81.06936857203894 1 0 0 I I #
edge $-1 $326 -81.06936857203894 $508 81.06936857203894 $323 $688 forward 7 unknown #
edge $-1 $327 -81.06936857203894 $507 81.06936857203894 $324 $689 forward 7 unknown #
point $-1 162.13873714407788 -3.045182197367331 81.06936857203894 #
point $-1 162.13873714407788 3.045182197367331 81.06936857203894 #
coedge $-1 $523 $523 $-1 $690 reversed $329 $-1 #
vertex $-1 $331 $691 #
ellipse-curve $-1 0 0 -0.25 0 0 -1 0.5 0 0 1 I I #
point $-1 0.5 0 -2.055490279854733 #
face $-1 $-1 $349 $45 $-1 $692 reversed single #
loop $-1 $-1 $543 $334 #
plane-surface $-1 0 3.045182197367331 0 0 -1 0 0 0 -1 forward_v I I I I #
coedge $-1 $693 $541 $544 $694 forward $335 $-1 #
coedge $-1 $547 $337 $338 $535 reversed $205 $-1 #
coedge $-1 $541 $693 $337 $533 reversed $335 $-1 #
edge $-1 $548 -81.06936857203894 $695 81.06936857203894 $532 $696 forward 7 unknown #
coedge $-1 $339 $338 $693 $697 forward $131 $-1 #
edge $-1 $539 -162.13873714407788 $695 162.13873714407788 $531 $698 forward 7 unknown #
coedge $-1 $544 $543 $339 $537 reversed $528 $-1 #
edge $-1 $699 -162.13873714407788 $538 162.13873714407788 $536 $700 forward 7 unknown #
vertex $-1 $341 $701 #
vertex $-1 $550 $702 #
straight-curve $-1 162.13873714407788 0 -81.06936857203894 0 -1 0 I I #
coedge $-1 $530 $532 $342 $542 reversed $335 $-1 #
edge $-1 $545 -3.045182197367331 $548 3.045182197367331 $541 $703 forward 7 unknown #
coedge $-1 $536 $343 $348 $551 forward $528 $-1 #
coedge $-1 $343 $536 $530 $694 reversed $528 $-1 #
vertex $-1 $344 $704 #
straight-curve $-1 0 3.045182197367331 81.06936857203894 -1 0 0 I I #
coedge $-1 $345 $531 $347 $550 reversed $205 $-1 #
vertex $-1 $542 $705 #
straight-curve $-1 0 -3.045182197367331 81.06936857203894 1 0 0 I I #
edge $-1 $350 -81.06936857203894 $539 81.06936857203894 $347 $706 forward 7 unknown #
edge $-1 $351 -81.06936857203894 $538 81.06936857203894 $348 $707 forward 7 unknown #
point $-1 162.13873714407788 -3.045182197367331 81.06936857203894 #
point $-1 162.13873714407788 3.045182197367331 81.06936857203894 #
coedge $-1 $554 $554 $-1 $708 reversed $353 $-1 #
vertex $-1 $355 $709 #
ellipse-curve $-1 0 0 -0.25 0 0 -1 0.5 0 0 1 I I #
point $-1 0.5 0 -2.055490279854733 #
face $-1 $-1 $373 $47 $-1 $710 reversed single #
loop $-1 $-1 $574 $358 #
plane-surface $-1 0 3.045182197367331 0 0 -1 0 0 0 -1 forward_v I I I I #
coedge $-1 $711 $572 $575 $712 forward $359 $-1 #
coedge $-1 $578 $361 $362 $566 reversed $218 $-1 #
coedge $-1 $572 $711 $361 $564 reversed $359 $-1 #
edge $-1 $579 -81.06936857203894 $713 81.06936857203894 $563 $714 forward 7 unknown #
coedge $-1 $363 $362 $711 $715 forward $140 $-1 #
edge $-1 $570 -162.13873714407788 $713 162.13873714407788 $562 $716 forward 7 unknown #
coedge $-1 $575 $574 $363 $568 reversed $559 $-1 #
edge $-1 $717 -162.13873714407788 $569 162.13873714407788 $567 $718 forward 7 unknown #
vertex $-1 $365 $719 #
vertex $-1 $581 $720 #
straight-curve $-1 162.13873714407788 0 -81.06936857203894 0 -1 0 I I #
coedge $-1 $561 $563 $366 $573 reversed $359 $-1 #
edge $-1 $576 -3.045182197367331 $579 3.045182197367331 $572 $721 forward 7 unknown #
coedge $-1 $567 $367 $372 $582 forward $559 $-1 #
coedge $-1 $367 $567 $561 $712 reversed $559 $-1 #
vertex $-1 $368 $722 #
straight-curve $-1 0 3.045182197367331 81.06936857203894 -1 0 0 I I #
coedge $-1 $369 $562 $371 $581 reversed $218 $-1 #
vertex $-1 $573 $723 #
straight-curve $-1 0 -3.045182197367331 81.06936857203894 1 0 0 I I #
edge $-1 $374 -81.06936857203894 $570 81.06936857203894 $371 $724 forward 7 unknown #
edge $-1 $375 -81.06936857203894 $569 81.06936857203894 $372 $725 forward 7 unknown #
point $-1 162.13873714407788 -3.045182197367331 81.06936857203894 #
point $-1 162.13873714407788 3.045182197367331 81.06936857203894 #
coedge $-1 $585 $585 $-1 $726 reversed $377 $-1 #
vertex $-1 $379 $727 #
ellipse-curve $-1 0 0 -0.25 0 0 -1 0.5 0 0 1 I I #
point $-1 0.5 0 -2.055490279854733 #
face $-1 $-1 $397 $49 $-1 $728 reversed single #
loop $-1 $-1 $605 $382 #
plane-surface $-1 0 5.2035929968719223 0 0 -1 0 0 0 -1 forward_v I I I I #
coedge $-1 $729 $603 $606 $730 forward $383 $-1 #
coedge $-1 $609 $385 $386 $597 reversed $231 $-1 #
coedge $-1 $603 $729 $385 $595 reversed $383 $-1 #
edge $-1 $610 -81.06936857203894 $731 81.06936857203894 $594 $732 forward 7 unknown #
coedge $-1 $387 $386 $729 $733 forward $149 $-1 #
edge $-1 $601 -162.13873714407788 $731 162.13873714407788 $593 $734 forward 7 unknown #
coedge $-1 $606 $605 $387 $599 reversed $590 $-1 #
edge $-1 $735 -162.13873714407788 $600 162.13873714407788 $598 $736 forward 7 unknown #
vertex $-1 $389 $737 #
vertex $-1 $612 $738 #
straight-curve $-1 162.13873714407788 0 -81.06936857203894 0 -1 0 I I #
coedge $-1 $592 $594 $390 $604 reversed $383 $-1 #
edge $-1 $607 -5.2035929968719223 $610 5.2035929968719223 $603 $739 forward 7 unknown #
coedge $-1 $598 $391 $396 $613 forward $590 $-1 #
coedge $-1 $391 $598 $592 $730 reversed $590 $-1 #
vertex $-1 $392 $740 #
straight-curve $-1 0 5.2035929968719223 81.06936857203894 -1 0 0 I I #
coedge $-1 $393 $593 $395 $612 reversed $231 $-1 #
vertex $-1 $604 $741 #
straight-curve $-1 0 -5.2035929968719223 81.06936857203894 1 0 0 I I #
edge $-1 $398 -81.06936857203894 $601 81.06936857203894 $395 $742 forward 7 unknown #
edge $-1 $399 -81.06936857203894 $600 81.06936857203894 $396 $743 forward 7 unknown #
point $-1 162.13873714407788 -5.2035929968719223 81.06936857203894 #
point $-1 162.13873714407788 5.2035929968719223 81.06936857203894 #
coedge $-1 $616 $616 $-1 $744 reversed $401 $-1 #
vertex $-1 $403 $745 #
ellipse-curve $-1 0 0 -0.5 0 0 -1 1 0 0 1 I I #
point $-1 1 0 -1.7675252540665909 #
coedge $-1 $620 $620 $-1 $746 reversed $406 $-1 #
vertex $-1 $408 $747 #
ellipse-curve $-1 0 0 -0.5 0 0 -1 1 0 0 1 I I #
point $-1 1 0 -1.7675252540665909 #
plane-surface $-1 40.53468428601947 0 0 -1 0 0 0 0 1 forward_v I I I I #
coedge $-1 $416 $414 $418 $629 reversed $249 $-1 #
edge $-1 $429 -9.9771273767691984 $631 9.9771273767691984 $428 $748 forward 7 unknown #
vertex $-1 $629 $749 #
straight-curve $-1 -40.53468428601947 -27.036771732229244 0 0 0 -1 I I #
edge $-1 $627 -27.036771732229244 $631 27.036771732229244 $625 $750 forward 7 unknown #
straight-curve $-1 0 -27.036771732229244 -9.9771273767691984 -1 0 0 I I #
vertex $-1 $421 $751 #
straight-curve $-1 0 27.036771732229244 -9.9771273767691984 1 0 0 I I #
point $-1 40.53468428601947 27.036771732229244 -9.9771273767691984 #
point $-1 40.53468428601947 -27.036771732229244 -9.9771273767691984 #
straight-curve $-1 -40.53468428601947 0 9.9771273767691984 0 -1 0 I I #
point $-1 -40.53468428601947 27.036771732229244 9.9771273767691984 #
point $-1 -40.53468428601947 -27.036771732229244 9.9771273767691984 #
straight-curve $-1 40.53468428601947 -27.036771732229244 0 0 0 -1 I I #
straight-curve $-1 40.53468428601947 27.036771732229244 0 0 0 -1 I I #
plane-surface $-1 1.5 0 0 -1 0 0 0 0 1 forward_v I I I I #
coedge $-1 $443 $441 $445 $645 reversed $268 $-1 #
edge $-1 $456 -9.9771273767691984 $647 9.9771273767691984 $455 $752 forward 7 unknown #
vertex $-1 $645 $753 #
straight-curve $-1 -1.5 -6.1692152944118925 0 0 0 -1 I I #
edge $-1 $643 -6.1692152944118925 $647 6.1692152944118925 $641 $754 forward 7 unknown #
straight-curve $-1 0 -6.1692152944118925 -9.9771273767691984 -1 0 0 I I #
vertex $-1 $448 $755 #
straight-curve $-1 0 6.1692152944118925 -9.9771273767691984 1 0 0 I I #
point $-1 1.5 6.1692152944118925 -9.9771273767691984 #
point $-1 1.5 -6.1692152944118925 -9.9771273767691984 #
straight-curve $-1 -1.5 0 9.9771273767691984 0 -1 0 I I #
point $-1 -1.5 6.1692152944118925 9.9771273767691984 #
point $-1 -1.5 -6.1692152944118925 9.9771273767691984 #
straight-curve $-1 1.5 -6.1692152944118925 0 0 0 -1 I I #
straight-curve $-1 1.5 6.1692152944118925 0 0 0 -1 I I #
plane-surface $-1 162.13873714407788 0 0 -1 0 0 0 0 1 forward_v I I I I #
coedge $-1 $470 $468 $472 $661 reversed $287 $-1 #
edge $-1 $483 -81.06936857203894 $663 81.06936857203894 $482 $756 forward 7 unknown #
vertex $-1 $661 $757 #
straight-curve $-1 -162.13873714407788 -3.045182197367331 0 0 0 -1 I I #
edge $-1 $659 -3.045182197367331 $663 3.045182197367331 $657 $758 forward 7 unknown #
straight-curve $-1 0 -3.045182197367331 -81.06936857203894 -1 0 0 I I #
vertex $-1 $475 $759 #
straight-curve $-1 0 3.045182197367331 -81.06936857203894 1 0 0 I I #
point $-1 162.13873714407788 3.045182197367331 -81.06936857203894 #
point $-1 162.13873714407788 -3.045182197367331 -81.06936857203894 #
straight-curve $-1 -162.13873714407788 0 81.06936857203894 0 -1 0 I I #
point $-1 -162.13873714407788 3.045182197367331 81.06936857203894 #
point $-1 -162.13873714407788 -3.045182197367331 81.06936857203894 #
straight-curve $-1 162.13873714407788 -3.045182197367331 0 0 0 -1 I I #
straight-curve $-1 162.13873714407788 3.045182197367331 0 0 0 -1 I I #
edge $-1 $760 1 $760 0 $492 $-1 forward 7 unknown #
point $-1 0.5 0 -0.25 #
plane-surface $-1 162.13873714407788 0 0 -1 0 0 0 0 1 forward_v I I I I #
coedge $-1 $501 $499 $503 $679 reversed $311 $-1 #
edge $-1 $514 -81.06936857203894 $681 81.06936857203894 $513 $761 forward 7 unknown #
vertex $-1 $679 $762 #
straight-curve $-1 -162.13873714407788 -3.045182197367331 0 0 0 -1 I I #
edge $-1 $677 -3.045182197367331 $681 3.045182197367331 $675 $763 forward 7 unknown #
straight-curve $-1 0 -3.045182197367331 -81.06936857203894 -1 0 0 I I #
vertex $-1 $506 $764 #
straight-curve $-1 0 3.045182197367331 -81.06936857203894 1 0 0 I I #
point $-1 162.13873714407788 3.045182197367331 -81.06936857203894 #
point $-1 162.13873714407788 -3.045182197367331 -81.06936857203894 #
straight-curve $-1 -162.13873714407788 0 81.06936857203894 0 -1 0 I I #
point $-1 -162.13873714407788 3.045182197367331 81.06936857203894 #
point $-1 -162.13873714407788 -3.045182197367331 81.06936857203894 #
straight-curve $-1 162.13873714407788 -3.045182197367331 0 0 0 -1 I I #
straight-curve $-1 162.13873714407788 3.045182197367331 0 0 0 -1 I I #
edge $-1 $765 1 $765 0 $523 $-1 forward 7 unknown #
point $-1 0.5 0 -0.25 #
plane-surface $-1 162.13873714407788 0 0 -1 0 0 0 0 1 forward_v I I I I #
coedge $-1 $532 $530 $534 $697 reversed $335 $-1 #
edge $-1 $545 -81.06936857203894 $699 81.06936857203894 $544 $766 forward 7 unknown #
vertex $-1 $697 $767 #
straight-curve $-1 -162.13873714407788 -3.045182197367331 0 0 0 -1 I I #
edge $-1 $695 -3.045182197367331 $699 3.045182197367331 $693 $768 forward 7 unknown #
straight-curve $-1 0 -3.045182197367331 -81.06936857203894 -1 0 0 I I #
vertex $-1 $537 $769 #
straight-curve $-1 0 3.045182197367331 -81.06936857203894 1 0 0 I I #
point $-1 162.13873714407788 3.045182197367331 -81.06936857203894 #
point $-1 162.13873714407788 -3.045182197367331 -81.06936857203894 #
straight-curve $-1 -162.13873714407788 0 81.06936857203894 0 -1 0 I I #
point $-1 -162.13873714407788 3.045182197367331 81.06936857203894 #
point $-1 -162.13873714407788 -3.045182197367331 81.06936857203894 #
straight-curve $-1 162.13873714407788 -3.045182197367331 0 0 0 -1 I I #
straight-curve $-1 162.13873714407788 3.045182197367331 0 0 0 -1 I I #
edge $-1 $770 1 $770 0 $554 $-1 forward 7 unknown #
point $-1 0.5 0 -0.25 #
plane-surface $-1 162.13873714407788 0 0 -1 0 0 0 0 1 forward_v I I I I #
coedge $-1 $563 $561 $565 $715 reversed $359 $-1 #
edge $-1 $576 -81.06936857203894 $717 81.06936857203894 $575 $771 forward 7 unknown #
vertex $-1 $715 $772 #
straight-curve $-1 -162.13873714407788 -3.045182197367331 0 0 0 -1 I I #
edge $-1 $713 -3.045182197367331 $717 3.045182197367331 $711 $773 forward 7 unknown #
straight-curve $-1 0 -3.045182197367331 -81.06936857203894 -1 0 0 I I #
vertex $-1 $568 $774 #
straight-curve $-1 0 3.045182197367331 -81.06936857203894 1 0 0 I I #
point $-1 162.13873714407788 3.045182197367331 -81.06936857203894 #
point $-1 162.13873714407788 -3.045182197367331 -81.06936857203894 #
straight-curve $-1 -162.13873714407788 0 81.06936857203894 0 -1 0 I I #
point $-1 -162.13873714407788 3.045182197367331 81.06936857203894 #
point $-1 -162.13873714407788 -3.045182197367331 81.06936857203894 #
straight-curve $-1 162.13873714407788 -3.045182197367331 0 0 0 -1 I I #
straight-curve $-1 162.13873714407788 3.045182197367331 0 0 0 -1 I I #
edge $-1 $775 1 $775 0 $585 $-1 forward 7 unknown #
point $-1 0.5 0 -0.25 #
plane-surface $-1 162.13873714407788 0 0 -1 0 0 0 0 1 forward_v I I I I #
coedge $-1 $594 $592 $596 $733 reversed $383 $-1 #
edge $-1 $607 -81.06936857203894 $735 81.06936857203894 $606 $776 forward 7 unknown #
vertex $-1 $733 $777 #
straight-curve $-1 -162.13873714407788 -5.2035929968719223 0 0 0 -1 I I #
edge $-1 $731 -5.2035929968719223 $735 5.2035929968719223 $729 $778 forward 7 unknown #
straight-curve $-1 0 -5.2035929968719223 -81.06936857203894 -1 0 0 I I #
vertex $-1 $599 $779 #
straight-curve $-1 0 5.2035929968719223 -81.06936857203894 1 0 0 I I #
point $-1 162.13873714407788 5.2035929968719223 -81.06936857203894 #
point $-1 162.13873714407788 -5.2035929968719223 -81.06936857203894 #
straight-curve $-1 -162.13873714407788 0 81.06936857203894 0 -1 0 I I #
point $-1 -162.13873714407788 5.2035929968719223 81.06936857203894 #
point $-1 -162.13873714407788 -5.2035929968719223 81.06936857203894 #
straight-curve $-1 162.13873714407788 -5.2035929968719223 0 0 0 -1 I I #
straight-curve $-1 162.13873714407788 5.2035929968719223 0 0 0 -1 I I #
edge $-1 $780 1 $780 0 $616 $-1 forward 7 unknown #
point $-1 1 0 -0.5 #
edge $-1 $781 1 $781 0 $620 $-1 forward 7 unknown #
point $-1 1 0 -0.5 #
straight-curve $-1 -40.53468428601947 27.036771732229244 0 0 0 -1 I I #
point $-1 -40.53468428601947 -27.036771732229244 -9.9771273767691984 #
straight-curve $-1 -40.53468428601947 0 -9.9771273767691984 0 1 0 I I #
point $-1 -40.53468428601947 27.036771732229244 -9.9771273767691984 #
straight-curve $-1 -1.5 6.1692152944118925 0 0 0 -1 I I #
point $-1 -1.5 -6.1692152944118925 -9.9771273767691984 #
straight-curve $-1 -1.5 0 -9.9771273767691984 0 1 0 I I #
point $-1 -1.5 6.1692152944118925 -9.9771273767691984 #
straight-curve $-1 -162.13873714407788 3.045182197367331 0 0 0 -1 I I #
point $-1 -162.13873714407788 -3.045182197367331 -81.06936857203894 #
straight-curve $-1 -162.13873714407788 0 -81.06936857203894 0 1 0 I I #
point $-1 -162.13873714407788 3.045182197367331 -81.06936857203894 #
vertex $-1 $672 $782 #
straight-curve $-1 -162.13873714407788 3.045182197367331 0 0 0 -1 I I #
point $-1 -162.13873714407788 -3.045182197367331 -81.06936857203894 #
straight-curve $-1 -162.13873714407788 0 -81.06936857203894 0 1 0 I I #
point $-1 -162.13873714407788 3.045182197367331 -81.06936857203894 #
vertex $-1 $690 $783 #
straight-curve $-1 -162.13873714407788 3.045182197367331 0 0 0 -1 I I #
point $-1 -162.13873714407788 -3.045182197367331 -81.06936857203894 #
straight-curve $-1 -162.13873714407788 0 -81.06936857203894 0 1 0 I I #
point $-1 -162.13873714407788 3.045182197367331 -81.06936857203894 #
vertex $-1 $708 $784 #
straight-curve $-1 -162.13873714407788 3.045182197367331 0 0 0 -1 I I #
point $-1 -162.13873714407788 -3.045182197367331 -81.06936857203894 #
straight-curve $-1 -162.13873714407788 0 -81.06936857203894 0 1 0 I I #
point $-1 -162.13873714407788 3.045182197367331 -81.06936857203894 #
vertex $-1 $726 $785 #
straight-curve $-1 -162.13873714407788 5.2035929968719223 0 0 0 -1 I I #
point $-1 -162.13873714407788 -5.2035929968719223 -81.06936857203894 #
straight-curve $-1 -162.13873714407788 0 -81.06936857203894 0 1 0 I I #
point $-1 -162.13873714407788 5.2035929968719223 -81.06936857203894 #
vertex $-1 $744 $786 #
vertex $-1 $746 $787 #
point $-1 0 0 0.25 #
point $-1 0 0 0.25 #
point $-1 0 0 0.25 #
point $-1 0 0 0.25 #
point $-1 0 0 0.5 #
point $-1 0 0 0.5 #
End-of-ACIS-data 