500 0 15 0           
7 Unknown 11 ACIS 5.0 NT 24 Fri Mar 26 16:27:45 1999 
-1 9.9999999999999995e-007 1e-010 
body $-1 $15 $-1 $16 #
body $-1 $17 $-1 $18 #
body $-1 $19 $-1 $20 #
body $-1 $21 $-1 $22 #
body $-1 $23 $-1 $24 #
body $-1 $25 $-1 $26 #
body $-1 $27 $-1 $28 #
body $-1 $29 $-1 $30 #
body $-1 $31 $-1 $32 #
body $-1 $33 $-1 $34 #
body $-1 $35 $-1 $36 #
body $-1 $37 $-1 $38 #
body $-1 $39 $-1 $40 #
body $-1 $41 $-1 $42 #
body $-1 $43 $-1 $44 #
lump $-1 $-1 $45 $0 #
transform $-1 1 0 0 0 1 0 0 0 1 57.620166631061736 39.808154794782837 10.50742362757034 1 rotate no_reflect no_shear #
lump $-1 $-1 $46 $1 #
transform $-1 1 0 0 0 1 0 0 0 1 57.620166631061736 39.808154794782837 10.50742362757034 1 rotate no_reflect no_shear #
lump $-1 $-1 $47 $2 #
transform $-1 1 0 0 0 1 0 0 0 1 57.620166631061736 39.808154794782837 10.50742362757034 1 rotate no_reflect no_shear #
lump $-1 $-1 $48 $3 #
transform $-1 1 0 0 0 1 0 0 0 1 57.620166631061736 39.808154794782837 10.50742362757034 1 rotate no_reflect no_shear #
lump $-1 $-1 $49 $4 #
transform $-1 1 0 0 0 1 0 0 0 1 57.620166631061736 39.808154794782837 10.50742362757034 1 rotate no_reflect no_shear #
lump $-1 $-1 $50 $5 #
transform $-1 1 0 0 0 1 0 0 0 1 57.620166631061736 39.808154794782837 10.50742362757034 1 rotate no_reflect no_shear #
lump $-1 $-1 $51 $6 #
transform $-1 1 0 0 0 1 0 0 0 1 57.620166631061736 39.808154794782837 10.50742362757034 1 rotate no_reflect no_shear #
lump $-1 $-1 $52 $7 #
transform $-1 1 0 0 0 1 0 0 0 1 57.620166631061736 39.808154794782837 10.50742362757034 1 rotate no_reflect no_shear #
lump $-1 $-1 $53 $8 #
transform $-1 1 0 0 0 1 0 0 0 1 57.620166631061736 39.808154794782837 10.50742362757034 1 rotate no_reflect no_shear #
lump $-1 $-1 $54 $9 #
transform $-1 1 0 0 0 1 0 0 0 1 57.620166631061736 39.808154794782837 10.50742362757034 1 rotate no_reflect no_shear #
lump $-1 $-1 $55 $10 #
transform $-1 1 0 0 0 1 0 0 0 1 57.620166631061736 39.808154794782837 10.50742362757034 1 rotate no_reflect no_shear #
lump $-1 $-1 $56 $11 #
transform $-1 1 0 0 0 1 0 0 0 1 57.620166631061736 39.808154794782837 10.50742362757034 1 rotate no_reflect no_shear #
lump $-1 $-1 $57 $12 #
transform $-1 1 0 0 0 1 0 0 0 1 57.620166631061736 39.808154794782837 10.50742362757034 1 rotate no_reflect no_shear #
lump $-1 $-1 $58 $13 #
transform $-1 1 0 0 0 1 0 0 0 1 57.620166631061736 39.808154794782837 10.50742362757034 1 rotate no_reflect no_shear #
lump $-1 $-1 $59 $14 #
transform $-1 1 0 0 0 1 0 0 0 1 57.620166631061736 39.808154794782837 10.50742362757034 1 rotate no_reflect no_shear #
shell $-1 $-1 $-1 $60 $-1 $15 #
shell $-1 $-1 $-1 $61 $-1 $17 #
shell $-1 $-1 $-1 $62 $-1 $19 #
shell $-1 $-1 $-1 $63 $-1 $21 #
shell $-1 $-1 $-1 $64 $-1 $23 #
shell $-1 $-1 $-1 $65 $-1 $25 #
shell $-1 $-1 $-1 $66 $-1 $27 #
shell $-1 $-1 $-1 $67 $-1 $29 #
shell $-1 $-1 $-1 $68 $-1 $31 #
shell $-1 $-1 $-1 $69 $-1 $33 #
shell $-1 $-1 $-1 $70 $-1 $35 #
shell $-1 $-1 $-1 $71 $-1 $37 #
shell $-1 $-1 $-1 $72 $-1 $39 #
shell $-1 $-1 $-1 $73 $-1 $41 #
shell $-1 $-1 $-1 $74 $-1 $43 #
face $-1 $75 $76 $45 $-1 $77 forward single #
face $-1 $78 $79 $46 $-1 $80 reversed single #
face $-1 $81 $82 $47 $-1 $83 reversed single #
face $-1 $84 $85 $48 $-1 $86 reversed single #
face $-1 $87 $88 $49 $-1 $89 forward single #
face $-1 $90 $91 $50 $-1 $92 forward single #
face $-1 $93 $94 $51 $-1 $95 forward single #
face $-1 $96 $97 $52 $-1 $98 reversed single #
face $-1 $99 $100 $53 $-1 $101 forward single #
face $-1 $102 $103 $54 $-1 $104 forward single #
face $-1 $105 $106 $55 $-1 $107 forward single #
face $-1 $108 $109 $56 $-1 $110 reversed single #
face $-1 $111 $112 $57 $-1 $113 forward single #
face $-1 $114 $115 $58 $-1 $116 forward single #
face $-1 $117 $118 $59 $-1 $119 forward single #
face $-1 $120 $121 $45 $-1 $122 reversed single #
loop $-1 $-1 $123 $60 #
plane-surface $-1 0 0 10.50742362757034 0 0 1 1 0 0 forward_v I I I I #
face $-1 $124 $125 $46 $-1 $126 reversed single #
loop $-1 $-1 $127 $61 #
plane-surface $-1 0 -36.133295054683664 5.2820911891030207 0 0 1 1 0 0 forward_v I I I I #
face $-1 $128 $129 $47 $-1 $130 reversed single #
loop $-1 $-1 $131 $62 #
plane-surface $-1 -38.706515497618334 31.511122146347446 0 0 1 0 0 0 1 forward_v I I I I #
face $-1 $132 $133 $48 $-1 $134 reversed single #
loop $-1 $-1 $135 $63 #
plane-surface $-1 -150.85155562065256 3.2361251536948039 74.591699205899971 0 1 0 -0.80901700255871778 0 0.5877852410284794 forward_v I I I I #
face $-1 $136 $137 $49 $-1 $138 forward single #
loop $-1 $139 $140 $64 #
cone-surface $-1 -55.58464318513569 6.2278786870234555 8.1663402002559735 0.80901700255871778 0 -0.5877852410284794 0.5877852410284794 0 0.80901700255871778 1 I I 0 1 1 forward I I I I #
face $-1 $141 $142 $50 $-1 $143 forward single #
loop $-1 $144 $145 $65 #
cone-surface $-1 -55.58464318513569 10.715508987016428 8.1663402002559735 0.80901700255871778 0 -0.5877852410284794 0.5877852410284794 0 0.80901700255871778 1 I I 0 1 1 forward I I I I #
face $-1 $146 $147 $51 $-1 $148 forward single #
loop $-1 $149 $150 $66 #
cone-surface $-1 -55.58464318513569 15.2031392870094 8.1663402002559735 0.80901700255871778 0 -0.5877852410284794 0.5877852410284794 0 0.80901700255871778 1 I I 0 1 1 forward I I I I #
face $-1 $151 $152 $52 $-1 $153 reversed single #
loop $-1 $-1 $154 $67 #
plane-surface $-1 -13.328865744584007 -26.671120168976923 97.165825197001553 0.78801076186113728 0 0.61566146476048833 0.61566146476048833 0 -0.78801076186113728 forward_v I I I I #
face $-1 $155 $156 $53 $-1 $157 forward single #
loop $-1 $158 $159 $68 #
cone-surface $-1 55.562539323526842 -30.143509256341463 8.0909912746736623 -0.78801076186113728 0 -0.61566146476048833 0.30783073238024417 0 -0.39400538093056864 1 I I 0 1 0.5 forward I I I I #
face $-1 $160 $161 $54 $-1 $162 forward single #
loop $-1 $163 $164 $69 #
cone-surface $-1 55.562539323526842 -26.671120168976923 8.0909912746736623 -0.78801076186113728 0 -0.61566146476048833 0.30783073238024417 0 -0.39400538093056864 1 I I 0 1 0.5 forward I I I I #
face $-1 $165 $166 $55 $-1 $167 forward single #
loop $-1 $168 $169 $70 #
cone-surface $-1 55.562539323526842 -23.198731081612383 8.0909912746736623 -0.78801076186113728 0 -0.61566146476048833 0.30783073238024417 0 -0.39400538093056864 1 I I 0 1 0.5 forward I I I I #
face $-1 $170 $171 $56 $-1 $172 reversed single #
loop $-1 $-1 $173 $71 #
plane-surface $-1 77.481757066433275 -0.47365658411851808 168.11485757264731 0 1 0 0.78801076186113728 0 0.61566146476048833 forward_v I I I I #
face $-1 $174 $175 $57 $-1 $176 forward single #
loop $-1 $177 $178 $72 #
cone-surface $-1 55.562539323526842 1.8412694741245019 8.0909912746736623 -0.78801076186113728 0 -0.61566146476048833 0.30783073238024417 0 -0.39400538093056864 1 I I 0 1 0.5 forward I I I I #
face $-1 $179 $180 $58 $-1 $181 forward single #
loop $-1 $182 $183 $73 #
cone-surface $-1 55.562539323526842 5.3136585614890492 8.0909912746736623 -0.78801076186113728 0 -0.61566146476048833 0.30783073238024417 0 -0.39400538093056864 1 I I 0 1 0.5 forward I I I I #
face $-1 $184 $185 $59 $-1 $186 forward single #
loop $-1 $187 $188 $74 #
cone-surface $-1 55.562539323526842 8.7860476488535824 8.0909912746736623 -0.78801076186113728 0 -0.61566146476048833 0.30783073238024417 0 -0.39400538093056864 1 I I 0 1 0.5 forward I I I I #
face $-1 $189 $190 $45 $-1 $191 reversed single #
loop $-1 $-1 $192 $75 #
plane-surface $-1 0 0 -10.50742362757034 0 0 1 1 0 0 forward_v I I I I #
coedge $-1 $193 $194 $195 $196 forward $76 $-1 #
face $-1 $197 $198 $46 $-1 $199 reversed single #
loop $-1 $-1 $200 $78 #
plane-surface $-1 0 -32.458435314584491 7.8947574083366803 0 -1 0 0 0 -1 forward_v I I I I #
coedge $-1 $201 $202 $203 $204 reversed $79 $-1 #
face $-1 $205 $206 $47 $-1 $207 reversed single #
loop $-1 $-1 $208 $81 #
plane-surface $-1 -40.807711619315612 35.659638470565142 0 1 0 0 0 0 -1 forward_v I I I I #
coedge $-1 $209 $210 $211 $212 forward $82 $-1 #
face $-1 $213 $214 $48 $-1 $215 reversed single #
loop $-1 $-1 $216 $84 #
plane-surface $-1 -57.620166631061721 10.71550898701642 6.8551321432204304 -0.80901700255871778 0 0.5877852410284794 0.5877852410284794 0 0.80901700255871778 forward_v I I I I #
coedge $-1 $217 $218 $219 $220 reversed $85 $-1 #
face $-1 $-1 $221 $49 $-1 $222 forward single #
loop $-1 $223 $224 $87 #
cone-surface $-1 -54.471383743109527 6.2278786870234555 7.357509894602309 0.80901700255871778 0 -0.5877852410284794 0.2938926205142397 0 0.40450850127935889 1 I I -0.70710678118654746 0.70710678118654746 0.5 forward I I I I #
loop $-1 $-1 $225 $64 #
coedge $-1 $140 $140 $226 $227 reversed $88 $-1 #
face $-1 $-1 $228 $50 $-1 $229 forward single #
loop $-1 $230 $231 $90 #
cone-surface $-1 -54.471383743109527 10.715508987016428 7.357509894602309 0.80901700255871778 0 -0.5877852410284794 0.2938926205142397 0 0.40450850127935889 1 I I -0.70710678118654746 0.70710678118654746 0.5 forward I I I I #
loop $-1 $-1 $232 $65 #
coedge $-1 $145 $145 $233 $234 reversed $91 $-1 #
face $-1 $-1 $235 $51 $-1 $236 forward single #
loop $-1 $237 $238 $93 #
cone-surface $-1 -54.471383743109527 15.2031392870094 7.357509894602309 0.80901700255871778 0 -0.5877852410284794 0.2938926205142397 0 0.40450850127935889 1 I I -0.70710678118654746 0.70710678118654746 0.5 forward I I I I #
loop $-1 $-1 $239 $66 #
coedge $-1 $150 $150 $240 $241 reversed $94 $-1 #
face $-1 $242 $243 $52 $-1 $244 forward single #
loop $-1 $-1 $245 $96 #
plane-surface $-1 77.481757066433275 -20.883805023369355 168.11485757264731 0 -1 0 -0.78801076186113728 0 -0.61566146476048833 forward_v I I I I #
coedge $-1 $246 $247 $248 $249 reversed $97 $-1 #
face $-1 $-1 $250 $53 $-1 $251 forward single #
loop $-1 $252 $253 $99 #
cone-surface $-1 54.929944667764147 -30.143509256341463 7.596754176379882 -0.78801076186113728 0 -0.61566146476048833 0.15391536619012208 0 -0.19700269046528432 1 I I -0.70710678118654746 0.70710678118654746 0.25 forward I I I I #
loop $-1 $-1 $254 $68 #
coedge $-1 $159 $159 $255 $256 reversed $100 $-1 #
face $-1 $-1 $257 $54 $-1 $258 forward single #
loop $-1 $259 $260 $102 #
cone-surface $-1 54.929944667764147 -26.671120168976923 7.596754176379882 -0.78801076186113728 0 -0.61566146476048833 0.15391536619012208 0 -0.19700269046528432 1 I I -0.70710678118654746 0.70710678118654746 0.25 forward I I I I #
loop $-1 $-1 $261 $69 #
coedge $-1 $164 $164 $262 $263 reversed $103 $-1 #
face $-1 $-1 $264 $55 $-1 $265 forward single #
loop $-1 $266 $267 $105 #
cone-surface $-1 54.929944667764147 -23.198731081612383 7.596754176379882 -0.78801076186113728 0 -0.61566146476048833 0.15391536619012208 0 -0.19700269046528432 1 I I -0.70710678118654746 0.70710678118654746 0.25 forward I I I I #
loop $-1 $-1 $268 $70 #
coedge $-1 $169 $169 $269 $270 reversed $106 $-1 #
face $-1 $271 $272 $56 $-1 $273 reversed single #
loop $-1 $-1 $274 $108 #
plane-surface $-1 -13.328865744584007 5.3136585614890492 97.165825197001553 0.78801076186113728 0 0.61566146476048833 0.61566146476048833 0 -0.78801076186113728 forward_v I I I I #
coedge $-1 $275 $276 $277 $278 reversed $109 $-1 #
face $-1 $-1 $279 $57 $-1 $280 forward single #
loop $-1 $281 $282 $111 #
cone-surface $-1 54.929944667764147 1.8412694741245019 7.596754176379882 -0.78801076186113728 0 -0.61566146476048833 0.15391536619012208 0 -0.19700269046528432 1 I I -0.70710678118654746 0.70710678118654746 0.25 forward I I I I #
loop $-1 $-1 $283 $72 #
coedge $-1 $178 $178 $284 $285 reversed $112 $-1 #
face $-1 $-1 $286 $58 $-1 $287 forward single #
loop $-1 $288 $289 $114 #
cone-surface $-1 54.929944667764147 5.3136585614890492 7.596754176379882 -0.78801076186113728 0 -0.61566146476048833 0.15391536619012208 0 -0.19700269046528432 1 I I -0.70710678118654746 0.70710678118654746 0.25 forward I I I I #
loop $-1 $-1 $290 $73 #
coedge $-1 $183 $183 $291 $292 reversed $115 $-1 #
face $-1 $-1 $293 $59 $-1 $294 forward single #
loop $-1 $295 $296 $117 #
cone-surface $-1 54.929944667764147 8.7860476488535824 7.596754176379882 -0.78801076186113728 0 -0.61566146476048833 0.15391536619012208 0 -0.19700269046528432 1 I I -0.70710678118654746 0.70710678118654746 0.25 forward I I I I #
loop $-1 $-1 $297 $74 #
coedge $-1 $188 $188 $298 $299 reversed $118 $-1 #
face $-1 $300 $301 $45 $-1 $302 reversed single #
loop $-1 $-1 $303 $120 #
plane-surface $-1 0 -39.808154794782837 0 0 1 0 0 0 1 forward_v I I I I #
coedge $-1 $304 $305 $306 $307 forward $121 $-1 #
coedge $-1 $308 $123 $309 $310 forward $76 $-1 #
coedge $-1 $123 $308 $311 $312 forward $76 $-1 #
coedge $-1 $313 $314 $123 $196 reversed $315 $-1 #
edge $-1 $316 -39.808154794782837 $317 39.808154794782837 $195 $318 forward 7 unknown #
face $-1 $319 $320 $46 $-1 $321 reversed single #
loop $-1 $-1 $322 $124 #
plane-surface $-1 -57.620166631061736 0 0 1 0 0 0 0 -1 forward_v I I I I #
coedge $-1 $323 $324 $325 $326 reversed $125 $-1 #
coedge $-1 $327 $127 $328 $329 reversed $79 $-1 #
coedge $-1 $127 $327 $323 $330 forward $79 $-1 #
coedge $-1 $325 $331 $127 $204 forward $332 $-1 #
edge $-1 $333 -21.741507267441005 $334 -14.391787787242659 $203 $335 forward 7 unknown #
face $-1 $336 $337 $47 $-1 $338 forward single #
loop $-1 $-1 $339 $128 #
plane-surface $-1 -36.605319375921056 35.659638470565142 0 -1 0 0 0 0 1 forward_v I I I I #
coedge $-1 $340 $341 $342 $343 reversed $129 $-1 #
coedge $-1 $344 $131 $345 $346 reversed $82 $-1 #
coedge $-1 $131 $344 $347 $348 reversed $82 $-1 #
coedge $-1 $341 $340 $131 $212 reversed $129 $-1 #
edge $-1 $349 -10.50742362757034 $350 10.50742362757034 $211 $351 forward 7 unknown #
face $-1 $352 $353 $48 $-1 $354 reversed single #
loop $-1 $-1 $355 $132 #
plane-surface $-1 -150.85155562065256 18.194892820338037 74.591699205899971 0 -1 0 0.80901700255871778 0 -0.5877852410284794 forward_v I I I I #
coedge $-1 $356 $357 $358 $359 reversed $133 $-1 #
coedge $-1 $218 $135 $360 $361 reversed $85 $-1 #
coedge $-1 $135 $217 $356 $362 reversed $85 $-1 #
coedge $-1 $358 $363 $135 $220 forward $364 $-1 #
edge $-1 $365 17.805611179264545 $366 20.459156189623059 $219 $367 forward 7 unknown #
loop $-1 $-1 $226 $136 #
plane-surface $-1 -57.620166631061721 10.71550898701642 6.8551321432204304 -0.80901700255871778 0 0.5877852410284794 0.5877852410284794 0 0.80901700255871778 forward_v I I I I #
loop $-1 $-1 $368 $87 #
coedge $-1 $224 $224 $225 $369 reversed $137 $-1 #
coedge $-1 $225 $225 $224 $369 forward $139 $-1 #
coedge $-1 $226 $226 $140 $227 forward $221 $-1 #
edge $-1 $370 0 $370 6.2831853071796004 $226 $371 forward 7 unknown #
loop $-1 $-1 $233 $141 #
plane-surface $-1 -57.620166631061721 10.71550898701642 6.8551321432204304 -0.80901700255871778 0 0.5877852410284794 0.5877852410284794 0 0.80901700255871778 forward_v I I I I #
loop $-1 $-1 $372 $90 #
coedge $-1 $231 $231 $232 $373 reversed $142 $-1 #
coedge $-1 $232 $232 $231 $373 forward $144 $-1 #
coedge $-1 $233 $233 $145 $234 forward $228 $-1 #
edge $-1 $374 0 $374 6.2831853071796004 $233 $375 forward 7 unknown #
loop $-1 $-1 $240 $146 #
plane-surface $-1 -57.620166631061721 10.71550898701642 6.8551321432204304 -0.80901700255871778 0 0.5877852410284794 0.5877852410284794 0 0.80901700255871778 forward_v I I I I #
loop $-1 $-1 $376 $93 #
coedge $-1 $238 $238 $239 $377 reversed $147 $-1 #
coedge $-1 $239 $239 $238 $377 forward $149 $-1 #
coedge $-1 $240 $240 $150 $241 forward $235 $-1 #
edge $-1 $378 0 $378 6.2831853071796004 $240 $379 forward 7 unknown #
face $-1 $380 $381 $52 $-1 $382 reversed single #
loop $-1 $-1 $383 $151 #
plane-surface $-1 0 -32.458435314584491 7.8947574083366803 0 -1 0 0 0 -1 forward_v I I I I #
coedge $-1 $384 $385 $386 $387 reversed $152 $-1 #
coedge $-1 $388 $154 $383 $389 reversed $97 $-1 #
coedge $-1 $154 $388 $384 $390 forward $97 $-1 #
coedge $-1 $386 $391 $154 $249 forward $381 $-1 #
edge $-1 $392 -19.122875230096028 $393 -7.5482449388808934 $248 $394 forward 7 unknown #
loop $-1 $-1 $255 $155 #
plane-surface $-1 -13.328865744584007 -26.671120168976923 97.165825197001553 0.78801076186113728 0 0.61566146476048833 0.61566146476048833 0 -0.78801076186113728 forward_v I I I I #
loop $-1 $-1 $395 $99 #
coedge $-1 $253 $253 $254 $396 reversed $156 $-1 #
coedge $-1 $254 $254 $253 $396 forward $158 $-1 #
coedge $-1 $255 $255 $159 $256 forward $250 $-1 #
edge $-1 $397 0 $397 6.2831853071796004 $255 $398 forward 7 unknown #
loop $-1 $-1 $262 $160 #
plane-surface $-1 -13.328865744584007 -26.671120168976923 97.165825197001553 0.78801076186113728 0 0.61566146476048833 0.61566146476048833 0 -0.78801076186113728 forward_v I I I I #
loop $-1 $-1 $399 $102 #
coedge $-1 $260 $260 $261 $400 reversed $161 $-1 #
coedge $-1 $261 $261 $260 $400 forward $163 $-1 #
coedge $-1 $262 $262 $164 $263 forward $257 $-1 #
edge $-1 $401 0 $401 6.2831853071796004 $262 $402 forward 7 unknown #
loop $-1 $-1 $269 $165 #
plane-surface $-1 -13.328865744584007 -26.671120168976923 97.165825197001553 0.78801076186113728 0 0.61566146476048833 0.61566146476048833 0 -0.78801076186113728 forward_v I I I I #
loop $-1 $-1 $403 $105 #
coedge $-1 $267 $267 $268 $404 reversed $166 $-1 #
coedge $-1 $268 $268 $267 $404 forward $168 $-1 #
coedge $-1 $269 $269 $169 $270 forward $264 $-1 #
edge $-1 $405 0 $405 6.2831853071796004 $269 $406 forward 7 unknown #
face $-1 $407 $408 $56 $-1 $409 reversed single #
loop $-1 $-1 $410 $170 #
plane-surface $-1 77.481757066433275 11.100973707096617 168.11485757264731 0 -1 0 -0.78801076186113728 0 -0.61566146476048833 forward_v I I I I #
coedge $-1 $411 $412 $413 $414 reversed $171 $-1 #
coedge $-1 $276 $173 $415 $416 reversed $109 $-1 #
coedge $-1 $173 $275 $411 $417 reversed $109 $-1 #
coedge $-1 $413 $418 $173 $278 forward $408 $-1 #
edge $-1 $419 73.550005158753322 $420 77.702226400339356 $277 $421 forward 7 unknown #
loop $-1 $-1 $284 $174 #
plane-surface $-1 -13.328865744584007 5.3136585614890492 97.165825197001553 0.78801076186113728 0 0.61566146476048833 0.61566146476048833 0 -0.78801076186113728 forward_v I I I I #
loop $-1 $-1 $422 $111 #
coedge $-1 $282 $282 $283 $423 reversed $175 $-1 #
coedge $-1 $283 $283 $282 $423 forward $177 $-1 #
coedge $-1 $284 $284 $178 $285 forward $279 $-1 #
edge $-1 $424 0 $424 6.2831853071796004 $284 $425 forward 7 unknown #
loop $-1 $-1 $291 $179 #
plane-surface $-1 -13.328865744584007 5.3136585614890492 97.165825197001553 0.78801076186113728 0 0.61566146476048833 0.61566146476048833 0 -0.78801076186113728 forward_v I I I I #
loop $-1 $-1 $426 $114 #
coedge $-1 $289 $289 $290 $427 reversed $180 $-1 #
coedge $-1 $290 $290 $289 $427 forward $182 $-1 #
coedge $-1 $291 $291 $183 $292 forward $286 $-1 #
edge $-1 $428 0 $428 6.2831853071796004 $291 $429 forward 7 unknown #
loop $-1 $-1 $298 $184 #
plane-surface $-1 -13.328865744584007 5.3136585614890492 97.165825197001553 0.78801076186113728 0 0.61566146476048833 0.61566146476048833 0 -0.78801076186113728 forward_v I I I I #
loop $-1 $-1 $430 $117 #
coedge $-1 $296 $296 $297 $431 reversed $185 $-1 #
coedge $-1 $297 $297 $296 $431 forward $187 $-1 #
coedge $-1 $298 $298 $188 $299 forward $293 $-1 #
edge $-1 $432 0 $432 6.2831853071796004 $298 $433 forward 7 unknown #
face $-1 $434 $435 $45 $-1 $436 reversed single #
loop $-1 $-1 $437 $189 #
plane-surface $-1 -57.620166631061736 0 0 1 0 0 0 0 -1 forward_v I I I I #
coedge $-1 $438 $311 $439 $440 forward $190 $-1 #
coedge $-1 $441 $192 $438 $442 forward $121 $-1 #
coedge $-1 $192 $441 $443 $444 forward $121 $-1 #
coedge $-1 $314 $313 $192 $307 reversed $315 $-1 #
edge $-1 $445 -39.808154794782837 $446 39.808154794782837 $306 $447 forward 7 unknown #
coedge $-1 $194 $193 $448 $449 forward $76 $-1 #
coedge $-1 $450 $451 $193 $310 reversed $435 $-1 #
edge $-1 $317 -57.620166631061736 $452 57.620166631061736 $309 $453 forward 7 unknown #
coedge $-1 $303 $454 $194 $312 reversed $190 $-1 #
edge $-1 $455 -57.620166631061736 $316 57.620166631061736 $311 $456 forward 7 unknown #
coedge $-1 $306 $195 $454 $457 forward $315 $-1 #
coedge $-1 $195 $306 $450 $458 reversed $315 $-1 #
loop $-1 $-1 $313 $434 #
vertex $-1 $196 $459 #
vertex $-1 $196 $460 #
straight-curve $-1 57.620166631061736 0 10.50742362757034 0 1 0 I I #
face $-1 $461 $462 $46 $-1 $463 forward single #
loop $-1 $-1 $328 $197 #
plane-surface $-1 0 -39.808154794782837 0 0 1 0 0 0 1 forward_v I I I I #
coedge $-1 $464 $465 $466 $467 forward $198 $-1 #
coedge $-1 $466 $200 $202 $330 reversed $125 $-1 #
coedge $-1 $200 $466 $468 $469 reversed $125 $-1 #
coedge $-1 $470 $203 $200 $326 forward $332 $-1 #
edge $-1 $334 1.3347124849346805 $471 6.5600449234019997 $325 $472 forward 7 unknown #
coedge $-1 $202 $201 $464 $473 reversed $79 $-1 #
coedge $-1 $474 $475 $201 $329 forward $320 $-1 #
edge $-1 $476 -57.620166631061736 $333 57.620166631061736 $328 $477 forward 7 unknown #
edge $-1 $478 -57.620166631061736 $334 57.620166631061736 $323 $479 forward 7 unknown #
coedge $-1 $203 $470 $474 $480 forward $332 $-1 #
loop $-1 $-1 $325 $461 #
vertex $-1 $329 $481 #
vertex $-1 $204 $482 #
straight-curve $-1 57.620166631061736 -18.066647527341832 5.2820911891030207 0 1 0 I I #
face $-1 $483 $484 $47 $-1 $485 reversed single #
loop $-1 $-1 $486 $205 #
plane-surface $-1 0 0 10.50742362757034 0 0 1 1 0 0 forward_v I I I I #
coedge $-1 $487 $488 $344 $489 forward $206 $-1 #
coedge $-1 $211 $208 $490 $491 reversed $129 $-1 #
coedge $-1 $208 $211 $486 $492 reversed $129 $-1 #
coedge $-1 $493 $494 $208 $343 forward $495 $-1 #
edge $-1 $496 -10.50742362757034 $497 10.50742362757034 $342 $498 forward 7 unknown #
coedge $-1 $210 $209 $339 $489 reversed $82 $-1 #
coedge $-1 $490 $499 $209 $346 forward $484 $-1 #
edge $-1 $500 17.252061627111889 $350 21.454453870506445 $345 $501 forward 7 unknown #
coedge $-1 $502 $486 $210 $348 forward $337 $-1 #
edge $-1 $349 -21.454453870506445 $503 -17.252061627111889 $347 $504 forward 7 unknown #
vertex $-1 $348 $505 #
vertex $-1 $346 $506 #
straight-curve $-1 -40.807711619315612 31.511122146347446 0 0 0 -1 I I #
face $-1 $-1 $364 $48 $-1 $507 forward single #
loop $-1 $-1 $508 $213 #
plane-surface $-1 -57.620166631061736 0 0 1 0 0 0 0 -1 forward_v I I I I #
coedge $-1 $509 $510 $511 $512 reversed $214 $-1 #
coedge $-1 $513 $216 $218 $362 forward $133 $-1 #
coedge $-1 $216 $513 $509 $514 forward $133 $-1 #
coedge $-1 $511 $219 $216 $359 forward $364 $-1 #
edge $-1 $366 -2.1216293398134063 $515 12.837138326829827 $358 $516 forward 7 unknown #
coedge $-1 $517 $518 $217 $361 forward $353 $-1 #
edge $-1 $519 -30.440717459729576 $365 -26.788425975379646 $360 $520 forward 7 unknown #
edge $-1 $366 -4.5144805026329831 $519 2.4161062406544664e-014 $218 $521 forward 7 unknown #
coedge $-1 $219 $511 $517 $522 forward $364 $-1 #
loop $-1 $-1 $511 $352 #
vertex $-1 $361 $523 #
vertex $-1 $220 $524 #
straight-curve $-1 -75.425777810326281 3.2361251536948039 10.50742362757034 1 0 0 I I #
coedge $-1 $368 $368 $-1 $525 reversed $223 $-1 #
edge $-1 $526 0 $526 6.2831853071796004 $224 $527 forward 7 unknown #
vertex $-1 $227 $528 #
ellipse-curve $-1 -56.293394125882472 6.2278786870234555 8.6812778853953834 -0.80901700255871778 0 0.5877852410284794 0.5877852410284794 0 0.80901700255871778 1 I I #
coedge $-1 $372 $372 $-1 $529 reversed $230 $-1 #
edge $-1 $530 0 $530 6.2831853071796004 $231 $531 forward 7 unknown #
vertex $-1 $234 $532 #
ellipse-curve $-1 -56.293394125882472 10.715508987016428 8.6812778853953834 -0.80901700255871778 0 0.5877852410284794 0.5877852410284794 0 0.80901700255871778 1 I I #
coedge $-1 $376 $376 $-1 $533 reversed $237 $-1 #
edge $-1 $534 0 $534 6.2831853071796004 $238 $535 forward 7 unknown #
vertex $-1 $241 $536 #
ellipse-curve $-1 -56.293394125882472 15.2031392870094 8.6812778853953834 -0.80901700255871778 0 0.5877852410284794 0.5877852410284794 0 0.80901700255871778 1 I I #
face $-1 $-1 $537 $52 $-1 $538 forward single #
loop $-1 $-1 $248 $242 #
plane-surface $-1 57.620166631061736 0 0 -1 0 0 0 0 1 forward_v I I I I #
coedge $-1 $539 $540 $246 $389 forward $243 $-1 #
coedge $-1 $385 $245 $247 $390 reversed $152 $-1 #
coedge $-1 $245 $384 $541 $542 reversed $152 $-1 #
coedge $-1 $543 $248 $245 $387 forward $381 $-1 #
edge $-1 $393 -77.702226400339356 $544 -73.550005158753322 $386 $545 forward 7 unknown #
coedge $-1 $247 $246 $546 $547 reversed $97 $-1 #
edge $-1 $548 70.694773354630073 $392 75.964017688018686 $383 $549 forward 7 unknown #
edge $-1 $550 109.97108892873483 $393 115.24033326212344 $384 $551 forward 7 unknown #
coedge $-1 $248 $543 $539 $552 forward $381 $-1 #
vertex $-1 $249 $553 #
vertex $-1 $249 $554 #
straight-curve $-1 57.620166631061736 -13.335560084488462 6.3552023859842919 0 1 0 I I #
coedge $-1 $395 $395 $-1 $555 reversed $252 $-1 #
edge $-1 $556 0 $556 6.2831853071796004 $253 $557 forward 7 unknown #
vertex $-1 $256 $558 #
ellipse-curve $-1 55.998131288824254 -30.143509256341463 8.4313130067773194 0.78801076186113728 0 0.61566146476048833 0.30783073238024417 0 -0.39400538093056864 1 I I #
coedge $-1 $399 $399 $-1 $559 reversed $259 $-1 #
edge $-1 $560 0 $560 6.2831853071796004 $260 $561 forward 7 unknown #
vertex $-1 $263 $562 #
ellipse-curve $-1 55.998131288824254 -26.671120168976923 8.4313130067773194 0.78801076186113728 0 0.61566146476048833 0.30783073238024417 0 -0.39400538093056864 1 I I #
coedge $-1 $403 $403 $-1 $563 reversed $266 $-1 #
edge $-1 $564 0 $564 6.2831853071796004 $267 $565 forward 7 unknown #
vertex $-1 $270 $566 #
ellipse-curve $-1 55.998131288824254 -23.198731081612383 8.4313130067773194 0.78801076186113728 0 0.61566146476048833 0.30783073238024417 0 -0.39400538093056864 1 I I #
face $-1 $-1 $567 $56 $-1 $568 forward single #
loop $-1 $-1 $277 $271 #
plane-surface $-1 57.620166631061736 0 0 -1 0 0 0 0 1 forward_v I I I I #
coedge $-1 $569 $570 $571 $572 reversed $272 $-1 #
coedge $-1 $573 $274 $276 $417 forward $171 $-1 #
coedge $-1 $274 $573 $569 $574 forward $171 $-1 #
coedge $-1 $571 $277 $274 $414 forward $408 $-1 #
edge $-1 $420 -3.1304858648630427 $575 8.4441444263520928 $413 $576 forward 7 unknown #
coedge $-1 $577 $578 $275 $416 forward $567 $-1 #
edge $-1 $579 15.635217413370164 $419 18.879288097845098 $415 $580 forward 7 unknown #
edge $-1 $420 -115.24033326212344 $579 -109.97108892873483 $276 $581 forward 7 unknown #
coedge $-1 $277 $571 $577 $582 reversed $408 $-1 #
vertex $-1 $582 $583 #
vertex $-1 $278 $584 #
straight-curve $-1 57.620166631061736 -0.47365658411851808 84.057428786323655 0 0 -1 I I #
coedge $-1 $422 $422 $-1 $585 reversed $281 $-1 #
edge $-1 $586 0 $586 6.2831853071796004 $282 $587 forward 7 unknown #
vertex $-1 $285 $588 #
ellipse-curve $-1 55.998131288824254 1.8412694741245019 8.4313130067773194 0.78801076186113728 0 0.61566146476048833 0.30783073238024417 0 -0.39400538093056864 1 I I #
coedge $-1 $426 $426 $-1 $589 reversed $288 $-1 #
edge $-1 $590 0 $590 6.2831853071796004 $289 $591 forward 7 unknown #
vertex $-1 $292 $592 #
ellipse-curve $-1 55.998131288824254 5.3136585614890492 8.4313130067773194 0.78801076186113728 0 0.61566146476048833 0.30783073238024417 0 -0.39400538093056864 1 I I #
coedge $-1 $430 $430 $-1 $593 reversed $295 $-1 #
edge $-1 $594 0 $594 6.2831853071796004 $296 $595 forward 7 unknown #
vertex $-1 $299 $596 #
ellipse-curve $-1 55.998131288824254 8.7860476488535824 8.4313130067773194 0.78801076186113728 0 0.61566146476048833 0.30783073238024417 0 -0.39400538093056864 1 I I #
face $-1 $-1 $315 $45 $-1 $597 reversed single #
loop $-1 $-1 $450 $300 #
plane-surface $-1 0 39.808154794782837 0 0 -1 0 0 0 -1 forward_v I I I I #
coedge $-1 $598 $448 $451 $599 forward $301 $-1 #
coedge $-1 $454 $303 $304 $442 reversed $190 $-1 #
coedge $-1 $448 $598 $303 $440 reversed $301 $-1 #
edge $-1 $455 -10.50742362757034 $600 10.50742362757034 $439 $601 forward 7 unknown #
coedge $-1 $305 $304 $598 $602 forward $121 $-1 #
edge $-1 $446 -57.620166631061736 $600 57.620166631061736 $438 $603 forward 7 unknown #
coedge $-1 $451 $450 $305 $444 reversed $435 $-1 #
edge $-1 $604 -57.620166631061736 $445 57.620166631061736 $443 $605 forward 7 unknown #
vertex $-1 $307 $606 #
vertex $-1 $457 $607 #
straight-curve $-1 57.620166631061736 0 -10.50742362757034 0 -1 0 I I #
coedge $-1 $437 $439 $308 $449 reversed $301 $-1 #
edge $-1 $452 -39.808154794782837 $455 39.808154794782837 $448 $608 forward 7 unknown #
coedge $-1 $443 $309 $314 $458 forward $435 $-1 #
coedge $-1 $309 $443 $437 $599 reversed $435 $-1 #
vertex $-1 $310 $609 #
straight-curve $-1 0 39.808154794782837 10.50742362757034 -1 0 0 I I #
coedge $-1 $311 $438 $313 $457 reversed $190 $-1 #
vertex $-1 $449 $610 #
straight-curve $-1 0 -39.808154794782837 10.50742362757034 1 0 0 I I #
edge $-1 $316 -10.50742362757034 $446 10.50742362757034 $313 $611 forward 7 unknown #
edge $-1 $317 -10.50742362757034 $445 10.50742362757034 $314 $612 forward 7 unknown #
point $-1 57.620166631061736 -39.808154794782837 10.50742362757034 #
point $-1 57.620166631061736 39.808154794782837 10.50742362757034 #
face $-1 $-1 $332 $46 $-1 $613 reversed single #
loop $-1 $-1 $468 $319 #
plane-surface $-1 0 0 10.50742362757034 0 0 1 1 0 0 forward_v I I I I #
coedge $-1 $614 $322 $327 $473 forward $198 $-1 #
coedge $-1 $322 $614 $615 $616 reversed $198 $-1 #
coedge $-1 $324 $323 $322 $467 reversed $125 $-1 #
edge $-1 $617 -6.5600449234019997 $478 -1.3347124849346805 $322 $618 forward 7 unknown #
coedge $-1 $615 $619 $324 $469 forward $462 $-1 #
edge $-1 $471 -57.620166631061736 $617 57.620166631061736 $468 $620 forward 7 unknown #
coedge $-1 $331 $325 $619 $621 reversed $332 $-1 #
vertex $-1 $326 $622 #
straight-curve $-1 57.620166631061736 -32.458435314584491 3.9473787041683401 0 0 1 I I #
edge $-1 $478 14.391787787242659 $476 21.741507267441005 $464 $623 forward 7 unknown #
coedge $-1 $624 $328 $331 $480 reversed $320 $-1 #
coedge $-1 $328 $624 $614 $625 forward $320 $-1 #
vertex $-1 $329 $626 #
straight-curve $-1 0 -39.808154794782837 5.2820911891030207 1 0 0 I I #
vertex $-1 $473 $627 #
straight-curve $-1 0 -32.458435314584491 5.2820911891030207 1 0 0 I I #
edge $-1 $628 -10.50742362757034 $333 -5.2820911891030207 $331 $629 forward 7 unknown #
point $-1 57.620166631061736 -39.808154794782837 5.2820911891030207 #
point $-1 57.620166631061736 -32.458435314584491 5.2820911891030207 #
face $-1 $-1 $495 $47 $-1 $630 reversed single #
loop $-1 $-1 $490 $336 #
plane-surface $-1 0 0 -10.50742362757034 0 0 1 1 0 0 forward_v I I I I #
coedge $-1 $347 $631 $341 $492 forward $337 $-1 #
coedge $-1 $632 $339 $499 $633 reversed $206 $-1 #
coedge $-1 $339 $632 $502 $634 reversed $206 $-1 #
edge $-1 $503 -10.50742362757034 $500 10.50742362757034 $339 $635 forward 7 unknown #
coedge $-1 $636 $345 $340 $491 forward $484 $-1 #
edge $-1 $350 13.681302911064876 $496 21.978335559500266 $490 $637 forward 7 unknown #
edge $-1 $497 -21.978335559500266 $349 -13.681302911064876 $486 $638 forward 7 unknown #
coedge $-1 $639 $342 $631 $640 reversed $495 $-1 #
coedge $-1 $342 $639 $636 $641 reversed $495 $-1 #
loop $-1 $-1 $342 $483 #
vertex $-1 $641 $642 #
vertex $-1 $343 $643 #
straight-curve $-1 -40.807711619315612 39.808154794782837 0 0 0 1 I I #
coedge $-1 $345 $636 $487 $633 forward $484 $-1 #
vertex $-1 $346 $644 #
straight-curve $-1 -19.353257748809167 31.511122146347446 -10.50742362757034 -1 0 0 I I #
coedge $-1 $631 $347 $488 $634 forward $337 $-1 #
vertex $-1 $348 $645 #
straight-curve $-1 -19.353257748809167 31.511122146347446 10.50742362757034 1 0 0 I I #
point $-1 -40.807711619315612 31.511122146347446 10.50742362757034 #
point $-1 -40.807711619315612 31.511122146347446 -10.50742362757034 #
plane-surface $-1 0 0 10.50742362757034 0 0 1 1 0 0 forward_v I I I I #
coedge $-1 $518 $517 $510 $646 forward $353 $-1 #
coedge $-1 $510 $355 $357 $514 reversed $214 $-1 #
coedge $-1 $355 $509 $508 $646 reversed $214 $-1 #
coedge $-1 $363 $358 $355 $512 forward $364 $-1 #
edge $-1 $515 -20.459156189623059 $647 -17.805611179264545 $511 $648 forward 7 unknown #
coedge $-1 $357 $356 $518 $649 reversed $133 $-1 #
edge $-1 $650 -2.4161062406544664e-014 $515 4.5144805026329831 $509 $651 forward 7 unknown #
vertex $-1 $359 $652 #
straight-curve $-1 -54.966621620703222 5.3577544935082102 10.50742362757034 0 1 0 I I #
coedge $-1 $508 $360 $363 $522 reversed $353 $-1 #
coedge $-1 $360 $508 $513 $649 forward $353 $-1 #
vertex $-1 $361 $653 #
straight-curve $-1 -57.620166631061736 3.2361251536948039 37.295849602949986 0 0 1 I I #
straight-curve $-1 -57.620166631061721 3.2361251536948039 6.8551321432204304 -0.5877852410284794 0 -0.80901700255871778 I I #
edge $-1 $647 -18.194892820338037 $365 -3.2361251536948039 $517 $654 forward 7 unknown #
point $-1 -57.620166631061736 3.2361251536948039 10.50742362757034 #
point $-1 -54.966621620703222 3.2361251536948039 10.50742362757034 #
edge $-1 $655 1 $655 0 $368 $-1 forward 7 unknown #
vertex $-1 $369 $656 #
ellipse-curve $-1 -54.875892244388886 6.2278786870234555 7.6514025151165486 -0.80901700255871778 0 0.5877852410284794 0.5877852410284794 0 0.80901700255871778 1 I I #
point $-1 -55.705608884854016 6.2278786870234555 9.490294887954116 #
edge $-1 $657 1 $657 0 $372 $-1 forward 7 unknown #
vertex $-1 $373 $658 #
ellipse-curve $-1 -54.875892244388886 10.715508987016428 7.6514025151165486 -0.80901700255871778 0 0.5877852410284794 0.5877852410284794 0 0.80901700255871778 1 I I #
point $-1 -55.705608884854016 10.715508987016428 9.490294887954116 #
edge $-1 $659 1 $659 0 $376 $-1 forward 7 unknown #
vertex $-1 $377 $660 #
ellipse-curve $-1 -54.875892244388886 15.2031392870094 7.6514025151165486 -0.80901700255871778 0 0.5877852410284794 0.5877852410284794 0 0.80901700255871778 1 I I #
point $-1 -55.705608884854016 15.2031392870094 9.490294887954116 #
loop $-1 $-1 $546 $380 #
plane-surface $-1 0 0 10.50742362757034 0 0 1 1 0 0 forward_v I I I I #
coedge $-1 $540 $383 $391 $552 reversed $243 $-1 #
coedge $-1 $383 $539 $661 $662 reversed $243 $-1 #
coedge $-1 $546 $663 $385 $542 forward $537 $-1 #
edge $-1 $544 -18.879288097845098 $550 -15.635217413370164 $541 $664 forward 7 unknown #
coedge $-1 $391 $386 $663 $665 reversed $381 $-1 #
vertex $-1 $387 $666 #
straight-curve $-1 57.620166631061736 -20.883805023369355 84.057428786323655 0 0 1 I I #
coedge $-1 $661 $541 $388 $547 forward $537 $-1 #
edge $-1 $550 7.5482449388808934 $548 19.122875230096028 $546 $667 forward 7 unknown #
vertex $-1 $662 $668 #
straight-curve $-1 10.85204823216451 -32.458435314584491 66.215665838352805 0.61566146476048833 0 -0.78801076186113728 I I #
vertex $-1 $547 $669 #
straight-curve $-1 -13.328865744584007 -20.883805023369355 97.165825197001553 0.61566146476048833 0 -0.78801076186113728 I I #
edge $-1 $670 -6.5600449234019997 $392 -2.4078236818159606 $391 $671 forward 7 unknown #
point $-1 57.620166631061736 -32.458435314584491 6.3552023859843008 #
point $-1 57.620166631061736 -20.883805023369355 6.355202385984299 #
edge $-1 $672 1 $672 0 $395 $-1 forward 7 unknown #
vertex $-1 $396 $673 #
ellipse-curve $-1 55.12694735822943 -30.143509256341463 7.7506695425700043 0.78801076186113728 0 0.61566146476048833 0.30783073238024417 0 -0.39400538093056864 1 I I #
point $-1 56.3059620212045 -30.143509256341463 8.0373076258467506 #
edge $-1 $674 1 $674 0 $399 $-1 forward 7 unknown #
vertex $-1 $400 $675 #
ellipse-curve $-1 55.12694735822943 -26.671120168976923 7.7506695425700043 0.78801076186113728 0 0.61566146476048833 0.30783073238024417 0 -0.39400538093056864 1 I I #
point $-1 56.3059620212045 -26.671120168976923 8.0373076258467506 #
edge $-1 $676 1 $676 0 $403 $-1 forward 7 unknown #
vertex $-1 $404 $677 #
ellipse-curve $-1 55.12694735822943 -23.198731081612383 7.7506695425700043 0.78801076186113728 0 0.61566146476048833 0.30783073238024417 0 -0.39400538093056864 1 I I #
point $-1 56.3059620212045 -23.198731081612383 8.0373076258467506 #
loop $-1 $-1 $415 $407 #
plane-surface $-1 0 0 10.50742362757034 0 0 1 1 0 0 forward_v I I I I #
coedge $-1 $570 $410 $412 $574 reversed $272 $-1 #
coedge $-1 $410 $569 $678 $679 reversed $272 $-1 #
coedge $-1 $418 $413 $410 $572 forward $408 $-1 #
edge $-1 $575 -77.702226400339356 $680 -73.550005158753322 $571 $681 forward 7 unknown #
coedge $-1 $412 $411 $578 $682 reversed $171 $-1 #
edge $-1 $683 109.97108892873483 $575 115.24033326212344 $569 $684 forward 7 unknown #
vertex $-1 $414 $685 #
straight-curve $-1 57.620166631061736 2.6568292807445246 6.3552023859842919 0 1 0 I I #
coedge $-1 $678 $415 $418 $582 forward $567 $-1 #
coedge $-1 $415 $678 $573 $682 forward $567 $-1 #
vertex $-1 $416 $686 #
straight-curve $-1 38.740878533216637 -0.47365658411851808 10.507423627570333 1 0 0 I I #
straight-curve $-1 -13.328865744584007 -0.47365658411851808 97.165825197001553 -0.61566146476048833 0 0.78801076186113728 I I #
edge $-1 $419 -0.47365658411851808 $680 11.100973707096617 $418 $687 forward 7 unknown #
point $-1 57.620166631061736 -0.47365658411851808 10.50742362757034 #
point $-1 57.620166631061736 -0.47365658411851808 6.355202385984299 #
edge $-1 $688 1 $688 0 $422 $-1 forward 7 unknown #
vertex $-1 $423 $689 #
ellipse-curve $-1 55.12694735822943 1.8412694741245019 7.7506695425700043 0.78801076186113728 0 0.61566146476048833 0.30783073238024417 0 -0.39400538093056864 1 I I #
point $-1 56.3059620212045 1.8412694741245019 8.0373076258467506 #
edge $-1 $690 1 $690 0 $426 $-1 forward 7 unknown #
vertex $-1 $427 $691 #
ellipse-curve $-1 55.12694735822943 5.3136585614890492 7.7506695425700043 0.78801076186113728 0 0.61566146476048833 0.30783073238024417 0 -0.39400538093056864 1 I I #
point $-1 56.3059620212045 5.3136585614890492 8.0373076258467506 #
edge $-1 $692 1 $692 0 $430 $-1 forward 7 unknown #
vertex $-1 $431 $693 #
ellipse-curve $-1 55.12694735822943 8.7860476488535824 7.7506695425700043 0.78801076186113728 0 0.61566146476048833 0.30783073238024417 0 -0.39400538093056864 1 I I #
point $-1 56.3059620212045 8.7860476488535824 8.0373076258467506 #
plane-surface $-1 57.620166631061736 0 0 -1 0 0 0 0 1 forward_v I I I I #
coedge $-1 $439 $437 $441 $602 reversed $301 $-1 #
edge $-1 $452 -10.50742362757034 $604 10.50742362757034 $451 $694 forward 7 unknown #
vertex $-1 $602 $695 #
straight-curve $-1 -57.620166631061736 -39.808154794782837 0 0 0 -1 I I #
edge $-1 $600 -39.808154794782837 $604 39.808154794782837 $598 $696 forward 7 unknown #
straight-curve $-1 0 -39.808154794782837 -10.50742362757034 -1 0 0 I I #
vertex $-1 $444 $697 #
straight-curve $-1 0 39.808154794782837 -10.50742362757034 1 0 0 I I #
point $-1 57.620166631061736 39.808154794782837 -10.50742362757034 #
point $-1 57.620166631061736 -39.808154794782837 -10.50742362757034 #
straight-curve $-1 -57.620166631061736 0 10.50742362757034 0 -1 0 I I #
point $-1 -57.620166631061736 39.808154794782837 10.50742362757034 #
point $-1 -57.620166631061736 -39.808154794782837 10.50742362757034 #
straight-curve $-1 57.620166631061736 -39.808154794782837 0 0 0 -1 I I #
straight-curve $-1 57.620166631061736 39.808154794782837 0 0 0 -1 I I #
plane-surface $-1 57.620166631061736 0 0 -1 0 0 0 0 1 forward_v I I I I #
coedge $-1 $465 $464 $475 $625 reversed $198 $-1 #
coedge $-1 $698 $468 $465 $616 forward $462 $-1 #
edge $-1 $617 32.458435314584491 $699 39.808154794782837 $465 $700 forward 7 unknown #
vertex $-1 $616 $701 #
straight-curve $-1 -57.620166631061736 -32.458435314584491 3.9473787041683401 0 0 -1 I I #
coedge $-1 $468 $698 $470 $621 forward $462 $-1 #
straight-curve $-1 0 -32.458435314584491 10.50742362757034 -1 0 0 I I #
edge $-1 $628 -39.808154794782837 $471 -32.458435314584491 $470 $702 forward 7 unknown #
point $-1 57.620166631061736 -32.458435314584491 10.50742362757034 #
straight-curve $-1 -57.620166631061736 -18.066647527341832 5.2820911891030207 0 -1 0 I I #
coedge $-1 $475 $474 $698 $703 reversed $320 $-1 #
edge $-1 $699 -10.50742362757034 $476 -5.2820911891030207 $614 $704 forward 7 unknown #
point $-1 -57.620166631061736 -39.808154794782837 5.2820911891030207 #
point $-1 -57.620166631061736 -32.458435314584491 5.2820911891030207 #
vertex $-1 $621 $705 #
straight-curve $-1 57.620166631061736 -39.808154794782837 0 0 0 -1 I I #
plane-surface $-1 0 39.808154794782837 0 0 -1 0 0 0 -1 forward_v I I I I #
coedge $-1 $486 $502 $493 $640 forward $337 $-1 #
coedge $-1 $488 $487 $639 $706 reversed $206 $-1 #
edge $-1 $707 -21.978335559500266 $500 -13.681302911064876 $499 $708 forward 7 unknown #
edge $-1 $503 13.681302911064876 $709 21.978335559500266 $502 $710 forward 7 unknown #
straight-curve $-1 -36.605319375921056 31.511122146347446 0 0 0 -1 I I #
coedge $-1 $499 $490 $494 $641 forward $484 $-1 #
straight-curve $-1 -40.807711619315612 17.829819235282571 -10.50742362757034 0 1 0 I I #
straight-curve $-1 -40.807711619315612 17.829819235282571 10.50742362757034 0 -1 0 I I #
coedge $-1 $494 $493 $632 $706 forward $495 $-1 #
edge $-1 $709 36.605319375921056 $497 40.807711619315612 $493 $711 forward 7 unknown #
edge $-1 $496 -40.807711619315612 $707 -36.605319375921056 $494 $712 forward 7 unknown #
point $-1 -40.807711619315612 39.808154794782837 -10.50742362757034 #
point $-1 -40.807711619315612 39.808154794782837 10.50742362757034 #
point $-1 -36.605319375921056 31.511122146347446 -10.50742362757034 #
point $-1 -36.605319375921056 31.511122146347446 10.50742362757034 #
edge $-1 $647 26.788425975379646 $650 30.440717459729576 $508 $713 forward 7 unknown #
vertex $-1 $522 $714 #
straight-curve $-1 -75.425777810326281 18.194892820338037 10.50742362757034 -1 0 0 I I #
edge $-1 $650 -12.837138326829827 $519 2.1216293398134063 $518 $715 forward 7 unknown #
vertex $-1 $649 $716 #
straight-curve $-1 -57.620166631061721 18.194892820338037 6.8551321432204304 0.5877852410284794 0 0.80901700255871778 I I #
point $-1 -54.966621620703222 18.194892820338037 10.50742362757034 #
point $-1 -57.620166631061736 3.2361251536948039 6.8551321432204109 #
straight-curve $-1 -57.620166631061736 0 10.50742362757034 0 -1 0 I I #
vertex $-1 $525 $717 #
point $-1 -54.288107003360409 6.2278786870234555 8.4604195176752661 #
vertex $-1 $529 $718 #
point $-1 -54.288107003360409 10.715508987016428 8.4604195176752661 #
vertex $-1 $533 $719 #
point $-1 -54.288107003360409 15.2031392870094 8.4604195176752661 #
coedge $-1 $663 $546 $540 $662 forward $537 $-1 #
edge $-1 $548 54.376095946586801 $670 57.620166631061736 $661 $720 forward 7 unknown #
coedge $-1 $541 $661 $543 $665 forward $537 $-1 #
straight-curve $-1 38.740878533216637 -20.883805023369355 10.507423627570333 -1 0 0 I I #
edge $-1 $670 -32.458435314584491 $544 -20.883805023369355 $543 $721 forward 7 unknown #
point $-1 57.620166631061736 -20.883805023369355 10.50742362757034 #
straight-curve $-1 54.376095946586815 -13.335560084488462 10.507423627570333 0 -1 0 I I #
point $-1 54.376095946586801 -32.458435314584491 10.507423627570333 #
point $-1 54.376095946586801 -20.883805023369355 10.507423627570333 #
vertex $-1 $665 $722 #
straight-curve $-1 57.620166631061736 -32.458435314584491 3.9473787041683401 0 0 -1 I I #
vertex $-1 $555 $723 #
point $-1 55.434778090609676 -30.143509256341463 7.3566641616394355 #
vertex $-1 $559 $724 #
point $-1 55.434778090609676 -26.671120168976923 7.3566641616394355 #
vertex $-1 $563 $725 #
point $-1 55.434778090609676 -23.198731081612383 7.3566641616394355 #
coedge $-1 $578 $577 $570 $679 forward $567 $-1 #
edge $-1 $680 -18.879288097845098 $683 -15.635217413370164 $678 $726 forward 7 unknown #
vertex $-1 $679 $727 #
straight-curve $-1 57.620166631061736 11.100973707096617 84.057428786323655 0 0 1 I I #
edge $-1 $683 -8.4441444263520928 $579 3.1304858648630427 $578 $728 forward 7 unknown #
vertex $-1 $682 $729 #
straight-curve $-1 -13.328865744584007 11.100973707096617 97.165825197001553 0.61566146476048833 0 -0.78801076186113728 I I #
point $-1 57.620166631061736 11.100973707096617 6.355202385984299 #
point $-1 54.376095946586801 -0.47365658411851808 10.507423627570333 #
straight-curve $-1 57.620166631061736 0 10.50742362757034 0 1 0 I I #
vertex $-1 $585 $730 #
point $-1 55.434778090609676 1.8412694741245019 7.3566641616394355 #
vertex $-1 $589 $731 #
point $-1 55.434778090609676 5.3136585614890492 7.3566641616394355 #
vertex $-1 $593 $732 #
point $-1 55.434778090609676 8.7860476488535824 7.3566641616394355 #
straight-curve $-1 -57.620166631061736 39.808154794782837 0 0 0 -1 I I #
point $-1 -57.620166631061736 -39.808154794782837 -10.50742362757034 #
straight-curve $-1 -57.620166631061736 0 -10.50742362757034 0 1 0 I I #
point $-1 -57.620166631061736 39.808154794782837 -10.50742362757034 #
coedge $-1 $619 $615 $624 $703 forward $462 $-1 #
vertex $-1 $616 $733 #
straight-curve $-1 -57.620166631061736 0 10.50742362757034 0 -1 0 I I #
point $-1 -57.620166631061736 -32.458435314584491 10.50742362757034 #
straight-curve $-1 57.620166631061736 0 10.50742362757034 0 1 0 I I #
edge $-1 $699 -57.620166631061736 $628 57.620166631061736 $624 $734 forward 7 unknown #
straight-curve $-1 -57.620166631061736 -39.808154794782837 0 0 0 -1 I I #
point $-1 57.620166631061736 -39.808154794782837 10.50742362757034 #
edge $-1 $709 -10.50742362757034 $707 10.50742362757034 $639 $735 forward 7 unknown #
vertex $-1 $706 $736 #
straight-curve $-1 -36.605319375921056 17.829819235282571 -10.50742362757034 0 -1 0 I I #
vertex $-1 $640 $737 #
straight-curve $-1 -36.605319375921056 17.829819235282571 10.50742362757034 0 1 0 I I #
straight-curve $-1 0 39.808154794782837 10.50742362757034 -1 0 0 I I #
straight-curve $-1 0 39.808154794782837 -10.50742362757034 1 0 0 I I #
straight-curve $-1 -57.620166631061736 18.194892820338037 37.295849602949986 0 0 -1 I I #
point $-1 -57.620166631061736 18.194892820338037 10.50742362757034 #
straight-curve $-1 -57.620166631061736 5.3577544935082102 6.8551321432204091 0 -1 0 I I #
point $-1 -57.620166631061736 18.194892820338037 6.8551321432204109 #
point $-1 -54.066875241830168 6.2278786870234555 7.0636172740880694 #
point $-1 -54.066875241830168 10.715508987016428 7.0636172740880694 #
point $-1 -54.066875241830168 15.2031392870094 7.0636172740880694 #
straight-curve $-1 0 -32.458435314584491 10.50742362757034 1 0 0 I I #
straight-curve $-1 57.620166631061736 0 10.50742362757034 0 1 0 I I #
point $-1 57.620166631061736 -32.458435314584491 10.50742362757034 #
point $-1 54.732941977298864 -30.143509256341463 7.4428388101897598 #
point $-1 54.732941977298864 -26.671120168976923 7.4428388101897598 #
point $-1 54.732941977298864 -23.198731081612383 7.4428388101897598 #
straight-curve $-1 38.740878533216637 11.100973707096617 10.507423627570333 -1 0 0 I I #
point $-1 57.620166631061736 11.100973707096617 10.50742362757034 #
straight-curve $-1 54.376095946586815 2.6568292807445246 10.507423627570333 0 -1 0 I I #
point $-1 54.376095946586801 11.100973707096617 10.507423627570333 #
point $-1 54.732941977298864 1.8412694741245019 7.4428388101897598 #
point $-1 54.732941977298864 5.3136585614890492 7.4428388101897598 #
point $-1 54.732941977298864 8.7860476488535824 7.4428388101897598 #
point $-1 -57.620166631061736 -39.808154794782837 10.50742362757034 #
straight-curve $-1 0 -39.808154794782837 10.50742362757034 1 0 0 I I #
straight-curve $-1 -36.605319375921056 39.808154794782837 0 0 0 -1 I I #
point $-1 -36.605319375921056 39.808154794782837 -10.50742362757034 #
point $-1 -36.605319375921056 39.808154794782837 10.50742362757034 #
End-of-ACIS-data 