500 0 3 0           
7 Unknown 11 ACIS 5.0 NT 24 Fri Mar 26 19:43:50 1999 
-1 9.9999999999999995e-007 1e-010 
body $-1 $3 $-1 $4 #
body $-1 $5 $-1 $6 #
body $-1 $7 $-1 $8 #
lump $-1 $-1 $9 $0 #
transform $-1 1 0 0 0 1 0 0 0 1 78.718222602008126 43.341508151718159 9.6635148245131539 1 rotate no_reflect no_shear #
lump $-1 $-1 $10 $1 #
transform $-1 1 0 0 0 1 0 0 0 1 78.718222602008126 43.341508151718159 9.6635148245131539 1 rotate no_reflect no_shear #
lump $-1 $-1 $11 $2 #
transform $-1 1 0 0 0 1 0 0 0 1 78.718222602008126 43.341508151718159 9.6635148245131539 1 rotate no_reflect no_shear #
shell $-1 $-1 $-1 $12 $-1 $3 #
shell $-1 $-1 $-1 $13 $-1 $5 #
shell $-1 $-1 $-1 $14 $-1 $7 #
face $-1 $15 $16 $9 $-1 $17 forward single #
face $-1 $18 $19 $10 $-1 $20 reversed single #
face $-1 $21 $22 $11 $-1 $23 forward single #
face $-1 $24 $25 $9 $-1 $26 reversed single #
loop $-1 $-1 $27 $12 #
plane-surface $-1 0 0 9.6635148245131539 0 0 1 1 0 0 forward_v I I I I #
face $-1 $28 $29 $10 $-1 $30 reversed single #
loop $-1 $-1 $31 $13 #
plane-surface $-1 -49.090842858317046 -154.6658874530292 111.36504882608043 -1 0 0 0 -0.70710678939079041 0.70710677298230451 forward_v I I I I #
face $-1 $32 $33 $11 $-1 $34 forward single #
loop $-1 $35 $36 $14 #
cone-surface $-1 -63.904532730162586 -35.532581660025642 1.8545882907285227 0 0.70710678939079041 -0.70710677298230451 3 0 0 1 I I 0 1 3 forward I I I I #
face $-1 $37 $38 $9 $-1 $39 reversed single #
loop $-1 $-1 $40 $15 #
plane-surface $-1 0 0 -9.6635148245131539 0 0 1 1 0 0 forward_v I I I I #
coedge $-1 $41 $42 $43 $44 forward $16 $-1 #
face $-1 $45 $46 $10 $-1 $47 forward single #
loop $-1 $-1 $48 $18 #
plane-surface $-1 -63.904532730162586 -43.341508151718159 0.040672108063077417 0 -0.70710678939079041 0.70710677298230451 1 0 0 forward_v I I I I #
coedge $-1 $49 $50 $51 $52 reversed $19 $-1 #
face $-1 $-1 $53 $11 $-1 $54 forward single #
loop $-1 $55 $56 $21 #
cone-surface $-1 -63.904532730162586 -31.474416230822445 -2.2035770443045228 0 0.70710678939079041 -0.70710677298230451 1.5 0 0 1 I I -0.70710678118654757 0.70710678118654757 1.5 forward I I I I #
loop $-1 $-1 $57 $14 #
coedge $-1 $36 $36 $58 $59 reversed $22 $-1 #
face $-1 $60 $61 $9 $-1 $62 reversed single #
loop $-1 $-1 $63 $24 #
plane-surface $-1 0 -43.341508151718159 0 0 1 0 0 0 1 forward_v I I I I #
coedge $-1 $64 $65 $66 $67 forward $25 $-1 #
coedge $-1 $68 $27 $69 $70 forward $16 $-1 #
coedge $-1 $27 $68 $71 $72 forward $16 $-1 #
coedge $-1 $73 $74 $27 $44 reversed $75 $-1 #
edge $-1 $76 -43.341508151718159 $77 43.341508151718159 $43 $78 forward 7 unknown #
face $-1 $79 $80 $10 $-1 $81 reversed single #
loop $-1 $-1 $51 $28 #
plane-surface $-1 0 0 9.6635148245131539 0 0 1 1 0 0 forward_v I I I I #
coedge $-1 $82 $83 $84 $85 reversed $29 $-1 #
coedge $-1 $50 $31 $86 $87 reversed $19 $-1 #
coedge $-1 $31 $49 $82 $88 reversed $19 $-1 #
coedge $-1 $84 $89 $31 $52 forward $46 $-1 #
edge $-1 $90 33.991435574796441 $91 43.61427806794746 $51 $92 forward 7 unknown #
loop $-1 $-1 $58 $32 #
plane-surface $-1 -63.904532730162586 -43.341508151718159 0.040672108063077417 0 -0.70710678939079041 0.70710677298230451 1 0 0 forward_v I I I I #
loop $-1 $-1 $93 $21 #
coedge $-1 $56 $56 $57 $94 reversed $33 $-1 #
coedge $-1 $57 $57 $56 $94 forward $35 $-1 #
coedge $-1 $58 $58 $36 $59 forward $53 $-1 #
edge $-1 $95 1.2560739426575815e-015 $95 6.2831853071796013 $58 $96 forward 7 unknown #
face $-1 $97 $98 $9 $-1 $99 reversed single #
loop $-1 $-1 $100 $37 #
plane-surface $-1 -78.718222602008126 0 0 1 0 0 0 0 -1 forward_v I I I I #
coedge $-1 $101 $71 $102 $103 forward $38 $-1 #
coedge $-1 $104 $40 $101 $105 forward $25 $-1 #
coedge $-1 $40 $104 $106 $107 forward $25 $-1 #
coedge $-1 $74 $73 $40 $67 reversed $75 $-1 #
edge $-1 $108 -43.341508151718159 $109 43.341508151718159 $66 $110 forward 7 unknown #
coedge $-1 $42 $41 $111 $112 forward $16 $-1 #
coedge $-1 $113 $114 $41 $70 reversed $98 $-1 #
edge $-1 $77 -78.718222602008126 $115 78.718222602008126 $69 $116 forward 7 unknown #
coedge $-1 $63 $117 $42 $72 reversed $38 $-1 #
edge $-1 $118 -78.718222602008126 $76 78.718222602008126 $71 $119 forward 7 unknown #
coedge $-1 $66 $43 $117 $120 forward $75 $-1 #
coedge $-1 $43 $66 $113 $121 reversed $75 $-1 #
loop $-1 $-1 $73 $97 #
vertex $-1 $44 $122 #
vertex $-1 $44 $123 #
straight-curve $-1 78.718222602008126 0 9.6635148245131539 0 1 0 I I #
face $-1 $-1 $124 $10 $-1 $125 reversed single #
loop $-1 $-1 $126 $45 #
plane-surface $-1 -78.718222602008126 0 0 1 0 0 0 0 -1 forward_v I I I I #
coedge $-1 $127 $48 $50 $88 forward $29 $-1 #
coedge $-1 $48 $127 $126 $128 reversed $29 $-1 #
coedge $-1 $129 $51 $48 $85 forward $46 $-1 #
edge $-1 $91 17.138576493235753 $130 46.765956236926833 $84 $131 forward 7 unknown #
coedge $-1 $132 $133 $49 $87 forward $124 $-1 #
edge $-1 $134 -55.641852304977135 $90 -46.019009588527055 $86 $135 forward 7 unknown #
edge $-1 $91 -13.60875452029058 $134 0 $50 $136 forward 7 unknown #
coedge $-1 $51 $129 $132 $137 forward $46 $-1 #
vertex $-1 $87 $138 #
vertex $-1 $52 $139 #
straight-curve $-1 -49.090842858317046 -77.3329437265146 9.6635148245131575 0 1 0 I I #
coedge $-1 $93 $93 $-1 $140 reversed $55 $-1 #
edge $-1 $141 0 $141 6.2831853071796004 $56 $142 forward 7 unknown #
vertex $-1 $59 $143 #
ellipse-curve $-1 -63.904532730162586 -38.530086905142653 4.8520934662881139 0 -0.70710678939079041 0.70710677298230451 3 0 0 1 I I #
face $-1 $-1 $75 $9 $-1 $144 reversed single #
loop $-1 $-1 $113 $60 #
plane-surface $-1 0 43.341508151718159 0 0 -1 0 0 0 -1 forward_v I I I I #
coedge $-1 $145 $111 $114 $146 forward $61 $-1 #
coedge $-1 $117 $63 $64 $105 reversed $38 $-1 #
coedge $-1 $111 $145 $63 $103 reversed $61 $-1 #
edge $-1 $118 -9.6635148245131539 $147 9.6635148245131539 $102 $148 forward 7 unknown #
coedge $-1 $65 $64 $145 $149 forward $25 $-1 #
edge $-1 $109 -78.718222602008126 $147 78.718222602008126 $101 $150 forward 7 unknown #
coedge $-1 $114 $113 $65 $107 reversed $98 $-1 #
edge $-1 $151 -78.718222602008126 $108 78.718222602008126 $106 $152 forward 7 unknown #
vertex $-1 $67 $153 #
vertex $-1 $120 $154 #
straight-curve $-1 78.718222602008126 0 -9.6635148245131539 0 -1 0 I I #
coedge $-1 $100 $102 $68 $112 reversed $61 $-1 #
edge $-1 $115 -43.341508151718159 $118 43.341508151718159 $111 $155 forward 7 unknown #
coedge $-1 $106 $69 $74 $121 forward $98 $-1 #
coedge $-1 $69 $106 $100 $146 reversed $98 $-1 #
vertex $-1 $70 $156 #
straight-curve $-1 0 43.341508151718159 9.6635148245131539 -1 0 0 I I #
coedge $-1 $71 $101 $73 $120 reversed $38 $-1 #
vertex $-1 $112 $157 #
straight-curve $-1 0 -43.341508151718159 9.6635148245131539 1 0 0 I I #
edge $-1 $76 -9.6635148245131539 $109 9.6635148245131539 $73 $158 forward 7 unknown #
edge $-1 $77 -9.6635148245131539 $108 9.6635148245131539 $74 $159 forward 7 unknown #
point $-1 78.718222602008126 -43.341508151718159 9.6635148245131539 #
point $-1 78.718222602008126 43.341508151718159 9.6635148245131539 #
loop $-1 $-1 $86 $79 #
plane-surface $-1 0 -43.341508151718159 0 0 1 0 0 0 1 forward_v I I I I #
coedge $-1 $160 $161 $83 $128 forward $80 $-1 #
coedge $-1 $83 $82 $133 $162 reversed $29 $-1 #
edge $-1 $130 1.7004027005081446 $163 15.309157220798724 $126 $164 forward 7 unknown #
coedge $-1 $89 $84 $161 $165 forward $46 $-1 #
vertex $-1 $165 $166 #
straight-curve $-1 -31.952266365081293 -33.71866565856714 9.6635148245131539 -1 0 0 I I #
coedge $-1 $167 $86 $89 $137 reversed $124 $-1 #
coedge $-1 $86 $167 $127 $162 forward $124 $-1 #
vertex $-1 $87 $168 #
straight-curve $-1 -49.090842858317046 -43.341508151718159 55.682524413040213 0 0 1 I I #
straight-curve $-1 -49.090842858317046 -43.341508151718159 0.040672108063077417 0 -0.70710677298230451 -0.70710678939079041 I I #
edge $-1 $169 -78.718222602008126 $90 -49.090842858317046 $132 $170 forward 7 unknown #
point $-1 -49.090842858317046 -43.341508151718159 9.6635148245131539 #
point $-1 -49.090842858317046 -33.71866565856714 9.6635148245131539 #
edge $-1 $171 1 $171 0 $93 $-1 forward 7 unknown #
vertex $-1 $94 $172 #
ellipse-curve $-1 -63.904532730162586 -32.53507641490863 -1.142916884831066 0 -0.70710678939079041 0.70710677298230451 3 0 0 1 I I #
point $-1 -60.904532730162586 -38.530086905142646 4.8520934662881121 #
plane-surface $-1 78.718222602008126 0 0 -1 0 0 0 0 1 forward_v I I I I #
coedge $-1 $102 $100 $104 $149 reversed $61 $-1 #
edge $-1 $115 -9.6635148245131539 $151 9.6635148245131539 $114 $173 forward 7 unknown #
vertex $-1 $149 $174 #
straight-curve $-1 -78.718222602008126 -43.341508151718159 0 0 0 -1 I I #
edge $-1 $147 -43.341508151718159 $151 43.341508151718159 $145 $175 forward 7 unknown #
straight-curve $-1 0 -43.341508151718159 -9.6635148245131539 -1 0 0 I I #
vertex $-1 $107 $176 #
straight-curve $-1 0 43.341508151718159 -9.6635148245131539 1 0 0 I I #
point $-1 78.718222602008126 43.341508151718159 -9.6635148245131539 #
point $-1 78.718222602008126 -43.341508151718159 -9.6635148245131539 #
straight-curve $-1 -78.718222602008126 0 9.6635148245131539 0 -1 0 I I #
point $-1 -78.718222602008126 43.341508151718159 9.6635148245131539 #
point $-1 -78.718222602008126 -43.341508151718159 9.6635148245131539 #
straight-curve $-1 78.718222602008126 -43.341508151718159 0 0 0 -1 I I #
straight-curve $-1 78.718222602008126 43.341508151718159 0 0 0 -1 I I #
coedge $-1 $161 $126 $167 $177 reversed $80 $-1 #
coedge $-1 $126 $160 $129 $165 reversed $80 $-1 #
edge $-1 $163 -46.765956236926833 $134 -17.138576493235753 $133 $178 forward 7 unknown #
vertex $-1 $128 $179 #
straight-curve $-1 -78.718222602008126 -32.516299392240427 10.865881118740894 0 -0.70710677298230462 -0.70710678939079052 I I #
edge $-1 $130 33.71866565856714 $169 43.341508151718159 $161 $180 forward 7 unknown #
point $-1 -78.718222602008126 -33.71866565856714 9.6635148245131539 #
coedge $-1 $133 $132 $160 $177 forward $124 $-1 #
point $-1 -49.090842858317046 -43.341508151718159 0.040672108063077417 #
vertex $-1 $165 $181 #
straight-curve $-1 0 -43.341508151718159 9.6635148245131539 1 0 0 I I #
vertex $-1 $140 $182 #
point $-1 -60.904532730162586 -32.53507641490863 -1.142916884831066 #
straight-curve $-1 -78.718222602008126 43.341508151718159 0 0 0 -1 I I #
point $-1 -78.718222602008126 -43.341508151718159 -9.6635148245131539 #
straight-curve $-1 -78.718222602008126 0 -9.6635148245131539 0 1 0 I I #
point $-1 -78.718222602008126 43.341508151718159 -9.6635148245131539 #
edge $-1 $169 -9.6635148245131539 $163 -0.040672108063077417 $160 $183 forward 7 unknown #
straight-curve $-1 -31.952266365081293 -43.341508151718159 0.040672108063073864 1 0 0 I I #
point $-1 -78.718222602008126 -43.341508151718159 0.040672108063077417 #
straight-curve $-1 -78.718222602008126 0 9.6635148245131539 0 -1 0 I I #
point $-1 -78.718222602008126 -43.341508151718159 9.6635148245131539 #
point $-1 -63.904532730162586 -30.41375604673626 -3.2642372037779799 #
straight-curve $-1 -78.718222602008126 -43.341508151718159 0 0 0 -1 I I #
End-of-ACIS-data 