500 0 18 0           
7 Unknown 11 ACIS 5.0 NT 24 Thu Mar 25 20:38:34 1999 
-1 9.9999999999999995e-007 1e-010 
body $-1 $18 $-1 $19 #
body $-1 $20 $-1 $21 #
body $-1 $22 $-1 $23 #
body $-1 $24 $-1 $25 #
body $-1 $26 $-1 $27 #
body $-1 $28 $-1 $29 #
body $-1 $30 $-1 $31 #
body $-1 $32 $-1 $33 #
body $-1 $34 $-1 $35 #
body $-1 $36 $-1 $37 #
body $-1 $38 $-1 $39 #
body $-1 $40 $-1 $41 #
body $-1 $42 $-1 $43 #
body $-1 $44 $-1 $45 #
body $-1 $46 $-1 $47 #
body $-1 $48 $-1 $49 #
body $-1 $50 $-1 $51 #
body $-1 $52 $-1 $53 #
lump $-1 $-1 $54 $0 #
transform $-1 1 0 0 0 1 0 0 0 1 62.553178502761924 27.367659892506019 6.0388090015807681 1 rotate no_reflect no_shear #
lump $-1 $-1 $55 $1 #
transform $-1 1 0 0 0 1 0 0 0 1 62.553178502761924 27.367659892506019 6.0388090015807681 1 rotate no_reflect no_shear #
lump $-1 $-1 $56 $2 #
transform $-1 1 0 0 0 1 0 0 0 1 62.553178502761924 27.367659892506019 6.0388090015807681 1 rotate no_reflect no_shear #
lump $-1 $-1 $57 $3 #
transform $-1 1 0 0 0 1 0 0 0 1 62.553178502761924 27.367659892506019 6.0388090015807681 1 rotate no_reflect no_shear #
lump $-1 $-1 $58 $4 #
transform $-1 1 0 0 0 1 0 0 0 1 62.553178502761924 27.367659892506019 6.0388090015807681 1 rotate no_reflect no_shear #
lump $-1 $-1 $59 $5 #
transform $-1 1 0 0 0 1 0 0 0 1 62.553178502761924 27.367659892506019 6.0388090015807681 1 rotate no_reflect no_shear #
lump $-1 $-1 $60 $6 #
transform $-1 1 0 0 0 1 0 0 0 1 62.553178502761924 27.367659892506019 6.0388090015807681 1 rotate no_reflect no_shear #
lump $-1 $-1 $61 $7 #
transform $-1 1 0 0 0 1 0 0 0 1 62.553178502761924 27.367659892506019 6.0388090015807681 1 rotate no_reflect no_shear #
lump $-1 $-1 $62 $8 #
transform $-1 1 0 0 0 1 0 0 0 1 62.553178502761924 27.367659892506019 6.0388090015807681 1 rotate no_reflect no_shear #
lump $-1 $-1 $63 $9 #
transform $-1 1 0 0 0 1 0 0 0 1 62.553178502761924 27.367659892506019 6.0388090015807681 1 rotate no_reflect no_shear #
lump $-1 $-1 $64 $10 #
transform $-1 1 0 0 0 1 0 0 0 1 62.553178502761924 27.367659892506019 6.0388090015807681 1 rotate no_reflect no_shear #
lump $-1 $-1 $65 $11 #
transform $-1 1 0 0 0 1 0 0 0 1 62.553178502761924 27.367659892506019 6.0388090015807681 1 rotate no_reflect no_shear #
lump $-1 $-1 $66 $12 #
transform $-1 1 0 0 0 1 0 0 0 1 62.553178502761924 27.367659892506019 6.0388090015807681 1 rotate no_reflect no_shear #
lump $-1 $-1 $67 $13 #
transform $-1 1 0 0 0 1 0 0 0 1 62.553178502761924 27.367659892506019 6.0388090015807681 1 rotate no_reflect no_shear #
lump $-1 $-1 $68 $14 #
transform $-1 1 0 0 0 1 0 0 0 1 62.553178502761924 27.367659892506019 6.0388090015807681 1 rotate no_reflect no_shear #
lump $-1 $-1 $69 $15 #
transform $-1 1 0 0 0 1 0 0 0 1 62.553178502761924 27.367659892506019 6.0388090015807681 1 rotate no_reflect no_shear #
lump $-1 $-1 $70 $16 #
transform $-1 1 0 0 0 1 0 0 0 1 62.553178502761924 27.367659892506019 6.0388090015807681 1 rotate no_reflect no_shear #
lump $-1 $-1 $71 $17 #
transform $-1 1 0 0 0 1 0 0 0 1 62.553178502761924 27.367659892506019 6.0388090015807681 1 rotate no_reflect no_shear #
shell $-1 $-1 $-1 $72 $-1 $18 #
shell $-1 $-1 $-1 $73 $-1 $20 #
shell $-1 $-1 $-1 $74 $-1 $22 #
shell $-1 $-1 $-1 $75 $-1 $24 #
shell $-1 $-1 $-1 $76 $-1 $26 #
shell $-1 $-1 $-1 $77 $-1 $28 #
shell $-1 $-1 $-1 $78 $-1 $30 #
shell $-1 $-1 $-1 $79 $-1 $32 #
shell $-1 $-1 $-1 $80 $-1 $34 #
shell $-1 $-1 $-1 $81 $-1 $36 #
shell $-1 $-1 $-1 $82 $-1 $38 #
shell $-1 $-1 $-1 $83 $-1 $40 #
shell $-1 $-1 $-1 $84 $-1 $42 #
shell $-1 $-1 $-1 $85 $-1 $44 #
shell $-1 $-1 $-1 $86 $-1 $46 #
shell $-1 $-1 $-1 $87 $-1 $48 #
shell $-1 $-1 $-1 $88 $-1 $50 #
shell $-1 $-1 $-1 $89 $-1 $52 #
face $-1 $90 $91 $54 $-1 $92 forward single #
face $-1 $93 $94 $55 $-1 $95 forward single #
face $-1 $96 $97 $56 $-1 $98 forward single #
face $-1 $99 $100 $57 $-1 $101 reversed single #
face $-1 $102 $103 $58 $-1 $104 forward single #
face $-1 $105 $106 $59 $-1 $107 forward single #
face $-1 $108 $109 $60 $-1 $110 reversed single #
face $-1 $111 $112 $61 $-1 $113 forward single #
face $-1 $114 $115 $62 $-1 $116 forward single #
face $-1 $117 $118 $63 $-1 $119 reversed single #
face $-1 $120 $121 $64 $-1 $122 forward single #
face $-1 $123 $124 $65 $-1 $125 forward single #
face $-1 $126 $127 $66 $-1 $128 reversed single #
face $-1 $129 $130 $67 $-1 $131 forward single #
face $-1 $132 $133 $68 $-1 $134 forward single #
face $-1 $135 $136 $69 $-1 $137 reversed single #
face $-1 $138 $139 $70 $-1 $140 forward single #
face $-1 $141 $142 $71 $-1 $143 forward single #
face $-1 $144 $145 $54 $-1 $146 reversed single #
loop $-1 $-1 $147 $72 #
plane-surface $-1 0 0 6.0388090015807681 0 0 1 1 0 0 forward_v I I I I #
face $-1 $148 $149 $55 $-1 $150 reversed single #
loop $-1 $-1 $151 $73 #
plane-surface $-1 -58.851095739323277 0 -1.9233377277012185 0 0 1 1 0 0 forward_v I I I I #
face $-1 $152 $153 $56 $-1 $154 reversed single #
loop $-1 $-1 $155 $74 #
plane-surface $-1 58.85109573932327 0 -1.9233377277012185 0 0 1 1 0 0 forward_v I I I I #
face $-1 $156 $157 $57 $-1 $158 reversed single #
loop $-1 $-1 $159 $75 #
plane-surface $-1 -33.080708025952902 58.944976263568442 133.54712745233485 -1 0 0 0 0.6018150307709319 0.79863550430605224 forward_v I I I I #
face $-1 $160 $161 $58 $-1 $162 forward single #
loop $-1 $163 $164 $76 #
cone-surface $-1 -43.517999372109813 22.01791472721375 0.97396617077485326 0 -0.6018150307709319 -0.79863550430605224 2 0 0 1 I I 0 1 2 forward I I I I #
face $-1 $165 $166 $59 $-1 $167 forward single #
loop $-1 $168 $169 $77 #
cone-surface $-1 -37.255624564415669 22.01791472721375 0.97396617077485326 0 -0.6018150307709319 -0.79863550430605224 2 0 0 1 I I 0 1 2 forward I I I I #
face $-1 $170 $171 $60 $-1 $172 reversed single #
loop $-1 $-1 $173 $78 #
plane-surface $-1 -5.5062015380105898 58.944976263568442 133.54712745233485 -1 0 0 0 0.6018150307709319 0.79863550430605224 forward_v I I I I #
face $-1 $174 $175 $61 $-1 $176 forward single #
loop $-1 $177 $178 $79 #
cone-surface $-1 -15.943492884167497 22.01791472721375 0.97396617077485326 0 -0.6018150307709319 -0.79863550430605224 2 0 0 1 I I 0 1 2 forward I I I I #
face $-1 $179 $180 $62 $-1 $181 forward single #
loop $-1 $182 $183 $80 #
cone-surface $-1 -9.6811180764733535 22.01791472721375 0.97396617077485326 0 -0.6018150307709319 -0.79863550430605224 2 0 0 1 I I 0 1 2 forward I I I I #
face $-1 $184 $185 $63 $-1 $186 reversed single #
loop $-1 $-1 $187 $81 #
plane-surface $-1 22.068304949931733 58.944976263568442 133.54712745233485 -1 0 0 0 0.6018150307709319 0.79863550430605224 forward_v I I I I #
face $-1 $188 $189 $64 $-1 $190 forward single #
loop $-1 $191 $192 $82 #
cone-surface $-1 11.631013603774818 22.01791472721375 0.97396617077485326 0 -0.6018150307709319 -0.79863550430605224 2 0 0 1 I I 0 1 2 forward I I I I #
face $-1 $193 $194 $65 $-1 $195 forward single #
loop $-1 $196 $197 $83 #
cone-surface $-1 17.893388411468962 22.01791472721375 0.97396617077485326 0 -0.6018150307709319 -0.79863550430605224 2 0 0 1 I I 0 1 2 forward I I I I #
face $-1 $198 $199 $66 $-1 $200 reversed single #
loop $-1 $-1 $201 $84 #
plane-surface $-1 49.642811437874045 58.944976263568442 133.54712745233485 -1 0 0 0 0.6018150307709319 0.79863550430605224 forward_v I I I I #
face $-1 $202 $203 $67 $-1 $204 forward single #
loop $-1 $205 $206 $85 #
cone-surface $-1 39.205520091717133 22.01791472721375 0.97396617077485326 0 -0.6018150307709319 -0.79863550430605224 2 0 0 1 I I 0 1 2 forward I I I I #
face $-1 $207 $208 $68 $-1 $209 forward single #
loop $-1 $210 $211 $86 #
cone-surface $-1 45.467894899411277 22.01791472721375 0.97396617077485326 0 -0.6018150307709319 -0.79863550430605224 2 0 0 1 I I 0 1 2 forward I I I I #
face $-1 $212 $213 $69 $-1 $214 reversed single #
loop $-1 $-1 $215 $87 #
plane-surface $-1 30.07442929149515 -114.27383900498103 91.374321872308798 1 0 0 0 0.69465837861970381 -0.71933979245794832 forward_v I I I I #
face $-1 $216 $217 $70 $-1 $218 forward single #
loop $-1 $219 $220 $88 #
cone-surface $-1 33.822664637525605 -23.730724490180361 2.4411093780036652 0 0.69465837861970381 -0.71933979245794832 1 0 0 1 I I 0 1 1 forward I I I I #
face $-1 $221 $222 $71 $-1 $223 forward single #
loop $-1 $224 $225 $89 #
cone-surface $-1 39.445017656571295 -23.730724490180361 2.4411093780036652 0 0.69465837861970381 -0.71933979245794832 1 0 0 1 I I 0 1 1 forward I I I I #
face $-1 $226 $227 $54 $-1 $228 reversed single #
loop $-1 $-1 $229 $90 #
plane-surface $-1 0 0 -6.0388090015807681 0 0 1 1 0 0 forward_v I I I I #
coedge $-1 $230 $231 $232 $233 forward $91 $-1 #
face $-1 $234 $235 $55 $-1 $236 reversed single #
loop $-1 $-1 $237 $93 #
plane-surface $-1 -58.851095739323277 0 -5.5388090015807681 0 0 1 1 0 0 forward_v I I I I #
coedge $-1 $238 $239 $240 $241 forward $94 $-1 #
face $-1 $242 $243 $56 $-1 $244 reversed single #
loop $-1 $-1 $245 $96 #
plane-surface $-1 58.85109573932327 0 -5.5388090015807681 0 0 1 1 0 0 forward_v I I I I #
coedge $-1 $246 $247 $248 $249 reversed $97 $-1 #
face $-1 $250 $251 $57 $-1 $252 reversed single #
loop $-1 $-1 $253 $99 #
plane-surface $-1 -40.386811968262741 -16.345909827350091 33.632748933335293 0 0.6018150307709319 0.79863550430605224 1 0 0 forward_v I I I I #
coedge $-1 $254 $255 $256 $257 reversed $100 $-1 #
face $-1 $-1 $258 $58 $-1 $259 forward single #
loop $-1 $260 $261 $102 #
cone-surface $-1 -43.517999372109813 19.61394220722179 -2.2162130498774761 0 -0.6018150307709319 -0.79863550430605224 1 0 0 1 I I -0.70710678118654746 0.70710678118654746 1 forward I I I I #
loop $-1 $-1 $262 $76 #
coedge $-1 $164 $164 $263 $264 reversed $103 $-1 #
face $-1 $-1 $265 $59 $-1 $266 forward single #
loop $-1 $267 $268 $105 #
cone-surface $-1 -37.255624564415669 19.61394220722179 -2.2162130498774761 0 -0.6018150307709319 -0.79863550430605224 1 0 0 1 I I -0.70710678118654746 0.70710678118654746 1 forward I I I I #
loop $-1 $-1 $269 $77 #
coedge $-1 $169 $169 $270 $271 reversed $106 $-1 #
face $-1 $272 $273 $60 $-1 $274 reversed single #
loop $-1 $-1 $275 $108 #
plane-surface $-1 -12.812305480320425 -16.345909827350091 33.632748933335293 0 0.6018150307709319 0.79863550430605224 1 0 0 forward_v I I I I #
coedge $-1 $276 $277 $278 $279 reversed $109 $-1 #
face $-1 $-1 $280 $61 $-1 $281 forward single #
loop $-1 $282 $283 $111 #
cone-surface $-1 -15.943492884167497 19.61394220722179 -2.2162130498774761 0 -0.6018150307709319 -0.79863550430605224 1 0 0 1 I I -0.70710678118654746 0.70710678118654746 1 forward I I I I #
loop $-1 $-1 $284 $79 #
coedge $-1 $178 $178 $285 $286 reversed $112 $-1 #
face $-1 $-1 $287 $62 $-1 $288 forward single #
loop $-1 $289 $290 $114 #
cone-surface $-1 -9.6811180764733535 19.61394220722179 -2.2162130498774761 0 -0.6018150307709319 -0.79863550430605224 1 0 0 1 I I -0.70710678118654746 0.70710678118654746 1 forward I I I I #
loop $-1 $-1 $291 $80 #
coedge $-1 $183 $183 $292 $293 reversed $115 $-1 #
face $-1 $294 $295 $63 $-1 $296 reversed single #
loop $-1 $-1 $297 $117 #
plane-surface $-1 14.762201007621897 -16.345909827350091 33.632748933335293 0 0.6018150307709319 0.79863550430605224 1 0 0 forward_v I I I I #
coedge $-1 $298 $299 $300 $301 reversed $118 $-1 #
face $-1 $-1 $302 $64 $-1 $303 forward single #
loop $-1 $304 $305 $120 #
cone-surface $-1 11.631013603774818 19.61394220722179 -2.2162130498774761 0 -0.6018150307709319 -0.79863550430605224 1 0 0 1 I I -0.70710678118654746 0.70710678118654746 1 forward I I I I #
loop $-1 $-1 $306 $82 #
coedge $-1 $192 $192 $307 $308 reversed $121 $-1 #
face $-1 $-1 $309 $65 $-1 $310 forward single #
loop $-1 $311 $312 $123 #
cone-surface $-1 17.893388411468962 19.61394220722179 -2.2162130498774761 0 -0.6018150307709319 -0.79863550430605224 1 0 0 1 I I -0.70710678118654746 0.70710678118654746 1 forward I I I I #
loop $-1 $-1 $313 $83 #
coedge $-1 $197 $197 $314 $315 reversed $124 $-1 #
face $-1 $316 $317 $66 $-1 $318 reversed single #
loop $-1 $-1 $319 $126 #
plane-surface $-1 42.336707495564212 -16.345909827350091 33.632748933335293 0 0.6018150307709319 0.79863550430605224 1 0 0 forward_v I I I I #
coedge $-1 $320 $321 $322 $323 reversed $127 $-1 #
face $-1 $-1 $324 $67 $-1 $325 forward single #
loop $-1 $326 $327 $129 #
cone-surface $-1 39.205520091717133 19.61394220722179 -2.2162130498774761 0 -0.6018150307709319 -0.79863550430605224 1 0 0 1 I I -0.70710678118654746 0.70710678118654746 1 forward I I I I #
loop $-1 $-1 $328 $85 #
coedge $-1 $206 $206 $329 $330 reversed $130 $-1 #
face $-1 $-1 $331 $68 $-1 $332 forward single #
loop $-1 $333 $334 $132 #
cone-surface $-1 45.467894899411277 19.61394220722179 -2.2162130498774761 0 -0.6018150307709319 -0.79863550430605224 1 0 0 1 I I -0.70710678118654746 0.70710678118654746 1 forward I I I I #
loop $-1 $-1 $335 $86 #
coedge $-1 $211 $211 $336 $337 reversed $133 $-1 #
face $-1 $338 $339 $69 $-1 $340 reversed single #
loop $-1 $-1 $341 $135 #
plane-surface $-1 36.633841147048457 -27.367659892506012 1.380340988785278 0 -0.69465837861970381 0.71933979245794832 1 0 0 forward_v I I I I #
coedge $-1 $342 $343 $344 $345 reversed $136 $-1 #
face $-1 $-1 $346 $70 $-1 $347 forward single #
loop $-1 $348 $349 $138 #
cone-surface $-1 33.822664637525605 -22.158452265321458 0.81297386459531928 0 0.69465837861970381 -0.71933979245794832 0.5 0 0 1 I I -0.70710678118654746 0.70710678118654746 0.5 forward I I I I #
loop $-1 $-1 $350 $88 #
coedge $-1 $220 $220 $351 $352 reversed $139 $-1 #
face $-1 $-1 $353 $71 $-1 $354 forward single #
loop $-1 $355 $356 $141 #
cone-surface $-1 39.445017656571295 -22.158452265321458 0.81297386459531928 0 0.69465837861970381 -0.71933979245794832 0.5 0 0 1 I I -0.70710678118654746 0.70710678118654746 0.5 forward I I I I #
loop $-1 $-1 $357 $89 #
coedge $-1 $225 $225 $358 $359 reversed $142 $-1 #
face $-1 $360 $361 $54 $-1 $362 reversed single #
loop $-1 $-1 $363 $144 #
plane-surface $-1 0 -27.367659892506019 0 0 1 0 0 0 1 forward_v I I I I #
coedge $-1 $364 $365 $366 $367 forward $145 $-1 #
coedge $-1 $368 $147 $369 $370 forward $91 $-1 #
coedge $-1 $147 $368 $371 $372 forward $91 $-1 #
coedge $-1 $373 $374 $147 $233 reversed $375 $-1 #
edge $-1 $376 -27.367659892506019 $377 27.367659892506019 $232 $378 forward 7 unknown #
face $-1 $379 $380 $55 $-1 $381 reversed single #
loop $-1 $-1 $382 $148 #
plane-surface $-1 -55.149012975884631 0 -3.7310733646409933 -1 0 0 0 0 1 forward_v I I I I #
coedge $-1 $383 $384 $385 $386 forward $149 $-1 #
coedge $-1 $387 $151 $388 $389 reversed $94 $-1 #
coedge $-1 $151 $387 $390 $391 reversed $94 $-1 #
coedge $-1 $382 $392 $151 $241 reversed $235 $-1 #
edge $-1 $393 -27.367659892506019 $394 27.367659892506019 $240 $395 forward 7 unknown #
face $-1 $396 $397 $56 $-1 $398 reversed single #
loop $-1 $-1 $399 $152 #
plane-surface $-1 55.149012975884624 0 -3.7310733646409933 1 0 0 0 0 -1 forward_v I I I I #
coedge $-1 $400 $401 $402 $403 reversed $153 $-1 #
coedge $-1 $404 $155 $405 $406 reversed $97 $-1 #
coedge $-1 $155 $404 $407 $408 reversed $97 $-1 #
coedge $-1 $409 $410 $155 $249 forward $411 $-1 #
edge $-1 $412 -27.367659892506019 $413 27.367659892506019 $248 $414 forward 7 unknown #
face $-1 $415 $416 $57 $-1 $417 reversed single #
loop $-1 $-1 $418 $156 #
plane-surface $-1 -47.69291591057258 58.944976263568442 133.54712745233485 1 0 0 0 -0.6018150307709319 -0.79863550430605224 forward_v I I I I #
coedge $-1 $419 $420 $421 $422 reversed $157 $-1 #
coedge $-1 $255 $159 $423 $424 reversed $100 $-1 #
coedge $-1 $159 $254 $419 $425 reversed $100 $-1 #
coedge $-1 $421 $426 $159 $257 forward $416 $-1 #
edge $-1 $427 60.734754724586658 $428 66.081352953505927 $256 $429 forward 7 unknown #
loop $-1 $-1 $263 $160 #
plane-surface $-1 -40.386811968262741 -16.345909827350091 33.632748933335293 0 0.6018150307709319 0.79863550430605224 1 0 0 forward_v I I I I #
loop $-1 $-1 $430 $102 #
coedge $-1 $261 $261 $262 $431 reversed $161 $-1 #
coedge $-1 $262 $262 $261 $431 forward $163 $-1 #
coedge $-1 $263 $263 $164 $264 forward $258 $-1 #
edge $-1 $432 -9.3540846521833996e-016 $432 6.2831853071795996 $263 $433 forward 7 unknown #
loop $-1 $-1 $270 $165 #
plane-surface $-1 -40.386811968262741 -16.345909827350091 33.632748933335293 0 0.6018150307709319 0.79863550430605224 1 0 0 forward_v I I I I #
loop $-1 $-1 $434 $105 #
coedge $-1 $268 $268 $269 $435 reversed $166 $-1 #
coedge $-1 $269 $269 $268 $435 forward $168 $-1 #
coedge $-1 $270 $270 $169 $271 forward $265 $-1 #
edge $-1 $436 -9.3540846521833996e-016 $436 6.2831853071795996 $270 $437 forward 7 unknown #
face $-1 $438 $439 $60 $-1 $440 forward single #
loop $-1 $-1 $441 $170 #
plane-surface $-1 -20.118409422630261 58.944976263568442 133.54712745233485 1 0 0 0 -0.6018150307709319 -0.79863550430605224 forward_v I I I I #
coedge $-1 $442 $443 $444 $445 reversed $171 $-1 #
coedge $-1 $277 $173 $446 $447 reversed $109 $-1 #
coedge $-1 $173 $276 $442 $448 reversed $109 $-1 #
coedge $-1 $444 $449 $173 $279 forward $450 $-1 #
edge $-1 $451 60.734754724586658 $452 66.081352953505927 $278 $453 forward 7 unknown #
loop $-1 $-1 $285 $174 #
plane-surface $-1 -12.812305480320425 -16.345909827350091 33.632748933335293 0 0.6018150307709319 0.79863550430605224 1 0 0 forward_v I I I I #
loop $-1 $-1 $454 $111 #
coedge $-1 $283 $283 $284 $455 reversed $175 $-1 #
coedge $-1 $284 $284 $283 $455 forward $177 $-1 #
coedge $-1 $285 $285 $178 $286 forward $280 $-1 #
edge $-1 $456 -9.3540846521833996e-016 $456 6.2831853071795996 $285 $457 forward 7 unknown #
loop $-1 $-1 $292 $179 #
plane-surface $-1 -12.812305480320425 -16.345909827350091 33.632748933335293 0 0.6018150307709319 0.79863550430605224 1 0 0 forward_v I I I I #
loop $-1 $-1 $458 $114 #
coedge $-1 $290 $290 $291 $459 reversed $180 $-1 #
coedge $-1 $291 $291 $290 $459 forward $182 $-1 #
coedge $-1 $292 $292 $183 $293 forward $287 $-1 #
edge $-1 $460 -9.3540846521833996e-016 $460 6.2831853071795996 $292 $461 forward 7 unknown #
face $-1 $462 $463 $63 $-1 $464 forward single #
loop $-1 $-1 $465 $184 #
plane-surface $-1 7.4560970653120613 58.944976263568442 133.54712745233485 1 0 0 0 -0.6018150307709319 -0.79863550430605224 forward_v I I I I #
coedge $-1 $466 $467 $468 $469 reversed $185 $-1 #
coedge $-1 $299 $187 $470 $471 reversed $118 $-1 #
coedge $-1 $187 $298 $466 $472 reversed $118 $-1 #
coedge $-1 $468 $473 $187 $301 forward $474 $-1 #
edge $-1 $475 60.734754724586658 $476 66.081352953505927 $300 $477 forward 7 unknown #
loop $-1 $-1 $307 $188 #
plane-surface $-1 14.762201007621897 -16.345909827350091 33.632748933335293 0 0.6018150307709319 0.79863550430605224 1 0 0 forward_v I I I I #
loop $-1 $-1 $478 $120 #
coedge $-1 $305 $305 $306 $479 reversed $189 $-1 #
coedge $-1 $306 $306 $305 $479 forward $191 $-1 #
coedge $-1 $307 $307 $192 $308 forward $302 $-1 #
edge $-1 $480 -9.3540846521833996e-016 $480 6.2831853071795996 $307 $481 forward 7 unknown #
loop $-1 $-1 $314 $193 #
plane-surface $-1 14.762201007621897 -16.345909827350091 33.632748933335293 0 0.6018150307709319 0.79863550430605224 1 0 0 forward_v I I I I #
loop $-1 $-1 $482 $123 #
coedge $-1 $312 $312 $313 $483 reversed $194 $-1 #
coedge $-1 $313 $313 $312 $483 forward $196 $-1 #
coedge $-1 $314 $314 $197 $315 forward $309 $-1 #
edge $-1 $484 -9.3540846521833996e-016 $484 6.2831853071795996 $314 $485 forward 7 unknown #
face $-1 $486 $487 $66 $-1 $488 forward single #
loop $-1 $-1 $489 $198 #
plane-surface $-1 35.03060355325438 58.944976263568442 133.54712745233485 1 0 0 0 -0.6018150307709319 -0.79863550430605224 forward_v I I I I #
coedge $-1 $490 $491 $492 $493 reversed $199 $-1 #
coedge $-1 $321 $201 $494 $495 reversed $127 $-1 #
coedge $-1 $201 $320 $490 $496 reversed $127 $-1 #
coedge $-1 $492 $497 $201 $323 forward $498 $-1 #
edge $-1 $499 60.734754724586658 $500 66.081352953505927 $322 $501 forward 7 unknown #
loop $-1 $-1 $329 $202 #
plane-surface $-1 42.336707495564212 -16.345909827350091 33.632748933335293 0 0.6018150307709319 0.79863550430605224 1 0 0 forward_v I I I I #
loop $-1 $-1 $502 $129 #
coedge $-1 $327 $327 $328 $503 reversed $203 $-1 #
coedge $-1 $328 $328 $327 $503 forward $205 $-1 #
coedge $-1 $329 $329 $206 $330 forward $324 $-1 #
edge $-1 $504 -9.3540846521833996e-016 $504 6.2831853071795996 $329 $505 forward 7 unknown #
loop $-1 $-1 $336 $207 #
plane-surface $-1 42.336707495564212 -16.345909827350091 33.632748933335293 0 0.6018150307709319 0.79863550430605224 1 0 0 forward_v I I I I #
loop $-1 $-1 $506 $132 #
coedge $-1 $334 $334 $335 $507 reversed $208 $-1 #
coedge $-1 $335 $335 $334 $507 forward $210 $-1 #
coedge $-1 $336 $336 $211 $337 forward $331 $-1 #
edge $-1 $508 -9.3540846521833996e-016 $508 6.2831853071795996 $336 $509 forward 7 unknown #
face $-1 $510 $511 $69 $-1 $512 forward single #
loop $-1 $-1 $513 $212 #
plane-surface $-1 43.193253002601764 -114.27383900498103 91.374321872308798 -1 0 0 0 -0.69465837861970381 0.71933979245794832 forward_v I I I I #
coedge $-1 $514 $515 $516 $517 reversed $213 $-1 #
coedge $-1 $343 $215 $518 $519 reversed $136 $-1 #
coedge $-1 $215 $342 $514 $520 reversed $136 $-1 #
coedge $-1 $516 $521 $215 $345 forward $522 $-1 #
edge $-1 $523 39.648351934573633 $524 44.306819947369128 $344 $525 forward 7 unknown #
loop $-1 $-1 $351 $216 #
plane-surface $-1 36.633841147048457 -27.367659892506012 1.380340988785278 0 -0.69465837861970381 0.71933979245794832 1 0 0 forward_v I I I I #
loop $-1 $-1 $526 $138 #
coedge $-1 $349 $349 $350 $527 reversed $217 $-1 #
coedge $-1 $350 $350 $349 $527 forward $219 $-1 #
coedge $-1 $351 $351 $220 $352 forward $346 $-1 #
edge $-1 $528 -4.3842998277633828e-016 $528 6.2831853071796004 $351 $529 forward 7 unknown #
loop $-1 $-1 $358 $221 #
plane-surface $-1 36.633841147048457 -27.367659892506012 1.380340988785278 0 -0.69465837861970381 0.71933979245794832 1 0 0 forward_v I I I I #
loop $-1 $-1 $530 $141 #
coedge $-1 $356 $356 $357 $531 reversed $222 $-1 #
coedge $-1 $357 $357 $356 $531 forward $224 $-1 #
coedge $-1 $358 $358 $225 $359 forward $353 $-1 #
edge $-1 $532 -4.3842998277633828e-016 $532 6.2831853071796004 $358 $533 forward 7 unknown #
face $-1 $534 $535 $54 $-1 $536 reversed single #
loop $-1 $-1 $537 $226 #
plane-surface $-1 -62.553178502761924 0 0 1 0 0 0 0 -1 forward_v I I I I #
coedge $-1 $538 $371 $539 $540 forward $227 $-1 #
coedge $-1 $541 $229 $538 $542 forward $145 $-1 #
coedge $-1 $229 $541 $543 $544 forward $145 $-1 #
coedge $-1 $374 $373 $229 $367 reversed $375 $-1 #
edge $-1 $545 -27.367659892506019 $546 27.367659892506019 $366 $547 forward 7 unknown #
coedge $-1 $231 $230 $548 $549 forward $91 $-1 #
coedge $-1 $550 $551 $230 $370 reversed $535 $-1 #
edge $-1 $377 -62.553178502761924 $552 62.553178502761924 $369 $553 forward 7 unknown #
coedge $-1 $363 $554 $231 $372 reversed $227 $-1 #
edge $-1 $555 -62.553178502761924 $376 62.553178502761924 $371 $556 forward 7 unknown #
coedge $-1 $366 $232 $554 $557 forward $375 $-1 #
coedge $-1 $232 $366 $550 $558 reversed $375 $-1 #
loop $-1 $-1 $373 $534 #
vertex $-1 $233 $559 #
vertex $-1 $233 $560 #
straight-curve $-1 62.553178502761924 0 6.0388090015807681 0 1 0 I I #
face $-1 $561 $562 $55 $-1 $563 reversed single #
loop $-1 $-1 $564 $234 #
plane-surface $-1 0 -27.367659892506019 0 0 1 0 0 0 1 forward_v I I I I #
coedge $-1 $385 $240 $565 $566 reversed $235 $-1 #
coedge $-1 $567 $237 $564 $568 reversed $149 $-1 #
coedge $-1 $237 $567 $569 $570 reversed $149 $-1 #
coedge $-1 $392 $382 $237 $386 reversed $235 $-1 #
edge $-1 $571 -27.367659892506019 $572 27.367659892506019 $385 $573 forward 7 unknown #
coedge $-1 $239 $238 $574 $575 reversed $94 $-1 #
coedge $-1 $576 $577 $238 $389 forward $578 $-1 #
edge $-1 $579 -33.127630633100281 $394 -25.723465106222992 $388 $580 forward 7 unknown #
coedge $-1 $581 $565 $239 $391 forward $380 $-1 #
edge $-1 $393 25.723465106222992 $582 33.127630633100281 $390 $583 forward 7 unknown #
coedge $-1 $240 $385 $576 $584 reversed $235 $-1 #
vertex $-1 $391 $585 #
vertex $-1 $389 $586 #
straight-curve $-1 -55.149012975884631 0 -1.9233377277012185 0 1 0 I I #
face $-1 $587 $588 $56 $-1 $589 reversed single #
loop $-1 $-1 $407 $242 #
plane-surface $-1 0 -27.367659892506019 0 0 1 0 0 0 1 forward_v I I I I #
coedge $-1 $590 $591 $592 $593 reversed $243 $-1 #
coedge $-1 $594 $245 $595 $596 reversed $153 $-1 #
coedge $-1 $245 $594 $597 $598 reversed $153 $-1 #
coedge $-1 $410 $409 $245 $403 forward $411 $-1 #
edge $-1 $599 -27.367659892506019 $600 27.367659892506019 $402 $601 forward 7 unknown #
coedge $-1 $247 $246 $591 $602 forward $97 $-1 #
coedge $-1 $603 $592 $246 $406 forward $588 $-1 #
edge $-1 $604 25.723465106222989 $412 33.127630633100281 $405 $605 forward 7 unknown #
coedge $-1 $606 $607 $247 $408 forward $397 $-1 #
edge $-1 $413 -33.127630633100281 $608 -25.723465106222989 $407 $609 forward 7 unknown #
coedge $-1 $402 $248 $607 $610 forward $411 $-1 #
coedge $-1 $248 $402 $603 $611 reversed $411 $-1 #
loop $-1 $-1 $248 $587 #
vertex $-1 $611 $612 #
vertex $-1 $610 $613 #
straight-curve $-1 62.553178502761924 0 -1.9233377277012185 0 -1 0 I I #
face $-1 $-1 $614 $57 $-1 $615 forward single #
loop $-1 $-1 $256 $250 #
plane-surface $-1 0 27.367659892506019 0 0 -1 0 0 0 -1 forward_v I I I I #
coedge $-1 $616 $617 $618 $619 reversed $251 $-1 #
coedge $-1 $620 $253 $255 $425 forward $157 $-1 #
coedge $-1 $253 $620 $616 $621 forward $157 $-1 #
coedge $-1 $618 $256 $253 $422 forward $416 $-1 #
edge $-1 $428 12.887302041821531 $622 27.49950992644121 $421 $623 forward 7 unknown #
coedge $-1 $624 $625 $254 $424 forward $614 $-1 #
edge $-1 $626 -9.2000035914206997 $427 -2.1048282392782021 $423 $627 forward 7 unknown #
edge $-1 $428 -54.735319785012024 $626 -45.851197661856958 $255 $628 forward 7 unknown #
coedge $-1 $256 $618 $624 $629 reversed $416 $-1 #
vertex $-1 $629 $630 #
vertex $-1 $257 $631 #
straight-curve $-1 -33.080708025952902 27.367659892506019 66.773563726167424 0 0 -1 I I #
coedge $-1 $430 $430 $-1 $632 reversed $260 $-1 #
edge $-1 $633 0 $633 6.2831853071796004 $261 $634 forward 7 unknown #
vertex $-1 $264 $635 #
ellipse-curve $-1 -43.517999372109813 23.820072216434774 3.3655098871211275 0 0.6018150307709319 0.79863550430605224 2 0 0 1 I I #
coedge $-1 $434 $434 $-1 $636 reversed $267 $-1 #
edge $-1 $637 0 $637 6.2831853071796004 $268 $638 forward 7 unknown #
vertex $-1 $271 $639 #
ellipse-curve $-1 -37.255624564415669 23.820072216434774 3.3655098871211275 0 0.6018150307709319 0.79863550430605224 2 0 0 1 I I #
face $-1 $-1 $450 $60 $-1 $640 reversed single #
loop $-1 $-1 $641 $272 #
plane-surface $-1 0 0 6.0388090015807681 0 0 1 1 0 0 forward_v I I I I #
coedge $-1 $642 $643 $644 $645 reversed $273 $-1 #
coedge $-1 $646 $275 $277 $448 forward $171 $-1 #
coedge $-1 $275 $646 $642 $647 forward $171 $-1 #
coedge $-1 $644 $278 $275 $445 forward $450 $-1 #
edge $-1 $452 -0.89995120214962299 $648 13.712256682470048 $444 $649 forward 7 unknown #
coedge $-1 $650 $651 $276 $447 forward $439 $-1 #
edge $-1 $652 -9.2000035914206997 $451 -2.1048282392782021 $446 $653 forward 7 unknown #
edge $-1 $452 -54.735319785012024 $652 -45.851197661856958 $277 $654 forward 7 unknown #
coedge $-1 $278 $644 $650 $655 reversed $450 $-1 #
loop $-1 $-1 $644 $438 #
vertex $-1 $655 $656 #
vertex $-1 $279 $657 #
straight-curve $-1 -5.5062015380105898 27.367659892506019 66.773563726167424 0 0 -1 I I #
coedge $-1 $454 $454 $-1 $658 reversed $282 $-1 #
edge $-1 $659 0 $659 6.2831853071796004 $283 $660 forward 7 unknown #
vertex $-1 $286 $661 #
ellipse-curve $-1 -15.943492884167497 23.820072216434774 3.3655098871211275 0 0.6018150307709319 0.79863550430605224 2 0 0 1 I I #
coedge $-1 $458 $458 $-1 $662 reversed $289 $-1 #
edge $-1 $663 0 $663 6.2831853071796004 $290 $664 forward 7 unknown #
vertex $-1 $293 $665 #
ellipse-curve $-1 -9.6811180764733535 23.820072216434774 3.3655098871211275 0 0.6018150307709319 0.79863550430605224 2 0 0 1 I I #
face $-1 $-1 $474 $63 $-1 $666 reversed single #
loop $-1 $-1 $667 $294 #
plane-surface $-1 0 0 6.0388090015807681 0 0 1 1 0 0 forward_v I I I I #
coedge $-1 $668 $669 $670 $671 reversed $295 $-1 #
coedge $-1 $672 $297 $299 $472 forward $185 $-1 #
coedge $-1 $297 $672 $668 $673 forward $185 $-1 #
coedge $-1 $670 $300 $297 $469 forward $474 $-1 #
edge $-1 $476 -14.687204446120784 $674 -0.07499656150111278 $468 $675 forward 7 unknown #
coedge $-1 $676 $677 $298 $471 forward $463 $-1 #
edge $-1 $678 -9.2000035914206997 $475 -2.1048282392782021 $470 $679 forward 7 unknown #
edge $-1 $476 -54.735319785012024 $678 -45.851197661856958 $299 $680 forward 7 unknown #
coedge $-1 $300 $670 $676 $681 reversed $474 $-1 #
loop $-1 $-1 $670 $462 #
vertex $-1 $681 $682 #
vertex $-1 $301 $683 #
straight-curve $-1 22.068304949931733 27.367659892506019 66.773563726167424 0 0 -1 I I #
coedge $-1 $478 $478 $-1 $684 reversed $304 $-1 #
edge $-1 $685 0 $685 6.2831853071796004 $305 $686 forward 7 unknown #
vertex $-1 $308 $687 #
ellipse-curve $-1 11.631013603774818 23.820072216434774 3.3655098871211275 0 0.6018150307709319 0.79863550430605224 2 0 0 1 I I #
coedge $-1 $482 $482 $-1 $688 reversed $311 $-1 #
edge $-1 $689 0 $689 6.2831853071796004 $312 $690 forward 7 unknown #
vertex $-1 $315 $691 #
ellipse-curve $-1 17.893388411468962 23.820072216434774 3.3655098871211275 0 0.6018150307709319 0.79863550430605224 2 0 0 1 I I #
face $-1 $-1 $498 $66 $-1 $692 reversed single #
loop $-1 $-1 $693 $316 #
plane-surface $-1 0 0 6.0388090015807681 0 0 1 1 0 0 forward_v I I I I #
coedge $-1 $694 $695 $696 $697 reversed $317 $-1 #
coedge $-1 $698 $319 $321 $496 forward $199 $-1 #
coedge $-1 $319 $698 $694 $699 forward $199 $-1 #
coedge $-1 $696 $322 $319 $493 forward $498 $-1 #
edge $-1 $500 -28.474457690091938 $700 -13.862249805472274 $492 $701 forward 7 unknown #
coedge $-1 $702 $703 $320 $495 forward $487 $-1 #
edge $-1 $704 -9.2000035914206997 $499 -2.1048282392782021 $494 $705 forward 7 unknown #
edge $-1 $500 -54.735319785012024 $704 -45.851197661856958 $321 $706 forward 7 unknown #
coedge $-1 $322 $696 $702 $707 reversed $498 $-1 #
loop $-1 $-1 $696 $486 #
vertex $-1 $707 $708 #
vertex $-1 $323 $709 #
straight-curve $-1 49.642811437874045 27.367659892506019 66.773563726167424 0 0 -1 I I #
coedge $-1 $502 $502 $-1 $710 reversed $326 $-1 #
edge $-1 $711 0 $711 6.2831853071796004 $327 $712 forward 7 unknown #
vertex $-1 $330 $713 #
ellipse-curve $-1 39.205520091717133 23.820072216434774 3.3655098871211275 0 0.6018150307709319 0.79863550430605224 2 0 0 1 I I #
coedge $-1 $506 $506 $-1 $714 reversed $333 $-1 #
edge $-1 $715 0 $715 6.2831853071796004 $334 $716 forward 7 unknown #
vertex $-1 $337 $717 #
ellipse-curve $-1 45.467894899411277 23.820072216434774 3.3655098871211275 0 0.6018150307709319 0.79863550430605224 2 0 0 1 I I #
face $-1 $-1 $522 $69 $-1 $718 reversed single #
loop $-1 $-1 $719 $338 #
plane-surface $-1 0 0 6.0388090015807681 0 0 1 1 0 0 forward_v I I I I #
coedge $-1 $720 $721 $722 $723 reversed $339 $-1 #
coedge $-1 $724 $341 $343 $520 forward $213 $-1 #
coedge $-1 $341 $724 $720 $725 forward $213 $-1 #
coedge $-1 $722 $344 $341 $517 forward $522 $-1 #
edge $-1 $524 11.757508717970921 $726 24.876332429077536 $516 $727 forward 7 unknown #
coedge $-1 $728 $729 $342 $519 forward $511 $-1 #
edge $-1 $730 -34.593244343537748 $523 -29.769259609984495 $518 $731 forward 7 unknown #
edge $-1 $524 -9.8928161431344572e-015 $730 6.7061280136747694 $343 $732 forward 7 unknown #
coedge $-1 $344 $722 $728 $733 reversed $522 $-1 #
loop $-1 $-1 $722 $510 #
vertex $-1 $733 $734 #
vertex $-1 $345 $735 #
straight-curve $-1 30.07442929149515 -27.367659892506019 45.687160936154399 0 0 -1 I I #
coedge $-1 $526 $526 $-1 $736 reversed $348 $-1 #
edge $-1 $737 0 $737 6.2831853071796004 $349 $738 forward 7 unknown #
vertex $-1 $352 $739 #
ellipse-curve $-1 33.822664637525605 -24.955667525729396 3.709574995183019 0 -0.69465837861970381 0.71933979245794832 1 0 0 1 I I #
coedge $-1 $530 $530 $-1 $740 reversed $355 $-1 #
edge $-1 $741 0 $741 6.2831853071796004 $356 $742 forward 7 unknown #
vertex $-1 $359 $743 #
ellipse-curve $-1 39.445017656571295 -24.955667525729396 3.709574995183019 0 -0.69465837861970381 0.71933979245794832 1 0 0 1 I I #
face $-1 $-1 $375 $54 $-1 $744 reversed single #
loop $-1 $-1 $550 $360 #
plane-surface $-1 0 27.367659892506019 0 0 -1 0 0 0 -1 forward_v I I I I #
coedge $-1 $745 $548 $551 $746 forward $361 $-1 #
coedge $-1 $554 $363 $364 $542 reversed $227 $-1 #
coedge $-1 $548 $745 $363 $540 reversed $361 $-1 #
edge $-1 $555 -6.0388090015807681 $747 6.0388090015807681 $539 $748 forward 7 unknown #
coedge $-1 $365 $364 $745 $749 forward $145 $-1 #
edge $-1 $546 -62.553178502761924 $747 62.553178502761924 $538 $750 forward 7 unknown #
coedge $-1 $551 $550 $365 $544 reversed $535 $-1 #
edge $-1 $751 -62.553178502761924 $545 62.553178502761924 $543 $752 forward 7 unknown #
vertex $-1 $367 $753 #
vertex $-1 $557 $754 #
straight-curve $-1 62.553178502761924 0 -6.0388090015807681 0 -1 0 I I #
coedge $-1 $537 $539 $368 $549 reversed $361 $-1 #
edge $-1 $552 -27.367659892506019 $555 27.367659892506019 $548 $755 forward 7 unknown #
coedge $-1 $543 $369 $374 $558 forward $535 $-1 #
coedge $-1 $369 $543 $537 $746 reversed $535 $-1 #
vertex $-1 $370 $756 #
straight-curve $-1 0 27.367659892506019 6.0388090015807681 -1 0 0 I I #
coedge $-1 $371 $538 $373 $557 reversed $227 $-1 #
vertex $-1 $549 $757 #
straight-curve $-1 0 -27.367659892506019 6.0388090015807681 1 0 0 I I #
edge $-1 $376 -6.0388090015807681 $546 6.0388090015807681 $373 $758 forward 7 unknown #
edge $-1 $377 -6.0388090015807681 $545 6.0388090015807681 $374 $759 forward 7 unknown #
point $-1 62.553178502761924 -27.367659892506019 6.0388090015807681 #
point $-1 62.553178502761924 27.367659892506019 6.0388090015807681 #
face $-1 $-1 $578 $55 $-1 $760 reversed single #
loop $-1 $-1 $761 $379 #
plane-surface $-1 -62.553178502761924 0 0 1 0 0 0 0 -1 forward_v I I I I #
coedge $-1 $565 $581 $383 $568 forward $380 $-1 #
coedge $-1 $390 $564 $382 $566 forward $380 $-1 #
edge $-1 $572 -3.6732723192602714 $393 -0.057801045380721838 $565 $762 forward 7 unknown #
coedge $-1 $384 $383 $761 $763 reversed $149 $-1 #
edge $-1 $764 -33.127630633100281 $572 -25.723465106222992 $564 $765 forward 7 unknown #
coedge $-1 $577 $576 $384 $570 forward $578 $-1 #
edge $-1 $571 25.723465106222992 $766 33.127630633100281 $569 $767 forward 7 unknown #
vertex $-1 $570 $768 #
vertex $-1 $568 $769 #
straight-curve $-1 -55.149012975884631 0 -5.5388090015807681 0 -1 0 I I #
coedge $-1 $770 $771 $387 $575 forward $562 $-1 #
edge $-1 $582 -27.367659892506019 $579 27.367659892506019 $574 $772 forward 7 unknown #
coedge $-1 $569 $388 $392 $584 forward $578 $-1 #
coedge $-1 $388 $569 $770 $773 reversed $578 $-1 #
loop $-1 $-1 $569 $561 #
vertex $-1 $773 $774 #
straight-curve $-1 -29.425547869661639 27.367659892506019 -1.9233377277012185 1 0 0 I I #
coedge $-1 $564 $390 $771 $775 forward $380 $-1 #
vertex $-1 $775 $776 #
straight-curve $-1 -29.425547869661639 -27.367659892506019 -1.9233377277012185 -1 0 0 I I #
edge $-1 $394 0.057801045380721838 $571 3.6732723192602714 $576 $777 forward 7 unknown #
point $-1 -55.149012975884631 -27.367659892506019 -1.9233377277012185 #
point $-1 -55.149012975884631 27.367659892506019 -1.9233377277012185 #
face $-1 $-1 $411 $56 $-1 $778 reversed single #
loop $-1 $-1 $405 $396 #
plane-surface $-1 0 27.367659892506019 0 0 -1 0 0 0 -1 forward_v I I I I #
coedge $-1 $779 $399 $594 $780 reversed $243 $-1 #
coedge $-1 $399 $779 $404 $602 reversed $243 $-1 #
coedge $-1 $405 $597 $399 $593 forward $588 $-1 #
edge $-1 $781 -3.6732723192602714 $604 -0.057801045380721838 $592 $782 forward 7 unknown #
coedge $-1 $401 $400 $590 $780 forward $153 $-1 #
coedge $-1 $607 $606 $400 $596 forward $397 $-1 #
edge $-1 $783 25.723465106222989 $599 33.127630633100281 $595 $784 forward 7 unknown #
coedge $-1 $592 $603 $401 $598 forward $588 $-1 #
edge $-1 $600 -33.127630633100281 $781 -25.723465106222989 $597 $785 forward 7 unknown #
vertex $-1 $403 $786 #
vertex $-1 $403 $787 #
straight-curve $-1 62.553178502761924 0 -5.5388090015807681 0 1 0 I I #
edge $-1 $604 -27.367659892506019 $608 27.367659892506019 $591 $788 forward 7 unknown #
coedge $-1 $597 $405 $410 $611 forward $588 $-1 #
vertex $-1 $406 $789 #
straight-curve $-1 29.425547869661635 27.367659892506019 -1.9233377277012185 1 0 0 I I #
coedge $-1 $595 $407 $779 $790 forward $397 $-1 #
coedge $-1 $407 $595 $409 $610 reversed $397 $-1 #
vertex $-1 $408 $791 #
straight-curve $-1 29.425547869661635 -27.367659892506019 -1.9233377277012185 -1 0 0 I I #
edge $-1 $413 1.9233377277012185 $599 5.5388090015807681 $409 $792 forward 7 unknown #
edge $-1 $412 1.9233377277012185 $600 5.5388090015807681 $410 $793 forward 7 unknown #
point $-1 62.553178502761916 27.367659892506019 -1.9233377277012185 #
point $-1 62.553178502761916 -27.367659892506019 -1.9233377277012185 #
loop $-1 $-1 $423 $415 #
plane-surface $-1 0 0 6.0388090015807681 0 0 1 1 0 0 forward_v I I I I #
coedge $-1 $617 $418 $420 $621 reversed $251 $-1 #
coedge $-1 $418 $616 $794 $795 reversed $251 $-1 #
coedge $-1 $426 $421 $418 $619 forward $416 $-1 #
edge $-1 $622 -66.081352953505927 $796 -60.734754724586658 $618 $797 forward 7 unknown #
coedge $-1 $420 $419 $625 $798 reversed $157 $-1 #
edge $-1 $799 45.851197661856958 $622 54.735319785012024 $616 $800 forward 7 unknown #
vertex $-1 $422 $801 #
straight-curve $-1 -20.19340598413137 27.367659892506019 0.69221077266148967 -1 0 0 I I #
coedge $-1 $794 $423 $426 $629 forward $614 $-1 #
coedge $-1 $423 $794 $620 $798 forward $614 $-1 #
vertex $-1 $424 $802 #
straight-curve $-1 -33.080708025952902 29.472488131784221 6.0388090015807663 0 1 0 I I #
straight-curve $-1 -33.080708025952902 -16.345909827350091 33.632748933335293 0 -0.79863550430605224 0.6018150307709319 I I #
edge $-1 $427 33.080708025952902 $796 47.69291591057258 $426 $803 forward 7 unknown #
point $-1 -33.080708025952902 27.367659892506019 6.0388090015807681 #
point $-1 -33.080708025952902 27.367659892506019 0.69221077266148967 #
edge $-1 $804 1 $804 0 $430 $-1 forward 7 unknown #
vertex $-1 $431 $805 #
ellipse-curve $-1 -43.517999372109813 20.215757237992722 -1.4175775455714239 0 0.6018150307709319 0.79863550430605224 2 0 0 1 I I #
point $-1 -41.517999372109813 23.820072216434774 3.3655098871211306 #
edge $-1 $806 1 $806 0 $434 $-1 forward 7 unknown #
vertex $-1 $435 $807 #
ellipse-curve $-1 -37.255624564415669 20.215757237992722 -1.4175775455714239 0 0.6018150307709319 0.79863550430605224 2 0 0 1 I I #
point $-1 -35.255624564415669 23.820072216434774 3.3655098871211306 #
plane-surface $-1 0 27.367659892506019 0 0 -1 0 0 0 -1 forward_v I I I I #
coedge $-1 $651 $650 $643 $808 forward $439 $-1 #
coedge $-1 $643 $441 $443 $647 reversed $273 $-1 #
coedge $-1 $441 $642 $641 $808 reversed $273 $-1 #
coedge $-1 $449 $444 $441 $645 forward $450 $-1 #
edge $-1 $648 -66.081352953505927 $809 -60.734754724586658 $644 $810 forward 7 unknown #
coedge $-1 $443 $442 $651 $811 reversed $171 $-1 #
edge $-1 $812 45.851197661856958 $648 54.735319785012024 $642 $813 forward 7 unknown #
vertex $-1 $445 $814 #
straight-curve $-1 -6.4061527401602127 27.367659892506019 0.69221077266148967 -1 0 0 I I #
coedge $-1 $641 $446 $449 $655 forward $439 $-1 #
coedge $-1 $446 $641 $646 $811 forward $439 $-1 #
vertex $-1 $447 $815 #
straight-curve $-1 -5.5062015380105898 29.472488131784221 6.0388090015807663 0 1 0 I I #
straight-curve $-1 -5.5062015380105898 -16.345909827350091 33.632748933335293 0 -0.79863550430605224 0.6018150307709319 I I #
edge $-1 $451 5.5062015380105898 $809 20.118409422630261 $449 $816 forward 7 unknown #
point $-1 -5.5062015380105898 27.367659892506019 6.0388090015807681 #
point $-1 -5.5062015380105898 27.367659892506019 0.69221077266148967 #
edge $-1 $817 1 $817 0 $454 $-1 forward 7 unknown #
vertex $-1 $455 $818 #
ellipse-curve $-1 -15.943492884167497 20.215757237992722 -1.4175775455714239 0 0.6018150307709319 0.79863550430605224 2 0 0 1 I I #
point $-1 -13.943492884167497 23.820072216434774 3.3655098871211306 #
edge $-1 $819 1 $819 0 $458 $-1 forward 7 unknown #
vertex $-1 $459 $820 #
ellipse-curve $-1 -9.6811180764733535 20.215757237992722 -1.4175775455714239 0 0.6018150307709319 0.79863550430605224 2 0 0 1 I I #
point $-1 -7.6811180764733535 23.820072216434774 3.3655098871211306 #
plane-surface $-1 0 27.367659892506019 0 0 -1 0 0 0 -1 forward_v I I I I #
coedge $-1 $677 $676 $669 $821 forward $463 $-1 #
coedge $-1 $669 $465 $467 $673 reversed $295 $-1 #
coedge $-1 $465 $668 $667 $821 reversed $295 $-1 #
coedge $-1 $473 $468 $465 $671 forward $474 $-1 #
edge $-1 $674 -66.081352953505927 $822 -60.734754724586658 $670 $823 forward 7 unknown #
coedge $-1 $467 $466 $677 $824 reversed $185 $-1 #
edge $-1 $825 45.851197661856958 $674 54.735319785012024 $668 $826 forward 7 unknown #
vertex $-1 $469 $827 #
straight-curve $-1 7.3811005038109485 27.367659892506019 0.69221077266148967 -1 0 0 I I #
coedge $-1 $667 $470 $473 $681 forward $463 $-1 #
coedge $-1 $470 $667 $672 $824 forward $463 $-1 #
vertex $-1 $471 $828 #
straight-curve $-1 22.068304949931733 29.472488131784221 6.0388090015807663 0 1 0 I I #
straight-curve $-1 22.068304949931733 -16.345909827350091 33.632748933335293 0 -0.79863550430605224 0.6018150307709319 I I #
edge $-1 $475 -22.068304949931733 $822 -7.4560970653120613 $473 $829 forward 7 unknown #
point $-1 22.068304949931733 27.367659892506019 6.0388090015807681 #
point $-1 22.068304949931733 27.367659892506019 0.69221077266148967 #
edge $-1 $830 1 $830 0 $478 $-1 forward 7 unknown #
vertex $-1 $479 $831 #
ellipse-curve $-1 11.631013603774818 20.215757237992722 -1.4175775455714239 0 0.6018150307709319 0.79863550430605224 2 0 0 1 I I #
point $-1 13.631013603774818 23.820072216434774 3.3655098871211306 #
edge $-1 $832 1 $832 0 $482 $-1 forward 7 unknown #
vertex $-1 $483 $833 #
ellipse-curve $-1 17.893388411468962 20.215757237992722 -1.4175775455714239 0 0.6018150307709319 0.79863550430605224 2 0 0 1 I I #
point $-1 19.893388411468962 23.820072216434774 3.3655098871211306 #
plane-surface $-1 0 27.367659892506019 0 0 -1 0 0 0 -1 forward_v I I I I #
coedge $-1 $703 $702 $695 $834 forward $487 $-1 #
coedge $-1 $695 $489 $491 $699 reversed $317 $-1 #
coedge $-1 $489 $694 $693 $834 reversed $317 $-1 #
coedge $-1 $497 $492 $489 $697 forward $498 $-1 #
edge $-1 $700 -66.081352953505927 $835 -60.734754724586658 $696 $836 forward 7 unknown #
coedge $-1 $491 $490 $703 $837 reversed $199 $-1 #
edge $-1 $838 45.851197661856958 $700 54.735319785012024 $694 $839 forward 7 unknown #
vertex $-1 $493 $840 #
straight-curve $-1 21.168353747782106 27.367659892506019 0.69221077266148967 -1 0 0 I I #
coedge $-1 $693 $494 $497 $707 forward $487 $-1 #
coedge $-1 $494 $693 $698 $837 forward $487 $-1 #
vertex $-1 $495 $841 #
straight-curve $-1 49.642811437874045 29.472488131784221 6.0388090015807663 0 1 0 I I #
straight-curve $-1 49.642811437874045 -16.345909827350091 33.632748933335293 0 -0.79863550430605224 0.6018150307709319 I I #
edge $-1 $499 -49.642811437874045 $835 -35.03060355325438 $497 $842 forward 7 unknown #
point $-1 49.642811437874045 27.367659892506019 6.0388090015807681 #
point $-1 49.642811437874045 27.367659892506019 0.69221077266148967 #
edge $-1 $843 1 $843 0 $502 $-1 forward 7 unknown #
vertex $-1 $503 $844 #
ellipse-curve $-1 39.205520091717133 20.215757237992722 -1.4175775455714239 0 0.6018150307709319 0.79863550430605224 2 0 0 1 I I #
point $-1 41.205520091717133 23.820072216434774 3.3655098871211306 #
edge $-1 $845 1 $845 0 $506 $-1 forward 7 unknown #
vertex $-1 $507 $846 #
ellipse-curve $-1 45.467894899411277 20.215757237992722 -1.4175775455714239 0 0.6018150307709319 0.79863550430605224 2 0 0 1 I I #
point $-1 47.467894899411277 23.820072216434774 3.3655098871211306 #
plane-surface $-1 0 -27.367659892506019 0 0 1 0 0 0 1 forward_v I I I I #
coedge $-1 $729 $728 $721 $847 forward $511 $-1 #
coedge $-1 $721 $513 $515 $725 reversed $339 $-1 #
coedge $-1 $513 $720 $719 $847 reversed $339 $-1 #
coedge $-1 $521 $516 $513 $723 forward $522 $-1 #
edge $-1 $726 -44.306819947369128 $848 -39.648351934573633 $722 $849 forward 7 unknown #
coedge $-1 $515 $514 $729 $850 reversed $213 $-1 #
edge $-1 $851 -6.7061280136747694 $726 9.8928161431344572e-015 $720 $852 forward 7 unknown #
vertex $-1 $517 $853 #
straight-curve $-1 18.316920573524229 -27.367659892506019 1.3803409887852716 1 0 0 I I #
coedge $-1 $719 $518 $521 $733 forward $511 $-1 #
coedge $-1 $518 $719 $724 $850 forward $511 $-1 #
vertex $-1 $519 $854 #
straight-curve $-1 30.07442929149515 -57.136919502490514 6.0388090015807663 0 -1 0 I I #
straight-curve $-1 30.07442929149515 -27.367659892506012 1.380340988785278 0 0.71933979245794832 0.69465837861970381 I I #
edge $-1 $523 30.07442929149515 $848 43.193253002601764 $521 $855 forward 7 unknown #
point $-1 30.07442929149515 -27.367659892506019 6.0388090015807681 #
point $-1 30.07442929149515 -27.367659892506019 1.3803409887852711 #
edge $-1 $856 1 $856 0 $526 $-1 forward 7 unknown #
vertex $-1 $527 $857 #
ellipse-curve $-1 33.822664637525605 -22.505781454631311 1.1726437608242934 0 -0.69465837861970381 0.71933979245794832 1 0 0 1 I I #
point $-1 34.822664637525605 -24.955667525729414 3.7095749951830368 #
edge $-1 $858 1 $858 0 $530 $-1 forward 7 unknown #
vertex $-1 $531 $859 #
ellipse-curve $-1 39.445017656571295 -22.505781454631311 1.1726437608242934 0 -0.69465837861970381 0.71933979245794832 1 0 0 1 I I #
point $-1 40.445017656571295 -24.955667525729414 3.7095749951830368 #
plane-surface $-1 62.553178502761924 0 0 -1 0 0 0 0 1 forward_v I I I I #
coedge $-1 $539 $537 $541 $749 reversed $361 $-1 #
edge $-1 $552 -6.0388090015807681 $751 6.0388090015807681 $551 $860 forward 7 unknown #
vertex $-1 $749 $861 #
straight-curve $-1 -62.553178502761924 -27.367659892506019 0 0 0 -1 I I #
edge $-1 $747 -27.367659892506019 $751 27.367659892506019 $745 $862 forward 7 unknown #
straight-curve $-1 0 -27.367659892506019 -6.0388090015807681 -1 0 0 I I #
vertex $-1 $544 $863 #
straight-curve $-1 0 27.367659892506019 -6.0388090015807681 1 0 0 I I #
point $-1 62.553178502761924 27.367659892506019 -6.0388090015807681 #
point $-1 62.553178502761924 -27.367659892506019 -6.0388090015807681 #
straight-curve $-1 -62.553178502761924 0 6.0388090015807681 0 -1 0 I I #
point $-1 -62.553178502761924 27.367659892506019 6.0388090015807681 #
point $-1 -62.553178502761924 -27.367659892506019 6.0388090015807681 #
straight-curve $-1 62.553178502761924 -27.367659892506019 0 0 0 -1 I I #
straight-curve $-1 62.553178502761924 27.367659892506019 0 0 0 -1 I I #
plane-surface $-1 0 27.367659892506019 0 0 -1 0 0 0 -1 forward_v I I I I #
coedge $-1 $771 $770 $567 $763 forward $562 $-1 #
straight-curve $-1 -55.149012975884631 -27.367659892506019 -1.8655366823204966 0 0 1 I I #
edge $-1 $766 -27.367659892506019 $764 27.367659892506019 $761 $864 forward 7 unknown #
vertex $-1 $568 $865 #
straight-curve $-1 -29.425547869661639 -27.367659892506019 -5.5388090015807681 1 0 0 I I #
vertex $-1 $570 $866 #
straight-curve $-1 -29.425547869661639 27.367659892506019 -5.5388090015807681 -1 0 0 I I #
point $-1 -55.149012975884631 27.367659892506019 -5.5388090015807681 #
point $-1 -55.149012975884631 -27.367659892506019 -5.5388090015807681 #
coedge $-1 $761 $574 $577 $773 forward $562 $-1 #
coedge $-1 $574 $761 $581 $775 reversed $562 $-1 #
straight-curve $-1 -62.553178502761924 0 -1.9233377277012185 0 1 0 I I #
edge $-1 $579 1.9233377277012185 $766 5.5388090015807681 $577 $867 forward 7 unknown #
point $-1 -62.553178502761924 27.367659892506019 -1.9233377277012185 #
edge $-1 $582 1.9233377277012185 $764 5.5388090015807681 $771 $868 forward 7 unknown #
point $-1 -62.553178502761924 -27.367659892506019 -1.9233377277012185 #
straight-curve $-1 -55.149012975884631 27.367659892506019 -1.8655366823204966 0 0 -1 I I #
plane-surface $-1 62.553178502761924 0 0 -1 0 0 0 0 1 forward_v I I I I #
coedge $-1 $591 $590 $606 $790 reversed $243 $-1 #
edge $-1 $783 -27.367659892506019 $781 27.367659892506019 $590 $869 forward 7 unknown #
vertex $-1 $598 $870 #
straight-curve $-1 55.149012975884624 27.367659892506019 -1.8655366823204966 0 0 1 I I #
vertex $-1 $596 $871 #
straight-curve $-1 29.425547869661635 -27.367659892506019 -5.5388090015807681 1 0 0 I I #
straight-curve $-1 29.425547869661635 27.367659892506019 -5.5388090015807681 -1 0 0 I I #
point $-1 62.553178502761916 -27.367659892506019 -5.5388090015807681 #
point $-1 62.553178502761916 27.367659892506019 -5.5388090015807681 #
straight-curve $-1 55.149012975884624 0 -1.9233377277012185 0 -1 0 I I #
point $-1 55.149012975884624 27.367659892506019 -1.9233377277012185 #
edge $-1 $608 0.057801045380721838 $783 3.6732723192602714 $606 $872 forward 7 unknown #
point $-1 55.149012975884624 -27.367659892506019 -1.9233377277012185 #
straight-curve $-1 62.553178502761924 -27.367659892506019 0 0 0 -1 I I #
straight-curve $-1 62.553178502761924 27.367659892506019 0 0 0 -1 I I #
coedge $-1 $625 $624 $617 $795 forward $614 $-1 #
edge $-1 $796 2.1048282392782021 $799 9.2000035914206997 $794 $873 forward 7 unknown #
vertex $-1 $795 $874 #
straight-curve $-1 -47.69291591057258 27.367659892506019 66.773563726167424 0 0 1 I I #
edge $-1 $799 -27.49950992644121 $626 -12.887302041821531 $625 $875 forward 7 unknown #
vertex $-1 $798 $876 #
straight-curve $-1 -47.69291591057258 -16.345909827350091 33.632748933335293 0 0.79863550430605224 -0.6018150307709319 I I #
point $-1 -47.69291591057258 27.367659892506019 0.69221077266148967 #
point $-1 -33.080708025952902 20.272484540363521 6.0388090015807663 #
straight-curve $-1 0 27.367659892506019 6.0388090015807681 -1 0 0 I I #
vertex $-1 $632 $877 #
point $-1 -41.517999372109813 20.215757237992722 -1.4175775455714239 #
vertex $-1 $636 $878 #
point $-1 -35.255624564415669 20.215757237992722 -1.4175775455714239 #
edge $-1 $809 2.1048282392782021 $812 9.2000035914206997 $641 $879 forward 7 unknown #
vertex $-1 $808 $880 #
straight-curve $-1 -20.118409422630261 27.367659892506019 66.773563726167424 0 0 1 I I #
edge $-1 $812 -13.712256682470048 $652 0.89995120214962299 $651 $881 forward 7 unknown #
vertex $-1 $811 $882 #
straight-curve $-1 -20.118409422630261 -16.345909827350091 33.632748933335293 0 0.79863550430605224 -0.6018150307709319 I I #
point $-1 -20.118409422630261 27.367659892506019 0.69221077266148967 #
point $-1 -5.5062015380105898 20.272484540363521 6.0388090015807663 #
straight-curve $-1 0 27.367659892506019 6.0388090015807681 -1 0 0 I I #
vertex $-1 $658 $883 #
point $-1 -13.943492884167497 20.215757237992722 -1.4175775455714239 #
vertex $-1 $662 $884 #
point $-1 -7.6811180764733535 20.215757237992722 -1.4175775455714239 #
edge $-1 $822 2.1048282392782021 $825 9.2000035914206997 $667 $885 forward 7 unknown #
vertex $-1 $671 $886 #
straight-curve $-1 7.4560970653120613 27.367659892506019 66.773563726167424 0 0 1 I I #
edge $-1 $825 0.07499656150111278 $678 14.687204446120784 $677 $887 forward 7 unknown #
vertex $-1 $824 $888 #
straight-curve $-1 7.4560970653120613 -16.345909827350091 33.632748933335293 0 0.79863550430605224 -0.6018150307709319 I I #
point $-1 7.4560970653120613 27.367659892506019 0.69221077266148967 #
point $-1 22.068304949931733 20.272484540363521 6.0388090015807663 #
straight-curve $-1 0 27.367659892506019 6.0388090015807681 -1 0 0 I I #
vertex $-1 $684 $889 #
point $-1 13.631013603774818 20.215757237992722 -1.4175775455714239 #
vertex $-1 $688 $890 #
point $-1 19.893388411468962 20.215757237992722 -1.4175775455714239 #
edge $-1 $835 2.1048282392782021 $838 9.2000035914206997 $693 $891 forward 7 unknown #
vertex $-1 $697 $892 #
straight-curve $-1 35.03060355325438 27.367659892506019 66.773563726167424 0 0 1 I I #
edge $-1 $838 13.862249805472274 $704 28.474457690091938 $703 $893 forward 7 unknown #
vertex $-1 $837 $894 #
straight-curve $-1 35.03060355325438 -16.345909827350091 33.632748933335293 0 0.79863550430605224 -0.6018150307709319 I I #
point $-1 35.03060355325438 27.367659892506019 0.69221077266148967 #
point $-1 49.642811437874045 20.272484540363521 6.0388090015807663 #
straight-curve $-1 0 27.367659892506019 6.0388090015807681 -1 0 0 I I #
vertex $-1 $710 $895 #
point $-1 41.205520091717133 20.215757237992722 -1.4175775455714239 #
vertex $-1 $714 $896 #
point $-1 47.467894899411277 20.215757237992722 -1.4175775455714239 #
edge $-1 $848 29.769259609984495 $851 34.593244343537748 $719 $897 forward 7 unknown #
vertex $-1 $723 $898 #
straight-curve $-1 43.193253002601764 -27.367659892506019 45.687160936154399 0 0 1 I I #
edge $-1 $851 -24.876332429077536 $730 -11.757508717970921 $729 $899 forward 7 unknown #
vertex $-1 $850 $900 #
straight-curve $-1 43.193253002601764 -27.367659892506012 1.380340988785278 0 -0.71933979245794832 -0.69465837861970381 I I #
point $-1 43.193253002601764 -27.367659892506019 1.3803409887852711 #
point $-1 30.07442929149515 -22.54367515895277 6.0388090015807681 #
straight-curve $-1 0 -27.367659892506019 6.0388090015807681 1 0 0 I I #
vertex $-1 $736 $901 #
point $-1 34.822664637525605 -22.505781454631311 1.1726437608242934 #
vertex $-1 $740 $902 #
point $-1 40.445017656571295 -22.505781454631311 1.1726437608242934 #
straight-curve $-1 -62.553178502761924 27.367659892506019 0 0 0 -1 I I #
point $-1 -62.553178502761924 -27.367659892506019 -6.0388090015807681 #
straight-curve $-1 -62.553178502761924 0 -6.0388090015807681 0 1 0 I I #
point $-1 -62.553178502761924 27.367659892506019 -6.0388090015807681 #
straight-curve $-1 -62.553178502761924 0 -5.5388090015807681 0 -1 0 I I #
point $-1 -62.553178502761924 -27.367659892506019 -5.5388090015807681 #
point $-1 -62.553178502761924 27.367659892506019 -5.5388090015807681 #
straight-curve $-1 -62.553178502761924 27.367659892506019 0 0 0 -1 I I #
straight-curve $-1 -62.553178502761924 -27.367659892506019 0 0 0 -1 I I #
straight-curve $-1 55.149012975884624 0 -5.5388090015807681 0 1 0 I I #
point $-1 55.149012975884624 27.367659892506019 -5.5388090015807681 #
point $-1 55.149012975884624 -27.367659892506019 -5.5388090015807681 #
straight-curve $-1 55.149012975884624 -27.367659892506019 -1.8655366823204966 0 0 -1 I I #
straight-curve $-1 -47.69291591057258 29.472488131784221 6.0388090015807663 0 -1 0 I I #
point $-1 -47.69291591057258 27.367659892506019 6.0388090015807681 #
straight-curve $-1 -20.19340598413137 20.272484540363521 6.0388090015807663 1 0 0 I I #
point $-1 -47.69291591057258 20.272484540363521 6.0388090015807663 #
point $-1 -43.517999372109813 19.012127176450857 -3.0148485541835282 #
point $-1 -37.255624564415669 19.012127176450857 -3.0148485541835282 #
straight-curve $-1 -20.118409422630261 29.472488131784221 6.0388090015807663 0 -1 0 I I #
point $-1 -20.118409422630261 27.367659892506019 6.0388090015807681 #
straight-curve $-1 -6.4061527401602127 20.272484540363521 6.0388090015807663 1 0 0 I I #
point $-1 -20.118409422630261 20.272484540363521 6.0388090015807663 #
point $-1 -15.943492884167497 19.012127176450857 -3.0148485541835282 #
point $-1 -9.6811180764733535 19.012127176450857 -3.0148485541835282 #
straight-curve $-1 7.4560970653120613 29.472488131784221 6.0388090015807663 0 -1 0 I I #
point $-1 7.4560970653120613 27.367659892506019 6.0388090015807681 #
straight-curve $-1 7.3811005038109485 20.272484540363521 6.0388090015807663 1 0 0 I I #
point $-1 7.4560970653120613 20.272484540363521 6.0388090015807663 #
point $-1 11.631013603774818 19.012127176450857 -3.0148485541835282 #
point $-1 17.893388411468962 19.012127176450857 -3.0148485541835282 #
straight-curve $-1 35.03060355325438 29.472488131784221 6.0388090015807663 0 -1 0 I I #
point $-1 35.03060355325438 27.367659892506019 6.0388090015807681 #
straight-curve $-1 21.168353747782106 20.272484540363521 6.0388090015807663 1 0 0 I I #
point $-1 35.03060355325438 20.272484540363521 6.0388090015807663 #
point $-1 39.205520091717133 19.012127176450857 -3.0148485541835282 #
point $-1 45.467894899411277 19.012127176450857 -3.0148485541835282 #
straight-curve $-1 43.193253002601764 -57.136919502490514 6.0388090015807663 0 1 0 I I #
point $-1 43.193253002601764 -27.367659892506019 6.0388090015807681 #
straight-curve $-1 18.316920573524229 -22.54367515895277 6.0388090015807681 -1 0 0 I I #
point $-1 43.193253002601764 -22.54367515895277 6.0388090015807681 #
point $-1 33.822664637525605 -21.811123076011604 0.45330396836634512 #
point $-1 39.445017656571295 -21.811123076011604 0.45330396836634512 #
End-of-ACIS-data 