500 0 8 0           
7 Unknown 11 ACIS 5.0 NT 24 Fri Mar 26 18:39:51 1999 
-1 9.9999999999999995e-007 1e-010 
body $-1 $8 $-1 $9 #
body $-1 $10 $-1 $11 #
body $-1 $12 $-1 $13 #
body $-1 $14 $-1 $15 #
body $-1 $16 $-1 $17 #
body $-1 $18 $-1 $19 #
body $-1 $20 $-1 $21 #
body $-1 $22 $-1 $23 #
lump $-1 $-1 $24 $0 #
transform $-1 1 0 0 0 1 0 0 0 1 74.067201757866144 46.544094505937252 14.7868089662574 1 rotate no_reflect no_shear #
lump $-1 $-1 $25 $1 #
transform $-1 1 0 0 0 1 0 0 0 1 74.067201757866144 46.544094505937252 14.7868089662574 1 rotate no_reflect no_shear #
lump $-1 $-1 $26 $2 #
transform $-1 1 0 0 0 1 0 0 0 1 74.067201757866144 46.544094505937252 14.7868089662574 1 rotate no_reflect no_shear #
lump $-1 $-1 $27 $3 #
transform $-1 1 0 0 0 1 0 0 0 1 74.067201757866144 46.544094505937252 14.7868089662574 1 rotate no_reflect no_shear #
lump $-1 $-1 $28 $4 #
transform $-1 1 0 0 0 1 0 0 0 1 74.067201757866144 46.544094505937252 14.7868089662574 1 rotate no_reflect no_shear #
lump $-1 $-1 $29 $5 #
transform $-1 1 0 0 0 1 0 0 0 1 74.067201757866144 46.544094505937252 14.7868089662574 1 rotate no_reflect no_shear #
lump $-1 $-1 $30 $6 #
transform $-1 1 0 0 0 1 0 0 0 1 74.067201757866144 46.544094505937252 14.7868089662574 1 rotate no_reflect no_shear #
lump $-1 $-1 $31 $7 #
transform $-1 1 0 0 0 1 0 0 0 1 74.067201757866144 46.544094505937252 14.7868089662574 1 rotate no_reflect no_shear #
shell $-1 $-1 $-1 $32 $-1 $8 #
shell $-1 $-1 $-1 $33 $-1 $10 #
shell $-1 $-1 $-1 $34 $-1 $12 #
shell $-1 $-1 $-1 $35 $-1 $14 #
shell $-1 $-1 $-1 $36 $-1 $16 #
shell $-1 $-1 $-1 $37 $-1 $18 #
shell $-1 $-1 $-1 $38 $-1 $20 #
shell $-1 $-1 $-1 $39 $-1 $22 #
face $-1 $40 $41 $24 $-1 $42 forward single #
face $-1 $43 $44 $25 $-1 $45 reversed single #
face $-1 $46 $47 $26 $-1 $48 reversed single #
face $-1 $49 $50 $27 $-1 $51 forward single #
face $-1 $52 $53 $28 $-1 $54 forward single #
face $-1 $55 $56 $29 $-1 $57 reversed single #
face $-1 $58 $59 $30 $-1 $60 forward single #
face $-1 $61 $62 $31 $-1 $63 forward single #
face $-1 $64 $65 $24 $-1 $66 reversed single #
loop $-1 $-1 $67 $32 #
plane-surface $-1 0 0 14.7868089662574 0 0 1 1 0 0 forward_v I I I I #
face $-1 $68 $69 $25 $-1 $70 reversed single #
loop $-1 $-1 $71 $33 #
plane-surface $-1 -66.365976048135579 -42.515053464263033 0 0 -1 0 0 0 -1 forward_v I I I I #
face $-1 $72 $73 $26 $-1 $74 reversed single #
loop $-1 $-1 $75 $34 #
plane-surface $-1 4.6738388114741483 39.994561139566116 178.42473328102739 1 0 0 0 -0.50000000669873634 -0.8660253999169214 forward_v I I I I #
face $-1 $76 $77 $27 $-1 $78 forward single #
loop $-1 $79 $80 $35 #
cone-surface $-1 14.592581995254463 34.002100489279172 4.2577647502361238 0 -0.50000000669873634 -0.8660253999169214 3 0 0 1 I I 0 1 3 forward I I I I #
face $-1 $81 $82 $28 $-1 $83 forward single #
loop $-1 $84 $85 $36 #
cone-surface $-1 29.470696770924945 34.002100489279172 4.2577647502361238 0 -0.50000000669873634 -0.8660253999169214 3 0 0 1 I I 0 1 3 forward I I I I #
face $-1 $86 $87 $29 $-1 $88 reversed single #
loop $-1 $-1 $89 $37 #
plane-surface $-1 39.389439954705246 -120.6112972561167 131.88063815151691 -1 0 0 0 -0.50000000669873634 0.8660253999169214 forward_v I I I I #
face $-1 $90 $91 $30 $-1 $92 forward single #
loop $-1 $93 $94 $38 #
cone-surface $-1 14.592581995254463 -34.002100489279165 4.2577647502361273 0 0.50000000669873634 -0.8660253999169214 3 0 0 1 I I 0 1 3 forward I I I I #
face $-1 $95 $96 $31 $-1 $97 forward single #
loop $-1 $98 $99 $39 #
cone-surface $-1 29.470696770924945 -34.002100489279165 4.2577647502361273 0 0.50000000669873634 -0.8660253999169214 3 0 0 1 I I 0 1 3 forward I I I I #
face $-1 $100 $101 $24 $-1 $102 reversed single #
loop $-1 $-1 $103 $40 #
plane-surface $-1 0 0 -14.7868089662574 0 0 1 1 0 0 forward_v I I I I #
coedge $-1 $104 $105 $106 $107 forward $41 $-1 #
face $-1 $108 $109 $25 $-1 $110 forward single #
loop $-1 $-1 $111 $43 #
plane-surface $-1 -58.664750338405007 -44.529573985100143 0 -1 0 0 0 0 1 forward_v I I I I #
coedge $-1 $112 $113 $114 $115 forward $44 $-1 #
face $-1 $116 $117 $26 $-1 $118 reversed single #
loop $-1 $-1 $119 $46 #
plane-surface $-1 22.031639383089697 -34.072641610613346 50.136577234860738 0 0.50000000669873634 0.8660253999169214 1 0 0 forward_v I I I I #
coedge $-1 $120 $121 $122 $123 reversed $47 $-1 #
face $-1 $-1 $124 $27 $-1 $125 forward single #
loop $-1 $126 $127 $49 #
cone-surface $-1 14.592581995254463 30.404677729208046 -1.9731541352069719 0 -0.50000000669873634 -0.8660253999169214 1.5 0 0 1 I I -0.70710678118654757 0.70710678118654757 1.5 forward I I I I #
loop $-1 $-1 $128 $35 #
coedge $-1 $80 $80 $129 $130 reversed $50 $-1 #
face $-1 $-1 $131 $28 $-1 $132 forward single #
loop $-1 $133 $134 $52 #
cone-surface $-1 29.470696770924945 30.404677729208046 -1.9731541352069719 0 -0.50000000669873634 -0.8660253999169214 1.5 0 0 1 I I -0.70710678118654757 0.70710678118654757 1.5 forward I I I I #
loop $-1 $-1 $135 $36 #
coedge $-1 $85 $85 $136 $137 reversed $53 $-1 #
face $-1 $138 $139 $29 $-1 $140 reversed single #
loop $-1 $-1 $141 $55 #
plane-surface $-1 22.031639383089697 -46.544094505937238 3.5924821053502569 0 -0.50000000669873634 0.8660253999169214 1 0 0 forward_v I I I I #
coedge $-1 $142 $143 $144 $145 reversed $56 $-1 #
face $-1 $-1 $146 $30 $-1 $147 forward single #
loop $-1 $148 $149 $58 #
cone-surface $-1 14.592581995254463 -30.404677729208039 -1.9731541352069684 0 0.50000000669873634 -0.8660253999169214 1.5 0 0 1 I I -0.70710678118654757 0.70710678118654757 1.5 forward I I I I #
loop $-1 $-1 $150 $38 #
coedge $-1 $94 $94 $151 $152 reversed $59 $-1 #
face $-1 $-1 $153 $31 $-1 $154 forward single #
loop $-1 $155 $156 $61 #
cone-surface $-1 29.470696770924945 -30.404677729208039 -1.9731541352069684 0 0.50000000669873634 -0.8660253999169214 1.5 0 0 1 I I -0.70710678118654757 0.70710678118654757 1.5 forward I I I I #
loop $-1 $-1 $157 $39 #
coedge $-1 $99 $99 $158 $159 reversed $62 $-1 #
face $-1 $160 $161 $24 $-1 $162 reversed single #
loop $-1 $-1 $163 $64 #
plane-surface $-1 0 -46.544094505937252 0 0 1 0 0 0 1 forward_v I I I I #
coedge $-1 $164 $165 $166 $167 forward $65 $-1 #
coedge $-1 $168 $67 $169 $170 forward $41 $-1 #
coedge $-1 $67 $168 $171 $172 forward $41 $-1 #
coedge $-1 $173 $174 $67 $107 reversed $175 $-1 #
edge $-1 $176 -46.544094505937252 $177 46.544094505937252 $106 $178 forward 7 unknown #
face $-1 $179 $180 $25 $-1 $181 reversed single #
loop $-1 $-1 $182 $68 #
plane-surface $-1 0 0 14.7868089662574 0 0 1 1 0 0 forward_v I I I I #
coedge $-1 $183 $184 $185 $186 reversed $69 $-1 #
coedge $-1 $187 $71 $188 $189 reversed $44 $-1 #
coedge $-1 $71 $187 $190 $191 reversed $44 $-1 #
coedge $-1 $184 $183 $71 $115 reversed $69 $-1 #
edge $-1 $192 -14.7868089662574 $193 14.7868089662574 $114 $194 forward 7 unknown #
face $-1 $195 $196 $26 $-1 $197 reversed single #
loop $-1 $-1 $198 $72 #
plane-surface $-1 39.389439954705246 39.994561139566116 178.42473328102739 -1 0 0 0 0.50000000669873634 0.8660253999169214 forward_v I I I I #
coedge $-1 $199 $200 $201 $202 reversed $73 $-1 #
coedge $-1 $121 $75 $203 $204 reversed $47 $-1 #
coedge $-1 $75 $120 $199 $205 reversed $47 $-1 #
coedge $-1 $201 $206 $75 $123 forward $207 $-1 #
edge $-1 $208 -26.546813936154194 $209 -7.1576714028840058 $122 $210 forward 7 unknown #
loop $-1 $-1 $129 $76 #
plane-surface $-1 22.031639383089697 -34.072641610613346 50.136577234860738 0 0.50000000669873634 0.8660253999169214 1 0 0 forward_v I I I I #
loop $-1 $-1 $211 $49 #
coedge $-1 $127 $127 $128 $212 reversed $77 $-1 #
coedge $-1 $128 $128 $127 $212 forward $79 $-1 #
coedge $-1 $129 $129 $80 $130 forward $124 $-1 #
edge $-1 $213 2.5354717570031843e-016 $213 6.2831853071796004 $129 $214 forward 7 unknown #
loop $-1 $-1 $136 $81 #
plane-surface $-1 22.031639383089697 -34.072641610613346 50.136577234860738 0 0.50000000669873634 0.8660253999169214 1 0 0 forward_v I I I I #
loop $-1 $-1 $215 $52 #
coedge $-1 $134 $134 $135 $216 reversed $82 $-1 #
coedge $-1 $135 $135 $134 $216 forward $84 $-1 #
coedge $-1 $136 $136 $85 $137 forward $131 $-1 #
edge $-1 $217 2.5354717570031843e-016 $217 6.2831853071796004 $136 $218 forward 7 unknown #
face $-1 $219 $220 $29 $-1 $221 forward single #
loop $-1 $-1 $222 $86 #
plane-surface $-1 4.6738388114741483 -120.6112972561167 131.88063815151691 1 0 0 0 0.50000000669873634 -0.8660253999169214 forward_v I I I I #
coedge $-1 $223 $224 $225 $226 reversed $87 $-1 #
coedge $-1 $143 $89 $227 $228 reversed $56 $-1 #
coedge $-1 $89 $142 $223 $229 reversed $56 $-1 #
coedge $-1 $225 $230 $89 $145 forward $220 $-1 #
edge $-1 $231 13.761554122121098 $232 33.150696655391286 $144 $233 forward 7 unknown #
loop $-1 $-1 $151 $90 #
plane-surface $-1 22.031639383089697 -46.544094505937238 3.5924821053502569 0 -0.50000000669873634 0.8660253999169214 1 0 0 forward_v I I I I #
loop $-1 $-1 $234 $58 #
coedge $-1 $149 $149 $150 $235 reversed $91 $-1 #
coedge $-1 $150 $150 $149 $235 forward $93 $-1 #
coedge $-1 $151 $151 $94 $152 forward $146 $-1 #
edge $-1 $236 4.2512301499505196e-017 $236 6.2831853071796004 $151 $237 forward 7 unknown #
loop $-1 $-1 $158 $95 #
plane-surface $-1 22.031639383089697 -46.544094505937238 3.5924821053502569 0 -0.50000000669873634 0.8660253999169214 1 0 0 forward_v I I I I #
loop $-1 $-1 $238 $61 #
coedge $-1 $156 $156 $157 $239 reversed $96 $-1 #
coedge $-1 $157 $157 $156 $239 forward $98 $-1 #
coedge $-1 $158 $158 $99 $159 forward $153 $-1 #
edge $-1 $240 4.2512301499505196e-017 $240 6.2831853071796004 $158 $241 forward 7 unknown #
face $-1 $242 $243 $24 $-1 $244 reversed single #
loop $-1 $-1 $245 $100 #
plane-surface $-1 -74.067201757866144 0 0 1 0 0 0 0 -1 forward_v I I I I #
coedge $-1 $246 $171 $247 $248 forward $101 $-1 #
coedge $-1 $249 $103 $246 $250 forward $65 $-1 #
coedge $-1 $103 $249 $251 $252 forward $65 $-1 #
coedge $-1 $174 $173 $103 $167 reversed $175 $-1 #
edge $-1 $253 -46.544094505937252 $254 46.544094505937252 $166 $255 forward 7 unknown #
coedge $-1 $105 $104 $256 $257 forward $41 $-1 #
coedge $-1 $258 $259 $104 $170 reversed $243 $-1 #
edge $-1 $177 -74.067201757866144 $260 74.067201757866144 $169 $261 forward 7 unknown #
coedge $-1 $163 $262 $105 $172 reversed $101 $-1 #
edge $-1 $263 -74.067201757866144 $176 74.067201757866144 $171 $264 forward 7 unknown #
coedge $-1 $166 $106 $262 $265 forward $175 $-1 #
coedge $-1 $106 $166 $258 $266 reversed $175 $-1 #
loop $-1 $-1 $173 $242 #
vertex $-1 $107 $267 #
vertex $-1 $107 $268 #
straight-curve $-1 74.067201757866144 0 14.7868089662574 0 1 0 I I #
face $-1 $269 $270 $25 $-1 $271 reversed single #
loop $-1 $-1 $272 $108 #
plane-surface $-1 -74.067201757866144 0 0 1 0 0 0 0 -1 forward_v I I I I #
coedge $-1 $190 $273 $184 $274 forward $109 $-1 #
coedge $-1 $114 $111 $275 $276 reversed $69 $-1 #
coedge $-1 $111 $114 $182 $274 reversed $69 $-1 #
coedge $-1 $277 $278 $111 $186 forward $279 $-1 #
edge $-1 $280 -14.7868089662574 $281 14.7868089662574 $185 $282 forward 7 unknown #
coedge $-1 $113 $112 $272 $283 reversed $44 $-1 #
coedge $-1 $275 $284 $112 $189 forward $270 $-1 #
edge $-1 $285 -40.884213733798354 $193 -25.481762314337217 $188 $286 forward 7 unknown #
coedge $-1 $287 $182 $113 $191 forward $109 $-1 #
edge $-1 $192 25.481762314337217 $288 40.884213733798354 $190 $289 forward 7 unknown #
vertex $-1 $191 $290 #
vertex $-1 $189 $291 #
straight-curve $-1 -58.664750338405007 -42.515053464263033 0 0 0 -1 I I #
face $-1 $-1 $207 $26 $-1 $292 forward single #
loop $-1 $-1 $293 $116 #
plane-surface $-1 0 46.544094505937252 0 0 -1 0 0 0 -1 forward_v I I I I #
coedge $-1 $294 $295 $296 $297 reversed $117 $-1 #
coedge $-1 $298 $119 $121 $205 forward $73 $-1 #
coedge $-1 $119 $298 $294 $299 forward $73 $-1 #
coedge $-1 $296 $122 $119 $202 forward $207 $-1 #
edge $-1 $209 -6.3419808800707003 $300 28.373620263160397 $201 $301 forward 7 unknown #
coedge $-1 $302 $303 $120 $204 forward $196 $-1 #
edge $-1 $304 -85.61988453516345 $208 -74.425557674256297 $203 $305 forward 7 unknown #
edge $-1 $209 70.699535590011592 $304 93.088189011874533 $121 $306 forward 7 unknown #
coedge $-1 $122 $296 $302 $307 forward $207 $-1 #
loop $-1 $-1 $296 $195 #
vertex $-1 $204 $308 #
vertex $-1 $123 $309 #
straight-curve $-1 4.6738388114741483 19.997280569783058 14.786808966257396 0 -1 0 I I #
coedge $-1 $211 $211 $-1 $310 reversed $126 $-1 #
edge $-1 $311 0 $311 6.2831853071796004 $127 $312 forward 7 unknown #
vertex $-1 $130 $313 #
ellipse-curve $-1 14.592581995254463 36.849523239302179 9.1896455358038143 0 0.50000000669873634 0.8660253999169214 3 0 0 1 I I #
coedge $-1 $215 $215 $-1 $314 reversed $133 $-1 #
edge $-1 $315 0 $315 6.2831853071796004 $134 $316 forward 7 unknown #
vertex $-1 $137 $317 #
ellipse-curve $-1 29.470696770924945 36.849523239302179 9.1896455358038143 0 0.50000000669873634 0.8660253999169214 3 0 0 1 I I #
face $-1 $-1 $318 $29 $-1 $319 reversed single #
loop $-1 $-1 $144 $138 #
plane-surface $-1 0 0 14.7868089662574 0 0 1 1 0 0 forward_v I I I I #
coedge $-1 $320 $321 $322 $323 reversed $139 $-1 #
coedge $-1 $324 $141 $143 $229 forward $87 $-1 #
coedge $-1 $141 $324 $320 $325 forward $87 $-1 #
coedge $-1 $322 $144 $141 $226 forward $220 $-1 #
edge $-1 $232 -28.373620263160397 $326 6.3419808800707003 $225 $327 forward 7 unknown #
coedge $-1 $328 $329 $142 $228 forward $318 $-1 #
edge $-1 $330 -62.347836970408203 $231 -51.153510109501056 $227 $331 forward 7 unknown #
edge $-1 $232 -22.388653421862912 $330 1.6303764080091705e-014 $143 $332 forward 7 unknown #
coedge $-1 $144 $322 $328 $333 forward $220 $-1 #
vertex $-1 $145 $334 #
vertex $-1 $145 $335 #
straight-curve $-1 39.389439954705246 -60.30564862805835 14.786808966257396 0 1 0 I I #
coedge $-1 $234 $234 $-1 $336 reversed $148 $-1 #
edge $-1 $337 0 $337 6.2831853071796004 $149 $338 forward 7 unknown #
vertex $-1 $152 $339 #
ellipse-curve $-1 14.592581995254463 -36.849523239302172 9.189645535803816 0 -0.50000000669873634 0.8660253999169214 3 0 0 1 I I #
coedge $-1 $238 $238 $-1 $340 reversed $155 $-1 #
edge $-1 $341 0 $341 6.2831853071796004 $156 $342 forward 7 unknown #
vertex $-1 $159 $343 #
ellipse-curve $-1 29.470696770924945 -36.849523239302172 9.189645535803816 0 -0.50000000669873634 0.8660253999169214 3 0 0 1 I I #
face $-1 $-1 $175 $24 $-1 $344 reversed single #
loop $-1 $-1 $258 $160 #
plane-surface $-1 0 46.544094505937252 0 0 -1 0 0 0 -1 forward_v I I I I #
coedge $-1 $345 $256 $259 $346 forward $161 $-1 #
coedge $-1 $262 $163 $164 $250 reversed $101 $-1 #
coedge $-1 $256 $345 $163 $248 reversed $161 $-1 #
edge $-1 $263 -14.7868089662574 $347 14.7868089662574 $247 $348 forward 7 unknown #
coedge $-1 $165 $164 $345 $349 forward $65 $-1 #
edge $-1 $254 -74.067201757866144 $347 74.067201757866144 $246 $350 forward 7 unknown #
coedge $-1 $259 $258 $165 $252 reversed $243 $-1 #
edge $-1 $351 -74.067201757866144 $253 74.067201757866144 $251 $352 forward 7 unknown #
vertex $-1 $167 $353 #
vertex $-1 $265 $354 #
straight-curve $-1 74.067201757866144 0 -14.7868089662574 0 -1 0 I I #
coedge $-1 $245 $247 $168 $257 reversed $161 $-1 #
edge $-1 $260 -46.544094505937252 $263 46.544094505937252 $256 $355 forward 7 unknown #
coedge $-1 $251 $169 $174 $266 forward $243 $-1 #
coedge $-1 $169 $251 $245 $346 reversed $243 $-1 #
vertex $-1 $170 $356 #
straight-curve $-1 0 46.544094505937252 14.7868089662574 -1 0 0 I I #
coedge $-1 $171 $246 $173 $265 reversed $101 $-1 #
vertex $-1 $257 $357 #
straight-curve $-1 0 -46.544094505937252 14.7868089662574 1 0 0 I I #
edge $-1 $176 -14.7868089662574 $254 14.7868089662574 $173 $358 forward 7 unknown #
edge $-1 $177 -14.7868089662574 $253 14.7868089662574 $174 $359 forward 7 unknown #
point $-1 74.067201757866144 -46.544094505937252 14.7868089662574 #
point $-1 74.067201757866144 46.544094505937252 14.7868089662574 #
face $-1 $-1 $279 $25 $-1 $360 reversed single #
loop $-1 $-1 $275 $179 #
plane-surface $-1 0 0 -14.7868089662574 0 0 1 1 0 0 forward_v I I I I #
coedge $-1 $361 $362 $187 $283 forward $180 $-1 #
coedge $-1 $182 $287 $277 $363 forward $109 $-1 #
edge $-1 $281 -24.279307513387181 $192 -20.250266471712962 $182 $364 forward 7 unknown #
coedge $-1 $365 $188 $183 $276 forward $270 $-1 #
edge $-1 $193 20.250266471712962 $280 24.279307513387181 $275 $366 forward 7 unknown #
coedge $-1 $367 $185 $273 $363 reversed $279 $-1 #
coedge $-1 $185 $367 $365 $368 reversed $279 $-1 #
loop $-1 $-1 $185 $269 #
vertex $-1 $368 $369 #
vertex $-1 $186 $370 #
straight-curve $-1 -58.664750338405007 -46.544094505937252 0 0 0 1 I I #
edge $-1 $288 -14.7868089662574 $285 14.7868089662574 $272 $371 forward 7 unknown #
coedge $-1 $188 $365 $361 $372 forward $270 $-1 #
vertex $-1 $189 $373 #
straight-curve $-1 -33.182988024067789 -42.515053464263033 -14.7868089662574 1 0 0 I I #
coedge $-1 $273 $190 $362 $374 forward $109 $-1 #
vertex $-1 $374 $375 #
straight-curve $-1 -33.182988024067789 -42.515053464263033 14.7868089662574 -1 0 0 I I #
point $-1 -58.664750338405007 -42.515053464263033 14.7868089662574 #
point $-1 -58.664750338405007 -42.515053464263033 -14.7868089662574 #
plane-surface $-1 0 0 14.7868089662574 0 0 1 1 0 0 forward_v I I I I #
coedge $-1 $303 $302 $295 $376 forward $196 $-1 #
coedge $-1 $295 $198 $200 $299 reversed $117 $-1 #
coedge $-1 $198 $294 $293 $376 reversed $117 $-1 #
coedge $-1 $206 $201 $198 $297 forward $207 $-1 #
edge $-1 $300 7.1576714028840058 $377 26.546813936154194 $296 $378 forward 7 unknown #
coedge $-1 $200 $199 $303 $379 reversed $73 $-1 #
edge $-1 $380 -93.088189011874533 $300 -70.699535590011592 $294 $381 forward 7 unknown #
vertex $-1 $202 $382 #
straight-curve $-1 11.015819691544849 27.154951972667057 14.786808966257404 1 0 0 I I #
coedge $-1 $293 $203 $206 $307 reversed $196 $-1 #
coedge $-1 $203 $293 $298 $379 forward $196 $-1 #
vertex $-1 $204 $383 #
straight-curve $-1 4.6738388114741483 46.544094505937252 89.212366640513693 0 0 1 I I #
straight-curve $-1 4.6738388114741483 -34.072641610613346 50.136577234860738 0 0.8660253999169214 -0.50000000669873634 I I #
edge $-1 $377 -39.389439954705246 $208 -4.6738388114741483 $302 $384 forward 7 unknown #
point $-1 4.6738388114741483 46.544094505937252 14.7868089662574 #
point $-1 4.6738388114741483 27.154951972667064 14.786808966257396 #
edge $-1 $385 1 $385 0 $211 $-1 forward 7 unknown #
vertex $-1 $212 $386 #
ellipse-curve $-1 14.592581995254463 31.154677739256151 -0.67411603533158981 0 0.50000000669873634 0.8660253999169214 3 0 0 1 I I #
point $-1 17.592581995254463 36.849523239302194 9.1896455358038374 #
edge $-1 $387 1 $387 0 $215 $-1 forward 7 unknown #
vertex $-1 $216 $388 #
ellipse-curve $-1 29.470696770924945 31.154677739256151 -0.67411603533158981 0 0.50000000669873634 0.8660253999169214 3 0 0 1 I I #
point $-1 32.470696770924945 36.849523239302194 9.1896455358038374 #
loop $-1 $-1 $227 $219 #
plane-surface $-1 0 -46.544094505937252 0 0 1 0 0 0 1 forward_v I I I I #
coedge $-1 $321 $222 $224 $325 reversed $139 $-1 #
coedge $-1 $222 $320 $389 $390 reversed $139 $-1 #
coedge $-1 $230 $225 $222 $323 forward $220 $-1 #
edge $-1 $326 -33.150696655391286 $391 -13.761554122121098 $322 $392 forward 7 unknown #
coedge $-1 $224 $223 $329 $393 reversed $87 $-1 #
edge $-1 $394 -1.6303764080091705e-014 $326 22.388653421862912 $320 $395 forward 7 unknown #
vertex $-1 $226 $396 #
straight-curve $-1 11.015819691544849 -27.154951972667057 14.7868089662574 -1 0 0 I I #
coedge $-1 $389 $227 $230 $333 reversed $318 $-1 #
coedge $-1 $227 $389 $324 $393 forward $318 $-1 #
vertex $-1 $228 $397 #
straight-curve $-1 39.389439954705246 -46.544094505937252 65.940319075758453 0 0 1 I I #
straight-curve $-1 39.389439954705246 -46.544094505937238 3.5924821053502569 0 -0.8660253999169214 -0.50000000669873634 I I #
edge $-1 $391 4.6738388114741483 $231 39.389439954705246 $328 $398 forward 7 unknown #
point $-1 39.389439954705246 -46.544094505937252 14.7868089662574 #
point $-1 39.389439954705246 -27.15495197266706 14.7868089662574 #
edge $-1 $399 1 $399 0 $234 $-1 forward 7 unknown #
vertex $-1 $235 $400 #
ellipse-curve $-1 14.592581995254463 -31.154677739256144 -0.67411603533158626 0 -0.50000000669873634 0.8660253999169214 3 0 0 1 I I #
point $-1 17.592581995254463 -36.849523239302187 9.1896455358038409 #
edge $-1 $401 1 $401 0 $238 $-1 forward 7 unknown #
vertex $-1 $239 $402 #
ellipse-curve $-1 29.470696770924945 -31.154677739256144 -0.67411603533158626 0 -0.50000000669873634 0.8660253999169214 3 0 0 1 I I #
point $-1 32.470696770924945 -36.849523239302187 9.1896455358038409 #
plane-surface $-1 74.067201757866144 0 0 -1 0 0 0 0 1 forward_v I I I I #
coedge $-1 $247 $245 $249 $349 reversed $161 $-1 #
edge $-1 $260 -14.7868089662574 $351 14.7868089662574 $259 $403 forward 7 unknown #
vertex $-1 $349 $404 #
straight-curve $-1 -74.067201757866144 -46.544094505937252 0 0 0 -1 I I #
edge $-1 $347 -46.544094505937252 $351 46.544094505937252 $345 $405 forward 7 unknown #
straight-curve $-1 0 -46.544094505937252 -14.7868089662574 -1 0 0 I I #
vertex $-1 $252 $406 #
straight-curve $-1 0 46.544094505937252 -14.7868089662574 1 0 0 I I #
point $-1 74.067201757866144 46.544094505937252 -14.7868089662574 #
point $-1 74.067201757866144 -46.544094505937252 -14.7868089662574 #
straight-curve $-1 -74.067201757866144 0 14.7868089662574 0 -1 0 I I #
point $-1 -74.067201757866144 46.544094505937252 14.7868089662574 #
point $-1 -74.067201757866144 -46.544094505937252 14.7868089662574 #
straight-curve $-1 74.067201757866144 -46.544094505937252 0 0 0 -1 I I #
straight-curve $-1 74.067201757866144 46.544094505937252 0 0 0 -1 I I #
plane-surface $-1 0 -46.544094505937252 0 0 1 0 0 0 1 forward_v I I I I #
coedge $-1 $407 $272 $284 $372 reversed $180 $-1 #
coedge $-1 $272 $407 $287 $374 reversed $180 $-1 #
edge $-1 $408 -74.067201757866144 $281 -58.664750338405007 $277 $409 forward 7 unknown #
straight-curve $-1 -58.664750338405007 -22.264786992550071 14.7868089662574 0 1 0 I I #
coedge $-1 $284 $275 $278 $368 forward $270 $-1 #
straight-curve $-1 -58.664750338405007 -22.264786992550071 -14.7868089662574 0 -1 0 I I #
coedge $-1 $278 $277 $407 $410 forward $279 $-1 #
edge $-1 $280 58.664750338405007 $411 74.067201757866144 $278 $412 forward 7 unknown #
point $-1 -58.664750338405007 -46.544094505937252 -14.7868089662574 #
point $-1 -58.664750338405007 -46.544094505937252 14.7868089662574 #
straight-curve $-1 -74.067201757866144 -42.515053464263033 0 0 0 -1 I I #
edge $-1 $411 -46.544094505937252 $285 -42.515053464263033 $361 $413 forward 7 unknown #
point $-1 -74.067201757866144 -42.515053464263033 -14.7868089662574 #
edge $-1 $288 42.515053464263033 $408 46.544094505937252 $362 $414 forward 7 unknown #
point $-1 -74.067201757866144 -42.515053464263033 14.7868089662574 #
edge $-1 $377 74.425557674256297 $380 85.61988453516345 $293 $415 forward 7 unknown #
vertex $-1 $307 $416 #
straight-curve $-1 39.389439954705246 19.997280569783058 14.786808966257396 0 1 0 I I #
edge $-1 $380 -28.373620263160397 $304 6.3419808800707003 $303 $417 forward 7 unknown #
vertex $-1 $379 $418 #
straight-curve $-1 39.389439954705246 -34.072641610613346 50.136577234860738 0 -0.8660253999169214 0.50000000669873634 I I #
point $-1 39.389439954705246 27.154951972667064 14.786808966257396 #
point $-1 4.6738388114741483 46.544094505937252 3.5924821053502427 #
straight-curve $-1 0 46.544094505937252 14.7868089662574 -1 0 0 I I #
vertex $-1 $310 $419 #
point $-1 17.592581995254463 31.154677739256151 -0.67411603533158981 #
vertex $-1 $314 $420 #
point $-1 32.470696770924945 31.154677739256151 -0.67411603533158981 #
coedge $-1 $329 $328 $321 $390 forward $318 $-1 #
edge $-1 $391 51.153510109501056 $394 62.347836970408203 $389 $421 forward 7 unknown #
vertex $-1 $333 $422 #
straight-curve $-1 4.6738388114741483 -60.30564862805835 14.786808966257396 0 -1 0 I I #
edge $-1 $394 -6.3419808800707003 $330 28.373620263160397 $329 $423 forward 7 unknown #
vertex $-1 $393 $424 #
straight-curve $-1 4.6738388114741483 -46.544094505937238 3.5924821053502569 0 0.8660253999169214 0.50000000669873634 I I #
point $-1 4.6738388114741483 -27.15495197266706 14.7868089662574 #
point $-1 39.389439954705246 -46.544094505937252 3.5924821053502489 #
straight-curve $-1 0 -46.544094505937252 14.7868089662574 1 0 0 I I #
vertex $-1 $336 $425 #
point $-1 17.592581995254463 -31.154677739256144 -0.67411603533158626 #
vertex $-1 $340 $426 #
point $-1 32.470696770924945 -31.154677739256144 -0.67411603533158626 #
straight-curve $-1 -74.067201757866144 46.544094505937252 0 0 0 -1 I I #
point $-1 -74.067201757866144 -46.544094505937252 -14.7868089662574 #
straight-curve $-1 -74.067201757866144 0 -14.7868089662574 0 1 0 I I #
point $-1 -74.067201757866144 46.544094505937252 -14.7868089662574 #
coedge $-1 $362 $361 $367 $410 reversed $180 $-1 #
vertex $-1 $374 $427 #
straight-curve $-1 0 -46.544094505937252 14.7868089662574 1 0 0 I I #
edge $-1 $408 -14.7868089662574 $411 14.7868089662574 $407 $428 forward 7 unknown #
vertex $-1 $372 $429 #
straight-curve $-1 0 -46.544094505937252 -14.7868089662574 -1 0 0 I I #
straight-curve $-1 -74.067201757866144 0 -14.7868089662574 0 1 0 I I #
straight-curve $-1 -74.067201757866144 0 14.7868089662574 0 -1 0 I I #
straight-curve $-1 39.389439954705246 46.544094505937252 89.212366640513693 0 0 -1 I I #
point $-1 39.389439954705246 46.544094505937252 14.7868089662574 #
straight-curve $-1 11.015819691544849 46.544094505937252 3.5924821053502463 -1 0 0 I I #
point $-1 39.389439954705246 46.544094505937252 3.5924821053502427 #
point $-1 14.592581995254463 29.654677719159942 -3.272192235082354 #
point $-1 29.470696770924945 29.654677719159942 -3.272192235082354 #
straight-curve $-1 4.6738388114741483 -46.544094505937252 65.940319075758453 0 0 -1 I I #
point $-1 4.6738388114741483 -46.544094505937252 14.7868089662574 #
straight-curve $-1 11.015819691544849 -46.544094505937252 3.5924821053502498 1 0 0 I I #
point $-1 4.6738388114741483 -46.544094505937252 3.5924821053502489 #
point $-1 14.592581995254463 -29.654677719159935 -3.2721922350823505 #
point $-1 29.470696770924945 -29.654677719159935 -3.2721922350823505 #
point $-1 -74.067201757866144 -46.544094505937252 14.7868089662574 #
straight-curve $-1 -74.067201757866144 -46.544094505937252 0 0 0 -1 I I #
point $-1 -74.067201757866144 -46.544094505937252 -14.7868089662574 #
End-of-ACIS-data 