500 0 15 0           
7 Unknown 11 ACIS 5.0 NT 24 Fri Mar 26 16:39:01 1999 
-1 9.9999999999999995e-007 1e-010 
body $-1 $15 $-1 $16 #
body $-1 $17 $-1 $18 #
body $-1 $19 $-1 $20 #
body $-1 $21 $-1 $22 #
body $-1 $23 $-1 $24 #
body $-1 $25 $-1 $26 #
body $-1 $27 $-1 $28 #
body $-1 $29 $-1 $30 #
body $-1 $31 $-1 $32 #
body $-1 $33 $-1 $34 #
body $-1 $35 $-1 $36 #
body $-1 $37 $-1 $38 #
body $-1 $39 $-1 $40 #
body $-1 $41 $-1 $42 #
body $-1 $43 $-1 $44 #
lump $-1 $-1 $45 $0 #
transform $-1 1 0 0 0 1 0 0 0 1 48.904080324716944 23.383573988938114 11.631627831675164 1 rotate no_reflect no_shear #
lump $-1 $-1 $46 $1 #
transform $-1 1 0 0 0 1 0 0 0 1 48.904080324716944 23.383573988938114 11.631627831675164 1 rotate no_reflect no_shear #
lump $-1 $-1 $47 $2 #
transform $-1 1 0 0 0 1 0 0 0 1 48.904080324716944 23.383573988938114 11.631627831675164 1 rotate no_reflect no_shear #
lump $-1 $-1 $48 $3 #
transform $-1 1 0 0 0 1 0 0 0 1 48.904080324716944 23.383573988938114 11.631627831675164 1 rotate no_reflect no_shear #
lump $-1 $-1 $49 $4 #
transform $-1 1 0 0 0 1 0 0 0 1 48.904080324716944 23.383573988938114 11.631627831675164 1 rotate no_reflect no_shear #
lump $-1 $-1 $50 $5 #
transform $-1 1 0 0 0 1 0 0 0 1 48.904080324716944 23.383573988938114 11.631627831675164 1 rotate no_reflect no_shear #
lump $-1 $-1 $51 $6 #
transform $-1 1 0 0 0 1 0 0 0 1 48.904080324716944 23.383573988938114 11.631627831675164 1 rotate no_reflect no_shear #
lump $-1 $-1 $52 $7 #
transform $-1 1 0 0 0 1 0 0 0 1 48.904080324716944 23.383573988938114 11.631627831675164 1 rotate no_reflect no_shear #
lump $-1 $-1 $53 $8 #
transform $-1 1 0 0 0 1 0 0 0 1 48.904080324716944 23.383573988938114 11.631627831675164 1 rotate no_reflect no_shear #
lump $-1 $-1 $54 $9 #
transform $-1 1 0 0 0 1 0 0 0 1 48.904080324716944 23.383573988938114 11.631627831675164 1 rotate no_reflect no_shear #
lump $-1 $-1 $55 $10 #
transform $-1 1 0 0 0 1 0 0 0 1 48.904080324716944 23.383573988938114 11.631627831675164 1 rotate no_reflect no_shear #
lump $-1 $-1 $56 $11 #
transform $-1 1 0 0 0 1 0 0 0 1 48.904080324716944 23.383573988938114 11.631627831675164 1 rotate no_reflect no_shear #
lump $-1 $-1 $57 $12 #
transform $-1 1 0 0 0 1 0 0 0 1 48.904080324716944 23.383573988938114 11.631627831675164 1 rotate no_reflect no_shear #
lump $-1 $-1 $58 $13 #
transform $-1 1 0 0 0 1 0 0 0 1 48.904080324716944 23.383573988938114 11.631627831675164 1 rotate no_reflect no_shear #
lump $-1 $-1 $59 $14 #
transform $-1 1 0 0 0 1 0 0 0 1 48.904080324716944 23.383573988938114 11.631627831675164 1 rotate no_reflect no_shear #
shell $-1 $-1 $-1 $60 $-1 $15 #
shell $-1 $-1 $-1 $61 $-1 $17 #
shell $-1 $-1 $-1 $62 $-1 $19 #
shell $-1 $-1 $-1 $63 $-1 $21 #
shell $-1 $-1 $-1 $64 $-1 $23 #
shell $-1 $-1 $-1 $65 $-1 $25 #
shell $-1 $-1 $-1 $66 $-1 $27 #
shell $-1 $-1 $-1 $67 $-1 $29 #
shell $-1 $-1 $-1 $68 $-1 $31 #
shell $-1 $-1 $-1 $69 $-1 $33 #
shell $-1 $-1 $-1 $70 $-1 $35 #
shell $-1 $-1 $-1 $71 $-1 $37 #
shell $-1 $-1 $-1 $72 $-1 $39 #
shell $-1 $-1 $-1 $73 $-1 $41 #
shell $-1 $-1 $-1 $74 $-1 $43 #
face $-1 $75 $76 $45 $-1 $77 forward single #
face $-1 $78 $79 $46 $-1 $80 reversed single #
face $-1 $81 $82 $47 $-1 $83 reversed single #
face $-1 $84 $85 $48 $-1 $86 reversed single #
face $-1 $87 $88 $49 $-1 $89 forward single #
face $-1 $90 $91 $50 $-1 $92 forward single #
face $-1 $93 $94 $51 $-1 $95 reversed single #
face $-1 $96 $97 $52 $-1 $98 forward single #
face $-1 $99 $100 $53 $-1 $101 forward single #
face $-1 $102 $103 $54 $-1 $104 reversed single #
face $-1 $105 $106 $55 $-1 $107 forward single #
face $-1 $108 $109 $56 $-1 $110 forward single #
face $-1 $111 $112 $57 $-1 $113 reversed single #
face $-1 $114 $115 $58 $-1 $116 forward single #
face $-1 $117 $118 $59 $-1 $119 forward single #
face $-1 $120 $121 $45 $-1 $122 reversed single #
loop $-1 $-1 $123 $60 #
plane-surface $-1 0 0 11.631627831675164 0 0 1 1 0 0 forward_v I I I I #
face $-1 $124 $125 $46 $-1 $126 reversed single #
loop $-1 $-1 $127 $61 #
plane-surface $-1 0 -18.553049505827182 5.4896938410989744 0 0 1 1 0 0 forward_v I I I I #
face $-1 $128 $129 $47 $-1 $130 reversed single #
loop $-1 $-1 $131 $62 #
plane-surface $-1 0 18.553049505827186 5.4896938410989744 0 0 1 1 0 0 forward_v I I I I #
face $-1 $132 $133 $48 $-1 $134 reversed single #
loop $-1 $-1 $135 $63 #
plane-surface $-1 -110.45675099681819 -11.949341686396256 79.830080182775987 0 1 0 -0.62932039886446345 0 0.77714595512881146 forward_v I I I I #
face $-1 $136 $137 $49 $-1 $138 forward single #
loop $-1 $139 $140 $64 #
cone-surface $-1 -43.752336913981487 -10.261151024596129 7.3204916633932928 0.62932039886446345 0 -0.77714595512881146 0.38857297756440573 0 0.31466019943223172 1 I I 0 1 0.5 forward I I I I #
face $-1 $141 $142 $50 $-1 $143 forward single #
loop $-1 $144 $145 $65 #
cone-surface $-1 -43.752336913981487 -7.7288650318959391 7.3204916633932928 0.62932039886446345 0 -0.77714595512881146 0.38857297756440573 0 0.31466019943223172 1 I I 0 1 0.5 forward I I I I #
face $-1 $146 $147 $51 $-1 $148 reversed single #
loop $-1 $-1 $149 $66 #
plane-surface $-1 -110.45675099681819 -2.9543336581502242 79.830080182775987 0 1 0 -0.62932039886446345 0 0.77714595512881146 forward_v I I I I #
face $-1 $150 $151 $52 $-1 $152 forward single #
loop $-1 $153 $154 $67 #
cone-surface $-1 -43.752336913981487 -1.2661429963500943 7.3204916633932928 0.62932039886446345 0 -0.77714595512881146 0.38857297756440573 0 0.31466019943223172 1 I I 0 1 0.5 forward I I I I #
face $-1 $155 $156 $53 $-1 $157 forward single #
loop $-1 $158 $159 $68 #
cone-surface $-1 -43.752336913981487 1.2661429963500943 7.3204916633932928 0.62932039886446345 0 -0.77714595512881146 0.38857297756440573 0 0.31466019943223172 1 I I 0 1 0.5 forward I I I I #
face $-1 $160 $161 $54 $-1 $162 reversed single #
loop $-1 $-1 $163 $69 #
plane-surface $-1 -110.45675099681819 6.0406743700958092 79.830080182775987 0 1 0 -0.62932039886446345 0 0.77714595512881146 forward_v I I I I #
face $-1 $164 $165 $55 $-1 $166 forward single #
loop $-1 $167 $168 $70 #
cone-surface $-1 -43.752336913981487 7.7288650318959391 7.3204916633932928 0.62932039886446345 0 -0.77714595512881146 0.38857297756440573 0 0.31466019943223172 1 I I 0 1 0.5 forward I I I I #
face $-1 $169 $170 $56 $-1 $171 forward single #
loop $-1 $172 $173 $71 #
cone-surface $-1 -43.752336913981487 10.261151024596128 7.3204916633932928 0.62932039886446345 0 -0.77714595512881146 0.38857297756440573 0 0.31466019943223172 1 I I 0 1 0.5 forward I I I I #
face $-1 $174 $175 $57 $-1 $176 reversed single #
loop $-1 $-1 $177 $72 #
plane-surface $-1 44.076726681455739 -2.1645290379773012 142.70030200873708 0 -1 0 -0.68199836817093118 0 -0.7313536940579346 forward_v I I I I #
face $-1 $178 $179 $58 $-1 $180 forward single #
loop $-1 $181 $182 $73 #
cone-surface $-1 44.083913065298574 -7.9769120707187469 7.0001922084118213 -0.68199836817093118 0 -0.7313536940579346 0.7313536940579346 0 -0.68199836817093118 1 I I 0 1 1 forward I I I I #
face $-1 $183 $184 $59 $-1 $185 forward single #
loop $-1 $186 $187 $74 #
cone-surface $-1 44.083913065298574 -4.4894822510738805 7.0001922084118213 -0.68199836817093118 0 -0.7313536940579346 0.7313536940579346 0 -0.68199836817093118 1 I I 0 1 1 forward I I I I #
face $-1 $188 $189 $45 $-1 $190 reversed single #
loop $-1 $-1 $191 $75 #
plane-surface $-1 0 0 -11.631627831675164 0 0 1 1 0 0 forward_v I I I I #
coedge $-1 $192 $193 $194 $195 forward $76 $-1 #
face $-1 $196 $197 $46 $-1 $198 reversed single #
loop $-1 $-1 $199 $78 #
plane-surface $-1 0 -13.722525022716253 8.5606608363870684 0 -1 0 0 0 -1 forward_v I I I I #
coedge $-1 $200 $201 $202 $203 reversed $79 $-1 #
face $-1 $204 $205 $47 $-1 $206 forward single #
loop $-1 $-1 $207 $81 #
plane-surface $-1 0 13.722525022716255 8.5606608363870684 0 1 0 0 0 1 forward_v I I I I #
coedge $-1 $208 $209 $210 $211 reversed $82 $-1 #
face $-1 $212 $213 $48 $-1 $214 reversed single #
loop $-1 $-1 $215 $84 #
plane-surface $-1 -48.904080324716936 -8.9950080282460352 3.8188637554794553 -0.62932039886446345 0 0.77714595512881146 0.77714595512881146 0 0.62932039886446345 forward_v I I I I #
coedge $-1 $216 $217 $218 $219 reversed $85 $-1 #
face $-1 $-1 $220 $49 $-1 $221 forward single #
loop $-1 $222 $223 $87 #
cone-surface $-1 -43.267243375533681 -10.261151024596129 6.7214510444270772 0.62932039886446345 0 -0.77714595512881146 0.19428648878220287 0 0.15733009971611586 1 I I -0.70710678118654746 0.70710678118654746 0.25 forward I I I I #
loop $-1 $-1 $224 $64 #
coedge $-1 $140 $140 $225 $226 reversed $88 $-1 #
face $-1 $-1 $227 $50 $-1 $228 forward single #
loop $-1 $229 $230 $90 #
cone-surface $-1 -43.267243375533681 -7.7288650318959391 6.7214510444270772 0.62932039886446345 0 -0.77714595512881146 0.19428648878220287 0 0.15733009971611586 1 I I -0.70710678118654746 0.70710678118654746 0.25 forward I I I I #
loop $-1 $-1 $231 $65 #
coedge $-1 $145 $145 $232 $233 reversed $91 $-1 #
face $-1 $234 $235 $51 $-1 $236 reversed single #
loop $-1 $-1 $237 $93 #
plane-surface $-1 -48.904080324716936 -3.5527136788005009e-015 3.8188637554794553 -0.62932039886446345 0 0.77714595512881146 0.77714595512881146 0 0.62932039886446345 forward_v I I I I #
coedge $-1 $238 $239 $240 $241 reversed $94 $-1 #
face $-1 $-1 $242 $52 $-1 $243 forward single #
loop $-1 $244 $245 $96 #
cone-surface $-1 -43.267243375533681 -1.2661429963500943 6.7214510444270772 0.62932039886446345 0 -0.77714595512881146 0.19428648878220287 0 0.15733009971611586 1 I I -0.70710678118654746 0.70710678118654746 0.25 forward I I I I #
loop $-1 $-1 $246 $67 #
coedge $-1 $154 $154 $247 $248 reversed $97 $-1 #
face $-1 $-1 $249 $53 $-1 $250 forward single #
loop $-1 $251 $252 $99 #
cone-surface $-1 -43.267243375533681 1.2661429963500943 6.7214510444270772 0.62932039886446345 0 -0.77714595512881146 0.19428648878220287 0 0.15733009971611586 1 I I -0.70710678118654746 0.70710678118654746 0.25 forward I I I I #
loop $-1 $-1 $253 $68 #
coedge $-1 $159 $159 $254 $255 reversed $100 $-1 #
face $-1 $256 $257 $54 $-1 $258 reversed single #
loop $-1 $-1 $259 $102 #
plane-surface $-1 -48.904080324716936 8.9950080282460299 3.8188637554794553 -0.62932039886446345 0 0.77714595512881146 0.77714595512881146 0 0.62932039886446345 forward_v I I I I #
coedge $-1 $260 $261 $262 $263 reversed $103 $-1 #
face $-1 $-1 $264 $55 $-1 $265 forward single #
loop $-1 $266 $267 $105 #
cone-surface $-1 -43.267243375533681 7.7288650318959391 6.7214510444270772 0.62932039886446345 0 -0.77714595512881146 0.19428648878220287 0 0.15733009971611586 1 I I -0.70710678118654746 0.70710678118654746 0.25 forward I I I I #
loop $-1 $-1 $268 $70 #
coedge $-1 $168 $168 $269 $270 reversed $106 $-1 #
face $-1 $-1 $271 $56 $-1 $272 forward single #
loop $-1 $273 $274 $108 #
cone-surface $-1 -43.267243375533681 10.261151024596128 6.7214510444270772 0.62932039886446345 0 -0.77714595512881146 0.19428648878220287 0 0.15733009971611586 1 I I -0.70710678118654746 0.70710678118654746 0.25 forward I I I I #
loop $-1 $-1 $275 $71 #
coedge $-1 $173 $173 $276 $277 reversed $109 $-1 #
face $-1 $278 $279 $57 $-1 $280 reversed single #
loop $-1 $-1 $281 $111 #
plane-surface $-1 -22.62827927525845 -6.2331971608963137 71.167942408761689 0.68199836817093118 0 0.7313536940579346 0.7313536940579346 0 -0.68199836817093118 forward_v I I I I #
coedge $-1 $282 $283 $284 $285 reversed $112 $-1 #
face $-1 $-1 $286 $58 $-1 $287 forward single #
loop $-1 $288 $289 $114 #
cone-surface $-1 42.766486700024629 -7.9769120707187469 5.5874254279333506 -0.68199836817093118 0 -0.7313536940579346 0.3656768470289673 0 -0.34099918408546559 1 I I -0.70710678118654746 0.70710678118654746 0.5 forward I I I I #
loop $-1 $-1 $290 $73 #
coedge $-1 $182 $182 $291 $292 reversed $115 $-1 #
face $-1 $-1 $293 $59 $-1 $294 forward single #
loop $-1 $295 $296 $117 #
cone-surface $-1 42.766486700024629 -4.4894822510738805 5.5874254279333506 -0.68199836817093118 0 -0.7313536940579346 0.3656768470289673 0 -0.34099918408546559 1 I I -0.70710678118654746 0.70710678118654746 0.5 forward I I I I #
loop $-1 $-1 $297 $74 #
coedge $-1 $187 $187 $298 $299 reversed $118 $-1 #
face $-1 $300 $301 $45 $-1 $302 reversed single #
loop $-1 $-1 $303 $120 #
plane-surface $-1 0 -23.383573988938114 0 0 1 0 0 0 1 forward_v I I I I #
coedge $-1 $304 $305 $306 $307 forward $121 $-1 #
coedge $-1 $308 $123 $309 $310 forward $76 $-1 #
coedge $-1 $123 $308 $311 $312 forward $76 $-1 #
coedge $-1 $313 $314 $123 $195 reversed $315 $-1 #
edge $-1 $316 -23.383573988938114 $317 23.383573988938114 $194 $318 forward 7 unknown #
face $-1 $319 $320 $46 $-1 $321 reversed single #
loop $-1 $-1 $322 $124 #
plane-surface $-1 -48.904080324716944 0 0 1 0 0 0 0 -1 forward_v I I I I #
coedge $-1 $323 $324 $325 $326 reversed $125 $-1 #
coedge $-1 $327 $127 $328 $329 reversed $79 $-1 #
coedge $-1 $127 $327 $323 $330 forward $79 $-1 #
coedge $-1 $325 $331 $127 $203 forward $332 $-1 #
edge $-1 $333 -14.107049236024519 $334 -4.4460002698026617 $202 $335 forward 7 unknown #
face $-1 $336 $337 $47 $-1 $338 reversed single #
loop $-1 $-1 $339 $128 #
plane-surface $-1 0 0 11.631627831675164 0 0 1 1 0 0 forward_v I I I I #
coedge $-1 $340 $341 $342 $343 reversed $129 $-1 #
coedge $-1 $344 $131 $340 $345 forward $82 $-1 #
coedge $-1 $131 $344 $346 $347 reversed $82 $-1 #
coedge $-1 $348 $349 $131 $211 forward $337 $-1 #
edge $-1 $350 4.4460002698026617 $351 14.107049236024524 $210 $352 forward 7 unknown #
face $-1 $353 $354 $48 $-1 $355 reversed single #
loop $-1 $-1 $356 $132 #
plane-surface $-1 -110.45675099681819 -6.0406743700958145 79.830080182775987 0 -1 0 0.62932039886446345 0 -0.77714595512881146 forward_v I I I I #
coedge $-1 $357 $358 $359 $360 reversed $133 $-1 #
coedge $-1 $217 $135 $361 $362 reversed $85 $-1 #
coedge $-1 $135 $216 $357 $363 reversed $85 $-1 #
coedge $-1 $359 $364 $135 $219 forward $365 $-1 #
edge $-1 $366 6.3242951736921498 $367 15.972255117699675 $218 $368 forward 7 unknown #
loop $-1 $-1 $225 $136 #
plane-surface $-1 -48.904080324716936 -8.9950080282460352 3.8188637554794553 -0.62932039886446345 0 0.77714595512881146 0.77714595512881146 0 0.62932039886446345 forward_v I I I I #
loop $-1 $-1 $369 $87 #
coedge $-1 $223 $223 $224 $370 reversed $137 $-1 #
coedge $-1 $224 $224 $223 $370 forward $139 $-1 #
coedge $-1 $225 $225 $140 $226 forward $220 $-1 #
edge $-1 $371 0 $371 6.2831853071796004 $225 $372 forward 7 unknown #
loop $-1 $-1 $232 $141 #
plane-surface $-1 -48.904080324716936 -8.9950080282460352 3.8188637554794553 -0.62932039886446345 0 0.77714595512881146 0.77714595512881146 0 0.62932039886446345 forward_v I I I I #
loop $-1 $-1 $373 $90 #
coedge $-1 $230 $230 $231 $374 reversed $142 $-1 #
coedge $-1 $231 $231 $230 $374 forward $144 $-1 #
coedge $-1 $232 $232 $145 $233 forward $227 $-1 #
edge $-1 $375 0 $375 6.2831853071796004 $232 $376 forward 7 unknown #
face $-1 $377 $378 $51 $-1 $379 forward single #
loop $-1 $-1 $380 $146 #
plane-surface $-1 -110.45675099681819 2.9543336581502171 79.830080182775987 0 -1 0 0.62932039886446345 0 -0.77714595512881146 forward_v I I I I #
coedge $-1 $381 $382 $383 $384 reversed $147 $-1 #
coedge $-1 $239 $149 $385 $386 reversed $94 $-1 #
coedge $-1 $149 $238 $381 $387 reversed $94 $-1 #
coedge $-1 $383 $388 $149 $241 forward $378 $-1 #
edge $-1 $389 6.3242951736921498 $390 15.972255117699675 $240 $391 forward 7 unknown #
loop $-1 $-1 $247 $150 #
plane-surface $-1 -48.904080324716936 -3.5527136788005009e-015 3.8188637554794553 -0.62932039886446345 0 0.77714595512881146 0.77714595512881146 0 0.62932039886446345 forward_v I I I I #
loop $-1 $-1 $392 $96 #
coedge $-1 $245 $245 $246 $393 reversed $151 $-1 #
coedge $-1 $246 $246 $245 $393 forward $153 $-1 #
coedge $-1 $247 $247 $154 $248 forward $242 $-1 #
edge $-1 $394 0 $394 6.2831853071796004 $247 $395 forward 7 unknown #
loop $-1 $-1 $254 $155 #
plane-surface $-1 -48.904080324716936 -3.5527136788005009e-015 3.8188637554794553 -0.62932039886446345 0 0.77714595512881146 0.77714595512881146 0 0.62932039886446345 forward_v I I I I #
loop $-1 $-1 $396 $99 #
coedge $-1 $252 $252 $253 $397 reversed $156 $-1 #
coedge $-1 $253 $253 $252 $397 forward $158 $-1 #
coedge $-1 $254 $254 $159 $255 forward $249 $-1 #
edge $-1 $398 0 $398 6.2831853071796004 $254 $399 forward 7 unknown #
face $-1 $400 $401 $54 $-1 $402 forward single #
loop $-1 $-1 $403 $160 #
plane-surface $-1 -110.45675099681819 11.94934168639625 79.830080182775987 0 -1 0 0.62932039886446345 0 -0.77714595512881146 forward_v I I I I #
coedge $-1 $404 $405 $406 $407 reversed $161 $-1 #
coedge $-1 $261 $163 $408 $409 reversed $103 $-1 #
coedge $-1 $163 $260 $404 $410 reversed $103 $-1 #
coedge $-1 $406 $411 $163 $263 forward $401 $-1 #
edge $-1 $412 6.3242951736921498 $413 15.972255117699675 $262 $414 forward 7 unknown #
loop $-1 $-1 $269 $164 #
plane-surface $-1 -48.904080324716936 8.9950080282460299 3.8188637554794553 -0.62932039886446345 0 0.77714595512881146 0.77714595512881146 0 0.62932039886446345 forward_v I I I I #
loop $-1 $-1 $415 $105 #
coedge $-1 $267 $267 $268 $416 reversed $165 $-1 #
coedge $-1 $268 $268 $267 $416 forward $167 $-1 #
coedge $-1 $269 $269 $168 $270 forward $264 $-1 #
edge $-1 $417 0 $417 6.2831853071796004 $269 $418 forward 7 unknown #
loop $-1 $-1 $276 $169 #
plane-surface $-1 -48.904080324716936 8.9950080282460299 3.8188637554794553 -0.62932039886446345 0 0.77714595512881146 0.77714595512881146 0 0.62932039886446345 forward_v I I I I #
loop $-1 $-1 $419 $108 #
coedge $-1 $274 $274 $275 $420 reversed $170 $-1 #
coedge $-1 $275 $275 $274 $420 forward $172 $-1 #
coedge $-1 $276 $276 $173 $277 forward $271 $-1 #
edge $-1 $421 0 $421 6.2831853071796004 $276 $422 forward 7 unknown #
face $-1 $423 $424 $57 $-1 $425 forward single #
loop $-1 $-1 $426 $174 #
plane-surface $-1 44.076726681455739 -10.301865283815326 142.70030200873708 0 1 0 0.68199836817093118 0 0.7313536940579346 forward_v I I I I #
coedge $-1 $427 $428 $429 $430 reversed $175 $-1 #
coedge $-1 $283 $177 $431 $432 reversed $112 $-1 #
coedge $-1 $177 $282 $427 $433 reversed $112 $-1 #
coedge $-1 $429 $434 $177 $285 forward $424 $-1 #
edge $-1 $435 -26.865716983989074 $436 -19.178236827529318 $284 $437 forward 7 unknown #
loop $-1 $-1 $291 $178 #
plane-surface $-1 -22.62827927525845 -6.2331971608963137 71.167942408761689 0.68199836817093118 0 0.7313536940579346 0.7313536940579346 0 -0.68199836817093118 forward_v I I I I #
loop $-1 $-1 $438 $114 #
coedge $-1 $289 $289 $290 $439 reversed $179 $-1 #
coedge $-1 $290 $290 $289 $439 forward $181 $-1 #
coedge $-1 $291 $291 $182 $292 forward $286 $-1 #
edge $-1 $440 0 $440 6.2831853071796004 $291 $441 forward 7 unknown #
loop $-1 $-1 $298 $183 #
plane-surface $-1 -22.62827927525845 -6.2331971608963137 71.167942408761689 0.68199836817093118 0 0.7313536940579346 0.7313536940579346 0 -0.68199836817093118 forward_v I I I I #
loop $-1 $-1 $442 $117 #
coedge $-1 $296 $296 $297 $443 reversed $184 $-1 #
coedge $-1 $297 $297 $296 $443 forward $186 $-1 #
coedge $-1 $298 $298 $187 $299 forward $293 $-1 #
edge $-1 $444 0 $444 6.2831853071796004 $298 $445 forward 7 unknown #
face $-1 $446 $447 $45 $-1 $448 reversed single #
loop $-1 $-1 $449 $188 #
plane-surface $-1 -48.904080324716944 0 0 1 0 0 0 0 -1 forward_v I I I I #
coedge $-1 $450 $311 $451 $452 forward $189 $-1 #
coedge $-1 $453 $191 $450 $454 forward $121 $-1 #
coedge $-1 $191 $453 $455 $456 forward $121 $-1 #
coedge $-1 $314 $313 $191 $307 reversed $315 $-1 #
edge $-1 $457 -23.383573988938114 $458 23.383573988938114 $306 $459 forward 7 unknown #
coedge $-1 $193 $192 $460 $461 forward $76 $-1 #
coedge $-1 $462 $463 $192 $310 reversed $447 $-1 #
edge $-1 $317 -48.904080324716944 $464 48.904080324716944 $309 $465 forward 7 unknown #
coedge $-1 $303 $466 $193 $312 reversed $189 $-1 #
edge $-1 $467 -48.904080324716944 $316 48.904080324716944 $311 $468 forward 7 unknown #
coedge $-1 $306 $194 $466 $469 forward $315 $-1 #
coedge $-1 $194 $306 $462 $470 reversed $315 $-1 #
loop $-1 $-1 $313 $446 #
vertex $-1 $195 $471 #
vertex $-1 $195 $472 #
straight-curve $-1 48.904080324716944 0 11.631627831675164 0 1 0 I I #
face $-1 $473 $474 $46 $-1 $475 forward single #
loop $-1 $-1 $328 $196 #
plane-surface $-1 0 -23.383573988938114 0 0 1 0 0 0 1 forward_v I I I I #
coedge $-1 $476 $477 $478 $479 forward $197 $-1 #
coedge $-1 $478 $199 $201 $330 reversed $125 $-1 #
coedge $-1 $199 $478 $480 $481 reversed $125 $-1 #
coedge $-1 $482 $202 $199 $326 forward $332 $-1 #
edge $-1 $334 1.2093634229054402 $483 7.3512974134816282 $325 $484 forward 7 unknown #
coedge $-1 $201 $200 $476 $485 reversed $79 $-1 #
coedge $-1 $486 $487 $200 $329 forward $320 $-1 #
edge $-1 $488 -48.904080324716944 $333 48.904080324716944 $328 $489 forward 7 unknown #
edge $-1 $490 -48.904080324716944 $334 48.904080324716944 $323 $491 forward 7 unknown #
coedge $-1 $202 $482 $486 $492 forward $332 $-1 #
loop $-1 $-1 $325 $473 #
vertex $-1 $329 $493 #
vertex $-1 $203 $494 #
straight-curve $-1 48.904080324716944 -9.2765247529135912 5.4896938410989744 0 1 0 I I #
face $-1 $495 $496 $47 $-1 $497 reversed single #
loop $-1 $-1 $349 $204 #
plane-surface $-1 48.904080324716944 0 0 -1 0 0 0 0 1 forward_v I I I I #
coedge $-1 $498 $499 $341 $500 forward $205 $-1 #
coedge $-1 $501 $207 $208 $345 reversed $129 $-1 #
coedge $-1 $207 $501 $339 $500 reversed $129 $-1 #
coedge $-1 $502 $503 $207 $343 forward $496 $-1 #
edge $-1 $504 1.2093634229054402 $505 7.3512974134816282 $342 $506 forward 7 unknown #
coedge $-1 $209 $208 $503 $507 reversed $82 $-1 #
edge $-1 $350 -48.904080324716944 $504 48.904080324716944 $340 $508 forward 7 unknown #
coedge $-1 $509 $510 $209 $347 forward $511 $-1 #
edge $-1 $351 -48.904080324716944 $512 48.904080324716944 $346 $513 forward 7 unknown #
coedge $-1 $514 $210 $510 $515 reversed $337 $-1 #
coedge $-1 $210 $514 $501 $516 forward $337 $-1 #
vertex $-1 $211 $517 #
vertex $-1 $347 $518 #
straight-curve $-1 48.904080324716944 9.276524752913593 5.4896938410989744 0 1 0 I I #
face $-1 $-1 $365 $48 $-1 $519 forward single #
loop $-1 $-1 $520 $212 #
plane-surface $-1 -48.904080324716944 0 0 1 0 0 0 0 -1 forward_v I I I I #
coedge $-1 $521 $522 $523 $524 reversed $213 $-1 #
coedge $-1 $525 $215 $217 $363 forward $133 $-1 #
coedge $-1 $215 $525 $521 $526 forward $133 $-1 #
coedge $-1 $523 $218 $215 $360 forward $365 $-1 #
edge $-1 $367 -7.4518376722732382 $527 -1.5431703559727969 $359 $528 forward 7 unknown #
coedge $-1 $529 $530 $216 $362 forward $354 $-1 #
edge $-1 $531 -36.096176335908545 $366 -28.283412259712829 $361 $532 forward 7 unknown #
edge $-1 $367 -12.414604850395673 $531 9.1551213131864128e-015 $217 $533 forward 7 unknown #
coedge $-1 $218 $523 $529 $534 forward $365 $-1 #
loop $-1 $-1 $523 $353 #
vertex $-1 $362 $535 #
vertex $-1 $219 $536 #
straight-curve $-1 -55.228375498409093 -11.949341686396256 11.631627831675161 1 0 0 I I #
coedge $-1 $369 $369 $-1 $537 reversed $222 $-1 #
edge $-1 $538 0 $538 6.2831853071796004 $223 $539 forward 7 unknown #
vertex $-1 $226 $540 #
ellipse-curve $-1 -44.080100352713181 -10.261151024596129 7.725245793577308 -0.62932039886446345 0 0.77714595512881146 0.38857297756440573 0 0.31466019943223172 1 I I #
coedge $-1 $373 $373 $-1 $541 reversed $229 $-1 #
edge $-1 $542 0 $542 6.2831853071796004 $230 $543 forward 7 unknown #
vertex $-1 $233 $544 #
ellipse-curve $-1 -44.080100352713181 -7.7288650318959391 7.725245793577308 -0.62932039886446345 0 0.77714595512881146 0.38857297756440573 0 0.31466019943223172 1 I I #
face $-1 $-1 $545 $51 $-1 $546 reversed single #
loop $-1 $-1 $240 $234 #
plane-surface $-1 0 0 11.631627831675164 0 0 1 1 0 0 forward_v I I I I #
coedge $-1 $547 $548 $549 $550 reversed $235 $-1 #
coedge $-1 $551 $237 $239 $387 forward $147 $-1 #
coedge $-1 $237 $551 $547 $552 forward $147 $-1 #
coedge $-1 $549 $240 $237 $384 forward $378 $-1 #
edge $-1 $390 -2.9543336581502224 $553 2.9543336581502189 $383 $554 forward 7 unknown #
coedge $-1 $555 $556 $238 $386 forward $545 $-1 #
edge $-1 $557 -36.096176335908545 $389 -28.283412259712829 $385 $558 forward 7 unknown #
edge $-1 $390 -12.414604850395673 $557 9.1551213131864128e-015 $239 $559 forward 7 unknown #
coedge $-1 $240 $549 $555 $560 forward $378 $-1 #
vertex $-1 $241 $561 #
vertex $-1 $241 $562 #
straight-curve $-1 -55.228375498409093 -2.9543336581502242 11.631627831675161 1 0 0 I I #
coedge $-1 $392 $392 $-1 $563 reversed $244 $-1 #
edge $-1 $564 0 $564 6.2831853071796004 $245 $565 forward 7 unknown #
vertex $-1 $248 $566 #
ellipse-curve $-1 -44.080100352713181 -1.2661429963500943 7.725245793577308 -0.62932039886446345 0 0.77714595512881146 0.38857297756440573 0 0.31466019943223172 1 I I #
coedge $-1 $396 $396 $-1 $567 reversed $251 $-1 #
edge $-1 $568 0 $568 6.2831853071796004 $252 $569 forward 7 unknown #
vertex $-1 $255 $570 #
ellipse-curve $-1 -44.080100352713181 1.2661429963500943 7.725245793577308 -0.62932039886446345 0 0.77714595512881146 0.38857297756440573 0 0.31466019943223172 1 I I #
face $-1 $-1 $571 $54 $-1 $572 reversed single #
loop $-1 $-1 $262 $256 #
plane-surface $-1 0 0 11.631627831675164 0 0 1 1 0 0 forward_v I I I I #
coedge $-1 $573 $574 $575 $576 reversed $257 $-1 #
coedge $-1 $577 $259 $261 $410 forward $161 $-1 #
coedge $-1 $259 $577 $573 $578 forward $161 $-1 #
coedge $-1 $575 $262 $259 $407 forward $401 $-1 #
edge $-1 $413 1.5431703559727943 $579 7.4518376722732356 $406 $580 forward 7 unknown #
coedge $-1 $581 $582 $260 $409 forward $571 $-1 #
edge $-1 $583 -36.096176335908545 $412 -28.283412259712829 $408 $584 forward 7 unknown #
edge $-1 $413 -12.414604850395673 $583 9.1551213131864128e-015 $261 $585 forward 7 unknown #
coedge $-1 $262 $575 $581 $586 forward $401 $-1 #
vertex $-1 $263 $587 #
vertex $-1 $263 $588 #
straight-curve $-1 -55.228375498409093 6.0406743700958092 11.631627831675161 1 0 0 I I #
coedge $-1 $415 $415 $-1 $589 reversed $266 $-1 #
edge $-1 $590 0 $590 6.2831853071796004 $267 $591 forward 7 unknown #
vertex $-1 $270 $592 #
ellipse-curve $-1 -44.080100352713181 7.7288650318959391 7.725245793577308 -0.62932039886446345 0 0.77714595512881146 0.38857297756440573 0 0.31466019943223172 1 I I #
coedge $-1 $419 $419 $-1 $593 reversed $273 $-1 #
edge $-1 $594 0 $594 6.2831853071796004 $274 $595 forward 7 unknown #
vertex $-1 $277 $596 #
ellipse-curve $-1 -44.080100352713181 10.261151024596128 7.725245793577308 -0.62932039886446345 0 0.77714595512881146 0.38857297756440573 0 0.31466019943223172 1 I I #
face $-1 $-1 $597 $57 $-1 $598 reversed single #
loop $-1 $-1 $284 $278 #
plane-surface $-1 0 0 11.631627831675164 0 0 1 1 0 0 forward_v I I I I #
coedge $-1 $599 $600 $601 $602 reversed $279 $-1 #
coedge $-1 $603 $281 $283 $433 forward $175 $-1 #
coedge $-1 $281 $603 $599 $604 forward $175 $-1 #
coedge $-1 $601 $284 $281 $430 forward $424 $-1 #
edge $-1 $436 -0.95206954247085562 $605 7.1852667033671693 $429 $606 forward 7 unknown #
coedge $-1 $607 $608 $282 $432 forward $597 $-1 #
edge $-1 $609 -66.887214552321041 $435 -59.718523172693381 $431 $610 forward 7 unknown #
edge $-1 $436 87.296857816182893 $609 97.808160649433887 $283 $611 forward 7 unknown #
coedge $-1 $284 $601 $607 $612 forward $424 $-1 #
vertex $-1 $432 $613 #
vertex $-1 $285 $614 #
straight-curve $-1 22.038363340727869 -2.1645290379773012 11.631627831675161 -1 0 0 I I #
coedge $-1 $438 $438 $-1 $615 reversed $288 $-1 #
edge $-1 $616 0 $616 6.2831853071796004 $289 $617 forward 7 unknown #
vertex $-1 $292 $618 #
ellipse-curve $-1 45.060340246487065 -7.9769120707187469 8.0472821418613361 0.68199836817093118 0 0.7313536940579346 0.7313536940579346 0 -0.68199836817093118 1 I I #
coedge $-1 $442 $442 $-1 $619 reversed $295 $-1 #
edge $-1 $620 0 $620 6.2831853071796004 $296 $621 forward 7 unknown #
vertex $-1 $299 $622 #
ellipse-curve $-1 45.060340246487065 -4.4894822510738805 8.0472821418613361 0.68199836817093118 0 0.7313536940579346 0.7313536940579346 0 -0.68199836817093118 1 I I #
face $-1 $-1 $315 $45 $-1 $623 reversed single #
loop $-1 $-1 $462 $300 #
plane-surface $-1 0 23.383573988938114 0 0 -1 0 0 0 -1 forward_v I I I I #
coedge $-1 $624 $460 $463 $625 forward $301 $-1 #
coedge $-1 $466 $303 $304 $454 reversed $189 $-1 #
coedge $-1 $460 $624 $303 $452 reversed $301 $-1 #
edge $-1 $467 -11.631627831675164 $626 11.631627831675164 $451 $627 forward 7 unknown #
coedge $-1 $305 $304 $624 $628 forward $121 $-1 #
edge $-1 $458 -48.904080324716944 $626 48.904080324716944 $450 $629 forward 7 unknown #
coedge $-1 $463 $462 $305 $456 reversed $447 $-1 #
edge $-1 $630 -48.904080324716944 $457 48.904080324716944 $455 $631 forward 7 unknown #
vertex $-1 $307 $632 #
vertex $-1 $469 $633 #
straight-curve $-1 48.904080324716944 0 -11.631627831675164 0 -1 0 I I #
coedge $-1 $449 $451 $308 $461 reversed $301 $-1 #
edge $-1 $464 -23.383573988938114 $467 23.383573988938114 $460 $634 forward 7 unknown #
coedge $-1 $455 $309 $314 $470 forward $447 $-1 #
coedge $-1 $309 $455 $449 $625 reversed $447 $-1 #
vertex $-1 $310 $635 #
straight-curve $-1 0 23.383573988938114 11.631627831675164 -1 0 0 I I #
coedge $-1 $311 $450 $313 $469 reversed $189 $-1 #
vertex $-1 $461 $636 #
straight-curve $-1 0 -23.383573988938114 11.631627831675164 1 0 0 I I #
edge $-1 $316 -11.631627831675164 $458 11.631627831675164 $313 $637 forward 7 unknown #
edge $-1 $317 -11.631627831675164 $457 11.631627831675164 $314 $638 forward 7 unknown #
point $-1 48.904080324716944 -23.383573988938114 11.631627831675164 #
point $-1 48.904080324716944 23.383573988938114 11.631627831675164 #
face $-1 $-1 $332 $46 $-1 $639 reversed single #
loop $-1 $-1 $480 $319 #
plane-surface $-1 0 0 11.631627831675164 0 0 1 1 0 0 forward_v I I I I #
coedge $-1 $640 $322 $327 $485 forward $197 $-1 #
coedge $-1 $322 $640 $641 $642 reversed $197 $-1 #
coedge $-1 $324 $323 $322 $479 reversed $125 $-1 #
edge $-1 $643 -7.3512974134816282 $490 -1.2093634229054402 $322 $644 forward 7 unknown #
coedge $-1 $641 $645 $324 $481 forward $474 $-1 #
edge $-1 $483 -48.904080324716944 $643 48.904080324716944 $480 $646 forward 7 unknown #
coedge $-1 $331 $325 $645 $647 reversed $332 $-1 #
vertex $-1 $326 $648 #
straight-curve $-1 48.904080324716944 -13.722525022716253 4.2803304181935342 0 0 1 I I #
edge $-1 $490 4.4460002698026617 $488 14.107049236024519 $476 $649 forward 7 unknown #
coedge $-1 $650 $328 $331 $492 reversed $320 $-1 #
coedge $-1 $328 $650 $640 $651 forward $320 $-1 #
vertex $-1 $329 $652 #
straight-curve $-1 0 -23.383573988938114 5.4896938410989744 1 0 0 I I #
vertex $-1 $485 $653 #
straight-curve $-1 0 -13.722525022716253 5.4896938410989744 1 0 0 I I #
edge $-1 $654 -11.631627831675164 $333 -5.4896938410989744 $331 $655 forward 7 unknown #
point $-1 48.904080324716944 -23.38357398893811 5.4896938410989744 #
point $-1 48.904080324716944 -13.722525022716253 5.4896938410989744 #
face $-1 $-1 $511 $47 $-1 $656 reversed single #
loop $-1 $-1 $342 $336 #
plane-surface $-1 -48.904080324716944 0 0 1 0 0 0 0 -1 forward_v I I I I #
coedge $-1 $657 $339 $514 $658 forward $205 $-1 #
coedge $-1 $339 $657 $502 $659 forward $205 $-1 #
edge $-1 $505 -48.904080324716944 $660 48.904080324716944 $339 $661 forward 7 unknown #
coedge $-1 $341 $340 $349 $516 reversed $129 $-1 #
coedge $-1 $662 $342 $499 $659 reversed $496 $-1 #
coedge $-1 $342 $662 $344 $507 forward $496 $-1 #
vertex $-1 $507 $663 #
vertex $-1 $343 $664 #
straight-curve $-1 -48.904080324716944 13.722525022716255 4.2803304181935342 0 0 1 I I #
edge $-1 $512 -14.107049236024524 $504 -4.4460002698026617 $503 $665 forward 7 unknown #
straight-curve $-1 0 13.722525022716255 5.4896938410989744 -1 0 0 I I #
coedge $-1 $666 $346 $662 $667 reversed $511 $-1 #
coedge $-1 $346 $666 $348 $515 forward $511 $-1 #
loop $-1 $-1 $346 $495 #
vertex $-1 $347 $668 #
straight-curve $-1 0 23.383573988938114 5.4896938410989744 -1 0 0 I I #
coedge $-1 $349 $348 $498 $658 reversed $337 $-1 #
edge $-1 $669 -11.631627831675164 $351 -5.4896938410989744 $348 $670 forward 7 unknown #
edge $-1 $660 -7.3512974134816282 $350 -1.2093634229054402 $349 $671 forward 7 unknown #
point $-1 48.904080324716944 13.722525022716255 5.4896938410989744 #
point $-1 48.904080324716944 23.383573988938117 5.4896938410989744 #
plane-surface $-1 0 0 11.631627831675164 0 0 1 1 0 0 forward_v I I I I #
coedge $-1 $530 $529 $522 $672 forward $354 $-1 #
coedge $-1 $522 $356 $358 $526 reversed $213 $-1 #
coedge $-1 $356 $521 $520 $672 reversed $213 $-1 #
coedge $-1 $364 $359 $356 $524 forward $365 $-1 #
edge $-1 $527 -15.972255117699675 $673 -6.3242951736921498 $523 $674 forward 7 unknown #
coedge $-1 $358 $357 $530 $675 reversed $133 $-1 #
edge $-1 $676 -9.1551213131864128e-015 $527 12.414604850395673 $521 $677 forward 7 unknown #
vertex $-1 $360 $678 #
straight-curve $-1 -39.256120380709419 -4.4975040141230176 11.631627831675164 0 1 0 I I #
coedge $-1 $520 $361 $364 $534 reversed $354 $-1 #
coedge $-1 $361 $520 $525 $675 forward $354 $-1 #
vertex $-1 $362 $679 #
straight-curve $-1 -48.904080324716944 -11.949341686396256 39.915040091387993 0 0 1 I I #
straight-curve $-1 -48.904080324716936 -11.949341686396256 3.8188637554794553 -0.77714595512881146 0 -0.62932039886446345 I I #
edge $-1 $673 6.0406743700958145 $366 11.949341686396256 $529 $680 forward 7 unknown #
point $-1 -48.904080324716944 -11.949341686396256 11.631627831675164 #
point $-1 -39.256120380709419 -11.949341686396256 11.631627831675164 #
edge $-1 $681 1 $681 0 $369 $-1 forward 7 unknown #
vertex $-1 $370 $682 #
ellipse-curve $-1 -43.424573475249794 -10.261151024596129 6.9157375332092803 -0.62932039886446345 0 0.77714595512881146 0.38857297756440573 0 0.31466019943223172 1 I I #
point $-1 -43.691527375148766 -10.261151024596129 8.0399059930095369 #
edge $-1 $683 1 $683 0 $373 $-1 forward 7 unknown #
vertex $-1 $374 $684 #
ellipse-curve $-1 -43.424573475249794 -7.7288650318959391 6.9157375332092803 -0.62932039886446345 0 0.77714595512881146 0.38857297756440573 0 0.31466019943223172 1 I I #
point $-1 -43.691527375148766 -7.7288650318959391 8.0399059930095369 #
loop $-1 $-1 $385 $377 #
plane-surface $-1 -48.904080324716944 0 0 1 0 0 0 0 -1 forward_v I I I I #
coedge $-1 $548 $380 $382 $552 reversed $235 $-1 #
coedge $-1 $380 $547 $685 $686 reversed $235 $-1 #
coedge $-1 $388 $383 $380 $550 forward $378 $-1 #
edge $-1 $553 -15.972255117699675 $687 -6.3242951736921498 $549 $688 forward 7 unknown #
coedge $-1 $382 $381 $556 $689 reversed $147 $-1 #
edge $-1 $690 -9.1551213131864128e-015 $553 12.414604850395673 $547 $691 forward 7 unknown #
vertex $-1 $384 $692 #
straight-curve $-1 -39.256120380709419 -1.7763568394002505e-015 11.631627831675164 0 1 0 I I #
coedge $-1 $685 $385 $388 $560 reversed $545 $-1 #
coedge $-1 $385 $685 $551 $689 forward $545 $-1 #
vertex $-1 $386 $693 #
straight-curve $-1 -48.904080324716944 -2.9543336581502242 39.915040091387993 0 0 1 I I #
straight-curve $-1 -48.904080324716936 -2.9543336581502242 3.8188637554794553 -0.77714595512881146 0 -0.62932039886446345 I I #
edge $-1 $687 -2.9543336581502171 $389 2.9543336581502242 $555 $694 forward 7 unknown #
point $-1 -48.904080324716944 -2.9543336581502242 11.631627831675164 #
point $-1 -39.256120380709419 -2.9543336581502242 11.631627831675164 #
edge $-1 $695 1 $695 0 $392 $-1 forward 7 unknown #
vertex $-1 $393 $696 #
ellipse-curve $-1 -43.424573475249794 -1.2661429963500943 6.9157375332092803 -0.62932039886446345 0 0.77714595512881146 0.38857297756440573 0 0.31466019943223172 1 I I #
point $-1 -43.691527375148766 -1.2661429963500943 8.0399059930095369 #
edge $-1 $697 1 $697 0 $396 $-1 forward 7 unknown #
vertex $-1 $397 $698 #
ellipse-curve $-1 -43.424573475249794 1.2661429963500943 6.9157375332092803 -0.62932039886446345 0 0.77714595512881146 0.38857297756440573 0 0.31466019943223172 1 I I #
point $-1 -43.691527375148766 1.2661429963500943 8.0399059930095369 #
loop $-1 $-1 $408 $400 #
plane-surface $-1 -48.904080324716944 0 0 1 0 0 0 0 -1 forward_v I I I I #
coedge $-1 $574 $403 $405 $578 reversed $257 $-1 #
coedge $-1 $403 $573 $699 $700 reversed $257 $-1 #
coedge $-1 $411 $406 $403 $576 forward $401 $-1 #
edge $-1 $579 -15.972255117699675 $701 -6.3242951736921498 $575 $702 forward 7 unknown #
coedge $-1 $405 $404 $582 $703 reversed $161 $-1 #
edge $-1 $704 -9.1551213131864128e-015 $579 12.414604850395673 $573 $705 forward 7 unknown #
vertex $-1 $407 $706 #
straight-curve $-1 -39.256120380709419 4.4975040141230149 11.631627831675164 0 1 0 I I #
coedge $-1 $699 $408 $411 $586 reversed $571 $-1 #
coedge $-1 $408 $699 $577 $703 forward $571 $-1 #
vertex $-1 $409 $707 #
straight-curve $-1 -48.904080324716944 6.0406743700958092 39.915040091387993 0 0 1 I I #
straight-curve $-1 -48.904080324716936 6.0406743700958092 3.8188637554794553 -0.77714595512881146 0 -0.62932039886446345 I I #
edge $-1 $701 -11.94934168639625 $412 -6.0406743700958092 $581 $708 forward 7 unknown #
point $-1 -48.904080324716944 6.0406743700958092 11.631627831675164 #
point $-1 -39.256120380709419 6.0406743700958092 11.631627831675164 #
edge $-1 $709 1 $709 0 $415 $-1 forward 7 unknown #
vertex $-1 $416 $710 #
ellipse-curve $-1 -43.424573475249794 7.7288650318959391 6.9157375332092803 -0.62932039886446345 0 0.77714595512881146 0.38857297756440573 0 0.31466019943223172 1 I I #
point $-1 -43.691527375148766 7.7288650318959391 8.0399059930095369 #
edge $-1 $711 1 $711 0 $419 $-1 forward 7 unknown #
vertex $-1 $420 $712 #
ellipse-curve $-1 -43.424573475249794 10.261151024596128 6.9157375332092803 -0.62932039886446345 0 0.77714595512881146 0.38857297756440573 0 0.31466019943223172 1 I I #
point $-1 -43.691527375148766 10.261151024596128 8.0399059930095369 #
loop $-1 $-1 $431 $423 #
plane-surface $-1 48.904080324716944 0 0 -1 0 0 0 0 1 forward_v I I I I #
coedge $-1 $600 $426 $428 $604 reversed $279 $-1 #
coedge $-1 $426 $599 $713 $714 reversed $279 $-1 #
coedge $-1 $434 $429 $426 $602 forward $424 $-1 #
edge $-1 $605 19.178236827529318 $715 26.865716983989074 $601 $716 forward 7 unknown #
coedge $-1 $428 $427 $608 $717 reversed $175 $-1 #
edge $-1 $718 -97.808160649433887 $605 -87.296857816182893 $599 $719 forward 7 unknown #
vertex $-1 $430 $720 #
straight-curve $-1 41.216600168257187 -3.1165985804481569 11.631627831675161 0 -1 0 I I #
coedge $-1 $713 $431 $434 $612 reversed $597 $-1 #
coedge $-1 $431 $713 $603 $717 forward $597 $-1 #
vertex $-1 $432 $721 #
straight-curve $-1 48.904080324716944 -2.1645290379773012 71.350151004368541 0 0 1 I I #
straight-curve $-1 -22.62827927525845 -2.1645290379773012 71.167942408761689 0.7313536940579346 0 -0.68199836817093118 I I #
edge $-1 $715 -10.301865283815326 $435 -2.1645290379773012 $607 $722 forward 7 unknown #
point $-1 48.904080324716944 -2.1645290379773012 11.631627831675164 #
point $-1 41.216600168257187 -2.1645290379773012 11.631627831675161 #
edge $-1 $723 1 $723 0 $438 $-1 forward 7 unknown #
vertex $-1 $439 $724 #
ellipse-curve $-1 43.107485884110098 -7.9769120707187469 5.9531022749623181 0.68199836817093118 0 0.7313536940579346 0.7313536940579346 0 -0.68199836817093118 1 I I #
point $-1 45.791693940544988 -7.9769120707187469 7.3652837736903942 #
edge $-1 $725 1 $725 0 $442 $-1 forward 7 unknown #
vertex $-1 $443 $726 #
ellipse-curve $-1 43.107485884110098 -4.4894822510738805 5.9531022749623181 0.68199836817093118 0 0.7313536940579346 0.7313536940579346 0 -0.68199836817093118 1 I I #
point $-1 45.791693940544988 -4.4894822510738805 7.3652837736903942 #
plane-surface $-1 48.904080324716944 0 0 -1 0 0 0 0 1 forward_v I I I I #
coedge $-1 $451 $449 $453 $628 reversed $301 $-1 #
edge $-1 $464 -11.631627831675164 $630 11.631627831675164 $463 $727 forward 7 unknown #
vertex $-1 $628 $728 #
straight-curve $-1 -48.904080324716944 -23.383573988938114 0 0 0 -1 I I #
edge $-1 $626 -23.383573988938114 $630 23.383573988938114 $624 $729 forward 7 unknown #
straight-curve $-1 0 -23.383573988938114 -11.631627831675164 -1 0 0 I I #
vertex $-1 $456 $730 #
straight-curve $-1 0 23.383573988938114 -11.631627831675164 1 0 0 I I #
point $-1 48.904080324716944 23.383573988938114 -11.631627831675164 #
point $-1 48.904080324716944 -23.383573988938114 -11.631627831675164 #
straight-curve $-1 -48.904080324716944 0 11.631627831675164 0 -1 0 I I #
point $-1 -48.904080324716944 23.383573988938114 11.631627831675164 #
point $-1 -48.904080324716944 -23.383573988938114 11.631627831675164 #
straight-curve $-1 48.904080324716944 -23.383573988938114 0 0 0 -1 I I #
straight-curve $-1 48.904080324716944 23.383573988938114 0 0 0 -1 I I #
plane-surface $-1 48.904080324716944 0 0 -1 0 0 0 0 1 forward_v I I I I #
coedge $-1 $477 $476 $487 $651 reversed $197 $-1 #
coedge $-1 $731 $480 $477 $642 forward $474 $-1 #
edge $-1 $643 13.722525022716253 $732 23.383573988938114 $477 $733 forward 7 unknown #
vertex $-1 $642 $734 #
straight-curve $-1 -48.904080324716944 -13.722525022716253 4.2803304181935342 0 0 -1 I I #
coedge $-1 $480 $731 $482 $647 forward $474 $-1 #
straight-curve $-1 0 -13.722525022716253 11.631627831675164 -1 0 0 I I #
edge $-1 $654 -23.383573988938114 $483 -13.722525022716253 $482 $735 forward 7 unknown #
point $-1 48.904080324716944 -13.722525022716253 11.631627831675162 #
straight-curve $-1 -48.904080324716944 -9.2765247529135912 5.4896938410989744 0 -1 0 I I #
coedge $-1 $487 $486 $731 $736 reversed $320 $-1 #
edge $-1 $732 -11.631627831675164 $488 -5.4896938410989744 $640 $737 forward 7 unknown #
point $-1 -48.904080324716944 -23.38357398893811 5.4896938410989744 #
point $-1 -48.904080324716944 -13.722525022716253 5.4896938410989744 #
vertex $-1 $647 $738 #
straight-curve $-1 48.904080324716944 -23.383573988938114 0 0 0 -1 I I #
plane-surface $-1 0 23.383573988938114 0 0 -1 0 0 0 -1 forward_v I I I I #
coedge $-1 $499 $498 $666 $739 forward $205 $-1 #
edge $-1 $660 13.722525022716255 $669 23.383573988938114 $514 $740 forward 7 unknown #
edge $-1 $741 -23.383573988938114 $505 -13.722525022716255 $502 $742 forward 7 unknown #
vertex $-1 $658 $743 #
straight-curve $-1 0 13.722525022716255 11.631627831675164 1 0 0 I I #
coedge $-1 $503 $502 $509 $667 forward $496 $-1 #
point $-1 -48.904080324716944 13.722525022716255 5.4896938410989744 #
point $-1 -48.904080324716944 13.722525022716255 11.631627831675162 #
straight-curve $-1 -48.904080324716944 9.276524752913593 5.4896938410989744 0 -1 0 I I #
coedge $-1 $510 $509 $657 $739 reversed $511 $-1 #
edge $-1 $741 -11.631627831675164 $512 -5.4896938410989744 $509 $744 forward 7 unknown #
point $-1 -48.904080324716944 23.383573988938117 5.4896938410989744 #
vertex $-1 $658 $745 #
straight-curve $-1 48.904080324716944 23.383573988938114 0 0 0 -1 I I #
straight-curve $-1 48.904080324716944 13.722525022716255 4.2803304181935342 0 0 -1 I I #
edge $-1 $673 28.283412259712829 $676 36.096176335908545 $520 $746 forward 7 unknown #
vertex $-1 $534 $747 #
straight-curve $-1 -55.228375498409093 -6.0406743700958145 11.631627831675161 -1 0 0 I I #
edge $-1 $676 1.5431703559727969 $531 7.4518376722732382 $530 $748 forward 7 unknown #
vertex $-1 $675 $749 #
straight-curve $-1 -48.904080324716936 -6.0406743700958145 3.8188637554794553 0.77714595512881146 0 0.62932039886446345 I I #
point $-1 -39.256120380709419 -6.0406743700958145 11.631627831675164 #
point $-1 -48.904080324716944 -11.949341686396256 3.8188637554794496 #
straight-curve $-1 -48.904080324716944 0 11.631627831675164 0 -1 0 I I #
vertex $-1 $537 $750 #
point $-1 -43.036000497685393 -10.261151024596129 7.2303977326415119 #
vertex $-1 $541 $751 #
point $-1 -43.036000497685393 -7.7288650318959391 7.2303977326415119 #
coedge $-1 $556 $555 $548 $686 forward $545 $-1 #
edge $-1 $687 28.283412259712829 $690 36.096176335908545 $685 $752 forward 7 unknown #
vertex $-1 $560 $753 #
straight-curve $-1 -55.228375498409093 2.9543336581502171 11.631627831675161 -1 0 0 I I #
edge $-1 $690 -2.9543336581502189 $557 2.9543336581502224 $556 $754 forward 7 unknown #
vertex $-1 $689 $755 #
straight-curve $-1 -48.904080324716936 2.9543336581502171 3.8188637554794553 0.77714595512881146 0 0.62932039886446345 I I #
point $-1 -39.256120380709419 2.9543336581502171 11.631627831675164 #
point $-1 -48.904080324716944 -2.9543336581502242 3.8188637554794496 #
straight-curve $-1 -48.904080324716944 0 11.631627831675164 0 -1 0 I I #
vertex $-1 $563 $756 #
point $-1 -43.036000497685393 -1.2661429963500943 7.2303977326415119 #
vertex $-1 $567 $757 #
point $-1 -43.036000497685393 1.2661429963500943 7.2303977326415119 #
coedge $-1 $582 $581 $574 $700 forward $571 $-1 #
edge $-1 $701 28.283412259712829 $704 36.096176335908545 $699 $758 forward 7 unknown #
vertex $-1 $586 $759 #
straight-curve $-1 -55.228375498409093 11.94934168639625 11.631627831675161 -1 0 0 I I #
edge $-1 $704 -7.4518376722732356 $583 -1.5431703559727943 $582 $760 forward 7 unknown #
vertex $-1 $703 $761 #
straight-curve $-1 -48.904080324716936 11.94934168639625 3.8188637554794553 0.77714595512881146 0 0.62932039886446345 I I #
point $-1 -39.256120380709419 11.94934168639625 11.631627831675164 #
point $-1 -48.904080324716944 6.0406743700958092 3.8188637554794496 #
straight-curve $-1 -48.904080324716944 0 11.631627831675164 0 -1 0 I I #
vertex $-1 $589 $762 #
point $-1 -43.036000497685393 7.7288650318959391 7.2303977326415119 #
vertex $-1 $593 $763 #
point $-1 -43.036000497685393 10.261151024596128 7.2303977326415119 #
coedge $-1 $608 $607 $600 $714 forward $597 $-1 #
edge $-1 $715 59.718523172693381 $718 66.887214552321041 $713 $764 forward 7 unknown #
vertex $-1 $612 $765 #
straight-curve $-1 22.038363340727869 -10.301865283815326 11.631627831675161 1 0 0 I I #
edge $-1 $718 -7.1852667033671693 $609 0.95206954247085562 $608 $766 forward 7 unknown #
vertex $-1 $717 $767 #
straight-curve $-1 -22.62827927525845 -10.301865283815326 71.167942408761689 -0.7313536940579346 0 0.68199836817093118 I I #
point $-1 41.216600168257187 -10.301865283815326 11.631627831675161 #
point $-1 48.904080324716944 -2.1645290379773012 4.4629364520475008 #
straight-curve $-1 48.904080324716944 0 11.631627831675164 0 1 0 I I #
vertex $-1 $615 $768 #
point $-1 43.838839578168027 -7.9769120707187469 5.271103906791387 #
vertex $-1 $619 $769 #
point $-1 43.838839578168027 -4.4894822510738805 5.271103906791387 #
straight-curve $-1 -48.904080324716944 23.383573988938114 0 0 0 -1 I I #
point $-1 -48.904080324716944 -23.383573988938114 -11.631627831675164 #
straight-curve $-1 -48.904080324716944 0 -11.631627831675164 0 1 0 I I #
point $-1 -48.904080324716944 23.383573988938114 -11.631627831675164 #
coedge $-1 $645 $641 $650 $736 forward $474 $-1 #
vertex $-1 $642 $770 #
straight-curve $-1 -48.904080324716944 0 11.631627831675164 0 -1 0 I I #
point $-1 -48.904080324716944 -13.722525022716253 11.631627831675162 #
straight-curve $-1 48.904080324716944 0 11.631627831675164 0 1 0 I I #
edge $-1 $732 -48.904080324716944 $654 48.904080324716944 $650 $771 forward 7 unknown #
straight-curve $-1 -48.904080324716944 -23.383573988938114 0 0 0 -1 I I #
point $-1 48.904080324716944 -23.383573988938114 11.631627831675164 #
edge $-1 $669 -48.904080324716944 $741 48.904080324716944 $666 $772 forward 7 unknown #
straight-curve $-1 48.904080324716944 0 11.631627831675164 0 1 0 I I #
vertex $-1 $739 $773 #
straight-curve $-1 -48.904080324716944 0 11.631627831675164 0 -1 0 I I #
point $-1 48.904080324716944 13.722525022716255 11.631627831675162 #
straight-curve $-1 -48.904080324716944 23.383573988938114 0 0 0 -1 I I #
point $-1 48.904080324716944 23.383573988938114 11.631627831675164 #
straight-curve $-1 -48.904080324716944 -6.0406743700958145 39.915040091387993 0 0 -1 I I #
point $-1 -48.904080324716944 -6.0406743700958145 11.631627831675164 #
straight-curve $-1 -48.904080324716944 -4.4975040141230176 3.8188637554794518 0 -1 0 I I #
point $-1 -48.904080324716944 -6.0406743700958145 3.8188637554794496 #
point $-1 -43.109913275817568 -10.261151024596129 6.5271645556448741 #
point $-1 -43.109913275817568 -7.7288650318959391 6.5271645556448741 #
straight-curve $-1 -48.904080324716944 2.9543336581502171 39.915040091387993 0 0 -1 I I #
point $-1 -48.904080324716944 2.9543336581502171 11.631627831675164 #
straight-curve $-1 -48.904080324716944 -1.7763568394002505e-015 3.8188637554794518 0 -1 0 I I #
point $-1 -48.904080324716944 2.9543336581502171 3.8188637554794496 #
point $-1 -43.109913275817568 -1.2661429963500943 6.5271645556448741 #
point $-1 -43.109913275817568 1.2661429963500943 6.5271645556448741 #
straight-curve $-1 -48.904080324716944 11.94934168639625 39.915040091387993 0 0 -1 I I #
point $-1 -48.904080324716944 11.94934168639625 11.631627831675164 #
straight-curve $-1 -48.904080324716944 4.4975040141230149 3.8188637554794518 0 -1 0 I I #
point $-1 -48.904080324716944 11.94934168639625 3.8188637554794496 #
point $-1 -43.109913275817568 7.7288650318959391 6.5271645556448741 #
point $-1 -43.109913275817568 10.261151024596128 6.5271645556448741 #
straight-curve $-1 48.904080324716944 -10.301865283815326 71.350151004368541 0 0 -1 I I #
point $-1 48.904080324716944 -10.301865283815326 11.631627831675164 #
straight-curve $-1 48.904080324716944 -3.1165985804481569 4.4629364520474866 0 1 0 I I #
point $-1 48.904080324716944 -10.301865283815326 4.4629364520475008 #
point $-1 42.42548751593916 -7.9769120707187469 5.2217485809043831 #
point $-1 42.42548751593916 -4.4894822510738805 5.2217485809043831 #
point $-1 -48.904080324716944 -23.383573988938114 11.631627831675164 #
straight-curve $-1 0 -23.383573988938114 11.631627831675164 1 0 0 I I #
straight-curve $-1 0 23.383573988938114 11.631627831675164 -1 0 0 I I #
point $-1 -48.904080324716944 23.383573988938114 11.631627831675164 #
End-of-ACIS-data 