500 0 11 0           
7 Unknown 11 ACIS 5.0 NT 24 Fri Mar 26 02:44:24 1999 
-1 9.9999999999999995e-007 1e-010 
body $-1 $11 $-1 $12 #
body $-1 $13 $-1 $14 #
body $-1 $15 $-1 $16 #
body $-1 $17 $-1 $18 #
body $-1 $19 $-1 $20 #
body $-1 $21 $-1 $22 #
body $-1 $23 $-1 $24 #
body $-1 $25 $-1 $26 #
body $-1 $27 $-1 $28 #
body $-1 $29 $-1 $30 #
body $-1 $31 $-1 $32 #
lump $-1 $-1 $33 $0 #
transform $-1 1 0 0 0 1 0 0 0 1 75.634632404553358 36.954259191990033 13.97759018444429 1 rotate no_reflect no_shear #
lump $-1 $-1 $34 $1 #
transform $-1 1 0 0 0 0.61566146476048833 0.78801076186113728 0 -0.78801076186113728 0.61566146476048833 61.862767752711356 -119.2018086083983 108.40343345186237 1 rotate no_reflect no_shear #
lump $-1 $-1 $35 $2 #
transform $-1 1 0 0 0 -0.61566146476048833 -0.78801076186113728 0 0.78801076186113728 -0.61566146476048833 53.599648961606157 10.450338464906711 17.319994682491249 1 rotate no_reflect no_shear #
lump $-1 $-1 $36 $3 #
transform $-1 1 0 0 0 -0.61566146476048833 -0.78801076186113728 0 0.78801076186113728 -0.61566146476048833 61.862767752711356 10.450338464906711 17.319994682491249 1 rotate no_reflect no_shear #
lump $-1 $-1 $37 $4 #
transform $-1 1 0 0 0 -0.61566146476048833 -0.78801076186113728 0 0.78801076186113728 -0.61566146476048833 70.125886543816563 10.450338464906711 17.319994682491249 1 rotate no_reflect no_shear #
lump $-1 $-1 $38 $5 #
transform $-1 1 0 0 0 0.61566146476048833 0.78801076186113728 0 -0.78801076186113728 0.61566146476048833 89.406497056395352 -119.2018086083983 108.40343345186237 1 rotate no_reflect no_shear #
lump $-1 $-1 $39 $6 #
transform $-1 1 0 0 0 -0.61566146476048833 -0.78801076186113728 0 0.78801076186113728 -0.61566146476048833 81.143378265290153 10.450338464906711 17.319994682491249 1 rotate no_reflect no_shear #
lump $-1 $-1 $40 $7 #
transform $-1 1 0 0 0 -0.61566146476048833 -0.78801076186113728 0 0.78801076186113728 -0.61566146476048833 89.406497056395352 10.450338464906711 17.319994682491249 1 rotate no_reflect no_shear #
lump $-1 $-1 $41 $8 #
transform $-1 1 0 0 0 -0.61566146476048833 -0.78801076186113728 0 0.78801076186113728 -0.61566146476048833 97.669615847500566 10.450338464906711 17.319994682491249 1 rotate no_reflect no_shear #
lump $-1 $-1 $42 $9 #
transform $-1 1 0 0 0 0.82903756765294845 -0.55919291073839883 0 0.55919291073839883 0.82903756765294845 130.01045561135606 97.22428056795404 183.86781838885219 1 rotate no_reflect no_shear #
lump $-1 $-1 $43 $10 #
transform $-1 1 0 0 0 -0.82903756765294845 0.55919291073839883 0 -0.55919291073839883 -0.82903756765294845 130.01045561135604 58.934669848916762 12.239273263066963 1 rotate no_reflect no_shear #
shell $-1 $-1 $-1 $44 $-1 $11 #
shell $-1 $-1 $-1 $45 $-1 $13 #
shell $-1 $-1 $-1 $46 $-1 $15 #
shell $-1 $-1 $-1 $47 $-1 $17 #
shell $-1 $-1 $-1 $48 $-1 $19 #
shell $-1 $-1 $-1 $49 $-1 $21 #
shell $-1 $-1 $-1 $50 $-1 $23 #
shell $-1 $-1 $-1 $51 $-1 $25 #
shell $-1 $-1 $-1 $52 $-1 $27 #
shell $-1 $-1 $-1 $53 $-1 $29 #
shell $-1 $-1 $-1 $54 $-1 $31 #
face $-1 $55 $56 $33 $-1 $57 forward single #
face $-1 $58 $59 $34 $-1 $60 forward single #
face $-1 $61 $62 $35 $-1 $63 forward single #
face $-1 $64 $65 $36 $-1 $66 forward single #
face $-1 $67 $68 $37 $-1 $69 forward single #
face $-1 $70 $71 $38 $-1 $72 forward single #
face $-1 $73 $74 $39 $-1 $75 forward single #
face $-1 $76 $77 $40 $-1 $78 forward single #
face $-1 $79 $80 $41 $-1 $81 forward single #
face $-1 $82 $83 $42 $-1 $84 forward single #
face $-1 $85 $86 $43 $-1 $87 forward single #
face $-1 $88 $89 $33 $-1 $90 reversed single #
loop $-1 $-1 $91 $44 #
plane-surface $-1 0 0 13.97759018444429 0 0 1 1 0 0 forward_v I I I I #
face $-1 $92 $93 $34 $-1 $94 reversed single #
loop $-1 $-1 $95 $45 #
plane-surface $-1 0 0 151.26926480910672 0 0 1 1 0 0 forward_v I I I I #
face $-1 $96 $97 $35 $-1 $98 forward single #
loop $-1 $99 $100 $46 #
cone-surface $-1 0 0 -4.112292855616932 0 0 1 2.5 0 0 1 I I 0 1 2.5 forward I I I I #
face $-1 $101 $102 $36 $-1 $103 forward single #
loop $-1 $104 $105 $47 #
cone-surface $-1 0 0 -4.112292855616932 0 0 1 2.5 0 0 1 I I 0 1 2.5 forward I I I I #
face $-1 $106 $107 $37 $-1 $108 forward single #
loop $-1 $109 $110 $48 #
cone-surface $-1 0 0 -4.112292855616932 0 0 1 2.5 0 0 1 I I 0 1 2.5 forward I I I I #
face $-1 $111 $112 $38 $-1 $113 reversed single #
loop $-1 $-1 $114 $49 #
plane-surface $-1 0 0 151.26926480910672 0 0 1 1 0 0 forward_v I I I I #
face $-1 $115 $116 $39 $-1 $117 forward single #
loop $-1 $118 $119 $50 #
cone-surface $-1 0 0 -4.112292855616932 0 0 1 2.5 0 0 1 I I 0 1 2.5 forward I I I I #
face $-1 $120 $121 $40 $-1 $122 forward single #
loop $-1 $123 $124 $51 #
cone-surface $-1 0 0 -4.112292855616932 0 0 1 2.5 0 0 1 I I 0 1 2.5 forward I I I I #
face $-1 $125 $126 $41 $-1 $127 forward single #
loop $-1 $128 $129 $52 #
cone-surface $-1 0 0 -4.112292855616932 0 0 1 2.5 0 0 1 I I 0 1 2.5 forward I I I I #
face $-1 $130 $131 $42 $-1 $132 reversed single #
loop $-1 $-1 $133 $53 #
plane-surface $-1 0 0 151.26926480910672 0 0 1 1 0 0 forward_v I I I I #
face $-1 $134 $135 $43 $-1 $136 forward single #
loop $-1 $137 $138 $54 #
cone-surface $-1 0 0 -6.9642628254036083 0 0 1 3 0 0 1 I I 0 1 3 forward I I I I #
face $-1 $139 $140 $33 $-1 $141 reversed single #
loop $-1 $-1 $142 $55 #
plane-surface $-1 0 0 -13.97759018444429 0 0 1 1 0 0 forward_v I I I I #
coedge $-1 $143 $144 $145 $146 forward $56 $-1 #
face $-1 $147 $148 $34 $-1 $149 reversed single #
loop $-1 $-1 $150 $58 #
plane-surface $-1 0 0 -151.26926480910672 0 0 1 1 0 0 forward_v I I I I #
coedge $-1 $151 $152 $153 $154 forward $59 $-1 #
face $-1 $-1 $155 $35 $-1 $156 forward single #
loop $-1 $-1 $157 $61 #
plane-surface $-1 0 0 -6.9745857112338632 0 0 -1 -1 0 0 forward_v I I I I #
loop $-1 $-1 $158 $46 #
coedge $-1 $100 $100 $157 $159 reversed $62 $-1 #
face $-1 $-1 $160 $36 $-1 $161 forward single #
loop $-1 $-1 $162 $64 #
plane-surface $-1 0 0 -6.9745857112338632 0 0 -1 -1 0 0 forward_v I I I I #
loop $-1 $-1 $163 $47 #
coedge $-1 $105 $105 $162 $164 reversed $65 $-1 #
face $-1 $-1 $165 $37 $-1 $166 forward single #
loop $-1 $-1 $167 $67 #
plane-surface $-1 0 0 -6.9745857112338632 0 0 -1 -1 0 0 forward_v I I I I #
loop $-1 $-1 $168 $48 #
coedge $-1 $110 $110 $167 $169 reversed $68 $-1 #
face $-1 $170 $171 $38 $-1 $172 reversed single #
loop $-1 $-1 $173 $70 #
plane-surface $-1 0 0 -151.26926480910672 0 0 1 1 0 0 forward_v I I I I #
coedge $-1 $174 $175 $176 $177 forward $71 $-1 #
face $-1 $-1 $178 $39 $-1 $179 forward single #
loop $-1 $-1 $180 $73 #
plane-surface $-1 0 0 -6.9745857112338632 0 0 -1 -1 0 0 forward_v I I I I #
loop $-1 $-1 $181 $50 #
coedge $-1 $119 $119 $180 $182 reversed $74 $-1 #
face $-1 $-1 $183 $40 $-1 $184 forward single #
loop $-1 $-1 $185 $76 #
plane-surface $-1 0 0 -6.9745857112338632 0 0 -1 -1 0 0 forward_v I I I I #
loop $-1 $-1 $186 $51 #
coedge $-1 $124 $124 $185 $187 reversed $77 $-1 #
face $-1 $-1 $188 $41 $-1 $189 forward single #
loop $-1 $-1 $190 $79 #
plane-surface $-1 0 0 -6.9745857112338632 0 0 -1 -1 0 0 forward_v I I I I #
loop $-1 $-1 $191 $52 #
coedge $-1 $129 $129 $190 $192 reversed $80 $-1 #
face $-1 $193 $194 $42 $-1 $195 reversed single #
loop $-1 $-1 $196 $82 #
plane-surface $-1 0 0 -151.26926480910672 0 0 1 1 0 0 forward_v I I I I #
coedge $-1 $197 $198 $199 $200 forward $83 $-1 #
face $-1 $-1 $201 $43 $-1 $202 forward single #
loop $-1 $-1 $203 $85 #
plane-surface $-1 0 0 -12.428525650807217 0 0 -1 -1 0 0 forward_v I I I I #
loop $-1 $-1 $204 $54 #
coedge $-1 $138 $138 $203 $205 reversed $86 $-1 #
face $-1 $206 $207 $33 $-1 $208 reversed single #
loop $-1 $-1 $209 $88 #
plane-surface $-1 0 -36.954259191990033 0 0 1 0 0 0 1 forward_v I I I I #
coedge $-1 $210 $211 $212 $213 forward $89 $-1 #
coedge $-1 $214 $91 $215 $216 forward $56 $-1 #
coedge $-1 $91 $214 $217 $218 forward $56 $-1 #
coedge $-1 $219 $220 $91 $146 reversed $221 $-1 #
edge $-1 $222 -36.954259191990033 $223 36.954259191990033 $145 $224 forward 7 unknown #
face $-1 $225 $226 $34 $-1 $227 reversed single #
loop $-1 $-1 $228 $92 #
plane-surface $-1 0 -302.53852961821343 0 0 1 0 0 0 1 forward_v I I I I #
coedge $-1 $229 $230 $231 $232 forward $93 $-1 #
coedge $-1 $233 $95 $234 $235 forward $59 $-1 #
coedge $-1 $95 $233 $236 $237 forward $59 $-1 #
coedge $-1 $238 $239 $95 $154 reversed $240 $-1 #
edge $-1 $241 -302.53852961821343 $242 302.53852961821343 $153 $243 forward 7 unknown #
loop $-1 $244 $245 $96 #
cone-surface $-1 0 0 0 0 0 1 1.25 0 0 1 I I -0.70710678118654746 0.70710678118654746 1.25 forward I I I I #
coedge $-1 $157 $157 $100 $159 forward $97 $-1 #
coedge $-1 $158 $158 $245 $246 forward $99 $-1 #
edge $-1 $247 0 $247 6.2831853071796004 $157 $248 forward 7 unknown #
loop $-1 $249 $250 $101 #
cone-surface $-1 0 0 0 0 0 1 1.25 0 0 1 I I -0.70710678118654746 0.70710678118654746 1.25 forward I I I I #
coedge $-1 $162 $162 $105 $164 forward $102 $-1 #
coedge $-1 $163 $163 $250 $251 forward $104 $-1 #
edge $-1 $252 0 $252 6.2831853071796004 $162 $253 forward 7 unknown #
loop $-1 $254 $255 $106 #
cone-surface $-1 0 0 0 0 0 1 1.25 0 0 1 I I -0.70710678118654746 0.70710678118654746 1.25 forward I I I I #
coedge $-1 $167 $167 $110 $169 forward $107 $-1 #
coedge $-1 $168 $168 $255 $256 forward $109 $-1 #
edge $-1 $257 0 $257 6.2831853071796004 $167 $258 forward 7 unknown #
face $-1 $259 $260 $38 $-1 $261 reversed single #
loop $-1 $-1 $262 $111 #
plane-surface $-1 0 -302.53852961821343 0 0 1 0 0 0 1 forward_v I I I I #
coedge $-1 $263 $264 $265 $266 forward $112 $-1 #
coedge $-1 $267 $114 $268 $269 forward $71 $-1 #
coedge $-1 $114 $267 $270 $271 forward $71 $-1 #
coedge $-1 $272 $273 $114 $177 reversed $274 $-1 #
edge $-1 $275 -302.53852961821343 $276 302.53852961821343 $176 $277 forward 7 unknown #
loop $-1 $278 $279 $115 #
cone-surface $-1 0 0 0 0 0 1 1.25 0 0 1 I I -0.70710678118654746 0.70710678118654746 1.25 forward I I I I #
coedge $-1 $180 $180 $119 $182 forward $116 $-1 #
coedge $-1 $181 $181 $279 $280 forward $118 $-1 #
edge $-1 $281 0 $281 6.2831853071796004 $180 $282 forward 7 unknown #
loop $-1 $283 $284 $120 #
cone-surface $-1 0 0 0 0 0 1 1.25 0 0 1 I I -0.70710678118654746 0.70710678118654746 1.25 forward I I I I #
coedge $-1 $185 $185 $124 $187 forward $121 $-1 #
coedge $-1 $186 $186 $284 $285 forward $123 $-1 #
edge $-1 $286 0 $286 6.2831853071796004 $185 $287 forward 7 unknown #
loop $-1 $288 $289 $125 #
cone-surface $-1 0 0 0 0 0 1 1.25 0 0 1 I I -0.70710678118654746 0.70710678118654746 1.25 forward I I I I #
coedge $-1 $190 $190 $129 $192 forward $126 $-1 #
coedge $-1 $191 $191 $289 $290 forward $128 $-1 #
edge $-1 $291 0 $291 6.2831853071796004 $190 $292 forward 7 unknown #
face $-1 $293 $294 $42 $-1 $295 reversed single #
loop $-1 $-1 $296 $130 #
plane-surface $-1 0 -302.53852961821343 0 0 1 0 0 0 1 forward_v I I I I #
coedge $-1 $297 $298 $299 $300 forward $131 $-1 #
coedge $-1 $301 $133 $302 $303 forward $83 $-1 #
coedge $-1 $133 $301 $304 $305 forward $83 $-1 #
coedge $-1 $306 $307 $133 $200 reversed $308 $-1 #
edge $-1 $309 -302.53852961821343 $310 302.53852961821343 $199 $311 forward 7 unknown #
loop $-1 $312 $313 $134 #
cone-surface $-1 0 0 0 0 0 1 1.5 0 0 1 I I -0.70710678118654757 0.70710678118654757 1.5 forward I I I I #
coedge $-1 $203 $203 $138 $205 forward $135 $-1 #
coedge $-1 $204 $204 $313 $314 forward $137 $-1 #
edge $-1 $315 0 $315 6.2831853071796004 $203 $316 forward 7 unknown #
face $-1 $317 $318 $33 $-1 $319 reversed single #
loop $-1 $-1 $320 $139 #
plane-surface $-1 -75.634632404553358 0 0 1 0 0 0 0 -1 forward_v I I I I #
coedge $-1 $321 $217 $322 $323 forward $140 $-1 #
coedge $-1 $324 $142 $321 $325 forward $89 $-1 #
coedge $-1 $142 $324 $326 $327 forward $89 $-1 #
coedge $-1 $220 $219 $142 $213 reversed $221 $-1 #
edge $-1 $328 -36.954259191990033 $329 36.954259191990033 $212 $330 forward 7 unknown #
coedge $-1 $144 $143 $331 $332 forward $56 $-1 #
coedge $-1 $333 $334 $143 $216 reversed $318 $-1 #
edge $-1 $223 -75.634632404553358 $335 75.634632404553358 $215 $336 forward 7 unknown #
coedge $-1 $209 $337 $144 $218 reversed $140 $-1 #
edge $-1 $338 -75.634632404553358 $222 75.634632404553358 $217 $339 forward 7 unknown #
coedge $-1 $212 $145 $337 $340 forward $221 $-1 #
coedge $-1 $145 $212 $333 $341 reversed $221 $-1 #
loop $-1 $-1 $219 $317 #
vertex $-1 $146 $342 #
vertex $-1 $146 $343 #
straight-curve $-1 75.634632404553358 0 13.97759018444429 0 1 0 I I #
face $-1 $344 $345 $34 $-1 $346 reversed single #
loop $-1 $-1 $347 $147 #
plane-surface $-1 -13.771864651842002 0 0 1 0 0 0 0 -1 forward_v I I I I #
coedge $-1 $348 $236 $349 $350 forward $148 $-1 #
coedge $-1 $351 $150 $348 $352 forward $93 $-1 #
coedge $-1 $150 $351 $353 $354 forward $93 $-1 #
coedge $-1 $239 $238 $150 $232 reversed $240 $-1 #
edge $-1 $355 -302.53852961821343 $356 302.53852961821343 $231 $357 forward 7 unknown #
coedge $-1 $152 $151 $358 $359 forward $59 $-1 #
coedge $-1 $360 $361 $151 $235 reversed $345 $-1 #
edge $-1 $242 -13.771864651842002 $362 13.771864651842002 $234 $363 forward 7 unknown #
coedge $-1 $228 $364 $152 $237 reversed $148 $-1 #
edge $-1 $365 -13.771864651842002 $241 13.771864651842002 $236 $366 forward 7 unknown #
coedge $-1 $231 $153 $364 $367 forward $240 $-1 #
coedge $-1 $153 $231 $360 $368 reversed $240 $-1 #
loop $-1 $-1 $238 $344 #
vertex $-1 $154 $369 #
vertex $-1 $154 $370 #
straight-curve $-1 13.771864651842002 0 151.26926480910672 0 1 0 I I #
loop $-1 $-1 $371 $96 #
coedge $-1 $245 $245 $158 $246 reversed $155 $-1 #
edge $-1 $372 0 $372 6.2831853071796004 $245 $373 forward 7 unknown #
vertex $-1 $159 $374 #
ellipse-curve $-1 0 0 -6.9745857112338632 0 0 -1 2.5 0 0 1 I I #
loop $-1 $-1 $375 $101 #
coedge $-1 $250 $250 $163 $251 reversed $160 $-1 #
edge $-1 $376 0 $376 6.2831853071796004 $250 $377 forward 7 unknown #
vertex $-1 $164 $378 #
ellipse-curve $-1 0 0 -6.9745857112338632 0 0 -1 2.5 0 0 1 I I #
loop $-1 $-1 $379 $106 #
coedge $-1 $255 $255 $168 $256 reversed $165 $-1 #
edge $-1 $380 0 $380 6.2831853071796004 $255 $381 forward 7 unknown #
vertex $-1 $169 $382 #
ellipse-curve $-1 0 0 -6.9745857112338632 0 0 -1 2.5 0 0 1 I I #
face $-1 $383 $384 $38 $-1 $385 reversed single #
loop $-1 $-1 $386 $170 #
plane-surface $-1 -13.771864651842002 0 0 1 0 0 0 0 -1 forward_v I I I I #
coedge $-1 $387 $270 $388 $389 forward $171 $-1 #
coedge $-1 $390 $173 $387 $391 forward $112 $-1 #
coedge $-1 $173 $390 $392 $393 forward $112 $-1 #
coedge $-1 $273 $272 $173 $266 reversed $274 $-1 #
edge $-1 $394 -302.53852961821343 $395 302.53852961821343 $265 $396 forward 7 unknown #
coedge $-1 $175 $174 $397 $398 forward $71 $-1 #
coedge $-1 $399 $400 $174 $269 reversed $384 $-1 #
edge $-1 $276 -13.771864651842002 $401 13.771864651842002 $268 $402 forward 7 unknown #
coedge $-1 $262 $403 $175 $271 reversed $171 $-1 #
edge $-1 $404 -13.771864651842002 $275 13.771864651842002 $270 $405 forward 7 unknown #
coedge $-1 $265 $176 $403 $406 forward $274 $-1 #
coedge $-1 $176 $265 $399 $407 reversed $274 $-1 #
loop $-1 $-1 $272 $383 #
vertex $-1 $177 $408 #
vertex $-1 $177 $409 #
straight-curve $-1 13.771864651842002 0 151.26926480910672 0 1 0 I I #
loop $-1 $-1 $410 $115 #
coedge $-1 $279 $279 $181 $280 reversed $178 $-1 #
edge $-1 $411 0 $411 6.2831853071796004 $279 $412 forward 7 unknown #
vertex $-1 $182 $413 #
ellipse-curve $-1 0 0 -6.9745857112338632 0 0 -1 2.5 0 0 1 I I #
loop $-1 $-1 $414 $120 #
coedge $-1 $284 $284 $186 $285 reversed $183 $-1 #
edge $-1 $415 0 $415 6.2831853071796004 $284 $416 forward 7 unknown #
vertex $-1 $187 $417 #
ellipse-curve $-1 0 0 -6.9745857112338632 0 0 -1 2.5 0 0 1 I I #
loop $-1 $-1 $418 $125 #
coedge $-1 $289 $289 $191 $290 reversed $188 $-1 #
edge $-1 $419 0 $419 6.2831853071796004 $289 $420 forward 7 unknown #
vertex $-1 $192 $421 #
ellipse-curve $-1 0 0 -6.9745857112338632 0 0 -1 2.5 0 0 1 I I #
face $-1 $422 $423 $42 $-1 $424 reversed single #
loop $-1 $-1 $425 $193 #
plane-surface $-1 -21.258809197750665 0 0 1 0 0 0 0 -1 forward_v I I I I #
coedge $-1 $426 $304 $427 $428 forward $194 $-1 #
coedge $-1 $429 $196 $426 $430 forward $131 $-1 #
coedge $-1 $196 $429 $431 $432 forward $131 $-1 #
coedge $-1 $307 $306 $196 $300 reversed $308 $-1 #
edge $-1 $433 -302.53852961821343 $434 302.53852961821343 $299 $435 forward 7 unknown #
coedge $-1 $198 $197 $436 $437 forward $83 $-1 #
coedge $-1 $438 $439 $197 $303 reversed $423 $-1 #
edge $-1 $310 -21.258809197750665 $440 21.258809197750665 $302 $441 forward 7 unknown #
coedge $-1 $296 $442 $198 $305 reversed $194 $-1 #
edge $-1 $443 -21.258809197750665 $309 21.258809197750665 $304 $444 forward 7 unknown #
coedge $-1 $299 $199 $442 $445 forward $308 $-1 #
coedge $-1 $199 $299 $438 $446 reversed $308 $-1 #
loop $-1 $-1 $306 $422 #
vertex $-1 $200 $447 #
vertex $-1 $200 $448 #
straight-curve $-1 21.258809197750665 0 151.26926480910672 0 1 0 I I #
loop $-1 $-1 $449 $134 #
coedge $-1 $313 $313 $204 $314 reversed $201 $-1 #
edge $-1 $450 0 $450 6.2831853071796004 $313 $451 forward 7 unknown #
vertex $-1 $205 $452 #
ellipse-curve $-1 0 0 -12.428525650807217 0 0 -1 3 0 0 1 I I #
face $-1 $-1 $221 $33 $-1 $453 reversed single #
loop $-1 $-1 $333 $206 #
plane-surface $-1 0 36.954259191990033 0 0 -1 0 0 0 -1 forward_v I I I I #
coedge $-1 $454 $331 $334 $455 forward $207 $-1 #
coedge $-1 $337 $209 $210 $325 reversed $140 $-1 #
coedge $-1 $331 $454 $209 $323 reversed $207 $-1 #
edge $-1 $338 -13.97759018444429 $456 13.97759018444429 $322 $457 forward 7 unknown #
coedge $-1 $211 $210 $454 $458 forward $89 $-1 #
edge $-1 $329 -75.634632404553358 $456 75.634632404553358 $321 $459 forward 7 unknown #
coedge $-1 $334 $333 $211 $327 reversed $318 $-1 #
edge $-1 $460 -75.634632404553358 $328 75.634632404553358 $326 $461 forward 7 unknown #
vertex $-1 $213 $462 #
vertex $-1 $340 $463 #
straight-curve $-1 75.634632404553358 0 -13.97759018444429 0 -1 0 I I #
coedge $-1 $320 $322 $214 $332 reversed $207 $-1 #
edge $-1 $335 -36.954259191990033 $338 36.954259191990033 $331 $464 forward 7 unknown #
coedge $-1 $326 $215 $220 $341 forward $318 $-1 #
coedge $-1 $215 $326 $320 $455 reversed $318 $-1 #
vertex $-1 $216 $465 #
straight-curve $-1 0 36.954259191990033 13.97759018444429 -1 0 0 I I #
coedge $-1 $217 $321 $219 $340 reversed $140 $-1 #
vertex $-1 $332 $466 #
straight-curve $-1 0 -36.954259191990033 13.97759018444429 1 0 0 I I #
edge $-1 $222 -13.97759018444429 $329 13.97759018444429 $219 $467 forward 7 unknown #
edge $-1 $223 -13.97759018444429 $328 13.97759018444429 $220 $468 forward 7 unknown #
point $-1 75.634632404553358 -36.954259191990033 13.97759018444429 #
point $-1 75.634632404553358 36.954259191990033 13.97759018444429 #
face $-1 $-1 $240 $34 $-1 $469 reversed single #
loop $-1 $-1 $360 $225 #
plane-surface $-1 0 302.53852961821343 0 0 -1 0 0 0 -1 forward_v I I I I #
coedge $-1 $470 $358 $361 $471 forward $226 $-1 #
coedge $-1 $364 $228 $229 $352 reversed $148 $-1 #
coedge $-1 $358 $470 $228 $350 reversed $226 $-1 #
edge $-1 $365 -151.26926480910672 $472 151.26926480910672 $349 $473 forward 7 unknown #
coedge $-1 $230 $229 $470 $474 forward $93 $-1 #
edge $-1 $356 -13.771864651842002 $472 13.771864651842002 $348 $475 forward 7 unknown #
coedge $-1 $361 $360 $230 $354 reversed $345 $-1 #
edge $-1 $476 -13.771864651842002 $355 13.771864651842002 $353 $477 forward 7 unknown #
vertex $-1 $232 $478 #
vertex $-1 $367 $479 #
straight-curve $-1 13.771864651842002 0 -151.26926480910672 0 -1 0 I I #
coedge $-1 $347 $349 $233 $359 reversed $226 $-1 #
edge $-1 $362 -302.53852961821343 $365 302.53852961821343 $358 $480 forward 7 unknown #
coedge $-1 $353 $234 $239 $368 forward $345 $-1 #
coedge $-1 $234 $353 $347 $471 reversed $345 $-1 #
vertex $-1 $235 $481 #
straight-curve $-1 0 302.53852961821343 151.26926480910672 -1 0 0 I I #
coedge $-1 $236 $348 $238 $367 reversed $148 $-1 #
vertex $-1 $359 $482 #
straight-curve $-1 0 -302.53852961821343 151.26926480910672 1 0 0 I I #
edge $-1 $241 -151.26926480910672 $356 151.26926480910672 $238 $483 forward 7 unknown #
edge $-1 $242 -151.26926480910672 $355 151.26926480910672 $239 $484 forward 7 unknown #
point $-1 13.771864651842002 -302.53852961821343 151.26926480910672 #
point $-1 13.771864651842002 302.53852961821343 151.26926480910672 #
coedge $-1 $371 $371 $-1 $485 reversed $244 $-1 #
vertex $-1 $246 $486 #
ellipse-curve $-1 0 0 -1.25 0 0 -1 2.5 0 0 1 I I #
point $-1 2.5 0 -6.9745857112338632 #
coedge $-1 $375 $375 $-1 $487 reversed $249 $-1 #
vertex $-1 $251 $488 #
ellipse-curve $-1 0 0 -1.25 0 0 -1 2.5 0 0 1 I I #
point $-1 2.5 0 -6.9745857112338632 #
coedge $-1 $379 $379 $-1 $489 reversed $254 $-1 #
vertex $-1 $256 $490 #
ellipse-curve $-1 0 0 -1.25 0 0 -1 2.5 0 0 1 I I #
point $-1 2.5 0 -6.9745857112338632 #
face $-1 $-1 $274 $38 $-1 $491 reversed single #
loop $-1 $-1 $399 $259 #
plane-surface $-1 0 302.53852961821343 0 0 -1 0 0 0 -1 forward_v I I I I #
coedge $-1 $492 $397 $400 $493 forward $260 $-1 #
coedge $-1 $403 $262 $263 $391 reversed $171 $-1 #
coedge $-1 $397 $492 $262 $389 reversed $260 $-1 #
edge $-1 $404 -151.26926480910672 $494 151.26926480910672 $388 $495 forward 7 unknown #
coedge $-1 $264 $263 $492 $496 forward $112 $-1 #
edge $-1 $395 -13.771864651842002 $494 13.771864651842002 $387 $497 forward 7 unknown #
coedge $-1 $400 $399 $264 $393 reversed $384 $-1 #
edge $-1 $498 -13.771864651842002 $394 13.771864651842002 $392 $499 forward 7 unknown #
vertex $-1 $266 $500 #
vertex $-1 $406 $501 #
straight-curve $-1 13.771864651842002 0 -151.26926480910672 0 -1 0 I I #
coedge $-1 $386 $388 $267 $398 reversed $260 $-1 #
edge $-1 $401 -302.53852961821343 $404 302.53852961821343 $397 $502 forward 7 unknown #
coedge $-1 $392 $268 $273 $407 forward $384 $-1 #
coedge $-1 $268 $392 $386 $493 reversed $384 $-1 #
vertex $-1 $269 $503 #
straight-curve $-1 0 302.53852961821343 151.26926480910672 -1 0 0 I I #
coedge $-1 $270 $387 $272 $406 reversed $171 $-1 #
vertex $-1 $398 $504 #
straight-curve $-1 0 -302.53852961821343 151.26926480910672 1 0 0 I I #
edge $-1 $275 -151.26926480910672 $395 151.26926480910672 $272 $505 forward 7 unknown #
edge $-1 $276 -151.26926480910672 $394 151.26926480910672 $273 $506 forward 7 unknown #
point $-1 13.771864651842002 -302.53852961821343 151.26926480910672 #
point $-1 13.771864651842002 302.53852961821343 151.26926480910672 #
coedge $-1 $410 $410 $-1 $507 reversed $278 $-1 #
vertex $-1 $280 $508 #
ellipse-curve $-1 0 0 -1.25 0 0 -1 2.5 0 0 1 I I #
point $-1 2.5 0 -6.9745857112338632 #
coedge $-1 $414 $414 $-1 $509 reversed $283 $-1 #
vertex $-1 $285 $510 #
ellipse-curve $-1 0 0 -1.25 0 0 -1 2.5 0 0 1 I I #
point $-1 2.5 0 -6.9745857112338632 #
coedge $-1 $418 $418 $-1 $511 reversed $288 $-1 #
vertex $-1 $290 $512 #
ellipse-curve $-1 0 0 -1.25 0 0 -1 2.5 0 0 1 I I #
point $-1 2.5 0 -6.9745857112338632 #
face $-1 $-1 $308 $42 $-1 $513 reversed single #
loop $-1 $-1 $438 $293 #
plane-surface $-1 0 302.53852961821343 0 0 -1 0 0 0 -1 forward_v I I I I #
coedge $-1 $514 $436 $439 $515 forward $294 $-1 #
coedge $-1 $442 $296 $297 $430 reversed $194 $-1 #
coedge $-1 $436 $514 $296 $428 reversed $294 $-1 #
edge $-1 $443 -151.26926480910672 $516 151.26926480910672 $427 $517 forward 7 unknown #
coedge $-1 $298 $297 $514 $518 forward $131 $-1 #
edge $-1 $434 -21.258809197750665 $516 21.258809197750665 $426 $519 forward 7 unknown #
coedge $-1 $439 $438 $298 $432 reversed $423 $-1 #
edge $-1 $520 -21.258809197750665 $433 21.258809197750665 $431 $521 forward 7 unknown #
vertex $-1 $300 $522 #
vertex $-1 $445 $523 #
straight-curve $-1 21.258809197750665 0 -151.26926480910672 0 -1 0 I I #
coedge $-1 $425 $427 $301 $437 reversed $294 $-1 #
edge $-1 $440 -302.53852961821343 $443 302.53852961821343 $436 $524 forward 7 unknown #
coedge $-1 $431 $302 $307 $446 forward $423 $-1 #
coedge $-1 $302 $431 $425 $515 reversed $423 $-1 #
vertex $-1 $303 $525 #
straight-curve $-1 0 302.53852961821343 151.26926480910672 -1 0 0 I I #
coedge $-1 $304 $426 $306 $445 reversed $194 $-1 #
vertex $-1 $437 $526 #
straight-curve $-1 0 -302.53852961821343 151.26926480910672 1 0 0 I I #
edge $-1 $309 -151.26926480910672 $434 151.26926480910672 $306 $527 forward 7 unknown #
edge $-1 $310 -151.26926480910672 $433 151.26926480910672 $307 $528 forward 7 unknown #
point $-1 21.258809197750665 -302.53852961821343 151.26926480910672 #
point $-1 21.258809197750665 302.53852961821343 151.26926480910672 #
coedge $-1 $449 $449 $-1 $529 reversed $312 $-1 #
vertex $-1 $314 $530 #
ellipse-curve $-1 0 0 -1.5 0 0 -1 3 0 0 1 I I #
point $-1 3 0 -12.428525650807217 #
plane-surface $-1 75.634632404553358 0 0 -1 0 0 0 0 1 forward_v I I I I #
coedge $-1 $322 $320 $324 $458 reversed $207 $-1 #
edge $-1 $335 -13.97759018444429 $460 13.97759018444429 $334 $531 forward 7 unknown #
vertex $-1 $458 $532 #
straight-curve $-1 -75.634632404553358 -36.954259191990033 0 0 0 -1 I I #
edge $-1 $456 -36.954259191990033 $460 36.954259191990033 $454 $533 forward 7 unknown #
straight-curve $-1 0 -36.954259191990033 -13.97759018444429 -1 0 0 I I #
vertex $-1 $327 $534 #
straight-curve $-1 0 36.954259191990033 -13.97759018444429 1 0 0 I I #
point $-1 75.634632404553358 36.954259191990033 -13.97759018444429 #
point $-1 75.634632404553358 -36.954259191990033 -13.97759018444429 #
straight-curve $-1 -75.634632404553358 0 13.97759018444429 0 -1 0 I I #
point $-1 -75.634632404553358 36.954259191990033 13.97759018444429 #
point $-1 -75.634632404553358 -36.954259191990033 13.97759018444429 #
straight-curve $-1 75.634632404553358 -36.954259191990033 0 0 0 -1 I I #
straight-curve $-1 75.634632404553358 36.954259191990033 0 0 0 -1 I I #
plane-surface $-1 13.771864651842002 0 0 -1 0 0 0 0 1 forward_v I I I I #
coedge $-1 $349 $347 $351 $474 reversed $226 $-1 #
edge $-1 $362 -151.26926480910672 $476 151.26926480910672 $361 $535 forward 7 unknown #
vertex $-1 $474 $536 #
straight-curve $-1 -13.771864651842002 -302.53852961821343 0 0 0 -1 I I #
edge $-1 $472 -302.53852961821343 $476 302.53852961821343 $470 $537 forward 7 unknown #
straight-curve $-1 0 -302.53852961821343 -151.26926480910672 -1 0 0 I I #
vertex $-1 $354 $538 #
straight-curve $-1 0 302.53852961821343 -151.26926480910672 1 0 0 I I #
point $-1 13.771864651842002 302.53852961821343 -151.26926480910672 #
point $-1 13.771864651842002 -302.53852961821343 -151.26926480910672 #
straight-curve $-1 -13.771864651842002 0 151.26926480910672 0 -1 0 I I #
point $-1 -13.771864651842002 302.53852961821343 151.26926480910672 #
point $-1 -13.771864651842002 -302.53852961821343 151.26926480910672 #
straight-curve $-1 13.771864651842002 -302.53852961821343 0 0 0 -1 I I #
straight-curve $-1 13.771864651842002 302.53852961821343 0 0 0 -1 I I #
edge $-1 $539 1 $539 0 $371 $-1 forward 7 unknown #
point $-1 2.5 0 -1.25 #
edge $-1 $540 1 $540 0 $375 $-1 forward 7 unknown #
point $-1 2.5 0 -1.25 #
edge $-1 $541 1 $541 0 $379 $-1 forward 7 unknown #
point $-1 2.5 0 -1.25 #
plane-surface $-1 13.771864651842002 0 0 -1 0 0 0 0 1 forward_v I I I I #
coedge $-1 $388 $386 $390 $496 reversed $260 $-1 #
edge $-1 $401 -151.26926480910672 $498 151.26926480910672 $400 $542 forward 7 unknown #
vertex $-1 $496 $543 #
straight-curve $-1 -13.771864651842002 -302.53852961821343 0 0 0 -1 I I #
edge $-1 $494 -302.53852961821343 $498 302.53852961821343 $492 $544 forward 7 unknown #
straight-curve $-1 0 -302.53852961821343 -151.26926480910672 -1 0 0 I I #
vertex $-1 $393 $545 #
straight-curve $-1 0 302.53852961821343 -151.26926480910672 1 0 0 I I #
point $-1 13.771864651842002 302.53852961821343 -151.26926480910672 #
point $-1 13.771864651842002 -302.53852961821343 -151.26926480910672 #
straight-curve $-1 -13.771864651842002 0 151.26926480910672 0 -1 0 I I #
point $-1 -13.771864651842002 302.53852961821343 151.26926480910672 #
point $-1 -13.771864651842002 -302.53852961821343 151.26926480910672 #
straight-curve $-1 13.771864651842002 -302.53852961821343 0 0 0 -1 I I #
straight-curve $-1 13.771864651842002 302.53852961821343 0 0 0 -1 I I #
edge $-1 $546 1 $546 0 $410 $-1 forward 7 unknown #
point $-1 2.5 0 -1.25 #
edge $-1 $547 1 $547 0 $414 $-1 forward 7 unknown #
point $-1 2.5 0 -1.25 #
edge $-1 $548 1 $548 0 $418 $-1 forward 7 unknown #
point $-1 2.5 0 -1.25 #
plane-surface $-1 21.258809197750665 0 0 -1 0 0 0 0 1 forward_v I I I I #
coedge $-1 $427 $425 $429 $518 reversed $294 $-1 #
edge $-1 $440 -151.26926480910672 $520 151.26926480910672 $439 $549 forward 7 unknown #
vertex $-1 $518 $550 #
straight-curve $-1 -21.258809197750665 -302.53852961821343 0 0 0 -1 I I #
edge $-1 $516 -302.53852961821343 $520 302.53852961821343 $514 $551 forward 7 unknown #
straight-curve $-1 0 -302.53852961821343 -151.26926480910672 -1 0 0 I I #
vertex $-1 $432 $552 #
straight-curve $-1 0 302.53852961821343 -151.26926480910672 1 0 0 I I #
point $-1 21.258809197750665 302.53852961821343 -151.26926480910672 #
point $-1 21.258809197750665 -302.53852961821343 -151.26926480910672 #
straight-curve $-1 -21.258809197750665 0 151.26926480910672 0 -1 0 I I #
point $-1 -21.258809197750665 302.53852961821343 151.26926480910672 #
point $-1 -21.258809197750665 -302.53852961821343 151.26926480910672 #
straight-curve $-1 21.258809197750665 -302.53852961821343 0 0 0 -1 I I #
straight-curve $-1 21.258809197750665 302.53852961821343 0 0 0 -1 I I #
edge $-1 $553 1 $553 0 $449 $-1 forward 7 unknown #
point $-1 3 0 -1.5 #
straight-curve $-1 -75.634632404553358 36.954259191990033 0 0 0 -1 I I #
point $-1 -75.634632404553358 -36.954259191990033 -13.97759018444429 #
straight-curve $-1 -75.634632404553358 0 -13.97759018444429 0 1 0 I I #
point $-1 -75.634632404553358 36.954259191990033 -13.97759018444429 #
straight-curve $-1 -13.771864651842002 302.53852961821343 0 0 0 -1 I I #
point $-1 -13.771864651842002 -302.53852961821343 -151.26926480910672 #
straight-curve $-1 -13.771864651842002 0 -151.26926480910672 0 1 0 I I #
point $-1 -13.771864651842002 302.53852961821343 -151.26926480910672 #
vertex $-1 $485 $554 #
vertex $-1 $487 $555 #
vertex $-1 $489 $556 #
straight-curve $-1 -13.771864651842002 302.53852961821343 0 0 0 -1 I I #
point $-1 -13.771864651842002 -302.53852961821343 -151.26926480910672 #
straight-curve $-1 -13.771864651842002 0 -151.26926480910672 0 1 0 I I #
point $-1 -13.771864651842002 302.53852961821343 -151.26926480910672 #
vertex $-1 $507 $557 #
vertex $-1 $509 $558 #
vertex $-1 $511 $559 #
straight-curve $-1 -21.258809197750665 302.53852961821343 0 0 0 -1 I I #
point $-1 -21.258809197750665 -302.53852961821343 -151.26926480910672 #
straight-curve $-1 -21.258809197750665 0 -151.26926480910672 0 1 0 I I #
point $-1 -21.258809197750665 302.53852961821343 -151.26926480910672 #
vertex $-1 $529 $560 #
point $-1 0 0 1.25 #
point $-1 0 0 1.25 #
point $-1 0 0 1.25 #
point $-1 0 0 1.25 #
point $-1 0 0 1.25 #
point $-1 0 0 1.25 #
point $-1 0 0 1.5 #
End-of-ACIS-data 