500 0 12 0           
7 Unknown 11 ACIS 5.0 NT 24 Thu Mar 25 17:23:33 1999 
-1 9.9999999999999995e-007 1e-010 
body $-1 $12 $-1 $13 #
body $-1 $14 $-1 $15 #
body $-1 $16 $-1 $17 #
body $-1 $18 $-1 $19 #
body $-1 $20 $-1 $21 #
body $-1 $22 $-1 $23 #
body $-1 $24 $-1 $25 #
body $-1 $26 $-1 $27 #
body $-1 $28 $-1 $29 #
body $-1 $30 $-1 $31 #
body $-1 $32 $-1 $33 #
body $-1 $34 $-1 $35 #
lump $-1 $-1 $36 $0 #
transform $-1 1 0 0 0 1 0 0 0 1 58.522293771172215 28.833396729691586 9.9268297936132015 1 rotate no_reflect no_shear #
lump $-1 $-1 $37 $1 #
transform $-1 1 0 0 0 1 0 0 0 1 58.522293771172215 28.833396729691586 9.9268297936132015 1 rotate no_reflect no_shear #
lump $-1 $-1 $38 $2 #
transform $-1 1 0 0 0 1 0 0 0 1 58.522293771172215 28.833396729691586 9.9268297936132015 1 rotate no_reflect no_shear #
lump $-1 $-1 $39 $3 #
transform $-1 1 0 0 0 1 0 0 0 1 58.522293771172215 28.833396729691586 9.9268297936132015 1 rotate no_reflect no_shear #
lump $-1 $-1 $40 $4 #
transform $-1 1 0 0 0 1 0 0 0 1 58.522293771172215 28.833396729691586 9.9268297936132015 1 rotate no_reflect no_shear #
lump $-1 $-1 $41 $5 #
transform $-1 1 0 0 0 1 0 0 0 1 58.522293771172215 28.833396729691586 9.9268297936132015 1 rotate no_reflect no_shear #
lump $-1 $-1 $42 $6 #
transform $-1 1 0 0 0 1 0 0 0 1 58.522293771172215 28.833396729691586 9.9268297936132015 1 rotate no_reflect no_shear #
lump $-1 $-1 $43 $7 #
transform $-1 1 0 0 0 1 0 0 0 1 58.522293771172215 28.833396729691586 9.9268297936132015 1 rotate no_reflect no_shear #
lump $-1 $-1 $44 $8 #
transform $-1 1 0 0 0 1 0 0 0 1 58.522293771172215 28.833396729691586 9.9268297936132015 1 rotate no_reflect no_shear #
lump $-1 $-1 $45 $9 #
transform $-1 1 0 0 0 1 0 0 0 1 58.522293771172215 28.833396729691586 9.9268297936132015 1 rotate no_reflect no_shear #
lump $-1 $-1 $46 $10 #
transform $-1 1 0 0 0 1 0 0 0 1 58.522293771172215 28.833396729691586 9.9268297936132015 1 rotate no_reflect no_shear #
lump $-1 $-1 $47 $11 #
transform $-1 1 0 0 0 1 0 0 0 1 58.522293771172215 28.833396729691586 9.9268297936132015 1 rotate no_reflect no_shear #
shell $-1 $-1 $-1 $48 $-1 $12 #
shell $-1 $-1 $-1 $49 $-1 $14 #
shell $-1 $-1 $-1 $50 $-1 $16 #
shell $-1 $-1 $-1 $51 $-1 $18 #
shell $-1 $-1 $-1 $52 $-1 $20 #
shell $-1 $-1 $-1 $53 $-1 $22 #
shell $-1 $-1 $-1 $54 $-1 $24 #
shell $-1 $-1 $-1 $55 $-1 $26 #
shell $-1 $-1 $-1 $56 $-1 $28 #
shell $-1 $-1 $-1 $57 $-1 $30 #
shell $-1 $-1 $-1 $58 $-1 $32 #
shell $-1 $-1 $-1 $59 $-1 $34 #
face $-1 $60 $61 $36 $-1 $62 forward single #
face $-1 $63 $64 $37 $-1 $65 forward single #
face $-1 $66 $67 $38 $-1 $68 reversed single #
face $-1 $69 $70 $39 $-1 $71 forward single #
face $-1 $72 $73 $40 $-1 $74 reversed single #
face $-1 $75 $76 $41 $-1 $77 forward single #
face $-1 $78 $79 $42 $-1 $80 forward single #
face $-1 $81 $82 $43 $-1 $83 forward single #
face $-1 $84 $85 $44 $-1 $86 reversed single #
face $-1 $87 $88 $45 $-1 $89 forward single #
face $-1 $90 $91 $46 $-1 $92 forward single #
face $-1 $93 $94 $47 $-1 $95 forward single #
face $-1 $96 $97 $36 $-1 $98 reversed single #
loop $-1 $-1 $99 $48 #
plane-surface $-1 0 0 9.9268297936132015 0 0 1 1 0 0 forward_v I I I I #
face $-1 $100 $101 $37 $-1 $102 reversed single #
loop $-1 $-1 $103 $49 #
plane-surface $-1 0 -23.140367265379616 -4.8385077669531888 0 0 1 1 0 0 forward_v I I I I #
face $-1 $104 $105 $38 $-1 $106 reversed single #
loop $-1 $-1 $107 $50 #
plane-surface $-1 -151.99825860389504 17.339682955409884 74.996264680869814 0 1 0 -0.79863551827123203 0 0.60181501223851219 forward_v I I I I #
face $-1 $108 $109 $39 $-1 $110 forward single #
loop $-1 $111 $112 $51 #
cone-surface $-1 -55.774357435600095 23.086539842550735 6.6958245022495078 0.79863551827123203 0 -0.60181501223851219 0.60181501223851219 0 0.79863551827123203 1 I I 0 1 1 forward I I I I #
face $-1 $113 $114 $40 $-1 $115 reversed single #
loop $-1 $-1 $116 $52 #
plane-surface $-1 78.694846163530642 -3.0461933806196413 169.09960508669749 0 -1 0 -0.78801076186113728 0 -0.61566146476048833 forward_v I I I I #
face $-1 $117 $118 $41 $-1 $119 forward single #
loop $-1 $120 $121 $53 #
cone-surface $-1 55.811112238558167 -10.588803770840421 6.8113700074267767 -0.78801076186113728 0 -0.61566146476048833 0.30783073238024417 0 -0.39400538093056864 1 I I 0 1 0.5 forward I I I I #
face $-1 $122 $123 $42 $-1 $124 forward single #
loop $-1 $125 $126 $54 #
cone-surface $-1 55.811112238558167 -7.7603248745076279 6.8113700074267767 -0.78801076186113728 0 -0.61566146476048833 0.30783073238024417 0 -0.39400538093056864 1 I I 0 1 0.5 forward I I I I #
face $-1 $127 $128 $43 $-1 $129 forward single #
loop $-1 $130 $131 $55 #
cone-surface $-1 55.811112238558167 -4.9318459781748345 6.8113700074267767 -0.78801076186113728 0 -0.61566146476048833 0.30783073238024417 0 -0.39400538093056864 1 I I 0 1 0.5 forward I I I I #
face $-1 $132 $133 $44 $-1 $134 reversed single #
loop $-1 $-1 $135 $56 #
plane-surface $-1 78.694846163530642 23.86051529701955 169.09960508669749 0 -1 0 -0.78801076186113728 0 -0.61566146476048833 forward_v I I I I #
face $-1 $136 $137 $45 $-1 $138 forward single #
loop $-1 $139 $140 $57 #
cone-surface $-1 55.811112238558167 16.317904906798773 6.8113700074267767 -0.78801076186113728 0 -0.61566146476048833 0.30783073238024417 0 -0.39400538093056864 1 I I 0 1 0.5 forward I I I I #
face $-1 $141 $142 $46 $-1 $143 forward single #
loop $-1 $144 $145 $58 #
cone-surface $-1 55.811112238558167 19.146383803131563 6.8113700074267767 -0.78801076186113728 0 -0.61566146476048833 0.30783073238024417 0 -0.39400538093056864 1 I I 0 1 0.5 forward I I I I #
face $-1 $146 $147 $47 $-1 $148 forward single #
loop $-1 $149 $150 $59 #
cone-surface $-1 55.811112238558167 21.974862699464353 6.8113700074267767 -0.78801076186113728 0 -0.61566146476048833 0.30783073238024417 0 -0.39400538093056864 1 I I 0 1 0.5 forward I I I I #
face $-1 $151 $152 $36 $-1 $153 reversed single #
loop $-1 $-1 $154 $60 #
plane-surface $-1 0 0 -9.9268297936132015 0 0 1 1 0 0 forward_v I I I I #
coedge $-1 $155 $156 $157 $158 forward $61 $-1 #
face $-1 $159 $160 $37 $-1 $161 reversed single #
loop $-1 $-1 $162 $63 #
plane-surface $-1 0 -17.447337801067647 -7.3826687802831952 0 -1 0 0 0 -1 forward_v I I I I #
coedge $-1 $163 $164 $165 $166 reversed $64 $-1 #
face $-1 $167 $168 $38 $-1 $169 reversed single #
loop $-1 $-1 $170 $66 #
plane-surface $-1 -58.522293771172201 23.086539842550735 4.5570747966221887 -0.79863551827123203 0 0.60181501223851219 0.60181501223851219 0 0.79863551827123203 forward_v I I I I #
coedge $-1 $171 $172 $173 $174 reversed $67 $-1 #
face $-1 $-1 $175 $39 $-1 $176 forward single #
loop $-1 $177 $178 $69 #
cone-surface $-1 -54.650303596390167 23.086539842550735 5.8487892032620561 0.79863551827123203 0 -0.60181501223851219 0.3009075061192561 0 0.39931775913561601 1 I I -0.70710678118654746 0.70710678118654746 0.5 forward I I I I #
loop $-1 $-1 $179 $51 #
coedge $-1 $112 $112 $180 $181 reversed $70 $-1 #
face $-1 $182 $183 $40 $-1 $184 reversed single #
loop $-1 $-1 $185 $72 #
plane-surface $-1 -13.537548437434765 -7.7603248745076279 97.039762878090514 0.78801076186113728 0 0.61566146476048833 0.61566146476048833 0 -0.78801076186113728 forward_v I I I I #
coedge $-1 $186 $187 $188 $189 reversed $73 $-1 #
face $-1 $-1 $190 $41 $-1 $191 forward single #
loop $-1 $192 $193 $75 #
cone-surface $-1 54.902808809353985 -10.588803770840421 6.101725613294299 -0.78801076186113728 0 -0.61566146476048833 0.15391536619012208 0 -0.19700269046528432 1 I I -0.70710678118654746 0.70710678118654746 0.25 forward I I I I #
loop $-1 $-1 $194 $53 #
coedge $-1 $121 $121 $195 $196 reversed $76 $-1 #
face $-1 $-1 $197 $42 $-1 $198 forward single #
loop $-1 $199 $200 $78 #
cone-surface $-1 54.902808809353985 -7.7603248745076279 6.101725613294299 -0.78801076186113728 0 -0.61566146476048833 0.15391536619012208 0 -0.19700269046528432 1 I I -0.70710678118654746 0.70710678118654746 0.25 forward I I I I #
loop $-1 $-1 $201 $54 #
coedge $-1 $126 $126 $202 $203 reversed $79 $-1 #
face $-1 $-1 $204 $43 $-1 $205 forward single #
loop $-1 $206 $207 $81 #
cone-surface $-1 54.902808809353985 -4.9318459781748345 6.101725613294299 -0.78801076186113728 0 -0.61566146476048833 0.15391536619012208 0 -0.19700269046528432 1 I I -0.70710678118654746 0.70710678118654746 0.25 forward I I I I #
loop $-1 $-1 $208 $55 #
coedge $-1 $131 $131 $209 $210 reversed $82 $-1 #
face $-1 $211 $212 $44 $-1 $213 reversed single #
loop $-1 $-1 $214 $84 #
plane-surface $-1 -13.537548437434765 19.146383803131563 97.039762878090514 0.78801076186113728 0 0.61566146476048833 0.61566146476048833 0 -0.78801076186113728 forward_v I I I I #
coedge $-1 $215 $216 $217 $218 reversed $85 $-1 #
face $-1 $-1 $219 $45 $-1 $220 forward single #
loop $-1 $221 $222 $87 #
cone-surface $-1 54.902808809353985 16.317904906798773 6.101725613294299 -0.78801076186113728 0 -0.61566146476048833 0.15391536619012208 0 -0.19700269046528432 1 I I -0.70710678118654746 0.70710678118654746 0.25 forward I I I I #
loop $-1 $-1 $223 $57 #
coedge $-1 $140 $140 $224 $225 reversed $88 $-1 #
face $-1 $-1 $226 $46 $-1 $227 forward single #
loop $-1 $228 $229 $90 #
cone-surface $-1 54.902808809353985 19.146383803131563 6.101725613294299 -0.78801076186113728 0 -0.61566146476048833 0.15391536619012208 0 -0.19700269046528432 1 I I -0.70710678118654746 0.70710678118654746 0.25 forward I I I I #
loop $-1 $-1 $230 $58 #
coedge $-1 $145 $145 $231 $232 reversed $91 $-1 #
face $-1 $-1 $233 $47 $-1 $234 forward single #
loop $-1 $235 $236 $93 #
cone-surface $-1 54.902808809353985 21.974862699464353 6.101725613294299 -0.78801076186113728 0 -0.61566146476048833 0.15391536619012208 0 -0.19700269046528432 1 I I -0.70710678118654746 0.70710678118654746 0.25 forward I I I I #
loop $-1 $-1 $237 $59 #
coedge $-1 $150 $150 $238 $239 reversed $94 $-1 #
face $-1 $240 $241 $36 $-1 $242 reversed single #
loop $-1 $-1 $243 $96 #
plane-surface $-1 0 -28.833396729691586 0 0 1 0 0 0 1 forward_v I I I I #
coedge $-1 $244 $245 $246 $247 forward $97 $-1 #
coedge $-1 $248 $99 $249 $250 forward $61 $-1 #
coedge $-1 $99 $248 $251 $252 forward $61 $-1 #
coedge $-1 $253 $254 $99 $158 reversed $255 $-1 #
edge $-1 $256 -28.833396729691586 $257 28.833396729691586 $157 $258 forward 7 unknown #
face $-1 $259 $260 $37 $-1 $261 reversed single #
loop $-1 $-1 $262 $100 #
plane-surface $-1 0 0 -9.9268297936132015 0 0 1 1 0 0 forward_v I I I I #
coedge $-1 $263 $264 $265 $266 reversed $101 $-1 #
coedge $-1 $267 $103 $264 $268 forward $64 $-1 #
coedge $-1 $103 $267 $269 $270 reversed $64 $-1 #
coedge $-1 $271 $265 $103 $166 forward $260 $-1 #
edge $-1 $272 5.8771541683778388 $273 17.263213097001778 $165 $274 forward 7 unknown #
face $-1 $275 $276 $38 $-1 $277 reversed single #
loop $-1 $-1 $278 $104 #
plane-surface $-1 0 28.833396729691586 0 0 -1 0 0 0 -1 forward_v I I I I #
coedge $-1 $279 $280 $281 $282 reversed $105 $-1 #
coedge $-1 $172 $107 $283 $284 reversed $67 $-1 #
coedge $-1 $107 $171 $279 $285 reversed $67 $-1 #
coedge $-1 $281 $286 $107 $174 forward $287 $-1 #
edge $-1 $288 17.476835530775304 $289 21.523236041770929 $173 $290 forward 7 unknown #
loop $-1 $-1 $180 $108 #
plane-surface $-1 -58.522293771172201 23.086539842550735 4.5570747966221887 -0.79863551827123203 0 0.60181501223851219 0.60181501223851219 0 0.79863551827123203 forward_v I I I I #
loop $-1 $-1 $291 $69 #
coedge $-1 $178 $178 $179 $292 reversed $109 $-1 #
coedge $-1 $179 $179 $178 $292 forward $111 $-1 #
coedge $-1 $180 $180 $112 $181 forward $175 $-1 #
edge $-1 $293 0 $293 6.2831853071796004 $180 $294 forward 7 unknown #
face $-1 $295 $296 $40 $-1 $297 forward single #
loop $-1 $-1 $298 $113 #
plane-surface $-1 78.694846163530642 -12.474456368395614 169.09960508669749 0 1 0 0.78801076186113728 0 0.61566146476048833 forward_v I I I I #
coedge $-1 $299 $300 $301 $302 reversed $114 $-1 #
coedge $-1 $187 $116 $303 $304 reversed $73 $-1 #
coedge $-1 $116 $186 $299 $305 reversed $73 $-1 #
coedge $-1 $301 $306 $116 $189 forward $296 $-1 #
edge $-1 $307 -19.174870689406895 $308 -15.175109101656595 $188 $309 forward 7 unknown #
loop $-1 $-1 $195 $117 #
plane-surface $-1 -13.537548437434765 -7.7603248745076279 97.039762878090514 0.78801076186113728 0 0.61566146476048833 0.61566146476048833 0 -0.78801076186113728 forward_v I I I I #
loop $-1 $-1 $310 $75 #
coedge $-1 $193 $193 $194 $311 reversed $118 $-1 #
coedge $-1 $194 $194 $193 $311 forward $120 $-1 #
coedge $-1 $195 $195 $121 $196 forward $190 $-1 #
edge $-1 $312 0 $312 6.2831853071796004 $195 $313 forward 7 unknown #
loop $-1 $-1 $202 $122 #
plane-surface $-1 -13.537548437434765 -7.7603248745076279 97.039762878090514 0.78801076186113728 0 0.61566146476048833 0.61566146476048833 0 -0.78801076186113728 forward_v I I I I #
loop $-1 $-1 $314 $78 #
coedge $-1 $200 $200 $201 $315 reversed $123 $-1 #
coedge $-1 $201 $201 $200 $315 forward $125 $-1 #
coedge $-1 $202 $202 $126 $203 forward $197 $-1 #
edge $-1 $316 0 $316 6.2831853071796004 $202 $317 forward 7 unknown #
loop $-1 $-1 $209 $127 #
plane-surface $-1 -13.537548437434765 -7.7603248745076279 97.039762878090514 0.78801076186113728 0 0.61566146476048833 0.61566146476048833 0 -0.78801076186113728 forward_v I I I I #
loop $-1 $-1 $318 $81 #
coedge $-1 $207 $207 $208 $319 reversed $128 $-1 #
coedge $-1 $208 $208 $207 $319 forward $130 $-1 #
coedge $-1 $209 $209 $131 $210 forward $204 $-1 #
edge $-1 $320 0 $320 6.2831853071796004 $209 $321 forward 7 unknown #
face $-1 $322 $323 $44 $-1 $324 reversed single #
loop $-1 $-1 $325 $132 #
plane-surface $-1 78.694846163530642 14.432252309243577 169.09960508669749 0 1 0 0.78801076186113728 0 0.61566146476048833 forward_v I I I I #
coedge $-1 $326 $327 $328 $329 reversed $133 $-1 #
coedge $-1 $216 $135 $330 $331 reversed $85 $-1 #
coedge $-1 $135 $215 $326 $332 reversed $85 $-1 #
coedge $-1 $328 $333 $135 $218 forward $334 $-1 #
edge $-1 $335 -19.174870689406895 $336 -15.175109101656595 $217 $337 forward 7 unknown #
loop $-1 $-1 $224 $136 #
plane-surface $-1 -13.537548437434765 19.146383803131563 97.039762878090514 0.78801076186113728 0 0.61566146476048833 0.61566146476048833 0 -0.78801076186113728 forward_v I I I I #
loop $-1 $-1 $338 $87 #
coedge $-1 $222 $222 $223 $339 reversed $137 $-1 #
coedge $-1 $223 $223 $222 $339 forward $139 $-1 #
coedge $-1 $224 $224 $140 $225 forward $219 $-1 #
edge $-1 $340 0 $340 6.2831853071796004 $224 $341 forward 7 unknown #
loop $-1 $-1 $231 $141 #
plane-surface $-1 -13.537548437434765 19.146383803131563 97.039762878090514 0.78801076186113728 0 0.61566146476048833 0.61566146476048833 0 -0.78801076186113728 forward_v I I I I #
loop $-1 $-1 $342 $90 #
coedge $-1 $229 $229 $230 $343 reversed $142 $-1 #
coedge $-1 $230 $230 $229 $343 forward $144 $-1 #
coedge $-1 $231 $231 $145 $232 forward $226 $-1 #
edge $-1 $344 0 $344 6.2831853071796004 $231 $345 forward 7 unknown #
loop $-1 $-1 $238 $146 #
plane-surface $-1 -13.537548437434765 19.146383803131563 97.039762878090514 0.78801076186113728 0 0.61566146476048833 0.61566146476048833 0 -0.78801076186113728 forward_v I I I I #
loop $-1 $-1 $346 $93 #
coedge $-1 $236 $236 $237 $347 reversed $147 $-1 #
coedge $-1 $237 $237 $236 $347 forward $149 $-1 #
coedge $-1 $238 $238 $150 $239 forward $233 $-1 #
edge $-1 $348 0 $348 6.2831853071796004 $238 $349 forward 7 unknown #
face $-1 $350 $351 $36 $-1 $352 reversed single #
loop $-1 $-1 $353 $151 #
plane-surface $-1 -58.522293771172215 0 0 1 0 0 0 0 -1 forward_v I I I I #
coedge $-1 $354 $251 $355 $356 forward $152 $-1 #
coedge $-1 $357 $154 $354 $358 forward $97 $-1 #
coedge $-1 $154 $357 $359 $360 forward $97 $-1 #
coedge $-1 $254 $253 $154 $247 reversed $255 $-1 #
edge $-1 $361 -28.833396729691586 $362 28.833396729691586 $246 $363 forward 7 unknown #
coedge $-1 $156 $155 $364 $365 forward $61 $-1 #
coedge $-1 $366 $367 $155 $250 reversed $351 $-1 #
edge $-1 $257 -58.522293771172215 $368 58.522293771172215 $249 $369 forward 7 unknown #
coedge $-1 $243 $370 $156 $252 reversed $152 $-1 #
edge $-1 $371 -58.522293771172215 $256 58.522293771172215 $251 $372 forward 7 unknown #
coedge $-1 $246 $157 $370 $373 forward $255 $-1 #
coedge $-1 $157 $246 $366 $374 reversed $255 $-1 #
loop $-1 $-1 $253 $350 #
vertex $-1 $158 $375 #
vertex $-1 $158 $376 #
straight-curve $-1 58.522293771172215 0 9.9268297936132015 0 1 0 I I #
face $-1 $377 $378 $37 $-1 $379 reversed single #
loop $-1 $-1 $265 $159 #
plane-surface $-1 58.522293771172215 0 0 -1 0 0 0 0 1 forward_v I I I I #
coedge $-1 $380 $381 $263 $382 forward $160 $-1 #
coedge $-1 $383 $162 $262 $382 reversed $101 $-1 #
coedge $-1 $162 $383 $163 $268 reversed $101 $-1 #
coedge $-1 $165 $384 $162 $266 forward $260 $-1 #
edge $-1 $385 -6.2354954034716039 $272 -1.1471733768115913 $265 $386 forward 7 unknown #
coedge $-1 $164 $163 $387 $388 reversed $64 $-1 #
edge $-1 $272 -58.522293771172215 $389 58.522293771172215 $264 $390 forward 7 unknown #
coedge $-1 $391 $392 $164 $270 forward $378 $-1 #
edge $-1 $273 -58.522293771172215 $393 58.522293771172215 $269 $394 forward 7 unknown #
coedge $-1 $384 $165 $392 $395 forward $260 $-1 #
vertex $-1 $166 $396 #
vertex $-1 $395 $397 #
straight-curve $-1 58.522293771172215 -11.570183632689808 -4.8385077669531888 0 -1 0 I I #
face $-1 $-1 $287 $38 $-1 $398 forward single #
loop $-1 $-1 $399 $167 #
plane-surface $-1 -58.522293771172215 0 0 1 0 0 0 0 -1 forward_v I I I I #
coedge $-1 $400 $401 $280 $402 forward $168 $-1 #
coedge $-1 $403 $170 $172 $285 forward $105 $-1 #
coedge $-1 $170 $403 $278 $402 reversed $105 $-1 #
coedge $-1 $404 $173 $170 $282 forward $287 $-1 #
edge $-1 $289 5.7964130341345168 $405 17.290126808416218 $281 $406 forward 7 unknown #
coedge $-1 $407 $399 $171 $284 forward $276 $-1 #
edge $-1 $408 -32.94105754381274 $288 -27.571302546821705 $283 $409 forward 7 unknown #
edge $-1 $289 -6.7236616380581999 $408 2.3448253187574213e-014 $172 $410 forward 7 unknown #
coedge $-1 $173 $404 $407 $411 forward $287 $-1 #
loop $-1 $-1 $281 $275 #
vertex $-1 $284 $412 #
vertex $-1 $174 $413 #
straight-curve $-1 -75.999129301947519 17.339682955409884 9.9268297936132015 1 0 0 I I #
coedge $-1 $291 $291 $-1 $414 reversed $177 $-1 #
edge $-1 $415 0 $415 6.2831853071796004 $178 $416 forward 7 unknown #
vertex $-1 $181 $417 #
ellipse-curve $-1 -56.499093515674396 23.086539842550735 7.2419522951176933 -0.79863551827123203 0 0.60181501223851219 0.60181501223851219 0 0.79863551827123203 1 I I #
face $-1 $-1 $418 $40 $-1 $419 reversed single #
loop $-1 $-1 $188 $182 #
plane-surface $-1 0 0 9.9268297936132015 0 0 1 1 0 0 forward_v I I I I #
coedge $-1 $420 $421 $422 $423 reversed $183 $-1 #
coedge $-1 $424 $185 $187 $305 forward $114 $-1 #
coedge $-1 $185 $424 $420 $425 forward $114 $-1 #
coedge $-1 $422 $188 $185 $302 forward $296 $-1 #
edge $-1 $308 -0.83396905663417265 $426 8.5942939311418005 $301 $427 forward 7 unknown #
coedge $-1 $428 $429 $186 $304 forward $418 $-1 #
edge $-1 $430 -79.74243426622364 $307 -74.622972749735538 $303 $431 forward 7 unknown #
edge $-1 $308 110.54789769461078 $430 117.04458754234443 $187 $432 forward 7 unknown #
coedge $-1 $188 $422 $428 $433 forward $296 $-1 #
vertex $-1 $304 $434 #
vertex $-1 $189 $435 #
straight-curve $-1 39.347423081765321 -3.0461933806196413 9.9268297936132086 -1 0 0 I I #
coedge $-1 $310 $310 $-1 $436 reversed $192 $-1 #
edge $-1 $437 0 $437 6.2831853071796004 $193 $438 forward 7 unknown #
vertex $-1 $196 $439 #
ellipse-curve $-1 56.52241297729708 -10.588803770840421 7.3670990353691463 0.78801076186113728 0 0.61566146476048833 0.30783073238024417 0 -0.39400538093056864 1 I I #
coedge $-1 $314 $314 $-1 $440 reversed $199 $-1 #
edge $-1 $441 0 $441 6.2831853071796004 $200 $442 forward 7 unknown #
vertex $-1 $203 $443 #
ellipse-curve $-1 56.52241297729708 -7.7603248745076279 7.3670990353691463 0.78801076186113728 0 0.61566146476048833 0.30783073238024417 0 -0.39400538093056864 1 I I #
coedge $-1 $318 $318 $-1 $444 reversed $206 $-1 #
edge $-1 $445 0 $445 6.2831853071796004 $207 $446 forward 7 unknown #
vertex $-1 $210 $447 #
ellipse-curve $-1 56.52241297729708 -4.9318459781748345 7.3670990353691463 0.78801076186113728 0 0.61566146476048833 0.30783073238024417 0 -0.39400538093056864 1 I I #
face $-1 $-1 $334 $44 $-1 $448 forward single #
loop $-1 $-1 $449 $211 #
plane-surface $-1 58.522293771172215 0 0 -1 0 0 0 0 1 forward_v I I I I #
coedge $-1 $450 $451 $452 $453 reversed $212 $-1 #
coedge $-1 $454 $214 $216 $332 forward $133 $-1 #
coedge $-1 $214 $454 $450 $455 forward $133 $-1 #
coedge $-1 $452 $217 $214 $329 forward $334 $-1 #
edge $-1 $336 -14.287323395453768 $456 -4.859060407677795 $328 $457 forward 7 unknown #
coedge $-1 $458 $459 $215 $331 forward $323 $-1 #
edge $-1 $460 -79.74243426622364 $335 -74.622972749735538 $330 $461 forward 7 unknown #
edge $-1 $336 110.54789769461078 $460 117.04458754234443 $216 $462 forward 7 unknown #
coedge $-1 $217 $452 $458 $463 forward $334 $-1 #
loop $-1 $-1 $452 $322 #
vertex $-1 $331 $464 #
vertex $-1 $218 $465 #
straight-curve $-1 39.347423081765321 23.86051529701955 9.9268297936132086 -1 0 0 I I #
coedge $-1 $338 $338 $-1 $466 reversed $221 $-1 #
edge $-1 $467 0 $467 6.2831853071796004 $222 $468 forward 7 unknown #
vertex $-1 $225 $469 #
ellipse-curve $-1 56.52241297729708 16.317904906798773 7.3670990353691463 0.78801076186113728 0 0.61566146476048833 0.30783073238024417 0 -0.39400538093056864 1 I I #
coedge $-1 $342 $342 $-1 $470 reversed $228 $-1 #
edge $-1 $471 0 $471 6.2831853071796004 $229 $472 forward 7 unknown #
vertex $-1 $232 $473 #
ellipse-curve $-1 56.52241297729708 19.146383803131563 7.3670990353691463 0.78801076186113728 0 0.61566146476048833 0.30783073238024417 0 -0.39400538093056864 1 I I #
coedge $-1 $346 $346 $-1 $474 reversed $235 $-1 #
edge $-1 $475 0 $475 6.2831853071796004 $236 $476 forward 7 unknown #
vertex $-1 $239 $477 #
ellipse-curve $-1 56.52241297729708 21.974862699464353 7.3670990353691463 0.78801076186113728 0 0.61566146476048833 0.30783073238024417 0 -0.39400538093056864 1 I I #
face $-1 $-1 $255 $36 $-1 $478 reversed single #
loop $-1 $-1 $366 $240 #
plane-surface $-1 0 28.833396729691586 0 0 -1 0 0 0 -1 forward_v I I I I #
coedge $-1 $479 $364 $367 $480 forward $241 $-1 #
coedge $-1 $370 $243 $244 $358 reversed $152 $-1 #
coedge $-1 $364 $479 $243 $356 reversed $241 $-1 #
edge $-1 $371 -9.9268297936132015 $481 9.9268297936132015 $355 $482 forward 7 unknown #
coedge $-1 $245 $244 $479 $483 forward $97 $-1 #
edge $-1 $362 -58.522293771172215 $481 58.522293771172215 $354 $484 forward 7 unknown #
coedge $-1 $367 $366 $245 $360 reversed $351 $-1 #
edge $-1 $485 -58.522293771172215 $361 58.522293771172215 $359 $486 forward 7 unknown #
vertex $-1 $247 $487 #
vertex $-1 $373 $488 #
straight-curve $-1 58.522293771172215 0 -9.9268297936132015 0 -1 0 I I #
coedge $-1 $353 $355 $248 $365 reversed $241 $-1 #
edge $-1 $368 -28.833396729691586 $371 28.833396729691586 $364 $489 forward 7 unknown #
coedge $-1 $359 $249 $254 $374 forward $351 $-1 #
coedge $-1 $249 $359 $353 $480 reversed $351 $-1 #
vertex $-1 $250 $490 #
straight-curve $-1 0 28.833396729691586 9.9268297936132015 -1 0 0 I I #
coedge $-1 $251 $354 $253 $373 reversed $152 $-1 #
vertex $-1 $365 $491 #
straight-curve $-1 0 -28.833396729691586 9.9268297936132015 1 0 0 I I #
edge $-1 $256 -9.9268297936132015 $362 9.9268297936132015 $253 $492 forward 7 unknown #
edge $-1 $257 -9.9268297936132015 $361 9.9268297936132015 $254 $493 forward 7 unknown #
point $-1 58.522293771172215 -28.833396729691586 9.9268297936132015 #
point $-1 58.522293771172215 28.833396729691586 9.9268297936132015 #
face $-1 $-1 $494 $37 $-1 $495 reversed single #
loop $-1 $-1 $269 $259 #
plane-surface $-1 0 -28.833396729691586 0 0 1 0 0 0 1 forward_v I I I I #
coedge $-1 $496 $262 $384 $497 forward $160 $-1 #
coedge $-1 $262 $496 $498 $499 forward $160 $-1 #
edge $-1 $500 -58.522293771172215 $385 58.522293771172215 $262 $501 forward 7 unknown #
coedge $-1 $264 $263 $502 $503 reversed $101 $-1 #
coedge $-1 $265 $271 $380 $497 reversed $260 $-1 #
vertex $-1 $497 $504 #
straight-curve $-1 58.522293771172215 -17.447337801067647 -3.6913343901415976 0 0 1 I I #
coedge $-1 $502 $505 $267 $388 forward $494 $-1 #
edge $-1 $393 -17.263213097001778 $389 -5.8771541683778388 $387 $506 forward 7 unknown #
vertex $-1 $388 $507 #
straight-curve $-1 0 -17.447337801067647 -4.8385077669531888 -1 0 0 I I #
coedge $-1 $508 $269 $505 $509 forward $378 $-1 #
coedge $-1 $269 $508 $271 $395 reversed $378 $-1 #
vertex $-1 $509 $510 #
straight-curve $-1 0 -28.833396729691586 -4.8385077669531888 -1 0 0 I I #
edge $-1 $273 4.8385077669531888 $511 9.9268297936132015 $271 $512 forward 7 unknown #
point $-1 58.522293771172215 -17.447337801067647 -4.8385077669531888 #
point $-1 58.522293771172215 -28.833396729691586 -4.8385077669531888 #
plane-surface $-1 0 0 9.9268297936132015 0 0 1 1 0 0 forward_v I I I I #
coedge $-1 $283 $513 $403 $514 forward $276 $-1 #
coedge $-1 $401 $278 $513 $515 reversed $168 $-1 #
coedge $-1 $278 $400 $404 $516 reversed $168 $-1 #
edge $-1 $405 9.0664149370031346 $517 15.790076575061356 $278 $518 forward 7 unknown #
coedge $-1 $280 $279 $399 $514 reversed $105 $-1 #
coedge $-1 $286 $281 $401 $516 forward $287 $-1 #
vertex $-1 $516 $519 #
straight-curve $-1 -54.475893260176584 11.543269921275368 9.9268297936132033 0 1 0 I I #
coedge $-1 $513 $283 $286 $411 reversed $276 $-1 #
vertex $-1 $284 $520 #
straight-curve $-1 -58.522293771172215 17.339682955409884 37.498132340434907 0 0 1 I I #
straight-curve $-1 -58.522293771172201 17.339682955409884 4.5570747966221887 -0.60181501223851219 0 -0.79863551827123203 I I #
edge $-1 $521 -28.833396729691586 $288 -17.339682955409884 $407 $522 forward 7 unknown #
point $-1 -58.522293771172215 17.339682955409884 9.9268297936132015 #
point $-1 -54.475893260176591 17.339682955409884 9.9268297936132015 #
edge $-1 $523 1 $523 0 $291 $-1 forward 7 unknown #
vertex $-1 $292 $524 #
ellipse-curve $-1 -55.04962135552578 23.086539842550735 6.1496967093813124 -0.79863551827123203 0 0.60181501223851219 0.60181501223851219 0 0.79863551827123203 1 I I #
point $-1 -55.897278503435899 23.086539842550735 8.0405878133889352 #
loop $-1 $-1 $303 $295 #
plane-surface $-1 58.522293771172215 0 0 -1 0 0 0 0 1 forward_v I I I I #
coedge $-1 $421 $298 $300 $425 reversed $183 $-1 #
coedge $-1 $298 $420 $525 $526 reversed $183 $-1 #
coedge $-1 $306 $301 $298 $423 forward $296 $-1 #
edge $-1 $426 15.175109101656595 $527 19.174870689406895 $422 $528 forward 7 unknown #
coedge $-1 $300 $299 $429 $529 reversed $114 $-1 #
edge $-1 $530 -117.04458754234443 $426 -110.54789769461078 $420 $531 forward 7 unknown #
vertex $-1 $302 $532 #
straight-curve $-1 54.52253218342193 -3.8801624372538139 9.9268297936132015 0 -1 0 I I #
coedge $-1 $525 $303 $306 $433 reversed $418 $-1 #
coedge $-1 $303 $525 $424 $529 forward $418 $-1 #
vertex $-1 $304 $533 #
straight-curve $-1 58.522293771172215 -3.0461933806196413 84.549802543348747 0 0 1 I I #
straight-curve $-1 -13.537548437434765 -3.0461933806196413 97.039762878090514 0.61566146476048833 0 -0.78801076186113728 I I #
edge $-1 $527 -12.474456368395614 $307 -3.0461933806196413 $428 $534 forward 7 unknown #
point $-1 58.522293771172215 -3.0461933806196413 9.9268297936132015 #
point $-1 54.522532183421916 -3.0461933806196413 9.9268297936132086 #
edge $-1 $535 1 $535 0 $310 $-1 forward 7 unknown #
vertex $-1 $311 $536 #
ellipse-curve $-1 55.099811499819268 -10.588803770840421 6.2556409794844212 0.78801076186113728 0 0.61566146476048833 0.30783073238024417 0 -0.39400538093056864 1 I I #
point $-1 56.830243709677305 -10.588803770840421 6.9730936544385633 #
edge $-1 $537 1 $537 0 $314 $-1 forward 7 unknown #
vertex $-1 $315 $538 #
ellipse-curve $-1 55.099811499819268 -7.7603248745076279 6.2556409794844212 0.78801076186113728 0 0.61566146476048833 0.30783073238024417 0 -0.39400538093056864 1 I I #
point $-1 56.830243709677305 -7.7603248745076279 6.9730936544385633 #
edge $-1 $539 1 $539 0 $318 $-1 forward 7 unknown #
vertex $-1 $319 $540 #
ellipse-curve $-1 55.099811499819268 -4.9318459781748345 6.2556409794844212 0.78801076186113728 0 0.61566146476048833 0.30783073238024417 0 -0.39400538093056864 1 I I #
point $-1 56.830243709677305 -4.9318459781748345 6.9730936544385633 #
plane-surface $-1 0 0 9.9268297936132015 0 0 1 1 0 0 forward_v I I I I #
coedge $-1 $459 $458 $451 $541 forward $323 $-1 #
coedge $-1 $451 $325 $327 $455 reversed $212 $-1 #
coedge $-1 $325 $450 $449 $541 reversed $212 $-1 #
coedge $-1 $333 $328 $325 $453 forward $334 $-1 #
edge $-1 $456 15.175109101656595 $542 19.174870689406895 $452 $543 forward 7 unknown #
coedge $-1 $327 $326 $459 $544 reversed $133 $-1 #
edge $-1 $545 -117.04458754234443 $456 -110.54789769461078 $450 $546 forward 7 unknown #
vertex $-1 $329 $547 #
straight-curve $-1 54.52253218342193 9.5731919015657816 9.9268297936132015 0 -1 0 I I #
coedge $-1 $449 $330 $333 $463 reversed $323 $-1 #
coedge $-1 $330 $449 $454 $544 forward $323 $-1 #
vertex $-1 $331 $548 #
straight-curve $-1 58.522293771172215 23.86051529701955 84.549802543348747 0 0 1 I I #
straight-curve $-1 -13.537548437434765 23.86051529701955 97.039762878090514 0.61566146476048833 0 -0.78801076186113728 I I #
edge $-1 $542 14.432252309243577 $335 23.86051529701955 $458 $549 forward 7 unknown #
point $-1 58.522293771172215 23.86051529701955 9.9268297936132015 #
point $-1 54.522532183421916 23.86051529701955 9.9268297936132086 #
edge $-1 $550 1 $550 0 $338 $-1 forward 7 unknown #
vertex $-1 $339 $551 #
ellipse-curve $-1 55.099811499819268 16.317904906798773 6.2556409794844212 0.78801076186113728 0 0.61566146476048833 0.30783073238024417 0 -0.39400538093056864 1 I I #
point $-1 56.830243709677305 16.317904906798773 6.9730936544385633 #
edge $-1 $552 1 $552 0 $342 $-1 forward 7 unknown #
vertex $-1 $343 $553 #
ellipse-curve $-1 55.099811499819268 19.146383803131563 6.2556409794844212 0.78801076186113728 0 0.61566146476048833 0.30783073238024417 0 -0.39400538093056864 1 I I #
point $-1 56.830243709677305 19.146383803131563 6.9730936544385633 #
edge $-1 $554 1 $554 0 $346 $-1 forward 7 unknown #
vertex $-1 $347 $555 #
ellipse-curve $-1 55.099811499819268 21.974862699464353 6.2556409794844212 0.78801076186113728 0 0.61566146476048833 0.30783073238024417 0 -0.39400538093056864 1 I I #
point $-1 56.830243709677305 21.974862699464353 6.9730936544385633 #
plane-surface $-1 58.522293771172215 0 0 -1 0 0 0 0 1 forward_v I I I I #
coedge $-1 $355 $353 $357 $483 reversed $241 $-1 #
edge $-1 $368 -9.9268297936132015 $485 9.9268297936132015 $367 $556 forward 7 unknown #
vertex $-1 $483 $557 #
straight-curve $-1 -58.522293771172215 -28.833396729691586 0 0 0 -1 I I #
edge $-1 $481 -28.833396729691586 $485 28.833396729691586 $479 $558 forward 7 unknown #
straight-curve $-1 0 -28.833396729691586 -9.9268297936132015 -1 0 0 I I #
vertex $-1 $360 $559 #
straight-curve $-1 0 28.833396729691586 -9.9268297936132015 1 0 0 I I #
point $-1 58.522293771172215 28.833396729691586 -9.9268297936132015 #
point $-1 58.522293771172215 -28.833396729691586 -9.9268297936132015 #
straight-curve $-1 -58.522293771172215 0 9.9268297936132015 0 -1 0 I I #
point $-1 -58.522293771172215 28.833396729691586 9.9268297936132015 #
point $-1 -58.522293771172215 -28.833396729691586 9.9268297936132015 #
straight-curve $-1 58.522293771172215 -28.833396729691586 0 0 0 -1 I I #
straight-curve $-1 58.522293771172215 28.833396729691586 0 0 0 -1 I I #
loop $-1 $-1 $502 $377 #
plane-surface $-1 -58.522293771172215 0 0 1 0 0 0 0 -1 forward_v I I I I #
coedge $-1 $381 $380 $508 $560 forward $160 $-1 #
edge $-1 $385 17.447337801067647 $511 28.833396729691586 $384 $561 forward 7 unknown #
coedge $-1 $505 $502 $381 $499 reversed $494 $-1 #
edge $-1 $562 -28.833396729691586 $500 -17.447337801067647 $498 $563 forward 7 unknown #
vertex $-1 $503 $564 #
straight-curve $-1 0 -17.447337801067647 -9.9268297936132015 1 0 0 I I #
coedge $-1 $498 $387 $383 $503 forward $494 $-1 #
edge $-1 $389 1.1471733768115913 $500 6.2354954034716039 $502 $565 forward 7 unknown #
point $-1 58.522293771172215 -17.447337801067647 -9.9268297936132015 #
coedge $-1 $387 $498 $391 $509 reversed $494 $-1 #
straight-curve $-1 -58.522293771172215 -11.570183632689808 -4.8385077669531888 0 1 0 I I #
point $-1 -58.522293771172215 -17.447337801067647 -4.8385077669531888 #
coedge $-1 $392 $391 $496 $560 reversed $378 $-1 #
edge $-1 $393 4.8385077669531888 $562 9.9268297936132015 $505 $566 forward 7 unknown #
point $-1 -58.522293771172215 -28.833396729691586 -4.8385077669531888 #
vertex $-1 $395 $567 #
straight-curve $-1 58.522293771172215 -28.833396729691586 0 0 0 -1 I I #
coedge $-1 $399 $407 $400 $515 forward $276 $-1 #
edge $-1 $517 -17.290126808416218 $408 -5.7964130341345168 $399 $568 forward 7 unknown #
edge $-1 $521 -9.9268297936132015 $517 -4.5570747966221701 $400 $569 forward 7 unknown #
edge $-1 $405 54.475893260176591 $521 58.522293771172215 $401 $570 forward 7 unknown #
vertex $-1 $402 $571 #
straight-curve $-1 -49.019588643904619 28.833396729691586 17.167590785688738 -0.60181501223851219 0 -0.79863551827123203 I I #
point $-1 -54.475893260176591 28.833396729691586 9.9268297936132015 #
point $-1 -58.522293771172215 17.339682955409884 4.5570747966221701 #
vertex $-1 $516 $572 #
straight-curve $-1 -58.522293771172215 0 9.9268297936132015 0 -1 0 I I #
vertex $-1 $414 $573 #
point $-1 -54.447806343287269 23.086539842550735 6.9483322276525445 #
coedge $-1 $429 $428 $421 $526 forward $418 $-1 #
edge $-1 $527 74.622972749735538 $530 79.74243426622364 $525 $574 forward 7 unknown #
vertex $-1 $433 $575 #
straight-curve $-1 39.347423081765321 -12.474456368395614 9.9268297936132086 1 0 0 I I #
edge $-1 $530 -8.5942939311418005 $430 0.83396905663417265 $429 $576 forward 7 unknown #
vertex $-1 $529 $577 #
straight-curve $-1 -13.537548437434765 -12.474456368395614 97.039762878090514 -0.61566146476048833 0 0.78801076186113728 I I #
point $-1 54.522532183421916 -12.474456368395614 9.9268297936132086 #
point $-1 58.522293771172215 -3.0461933806196413 4.8073682771251072 #
straight-curve $-1 58.522293771172215 0 9.9268297936132015 0 1 0 I I #
vertex $-1 $436 $578 #
point $-1 55.407642232199514 -10.588803770840421 5.8616355985538524 #
vertex $-1 $440 $579 #
point $-1 55.407642232199514 -7.7603248745076279 5.8616355985538524 #
vertex $-1 $444 $580 #
point $-1 55.407642232199514 -4.9318459781748345 5.8616355985538524 #
edge $-1 $542 74.622972749735538 $545 79.74243426622364 $449 $581 forward 7 unknown #
vertex $-1 $463 $582 #
straight-curve $-1 39.347423081765321 14.432252309243577 9.9268297936132086 1 0 0 I I #
edge $-1 $545 4.859060407677795 $460 14.287323395453768 $459 $583 forward 7 unknown #
vertex $-1 $544 $584 #
straight-curve $-1 -13.537548437434765 14.432252309243577 97.039762878090514 -0.61566146476048833 0 0.78801076186113728 I I #
point $-1 54.522532183421916 14.432252309243577 9.9268297936132086 #
point $-1 58.522293771172215 23.86051529701955 4.8073682771251072 #
straight-curve $-1 58.522293771172215 0 9.9268297936132015 0 1 0 I I #
vertex $-1 $466 $585 #
point $-1 55.407642232199514 16.317904906798773 5.8616355985538524 #
vertex $-1 $470 $586 #
point $-1 55.407642232199514 19.146383803131563 5.8616355985538524 #
vertex $-1 $474 $587 #
point $-1 55.407642232199514 21.974862699464353 5.8616355985538524 #
straight-curve $-1 -58.522293771172215 28.833396729691586 0 0 0 -1 I I #
point $-1 -58.522293771172215 -28.833396729691586 -9.9268297936132015 #
straight-curve $-1 -58.522293771172215 0 -9.9268297936132015 0 1 0 I I #
point $-1 -58.522293771172215 28.833396729691586 -9.9268297936132015 #
edge $-1 $511 -58.522293771172215 $562 58.522293771172215 $508 $588 forward 7 unknown #
straight-curve $-1 58.522293771172215 0 -9.9268297936132015 0 -1 0 I I #
vertex $-1 $499 $589 #
straight-curve $-1 -58.522293771172215 0 -9.9268297936132015 0 1 0 I I #
point $-1 -58.522293771172215 -17.447337801067647 -9.9268297936132015 #
straight-curve $-1 -58.522293771172215 -17.447337801067647 -3.6913343901415976 0 0 -1 I I #
straight-curve $-1 -58.522293771172215 -28.833396729691586 0 0 0 -1 I I #
point $-1 58.522293771172215 -28.833396729691586 -9.9268297936132015 #
straight-curve $-1 -58.522293771172215 11.543269921275368 4.5570747966221692 0 -1 0 I I #
straight-curve $-1 -58.522293771172215 28.833396729691586 0 0 0 -1 I I #
straight-curve $-1 0 28.833396729691586 9.9268297936132015 -1 0 0 I I #
point $-1 -58.522293771172215 28.833396729691586 4.5570747966221701 #
point $-1 -58.522293771172215 28.833396729691586 9.9268297936132015 #
point $-1 -54.250985837254554 23.086539842550735 5.5478816971427998 #
straight-curve $-1 58.522293771172215 -12.474456368395614 84.549802543348747 0 0 -1 I I #
point $-1 58.522293771172215 -12.474456368395614 9.9268297936132015 #
straight-curve $-1 58.522293771172215 -3.8801624372538139 4.8073682771251001 0 1 0 I I #
point $-1 58.522293771172215 -12.474456368395614 4.8073682771251072 #
point $-1 54.705806118888702 -10.588803770840421 5.9478102471041767 #
point $-1 54.705806118888702 -7.7603248745076279 5.9478102471041767 #
point $-1 54.705806118888702 -4.9318459781748345 5.9478102471041767 #
straight-curve $-1 58.522293771172215 14.432252309243577 84.549802543348747 0 0 -1 I I #
point $-1 58.522293771172215 14.432252309243577 9.9268297936132015 #
straight-curve $-1 58.522293771172215 9.5731919015657816 4.8073682771251001 0 1 0 I I #
point $-1 58.522293771172215 14.432252309243577 4.8073682771251072 #
point $-1 54.705806118888702 16.317904906798773 5.9478102471041767 #
point $-1 54.705806118888702 19.146383803131563 5.9478102471041767 #
point $-1 54.705806118888702 21.974862699464353 5.9478102471041767 #
straight-curve $-1 0 -28.833396729691586 -9.9268297936132015 -1 0 0 I I #
point $-1 -58.522293771172215 -28.833396729691586 -9.9268297936132015 #
End-of-ACIS-data 