500 0 6 0           
7 Unknown 11 ACIS 5.0 NT 24 Thu Mar 25 22:20:40 1999 
-1 9.9999999999999995e-007 1e-010 
body $-1 $6 $-1 $7 #
body $-1 $8 $-1 $9 #
body $-1 $10 $-1 $11 #
body $-1 $12 $-1 $13 #
body $-1 $14 $-1 $15 #
body $-1 $16 $-1 $17 #
lump $-1 $-1 $18 $0 #
transform $-1 1 0 0 0 1 0 0 0 1 73.061311685537277 36.022725095310363 9.3334554212065637 1 rotate no_reflect no_shear #
lump $-1 $-1 $19 $1 #
transform $-1 1 0 0 0 1 0 0 0 1 73.061311685537277 36.022725095310363 9.3334554212065637 1 rotate no_reflect no_shear #
lump $-1 $-1 $20 $2 #
transform $-1 1 0 0 0 1 0 0 0 1 73.061311685537277 36.022725095310363 9.3334554212065637 1 rotate no_reflect no_shear #
lump $-1 $-1 $21 $3 #
transform $-1 1 0 0 0 1 0 0 0 1 73.061311685537277 36.022725095310363 9.3334554212065637 1 rotate no_reflect no_shear #
lump $-1 $-1 $22 $4 #
transform $-1 1 0 0 0 1 0 0 0 1 73.061311685537277 36.022725095310363 9.3334554212065637 1 rotate no_reflect no_shear #
lump $-1 $-1 $23 $5 #
transform $-1 1 0 0 0 1 0 0 0 1 73.061311685537277 36.022725095310363 9.3334554212065637 1 rotate no_reflect no_shear #
shell $-1 $-1 $-1 $24 $-1 $6 #
shell $-1 $-1 $-1 $25 $-1 $8 #
shell $-1 $-1 $-1 $26 $-1 $10 #
shell $-1 $-1 $-1 $27 $-1 $12 #
shell $-1 $-1 $-1 $28 $-1 $14 #
shell $-1 $-1 $-1 $29 $-1 $16 #
face $-1 $30 $31 $18 $-1 $32 forward single #
face $-1 $33 $34 $19 $-1 $35 forward single #
face $-1 $36 $37 $20 $-1 $38 reversed single #
face $-1 $39 $40 $21 $-1 $41 forward single #
face $-1 $42 $43 $22 $-1 $44 reversed single #
face $-1 $45 $46 $23 $-1 $47 forward single #
face $-1 $48 $49 $18 $-1 $50 reversed single #
loop $-1 $-1 $51 $24 #
plane-surface $-1 0 0 9.3334554212065637 0 0 1 1 0 0 forward_v I I I I #
face $-1 $52 $53 $19 $-1 $54 reversed single #
loop $-1 $-1 $55 $25 #
plane-surface $-1 0 -36.022725095310363 0 0 1 0 0 0 1 forward_v I I I I #
face $-1 $56 $57 $20 $-1 $58 reversed single #
loop $-1 $-1 $59 $26 #
plane-surface $-1 -183.34145664211982 -19.282725192655874 101.31326313397358 0 1 0 -0.75470958851134928 0 0.65605901945558964 forward_v I I I I #
face $-1 $60 $61 $21 $-1 $62 forward single #
loop $-1 $63 $64 $27 #
cone-surface $-1 -70.487421074316998 -15.368982069122957 6.6213434442089669 0.75470958851134928 0 -0.65605901945558964 0.65605901945558964 0 0.75470958851134928 1 I I 0 1 1 forward I I I I #
face $-1 $65 $66 $22 $-1 $67 reversed single #
loop $-1 $-1 $68 $28 #
plane-surface $-1 87.476391633014231 -11.455238945590038 211.59340809055612 0 -1 0 -0.75470958851134928 0 -0.65605901945558964 forward_v I I I I #
face $-1 $69 $70 $23 $-1 $71 forward single #
loop $-1 $72 $73 $29 #
cone-surface $-1 70.487421074316998 -15.368982069122957 6.6213434442089811 -0.75470958851134928 0 -0.65605901945558964 0.65605901945558964 0 -0.75470958851134928 1 I I 0 1 1 forward I I I I #
face $-1 $74 $75 $18 $-1 $76 reversed single #
loop $-1 $-1 $77 $30 #
plane-surface $-1 0 0 -9.3334554212065637 0 0 1 1 0 0 forward_v I I I I #
coedge $-1 $78 $79 $80 $81 forward $31 $-1 #
face $-1 $82 $83 $19 $-1 $84 reversed single #
loop $-1 $-1 $85 $33 #
plane-surface $-1 0 0 -9.3334554212065637 0 0 1 1 0 0 forward_v I I I I #
coedge $-1 $86 $87 $88 $89 forward $34 $-1 #
face $-1 $90 $91 $20 $-1 $92 reversed single #
loop $-1 $-1 $93 $36 #
plane-surface $-1 -73.061311685537277 -15.368982069122957 5.4481981248679858 -0.75470958851134928 0 0.65605901945558964 0.65605901945558964 0 0.75470958851134928 forward_v I I I I #
coedge $-1 $94 $95 $96 $97 reversed $37 $-1 #
face $-1 $-1 $98 $21 $-1 $99 forward single #
loop $-1 $100 $101 $39 #
cone-surface $-1 -69.2248769461074 -15.368982069122957 5.5238306056528632 0.75470958851134928 0 -0.65605901945558964 0.32802950972779482 0 0.37735479425567464 1 I I -0.70710678118654746 0.70710678118654746 0.5 forward I I I I #
loop $-1 $-1 $102 $27 #
coedge $-1 $64 $64 $103 $104 reversed $40 $-1 #
face $-1 $105 $106 $22 $-1 $107 reversed single #
loop $-1 $-1 $108 $42 #
plane-surface $-1 -22.803753323568316 -15.368982069122957 115.72834308145053 0.75470958851134928 0 0.65605901945558964 0.65605901945558964 0 -0.75470958851134928 forward_v I I I I #
coedge $-1 $109 $110 $111 $112 reversed $43 $-1 #
face $-1 $-1 $113 $23 $-1 $114 forward single #
loop $-1 $115 $116 $45 #
cone-surface $-1 69.2248769461074 -15.368982069122957 5.5238306056528774 -0.75470958851134928 0 -0.65605901945558964 0.32802950972779482 0 -0.37735479425567464 1 I I -0.70710678118654746 0.70710678118654746 0.5 forward I I I I #
loop $-1 $-1 $117 $29 #
coedge $-1 $73 $73 $118 $119 reversed $46 $-1 #
face $-1 $120 $121 $18 $-1 $122 reversed single #
loop $-1 $-1 $123 $48 #
plane-surface $-1 0 -36.022725095310363 0 0 1 0 0 0 1 forward_v I I I I #
coedge $-1 $124 $125 $126 $127 forward $49 $-1 #
coedge $-1 $128 $51 $129 $130 forward $31 $-1 #
coedge $-1 $51 $128 $131 $132 forward $31 $-1 #
coedge $-1 $133 $134 $51 $81 reversed $135 $-1 #
edge $-1 $136 -36.022725095310363 $137 36.022725095310363 $80 $138 forward 7 unknown #
face $-1 $139 $140 $19 $-1 $141 reversed single #
loop $-1 $-1 $142 $52 #
plane-surface $-1 -65.336817781761084 -47.063194229011671 0 0 1 0 0 0 1 forward_v I I I I #
coedge $-1 $143 $144 $87 $145 forward $53 $-1 #
coedge $-1 $146 $55 $147 $148 reversed $34 $-1 #
coedge $-1 $55 $146 $85 $145 reversed $34 $-1 #
coedge $-1 $149 $150 $55 $89 reversed $140 $-1 #
edge $-1 $151 -9.3334554212065637 $152 9.3334554212065637 $88 $153 forward 7 unknown #
face $-1 $154 $155 $20 $-1 $156 reversed single #
loop $-1 $-1 $157 $56 #
plane-surface $-1 -183.34145664211982 -11.455238945590038 101.31326313397358 0 -1 0 0.75470958851134928 0 -0.65605901945558964 forward_v I I I I #
coedge $-1 $158 $159 $160 $161 reversed $57 $-1 #
coedge $-1 $95 $59 $162 $163 reversed $37 $-1 #
coedge $-1 $59 $94 $158 $164 reversed $37 $-1 #
coedge $-1 $160 $165 $59 $97 forward $166 $-1 #
edge $-1 $167 18.609416635522635 $168 21.986819190055343 $96 $169 forward 7 unknown #
loop $-1 $-1 $103 $60 #
plane-surface $-1 -73.061311685537277 -15.368982069122957 5.4481981248679858 -0.75470958851134928 0 0.65605901945558964 0.65605901945558964 0 0.75470958851134928 forward_v I I I I #
loop $-1 $-1 $170 $39 #
coedge $-1 $101 $101 $102 $171 reversed $61 $-1 #
coedge $-1 $102 $102 $101 $171 forward $63 $-1 #
coedge $-1 $103 $103 $64 $104 forward $98 $-1 #
edge $-1 $172 0 $172 6.2831853071796004 $103 $173 forward 7 unknown #
face $-1 $174 $175 $22 $-1 $176 forward single #
loop $-1 $-1 $177 $65 #
plane-surface $-1 87.476391633014231 -19.282725192655874 211.59340809055612 0 1 0 0.75470958851134928 0 0.65605901945558964 forward_v I I I I #
coedge $-1 $178 $179 $180 $181 reversed $66 $-1 #
coedge $-1 $110 $68 $182 $183 reversed $43 $-1 #
coedge $-1 $68 $109 $178 $184 reversed $43 $-1 #
coedge $-1 $180 $185 $68 $112 forward $175 $-1 #
edge $-1 $186 -29.323115869030161 $187 -25.945713314497453 $111 $188 forward 7 unknown #
loop $-1 $-1 $118 $69 #
plane-surface $-1 -22.803753323568316 -15.368982069122957 115.72834308145053 0.75470958851134928 0 0.65605901945558964 0.65605901945558964 0 -0.75470958851134928 forward_v I I I I #
loop $-1 $-1 $189 $45 #
coedge $-1 $116 $116 $117 $190 reversed $70 $-1 #
coedge $-1 $117 $117 $116 $190 forward $72 $-1 #
coedge $-1 $118 $118 $73 $119 forward $113 $-1 #
edge $-1 $191 0 $191 6.2831853071796004 $118 $192 forward 7 unknown #
face $-1 $193 $194 $18 $-1 $195 reversed single #
loop $-1 $-1 $196 $74 #
plane-surface $-1 -73.061311685537277 0 0 1 0 0 0 0 -1 forward_v I I I I #
coedge $-1 $197 $131 $198 $199 forward $75 $-1 #
coedge $-1 $200 $77 $197 $201 forward $49 $-1 #
coedge $-1 $77 $200 $202 $203 forward $49 $-1 #
coedge $-1 $134 $133 $77 $127 reversed $135 $-1 #
edge $-1 $204 -36.022725095310363 $205 36.022725095310363 $126 $206 forward 7 unknown #
coedge $-1 $79 $78 $207 $208 forward $31 $-1 #
coedge $-1 $209 $210 $78 $130 reversed $194 $-1 #
edge $-1 $137 -73.061311685537277 $211 73.061311685537277 $129 $212 forward 7 unknown #
coedge $-1 $123 $213 $79 $132 reversed $75 $-1 #
edge $-1 $214 -73.061311685537277 $136 73.061311685537277 $131 $215 forward 7 unknown #
coedge $-1 $126 $80 $213 $216 forward $135 $-1 #
coedge $-1 $80 $126 $209 $217 reversed $135 $-1 #
loop $-1 $-1 $133 $193 #
vertex $-1 $81 $218 #
vertex $-1 $81 $219 #
straight-curve $-1 73.061311685537277 0 9.3334554212065637 0 1 0 I I #
face $-1 $220 $221 $19 $-1 $222 reversed single #
loop $-1 $-1 $88 $82 #
plane-surface $-1 -67.336730006189114 -41.542959662161017 0 1 0 0 0 0 -1 forward_v I I I I #
coedge $-1 $223 $224 $225 $226 forward $83 $-1 #
coedge $-1 $227 $85 $228 $229 forward $53 $-1 #
coedge $-1 $85 $227 $149 $230 forward $53 $-1 #
edge $-1 $151 -67.336730006189114 $231 -63.336905557333047 $85 $232 forward 7 unknown #
coedge $-1 $87 $86 $233 $234 forward $34 $-1 #
coedge $-1 $235 $236 $86 $148 forward $237 $-1 #
edge $-1 $238 63.336905557333047 $152 67.336730006189114 $147 $239 forward 7 unknown #
coedge $-1 $225 $88 $144 $230 reversed $140 $-1 #
coedge $-1 $88 $225 $235 $240 reversed $140 $-1 #
vertex $-1 $145 $241 #
vertex $-1 $240 $242 #
straight-curve $-1 -67.336730006189114 -36.022725095310363 0 0 0 1 I I #
face $-1 $-1 $166 $20 $-1 $243 forward single #
loop $-1 $-1 $244 $90 #
plane-surface $-1 -73.061311685537277 0 0 1 0 0 0 0 -1 forward_v I I I I #
coedge $-1 $245 $246 $247 $248 reversed $91 $-1 #
coedge $-1 $249 $93 $95 $164 forward $57 $-1 #
coedge $-1 $93 $249 $245 $250 forward $57 $-1 #
coedge $-1 $247 $96 $93 $161 forward $166 $-1 #
edge $-1 $168 -11.598234158094396 $251 -3.7707479110285593 $160 $252 forward 7 unknown #
coedge $-1 $253 $254 $94 $163 forward $155 $-1 #
edge $-1 $255 -45.208433442118803 $167 -41.323176145780224 $162 $256 forward 7 unknown #
edge $-1 $168 -5.1480163436139383 $255 0 $95 $257 forward 7 unknown #
coedge $-1 $96 $247 $253 $258 forward $166 $-1 #
loop $-1 $-1 $247 $154 #
vertex $-1 $163 $259 #
vertex $-1 $97 $260 #
straight-curve $-1 -91.670728321059912 -19.282725192655874 9.3334554212065655 1 0 0 I I #
coedge $-1 $170 $170 $-1 $261 reversed $100 $-1 #
edge $-1 $262 0 $262 6.2831853071796004 $101 $263 forward 7 unknown #
vertex $-1 $104 $264 #
ellipse-curve $-1 -71.372610408270916 -15.368982069122957 7.3908267730372756 -0.75470958851134928 0 0.65605901945558964 0.65605901945558964 0 0.75470958851134928 1 I I #
face $-1 $-1 $265 $22 $-1 $266 reversed single #
loop $-1 $-1 $111 $105 #
plane-surface $-1 0 0 9.3334554212065637 0 0 1 1 0 0 forward_v I I I I #
coedge $-1 $267 $268 $269 $270 reversed $106 $-1 #
coedge $-1 $271 $108 $110 $184 forward $66 $-1 #
coedge $-1 $108 $271 $267 $272 forward $66 $-1 #
coedge $-1 $269 $111 $108 $181 forward $175 $-1 #
edge $-1 $187 3.7707479110285593 $273 11.598234158094396 $180 $274 forward 7 unknown #
coedge $-1 $275 $276 $109 $183 forward $265 $-1 #
edge $-1 $277 -100.34850592041008 $186 -96.463248624071497 $182 $278 forward 7 unknown #
edge $-1 $187 140.97460702746065 $277 146.12262337107458 $110 $279 forward 7 unknown #
coedge $-1 $111 $269 $275 $280 forward $175 $-1 #
vertex $-1 $112 $281 #
vertex $-1 $112 $282 #
straight-curve $-1 43.738195816507115 -11.455238945590038 9.3334554212065655 -1 0 0 I I #
coedge $-1 $189 $189 $-1 $283 reversed $115 $-1 #
edge $-1 $284 0 $284 6.2831853071796004 $116 $285 forward 7 unknown #
vertex $-1 $119 $286 #
ellipse-curve $-1 71.372610408270916 -15.368982069122957 7.3908267730372872 0.75470958851134928 0 0.65605901945558964 0.65605901945558964 0 -0.75470958851134928 1 I I #
face $-1 $-1 $135 $18 $-1 $287 reversed single #
loop $-1 $-1 $209 $120 #
plane-surface $-1 0 36.022725095310363 0 0 -1 0 0 0 -1 forward_v I I I I #
coedge $-1 $288 $207 $210 $289 forward $121 $-1 #
coedge $-1 $213 $123 $124 $201 reversed $75 $-1 #
coedge $-1 $207 $288 $123 $199 reversed $121 $-1 #
edge $-1 $214 -9.3334554212065637 $290 9.3334554212065637 $198 $291 forward 7 unknown #
coedge $-1 $125 $124 $288 $292 forward $49 $-1 #
edge $-1 $205 -73.061311685537277 $290 73.061311685537277 $197 $293 forward 7 unknown #
coedge $-1 $210 $209 $125 $203 reversed $194 $-1 #
edge $-1 $294 -73.061311685537277 $204 73.061311685537277 $202 $295 forward 7 unknown #
vertex $-1 $127 $296 #
vertex $-1 $216 $297 #
straight-curve $-1 73.061311685537277 0 -9.3334554212065637 0 -1 0 I I #
coedge $-1 $196 $198 $128 $208 reversed $121 $-1 #
edge $-1 $211 -36.022725095310363 $214 36.022725095310363 $207 $298 forward 7 unknown #
coedge $-1 $202 $129 $134 $217 forward $194 $-1 #
coedge $-1 $129 $202 $196 $289 reversed $194 $-1 #
vertex $-1 $130 $299 #
straight-curve $-1 0 36.022725095310363 9.3334554212065637 -1 0 0 I I #
coedge $-1 $131 $197 $133 $216 reversed $75 $-1 #
vertex $-1 $208 $300 #
straight-curve $-1 0 -36.022725095310363 9.3334554212065637 1 0 0 I I #
edge $-1 $136 -9.3334554212065637 $205 9.3334554212065637 $133 $301 forward 7 unknown #
edge $-1 $137 -9.3334554212065637 $204 9.3334554212065637 $134 $302 forward 7 unknown #
point $-1 73.061311685537277 -36.022725095310363 9.3334554212065637 #
point $-1 73.061311685537277 36.022725095310363 9.3334554212065637 #
face $-1 $-1 $237 $19 $-1 $303 forward single #
loop $-1 $-1 $304 $139 #
plane-surface $-1 -63.336905557333047 -41.542959662161017 0 -1 0 0 0 0 1 forward_v I I I I #
coedge $-1 $305 $142 $227 $306 reversed $83 $-1 #
coedge $-1 $142 $305 $307 $308 reversed $83 $-1 #
coedge $-1 $150 $149 $142 $226 reversed $140 $-1 #
edge $-1 $309 -9.3334554212065637 $310 9.3334554212065637 $225 $311 forward 7 unknown #
coedge $-1 $144 $143 $223 $306 forward $53 $-1 #
coedge $-1 $233 $304 $143 $229 reversed $221 $-1 #
edge $-1 $231 -5.5202345668506538 $312 5.5202345668506538 $228 $313 forward 7 unknown #
edge $-1 $310 -5.5202345668506538 $151 5.5202345668506538 $149 $314 forward 7 unknown #
vertex $-1 $229 $315 #
straight-curve $-1 0 -36.022725095310363 -9.3334554212065637 1 0 0 I I #
coedge $-1 $316 $228 $146 $234 reversed $221 $-1 #
edge $-1 $238 -9.3334554212065637 $231 9.3334554212065637 $233 $317 forward 7 unknown #
coedge $-1 $307 $147 $150 $240 forward $237 $-1 #
coedge $-1 $147 $307 $316 $318 forward $237 $-1 #
loop $-1 $-1 $147 $220 #
vertex $-1 $148 $319 #
straight-curve $-1 0 -36.022725095310363 9.3334554212065637 -1 0 0 I I #
edge $-1 $152 -5.5202345668506538 $309 5.5202345668506538 $150 $320 forward 7 unknown #
point $-1 -67.336730006189114 -36.022725095310363 -9.3334554212065637 #
point $-1 -67.336730006189114 -36.022725095310363 9.3334554212065637 #
plane-surface $-1 0 0 9.3334554212065637 0 0 1 1 0 0 forward_v I I I I #
coedge $-1 $254 $253 $246 $321 forward $155 $-1 #
coedge $-1 $246 $157 $159 $250 reversed $91 $-1 #
coedge $-1 $157 $245 $244 $321 reversed $91 $-1 #
coedge $-1 $165 $160 $157 $248 forward $166 $-1 #
edge $-1 $251 -21.986819190055343 $322 -18.609416635522635 $247 $323 forward 7 unknown #
coedge $-1 $159 $158 $254 $324 reversed $57 $-1 #
edge $-1 $325 0 $251 5.1480163436139383 $245 $326 forward 7 unknown #
vertex $-1 $161 $327 #
straight-curve $-1 -69.683909131004569 -7.6844910345614785 9.3334554212065619 0 1 0 I I #
coedge $-1 $244 $162 $165 $258 reversed $155 $-1 #
coedge $-1 $162 $244 $249 $324 forward $155 $-1 #
vertex $-1 $163 $328 #
straight-curve $-1 -73.061311685537277 -19.282725192655874 50.656631566986789 0 0 1 I I #
straight-curve $-1 -73.061311685537277 -19.282725192655874 5.4481981248679858 -0.65605901945558964 0 -0.75470958851134928 I I #
edge $-1 $322 11.455238945590038 $167 19.282725192655874 $253 $329 forward 7 unknown #
point $-1 -73.061311685537277 -19.282725192655874 9.3334554212065637 #
point $-1 -69.683909131004569 -19.282725192655874 9.3334554212065637 #
edge $-1 $330 1 $330 0 $170 $-1 forward 7 unknown #
vertex $-1 $171 $331 #
ellipse-curve $-1 -69.602231740363081 -15.368982069122957 5.8518601153806582 -0.75470958851134928 0 0.65605901945558964 0.65605901945558964 0 0.75470958851134928 1 I I #
point $-1 -70.716551388815333 -15.368982069122957 8.1455363615486256 #
loop $-1 $-1 $182 $174 #
plane-surface $-1 73.061311685537277 0 0 -1 0 0 0 0 1 forward_v I I I I #
coedge $-1 $268 $177 $179 $272 reversed $106 $-1 #
coedge $-1 $177 $267 $332 $333 reversed $106 $-1 #
coedge $-1 $185 $180 $177 $270 forward $175 $-1 #
edge $-1 $273 25.945713314497453 $334 29.323115869030161 $269 $335 forward 7 unknown #
coedge $-1 $179 $178 $276 $336 reversed $66 $-1 #
edge $-1 $337 -146.12262337107458 $273 -140.97460702746065 $267 $338 forward 7 unknown #
vertex $-1 $181 $339 #
straight-curve $-1 69.683909131004583 -7.6844910345614785 9.3334554212065513 0 -1 0 I I #
coedge $-1 $332 $182 $185 $280 reversed $265 $-1 #
coedge $-1 $182 $332 $271 $336 forward $265 $-1 #
vertex $-1 $183 $340 #
straight-curve $-1 73.061311685537277 -11.455238945590038 105.79670404527806 0 0 1 I I #
straight-curve $-1 -22.803753323568316 -11.455238945590038 115.72834308145053 0.65605901945558964 0 -0.75470958851134928 I I #
edge $-1 $334 -19.282725192655874 $186 -11.455238945590038 $275 $341 forward 7 unknown #
point $-1 73.061311685537277 -11.455238945590038 9.3334554212065637 #
point $-1 69.683909131004569 -11.455238945590038 9.3334554212065655 #
edge $-1 $342 1 $342 0 $189 $-1 forward 7 unknown #
vertex $-1 $190 $343 #
ellipse-curve $-1 69.602231740363081 -15.368982069122957 5.8518601153806724 0.75470958851134928 0 0.65605901945558964 0.65605901945558964 0 -0.75470958851134928 1 I I #
point $-1 72.028669427726513 -15.368982069122957 6.6361171845259408 #
plane-surface $-1 73.061311685537277 0 0 -1 0 0 0 0 1 forward_v I I I I #
coedge $-1 $198 $196 $200 $292 reversed $121 $-1 #
edge $-1 $211 -9.3334554212065637 $294 9.3334554212065637 $210 $344 forward 7 unknown #
vertex $-1 $292 $345 #
straight-curve $-1 -73.061311685537277 -36.022725095310363 0 0 0 -1 I I #
edge $-1 $290 -36.022725095310363 $294 36.022725095310363 $288 $346 forward 7 unknown #
straight-curve $-1 0 -36.022725095310363 -9.3334554212065637 -1 0 0 I I #
vertex $-1 $203 $347 #
straight-curve $-1 0 36.022725095310363 -9.3334554212065637 1 0 0 I I #
point $-1 73.061311685537277 36.022725095310363 -9.3334554212065637 #
point $-1 73.061311685537277 -36.022725095310363 -9.3334554212065637 #
straight-curve $-1 -73.061311685537277 0 9.3334554212065637 0 -1 0 I I #
point $-1 -73.061311685537277 36.022725095310363 9.3334554212065637 #
point $-1 -73.061311685537277 -36.022725095310363 9.3334554212065637 #
straight-curve $-1 73.061311685537277 -36.022725095310363 0 0 0 -1 I I #
straight-curve $-1 73.061311685537277 36.022725095310363 0 0 0 -1 I I #
plane-surface $-1 0 0 9.3334554212065637 0 0 1 1 0 0 forward_v I I I I #
coedge $-1 $228 $316 $305 $348 forward $221 $-1 #
coedge $-1 $224 $223 $304 $348 reversed $83 $-1 #
edge $-1 $312 -1.9999122244280372 $310 1.9999122244280301 $223 $349 forward 7 unknown #
coedge $-1 $236 $235 $224 $308 forward $237 $-1 #
edge $-1 $309 -1.9999122244280301 $350 1.9999122244280372 $224 $351 forward 7 unknown #
vertex $-1 $240 $352 #
vertex $-1 $230 $353 #
straight-curve $-1 -67.336730006189114 -47.063194229011671 0 0 0 -1 I I #
vertex $-1 $348 $354 #
straight-curve $-1 -63.336905557333047 -41.542959662161017 -9.3334554212065637 0 -1 0 I I #
straight-curve $-1 -67.336730006189114 -41.542959662161017 -9.3334554212065637 0 1 0 I I #
point $-1 -63.336905557333047 -36.022725095310363 -9.3334554212065637 #
coedge $-1 $304 $233 $236 $318 reversed $221 $-1 #
straight-curve $-1 -63.336905557333047 -36.022725095310363 0 0 0 -1 I I #
edge $-1 $350 -5.5202345668506538 $238 5.5202345668506538 $316 $355 forward 7 unknown #
point $-1 -63.336905557333047 -36.022725095310363 9.3334554212065637 #
straight-curve $-1 -67.336730006189114 -41.542959662161017 9.3334554212065637 0 -1 0 I I #
edge $-1 $322 41.323176145780224 $325 45.208433442118803 $244 $356 forward 7 unknown #
vertex $-1 $258 $357 #
straight-curve $-1 -91.670728321059912 -11.455238945590038 9.3334554212065655 -1 0 0 I I #
edge $-1 $325 3.7707479110285593 $255 11.598234158094396 $254 $358 forward 7 unknown #
vertex $-1 $324 $359 #
straight-curve $-1 -73.061311685537277 -11.455238945590038 5.4481981248679858 0.65605901945558964 0 0.75470958851134928 I I #
point $-1 -69.683909131004569 -11.455238945590038 9.3334554212065637 #
point $-1 -73.061311685537277 -19.282725192655874 5.4481981248679858 #
straight-curve $-1 -73.061311685537277 0 9.3334554212065637 0 -1 0 I I #
vertex $-1 $261 $360 #
point $-1 -68.946172720907484 -15.368982069122957 6.6065697038920073 #
coedge $-1 $276 $275 $268 $333 forward $265 $-1 #
edge $-1 $334 96.463248624071497 $337 100.34850592041008 $332 $361 forward 7 unknown #
vertex $-1 $280 $362 #
straight-curve $-1 43.738195816507115 -19.282725192655874 9.3334554212065655 1 0 0 I I #
edge $-1 $337 -11.598234158094396 $277 -3.7707479110285593 $276 $363 forward 7 unknown #
vertex $-1 $336 $364 #
straight-curve $-1 -22.803753323568316 -19.282725192655874 115.72834308145053 -0.65605901945558964 0 0.75470958851134928 I I #
point $-1 69.683909131004569 -19.282725192655874 9.3334554212065655 #
point $-1 73.061311685537277 -11.455238945590038 5.4481981248679858 #
straight-curve $-1 73.061311685537277 0 9.3334554212065637 0 1 0 I I #
vertex $-1 $283 $365 #
point $-1 70.258290759818664 -15.368982069122957 5.0971505268693234 #
straight-curve $-1 -73.061311685537277 36.022725095310363 0 0 0 -1 I I #
point $-1 -73.061311685537277 -36.022725095310363 -9.3334554212065637 #
straight-curve $-1 -73.061311685537277 0 -9.3334554212065637 0 1 0 I I #
point $-1 -73.061311685537277 36.022725095310363 -9.3334554212065637 #
edge $-1 $350 -9.3334554212065637 $312 9.3334554212065637 $304 $366 forward 7 unknown #
straight-curve $-1 -65.336817781761084 -47.063194229011671 -9.3334554212065637 -1 0 0 I I #
vertex $-1 $318 $367 #
straight-curve $-1 -65.336817781761084 -47.063194229011671 9.3334554212065637 1 0 0 I I #
point $-1 -67.336730006189114 -47.063194229011671 9.3334554212065637 #
point $-1 -67.336730006189114 -47.063194229011671 -9.3334554212065637 #
point $-1 -63.336905557333047 -47.063194229011671 -9.3334554212065637 #
straight-curve $-1 -63.336905557333047 -41.542959662161017 9.3334554212065637 0 1 0 I I #
straight-curve $-1 -73.061311685537277 -11.455238945590038 50.656631566986789 0 0 -1 I I #
point $-1 -73.061311685537277 -11.455238945590038 9.3334554212065637 #
straight-curve $-1 -73.061311685537277 -7.6844910345614785 5.4481981248679787 0 -1 0 I I #
point $-1 -73.061311685537277 -11.455238945590038 5.4481981248679858 #
point $-1 -68.84752215185172 -15.368982069122957 5.1958010959250682 #
straight-curve $-1 73.061311685537277 -19.282725192655874 105.79670404527806 0 0 -1 I I #
point $-1 73.061311685537277 -19.282725192655874 9.3334554212065637 #
straight-curve $-1 73.061311685537277 -7.6844910345614785 5.4481981248679787 0 1 0 I I #
point $-1 73.061311685537277 -19.282725192655874 5.4481981248679858 #
point $-1 68.84752215185172 -15.368982069122957 5.1958010959250824 #
straight-curve $-1 -63.336905557333047 -47.063194229011671 0 0 0 -1 I I #
point $-1 -63.336905557333047 -47.063194229011671 9.3334554212065637 #
End-of-ACIS-data 