500 0 7 0           
7 Unknown 11 ACIS 5.0 NT 24 Fri Mar 26 16:22:57 1999 
-1 9.9999999999999995e-007 1e-010 
body $-1 $7 $-1 $8 #
body $-1 $9 $-1 $10 #
body $-1 $11 $-1 $12 #
body $-1 $13 $-1 $14 #
body $-1 $15 $-1 $16 #
body $-1 $17 $-1 $18 #
body $-1 $19 $-1 $20 #
lump $-1 $-1 $21 $0 #
transform $-1 1 0 0 0 1 0 0 0 1 78.049256874294258 49.438738852507157 14.517791958760617 1 rotate no_reflect no_shear #
lump $-1 $-1 $22 $1 #
transform $-1 1 0 0 0 1 0 0 0 1 78.049256874294258 49.438738852507157 14.517791958760617 1 rotate no_reflect no_shear #
lump $-1 $-1 $23 $2 #
transform $-1 1 0 0 0 1 0 0 0 1 78.049256874294258 49.438738852507157 14.517791958760617 1 rotate no_reflect no_shear #
lump $-1 $-1 $24 $3 #
transform $-1 1 0 0 0 1 0 0 0 1 78.049256874294258 49.438738852507157 14.517791958760617 1 rotate no_reflect no_shear #
lump $-1 $-1 $25 $4 #
transform $-1 1 0 0 0 1 0 0 0 1 78.049256874294258 49.438738852507157 14.517791958760617 1 rotate no_reflect no_shear #
lump $-1 $-1 $26 $5 #
transform $-1 1 0 0 0 1 0 0 0 1 78.049256874294258 49.438738852507157 14.517791958760617 1 rotate no_reflect no_shear #
lump $-1 $-1 $27 $6 #
transform $-1 1 0 0 0 1 0 0 0 1 78.049256874294258 49.438738852507157 14.517791958760617 1 rotate no_reflect no_shear #
shell $-1 $-1 $-1 $28 $-1 $7 #
shell $-1 $-1 $-1 $29 $-1 $9 #
shell $-1 $-1 $-1 $30 $-1 $11 #
shell $-1 $-1 $-1 $31 $-1 $13 #
shell $-1 $-1 $-1 $32 $-1 $15 #
shell $-1 $-1 $-1 $33 $-1 $17 #
shell $-1 $-1 $-1 $34 $-1 $19 #
face $-1 $35 $36 $21 $-1 $37 forward single #
face $-1 $38 $39 $22 $-1 $40 reversed single #
face $-1 $41 $42 $23 $-1 $43 reversed single #
face $-1 $44 $45 $24 $-1 $46 forward single #
face $-1 $47 $48 $25 $-1 $49 reversed single #
face $-1 $50 $51 $26 $-1 $52 forward single #
face $-1 $53 $54 $27 $-1 $55 forward single #
face $-1 $56 $57 $21 $-1 $58 reversed single #
loop $-1 $-1 $59 $28 #
plane-surface $-1 0 0 14.517791958760617 0 0 1 1 0 0 forward_v I I I I #
face $-1 $60 $61 $22 $-1 $62 reversed single #
loop $-1 $-1 $63 $29 #
plane-surface $-1 0 -42.01798369290362 11.044279418757213 0 0 1 1 0 0 forward_v I I I I #
face $-1 $64 $65 $23 $-1 $66 reversed single #
loop $-1 $-1 $67 $30 #
plane-surface $-1 81.901994013558408 15.976806387945274 230.09275261100842 0 -1 0 -0.71933980857756763 0 -0.69465836192734942 forward_v I I I I #
face $-1 $68 $69 $24 $-1 $70 forward single #
loop $-1 $71 $72 $31 #
cone-surface $-1 74.931352153710961 3.4234737251540537 11.333260646538093 -0.71933980857756763 0 -0.69465836192734942 0.69465836192734942 0 -0.71933980857756763 1 I I 0 1 1 forward I I I I #
face $-1 $73 $74 $25 $-1 $75 reversed single #
loop $-1 $-1 $76 $32 #
plane-surface $-1 -78.049256874294244 -27.611499911093873 1.5835338228772002 -0.64278761758704617 0 0.76604443648966558 0.76604443648966558 0 0.64278761758704617 forward_v I I I I #
face $-1 $77 $78 $26 $-1 $79 forward single #
loop $-1 $80 $81 $33 #
cone-surface $-1 -69.456696614554716 -30.605383606325109 6.9955604104476627 0.64278761758704617 0 -0.76604443648966558 1.1490666547344983 0 0.96418142638056925 1 I I 0 1 1.5 forward I I I I #
face $-1 $82 $83 $27 $-1 $84 forward single #
loop $-1 $85 $86 $34 #
cone-surface $-1 -69.456696614554716 -24.61761621586264 6.9955604104476627 0.64278761758704617 0 -0.76604443648966558 1.1490666547344983 0 0.96418142638056925 1 I I 0 1 1.5 forward I I I I #
face $-1 $87 $88 $21 $-1 $89 reversed single #
loop $-1 $-1 $90 $35 #
plane-surface $-1 0 0 -14.517791958760617 0 0 1 1 0 0 forward_v I I I I #
coedge $-1 $91 $92 $93 $94 forward $36 $-1 #
face $-1 $95 $96 $22 $-1 $97 reversed single #
loop $-1 $-1 $98 $38 #
plane-surface $-1 0 -34.597228533300083 12.781035688758914 0 -1 0 0 0 -1 forward_v I I I I #
coedge $-1 $99 $100 $101 $102 reversed $39 $-1 #
face $-1 $103 $104 $23 $-1 $105 reversed single #
loop $-1 $-1 $106 $41 #
plane-surface $-1 -30.385880985594071 3.4234737251540537 121.65761475112009 0.71933980857756763 0 0.69465836192734942 0.69465836192734942 0 -0.71933980857756763 forward_v I I I I #
coedge $-1 $107 $108 $109 $110 reversed $42 $-1 #
face $-1 $-1 $111 $24 $-1 $112 forward single #
loop $-1 $113 $114 $44 #
cone-surface $-1 73.939485583950443 3.4234737251540537 10.375426256748378 -0.71933980857756763 0 -0.69465836192734942 0.34732918096367471 0 -0.35966990428878381 1 I I -0.70710678118654746 0.70710678118654746 0.5 forward I I I I #
loop $-1 $-1 $115 $31 #
coedge $-1 $72 $72 $116 $117 reversed $45 $-1 #
face $-1 $118 $119 $25 $-1 $120 forward single #
loop $-1 $-1 $121 $47 #
plane-surface $-1 -178.38744863562823 -20.625771288887655 121.161931824289 0 -1 0 0.64278761758704617 0 -0.76604443648966558 forward_v I I I I #
coedge $-1 $122 $123 $124 $125 reversed $48 $-1 #
face $-1 $-1 $126 $26 $-1 $127 forward single #
loop $-1 $128 $129 $50 #
cone-surface $-1 -68.08926978068736 -30.605383606325109 5.36592460270918 0.64278761758704617 0 -0.76604443648966558 0.57453332736724916 0 0.48209071319028463 1 I I -0.70710678118654757 0.70710678118654757 0.75 forward I I I I #
loop $-1 $-1 $130 $33 #
coedge $-1 $81 $81 $131 $132 reversed $51 $-1 #
face $-1 $-1 $133 $27 $-1 $134 forward single #
loop $-1 $135 $136 $53 #
cone-surface $-1 -68.08926978068736 -24.61761621586264 5.36592460270918 0.64278761758704617 0 -0.76604443648966558 0.57453332736724916 0 0.48209071319028463 1 I I -0.70710678118654757 0.70710678118654757 0.75 forward I I I I #
loop $-1 $-1 $137 $34 #
coedge $-1 $86 $86 $138 $139 reversed $54 $-1 #
face $-1 $140 $141 $21 $-1 $142 reversed single #
loop $-1 $-1 $143 $56 #
plane-surface $-1 0 -49.438738852507157 0 0 1 0 0 0 1 forward_v I I I I #
coedge $-1 $144 $145 $146 $147 forward $57 $-1 #
coedge $-1 $148 $59 $149 $150 forward $36 $-1 #
coedge $-1 $59 $148 $151 $152 forward $36 $-1 #
coedge $-1 $153 $154 $59 $94 reversed $155 $-1 #
edge $-1 $156 -49.438738852507157 $157 49.438738852507157 $93 $158 forward 7 unknown #
face $-1 $159 $160 $22 $-1 $161 reversed single #
loop $-1 $-1 $162 $60 #
plane-surface $-1 -78.049256874294258 0 0 1 0 0 0 0 -1 forward_v I I I I #
coedge $-1 $163 $164 $165 $166 reversed $61 $-1 #
coedge $-1 $167 $63 $168 $169 reversed $39 $-1 #
coedge $-1 $63 $167 $170 $171 forward $39 $-1 #
coedge $-1 $172 $173 $63 $102 forward $174 $-1 #
edge $-1 $175 -28.429747006055347 $176 -13.588236686848273 $101 $177 forward 7 unknown #
face $-1 $178 $179 $23 $-1 $180 reversed single #
loop $-1 $-1 $181 $64 #
plane-surface $-1 81.901994013558408 -9.1298589376371666 230.09275261100842 0 1 0 0.71933980857756763 0 0.69465836192734942 forward_v I I I I #
coedge $-1 $182 $183 $184 $185 reversed $65 $-1 #
coedge $-1 $108 $67 $186 $187 reversed $42 $-1 #
coedge $-1 $67 $107 $182 $188 reversed $42 $-1 #
coedge $-1 $184 $189 $67 $110 forward $190 $-1 #
edge $-1 $191 -37.098259867515054 $192 -32.126843757291994 $109 $193 forward 7 unknown #
loop $-1 $-1 $116 $68 #
plane-surface $-1 -30.385880985594071 3.4234737251540537 121.65761475112009 0.71933980857756763 0 0.69465836192734942 0.69465836192734942 0 -0.71933980857756763 forward_v I I I I #
loop $-1 $-1 $194 $44 #
coedge $-1 $114 $114 $115 $195 reversed $69 $-1 #
coedge $-1 $115 $115 $114 $195 forward $71 $-1 #
coedge $-1 $116 $116 $72 $117 forward $111 $-1 #
edge $-1 $196 0 $196 6.2831853071796004 $116 $197 forward 7 unknown #
face $-1 $198 $199 $25 $-1 $200 reversed single #
loop $-1 $-1 $124 $73 #
plane-surface $-1 0 0 14.517791958760617 0 0 1 1 0 0 forward_v I I I I #
coedge $-1 $201 $202 $203 $204 reversed $74 $-1 #
coedge $-1 $205 $76 $206 $207 reversed $48 $-1 #
coedge $-1 $76 $205 $201 $208 forward $48 $-1 #
coedge $-1 $203 $209 $76 $125 forward $119 $-1 #
edge $-1 $210 -20.791478577753153 $211 -6.8200213333407191 $124 $212 forward 7 unknown #
loop $-1 $-1 $131 $77 #
plane-surface $-1 -78.049256874294244 -27.611499911093873 1.5835338228772002 -0.64278761758704617 0 0.76604443648966558 0.76604443648966558 0 0.64278761758704617 forward_v I I I I #
loop $-1 $-1 $213 $50 #
coedge $-1 $129 $129 $130 $214 reversed $78 $-1 #
coedge $-1 $130 $130 $129 $214 forward $80 $-1 #
coedge $-1 $131 $131 $81 $132 forward $126 $-1 #
edge $-1 $215 0 $215 6.2831853071796004 $131 $216 forward 7 unknown #
loop $-1 $-1 $138 $82 #
plane-surface $-1 -78.049256874294244 -27.611499911093873 1.5835338228772002 -0.64278761758704617 0 0.76604443648966558 0.76604443648966558 0 0.64278761758704617 forward_v I I I I #
loop $-1 $-1 $217 $53 #
coedge $-1 $136 $136 $137 $218 reversed $83 $-1 #
coedge $-1 $137 $137 $136 $218 forward $85 $-1 #
coedge $-1 $138 $138 $86 $139 forward $133 $-1 #
edge $-1 $219 0 $219 6.2831853071796004 $138 $220 forward 7 unknown #
face $-1 $221 $222 $21 $-1 $223 reversed single #
loop $-1 $-1 $224 $87 #
plane-surface $-1 -78.049256874294258 0 0 1 0 0 0 0 -1 forward_v I I I I #
coedge $-1 $225 $151 $226 $227 forward $88 $-1 #
coedge $-1 $228 $90 $225 $229 forward $57 $-1 #
coedge $-1 $90 $228 $230 $231 forward $57 $-1 #
coedge $-1 $154 $153 $90 $147 reversed $155 $-1 #
edge $-1 $232 -49.438738852507157 $233 49.438738852507157 $146 $234 forward 7 unknown #
coedge $-1 $92 $91 $235 $236 forward $36 $-1 #
coedge $-1 $237 $238 $91 $150 reversed $222 $-1 #
edge $-1 $157 -78.049256874294258 $239 78.049256874294258 $149 $240 forward 7 unknown #
coedge $-1 $143 $241 $92 $152 reversed $88 $-1 #
edge $-1 $242 -78.049256874294258 $156 78.049256874294258 $151 $243 forward 7 unknown #
coedge $-1 $146 $93 $241 $244 forward $155 $-1 #
coedge $-1 $93 $146 $237 $245 reversed $155 $-1 #
loop $-1 $-1 $153 $221 #
vertex $-1 $94 $246 #
vertex $-1 $94 $247 #
straight-curve $-1 78.049256874294258 0 14.517791958760617 0 1 0 I I #
face $-1 $248 $249 $22 $-1 $250 forward single #
loop $-1 $-1 $168 $95 #
plane-surface $-1 0 -49.438738852507157 0 0 1 0 0 0 1 forward_v I I I I #
coedge $-1 $251 $252 $164 $253 forward $96 $-1 #
coedge $-1 $170 $98 $172 $254 reversed $61 $-1 #
coedge $-1 $98 $170 $162 $253 reversed $61 $-1 #
coedge $-1 $255 $256 $98 $166 forward $249 $-1 #
edge $-1 $257 -78.049256874294258 $258 78.049256874294258 $165 $259 forward 7 unknown #
coedge $-1 $100 $99 $251 $260 reversed $39 $-1 #
coedge $-1 $261 $262 $99 $169 forward $160 $-1 #
edge $-1 $263 -78.049256874294258 $175 78.049256874294258 $168 $264 forward 7 unknown #
coedge $-1 $164 $163 $100 $171 reversed $61 $-1 #
edge $-1 $265 -78.049256874294258 $176 78.049256874294258 $170 $266 forward 7 unknown #
coedge $-1 $267 $101 $163 $254 forward $174 $-1 #
coedge $-1 $101 $267 $261 $268 forward $174 $-1 #
loop $-1 $-1 $172 $248 #
vertex $-1 $169 $269 #
vertex $-1 $102 $270 #
straight-curve $-1 78.049256874294258 -21.00899184645181 11.044279418757213 0 1 0 I I #
face $-1 $-1 $190 $23 $-1 $271 forward single #
loop $-1 $-1 $272 $103 #
plane-surface $-1 78.049256874294258 0 0 -1 0 0 0 0 1 forward_v I I I I #
coedge $-1 $273 $274 $275 $276 reversed $104 $-1 #
coedge $-1 $277 $106 $108 $188 forward $65 $-1 #
coedge $-1 $106 $277 $273 $278 forward $65 $-1 #
coedge $-1 $275 $109 $106 $185 forward $190 $-1 #
edge $-1 $192 -14.265069525368247 $279 10.841595800214193 $184 $280 forward 7 unknown #
coedge $-1 $281 $282 $107 $187 forward $179 $-1 #
edge $-1 $283 -105.6766365535366 $191 -100.5285843467436 $186 $284 forward 7 unknown #
edge $-1 $192 148.94187908801993 $283 156.09851374858852 $108 $285 forward 7 unknown #
coedge $-1 $109 $275 $281 $286 forward $190 $-1 #
loop $-1 $-1 $275 $178 #
vertex $-1 $187 $287 #
vertex $-1 $110 $288 #
straight-curve $-1 40.950997006779204 15.976806387945274 14.517791958760611 -1 0 0 I I #
coedge $-1 $194 $194 $-1 $289 reversed $113 $-1 #
edge $-1 $290 0 $290 6.2831853071796004 $114 $291 forward 7 unknown #
vertex $-1 $117 $292 #
ellipse-curve $-1 75.563548819182699 3.4234737251540537 11.943765855364136 0.71933980857756763 0 0.69465836192734942 0.69465836192734942 0 -0.71933980857756763 1 I I #
face $-1 $-1 $293 $25 $-1 $294 forward single #
loop $-1 $-1 $295 $118 #
plane-surface $-1 -78.049256874294258 0 0 1 0 0 0 0 -1 forward_v I I I I #
coedge $-1 $202 $121 $123 $208 reversed $74 $-1 #
coedge $-1 $121 $201 $295 $296 reversed $74 $-1 #
coedge $-1 $297 $124 $121 $204 forward $119 $-1 #
edge $-1 $211 -26.558915721644823 $298 -11.144467443519858 $203 $299 forward 7 unknown #
coedge $-1 $123 $122 $300 $301 reversed $48 $-1 #
coedge $-1 $302 $303 $122 $207 forward $293 $-1 #
edge $-1 $304 -33.493407274001271 $210 -13.371273956565558 $206 $305 forward 7 unknown #
edge $-1 $306 -1.8593432412625586e-014 $211 20.122133317435694 $201 $307 forward 7 unknown #
coedge $-1 $124 $297 $302 $308 forward $119 $-1 #
vertex $-1 $207 $309 #
vertex $-1 $125 $310 #
straight-curve $-1 -62.634808596169293 -13.805749955546936 14.517791958760617 0 1 0 I I #
coedge $-1 $213 $213 $-1 $311 reversed $128 $-1 #
edge $-1 $312 0 $312 6.2831853071796004 $129 $313 forward 7 unknown #
vertex $-1 $132 $314 #
ellipse-curve $-1 -70.342032735231783 -30.605383606325109 8.0506628908188986 -0.64278761758704617 0 0.76604443648966558 1.1490666547344983 0 0.96418142638056925 1 I I #
coedge $-1 $217 $217 $-1 $315 reversed $135 $-1 #
edge $-1 $316 0 $316 6.2831853071796004 $136 $317 forward 7 unknown #
vertex $-1 $139 $318 #
ellipse-curve $-1 -70.342032735231783 -24.61761621586264 8.0506628908188986 -0.64278761758704617 0 0.76604443648966558 1.1490666547344983 0 0.96418142638056925 1 I I #
face $-1 $-1 $155 $21 $-1 $319 reversed single #
loop $-1 $-1 $237 $140 #
plane-surface $-1 0 49.438738852507157 0 0 -1 0 0 0 -1 forward_v I I I I #
coedge $-1 $320 $235 $238 $321 forward $141 $-1 #
coedge $-1 $241 $143 $144 $229 reversed $88 $-1 #
coedge $-1 $235 $320 $143 $227 reversed $141 $-1 #
edge $-1 $242 -14.517791958760617 $322 14.517791958760617 $226 $323 forward 7 unknown #
coedge $-1 $145 $144 $320 $324 forward $57 $-1 #
edge $-1 $233 -78.049256874294258 $322 78.049256874294258 $225 $325 forward 7 unknown #
coedge $-1 $238 $237 $145 $231 reversed $222 $-1 #
edge $-1 $326 -78.049256874294258 $232 78.049256874294258 $230 $327 forward 7 unknown #
vertex $-1 $147 $328 #
vertex $-1 $244 $329 #
straight-curve $-1 78.049256874294258 0 -14.517791958760617 0 -1 0 I I #
coedge $-1 $224 $226 $148 $236 reversed $141 $-1 #
edge $-1 $239 -49.438738852507157 $242 49.438738852507157 $235 $330 forward 7 unknown #
coedge $-1 $230 $149 $154 $245 forward $222 $-1 #
coedge $-1 $149 $230 $224 $321 reversed $222 $-1 #
vertex $-1 $150 $331 #
straight-curve $-1 0 49.438738852507157 14.517791958760617 -1 0 0 I I #
coedge $-1 $151 $225 $153 $244 reversed $88 $-1 #
vertex $-1 $236 $332 #
straight-curve $-1 0 -49.438738852507157 14.517791958760617 1 0 0 I I #
edge $-1 $156 -14.517791958760617 $233 14.517791958760617 $153 $333 forward 7 unknown #
edge $-1 $157 -14.517791958760617 $232 14.517791958760617 $154 $334 forward 7 unknown #
point $-1 78.049256874294258 -49.438738852507157 14.517791958760617 #
point $-1 78.049256874294258 49.438738852507157 14.517791958760617 #
face $-1 $-1 $174 $22 $-1 $335 reversed single #
loop $-1 $-1 $165 $159 #
plane-surface $-1 0 0 14.517791958760617 0 0 1 1 0 0 forward_v I I I I #
coedge $-1 $336 $162 $167 $260 forward $96 $-1 #
coedge $-1 $162 $336 $255 $337 reversed $96 $-1 #
edge $-1 $258 -8.1272741143811587 $265 -4.6537615743777563 $162 $338 forward 7 unknown #
edge $-1 $176 4.6537615743777563 $257 8.1272741143811587 $172 $339 forward 7 unknown #
coedge $-1 $340 $165 $252 $337 forward $249 $-1 #
coedge $-1 $165 $340 $267 $341 forward $249 $-1 #
vertex $-1 $254 $342 #
vertex $-1 $337 $343 #
straight-curve $-1 0 -34.597228533300083 14.517791958760617 -1 0 0 I I #
edge $-1 $265 13.588236686848273 $263 28.429747006055347 $251 $344 forward 7 unknown #
coedge $-1 $345 $168 $173 $268 reversed $160 $-1 #
coedge $-1 $168 $345 $336 $346 forward $160 $-1 #
vertex $-1 $169 $347 #
straight-curve $-1 0 -49.438738852507157 11.044279418757213 1 0 0 I I #
vertex $-1 $260 $348 #
straight-curve $-1 0 -34.597228533300083 11.044279418757213 1 0 0 I I #
coedge $-1 $173 $172 $256 $341 reversed $174 $-1 #
edge $-1 $349 -14.517791958760617 $175 -11.044279418757213 $173 $350 forward 7 unknown #
point $-1 78.049256874294258 -49.438738852507157 11.044279418757213 #
point $-1 78.049256874294258 -34.597228533300083 11.044279418757213 #
plane-surface $-1 0 0 14.517791958760617 0 0 1 1 0 0 forward_v I I I I #
coedge $-1 $282 $281 $274 $351 forward $179 $-1 #
coedge $-1 $274 $181 $183 $278 reversed $104 $-1 #
coedge $-1 $181 $273 $272 $351 reversed $104 $-1 #
coedge $-1 $189 $184 $181 $276 forward $190 $-1 #
edge $-1 $279 32.126843757291994 $352 37.098259867515054 $275 $353 forward 7 unknown #
coedge $-1 $183 $182 $282 $354 reversed $65 $-1 #
edge $-1 $355 -156.09851374858852 $279 -148.94187908801993 $273 $356 forward 7 unknown #
vertex $-1 $185 $357 #
straight-curve $-1 73.077840764071198 1.7117368625770268 14.517791958760611 0 -1 0 I I #
coedge $-1 $272 $186 $189 $286 reversed $179 $-1 #
coedge $-1 $186 $272 $277 $354 forward $179 $-1 #
vertex $-1 $187 $358 #
straight-curve $-1 78.049256874294258 15.976806387945274 115.04637630550421 0 0 1 I I #
straight-curve $-1 -30.385880985594071 15.976806387945274 121.65761475112009 0.69465836192734942 0 -0.71933980857756763 I I #
edge $-1 $352 -9.1298589376371666 $191 15.976806387945274 $281 $359 forward 7 unknown #
point $-1 78.049256874294258 15.976806387945274 14.517791958760617 #
point $-1 73.077840764071198 15.976806387945274 14.517791958760611 #
edge $-1 $360 1 $360 0 $194 $-1 forward 7 unknown #
vertex $-1 $195 $361 #
ellipse-curve $-1 74.299155488239222 3.4234737251540537 10.722755437712053 0.71933980857756763 0 0.69465836192734942 0.69465836192734942 0 -0.71933980857756763 1 I I #
point $-1 76.258207181110052 3.4234737251540537 11.224426046786565 #
loop $-1 $-1 $206 $198 #
plane-surface $-1 0 -34.597228533300083 12.781035688758914 0 -1 0 0 0 -1 forward_v I I I I #
coedge $-1 $300 $362 $202 $296 forward $199 $-1 #
edge $-1 $298 46.063173953383881 $306 58.997432089267313 $295 $363 forward 7 unknown #
coedge $-1 $209 $203 $362 $364 forward $119 $-1 #
vertex $-1 $364 $365 #
straight-curve $-1 -89.193724317814116 -20.625771288887655 14.517791958760618 -1 0 0 I I #
coedge $-1 $366 $295 $205 $301 forward $199 $-1 #
edge $-1 $306 6.8200213333407191 $304 20.791478577753153 $300 $367 forward 7 unknown #
coedge $-1 $303 $206 $209 $308 reversed $293 $-1 #
coedge $-1 $206 $302 $366 $368 reversed $293 $-1 #
vertex $-1 $368 $369 #
straight-curve $-1 -52.391818572963089 -34.597228533300083 23.112681289405106 0.76604443648966558 0 0.64278761758704617 I I #
vertex $-1 $301 $370 #
straight-curve $-1 -78.049256874294244 -20.625771288887655 1.5835338228772002 0.76604443648966558 0 0.64278761758704617 I I #
edge $-1 $371 -78.049256874294258 $210 -62.634808596169293 $209 $372 forward 7 unknown #
point $-1 -62.634808596169293 -34.59722853330009 14.517791958760615 #
point $-1 -62.634808596169293 -20.625771288887655 14.517791958760615 #
edge $-1 $373 1 $373 0 $213 $-1 forward 7 unknown #
vertex $-1 $214 $374 #
ellipse-curve $-1 -68.571360493877648 -30.605383606325109 5.9404579300764295 -0.64278761758704617 0 0.76604443648966558 1.1490666547344983 0 0.96418142638056925 1 I I #
point $-1 -69.192966080497271 -30.605383606325109 9.014844317199465 #
edge $-1 $375 1 $375 0 $217 $-1 forward 7 unknown #
vertex $-1 $218 $376 #
ellipse-curve $-1 -68.571360493877648 -24.61761621586264 5.9404579300764295 -0.64278761758704617 0 0.76604443648966558 1.1490666547344983 0 0.96418142638056925 1 I I #
point $-1 -69.192966080497271 -24.61761621586264 9.014844317199465 #
plane-surface $-1 78.049256874294258 0 0 -1 0 0 0 0 1 forward_v I I I I #
coedge $-1 $226 $224 $228 $324 reversed $141 $-1 #
edge $-1 $239 -14.517791958760617 $326 14.517791958760617 $238 $377 forward 7 unknown #
vertex $-1 $324 $378 #
straight-curve $-1 -78.049256874294258 -49.438738852507157 0 0 0 -1 I I #
edge $-1 $322 -49.438738852507157 $326 49.438738852507157 $320 $379 forward 7 unknown #
straight-curve $-1 0 -49.438738852507157 -14.517791958760617 -1 0 0 I I #
vertex $-1 $231 $380 #
straight-curve $-1 0 49.438738852507157 -14.517791958760617 1 0 0 I I #
point $-1 78.049256874294258 49.438738852507157 -14.517791958760617 #
point $-1 78.049256874294258 -49.438738852507157 -14.517791958760617 #
straight-curve $-1 -78.049256874294258 0 14.517791958760617 0 -1 0 I I #
point $-1 -78.049256874294258 49.438738852507157 14.517791958760617 #
point $-1 -78.049256874294258 -49.438738852507157 14.517791958760617 #
straight-curve $-1 78.049256874294258 -49.438738852507157 0 0 0 -1 I I #
straight-curve $-1 78.049256874294258 49.438738852507157 0 0 0 -1 I I #
plane-surface $-1 78.049256874294258 0 0 -1 0 0 0 0 1 forward_v I I I I #
coedge $-1 $252 $251 $262 $346 reversed $96 $-1 #
edge $-1 $258 34.597228533300083 $381 49.438738852507157 $252 $382 forward 7 unknown #
straight-curve $-1 -78.049256874294258 -34.597228533300083 6.390517844379457 0 0 -1 I I #
straight-curve $-1 78.049256874294258 -34.597228533300083 6.390517844379457 0 0 1 I I #
coedge $-1 $256 $255 $345 $383 forward $249 $-1 #
edge $-1 $349 -49.438738852507157 $257 -34.597228533300083 $267 $384 forward 7 unknown #
point $-1 78.049256874294258 -34.597228533300083 14.517791958760615 #
point $-1 -78.049256874294258 -34.597228533300083 14.517791958760615 #
straight-curve $-1 -78.049256874294258 -21.00899184645181 11.044279418757213 0 -1 0 I I #
coedge $-1 $262 $261 $340 $383 reversed $160 $-1 #
edge $-1 $381 -14.517791958760617 $263 -11.044279418757213 $336 $385 forward 7 unknown #
point $-1 -78.049256874294258 -49.438738852507157 11.044279418757213 #
point $-1 -78.049256874294258 -34.597228533300083 11.044279418757213 #
vertex $-1 $341 $386 #
straight-curve $-1 78.049256874294258 -49.438738852507157 0 0 0 -1 I I #
edge $-1 $352 100.5285843467436 $355 105.6766365535366 $272 $387 forward 7 unknown #
vertex $-1 $286 $388 #
straight-curve $-1 40.950997006779204 -9.1298589376371666 14.517791958760611 1 0 0 I I #
edge $-1 $355 -10.841595800214193 $283 14.265069525368247 $282 $389 forward 7 unknown #
vertex $-1 $354 $390 #
straight-curve $-1 -30.385880985594071 -9.1298589376371666 121.65761475112009 -0.69465836192734942 0 0.71933980857756763 I I #
point $-1 73.077840764071198 -9.1298589376371666 14.517791958760611 #
point $-1 78.049256874294258 15.976806387945274 9.3697397519676144 #
straight-curve $-1 78.049256874294258 0 14.517791958760617 0 1 0 I I #
vertex $-1 $289 $391 #
point $-1 74.993813850166575 3.4234737251540537 10.003415629134485 #
coedge $-1 $295 $366 $297 $364 reversed $199 $-1 #
straight-curve $-1 -78.049256874294258 -20.625771288887655 60.580965912144499 0 0 -1 I I #
edge $-1 $298 20.625771288887655 $371 34.597228533300083 $362 $392 forward 7 unknown #
point $-1 -78.049256874294258 -20.625771288887655 14.517791958760617 #
coedge $-1 $362 $300 $303 $368 forward $199 $-1 #
straight-curve $-1 -78.049256874294258 -13.805749955546936 1.583533822877196 0 -1 0 I I #
edge $-1 $304 -58.997432089267313 $371 -46.063173953383881 $366 $393 forward 7 unknown #
point $-1 -78.049256874294258 -34.59722853330009 1.5835338228771882 #
point $-1 -78.049256874294258 -20.625771288887655 1.5835338228771882 #
vertex $-1 $368 $394 #
straight-curve $-1 0 -34.597228533300083 14.517791958760617 1 0 0 I I #
vertex $-1 $311 $395 #
point $-1 -67.422293839143151 -30.605383606325109 6.9046393564569986 #
vertex $-1 $315 $396 #
point $-1 -67.422293839143151 -24.61761621586264 6.9046393564569986 #
straight-curve $-1 -78.049256874294258 49.438738852507157 0 0 0 -1 I I #
point $-1 -78.049256874294258 -49.438738852507157 -14.517791958760617 #
straight-curve $-1 -78.049256874294258 0 -14.517791958760617 0 1 0 I I #
point $-1 -78.049256874294258 49.438738852507157 -14.517791958760617 #
vertex $-1 $337 $397 #
straight-curve $-1 -78.049256874294258 0 14.517791958760617 0 -1 0 I I #
edge $-1 $381 -78.049256874294258 $349 78.049256874294258 $345 $398 forward 7 unknown #
straight-curve $-1 78.049256874294258 0 14.517791958760617 0 1 0 I I #
straight-curve $-1 -78.049256874294258 -49.438738852507157 0 0 0 -1 I I #
point $-1 78.049256874294258 -49.438738852507157 14.517791958760617 #
straight-curve $-1 78.049256874294258 -9.1298589376371666 115.04637630550421 0 0 -1 I I #
point $-1 78.049256874294258 -9.1298589376371666 14.517791958760617 #
straight-curve $-1 78.049256874294258 1.7117368625770268 9.3697397519676215 0 1 0 I I #
point $-1 78.049256874294258 -9.1298589376371666 9.3697397519676144 #
point $-1 73.579815679661664 3.4234737251540537 10.028097075784704 #
straight-curve $-1 -78.049256874294258 0 14.517791958760617 0 -1 0 I I #
straight-curve $-1 -78.049256874294258 -34.59722853330009 60.580965912144499 0 0 1 I I #
point $-1 -78.049256874294258 -34.597228533300083 14.517791958760615 #
point $-1 -67.607179067497071 -30.605383606325109 4.7913912753419305 #
point $-1 -67.607179067497071 -24.61761621586264 4.7913912753419305 #
point $-1 -78.049256874294258 -49.438738852507157 14.517791958760617 #
straight-curve $-1 0 -49.438738852507157 14.517791958760617 1 0 0 I I #
End-of-ACIS-data 