500 0 9 0           
7 Unknown 11 ACIS 5.0 NT 24 Thu Mar 25 22:58:02 1999 
-1 9.9999999999999995e-007 1e-010 
body $-1 $9 $-1 $10 #
body $-1 $11 $-1 $12 #
body $-1 $13 $-1 $14 #
body $-1 $15 $-1 $16 #
body $-1 $17 $-1 $18 #
body $-1 $19 $-1 $20 #
body $-1 $21 $-1 $22 #
body $-1 $23 $-1 $24 #
body $-1 $25 $-1 $26 #
lump $-1 $-1 $27 $0 #
transform $-1 1 0 0 0 1 0 0 0 1 41.060823389385661 27.709508261293077 11.863748965376956 1 rotate no_reflect no_shear #
lump $-1 $-1 $28 $1 #
transform $-1 1 0 0 0 1 0 0 0 1 41.060823389385661 27.709508261293077 11.863748965376956 1 rotate no_reflect no_shear #
lump $-1 $-1 $29 $2 #
transform $-1 1 0 0 0 1 0 0 0 1 41.060823389385661 27.709508261293077 11.863748965376956 1 rotate no_reflect no_shear #
lump $-1 $-1 $30 $3 #
transform $-1 1 0 0 0 1 0 0 0 1 41.060823389385661 27.709508261293077 11.863748965376956 1 rotate no_reflect no_shear #
lump $-1 $-1 $31 $4 #
transform $-1 1 0 0 0 1 0 0 0 1 41.060823389385661 27.709508261293077 11.863748965376956 1 rotate no_reflect no_shear #
lump $-1 $-1 $32 $5 #
transform $-1 1 0 0 0 1 0 0 0 1 41.060823389385661 27.709508261293077 11.863748965376956 1 rotate no_reflect no_shear #
lump $-1 $-1 $33 $6 #
transform $-1 1 0 0 0 1 0 0 0 1 41.060823389385661 27.709508261293077 11.863748965376956 1 rotate no_reflect no_shear #
lump $-1 $-1 $34 $7 #
transform $-1 1 0 0 0 1 0 0 0 1 41.060823389385661 27.709508261293077 11.863748965376956 1 rotate no_reflect no_shear #
lump $-1 $-1 $35 $8 #
transform $-1 1 0 0 0 1 0 0 0 1 41.060823389385661 27.709508261293077 11.863748965376956 1 rotate no_reflect no_shear #
shell $-1 $-1 $-1 $36 $-1 $9 #
shell $-1 $-1 $-1 $37 $-1 $11 #
shell $-1 $-1 $-1 $38 $-1 $13 #
shell $-1 $-1 $-1 $39 $-1 $15 #
shell $-1 $-1 $-1 $40 $-1 $17 #
shell $-1 $-1 $-1 $41 $-1 $19 #
shell $-1 $-1 $-1 $42 $-1 $21 #
shell $-1 $-1 $-1 $43 $-1 $23 #
shell $-1 $-1 $-1 $44 $-1 $25 #
face $-1 $45 $46 $27 $-1 $47 forward single #
face $-1 $48 $49 $28 $-1 $50 forward single #
face $-1 $51 $52 $29 $-1 $53 reversed single #
face $-1 $54 $55 $30 $-1 $56 forward single #
face $-1 $57 $58 $31 $-1 $59 forward single #
face $-1 $60 $61 $32 $-1 $62 forward single #
face $-1 $63 $64 $33 $-1 $65 reversed single #
face $-1 $66 $67 $34 $-1 $68 forward single #
face $-1 $69 $70 $35 $-1 $71 forward single #
face $-1 $72 $73 $27 $-1 $74 reversed single #
loop $-1 $-1 $75 $36 #
plane-surface $-1 0 0 11.863748965376956 0 0 1 1 0 0 forward_v I I I I #
face $-1 $76 $77 $28 $-1 $78 reversed single #
loop $-1 $-1 $79 $37 #
plane-surface $-1 0 -27.709508261293077 0 0 1 0 0 0 1 forward_v I I I I #
face $-1 $80 $81 $29 $-1 $82 reversed single #
loop $-1 $-1 $83 $38 #
plane-surface $-1 20.893751088950673 -8.1067618730065689 119.33130511595159 0 -1 0 -0.57357644374324357 0 -0.81915203911291934 forward_v I I I I #
face $-1 $84 $85 $30 $-1 $86 forward single #
loop $-1 $87 $88 $39 #
cone-surface $-1 35.842925555144291 -13.009469850762605 8.0013727571838746 -0.57357644374324357 0 -0.81915203911291934 0.40957601955645967 0 -0.28678822187162178 1 I I 0 1 0.5 forward I I I I #
face $-1 $89 $90 $31 $-1 $91 forward single #
loop $-1 $92 $93 $40 #
cone-surface $-1 35.842925555144291 -11.170954359104091 8.0013727571838746 -0.57357644374324357 0 -0.81915203911291934 0.40957601955645967 0 -0.28678822187162178 1 I I 0 1 0.5 forward I I I I #
face $-1 $94 $95 $32 $-1 $96 forward single #
loop $-1 $97 $98 $41 #
cone-surface $-1 35.842925555144291 -9.3324388674455783 8.0013727571838746 -0.57357644374324357 0 -0.81915203911291934 0.40957601955645967 0 -0.28678822187162178 1 I I 0 1 0.5 forward I I I I #
face $-1 $99 $100 $33 $-1 $101 reversed single #
loop $-1 $-1 $102 $42 #
plane-surface $-1 -96.010931354531039 3.7557225707201418 63.410914315299124 0 1 0 -0.66913061440640931 0 0.74314481823134659 forward_v I I I I #
face $-1 $103 $104 $34 $-1 $105 forward single #
loop $-1 $106 $107 $43 #
cone-surface $-1 -34.291906282254196 7.0188941869806847 5.4528356503504991 0.66913061440640931 0 -0.74314481823134659 1.1147172273470198 0 1.003695921609614 1 I I 0 1 1.5 forward I I I I #
face $-1 $108 $109 $35 $-1 $110 forward single #
loop $-1 $111 $112 $44 #
cone-surface $-1 -34.291906282254196 11.913651611371495 5.4528356503504991 0.66913061440640931 0 -0.74314481823134659 1.1147172273470198 0 1.003695921609614 1 I I 0 1 1.5 forward I I I I #
face $-1 $113 $114 $27 $-1 $115 reversed single #
loop $-1 $-1 $116 $45 #
plane-surface $-1 0 0 -11.863748965376956 0 0 1 1 0 0 forward_v I I I I #
coedge $-1 $117 $118 $119 $120 forward $46 $-1 #
face $-1 $121 $122 $28 $-1 $123 reversed single #
loop $-1 $-1 $124 $48 #
plane-surface $-1 0 0 -11.863748965376956 0 0 1 1 0 0 forward_v I I I I #
coedge $-1 $125 $126 $127 $128 forward $49 $-1 #
face $-1 $129 $130 $29 $-1 $131 reversed single #
loop $-1 $-1 $132 $51 #
plane-surface $-1 -26.209291024755778 -11.170954359104091 52.061190701810162 0.57357644374324357 0 0.81915203911291934 0.81915203911291934 0 -0.57357644374324357 forward_v I I I I #
coedge $-1 $133 $134 $135 $136 reversed $52 $-1 #
face $-1 $-1 $137 $30 $-1 $138 forward single #
loop $-1 $139 $140 $54 #
cone-surface $-1 35.412743222336857 -13.009469850762605 7.3870087278491852 -0.57357644374324357 0 -0.81915203911291934 0.20478800977822983 0 -0.14339411093581089 1 I I -0.70710678118654746 0.70710678118654746 0.25 forward I I I I #
loop $-1 $-1 $141 $39 #
coedge $-1 $88 $88 $142 $143 reversed $55 $-1 #
face $-1 $-1 $144 $31 $-1 $145 forward single #
loop $-1 $146 $147 $57 #
cone-surface $-1 35.412743222336857 -11.170954359104091 7.3870087278491852 -0.57357644374324357 0 -0.81915203911291934 0.20478800977822983 0 -0.14339411093581089 1 I I -0.70710678118654746 0.70710678118654746 0.25 forward I I I I #
loop $-1 $-1 $148 $40 #
coedge $-1 $93 $93 $149 $150 reversed $58 $-1 #
face $-1 $-1 $151 $32 $-1 $152 forward single #
loop $-1 $153 $154 $60 #
cone-surface $-1 35.412743222336857 -9.3324388674455783 7.3870087278491852 -0.57357644374324357 0 -0.81915203911291934 0.20478800977822983 0 -0.14339411093581089 1 I I -0.70710678118654746 0.70710678118654746 0.25 forward I I I I #
loop $-1 $-1 $155 $41 #
coedge $-1 $98 $98 $156 $157 reversed $61 $-1 #
face $-1 $158 $159 $33 $-1 $160 reversed single #
loop $-1 $-1 $161 $63 #
plane-surface $-1 -41.060823389385661 9.4662728991760865 2.3826380470302624 -0.66913061440640931 0 0.74314481823134659 0.74314481823134659 0 0.66913061440640931 forward_v I I I I #
coedge $-1 $162 $163 $164 $165 reversed $64 $-1 #
face $-1 $-1 $166 $34 $-1 $167 forward single #
loop $-1 $168 $169 $66 #
cone-surface $-1 -32.286061319861446 7.0188941869806847 3.225119180823885 0.66913061440640931 0 -0.74314481823134659 0.55735861367350992 0 0.50184796080480698 1 I I -0.70710678118654757 0.70710678118654757 0.75 forward I I I I #
loop $-1 $-1 $170 $43 #
coedge $-1 $107 $107 $171 $172 reversed $67 $-1 #
face $-1 $-1 $173 $35 $-1 $174 forward single #
loop $-1 $175 $176 $69 #
cone-surface $-1 -32.286061319861446 11.913651611371495 3.225119180823885 0.66913061440640931 0 -0.74314481823134659 0.55735861367350992 0 0.50184796080480698 1 I I -0.70710678118654757 0.70710678118654757 0.75 forward I I I I #
loop $-1 $-1 $177 $44 #
coedge $-1 $112 $112 $178 $179 reversed $70 $-1 #
face $-1 $180 $181 $27 $-1 $182 reversed single #
loop $-1 $-1 $183 $72 #
plane-surface $-1 0 -27.709508261293077 0 0 1 0 0 0 1 forward_v I I I I #
coedge $-1 $184 $185 $186 $187 forward $73 $-1 #
coedge $-1 $188 $75 $189 $190 forward $46 $-1 #
coedge $-1 $75 $188 $191 $192 forward $46 $-1 #
coedge $-1 $193 $194 $75 $120 reversed $195 $-1 #
edge $-1 $196 -27.709508261293077 $197 27.709508261293077 $119 $198 forward 7 unknown #
face $-1 $199 $200 $28 $-1 $201 forward single #
loop $-1 $-1 $202 $76 #
plane-surface $-1 41.060823389385661 0 0 -1 0 0 0 0 1 forward_v I I I I #
coedge $-1 $203 $204 $205 $206 forward $77 $-1 #
coedge $-1 $205 $79 $202 $207 reversed $49 $-1 #
coedge $-1 $79 $205 $208 $209 reversed $49 $-1 #
coedge $-1 $210 $211 $79 $128 reversed $200 $-1 #
edge $-1 $212 -41.060823389385661 $213 41.060823389385661 $127 $214 forward 7 unknown #
face $-1 $215 $216 $29 $-1 $217 reversed single #
loop $-1 $-1 $218 $80 #
plane-surface $-1 20.893751088950673 -14.235146845201612 119.33130511595159 0 1 0 0.57357644374324357 0 0.81915203911291934 forward_v I I I I #
coedge $-1 $219 $220 $221 $222 reversed $81 $-1 #
coedge $-1 $134 $83 $223 $224 reversed $52 $-1 #
coedge $-1 $83 $133 $219 $225 reversed $52 $-1 #
coedge $-1 $221 $226 $83 $136 forward $227 $-1 #
edge $-1 $228 -30.613947844910324 $229 -20.751728620170834 $135 $230 forward 7 unknown #
loop $-1 $-1 $142 $84 #
plane-surface $-1 -26.209291024755778 -11.170954359104091 52.061190701810162 0.57357644374324357 0 0.81915203911291934 0.81915203911291934 0 -0.57357644374324357 forward_v I I I I #
loop $-1 $-1 $231 $54 #
coedge $-1 $140 $140 $141 $232 reversed $85 $-1 #
coedge $-1 $141 $141 $140 $232 forward $87 $-1 #
coedge $-1 $142 $142 $88 $143 forward $137 $-1 #
edge $-1 $233 0 $233 6.2831853071796004 $142 $234 forward 7 unknown #
loop $-1 $-1 $149 $89 #
plane-surface $-1 -26.209291024755778 -11.170954359104091 52.061190701810162 0.57357644374324357 0 0.81915203911291934 0.81915203911291934 0 -0.57357644374324357 forward_v I I I I #
loop $-1 $-1 $235 $57 #
coedge $-1 $147 $147 $148 $236 reversed $90 $-1 #
coedge $-1 $148 $148 $147 $236 forward $92 $-1 #
coedge $-1 $149 $149 $93 $150 forward $144 $-1 #
edge $-1 $237 0 $237 6.2831853071796004 $149 $238 forward 7 unknown #
loop $-1 $-1 $156 $94 #
plane-surface $-1 -26.209291024755778 -11.170954359104091 52.061190701810162 0.57357644374324357 0 0.81915203911291934 0.81915203911291934 0 -0.57357644374324357 forward_v I I I I #
loop $-1 $-1 $239 $60 #
coedge $-1 $154 $154 $155 $240 reversed $95 $-1 #
coedge $-1 $155 $155 $154 $240 forward $97 $-1 #
coedge $-1 $156 $156 $98 $157 forward $151 $-1 #
edge $-1 $241 0 $241 6.2831853071796004 $156 $242 forward 7 unknown #
face $-1 $243 $244 $33 $-1 $245 forward single #
loop $-1 $-1 $246 $99 #
plane-surface $-1 -96.010931354531039 15.176823227632031 63.410914315299124 0 -1 0 0.66913061440640931 0 -0.74314481823134659 forward_v I I I I #
coedge $-1 $247 $248 $249 $250 reversed $100 $-1 #
coedge $-1 $163 $102 $251 $252 reversed $64 $-1 #
coedge $-1 $102 $162 $247 $253 reversed $64 $-1 #
coedge $-1 $249 $254 $102 $165 forward $244 $-1 #
edge $-1 $255 6.9446422878798586 $256 17.474482498966903 $164 $257 forward 7 unknown #
loop $-1 $-1 $171 $103 #
plane-surface $-1 -41.060823389385661 9.4662728991760865 2.3826380470302624 -0.66913061440640931 0 0.74314481823134659 0.74314481823134659 0 0.66913061440640931 forward_v I I I I #
loop $-1 $-1 $258 $66 #
coedge $-1 $169 $169 $170 $259 reversed $104 $-1 #
coedge $-1 $170 $170 $169 $259 forward $106 $-1 #
coedge $-1 $171 $171 $107 $172 forward $166 $-1 #
edge $-1 $260 0 $260 6.2831853071796004 $171 $261 forward 7 unknown #
loop $-1 $-1 $178 $108 #
plane-surface $-1 -41.060823389385661 9.4662728991760865 2.3826380470302624 -0.66913061440640931 0 0.74314481823134659 0.74314481823134659 0 0.66913061440640931 forward_v I I I I #
loop $-1 $-1 $262 $69 #
coedge $-1 $176 $176 $177 $263 reversed $109 $-1 #
coedge $-1 $177 $177 $176 $263 forward $111 $-1 #
coedge $-1 $178 $178 $112 $179 forward $173 $-1 #
edge $-1 $264 0 $264 6.2831853071796004 $178 $265 forward 7 unknown #
face $-1 $266 $267 $27 $-1 $268 reversed single #
loop $-1 $-1 $269 $113 #
plane-surface $-1 -41.060823389385661 0 0 1 0 0 0 0 -1 forward_v I I I I #
coedge $-1 $270 $191 $271 $272 forward $114 $-1 #
coedge $-1 $273 $116 $270 $274 forward $73 $-1 #
coedge $-1 $116 $273 $275 $276 forward $73 $-1 #
coedge $-1 $194 $193 $116 $187 reversed $195 $-1 #
edge $-1 $277 -27.709508261293077 $278 27.709508261293077 $186 $279 forward 7 unknown #
coedge $-1 $118 $117 $280 $281 forward $46 $-1 #
coedge $-1 $282 $283 $117 $190 reversed $267 $-1 #
edge $-1 $197 -41.060823389385661 $284 41.060823389385661 $189 $285 forward 7 unknown #
coedge $-1 $183 $286 $118 $192 reversed $114 $-1 #
edge $-1 $287 -41.060823389385661 $196 41.060823389385661 $191 $288 forward 7 unknown #
coedge $-1 $186 $119 $286 $289 forward $195 $-1 #
coedge $-1 $119 $186 $282 $290 reversed $195 $-1 #
loop $-1 $-1 $193 $266 #
vertex $-1 $120 $291 #
vertex $-1 $120 $292 #
straight-curve $-1 41.060823389385661 0 11.863748965376956 0 1 0 I I #
face $-1 $293 $294 $28 $-1 $295 reversed single #
loop $-1 $-1 $211 $121 #
plane-surface $-1 0 -34.446688969338808 -8.5258815465772457 0 0 1 1 0 0 forward_v I I I I #
coedge $-1 $296 $297 $125 $207 forward $122 $-1 #
coedge $-1 $298 $124 $297 $299 forward $77 $-1 #
coedge $-1 $124 $298 $300 $301 forward $77 $-1 #
coedge $-1 $126 $125 $124 $206 reversed $49 $-1 #
edge $-1 $302 -41.060823389385661 $303 41.060823389385661 $124 $304 forward 7 unknown #
edge $-1 $303 -11.863748965376956 $213 -8.5258815465772457 $202 $305 forward 7 unknown #
coedge $-1 $300 $306 $126 $209 forward $307 $-1 #
edge $-1 $212 8.5258815465772457 $302 11.863748965376956 $208 $308 forward 7 unknown #
coedge $-1 $309 $127 $306 $310 forward $200 $-1 #
coedge $-1 $127 $309 $296 $311 forward $200 $-1 #
vertex $-1 $209 $312 #
vertex $-1 $311 $313 #
straight-curve $-1 0 -27.709508261293077 -8.5258815465772457 1 0 0 I I #
face $-1 $-1 $227 $29 $-1 $314 forward single #
loop $-1 $-1 $315 $129 #
plane-surface $-1 41.060823389385661 0 0 -1 0 0 0 0 1 forward_v I I I I #
coedge $-1 $316 $317 $318 $319 reversed $130 $-1 #
coedge $-1 $320 $132 $134 $225 forward $81 $-1 #
coedge $-1 $132 $320 $316 $321 forward $81 $-1 #
coedge $-1 $318 $135 $132 $222 forward $227 $-1 #
edge $-1 $229 2.5212846934545237 $322 8.6496696656495669 $221 $323 forward 7 unknown #
coedge $-1 $324 $325 $133 $224 forward $216 $-1 #
edge $-1 $326 -54.707503969872086 $228 -47.80190359259884 $223 $327 forward 7 unknown #
edge $-1 $229 70.082100084338947 $326 82.121646778771321 $134 $328 forward 7 unknown #
coedge $-1 $135 $318 $324 $329 forward $227 $-1 #
loop $-1 $-1 $318 $215 #
vertex $-1 $224 $330 #
vertex $-1 $136 $331 #
straight-curve $-1 10.446875544475336 -8.1067618730065689 11.863748965376956 -1 0 0 I I #
coedge $-1 $231 $231 $-1 $332 reversed $139 $-1 #
edge $-1 $333 0 $333 6.2831853071796004 $140 $334 forward 7 unknown #
vertex $-1 $143 $335 #
ellipse-curve $-1 36.129713777015915 -13.009469850762605 8.4109487767403337 0.57357644374324357 0 0.81915203911291934 0.40957601955645967 0 -0.28678822187162178 1 I I #
coedge $-1 $235 $235 $-1 $336 reversed $146 $-1 #
edge $-1 $337 0 $337 6.2831853071796004 $147 $338 forward 7 unknown #
vertex $-1 $150 $339 #
ellipse-curve $-1 36.129713777015915 -11.170954359104091 8.4109487767403337 0.57357644374324357 0 0.81915203911291934 0.40957601955645967 0 -0.28678822187162178 1 I I #
coedge $-1 $239 $239 $-1 $340 reversed $153 $-1 #
edge $-1 $341 0 $341 6.2831853071796004 $154 $342 forward 7 unknown #
vertex $-1 $157 $343 #
ellipse-curve $-1 36.129713777015915 -9.3324388674455783 8.4109487767403337 0.57357644374324357 0 0.81915203911291934 0.40957601955645967 0 -0.28678822187162178 1 I I #
face $-1 $-1 $344 $33 $-1 $345 reversed single #
loop $-1 $-1 $164 $158 #
plane-surface $-1 0 0 11.863748965376956 0 0 1 1 0 0 forward_v I I I I #
coedge $-1 $346 $347 $348 $349 reversed $159 $-1 #
coedge $-1 $350 $161 $163 $253 forward $100 $-1 #
coedge $-1 $161 $350 $346 $351 forward $100 $-1 #
coedge $-1 $348 $164 $161 $250 forward $244 $-1 #
edge $-1 $256 -0.97741387886790143 $352 10.443686778043988 $249 $353 forward 7 unknown #
coedge $-1 $354 $355 $162 $252 forward $344 $-1 #
edge $-1 $356 -29.322819110619299 $255 -19.841708192272606 $251 $357 forward 7 unknown #
edge $-1 $256 -14.169297763722046 $356 0 $163 $358 forward 7 unknown #
coedge $-1 $164 $348 $354 $359 forward $244 $-1 #
vertex $-1 $252 $360 #
vertex $-1 $165 $361 #
straight-curve $-1 -48.005465677265519 3.7557225707201418 11.863748965376956 1 0 0 I I #
coedge $-1 $258 $258 $-1 $362 reversed $168 $-1 #
edge $-1 $363 0 $363 6.2831853071796004 $169 $364 forward 7 unknown #
vertex $-1 $172 $365 #
ellipse-curve $-1 -35.795903283842136 7.0188941869806847 7.1231935062036076 -0.66913061440640931 0 0.74314481823134659 1.1147172273470198 0 1.003695921609614 1 I I #
coedge $-1 $262 $262 $-1 $366 reversed $175 $-1 #
edge $-1 $367 0 $367 6.2831853071796004 $176 $368 forward 7 unknown #
vertex $-1 $179 $369 #
ellipse-curve $-1 -35.795903283842136 11.913651611371495 7.1231935062036076 -0.66913061440640931 0 0.74314481823134659 1.1147172273470198 0 1.003695921609614 1 I I #
face $-1 $-1 $195 $27 $-1 $370 reversed single #
loop $-1 $-1 $282 $180 #
plane-surface $-1 0 27.709508261293077 0 0 -1 0 0 0 -1 forward_v I I I I #
coedge $-1 $371 $280 $283 $372 forward $181 $-1 #
coedge $-1 $286 $183 $184 $274 reversed $114 $-1 #
coedge $-1 $280 $371 $183 $272 reversed $181 $-1 #
edge $-1 $287 -11.863748965376956 $373 11.863748965376956 $271 $374 forward 7 unknown #
coedge $-1 $185 $184 $371 $375 forward $73 $-1 #
edge $-1 $278 -41.060823389385661 $373 41.060823389385661 $270 $376 forward 7 unknown #
coedge $-1 $283 $282 $185 $276 reversed $267 $-1 #
edge $-1 $377 -41.060823389385661 $277 41.060823389385661 $275 $378 forward 7 unknown #
vertex $-1 $187 $379 #
vertex $-1 $289 $380 #
straight-curve $-1 41.060823389385661 0 -11.863748965376956 0 -1 0 I I #
coedge $-1 $269 $271 $188 $281 reversed $181 $-1 #
edge $-1 $284 -27.709508261293077 $287 27.709508261293077 $280 $381 forward 7 unknown #
coedge $-1 $275 $189 $194 $290 forward $267 $-1 #
coedge $-1 $189 $275 $269 $372 reversed $267 $-1 #
vertex $-1 $190 $382 #
straight-curve $-1 0 27.709508261293077 11.863748965376956 -1 0 0 I I #
coedge $-1 $191 $270 $193 $289 reversed $114 $-1 #
vertex $-1 $281 $383 #
straight-curve $-1 0 -27.709508261293077 11.863748965376956 1 0 0 I I #
edge $-1 $196 -11.863748965376956 $278 11.863748965376956 $193 $384 forward 7 unknown #
edge $-1 $197 -11.863748965376956 $277 11.863748965376956 $194 $385 forward 7 unknown #
point $-1 41.060823389385661 -27.709508261293077 11.863748965376956 #
point $-1 41.060823389385661 27.709508261293077 11.863748965376956 #
face $-1 $-1 $307 $28 $-1 $386 reversed single #
loop $-1 $-1 $387 $199 #
plane-surface $-1 0 -41.183869677384543 -10.194815255977101 0 1 0 0 0 1 forward_v I I I I #
coedge $-1 $388 $202 $211 $311 reversed $122 $-1 #
coedge $-1 $202 $388 $203 $299 reversed $122 $-1 #
coedge $-1 $204 $203 $389 $390 forward $77 $-1 #
edge $-1 $303 27.709508261293077 $391 41.183869677384543 $297 $392 forward 7 unknown #
coedge $-1 $393 $208 $204 $301 reversed $307 $-1 #
edge $-1 $394 -41.183869677384543 $302 -27.709508261293077 $300 $395 forward 7 unknown #
vertex $-1 $209 $396 #
vertex $-1 $299 $397 #
straight-curve $-1 0 -27.709508261293077 -11.863748965376956 1 0 0 I I #
straight-curve $-1 41.060823389385661 -27.709508261293077 0 0 0 1 I I #
coedge $-1 $208 $393 $210 $310 reversed $307 $-1 #
loop $-1 $-1 $208 $293 #
straight-curve $-1 -41.060823389385661 -27.709508261293077 0 0 0 -1 I I #
coedge $-1 $211 $210 $398 $399 forward $200 $-1 #
edge $-1 $212 -6.7371807080457309 $400 6.7371807080457344 $306 $401 forward 7 unknown #
edge $-1 $402 -6.7371807080457344 $213 6.7371807080457309 $296 $403 forward 7 unknown #
point $-1 -41.060823389385661 -27.709508261293077 -8.5258815465772457 #
point $-1 41.060823389385661 -27.709508261293077 -8.5258815465772457 #
plane-surface $-1 0 0 11.863748965376956 0 0 1 1 0 0 forward_v I I I I #
coedge $-1 $325 $324 $317 $404 forward $216 $-1 #
coedge $-1 $317 $218 $220 $321 reversed $130 $-1 #
coedge $-1 $218 $316 $315 $404 reversed $130 $-1 #
coedge $-1 $226 $221 $218 $319 forward $227 $-1 #
edge $-1 $322 20.751728620170834 $405 30.613947844910324 $318 $406 forward 7 unknown #
coedge $-1 $220 $219 $325 $407 reversed $81 $-1 #
edge $-1 $408 -82.121646778771321 $322 -70.082100084338947 $316 $409 forward 7 unknown #
vertex $-1 $222 $410 #
straight-curve $-1 31.198604164646163 -5.5854771795520453 11.863748965376963 0 -1 0 I I #
coedge $-1 $315 $223 $226 $329 reversed $216 $-1 #
coedge $-1 $223 $315 $320 $407 forward $216 $-1 #
vertex $-1 $224 $411 #
straight-curve $-1 41.060823389385661 -8.1067618730065689 59.665652557975797 0 0 1 I I #
straight-curve $-1 -26.209291024755778 -8.1067618730065689 52.061190701810162 0.81915203911291934 0 -0.57357644374324357 I I #
edge $-1 $405 -14.235146845201612 $228 -8.1067618730065689 $324 $412 forward 7 unknown #
point $-1 41.060823389385661 -8.1067618730065689 11.863748965376956 #
point $-1 31.19860416464617 -8.1067618730065689 11.863748965376956 #
edge $-1 $413 1 $413 0 $231 $-1 forward 7 unknown #
vertex $-1 $232 $414 #
ellipse-curve $-1 35.556137333272666 -13.009469850762605 7.5917967376274147 0.57357644374324357 0 0.81915203911291934 0.40957601955645967 0 -0.28678822187162178 1 I I #
point $-1 36.539289796572369 -13.009469850762605 8.1241605548687126 #
edge $-1 $415 1 $415 0 $235 $-1 forward 7 unknown #
vertex $-1 $236 $416 #
ellipse-curve $-1 35.556137333272666 -11.170954359104091 7.5917967376274147 0.57357644374324357 0 0.81915203911291934 0.40957601955645967 0 -0.28678822187162178 1 I I #
point $-1 36.539289796572369 -11.170954359104091 8.1241605548687126 #
edge $-1 $417 1 $417 0 $239 $-1 forward 7 unknown #
vertex $-1 $240 $418 #
ellipse-curve $-1 35.556137333272666 -9.3324388674455783 7.5917967376274147 0.57357644374324357 0 0.81915203911291934 0.40957601955645967 0 -0.28678822187162178 1 I I #
point $-1 36.539289796572369 -9.3324388674455783 8.1241605548687126 #
loop $-1 $-1 $251 $243 #
plane-surface $-1 -41.060823389385661 0 0 1 0 0 0 0 -1 forward_v I I I I #
coedge $-1 $347 $246 $248 $351 reversed $159 $-1 #
coedge $-1 $246 $346 $419 $420 reversed $159 $-1 #
coedge $-1 $254 $249 $246 $349 forward $244 $-1 #
edge $-1 $352 -17.474482498966903 $421 -6.9446422878798586 $348 $422 forward 7 unknown #
coedge $-1 $248 $247 $355 $423 reversed $100 $-1 #
edge $-1 $424 0 $352 14.169297763722046 $346 $425 forward 7 unknown #
vertex $-1 $250 $426 #
straight-curve $-1 -30.530983178298612 4.7331364495880432 11.863748965376956 0 1 0 I I #
coedge $-1 $419 $251 $254 $359 reversed $344 $-1 #
coedge $-1 $251 $419 $350 $423 forward $344 $-1 #
vertex $-1 $252 $427 #
straight-curve $-1 -41.060823389385661 3.7557225707201418 31.705457157649562 0 0 1 I I #
straight-curve $-1 -41.060823389385661 3.7557225707201418 2.3826380470302624 -0.74314481823134659 0 -0.66913061440640931 I I #
edge $-1 $421 -15.176823227632031 $255 -3.7557225707201418 $354 $428 forward 7 unknown #
point $-1 -41.060823389385661 3.7557225707201418 11.863748965376956 #
point $-1 -30.530983178298616 3.7557225707201418 11.863748965376956 #
edge $-1 $429 1 $429 0 $258 $-1 forward 7 unknown #
vertex $-1 $259 $430 #
ellipse-curve $-1 -32.787909280666256 7.0188941869806847 3.7824777944973951 -0.66913061440640931 0 0.74314481823134659 1.1147172273470198 0 1.003695921609614 1 I I #
point $-1 -34.681186056495115 7.0188941869806847 8.126889427813218 #
edge $-1 $431 1 $431 0 $262 $-1 forward 7 unknown #
vertex $-1 $263 $432 #
ellipse-curve $-1 -32.787909280666256 11.913651611371495 3.7824777944973951 -0.66913061440640931 0 0.74314481823134659 1.1147172273470198 0 1.003695921609614 1 I I #
point $-1 -34.681186056495115 11.913651611371495 8.126889427813218 #
plane-surface $-1 41.060823389385661 0 0 -1 0 0 0 0 1 forward_v I I I I #
coedge $-1 $271 $269 $273 $375 reversed $181 $-1 #
edge $-1 $284 -11.863748965376956 $377 11.863748965376956 $283 $433 forward 7 unknown #
vertex $-1 $375 $434 #
straight-curve $-1 -41.060823389385661 -27.709508261293077 0 0 0 -1 I I #
edge $-1 $373 -27.709508261293077 $377 27.709508261293077 $371 $435 forward 7 unknown #
straight-curve $-1 0 -27.709508261293077 -11.863748965376956 -1 0 0 I I #
vertex $-1 $276 $436 #
straight-curve $-1 0 27.709508261293077 -11.863748965376956 1 0 0 I I #
point $-1 41.060823389385661 27.709508261293077 -11.863748965376956 #
point $-1 41.060823389385661 -27.709508261293077 -11.863748965376956 #
straight-curve $-1 -41.060823389385661 0 11.863748965376956 0 -1 0 I I #
point $-1 -41.060823389385661 27.709508261293077 11.863748965376956 #
point $-1 -41.060823389385661 -27.709508261293077 11.863748965376956 #
straight-curve $-1 41.060823389385661 -27.709508261293077 0 0 0 -1 I I #
straight-curve $-1 41.060823389385661 27.709508261293077 0 0 0 -1 I I #
plane-surface $-1 -41.060823389385661 0 0 1 0 0 0 0 -1 forward_v I I I I #
coedge $-1 $389 $398 $393 $437 forward $294 $-1 #
coedge $-1 $297 $296 $438 $439 forward $122 $-1 #
coedge $-1 $438 $387 $298 $390 reversed $294 $-1 #
edge $-1 $391 -41.060823389385661 $394 41.060823389385661 $389 $440 forward 7 unknown #
vertex $-1 $439 $441 #
straight-curve $-1 41.060823389385661 0 -11.863748965376956 0 -1 0 I I #
coedge $-1 $306 $300 $387 $437 reversed $307 $-1 #
vertex $-1 $301 $442 #
straight-curve $-1 -41.060823389385661 0 -11.863748965376956 0 1 0 I I #
point $-1 -41.060823389385661 -27.709508261293077 -11.863748965376956 #
point $-1 41.060823389385661 -27.709508261293077 -11.863748965376956 #
coedge $-1 $387 $438 $309 $399 reversed $294 $-1 #
edge $-1 $400 -41.060823389385661 $402 41.060823389385661 $398 $443 forward 7 unknown #
vertex $-1 $310 $444 #
straight-curve $-1 -41.060823389385661 -34.446688969338808 -8.5258815465772457 0 -1 0 I I #
vertex $-1 $311 $445 #
straight-curve $-1 41.060823389385661 -34.446688969338808 -8.5258815465772457 0 1 0 I I #
edge $-1 $405 47.80190359259884 $408 54.707503969872086 $315 $446 forward 7 unknown #
vertex $-1 $329 $447 #
straight-curve $-1 10.446875544475336 -14.235146845201612 11.863748965376956 1 0 0 I I #
edge $-1 $408 -8.6496696656495669 $326 -2.5212846934545237 $325 $448 forward 7 unknown #
vertex $-1 $407 $449 #
straight-curve $-1 -26.209291024755778 -14.235146845201612 52.061190701810162 -0.81915203911291934 0 0.57357644374324357 I I #
point $-1 31.19860416464617 -14.235146845201612 11.863748965376956 #
point $-1 41.060823389385654 -8.1067618730065689 4.9581485881037111 #
straight-curve $-1 41.060823389385661 0 11.863748965376956 0 1 0 I I #
vertex $-1 $332 $450 #
point $-1 35.965713352829127 -13.009469850762605 7.3050085157557936 #
vertex $-1 $336 $451 #
point $-1 35.965713352829127 -11.170954359104091 7.3050085157557936 #
vertex $-1 $340 $452 #
point $-1 35.965713352829127 -9.3324388674455783 7.3050085157557936 #
coedge $-1 $355 $354 $347 $420 forward $344 $-1 #
edge $-1 $421 19.841708192272606 $424 29.322819110619299 $419 $453 forward 7 unknown #
vertex $-1 $359 $454 #
straight-curve $-1 -48.005465677265519 15.176823227632031 11.863748965376956 -1 0 0 I I #
edge $-1 $424 -10.443686778043988 $356 0.97741387886790143 $355 $455 forward 7 unknown #
vertex $-1 $423 $456 #
straight-curve $-1 -41.060823389385661 15.176823227632031 2.3826380470302624 0.74314481823134659 0 0.66913061440640931 I I #
point $-1 -30.530983178298616 15.176823227632031 11.863748965376956 #
point $-1 -41.060823389385661 3.7557225707201418 2.3826380470302624 #
straight-curve $-1 -41.060823389385661 0 11.863748965376956 0 -1 0 I I #
vertex $-1 $362 $457 #
point $-1 -31.673192053319234 7.0188941869806847 4.786173716107009 #
vertex $-1 $366 $458 #
point $-1 -31.673192053319234 11.913651611371495 4.786173716107009 #
straight-curve $-1 -41.060823389385661 27.709508261293077 0 0 0 -1 I I #
point $-1 -41.060823389385661 -27.709508261293077 -11.863748965376956 #
straight-curve $-1 -41.060823389385661 0 -11.863748965376956 0 1 0 I I #
point $-1 -41.060823389385661 27.709508261293077 -11.863748965376956 #
edge $-1 $400 -1.6689337093998553 $394 1.6689337093998553 $393 $459 forward 7 unknown #
coedge $-1 $398 $389 $388 $439 reversed $294 $-1 #
edge $-1 $402 -1.6689337093998553 $391 1.6689337093998553 $388 $460 forward 7 unknown #
straight-curve $-1 0 -41.183869677384543 -11.863748965376956 -1 0 0 I I #
point $-1 41.060823389385661 -41.183869677384543 -11.863748965376956 #
point $-1 -41.060823389385661 -41.183869677384543 -11.863748965376956 #
straight-curve $-1 0 -41.183869677384543 -8.5258815465772457 1 0 0 I I #
point $-1 -41.060823389385661 -41.183869677384543 -8.5258815465772457 #
point $-1 41.060823389385661 -41.183869677384543 -8.5258815465772457 #
straight-curve $-1 41.060823389385661 -14.235146845201612 59.665652557975797 0 0 -1 I I #
point $-1 41.060823389385661 -14.235146845201612 11.863748965376956 #
straight-curve $-1 41.060823389385661 -5.5854771795520453 4.9581485881037111 0 1 0 I I #
point $-1 41.060823389385654 -14.235146845201612 4.9581485881037111 #
point $-1 35.269349111401048 -13.009469850762605 7.1822207180709556 #
point $-1 35.269349111401048 -11.170954359104091 7.1822207180709556 #
point $-1 35.269349111401048 -9.3324388674455783 7.1822207180709556 #
straight-curve $-1 -41.060823389385661 15.176823227632031 31.705457157649562 0 0 -1 I I #
point $-1 -41.060823389385661 15.176823227632031 11.863748965376956 #
straight-curve $-1 -41.060823389385661 4.7331364495880432 2.3826380470302606 0 -1 0 I I #
point $-1 -41.060823389385661 15.176823227632031 2.3826380470302624 #
point $-1 -31.78421335905664 7.0188941869806847 2.667760567150375 #
point $-1 -31.78421335905664 11.913651611371495 2.667760567150375 #
straight-curve $-1 -41.060823389385661 -41.183869677384543 -10.194815255977101 0 0 -1 I I #
straight-curve $-1 41.060823389385661 -41.183869677384543 -10.194815255977101 0 0 -1 I I #
End-of-ACIS-data 