500 0 3 0           
7 Unknown 11 ACIS 5.0 NT 24 Thu Mar 25 23:35:59 1999 
-1 9.9999999999999995e-007 1e-010 
body $-1 $3 $-1 $4 #
body $-1 $5 $-1 $6 #
body $-1 $7 $-1 $8 #
lump $-1 $-1 $9 $0 #
transform $-1 1 0 0 0 1 0 0 0 1 75.806756797997991 42.065381496005081 17.370472241772074 1 rotate no_reflect no_shear #
lump $-1 $-1 $10 $1 #
transform $-1 1 0 0 0 1 0 0 0 1 75.806756797997991 42.065381496005081 17.370472241772074 1 rotate no_reflect no_shear #
lump $-1 $-1 $11 $2 #
transform $-1 1 0 0 0 1 0 0 0 1 75.806756797997991 42.065381496005081 17.370472241772074 1 rotate no_reflect no_shear #
shell $-1 $-1 $-1 $12 $-1 $3 #
shell $-1 $-1 $-1 $13 $-1 $5 #
shell $-1 $-1 $-1 $14 $-1 $7 #
face $-1 $15 $16 $9 $-1 $17 forward single #
face $-1 $18 $19 $10 $-1 $20 forward single #
face $-1 $21 $22 $11 $-1 $23 forward single #
face $-1 $24 $25 $9 $-1 $26 reversed single #
loop $-1 $-1 $27 $12 #
plane-surface $-1 0 0 17.370472241772074 0 0 1 1 0 0 forward_v I I I I #
face $-1 $28 $29 $10 $-1 $30 reversed single #
loop $-1 $-1 $31 $13 #
plane-surface $-1 0 -42.065381496005081 0 0 1 0 0 0 1 forward_v I I I I #
face $-1 $32 $33 $11 $-1 $34 reversed single #
loop $-1 $-1 $35 $14 #
plane-surface $-1 0 42.065381496005081 0 0 -1 0 0 0 -1 forward_v I I I I #
face $-1 $36 $37 $9 $-1 $38 reversed single #
loop $-1 $-1 $39 $15 #
plane-surface $-1 0 0 -17.370472241772074 0 0 1 1 0 0 forward_v I I I I #
coedge $-1 $40 $41 $42 $43 forward $16 $-1 #
face $-1 $44 $45 $10 $-1 $46 reversed single #
loop $-1 $-1 $47 $18 #
plane-surface $-1 0 0 -17.370472241772074 0 0 1 1 0 0 forward_v I I I I #
coedge $-1 $48 $49 $50 $51 forward $19 $-1 #
face $-1 $52 $53 $11 $-1 $54 forward single #
loop $-1 $-1 $55 $21 #
plane-surface $-1 -75.806756797997991 0 0 1 0 0 0 0 -1 forward_v I I I I #
coedge $-1 $56 $57 $58 $59 forward $22 $-1 #
face $-1 $60 $61 $9 $-1 $62 reversed single #
loop $-1 $-1 $63 $24 #
plane-surface $-1 0 -42.065381496005081 0 0 1 0 0 0 1 forward_v I I I I #
coedge $-1 $64 $65 $66 $67 forward $25 $-1 #
coedge $-1 $68 $27 $69 $70 forward $16 $-1 #
coedge $-1 $27 $68 $71 $72 forward $16 $-1 #
coedge $-1 $73 $74 $27 $43 reversed $75 $-1 #
edge $-1 $76 -42.065381496005081 $77 42.065381496005081 $42 $78 forward 7 unknown #
face $-1 $79 $80 $10 $-1 $81 forward single #
loop $-1 $-1 $82 $28 #
plane-surface $-1 75.806756797997991 0 0 -1 0 0 0 0 1 forward_v I I I I #
coedge $-1 $83 $84 $85 $86 forward $29 $-1 #
coedge $-1 $85 $31 $82 $87 reversed $19 $-1 #
coedge $-1 $31 $85 $88 $89 reversed $19 $-1 #
coedge $-1 $90 $91 $31 $51 reversed $80 $-1 #
edge $-1 $92 -75.806756797997991 $93 75.806756797997991 $50 $94 forward 7 unknown #
face $-1 $95 $96 $11 $-1 $97 reversed single #
loop $-1 $-1 $98 $32 #
plane-surface $-1 0 53.400612586396484 -10.785840273174067 0 0 1 1 0 0 forward_v I I I I #
coedge $-1 $99 $100 $56 $101 forward $33 $-1 #
coedge $-1 $102 $35 $55 $101 reversed $22 $-1 #
coedge $-1 $35 $102 $103 $104 reversed $22 $-1 #
coedge $-1 $98 $105 $35 $59 reversed $53 $-1 #
edge $-1 $106 -75.806756797997991 $107 75.806756797997991 $58 $108 forward 7 unknown #
face $-1 $109 $110 $9 $-1 $111 reversed single #
loop $-1 $-1 $112 $36 #
plane-surface $-1 -75.806756797997991 0 0 1 0 0 0 0 -1 forward_v I I I I #
coedge $-1 $71 $113 $73 $114 reversed $37 $-1 #
coedge $-1 $115 $39 $113 $116 forward $25 $-1 #
coedge $-1 $39 $115 $117 $118 forward $25 $-1 #
coedge $-1 $74 $73 $39 $67 reversed $75 $-1 #
edge $-1 $119 -42.065381496005081 $120 42.065381496005081 $66 $121 forward 7 unknown #
coedge $-1 $41 $40 $122 $123 forward $16 $-1 #
coedge $-1 $124 $125 $40 $70 reversed $110 $-1 #
edge $-1 $77 -75.806756797997991 $126 75.806756797997991 $69 $127 forward 7 unknown #
coedge $-1 $128 $63 $41 $72 reversed $37 $-1 #
edge $-1 $129 -75.806756797997991 $76 75.806756797997991 $71 $130 forward 7 unknown #
coedge $-1 $66 $42 $63 $114 forward $75 $-1 #
coedge $-1 $42 $66 $124 $131 reversed $75 $-1 #
loop $-1 $-1 $73 $109 #
vertex $-1 $43 $132 #
vertex $-1 $43 $133 #
straight-curve $-1 75.806756797997991 0 17.370472241772074 0 1 0 I I #
face $-1 $134 $135 $10 $-1 $136 reversed single #
loop $-1 $-1 $91 $44 #
plane-surface $-1 0 -53.400612586396484 -10.785840273174067 0 0 1 1 0 0 forward_v I I I I #
coedge $-1 $137 $138 $48 $87 forward $45 $-1 #
coedge $-1 $139 $47 $138 $140 forward $29 $-1 #
coedge $-1 $47 $139 $141 $142 forward $29 $-1 #
coedge $-1 $49 $48 $47 $86 reversed $19 $-1 #
edge $-1 $143 -75.806756797997991 $144 75.806756797997991 $47 $145 forward 7 unknown #
edge $-1 $144 -17.370472241772074 $93 -10.785840273174067 $82 $146 forward 7 unknown #
coedge $-1 $141 $147 $49 $89 forward $148 $-1 #
edge $-1 $92 10.785840273174067 $143 17.370472241772074 $88 $149 forward 7 unknown #
coedge $-1 $150 $50 $147 $151 forward $80 $-1 #
coedge $-1 $50 $150 $137 $152 forward $80 $-1 #
vertex $-1 $89 $153 #
vertex $-1 $152 $154 #
straight-curve $-1 0 -42.065381496005081 -10.785840273174067 1 0 0 I I #
face $-1 $155 $156 $11 $-1 $157 reversed single #
loop $-1 $-1 $158 $52 #
plane-surface $-1 0 64.73584367678788 -14.07815625747307 0 -1 0 0 0 -1 forward_v I I I I #
coedge $-1 $159 $58 $160 $161 forward $53 $-1 #
coedge $-1 $162 $55 $105 $163 reversed $33 $-1 #
coedge $-1 $55 $162 $164 $165 reversed $33 $-1 #
edge $-1 $166 -17.370472241772074 $107 -10.785840273174067 $55 $167 forward 7 unknown #
coedge $-1 $57 $56 $168 $169 reversed $22 $-1 #
coedge $-1 $170 $160 $57 $104 forward $171 $-1 #
edge $-1 $106 10.785840273174067 $172 17.370472241772074 $103 $173 forward 7 unknown #
coedge $-1 $58 $159 $99 $163 forward $53 $-1 #
vertex $-1 $104 $174 #
vertex $-1 $163 $175 #
straight-curve $-1 0 42.065381496005081 -10.785840273174067 -1 0 0 I I #
face $-1 $-1 $75 $9 $-1 $176 reversed single #
loop $-1 $-1 $125 $60 #
plane-surface $-1 0 42.065381496005081 0 0 -1 0 0 0 -1 forward_v I I I I #
coedge $-1 $177 $122 $125 $178 forward $61 $-1 #
coedge $-1 $63 $128 $64 $116 reversed $37 $-1 #
edge $-1 $76 -17.370472241772074 $120 17.370472241772074 $73 $179 forward 7 unknown #
coedge $-1 $65 $64 $177 $180 forward $25 $-1 #
edge $-1 $120 -75.806756797997991 $181 75.806756797997991 $113 $182 forward 7 unknown #
coedge $-1 $125 $124 $65 $118 reversed $110 $-1 #
edge $-1 $183 -75.806756797997991 $119 75.806756797997991 $117 $184 forward 7 unknown #
vertex $-1 $67 $185 #
vertex $-1 $114 $186 #
straight-curve $-1 75.806756797997991 0 -17.370472241772074 0 -1 0 I I #
coedge $-1 $112 $187 $68 $123 reversed $61 $-1 #
edge $-1 $126 -42.065381496005081 $129 42.065381496005081 $122 $188 forward 7 unknown #
coedge $-1 $117 $69 $74 $131 forward $110 $-1 #
coedge $-1 $69 $117 $112 $178 reversed $110 $-1 #
vertex $-1 $70 $189 #
straight-curve $-1 0 42.065381496005081 17.370472241772074 -1 0 0 I I #
coedge $-1 $113 $71 $187 $190 forward $37 $-1 #
vertex $-1 $123 $191 #
straight-curve $-1 0 -42.065381496005081 17.370472241772074 1 0 0 I I #
edge $-1 $77 -17.370472241772074 $119 17.370472241772074 $74 $192 forward 7 unknown #
point $-1 75.806756797997991 -42.065381496005081 17.370472241772074 #
point $-1 75.806756797997991 42.065381496005081 17.370472241772074 #
face $-1 $-1 $148 $10 $-1 $193 reversed single #
loop $-1 $-1 $194 $79 #
plane-surface $-1 0 -64.73584367678788 -14.07815625747307 0 1 0 0 0 1 forward_v I I I I #
coedge $-1 $195 $82 $91 $152 reversed $45 $-1 #
coedge $-1 $82 $195 $83 $140 reversed $45 $-1 #
coedge $-1 $84 $83 $196 $197 forward $29 $-1 #
edge $-1 $144 42.065381496005081 $198 64.73584367678788 $138 $199 forward 7 unknown #
coedge $-1 $200 $88 $84 $142 reversed $148 $-1 #
edge $-1 $201 -64.73584367678788 $143 -42.065381496005081 $141 $202 forward 7 unknown #
vertex $-1 $89 $203 #
vertex $-1 $140 $204 #
straight-curve $-1 0 -42.065381496005081 -17.370472241772074 1 0 0 I I #
straight-curve $-1 75.806756797997991 -42.065381496005081 0 0 0 1 I I #
coedge $-1 $88 $200 $90 $151 reversed $148 $-1 #
loop $-1 $-1 $88 $134 #
straight-curve $-1 -75.806756797997991 -42.065381496005081 0 0 0 -1 I I #
coedge $-1 $91 $90 $205 $206 forward $80 $-1 #
edge $-1 $92 -11.335231090391403 $207 11.335231090391396 $147 $208 forward 7 unknown #
edge $-1 $209 -11.335231090391396 $93 11.335231090391403 $137 $210 forward 7 unknown #
point $-1 -75.806756797997991 -42.065381496005081 -10.785840273174067 #
point $-1 75.806756797997991 -42.065381496005081 -10.785840273174067 #
face $-1 $-1 $171 $11 $-1 $211 reversed single #
loop $-1 $-1 $168 $95 #
plane-surface $-1 0 0 -17.370472241772074 0 0 1 1 0 0 forward_v I I I I #
coedge $-1 $212 $213 $214 $215 forward $96 $-1 #
coedge $-1 $105 $98 $213 $216 forward $53 $-1 #
coedge $-1 $103 $214 $98 $161 reversed $171 $-1 #
edge $-1 $106 -11.335231090391403 $217 11.335231090391396 $160 $218 forward 7 unknown #
coedge $-1 $100 $99 $219 $220 forward $33 $-1 #
edge $-1 $221 -11.335231090391396 $107 11.335231090391403 $99 $222 forward 7 unknown #
coedge $-1 $223 $168 $100 $165 forward $156 $-1 #
edge $-1 $166 -11.335231090391403 $224 11.335231090391396 $100 $225 forward 7 unknown #
vertex $-1 $165 $226 #
straight-curve $-1 -75.806756797997991 42.065381496005081 0 0 0 1 I I #
coedge $-1 $164 $227 $102 $169 forward $156 $-1 #
edge $-1 $172 -75.806756797997991 $166 75.806756797997991 $168 $228 forward 7 unknown #
coedge $-1 $214 $103 $227 $229 reversed $171 $-1 #
loop $-1 $-1 $103 $155 #
vertex $-1 $104 $230 #
straight-curve $-1 75.806756797997991 42.065381496005081 0 0 0 -1 I I #
point $-1 75.806756797997991 42.065381496005081 -10.785840273174067 #
point $-1 -75.806756797997991 42.065381496005081 -10.785840273174067 #
plane-surface $-1 75.806756797997991 0 0 -1 0 0 0 0 1 forward_v I I I I #
coedge $-1 $187 $112 $115 $180 reversed $61 $-1 #
edge $-1 $126 -17.370472241772074 $183 17.370472241772074 $125 $231 forward 7 unknown #
straight-curve $-1 75.806756797997991 -42.065381496005081 0 0 0 -1 I I #
edge $-1 $181 -42.065381496005081 $183 42.065381496005081 $177 $232 forward 7 unknown #
vertex $-1 $180 $233 #
straight-curve $-1 0 -42.065381496005081 -17.370472241772074 -1 0 0 I I #
vertex $-1 $118 $234 #
straight-curve $-1 0 42.065381496005081 -17.370472241772074 1 0 0 I I #
point $-1 75.806756797997991 42.065381496005081 -17.370472241772074 #
point $-1 75.806756797997991 -42.065381496005081 -17.370472241772074 #
coedge $-1 $122 $177 $128 $190 reversed $61 $-1 #
straight-curve $-1 -75.806756797997991 0 17.370472241772074 0 -1 0 I I #
point $-1 -75.806756797997991 42.065381496005081 17.370472241772074 #
edge $-1 $129 -17.370472241772074 $181 17.370472241772074 $187 $235 forward 7 unknown #
point $-1 -75.806756797997991 -42.065381496005081 17.370472241772074 #
straight-curve $-1 75.806756797997991 42.065381496005081 0 0 0 -1 I I #
plane-surface $-1 -75.806756797997991 0 0 1 0 0 0 0 -1 forward_v I I I I #
coedge $-1 $196 $205 $200 $236 forward $135 $-1 #
coedge $-1 $138 $137 $237 $238 forward $45 $-1 #
coedge $-1 $237 $194 $139 $197 reversed $135 $-1 #
edge $-1 $198 -75.806756797997991 $201 75.806756797997991 $196 $239 forward 7 unknown #
vertex $-1 $238 $240 #
straight-curve $-1 75.806756797997991 0 -17.370472241772074 0 -1 0 I I #
coedge $-1 $147 $141 $194 $236 reversed $148 $-1 #
vertex $-1 $142 $241 #
straight-curve $-1 -75.806756797997991 0 -17.370472241772074 0 1 0 I I #
point $-1 -75.806756797997991 -42.065381496005081 -17.370472241772074 #
point $-1 75.806756797997991 -42.065381496005081 -17.370472241772074 #
coedge $-1 $194 $237 $150 $206 reversed $135 $-1 #
edge $-1 $207 -75.806756797997991 $209 75.806756797997991 $205 $242 forward 7 unknown #
vertex $-1 $151 $243 #
straight-curve $-1 -75.806756797997991 -53.400612586396484 -10.785840273174067 0 -1 0 I I #
vertex $-1 $152 $244 #
straight-curve $-1 75.806756797997991 -53.400612586396484 -10.785840273174067 0 1 0 I I #
plane-surface $-1 75.806756797997991 0 0 -1 0 0 0 0 1 forward_v I I I I #
coedge $-1 $219 $158 $223 $245 reversed $96 $-1 #
coedge $-1 $158 $219 $159 $216 reversed $96 $-1 #
coedge $-1 $160 $170 $158 $215 reversed $171 $-1 #
edge $-1 $217 -3.2923159842990035 $246 3.2923159842990035 $214 $247 forward 7 unknown #
edge $-1 $217 -75.806756797997991 $221 75.806756797997991 $213 $248 forward 7 unknown #
vertex $-1 $161 $249 #
straight-curve $-1 75.806756797997991 53.400612586396484 -10.785840273174067 0 1 0 I I #
coedge $-1 $213 $212 $162 $220 reversed $96 $-1 #
edge $-1 $221 -3.2923159842990035 $224 3.2923159842990035 $219 $250 forward 7 unknown #
vertex $-1 $216 $251 #
straight-curve $-1 -75.806756797997991 53.400612586396484 -10.785840273174067 0 -1 0 I I #
coedge $-1 $227 $164 $212 $245 forward $156 $-1 #
vertex $-1 $245 $252 #
straight-curve $-1 -75.806756797997991 53.400612586396484 -17.370472241772074 0 1 0 I I #
point $-1 -75.806756797997991 42.065381496005081 -17.370472241772074 #
coedge $-1 $168 $223 $170 $229 forward $156 $-1 #
straight-curve $-1 0 42.065381496005081 -17.370472241772074 -1 0 0 I I #
edge $-1 $246 -64.73584367678788 $172 -42.065381496005081 $170 $253 forward 7 unknown #
point $-1 75.806756797997991 42.065381496005081 -17.370472241772074 #
straight-curve $-1 -75.806756797997991 42.065381496005081 0 0 0 -1 I I #
straight-curve $-1 -75.806756797997991 0 -17.370472241772074 0 1 0 I I #
point $-1 -75.806756797997991 -42.065381496005081 -17.370472241772074 #
point $-1 -75.806756797997991 42.065381496005081 -17.370472241772074 #
straight-curve $-1 -75.806756797997991 -42.065381496005081 0 0 0 -1 I I #
edge $-1 $207 -3.2923159842990035 $201 3.2923159842990035 $200 $254 forward 7 unknown #
coedge $-1 $205 $196 $195 $238 reversed $135 $-1 #
edge $-1 $209 -3.2923159842990035 $198 3.2923159842990035 $195 $255 forward 7 unknown #
straight-curve $-1 0 -64.73584367678788 -17.370472241772074 -1 0 0 I I #
point $-1 75.806756797997991 -64.73584367678788 -17.370472241772074 #
point $-1 -75.806756797997991 -64.73584367678788 -17.370472241772074 #
straight-curve $-1 0 -64.73584367678788 -10.785840273174067 1 0 0 I I #
point $-1 -75.806756797997991 -64.73584367678788 -10.785840273174067 #
point $-1 75.806756797997991 -64.73584367678788 -10.785840273174067 #
edge $-1 $224 -75.806756797997991 $246 75.806756797997991 $212 $256 forward 7 unknown #
vertex $-1 $229 $257 #
straight-curve $-1 75.806756797997991 64.73584367678788 -14.07815625747307 0 0 -1 I I #
straight-curve $-1 0 64.73584367678788 -10.785840273174067 -1 0 0 I I #
point $-1 75.806756797997991 64.73584367678788 -10.785840273174067 #
straight-curve $-1 -75.806756797997991 64.73584367678788 -14.07815625747307 0 0 -1 I I #
point $-1 -75.806756797997991 64.73584367678788 -10.785840273174067 #
point $-1 -75.806756797997991 64.73584367678788 -17.370472241772074 #
straight-curve $-1 75.806756797997991 0 -17.370472241772074 0 -1 0 I I #
straight-curve $-1 -75.806756797997991 -64.73584367678788 -14.07815625747307 0 0 -1 I I #
straight-curve $-1 75.806756797997991 -64.73584367678788 -14.07815625747307 0 0 -1 I I #
straight-curve $-1 0 64.73584367678788 -17.370472241772074 1 0 0 I I #
point $-1 75.806756797997991 64.73584367678788 -17.370472241772074 #
End-of-ACIS-data 