500 0 7 0           
7 Unknown 11 ACIS 5.0 NT 24 Thu Mar 25 16:16:46 1999 
-1 9.9999999999999995e-007 1e-010 
body $-1 $7 $-1 $8 #
body $-1 $9 $-1 $10 #
body $-1 $11 $-1 $12 #
body $-1 $13 $-1 $14 #
body $-1 $15 $-1 $16 #
body $-1 $17 $-1 $18 #
body $-1 $19 $-1 $20 #
lump $-1 $-1 $21 $0 #
transform $-1 1 0 0 0 1 0 0 0 1 72.986846522415846 33.764129061436321 11.867987806790151 1 rotate no_reflect no_shear #
lump $-1 $-1 $22 $1 #
transform $-1 1 0 0 0 1 0 0 0 1 72.986846522415846 33.764129061436321 11.867987806790151 1 rotate no_reflect no_shear #
lump $-1 $-1 $23 $2 #
transform $-1 1 0 0 0 1 0 0 0 1 72.986846522415846 33.764129061436321 11.867987806790151 1 rotate no_reflect no_shear #
lump $-1 $-1 $24 $3 #
transform $-1 1 0 0 0 1 0 0 0 1 72.986846522415846 33.764129061436321 11.867987806790151 1 rotate no_reflect no_shear #
lump $-1 $-1 $25 $4 #
transform $-1 1 0 0 0 1 0 0 0 1 72.986846522415846 33.764129061436321 11.867987806790151 1 rotate no_reflect no_shear #
lump $-1 $-1 $26 $5 #
transform $-1 1 0 0 0 1 0 0 0 1 72.986846522415846 33.764129061436321 11.867987806790151 1 rotate no_reflect no_shear #
lump $-1 $-1 $27 $6 #
transform $-1 1 0 0 0 1 0 0 0 1 72.986846522415846 33.764129061436321 11.867987806790151 1 rotate no_reflect no_shear #
shell $-1 $-1 $-1 $28 $-1 $7 #
shell $-1 $-1 $-1 $29 $-1 $9 #
shell $-1 $-1 $-1 $30 $-1 $11 #
shell $-1 $-1 $-1 $31 $-1 $13 #
shell $-1 $-1 $-1 $32 $-1 $15 #
shell $-1 $-1 $-1 $33 $-1 $17 #
shell $-1 $-1 $-1 $34 $-1 $19 #
face $-1 $35 $36 $21 $-1 $37 reversed single #
face $-1 $38 $39 $22 $-1 $40 forward single #
face $-1 $41 $42 $23 $-1 $43 forward single #
face $-1 $44 $45 $24 $-1 $46 reversed single #
face $-1 $47 $48 $25 $-1 $49 forward single #
face $-1 $50 $51 $26 $-1 $52 reversed single #
face $-1 $53 $54 $27 $-1 $55 forward single #
face $-1 $56 $57 $21 $-1 $58 reversed single #
loop $-1 $-1 $59 $28 #
plane-surface $-1 72.986846522415846 0 0 -1 0 0 0 0 1 forward_v I I I I #
face $-1 $60 $61 $22 $-1 $62 reversed single #
loop $-1 $-1 $63 $29 #
plane-surface $-1 -72.986846522415846 0 0 1 0 0 0 0 -1 forward_v I I I I #
face $-1 $64 $65 $23 $-1 $66 reversed single #
loop $-1 $-1 $67 $30 #
plane-surface $-1 72.986846522415846 0 0 -1 0 0 0 0 1 forward_v I I I I #
face $-1 $68 $69 $24 $-1 $70 reversed single #
loop $-1 $-1 $71 $31 #
plane-surface $-1 -43.796152523949388 89.23342979950344 152.10995629938711 1 0 0 0 -0.70710678939079041 -0.70710677298230451 forward_v I I I I #
face $-1 $72 $73 $25 $-1 $74 forward single #
loop $-1 $75 $76 $32 #
cone-surface $-1 -35.756827170997688 27.646170991571573 5.7500296299788829 0 -0.70710678939079041 -0.70710677298230451 1.5 0 0 1 I I 0 1 1.5 forward I I I I #
face $-1 $77 $78 $26 $-1 $79 reversed single #
loop $-1 $-1 $80 $33 #
plane-surface $-1 -27.717501818046006 -136.98311848588401 104.36026650497007 -1 0 0 0 -0.70710678939079041 0.70710677298230451 forward_v I I I I #
face $-1 $81 $82 $27 $-1 $83 forward single #
loop $-1 $84 $85 $34 #
cone-surface $-1 -35.756827170997688 -27.64617099157158 5.75002962997889 0 0.70710678939079041 -0.70710677298230451 1.5 0 0 1 I I 0 1 1.5 forward I I I I #
face $-1 $86 $87 $21 $-1 $88 forward single #
loop $-1 $-1 $89 $35 #
plane-surface $-1 -72.986846522415846 0 0 1 0 0 0 0 -1 forward_v I I I I #
coedge $-1 $90 $91 $92 $93 reversed $36 $-1 #
face $-1 $94 $95 $22 $-1 $96 reversed single #
loop $-1 $-1 $97 $38 #
plane-surface $-1 0 0 -11.867987806790151 0 0 1 1 0 0 forward_v I I I I #
coedge $-1 $98 $99 $100 $101 forward $39 $-1 #
face $-1 $102 $103 $23 $-1 $104 reversed single #
loop $-1 $-1 $105 $41 #
plane-surface $-1 0 0 -11.867987806790151 0 0 1 1 0 0 forward_v I I I I #
coedge $-1 $106 $107 $108 $109 forward $42 $-1 #
face $-1 $110 $111 $24 $-1 $112 reversed single #
loop $-1 $-1 $113 $44 #
plane-surface $-1 -35.756827170997695 -13.985559624944244 48.890969270146698 0 0.70710678939079041 0.70710677298230451 1 0 0 forward_v I I I I #
coedge $-1 $114 $115 $116 $117 reversed $45 $-1 #
face $-1 $-1 $118 $25 $-1 $119 forward single #
loop $-1 $120 $121 $47 #
cone-surface $-1 -35.756827170997688 26.361236870736796 4.4650955389611333 0 -0.70710678939079041 -0.70710677298230451 0.75 0 0 1 I I -0.70710678118654757 0.70710678118654757 0.75 forward I I I I #
loop $-1 $-1 $122 $32 #
coedge $-1 $76 $76 $123 $124 reversed $48 $-1 #
face $-1 $125 $126 $26 $-1 $127 reversed single #
loop $-1 $-1 $128 $50 #
plane-surface $-1 -35.756827170997695 -33.764129061436321 1.1412794757296609 0 -0.70710678939079041 0.70710677298230451 1 0 0 forward_v I I I I #
coedge $-1 $129 $130 $131 $132 reversed $51 $-1 #
face $-1 $-1 $133 $27 $-1 $134 forward single #
loop $-1 $135 $136 $53 #
cone-surface $-1 -35.756827170997688 -26.361236870736803 4.4650955389611404 0 0.70710678939079041 -0.70710677298230451 0.75 0 0 1 I I -0.70710678118654757 0.70710678118654757 0.75 forward I I I I #
loop $-1 $-1 $137 $34 #
coedge $-1 $85 $85 $138 $139 reversed $54 $-1 #
face $-1 $140 $141 $21 $-1 $142 reversed single #
loop $-1 $-1 $143 $56 #
plane-surface $-1 0 0 11.867987806790151 0 0 1 1 0 0 forward_v I I I I #
coedge $-1 $144 $145 $146 $147 reversed $57 $-1 #
coedge $-1 $148 $59 $149 $150 reversed $36 $-1 #
coedge $-1 $59 $148 $151 $152 forward $36 $-1 #
coedge $-1 $153 $154 $59 $93 forward $141 $-1 #
edge $-1 $155 -33.764129061436321 $156 33.764129061436321 $59 $157 forward 7 unknown #
face $-1 $158 $159 $22 $-1 $160 reversed single #
loop $-1 $-1 $161 $60 #
plane-surface $-1 -78.758769790601576 -17.890528462020292 0 0 1 0 0 0 1 forward_v I I I I #
coedge $-1 $162 $163 $99 $164 forward $61 $-1 #
coedge $-1 $165 $63 $166 $167 reversed $39 $-1 #
coedge $-1 $63 $165 $97 $164 reversed $39 $-1 #
coedge $-1 $168 $169 $63 $101 reversed $170 $-1 #
edge $-1 $171 -11.867987806790151 $172 11.867987806790151 $100 $173 forward 7 unknown #
face $-1 $174 $175 $23 $-1 $176 reversed single #
loop $-1 $-1 $108 $64 #
plane-surface $-1 78.758769790601576 -17.890528462020292 0 0 1 0 0 0 1 forward_v I I I I #
coedge $-1 $177 $178 $107 $179 forward $65 $-1 #
coedge $-1 $180 $67 $181 $182 reversed $42 $-1 #
coedge $-1 $67 $180 $105 $179 reversed $42 $-1 #
coedge $-1 $183 $184 $67 $109 reversed $103 $-1 #
edge $-1 $185 -11.867987806790151 $186 11.867987806790151 $108 $187 forward 7 unknown #
face $-1 $188 $189 $24 $-1 $190 reversed single #
loop $-1 $-1 $191 $68 #
plane-surface $-1 -27.717501818046006 89.23342979950344 152.10995629938711 -1 0 0 0 0.70710678939079041 0.70710677298230451 forward_v I I I I #
coedge $-1 $192 $193 $194 $195 reversed $69 $-1 #
coedge $-1 $115 $71 $196 $197 reversed $45 $-1 #
coedge $-1 $71 $114 $192 $198 reversed $45 $-1 #
coedge $-1 $194 $199 $71 $117 forward $200 $-1 #
edge $-1 $201 10.852585838315399 $202 21.579293920461524 $116 $203 forward 7 unknown #
loop $-1 $-1 $123 $72 #
plane-surface $-1 -35.756827170997695 -13.985559624944244 48.890969270146698 0 0.70710678939079041 0.70710677298230451 1 0 0 forward_v I I I I #
loop $-1 $-1 $204 $47 #
coedge $-1 $121 $121 $122 $205 reversed $73 $-1 #
coedge $-1 $122 $122 $121 $205 forward $75 $-1 #
coedge $-1 $123 $123 $76 $124 forward $118 $-1 #
edge $-1 $206 3.8863101326778165e-023 $206 6.2831853071796004 $123 $207 forward 7 unknown #
face $-1 $208 $209 $26 $-1 $210 forward single #
loop $-1 $-1 $211 $77 #
plane-surface $-1 -43.796152523949388 -136.98311848588401 104.36026650497007 1 0 0 0 0.70710678939079041 -0.70710677298230451 forward_v I I I I #
coedge $-1 $212 $213 $214 $215 reversed $78 $-1 #
coedge $-1 $130 $80 $216 $217 reversed $51 $-1 #
coedge $-1 $80 $129 $212 $218 reversed $51 $-1 #
coedge $-1 $214 $219 $80 $132 forward $209 $-1 #
edge $-1 $220 34.727430181505682 $221 45.454138263651799 $131 $222 forward 7 unknown #
loop $-1 $-1 $138 $81 #
plane-surface $-1 -35.756827170997695 -33.764129061436321 1.1412794757296609 0 -0.70710678939079041 0.70710677298230451 1 0 0 forward_v I I I I #
loop $-1 $-1 $223 $53 #
coedge $-1 $136 $136 $137 $224 reversed $82 $-1 #
coedge $-1 $137 $137 $136 $224 forward $84 $-1 #
coedge $-1 $138 $138 $85 $139 forward $133 $-1 #
edge $-1 $225 4.1869136603666243e-016 $225 6.2831853071796004 $138 $226 forward 7 unknown #
face $-1 $227 $228 $21 $-1 $229 reversed single #
loop $-1 $-1 $92 $86 #
plane-surface $-1 0 0 -11.867987806790151 0 0 1 1 0 0 forward_v I I I I #
coedge $-1 $230 $231 $148 $232 forward $87 $-1 #
coedge $-1 $233 $89 $234 $235 reversed $57 $-1 #
coedge $-1 $89 $233 $236 $237 forward $57 $-1 #
coedge $-1 $154 $153 $89 $147 forward $141 $-1 #
edge $-1 $238 -33.764129061436321 $239 33.764129061436321 $89 $240 forward 7 unknown #
coedge $-1 $91 $90 $143 $232 reversed $36 $-1 #
coedge $-1 $241 $242 $90 $150 forward $243 $-1 #
edge $-1 $244 -11.867987806790151 $155 11.867987806790151 $90 $245 forward 7 unknown #
coedge $-1 $246 $247 $91 $152 reversed $228 $-1 #
edge $-1 $248 -11.867987806790151 $156 11.867987806790151 $91 $249 forward 7 unknown #
coedge $-1 $146 $92 $247 $250 forward $141 $-1 #
coedge $-1 $92 $146 $241 $251 forward $141 $-1 #
vertex $-1 $93 $252 #
vertex $-1 $152 $253 #
straight-curve $-1 72.986846522415846 0 -11.867987806790151 0 -1 0 I I #
face $-1 $254 $170 $22 $-1 $255 reversed single #
loop $-1 $-1 $256 $94 #
plane-surface $-1 -84.530693058787307 -14.575626737599823 0 1 0 0 0 0 -1 forward_v I I I I #
coedge $-1 $257 $258 $259 $260 forward $95 $-1 #
coedge $-1 $261 $97 $257 $262 forward $61 $-1 #
coedge $-1 $97 $261 $168 $263 forward $61 $-1 #
edge $-1 $171 11.260725013179353 $264 17.890528462020292 $97 $265 forward 7 unknown #
coedge $-1 $99 $98 $266 $267 forward $39 $-1 #
coedge $-1 $268 $269 $98 $167 forward $270 $-1 #
edge $-1 $271 -17.890528462020292 $172 -11.260725013179353 $166 $272 forward 7 unknown #
coedge $-1 $273 $100 $163 $263 reversed $170 $-1 #
coedge $-1 $100 $273 $268 $274 reversed $170 $-1 #
loop $-1 $-1 $100 $158 #
vertex $-1 $164 $275 #
vertex $-1 $274 $276 #
straight-curve $-1 -72.986846522415846 -11.260725013179353 0 0 0 1 I I #
face $-1 $277 $278 $23 $-1 $279 reversed single #
loop $-1 $-1 $280 $102 #
plane-surface $-1 78.758769790601576 -11.260725013179353 0 0 -1 0 0 0 -1 forward_v I I I I #
coedge $-1 $281 $105 $282 $283 forward $65 $-1 #
coedge $-1 $105 $281 $183 $284 forward $65 $-1 #
edge $-1 $185 -17.890528462020292 $285 -11.260725013179353 $105 $286 forward 7 unknown #
coedge $-1 $107 $106 $287 $288 forward $42 $-1 #
coedge $-1 $289 $290 $106 $182 forward $291 $-1 #
edge $-1 $292 11.260725013179353 $186 17.890528462020292 $181 $293 forward 7 unknown #
coedge $-1 $294 $108 $178 $284 reversed $103 $-1 #
coedge $-1 $108 $294 $289 $295 reversed $103 $-1 #
vertex $-1 $179 $296 #
vertex $-1 $295 $297 #
straight-curve $-1 72.986846522415846 -17.890528462020292 0 0 0 1 I I #
face $-1 $-1 $200 $24 $-1 $298 forward single #
loop $-1 $-1 $299 $110 #
plane-surface $-1 0 33.764129061436321 0 0 -1 0 0 0 -1 forward_v I I I I #
coedge $-1 $300 $301 $302 $303 reversed $111 $-1 #
coedge $-1 $304 $113 $115 $198 forward $69 $-1 #
coedge $-1 $113 $304 $300 $305 forward $69 $-1 #
coedge $-1 $302 $116 $113 $195 forward $200 $-1 #
edge $-1 $202 -25.91773893845054 $306 -9.8390882325471587 $194 $307 forward 7 unknown #
coedge $-1 $308 $309 $114 $197 forward $189 $-1 #
edge $-1 $310 -74.913698673963893 $201 -64.1869903429034 $196 $311 forward 7 unknown #
edge $-1 $202 52.358401897475474 $310 67.528258122872657 $115 $312 forward 7 unknown #
coedge $-1 $116 $302 $308 $313 forward $200 $-1 #
loop $-1 $-1 $302 $188 #
vertex $-1 $197 $314 #
vertex $-1 $117 $315 #
straight-curve $-1 -43.796152523949388 44.61671489975172 11.867987806790154 0 -1 0 I I #
coedge $-1 $204 $204 $-1 $316 reversed $120 $-1 #
edge $-1 $317 0 $317 6.2831853071796004 $121 $318 forward 7 unknown #
vertex $-1 $124 $319 #
ellipse-curve $-1 -35.756827170997688 28.400775020363263 6.5046336412599075 0 0.70710678939079041 0.70710677298230451 1.5 0 0 1 I I #
face $-1 $-1 $320 $26 $-1 $321 reversed single #
loop $-1 $-1 $131 $125 #
plane-surface $-1 0 0 11.867987806790151 0 0 1 1 0 0 forward_v I I I I #
coedge $-1 $322 $323 $324 $325 reversed $126 $-1 #
coedge $-1 $326 $128 $130 $218 forward $78 $-1 #
coedge $-1 $128 $326 $322 $327 forward $78 $-1 #
coedge $-1 $324 $131 $128 $215 forward $209 $-1 #
edge $-1 $221 9.8390882325471587 $328 25.91773893845054 $214 $329 forward 7 unknown #
coedge $-1 $330 $331 $129 $217 forward $320 $-1 #
edge $-1 $332 -51.038853776755374 $220 -40.312145445694881 $216 $333 forward 7 unknown #
edge $-1 $221 -15.169856225397178 $332 0 $130 $334 forward 7 unknown #
coedge $-1 $131 $324 $330 $335 forward $209 $-1 #
vertex $-1 $132 $336 #
vertex $-1 $132 $337 #
straight-curve $-1 -27.717501818046006 -68.491559242942003 11.867987806790154 0 1 0 I I #
coedge $-1 $223 $223 $-1 $338 reversed $135 $-1 #
edge $-1 $339 0 $339 6.2831853071796004 $136 $340 forward 7 unknown #
vertex $-1 $139 $341 #
ellipse-curve $-1 -35.756827170997688 -28.400775020363263 6.5046336412599066 0 -0.70710678939079041 0.70710677298230451 1.5 0 0 1 I I #
face $-1 $-1 $243 $21 $-1 $342 reversed single #
loop $-1 $-1 $234 $140 #
plane-surface $-1 0 -33.764129061436321 0 0 1 0 0 0 1 forward_v I I I I #
coedge $-1 $343 $143 $242 $344 forward $87 $-1 #
coedge $-1 $143 $343 $246 $345 forward $87 $-1 #
edge $-1 $248 -33.764129061436321 $244 33.764129061436321 $148 $346 forward 7 unknown #
coedge $-1 $145 $144 $343 $347 reversed $57 $-1 #
coedge $-1 $247 $246 $144 $235 forward $228 $-1 #
edge $-1 $348 -11.867987806790151 $238 11.867987806790151 $144 $349 forward 7 unknown #
coedge $-1 $242 $241 $145 $237 reversed $243 $-1 #
edge $-1 $350 -11.867987806790151 $239 11.867987806790151 $236 $351 forward 7 unknown #
vertex $-1 $147 $352 #
vertex $-1 $251 $353 #
straight-curve $-1 -72.986846522415846 0 -11.867987806790151 0 1 0 I I #
coedge $-1 $236 $149 $154 $251 reversed $243 $-1 #
coedge $-1 $149 $236 $230 $344 reversed $243 $-1 #
loop $-1 $-1 $149 $227 #
vertex $-1 $232 $354 #
straight-curve $-1 72.986846522415846 33.764129061436321 0 0 0 -1 I I #
coedge $-1 $234 $151 $231 $345 reversed $228 $-1 #
coedge $-1 $151 $234 $153 $250 reversed $228 $-1 #
vertex $-1 $232 $355 #
straight-curve $-1 72.986846522415846 -33.764129061436321 0 0 0 -1 I I #
edge $-1 $156 -72.986846522415846 $238 72.986846522415846 $247 $356 forward 7 unknown #
edge $-1 $239 -72.986846522415846 $155 72.986846522415846 $241 $357 forward 7 unknown #
point $-1 72.986846522415846 33.764129061436321 -11.867987806790151 #
point $-1 72.986846522415846 -33.764129061436321 -11.867987806790151 #
face $-1 $-1 $270 $22 $-1 $358 forward single #
plane-surface $-1 -78.758769790601576 -11.260725013179353 0 0 -1 0 0 0 -1 forward_v I I I I #
coedge $-1 $359 $360 $273 $361 forward $159 $-1 #
coedge $-1 $266 $161 $162 $262 reversed $95 $-1 #
coedge $-1 $161 $266 $269 $362 reversed $95 $-1 #
coedge $-1 $360 $359 $161 $260 reversed $159 $-1 #
edge $-1 $363 -11.867987806790151 $364 11.867987806790151 $259 $365 forward 7 unknown #
coedge $-1 $163 $162 $359 $366 forward $61 $-1 #
edge $-1 $264 -5.7719232681857306 $364 5.7719232681857306 $257 $367 forward 7 unknown #
edge $-1 $368 -5.7719232681857306 $171 5.7719232681857306 $168 $369 forward 7 unknown #
vertex $-1 $262 $370 #
straight-curve $-1 -72.986846522415846 0 -11.867987806790151 0 -1 0 I I #
coedge $-1 $258 $257 $165 $267 reversed $95 $-1 #
edge $-1 $271 -11.867987806790151 $264 11.867987806790151 $266 $371 forward 7 unknown #
coedge $-1 $372 $166 $169 $274 forward $270 $-1 #
coedge $-1 $166 $372 $258 $362 forward $270 $-1 #
loop $-1 $-1 $166 $254 #
vertex $-1 $167 $373 #
straight-curve $-1 -72.986846522415846 0 11.867987806790151 0 1 0 I I #
coedge $-1 $169 $168 $256 $361 reversed $170 $-1 #
edge $-1 $172 -5.7719232681857306 $374 5.7719232681857306 $169 $375 forward 7 unknown #
point $-1 -72.986846522415846 -11.260725013179353 -11.867987806790151 #
point $-1 -72.986846522415846 -11.260725013179353 11.867987806790151 #
face $-1 $-1 $291 $23 $-1 $376 forward single #
loop $-1 $-1 $377 $174 #
plane-surface $-1 84.530693058787307 -14.575626737599823 0 -1 0 0 0 0 1 forward_v I I I I #
coedge $-1 $282 $378 $379 $380 forward $175 $-1 #
coedge $-1 $178 $177 $381 $382 forward $65 $-1 #
coedge $-1 $287 $280 $177 $283 reversed $175 $-1 #
edge $-1 $285 -5.7719232681857306 $383 5.7719232681857306 $282 $384 forward 7 unknown #
edge $-1 $385 -5.7719232681857306 $185 5.7719232681857306 $183 $386 forward 7 unknown #
vertex $-1 $283 $387 #
straight-curve $-1 72.986846522415846 0 -11.867987806790151 0 1 0 I I #
coedge $-1 $378 $282 $180 $288 reversed $175 $-1 #
edge $-1 $292 -11.867987806790151 $285 11.867987806790151 $287 $388 forward 7 unknown #
coedge $-1 $389 $181 $184 $295 forward $291 $-1 #
coedge $-1 $181 $389 $378 $390 forward $291 $-1 #
loop $-1 $-1 $181 $277 #
vertex $-1 $182 $391 #
straight-curve $-1 72.986846522415846 0 11.867987806790151 0 -1 0 I I #
coedge $-1 $184 $183 $377 $392 reversed $103 $-1 #
edge $-1 $186 -5.7719232681857306 $393 5.7719232681857306 $184 $394 forward 7 unknown #
point $-1 72.986846522415846 -17.890528462020292 -11.867987806790151 #
point $-1 72.986846522415846 -17.890528462020292 11.867987806790151 #
plane-surface $-1 0 0 11.867987806790151 0 0 1 1 0 0 forward_v I I I I #
coedge $-1 $309 $308 $301 $395 forward $189 $-1 #
coedge $-1 $301 $191 $193 $305 reversed $111 $-1 #
coedge $-1 $191 $300 $299 $395 reversed $111 $-1 #
coedge $-1 $199 $194 $191 $303 forward $200 $-1 #
edge $-1 $306 -21.579293920461524 $396 -10.852585838315399 $302 $397 forward 7 unknown #
coedge $-1 $193 $192 $309 $398 reversed $69 $-1 #
edge $-1 $399 -67.528258122872657 $306 -52.358401897475474 $300 $400 forward 7 unknown #
vertex $-1 $195 $401 #
straight-curve $-1 -17.878413585498848 23.037420979290207 11.867987806790147 1 0 0 I I #
coedge $-1 $299 $196 $199 $313 reversed $189 $-1 #
coedge $-1 $196 $299 $304 $398 forward $189 $-1 #
vertex $-1 $197 $402 #
straight-curve $-1 -43.796152523949388 33.764129061436321 76.054978149693554 0 0 1 I I #
straight-curve $-1 -43.796152523949388 -13.985559624944244 48.890969270146698 0 0.70710677298230451 -0.70710678939079041 I I #
edge $-1 $396 27.717501818046006 $201 43.796152523949388 $308 $403 forward 7 unknown #
point $-1 -43.796152523949388 33.764129061436321 11.867987806790151 #
point $-1 -43.796152523949388 23.037420979290196 11.867987806790154 #
edge $-1 $404 1 $404 0 $204 $-1 forward 7 unknown #
vertex $-1 $205 $405 #
ellipse-curve $-1 -35.756827170997688 26.891566962779891 4.9954256186978618 0 0.70710678939079041 0.70710677298230451 1.5 0 0 1 I I #
point $-1 -34.256827170997688 28.400775020363259 6.504633641259904 #
loop $-1 $-1 $216 $208 #
plane-surface $-1 0 -33.764129061436321 0 0 1 0 0 0 1 forward_v I I I I #
coedge $-1 $323 $211 $213 $327 reversed $126 $-1 #
coedge $-1 $211 $322 $406 $407 reversed $126 $-1 #
coedge $-1 $219 $214 $211 $325 forward $209 $-1 #
edge $-1 $328 -45.454138263651799 $408 -34.727430181505682 $324 $409 forward 7 unknown #
coedge $-1 $213 $212 $331 $410 reversed $78 $-1 #
edge $-1 $411 0 $328 15.169856225397178 $322 $412 forward 7 unknown #
vertex $-1 $215 $413 #
straight-curve $-1 -17.878413585498848 -23.0374209792902 11.867987806790151 -1 0 0 I I #
coedge $-1 $406 $216 $219 $335 reversed $320 $-1 #
coedge $-1 $216 $406 $326 $410 forward $320 $-1 #
vertex $-1 $217 $414 #
straight-curve $-1 -27.717501818046006 -33.764129061436321 52.180133252485035 0 0 1 I I #
straight-curve $-1 -27.717501818046006 -33.764129061436321 1.1412794757296609 0 -0.70710677298230451 -0.70710678939079041 I I #
edge $-1 $408 -43.796152523949388 $220 -27.717501818046006 $330 $415 forward 7 unknown #
point $-1 -27.717501818046006 -33.764129061436321 11.867987806790151 #
point $-1 -27.717501818046006 -23.037420979290204 11.867987806790151 #
edge $-1 $416 1 $416 0 $223 $-1 forward 7 unknown #
vertex $-1 $224 $417 #
ellipse-curve $-1 -35.756827170997688 -26.891566962779898 4.9954256186978689 0 -0.70710678939079041 0.70710677298230451 1.5 0 0 1 I I #
point $-1 -34.256827170997688 -28.400775020363266 6.5046336412599111 #
plane-surface $-1 0 33.764129061436321 0 0 -1 0 0 0 -1 forward_v I I I I #
coedge $-1 $231 $230 $233 $347 forward $87 $-1 #
edge $-1 $244 -72.986846522415846 $350 72.986846522415846 $242 $418 forward 7 unknown #
edge $-1 $348 -72.986846522415846 $248 72.986846522415846 $246 $419 forward 7 unknown #
straight-curve $-1 72.986846522415846 0 11.867987806790151 0 1 0 I I #
edge $-1 $350 -33.764129061436321 $348 33.764129061436321 $233 $420 forward 7 unknown #
vertex $-1 $347 $421 #
straight-curve $-1 -72.986846522415846 -33.764129061436321 0 0 0 -1 I I #
vertex $-1 $344 $422 #
straight-curve $-1 -72.986846522415846 33.764129061436321 0 0 0 -1 I I #
point $-1 -72.986846522415846 -33.764129061436321 -11.867987806790151 #
point $-1 -72.986846522415846 33.764129061436321 -11.867987806790151 #
point $-1 72.986846522415846 33.764129061436321 11.867987806790151 #
point $-1 72.986846522415846 -33.764129061436321 11.867987806790151 #
straight-curve $-1 0 -33.764129061436321 -11.867987806790151 -1 0 0 I I #
straight-curve $-1 0 33.764129061436321 -11.867987806790151 1 0 0 I I #
plane-surface $-1 0 0 11.867987806790151 0 0 1 1 0 0 forward_v I I I I #
coedge $-1 $259 $256 $261 $366 reversed $159 $-1 #
coedge $-1 $256 $259 $372 $423 reversed $159 $-1 #
edge $-1 $374 -11.867987806790151 $368 11.867987806790151 $273 $424 forward 7 unknown #
edge $-1 $363 -5.7719232681857306 $271 5.7719232681857306 $258 $425 forward 7 unknown #
vertex $-1 $423 $426 #
vertex $-1 $366 $427 #
straight-curve $-1 -84.530693058787307 -17.890528462020292 0 0 0 -1 I I #
edge $-1 $364 -3.3149017244204693 $368 3.3149017244204693 $359 $428 forward 7 unknown #
straight-curve $-1 -78.758769790601576 -17.890528462020292 -11.867987806790151 -1 0 0 I I #
vertex $-1 $263 $429 #
straight-curve $-1 -78.758769790601576 -11.260725013179353 -11.867987806790151 1 0 0 I I #
point $-1 -72.986846522415846 -17.890528462020292 -11.867987806790151 #
straight-curve $-1 -72.986846522415846 -17.890528462020292 0 0 0 -1 I I #
coedge $-1 $269 $268 $360 $423 forward $270 $-1 #
point $-1 -72.986846522415846 -17.890528462020292 11.867987806790151 #
vertex $-1 $274 $430 #
straight-curve $-1 -78.758769790601576 -11.260725013179353 11.867987806790151 -1 0 0 I I #
plane-surface $-1 0 0 11.867987806790151 0 0 1 1 0 0 forward_v I I I I #
coedge $-1 $381 $431 $294 $392 forward $278 $-1 #
coedge $-1 $280 $287 $290 $390 reversed $175 $-1 #
coedge $-1 $431 $381 $280 $380 reversed $278 $-1 #
edge $-1 $432 -11.867987806790151 $383 11.867987806790151 $379 $433 forward 7 unknown #
coedge $-1 $379 $377 $281 $382 reversed $278 $-1 #
edge $-1 $383 -3.3149017244204693 $385 3.3149017244204693 $381 $434 forward 7 unknown #
vertex $-1 $382 $435 #
straight-curve $-1 78.758769790601576 -11.260725013179353 -11.867987806790151 1 0 0 I I #
vertex $-1 $392 $436 #
straight-curve $-1 78.758769790601576 -17.890528462020292 -11.867987806790151 -1 0 0 I I #
point $-1 72.986846522415846 -11.260725013179353 -11.867987806790151 #
straight-curve $-1 72.986846522415846 -11.260725013179353 0 0 0 -1 I I #
coedge $-1 $290 $289 $431 $437 forward $291 $-1 #
edge $-1 $432 -5.7719232681857306 $292 5.7719232681857306 $378 $438 forward 7 unknown #
point $-1 72.986846522415846 -11.260725013179353 11.867987806790151 #
edge $-1 $393 -11.867987806790151 $385 11.867987806790151 $377 $439 forward 7 unknown #
vertex $-1 $437 $440 #
straight-curve $-1 78.758769790601576 -17.890528462020292 11.867987806790151 1 0 0 I I #
edge $-1 $396 64.1869903429034 $399 74.913698673963893 $299 $441 forward 7 unknown #
vertex $-1 $313 $442 #
straight-curve $-1 -27.717501818046006 44.61671489975172 11.867987806790154 0 1 0 I I #
edge $-1 $399 9.8390882325471587 $310 25.91773893845054 $309 $443 forward 7 unknown #
vertex $-1 $398 $444 #
straight-curve $-1 -27.717501818046006 -13.985559624944244 48.890969270146698 0 -0.70710677298230451 0.70710678939079041 I I #
point $-1 -27.717501818046006 23.037420979290196 11.867987806790154 #
point $-1 -43.796152523949388 33.764129061436321 1.1412794757296609 #
straight-curve $-1 0 33.764129061436321 11.867987806790151 -1 0 0 I I #
vertex $-1 $316 $445 #
point $-1 -34.256827170997688 26.891566962779891 4.9954256186978618 #
coedge $-1 $331 $330 $323 $407 forward $320 $-1 #
edge $-1 $408 40.312145445694881 $411 51.038853776755374 $406 $446 forward 7 unknown #
vertex $-1 $335 $447 #
straight-curve $-1 -43.796152523949388 -68.491559242942003 11.867987806790154 0 -1 0 I I #
edge $-1 $411 -25.91773893845054 $332 -9.8390882325471587 $331 $448 forward 7 unknown #
vertex $-1 $410 $449 #
straight-curve $-1 -43.796152523949388 -33.764129061436321 1.1412794757296609 0 0.70710677298230451 0.70710678939079041 I I #
point $-1 -43.796152523949388 -23.037420979290204 11.867987806790151 #
point $-1 -27.717501818046006 -33.764129061436321 1.1412794757296609 #
straight-curve $-1 0 -33.764129061436321 11.867987806790151 1 0 0 I I #
vertex $-1 $338 $450 #
point $-1 -34.256827170997688 -26.891566962779898 4.9954256186978689 #
straight-curve $-1 0 33.764129061436321 11.867987806790151 -1 0 0 I I #
straight-curve $-1 0 -33.764129061436321 11.867987806790151 1 0 0 I I #
straight-curve $-1 -72.986846522415846 0 11.867987806790151 0 -1 0 I I #
point $-1 -72.986846522415846 -33.764129061436321 11.867987806790151 #
point $-1 -72.986846522415846 33.764129061436321 11.867987806790151 #
edge $-1 $374 -3.3149017244204693 $363 3.3149017244204693 $360 $451 forward 7 unknown #
straight-curve $-1 -84.530693058787307 -11.260725013179353 0 0 0 -1 I I #
straight-curve $-1 -78.758769790601576 -17.890528462020292 11.867987806790151 1 0 0 I I #
point $-1 -84.530693058787307 -17.890528462020292 11.867987806790151 #
point $-1 -84.530693058787307 -17.890528462020292 -11.867987806790151 #
straight-curve $-1 -84.530693058787307 -14.575626737599823 -11.867987806790151 0 1 0 I I #
point $-1 -84.530693058787307 -11.260725013179353 -11.867987806790151 #
point $-1 -84.530693058787307 -11.260725013179353 11.867987806790151 #
coedge $-1 $377 $379 $389 $437 reversed $278 $-1 #
vertex $-1 $437 $452 #
straight-curve $-1 84.530693058787307 -11.260725013179353 0 0 0 -1 I I #
straight-curve $-1 84.530693058787307 -14.575626737599823 -11.867987806790151 0 -1 0 I I #
point $-1 84.530693058787307 -11.260725013179353 -11.867987806790151 #
point $-1 84.530693058787307 -17.890528462020292 -11.867987806790151 #
edge $-1 $393 -3.3149017244204693 $432 3.3149017244204693 $431 $453 forward 7 unknown #
straight-curve $-1 78.758769790601576 -11.260725013179353 11.867987806790151 -1 0 0 I I #
straight-curve $-1 84.530693058787307 -17.890528462020292 0 0 0 -1 I I #
point $-1 84.530693058787307 -17.890528462020292 11.867987806790151 #
straight-curve $-1 -27.717501818046006 33.764129061436321 76.054978149693554 0 0 -1 I I #
point $-1 -27.717501818046006 33.764129061436321 11.867987806790151 #
straight-curve $-1 -17.878413585498848 33.764129061436321 1.1412794757296609 -1 0 0 I I #
point $-1 -27.717501818046006 33.764129061436321 1.1412794757296609 #
point $-1 -35.756827170997688 25.830906778693702 3.9347654592244048 #
straight-curve $-1 -43.796152523949388 -33.764129061436321 52.180133252485035 0 0 -1 I I #
point $-1 -43.796152523949388 -33.764129061436321 11.867987806790151 #
straight-curve $-1 -17.878413585498848 -33.764129061436321 1.1412794757296574 1 0 0 I I #
point $-1 -43.796152523949388 -33.764129061436321 1.1412794757296609 #
point $-1 -35.756827170997688 -25.830906778693709 3.9347654592244119 #
straight-curve $-1 -84.530693058787307 -14.575626737599823 11.867987806790151 0 -1 0 I I #
point $-1 84.530693058787307 -11.260725013179353 11.867987806790151 #
straight-curve $-1 84.530693058787307 -14.575626737599823 11.867987806790151 0 1 0 I I #
End-of-ACIS-data 