500 0 9 0           
7 Unknown 11 ACIS 5.0 NT 24 Fri Mar 26 16:36:32 1999 
-1 9.9999999999999995e-007 1e-010 
body $-1 $9 $-1 $10 #
body $-1 $11 $-1 $12 #
body $-1 $13 $-1 $14 #
body $-1 $15 $-1 $16 #
body $-1 $17 $-1 $18 #
body $-1 $19 $-1 $20 #
body $-1 $21 $-1 $22 #
body $-1 $23 $-1 $24 #
body $-1 $25 $-1 $26 #
lump $-1 $-1 $27 $0 #
transform $-1 1 0 0 0 1 0 0 0 1 45.284585100863673 22.060048350383195 9.188444040982235 1 rotate no_reflect no_shear #
lump $-1 $-1 $28 $1 #
transform $-1 1 0 0 0 1 0 0 0 1 45.284585100863673 22.060048350383195 9.188444040982235 1 rotate no_reflect no_shear #
lump $-1 $-1 $29 $2 #
transform $-1 1 0 0 0 1 0 0 0 1 45.284585100863673 22.060048350383195 9.188444040982235 1 rotate no_reflect no_shear #
lump $-1 $-1 $30 $3 #
transform $-1 1 0 0 0 1 0 0 0 1 45.284585100863673 22.060048350383195 9.188444040982235 1 rotate no_reflect no_shear #
lump $-1 $-1 $31 $4 #
transform $-1 1 0 0 0 1 0 0 0 1 45.284585100863673 22.060048350383195 9.188444040982235 1 rotate no_reflect no_shear #
lump $-1 $-1 $32 $5 #
transform $-1 1 0 0 0 1 0 0 0 1 45.284585100863673 22.060048350383195 9.188444040982235 1 rotate no_reflect no_shear #
lump $-1 $-1 $33 $6 #
transform $-1 1 0 0 0 1 0 0 0 1 45.284585100863673 22.060048350383195 9.188444040982235 1 rotate no_reflect no_shear #
lump $-1 $-1 $34 $7 #
transform $-1 1 0 0 0 1 0 0 0 1 45.284585100863673 22.060048350383195 9.188444040982235 1 rotate no_reflect no_shear #
lump $-1 $-1 $35 $8 #
transform $-1 1 0 0 0 1 0 0 0 1 45.284585100863673 22.060048350383195 9.188444040982235 1 rotate no_reflect no_shear #
shell $-1 $-1 $-1 $36 $-1 $9 #
shell $-1 $-1 $-1 $37 $-1 $11 #
shell $-1 $-1 $-1 $38 $-1 $13 #
shell $-1 $-1 $-1 $39 $-1 $15 #
shell $-1 $-1 $-1 $40 $-1 $17 #
shell $-1 $-1 $-1 $41 $-1 $19 #
shell $-1 $-1 $-1 $42 $-1 $21 #
shell $-1 $-1 $-1 $43 $-1 $23 #
shell $-1 $-1 $-1 $44 $-1 $25 #
face $-1 $45 $46 $27 $-1 $47 forward single #
face $-1 $48 $49 $28 $-1 $50 reversed single #
face $-1 $51 $52 $29 $-1 $53 reversed single #
face $-1 $54 $55 $30 $-1 $56 forward single #
face $-1 $57 $58 $31 $-1 $59 forward single #
face $-1 $60 $61 $32 $-1 $62 forward single #
face $-1 $63 $64 $33 $-1 $65 reversed single #
face $-1 $66 $67 $34 $-1 $68 forward single #
face $-1 $69 $70 $35 $-1 $71 forward single #
face $-1 $72 $73 $27 $-1 $74 reversed single #
loop $-1 $-1 $75 $36 #
plane-surface $-1 0 0 9.188444040982235 0 0 1 1 0 0 forward_v I I I I #
face $-1 $76 $77 $28 $-1 $78 reversed single #
loop $-1 $-1 $79 $37 #
plane-surface $-1 -41.192285376383616 0 6.188444040982235 0 0 1 1 0 0 forward_v I I I I #
face $-1 $80 $81 $29 $-1 $82 reversed single #
loop $-1 $-1 $83 $38 #
plane-surface $-1 -27.476300168281949 -11.237811004052432 34.144950300128045 0 0.6560590369687036 0.75470957328743171 1 0 0 forward_v I I I I #
face $-1 $84 $85 $30 $-1 $86 forward single #
loop $-1 $87 $88 $39 #
cone-surface $-1 -33.250511458454916 18.155581856770407 5.3417665616914789 0 -0.6560590369687036 -0.75470957328743171 1.5 0 0 1 I I 0 1 1.5 forward I I I I #
face $-1 $89 $90 $31 $-1 $91 forward single #
loop $-1 $92 $93 $40 #
cone-surface $-1 -27.476300168281949 18.155581856770407 5.3417665616914789 0 -0.6560590369687036 -0.75470957328743171 1.5 0 0 1 I I 0 1 1.5 forward I I I I #
face $-1 $94 $95 $32 $-1 $96 forward single #
loop $-1 $97 $98 $41 #
cone-surface $-1 -21.702088878108981 18.155581856770407 5.3417665616914789 0 -0.6560590369687036 -0.75470957328743171 1.5 0 0 1 I I 0 1 1.5 forward I I I I #
face $-1 $99 $100 $33 $-1 $101 reversed single #
loop $-1 $-1 $102 $42 #
plane-surface $-1 35.255601823567126 -22.060048350383184 1.9720979240069667 0 -0.86602541151947299 0.49999998660252726 1 0 0 forward_v I I I I #
face $-1 $103 $104 $34 $-1 $105 forward single #
loop $-1 $106 $107 $43 #
cone-surface $-1 30.957466133297181 -19.16072958311198 5.109072838438304 0 0.86602541151947299 -0.49999998660252726 1 0 0 1 I I 0 1 1 forward I I I I #
face $-1 $108 $109 $35 $-1 $110 forward single #
loop $-1 $111 $112 $44 #
cone-surface $-1 39.553737513837071 -19.16072958311198 5.109072838438304 0 0.86602541151947299 -0.49999998660252726 1 0 0 1 I I 0 1 1 forward I I I I #
face $-1 $113 $114 $27 $-1 $115 reversed single #
loop $-1 $-1 $116 $45 #
plane-surface $-1 0 0 -9.188444040982235 0 0 1 1 0 0 forward_v I I I I #
coedge $-1 $117 $118 $119 $120 forward $46 $-1 #
face $-1 $121 $122 $28 $-1 $123 reversed single #
loop $-1 $-1 $124 $48 #
plane-surface $-1 -37.099985651903559 0 7.688444040982235 -1 0 0 0 0 1 forward_v I I I I #
coedge $-1 $125 $126 $127 $128 forward $49 $-1 #
face $-1 $129 $130 $29 $-1 $131 forward single #
loop $-1 $-1 $132 $51 #
plane-surface $-1 -17.852614684660331 48.18091157754742 102.49837009607046 -1 0 0 0 0.6560590369687036 0.75470957328743171 forward_v I I I I #
coedge $-1 $133 $134 $135 $136 reversed $52 $-1 #
face $-1 $-1 $137 $30 $-1 $138 forward single #
loop $-1 $139 $140 $54 #
cone-surface $-1 -33.250511458454916 16.053412891554967 2.9234978490976911 0 -0.6560590369687036 -0.75470957328743171 0.75 0 0 1 I I -0.70710678118654757 0.70710678118654757 0.75 forward I I I I #
loop $-1 $-1 $141 $39 #
coedge $-1 $88 $88 $142 $143 reversed $55 $-1 #
face $-1 $-1 $144 $31 $-1 $145 forward single #
loop $-1 $146 $147 $57 #
cone-surface $-1 -27.476300168281949 16.053412891554967 2.9234978490976911 0 -0.6560590369687036 -0.75470957328743171 0.75 0 0 1 I I -0.70710678118654757 0.70710678118654757 0.75 forward I I I I #
loop $-1 $-1 $148 $40 #
coedge $-1 $93 $93 $149 $150 reversed $58 $-1 #
face $-1 $-1 $151 $32 $-1 $152 forward single #
loop $-1 $153 $154 $60 #
cone-surface $-1 -21.702088878108981 16.053412891554967 2.9234978490976911 0 -0.6560590369687036 -0.75470957328743171 0.75 0 0 1 I I -0.70710678118654757 0.70710678118654757 0.75 forward I I I I #
loop $-1 $-1 $155 $41 #
coedge $-1 $98 $98 $156 $157 reversed $61 $-1 #
face $-1 $158 $159 $33 $-1 $160 reversed single #
loop $-1 $-1 $161 $63 #
plane-surface $-1 25.226618546270593 -100.49525124531131 47.25668181147266 1 0 0 0 0.86602541151947299 -0.49999998660252726 forward_v I I I I #
coedge $-1 $162 $163 $164 $165 reversed $64 $-1 #
face $-1 $-1 $166 $34 $-1 $167 forward single #
loop $-1 $168 $169 $66 #
cone-surface $-1 30.957466133297181 -17.911577722256702 4.387874701080742 0 0.86602541151947299 -0.49999998660252726 0.5 0 0 1 I I -0.70710678118654746 0.70710678118654746 0.5 forward I I I I #
loop $-1 $-1 $170 $43 #
coedge $-1 $107 $107 $171 $172 reversed $67 $-1 #
face $-1 $-1 $173 $35 $-1 $174 forward single #
loop $-1 $175 $176 $69 #
cone-surface $-1 39.553737513837071 -17.911577722256702 4.387874701080742 0 0.86602541151947299 -0.49999998660252726 0.5 0 0 1 I I -0.70710678118654746 0.70710678118654746 0.5 forward I I I I #
loop $-1 $-1 $177 $44 #
coedge $-1 $112 $112 $178 $179 reversed $70 $-1 #
face $-1 $180 $181 $27 $-1 $182 reversed single #
loop $-1 $-1 $183 $72 #
plane-surface $-1 0 -22.060048350383195 0 0 1 0 0 0 1 forward_v I I I I #
coedge $-1 $184 $185 $186 $187 forward $73 $-1 #
coedge $-1 $188 $75 $189 $190 forward $46 $-1 #
coedge $-1 $75 $188 $191 $192 forward $46 $-1 #
coedge $-1 $193 $194 $75 $120 reversed $195 $-1 #
edge $-1 $196 -22.060048350383195 $197 22.060048350383195 $119 $198 forward 7 unknown #
face $-1 $199 $200 $28 $-1 $201 reversed single #
loop $-1 $-1 $202 $76 #
plane-surface $-1 0 22.060048350383195 0 0 -1 0 0 0 -1 forward_v I I I I #
coedge $-1 $127 $203 $204 $205 reversed $77 $-1 #
coedge $-1 $206 $79 $207 $208 reversed $49 $-1 #
coedge $-1 $79 $206 $209 $210 reversed $49 $-1 #
coedge $-1 $211 $124 $79 $128 reversed $77 $-1 #
edge $-1 $212 -22.060048350383195 $213 22.060048350383195 $127 $214 forward 7 unknown #
face $-1 $215 $216 $29 $-1 $217 reversed single #
loop $-1 $-1 $135 $80 #
plane-surface $-1 0 0 9.188444040982235 0 0 1 1 0 0 forward_v I I I I #
coedge $-1 $218 $219 $220 $221 reversed $81 $-1 #
coedge $-1 $222 $83 $223 $224 reversed $52 $-1 #
coedge $-1 $83 $222 $218 $225 forward $52 $-1 #
coedge $-1 $220 $226 $83 $136 forward $130 $-1 #
edge $-1 $227 -23.361835567762583 $228 -4.1144646005193568 $135 $229 forward 7 unknown #
loop $-1 $-1 $142 $84 #
plane-surface $-1 -27.476300168281949 -11.237811004052432 34.144950300128045 0 0.6560590369687036 0.75470957328743171 1 0 0 forward_v I I I I #
loop $-1 $-1 $230 $54 #
coedge $-1 $140 $140 $141 $231 reversed $85 $-1 #
coedge $-1 $141 $141 $140 $231 forward $87 $-1 #
coedge $-1 $142 $142 $88 $143 forward $137 $-1 #
edge $-1 $232 3.0962715851239789e-016 $232 6.2831853071796004 $142 $233 forward 7 unknown #
loop $-1 $-1 $149 $89 #
plane-surface $-1 -27.476300168281949 -11.237811004052432 34.144950300128045 0 0.6560590369687036 0.75470957328743171 1 0 0 forward_v I I I I #
loop $-1 $-1 $234 $57 #
coedge $-1 $147 $147 $148 $235 reversed $90 $-1 #
coedge $-1 $148 $148 $147 $235 forward $92 $-1 #
coedge $-1 $149 $149 $93 $150 forward $144 $-1 #
edge $-1 $236 3.0962715851239789e-016 $236 6.2831853071796004 $149 $237 forward 7 unknown #
loop $-1 $-1 $156 $94 #
plane-surface $-1 -27.476300168281949 -11.237811004052432 34.144950300128045 0 0.6560590369687036 0.75470957328743171 1 0 0 forward_v I I I I #
loop $-1 $-1 $238 $60 #
coedge $-1 $154 $154 $155 $239 reversed $95 $-1 #
coedge $-1 $155 $155 $154 $239 forward $97 $-1 #
coedge $-1 $156 $156 $98 $157 forward $151 $-1 #
edge $-1 $240 3.0962715851239789e-016 $240 6.2831853071796004 $156 $241 forward 7 unknown #
face $-1 $242 $243 $33 $-1 $244 forward single #
loop $-1 $-1 $245 $99 #
plane-surface $-1 45.284585100863673 0 0 -1 0 0 0 0 1 forward_v I I I I #
coedge $-1 $246 $247 $248 $249 reversed $100 $-1 #
coedge $-1 $250 $102 $245 $251 reversed $64 $-1 #
coedge $-1 $102 $250 $246 $252 forward $64 $-1 #
coedge $-1 $248 $253 $102 $165 forward $243 $-1 #
edge $-1 $254 -27.656784189080096 $255 -7.5988176344870304 $164 $256 forward 7 unknown #
loop $-1 $-1 $171 $103 #
plane-surface $-1 35.255601823567126 -22.060048350383184 1.9720979240069667 0 -0.86602541151947299 0.49999998660252726 1 0 0 forward_v I I I I #
loop $-1 $-1 $257 $66 #
coedge $-1 $169 $169 $170 $258 reversed $104 $-1 #
coedge $-1 $170 $170 $169 $258 forward $106 $-1 #
coedge $-1 $171 $171 $107 $172 forward $166 $-1 #
edge $-1 $259 1.8315819863588817e-015 $259 6.2831853071796022 $171 $260 forward 7 unknown #
loop $-1 $-1 $178 $108 #
plane-surface $-1 35.255601823567126 -22.060048350383184 1.9720979240069667 0 -0.86602541151947299 0.49999998660252726 1 0 0 forward_v I I I I #
loop $-1 $-1 $261 $69 #
coedge $-1 $176 $176 $177 $262 reversed $109 $-1 #
coedge $-1 $177 $177 $176 $262 forward $111 $-1 #
coedge $-1 $178 $178 $112 $179 forward $173 $-1 #
edge $-1 $263 1.8315819863588817e-015 $263 6.2831853071796022 $178 $264 forward 7 unknown #
face $-1 $265 $266 $27 $-1 $267 reversed single #
loop $-1 $-1 $268 $113 #
plane-surface $-1 -45.284585100863673 0 0 1 0 0 0 0 -1 forward_v I I I I #
coedge $-1 $269 $191 $270 $271 forward $114 $-1 #
coedge $-1 $272 $116 $269 $273 forward $73 $-1 #
coedge $-1 $116 $272 $274 $275 forward $73 $-1 #
coedge $-1 $194 $193 $116 $187 reversed $195 $-1 #
edge $-1 $276 -22.060048350383195 $277 22.060048350383195 $186 $278 forward 7 unknown #
coedge $-1 $118 $117 $279 $280 forward $46 $-1 #
coedge $-1 $281 $282 $117 $190 reversed $266 $-1 #
edge $-1 $197 -45.284585100863673 $283 45.284585100863673 $189 $284 forward 7 unknown #
coedge $-1 $183 $285 $118 $192 reversed $114 $-1 #
edge $-1 $286 -45.284585100863673 $196 45.284585100863673 $191 $287 forward 7 unknown #
coedge $-1 $186 $119 $285 $288 forward $195 $-1 #
coedge $-1 $119 $186 $281 $289 reversed $195 $-1 #
loop $-1 $-1 $193 $265 #
vertex $-1 $120 $290 #
vertex $-1 $120 $291 #
straight-curve $-1 45.284585100863673 0 9.188444040982235 0 1 0 I I #
face $-1 $292 $293 $28 $-1 $294 forward single #
loop $-1 $-1 $295 $121 #
plane-surface $-1 -45.284585100863673 0 0 1 0 0 0 0 -1 forward_v I I I I #
coedge $-1 $209 $296 $211 $297 forward $122 $-1 #
coedge $-1 $124 $211 $298 $299 reversed $77 $-1 #
coedge $-1 $300 $207 $124 $205 forward $301 $-1 #
edge $-1 $213 2.3442220204911175 $302 5.3442220204911175 $204 $303 forward 7 unknown #
coedge $-1 $126 $125 $295 $304 reversed $49 $-1 #
coedge $-1 $204 $305 $125 $208 forward $301 $-1 #
edge $-1 $306 -24.688442412671865 $213 -16.503842963711751 $207 $307 forward 7 unknown #
coedge $-1 $308 $202 $126 $210 forward $122 $-1 #
edge $-1 $212 16.503842963711751 $309 24.688442412671865 $209 $310 forward 7 unknown #
coedge $-1 $203 $127 $202 $297 reversed $77 $-1 #
vertex $-1 $210 $311 #
vertex $-1 $208 $312 #
straight-curve $-1 -37.099985651903559 0 6.188444040982235 0 -1 0 I I #
face $-1 $-1 $313 $29 $-1 $314 forward single #
loop $-1 $-1 $315 $129 #
plane-surface $-1 0 22.060048350383195 0 0 -1 0 0 0 -1 forward_v I I I I #
coedge $-1 $219 $132 $134 $225 reversed $81 $-1 #
coedge $-1 $132 $218 $315 $316 reversed $81 $-1 #
coedge $-1 $317 $135 $132 $221 forward $130 $-1 #
edge $-1 $228 -6.6190910506382536 $318 -2.0304074383905153 $220 $319 forward 7 unknown #
coedge $-1 $134 $133 $320 $321 reversed $52 $-1 #
coedge $-1 $322 $323 $133 $224 forward $313 $-1 #
edge $-1 $324 -31.200939918023952 $227 -25.120874453556681 $223 $325 forward 7 unknown #
edge $-1 $326 -44.120096700766396 $228 -38.040031236299129 $218 $327 forward 7 unknown #
coedge $-1 $135 $317 $322 $328 forward $130 $-1 #
vertex $-1 $224 $329 #
vertex $-1 $136 $330 #
straight-curve $-1 -13.738150084140974 17.471364738135453 9.1884440409822403 1 0 0 I I #
coedge $-1 $230 $230 $-1 $331 reversed $139 $-1 #
edge $-1 $332 0 $332 6.2831853071796004 $140 $333 forward 7 unknown #
vertex $-1 $143 $334 #
ellipse-curve $-1 -33.250511458454916 19.765706544259327 7.1940030943197018 0 0.6560590369687036 0.75470957328743171 1.5 0 0 1 I I #
coedge $-1 $234 $234 $-1 $335 reversed $146 $-1 #
edge $-1 $336 0 $336 6.2831853071796004 $147 $337 forward 7 unknown #
vertex $-1 $150 $338 #
ellipse-curve $-1 -27.476300168281949 19.765706544259327 7.1940030943197018 0 0.6560590369687036 0.75470957328743171 1.5 0 0 1 I I #
coedge $-1 $238 $238 $-1 $339 reversed $153 $-1 #
edge $-1 $340 0 $340 6.2831853071796004 $154 $341 forward 7 unknown #
vertex $-1 $157 $342 #
ellipse-curve $-1 -21.702088878108981 19.765706544259327 7.1940030943197018 0 0.6560590369687036 0.75470957328743171 1.5 0 0 1 I I #
face $-1 $-1 $343 $33 $-1 $344 reversed single #
loop $-1 $-1 $164 $158 #
plane-surface $-1 0 0 9.188444040982235 0 0 1 1 0 0 forward_v I I I I #
coedge $-1 $345 $346 $162 $251 forward $159 $-1 #
coedge $-1 $247 $161 $163 $252 reversed $100 $-1 #
coedge $-1 $161 $246 $347 $348 reversed $100 $-1 #
coedge $-1 $349 $164 $161 $249 forward $243 $-1 #
edge $-1 $255 -32.353936496623824 $350 -28.18757727227246 $248 $351 forward 7 unknown #
coedge $-1 $163 $162 $352 $353 reversed $64 $-1 #
edge $-1 $354 -4.6610684817239525 $254 3.6716501902535188 $245 $355 forward 7 unknown #
edge $-1 $356 -2.1289660814946558e-014 $255 8.3327186719774495 $246 $357 forward 7 unknown #
coedge $-1 $164 $349 $345 $358 forward $243 $-1 #
vertex $-1 $251 $359 #
vertex $-1 $165 $360 #
straight-curve $-1 17.627800911783563 -17.893689126031827 9.188444040982235 -1 0 0 I I #
coedge $-1 $257 $257 $-1 $361 reversed $168 $-1 #
edge $-1 $362 0 $362 6.2831853071796004 $169 $363 forward 7 unknown #
vertex $-1 $172 $364 #
ellipse-curve $-1 30.957466133297181 -19.976868738207511 5.5802709824945964 0 -0.86602541151947299 0.49999998660252726 1 0 0 1 I I #
coedge $-1 $261 $261 $-1 $365 reversed $175 $-1 #
edge $-1 $366 0 $366 6.2831853071796004 $176 $367 forward 7 unknown #
vertex $-1 $179 $368 #
ellipse-curve $-1 39.553737513837071 -19.976868738207511 5.5802709824945964 0 -0.86602541151947299 0.49999998660252726 1 0 0 1 I I #
face $-1 $-1 $195 $27 $-1 $369 reversed single #
loop $-1 $-1 $281 $180 #
plane-surface $-1 0 22.060048350383195 0 0 -1 0 0 0 -1 forward_v I I I I #
coedge $-1 $370 $279 $282 $371 forward $181 $-1 #
coedge $-1 $285 $183 $184 $273 reversed $114 $-1 #
coedge $-1 $279 $370 $183 $271 reversed $181 $-1 #
edge $-1 $286 -9.188444040982235 $372 9.188444040982235 $270 $373 forward 7 unknown #
coedge $-1 $185 $184 $370 $374 forward $73 $-1 #
edge $-1 $277 -45.284585100863673 $372 45.284585100863673 $269 $375 forward 7 unknown #
coedge $-1 $282 $281 $185 $275 reversed $266 $-1 #
edge $-1 $376 -45.284585100863673 $276 45.284585100863673 $274 $377 forward 7 unknown #
vertex $-1 $187 $378 #
vertex $-1 $288 $379 #
straight-curve $-1 45.284585100863673 0 -9.188444040982235 0 -1 0 I I #
coedge $-1 $268 $270 $188 $280 reversed $181 $-1 #
edge $-1 $283 -22.060048350383195 $286 22.060048350383195 $279 $380 forward 7 unknown #
coedge $-1 $274 $189 $194 $289 forward $266 $-1 #
coedge $-1 $189 $274 $268 $371 reversed $266 $-1 #
vertex $-1 $190 $381 #
straight-curve $-1 0 22.060048350383195 9.188444040982235 -1 0 0 I I #
coedge $-1 $191 $269 $193 $288 reversed $114 $-1 #
vertex $-1 $280 $382 #
straight-curve $-1 0 -22.060048350383195 9.188444040982235 1 0 0 I I #
edge $-1 $196 -9.188444040982235 $277 9.188444040982235 $193 $383 forward 7 unknown #
edge $-1 $197 -9.188444040982235 $276 9.188444040982235 $194 $384 forward 7 unknown #
point $-1 45.284585100863673 -22.060048350383195 9.188444040982235 #
point $-1 45.284585100863673 22.060048350383195 9.188444040982235 #
face $-1 $-1 $301 $28 $-1 $385 reversed single #
loop $-1 $-1 $298 $199 #
plane-surface $-1 0 0 9.188444040982235 0 0 1 1 0 0 forward_v I I I I #
coedge $-1 $386 $387 $206 $304 forward $200 $-1 #
coedge $-1 $202 $308 $388 $389 reversed $122 $-1 #
edge $-1 $390 -5.3442220204911175 $212 -2.3442220204911175 $202 $391 forward 7 unknown #
coedge $-1 $388 $392 $203 $299 forward $293 $-1 #
edge $-1 $302 -22.060048350383195 $390 22.060048350383195 $298 $393 forward 7 unknown #
coedge $-1 $305 $204 $392 $394 reversed $301 $-1 #
loop $-1 $-1 $204 $292 #
vertex $-1 $205 $395 #
straight-curve $-1 -37.099985651903559 -22.060048350383195 3.8442220204911175 0 0 1 I I #
edge $-1 $309 -22.060048350383195 $306 22.060048350383195 $295 $396 forward 7 unknown #
coedge $-1 $207 $300 $386 $397 forward $301 $-1 #
vertex $-1 $304 $398 #
straight-curve $-1 -20.596142688191808 -22.060048350383195 6.188444040982235 1 0 0 I I #
coedge $-1 $296 $209 $387 $399 reversed $122 $-1 #
vertex $-1 $304 $400 #
straight-curve $-1 -20.596142688191808 22.060048350383195 6.188444040982235 -1 0 0 I I #
point $-1 -37.099985651903559 22.060048350383195 6.188444040982235 #
point $-1 -37.099985651903559 -22.060048350383195 6.188444040982235 #
loop $-1 $-1 $223 $215 #
plane-surface $-1 -37.099985651903559 0 7.688444040982235 -1 0 0 0 0 1 forward_v I I I I #
coedge $-1 $320 $401 $219 $316 forward $216 $-1 #
edge $-1 $318 42.060741007052997 $326 46.049622900378068 $315 $402 forward 7 unknown #
coedge $-1 $226 $220 $401 $403 forward $130 $-1 #
vertex $-1 $403 $404 #
straight-curve $-1 -17.852614684660331 24.09045578877371 9.1884440409822332 0 1 0 I I #
coedge $-1 $405 $315 $222 $321 forward $216 $-1 #
edge $-1 $326 4.1144646005193568 $324 23.36183556776259 $320 $406 forward 7 unknown #
coedge $-1 $323 $223 $226 $328 reversed $313 $-1 #
coedge $-1 $223 $322 $405 $407 reversed $313 $-1 #
vertex $-1 $407 $408 #
straight-curve $-1 -37.099985651903559 -1.4875997013154496 25.669220742794341 0 -0.75470957328743171 0.6560590369687036 I I #
vertex $-1 $321 $409 #
straight-curve $-1 -17.852614684660331 -11.237811004052432 34.144950300128045 0 -0.75470957328743171 0.6560590369687036 I I #
edge $-1 $410 -22.060048350383195 $227 -17.471364738135456 $226 $411 forward 7 unknown #
point $-1 -37.099985651903559 17.471364738135456 9.188444040982235 #
point $-1 -17.852614684660331 17.471364738135456 9.1884440409822332 #
edge $-1 $412 1 $412 0 $230 $-1 forward 7 unknown #
vertex $-1 $231 $413 #
ellipse-curve $-1 -33.250511458454916 16.545457169281494 3.4895300290632649 0 0.6560590369687036 0.75470957328743171 1.5 0 0 1 I I #
point $-1 -31.750511458454916 19.76570654425932 7.1940030943196929 #
edge $-1 $414 1 $414 0 $234 $-1 forward 7 unknown #
vertex $-1 $235 $415 #
ellipse-curve $-1 -27.476300168281949 16.545457169281494 3.4895300290632649 0 0.6560590369687036 0.75470957328743171 1.5 0 0 1 I I #
point $-1 -25.976300168281949 19.76570654425932 7.1940030943196929 #
edge $-1 $416 1 $416 0 $238 $-1 forward 7 unknown #
vertex $-1 $239 $417 #
ellipse-curve $-1 -21.702088878108981 16.545457169281494 3.4895300290632649 0 0.6560590369687036 0.75470957328743171 1.5 0 0 1 I I #
point $-1 -20.202088878108981 19.76570654425932 7.1940030943196929 #
loop $-1 $-1 $352 $242 #
plane-surface $-1 0 -22.060048350383195 0 0 1 0 0 0 1 forward_v I I I I #
coedge $-1 $346 $245 $253 $358 reversed $159 $-1 #
coedge $-1 $245 $345 $418 $419 forward $159 $-1 #
coedge $-1 $352 $420 $247 $348 forward $343 $-1 #
edge $-1 $350 14.439896864754095 $356 21.656242981729381 $347 $421 forward 7 unknown #
coedge $-1 $253 $248 $420 $422 forward $243 $-1 #
vertex $-1 $422 $423 #
straight-curve $-1 25.226618546270593 -50.247625622655654 9.1884440409822332 0 -1 0 I I #
coedge $-1 $418 $347 $250 $353 forward $343 $-1 #
edge $-1 $356 7.5988176344870304 $354 27.656784189080096 $352 $424 forward 7 unknown #
vertex $-1 $251 $425 #
straight-curve $-1 45.284585100863673 -19.729514171967757 6.0087016740123804 0 0.49999998660252726 0.86602541151947299 I I #
vertex $-1 $353 $426 #
straight-curve $-1 25.226618546270593 -22.060048350383184 1.9720979240069667 0 0.49999998660252726 0.86602541151947299 I I #
edge $-1 $427 -22.060048350383195 $254 -17.89368912603183 $345 $428 forward 7 unknown #
point $-1 45.284585100863659 -17.89368912603183 9.188444040982235 #
point $-1 25.226618546270593 -17.89368912603183 9.188444040982235 #
edge $-1 $429 1 $429 0 $257 $-1 forward 7 unknown #
vertex $-1 $258 $430 #
ellipse-curve $-1 30.957466133297181 -18.344590428016438 4.6378746943820053 0 -0.86602541151947299 0.49999998660252726 1 0 0 1 I I #
point $-1 31.957466133297181 -19.976868738207518 5.5802709824946026 #
edge $-1 $431 1 $431 0 $261 $-1 forward 7 unknown #
vertex $-1 $262 $432 #
ellipse-curve $-1 39.553737513837071 -18.344590428016438 4.6378746943820053 0 -0.86602541151947299 0.49999998660252726 1 0 0 1 I I #
point $-1 40.553737513837071 -19.976868738207518 5.5802709824946026 #
plane-surface $-1 45.284585100863673 0 0 -1 0 0 0 0 1 forward_v I I I I #
coedge $-1 $270 $268 $272 $374 reversed $181 $-1 #
edge $-1 $283 -9.188444040982235 $376 9.188444040982235 $282 $433 forward 7 unknown #
vertex $-1 $374 $434 #
straight-curve $-1 -45.284585100863673 -22.060048350383195 0 0 0 -1 I I #
edge $-1 $372 -22.060048350383195 $376 22.060048350383195 $370 $435 forward 7 unknown #
straight-curve $-1 0 -22.060048350383195 -9.188444040982235 -1 0 0 I I #
vertex $-1 $275 $436 #
straight-curve $-1 0 22.060048350383195 -9.188444040982235 1 0 0 I I #
point $-1 45.284585100863673 22.060048350383195 -9.188444040982235 #
point $-1 45.284585100863673 -22.060048350383195 -9.188444040982235 #
straight-curve $-1 -45.284585100863673 0 9.188444040982235 0 -1 0 I I #
point $-1 -45.284585100863673 22.060048350383195 9.188444040982235 #
point $-1 -45.284585100863673 -22.060048350383195 9.188444040982235 #
straight-curve $-1 45.284585100863673 -22.060048350383195 0 0 0 -1 I I #
straight-curve $-1 45.284585100863673 22.060048350383195 0 0 0 -1 I I #
plane-surface $-1 0 -22.060048350383195 0 0 1 0 0 0 1 forward_v I I I I #
coedge $-1 $437 $295 $305 $397 reversed $200 $-1 #
coedge $-1 $295 $437 $308 $399 forward $200 $-1 #
coedge $-1 $438 $298 $296 $389 forward $293 $-1 #
edge $-1 $390 37.099985651903559 $439 45.284585100863673 $296 $440 forward 7 unknown #
vertex $-1 $389 $441 #
straight-curve $-1 -37.099985651903559 22.060048350383195 3.8442220204911175 0 0 -1 I I #
coedge $-1 $298 $438 $300 $394 forward $293 $-1 #
straight-curve $-1 -37.099985651903559 0 9.188444040982235 0 1 0 I I #
edge $-1 $442 -45.284585100863673 $302 -37.099985651903559 $300 $443 forward 7 unknown #
point $-1 -37.099985651903559 -22.060048350383195 9.188444040982235 #
straight-curve $-1 -45.284585100863673 0 6.188444040982235 0 -1 0 I I #
edge $-1 $442 -9.188444040982235 $306 -6.188444040982235 $386 $444 forward 7 unknown #
point $-1 -45.284585100863673 -22.060048350383195 6.188444040982235 #
edge $-1 $439 -9.188444040982235 $309 -6.188444040982235 $308 $445 forward 7 unknown #
point $-1 -45.284585100863673 22.060048350383195 6.188444040982235 #
coedge $-1 $315 $405 $317 $403 reversed $216 $-1 #
straight-curve $-1 -17.852614684660331 22.060048350383195 51.24918504803523 0 0 -1 I I #
edge $-1 $318 17.852614684660331 $410 37.099985651903559 $401 $446 forward 7 unknown #
point $-1 -17.852614684660331 22.060048350383195 9.188444040982235 #
coedge $-1 $401 $320 $323 $407 forward $216 $-1 #
straight-curve $-1 -13.738150084140974 22.060048350383195 5.1995621476571667 -1 0 0 I I #
edge $-1 $324 -46.049622900378068 $410 -42.060741007052997 $405 $447 forward 7 unknown #
point $-1 -37.099985651903566 22.060048350383198 5.199562147657165 #
point $-1 -17.852614684660331 22.060048350383198 5.199562147657165 #
vertex $-1 $328 $448 #
straight-curve $-1 -37.099985651903559 0 9.188444040982235 0 -1 0 I I #
vertex $-1 $331 $449 #
point $-1 -31.750511458454916 16.545457169281494 3.4895300290632649 #
vertex $-1 $335 $450 #
point $-1 -25.976300168281949 16.545457169281494 3.4895300290632649 #
vertex $-1 $339 $451 #
point $-1 -20.202088878108981 16.545457169281494 3.4895300290632649 #
coedge $-1 $420 $352 $346 $419 reversed $343 $-1 #
edge $-1 $427 -9.188444040982235 $354 -1.9720979240069483 $346 $452 forward 7 unknown #
coedge $-1 $347 $418 $349 $422 reversed $343 $-1 #
straight-curve $-1 25.226618546270593 -22.060048350383191 23.62834090573633 0 0 -1 I I #
edge $-1 $350 25.226618546270593 $427 45.284585100863673 $420 $453 forward 7 unknown #
point $-1 25.226618546270593 -22.060048350383195 9.188444040982235 #
straight-curve $-1 17.627800911783563 -22.060048350383195 1.9720979240069505 1 0 0 I I #
point $-1 45.284585100863659 -22.060048350383195 1.9720979240069483 #
point $-1 25.226618546270593 -22.060048350383195 1.9720979240069483 #
vertex $-1 $358 $454 #
straight-curve $-1 45.284585100863673 0 9.188444040982235 0 1 0 I I #
vertex $-1 $361 $455 #
point $-1 31.957466133297181 -18.344590428016438 4.6378746943820053 #
vertex $-1 $365 $456 #
point $-1 40.553737513837071 -18.344590428016438 4.6378746943820053 #
straight-curve $-1 -45.284585100863673 22.060048350383195 0 0 0 -1 I I #
point $-1 -45.284585100863673 -22.060048350383195 -9.188444040982235 #
straight-curve $-1 -45.284585100863673 0 -9.188444040982235 0 1 0 I I #
point $-1 -45.284585100863673 22.060048350383195 -9.188444040982235 #
coedge $-1 $387 $386 $438 $457 reversed $200 $-1 #
coedge $-1 $392 $388 $437 $457 forward $293 $-1 #
vertex $-1 $389 $458 #
straight-curve $-1 0 22.060048350383195 9.188444040982235 -1 0 0 I I #
point $-1 -37.099985651903559 22.060048350383195 9.188444040982235 #
vertex $-1 $457 $459 #
straight-curve $-1 0 -22.060048350383195 9.188444040982235 1 0 0 I I #
straight-curve $-1 -45.284585100863673 -22.060048350383195 0 0 0 -1 I I #
straight-curve $-1 -45.284585100863673 22.060048350383195 0 0 0 -1 I I #
straight-curve $-1 0 22.060048350383195 9.188444040982235 -1 0 0 I I #
straight-curve $-1 -37.099985651903566 22.060048350383195 51.24918504803523 0 0 1 I I #
point $-1 -37.099985651903559 22.060048350383195 9.188444040982235 #
point $-1 -33.250511458454916 15.561368613828439 2.3574656691321172 #
point $-1 -27.476300168281949 15.561368613828439 2.3574656691321172 #
point $-1 -21.702088878108981 15.561368613828439 2.3574656691321172 #
straight-curve $-1 45.284585100863673 -22.060048350383195 0 0 0 -1 I I #
straight-curve $-1 0 -22.060048350383195 9.188444040982235 1 0 0 I I #
point $-1 45.284585100863673 -22.060048350383195 9.188444040982235 #
point $-1 30.957466133297181 -17.478565016496965 4.1378747077794786 #
point $-1 39.553737513837071 -17.478565016496965 4.1378747077794786 #
edge $-1 $439 -22.060048350383195 $442 22.060048350383195 $437 $460 forward 7 unknown #
point $-1 -45.284585100863673 22.060048350383195 9.188444040982235 #
point $-1 -45.284585100863673 -22.060048350383195 9.188444040982235 #
straight-curve $-1 -45.284585100863673 0 9.188444040982235 0 -1 0 I I #
End-of-ACIS-data 