500 0 9 0           
7 Unknown 11 ACIS 5.0 NT 24 Fri Mar 26 18:12:59 1999 
-1 9.9999999999999995e-007 1e-010 
body $-1 $9 $-1 $10 #
body $-1 $11 $-1 $12 #
body $-1 $13 $-1 $14 #
body $-1 $15 $-1 $16 #
body $-1 $17 $-1 $18 #
body $-1 $19 $-1 $20 #
body $-1 $21 $-1 $22 #
body $-1 $23 $-1 $24 #
body $-1 $25 $-1 $26 #
lump $-1 $-1 $27 $0 #
transform $-1 1 0 0 0 1 0 0 0 1 53.674733726004824 24.671998336362631 12.082329432181053 1 rotate no_reflect no_shear #
lump $-1 $-1 $28 $1 #
transform $-1 1 0 0 0 1 0 0 0 1 53.674733726004824 24.671998336362631 12.082329432181053 1 rotate no_reflect no_shear #
lump $-1 $-1 $29 $2 #
transform $-1 1 0 0 0 1 0 0 0 1 53.674733726004824 24.671998336362631 12.082329432181053 1 rotate no_reflect no_shear #
lump $-1 $-1 $30 $3 #
transform $-1 1 0 0 0 1 0 0 0 1 53.674733726004824 24.671998336362631 12.082329432181053 1 rotate no_reflect no_shear #
lump $-1 $-1 $31 $4 #
transform $-1 1 0 0 0 1 0 0 0 1 53.674733726004824 24.671998336362631 12.082329432181053 1 rotate no_reflect no_shear #
lump $-1 $-1 $32 $5 #
transform $-1 1 0 0 0 1 0 0 0 1 53.674733726004824 24.671998336362631 12.082329432181053 1 rotate no_reflect no_shear #
lump $-1 $-1 $33 $6 #
transform $-1 1 0 0 0 1 0 0 0 1 53.674733726004824 24.671998336362631 12.082329432181053 1 rotate no_reflect no_shear #
lump $-1 $-1 $34 $7 #
transform $-1 1 0 0 0 1 0 0 0 1 53.674733726004824 24.671998336362631 12.082329432181053 1 rotate no_reflect no_shear #
lump $-1 $-1 $35 $8 #
transform $-1 1 0 0 0 1 0 0 0 1 53.674733726004824 24.671998336362631 12.082329432181053 1 rotate no_reflect no_shear #
shell $-1 $-1 $-1 $36 $-1 $9 #
shell $-1 $-1 $-1 $37 $-1 $11 #
shell $-1 $-1 $-1 $38 $-1 $13 #
shell $-1 $-1 $-1 $39 $-1 $15 #
shell $-1 $-1 $-1 $40 $-1 $17 #
shell $-1 $-1 $-1 $41 $-1 $19 #
shell $-1 $-1 $-1 $42 $-1 $21 #
shell $-1 $-1 $-1 $43 $-1 $23 #
shell $-1 $-1 $-1 $44 $-1 $25 #
face $-1 $45 $46 $27 $-1 $47 forward single #
face $-1 $48 $49 $28 $-1 $50 reversed single #
face $-1 $51 $52 $29 $-1 $53 reversed single #
face $-1 $54 $55 $30 $-1 $56 forward single #
face $-1 $57 $58 $31 $-1 $59 forward single #
face $-1 $60 $61 $32 $-1 $62 forward single #
face $-1 $63 $64 $33 $-1 $65 reversed single #
face $-1 $66 $67 $34 $-1 $68 forward single #
face $-1 $69 $70 $35 $-1 $71 forward single #
face $-1 $72 $73 $27 $-1 $74 reversed single #
loop $-1 $-1 $75 $36 #
plane-surface $-1 0 0 12.082329432181053 0 0 1 1 0 0 forward_v I I I I #
face $-1 $76 $77 $28 $-1 $78 reversed single #
loop $-1 $-1 $79 $37 #
plane-surface $-1 0 -20.673878203590419 7.299914311190367 0 0 1 1 0 0 forward_v I I I I #
face $-1 $80 $81 $29 $-1 $82 reversed single #
loop $-1 $-1 $83 $38 #
plane-surface $-1 -141.61027031581523 -12.567222336985189 65.400967894263985 0 1 0 -0.81915205242281985 0 0.57357642473473569 forward_v I I I I #
face $-1 $84 $85 $30 $-1 $86 forward single #
loop $-1 $87 $88 $39 #
cone-surface $-1 -50.32224536413311 -10.251747175691243 7.631197375239771 0.81915205242281985 0 -0.57357642473473569 0.57357642473473569 0 0.81915205242281985 1 I I 0 1 1 forward I I I I #
face $-1 $89 $90 $31 $-1 $91 forward single #
loop $-1 $92 $93 $40 #
cone-surface $-1 -50.32224536413311 -6.7785344337503233 7.631197375239771 0.81915205242281985 0 -0.57357642473473569 0.57357642473473569 0 0.81915205242281985 1 I I 0 1 1 forward I I I I #
face $-1 $94 $95 $32 $-1 $96 forward single #
loop $-1 $97 $98 $41 #
cone-surface $-1 -50.32224536413311 -3.3053216918094037 7.631197375239771 0.81915205242281985 0 -0.57357642473473569 0.57357642473473569 0 0.81915205242281985 1 I I 0 1 1 forward I I I I #
face $-1 $99 $100 $33 $-1 $101 reversed single #
loop $-1 $-1 $102 $42 #
plane-surface $-1 -30.917800372593767 19.36744135100783 68.812554476754528 0.61566148304635926 0 0.78801074757464917 0.78801074757464917 0 -0.61566148304635926 forward_v I I I I #
face $-1 $103 $104 $34 $-1 $105 forward single #
loop $-1 $106 $107 $43 #
cone-surface $-1 46.076152802306254 17.094059785855773 5.3438276864889769 -0.61566148304635926 0 -0.78801074757464917 1.1820161213619738 0 -0.92349222456953894 1 I I 0 1 1.5 forward I I I I #
face $-1 $108 $109 $35 $-1 $110 forward single #
loop $-1 $111 $112 $44 #
cone-surface $-1 46.076152802306254 21.640822916159888 5.3438276864889769 -0.61566148304635926 0 -0.78801074757464917 1.1820161213619738 0 -0.92349222456953894 1 I I 0 1 1.5 forward I I I I #
face $-1 $113 $114 $27 $-1 $115 reversed single #
loop $-1 $-1 $116 $45 #
plane-surface $-1 0 0 -12.082329432181053 0 0 1 1 0 0 forward_v I I I I #
coedge $-1 $117 $118 $119 $120 forward $46 $-1 #
face $-1 $121 $122 $28 $-1 $123 reversed single #
loop $-1 $-1 $124 $48 #
plane-surface $-1 0 -16.675758070818208 9.691121871685711 0 -1 0 0 0 -1 forward_v I I I I #
coedge $-1 $125 $126 $127 $128 reversed $49 $-1 #
face $-1 $129 $130 $29 $-1 $131 reversed single #
loop $-1 $-1 $132 $51 #
plane-surface $-1 -53.674733726004831 -6.7785344337503233 3.827844155962417 -0.81915205242281985 0 0.57357642473473569 0.57357642473473569 0 0.81915205242281985 forward_v I I I I #
coedge $-1 $133 $134 $135 $136 reversed $52 $-1 #
face $-1 $-1 $137 $30 $-1 $138 forward single #
loop $-1 $139 $140 $54 #
cone-surface $-1 -49.45010729605093 -10.251747175691243 7.0205197440404437 0.81915205242281985 0 -0.57357642473473569 0.28678821236736785 0 0.40957602621140993 1 I I -0.70710678118654746 0.70710678118654746 0.5 forward I I I I #
loop $-1 $-1 $141 $39 #
coedge $-1 $88 $88 $142 $143 reversed $55 $-1 #
face $-1 $-1 $144 $31 $-1 $145 forward single #
loop $-1 $146 $147 $57 #
cone-surface $-1 -49.45010729605093 -6.7785344337503233 7.0205197440404437 0.81915205242281985 0 -0.57357642473473569 0.28678821236736785 0 0.40957602621140993 1 I I -0.70710678118654746 0.70710678118654746 0.5 forward I I I I #
loop $-1 $-1 $148 $40 #
coedge $-1 $93 $93 $149 $150 reversed $58 $-1 #
face $-1 $-1 $151 $32 $-1 $152 forward single #
loop $-1 $153 $154 $60 #
cone-surface $-1 -49.45010729605093 -3.3053216918094037 7.0205197440404437 0.81915205242281985 0 -0.57357642473473569 0.28678821236736785 0 0.40957602621140993 1 I I -0.70710678118654746 0.70710678118654746 0.5 forward I I I I #
loop $-1 $-1 $155 $41 #
coedge $-1 $98 $98 $156 $157 reversed $61 $-1 #
face $-1 $158 $159 $33 $-1 $160 reversed single #
loop $-1 $-1 $161 $63 #
plane-surface $-1 35.173131963147362 14.06288436565303 153.40508857535312 0 1 0 0.61566148304635926 0 0.78801074757464917 forward_v I I I I #
coedge $-1 $162 $163 $164 $165 reversed $64 $-1 #
face $-1 $-1 $166 $34 $-1 $167 forward single #
loop $-1 $168 $169 $66 #
cone-surface $-1 44.006405129710721 17.094059785855773 2.6946715256997482 -0.61566148304635926 0 -0.78801074757464917 0.59100806068098688 0 -0.46174611228476947 1 I I -0.70710678118654757 0.70710678118654757 0.75 forward I I I I #
loop $-1 $-1 $170 $43 #
coedge $-1 $107 $107 $171 $172 reversed $67 $-1 #
face $-1 $-1 $173 $35 $-1 $174 forward single #
loop $-1 $175 $176 $69 #
cone-surface $-1 44.006405129710721 21.640822916159888 2.6946715256997482 -0.61566148304635926 0 -0.78801074757464917 0.59100806068098688 0 -0.46174611228476947 1 I I -0.70710678118654757 0.70710678118654757 0.75 forward I I I I #
loop $-1 $-1 $177 $44 #
coedge $-1 $112 $112 $178 $179 reversed $70 $-1 #
face $-1 $180 $181 $27 $-1 $182 reversed single #
loop $-1 $-1 $183 $72 #
plane-surface $-1 0 -24.671998336362631 0 0 1 0 0 0 1 forward_v I I I I #
coedge $-1 $184 $185 $186 $187 forward $73 $-1 #
coedge $-1 $188 $75 $189 $190 forward $46 $-1 #
coedge $-1 $75 $188 $191 $192 forward $46 $-1 #
coedge $-1 $193 $194 $75 $120 reversed $195 $-1 #
edge $-1 $196 -24.671998336362631 $197 24.671998336362631 $119 $198 forward 7 unknown #
face $-1 $199 $200 $28 $-1 $201 reversed single #
loop $-1 $-1 $202 $76 #
plane-surface $-1 -53.674733726004824 0 0 1 0 0 0 0 -1 forward_v I I I I #
coedge $-1 $203 $204 $205 $206 reversed $77 $-1 #
coedge $-1 $207 $79 $208 $209 reversed $49 $-1 #
coedge $-1 $79 $207 $203 $210 forward $49 $-1 #
coedge $-1 $205 $211 $79 $128 forward $212 $-1 #
edge $-1 $213 -14.335059234567421 $214 -6.3388189690229986 $127 $215 forward 7 unknown #
face $-1 $216 $217 $29 $-1 $218 forward single #
loop $-1 $-1 $219 $80 #
plane-surface $-1 -141.61027031581523 -0.98984653051545735 65.400967894263985 0 -1 0 0.81915205242281985 0 -0.57357642473473569 forward_v I I I I #
coedge $-1 $220 $221 $222 $223 reversed $81 $-1 #
coedge $-1 $134 $83 $224 $225 reversed $52 $-1 #
coedge $-1 $83 $133 $220 $226 reversed $52 $-1 #
coedge $-1 $222 $227 $83 $136 forward $217 $-1 #
edge $-1 $228 17.13040143190279 $229 22.910254071904674 $135 $230 forward 7 unknown #
loop $-1 $-1 $142 $84 #
plane-surface $-1 -53.674733726004831 -6.7785344337503233 3.827844155962417 -0.81915205242281985 0 0.57357642473473569 0.57357642473473569 0 0.81915205242281985 forward_v I I I I #
loop $-1 $-1 $231 $54 #
coedge $-1 $140 $140 $141 $232 reversed $85 $-1 #
coedge $-1 $141 $141 $140 $232 forward $87 $-1 #
coedge $-1 $142 $142 $88 $143 forward $137 $-1 #
edge $-1 $233 0 $233 6.2831853071796004 $142 $234 forward 7 unknown #
loop $-1 $-1 $149 $89 #
plane-surface $-1 -53.674733726004831 -6.7785344337503233 3.827844155962417 -0.81915205242281985 0 0.57357642473473569 0.57357642473473569 0 0.81915205242281985 forward_v I I I I #
loop $-1 $-1 $235 $57 #
coedge $-1 $147 $147 $148 $236 reversed $90 $-1 #
coedge $-1 $148 $148 $147 $236 forward $92 $-1 #
coedge $-1 $149 $149 $93 $150 forward $144 $-1 #
edge $-1 $237 0 $237 6.2831853071796004 $149 $238 forward 7 unknown #
loop $-1 $-1 $156 $94 #
plane-surface $-1 -53.674733726004831 -6.7785344337503233 3.827844155962417 -0.81915205242281985 0 0.57357642473473569 0.57357642473473569 0 0.81915205242281985 forward_v I I I I #
loop $-1 $-1 $239 $60 #
coedge $-1 $154 $154 $155 $240 reversed $95 $-1 #
coedge $-1 $155 $155 $154 $240 forward $97 $-1 #
coedge $-1 $156 $156 $98 $157 forward $151 $-1 #
edge $-1 $241 0 $241 6.2831853071796004 $156 $242 forward 7 unknown #
face $-1 $243 $244 $33 $-1 $245 forward single #
loop $-1 $-1 $246 $99 #
plane-surface $-1 0 24.671998336362631 0 0 -1 0 0 0 -1 forward_v I I I I #
coedge $-1 $247 $248 $249 $250 reversed $100 $-1 #
coedge $-1 $251 $102 $246 $252 reversed $64 $-1 #
coedge $-1 $102 $251 $247 $253 forward $64 $-1 #
coedge $-1 $249 $254 $102 $165 forward $244 $-1 #
edge $-1 $255 -14.988277660858715 $256 -4.3791636901491149 $164 $257 forward 7 unknown #
loop $-1 $-1 $171 $103 #
plane-surface $-1 -30.917800372593767 19.36744135100783 68.812554476754528 0.61566148304635926 0 0.78801074757464917 0.78801074757464917 0 -0.61566148304635926 forward_v I I I I #
loop $-1 $-1 $258 $66 #
coedge $-1 $169 $169 $170 $259 reversed $104 $-1 #
coedge $-1 $170 $170 $169 $259 forward $106 $-1 #
coedge $-1 $171 $171 $107 $172 forward $166 $-1 #
edge $-1 $260 0 $260 6.2831853071796004 $171 $261 forward 7 unknown #
loop $-1 $-1 $178 $108 #
plane-surface $-1 -30.917800372593767 19.36744135100783 68.812554476754528 0.61566148304635926 0 0.78801074757464917 0.78801074757464917 0 -0.61566148304635926 forward_v I I I I #
loop $-1 $-1 $262 $69 #
coedge $-1 $176 $176 $177 $263 reversed $109 $-1 #
coedge $-1 $177 $177 $176 $263 forward $111 $-1 #
coedge $-1 $178 $178 $112 $179 forward $173 $-1 #
edge $-1 $264 0 $264 6.2831853071796004 $178 $265 forward 7 unknown #
face $-1 $266 $267 $27 $-1 $268 reversed single #
loop $-1 $-1 $269 $113 #
plane-surface $-1 -53.674733726004824 0 0 1 0 0 0 0 -1 forward_v I I I I #
coedge $-1 $270 $191 $271 $272 forward $114 $-1 #
coedge $-1 $273 $116 $270 $274 forward $73 $-1 #
coedge $-1 $116 $273 $275 $276 forward $73 $-1 #
coedge $-1 $194 $193 $116 $187 reversed $195 $-1 #
edge $-1 $277 -24.671998336362631 $278 24.671998336362631 $186 $279 forward 7 unknown #
coedge $-1 $118 $117 $280 $281 forward $46 $-1 #
coedge $-1 $282 $283 $117 $190 reversed $267 $-1 #
edge $-1 $197 -53.674733726004824 $284 53.674733726004824 $189 $285 forward 7 unknown #
coedge $-1 $183 $286 $118 $192 reversed $114 $-1 #
edge $-1 $287 -53.674733726004824 $196 53.674733726004824 $191 $288 forward 7 unknown #
coedge $-1 $186 $119 $286 $289 forward $195 $-1 #
coedge $-1 $119 $186 $282 $290 reversed $195 $-1 #
loop $-1 $-1 $193 $266 #
vertex $-1 $120 $291 #
vertex $-1 $120 $292 #
straight-curve $-1 53.674733726004824 0 12.082329432181053 0 1 0 I I #
face $-1 $293 $294 $28 $-1 $295 forward single #
loop $-1 $-1 $208 $121 #
plane-surface $-1 0 -24.671998336362631 0 0 1 0 0 0 1 forward_v I I I I #
coedge $-1 $296 $297 $298 $299 forward $122 $-1 #
coedge $-1 $298 $124 $126 $210 reversed $77 $-1 #
coedge $-1 $124 $298 $300 $301 reversed $77 $-1 #
coedge $-1 $302 $127 $124 $206 forward $212 $-1 #
edge $-1 $214 2.4543533753475115 $303 7.2367684963381995 $205 $304 forward 7 unknown #
coedge $-1 $126 $125 $296 $305 reversed $49 $-1 #
coedge $-1 $306 $307 $125 $209 forward $200 $-1 #
edge $-1 $308 -53.674733726004824 $213 53.674733726004824 $208 $309 forward 7 unknown #
edge $-1 $310 -53.674733726004824 $214 53.674733726004824 $203 $311 forward 7 unknown #
coedge $-1 $127 $302 $306 $312 forward $212 $-1 #
loop $-1 $-1 $205 $293 #
vertex $-1 $209 $313 #
vertex $-1 $128 $314 #
straight-curve $-1 53.674733726004824 -10.33693910179521 7.299914311190367 0 1 0 I I #
face $-1 $-1 $315 $29 $-1 $316 reversed single #
loop $-1 $-1 $135 $129 #
plane-surface $-1 0 0 12.082329432181053 0 0 1 1 0 0 forward_v I I I I #
coedge $-1 $317 $318 $319 $320 reversed $130 $-1 #
coedge $-1 $321 $132 $134 $226 forward $81 $-1 #
coedge $-1 $132 $321 $317 $322 forward $81 $-1 #
coedge $-1 $319 $135 $132 $223 forward $217 $-1 #
edge $-1 $229 -9.1779551201100276 $323 2.3994206863597043 $222 $324 forward 7 unknown #
coedge $-1 $325 $326 $133 $225 forward $315 $-1 #
edge $-1 $327 -28.872639791169565 $228 -20.618154514950938 $224 $328 forward 7 unknown #
edge $-1 $229 -10.076865768454351 $327 -1.2442367137257826e-014 $134 $329 forward 7 unknown #
coedge $-1 $135 $319 $325 $330 forward $217 $-1 #
vertex $-1 $225 $331 #
vertex $-1 $136 $332 #
straight-curve $-1 -70.805135157907614 -12.567222336985189 12.082329432181055 1 0 0 I I #
coedge $-1 $231 $231 $-1 $333 reversed $139 $-1 #
edge $-1 $334 0 $334 6.2831853071796004 $140 $335 forward 7 unknown #
vertex $-1 $143 $336 #
ellipse-curve $-1 -50.784807406003885 -10.251747175691243 7.955086794071736 -0.81915205242281985 0 0.57357642473473569 0.57357642473473569 0 0.81915205242281985 1 I I #
coedge $-1 $235 $235 $-1 $337 reversed $146 $-1 #
edge $-1 $338 0 $338 6.2831853071796004 $147 $339 forward 7 unknown #
vertex $-1 $150 $340 #
ellipse-curve $-1 -50.784807406003885 -6.7785344337503233 7.955086794071736 -0.81915205242281985 0 0.57357642473473569 0.57357642473473569 0 0.81915205242281985 1 I I #
coedge $-1 $239 $239 $-1 $341 reversed $153 $-1 #
edge $-1 $342 0 $342 6.2831853071796004 $154 $343 forward 7 unknown #
vertex $-1 $157 $344 #
ellipse-curve $-1 -50.784807406003885 -3.3053216918094037 7.955086794071736 -0.81915205242281985 0 0.57357642473473569 0.57357642473473569 0 0.81915205242281985 1 I I #
face $-1 $-1 $345 $33 $-1 $346 reversed single #
loop $-1 $-1 $164 $158 #
plane-surface $-1 0 0 12.082329432181053 0 0 1 1 0 0 forward_v I I I I #
coedge $-1 $347 $348 $162 $252 forward $159 $-1 #
coedge $-1 $248 $161 $163 $253 reversed $100 $-1 #
coedge $-1 $161 $247 $349 $350 reversed $100 $-1 #
coedge $-1 $351 $164 $161 $250 forward $244 $-1 #
edge $-1 $256 24.107009017655539 $352 36.088167744431146 $249 $353 forward 7 unknown #
coedge $-1 $163 $162 $354 $355 reversed $64 $-1 #
edge $-1 $356 -73.985068288840409 $255 -58.780759510500282 $246 $357 forward 7 unknown #
edge $-1 $358 -107.34946745200963 $256 -92.145158673669513 $247 $359 forward 7 unknown #
coedge $-1 $164 $351 $347 $360 forward $244 $-1 #
vertex $-1 $165 $361 #
vertex $-1 $165 $362 #
straight-curve $-1 41.693574999229227 9.6837206755039151 12.082329432181055 0 -1 0 I I #
coedge $-1 $258 $258 $-1 $363 reversed $168 $-1 #
edge $-1 $364 0 $364 6.2831853071796004 $169 $365 forward 7 unknown #
vertex $-1 $172 $366 #
ellipse-curve $-1 47.684154362617022 17.094059785855773 7.4019757865972267 0.61566148304635926 0 0.78801074757464917 1.1820161213619738 0 -0.92349222456953894 1 I I #
coedge $-1 $262 $262 $-1 $367 reversed $175 $-1 #
edge $-1 $368 0 $368 6.2831853071796004 $176 $369 forward 7 unknown #
vertex $-1 $179 $370 #
ellipse-curve $-1 47.684154362617022 21.640822916159888 7.4019757865972267 0.61566148304635926 0 0.78801074757464917 1.1820161213619738 0 -0.92349222456953894 1 I I #
face $-1 $-1 $195 $27 $-1 $371 reversed single #
loop $-1 $-1 $282 $180 #
plane-surface $-1 0 24.671998336362631 0 0 -1 0 0 0 -1 forward_v I I I I #
coedge $-1 $372 $280 $283 $373 forward $181 $-1 #
coedge $-1 $286 $183 $184 $274 reversed $114 $-1 #
coedge $-1 $280 $372 $183 $272 reversed $181 $-1 #
edge $-1 $287 -12.082329432181053 $374 12.082329432181053 $271 $375 forward 7 unknown #
coedge $-1 $185 $184 $372 $376 forward $73 $-1 #
edge $-1 $278 -53.674733726004824 $374 53.674733726004824 $270 $377 forward 7 unknown #
coedge $-1 $283 $282 $185 $276 reversed $267 $-1 #
edge $-1 $378 -53.674733726004824 $277 53.674733726004824 $275 $379 forward 7 unknown #
vertex $-1 $187 $380 #
vertex $-1 $289 $381 #
straight-curve $-1 53.674733726004824 0 -12.082329432181053 0 -1 0 I I #
coedge $-1 $269 $271 $188 $281 reversed $181 $-1 #
edge $-1 $284 -24.671998336362631 $287 24.671998336362631 $280 $382 forward 7 unknown #
coedge $-1 $275 $189 $194 $290 forward $267 $-1 #
coedge $-1 $189 $275 $269 $373 reversed $267 $-1 #
vertex $-1 $190 $383 #
straight-curve $-1 0 24.671998336362631 12.082329432181053 -1 0 0 I I #
coedge $-1 $191 $270 $193 $289 reversed $114 $-1 #
vertex $-1 $281 $384 #
straight-curve $-1 0 -24.671998336362631 12.082329432181053 1 0 0 I I #
edge $-1 $196 -12.082329432181053 $278 12.082329432181053 $193 $385 forward 7 unknown #
edge $-1 $197 -12.082329432181053 $277 12.082329432181053 $194 $386 forward 7 unknown #
point $-1 53.674733726004824 -24.671998336362631 12.082329432181053 #
point $-1 53.674733726004824 24.671998336362631 12.082329432181053 #
face $-1 $-1 $212 $28 $-1 $387 reversed single #
loop $-1 $-1 $300 $199 #
plane-surface $-1 0 0 12.082329432181053 0 0 1 1 0 0 forward_v I I I I #
coedge $-1 $388 $202 $207 $305 forward $122 $-1 #
coedge $-1 $202 $388 $389 $390 reversed $122 $-1 #
coedge $-1 $204 $203 $202 $299 reversed $77 $-1 #
edge $-1 $391 -7.2367684963381995 $310 -2.4543533753475115 $202 $392 forward 7 unknown #
coedge $-1 $389 $393 $204 $301 forward $294 $-1 #
edge $-1 $303 -53.674733726004824 $391 53.674733726004824 $300 $394 forward 7 unknown #
coedge $-1 $211 $205 $393 $395 reversed $212 $-1 #
vertex $-1 $206 $396 #
straight-curve $-1 53.674733726004824 -16.675758070818208 4.8455609358428555 0 0 1 I I #
edge $-1 $310 6.3388189690229986 $308 14.335059234567421 $296 $397 forward 7 unknown #
coedge $-1 $398 $208 $211 $312 reversed $200 $-1 #
coedge $-1 $208 $398 $388 $399 forward $200 $-1 #
vertex $-1 $209 $400 #
straight-curve $-1 0 -24.671998336362631 7.299914311190367 1 0 0 I I #
vertex $-1 $305 $401 #
straight-curve $-1 0 -16.675758070818208 7.299914311190367 1 0 0 I I #
edge $-1 $402 -12.082329432181053 $213 -7.299914311190367 $211 $403 forward 7 unknown #
point $-1 53.674733726004824 -24.671998336362631 7.299914311190367 #
point $-1 53.674733726004824 -16.675758070818208 7.299914311190367 #
loop $-1 $-1 $224 $216 #
plane-surface $-1 -53.674733726004824 0 0 1 0 0 0 0 -1 forward_v I I I I #
coedge $-1 $318 $219 $221 $322 reversed $130 $-1 #
coedge $-1 $219 $317 $404 $405 reversed $130 $-1 #
coedge $-1 $227 $222 $219 $320 forward $217 $-1 #
edge $-1 $323 -22.910254071904674 $406 -17.13040143190279 $319 $407 forward 7 unknown #
coedge $-1 $221 $220 $326 $408 reversed $81 $-1 #
edge $-1 $409 1.2442367137257826e-014 $323 10.076865768454351 $317 $410 forward 7 unknown #
vertex $-1 $223 $411 #
straight-curve $-1 -47.89488108600294 -3.3892672168751616 12.082329432181051 0 1 0 I I #
coedge $-1 $404 $224 $227 $330 reversed $315 $-1 #
coedge $-1 $224 $404 $321 $408 forward $315 $-1 #
vertex $-1 $225 $412 #
straight-curve $-1 -53.674733726004824 -12.567222336985189 32.700483947131993 0 0 1 I I #
straight-curve $-1 -53.674733726004831 -12.567222336985189 3.827844155962417 -0.57357642473473569 0 -0.81915205242281985 I I #
edge $-1 $406 0.98984653051545735 $228 12.567222336985189 $325 $413 forward 7 unknown #
point $-1 -53.674733726004824 -12.567222336985189 12.082329432181053 #
point $-1 -47.89488108600294 -12.567222336985189 12.082329432181053 #
edge $-1 $414 1 $414 0 $231 $-1 forward 7 unknown #
vertex $-1 $232 $415 #
ellipse-curve $-1 -49.859683322262342 -10.251747175691243 7.3073079564078114 -0.81915205242281985 0 0.57357642473473569 0.57357642473473569 0 0.81915205242281985 1 I I #
point $-1 -50.211230981269139 -10.251747175691243 8.7742388464945495 #
edge $-1 $416 1 $416 0 $235 $-1 forward 7 unknown #
vertex $-1 $236 $417 #
ellipse-curve $-1 -49.859683322262342 -6.7785344337503233 7.3073079564078114 -0.81915205242281985 0 0.57357642473473569 0.57357642473473569 0 0.81915205242281985 1 I I #
point $-1 -50.211230981269139 -6.7785344337503233 8.7742388464945495 #
edge $-1 $418 1 $418 0 $239 $-1 forward 7 unknown #
vertex $-1 $240 $419 #
ellipse-curve $-1 -49.859683322262342 -3.3053216918094037 7.3073079564078114 -0.81915205242281985 0 0.57357642473473569 0.57357642473473569 0 0.81915205242281985 1 I I #
point $-1 -50.211230981269139 -3.3053216918094037 8.7742388464945495 #
loop $-1 $-1 $354 $243 #
plane-surface $-1 53.674733726004824 0 0 -1 0 0 0 0 1 forward_v I I I I #
coedge $-1 $348 $246 $254 $360 reversed $159 $-1 #
coedge $-1 $246 $347 $420 $421 forward $159 $-1 #
coedge $-1 $354 $422 $248 $350 forward $345 $-1 #
edge $-1 $352 64.620214855495504 $358 73.980922146663161 $349 $423 forward 7 unknown #
coedge $-1 $254 $249 $422 $424 forward $244 $-1 #
vertex $-1 $424 $425 #
straight-curve $-1 17.586565981573681 14.06288436565303 12.082329432181055 1 0 0 I I #
coedge $-1 $420 $349 $251 $355 forward $345 $-1 #
edge $-1 $358 4.3791636901491149 $356 14.988277660858715 $354 $426 forward 7 unknown #
vertex $-1 $355 $427 #
straight-curve $-1 -4.62629524564578 24.671998336362631 48.271379007007049 -0.78801074757464917 0 0.61566148304635926 I I #
vertex $-1 $355 $428 #
straight-curve $-1 -30.917800372593767 14.06288436565303 68.812554476754528 -0.78801074757464917 0 0.61566148304635926 I I #
edge $-1 $429 -53.674733726004824 $255 -41.69357499922922 $347 $430 forward 7 unknown #
point $-1 41.69357499922922 24.671998336362631 12.082329432181055 #
point $-1 41.69357499922922 14.06288436565303 12.082329432181055 #
edge $-1 $431 1 $431 0 $258 $-1 forward 7 unknown #
vertex $-1 $259 $432 #
ellipse-curve $-1 44.468151241995493 17.094059785855773 3.2856795863807351 0.61566148304635926 0 0.78801074757464917 1.1820161213619738 0 -0.92349222456953894 1 I I #
point $-1 48.866170483978991 17.094059785855773 6.4784835620276784 #
edge $-1 $433 1 $433 0 $262 $-1 forward 7 unknown #
vertex $-1 $263 $434 #
ellipse-curve $-1 44.468151241995493 21.640822916159888 3.2856795863807351 0.61566148304635926 0 0.78801074757464917 1.1820161213619738 0 -0.92349222456953894 1 I I #
point $-1 48.866170483978991 21.640822916159888 6.4784835620276784 #
plane-surface $-1 53.674733726004824 0 0 -1 0 0 0 0 1 forward_v I I I I #
coedge $-1 $271 $269 $273 $376 reversed $181 $-1 #
edge $-1 $284 -12.082329432181053 $378 12.082329432181053 $283 $435 forward 7 unknown #
vertex $-1 $376 $436 #
straight-curve $-1 -53.674733726004824 -24.671998336362631 0 0 0 -1 I I #
edge $-1 $374 -24.671998336362631 $378 24.671998336362631 $372 $437 forward 7 unknown #
straight-curve $-1 0 -24.671998336362631 -12.082329432181053 -1 0 0 I I #
vertex $-1 $276 $438 #
straight-curve $-1 0 24.671998336362631 -12.082329432181053 1 0 0 I I #
point $-1 53.674733726004824 24.671998336362631 -12.082329432181053 #
point $-1 53.674733726004824 -24.671998336362631 -12.082329432181053 #
straight-curve $-1 -53.674733726004824 0 12.082329432181053 0 -1 0 I I #
point $-1 -53.674733726004824 24.671998336362631 12.082329432181053 #
point $-1 -53.674733726004824 -24.671998336362631 12.082329432181053 #
straight-curve $-1 53.674733726004824 -24.671998336362631 0 0 0 -1 I I #
straight-curve $-1 53.674733726004824 24.671998336362631 0 0 0 -1 I I #
plane-surface $-1 53.674733726004824 0 0 -1 0 0 0 0 1 forward_v I I I I #
coedge $-1 $297 $296 $307 $399 reversed $122 $-1 #
coedge $-1 $439 $300 $297 $390 forward $294 $-1 #
edge $-1 $391 16.675758070818208 $440 24.671998336362631 $297 $441 forward 7 unknown #
vertex $-1 $390 $442 #
straight-curve $-1 -53.674733726004824 -16.675758070818208 4.8455609358428555 0 0 -1 I I #
coedge $-1 $300 $439 $302 $395 forward $294 $-1 #
straight-curve $-1 0 -16.675758070818208 12.082329432181053 -1 0 0 I I #
edge $-1 $402 -24.671998336362631 $303 -16.675758070818208 $302 $443 forward 7 unknown #
point $-1 53.674733726004824 -16.675758070818208 12.082329432181055 #
straight-curve $-1 -53.674733726004824 -10.33693910179521 7.299914311190367 0 -1 0 I I #
coedge $-1 $307 $306 $439 $444 reversed $200 $-1 #
edge $-1 $440 -12.082329432181053 $308 -7.299914311190367 $388 $445 forward 7 unknown #
point $-1 -53.674733726004824 -24.671998336362631 7.299914311190367 #
point $-1 -53.674733726004824 -16.675758070818208 7.299914311190367 #
vertex $-1 $395 $446 #
straight-curve $-1 53.674733726004824 -24.671998336362631 0 0 0 -1 I I #
coedge $-1 $326 $325 $318 $405 forward $315 $-1 #
edge $-1 $406 20.618154514950938 $409 28.872639791169565 $404 $447 forward 7 unknown #
vertex $-1 $330 $448 #
straight-curve $-1 -70.805135157907614 -0.98984653051545735 12.082329432181055 -1 0 0 I I #
edge $-1 $409 -2.3994206863597043 $327 9.1779551201100276 $326 $449 forward 7 unknown #
vertex $-1 $408 $450 #
straight-curve $-1 -53.674733726004831 -0.98984653051545735 3.827844155962417 0.57357642473473569 0 0.81915205242281985 I I #
point $-1 -47.89488108600294 -0.98984653051545735 12.082329432181053 #
point $-1 -53.674733726004824 -12.567222336985189 3.8278441559624272 #
straight-curve $-1 -53.674733726004824 0 12.082329432181053 0 -1 0 I I #
vertex $-1 $333 $451 #
point $-1 -49.286106897527603 -10.251747175691243 8.126460008830632 #
vertex $-1 $337 $452 #
point $-1 -49.286106897527603 -6.7785344337503233 8.126460008830632 #
vertex $-1 $341 $453 #
point $-1 -49.286106897527603 -3.3053216918094037 8.126460008830632 #
coedge $-1 $422 $354 $348 $421 reversed $345 $-1 #
edge $-1 $429 -12.082329432181053 $356 -2.7216221410133983 $420 $454 forward 7 unknown #
coedge $-1 $349 $420 $351 $424 reversed $345 $-1 #
straight-curve $-1 53.674733726004824 14.06288436565303 76.70254428767656 0 0 -1 I I #
edge $-1 $352 14.06288436565303 $429 24.671998336362631 $422 $455 forward 7 unknown #
point $-1 53.674733726004824 14.06288436565303 12.082329432181053 #
straight-curve $-1 53.674733726004831 9.6837206755039151 2.7216221410133912 0 1 0 I I #
point $-1 53.674733726004824 24.671998336362631 2.7216221410133983 #
point $-1 53.674733726004824 14.06288436565303 2.7216221410133983 #
vertex $-1 $424 $456 #
straight-curve $-1 0 24.671998336362631 12.082329432181053 -1 0 0 I I #
vertex $-1 $363 $457 #
point $-1 45.650167363357461 17.094059785855773 2.3621873618111962 #
vertex $-1 $367 $458 #
point $-1 45.650167363357461 21.640822916159888 2.3621873618111962 #
straight-curve $-1 -53.674733726004824 24.671998336362631 0 0 0 -1 I I #
point $-1 -53.674733726004824 -24.671998336362631 -12.082329432181053 #
straight-curve $-1 -53.674733726004824 0 -12.082329432181053 0 1 0 I I #
point $-1 -53.674733726004824 24.671998336362631 -12.082329432181053 #
coedge $-1 $393 $389 $398 $444 forward $294 $-1 #
vertex $-1 $390 $459 #
straight-curve $-1 -53.674733726004824 0 12.082329432181053 0 -1 0 I I #
point $-1 -53.674733726004824 -16.675758070818208 12.082329432181055 #
straight-curve $-1 53.674733726004824 0 12.082329432181053 0 1 0 I I #
edge $-1 $440 -53.674733726004824 $402 53.674733726004824 $398 $460 forward 7 unknown #
straight-curve $-1 -53.674733726004824 -24.671998336362631 0 0 0 -1 I I #
point $-1 53.674733726004824 -24.671998336362631 12.082329432181053 #
straight-curve $-1 -53.674733726004824 -0.98984653051545735 32.700483947131993 0 0 -1 I I #
point $-1 -53.674733726004824 -0.98984653051545735 12.082329432181053 #
straight-curve $-1 -53.674733726004824 -3.3892672168751616 3.8278441559624361 0 -1 0 I I #
point $-1 -53.674733726004824 -0.98984653051545735 3.8278441559624272 #
point $-1 -49.040531269839519 -10.251747175691243 6.7337315316730759 #
point $-1 -49.040531269839519 -6.7785344337503233 6.7337315316730759 #
point $-1 -49.040531269839519 -3.3053216918094037 6.7337315316730759 #
straight-curve $-1 53.674733726004824 24.671998336362631 0 0 0 -1 I I #
straight-curve $-1 53.674733726004824 0 12.082329432181053 0 1 0 I I #
point $-1 53.674733726004824 24.671998336362631 12.082329432181053 #
point $-1 43.54465901742595 17.094059785855773 2.1036634650187613 #
point $-1 43.54465901742595 21.640822916159888 2.1036634650187613 #
point $-1 -53.674733726004824 -24.671998336362631 12.082329432181053 #
straight-curve $-1 0 -24.671998336362631 12.082329432181053 1 0 0 I I #
End-of-ACIS-data 