500 0 11 0           
7 Unknown 11 ACIS 5.0 NT 24 Fri Mar 26 14:26:55 1999 
-1 9.9999999999999995e-007 1e-010 
body $-1 $11 $-1 $12 #
body $-1 $13 $-1 $14 #
body $-1 $15 $-1 $16 #
body $-1 $17 $-1 $18 #
body $-1 $19 $-1 $20 #
body $-1 $21 $-1 $22 #
body $-1 $23 $-1 $24 #
body $-1 $25 $-1 $26 #
body $-1 $27 $-1 $28 #
body $-1 $29 $-1 $30 #
body $-1 $31 $-1 $32 #
lump $-1 $-1 $33 $0 #
transform $-1 1 0 0 0 1 0 0 0 1 56.292001098666347 28.512782440704534 14.173899329871638 1 rotate no_reflect no_shear #
lump $-1 $-1 $34 $1 #
transform $-1 1 0 0 0 1 0 0 0 1 56.292001098666347 28.512782440704534 14.173899329871638 1 rotate no_reflect no_shear #
lump $-1 $-1 $35 $2 #
transform $-1 1 0 0 0 1 0 0 0 1 56.292001098666347 28.512782440704534 14.173899329871638 1 rotate no_reflect no_shear #
lump $-1 $-1 $36 $3 #
transform $-1 1 0 0 0 1 0 0 0 1 56.292001098666347 28.512782440704534 14.173899329871638 1 rotate no_reflect no_shear #
lump $-1 $-1 $37 $4 #
transform $-1 1 0 0 0 1 0 0 0 1 56.292001098666347 28.512782440704534 14.173899329871638 1 rotate no_reflect no_shear #
lump $-1 $-1 $38 $5 #
transform $-1 1 0 0 0 1 0 0 0 1 56.292001098666347 28.512782440704534 14.173899329871638 1 rotate no_reflect no_shear #
lump $-1 $-1 $39 $6 #
transform $-1 1 0 0 0 1 0 0 0 1 56.292001098666347 28.512782440704534 14.173899329871638 1 rotate no_reflect no_shear #
lump $-1 $-1 $40 $7 #
transform $-1 1 0 0 0 1 0 0 0 1 56.292001098666347 28.512782440704534 14.173899329871638 1 rotate no_reflect no_shear #
lump $-1 $-1 $41 $8 #
transform $-1 1 0 0 0 1 0 0 0 1 56.292001098666347 28.512782440704534 14.173899329871638 1 rotate no_reflect no_shear #
lump $-1 $-1 $42 $9 #
transform $-1 1 0 0 0 1 0 0 0 1 56.292001098666347 28.512782440704534 14.173899329871638 1 rotate no_reflect no_shear #
lump $-1 $-1 $43 $10 #
transform $-1 1 0 0 0 1 0 0 0 1 56.292001098666347 28.512782440704534 14.173899329871638 1 rotate no_reflect no_shear #
shell $-1 $-1 $-1 $44 $-1 $11 #
shell $-1 $-1 $-1 $45 $-1 $13 #
shell $-1 $-1 $-1 $46 $-1 $15 #
shell $-1 $-1 $-1 $47 $-1 $17 #
shell $-1 $-1 $-1 $48 $-1 $19 #
shell $-1 $-1 $-1 $49 $-1 $21 #
shell $-1 $-1 $-1 $50 $-1 $23 #
shell $-1 $-1 $-1 $51 $-1 $25 #
shell $-1 $-1 $-1 $52 $-1 $27 #
shell $-1 $-1 $-1 $53 $-1 $29 #
shell $-1 $-1 $-1 $54 $-1 $31 #
face $-1 $55 $56 $33 $-1 $57 forward single #
face $-1 $58 $59 $34 $-1 $60 forward single #
face $-1 $61 $62 $35 $-1 $63 reversed single #
face $-1 $64 $65 $36 $-1 $66 forward single #
face $-1 $67 $68 $37 $-1 $69 forward single #
face $-1 $70 $71 $38 $-1 $72 reversed single #
face $-1 $73 $74 $39 $-1 $75 forward single #
face $-1 $76 $77 $40 $-1 $78 forward single #
face $-1 $79 $80 $41 $-1 $81 reversed single #
face $-1 $82 $83 $42 $-1 $84 forward single #
face $-1 $85 $86 $43 $-1 $87 forward single #
face $-1 $88 $89 $33 $-1 $90 reversed single #
loop $-1 $-1 $91 $44 #
plane-surface $-1 0 0 14.173899329871638 0 0 1 1 0 0 forward_v I I I I #
face $-1 $92 $93 $34 $-1 $94 reversed single #
loop $-1 $-1 $95 $45 #
plane-surface $-1 0 -22.967780169372858 -2.5847572208946659 0 0 1 1 0 0 forward_v I I I I #
face $-1 $96 $97 $35 $-1 $98 reversed single #
loop $-1 $-1 $99 $46 #
plane-surface $-1 -117.60964421693501 -17.422777898041183 96.04921488626394 0 1 0 -0.54463904215088732 0 0.83867056331134215 forward_v I I I I #
face $-1 $100 $101 $36 $-1 $102 forward single #
loop $-1 $103 $104 $47 #
cone-surface $-1 -45.891505673098585 -14.361768953108704 6.7596857065715099 0.54463904215088732 0 -0.83867056331134215 1.2580058449670133 0 0.81695856322633098 1 I I 0 1 1.5 forward I I I I #
face $-1 $105 $106 $37 $-1 $107 forward single #
loop $-1 $108 $109 $48 #
cone-surface $-1 -45.891505673098585 -9.7702555357099889 6.7596857065715099 0.54463904215088732 0 -0.83867056331134215 1.2580058449670133 0 0.81695856322633098 1 I I 0 1 1.5 forward I I I I #
face $-1 $110 $111 $38 $-1 $112 reversed single #
loop $-1 $-1 $113 $49 #
plane-surface $-1 -117.60964421693501 5.54500227133168 96.04921488626394 0 1 0 -0.54463904215088732 0 0.83867056331134215 forward_v I I I I #
face $-1 $114 $115 $39 $-1 $116 forward single #
loop $-1 $117 $118 $50 #
cone-surface $-1 -45.891505673098585 8.6060112162641573 6.7596857065715099 0.54463904215088732 0 -0.83867056331134215 1.2580058449670133 0 0.81695856322633098 1 I I 0 1 1.5 forward I I I I #
face $-1 $119 $120 $40 $-1 $121 forward single #
loop $-1 $122 $123 $51 #
cone-surface $-1 -45.891505673098585 13.197524633662873 6.7596857065715099 0.54463904215088732 0 -0.83867056331134215 1.2580058449670133 0 0.81695856322633098 1 I I 0 1 1.5 forward I I I I #
face $-1 $124 $125 $41 $-1 $126 reversed single #
loop $-1 $-1 $127 $52 #
plane-surface $-1 -32.425402637799721 23.350997645111946 77.136420424347563 0.61566148304635926 0 0.78801074757464917 0.78801074757464917 0 -0.61566148304635926 forward_v I I I I #
face $-1 $128 $129 $42 $-1 $130 forward single #
loop $-1 $131 $132 $53 #
cone-surface $-1 51.734749832233938 21.138804161286551 10.367684290297616 -0.61566148304635926 0 -0.78801074757464917 0.39400537378732459 0 -0.30783074152317963 1 I I 0 1 0.5 forward I I I I #
face $-1 $133 $134 $43 $-1 $135 forward single #
loop $-1 $136 $137 $54 #
cone-surface $-1 51.734749832233938 25.563191128937341 10.367684290297616 -0.61566148304635926 0 -0.78801074757464917 0.39400537378732459 0 -0.30783074152317963 1 I I 0 1 0.5 forward I I I I #
face $-1 $138 $139 $33 $-1 $140 reversed single #
loop $-1 $-1 $141 $55 #
plane-surface $-1 0 0 -14.173899329871638 0 0 1 1 0 0 forward_v I I I I #
coedge $-1 $142 $143 $144 $145 forward $56 $-1 #
face $-1 $146 $147 $34 $-1 $148 reversed single #
loop $-1 $-1 $149 $58 #
plane-surface $-1 0 -22.967780169372858 -8.8222764798101316 0 0 1 1 0 0 forward_v I I I I #
coedge $-1 $150 $151 $152 $153 reversed $59 $-1 #
face $-1 $154 $155 $35 $-1 $156 reversed single #
loop $-1 $-1 $157 $61 #
plane-surface $-1 -56.29200109866634 -12.066012244409347 1.6283263435815485 -0.54463904215088732 0 0.83867056331134215 0.83867056331134215 0 0.54463904215088732 forward_v I I I I #
coedge $-1 $158 $159 $160 $161 reversed $62 $-1 #
face $-1 $-1 $162 $36 $-1 $163 forward single #
loop $-1 $164 $165 $64 #
cone-surface $-1 -44.741774932273394 -14.361768953108704 4.9892556539329149 0.54463904215088732 0 -0.83867056331134215 0.62900292248350664 0 0.40847928161316549 1 I I -0.70710678118654757 0.70710678118654757 0.75 forward I I I I #
loop $-1 $-1 $166 $47 #
coedge $-1 $104 $104 $167 $168 reversed $65 $-1 #
face $-1 $-1 $169 $37 $-1 $170 forward single #
loop $-1 $171 $172 $67 #
cone-surface $-1 -44.741774932273394 -9.7702555357099889 4.9892556539329149 0.54463904215088732 0 -0.83867056331134215 0.62900292248350664 0 0.40847928161316549 1 I I -0.70710678118654757 0.70710678118654757 0.75 forward I I I I #
loop $-1 $-1 $173 $48 #
coedge $-1 $109 $109 $174 $175 reversed $68 $-1 #
face $-1 $176 $177 $38 $-1 $178 reversed single #
loop $-1 $-1 $179 $70 #
plane-surface $-1 -56.29200109866634 10.901767924963515 1.6283263435815485 -0.54463904215088732 0 0.83867056331134215 0.83867056331134215 0 0.54463904215088732 forward_v I I I I #
coedge $-1 $180 $181 $182 $183 reversed $71 $-1 #
face $-1 $-1 $184 $39 $-1 $185 forward single #
loop $-1 $186 $187 $73 #
cone-surface $-1 -44.741774932273394 8.6060112162641573 4.9892556539329149 0.54463904215088732 0 -0.83867056331134215 0.62900292248350664 0 0.40847928161316549 1 I I -0.70710678118654757 0.70710678118654757 0.75 forward I I I I #
loop $-1 $-1 $188 $50 #
coedge $-1 $118 $118 $189 $190 reversed $74 $-1 #
face $-1 $-1 $191 $40 $-1 $192 forward single #
loop $-1 $193 $194 $76 #
cone-surface $-1 -44.741774932273394 13.197524633662873 4.9892556539329149 0.54463904215088732 0 -0.83867056331134215 0.62900292248350664 0 0.40847928161316549 1 I I -0.70710678118654757 0.70710678118654757 0.75 forward I I I I #
loop $-1 $-1 $195 $51 #
coedge $-1 $123 $123 $196 $197 reversed $77 $-1 #
face $-1 $198 $199 $41 $-1 $200 forward single #
loop $-1 $-1 $201 $79 #
plane-surface $-1 36.888231122304688 18.189212849519357 165.85382416081364 0 1 0 0.61566148304635926 0 0.78801074757464917 forward_v I I I I #
coedge $-1 $202 $203 $204 $205 reversed $80 $-1 #
face $-1 $-1 $206 $42 $-1 $207 forward single #
loop $-1 $208 $209 $82 #
cone-surface $-1 51.088109868698893 21.138804161286551 9.5400228966441745 -0.61566148304635926 0 -0.78801074757464917 0.19700268689366229 0 -0.15391537076158981 1 I I -0.70710678118654746 0.70710678118654746 0.25 forward I I I I #
loop $-1 $-1 $210 $53 #
coedge $-1 $132 $132 $211 $212 reversed $83 $-1 #
face $-1 $-1 $213 $43 $-1 $214 forward single #
loop $-1 $215 $216 $85 #
cone-surface $-1 51.088109868698893 25.563191128937341 9.5400228966441745 -0.61566148304635926 0 -0.78801074757464917 0.19700268689366229 0 -0.15391537076158981 1 I I -0.70710678118654746 0.70710678118654746 0.25 forward I I I I #
loop $-1 $-1 $217 $54 #
coedge $-1 $137 $137 $218 $219 reversed $86 $-1 #
face $-1 $220 $221 $33 $-1 $222 reversed single #
loop $-1 $-1 $223 $88 #
plane-surface $-1 0 -28.512782440704534 0 0 1 0 0 0 1 forward_v I I I I #
coedge $-1 $224 $225 $226 $227 forward $89 $-1 #
coedge $-1 $228 $91 $229 $230 forward $56 $-1 #
coedge $-1 $91 $228 $231 $232 forward $56 $-1 #
coedge $-1 $233 $234 $91 $145 reversed $235 $-1 #
edge $-1 $236 -28.512782440704534 $237 28.512782440704534 $144 $238 forward 7 unknown #
face $-1 $239 $240 $34 $-1 $241 reversed single #
loop $-1 $-1 $242 $92 #
plane-surface $-1 0 -17.422777898041183 -5.7035168503523987 0 -1 0 0 0 -1 forward_v I I I I #
coedge $-1 $243 $244 $245 $246 reversed $93 $-1 #
coedge $-1 $247 $95 $248 $249 forward $59 $-1 #
coedge $-1 $95 $247 $250 $251 reversed $59 $-1 #
coedge $-1 $252 $253 $95 $153 forward $254 $-1 #
edge $-1 $255 5.9388878133547536 $256 17.028892356018105 $152 $257 forward 7 unknown #
face $-1 $258 $259 $35 $-1 $260 reversed single #
loop $-1 $-1 $261 $96 #
plane-surface $-1 -117.60964421693501 -6.7092465907775116 96.04921488626394 0 -1 0 0.54463904215088732 0 -0.83867056331134215 forward_v I I I I #
coedge $-1 $262 $263 $264 $265 reversed $97 $-1 #
coedge $-1 $159 $99 $266 $267 reversed $62 $-1 #
coedge $-1 $99 $158 $262 $268 reversed $62 $-1 #
coedge $-1 $264 $269 $99 $161 forward $270 $-1 #
edge $-1 $271 2.5128210098011579 $272 21.831308942512663 $160 $273 forward 7 unknown #
loop $-1 $-1 $167 $100 #
plane-surface $-1 -56.29200109866634 -12.066012244409347 1.6283263435815485 -0.54463904215088732 0 0.83867056331134215 0.83867056331134215 0 0.54463904215088732 forward_v I I I I #
loop $-1 $-1 $274 $64 #
coedge $-1 $165 $165 $166 $275 reversed $101 $-1 #
coedge $-1 $166 $166 $165 $275 forward $103 $-1 #
coedge $-1 $167 $167 $104 $168 forward $162 $-1 #
edge $-1 $276 0 $276 6.2831853071796004 $167 $277 forward 7 unknown #
loop $-1 $-1 $174 $105 #
plane-surface $-1 -56.29200109866634 -12.066012244409347 1.6283263435815485 -0.54463904215088732 0 0.83867056331134215 0.83867056331134215 0 0.54463904215088732 forward_v I I I I #
loop $-1 $-1 $278 $67 #
coedge $-1 $172 $172 $173 $279 reversed $106 $-1 #
coedge $-1 $173 $173 $172 $279 forward $108 $-1 #
coedge $-1 $174 $174 $109 $175 forward $169 $-1 #
edge $-1 $280 0 $280 6.2831853071796004 $174 $281 forward 7 unknown #
face $-1 $282 $283 $38 $-1 $284 forward single #
loop $-1 $-1 $285 $110 #
plane-surface $-1 -117.60964421693501 16.258533578595351 96.04921488626394 0 -1 0 0.54463904215088732 0 -0.83867056331134215 forward_v I I I I #
coedge $-1 $286 $287 $288 $289 reversed $111 $-1 #
coedge $-1 $181 $113 $290 $291 reversed $71 $-1 #
coedge $-1 $113 $180 $286 $292 reversed $71 $-1 #
coedge $-1 $288 $293 $113 $183 forward $283 $-1 #
edge $-1 $294 2.5128210098011579 $295 21.831308942512663 $182 $296 forward 7 unknown #
loop $-1 $-1 $189 $114 #
plane-surface $-1 -56.29200109866634 10.901767924963515 1.6283263435815485 -0.54463904215088732 0 0.83867056331134215 0.83867056331134215 0 0.54463904215088732 forward_v I I I I #
loop $-1 $-1 $297 $73 #
coedge $-1 $187 $187 $188 $298 reversed $115 $-1 #
coedge $-1 $188 $188 $187 $298 forward $117 $-1 #
coedge $-1 $189 $189 $118 $190 forward $184 $-1 #
edge $-1 $299 0 $299 6.2831853071796004 $189 $300 forward 7 unknown #
loop $-1 $-1 $196 $119 #
plane-surface $-1 -56.29200109866634 10.901767924963515 1.6283263435815485 -0.54463904215088732 0 0.83867056331134215 0.83867056331134215 0 0.54463904215088732 forward_v I I I I #
loop $-1 $-1 $301 $76 #
coedge $-1 $194 $194 $195 $302 reversed $120 $-1 #
coedge $-1 $195 $195 $194 $302 forward $122 $-1 #
coedge $-1 $196 $196 $123 $197 forward $191 $-1 #
edge $-1 $303 0 $303 6.2831853071796004 $196 $304 forward 7 unknown #
face $-1 $305 $306 $41 $-1 $307 reversed single #
loop $-1 $-1 $204 $124 #
plane-surface $-1 0 0 14.173899329871638 0 0 1 1 0 0 forward_v I I I I #
coedge $-1 $308 $309 $310 $311 reversed $125 $-1 #
coedge $-1 $312 $127 $313 $314 reversed $80 $-1 #
coedge $-1 $127 $312 $308 $315 forward $80 $-1 #
coedge $-1 $310 $316 $127 $205 forward $199 $-1 #
edge $-1 $317 -16.837283618148561 $318 -6.5137140269633846 $204 $319 forward 7 unknown #
loop $-1 $-1 $211 $128 #
plane-surface $-1 -32.425402637799721 23.350997645111946 77.136420424347563 0.61566148304635926 0 0.78801074757464917 0.78801074757464917 0 -0.61566148304635926 forward_v I I I I #
loop $-1 $-1 $320 $82 #
coedge $-1 $209 $209 $210 $321 reversed $129 $-1 #
coedge $-1 $210 $210 $209 $321 forward $131 $-1 #
coedge $-1 $211 $211 $132 $212 forward $206 $-1 #
edge $-1 $322 0 $322 6.2831853071796004 $211 $323 forward 7 unknown #
loop $-1 $-1 $218 $133 #
plane-surface $-1 -32.425402637799721 23.350997645111946 77.136420424347563 0.61566148304635926 0 0.78801074757464917 0.78801074757464917 0 -0.61566148304635926 forward_v I I I I #
loop $-1 $-1 $324 $85 #
coedge $-1 $216 $216 $217 $325 reversed $134 $-1 #
coedge $-1 $217 $217 $216 $325 forward $136 $-1 #
coedge $-1 $218 $218 $137 $219 forward $213 $-1 #
edge $-1 $326 0 $326 6.2831853071796004 $218 $327 forward 7 unknown #
face $-1 $328 $329 $33 $-1 $330 reversed single #
loop $-1 $-1 $331 $138 #
plane-surface $-1 -56.292001098666347 0 0 1 0 0 0 0 -1 forward_v I I I I #
coedge $-1 $332 $231 $333 $334 forward $139 $-1 #
coedge $-1 $335 $141 $332 $336 forward $89 $-1 #
coedge $-1 $141 $335 $337 $338 forward $89 $-1 #
coedge $-1 $234 $233 $141 $227 reversed $235 $-1 #
edge $-1 $339 -28.512782440704534 $340 28.512782440704534 $226 $341 forward 7 unknown #
coedge $-1 $143 $142 $342 $343 forward $56 $-1 #
coedge $-1 $344 $345 $142 $230 reversed $329 $-1 #
edge $-1 $237 -56.292001098666347 $346 56.292001098666347 $229 $347 forward 7 unknown #
coedge $-1 $223 $348 $143 $232 reversed $139 $-1 #
edge $-1 $349 -56.292001098666347 $236 56.292001098666347 $231 $350 forward 7 unknown #
coedge $-1 $226 $144 $348 $351 forward $235 $-1 #
coedge $-1 $144 $226 $344 $352 reversed $235 $-1 #
loop $-1 $-1 $233 $328 #
vertex $-1 $145 $353 #
vertex $-1 $145 $354 #
straight-curve $-1 56.292001098666347 0 14.173899329871638 0 1 0 I I #
face $-1 $355 $356 $34 $-1 $357 reversed single #
loop $-1 $-1 $358 $146 #
plane-surface $-1 -56.292001098666347 0 0 1 0 0 0 0 -1 forward_v I I I I #
coedge $-1 $359 $248 $253 $360 reversed $147 $-1 #
coedge $-1 $361 $149 $362 $363 reversed $93 $-1 #
coedge $-1 $149 $361 $359 $364 forward $93 $-1 #
coedge $-1 $253 $252 $149 $246 forward $254 $-1 #
edge $-1 $365 -17.028892356018105 $366 -5.9388878133547536 $245 $367 forward 7 unknown #
coedge $-1 $151 $150 $358 $368 reversed $59 $-1 #
coedge $-1 $242 $369 $150 $249 reversed $147 $-1 #
edge $-1 $255 -56.292001098666347 $370 56.292001098666347 $248 $371 forward 7 unknown #
coedge $-1 $372 $373 $151 $251 forward $356 $-1 #
edge $-1 $256 -56.292001098666347 $374 56.292001098666347 $250 $375 forward 7 unknown #
coedge $-1 $245 $152 $373 $376 forward $254 $-1 #
coedge $-1 $152 $245 $242 $360 forward $254 $-1 #
loop $-1 $-1 $152 $355 #
vertex $-1 $153 $377 #
vertex $-1 $376 $378 #
straight-curve $-1 56.292001098666347 -11.483890084686429 -2.5847572208946659 0 -1 0 I I #
face $-1 $-1 $270 $35 $-1 $379 forward single #
loop $-1 $-1 $380 $154 #
plane-surface $-1 -56.292001098666347 0 0 1 0 0 0 0 -1 forward_v I I I I #
coedge $-1 $381 $382 $383 $384 reversed $155 $-1 #
coedge $-1 $385 $157 $159 $268 forward $97 $-1 #
coedge $-1 $157 $385 $381 $386 forward $97 $-1 #
coedge $-1 $383 $160 $157 $265 forward $270 $-1 #
edge $-1 $272 -11.389771775836509 $387 -0.67624046857283826 $264 $388 forward 7 unknown #
coedge $-1 $389 $390 $158 $267 forward $259 $-1 #
edge $-1 $391 -46.396281099550428 $271 -33.850708113260332 $266 $392 forward 7 unknown #
edge $-1 $272 -23.034656011337599 $391 8.4987301443310198e-015 $159 $393 forward 7 unknown #
coedge $-1 $160 $383 $389 $394 forward $270 $-1 #
loop $-1 $-1 $383 $258 #
vertex $-1 $267 $395 #
vertex $-1 $161 $396 #
straight-curve $-1 -58.804822108467505 -17.422777898041183 14.173899329871638 1 0 0 I I #
coedge $-1 $274 $274 $-1 $397 reversed $164 $-1 #
edge $-1 $398 0 $398 6.2831853071796004 $165 $399 forward 7 unknown #
vertex $-1 $168 $400 #
ellipse-curve $-1 -46.632757132310601 -14.361768953108704 7.9011128367265853 -0.54463904215088732 0 0.83867056331134215 1.2580058449670133 0 0.81695856322633098 1 I I #
coedge $-1 $278 $278 $-1 $401 reversed $171 $-1 #
edge $-1 $402 0 $402 6.2831853071796004 $172 $403 forward 7 unknown #
vertex $-1 $175 $404 #
ellipse-curve $-1 -46.632757132310601 -9.7702555357099889 7.9011128367265853 -0.54463904215088732 0 0.83867056331134215 1.2580058449670133 0 0.81695856322633098 1 I I #
face $-1 $-1 $405 $38 $-1 $406 reversed single #
loop $-1 $-1 $182 $176 #
plane-surface $-1 0 0 14.173899329871638 0 0 1 1 0 0 forward_v I I I I #
coedge $-1 $407 $408 $409 $410 reversed $177 $-1 #
coedge $-1 $411 $179 $181 $292 forward $111 $-1 #
coedge $-1 $179 $411 $407 $412 forward $111 $-1 #
coedge $-1 $409 $182 $179 $289 forward $283 $-1 #
edge $-1 $295 0.09411830884992245 $413 10.807649616113594 $288 $414 forward 7 unknown #
coedge $-1 $415 $416 $180 $291 forward $405 $-1 #
edge $-1 $417 -46.396281099550428 $294 -33.850708113260332 $290 $418 forward 7 unknown #
edge $-1 $295 -23.034656011337599 $417 8.4987301443310198e-015 $181 $419 forward 7 unknown #
coedge $-1 $182 $409 $415 $420 forward $283 $-1 #
vertex $-1 $183 $421 #
vertex $-1 $183 $422 #
straight-curve $-1 -58.804822108467505 5.54500227133168 14.173899329871638 1 0 0 I I #
coedge $-1 $297 $297 $-1 $423 reversed $186 $-1 #
edge $-1 $424 0 $424 6.2831853071796004 $187 $425 forward 7 unknown #
vertex $-1 $190 $426 #
ellipse-curve $-1 -46.632757132310601 8.6060112162641573 7.9011128367265853 -0.54463904215088732 0 0.83867056331134215 1.2580058449670133 0 0.81695856322633098 1 I I #
coedge $-1 $301 $301 $-1 $427 reversed $193 $-1 #
edge $-1 $428 0 $428 6.2831853071796004 $194 $429 forward 7 unknown #
vertex $-1 $197 $430 #
ellipse-curve $-1 -46.632757132310601 13.197524633662873 7.9011128367265853 -0.54463904215088732 0 0.83867056331134215 1.2580058449670133 0 0.81695856322633098 1 I I #
face $-1 $-1 $431 $41 $-1 $432 reversed single #
loop $-1 $-1 $433 $198 #
plane-surface $-1 56.292001098666347 0 0 -1 0 0 0 0 1 forward_v I I I I #
coedge $-1 $309 $201 $203 $315 reversed $125 $-1 #
coedge $-1 $201 $308 $434 $435 reversed $125 $-1 #
coedge $-1 $436 $204 $201 $311 forward $199 $-1 #
edge $-1 $318 29.718832190196082 $437 37.847885537514003 $310 $438 forward 7 unknown #
coedge $-1 $203 $202 $433 $439 reversed $80 $-1 #
coedge $-1 $440 $441 $202 $314 forward $431 $-1 #
edge $-1 $442 -76.063257813151239 $317 -65.747340965141689 $313 $443 forward 7 unknown #
edge $-1 $444 -112.58400219733268 $318 -102.26808534932313 $308 $445 forward 7 unknown #
coedge $-1 $204 $436 $440 $446 forward $199 $-1 #
vertex $-1 $314 $447 #
vertex $-1 $205 $448 #
straight-curve $-1 48.162947751348426 11.675498822555973 14.173899329871638 0 -1 0 I I #
coedge $-1 $320 $320 $-1 $449 reversed $208 $-1 #
edge $-1 $450 0 $450 6.2831853071796004 $209 $451 forward 7 unknown #
vertex $-1 $212 $452 #
ellipse-curve $-1 52.227474425007387 21.138804161286551 10.99834299705739 0.61566148304635926 0 0.78801074757464917 0.39400537378732459 0 -0.30783074152317963 1 I I #
coedge $-1 $324 $324 $-1 $453 reversed $215 $-1 #
edge $-1 $454 0 $454 6.2831853071796004 $216 $455 forward 7 unknown #
vertex $-1 $219 $456 #
ellipse-curve $-1 52.227474425007387 25.563191128937341 10.99834299705739 0.61566148304635926 0 0.78801074757464917 0.39400537378732459 0 -0.30783074152317963 1 I I #
face $-1 $-1 $235 $33 $-1 $457 reversed single #
loop $-1 $-1 $344 $220 #
plane-surface $-1 0 28.512782440704534 0 0 -1 0 0 0 -1 forward_v I I I I #
coedge $-1 $458 $342 $345 $459 forward $221 $-1 #
coedge $-1 $348 $223 $224 $336 reversed $139 $-1 #
coedge $-1 $342 $458 $223 $334 reversed $221 $-1 #
edge $-1 $349 -14.173899329871638 $460 14.173899329871638 $333 $461 forward 7 unknown #
coedge $-1 $225 $224 $458 $462 forward $89 $-1 #
edge $-1 $340 -56.292001098666347 $460 56.292001098666347 $332 $463 forward 7 unknown #
coedge $-1 $345 $344 $225 $338 reversed $329 $-1 #
edge $-1 $464 -56.292001098666347 $339 56.292001098666347 $337 $465 forward 7 unknown #
vertex $-1 $227 $466 #
vertex $-1 $351 $467 #
straight-curve $-1 56.292001098666347 0 -14.173899329871638 0 -1 0 I I #
coedge $-1 $331 $333 $228 $343 reversed $221 $-1 #
edge $-1 $346 -28.512782440704534 $349 28.512782440704534 $342 $468 forward 7 unknown #
coedge $-1 $337 $229 $234 $352 forward $329 $-1 #
coedge $-1 $229 $337 $331 $459 reversed $329 $-1 #
vertex $-1 $230 $469 #
straight-curve $-1 0 28.512782440704534 14.173899329871638 -1 0 0 I I #
coedge $-1 $231 $332 $233 $351 reversed $139 $-1 #
vertex $-1 $343 $470 #
straight-curve $-1 0 -28.512782440704534 14.173899329871638 1 0 0 I I #
edge $-1 $236 -14.173899329871638 $340 14.173899329871638 $233 $471 forward 7 unknown #
edge $-1 $237 -14.173899329871638 $339 14.173899329871638 $234 $472 forward 7 unknown #
point $-1 56.292001098666347 -28.512782440704534 14.173899329871638 #
point $-1 56.292001098666347 28.512782440704534 14.173899329871638 #
face $-1 $-1 $254 $34 $-1 $473 reversed single #
loop $-1 $-1 $250 $239 #
plane-surface $-1 0 -28.512782440704534 0 0 1 0 0 0 1 forward_v I I I I #
coedge $-1 $474 $475 $247 $368 forward $240 $-1 #
coedge $-1 $369 $242 $244 $364 reversed $147 $-1 #
edge $-1 $366 -5.9705180546339323 $255 0.26700120428153351 $253 $476 forward 7 unknown #
coedge $-1 $244 $243 $477 $478 reversed $93 $-1 #
coedge $-1 $373 $372 $243 $363 forward $356 $-1 #
edge $-1 $479 -56.292001098666347 $365 56.292001098666347 $362 $480 forward 7 unknown #
edge $-1 $481 -56.292001098666347 $366 56.292001098666347 $359 $482 forward 7 unknown #
vertex $-1 $363 $483 #
vertex $-1 $246 $484 #
straight-curve $-1 56.292001098666347 -11.483890084686429 -8.8222764798101316 0 1 0 I I #
edge $-1 $374 -17.028892356018105 $370 -5.9388878133547536 $358 $485 forward 7 unknown #
coedge $-1 $248 $359 $474 $486 reversed $147 $-1 #
vertex $-1 $368 $487 #
straight-curve $-1 0 -17.422777898041183 -2.5847572208946659 -1 0 0 I I #
coedge $-1 $362 $250 $475 $488 forward $356 $-1 #
coedge $-1 $250 $362 $252 $376 reversed $356 $-1 #
vertex $-1 $488 $489 #
straight-curve $-1 0 -28.512782440704534 -2.5847572208946659 -1 0 0 I I #
edge $-1 $256 2.5847572208946659 $365 8.8222764798101316 $252 $490 forward 7 unknown #
point $-1 56.292001098666347 -17.422777898041183 -2.5847572208946659 #
point $-1 56.292001098666347 -28.512782440704534 -2.5847572208946659 #
plane-surface $-1 0 0 14.173899329871638 0 0 1 1 0 0 forward_v I I I I #
coedge $-1 $390 $389 $382 $491 forward $259 $-1 #
coedge $-1 $382 $261 $263 $386 reversed $155 $-1 #
coedge $-1 $261 $381 $380 $491 reversed $155 $-1 #
coedge $-1 $269 $264 $261 $384 forward $270 $-1 #
edge $-1 $387 -21.831308942512663 $492 -2.5128210098011579 $383 $493 forward 7 unknown #
coedge $-1 $263 $262 $390 $494 reversed $97 $-1 #
edge $-1 $495 -8.4987301443310198e-015 $387 23.034656011337599 $381 $496 forward 7 unknown #
vertex $-1 $265 $497 #
straight-curve $-1 -36.973513165954834 -6.0330061222046734 14.173899329871638 0 1 0 I I #
coedge $-1 $380 $266 $269 $394 reversed $259 $-1 #
coedge $-1 $266 $380 $385 $494 forward $259 $-1 #
vertex $-1 $267 $498 #
straight-curve $-1 -56.292001098666347 -17.422777898041183 48.02460744313197 0 0 1 I I #
straight-curve $-1 -56.29200109866634 -17.422777898041183 1.6283263435815485 -0.83867056331134215 0 -0.54463904215088732 I I #
edge $-1 $492 6.7092465907775116 $271 17.422777898041183 $389 $499 forward 7 unknown #
point $-1 -56.292001098666347 -17.422777898041183 14.173899329871638 #
point $-1 -36.973513165954841 -17.422777898041183 14.173899329871638 #
edge $-1 $500 1 $500 0 $274 $-1 forward 7 unknown #
vertex $-1 $275 $501 #
ellipse-curve $-1 -45.150254213886562 -14.361768953108704 5.6182585764164212 -0.54463904215088732 0 0.83867056331134215 1.2580058449670133 0 0.81695856322633098 1 I I #
point $-1 -45.374751287343599 -14.361768953108704 8.7180713999529296 #
edge $-1 $502 1 $502 0 $278 $-1 forward 7 unknown #
vertex $-1 $279 $503 #
ellipse-curve $-1 -45.150254213886562 -9.7702555357099889 5.6182585764164212 -0.54463904215088732 0 0.83867056331134215 1.2580058449670133 0 0.81695856322633098 1 I I #
point $-1 -45.374751287343599 -9.7702555357099889 8.7180713999529296 #
loop $-1 $-1 $290 $282 #
plane-surface $-1 -56.292001098666347 0 0 1 0 0 0 0 -1 forward_v I I I I #
coedge $-1 $408 $285 $287 $412 reversed $177 $-1 #
coedge $-1 $285 $407 $504 $505 reversed $177 $-1 #
coedge $-1 $293 $288 $285 $410 forward $283 $-1 #
edge $-1 $413 -21.831308942512663 $506 -2.5128210098011579 $409 $507 forward 7 unknown #
coedge $-1 $287 $286 $416 $508 reversed $111 $-1 #
edge $-1 $509 -8.4987301443310198e-015 $413 23.034656011337599 $407 $510 forward 7 unknown #
vertex $-1 $289 $511 #
straight-curve $-1 -36.973513165954834 5.4508839624817575 14.173899329871638 0 1 0 I I #
coedge $-1 $504 $290 $293 $420 reversed $405 $-1 #
coedge $-1 $290 $504 $411 $508 forward $405 $-1 #
vertex $-1 $291 $512 #
straight-curve $-1 -56.292001098666347 5.54500227133168 48.02460744313197 0 0 1 I I #
straight-curve $-1 -56.29200109866634 5.54500227133168 1.6283263435815485 -0.83867056331134215 0 -0.54463904215088732 I I #
edge $-1 $506 -16.258533578595351 $294 -5.54500227133168 $415 $513 forward 7 unknown #
point $-1 -56.292001098666347 5.54500227133168 14.173899329871638 #
point $-1 -36.973513165954841 5.54500227133168 14.173899329871638 #
edge $-1 $514 1 $514 0 $297 $-1 forward 7 unknown #
vertex $-1 $298 $515 #
ellipse-curve $-1 -45.150254213886562 8.6060112162641573 5.6182585764164212 -0.54463904215088732 0 0.83867056331134215 1.2580058449670133 0 0.81695856322633098 1 I I #
point $-1 -45.374751287343599 8.6060112162641573 8.7180713999529296 #
edge $-1 $516 1 $516 0 $301 $-1 forward 7 unknown #
vertex $-1 $302 $517 #
ellipse-curve $-1 -45.150254213886562 13.197524633662873 5.6182585764164212 -0.54463904215088732 0 0.83867056331134215 1.2580058449670133 0 0.81695856322633098 1 I I #
point $-1 -45.374751287343599 13.197524633662873 8.7180713999529296 #
loop $-1 $-1 $313 $305 #
plane-surface $-1 0 28.512782440704534 0 0 -1 0 0 0 -1 forward_v I I I I #
coedge $-1 $518 $434 $312 $439 forward $306 $-1 #
coedge $-1 $433 $519 $309 $435 forward $306 $-1 #
edge $-1 $437 68.753012750535191 $444 75.104125416163669 $434 $520 forward 7 unknown #
coedge $-1 $316 $310 $519 $521 forward $199 $-1 #
vertex $-1 $521 $522 #
straight-curve $-1 18.444115561152344 18.189212849519357 14.173899329871631 1 0 0 I I #
edge $-1 $444 6.5137140269633846 $442 16.837283618148561 $433 $523 forward 7 unknown #
coedge $-1 $441 $313 $316 $446 reversed $431 $-1 #
coedge $-1 $313 $440 $518 $524 forward $431 $-1 #
vertex $-1 $314 $525 #
straight-curve $-1 -3.646663553638243 28.512782440704534 54.652004774825429 -0.78801074757464917 0 0.61566148304635926 I I #
vertex $-1 $439 $526 #
straight-curve $-1 -32.425402637799721 18.189212849519357 77.136420424347563 -0.78801074757464917 0 0.61566148304635926 I I #
edge $-1 $527 -56.292001098666347 $317 -48.162947751348426 $440 $528 forward 7 unknown #
point $-1 48.162947751348426 28.512782440704534 14.173899329871638 #
point $-1 48.162947751348426 18.189212849519357 14.173899329871638 #
edge $-1 $529 1 $529 0 $320 $-1 forward 7 unknown #
vertex $-1 $321 $530 #
ellipse-curve $-1 51.242025239460482 21.138804161286551 9.7370255835378359 0.61566148304635926 0 0.78801074757464917 0.39400537378732459 0 -0.30783074152317963 1 I I #
point $-1 52.621479798794716 21.138804161286551 10.690512255534212 #
edge $-1 $531 1 $531 0 $324 $-1 forward 7 unknown #
vertex $-1 $325 $532 #
ellipse-curve $-1 51.242025239460482 25.563191128937341 9.7370255835378359 0.61566148304635926 0 0.78801074757464917 0.39400537378732459 0 -0.30783074152317963 1 I I #
point $-1 52.621479798794716 25.563191128937341 10.690512255534212 #
plane-surface $-1 56.292001098666347 0 0 -1 0 0 0 0 1 forward_v I I I I #
coedge $-1 $333 $331 $335 $462 reversed $221 $-1 #
edge $-1 $346 -14.173899329871638 $464 14.173899329871638 $345 $533 forward 7 unknown #
vertex $-1 $462 $534 #
straight-curve $-1 -56.292001098666347 -28.512782440704534 0 0 0 -1 I I #
edge $-1 $460 -28.512782440704534 $464 28.512782440704534 $458 $535 forward 7 unknown #
straight-curve $-1 0 -28.512782440704534 -14.173899329871638 -1 0 0 I I #
vertex $-1 $338 $536 #
straight-curve $-1 0 28.512782440704534 -14.173899329871638 1 0 0 I I #
point $-1 56.292001098666347 28.512782440704534 -14.173899329871638 #
point $-1 56.292001098666347 -28.512782440704534 -14.173899329871638 #
straight-curve $-1 -56.292001098666347 0 14.173899329871638 0 -1 0 I I #
point $-1 -56.292001098666347 28.512782440704534 14.173899329871638 #
point $-1 -56.292001098666347 -28.512782440704534 14.173899329871638 #
straight-curve $-1 56.292001098666347 -28.512782440704534 0 0 0 -1 I I #
straight-curve $-1 56.292001098666347 28.512782440704534 0 0 0 -1 I I #
plane-surface $-1 56.292001098666347 0 0 -1 0 0 0 0 1 forward_v I I I I #
coedge $-1 $477 $358 $369 $486 forward $240 $-1 #
coedge $-1 $358 $477 $372 $488 reversed $240 $-1 #
straight-curve $-1 56.292001098666347 -17.422777898041183 -2.8517584251761994 0 0 1 I I #
coedge $-1 $475 $474 $361 $478 forward $240 $-1 #
edge $-1 $481 5.9388878133547536 $479 17.028892356018105 $477 $537 forward 7 unknown #
vertex $-1 $363 $538 #
straight-curve $-1 0 -28.512782440704534 -8.8222764798101316 1 0 0 I I #
vertex $-1 $478 $539 #
straight-curve $-1 0 -17.422777898041183 -8.8222764798101316 1 0 0 I I #
point $-1 56.292001098666347 -28.512782440704534 -8.8222764798101316 #
point $-1 56.292001098666347 -17.422777898041183 -8.8222764798101316 #
straight-curve $-1 -56.292001098666347 -11.483890084686429 -2.5847572208946659 0 1 0 I I #
edge $-1 $370 -0.26700120428153351 $481 5.9705180546339323 $474 $540 forward 7 unknown #
point $-1 -56.292001098666347 -17.422777898041183 -2.5847572208946659 #
edge $-1 $374 2.5847572208946659 $479 8.8222764798101316 $475 $541 forward 7 unknown #
point $-1 -56.292001098666347 -28.512782440704534 -2.5847572208946659 #
straight-curve $-1 56.292001098666347 -28.512782440704534 0 0 0 -1 I I #
edge $-1 $492 33.850708113260332 $495 46.396281099550428 $380 $542 forward 7 unknown #
vertex $-1 $394 $543 #
straight-curve $-1 -58.804822108467505 -6.7092465907775116 14.173899329871638 -1 0 0 I I #
edge $-1 $495 0.67624046857283826 $391 11.389771775836509 $390 $544 forward 7 unknown #
vertex $-1 $494 $545 #
straight-curve $-1 -56.29200109866634 -6.7092465907775116 1.6283263435815485 0.83867056331134215 0 0.54463904215088732 I I #
point $-1 -36.973513165954841 -6.7092465907775116 14.173899329871638 #
point $-1 -56.292001098666347 -17.422777898041183 1.6283263435815438 #
straight-curve $-1 -56.292001098666347 0 14.173899329871638 0 -1 0 I I #
vertex $-1 $397 $546 #
point $-1 -43.892248368919546 -14.361768953108704 6.4352171396427522 #
vertex $-1 $401 $547 #
point $-1 -43.892248368919546 -9.7702555357099889 6.4352171396427522 #
coedge $-1 $416 $415 $408 $505 forward $405 $-1 #
edge $-1 $506 33.850708113260332 $509 46.396281099550428 $504 $548 forward 7 unknown #
vertex $-1 $420 $549 #
straight-curve $-1 -58.804822108467505 16.258533578595351 14.173899329871638 -1 0 0 I I #
edge $-1 $509 -10.807649616113594 $417 -0.09411830884992245 $416 $550 forward 7 unknown #
vertex $-1 $508 $551 #
straight-curve $-1 -56.29200109866634 16.258533578595351 1.6283263435815485 0.83867056331134215 0 0.54463904215088732 I I #
point $-1 -36.973513165954841 16.258533578595351 14.173899329871638 #
point $-1 -56.292001098666347 5.54500227133168 1.6283263435815438 #
straight-curve $-1 -56.292001098666347 0 14.173899329871638 0 -1 0 I I #
vertex $-1 $423 $552 #
point $-1 -43.892248368919546 8.6060112162641573 6.4352171396427522 #
vertex $-1 $427 $553 #
point $-1 -43.892248368919546 13.197524633662873 6.4352171396427522 #
coedge $-1 $519 $433 $441 $524 reversed $306 $-1 #
coedge $-1 $434 $518 $436 $521 reversed $306 $-1 #
straight-curve $-1 56.292001098666347 18.189212849519357 82.926912080406822 0 0 -1 I I #
edge $-1 $437 18.189212849519357 $527 28.512782440704534 $519 $554 forward 7 unknown #
point $-1 56.292001098666347 18.189212849519357 14.173899329871638 #
straight-curve $-1 56.292001098666347 11.675498822555973 7.8227866642431465 0 1 0 I I #
edge $-1 $527 -14.173899329871638 $442 -7.8227866642431536 $518 $555 forward 7 unknown #
point $-1 56.292001098666347 28.512782440704534 7.8227866642431536 #
point $-1 56.292001098666347 18.189212849519357 7.8227866642431536 #
vertex $-1 $521 $556 #
straight-curve $-1 0 28.512782440704534 14.173899329871638 -1 0 0 I I #
vertex $-1 $449 $557 #
point $-1 51.636030613247804 21.138804161286551 9.4291948420146579 #
vertex $-1 $453 $558 #
point $-1 51.636030613247804 25.563191128937341 9.4291948420146579 #
straight-curve $-1 -56.292001098666347 28.512782440704534 0 0 0 -1 I I #
point $-1 -56.292001098666347 -28.512782440704534 -14.173899329871638 #
straight-curve $-1 -56.292001098666347 0 -14.173899329871638 0 1 0 I I #
point $-1 -56.292001098666347 28.512782440704534 -14.173899329871638 #
straight-curve $-1 -56.292001098666347 -11.483890084686429 -8.8222764798101316 0 -1 0 I I #
point $-1 -56.292001098666347 -28.512782440704534 -8.8222764798101316 #
point $-1 -56.292001098666347 -17.422777898041183 -8.8222764798101316 #
straight-curve $-1 -56.292001098666347 -17.422777898041183 -2.8517584251761994 0 0 -1 I I #
straight-curve $-1 -56.292001098666347 -28.512782440704534 0 0 0 -1 I I #
straight-curve $-1 -56.292001098666347 -6.7092465907775116 48.02460744313197 0 0 -1 I I #
point $-1 -56.292001098666347 -6.7092465907775116 14.173899329871638 #
straight-curve $-1 -56.292001098666347 -6.0330061222046734 1.6283263435815463 0 -1 0 I I #
point $-1 -56.292001098666347 -6.7092465907775116 1.6283263435815438 #
point $-1 -44.333295650660226 -14.361768953108704 4.3602527314494086 #
point $-1 -44.333295650660226 -9.7702555357099889 4.3602527314494086 #
straight-curve $-1 -56.292001098666347 16.258533578595351 48.02460744313197 0 0 -1 I I #
point $-1 -56.292001098666347 16.258533578595351 14.173899329871638 #
straight-curve $-1 -56.292001098666347 5.4508839624817575 1.6283263435815463 0 -1 0 I I #
point $-1 -56.292001098666347 16.258533578595351 1.6283263435815438 #
point $-1 -44.333295650660226 8.6060112162641573 4.3602527314494086 #
point $-1 -44.333295650660226 13.197524633662873 4.3602527314494086 #
straight-curve $-1 56.292001098666347 0 14.173899329871638 0 1 0 I I #
straight-curve $-1 56.292001098666347 28.512782440704534 0 0 0 -1 I I #
point $-1 56.292001098666347 28.512782440704534 14.173899329871638 #
point $-1 50.934194497937305 21.138804161286551 9.3430202097505131 #
point $-1 50.934194497937305 25.563191128937341 9.3430202097505131 #
End-of-ACIS-data 