500 0 9 0           
7 Unknown 11 ACIS 5.0 NT 24 Fri Mar 26 14:37:27 1999 
-1 9.9999999999999995e-007 1e-010 
body $-1 $9 $-1 $10 #
body $-1 $11 $-1 $12 #
body $-1 $13 $-1 $14 #
body $-1 $15 $-1 $16 #
body $-1 $17 $-1 $18 #
body $-1 $19 $-1 $20 #
body $-1 $21 $-1 $22 #
body $-1 $23 $-1 $24 #
body $-1 $25 $-1 $26 #
lump $-1 $-1 $27 $0 #
transform $-1 1 0 0 0 1 0 0 0 1 70.800500503555412 33.026260875171481 12.537823710764124 1 rotate no_reflect no_shear #
lump $-1 $-1 $28 $1 #
transform $-1 1 0 0 0 1 0 0 0 1 70.800500503555412 33.026260875171481 12.537823710764124 1 rotate no_reflect no_shear #
lump $-1 $-1 $29 $2 #
transform $-1 1 0 0 0 1 0 0 0 1 70.800500503555412 33.026260875171481 12.537823710764124 1 rotate no_reflect no_shear #
lump $-1 $-1 $30 $3 #
transform $-1 1 0 0 0 1 0 0 0 1 70.800500503555412 33.026260875171481 12.537823710764124 1 rotate no_reflect no_shear #
lump $-1 $-1 $31 $4 #
transform $-1 1 0 0 0 1 0 0 0 1 70.800500503555412 33.026260875171481 12.537823710764124 1 rotate no_reflect no_shear #
lump $-1 $-1 $32 $5 #
transform $-1 1 0 0 0 1 0 0 0 1 70.800500503555412 33.026260875171481 12.537823710764124 1 rotate no_reflect no_shear #
lump $-1 $-1 $33 $6 #
transform $-1 1 0 0 0 1 0 0 0 1 70.800500503555412 33.026260875171481 12.537823710764124 1 rotate no_reflect no_shear #
lump $-1 $-1 $34 $7 #
transform $-1 1 0 0 0 1 0 0 0 1 70.800500503555412 33.026260875171481 12.537823710764124 1 rotate no_reflect no_shear #
lump $-1 $-1 $35 $8 #
transform $-1 1 0 0 0 1 0 0 0 1 70.800500503555412 33.026260875171481 12.537823710764124 1 rotate no_reflect no_shear #
shell $-1 $-1 $-1 $36 $-1 $9 #
shell $-1 $-1 $-1 $37 $-1 $11 #
shell $-1 $-1 $-1 $38 $-1 $13 #
shell $-1 $-1 $-1 $39 $-1 $15 #
shell $-1 $-1 $-1 $40 $-1 $17 #
shell $-1 $-1 $-1 $41 $-1 $19 #
shell $-1 $-1 $-1 $42 $-1 $21 #
shell $-1 $-1 $-1 $43 $-1 $23 #
shell $-1 $-1 $-1 $44 $-1 $25 #
face $-1 $45 $46 $27 $-1 $47 forward single #
face $-1 $48 $49 $28 $-1 $50 forward single #
face $-1 $51 $52 $29 $-1 $53 reversed single #
face $-1 $54 $55 $30 $-1 $56 forward single #
face $-1 $57 $58 $31 $-1 $59 forward single #
face $-1 $60 $61 $32 $-1 $62 reversed single #
face $-1 $63 $64 $33 $-1 $65 forward single #
face $-1 $66 $67 $34 $-1 $68 forward single #
face $-1 $69 $70 $35 $-1 $71 forward single #
face $-1 $72 $73 $27 $-1 $74 reversed single #
loop $-1 $-1 $75 $36 #
plane-surface $-1 0 0 12.537823710764124 0 0 1 1 0 0 forward_v I I I I #
face $-1 $76 $77 $28 $-1 $78 reversed single #
loop $-1 $-1 $79 $37 #
plane-surface $-1 0 -26.635621127180837 -7.1303395881633147 0 0 1 1 0 0 forward_v I I I I #
face $-1 $80 $81 $29 $-1 $82 reversed single #
loop $-1 $-1 $83 $38 #
plane-surface $-1 53.347211565992311 13.940946912843714 207.56077123476891 0 -1 0 -0.64278761758704617 0 -0.76604443648966558 forward_v I I I I #
face $-1 $84 $85 $30 $-1 $86 forward single #
loop $-1 $87 $88 $39 #
cone-surface $-1 67.524214389582127 6.2191571918207345 9.5724231764566436 -0.64278761758704617 0 -0.76604443648966558 0.76604443648966558 0 -0.64278761758704617 1 I I 0 1 1 forward I I I I #
face $-1 $89 $90 $31 $-1 $91 forward single #
loop $-1 $92 $93 $40 #
cone-surface $-1 67.524214389582127 10.852231024434523 9.5724231764566436 -0.64278761758704617 0 -0.76604443648966558 0.76604443648966558 0 -0.64278761758704617 1 I I 0 1 1 forward I I I I #
face $-1 $94 $95 $32 $-1 $96 reversed single #
loop $-1 $-1 $97 $41 #
plane-surface $-1 -193.43056567230786 -17.060153692041268 74.899780546176359 0 1 0 -0.86602541151947299 0 0.49999998660252726 forward_v I I I I #
face $-1 $98 $99 $33 $-1 $100 forward single #
loop $-1 $101 $102 $42 #
cone-surface $-1 -67.761692422809972 -14.107816143357155 7.970519752501577 0.86602541151947299 0 -0.49999998660252726 0.49999998660252726 0 0.86602541151947299 1 I I 0 1 1 forward I I I I #
face $-1 $103 $104 $34 $-1 $105 forward single #
loop $-1 $106 $107 $43 #
cone-surface $-1 -67.761692422809972 -9.6793098203309853 7.970519752501577 0.86602541151947299 0 -0.49999998660252726 0.49999998660252726 0 0.86602541151947299 1 I I 0 1 1 forward I I I I #
face $-1 $108 $109 $35 $-1 $110 forward single #
loop $-1 $111 $112 $44 #
cone-surface $-1 -67.761692422809972 -5.2508034973048154 7.970519752501577 0.86602541151947299 0 -0.49999998660252726 0.49999998660252726 0 0.86602541151947299 1 I I 0 1 1 forward I I I I #
face $-1 $113 $114 $27 $-1 $115 reversed single #
loop $-1 $-1 $116 $45 #
plane-surface $-1 0 0 -12.537823710764124 0 0 1 1 0 0 forward_v I I I I #
coedge $-1 $117 $118 $119 $120 forward $46 $-1 #
face $-1 $121 $122 $28 $-1 $123 reversed single #
loop $-1 $-1 $124 $48 #
plane-surface $-1 0 -20.244981379190193 -9.8340816494637195 0 -1 0 0 0 -1 forward_v I I I I #
coedge $-1 $125 $126 $127 $128 reversed $49 $-1 #
face $-1 $129 $130 $29 $-1 $131 reversed single #
loop $-1 $-1 $132 $51 #
plane-surface $-1 -37.672158519309377 8.535694108127629 99.088112211904132 0.64278761758704617 0 0.76604443648966558 0.76604443648966558 0 -0.64278761758704617 forward_v I I I I #
coedge $-1 $133 $134 $135 $136 reversed $52 $-1 #
face $-1 $-1 $137 $30 $-1 $138 forward single #
loop $-1 $139 $140 $54 #
cone-surface $-1 66.589556427799124 6.2191571918207345 8.4585412159851838 -0.64278761758704617 0 -0.76604443648966558 0.38302221824483279 0 -0.32139380879352308 1 I I -0.70710678118654746 0.70710678118654746 0.5 forward I I I I #
loop $-1 $-1 $141 $39 #
coedge $-1 $88 $88 $142 $143 reversed $55 $-1 #
face $-1 $-1 $144 $31 $-1 $145 forward single #
loop $-1 $146 $147 $57 #
cone-surface $-1 66.589556427799124 10.852231024434523 8.4585412159851838 -0.64278761758704617 0 -0.76604443648966558 0.38302221824483279 0 -0.32139380879352308 1 I I -0.70710678118654746 0.70710678118654746 0.5 forward I I I I #
loop $-1 $-1 $148 $40 #
coedge $-1 $93 $93 $149 $150 reversed $58 $-1 #
face $-1 $151 $152 $32 $-1 $153 reversed single #
loop $-1 $-1 $154 $60 #
plane-surface $-1 -70.800500503555398 -9.6793098203309889 4.099281939716505 -0.86602541151947299 0 0.49999998660252726 0.49999998660252726 0 0.86602541151947299 forward_v I I I I #
coedge $-1 $155 $156 $157 $158 reversed $61 $-1 #
face $-1 $-1 $159 $33 $-1 $160 forward single #
loop $-1 $161 $162 $63 #
cone-surface $-1 -66.725868730816032 -14.107816143357155 7.3724866864615688 0.86602541151947299 0 -0.49999998660252726 0.24999999330126363 0 0.43301270575973649 1 I I -0.70710678118654746 0.70710678118654746 0.5 forward I I I I #
loop $-1 $-1 $163 $42 #
coedge $-1 $102 $102 $164 $165 reversed $64 $-1 #
face $-1 $-1 $166 $34 $-1 $167 forward single #
loop $-1 $168 $169 $66 #
cone-surface $-1 -66.725868730816032 -9.6793098203309853 7.3724866864615688 0.86602541151947299 0 -0.49999998660252726 0.24999999330126363 0 0.43301270575973649 1 I I -0.70710678118654746 0.70710678118654746 0.5 forward I I I I #
loop $-1 $-1 $170 $43 #
coedge $-1 $107 $107 $171 $172 reversed $67 $-1 #
face $-1 $-1 $173 $35 $-1 $174 forward single #
loop $-1 $175 $176 $69 #
cone-surface $-1 -66.725868730816032 -5.2508034973048154 7.3724866864615688 0.86602541151947299 0 -0.49999998660252726 0.24999999330126363 0 0.43301270575973649 1 I I -0.70710678118654746 0.70710678118654746 0.5 forward I I I I #
loop $-1 $-1 $177 $44 #
coedge $-1 $112 $112 $178 $179 reversed $70 $-1 #
face $-1 $180 $181 $27 $-1 $182 reversed single #
loop $-1 $-1 $183 $72 #
plane-surface $-1 0 -33.026260875171481 0 0 1 0 0 0 1 forward_v I I I I #
coedge $-1 $184 $185 $186 $187 forward $73 $-1 #
coedge $-1 $188 $75 $189 $190 forward $46 $-1 #
coedge $-1 $75 $188 $191 $192 forward $46 $-1 #
coedge $-1 $193 $194 $75 $120 reversed $195 $-1 #
edge $-1 $196 -33.026260875171481 $197 33.026260875171481 $119 $198 forward 7 unknown #
face $-1 $199 $200 $28 $-1 $201 reversed single #
loop $-1 $-1 $202 $76 #
plane-surface $-1 0 0 -12.537823710764124 0 0 1 1 0 0 forward_v I I I I #
coedge $-1 $203 $204 $205 $206 reversed $77 $-1 #
coedge $-1 $207 $79 $204 $208 forward $49 $-1 #
coedge $-1 $79 $207 $209 $210 reversed $49 $-1 #
coedge $-1 $211 $205 $79 $128 forward $200 $-1 #
edge $-1 $212 6.9271708155997747 $213 19.708450311581061 $127 $214 forward 7 unknown #
face $-1 $215 $216 $29 $-1 $217 reversed single #
loop $-1 $-1 $218 $80 #
plane-surface $-1 53.347211565992311 3.1304413034115441 207.56077123476891 0 1 0 0.64278761758704617 0 0.76604443648966558 forward_v I I I I #
coedge $-1 $219 $220 $221 $222 reversed $81 $-1 #
coedge $-1 $134 $83 $223 $224 reversed $52 $-1 #
coedge $-1 $83 $133 $219 $225 reversed $52 $-1 #
coedge $-1 $221 $226 $83 $136 forward $227 $-1 #
edge $-1 $228 -44.126894720559257 $229 -38.800850798591718 $135 $230 forward 7 unknown #
loop $-1 $-1 $142 $84 #
plane-surface $-1 -37.672158519309377 8.535694108127629 99.088112211904132 0.64278761758704617 0 0.76604443648966558 0.76604443648966558 0 -0.64278761758704617 forward_v I I I I #
loop $-1 $-1 $231 $54 #
coedge $-1 $140 $140 $141 $232 reversed $85 $-1 #
coedge $-1 $141 $141 $140 $232 forward $87 $-1 #
coedge $-1 $142 $142 $88 $143 forward $137 $-1 #
edge $-1 $233 0 $233 6.2831853071796004 $142 $234 forward 7 unknown #
loop $-1 $-1 $149 $89 #
plane-surface $-1 -37.672158519309377 8.535694108127629 99.088112211904132 0.64278761758704617 0 0.76604443648966558 0.76604443648966558 0 -0.64278761758704617 forward_v I I I I #
loop $-1 $-1 $235 $57 #
coedge $-1 $147 $147 $148 $236 reversed $90 $-1 #
coedge $-1 $148 $148 $147 $236 forward $92 $-1 #
coedge $-1 $149 $149 $93 $150 forward $144 $-1 #
edge $-1 $237 0 $237 6.2831853071796004 $149 $238 forward 7 unknown #
face $-1 $239 $240 $32 $-1 $241 forward single #
loop $-1 $-1 $242 $94 #
plane-surface $-1 -193.43056567230786 -2.2984659486207093 74.899780546176359 0 -1 0 0.86602541151947299 0 -0.49999998660252726 forward_v I I I I #
coedge $-1 $243 $244 $245 $246 reversed $95 $-1 #
coedge $-1 $156 $97 $247 $248 reversed $61 $-1 #
coedge $-1 $97 $155 $243 $249 reversed $61 $-1 #
coedge $-1 $245 $250 $97 $158 forward $240 $-1 #
edge $-1 $251 25.91478233259852 $252 30.786776521621022 $157 $253 forward 7 unknown #
loop $-1 $-1 $164 $98 #
plane-surface $-1 -70.800500503555398 -9.6793098203309889 4.099281939716505 -0.86602541151947299 0 0.49999998660252726 0.49999998660252726 0 0.86602541151947299 forward_v I I I I #
loop $-1 $-1 $254 $63 #
coedge $-1 $162 $162 $163 $255 reversed $99 $-1 #
coedge $-1 $163 $163 $162 $255 forward $101 $-1 #
coedge $-1 $164 $164 $102 $165 forward $159 $-1 #
edge $-1 $256 0 $256 6.2831853071796004 $164 $257 forward 7 unknown #
loop $-1 $-1 $171 $103 #
plane-surface $-1 -70.800500503555398 -9.6793098203309889 4.099281939716505 -0.86602541151947299 0 0.49999998660252726 0.49999998660252726 0 0.86602541151947299 forward_v I I I I #
loop $-1 $-1 $258 $66 #
coedge $-1 $169 $169 $170 $259 reversed $104 $-1 #
coedge $-1 $170 $170 $169 $259 forward $106 $-1 #
coedge $-1 $171 $171 $107 $172 forward $166 $-1 #
edge $-1 $260 0 $260 6.2831853071796004 $171 $261 forward 7 unknown #
loop $-1 $-1 $178 $108 #
plane-surface $-1 -70.800500503555398 -9.6793098203309889 4.099281939716505 -0.86602541151947299 0 0.49999998660252726 0.49999998660252726 0 0.86602541151947299 forward_v I I I I #
loop $-1 $-1 $262 $69 #
coedge $-1 $176 $176 $177 $263 reversed $109 $-1 #
coedge $-1 $177 $177 $176 $263 forward $111 $-1 #
coedge $-1 $178 $178 $112 $179 forward $173 $-1 #
edge $-1 $264 0 $264 6.2831853071796004 $178 $265 forward 7 unknown #
face $-1 $266 $267 $27 $-1 $268 reversed single #
loop $-1 $-1 $269 $113 #
plane-surface $-1 -70.800500503555412 0 0 1 0 0 0 0 -1 forward_v I I I I #
coedge $-1 $270 $191 $271 $272 forward $114 $-1 #
coedge $-1 $273 $116 $270 $274 forward $73 $-1 #
coedge $-1 $116 $273 $275 $276 forward $73 $-1 #
coedge $-1 $194 $193 $116 $187 reversed $195 $-1 #
edge $-1 $277 -33.026260875171481 $278 33.026260875171481 $186 $279 forward 7 unknown #
coedge $-1 $118 $117 $280 $281 forward $46 $-1 #
coedge $-1 $282 $283 $117 $190 reversed $267 $-1 #
edge $-1 $197 -70.800500503555412 $284 70.800500503555412 $189 $285 forward 7 unknown #
coedge $-1 $183 $286 $118 $192 reversed $114 $-1 #
edge $-1 $287 -70.800500503555412 $196 70.800500503555412 $191 $288 forward 7 unknown #
coedge $-1 $186 $119 $286 $289 forward $195 $-1 #
coedge $-1 $119 $186 $282 $290 reversed $195 $-1 #
loop $-1 $-1 $193 $266 #
vertex $-1 $120 $291 #
vertex $-1 $120 $292 #
straight-curve $-1 70.800500503555412 0 12.537823710764124 0 1 0 I I #
face $-1 $293 $294 $28 $-1 $295 reversed single #
loop $-1 $-1 $205 $121 #
plane-surface $-1 70.800500503555412 0 0 -1 0 0 0 0 1 forward_v I I I I #
coedge $-1 $296 $297 $203 $298 forward $122 $-1 #
coedge $-1 $299 $124 $202 $298 reversed $77 $-1 #
coedge $-1 $124 $299 $125 $208 reversed $77 $-1 #
coedge $-1 $127 $300 $124 $206 forward $200 $-1 #
edge $-1 $301 -7.6207828860322646 $212 -2.2132987634314549 $205 $302 forward 7 unknown #
coedge $-1 $126 $125 $303 $304 reversed $49 $-1 #
edge $-1 $212 -70.800500503555412 $305 70.800500503555412 $204 $306 forward 7 unknown #
coedge $-1 $307 $308 $126 $210 forward $294 $-1 #
edge $-1 $213 -70.800500503555412 $309 70.800500503555412 $209 $310 forward 7 unknown #
coedge $-1 $300 $127 $308 $311 forward $200 $-1 #
vertex $-1 $128 $312 #
vertex $-1 $311 $313 #
straight-curve $-1 70.800500503555412 -13.317810563590418 -7.1303395881633147 0 -1 0 I I #
face $-1 $-1 $227 $29 $-1 $314 forward single #
loop $-1 $-1 $315 $129 #
plane-surface $-1 70.800500503555412 0 0 -1 0 0 0 0 1 forward_v I I I I #
coedge $-1 $316 $317 $318 $319 reversed $130 $-1 #
coedge $-1 $320 $132 $134 $225 forward $81 $-1 #
coedge $-1 $132 $320 $316 $321 forward $81 $-1 #
coedge $-1 $318 $135 $132 $222 forward $227 $-1 #
edge $-1 $229 -9.6730998587798993 $322 1.1374057506522703 $221 $323 forward 7 unknown #
coedge $-1 $324 $325 $133 $224 forward $216 $-1 #
edge $-1 $326 -95.711643490782009 $228 -91.242561906620324 $223 $327 forward 7 unknown #
edge $-1 $229 134.64834438790257 $326 141.60100100711082 $134 $328 forward 7 unknown #
coedge $-1 $135 $318 $324 $329 forward $227 $-1 #
loop $-1 $-1 $318 $215 #
vertex $-1 $224 $330 #
vertex $-1 $136 $331 #
straight-curve $-1 26.673605782996155 13.940946912843714 12.53782371076413 -1 0 0 I I #
coedge $-1 $231 $231 $-1 $332 reversed $139 $-1 #
edge $-1 $333 0 $333 6.2831853071796004 $140 $334 forward 7 unknown #
vertex $-1 $143 $335 #
ellipse-curve $-1 68.137478542571628 6.2191571918207345 10.303282918683294 0.64278761758704617 0 0.76604443648966558 0.76604443648966558 0 -0.64278761758704617 1 I I #
coedge $-1 $235 $235 $-1 $336 reversed $146 $-1 #
edge $-1 $337 0 $337 6.2831853071796004 $147 $338 forward 7 unknown #
vertex $-1 $150 $339 #
ellipse-curve $-1 68.137478542571628 10.852231024434523 10.303282918683294 0.64278761758704617 0 0.76604443648966558 0.76604443648966558 0 -0.64278761758704617 1 I I #
face $-1 $-1 $340 $32 $-1 $341 reversed single #
loop $-1 $-1 $157 $151 #
plane-surface $-1 0 0 12.537823710764124 0 0 1 1 0 0 forward_v I I I I #
coedge $-1 $342 $343 $344 $345 reversed $152 $-1 #
coedge $-1 $346 $154 $156 $249 forward $95 $-1 #
coedge $-1 $154 $346 $342 $347 forward $95 $-1 #
coedge $-1 $344 $157 $154 $246 forward $240 $-1 #
edge $-1 $252 -12.220498781875774 $348 2.5411889615447851 $245 $349 forward 7 unknown #
coedge $-1 $350 $351 $155 $248 forward $340 $-1 #
edge $-1 $352 -33.350608333371696 $251 -24.912066562324057 $247 $353 forward 7 unknown #
edge $-1 $252 -9.7439886391346118 $352 2.8642609447069912e-014 $156 $354 forward 7 unknown #
coedge $-1 $157 $344 $350 $355 forward $240 $-1 #
vertex $-1 $248 $356 #
vertex $-1 $158 $357 #
straight-curve $-1 -96.715282836153932 -17.060153692041268 12.537823710764123 1 0 0 I I #
coedge $-1 $254 $254 $-1 $358 reversed $161 $-1 #
edge $-1 $359 0 $359 6.2831853071796004 $162 $360 forward 7 unknown #
vertex $-1 $165 $361 #
ellipse-curve $-1 -68.364503409044161 -14.107816143357155 8.318552825240312 -0.86602541151947299 0 0.49999998660252726 0.49999998660252726 0 0.86602541151947299 1 I I #
coedge $-1 $258 $258 $-1 $362 reversed $168 $-1 #
edge $-1 $363 0 $363 6.2831853071796004 $169 $364 forward 7 unknown #
vertex $-1 $172 $365 #
ellipse-curve $-1 -68.364503409044161 -9.6793098203309853 8.318552825240312 -0.86602541151947299 0 0.49999998660252726 0.49999998660252726 0 0.86602541151947299 1 I I #
coedge $-1 $262 $262 $-1 $366 reversed $175 $-1 #
edge $-1 $367 0 $367 6.2831853071796004 $176 $368 forward 7 unknown #
vertex $-1 $179 $369 #
ellipse-curve $-1 -68.364503409044161 -5.2508034973048154 8.318552825240312 -0.86602541151947299 0 0.49999998660252726 0.49999998660252726 0 0.86602541151947299 1 I I #
face $-1 $-1 $195 $27 $-1 $370 reversed single #
loop $-1 $-1 $282 $180 #
plane-surface $-1 0 33.026260875171481 0 0 -1 0 0 0 -1 forward_v I I I I #
coedge $-1 $371 $280 $283 $372 forward $181 $-1 #
coedge $-1 $286 $183 $184 $274 reversed $114 $-1 #
coedge $-1 $280 $371 $183 $272 reversed $181 $-1 #
edge $-1 $287 -12.537823710764124 $373 12.537823710764124 $271 $374 forward 7 unknown #
coedge $-1 $185 $184 $371 $375 forward $73 $-1 #
edge $-1 $278 -70.800500503555412 $373 70.800500503555412 $270 $376 forward 7 unknown #
coedge $-1 $283 $282 $185 $276 reversed $267 $-1 #
edge $-1 $377 -70.800500503555412 $277 70.800500503555412 $275 $378 forward 7 unknown #
vertex $-1 $187 $379 #
vertex $-1 $289 $380 #
straight-curve $-1 70.800500503555412 0 -12.537823710764124 0 -1 0 I I #
coedge $-1 $269 $271 $188 $281 reversed $181 $-1 #
edge $-1 $284 -33.026260875171481 $287 33.026260875171481 $280 $381 forward 7 unknown #
coedge $-1 $275 $189 $194 $290 forward $267 $-1 #
coedge $-1 $189 $275 $269 $372 reversed $267 $-1 #
vertex $-1 $190 $382 #
straight-curve $-1 0 33.026260875171481 12.537823710764124 -1 0 0 I I #
coedge $-1 $191 $270 $193 $289 reversed $114 $-1 #
vertex $-1 $281 $383 #
straight-curve $-1 0 -33.026260875171481 12.537823710764124 1 0 0 I I #
edge $-1 $196 -12.537823710764124 $278 12.537823710764124 $193 $384 forward 7 unknown #
edge $-1 $197 -12.537823710764124 $277 12.537823710764124 $194 $385 forward 7 unknown #
point $-1 70.800500503555412 -33.026260875171481 12.537823710764124 #
point $-1 70.800500503555412 33.026260875171481 12.537823710764124 #
face $-1 $-1 $386 $28 $-1 $387 reversed single #
loop $-1 $-1 $209 $199 #
plane-surface $-1 0 -33.026260875171481 0 0 1 0 0 0 1 forward_v I I I I #
coedge $-1 $388 $202 $300 $389 forward $122 $-1 #
coedge $-1 $202 $388 $390 $391 forward $122 $-1 #
edge $-1 $392 -70.800500503555412 $301 70.800500503555412 $202 $393 forward 7 unknown #
coedge $-1 $204 $203 $394 $395 reversed $77 $-1 #
coedge $-1 $205 $211 $296 $389 reversed $200 $-1 #
vertex $-1 $389 $396 #
straight-curve $-1 70.800500503555412 -20.244981379190193 -4.9170408247318598 0 0 1 I I #
coedge $-1 $394 $397 $207 $304 forward $386 $-1 #
edge $-1 $309 -19.708450311581061 $305 -6.9271708155997747 $303 $398 forward 7 unknown #
vertex $-1 $304 $399 #
straight-curve $-1 0 -20.244981379190193 -7.1303395881633147 -1 0 0 I I #
coedge $-1 $400 $209 $397 $401 forward $294 $-1 #
coedge $-1 $209 $400 $211 $311 reversed $294 $-1 #
vertex $-1 $401 $402 #
straight-curve $-1 0 -33.026260875171481 -7.1303395881633147 -1 0 0 I I #
edge $-1 $213 7.1303395881633147 $403 12.537823710764124 $211 $404 forward 7 unknown #
point $-1 70.800500503555412 -20.244981379190193 -7.1303395881633147 #
point $-1 70.800500503555412 -33.026260875171481 -7.1303395881633147 #
plane-surface $-1 0 0 12.537823710764124 0 0 1 1 0 0 forward_v I I I I #
coedge $-1 $325 $324 $317 $405 forward $216 $-1 #
coedge $-1 $317 $218 $220 $321 reversed $130 $-1 #
coedge $-1 $218 $316 $315 $405 reversed $130 $-1 #
coedge $-1 $226 $221 $218 $319 forward $227 $-1 #
edge $-1 $322 38.800850798591718 $406 44.126894720559257 $318 $407 forward 7 unknown #
coedge $-1 $220 $219 $325 $408 reversed $81 $-1 #
edge $-1 $409 -141.60100100711082 $322 -134.64834438790257 $316 $410 forward 7 unknown #
vertex $-1 $222 $411 #
straight-curve $-1 65.474456581587845 4.2678470540638145 12.53782371076413 0 -1 0 I I #
coedge $-1 $315 $223 $226 $329 reversed $216 $-1 #
coedge $-1 $223 $315 $320 $408 forward $216 $-1 #
vertex $-1 $224 $412 #
straight-curve $-1 70.800500503555412 13.940946912843714 103.78038561738445 0 0 1 I I #
straight-curve $-1 -37.672158519309377 13.940946912843714 99.088112211904132 0.76604443648966558 0 -0.64278761758704617 I I #
edge $-1 $406 3.1304413034115441 $228 13.940946912843714 $324 $413 forward 7 unknown #
point $-1 70.800500503555412 13.940946912843714 12.537823710764124 #
point $-1 65.474456581587873 13.940946912843714 12.537823710764116 #
edge $-1 $414 1 $414 0 $231 $-1 forward 7 unknown #
vertex $-1 $232 $415 #
ellipse-curve $-1 66.91095023659264 6.2191571918207345 8.8415634342300162 0.64278761758704617 0 0.76604443648966558 0.76604443648966558 0 -0.64278761758704617 1 I I #
point $-1 68.903522979061265 6.2191571918207345 9.6604953010962245 #
edge $-1 $416 1 $416 0 $235 $-1 forward 7 unknown #
vertex $-1 $236 $417 #
ellipse-curve $-1 66.91095023659264 10.852231024434523 8.8415634342300162 0.64278761758704617 0 0.76604443648966558 0.76604443648966558 0 -0.64278761758704617 1 I I #
point $-1 68.903522979061265 10.852231024434523 9.6604953010962245 #
loop $-1 $-1 $247 $239 #
plane-surface $-1 -70.800500503555412 0 0 1 0 0 0 0 -1 forward_v I I I I #
coedge $-1 $343 $242 $244 $347 reversed $152 $-1 #
coedge $-1 $242 $342 $418 $419 reversed $152 $-1 #
coedge $-1 $250 $245 $242 $345 forward $240 $-1 #
edge $-1 $348 -30.786776521621022 $420 -25.91478233259852 $344 $421 forward 7 unknown #
coedge $-1 $244 $243 $351 $422 reversed $95 $-1 #
edge $-1 $423 -2.8642609447069912e-014 $348 9.7439886391346118 $342 $424 forward 7 unknown #
vertex $-1 $246 $425 #
straight-curve $-1 -65.92850631453291 -4.8396549101654944 12.537823710764124 0 1 0 I I #
coedge $-1 $418 $247 $250 $355 reversed $340 $-1 #
coedge $-1 $247 $418 $346 $422 forward $340 $-1 #
vertex $-1 $248 $426 #
straight-curve $-1 -70.800500503555412 -17.060153692041268 37.44989027308818 0 0 1 I I #
straight-curve $-1 -70.800500503555398 -17.060153692041268 4.099281939716505 -0.49999998660252726 0 -0.86602541151947299 I I #
edge $-1 $420 2.2984659486207093 $251 17.060153692041268 $350 $427 forward 7 unknown #
point $-1 -70.800500503555412 -17.060153692041268 12.537823710764124 #
point $-1 -65.92850631453291 -17.060153692041268 12.537823710764124 #
edge $-1 $428 1 $428 0 $254 $-1 forward 7 unknown #
vertex $-1 $255 $429 #
ellipse-curve $-1 -67.158881436575768 -14.107816143357155 7.6224866797628321 -0.86602541151947299 0 0.49999998660252726 0.49999998660252726 0 0.86602541151947299 1 I I #
point $-1 -67.864503422441643 -14.107816143357155 9.1845782367597941 #
edge $-1 $430 1 $430 0 $258 $-1 forward 7 unknown #
vertex $-1 $259 $431 #
ellipse-curve $-1 -67.158881436575768 -9.6793098203309853 7.6224866797628321 -0.86602541151947299 0 0.49999998660252726 0.49999998660252726 0 0.86602541151947299 1 I I #
point $-1 -67.864503422441643 -9.6793098203309853 9.1845782367597941 #
edge $-1 $432 1 $432 0 $262 $-1 forward 7 unknown #
vertex $-1 $263 $433 #
ellipse-curve $-1 -67.158881436575768 -5.2508034973048154 7.6224866797628321 -0.86602541151947299 0 0.49999998660252726 0.49999998660252726 0 0.86602541151947299 1 I I #
point $-1 -67.864503422441643 -5.2508034973048154 9.1845782367597941 #
plane-surface $-1 70.800500503555412 0 0 -1 0 0 0 0 1 forward_v I I I I #
coedge $-1 $271 $269 $273 $375 reversed $181 $-1 #
edge $-1 $284 -12.537823710764124 $377 12.537823710764124 $283 $434 forward 7 unknown #
vertex $-1 $375 $435 #
straight-curve $-1 -70.800500503555412 -33.026260875171481 0 0 0 -1 I I #
edge $-1 $373 -33.026260875171481 $377 33.026260875171481 $371 $436 forward 7 unknown #
straight-curve $-1 0 -33.026260875171481 -12.537823710764124 -1 0 0 I I #
vertex $-1 $276 $437 #
straight-curve $-1 0 33.026260875171481 -12.537823710764124 1 0 0 I I #
point $-1 70.800500503555412 33.026260875171481 -12.537823710764124 #
point $-1 70.800500503555412 -33.026260875171481 -12.537823710764124 #
straight-curve $-1 -70.800500503555412 0 12.537823710764124 0 -1 0 I I #
point $-1 -70.800500503555412 33.026260875171481 12.537823710764124 #
point $-1 -70.800500503555412 -33.026260875171481 12.537823710764124 #
straight-curve $-1 70.800500503555412 -33.026260875171481 0 0 0 -1 I I #
straight-curve $-1 70.800500503555412 33.026260875171481 0 0 0 -1 I I #
loop $-1 $-1 $394 $293 #
plane-surface $-1 -70.800500503555412 0 0 1 0 0 0 0 -1 forward_v I I I I #
coedge $-1 $297 $296 $400 $438 forward $122 $-1 #
edge $-1 $301 20.244981379190193 $403 33.026260875171481 $300 $439 forward 7 unknown #
coedge $-1 $397 $394 $297 $391 reversed $386 $-1 #
edge $-1 $440 -33.026260875171481 $392 -20.244981379190193 $390 $441 forward 7 unknown #
vertex $-1 $395 $442 #
straight-curve $-1 0 -20.244981379190193 -12.537823710764124 1 0 0 I I #
coedge $-1 $390 $303 $299 $395 forward $386 $-1 #
edge $-1 $305 2.2132987634314549 $392 7.6207828860322646 $394 $443 forward 7 unknown #
point $-1 70.800500503555412 -20.244981379190193 -12.537823710764124 #
coedge $-1 $303 $390 $307 $401 reversed $386 $-1 #
straight-curve $-1 -70.800500503555412 -13.317810563590418 -7.1303395881633147 0 1 0 I I #
point $-1 -70.800500503555412 -20.244981379190193 -7.1303395881633147 #
coedge $-1 $308 $307 $388 $438 reversed $294 $-1 #
edge $-1 $309 7.1303395881633147 $440 12.537823710764124 $397 $444 forward 7 unknown #
point $-1 -70.800500503555412 -33.026260875171481 -7.1303395881633147 #
vertex $-1 $311 $445 #
straight-curve $-1 70.800500503555412 -33.026260875171481 0 0 0 -1 I I #
edge $-1 $406 91.242561906620324 $409 95.711643490782009 $315 $446 forward 7 unknown #
vertex $-1 $329 $447 #
straight-curve $-1 26.673605782996155 3.1304413034115441 12.53782371076413 1 0 0 I I #
edge $-1 $409 -1.1374057506522703 $326 9.6730998587798993 $325 $448 forward 7 unknown #
vertex $-1 $408 $449 #
straight-curve $-1 -37.672158519309377 3.1304413034115441 99.088112211904132 -0.76604443648966558 0 0.64278761758704617 I I #
point $-1 65.474456581587873 3.1304413034115441 12.537823710764116 #
point $-1 70.800500503555398 13.940946912843714 8.0687421266024444 #
straight-curve $-1 70.800500503555412 0 12.537823710764124 0 1 0 I I #
vertex $-1 $332 $450 #
point $-1 67.676994673082319 6.2191571918207345 8.1987758166429696 #
vertex $-1 $336 $451 #
point $-1 67.676994673082319 10.852231024434523 8.1987758166429696 #
coedge $-1 $351 $350 $343 $419 forward $340 $-1 #
edge $-1 $420 24.912066562324057 $423 33.350608333371696 $418 $452 forward 7 unknown #
vertex $-1 $355 $453 #
straight-curve $-1 -96.715282836153932 -2.2984659486207093 12.537823710764123 -1 0 0 I I #
edge $-1 $423 -2.5411889615447851 $352 12.220498781875774 $351 $454 forward 7 unknown #
vertex $-1 $422 $455 #
straight-curve $-1 -70.800500503555398 -2.2984659486207093 4.099281939716505 0.49999998660252726 0 0.86602541151947299 I I #
point $-1 -65.92850631453291 -2.2984659486207093 12.537823710764124 #
point $-1 -70.800500503555412 -17.060153692041268 4.0992819397164801 #
straight-curve $-1 -70.800500503555412 0 12.537823710764124 0 -1 0 I I #
vertex $-1 $358 $456 #
point $-1 -66.658881449973236 -14.107816143357155 8.4885120912823062 #
vertex $-1 $362 $457 #
point $-1 -66.658881449973236 -9.6793098203309853 8.4885120912823062 #
vertex $-1 $366 $458 #
point $-1 -66.658881449973236 -5.2508034973048154 8.4885120912823062 #
straight-curve $-1 -70.800500503555412 33.026260875171481 0 0 0 -1 I I #
point $-1 -70.800500503555412 -33.026260875171481 -12.537823710764124 #
straight-curve $-1 -70.800500503555412 0 -12.537823710764124 0 1 0 I I #
point $-1 -70.800500503555412 33.026260875171481 -12.537823710764124 #
edge $-1 $403 -70.800500503555412 $440 70.800500503555412 $400 $459 forward 7 unknown #
straight-curve $-1 70.800500503555412 0 -12.537823710764124 0 -1 0 I I #
vertex $-1 $391 $460 #
straight-curve $-1 -70.800500503555412 0 -12.537823710764124 0 1 0 I I #
point $-1 -70.800500503555412 -20.244981379190193 -12.537823710764124 #
straight-curve $-1 -70.800500503555412 -20.244981379190193 -4.9170408247318598 0 0 -1 I I #
straight-curve $-1 -70.800500503555412 -33.026260875171481 0 0 0 -1 I I #
point $-1 70.800500503555412 -33.026260875171481 -12.537823710764124 #
straight-curve $-1 70.800500503555412 3.1304413034115441 103.78038561738445 0 0 -1 I I #
point $-1 70.800500503555412 3.1304413034115441 12.537823710764124 #
straight-curve $-1 70.800500503555398 4.2678470540638145 8.0687421266024373 0 1 0 I I #
point $-1 70.800500503555398 3.1304413034115441 8.0687421266024444 #
point $-1 66.268162619005608 6.2191571918207345 8.0755189977403514 #
point $-1 66.268162619005608 10.852231024434523 8.0755189977403514 #
straight-curve $-1 -70.800500503555412 -2.2984659486207093 37.44989027308818 0 0 -1 I I #
point $-1 -70.800500503555412 -2.2984659486207093 12.537823710764124 #
straight-curve $-1 -70.800500503555412 -4.8396549101654944 4.0992819397164855 0 -1 0 I I #
point $-1 -70.800500503555412 -2.2984659486207093 4.0992819397164801 #
point $-1 -66.292856025056295 -14.107816143357155 7.1224866931603055 #
point $-1 -66.292856025056295 -9.6793098203309853 7.1224866931603055 #
point $-1 -66.292856025056295 -5.2508034973048154 7.1224866931603055 #
straight-curve $-1 0 -33.026260875171481 -12.537823710764124 -1 0 0 I I #
point $-1 -70.800500503555412 -33.026260875171481 -12.537823710764124 #
End-of-ACIS-data 