500 0 6 0           
7 Unknown 11 ACIS 5.0 NT 24 Fri Mar 26 20:31:14 1999 
-1 9.9999999999999995e-007 1e-010 
body $-1 $6 $-1 $7 #
body $-1 $8 $-1 $9 #
body $-1 $10 $-1 $11 #
body $-1 $12 $-1 $13 #
body $-1 $14 $-1 $15 #
body $-1 $16 $-1 $17 #
lump $-1 $-1 $18 $0 #
transform $-1 1 0 0 0 1 0 0 0 1 55.317850276192509 30.11106227381724 11.450143346598413 1 rotate no_reflect no_shear #
lump $-1 $-1 $19 $1 #
transform $-1 1 0 0 0 1 0 0 0 1 55.317850276192509 30.11106227381724 11.450143346598413 1 rotate no_reflect no_shear #
lump $-1 $-1 $20 $2 #
transform $-1 1 0 0 0 1 0 0 0 1 55.317850276192509 30.11106227381724 11.450143346598413 1 rotate no_reflect no_shear #
lump $-1 $-1 $21 $3 #
transform $-1 1 0 0 0 1 0 0 0 1 55.317850276192509 30.11106227381724 11.450143346598413 1 rotate no_reflect no_shear #
lump $-1 $-1 $22 $4 #
transform $-1 1 0 0 0 1 0 0 0 1 55.317850276192509 30.11106227381724 11.450143346598413 1 rotate no_reflect no_shear #
lump $-1 $-1 $23 $5 #
transform $-1 1 0 0 0 1 0 0 0 1 55.317850276192509 30.11106227381724 11.450143346598413 1 rotate no_reflect no_shear #
shell $-1 $-1 $-1 $24 $-1 $6 #
shell $-1 $-1 $-1 $25 $-1 $8 #
shell $-1 $-1 $-1 $26 $-1 $10 #
shell $-1 $-1 $-1 $27 $-1 $12 #
shell $-1 $-1 $-1 $28 $-1 $14 #
shell $-1 $-1 $-1 $29 $-1 $16 #
face $-1 $30 $31 $18 $-1 $32 forward single #
face $-1 $33 $34 $19 $-1 $35 forward single #
face $-1 $36 $37 $20 $-1 $38 reversed single #
face $-1 $39 $40 $21 $-1 $41 forward single #
face $-1 $42 $43 $22 $-1 $44 forward single #
face $-1 $45 $46 $23 $-1 $47 forward single #
face $-1 $48 $49 $18 $-1 $50 reversed single #
loop $-1 $-1 $51 $24 #
plane-surface $-1 0 0 11.450143346598413 0 0 1 1 0 0 forward_v I I I I #
face $-1 $52 $53 $19 $-1 $54 forward single #
loop $-1 $-1 $55 $25 #
plane-surface $-1 0 -30.11106227381724 0 0 1 0 0 0 1 forward_v I I I I #
face $-1 $56 $57 $20 $-1 $58 reversed single #
loop $-1 $-1 $59 $26 #
plane-surface $-1 3.416353409988961 86.19653256457778 118.74858898063918 1 0 0 0 -0.81915205242281985 -0.57357642473473569 forward_v I I I I #
face $-1 $60 $61 $21 $-1 $62 forward single #
loop $-1 $63 $64 $27 #
cone-surface $-1 8.351555841380268 26.727827195769144 7.6818558956325917 0 -0.81915205242281985 -0.57357642473473569 1 0 0 1 I I 0 1 1 forward I I I I #
face $-1 $65 $66 $22 $-1 $67 forward single #
loop $-1 $68 $69 $28 #
cone-surface $-1 15.754359488467237 26.727827195769144 7.6818558956325917 0 -0.81915205242281985 -0.57357642473473569 1 0 0 1 I I 0 1 1 forward I I I I #
face $-1 $70 $71 $23 $-1 $72 forward single #
loop $-1 $73 $74 $29 #
cone-surface $-1 23.157163135554207 26.727827195769144 7.6818558956325917 0 -0.81915205242281985 -0.57357642473473569 1 0 0 1 I I 0 1 1 forward I I I I #
face $-1 $75 $76 $18 $-1 $77 reversed single #
loop $-1 $-1 $78 $30 #
plane-surface $-1 0 0 -11.450143346598413 0 0 1 1 0 0 forward_v I I I I #
coedge $-1 $79 $80 $81 $82 forward $31 $-1 #
face $-1 $83 $84 $19 $-1 $85 reversed single #
loop $-1 $-1 $86 $33 #
plane-surface $-1 0 0 11.450143346598413 0 0 1 1 0 0 forward_v I I I I #
coedge $-1 $87 $88 $89 $90 forward $34 $-1 #
face $-1 $91 $92 $20 $-1 $93 reversed single #
loop $-1 $-1 $94 $36 #
plane-surface $-1 15.754359488467237 -4.4309286141449178 55.290559409779362 0 0.81915205242281985 0.57357642473473569 1 0 0 forward_v I I I I #
coedge $-1 $95 $96 $97 $98 reversed $37 $-1 #
face $-1 $-1 $99 $21 $-1 $100 forward single #
loop $-1 $101 $102 $39 #
cone-surface $-1 8.351555841380268 24.857317095900179 6.3721106629376614 0 -0.81915205242281985 -0.57357642473473569 0.5 0 0 1 I I -0.70710678118654746 0.70710678118654746 0.5 forward I I I I #
loop $-1 $-1 $103 $27 #
coedge $-1 $64 $64 $104 $105 reversed $40 $-1 #
face $-1 $-1 $106 $22 $-1 $107 forward single #
loop $-1 $108 $109 $42 #
cone-surface $-1 15.754359488467237 24.857317095900179 6.3721106629376614 0 -0.81915205242281985 -0.57357642473473569 0.5 0 0 1 I I -0.70710678118654746 0.70710678118654746 0.5 forward I I I I #
loop $-1 $-1 $110 $28 #
coedge $-1 $69 $69 $111 $112 reversed $43 $-1 #
face $-1 $-1 $113 $23 $-1 $114 forward single #
loop $-1 $115 $116 $45 #
cone-surface $-1 23.157163135554207 24.857317095900179 6.3721106629376614 0 -0.81915205242281985 -0.57357642473473569 0.5 0 0 1 I I -0.70710678118654746 0.70710678118654746 0.5 forward I I I I #
loop $-1 $-1 $117 $29 #
coedge $-1 $74 $74 $118 $119 reversed $46 $-1 #
face $-1 $120 $121 $18 $-1 $122 reversed single #
loop $-1 $-1 $123 $48 #
plane-surface $-1 0 -30.11106227381724 0 0 1 0 0 0 1 forward_v I I I I #
coedge $-1 $124 $125 $126 $127 forward $49 $-1 #
coedge $-1 $128 $51 $129 $130 forward $31 $-1 #
coedge $-1 $51 $128 $131 $132 forward $31 $-1 #
coedge $-1 $133 $134 $51 $82 reversed $135 $-1 #
edge $-1 $136 -30.11106227381724 $137 30.11106227381724 $81 $138 forward 7 unknown #
face $-1 $139 $140 $19 $-1 $141 reversed single #
loop $-1 $-1 $142 $52 #
plane-surface $-1 -55.317850276192509 0 0 1 0 0 0 0 -1 forward_v I I I I #
coedge $-1 $143 $144 $88 $145 forward $53 $-1 #
coedge $-1 $146 $55 $147 $148 reversed $34 $-1 #
coedge $-1 $55 $146 $86 $145 reversed $34 $-1 #
coedge $-1 $149 $150 $55 $90 reversed $151 $-1 #
edge $-1 $152 -11.450143346598413 $153 11.450143346598413 $89 $154 forward 7 unknown #
face $-1 $155 $156 $20 $-1 $157 reversed single #
loop $-1 $-1 $158 $56 #
plane-surface $-1 28.092365566945514 86.19653256457778 118.74858898063918 -1 0 0 0 0.81915205242281985 0.57357642473473569 forward_v I I I I #
coedge $-1 $159 $160 $161 $162 reversed $57 $-1 #
coedge $-1 $96 $59 $163 $164 reversed $37 $-1 #
coedge $-1 $59 $95 $159 $165 reversed $37 $-1 #
coedge $-1 $161 $166 $59 $98 forward $167 $-1 #
edge $-1 $168 12.98720400847165 $169 16.831806017252752 $97 $170 forward 7 unknown #
loop $-1 $-1 $104 $60 #
plane-surface $-1 15.754359488467237 -4.4309286141449178 55.290559409779362 0 0.81915205242281985 0.57357642473473569 1 0 0 forward_v I I I I #
loop $-1 $-1 $171 $39 #
coedge $-1 $102 $102 $103 $172 reversed $61 $-1 #
coedge $-1 $103 $103 $102 $172 forward $63 $-1 #
coedge $-1 $104 $104 $64 $105 forward $99 $-1 #
edge $-1 $173 8.754794858201828e-016 $173 6.2831853071796013 $104 $174 forward 7 unknown #
loop $-1 $-1 $111 $65 #
plane-surface $-1 15.754359488467237 -4.4309286141449178 55.290559409779362 0 0.81915205242281985 0.57357642473473569 1 0 0 forward_v I I I I #
loop $-1 $-1 $175 $42 #
coedge $-1 $109 $109 $110 $176 reversed $66 $-1 #
coedge $-1 $110 $110 $109 $176 forward $68 $-1 #
coedge $-1 $111 $111 $69 $112 forward $106 $-1 #
edge $-1 $177 8.754794858201828e-016 $177 6.2831853071796013 $111 $178 forward 7 unknown #
loop $-1 $-1 $118 $70 #
plane-surface $-1 15.754359488467237 -4.4309286141449178 55.290559409779362 0 0.81915205242281985 0.57357642473473569 1 0 0 forward_v I I I I #
loop $-1 $-1 $179 $45 #
coedge $-1 $116 $116 $117 $180 reversed $71 $-1 #
coedge $-1 $117 $117 $116 $180 forward $73 $-1 #
coedge $-1 $118 $118 $74 $119 forward $113 $-1 #
edge $-1 $181 8.754794858201828e-016 $181 6.2831853071796013 $118 $182 forward 7 unknown #
face $-1 $183 $184 $18 $-1 $185 reversed single #
loop $-1 $-1 $186 $75 #
plane-surface $-1 -55.317850276192509 0 0 1 0 0 0 0 -1 forward_v I I I I #
coedge $-1 $187 $131 $188 $189 forward $76 $-1 #
coedge $-1 $190 $78 $187 $191 forward $49 $-1 #
coedge $-1 $78 $190 $192 $193 forward $49 $-1 #
coedge $-1 $134 $133 $78 $127 reversed $135 $-1 #
edge $-1 $194 -30.11106227381724 $195 30.11106227381724 $126 $196 forward 7 unknown #
coedge $-1 $80 $79 $197 $198 forward $31 $-1 #
coedge $-1 $199 $200 $79 $130 reversed $184 $-1 #
edge $-1 $137 -55.317850276192509 $201 55.317850276192509 $129 $202 forward 7 unknown #
coedge $-1 $123 $203 $80 $132 reversed $76 $-1 #
edge $-1 $204 -55.317850276192509 $136 55.317850276192509 $131 $205 forward 7 unknown #
coedge $-1 $126 $81 $203 $206 forward $135 $-1 #
coedge $-1 $81 $126 $199 $207 reversed $135 $-1 #
loop $-1 $-1 $133 $183 #
vertex $-1 $82 $208 #
vertex $-1 $82 $209 #
straight-curve $-1 55.317850276192509 0 11.450143346598413 0 1 0 I I #
face $-1 $210 $151 $19 $-1 $211 reversed single #
loop $-1 $-1 $212 $83 #
plane-surface $-1 -53.562082423017557 -39.107065335101325 0 0 1 0 0 0 1 forward_v I I I I #
coedge $-1 $213 $214 $146 $215 forward $84 $-1 #
coedge $-1 $216 $86 $214 $217 forward $53 $-1 #
coedge $-1 $86 $216 $149 $218 forward $53 $-1 #
edge $-1 $152 51.806314569842606 $219 55.317850276192509 $86 $220 forward 7 unknown #
coedge $-1 $88 $87 $142 $215 reversed $34 $-1 #
coedge $-1 $221 $222 $87 $148 forward $223 $-1 #
edge $-1 $224 -55.317850276192509 $153 -51.806314569842606 $147 $225 forward 7 unknown #
coedge $-1 $226 $89 $144 $218 reversed $151 $-1 #
coedge $-1 $89 $226 $221 $227 reversed $151 $-1 #
loop $-1 $-1 $226 $139 #
vertex $-1 $145 $228 #
vertex $-1 $227 $229 #
straight-curve $-1 -51.806314569842606 -30.11106227381724 0 0 0 -1 I I #
face $-1 $-1 $167 $20 $-1 $230 forward single #
loop $-1 $-1 $231 $91 #
plane-surface $-1 0 30.11106227381724 0 0 -1 0 0 0 -1 forward_v I I I I #
coedge $-1 $232 $233 $234 $235 reversed $92 $-1 #
coedge $-1 $236 $94 $96 $165 forward $57 $-1 #
coedge $-1 $94 $236 $232 $237 forward $57 $-1 #
coedge $-1 $234 $97 $94 $162 forward $167 $-1 #
edge $-1 $169 -4.4608263342446577 $238 20.215185822711895 $161 $239 forward 7 unknown #
coedge $-1 $240 $241 $95 $164 forward $156 $-1 #
edge $-1 $242 -53.414812004997714 $168 -47.924151143721176 $163 $243 forward 7 unknown #
edge $-1 $169 53.519265359237551 $242 60.222124547634508 $96 $244 forward 7 unknown #
coedge $-1 $97 $234 $240 $245 forward $167 $-1 #
loop $-1 $-1 $234 $155 #
vertex $-1 $164 $246 #
vertex $-1 $98 $247 #
straight-curve $-1 3.416353409988961 43.09826628228889 11.450143346598409 0 -1 0 I I #
coedge $-1 $171 $171 $-1 $248 reversed $101 $-1 #
edge $-1 $249 0 $249 6.2831853071796004 $102 $250 forward 7 unknown #
vertex $-1 $105 $251 #
ellipse-curve $-1 8.351555841380268 28.188761269426688 8.7048129159601455 0 0.81915205242281985 0.57357642473473569 1 0 0 1 I I #
coedge $-1 $175 $175 $-1 $252 reversed $108 $-1 #
edge $-1 $253 0 $253 6.2831853071796004 $109 $254 forward 7 unknown #
vertex $-1 $112 $255 #
ellipse-curve $-1 15.754359488467237 28.188761269426688 8.7048129159601455 0 0.81915205242281985 0.57357642473473569 1 0 0 1 I I #
coedge $-1 $179 $179 $-1 $256 reversed $115 $-1 #
edge $-1 $257 0 $257 6.2831853071796004 $116 $258 forward 7 unknown #
vertex $-1 $119 $259 #
ellipse-curve $-1 23.157163135554207 28.188761269426688 8.7048129159601455 0 0.81915205242281985 0.57357642473473569 1 0 0 1 I I #
face $-1 $-1 $135 $18 $-1 $260 reversed single #
loop $-1 $-1 $199 $120 #
plane-surface $-1 0 30.11106227381724 0 0 -1 0 0 0 -1 forward_v I I I I #
coedge $-1 $261 $197 $200 $262 forward $121 $-1 #
coedge $-1 $203 $123 $124 $191 reversed $76 $-1 #
coedge $-1 $197 $261 $123 $189 reversed $121 $-1 #
edge $-1 $204 -11.450143346598413 $263 11.450143346598413 $188 $264 forward 7 unknown #
coedge $-1 $125 $124 $261 $265 forward $49 $-1 #
edge $-1 $195 -55.317850276192509 $263 55.317850276192509 $187 $266 forward 7 unknown #
coedge $-1 $200 $199 $125 $193 reversed $184 $-1 #
edge $-1 $267 -55.317850276192509 $194 55.317850276192509 $192 $268 forward 7 unknown #
vertex $-1 $127 $269 #
vertex $-1 $206 $270 #
straight-curve $-1 55.317850276192509 0 -11.450143346598413 0 -1 0 I I #
coedge $-1 $186 $188 $128 $198 reversed $121 $-1 #
edge $-1 $201 -30.11106227381724 $204 30.11106227381724 $197 $271 forward 7 unknown #
coedge $-1 $192 $129 $134 $207 forward $184 $-1 #
coedge $-1 $129 $192 $186 $262 reversed $184 $-1 #
vertex $-1 $130 $272 #
straight-curve $-1 0 30.11106227381724 11.450143346598413 -1 0 0 I I #
coedge $-1 $131 $187 $133 $206 reversed $76 $-1 #
vertex $-1 $198 $273 #
straight-curve $-1 0 -30.11106227381724 11.450143346598413 1 0 0 I I #
edge $-1 $136 -11.450143346598413 $195 11.450143346598413 $133 $274 forward 7 unknown #
edge $-1 $137 -11.450143346598413 $194 11.450143346598413 $134 $275 forward 7 unknown #
point $-1 55.317850276192509 -30.11106227381724 11.450143346598413 #
point $-1 55.317850276192509 30.11106227381724 11.450143346598413 #
face $-1 $-1 $223 $19 $-1 $276 reversed single #
plane-surface $-1 -51.806314569842606 -34.609063804459282 0 -1 0 0 0 0 1 forward_v I I I I #
coedge $-1 $277 $278 $279 $280 forward $140 $-1 #
coedge $-1 $279 $142 $222 $281 reversed $84 $-1 #
coedge $-1 $142 $279 $143 $217 reversed $84 $-1 #
edge $-1 $219 -11.450143346598413 $224 11.450143346598413 $142 $282 forward 7 unknown #
coedge $-1 $144 $143 $278 $283 forward $53 $-1 #
edge $-1 $219 30.11106227381724 $284 39.107065335101325 $214 $285 forward 7 unknown #
edge $-1 $286 -4.4980015306420427 $152 4.4980015306420427 $149 $287 forward 7 unknown #
vertex $-1 $217 $288 #
straight-curve $-1 0 -30.11106227381724 11.450143346598413 -1 0 0 I I #
coedge $-1 $289 $147 $150 $227 forward $223 $-1 #
coedge $-1 $147 $289 $213 $281 forward $223 $-1 #
loop $-1 $-1 $147 $210 #
vertex $-1 $215 $290 #
straight-curve $-1 0 -30.11106227381724 -11.450143346598413 1 0 0 I I #
coedge $-1 $150 $149 $291 $292 forward $151 $-1 #
edge $-1 $153 -4.4980015306420427 $293 4.4980015306420427 $150 $294 forward 7 unknown #
point $-1 -51.806314569842606 -30.11106227381724 11.450143346598413 #
point $-1 -51.806314569842606 -30.11106227381724 -11.450143346598413 #
plane-surface $-1 0 0 11.450143346598413 0 0 1 1 0 0 forward_v I I I I #
coedge $-1 $241 $240 $233 $295 forward $156 $-1 #
coedge $-1 $233 $158 $160 $237 reversed $92 $-1 #
coedge $-1 $158 $232 $231 $295 reversed $92 $-1 #
coedge $-1 $166 $161 $158 $235 forward $167 $-1 #
edge $-1 $238 -16.831806017252752 $296 -12.98720400847165 $234 $297 forward 7 unknown #
coedge $-1 $160 $159 $241 $298 reversed $57 $-1 #
edge $-1 $299 -60.222124547634508 $238 -53.519265359237551 $232 $300 forward 7 unknown #
vertex $-1 $162 $301 #
straight-curve $-1 7.8771797442336187 26.266460265036137 11.450143346598413 1 0 0 I I #
coedge $-1 $231 $163 $166 $245 reversed $156 $-1 #
coedge $-1 $163 $231 $236 $298 forward $156 $-1 #
vertex $-1 $164 $302 #
straight-curve $-1 3.416353409988961 30.11106227381724 59.374294490319592 0 0 1 I I #
straight-curve $-1 3.416353409988961 -4.4309286141449178 55.290559409779362 0 0.57357642473473569 -0.81915205242281985 I I #
edge $-1 $296 -28.092365566945514 $168 -3.416353409988961 $240 $303 forward 7 unknown #
point $-1 3.416353409988961 30.11106227381724 11.450143346598413 #
point $-1 3.416353409988961 26.266460265036137 11.450143346598409 #
edge $-1 $304 1 $304 0 $171 $-1 forward 7 unknown #
vertex $-1 $172 $305 #
ellipse-curve $-1 8.351555841380268 25.26689312211159 6.6588988753050291 0 0.81915205242281985 0.57357642473473569 1 0 0 1 I I #
point $-1 9.351555841380268 28.188761269426703 8.7048129159601544 #
edge $-1 $306 1 $306 0 $175 $-1 forward 7 unknown #
vertex $-1 $176 $307 #
ellipse-curve $-1 15.754359488467237 25.26689312211159 6.6588988753050291 0 0.81915205242281985 0.57357642473473569 1 0 0 1 I I #
point $-1 16.754359488467237 28.188761269426703 8.7048129159601544 #
edge $-1 $308 1 $308 0 $179 $-1 forward 7 unknown #
vertex $-1 $180 $309 #
ellipse-curve $-1 23.157163135554207 25.26689312211159 6.6588988753050291 0 0.81915205242281985 0.57357642473473569 1 0 0 1 I I #
point $-1 24.157163135554207 28.188761269426703 8.7048129159601544 #
plane-surface $-1 55.317850276192509 0 0 -1 0 0 0 0 1 forward_v I I I I #
coedge $-1 $188 $186 $190 $265 reversed $121 $-1 #
edge $-1 $201 -11.450143346598413 $267 11.450143346598413 $200 $310 forward 7 unknown #
vertex $-1 $265 $311 #
straight-curve $-1 -55.317850276192509 -30.11106227381724 0 0 0 -1 I I #
edge $-1 $263 -30.11106227381724 $267 30.11106227381724 $261 $312 forward 7 unknown #
straight-curve $-1 0 -30.11106227381724 -11.450143346598413 -1 0 0 I I #
vertex $-1 $193 $313 #
straight-curve $-1 0 30.11106227381724 -11.450143346598413 1 0 0 I I #
point $-1 55.317850276192509 30.11106227381724 -11.450143346598413 #
point $-1 55.317850276192509 -30.11106227381724 -11.450143346598413 #
straight-curve $-1 -55.317850276192509 0 11.450143346598413 0 -1 0 I I #
point $-1 -55.317850276192509 30.11106227381724 11.450143346598413 #
point $-1 -55.317850276192509 -30.11106227381724 11.450143346598413 #
straight-curve $-1 55.317850276192509 -30.11106227381724 0 0 0 -1 I I #
straight-curve $-1 55.317850276192509 30.11106227381724 0 0 0 -1 I I #
plane-surface $-1 0 0 -11.450143346598413 0 0 1 1 0 0 forward_v I I I I #
coedge $-1 $291 $212 $289 $314 reversed $140 $-1 #
coedge $-1 $212 $291 $216 $283 reversed $140 $-1 #
coedge $-1 $214 $213 $212 $280 reversed $84 $-1 #
edge $-1 $284 -11.450143346598413 $315 11.450143346598413 $279 $316 forward 7 unknown #
edge $-1 $315 -39.107065335101325 $224 -30.11106227381724 $213 $317 forward 7 unknown #
straight-curve $-1 -55.317850276192509 -30.11106227381724 0 0 0 -1 I I #
edge $-1 $284 -1.7557678531749517 $286 1.7557678531749517 $278 $318 forward 7 unknown #
vertex $-1 $217 $319 #
straight-curve $-1 -55.317850276192509 0 11.450143346598413 0 -1 0 I I #
vertex $-1 $218 $320 #
straight-curve $-1 -51.806314569842606 -34.609063804459282 11.450143346598413 0 1 0 I I #
point $-1 -55.317850276192509 -30.11106227381724 11.450143346598413 #
coedge $-1 $222 $221 $277 $314 forward $223 $-1 #
point $-1 -55.317850276192509 -30.11106227381724 -11.450143346598413 #
coedge $-1 $278 $277 $226 $292 reversed $140 $-1 #
edge $-1 $286 -11.450143346598413 $293 11.450143346598413 $226 $321 forward 7 unknown #
vertex $-1 $292 $322 #
straight-curve $-1 -51.806314569842606 -34.609063804459282 -11.450143346598413 0 -1 0 I I #
edge $-1 $296 47.924151143721176 $299 53.414812004997714 $231 $323 forward 7 unknown #
vertex $-1 $245 $324 #
straight-curve $-1 28.092365566945514 43.09826628228889 11.450143346598409 0 1 0 I I #
edge $-1 $299 -20.215185822711895 $242 4.4608263342446577 $241 $325 forward 7 unknown #
vertex $-1 $298 $326 #
straight-curve $-1 28.092365566945514 -4.4309286141449178 55.290559409779362 0 -0.57357642473473569 0.81915205242281985 I I #
point $-1 28.092365566945514 26.266460265036137 11.450143346598409 #
point $-1 3.416353409988961 30.11106227381724 5.9594824853218782 #
straight-curve $-1 0 30.11106227381724 11.450143346598413 -1 0 0 I I #
vertex $-1 $248 $327 #
point $-1 9.351555841380268 25.26689312211159 6.6588988753050291 #
vertex $-1 $252 $328 #
point $-1 16.754359488467237 25.26689312211159 6.6588988753050291 #
vertex $-1 $256 $329 #
point $-1 24.157163135554207 25.26689312211159 6.6588988753050291 #
straight-curve $-1 -55.317850276192509 30.11106227381724 0 0 0 -1 I I #
point $-1 -55.317850276192509 -30.11106227381724 -11.450143346598413 #
straight-curve $-1 -55.317850276192509 0 -11.450143346598413 0 1 0 I I #
point $-1 -55.317850276192509 30.11106227381724 -11.450143346598413 #
edge $-1 $293 -1.7557678531749517 $315 1.7557678531749517 $277 $330 forward 7 unknown #
vertex $-1 $281 $331 #
straight-curve $-1 -55.317850276192509 -39.107065335101325 0 0 0 -1 I I #
straight-curve $-1 -55.317850276192509 0 -11.450143346598413 0 1 0 I I #
straight-curve $-1 -53.562082423017557 -39.107065335101325 11.450143346598413 1 0 0 I I #
point $-1 -55.317850276192509 -39.107065335101325 11.450143346598413 #
point $-1 -51.806314569842606 -39.107065335101325 11.450143346598413 #
straight-curve $-1 -51.806314569842606 -39.107065335101325 0 0 0 -1 I I #
point $-1 -51.806314569842606 -39.107065335101325 -11.450143346598413 #
straight-curve $-1 28.092365566945514 30.11106227381724 59.374294490319592 0 0 -1 I I #
point $-1 28.092365566945514 30.11106227381724 11.450143346598413 #
straight-curve $-1 7.8771797442336187 30.11106227381724 5.9594824853218782 -1 0 0 I I #
point $-1 28.092365566945514 30.11106227381724 5.9594824853218782 #
point $-1 8.351555841380268 24.447741069688767 6.0853224505702936 #
point $-1 15.754359488467237 24.447741069688767 6.0853224505702936 #
point $-1 23.157163135554207 24.447741069688767 6.0853224505702936 #
straight-curve $-1 -53.562082423017557 -39.107065335101325 -11.450143346598413 -1 0 0 I I #
point $-1 -55.317850276192509 -39.107065335101325 -11.450143346598413 #
End-of-ACIS-data 