500 0 11 0           
7 Unknown 11 ACIS 5.0 NT 24 Thu Mar 25 19:04:24 1999 
-1 9.9999999999999995e-007 1e-010 
body $-1 $11 $-1 $12 #
body $-1 $13 $-1 $14 #
body $-1 $15 $-1 $16 #
body $-1 $17 $-1 $18 #
body $-1 $19 $-1 $20 #
body $-1 $21 $-1 $22 #
body $-1 $23 $-1 $24 #
body $-1 $25 $-1 $26 #
body $-1 $27 $-1 $28 #
body $-1 $29 $-1 $30 #
body $-1 $31 $-1 $32 #
lump $-1 $-1 $33 $0 #
transform $-1 1 0 0 0 1 0 0 0 1 74.30158391064181 49.381857156761704 22.483235394722286 1 rotate no_reflect no_shear #
lump $-1 $-1 $34 $1 #
transform $-1 1 0 0 0 1 0 0 0 1 74.30158391064181 49.381857156761704 22.483235394722286 1 rotate no_reflect no_shear #
lump $-1 $-1 $35 $2 #
transform $-1 1 0 0 0 1 0 0 0 1 74.30158391064181 49.381857156761704 22.483235394722286 1 rotate no_reflect no_shear #
lump $-1 $-1 $36 $3 #
transform $-1 1 0 0 0 1 0 0 0 1 74.30158391064181 49.381857156761704 22.483235394722286 1 rotate no_reflect no_shear #
lump $-1 $-1 $37 $4 #
transform $-1 1 0 0 0 1 0 0 0 1 74.30158391064181 49.381857156761704 22.483235394722286 1 rotate no_reflect no_shear #
lump $-1 $-1 $38 $5 #
transform $-1 1 0 0 0 1 0 0 0 1 74.30158391064181 49.381857156761704 22.483235394722286 1 rotate no_reflect no_shear #
lump $-1 $-1 $39 $6 #
transform $-1 1 0 0 0 1 0 0 0 1 74.30158391064181 49.381857156761704 22.483235394722286 1 rotate no_reflect no_shear #
lump $-1 $-1 $40 $7 #
transform $-1 1 0 0 0 1 0 0 0 1 74.30158391064181 49.381857156761704 22.483235394722286 1 rotate no_reflect no_shear #
lump $-1 $-1 $41 $8 #
transform $-1 1 0 0 0 1 0 0 0 1 74.30158391064181 49.381857156761704 22.483235394722286 1 rotate no_reflect no_shear #
lump $-1 $-1 $42 $9 #
transform $-1 1 0 0 0 1 0 0 0 1 74.30158391064181 49.381857156761704 22.483235394722286 1 rotate no_reflect no_shear #
lump $-1 $-1 $43 $10 #
transform $-1 1 0 0 0 1 0 0 0 1 74.30158391064181 49.381857156761704 22.483235394722286 1 rotate no_reflect no_shear #
shell $-1 $-1 $-1 $44 $-1 $11 #
shell $-1 $-1 $-1 $45 $-1 $13 #
shell $-1 $-1 $-1 $46 $-1 $15 #
shell $-1 $-1 $-1 $47 $-1 $17 #
shell $-1 $-1 $-1 $48 $-1 $19 #
shell $-1 $-1 $-1 $49 $-1 $21 #
shell $-1 $-1 $-1 $50 $-1 $23 #
shell $-1 $-1 $-1 $51 $-1 $25 #
shell $-1 $-1 $-1 $52 $-1 $27 #
shell $-1 $-1 $-1 $53 $-1 $29 #
shell $-1 $-1 $-1 $54 $-1 $31 #
face $-1 $55 $56 $33 $-1 $57 forward single #
face $-1 $58 $59 $34 $-1 $60 reversed single #
face $-1 $61 $62 $35 $-1 $63 reversed single #
face $-1 $64 $65 $36 $-1 $66 reversed single #
face $-1 $67 $68 $37 $-1 $69 forward single #
face $-1 $70 $71 $38 $-1 $72 forward single #
face $-1 $73 $74 $39 $-1 $75 forward single #
face $-1 $76 $77 $40 $-1 $78 reversed single #
face $-1 $79 $80 $41 $-1 $81 forward single #
face $-1 $82 $83 $42 $-1 $84 forward single #
face $-1 $85 $86 $43 $-1 $87 forward single #
face $-1 $88 $89 $33 $-1 $90 reversed single #
loop $-1 $-1 $91 $44 #
plane-surface $-1 0 0 22.483235394722286 0 0 1 1 0 0 forward_v I I I I #
face $-1 $92 $93 $34 $-1 $94 forward single #
loop $-1 $-1 $95 $45 #
plane-surface $-1 -57.746300852247415 0 18.406743991841637 -1 0 0 0 0 1 forward_v I I I I #
face $-1 $96 $97 $35 $-1 $98 reversed single #
loop $-1 $-1 $99 $46 #
plane-surface $-1 47.224047881221516 -45.233296424316549 0 1 0 0 0 0 -1 forward_v I I I I #
face $-1 $100 $101 $36 $-1 $102 reversed single #
loop $-1 $-1 $103 $47 #
plane-surface $-1 -43.16907906327252 -49.381857156761697 14.368492181568769 0 -0.51503808176128008 0.85716729658548041 1 0 0 forward_v I I I I #
face $-1 $104 $105 $37 $-1 $106 forward single #
loop $-1 $107 $108 $48 #
cone-surface $-1 -51.915412136657451 -41.657617116292577 16.808783558110672 0 0.51503808176128008 -0.85716729658548041 2.5 0 0 1 I I 0 1 2.5 forward I I I I #
face $-1 $109 $110 $38 $-1 $111 forward single #
loop $-1 $112 $113 $49 #
cone-surface $-1 -43.16907906327252 -41.657617116292577 16.808783558110672 0 0.51503808176128008 -0.85716729658548041 2.5 0 0 1 I I 0 1 2.5 forward I I I I #
face $-1 $114 $115 $39 $-1 $116 forward single #
loop $-1 $117 $118 $50 #
cone-surface $-1 -34.422745989887581 -41.657617116292577 16.808783558110672 0 0.51503808176128008 -0.85716729658548041 2.5 0 0 1 I I 0 1 2.5 forward I I I I #
face $-1 $119 $120 $40 $-1 $121 reversed single #
loop $-1 $-1 $122 $51 #
plane-surface $-1 -43.16907906327252 -35.27516884210187 65.235566149224979 0 0.51503808176128008 0.85716729658548041 1 0 0 forward_v I I I I #
face $-1 $123 $124 $41 $-1 $125 forward single #
loop $-1 $126 $127 $52 #
cone-surface $-1 -51.915412136657451 41.657617116292563 16.808783558110672 0 -0.51503808176128008 -0.85716729658548041 2.5 0 0 1 I I 0 1 2.5 forward I I I I #
face $-1 $128 $129 $42 $-1 $130 forward single #
loop $-1 $131 $132 $53 #
cone-surface $-1 -43.16907906327252 41.657617116292563 16.808783558110672 0 -0.51503808176128008 -0.85716729658548041 2.5 0 0 1 I I 0 1 2.5 forward I I I I #
face $-1 $133 $134 $43 $-1 $135 forward single #
loop $-1 $136 $137 $54 #
cone-surface $-1 -34.422745989887581 41.657617116292563 16.808783558110672 0 -0.51503808176128008 -0.85716729658548041 2.5 0 0 1 I I 0 1 2.5 forward I I I I #
face $-1 $138 $139 $33 $-1 $140 reversed single #
loop $-1 $-1 $141 $55 #
plane-surface $-1 0 0 -22.483235394722286 0 0 1 1 0 0 forward_v I I I I #
coedge $-1 $142 $143 $144 $145 forward $56 $-1 #
face $-1 $146 $147 $34 $-1 $148 reversed single #
loop $-1 $-1 $149 $58 #
plane-surface $-1 -66.023942381444613 0 21.965760492250126 0 0 1 1 0 0 forward_v I I I I #
coedge $-1 $150 $151 $149 $152 reversed $59 $-1 #
face $-1 $153 $154 $35 $-1 $155 forward single #
loop $-1 $-1 $156 $61 #
plane-surface $-1 60.762815895931666 -41.084735691871394 0 0 -1 0 0 0 -1 forward_v I I I I #
coedge $-1 $157 $158 $159 $160 forward $62 $-1 #
face $-1 $161 $162 $36 $-1 $163 reversed single #
loop $-1 $-1 $164 $64 #
plane-surface $-1 -28.591857274297627 -125.91814765508519 141.7462678069769 -1 0 0 0 -0.51503808176128008 0.85716729658548041 forward_v I I I I #
coedge $-1 $165 $166 $167 $168 reversed $65 $-1 #
face $-1 $-1 $169 $37 $-1 $170 forward single #
loop $-1 $171 $172 $67 #
cone-surface $-1 -51.915412136657451 -40.042179668463497 14.120244207343966 0 0.51503808176128008 -0.85716729658548041 1.25 0 0 1 I I -0.70710678118654746 0.70710678118654746 1.25 forward I I I I #
loop $-1 $-1 $173 $48 #
coedge $-1 $108 $108 $174 $175 reversed $68 $-1 #
face $-1 $-1 $176 $38 $-1 $177 forward single #
loop $-1 $178 $179 $70 #
cone-surface $-1 -43.16907906327252 -40.042179668463497 14.120244207343966 0 0.51503808176128008 -0.85716729658548041 1.25 0 0 1 I I -0.70710678118654746 0.70710678118654746 1.25 forward I I I I #
loop $-1 $-1 $180 $49 #
coedge $-1 $113 $113 $181 $182 reversed $71 $-1 #
face $-1 $-1 $183 $39 $-1 $184 forward single #
loop $-1 $185 $186 $73 #
cone-surface $-1 -34.422745989887581 -40.042179668463497 14.120244207343966 0 0.51503808176128008 -0.85716729658548041 1.25 0 0 1 I I -0.70710678118654746 0.70710678118654746 1.25 forward I I I I #
loop $-1 $-1 $187 $50 #
coedge $-1 $118 $118 $188 $189 reversed $74 $-1 #
face $-1 $190 $191 $40 $-1 $192 forward single #
loop $-1 $-1 $193 $76 #
plane-surface $-1 -28.591857274297627 41.261121656221626 192.61334177463311 -1 0 0 0 0.51503808176128008 0.85716729658548041 forward_v I I I I #
coedge $-1 $194 $195 $196 $197 reversed $77 $-1 #
face $-1 $-1 $198 $41 $-1 $199 forward single #
loop $-1 $200 $201 $79 #
cone-surface $-1 -51.915412136657451 40.042179668463483 14.120244207343966 0 -0.51503808176128008 -0.85716729658548041 1.25 0 0 1 I I -0.70710678118654746 0.70710678118654746 1.25 forward I I I I #
loop $-1 $-1 $202 $52 #
coedge $-1 $127 $127 $203 $204 reversed $80 $-1 #
face $-1 $-1 $205 $42 $-1 $206 forward single #
loop $-1 $207 $208 $82 #
cone-surface $-1 -43.16907906327252 40.042179668463483 14.120244207343966 0 -0.51503808176128008 -0.85716729658548041 1.25 0 0 1 I I -0.70710678118654746 0.70710678118654746 1.25 forward I I I I #
loop $-1 $-1 $209 $53 #
coedge $-1 $132 $132 $210 $211 reversed $83 $-1 #
face $-1 $-1 $212 $43 $-1 $213 forward single #
loop $-1 $214 $215 $85 #
cone-surface $-1 -34.422745989887581 40.042179668463483 14.120244207343966 0 -0.51503808176128008 -0.85716729658548041 1.25 0 0 1 I I -0.70710678118654746 0.70710678118654746 1.25 forward I I I I #
loop $-1 $-1 $216 $54 #
coedge $-1 $137 $137 $217 $218 reversed $86 $-1 #
face $-1 $219 $220 $33 $-1 $221 reversed single #
loop $-1 $-1 $222 $88 #
plane-surface $-1 0 -49.381857156761704 0 0 1 0 0 0 1 forward_v I I I I #
coedge $-1 $223 $224 $225 $226 forward $89 $-1 #
coedge $-1 $227 $91 $228 $229 forward $56 $-1 #
coedge $-1 $91 $227 $230 $231 forward $56 $-1 #
coedge $-1 $232 $233 $91 $145 reversed $234 $-1 #
edge $-1 $235 -49.381857156761704 $236 49.381857156761704 $144 $237 forward 7 unknown #
face $-1 $238 $239 $34 $-1 $240 reversed single #
loop $-1 $-1 $241 $92 #
plane-surface $-1 -66.023942381444613 0 14.847727491433147 0 0 1 1 0 0 forward_v I I I I #
coedge $-1 $242 $243 $95 $152 forward $93 $-1 #
coedge $-1 $244 $95 $245 $246 reversed $59 $-1 #
coedge $-1 $95 $244 $247 $248 reversed $59 $-1 #
edge $-1 $249 -49.381857156761704 $250 49.381857156761704 $95 $251 forward 7 unknown #
face $-1 $252 $253 $35 $-1 $254 reversed single #
loop $-1 $-1 $255 $96 #
plane-surface $-1 0 0 22.483235394722286 0 0 1 1 0 0 forward_v I I I I #
coedge $-1 $256 $257 $258 $259 reversed $97 $-1 #
coedge $-1 $260 $99 $261 $262 reversed $62 $-1 #
coedge $-1 $99 $260 $263 $264 reversed $62 $-1 #
coedge $-1 $257 $256 $99 $160 reversed $97 $-1 #
edge $-1 $265 -22.483235394722286 $266 22.483235394722286 $159 $267 forward 7 unknown #
face $-1 $268 $269 $36 $-1 $270 forward single #
loop $-1 $-1 $271 $100 #
plane-surface $-1 0 -49.381857156761704 0 0 1 0 0 0 1 forward_v I I I I #
coedge $-1 $272 $273 $274 $275 reversed $101 $-1 #
coedge $-1 $276 $103 $277 $278 forward $65 $-1 #
coedge $-1 $103 $276 $272 $279 forward $65 $-1 #
coedge $-1 $274 $271 $103 $168 forward $162 $-1 #
edge $-1 $280 -36.161761320611156 $281 -7.0073177426613675 $167 $282 forward 7 unknown #
loop $-1 $-1 $174 $104 #
plane-surface $-1 -43.16907906327252 -49.381857156761697 14.368492181568769 0 -0.51503808176128008 0.85716729658548041 1 0 0 forward_v I I I I #
loop $-1 $-1 $283 $67 #
coedge $-1 $172 $172 $173 $284 reversed $105 $-1 #
coedge $-1 $173 $173 $172 $284 forward $107 $-1 #
coedge $-1 $174 $174 $108 $175 forward $169 $-1 #
edge $-1 $285 -1.7043028484091576e-015 $285 6.2831853071795987 $174 $286 forward 7 unknown #
loop $-1 $-1 $181 $109 #
plane-surface $-1 -43.16907906327252 -49.381857156761697 14.368492181568769 0 -0.51503808176128008 0.85716729658548041 1 0 0 forward_v I I I I #
loop $-1 $-1 $287 $70 #
coedge $-1 $179 $179 $180 $288 reversed $110 $-1 #
coedge $-1 $180 $180 $179 $288 forward $112 $-1 #
coedge $-1 $181 $181 $113 $182 forward $176 $-1 #
edge $-1 $289 -1.7043028484091576e-015 $289 6.2831853071795987 $181 $290 forward 7 unknown #
loop $-1 $-1 $188 $114 #
plane-surface $-1 -43.16907906327252 -49.381857156761697 14.368492181568769 0 -0.51503808176128008 0.85716729658548041 1 0 0 forward_v I I I I #
loop $-1 $-1 $291 $73 #
coedge $-1 $186 $186 $187 $292 reversed $115 $-1 #
coedge $-1 $187 $187 $186 $292 forward $117 $-1 #
coedge $-1 $188 $188 $118 $189 forward $183 $-1 #
edge $-1 $293 -1.7043028484091576e-015 $293 6.2831853071795987 $188 $294 forward 7 unknown #
face $-1 $295 $296 $40 $-1 $297 reversed single #
loop $-1 $-1 $298 $119 #
plane-surface $-1 0 0 22.483235394722286 0 0 1 1 0 0 forward_v I I I I #
coedge $-1 $299 $300 $301 $302 reversed $120 $-1 #
coedge $-1 $303 $122 $304 $305 forward $77 $-1 #
coedge $-1 $122 $303 $299 $306 forward $77 $-1 #
coedge $-1 $301 $298 $122 $197 forward $191 $-1 #
edge $-1 $307 -36.161761320611156 $308 -7.0073177426613675 $196 $309 forward 7 unknown #
loop $-1 $-1 $203 $123 #
plane-surface $-1 -43.16907906327252 -35.27516884210187 65.235566149224979 0 0.51503808176128008 0.85716729658548041 1 0 0 forward_v I I I I #
loop $-1 $-1 $310 $79 #
coedge $-1 $201 $201 $202 $311 reversed $124 $-1 #
coedge $-1 $202 $202 $201 $311 forward $126 $-1 #
coedge $-1 $203 $203 $127 $204 forward $198 $-1 #
edge $-1 $312 2.6871759632143715e-015 $312 6.2831853071796031 $203 $313 forward 7 unknown #
loop $-1 $-1 $210 $128 #
plane-surface $-1 -43.16907906327252 -35.27516884210187 65.235566149224979 0 0.51503808176128008 0.85716729658548041 1 0 0 forward_v I I I I #
loop $-1 $-1 $314 $82 #
coedge $-1 $208 $208 $209 $315 reversed $129 $-1 #
coedge $-1 $209 $209 $208 $315 forward $131 $-1 #
coedge $-1 $210 $210 $132 $211 forward $205 $-1 #
edge $-1 $316 2.6871759632143715e-015 $316 6.2831853071796031 $210 $317 forward 7 unknown #
loop $-1 $-1 $217 $133 #
plane-surface $-1 -43.16907906327252 -35.27516884210187 65.235566149224979 0 0.51503808176128008 0.85716729658548041 1 0 0 forward_v I I I I #
loop $-1 $-1 $318 $85 #
coedge $-1 $215 $215 $216 $319 reversed $134 $-1 #
coedge $-1 $216 $216 $215 $319 forward $136 $-1 #
coedge $-1 $217 $217 $137 $218 forward $212 $-1 #
edge $-1 $320 2.6871759632143715e-015 $320 6.2831853071796031 $217 $321 forward 7 unknown #
face $-1 $322 $323 $33 $-1 $324 reversed single #
loop $-1 $-1 $325 $138 #
plane-surface $-1 -74.30158391064181 0 0 1 0 0 0 0 -1 forward_v I I I I #
coedge $-1 $326 $230 $327 $328 forward $139 $-1 #
coedge $-1 $329 $141 $326 $330 forward $89 $-1 #
coedge $-1 $141 $329 $331 $332 forward $89 $-1 #
coedge $-1 $233 $232 $141 $226 reversed $234 $-1 #
edge $-1 $333 -49.381857156761704 $334 49.381857156761704 $225 $335 forward 7 unknown #
coedge $-1 $143 $142 $336 $337 forward $56 $-1 #
coedge $-1 $338 $339 $142 $229 reversed $323 $-1 #
edge $-1 $236 -74.30158391064181 $340 74.30158391064181 $228 $341 forward 7 unknown #
coedge $-1 $222 $342 $143 $231 reversed $139 $-1 #
edge $-1 $343 -74.30158391064181 $235 74.30158391064181 $230 $344 forward 7 unknown #
coedge $-1 $225 $144 $342 $345 forward $234 $-1 #
coedge $-1 $144 $225 $338 $346 reversed $234 $-1 #
loop $-1 $-1 $232 $322 #
vertex $-1 $145 $347 #
vertex $-1 $145 $348 #
straight-curve $-1 74.30158391064181 0 22.483235394722286 0 1 0 I I #
face $-1 $349 $350 $34 $-1 $351 reversed single #
loop $-1 $-1 $352 $146 #
plane-surface $-1 0 -49.381857156761704 0 0 1 0 0 0 1 forward_v I I I I #
coedge $-1 $353 $354 $244 $355 forward $147 $-1 #
coedge $-1 $356 $149 $357 $358 reversed $93 $-1 #
coedge $-1 $149 $356 $359 $360 reversed $93 $-1 #
coedge $-1 $151 $150 $241 $355 reversed $59 $-1 #
coedge $-1 $359 $352 $150 $246 forward $239 $-1 #
edge $-1 $361 5.644355495512329 $249 12.762388496329308 $245 $362 forward 7 unknown #
coedge $-1 $363 $357 $151 $248 forward $364 $-1 #
edge $-1 $250 -12.762388496329308 $365 -5.644355495512329 $247 $366 forward 7 unknown #
vertex $-1 $360 $367 #
vertex $-1 $358 $368 #
straight-curve $-1 -57.746300852247415 0 21.965760492250126 0 1 0 I I #
face $-1 $369 $370 $35 $-1 $371 reversed single #
loop $-1 $-1 $372 $153 #
plane-surface $-1 0 -49.381857156761704 0 0 1 0 0 0 1 forward_v I I I I #
coedge $-1 $263 $373 $257 $374 forward $154 $-1 #
coedge $-1 $159 $156 $375 $376 reversed $97 $-1 #
coedge $-1 $156 $159 $255 $374 reversed $97 $-1 #
coedge $-1 $377 $378 $156 $259 forward $379 $-1 #
edge $-1 $380 -22.483235394722286 $381 22.483235394722286 $258 $382 forward 7 unknown #
coedge $-1 $158 $157 $372 $383 reversed $62 $-1 #
coedge $-1 $375 $384 $157 $262 forward $370 $-1 #
edge $-1 $385 -26.76520894460343 $266 -18.46808747971312 $261 $386 forward 7 unknown #
coedge $-1 $387 $255 $158 $264 forward $154 $-1 #
edge $-1 $265 18.46808747971312 $388 26.76520894460343 $263 $389 forward 7 unknown #
vertex $-1 $264 $390 #
vertex $-1 $262 $391 #
straight-curve $-1 47.224047881221516 -41.084735691871394 0 0 0 -1 I I #
face $-1 $-1 $392 $36 $-1 $393 forward single #
loop $-1 $-1 $277 $161 #
plane-surface $-1 -57.746300852247415 0 18.406743991841637 -1 0 0 0 0 1 forward_v I I I I #
coedge $-1 $167 $394 $395 $396 forward $162 $-1 #
coedge $-1 $273 $164 $166 $279 reversed $101 $-1 #
coedge $-1 $164 $272 $397 $398 reversed $101 $-1 #
coedge $-1 $394 $167 $164 $275 forward $162 $-1 #
edge $-1 $281 -56.504641721919683 $399 -48.389898508766166 $274 $400 forward 7 unknown #
coedge $-1 $166 $165 $401 $402 reversed $65 $-1 #
coedge $-1 $395 $403 $165 $278 reversed $269 $-1 #
edge $-1 $280 -7.9203227973758348e-015 $404 15.75561788635796 $277 $405 forward 7 unknown #
edge $-1 $406 -15.75561788635796 $281 7.9203227973758348e-015 $272 $407 forward 7 unknown #
vertex $-1 $168 $408 #
vertex $-1 $168 $409 #
straight-curve $-1 -21.58453953163626 -49.381857156761704 14.368492181568762 1 0 0 I I #
coedge $-1 $283 $283 $-1 $410 reversed $171 $-1 #
edge $-1 $411 0 $411 6.2831853071796004 $172 $412 forward 7 unknown #
vertex $-1 $175 $413 #
ellipse-curve $-1 -51.915412136657451 -42.629256961920056 18.425863788145524 0 -0.51503808176128008 0.85716729658548041 2.5 0 0 1 I I #
coedge $-1 $287 $287 $-1 $414 reversed $178 $-1 #
edge $-1 $415 0 $415 6.2831853071796004 $179 $416 forward 7 unknown #
vertex $-1 $182 $417 #
ellipse-curve $-1 -43.16907906327252 -42.629256961920056 18.425863788145524 0 -0.51503808176128008 0.85716729658548041 2.5 0 0 1 I I #
coedge $-1 $291 $291 $-1 $418 reversed $185 $-1 #
edge $-1 $419 0 $419 6.2831853071796004 $186 $420 forward 7 unknown #
vertex $-1 $189 $421 #
ellipse-curve $-1 -34.422745989887581 -42.629256961920056 18.425863788145524 0 -0.51503808176128008 0.85716729658548041 2.5 0 0 1 I I #
face $-1 $-1 $422 $40 $-1 $423 forward single #
loop $-1 $-1 $424 $190 #
plane-surface $-1 0 49.381857156761704 0 0 -1 0 0 0 -1 forward_v I I I I #
coedge $-1 $196 $425 $426 $427 forward $191 $-1 #
coedge $-1 $300 $193 $195 $306 reversed $120 $-1 #
coedge $-1 $193 $299 $428 $429 reversed $120 $-1 #
coedge $-1 $425 $196 $193 $302 forward $191 $-1 #
edge $-1 $308 15.246095938967652 $430 28.751296328650891 $301 $431 forward 7 unknown #
coedge $-1 $195 $194 $432 $433 reversed $77 $-1 #
coedge $-1 $426 $434 $194 $305 reversed $422 $-1 #
edge $-1 $307 83.008096427165498 $435 98.763714313523408 $304 $436 forward 7 unknown #
edge $-1 $437 -98.763714313523408 $308 -83.008096427165498 $299 $438 forward 7 unknown #
vertex $-1 $427 $439 #
vertex $-1 $197 $440 #
straight-curve $-1 -21.58453953163626 35.876656767078465 22.483235394722286 1 0 0 I I #
coedge $-1 $310 $310 $-1 $441 reversed $200 $-1 #
edge $-1 $442 0 $442 6.2831853071796004 $201 $443 forward 7 unknown #
vertex $-1 $204 $444 #
ellipse-curve $-1 -51.915412136657451 42.629256961920056 18.425863788145552 0 0.51503808176128008 0.85716729658548041 2.5 0 0 1 I I #
coedge $-1 $314 $314 $-1 $445 reversed $207 $-1 #
edge $-1 $446 0 $446 6.2831853071796004 $208 $447 forward 7 unknown #
vertex $-1 $211 $448 #
ellipse-curve $-1 -43.16907906327252 42.629256961920056 18.425863788145552 0 0.51503808176128008 0.85716729658548041 2.5 0 0 1 I I #
coedge $-1 $318 $318 $-1 $449 reversed $214 $-1 #
edge $-1 $450 0 $450 6.2831853071796004 $215 $451 forward 7 unknown #
vertex $-1 $218 $452 #
ellipse-curve $-1 -34.422745989887581 42.629256961920056 18.425863788145552 0 0.51503808176128008 0.85716729658548041 2.5 0 0 1 I I #
face $-1 $-1 $234 $33 $-1 $453 reversed single #
loop $-1 $-1 $338 $219 #
plane-surface $-1 0 49.381857156761704 0 0 -1 0 0 0 -1 forward_v I I I I #
coedge $-1 $454 $336 $339 $455 forward $220 $-1 #
coedge $-1 $342 $222 $223 $330 reversed $139 $-1 #
coedge $-1 $336 $454 $222 $328 reversed $220 $-1 #
edge $-1 $343 -22.483235394722286 $456 22.483235394722286 $327 $457 forward 7 unknown #
coedge $-1 $224 $223 $454 $458 forward $89 $-1 #
edge $-1 $334 -74.30158391064181 $456 74.30158391064181 $326 $459 forward 7 unknown #
coedge $-1 $339 $338 $224 $332 reversed $323 $-1 #
edge $-1 $460 -74.30158391064181 $333 74.30158391064181 $331 $461 forward 7 unknown #
vertex $-1 $226 $462 #
vertex $-1 $345 $463 #
straight-curve $-1 74.30158391064181 0 -22.483235394722286 0 -1 0 I I #
coedge $-1 $325 $327 $227 $337 reversed $220 $-1 #
edge $-1 $340 -49.381857156761704 $343 49.381857156761704 $336 $464 forward 7 unknown #
coedge $-1 $331 $228 $233 $346 forward $323 $-1 #
coedge $-1 $228 $331 $325 $455 reversed $323 $-1 #
vertex $-1 $229 $465 #
straight-curve $-1 0 49.381857156761704 22.483235394722286 -1 0 0 I I #
coedge $-1 $230 $326 $232 $345 reversed $139 $-1 #
vertex $-1 $337 $466 #
straight-curve $-1 0 -49.381857156761704 22.483235394722286 1 0 0 I I #
edge $-1 $235 -22.483235394722286 $334 22.483235394722286 $232 $467 forward 7 unknown #
edge $-1 $236 -22.483235394722286 $333 22.483235394722286 $233 $468 forward 7 unknown #
point $-1 74.30158391064181 -49.381857156761704 22.483235394722286 #
point $-1 74.30158391064181 49.381857156761704 22.483235394722286 #
face $-1 $-1 $364 $34 $-1 $469 reversed single #
loop $-1 $-1 $470 $238 #
plane-surface $-1 -74.30158391064181 0 0 1 0 0 0 0 -1 forward_v I I I I #
coedge $-1 $245 $471 $353 $472 forward $239 $-1 #
coedge $-1 $473 $241 $352 $472 reversed $147 $-1 #
coedge $-1 $241 $473 $363 $474 reversed $147 $-1 #
edge $-1 $365 -49.381857156761704 $361 49.381857156761704 $244 $475 forward 7 unknown #
coedge $-1 $243 $242 $476 $477 reversed $93 $-1 #
coedge $-1 $247 $478 $242 $358 forward $364 $-1 #
edge $-1 $479 -41.289612719919504 $250 -24.734329661525109 $357 $480 forward 7 unknown #
coedge $-1 $471 $245 $243 $360 forward $239 $-1 #
edge $-1 $249 24.734329661525109 $481 41.289612719919504 $359 $482 forward 7 unknown #
vertex $-1 $472 $483 #
straight-curve $-1 -57.746300852247415 -49.381857156761704 9.2033719959208184 0 0 1 I I #
coedge $-1 $478 $247 $354 $474 forward $364 $-1 #
loop $-1 $-1 $363 $349 #
vertex $-1 $474 $484 #
straight-curve $-1 -57.746300852247415 49.381857156761704 9.2033719959208184 0 0 -1 I I #
point $-1 -57.746300852247415 -49.381857156761704 21.965760492250126 #
point $-1 -57.746300852247415 49.381857156761704 21.965760492250126 #
face $-1 $-1 $379 $35 $-1 $485 reversed single #
loop $-1 $-1 $375 $252 #
plane-surface $-1 0 0 -22.483235394722286 0 0 1 1 0 0 forward_v I I I I #
coedge $-1 $486 $487 $260 $383 forward $253 $-1 #
coedge $-1 $255 $387 $377 $488 forward $154 $-1 #
edge $-1 $381 -43.920175962675991 $265 -16.842639933255683 $255 $489 forward 7 unknown #
coedge $-1 $490 $261 $256 $376 forward $370 $-1 #
edge $-1 $266 16.842639933255683 $380 43.920175962675991 $375 $491 forward 7 unknown #
coedge $-1 $492 $258 $373 $488 reversed $379 $-1 #
coedge $-1 $258 $492 $490 $493 reversed $379 $-1 #
loop $-1 $-1 $258 $369 #
vertex $-1 $493 $494 #
vertex $-1 $259 $495 #
straight-curve $-1 74.30158391064181 -41.084735691871394 0 0 0 1 I I #
edge $-1 $388 -22.483235394722286 $385 22.483235394722286 $372 $496 forward 7 unknown #
coedge $-1 $261 $490 $486 $497 forward $370 $-1 #
vertex $-1 $262 $498 #
straight-curve $-1 47.224047881221516 -22.616648212158275 -22.483235394722286 0 1 0 I I #
coedge $-1 $373 $263 $487 $499 forward $154 $-1 #
vertex $-1 $499 $500 #
straight-curve $-1 47.224047881221516 -22.616648212158275 22.483235394722286 0 -1 0 I I #
point $-1 47.224047881221516 -41.084735691871394 22.483235394722286 #
point $-1 47.224047881221516 -41.084735691871394 -22.483235394722286 #
loop $-1 $-1 $501 $268 #
plane-surface $-1 0 0 22.483235394722286 0 0 1 1 0 0 forward_v I I I I #
coedge $-1 $271 $274 $502 $503 reversed $162 $-1 #
coedge $-1 $403 $277 $271 $396 reversed $269 $-1 #
edge $-1 $504 48.389898508766166 $280 56.504641721919683 $271 $505 forward 7 unknown #
coedge $-1 $401 $502 $273 $398 forward $392 $-1 #
edge $-1 $399 13.577216670780892 $406 27.082417060464195 $397 $506 forward 7 unknown #
vertex $-1 $275 $507 #
straight-curve $-1 -28.591857274297627 -49.381857156761704 70.873133903488451 0 0 1 I I #
coedge $-1 $501 $397 $276 $402 forward $392 $-1 #
edge $-1 $406 7.0073177426613675 $404 36.161761320611156 $401 $508 forward 7 unknown #
coedge $-1 $277 $395 $501 $509 reversed $269 $-1 #
vertex $-1 $509 $510 #
straight-curve $-1 -57.746300852247415 -49.381857156761697 14.368492181568769 0 0.85716729658548041 0.51503808176128008 I I #
vertex $-1 $402 $511 #
straight-curve $-1 -28.591857274297627 -49.381857156761697 14.368492181568769 0 -0.85716729658548041 -0.51503808176128008 I I #
point $-1 -57.746300852247415 -49.381857156761704 14.368492181568765 #
point $-1 -28.591857274297627 -49.381857156761704 14.368492181568765 #
edge $-1 $512 1 $512 0 $283 $-1 forward 7 unknown #
vertex $-1 $284 $513 #
ellipse-curve $-1 -51.915412136657451 -40.685977270665099 15.191703328075816 0 -0.51503808176128008 0.85716729658548041 2.5 0 0 1 I I #
point $-1 -49.415412136657451 -42.629256961920063 18.425863788145527 #
edge $-1 $514 1 $514 0 $287 $-1 forward 7 unknown #
vertex $-1 $288 $515 #
ellipse-curve $-1 -43.16907906327252 -40.685977270665099 15.191703328075816 0 -0.51503808176128008 0.85716729658548041 2.5 0 0 1 I I #
point $-1 -40.66907906327252 -42.629256961920063 18.425863788145527 #
edge $-1 $516 1 $516 0 $291 $-1 forward 7 unknown #
vertex $-1 $292 $517 #
ellipse-curve $-1 -34.422745989887581 -40.685977270665099 15.191703328075816 0 -0.51503808176128008 0.85716729658548041 2.5 0 0 1 I I #
point $-1 -31.922745989887581 -42.629256961920063 18.425863788145527 #
loop $-1 $-1 $304 $295 #
plane-surface $-1 -57.746300852247415 0 18.406743991841637 -1 0 0 0 0 1 forward_v I I I I #
coedge $-1 $518 $432 $434 $519 forward $296 $-1 #
coedge $-1 $298 $301 $518 $520 forward $191 $-1 #
coedge $-1 $434 $304 $298 $427 reversed $422 $-1 #
edge $-1 $521 -28.751296328650891 $307 -15.246095938967652 $298 $522 forward 7 unknown #
coedge $-1 $432 $518 $300 $429 forward $296 $-1 #
edge $-1 $430 73.823435492594271 $437 81.93817870574776 $428 $523 forward 7 unknown #
vertex $-1 $520 $524 #
straight-curve $-1 -28.591857274297627 20.630560828110813 22.483235394722286 0 1 0 I I #
coedge $-1 $424 $428 $303 $433 forward $296 $-1 #
edge $-1 $437 7.0073177426613675 $435 36.161761320611156 $432 $525 forward 7 unknown #
coedge $-1 $304 $426 $424 $519 reversed $422 $-1 #
vertex $-1 $519 $526 #
straight-curve $-1 -57.746300852247415 -35.27516884210187 65.235566149224979 0 0.85716729658548041 -0.51503808176128008 I I #
vertex $-1 $433 $527 #
straight-curve $-1 -28.591857274297627 -35.27516884210187 65.235566149224979 0 -0.85716729658548041 0.51503808176128008 I I #
point $-1 -57.746300852247415 35.876656767078465 22.483235394722286 #
point $-1 -28.591857274297627 35.876656767078465 22.483235394722286 #
edge $-1 $528 1 $528 0 $310 $-1 forward 7 unknown #
vertex $-1 $311 $529 #
ellipse-curve $-1 -51.915412136657451 40.685977270665084 15.191703328075816 0 0.51503808176128008 0.85716729658548041 2.5 0 0 1 I I #
point $-1 -49.415412136657451 42.629256961920049 18.425863788145527 #
edge $-1 $530 1 $530 0 $314 $-1 forward 7 unknown #
vertex $-1 $315 $531 #
ellipse-curve $-1 -43.16907906327252 40.685977270665084 15.191703328075816 0 0.51503808176128008 0.85716729658548041 2.5 0 0 1 I I #
point $-1 -40.66907906327252 42.629256961920049 18.425863788145527 #
edge $-1 $532 1 $532 0 $318 $-1 forward 7 unknown #
vertex $-1 $319 $533 #
ellipse-curve $-1 -34.422745989887581 40.685977270665084 15.191703328075816 0 0.51503808176128008 0.85716729658548041 2.5 0 0 1 I I #
point $-1 -31.922745989887581 42.629256961920049 18.425863788145527 #
plane-surface $-1 74.30158391064181 0 0 -1 0 0 0 0 1 forward_v I I I I #
coedge $-1 $327 $325 $329 $458 reversed $220 $-1 #
edge $-1 $340 -22.483235394722286 $460 22.483235394722286 $339 $534 forward 7 unknown #
vertex $-1 $458 $535 #
straight-curve $-1 -74.30158391064181 -49.381857156761704 0 0 0 -1 I I #
edge $-1 $456 -49.381857156761704 $460 49.381857156761704 $454 $536 forward 7 unknown #
straight-curve $-1 0 -49.381857156761704 -22.483235394722286 -1 0 0 I I #
vertex $-1 $332 $537 #
straight-curve $-1 0 49.381857156761704 -22.483235394722286 1 0 0 I I #
point $-1 74.30158391064181 49.381857156761704 -22.483235394722286 #
point $-1 74.30158391064181 -49.381857156761704 -22.483235394722286 #
straight-curve $-1 -74.30158391064181 0 22.483235394722286 0 -1 0 I I #
point $-1 -74.30158391064181 49.381857156761704 22.483235394722286 #
point $-1 -74.30158391064181 -49.381857156761704 22.483235394722286 #
straight-curve $-1 74.30158391064181 -49.381857156761704 0 0 0 -1 I I #
straight-curve $-1 74.30158391064181 49.381857156761704 0 0 0 -1 I I #
plane-surface $-1 0 49.381857156761704 0 0 -1 0 0 0 -1 forward_v I I I I #
coedge $-1 $538 $539 $473 $540 forward $350 $-1 #
coedge $-1 $352 $359 $538 $541 forward $239 $-1 #
edge $-1 $542 -41.289612719919504 $361 -24.734329661525109 $352 $543 forward 7 unknown #
coedge $-1 $354 $353 $470 $540 reversed $147 $-1 #
edge $-1 $365 24.734329661525109 $544 41.289612719919504 $363 $545 forward 7 unknown #
straight-curve $-1 -57.746300852247415 0 14.847727491433147 0 -1 0 I I #
coedge $-1 $539 $538 $356 $477 forward $350 $-1 #
edge $-1 $481 -49.381857156761704 $479 49.381857156761704 $476 $546 forward 7 unknown #
coedge $-1 $357 $363 $539 $547 reversed $364 $-1 #
vertex $-1 $547 $548 #
straight-curve $-1 -33.011971190722306 49.381857156761704 21.965760492250126 1 0 0 I I #
vertex $-1 $541 $549 #
straight-curve $-1 -33.011971190722306 -49.381857156761704 21.965760492250126 -1 0 0 I I #
point $-1 -57.746300852247415 -49.381857156761704 14.847727491433147 #
point $-1 -57.746300852247415 49.381857156761704 14.847727491433147 #
plane-surface $-1 74.30158391064181 0 0 -1 0 0 0 0 1 forward_v I I I I #
coedge $-1 $550 $372 $384 $497 reversed $253 $-1 #
coedge $-1 $372 $550 $387 $499 reversed $253 $-1 #
edge $-1 $551 -49.381857156761704 $381 -41.084735691871394 $377 $552 forward 7 unknown #
straight-curve $-1 30.381407947965833 -41.084735691871394 22.483235394722286 -1 0 0 I I #
coedge $-1 $384 $375 $378 $493 forward $370 $-1 #
straight-curve $-1 30.381407947965833 -41.084735691871394 -22.483235394722286 1 0 0 I I #
coedge $-1 $378 $377 $550 $553 forward $379 $-1 #
edge $-1 $380 41.084735691871394 $554 49.381857156761704 $378 $555 forward 7 unknown #
point $-1 74.301583910641824 -41.084735691871394 -22.483235394722286 #
point $-1 74.301583910641824 -41.084735691871394 22.483235394722286 #
straight-curve $-1 47.224047881221516 -49.381857156761704 0 0 0 -1 I I #
edge $-1 $554 -74.30158391064181 $385 -47.224047881221516 $486 $556 forward 7 unknown #
point $-1 47.224047881221516 -49.381857156761704 -22.483235394722286 #
edge $-1 $388 47.224047881221516 $551 74.30158391064181 $487 $557 forward 7 unknown #
point $-1 47.224047881221516 -49.381857156761704 22.483235394722286 #
coedge $-1 $502 $401 $403 $509 forward $392 $-1 #
coedge $-1 $397 $501 $394 $503 forward $392 $-1 #
edge $-1 $504 -57.746300852247415 $399 -28.591857274297627 $394 $558 forward 7 unknown #
vertex $-1 $503 $559 #
straight-curve $-1 -57.746300852247415 -49.381857156761704 70.873133903488451 0 0 -1 I I #
straight-curve $-1 -28.591857274297627 -62.959073827542596 22.483235394722286 0 1 0 I I #
point $-1 -28.591857274297627 -49.381857156761704 22.483235394722286 #
straight-curve $-1 -21.58453953163626 -35.876656767078401 22.483235394722286 -1 0 0 I I #
edge $-1 $404 -27.082417060464195 $504 -13.577216670780892 $501 $560 forward 7 unknown #
point $-1 -57.746300852247415 -35.876656767078401 22.483235394722286 #
point $-1 -28.591857274297627 -35.876656767078401 22.483235394722286 #
vertex $-1 $410 $561 #
point $-1 -49.415412136657451 -40.685977270665099 15.191703328075816 #
vertex $-1 $414 $562 #
point $-1 -40.66907906327252 -40.685977270665099 15.191703328075816 #
vertex $-1 $418 $563 #
point $-1 -31.922745989887581 -40.685977270665099 15.191703328075816 #
coedge $-1 $428 $424 $425 $520 reversed $296 $-1 #
edge $-1 $435 -81.93817870574776 $521 -73.823435492594271 $424 $564 forward 7 unknown #
edge $-1 $430 28.591857274297627 $521 57.746300852247415 $518 $565 forward 7 unknown #
vertex $-1 $427 $566 #
straight-curve $-1 -57.746300852247415 20.630560828110813 22.483235394722286 0 -1 0 I I #
straight-curve $-1 -28.591857274297627 49.381857156761704 96.306670887316557 0 0 -1 I I #
point $-1 -28.591857274297627 49.381857156761704 22.483235394722286 #
straight-curve $-1 -21.58453953163626 49.381857156761704 14.368492181568804 -1 0 0 I I #
point $-1 -57.746300852247415 49.381857156761704 14.368492181568804 #
point $-1 -28.591857274297627 49.381857156761704 14.368492181568804 #
vertex $-1 $441 $567 #
point $-1 -49.415412136657451 40.685977270665084 15.191703328075816 #
vertex $-1 $445 $568 #
point $-1 -40.66907906327252 40.685977270665084 15.191703328075816 #
vertex $-1 $449 $569 #
point $-1 -31.922745989887581 40.685977270665084 15.191703328075816 #
straight-curve $-1 -74.30158391064181 49.381857156761704 0 0 0 -1 I I #
point $-1 -74.30158391064181 -49.381857156761704 -22.483235394722286 #
straight-curve $-1 -74.30158391064181 0 -22.483235394722286 0 1 0 I I #
point $-1 -74.30158391064181 49.381857156761704 -22.483235394722286 #
coedge $-1 $476 $470 $471 $541 reversed $350 $-1 #
coedge $-1 $470 $476 $478 $547 forward $350 $-1 #
edge $-1 $544 -49.381857156761704 $542 49.381857156761704 $470 $570 forward 7 unknown #
edge $-1 $481 -21.965760492250126 $542 -14.847727491433147 $538 $571 forward 7 unknown #
vertex $-1 $472 $572 #
straight-curve $-1 -33.011971190722306 -49.381857156761704 14.847727491433147 1 0 0 I I #
vertex $-1 $474 $573 #
straight-curve $-1 -33.011971190722306 49.381857156761704 14.847727491433147 -1 0 0 I I #
straight-curve $-1 -74.30158391064181 0 21.965760492250126 0 1 0 I I #
edge $-1 $479 -21.965760492250126 $544 -14.847727491433147 $478 $574 forward 7 unknown #
point $-1 -74.30158391064181 49.381857156761704 21.965760492250126 #
point $-1 -74.30158391064181 -49.381857156761704 21.965760492250126 #
coedge $-1 $487 $486 $492 $553 reversed $253 $-1 #
vertex $-1 $488 $575 #
straight-curve $-1 74.30158391064181 0 22.483235394722286 0 1 0 I I #
edge $-1 $551 -22.483235394722286 $554 22.483235394722286 $492 $576 forward 7 unknown #
vertex $-1 $553 $577 #
straight-curve $-1 74.30158391064181 0 -22.483235394722286 0 -1 0 I I #
straight-curve $-1 0 -49.381857156761704 -22.483235394722286 -1 0 0 I I #
straight-curve $-1 0 -49.381857156761704 22.483235394722286 1 0 0 I I #
straight-curve $-1 0 -49.381857156761704 22.483235394722286 1 0 0 I I #
point $-1 -57.746300852247415 -49.381857156761704 22.483235394722286 #
straight-curve $-1 -57.746300852247415 -62.959073827542596 22.483235394722286 0 -1 0 I I #
point $-1 -51.915412136657451 -39.398382066261895 13.048785086612115 #
point $-1 -43.16907906327252 -39.398382066261895 13.048785086612115 #
point $-1 -34.422745989887581 -39.398382066261895 13.048785086612115 #
straight-curve $-1 -57.746300852247415 49.381857156761704 96.306670887316557 0 0 1 I I #
straight-curve $-1 0 49.381857156761704 22.483235394722286 -1 0 0 I I #
point $-1 -57.746300852247415 49.381857156761704 22.483235394722286 #
point $-1 -51.915412136657451 39.398382066261881 13.048785086612115 #
point $-1 -43.16907906327252 39.398382066261881 13.048785086612115 #
point $-1 -34.422745989887581 39.398382066261881 13.048785086612115 #
straight-curve $-1 -74.30158391064181 0 14.847727491433147 0 -1 0 I I #
straight-curve $-1 -74.30158391064181 -49.381857156761704 0 0 0 -1 I I #
point $-1 -74.30158391064181 -49.381857156761704 14.847727491433147 #
point $-1 -74.30158391064181 49.381857156761704 14.847727491433147 #
straight-curve $-1 -74.30158391064181 49.381857156761704 0 0 0 -1 I I #
point $-1 74.30158391064181 -49.381857156761704 22.483235394722286 #
straight-curve $-1 74.30158391064181 -49.381857156761704 0 0 0 -1 I I #
point $-1 74.30158391064181 -49.381857156761704 -22.483235394722286 #
End-of-ACIS-data 