500 0 2 0           
7 Unknown 11 ACIS 5.0 NT 24 Thu Mar 25 19:10:14 1999 
-1 9.9999999999999995e-007 1e-010 
body $-1 $2 $-1 $3 #
body $-1 $4 $-1 $5 #
lump $-1 $-1 $6 $0 #
transform $-1 1 0 0 0 1 0 0 0 1 48.406018250068669 29.913285407385949 8.9046045470193569 1 rotate no_reflect no_shear #
lump $-1 $-1 $7 $1 #
transform $-1 1 0 0 0 1 0 0 0 1 48.406018250068669 29.913285407385949 8.9046045470193569 1 rotate no_reflect no_shear #
shell $-1 $-1 $-1 $8 $-1 $2 #
shell $-1 $-1 $-1 $9 $-1 $4 #
face $-1 $10 $11 $6 $-1 $12 reversed single #
face $-1 $13 $14 $7 $-1 $15 forward single #
face $-1 $16 $17 $6 $-1 $18 forward single #
loop $-1 $-1 $19 $8 #
plane-surface $-1 -48.406018250068669 0 0 1 0 0 0 0 -1 forward_v I I I I #
face $-1 $20 $21 $7 $-1 $22 reversed single #
loop $-1 $-1 $23 $9 #
plane-surface $-1 -48.406018250068669 0 0 1 0 0 0 0 -1 forward_v I I I I #
face $-1 $24 $25 $6 $-1 $26 reversed single #
loop $-1 $-1 $27 $10 #
plane-surface $-1 0 0 8.9046045470193569 0 0 1 1 0 0 forward_v I I I I #
coedge $-1 $28 $29 $30 $31 reversed $11 $-1 #
face $-1 $32 $33 $7 $-1 $34 reversed single #
loop $-1 $-1 $35 $13 #
plane-surface $-1 0 0 -8.9046045470193569 0 0 1 1 0 0 forward_v I I I I #
coedge $-1 $36 $37 $38 $39 forward $14 $-1 #
face $-1 $40 $41 $6 $-1 $42 reversed single #
loop $-1 $-1 $43 $16 #
plane-surface $-1 0 0 -8.9046045470193569 0 0 1 1 0 0 forward_v I I I I #
coedge $-1 $44 $45 $46 $47 forward $17 $-1 #
coedge $-1 $48 $19 $49 $50 reversed $11 $-1 #
coedge $-1 $19 $48 $51 $52 forward $11 $-1 #
coedge $-1 $53 $54 $19 $31 forward $25 $-1 #
edge $-1 $55 -29.913285407385949 $56 29.913285407385949 $19 $57 forward 7 unknown #
face $-1 $58 $59 $7 $-1 $60 reversed single #
loop $-1 $-1 $61 $20 #
plane-surface $-1 -54.240997689782368 -22.56475120204308 0 0 1 0 0 0 1 forward_v I I I I #
coedge $-1 $62 $63 $37 $64 forward $21 $-1 #
coedge $-1 $65 $23 $66 $67 reversed $14 $-1 #
coedge $-1 $23 $65 $35 $64 reversed $14 $-1 #
coedge $-1 $68 $69 $23 $39 reversed $70 $-1 #
edge $-1 $71 -8.9046045470193569 $72 8.9046045470193569 $38 $73 forward 7 unknown #
face $-1 $74 $75 $6 $-1 $76 reversed single #
loop $-1 $-1 $49 $24 #
plane-surface $-1 0 -29.913285407385949 0 0 1 0 0 0 1 forward_v I I I I #
coedge $-1 $54 $53 $77 $78 forward $25 $-1 #
coedge $-1 $79 $27 $80 $81 forward $17 $-1 #
coedge $-1 $27 $79 $82 $83 forward $17 $-1 #
coedge $-1 $84 $85 $27 $47 reversed $86 $-1 #
edge $-1 $87 -29.913285407385949 $88 29.913285407385949 $46 $89 forward 7 unknown #
coedge $-1 $29 $28 $79 $90 reversed $11 $-1 #
coedge $-1 $91 $82 $28 $50 forward $41 $-1 #
edge $-1 $92 -8.9046045470193569 $55 8.9046045470193569 $28 $93 forward 7 unknown #
coedge $-1 $80 $94 $29 $52 reversed $75 $-1 #
edge $-1 $95 -8.9046045470193569 $56 8.9046045470193569 $51 $96 forward 7 unknown #
coedge $-1 $43 $30 $94 $97 forward $25 $-1 #
coedge $-1 $30 $43 $91 $98 forward $25 $-1 #
vertex $-1 $31 $99 #
vertex $-1 $97 $100 #
straight-curve $-1 -48.406018250068669 0 -8.9046045470193569 0 1 0 I I #
face $-1 $101 $70 $7 $-1 $102 reversed single #
loop $-1 $-1 $103 $32 #
plane-surface $-1 -60.075977129496067 -19.918969183264256 0 1 0 0 0 0 -1 forward_v I I I I #
coedge $-1 $104 $105 $106 $107 forward $33 $-1 #
coedge $-1 $108 $35 $104 $109 forward $21 $-1 #
coedge $-1 $35 $108 $68 $110 forward $21 $-1 #
edge $-1 $71 17.273187164485432 $111 22.56475120204308 $35 $112 forward 7 unknown #
coedge $-1 $37 $36 $113 $114 forward $14 $-1 #
coedge $-1 $115 $116 $36 $67 forward $117 $-1 #
edge $-1 $118 -22.56475120204308 $72 -17.273187164485432 $66 $119 forward 7 unknown #
coedge $-1 $120 $38 $63 $110 reversed $70 $-1 #
coedge $-1 $38 $120 $115 $121 reversed $70 $-1 #
loop $-1 $-1 $38 $58 #
vertex $-1 $64 $122 #
vertex $-1 $121 $123 #
straight-curve $-1 -48.406018250068669 -17.273187164485432 0 0 0 1 I I #
face $-1 $-1 $86 $6 $-1 $124 reversed single #
loop $-1 $-1 $125 $40 #
plane-surface $-1 0 29.913285407385949 0 0 -1 0 0 0 -1 forward_v I I I I #
coedge $-1 $85 $84 $43 $78 reversed $86 $-1 #
edge $-1 $126 -29.913285407385949 $127 29.913285407385949 $77 $128 forward 7 unknown #
coedge $-1 $45 $44 $48 $90 forward $17 $-1 #
coedge $-1 $125 $51 $44 $81 reversed $75 $-1 #
edge $-1 $88 -48.406018250068669 $95 48.406018250068669 $80 $129 forward 7 unknown #
coedge $-1 $49 $130 $45 $83 reversed $41 $-1 #
edge $-1 $92 -48.406018250068669 $87 48.406018250068669 $82 $131 forward 7 unknown #
coedge $-1 $77 $46 $130 $132 forward $86 $-1 #
coedge $-1 $46 $77 $125 $133 reversed $86 $-1 #
loop $-1 $-1 $84 $74 #
vertex $-1 $47 $134 #
vertex $-1 $47 $135 #
straight-curve $-1 48.406018250068669 0 8.9046045470193569 0 1 0 I I #
edge $-1 $95 -29.913285407385949 $92 29.913285407385949 $48 $136 forward 7 unknown #
coedge $-1 $130 $49 $54 $98 reversed $41 $-1 #
vertex $-1 $90 $137 #
straight-curve $-1 -48.406018250068669 -29.913285407385949 0 0 0 -1 I I #
coedge $-1 $51 $125 $53 $97 reversed $75 $-1 #
vertex $-1 $81 $138 #
straight-curve $-1 -48.406018250068669 29.913285407385949 0 0 0 -1 I I #
edge $-1 $56 -48.406018250068669 $126 48.406018250068669 $94 $139 forward 7 unknown #
edge $-1 $127 -48.406018250068669 $55 48.406018250068669 $91 $140 forward 7 unknown #
point $-1 -48.406018250068669 -29.913285407385949 -8.9046045470193569 #
point $-1 -48.406018250068669 29.913285407385949 -8.9046045470193569 #
face $-1 $-1 $117 $7 $-1 $141 forward single #
plane-surface $-1 -54.240997689782368 -17.273187164485432 0 0 -1 0 0 0 -1 forward_v I I I I #
coedge $-1 $142 $143 $120 $144 forward $59 $-1 #
coedge $-1 $113 $61 $62 $109 reversed $33 $-1 #
coedge $-1 $61 $113 $116 $145 reversed $33 $-1 #
coedge $-1 $143 $142 $61 $107 reversed $59 $-1 #
edge $-1 $146 -8.9046045470193569 $147 8.9046045470193569 $106 $148 forward 7 unknown #
coedge $-1 $63 $62 $142 $149 forward $21 $-1 #
edge $-1 $111 -5.8349794397136989 $147 5.8349794397136989 $104 $150 forward 7 unknown #
edge $-1 $151 -5.8349794397136989 $71 5.8349794397136989 $68 $152 forward 7 unknown #
vertex $-1 $109 $153 #
straight-curve $-1 -48.406018250068669 0 -8.9046045470193569 0 -1 0 I I #
coedge $-1 $105 $104 $65 $114 reversed $33 $-1 #
edge $-1 $118 -8.9046045470193569 $111 8.9046045470193569 $113 $154 forward 7 unknown #
coedge $-1 $155 $66 $69 $121 forward $117 $-1 #
coedge $-1 $66 $155 $105 $145 forward $117 $-1 #
loop $-1 $-1 $66 $101 #
vertex $-1 $67 $156 #
straight-curve $-1 -48.406018250068669 0 8.9046045470193569 0 1 0 I I #
coedge $-1 $69 $68 $103 $144 reversed $70 $-1 #
edge $-1 $72 -5.8349794397136989 $157 5.8349794397136989 $69 $158 forward 7 unknown #
point $-1 -48.406018250068669 -17.273187164485432 -8.9046045470193569 #
point $-1 -48.406018250068669 -17.273187164485432 8.9046045470193569 #
plane-surface $-1 48.406018250068669 0 0 -1 0 0 0 0 1 forward_v I I I I #
coedge $-1 $94 $80 $85 $133 forward $75 $-1 #
vertex $-1 $78 $159 #
vertex $-1 $132 $160 #
straight-curve $-1 48.406018250068669 0 -8.9046045470193569 0 -1 0 I I #
straight-curve $-1 0 29.913285407385949 8.9046045470193569 -1 0 0 I I #
coedge $-1 $82 $91 $84 $132 reversed $41 $-1 #
straight-curve $-1 0 -29.913285407385949 8.9046045470193569 1 0 0 I I #
edge $-1 $87 -8.9046045470193569 $127 8.9046045470193569 $84 $161 forward 7 unknown #
edge $-1 $88 -8.9046045470193569 $126 8.9046045470193569 $85 $162 forward 7 unknown #
point $-1 48.406018250068669 -29.913285407385949 8.9046045470193569 #
point $-1 48.406018250068669 29.913285407385949 8.9046045470193569 #
straight-curve $-1 -48.406018250068669 0 8.9046045470193569 0 -1 0 I I #
point $-1 -48.406018250068669 -29.913285407385949 8.9046045470193569 #
point $-1 -48.406018250068669 29.913285407385949 8.9046045470193569 #
straight-curve $-1 0 29.913285407385949 -8.9046045470193569 1 0 0 I I #
straight-curve $-1 0 -29.913285407385949 -8.9046045470193569 -1 0 0 I I #
plane-surface $-1 0 0 8.9046045470193569 0 0 1 1 0 0 forward_v I I I I #
coedge $-1 $106 $103 $108 $149 reversed $59 $-1 #
coedge $-1 $103 $106 $155 $163 reversed $59 $-1 #
edge $-1 $157 -8.9046045470193569 $151 8.9046045470193569 $120 $164 forward 7 unknown #
edge $-1 $146 -5.8349794397136989 $118 5.8349794397136989 $105 $165 forward 7 unknown #
vertex $-1 $163 $166 #
vertex $-1 $149 $167 #
straight-curve $-1 -60.075977129496067 -22.56475120204308 0 0 0 -1 I I #
edge $-1 $147 -2.6457820187788244 $151 2.6457820187788244 $142 $168 forward 7 unknown #
straight-curve $-1 -54.240997689782368 -22.56475120204308 -8.9046045470193569 -1 0 0 I I #
vertex $-1 $110 $169 #
straight-curve $-1 -54.240997689782368 -17.273187164485432 -8.9046045470193569 1 0 0 I I #
point $-1 -48.406018250068669 -22.56475120204308 -8.9046045470193569 #
straight-curve $-1 -48.406018250068669 -22.56475120204308 0 0 0 -1 I I #
coedge $-1 $116 $115 $143 $163 forward $117 $-1 #
point $-1 -48.406018250068669 -22.56475120204308 8.9046045470193569 #
vertex $-1 $121 $170 #
straight-curve $-1 -54.240997689782368 -17.273187164485432 8.9046045470193569 -1 0 0 I I #
point $-1 48.406018250068669 29.913285407385949 -8.9046045470193569 #
point $-1 48.406018250068669 -29.913285407385949 -8.9046045470193569 #
straight-curve $-1 48.406018250068669 -29.913285407385949 0 0 0 -1 I I #
straight-curve $-1 48.406018250068669 29.913285407385949 0 0 0 -1 I I #
edge $-1 $157 -2.6457820187788244 $146 2.6457820187788244 $143 $171 forward 7 unknown #
straight-curve $-1 -60.075977129496067 -17.273187164485432 0 0 0 -1 I I #
straight-curve $-1 -54.240997689782368 -22.56475120204308 8.9046045470193569 1 0 0 I I #
point $-1 -60.075977129496067 -22.56475120204308 8.9046045470193569 #
point $-1 -60.075977129496067 -22.56475120204308 -8.9046045470193569 #
straight-curve $-1 -60.075977129496067 -19.918969183264256 -8.9046045470193569 0 1 0 I I #
point $-1 -60.075977129496067 -17.273187164485432 -8.9046045470193569 #
point $-1 -60.075977129496067 -17.273187164485432 8.9046045470193569 #
straight-curve $-1 -60.075977129496067 -19.918969183264256 8.9046045470193569 0 -1 0 I I #
End-of-ACIS-data 