500 0 9 0           
7 Unknown 11 ACIS 5.0 NT 24 Fri Mar 26 14:32:56 1999 
-1 9.9999999999999995e-007 1e-010 
body $-1 $9 $-1 $10 #
body $-1 $11 $-1 $12 #
body $-1 $13 $-1 $14 #
body $-1 $15 $-1 $16 #
body $-1 $17 $-1 $18 #
body $-1 $19 $-1 $20 #
body $-1 $21 $-1 $22 #
body $-1 $23 $-1 $24 #
body $-1 $25 $-1 $26 #
lump $-1 $-1 $27 $0 #
transform $-1 1 0 0 0 1 0 0 0 1 74.693441572313617 30.61389358110339 12.801179934125434 1 rotate no_reflect no_shear #
lump $-1 $-1 $28 $1 #
transform $-1 1 0 0 0 1 0 0 0 1 74.693441572313617 30.61389358110339 12.801179934125434 1 rotate no_reflect no_shear #
lump $-1 $-1 $29 $2 #
transform $-1 1 0 0 0 1 0 0 0 1 74.693441572313617 30.61389358110339 12.801179934125434 1 rotate no_reflect no_shear #
lump $-1 $-1 $30 $3 #
transform $-1 1 0 0 0 1 0 0 0 1 74.693441572313617 30.61389358110339 12.801179934125434 1 rotate no_reflect no_shear #
lump $-1 $-1 $31 $4 #
transform $-1 1 0 0 0 1 0 0 0 1 74.693441572313617 30.61389358110339 12.801179934125434 1 rotate no_reflect no_shear #
lump $-1 $-1 $32 $5 #
transform $-1 1 0 0 0 1 0 0 0 1 74.693441572313617 30.61389358110339 12.801179934125434 1 rotate no_reflect no_shear #
lump $-1 $-1 $33 $6 #
transform $-1 1 0 0 0 1 0 0 0 1 74.693441572313617 30.61389358110339 12.801179934125434 1 rotate no_reflect no_shear #
lump $-1 $-1 $34 $7 #
transform $-1 1 0 0 0 1 0 0 0 1 74.693441572313617 30.61389358110339 12.801179934125434 1 rotate no_reflect no_shear #
lump $-1 $-1 $35 $8 #
transform $-1 1 0 0 0 1 0 0 0 1 74.693441572313617 30.61389358110339 12.801179934125434 1 rotate no_reflect no_shear #
shell $-1 $-1 $-1 $36 $-1 $9 #
shell $-1 $-1 $-1 $37 $-1 $11 #
shell $-1 $-1 $-1 $38 $-1 $13 #
shell $-1 $-1 $-1 $39 $-1 $15 #
shell $-1 $-1 $-1 $40 $-1 $17 #
shell $-1 $-1 $-1 $41 $-1 $19 #
shell $-1 $-1 $-1 $42 $-1 $21 #
shell $-1 $-1 $-1 $43 $-1 $23 #
shell $-1 $-1 $-1 $44 $-1 $25 #
face $-1 $45 $46 $27 $-1 $47 forward single #
face $-1 $48 $49 $28 $-1 $50 forward single #
face $-1 $51 $52 $29 $-1 $53 reversed single #
face $-1 $54 $55 $30 $-1 $56 forward single #
face $-1 $57 $58 $31 $-1 $59 reversed single #
face $-1 $60 $61 $32 $-1 $62 forward single #
face $-1 $63 $64 $33 $-1 $65 reversed single #
face $-1 $66 $67 $34 $-1 $68 forward single #
face $-1 $69 $70 $35 $-1 $71 forward single #
face $-1 $72 $73 $27 $-1 $74 reversed single #
loop $-1 $-1 $75 $36 #
plane-surface $-1 0 0 12.801179934125434 0 0 1 1 0 0 forward_v I I I I #
face $-1 $76 $77 $28 $-1 $78 reversed single #
loop $-1 $-1 $79 $37 #
plane-surface $-1 0 -24.520649915684881 -3.2362197285996976 0 0 1 1 0 0 forward_v I I I I #
face $-1 $80 $81 $29 $-1 $82 reversed single #
loop $-1 $-1 $83 $38 #
plane-surface $-1 34.382189342617764 -18.427406250266372 215.36327832237035 0 1 0 0.55919291073839883 0 0.82903756765294845 forward_v I I I I #
face $-1 $84 $85 $30 $-1 $86 forward single #
loop $-1 $87 $88 $39 #
cone-surface $-1 70.225993291010838 -13.693574987336593 9.0658583239236403 -0.55919291073839883 0 -0.82903756765294845 1.2435563514794228 0 -0.83878936610759824 1 I I 0 1 1.5 forward I I I I #
face $-1 $89 $90 $31 $-1 $91 reversed single #
loop $-1 $-1 $92 $40 #
plane-surface $-1 34.382189342617764 6.093243665418508 215.36327832237035 0 1 0 0.55919291073839883 0 0.82903756765294845 forward_v I I I I #
face $-1 $93 $94 $32 $-1 $95 forward single #
loop $-1 $96 $97 $41 #
cone-surface $-1 70.225993291010838 10.827074928348289 9.0658583239236403 -0.55919291073839883 0 -0.82903756765294845 1.2435563514794228 0 -0.83878936610759824 1 I I 0 1 1.5 forward I I I I #
face $-1 $98 $99 $33 $-1 $100 reversed single #
loop $-1 $-1 $101 $42 #
plane-surface $-1 -192.41191317117205 -18.427406250266376 101.34249728447163 0 1 0 -0.78801076186113728 0 0.61566146476048833 forward_v I I I I #
face $-1 $102 $103 $34 $-1 $104 forward single #
loop $-1 $105 $106 $43 #
cone-surface $-1 -72.200055041900498 -15.937863727660979 10.184897521084203 0.78801076186113728 0 -0.61566146476048833 0.61566146476048833 0 0.78801076186113728 1 I I 0 1 1 forward I I I I #
face $-1 $107 $108 $35 $-1 $109 forward single #
loop $-1 $110 $111 $44 #
cone-surface $-1 -72.200055041900498 -12.203549943752883 10.184897521084203 0.78801076186113728 0 -0.61566146476048833 0.61566146476048833 0 0.78801076186113728 1 I I 0 1 1 forward I I I I #
face $-1 $112 $113 $27 $-1 $114 reversed single #
loop $-1 $-1 $115 $45 #
plane-surface $-1 0 0 -12.801179934125434 0 0 1 1 0 0 forward_v I I I I #
coedge $-1 $116 $117 $118 $119 forward $46 $-1 #
face $-1 $120 $121 $28 $-1 $122 reversed single #
loop $-1 $-1 $123 $48 #
plane-surface $-1 0 -24.520649915684881 -7.0481717867446445 0 0 1 1 0 0 forward_v I I I I #
coedge $-1 $124 $125 $126 $127 reversed $49 $-1 #
face $-1 $128 $129 $29 $-1 $130 reversed single #
loop $-1 $-1 $131 $51 #
plane-surface $-1 -49.153896669163387 -13.693574987336593 91.515940080893344 0.55919291073839883 0 0.82903756765294845 0.82903756765294845 0 -0.55919291073839883 forward_v I I I I #
coedge $-1 $132 $133 $134 $135 reversed $52 $-1 #
face $-1 $-1 $136 $30 $-1 $137 forward single #
loop $-1 $138 $139 $54 #
cone-surface $-1 68.91310503104674 -13.693574987336593 7.1194214704887546 -0.55919291073839883 0 -0.82903756765294845 0.62177817573971139 0 -0.41939468305379912 1 I I -0.70710678118654757 0.70710678118654757 0.75 forward I I I I #
loop $-1 $-1 $140 $39 #
coedge $-1 $88 $88 $141 $142 reversed $55 $-1 #
face $-1 $143 $144 $31 $-1 $145 reversed single #
loop $-1 $-1 $146 $57 #
plane-surface $-1 -49.153896669163387 10.827074928348289 91.515940080893344 0.55919291073839883 0 0.82903756765294845 0.82903756765294845 0 -0.55919291073839883 forward_v I I I I #
coedge $-1 $147 $148 $149 $150 reversed $58 $-1 #
face $-1 $-1 $151 $32 $-1 $152 forward single #
loop $-1 $153 $154 $60 #
cone-surface $-1 68.91310503104674 10.827074928348289 7.1194214704887546 -0.55919291073839883 0 -0.82903756765294845 0.62177817573971139 0 -0.41939468305379912 1 I I -0.70710678118654757 0.70710678118654757 0.75 forward I I I I #
loop $-1 $-1 $155 $41 #
coedge $-1 $97 $97 $156 $157 reversed $61 $-1 #
face $-1 $158 $159 $33 $-1 $160 reversed single #
loop $-1 $-1 $161 $63 #
plane-surface $-1 -74.693441572313645 -14.070706835706932 9.3707499916465196 -0.78801076186113728 0 0.61566146476048833 0.61566146476048833 0 0.78801076186113728 forward_v I I I I #
coedge $-1 $162 $163 $164 $165 reversed $64 $-1 #
face $-1 $-1 $166 $34 $-1 $167 forward single #
loop $-1 $168 $169 $66 #
cone-surface $-1 -70.652735896921513 -15.937863727660979 8.9759993469021868 0.78801076186113728 0 -0.61566146476048833 0.30783073238024417 0 0.39400538093056864 1 I I -0.70710678118654746 0.70710678118654746 0.5 forward I I I I #
loop $-1 $-1 $170 $43 #
coedge $-1 $106 $106 $171 $172 reversed $67 $-1 #
face $-1 $-1 $173 $35 $-1 $174 forward single #
loop $-1 $175 $176 $69 #
cone-surface $-1 -70.652735896921513 -12.203549943752883 8.9759993469021868 0.78801076186113728 0 -0.61566146476048833 0.30783073238024417 0 0.39400538093056864 1 I I -0.70710678118654746 0.70710678118654746 0.5 forward I I I I #
loop $-1 $-1 $177 $44 #
coedge $-1 $111 $111 $178 $179 reversed $70 $-1 #
face $-1 $180 $181 $27 $-1 $182 reversed single #
loop $-1 $-1 $183 $72 #
plane-surface $-1 0 -30.61389358110339 0 0 1 0 0 0 1 forward_v I I I I #
coedge $-1 $184 $185 $186 $187 forward $73 $-1 #
coedge $-1 $188 $75 $189 $190 forward $46 $-1 #
coedge $-1 $75 $188 $191 $192 forward $46 $-1 #
coedge $-1 $193 $194 $75 $119 reversed $195 $-1 #
edge $-1 $196 -30.61389358110339 $197 30.61389358110339 $118 $198 forward 7 unknown #
face $-1 $199 $200 $28 $-1 $201 reversed single #
loop $-1 $-1 $202 $76 #
plane-surface $-1 0 -18.427406250266372 -5.1421957576721713 0 -1 0 0 0 -1 forward_v I I I I #
coedge $-1 $203 $204 $205 $206 reversed $77 $-1 #
coedge $-1 $207 $79 $208 $209 forward $49 $-1 #
coedge $-1 $79 $207 $210 $211 reversed $49 $-1 #
coedge $-1 $212 $213 $79 $127 forward $214 $-1 #
edge $-1 $215 6.1670812924239318 $216 18.353568623260948 $126 $217 forward 7 unknown #
face $-1 $218 $219 $29 $-1 $220 forward single #
loop $-1 $-1 $221 $80 #
plane-surface $-1 34.382189342617764 -8.9597437244068132 215.36327832237035 0 -1 0 -0.55919291073839883 0 -0.82903756765294845 forward_v I I I I #
coedge $-1 $222 $223 $224 $225 reversed $81 $-1 #
coedge $-1 $133 $83 $226 $227 reversed $52 $-1 #
coedge $-1 $83 $132 $222 $228 reversed $52 $-1 #
coedge $-1 $224 $229 $83 $135 forward $230 $-1 #
edge $-1 $231 94.880459227059745 $232 99.701785092072981 $134 $233 forward 7 unknown #
loop $-1 $-1 $141 $84 #
plane-surface $-1 -49.153896669163387 -13.693574987336593 91.515940080893344 0.55919291073839883 0 0.82903756765294845 0.82903756765294845 0 -0.55919291073839883 forward_v I I I I #
loop $-1 $-1 $234 $54 #
coedge $-1 $139 $139 $140 $235 reversed $85 $-1 #
coedge $-1 $140 $140 $139 $235 forward $87 $-1 #
coedge $-1 $141 $141 $88 $142 forward $136 $-1 #
edge $-1 $236 0 $236 6.2831853071796004 $141 $237 forward 7 unknown #
face $-1 $238 $239 $31 $-1 $240 reversed single #
loop $-1 $-1 $241 $89 #
plane-surface $-1 34.382189342617764 15.560906191278068 215.36327832237035 0 -1 0 -0.55919291073839883 0 -0.82903756765294845 forward_v I I I I #
coedge $-1 $242 $243 $244 $245 reversed $90 $-1 #
coedge $-1 $148 $92 $246 $247 reversed $58 $-1 #
coedge $-1 $92 $147 $242 $248 reversed $58 $-1 #
coedge $-1 $244 $249 $92 $150 forward $239 $-1 #
edge $-1 $250 94.880459227059745 $251 99.701785092072981 $149 $252 forward 7 unknown #
loop $-1 $-1 $156 $93 #
plane-surface $-1 -49.153896669163387 10.827074928348289 91.515940080893344 0.55919291073839883 0 0.82903756765294845 0.82903756765294845 0 -0.55919291073839883 forward_v I I I I #
loop $-1 $-1 $253 $60 #
coedge $-1 $154 $154 $155 $254 reversed $94 $-1 #
coedge $-1 $155 $155 $154 $254 forward $96 $-1 #
coedge $-1 $156 $156 $97 $157 forward $151 $-1 #
edge $-1 $255 0 $255 6.2831853071796004 $156 $256 forward 7 unknown #
face $-1 $257 $258 $33 $-1 $259 reversed single #
loop $-1 $-1 $260 $98 #
plane-surface $-1 -192.41191317117205 -9.7140074211474889 101.34249728447163 0 -1 0 0.78801076186113728 0 -0.61566146476048833 forward_v I I I I #
coedge $-1 $261 $262 $263 $264 reversed $99 $-1 #
coedge $-1 $163 $101 $265 $266 reversed $64 $-1 #
coedge $-1 $101 $162 $261 $267 reversed $64 $-1 #
coedge $-1 $263 $268 $101 $165 forward $269 $-1 #
edge $-1 $270 21.512515013272406 $271 24.192660546001761 $164 $272 forward 7 unknown #
loop $-1 $-1 $171 $102 #
plane-surface $-1 -74.693441572313645 -14.070706835706932 9.3707499916465196 -0.78801076186113728 0 0.61566146476048833 0.61566146476048833 0 0.78801076186113728 forward_v I I I I #
loop $-1 $-1 $273 $66 #
coedge $-1 $169 $169 $170 $274 reversed $103 $-1 #
coedge $-1 $170 $170 $169 $274 forward $105 $-1 #
coedge $-1 $171 $171 $106 $172 forward $166 $-1 #
edge $-1 $275 0 $275 6.2831853071796004 $171 $276 forward 7 unknown #
loop $-1 $-1 $178 $107 #
plane-surface $-1 -74.693441572313645 -14.070706835706932 9.3707499916465196 -0.78801076186113728 0 0.61566146476048833 0.61566146476048833 0 0.78801076186113728 forward_v I I I I #
loop $-1 $-1 $277 $69 #
coedge $-1 $176 $176 $177 $278 reversed $108 $-1 #
coedge $-1 $177 $177 $176 $278 forward $110 $-1 #
coedge $-1 $178 $178 $111 $179 forward $173 $-1 #
edge $-1 $279 0 $279 6.2831853071796004 $178 $280 forward 7 unknown #
face $-1 $281 $282 $27 $-1 $283 reversed single #
loop $-1 $-1 $284 $112 #
plane-surface $-1 -74.693441572313617 0 0 1 0 0 0 0 -1 forward_v I I I I #
coedge $-1 $285 $191 $286 $287 forward $113 $-1 #
coedge $-1 $288 $115 $285 $289 forward $73 $-1 #
coedge $-1 $115 $288 $290 $291 forward $73 $-1 #
coedge $-1 $194 $193 $115 $187 reversed $195 $-1 #
edge $-1 $292 -30.61389358110339 $293 30.61389358110339 $186 $294 forward 7 unknown #
coedge $-1 $117 $116 $295 $296 forward $46 $-1 #
coedge $-1 $297 $298 $116 $190 reversed $282 $-1 #
edge $-1 $197 -74.693441572313617 $299 74.693441572313617 $189 $300 forward 7 unknown #
coedge $-1 $183 $301 $117 $192 reversed $113 $-1 #
edge $-1 $302 -74.693441572313617 $196 74.693441572313617 $191 $303 forward 7 unknown #
coedge $-1 $186 $118 $301 $304 forward $195 $-1 #
coedge $-1 $118 $186 $297 $305 reversed $195 $-1 #
loop $-1 $-1 $193 $281 #
vertex $-1 $119 $306 #
vertex $-1 $119 $307 #
straight-curve $-1 74.693441572313617 0 12.801179934125434 0 1 0 I I #
face $-1 $308 $309 $28 $-1 $310 reversed single #
loop $-1 $-1 $311 $120 #
plane-surface $-1 -74.693441572313617 0 0 1 0 0 0 0 -1 forward_v I I I I #
coedge $-1 $312 $208 $213 $313 reversed $121 $-1 #
coedge $-1 $314 $123 $315 $316 reversed $77 $-1 #
coedge $-1 $123 $314 $312 $317 forward $77 $-1 #
coedge $-1 $213 $212 $123 $206 forward $214 $-1 #
edge $-1 $318 -18.353568623260948 $319 -6.1670812924239318 $205 $320 forward 7 unknown #
coedge $-1 $125 $124 $311 $321 reversed $49 $-1 #
coedge $-1 $202 $322 $124 $209 reversed $121 $-1 #
edge $-1 $215 -74.693441572313617 $323 74.693441572313617 $208 $324 forward 7 unknown #
coedge $-1 $325 $326 $125 $211 forward $309 $-1 #
edge $-1 $216 -74.693441572313617 $327 74.693441572313617 $210 $328 forward 7 unknown #
coedge $-1 $205 $126 $326 $329 forward $214 $-1 #
coedge $-1 $126 $205 $202 $313 forward $214 $-1 #
loop $-1 $-1 $126 $308 #
vertex $-1 $127 $330 #
vertex $-1 $329 $331 #
straight-curve $-1 74.693441572313617 -12.260324957842441 -3.2362197285996976 0 -1 0 I I #
face $-1 $-1 $230 $29 $-1 $332 reversed single #
loop $-1 $-1 $333 $128 #
plane-surface $-1 0 0 12.801179934125434 0 0 1 1 0 0 forward_v I I I I #
coedge $-1 $334 $335 $336 $337 reversed $129 $-1 #
coedge $-1 $338 $131 $133 $228 forward $81 $-1 #
coedge $-1 $131 $338 $334 $339 forward $81 $-1 #
coedge $-1 $336 $134 $131 $225 forward $230 $-1 #
edge $-1 $232 -11.580618756598076 $340 -2.1129562307385168 $224 $341 forward 7 unknown #
coedge $-1 $342 $343 $132 $227 forward $219 $-1 #
edge $-1 $344 50.354437492219823 $231 57.502346901004735 $226 $345 forward 7 unknown #
edge $-1 $232 -149.38688314462723 $344 -140.76494647048946 $133 $346 forward 7 unknown #
coedge $-1 $134 $336 $342 $347 reversed $230 $-1 #
loop $-1 $-1 $336 $218 #
vertex $-1 $347 $348 #
vertex $-1 $135 $349 #
straight-curve $-1 74.693441572313617 -18.427406250266372 107.68163916118517 0 0 -1 I I #
coedge $-1 $234 $234 $-1 $350 reversed $138 $-1 #
edge $-1 $351 0 $351 6.2831853071796004 $139 $352 forward 7 unknown #
vertex $-1 $142 $353 #
ellipse-curve $-1 71.11948686792114 -13.693574987336593 10.390517001618823 0.55919291073839883 0 0.82903756765294845 1.2435563514794228 0 -0.83878936610759824 1 I I #
face $-1 $-1 $354 $31 $-1 $355 forward single #
loop $-1 $-1 $149 $143 #
plane-surface $-1 74.693441572313617 0 0 -1 0 0 0 0 1 forward_v I I I I #
coedge $-1 $356 $357 $358 $359 reversed $144 $-1 #
coedge $-1 $360 $146 $148 $248 forward $90 $-1 #
coedge $-1 $146 $360 $356 $361 forward $90 $-1 #
coedge $-1 $358 $149 $146 $245 forward $239 $-1 #
edge $-1 $251 0.67970620124436376 $362 10.147368727103924 $244 $363 forward 7 unknown #
coedge $-1 $364 $365 $147 $247 forward $354 $-1 #
edge $-1 $366 50.354437492219823 $250 57.502346901004735 $246 $367 forward 7 unknown #
edge $-1 $251 -149.38688314462723 $366 -140.76494647048946 $148 $368 forward 7 unknown #
coedge $-1 $149 $358 $364 $369 reversed $239 $-1 #
vertex $-1 $369 $370 #
vertex $-1 $150 $371 #
straight-curve $-1 74.693441572313617 6.093243665418508 107.68163916118517 0 0 -1 I I #
coedge $-1 $253 $253 $-1 $372 reversed $153 $-1 #
edge $-1 $373 0 $373 6.2831853071796004 $154 $374 forward 7 unknown #
vertex $-1 $157 $375 #
ellipse-curve $-1 71.11948686792114 10.827074928348289 10.390517001618823 0.55919291073839883 0 0.82903756765294845 1.2435563514794228 0 -0.83878936610759824 1 I I #
face $-1 $-1 $269 $33 $-1 $376 forward single #
loop $-1 $-1 $377 $158 #
plane-surface $-1 -74.693441572313617 0 0 1 0 0 0 0 -1 forward_v I I I I #
coedge $-1 $378 $379 $380 $381 reversed $159 $-1 #
coedge $-1 $382 $161 $163 $267 forward $99 $-1 #
coedge $-1 $161 $382 $378 $383 forward $99 $-1 #
coedge $-1 $380 $164 $161 $264 forward $269 $-1 #
edge $-1 $271 -11.39205283241291 $384 -2.6786540032940227 $263 $385 forward 7 unknown #
coedge $-1 $386 $387 $162 $266 forward $258 $-1 #
edge $-1 $388 -41.300498650589262 $270 -37.870068708110381 $265 $389 forward 7 unknown #
edge $-1 $271 -4.3532780369355191 $388 -4.549391738598018e-014 $163 $390 forward 7 unknown #
coedge $-1 $164 $380 $386 $391 forward $269 $-1 #
loop $-1 $-1 $380 $257 #
vertex $-1 $266 $392 #
vertex $-1 $165 $393 #
straight-curve $-1 -96.205956585586023 -18.427406250266376 12.801179934125436 1 0 0 I I #
coedge $-1 $273 $273 $-1 $394 reversed $168 $-1 #
edge $-1 $395 0 $395 6.2831853071796004 $169 $396 forward 7 unknown #
vertex $-1 $172 $397 #
ellipse-curve $-1 -73.353368805948946 -15.937863727660979 11.085964962885994 -0.78801076186113728 0 0.61566146476048833 0.61566146476048833 0 0.78801076186113728 1 I I #
coedge $-1 $277 $277 $-1 $398 reversed $175 $-1 #
edge $-1 $399 0 $399 6.2831853071796004 $176 $400 forward 7 unknown #
vertex $-1 $179 $401 #
ellipse-curve $-1 -73.353368805948946 -12.203549943752883 11.085964962885994 -0.78801076186113728 0 0.61566146476048833 0.61566146476048833 0 0.78801076186113728 1 I I #
face $-1 $-1 $195 $27 $-1 $402 reversed single #
loop $-1 $-1 $297 $180 #
plane-surface $-1 0 30.61389358110339 0 0 -1 0 0 0 -1 forward_v I I I I #
coedge $-1 $403 $295 $298 $404 forward $181 $-1 #
coedge $-1 $301 $183 $184 $289 reversed $113 $-1 #
coedge $-1 $295 $403 $183 $287 reversed $181 $-1 #
edge $-1 $302 -12.801179934125434 $405 12.801179934125434 $286 $406 forward 7 unknown #
coedge $-1 $185 $184 $403 $407 forward $73 $-1 #
edge $-1 $293 -74.693441572313617 $405 74.693441572313617 $285 $408 forward 7 unknown #
coedge $-1 $298 $297 $185 $291 reversed $282 $-1 #
edge $-1 $409 -74.693441572313617 $292 74.693441572313617 $290 $410 forward 7 unknown #
vertex $-1 $187 $411 #
vertex $-1 $304 $412 #
straight-curve $-1 74.693441572313617 0 -12.801179934125434 0 -1 0 I I #
coedge $-1 $284 $286 $188 $296 reversed $181 $-1 #
edge $-1 $299 -30.61389358110339 $302 30.61389358110339 $295 $413 forward 7 unknown #
coedge $-1 $290 $189 $194 $305 forward $282 $-1 #
coedge $-1 $189 $290 $284 $404 reversed $282 $-1 #
vertex $-1 $190 $414 #
straight-curve $-1 0 30.61389358110339 12.801179934125434 -1 0 0 I I #
coedge $-1 $191 $285 $193 $304 reversed $113 $-1 #
vertex $-1 $296 $415 #
straight-curve $-1 0 -30.61389358110339 12.801179934125434 1 0 0 I I #
edge $-1 $196 -12.801179934125434 $293 12.801179934125434 $193 $416 forward 7 unknown #
edge $-1 $197 -12.801179934125434 $292 12.801179934125434 $194 $417 forward 7 unknown #
point $-1 74.693441572313617 -30.61389358110339 12.801179934125434 #
point $-1 74.693441572313617 30.61389358110339 12.801179934125434 #
face $-1 $-1 $214 $28 $-1 $418 reversed single #
loop $-1 $-1 $210 $199 #
plane-surface $-1 0 -30.61389358110339 0 0 1 0 0 0 1 forward_v I I I I #
coedge $-1 $419 $420 $207 $321 forward $200 $-1 #
coedge $-1 $322 $202 $204 $317 reversed $121 $-1 #
edge $-1 $319 -4.4770739079085589 $215 -0.66512184976361199 $213 $421 forward 7 unknown #
coedge $-1 $204 $203 $422 $423 reversed $77 $-1 #
coedge $-1 $326 $325 $203 $316 forward $309 $-1 #
edge $-1 $424 -74.693441572313617 $318 74.693441572313617 $315 $425 forward 7 unknown #
edge $-1 $426 -74.693441572313617 $319 74.693441572313617 $312 $427 forward 7 unknown #
vertex $-1 $316 $428 #
vertex $-1 $206 $429 #
straight-curve $-1 74.693441572313617 -12.260324957842441 -7.0481717867446445 0 1 0 I I #
edge $-1 $327 -18.353568623260948 $323 -6.1670812924239318 $311 $430 forward 7 unknown #
coedge $-1 $208 $312 $419 $431 reversed $121 $-1 #
vertex $-1 $321 $432 #
straight-curve $-1 0 -18.427406250266372 -3.2362197285996976 -1 0 0 I I #
coedge $-1 $315 $210 $420 $433 forward $309 $-1 #
coedge $-1 $210 $315 $212 $329 reversed $309 $-1 #
vertex $-1 $433 $434 #
straight-curve $-1 0 -30.61389358110339 -3.2362197285996976 -1 0 0 I I #
edge $-1 $216 3.2362197285996976 $318 7.0481717867446445 $212 $435 forward 7 unknown #
point $-1 74.693441572313617 -18.427406250266372 -3.2362197285996976 #
point $-1 74.693441572313617 -30.61389358110339 -3.2362197285996976 #
plane-surface $-1 74.693441572313617 0 0 -1 0 0 0 0 1 forward_v I I I I #
coedge $-1 $343 $342 $335 $436 forward $219 $-1 #
coedge $-1 $335 $221 $223 $339 reversed $129 $-1 #
coedge $-1 $221 $334 $333 $436 reversed $129 $-1 #
coedge $-1 $229 $224 $221 $337 forward $230 $-1 #
edge $-1 $340 -99.701785092072981 $437 -94.880459227059745 $336 $438 forward 7 unknown #
coedge $-1 $223 $222 $343 $439 reversed $81 $-1 #
edge $-1 $440 140.76494647048946 $340 149.38688314462723 $334 $441 forward 7 unknown #
vertex $-1 $225 $442 #
straight-curve $-1 74.693441572313617 -6.8467874936682964 7.9798540691121929 0 1 0 I I #
coedge $-1 $333 $226 $229 $347 forward $219 $-1 #
coedge $-1 $226 $333 $338 $439 forward $219 $-1 #
vertex $-1 $227 $443 #
straight-curve $-1 17.191094671308882 -18.427406250266372 12.801179934125429 1 0 0 I I #
straight-curve $-1 -49.153896669163387 -18.427406250266372 91.515940080893344 -0.82903756765294845 0 0.55919291073839883 I I #
edge $-1 $231 -18.427406250266372 $437 -8.9597437244068132 $229 $444 forward 7 unknown #
point $-1 74.693441572313617 -18.427406250266372 12.801179934125434 #
point $-1 74.693441572313617 -18.427406250266372 7.9798540691121929 #
edge $-1 $445 1 $445 0 $234 $-1 forward 7 unknown #
vertex $-1 $235 $446 #
ellipse-curve $-1 69.332499714100535 -13.693574987336593 7.7411996462284662 0.55919291073839883 0 0.82903756765294845 1.2435563514794228 0 -0.83878936610759824 1 I I #
point $-1 72.363043219400552 -13.693574987336593 9.5517276355112166 #
loop $-1 $-1 $246 $238 #
plane-surface $-1 0 0 12.801179934125434 0 0 1 1 0 0 forward_v I I I I #
coedge $-1 $357 $241 $243 $361 reversed $144 $-1 #
coedge $-1 $241 $356 $447 $448 reversed $144 $-1 #
coedge $-1 $249 $244 $241 $359 forward $239 $-1 #
edge $-1 $362 -99.701785092072981 $449 -94.880459227059745 $358 $450 forward 7 unknown #
coedge $-1 $243 $242 $365 $451 reversed $90 $-1 #
edge $-1 $452 140.76494647048946 $362 149.38688314462723 $356 $453 forward 7 unknown #
vertex $-1 $245 $454 #
straight-curve $-1 74.693441572313617 5.4135374641741443 7.9798540691121929 0 1 0 I I #
coedge $-1 $447 $246 $249 $369 forward $354 $-1 #
coedge $-1 $246 $447 $360 $451 forward $354 $-1 #
vertex $-1 $247 $455 #
straight-curve $-1 17.191094671308882 6.093243665418508 12.801179934125429 1 0 0 I I #
straight-curve $-1 -49.153896669163387 6.093243665418508 91.515940080893344 -0.82903756765294845 0 0.55919291073839883 I I #
edge $-1 $250 6.093243665418508 $449 15.560906191278068 $249 $456 forward 7 unknown #
point $-1 74.693441572313617 6.093243665418508 12.801179934125434 #
point $-1 74.693441572313617 6.093243665418508 7.9798540691121929 #
edge $-1 $457 1 $457 0 $253 $-1 forward 7 unknown #
vertex $-1 $254 $458 #
ellipse-curve $-1 69.332499714100535 10.827074928348289 7.7411996462284662 0.55919291073839883 0 0.82903756765294845 1.2435563514794228 0 -0.83878936610759824 1 I I #
point $-1 72.363043219400552 10.827074928348289 9.5517276355112166 #
plane-surface $-1 0 0 12.801179934125434 0 0 1 1 0 0 forward_v I I I I #
coedge $-1 $387 $386 $379 $459 forward $258 $-1 #
coedge $-1 $379 $260 $262 $383 reversed $159 $-1 #
coedge $-1 $260 $378 $377 $459 reversed $159 $-1 #
coedge $-1 $268 $263 $260 $381 forward $269 $-1 #
edge $-1 $384 -24.192660546001761 $460 -21.512515013272406 $380 $461 forward 7 unknown #
coedge $-1 $262 $261 $387 $462 reversed $99 $-1 #
edge $-1 $463 4.549391738598018e-014 $384 4.3532780369355191 $378 $464 forward 7 unknown #
vertex $-1 $264 $465 #
straight-curve $-1 -72.013296039584262 -7.0353534178534662 12.801179934125432 0 1 0 I I #
coedge $-1 $377 $265 $268 $391 reversed $258 $-1 #
coedge $-1 $265 $377 $382 $462 forward $258 $-1 #
vertex $-1 $266 $466 #
straight-curve $-1 -74.693441572313617 -18.427406250266376 50.671248642235817 0 0 1 I I #
straight-curve $-1 -74.693441572313645 -18.427406250266376 9.3707499916465196 -0.61566146476048833 0 -0.78801076186113728 I I #
edge $-1 $460 9.7140074211474889 $270 18.427406250266376 $386 $467 forward 7 unknown #
point $-1 -74.693441572313617 -18.427406250266376 12.801179934125434 #
point $-1 -72.013296039584262 -18.427406250266376 12.801179934125434 #
edge $-1 $468 1 $468 0 $273 $-1 forward 7 unknown #
vertex $-1 $274 $469 #
ellipse-curve $-1 -71.046741277852078 -15.937863727660979 9.2838300792824313 -0.78801076186113728 0 0.61566146476048833 0.61566146476048833 0 0.78801076186113728 1 I I #
point $-1 -72.737707341188425 -15.937863727660979 11.873975724747115 #
edge $-1 $470 1 $470 0 $277 $-1 forward 7 unknown #
vertex $-1 $278 $471 #
ellipse-curve $-1 -71.046741277852078 -12.203549943752883 9.2838300792824313 -0.78801076186113728 0 0.61566146476048833 0.61566146476048833 0 0.78801076186113728 1 I I #
point $-1 -72.737707341188425 -12.203549943752883 11.873975724747115 #
plane-surface $-1 74.693441572313617 0 0 -1 0 0 0 0 1 forward_v I I I I #
coedge $-1 $286 $284 $288 $407 reversed $181 $-1 #
edge $-1 $299 -12.801179934125434 $409 12.801179934125434 $298 $472 forward 7 unknown #
vertex $-1 $407 $473 #
straight-curve $-1 -74.693441572313617 -30.61389358110339 0 0 0 -1 I I #
edge $-1 $405 -30.61389358110339 $409 30.61389358110339 $403 $474 forward 7 unknown #
straight-curve $-1 0 -30.61389358110339 -12.801179934125434 -1 0 0 I I #
vertex $-1 $291 $475 #
straight-curve $-1 0 30.61389358110339 -12.801179934125434 1 0 0 I I #
point $-1 74.693441572313617 30.61389358110339 -12.801179934125434 #
point $-1 74.693441572313617 -30.61389358110339 -12.801179934125434 #
straight-curve $-1 -74.693441572313617 0 12.801179934125434 0 -1 0 I I #
point $-1 -74.693441572313617 30.61389358110339 12.801179934125434 #
point $-1 -74.693441572313617 -30.61389358110339 12.801179934125434 #
straight-curve $-1 74.693441572313617 -30.61389358110339 0 0 0 -1 I I #
straight-curve $-1 74.693441572313617 30.61389358110339 0 0 0 -1 I I #
plane-surface $-1 74.693441572313617 0 0 -1 0 0 0 0 1 forward_v I I I I #
coedge $-1 $422 $311 $322 $431 forward $200 $-1 #
coedge $-1 $311 $422 $325 $433 reversed $200 $-1 #
straight-curve $-1 74.693441572313617 -18.427406250266372 -2.5710978788360856 0 0 1 I I #
coedge $-1 $420 $419 $314 $423 forward $200 $-1 #
edge $-1 $426 6.1670812924239318 $424 18.353568623260948 $422 $476 forward 7 unknown #
vertex $-1 $316 $477 #
straight-curve $-1 0 -30.61389358110339 -7.0481717867446445 1 0 0 I I #
vertex $-1 $423 $478 #
straight-curve $-1 0 -18.427406250266372 -7.0481717867446445 1 0 0 I I #
point $-1 74.693441572313617 -30.61389358110339 -7.0481717867446445 #
point $-1 74.693441572313617 -18.427406250266372 -7.0481717867446445 #
straight-curve $-1 -74.693441572313617 -12.260324957842441 -3.2362197285996976 0 1 0 I I #
edge $-1 $323 0.66512184976361199 $426 4.4770739079085589 $419 $479 forward 7 unknown #
point $-1 -74.693441572313617 -18.427406250266372 -3.2362197285996976 #
edge $-1 $327 3.2362197285996976 $424 7.0481717867446445 $420 $480 forward 7 unknown #
point $-1 -74.693441572313617 -30.61389358110339 -3.2362197285996976 #
straight-curve $-1 74.693441572313617 -30.61389358110339 0 0 0 -1 I I #
edge $-1 $437 -57.502346901004735 $440 -50.354437492219823 $333 $481 forward 7 unknown #
vertex $-1 $436 $482 #
straight-curve $-1 74.693441572313617 -8.9597437244068132 107.68163916118517 0 0 1 I I #
edge $-1 $440 2.1129562307385168 $344 11.580618756598076 $343 $483 forward 7 unknown #
vertex $-1 $439 $484 #
straight-curve $-1 -49.153896669163387 -8.9597437244068132 91.515940080893344 0.82903756765294845 0 -0.55919291073839883 I I #
point $-1 74.693441572313617 -8.9597437244068132 7.9798540691121929 #
point $-1 67.545532163528705 -18.427406250266372 12.801179934125429 #
straight-curve $-1 74.693441572313617 0 12.801179934125434 0 1 0 I I #
vertex $-1 $350 $485 #
point $-1 70.576056065579962 -13.693574987336593 6.9024102801208675 #
coedge $-1 $365 $364 $357 $448 forward $354 $-1 #
edge $-1 $449 -57.502346901004735 $452 -50.354437492219823 $447 $486 forward 7 unknown #
vertex $-1 $448 $487 #
straight-curve $-1 74.693441572313617 15.560906191278068 107.68163916118517 0 0 1 I I #
edge $-1 $452 -10.147368727103924 $366 -0.67970620124436376 $365 $488 forward 7 unknown #
vertex $-1 $451 $489 #
straight-curve $-1 -49.153896669163387 15.560906191278068 91.515940080893344 0.82903756765294845 0 -0.55919291073839883 I I #
point $-1 74.693441572313617 15.560906191278068 7.9798540691121929 #
point $-1 67.545532163528705 6.093243665418508 12.801179934125429 #
straight-curve $-1 74.693441572313617 0 12.801179934125434 0 1 0 I I #
vertex $-1 $372 $490 #
point $-1 70.576056065579962 10.827074928348289 6.9024102801208675 #
edge $-1 $460 37.870068708110381 $463 41.300498650589262 $377 $491 forward 7 unknown #
vertex $-1 $391 $492 #
straight-curve $-1 -96.205956585586023 -9.7140074211474889 12.801179934125436 -1 0 0 I I #
edge $-1 $463 2.6786540032940227 $388 11.39205283241291 $387 $493 forward 7 unknown #
vertex $-1 $462 $494 #
straight-curve $-1 -74.693441572313645 -9.7140074211474889 9.3707499916465196 0.61566146476048833 0 0.78801076186113728 I I #
point $-1 -72.013296039584262 -9.7140074211474889 12.801179934125434 #
point $-1 -74.693441572313617 -18.427406250266376 9.3707499916465551 #
straight-curve $-1 -74.693441572313617 0 12.801179934125434 0 -1 0 I I #
vertex $-1 $394 $495 #
point $-1 -70.4310798130916 -15.937863727660979 10.071840841143569 #
vertex $-1 $398 $496 #
point $-1 -70.4310798130916 -12.203549943752883 10.071840841143569 #
straight-curve $-1 -74.693441572313617 30.61389358110339 0 0 0 -1 I I #
point $-1 -74.693441572313617 -30.61389358110339 -12.801179934125434 #
straight-curve $-1 -74.693441572313617 0 -12.801179934125434 0 1 0 I I #
point $-1 -74.693441572313617 30.61389358110339 -12.801179934125434 #
straight-curve $-1 -74.693441572313617 -12.260324957842441 -7.0481717867446445 0 -1 0 I I #
point $-1 -74.693441572313617 -30.61389358110339 -7.0481717867446445 #
point $-1 -74.693441572313617 -18.427406250266372 -7.0481717867446445 #
straight-curve $-1 -74.693441572313617 -18.427406250266372 -2.5710978788360856 0 0 -1 I I #
straight-curve $-1 -74.693441572313617 -30.61389358110339 0 0 0 -1 I I #
straight-curve $-1 17.191094671308882 -8.9597437244068132 12.801179934125429 -1 0 0 I I #
point $-1 74.693441572313617 -8.9597437244068132 12.801179934125434 #
straight-curve $-1 67.545532163528691 -6.8467874936682964 12.801179934125436 0 -1 0 I I #
point $-1 67.545532163528705 -8.9597437244068132 12.801179934125429 #
point $-1 68.493710347992945 -13.693574987336593 6.497643294749043 #
straight-curve $-1 17.191094671308882 15.560906191278068 12.801179934125429 -1 0 0 I I #
point $-1 74.693441572313617 15.560906191278068 12.801179934125434 #
straight-curve $-1 67.545532163528691 5.4135374641741443 12.801179934125436 0 -1 0 I I #
point $-1 67.545532163528705 15.560906191278068 12.801179934125429 #
point $-1 68.493710347992945 10.827074928348289 6.497643294749043 #
straight-curve $-1 -74.693441572313617 -9.7140074211474889 50.671248642235817 0 0 -1 I I #
point $-1 -74.693441572313617 -9.7140074211474889 12.801179934125434 #
straight-curve $-1 -74.693441572313617 -7.0353534178534662 9.3707499916465551 0 -1 0 I I #
point $-1 -74.693441572313617 -9.7140074211474889 9.3707499916465551 #
point $-1 -70.258730515990948 -15.937863727660979 8.6681686145219423 #
point $-1 -70.258730515990948 -12.203549943752883 8.6681686145219423 #
End-of-ACIS-data 