500 0 6 0           
7 Unknown 11 ACIS 5.0 NT 24 Thu Mar 25 21:53:35 1999 
-1 9.9999999999999995e-007 1e-010 
body $-1 $6 $-1 $7 #
body $-1 $8 $-1 $9 #
body $-1 $10 $-1 $11 #
body $-1 $12 $-1 $13 #
body $-1 $14 $-1 $15 #
body $-1 $16 $-1 $17 #
lump $-1 $-1 $18 $0 #
transform $-1 1 0 0 0 1 0 0 0 1 56.613055818353828 38.852689984290038 10.869196242530334 1 rotate no_reflect no_shear #
lump $-1 $-1 $19 $1 #
transform $-1 1 0 0 0 1 0 0 0 1 56.613055818353828 38.852689984290038 10.869196242530334 1 rotate no_reflect no_shear #
lump $-1 $-1 $20 $2 #
transform $-1 1 0 0 0 1 0 0 0 1 56.613055818353828 38.852689984290038 10.869196242530334 1 rotate no_reflect no_shear #
lump $-1 $-1 $21 $3 #
transform $-1 1 0 0 0 1 0 0 0 1 56.613055818353828 38.852689984290038 10.869196242530334 1 rotate no_reflect no_shear #
lump $-1 $-1 $22 $4 #
transform $-1 1 0 0 0 1 0 0 0 1 56.613055818353828 38.852689984290038 10.869196242530334 1 rotate no_reflect no_shear #
lump $-1 $-1 $23 $5 #
transform $-1 1 0 0 0 1 0 0 0 1 56.613055818353828 38.852689984290038 10.869196242530334 1 rotate no_reflect no_shear #
shell $-1 $-1 $-1 $24 $-1 $6 #
shell $-1 $-1 $-1 $25 $-1 $8 #
shell $-1 $-1 $-1 $26 $-1 $10 #
shell $-1 $-1 $-1 $27 $-1 $12 #
shell $-1 $-1 $-1 $28 $-1 $14 #
shell $-1 $-1 $-1 $29 $-1 $16 #
face $-1 $30 $31 $18 $-1 $32 forward single #
face $-1 $33 $34 $19 $-1 $35 reversed single #
face $-1 $36 $37 $20 $-1 $38 forward single #
face $-1 $39 $40 $21 $-1 $41 reversed single #
face $-1 $42 $43 $22 $-1 $44 forward single #
face $-1 $45 $46 $23 $-1 $47 forward single #
face $-1 $48 $49 $18 $-1 $50 reversed single #
loop $-1 $-1 $51 $24 #
plane-surface $-1 0 0 10.869196242530334 0 0 1 1 0 0 forward_v I I I I #
face $-1 $52 $53 $19 $-1 $54 reversed single #
loop $-1 $-1 $55 $25 #
plane-surface $-1 4.5004962864578708 -100.52005097257594 96.592708736704395 -1 0 0 0 -0.54463904215088732 0.83867056331134215 forward_v I I I I #
face $-1 $56 $57 $20 $-1 $58 forward single #
loop $-1 $59 $60 $26 #
cone-surface $-1 -5.7738913301992767 -29.621826292627457 2.9869682760016119 0 0.54463904215088732 -0.83867056331134215 3 0 0 1 I I 0 1 3 forward I I I I #
face $-1 $61 $62 $21 $-1 $63 reversed single #
loop $-1 $-1 $64 $27 #
plane-surface $-1 -35.484673185940551 89.269095529848954 129.30149484779011 1 0 0 0 -0.82903758062907751 -0.55919289150049634 forward_v I I I I #
face $-1 $65 $66 $22 $-1 $67 forward single #
loop $-1 $68 $69 $28 #
cone-surface $-1 -31.50128055118499 34.481657748640075 5.3854837461485259 0 -0.82903758062907751 -0.55919289150049634 1.5 0 0 1 I I 0 1 1.5 forward I I I I #
face $-1 $70 $71 $23 $-1 $72 forward single #
loop $-1 $73 $74 $29 #
cone-surface $-1 -25.526191599051646 34.481657748640075 5.3854837461485259 0 -0.82903758062907751 -0.55919289150049634 1.5 0 0 1 I I 0 1 1.5 forward I I I I #
face $-1 $75 $76 $18 $-1 $77 reversed single #
loop $-1 $-1 $78 $30 #
plane-surface $-1 0 0 -10.869196242530334 0 0 1 1 0 0 forward_v I I I I #
coedge $-1 $79 $80 $81 $82 forward $31 $-1 #
face $-1 $83 $84 $19 $-1 $85 reversed single #
loop $-1 $-1 $86 $33 #
plane-surface $-1 -5.7738913301992767 -38.852689984290052 1.6333019087938681 0 -0.54463904215088732 0.83867056331134215 1 0 0 forward_v I I I I #
coedge $-1 $87 $88 $89 $90 reversed $34 $-1 #
face $-1 $-1 $91 $20 $-1 $92 forward single #
loop $-1 $93 $94 $36 #
cone-surface $-1 -5.7738913301992767 -26.685018952285262 -1.5353183686258927 0 0.54463904215088732 -0.83867056331134215 1.5 0 0 1 I I -0.70710678118654768 0.70710678118654757 1.5 forward I I I I #
loop $-1 $-1 $95 $26 #
coedge $-1 $60 $60 $96 $97 reversed $37 $-1 #
face $-1 $98 $99 $21 $-1 $100 reversed single #
loop $-1 $-1 $101 $39 #
plane-surface $-1 -28.513736075118317 -4.5996061254849963 65.986258088301554 0 0.82903758062907751 0.55919289150049634 1 0 0 forward_v I I I I #
coedge $-1 $102 $103 $104 $105 reversed $40 $-1 #
face $-1 $-1 $106 $22 $-1 $107 forward single #
loop $-1 $108 $109 $42 #
cone-surface $-1 -31.50128055118499 32.626532142198215 4.1341857637631296 0 -0.82903758062907751 -0.55919289150049634 0.75 0 0 1 I I -0.70710678118654724 0.70710678118654768 0.75 forward I I I I #
loop $-1 $-1 $110 $28 #
coedge $-1 $69 $69 $111 $112 reversed $43 $-1 #
face $-1 $-1 $113 $23 $-1 $114 forward single #
loop $-1 $115 $116 $45 #
cone-surface $-1 -25.526191599051646 32.626532142198215 4.1341857637631296 0 -0.82903758062907751 -0.55919289150049634 0.75 0 0 1 I I -0.70710678118654724 0.70710678118654768 0.75 forward I I I I #
loop $-1 $-1 $117 $29 #
coedge $-1 $74 $74 $118 $119 reversed $46 $-1 #
face $-1 $120 $121 $18 $-1 $122 reversed single #
loop $-1 $-1 $123 $48 #
plane-surface $-1 0 -38.852689984290038 0 0 1 0 0 0 1 forward_v I I I I #
coedge $-1 $124 $125 $126 $127 forward $49 $-1 #
coedge $-1 $128 $51 $129 $130 forward $31 $-1 #
coedge $-1 $51 $128 $131 $132 forward $31 $-1 #
coedge $-1 $133 $134 $51 $82 reversed $135 $-1 #
edge $-1 $136 -38.852689984290038 $137 38.852689984290038 $81 $138 forward 7 unknown #
face $-1 $139 $140 $19 $-1 $141 reversed single #
loop $-1 $-1 $142 $52 #
plane-surface $-1 -16.048278946856424 -100.52005097257594 96.592708736704395 1 0 0 0 0.54463904215088732 -0.83867056331134215 forward_v I I I I #
coedge $-1 $143 $144 $145 $146 reversed $53 $-1 #
coedge $-1 $88 $55 $147 $148 reversed $34 $-1 #
coedge $-1 $55 $87 $143 $149 reversed $34 $-1 #
coedge $-1 $145 $150 $55 $90 forward $151 $-1 #
edge $-1 $152 11.407335501997935 $153 25.629365331091353 $89 $154 forward 7 unknown #
loop $-1 $-1 $96 $56 #
plane-surface $-1 -5.7738913301992767 -38.852689984290052 1.6333019087938681 0 -0.54463904215088732 0.83867056331134215 1 0 0 forward_v I I I I #
loop $-1 $-1 $155 $36 #
coedge $-1 $94 $94 $95 $156 reversed $57 $-1 #
coedge $-1 $95 $95 $94 $156 forward $59 $-1 #
coedge $-1 $96 $96 $60 $97 forward $91 $-1 #
edge $-1 $157 1.8695772115356723e-016 $157 6.2831853071796004 $96 $158 forward 7 unknown #
face $-1 $159 $160 $21 $-1 $161 reversed single #
loop $-1 $-1 $162 $61 #
plane-surface $-1 -21.542798964296082 89.269095529848954 129.30149484779011 -1 0 0 0 0.82903758062907751 0.55919289150049634 forward_v I I I I #
coedge $-1 $163 $164 $165 $166 reversed $62 $-1 #
coedge $-1 $103 $64 $167 $168 reversed $40 $-1 #
coedge $-1 $64 $102 $163 $169 reversed $40 $-1 #
coedge $-1 $165 $170 $64 $105 forward $171 $-1 #
edge $-1 $172 5.7818577806344393 $173 12.057227409994283 $104 $174 forward 7 unknown #
loop $-1 $-1 $111 $65 #
plane-surface $-1 -28.513736075118317 -4.5996061254849963 65.986258088301554 0 0.82903758062907751 0.55919289150049634 1 0 0 forward_v I I I I #
loop $-1 $-1 $175 $42 #
coedge $-1 $109 $109 $110 $176 reversed $66 $-1 #
coedge $-1 $110 $110 $109 $176 forward $68 $-1 #
coedge $-1 $111 $111 $69 $112 forward $106 $-1 #
edge $-1 $177 -1.7691300831151382e-015 $177 6.2831853071795987 $111 $178 forward 7 unknown #
loop $-1 $-1 $118 $70 #
plane-surface $-1 -28.513736075118317 -4.5996061254849963 65.986258088301554 0 0.82903758062907751 0.55919289150049634 1 0 0 forward_v I I I I #
loop $-1 $-1 $179 $45 #
coedge $-1 $116 $116 $117 $180 reversed $71 $-1 #
coedge $-1 $117 $117 $116 $180 forward $73 $-1 #
coedge $-1 $118 $118 $74 $119 forward $113 $-1 #
edge $-1 $181 -1.7691300831151382e-015 $181 6.2831853071795987 $118 $182 forward 7 unknown #
face $-1 $183 $184 $18 $-1 $185 reversed single #
loop $-1 $-1 $186 $75 #
plane-surface $-1 -56.613055818353828 0 0 1 0 0 0 0 -1 forward_v I I I I #
coedge $-1 $187 $131 $188 $189 forward $76 $-1 #
coedge $-1 $190 $78 $187 $191 forward $49 $-1 #
coedge $-1 $78 $190 $192 $193 forward $49 $-1 #
coedge $-1 $134 $133 $78 $127 reversed $135 $-1 #
edge $-1 $194 -38.852689984290038 $195 38.852689984290038 $126 $196 forward 7 unknown #
coedge $-1 $80 $79 $197 $198 forward $31 $-1 #
coedge $-1 $199 $200 $79 $130 reversed $184 $-1 #
edge $-1 $137 -56.613055818353828 $201 56.613055818353828 $129 $202 forward 7 unknown #
coedge $-1 $123 $203 $80 $132 reversed $76 $-1 #
edge $-1 $204 -56.613055818353828 $136 56.613055818353828 $131 $205 forward 7 unknown #
coedge $-1 $126 $81 $203 $206 forward $135 $-1 #
coedge $-1 $81 $126 $199 $207 reversed $135 $-1 #
loop $-1 $-1 $133 $183 #
vertex $-1 $82 $208 #
vertex $-1 $82 $209 #
straight-curve $-1 56.613055818353828 0 10.869196242530334 0 1 0 I I #
face $-1 $-1 $151 $19 $-1 $210 forward single #
loop $-1 $-1 $211 $83 #
plane-surface $-1 0 -38.852689984290038 0 0 1 0 0 0 1 forward_v I I I I #
coedge $-1 $212 $213 $214 $215 reversed $84 $-1 #
coedge $-1 $216 $86 $88 $149 forward $53 $-1 #
coedge $-1 $86 $216 $212 $217 forward $53 $-1 #
coedge $-1 $214 $89 $86 $146 forward $151 $-1 #
edge $-1 $153 -7.3874419515575092 $218 13.161333281756786 $145 $219 forward 7 unknown #
coedge $-1 $220 $221 $87 $148 forward $140 $-1 #
edge $-1 $222 -46.663052459558322 $152 -37.427158125821862 $147 $223 forward 7 unknown #
edge $-1 $153 -16.957826411529538 $222 -1.699746028866204e-014 $88 $224 forward 7 unknown #
coedge $-1 $89 $214 $220 $225 forward $151 $-1 #
loop $-1 $-1 $214 $139 #
vertex $-1 $148 $226 #
vertex $-1 $90 $227 #
straight-curve $-1 4.5004962864578708 -50.260025486287972 10.869196242530336 0 1 0 I I #
coedge $-1 $155 $155 $-1 $228 reversed $93 $-1 #
edge $-1 $229 0 $229 6.2831853071796004 $94 $230 forward 7 unknown #
vertex $-1 $97 $231 #
ellipse-curve $-1 -5.7738913301992767 -31.741675069743327 6.2512490756621073 0 -0.54463904215088732 0.83867056331134215 3 0 0 1 I I #
face $-1 $-1 $171 $21 $-1 $232 forward single #
loop $-1 $-1 $233 $98 #
plane-surface $-1 0 38.852689984290038 0 0 -1 0 0 0 -1 forward_v I I I I #
coedge $-1 $234 $235 $236 $237 reversed $99 $-1 #
coedge $-1 $238 $101 $103 $169 forward $62 $-1 #
coedge $-1 $101 $238 $234 $239 forward $62 $-1 #
coedge $-1 $236 $104 $101 $166 forward $171 $-1 #
edge $-1 $173 -21.227805148381393 $240 -7.2859309267369241 $165 $241 forward 7 unknown #
coedge $-1 $242 $243 $102 $168 forward $160 $-1 #
edge $-1 $244 -63.085169546608299 $172 -53.781551181364719 $167 $245 forward 7 unknown #
edge $-1 $173 66.483188619686146 $244 77.705379968580075 $103 $246 forward 7 unknown #
coedge $-1 $104 $236 $242 $247 forward $171 $-1 #
loop $-1 $-1 $236 $159 #
vertex $-1 $168 $248 #
vertex $-1 $105 $249 #
straight-curve $-1 -35.484673185940551 44.634547764924477 10.869196242530336 0 -1 0 I I #
coedge $-1 $175 $175 $-1 $250 reversed $108 $-1 #
edge $-1 $251 0 $251 6.2831853071796004 $109 $252 forward 7 unknown #
vertex $-1 $112 $253 #
ellipse-curve $-1 -31.50128055118499 35.715005169610116 6.2173870599085417 0 0.82903758062907751 0.55919289150049634 1.5 0 0 1 I I #
coedge $-1 $179 $179 $-1 $254 reversed $115 $-1 #
edge $-1 $255 0 $255 6.2831853071796004 $116 $256 forward 7 unknown #
vertex $-1 $119 $257 #
ellipse-curve $-1 -25.526191599051646 35.715005169610116 6.2173870599085417 0 0.82903758062907751 0.55919289150049634 1.5 0 0 1 I I #
face $-1 $-1 $135 $18 $-1 $258 reversed single #
loop $-1 $-1 $199 $120 #
plane-surface $-1 0 38.852689984290038 0 0 -1 0 0 0 -1 forward_v I I I I #
coedge $-1 $259 $197 $200 $260 forward $121 $-1 #
coedge $-1 $203 $123 $124 $191 reversed $76 $-1 #
coedge $-1 $197 $259 $123 $189 reversed $121 $-1 #
edge $-1 $204 -10.869196242530334 $261 10.869196242530334 $188 $262 forward 7 unknown #
coedge $-1 $125 $124 $259 $263 forward $49 $-1 #
edge $-1 $195 -56.613055818353828 $261 56.613055818353828 $187 $264 forward 7 unknown #
coedge $-1 $200 $199 $125 $193 reversed $184 $-1 #
edge $-1 $265 -56.613055818353828 $194 56.613055818353828 $192 $266 forward 7 unknown #
vertex $-1 $127 $267 #
vertex $-1 $206 $268 #
straight-curve $-1 56.613055818353828 0 -10.869196242530334 0 -1 0 I I #
coedge $-1 $186 $188 $128 $198 reversed $121 $-1 #
edge $-1 $201 -38.852689984290038 $204 38.852689984290038 $197 $269 forward 7 unknown #
coedge $-1 $192 $129 $134 $207 forward $184 $-1 #
coedge $-1 $129 $192 $186 $260 reversed $184 $-1 #
vertex $-1 $130 $270 #
straight-curve $-1 0 38.852689984290038 10.869196242530334 -1 0 0 I I #
coedge $-1 $131 $187 $133 $206 reversed $76 $-1 #
vertex $-1 $198 $271 #
straight-curve $-1 0 -38.852689984290038 10.869196242530334 1 0 0 I I #
edge $-1 $136 -10.869196242530334 $195 10.869196242530334 $133 $272 forward 7 unknown #
edge $-1 $137 -10.869196242530334 $194 10.869196242530334 $134 $273 forward 7 unknown #
point $-1 56.613055818353828 -38.852689984290038 10.869196242530334 #
point $-1 56.613055818353828 38.852689984290038 10.869196242530334 #
plane-surface $-1 0 0 10.869196242530334 0 0 1 1 0 0 forward_v I I I I #
coedge $-1 $221 $220 $213 $274 forward $140 $-1 #
coedge $-1 $213 $142 $144 $217 reversed $84 $-1 #
coedge $-1 $142 $212 $211 $274 reversed $84 $-1 #
coedge $-1 $150 $145 $142 $215 forward $151 $-1 #
edge $-1 $218 -25.629365331091353 $275 -11.407335501997935 $214 $276 forward 7 unknown #
coedge $-1 $144 $143 $221 $277 reversed $53 $-1 #
edge $-1 $278 1.699746028866204e-014 $218 16.957826411529538 $212 $279 forward 7 unknown #
vertex $-1 $146 $280 #
straight-curve $-1 -2.8869456650996383 -24.630660155196619 10.869196242530334 -1 0 0 I I #
coedge $-1 $211 $147 $150 $225 reversed $140 $-1 #
coedge $-1 $147 $211 $216 $277 forward $140 $-1 #
vertex $-1 $148 $281 #
straight-curve $-1 4.5004962864578708 -38.852689984290038 48.296354368352198 0 0 1 I I #
straight-curve $-1 4.5004962864578708 -38.852689984290052 1.6333019087938681 0 -0.83867056331134215 -0.54463904215088732 I I #
edge $-1 $275 -16.048278946856424 $152 4.5004962864578708 $220 $282 forward 7 unknown #
point $-1 4.5004962864578708 -38.852689984290038 10.869196242530334 #
point $-1 4.5004962864578708 -24.630660155196619 10.869196242530334 #
edge $-1 $283 1 $283 0 $155 $-1 forward 7 unknown #
vertex $-1 $156 $284 #
ellipse-curve $-1 -5.7738913301992767 -27.501977515511591 -0.27731252365887982 0 -0.54463904215088732 0.83867056331134215 3 0 0 1 I I #
point $-1 -2.7738913301992767 -31.741675069743323 6.2512490756621029 #
plane-surface $-1 0 0 10.869196242530334 0 0 1 1 0 0 forward_v I I I I #
coedge $-1 $243 $242 $235 $285 forward $160 $-1 #
coedge $-1 $235 $162 $164 $239 reversed $99 $-1 #
coedge $-1 $162 $234 $233 $285 reversed $99 $-1 #
coedge $-1 $170 $165 $162 $237 forward $171 $-1 #
edge $-1 $240 -12.057227409994283 $286 -5.7818577806344393 $236 $287 forward 7 unknown #
coedge $-1 $164 $163 $243 $288 reversed $62 $-1 #
edge $-1 $289 -77.705379968580075 $240 -66.483188619686146 $234 $290 forward 7 unknown #
vertex $-1 $166 $291 #
straight-curve $-1 -14.256868037559158 32.577320354930194 10.869196242530336 1 0 0 I I #
coedge $-1 $233 $167 $170 $247 reversed $160 $-1 #
coedge $-1 $167 $233 $238 $288 forward $160 $-1 #
vertex $-1 $168 $292 #
straight-curve $-1 -35.484673185940551 38.852689984290038 64.650747423895055 0 0 1 I I #
straight-curve $-1 -35.484673185940551 -4.5996061254849963 65.986258088301554 0 0.55919289150049634 -0.82903758062907751 I I #
edge $-1 $286 21.542798964296082 $172 35.484673185940551 $242 $293 forward 7 unknown #
point $-1 -35.484673185940551 38.852689984290038 10.869196242530334 #
point $-1 -35.484673185940551 32.577320354930194 10.869196242530329 #
edge $-1 $294 1 $294 0 $175 $-1 forward 7 unknown #
vertex $-1 $176 $295 #
ellipse-curve $-1 -31.50128055118499 33.248310327670026 4.5535804323885021 0 0.82903758062907751 0.55919289150049634 1.5 0 0 1 I I #
point $-1 -30.00128055118499 35.715005169610123 6.2173870599085497 #
edge $-1 $296 1 $296 0 $179 $-1 forward 7 unknown #
vertex $-1 $180 $297 #
ellipse-curve $-1 -25.526191599051646 33.248310327670026 4.5535804323885021 0 0.82903758062907751 0.55919289150049634 1.5 0 0 1 I I #
point $-1 -24.026191599051646 35.715005169610123 6.2173870599085497 #
plane-surface $-1 56.613055818353828 0 0 -1 0 0 0 0 1 forward_v I I I I #
coedge $-1 $188 $186 $190 $263 reversed $121 $-1 #
edge $-1 $201 -10.869196242530334 $265 10.869196242530334 $200 $298 forward 7 unknown #
vertex $-1 $263 $299 #
straight-curve $-1 -56.613055818353828 -38.852689984290038 0 0 0 -1 I I #
edge $-1 $261 -38.852689984290038 $265 38.852689984290038 $259 $300 forward 7 unknown #
straight-curve $-1 0 -38.852689984290038 -10.869196242530334 -1 0 0 I I #
vertex $-1 $193 $301 #
straight-curve $-1 0 38.852689984290038 -10.869196242530334 1 0 0 I I #
point $-1 56.613055818353828 38.852689984290038 -10.869196242530334 #
point $-1 56.613055818353828 -38.852689984290038 -10.869196242530334 #
straight-curve $-1 -56.613055818353828 0 10.869196242530334 0 -1 0 I I #
point $-1 -56.613055818353828 38.852689984290038 10.869196242530334 #
point $-1 -56.613055818353828 -38.852689984290038 10.869196242530334 #
straight-curve $-1 56.613055818353828 -38.852689984290038 0 0 0 -1 I I #
straight-curve $-1 56.613055818353828 38.852689984290038 0 0 0 -1 I I #
edge $-1 $275 37.427158125821862 $278 46.663052459558322 $211 $302 forward 7 unknown #
vertex $-1 $225 $303 #
straight-curve $-1 -16.048278946856424 -50.260025486287972 10.869196242530336 0 -1 0 I I #
edge $-1 $278 -13.161333281756786 $222 7.3874419515575092 $221 $304 forward 7 unknown #
vertex $-1 $277 $305 #
straight-curve $-1 -16.048278946856424 -38.852689984290052 1.6333019087938681 0 0.83867056331134215 0.54463904215088732 I I #
point $-1 -16.048278946856424 -24.630660155196619 10.869196242530334 #
point $-1 4.5004962864578708 -38.852689984290038 1.6333019087938774 #
straight-curve $-1 0 -38.852689984290038 10.869196242530334 1 0 0 I I #
vertex $-1 $228 $306 #
point $-1 -2.7738913301992767 -27.501977515511591 -0.27731252365887982 #
edge $-1 $286 53.781551181364719 $289 63.085169546608299 $233 $307 forward 7 unknown #
vertex $-1 $247 $308 #
straight-curve $-1 -21.542798964296082 44.634547764924477 10.869196242530336 0 1 0 I I #
edge $-1 $289 7.2859309267369241 $244 21.227805148381393 $243 $309 forward 7 unknown #
vertex $-1 $288 $310 #
straight-curve $-1 -21.542798964296082 -4.5996061254849963 65.986258088301554 0 -0.55919289150049634 0.82903758062907751 I I #
point $-1 -21.542798964296082 32.577320354930194 10.869196242530329 #
point $-1 -35.484673185940551 38.852689984290038 1.5655778772867563 #
straight-curve $-1 0 38.852689984290038 10.869196242530334 -1 0 0 I I #
vertex $-1 $250 $311 #
point $-1 -30.00128055118499 33.248310327670026 4.5535804323885021 #
vertex $-1 $254 $312 #
point $-1 -24.026191599051646 33.248310327670026 4.5535804323885021 #
straight-curve $-1 -56.613055818353828 38.852689984290038 0 0 0 -1 I I #
point $-1 -56.613055818353828 -38.852689984290038 -10.869196242530334 #
straight-curve $-1 -56.613055818353828 0 -10.869196242530334 0 1 0 I I #
point $-1 -56.613055818353828 38.852689984290038 -10.869196242530334 #
straight-curve $-1 -16.048278946856424 -38.852689984290038 48.296354368352198 0 0 -1 I I #
point $-1 -16.048278946856424 -38.852689984290038 10.869196242530334 #
straight-curve $-1 -2.8869456650996383 -38.852689984290038 1.6333019087938794 1 0 0 I I #
point $-1 -16.048278946856424 -38.852689984290038 1.6333019087938774 #
point $-1 -5.7738913301992767 -25.868060389058932 -2.7933242135929053 #
straight-curve $-1 -21.542798964296082 38.852689984290038 64.650747423895055 0 0 -1 I I #
point $-1 -21.542798964296082 38.852689984290038 10.869196242530334 #
straight-curve $-1 -14.256868037559158 38.852689984290038 1.5655778772867528 -1 0 0 I I #
point $-1 -21.542798964296082 38.852689984290038 1.5655778772867563 #
point $-1 -31.50128055118499 32.004753956726404 3.7147910951377572 #
point $-1 -25.526191599051646 32.004753956726404 3.7147910951377572 #
End-of-ACIS-data 