500 0 7 0           
7 Unknown 11 ACIS 5.0 NT 24 Fri Mar 26 02:07:03 1999 
-1 9.9999999999999995e-007 1e-010 
body $-1 $7 $-1 $8 #
body $-1 $9 $-1 $10 #
body $-1 $11 $-1 $12 #
body $-1 $13 $-1 $14 #
body $-1 $15 $-1 $16 #
body $-1 $17 $-1 $18 #
body $-1 $19 $-1 $20 #
lump $-1 $-1 $21 $0 #
transform $-1 1 0 0 0 1 0 0 0 1 58.242744224372082 27.049006149748365 6.6331853393868228 1 rotate no_reflect no_shear #
lump $-1 $-1 $22 $1 #
transform $-1 1 0 0 0 1 0 0 0 1 58.242744224372082 27.049006149748365 6.6331853393868228 1 rotate no_reflect no_shear #
lump $-1 $-1 $23 $2 #
transform $-1 1 0 0 0 1 0 0 0 1 58.242744224372082 27.049006149748365 6.6331853393868228 1 rotate no_reflect no_shear #
lump $-1 $-1 $24 $3 #
transform $-1 1 0 0 0 1 0 0 0 1 58.242744224372082 27.049006149748365 6.6331853393868228 1 rotate no_reflect no_shear #
lump $-1 $-1 $25 $4 #
transform $-1 1 0 0 0 1 0 0 0 1 58.242744224372082 27.049006149748365 6.6331853393868228 1 rotate no_reflect no_shear #
lump $-1 $-1 $26 $5 #
transform $-1 1 0 0 0 1 0 0 0 1 58.242744224372082 27.049006149748365 6.6331853393868228 1 rotate no_reflect no_shear #
lump $-1 $-1 $27 $6 #
transform $-1 1 0 0 0 1 0 0 0 1 58.242744224372082 27.049006149748365 6.6331853393868228 1 rotate no_reflect no_shear #
shell $-1 $-1 $-1 $28 $-1 $7 #
shell $-1 $-1 $-1 $29 $-1 $9 #
shell $-1 $-1 $-1 $30 $-1 $11 #
shell $-1 $-1 $-1 $31 $-1 $13 #
shell $-1 $-1 $-1 $32 $-1 $15 #
shell $-1 $-1 $-1 $33 $-1 $17 #
shell $-1 $-1 $-1 $34 $-1 $19 #
face $-1 $35 $36 $21 $-1 $37 forward single #
face $-1 $38 $39 $22 $-1 $40 reversed single #
face $-1 $41 $42 $23 $-1 $43 reversed single #
face $-1 $44 $45 $24 $-1 $46 forward single #
face $-1 $47 $48 $25 $-1 $49 forward single #
face $-1 $50 $51 $26 $-1 $52 reversed single #
face $-1 $53 $54 $27 $-1 $55 forward single #
face $-1 $56 $57 $21 $-1 $58 reversed single #
loop $-1 $-1 $59 $28 #
plane-surface $-1 0 0 6.6331853393868228 0 0 1 1 0 0 forward_v I I I I #
face $-1 $60 $61 $22 $-1 $62 reversed single #
loop $-1 $-1 $63 $29 #
plane-surface $-1 0 -23.002315711527906 3.4783179349797093 0 0 1 1 0 0 forward_v I I I I #
face $-1 $64 $65 $23 $-1 $66 reversed single #
loop $-1 $-1 $67 $30 #
plane-surface $-1 72.600378787036561 9.3221937956749912 166.29392262601525 0 -1 0 -0.7660444514056185 0 -0.64278759981090561 forward_v I I I I #
face $-1 $68 $69 $24 $-1 $70 forward single #
loop $-1 $71 $72 $31 #
cone-surface $-1 55.326117688747551 1.3151831830858391 3.5277738505508136 -0.7660444514056185 0 -0.64278759981090561 0.64278759981090561 0 -0.7660444514056185 1 I I 0 1 1 forward I I I I #
face $-1 $73 $74 $25 $-1 $75 forward single #
loop $-1 $76 $77 $32 #
cone-surface $-1 55.326117688747551 6.1193895506393261 3.5277738505508136 -0.7660444514056185 0 -0.64278759981090561 0.64278759981090561 0 -0.7660444514056185 1 I I 0 1 1 forward I I I I #
face $-1 $78 $79 $26 $-1 $80 reversed single #
loop $-1 $-1 $81 $33 #
plane-surface $-1 -160.12324890560853 14.204249393425556 56.93731411073405 0 1 0 -0.87461971476443456 0 0.48480960649040278 forward_v I I I I #
face $-1 $82 $83 $27 $-1 $84 forward single #
loop $-1 $85 $86 $34 #
cone-surface $-1 -55.176282878040809 20.626627771586961 2.7966032676482353 0.87461971476443456 0 -0.48480960649040278 0.72721440973560414 0 1.311929572146652 1 I I 0 1 1.5 forward I I I I #
face $-1 $87 $88 $21 $-1 $89 reversed single #
loop $-1 $-1 $90 $35 #
plane-surface $-1 0 0 -6.6331853393868228 0 0 1 1 0 0 forward_v I I I I #
coedge $-1 $91 $92 $93 $94 forward $36 $-1 #
face $-1 $95 $96 $22 $-1 $97 reversed single #
loop $-1 $-1 $98 $38 #
plane-surface $-1 0 -18.955625273307447 5.055751637183266 0 -1 0 0 0 -1 forward_v I I I I #
coedge $-1 $99 $100 $101 $102 reversed $39 $-1 #
face $-1 $103 $104 $23 $-1 $105 reversed single #
loop $-1 $-1 $106 $41 #
plane-surface $-1 -16.632683308397176 3.7172863668625844 91.418495093246008 0.7660444514056185 0 0.64278759981090561 0.64278759981090561 0 -0.7660444514056185 forward_v I I I I #
coedge $-1 $107 $108 $109 $110 reversed $42 $-1 #
face $-1 $-1 $111 $24 $-1 $112 forward single #
loop $-1 $113 $114 $44 #
cone-surface $-1 53.892522553256235 1.3151831830858391 2.3248447325966355 -0.7660444514056185 0 -0.64278759981090561 0.3213937999054528 0 -0.38302222570280925 1 I I -0.70710678118654746 0.70710678118654746 0.5 forward I I I I #
loop $-1 $-1 $115 $31 #
coedge $-1 $72 $72 $116 $117 reversed $45 $-1 #
face $-1 $-1 $118 $25 $-1 $119 forward single #
loop $-1 $120 $121 $47 #
cone-surface $-1 53.892522553256235 6.1193895506393261 2.3248447325966355 -0.7660444514056185 0 -0.64278759981090561 0.3213937999054528 0 -0.38302222570280925 1 I I -0.70710678118654746 0.70710678118654746 0.5 forward I I I I #
loop $-1 $-1 $122 $32 #
coedge $-1 $77 $77 $123 $124 reversed $48 $-1 #
face $-1 $125 $126 $26 $-1 $127 forward single #
loop $-1 $-1 $128 $50 #
plane-surface $-1 -58.242744224372075 20.626627771586961 0.46403029405603036 -0.87461971476443456 0 0.48480960649040278 0.48480960649040278 0 0.87461971476443456 forward_v I I I I #
coedge $-1 $129 $130 $131 $132 reversed $51 $-1 #
face $-1 $-1 $133 $27 $-1 $134 forward single #
loop $-1 $135 $136 $53 #
cone-surface $-1 -53.163665922937142 20.626627771586961 1.6809915137072435 0.87461971476443456 0 -0.48480960649040278 0.36360720486780207 0 0.65596478607332598 1 I I -0.70710678118654757 0.70710678118654757 0.75 forward I I I I #
loop $-1 $-1 $137 $34 #
coedge $-1 $86 $86 $138 $139 reversed $54 $-1 #
face $-1 $140 $141 $21 $-1 $142 reversed single #
loop $-1 $-1 $143 $56 #
plane-surface $-1 0 -27.049006149748365 0 0 1 0 0 0 1 forward_v I I I I #
coedge $-1 $144 $145 $146 $147 forward $57 $-1 #
coedge $-1 $148 $59 $149 $150 forward $36 $-1 #
coedge $-1 $59 $148 $151 $152 forward $36 $-1 #
coedge $-1 $153 $154 $59 $94 reversed $155 $-1 #
edge $-1 $156 -27.049006149748365 $157 27.049006149748365 $93 $158 forward 7 unknown #
face $-1 $159 $160 $22 $-1 $161 reversed single #
loop $-1 $-1 $162 $60 #
plane-surface $-1 -58.242744224372082 0 0 1 0 0 0 0 -1 forward_v I I I I #
coedge $-1 $163 $164 $165 $166 reversed $61 $-1 #
coedge $-1 $167 $63 $168 $169 reversed $39 $-1 #
coedge $-1 $63 $167 $163 $170 forward $39 $-1 #
coedge $-1 $165 $171 $63 $102 forward $172 $-1 #
edge $-1 $173 -15.547848293984412 $174 -7.4544674175434942 $101 $175 forward 7 unknown #
face $-1 $176 $177 $23 $-1 $178 reversed single #
loop $-1 $-1 $179 $64 #
plane-surface $-1 72.600378787036561 -1.8876210619498224 166.29392262601525 0 1 0 0.7660444514056185 0 0.64278759981090561 forward_v I I I I #
coedge $-1 $180 $181 $182 $183 reversed $65 $-1 #
coedge $-1 $108 $67 $184 $185 reversed $42 $-1 #
coedge $-1 $67 $107 $180 $186 reversed $42 $-1 #
coedge $-1 $182 $187 $67 $110 forward $188 $-1 #
edge $-1 $189 -21.942554830853801 $190 -18.210447579181732 $109 $191 forward 7 unknown #
loop $-1 $-1 $116 $68 #
plane-surface $-1 -16.632683308397176 3.7172863668625844 91.418495093246008 0.7660444514056185 0 0.64278759981090561 0.64278759981090561 0 -0.7660444514056185 forward_v I I I I #
loop $-1 $-1 $192 $44 #
coedge $-1 $114 $114 $115 $193 reversed $69 $-1 #
coedge $-1 $115 $115 $114 $193 forward $71 $-1 #
coedge $-1 $116 $116 $72 $117 forward $111 $-1 #
edge $-1 $194 0 $194 6.2831853071796004 $116 $195 forward 7 unknown #
loop $-1 $-1 $123 $73 #
plane-surface $-1 -16.632683308397176 3.7172863668625844 91.418495093246008 0.7660444514056185 0 0.64278759981090561 0.64278759981090561 0 -0.7660444514056185 forward_v I I I I #
loop $-1 $-1 $196 $47 #
coedge $-1 $121 $121 $122 $197 reversed $74 $-1 #
coedge $-1 $122 $122 $121 $197 forward $76 $-1 #
coedge $-1 $123 $123 $77 $124 forward $118 $-1 #
edge $-1 $198 0 $198 6.2831853071796004 $123 $199 forward 7 unknown #
face $-1 $200 $201 $26 $-1 $202 reversed single #
loop $-1 $-1 $131 $78 #
plane-surface $-1 0 0 6.6331853393868228 0 0 1 1 0 0 forward_v I I I I #
coedge $-1 $203 $204 $205 $206 reversed $79 $-1 #
coedge $-1 $130 $81 $207 $208 reversed $51 $-1 #
coedge $-1 $81 $129 $203 $209 reversed $51 $-1 #
coedge $-1 $205 $210 $81 $132 forward $126 $-1 #
edge $-1 $211 21.818880228432185 $212 25.238498583034051 $131 $213 forward 7 unknown #
loop $-1 $-1 $138 $82 #
plane-surface $-1 -58.242744224372075 20.626627771586961 0.46403029405603036 -0.87461971476443456 0 0.48480960649040278 0.48480960649040278 0 0.87461971476443456 forward_v I I I I #
loop $-1 $-1 $214 $53 #
coedge $-1 $136 $136 $137 $215 reversed $83 $-1 #
coedge $-1 $137 $137 $136 $215 forward $85 $-1 #
coedge $-1 $138 $138 $86 $139 forward $133 $-1 #
edge $-1 $216 0 $216 6.2831853071796004 $138 $217 forward 7 unknown #
face $-1 $218 $219 $21 $-1 $220 reversed single #
loop $-1 $-1 $221 $87 #
plane-surface $-1 -58.242744224372082 0 0 1 0 0 0 0 -1 forward_v I I I I #
coedge $-1 $222 $151 $223 $224 forward $88 $-1 #
coedge $-1 $225 $90 $222 $226 forward $57 $-1 #
coedge $-1 $90 $225 $227 $228 forward $57 $-1 #
coedge $-1 $154 $153 $90 $147 reversed $155 $-1 #
edge $-1 $229 -27.049006149748365 $230 27.049006149748365 $146 $231 forward 7 unknown #
coedge $-1 $92 $91 $232 $233 forward $36 $-1 #
coedge $-1 $234 $235 $91 $150 reversed $219 $-1 #
edge $-1 $157 -58.242744224372082 $236 58.242744224372082 $149 $237 forward 7 unknown #
coedge $-1 $143 $238 $92 $152 reversed $88 $-1 #
edge $-1 $239 -58.242744224372082 $156 58.242744224372082 $151 $240 forward 7 unknown #
coedge $-1 $146 $93 $238 $241 forward $155 $-1 #
coedge $-1 $93 $146 $234 $242 reversed $155 $-1 #
loop $-1 $-1 $153 $218 #
vertex $-1 $94 $243 #
vertex $-1 $94 $244 #
straight-curve $-1 58.242744224372082 0 6.6331853393868228 0 1 0 I I #
face $-1 $245 $246 $22 $-1 $247 forward single #
loop $-1 $-1 $168 $95 #
plane-surface $-1 0 -27.049006149748365 0 0 1 0 0 0 1 forward_v I I I I #
coedge $-1 $248 $249 $250 $251 forward $96 $-1 #
coedge $-1 $250 $98 $100 $170 reversed $61 $-1 #
coedge $-1 $98 $250 $252 $253 reversed $61 $-1 #
coedge $-1 $254 $101 $98 $166 forward $172 $-1 #
edge $-1 $174 0.9504421163880763 $255 4.1053095207951902 $165 $256 forward 7 unknown #
coedge $-1 $100 $99 $248 $257 reversed $39 $-1 #
coedge $-1 $258 $259 $99 $169 forward $160 $-1 #
edge $-1 $260 -58.242744224372082 $173 58.242744224372082 $168 $261 forward 7 unknown #
edge $-1 $262 -58.242744224372082 $174 58.242744224372082 $163 $263 forward 7 unknown #
coedge $-1 $101 $254 $258 $264 forward $172 $-1 #
loop $-1 $-1 $165 $245 #
vertex $-1 $169 $265 #
vertex $-1 $102 $266 #
straight-curve $-1 58.242744224372082 -11.501157855763953 3.4783179349797093 0 1 0 I I #
face $-1 $-1 $188 $23 $-1 $267 forward single #
loop $-1 $-1 $268 $103 #
plane-surface $-1 58.242744224372082 0 0 -1 0 0 0 0 1 forward_v I I I I #
coedge $-1 $269 $270 $271 $272 reversed $104 $-1 #
coedge $-1 $273 $106 $108 $186 forward $65 $-1 #
coedge $-1 $106 $273 $269 $274 forward $65 $-1 #
coedge $-1 $271 $109 $106 $183 forward $188 $-1 #
edge $-1 $190 -7.463550612243699 $275 3.7462642453811146 $182 $276 forward 7 unknown #
coedge $-1 $277 $278 $107 $185 forward $177 $-1 #
edge $-1 $279 -80.96152831519538 $189 -76.513775973620795 $184 $280 forward 7 unknown #
edge $-1 $190 110.6793601837155 $279 116.48548844874423 $108 $281 forward 7 unknown #
coedge $-1 $109 $271 $277 $282 forward $188 $-1 #
loop $-1 $-1 $271 $176 #
vertex $-1 $185 $283 #
vertex $-1 $110 $284 #
straight-curve $-1 36.300189393518281 9.3221937956749912 6.6331853393868272 -1 0 0 I I #
coedge $-1 $192 $192 $-1 $285 reversed $113 $-1 #
edge $-1 $286 0 $286 6.2831853071796004 $114 $287 forward 7 unknown #
vertex $-1 $117 $288 #
ellipse-curve $-1 56.376690598536058 1.3151831830858391 4.4093091685995365 0.7660444514056185 0 0.64278759981090561 0.64278759981090561 0 -0.7660444514056185 1 I I #
coedge $-1 $196 $196 $-1 $289 reversed $120 $-1 #
edge $-1 $290 0 $290 6.2831853071796004 $121 $291 forward 7 unknown #
vertex $-1 $124 $292 #
ellipse-curve $-1 56.376690598536058 6.1193895506393261 4.4093091685995365 0.7660444514056185 0 0.64278759981090561 0.64278759981090561 0 -0.7660444514056185 1 I I #
face $-1 $-1 $293 $26 $-1 $294 reversed single #
loop $-1 $-1 $295 $125 #
plane-surface $-1 0 27.049006149748365 0 0 -1 0 0 0 -1 forward_v I I I I #
coedge $-1 $296 $128 $130 $209 forward $79 $-1 #
coedge $-1 $128 $296 $295 $297 reversed $79 $-1 #
coedge $-1 $298 $131 $128 $206 forward $126 $-1 #
edge $-1 $212 3.8909355076320757 $299 16.735692263954885 $205 $300 forward 7 unknown #
coedge $-1 $301 $302 $129 $208 forward $293 $-1 #
edge $-1 $303 -28.004626761311009 $211 -21.835471715980201 $207 $304 forward 7 unknown #
edge $-1 $212 -7.0535284549266759 $303 1.4660094457350279e-014 $130 $305 forward 7 unknown #
coedge $-1 $131 $298 $301 $306 forward $126 $-1 #
vertex $-1 $208 $307 #
vertex $-1 $132 $308 #
straight-curve $-1 -80.061624452804267 14.204249393425556 6.6331853393868236 1 0 0 I I #
coedge $-1 $214 $214 $-1 $309 reversed $135 $-1 #
edge $-1 $310 0 $310 6.2831853071796004 $136 $311 forward 7 unknown #
vertex $-1 $139 $312 #
ellipse-curve $-1 -56.532935047071149 20.626627771586961 3.5486078167214239 -0.87461971476443456 0 0.48480960649040278 0.72721440973560414 0 1.311929572146652 1 I I #
face $-1 $-1 $155 $21 $-1 $313 reversed single #
loop $-1 $-1 $234 $140 #
plane-surface $-1 0 27.049006149748365 0 0 -1 0 0 0 -1 forward_v I I I I #
coedge $-1 $314 $232 $235 $315 forward $141 $-1 #
coedge $-1 $238 $143 $144 $226 reversed $88 $-1 #
coedge $-1 $232 $314 $143 $224 reversed $141 $-1 #
edge $-1 $239 -6.6331853393868228 $316 6.6331853393868228 $223 $317 forward 7 unknown #
coedge $-1 $145 $144 $314 $318 forward $57 $-1 #
edge $-1 $230 -58.242744224372082 $316 58.242744224372082 $222 $319 forward 7 unknown #
coedge $-1 $235 $234 $145 $228 reversed $219 $-1 #
edge $-1 $320 -58.242744224372082 $229 58.242744224372082 $227 $321 forward 7 unknown #
vertex $-1 $147 $322 #
vertex $-1 $241 $323 #
straight-curve $-1 58.242744224372082 0 -6.6331853393868228 0 -1 0 I I #
coedge $-1 $221 $223 $148 $233 reversed $141 $-1 #
edge $-1 $236 -27.049006149748365 $239 27.049006149748365 $232 $324 forward 7 unknown #
coedge $-1 $227 $149 $154 $242 forward $219 $-1 #
coedge $-1 $149 $227 $221 $315 reversed $219 $-1 #
vertex $-1 $150 $325 #
straight-curve $-1 0 27.049006149748365 6.6331853393868228 -1 0 0 I I #
coedge $-1 $151 $222 $153 $241 reversed $88 $-1 #
vertex $-1 $233 $326 #
straight-curve $-1 0 -27.049006149748365 6.6331853393868228 1 0 0 I I #
edge $-1 $156 -6.6331853393868228 $230 6.6331853393868228 $153 $327 forward 7 unknown #
edge $-1 $157 -6.6331853393868228 $229 6.6331853393868228 $154 $328 forward 7 unknown #
point $-1 58.242744224372082 -27.049006149748365 6.6331853393868228 #
point $-1 58.242744224372082 27.049006149748365 6.6331853393868228 #
face $-1 $-1 $172 $22 $-1 $329 reversed single #
loop $-1 $-1 $252 $159 #
plane-surface $-1 0 0 6.6331853393868228 0 0 1 1 0 0 forward_v I I I I #
coedge $-1 $330 $162 $167 $257 forward $96 $-1 #
coedge $-1 $162 $330 $331 $332 reversed $96 $-1 #
coedge $-1 $164 $163 $162 $251 reversed $61 $-1 #
edge $-1 $333 -4.1053095207951902 $262 -0.9504421163880763 $162 $334 forward 7 unknown #
coedge $-1 $331 $335 $164 $253 forward $246 $-1 #
edge $-1 $255 -58.242744224372082 $333 58.242744224372082 $252 $336 forward 7 unknown #
coedge $-1 $171 $165 $335 $337 reversed $172 $-1 #
vertex $-1 $166 $338 #
straight-curve $-1 58.242744224372082 -18.955625273307447 2.527875818591633 0 0 1 I I #
edge $-1 $262 7.4544674175434942 $260 15.547848293984412 $248 $339 forward 7 unknown #
coedge $-1 $340 $168 $171 $264 reversed $160 $-1 #
coedge $-1 $168 $340 $330 $341 forward $160 $-1 #
vertex $-1 $169 $342 #
straight-curve $-1 0 -27.049006149748365 3.4783179349797093 1 0 0 I I #
vertex $-1 $257 $343 #
straight-curve $-1 0 -18.955625273307447 3.4783179349797093 1 0 0 I I #
edge $-1 $344 -6.6331853393868228 $173 -3.4783179349797093 $171 $345 forward 7 unknown #
point $-1 58.242744224372082 -27.049006149748365 3.4783179349797093 #
point $-1 58.242744224372082 -18.955625273307447 3.4783179349797093 #
plane-surface $-1 0 0 6.6331853393868228 0 0 1 1 0 0 forward_v I I I I #
coedge $-1 $278 $277 $270 $346 forward $177 $-1 #
coedge $-1 $270 $179 $181 $274 reversed $104 $-1 #
coedge $-1 $179 $269 $268 $346 reversed $104 $-1 #
coedge $-1 $187 $182 $179 $272 forward $188 $-1 #
edge $-1 $275 18.210447579181732 $347 21.942554830853801 $271 $348 forward 7 unknown #
coedge $-1 $181 $180 $278 $349 reversed $65 $-1 #
edge $-1 $350 -116.48548844874423 $275 -110.6793601837155 $269 $351 forward 7 unknown #
vertex $-1 $183 $352 #
straight-curve $-1 54.510636972700013 1.8586431834312922 6.6331853393868272 0 -1 0 I I #
coedge $-1 $268 $184 $187 $282 reversed $177 $-1 #
coedge $-1 $184 $268 $273 $349 forward $177 $-1 #
vertex $-1 $185 $353 #
straight-curve $-1 58.242744224372082 9.3221937956749912 83.146961313007623 0 0 1 I I #
straight-curve $-1 -16.632683308397176 9.3221937956749912 91.418495093246008 0.64278759981090561 0 -0.7660444514056185 I I #
edge $-1 $347 -1.8876210619498224 $189 9.3221937956749912 $277 $354 forward 7 unknown #
point $-1 58.242744224372082 9.3221937956749912 6.6331853393868228 #
point $-1 54.510636972700013 9.3221937956749912 6.6331853393868272 #
edge $-1 $355 1 $355 0 $192 $-1 forward 7 unknown #
vertex $-1 $193 $356 #
ellipse-curve $-1 54.275544778959045 1.3151831830858391 2.6462385325020881 0.7660444514056185 0 0.64278759981090561 0.64278759981090561 0 -0.7660444514056185 1 I I #
point $-1 57.01947819834696 1.3151831830858391 3.6432647171939196 #
edge $-1 $357 1 $357 0 $196 $-1 forward 7 unknown #
vertex $-1 $197 $358 #
ellipse-curve $-1 54.275544778959045 6.1193895506393261 2.6462385325020881 0.7660444514056185 0 0.64278759981090561 0.64278759981090561 0 -0.7660444514056185 1 I I #
point $-1 57.01947819834696 6.1193895506393261 3.6432647171939196 #
loop $-1 $-1 $207 $200 #
plane-surface $-1 -58.242744224372082 0 0 1 0 0 0 0 -1 forward_v I I I I #
coedge $-1 $359 $360 $204 $297 forward $201 $-1 #
coedge $-1 $204 $203 $302 $361 reversed $79 $-1 #
edge $-1 $299 6.8618674775281532 $362 13.915395932454844 $295 $363 forward 7 unknown #
coedge $-1 $210 $205 $360 $364 forward $126 $-1 #
vertex $-1 $364 $365 #
straight-curve $-1 -54.823125869770216 10.31331388579348 6.6331853393868219 0 1 0 I I #
coedge $-1 $366 $207 $210 $306 reversed $293 $-1 #
coedge $-1 $207 $366 $296 $361 forward $293 $-1 #
vertex $-1 $208 $367 #
straight-curve $-1 -58.242744224372082 14.204249393425556 28.468657055367025 0 0 1 I I #
straight-curve $-1 -58.242744224372075 14.204249393425556 0.46403029405603036 -0.48480960649040278 0 -0.87461971476443456 I I #
edge $-1 $368 -27.049006149748365 $211 -14.204249393425556 $301 $369 forward 7 unknown #
point $-1 -58.242744224372082 14.204249393425556 6.6331853393868228 #
point $-1 -54.823125869770216 14.204249393425556 6.6331853393868228 #
edge $-1 $370 1 $370 0 $214 $-1 forward 7 unknown #
vertex $-1 $215 $371 #
ellipse-curve $-1 -53.819630709010468 20.626627771586961 2.0445987185750454 -0.87461971476443456 0 0.48480960649040278 0.72721440973560414 0 1.311929572146652 1 I I #
point $-1 -55.80572063733554 20.626627771586961 4.8605373888680772 #
plane-surface $-1 58.242744224372082 0 0 -1 0 0 0 0 1 forward_v I I I I #
coedge $-1 $223 $221 $225 $318 reversed $141 $-1 #
edge $-1 $236 -6.6331853393868228 $320 6.6331853393868228 $235 $372 forward 7 unknown #
vertex $-1 $318 $373 #
straight-curve $-1 -58.242744224372082 -27.049006149748365 0 0 0 -1 I I #
edge $-1 $316 -27.049006149748365 $320 27.049006149748365 $314 $374 forward 7 unknown #
straight-curve $-1 0 -27.049006149748365 -6.6331853393868228 -1 0 0 I I #
vertex $-1 $228 $375 #
straight-curve $-1 0 27.049006149748365 -6.6331853393868228 1 0 0 I I #
point $-1 58.242744224372082 27.049006149748365 -6.6331853393868228 #
point $-1 58.242744224372082 -27.049006149748365 -6.6331853393868228 #
straight-curve $-1 -58.242744224372082 0 6.6331853393868228 0 -1 0 I I #
point $-1 -58.242744224372082 27.049006149748365 6.6331853393868228 #
point $-1 -58.242744224372082 -27.049006149748365 6.6331853393868228 #
straight-curve $-1 58.242744224372082 -27.049006149748365 0 0 0 -1 I I #
straight-curve $-1 58.242744224372082 27.049006149748365 0 0 0 -1 I I #
plane-surface $-1 58.242744224372082 0 0 -1 0 0 0 0 1 forward_v I I I I #
coedge $-1 $249 $248 $259 $341 reversed $96 $-1 #
coedge $-1 $376 $252 $249 $332 forward $246 $-1 #
edge $-1 $333 18.955625273307447 $377 27.049006149748365 $249 $378 forward 7 unknown #
vertex $-1 $332 $379 #
straight-curve $-1 -58.242744224372082 -18.955625273307447 2.527875818591633 0 0 -1 I I #
coedge $-1 $252 $376 $254 $337 forward $246 $-1 #
straight-curve $-1 0 -18.955625273307447 6.6331853393868228 -1 0 0 I I #
edge $-1 $344 -27.049006149748365 $255 -18.955625273307447 $254 $380 forward 7 unknown #
point $-1 58.242744224372082 -18.955625273307447 6.6331853393868228 #
straight-curve $-1 -58.242744224372082 -11.501157855763953 3.4783179349797093 0 -1 0 I I #
coedge $-1 $259 $258 $376 $381 reversed $160 $-1 #
edge $-1 $377 -6.6331853393868228 $260 -3.4783179349797093 $330 $382 forward 7 unknown #
point $-1 -58.242744224372082 -27.049006149748365 3.4783179349797093 #
point $-1 -58.242744224372082 -18.955625273307447 3.4783179349797093 #
vertex $-1 $337 $383 #
straight-curve $-1 58.242744224372082 -27.049006149748365 0 0 0 -1 I I #
edge $-1 $347 76.513775973620795 $350 80.96152831519538 $268 $384 forward 7 unknown #
vertex $-1 $282 $385 #
straight-curve $-1 36.300189393518281 -1.8876210619498224 6.6331853393868272 1 0 0 I I #
edge $-1 $350 -3.7462642453811146 $279 7.463550612243699 $278 $386 forward 7 unknown #
vertex $-1 $349 $387 #
straight-curve $-1 -16.632683308397176 -1.8876210619498224 91.418495093246008 -0.64278759981090561 0 0.7660444514056185 I I #
point $-1 54.510636972700013 -1.8876210619498224 6.6331853393868272 #
point $-1 58.242744224372089 9.3221937956749912 2.1854329978122422 #
straight-curve $-1 58.242744224372082 0 6.6331853393868228 0 1 0 I I #
vertex $-1 $285 $388 #
point $-1 54.918332378769946 1.3151831830858391 1.8801940810964699 #
vertex $-1 $289 $389 #
point $-1 54.918332378769946 6.1193895506393261 1.8801940810964699 #
coedge $-1 $360 $295 $366 $390 reversed $201 $-1 #
coedge $-1 $295 $359 $298 $364 reversed $201 $-1 #
edge $-1 $362 -16.735692263954885 $303 -3.8909355076320757 $302 $391 forward 7 unknown #
vertex $-1 $297 $392 #
straight-curve $-1 -51.4964265982005 27.049006149748365 12.634709915333847 -0.48480960649040278 0 -0.87461971476443456 I I #
edge $-1 $299 54.823125869770216 $368 58.242744224372082 $360 $393 forward 7 unknown #
point $-1 -54.823125869770216 27.049006149748365 6.6331853393868228 #
coedge $-1 $302 $301 $359 $390 forward $293 $-1 #
point $-1 -58.242744224372082 14.204249393425556 0.46403029405601753 #
vertex $-1 $364 $394 #
straight-curve $-1 -58.242744224372082 0 6.6331853393868228 0 -1 0 I I #
vertex $-1 $309 $395 #
point $-1 -53.092416299274866 20.626627771586961 3.3565282907216973 #
straight-curve $-1 -58.242744224372082 27.049006149748365 0 0 0 -1 I I #
point $-1 -58.242744224372082 -27.049006149748365 -6.6331853393868228 #
straight-curve $-1 -58.242744224372082 0 -6.6331853393868228 0 1 0 I I #
point $-1 -58.242744224372082 27.049006149748365 -6.6331853393868228 #
coedge $-1 $335 $331 $340 $381 forward $246 $-1 #
vertex $-1 $332 $396 #
straight-curve $-1 -58.242744224372082 0 6.6331853393868228 0 -1 0 I I #
point $-1 -58.242744224372082 -18.955625273307447 6.6331853393868228 #
straight-curve $-1 58.242744224372082 0 6.6331853393868228 0 1 0 I I #
edge $-1 $377 -58.242744224372082 $344 58.242744224372082 $340 $397 forward 7 unknown #
straight-curve $-1 -58.242744224372082 -27.049006149748365 0 0 0 -1 I I #
point $-1 58.242744224372082 -27.049006149748365 6.6331853393868228 #
straight-curve $-1 58.242744224372082 -1.8876210619498224 83.146961313007623 0 0 -1 I I #
point $-1 58.242744224372082 -1.8876210619498224 6.6331853393868228 #
straight-curve $-1 58.242744224372089 1.8586431834312922 2.1854329978122351 0 1 0 I I #
point $-1 58.242744224372089 -1.8876210619498224 2.1854329978122422 #
point $-1 53.509500327553425 1.3151831830858391 2.0034509326911829 #
point $-1 53.509500327553425 6.1193895506393261 2.0034509326911829 #
edge $-1 $368 -6.6331853393868228 $362 -0.46403029405601753 $359 $398 forward 7 unknown #
straight-curve $-1 -58.242744224372082 10.31331388579348 0.46403029405601637 0 -1 0 I I #
point $-1 -58.242744224372082 27.049006149748365 0.46403029405601753 #
straight-curve $-1 0 27.049006149748365 6.6331853393868228 -1 0 0 I I #
point $-1 -58.242744224372082 27.049006149748365 6.6331853393868228 #
point $-1 -52.507701136863815 20.626627771586961 1.3173843088394415 #
point $-1 -58.242744224372082 -27.049006149748365 6.6331853393868228 #
straight-curve $-1 0 -27.049006149748365 6.6331853393868228 1 0 0 I I #
straight-curve $-1 -58.242744224372082 27.049006149748365 0 0 0 -1 I I #
End-of-ACIS-data 