500 0 10 0           
7 Unknown 11 ACIS 5.0 NT 24 Fri Mar 26 02:05:56 1999 
-1 9.9999999999999995e-007 1e-010 
body $-1 $10 $-1 $11 #
body $-1 $12 $-1 $13 #
body $-1 $14 $-1 $15 #
body $-1 $16 $-1 $17 #
body $-1 $18 $-1 $19 #
body $-1 $20 $-1 $21 #
body $-1 $22 $-1 $23 #
body $-1 $24 $-1 $25 #
body $-1 $26 $-1 $27 #
body $-1 $28 $-1 $29 #
lump $-1 $-1 $30 $0 #
transform $-1 1 0 0 0 1 0 0 0 1 40.070802941984311 24.129919199510233 5.325711101134007 1 rotate no_reflect no_shear #
lump $-1 $-1 $31 $1 #
transform $-1 1 0 0 0 1 0 0 0 1 40.070802941984311 24.129919199510233 5.325711101134007 1 rotate no_reflect no_shear #
lump $-1 $-1 $32 $2 #
transform $-1 1 0 0 0 1 0 0 0 1 40.070802941984311 24.129919199510233 5.325711101134007 1 rotate no_reflect no_shear #
lump $-1 $-1 $33 $3 #
transform $-1 1 0 0 0 1 0 0 0 1 40.070802941984311 24.129919199510233 5.325711101134007 1 rotate no_reflect no_shear #
lump $-1 $-1 $34 $4 #
transform $-1 1 0 0 0 1 0 0 0 1 40.070802941984311 24.129919199510233 5.325711101134007 1 rotate no_reflect no_shear #
lump $-1 $-1 $35 $5 #
transform $-1 1 0 0 0 1 0 0 0 1 40.070802941984311 24.129919199510233 5.325711101134007 1 rotate no_reflect no_shear #
lump $-1 $-1 $36 $6 #
transform $-1 1 0 0 0 1 0 0 0 1 40.070802941984311 24.129919199510233 5.325711101134007 1 rotate no_reflect no_shear #
lump $-1 $-1 $37 $7 #
transform $-1 1 0 0 0 1 0 0 0 1 40.070802941984311 24.129919199510233 5.325711101134007 1 rotate no_reflect no_shear #
lump $-1 $-1 $38 $8 #
transform $-1 1 0 0 0 1 0 0 0 1 40.070802941984311 24.129919199510233 5.325711101134007 1 rotate no_reflect no_shear #
lump $-1 $-1 $39 $9 #
transform $-1 1 0 0 0 1 0 0 0 1 40.070802941984311 24.129919199510233 5.325711101134007 1 rotate no_reflect no_shear #
shell $-1 $-1 $-1 $40 $-1 $10 #
shell $-1 $-1 $-1 $41 $-1 $12 #
shell $-1 $-1 $-1 $42 $-1 $14 #
shell $-1 $-1 $-1 $43 $-1 $16 #
shell $-1 $-1 $-1 $44 $-1 $18 #
shell $-1 $-1 $-1 $45 $-1 $20 #
shell $-1 $-1 $-1 $46 $-1 $22 #
shell $-1 $-1 $-1 $47 $-1 $24 #
shell $-1 $-1 $-1 $48 $-1 $26 #
shell $-1 $-1 $-1 $49 $-1 $28 #
face $-1 $50 $51 $30 $-1 $52 forward single #
face $-1 $53 $54 $31 $-1 $55 forward single #
face $-1 $56 $57 $32 $-1 $58 reversed single #
face $-1 $59 $60 $33 $-1 $61 forward single #
face $-1 $62 $63 $34 $-1 $64 reversed single #
face $-1 $65 $66 $35 $-1 $67 forward single #
face $-1 $68 $69 $36 $-1 $70 reversed single #
face $-1 $71 $72 $37 $-1 $73 forward single #
face $-1 $74 $75 $38 $-1 $76 forward single #
face $-1 $77 $78 $39 $-1 $79 forward single #
face $-1 $80 $81 $30 $-1 $82 reversed single #
loop $-1 $-1 $83 $40 #
plane-surface $-1 0 0 5.325711101134007 0 0 1 1 0 0 forward_v I I I I #
face $-1 $84 $85 $31 $-1 $86 reversed single #
loop $-1 $-1 $87 $41 #
plane-surface $-1 -40.070802941984311 0 0 1 0 0 0 0 -1 forward_v I I I I #
face $-1 $88 $89 $32 $-1 $90 reversed single #
loop $-1 $-1 $91 $42 #
plane-surface $-1 -6.0385165522321635 32.19294468765446 93.442671252789424 1 0 0 0 -0.5877852598018023 -0.80901698891910034 forward_v I I I I #
face $-1 $92 $93 $33 $-1 $94 forward single #
loop $-1 $95 $96 $43 #
cone-surface $-1 -1.2631949617692229 18.504279917033934 -0.14306508646261396 0 -0.5877852598018023 -0.80901698891910034 2 0 0 1 I I 0 1 2 forward I I I I #
face $-1 $97 $98 $34 $-1 $99 reversed single #
loop $-1 $-1 $100 $44 #
plane-surface $-1 30.520159761058427 32.19294468765446 93.442671252789424 1 0 0 0 -0.5877852598018023 -0.80901698891910034 forward_v I I I I #
face $-1 $101 $102 $35 $-1 $103 forward single #
loop $-1 $104 $105 $45 #
cone-surface $-1 35.29548135152136 18.504279917033934 -0.14306508646261396 0 -0.5877852598018023 -0.80901698891910034 2 0 0 1 I I 0 1 2 forward I I I I #
face $-1 $106 $107 $36 $-1 $108 reversed single #
loop $-1 $-1 $109 $46 #
plane-surface $-1 6.9921323798896111 -88.965840972000649 48.689768203997623 -1 0 0 0 -0.80901700255871778 0.5877852410284794 forward_v I I I I #
face $-1 $110 $111 $37 $-1 $112 forward single #
loop $-1 $113 $114 $47 #
cone-surface $-1 0.32157696597327146 -22.234509000508286 3.0652495318750876 0 0.80901700255871778 -0.5877852410284794 0.5 0 0 1 I I 0 1 0.5 forward I I I I #
face $-1 $115 $116 $38 $-1 $117 forward single #
loop $-1 $118 $119 $48 #
cone-surface $-1 2.8230352461918997 -22.234509000508286 3.0652495318750876 0 0.80901700255871778 -0.5877852410284794 0.5 0 0 1 I I 0 1 0.5 forward I I I I #
face $-1 $120 $121 $39 $-1 $122 forward single #
loop $-1 $123 $124 $49 #
cone-surface $-1 5.324493526410528 -22.234509000508286 3.0652495318750876 0 0.80901700255871778 -0.5877852410284794 0.5 0 0 1 I I 0 1 0.5 forward I I I I #
face $-1 $125 $126 $30 $-1 $127 reversed single #
loop $-1 $-1 $128 $50 #
plane-surface $-1 0 0 -5.325711101134007 0 0 1 1 0 0 forward_v I I I I #
coedge $-1 $129 $130 $131 $132 forward $51 $-1 #
face $-1 $133 $134 $31 $-1 $135 reversed single #
loop $-1 $-1 $136 $53 #
plane-surface $-1 0 24.129919199510233 0 0 -1 0 0 0 -1 forward_v I I I I #
coedge $-1 $137 $138 $139 $140 forward $54 $-1 #
face $-1 $141 $142 $32 $-1 $143 reversed single #
loop $-1 $-1 $144 $56 #
plane-surface $-1 -1.2631949617692158 -14.913109947787682 28.606750573399879 0 0.5877852598018023 0.80901698891910034 1 0 0 forward_v I I I I #
coedge $-1 $145 $146 $147 $148 reversed $57 $-1 #
face $-1 $-1 $149 $33 $-1 $150 forward single #
loop $-1 $151 $152 $59 #
cone-surface $-1 -1.2631949617692229 15.790569351439991 -3.8781671734306462 0 -0.5877852598018023 -0.80901698891910034 1 0 0 1 I I -0.70710678118654735 0.70710678118654768 1 forward I I I I #
loop $-1 $-1 $153 $43 #
coedge $-1 $96 $96 $154 $155 reversed $60 $-1 #
face $-1 $156 $157 $34 $-1 $158 forward single #
loop $-1 $-1 $159 $62 #
plane-surface $-1 35.295481351521374 -14.913109947787682 28.606750573399879 0 0.5877852598018023 0.80901698891910034 1 0 0 forward_v I I I I #
coedge $-1 $160 $161 $162 $163 reversed $63 $-1 #
face $-1 $-1 $164 $35 $-1 $165 forward single #
loop $-1 $166 $167 $65 #
cone-surface $-1 35.29548135152136 15.790569351439991 -3.8781671734306462 0 -0.5877852598018023 -0.80901698891910034 1 0 0 1 I I -0.70710678118654735 0.70710678118654768 1 forward I I I I #
loop $-1 $-1 $168 $45 #
coedge $-1 $105 $105 $169 $170 reversed $66 $-1 #
face $-1 $171 $172 $36 $-1 $173 reversed single #
loop $-1 $-1 $174 $68 #
plane-surface $-1 2.8230352461918997 -24.129919199510255 1.5837150730797234 0 -0.80901700255871778 0.5877852410284794 1 0 0 forward_v I I I I #
coedge $-1 $175 $176 $177 $178 reversed $69 $-1 #
face $-1 $-1 $179 $37 $-1 $180 forward single #
loop $-1 $181 $182 $71 #
cone-surface $-1 0.32157696597327146 -21.496204138070059 2.5288396663861921 0 0.80901700255871778 -0.5877852410284794 0.25 0 0 1 I I -0.70710678118654746 0.70710678118654746 0.25 forward I I I I #
loop $-1 $-1 $183 $47 #
coedge $-1 $114 $114 $184 $185 reversed $72 $-1 #
face $-1 $-1 $186 $38 $-1 $187 forward single #
loop $-1 $188 $189 $74 #
cone-surface $-1 2.8230352461918997 -21.496204138070059 2.5288396663861921 0 0.80901700255871778 -0.5877852410284794 0.25 0 0 1 I I -0.70710678118654746 0.70710678118654746 0.25 forward I I I I #
loop $-1 $-1 $190 $48 #
coedge $-1 $119 $119 $191 $192 reversed $75 $-1 #
face $-1 $-1 $193 $39 $-1 $194 forward single #
loop $-1 $195 $196 $77 #
cone-surface $-1 5.324493526410528 -21.496204138070059 2.5288396663861921 0 0.80901700255871778 -0.5877852410284794 0.25 0 0 1 I I -0.70710678118654746 0.70710678118654746 0.25 forward I I I I #
loop $-1 $-1 $197 $49 #
coedge $-1 $124 $124 $198 $199 reversed $78 $-1 #
face $-1 $200 $201 $30 $-1 $202 reversed single #
loop $-1 $-1 $203 $80 #
plane-surface $-1 0 -24.129919199510233 0 0 1 0 0 0 1 forward_v I I I I #
coedge $-1 $204 $205 $206 $207 forward $81 $-1 #
coedge $-1 $208 $83 $209 $210 forward $51 $-1 #
coedge $-1 $83 $208 $211 $212 forward $51 $-1 #
coedge $-1 $213 $214 $83 $132 reversed $215 $-1 #
edge $-1 $216 -24.129919199510233 $217 24.129919199510233 $131 $218 forward 7 unknown #
face $-1 $219 $220 $31 $-1 $221 reversed single #
loop $-1 $-1 $139 $84 #
plane-surface $-1 -43.58292957067804 0 2.325711101134007 0 0 1 1 0 0 forward_v I I I I #
coedge $-1 $222 $223 $137 $224 forward $85 $-1 #
coedge $-1 $225 $87 $136 $224 reversed $54 $-1 #
coedge $-1 $87 $225 $226 $227 reversed $54 $-1 #
coedge $-1 $228 $229 $87 $140 reversed $134 $-1 #
edge $-1 $230 -24.129919199510233 $231 24.129919199510233 $139 $232 forward 7 unknown #
face $-1 $233 $234 $32 $-1 $235 forward single #
loop $-1 $-1 $236 $88 #
plane-surface $-1 3.512126628693732 32.19294468765446 93.442671252789424 -1 0 0 0 0.5877852598018023 0.80901698891910034 forward_v I I I I #
coedge $-1 $237 $238 $239 $240 reversed $89 $-1 #
coedge $-1 $146 $91 $241 $242 reversed $57 $-1 #
coedge $-1 $91 $145 $237 $243 reversed $57 $-1 #
coedge $-1 $239 $244 $91 $148 forward $234 $-1 #
edge $-1 $245 -8.0334468556830032 $246 -1.034018902314692 $147 $247 forward 7 unknown #
loop $-1 $-1 $154 $92 #
plane-surface $-1 -1.2631949617692158 -14.913109947787682 28.606750573399879 0 0.5877852598018023 0.80901698891910034 1 0 0 forward_v I I I I #
loop $-1 $-1 $248 $59 #
coedge $-1 $152 $152 $153 $249 reversed $93 $-1 #
coedge $-1 $153 $153 $152 $249 forward $95 $-1 #
coedge $-1 $154 $154 $96 $155 forward $149 $-1 #
edge $-1 $250 -1.0470020818066083e-015 $250 6.2831853071795996 $154 $251 forward 7 unknown #
face $-1 $252 $253 $34 $-1 $254 reversed single #
loop $-1 $-1 $162 $97 #
plane-surface $-1 0 0 5.325711101134007 0 0 1 1 0 0 forward_v I I I I #
coedge $-1 $255 $256 $257 $258 reversed $98 $-1 #
coedge $-1 $161 $100 $259 $260 reversed $63 $-1 #
coedge $-1 $100 $160 $255 $261 reversed $63 $-1 #
coedge $-1 $257 $262 $100 $163 forward $157 $-1 #
edge $-1 $263 -8.0334468556830032 $264 -1.034018902314692 $162 $265 forward 7 unknown #
loop $-1 $-1 $169 $101 #
plane-surface $-1 35.295481351521374 -14.913109947787682 28.606750573399879 0 0.5877852598018023 0.80901698891910034 1 0 0 forward_v I I I I #
loop $-1 $-1 $266 $65 #
coedge $-1 $167 $167 $168 $267 reversed $102 $-1 #
coedge $-1 $168 $168 $167 $267 forward $104 $-1 #
coedge $-1 $169 $169 $105 $170 forward $164 $-1 #
edge $-1 $268 -1.0470020818066083e-015 $268 6.2831853071795996 $169 $269 forward 7 unknown #
face $-1 $270 $271 $36 $-1 $272 reversed single #
loop $-1 $-1 $273 $106 #
plane-surface $-1 -1.3460618875058117 -88.965840972000649 48.689768203997623 1 0 0 0 0.80901700255871778 -0.5877852410284794 forward_v I I I I #
coedge $-1 $274 $275 $276 $277 reversed $107 $-1 #
coedge $-1 $176 $109 $278 $279 reversed $69 $-1 #
coedge $-1 $109 $175 $274 $280 reversed $69 $-1 #
coedge $-1 $276 $281 $109 $178 forward $282 $-1 #
edge $-1 $283 20.353001286490091 $284 23.07172046089687 $177 $285 forward 7 unknown #
loop $-1 $-1 $184 $110 #
plane-surface $-1 2.8230352461918997 -24.129919199510255 1.5837150730797234 0 -0.80901700255871778 0.5877852410284794 1 0 0 forward_v I I I I #
loop $-1 $-1 $286 $71 #
coedge $-1 $182 $182 $183 $287 reversed $111 $-1 #
coedge $-1 $183 $183 $182 $287 forward $113 $-1 #
coedge $-1 $184 $184 $114 $185 forward $179 $-1 #
edge $-1 $288 -2.6950276287731978e-015 $288 6.2831853071795978 $184 $289 forward 7 unknown #
loop $-1 $-1 $191 $115 #
plane-surface $-1 2.8230352461918997 -24.129919199510255 1.5837150730797234 0 -0.80901700255871778 0.5877852410284794 1 0 0 forward_v I I I I #
loop $-1 $-1 $290 $74 #
coedge $-1 $189 $189 $190 $291 reversed $116 $-1 #
coedge $-1 $190 $190 $189 $291 forward $118 $-1 #
coedge $-1 $191 $191 $119 $192 forward $186 $-1 #
edge $-1 $292 -2.6950276287731978e-015 $292 6.2831853071795978 $191 $293 forward 7 unknown #
loop $-1 $-1 $198 $120 #
plane-surface $-1 2.8230352461918997 -24.129919199510255 1.5837150730797234 0 -0.80901700255871778 0.5877852410284794 1 0 0 forward_v I I I I #
loop $-1 $-1 $294 $77 #
coedge $-1 $196 $196 $197 $295 reversed $121 $-1 #
coedge $-1 $197 $197 $196 $295 forward $123 $-1 #
coedge $-1 $198 $198 $124 $199 forward $193 $-1 #
edge $-1 $296 -2.6950276287731978e-015 $296 6.2831853071795978 $198 $297 forward 7 unknown #
face $-1 $298 $299 $30 $-1 $300 reversed single #
loop $-1 $-1 $301 $125 #
plane-surface $-1 -40.070802941984311 0 0 1 0 0 0 0 -1 forward_v I I I I #
coedge $-1 $302 $211 $303 $304 forward $126 $-1 #
coedge $-1 $305 $128 $302 $306 forward $81 $-1 #
coedge $-1 $128 $305 $307 $308 forward $81 $-1 #
coedge $-1 $214 $213 $128 $207 reversed $215 $-1 #
edge $-1 $309 -24.129919199510233 $310 24.129919199510233 $206 $311 forward 7 unknown #
coedge $-1 $130 $129 $312 $313 forward $51 $-1 #
coedge $-1 $314 $315 $129 $210 reversed $299 $-1 #
edge $-1 $217 -40.070802941984311 $316 40.070802941984311 $209 $317 forward 7 unknown #
coedge $-1 $203 $318 $130 $212 reversed $126 $-1 #
edge $-1 $319 -40.070802941984311 $216 40.070802941984311 $211 $320 forward 7 unknown #
coedge $-1 $206 $131 $318 $321 forward $215 $-1 #
coedge $-1 $131 $206 $314 $322 reversed $215 $-1 #
loop $-1 $-1 $213 $298 #
vertex $-1 $132 $323 #
vertex $-1 $132 $324 #
straight-curve $-1 40.070802941984311 0 5.325711101134007 0 1 0 I I #
face $-1 $325 $326 $31 $-1 $327 forward single #
loop $-1 $-1 $328 $133 #
plane-surface $-1 -47.095056199371768 0 3.825711101134007 1 0 0 0 0 -1 forward_v I I I I #
coedge $-1 $329 $136 $229 $330 reversed $85 $-1 #
coedge $-1 $136 $329 $331 $332 reversed $85 $-1 #
edge $-1 $333 -5.325711101134007 $231 -2.325711101134007 $136 $334 forward 7 unknown #
coedge $-1 $138 $137 $335 $336 reversed $54 $-1 #
coedge $-1 $337 $338 $138 $227 forward $339 $-1 #
edge $-1 $230 2.325711101134007 $340 5.325711101134007 $226 $341 forward 7 unknown #
coedge $-1 $342 $139 $338 $343 forward $134 $-1 #
coedge $-1 $139 $342 $222 $330 forward $134 $-1 #
vertex $-1 $227 $344 #
vertex $-1 $224 $345 #
straight-curve $-1 -40.070802941984311 0 2.325711101134007 0 1 0 I I #
face $-1 $-1 $346 $32 $-1 $347 reversed single #
loop $-1 $-1 $147 $141 #
plane-surface $-1 0 0 5.325711101134007 0 0 1 1 0 0 forward_v I I I I #
coedge $-1 $348 $349 $350 $351 reversed $142 $-1 #
coedge $-1 $352 $144 $146 $243 forward $89 $-1 #
coedge $-1 $144 $352 $348 $353 forward $89 $-1 #
coedge $-1 $350 $147 $144 $240 forward $234 $-1 #
edge $-1 $246 -5.4069190713475557 $354 4.1437241095783399 $239 $355 forward 7 unknown #
coedge $-1 $356 $357 $145 $242 forward $346 $-1 #
edge $-1 $358 -46.481006704356076 $245 -41.395624525260708 $241 $359 forward 7 unknown #
edge $-1 $246 39.608069586699223 $358 48.259838399020467 $146 $360 forward 7 unknown #
coedge $-1 $147 $350 $356 $361 forward $234 $-1 #
vertex $-1 $242 $362 #
vertex $-1 $148 $363 #
straight-curve $-1 -6.0385165522321635 16.09647234382723 5.3257111011340044 0 -1 0 I I #
coedge $-1 $248 $248 $-1 $364 reversed $151 $-1 #
edge $-1 $365 0 $365 6.2831853071796004 $152 $366 forward 7 unknown #
vertex $-1 $155 $367 #
ellipse-curve $-1 -1.2631949617692229 20.630205222826078 2.7830200115863235 0 0.5877852598018023 0.80901698891910034 2 0 0 1 I I #
face $-1 $-1 $368 $34 $-1 $369 reversed single #
loop $-1 $-1 $259 $156 #
plane-surface $-1 0 24.129919199510233 0 0 -1 0 0 0 -1 forward_v I I I I #
coedge $-1 $370 $159 $161 $261 forward $98 $-1 #
coedge $-1 $159 $370 $371 $372 reversed $98 $-1 #
coedge $-1 $373 $162 $159 $258 forward $157 $-1 #
edge $-1 $264 12.872419085297739 $374 22.423062266223639 $257 $375 forward 7 unknown #
coedge $-1 $376 $377 $160 $260 forward $253 $-1 #
edge $-1 $378 -46.481006704356076 $263 -41.395624525260708 $259 $379 forward 7 unknown #
edge $-1 $264 39.608069586699223 $378 48.259838399020467 $161 $380 forward 7 unknown #
coedge $-1 $162 $373 $376 $381 forward $157 $-1 #
vertex $-1 $163 $382 #
vertex $-1 $163 $383 #
straight-curve $-1 30.520159761058427 16.09647234382723 5.3257111011340044 0 -1 0 I I #
coedge $-1 $266 $266 $-1 $384 reversed $166 $-1 #
edge $-1 $385 0 $385 6.2831853071796004 $167 $386 forward 7 unknown #
vertex $-1 $170 $387 #
ellipse-curve $-1 35.29548135152136 20.630205222826078 2.7830200115863235 0 0.5877852598018023 0.80901698891910034 2 0 0 1 I I #
face $-1 $-1 $282 $36 $-1 $388 forward single #
loop $-1 $-1 $389 $171 #
plane-surface $-1 0 -24.129919199510233 0 0 1 0 0 0 1 forward_v I I I I #
coedge $-1 $390 $391 $392 $393 reversed $172 $-1 #
coedge $-1 $394 $174 $176 $280 forward $107 $-1 #
coedge $-1 $174 $394 $390 $395 forward $107 $-1 #
coedge $-1 $392 $177 $174 $277 forward $282 $-1 #
edge $-1 $284 -5.5806147567936613 $396 2.7575795106017615 $276 $397 forward 7 unknown #
coedge $-1 $398 $399 $175 $279 forward $271 $-1 #
edge $-1 $400 -22.76116902891906 $283 -19.019173000864804 $278 $401 forward 7 unknown #
edge $-1 $284 -4.6253614154205547 $400 -3.6241593609816998e-014 $176 $402 forward 7 unknown #
coedge $-1 $177 $392 $398 $403 forward $282 $-1 #
loop $-1 $-1 $392 $270 #
vertex $-1 $279 $404 #
vertex $-1 $178 $405 #
straight-curve $-1 6.9921323798896111 -44.482920486000324 5.3257111011340079 0 1 0 I I #
coedge $-1 $286 $286 $-1 $406 reversed $181 $-1 #
edge $-1 $407 0 $407 6.2831853071796004 $182 $408 forward 7 unknown #
vertex $-1 $185 $409 #
ellipse-curve $-1 0.32157696597327146 -22.770559612306847 3.4547130871068745 0 -0.80901700255871778 0.5877852410284794 0.5 0 0 1 I I #
coedge $-1 $290 $290 $-1 $410 reversed $188 $-1 #
edge $-1 $411 0 $411 6.2831853071796004 $189 $412 forward 7 unknown #
vertex $-1 $192 $413 #
ellipse-curve $-1 2.8230352461918997 -22.770559612306847 3.4547130871068745 0 -0.80901700255871778 0.5877852410284794 0.5 0 0 1 I I #
coedge $-1 $294 $294 $-1 $414 reversed $195 $-1 #
edge $-1 $415 0 $415 6.2831853071796004 $196 $416 forward 7 unknown #
vertex $-1 $199 $417 #
ellipse-curve $-1 5.324493526410528 -22.770559612306847 3.4547130871068745 0 -0.80901700255871778 0.5877852410284794 0.5 0 0 1 I I #
face $-1 $-1 $215 $30 $-1 $418 reversed single #
loop $-1 $-1 $314 $200 #
plane-surface $-1 0 24.129919199510233 0 0 -1 0 0 0 -1 forward_v I I I I #
coedge $-1 $419 $312 $315 $420 forward $201 $-1 #
coedge $-1 $318 $203 $204 $306 reversed $126 $-1 #
coedge $-1 $312 $419 $203 $304 reversed $201 $-1 #
edge $-1 $319 -5.325711101134007 $421 5.325711101134007 $303 $422 forward 7 unknown #
coedge $-1 $205 $204 $419 $423 forward $81 $-1 #
edge $-1 $310 -40.070802941984311 $421 40.070802941984311 $302 $424 forward 7 unknown #
coedge $-1 $315 $314 $205 $308 reversed $299 $-1 #
edge $-1 $425 -40.070802941984311 $309 40.070802941984311 $307 $426 forward 7 unknown #
vertex $-1 $207 $427 #
vertex $-1 $321 $428 #
straight-curve $-1 40.070802941984311 0 -5.325711101134007 0 -1 0 I I #
coedge $-1 $301 $303 $208 $313 reversed $201 $-1 #
edge $-1 $316 -24.129919199510233 $319 24.129919199510233 $312 $429 forward 7 unknown #
coedge $-1 $307 $209 $214 $322 forward $299 $-1 #
coedge $-1 $209 $307 $301 $420 reversed $299 $-1 #
vertex $-1 $210 $430 #
straight-curve $-1 0 24.129919199510233 5.325711101134007 -1 0 0 I I #
coedge $-1 $211 $302 $213 $321 reversed $126 $-1 #
vertex $-1 $313 $431 #
straight-curve $-1 0 -24.129919199510233 5.325711101134007 1 0 0 I I #
edge $-1 $216 -5.325711101134007 $310 5.325711101134007 $213 $432 forward 7 unknown #
edge $-1 $217 -5.325711101134007 $309 5.325711101134007 $214 $433 forward 7 unknown #
point $-1 40.070802941984311 -24.129919199510233 5.325711101134007 #
point $-1 40.070802941984311 24.129919199510233 5.325711101134007 #
face $-1 $-1 $339 $31 $-1 $434 reversed single #
loop $-1 $-1 $335 $219 #
plane-surface $-1 0 0 5.325711101134007 0 0 1 1 0 0 forward_v I I I I #
coedge $-1 $435 $436 $329 $437 forward $220 $-1 #
coedge $-1 $223 $222 $328 $437 reversed $85 $-1 #
edge $-1 $438 -3.5121266286937285 $231 3.5121266286937285 $222 $439 forward 7 unknown #
coedge $-1 $440 $335 $223 $332 forward $326 $-1 #
edge $-1 $333 40.070802941984311 $441 47.095056199371768 $223 $442 forward 7 unknown #
vertex $-1 $332 $443 #
straight-curve $-1 -40.070802941984311 24.129919199510233 0 0 0 -1 I I #
coedge $-1 $331 $444 $225 $336 forward $326 $-1 #
edge $-1 $340 -24.129919199510233 $333 24.129919199510233 $335 $445 forward 7 unknown #
coedge $-1 $446 $226 $444 $447 reversed $339 $-1 #
coedge $-1 $226 $446 $228 $343 reversed $339 $-1 #
loop $-1 $-1 $226 $325 #
vertex $-1 $227 $448 #
straight-curve $-1 -40.070802941984311 -24.129919199510233 0 0 0 1 I I #
coedge $-1 $229 $228 $435 $449 forward $134 $-1 #
edge $-1 $230 -3.5121266286937285 $450 3.5121266286937285 $338 $451 forward 7 unknown #
point $-1 -40.070802941984311 -24.129919199510233 2.325711101134007 #
point $-1 -40.070802941984311 24.129919199510233 2.325711101134007 #
loop $-1 $-1 $241 $233 #
plane-surface $-1 0 24.129919199510233 0 0 -1 0 0 0 -1 forward_v I I I I #
coedge $-1 $349 $236 $238 $353 reversed $142 $-1 #
coedge $-1 $236 $348 $452 $453 reversed $142 $-1 #
coedge $-1 $244 $239 $236 $351 forward $234 $-1 #
edge $-1 $354 1.034018902314692 $454 8.0334468556830032 $350 $455 forward 7 unknown #
coedge $-1 $238 $237 $357 $456 reversed $89 $-1 #
edge $-1 $457 -48.259838399020467 $354 -39.608069586699223 $348 $458 forward 7 unknown #
vertex $-1 $240 $459 #
straight-curve $-1 -0.63159748088460788 17.130491246141922 5.3257111011340079 1 0 0 I I #
coedge $-1 $452 $241 $244 $361 reversed $346 $-1 #
coedge $-1 $241 $452 $352 $456 forward $346 $-1 #
vertex $-1 $242 $460 #
straight-curve $-1 -6.0385165522321635 24.129919199510233 46.721335626394712 0 0 1 I I #
straight-curve $-1 -6.0385165522321635 -14.913109947787682 28.606750573399879 0 0.80901698891910034 -0.5877852598018023 I I #
edge $-1 $454 -3.512126628693732 $245 6.0385165522321635 $356 $461 forward 7 unknown #
point $-1 -6.0385165522321635 24.129919199510233 5.325711101134007 #
point $-1 -6.0385165522321635 17.130491246141922 5.3257111011340079 #
edge $-1 $462 1 $462 0 $248 $-1 forward 7 unknown #
vertex $-1 $249 $463 #
ellipse-curve $-1 -1.2631949617692229 16.378354611241793 -3.0691501845115456 0 0.5877852598018023 0.80901698891910034 2 0 0 1 I I #
point $-1 0.73680503823077714 20.630205222826071 2.7830200115863173 #
loop $-1 $-1 $371 $252 #
plane-surface $-1 40.070802941984311 0 0 -1 0 0 0 0 1 forward_v I I I I #
coedge $-1 $256 $255 $377 $464 reversed $98 $-1 #
coedge $-1 $465 $466 $256 $372 forward $368 $-1 #
edge $-1 $374 25.168276775074286 $467 33.820045587395526 $371 $468 forward 7 unknown #
coedge $-1 $262 $257 $466 $469 forward $157 $-1 #
vertex $-1 $469 $470 #
straight-curve $-1 17.647740675760687 17.130491246141922 5.3257111011340079 1 0 0 I I #
coedge $-1 $471 $259 $262 $381 reversed $253 $-1 #
coedge $-1 $259 $471 $370 $464 forward $253 $-1 #
vertex $-1 $260 $472 #
straight-curve $-1 30.520159761058427 24.129919199510233 46.721335626394712 0 0 1 I I #
straight-curve $-1 30.520159761058427 -14.913109947787682 28.606750573399879 0 0.80901698891910034 -0.5877852598018023 I I #
edge $-1 $473 -40.070802941984311 $263 -30.520159761058427 $376 $474 forward 7 unknown #
point $-1 30.520159761058427 24.129919199510233 5.325711101134007 #
point $-1 30.520159761058427 17.130491246141922 5.3257111011340079 #
edge $-1 $475 1 $475 0 $266 $-1 forward 7 unknown #
vertex $-1 $267 $476 #
ellipse-curve $-1 35.29548135152136 16.378354611241793 -3.0691501845115456 0 0.5877852598018023 0.80901698891910034 2 0 0 1 I I #
point $-1 37.29548135152136 20.630205222826071 2.7830200115863173 #
plane-surface $-1 0 0 5.325711101134007 0 0 1 1 0 0 forward_v I I I I #
coedge $-1 $399 $398 $391 $477 forward $271 $-1 #
coedge $-1 $391 $273 $275 $395 reversed $172 $-1 #
coedge $-1 $273 $390 $389 $477 reversed $172 $-1 #
coedge $-1 $281 $276 $273 $393 forward $282 $-1 #
edge $-1 $396 -23.07172046089687 $478 -20.353001286490091 $392 $479 forward 7 unknown #
coedge $-1 $275 $274 $399 $480 reversed $107 $-1 #
edge $-1 $481 3.6241593609816998e-014 $396 4.6253614154205547 $390 $482 forward 7 unknown #
vertex $-1 $277 $483 #
straight-curve $-1 1.4115176230959499 -21.411200025103454 5.3257111011340079 -1 0 0 I I #
coedge $-1 $389 $278 $281 $403 reversed $271 $-1 #
coedge $-1 $278 $389 $394 $480 forward $271 $-1 #
vertex $-1 $279 $484 #
straight-curve $-1 6.9921323798896111 -24.129919199510233 24.344884101998812 0 0 1 I I #
straight-curve $-1 6.9921323798896111 -24.129919199510255 1.5837150730797234 0 -0.5877852410284794 -0.80901700255871778 I I #
edge $-1 $478 -1.3460618875058117 $283 6.9921323798896111 $398 $485 forward 7 unknown #
point $-1 6.9921323798896111 -24.129919199510233 5.325711101134007 #
point $-1 6.9921323798896111 -21.411200025103454 5.3257111011340079 #
edge $-1 $486 1 $486 0 $286 $-1 forward 7 unknown #
vertex $-1 $287 $487 #
ellipse-curve $-1 0.32157696597327146 -21.698458388709739 2.6757859766433119 0 -0.80901700255871778 0.5877852410284794 0.5 0 0 1 I I #
point $-1 0.82157696597327146 -22.770559612306833 3.4547130871068625 #
edge $-1 $488 1 $488 0 $290 $-1 forward 7 unknown #
vertex $-1 $291 $489 #
ellipse-curve $-1 2.8230352461918997 -21.698458388709739 2.6757859766433119 0 -0.80901700255871778 0.5877852410284794 0.5 0 0 1 I I #
point $-1 3.3230352461918997 -22.770559612306833 3.4547130871068625 #
edge $-1 $490 1 $490 0 $294 $-1 forward 7 unknown #
vertex $-1 $295 $491 #
ellipse-curve $-1 5.324493526410528 -21.698458388709739 2.6757859766433119 0 -0.80901700255871778 0.5877852410284794 0.5 0 0 1 I I #
point $-1 5.824493526410528 -22.770559612306833 3.4547130871068625 #
plane-surface $-1 40.070802941984311 0 0 -1 0 0 0 0 1 forward_v I I I I #
coedge $-1 $303 $301 $305 $423 reversed $201 $-1 #
edge $-1 $316 -5.325711101134007 $425 5.325711101134007 $315 $492 forward 7 unknown #
vertex $-1 $423 $493 #
straight-curve $-1 -40.070802941984311 -24.129919199510233 0 0 0 -1 I I #
edge $-1 $421 -24.129919199510233 $425 24.129919199510233 $419 $494 forward 7 unknown #
straight-curve $-1 0 -24.129919199510233 -5.325711101134007 -1 0 0 I I #
vertex $-1 $308 $495 #
straight-curve $-1 0 24.129919199510233 -5.325711101134007 1 0 0 I I #
point $-1 40.070802941984311 24.129919199510233 -5.325711101134007 #
point $-1 40.070802941984311 -24.129919199510233 -5.325711101134007 #
straight-curve $-1 -40.070802941984311 0 5.325711101134007 0 -1 0 I I #
point $-1 -40.070802941984311 24.129919199510233 5.325711101134007 #
point $-1 -40.070802941984311 -24.129919199510233 5.325711101134007 #
straight-curve $-1 40.070802941984311 -24.129919199510233 0 0 0 -1 I I #
straight-curve $-1 40.070802941984311 24.129919199510233 0 0 0 -1 I I #
plane-surface $-1 0 -24.129919199510233 0 0 1 0 0 0 1 forward_v I I I I #
coedge $-1 $496 $328 $342 $449 reversed $220 $-1 #
coedge $-1 $328 $496 $440 $497 reversed $220 $-1 #
edge $-1 $441 -1.5 $438 1.5 $329 $498 forward 7 unknown #
vertex $-1 $330 $499 #
straight-curve $-1 -43.58292957067804 24.129919199510233 2.325711101134007 1 0 0 I I #
coedge $-1 $444 $331 $436 $497 forward $326 $-1 #
vertex $-1 $332 $500 #
straight-curve $-1 0 24.129919199510233 5.325711101134007 -1 0 0 I I #
point $-1 -40.070802941984311 24.129919199510233 5.325711101134007 #
coedge $-1 $335 $440 $337 $447 forward $326 $-1 #
straight-curve $-1 -40.070802941984311 0 5.325711101134007 0 1 0 I I #
coedge $-1 $338 $337 $496 $501 forward $339 $-1 #
edge $-1 $502 -47.095056199371768 $340 -40.070802941984311 $337 $503 forward 7 unknown #
point $-1 -40.070802941984311 -24.129919199510233 5.325711101134007 #
edge $-1 $450 -24.129919199510233 $438 24.129919199510233 $435 $504 forward 7 unknown #
vertex $-1 $449 $505 #
straight-curve $-1 -43.58292957067804 -24.129919199510233 2.325711101134007 -1 0 0 I I #
coedge $-1 $357 $356 $349 $453 forward $346 $-1 #
edge $-1 $454 41.395624525260708 $457 46.481006704356076 $452 $506 forward 7 unknown #
vertex $-1 $361 $507 #
straight-curve $-1 3.512126628693732 16.09647234382723 5.3257111011340044 0 1 0 I I #
edge $-1 $457 -4.1437241095783399 $358 5.4069190713475557 $357 $508 forward 7 unknown #
vertex $-1 $456 $509 #
straight-curve $-1 3.512126628693732 -14.913109947787682 28.606750573399879 0 -0.80901698891910034 0.5877852598018023 I I #
point $-1 3.512126628693732 17.130491246141922 5.3257111011340079 #
point $-1 -6.0385165522321635 24.129919199510233 0.24032892203863909 #
straight-curve $-1 0 24.129919199510233 5.325711101134007 -1 0 0 I I #
vertex $-1 $364 $510 #
point $-1 0.73680503823077714 16.378354611241793 -3.0691501845115456 #
edge $-1 $467 -22.423062266223639 $378 -12.872419085297739 $377 $511 forward 7 unknown #
coedge $-1 $466 $371 $471 $512 reversed $368 $-1 #
coedge $-1 $371 $465 $373 $469 reversed $368 $-1 #
vertex $-1 $372 $513 #
straight-curve $-1 40.070802941984311 -3.2310722467112027 20.119253204134719 0 0.80901698891910034 -0.5877852598018023 I I #
edge $-1 $374 17.130491246141922 $473 24.129919199510233 $466 $514 forward 7 unknown #
point $-1 40.070802941984326 17.130491246141922 5.3257111011340079 #
coedge $-1 $377 $376 $465 $512 forward $253 $-1 #
point $-1 30.520159761058427 24.129919199510233 0.24032892203863909 #
vertex $-1 $469 $515 #
straight-curve $-1 0 24.129919199510233 5.325711101134007 -1 0 0 I I #
vertex $-1 $384 $516 #
point $-1 37.29548135152136 16.378354611241793 -3.0691501845115456 #
edge $-1 $478 19.019173000864804 $481 22.76116902891906 $389 $517 forward 7 unknown #
vertex $-1 $403 $518 #
straight-curve $-1 -1.3460618875058117 -44.482920486000324 5.3257111011340079 0 -1 0 I I #
edge $-1 $481 -2.7575795106017615 $400 5.5806147567936613 $399 $519 forward 7 unknown #
vertex $-1 $480 $520 #
straight-curve $-1 -1.3460618875058117 -24.129919199510255 1.5837150730797234 0 0.5877852410284794 0.80901700255871778 I I #
point $-1 -1.3460618875058117 -21.411200025103454 5.3257111011340079 #
point $-1 6.9921323798896111 -24.129919199510233 1.5837150730797527 #
straight-curve $-1 0 -24.129919199510233 5.325711101134007 1 0 0 I I #
vertex $-1 $406 $521 #
point $-1 0.82157696597327146 -21.698458388709739 2.6757859766433119 #
vertex $-1 $410 $522 #
point $-1 3.3230352461918997 -21.698458388709739 2.6757859766433119 #
vertex $-1 $414 $523 #
point $-1 5.824493526410528 -21.698458388709739 2.6757859766433119 #
straight-curve $-1 -40.070802941984311 24.129919199510233 0 0 0 -1 I I #
point $-1 -40.070802941984311 -24.129919199510233 -5.325711101134007 #
straight-curve $-1 -40.070802941984311 0 -5.325711101134007 0 1 0 I I #
point $-1 -40.070802941984311 24.129919199510233 -5.325711101134007 #
coedge $-1 $436 $435 $446 $501 reversed $220 $-1 #
edge $-1 $441 -24.129919199510233 $502 24.129919199510233 $436 $524 forward 7 unknown #
straight-curve $-1 -47.095056199371768 24.129919199510233 3.825711101134007 0 0 -1 I I #
point $-1 -47.095056199371768 24.129919199510233 2.325711101134007 #
point $-1 -47.095056199371768 24.129919199510233 5.325711101134007 #
edge $-1 $502 -1.5 $450 1.5 $496 $525 forward 7 unknown #
vertex $-1 $497 $526 #
straight-curve $-1 0 -24.129919199510233 5.325711101134007 1 0 0 I I #
straight-curve $-1 -47.095056199371768 0 2.325711101134007 0 1 0 I I #
point $-1 -47.095056199371768 -24.129919199510233 2.325711101134007 #
straight-curve $-1 3.512126628693732 24.129919199510233 46.721335626394712 0 0 -1 I I #
point $-1 3.512126628693732 24.129919199510233 5.325711101134007 #
straight-curve $-1 -0.63159748088460788 24.129919199510233 0.24032892203863909 -1 0 0 I I #
point $-1 3.512126628693732 24.129919199510233 0.24032892203863909 #
point $-1 -1.2631949617692229 15.20278409163819 -4.6871841623497472 #
straight-curve $-1 17.647740675760687 24.129919199510233 0.24032892203863909 -1 0 0 I I #
edge $-1 $473 -5.325711101134007 $467 -0.24032892203863909 $465 $527 forward 7 unknown #
point $-1 40.070802941984326 24.129919199510233 0.24032892203863909 #
straight-curve $-1 40.070802941984311 0 5.325711101134007 0 1 0 I I #
point $-1 40.070802941984311 24.129919199510233 5.325711101134007 #
point $-1 35.29548135152136 15.20278409163819 -4.6871841623497472 #
straight-curve $-1 -1.3460618875058117 -24.129919199510233 24.344884101998812 0 0 -1 I I #
point $-1 -1.3460618875058117 -24.129919199510233 5.325711101134007 #
straight-curve $-1 1.4115176230959499 -24.129919199510233 1.5837150730797513 1 0 0 I I #
point $-1 -1.3460618875058117 -24.129919199510233 1.5837150730797527 #
point $-1 0.32157696597327146 -21.293949887430379 2.3818933561290723 #
point $-1 2.8230352461918997 -21.293949887430379 2.3818933561290723 #
point $-1 5.324493526410528 -21.293949887430379 2.3818933561290723 #
straight-curve $-1 -47.095056199371768 0 5.325711101134007 0 -1 0 I I #
straight-curve $-1 -47.095056199371768 -24.129919199510233 3.825711101134007 0 0 -1 I I #
point $-1 -47.095056199371768 -24.129919199510233 5.325711101134007 #
straight-curve $-1 40.070802941984311 24.129919199510233 0 0 0 -1 I I #
End-of-ACIS-data 