500 0 9 0           
7 Unknown 11 ACIS 5.0 NT 24 Thu Mar 25 19:55:22 1999 
-1 9.9999999999999995e-007 1e-010 
body $-1 $9 $-1 $10 #
body $-1 $11 $-1 $12 #
body $-1 $13 $-1 $14 #
body $-1 $15 $-1 $16 #
body $-1 $17 $-1 $18 #
body $-1 $19 $-1 $20 #
body $-1 $21 $-1 $22 #
body $-1 $23 $-1 $24 #
body $-1 $25 $-1 $26 #
lump $-1 $-1 $27 $0 #
transform $-1 1 0 0 0 1 0 0 0 1 49.460737937559131 34.044692206106824 7.5514030260318128 1 rotate no_reflect no_shear #
lump $-1 $-1 $28 $1 #
transform $-1 1 0 0 0 1 0 0 0 1 49.460737937559131 34.044692206106824 7.5514030260318128 1 rotate no_reflect no_shear #
lump $-1 $-1 $29 $2 #
transform $-1 1 0 0 0 1 0 0 0 1 49.460737937559131 34.044692206106824 7.5514030260318128 1 rotate no_reflect no_shear #
lump $-1 $-1 $30 $3 #
transform $-1 1 0 0 0 1 0 0 0 1 49.460737937559131 34.044692206106824 7.5514030260318128 1 rotate no_reflect no_shear #
lump $-1 $-1 $31 $4 #
transform $-1 1 0 0 0 1 0 0 0 1 49.460737937559131 34.044692206106824 7.5514030260318128 1 rotate no_reflect no_shear #
lump $-1 $-1 $32 $5 #
transform $-1 1 0 0 0 1 0 0 0 1 49.460737937559131 34.044692206106824 7.5514030260318128 1 rotate no_reflect no_shear #
lump $-1 $-1 $33 $6 #
transform $-1 1 0 0 0 1 0 0 0 1 49.460737937559131 34.044692206106824 7.5514030260318128 1 rotate no_reflect no_shear #
lump $-1 $-1 $34 $7 #
transform $-1 1 0 0 0 1 0 0 0 1 49.460737937559131 34.044692206106824 7.5514030260318128 1 rotate no_reflect no_shear #
lump $-1 $-1 $35 $8 #
transform $-1 1 0 0 0 1 0 0 0 1 49.460737937559131 34.044692206106824 7.5514030260318128 1 rotate no_reflect no_shear #
shell $-1 $-1 $-1 $36 $-1 $9 #
shell $-1 $-1 $-1 $37 $-1 $11 #
shell $-1 $-1 $-1 $38 $-1 $13 #
shell $-1 $-1 $-1 $39 $-1 $15 #
shell $-1 $-1 $-1 $40 $-1 $17 #
shell $-1 $-1 $-1 $41 $-1 $19 #
shell $-1 $-1 $-1 $42 $-1 $21 #
shell $-1 $-1 $-1 $43 $-1 $23 #
shell $-1 $-1 $-1 $44 $-1 $25 #
face $-1 $45 $46 $27 $-1 $47 reversed single #
face $-1 $48 $49 $28 $-1 $50 forward single #
face $-1 $51 $52 $29 $-1 $53 forward single #
face $-1 $54 $55 $30 $-1 $56 reversed single #
face $-1 $57 $58 $31 $-1 $59 forward single #
face $-1 $60 $61 $32 $-1 $62 forward single #
face $-1 $63 $64 $33 $-1 $65 reversed single #
face $-1 $66 $67 $34 $-1 $68 forward single #
face $-1 $69 $70 $35 $-1 $71 forward single #
face $-1 $72 $73 $27 $-1 $74 reversed single #
loop $-1 $-1 $75 $36 #
plane-surface $-1 0 34.044692206106824 0 0 -1 0 0 0 -1 forward_v I I I I #
face $-1 $76 $77 $28 $-1 $78 reversed single #
loop $-1 $-1 $79 $37 #
plane-surface $-1 0 -34.044692206106824 0 0 1 0 0 0 1 forward_v I I I I #
face $-1 $80 $81 $29 $-1 $82 reversed single #
loop $-1 $-1 $83 $38 #
plane-surface $-1 0 34.044692206106824 0 0 -1 0 0 0 -1 forward_v I I I I #
face $-1 $84 $85 $30 $-1 $86 reversed single #
loop $-1 $-1 $87 $39 #
plane-surface $-1 34.837615739829502 -16.210420058210914 142.31433449377337 0 -1 0 -0.62932039886446345 0 -0.77714595512881146 forward_v I I I I #
face $-1 $88 $89 $31 $-1 $90 forward single #
loop $-1 $91 $92 $40 #
cone-surface $-1 46.449805788334643 -23.416475891031894 4.9794320294825498 -0.62932039886446345 0 -0.77714595512881146 0.38857297756440573 0 -0.31466019943223172 1 I I 0 1 0.5 forward I I I I #
face $-1 $93 $94 $32 $-1 $95 forward single #
loop $-1 $96 $97 $41 #
cone-surface $-1 46.449805788334643 -19.092842391339303 4.9794320294825498 -0.62932039886446345 0 -0.77714595512881146 0.38857297756440573 0 -0.31466019943223172 1 I I 0 1 0.5 forward I I I I #
face $-1 $98 $99 $33 $-1 $100 reversed single #
loop $-1 $-1 $101 $42 #
plane-surface $-1 -111.71404059154995 -26.298898224160283 80.061031839782572 0 1 0 -0.62932039886446345 0 0.77714595512881146 forward_v I I I I #
face $-1 $102 $103 $34 $-1 $104 forward single #
loop $-1 $105 $106 $43 #
cone-surface $-1 -46.449805788334629 -23.416475891031894 4.9794320294825587 0.62932039886446345 0 -0.77714595512881146 0.38857297756440573 0 0.31466019943223172 1 I I 0 1 0.5 forward I I I I #
face $-1 $107 $108 $35 $-1 $109 forward single #
loop $-1 $110 $111 $44 #
cone-surface $-1 -46.449805788334629 -19.092842391339303 4.9794320294825587 0.62932039886446345 0 -0.77714595512881146 0.38857297756440573 0 0.31466019943223172 1 I I 0 1 0.5 forward I I I I #
face $-1 $112 $113 $27 $-1 $114 forward single #
loop $-1 $-1 $115 $45 #
plane-surface $-1 0 -34.044692206106824 0 0 1 0 0 0 1 forward_v I I I I #
coedge $-1 $116 $117 $118 $119 reversed $46 $-1 #
face $-1 $120 $121 $28 $-1 $122 reversed single #
loop $-1 $-1 $123 $48 #
plane-surface $-1 0 0 -7.5514030260318128 0 0 1 1 0 0 forward_v I I I I #
coedge $-1 $124 $125 $126 $127 forward $49 $-1 #
face $-1 $128 $129 $29 $-1 $130 reversed single #
loop $-1 $-1 $131 $51 #
plane-surface $-1 0 0 -7.5514030260318128 0 0 1 1 0 0 forward_v I I I I #
coedge $-1 $132 $133 $134 $135 forward $52 $-1 #
face $-1 $136 $137 $30 $-1 $138 reversed single #
loop $-1 $-1 $139 $54 #
plane-surface $-1 -27.41568691416132 -21.254659141185599 65.437909642052915 0.62932039886446345 0 0.77714595512881146 0.77714595512881146 0 -0.62932039886446345 forward_v I I I I #
coedge $-1 $140 $141 $142 $143 reversed $55 $-1 #
face $-1 $-1 $144 $31 $-1 $145 forward single #
loop $-1 $146 $147 $57 #
cone-surface $-1 45.977815489186298 -23.416475891031894 4.3965725631359414 -0.62932039886446345 0 -0.77714595512881146 0.19428648878220287 0 -0.15733009971611586 1 I I -0.70710678118654746 0.70710678118654746 0.25 forward I I I I #
loop $-1 $-1 $148 $40 #
coedge $-1 $92 $92 $149 $150 reversed $58 $-1 #
face $-1 $-1 $151 $32 $-1 $152 forward single #
loop $-1 $153 $154 $60 #
cone-surface $-1 45.977815489186298 -19.092842391339303 4.3965725631359414 -0.62932039886446345 0 -0.77714595512881146 0.19428648878220287 0 -0.15733009971611586 1 I I -0.70710678118654746 0.70710678118654746 0.25 forward I I I I #
loop $-1 $-1 $155 $41 #
coedge $-1 $97 $97 $156 $157 reversed $61 $-1 #
face $-1 $158 $159 $33 $-1 $160 reversed single #
loop $-1 $-1 $161 $63 #
plane-surface $-1 -49.460737937559124 -21.254659141185599 3.1846069880621144 -0.62932039886446345 0 0.77714595512881146 0.77714595512881146 0 0.62932039886446345 forward_v I I I I #
coedge $-1 $162 $163 $164 $165 reversed $64 $-1 #
face $-1 $-1 $166 $34 $-1 $167 forward single #
loop $-1 $168 $169 $66 #
cone-surface $-1 -45.977815489186284 -23.416475891031894 4.3965725631359502 0.62932039886446345 0 -0.77714595512881146 0.19428648878220287 0 0.15733009971611586 1 I I -0.70710678118654746 0.70710678118654746 0.25 forward I I I I #
loop $-1 $-1 $170 $43 #
coedge $-1 $106 $106 $171 $172 reversed $67 $-1 #
face $-1 $-1 $173 $35 $-1 $174 forward single #
loop $-1 $175 $176 $69 #
cone-surface $-1 -45.977815489186284 -19.092842391339303 4.3965725631359502 0.62932039886446345 0 -0.77714595512881146 0.19428648878220287 0 0.15733009971611586 1 I I -0.70710678118654746 0.70710678118654746 0.25 forward I I I I #
loop $-1 $-1 $177 $44 #
coedge $-1 $111 $111 $178 $179 reversed $70 $-1 #
face $-1 $180 $181 $27 $-1 $182 reversed single #
loop $-1 $-1 $183 $72 #
plane-surface $-1 0 0 7.5514030260318128 0 0 1 1 0 0 forward_v I I I I #
coedge $-1 $184 $185 $186 $187 reversed $73 $-1 #
coedge $-1 $188 $75 $189 $190 reversed $46 $-1 #
coedge $-1 $75 $188 $191 $192 forward $46 $-1 #
coedge $-1 $193 $194 $75 $119 forward $181 $-1 #
edge $-1 $195 -49.460737937559131 $196 49.460737937559131 $75 $197 forward 7 unknown #
face $-1 $198 $199 $28 $-1 $200 reversed single #
loop $-1 $-1 $201 $76 #
plane-surface $-1 -36.090488811958245 -41.790486188053357 0 0 1 0 0 0 1 forward_v I I I I #
coedge $-1 $202 $203 $125 $204 forward $77 $-1 #
coedge $-1 $205 $79 $206 $207 reversed $49 $-1 #
coedge $-1 $79 $205 $123 $204 reversed $49 $-1 #
coedge $-1 $208 $209 $79 $127 reversed $199 $-1 #
edge $-1 $210 -7.5514030260318128 $211 7.5514030260318128 $126 $212 forward 7 unknown #
face $-1 $213 $214 $29 $-1 $215 reversed single #
loop $-1 $-1 $216 $80 #
plane-surface $-1 -37.823045738420987 37.917589197080098 0 1 0 0 0 0 -1 forward_v I I I I #
coedge $-1 $217 $218 $133 $219 forward $81 $-1 #
coedge $-1 $220 $83 $221 $222 reversed $52 $-1 #
coedge $-1 $83 $220 $131 $219 reversed $52 $-1 #
coedge $-1 $223 $224 $83 $135 reversed $225 $-1 #
edge $-1 $226 -7.5514030260318128 $227 7.5514030260318128 $134 $228 forward 7 unknown #
face $-1 $229 $230 $30 $-1 $231 forward single #
loop $-1 $-1 $232 $84 #
plane-surface $-1 34.837615739829502 -26.298898224160283 142.31433449377337 0 1 0 0.62932039886446345 0 0.77714595512881146 forward_v I I I I #
coedge $-1 $233 $234 $235 $236 reversed $85 $-1 #
coedge $-1 $141 $87 $237 $238 reversed $55 $-1 #
coedge $-1 $87 $140 $233 $239 reversed $55 $-1 #
coedge $-1 $235 $240 $87 $143 forward $230 $-1 #
edge $-1 $241 -32.04193006764438 $242 -26.64938616805982 $142 $243 forward 7 unknown #
loop $-1 $-1 $149 $88 #
plane-surface $-1 -27.41568691416132 -21.254659141185599 65.437909642052915 0.62932039886446345 0 0.77714595512881146 0.77714595512881146 0 -0.62932039886446345 forward_v I I I I #
loop $-1 $-1 $244 $57 #
coedge $-1 $147 $147 $148 $245 reversed $89 $-1 #
coedge $-1 $148 $148 $147 $245 forward $91 $-1 #
coedge $-1 $149 $149 $92 $150 forward $144 $-1 #
edge $-1 $246 0 $246 6.2831853071796004 $149 $247 forward 7 unknown #
loop $-1 $-1 $156 $93 #
plane-surface $-1 -27.41568691416132 -21.254659141185599 65.437909642052915 0.62932039886446345 0 0.77714595512881146 0.77714595512881146 0 -0.62932039886446345 forward_v I I I I #
loop $-1 $-1 $248 $60 #
coedge $-1 $154 $154 $155 $249 reversed $94 $-1 #
coedge $-1 $155 $155 $154 $249 forward $96 $-1 #
coedge $-1 $156 $156 $97 $157 forward $151 $-1 #
edge $-1 $250 0 $250 6.2831853071796004 $156 $251 forward 7 unknown #
face $-1 $252 $253 $33 $-1 $254 reversed single #
loop $-1 $-1 $255 $98 #
plane-surface $-1 -111.71404059154995 -16.210420058210914 80.061031839782572 0 -1 0 0.62932039886446345 0 -0.77714595512881146 forward_v I I I I #
coedge $-1 $256 $257 $258 $259 reversed $99 $-1 #
coedge $-1 $163 $101 $260 $261 reversed $64 $-1 #
coedge $-1 $101 $162 $256 $262 reversed $64 $-1 #
coedge $-1 $258 $263 $101 $165 forward $264 $-1 #
edge $-1 $265 6.3962823582158421 $266 11.788826257800388 $164 $267 forward 7 unknown #
loop $-1 $-1 $171 $102 #
plane-surface $-1 -49.460737937559124 -21.254659141185599 3.1846069880621144 -0.62932039886446345 0 0.77714595512881146 0.77714595512881146 0 0.62932039886446345 forward_v I I I I #
loop $-1 $-1 $268 $66 #
coedge $-1 $169 $169 $170 $269 reversed $103 $-1 #
coedge $-1 $170 $170 $169 $269 forward $105 $-1 #
coedge $-1 $171 $171 $106 $172 forward $166 $-1 #
edge $-1 $270 0 $270 6.2831853071796004 $171 $271 forward 7 unknown #
loop $-1 $-1 $178 $107 #
plane-surface $-1 -49.460737937559124 -21.254659141185599 3.1846069880621144 -0.62932039886446345 0 0.77714595512881146 0.77714595512881146 0 0.62932039886446345 forward_v I I I I #
loop $-1 $-1 $272 $69 #
coedge $-1 $176 $176 $177 $273 reversed $108 $-1 #
coedge $-1 $177 $177 $176 $273 forward $110 $-1 #
coedge $-1 $178 $178 $111 $179 forward $173 $-1 #
edge $-1 $274 0 $274 6.2831853071796004 $178 $275 forward 7 unknown #
face $-1 $276 $277 $27 $-1 $278 reversed single #
loop $-1 $-1 $193 $112 #
plane-surface $-1 0 0 -7.5514030260318128 0 0 1 1 0 0 forward_v I I I I #
coedge $-1 $279 $280 $281 $282 forward $113 $-1 #
coedge $-1 $283 $115 $284 $285 reversed $73 $-1 #
coedge $-1 $115 $283 $286 $287 forward $73 $-1 #
coedge $-1 $194 $193 $115 $187 forward $181 $-1 #
edge $-1 $288 -49.460737937559131 $289 49.460737937559131 $115 $290 forward 7 unknown #
coedge $-1 $117 $116 $279 $291 reversed $46 $-1 #
coedge $-1 $292 $293 $116 $190 forward $277 $-1 #
edge $-1 $294 -7.5514030260318128 $195 7.5514030260318128 $116 $295 forward 7 unknown #
coedge $-1 $281 $296 $117 $192 reversed $297 $-1 #
edge $-1 $298 -7.5514030260318128 $196 7.5514030260318128 $191 $299 forward 7 unknown #
coedge $-1 $186 $118 $296 $300 forward $181 $-1 #
coedge $-1 $118 $186 $292 $301 forward $181 $-1 #
vertex $-1 $119 $302 #
vertex $-1 $300 $303 #
straight-curve $-1 0 34.044692206106824 -7.5514030260318128 1 0 0 I I #
face $-1 $304 $305 $28 $-1 $306 reversed single #
loop $-1 $-1 $126 $120 #
plane-surface $-1 -37.823045738420987 -37.91758919708009 0 1 0 0 0 0 -1 forward_v I I I I #
coedge $-1 $307 $308 $309 $310 forward $121 $-1 #
coedge $-1 $311 $123 $312 $313 forward $77 $-1 #
coedge $-1 $123 $311 $208 $314 forward $77 $-1 #
edge $-1 $210 -37.823045738420987 $315 -34.357931885495503 $123 $316 forward 7 unknown #
coedge $-1 $125 $124 $317 $318 forward $49 $-1 #
coedge $-1 $319 $320 $124 $207 forward $321 $-1 #
edge $-1 $322 34.357931885495503 $211 37.823045738420987 $206 $323 forward 7 unknown #
coedge $-1 $309 $126 $203 $314 reversed $199 $-1 #
coedge $-1 $126 $309 $319 $324 reversed $199 $-1 #
vertex $-1 $204 $325 #
vertex $-1 $324 $326 #
straight-curve $-1 -37.823045738420987 -34.044692206106824 0 0 0 1 I I #
face $-1 $327 $225 $29 $-1 $328 reversed single #
loop $-1 $-1 $329 $128 #
plane-surface $-1 -36.090488811958245 41.790486188053364 0 0 -1 0 0 0 -1 forward_v I I I I #
coedge $-1 $330 $331 $332 $333 forward $129 $-1 #
coedge $-1 $334 $131 $330 $335 forward $81 $-1 #
coedge $-1 $131 $334 $223 $336 forward $81 $-1 #
edge $-1 $226 34.357931885495503 $337 37.823045738420987 $131 $338 forward 7 unknown #
coedge $-1 $133 $132 $339 $340 forward $52 $-1 #
coedge $-1 $341 $342 $132 $222 forward $343 $-1 #
edge $-1 $344 -37.823045738420987 $227 -34.357931885495503 $221 $345 forward 7 unknown #
coedge $-1 $346 $134 $218 $336 reversed $225 $-1 #
coedge $-1 $134 $346 $341 $347 reversed $225 $-1 #
loop $-1 $-1 $134 $213 #
vertex $-1 $219 $348 #
vertex $-1 $347 $349 #
straight-curve $-1 -34.357931885495503 34.044692206106824 0 0 0 1 I I #
face $-1 $-1 $350 $30 $-1 $351 reversed single #
loop $-1 $-1 $142 $136 #
plane-surface $-1 0 0 7.5514030260318128 0 0 1 1 0 0 forward_v I I I I #
coedge $-1 $352 $353 $354 $355 reversed $137 $-1 #
coedge $-1 $356 $139 $141 $239 forward $85 $-1 #
coedge $-1 $139 $356 $352 $357 forward $85 $-1 #
coedge $-1 $354 $142 $139 $236 forward $230 $-1 #
edge $-1 $242 5.5830904876181151 $358 15.671568653567483 $235 $359 forward 7 unknown #
coedge $-1 $360 $361 $140 $238 forward $350 $-1 #
edge $-1 $362 -67.972560258824586 $241 -63.605764220854873 $237 $363 forward 7 unknown #
edge $-1 $242 91.982568371326693 $362 98.921475875118261 $141 $364 forward 7 unknown #
coedge $-1 $142 $354 $360 $365 forward $230 $-1 #
vertex $-1 $143 $366 #
vertex $-1 $143 $367 #
straight-curve $-1 17.418807869914751 -16.210420058210914 7.5514030260318066 -1 0 0 I I #
coedge $-1 $244 $244 $-1 $368 reversed $146 $-1 #
edge $-1 $369 0 $369 6.2831853071796004 $147 $370 forward 7 unknown #
vertex $-1 $150 $371 #
ellipse-curve $-1 46.764465987766862 -23.416475891031894 5.3680050070469392 0.62932039886446345 0 0.77714595512881146 0.38857297756440573 0 -0.31466019943223172 1 I I #
coedge $-1 $248 $248 $-1 $372 reversed $153 $-1 #
edge $-1 $373 0 $373 6.2831853071796004 $154 $374 forward 7 unknown #
vertex $-1 $157 $375 #
ellipse-curve $-1 46.764465987766862 -19.092842391339303 5.3680050070469392 0.62932039886446345 0 0.77714595512881146 0.38857297756440573 0 -0.31466019943223172 1 I I #
face $-1 $-1 $264 $33 $-1 $376 forward single #
loop $-1 $-1 $377 $158 #
plane-surface $-1 -49.460737937559131 0 0 1 0 0 0 0 -1 forward_v I I I I #
coedge $-1 $378 $379 $380 $381 reversed $159 $-1 #
coedge $-1 $382 $161 $163 $262 forward $99 $-1 #
coedge $-1 $161 $382 $378 $383 forward $99 $-1 #
coedge $-1 $380 $164 $161 $259 forward $264 $-1 #
edge $-1 $266 -15.671568653567483 $384 -5.5830904876181151 $258 $385 forward 7 unknown #
coedge $-1 $386 $387 $162 $261 forward $253 $-1 #
edge $-1 $388 -36.845908931829179 $265 -32.479112893859472 $260 $389 forward 7 unknown #
edge $-1 $266 -6.9389075037915209 $388 9.1551213131864128e-015 $163 $390 forward 7 unknown #
coedge $-1 $164 $380 $386 $391 forward $264 $-1 #
loop $-1 $-1 $380 $252 #
vertex $-1 $261 $392 #
vertex $-1 $165 $393 #
straight-curve $-1 -55.857020295774973 -26.298898224160283 7.5514030260318137 1 0 0 I I #
coedge $-1 $268 $268 $-1 $394 reversed $168 $-1 #
edge $-1 $395 0 $395 6.2831853071796004 $169 $396 forward 7 unknown #
vertex $-1 $172 $397 #
ellipse-curve $-1 -46.764465987766854 -23.416475891031894 5.3680050070469605 -0.62932039886446345 0 0.77714595512881146 0.38857297756440573 0 0.31466019943223172 1 I I #
coedge $-1 $272 $272 $-1 $398 reversed $175 $-1 #
edge $-1 $399 0 $399 6.2831853071796004 $176 $400 forward 7 unknown #
vertex $-1 $179 $401 #
ellipse-curve $-1 -46.764465987766854 -19.092842391339303 5.3680050070469605 -0.62932039886446345 0 0.77714595512881146 0.38857297756440573 0 0.31466019943223172 1 I I #
face $-1 $-1 $297 $27 $-1 $402 reversed single #
loop $-1 $-1 $189 $180 #
plane-surface $-1 -49.460737937559131 0 0 1 0 0 0 0 -1 forward_v I I I I #
coedge $-1 $403 $183 $188 $291 forward $113 $-1 #
coedge $-1 $183 $403 $283 $404 forward $113 $-1 #
coedge $-1 $284 $191 $183 $282 reversed $297 $-1 #
edge $-1 $405 -34.044692206106824 $298 34.044692206106824 $281 $406 forward 7 unknown #
coedge $-1 $185 $184 $280 $404 reversed $73 $-1 #
coedge $-1 $296 $281 $184 $285 forward $297 $-1 #
edge $-1 $405 -7.5514030260318128 $288 7.5514030260318128 $284 $407 forward 7 unknown #
coedge $-1 $293 $292 $185 $287 reversed $277 $-1 #
edge $-1 $408 -7.5514030260318128 $289 7.5514030260318128 $286 $409 forward 7 unknown #
vertex $-1 $285 $410 #
vertex $-1 $301 $411 #
straight-curve $-1 0 -34.044692206106824 -7.5514030260318128 -1 0 0 I I #
edge $-1 $298 -49.460737937559131 $294 49.460737937559131 $188 $412 forward 7 unknown #
coedge $-1 $286 $189 $194 $301 reversed $277 $-1 #
coedge $-1 $189 $286 $403 $413 reversed $277 $-1 #
vertex $-1 $291 $414 #
straight-curve $-1 -49.460737937559131 34.044692206106824 0 0 0 -1 I I #
coedge $-1 $191 $284 $193 $300 reversed $297 $-1 #
loop $-1 $-1 $284 $276 #
vertex $-1 $282 $415 #
straight-curve $-1 49.460737937559131 34.044692206106824 0 0 0 -1 I I #
edge $-1 $196 -34.044692206106824 $288 34.044692206106824 $296 $416 forward 7 unknown #
edge $-1 $289 -34.044692206106824 $195 34.044692206106824 $292 $417 forward 7 unknown #
point $-1 -49.460737937559131 34.044692206106824 -7.5514030260318128 #
point $-1 49.460737937559131 34.044692206106824 -7.5514030260318128 #
face $-1 $-1 $321 $28 $-1 $418 forward single #
loop $-1 $-1 $419 $198 #
plane-surface $-1 -34.357931885495503 -37.91758919708009 0 -1 0 0 0 0 1 forward_v I I I I #
coedge $-1 $420 $201 $311 $421 reversed $121 $-1 #
coedge $-1 $201 $420 $422 $423 reversed $121 $-1 #
coedge $-1 $209 $208 $201 $310 reversed $199 $-1 #
edge $-1 $424 -7.5514030260318128 $425 7.5514030260318128 $309 $426 forward 7 unknown #
coedge $-1 $203 $202 $307 $421 forward $77 $-1 #
coedge $-1 $317 $419 $202 $313 reversed $305 $-1 #
edge $-1 $315 -3.8728969909732669 $427 3.8728969909732669 $312 $428 forward 7 unknown #
edge $-1 $425 -3.8728969909732669 $210 3.8728969909732669 $208 $429 forward 7 unknown #
vertex $-1 $313 $430 #
straight-curve $-1 0 -34.044692206106824 -7.5514030260318128 1 0 0 I I #
coedge $-1 $431 $312 $205 $318 reversed $305 $-1 #
edge $-1 $322 -7.5514030260318128 $315 7.5514030260318128 $317 $432 forward 7 unknown #
coedge $-1 $422 $206 $209 $324 forward $321 $-1 #
coedge $-1 $206 $422 $431 $433 forward $321 $-1 #
loop $-1 $-1 $206 $304 #
vertex $-1 $207 $434 #
straight-curve $-1 0 -34.044692206106824 7.5514030260318128 -1 0 0 I I #
edge $-1 $211 -3.8728969909732669 $424 3.8728969909732669 $209 $435 forward 7 unknown #
point $-1 -37.823045738420987 -34.044692206106824 -7.5514030260318128 #
point $-1 -37.823045738420987 -34.044692206106824 7.5514030260318128 #
face $-1 $-1 $343 $29 $-1 $436 forward single #
plane-surface $-1 -34.357931885495503 37.917589197080098 0 -1 0 0 0 0 1 forward_v I I I I #
coedge $-1 $437 $438 $346 $439 forward $214 $-1 #
coedge $-1 $339 $216 $217 $335 reversed $129 $-1 #
coedge $-1 $216 $339 $342 $440 reversed $129 $-1 #
coedge $-1 $438 $437 $216 $333 reversed $214 $-1 #
edge $-1 $441 -7.5514030260318128 $442 7.5514030260318128 $332 $443 forward 7 unknown #
coedge $-1 $218 $217 $437 $444 forward $81 $-1 #
edge $-1 $337 -3.8728969909732669 $442 3.8728969909732669 $330 $445 forward 7 unknown #
edge $-1 $446 -3.8728969909732669 $226 3.8728969909732669 $223 $447 forward 7 unknown #
vertex $-1 $335 $448 #
straight-curve $-1 0 34.044692206106824 -7.5514030260318128 -1 0 0 I I #
coedge $-1 $331 $330 $220 $340 reversed $129 $-1 #
edge $-1 $344 -7.5514030260318128 $337 7.5514030260318128 $339 $449 forward 7 unknown #
coedge $-1 $450 $221 $224 $347 forward $343 $-1 #
coedge $-1 $221 $450 $331 $440 forward $343 $-1 #
loop $-1 $-1 $221 $327 #
vertex $-1 $222 $451 #
straight-curve $-1 0 34.044692206106824 7.5514030260318128 1 0 0 I I #
coedge $-1 $224 $223 $329 $439 reversed $225 $-1 #
edge $-1 $227 -3.8728969909732669 $452 3.8728969909732669 $224 $453 forward 7 unknown #
point $-1 -34.357931885495503 34.044692206106831 -7.5514030260318128 #
point $-1 -34.357931885495503 34.044692206106831 7.5514030260318128 #
loop $-1 $-1 $237 $229 #
plane-surface $-1 49.460737937559131 0 0 -1 0 0 0 0 1 forward_v I I I I #
coedge $-1 $353 $232 $234 $357 reversed $137 $-1 #
coedge $-1 $232 $352 $454 $455 reversed $137 $-1 #
coedge $-1 $240 $235 $232 $355 forward $230 $-1 #
edge $-1 $358 26.64938616805982 $456 32.04193006764438 $354 $457 forward 7 unknown #
coedge $-1 $234 $233 $361 $458 reversed $85 $-1 #
edge $-1 $459 -98.921475875118261 $358 -91.982568371326693 $352 $460 forward 7 unknown #
vertex $-1 $236 $461 #
straight-curve $-1 44.068194037974571 -10.627329570592799 7.5514030260318137 0 -1 0 I I #
coedge $-1 $454 $237 $240 $365 reversed $350 $-1 #
coedge $-1 $237 $454 $356 $458 forward $350 $-1 #
vertex $-1 $238 $462 #
straight-curve $-1 49.460737937559131 -16.210420058210914 71.157167246886686 0 0 1 I I #
straight-curve $-1 -27.41568691416132 -16.210420058210914 65.437909642052915 0.77714595512881146 0 -0.62932039886446345 I I #
edge $-1 $456 -26.298898224160283 $241 -16.210420058210914 $360 $463 forward 7 unknown #
point $-1 49.460737937559131 -16.210420058210914 7.5514030260318128 #
point $-1 44.068194037974571 -16.210420058210914 7.5514030260318137 #
edge $-1 $464 1 $464 0 $244 $-1 forward 7 unknown #
vertex $-1 $245 $465 #
ellipse-curve $-1 46.135145588902411 -23.416475891031894 4.5908590519181445 0.62932039886446345 0 0.77714595512881146 0.38857297756440573 0 -0.31466019943223172 1 I I #
point $-1 47.153038965331284 -23.416475891031894 5.0533448076147245 #
edge $-1 $466 1 $466 0 $248 $-1 forward 7 unknown #
vertex $-1 $249 $467 #
ellipse-curve $-1 46.135145588902411 -19.092842391339303 4.5908590519181445 0.62932039886446345 0 0.77714595512881146 0.38857297756440573 0 -0.31466019943223172 1 I I #
point $-1 47.153038965331284 -19.092842391339303 5.0533448076147245 #
plane-surface $-1 0 0 7.5514030260318128 0 0 1 1 0 0 forward_v I I I I #
coedge $-1 $387 $386 $379 $468 forward $253 $-1 #
coedge $-1 $379 $255 $257 $383 reversed $159 $-1 #
coedge $-1 $255 $378 $377 $468 reversed $159 $-1 #
coedge $-1 $263 $258 $255 $381 forward $264 $-1 #
edge $-1 $384 -11.788826257800388 $469 -6.3962823582158421 $380 $470 forward 7 unknown #
coedge $-1 $257 $256 $387 $471 reversed $99 $-1 #
edge $-1 $472 -9.1551213131864128e-015 $384 6.9389075037915209 $378 $473 forward 7 unknown #
vertex $-1 $259 $474 #
straight-curve $-1 -44.068194037974592 -10.627329570592799 7.5514030260318119 0 1 0 I I #
coedge $-1 $377 $260 $263 $391 reversed $253 $-1 #
coedge $-1 $260 $377 $382 $471 forward $253 $-1 #
vertex $-1 $261 $475 #
straight-curve $-1 -49.460737937559131 -26.298898224160283 40.030515919891286 0 0 1 I I #
straight-curve $-1 -49.460737937559124 -26.298898224160283 3.1846069880621144 -0.77714595512881146 0 -0.62932039886446345 I I #
edge $-1 $469 16.210420058210914 $265 26.298898224160283 $386 $476 forward 7 unknown #
point $-1 -49.460737937559131 -26.298898224160283 7.5514030260318128 #
point $-1 -44.068194037974585 -26.298898224160283 7.5514030260318128 #
edge $-1 $477 1 $477 0 $268 $-1 forward 7 unknown #
vertex $-1 $269 $478 #
ellipse-curve $-1 -46.135145588902397 -23.416475891031894 4.5908590519181534 -0.62932039886446345 0 0.77714595512881146 0.38857297756440573 0 0.31466019943223172 1 I I #
point $-1 -46.375893010202461 -23.416475891031894 5.6826652064791965 #
edge $-1 $479 1 $479 0 $272 $-1 forward 7 unknown #
vertex $-1 $273 $480 #
ellipse-curve $-1 -46.135145588902397 -19.092842391339303 4.5908590519181534 -0.62932039886446345 0 0.77714595512881146 0.38857297756440573 0 0.31466019943223172 1 I I #
point $-1 -46.375893010202461 -19.092842391339303 5.6826652064791965 #
plane-surface $-1 49.460737937559131 0 0 -1 0 0 0 0 1 forward_v I I I I #
coedge $-1 $280 $279 $293 $413 forward $113 $-1 #
edge $-1 $408 -49.460737937559131 $405 49.460737937559131 $283 $481 forward 7 unknown #
vertex $-1 $282 $482 #
straight-curve $-1 49.460737937559131 0 7.5514030260318128 0 1 0 I I #
straight-curve $-1 49.460737937559131 -34.044692206106824 0 0 0 -1 I I #
vertex $-1 $413 $483 #
straight-curve $-1 -49.460737937559131 -34.044692206106824 0 0 0 -1 I I #
point $-1 49.460737937559131 -34.044692206106824 -7.5514030260318128 #
point $-1 -49.460737937559131 -34.044692206106824 -7.5514030260318128 #
straight-curve $-1 0 34.044692206106824 7.5514030260318128 -1 0 0 I I #
edge $-1 $294 -34.044692206106824 $408 34.044692206106824 $293 $484 forward 7 unknown #
point $-1 -49.460737937559131 34.044692206106824 7.5514030260318128 #
point $-1 49.460737937559131 34.044692206106824 7.5514030260318128 #
straight-curve $-1 49.460737937559131 0 -7.5514030260318128 0 -1 0 I I #
straight-curve $-1 -49.460737937559131 0 -7.5514030260318128 0 1 0 I I #
plane-surface $-1 0 0 7.5514030260318128 0 0 1 1 0 0 forward_v I I I I #
coedge $-1 $312 $431 $420 $485 forward $305 $-1 #
coedge $-1 $308 $307 $419 $485 reversed $121 $-1 #
edge $-1 $427 -1.7325569264627418 $425 1.7325569264627418 $307 $486 forward 7 unknown #
coedge $-1 $320 $319 $308 $423 forward $321 $-1 #
edge $-1 $424 -1.7325569264627418 $487 1.7325569264627418 $308 $488 forward 7 unknown #
vertex $-1 $324 $489 #
vertex $-1 $314 $490 #
straight-curve $-1 -37.823045738420987 -41.790486188053357 0 0 0 -1 I I #
vertex $-1 $485 $491 #
straight-curve $-1 -34.357931885495503 -37.91758919708009 -7.5514030260318128 0 -1 0 I I #
straight-curve $-1 -37.823045738420987 -37.91758919708009 -7.5514030260318128 0 1 0 I I #
point $-1 -34.357931885495503 -34.044692206106824 -7.5514030260318128 #
coedge $-1 $419 $317 $320 $433 reversed $305 $-1 #
straight-curve $-1 -34.357931885495503 -34.044692206106824 0 0 0 -1 I I #
edge $-1 $487 -3.8728969909732669 $322 3.8728969909732669 $431 $492 forward 7 unknown #
point $-1 -34.357931885495503 -34.044692206106824 7.5514030260318128 #
straight-curve $-1 -37.823045738420987 -37.91758919708009 7.5514030260318128 0 -1 0 I I #
plane-surface $-1 0 0 7.5514030260318128 0 0 1 1 0 0 forward_v I I I I #
coedge $-1 $332 $329 $334 $444 reversed $214 $-1 #
coedge $-1 $329 $332 $450 $493 reversed $214 $-1 #
edge $-1 $452 -7.5514030260318128 $446 7.5514030260318128 $346 $494 forward 7 unknown #
edge $-1 $441 -3.8728969909732669 $344 3.8728969909732669 $331 $495 forward 7 unknown #
vertex $-1 $493 $496 #
vertex $-1 $444 $497 #
straight-curve $-1 -37.823045738420987 41.790486188053364 0 0 0 -1 I I #
edge $-1 $442 -1.7325569264627418 $446 1.7325569264627418 $437 $498 forward 7 unknown #
straight-curve $-1 -37.823045738420987 37.917589197080098 -7.5514030260318128 0 1 0 I I #
vertex $-1 $336 $499 #
straight-curve $-1 -34.357931885495503 37.917589197080098 -7.5514030260318128 0 -1 0 I I #
point $-1 -37.823045738420987 34.044692206106831 -7.5514030260318128 #
straight-curve $-1 -37.823045738420987 34.044692206106824 0 0 0 -1 I I #
coedge $-1 $342 $341 $438 $493 forward $343 $-1 #
point $-1 -37.823045738420987 34.044692206106831 7.5514030260318128 #
vertex $-1 $347 $500 #
straight-curve $-1 -34.357931885495503 37.917589197080098 7.5514030260318128 0 1 0 I I #
coedge $-1 $361 $360 $353 $455 forward $350 $-1 #
edge $-1 $456 63.605764220854873 $459 67.972560258824586 $454 $501 forward 7 unknown #
vertex $-1 $365 $502 #
straight-curve $-1 17.418807869914751 -26.298898224160283 7.5514030260318066 1 0 0 I I #
edge $-1 $459 -15.671568653567483 $362 -5.5830904876181151 $361 $503 forward 7 unknown #
vertex $-1 $458 $504 #
straight-curve $-1 -27.41568691416132 -26.298898224160283 65.437909642052915 -0.77714595512881146 0 0.62932039886446345 I I #
point $-1 44.068194037974571 -26.298898224160283 7.5514030260318137 #
point $-1 49.460737937559138 -16.210420058210914 3.1846069880620931 #
straight-curve $-1 49.460737937559131 0 7.5514030260318128 0 1 0 I I #
vertex $-1 $368 $505 #
point $-1 46.523718566466819 -23.416475891031894 4.2761988524859129 #
vertex $-1 $372 $506 #
point $-1 46.523718566466819 -19.092842391339303 4.2761988524859129 #
edge $-1 $469 32.479112893859472 $472 36.845908931829179 $377 $507 forward 7 unknown #
vertex $-1 $391 $508 #
straight-curve $-1 -55.857020295774973 -16.210420058210914 7.5514030260318137 -1 0 0 I I #
edge $-1 $472 5.5830904876181151 $388 15.671568653567483 $387 $509 forward 7 unknown #
vertex $-1 $471 $510 #
straight-curve $-1 -49.460737937559124 -16.210420058210914 3.1846069880621144 0.77714595512881146 0 0.62932039886446345 I I #
point $-1 -44.068194037974585 -16.210420058210914 7.5514030260318128 #
point $-1 -49.460737937559131 -26.298898224160283 3.1846069880621086 #
straight-curve $-1 -49.460737937559131 0 7.5514030260318128 0 -1 0 I I #
vertex $-1 $394 $511 #
point $-1 -45.746572611337996 -23.416475891031894 4.9055192513503849 #
vertex $-1 $398 $512 #
point $-1 -45.746572611337996 -19.092842391339303 4.9055192513503849 #
straight-curve $-1 0 -34.044692206106824 7.5514030260318128 1 0 0 I I #
point $-1 49.460737937559131 -34.044692206106824 7.5514030260318128 #
point $-1 -49.460737937559131 -34.044692206106824 7.5514030260318128 #
straight-curve $-1 -49.460737937559131 0 7.5514030260318128 0 -1 0 I I #
edge $-1 $487 -7.5514030260318128 $427 7.5514030260318128 $419 $513 forward 7 unknown #
straight-curve $-1 -36.090488811958245 -41.790486188053357 -7.5514030260318128 -1 0 0 I I #
vertex $-1 $433 $514 #
straight-curve $-1 -36.090488811958245 -41.790486188053357 7.5514030260318128 1 0 0 I I #
point $-1 -37.823045738420987 -41.790486188053357 7.5514030260318128 #
point $-1 -37.823045738420987 -41.790486188053357 -7.5514030260318128 #
point $-1 -34.357931885495503 -41.790486188053357 -7.5514030260318128 #
straight-curve $-1 -34.357931885495503 -37.91758919708009 7.5514030260318128 0 1 0 I I #
edge $-1 $452 -1.7325569264627418 $441 1.7325569264627418 $438 $515 forward 7 unknown #
straight-curve $-1 -34.357931885495503 41.790486188053364 0 0 0 -1 I I #
straight-curve $-1 -37.823045738420987 37.917589197080098 7.5514030260318128 0 -1 0 I I #
point $-1 -37.823045738420987 41.790486188053364 7.5514030260318128 #
point $-1 -37.823045738420987 41.790486188053364 -7.5514030260318128 #
straight-curve $-1 -36.090488811958245 41.790486188053364 -7.5514030260318128 1 0 0 I I #
point $-1 -34.357931885495503 41.790486188053364 -7.5514030260318128 #
point $-1 -34.357931885495503 41.790486188053364 7.5514030260318128 #
straight-curve $-1 49.460737937559131 -26.298898224160283 71.157167246886686 0 0 -1 I I #
point $-1 49.460737937559131 -26.298898224160283 7.5514030260318128 #
straight-curve $-1 49.460737937559131 -10.627329570592799 3.1846069880621037 0 1 0 I I #
point $-1 49.460737937559138 -26.298898224160283 3.1846069880620931 #
point $-1 45.820485389470186 -23.416475891031894 4.2022860743537382 #
point $-1 45.820485389470186 -19.092842391339303 4.2022860743537382 #
straight-curve $-1 -49.460737937559131 -16.210420058210914 40.030515919891286 0 0 -1 I I #
point $-1 -49.460737937559131 -16.210420058210914 7.5514030260318128 #
straight-curve $-1 -49.460737937559131 -10.627329570592799 3.1846069880621091 0 -1 0 I I #
point $-1 -49.460737937559131 -16.210420058210914 3.1846069880621086 #
point $-1 -45.820485389470171 -23.416475891031894 4.2022860743537471 #
point $-1 -45.820485389470171 -19.092842391339303 4.2022860743537471 #
straight-curve $-1 -34.357931885495503 -41.790486188053357 0 0 0 -1 I I #
point $-1 -34.357931885495503 -41.790486188053357 7.5514030260318128 #
straight-curve $-1 -36.090488811958245 41.790486188053364 7.5514030260318128 -1 0 0 I I #
End-of-ACIS-data 