500 0 8 0           
7 Unknown 11 ACIS 5.0 NT 24 Thu Mar 25 21:19:43 1999 
-1 9.9999999999999995e-007 1e-010 
body $-1 $8 $-1 $9 #
body $-1 $10 $-1 $11 #
body $-1 $12 $-1 $13 #
body $-1 $14 $-1 $15 #
body $-1 $16 $-1 $17 #
body $-1 $18 $-1 $19 #
body $-1 $20 $-1 $21 #
body $-1 $22 $-1 $23 #
lump $-1 $-1 $24 $0 #
transform $-1 1 0 0 0 1 0 0 0 1 49.154332102420113 22.576610086618015 7.2954551298912378 1 rotate no_reflect no_shear #
lump $-1 $-1 $25 $1 #
transform $-1 1 0 0 0 1 0 0 0 1 49.154332102420113 22.576610086618015 7.2954551298912378 1 rotate no_reflect no_shear #
lump $-1 $-1 $26 $2 #
transform $-1 1 0 0 0 1 0 0 0 1 49.154332102420113 22.576610086618015 7.2954551298912378 1 rotate no_reflect no_shear #
lump $-1 $-1 $27 $3 #
transform $-1 1 0 0 0 1 0 0 0 1 49.154332102420113 22.576610086618015 7.2954551298912378 1 rotate no_reflect no_shear #
lump $-1 $-1 $28 $4 #
transform $-1 1 0 0 0 1 0 0 0 1 49.154332102420113 22.576610086618015 7.2954551298912378 1 rotate no_reflect no_shear #
lump $-1 $-1 $29 $5 #
transform $-1 1 0 0 0 1 0 0 0 1 49.154332102420113 22.576610086618015 7.2954551298912378 1 rotate no_reflect no_shear #
lump $-1 $-1 $30 $6 #
transform $-1 1 0 0 0 1 0 0 0 1 49.154332102420113 22.576610086618015 7.2954551298912378 1 rotate no_reflect no_shear #
lump $-1 $-1 $31 $7 #
transform $-1 1 0 0 0 1 0 0 0 1 49.154332102420113 22.576610086618015 7.2954551298912378 1 rotate no_reflect no_shear #
shell $-1 $-1 $-1 $32 $-1 $8 #
shell $-1 $-1 $-1 $33 $-1 $10 #
shell $-1 $-1 $-1 $34 $-1 $12 #
shell $-1 $-1 $-1 $35 $-1 $14 #
shell $-1 $-1 $-1 $36 $-1 $16 #
shell $-1 $-1 $-1 $37 $-1 $18 #
shell $-1 $-1 $-1 $38 $-1 $20 #
shell $-1 $-1 $-1 $39 $-1 $22 #
face $-1 $40 $41 $24 $-1 $42 forward single #
face $-1 $43 $44 $25 $-1 $45 forward single #
face $-1 $46 $47 $26 $-1 $48 reversed single #
face $-1 $49 $50 $27 $-1 $51 reversed single #
face $-1 $52 $53 $28 $-1 $54 forward single #
face $-1 $55 $56 $29 $-1 $57 reversed single #
face $-1 $58 $59 $30 $-1 $60 forward single #
face $-1 $61 $62 $31 $-1 $63 forward single #
face $-1 $64 $65 $24 $-1 $66 reversed single #
loop $-1 $-1 $67 $32 #
plane-surface $-1 0 0 7.2954551298912378 0 0 1 1 0 0 forward_v I I I I #
face $-1 $68 $69 $25 $-1 $70 reversed single #
loop $-1 $-1 $71 $33 #
plane-surface $-1 0 -19.974479075830477 3.9399030584688752 0 0 1 1 0 0 forward_v I I I I #
face $-1 $72 $73 $26 $-1 $74 reversed single #
loop $-1 $-1 $75 $34 #
plane-surface $-1 0 19.357082789303266 4.2954551298912378 0 0 1 1 0 0 forward_v I I I I #
face $-1 $76 $77 $27 $-1 $78 reversed single #
loop $-1 $-1 $79 $35 #
plane-surface $-1 -121.05273838234849 3.4628708190057527 68.695994632020629 0 1 0 -0.73135370988377701 0 0.68199835119979291 forward_v I I I I #
face $-1 $80 $81 $28 $-1 $82 forward single #
loop $-1 $83 $84 $36 #
cone-surface $-1 -45.165483569802554 6.8539187644589958 3.2076429487226763 0.73135370988377701 0 -0.68199835119979291 1.0229975267996894 0 1.0970305648256655 1 I I 0 1 1.5 forward I I I I #
face $-1 $85 $86 $29 $-1 $87 reversed single #
loop $-1 $-1 $88 $37 #
plane-surface $-1 39.456129653834893 -9.5479111852594905 138.74268956808129 0 -1 0 -0.6560590369687036 0 -0.75470957328743171 forward_v I I I I #
face $-1 $89 $90 $30 $-1 $91 forward single #
loop $-1 $92 $93 $38 #
cone-surface $-1 44.20234957489356 -15.136794670819096 2.7699414763153749 -0.6560590369687036 0 -0.75470957328743171 0.75470957328743171 0 -0.6560590369687036 1 I I 0 1 1 forward I I I I #
face $-1 $94 $95 $31 $-1 $96 forward single #
loop $-1 $97 $98 $39 #
cone-surface $-1 44.20234957489356 -11.783464579483333 2.7699414763153749 -0.6560590369687036 0 -0.75470957328743171 0.75470957328743171 0 -0.6560590369687036 1 I I 0 1 1 forward I I I I #
face $-1 $99 $100 $24 $-1 $101 reversed single #
loop $-1 $-1 $102 $40 #
plane-surface $-1 0 0 -7.2954551298912378 0 0 1 1 0 0 forward_v I I I I #
coedge $-1 $103 $104 $105 $106 forward $41 $-1 #
face $-1 $107 $108 $25 $-1 $109 reversed single #
loop $-1 $-1 $110 $43 #
plane-surface $-1 0 -19.974479075830477 0.93990305846887523 0 0 1 1 0 0 forward_v I I I I #
coedge $-1 $111 $112 $113 $114 reversed $44 $-1 #
face $-1 $115 $116 $26 $-1 $117 reversed single #
loop $-1 $-1 $118 $46 #
plane-surface $-1 0 16.137555491988518 5.7954551298912378 0 1 0 0 0 1 forward_v I I I I #
coedge $-1 $119 $120 $121 $122 reversed $47 $-1 #
face $-1 $123 $124 $27 $-1 $125 reversed single #
loop $-1 $-1 $126 $49 #
plane-surface $-1 -49.154332102420128 6.8539187644589994 1.6496477356654964 -0.73135370988377701 0 0.68199835119979291 0.68199835119979291 0 0.73135370988377701 forward_v I I I I #
coedge $-1 $127 $128 $129 $130 reversed $50 $-1 #
face $-1 $-1 $131 $28 $-1 $132 forward single #
loop $-1 $133 $134 $52 #
cone-surface $-1 -43.260519975087888 6.8539187644589958 1.4312357012671413 0.73135370988377701 0 -0.68199835119979291 0.51149876339984468 0 0.54851528241283276 1 I I -0.70710678118654757 0.70710678118654757 0.75 forward I I I I #
loop $-1 $-1 $135 $36 #
coedge $-1 $84 $84 $136 $137 reversed $53 $-1 #
face $-1 $138 $139 $29 $-1 $140 forward single #
loop $-1 $-1 $141 $55 #
plane-surface $-1 -25.040157910072253 -13.460129625151215 64.548199555588909 0.6560590369687036 0 0.75470957328743171 0.75470957328743171 0 -0.6560590369687036 forward_v I I I I #
coedge $-1 $142 $143 $144 $145 reversed $56 $-1 #
face $-1 $-1 $146 $30 $-1 $147 forward single #
loop $-1 $148 $149 $58 #
cone-surface $-1 43.088709031199102 -15.136794670819096 1.4888446052005264 -0.6560590369687036 0 -0.75470957328743171 0.37735478664371586 0 -0.3280295184843518 1 I I -0.70710678118654735 0.70710678118654768 0.5 forward I I I I #
loop $-1 $-1 $150 $38 #
coedge $-1 $93 $93 $151 $152 reversed $59 $-1 #
face $-1 $-1 $153 $31 $-1 $154 forward single #
loop $-1 $155 $156 $61 #
cone-surface $-1 43.088709031199102 -11.783464579483333 1.4888446052005264 -0.6560590369687036 0 -0.75470957328743171 0.37735478664371586 0 -0.3280295184843518 1 I I -0.70710678118654735 0.70710678118654768 0.5 forward I I I I #
loop $-1 $-1 $157 $39 #
coedge $-1 $98 $98 $158 $159 reversed $62 $-1 #
face $-1 $160 $161 $24 $-1 $162 reversed single #
loop $-1 $-1 $163 $64 #
plane-surface $-1 0 -22.576610086618015 0 0 1 0 0 0 1 forward_v I I I I #
coedge $-1 $164 $165 $166 $167 forward $65 $-1 #
coedge $-1 $168 $67 $169 $170 forward $41 $-1 #
coedge $-1 $67 $168 $171 $172 forward $41 $-1 #
coedge $-1 $173 $174 $67 $106 reversed $175 $-1 #
edge $-1 $176 -22.576610086618015 $177 22.576610086618015 $105 $178 forward 7 unknown #
face $-1 $179 $180 $25 $-1 $181 reversed single #
loop $-1 $-1 $182 $68 #
plane-surface $-1 0 -17.372348065042939 2.4399030584688752 0 -1 0 0 0 -1 forward_v I I I I #
coedge $-1 $183 $184 $185 $186 reversed $69 $-1 #
coedge $-1 $187 $71 $188 $189 forward $44 $-1 #
coedge $-1 $71 $187 $190 $191 reversed $44 $-1 #
coedge $-1 $192 $193 $71 $114 forward $194 $-1 #
edge $-1 $195 7.3851085271277004 $196 12.589370548702776 $113 $197 forward 7 unknown #
face $-1 $198 $199 $26 $-1 $200 reversed single #
loop $-1 $-1 $201 $72 #
plane-surface $-1 49.154332102420113 0 0 -1 0 0 0 0 1 forward_v I I I I #
coedge $-1 $202 $203 $204 $205 reversed $73 $-1 #
coedge $-1 $206 $75 $202 $207 forward $47 $-1 #
coedge $-1 $75 $206 $208 $209 reversed $47 $-1 #
coedge $-1 $210 $201 $75 $122 forward $116 $-1 #
edge $-1 $211 6.459014097336885 $212 12.898068691966381 $121 $213 forward 7 unknown #
face $-1 $214 $215 $27 $-1 $216 reversed single #
loop $-1 $-1 $217 $76 #
plane-surface $-1 -121.05273838234849 10.244966709912246 68.695994632020629 0 -1 0 0.73135370988377701 0 -0.68199835119979291 forward_v I I I I #
coedge $-1 $218 $219 $220 $221 reversed $77 $-1 #
coedge $-1 $128 $79 $222 $223 reversed $50 $-1 #
coedge $-1 $79 $127 $218 $224 reversed $50 $-1 #
coedge $-1 $220 $225 $79 $130 forward $226 $-1 #
edge $-1 $227 11.372037088754134 $228 16.636837529385566 $129 $229 forward 7 unknown #
loop $-1 $-1 $136 $80 #
plane-surface $-1 -49.154332102420128 6.8539187644589994 1.6496477356654964 -0.73135370988377701 0 0.68199835119979291 0.68199835119979291 0 0.73135370988377701 forward_v I I I I #
loop $-1 $-1 $230 $52 #
coedge $-1 $134 $134 $135 $231 reversed $81 $-1 #
coedge $-1 $135 $135 $134 $231 forward $83 $-1 #
coedge $-1 $136 $136 $84 $137 forward $131 $-1 #
edge $-1 $232 0 $232 6.2831853071796004 $136 $233 forward 7 unknown #
face $-1 $234 $235 $29 $-1 $236 forward single #
loop $-1 $-1 $144 $85 #
plane-surface $-1 0 0 7.2954551298912378 0 0 1 1 0 0 forward_v I I I I #
coedge $-1 $237 $238 $239 $240 reversed $86 $-1 #
coedge $-1 $143 $88 $241 $242 reversed $56 $-1 #
coedge $-1 $88 $142 $237 $243 reversed $56 $-1 #
coedge $-1 $239 $244 $88 $145 forward $139 $-1 #
edge $-1 $245 -29.426267275502667 $246 -21.093524270869764 $144 $247 forward 7 unknown #
loop $-1 $-1 $151 $89 #
plane-surface $-1 -25.040157910072253 -13.460129625151215 64.548199555588909 0.6560590369687036 0 0.75470957328743171 0.75470957328743171 0 -0.6560590369687036 forward_v I I I I #
loop $-1 $-1 $248 $58 #
coedge $-1 $149 $149 $150 $249 reversed $90 $-1 #
coedge $-1 $150 $150 $149 $249 forward $92 $-1 #
coedge $-1 $151 $151 $93 $152 forward $146 $-1 #
edge $-1 $250 0 $250 6.2831853071796004 $151 $251 forward 7 unknown #
loop $-1 $-1 $158 $94 #
plane-surface $-1 -25.040157910072253 -13.460129625151215 64.548199555588909 0.6560590369687036 0 0.75470957328743171 0.75470957328743171 0 -0.6560590369687036 forward_v I I I I #
loop $-1 $-1 $252 $61 #
coedge $-1 $156 $156 $157 $253 reversed $95 $-1 #
coedge $-1 $157 $157 $156 $253 forward $97 $-1 #
coedge $-1 $158 $158 $98 $159 forward $153 $-1 #
edge $-1 $254 0 $254 6.2831853071796004 $158 $255 forward 7 unknown #
face $-1 $256 $257 $24 $-1 $258 reversed single #
loop $-1 $-1 $259 $99 #
plane-surface $-1 -49.154332102420113 0 0 1 0 0 0 0 -1 forward_v I I I I #
coedge $-1 $260 $171 $261 $262 forward $100 $-1 #
coedge $-1 $263 $102 $260 $264 forward $65 $-1 #
coedge $-1 $102 $263 $265 $266 forward $65 $-1 #
coedge $-1 $174 $173 $102 $167 reversed $175 $-1 #
edge $-1 $267 -22.576610086618015 $268 22.576610086618015 $166 $269 forward 7 unknown #
coedge $-1 $104 $103 $270 $271 forward $41 $-1 #
coedge $-1 $272 $273 $103 $170 reversed $257 $-1 #
edge $-1 $177 -49.154332102420113 $274 49.154332102420113 $169 $275 forward 7 unknown #
coedge $-1 $163 $276 $104 $172 reversed $100 $-1 #
edge $-1 $277 -49.154332102420113 $176 49.154332102420113 $171 $278 forward 7 unknown #
coedge $-1 $166 $105 $276 $279 forward $175 $-1 #
coedge $-1 $105 $166 $272 $280 reversed $175 $-1 #
loop $-1 $-1 $173 $256 #
vertex $-1 $106 $281 #
vertex $-1 $106 $282 #
straight-curve $-1 49.154332102420113 0 7.2954551298912378 0 1 0 I I #
face $-1 $283 $284 $25 $-1 $285 reversed single #
loop $-1 $-1 $286 $107 #
plane-surface $-1 -49.154332102420113 0 0 1 0 0 0 0 -1 forward_v I I I I #
coedge $-1 $287 $188 $193 $288 reversed $108 $-1 #
coedge $-1 $289 $110 $290 $291 reversed $69 $-1 #
coedge $-1 $110 $289 $287 $292 forward $69 $-1 #
coedge $-1 $193 $192 $110 $186 forward $194 $-1 #
edge $-1 $293 -12.589370548702776 $294 -7.3851085271277004 $185 $295 forward 7 unknown #
coedge $-1 $112 $111 $286 $296 reversed $44 $-1 #
coedge $-1 $182 $297 $111 $189 reversed $108 $-1 #
edge $-1 $195 -49.154332102420113 $298 49.154332102420113 $188 $299 forward 7 unknown #
coedge $-1 $300 $301 $112 $191 forward $284 $-1 #
edge $-1 $196 -49.154332102420113 $302 49.154332102420113 $190 $303 forward 7 unknown #
coedge $-1 $185 $113 $301 $304 forward $194 $-1 #
coedge $-1 $113 $185 $182 $288 forward $194 $-1 #
loop $-1 $-1 $113 $283 #
vertex $-1 $114 $305 #
vertex $-1 $304 $306 #
straight-curve $-1 49.154332102420113 -9.9872395379152383 3.9399030584688752 0 -1 0 I I #
face $-1 $307 $308 $26 $-1 $309 forward single #
loop $-1 $-1 $208 $115 #
plane-surface $-1 0 22.576610086618015 0 0 -1 0 0 0 -1 forward_v I I I I #
coedge $-1 $121 $310 $311 $312 forward $116 $-1 #
coedge $-1 $311 $118 $119 $207 reversed $73 $-1 #
coedge $-1 $118 $311 $313 $314 reversed $73 $-1 #
coedge $-1 $315 $316 $118 $205 forward $317 $-1 #
edge $-1 $318 1.3977275649456189 $319 4.3977275649456189 $204 $320 forward 7 unknown #
coedge $-1 $120 $119 $316 $321 reversed $47 $-1 #
edge $-1 $211 -49.154332102420113 $318 49.154332102420113 $202 $322 forward 7 unknown #
coedge $-1 $323 $324 $120 $209 forward $199 $-1 #
edge $-1 $212 -49.154332102420113 $325 49.154332102420113 $208 $326 forward 7 unknown #
coedge $-1 $310 $121 $324 $327 reversed $116 $-1 #
vertex $-1 $122 $328 #
vertex $-1 $209 $329 #
straight-curve $-1 49.154332102420113 9.6785413946516332 4.2954551298912378 0 1 0 I I #
face $-1 $-1 $226 $27 $-1 $330 forward single #
loop $-1 $-1 $331 $123 #
plane-surface $-1 -49.154332102420113 0 0 1 0 0 0 0 -1 forward_v I I I I #
coedge $-1 $332 $333 $334 $335 reversed $124 $-1 #
coedge $-1 $336 $126 $128 $224 forward $77 $-1 #
coedge $-1 $126 $336 $332 $337 forward $77 $-1 #
coedge $-1 $334 $129 $126 $221 forward $226 $-1 #
edge $-1 $228 0.03591143677625297 $338 6.8180073276827464 $220 $339 forward 7 unknown #
coedge $-1 $340 $341 $127 $223 forward $215 $-1 #
edge $-1 $342 -32.698349580344804 $227 -27.052542186119076 $222 $343 forward 7 unknown #
edge $-1 $228 -7.7196674029628465 $342 -2.0896906529347916e-014 $128 $344 forward 7 unknown #
coedge $-1 $129 $334 $340 $345 forward $226 $-1 #
loop $-1 $-1 $334 $214 #
vertex $-1 $223 $346 #
vertex $-1 $130 $347 #
straight-curve $-1 -60.526369191174247 3.4628708190057527 7.2954551298912378 1 0 0 I I #
coedge $-1 $230 $230 $-1 $348 reversed $133 $-1 #
edge $-1 $349 0 $349 6.2831853071796004 $134 $350 forward 7 unknown #
vertex $-1 $137 $351 #
ellipse-curve $-1 -46.521931882104397 6.8539187644589958 4.4725514327783733 -0.73135370988377701 0 0.68199835119979291 1.0229975267996894 0 1.0970305648256655 1 I I #
face $-1 $-1 $352 $29 $-1 $353 reversed single #
loop $-1 $-1 $354 $138 #
plane-surface $-1 0 -17.372348065042939 2.4399030584688752 0 -1 0 0 0 -1 forward_v I I I I #
coedge $-1 $355 $141 $143 $243 forward $86 $-1 #
coedge $-1 $141 $355 $354 $356 forward $86 $-1 #
coedge $-1 $357 $144 $141 $240 forward $139 $-1 #
edge $-1 $246 2.8178463726838832 $358 10.642283252467331 $239 $359 forward 7 unknown #
coedge $-1 $360 $361 $142 $242 forward $352 $-1 #
edge $-1 $362 -69.319432792358867 $245 -62.075889654149407 $241 $363 forward 7 unknown #
edge $-1 $246 87.267671352004925 $362 98.308664204840213 $143 $364 forward 7 unknown #
coedge $-1 $144 $357 $360 $365 forward $139 $-1 #
vertex $-1 $242 $366 #
vertex $-1 $145 $367 #
straight-curve $-1 19.728064826917446 -9.5479111852594905 7.2954551298912378 -1 0 0 I I #
coedge $-1 $248 $248 $-1 $368 reversed $148 $-1 #
edge $-1 $369 0 $369 6.2831853071796004 $149 $370 forward 7 unknown #
vertex $-1 $152 $371 #
ellipse-curve $-1 44.987960600103669 -15.136794670819096 3.6736835607865084 0.6560590369687036 0 0.75470957328743171 0.75470957328743171 0 -0.6560590369687036 1 I I #
coedge $-1 $252 $252 $-1 $372 reversed $155 $-1 #
edge $-1 $373 0 $373 6.2831853071796004 $156 $374 forward 7 unknown #
vertex $-1 $159 $375 #
ellipse-curve $-1 44.987960600103669 -11.783464579483333 3.6736835607865084 0.6560590369687036 0 0.75470957328743171 0.75470957328743171 0 -0.6560590369687036 1 I I #
face $-1 $-1 $175 $24 $-1 $376 reversed single #
loop $-1 $-1 $272 $160 #
plane-surface $-1 0 22.576610086618015 0 0 -1 0 0 0 -1 forward_v I I I I #
coedge $-1 $377 $270 $273 $378 forward $161 $-1 #
coedge $-1 $276 $163 $164 $264 reversed $100 $-1 #
coedge $-1 $270 $377 $163 $262 reversed $161 $-1 #
edge $-1 $277 -7.2954551298912378 $379 7.2954551298912378 $261 $380 forward 7 unknown #
coedge $-1 $165 $164 $377 $381 forward $65 $-1 #
edge $-1 $268 -49.154332102420113 $379 49.154332102420113 $260 $382 forward 7 unknown #
coedge $-1 $273 $272 $165 $266 reversed $257 $-1 #
edge $-1 $383 -49.154332102420113 $267 49.154332102420113 $265 $384 forward 7 unknown #
vertex $-1 $167 $385 #
vertex $-1 $279 $386 #
straight-curve $-1 49.154332102420113 0 -7.2954551298912378 0 -1 0 I I #
coedge $-1 $259 $261 $168 $271 reversed $161 $-1 #
edge $-1 $274 -22.576610086618015 $277 22.576610086618015 $270 $387 forward 7 unknown #
coedge $-1 $265 $169 $174 $280 forward $257 $-1 #
coedge $-1 $169 $265 $259 $378 reversed $257 $-1 #
vertex $-1 $170 $388 #
straight-curve $-1 0 22.576610086618015 7.2954551298912378 -1 0 0 I I #
coedge $-1 $171 $260 $173 $279 reversed $100 $-1 #
vertex $-1 $271 $389 #
straight-curve $-1 0 -22.576610086618015 7.2954551298912378 1 0 0 I I #
edge $-1 $176 -7.2954551298912378 $268 7.2954551298912378 $173 $390 forward 7 unknown #
edge $-1 $177 -7.2954551298912378 $267 7.2954551298912378 $174 $391 forward 7 unknown #
point $-1 49.154332102420113 -22.576610086618015 7.2954551298912378 #
point $-1 49.154332102420113 22.576610086618015 7.2954551298912378 #
face $-1 $-1 $194 $25 $-1 $392 reversed single #
loop $-1 $-1 $190 $179 #
plane-surface $-1 0 -22.576610086618015 0 0 1 0 0 0 1 forward_v I I I I #
coedge $-1 $393 $394 $187 $296 forward $180 $-1 #
coedge $-1 $297 $182 $184 $292 reversed $108 $-1 #
edge $-1 $294 -0.28004847076556239 $195 2.7199515292344376 $193 $395 forward 7 unknown #
coedge $-1 $184 $183 $396 $397 reversed $69 $-1 #
coedge $-1 $301 $300 $183 $291 forward $284 $-1 #
edge $-1 $398 -49.154332102420113 $293 49.154332102420113 $290 $399 forward 7 unknown #
edge $-1 $400 -49.154332102420113 $294 49.154332102420113 $287 $401 forward 7 unknown #
vertex $-1 $291 $402 #
vertex $-1 $186 $403 #
straight-curve $-1 49.154332102420113 -9.9872395379152383 0.93990305846887523 0 1 0 I I #
edge $-1 $302 -12.589370548702776 $298 -7.3851085271277004 $286 $404 forward 7 unknown #
coedge $-1 $188 $287 $393 $405 reversed $108 $-1 #
vertex $-1 $296 $406 #
straight-curve $-1 0 -17.372348065042939 3.9399030584688752 -1 0 0 I I #
coedge $-1 $290 $190 $394 $407 forward $284 $-1 #
coedge $-1 $190 $290 $192 $304 reversed $284 $-1 #
vertex $-1 $407 $408 #
straight-curve $-1 0 -22.576610086618015 3.9399030584688752 -1 0 0 I I #
edge $-1 $196 -3.9399030584688752 $293 -0.93990305846887523 $192 $409 forward 7 unknown #
point $-1 49.154332102420113 -17.372348065042939 3.9399030584688752 #
point $-1 49.154332102420113 -22.576610086618015 3.9399030584688752 #
face $-1 $-1 $317 $26 $-1 $410 reversed single #
loop $-1 $-1 $313 $198 #
plane-surface $-1 0 0 7.2954551298912378 0 0 1 1 0 0 forward_v I I I I #
coedge $-1 $201 $210 $411 $412 reversed $116 $-1 #
coedge $-1 $203 $202 $201 $312 reversed $73 $-1 #
edge $-1 $413 -4.3977275649456189 $211 -1.3977275649456189 $201 $414 forward 7 unknown #
coedge $-1 $411 $415 $203 $314 forward $308 $-1 #
edge $-1 $319 -49.154332102420113 $413 49.154332102420113 $313 $416 forward 7 unknown #
coedge $-1 $417 $204 $415 $418 reversed $317 $-1 #
coedge $-1 $204 $417 $206 $321 forward $317 $-1 #
loop $-1 $-1 $204 $307 #
vertex $-1 $321 $419 #
vertex $-1 $205 $420 #
straight-curve $-1 -49.154332102420113 16.137555491988518 2.8977275649456189 0 0 1 I I #
edge $-1 $325 -12.898068691966381 $318 -6.459014097336885 $316 $421 forward 7 unknown #
straight-curve $-1 0 16.137555491988518 4.2954551298912378 -1 0 0 I I #
coedge $-1 $422 $208 $417 $423 reversed $199 $-1 #
coedge $-1 $208 $422 $210 $327 forward $199 $-1 #
vertex $-1 $209 $424 #
straight-curve $-1 0 22.576610086618015 4.2954551298912378 -1 0 0 I I #
edge $-1 $425 -7.2954551298912378 $212 -4.2954551298912378 $210 $426 forward 7 unknown #
point $-1 49.154332102420113 16.137555491988518 4.2954551298912378 #
point $-1 49.154332102420113 22.576610086618015 4.2954551298912378 #
plane-surface $-1 0 0 7.2954551298912378 0 0 1 1 0 0 forward_v I I I I #
coedge $-1 $341 $340 $333 $427 forward $215 $-1 #
coedge $-1 $333 $217 $219 $337 reversed $124 $-1 #
coedge $-1 $217 $332 $331 $427 reversed $124 $-1 #
coedge $-1 $225 $220 $217 $335 forward $226 $-1 #
edge $-1 $338 -16.636837529385566 $428 -11.372037088754134 $334 $429 forward 7 unknown #
coedge $-1 $219 $218 $341 $430 reversed $77 $-1 #
edge $-1 $431 2.0896906529347916e-014 $338 7.7196674029628465 $332 $432 forward 7 unknown #
vertex $-1 $221 $433 #
straight-curve $-1 -43.889531661788681 3.4269593822294997 7.2954551298912378 0 1 0 I I #
coedge $-1 $331 $222 $225 $345 reversed $215 $-1 #
coedge $-1 $222 $331 $336 $430 forward $215 $-1 #
vertex $-1 $223 $434 #
straight-curve $-1 -49.154332102420113 3.4628708190057527 34.347997316010314 0 0 1 I I #
straight-curve $-1 -49.154332102420128 3.4628708190057527 1.6496477356654964 -0.68199835119979291 0 -0.73135370988377701 I I #
edge $-1 $428 -10.244966709912246 $227 -3.4628708190057527 $340 $435 forward 7 unknown #
point $-1 -49.154332102420113 3.4628708190057527 7.2954551298912378 #
point $-1 -43.889531661788681 3.4628708190057527 7.2954551298912378 #
edge $-1 $436 1 $436 0 $230 $-1 forward 7 unknown #
vertex $-1 $231 $437 #
ellipse-curve $-1 -43.809035257500724 6.8539187644589958 1.942734464666986 -0.73135370988377701 0 0.68199835119979291 1.0229975267996894 0 1.0970305648256655 1 I I #
point $-1 -45.498934355304705 6.8539187644589958 5.5695819976040326 #
loop $-1 $-1 $241 $234 #
plane-surface $-1 49.154332102420113 0 0 -1 0 0 0 0 1 forward_v I I I I #
coedge $-1 $438 $439 $238 $356 reversed $235 $-1 #
coedge $-1 $238 $237 $361 $440 reversed $86 $-1 #
edge $-1 $441 -98.308664204840213 $358 -87.267671352004925 $354 $442 forward 7 unknown #
coedge $-1 $244 $239 $439 $443 forward $139 $-1 #
vertex $-1 $443 $444 #
straight-curve $-1 40.821589097787204 -6.7300648125756073 7.2954551298912449 0 -1 0 I I #
coedge $-1 $445 $241 $244 $365 reversed $352 $-1 #
coedge $-1 $241 $445 $355 $440 forward $352 $-1 #
vertex $-1 $242 $446 #
straight-curve $-1 49.154332102420113 -9.5479111852594905 69.371344784040645 0 0 1 I I #
straight-curve $-1 -25.040157910072253 -9.5479111852594905 64.548199555588909 0.75470957328743171 0 -0.6560590369687036 I I #
edge $-1 $447 -17.372348065042939 $245 -9.5479111852594905 $360 $448 forward 7 unknown #
point $-1 49.154332102420113 -9.5479111852594905 7.2954551298912378 #
point $-1 40.821589097787211 -9.5479111852594905 7.2954551298912307 #
edge $-1 $449 1 $449 0 $248 $-1 forward 7 unknown #
vertex $-1 $249 $450 #
ellipse-curve $-1 43.416738549683451 -15.136794670819096 1.8661993918442423 0.6560590369687036 0 0.75470957328743171 0.75470957328743171 0 -0.6560590369687036 1 I I #
point $-1 45.742670173391097 -15.136794670819096 3.0176245238178034 #
edge $-1 $451 1 $451 0 $252 $-1 forward 7 unknown #
vertex $-1 $253 $452 #
ellipse-curve $-1 43.416738549683451 -11.783464579483333 1.8661993918442423 0.6560590369687036 0 0.75470957328743171 0.75470957328743171 0 -0.6560590369687036 1 I I #
point $-1 45.742670173391097 -11.783464579483333 3.0176245238178034 #
plane-surface $-1 49.154332102420113 0 0 -1 0 0 0 0 1 forward_v I I I I #
coedge $-1 $261 $259 $263 $381 reversed $161 $-1 #
edge $-1 $274 -7.2954551298912378 $383 7.2954551298912378 $273 $453 forward 7 unknown #
vertex $-1 $381 $454 #
straight-curve $-1 -49.154332102420113 -22.576610086618015 0 0 0 -1 I I #
edge $-1 $379 -22.576610086618015 $383 22.576610086618015 $377 $455 forward 7 unknown #
straight-curve $-1 0 -22.576610086618015 -7.2954551298912378 -1 0 0 I I #
vertex $-1 $266 $456 #
straight-curve $-1 0 22.576610086618015 -7.2954551298912378 1 0 0 I I #
point $-1 49.154332102420113 22.576610086618015 -7.2954551298912378 #
point $-1 49.154332102420113 -22.576610086618015 -7.2954551298912378 #
straight-curve $-1 -49.154332102420113 0 7.2954551298912378 0 -1 0 I I #
point $-1 -49.154332102420113 22.576610086618015 7.2954551298912378 #
point $-1 -49.154332102420113 -22.576610086618015 7.2954551298912378 #
straight-curve $-1 49.154332102420113 -22.576610086618015 0 0 0 -1 I I #
straight-curve $-1 49.154332102420113 22.576610086618015 0 0 0 -1 I I #
plane-surface $-1 49.154332102420113 0 0 -1 0 0 0 0 1 forward_v I I I I #
coedge $-1 $396 $286 $297 $405 forward $180 $-1 #
coedge $-1 $286 $396 $300 $407 reversed $180 $-1 #
straight-curve $-1 49.154332102420113 -17.372348065042939 1.2199515292344376 0 0 1 I I #
coedge $-1 $394 $393 $289 $397 forward $180 $-1 #
edge $-1 $400 7.3851085271277004 $398 12.589370548702776 $396 $457 forward 7 unknown #
vertex $-1 $291 $458 #
straight-curve $-1 0 -22.576610086618015 0.93990305846887523 1 0 0 I I #
vertex $-1 $397 $459 #
straight-curve $-1 0 -17.372348065042939 0.93990305846887523 1 0 0 I I #
point $-1 49.154332102420113 -22.576610086618015 0.93990305846887523 #
point $-1 49.154332102420113 -17.372348065042939 0.93990305846887523 #
straight-curve $-1 -49.154332102420113 -9.9872395379152383 3.9399030584688752 0 1 0 I I #
edge $-1 $298 -2.7199515292344376 $400 0.28004847076556239 $393 $460 forward 7 unknown #
point $-1 -49.154332102420113 -17.372348065042939 3.9399030584688752 #
edge $-1 $302 -3.9399030584688752 $398 -0.93990305846887523 $394 $461 forward 7 unknown #
point $-1 -49.154332102420113 -22.576610086618015 3.9399030584688752 #
straight-curve $-1 49.154332102420113 -22.576610086618015 0 0 0 -1 I I #
plane-surface $-1 -49.154332102420113 0 0 1 0 0 0 0 -1 forward_v I I I I #
coedge $-1 $462 $313 $310 $412 forward $308 $-1 #
edge $-1 $413 16.137555491988518 $425 22.576610086618015 $310 $463 forward 7 unknown #
vertex $-1 $412 $464 #
straight-curve $-1 49.154332102420113 16.137555491988518 2.8977275649456189 0 0 -1 I I #
coedge $-1 $313 $462 $315 $418 forward $308 $-1 #
straight-curve $-1 0 16.137555491988518 7.2954551298912378 1 0 0 I I #
coedge $-1 $316 $315 $323 $423 forward $317 $-1 #
edge $-1 $465 -22.576610086618015 $319 -16.137555491988518 $315 $466 forward 7 unknown #
point $-1 -49.154332102420113 16.137555491988518 4.2954551298912378 #
point $-1 -49.154332102420113 16.137555491988518 7.2954551298912378 #
straight-curve $-1 -49.154332102420113 9.6785413946516332 4.2954551298912378 0 -1 0 I I #
coedge $-1 $324 $323 $462 $467 reversed $199 $-1 #
edge $-1 $465 -7.2954551298912378 $325 -4.2954551298912378 $323 $468 forward 7 unknown #
point $-1 -49.154332102420113 22.576610086618015 4.2954551298912378 #
vertex $-1 $412 $469 #
straight-curve $-1 49.154332102420113 22.576610086618015 0 0 0 -1 I I #
edge $-1 $428 27.052542186119076 $431 32.698349580344804 $331 $470 forward 7 unknown #
vertex $-1 $345 $471 #
straight-curve $-1 -60.526369191174247 10.244966709912246 7.2954551298912378 -1 0 0 I I #
edge $-1 $431 -6.8180073276827464 $342 -0.03591143677625297 $341 $472 forward 7 unknown #
vertex $-1 $430 $473 #
straight-curve $-1 -49.154332102420128 10.244966709912246 1.6496477356654964 0.68199835119979291 0 0.73135370988377701 I I #
point $-1 -43.889531661788681 10.244966709912246 7.2954551298912378 #
point $-1 -49.154332102420113 3.4628708190057527 1.6496477356655117 #
straight-curve $-1 -49.154332102420113 0 7.2954551298912378 0 -1 0 I I #
vertex $-1 $348 $474 #
point $-1 -42.786037730701032 6.8539187644589958 3.0397650294926515 #
coedge $-1 $439 $354 $445 $475 reversed $235 $-1 #
coedge $-1 $354 $438 $357 $443 reversed $235 $-1 #
edge $-1 $441 -10.642283252467331 $362 -2.8178463726838832 $361 $476 forward 7 unknown #
vertex $-1 $475 $477 #
straight-curve $-1 -25.040157910072253 -17.372348065042939 64.548199555588909 -0.75470957328743171 0 0.6560590369687036 I I #
edge $-1 $358 21.093524270869764 $447 29.426267275502667 $357 $478 forward 7 unknown #
point $-1 40.821589097787211 -17.372348065042939 7.2954551298912307 #
coedge $-1 $361 $360 $438 $475 forward $352 $-1 #
point $-1 49.154332102420113 -9.5479111852594905 0.051911991681777181 #
vertex $-1 $365 $479 #
straight-curve $-1 49.154332102420113 0 7.2954551298912378 0 1 0 I I #
vertex $-1 $368 $480 #
point $-1 44.171448122970887 -15.136794670819096 1.2101403548755387 #
vertex $-1 $372 $481 #
point $-1 44.171448122970887 -11.783464579483333 1.2101403548755387 #
straight-curve $-1 -49.154332102420113 22.576610086618015 0 0 0 -1 I I #
point $-1 -49.154332102420113 -22.576610086618015 -7.2954551298912378 #
straight-curve $-1 -49.154332102420113 0 -7.2954551298912378 0 1 0 I I #
point $-1 -49.154332102420113 22.576610086618015 -7.2954551298912378 #
straight-curve $-1 -49.154332102420113 -9.9872395379152383 0.93990305846887523 0 -1 0 I I #
point $-1 -49.154332102420113 -22.576610086618015 0.93990305846887523 #
point $-1 -49.154332102420113 -17.372348065042939 0.93990305846887523 #
straight-curve $-1 -49.154332102420113 -17.372348065042939 1.2199515292344376 0 0 -1 I I #
straight-curve $-1 -49.154332102420113 -22.576610086618015 0 0 0 -1 I I #
coedge $-1 $415 $411 $422 $467 forward $308 $-1 #
straight-curve $-1 49.154332102420113 0 7.2954551298912378 0 1 0 I I #
point $-1 49.154332102420113 16.137555491988518 7.2954551298912378 #
vertex $-1 $467 $482 #
straight-curve $-1 -49.154332102420113 0 7.2954551298912378 0 -1 0 I I #
edge $-1 $425 -49.154332102420113 $465 49.154332102420113 $422 $483 forward 7 unknown #
straight-curve $-1 -49.154332102420113 22.576610086618015 0 0 0 -1 I I #
point $-1 49.154332102420113 22.576610086618015 7.2954551298912378 #
straight-curve $-1 -49.154332102420113 10.244966709912246 34.347997316010314 0 0 -1 I I #
point $-1 -49.154332102420113 10.244966709912246 7.2954551298912378 #
straight-curve $-1 -49.154332102420113 3.4269593822294997 1.6496477356655133 0 -1 0 I I #
point $-1 -49.154332102420113 10.244966709912246 1.6496477356655117 #
point $-1 -42.712004692675052 6.8539187644589958 0.9197369378672966 #
edge $-1 $447 62.075889654149407 $441 69.319432792358867 $445 $484 forward 7 unknown #
straight-curve $-1 49.154332102420113 -6.7300648125756073 0.051911991681777181 0 1 0 I I #
point $-1 49.154332102420113 -17.372348065042939 0.051911991681777181 #
straight-curve $-1 19.728064826917446 -17.372348065042939 7.2954551298912378 1 0 0 I I #
point $-1 49.154332102420113 -17.372348065042939 7.2954551298912378 #
point $-1 42.760679512714752 -15.136794670819096 1.1114898185568105 #
point $-1 42.760679512714752 -11.783464579483333 1.1114898185568105 #
point $-1 -49.154332102420113 22.576610086618015 7.2954551298912378 #
straight-curve $-1 0 22.576610086618015 7.2954551298912378 -1 0 0 I I #
straight-curve $-1 49.154332102420113 -17.372348065042939 69.371344784040645 0 0 -1 I I #
End-of-ACIS-data 