500 0 12 0           
7 Unknown 11 ACIS 5.0 NT 24 Thu Mar 25 20:45:19 1999 
-1 9.9999999999999995e-007 1e-010 
body $-1 $12 $-1 $13 #
body $-1 $14 $-1 $15 #
body $-1 $16 $-1 $17 #
body $-1 $18 $-1 $19 #
body $-1 $20 $-1 $21 #
body $-1 $22 $-1 $23 #
body $-1 $24 $-1 $25 #
body $-1 $26 $-1 $27 #
body $-1 $28 $-1 $29 #
body $-1 $30 $-1 $31 #
body $-1 $32 $-1 $33 #
body $-1 $34 $-1 $35 #
lump $-1 $-1 $36 $0 #
transform $-1 1 0 0 0 1 0 0 0 1 56.51661732840968 22.880373155004079 7.2241424771790435 1 rotate no_reflect no_shear #
lump $-1 $-1 $37 $1 #
transform $-1 1 0 0 0 1 0 0 0 1 56.51661732840968 22.880373155004079 7.2241424771790435 1 rotate no_reflect no_shear #
lump $-1 $-1 $38 $2 #
transform $-1 1 0 0 0 1 0 0 0 1 56.51661732840968 22.880373155004079 7.2241424771790435 1 rotate no_reflect no_shear #
lump $-1 $-1 $39 $3 #
transform $-1 1 0 0 0 1 0 0 0 1 56.51661732840968 22.880373155004079 7.2241424771790435 1 rotate no_reflect no_shear #
lump $-1 $-1 $40 $4 #
transform $-1 1 0 0 0 1 0 0 0 1 56.51661732840968 22.880373155004079 7.2241424771790435 1 rotate no_reflect no_shear #
lump $-1 $-1 $41 $5 #
transform $-1 1 0 0 0 1 0 0 0 1 56.51661732840968 22.880373155004079 7.2241424771790435 1 rotate no_reflect no_shear #
lump $-1 $-1 $42 $6 #
transform $-1 1 0 0 0 1 0 0 0 1 56.51661732840968 22.880373155004079 7.2241424771790435 1 rotate no_reflect no_shear #
lump $-1 $-1 $43 $7 #
transform $-1 1 0 0 0 1 0 0 0 1 56.51661732840968 22.880373155004079 7.2241424771790435 1 rotate no_reflect no_shear #
lump $-1 $-1 $44 $8 #
transform $-1 1 0 0 0 1 0 0 0 1 56.51661732840968 22.880373155004079 7.2241424771790435 1 rotate no_reflect no_shear #
lump $-1 $-1 $45 $9 #
transform $-1 1 0 0 0 1 0 0 0 1 56.51661732840968 22.880373155004079 7.2241424771790435 1 rotate no_reflect no_shear #
lump $-1 $-1 $46 $10 #
transform $-1 1 0 0 0 1 0 0 0 1 56.51661732840968 22.880373155004079 7.2241424771790435 1 rotate no_reflect no_shear #
lump $-1 $-1 $47 $11 #
transform $-1 1 0 0 0 1 0 0 0 1 56.51661732840968 22.880373155004079 7.2241424771790435 1 rotate no_reflect no_shear #
shell $-1 $-1 $-1 $48 $-1 $12 #
shell $-1 $-1 $-1 $49 $-1 $14 #
shell $-1 $-1 $-1 $50 $-1 $16 #
shell $-1 $-1 $-1 $51 $-1 $18 #
shell $-1 $-1 $-1 $52 $-1 $20 #
shell $-1 $-1 $-1 $53 $-1 $22 #
shell $-1 $-1 $-1 $54 $-1 $24 #
shell $-1 $-1 $-1 $55 $-1 $26 #
shell $-1 $-1 $-1 $56 $-1 $28 #
shell $-1 $-1 $-1 $57 $-1 $30 #
shell $-1 $-1 $-1 $58 $-1 $32 #
shell $-1 $-1 $-1 $59 $-1 $34 #
face $-1 $60 $61 $36 $-1 $62 forward single #
face $-1 $63 $64 $37 $-1 $65 reversed single #
face $-1 $66 $67 $38 $-1 $68 reversed single #
face $-1 $69 $70 $39 $-1 $71 forward single #
face $-1 $72 $73 $40 $-1 $74 forward single #
face $-1 $75 $76 $41 $-1 $77 forward single #
face $-1 $78 $79 $42 $-1 $80 reversed single #
face $-1 $81 $82 $43 $-1 $83 forward single #
face $-1 $84 $85 $44 $-1 $86 forward single #
face $-1 $87 $88 $45 $-1 $89 reversed single #
face $-1 $90 $91 $46 $-1 $92 forward single #
face $-1 $93 $94 $47 $-1 $95 forward single #
face $-1 $96 $97 $36 $-1 $98 reversed single #
loop $-1 $-1 $99 $48 #
plane-surface $-1 0 0 7.2241424771790435 0 0 1 1 0 0 forward_v I I I I #
face $-1 $100 $101 $37 $-1 $102 reversed single #
loop $-1 $-1 $103 $49 #
plane-surface $-1 -52.985520333694126 0 4.2241424771790435 0 0 1 1 0 0 forward_v I I I I #
face $-1 $104 $105 $38 $-1 $106 reversed single #
loop $-1 $-1 $107 $50 #
plane-surface $-1 -23.375140071125184 -105.54764866143243 80.038430907468879 -1 0 0 0 -0.73135370988377701 0.68199835119979291 forward_v I I I I #
face $-1 $108 $109 $39 $-1 $110 forward single #
loop $-1 $111 $112 $51 #
cone-surface $-1 -44.238566685407889 -20.366141663721724 4.6008730106816778 0 0.73135370988377701 -0.68199835119979291 1 0 0 1 I I 0 1 1 forward I I I I #
face $-1 $113 $114 $40 $-1 $115 forward single #
loop $-1 $116 $117 $52 #
cone-surface $-1 -36.414781705051873 -20.366141663721724 4.6008730106816778 0 0.73135370988377701 -0.68199835119979291 1 0 0 1 I I 0 1 1 forward I I I I #
face $-1 $118 $119 $41 $-1 $120 forward single #
loop $-1 $121 $122 $53 #
cone-surface $-1 -28.590996724695856 -20.366141663721724 4.6008730106816778 0 0.73135370988377701 -0.68199835119979291 1 0 0 1 I I 0 1 1 forward I I I I #
face $-1 $123 $124 $42 $-1 $125 reversed single #
loop $-1 $-1 $126 $54 #
plane-surface $-1 -23.457247016256073 96.200240591760249 98.992133507453474 1 0 0 0 -0.85716730853699208 -0.51503806187062418 forward_v I I I I #
face $-1 $127 $128 $43 $-1 $129 forward single #
loop $-1 $130 $131 $55 #
cone-surface $-1 -17.638031491830276 20.029436612068022 3.6986847635350095 0 -0.85716730853699208 -0.51503806187062418 1 0 0 1 I I 0 1 1 forward I I I I #
face $-1 $132 $133 $44 $-1 $134 forward single #
loop $-1 $135 $136 $56 #
cone-surface $-1 -8.9092082051915753 20.029436612068022 3.6986847635350095 0 -0.85716730853699208 -0.51503806187062418 1 0 0 1 I I 0 1 1 forward I I I I #
face $-1 $137 $138 $45 $-1 $139 reversed single #
loop $-1 $-1 $140 $57 #
plane-surface $-1 29.528273317438053 96.200240591760249 98.992133507453474 1 0 0 0 -0.85716730853699208 -0.51503806187062418 forward_v I I I I #
face $-1 $141 $142 $46 $-1 $143 forward single #
loop $-1 $144 $145 $58 #
cone-surface $-1 35.34748884186385 20.029436612068022 3.6986847635350095 0 -0.85716730853699208 -0.51503806187062418 1 0 0 1 I I 0 1 1 forward I I I I #
face $-1 $146 $147 $47 $-1 $148 forward single #
loop $-1 $149 $150 $59 #
cone-surface $-1 44.076312128502551 20.029436612068022 3.6986847635350095 0 -0.85716730853699208 -0.51503806187062418 1 0 0 1 I I 0 1 1 forward I I I I #
face $-1 $151 $152 $36 $-1 $153 reversed single #
loop $-1 $-1 $154 $60 #
plane-surface $-1 0 0 -7.2241424771790435 0 0 1 1 0 0 forward_v I I I I #
coedge $-1 $155 $156 $157 $158 forward $61 $-1 #
face $-1 $159 $160 $37 $-1 $161 reversed single #
loop $-1 $-1 $162 $63 #
plane-surface $-1 -49.454423338978572 0 5.7241424771790435 -1 0 0 0 0 1 forward_v I I I I #
coedge $-1 $163 $164 $162 $165 forward $64 $-1 #
face $-1 $166 $167 $38 $-1 $168 forward single #
loop $-1 $-1 $169 $66 #
plane-surface $-1 -36.41478170505188 -22.880373155004079 2.949951240738784 0 -0.73135370988377701 0.68199835119979291 1 0 0 forward_v I I I I #
coedge $-1 $170 $171 $172 $173 reversed $67 $-1 #
face $-1 $-1 $174 $39 $-1 $175 forward single #
loop $-1 $176 $177 $69 #
cone-surface $-1 -44.238566685407889 -19.479107173588325 3.7736999868045409 0 0.73135370988377701 -0.68199835119979291 0.5 0 0 1 I I -0.70710678118654746 0.70710678118654746 0.5 forward I I I I #
loop $-1 $-1 $178 $51 #
coedge $-1 $112 $112 $179 $180 reversed $70 $-1 #
face $-1 $-1 $181 $40 $-1 $182 forward single #
loop $-1 $183 $184 $72 #
cone-surface $-1 -36.414781705051873 -19.479107173588325 3.7736999868045409 0 0.73135370988377701 -0.68199835119979291 0.5 0 0 1 I I -0.70710678118654746 0.70710678118654746 0.5 forward I I I I #
loop $-1 $-1 $185 $52 #
coedge $-1 $117 $117 $186 $187 reversed $73 $-1 #
face $-1 $-1 $188 $41 $-1 $189 forward single #
loop $-1 $190 $191 $75 #
cone-surface $-1 -28.590996724695856 -19.479107173588325 3.7736999868045409 0 0.73135370988377701 -0.68199835119979291 0.5 0 0 1 I I -0.70710678118654746 0.70710678118654746 0.5 forward I I I I #
loop $-1 $-1 $192 $53 #
coedge $-1 $122 $122 $193 $194 reversed $76 $-1 #
face $-1 $195 $196 $42 $-1 $197 reversed single #
loop $-1 $-1 $198 $78 #
plane-surface $-1 -13.273619848510918 -0.68815293425585367 40.775715402837761 0 0.85716730853699208 0.51503806187062418 1 0 0 forward_v I I I I #
coedge $-1 $199 $200 $201 $202 reversed $79 $-1 #
face $-1 $-1 $203 $43 $-1 $204 forward single #
loop $-1 $205 $206 $81 #
cone-surface $-1 -17.638031491830276 18.454270368095536 2.7522294317231939 0 -0.85716730853699208 -0.51503806187062418 0.5 0 0 1 I I -0.70710678118654746 0.70710678118654746 0.5 forward I I I I #
loop $-1 $-1 $207 $55 #
coedge $-1 $131 $131 $208 $209 reversed $82 $-1 #
face $-1 $-1 $210 $44 $-1 $211 forward single #
loop $-1 $212 $213 $84 #
cone-surface $-1 -8.9092082051915753 18.454270368095536 2.7522294317231939 0 -0.85716730853699208 -0.51503806187062418 0.5 0 0 1 I I -0.70710678118654746 0.70710678118654746 0.5 forward I I I I #
loop $-1 $-1 $214 $56 #
coedge $-1 $136 $136 $215 $216 reversed $85 $-1 #
face $-1 $217 $218 $45 $-1 $219 reversed single #
loop $-1 $-1 $220 $87 #
plane-surface $-1 39.711900485183207 -0.68815293425585367 40.775715402837761 0 0.85716730853699208 0.51503806187062418 1 0 0 forward_v I I I I #
coedge $-1 $221 $222 $223 $224 reversed $88 $-1 #
face $-1 $-1 $225 $46 $-1 $226 forward single #
loop $-1 $227 $228 $90 #
cone-surface $-1 35.34748884186385 18.454270368095536 2.7522294317231939 0 -0.85716730853699208 -0.51503806187062418 0.5 0 0 1 I I -0.70710678118654746 0.70710678118654746 0.5 forward I I I I #
loop $-1 $-1 $229 $58 #
coedge $-1 $145 $145 $230 $231 reversed $91 $-1 #
face $-1 $-1 $232 $47 $-1 $233 forward single #
loop $-1 $234 $235 $93 #
cone-surface $-1 44.076312128502551 18.454270368095536 2.7522294317231939 0 -0.85716730853699208 -0.51503806187062418 0.5 0 0 1 I I -0.70710678118654746 0.70710678118654746 0.5 forward I I I I #
loop $-1 $-1 $236 $59 #
coedge $-1 $150 $150 $237 $238 reversed $94 $-1 #
face $-1 $239 $240 $36 $-1 $241 reversed single #
loop $-1 $-1 $242 $96 #
plane-surface $-1 0 -22.880373155004079 0 0 1 0 0 0 1 forward_v I I I I #
coedge $-1 $243 $244 $245 $246 forward $97 $-1 #
coedge $-1 $247 $99 $248 $249 forward $61 $-1 #
coedge $-1 $99 $247 $250 $251 forward $61 $-1 #
coedge $-1 $252 $253 $99 $158 reversed $254 $-1 #
edge $-1 $255 -22.880373155004079 $256 22.880373155004079 $157 $257 forward 7 unknown #
face $-1 $258 $259 $37 $-1 $260 reversed single #
loop $-1 $-1 $261 $100 #
plane-surface $-1 0 22.880373155004079 0 0 -1 0 0 0 -1 forward_v I I I I #
coedge $-1 $262 $263 $103 $165 reversed $101 $-1 #
coedge $-1 $264 $103 $265 $266 reversed $64 $-1 #
coedge $-1 $103 $264 $267 $268 reversed $64 $-1 #
edge $-1 $269 -22.880373155004079 $270 22.880373155004079 $162 $271 forward 7 unknown #
face $-1 $272 $273 $38 $-1 $274 forward single #
loop $-1 $-1 $275 $104 #
plane-surface $-1 -49.454423338978572 0 5.7241424771790435 -1 0 0 0 0 1 forward_v I I I I #
coedge $-1 $276 $277 $278 $279 reversed $105 $-1 #
coedge $-1 $171 $107 $280 $281 reversed $67 $-1 #
coedge $-1 $107 $170 $276 $282 reversed $67 $-1 #
coedge $-1 $278 $283 $107 $173 forward $273 $-1 #
edge $-1 $284 29.893451175712137 $285 33.879198887893835 $172 $286 forward 7 unknown #
loop $-1 $-1 $179 $108 #
plane-surface $-1 -36.41478170505188 -22.880373155004079 2.949951240738784 0 -0.73135370988377701 0.68199835119979291 1 0 0 forward_v I I I I #
loop $-1 $-1 $287 $69 #
coedge $-1 $177 $177 $178 $288 reversed $109 $-1 #
coedge $-1 $178 $178 $177 $288 forward $111 $-1 #
coedge $-1 $179 $179 $112 $180 forward $174 $-1 #
edge $-1 $289 1.7534545791869548e-016 $289 6.2831853071796004 $179 $290 forward 7 unknown #
loop $-1 $-1 $186 $113 #
plane-surface $-1 -36.41478170505188 -22.880373155004079 2.949951240738784 0 -0.73135370988377701 0.68199835119979291 1 0 0 forward_v I I I I #
loop $-1 $-1 $291 $72 #
coedge $-1 $184 $184 $185 $292 reversed $114 $-1 #
coedge $-1 $185 $185 $184 $292 forward $116 $-1 #
coedge $-1 $186 $186 $117 $187 forward $181 $-1 #
edge $-1 $293 1.7534545791869548e-016 $293 6.2831853071796004 $186 $294 forward 7 unknown #
loop $-1 $-1 $193 $118 #
plane-surface $-1 -36.41478170505188 -22.880373155004079 2.949951240738784 0 -0.73135370988377701 0.68199835119979291 1 0 0 forward_v I I I I #
loop $-1 $-1 $295 $75 #
coedge $-1 $191 $191 $192 $296 reversed $119 $-1 #
coedge $-1 $192 $192 $191 $296 forward $121 $-1 #
coedge $-1 $193 $193 $122 $194 forward $188 $-1 #
edge $-1 $297 1.7534545791869548e-016 $297 6.2831853071796004 $193 $298 forward 7 unknown #
face $-1 $299 $300 $42 $-1 $301 forward single #
loop $-1 $-1 $302 $123 #
plane-surface $-1 -3.0899926807657643 96.200240591760249 98.992133507453474 -1 0 0 0 0.85716730853699208 0.51503806187062418 forward_v I I I I #
coedge $-1 $303 $304 $305 $306 reversed $124 $-1 #
coedge $-1 $200 $126 $307 $308 reversed $79 $-1 #
coedge $-1 $126 $199 $303 $309 reversed $79 $-1 #
coedge $-1 $305 $310 $126 $202 forward $300 $-1 #
edge $-1 $311 25.219747140876045 $312 28.628455047340196 $201 $313 forward 7 unknown #
loop $-1 $-1 $208 $127 #
plane-surface $-1 -13.273619848510918 -0.68815293425585367 40.775715402837761 0 0.85716730853699208 0.51503806187062418 1 0 0 forward_v I I I I #
loop $-1 $-1 $314 $81 #
coedge $-1 $206 $206 $207 $315 reversed $128 $-1 #
coedge $-1 $207 $207 $206 $315 forward $130 $-1 #
coedge $-1 $208 $208 $131 $209 forward $203 $-1 #
edge $-1 $316 -2.9404398510729274e-016 $316 6.2831853071796004 $208 $317 forward 7 unknown #
loop $-1 $-1 $215 $132 #
plane-surface $-1 -13.273619848510918 -0.68815293425585367 40.775715402837761 0 0.85716730853699208 0.51503806187062418 1 0 0 forward_v I I I I #
loop $-1 $-1 $318 $84 #
coedge $-1 $213 $213 $214 $319 reversed $133 $-1 #
coedge $-1 $214 $214 $213 $319 forward $135 $-1 #
coedge $-1 $215 $215 $136 $216 forward $210 $-1 #
edge $-1 $320 -2.9404398510729274e-016 $320 6.2831853071796004 $215 $321 forward 7 unknown #
face $-1 $322 $323 $45 $-1 $324 forward single #
loop $-1 $-1 $325 $137 #
plane-surface $-1 49.895527652928365 96.200240591760249 98.992133507453474 -1 0 0 0 0.85716730853699208 0.51503806187062418 forward_v I I I I #
coedge $-1 $326 $327 $328 $329 reversed $138 $-1 #
coedge $-1 $222 $140 $330 $331 reversed $88 $-1 #
coedge $-1 $140 $221 $326 $332 reversed $88 $-1 #
coedge $-1 $328 $333 $140 $224 forward $323 $-1 #
edge $-1 $334 25.219747140876045 $335 28.628455047340196 $223 $336 forward 7 unknown #
loop $-1 $-1 $230 $141 #
plane-surface $-1 39.711900485183207 -0.68815293425585367 40.775715402837761 0 0.85716730853699208 0.51503806187062418 1 0 0 forward_v I I I I #
loop $-1 $-1 $337 $90 #
coedge $-1 $228 $228 $229 $338 reversed $142 $-1 #
coedge $-1 $229 $229 $228 $338 forward $144 $-1 #
coedge $-1 $230 $230 $145 $231 forward $225 $-1 #
edge $-1 $339 -2.9404398510729274e-016 $339 6.2831853071796004 $230 $340 forward 7 unknown #
loop $-1 $-1 $237 $146 #
plane-surface $-1 39.711900485183207 -0.68815293425585367 40.775715402837761 0 0.85716730853699208 0.51503806187062418 1 0 0 forward_v I I I I #
loop $-1 $-1 $341 $93 #
coedge $-1 $235 $235 $236 $342 reversed $147 $-1 #
coedge $-1 $236 $236 $235 $342 forward $149 $-1 #
coedge $-1 $237 $237 $150 $238 forward $232 $-1 #
edge $-1 $343 -2.9404398510729274e-016 $343 6.2831853071796004 $237 $344 forward 7 unknown #
face $-1 $345 $346 $36 $-1 $347 reversed single #
loop $-1 $-1 $348 $151 #
plane-surface $-1 -56.51661732840968 0 0 1 0 0 0 0 -1 forward_v I I I I #
coedge $-1 $349 $250 $350 $351 forward $152 $-1 #
coedge $-1 $352 $154 $349 $353 forward $97 $-1 #
coedge $-1 $154 $352 $354 $355 forward $97 $-1 #
coedge $-1 $253 $252 $154 $246 reversed $254 $-1 #
edge $-1 $356 -22.880373155004079 $357 22.880373155004079 $245 $358 forward 7 unknown #
coedge $-1 $156 $155 $359 $360 forward $61 $-1 #
coedge $-1 $361 $362 $155 $249 reversed $346 $-1 #
edge $-1 $256 -56.51661732840968 $363 56.51661732840968 $248 $364 forward 7 unknown #
coedge $-1 $242 $365 $156 $251 reversed $152 $-1 #
edge $-1 $366 -56.51661732840968 $255 56.51661732840968 $250 $367 forward 7 unknown #
coedge $-1 $245 $157 $365 $368 forward $254 $-1 #
coedge $-1 $157 $245 $361 $369 reversed $254 $-1 #
loop $-1 $-1 $252 $345 #
vertex $-1 $158 $370 #
vertex $-1 $158 $371 #
straight-curve $-1 56.51661732840968 0 7.2241424771790435 0 1 0 I I #
face $-1 $372 $373 $37 $-1 $374 forward single #
loop $-1 $-1 $375 $159 #
plane-surface $-1 -56.51661732840968 0 0 1 0 0 0 0 -1 forward_v I I I I #
coedge $-1 $267 $376 $262 $377 forward $160 $-1 #
coedge $-1 $378 $162 $261 $377 reversed $101 $-1 #
coedge $-1 $162 $378 $379 $380 reversed $101 $-1 #
coedge $-1 $164 $163 $375 $381 reversed $64 $-1 #
coedge $-1 $379 $382 $163 $266 forward $383 $-1 #
edge $-1 $384 -30.023857161562617 $270 -22.961663172131509 $265 $385 forward 7 unknown #
coedge $-1 $386 $261 $164 $268 forward $160 $-1 #
edge $-1 $269 22.961663172131509 $387 30.023857161562617 $267 $388 forward 7 unknown #
vertex $-1 $268 $389 #
vertex $-1 $266 $390 #
straight-curve $-1 -49.454423338978572 0 4.2241424771790435 0 -1 0 I I #
face $-1 $-1 $391 $38 $-1 $392 reversed single #
loop $-1 $-1 $278 $166 #
plane-surface $-1 0 0 7.2241424771790435 0 0 1 1 0 0 forward_v I I I I #
coedge $-1 $393 $394 $277 $395 reversed $167 $-1 #
coedge $-1 $396 $169 $171 $282 forward $105 $-1 #
coedge $-1 $169 $396 $275 $395 forward $105 $-1 #
coedge $-1 $397 $172 $169 $279 forward $273 $-1 #
edge $-1 $285 5.1677492185992442 $398 31.247032486452632 $278 $399 forward 7 unknown #
coedge $-1 $400 $401 $170 $281 forward $391 $-1 #
edge $-1 $402 -37.069264212995655 $284 -32.795072976555396 $280 $403 forward 7 unknown #
edge $-1 $285 -5.8442189855295767 $402 0 $171 $404 forward 7 unknown #
coedge $-1 $172 $397 $400 $405 forward $273 $-1 #
vertex $-1 $281 $406 #
vertex $-1 $173 $407 #
straight-curve $-1 -23.375140071125184 -52.773824330716216 7.2241424771790435 0 1 0 I I #
coedge $-1 $287 $287 $-1 $408 reversed $176 $-1 #
edge $-1 $409 0 $409 6.2831853071796004 $177 $410 forward 7 unknown #
vertex $-1 $180 $411 #
ellipse-curve $-1 -44.238566685407889 -20.88749929891323 5.0870468589589155 0 -0.73135370988377701 0.68199835119979291 1 0 0 1 I I #
coedge $-1 $291 $291 $-1 $412 reversed $183 $-1 #
edge $-1 $413 0 $413 6.2831853071796004 $184 $414 forward 7 unknown #
vertex $-1 $187 $415 #
ellipse-curve $-1 -36.414781705051873 -20.88749929891323 5.0870468589589155 0 -0.73135370988377701 0.68199835119979291 1 0 0 1 I I #
coedge $-1 $295 $295 $-1 $416 reversed $190 $-1 #
edge $-1 $417 0 $417 6.2831853071796004 $191 $418 forward 7 unknown #
vertex $-1 $194 $419 #
ellipse-curve $-1 -28.590996724695856 -20.88749929891323 5.0870468589589155 0 -0.73135370988377701 0.68199835119979291 1 0 0 1 I I #
face $-1 $-1 $420 $42 $-1 $421 reversed single #
loop $-1 $-1 $201 $195 #
plane-surface $-1 0 0 7.2241424771790435 0 0 1 1 0 0 forward_v I I I I #
coedge $-1 $422 $423 $424 $425 reversed $196 $-1 #
coedge $-1 $426 $198 $200 $309 forward $124 $-1 #
coedge $-1 $198 $426 $422 $427 forward $124 $-1 #
coedge $-1 $424 $201 $198 $306 forward $300 $-1 #
edge $-1 $312 -16.820437092000613 $428 3.546817243489695 $305 $429 forward 7 unknown #
coedge $-1 $430 $431 $199 $308 forward $420 $-1 #
edge $-1 $432 -47.944967102082778 $311 -42.271924276547693 $307 $433 forward 7 unknown #
edge $-1 $312 39.142385146400819 $432 45.760746310008187 $200 $434 forward 7 unknown #
coedge $-1 $201 $424 $430 $435 forward $300 $-1 #
vertex $-1 $308 $436 #
vertex $-1 $202 $437 #
straight-curve $-1 -23.457247016256073 48.100120295880124 7.2241424771790435 0 -1 0 I I #
coedge $-1 $314 $314 $-1 $438 reversed $205 $-1 #
edge $-1 $439 0 $439 6.2831853071796004 $206 $440 forward 7 unknown #
vertex $-1 $209 $441 #
ellipse-curve $-1 -17.638031491830276 21.176019201771997 4.3876210644115048 0 0.85716730853699208 0.51503806187062418 1 0 0 1 I I #
coedge $-1 $318 $318 $-1 $442 reversed $212 $-1 #
edge $-1 $443 0 $443 6.2831853071796004 $213 $444 forward 7 unknown #
vertex $-1 $216 $445 #
ellipse-curve $-1 -8.9092082051915753 21.176019201771997 4.3876210644115048 0 0.85716730853699208 0.51503806187062418 1 0 0 1 I I #
face $-1 $-1 $446 $45 $-1 $447 reversed single #
loop $-1 $-1 $223 $217 #
plane-surface $-1 0 0 7.2241424771790435 0 0 1 1 0 0 forward_v I I I I #
coedge $-1 $448 $449 $450 $451 reversed $218 $-1 #
coedge $-1 $452 $220 $222 $332 forward $138 $-1 #
coedge $-1 $220 $452 $448 $453 forward $138 $-1 #
coedge $-1 $450 $223 $220 $329 forward $323 $-1 #
edge $-1 $335 9.6723230748464495 $454 30.039577410336761 $328 $455 forward 7 unknown #
coedge $-1 $456 $457 $221 $331 forward $446 $-1 #
edge $-1 $458 -47.944967102082778 $334 -42.271924276547693 $330 $459 forward 7 unknown #
edge $-1 $335 39.142385146400819 $458 45.760746310008187 $222 $460 forward 7 unknown #
coedge $-1 $223 $450 $456 $461 forward $323 $-1 #
vertex $-1 $224 $462 #
vertex $-1 $224 $463 #
straight-curve $-1 29.528273317438053 48.100120295880124 7.2241424771790435 0 -1 0 I I #
coedge $-1 $337 $337 $-1 $464 reversed $227 $-1 #
edge $-1 $465 0 $465 6.2831853071796004 $228 $466 forward 7 unknown #
vertex $-1 $231 $467 #
ellipse-curve $-1 35.34748884186385 21.176019201771997 4.3876210644115048 0 0.85716730853699208 0.51503806187062418 1 0 0 1 I I #
coedge $-1 $341 $341 $-1 $468 reversed $234 $-1 #
edge $-1 $469 0 $469 6.2831853071796004 $235 $470 forward 7 unknown #
vertex $-1 $238 $471 #
ellipse-curve $-1 44.076312128502551 21.176019201771997 4.3876210644115048 0 0.85716730853699208 0.51503806187062418 1 0 0 1 I I #
face $-1 $-1 $254 $36 $-1 $472 reversed single #
loop $-1 $-1 $361 $239 #
plane-surface $-1 0 22.880373155004079 0 0 -1 0 0 0 -1 forward_v I I I I #
coedge $-1 $473 $359 $362 $474 forward $240 $-1 #
coedge $-1 $365 $242 $243 $353 reversed $152 $-1 #
coedge $-1 $359 $473 $242 $351 reversed $240 $-1 #
edge $-1 $366 -7.2241424771790435 $475 7.2241424771790435 $350 $476 forward 7 unknown #
coedge $-1 $244 $243 $473 $477 forward $97 $-1 #
edge $-1 $357 -56.51661732840968 $475 56.51661732840968 $349 $478 forward 7 unknown #
coedge $-1 $362 $361 $244 $355 reversed $346 $-1 #
edge $-1 $479 -56.51661732840968 $356 56.51661732840968 $354 $480 forward 7 unknown #
vertex $-1 $246 $481 #
vertex $-1 $368 $482 #
straight-curve $-1 56.51661732840968 0 -7.2241424771790435 0 -1 0 I I #
coedge $-1 $348 $350 $247 $360 reversed $240 $-1 #
edge $-1 $363 -22.880373155004079 $366 22.880373155004079 $359 $483 forward 7 unknown #
coedge $-1 $354 $248 $253 $369 forward $346 $-1 #
coedge $-1 $248 $354 $348 $474 reversed $346 $-1 #
vertex $-1 $249 $484 #
straight-curve $-1 0 22.880373155004079 7.2241424771790435 -1 0 0 I I #
coedge $-1 $250 $349 $252 $368 reversed $152 $-1 #
vertex $-1 $360 $485 #
straight-curve $-1 0 -22.880373155004079 7.2241424771790435 1 0 0 I I #
edge $-1 $255 -7.2241424771790435 $357 7.2241424771790435 $252 $486 forward 7 unknown #
edge $-1 $256 -7.2241424771790435 $356 7.2241424771790435 $253 $487 forward 7 unknown #
point $-1 56.51661732840968 -22.880373155004079 7.2241424771790435 #
point $-1 56.51661732840968 22.880373155004079 7.2241424771790435 #
face $-1 $-1 $383 $37 $-1 $488 reversed single #
loop $-1 $-1 $489 $258 #
plane-surface $-1 0 0 7.2241424771790435 0 0 1 1 0 0 forward_v I I I I #
coedge $-1 $490 $491 $264 $381 forward $259 $-1 #
coedge $-1 $261 $386 $492 $493 reversed $160 $-1 #
edge $-1 $494 -4.3620712385895217 $269 -1.3620712385895217 $261 $495 forward 7 unknown #
coedge $-1 $263 $262 $489 $496 reversed $101 $-1 #
coedge $-1 $497 $265 $263 $380 forward $383 $-1 #
edge $-1 $270 1.3620712385895217 $498 4.3620712385895217 $379 $499 forward 7 unknown #
edge $-1 $387 -22.880373155004079 $384 22.880373155004079 $375 $500 forward 7 unknown #
coedge $-1 $265 $497 $490 $501 forward $383 $-1 #
loop $-1 $-1 $379 $372 #
vertex $-1 $381 $502 #
straight-curve $-1 -26.492760166847063 -22.880373155004079 4.2241424771790435 1 0 0 I I #
coedge $-1 $376 $267 $491 $503 reversed $160 $-1 #
vertex $-1 $381 $504 #
straight-curve $-1 -26.492760166847063 22.880373155004079 4.2241424771790435 -1 0 0 I I #
point $-1 -49.454423338978572 22.880373155004079 4.2241424771790435 #
point $-1 -49.454423338978572 -22.880373155004079 4.2241424771790435 #
loop $-1 $-1 $280 $272 #
plane-surface $-1 0 -22.880373155004079 0 0 1 0 0 0 1 forward_v I I I I #
coedge $-1 $394 $275 $505 $506 reversed $167 $-1 #
coedge $-1 $275 $393 $397 $507 reversed $167 $-1 #
edge $-1 $508 0 $398 5.8442189855295767 $275 $509 forward 7 unknown #
coedge $-1 $277 $276 $401 $510 reversed $105 $-1 #
coedge $-1 $283 $278 $394 $507 forward $273 $-1 #
vertex $-1 $507 $511 #
straight-curve $-1 -18.20739085252594 -18.894625442822381 7.2241424771790435 -1 0 0 I I #
coedge $-1 $505 $280 $283 $405 reversed $391 $-1 #
coedge $-1 $280 $505 $396 $510 forward $391 $-1 #
vertex $-1 $281 $512 #
straight-curve $-1 -23.375140071125184 -22.880373155004079 40.019215453734439 0 0 1 I I #
straight-curve $-1 -23.375140071125184 -22.880373155004079 2.949951240738784 0 -0.68199835119979291 -0.73135370988377701 I I #
edge $-1 $513 -49.454423338978572 $284 -23.375140071125184 $400 $514 forward 7 unknown #
point $-1 -23.375140071125184 -22.880373155004079 7.2241424771790435 #
point $-1 -23.375140071125184 -18.894625442822381 7.2241424771790435 #
edge $-1 $515 1 $515 0 $287 $-1 forward 7 unknown #
vertex $-1 $288 $516 #
ellipse-curve $-1 -44.238566685407889 -19.844784028530214 4.1146991624044373 0 -0.73135370988377701 0.68199835119979291 1 0 0 1 I I #
point $-1 -43.238566685407889 -20.887499298913234 5.0870468589589191 #
edge $-1 $517 1 $517 0 $291 $-1 forward 7 unknown #
vertex $-1 $292 $518 #
ellipse-curve $-1 -36.414781705051873 -19.844784028530214 4.1146991624044373 0 -0.73135370988377701 0.68199835119979291 1 0 0 1 I I #
point $-1 -35.414781705051873 -20.887499298913234 5.0870468589589191 #
edge $-1 $519 1 $519 0 $295 $-1 forward 7 unknown #
vertex $-1 $296 $520 #
ellipse-curve $-1 -28.590996724695856 -19.844784028530214 4.1146991624044373 0 -0.73135370988377701 0.68199835119979291 1 0 0 1 I I #
point $-1 -27.590996724695856 -20.887499298913234 5.0870468589589191 #
loop $-1 $-1 $307 $299 #
plane-surface $-1 0 22.880373155004079 0 0 -1 0 0 0 -1 forward_v I I I I #
coedge $-1 $423 $302 $304 $427 reversed $196 $-1 #
coedge $-1 $302 $422 $521 $522 reversed $196 $-1 #
coedge $-1 $310 $305 $302 $425 forward $300 $-1 #
edge $-1 $428 -28.628455047340196 $523 -25.219747140876045 $424 $524 forward 7 unknown #
coedge $-1 $304 $303 $431 $525 reversed $124 $-1 #
edge $-1 $526 -45.760746310008187 $428 -39.142385146400819 $422 $527 forward 7 unknown #
vertex $-1 $306 $528 #
straight-curve $-1 -6.6368099242554592 19.471665248539924 7.2241424771790435 1 0 0 I I #
coedge $-1 $521 $307 $310 $435 reversed $420 $-1 #
coedge $-1 $307 $521 $426 $525 forward $420 $-1 #
vertex $-1 $308 $529 #
straight-curve $-1 -23.457247016256073 22.880373155004079 49.496066753726737 0 0 1 I I #
straight-curve $-1 -23.457247016256073 -0.68815293425585367 40.775715402837761 0 0.51503806187062418 -0.85716730853699208 I I #
edge $-1 $523 3.0899926807657643 $311 23.457247016256073 $430 $530 forward 7 unknown #
point $-1 -23.457247016256073 22.880373155004079 7.2241424771790435 #
point $-1 -23.457247016256073 19.471665248539928 7.2241424771790435 #
edge $-1 $531 1 $531 0 $314 $-1 forward 7 unknown #
vertex $-1 $315 $532 #
ellipse-curve $-1 -17.638031491830276 18.882854022364032 3.0097484626585058 0 0.85716730853699208 0.51503806187062418 1 0 0 1 I I #
point $-1 -16.638031491830276 21.176019201772011 4.3876210644115137 #
edge $-1 $533 1 $533 0 $318 $-1 forward 7 unknown #
vertex $-1 $319 $534 #
ellipse-curve $-1 -8.9092082051915753 18.882854022364032 3.0097484626585058 0 0.85716730853699208 0.51503806187062418 1 0 0 1 I I #
point $-1 -7.9092082051915753 21.176019201772011 4.3876210644115137 #
loop $-1 $-1 $330 $322 #
plane-surface $-1 0 22.880373155004079 0 0 -1 0 0 0 -1 forward_v I I I I #
coedge $-1 $449 $325 $327 $453 reversed $218 $-1 #
coedge $-1 $325 $448 $535 $536 reversed $218 $-1 #
coedge $-1 $333 $328 $325 $451 forward $323 $-1 #
edge $-1 $454 -28.628455047340196 $537 -25.219747140876045 $450 $538 forward 7 unknown #
coedge $-1 $327 $326 $457 $539 reversed $138 $-1 #
edge $-1 $540 -45.760746310008187 $454 -39.142385146400819 $448 $541 forward 7 unknown #
vertex $-1 $329 $542 #
straight-curve $-1 19.855950242591604 19.471665248539924 7.2241424771790435 1 0 0 I I #
coedge $-1 $535 $330 $333 $461 reversed $446 $-1 #
coedge $-1 $330 $535 $452 $539 forward $446 $-1 #
vertex $-1 $331 $543 #
straight-curve $-1 29.528273317438053 22.880373155004079 49.496066753726737 0 0 1 I I #
straight-curve $-1 29.528273317438053 -0.68815293425585367 40.775715402837761 0 0.51503806187062418 -0.85716730853699208 I I #
edge $-1 $537 -49.895527652928365 $334 -29.528273317438053 $456 $544 forward 7 unknown #
point $-1 29.528273317438053 22.880373155004079 7.2241424771790435 #
point $-1 29.528273317438053 19.471665248539928 7.2241424771790435 #
edge $-1 $545 1 $545 0 $337 $-1 forward 7 unknown #
vertex $-1 $338 $546 #
ellipse-curve $-1 35.34748884186385 18.882854022364032 3.0097484626585058 0 0.85716730853699208 0.51503806187062418 1 0 0 1 I I #
point $-1 36.34748884186385 21.176019201772011 4.3876210644115137 #
edge $-1 $547 1 $547 0 $341 $-1 forward 7 unknown #
vertex $-1 $342 $548 #
ellipse-curve $-1 44.076312128502551 18.882854022364032 3.0097484626585058 0 0.85716730853699208 0.51503806187062418 1 0 0 1 I I #
point $-1 45.076312128502551 21.176019201772011 4.3876210644115137 #
plane-surface $-1 56.51661732840968 0 0 -1 0 0 0 0 1 forward_v I I I I #
coedge $-1 $350 $348 $352 $477 reversed $240 $-1 #
edge $-1 $363 -7.2241424771790435 $479 7.2241424771790435 $362 $549 forward 7 unknown #
vertex $-1 $477 $550 #
straight-curve $-1 -56.51661732840968 -22.880373155004079 0 0 0 -1 I I #
edge $-1 $475 -22.880373155004079 $479 22.880373155004079 $473 $551 forward 7 unknown #
straight-curve $-1 0 -22.880373155004079 -7.2241424771790435 -1 0 0 I I #
vertex $-1 $355 $552 #
straight-curve $-1 0 22.880373155004079 -7.2241424771790435 1 0 0 I I #
point $-1 56.51661732840968 22.880373155004079 -7.2241424771790435 #
point $-1 56.51661732840968 -22.880373155004079 -7.2241424771790435 #
straight-curve $-1 -56.51661732840968 0 7.2241424771790435 0 -1 0 I I #
point $-1 -56.51661732840968 22.880373155004079 7.2241424771790435 #
point $-1 -56.51661732840968 -22.880373155004079 7.2241424771790435 #
straight-curve $-1 56.51661732840968 -22.880373155004079 0 0 0 -1 I I #
straight-curve $-1 56.51661732840968 22.880373155004079 0 0 0 -1 I I #
plane-surface $-1 0 -22.880373155004079 0 0 1 0 0 0 1 forward_v I I I I #
coedge $-1 $492 $553 $378 $496 forward $373 $-1 #
coedge $-1 $554 $375 $382 $501 reversed $259 $-1 #
coedge $-1 $375 $554 $386 $503 forward $259 $-1 #
coedge $-1 $555 $489 $376 $493 forward $373 $-1 #
edge $-1 $494 49.454423338978572 $556 56.51661732840968 $376 $557 forward 7 unknown #
vertex $-1 $493 $558 #
straight-curve $-1 -49.454423338978572 22.880373155004079 2.8620712385895217 0 0 -1 I I #
edge $-1 $498 -22.880373155004079 $494 22.880373155004079 $489 $559 forward 7 unknown #
coedge $-1 $382 $379 $553 $560 reversed $383 $-1 #
vertex $-1 $380 $561 #
straight-curve $-1 -49.454423338978572 -22.880373155004079 2.8620712385895217 0 0 1 I I #
straight-curve $-1 -56.51661732840968 0 4.2241424771790435 0 -1 0 I I #
edge $-1 $562 -7.2241424771790435 $384 -4.2241424771790435 $490 $563 forward 7 unknown #
point $-1 -56.51661732840968 -22.880373155004079 4.2241424771790435 #
edge $-1 $556 -7.2241424771790435 $387 -4.2241424771790435 $386 $564 forward 7 unknown #
point $-1 -56.51661732840968 22.880373155004079 4.2241424771790435 #
coedge $-1 $401 $400 $393 $506 forward $391 $-1 #
edge $-1 $513 32.795072976555396 $508 37.069264212995655 $505 $565 forward 7 unknown #
edge $-1 $398 18.894625442822381 $513 22.880373155004079 $397 $566 forward 7 unknown #
vertex $-1 $506 $567 #
straight-curve $-1 -49.454423338978572 -22.880373155004079 2.949951240738784 0 0.68199835119979291 0.73135370988377701 I I #
edge $-1 $508 -31.247032486452632 $402 -5.1677492185992442 $401 $568 forward 7 unknown #
point $-1 -49.454423338978572 -18.894625442822381 7.2241424771790435 #
point $-1 -23.375140071125184 -22.880373155004079 2.949951240738784 #
vertex $-1 $405 $569 #
straight-curve $-1 0 -22.880373155004079 7.2241424771790435 1 0 0 I I #
vertex $-1 $408 $570 #
point $-1 -43.238566685407889 -19.844784028530214 4.1146991624044373 #
vertex $-1 $412 $571 #
point $-1 -35.414781705051873 -19.844784028530214 4.1146991624044373 #
vertex $-1 $416 $572 #
point $-1 -27.590996724695856 -19.844784028530214 4.1146991624044373 #
coedge $-1 $431 $430 $423 $522 forward $420 $-1 #
edge $-1 $523 42.271924276547693 $526 47.944967102082778 $521 $573 forward 7 unknown #
vertex $-1 $435 $574 #
straight-curve $-1 -3.0899926807657643 48.100120295880124 7.2241424771790435 0 1 0 I I #
edge $-1 $526 -3.546817243489695 $432 16.820437092000613 $431 $575 forward 7 unknown #
vertex $-1 $525 $576 #
straight-curve $-1 -3.0899926807657643 -0.68815293425585367 40.775715402837761 0 -0.51503806187062418 0.85716730853699208 I I #
point $-1 -3.0899926807657643 19.471665248539928 7.2241424771790435 #
point $-1 -23.457247016256073 22.880373155004079 1.551099651643959 #
straight-curve $-1 0 22.880373155004079 7.2241424771790435 -1 0 0 I I #
vertex $-1 $438 $577 #
point $-1 -16.638031491830276 18.882854022364032 3.0097484626585058 #
vertex $-1 $442 $578 #
point $-1 -7.9092082051915753 18.882854022364032 3.0097484626585058 #
coedge $-1 $457 $456 $449 $536 forward $446 $-1 #
edge $-1 $537 42.271924276547693 $540 47.944967102082778 $535 $579 forward 7 unknown #
vertex $-1 $461 $580 #
straight-curve $-1 49.895527652928365 48.100120295880124 7.2241424771790435 0 1 0 I I #
edge $-1 $540 -30.039577410336761 $458 -9.6723230748464495 $457 $581 forward 7 unknown #
vertex $-1 $539 $582 #
straight-curve $-1 49.895527652928365 -0.68815293425585367 40.775715402837761 0 -0.51503806187062418 0.85716730853699208 I I #
point $-1 49.895527652928365 19.471665248539928 7.2241424771790435 #
point $-1 29.528273317438053 22.880373155004079 1.551099651643959 #
straight-curve $-1 0 22.880373155004079 7.2241424771790435 -1 0 0 I I #
vertex $-1 $464 $583 #
point $-1 36.34748884186385 18.882854022364032 3.0097484626585058 #
vertex $-1 $468 $584 #
point $-1 45.076312128502551 18.882854022364032 3.0097484626585058 #
straight-curve $-1 -56.51661732840968 22.880373155004079 0 0 0 -1 I I #
point $-1 -56.51661732840968 -22.880373155004079 -7.2241424771790435 #
straight-curve $-1 -56.51661732840968 0 -7.2241424771790435 0 1 0 I I #
point $-1 -56.51661732840968 22.880373155004079 -7.2241424771790435 #
coedge $-1 $489 $555 $497 $560 forward $373 $-1 #
coedge $-1 $491 $490 $555 $585 reversed $259 $-1 #
coedge $-1 $553 $492 $554 $585 forward $373 $-1 #
vertex $-1 $493 $586 #
straight-curve $-1 0 22.880373155004079 7.2241424771790435 -1 0 0 I I #
point $-1 -49.454423338978572 22.880373155004079 7.2241424771790435 #
straight-curve $-1 -49.454423338978572 0 7.2241424771790435 0 1 0 I I #
edge $-1 $562 -56.51661732840968 $498 -49.454423338978572 $497 $587 forward 7 unknown #
point $-1 -49.454423338978572 -22.880373155004079 7.2241424771790435 #
vertex $-1 $585 $588 #
straight-curve $-1 -56.51661732840968 -22.880373155004079 0 0 0 -1 I I #
straight-curve $-1 -56.51661732840968 22.880373155004079 0 0 0 -1 I I #
straight-curve $-1 -49.454423338978572 -22.880373155004079 40.019215453734439 0 0 -1 I I #
straight-curve $-1 -49.454423338978572 0 7.2241424771790435 0 -1 0 I I #
point $-1 -49.454423338978572 -22.880373155004079 2.949951240738784 #
straight-curve $-1 -18.20739085252594 -22.880373155004079 2.9499512407387853 1 0 0 I I #
point $-1 -49.454423338978572 -22.880373155004079 7.2241424771790435 #
point $-1 -44.238566685407889 -19.113430318646436 3.4327008112046444 #
point $-1 -36.414781705051873 -19.113430318646436 3.4327008112046444 #
point $-1 -28.590996724695856 -19.113430318646436 3.4327008112046444 #
straight-curve $-1 -3.0899926807657643 22.880373155004079 49.496066753726737 0 0 -1 I I #
point $-1 -3.0899926807657643 22.880373155004079 7.2241424771790435 #
straight-curve $-1 -6.6368099242554592 22.880373155004079 1.5510996516439484 -1 0 0 I I #
point $-1 -3.0899926807657643 22.880373155004079 1.551099651643959 #
point $-1 -17.638031491830276 18.025686713827039 2.494710400787882 #
point $-1 -8.9092082051915753 18.025686713827039 2.494710400787882 #
straight-curve $-1 49.895527652928365 22.880373155004079 49.496066753726737 0 0 -1 I I #
point $-1 49.895527652928365 22.880373155004079 7.2241424771790435 #
straight-curve $-1 19.855950242591604 22.880373155004079 1.5510996516439484 -1 0 0 I I #
point $-1 49.895527652928365 22.880373155004079 1.551099651643959 #
point $-1 35.34748884186385 18.025686713827039 2.494710400787882 #
point $-1 44.076312128502551 18.025686713827039 2.494710400787882 #
edge $-1 $556 -22.880373155004079 $562 22.880373155004079 $554 $589 forward 7 unknown #
point $-1 -56.51661732840968 22.880373155004079 7.2241424771790435 #
straight-curve $-1 0 -22.880373155004079 7.2241424771790435 1 0 0 I I #
point $-1 -56.51661732840968 -22.880373155004079 7.2241424771790435 #
straight-curve $-1 -56.51661732840968 0 7.2241424771790435 0 -1 0 I I #
End-of-ACIS-data 