500 0 14 0           
7 Unknown 11 ACIS 5.0 NT 24 Fri Mar 26 18:21:49 1999 
-1 9.9999999999999995e-007 1e-010 
body $-1 $14 $-1 $15 #
body $-1 $16 $-1 $17 #
body $-1 $18 $-1 $19 #
body $-1 $20 $-1 $21 #
body $-1 $22 $-1 $23 #
body $-1 $24 $-1 $25 #
body $-1 $26 $-1 $27 #
body $-1 $28 $-1 $29 #
body $-1 $30 $-1 $31 #
body $-1 $32 $-1 $33 #
body $-1 $34 $-1 $35 #
body $-1 $36 $-1 $37 #
body $-1 $38 $-1 $39 #
body $-1 $40 $-1 $41 #
lump $-1 $-1 $42 $0 #
transform $-1 1 0 0 0 1 0 0 0 1 42.213202307199317 26.717078037289134 9.2733137587724475 1 rotate no_reflect no_shear #
lump $-1 $-1 $43 $1 #
transform $-1 1 0 0 0 1 0 0 0 1 42.213202307199317 26.717078037289134 9.2733137587724475 1 rotate no_reflect no_shear #
lump $-1 $-1 $44 $2 #
transform $-1 1 0 0 0 1 0 0 0 1 42.213202307199317 26.717078037289134 9.2733137587724475 1 rotate no_reflect no_shear #
lump $-1 $-1 $45 $3 #
transform $-1 1 0 0 0 1 0 0 0 1 42.213202307199317 26.717078037289134 9.2733137587724475 1 rotate no_reflect no_shear #
lump $-1 $-1 $46 $4 #
transform $-1 1 0 0 0 1 0 0 0 1 42.213202307199317 26.717078037289134 9.2733137587724475 1 rotate no_reflect no_shear #
lump $-1 $-1 $47 $5 #
transform $-1 1 0 0 0 1 0 0 0 1 42.213202307199317 26.717078037289134 9.2733137587724475 1 rotate no_reflect no_shear #
lump $-1 $-1 $48 $6 #
transform $-1 1 0 0 0 1 0 0 0 1 42.213202307199317 26.717078037289134 9.2733137587724475 1 rotate no_reflect no_shear #
lump $-1 $-1 $49 $7 #
transform $-1 1 0 0 0 1 0 0 0 1 42.213202307199317 26.717078037289134 9.2733137587724475 1 rotate no_reflect no_shear #
lump $-1 $-1 $50 $8 #
transform $-1 1 0 0 0 1 0 0 0 1 42.213202307199317 26.717078037289134 9.2733137587724475 1 rotate no_reflect no_shear #
lump $-1 $-1 $51 $9 #
transform $-1 1 0 0 0 1 0 0 0 1 42.213202307199317 26.717078037289134 9.2733137587724475 1 rotate no_reflect no_shear #
lump $-1 $-1 $52 $10 #
transform $-1 1 0 0 0 1 0 0 0 1 42.213202307199317 26.717078037289134 9.2733137587724475 1 rotate no_reflect no_shear #
lump $-1 $-1 $53 $11 #
transform $-1 1 0 0 0 1 0 0 0 1 42.213202307199317 26.717078037289134 9.2733137587724475 1 rotate no_reflect no_shear #
lump $-1 $-1 $54 $12 #
transform $-1 1 0 0 0 1 0 0 0 1 42.213202307199317 26.717078037289134 9.2733137587724475 1 rotate no_reflect no_shear #
lump $-1 $-1 $55 $13 #
transform $-1 1 0 0 0 1 0 0 0 1 42.213202307199317 26.717078037289134 9.2733137587724475 1 rotate no_reflect no_shear #
shell $-1 $-1 $-1 $56 $-1 $14 #
shell $-1 $-1 $-1 $57 $-1 $16 #
shell $-1 $-1 $-1 $58 $-1 $18 #
shell $-1 $-1 $-1 $59 $-1 $20 #
shell $-1 $-1 $-1 $60 $-1 $22 #
shell $-1 $-1 $-1 $61 $-1 $24 #
shell $-1 $-1 $-1 $62 $-1 $26 #
shell $-1 $-1 $-1 $63 $-1 $28 #
shell $-1 $-1 $-1 $64 $-1 $30 #
shell $-1 $-1 $-1 $65 $-1 $32 #
shell $-1 $-1 $-1 $66 $-1 $34 #
shell $-1 $-1 $-1 $67 $-1 $36 #
shell $-1 $-1 $-1 $68 $-1 $38 #
shell $-1 $-1 $-1 $69 $-1 $40 #
face $-1 $70 $71 $42 $-1 $72 forward single #
face $-1 $73 $74 $43 $-1 $75 forward single #
face $-1 $76 $77 $44 $-1 $78 reversed single #
face $-1 $79 $80 $45 $-1 $81 forward single #
face $-1 $82 $83 $46 $-1 $84 forward single #
face $-1 $85 $86 $47 $-1 $87 reversed single #
face $-1 $88 $89 $48 $-1 $90 forward single #
face $-1 $91 $92 $49 $-1 $93 forward single #
face $-1 $94 $95 $50 $-1 $96 reversed single #
face $-1 $97 $98 $51 $-1 $99 forward single #
face $-1 $100 $101 $52 $-1 $102 forward single #
face $-1 $103 $104 $53 $-1 $105 reversed single #
face $-1 $106 $107 $54 $-1 $108 forward single #
face $-1 $109 $110 $55 $-1 $111 forward single #
face $-1 $112 $113 $42 $-1 $114 reversed single #
loop $-1 $-1 $115 $56 #
plane-surface $-1 0 0 9.2733137587724475 0 0 1 1 0 0 forward_v I I I I #
face $-1 $116 $117 $43 $-1 $118 reversed single #
loop $-1 $-1 $119 $57 #
plane-surface $-1 -39.119480842948036 0 -5.7354343282962255 0 0 1 1 0 0 forward_v I I I I #
face $-1 $120 $121 $44 $-1 $122 reversed single #
loop $-1 $-1 $123 $58 #
plane-surface $-1 -27.378511973700427 69.998942410601444 95.243223381711388 1 0 0 0 -0.84804810408105047 -0.52991925155115449 forward_v I I I I #
face $-1 $124 $125 $45 $-1 $126 forward single #
loop $-1 $127 $128 $59 #
cone-surface $-1 -24.260656826135371 24.307253294108648 6.5228102429817216 0 -0.84804810408105047 -0.52991925155115449 1 0 0 1 I I 0 1 1 forward I I I I #
face $-1 $129 $130 $46 $-1 $131 forward single #
loop $-1 $132 $133 $60 #
cone-surface $-1 -19.583874104787789 24.307253294108648 6.5228102429817216 0 -0.84804810408105047 -0.52991925155115449 1 0 0 1 I I 0 1 1 forward I I I I #
face $-1 $134 $135 $47 $-1 $136 reversed single #
loop $-1 $-1 $137 $61 #
plane-surface $-1 -10.70118735389185 69.998942410601444 95.243223381711388 1 0 0 0 -0.84804810408105047 -0.52991925155115449 forward_v I I I I #
face $-1 $138 $139 $48 $-1 $140 forward single #
loop $-1 $141 $142 $62 #
cone-surface $-1 -7.5833322063267943 24.307253294108648 6.5228102429817216 0 -0.84804810408105047 -0.52991925155115449 1 0 0 1 I I 0 1 1 forward I I I I #
face $-1 $143 $144 $49 $-1 $145 forward single #
loop $-1 $146 $147 $63 #
cone-surface $-1 -2.9065494849792159 24.307253294108648 6.5228102429817216 0 -0.84804810408105047 -0.52991925155115449 1 0 0 1 I I 0 1 1 forward I I I I #
face $-1 $148 $149 $50 $-1 $150 reversed single #
loop $-1 $-1 $151 $64 #
plane-surface $-1 5.9761372659167309 69.998942410601444 95.243223381711388 1 0 0 0 -0.84804810408105047 -0.52991925155115449 forward_v I I I I #
face $-1 $152 $153 $51 $-1 $154 forward single #
loop $-1 $155 $156 $65 #
cone-surface $-1 9.0939924134817787 24.307253294108648 6.5228102429817216 0 -0.84804810408105047 -0.52991925155115449 1 0 0 1 I I 0 1 1 forward I I I I #
face $-1 $157 $158 $52 $-1 $159 forward single #
loop $-1 $160 $161 $66 #
cone-surface $-1 13.770775134829357 24.307253294108648 6.5228102429817216 0 -0.84804810408105047 -0.52991925155115449 1 0 0 1 I I 0 1 1 forward I I I I #
face $-1 $162 $163 $53 $-1 $164 reversed single #
loop $-1 $-1 $165 $67 #
plane-surface $-1 22.653461885725303 69.998942410601444 95.243223381711388 1 0 0 0 -0.84804810408105047 -0.52991925155115449 forward_v I I I I #
face $-1 $166 $167 $54 $-1 $168 forward single #
loop $-1 $169 $170 $68 #
cone-surface $-1 25.771317033290352 24.307253294108648 6.5228102429817216 0 -0.84804810408105047 -0.52991925155115449 1 0 0 1 I I 0 1 1 forward I I I I #
face $-1 $171 $172 $55 $-1 $173 forward single #
loop $-1 $174 $175 $69 #
cone-surface $-1 30.44809975463793 24.307253294108648 6.5228102429817216 0 -0.84804810408105047 -0.52991925155115449 1 0 0 1 I I 0 1 1 forward I I I I #
face $-1 $176 $177 $42 $-1 $178 reversed single #
loop $-1 $-1 $179 $70 #
plane-surface $-1 0 0 -9.2733137587724475 0 0 1 1 0 0 forward_v I I I I #
coedge $-1 $180 $181 $182 $183 forward $71 $-1 #
face $-1 $184 $185 $43 $-1 $186 reversed single #
loop $-1 $-1 $187 $73 #
plane-surface $-1 -36.025759378696755 0 -7.5043740435343365 -1 0 0 0 0 1 forward_v I I I I #
coedge $-1 $188 $189 $190 $191 forward $74 $-1 #
face $-1 $192 $193 $44 $-1 $194 reversed single #
loop $-1 $-1 $195 $76 #
plane-surface $-1 -21.922265465461582 -1.5987099570189685 50.504046237294325 0 0.84804810408105047 0.52991925155115449 1 0 0 forward_v I I I I #
coedge $-1 $196 $197 $198 $199 reversed $77 $-1 #
face $-1 $-1 $200 $45 $-1 $201 forward single #
loop $-1 $202 $203 $79 #
cone-surface $-1 -24.260656826135371 22.749388383407315 5.5493482382629917 0 -0.84804810408105047 -0.52991925155115449 0.5 0 0 1 I I -0.70710678118654746 0.70710678118654746 0.5 forward I I I I #
loop $-1 $-1 $204 $59 #
coedge $-1 $128 $128 $205 $206 reversed $80 $-1 #
face $-1 $-1 $207 $46 $-1 $208 forward single #
loop $-1 $209 $210 $82 #
cone-surface $-1 -19.583874104787789 22.749388383407315 5.5493482382629917 0 -0.84804810408105047 -0.52991925155115449 0.5 0 0 1 I I -0.70710678118654746 0.70710678118654746 0.5 forward I I I I #
loop $-1 $-1 $211 $60 #
coedge $-1 $133 $133 $212 $213 reversed $83 $-1 #
face $-1 $214 $215 $47 $-1 $216 reversed single #
loop $-1 $-1 $217 $85 #
plane-surface $-1 -5.2449408456530051 -1.5987099570189685 50.504046237294325 0 0.84804810408105047 0.52991925155115449 1 0 0 forward_v I I I I #
coedge $-1 $218 $219 $220 $221 reversed $86 $-1 #
face $-1 $-1 $222 $48 $-1 $223 forward single #
loop $-1 $224 $225 $88 #
cone-surface $-1 -7.5833322063267943 22.749388383407315 5.5493482382629917 0 -0.84804810408105047 -0.52991925155115449 0.5 0 0 1 I I -0.70710678118654746 0.70710678118654746 0.5 forward I I I I #
loop $-1 $-1 $226 $62 #
coedge $-1 $142 $142 $227 $228 reversed $89 $-1 #
face $-1 $-1 $229 $49 $-1 $230 forward single #
loop $-1 $231 $232 $91 #
cone-surface $-1 -2.9065494849792159 22.749388383407315 5.5493482382629917 0 -0.84804810408105047 -0.52991925155115449 0.5 0 0 1 I I -0.70710678118654746 0.70710678118654746 0.5 forward I I I I #
loop $-1 $-1 $233 $63 #
coedge $-1 $147 $147 $234 $235 reversed $92 $-1 #
face $-1 $236 $237 $50 $-1 $238 reversed single #
loop $-1 $-1 $239 $94 #
plane-surface $-1 11.432383774155575 -1.5987099570189685 50.504046237294325 0 0.84804810408105047 0.52991925155115449 1 0 0 forward_v I I I I #
coedge $-1 $240 $241 $242 $243 reversed $95 $-1 #
face $-1 $-1 $244 $51 $-1 $245 forward single #
loop $-1 $246 $247 $97 #
cone-surface $-1 9.0939924134817787 22.749388383407315 5.5493482382629917 0 -0.84804810408105047 -0.52991925155115449 0.5 0 0 1 I I -0.70710678118654746 0.70710678118654746 0.5 forward I I I I #
loop $-1 $-1 $248 $65 #
coedge $-1 $156 $156 $249 $250 reversed $98 $-1 #
face $-1 $-1 $251 $52 $-1 $252 forward single #
loop $-1 $253 $254 $100 #
cone-surface $-1 13.770775134829357 22.749388383407315 5.5493482382629917 0 -0.84804810408105047 -0.52991925155115449 0.5 0 0 1 I I -0.70710678118654746 0.70710678118654746 0.5 forward I I I I #
loop $-1 $-1 $255 $66 #
coedge $-1 $161 $161 $256 $257 reversed $101 $-1 #
face $-1 $258 $259 $53 $-1 $260 reversed single #
loop $-1 $-1 $261 $103 #
plane-surface $-1 28.109708393964148 -1.5987099570189685 50.504046237294325 0 0.84804810408105047 0.52991925155115449 1 0 0 forward_v I I I I #
coedge $-1 $262 $263 $264 $265 reversed $104 $-1 #
face $-1 $-1 $266 $54 $-1 $267 forward single #
loop $-1 $268 $269 $106 #
cone-surface $-1 25.771317033290352 22.749388383407315 5.5493482382629917 0 -0.84804810408105047 -0.52991925155115449 0.5 0 0 1 I I -0.70710678118654746 0.70710678118654746 0.5 forward I I I I #
loop $-1 $-1 $270 $68 #
coedge $-1 $170 $170 $271 $272 reversed $107 $-1 #
face $-1 $-1 $273 $55 $-1 $274 forward single #
loop $-1 $275 $276 $109 #
cone-surface $-1 30.44809975463793 22.749388383407315 5.5493482382629917 0 -0.84804810408105047 -0.52991925155115449 0.5 0 0 1 I I -0.70710678118654746 0.70710678118654746 0.5 forward I I I I #
loop $-1 $-1 $277 $69 #
coedge $-1 $175 $175 $278 $279 reversed $110 $-1 #
face $-1 $280 $281 $42 $-1 $282 reversed single #
loop $-1 $-1 $283 $112 #
plane-surface $-1 0 -26.717078037289134 0 0 1 0 0 0 1 forward_v I I I I #
coedge $-1 $284 $285 $286 $287 forward $113 $-1 #
coedge $-1 $288 $115 $289 $290 forward $71 $-1 #
coedge $-1 $115 $288 $291 $292 forward $71 $-1 #
coedge $-1 $293 $294 $115 $183 reversed $295 $-1 #
edge $-1 $296 -26.717078037289134 $297 26.717078037289134 $182 $298 forward 7 unknown #
face $-1 $299 $300 $43 $-1 $301 reversed single #
loop $-1 $-1 $302 $116 #
plane-surface $-1 0 0 -9.2733137587724475 0 0 1 1 0 0 forward_v I I I I #
coedge $-1 $303 $190 $304 $305 reversed $117 $-1 #
coedge $-1 $306 $119 $307 $308 reversed $74 $-1 #
coedge $-1 $119 $306 $309 $310 reversed $74 $-1 #
coedge $-1 $187 $311 $119 $191 reversed $117 $-1 #
edge $-1 $312 -26.717078037289134 $313 26.717078037289134 $190 $314 forward 7 unknown #
face $-1 $315 $316 $44 $-1 $317 reversed single #
loop $-1 $-1 $318 $120 #
plane-surface $-1 -16.466018957222737 69.998942410601444 95.243223381711388 -1 0 0 0 0.84804810408105047 0.52991925155115449 forward_v I I I I #
coedge $-1 $319 $320 $321 $322 reversed $121 $-1 #
coedge $-1 $197 $123 $323 $324 reversed $77 $-1 #
coedge $-1 $123 $196 $319 $325 reversed $77 $-1 #
coedge $-1 $321 $326 $123 $199 forward $327 $-1 #
edge $-1 $328 8.2823931680115876 $329 10.834360937050935 $198 $330 forward 7 unknown #
loop $-1 $-1 $205 $124 #
plane-surface $-1 -21.922265465461582 -1.5987099570189685 50.504046237294325 0 0.84804810408105047 0.52991925155115449 1 0 0 forward_v I I I I #
loop $-1 $-1 $331 $79 #
coedge $-1 $203 $203 $204 $332 reversed $125 $-1 #
coedge $-1 $204 $204 $203 $332 forward $127 $-1 #
coedge $-1 $205 $205 $128 $206 forward $200 $-1 #
edge $-1 $333 -7.5400540218334812e-016 $333 6.2831853071795996 $205 $334 forward 7 unknown #
loop $-1 $-1 $212 $129 #
plane-surface $-1 -21.922265465461582 -1.5987099570189685 50.504046237294325 0 0.84804810408105047 0.52991925155115449 1 0 0 forward_v I I I I #
loop $-1 $-1 $335 $82 #
coedge $-1 $210 $210 $211 $336 reversed $130 $-1 #
coedge $-1 $211 $211 $210 $336 forward $132 $-1 #
coedge $-1 $212 $212 $133 $213 forward $207 $-1 #
edge $-1 $337 -7.5400540218334812e-016 $337 6.2831853071795996 $212 $338 forward 7 unknown #
face $-1 $339 $340 $47 $-1 $341 forward single #
loop $-1 $-1 $342 $134 #
plane-surface $-1 0.21130566258583894 69.998942410601444 95.243223381711388 -1 0 0 0 0.84804810408105047 0.52991925155115449 forward_v I I I I #
coedge $-1 $343 $344 $345 $346 reversed $135 $-1 #
coedge $-1 $219 $137 $347 $348 reversed $86 $-1 #
coedge $-1 $137 $218 $343 $349 reversed $86 $-1 #
coedge $-1 $345 $350 $137 $221 forward $340 $-1 #
edge $-1 $351 8.2823931680115876 $352 10.834360937050935 $220 $353 forward 7 unknown #
loop $-1 $-1 $227 $138 #
plane-surface $-1 -5.2449408456530051 -1.5987099570189685 50.504046237294325 0 0.84804810408105047 0.52991925155115449 1 0 0 forward_v I I I I #
loop $-1 $-1 $354 $88 #
coedge $-1 $225 $225 $226 $355 reversed $139 $-1 #
coedge $-1 $226 $226 $225 $355 forward $141 $-1 #
coedge $-1 $227 $227 $142 $228 forward $222 $-1 #
edge $-1 $356 -7.5400540218334812e-016 $356 6.2831853071795996 $227 $357 forward 7 unknown #
loop $-1 $-1 $234 $143 #
plane-surface $-1 -5.2449408456530051 -1.5987099570189685 50.504046237294325 0 0.84804810408105047 0.52991925155115449 1 0 0 forward_v I I I I #
loop $-1 $-1 $358 $91 #
coedge $-1 $232 $232 $233 $359 reversed $144 $-1 #
coedge $-1 $233 $233 $232 $359 forward $146 $-1 #
coedge $-1 $234 $234 $147 $235 forward $229 $-1 #
edge $-1 $360 -7.5400540218334812e-016 $360 6.2831853071795996 $234 $361 forward 7 unknown #
face $-1 $362 $363 $50 $-1 $364 forward single #
loop $-1 $-1 $365 $148 #
plane-surface $-1 16.88863028239442 69.998942410601444 95.243223381711388 -1 0 0 0 0.84804810408105047 0.52991925155115449 forward_v I I I I #
coedge $-1 $366 $367 $368 $369 reversed $149 $-1 #
coedge $-1 $241 $151 $370 $371 reversed $95 $-1 #
coedge $-1 $151 $240 $366 $372 reversed $95 $-1 #
coedge $-1 $368 $373 $151 $243 forward $363 $-1 #
edge $-1 $374 8.2823931680115876 $375 10.834360937050935 $242 $376 forward 7 unknown #
loop $-1 $-1 $249 $152 #
plane-surface $-1 11.432383774155575 -1.5987099570189685 50.504046237294325 0 0.84804810408105047 0.52991925155115449 1 0 0 forward_v I I I I #
loop $-1 $-1 $377 $97 #
coedge $-1 $247 $247 $248 $378 reversed $153 $-1 #
coedge $-1 $248 $248 $247 $378 forward $155 $-1 #
coedge $-1 $249 $249 $156 $250 forward $244 $-1 #
edge $-1 $379 -7.5400540218334812e-016 $379 6.2831853071795996 $249 $380 forward 7 unknown #
loop $-1 $-1 $256 $157 #
plane-surface $-1 11.432383774155575 -1.5987099570189685 50.504046237294325 0 0.84804810408105047 0.52991925155115449 1 0 0 forward_v I I I I #
loop $-1 $-1 $381 $100 #
coedge $-1 $254 $254 $255 $382 reversed $158 $-1 #
coedge $-1 $255 $255 $254 $382 forward $160 $-1 #
coedge $-1 $256 $256 $161 $257 forward $251 $-1 #
edge $-1 $383 -7.5400540218334812e-016 $383 6.2831853071795996 $256 $384 forward 7 unknown #
face $-1 $385 $386 $53 $-1 $387 forward single #
loop $-1 $-1 $388 $162 #
plane-surface $-1 33.565954902202989 69.998942410601444 95.243223381711388 -1 0 0 0 0.84804810408105047 0.52991925155115449 forward_v I I I I #
coedge $-1 $389 $390 $391 $392 reversed $163 $-1 #
coedge $-1 $263 $165 $393 $394 reversed $104 $-1 #
coedge $-1 $165 $262 $389 $395 reversed $104 $-1 #
coedge $-1 $391 $396 $165 $265 forward $386 $-1 #
edge $-1 $397 8.2823931680115876 $398 10.834360937050935 $264 $399 forward 7 unknown #
loop $-1 $-1 $271 $166 #
plane-surface $-1 28.109708393964148 -1.5987099570189685 50.504046237294325 0 0.84804810408105047 0.52991925155115449 1 0 0 forward_v I I I I #
loop $-1 $-1 $400 $106 #
coedge $-1 $269 $269 $270 $401 reversed $167 $-1 #
coedge $-1 $270 $270 $269 $401 forward $169 $-1 #
coedge $-1 $271 $271 $170 $272 forward $266 $-1 #
edge $-1 $402 -7.5400540218334812e-016 $402 6.2831853071795996 $271 $403 forward 7 unknown #
loop $-1 $-1 $278 $171 #
plane-surface $-1 28.109708393964148 -1.5987099570189685 50.504046237294325 0 0.84804810408105047 0.52991925155115449 1 0 0 forward_v I I I I #
loop $-1 $-1 $404 $109 #
coedge $-1 $276 $276 $277 $405 reversed $172 $-1 #
coedge $-1 $277 $277 $276 $405 forward $174 $-1 #
coedge $-1 $278 $278 $175 $279 forward $273 $-1 #
edge $-1 $406 -7.5400540218334812e-016 $406 6.2831853071795996 $278 $407 forward 7 unknown #
face $-1 $408 $409 $42 $-1 $410 reversed single #
loop $-1 $-1 $411 $176 #
plane-surface $-1 -42.213202307199317 0 0 1 0 0 0 0 -1 forward_v I I I I #
coedge $-1 $412 $291 $413 $414 forward $177 $-1 #
coedge $-1 $415 $179 $412 $416 forward $113 $-1 #
coedge $-1 $179 $415 $417 $418 forward $113 $-1 #
coedge $-1 $294 $293 $179 $287 reversed $295 $-1 #
edge $-1 $419 -26.717078037289134 $420 26.717078037289134 $286 $421 forward 7 unknown #
coedge $-1 $181 $180 $422 $423 forward $71 $-1 #
coedge $-1 $424 $425 $180 $290 reversed $409 $-1 #
edge $-1 $297 -42.213202307199317 $426 42.213202307199317 $289 $427 forward 7 unknown #
coedge $-1 $283 $428 $181 $292 reversed $177 $-1 #
edge $-1 $429 -42.213202307199317 $296 42.213202307199317 $291 $430 forward 7 unknown #
coedge $-1 $286 $182 $428 $431 forward $295 $-1 #
coedge $-1 $182 $286 $424 $432 reversed $295 $-1 #
loop $-1 $-1 $293 $408 #
vertex $-1 $183 $433 #
vertex $-1 $183 $434 #
straight-curve $-1 42.213202307199317 0 9.2733137587724475 0 1 0 I I #
face $-1 $435 $436 $43 $-1 $437 reversed single #
loop $-1 $-1 $304 $184 #
plane-surface $-1 0 -26.717078037289134 0 0 1 0 0 0 1 forward_v I I I I #
coedge $-1 $438 $439 $303 $440 forward $185 $-1 #
coedge $-1 $311 $187 $302 $440 reversed $117 $-1 #
coedge $-1 $309 $441 $187 $305 forward $300 $-1 #
edge $-1 $442 -5.5211267370052788 $312 -1.9832473065290572 $304 $443 forward 7 unknown #
coedge $-1 $189 $188 $444 $445 reversed $74 $-1 #
coedge $-1 $446 $447 $188 $308 forward $448 $-1 #
edge $-1 $449 -22.653461885725299 $313 -16.466018957222737 $307 $450 forward 7 unknown #
coedge $-1 $451 $304 $189 $310 forward $300 $-1 #
edge $-1 $312 16.466018957222737 $452 22.653461885725299 $309 $453 forward 7 unknown #
coedge $-1 $190 $303 $446 $454 reversed $117 $-1 #
vertex $-1 $310 $455 #
vertex $-1 $308 $456 #
straight-curve $-1 -36.025759378696755 0 -5.7354343282962255 0 1 0 I I #
face $-1 $-1 $327 $44 $-1 $457 forward single #
loop $-1 $-1 $458 $192 #
plane-surface $-1 0 26.717078037289134 0 0 -1 0 0 0 -1 forward_v I I I I #
coedge $-1 $459 $460 $461 $462 reversed $193 $-1 #
coedge $-1 $463 $195 $197 $325 forward $121 $-1 #
coedge $-1 $195 $463 $459 $464 forward $121 $-1 #
coedge $-1 $461 $198 $195 $322 forward $327 $-1 #
edge $-1 $329 -16.417379240969638 $465 -5.5048862244919459 $321 $466 forward 7 unknown #
coedge $-1 $467 $468 $196 $324 forward $316 $-1 #
edge $-1 $469 -42.432300205778432 $328 -38.348297932083248 $323 $470 forward 7 unknown #
edge $-1 $329 48.618388839156381 $469 53.434156074578283 $197 $471 forward 7 unknown #
coedge $-1 $198 $461 $467 $472 forward $327 $-1 #
loop $-1 $-1 $461 $315 #
vertex $-1 $324 $473 #
vertex $-1 $199 $474 #
straight-curve $-1 -27.378511973700427 34.999471205300722 9.2733137587724457 0 -1 0 I I #
coedge $-1 $331 $331 $-1 $475 reversed $202 $-1 #
edge $-1 $476 0 $476 6.2831853071796004 $203 $477 forward 7 unknown #
vertex $-1 $206 $478 #
ellipse-curve $-1 -24.260656826135371 25.441094152769452 7.2313126219248698 0 0.84804810408105047 0.52991925155115449 1 0 0 1 I I #
coedge $-1 $335 $335 $-1 $479 reversed $209 $-1 #
edge $-1 $480 0 $480 6.2831853071796004 $210 $481 forward 7 unknown #
vertex $-1 $213 $482 #
ellipse-curve $-1 -19.583874104787789 25.441094152769452 7.2313126219248698 0 0.84804810408105047 0.52991925155115449 1 0 0 1 I I #
face $-1 $-1 $483 $47 $-1 $484 reversed single #
loop $-1 $-1 $220 $214 #
plane-surface $-1 0 0 9.2733137587724475 0 0 1 1 0 0 forward_v I I I I #
coedge $-1 $485 $486 $487 $488 reversed $215 $-1 #
coedge $-1 $489 $217 $219 $349 forward $135 $-1 #
coedge $-1 $217 $489 $485 $490 forward $135 $-1 #
coedge $-1 $487 $220 $217 $346 forward $340 $-1 #
edge $-1 $352 -8.0787169310653475 $491 2.8337760854123415 $345 $492 forward 7 unknown #
coedge $-1 $493 $494 $218 $348 forward $483 $-1 #
edge $-1 $495 -42.432300205778432 $351 -38.348297932083248 $347 $496 forward 7 unknown #
edge $-1 $352 48.618388839156381 $495 53.434156074578283 $219 $497 forward 7 unknown #
coedge $-1 $220 $487 $493 $498 forward $340 $-1 #
vertex $-1 $221 $499 #
vertex $-1 $221 $500 #
straight-curve $-1 -10.70118735389185 34.999471205300722 9.2733137587724457 0 -1 0 I I #
coedge $-1 $354 $354 $-1 $501 reversed $224 $-1 #
edge $-1 $502 0 $502 6.2831853071796004 $225 $503 forward 7 unknown #
vertex $-1 $228 $504 #
ellipse-curve $-1 -7.5833322063267943 25.441094152769452 7.2313126219248698 0 0.84804810408105047 0.52991925155115449 1 0 0 1 I I #
coedge $-1 $358 $358 $-1 $505 reversed $231 $-1 #
edge $-1 $506 0 $506 6.2831853071796004 $232 $507 forward 7 unknown #
vertex $-1 $235 $508 #
ellipse-curve $-1 -2.9065494849792159 25.441094152769452 7.2313126219248698 0 0.84804810408105047 0.52991925155115449 1 0 0 1 I I #
face $-1 $-1 $509 $50 $-1 $510 reversed single #
loop $-1 $-1 $242 $236 #
plane-surface $-1 0 0 9.2733137587724475 0 0 1 1 0 0 forward_v I I I I #
coedge $-1 $511 $512 $513 $514 reversed $237 $-1 #
coedge $-1 $515 $239 $241 $372 forward $149 $-1 #
coedge $-1 $239 $515 $511 $516 forward $149 $-1 #
coedge $-1 $513 $242 $239 $369 forward $363 $-1 #
edge $-1 $375 0.25994537883894342 $517 11.172438395316632 $368 $518 forward 7 unknown #
coedge $-1 $519 $520 $240 $371 forward $509 $-1 #
edge $-1 $521 -42.432300205778432 $374 -38.348297932083248 $370 $522 forward 7 unknown #
edge $-1 $375 48.618388839156381 $521 53.434156074578283 $241 $523 forward 7 unknown #
coedge $-1 $242 $513 $519 $524 forward $363 $-1 #
vertex $-1 $243 $525 #
vertex $-1 $243 $526 #
straight-curve $-1 5.9761372659167309 34.999471205300722 9.2733137587724457 0 -1 0 I I #
coedge $-1 $377 $377 $-1 $527 reversed $246 $-1 #
edge $-1 $528 0 $528 6.2831853071796004 $247 $529 forward 7 unknown #
vertex $-1 $250 $530 #
ellipse-curve $-1 9.0939924134817787 25.441094152769452 7.2313126219248698 0 0.84804810408105047 0.52991925155115449 1 0 0 1 I I #
coedge $-1 $381 $381 $-1 $531 reversed $253 $-1 #
edge $-1 $532 0 $532 6.2831853071796004 $254 $533 forward 7 unknown #
vertex $-1 $257 $534 #
ellipse-curve $-1 13.770775134829357 25.441094152769452 7.2313126219248698 0 0.84804810408105047 0.52991925155115449 1 0 0 1 I I #
face $-1 $-1 $535 $53 $-1 $536 reversed single #
loop $-1 $-1 $264 $258 #
plane-surface $-1 0 0 9.2733137587724475 0 0 1 1 0 0 forward_v I I I I #
coedge $-1 $537 $538 $539 $540 reversed $259 $-1 #
coedge $-1 $541 $261 $263 $395 forward $163 $-1 #
coedge $-1 $261 $541 $537 $542 forward $163 $-1 #
coedge $-1 $539 $264 $261 $392 forward $386 $-1 #
edge $-1 $398 8.598607688743229 $543 19.511100705220915 $391 $544 forward 7 unknown #
coedge $-1 $545 $546 $262 $394 forward $535 $-1 #
edge $-1 $547 -42.432300205778432 $397 -38.348297932083248 $393 $548 forward 7 unknown #
edge $-1 $398 48.618388839156381 $547 53.434156074578283 $263 $549 forward 7 unknown #
coedge $-1 $264 $539 $545 $550 forward $386 $-1 #
vertex $-1 $265 $551 #
vertex $-1 $265 $552 #
straight-curve $-1 22.653461885725303 34.999471205300722 9.2733137587724457 0 -1 0 I I #
coedge $-1 $400 $400 $-1 $553 reversed $268 $-1 #
edge $-1 $554 0 $554 6.2831853071796004 $269 $555 forward 7 unknown #
vertex $-1 $272 $556 #
ellipse-curve $-1 25.771317033290352 25.441094152769452 7.2313126219248698 0 0.84804810408105047 0.52991925155115449 1 0 0 1 I I #
coedge $-1 $404 $404 $-1 $557 reversed $275 $-1 #
edge $-1 $558 0 $558 6.2831853071796004 $276 $559 forward 7 unknown #
vertex $-1 $279 $560 #
ellipse-curve $-1 30.44809975463793 25.441094152769452 7.2313126219248698 0 0.84804810408105047 0.52991925155115449 1 0 0 1 I I #
face $-1 $-1 $295 $42 $-1 $561 reversed single #
loop $-1 $-1 $424 $280 #
plane-surface $-1 0 26.717078037289134 0 0 -1 0 0 0 -1 forward_v I I I I #
coedge $-1 $562 $422 $425 $563 forward $281 $-1 #
coedge $-1 $428 $283 $284 $416 reversed $177 $-1 #
coedge $-1 $422 $562 $283 $414 reversed $281 $-1 #
edge $-1 $429 -9.2733137587724475 $564 9.2733137587724475 $413 $565 forward 7 unknown #
coedge $-1 $285 $284 $562 $566 forward $113 $-1 #
edge $-1 $420 -42.213202307199317 $564 42.213202307199317 $412 $567 forward 7 unknown #
coedge $-1 $425 $424 $285 $418 reversed $409 $-1 #
edge $-1 $568 -42.213202307199317 $419 42.213202307199317 $417 $569 forward 7 unknown #
vertex $-1 $287 $570 #
vertex $-1 $431 $571 #
straight-curve $-1 42.213202307199317 0 -9.2733137587724475 0 -1 0 I I #
coedge $-1 $411 $413 $288 $423 reversed $281 $-1 #
edge $-1 $426 -26.717078037289134 $429 26.717078037289134 $422 $572 forward 7 unknown #
coedge $-1 $417 $289 $294 $432 forward $409 $-1 #
coedge $-1 $289 $417 $411 $563 reversed $409 $-1 #
vertex $-1 $290 $573 #
straight-curve $-1 0 26.717078037289134 9.2733137587724475 -1 0 0 I I #
coedge $-1 $291 $412 $293 $431 reversed $177 $-1 #
vertex $-1 $423 $574 #
straight-curve $-1 0 -26.717078037289134 9.2733137587724475 1 0 0 I I #
edge $-1 $296 -9.2733137587724475 $420 9.2733137587724475 $293 $575 forward 7 unknown #
edge $-1 $297 -9.2733137587724475 $419 9.2733137587724475 $294 $576 forward 7 unknown #
point $-1 42.213202307199317 -26.717078037289134 9.2733137587724475 #
point $-1 42.213202307199317 26.717078037289134 9.2733137587724475 #
face $-1 $-1 $448 $43 $-1 $577 reversed single #
loop $-1 $-1 $444 $299 #
plane-surface $-1 -42.213202307199317 0 0 1 0 0 0 0 -1 forward_v I I I I #
coedge $-1 $578 $302 $441 $579 forward $185 $-1 #
coedge $-1 $302 $578 $580 $581 forward $185 $-1 #
edge $-1 $582 -26.717078037289134 $442 26.717078037289134 $302 $583 forward 7 unknown #
coedge $-1 $304 $451 $438 $579 reversed $300 $-1 #
vertex $-1 $579 $584 #
straight-curve $-1 -36.025759378696755 -26.717078037289134 -3.7521870217671682 0 0 1 I I #
coedge $-1 $585 $586 $306 $445 forward $436 $-1 #
edge $-1 $452 -26.717078037289134 $449 26.717078037289134 $444 $587 forward 7 unknown #
coedge $-1 $580 $307 $311 $454 forward $448 $-1 #
coedge $-1 $307 $580 $585 $588 reversed $448 $-1 #
loop $-1 $-1 $446 $435 #
vertex $-1 $588 $589 #
straight-curve $-1 -19.559740421474018 26.717078037289134 -5.7354343282962255 1 0 0 I I #
coedge $-1 $441 $309 $586 $590 forward $300 $-1 #
vertex $-1 $590 $591 #
straight-curve $-1 -19.559740421474018 -26.717078037289134 -5.7354343282962255 -1 0 0 I I #
edge $-1 $313 1.9832473065290572 $582 5.5211267370052788 $446 $592 forward 7 unknown #
point $-1 -36.025759378696755 -26.717078037289134 -5.7354343282962255 #
point $-1 -36.025759378696755 26.717078037289134 -5.7354343282962255 #
plane-surface $-1 0 0 9.2733137587724475 0 0 1 1 0 0 forward_v I I I I #
coedge $-1 $468 $467 $460 $593 forward $316 $-1 #
coedge $-1 $460 $318 $320 $464 reversed $193 $-1 #
coedge $-1 $318 $459 $458 $593 reversed $193 $-1 #
coedge $-1 $326 $321 $318 $462 forward $327 $-1 #
edge $-1 $465 -10.834360937050935 $594 -8.2823931680115876 $461 $595 forward 7 unknown #
coedge $-1 $320 $319 $468 $596 reversed $121 $-1 #
edge $-1 $597 -53.434156074578283 $465 -48.618388839156381 $459 $598 forward 7 unknown #
vertex $-1 $322 $599 #
straight-curve $-1 -10.961132732730791 24.165110268249791 9.2733137587724492 1 0 0 I I #
coedge $-1 $458 $323 $326 $472 reversed $316 $-1 #
coedge $-1 $323 $458 $463 $596 forward $316 $-1 #
vertex $-1 $324 $600 #
straight-curve $-1 -27.378511973700427 26.717078037289134 47.621611690855694 0 0 1 I I #
straight-curve $-1 -27.378511973700427 -1.5987099570189685 50.504046237294325 0 0.52991925155115449 -0.84804810408105047 I I #
edge $-1 $594 16.466018957222737 $328 27.378511973700427 $467 $601 forward 7 unknown #
point $-1 -27.378511973700427 26.717078037289134 9.2733137587724475 #
point $-1 -27.378511973700427 24.165110268249787 9.2733137587724457 #
edge $-1 $602 1 $602 0 $331 $-1 forward 7 unknown #
vertex $-1 $332 $603 #
ellipse-curve $-1 -24.260656826135371 23.17341243544784 5.814307864038569 0 0.84804810408105047 0.52991925155115449 1 0 0 1 I I #
point $-1 -23.260656826135371 25.441094152769459 7.2313126219248751 #
edge $-1 $604 1 $604 0 $335 $-1 forward 7 unknown #
vertex $-1 $336 $605 #
ellipse-curve $-1 -19.583874104787789 23.17341243544784 5.814307864038569 0 0.84804810408105047 0.52991925155115449 1 0 0 1 I I #
point $-1 -18.583874104787789 25.441094152769459 7.2313126219248751 #
loop $-1 $-1 $347 $339 #
plane-surface $-1 0 26.717078037289134 0 0 -1 0 0 0 -1 forward_v I I I I #
coedge $-1 $486 $342 $344 $490 reversed $215 $-1 #
coedge $-1 $342 $485 $606 $607 reversed $215 $-1 #
coedge $-1 $350 $345 $342 $488 forward $340 $-1 #
edge $-1 $491 -10.834360937050935 $608 -8.2823931680115876 $487 $609 forward 7 unknown #
coedge $-1 $344 $343 $494 $610 reversed $135 $-1 #
edge $-1 $611 -53.434156074578283 $491 -48.618388839156381 $485 $612 forward 7 unknown #
vertex $-1 $346 $613 #
straight-curve $-1 -2.6224704228265026 24.165110268249791 9.2733137587724492 1 0 0 I I #
coedge $-1 $606 $347 $350 $498 reversed $483 $-1 #
coedge $-1 $347 $606 $489 $610 forward $483 $-1 #
vertex $-1 $348 $614 #
straight-curve $-1 -10.70118735389185 26.717078037289134 47.621611690855694 0 0 1 I I #
straight-curve $-1 -10.70118735389185 -1.5987099570189685 50.504046237294325 0 0.52991925155115449 -0.84804810408105047 I I #
edge $-1 $608 -0.21130566258583894 $351 10.70118735389185 $493 $615 forward 7 unknown #
point $-1 -10.70118735389185 26.717078037289134 9.2733137587724475 #
point $-1 -10.70118735389185 24.165110268249787 9.2733137587724457 #
edge $-1 $616 1 $616 0 $354 $-1 forward 7 unknown #
vertex $-1 $355 $617 #
ellipse-curve $-1 -7.5833322063267943 23.17341243544784 5.814307864038569 0 0.84804810408105047 0.52991925155115449 1 0 0 1 I I #
point $-1 -6.5833322063267943 25.441094152769459 7.2313126219248751 #
edge $-1 $618 1 $618 0 $358 $-1 forward 7 unknown #
vertex $-1 $359 $619 #
ellipse-curve $-1 -2.9065494849792159 23.17341243544784 5.814307864038569 0 0.84804810408105047 0.52991925155115449 1 0 0 1 I I #
point $-1 -1.9065494849792159 25.441094152769459 7.2313126219248751 #
loop $-1 $-1 $370 $362 #
plane-surface $-1 0 26.717078037289134 0 0 -1 0 0 0 -1 forward_v I I I I #
coedge $-1 $512 $365 $367 $516 reversed $237 $-1 #
coedge $-1 $365 $511 $620 $621 reversed $237 $-1 #
coedge $-1 $373 $368 $365 $514 forward $363 $-1 #
edge $-1 $517 -10.834360937050935 $622 -8.2823931680115876 $513 $623 forward 7 unknown #
coedge $-1 $367 $366 $520 $624 reversed $149 $-1 #
edge $-1 $625 -53.434156074578283 $517 -48.618388839156381 $511 $626 forward 7 unknown #
vertex $-1 $369 $627 #
straight-curve $-1 5.7161918870777875 24.165110268249791 9.2733137587724492 1 0 0 I I #
coedge $-1 $620 $370 $373 $524 reversed $509 $-1 #
coedge $-1 $370 $620 $515 $624 forward $509 $-1 #
vertex $-1 $371 $628 #
straight-curve $-1 5.9761372659167309 26.717078037289134 47.621611690855694 0 0 1 I I #
straight-curve $-1 5.9761372659167309 -1.5987099570189685 50.504046237294325 0 0.52991925155115449 -0.84804810408105047 I I #
edge $-1 $622 -16.88863028239442 $374 -5.9761372659167309 $519 $629 forward 7 unknown #
point $-1 5.9761372659167309 26.717078037289134 9.2733137587724475 #
point $-1 5.9761372659167309 24.165110268249787 9.2733137587724457 #
edge $-1 $630 1 $630 0 $377 $-1 forward 7 unknown #
vertex $-1 $378 $631 #
ellipse-curve $-1 9.0939924134817787 23.17341243544784 5.814307864038569 0 0.84804810408105047 0.52991925155115449 1 0 0 1 I I #
point $-1 10.093992413481779 25.441094152769459 7.2313126219248751 #
edge $-1 $632 1 $632 0 $381 $-1 forward 7 unknown #
vertex $-1 $382 $633 #
ellipse-curve $-1 13.770775134829357 23.17341243544784 5.814307864038569 0 0.84804810408105047 0.52991925155115449 1 0 0 1 I I #
point $-1 14.770775134829357 25.441094152769459 7.2313126219248751 #
loop $-1 $-1 $393 $385 #
plane-surface $-1 0 26.717078037289134 0 0 -1 0 0 0 -1 forward_v I I I I #
coedge $-1 $538 $388 $390 $542 reversed $259 $-1 #
coedge $-1 $388 $537 $634 $635 reversed $259 $-1 #
coedge $-1 $396 $391 $388 $540 forward $386 $-1 #
edge $-1 $543 -10.834360937050935 $636 -8.2823931680115876 $539 $637 forward 7 unknown #
coedge $-1 $390 $389 $546 $638 reversed $163 $-1 #
edge $-1 $639 -53.434156074578283 $543 -48.618388839156381 $537 $640 forward 7 unknown #
vertex $-1 $392 $641 #
straight-curve $-1 14.054854196982074 24.165110268249791 9.2733137587724492 1 0 0 I I #
coedge $-1 $634 $393 $396 $550 reversed $535 $-1 #
coedge $-1 $393 $634 $541 $638 forward $535 $-1 #
vertex $-1 $394 $642 #
straight-curve $-1 22.653461885725303 26.717078037289134 47.621611690855694 0 0 1 I I #
straight-curve $-1 22.653461885725303 -1.5987099570189685 50.504046237294325 0 0.52991925155115449 -0.84804810408105047 I I #
edge $-1 $636 -33.565954902202989 $397 -22.653461885725303 $545 $643 forward 7 unknown #
point $-1 22.653461885725303 26.717078037289134 9.2733137587724475 #
point $-1 22.653461885725303 24.165110268249787 9.2733137587724457 #
edge $-1 $644 1 $644 0 $400 $-1 forward 7 unknown #
vertex $-1 $401 $645 #
ellipse-curve $-1 25.771317033290352 23.17341243544784 5.814307864038569 0 0.84804810408105047 0.52991925155115449 1 0 0 1 I I #
point $-1 26.771317033290352 25.441094152769459 7.2313126219248751 #
edge $-1 $646 1 $646 0 $404 $-1 forward 7 unknown #
vertex $-1 $405 $647 #
ellipse-curve $-1 30.44809975463793 23.17341243544784 5.814307864038569 0 0.84804810408105047 0.52991925155115449 1 0 0 1 I I #
point $-1 31.44809975463793 25.441094152769459 7.2313126219248751 #
plane-surface $-1 42.213202307199317 0 0 -1 0 0 0 0 1 forward_v I I I I #
coedge $-1 $413 $411 $415 $566 reversed $281 $-1 #
edge $-1 $426 -9.2733137587724475 $568 9.2733137587724475 $425 $648 forward 7 unknown #
vertex $-1 $566 $649 #
straight-curve $-1 -42.213202307199317 -26.717078037289134 0 0 0 -1 I I #
edge $-1 $564 -26.717078037289134 $568 26.717078037289134 $562 $650 forward 7 unknown #
straight-curve $-1 0 -26.717078037289134 -9.2733137587724475 -1 0 0 I I #
vertex $-1 $418 $651 #
straight-curve $-1 0 26.717078037289134 -9.2733137587724475 1 0 0 I I #
point $-1 42.213202307199317 26.717078037289134 -9.2733137587724475 #
point $-1 42.213202307199317 -26.717078037289134 -9.2733137587724475 #
straight-curve $-1 -42.213202307199317 0 9.2733137587724475 0 -1 0 I I #
point $-1 -42.213202307199317 26.717078037289134 9.2733137587724475 #
point $-1 -42.213202307199317 -26.717078037289134 9.2733137587724475 #
straight-curve $-1 42.213202307199317 -26.717078037289134 0 0 0 -1 I I #
straight-curve $-1 42.213202307199317 26.717078037289134 0 0 0 -1 I I #
plane-surface $-1 0 26.717078037289134 0 0 -1 0 0 0 -1 forward_v I I I I #
coedge $-1 $439 $438 $652 $653 forward $185 $-1 #
edge $-1 $442 36.025759378696755 $654 42.213202307199317 $441 $655 forward 7 unknown #
coedge $-1 $447 $446 $439 $581 reversed $448 $-1 #
edge $-1 $656 -42.213202307199317 $582 -36.025759378696755 $580 $657 forward 7 unknown #
vertex $-1 $454 $658 #
straight-curve $-1 -36.025759378696755 0 -9.2733137587724475 0 -1 0 I I #
point $-1 -36.025759378696755 -26.717078037289134 -9.2733137587724475 #
coedge $-1 $652 $444 $447 $588 forward $436 $-1 #
coedge $-1 $444 $652 $451 $590 reversed $436 $-1 #
straight-curve $-1 -42.213202307199317 0 -5.7354343282962255 0 1 0 I I #
edge $-1 $449 5.7354343282962255 $656 9.2733137587724475 $447 $659 forward 7 unknown #
point $-1 -42.213202307199317 26.717078037289134 -5.7354343282962255 #
edge $-1 $452 5.7354343282962255 $654 9.2733137587724475 $586 $660 forward 7 unknown #
point $-1 -42.213202307199317 -26.717078037289134 -5.7354343282962255 #
straight-curve $-1 -36.025759378696755 26.717078037289134 -3.7521870217671682 0 0 -1 I I #
edge $-1 $594 38.348297932083248 $597 42.432300205778432 $458 $661 forward 7 unknown #
vertex $-1 $472 $662 #
straight-curve $-1 -16.466018957222737 34.999471205300722 9.2733137587724457 0 1 0 I I #
edge $-1 $597 5.5048862244919459 $469 16.417379240969638 $468 $663 forward 7 unknown #
vertex $-1 $596 $664 #
straight-curve $-1 -16.466018957222737 -1.5987099570189685 50.504046237294325 0 -0.52991925155115449 0.84804810408105047 I I #
point $-1 -16.466018957222737 24.165110268249787 9.2733137587724457 #
point $-1 -27.378511973700427 26.717078037289134 5.1893114850772619 #
straight-curve $-1 0 26.717078037289134 9.2733137587724475 -1 0 0 I I #
vertex $-1 $475 $665 #
point $-1 -23.260656826135371 23.17341243544784 5.814307864038569 #
vertex $-1 $479 $666 #
point $-1 -18.583874104787789 23.17341243544784 5.814307864038569 #
coedge $-1 $494 $493 $486 $607 forward $483 $-1 #
edge $-1 $608 38.348297932083248 $611 42.432300205778432 $606 $667 forward 7 unknown #
vertex $-1 $498 $668 #
straight-curve $-1 0.21130566258583894 34.999471205300722 9.2733137587724457 0 1 0 I I #
edge $-1 $611 -2.8337760854123415 $495 8.0787169310653475 $494 $669 forward 7 unknown #
vertex $-1 $610 $670 #
straight-curve $-1 0.21130566258583894 -1.5987099570189685 50.504046237294325 0 -0.52991925155115449 0.84804810408105047 I I #
point $-1 0.21130566258583894 24.165110268249787 9.2733137587724457 #
point $-1 -10.70118735389185 26.717078037289134 5.1893114850772619 #
straight-curve $-1 0 26.717078037289134 9.2733137587724475 -1 0 0 I I #
vertex $-1 $501 $671 #
point $-1 -6.5833322063267943 23.17341243544784 5.814307864038569 #
vertex $-1 $505 $672 #
point $-1 -1.9065494849792159 23.17341243544784 5.814307864038569 #
coedge $-1 $520 $519 $512 $621 forward $509 $-1 #
edge $-1 $622 38.348297932083248 $625 42.432300205778432 $620 $673 forward 7 unknown #
vertex $-1 $524 $674 #
straight-curve $-1 16.88863028239442 34.999471205300722 9.2733137587724457 0 1 0 I I #
edge $-1 $625 -11.172438395316632 $521 -0.25994537883894342 $520 $675 forward 7 unknown #
vertex $-1 $624 $676 #
straight-curve $-1 16.88863028239442 -1.5987099570189685 50.504046237294325 0 -0.52991925155115449 0.84804810408105047 I I #
point $-1 16.88863028239442 24.165110268249787 9.2733137587724457 #
point $-1 5.9761372659167309 26.717078037289134 5.1893114850772619 #
straight-curve $-1 0 26.717078037289134 9.2733137587724475 -1 0 0 I I #
vertex $-1 $527 $677 #
point $-1 10.093992413481779 23.17341243544784 5.814307864038569 #
vertex $-1 $531 $678 #
point $-1 14.770775134829357 23.17341243544784 5.814307864038569 #
coedge $-1 $546 $545 $538 $635 forward $535 $-1 #
edge $-1 $636 38.348297932083248 $639 42.432300205778432 $634 $679 forward 7 unknown #
vertex $-1 $550 $680 #
straight-curve $-1 33.565954902202989 34.999471205300722 9.2733137587724457 0 1 0 I I #
edge $-1 $639 -19.511100705220915 $547 -8.598607688743229 $546 $681 forward 7 unknown #
vertex $-1 $638 $682 #
straight-curve $-1 33.565954902202989 -1.5987099570189685 50.504046237294325 0 -0.52991925155115449 0.84804810408105047 I I #
point $-1 33.565954902202989 24.165110268249787 9.2733137587724457 #
point $-1 22.653461885725303 26.717078037289134 5.1893114850772619 #
straight-curve $-1 0 26.717078037289134 9.2733137587724475 -1 0 0 I I #
vertex $-1 $553 $683 #
point $-1 26.771317033290352 23.17341243544784 5.814307864038569 #
vertex $-1 $557 $684 #
point $-1 31.44809975463793 23.17341243544784 5.814307864038569 #
straight-curve $-1 -42.213202307199317 26.717078037289134 0 0 0 -1 I I #
point $-1 -42.213202307199317 -26.717078037289134 -9.2733137587724475 #
straight-curve $-1 -42.213202307199317 0 -9.2733137587724475 0 1 0 I I #
point $-1 -42.213202307199317 26.717078037289134 -9.2733137587724475 #
coedge $-1 $586 $585 $578 $653 reversed $436 $-1 #
edge $-1 $654 -26.717078037289134 $656 26.717078037289134 $652 $685 forward 7 unknown #
vertex $-1 $653 $686 #
straight-curve $-1 0 -26.717078037289134 -9.2733137587724475 -1 0 0 I I #
vertex $-1 $581 $687 #
straight-curve $-1 0 26.717078037289134 -9.2733137587724475 1 0 0 I I #
point $-1 -36.025759378696755 26.717078037289134 -9.2733137587724475 #
straight-curve $-1 -42.213202307199317 26.717078037289134 0 0 0 -1 I I #
straight-curve $-1 -42.213202307199317 -26.717078037289134 0 0 0 -1 I I #
straight-curve $-1 -16.466018957222737 26.717078037289134 47.621611690855694 0 0 -1 I I #
point $-1 -16.466018957222737 26.717078037289134 9.2733137587724475 #
straight-curve $-1 -10.961132732730791 26.717078037289134 5.1893114850772619 -1 0 0 I I #
point $-1 -16.466018957222737 26.717078037289134 5.1893114850772619 #
point $-1 -24.260656826135371 22.325364331366789 5.2843886124874144 #
point $-1 -19.583874104787789 22.325364331366789 5.2843886124874144 #
straight-curve $-1 0.21130566258583894 26.717078037289134 47.621611690855694 0 0 -1 I I #
point $-1 0.21130566258583894 26.717078037289134 9.2733137587724475 #
straight-curve $-1 -2.6224704228265026 26.717078037289134 5.1893114850772619 -1 0 0 I I #
point $-1 0.21130566258583894 26.717078037289134 5.1893114850772619 #
point $-1 -7.5833322063267943 22.325364331366789 5.2843886124874144 #
point $-1 -2.9065494849792159 22.325364331366789 5.2843886124874144 #
straight-curve $-1 16.88863028239442 26.717078037289134 47.621611690855694 0 0 -1 I I #
point $-1 16.88863028239442 26.717078037289134 9.2733137587724475 #
straight-curve $-1 5.7161918870777875 26.717078037289134 5.1893114850772619 -1 0 0 I I #
point $-1 16.88863028239442 26.717078037289134 5.1893114850772619 #
point $-1 9.0939924134817787 22.325364331366789 5.2843886124874144 #
point $-1 13.770775134829357 22.325364331366789 5.2843886124874144 #
straight-curve $-1 33.565954902202989 26.717078037289134 47.621611690855694 0 0 -1 I I #
point $-1 33.565954902202989 26.717078037289134 9.2733137587724475 #
straight-curve $-1 14.054854196982074 26.717078037289134 5.1893114850772619 -1 0 0 I I #
point $-1 33.565954902202989 26.717078037289134 5.1893114850772619 #
point $-1 25.771317033290352 22.325364331366789 5.2843886124874144 #
point $-1 30.44809975463793 22.325364331366789 5.2843886124874144 #
straight-curve $-1 -42.213202307199317 0 -9.2733137587724475 0 1 0 I I #
point $-1 -42.213202307199317 -26.717078037289134 -9.2733137587724475 #
point $-1 -42.213202307199317 26.717078037289134 -9.2733137587724475 #
End-of-ACIS-data 