500 0 7 0           
7 Unknown 11 ACIS 5.0 NT 24 Fri Mar 26 17:29:39 1999 
-1 9.9999999999999995e-007 1e-010 
body $-1 $7 $-1 $8 #
body $-1 $9 $-1 $10 #
body $-1 $11 $-1 $12 #
body $-1 $13 $-1 $14 #
body $-1 $15 $-1 $16 #
body $-1 $17 $-1 $18 #
body $-1 $19 $-1 $20 #
lump $-1 $-1 $21 $0 #
transform $-1 1 0 0 0 1 0 0 0 1 76.386608478041936 38.493097257920354 18.737293657149866 1 rotate no_reflect no_shear #
lump $-1 $-1 $22 $1 #
transform $-1 1 0 0 0 1 0 0 0 1 76.386608478041936 38.493097257920354 18.737293657149866 1 rotate no_reflect no_shear #
lump $-1 $-1 $23 $2 #
transform $-1 1 0 0 0 1 0 0 0 1 76.386608478041936 38.493097257920354 18.737293657149866 1 rotate no_reflect no_shear #
lump $-1 $-1 $24 $3 #
transform $-1 1 0 0 0 1 0 0 0 1 76.386608478041936 38.493097257920354 18.737293657149866 1 rotate no_reflect no_shear #
lump $-1 $-1 $25 $4 #
transform $-1 1 0 0 0 1 0 0 0 1 76.386608478041936 38.493097257920354 18.737293657149866 1 rotate no_reflect no_shear #
lump $-1 $-1 $26 $5 #
transform $-1 1 0 0 0 1 0 0 0 1 76.386608478041936 38.493097257920354 18.737293657149866 1 rotate no_reflect no_shear #
lump $-1 $-1 $27 $6 #
transform $-1 1 0 0 0 1 0 0 0 1 76.386608478041936 38.493097257920354 18.737293657149866 1 rotate no_reflect no_shear #
shell $-1 $-1 $-1 $28 $-1 $7 #
shell $-1 $-1 $-1 $29 $-1 $9 #
shell $-1 $-1 $-1 $30 $-1 $11 #
shell $-1 $-1 $-1 $31 $-1 $13 #
shell $-1 $-1 $-1 $32 $-1 $15 #
shell $-1 $-1 $-1 $33 $-1 $17 #
shell $-1 $-1 $-1 $34 $-1 $19 #
face $-1 $35 $36 $21 $-1 $37 forward single #
face $-1 $38 $39 $22 $-1 $40 forward single #
face $-1 $41 $42 $23 $-1 $43 reversed single #
face $-1 $44 $45 $24 $-1 $46 forward single #
face $-1 $47 $48 $25 $-1 $49 reversed single #
face $-1 $50 $51 $26 $-1 $52 forward single #
face $-1 $53 $54 $27 $-1 $55 forward single #
face $-1 $56 $57 $21 $-1 $58 reversed single #
loop $-1 $-1 $59 $28 #
plane-surface $-1 0 0 18.737293657149866 0 0 1 1 0 0 forward_v I I I I #
face $-1 $60 $61 $22 $-1 $62 reversed single #
loop $-1 $-1 $63 $29 #
plane-surface $-1 0 -38.493097257920354 0 0 1 0 0 0 1 forward_v I I I I #
face $-1 $64 $65 $23 $-1 $66 reversed single #
loop $-1 $-1 $67 $30 #
plane-surface $-1 -210.00507591581709 7.6754672157864121 77.43219692267833 0 1 0 -0.87461971476443456 0 0.48480960649040278 forward_v I I I I #
face $-1 $68 $69 $24 $-1 $70 forward single #
loop $-1 $71 $72 $31 #
cone-surface $-1 -68.707671273439914 15.279326580318127 9.1567177291204445 0.87461971476443456 0 -0.48480960649040278 1.212024016226007 0 2.1865492869110863 1 I I 0 1 2.5 forward I I I I #
face $-1 $73 $74 $25 $-1 $75 reversed single #
loop $-1 $-1 $76 $32 #
plane-surface $-1 132.30549013032129 17.482598273484484 224.16331374689938 0 -1 0 -0.86602541151947299 0 -0.49999998660252726 forward_v I I I I #
face $-1 $77 $78 $26 $-1 $79 forward single #
loop $-1 $80 $81 $33 #
cone-surface $-1 75.008924460285925 10.387252515449148 16.85319593314091 -0.86602541151947299 0 -0.49999998660252726 0.24999999330126363 0 -0.43301270575973649 1 I I 0 1 0.5 forward I I I I #
face $-1 $82 $83 $27 $-1 $84 forward single #
loop $-1 $85 $86 $34 #
cone-surface $-1 75.008924460285925 14.644459970270354 16.85319593314091 -0.86602541151947299 0 -0.49999998660252726 0.24999999330126363 0 -0.43301270575973649 1 I I 0 1 0.5 forward I I I I #
face $-1 $87 $88 $21 $-1 $89 reversed single #
loop $-1 $-1 $90 $35 #
plane-surface $-1 0 0 -18.737293657149866 0 0 1 1 0 0 forward_v I I I I #
coedge $-1 $91 $92 $93 $94 forward $36 $-1 #
face $-1 $95 $96 $22 $-1 $97 forward single #
loop $-1 $-1 $98 $38 #
plane-surface $-1 -76.386608478041936 0 0 1 0 0 0 0 -1 forward_v I I I I #
coedge $-1 $99 $100 $101 $102 forward $39 $-1 #
face $-1 $103 $104 $23 $-1 $105 reversed single #
loop $-1 $-1 $106 $41 #
plane-surface $-1 -76.386608478041921 15.279326580318127 3.3662737279263837 -0.87461971476443456 0 0.48480960649040278 0.48480960649040278 0 0.87461971476443456 forward_v I I I I #
coedge $-1 $107 $108 $109 $110 reversed $42 $-1 #
face $-1 $-1 $111 $24 $-1 $112 forward single #
loop $-1 $113 $114 $44 #
cone-surface $-1 -64.195607005779664 15.279326580318127 6.6556397575897641 0.87461971476443456 0 -0.48480960649040278 0.60601200811300349 0 1.0932746434555431 1 I I -0.70710678118654746 0.70710678118654746 1.25 forward I I I I #
loop $-1 $-1 $115 $31 #
coedge $-1 $72 $72 $116 $117 reversed $45 $-1 #
face $-1 $118 $119 $25 $-1 $120 reversed single #
loop $-1 $-1 $121 $47 #
plane-surface $-1 2.0467750232455728e-006 12.515856242859748 147.77670731563245 0.86602541151947299 0 0.49999998660252726 0.49999998660252726 0 -0.86602541151947299 forward_v I I I I #
coedge $-1 $122 $123 $124 $125 reversed $48 $-1 #
face $-1 $-1 $126 $26 $-1 $127 forward single #
loop $-1 $128 $129 $50 #
cone-surface $-1 74.357568530217733 10.387252515449148 16.477135425013142 -0.86602541151947299 0 -0.49999998660252726 0.12499999665063181 0 -0.21650635287986825 1 I I -0.70710678118654746 0.70710678118654746 0.25 forward I I I I #
loop $-1 $-1 $130 $33 #
coedge $-1 $81 $81 $131 $132 reversed $51 $-1 #
face $-1 $-1 $133 $27 $-1 $134 forward single #
loop $-1 $135 $136 $53 #
cone-surface $-1 74.357568530217733 14.644459970270354 16.477135425013142 -0.86602541151947299 0 -0.49999998660252726 0.12499999665063181 0 -0.21650635287986825 1 I I -0.70710678118654746 0.70710678118654746 0.25 forward I I I I #
loop $-1 $-1 $137 $34 #
coedge $-1 $86 $86 $138 $139 reversed $54 $-1 #
face $-1 $140 $141 $21 $-1 $142 reversed single #
loop $-1 $-1 $143 $56 #
plane-surface $-1 0 -38.493097257920354 0 0 1 0 0 0 1 forward_v I I I I #
coedge $-1 $144 $145 $146 $147 forward $57 $-1 #
coedge $-1 $148 $59 $149 $150 forward $36 $-1 #
coedge $-1 $59 $148 $151 $152 forward $36 $-1 #
coedge $-1 $153 $154 $59 $94 reversed $155 $-1 #
edge $-1 $156 -38.493097257920354 $157 38.493097257920354 $93 $158 forward 7 unknown #
face $-1 $159 $160 $22 $-1 $161 reversed single #
loop $-1 $-1 $162 $60 #
plane-surface $-1 0 -50.718559499437632 16.803195755676754 0 0 1 1 0 0 forward_v I I I I #
coedge $-1 $163 $164 $100 $165 forward $61 $-1 #
coedge $-1 $166 $63 $167 $168 reversed $39 $-1 #
coedge $-1 $63 $166 $98 $165 reversed $39 $-1 #
coedge $-1 $169 $162 $63 $102 reversed $96 $-1 #
edge $-1 $170 -76.386608478041936 $171 76.386608478041936 $101 $172 forward 7 unknown #
face $-1 $173 $174 $23 $-1 $175 forward single #
loop $-1 $-1 $176 $64 #
plane-surface $-1 -210.00507591581709 22.883185944849842 77.43219692267833 0 -1 0 0.87461971476443456 0 -0.48480960649040278 forward_v I I I I #
coedge $-1 $177 $178 $179 $180 reversed $65 $-1 #
coedge $-1 $108 $67 $181 $182 reversed $42 $-1 #
coedge $-1 $67 $107 $177 $183 reversed $42 $-1 #
coedge $-1 $179 $184 $67 $110 forward $174 $-1 #
edge $-1 $185 28.615929479866608 $186 37.13622464066124 $109 $187 forward 7 unknown #
loop $-1 $-1 $116 $68 #
plane-surface $-1 -76.386608478041921 15.279326580318127 3.3662737279263837 -0.87461971476443456 0 0.48480960649040278 0.48480960649040278 0 0.87461971476443456 forward_v I I I I #
loop $-1 $-1 $188 $44 #
coedge $-1 $114 $114 $115 $189 reversed $69 $-1 #
coedge $-1 $115 $115 $114 $189 forward $71 $-1 #
coedge $-1 $116 $116 $72 $117 forward $111 $-1 #
edge $-1 $190 0 $190 6.2831853071796004 $116 $191 forward 7 unknown #
face $-1 $192 $193 $25 $-1 $194 reversed single #
loop $-1 $-1 $195 $73 #
plane-surface $-1 132.30549013032129 7.5491142122350112 224.16331374689938 0 1 0 0.86602541151947299 0 0.49999998660252726 forward_v I I I I #
coedge $-1 $196 $197 $198 $199 reversed $74 $-1 #
coedge $-1 $123 $76 $200 $201 reversed $48 $-1 #
coedge $-1 $76 $122 $196 $202 reversed $48 $-1 #
coedge $-1 $198 $203 $76 $125 forward $204 $-1 #
edge $-1 $205 -10.233863412881291 $206 -8.3481945317459605 $124 $207 forward 7 unknown #
loop $-1 $-1 $131 $77 #
plane-surface $-1 2.0467750232455728e-006 12.515856242859748 147.77670731563245 0.86602541151947299 0 0.49999998660252726 0.49999998660252726 0 -0.86602541151947299 forward_v I I I I #
loop $-1 $-1 $208 $50 #
coedge $-1 $129 $129 $130 $209 reversed $78 $-1 #
coedge $-1 $130 $130 $129 $209 forward $80 $-1 #
coedge $-1 $131 $131 $81 $132 forward $126 $-1 #
edge $-1 $210 0 $210 6.2831853071796004 $131 $211 forward 7 unknown #
loop $-1 $-1 $138 $82 #
plane-surface $-1 2.0467750232455728e-006 12.515856242859748 147.77670731563245 0.86602541151947299 0 0.49999998660252726 0.49999998660252726 0 -0.86602541151947299 forward_v I I I I #
loop $-1 $-1 $212 $53 #
coedge $-1 $136 $136 $137 $213 reversed $83 $-1 #
coedge $-1 $137 $137 $136 $213 forward $85 $-1 #
coedge $-1 $138 $138 $86 $139 forward $133 $-1 #
edge $-1 $214 0 $214 6.2831853071796004 $138 $215 forward 7 unknown #
face $-1 $216 $217 $21 $-1 $218 reversed single #
loop $-1 $-1 $219 $87 #
plane-surface $-1 -76.386608478041936 0 0 1 0 0 0 0 -1 forward_v I I I I #
coedge $-1 $220 $151 $221 $222 forward $88 $-1 #
coedge $-1 $223 $90 $220 $224 forward $57 $-1 #
coedge $-1 $90 $223 $225 $226 forward $57 $-1 #
coedge $-1 $154 $153 $90 $147 reversed $155 $-1 #
edge $-1 $227 -38.493097257920354 $228 38.493097257920354 $146 $229 forward 7 unknown #
coedge $-1 $92 $91 $230 $231 forward $36 $-1 #
coedge $-1 $232 $233 $91 $150 reversed $217 $-1 #
edge $-1 $157 -76.386608478041936 $234 76.386608478041936 $149 $235 forward 7 unknown #
coedge $-1 $143 $236 $92 $152 reversed $88 $-1 #
edge $-1 $237 -76.386608478041936 $156 76.386608478041936 $151 $238 forward 7 unknown #
coedge $-1 $146 $93 $236 $239 forward $155 $-1 #
coedge $-1 $93 $146 $232 $240 reversed $155 $-1 #
loop $-1 $-1 $153 $216 #
vertex $-1 $94 $241 #
vertex $-1 $94 $242 #
straight-curve $-1 76.386608478041936 0 18.737293657149866 0 1 0 I I #
face $-1 $243 $244 $22 $-1 $245 reversed single #
loop $-1 $-1 $246 $95 #
plane-surface $-1 0 -50.718559499437632 5.7017195265078922 0 0 1 1 0 0 forward_v I I I I #
coedge $-1 $101 $247 $248 $249 forward $96 $-1 #
coedge $-1 $250 $98 $251 $252 reversed $61 $-1 #
coedge $-1 $98 $250 $169 $253 reversed $61 $-1 #
edge $-1 $170 -16.803195755676754 $254 -5.7017195265078922 $98 $255 forward 7 unknown #
coedge $-1 $100 $99 $256 $257 forward $39 $-1 #
coedge $-1 $248 $258 $99 $168 forward $259 $-1 #
edge $-1 $260 5.7017195265078922 $171 16.803195755676754 $167 $261 forward 7 unknown #
coedge $-1 $247 $101 $164 $253 forward $96 $-1 #
vertex $-1 $165 $262 #
vertex $-1 $249 $263 #
straight-curve $-1 0 -38.493097257920354 16.803195755676754 1 0 0 I I #
face $-1 $-1 $264 $23 $-1 $265 reversed single #
loop $-1 $-1 $109 $103 #
plane-surface $-1 0 0 18.737293657149866 0 0 1 1 0 0 forward_v I I I I #
coedge $-1 $266 $267 $268 $269 reversed $104 $-1 #
coedge $-1 $270 $106 $108 $183 forward $65 $-1 #
coedge $-1 $106 $270 $266 $271 forward $65 $-1 #
coedge $-1 $268 $109 $106 $180 forward $174 $-1 #
edge $-1 $186 0.035803925627348576 $272 15.243522654690778 $179 $273 forward 7 unknown #
coedge $-1 $274 $275 $107 $182 forward $264 $-1 #
edge $-1 $276 -35.34982473341281 $185 -19.978804804189298 $181 $277 forward 7 unknown #
edge $-1 $186 -17.574518010222803 $276 2.9417291209212814e-014 $108 $278 forward 7 unknown #
coedge $-1 $109 $268 $274 $279 forward $174 $-1 #
vertex $-1 $182 $280 #
vertex $-1 $110 $281 #
straight-curve $-1 -105.00253795790854 7.6754672157864121 18.737293657149866 1 0 0 I I #
coedge $-1 $188 $188 $-1 $282 reversed $113 $-1 #
edge $-1 $283 0 $283 6.2831853071796004 $114 $284 forward 7 unknown #
vertex $-1 $117 $285 #
ellipse-curve $-1 -72.12646089764462 15.279326580318127 11.05178369253812 -0.87461971476443456 0 0.48480960649040278 1.212024016226007 0 2.1865492869110863 1 I I #
face $-1 $-1 $204 $25 $-1 $286 forward single #
loop $-1 $-1 $287 $118 #
plane-surface $-1 76.386608478041936 0 0 -1 0 0 0 0 1 forward_v I I I I #
coedge $-1 $288 $289 $290 $291 reversed $119 $-1 #
coedge $-1 $292 $121 $123 $202 forward $74 $-1 #
coedge $-1 $121 $292 $288 $293 forward $74 $-1 #
coedge $-1 $290 $124 $121 $199 forward $204 $-1 #
edge $-1 $206 -11.22467015205461 $294 -1.2911860908051374 $198 $295 forward 7 unknown #
coedge $-1 $296 $297 $122 $201 forward $193 $-1 #
edge $-1 $298 -96.610437641363475 $205 -93.344363216299826 $200 $299 forward 7 unknown #
edge $-1 $206 149.00187909276039 $298 152.77321695608384 $123 $300 forward 7 unknown #
coedge $-1 $124 $290 $296 $301 forward $204 $-1 #
loop $-1 $-1 $290 $192 #
vertex $-1 $201 $302 #
vertex $-1 $125 $303 #
straight-curve $-1 66.152745065160644 17.482598273484484 18.737293657149863 -1 0 0 I I #
coedge $-1 $208 $208 $-1 $304 reversed $128 $-1 #
edge $-1 $305 0 $305 6.2831853071796004 $129 $306 forward 7 unknown #
vertex $-1 $132 $307 #
ellipse-curve $-1 75.44377403747427 10.387252515449148 17.104256444618056 0.86602541151947299 0 0.49999998660252726 0.24999999330126363 0 -0.43301270575973649 1 I I #
coedge $-1 $212 $212 $-1 $308 reversed $135 $-1 #
edge $-1 $309 0 $309 6.2831853071796004 $136 $310 forward 7 unknown #
vertex $-1 $139 $311 #
ellipse-curve $-1 75.44377403747427 14.644459970270354 17.104256444618056 0.86602541151947299 0 0.49999998660252726 0.24999999330126363 0 -0.43301270575973649 1 I I #
face $-1 $-1 $155 $21 $-1 $312 reversed single #
loop $-1 $-1 $232 $140 #
plane-surface $-1 0 38.493097257920354 0 0 -1 0 0 0 -1 forward_v I I I I #
coedge $-1 $313 $230 $233 $314 forward $141 $-1 #
coedge $-1 $236 $143 $144 $224 reversed $88 $-1 #
coedge $-1 $230 $313 $143 $222 reversed $141 $-1 #
edge $-1 $237 -18.737293657149866 $315 18.737293657149866 $221 $316 forward 7 unknown #
coedge $-1 $145 $144 $313 $317 forward $57 $-1 #
edge $-1 $228 -76.386608478041936 $315 76.386608478041936 $220 $318 forward 7 unknown #
coedge $-1 $233 $232 $145 $226 reversed $217 $-1 #
edge $-1 $319 -76.386608478041936 $227 76.386608478041936 $225 $320 forward 7 unknown #
vertex $-1 $147 $321 #
vertex $-1 $239 $322 #
straight-curve $-1 76.386608478041936 0 -18.737293657149866 0 -1 0 I I #
coedge $-1 $219 $221 $148 $231 reversed $141 $-1 #
edge $-1 $234 -38.493097257920354 $237 38.493097257920354 $230 $323 forward 7 unknown #
coedge $-1 $225 $149 $154 $240 forward $217 $-1 #
coedge $-1 $149 $225 $219 $314 reversed $217 $-1 #
vertex $-1 $150 $324 #
straight-curve $-1 0 38.493097257920354 18.737293657149866 -1 0 0 I I #
coedge $-1 $151 $220 $153 $239 reversed $88 $-1 #
vertex $-1 $231 $325 #
straight-curve $-1 0 -38.493097257920354 18.737293657149866 1 0 0 I I #
edge $-1 $156 -18.737293657149866 $228 18.737293657149866 $153 $326 forward 7 unknown #
edge $-1 $157 -18.737293657149866 $227 18.737293657149866 $154 $327 forward 7 unknown #
point $-1 76.386608478041936 -38.493097257920354 18.737293657149866 #
point $-1 76.386608478041936 38.493097257920354 18.737293657149866 #
face $-1 $-1 $259 $22 $-1 $328 reversed single #
loop $-1 $-1 $329 $159 #
plane-surface $-1 0 -62.944021740954909 11.252457641092324 0 1 0 0 0 1 forward_v I I I I #
coedge $-1 $330 $256 $258 $331 forward $160 $-1 #
coedge $-1 $162 $169 $332 $333 forward $96 $-1 #
coedge $-1 $334 $167 $162 $249 reversed $259 $-1 #
edge $-1 $335 -12.225462241517278 $171 12.225462241517278 $248 $336 forward 7 unknown #
coedge $-1 $164 $163 $329 $337 reversed $61 $-1 #
coedge $-1 $256 $330 $163 $252 forward $160 $-1 #
edge $-1 $338 -12.225462241517278 $254 12.225462241517278 $163 $339 forward 7 unknown #
edge $-1 $170 -12.225462241517278 $340 12.225462241517278 $164 $341 forward 7 unknown #
vertex $-1 $165 $342 #
straight-curve $-1 -76.386608478041936 -38.493097257920354 0 0 0 -1 I I #
coedge $-1 $246 $251 $166 $257 reversed $160 $-1 #
edge $-1 $260 -76.386608478041936 $254 76.386608478041936 $256 $343 forward 7 unknown #
coedge $-1 $167 $334 $246 $331 reversed $259 $-1 #
loop $-1 $-1 $167 $243 #
vertex $-1 $168 $344 #
straight-curve $-1 76.386608478041936 -38.493097257920354 0 0 0 1 I I #
point $-1 -76.386608478041936 -38.493097257920354 16.803195755676754 #
point $-1 76.386608478041936 -38.493097257920354 16.803195755676754 #
loop $-1 $-1 $181 $173 #
plane-surface $-1 -76.386608478041936 0 0 1 0 0 0 0 -1 forward_v I I I I #
coedge $-1 $267 $176 $178 $271 reversed $104 $-1 #
coedge $-1 $176 $266 $345 $346 reversed $104 $-1 #
coedge $-1 $184 $179 $176 $269 forward $174 $-1 #
edge $-1 $272 -37.13622464066124 $347 -28.615929479866608 $268 $348 forward 7 unknown #
coedge $-1 $178 $177 $275 $349 reversed $65 $-1 #
edge $-1 $350 -2.9417291209212814e-014 $272 17.574518010222803 $266 $351 forward 7 unknown #
vertex $-1 $180 $352 #
straight-curve $-1 -67.866313317247318 7.6396632901590635 18.737293657149866 0 1 0 I I #
coedge $-1 $345 $181 $184 $279 reversed $264 $-1 #
coedge $-1 $181 $345 $270 $349 forward $264 $-1 #
vertex $-1 $182 $353 #
straight-curve $-1 -76.386608478041936 7.6754672157864121 38.716098461339165 0 0 1 I I #
straight-curve $-1 -76.386608478041921 7.6754672157864121 3.3662737279263837 -0.48480960649040278 0 -0.87461971476443456 I I #
edge $-1 $347 -22.883185944849842 $185 -7.6754672157864121 $274 $354 forward 7 unknown #
point $-1 -76.386608478041936 7.6754672157864121 18.737293657149866 #
point $-1 -67.866313317247304 7.6754672157864121 18.737293657149866 #
edge $-1 $355 1 $355 0 $188 $-1 forward 7 unknown #
vertex $-1 $189 $356 #
ellipse-curve $-1 -65.288881649235208 15.279326580318127 7.2616517657027675 -0.87461971476443456 0 0.48480960649040278 1.212024016226007 0 2.1865492869110863 1 I I #
point $-1 -70.914436881418624 15.279326580318127 13.238332979449208 #
plane-surface $-1 0 0 18.737293657149866 0 0 1 1 0 0 forward_v I I I I #
coedge $-1 $297 $296 $289 $357 forward $193 $-1 #
coedge $-1 $289 $195 $197 $293 reversed $119 $-1 #
coedge $-1 $195 $288 $287 $357 reversed $119 $-1 #
coedge $-1 $203 $198 $195 $291 forward $204 $-1 #
edge $-1 $294 8.3481945317459605 $358 10.233863412881291 $290 $359 forward 7 unknown #
coedge $-1 $197 $196 $297 $360 reversed $74 $-1 #
edge $-1 $361 -152.77321695608384 $294 -149.00187909276039 $288 $362 forward 7 unknown #
vertex $-1 $199 $363 #
straight-curve $-1 74.500939596906605 6.2579281214298739 18.737293657149877 0 -1 0 I I #
coedge $-1 $287 $200 $203 $301 reversed $193 $-1 #
coedge $-1 $200 $287 $292 $360 forward $193 $-1 #
vertex $-1 $201 $364 #
straight-curve $-1 76.386608478041936 17.482598273484484 112.08165687344969 0 0 1 I I #
straight-curve $-1 2.0467750232455728e-006 17.482598273484484 147.77670731563245 0.49999998660252726 0 -0.86602541151947299 I I #
edge $-1 $358 7.5491142122350112 $205 17.482598273484484 $296 $365 forward 7 unknown #
point $-1 76.386608478041936 17.482598273484484 18.737293657149866 #
point $-1 74.500939596906605 17.482598273484484 18.737293657149877 #
edge $-1 $366 1 $366 0 $208 $-1 forward 7 unknown #
vertex $-1 $209 $367 #
ellipse-curve $-1 74.574074883097595 10.387252515449148 16.602135421663775 0.86602541151947299 0 0.49999998660252726 0.24999999330126363 0 -0.43301270575973649 1 I I #
point $-1 75.693774030775515 10.387252515449148 16.671243738858312 #
edge $-1 $368 1 $368 0 $212 $-1 forward 7 unknown #
vertex $-1 $213 $369 #
ellipse-curve $-1 74.574074883097595 14.644459970270354 16.602135421663775 0.86602541151947299 0 0.49999998660252726 0.24999999330126363 0 -0.43301270575973649 1 I I #
point $-1 75.693774030775515 14.644459970270354 16.671243738858312 #
plane-surface $-1 76.386608478041936 0 0 -1 0 0 0 0 1 forward_v I I I I #
coedge $-1 $221 $219 $223 $317 reversed $141 $-1 #
edge $-1 $234 -18.737293657149866 $319 18.737293657149866 $233 $370 forward 7 unknown #
vertex $-1 $317 $371 #
straight-curve $-1 -76.386608478041936 -38.493097257920354 0 0 0 -1 I I #
edge $-1 $315 -38.493097257920354 $319 38.493097257920354 $313 $372 forward 7 unknown #
straight-curve $-1 0 -38.493097257920354 -18.737293657149866 -1 0 0 I I #
vertex $-1 $226 $373 #
straight-curve $-1 0 38.493097257920354 -18.737293657149866 1 0 0 I I #
point $-1 76.386608478041936 38.493097257920354 -18.737293657149866 #
point $-1 76.386608478041936 -38.493097257920354 -18.737293657149866 #
straight-curve $-1 -76.386608478041936 0 18.737293657149866 0 -1 0 I I #
point $-1 -76.386608478041936 38.493097257920354 18.737293657149866 #
point $-1 -76.386608478041936 -38.493097257920354 18.737293657149866 #
straight-curve $-1 76.386608478041936 -38.493097257920354 0 0 0 -1 I I #
straight-curve $-1 76.386608478041936 38.493097257920354 0 0 0 -1 I I #
plane-surface $-1 76.386608478041936 0 0 -1 0 0 0 0 1 forward_v I I I I #
coedge $-1 $374 $332 $250 $337 forward $244 $-1 #
coedge $-1 $251 $246 $374 $375 forward $160 $-1 #
edge $-1 $260 -12.225462241517278 $376 12.225462241517278 $258 $377 forward 7 unknown #
coedge $-1 $329 $378 $247 $333 reversed $244 $-1 #
edge $-1 $340 -76.386608478041936 $335 76.386608478041936 $332 $379 forward 7 unknown #
coedge $-1 $258 $248 $378 $380 forward $259 $-1 #
vertex $-1 $249 $381 #
straight-curve $-1 76.386608478041936 -50.718559499437632 16.803195755676754 0 1 0 I I #
edge $-1 $340 -5.5507381145844299 $338 5.5507381145844317 $250 $382 forward 7 unknown #
vertex $-1 $252 $383 #
straight-curve $-1 -76.386608478041936 -50.718559499437632 5.7017195265078922 0 1 0 I I #
vertex $-1 $253 $384 #
straight-curve $-1 -76.386608478041936 -50.718559499437632 16.803195755676754 0 -1 0 I I #
point $-1 -76.386608478041936 -38.493097257920354 5.7017195265078922 #
straight-curve $-1 0 -38.493097257920354 5.7017195265078922 -1 0 0 I I #
point $-1 76.386608478041936 -38.493097257920354 5.7017195265078922 #
coedge $-1 $275 $274 $267 $346 forward $264 $-1 #
edge $-1 $347 19.978804804189298 $350 35.34982473341281 $345 $385 forward 7 unknown #
vertex $-1 $279 $386 #
straight-curve $-1 -105.00253795790854 22.883185944849842 18.737293657149866 -1 0 0 I I #
edge $-1 $350 -15.243522654690778 $276 -0.035803925627348576 $275 $387 forward 7 unknown #
vertex $-1 $349 $388 #
straight-curve $-1 -76.386608478041921 22.883185944849842 3.3662737279263837 0.48480960649040278 0 0.87461971476443456 I I #
point $-1 -67.866313317247304 22.883185944849842 18.737293657149866 #
point $-1 -76.386608478041936 7.6754672157864121 3.3662737279263579 #
straight-curve $-1 -76.386608478041936 0 18.737293657149866 0 -1 0 I I #
vertex $-1 $282 $389 #
point $-1 -64.076857633009197 15.279326580318127 9.4482010526138538 #
edge $-1 $358 93.344363216299826 $361 96.610437641363475 $287 $390 forward 7 unknown #
vertex $-1 $301 $391 #
straight-curve $-1 66.152745065160644 7.5491142122350112 18.737293657149863 1 0 0 I I #
edge $-1 $361 1.2911860908051374 $298 11.22467015205461 $297 $392 forward 7 unknown #
vertex $-1 $360 $393 #
straight-curve $-1 2.0467750232455728e-006 7.5491142122350112 147.77670731563245 -0.49999998660252726 0 0.86602541151947299 I I #
point $-1 74.500939596906605 7.5491142122350112 18.737293657149877 #
point $-1 76.386608478041936 17.482598273484484 15.471219232086213 #
straight-curve $-1 76.386608478041936 0 18.737293657149866 0 1 0 I I #
vertex $-1 $304 $394 #
point $-1 74.824074876398868 10.387252515449148 16.169122715904038 #
vertex $-1 $308 $395 #
point $-1 74.824074876398868 14.644459970270354 16.169122715904038 #
straight-curve $-1 -76.386608478041936 38.493097257920354 0 0 0 -1 I I #
point $-1 -76.386608478041936 -38.493097257920354 -18.737293657149866 #
straight-curve $-1 -76.386608478041936 0 -18.737293657149866 0 1 0 I I #
point $-1 -76.386608478041936 38.493097257920354 -18.737293657149866 #
coedge $-1 $378 $329 $330 $375 reversed $244 $-1 #
edge $-1 $376 -76.386608478041936 $338 76.386608478041936 $374 $396 forward 7 unknown #
vertex $-1 $380 $397 #
straight-curve $-1 76.386608478041936 -50.718559499437632 5.7017195265078922 0 -1 0 I I #
coedge $-1 $332 $374 $334 $380 reversed $244 $-1 #
straight-curve $-1 0 -62.944021740954909 16.803195755676754 1 0 0 I I #
edge $-1 $335 -5.5507381145844299 $376 5.5507381145844317 $334 $398 forward 7 unknown #
point $-1 76.386608478041936 -62.944021740954909 16.803195755676754 #
straight-curve $-1 -76.386608478041936 -62.944021740954909 11.252457641092324 0 0 -1 I I #
point $-1 -76.386608478041936 -62.944021740954909 5.7017195265078922 #
point $-1 -76.386608478041936 -62.944021740954909 16.803195755676754 #
straight-curve $-1 -76.386608478041936 22.883185944849842 38.716098461339165 0 0 -1 I I #
point $-1 -76.386608478041936 22.883185944849842 18.737293657149866 #
straight-curve $-1 -76.386608478041936 7.6396632901590635 3.3662737279263411 0 -1 0 I I #
point $-1 -76.386608478041936 22.883185944849842 3.3662737279263579 #
point $-1 -63.10233236232412 15.279326580318127 6.0496277494767607 #
straight-curve $-1 76.386608478041936 7.5491142122350112 112.08165687344969 0 0 -1 I I #
point $-1 76.386608478041936 7.5491142122350112 18.737293657149866 #
straight-curve $-1 76.386608478041936 6.2579281214298739 15.471219232086206 0 1 0 I I #
point $-1 76.386608478041936 7.5491142122350112 15.471219232086213 #
point $-1 74.141062177337872 10.387252515449148 16.352135428362509 #
point $-1 74.141062177337872 14.644459970270354 16.352135428362509 #
straight-curve $-1 0 -62.944021740954909 5.7017195265078922 -1 0 0 I I #
point $-1 76.386608478041936 -62.944021740954909 5.7017195265078922 #
straight-curve $-1 76.386608478041936 -62.944021740954909 11.252457641092324 0 0 -1 I I #
End-of-ACIS-data 