500 0 6 0           
7 Unknown 11 ACIS 5.0 NT 24 Fri Mar 26 20:05:17 1999 
-1 9.9999999999999995e-007 1e-010 
body $-1 $6 $-1 $7 #
body $-1 $8 $-1 $9 #
body $-1 $10 $-1 $11 #
body $-1 $12 $-1 $13 #
body $-1 $14 $-1 $15 #
body $-1 $16 $-1 $17 #
lump $-1 $-1 $18 $0 #
transform $-1 1 0 0 0 1 0 0 0 1 77.311929685354158 50.402225127279486 14.670589988446549 1 rotate no_reflect no_shear #
lump $-1 $-1 $19 $1 #
transform $-1 1 0 0 0 1 0 0 0 1 77.311929685354158 50.402225127279486 14.670589988446549 1 rotate no_reflect no_shear #
lump $-1 $-1 $20 $2 #
transform $-1 1 0 0 0 1 0 0 0 1 77.311929685354158 50.402225127279486 14.670589988446549 1 rotate no_reflect no_shear #
lump $-1 $-1 $21 $3 #
transform $-1 1 0 0 0 1 0 0 0 1 77.311929685354158 50.402225127279486 14.670589988446549 1 rotate no_reflect no_shear #
lump $-1 $-1 $22 $4 #
transform $-1 1 0 0 0 1 0 0 0 1 77.311929685354158 50.402225127279486 14.670589988446549 1 rotate no_reflect no_shear #
lump $-1 $-1 $23 $5 #
transform $-1 1 0 0 0 1 0 0 0 1 77.311929685354158 50.402225127279486 14.670589988446549 1 rotate no_reflect no_shear #
shell $-1 $-1 $-1 $24 $-1 $6 #
shell $-1 $-1 $-1 $25 $-1 $8 #
shell $-1 $-1 $-1 $26 $-1 $10 #
shell $-1 $-1 $-1 $27 $-1 $12 #
shell $-1 $-1 $-1 $28 $-1 $14 #
shell $-1 $-1 $-1 $29 $-1 $16 #
face $-1 $30 $31 $18 $-1 $32 forward single #
face $-1 $33 $34 $19 $-1 $35 forward single #
face $-1 $36 $37 $20 $-1 $38 reversed single #
face $-1 $39 $40 $21 $-1 $41 forward single #
face $-1 $42 $43 $22 $-1 $44 forward single #
face $-1 $45 $46 $23 $-1 $47 forward single #
face $-1 $48 $49 $18 $-1 $50 reversed single #
loop $-1 $-1 $51 $24 #
plane-surface $-1 0 0 14.670589988446549 0 0 1 1 0 0 forward_v I I I I #
face $-1 $52 $53 $19 $-1 $54 forward single #
loop $-1 $-1 $55 $25 #
plane-surface $-1 0 -50.402225127279486 0 0 1 0 0 0 1 forward_v I I I I #
face $-1 $56 $57 $20 $-1 $58 reversed single #
loop $-1 $-1 $59 $26 #
plane-surface $-1 -19.096944249861803 43.633122943609173 186.05905059768878 1 0 0 0 -0.51503808176128008 -0.85716729658548041 forward_v I I I I #
face $-1 $60 $61 $21 $-1 $62 forward single #
loop $-1 $63 $64 $27 #
cone-surface $-1 -11.529072054446303 36.999404996407719 3.9287597943845425 0 -0.51503808176128008 -0.85716729658548041 3 0 0 1 I I 0 1 3 forward I I I I #
face $-1 $65 $66 $22 $-1 $67 forward single #
loop $-1 $68 $69 $28 #
cone-surface $-1 -0.17726376132304722 36.999404996407719 3.9287597943845425 0 -0.51503808176128008 -0.85716729658548041 3 0 0 1 I I 0 1 3 forward I I I I #
face $-1 $70 $71 $23 $-1 $72 forward single #
loop $-1 $73 $74 $29 #
cone-surface $-1 11.174544531800208 36.999404996407719 3.9287597943845425 0 -0.51503808176128008 -0.85716729658548041 3 0 0 1 I I 0 1 3 forward I I I I #
face $-1 $75 $76 $18 $-1 $77 reversed single #
loop $-1 $-1 $78 $30 #
plane-surface $-1 0 0 -14.670589988446549 0 0 1 1 0 0 forward_v I I I I #
coedge $-1 $79 $80 $81 $82 forward $31 $-1 #
face $-1 $83 $84 $19 $-1 $85 reversed single #
loop $-1 $-1 $86 $33 #
plane-surface $-1 0 0 14.670589988446549 0 0 1 1 0 0 forward_v I I I I #
coedge $-1 $87 $88 $89 $90 forward $34 $-1 #
face $-1 $91 $92 $20 $-1 $93 reversed single #
loop $-1 $-1 $94 $36 #
plane-surface $-1 -0.17726376132304722 -36.004052981206364 53.520535073285231 0 0.51503808176128008 0.85716729658548041 1 0 0 forward_v I I I I #
coedge $-1 $95 $96 $97 $98 reversed $37 $-1 #
face $-1 $-1 $99 $21 $-1 $100 forward single #
loop $-1 $101 $102 $39 #
cone-surface $-1 -11.529072054446303 33.698584134874203 -1.5647285409208234 0 -0.51503808176128008 -0.85716729658548041 1.5 0 0 1 I I -0.70710678118654757 0.70710678118654757 1.5 forward I I I I #
loop $-1 $-1 $103 $27 #
coedge $-1 $64 $64 $104 $105 reversed $40 $-1 #
face $-1 $-1 $106 $22 $-1 $107 forward single #
loop $-1 $108 $109 $42 #
cone-surface $-1 -0.17726376132304722 33.698584134874203 -1.5647285409208234 0 -0.51503808176128008 -0.85716729658548041 1.5 0 0 1 I I -0.70710678118654757 0.70710678118654757 1.5 forward I I I I #
loop $-1 $-1 $110 $28 #
coedge $-1 $69 $69 $111 $112 reversed $43 $-1 #
face $-1 $-1 $113 $23 $-1 $114 forward single #
loop $-1 $115 $116 $45 #
cone-surface $-1 11.174544531800208 33.698584134874203 -1.5647285409208234 0 -0.51503808176128008 -0.85716729658548041 1.5 0 0 1 I I -0.70710678118654757 0.70710678118654757 1.5 forward I I I I #
loop $-1 $-1 $117 $29 #
coedge $-1 $74 $74 $118 $119 reversed $46 $-1 #
face $-1 $120 $121 $18 $-1 $122 reversed single #
loop $-1 $-1 $123 $48 #
plane-surface $-1 0 -50.402225127279486 0 0 1 0 0 0 1 forward_v I I I I #
coedge $-1 $124 $125 $126 $127 forward $49 $-1 #
coedge $-1 $128 $51 $129 $130 forward $31 $-1 #
coedge $-1 $51 $128 $131 $132 forward $31 $-1 #
coedge $-1 $133 $134 $51 $82 reversed $135 $-1 #
edge $-1 $136 -50.402225127279486 $137 50.402225127279486 $81 $138 forward 7 unknown #
face $-1 $139 $140 $19 $-1 $141 reversed single #
loop $-1 $-1 $142 $52 #
plane-surface $-1 -77.311929685354158 0 0 1 0 0 0 0 -1 forward_v I I I I #
coedge $-1 $143 $144 $145 $146 forward $53 $-1 #
coedge $-1 $145 $55 $142 $147 reversed $34 $-1 #
coedge $-1 $55 $145 $148 $149 reversed $34 $-1 #
coedge $-1 $150 $151 $55 $90 reversed $140 $-1 #
edge $-1 $152 -77.311929685354158 $153 77.311929685354158 $89 $154 forward 7 unknown #
face $-1 $155 $156 $20 $-1 $157 reversed single #
loop $-1 $-1 $158 $56 #
plane-surface $-1 18.742416727215709 43.633122943609173 186.05905059768878 -1 0 0 0 0.51503808176128008 0.85716729658548041 forward_v I I I I #
coedge $-1 $159 $160 $161 $162 reversed $57 $-1 #
coedge $-1 $96 $59 $163 $164 reversed $37 $-1 #
coedge $-1 $59 $95 $159 $165 reversed $37 $-1 #
coedge $-1 $161 $166 $59 $98 forward $167 $-1 #
edge $-1 $168 -28.5856636554749 $169 -6.8365508715145005 $97 $170 forward 7 unknown #
loop $-1 $-1 $104 $60 #
plane-surface $-1 -0.17726376132304722 -36.004052981206364 53.520535073285231 0 0.51503808176128008 0.85716729658548041 1 0 0 forward_v I I I I #
loop $-1 $-1 $171 $39 #
coedge $-1 $102 $102 $103 $172 reversed $61 $-1 #
coedge $-1 $103 $103 $102 $172 forward $63 $-1 #
coedge $-1 $104 $104 $64 $105 forward $99 $-1 #
edge $-1 $173 9.5830490083889867e-017 $173 6.2831853071796004 $104 $174 forward 7 unknown #
loop $-1 $-1 $111 $65 #
plane-surface $-1 -0.17726376132304722 -36.004052981206364 53.520535073285231 0 0.51503808176128008 0.85716729658548041 1 0 0 forward_v I I I I #
loop $-1 $-1 $175 $42 #
coedge $-1 $109 $109 $110 $176 reversed $66 $-1 #
coedge $-1 $110 $110 $109 $176 forward $68 $-1 #
coedge $-1 $111 $111 $69 $112 forward $106 $-1 #
edge $-1 $177 9.5830490083889867e-017 $177 6.2831853071796004 $111 $178 forward 7 unknown #
loop $-1 $-1 $118 $70 #
plane-surface $-1 -0.17726376132304722 -36.004052981206364 53.520535073285231 0 0.51503808176128008 0.85716729658548041 1 0 0 forward_v I I I I #
loop $-1 $-1 $179 $45 #
coedge $-1 $116 $116 $117 $180 reversed $71 $-1 #
coedge $-1 $117 $117 $116 $180 forward $73 $-1 #
coedge $-1 $118 $118 $74 $119 forward $113 $-1 #
edge $-1 $181 9.5830490083889867e-017 $181 6.2831853071796004 $118 $182 forward 7 unknown #
face $-1 $183 $184 $18 $-1 $185 reversed single #
loop $-1 $-1 $186 $75 #
plane-surface $-1 -77.311929685354158 0 0 1 0 0 0 0 -1 forward_v I I I I #
coedge $-1 $187 $131 $188 $189 forward $76 $-1 #
coedge $-1 $190 $78 $187 $191 forward $49 $-1 #
coedge $-1 $78 $190 $192 $193 forward $49 $-1 #
coedge $-1 $134 $133 $78 $127 reversed $135 $-1 #
edge $-1 $194 -50.402225127279486 $195 50.402225127279486 $126 $196 forward 7 unknown #
coedge $-1 $80 $79 $197 $198 forward $31 $-1 #
coedge $-1 $199 $200 $79 $130 reversed $184 $-1 #
edge $-1 $137 -77.311929685354158 $201 77.311929685354158 $129 $202 forward 7 unknown #
coedge $-1 $123 $203 $80 $132 reversed $76 $-1 #
edge $-1 $204 -77.311929685354158 $136 77.311929685354158 $131 $205 forward 7 unknown #
coedge $-1 $126 $81 $203 $206 forward $135 $-1 #
coedge $-1 $81 $126 $199 $207 reversed $135 $-1 #
loop $-1 $-1 $133 $183 #
vertex $-1 $82 $208 #
vertex $-1 $82 $209 #
straight-curve $-1 77.311929685354158 0 14.670589988446549 0 1 0 I I #
face $-1 $210 $211 $19 $-1 $212 reversed single #
loop $-1 $-1 $150 $83 #
plane-surface $-1 0 -55.349751424973199 10.170152461487506 0 0 1 1 0 0 forward_v I I I I #
coedge $-1 $213 $214 $87 $147 forward $84 $-1 #
coedge $-1 $215 $86 $214 $216 forward $53 $-1 #
coedge $-1 $86 $215 $217 $218 forward $53 $-1 #
coedge $-1 $88 $87 $86 $146 reversed $34 $-1 #
edge $-1 $219 -77.311929685354158 $220 77.311929685354158 $86 $221 forward 7 unknown #
edge $-1 $220 -14.670589988446549 $153 -10.170152461487506 $142 $222 forward 7 unknown #
coedge $-1 $217 $223 $88 $149 forward $224 $-1 #
edge $-1 $152 10.170152461487506 $219 14.670589988446549 $148 $225 forward 7 unknown #
coedge $-1 $226 $89 $223 $227 forward $140 $-1 #
coedge $-1 $89 $226 $213 $228 forward $140 $-1 #
vertex $-1 $149 $229 #
vertex $-1 $147 $230 #
straight-curve $-1 0 -50.402225127279486 10.170152461487506 -1 0 0 I I #
face $-1 $-1 $167 $20 $-1 $231 forward single #
loop $-1 $-1 $232 $91 #
plane-surface $-1 0 50.402225127279486 0 0 -1 0 0 0 -1 forward_v I I I I #
coedge $-1 $233 $234 $235 $236 reversed $92 $-1 #
coedge $-1 $237 $94 $96 $165 forward $57 $-1 #
coedge $-1 $94 $237 $233 $238 forward $57 $-1 #
coedge $-1 $235 $97 $94 $162 forward $167 $-1 #
edge $-1 $169 -19.008312369200279 $239 18.831048607877232 $161 $240 forward 7 unknown #
coedge $-1 $241 $242 $95 $164 forward $156 $-1 #
edge $-1 $243 -91.427120917667594 $168 -78.35893531039784 $163 $244 forward 7 unknown #
edge $-1 $169 75.431208799130331 $243 100.80445025455896 $96 $245 forward 7 unknown #
coedge $-1 $97 $235 $241 $246 forward $167 $-1 #
loop $-1 $-1 $235 $155 #
vertex $-1 $164 $247 #
vertex $-1 $98 $248 #
straight-curve $-1 -19.096944249861803 21.816561471804587 14.670589988446551 0 -1 0 I I #
coedge $-1 $171 $171 $-1 $249 reversed $101 $-1 #
edge $-1 $250 0 $250 6.2831853071796004 $102 $251 forward 7 unknown #
vertex $-1 $105 $252 #
ellipse-curve $-1 -11.529072054446303 39.527668735299308 8.1364971848116632 0 0.51503808176128008 0.85716729658548041 3 0 0 1 I I #
coedge $-1 $175 $175 $-1 $253 reversed $108 $-1 #
edge $-1 $254 0 $254 6.2831853071796004 $109 $255 forward 7 unknown #
vertex $-1 $112 $256 #
ellipse-curve $-1 -0.17726376132304722 39.527668735299308 8.1364971848116632 0 0.51503808176128008 0.85716729658548041 3 0 0 1 I I #
coedge $-1 $179 $179 $-1 $257 reversed $115 $-1 #
edge $-1 $258 0 $258 6.2831853071796004 $116 $259 forward 7 unknown #
vertex $-1 $119 $260 #
ellipse-curve $-1 11.174544531800208 39.527668735299308 8.1364971848116632 0 0.51503808176128008 0.85716729658548041 3 0 0 1 I I #
face $-1 $-1 $135 $18 $-1 $261 reversed single #
loop $-1 $-1 $199 $120 #
plane-surface $-1 0 50.402225127279486 0 0 -1 0 0 0 -1 forward_v I I I I #
coedge $-1 $262 $197 $200 $263 forward $121 $-1 #
coedge $-1 $203 $123 $124 $191 reversed $76 $-1 #
coedge $-1 $197 $262 $123 $189 reversed $121 $-1 #
edge $-1 $204 -14.670589988446549 $264 14.670589988446549 $188 $265 forward 7 unknown #
coedge $-1 $125 $124 $262 $266 forward $49 $-1 #
edge $-1 $195 -77.311929685354158 $264 77.311929685354158 $187 $267 forward 7 unknown #
coedge $-1 $200 $199 $125 $193 reversed $184 $-1 #
edge $-1 $268 -77.311929685354158 $194 77.311929685354158 $192 $269 forward 7 unknown #
vertex $-1 $127 $270 #
vertex $-1 $206 $271 #
straight-curve $-1 77.311929685354158 0 -14.670589988446549 0 -1 0 I I #
coedge $-1 $186 $188 $128 $198 reversed $121 $-1 #
edge $-1 $201 -50.402225127279486 $204 50.402225127279486 $197 $272 forward 7 unknown #
coedge $-1 $192 $129 $134 $207 forward $184 $-1 #
coedge $-1 $129 $192 $186 $263 reversed $184 $-1 #
vertex $-1 $130 $273 #
straight-curve $-1 0 50.402225127279486 14.670589988446549 -1 0 0 I I #
coedge $-1 $131 $187 $133 $206 reversed $76 $-1 #
vertex $-1 $198 $274 #
straight-curve $-1 0 -50.402225127279486 14.670589988446549 1 0 0 I I #
edge $-1 $136 -14.670589988446549 $195 14.670589988446549 $133 $275 forward 7 unknown #
edge $-1 $137 -14.670589988446549 $194 14.670589988446549 $134 $276 forward 7 unknown #
point $-1 77.311929685354158 -50.402225127279486 14.670589988446549 #
point $-1 77.311929685354158 50.402225127279486 14.670589988446549 #
face $-1 $-1 $224 $19 $-1 $277 reversed single #
loop $-1 $-1 $278 $139 #
plane-surface $-1 0 -60.297277722666912 12.420371224967029 0 1 0 0 0 1 forward_v I I I I #
coedge $-1 $279 $142 $151 $228 reversed $84 $-1 #
coedge $-1 $142 $279 $143 $216 reversed $84 $-1 #
coedge $-1 $144 $143 $280 $281 forward $53 $-1 #
edge $-1 $220 50.402225127279486 $282 60.297277722666912 $214 $283 forward 7 unknown #
coedge $-1 $284 $148 $144 $218 reversed $224 $-1 #
edge $-1 $285 -60.297277722666912 $219 -50.402225127279486 $217 $286 forward 7 unknown #
vertex $-1 $149 $287 #
vertex $-1 $216 $288 #
straight-curve $-1 0 -50.402225127279486 14.670589988446549 -1 0 0 I I #
straight-curve $-1 -77.311929685354158 -50.402225127279486 0 0 0 -1 I I #
coedge $-1 $148 $284 $150 $227 reversed $224 $-1 #
loop $-1 $-1 $148 $210 #
straight-curve $-1 77.311929685354158 -50.402225127279486 0 0 0 1 I I #
coedge $-1 $151 $150 $289 $290 forward $140 $-1 #
edge $-1 $152 -4.9475262976937131 $291 4.9475262976937131 $223 $292 forward 7 unknown #
edge $-1 $293 -4.9475262976937131 $153 4.9475262976937131 $213 $294 forward 7 unknown #
point $-1 77.311929685354158 -50.402225127279486 10.170152461487506 #
point $-1 -77.311929685354158 -50.402225127279486 10.170152461487506 #
plane-surface $-1 0 0 14.670589988446549 0 0 1 1 0 0 forward_v I I I I #
coedge $-1 $242 $241 $234 $295 forward $156 $-1 #
coedge $-1 $234 $158 $160 $238 reversed $92 $-1 #
coedge $-1 $158 $233 $232 $295 reversed $92 $-1 #
coedge $-1 $166 $161 $158 $236 forward $167 $-1 #
edge $-1 $239 6.8365508715145005 $296 28.5856636554749 $235 $297 forward 7 unknown #
coedge $-1 $160 $159 $242 $298 reversed $57 $-1 #
edge $-1 $299 -100.80445025455896 $239 -75.431208799130331 $233 $300 forward 7 unknown #
vertex $-1 $162 $301 #
straight-curve $-1 -0.08863188066152361 28.653112343319101 14.670589988446547 1 0 0 I I #
coedge $-1 $232 $163 $166 $246 reversed $156 $-1 #
coedge $-1 $163 $232 $237 $298 forward $156 $-1 #
vertex $-1 $164 $302 #
straight-curve $-1 -19.096944249861803 50.402225127279486 93.029525298844391 0 0 1 I I #
straight-curve $-1 -19.096944249861803 -36.004052981206364 53.520535073285231 0 0.85716729658548041 -0.51503808176128008 I I #
edge $-1 $296 -18.742416727215709 $168 19.096944249861803 $241 $303 forward 7 unknown #
point $-1 -19.096944249861803 50.402225127279486 14.670589988446549 #
point $-1 -19.096944249861803 28.653112343319087 14.670589988446551 #
edge $-1 $304 1 $304 0 $171 $-1 forward 7 unknown #
vertex $-1 $172 $305 #
ellipse-curve $-1 -11.529072054446303 34.471141257516123 -0.27897759604260264 0 0.51503808176128008 0.85716729658548041 3 0 0 1 I I #
point $-1 -8.5290720544463028 39.527668735299322 8.1364971848116863 #
edge $-1 $306 1 $306 0 $175 $-1 forward 7 unknown #
vertex $-1 $176 $307 #
ellipse-curve $-1 -0.17726376132304722 34.471141257516123 -0.27897759604260264 0 0.51503808176128008 0.85716729658548041 3 0 0 1 I I #
point $-1 2.8227362386769528 39.527668735299322 8.1364971848116863 #
edge $-1 $308 1 $308 0 $179 $-1 forward 7 unknown #
vertex $-1 $180 $309 #
ellipse-curve $-1 11.174544531800208 34.471141257516123 -0.27897759604260264 0 0.51503808176128008 0.85716729658548041 3 0 0 1 I I #
point $-1 14.174544531800208 39.527668735299322 8.1364971848116863 #
plane-surface $-1 77.311929685354158 0 0 -1 0 0 0 0 1 forward_v I I I I #
coedge $-1 $188 $186 $190 $266 reversed $121 $-1 #
edge $-1 $201 -14.670589988446549 $268 14.670589988446549 $200 $310 forward 7 unknown #
vertex $-1 $266 $311 #
straight-curve $-1 -77.311929685354158 -50.402225127279486 0 0 0 -1 I I #
edge $-1 $264 -50.402225127279486 $268 50.402225127279486 $262 $312 forward 7 unknown #
straight-curve $-1 0 -50.402225127279486 -14.670589988446549 -1 0 0 I I #
vertex $-1 $193 $313 #
straight-curve $-1 0 50.402225127279486 -14.670589988446549 1 0 0 I I #
point $-1 77.311929685354158 50.402225127279486 -14.670589988446549 #
point $-1 77.311929685354158 -50.402225127279486 -14.670589988446549 #
straight-curve $-1 -77.311929685354158 0 14.670589988446549 0 -1 0 I I #
point $-1 -77.311929685354158 50.402225127279486 14.670589988446549 #
point $-1 -77.311929685354158 -50.402225127279486 14.670589988446549 #
straight-curve $-1 77.311929685354158 -50.402225127279486 0 0 0 -1 I I #
straight-curve $-1 77.311929685354158 50.402225127279486 0 0 0 -1 I I #
plane-surface $-1 77.311929685354158 0 0 -1 0 0 0 0 1 forward_v I I I I #
coedge $-1 $289 $280 $279 $314 forward $211 $-1 #
coedge $-1 $214 $213 $278 $314 reversed $84 $-1 #
coedge $-1 $278 $315 $215 $281 reversed $211 $-1 #
edge $-1 $282 -77.311929685354158 $285 77.311929685354158 $280 $316 forward 7 unknown #
vertex $-1 $216 $317 #
straight-curve $-1 -77.311929685354158 0 14.670589988446549 0 -1 0 I I #
coedge $-1 $223 $217 $315 $318 forward $224 $-1 #
vertex $-1 $218 $319 #
straight-curve $-1 77.311929685354158 0 14.670589988446549 0 1 0 I I #
point $-1 77.311929685354158 -50.402225127279486 14.670589988446549 #
point $-1 -77.311929685354158 -50.402225127279486 14.670589988446549 #
coedge $-1 $315 $278 $226 $290 reversed $211 $-1 #
edge $-1 $291 -77.311929685354158 $293 77.311929685354158 $289 $320 forward 7 unknown #
vertex $-1 $318 $321 #
straight-curve $-1 77.311929685354158 -55.349751424973199 10.170152461487506 0 -1 0 I I #
vertex $-1 $228 $322 #
straight-curve $-1 -77.311929685354158 -55.349751424973199 10.170152461487506 0 1 0 I I #
edge $-1 $296 78.35893531039784 $299 91.427120917667594 $232 $323 forward 7 unknown #
vertex $-1 $246 $324 #
straight-curve $-1 18.742416727215709 21.816561471804587 14.670589988446551 0 1 0 I I #
edge $-1 $299 -18.831048607877232 $243 19.008312369200279 $242 $325 forward 7 unknown #
vertex $-1 $298 $326 #
straight-curve $-1 18.742416727215709 -36.004052981206364 53.520535073285231 0 -0.85716729658548041 0.51503808176128008 I I #
point $-1 18.742416727215709 28.653112343319087 14.670589988446551 #
point $-1 -19.096944249861803 50.402225127279486 1.6024043811768038 #
straight-curve $-1 0 50.402225127279486 14.670589988446549 -1 0 0 I I #
vertex $-1 $249 $327 #
point $-1 -8.5290720544463028 34.471141257516123 -0.27897759604260264 #
vertex $-1 $253 $328 #
point $-1 2.8227362386769528 34.471141257516123 -0.27897759604260264 #
vertex $-1 $257 $329 #
point $-1 14.174544531800208 34.471141257516123 -0.27897759604260264 #
straight-curve $-1 -77.311929685354158 50.402225127279486 0 0 0 -1 I I #
point $-1 -77.311929685354158 -50.402225127279486 -14.670589988446549 #
straight-curve $-1 -77.311929685354158 0 -14.670589988446549 0 1 0 I I #
point $-1 -77.311929685354158 50.402225127279486 -14.670589988446549 #
edge $-1 $282 -2.2502187634795234 $293 2.2502187634795234 $279 $330 forward 7 unknown #
coedge $-1 $280 $289 $284 $318 reversed $211 $-1 #
straight-curve $-1 0 -60.297277722666912 14.670589988446553 1 0 0 I I #
point $-1 -77.311929685354158 -60.297277722666912 14.670589988446553 #
edge $-1 $285 -2.2502187634795234 $291 2.2502187634795234 $284 $331 forward 7 unknown #
point $-1 77.311929685354158 -60.297277722666912 14.670589988446553 #
straight-curve $-1 0 -60.297277722666912 10.170152461487506 -1 0 0 I I #
point $-1 77.311929685354158 -60.297277722666912 10.170152461487506 #
point $-1 -77.311929685354158 -60.297277722666912 10.170152461487506 #
straight-curve $-1 18.742416727215709 50.402225127279486 93.029525298844391 0 0 -1 I I #
point $-1 18.742416727215709 50.402225127279486 14.670589988446549 #
straight-curve $-1 -0.08863188066152361 50.402225127279486 1.6024043811768003 -1 0 0 I I #
point $-1 18.742416727215709 50.402225127279486 1.6024043811768038 #
point $-1 -11.529072054446303 32.926027012232282 -2.8504794857990441 #
point $-1 -0.17726376132304722 32.926027012232282 -2.8504794857990441 #
point $-1 11.174544531800208 32.926027012232282 -2.8504794857990441 #
straight-curve $-1 -77.311929685354158 -60.297277722666912 12.420371224967029 0 0 -1 I I #
straight-curve $-1 77.311929685354158 -60.297277722666912 12.420371224967029 0 0 -1 I I #
End-of-ACIS-data 