500 0 12 0           
7 Unknown 11 ACIS 5.0 NT 24 Fri Mar 26 20:27:22 1999 
-1 9.9999999999999995e-007 1e-010 
body $-1 $12 $-1 $13 #
body $-1 $14 $-1 $15 #
body $-1 $16 $-1 $17 #
body $-1 $18 $-1 $19 #
body $-1 $20 $-1 $21 #
body $-1 $22 $-1 $23 #
body $-1 $24 $-1 $25 #
body $-1 $26 $-1 $27 #
body $-1 $28 $-1 $29 #
body $-1 $30 $-1 $31 #
body $-1 $32 $-1 $33 #
body $-1 $34 $-1 $35 #
lump $-1 $-1 $36 $0 #
transform $-1 1 0 0 0 1 0 0 0 1 76.181524094363226 33.452261155410504 7.8420422632273397 1 rotate no_reflect no_shear #
lump $-1 $-1 $37 $1 #
transform $-1 1 0 0 0 1 0 0 0 1 76.181524094363226 33.452261155410504 7.8420422632273397 1 rotate no_reflect no_shear #
lump $-1 $-1 $38 $2 #
transform $-1 1 0 0 0 1 0 0 0 1 76.181524094363226 33.452261155410504 7.8420422632273397 1 rotate no_reflect no_shear #
lump $-1 $-1 $39 $3 #
transform $-1 1 0 0 0 1 0 0 0 1 76.181524094363226 33.452261155410504 7.8420422632273397 1 rotate no_reflect no_shear #
lump $-1 $-1 $40 $4 #
transform $-1 1 0 0 0 1 0 0 0 1 76.181524094363226 33.452261155410504 7.8420422632273397 1 rotate no_reflect no_shear #
lump $-1 $-1 $41 $5 #
transform $-1 1 0 0 0 1 0 0 0 1 76.181524094363226 33.452261155410504 7.8420422632273397 1 rotate no_reflect no_shear #
lump $-1 $-1 $42 $6 #
transform $-1 1 0 0 0 1 0 0 0 1 76.181524094363226 33.452261155410504 7.8420422632273397 1 rotate no_reflect no_shear #
lump $-1 $-1 $43 $7 #
transform $-1 1 0 0 0 1 0 0 0 1 76.181524094363226 33.452261155410504 7.8420422632273397 1 rotate no_reflect no_shear #
lump $-1 $-1 $44 $8 #
transform $-1 1 0 0 0 1 0 0 0 1 76.181524094363226 33.452261155410504 7.8420422632273397 1 rotate no_reflect no_shear #
lump $-1 $-1 $45 $9 #
transform $-1 1 0 0 0 1 0 0 0 1 76.181524094363226 33.452261155410504 7.8420422632273397 1 rotate no_reflect no_shear #
lump $-1 $-1 $46 $10 #
transform $-1 1 0 0 0 1 0 0 0 1 76.181524094363226 33.452261155410504 7.8420422632273397 1 rotate no_reflect no_shear #
lump $-1 $-1 $47 $11 #
transform $-1 1 0 0 0 1 0 0 0 1 76.181524094363226 33.452261155410504 7.8420422632273397 1 rotate no_reflect no_shear #
shell $-1 $-1 $-1 $48 $-1 $12 #
shell $-1 $-1 $-1 $49 $-1 $14 #
shell $-1 $-1 $-1 $50 $-1 $16 #
shell $-1 $-1 $-1 $51 $-1 $18 #
shell $-1 $-1 $-1 $52 $-1 $20 #
shell $-1 $-1 $-1 $53 $-1 $22 #
shell $-1 $-1 $-1 $54 $-1 $24 #
shell $-1 $-1 $-1 $55 $-1 $26 #
shell $-1 $-1 $-1 $56 $-1 $28 #
shell $-1 $-1 $-1 $57 $-1 $30 #
shell $-1 $-1 $-1 $58 $-1 $32 #
shell $-1 $-1 $-1 $59 $-1 $34 #
face $-1 $60 $61 $36 $-1 $62 forward single #
face $-1 $63 $64 $37 $-1 $65 forward single #
face $-1 $66 $67 $38 $-1 $68 reversed single #
face $-1 $69 $70 $39 $-1 $71 forward single #
face $-1 $72 $73 $40 $-1 $74 forward single #
face $-1 $75 $76 $41 $-1 $77 forward single #
face $-1 $78 $79 $42 $-1 $80 reversed single #
face $-1 $81 $82 $43 $-1 $83 forward single #
face $-1 $84 $85 $44 $-1 $86 forward single #
face $-1 $87 $88 $45 $-1 $89 reversed single #
face $-1 $90 $91 $46 $-1 $92 forward single #
face $-1 $93 $94 $47 $-1 $95 forward single #
face $-1 $96 $97 $36 $-1 $98 reversed single #
loop $-1 $-1 $99 $48 #
plane-surface $-1 0 0 7.8420422632273397 0 0 1 1 0 0 forward_v I I I I #
face $-1 $100 $101 $37 $-1 $102 forward single #
loop $-1 $-1 $103 $49 #
plane-surface $-1 0 -33.452261155410504 0 0 1 0 0 0 1 forward_v I I I I #
face $-1 $104 $105 $38 $-1 $106 reversed single #
loop $-1 $-1 $107 $50 #
plane-surface $-1 72.42098864836089 5.0940289917793713 217.10705202238168 0 -1 0 -0.69465837861970381 0 -0.71933979245794832 forward_v I I I I #
face $-1 $108 $109 $39 $-1 $110 forward single #
loop $-1 $111 $112 $51 #
cone-surface $-1 72.528235627328669 -2.3704127067003959 4.2822869970399999 -0.69465837861970381 0 -0.71933979245794832 0.35966989622897416 0 -0.3473291893098519 1 I I 0 1 0.5 forward I I I I #
face $-1 $113 $114 $40 $-1 $115 forward single #
loop $-1 $116 $117 $52 #
cone-surface $-1 72.528235627328669 0.42875293022951411 4.2822869970399999 -0.69465837861970381 0 -0.71933979245794832 0.35966989622897416 0 -0.3473291893098519 1 I I 0 1 0.5 forward I I I I #
face $-1 $118 $119 $41 $-1 $120 forward single #
loop $-1 $121 $122 $53 #
cone-surface $-1 72.528235627328669 3.2279185671594277 4.2822869970399999 -0.69465837861970381 0 -0.71933979245794832 0.35966989622897416 0 -0.3473291893098519 1 I I 0 1 0.5 forward I I I I #
face $-1 $123 $124 $42 $-1 $125 reversed single #
loop $-1 $-1 $126 $54 #
plane-surface $-1 -152.36304920936635 -24.837953270185757 132.41619458092552 0 1 0 -0.50000000669873634 0 0.8660253999169214 forward_v I I I I #
face $-1 $127 $128 $43 $-1 $129 forward single #
loop $-1 $130 $131 $55 #
cone-surface $-1 -69.315851867038518 -21.197788608206899 3.326466377030679 0.50000000669873634 0 -0.8660253999169214 0.8660253999169214 0 0.50000000669873634 1 I I 0 1 1 forward I I I I #
face $-1 $132 $133 $44 $-1 $134 forward single #
loop $-1 $135 $136 $56 #
cone-surface $-1 -69.315851867038518 -15.737541615238612 3.326466377030679 0.50000000669873634 0 -0.8660253999169214 0.8660253999169214 0 0.50000000669873634 1 I I 0 1 1 forward I I I I #
face $-1 $137 $138 $45 $-1 $139 reversed single #
loop $-1 $-1 $140 $57 #
plane-surface $-1 -152.36304920936635 17.442611754243195 132.41619458092552 0 1 0 -0.50000000669873634 0 0.8660253999169214 forward_v I I I I #
face $-1 $141 $142 $46 $-1 $143 forward single #
loop $-1 $144 $145 $58 #
cone-surface $-1 -69.315851867038518 21.082776416222053 3.326466377030679 0.50000000669873634 0 -0.8660253999169214 0.8660253999169214 0 0.50000000669873634 1 I I 0 1 1 forward I I I I #
face $-1 $146 $147 $47 $-1 $148 forward single #
loop $-1 $149 $150 $59 #
cone-surface $-1 -69.315851867038518 26.54302340919034 3.326466377030679 0.50000000669873634 0 -0.8660253999169214 0.8660253999169214 0 0.50000000669873634 1 I I 0 1 1 forward I I I I #
face $-1 $151 $152 $36 $-1 $153 reversed single #
loop $-1 $-1 $154 $60 #
plane-surface $-1 0 0 -7.8420422632273397 0 0 1 1 0 0 forward_v I I I I #
coedge $-1 $155 $156 $157 $158 forward $61 $-1 #
face $-1 $159 $160 $37 $-1 $161 reversed single #
loop $-1 $-1 $162 $63 #
plane-surface $-1 0 0 7.8420422632273397 0 0 1 1 0 0 forward_v I I I I #
coedge $-1 $163 $164 $165 $166 forward $64 $-1 #
face $-1 $167 $168 $38 $-1 $169 reversed single #
loop $-1 $-1 $170 $66 #
plane-surface $-1 -33.419279367975633 0.42875293022951411 107.50624856004282 0.69465837861970381 0 0.71933979245794832 0.71933979245794832 0 -0.69465837861970381 forward_v I I I I #
coedge $-1 $171 $172 $173 $174 reversed $67 $-1 #
face $-1 $-1 $175 $39 $-1 $176 forward single #
loop $-1 $177 $178 $69 #
cone-surface $-1 71.899032058242597 -2.3704127067003959 3.6307276424986714 -0.69465837861970381 0 -0.71933979245794832 0.17983494811448708 0 -0.17366459465492595 1 I I -0.70710678118654746 0.70710678118654746 0.25 forward I I I I #
loop $-1 $-1 $179 $51 #
coedge $-1 $112 $112 $180 $181 reversed $70 $-1 #
face $-1 $-1 $182 $40 $-1 $183 forward single #
loop $-1 $184 $185 $72 #
cone-surface $-1 71.899032058242597 0.42875293022951411 3.6307276424986714 -0.69465837861970381 0 -0.71933979245794832 0.17983494811448708 0 -0.17366459465492595 1 I I -0.70710678118654746 0.70710678118654746 0.25 forward I I I I #
loop $-1 $-1 $186 $52 #
coedge $-1 $117 $117 $187 $188 reversed $73 $-1 #
face $-1 $-1 $189 $41 $-1 $190 forward single #
loop $-1 $191 $192 $75 #
cone-surface $-1 71.899032058242597 3.2279185671594277 3.6307276424986714 -0.69465837861970381 0 -0.71933979245794832 0.17983494811448708 0 -0.17366459465492595 1 I I -0.70710678118654746 0.70710678118654746 0.25 forward I I I I #
loop $-1 $-1 $193 $53 #
coedge $-1 $122 $122 $194 $195 reversed $76 $-1 #
face $-1 $196 $197 $42 $-1 $198 reversed single #
loop $-1 $-1 $199 $78 #
plane-surface $-1 -76.18152409436324 -18.467665111722752 0.46592484072252205 -0.50000000669873634 0 0.8660253999169214 0.8660253999169214 0 0.50000000669873634 forward_v I I I I #
coedge $-1 $200 $201 $202 $203 reversed $79 $-1 #
face $-1 $-1 $204 $43 $-1 $205 forward single #
loop $-1 $206 $207 $81 #
cone-surface $-1 -68.588084591441543 -21.197788608206899 2.0659365021279505 0.50000000669873634 0 -0.8660253999169214 0.4330126999584607 0 0.25000000334936817 1 I I -0.70710678118654746 0.70710678118654746 0.5 forward I I I I #
loop $-1 $-1 $208 $55 #
coedge $-1 $131 $131 $209 $210 reversed $82 $-1 #
face $-1 $-1 $211 $44 $-1 $212 forward single #
loop $-1 $213 $214 $84 #
cone-surface $-1 -68.588084591441543 -15.737541615238612 2.0659365021279505 0.50000000669873634 0 -0.8660253999169214 0.4330126999584607 0 0.25000000334936817 1 I I -0.70710678118654746 0.70710678118654746 0.5 forward I I I I #
loop $-1 $-1 $215 $56 #
coedge $-1 $136 $136 $216 $217 reversed $85 $-1 #
face $-1 $218 $219 $45 $-1 $220 reversed single #
loop $-1 $-1 $221 $87 #
plane-surface $-1 -76.18152409436324 23.8128999127062 0.46592484072252205 -0.50000000669873634 0 0.8660253999169214 0.8660253999169214 0 0.50000000669873634 forward_v I I I I #
coedge $-1 $222 $223 $224 $225 reversed $88 $-1 #
face $-1 $-1 $226 $46 $-1 $227 forward single #
loop $-1 $228 $229 $90 #
cone-surface $-1 -68.588084591441543 21.082776416222053 2.0659365021279505 0.50000000669873634 0 -0.8660253999169214 0.4330126999584607 0 0.25000000334936817 1 I I -0.70710678118654746 0.70710678118654746 0.5 forward I I I I #
loop $-1 $-1 $230 $58 #
coedge $-1 $145 $145 $231 $232 reversed $91 $-1 #
face $-1 $-1 $233 $47 $-1 $234 forward single #
loop $-1 $235 $236 $93 #
cone-surface $-1 -68.588084591441543 26.54302340919034 2.0659365021279505 0.50000000669873634 0 -0.8660253999169214 0.4330126999584607 0 0.25000000334936817 1 I I -0.70710678118654746 0.70710678118654746 0.5 forward I I I I #
loop $-1 $-1 $237 $59 #
coedge $-1 $150 $150 $238 $239 reversed $94 $-1 #
face $-1 $240 $241 $36 $-1 $242 reversed single #
loop $-1 $-1 $243 $96 #
plane-surface $-1 0 -33.452261155410504 0 0 1 0 0 0 1 forward_v I I I I #
coedge $-1 $244 $245 $246 $247 forward $97 $-1 #
coedge $-1 $248 $99 $249 $250 forward $61 $-1 #
coedge $-1 $99 $248 $251 $252 forward $61 $-1 #
coedge $-1 $253 $254 $99 $158 reversed $255 $-1 #
edge $-1 $256 -33.452261155410504 $257 33.452261155410504 $157 $258 forward 7 unknown #
face $-1 $259 $260 $37 $-1 $261 reversed single #
loop $-1 $-1 $262 $100 #
plane-surface $-1 -76.181524094363226 0 0 1 0 0 0 0 -1 forward_v I I I I #
coedge $-1 $263 $264 $164 $265 forward $101 $-1 #
coedge $-1 $266 $103 $267 $268 reversed $64 $-1 #
coedge $-1 $103 $266 $162 $265 reversed $64 $-1 #
coedge $-1 $269 $270 $103 $166 reversed $271 $-1 #
edge $-1 $272 -7.8420422632273397 $273 7.8420422632273397 $165 $274 forward 7 unknown #
face $-1 $275 $276 $38 $-1 $277 forward single #
loop $-1 $-1 $278 $104 #
plane-surface $-1 72.42098864836089 -4.2365231313203431 217.10705202238168 0 1 0 0.69465837861970381 0 0.71933979245794832 forward_v I I I I #
coedge $-1 $279 $280 $281 $282 reversed $105 $-1 #
coedge $-1 $172 $107 $283 $284 reversed $67 $-1 #
coedge $-1 $107 $171 $279 $285 reversed $67 $-1 #
coedge $-1 $281 $286 $107 $174 forward $276 $-1 #
edge $-1 $287 -39.971029770182781 $288 -33.575530784975953 $173 $289 forward 7 unknown #
loop $-1 $-1 $180 $108 #
plane-surface $-1 -33.419279367975633 0.42875293022951411 107.50624856004282 0.69465837861970381 0 0.71933979245794832 0.71933979245794832 0 -0.69465837861970381 forward_v I I I I #
loop $-1 $-1 $290 $69 #
coedge $-1 $178 $178 $179 $291 reversed $109 $-1 #
coedge $-1 $179 $179 $178 $291 forward $111 $-1 #
coedge $-1 $180 $180 $112 $181 forward $175 $-1 #
edge $-1 $292 0 $292 6.2831853071796004 $180 $293 forward 7 unknown #
loop $-1 $-1 $187 $113 #
plane-surface $-1 -33.419279367975633 0.42875293022951411 107.50624856004282 0.69465837861970381 0 0.71933979245794832 0.71933979245794832 0 -0.69465837861970381 forward_v I I I I #
loop $-1 $-1 $294 $72 #
coedge $-1 $185 $185 $186 $295 reversed $114 $-1 #
coedge $-1 $186 $186 $185 $295 forward $116 $-1 #
coedge $-1 $187 $187 $117 $188 forward $182 $-1 #
edge $-1 $296 0 $296 6.2831853071796004 $187 $297 forward 7 unknown #
loop $-1 $-1 $194 $118 #
plane-surface $-1 -33.419279367975633 0.42875293022951411 107.50624856004282 0.69465837861970381 0 0.71933979245794832 0.71933979245794832 0 -0.69465837861970381 forward_v I I I I #
loop $-1 $-1 $298 $75 #
coedge $-1 $192 $192 $193 $299 reversed $119 $-1 #
coedge $-1 $193 $193 $192 $299 forward $121 $-1 #
coedge $-1 $194 $194 $122 $195 forward $189 $-1 #
edge $-1 $300 0 $300 6.2831853071796004 $194 $301 forward 7 unknown #
face $-1 $302 $303 $42 $-1 $304 reversed single #
loop $-1 $-1 $305 $123 #
plane-surface $-1 -152.36304920936635 -12.097376953259749 132.41619458092552 0 -1 0 0.50000000669873634 0 -0.8660253999169214 forward_v I I I I #
coedge $-1 $306 $307 $308 $309 reversed $124 $-1 #
coedge $-1 $201 $126 $310 $311 reversed $79 $-1 #
coedge $-1 $126 $200 $306 $312 reversed $79 $-1 #
coedge $-1 $308 $313 $126 $203 forward $314 $-1 #
edge $-1 $315 5.1031994985351048e-007 $316 12.775810420474187 $202 $317 forward 7 unknown #
loop $-1 $-1 $209 $127 #
plane-surface $-1 -76.18152409436324 -18.467665111722752 0.46592484072252205 -0.50000000669873634 0 0.8660253999169214 0.8660253999169214 0 0.50000000669873634 forward_v I I I I #
loop $-1 $-1 $318 $81 #
coedge $-1 $207 $207 $208 $319 reversed $128 $-1 #
coedge $-1 $208 $208 $207 $319 forward $130 $-1 #
coedge $-1 $209 $209 $131 $210 forward $204 $-1 #
edge $-1 $320 0 $320 6.2831853071796004 $209 $321 forward 7 unknown #
loop $-1 $-1 $216 $132 #
plane-surface $-1 -76.18152409436324 -18.467665111722752 0.46592484072252205 -0.50000000669873634 0 0.8660253999169214 0.8660253999169214 0 0.50000000669873634 forward_v I I I I #
loop $-1 $-1 $322 $84 #
coedge $-1 $214 $214 $215 $323 reversed $133 $-1 #
coedge $-1 $215 $215 $214 $323 forward $135 $-1 #
coedge $-1 $216 $216 $136 $217 forward $211 $-1 #
edge $-1 $324 0 $324 6.2831853071796004 $216 $325 forward 7 unknown #
face $-1 $326 $327 $45 $-1 $328 forward single #
loop $-1 $-1 $329 $137 #
plane-surface $-1 -152.36304920936635 30.183188071169205 132.41619458092552 0 -1 0 0.50000000669873634 0 -0.8660253999169214 forward_v I I I I #
coedge $-1 $330 $331 $332 $333 reversed $138 $-1 #
coedge $-1 $223 $140 $334 $335 reversed $88 $-1 #
coedge $-1 $140 $222 $330 $336 reversed $88 $-1 #
coedge $-1 $332 $337 $140 $225 forward $327 $-1 #
edge $-1 $338 5.1031994985351048e-007 $339 12.775810420474187 $224 $340 forward 7 unknown #
loop $-1 $-1 $231 $141 #
plane-surface $-1 -76.18152409436324 23.8128999127062 0.46592484072252205 -0.50000000669873634 0 0.8660253999169214 0.8660253999169214 0 0.50000000669873634 forward_v I I I I #
loop $-1 $-1 $341 $90 #
coedge $-1 $229 $229 $230 $342 reversed $142 $-1 #
coedge $-1 $230 $230 $229 $342 forward $144 $-1 #
coedge $-1 $231 $231 $145 $232 forward $226 $-1 #
edge $-1 $343 0 $343 6.2831853071796004 $231 $344 forward 7 unknown #
loop $-1 $-1 $238 $146 #
plane-surface $-1 -76.18152409436324 23.8128999127062 0.46592484072252205 -0.50000000669873634 0 0.8660253999169214 0.8660253999169214 0 0.50000000669873634 forward_v I I I I #
loop $-1 $-1 $345 $93 #
coedge $-1 $236 $236 $237 $346 reversed $147 $-1 #
coedge $-1 $237 $237 $236 $346 forward $149 $-1 #
coedge $-1 $238 $238 $150 $239 forward $233 $-1 #
edge $-1 $347 0 $347 6.2831853071796004 $238 $348 forward 7 unknown #
face $-1 $349 $350 $36 $-1 $351 reversed single #
loop $-1 $-1 $352 $151 #
plane-surface $-1 -76.181524094363226 0 0 1 0 0 0 0 -1 forward_v I I I I #
coedge $-1 $353 $251 $354 $355 forward $152 $-1 #
coedge $-1 $356 $154 $353 $357 forward $97 $-1 #
coedge $-1 $154 $356 $358 $359 forward $97 $-1 #
coedge $-1 $254 $253 $154 $247 reversed $255 $-1 #
edge $-1 $360 -33.452261155410504 $361 33.452261155410504 $246 $362 forward 7 unknown #
coedge $-1 $156 $155 $363 $364 forward $61 $-1 #
coedge $-1 $365 $366 $155 $250 reversed $350 $-1 #
edge $-1 $257 -76.181524094363226 $367 76.181524094363226 $249 $368 forward 7 unknown #
coedge $-1 $243 $369 $156 $252 reversed $152 $-1 #
edge $-1 $370 -76.181524094363226 $256 76.181524094363226 $251 $371 forward 7 unknown #
coedge $-1 $246 $157 $369 $372 forward $255 $-1 #
coedge $-1 $157 $246 $365 $373 reversed $255 $-1 #
loop $-1 $-1 $253 $349 #
vertex $-1 $158 $374 #
vertex $-1 $158 $375 #
straight-curve $-1 76.181524094363226 0 7.8420422632273397 0 1 0 I I #
face $-1 $376 $271 $37 $-1 $377 reversed single #
loop $-1 $-1 $378 $159 #
plane-surface $-1 -74.681524094363226 -38.797495956393952 0 0 1 0 0 0 1 forward_v I I I I #
coedge $-1 $379 $380 $266 $381 forward $160 $-1 #
coedge $-1 $382 $162 $380 $383 forward $101 $-1 #
coedge $-1 $162 $382 $269 $384 forward $101 $-1 #
edge $-1 $272 73.181524094363226 $385 76.181524094363226 $162 $386 forward 7 unknown #
coedge $-1 $164 $163 $262 $381 reversed $64 $-1 #
coedge $-1 $387 $388 $163 $268 forward $389 $-1 #
edge $-1 $390 -76.181524094363226 $273 -73.181524094363226 $267 $391 forward 7 unknown #
coedge $-1 $392 $165 $264 $384 reversed $271 $-1 #
coedge $-1 $165 $392 $387 $393 reversed $271 $-1 #
loop $-1 $-1 $392 $259 #
vertex $-1 $265 $394 #
vertex $-1 $393 $395 #
straight-curve $-1 -73.181524094363226 -33.452261155410504 0 0 0 -1 I I #
face $-1 $-1 $396 $38 $-1 $397 reversed single #
loop $-1 $-1 $173 $167 #
plane-surface $-1 0 0 7.8420422632273397 0 0 1 1 0 0 forward_v I I I I #
coedge $-1 $398 $399 $400 $401 reversed $168 $-1 #
coedge $-1 $402 $170 $172 $285 forward $105 $-1 #
coedge $-1 $170 $402 $398 $403 forward $105 $-1 #
coedge $-1 $400 $173 $170 $282 forward $276 $-1 #
edge $-1 $288 -4.8796525266646142 $404 4.4508995964351001 $281 $405 forward 7 unknown #
coedge $-1 $406 $407 $171 $284 forward $396 $-1 #
edge $-1 $408 -106.88754546748454 $287 -100.7114837479635 $283 $409 forward 7 unknown #
edge $-1 $288 143.47225825570501 $408 152.36304818872645 $172 $410 forward 7 unknown #
coedge $-1 $173 $400 $406 $411 forward $276 $-1 #
vertex $-1 $284 $412 #
vertex $-1 $174 $413 #
straight-curve $-1 36.210494324180445 5.0940289917793713 7.8420422632273414 -1 0 0 I I #
coedge $-1 $290 $290 $-1 $414 reversed $177 $-1 #
edge $-1 $415 0 $415 6.2831853071796004 $178 $416 forward 7 unknown #
vertex $-1 $181 $417 #
ellipse-curve $-1 72.983774601759819 -2.3704127067003959 4.7540114034668317 0.69465837861970381 0 0.71933979245794832 0.35966989622897416 0 -0.3473291893098519 1 I I #
coedge $-1 $294 $294 $-1 $418 reversed $184 $-1 #
edge $-1 $419 0 $419 6.2831853071796004 $185 $420 forward 7 unknown #
vertex $-1 $188 $421 #
ellipse-curve $-1 72.983774601759819 0.42875293022951411 4.7540114034668317 0.69465837861970381 0 0.71933979245794832 0.35966989622897416 0 -0.3473291893098519 1 I I #
coedge $-1 $298 $298 $-1 $422 reversed $191 $-1 #
edge $-1 $423 0 $423 6.2831853071796004 $192 $424 forward 7 unknown #
vertex $-1 $195 $425 #
ellipse-curve $-1 72.983774601759819 3.2279185671594277 4.7540114034668317 0.69465837861970381 0 0.71933979245794832 0.35966989622897416 0 -0.3473291893098519 1 I I #
face $-1 $-1 $314 $42 $-1 $426 forward single #
loop $-1 $-1 $427 $196 #
plane-surface $-1 -76.181524094363226 0 0 1 0 0 0 0 -1 forward_v I I I I #
coedge $-1 $428 $429 $430 $431 reversed $197 $-1 #
coedge $-1 $432 $199 $201 $312 forward $124 $-1 #
coedge $-1 $199 $432 $428 $433 forward $124 $-1 #
coedge $-1 $430 $202 $199 $309 forward $314 $-1 #
edge $-1 $316 -15.604120714324381 $434 -2.863544397398373 $308 $435 forward 7 unknown #
coedge $-1 $436 $437 $200 $311 forward $303 $-1 #
edge $-1 $438 -65.742172449740224 $315 -58.366055027235419 $310 $439 forward 7 unknown #
edge $-1 $316 -14.752234647366979 $438 -1.641478638404164e-014 $201 $440 forward 7 unknown #
coedge $-1 $202 $430 $436 $441 forward $314 $-1 #
loop $-1 $-1 $430 $302 #
vertex $-1 $311 $442 #
vertex $-1 $203 $443 #
straight-curve $-1 -76.181524604683176 -24.837953270185757 7.8420422632273414 1 0 0 I I #
coedge $-1 $318 $318 $-1 $444 reversed $206 $-1 #
edge $-1 $445 0 $445 6.2831853071796004 $207 $446 forward 7 unknown #
vertex $-1 $210 $447 #
ellipse-curve $-1 -69.793619139286122 -21.197788608206899 4.15398355197493 -0.50000000669873634 0 0.8660253999169214 0.8660253999169214 0 0.50000000669873634 1 I I #
coedge $-1 $322 $322 $-1 $448 reversed $213 $-1 #
edge $-1 $449 0 $449 6.2831853071796004 $214 $450 forward 7 unknown #
vertex $-1 $217 $451 #
ellipse-curve $-1 -69.793619139286122 -15.737541615238612 4.15398355197493 -0.50000000669873634 0 0.8660253999169214 0.8660253999169214 0 0.50000000669873634 1 I I #
face $-1 $-1 $452 $45 $-1 $453 reversed single #
loop $-1 $-1 $224 $218 #
plane-surface $-1 0 0 7.8420422632273397 0 0 1 1 0 0 forward_v I I I I #
coedge $-1 $454 $455 $456 $457 reversed $219 $-1 #
coedge $-1 $458 $221 $223 $336 forward $138 $-1 #
coedge $-1 $221 $458 $454 $459 forward $138 $-1 #
coedge $-1 $456 $224 $221 $333 forward $327 $-1 #
edge $-1 $339 5.5361617978900952 $460 18.276738114816105 $332 $461 forward 7 unknown #
coedge $-1 $462 $463 $222 $335 forward $452 $-1 #
edge $-1 $464 -65.742172449740224 $338 -58.366055027235419 $334 $465 forward 7 unknown #
edge $-1 $339 -14.752234647366979 $464 -1.641478638404164e-014 $223 $466 forward 7 unknown #
coedge $-1 $224 $456 $462 $467 forward $327 $-1 #
vertex $-1 $335 $468 #
vertex $-1 $225 $469 #
straight-curve $-1 -76.181524604683176 17.442611754243195 7.8420422632273414 1 0 0 I I #
coedge $-1 $341 $341 $-1 $470 reversed $228 $-1 #
edge $-1 $471 0 $471 6.2831853071796004 $229 $472 forward 7 unknown #
vertex $-1 $232 $473 #
ellipse-curve $-1 -69.793619139286122 21.082776416222053 4.15398355197493 -0.50000000669873634 0 0.8660253999169214 0.8660253999169214 0 0.50000000669873634 1 I I #
coedge $-1 $345 $345 $-1 $474 reversed $235 $-1 #
edge $-1 $475 0 $475 6.2831853071796004 $236 $476 forward 7 unknown #
vertex $-1 $239 $477 #
ellipse-curve $-1 -69.793619139286122 26.54302340919034 4.15398355197493 -0.50000000669873634 0 0.8660253999169214 0.8660253999169214 0 0.50000000669873634 1 I I #
face $-1 $-1 $255 $36 $-1 $478 reversed single #
loop $-1 $-1 $365 $240 #
plane-surface $-1 0 33.452261155410504 0 0 -1 0 0 0 -1 forward_v I I I I #
coedge $-1 $479 $363 $366 $480 forward $241 $-1 #
coedge $-1 $369 $243 $244 $357 reversed $152 $-1 #
coedge $-1 $363 $479 $243 $355 reversed $241 $-1 #
edge $-1 $370 -7.8420422632273397 $481 7.8420422632273397 $354 $482 forward 7 unknown #
coedge $-1 $245 $244 $479 $483 forward $97 $-1 #
edge $-1 $361 -76.181524094363226 $481 76.181524094363226 $353 $484 forward 7 unknown #
coedge $-1 $366 $365 $245 $359 reversed $350 $-1 #
edge $-1 $485 -76.181524094363226 $360 76.181524094363226 $358 $486 forward 7 unknown #
vertex $-1 $247 $487 #
vertex $-1 $372 $488 #
straight-curve $-1 76.181524094363226 0 -7.8420422632273397 0 -1 0 I I #
coedge $-1 $352 $354 $248 $364 reversed $241 $-1 #
edge $-1 $367 -33.452261155410504 $370 33.452261155410504 $363 $489 forward 7 unknown #
coedge $-1 $358 $249 $254 $373 forward $350 $-1 #
coedge $-1 $249 $358 $352 $480 reversed $350 $-1 #
vertex $-1 $250 $490 #
straight-curve $-1 0 33.452261155410504 7.8420422632273397 -1 0 0 I I #
coedge $-1 $251 $353 $253 $372 reversed $152 $-1 #
vertex $-1 $364 $491 #
straight-curve $-1 0 -33.452261155410504 7.8420422632273397 1 0 0 I I #
edge $-1 $256 -7.8420422632273397 $361 7.8420422632273397 $253 $492 forward 7 unknown #
edge $-1 $257 -7.8420422632273397 $360 7.8420422632273397 $254 $493 forward 7 unknown #
point $-1 76.181524094363226 -33.452261155410504 7.8420422632273397 #
point $-1 76.181524094363226 33.452261155410504 7.8420422632273397 #
face $-1 $-1 $389 $37 $-1 $494 reversed single #
plane-surface $-1 -73.181524094363226 -36.124878555902228 0 -1 0 0 0 0 1 forward_v I I I I #
coedge $-1 $495 $496 $497 $498 forward $260 $-1 #
coedge $-1 $497 $262 $388 $499 reversed $160 $-1 #
coedge $-1 $262 $497 $263 $383 reversed $160 $-1 #
edge $-1 $385 -7.8420422632273397 $390 7.8420422632273397 $262 $500 forward 7 unknown #
coedge $-1 $264 $263 $496 $501 forward $101 $-1 #
edge $-1 $385 33.452261155410504 $502 38.797495956393952 $380 $503 forward 7 unknown #
edge $-1 $504 -2.672617400491724 $272 2.672617400491724 $269 $505 forward 7 unknown #
vertex $-1 $383 $506 #
straight-curve $-1 0 -33.452261155410504 7.8420422632273397 -1 0 0 I I #
coedge $-1 $507 $267 $270 $393 forward $389 $-1 #
coedge $-1 $267 $507 $379 $499 forward $389 $-1 #
loop $-1 $-1 $267 $376 #
vertex $-1 $381 $508 #
straight-curve $-1 0 -33.452261155410504 -7.8420422632273397 1 0 0 I I #
coedge $-1 $270 $269 $509 $510 forward $271 $-1 #
edge $-1 $273 -2.672617400491724 $511 2.672617400491724 $270 $512 forward 7 unknown #
point $-1 -73.181524094363226 -33.452261155410504 7.8420422632273397 #
point $-1 -73.181524094363226 -33.452261155410504 -7.8420422632273397 #
loop $-1 $-1 $283 $275 #
plane-surface $-1 76.181524094363226 0 0 -1 0 0 0 0 1 forward_v I I I I #
coedge $-1 $399 $278 $280 $403 reversed $168 $-1 #
coedge $-1 $278 $398 $513 $514 reversed $168 $-1 #
coedge $-1 $286 $281 $278 $401 forward $276 $-1 #
edge $-1 $404 33.575530784975953 $515 39.971029770182781 $400 $516 forward 7 unknown #
coedge $-1 $280 $279 $407 $517 reversed $105 $-1 #
edge $-1 $518 -152.36304818872645 $404 -143.47225825570501 $398 $519 forward 7 unknown #
vertex $-1 $282 $520 #
straight-curve $-1 69.786025109156384 0.21437646511475705 7.8420422632273556 0 -1 0 I I #
coedge $-1 $513 $283 $286 $411 reversed $396 $-1 #
coedge $-1 $283 $513 $402 $517 forward $396 $-1 #
vertex $-1 $284 $521 #
straight-curve $-1 76.181524094363226 5.0940289917793713 108.55352601119084 0 0 1 I I #
straight-curve $-1 -33.419279367975633 5.0940289917793713 107.50624856004282 0.71933979245794832 0 -0.69465837861970381 I I #
edge $-1 $515 -4.2365231313203431 $287 5.0940289917793713 $406 $522 forward 7 unknown #
point $-1 76.181524094363226 5.0940289917793713 7.8420422632273397 #
point $-1 69.786025109156398 5.0940289917793713 7.8420422632273414 #
edge $-1 $523 1 $523 0 $290 $-1 forward 7 unknown #
vertex $-1 $291 $524 #
ellipse-curve $-1 72.07269665289752 -2.3704127067003959 3.8105625906131584 0.69465837861970381 0 0.71933979245794832 0.35966989622897416 0 -0.3473291893098519 1 I I #
point $-1 73.343444497988799 -2.3704127067003959 4.4066822141569881 #
edge $-1 $525 1 $525 0 $294 $-1 forward 7 unknown #
vertex $-1 $295 $526 #
ellipse-curve $-1 72.07269665289752 0.42875293022951411 3.8105625906131584 0.69465837861970381 0 0.71933979245794832 0.35966989622897416 0 -0.3473291893098519 1 I I #
point $-1 73.343444497988799 0.42875293022951411 4.4066822141569881 #
edge $-1 $527 1 $527 0 $298 $-1 forward 7 unknown #
vertex $-1 $299 $528 #
ellipse-curve $-1 72.07269665289752 3.2279185671594277 3.8105625906131584 0.69465837861970381 0 0.71933979245794832 0.35966989622897416 0 -0.3473291893098519 1 I I #
point $-1 73.343444497988799 3.2279185671594277 4.4066822141569881 #
plane-surface $-1 0 0 7.8420422632273397 0 0 1 1 0 0 forward_v I I I I #
coedge $-1 $437 $436 $429 $529 forward $303 $-1 #
coedge $-1 $429 $305 $307 $433 reversed $197 $-1 #
coedge $-1 $305 $428 $427 $529 reversed $197 $-1 #
coedge $-1 $313 $308 $305 $431 forward $314 $-1 #
edge $-1 $434 -12.775810420474187 $530 -5.1031994985351048e-007 $430 $531 forward 7 unknown #
coedge $-1 $307 $306 $437 $532 reversed $124 $-1 #
edge $-1 $533 1.641478638404164e-014 $434 14.752234647366979 $428 $534 forward 7 unknown #
vertex $-1 $309 $535 #
straight-curve $-1 -63.405714184208989 -9.2338325558613761 7.8420422632273414 0 1 0 I I #
coedge $-1 $427 $310 $313 $441 reversed $303 $-1 #
coedge $-1 $310 $427 $432 $532 forward $303 $-1 #
vertex $-1 $311 $536 #
straight-curve $-1 -76.181524094363226 -24.837953270185757 66.20809729046276 0 0 1 I I #
straight-curve $-1 -76.18152409436324 -24.837953270185757 0.46592484072252205 -0.8660253999169214 0 -0.50000000669873634 I I #
edge $-1 $530 12.097376953259749 $315 24.837953270185757 $436 $537 forward 7 unknown #
point $-1 -76.181524094363226 -24.837953270185757 7.8420422632273397 #
point $-1 -63.405714184208989 -24.837953270185757 7.8420422632273397 #
edge $-1 $538 1 $538 0 $318 $-1 forward 7 unknown #
vertex $-1 $319 $539 #
ellipse-curve $-1 -68.838084594790914 -21.197788608206899 2.4989492020864112 -0.50000000669873634 0 0.8660253999169214 0.8660253999169214 0 0.50000000669873634 1 I I #
point $-1 -68.927593739369215 -21.197788608206899 4.6539835586736826 #
edge $-1 $540 1 $540 0 $322 $-1 forward 7 unknown #
vertex $-1 $323 $541 #
ellipse-curve $-1 -68.838084594790914 -15.737541615238612 2.4989492020864112 -0.50000000669873634 0 0.8660253999169214 0.8660253999169214 0 0.50000000669873634 1 I I #
point $-1 -68.927593739369215 -15.737541615238612 4.6539835586736826 #
loop $-1 $-1 $334 $326 #
plane-surface $-1 -76.181524094363226 0 0 1 0 0 0 0 -1 forward_v I I I I #
coedge $-1 $455 $329 $331 $459 reversed $219 $-1 #
coedge $-1 $329 $454 $542 $543 reversed $219 $-1 #
coedge $-1 $337 $332 $329 $457 forward $327 $-1 #
edge $-1 $460 -12.775810420474187 $544 -5.1031994985351048e-007 $456 $545 forward 7 unknown #
coedge $-1 $331 $330 $463 $546 reversed $138 $-1 #
edge $-1 $547 1.641478638404164e-014 $460 14.752234647366979 $454 $548 forward 7 unknown #
vertex $-1 $333 $549 #
straight-curve $-1 -63.405714184208989 11.9064499563531 7.8420422632273414 0 1 0 I I #
coedge $-1 $542 $334 $337 $467 reversed $452 $-1 #
coedge $-1 $334 $542 $458 $546 forward $452 $-1 #
vertex $-1 $335 $550 #
straight-curve $-1 -76.181524094363226 17.442611754243195 66.20809729046276 0 0 1 I I #
straight-curve $-1 -76.18152409436324 17.442611754243195 0.46592484072252205 -0.8660253999169214 0 -0.50000000669873634 I I #
edge $-1 $544 -30.183188071169205 $338 -17.442611754243195 $462 $551 forward 7 unknown #
point $-1 -76.181524094363226 17.442611754243195 7.8420422632273397 #
point $-1 -63.405714184208989 17.442611754243195 7.8420422632273397 #
edge $-1 $552 1 $552 0 $341 $-1 forward 7 unknown #
vertex $-1 $342 $553 #
ellipse-curve $-1 -68.838084594790914 21.082776416222053 2.4989492020864112 -0.50000000669873634 0 0.8660253999169214 0.8660253999169214 0 0.50000000669873634 1 I I #
point $-1 -68.927593739369215 21.082776416222053 4.6539835586736826 #
edge $-1 $554 1 $554 0 $345 $-1 forward 7 unknown #
vertex $-1 $346 $555 #
ellipse-curve $-1 -68.838084594790914 26.54302340919034 2.4989492020864112 -0.50000000669873634 0 0.8660253999169214 0.8660253999169214 0 0.50000000669873634 1 I I #
point $-1 -68.927593739369215 26.54302340919034 4.6539835586736826 #
plane-surface $-1 76.181524094363226 0 0 -1 0 0 0 0 1 forward_v I I I I #
coedge $-1 $354 $352 $356 $483 reversed $241 $-1 #
edge $-1 $367 -7.8420422632273397 $485 7.8420422632273397 $366 $556 forward 7 unknown #
vertex $-1 $483 $557 #
straight-curve $-1 -76.181524094363226 -33.452261155410504 0 0 0 -1 I I #
edge $-1 $481 -33.452261155410504 $485 33.452261155410504 $479 $558 forward 7 unknown #
straight-curve $-1 0 -33.452261155410504 -7.8420422632273397 -1 0 0 I I #
vertex $-1 $359 $559 #
straight-curve $-1 0 33.452261155410504 -7.8420422632273397 1 0 0 I I #
point $-1 76.181524094363226 33.452261155410504 -7.8420422632273397 #
point $-1 76.181524094363226 -33.452261155410504 -7.8420422632273397 #
straight-curve $-1 -76.181524094363226 0 7.8420422632273397 0 -1 0 I I #
point $-1 -76.181524094363226 33.452261155410504 7.8420422632273397 #
point $-1 -76.181524094363226 -33.452261155410504 7.8420422632273397 #
straight-curve $-1 76.181524094363226 -33.452261155410504 0 0 0 -1 I I #
straight-curve $-1 76.181524094363226 33.452261155410504 0 0 0 -1 I I #
plane-surface $-1 0 0 -7.8420422632273397 0 0 1 1 0 0 forward_v I I I I #
coedge $-1 $509 $378 $507 $560 reversed $260 $-1 #
coedge $-1 $378 $509 $382 $501 reversed $260 $-1 #
coedge $-1 $380 $379 $378 $498 reversed $160 $-1 #
edge $-1 $502 -7.8420422632273397 $561 7.8420422632273397 $497 $562 forward 7 unknown #
edge $-1 $561 -38.797495956393952 $390 -33.452261155410504 $379 $563 forward 7 unknown #
straight-curve $-1 -76.181524094363226 -33.452261155410504 0 0 0 -1 I I #
edge $-1 $502 -1.5 $504 1.5 $496 $564 forward 7 unknown #
vertex $-1 $383 $565 #
straight-curve $-1 -76.181524094363226 0 7.8420422632273397 0 -1 0 I I #
vertex $-1 $384 $566 #
straight-curve $-1 -73.181524094363226 -36.124878555902228 7.8420422632273397 0 1 0 I I #
point $-1 -76.181524094363226 -33.452261155410504 7.8420422632273397 #
coedge $-1 $388 $387 $495 $560 forward $389 $-1 #
point $-1 -76.181524094363226 -33.452261155410504 -7.8420422632273397 #
coedge $-1 $496 $495 $392 $510 reversed $260 $-1 #
edge $-1 $504 -7.8420422632273397 $511 7.8420422632273397 $392 $567 forward 7 unknown #
vertex $-1 $510 $568 #
straight-curve $-1 -73.181524094363226 -36.124878555902228 -7.8420422632273397 0 -1 0 I I #
coedge $-1 $407 $406 $399 $514 forward $396 $-1 #
edge $-1 $515 100.7114837479635 $518 106.88754546748454 $513 $569 forward 7 unknown #
vertex $-1 $411 $570 #
straight-curve $-1 36.210494324180445 -4.2365231313203431 7.8420422632273414 1 0 0 I I #
edge $-1 $518 -4.4508995964351001 $408 4.8796525266646142 $407 $571 forward 7 unknown #
vertex $-1 $517 $572 #
straight-curve $-1 -33.419279367975633 -4.2365231313203431 107.50624856004282 -0.71933979245794832 0 0.69465837861970381 I I #
point $-1 69.786025109156398 -4.2365231313203431 7.8420422632273414 #
point $-1 76.181524094363226 5.0940289917793713 1.6659805437062971 #
straight-curve $-1 76.181524094363226 0 7.8420422632273397 0 1 0 I I #
vertex $-1 $414 $573 #
point $-1 72.432366549126499 -2.3704127067003959 3.4632334013033068 #
vertex $-1 $418 $574 #
point $-1 72.432366549126499 0.42875293022951411 3.4632334013033068 #
vertex $-1 $422 $575 #
point $-1 72.432366549126499 3.2279185671594277 3.4632334013033068 #
edge $-1 $530 58.366055027235419 $533 65.742172449740224 $427 $576 forward 7 unknown #
vertex $-1 $441 $577 #
straight-curve $-1 -76.181524604683176 -12.097376953259749 7.8420422632273414 -1 0 0 I I #
edge $-1 $533 2.863544397398373 $438 15.604120714324381 $437 $578 forward 7 unknown #
vertex $-1 $532 $579 #
straight-curve $-1 -76.18152409436324 -12.097376953259749 0.46592484072252205 0.8660253999169214 0 0.50000000669873634 I I #
point $-1 -63.405714184208989 -12.097376953259749 7.8420422632273397 #
point $-1 -76.181524094363226 -24.837953270185757 0.46592484072253026 #
straight-curve $-1 -76.181524094363226 0 7.8420422632273397 0 -1 0 I I #
vertex $-1 $444 $580 #
point $-1 -67.972059194873992 -21.197788608206899 2.9989492087851475 #
vertex $-1 $448 $581 #
point $-1 -67.972059194873992 -15.737541615238612 2.9989492087851475 #
coedge $-1 $463 $462 $455 $543 forward $452 $-1 #
edge $-1 $544 58.366055027235419 $547 65.742172449740224 $542 $582 forward 7 unknown #
vertex $-1 $467 $583 #
straight-curve $-1 -76.181524604683176 30.183188071169205 7.8420422632273414 -1 0 0 I I #
edge $-1 $547 -18.276738114816105 $464 -5.5361617978900952 $463 $584 forward 7 unknown #
vertex $-1 $546 $585 #
straight-curve $-1 -76.18152409436324 30.183188071169205 0.46592484072252205 0.8660253999169214 0 0.50000000669873634 I I #
point $-1 -63.405714184208989 30.183188071169205 7.8420422632273397 #
point $-1 -76.181524094363226 17.442611754243195 0.46592484072253026 #
straight-curve $-1 -76.181524094363226 0 7.8420422632273397 0 -1 0 I I #
vertex $-1 $470 $586 #
point $-1 -67.972059194873992 21.082776416222053 2.9989492087851475 #
vertex $-1 $474 $587 #
point $-1 -67.972059194873992 26.54302340919034 2.9989492087851475 #
straight-curve $-1 -76.181524094363226 33.452261155410504 0 0 0 -1 I I #
point $-1 -76.181524094363226 -33.452261155410504 -7.8420422632273397 #
straight-curve $-1 -76.181524094363226 0 -7.8420422632273397 0 1 0 I I #
point $-1 -76.181524094363226 33.452261155410504 -7.8420422632273397 #
edge $-1 $511 -1.5 $561 1.5 $495 $588 forward 7 unknown #
vertex $-1 $499 $589 #
straight-curve $-1 -76.181524094363226 -38.797495956393952 0 0 0 -1 I I #
straight-curve $-1 -76.181524094363226 0 -7.8420422632273397 0 1 0 I I #
straight-curve $-1 -74.681524094363226 -38.797495956393952 7.8420422632273397 1 0 0 I I #
point $-1 -76.181524094363226 -38.797495956393952 7.8420422632273397 #
point $-1 -73.181524094363226 -38.797495956393952 7.8420422632273397 #
straight-curve $-1 -73.181524094363226 -38.797495956393952 0 0 0 -1 I I #
point $-1 -73.181524094363226 -38.797495956393952 -7.8420422632273397 #
straight-curve $-1 76.181524094363226 -4.2365231313203431 108.55352601119084 0 0 -1 I I #
point $-1 76.181524094363226 -4.2365231313203431 7.8420422632273397 #
straight-curve $-1 76.181524094363226 0.21437646511475705 1.6659805437063184 0 1 0 I I #
point $-1 76.181524094363226 -4.2365231313203431 1.6659805437062971 #
point $-1 71.725367463587673 -2.3704127067003959 3.4508926943841844 #
point $-1 71.725367463587673 0.42875293022951411 3.4508926943841844 #
point $-1 71.725367463587673 3.2279185671594277 3.4508926943841844 #
straight-curve $-1 -76.181524094363226 -12.097376953259749 66.20809729046276 0 0 -1 I I #
point $-1 -76.181524094363226 -12.097376953259749 7.8420422632273397 #
straight-curve $-1 -76.181524094363226 -9.2338325558613761 0.46592484072252915 0 -1 0 I I #
point $-1 -76.181524094363226 -12.097376953259749 0.46592484072253026 #
point $-1 -68.338084588092173 -21.197788608206899 1.6329238021694898 #
point $-1 -68.338084588092173 -15.737541615238612 1.6329238021694898 #
straight-curve $-1 -76.181524094363226 30.183188071169205 66.20809729046276 0 0 -1 I I #
point $-1 -76.181524094363226 30.183188071169205 7.8420422632273397 #
straight-curve $-1 -76.181524094363226 11.9064499563531 0.46592484072252915 0 -1 0 I I #
point $-1 -76.181524094363226 30.183188071169205 0.46592484072253026 #
point $-1 -68.338084588092173 21.082776416222053 1.6329238021694898 #
point $-1 -68.338084588092173 26.54302340919034 1.6329238021694898 #
straight-curve $-1 -74.681524094363226 -38.797495956393952 -7.8420422632273397 -1 0 0 I I #
point $-1 -76.181524094363226 -38.797495956393952 -7.8420422632273397 #
End-of-ACIS-data 