500 0 7 0           
7 Unknown 11 ACIS 5.0 NT 24 Fri Mar 26 00:36:45 1999 
-1 9.9999999999999995e-007 1e-010 
body $-1 $7 $-1 $8 #
body $-1 $9 $-1 $10 #
body $-1 $11 $-1 $12 #
body $-1 $13 $-1 $14 #
body $-1 $15 $-1 $16 #
body $-1 $17 $-1 $18 #
body $-1 $19 $-1 $20 #
lump $-1 $-1 $21 $0 #
transform $-1 1 0 0 0 1 0 0 0 1 72.823267311624505 32.617009594779269 11.951839069875048 1 rotate no_reflect no_shear #
lump $-1 $-1 $22 $1 #
transform $-1 1 0 0 0 1 0 0 0 1 72.823267311624505 32.617009594779269 11.951839069875048 1 rotate no_reflect no_shear #
lump $-1 $-1 $23 $2 #
transform $-1 1 0 0 0 1 0 0 0 1 72.823267311624505 32.617009594779269 11.951839069875048 1 rotate no_reflect no_shear #
lump $-1 $-1 $24 $3 #
transform $-1 1 0 0 0 1 0 0 0 1 72.823267311624505 32.617009594779269 11.951839069875048 1 rotate no_reflect no_shear #
lump $-1 $-1 $25 $4 #
transform $-1 1 0 0 0 1 0 0 0 1 72.823267311624505 32.617009594779269 11.951839069875048 1 rotate no_reflect no_shear #
lump $-1 $-1 $26 $5 #
transform $-1 1 0 0 0 1 0 0 0 1 72.823267311624505 32.617009594779269 11.951839069875048 1 rotate no_reflect no_shear #
lump $-1 $-1 $27 $6 #
transform $-1 1 0 0 0 1 0 0 0 1 72.823267311624505 32.617009594779269 11.951839069875048 1 rotate no_reflect no_shear #
shell $-1 $-1 $-1 $28 $-1 $7 #
shell $-1 $-1 $-1 $29 $-1 $9 #
shell $-1 $-1 $-1 $30 $-1 $11 #
shell $-1 $-1 $-1 $31 $-1 $13 #
shell $-1 $-1 $-1 $32 $-1 $15 #
shell $-1 $-1 $-1 $33 $-1 $17 #
shell $-1 $-1 $-1 $34 $-1 $19 #
face $-1 $35 $36 $21 $-1 $37 forward single #
face $-1 $38 $39 $22 $-1 $40 forward single #
face $-1 $41 $42 $23 $-1 $43 forward single #
face $-1 $44 $45 $24 $-1 $46 reversed single #
face $-1 $47 $48 $25 $-1 $49 forward single #
face $-1 $50 $51 $26 $-1 $52 forward single #
face $-1 $53 $54 $27 $-1 $55 forward single #
face $-1 $56 $57 $21 $-1 $58 reversed single #
loop $-1 $-1 $59 $28 #
plane-surface $-1 0 0 11.951839069875048 0 0 1 1 0 0 forward_v I I I I #
face $-1 $60 $61 $22 $-1 $62 reversed single #
loop $-1 $-1 $63 $29 #
plane-surface $-1 -72.823267311624505 0 0 1 0 0 0 0 -1 forward_v I I I I #
face $-1 $64 $65 $23 $-1 $66 forward single #
loop $-1 $-1 $67 $30 #
plane-surface $-1 72.823267311624505 0 0 -1 0 0 0 0 1 forward_v I I I I #
face $-1 $68 $69 $24 $-1 $70 reversed single #
loop $-1 $-1 $71 $31 #
plane-surface $-1 -58.775087268016954 84.238567625056277 152.7781213395244 1 0 0 0 -0.68199836817093118 -0.7313536940579346 forward_v I I I I #
face $-1 $72 $73 $25 $-1 $74 forward single #
loop $-1 $75 $76 $32 #
cone-surface $-1 -53.63648687732131 24.970264491756268 4.5152555116456288 0 -0.68199836817093118 -0.7313536940579346 2 0 0 1 I I 0 1 2 forward I I I I #
face $-1 $77 $78 $26 $-1 $79 forward single #
loop $-1 $80 $81 $33 #
cone-surface $-1 -45.928586291277838 24.970264491756268 4.5152555116456288 0 -0.68199836817093118 -0.7313536940579346 2 0 0 1 I I 0 1 2 forward I I I I #
face $-1 $82 $83 $27 $-1 $84 forward single #
loop $-1 $85 $86 $34 #
cone-surface $-1 -38.220685705234366 24.970264491756268 4.5152555116456288 0 -0.68199836817093118 -0.7313536940579346 2 0 0 1 I I 0 1 2 forward I I I I #
face $-1 $87 $88 $21 $-1 $89 reversed single #
loop $-1 $-1 $90 $35 #
plane-surface $-1 0 0 -11.951839069875048 0 0 1 1 0 0 forward_v I I I I #
coedge $-1 $91 $92 $93 $94 forward $36 $-1 #
face $-1 $95 $96 $22 $-1 $97 reversed single #
loop $-1 $-1 $98 $38 #
plane-surface $-1 0 32.617009594779269 0 0 -1 0 0 0 -1 forward_v I I I I #
coedge $-1 $99 $100 $101 $102 forward $39 $-1 #
face $-1 $103 $104 $23 $-1 $105 reversed single #
loop $-1 $-1 $106 $41 #
plane-surface $-1 0 0 11.951839069875048 0 0 1 1 0 0 forward_v I I I I #
coedge $-1 $107 $108 $109 $110 forward $42 $-1 #
face $-1 $111 $112 $24 $-1 $113 reversed single #
loop $-1 $-1 $114 $44 #
plane-surface $-1 -45.928586291277838 -15.092131317750571 46.258990216074366 0 0.68199836817093118 0.7313536940579346 1 0 0 forward_v I I I I #
coedge $-1 $115 $116 $117 $118 reversed $45 $-1 #
face $-1 $-1 $119 $25 $-1 $120 forward single #
loop $-1 $121 $122 $47 #
cone-surface $-1 -53.63648687732131 22.101134176072968 1.4384900045136906 0 -0.68199836817093118 -0.7313536940579346 1 0 0 1 I I -0.70710678118654768 0.70710678118654735 1 forward I I I I #
loop $-1 $-1 $123 $32 #
coedge $-1 $76 $76 $124 $125 reversed $48 $-1 #
face $-1 $-1 $126 $26 $-1 $127 forward single #
loop $-1 $128 $129 $50 #
cone-surface $-1 -45.928586291277838 22.101134176072968 1.4384900045136906 0 -0.68199836817093118 -0.7313536940579346 1 0 0 1 I I -0.70710678118654768 0.70710678118654735 1 forward I I I I #
loop $-1 $-1 $130 $33 #
coedge $-1 $81 $81 $131 $132 reversed $51 $-1 #
face $-1 $-1 $133 $27 $-1 $134 forward single #
loop $-1 $135 $136 $53 #
cone-surface $-1 -38.220685705234366 22.101134176072968 1.4384900045136906 0 -0.68199836817093118 -0.7313536940579346 1 0 0 1 I I -0.70710678118654768 0.70710678118654735 1 forward I I I I #
loop $-1 $-1 $137 $34 #
coedge $-1 $86 $86 $138 $139 reversed $54 $-1 #
face $-1 $140 $141 $21 $-1 $142 reversed single #
loop $-1 $-1 $143 $56 #
plane-surface $-1 0 -32.617009594779269 0 0 1 0 0 0 1 forward_v I I I I #
coedge $-1 $144 $145 $146 $147 forward $57 $-1 #
coedge $-1 $148 $59 $149 $150 forward $36 $-1 #
coedge $-1 $59 $148 $151 $152 forward $36 $-1 #
coedge $-1 $153 $154 $59 $94 reversed $155 $-1 #
edge $-1 $156 -32.617009594779269 $157 32.617009594779269 $93 $158 forward 7 unknown #
face $-1 $159 $160 $22 $-1 $161 reversed single #
loop $-1 $-1 $101 $60 #
plane-surface $-1 -79.847357333428278 0 5.5405876482864453 0 0 1 1 0 0 forward_v I I I I #
coedge $-1 $162 $163 $99 $164 forward $61 $-1 #
coedge $-1 $165 $63 $98 $164 reversed $39 $-1 #
coedge $-1 $63 $165 $166 $167 reversed $39 $-1 #
coedge $-1 $168 $169 $63 $102 reversed $96 $-1 #
edge $-1 $170 -32.617009594779269 $171 32.617009594779269 $101 $172 forward 7 unknown #
face $-1 $173 $174 $23 $-1 $175 reversed single #
loop $-1 $-1 $176 $64 #
plane-surface $-1 0 -32.617009594779269 0 0 1 0 0 0 1 forward_v I I I I #
coedge $-1 $177 $178 $179 $180 forward $65 $-1 #
coedge $-1 $179 $67 $176 $181 reversed $42 $-1 #
coedge $-1 $67 $179 $182 $183 reversed $42 $-1 #
coedge $-1 $184 $185 $67 $110 reversed $174 $-1 #
edge $-1 $186 -32.617009594779269 $187 32.617009594779269 $109 $188 forward 7 unknown #
face $-1 $189 $190 $24 $-1 $191 reversed single #
loop $-1 $-1 $192 $68 #
plane-surface $-1 -33.082085314538723 84.238567625056277 152.7781213395244 -1 0 0 0 0.68199836817093118 0.7313536940579346 forward_v I I I I #
coedge $-1 $193 $194 $195 $196 reversed $69 $-1 #
coedge $-1 $116 $71 $197 $198 reversed $45 $-1 #
coedge $-1 $71 $115 $193 $199 reversed $45 $-1 #
coedge $-1 $195 $200 $71 $118 forward $201 $-1 #
edge $-1 $202 9.5022742177488695 $203 20.421500528770117 $117 $204 forward 7 unknown #
loop $-1 $-1 $124 $72 #
plane-surface $-1 -45.928586291277838 -15.092131317750571 46.258990216074366 0 0.68199836817093118 0.7313536940579346 1 0 0 forward_v I I I I #
loop $-1 $-1 $205 $47 #
coedge $-1 $122 $122 $123 $206 reversed $73 $-1 #
coedge $-1 $123 $123 $122 $206 forward $75 $-1 #
coedge $-1 $124 $124 $76 $125 forward $119 $-1 #
edge $-1 $207 4.3039089147970852e-016 $207 6.2831853071796004 $124 $208 forward 7 unknown #
loop $-1 $-1 $131 $77 #
plane-surface $-1 -45.928586291277838 -15.092131317750571 46.258990216074366 0 0.68199836817093118 0.7313536940579346 1 0 0 forward_v I I I I #
loop $-1 $-1 $209 $50 #
coedge $-1 $129 $129 $130 $210 reversed $78 $-1 #
coedge $-1 $130 $130 $129 $210 forward $80 $-1 #
coedge $-1 $131 $131 $81 $132 forward $126 $-1 #
edge $-1 $211 4.3039089147970852e-016 $211 6.2831853071796004 $131 $212 forward 7 unknown #
loop $-1 $-1 $138 $82 #
plane-surface $-1 -45.928586291277838 -15.092131317750571 46.258990216074366 0 0.68199836817093118 0.7313536940579346 1 0 0 forward_v I I I I #
loop $-1 $-1 $213 $53 #
coedge $-1 $136 $136 $137 $214 reversed $83 $-1 #
coedge $-1 $137 $137 $136 $214 forward $85 $-1 #
coedge $-1 $138 $138 $86 $139 forward $133 $-1 #
edge $-1 $215 4.3039089147970852e-016 $215 6.2831853071796004 $138 $216 forward 7 unknown #
face $-1 $217 $218 $21 $-1 $219 reversed single #
loop $-1 $-1 $220 $87 #
plane-surface $-1 -72.823267311624505 0 0 1 0 0 0 0 -1 forward_v I I I I #
coedge $-1 $221 $151 $222 $223 forward $88 $-1 #
coedge $-1 $224 $90 $221 $225 forward $57 $-1 #
coedge $-1 $90 $224 $226 $227 forward $57 $-1 #
coedge $-1 $154 $153 $90 $147 reversed $155 $-1 #
edge $-1 $228 -32.617009594779269 $229 32.617009594779269 $146 $230 forward 7 unknown #
coedge $-1 $92 $91 $231 $232 forward $36 $-1 #
coedge $-1 $233 $234 $91 $150 reversed $218 $-1 #
edge $-1 $157 -72.823267311624505 $235 72.823267311624505 $149 $236 forward 7 unknown #
coedge $-1 $143 $237 $92 $152 reversed $88 $-1 #
edge $-1 $238 -72.823267311624505 $156 72.823267311624505 $151 $239 forward 7 unknown #
coedge $-1 $146 $93 $237 $240 forward $155 $-1 #
coedge $-1 $93 $146 $233 $241 reversed $155 $-1 #
loop $-1 $-1 $153 $217 #
vertex $-1 $94 $242 #
vertex $-1 $94 $243 #
straight-curve $-1 72.823267311624505 0 11.951839069875048 0 1 0 I I #
face $-1 $244 $245 $22 $-1 $246 forward single #
loop $-1 $-1 $247 $95 #
plane-surface $-1 -86.87144735523205 0 8.7462133590807465 1 0 0 0 0 -1 forward_v I I I I #
coedge $-1 $248 $98 $169 $249 reversed $61 $-1 #
coedge $-1 $98 $248 $250 $251 reversed $61 $-1 #
edge $-1 $252 -11.951839069875048 $171 -5.5405876482864453 $98 $253 forward 7 unknown #
coedge $-1 $100 $99 $254 $255 reversed $39 $-1 #
coedge $-1 $256 $257 $100 $167 forward $258 $-1 #
edge $-1 $170 5.5405876482864453 $259 11.951839069875048 $166 $260 forward 7 unknown #
coedge $-1 $261 $101 $257 $262 forward $96 $-1 #
coedge $-1 $101 $261 $162 $249 forward $96 $-1 #
vertex $-1 $167 $263 #
vertex $-1 $164 $264 #
straight-curve $-1 -72.823267311624505 0 5.5405876482864453 0 1 0 I I #
face $-1 $265 $266 $23 $-1 $267 reversed single #
loop $-1 $-1 $268 $103 #
plane-surface $-1 79.847357333428278 0 5.5405876482864453 0 0 1 1 0 0 forward_v I I I I #
coedge $-1 $269 $270 $107 $181 forward $104 $-1 #
coedge $-1 $271 $106 $270 $272 forward $65 $-1 #
coedge $-1 $106 $271 $273 $274 forward $65 $-1 #
coedge $-1 $108 $107 $106 $180 reversed $42 $-1 #
edge $-1 $275 -32.617009594779269 $276 32.617009594779269 $106 $277 forward 7 unknown #
edge $-1 $276 -11.951839069875048 $187 -5.5405876482864453 $176 $278 forward 7 unknown #
coedge $-1 $273 $279 $108 $183 forward $280 $-1 #
edge $-1 $186 5.5405876482864453 $275 11.951839069875048 $182 $281 forward 7 unknown #
coedge $-1 $268 $109 $279 $282 forward $174 $-1 #
coedge $-1 $109 $268 $269 $283 forward $174 $-1 #
vertex $-1 $183 $284 #
vertex $-1 $181 $285 #
straight-curve $-1 72.823267311624505 0 5.5405876482864453 0 -1 0 I I #
face $-1 $-1 $201 $24 $-1 $286 forward single #
loop $-1 $-1 $287 $111 #
plane-surface $-1 0 32.617009594779269 0 0 -1 0 0 0 -1 forward_v I I I I #
coedge $-1 $288 $289 $290 $291 reversed $112 $-1 #
coedge $-1 $292 $114 $116 $199 forward $69 $-1 #
coedge $-1 $114 $292 $288 $293 forward $69 $-1 #
coedge $-1 $290 $117 $114 $196 forward $201 $-1 #
edge $-1 $203 -35.810794122378034 $294 -10.117792168899804 $195 $295 forward 7 unknown #
coedge $-1 $296 $297 $115 $198 forward $190 $-1 #
edge $-1 $298 -74.61956509019798 $202 -64.437221599887152 $197 $299 forward 7 unknown #
edge $-1 $203 50.303861046190676 $298 65.234019189558552 $116 $300 forward 7 unknown #
coedge $-1 $117 $290 $296 $301 forward $201 $-1 #
loop $-1 $-1 $290 $189 #
vertex $-1 $198 $302 #
vertex $-1 $118 $303 #
straight-curve $-1 -58.775087268016954 42.119283812528138 11.951839069875049 0 -1 0 I I #
coedge $-1 $205 $205 $-1 $304 reversed $121 $-1 #
edge $-1 $305 0 $305 6.2831853071796004 $122 $306 forward 7 unknown #
vertex $-1 $125 $307 #
ellipse-curve $-1 -53.63648687732131 27.157396439268645 6.8606673247196408 0 0.68199836817093118 0.7313536940579346 2 0 0 1 I I #
coedge $-1 $209 $209 $-1 $308 reversed $128 $-1 #
edge $-1 $309 0 $309 6.2831853071796004 $129 $310 forward 7 unknown #
vertex $-1 $132 $311 #
ellipse-curve $-1 -45.928586291277838 27.157396439268645 6.8606673247196408 0 0.68199836817093118 0.7313536940579346 2 0 0 1 I I #
coedge $-1 $213 $213 $-1 $312 reversed $135 $-1 #
edge $-1 $313 0 $313 6.2831853071796004 $136 $314 forward 7 unknown #
vertex $-1 $139 $315 #
ellipse-curve $-1 -38.220685705234366 27.157396439268645 6.8606673247196408 0 0.68199836817093118 0.7313536940579346 2 0 0 1 I I #
face $-1 $-1 $155 $21 $-1 $316 reversed single #
loop $-1 $-1 $233 $140 #
plane-surface $-1 0 32.617009594779269 0 0 -1 0 0 0 -1 forward_v I I I I #
coedge $-1 $317 $231 $234 $318 forward $141 $-1 #
coedge $-1 $237 $143 $144 $225 reversed $88 $-1 #
coedge $-1 $231 $317 $143 $223 reversed $141 $-1 #
edge $-1 $238 -11.951839069875048 $319 11.951839069875048 $222 $320 forward 7 unknown #
coedge $-1 $145 $144 $317 $321 forward $57 $-1 #
edge $-1 $229 -72.823267311624505 $319 72.823267311624505 $221 $322 forward 7 unknown #
coedge $-1 $234 $233 $145 $227 reversed $218 $-1 #
edge $-1 $323 -72.823267311624505 $228 72.823267311624505 $226 $324 forward 7 unknown #
vertex $-1 $147 $325 #
vertex $-1 $240 $326 #
straight-curve $-1 72.823267311624505 0 -11.951839069875048 0 -1 0 I I #
coedge $-1 $220 $222 $148 $232 reversed $141 $-1 #
edge $-1 $235 -32.617009594779269 $238 32.617009594779269 $231 $327 forward 7 unknown #
coedge $-1 $226 $149 $154 $241 forward $218 $-1 #
coedge $-1 $149 $226 $220 $318 reversed $218 $-1 #
vertex $-1 $150 $328 #
straight-curve $-1 0 32.617009594779269 11.951839069875048 -1 0 0 I I #
coedge $-1 $151 $221 $153 $240 reversed $88 $-1 #
vertex $-1 $232 $329 #
straight-curve $-1 0 -32.617009594779269 11.951839069875048 1 0 0 I I #
edge $-1 $156 -11.951839069875048 $229 11.951839069875048 $153 $330 forward 7 unknown #
edge $-1 $157 -11.951839069875048 $228 11.951839069875048 $154 $331 forward 7 unknown #
point $-1 72.823267311624505 -32.617009594779269 11.951839069875048 #
point $-1 72.823267311624505 32.617009594779269 11.951839069875048 #
face $-1 $-1 $258 $22 $-1 $332 reversed single #
loop $-1 $-1 $254 $159 #
plane-surface $-1 0 0 11.951839069875048 0 0 1 1 0 0 forward_v I I I I #
coedge $-1 $333 $334 $248 $335 forward $160 $-1 #
coedge $-1 $163 $162 $247 $335 reversed $61 $-1 #
edge $-1 $336 -7.0240900218037723 $171 7.0240900218037723 $162 $337 forward 7 unknown #
coedge $-1 $338 $254 $163 $251 forward $245 $-1 #
edge $-1 $252 72.823267311624505 $339 86.87144735523205 $163 $340 forward 7 unknown #
vertex $-1 $251 $341 #
straight-curve $-1 -72.823267311624505 32.617009594779269 0 0 0 -1 I I #
coedge $-1 $250 $342 $165 $255 forward $245 $-1 #
edge $-1 $259 -32.617009594779269 $252 32.617009594779269 $254 $343 forward 7 unknown #
coedge $-1 $344 $166 $342 $345 reversed $258 $-1 #
coedge $-1 $166 $344 $168 $262 reversed $258 $-1 #
loop $-1 $-1 $166 $244 #
vertex $-1 $167 $346 #
straight-curve $-1 -72.823267311624505 -32.617009594779269 0 0 0 1 I I #
coedge $-1 $169 $168 $333 $347 forward $96 $-1 #
edge $-1 $170 -7.0240900218037723 $348 7.0240900218037723 $257 $349 forward 7 unknown #
point $-1 -72.823267311624505 -32.617009594779269 5.5405876482864453 #
point $-1 -72.823267311624505 32.617009594779269 5.5405876482864453 #
face $-1 $-1 $280 $23 $-1 $350 reversed single #
loop $-1 $-1 $351 $173 #
plane-surface $-1 86.87144735523205 0 8.7462133590807465 -1 0 0 0 0 1 forward_v I I I I #
coedge $-1 $185 $184 $352 $353 forward $174 $-1 #
coedge $-1 $354 $176 $185 $283 reversed $104 $-1 #
coedge $-1 $176 $354 $177 $272 reversed $104 $-1 #
coedge $-1 $178 $177 $355 $356 forward $65 $-1 #
edge $-1 $276 -7.0240900218037723 $357 7.0240900218037723 $270 $358 forward 7 unknown #
coedge $-1 $359 $182 $178 $274 reversed $280 $-1 #
edge $-1 $360 -86.87144735523205 $275 -72.823267311624505 $273 $361 forward 7 unknown #
vertex $-1 $183 $362 #
vertex $-1 $272 $363 #
straight-curve $-1 72.823267311624505 0 11.951839069875048 0 -1 0 I I #
straight-curve $-1 72.823267311624505 -32.617009594779269 0 0 0 -1 I I #
coedge $-1 $182 $359 $184 $282 reversed $280 $-1 #
loop $-1 $-1 $182 $265 #
straight-curve $-1 72.823267311624505 32.617009594779269 0 0 0 1 I I #
edge $-1 $186 -7.0240900218037723 $364 7.0240900218037723 $279 $365 forward 7 unknown #
edge $-1 $366 -7.0240900218037723 $187 7.0240900218037723 $269 $367 forward 7 unknown #
point $-1 72.823267311624505 32.617009594779269 5.5405876482864453 #
point $-1 72.823267311624505 -32.617009594779269 5.5405876482864453 #
plane-surface $-1 0 0 11.951839069875048 0 0 1 1 0 0 forward_v I I I I #
coedge $-1 $297 $296 $289 $368 forward $190 $-1 #
coedge $-1 $289 $192 $194 $293 reversed $112 $-1 #
coedge $-1 $192 $288 $287 $368 reversed $112 $-1 #
coedge $-1 $200 $195 $192 $291 forward $201 $-1 #
edge $-1 $294 -20.421500528770117 $369 -9.5022742177488695 $290 $370 forward 7 unknown #
coedge $-1 $194 $193 $297 $371 reversed $69 $-1 #
edge $-1 $372 -65.234019189558552 $294 -50.303861046190676 $288 $373 forward 7 unknown #
vertex $-1 $196 $374 #
straight-curve $-1 -22.964293145638919 21.697783283758024 11.951839069875049 1 0 0 I I #
coedge $-1 $287 $197 $200 $301 reversed $190 $-1 #
coedge $-1 $197 $287 $292 $371 forward $190 $-1 #
vertex $-1 $198 $375 #
straight-curve $-1 -58.775087268016954 32.617009594779269 76.389060669762202 0 0 1 I I #
straight-curve $-1 -58.775087268016954 -15.092131317750571 46.258990216074366 0 0.7313536940579346 -0.68199836817093118 I I #
edge $-1 $369 33.082085314538723 $202 58.775087268016954 $296 $376 forward 7 unknown #
point $-1 -58.775087268016954 32.617009594779269 11.951839069875048 #
point $-1 -58.775087268016954 21.697783283758021 11.951839069875049 #
edge $-1 $377 1 $377 0 $205 $-1 forward 7 unknown #
vertex $-1 $206 $378 #
ellipse-curve $-1 -53.63648687732131 22.783132544243898 2.1698436985716247 0 0.68199836817093118 0.7313536940579346 2 0 0 1 I I #
point $-1 -51.63648687732131 27.157396439268638 6.8606673247196319 #
edge $-1 $379 1 $379 0 $209 $-1 forward 7 unknown #
vertex $-1 $210 $380 #
ellipse-curve $-1 -45.928586291277838 22.783132544243898 2.1698436985716247 0 0.68199836817093118 0.7313536940579346 2 0 0 1 I I #
point $-1 -43.928586291277838 27.157396439268638 6.8606673247196319 #
edge $-1 $381 1 $381 0 $213 $-1 forward 7 unknown #
vertex $-1 $214 $382 #
ellipse-curve $-1 -38.220685705234366 22.783132544243898 2.1698436985716247 0 0.68199836817093118 0.7313536940579346 2 0 0 1 I I #
point $-1 -36.220685705234366 27.157396439268638 6.8606673247196319 #
plane-surface $-1 72.823267311624505 0 0 -1 0 0 0 0 1 forward_v I I I I #
coedge $-1 $222 $220 $224 $321 reversed $141 $-1 #
edge $-1 $235 -11.951839069875048 $323 11.951839069875048 $234 $383 forward 7 unknown #
vertex $-1 $321 $384 #
straight-curve $-1 -72.823267311624505 -32.617009594779269 0 0 0 -1 I I #
edge $-1 $319 -32.617009594779269 $323 32.617009594779269 $317 $385 forward 7 unknown #
straight-curve $-1 0 -32.617009594779269 -11.951839069875048 -1 0 0 I I #
vertex $-1 $227 $386 #
straight-curve $-1 0 32.617009594779269 -11.951839069875048 1 0 0 I I #
point $-1 72.823267311624505 32.617009594779269 -11.951839069875048 #
point $-1 72.823267311624505 -32.617009594779269 -11.951839069875048 #
straight-curve $-1 -72.823267311624505 0 11.951839069875048 0 -1 0 I I #
point $-1 -72.823267311624505 32.617009594779269 11.951839069875048 #
point $-1 -72.823267311624505 -32.617009594779269 11.951839069875048 #
straight-curve $-1 72.823267311624505 -32.617009594779269 0 0 0 -1 I I #
straight-curve $-1 72.823267311624505 32.617009594779269 0 0 0 -1 I I #
plane-surface $-1 0 -32.617009594779269 0 0 1 0 0 0 1 forward_v I I I I #
coedge $-1 $387 $247 $261 $347 reversed $160 $-1 #
coedge $-1 $247 $387 $338 $388 reversed $160 $-1 #
edge $-1 $339 -3.2056257107943011 $336 3.2056257107943011 $248 $389 forward 7 unknown #
vertex $-1 $249 $390 #
straight-curve $-1 -79.847357333428278 32.617009594779269 5.5405876482864453 1 0 0 I I #
coedge $-1 $342 $250 $334 $388 forward $245 $-1 #
vertex $-1 $251 $391 #
straight-curve $-1 0 32.617009594779269 11.951839069875048 -1 0 0 I I #
point $-1 -72.823267311624505 32.617009594779269 11.951839069875048 #
coedge $-1 $254 $338 $256 $345 forward $245 $-1 #
straight-curve $-1 -72.823267311624505 0 11.951839069875048 0 1 0 I I #
coedge $-1 $257 $256 $387 $392 forward $258 $-1 #
edge $-1 $393 -86.87144735523205 $259 -72.823267311624505 $256 $394 forward 7 unknown #
point $-1 -72.823267311624505 -32.617009594779269 11.951839069875048 #
edge $-1 $348 -32.617009594779269 $336 32.617009594779269 $333 $395 forward 7 unknown #
vertex $-1 $347 $396 #
straight-curve $-1 -79.847357333428278 -32.617009594779269 5.5405876482864453 -1 0 0 I I #
plane-surface $-1 0 32.617009594779269 0 0 -1 0 0 0 -1 forward_v I I I I #
coedge $-1 $352 $355 $354 $397 forward $266 $-1 #
coedge $-1 $398 $351 $268 $353 reversed $266 $-1 #
edge $-1 $364 -32.617009594779269 $366 32.617009594779269 $352 $399 forward 7 unknown #
coedge $-1 $270 $269 $351 $397 reversed $104 $-1 #
coedge $-1 $351 $398 $271 $356 reversed $266 $-1 #
edge $-1 $357 -32.617009594779269 $360 32.617009594779269 $355 $400 forward 7 unknown #
vertex $-1 $356 $401 #
straight-curve $-1 79.847357333428278 -32.617009594779269 11.951839069875048 1 0 0 I I #
coedge $-1 $279 $273 $398 $402 forward $280 $-1 #
vertex $-1 $356 $403 #
straight-curve $-1 0 32.617009594779269 11.951839069875048 -1 0 0 I I #
point $-1 72.823267311624505 32.617009594779269 11.951839069875048 #
point $-1 72.823267311624505 -32.617009594779269 11.951839069875048 #
vertex $-1 $353 $404 #
straight-curve $-1 79.847357333428278 32.617009594779269 5.5405876482864453 1 0 0 I I #
vertex $-1 $397 $405 #
straight-curve $-1 79.847357333428278 -32.617009594779269 5.5405876482864453 -1 0 0 I I #
edge $-1 $369 64.437221599887152 $372 74.61956509019798 $287 $406 forward 7 unknown #
vertex $-1 $301 $407 #
straight-curve $-1 -33.082085314538723 42.119283812528138 11.951839069875049 0 1 0 I I #
edge $-1 $372 10.117792168899804 $298 35.810794122378034 $297 $408 forward 7 unknown #
vertex $-1 $371 $409 #
straight-curve $-1 -33.082085314538723 -15.092131317750571 46.258990216074366 0 -0.7313536940579346 0.68199836817093118 I I #
point $-1 -33.082085314538723 21.697783283758021 11.951839069875049 #
point $-1 -58.775087268016954 32.617009594779269 1.7694955795642215 #
straight-curve $-1 0 32.617009594779269 11.951839069875048 -1 0 0 I I #
vertex $-1 $304 $410 #
point $-1 -51.63648687732131 22.783132544243898 2.1698436985716247 #
vertex $-1 $308 $411 #
point $-1 -43.928586291277838 22.783132544243898 2.1698436985716247 #
vertex $-1 $312 $412 #
point $-1 -36.220685705234366 22.783132544243898 2.1698436985716247 #
straight-curve $-1 -72.823267311624505 32.617009594779269 0 0 0 -1 I I #
point $-1 -72.823267311624505 -32.617009594779269 -11.951839069875048 #
straight-curve $-1 -72.823267311624505 0 -11.951839069875048 0 1 0 I I #
point $-1 -72.823267311624505 32.617009594779269 -11.951839069875048 #
coedge $-1 $334 $333 $344 $392 reversed $160 $-1 #
edge $-1 $339 -32.617009594779269 $393 32.617009594779269 $334 $413 forward 7 unknown #
straight-curve $-1 -86.87144735523205 32.617009594779269 8.7462133590807465 0 0 -1 I I #
point $-1 -86.87144735523205 32.617009594779269 5.5405876482864453 #
point $-1 -86.87144735523205 32.617009594779269 11.951839069875048 #
edge $-1 $393 -3.2056257107943011 $348 3.2056257107943011 $387 $414 forward 7 unknown #
vertex $-1 $388 $415 #
straight-curve $-1 0 -32.617009594779269 11.951839069875048 1 0 0 I I #
straight-curve $-1 -86.87144735523205 0 5.5405876482864453 0 1 0 I I #
point $-1 -86.87144735523205 -32.617009594779269 5.5405876482864453 #
edge $-1 $357 -3.2056257107943011 $366 3.2056257107943011 $351 $416 forward 7 unknown #
coedge $-1 $355 $352 $359 $402 reversed $266 $-1 #
straight-curve $-1 86.87144735523205 0 5.5405876482864453 0 -1 0 I I #
straight-curve $-1 86.87144735523205 0 11.951839069875048 0 1 0 I I #
point $-1 86.87144735523205 -32.617009594779269 11.951839069875048 #
edge $-1 $360 -3.2056257107943011 $364 3.2056257107943011 $398 $417 forward 7 unknown #
point $-1 86.87144735523205 32.617009594779269 11.951839069875048 #
point $-1 86.87144735523205 32.617009594779269 5.5405876482864453 #
point $-1 86.87144735523205 -32.617009594779269 5.5405876482864453 #
straight-curve $-1 -33.082085314538723 32.617009594779269 76.389060669762202 0 0 -1 I I #
point $-1 -33.082085314538723 32.617009594779269 11.951839069875048 #
straight-curve $-1 -22.964293145638919 32.617009594779269 1.7694955795642251 -1 0 0 I I #
point $-1 -33.082085314538723 32.617009594779269 1.7694955795642215 #
point $-1 -53.63648687732131 21.419135807902038 0.70713631045575631 #
point $-1 -45.928586291277838 21.419135807902038 0.70713631045575631 #
point $-1 -38.220685705234366 21.419135807902038 0.70713631045575631 #
straight-curve $-1 -86.87144735523205 0 11.951839069875048 0 -1 0 I I #
straight-curve $-1 -86.87144735523205 -32.617009594779269 8.7462133590807465 0 0 -1 I I #
point $-1 -86.87144735523205 -32.617009594779269 11.951839069875048 #
straight-curve $-1 86.87144735523205 -32.617009594779269 8.7462133590807465 0 0 -1 I I #
straight-curve $-1 86.87144735523205 32.617009594779269 8.7462133590807465 0 0 -1 I I #
End-of-ACIS-data 