500 0 13 0           
7 Unknown 11 ACIS 5.0 NT 24 Thu Mar 25 21:07:44 1999 
-1 9.9999999999999995e-007 1e-010 
body $-1 $13 $-1 $14 #
body $-1 $15 $-1 $16 #
body $-1 $17 $-1 $18 #
body $-1 $19 $-1 $20 #
body $-1 $21 $-1 $22 #
body $-1 $23 $-1 $24 #
body $-1 $25 $-1 $26 #
body $-1 $27 $-1 $28 #
body $-1 $29 $-1 $30 #
body $-1 $31 $-1 $32 #
body $-1 $33 $-1 $34 #
body $-1 $35 $-1 $36 #
body $-1 $37 $-1 $38 #
lump $-1 $-1 $39 $0 #
transform $-1 1 0 0 0 1 0 0 0 1 48.902859584337904 26.880230527285121 6.7736671494749592 1 rotate no_reflect no_shear #
lump $-1 $-1 $40 $1 #
transform $-1 1 0 0 0 1 0 0 0 1 48.902859584337904 26.880230527285121 6.7736671494749592 1 rotate no_reflect no_shear #
lump $-1 $-1 $41 $2 #
transform $-1 1 0 0 0 1 0 0 0 1 48.902859584337904 26.880230527285121 6.7736671494749592 1 rotate no_reflect no_shear #
lump $-1 $-1 $42 $3 #
transform $-1 1 0 0 0 1 0 0 0 1 48.902859584337904 26.880230527285121 6.7736671494749592 1 rotate no_reflect no_shear #
lump $-1 $-1 $43 $4 #
transform $-1 1 0 0 0 1 0 0 0 1 48.902859584337904 26.880230527285121 6.7736671494749592 1 rotate no_reflect no_shear #
lump $-1 $-1 $44 $5 #
transform $-1 1 0 0 0 1 0 0 0 1 48.902859584337904 26.880230527285121 6.7736671494749592 1 rotate no_reflect no_shear #
lump $-1 $-1 $45 $6 #
transform $-1 1 0 0 0 1 0 0 0 1 48.902859584337904 26.880230527285121 6.7736671494749592 1 rotate no_reflect no_shear #
lump $-1 $-1 $46 $7 #
transform $-1 1 0 0 0 1 0 0 0 1 48.902859584337904 26.880230527285121 6.7736671494749592 1 rotate no_reflect no_shear #
lump $-1 $-1 $47 $8 #
transform $-1 1 0 0 0 1 0 0 0 1 48.902859584337904 26.880230527285121 6.7736671494749592 1 rotate no_reflect no_shear #
lump $-1 $-1 $48 $9 #
transform $-1 1 0 0 0 1 0 0 0 1 48.902859584337904 26.880230527285121 6.7736671494749592 1 rotate no_reflect no_shear #
lump $-1 $-1 $49 $10 #
transform $-1 1 0 0 0 1 0 0 0 1 48.902859584337904 26.880230527285121 6.7736671494749592 1 rotate no_reflect no_shear #
lump $-1 $-1 $50 $11 #
transform $-1 1 0 0 0 1 0 0 0 1 48.902859584337904 26.880230527285121 6.7736671494749592 1 rotate no_reflect no_shear #
lump $-1 $-1 $51 $12 #
transform $-1 1 0 0 0 1 0 0 0 1 48.902859584337904 26.880230527285121 6.7736671494749592 1 rotate no_reflect no_shear #
shell $-1 $-1 $-1 $52 $-1 $13 #
shell $-1 $-1 $-1 $53 $-1 $15 #
shell $-1 $-1 $-1 $54 $-1 $17 #
shell $-1 $-1 $-1 $55 $-1 $19 #
shell $-1 $-1 $-1 $56 $-1 $21 #
shell $-1 $-1 $-1 $57 $-1 $23 #
shell $-1 $-1 $-1 $58 $-1 $25 #
shell $-1 $-1 $-1 $59 $-1 $27 #
shell $-1 $-1 $-1 $60 $-1 $29 #
shell $-1 $-1 $-1 $61 $-1 $31 #
shell $-1 $-1 $-1 $62 $-1 $33 #
shell $-1 $-1 $-1 $63 $-1 $35 #
shell $-1 $-1 $-1 $64 $-1 $37 #
face $-1 $65 $66 $39 $-1 $67 forward single #
face $-1 $68 $69 $40 $-1 $70 reversed single #
face $-1 $71 $72 $41 $-1 $73 reversed single #
face $-1 $74 $75 $42 $-1 $76 reversed single #
face $-1 $77 $78 $43 $-1 $79 forward single #
face $-1 $80 $81 $44 $-1 $82 forward single #
face $-1 $83 $84 $45 $-1 $85 forward single #
face $-1 $86 $87 $46 $-1 $88 reversed single #
face $-1 $89 $90 $47 $-1 $91 forward single #
face $-1 $92 $93 $48 $-1 $94 forward single #
face $-1 $95 $96 $49 $-1 $97 reversed single #
face $-1 $98 $99 $50 $-1 $100 forward single #
face $-1 $101 $102 $51 $-1 $103 forward single #
face $-1 $104 $105 $39 $-1 $106 reversed single #
loop $-1 $-1 $107 $52 #
plane-surface $-1 0 0 6.7736671494749592 0 0 1 1 0 0 forward_v I I I I #
face $-1 $108 $109 $40 $-1 $110 reversed single #
loop $-1 $-1 $111 $53 #
plane-surface $-1 -38.855525285387984 -23.341131563214205 0 1 0 0 0 0 -1 forward_v I I I I #
face $-1 $112 $113 $41 $-1 $114 reversed single #
loop $-1 $-1 $115 $54 #
plane-surface $-1 -37.355525285387984 19.802032599143288 0 0 1 0 0 0 1 forward_v I I I I #
face $-1 $116 $117 $42 $-1 $118 reversed single #
loop $-1 $-1 $119 $55 #
plane-surface $-1 84.70223950235993 -10.366737447255133 135.96751091459598 0 -1 0 -0.86602541151947299 0 -0.49999998660252726 forward_v I I I I #
face $-1 $120 $121 $43 $-1 $122 forward single #
loop $-1 $123 $124 $56 #
cone-surface $-1 47.196427956915421 -15.286634131899339 4.3180408057347472 -0.86602541151947299 0 -0.49999998660252726 0.24999999330126363 0 -0.43301270575973649 1 I I 0 1 0.5 forward I I I I #
face $-1 $125 $126 $44 $-1 $127 forward single #
loop $-1 $128 $129 $57 #
cone-surface $-1 47.196427956915421 -13.441672875157764 4.3180408057347472 -0.86602541151947299 0 -0.49999998660252726 0.24999999330126363 0 -0.43301270575973649 1 I I 0 1 0.5 forward I I I I #
face $-1 $130 $131 $45 $-1 $132 forward single #
loop $-1 $133 $134 $58 #
cone-surface $-1 47.196427956915421 -11.596711618416187 4.3180408057347472 -0.86602541151947299 0 -0.49999998660252726 0.24999999330126363 0 -0.43301270575973649 1 I I 0 1 0.5 forward I I I I #
face $-1 $135 $136 $46 $-1 $137 reversed single #
loop $-1 $-1 $138 $59 #
plane-surface $-1 -134.44566978597553 -19.802032599143285 50.420699671582682 0 1 0 -0.87461971476443456 0 0.48480960649040278 forward_v I I I I #
face $-1 $139 $140 $47 $-1 $141 forward single #
loop $-1 $142 $143 $60 #
cone-surface $-1 -46.425856523987754 -17.742186459627064 4.0947827985580041 0.87461971476443456 0 -0.48480960649040278 0.48480960649040278 0 0.87461971476443456 1 I I 0 1 1 forward I I I I #
face $-1 $144 $145 $48 $-1 $146 forward single #
loop $-1 $147 $148 $61 #
cone-surface $-1 -46.425856523987754 -14.652417250352729 4.0947827985580041 0.87461971476443456 0 -0.48480960649040278 0.48480960649040278 0 0.87461971476443456 1 I I 0 1 1 forward I I I I #
face $-1 $149 $150 $49 $-1 $151 reversed single #
loop $-1 $-1 $152 $62 #
plane-surface $-1 -134.44566978597553 12.592571110836513 50.420699671582682 0 1 0 -0.87461971476443456 0 0.48480960649040278 forward_v I I I I #
face $-1 $153 $154 $50 $-1 $155 forward single #
loop $-1 $156 $157 $63 #
cone-surface $-1 -46.425856523987754 14.652417250352734 4.0947827985580041 0.87461971476443456 0 -0.48480960649040278 0.48480960649040278 0 0.87461971476443456 1 I I 0 1 1 forward I I I I #
face $-1 $158 $159 $51 $-1 $160 forward single #
loop $-1 $161 $162 $64 #
cone-surface $-1 -46.425856523987754 17.742186459627071 4.0947827985580041 0.87461971476443456 0 -0.48480960649040278 0.48480960649040278 0 0.87461971476443456 1 I I 0 1 1 forward I I I I #
face $-1 $163 $164 $39 $-1 $165 reversed single #
loop $-1 $-1 $166 $65 #
plane-surface $-1 0 0 -6.7736671494749592 0 0 1 1 0 0 forward_v I I I I #
coedge $-1 $167 $168 $169 $170 forward $66 $-1 #
face $-1 $171 $172 $40 $-1 $173 reversed single #
loop $-1 $-1 $174 $68 #
plane-surface $-1 -37.355525285387984 -19.802032599143288 0 0 -1 0 0 0 -1 forward_v I I I I #
coedge $-1 $175 $176 $177 $178 forward $69 $-1 #
face $-1 $179 $180 $41 $-1 $181 reversed single #
loop $-1 $-1 $182 $71 #
plane-surface $-1 -38.855525285387984 23.341131563214205 0 1 0 0 0 0 -1 forward_v I I I I #
coedge $-1 $183 $184 $185 $186 forward $72 $-1 #
face $-1 $187 $188 $42 $-1 $189 reversed single #
loop $-1 $-1 $190 $74 #
plane-surface $-1 1.3103494609367772e-006 -13.44167287515776 87.064652640607534 0.86602541151947299 0 0.49999998660252726 0.49999998660252726 0 -0.86602541151947299 forward_v I I I I #
coedge $-1 $191 $192 $193 $194 reversed $75 $-1 #
face $-1 $-1 $195 $43 $-1 $196 forward single #
loop $-1 $197 $198 $77 #
cone-surface $-1 46.546908898275817 -15.286634131899339 3.9430408157828518 -0.86602541151947299 0 -0.49999998660252726 0.12499999665063181 0 -0.21650635287986825 1 I I -0.70710678118654746 0.70710678118654746 0.25 forward I I I I #
loop $-1 $-1 $199 $56 #
coedge $-1 $124 $124 $200 $201 reversed $78 $-1 #
face $-1 $-1 $202 $44 $-1 $203 forward single #
loop $-1 $204 $205 $80 #
cone-surface $-1 46.546908898275817 -13.441672875157764 3.9430408157828518 -0.86602541151947299 0 -0.49999998660252726 0.12499999665063181 0 -0.21650635287986825 1 I I -0.70710678118654746 0.70710678118654746 0.25 forward I I I I #
loop $-1 $-1 $206 $57 #
coedge $-1 $129 $129 $207 $208 reversed $81 $-1 #
face $-1 $-1 $209 $45 $-1 $210 forward single #
loop $-1 $211 $212 $83 #
cone-surface $-1 46.546908898275817 -11.596711618416187 3.9430408157828518 -0.86602541151947299 0 -0.49999998660252726 0.12499999665063181 0 -0.21650635287986825 1 I I -0.70710678118654746 0.70710678118654746 0.25 forward I I I I #
loop $-1 $-1 $213 $58 #
coedge $-1 $134 $134 $214 $215 reversed $84 $-1 #
face $-1 $216 $217 $46 $-1 $218 reversed single #
loop $-1 $-1 $219 $86 #
plane-surface $-1 -48.902859584337904 -16.197301854989895 3.0035474489061187 -0.87461971476443456 0 0.48480960649040278 0.48480960649040278 0 0.87461971476443456 forward_v I I I I #
coedge $-1 $220 $221 $222 $223 reversed $87 $-1 #
face $-1 $-1 $224 $47 $-1 $225 forward single #
loop $-1 $226 $227 $89 #
cone-surface $-1 -44.55644930504058 -17.742186459627064 3.0585534946802655 0.87461971476443456 0 -0.48480960649040278 0.24240480324520139 0 0.43730985738221728 1 I I -0.70710678118654746 0.70710678118654746 0.5 forward I I I I #
loop $-1 $-1 $228 $60 #
coedge $-1 $143 $143 $229 $230 reversed $90 $-1 #
face $-1 $-1 $231 $48 $-1 $232 forward single #
loop $-1 $233 $234 $92 #
cone-surface $-1 -44.55644930504058 -14.652417250352729 3.0585534946802655 0.87461971476443456 0 -0.48480960649040278 0.24240480324520139 0 0.43730985738221728 1 I I -0.70710678118654746 0.70710678118654746 0.5 forward I I I I #
loop $-1 $-1 $235 $61 #
coedge $-1 $148 $148 $236 $237 reversed $93 $-1 #
face $-1 $238 $239 $49 $-1 $240 reversed single #
loop $-1 $-1 $241 $95 #
plane-surface $-1 -48.902859584337904 16.197301854989902 3.0035474489061187 -0.87461971476443456 0 0.48480960649040278 0.48480960649040278 0 0.87461971476443456 forward_v I I I I #
coedge $-1 $242 $243 $244 $245 reversed $96 $-1 #
face $-1 $-1 $246 $50 $-1 $247 forward single #
loop $-1 $248 $249 $98 #
cone-surface $-1 -44.55644930504058 14.652417250352734 3.0585534946802655 0.87461971476443456 0 -0.48480960649040278 0.24240480324520139 0 0.43730985738221728 1 I I -0.70710678118654746 0.70710678118654746 0.5 forward I I I I #
loop $-1 $-1 $250 $63 #
coedge $-1 $157 $157 $251 $252 reversed $99 $-1 #
face $-1 $-1 $253 $51 $-1 $254 forward single #
loop $-1 $255 $256 $101 #
cone-surface $-1 -44.55644930504058 17.742186459627071 3.0585534946802655 0.87461971476443456 0 -0.48480960649040278 0.24240480324520139 0 0.43730985738221728 1 I I -0.70710678118654746 0.70710678118654746 0.5 forward I I I I #
loop $-1 $-1 $257 $64 #
coedge $-1 $162 $162 $258 $259 reversed $102 $-1 #
face $-1 $260 $261 $39 $-1 $262 reversed single #
loop $-1 $-1 $263 $104 #
plane-surface $-1 0 -26.880230527285121 0 0 1 0 0 0 1 forward_v I I I I #
coedge $-1 $264 $265 $266 $267 forward $105 $-1 #
coedge $-1 $268 $107 $269 $270 forward $66 $-1 #
coedge $-1 $107 $268 $271 $272 forward $66 $-1 #
coedge $-1 $273 $274 $107 $170 reversed $275 $-1 #
edge $-1 $276 -26.880230527285121 $277 26.880230527285121 $169 $278 forward 7 unknown #
face $-1 $279 $280 $40 $-1 $281 forward single #
loop $-1 $-1 $282 $108 #
plane-surface $-1 -35.855525285387984 -23.341131563214205 0 -1 0 0 0 0 1 forward_v I I I I #
coedge $-1 $283 $284 $285 $286 forward $109 $-1 #
coedge $-1 $287 $111 $288 $289 reversed $69 $-1 #
coedge $-1 $111 $287 $290 $291 reversed $69 $-1 #
coedge $-1 $284 $283 $111 $178 reversed $109 $-1 #
edge $-1 $292 -6.7736671494749592 $293 6.7736671494749592 $177 $294 forward 7 unknown #
face $-1 $295 $296 $41 $-1 $297 reversed single #
loop $-1 $-1 $298 $112 #
plane-surface $-1 -35.855525285387984 23.341131563214205 0 -1 0 0 0 0 1 forward_v I I I I #
coedge $-1 $299 $300 $301 $302 reversed $113 $-1 #
coedge $-1 $303 $115 $304 $305 reversed $72 $-1 #
coedge $-1 $115 $303 $306 $307 reversed $72 $-1 #
coedge $-1 $300 $299 $115 $186 reversed $113 $-1 #
edge $-1 $308 -6.7736671494749592 $309 6.7736671494749592 $185 $310 forward 7 unknown #
face $-1 $311 $312 $42 $-1 $313 forward single #
loop $-1 $-1 $314 $116 #
plane-surface $-1 84.70223950235993 -16.516608303060387 135.96751091459598 0 1 0 0.86602541151947299 0 0.49999998660252726 forward_v I I I I #
coedge $-1 $315 $316 $317 $318 reversed $117 $-1 #
coedge $-1 $192 $119 $319 $320 reversed $75 $-1 #
coedge $-1 $119 $191 $315 $321 reversed $75 $-1 #
coedge $-1 $317 $322 $119 $194 forward $312 $-1 #
edge $-1 $323 -6.5517398331579386 $324 -4.0049019898324687 $193 $325 forward 7 unknown #
loop $-1 $-1 $200 $120 #
plane-surface $-1 1.3103494609367772e-006 -13.44167287515776 87.064652640607534 0.86602541151947299 0 0.49999998660252726 0.49999998660252726 0 -0.86602541151947299 forward_v I I I I #
loop $-1 $-1 $326 $77 #
coedge $-1 $198 $198 $199 $327 reversed $121 $-1 #
coedge $-1 $199 $199 $198 $327 forward $123 $-1 #
coedge $-1 $200 $200 $124 $201 forward $195 $-1 #
edge $-1 $328 0 $328 6.2831853071796004 $200 $329 forward 7 unknown #
loop $-1 $-1 $207 $125 #
plane-surface $-1 1.3103494609367772e-006 -13.44167287515776 87.064652640607534 0.86602541151947299 0 0.49999998660252726 0.49999998660252726 0 -0.86602541151947299 forward_v I I I I #
loop $-1 $-1 $330 $80 #
coedge $-1 $205 $205 $206 $331 reversed $126 $-1 #
coedge $-1 $206 $206 $205 $331 forward $128 $-1 #
coedge $-1 $207 $207 $129 $208 forward $202 $-1 #
edge $-1 $332 0 $332 6.2831853071796004 $207 $333 forward 7 unknown #
loop $-1 $-1 $214 $130 #
plane-surface $-1 1.3103494609367772e-006 -13.44167287515776 87.064652640607534 0.86602541151947299 0 0.49999998660252726 0.49999998660252726 0 -0.86602541151947299 forward_v I I I I #
loop $-1 $-1 $334 $83 #
coedge $-1 $212 $212 $213 $335 reversed $131 $-1 #
coedge $-1 $213 $213 $212 $335 forward $133 $-1 #
coedge $-1 $214 $214 $134 $215 forward $209 $-1 #
edge $-1 $336 0 $336 6.2831853071796004 $214 $337 forward 7 unknown #
face $-1 $338 $339 $46 $-1 $340 reversed single #
loop $-1 $-1 $341 $135 #
plane-surface $-1 -134.44566978597553 -12.592571110836506 50.420699671582682 0 -1 0 0.87461971476443456 0 -0.48480960649040278 forward_v I I I I #
coedge $-1 $342 $343 $344 $345 reversed $136 $-1 #
coedge $-1 $221 $138 $346 $347 reversed $87 $-1 #
coedge $-1 $138 $220 $342 $348 reversed $87 $-1 #
coedge $-1 $344 $349 $138 $223 forward $350 $-1 #
edge $-1 $351 18.319975308649859 $352 20.409786706220267 $222 $353 forward 7 unknown #
loop $-1 $-1 $229 $139 #
plane-surface $-1 -48.902859584337904 -16.197301854989895 3.0035474489061187 -0.87461971476443456 0 0.48480960649040278 0.48480960649040278 0 0.87461971476443456 forward_v I I I I #
loop $-1 $-1 $354 $89 #
coedge $-1 $227 $227 $228 $355 reversed $140 $-1 #
coedge $-1 $228 $228 $227 $355 forward $142 $-1 #
coedge $-1 $229 $229 $143 $230 forward $224 $-1 #
edge $-1 $356 0 $356 6.2831853071796004 $229 $357 forward 7 unknown #
loop $-1 $-1 $236 $144 #
plane-surface $-1 -48.902859584337904 -16.197301854989895 3.0035474489061187 -0.87461971476443456 0 0.48480960649040278 0.48480960649040278 0 0.87461971476443456 forward_v I I I I #
loop $-1 $-1 $358 $92 #
coedge $-1 $234 $234 $235 $359 reversed $145 $-1 #
coedge $-1 $235 $235 $234 $359 forward $147 $-1 #
coedge $-1 $236 $236 $148 $237 forward $231 $-1 #
edge $-1 $360 0 $360 6.2831853071796004 $236 $361 forward 7 unknown #
face $-1 $362 $363 $49 $-1 $364 forward single #
loop $-1 $-1 $365 $149 #
plane-surface $-1 -134.44566978597553 19.802032599143292 50.420699671582682 0 -1 0 0.87461971476443456 0 -0.48480960649040278 forward_v I I I I #
coedge $-1 $366 $367 $368 $369 reversed $150 $-1 #
coedge $-1 $243 $152 $370 $371 reversed $96 $-1 #
coedge $-1 $152 $242 $366 $372 reversed $96 $-1 #
coedge $-1 $368 $373 $152 $245 forward $363 $-1 #
edge $-1 $374 18.319975308649859 $375 20.409786706220267 $244 $376 forward 7 unknown #
loop $-1 $-1 $251 $153 #
plane-surface $-1 -48.902859584337904 16.197301854989902 3.0035474489061187 -0.87461971476443456 0 0.48480960649040278 0.48480960649040278 0 0.87461971476443456 forward_v I I I I #
loop $-1 $-1 $377 $98 #
coedge $-1 $249 $249 $250 $378 reversed $154 $-1 #
coedge $-1 $250 $250 $249 $378 forward $156 $-1 #
coedge $-1 $251 $251 $157 $252 forward $246 $-1 #
edge $-1 $379 0 $379 6.2831853071796004 $251 $380 forward 7 unknown #
loop $-1 $-1 $258 $158 #
plane-surface $-1 -48.902859584337904 16.197301854989902 3.0035474489061187 -0.87461971476443456 0 0.48480960649040278 0.48480960649040278 0 0.87461971476443456 forward_v I I I I #
loop $-1 $-1 $381 $101 #
coedge $-1 $256 $256 $257 $382 reversed $159 $-1 #
coedge $-1 $257 $257 $256 $382 forward $161 $-1 #
coedge $-1 $258 $258 $162 $259 forward $253 $-1 #
edge $-1 $383 0 $383 6.2831853071796004 $258 $384 forward 7 unknown #
face $-1 $385 $386 $39 $-1 $387 reversed single #
loop $-1 $-1 $388 $163 #
plane-surface $-1 -48.902859584337904 0 0 1 0 0 0 0 -1 forward_v I I I I #
coedge $-1 $389 $271 $390 $391 forward $164 $-1 #
coedge $-1 $392 $166 $389 $393 forward $105 $-1 #
coedge $-1 $166 $392 $394 $395 forward $105 $-1 #
coedge $-1 $274 $273 $166 $267 reversed $275 $-1 #
edge $-1 $396 -26.880230527285121 $397 26.880230527285121 $266 $398 forward 7 unknown #
coedge $-1 $168 $167 $399 $400 forward $66 $-1 #
coedge $-1 $401 $402 $167 $270 reversed $386 $-1 #
edge $-1 $277 -48.902859584337904 $403 48.902859584337904 $269 $404 forward 7 unknown #
coedge $-1 $263 $405 $168 $272 reversed $164 $-1 #
edge $-1 $406 -48.902859584337904 $276 48.902859584337904 $271 $407 forward 7 unknown #
coedge $-1 $266 $169 $405 $408 forward $275 $-1 #
coedge $-1 $169 $266 $401 $409 reversed $275 $-1 #
loop $-1 $-1 $273 $385 #
vertex $-1 $170 $410 #
vertex $-1 $170 $411 #
straight-curve $-1 48.902859584337904 0 6.7736671494749592 0 1 0 I I #
face $-1 $412 $413 $40 $-1 $414 reversed single #
loop $-1 $-1 $415 $171 #
plane-surface $-1 0 0 6.7736671494749592 0 0 1 1 0 0 forward_v I I I I #
coedge $-1 $416 $417 $418 $419 reversed $172 $-1 #
coedge $-1 $177 $174 $420 $421 reversed $109 $-1 #
coedge $-1 $174 $177 $422 $423 reversed $109 $-1 #
coedge $-1 $417 $416 $174 $286 reversed $172 $-1 #
edge $-1 $424 -6.7736671494749592 $425 6.7736671494749592 $285 $426 forward 7 unknown #
coedge $-1 $176 $175 $427 $428 reversed $69 $-1 #
coedge $-1 $420 $429 $175 $289 forward $413 $-1 #
edge $-1 $430 -15.209664745678019 $293 -8.1314668175361859 $288 $431 forward 7 unknown #
coedge $-1 $432 $422 $176 $291 forward $280 $-1 #
edge $-1 $292 8.1314668175361859 $433 15.209664745678019 $290 $434 forward 7 unknown #
vertex $-1 $291 $435 #
vertex $-1 $289 $436 #
straight-curve $-1 -38.855525285387984 -19.802032599143288 0 0 0 -1 I I #
face $-1 $437 $438 $41 $-1 $439 forward single #
loop $-1 $-1 $440 $179 #
plane-surface $-1 0 0 -6.7736671494749592 0 0 1 1 0 0 forward_v I I I I #
coedge $-1 $441 $442 $303 $443 forward $180 $-1 #
coedge $-1 $185 $182 $444 $445 reversed $113 $-1 #
coedge $-1 $182 $185 $446 $447 reversed $113 $-1 #
coedge $-1 $448 $449 $182 $302 forward $450 $-1 #
edge $-1 $451 -6.7736671494749592 $452 6.7736671494749592 $301 $453 forward 7 unknown #
coedge $-1 $184 $183 $298 $443 reversed $72 $-1 #
coedge $-1 $444 $440 $183 $305 forward $296 $-1 #
edge $-1 $454 17.177762642693992 $309 20.177762642693992 $304 $455 forward 7 unknown #
coedge $-1 $456 $446 $184 $307 forward $438 $-1 #
edge $-1 $308 -20.177762642693992 $457 -17.177762642693992 $306 $458 forward 7 unknown #
vertex $-1 $307 $459 #
vertex $-1 $305 $460 #
straight-curve $-1 -38.855525285387984 19.802032599143288 0 0 0 -1 I I #
face $-1 $-1 $461 $42 $-1 $462 reversed single #
loop $-1 $-1 $193 $187 #
plane-surface $-1 0 0 6.7736671494749592 0 0 1 1 0 0 forward_v I I I I #
coedge $-1 $463 $464 $465 $466 reversed $188 $-1 #
coedge $-1 $467 $190 $192 $321 forward $117 $-1 #
coedge $-1 $190 $467 $463 $468 forward $117 $-1 #
coedge $-1 $465 $193 $190 $318 forward $312 $-1 #
edge $-1 $324 3.645901009676253 $469 9.7957718654815071 $317 $470 forward 7 unknown #
coedge $-1 $471 $472 $191 $320 forward $461 $-1 #
edge $-1 $473 -65.621341008700909 $323 -61.210088307823028 $319 $474 forward 7 unknown #
edge $-1 $324 92.712043345540096 $473 97.805719168675779 $192 $475 forward 7 unknown #
coedge $-1 $193 $465 $471 $476 forward $312 $-1 #
vertex $-1 $194 $477 #
vertex $-1 $194 $478 #
straight-curve $-1 42.351119751179965 -10.366737447255133 6.7736671494749601 -1 0 0 I I #
coedge $-1 $326 $326 $-1 $479 reversed $197 $-1 #
edge $-1 $480 0 $480 6.2831853071796004 $198 $481 forward 7 unknown #
vertex $-1 $201 $482 #
ellipse-curve $-1 47.629440662675165 -15.286634131899339 4.5680407990360141 0.86602541151947299 0 0.49999998660252726 0.24999999330126363 0 -0.43301270575973649 1 I I #
coedge $-1 $330 $330 $-1 $483 reversed $204 $-1 #
edge $-1 $484 0 $484 6.2831853071796004 $205 $485 forward 7 unknown #
vertex $-1 $208 $486 #
ellipse-curve $-1 47.629440662675165 -13.441672875157764 4.5680407990360141 0.86602541151947299 0 0.49999998660252726 0.24999999330126363 0 -0.43301270575973649 1 I I #
coedge $-1 $334 $334 $-1 $487 reversed $211 $-1 #
edge $-1 $488 0 $488 6.2831853071796004 $212 $489 forward 7 unknown #
vertex $-1 $215 $490 #
ellipse-curve $-1 47.629440662675165 -11.596711618416187 4.5680407990360141 0.86602541151947299 0 0.49999998660252726 0.24999999330126363 0 -0.43301270575973649 1 I I #
face $-1 $-1 $350 $46 $-1 $491 forward single #
loop $-1 $-1 $492 $216 #
plane-surface $-1 -48.902859584337904 0 0 1 0 0 0 0 -1 forward_v I I I I #
coedge $-1 $493 $494 $495 $496 reversed $217 $-1 #
coedge $-1 $497 $219 $221 $348 forward $136 $-1 #
coedge $-1 $219 $497 $493 $498 forward $136 $-1 #
coedge $-1 $495 $222 $219 $345 forward $350 $-1 #
edge $-1 $352 -11.703381671648337 $499 -4.4939201833415581 $344 $500 forward 7 unknown #
coedge $-1 $501 $502 $220 $347 forward $339 $-1 #
edge $-1 $503 -22.206802386885222 $351 -18.436682686316381 $346 $504 forward 7 unknown #
edge $-1 $352 -4.3105816584345629 $503 0 $221 $505 forward 7 unknown #
coedge $-1 $222 $495 $501 $506 forward $350 $-1 #
loop $-1 $-1 $495 $338 #
vertex $-1 $347 $507 #
vertex $-1 $223 $508 #
straight-curve $-1 -67.222834892987763 -19.802032599143285 6.7736671494749601 1 0 0 I I #
coedge $-1 $354 $354 $-1 $509 reversed $226 $-1 #
edge $-1 $510 0 $510 6.2831853071796004 $227 $511 forward 7 unknown #
vertex $-1 $230 $512 #
ellipse-curve $-1 -47.857953885552703 -17.742186459627064 4.8886072991905376 -0.87461971476443456 0 0.48480960649040278 0.48480960649040278 0 0.87461971476443456 1 I I #
coedge $-1 $358 $358 $-1 $513 reversed $233 $-1 #
edge $-1 $514 0 $514 6.2831853071796004 $234 $515 forward 7 unknown #
vertex $-1 $237 $516 #
ellipse-curve $-1 -47.857953885552703 -14.652417250352729 4.8886072991905376 -0.87461971476443456 0 0.48480960649040278 0.48480960649040278 0 0.87461971476443456 1 I I #
face $-1 $-1 $517 $49 $-1 $518 reversed single #
loop $-1 $-1 $244 $238 #
plane-surface $-1 0 0 6.7736671494749592 0 0 1 1 0 0 forward_v I I I I #
coedge $-1 $519 $520 $521 $522 reversed $239 $-1 #
coedge $-1 $523 $241 $243 $372 forward $150 $-1 #
coedge $-1 $241 $523 $519 $524 forward $150 $-1 #
coedge $-1 $521 $244 $241 $369 forward $363 $-1 #
edge $-1 $375 4.4939201833415616 $525 11.703381671648341 $368 $526 forward 7 unknown #
coedge $-1 $527 $528 $242 $371 forward $517 $-1 #
edge $-1 $529 -22.206802386885222 $374 -18.436682686316381 $370 $530 forward 7 unknown #
edge $-1 $375 -4.3105816584345629 $529 0 $243 $531 forward 7 unknown #
coedge $-1 $244 $521 $527 $532 forward $363 $-1 #
vertex $-1 $371 $533 #
vertex $-1 $245 $534 #
straight-curve $-1 -67.222834892987763 12.592571110836513 6.7736671494749601 1 0 0 I I #
coedge $-1 $377 $377 $-1 $535 reversed $248 $-1 #
edge $-1 $536 0 $536 6.2831853071796004 $249 $537 forward 7 unknown #
vertex $-1 $252 $538 #
ellipse-curve $-1 -47.857953885552703 14.652417250352734 4.8886072991905376 -0.87461971476443456 0 0.48480960649040278 0.48480960649040278 0 0.87461971476443456 1 I I #
coedge $-1 $381 $381 $-1 $539 reversed $255 $-1 #
edge $-1 $540 0 $540 6.2831853071796004 $256 $541 forward 7 unknown #
vertex $-1 $259 $542 #
ellipse-curve $-1 -47.857953885552703 17.742186459627071 4.8886072991905376 -0.87461971476443456 0 0.48480960649040278 0.48480960649040278 0 0.87461971476443456 1 I I #
face $-1 $-1 $275 $39 $-1 $543 reversed single #
loop $-1 $-1 $401 $260 #
plane-surface $-1 0 26.880230527285121 0 0 -1 0 0 0 -1 forward_v I I I I #
coedge $-1 $544 $399 $402 $545 forward $261 $-1 #
coedge $-1 $405 $263 $264 $393 reversed $164 $-1 #
coedge $-1 $399 $544 $263 $391 reversed $261 $-1 #
edge $-1 $406 -6.7736671494749592 $546 6.7736671494749592 $390 $547 forward 7 unknown #
coedge $-1 $265 $264 $544 $548 forward $105 $-1 #
edge $-1 $397 -48.902859584337904 $546 48.902859584337904 $389 $549 forward 7 unknown #
coedge $-1 $402 $401 $265 $395 reversed $386 $-1 #
edge $-1 $550 -48.902859584337904 $396 48.902859584337904 $394 $551 forward 7 unknown #
vertex $-1 $267 $552 #
vertex $-1 $408 $553 #
straight-curve $-1 48.902859584337904 0 -6.7736671494749592 0 -1 0 I I #
coedge $-1 $388 $390 $268 $400 reversed $261 $-1 #
edge $-1 $403 -26.880230527285121 $406 26.880230527285121 $399 $554 forward 7 unknown #
coedge $-1 $394 $269 $274 $409 forward $386 $-1 #
coedge $-1 $269 $394 $388 $545 reversed $386 $-1 #
vertex $-1 $270 $555 #
straight-curve $-1 0 26.880230527285121 6.7736671494749592 -1 0 0 I I #
coedge $-1 $271 $389 $273 $408 reversed $164 $-1 #
vertex $-1 $400 $556 #
straight-curve $-1 0 -26.880230527285121 6.7736671494749592 1 0 0 I I #
edge $-1 $276 -6.7736671494749592 $397 6.7736671494749592 $273 $557 forward 7 unknown #
edge $-1 $277 -6.7736671494749592 $396 6.7736671494749592 $274 $558 forward 7 unknown #
point $-1 48.902859584337904 -26.880230527285121 6.7736671494749592 #
point $-1 48.902859584337904 26.880230527285121 6.7736671494749592 #
face $-1 $-1 $559 $40 $-1 $560 reversed single #
loop $-1 $-1 $561 $279 #
plane-surface $-1 0 0 -6.7736671494749592 0 0 1 1 0 0 forward_v I I I I #
coedge $-1 $422 $432 $417 $562 forward $280 $-1 #
coedge $-1 $285 $282 $561 $563 reversed $172 $-1 #
coedge $-1 $282 $285 $415 $562 reversed $172 $-1 #
coedge $-1 $564 $565 $282 $419 forward $559 $-1 #
edge $-1 $566 -6.7736671494749592 $567 6.7736671494749592 $418 $568 forward 7 unknown #
coedge $-1 $561 $288 $283 $421 forward $413 $-1 #
edge $-1 $293 -20.177762642693992 $425 -17.177762642693992 $420 $569 forward 7 unknown #
coedge $-1 $290 $415 $284 $423 forward $280 $-1 #
edge $-1 $424 17.177762642693992 $292 20.177762642693992 $422 $570 forward 7 unknown #
vertex $-1 $423 $571 #
vertex $-1 $421 $572 #
straight-curve $-1 -35.855525285387984 -19.802032599143288 0 0 0 -1 I I #
coedge $-1 $565 $564 $287 $428 forward $559 $-1 #
edge $-1 $433 -6.7736671494749592 $430 6.7736671494749592 $427 $573 forward 7 unknown #
coedge $-1 $288 $561 $565 $574 forward $413 $-1 #
vertex $-1 $289 $575 #
straight-curve $-1 -38.855525285387984 -11.670565781607102 -6.7736671494749592 0 1 0 I I #
coedge $-1 $415 $290 $564 $576 forward $280 $-1 #
vertex $-1 $576 $577 #
straight-curve $-1 -38.855525285387984 -11.670565781607102 6.7736671494749592 0 -1 0 I I #
point $-1 -38.855525285387984 -19.802032599143288 6.7736671494749592 #
point $-1 -38.855525285387984 -19.802032599143288 -6.7736671494749592 #
face $-1 $-1 $450 $41 $-1 $578 reversed single #
loop $-1 $-1 $456 $295 #
plane-surface $-1 0 0 6.7736671494749592 0 0 1 1 0 0 forward_v I I I I #
coedge $-1 $304 $579 $441 $580 forward $296 $-1 #
coedge $-1 $581 $298 $440 $580 reversed $180 $-1 #
coedge $-1 $298 $581 $456 $582 reversed $180 $-1 #
edge $-1 $457 -6.7736671494749592 $454 6.7736671494749592 $298 $583 forward 7 unknown #
coedge $-1 $579 $304 $299 $445 forward $296 $-1 #
edge $-1 $309 8.1314668175361859 $451 15.209664745678019 $444 $584 forward 7 unknown #
coedge $-1 $306 $585 $300 $447 forward $438 $-1 #
edge $-1 $452 -15.209664745678019 $308 -8.1314668175361859 $446 $586 forward 7 unknown #
coedge $-1 $587 $301 $585 $588 reversed $450 $-1 #
coedge $-1 $301 $587 $579 $589 reversed $450 $-1 #
loop $-1 $-1 $587 $437 #
vertex $-1 $589 $590 #
vertex $-1 $302 $591 #
straight-curve $-1 -38.855525285387984 26.880230527285121 0 0 0 1 I I #
vertex $-1 $305 $592 #
straight-curve $-1 -18.677762642693992 19.802032599143288 -6.7736671494749592 -1 0 0 I I #
coedge $-1 $585 $306 $442 $582 forward $438 $-1 #
vertex $-1 $307 $593 #
straight-curve $-1 -18.677762642693992 19.802032599143288 6.7736671494749592 1 0 0 I I #
point $-1 -38.855525285387984 19.802032599143288 6.7736671494749592 #
point $-1 -38.855525285387984 19.802032599143288 -6.7736671494749592 #
loop $-1 $-1 $319 $311 #
plane-surface $-1 48.902859584337904 0 0 -1 0 0 0 0 1 forward_v I I I I #
coedge $-1 $464 $314 $316 $468 reversed $188 $-1 #
coedge $-1 $314 $463 $594 $595 reversed $188 $-1 #
coedge $-1 $322 $317 $314 $466 forward $312 $-1 #
edge $-1 $469 4.0049019898324687 $596 6.5517398331579386 $465 $597 forward 7 unknown #
coedge $-1 $316 $315 $472 $598 reversed $117 $-1 #
edge $-1 $599 -97.805719168675779 $469 -92.712043345540096 $463 $600 forward 7 unknown #
vertex $-1 $318 $601 #
straight-curve $-1 46.356021741012427 -6.7208364375788801 6.7736671494749672 0 -1 0 I I #
coedge $-1 $594 $319 $322 $476 reversed $461 $-1 #
coedge $-1 $319 $594 $467 $598 forward $461 $-1 #
vertex $-1 $320 $602 #
straight-curve $-1 48.902859584337904 -10.366737447255133 67.983755457297988 0 0 1 I I #
straight-curve $-1 1.3103494609367772e-006 -10.366737447255133 87.064652640607534 0.49999998660252726 0 -0.86602541151947299 I I #
edge $-1 $596 -16.516608303060387 $323 -10.366737447255133 $471 $603 forward 7 unknown #
point $-1 48.902859584337904 -10.366737447255133 6.7736671494749592 #
point $-1 46.356021741012434 -10.366737447255133 6.7736671494749601 #
edge $-1 $604 1 $604 0 $326 $-1 forward 7 unknown #
vertex $-1 $327 $605 #
ellipse-curve $-1 46.763415251155685 -15.286634131899339 4.0680408124334839 0.86602541151947299 0 0.49999998660252726 0.24999999330126363 0 -0.43301270575973649 1 I I #
point $-1 47.879440655976424 -15.286634131899339 4.135028093276274 #
edge $-1 $606 1 $606 0 $330 $-1 forward 7 unknown #
vertex $-1 $331 $607 #
ellipse-curve $-1 46.763415251155685 -13.441672875157764 4.0680408124334839 0.86602541151947299 0 0.49999998660252726 0.24999999330126363 0 -0.43301270575973649 1 I I #
point $-1 47.879440655976424 -13.441672875157764 4.135028093276274 #
edge $-1 $608 1 $608 0 $334 $-1 forward 7 unknown #
vertex $-1 $335 $609 #
ellipse-curve $-1 46.763415251155685 -11.596711618416187 4.0680408124334839 0.86602541151947299 0 0.49999998660252726 0.24999999330126363 0 -0.43301270575973649 1 I I #
point $-1 47.879440655976424 -11.596711618416187 4.135028093276274 #
plane-surface $-1 0 0 6.7736671494749592 0 0 1 1 0 0 forward_v I I I I #
coedge $-1 $502 $501 $494 $610 forward $339 $-1 #
coedge $-1 $494 $341 $343 $498 reversed $217 $-1 #
coedge $-1 $341 $493 $492 $610 reversed $217 $-1 #
coedge $-1 $349 $344 $341 $496 forward $350 $-1 #
edge $-1 $499 -20.409786706220267 $611 -18.319975308649859 $495 $612 forward 7 unknown #
coedge $-1 $343 $342 $502 $613 reversed $136 $-1 #
edge $-1 $614 0 $499 4.3105816584345629 $493 $615 forward 7 unknown #
vertex $-1 $345 $616 #
straight-curve $-1 -46.813048186767489 -8.0986509274949476 6.7736671494749618 0 1 0 I I #
coedge $-1 $492 $346 $349 $506 reversed $339 $-1 #
coedge $-1 $346 $492 $497 $613 forward $339 $-1 #
vertex $-1 $347 $617 #
straight-curve $-1 -48.902859584337904 -19.802032599143285 25.210349835791341 0 0 1 I I #
straight-curve $-1 -48.902859584337904 -19.802032599143285 3.0035474489061187 -0.48480960649040278 0 -0.87461971476443456 I I #
edge $-1 $611 12.592571110836506 $351 19.802032599143285 $501 $618 forward 7 unknown #
point $-1 -48.902859584337904 -19.802032599143285 6.7736671494749592 #
point $-1 -46.813048186767496 -19.802032599143285 6.7736671494749592 #
edge $-1 $619 1 $619 0 $354 $-1 forward 7 unknown #
vertex $-1 $355 $620 #
ellipse-curve $-1 -44.993759162422798 -17.742186459627064 3.300958297925467 -0.87461971476443456 0 0.48480960649040278 0.48480960649040278 0 0.87461971476443456 1 I I #
point $-1 -47.373144279062302 -17.742186459627064 5.7632270139549755 #
edge $-1 $621 1 $621 0 $358 $-1 forward 7 unknown #
vertex $-1 $359 $622 #
ellipse-curve $-1 -44.993759162422798 -14.652417250352729 3.300958297925467 -0.87461971476443456 0 0.48480960649040278 0.48480960649040278 0 0.87461971476443456 1 I I #
point $-1 -47.373144279062302 -14.652417250352729 5.7632270139549755 #
loop $-1 $-1 $370 $362 #
plane-surface $-1 -48.902859584337904 0 0 1 0 0 0 0 -1 forward_v I I I I #
coedge $-1 $520 $365 $367 $524 reversed $239 $-1 #
coedge $-1 $365 $519 $623 $624 reversed $239 $-1 #
coedge $-1 $373 $368 $365 $522 forward $363 $-1 #
edge $-1 $525 -20.409786706220267 $625 -18.319975308649859 $521 $626 forward 7 unknown #
coedge $-1 $367 $366 $528 $627 reversed $150 $-1 #
edge $-1 $628 0 $525 4.3105816584345629 $519 $629 forward 7 unknown #
vertex $-1 $369 $630 #
straight-curve $-1 -46.813048186767489 8.0986509274949512 6.7736671494749618 0 1 0 I I #
coedge $-1 $623 $370 $373 $532 reversed $517 $-1 #
coedge $-1 $370 $623 $523 $627 forward $517 $-1 #
vertex $-1 $371 $631 #
straight-curve $-1 -48.902859584337904 12.592571110836513 25.210349835791341 0 0 1 I I #
straight-curve $-1 -48.902859584337904 12.592571110836513 3.0035474489061187 -0.48480960649040278 0 -0.87461971476443456 I I #
edge $-1 $625 -19.802032599143292 $374 -12.592571110836513 $527 $632 forward 7 unknown #
point $-1 -48.902859584337904 12.592571110836513 6.7736671494749592 #
point $-1 -46.813048186767496 12.592571110836513 6.7736671494749592 #
edge $-1 $633 1 $633 0 $377 $-1 forward 7 unknown #
vertex $-1 $378 $634 #
ellipse-curve $-1 -44.993759162422798 14.652417250352734 3.300958297925467 -0.87461971476443456 0 0.48480960649040278 0.48480960649040278 0 0.87461971476443456 1 I I #
point $-1 -47.373144279062302 14.652417250352734 5.7632270139549755 #
edge $-1 $635 1 $635 0 $381 $-1 forward 7 unknown #
vertex $-1 $382 $636 #
ellipse-curve $-1 -44.993759162422798 17.742186459627071 3.300958297925467 -0.87461971476443456 0 0.48480960649040278 0.48480960649040278 0 0.87461971476443456 1 I I #
point $-1 -47.373144279062302 17.742186459627071 5.7632270139549755 #
plane-surface $-1 48.902859584337904 0 0 -1 0 0 0 0 1 forward_v I I I I #
coedge $-1 $390 $388 $392 $548 reversed $261 $-1 #
edge $-1 $403 -6.7736671494749592 $550 6.7736671494749592 $402 $637 forward 7 unknown #
vertex $-1 $548 $638 #
straight-curve $-1 -48.902859584337904 -26.880230527285121 0 0 0 -1 I I #
edge $-1 $546 -26.880230527285121 $550 26.880230527285121 $544 $639 forward 7 unknown #
straight-curve $-1 0 -26.880230527285121 -6.7736671494749592 -1 0 0 I I #
vertex $-1 $395 $640 #
straight-curve $-1 0 26.880230527285121 -6.7736671494749592 1 0 0 I I #
point $-1 48.902859584337904 26.880230527285121 -6.7736671494749592 #
point $-1 48.902859584337904 -26.880230527285121 -6.7736671494749592 #
straight-curve $-1 -48.902859584337904 0 6.7736671494749592 0 -1 0 I I #
point $-1 -48.902859584337904 26.880230527285121 6.7736671494749592 #
point $-1 -48.902859584337904 -26.880230527285121 6.7736671494749592 #
straight-curve $-1 48.902859584337904 -26.880230527285121 0 0 0 -1 I I #
straight-curve $-1 48.902859584337904 26.880230527285121 0 0 0 -1 I I #
loop $-1 $-1 $418 $412 #
plane-surface $-1 0 -26.880230527285121 0 0 1 0 0 0 1 forward_v I I I I #
coedge $-1 $429 $420 $416 $563 forward $413 $-1 #
edge $-1 $567 -15.209664745678019 $424 -8.1314668175361859 $415 $641 forward 7 unknown #
edge $-1 $425 8.1314668175361859 $566 15.209664745678019 $561 $642 forward 7 unknown #
coedge $-1 $427 $418 $432 $576 reversed $559 $-1 #
coedge $-1 $418 $427 $429 $574 reversed $559 $-1 #
vertex $-1 $574 $643 #
vertex $-1 $419 $644 #
straight-curve $-1 -35.855525285387984 -26.880230527285121 0 0 0 1 I I #
straight-curve $-1 -18.677762642693992 -19.802032599143288 -6.7736671494749592 1 0 0 I I #
straight-curve $-1 -18.677762642693992 -19.802032599143288 6.7736671494749592 -1 0 0 I I #
point $-1 -35.855525285387984 -19.802032599143288 6.7736671494749592 #
point $-1 -35.855525285387984 -19.802032599143288 -6.7736671494749592 #
straight-curve $-1 -38.855525285387984 -26.880230527285121 0 0 0 -1 I I #
edge $-1 $566 35.855525285387984 $430 38.855525285387984 $565 $645 forward 7 unknown #
point $-1 -38.855525285387984 -26.880230527285121 -6.7736671494749592 #
edge $-1 $433 -38.855525285387984 $567 -35.855525285387984 $564 $646 forward 7 unknown #
point $-1 -38.855525285387984 -26.880230527285121 6.7736671494749592 #
plane-surface $-1 0 26.880230527285121 0 0 -1 0 0 0 -1 forward_v I I I I #
coedge $-1 $440 $444 $449 $589 forward $296 $-1 #
edge $-1 $647 -15.209664745678019 $454 -8.1314668175361859 $440 $648 forward 7 unknown #
coedge $-1 $442 $441 $587 $649 reversed $180 $-1 #
edge $-1 $457 8.1314668175361859 $650 15.209664745678019 $456 $651 forward 7 unknown #
straight-curve $-1 -35.855525285387984 19.802032599143288 0 0 0 -1 I I #
straight-curve $-1 -38.855525285387984 11.670565781607102 -6.7736671494749592 0 1 0 I I #
coedge $-1 $446 $456 $448 $588 forward $438 $-1 #
straight-curve $-1 -38.855525285387984 11.670565781607102 6.7736671494749592 0 -1 0 I I #
coedge $-1 $449 $448 $581 $649 forward $450 $-1 #
edge $-1 $650 35.855525285387984 $452 38.855525285387984 $448 $652 forward 7 unknown #
edge $-1 $451 -38.855525285387984 $647 -35.855525285387984 $449 $653 forward 7 unknown #
point $-1 -38.855525285387984 26.880230527285121 -6.7736671494749592 #
point $-1 -38.855525285387984 26.880230527285121 6.7736671494749592 #
point $-1 -35.855525285387984 19.802032599143288 -6.7736671494749592 #
point $-1 -35.855525285387984 19.802032599143288 6.7736671494749592 #
coedge $-1 $472 $471 $464 $595 forward $461 $-1 #
edge $-1 $596 61.210088307823028 $599 65.621341008700909 $594 $654 forward 7 unknown #
vertex $-1 $476 $655 #
straight-curve $-1 42.351119751179965 -16.516608303060387 6.7736671494749601 1 0 0 I I #
edge $-1 $599 -9.7957718654815071 $473 -3.645901009676253 $472 $656 forward 7 unknown #
vertex $-1 $598 $657 #
straight-curve $-1 1.3103494609367772e-006 -16.516608303060387 87.064652640607534 -0.49999998660252726 0 0.86602541151947299 I I #
point $-1 46.356021741012434 -16.516608303060387 6.7736671494749601 #
point $-1 48.902859584337904 -10.366737447255133 2.3624144485970788 #
straight-curve $-1 48.902859584337904 0 6.7736671494749592 0 1 0 I I #
vertex $-1 $479 $658 #
point $-1 47.013415244456951 -15.286634131899339 3.6350281066737473 #
vertex $-1 $483 $659 #
point $-1 47.013415244456951 -13.441672875157764 3.6350281066737473 #
vertex $-1 $487 $660 #
point $-1 47.013415244456951 -11.596711618416187 3.6350281066737473 #
edge $-1 $611 18.436682686316381 $614 22.206802386885222 $492 $661 forward 7 unknown #
vertex $-1 $506 $662 #
straight-curve $-1 -67.222834892987763 -12.592571110836506 6.7736671494749601 -1 0 0 I I #
edge $-1 $614 4.4939201833415581 $503 11.703381671648337 $502 $663 forward 7 unknown #
vertex $-1 $613 $664 #
straight-curve $-1 -48.902859584337904 -12.592571110836506 3.0035474489061187 0.48480960649040278 0 0.87461971476443456 I I #
point $-1 -46.813048186767496 -12.592571110836506 6.7736671494749592 #
point $-1 -48.902859584337904 -19.802032599143285 3.0035474489061187 #
straight-curve $-1 -48.902859584337904 0 6.7736671494749592 0 -1 0 I I #
vertex $-1 $509 $665 #
point $-1 -44.508949555932396 -17.742186459627064 4.1755780126899014 #
vertex $-1 $513 $666 #
point $-1 -44.508949555932396 -14.652417250352729 4.1755780126899014 #
coedge $-1 $528 $527 $520 $624 forward $517 $-1 #
edge $-1 $625 18.436682686316381 $628 22.206802386885222 $623 $667 forward 7 unknown #
vertex $-1 $532 $668 #
straight-curve $-1 -67.222834892987763 19.802032599143292 6.7736671494749601 -1 0 0 I I #
edge $-1 $628 -11.703381671648341 $529 -4.4939201833415616 $528 $669 forward 7 unknown #
vertex $-1 $627 $670 #
straight-curve $-1 -48.902859584337904 19.802032599143292 3.0035474489061187 0.48480960649040278 0 0.87461971476443456 I I #
point $-1 -46.813048186767496 19.802032599143292 6.7736671494749592 #
point $-1 -48.902859584337904 12.592571110836513 3.0035474489061187 #
straight-curve $-1 -48.902859584337904 0 6.7736671494749592 0 -1 0 I I #
vertex $-1 $535 $671 #
point $-1 -44.508949555932396 14.652417250352734 4.1755780126899014 #
vertex $-1 $539 $672 #
point $-1 -44.508949555932396 17.742186459627071 4.1755780126899014 #
straight-curve $-1 -48.902859584337904 26.880230527285121 0 0 0 -1 I I #
point $-1 -48.902859584337904 -26.880230527285121 -6.7736671494749592 #
straight-curve $-1 -48.902859584337904 0 -6.7736671494749592 0 1 0 I I #
point $-1 -48.902859584337904 26.880230527285121 -6.7736671494749592 #
straight-curve $-1 -35.855525285387984 -11.670565781607102 6.7736671494749592 0 1 0 I I #
straight-curve $-1 -35.855525285387984 -11.670565781607102 -6.7736671494749592 0 -1 0 I I #
point $-1 -35.855525285387984 -26.880230527285121 -6.7736671494749592 #
point $-1 -35.855525285387984 -26.880230527285121 6.7736671494749592 #
straight-curve $-1 0 -26.880230527285121 -6.7736671494749592 -1 0 0 I I #
straight-curve $-1 0 -26.880230527285121 6.7736671494749592 1 0 0 I I #
vertex $-1 $649 $673 #
straight-curve $-1 -35.855525285387984 11.670565781607102 -6.7736671494749592 0 -1 0 I I #
edge $-1 $650 -6.7736671494749592 $647 6.7736671494749592 $587 $674 forward 7 unknown #
vertex $-1 $588 $675 #
straight-curve $-1 -35.855525285387984 11.670565781607102 6.7736671494749592 0 1 0 I I #
straight-curve $-1 0 26.880230527285121 6.7736671494749592 -1 0 0 I I #
straight-curve $-1 0 26.880230527285121 -6.7736671494749592 1 0 0 I I #
straight-curve $-1 48.902859584337904 -16.516608303060387 67.983755457297988 0 0 -1 I I #
point $-1 48.902859584337904 -16.516608303060387 6.7736671494749592 #
straight-curve $-1 48.902859584337904 -6.7208364375788801 2.3624144485970646 0 1 0 I I #
point $-1 48.902859584337904 -16.516608303060387 2.3624144485970788 #
point $-1 46.330402545395948 -15.286634131899339 3.8180408191322202 #
point $-1 46.330402545395948 -13.441672875157764 3.8180408191322202 #
point $-1 46.330402545395948 -11.596711618416187 3.8180408191322202 #
straight-curve $-1 -48.902859584337904 -12.592571110836506 25.210349835791341 0 0 -1 I I #
point $-1 -48.902859584337904 -12.592571110836506 6.7736671494749592 #
straight-curve $-1 -48.902859584337904 -8.0986509274949476 3.0035474489061156 0 -1 0 I I #
point $-1 -48.902859584337904 -12.592571110836506 3.0035474489061187 #
point $-1 -44.119139447658362 -17.742186459627064 2.816148691435064 #
point $-1 -44.119139447658362 -14.652417250352729 2.816148691435064 #
straight-curve $-1 -48.902859584337904 19.802032599143292 25.210349835791341 0 0 -1 I I #
point $-1 -48.902859584337904 19.802032599143292 6.7736671494749592 #
straight-curve $-1 -48.902859584337904 8.0986509274949512 3.0035474489061156 0 -1 0 I I #
point $-1 -48.902859584337904 19.802032599143292 3.0035474489061187 #
point $-1 -44.119139447658362 14.652417250352734 2.816148691435064 #
point $-1 -44.119139447658362 17.742186459627071 2.816148691435064 #
point $-1 -35.855525285387984 26.880230527285121 -6.7736671494749592 #
straight-curve $-1 -35.855525285387984 26.880230527285121 0 0 0 -1 I I #
point $-1 -35.855525285387984 26.880230527285121 6.7736671494749592 #
End-of-ACIS-data 