500 0 11 0           
7 Unknown 11 ACIS 5.0 NT 24 Fri Mar 26 02:01:16 1999 
-1 9.9999999999999995e-007 1e-010 
body $-1 $11 $-1 $12 #
body $-1 $13 $-1 $14 #
body $-1 $15 $-1 $16 #
body $-1 $17 $-1 $18 #
body $-1 $19 $-1 $20 #
body $-1 $21 $-1 $22 #
body $-1 $23 $-1 $24 #
body $-1 $25 $-1 $26 #
body $-1 $27 $-1 $28 #
body $-1 $29 $-1 $30 #
body $-1 $31 $-1 $32 #
lump $-1 $-1 $33 $0 #
transform $-1 1 0 0 0 1 0 0 0 1 49.786675618762779 33.252096273125389 14.04103684970298 1 rotate no_reflect no_shear #
lump $-1 $-1 $34 $1 #
transform $-1 1 0 0 0 1 0 0 0 1 49.786675618762779 33.252096273125389 14.04103684970298 1 rotate no_reflect no_shear #
lump $-1 $-1 $35 $2 #
transform $-1 1 0 0 0 1 0 0 0 1 49.786675618762779 33.252096273125389 14.04103684970298 1 rotate no_reflect no_shear #
lump $-1 $-1 $36 $3 #
transform $-1 1 0 0 0 1 0 0 0 1 49.786675618762779 33.252096273125389 14.04103684970298 1 rotate no_reflect no_shear #
lump $-1 $-1 $37 $4 #
transform $-1 1 0 0 0 1 0 0 0 1 49.786675618762779 33.252096273125389 14.04103684970298 1 rotate no_reflect no_shear #
lump $-1 $-1 $38 $5 #
transform $-1 1 0 0 0 1 0 0 0 1 49.786675618762779 33.252096273125389 14.04103684970298 1 rotate no_reflect no_shear #
lump $-1 $-1 $39 $6 #
transform $-1 1 0 0 0 1 0 0 0 1 49.786675618762779 33.252096273125389 14.04103684970298 1 rotate no_reflect no_shear #
lump $-1 $-1 $40 $7 #
transform $-1 1 0 0 0 1 0 0 0 1 49.786675618762779 33.252096273125389 14.04103684970298 1 rotate no_reflect no_shear #
lump $-1 $-1 $41 $8 #
transform $-1 1 0 0 0 1 0 0 0 1 49.786675618762779 33.252096273125389 14.04103684970298 1 rotate no_reflect no_shear #
lump $-1 $-1 $42 $9 #
transform $-1 1 0 0 0 1 0 0 0 1 49.786675618762779 33.252096273125389 14.04103684970298 1 rotate no_reflect no_shear #
lump $-1 $-1 $43 $10 #
transform $-1 1 0 0 0 1 0 0 0 1 49.786675618762779 33.252096273125389 14.04103684970298 1 rotate no_reflect no_shear #
shell $-1 $-1 $-1 $44 $-1 $11 #
shell $-1 $-1 $-1 $45 $-1 $13 #
shell $-1 $-1 $-1 $46 $-1 $15 #
shell $-1 $-1 $-1 $47 $-1 $17 #
shell $-1 $-1 $-1 $48 $-1 $19 #
shell $-1 $-1 $-1 $49 $-1 $21 #
shell $-1 $-1 $-1 $50 $-1 $23 #
shell $-1 $-1 $-1 $51 $-1 $25 #
shell $-1 $-1 $-1 $52 $-1 $27 #
shell $-1 $-1 $-1 $53 $-1 $29 #
shell $-1 $-1 $-1 $54 $-1 $31 #
face $-1 $55 $56 $33 $-1 $57 forward single #
face $-1 $58 $59 $34 $-1 $60 reversed single #
face $-1 $61 $62 $35 $-1 $63 forward single #
face $-1 $64 $65 $36 $-1 $66 reversed single #
face $-1 $67 $68 $37 $-1 $69 forward single #
face $-1 $70 $71 $38 $-1 $72 reversed single #
face $-1 $73 $74 $39 $-1 $75 forward single #
face $-1 $76 $77 $40 $-1 $78 reversed single #
face $-1 $79 $80 $41 $-1 $81 forward single #
face $-1 $82 $83 $42 $-1 $84 reversed single #
face $-1 $85 $86 $43 $-1 $87 forward single #
face $-1 $88 $89 $33 $-1 $90 reversed single #
loop $-1 $-1 $91 $44 #
plane-surface $-1 0 0 14.04103684970298 0 0 1 1 0 0 forward_v I I I I #
face $-1 $92 $93 $34 $-1 $94 reversed single #
loop $-1 $-1 $95 $45 #
plane-surface $-1 -42.322122661830392 82.453236067982374 109.36170941733653 1 0 0 0 -0.84804810408105047 -0.52991925155115449 forward_v I I I I #
face $-1 $96 $97 $35 $-1 $98 forward single #
loop $-1 $99 $100 $46 #
cone-surface $-1 -35.504203083092264 26.034841113305689 5.311996315090564 0 -0.84804810408105047 -0.52991925155115449 2 0 0 1 I I 0 1 2 forward I I I I #
face $-1 $101 $102 $36 $-1 $103 reversed single #
loop $-1 $-1 $104 $47 #
plane-surface $-1 -18.652653939768886 82.453236067982374 109.36170941733653 1 0 0 0 -0.84804810408105047 -0.52991925155115449 forward_v I I I I #
face $-1 $105 $106 $37 $-1 $107 forward single #
loop $-1 $108 $109 $48 #
cone-surface $-1 -11.834734361030755 26.034841113305689 5.311996315090564 0 -0.84804810408105047 -0.52991925155115449 2 0 0 1 I I 0 1 2 forward I I I I #
face $-1 $110 $111 $38 $-1 $112 reversed single #
loop $-1 $-1 $113 $49 #
plane-surface $-1 5.0168147822926317 82.453236067982374 109.36170941733653 1 0 0 0 -0.84804810408105047 -0.52991925155115449 forward_v I I I I #
face $-1 $114 $115 $39 $-1 $116 forward single #
loop $-1 $117 $118 $50 #
cone-surface $-1 11.834734361030762 26.034841113305689 5.311996315090564 0 -0.84804810408105047 -0.52991925155115449 2 0 0 1 I I 0 1 2 forward I I I I #
face $-1 $119 $120 $40 $-1 $121 reversed single #
loop $-1 $-1 $122 $51 #
plane-surface $-1 28.68628350435414 82.453236067982374 109.36170941733653 1 0 0 0 -0.84804810408105047 -0.52991925155115449 forward_v I I I I #
face $-1 $123 $124 $41 $-1 $125 forward single #
loop $-1 $126 $127 $52 #
cone-surface $-1 35.504203083092271 26.034841113305689 5.311996315090564 0 -0.84804810408105047 -0.52991925155115449 2 0 0 1 I I 0 1 2 forward I I I I #
face $-1 $128 $129 $42 $-1 $130 reversed single #
loop $-1 $-1 $131 $53 #
plane-surface $-1 12.846269164926571 -91.779844399610468 81.663096258447581 -1 0 0 0 -0.5877852598018023 0.80901698891910034 forward_v I I I I #
face $-1 $132 $133 $43 $-1 $134 forward single #
loop $-1 $135 $136 $54 #
cone-surface $-1 5.6039769399187023 -23.243877948244382 6.0503782306599572 0 0.5877852598018023 -0.80901698891910034 2 0 0 1 I I 0 1 2 forward I I I I #
face $-1 $137 $138 $33 $-1 $139 reversed single #
loop $-1 $-1 $140 $55 #
plane-surface $-1 0 0 -14.04103684970298 0 0 1 1 0 0 forward_v I I I I #
coedge $-1 $141 $142 $143 $144 forward $56 $-1 #
face $-1 $145 $146 $34 $-1 $147 reversed single #
loop $-1 $-1 $148 $58 #
plane-surface $-1 -35.504203083092264 -1.9897556659976914 56.595873655106764 0 0.84804810408105047 0.52991925155115449 1 0 0 forward_v I I I I #
coedge $-1 $149 $150 $151 $152 reversed $59 $-1 #
face $-1 $-1 $153 $35 $-1 $154 forward single #
loop $-1 $155 $156 $61 #
cone-surface $-1 -35.504203083092264 22.294857613798982 2.9749953273696512 0 -0.84804810408105047 -0.52991925155115449 1 0 0 1 I I -0.70710678118654746 0.70710678118654746 1 forward I I I I #
loop $-1 $-1 $157 $46 #
coedge $-1 $100 $100 $158 $159 reversed $62 $-1 #
face $-1 $160 $161 $36 $-1 $162 reversed single #
loop $-1 $-1 $163 $64 #
plane-surface $-1 -11.834734361030755 -1.9897556659976914 56.595873655106764 0 0.84804810408105047 0.52991925155115449 1 0 0 forward_v I I I I #
coedge $-1 $164 $165 $166 $167 reversed $65 $-1 #
face $-1 $-1 $168 $37 $-1 $169 forward single #
loop $-1 $170 $171 $67 #
cone-surface $-1 -11.834734361030755 22.294857613798982 2.9749953273696512 0 -0.84804810408105047 -0.52991925155115449 1 0 0 1 I I -0.70710678118654746 0.70710678118654746 1 forward I I I I #
loop $-1 $-1 $172 $48 #
coedge $-1 $109 $109 $173 $174 reversed $68 $-1 #
face $-1 $175 $176 $38 $-1 $177 reversed single #
loop $-1 $-1 $178 $70 #
plane-surface $-1 11.834734361030762 -1.9897556659976914 56.595873655106764 0 0.84804810408105047 0.52991925155115449 1 0 0 forward_v I I I I #
coedge $-1 $179 $180 $181 $182 reversed $71 $-1 #
face $-1 $-1 $183 $39 $-1 $184 forward single #
loop $-1 $185 $186 $73 #
cone-surface $-1 11.834734361030762 22.294857613798982 2.9749953273696512 0 -0.84804810408105047 -0.52991925155115449 1 0 0 1 I I -0.70710678118654746 0.70710678118654746 1 forward I I I I #
loop $-1 $-1 $187 $50 #
coedge $-1 $118 $118 $188 $189 reversed $74 $-1 #
face $-1 $190 $191 $40 $-1 $192 reversed single #
loop $-1 $-1 $193 $76 #
plane-surface $-1 35.504203083092271 -1.9897556659976914 56.595873655106764 0 0.84804810408105047 0.52991925155115449 1 0 0 forward_v I I I I #
coedge $-1 $194 $195 $196 $197 reversed $77 $-1 #
face $-1 $-1 $198 $41 $-1 $199 forward single #
loop $-1 $200 $201 $79 #
cone-surface $-1 35.504203083092271 22.294857613798982 2.9749953273696512 0 -0.84804810408105047 -0.52991925155115449 1 0 0 1 I I -0.70710678118654746 0.70710678118654746 1 forward I I I I #
loop $-1 $-1 $202 $52 #
coedge $-1 $127 $127 $203 $204 reversed $80 $-1 #
face $-1 $205 $206 $42 $-1 $207 reversed single #
loop $-1 $-1 $208 $82 #
plane-surface $-1 5.6039769399187023 -33.252096273125396 1.1065634636806863 0 -0.5877852598018023 0.80901698891910034 1 0 0 forward_v I I I I #
coedge $-1 $209 $210 $211 $212 reversed $83 $-1 #
face $-1 $-1 $213 $43 $-1 $214 forward single #
loop $-1 $215 $216 $85 #
cone-surface $-1 5.6039769399187023 -21.54926184947988 3.7179393157089855 0 0.5877852598018023 -0.80901698891910034 1 0 0 1 I I -0.70710678118654746 0.70710678118654746 1 forward I I I I #
loop $-1 $-1 $217 $54 #
coedge $-1 $136 $136 $218 $219 reversed $86 $-1 #
face $-1 $220 $221 $33 $-1 $222 reversed single #
loop $-1 $-1 $223 $88 #
plane-surface $-1 0 -33.252096273125389 0 0 1 0 0 0 1 forward_v I I I I #
coedge $-1 $224 $225 $226 $227 forward $89 $-1 #
coedge $-1 $228 $91 $229 $230 forward $56 $-1 #
coedge $-1 $91 $228 $231 $232 forward $56 $-1 #
coedge $-1 $233 $234 $91 $144 reversed $235 $-1 #
edge $-1 $236 -33.252096273125389 $237 33.252096273125389 $143 $238 forward 7 unknown #
face $-1 $239 $240 $34 $-1 $241 reversed single #
loop $-1 $-1 $242 $92 #
plane-surface $-1 -28.686283504354133 82.453236067982374 109.36170941733653 -1 0 0 0 0.84804810408105047 0.52991925155115449 forward_v I I I I #
coedge $-1 $243 $244 $245 $246 reversed $93 $-1 #
coedge $-1 $150 $95 $247 $248 reversed $59 $-1 #
coedge $-1 $95 $149 $243 $249 reversed $59 $-1 #
coedge $-1 $245 $250 $95 $152 forward $251 $-1 #
edge $-1 $252 7.9745217608657981 $253 16.625161289653882 $151 $254 forward 7 unknown #
loop $-1 $-1 $158 $96 #
plane-surface $-1 -35.504203083092264 -1.9897556659976914 56.595873655106764 0 0.84804810408105047 0.52991925155115449 1 0 0 forward_v I I I I #
loop $-1 $-1 $255 $61 #
coedge $-1 $156 $156 $157 $256 reversed $97 $-1 #
coedge $-1 $157 $157 $156 $256 forward $99 $-1 #
coedge $-1 $158 $158 $100 $159 forward $153 $-1 #
edge $-1 $257 7.5321802491239463e-016 $257 6.2831853071796013 $158 $258 forward 7 unknown #
face $-1 $259 $260 $36 $-1 $261 forward single #
loop $-1 $-1 $262 $101 #
plane-surface $-1 -5.0168147822926246 82.453236067982374 109.36170941733653 -1 0 0 0 0.84804810408105047 0.52991925155115449 forward_v I I I I #
coedge $-1 $263 $264 $265 $266 reversed $102 $-1 #
coedge $-1 $165 $104 $267 $268 reversed $65 $-1 #
coedge $-1 $104 $164 $263 $269 reversed $65 $-1 #
coedge $-1 $265 $270 $104 $167 forward $260 $-1 #
edge $-1 $271 7.9745217608657981 $272 16.625161289653882 $166 $273 forward 7 unknown #
loop $-1 $-1 $173 $105 #
plane-surface $-1 -11.834734361030755 -1.9897556659976914 56.595873655106764 0 0.84804810408105047 0.52991925155115449 1 0 0 forward_v I I I I #
loop $-1 $-1 $274 $67 #
coedge $-1 $171 $171 $172 $275 reversed $106 $-1 #
coedge $-1 $172 $172 $171 $275 forward $108 $-1 #
coedge $-1 $173 $173 $109 $174 forward $168 $-1 #
edge $-1 $276 7.5321802491239463e-016 $276 6.2831853071796013 $173 $277 forward 7 unknown #
face $-1 $278 $279 $38 $-1 $280 forward single #
loop $-1 $-1 $281 $110 #
plane-surface $-1 18.652653939768893 82.453236067982374 109.36170941733653 -1 0 0 0 0.84804810408105047 0.52991925155115449 forward_v I I I I #
coedge $-1 $282 $283 $284 $285 reversed $111 $-1 #
coedge $-1 $180 $113 $286 $287 reversed $71 $-1 #
coedge $-1 $113 $179 $282 $288 reversed $71 $-1 #
coedge $-1 $284 $289 $113 $182 forward $279 $-1 #
edge $-1 $290 7.9745217608657981 $291 16.625161289653882 $181 $292 forward 7 unknown #
loop $-1 $-1 $188 $114 #
plane-surface $-1 11.834734361030762 -1.9897556659976914 56.595873655106764 0 0.84804810408105047 0.52991925155115449 1 0 0 forward_v I I I I #
loop $-1 $-1 $293 $73 #
coedge $-1 $186 $186 $187 $294 reversed $115 $-1 #
coedge $-1 $187 $187 $186 $294 forward $117 $-1 #
coedge $-1 $188 $188 $118 $189 forward $183 $-1 #
edge $-1 $295 7.5321802491239463e-016 $295 6.2831853071796013 $188 $296 forward 7 unknown #
face $-1 $297 $298 $40 $-1 $299 forward single #
loop $-1 $-1 $300 $119 #
plane-surface $-1 42.322122661830399 82.453236067982374 109.36170941733653 -1 0 0 0 0.84804810408105047 0.52991925155115449 forward_v I I I I #
coedge $-1 $301 $302 $303 $304 reversed $120 $-1 #
coedge $-1 $195 $122 $305 $306 reversed $77 $-1 #
coedge $-1 $122 $194 $301 $307 reversed $77 $-1 #
coedge $-1 $303 $308 $122 $197 forward $298 $-1 #
edge $-1 $309 7.9745217608657981 $310 16.625161289653882 $196 $311 forward 7 unknown #
loop $-1 $-1 $203 $123 #
plane-surface $-1 35.504203083092271 -1.9897556659976914 56.595873655106764 0 0.84804810408105047 0.52991925155115449 1 0 0 forward_v I I I I #
loop $-1 $-1 $312 $79 #
coedge $-1 $201 $201 $202 $313 reversed $124 $-1 #
coedge $-1 $202 $202 $201 $313 forward $126 $-1 #
coedge $-1 $203 $203 $127 $204 forward $198 $-1 #
edge $-1 $314 7.5321802491239463e-016 $314 6.2831853071796013 $203 $315 forward 7 unknown #
face $-1 $316 $317 $42 $-1 $318 reversed single #
loop $-1 $-1 $319 $128 #
plane-surface $-1 -1.6383152850891669 -91.779844399610468 81.663096258447581 1 0 0 0 0.5877852598018023 -0.80901698891910034 forward_v I I I I #
coedge $-1 $320 $321 $322 $323 reversed $129 $-1 #
coedge $-1 $210 $131 $324 $325 reversed $83 $-1 #
coedge $-1 $131 $209 $320 $326 reversed $83 $-1 #
coedge $-1 $322 $327 $131 $212 forward $328 $-1 #
edge $-1 $329 12.637825926679845 $330 30.440600898516433 $211 $331 forward 7 unknown #
loop $-1 $-1 $218 $132 #
plane-surface $-1 5.6039769399187023 -33.252096273125396 1.1065634636806863 0 -0.5877852598018023 0.80901698891910034 1 0 0 forward_v I I I I #
loop $-1 $-1 $332 $85 #
coedge $-1 $216 $216 $217 $333 reversed $133 $-1 #
coedge $-1 $217 $217 $216 $333 forward $135 $-1 #
coedge $-1 $218 $218 $136 $219 forward $213 $-1 #
edge $-1 $334 -5.1917246771476882e-016 $334 6.2831853071795996 $218 $335 forward 7 unknown #
face $-1 $336 $337 $33 $-1 $338 reversed single #
loop $-1 $-1 $339 $137 #
plane-surface $-1 -49.786675618762779 0 0 1 0 0 0 0 -1 forward_v I I I I #
coedge $-1 $340 $231 $341 $342 forward $138 $-1 #
coedge $-1 $343 $140 $340 $344 forward $89 $-1 #
coedge $-1 $140 $343 $345 $346 forward $89 $-1 #
coedge $-1 $234 $233 $140 $227 reversed $235 $-1 #
edge $-1 $347 -33.252096273125389 $348 33.252096273125389 $226 $349 forward 7 unknown #
coedge $-1 $142 $141 $350 $351 forward $56 $-1 #
coedge $-1 $352 $353 $141 $230 reversed $337 $-1 #
edge $-1 $237 -49.786675618762779 $354 49.786675618762779 $229 $355 forward 7 unknown #
coedge $-1 $223 $356 $142 $232 reversed $138 $-1 #
edge $-1 $357 -49.786675618762779 $236 49.786675618762779 $231 $358 forward 7 unknown #
coedge $-1 $226 $143 $356 $359 forward $235 $-1 #
coedge $-1 $143 $226 $352 $360 reversed $235 $-1 #
loop $-1 $-1 $233 $336 #
vertex $-1 $144 $361 #
vertex $-1 $144 $362 #
straight-curve $-1 49.786675618762779 0 14.04103684970298 0 1 0 I I #
face $-1 $-1 $251 $34 $-1 $363 forward single #
loop $-1 $-1 $364 $145 #
plane-surface $-1 0 33.252096273125389 0 0 -1 0 0 0 -1 forward_v I I I I #
coedge $-1 $365 $366 $367 $368 reversed $146 $-1 #
coedge $-1 $369 $148 $150 $249 forward $93 $-1 #
coedge $-1 $148 $369 $365 $370 forward $93 $-1 #
coedge $-1 $367 $151 $148 $246 forward $251 $-1 #
edge $-1 $253 -24.57002112028426 $371 -10.934181962808001 $245 $372 forward 7 unknown #
coedge $-1 $373 $374 $149 $248 forward $240 $-1 #
edge $-1 $375 -54.483735455850599 $252 -40.639817858965287 $247 $376 forward 7 unknown #
edge $-1 $253 50.179744050623668 $375 66.504192546250778 $150 $377 forward 7 unknown #
coedge $-1 $151 $367 $373 $378 forward $251 $-1 #
loop $-1 $-1 $367 $239 #
vertex $-1 $248 $379 #
vertex $-1 $152 $380 #
straight-curve $-1 -42.322122661830392 41.226618033991187 14.041036849702976 0 -1 0 I I #
coedge $-1 $255 $255 $-1 $381 reversed $155 $-1 #
edge $-1 $382 0 $382 6.2831853071796004 $156 $383 forward 7 unknown #
vertex $-1 $159 $384 #
ellipse-curve $-1 -35.504203083092264 28.926776508731347 7.1190780512603231 0 0.84804810408105047 0.52991925155115449 2 0 0 1 I I #
face $-1 $-1 $385 $36 $-1 $386 reversed single #
loop $-1 $-1 $166 $160 #
plane-surface $-1 0 0 14.04103684970298 0 0 1 1 0 0 forward_v I I I I #
coedge $-1 $387 $388 $389 $390 reversed $161 $-1 #
coedge $-1 $391 $163 $165 $269 forward $102 $-1 #
coedge $-1 $163 $391 $387 $392 forward $102 $-1 #
coedge $-1 $389 $166 $163 $266 forward $260 $-1 #
edge $-1 $272 -12.735286759253508 $393 0.90055239822275279 $265 $394 forward 7 unknown #
coedge $-1 $395 $396 $164 $268 forward $385 $-1 #
edge $-1 $397 -54.483735455850599 $271 -40.639817858965287 $267 $398 forward 7 unknown #
edge $-1 $272 50.179744050623668 $397 66.504192546250778 $165 $399 forward 7 unknown #
coedge $-1 $166 $389 $395 $400 forward $260 $-1 #
vertex $-1 $167 $401 #
vertex $-1 $167 $402 #
straight-curve $-1 -18.652653939768886 41.226618033991187 14.041036849702976 0 -1 0 I I #
coedge $-1 $274 $274 $-1 $403 reversed $170 $-1 #
edge $-1 $404 0 $404 6.2831853071796004 $171 $405 forward 7 unknown #
vertex $-1 $174 $406 #
ellipse-curve $-1 -11.834734361030755 28.926776508731347 7.1190780512603231 0 0.84804810408105047 0.52991925155115449 2 0 0 1 I I #
face $-1 $-1 $407 $38 $-1 $408 reversed single #
loop $-1 $-1 $181 $175 #
plane-surface $-1 0 0 14.04103684970298 0 0 1 1 0 0 forward_v I I I I #
coedge $-1 $409 $410 $411 $412 reversed $176 $-1 #
coedge $-1 $413 $178 $180 $288 forward $111 $-1 #
coedge $-1 $178 $413 $409 $414 forward $111 $-1 #
coedge $-1 $411 $181 $178 $285 forward $279 $-1 #
edge $-1 $291 -0.90055239822274924 $415 12.735286759253512 $284 $416 forward 7 unknown #
coedge $-1 $417 $418 $179 $287 forward $407 $-1 #
edge $-1 $419 -54.483735455850599 $290 -40.639817858965287 $286 $420 forward 7 unknown #
edge $-1 $291 50.179744050623668 $419 66.504192546250778 $180 $421 forward 7 unknown #
coedge $-1 $181 $411 $417 $422 forward $279 $-1 #
vertex $-1 $182 $423 #
vertex $-1 $182 $424 #
straight-curve $-1 5.0168147822926317 41.226618033991187 14.041036849702976 0 -1 0 I I #
coedge $-1 $293 $293 $-1 $425 reversed $185 $-1 #
edge $-1 $426 0 $426 6.2831853071796004 $186 $427 forward 7 unknown #
vertex $-1 $189 $428 #
ellipse-curve $-1 11.834734361030762 28.926776508731347 7.1190780512603231 0 0.84804810408105047 0.52991925155115449 2 0 0 1 I I #
face $-1 $-1 $429 $40 $-1 $430 reversed single #
loop $-1 $-1 $196 $190 #
plane-surface $-1 0 0 14.04103684970298 0 0 1 1 0 0 forward_v I I I I #
coedge $-1 $431 $432 $433 $434 reversed $191 $-1 #
coedge $-1 $435 $193 $195 $307 forward $120 $-1 #
coedge $-1 $193 $435 $431 $436 forward $120 $-1 #
coedge $-1 $433 $196 $193 $304 forward $298 $-1 #
edge $-1 $310 10.934181962808005 $437 24.570021120284263 $303 $438 forward 7 unknown #
coedge $-1 $439 $440 $194 $306 forward $429 $-1 #
edge $-1 $441 -54.483735455850599 $309 -40.639817858965287 $305 $442 forward 7 unknown #
edge $-1 $310 50.179744050623668 $441 66.504192546250778 $195 $443 forward 7 unknown #
coedge $-1 $196 $433 $439 $444 forward $298 $-1 #
vertex $-1 $197 $445 #
vertex $-1 $197 $446 #
straight-curve $-1 28.68628350435414 41.226618033991187 14.041036849702976 0 -1 0 I I #
coedge $-1 $312 $312 $-1 $447 reversed $200 $-1 #
edge $-1 $448 0 $448 6.2831853071796004 $201 $449 forward 7 unknown #
vertex $-1 $204 $450 #
ellipse-curve $-1 35.504203083092271 28.926776508731347 7.1190780512603231 0 0.84804810408105047 0.52991925155115449 2 0 0 1 I I #
face $-1 $-1 $328 $42 $-1 $451 forward single #
loop $-1 $-1 $452 $205 #
plane-surface $-1 0 -33.252096273125389 0 0 1 0 0 0 1 forward_v I I I I #
coedge $-1 $453 $454 $455 $456 reversed $206 $-1 #
coedge $-1 $457 $208 $210 $326 forward $129 $-1 #
coedge $-1 $208 $457 $453 $458 forward $129 $-1 #
coedge $-1 $455 $211 $208 $323 forward $328 $-1 #
edge $-1 $330 -10.04428069496722 $459 4.440303755048518 $322 $460 forward 7 unknown #
coedge $-1 $461 $462 $209 $325 forward $317 $-1 #
edge $-1 $463 -39.724984665543097 $329 -26.79051127952081 $324 $464 forward 7 unknown #
edge $-1 $330 -22.005440201722173 $463 -8.7502459990790685e-015 $210 $465 forward 7 unknown #
coedge $-1 $211 $455 $461 $466 forward $328 $-1 #
loop $-1 $-1 $455 $316 #
vertex $-1 $325 $467 #
vertex $-1 $212 $468 #
straight-curve $-1 12.846269164926571 -45.889922199805234 14.041036849702976 0 1 0 I I #
coedge $-1 $332 $332 $-1 $469 reversed $215 $-1 #
edge $-1 $470 0 $470 6.2831853071796004 $216 $471 forward 7 unknown #
vertex $-1 $219 $472 #
ellipse-curve $-1 5.6039769399187023 -24.35070878720709 7.5738001566918394 0 -0.5877852598018023 0.80901698891910034 2 0 0 1 I I #
face $-1 $-1 $235 $33 $-1 $473 reversed single #
loop $-1 $-1 $352 $220 #
plane-surface $-1 0 33.252096273125389 0 0 -1 0 0 0 -1 forward_v I I I I #
coedge $-1 $474 $350 $353 $475 forward $221 $-1 #
coedge $-1 $356 $223 $224 $344 reversed $138 $-1 #
coedge $-1 $350 $474 $223 $342 reversed $221 $-1 #
edge $-1 $357 -14.04103684970298 $476 14.04103684970298 $341 $477 forward 7 unknown #
coedge $-1 $225 $224 $474 $478 forward $89 $-1 #
edge $-1 $348 -49.786675618762779 $476 49.786675618762779 $340 $479 forward 7 unknown #
coedge $-1 $353 $352 $225 $346 reversed $337 $-1 #
edge $-1 $480 -49.786675618762779 $347 49.786675618762779 $345 $481 forward 7 unknown #
vertex $-1 $227 $482 #
vertex $-1 $359 $483 #
straight-curve $-1 49.786675618762779 0 -14.04103684970298 0 -1 0 I I #
coedge $-1 $339 $341 $228 $351 reversed $221 $-1 #
edge $-1 $354 -33.252096273125389 $357 33.252096273125389 $350 $484 forward 7 unknown #
coedge $-1 $345 $229 $234 $360 forward $337 $-1 #
coedge $-1 $229 $345 $339 $475 reversed $337 $-1 #
vertex $-1 $230 $485 #
straight-curve $-1 0 33.252096273125389 14.04103684970298 -1 0 0 I I #
coedge $-1 $231 $340 $233 $359 reversed $138 $-1 #
vertex $-1 $351 $486 #
straight-curve $-1 0 -33.252096273125389 14.04103684970298 1 0 0 I I #
edge $-1 $236 -14.04103684970298 $348 14.04103684970298 $233 $487 forward 7 unknown #
edge $-1 $237 -14.04103684970298 $347 14.04103684970298 $234 $488 forward 7 unknown #
point $-1 49.786675618762779 -33.252096273125389 14.04103684970298 #
point $-1 49.786675618762779 33.252096273125389 14.04103684970298 #
plane-surface $-1 0 0 14.04103684970298 0 0 1 1 0 0 forward_v I I I I #
coedge $-1 $374 $373 $366 $489 forward $240 $-1 #
coedge $-1 $366 $242 $244 $370 reversed $146 $-1 #
coedge $-1 $242 $365 $364 $489 reversed $146 $-1 #
coedge $-1 $250 $245 $242 $368 forward $251 $-1 #
edge $-1 $371 -16.625161289653882 $490 -7.9745217608657981 $367 $491 forward 7 unknown #
coedge $-1 $244 $243 $374 $492 reversed $93 $-1 #
edge $-1 $493 -66.504192546250778 $371 -50.179744050623668 $365 $494 forward 7 unknown #
vertex $-1 $246 $495 #
straight-curve $-1 -17.752101541546132 24.601456744337305 14.04103684970298 1 0 0 I I #
coedge $-1 $364 $247 $250 $378 reversed $240 $-1 #
coedge $-1 $247 $364 $369 $492 forward $240 $-1 #
vertex $-1 $248 $496 #
straight-curve $-1 -42.322122661830392 33.252096273125389 54.680854708668264 0 0 1 I I #
straight-curve $-1 -42.322122661830392 -1.9897556659976914 56.595873655106764 0 0.52991925155115449 -0.84804810408105047 I I #
edge $-1 $490 28.686283504354133 $252 42.322122661830392 $373 $497 forward 7 unknown #
point $-1 -42.322122661830392 33.252096273125389 14.04103684970298 #
point $-1 -42.322122661830392 24.601456744337305 14.041036849702984 #
edge $-1 $498 1 $498 0 $255 $-1 forward 7 unknown #
vertex $-1 $256 $499 #
ellipse-curve $-1 -35.504203083092264 23.142905717880033 3.5049145789208058 0 0.84804810408105047 0.52991925155115449 2 0 0 1 I I #
point $-1 -33.504203083092264 28.926776508731347 7.1190780512603213 #
loop $-1 $-1 $267 $259 #
plane-surface $-1 0 33.252096273125389 0 0 -1 0 0 0 -1 forward_v I I I I #
coedge $-1 $388 $262 $264 $392 reversed $161 $-1 #
coedge $-1 $262 $387 $500 $501 reversed $161 $-1 #
coedge $-1 $270 $265 $262 $390 forward $260 $-1 #
edge $-1 $393 -16.625161289653882 $502 -7.9745217608657981 $389 $503 forward 7 unknown #
coedge $-1 $264 $263 $396 $504 reversed $102 $-1 #
edge $-1 $505 -66.504192546250778 $393 -50.179744050623668 $387 $506 forward 7 unknown #
vertex $-1 $266 $507 #
straight-curve $-1 -5.9173671805153774 24.601456744337305 14.04103684970298 1 0 0 I I #
coedge $-1 $500 $267 $270 $400 reversed $385 $-1 #
coedge $-1 $267 $500 $391 $504 forward $385 $-1 #
vertex $-1 $268 $508 #
straight-curve $-1 -18.652653939768886 33.252096273125389 54.680854708668264 0 0 1 I I #
straight-curve $-1 -18.652653939768886 -1.9897556659976914 56.595873655106764 0 0.52991925155115449 -0.84804810408105047 I I #
edge $-1 $502 5.0168147822926246 $271 18.652653939768886 $395 $509 forward 7 unknown #
point $-1 -18.652653939768886 33.252096273125389 14.04103684970298 #
point $-1 -18.652653939768886 24.601456744337305 14.041036849702984 #
edge $-1 $510 1 $510 0 $274 $-1 forward 7 unknown #
vertex $-1 $275 $511 #
ellipse-curve $-1 -11.834734361030755 23.142905717880033 3.5049145789208058 0 0.84804810408105047 0.52991925155115449 2 0 0 1 I I #
point $-1 -9.8347343610307547 28.926776508731347 7.1190780512603213 #
loop $-1 $-1 $286 $278 #
plane-surface $-1 0 33.252096273125389 0 0 -1 0 0 0 -1 forward_v I I I I #
coedge $-1 $410 $281 $283 $414 reversed $176 $-1 #
coedge $-1 $281 $409 $512 $513 reversed $176 $-1 #
coedge $-1 $289 $284 $281 $412 forward $279 $-1 #
edge $-1 $415 -16.625161289653882 $514 -7.9745217608657981 $411 $515 forward 7 unknown #
coedge $-1 $283 $282 $418 $516 reversed $111 $-1 #
edge $-1 $517 -66.504192546250778 $415 -50.179744050623668 $409 $518 forward 7 unknown #
vertex $-1 $285 $519 #
straight-curve $-1 5.9173671805153809 24.601456744337305 14.04103684970298 1 0 0 I I #
coedge $-1 $512 $286 $289 $422 reversed $407 $-1 #
coedge $-1 $286 $512 $413 $516 forward $407 $-1 #
vertex $-1 $287 $520 #
straight-curve $-1 5.0168147822926317 33.252096273125389 54.680854708668264 0 0 1 I I #
straight-curve $-1 5.0168147822926317 -1.9897556659976914 56.595873655106764 0 0.52991925155115449 -0.84804810408105047 I I #
edge $-1 $514 -18.652653939768893 $290 -5.0168147822926317 $417 $521 forward 7 unknown #
point $-1 5.0168147822926317 33.252096273125389 14.04103684970298 #
point $-1 5.0168147822926317 24.601456744337305 14.041036849702984 #
edge $-1 $522 1 $522 0 $293 $-1 forward 7 unknown #
vertex $-1 $294 $523 #
ellipse-curve $-1 11.834734361030762 23.142905717880033 3.5049145789208058 0 0.84804810408105047 0.52991925155115449 2 0 0 1 I I #
point $-1 13.834734361030762 28.926776508731347 7.1190780512603213 #
loop $-1 $-1 $305 $297 #
plane-surface $-1 0 33.252096273125389 0 0 -1 0 0 0 -1 forward_v I I I I #
coedge $-1 $432 $300 $302 $436 reversed $191 $-1 #
coedge $-1 $300 $431 $524 $525 reversed $191 $-1 #
coedge $-1 $308 $303 $300 $434 forward $298 $-1 #
edge $-1 $437 -16.625161289653882 $526 -7.9745217608657981 $433 $527 forward 7 unknown #
coedge $-1 $302 $301 $440 $528 reversed $120 $-1 #
edge $-1 $529 -66.504192546250778 $437 -50.179744050623668 $431 $530 forward 7 unknown #
vertex $-1 $304 $531 #
straight-curve $-1 17.752101541546136 24.601456744337305 14.04103684970298 1 0 0 I I #
coedge $-1 $524 $305 $308 $444 reversed $429 $-1 #
coedge $-1 $305 $524 $435 $528 forward $429 $-1 #
vertex $-1 $306 $532 #
straight-curve $-1 28.68628350435414 33.252096273125389 54.680854708668264 0 0 1 I I #
straight-curve $-1 28.68628350435414 -1.9897556659976914 56.595873655106764 0 0.52991925155115449 -0.84804810408105047 I I #
edge $-1 $526 -42.322122661830399 $309 -28.68628350435414 $439 $533 forward 7 unknown #
point $-1 28.68628350435414 33.252096273125389 14.04103684970298 #
point $-1 28.68628350435414 24.601456744337305 14.041036849702984 #
edge $-1 $534 1 $534 0 $312 $-1 forward 7 unknown #
vertex $-1 $313 $535 #
ellipse-curve $-1 35.504203083092271 23.142905717880033 3.5049145789208058 0 0.84804810408105047 0.52991925155115449 2 0 0 1 I I #
point $-1 37.504203083092271 28.926776508731347 7.1190780512603213 #
plane-surface $-1 0 0 14.04103684970298 0 0 1 1 0 0 forward_v I I I I #
coedge $-1 $462 $461 $454 $536 forward $317 $-1 #
coedge $-1 $454 $319 $321 $458 reversed $206 $-1 #
coedge $-1 $319 $453 $452 $536 reversed $206 $-1 #
coedge $-1 $327 $322 $319 $456 forward $328 $-1 #
edge $-1 $459 -30.440600898516433 $537 -12.637825926679845 $455 $538 forward 7 unknown #
coedge $-1 $321 $320 $462 $539 reversed $129 $-1 #
edge $-1 $540 8.7502459990790685e-015 $459 22.005440201722173 $453 $541 forward 7 unknown #
vertex $-1 $323 $542 #
straight-curve $-1 2.8019884699593511 -15.449321301288803 14.04103684970298 -1 0 0 I I #
coedge $-1 $452 $324 $327 $466 reversed $317 $-1 #
coedge $-1 $324 $452 $457 $539 forward $317 $-1 #
vertex $-1 $325 $543 #
straight-curve $-1 12.846269164926571 -33.252096273125389 40.831548129223791 0 0 1 I I #
straight-curve $-1 12.846269164926571 -33.252096273125396 1.1065634636806863 0 -0.80901698891910034 -0.5877852598018023 I I #
edge $-1 $537 -1.6383152850891669 $329 12.846269164926571 $461 $544 forward 7 unknown #
point $-1 12.846269164926571 -33.252096273125389 14.04103684970298 #
point $-1 12.846269164926571 -15.449321301288801 14.04103684970298 #
edge $-1 $545 1 $545 0 $332 $-1 forward 7 unknown #
vertex $-1 $333 $546 #
ellipse-curve $-1 5.6039769399187023 -22.137047109281681 4.5269563046280856 0 -0.5877852598018023 0.80901698891910034 2 0 0 1 I I #
point $-1 7.6039769399187023 -24.350708787207083 7.5738001566918278 #
plane-surface $-1 49.786675618762779 0 0 -1 0 0 0 0 1 forward_v I I I I #
coedge $-1 $341 $339 $343 $478 reversed $221 $-1 #
edge $-1 $354 -14.04103684970298 $480 14.04103684970298 $353 $547 forward 7 unknown #
vertex $-1 $478 $548 #
straight-curve $-1 -49.786675618762779 -33.252096273125389 0 0 0 -1 I I #
edge $-1 $476 -33.252096273125389 $480 33.252096273125389 $474 $549 forward 7 unknown #
straight-curve $-1 0 -33.252096273125389 -14.04103684970298 -1 0 0 I I #
vertex $-1 $346 $550 #
straight-curve $-1 0 33.252096273125389 -14.04103684970298 1 0 0 I I #
point $-1 49.786675618762779 33.252096273125389 -14.04103684970298 #
point $-1 49.786675618762779 -33.252096273125389 -14.04103684970298 #
straight-curve $-1 -49.786675618762779 0 14.04103684970298 0 -1 0 I I #
point $-1 -49.786675618762779 33.252096273125389 14.04103684970298 #
point $-1 -49.786675618762779 -33.252096273125389 14.04103684970298 #
straight-curve $-1 49.786675618762779 -33.252096273125389 0 0 0 -1 I I #
straight-curve $-1 49.786675618762779 33.252096273125389 0 0 0 -1 I I #
edge $-1 $490 40.639817858965287 $493 54.483735455850599 $364 $551 forward 7 unknown #
vertex $-1 $378 $552 #
straight-curve $-1 -28.686283504354133 41.226618033991187 14.041036849702976 0 1 0 I I #
edge $-1 $493 10.934181962808001 $375 24.57002112028426 $374 $553 forward 7 unknown #
vertex $-1 $492 $554 #
straight-curve $-1 -28.686283504354133 -1.9897556659976914 56.595873655106764 0 -0.52991925155115449 0.84804810408105047 I I #
point $-1 -28.686283504354133 24.601456744337305 14.041036849702984 #
point $-1 -42.322122661830392 33.252096273125389 0.1971192528176644 #
straight-curve $-1 0 33.252096273125389 14.04103684970298 -1 0 0 I I #
vertex $-1 $381 $555 #
point $-1 -33.504203083092264 23.142905717880033 3.5049145789208058 #
coedge $-1 $396 $395 $388 $501 forward $385 $-1 #
edge $-1 $502 40.639817858965287 $505 54.483735455850599 $500 $556 forward 7 unknown #
vertex $-1 $400 $557 #
straight-curve $-1 -5.0168147822926246 41.226618033991187 14.041036849702976 0 1 0 I I #
edge $-1 $505 -0.90055239822275279 $397 12.735286759253508 $396 $558 forward 7 unknown #
vertex $-1 $504 $559 #
straight-curve $-1 -5.0168147822926246 -1.9897556659976914 56.595873655106764 0 -0.52991925155115449 0.84804810408105047 I I #
point $-1 -5.0168147822926246 24.601456744337305 14.041036849702984 #
point $-1 -18.652653939768886 33.252096273125389 0.1971192528176644 #
straight-curve $-1 0 33.252096273125389 14.04103684970298 -1 0 0 I I #
vertex $-1 $403 $560 #
point $-1 -9.8347343610307547 23.142905717880033 3.5049145789208058 #
coedge $-1 $418 $417 $410 $513 forward $407 $-1 #
edge $-1 $514 40.639817858965287 $517 54.483735455850599 $512 $561 forward 7 unknown #
vertex $-1 $422 $562 #
straight-curve $-1 18.652653939768893 41.226618033991187 14.041036849702976 0 1 0 I I #
edge $-1 $517 -12.735286759253512 $419 0.90055239822274924 $418 $563 forward 7 unknown #
vertex $-1 $516 $564 #
straight-curve $-1 18.652653939768893 -1.9897556659976914 56.595873655106764 0 -0.52991925155115449 0.84804810408105047 I I #
point $-1 18.652653939768893 24.601456744337305 14.041036849702984 #
point $-1 5.0168147822926317 33.252096273125389 0.1971192528176644 #
straight-curve $-1 0 33.252096273125389 14.04103684970298 -1 0 0 I I #
vertex $-1 $425 $565 #
point $-1 13.834734361030762 23.142905717880033 3.5049145789208058 #
coedge $-1 $440 $439 $432 $525 forward $429 $-1 #
edge $-1 $526 40.639817858965287 $529 54.483735455850599 $524 $566 forward 7 unknown #
vertex $-1 $444 $567 #
straight-curve $-1 42.322122661830399 41.226618033991187 14.041036849702976 0 1 0 I I #
edge $-1 $529 -24.570021120284263 $441 -10.934181962808005 $440 $568 forward 7 unknown #
vertex $-1 $528 $569 #
straight-curve $-1 42.322122661830399 -1.9897556659976914 56.595873655106764 0 -0.52991925155115449 0.84804810408105047 I I #
point $-1 42.322122661830399 24.601456744337305 14.041036849702984 #
point $-1 28.68628350435414 33.252096273125389 0.1971192528176644 #
straight-curve $-1 0 33.252096273125389 14.04103684970298 -1 0 0 I I #
vertex $-1 $447 $570 #
point $-1 37.504203083092271 23.142905717880033 3.5049145789208058 #
edge $-1 $537 26.79051127952081 $540 39.724984665543097 $452 $571 forward 7 unknown #
vertex $-1 $466 $572 #
straight-curve $-1 -1.6383152850891669 -45.889922199805234 14.041036849702976 0 -1 0 I I #
edge $-1 $540 -4.440303755048518 $463 10.04428069496722 $462 $573 forward 7 unknown #
vertex $-1 $539 $574 #
straight-curve $-1 -1.6383152850891669 -33.252096273125396 1.1065634636806863 0 0.80901698891910034 0.5877852598018023 I I #
point $-1 -1.6383152850891669 -15.449321301288801 14.04103684970298 #
point $-1 12.846269164926571 -33.252096273125389 1.1065634636806914 #
straight-curve $-1 0 -33.252096273125389 14.04103684970298 1 0 0 I I #
vertex $-1 $469 $575 #
point $-1 7.6039769399187023 -22.137047109281681 4.5269563046280856 #
straight-curve $-1 -49.786675618762779 33.252096273125389 0 0 0 -1 I I #
point $-1 -49.786675618762779 -33.252096273125389 -14.04103684970298 #
straight-curve $-1 -49.786675618762779 0 -14.04103684970298 0 1 0 I I #
point $-1 -49.786675618762779 33.252096273125389 -14.04103684970298 #
straight-curve $-1 -28.686283504354133 33.252096273125389 54.680854708668264 0 0 -1 I I #
point $-1 -28.686283504354133 33.252096273125389 14.04103684970298 #
straight-curve $-1 -17.752101541546132 33.252096273125389 0.19711925281766085 -1 0 0 I I #
point $-1 -28.686283504354133 33.252096273125389 0.1971192528176644 #
point $-1 -35.504203083092264 21.44680950971793 2.4450760758184966 #
straight-curve $-1 -5.0168147822926246 33.252096273125389 54.680854708668264 0 0 -1 I I #
point $-1 -5.0168147822926246 33.252096273125389 14.04103684970298 #
straight-curve $-1 -5.9173671805153774 33.252096273125389 0.19711925281766085 -1 0 0 I I #
point $-1 -5.0168147822926246 33.252096273125389 0.1971192528176644 #
point $-1 -11.834734361030755 21.44680950971793 2.4450760758184966 #
straight-curve $-1 18.652653939768893 33.252096273125389 54.680854708668264 0 0 -1 I I #
point $-1 18.652653939768893 33.252096273125389 14.04103684970298 #
straight-curve $-1 5.9173671805153809 33.252096273125389 0.19711925281766085 -1 0 0 I I #
point $-1 18.652653939768893 33.252096273125389 0.1971192528176644 #
point $-1 11.834734361030762 21.44680950971793 2.4450760758184966 #
straight-curve $-1 42.322122661830399 33.252096273125389 54.680854708668264 0 0 -1 I I #
point $-1 42.322122661830399 33.252096273125389 14.04103684970298 #
straight-curve $-1 17.752101541546136 33.252096273125389 0.19711925281766085 -1 0 0 I I #
point $-1 42.322122661830399 33.252096273125389 0.1971192528176644 #
point $-1 35.504203083092271 21.44680950971793 2.4450760758184966 #
straight-curve $-1 -1.6383152850891669 -33.252096273125389 40.831548129223791 0 0 -1 I I #
point $-1 -1.6383152850891669 -33.252096273125389 14.04103684970298 #
straight-curve $-1 2.8019884699593511 -33.252096273125389 1.1065634636806911 1 0 0 I I #
point $-1 -1.6383152850891669 -33.252096273125389 1.1065634636806914 #
point $-1 5.6039769399187023 -20.961476589678078 2.9089223267898854 #
End-of-ACIS-data 