500 0 9 0           
7 Unknown 11 ACIS 5.0 NT 24 Fri Mar 26 00:42:29 1999 
-1 9.9999999999999995e-007 1e-010 
body $-1 $9 $-1 $10 #
body $-1 $11 $-1 $12 #
body $-1 $13 $-1 $14 #
body $-1 $15 $-1 $16 #
body $-1 $17 $-1 $18 #
body $-1 $19 $-1 $20 #
body $-1 $21 $-1 $22 #
body $-1 $23 $-1 $24 #
body $-1 $25 $-1 $26 #
lump $-1 $-1 $27 $0 #
transform $-1 1 0 0 0 1 0 0 0 1 58.983733634449294 26.627914663765104 12.908772900858862 1 rotate no_reflect no_shear #
lump $-1 $-1 $28 $1 #
transform $-1 1 0 0 0 1 0 0 0 1 58.983733634449294 26.627914663765104 12.908772900858862 1 rotate no_reflect no_shear #
lump $-1 $-1 $29 $2 #
transform $-1 1 0 0 0 1 0 0 0 1 58.983733634449294 26.627914663765104 12.908772900858862 1 rotate no_reflect no_shear #
lump $-1 $-1 $30 $3 #
transform $-1 1 0 0 0 1 0 0 0 1 58.983733634449294 26.627914663765104 12.908772900858862 1 rotate no_reflect no_shear #
lump $-1 $-1 $31 $4 #
transform $-1 1 0 0 0 1 0 0 0 1 58.983733634449294 26.627914663765104 12.908772900858862 1 rotate no_reflect no_shear #
lump $-1 $-1 $32 $5 #
transform $-1 1 0 0 0 1 0 0 0 1 58.983733634449294 26.627914663765104 12.908772900858862 1 rotate no_reflect no_shear #
lump $-1 $-1 $33 $6 #
transform $-1 1 0 0 0 1 0 0 0 1 58.983733634449294 26.627914663765104 12.908772900858862 1 rotate no_reflect no_shear #
lump $-1 $-1 $34 $7 #
transform $-1 1 0 0 0 1 0 0 0 1 58.983733634449294 26.627914663765104 12.908772900858862 1 rotate no_reflect no_shear #
lump $-1 $-1 $35 $8 #
transform $-1 1 0 0 0 1 0 0 0 1 58.983733634449294 26.627914663765104 12.908772900858862 1 rotate no_reflect no_shear #
shell $-1 $-1 $-1 $36 $-1 $9 #
shell $-1 $-1 $-1 $37 $-1 $11 #
shell $-1 $-1 $-1 $38 $-1 $13 #
shell $-1 $-1 $-1 $39 $-1 $15 #
shell $-1 $-1 $-1 $40 $-1 $17 #
shell $-1 $-1 $-1 $41 $-1 $19 #
shell $-1 $-1 $-1 $42 $-1 $21 #
shell $-1 $-1 $-1 $43 $-1 $23 #
shell $-1 $-1 $-1 $44 $-1 $25 #
face $-1 $45 $46 $27 $-1 $47 forward single #
face $-1 $48 $49 $28 $-1 $50 reversed single #
face $-1 $51 $52 $29 $-1 $53 reversed single #
face $-1 $54 $55 $30 $-1 $56 reversed single #
face $-1 $57 $58 $31 $-1 $59 forward single #
face $-1 $60 $61 $32 $-1 $62 forward single #
face $-1 $63 $64 $33 $-1 $65 reversed single #
face $-1 $66 $67 $34 $-1 $68 forward single #
face $-1 $69 $70 $35 $-1 $71 forward single #
face $-1 $72 $73 $27 $-1 $74 reversed single #
loop $-1 $-1 $75 $36 #
plane-surface $-1 0 0 12.908772900858862 0 0 1 1 0 0 forward_v I I I I #
face $-1 $76 $77 $28 $-1 $78 reversed single #
loop $-1 $-1 $79 $37 #
plane-surface $-1 -54.633094635090494 0 8.6522304134593551 0 0 1 1 0 0 forward_v I I I I #
face $-1 $80 $81 $29 $-1 $82 reversed single #
loop $-1 $-1 $83 $38 #
plane-surface $-1 54.633094635090487 0 8.6522304134593551 0 0 1 1 0 0 forward_v I I I I #
face $-1 $84 $85 $30 $-1 $86 reversed single #
loop $-1 $-1 $87 $39 #
plane-surface $-1 18.439507048971812 100.3169919574087 110.62205885016952 1 0 0 0 -0.85716730853699208 -0.51503806187062418 forward_v I I I I #
face $-1 $88 $89 $31 $-1 $90 forward single #
loop $-1 $91 $92 $40 #
cone-surface $-1 26.295766696565195 22.656617233707951 7.7451151852753792 0 -0.85716730853699208 -0.51503806187062418 2.5 0 0 1 I I 0 1 2.5 forward I I I I #
face $-1 $93 $94 $32 $-1 $95 forward single #
loop $-1 $96 $97 $41 #
cone-surface $-1 38.080156167955252 22.656617233707951 7.7451151852753792 0 -0.85716730853699208 -0.51503806187062418 2.5 0 0 1 I I 0 1 2.5 forward I I I I #
face $-1 $98 $99 $33 $-1 $100 reversed single #
loop $-1 $-1 $101 $42 #
plane-surface $-1 38.187934498825072 -26.627914663765097 4.7821690925071607 0 -0.81915205242281985 0.57357642473473569 1 0 0 forward_v I I I I #
face $-1 $102 $103 $34 $-1 $104 forward single #
loop $-1 $105 $106 $43 #
cone-surface $-1 33.004568297293659 -20.690121762922512 6.679982367040096 0 0.81915205242281985 -0.57357642473473569 2 0 0 1 I I 0 1 2 forward I I I I #
face $-1 $107 $108 $35 $-1 $109 forward single #
loop $-1 $110 $111 $44 #
cone-surface $-1 43.371300700356471 -20.690121762922512 6.679982367040096 0 0.81915205242281985 -0.57357642473473569 2 0 0 1 I I 0 1 2 forward I I I I #
face $-1 $112 $113 $27 $-1 $114 reversed single #
loop $-1 $-1 $115 $45 #
plane-surface $-1 0 0 -12.908772900858862 0 0 1 1 0 0 forward_v I I I I #
coedge $-1 $116 $117 $118 $119 forward $46 $-1 #
face $-1 $120 $121 $28 $-1 $122 reversed single #
loop $-1 $-1 $123 $48 #
plane-surface $-1 -50.282455635731694 0 10.780501657159109 -1 0 0 0 0 1 forward_v I I I I #
coedge $-1 $124 $125 $126 $127 forward $49 $-1 #
face $-1 $128 $129 $29 $-1 $130 forward single #
loop $-1 $-1 $131 $51 #
plane-surface $-1 50.282455635731687 0 10.780501657159109 1 0 0 0 0 -1 forward_v I I I I #
coedge $-1 $132 $133 $134 $135 reversed $52 $-1 #
face $-1 $136 $137 $30 $-1 $138 reversed single #
loop $-1 $-1 $139 $54 #
plane-surface $-1 32.187961432260209 -0.80086445639881276 49.864323144209699 0 0.85716730853699208 0.51503806187062418 1 0 0 forward_v I I I I #
coedge $-1 $140 $141 $142 $143 reversed $55 $-1 #
face $-1 $-1 $144 $31 $-1 $145 forward single #
loop $-1 $146 $147 $57 #
cone-surface $-1 26.295766696565195 20.225683212770079 6.2844627149704255 0 -0.85716730853699208 -0.51503806187062418 1.25 0 0 1 I I -0.70710678118654746 0.70710678118654746 1.25 forward I I I I #
loop $-1 $-1 $148 $40 #
coedge $-1 $92 $92 $149 $150 reversed $58 $-1 #
face $-1 $-1 $151 $32 $-1 $152 forward single #
loop $-1 $153 $154 $60 #
cone-surface $-1 38.080156167955252 20.225683212770079 6.2844627149704255 0 -0.85716730853699208 -0.51503806187062418 1.25 0 0 1 I I -0.70710678118654746 0.70710678118654746 1.25 forward I I I I #
loop $-1 $-1 $155 $41 #
coedge $-1 $97 $97 $156 $157 reversed $61 $-1 #
face $-1 $158 $159 $33 $-1 $160 forward single #
loop $-1 $-1 $161 $63 #
plane-surface $-1 26.093413361918451 -123.2612075962052 72.445527203613963 1 0 0 0 0.81915205242281985 -0.57357642473473569 forward_v I I I I #
coedge $-1 $162 $163 $164 $165 reversed $64 $-1 #
face $-1 $-1 $166 $34 $-1 $167 forward single #
loop $-1 $168 $169 $66 #
cone-surface $-1 33.004568297293659 -16.77833134711047 3.9409173126624442 0 0.81915205242281985 -0.57357642473473569 1 0 0 1 I I -0.70710678118654746 0.70710678118654746 1 forward I I I I #
loop $-1 $-1 $170 $43 #
coedge $-1 $106 $106 $171 $172 reversed $67 $-1 #
face $-1 $-1 $173 $35 $-1 $174 forward single #
loop $-1 $175 $176 $69 #
cone-surface $-1 43.371300700356471 -16.77833134711047 3.9409173126624442 0 0.81915205242281985 -0.57357642473473569 1 0 0 1 I I -0.70710678118654746 0.70710678118654746 1 forward I I I I #
loop $-1 $-1 $177 $44 #
coedge $-1 $111 $111 $178 $179 reversed $70 $-1 #
face $-1 $180 $181 $27 $-1 $182 reversed single #
loop $-1 $-1 $183 $72 #
plane-surface $-1 0 -26.627914663765104 0 0 1 0 0 0 1 forward_v I I I I #
coedge $-1 $184 $185 $186 $187 forward $73 $-1 #
coedge $-1 $188 $75 $189 $190 forward $46 $-1 #
coedge $-1 $75 $188 $191 $192 forward $46 $-1 #
coedge $-1 $193 $194 $75 $119 reversed $195 $-1 #
edge $-1 $196 -26.627914663765104 $197 26.627914663765104 $118 $198 forward 7 unknown #
face $-1 $199 $200 $28 $-1 $201 reversed single #
loop $-1 $-1 $202 $76 #
plane-surface $-1 0 26.627914663765104 0 0 -1 0 0 0 -1 forward_v I I I I #
coedge $-1 $126 $203 $204 $205 reversed $77 $-1 #
coedge $-1 $206 $79 $207 $208 reversed $49 $-1 #
coedge $-1 $79 $206 $209 $210 reversed $49 $-1 #
coedge $-1 $211 $123 $79 $127 reversed $77 $-1 #
edge $-1 $212 -26.627914663765104 $213 26.627914663765104 $126 $214 forward 7 unknown #
face $-1 $215 $216 $29 $-1 $217 reversed single #
loop $-1 $-1 $218 $80 #
plane-surface $-1 0 0 12.908772900858862 0 0 1 1 0 0 forward_v I I I I #
coedge $-1 $219 $220 $221 $222 reversed $81 $-1 #
coedge $-1 $223 $83 $224 $225 reversed $52 $-1 #
coedge $-1 $83 $223 $226 $227 reversed $52 $-1 #
coedge $-1 $228 $229 $83 $135 forward $230 $-1 #
edge $-1 $231 -26.627914663765104 $232 26.627914663765104 $134 $233 forward 7 unknown #
face $-1 $234 $235 $30 $-1 $236 reversed single #
loop $-1 $-1 $237 $84 #
plane-surface $-1 45.936415815548607 100.3169919574087 110.62205885016952 -1 0 0 0 0.85716730853699208 0.51503806187062418 forward_v I I I I #
coedge $-1 $238 $239 $240 $241 reversed $85 $-1 #
coedge $-1 $141 $87 $242 $243 reversed $55 $-1 #
coedge $-1 $87 $140 $238 $244 reversed $55 $-1 #
coedge $-1 $240 $245 $87 $143 forward $246 $-1 #
edge $-1 $247 23.530581314939248 $248 28.754226404520292 $142 $249 forward 7 unknown #
loop $-1 $-1 $149 $88 #
plane-surface $-1 32.187961432260209 -0.80086445639881276 49.864323144209699 0 0.85716730853699208 0.51503806187062418 1 0 0 forward_v I I I I #
loop $-1 $-1 $250 $57 #
coedge $-1 $147 $147 $148 $251 reversed $89 $-1 #
coedge $-1 $148 $148 $147 $251 forward $91 $-1 #
coedge $-1 $149 $149 $92 $150 forward $144 $-1 #
edge $-1 $252 4.9143641036907933e-016 $252 6.2831853071796013 $149 $253 forward 7 unknown #
loop $-1 $-1 $156 $93 #
plane-surface $-1 32.187961432260209 -0.80086445639881276 49.864323144209699 0 0.85716730853699208 0.51503806187062418 1 0 0 forward_v I I I I #
loop $-1 $-1 $254 $60 #
coedge $-1 $154 $154 $155 $255 reversed $94 $-1 #
coedge $-1 $155 $155 $154 $255 forward $96 $-1 #
coedge $-1 $156 $156 $97 $157 forward $151 $-1 #
edge $-1 $256 4.9143641036907933e-016 $256 6.2831853071796013 $156 $257 forward 7 unknown #
face $-1 $258 $259 $33 $-1 $260 reversed single #
loop $-1 $-1 $164 $98 #
plane-surface $-1 0 0 12.908772900858862 0 0 1 1 0 0 forward_v I I I I #
coedge $-1 $261 $262 $263 $264 reversed $99 $-1 #
coedge $-1 $265 $101 $266 $267 reversed $64 $-1 #
coedge $-1 $101 $265 $261 $268 forward $64 $-1 #
coedge $-1 $263 $269 $101 $165 forward $159 $-1 #
edge $-1 $270 -31.188488386319158 $271 -6.9994461125059146 $164 $272 forward 7 unknown #
loop $-1 $-1 $171 $102 #
plane-surface $-1 38.187934498825072 -26.627914663765097 4.7821690925071607 0 -0.81915205242281985 0.57357642473473569 1 0 0 forward_v I I I I #
loop $-1 $-1 $273 $66 #
coedge $-1 $169 $169 $170 $274 reversed $103 $-1 #
coedge $-1 $170 $170 $169 $274 forward $105 $-1 #
coedge $-1 $171 $171 $106 $172 forward $166 $-1 #
edge $-1 $275 -5.8264645916255301e-016 $275 6.2831853071795996 $171 $276 forward 7 unknown #
loop $-1 $-1 $178 $107 #
plane-surface $-1 38.187934498825072 -26.627914663765097 4.7821690925071607 0 -0.81915205242281985 0.57357642473473569 1 0 0 forward_v I I I I #
loop $-1 $-1 $277 $69 #
coedge $-1 $176 $176 $177 $278 reversed $108 $-1 #
coedge $-1 $177 $177 $176 $278 forward $110 $-1 #
coedge $-1 $178 $178 $111 $179 forward $173 $-1 #
edge $-1 $279 -5.8264645916255301e-016 $279 6.2831853071795996 $178 $280 forward 7 unknown #
face $-1 $281 $282 $27 $-1 $283 reversed single #
loop $-1 $-1 $284 $112 #
plane-surface $-1 -58.983733634449294 0 0 1 0 0 0 0 -1 forward_v I I I I #
coedge $-1 $285 $191 $286 $287 forward $113 $-1 #
coedge $-1 $288 $115 $285 $289 forward $73 $-1 #
coedge $-1 $115 $288 $290 $291 forward $73 $-1 #
coedge $-1 $194 $193 $115 $187 reversed $195 $-1 #
edge $-1 $292 -26.627914663765104 $293 26.627914663765104 $186 $294 forward 7 unknown #
coedge $-1 $117 $116 $295 $296 forward $46 $-1 #
coedge $-1 $297 $298 $116 $190 reversed $282 $-1 #
edge $-1 $197 -58.983733634449294 $299 58.983733634449294 $189 $300 forward 7 unknown #
coedge $-1 $183 $301 $117 $192 reversed $113 $-1 #
edge $-1 $302 -58.983733634449294 $196 58.983733634449294 $191 $303 forward 7 unknown #
coedge $-1 $186 $118 $301 $304 forward $195 $-1 #
coedge $-1 $118 $186 $297 $305 reversed $195 $-1 #
loop $-1 $-1 $193 $281 #
vertex $-1 $119 $306 #
vertex $-1 $119 $307 #
straight-curve $-1 58.983733634449294 0 12.908772900858862 0 1 0 I I #
face $-1 $308 $309 $28 $-1 $310 forward single #
loop $-1 $-1 $311 $120 #
plane-surface $-1 -58.983733634449294 0 0 1 0 0 0 0 -1 forward_v I I I I #
coedge $-1 $209 $312 $211 $313 forward $121 $-1 #
coedge $-1 $123 $211 $314 $315 reversed $77 $-1 #
coedge $-1 $316 $207 $123 $205 forward $317 $-1 #
edge $-1 $213 3.2619795848798008 $318 7.5185220722793078 $204 $319 forward 7 unknown #
coedge $-1 $125 $124 $311 $320 reversed $49 $-1 #
coedge $-1 $204 $321 $124 $208 forward $317 $-1 #
edge $-1 $322 -31.667186316904047 $213 -22.965908318186447 $207 $323 forward 7 unknown #
coedge $-1 $324 $202 $125 $210 forward $121 $-1 #
edge $-1 $212 22.965908318186447 $325 31.667186316904047 $209 $326 forward 7 unknown #
coedge $-1 $203 $126 $202 $313 reversed $77 $-1 #
vertex $-1 $210 $327 #
vertex $-1 $208 $328 #
straight-curve $-1 -50.282455635731694 0 8.6522304134593551 0 -1 0 I I #
face $-1 $329 $330 $29 $-1 $331 reversed single #
loop $-1 $-1 $332 $128 #
plane-surface $-1 0 -26.627914663765104 0 0 1 0 0 0 1 forward_v I I I I #
coedge $-1 $333 $334 $220 $335 forward $129 $-1 #
coedge $-1 $336 $131 $223 $337 reversed $81 $-1 #
coedge $-1 $131 $336 $218 $335 reversed $81 $-1 #
coedge $-1 $338 $226 $131 $222 forward $330 $-1 #
edge $-1 $339 3.2619795848798008 $340 7.5185220722793078 $221 $341 forward 7 unknown #
coedge $-1 $133 $132 $219 $337 forward $52 $-1 #
coedge $-1 $342 $332 $132 $225 forward $216 $-1 #
edge $-1 $343 22.965908318186443 $231 31.667186316904044 $224 $344 forward 7 unknown #
coedge $-1 $221 $345 $133 $227 forward $330 $-1 #
edge $-1 $232 -31.667186316904044 $339 -22.965908318186443 $226 $346 forward 7 unknown #
coedge $-1 $347 $134 $345 $348 reversed $230 $-1 #
coedge $-1 $134 $347 $342 $349 forward $230 $-1 #
loop $-1 $-1 $134 $329 #
vertex $-1 $225 $350 #
vertex $-1 $135 $351 #
straight-curve $-1 58.983733634449294 0 8.6522304134593551 0 1 0 I I #
face $-1 $-1 $246 $30 $-1 $352 forward single #
loop $-1 $-1 $353 $136 #
plane-surface $-1 0 26.627914663765104 0 0 -1 0 0 0 -1 forward_v I I I I #
coedge $-1 $354 $355 $356 $357 reversed $137 $-1 #
coedge $-1 $358 $139 $141 $244 forward $85 $-1 #
coedge $-1 $139 $358 $354 $359 forward $85 $-1 #
coedge $-1 $356 $142 $139 $241 forward $246 $-1 #
edge $-1 $248 2.3455263328417075 $360 29.842435099418502 $240 $361 forward 7 unknown #
coedge $-1 $362 $363 $140 $243 forward $235 $-1 #
edge $-1 $364 -51.095862169459558 $247 -42.402256524225898 $242 $365 forward 7 unknown #
edge $-1 $248 43.113578732285475 $364 53.255829327530236 $141 $366 forward 7 unknown #
coedge $-1 $142 $356 $362 $367 forward $246 $-1 #
loop $-1 $-1 $356 $234 #
vertex $-1 $243 $368 #
vertex $-1 $143 $369 #
straight-curve $-1 18.439507048971812 50.158495978704352 12.908772900858864 0 -1 0 I I #
coedge $-1 $250 $250 $-1 $370 reversed $146 $-1 #
edge $-1 $371 0 $371 6.2831853071796004 $147 $372 forward 7 unknown #
vertex $-1 $150 $373 #
ellipse-curve $-1 26.295766696565195 24.016092118974573 8.5619700782420445 0 0.85716730853699208 0.51503806187062418 2.5 0 0 1 I I #
coedge $-1 $254 $254 $-1 $374 reversed $153 $-1 #
edge $-1 $375 0 $375 6.2831853071796004 $154 $376 forward 7 unknown #
vertex $-1 $157 $377 #
ellipse-curve $-1 38.080156167955252 24.016092118974573 8.5619700782420445 0 0.85716730853699208 0.51503806187062418 2.5 0 0 1 I I #
face $-1 $-1 $378 $33 $-1 $379 forward single #
loop $-1 $-1 $380 $158 #
plane-surface $-1 0 -26.627914663765104 0 0 1 0 0 0 1 forward_v I I I I #
coedge $-1 $262 $161 $163 $268 reversed $99 $-1 #
coedge $-1 $161 $261 $380 $381 reversed $99 $-1 #
coedge $-1 $382 $164 $161 $264 forward $159 $-1 #
edge $-1 $271 -40.692998209244244 $383 -35.002689134337494 $263 $384 forward 7 unknown #
coedge $-1 $163 $162 $385 $386 reversed $64 $-1 #
coedge $-1 $387 $388 $162 $267 forward $378 $-1 #
edge $-1 $389 -10.093345261216665 $270 -0.17259393755762009 $266 $390 forward 7 unknown #
edge $-1 $391 -1.207859054955032e-014 $271 9.9207513236590312 $261 $392 forward 7 unknown #
coedge $-1 $164 $382 $387 $393 forward $159 $-1 #
vertex $-1 $267 $394 #
vertex $-1 $165 $395 #
straight-curve $-1 19.093967249412536 -20.937605588858357 12.908772900858862 -1 0 0 I I #
coedge $-1 $273 $273 $-1 $396 reversed $168 $-1 #
edge $-1 $397 0 $397 6.2831853071796004 $169 $398 forward 7 unknown #
vertex $-1 $172 $399 #
ellipse-curve $-1 33.004568297293659 -23.782760126311729 8.8454709966830087 0 -0.81915205242281985 0.57357642473473569 2 0 0 1 I I #
coedge $-1 $277 $277 $-1 $400 reversed $175 $-1 #
edge $-1 $401 0 $401 6.2831853071796004 $176 $402 forward 7 unknown #
vertex $-1 $179 $403 #
ellipse-curve $-1 43.371300700356471 -23.782760126311729 8.8454709966830087 0 -0.81915205242281985 0.57357642473473569 2 0 0 1 I I #
face $-1 $-1 $195 $27 $-1 $404 reversed single #
loop $-1 $-1 $297 $180 #
plane-surface $-1 0 26.627914663765104 0 0 -1 0 0 0 -1 forward_v I I I I #
coedge $-1 $405 $295 $298 $406 forward $181 $-1 #
coedge $-1 $301 $183 $184 $289 reversed $113 $-1 #
coedge $-1 $295 $405 $183 $287 reversed $181 $-1 #
edge $-1 $302 -12.908772900858862 $407 12.908772900858862 $286 $408 forward 7 unknown #
coedge $-1 $185 $184 $405 $409 forward $73 $-1 #
edge $-1 $293 -58.983733634449294 $407 58.983733634449294 $285 $410 forward 7 unknown #
coedge $-1 $298 $297 $185 $291 reversed $282 $-1 #
edge $-1 $411 -58.983733634449294 $292 58.983733634449294 $290 $412 forward 7 unknown #
vertex $-1 $187 $413 #
vertex $-1 $304 $414 #
straight-curve $-1 58.983733634449294 0 -12.908772900858862 0 -1 0 I I #
coedge $-1 $284 $286 $188 $296 reversed $181 $-1 #
edge $-1 $299 -26.627914663765104 $302 26.627914663765104 $295 $415 forward 7 unknown #
coedge $-1 $290 $189 $194 $305 forward $282 $-1 #
coedge $-1 $189 $290 $284 $406 reversed $282 $-1 #
vertex $-1 $190 $416 #
straight-curve $-1 0 26.627914663765104 12.908772900858862 -1 0 0 I I #
coedge $-1 $191 $285 $193 $304 reversed $113 $-1 #
vertex $-1 $296 $417 #
straight-curve $-1 0 -26.627914663765104 12.908772900858862 1 0 0 I I #
edge $-1 $196 -12.908772900858862 $293 12.908772900858862 $193 $418 forward 7 unknown #
edge $-1 $197 -12.908772900858862 $292 12.908772900858862 $194 $419 forward 7 unknown #
point $-1 58.983733634449294 -26.627914663765104 12.908772900858862 #
point $-1 58.983733634449294 26.627914663765104 12.908772900858862 #
face $-1 $-1 $317 $28 $-1 $420 reversed single #
loop $-1 $-1 $314 $199 #
plane-surface $-1 0 0 12.908772900858862 0 0 1 1 0 0 forward_v I I I I #
coedge $-1 $421 $422 $206 $320 forward $200 $-1 #
coedge $-1 $202 $324 $423 $424 reversed $121 $-1 #
edge $-1 $425 -7.5185220722793078 $212 -3.2619795848798008 $202 $426 forward 7 unknown #
coedge $-1 $423 $427 $203 $315 forward $309 $-1 #
edge $-1 $318 -26.627914663765104 $425 26.627914663765104 $314 $428 forward 7 unknown #
coedge $-1 $321 $204 $427 $429 reversed $317 $-1 #
loop $-1 $-1 $204 $308 #
vertex $-1 $205 $430 #
straight-curve $-1 -50.282455635731694 -26.627914663765104 5.3902508285795543 0 0 1 I I #
edge $-1 $325 -26.627914663765104 $322 26.627914663765104 $311 $431 forward 7 unknown #
coedge $-1 $207 $316 $421 $432 forward $317 $-1 #
vertex $-1 $320 $433 #
straight-curve $-1 -27.316547317545247 -26.627914663765104 8.6522304134593551 1 0 0 I I #
coedge $-1 $312 $209 $422 $434 reversed $121 $-1 #
vertex $-1 $320 $435 #
straight-curve $-1 -27.316547317545247 26.627914663765104 8.6522304134593551 -1 0 0 I I #
point $-1 -50.282455635731694 26.627914663765104 8.6522304134593551 #
point $-1 -50.282455635731694 -26.627914663765104 8.6522304134593551 #
face $-1 $-1 $230 $29 $-1 $436 reversed single #
loop $-1 $-1 $221 $215 #
plane-surface $-1 0 26.627914663765104 0 0 -1 0 0 0 -1 forward_v I I I I #
coedge $-1 $224 $437 $336 $438 forward $216 $-1 #
coedge $-1 $439 $218 $437 $440 forward $129 $-1 #
coedge $-1 $218 $439 $338 $441 forward $129 $-1 #
edge $-1 $340 -26.627914663765104 $442 26.627914663765104 $218 $443 forward 7 unknown #
coedge $-1 $220 $219 $332 $438 reversed $81 $-1 #
edge $-1 $343 -26.627914663765104 $339 26.627914663765104 $219 $444 forward 7 unknown #
coedge $-1 $345 $221 $334 $441 reversed $330 $-1 #
vertex $-1 $227 $445 #
vertex $-1 $222 $446 #
straight-curve $-1 50.282455635731687 26.627914663765104 5.3902508285795543 0 0 1 I I #
coedge $-1 $437 $224 $229 $349 reversed $216 $-1 #
vertex $-1 $225 $447 #
straight-curve $-1 27.316547317545243 -26.627914663765104 8.6522304134593551 1 0 0 I I #
coedge $-1 $226 $338 $228 $348 forward $330 $-1 #
straight-curve $-1 27.316547317545243 26.627914663765104 8.6522304134593551 -1 0 0 I I #
coedge $-1 $229 $228 $439 $448 reversed $230 $-1 #
edge $-1 $449 -12.908772900858862 $232 -8.6522304134593551 $228 $450 forward 7 unknown #
edge $-1 $451 -12.908772900858862 $231 -8.6522304134593551 $229 $452 forward 7 unknown #
point $-1 58.983733634449287 -26.627914663765104 8.6522304134593551 #
point $-1 58.983733634449287 26.627914663765104 8.6522304134593551 #
plane-surface $-1 0 0 12.908772900858862 0 0 1 1 0 0 forward_v I I I I #
coedge $-1 $363 $362 $355 $453 forward $235 $-1 #
coedge $-1 $355 $237 $239 $359 reversed $137 $-1 #
coedge $-1 $237 $354 $353 $453 reversed $137 $-1 #
coedge $-1 $245 $240 $237 $357 forward $246 $-1 #
edge $-1 $360 -28.754226404520292 $454 -23.530581314939248 $356 $455 forward 7 unknown #
coedge $-1 $239 $238 $363 $456 reversed $85 $-1 #
edge $-1 $457 -53.255829327530236 $360 -43.113578732285475 $354 $458 forward 7 unknown #
vertex $-1 $241 $459 #
straight-curve $-1 16.093980716130105 21.404269574184056 12.90877290085886 1 0 0 I I #
coedge $-1 $353 $242 $245 $367 reversed $235 $-1 #
coedge $-1 $242 $353 $358 $456 forward $235 $-1 #
vertex $-1 $243 $460 #
straight-curve $-1 18.439507048971812 26.627914663765104 55.311029425084762 0 0 1 I I #
straight-curve $-1 18.439507048971812 -0.80086445639881276 49.864323144209699 0 0.51503806187062418 -0.85716730853699208 I I #
edge $-1 $454 -45.936415815548607 $247 -18.439507048971812 $362 $461 forward 7 unknown #
point $-1 18.439507048971812 26.627914663765104 12.908772900858862 #
point $-1 18.439507048971812 21.40426957418406 12.908772900858864 #
edge $-1 $462 1 $462 0 $250 $-1 forward 7 unknown #
vertex $-1 $251 $463 #
ellipse-curve $-1 26.295766696565195 21.297142348441319 6.928260292308706 0 0.85716730853699208 0.51503806187062418 2.5 0 0 1 I I #
point $-1 28.795766696565195 24.016092118974587 8.5619700782420516 #
edge $-1 $464 1 $464 0 $254 $-1 forward 7 unknown #
vertex $-1 $255 $465 #
ellipse-curve $-1 38.080156167955252 21.297142348441319 6.928260292308706 0 0.85716730853699208 0.51503806187062418 2.5 0 0 1 I I #
point $-1 40.580156167955252 24.016092118974587 8.5619700782420516 #
loop $-1 $-1 $266 $258 #
plane-surface $-1 50.282455635731687 0 10.780501657159109 1 0 0 0 0 -1 forward_v I I I I #
coedge $-1 $385 $466 $262 $381 forward $259 $-1 #
edge $-1 $383 23.313990700948118 $391 31.440594509299832 $380 $467 forward 7 unknown #
coedge $-1 $269 $263 $466 $468 forward $159 $-1 #
vertex $-1 $468 $469 #
straight-curve $-1 26.093413361918451 -61.630603798102598 12.908772900858864 0 -1 0 I I #
coedge $-1 $470 $380 $265 $386 forward $259 $-1 #
edge $-1 $391 6.9994461125059146 $389 31.188488386319158 $385 $471 forward 7 unknown #
coedge $-1 $388 $266 $269 $393 reversed $378 $-1 #
coedge $-1 $266 $387 $470 $472 reversed $378 $-1 #
vertex $-1 $472 $473 #
straight-curve $-1 50.282455635731687 -20.838609775223166 13.050153579044924 0 0.57357642473473569 0.81915205242281985 I I #
vertex $-1 $386 $474 #
straight-curve $-1 26.093413361918451 -26.627914663765097 4.7821690925071607 0 0.57357642473473569 0.81915205242281985 I I #
edge $-1 $475 -26.627914663765104 $270 -20.937605588858354 $269 $476 forward 7 unknown #
point $-1 50.282455635731694 -20.937605588858354 12.908772900858862 #
point $-1 26.093413361918451 -20.937605588858354 12.908772900858862 #
edge $-1 $477 1 $477 0 $273 $-1 forward 7 unknown #
vertex $-1 $274 $478 #
ellipse-curve $-1 33.004568297293659 -17.597483399533289 4.5144937373971796 0 -0.81915205242281985 0.57357642473473569 2 0 0 1 I I #
point $-1 35.004568297293659 -23.782760126311736 8.8454709966830123 #
edge $-1 $479 1 $479 0 $277 $-1 forward 7 unknown #
vertex $-1 $278 $480 #
ellipse-curve $-1 43.371300700356471 -17.597483399533289 4.5144937373971796 0 -0.81915205242281985 0.57357642473473569 2 0 0 1 I I #
point $-1 45.371300700356471 -23.782760126311736 8.8454709966830123 #
plane-surface $-1 58.983733634449294 0 0 -1 0 0 0 0 1 forward_v I I I I #
coedge $-1 $286 $284 $288 $409 reversed $181 $-1 #
edge $-1 $299 -12.908772900858862 $411 12.908772900858862 $298 $481 forward 7 unknown #
vertex $-1 $409 $482 #
straight-curve $-1 -58.983733634449294 -26.627914663765104 0 0 0 -1 I I #
edge $-1 $407 -26.627914663765104 $411 26.627914663765104 $405 $483 forward 7 unknown #
straight-curve $-1 0 -26.627914663765104 -12.908772900858862 -1 0 0 I I #
vertex $-1 $291 $484 #
straight-curve $-1 0 26.627914663765104 -12.908772900858862 1 0 0 I I #
point $-1 58.983733634449294 26.627914663765104 -12.908772900858862 #
point $-1 58.983733634449294 -26.627914663765104 -12.908772900858862 #
straight-curve $-1 -58.983733634449294 0 12.908772900858862 0 -1 0 I I #
point $-1 -58.983733634449294 26.627914663765104 12.908772900858862 #
point $-1 -58.983733634449294 -26.627914663765104 12.908772900858862 #
straight-curve $-1 58.983733634449294 -26.627914663765104 0 0 0 -1 I I #
straight-curve $-1 58.983733634449294 26.627914663765104 0 0 0 -1 I I #
plane-surface $-1 0 -26.627914663765104 0 0 1 0 0 0 1 forward_v I I I I #
coedge $-1 $485 $311 $321 $432 reversed $200 $-1 #
coedge $-1 $311 $485 $324 $434 forward $200 $-1 #
coedge $-1 $486 $314 $312 $424 forward $309 $-1 #
edge $-1 $425 50.282455635731694 $487 58.983733634449294 $312 $488 forward 7 unknown #
vertex $-1 $424 $489 #
straight-curve $-1 -50.282455635731694 26.627914663765104 5.3902508285795543 0 0 -1 I I #
coedge $-1 $314 $486 $316 $429 forward $309 $-1 #
straight-curve $-1 -50.282455635731694 0 12.908772900858862 0 1 0 I I #
edge $-1 $490 -58.983733634449294 $318 -50.282455635731694 $316 $491 forward 7 unknown #
point $-1 -50.282455635731694 -26.627914663765104 12.908772900858862 #
straight-curve $-1 -58.983733634449294 0 8.6522304134593551 0 -1 0 I I #
edge $-1 $490 -12.908772900858862 $322 -8.6522304134593551 $421 $492 forward 7 unknown #
point $-1 -58.983733634449294 -26.627914663765104 8.6522304134593551 #
edge $-1 $487 -12.908772900858862 $325 -8.6522304134593551 $324 $493 forward 7 unknown #
point $-1 -58.983733634449294 26.627914663765104 8.6522304134593551 #
plane-surface $-1 58.983733634449294 0 0 -1 0 0 0 0 1 forward_v I I I I #
coedge $-1 $332 $342 $333 $440 reversed $216 $-1 #
edge $-1 $442 -7.5185220722793078 $343 -3.2619795848798008 $332 $494 forward 7 unknown #
coedge $-1 $334 $333 $347 $448 forward $129 $-1 #
edge $-1 $442 50.282455635731687 $451 58.983733634449294 $437 $495 forward 7 unknown #
edge $-1 $449 -58.983733634449294 $340 -50.282455635731687 $338 $496 forward 7 unknown #
vertex $-1 $440 $497 #
straight-curve $-1 50.282455635731687 0 12.908772900858862 0 -1 0 I I #
straight-curve $-1 50.282455635731687 0 8.6522304134593551 0 1 0 I I #
point $-1 50.282455635731687 26.627914663765104 8.6522304134593551 #
point $-1 50.282455635731687 26.627914663765104 12.908772900858862 #
point $-1 50.282455635731687 -26.627914663765104 8.6522304134593551 #
edge $-1 $451 -26.627914663765104 $449 26.627914663765104 $347 $498 forward 7 unknown #
vertex $-1 $448 $499 #
straight-curve $-1 58.983733634449294 26.627914663765104 0 0 0 -1 I I #
vertex $-1 $448 $500 #
straight-curve $-1 58.983733634449294 -26.627914663765104 0 0 0 -1 I I #
edge $-1 $454 42.402256524225898 $457 51.095862169459558 $353 $501 forward 7 unknown #
vertex $-1 $367 $502 #
straight-curve $-1 45.936415815548607 50.158495978704352 12.908772900858864 0 1 0 I I #
edge $-1 $457 -29.842435099418502 $364 -2.3455263328417075 $363 $503 forward 7 unknown #
vertex $-1 $456 $504 #
straight-curve $-1 45.936415815548607 -0.80086445639881276 49.864323144209699 0 -0.51503806187062418 0.85716730853699208 I I #
point $-1 45.936415815548607 21.40426957418406 12.908772900858864 #
point $-1 18.439507048971812 26.627914663765104 4.2151672556252038 #
straight-curve $-1 0 26.627914663765104 12.908772900858862 -1 0 0 I I #
vertex $-1 $370 $505 #
point $-1 28.795766696565195 21.297142348441319 6.928260292308706 #
vertex $-1 $374 $506 #
point $-1 40.580156167955252 21.297142348441319 6.928260292308706 #
coedge $-1 $380 $470 $382 $468 reversed $259 $-1 #
straight-curve $-1 26.093413361918451 -26.627914663765104 36.222763601806982 0 0 -1 I I #
edge $-1 $383 26.093413361918451 $475 50.282455635731687 $466 $507 forward 7 unknown #
point $-1 26.093413361918451 -26.627914663765104 12.908772900858862 #
coedge $-1 $466 $385 $388 $472 forward $259 $-1 #
straight-curve $-1 19.093967249412536 -26.627914663765104 4.7821690925071483 1 0 0 I I #
edge $-1 $389 -31.440594509299832 $475 -23.313990700948118 $470 $508 forward 7 unknown #
point $-1 50.282455635731694 -26.627914663765104 4.7821690925071509 #
point $-1 26.093413361918451 -26.627914663765104 4.7821690925071509 #
vertex $-1 $393 $509 #
straight-curve $-1 50.282455635731687 0 12.908772900858862 0 1 0 I I #
vertex $-1 $396 $510 #
point $-1 35.004568297293659 -17.597483399533289 4.5144937373971796 #
vertex $-1 $400 $511 #
point $-1 45.371300700356471 -17.597483399533289 4.5144937373971796 #
straight-curve $-1 -58.983733634449294 26.627914663765104 0 0 0 -1 I I #
point $-1 -58.983733634449294 -26.627914663765104 -12.908772900858862 #
straight-curve $-1 -58.983733634449294 0 -12.908772900858862 0 1 0 I I #
point $-1 -58.983733634449294 26.627914663765104 -12.908772900858862 #
coedge $-1 $422 $421 $486 $512 reversed $200 $-1 #
coedge $-1 $427 $423 $485 $512 forward $309 $-1 #
vertex $-1 $424 $513 #
straight-curve $-1 0 26.627914663765104 12.908772900858862 -1 0 0 I I #
point $-1 -50.282455635731694 26.627914663765104 12.908772900858862 #
vertex $-1 $512 $514 #
straight-curve $-1 0 -26.627914663765104 12.908772900858862 1 0 0 I I #
straight-curve $-1 -58.983733634449294 -26.627914663765104 0 0 0 -1 I I #
straight-curve $-1 -58.983733634449294 26.627914663765104 0 0 0 -1 I I #
straight-curve $-1 50.282455635731687 -26.627914663765104 5.3902508285795543 0 0 -1 I I #
straight-curve $-1 0 -26.627914663765104 12.908772900858862 1 0 0 I I #
straight-curve $-1 0 26.627914663765104 12.908772900858862 -1 0 0 I I #
point $-1 50.282455635731687 -26.627914663765104 12.908772900858862 #
straight-curve $-1 58.983733634449294 0 12.908772900858862 0 1 0 I I #
point $-1 58.983733634449294 26.627914663765104 12.908772900858862 #
point $-1 58.983733634449294 -26.627914663765104 12.908772900858862 #
straight-curve $-1 45.936415815548607 26.627914663765104 55.311029425084762 0 0 -1 I I #
point $-1 45.936415815548607 26.627914663765104 12.908772900858862 #
straight-curve $-1 16.093980716130105 26.627914663765104 4.2151672556252002 -1 0 0 I I #
point $-1 45.936415815548607 26.627914663765104 4.2151672556252038 #
point $-1 26.295766696565195 19.154224077098839 5.6406651376321451 #
point $-1 38.080156167955252 19.154224077098839 5.6406651376321451 #
straight-curve $-1 0 -26.627914663765104 12.908772900858862 1 0 0 I I #
straight-curve $-1 50.282455635731694 -26.627914663765104 36.222763601806982 0 0 1 I I #
point $-1 50.282455635731687 -26.627914663765104 12.908772900858862 #
point $-1 33.004568297293659 -15.959179294687649 3.3673408879277087 #
point $-1 43.371300700356471 -15.959179294687649 3.3673408879277087 #
edge $-1 $487 -26.627914663765104 $490 26.627914663765104 $485 $515 forward 7 unknown #
point $-1 -58.983733634449294 26.627914663765104 12.908772900858862 #
point $-1 -58.983733634449294 -26.627914663765104 12.908772900858862 #
straight-curve $-1 -58.983733634449294 0 12.908772900858862 0 -1 0 I I #
End-of-ACIS-data 