500 0 13 0           
7 Unknown 11 ACIS 5.0 NT 24 Fri Mar 26 18:43:57 1999 
-1 9.9999999999999995e-007 1e-010 
body $-1 $13 $-1 $14 #
body $-1 $15 $-1 $16 #
body $-1 $17 $-1 $18 #
body $-1 $19 $-1 $20 #
body $-1 $21 $-1 $22 #
body $-1 $23 $-1 $24 #
body $-1 $25 $-1 $26 #
body $-1 $27 $-1 $28 #
body $-1 $29 $-1 $30 #
body $-1 $31 $-1 $32 #
body $-1 $33 $-1 $34 #
body $-1 $35 $-1 $36 #
body $-1 $37 $-1 $38 #
lump $-1 $-1 $39 $0 #
transform $-1 1 0 0 0 1 0 0 0 1 44.704733420819728 20.731825240112013 7.7326601566989037 1 rotate no_reflect no_shear #
lump $-1 $-1 $40 $1 #
transform $-1 1 0 0 0 1 0 0 0 1 44.704733420819728 20.731825240112013 7.7326601566989037 1 rotate no_reflect no_shear #
lump $-1 $-1 $41 $2 #
transform $-1 1 0 0 0 1 0 0 0 1 44.704733420819728 20.731825240112013 7.7326601566989037 1 rotate no_reflect no_shear #
lump $-1 $-1 $42 $3 #
transform $-1 1 0 0 0 1 0 0 0 1 44.704733420819728 20.731825240112013 7.7326601566989037 1 rotate no_reflect no_shear #
lump $-1 $-1 $43 $4 #
transform $-1 1 0 0 0 1 0 0 0 1 44.704733420819728 20.731825240112013 7.7326601566989037 1 rotate no_reflect no_shear #
lump $-1 $-1 $44 $5 #
transform $-1 1 0 0 0 1 0 0 0 1 44.704733420819728 20.731825240112013 7.7326601566989037 1 rotate no_reflect no_shear #
lump $-1 $-1 $45 $6 #
transform $-1 1 0 0 0 1 0 0 0 1 44.704733420819728 20.731825240112013 7.7326601566989037 1 rotate no_reflect no_shear #
lump $-1 $-1 $46 $7 #
transform $-1 1 0 0 0 1 0 0 0 1 44.704733420819728 20.731825240112013 7.7326601566989037 1 rotate no_reflect no_shear #
lump $-1 $-1 $47 $8 #
transform $-1 1 0 0 0 1 0 0 0 1 44.704733420819728 20.731825240112013 7.7326601566989037 1 rotate no_reflect no_shear #
lump $-1 $-1 $48 $9 #
transform $-1 1 0 0 0 1 0 0 0 1 44.704733420819728 20.731825240112013 7.7326601566989037 1 rotate no_reflect no_shear #
lump $-1 $-1 $49 $10 #
transform $-1 1 0 0 0 1 0 0 0 1 44.704733420819728 20.731825240112013 7.7326601566989037 1 rotate no_reflect no_shear #
lump $-1 $-1 $50 $11 #
transform $-1 1 0 0 0 1 0 0 0 1 44.704733420819728 20.731825240112013 7.7326601566989037 1 rotate no_reflect no_shear #
lump $-1 $-1 $51 $12 #
transform $-1 1 0 0 0 1 0 0 0 1 44.704733420819728 20.731825240112013 7.7326601566989037 1 rotate no_reflect no_shear #
shell $-1 $-1 $-1 $52 $-1 $13 #
shell $-1 $-1 $-1 $53 $-1 $15 #
shell $-1 $-1 $-1 $54 $-1 $17 #
shell $-1 $-1 $-1 $55 $-1 $19 #
shell $-1 $-1 $-1 $56 $-1 $21 #
shell $-1 $-1 $-1 $57 $-1 $23 #
shell $-1 $-1 $-1 $58 $-1 $25 #
shell $-1 $-1 $-1 $59 $-1 $27 #
shell $-1 $-1 $-1 $60 $-1 $29 #
shell $-1 $-1 $-1 $61 $-1 $31 #
shell $-1 $-1 $-1 $62 $-1 $33 #
shell $-1 $-1 $-1 $63 $-1 $35 #
shell $-1 $-1 $-1 $64 $-1 $37 #
face $-1 $65 $66 $39 $-1 $67 forward single #
face $-1 $68 $69 $40 $-1 $70 forward single #
face $-1 $71 $72 $41 $-1 $73 reversed single #
face $-1 $74 $75 $42 $-1 $76 forward single #
face $-1 $77 $78 $43 $-1 $79 forward single #
face $-1 $80 $81 $44 $-1 $82 reversed single #
face $-1 $83 $84 $45 $-1 $85 forward single #
face $-1 $86 $87 $46 $-1 $88 forward single #
face $-1 $89 $90 $47 $-1 $91 forward single #
face $-1 $92 $93 $48 $-1 $94 reversed single #
face $-1 $95 $96 $49 $-1 $97 forward single #
face $-1 $98 $99 $50 $-1 $100 forward single #
face $-1 $101 $102 $51 $-1 $103 forward single #
face $-1 $104 $105 $39 $-1 $106 reversed single #
loop $-1 $-1 $107 $52 #
plane-surface $-1 0 0 7.7326601566989037 0 0 1 1 0 0 forward_v I I I I #
face $-1 $108 $109 $40 $-1 $110 reversed single #
loop $-1 $-1 $111 $53 #
plane-surface $-1 -41.337433316137691 0 0.18329188844741973 0 0 1 1 0 0 forward_v I I I I #
face $-1 $112 $113 $41 $-1 $114 reversed single #
loop $-1 $-1 $115 $54 #
plane-surface $-1 29.148475898883213 -70.728965250856746 76.860104003117499 1 0 0 0 0.55919291073839883 -0.82903756765294845 forward_v I I I I #
face $-1 $116 $117 $42 $-1 $118 forward single #
loop $-1 $119 $120 $55 #
cone-surface $-1 33.593120905150791 -15.757634697702528 3.3509084057537053 0 0.55919291073839883 -0.82903756765294845 1.5 0 0 1 I I 0 1 1.5 forward I I I I #
face $-1 $121 $122 $43 $-1 $123 forward single #
loop $-1 $124 $125 $56 #
cone-surface $-1 40.26008841455215 -15.757634697702528 3.3509084057537053 0 0.55919291073839883 -0.82903756765294845 1.5 0 0 1 I I 0 1 1.5 forward I I I I #
face $-1 $126 $127 $44 $-1 $128 reversed single #
loop $-1 $-1 $129 $57 #
plane-surface $-1 -12.694337091513482 38.049955428178137 97.865435537071406 1 0 0 0 -0.57357644374324357 -0.81915203911291934 forward_v I I I I #
face $-1 $130 $131 $45 $-1 $132 forward single #
loop $-1 $133 $134 $58 #
cone-surface $-1 -9.4820096522743782 14.146526860675575 1.9091918858933221 0 -0.57357644374324357 -0.81915203911291934 1.5 0 0 1 I I 0 1 1.5 forward I I I I #
face $-1 $135 $136 $46 $-1 $137 forward single #
loop $-1 $138 $139 $59 #
cone-surface $-1 -4.6635184934157223 14.146526860675575 1.9091918858933221 0 -0.57357644374324357 -0.81915203911291934 1.5 0 0 1 I I 0 1 1.5 forward I I I I #
face $-1 $140 $141 $47 $-1 $142 forward single #
loop $-1 $143 $144 $60 #
cone-surface $-1 0.15497266544293353 14.146526860675575 1.9091918858933221 0 -0.57357644374324357 -0.81915203911291934 1.5 0 0 1 I I 0 1 1.5 forward I I I I #
face $-1 $145 $146 $48 $-1 $147 reversed single #
loop $-1 $-1 $148 $61 #
plane-surface $-1 -4.6635184934157223 -13.233208599828878 24.625488457743501 0 0.57357644374324357 0.81915203911291934 1 0 0 forward_v I I I I #
face $-1 $149 $150 $49 $-1 $151 forward single #
loop $-1 $152 $153 $62 #
cone-surface $-1 6.5796275439211414 14.146526860675575 1.9091918858933221 0 -0.57357644374324357 -0.81915203911291934 1.5 0 0 1 I I 0 1 1.5 forward I I I I #
face $-1 $154 $155 $50 $-1 $156 forward single #
loop $-1 $157 $158 $63 #
cone-surface $-1 11.398118702779797 14.146526860675575 1.9091918858933221 0 -0.57357644374324357 -0.81915203911291934 1.5 0 0 1 I I 0 1 1.5 forward I I I I #
face $-1 $159 $160 $51 $-1 $161 forward single #
loop $-1 $162 $163 $64 #
cone-surface $-1 16.216609861638453 14.146526860675575 1.9091918858933221 0 -0.57357644374324357 -0.81915203911291934 1.5 0 0 1 I I 0 1 1.5 forward I I I I #
face $-1 $164 $165 $39 $-1 $166 reversed single #
loop $-1 $-1 $167 $65 #
plane-surface $-1 0 0 -7.7326601566989037 0 0 1 1 0 0 forward_v I I I I #
coedge $-1 $168 $169 $170 $171 forward $66 $-1 #
face $-1 $172 $173 $40 $-1 $174 reversed single #
loop $-1 $-1 $175 $68 #
plane-surface $-1 -41.337433316137691 0 -3.2591778759444865 0 0 1 1 0 0 forward_v I I I I #
coedge $-1 $176 $177 $178 $179 forward $69 $-1 #
face $-1 $180 $181 $41 $-1 $182 forward single #
loop $-1 $-1 $183 $71 #
plane-surface $-1 36.926604659851471 -20.731825240112023 2.7362970875777819 0 -0.55919291073839883 0.82903756765294845 1 0 0 forward_v I I I I #
coedge $-1 $184 $185 $186 $187 reversed $72 $-1 #
face $-1 $-1 $188 $42 $-1 $189 forward single #
loop $-1 $190 $191 $74 #
cone-surface $-1 33.593120905150791 -14.067755837602121 0.84556001362936151 0 0.55919291073839883 -0.82903756765294845 0.75 0 0 1 I I -0.70710678118654757 0.70710678118654757 0.75 forward I I I I #
loop $-1 $-1 $192 $55 #
coedge $-1 $120 $120 $193 $194 reversed $75 $-1 #
face $-1 $-1 $195 $43 $-1 $196 forward single #
loop $-1 $197 $198 $77 #
cone-surface $-1 40.26008841455215 -14.067755837602121 0.84556001362936151 0 0.55919291073839883 -0.82903756765294845 0.75 0 0 1 I I -0.70710678118654757 0.70710678118654757 0.75 forward I I I I #
loop $-1 $-1 $199 $56 #
coedge $-1 $125 $125 $200 $201 reversed $78 $-1 #
face $-1 $202 $203 $44 $-1 $204 reversed single #
loop $-1 $-1 $205 $80 #
plane-surface $-1 -4.6635184934157223 -13.233208599828878 24.625488457743501 0 0.57357644374324357 0.81915203911291934 1 0 0 forward_v I I I I #
coedge $-1 $206 $207 $208 $209 reversed $81 $-1 #
face $-1 $-1 $210 $45 $-1 $211 forward single #
loop $-1 $212 $213 $83 #
cone-surface $-1 -9.4820096522743782 12.050833766900812 -1.0837679712393768 0 -0.57357644374324357 -0.81915203911291934 0.75 0 0 1 I I -0.70710678118654757 0.70710678118654757 0.75 forward I I I I #
loop $-1 $-1 $214 $58 #
coedge $-1 $134 $134 $215 $216 reversed $84 $-1 #
face $-1 $-1 $217 $46 $-1 $218 forward single #
loop $-1 $219 $220 $86 #
cone-surface $-1 -4.6635184934157223 12.050833766900812 -1.0837679712393768 0 -0.57357644374324357 -0.81915203911291934 0.75 0 0 1 I I -0.70710678118654757 0.70710678118654757 0.75 forward I I I I #
loop $-1 $-1 $221 $59 #
coedge $-1 $139 $139 $222 $223 reversed $87 $-1 #
face $-1 $-1 $224 $47 $-1 $225 forward single #
loop $-1 $226 $227 $89 #
cone-surface $-1 0.15497266544293353 12.050833766900812 -1.0837679712393768 0 -0.57357644374324357 -0.81915203911291934 0.75 0 0 1 I I -0.70710678118654757 0.70710678118654757 0.75 forward I I I I #
loop $-1 $-1 $228 $60 #
coedge $-1 $144 $144 $229 $230 reversed $90 $-1 #
face $-1 $231 $232 $48 $-1 $233 forward single #
loop $-1 $-1 $234 $92 #
plane-surface $-1 19.428937300877557 38.049955428178137 97.865435537071406 -1 0 0 0 0.57357644374324357 0.81915203911291934 forward_v I I I I #
coedge $-1 $235 $236 $237 $238 reversed $93 $-1 #
face $-1 $-1 $239 $49 $-1 $240 forward single #
loop $-1 $241 $242 $95 #
cone-surface $-1 6.5796275439211414 12.050833766900812 -1.0837679712393768 0 -0.57357644374324357 -0.81915203911291934 0.75 0 0 1 I I -0.70710678118654757 0.70710678118654757 0.75 forward I I I I #
loop $-1 $-1 $243 $62 #
coedge $-1 $153 $153 $244 $245 reversed $96 $-1 #
face $-1 $-1 $246 $50 $-1 $247 forward single #
loop $-1 $248 $249 $98 #
cone-surface $-1 11.398118702779797 12.050833766900812 -1.0837679712393768 0 -0.57357644374324357 -0.81915203911291934 0.75 0 0 1 I I -0.70710678118654757 0.70710678118654757 0.75 forward I I I I #
loop $-1 $-1 $250 $63 #
coedge $-1 $158 $158 $251 $252 reversed $99 $-1 #
face $-1 $-1 $253 $51 $-1 $254 forward single #
loop $-1 $255 $256 $101 #
cone-surface $-1 16.216609861638453 12.050833766900812 -1.0837679712393768 0 -0.57357644374324357 -0.81915203911291934 0.75 0 0 1 I I -0.70710678118654757 0.70710678118654757 0.75 forward I I I I #
loop $-1 $-1 $257 $64 #
coedge $-1 $163 $163 $258 $259 reversed $102 $-1 #
face $-1 $260 $261 $39 $-1 $262 reversed single #
loop $-1 $-1 $263 $104 #
plane-surface $-1 0 -20.731825240112013 0 0 1 0 0 0 1 forward_v I I I I #
coedge $-1 $264 $265 $266 $267 forward $105 $-1 #
coedge $-1 $268 $107 $269 $270 forward $66 $-1 #
coedge $-1 $107 $268 $271 $272 forward $66 $-1 #
coedge $-1 $273 $274 $107 $171 reversed $275 $-1 #
edge $-1 $276 -20.731825240112013 $277 20.731825240112013 $170 $278 forward 7 unknown #
face $-1 $279 $280 $40 $-1 $281 reversed single #
loop $-1 $-1 $282 $108 #
plane-surface $-1 -37.970133211455654 0 -1.5379429937485334 -1 0 0 0 0 1 forward_v I I I I #
coedge $-1 $283 $284 $285 $286 forward $109 $-1 #
coedge $-1 $287 $111 $288 $289 reversed $69 $-1 #
coedge $-1 $111 $287 $290 $291 reversed $69 $-1 #
coedge $-1 $282 $292 $111 $179 reversed $173 $-1 #
edge $-1 $293 -20.731825240112013 $294 20.731825240112013 $178 $295 forward 7 unknown #
face $-1 $296 $297 $41 $-1 $298 reversed single #
loop $-1 $-1 $299 $112 #
plane-surface $-1 0 0 7.7326601566989037 0 0 1 1 0 0 forward_v I I I I #
coedge $-1 $300 $301 $302 $303 reversed $113 $-1 #
coedge $-1 $185 $115 $304 $305 reversed $72 $-1 #
coedge $-1 $115 $184 $300 $306 reversed $72 $-1 #
coedge $-1 $302 $307 $115 $187 forward $297 $-1 #
edge $-1 $308 30.697391844859844 $309 35.69375491398096 $186 $310 forward 7 unknown #
loop $-1 $-1 $193 $116 #
plane-surface $-1 36.926604659851471 -20.731825240112023 2.7362970875777819 0 -0.55919291073839883 0.82903756765294845 1 0 0 forward_v I I I I #
loop $-1 $-1 $311 $74 #
coedge $-1 $191 $191 $192 $312 reversed $117 $-1 #
coedge $-1 $192 $192 $191 $312 forward $119 $-1 #
coedge $-1 $193 $193 $120 $194 forward $188 $-1 #
edge $-1 $313 -7.0841123137317913e-016 $313 6.2831853071795996 $193 $314 forward 7 unknown #
loop $-1 $-1 $200 $121 #
plane-surface $-1 36.926604659851471 -20.731825240112023 2.7362970875777819 0 -0.55919291073839883 0.82903756765294845 1 0 0 forward_v I I I I #
loop $-1 $-1 $315 $77 #
coedge $-1 $198 $198 $199 $316 reversed $122 $-1 #
coedge $-1 $199 $199 $198 $316 forward $124 $-1 #
coedge $-1 $200 $200 $125 $201 forward $195 $-1 #
edge $-1 $317 -7.0841123137317913e-016 $317 6.2831853071795996 $200 $318 forward 7 unknown #
face $-1 $319 $320 $44 $-1 $321 reversed single #
loop $-1 $-1 $322 $126 #
plane-surface $-1 3.3673001046820374 38.049955428178137 97.865435537071406 -1 0 0 0 0.57357644374324357 0.81915203911291934 forward_v I I I I #
coedge $-1 $323 $324 $325 $326 reversed $127 $-1 #
coedge $-1 $207 $129 $327 $328 reversed $81 $-1 #
coedge $-1 $129 $206 $323 $329 reversed $81 $-1 #
coedge $-1 $325 $330 $129 $209 forward $331 $-1 #
edge $-1 $332 -1.7068475260229441 $333 8.132727710915276 $208 $334 forward 7 unknown #
loop $-1 $-1 $215 $130 #
plane-surface $-1 -4.6635184934157223 -13.233208599828878 24.625488457743501 0 0.57357644374324357 0.81915203911291934 1 0 0 forward_v I I I I #
loop $-1 $-1 $335 $83 #
coedge $-1 $213 $213 $214 $336 reversed $131 $-1 #
coedge $-1 $214 $214 $213 $336 forward $133 $-1 #
coedge $-1 $215 $215 $134 $216 forward $210 $-1 #
edge $-1 $337 -2.9081992561647466e-016 $337 6.2831853071796004 $215 $338 forward 7 unknown #
loop $-1 $-1 $222 $135 #
plane-surface $-1 -4.6635184934157223 -13.233208599828878 24.625488457743501 0 0.57357644374324357 0.81915203911291934 1 0 0 forward_v I I I I #
loop $-1 $-1 $339 $86 #
coedge $-1 $220 $220 $221 $340 reversed $136 $-1 #
coedge $-1 $221 $221 $220 $340 forward $138 $-1 #
coedge $-1 $222 $222 $139 $223 forward $217 $-1 #
edge $-1 $341 -2.9081992561647466e-016 $341 6.2831853071796004 $222 $342 forward 7 unknown #
loop $-1 $-1 $229 $140 #
plane-surface $-1 -4.6635184934157223 -13.233208599828878 24.625488457743501 0 0.57357644374324357 0.81915203911291934 1 0 0 forward_v I I I I #
loop $-1 $-1 $343 $89 #
coedge $-1 $227 $227 $228 $344 reversed $141 $-1 #
coedge $-1 $228 $228 $227 $344 forward $143 $-1 #
coedge $-1 $229 $229 $144 $230 forward $224 $-1 #
edge $-1 $345 -2.9081992561647466e-016 $345 6.2831853071796004 $229 $346 forward 7 unknown #
face $-1 $347 $348 $48 $-1 $349 forward single #
loop $-1 $-1 $350 $145 #
plane-surface $-1 0 0 7.7326601566989037 0 0 1 1 0 0 forward_v I I I I #
coedge $-1 $351 $352 $353 $354 reversed $146 $-1 #
coedge $-1 $355 $148 $356 $357 reversed $93 $-1 #
coedge $-1 $148 $355 $350 $358 reversed $93 $-1 #
coedge $-1 $359 $360 $148 $238 forward $348 $-1 #
edge $-1 $361 -41.463650480224018 $362 -29.45174699086234 $237 $363 forward 7 unknown #
loop $-1 $-1 $244 $149 #
plane-surface $-1 -4.6635184934157223 -13.233208599828878 24.625488457743501 0 0.57357644374324357 0.81915203911291934 1 0 0 forward_v I I I I #
loop $-1 $-1 $364 $95 #
coedge $-1 $242 $242 $243 $365 reversed $150 $-1 #
coedge $-1 $243 $243 $242 $365 forward $152 $-1 #
coedge $-1 $244 $244 $153 $245 forward $239 $-1 #
edge $-1 $366 -2.9081992561647466e-016 $366 6.2831853071796004 $244 $367 forward 7 unknown #
loop $-1 $-1 $251 $154 #
plane-surface $-1 -4.6635184934157223 -13.233208599828878 24.625488457743501 0 0.57357644374324357 0.81915203911291934 1 0 0 forward_v I I I I #
loop $-1 $-1 $368 $98 #
coedge $-1 $249 $249 $250 $369 reversed $155 $-1 #
coedge $-1 $250 $250 $249 $369 forward $157 $-1 #
coedge $-1 $251 $251 $158 $252 forward $246 $-1 #
edge $-1 $370 -2.9081992561647466e-016 $370 6.2831853071796004 $251 $371 forward 7 unknown #
loop $-1 $-1 $258 $159 #
plane-surface $-1 -4.6635184934157223 -13.233208599828878 24.625488457743501 0 0.57357644374324357 0.81915203911291934 1 0 0 forward_v I I I I #
loop $-1 $-1 $372 $101 #
coedge $-1 $256 $256 $257 $373 reversed $160 $-1 #
coedge $-1 $257 $257 $256 $373 forward $162 $-1 #
coedge $-1 $258 $258 $163 $259 forward $253 $-1 #
edge $-1 $374 -2.9081992561647466e-016 $374 6.2831853071796004 $258 $375 forward 7 unknown #
face $-1 $376 $377 $39 $-1 $378 reversed single #
loop $-1 $-1 $379 $164 #
plane-surface $-1 -44.704733420819728 0 0 1 0 0 0 0 -1 forward_v I I I I #
coedge $-1 $380 $271 $381 $382 forward $165 $-1 #
coedge $-1 $383 $167 $380 $384 forward $105 $-1 #
coedge $-1 $167 $383 $385 $386 forward $105 $-1 #
coedge $-1 $274 $273 $167 $267 reversed $275 $-1 #
edge $-1 $387 -20.731825240112013 $388 20.731825240112013 $266 $389 forward 7 unknown #
coedge $-1 $169 $168 $390 $391 forward $66 $-1 #
coedge $-1 $392 $393 $168 $270 reversed $377 $-1 #
edge $-1 $277 -44.704733420819728 $394 44.704733420819728 $269 $395 forward 7 unknown #
coedge $-1 $263 $396 $169 $272 reversed $165 $-1 #
edge $-1 $397 -44.704733420819728 $276 44.704733420819728 $271 $398 forward 7 unknown #
coedge $-1 $266 $170 $396 $399 forward $275 $-1 #
coedge $-1 $170 $266 $392 $400 reversed $275 $-1 #
loop $-1 $-1 $273 $376 #
vertex $-1 $171 $401 #
vertex $-1 $171 $402 #
straight-curve $-1 44.704733420819728 0 7.7326601566989037 0 1 0 I I #
face $-1 $403 $404 $40 $-1 $405 reversed single #
loop $-1 $-1 $406 $172 #
plane-surface $-1 0 -20.731825240112013 0 0 1 0 0 0 1 forward_v I I I I #
coedge $-1 $285 $178 $407 $408 reversed $173 $-1 #
coedge $-1 $409 $175 $406 $410 reversed $109 $-1 #
coedge $-1 $175 $409 $411 $412 reversed $109 $-1 #
coedge $-1 $292 $282 $175 $286 reversed $173 $-1 #
edge $-1 $413 -20.731825240112013 $414 20.731825240112013 $285 $415 forward 7 unknown #
coedge $-1 $177 $176 $416 $417 reversed $69 $-1 #
coedge $-1 $418 $419 $176 $289 forward $420 $-1 #
edge $-1 $421 -24.036016762750883 $294 -17.301416553386808 $288 $422 forward 7 unknown #
coedge $-1 $423 $407 $177 $291 forward $280 $-1 #
edge $-1 $293 17.301416553386808 $424 24.036016762750883 $290 $425 forward 7 unknown #
coedge $-1 $178 $285 $418 $426 reversed $173 $-1 #
vertex $-1 $291 $427 #
vertex $-1 $289 $428 #
straight-curve $-1 -37.970133211455654 0 0.18329188844741973 0 1 0 I I #
face $-1 $-1 $429 $41 $-1 $430 reversed single #
loop $-1 $-1 $186 $180 #
plane-surface $-1 0 -20.731825240112013 0 0 1 0 0 0 1 forward_v I I I I #
coedge $-1 $304 $431 $432 $433 forward $181 $-1 #
coedge $-1 $432 $183 $185 $306 forward $113 $-1 #
coedge $-1 $183 $432 $434 $435 reversed $113 $-1 #
coedge $-1 $436 $186 $183 $303 forward $297 $-1 #
edge $-1 $309 10.685173568957477 $437 26.241431090893993 $302 $438 forward 7 unknown #
coedge $-1 $439 $299 $184 $305 forward $181 $-1 #
edge $-1 $440 -22.040070116042084 $308 -14.63265738531636 $304 $441 forward 7 unknown #
edge $-1 $309 1.2809303926657532e-014 $440 8.9349542406100291 $185 $442 forward 7 unknown #
coedge $-1 $186 $436 $439 $443 reversed $297 $-1 #
vertex $-1 $443 $444 #
vertex $-1 $187 $445 #
straight-curve $-1 29.148475898883213 -20.731825240112013 38.430052001558749 0 0 -1 I I #
coedge $-1 $311 $311 $-1 $446 reversed $190 $-1 #
edge $-1 $447 0 $447 6.2831853071796004 $191 $448 forward 7 unknown #
vertex $-1 $194 $449 #
ellipse-curve $-1 33.593120905150791 -17.028118874749143 5.2344786221383499 0 -0.55919291073839883 0.82903756765294845 1.5 0 0 1 I I #
coedge $-1 $315 $315 $-1 $450 reversed $197 $-1 #
edge $-1 $451 0 $451 6.2831853071796004 $198 $452 forward 7 unknown #
vertex $-1 $201 $453 #
ellipse-curve $-1 40.26008841455215 -17.028118874749143 5.2344786221383499 0 -0.55919291073839883 0.82903756765294845 1.5 0 0 1 I I #
face $-1 $-1 $331 $44 $-1 $454 forward single #
loop $-1 $-1 $455 $202 #
plane-surface $-1 0 20.731825240112013 0 0 -1 0 0 0 -1 forward_v I I I I #
coedge $-1 $456 $457 $458 $459 reversed $203 $-1 #
coedge $-1 $460 $205 $207 $329 forward $127 $-1 #
coedge $-1 $205 $460 $456 $461 forward $127 $-1 #
coedge $-1 $458 $208 $205 $326 forward $331 $-1 #
edge $-1 $333 -10.362577844805621 $462 5.6990593513898986 $325 $463 forward 7 unknown #
coedge $-1 $464 $465 $206 $328 forward $320 $-1 #
edge $-1 $466 -48.089802497851935 $332 -41.200057611836797 $327 $467 forward 7 unknown #
edge $-1 $333 29.45174699086234 $466 41.463650480224018 $207 $468 forward 7 unknown #
coedge $-1 $208 $458 $464 $469 forward $331 $-1 #
loop $-1 $-1 $458 $319 #
vertex $-1 $328 $470 #
vertex $-1 $209 $471 #
straight-curve $-1 -12.694337091513482 19.024977714089069 7.7326601566989055 0 -1 0 I I #
coedge $-1 $335 $335 $-1 $472 reversed $212 $-1 #
edge $-1 $473 0 $473 6.2831853071796004 $213 $474 forward 7 unknown #
vertex $-1 $216 $475 #
ellipse-curve $-1 -9.4820096522743782 15.812037621642908 4.2877877136913334 0 0.57357644374324357 0.81915203911291934 1.5 0 0 1 I I #
coedge $-1 $339 $339 $-1 $476 reversed $219 $-1 #
edge $-1 $477 0 $477 6.2831853071796004 $220 $478 forward 7 unknown #
vertex $-1 $223 $479 #
ellipse-curve $-1 -4.6635184934157223 15.812037621642908 4.2877877136913334 0 0.57357644374324357 0.81915203911291934 1.5 0 0 1 I I #
coedge $-1 $343 $343 $-1 $480 reversed $226 $-1 #
edge $-1 $481 0 $481 6.2831853071796004 $227 $482 forward 7 unknown #
vertex $-1 $230 $483 #
ellipse-curve $-1 0.15497266544293353 15.812037621642908 4.2877877136913334 0 0.57357644374324357 0.81915203911291934 1.5 0 0 1 I I #
face $-1 $-1 $484 $48 $-1 $485 reversed single #
loop $-1 $-1 $359 $231 #
plane-surface $-1 3.3673001046820374 38.049955428178137 97.865435537071406 -1 0 0 0 0.57357644374324357 0.81915203911291934 forward_v I I I I #
coedge $-1 $353 $486 $236 $358 forward $232 $-1 #
coedge $-1 $352 $234 $355 $487 reversed $146 $-1 #
coedge $-1 $234 $351 $488 $489 reversed $146 $-1 #
coedge $-1 $490 $350 $234 $354 forward $232 $-1 #
edge $-1 $491 -8.132727710915276 $492 1.7068475260229441 $353 $493 forward 7 unknown #
coedge $-1 $236 $235 $351 $487 forward $93 $-1 #
coedge $-1 $494 $488 $235 $357 forward $484 $-1 #
edge $-1 $495 -21.760696547585418 $361 -5.6990593513898986 $356 $496 forward 7 unknown #
edge $-1 $362 5.6990593513898986 $491 21.760696547585418 $350 $497 forward 7 unknown #
coedge $-1 $360 $237 $486 $498 reversed $348 $-1 #
coedge $-1 $237 $359 $494 $499 reversed $348 $-1 #
vertex $-1 $357 $500 #
vertex $-1 $358 $501 #
straight-curve $-1 3.3673001046820374 -13.233208599828878 24.625488457743501 0 -0.81915203911291934 0.57357644374324357 I I #
coedge $-1 $364 $364 $-1 $502 reversed $241 $-1 #
edge $-1 $503 0 $503 6.2831853071796004 $242 $504 forward 7 unknown #
vertex $-1 $245 $505 #
ellipse-curve $-1 6.5796275439211414 15.812037621642908 4.2877877136913334 0 0.57357644374324357 0.81915203911291934 1.5 0 0 1 I I #
coedge $-1 $368 $368 $-1 $506 reversed $248 $-1 #
edge $-1 $507 0 $507 6.2831853071796004 $249 $508 forward 7 unknown #
vertex $-1 $252 $509 #
ellipse-curve $-1 11.398118702779797 15.812037621642908 4.2877877136913334 0 0.57357644374324357 0.81915203911291934 1.5 0 0 1 I I #
coedge $-1 $372 $372 $-1 $510 reversed $255 $-1 #
edge $-1 $511 0 $511 6.2831853071796004 $256 $512 forward 7 unknown #
vertex $-1 $259 $513 #
ellipse-curve $-1 16.216609861638453 15.812037621642908 4.2877877136913334 0 0.57357644374324357 0.81915203911291934 1.5 0 0 1 I I #
face $-1 $-1 $275 $39 $-1 $514 reversed single #
loop $-1 $-1 $392 $260 #
plane-surface $-1 0 20.731825240112013 0 0 -1 0 0 0 -1 forward_v I I I I #
coedge $-1 $515 $390 $393 $516 forward $261 $-1 #
coedge $-1 $396 $263 $264 $384 reversed $165 $-1 #
coedge $-1 $390 $515 $263 $382 reversed $261 $-1 #
edge $-1 $397 -7.7326601566989037 $517 7.7326601566989037 $381 $518 forward 7 unknown #
coedge $-1 $265 $264 $515 $519 forward $105 $-1 #
edge $-1 $388 -44.704733420819728 $517 44.704733420819728 $380 $520 forward 7 unknown #
coedge $-1 $393 $392 $265 $386 reversed $377 $-1 #
edge $-1 $521 -44.704733420819728 $387 44.704733420819728 $385 $522 forward 7 unknown #
vertex $-1 $267 $523 #
vertex $-1 $399 $524 #
straight-curve $-1 44.704733420819728 0 -7.7326601566989037 0 -1 0 I I #
coedge $-1 $379 $381 $268 $391 reversed $261 $-1 #
edge $-1 $394 -20.731825240112013 $397 20.731825240112013 $390 $525 forward 7 unknown #
coedge $-1 $385 $269 $274 $400 forward $377 $-1 #
coedge $-1 $269 $385 $379 $516 reversed $377 $-1 #
vertex $-1 $270 $526 #
straight-curve $-1 0 20.731825240112013 7.7326601566989037 -1 0 0 I I #
coedge $-1 $271 $380 $273 $399 reversed $165 $-1 #
vertex $-1 $391 $527 #
straight-curve $-1 0 -20.731825240112013 7.7326601566989037 1 0 0 I I #
edge $-1 $276 -7.7326601566989037 $388 7.7326601566989037 $273 $528 forward 7 unknown #
edge $-1 $277 -7.7326601566989037 $387 7.7326601566989037 $274 $529 forward 7 unknown #
point $-1 44.704733420819728 -20.731825240112013 7.7326601566989037 #
point $-1 44.704733420819728 20.731825240112013 7.7326601566989037 #
face $-1 $-1 $420 $40 $-1 $530 reversed single #
loop $-1 $-1 $531 $279 #
plane-surface $-1 -44.704733420819728 0 0 1 0 0 0 0 -1 forward_v I I I I #
coedge $-1 $407 $423 $283 $410 forward $280 $-1 #
coedge $-1 $290 $406 $282 $408 forward $280 $-1 #
edge $-1 $414 -2.4902063790702198 $293 0.95226338532168642 $407 $532 forward 7 unknown #
coedge $-1 $284 $283 $531 $533 reversed $109 $-1 #
edge $-1 $534 -24.036016762750883 $414 -17.301416553386808 $406 $535 forward 7 unknown #
coedge $-1 $419 $418 $284 $412 forward $420 $-1 #
edge $-1 $413 17.301416553386808 $536 24.036016762750883 $411 $537 forward 7 unknown #
vertex $-1 $412 $538 #
vertex $-1 $410 $539 #
straight-curve $-1 -37.970133211455654 0 -3.2591778759444865 0 -1 0 I I #
coedge $-1 $540 $541 $287 $417 forward $404 $-1 #
edge $-1 $424 -20.731825240112013 $421 20.731825240112013 $416 $542 forward 7 unknown #
coedge $-1 $411 $288 $292 $426 forward $420 $-1 #
coedge $-1 $288 $411 $540 $543 reversed $420 $-1 #
loop $-1 $-1 $411 $403 #
vertex $-1 $543 $544 #
straight-curve $-1 -20.668716658068846 20.731825240112013 0.18329188844741973 1 0 0 I I #
coedge $-1 $406 $290 $541 $545 forward $280 $-1 #
vertex $-1 $545 $546 #
straight-curve $-1 -20.668716658068846 -20.731825240112013 0.18329188844741973 -1 0 0 I I #
edge $-1 $294 -0.95226338532168642 $413 2.4902063790702198 $418 $547 forward 7 unknown #
point $-1 -37.970133211455654 -20.731825240112013 0.18329188844741973 #
point $-1 -37.970133211455654 20.731825240112013 0.18329188844741973 #
loop $-1 $-1 $434 $296 #
plane-surface $-1 44.704733420819728 0 0 -1 0 0 0 0 1 forward_v I I I I #
coedge $-1 $299 $439 $548 $549 forward $181 $-1 #
coedge $-1 $301 $300 $299 $433 reversed $113 $-1 #
edge $-1 $550 -26.241431090893993 $440 -10.685173568957477 $299 $551 forward 7 unknown #
coedge $-1 $548 $552 $301 $435 forward $429 $-1 #
edge $-1 $437 -7.8286720185104128 $550 1.1062822220996018 $434 $553 forward 7 unknown #
coedge $-1 $307 $302 $552 $554 reversed $297 $-1 #
vertex $-1 $303 $555 #
straight-curve $-1 18.463302329925735 -20.731825240112013 2.7362970875777872 1 0 0 I I #
coedge $-1 $431 $304 $307 $443 forward $181 $-1 #
vertex $-1 $305 $556 #
straight-curve $-1 29.148475898883213 -35.364482625428373 7.7326601566989055 0 -1 0 I I #
straight-curve $-1 29.148475898883213 -20.731825240112023 2.7362970875777819 0 0.82903756765294845 0.55919291073839883 I I #
edge $-1 $308 29.148475898883213 $557 44.704733420819728 $307 $558 forward 7 unknown #
point $-1 29.148475898883213 -20.731825240112013 7.7326601566989037 #
point $-1 29.148475898883213 -20.731825240112013 2.736297087577789 #
edge $-1 $559 1 $559 0 $311 $-1 forward 7 unknown #
vertex $-1 $312 $560 #
ellipse-curve $-1 33.593120905150791 -14.48715052065592 1.4673381893690729 0 -0.55919291073839883 0.82903756765294845 1.5 0 0 1 I I #
point $-1 35.093120905150791 -17.028118874749136 5.2344786221383375 #
edge $-1 $561 1 $561 0 $315 $-1 forward 7 unknown #
vertex $-1 $316 $562 #
ellipse-curve $-1 40.26008841455215 -14.48715052065592 1.4673381893690729 0 -0.55919291073839883 0.82903756765294845 1.5 0 0 1 I I #
point $-1 41.76008841455215 -17.028118874749136 5.2344786221383375 #
plane-surface $-1 0 0 7.7326601566989037 0 0 1 1 0 0 forward_v I I I I #
coedge $-1 $465 $464 $457 $563 forward $320 $-1 #
coedge $-1 $457 $322 $324 $461 reversed $203 $-1 #
coedge $-1 $322 $456 $455 $563 reversed $203 $-1 #
coedge $-1 $330 $325 $322 $459 forward $331 $-1 #
edge $-1 $462 -8.132727710915276 $564 1.7068475260229441 $458 $565 forward 7 unknown #
coedge $-1 $324 $323 $465 $566 reversed $127 $-1 #
edge $-1 $567 -41.463650480224018 $462 -29.45174699086234 $456 $568 forward 7 unknown #
vertex $-1 $326 $569 #
straight-curve $-1 -2.3317592467078612 10.892250003173796 7.7326601566989055 1 0 0 I I #
coedge $-1 $455 $327 $330 $469 reversed $320 $-1 #
coedge $-1 $327 $455 $460 $566 forward $320 $-1 #
vertex $-1 $328 $570 #
straight-curve $-1 -12.694337091513482 20.731825240112013 48.932717768535703 0 0 1 I I #
straight-curve $-1 -12.694337091513482 -13.233208599828878 24.625488457743501 0 0.81915203911291934 -0.57357644374324357 I I #
edge $-1 $564 -3.3673001046820374 $332 12.694337091513482 $464 $571 forward 7 unknown #
point $-1 -12.694337091513482 20.731825240112013 7.7326601566989037 #
point $-1 -12.694337091513482 10.892250003173793 7.7326601566989055 #
edge $-1 $572 1 $572 0 $335 $-1 forward 7 unknown #
vertex $-1 $336 $573 #
ellipse-curve $-1 -9.4820096522743782 12.481016099708246 -0.46940394190468737 0 0.57357644374324357 0.81915203911291934 1.5 0 0 1 I I #
point $-1 -7.9820096522743782 15.812037621642906 4.2877877136913316 #
edge $-1 $574 1 $574 0 $339 $-1 forward 7 unknown #
vertex $-1 $340 $575 #
ellipse-curve $-1 -4.6635184934157223 12.481016099708246 -0.46940394190468737 0 0.57357644374324357 0.81915203911291934 1.5 0 0 1 I I #
point $-1 -3.1635184934157223 15.812037621642906 4.2877877136913316 #
edge $-1 $576 1 $576 0 $343 $-1 forward 7 unknown #
vertex $-1 $344 $577 #
ellipse-curve $-1 0.15497266544293353 12.481016099708246 -0.46940394190468737 0 0.57357644374324357 0.81915203911291934 1.5 0 0 1 I I #
point $-1 1.6549726654429335 15.812037621642906 4.2877877136913316 #
loop $-1 $-1 $356 $347 #
plane-surface $-1 0 20.731825240112013 0 0 -1 0 0 0 -1 forward_v I I I I #
coedge $-1 $350 $490 $359 $498 forward $232 $-1 #
edge $-1 $495 -41.463650480224018 $491 -29.45174699086234 $351 $578 forward 7 unknown #
coedge $-1 $356 $579 $352 $489 forward $484 $-1 #
edge $-1 $492 41.200057611836797 $495 48.089802497851935 $488 $580 forward 7 unknown #
coedge $-1 $486 $353 $579 $581 forward $232 $-1 #
vertex $-1 $354 $582 #
vertex $-1 $581 $583 #
straight-curve $-1 19.428937300877557 19.024977714089069 7.7326601566989055 0 1 0 I I #
coedge $-1 $579 $356 $360 $499 forward $484 $-1 #
vertex $-1 $489 $584 #
straight-curve $-1 -2.3317592467078612 20.731825240112013 0.84291527068376837 -1 0 0 I I #
straight-curve $-1 -2.3317592467078612 10.892250003173796 7.7326601566989055 1 0 0 I I #
edge $-1 $585 -1.7068475260229441 $362 8.132727710915276 $486 $586 forward 7 unknown #
edge $-1 $361 -48.089802497851935 $585 -41.200057611836797 $494 $587 forward 7 unknown #
point $-1 3.3673001046820374 20.731825240112009 0.84291527068377192 #
point $-1 3.3673001046820374 10.892250003173793 7.7326601566989055 #
edge $-1 $588 1 $588 0 $364 $-1 forward 7 unknown #
vertex $-1 $365 $589 #
ellipse-curve $-1 6.5796275439211414 12.481016099708246 -0.46940394190468737 0 0.57357644374324357 0.81915203911291934 1.5 0 0 1 I I #
point $-1 8.0796275439211414 15.812037621642906 4.2877877136913316 #
edge $-1 $590 1 $590 0 $368 $-1 forward 7 unknown #
vertex $-1 $369 $591 #
ellipse-curve $-1 11.398118702779797 12.481016099708246 -0.46940394190468737 0 0.57357644374324357 0.81915203911291934 1.5 0 0 1 I I #
point $-1 12.898118702779797 15.812037621642906 4.2877877136913316 #
edge $-1 $592 1 $592 0 $372 $-1 forward 7 unknown #
vertex $-1 $373 $593 #
ellipse-curve $-1 16.216609861638453 12.481016099708246 -0.46940394190468737 0 0.57357644374324357 0.81915203911291934 1.5 0 0 1 I I #
point $-1 17.716609861638453 15.812037621642906 4.2877877136913316 #
plane-surface $-1 44.704733420819728 0 0 -1 0 0 0 0 1 forward_v I I I I #
coedge $-1 $381 $379 $383 $519 reversed $261 $-1 #
edge $-1 $394 -7.7326601566989037 $521 7.7326601566989037 $393 $594 forward 7 unknown #
vertex $-1 $519 $595 #
straight-curve $-1 -44.704733420819728 -20.731825240112013 0 0 0 -1 I I #
edge $-1 $517 -20.731825240112013 $521 20.731825240112013 $515 $596 forward 7 unknown #
straight-curve $-1 0 -20.731825240112013 -7.7326601566989037 -1 0 0 I I #
vertex $-1 $386 $597 #
straight-curve $-1 0 20.731825240112013 -7.7326601566989037 1 0 0 I I #
point $-1 44.704733420819728 20.731825240112013 -7.7326601566989037 #
point $-1 44.704733420819728 -20.731825240112013 -7.7326601566989037 #
straight-curve $-1 -44.704733420819728 0 7.7326601566989037 0 -1 0 I I #
point $-1 -44.704733420819728 20.731825240112013 7.7326601566989037 #
point $-1 -44.704733420819728 -20.731825240112013 7.7326601566989037 #
straight-curve $-1 44.704733420819728 -20.731825240112013 0 0 0 -1 I I #
straight-curve $-1 44.704733420819728 20.731825240112013 0 0 0 -1 I I #
plane-surface $-1 0 20.731825240112013 0 0 -1 0 0 0 -1 forward_v I I I I #
coedge $-1 $541 $540 $409 $533 forward $404 $-1 #
straight-curve $-1 -37.970133211455654 -20.731825240112013 -0.76897149687426669 0 0 1 I I #
edge $-1 $536 -20.731825240112013 $534 20.731825240112013 $531 $598 forward 7 unknown #
vertex $-1 $410 $599 #
straight-curve $-1 -20.668716658068846 -20.731825240112013 -3.2591778759444865 1 0 0 I I #
vertex $-1 $412 $600 #
straight-curve $-1 -20.668716658068846 20.731825240112013 -3.2591778759444865 -1 0 0 I I #
point $-1 -37.970133211455654 20.731825240112013 -3.2591778759444865 #
point $-1 -37.970133211455654 -20.731825240112013 -3.2591778759444865 #
coedge $-1 $531 $416 $419 $543 forward $404 $-1 #
coedge $-1 $416 $531 $423 $545 reversed $404 $-1 #
straight-curve $-1 -44.704733420819728 0 0.18329188844741973 0 1 0 I I #
edge $-1 $421 -0.18329188844741973 $536 3.2591778759444865 $419 $601 forward 7 unknown #
point $-1 -44.704733420819728 20.731825240112013 0.18329188844741973 #
edge $-1 $424 -0.18329188844741973 $534 3.2591778759444865 $541 $602 forward 7 unknown #
point $-1 -44.704733420819728 -20.731825240112013 0.18329188844741973 #
straight-curve $-1 -37.970133211455654 20.731825240112013 -0.76897149687426669 0 0 -1 I I #
coedge $-1 $552 $434 $431 $549 reversed $429 $-1 #
edge $-1 $557 -20.731825240112013 $550 -13.324412509386288 $548 $603 forward 7 unknown #
vertex $-1 $435 $604 #
straight-curve $-1 18.463302329925735 -13.324412509386288 7.7326601566989037 -1 0 0 I I #
coedge $-1 $434 $548 $436 $554 forward $429 $-1 #
straight-curve $-1 44.704733420819728 -14.241562031933441 7.1140349808248828 0 0.82903756765294845 0.55919291073839883 I I #
edge $-1 $557 -7.7326601566989037 $437 -2.736297087577789 $552 $605 forward 7 unknown #
point $-1 44.704733420819728 -20.731825240112013 2.736297087577789 #
point $-1 29.148475898883213 -13.324412509386288 7.7326601566989037 #
vertex $-1 $549 $606 #
straight-curve $-1 0 -20.731825240112013 7.7326601566989037 1 0 0 I I #
vertex $-1 $446 $607 #
point $-1 35.093120905150791 -14.48715052065592 1.4673381893690729 #
vertex $-1 $450 $608 #
point $-1 41.76008841455215 -14.48715052065592 1.4673381893690729 #
edge $-1 $564 41.200057611836797 $567 48.089802497851935 $455 $609 forward 7 unknown #
vertex $-1 $469 $610 #
straight-curve $-1 3.3673001046820374 19.024977714089069 7.7326601566989055 0 1 0 I I #
edge $-1 $567 -5.6990593513898986 $466 10.362577844805621 $465 $611 forward 7 unknown #
vertex $-1 $566 $612 #
straight-curve $-1 3.3673001046820374 -13.233208599828878 24.625488457743501 0 -0.81915203911291934 0.57357644374324357 I I #
point $-1 3.3673001046820374 10.892250003173793 7.7326601566989055 #
point $-1 -12.694337091513482 20.731825240112009 0.84291527068377192 #
straight-curve $-1 0 20.731825240112013 7.7326601566989037 -1 0 0 I I #
vertex $-1 $472 $613 #
point $-1 -7.9820096522743782 12.481016099708246 -0.46940394190468737 #
vertex $-1 $476 $614 #
point $-1 -3.1635184934157223 12.481016099708246 -0.46940394190468737 #
vertex $-1 $480 $615 #
point $-1 1.6549726654429335 12.481016099708246 -0.46940394190468737 #
straight-curve $-1 19.428937300877557 -13.233208599828878 24.625488457743501 0 -0.81915203911291934 0.57357644374324357 I I #
coedge $-1 $488 $494 $490 $581 reversed $484 $-1 #
straight-curve $-1 19.428937300877557 20.731825240112013 48.932717768535703 0 0 -1 I I #
edge $-1 $492 -19.428937300877557 $585 -3.3673001046820374 $579 $616 forward 7 unknown #
point $-1 19.428937300877557 10.892250003173793 7.7326601566989055 #
point $-1 19.428937300877557 20.731825240112013 7.7326601566989037 #
point $-1 19.428937300877557 20.731825240112009 0.84291527068377192 #
vertex $-1 $499 $617 #
straight-curve $-1 3.3673001046820374 19.024977714089069 7.7326601566989055 0 -1 0 I I #
straight-curve $-1 3.3673001046820374 20.731825240112013 48.932717768535703 0 0 1 I I #
vertex $-1 $502 $618 #
point $-1 8.0796275439211414 12.481016099708246 -0.46940394190468737 #
vertex $-1 $506 $619 #
point $-1 12.898118702779797 12.481016099708246 -0.46940394190468737 #
vertex $-1 $510 $620 #
point $-1 17.716609861638453 12.481016099708246 -0.46940394190468737 #
straight-curve $-1 -44.704733420819728 20.731825240112013 0 0 0 -1 I I #
point $-1 -44.704733420819728 -20.731825240112013 -7.7326601566989037 #
straight-curve $-1 -44.704733420819728 0 -7.7326601566989037 0 1 0 I I #
point $-1 -44.704733420819728 20.731825240112013 -7.7326601566989037 #
straight-curve $-1 -44.704733420819728 0 -3.2591778759444865 0 -1 0 I I #
point $-1 -44.704733420819728 -20.731825240112013 -3.2591778759444865 #
point $-1 -44.704733420819728 20.731825240112013 -3.2591778759444865 #
straight-curve $-1 -44.704733420819728 20.731825240112013 0 0 0 -1 I I #
straight-curve $-1 -44.704733420819728 -20.731825240112013 0 0 0 -1 I I #
straight-curve $-1 44.704733420819728 0 7.7326601566989037 0 1 0 I I #
point $-1 44.704733420819728 -13.324412509386288 7.7326601566989037 #
straight-curve $-1 44.704733420819728 -20.731825240112013 0 0 0 -1 I I #
point $-1 44.704733420819728 -20.731825240112013 7.7326601566989037 #
point $-1 33.593120905150791 -13.648361154548322 0.22378183788965011 #
point $-1 40.26008841455215 -13.648361154548322 0.22378183788965011 #
straight-curve $-1 3.3673001046820374 20.731825240112013 48.932717768535703 0 0 -1 I I #
point $-1 3.3673001046820374 20.731825240112013 7.7326601566989037 #
straight-curve $-1 -2.3317592467078612 20.731825240112013 0.84291527068376837 -1 0 0 I I #
point $-1 3.3673001046820374 20.731825240112009 0.84291527068377192 #
point $-1 -9.4820096522743782 11.620651434093379 -1.6981320005740663 #
point $-1 -4.6635184934157223 11.620651434093379 -1.6981320005740663 #
point $-1 0.15497266544293353 11.620651434093379 -1.6981320005740663 #
straight-curve $-1 0 20.731825240112013 7.7326601566989037 -1 0 0 I I #
point $-1 3.3673001046820374 20.731825240112013 7.7326601566989037 #
point $-1 6.5796275439211414 11.620651434093379 -1.6981320005740663 #
point $-1 11.398118702779797 11.620651434093379 -1.6981320005740663 #
point $-1 16.216609861638453 11.620651434093379 -1.6981320005740663 #
End-of-ACIS-data 