500 0 14 0           
7 Unknown 11 ACIS 5.0 NT 24 Fri Mar 26 16:27:57 1999 
-1 9.9999999999999995e-007 1e-010 
body $-1 $14 $-1 $15 #
body $-1 $16 $-1 $17 #
body $-1 $18 $-1 $19 #
body $-1 $20 $-1 $21 #
body $-1 $22 $-1 $23 #
body $-1 $24 $-1 $25 #
body $-1 $26 $-1 $27 #
body $-1 $28 $-1 $29 #
body $-1 $30 $-1 $31 #
body $-1 $32 $-1 $33 #
body $-1 $34 $-1 $35 #
body $-1 $36 $-1 $37 #
body $-1 $38 $-1 $39 #
body $-1 $40 $-1 $41 #
lump $-1 $-1 $42 $0 #
transform $-1 1 0 0 0 1 0 0 0 1 52.19397564622944 23.943092322494234 8.2578714851824042 1 rotate no_reflect no_shear #
lump $-1 $-1 $43 $1 #
transform $-1 1 0 0 0 1 0 0 0 1 52.19397564622944 23.943092322494234 8.2578714851824042 1 rotate no_reflect no_shear #
lump $-1 $-1 $44 $2 #
transform $-1 1 0 0 0 1 0 0 0 1 52.19397564622944 23.943092322494234 8.2578714851824042 1 rotate no_reflect no_shear #
lump $-1 $-1 $45 $3 #
transform $-1 1 0 0 0 1 0 0 0 1 52.19397564622944 23.943092322494234 8.2578714851824042 1 rotate no_reflect no_shear #
lump $-1 $-1 $46 $4 #
transform $-1 1 0 0 0 1 0 0 0 1 52.19397564622944 23.943092322494234 8.2578714851824042 1 rotate no_reflect no_shear #
lump $-1 $-1 $47 $5 #
transform $-1 1 0 0 0 1 0 0 0 1 52.19397564622944 23.943092322494234 8.2578714851824042 1 rotate no_reflect no_shear #
lump $-1 $-1 $48 $6 #
transform $-1 1 0 0 0 1 0 0 0 1 52.19397564622944 23.943092322494234 8.2578714851824042 1 rotate no_reflect no_shear #
lump $-1 $-1 $49 $7 #
transform $-1 1 0 0 0 1 0 0 0 1 52.19397564622944 23.943092322494234 8.2578714851824042 1 rotate no_reflect no_shear #
lump $-1 $-1 $50 $8 #
transform $-1 1 0 0 0 1 0 0 0 1 52.19397564622944 23.943092322494234 8.2578714851824042 1 rotate no_reflect no_shear #
lump $-1 $-1 $51 $9 #
transform $-1 1 0 0 0 1 0 0 0 1 52.19397564622944 23.943092322494234 8.2578714851824042 1 rotate no_reflect no_shear #
lump $-1 $-1 $52 $10 #
transform $-1 1 0 0 0 1 0 0 0 1 52.19397564622944 23.943092322494234 8.2578714851824042 1 rotate no_reflect no_shear #
lump $-1 $-1 $53 $11 #
transform $-1 1 0 0 0 1 0 0 0 1 52.19397564622944 23.943092322494234 8.2578714851824042 1 rotate no_reflect no_shear #
lump $-1 $-1 $54 $12 #
transform $-1 1 0 0 0 1 0 0 0 1 52.19397564622944 23.943092322494234 8.2578714851824042 1 rotate no_reflect no_shear #
lump $-1 $-1 $55 $13 #
transform $-1 1 0 0 0 1 0 0 0 1 52.19397564622944 23.943092322494234 8.2578714851824042 1 rotate no_reflect no_shear #
shell $-1 $-1 $-1 $56 $-1 $14 #
shell $-1 $-1 $-1 $57 $-1 $16 #
shell $-1 $-1 $-1 $58 $-1 $18 #
shell $-1 $-1 $-1 $59 $-1 $20 #
shell $-1 $-1 $-1 $60 $-1 $22 #
shell $-1 $-1 $-1 $61 $-1 $24 #
shell $-1 $-1 $-1 $62 $-1 $26 #
shell $-1 $-1 $-1 $63 $-1 $28 #
shell $-1 $-1 $-1 $64 $-1 $30 #
shell $-1 $-1 $-1 $65 $-1 $32 #
shell $-1 $-1 $-1 $66 $-1 $34 #
shell $-1 $-1 $-1 $67 $-1 $36 #
shell $-1 $-1 $-1 $68 $-1 $38 #
shell $-1 $-1 $-1 $69 $-1 $40 #
face $-1 $70 $71 $42 $-1 $72 forward single #
face $-1 $73 $74 $43 $-1 $75 reversed single #
face $-1 $76 $77 $44 $-1 $78 reversed single #
face $-1 $79 $80 $45 $-1 $81 forward single #
face $-1 $82 $83 $46 $-1 $84 forward single #
face $-1 $85 $86 $47 $-1 $87 reversed single #
face $-1 $88 $89 $48 $-1 $90 forward single #
face $-1 $91 $92 $49 $-1 $93 forward single #
face $-1 $94 $95 $50 $-1 $96 reversed single #
face $-1 $97 $98 $51 $-1 $99 forward single #
face $-1 $100 $101 $52 $-1 $102 forward single #
face $-1 $103 $104 $53 $-1 $105 reversed single #
face $-1 $106 $107 $54 $-1 $108 forward single #
face $-1 $109 $110 $55 $-1 $111 forward single #
face $-1 $112 $113 $42 $-1 $114 reversed single #
loop $-1 $-1 $115 $56 #
plane-surface $-1 0 0 8.2578714851824042 0 0 1 1 0 0 forward_v I I I I #
face $-1 $116 $117 $43 $-1 $118 reversed single #
loop $-1 $-1 $119 $57 #
plane-surface $-1 0 -20.491873114315492 4.8569903381764998 0 0 1 1 0 0 forward_v I I I I #
face $-1 $120 $121 $44 $-1 $122 reversed single #
loop $-1 $-1 $123 $58 #
plane-surface $-1 57.346080424555005 -8.6353963490225176 148.43278769484246 0 -1 0 -0.73135370988377701 0 -0.68199835119979291 forward_v I I I I #
face $-1 $124 $125 $45 $-1 $126 forward single #
loop $-1 $127 $128 $59 #
cone-surface $-1 48.210752994908212 -14.639151746961256 4.0633956848131927 -0.73135370988377701 0 -0.68199835119979291 0.34099917559989645 0 -0.36567685494188851 1 I I 0 1 0.5 forward I I I I #
face $-1 $129 $130 $46 $-1 $131 forward single #
loop $-1 $132 $133 $60 #
cone-surface $-1 48.210752994908212 -11.036898508198012 4.0633956848131927 -0.73135370988377701 0 -0.68199835119979291 0.34099917559989645 0 -0.36567685494188851 1 I I 0 1 0.5 forward I I I I #
face $-1 $134 $135 $47 $-1 $136 reversed single #
loop $-1 $-1 $137 $61 #
plane-surface $-1 -18.998435020351813 19.740463543937114 77.240377028261207 0.73135370988377701 0 0.68199835119979291 0.68199835119979291 0 -0.73135370988377701 forward_v I I I I #
face $-1 $138 $139 $48 $-1 $140 forward single #
loop $-1 $141 $142 $62 #
cone-surface $-1 48.210752994908212 17.939336924555494 4.0633956848131927 -0.73135370988377701 0 -0.68199835119979291 0.34099917559989645 0 -0.36567685494188851 1 I I 0 1 0.5 forward I I I I #
face $-1 $143 $144 $49 $-1 $145 forward single #
loop $-1 $146 $147 $63 #
cone-surface $-1 48.210752994908212 21.541590163318741 4.0633956848131927 -0.73135370988377701 0 -0.68199835119979291 0.34099917559989645 0 -0.36567685494188851 1 I I 0 1 0.5 forward I I I I #
face $-1 $148 $149 $50 $-1 $150 reversed single #
loop $-1 $-1 $151 $64 #
plane-surface $-1 -52.193975646229433 -12.838025127579634 0.89586158335438881 -0.73135370988377701 0 0.68199835119979291 0.68199835119979291 0 0.73135370988377701 forward_v I I I I #
face $-1 $152 $153 $51 $-1 $154 forward single #
loop $-1 $155 $156 $65 #
cone-surface $-1 -48.210752994908219 -14.639151746961256 4.0633956848131856 0.73135370988377701 0 -0.68199835119979291 0.34099917559989645 0 0.36567685494188851 1 I I 0 1 0.5 forward I I I I #
face $-1 $157 $158 $52 $-1 $159 forward single #
loop $-1 $160 $161 $66 #
cone-surface $-1 -48.210752994908219 -11.036898508198012 4.0633956848131856 0.73135370988377701 0 -0.68199835119979291 0.34099917559989645 0 0.36567685494188851 1 I I 0 1 0.5 forward I I I I #
face $-1 $162 $163 $53 $-1 $164 reversed single #
loop $-1 $-1 $165 $67 #
plane-surface $-1 -52.193975646229433 19.740463543937114 0.89586158335438881 -0.73135370988377701 0 0.68199835119979291 0.68199835119979291 0 0.73135370988377701 forward_v I I I I #
face $-1 $166 $167 $54 $-1 $168 forward single #
loop $-1 $169 $170 $68 #
cone-surface $-1 -48.210752994908219 17.939336924555494 4.0633956848131856 0.73135370988377701 0 -0.68199835119979291 0.34099917559989645 0 0.36567685494188851 1 I I 0 1 0.5 forward I I I I #
face $-1 $171 $172 $55 $-1 $173 forward single #
loop $-1 $174 $175 $69 #
cone-surface $-1 -48.210752994908219 21.541590163318741 4.0633956848131856 0.73135370988377701 0 -0.68199835119979291 0.34099917559989645 0 0.36567685494188851 1 I I 0 1 0.5 forward I I I I #
face $-1 $176 $177 $42 $-1 $178 reversed single #
loop $-1 $-1 $179 $70 #
plane-surface $-1 0 0 -8.2578714851824042 0 0 1 1 0 0 forward_v I I I I #
coedge $-1 $180 $181 $182 $183 forward $71 $-1 #
face $-1 $184 $185 $43 $-1 $186 reversed single #
loop $-1 $-1 $187 $73 #
plane-surface $-1 0 -17.04065390613675 6.557430911679452 0 -1 0 0 0 -1 forward_v I I I I #
coedge $-1 $188 $189 $190 $191 reversed $74 $-1 #
face $-1 $192 $193 $44 $-1 $194 forward single #
loop $-1 $-1 $195 $76 #
plane-surface $-1 -18.998435020351813 -12.838025127579634 77.240377028261207 0.73135370988377701 0 0.68199835119979291 0.68199835119979291 0 -0.73135370988377701 forward_v I I I I #
coedge $-1 $196 $197 $198 $199 reversed $77 $-1 #
face $-1 $-1 $200 $45 $-1 $201 forward single #
loop $-1 $202 $203 $79 #
cone-surface $-1 47.477284481593806 -14.639151746961256 3.379425247558034 -0.73135370988377701 0 -0.68199835119979291 0.17049958779994823 0 -0.18283842747094425 1 I I -0.70710678118654746 0.70710678118654746 0.25 forward I I I I #
loop $-1 $-1 $204 $59 #
coedge $-1 $128 $128 $205 $206 reversed $80 $-1 #
face $-1 $-1 $207 $46 $-1 $208 forward single #
loop $-1 $209 $210 $82 #
cone-surface $-1 47.477284481593806 -11.036898508198012 3.379425247558034 -0.73135370988377701 0 -0.68199835119979291 0.17049958779994823 0 -0.18283842747094425 1 I I -0.70710678118654746 0.70710678118654746 0.25 forward I I I I #
loop $-1 $-1 $211 $60 #
coedge $-1 $133 $133 $212 $213 reversed $83 $-1 #
face $-1 $214 $215 $47 $-1 $216 reversed single #
loop $-1 $-1 $217 $85 #
plane-surface $-1 57.346080424555005 15.537834765379998 148.43278769484246 0 1 0 0.73135370988377701 0 0.68199835119979291 forward_v I I I I #
coedge $-1 $218 $219 $220 $221 reversed $86 $-1 #
face $-1 $-1 $222 $48 $-1 $223 forward single #
loop $-1 $224 $225 $88 #
cone-surface $-1 47.477284481593806 17.939336924555494 3.379425247558034 -0.73135370988377701 0 -0.68199835119979291 0.17049958779994823 0 -0.18283842747094425 1 I I -0.70710678118654746 0.70710678118654746 0.25 forward I I I I #
loop $-1 $-1 $226 $62 #
coedge $-1 $142 $142 $227 $228 reversed $89 $-1 #
face $-1 $-1 $229 $49 $-1 $230 forward single #
loop $-1 $231 $232 $91 #
cone-surface $-1 47.477284481593806 21.541590163318741 3.379425247558034 -0.73135370988377701 0 -0.68199835119979291 0.17049958779994823 0 -0.18283842747094425 1 I I -0.70710678118654746 0.70710678118654746 0.25 forward I I I I #
loop $-1 $-1 $233 $63 #
coedge $-1 $147 $147 $234 $235 reversed $92 $-1 #
face $-1 $236 $237 $50 $-1 $238 forward single #
loop $-1 $-1 $239 $94 #
plane-surface $-1 -128.53849109113625 -8.6353963490225176 72.088272249935642 0 -1 0 0.73135370988377701 0 -0.68199835119979291 forward_v I I I I #
coedge $-1 $240 $241 $242 $243 reversed $95 $-1 #
face $-1 $-1 $244 $51 $-1 $245 forward single #
loop $-1 $246 $247 $97 #
cone-surface $-1 -47.477284481593813 -14.639151746961256 3.3794252475580269 0.73135370988377701 0 -0.68199835119979291 0.17049958779994823 0 0.18283842747094425 1 I I -0.70710678118654746 0.70710678118654746 0.25 forward I I I I #
loop $-1 $-1 $248 $65 #
coedge $-1 $156 $156 $249 $250 reversed $98 $-1 #
face $-1 $-1 $251 $52 $-1 $252 forward single #
loop $-1 $253 $254 $100 #
cone-surface $-1 -47.477284481593813 -11.036898508198012 3.3794252475580269 0.73135370988377701 0 -0.68199835119979291 0.17049958779994823 0 0.18283842747094425 1 I I -0.70710678118654746 0.70710678118654746 0.25 forward I I I I #
loop $-1 $-1 $255 $66 #
coedge $-1 $161 $161 $256 $257 reversed $101 $-1 #
face $-1 $258 $259 $53 $-1 $260 reversed single #
loop $-1 $-1 $261 $103 #
plane-surface $-1 -128.53849109113625 15.537834765379998 72.088272249935642 0 1 0 -0.73135370988377701 0 0.68199835119979291 forward_v I I I I #
coedge $-1 $262 $263 $264 $265 reversed $104 $-1 #
face $-1 $-1 $266 $54 $-1 $267 forward single #
loop $-1 $268 $269 $106 #
cone-surface $-1 -47.477284481593813 17.939336924555494 3.3794252475580269 0.73135370988377701 0 -0.68199835119979291 0.17049958779994823 0 0.18283842747094425 1 I I -0.70710678118654746 0.70710678118654746 0.25 forward I I I I #
loop $-1 $-1 $270 $68 #
coedge $-1 $170 $170 $271 $272 reversed $107 $-1 #
face $-1 $-1 $273 $55 $-1 $274 forward single #
loop $-1 $275 $276 $109 #
cone-surface $-1 -47.477284481593813 21.541590163318741 3.3794252475580269 0.73135370988377701 0 -0.68199835119979291 0.17049958779994823 0 0.18283842747094425 1 I I -0.70710678118654746 0.70710678118654746 0.25 forward I I I I #
loop $-1 $-1 $277 $69 #
coedge $-1 $175 $175 $278 $279 reversed $110 $-1 #
face $-1 $280 $281 $42 $-1 $282 reversed single #
loop $-1 $-1 $283 $112 #
plane-surface $-1 0 -23.943092322494234 0 0 1 0 0 0 1 forward_v I I I I #
coedge $-1 $284 $285 $286 $287 forward $113 $-1 #
coedge $-1 $288 $115 $289 $290 forward $71 $-1 #
coedge $-1 $115 $288 $291 $292 forward $71 $-1 #
coedge $-1 $293 $294 $115 $183 reversed $295 $-1 #
edge $-1 $296 -23.943092322494234 $297 23.943092322494234 $182 $298 forward 7 unknown #
face $-1 $299 $300 $43 $-1 $301 reversed single #
loop $-1 $-1 $302 $116 #
plane-surface $-1 -52.19397564622944 0 0 1 0 0 0 0 -1 forward_v I I I I #
coedge $-1 $303 $304 $305 $306 reversed $117 $-1 #
coedge $-1 $307 $119 $308 $309 reversed $74 $-1 #
coedge $-1 $119 $307 $310 $311 forward $74 $-1 #
coedge $-1 $312 $313 $119 $191 forward $314 $-1 #
edge $-1 $315 -13.697155765336488 $316 -6.7947173489790043 $190 $317 forward 7 unknown #
face $-1 $318 $319 $44 $-1 $320 forward single #
loop $-1 $-1 $321 $120 #
plane-surface $-1 0 -17.04065390613675 6.557430911679452 0 -1 0 0 0 -1 forward_v I I I I #
coedge $-1 $322 $323 $324 $325 reversed $121 $-1 #
coedge $-1 $197 $123 $326 $327 reversed $77 $-1 #
coedge $-1 $123 $196 $322 $328 reversed $77 $-1 #
coedge $-1 $324 $329 $123 $199 forward $319 $-1 #
edge $-1 $330 -23.520935433951937 $331 -16.655750302996427 $198 $332 forward 7 unknown #
loop $-1 $-1 $205 $124 #
plane-surface $-1 -18.998435020351813 -12.838025127579634 77.240377028261207 0.73135370988377701 0 0.68199835119979291 0.68199835119979291 0 -0.73135370988377701 forward_v I I I I #
loop $-1 $-1 $333 $79 #
coedge $-1 $203 $203 $204 $334 reversed $125 $-1 #
coedge $-1 $204 $204 $203 $334 forward $127 $-1 #
coedge $-1 $205 $205 $128 $206 forward $200 $-1 #
edge $-1 $335 0 $335 6.2831853071796004 $205 $336 forward 7 unknown #
loop $-1 $-1 $212 $129 #
plane-surface $-1 -18.998435020351813 -12.838025127579634 77.240377028261207 0.73135370988377701 0 0.68199835119979291 0.68199835119979291 0 -0.73135370988377701 forward_v I I I I #
loop $-1 $-1 $337 $82 #
coedge $-1 $210 $210 $211 $338 reversed $130 $-1 #
coedge $-1 $211 $211 $210 $338 forward $132 $-1 #
coedge $-1 $212 $212 $133 $213 forward $207 $-1 #
edge $-1 $339 0 $339 6.2831853071796004 $212 $340 forward 7 unknown #
face $-1 $341 $342 $47 $-1 $343 forward single #
loop $-1 $-1 $344 $134 #
plane-surface $-1 0 23.943092322494234 0 0 -1 0 0 0 -1 forward_v I I I I #
coedge $-1 $345 $346 $347 $348 reversed $135 $-1 #
coedge $-1 $349 $137 $344 $350 reversed $86 $-1 #
coedge $-1 $137 $349 $345 $351 forward $86 $-1 #
coedge $-1 $347 $352 $137 $221 forward $342 $-1 #
edge $-1 $353 -14.072860550525673 $354 -5.6676029934114407 $220 $355 forward 7 unknown #
loop $-1 $-1 $227 $138 #
plane-surface $-1 -18.998435020351813 19.740463543937114 77.240377028261207 0.73135370988377701 0 0.68199835119979291 0.68199835119979291 0 -0.73135370988377701 forward_v I I I I #
loop $-1 $-1 $356 $88 #
coedge $-1 $225 $225 $226 $357 reversed $139 $-1 #
coedge $-1 $226 $226 $225 $357 forward $141 $-1 #
coedge $-1 $227 $227 $142 $228 forward $222 $-1 #
edge $-1 $358 0 $358 6.2831853071796004 $227 $359 forward 7 unknown #
loop $-1 $-1 $234 $143 #
plane-surface $-1 -18.998435020351813 19.740463543937114 77.240377028261207 0.73135370988377701 0 0.68199835119979291 0.68199835119979291 0 -0.73135370988377701 forward_v I I I I #
loop $-1 $-1 $360 $91 #
coedge $-1 $232 $232 $233 $361 reversed $144 $-1 #
coedge $-1 $233 $233 $232 $361 forward $146 $-1 #
coedge $-1 $234 $234 $147 $235 forward $229 $-1 #
edge $-1 $362 0 $362 6.2831853071796004 $234 $363 forward 7 unknown #
face $-1 $364 $365 $50 $-1 $366 forward single #
loop $-1 $-1 $367 $148 #
plane-surface $-1 0 -17.04065390613675 6.557430911679452 0 -1 0 0 0 -1 forward_v I I I I #
coedge $-1 $368 $369 $370 $371 reversed $149 $-1 #
coedge $-1 $372 $151 $367 $373 reversed $95 $-1 #
coedge $-1 $151 $372 $368 $374 forward $95 $-1 #
coedge $-1 $370 $375 $151 $243 forward $365 $-1 #
edge $-1 $376 -10.621641342346933 $377 -2.2163837852327006 $242 $378 forward 7 unknown #
loop $-1 $-1 $249 $152 #
plane-surface $-1 -52.193975646229433 -12.838025127579634 0.89586158335438881 -0.73135370988377701 0 0.68199835119979291 0.68199835119979291 0 0.73135370988377701 forward_v I I I I #
loop $-1 $-1 $379 $97 #
coedge $-1 $247 $247 $248 $380 reversed $153 $-1 #
coedge $-1 $248 $248 $247 $380 forward $155 $-1 #
coedge $-1 $249 $249 $156 $250 forward $244 $-1 #
edge $-1 $381 0 $381 6.2831853071796004 $249 $382 forward 7 unknown #
loop $-1 $-1 $256 $157 #
plane-surface $-1 -52.193975646229433 -12.838025127579634 0.89586158335438881 -0.73135370988377701 0 0.68199835119979291 0.68199835119979291 0 0.73135370988377701 forward_v I I I I #
loop $-1 $-1 $383 $100 #
coedge $-1 $254 $254 $255 $384 reversed $158 $-1 #
coedge $-1 $255 $255 $254 $384 forward $160 $-1 #
coedge $-1 $256 $256 $161 $257 forward $251 $-1 #
edge $-1 $385 0 $385 6.2831853071796004 $256 $386 forward 7 unknown #
face $-1 $387 $388 $53 $-1 $389 forward single #
loop $-1 $-1 $264 $162 #
plane-surface $-1 -52.19397564622944 0 0 1 0 0 0 0 -1 forward_v I I I I #
coedge $-1 $390 $391 $392 $393 reversed $163 $-1 #
coedge $-1 $394 $165 $395 $396 reversed $104 $-1 #
coedge $-1 $165 $394 $390 $397 forward $104 $-1 #
coedge $-1 $392 $398 $165 $265 forward $259 $-1 #
edge $-1 $399 -14.072860550525677 $400 -5.6676029934114407 $264 $401 forward 7 unknown #
loop $-1 $-1 $271 $166 #
plane-surface $-1 -52.193975646229433 19.740463543937114 0.89586158335438881 -0.73135370988377701 0 0.68199835119979291 0.68199835119979291 0 0.73135370988377701 forward_v I I I I #
loop $-1 $-1 $402 $106 #
coedge $-1 $269 $269 $270 $403 reversed $167 $-1 #
coedge $-1 $270 $270 $269 $403 forward $169 $-1 #
coedge $-1 $271 $271 $170 $272 forward $266 $-1 #
edge $-1 $404 0 $404 6.2831853071796004 $271 $405 forward 7 unknown #
loop $-1 $-1 $278 $171 #
plane-surface $-1 -52.193975646229433 19.740463543937114 0.89586158335438881 -0.73135370988377701 0 0.68199835119979291 0.68199835119979291 0 0.73135370988377701 forward_v I I I I #
loop $-1 $-1 $406 $109 #
coedge $-1 $276 $276 $277 $407 reversed $172 $-1 #
coedge $-1 $277 $277 $276 $407 forward $174 $-1 #
coedge $-1 $278 $278 $175 $279 forward $273 $-1 #
edge $-1 $408 0 $408 6.2831853071796004 $278 $409 forward 7 unknown #
face $-1 $410 $411 $42 $-1 $412 reversed single #
loop $-1 $-1 $413 $176 #
plane-surface $-1 -52.19397564622944 0 0 1 0 0 0 0 -1 forward_v I I I I #
coedge $-1 $414 $291 $415 $416 forward $177 $-1 #
coedge $-1 $417 $179 $414 $418 forward $113 $-1 #
coedge $-1 $179 $417 $419 $420 forward $113 $-1 #
coedge $-1 $294 $293 $179 $287 reversed $295 $-1 #
edge $-1 $421 -23.943092322494234 $422 23.943092322494234 $286 $423 forward 7 unknown #
coedge $-1 $181 $180 $424 $425 forward $71 $-1 #
coedge $-1 $426 $427 $180 $290 reversed $411 $-1 #
edge $-1 $297 -52.19397564622944 $428 52.19397564622944 $289 $429 forward 7 unknown #
coedge $-1 $283 $430 $181 $292 reversed $177 $-1 #
edge $-1 $431 -52.19397564622944 $296 52.19397564622944 $291 $432 forward 7 unknown #
coedge $-1 $286 $182 $430 $433 forward $295 $-1 #
coedge $-1 $182 $286 $426 $434 reversed $295 $-1 #
loop $-1 $-1 $293 $410 #
vertex $-1 $183 $435 #
vertex $-1 $183 $436 #
straight-curve $-1 52.19397564622944 0 8.2578714851824042 0 1 0 I I #
face $-1 $437 $438 $43 $-1 $439 forward single #
loop $-1 $-1 $308 $184 #
plane-surface $-1 0 -23.943092322494234 0 0 1 0 0 0 1 forward_v I I I I #
coedge $-1 $440 $441 $304 $442 forward $185 $-1 #
coedge $-1 $310 $187 $312 $443 reversed $117 $-1 #
coedge $-1 $187 $310 $302 $442 reversed $117 $-1 #
coedge $-1 $444 $445 $187 $306 forward $438 $-1 #
edge $-1 $446 -52.19397564622944 $447 52.19397564622944 $305 $448 forward 7 unknown #
coedge $-1 $189 $188 $440 $449 reversed $74 $-1 #
coedge $-1 $450 $451 $188 $309 forward $300 $-1 #
edge $-1 $452 -52.19397564622944 $315 52.19397564622944 $308 $453 forward 7 unknown #
coedge $-1 $304 $303 $189 $311 reversed $117 $-1 #
edge $-1 $454 -52.19397564622944 $316 52.19397564622944 $310 $455 forward 7 unknown #
coedge $-1 $456 $190 $303 $443 forward $314 $-1 #
coedge $-1 $190 $456 $450 $457 forward $314 $-1 #
loop $-1 $-1 $312 $437 #
vertex $-1 $309 $458 #
vertex $-1 $191 $459 #
straight-curve $-1 52.19397564622944 -10.245936557157746 4.8569903381764998 0 1 0 I I #
face $-1 $-1 $460 $44 $-1 $461 reversed single #
loop $-1 $-1 $324 $192 #
plane-surface $-1 0 0 8.2578714851824042 0 0 1 1 0 0 forward_v I I I I #
coedge $-1 $462 $463 $323 $464 reversed $193 $-1 #
coedge $-1 $465 $195 $197 $328 forward $121 $-1 #
coedge $-1 $195 $465 $321 $464 forward $121 $-1 #
coedge $-1 $466 $198 $195 $325 forward $319 $-1 #
edge $-1 $331 2.2163837852327006 $467 10.621641342346933 $324 $468 forward 7 unknown #
coedge $-1 $469 $470 $196 $327 forward $460 $-1 #
edge $-1 $471 -73.320532264066856 $330 -65.958522362238824 $326 $472 forward 7 unknown #
edge $-1 $331 94.321673098562854 $471 104.38795129245889 $197 $473 forward 7 unknown #
coedge $-1 $198 $466 $469 $474 forward $319 $-1 #
vertex $-1 $327 $475 #
vertex $-1 $199 $476 #
straight-curve $-1 28.673040212277503 -8.6353963490225176 8.257871485182406 -1 0 0 I I #
coedge $-1 $333 $333 $-1 $477 reversed $202 $-1 #
edge $-1 $478 0 $478 6.2831853071796004 $203 $479 forward 7 unknown #
vertex $-1 $206 $480 #
ellipse-curve $-1 48.761383080751678 -14.639151746961256 4.5768665342684036 0.73135370988377701 0 0.68199835119979291 0.34099917559989645 0 -0.36567685494188851 1 I I #
coedge $-1 $337 $337 $-1 $481 reversed $209 $-1 #
edge $-1 $482 0 $482 6.2831853071796004 $210 $483 forward 7 unknown #
vertex $-1 $213 $484 #
ellipse-curve $-1 48.761383080751678 -11.036898508198012 4.5768665342684036 0.73135370988377701 0 0.68199835119979291 0.34099917559989645 0 -0.36567685494188851 1 I I #
face $-1 $-1 $485 $47 $-1 $486 reversed single #
loop $-1 $-1 $220 $214 #
plane-surface $-1 0 0 8.2578714851824042 0 0 1 1 0 0 forward_v I I I I #
coedge $-1 $487 $488 $218 $350 forward $215 $-1 #
coedge $-1 $346 $217 $219 $351 reversed $135 $-1 #
coedge $-1 $217 $345 $489 $490 reversed $135 $-1 #
coedge $-1 $491 $220 $217 $348 forward $342 $-1 #
edge $-1 $354 16.655750302996427 $492 23.520935433951937 $347 $493 forward 7 unknown #
coedge $-1 $219 $218 $494 $495 reversed $86 $-1 #
edge $-1 $496 -69.66448246661048 $353 -59.598204272714447 $344 $497 forward 7 unknown #
edge $-1 $498 -104.38795129245889 $354 -94.321673098562854 $345 $499 forward 7 unknown #
coedge $-1 $220 $491 $487 $500 forward $342 $-1 #
vertex $-1 $350 $501 #
vertex $-1 $221 $502 #
straight-curve $-1 45.328790515273916 9.8702317719685571 8.2578714851824131 0 -1 0 I I #
coedge $-1 $356 $356 $-1 $503 reversed $224 $-1 #
edge $-1 $504 0 $504 6.2831853071796004 $225 $505 forward 7 unknown #
vertex $-1 $228 $506 #
ellipse-curve $-1 48.761383080751678 17.939336924555494 4.5768665342684036 0.73135370988377701 0 0.68199835119979291 0.34099917559989645 0 -0.36567685494188851 1 I I #
coedge $-1 $360 $360 $-1 $507 reversed $231 $-1 #
edge $-1 $508 0 $508 6.2831853071796004 $232 $509 forward 7 unknown #
vertex $-1 $235 $510 #
ellipse-curve $-1 48.761383080751678 21.541590163318741 4.5768665342684036 0.73135370988377701 0 0.68199835119979291 0.34099917559989645 0 -0.36567685494188851 1 I I #
face $-1 $-1 $511 $50 $-1 $512 reversed single #
loop $-1 $-1 $370 $236 #
plane-surface $-1 0 0 8.2578714851824042 0 0 1 1 0 0 forward_v I I I I #
coedge $-1 $513 $514 $240 $373 forward $237 $-1 #
coedge $-1 $369 $239 $241 $374 reversed $149 $-1 #
coedge $-1 $239 $368 $515 $516 reversed $149 $-1 #
coedge $-1 $517 $242 $239 $371 forward $365 $-1 #
edge $-1 $377 -18.940455030294203 $518 -12.075269899338686 $370 $519 forward 7 unknown #
coedge $-1 $241 $240 $520 $521 reversed $95 $-1 #
edge $-1 $522 -19.868407532662687 $376 -9.8021293387666653 $367 $523 forward 7 unknown #
edge $-1 $524 -1.0448453264673958e-014 $377 10.066278193896013 $368 $525 forward 7 unknown #
coedge $-1 $242 $517 $513 $526 forward $365 $-1 #
vertex $-1 $243 $527 #
vertex $-1 $243 $528 #
straight-curve $-1 -45.328790515273923 -6.419012563789817 8.2578714851824024 0 1 0 I I #
coedge $-1 $379 $379 $-1 $529 reversed $246 $-1 #
edge $-1 $530 0 $530 6.2831853071796004 $247 $531 forward 7 unknown #
vertex $-1 $250 $532 #
ellipse-curve $-1 -48.761383080751678 -14.639151746961256 4.5768665342683938 -0.73135370988377701 0 0.68199835119979291 0.34099917559989645 0 0.36567685494188851 1 I I #
coedge $-1 $383 $383 $-1 $533 reversed $253 $-1 #
edge $-1 $534 0 $534 6.2831853071796004 $254 $535 forward 7 unknown #
vertex $-1 $257 $536 #
ellipse-curve $-1 -48.761383080751678 -11.036898508198012 4.5768665342683938 -0.73135370988377701 0 0.68199835119979291 0.34099917559989645 0 0.36567685494188851 1 I I #
face $-1 $-1 $537 $53 $-1 $538 reversed single #
loop $-1 $-1 $539 $258 #
plane-surface $-1 0 0 8.2578714851824042 0 0 1 1 0 0 forward_v I I I I #
coedge $-1 $391 $261 $263 $397 reversed $163 $-1 #
coedge $-1 $261 $390 $539 $540 reversed $163 $-1 #
coedge $-1 $541 $264 $261 $393 forward $259 $-1 #
edge $-1 $400 -35.148274541613439 $542 -27.786264639785415 $392 $543 forward 7 unknown #
coedge $-1 $263 $262 $544 $545 reversed $104 $-1 #
coedge $-1 $546 $547 $262 $396 forward $537 $-1 #
edge $-1 $548 7.4042286264850041 $399 17.470506820381026 $395 $549 forward 7 unknown #
edge $-1 $550 -10.066278193896013 $400 1.0448453264673958e-014 $390 $551 forward 7 unknown #
coedge $-1 $264 $541 $546 $552 forward $259 $-1 #
vertex $-1 $396 $553 #
vertex $-1 $265 $554 #
straight-curve $-1 -52.19397564622944 9.8702317719685571 0.89586158335437394 0 -1 0 I I #
coedge $-1 $402 $402 $-1 $555 reversed $268 $-1 #
edge $-1 $556 0 $556 6.2831853071796004 $269 $557 forward 7 unknown #
vertex $-1 $272 $558 #
ellipse-curve $-1 -48.761383080751678 17.939336924555494 4.5768665342683938 -0.73135370988377701 0 0.68199835119979291 0.34099917559989645 0 0.36567685494188851 1 I I #
coedge $-1 $406 $406 $-1 $559 reversed $275 $-1 #
edge $-1 $560 0 $560 6.2831853071796004 $276 $561 forward 7 unknown #
vertex $-1 $279 $562 #
ellipse-curve $-1 -48.761383080751678 21.541590163318741 4.5768665342683938 -0.73135370988377701 0 0.68199835119979291 0.34099917559989645 0 0.36567685494188851 1 I I #
face $-1 $-1 $295 $42 $-1 $563 reversed single #
loop $-1 $-1 $426 $280 #
plane-surface $-1 0 23.943092322494234 0 0 -1 0 0 0 -1 forward_v I I I I #
coedge $-1 $564 $424 $427 $565 forward $281 $-1 #
coedge $-1 $430 $283 $284 $418 reversed $177 $-1 #
coedge $-1 $424 $564 $283 $416 reversed $281 $-1 #
edge $-1 $431 -8.2578714851824042 $566 8.2578714851824042 $415 $567 forward 7 unknown #
coedge $-1 $285 $284 $564 $568 forward $113 $-1 #
edge $-1 $422 -52.19397564622944 $566 52.19397564622944 $414 $569 forward 7 unknown #
coedge $-1 $427 $426 $285 $420 reversed $411 $-1 #
edge $-1 $570 -52.19397564622944 $421 52.19397564622944 $419 $571 forward 7 unknown #
vertex $-1 $287 $572 #
vertex $-1 $433 $573 #
straight-curve $-1 52.19397564622944 0 -8.2578714851824042 0 -1 0 I I #
coedge $-1 $413 $415 $288 $425 reversed $281 $-1 #
edge $-1 $428 -23.943092322494234 $431 23.943092322494234 $424 $574 forward 7 unknown #
coedge $-1 $419 $289 $294 $434 forward $411 $-1 #
coedge $-1 $289 $419 $413 $565 reversed $411 $-1 #
vertex $-1 $290 $575 #
straight-curve $-1 0 23.943092322494234 8.2578714851824042 -1 0 0 I I #
coedge $-1 $291 $414 $293 $433 reversed $177 $-1 #
vertex $-1 $425 $576 #
straight-curve $-1 0 -23.943092322494234 8.2578714851824042 1 0 0 I I #
edge $-1 $296 -8.2578714851824042 $422 8.2578714851824042 $293 $577 forward 7 unknown #
edge $-1 $297 -8.2578714851824042 $421 8.2578714851824042 $294 $578 forward 7 unknown #
point $-1 52.19397564622944 -23.943092322494234 8.2578714851824042 #
point $-1 52.19397564622944 23.943092322494234 8.2578714851824042 #
face $-1 $-1 $314 $43 $-1 $579 reversed single #
loop $-1 $-1 $305 $299 #
plane-surface $-1 0 0 8.2578714851824042 0 0 1 1 0 0 forward_v I I I I #
coedge $-1 $580 $302 $307 $449 forward $185 $-1 #
coedge $-1 $302 $580 $444 $581 reversed $185 $-1 #
edge $-1 $447 -4.9791560293426782 $454 -1.5782748823367738 $302 $582 forward 7 unknown #
edge $-1 $316 1.5782748823367738 $446 4.9791560293426782 $312 $583 forward 7 unknown #
coedge $-1 $584 $305 $441 $581 forward $438 $-1 #
coedge $-1 $305 $584 $456 $585 forward $438 $-1 #
vertex $-1 $443 $586 #
vertex $-1 $581 $587 #
straight-curve $-1 0 -17.04065390613675 8.2578714851824042 -1 0 0 I I #
edge $-1 $454 6.7947173489790043 $452 13.697155765336488 $440 $588 forward 7 unknown #
coedge $-1 $589 $308 $313 $457 reversed $300 $-1 #
coedge $-1 $308 $589 $580 $590 forward $300 $-1 #
vertex $-1 $309 $591 #
straight-curve $-1 0 -23.943092322494234 4.8569903381764998 1 0 0 I I #
vertex $-1 $449 $592 #
straight-curve $-1 0 -17.04065390613675 4.8569903381764998 1 0 0 I I #
coedge $-1 $313 $312 $445 $585 reversed $314 $-1 #
edge $-1 $593 -8.2578714851824042 $315 -4.8569903381764998 $313 $594 forward 7 unknown #
point $-1 52.19397564622944 -23.943092322494234 4.8569903381764998 #
point $-1 52.19397564622944 -17.04065390613675 4.8569903381764998 #
loop $-1 $-1 $326 $318 #
plane-surface $-1 52.19397564622944 0 0 -1 0 0 0 0 1 forward_v I I I I #
coedge $-1 $463 $321 $595 $596 reversed $193 $-1 #
coedge $-1 $321 $462 $466 $597 reversed $193 $-1 #
edge $-1 $598 -104.38795129245889 $467 -94.321673098562854 $321 $599 forward 7 unknown #
coedge $-1 $323 $322 $470 $600 reversed $121 $-1 #
coedge $-1 $329 $324 $463 $597 forward $319 $-1 #
vertex $-1 $597 $601 #
straight-curve $-1 45.328790515273916 -6.419012563789817 8.2578714851824131 0 -1 0 I I #
coedge $-1 $595 $326 $329 $474 reversed $460 $-1 #
coedge $-1 $326 $595 $465 $600 forward $460 $-1 #
vertex $-1 $327 $602 #
straight-curve $-1 52.19397564622944 -8.6353963490225176 74.21639384742123 0 0 1 I I #
straight-curve $-1 -18.998435020351813 -8.6353963490225176 77.240377028261207 0.68199835119979291 0 -0.73135370988377701 I I #
edge $-1 $603 -17.04065390613675 $330 -8.6353963490225176 $469 $604 forward 7 unknown #
point $-1 52.19397564622944 -8.6353963490225176 8.2578714851824042 #
point $-1 45.32879051527393 -8.6353963490225176 8.257871485182406 #
edge $-1 $605 1 $605 0 $333 $-1 forward 7 unknown #
vertex $-1 $334 $606 #
ellipse-curve $-1 47.660122909064754 -14.639151746961256 3.5499248353579822 0.73135370988377701 0 0.68199835119979291 0.34099917559989645 0 -0.36567685494188851 1 I I #
point $-1 49.102382256351575 -14.639151746961256 4.2111896793265151 #
edge $-1 $607 1 $607 0 $337 $-1 forward 7 unknown #
vertex $-1 $338 $608 #
ellipse-curve $-1 47.660122909064754 -11.036898508198012 3.5499248353579822 0.73135370988377701 0 0.68199835119979291 0.34099917559989645 0 -0.36567685494188851 1 I I #
point $-1 49.102382256351575 -11.036898508198012 4.2111896793265151 #
loop $-1 $-1 $494 $341 #
plane-surface $-1 52.19397564622944 0 0 -1 0 0 0 0 1 forward_v I I I I #
coedge $-1 $488 $344 $352 $500 reversed $215 $-1 #
coedge $-1 $344 $487 $609 $610 forward $215 $-1 #
coedge $-1 $494 $611 $346 $490 forward $485 $-1 #
edge $-1 $492 65.958522362238824 $498 73.320532264066856 $489 $612 forward 7 unknown #
coedge $-1 $352 $347 $611 $613 forward $342 $-1 #
vertex $-1 $613 $614 #
straight-curve $-1 28.673040212277503 15.537834765379998 8.257871485182406 1 0 0 I I #
coedge $-1 $609 $489 $349 $495 forward $485 $-1 #
edge $-1 $498 5.6676029934114407 $496 14.072860550525673 $494 $615 forward 7 unknown #
vertex $-1 $350 $616 #
straight-curve $-1 4.6829134668142203 23.943092322494234 51.845239282443288 -0.68199835119979291 0 0.73135370988377701 I I #
vertex $-1 $495 $617 #
straight-curve $-1 -18.998435020351813 15.537834765379998 77.240377028261207 -0.68199835119979291 0 0.73135370988377701 I I #
edge $-1 $618 -52.19397564622944 $353 -45.32879051527393 $487 $619 forward 7 unknown #
point $-1 45.32879051527393 23.94309232249423 8.257871485182406 #
point $-1 45.32879051527393 15.537834765379998 8.257871485182406 #
edge $-1 $620 1 $620 0 $356 $-1 forward 7 unknown #
vertex $-1 $357 $621 #
ellipse-curve $-1 47.660122909064754 17.939336924555494 3.5499248353579822 0.73135370988377701 0 0.68199835119979291 0.34099917559989645 0 -0.36567685494188851 1 I I #
point $-1 49.102382256351575 17.939336924555494 4.2111896793265151 #
edge $-1 $622 1 $622 0 $360 $-1 forward 7 unknown #
vertex $-1 $361 $623 #
ellipse-curve $-1 47.660122909064754 21.541590163318741 3.5499248353579822 0.73135370988377701 0 0.68199835119979291 0.34099917559989645 0 -0.36567685494188851 1 I I #
point $-1 49.102382256351575 21.541590163318741 4.2111896793265151 #
loop $-1 $-1 $624 $364 #
plane-surface $-1 -52.19397564622944 0 0 1 0 0 0 0 -1 forward_v I I I I #
coedge $-1 $514 $367 $375 $526 reversed $237 $-1 #
coedge $-1 $367 $513 $624 $625 reversed $237 $-1 #
coedge $-1 $520 $626 $369 $516 forward $511 $-1 #
edge $-1 $518 27.786264639785415 $524 35.148274541613439 $515 $627 forward 7 unknown #
coedge $-1 $375 $370 $626 $628 forward $365 $-1 #
vertex $-1 $628 $629 #
straight-curve $-1 -64.269245545568126 -8.6353963490225176 8.257871485182406 -1 0 0 I I #
coedge $-1 $624 $515 $372 $521 forward $511 $-1 #
edge $-1 $524 2.2163837852327006 $522 10.621641342346933 $520 $630 forward 7 unknown #
vertex $-1 $625 $631 #
straight-curve $-1 -38.643754467987939 -17.04065390613675 15.426695141850018 0.68199835119979291 0 0.73135370988377701 I I #
vertex $-1 $521 $632 #
straight-curve $-1 -52.193975646229433 -8.6353963490225176 0.89586158335438881 0.68199835119979291 0 0.73135370988377701 I I #
edge $-1 $633 -52.19397564622944 $376 -45.328790515273923 $375 $634 forward 7 unknown #
point $-1 -45.328790515273923 -17.04065390613675 8.2578714851824042 #
point $-1 -45.328790515273923 -8.6353963490225176 8.2578714851824042 #
edge $-1 $635 1 $635 0 $379 $-1 forward 7 unknown #
vertex $-1 $380 $636 #
ellipse-curve $-1 -47.660122909064754 -14.639151746961256 3.5499248353579751 -0.73135370988377701 0 0.68199835119979291 0.34099917559989645 0 0.36567685494188851 1 I I #
point $-1 -48.420383905151787 -14.639151746961256 4.942543389210285 #
edge $-1 $637 1 $637 0 $383 $-1 forward 7 unknown #
vertex $-1 $384 $638 #
ellipse-curve $-1 -47.660122909064754 -11.036898508198012 3.5499248353579751 -0.73135370988377701 0 0.68199835119979291 0.34099917559989645 0 0.36567685494188851 1 I I #
point $-1 -48.420383905151787 -11.036898508198012 4.942543389210285 #
loop $-1 $-1 $395 $387 #
plane-surface $-1 0 23.943092322494234 0 0 -1 0 0 0 -1 forward_v I I I I #
coedge $-1 $544 $639 $391 $540 forward $388 $-1 #
edge $-1 $542 12.075269899338686 $550 18.940455030294203 $539 $640 forward 7 unknown #
coedge $-1 $398 $392 $639 $641 reversed $259 $-1 #
vertex $-1 $393 $642 #
straight-curve $-1 -52.19397564622944 15.537834765379998 36.044136124967821 0 0 1 I I #
coedge $-1 $643 $539 $394 $545 forward $388 $-1 #
edge $-1 $550 5.6676029934114407 $548 14.072860550525673 $544 $644 forward 7 unknown #
coedge $-1 $547 $395 $398 $552 reversed $537 $-1 #
coedge $-1 $395 $546 $643 $645 reversed $537 $-1 #
vertex $-1 $645 $646 #
straight-curve $-1 -40.27911880010484 23.943092322494234 13.672981559989873 -0.68199835119979291 0 -0.73135370988377701 I I #
vertex $-1 $545 $647 #
straight-curve $-1 -52.193975646229433 15.537834765379998 0.89586158335438881 -0.68199835119979291 0 -0.73135370988377701 I I #
edge $-1 $648 -8.2578714851824042 $399 -0.89586158335438126 $546 $649 forward 7 unknown #
point $-1 -52.19397564622944 23.943092322494234 0.89586158335438126 #
point $-1 -52.19397564622944 15.537834765379998 0.89586158335438115 #
edge $-1 $650 1 $650 0 $402 $-1 forward 7 unknown #
vertex $-1 $403 $651 #
ellipse-curve $-1 -47.660122909064754 17.939336924555494 3.5499248353579751 -0.73135370988377701 0 0.68199835119979291 0.34099917559989645 0 0.36567685494188851 1 I I #
point $-1 -48.420383905151787 17.939336924555494 4.942543389210285 #
edge $-1 $652 1 $652 0 $406 $-1 forward 7 unknown #
vertex $-1 $407 $653 #
ellipse-curve $-1 -47.660122909064754 21.541590163318741 3.5499248353579751 -0.73135370988377701 0 0.68199835119979291 0.34099917559989645 0 0.36567685494188851 1 I I #
point $-1 -48.420383905151787 21.541590163318741 4.942543389210285 #
plane-surface $-1 52.19397564622944 0 0 -1 0 0 0 0 1 forward_v I I I I #
coedge $-1 $415 $413 $417 $568 reversed $281 $-1 #
edge $-1 $428 -8.2578714851824042 $570 8.2578714851824042 $427 $654 forward 7 unknown #
vertex $-1 $568 $655 #
straight-curve $-1 -52.19397564622944 -23.943092322494234 0 0 0 -1 I I #
edge $-1 $566 -23.943092322494234 $570 23.943092322494234 $564 $656 forward 7 unknown #
straight-curve $-1 0 -23.943092322494234 -8.2578714851824042 -1 0 0 I I #
vertex $-1 $420 $657 #
straight-curve $-1 0 23.943092322494234 -8.2578714851824042 1 0 0 I I #
point $-1 52.19397564622944 23.943092322494234 -8.2578714851824042 #
point $-1 52.19397564622944 -23.943092322494234 -8.2578714851824042 #
straight-curve $-1 -52.19397564622944 0 8.2578714851824042 0 -1 0 I I #
point $-1 -52.19397564622944 23.943092322494234 8.2578714851824042 #
point $-1 -52.19397564622944 -23.943092322494234 8.2578714851824042 #
straight-curve $-1 52.19397564622944 -23.943092322494234 0 0 0 -1 I I #
straight-curve $-1 52.19397564622944 23.943092322494234 0 0 0 -1 I I #
plane-surface $-1 52.19397564622944 0 0 -1 0 0 0 0 1 forward_v I I I I #
coedge $-1 $441 $440 $451 $590 reversed $185 $-1 #
edge $-1 $447 17.04065390613675 $658 23.943092322494234 $441 $659 forward 7 unknown #
straight-curve $-1 -52.19397564622944 -17.04065390613675 3.278715455839726 0 0 -1 I I #
straight-curve $-1 52.19397564622944 -17.04065390613675 3.278715455839726 0 0 1 I I #
coedge $-1 $445 $444 $589 $660 forward $438 $-1 #
edge $-1 $593 -23.943092322494234 $446 -17.04065390613675 $456 $661 forward 7 unknown #
point $-1 52.19397564622944 -17.04065390613675 8.2578714851824042 #
point $-1 -52.19397564622944 -17.04065390613675 8.2578714851824042 #
straight-curve $-1 -52.19397564622944 -10.245936557157746 4.8569903381764998 0 -1 0 I I #
coedge $-1 $451 $450 $584 $660 reversed $300 $-1 #
edge $-1 $658 -8.2578714851824042 $452 -4.8569903381764998 $580 $662 forward 7 unknown #
point $-1 -52.19397564622944 -23.943092322494234 4.8569903381764998 #
point $-1 -52.19397564622944 -17.04065390613675 4.8569903381764998 #
vertex $-1 $585 $663 #
straight-curve $-1 52.19397564622944 -23.943092322494234 0 0 0 -1 I I #
coedge $-1 $470 $469 $462 $596 forward $460 $-1 #
edge $-1 $603 65.958522362238824 $598 73.320532264066856 $595 $664 forward 7 unknown #
edge $-1 $467 45.32879051527393 $603 52.19397564622944 $466 $665 forward 7 unknown #
vertex $-1 $596 $666 #
straight-curve $-1 -18.998435020351813 -17.04065390613675 77.240377028261207 -0.68199835119979291 0 0.73135370988377701 I I #
edge $-1 $598 -10.621641342346933 $471 -2.2163837852327006 $470 $667 forward 7 unknown #
point $-1 45.32879051527393 -17.04065390613675 8.2578714851824042 #
point $-1 52.19397564622944 -8.6353963490225176 0.8958615833543746 #
vertex $-1 $474 $668 #
straight-curve $-1 52.19397564622944 0 8.2578714851824042 0 1 0 I I #
vertex $-1 $477 $669 #
point $-1 48.001122084664644 -14.639151746961256 3.1842479804160937 #
vertex $-1 $481 $670 #
point $-1 48.001122084664644 -11.036898508198012 3.1842479804160937 #
coedge $-1 $611 $494 $488 $610 reversed $485 $-1 #
edge $-1 $618 -8.2578714851824042 $496 -0.8958615833543746 $609 $671 forward 7 unknown #
coedge $-1 $489 $609 $491 $613 reversed $485 $-1 #
straight-curve $-1 52.19397564622944 15.537834765379998 74.21639384742123 0 0 -1 I I #
edge $-1 $492 15.537834765379998 $618 23.943092322494234 $611 $672 forward 7 unknown #
point $-1 52.19397564622944 15.537834765379998 8.2578714851824042 #
straight-curve $-1 52.193975646229433 9.8702317719685571 0.89586158335439592 0 1 0 I I #
point $-1 52.19397564622944 23.94309232249423 0.8958615833543746 #
point $-1 52.19397564622944 15.537834765379998 0.8958615833543746 #
vertex $-1 $613 $673 #
straight-curve $-1 0 23.943092322494234 8.2578714851824042 -1 0 0 I I #
vertex $-1 $503 $674 #
point $-1 48.001122084664644 17.939336924555494 3.1842479804160937 #
vertex $-1 $507 $675 #
point $-1 48.001122084664644 21.541590163318741 3.1842479804160937 #
coedge $-1 $626 $520 $514 $625 forward $511 $-1 #
edge $-1 $522 -35.148274541613439 $633 -27.786264639785415 $624 $676 forward 7 unknown #
coedge $-1 $515 $624 $517 $628 reversed $511 $-1 #
straight-curve $-1 -52.19397564622944 -8.6353963490225176 36.044136124967821 0 0 -1 I I #
edge $-1 $518 8.6353963490225176 $633 17.04065390613675 $626 $677 forward 7 unknown #
point $-1 -52.19397564622944 -8.6353963490225176 8.2578714851824042 #
straight-curve $-1 -52.19397564622944 -6.419012563789817 0.89586158335437394 0 -1 0 I I #
point $-1 -52.19397564622944 -17.04065390613675 0.89586158335438115 #
point $-1 -52.19397564622944 -8.6353963490225176 0.89586158335438115 #
vertex $-1 $625 $678 #
straight-curve $-1 0 -17.04065390613675 8.2578714851824042 1 0 0 I I #
vertex $-1 $529 $679 #
point $-1 -47.319123733464863 -14.639151746961256 3.9156016902998636 #
vertex $-1 $533 $680 #
point $-1 -47.319123733464863 -11.036898508198012 3.9156016902998636 #
coedge $-1 $539 $643 $541 $641 forward $388 $-1 #
straight-curve $-1 -64.269245545568126 15.537834765379998 8.257871485182406 1 0 0 I I #
edge $-1 $648 -23.943092322494234 $542 -15.537834765379998 $541 $681 forward 7 unknown #
point $-1 -52.19397564622944 15.537834765379998 8.2578714851824042 #
coedge $-1 $639 $544 $547 $645 forward $388 $-1 #
straight-curve $-1 -45.328790515273923 9.8702317719685571 8.2578714851824024 0 1 0 I I #
edge $-1 $548 45.328790515273923 $648 52.19397564622944 $547 $682 forward 7 unknown #
point $-1 -45.328790515273923 23.94309232249423 8.2578714851824042 #
point $-1 -45.328790515273923 15.537834765379998 8.2578714851824042 #
vertex $-1 $645 $683 #
straight-curve $-1 -52.19397564622944 23.943092322494234 0 0 0 -1 I I #
vertex $-1 $555 $684 #
point $-1 -47.319123733464863 17.939336924555494 3.9156016902998636 #
vertex $-1 $559 $685 #
point $-1 -47.319123733464863 21.541590163318741 3.9156016902998636 #
straight-curve $-1 -52.19397564622944 23.943092322494234 0 0 0 -1 I I #
point $-1 -52.19397564622944 -23.943092322494234 -8.2578714851824042 #
straight-curve $-1 -52.19397564622944 0 -8.2578714851824042 0 1 0 I I #
point $-1 -52.19397564622944 23.943092322494234 -8.2578714851824042 #
vertex $-1 $581 $686 #
straight-curve $-1 -52.19397564622944 0 8.2578714851824042 0 -1 0 I I #
edge $-1 $658 -52.19397564622944 $593 52.19397564622944 $589 $687 forward 7 unknown #
straight-curve $-1 52.19397564622944 0 8.2578714851824042 0 1 0 I I #
straight-curve $-1 -52.19397564622944 -23.943092322494234 0 0 0 -1 I I #
point $-1 52.19397564622944 -23.943092322494234 8.2578714851824042 #
straight-curve $-1 52.19397564622944 -17.04065390613675 74.21639384742123 0 0 -1 I I #
straight-curve $-1 0 -17.04065390613675 8.2578714851824042 1 0 0 I I #
point $-1 52.19397564622944 -17.04065390613675 0.8958615833543746 #
straight-curve $-1 52.193975646229433 -6.419012563789817 0.89586158335439592 0 1 0 I I #
point $-1 52.19397564622944 -17.04065390613675 8.2578714851824042 #
point $-1 47.294446054122858 -14.639151746961256 3.2089256597580857 #
point $-1 47.294446054122858 -11.036898508198012 3.2089256597580857 #
straight-curve $-1 52.19397564622944 23.943092322494234 0 0 0 -1 I I #
straight-curve $-1 52.19397564622944 0 8.2578714851824042 0 1 0 I I #
point $-1 52.19397564622944 23.943092322494234 8.2578714851824042 #
point $-1 47.294446054122858 17.939336924555494 3.2089256597580857 #
point $-1 47.294446054122858 21.541590163318741 3.2089256597580857 #
straight-curve $-1 -52.19397564622944 -17.04065390613675 36.044136124967821 0 0 1 I I #
straight-curve $-1 -52.19397564622944 0 8.2578714851824042 0 -1 0 I I #
point $-1 -52.19397564622944 -17.04065390613675 8.2578714851824042 #
point $-1 -47.294446054122872 -14.639151746961256 3.2089256597580786 #
point $-1 -47.294446054122872 -11.036898508198012 3.2089256597580786 #
straight-curve $-1 -52.19397564622944 0 8.2578714851824042 0 -1 0 I I #
straight-curve $-1 0 23.943092322494234 8.2578714851824042 -1 0 0 I I #
point $-1 -52.19397564622944 23.943092322494234 8.2578714851824042 #
point $-1 -47.294446054122872 17.939336924555494 3.2089256597580786 #
point $-1 -47.294446054122872 21.541590163318741 3.2089256597580786 #
point $-1 -52.19397564622944 -23.943092322494234 8.2578714851824042 #
straight-curve $-1 0 -23.943092322494234 8.2578714851824042 1 0 0 I I #
End-of-ACIS-data 