500 0 3 0           
7 Unknown 11 ACIS 5.0 NT 24 Thu Mar 25 16:34:00 1999 
-1 9.9999999999999995e-007 1e-010 
body $-1 $3 $-1 $4 #
body $-1 $5 $-1 $6 #
body $-1 $7 $-1 $8 #
lump $-1 $-1 $9 $0 #
transform $-1 1 0 0 0 1 0 0 0 1 77.250892666402166 33.11837030611747 12.846899551772719 1 rotate no_reflect no_shear #
lump $-1 $-1 $10 $1 #
transform $-1 1 0 0 0 1 0 0 0 1 77.250892666402166 33.11837030611747 12.846899551772719 1 rotate no_reflect no_shear #
lump $-1 $-1 $11 $2 #
transform $-1 1 0 0 0 1 0 0 0 1 77.250892666402166 33.11837030611747 12.846899551772719 1 rotate no_reflect no_shear #
shell $-1 $-1 $-1 $12 $-1 $3 #
shell $-1 $-1 $-1 $13 $-1 $5 #
shell $-1 $-1 $-1 $14 $-1 $7 #
face $-1 $15 $16 $9 $-1 $17 forward single #
face $-1 $18 $19 $10 $-1 $20 forward single #
face $-1 $21 $22 $11 $-1 $23 reversed single #
face $-1 $24 $25 $9 $-1 $26 reversed single #
loop $-1 $-1 $27 $12 #
plane-surface $-1 0 0 12.846899551772719 0 0 1 1 0 0 forward_v I I I I #
face $-1 $28 $29 $10 $-1 $30 forward single #
loop $-1 $-1 $31 $13 #
plane-surface $-1 60.337362923733139 -33.118370306117455 9.836982632762485 0 -0.68199836817093118 0.7313536940579346 1 0 0 forward_v I I I I #
face $-1 $32 $33 $11 $-1 $34 reversed single #
loop $-1 $35 $36 $14 #
cone-surface $-1 60.337362923733139 -30.991788813336207 10.792125691938729 0 0.68199836817093118 -0.7313536940579346 1 0 0 1 I I 0 1 1 forward I I I I #
face $-1 $37 $38 $9 $-1 $39 reversed single #
loop $-1 $-1 $40 $15 #
plane-surface $-1 0 0 -12.846899551772719 0 0 1 1 0 0 forward_v I I I I #
coedge $-1 $41 $42 $43 $44 forward $16 $-1 #
face $-1 $45 $46 $10 $-1 $47 forward single #
loop $-1 $-1 $48 $18 #
plane-surface $-1 43.423833181064118 -138.48833578258552 122.83243407445495 1 0 0 0 0.68199836817093118 -0.7313536940579346 forward_v I I I I #
coedge $-1 $49 $50 $51 $52 reversed $19 $-1 #
face $-1 $53 $54 $11 $-1 $55 forward single #
loop $-1 $56 $57 $21 #
cone-surface $-1 60.337362923733139 -30.138078462456754 9.8766334445808894 0 0.68199836817093118 -0.7313536940579346 0.5 0 0 1 I I -0.70710678118654746 0.70710678118654746 0.5 forward I I I I #
loop $-1 $-1 $58 $14 #
coedge $-1 $36 $36 $59 $60 reversed $22 $-1 #
face $-1 $61 $62 $9 $-1 $63 reversed single #
loop $-1 $-1 $64 $24 #
plane-surface $-1 0 -33.11837030611747 0 0 1 0 0 0 1 forward_v I I I I #
coedge $-1 $65 $66 $67 $68 forward $25 $-1 #
coedge $-1 $69 $27 $70 $71 forward $16 $-1 #
coedge $-1 $27 $69 $72 $73 forward $16 $-1 #
coedge $-1 $74 $75 $27 $44 reversed $76 $-1 #
edge $-1 $77 -33.11837030611747 $78 33.11837030611747 $43 $79 forward 7 unknown #
face $-1 $80 $81 $10 $-1 $82 reversed single #
loop $-1 $-1 $83 $28 #
plane-surface $-1 0 0 12.846899551772719 0 0 1 1 0 0 forward_v I I I I #
coedge $-1 $84 $85 $83 $86 reversed $29 $-1 #
coedge $-1 $87 $31 $85 $88 reversed $19 $-1 #
coedge $-1 $31 $87 $89 $90 reversed $19 $-1 #
coedge $-1 $91 $83 $31 $52 forward $46 $-1 #
edge $-1 $92 13.255151719197549 $93 47.082211204535596 $51 $94 forward 7 unknown #
face $-1 $95 $96 $11 $-1 $97 forward single #
loop $-1 $98 $59 $32 #
plane-surface $-1 60.337362923733139 -33.118370306117455 9.836982632762485 0 -0.68199836817093118 0.7313536940579346 1 0 0 forward_v I I I I #
loop $-1 $-1 $99 $21 #
coedge $-1 $57 $57 $58 $100 forward $33 $-1 #
coedge $-1 $58 $58 $57 $100 reversed $35 $-1 #
coedge $-1 $59 $59 $36 $60 forward $54 $-1 #
edge $-1 $101 2.7736356143213148e-015 $101 6.2831853071796031 $59 $102 forward 7 unknown #
face $-1 $103 $104 $9 $-1 $105 reversed single #
loop $-1 $-1 $106 $37 #
plane-surface $-1 -77.250892666402166 0 0 1 0 0 0 0 -1 forward_v I I I I #
coedge $-1 $107 $72 $108 $109 forward $38 $-1 #
coedge $-1 $110 $40 $107 $111 forward $25 $-1 #
coedge $-1 $40 $110 $112 $113 forward $25 $-1 #
coedge $-1 $75 $74 $40 $68 reversed $76 $-1 #
edge $-1 $114 -33.11837030611747 $115 33.11837030611747 $67 $116 forward 7 unknown #
coedge $-1 $42 $41 $117 $118 forward $16 $-1 #
coedge $-1 $119 $120 $41 $71 reversed $104 $-1 #
edge $-1 $78 -77.250892666402166 $121 77.250892666402166 $70 $122 forward 7 unknown #
coedge $-1 $64 $123 $42 $73 reversed $38 $-1 #
edge $-1 $124 -77.250892666402166 $77 77.250892666402166 $72 $125 forward 7 unknown #
coedge $-1 $67 $43 $123 $126 forward $76 $-1 #
coedge $-1 $43 $67 $119 $127 reversed $76 $-1 #
loop $-1 $-1 $74 $103 #
vertex $-1 $44 $128 #
vertex $-1 $44 $129 #
straight-curve $-1 77.250892666402166 0 12.846899551772719 0 1 0 I I #
face $-1 $130 $131 $10 $-1 $132 reversed single #
loop $-1 $-1 $89 $45 #
plane-surface $-1 77.250892666402166 0 0 -1 0 0 0 0 1 forward_v I I I I #
coedge $-1 $51 $133 $48 $86 forward $46 $-1 #
coedge $-1 $85 $48 $134 $135 reversed $29 $-1 #
coedge $-1 $48 $84 $49 $88 forward $29 $-1 #
edge $-1 $136 36.125797585175292 $92 39.353538237149841 $83 $137 forward 7 unknown #
coedge $-1 $50 $49 $138 $139 reversed $19 $-1 #
edge $-1 $140 -1.8873468352005311e-014 $92 4.4133784763775985 $85 $141 forward 7 unknown #
coedge $-1 $142 $143 $50 $90 forward $81 $-1 #
edge $-1 $93 4.3428397042663054 $144 8.7562181806439234 $89 $145 forward 7 unknown #
coedge $-1 $146 $51 $143 $147 forward $46 $-1 #
vertex $-1 $52 $148 #
vertex $-1 $147 $149 #
straight-curve $-1 30.168681461866569 -29.89062965414292 12.846899551772719 1 0 0 I I #
face $-1 $150 $151 $11 $-1 $152 forward single #
loop $-1 $-1 $153 $53 #
plane-surface $-1 43.423833181064118 -138.48833578258552 122.83243407445495 1 0 0 0 0.68199836817093118 -0.7313536940579346 forward_v I I I I #
loop $-1 $-1 $154 $32 #
coedge $-1 $99 $99 $-1 $155 forward $56 $-1 #
edge $-1 $156 0 $156 6.2831853071796004 $57 $157 forward 7 unknown #
vertex $-1 $60 $158 #
ellipse-curve $-1 60.337362923733139 -31.504499980130191 11.341941092267597 0 0.68199836817093118 -0.7313536940579346 1 0 0 1 I I #
face $-1 $-1 $76 $9 $-1 $159 reversed single #
loop $-1 $-1 $119 $61 #
plane-surface $-1 0 33.11837030611747 0 0 -1 0 0 0 -1 forward_v I I I I #
coedge $-1 $160 $117 $120 $161 forward $62 $-1 #
coedge $-1 $123 $64 $65 $111 reversed $38 $-1 #
coedge $-1 $117 $160 $64 $109 reversed $62 $-1 #
edge $-1 $124 -12.846899551772719 $162 12.846899551772719 $108 $163 forward 7 unknown #
coedge $-1 $66 $65 $160 $164 forward $25 $-1 #
edge $-1 $115 -77.250892666402166 $162 77.250892666402166 $107 $165 forward 7 unknown #
coedge $-1 $120 $119 $66 $113 reversed $104 $-1 #
edge $-1 $166 -77.250892666402166 $114 77.250892666402166 $112 $167 forward 7 unknown #
vertex $-1 $68 $168 #
vertex $-1 $126 $169 #
straight-curve $-1 77.250892666402166 0 -12.846899551772719 0 -1 0 I I #
coedge $-1 $106 $108 $69 $118 reversed $62 $-1 #
edge $-1 $121 -33.11837030611747 $124 33.11837030611747 $117 $170 forward 7 unknown #
coedge $-1 $112 $70 $75 $127 forward $104 $-1 #
coedge $-1 $70 $112 $106 $161 reversed $104 $-1 #
vertex $-1 $71 $171 #
straight-curve $-1 0 33.11837030611747 12.846899551772719 -1 0 0 I I #
coedge $-1 $72 $107 $74 $126 reversed $38 $-1 #
vertex $-1 $118 $172 #
straight-curve $-1 0 -33.11837030611747 12.846899551772719 1 0 0 I I #
edge $-1 $77 -12.846899551772719 $115 12.846899551772719 $74 $173 forward 7 unknown #
edge $-1 $78 -12.846899551772719 $114 12.846899551772719 $75 $174 forward 7 unknown #
point $-1 77.250892666402166 -33.11837030611747 12.846899551772719 #
point $-1 77.250892666402166 33.11837030611747 12.846899551772719 #
face $-1 $175 $176 $10 $-1 $177 reversed single #
loop $-1 $-1 $178 $80 #
plane-surface $-1 0 0 -12.846899551772719 0 0 1 1 0 0 forward_v I I I I #
coedge $-1 $83 $179 $180 $181 forward $46 $-1 #
coedge $-1 $180 $138 $84 $135 forward $176 $-1 #
edge $-1 $140 -51.579234404465005 $136 -48.569317485454761 $134 $182 forward 7 unknown #
vertex $-1 $135 $183 #
straight-curve $-1 43.423833181064118 -69.244167891292761 12.846899551772722 0 1 0 I I #
coedge $-1 $134 $184 $87 $139 forward $176 $-1 #
edge $-1 $144 -47.082211204535596 $140 -13.255151719197549 $138 $185 forward 7 unknown #
vertex $-1 $139 $186 #
straight-curve $-1 43.423833181064118 -33.118370306117455 9.836982632762485 0 0.7313536940579346 0.68199836817093118 I I #
coedge $-1 $187 $89 $184 $188 forward $81 $-1 #
coedge $-1 $89 $189 $91 $147 reversed $81 $-1 #
vertex $-1 $188 $190 #
straight-curve $-1 77.250892666402166 -26.714477793726289 15.808709143310267 0 -0.7313536940579346 -0.68199836817093118 I I #
coedge $-1 $179 $91 $191 $192 forward $46 $-1 #
edge $-1 $93 -29.89062965414292 $193 33.11837030611747 $143 $194 forward 7 unknown #
point $-1 43.423833181064118 -29.89062965414292 12.846899551772719 #
point $-1 77.250892666402166 -29.89062965414292 12.846899551772719 #
face $-1 $195 $196 $11 $-1 $197 reversed single #
loop $-1 $-1 $198 $95 #
plane-surface $-1 0 0 12.846899551772719 0 0 1 1 0 0 forward_v I I I I #
coedge $-1 $199 $200 $198 $201 reversed $96 $-1 #
coedge $-1 $202 $203 $204 $205 reversed $98 $-1 #
edge $-1 $206 1 $206 0 $99 $-1 forward 7 unknown #
vertex $-1 $100 $207 #
ellipse-curve $-1 60.337362923733139 -30.479077646542219 10.242310291609856 0 -0.68199836817093118 0.7313536940579346 1 0 0 1 I I #
point $-1 61.337362923733139 -31.504499980130198 11.3419410922676 #
plane-surface $-1 77.250892666402166 0 0 -1 0 0 0 0 1 forward_v I I I I #
coedge $-1 $108 $106 $110 $164 reversed $62 $-1 #
edge $-1 $121 -12.846899551772719 $166 12.846899551772719 $120 $208 forward 7 unknown #
vertex $-1 $164 $209 #
straight-curve $-1 -77.250892666402166 -33.11837030611747 0 0 0 -1 I I #
edge $-1 $162 -33.11837030611747 $166 33.11837030611747 $160 $210 forward 7 unknown #
straight-curve $-1 0 -33.11837030611747 -12.846899551772719 -1 0 0 I I #
vertex $-1 $113 $211 #
straight-curve $-1 0 33.11837030611747 -12.846899551772719 1 0 0 I I #
point $-1 77.250892666402166 33.11837030611747 -12.846899551772719 #
point $-1 77.250892666402166 -33.11837030611747 -12.846899551772719 #
straight-curve $-1 -77.250892666402166 0 12.846899551772719 0 -1 0 I I #
point $-1 -77.250892666402166 33.11837030611747 12.846899551772719 #
point $-1 -77.250892666402166 -33.11837030611747 12.846899551772719 #
straight-curve $-1 77.250892666402166 -33.11837030611747 0 0 0 -1 I I #
straight-curve $-1 77.250892666402166 33.11837030611747 0 0 0 -1 I I #
face $-1 $212 $213 $10 $-1 $214 reversed single #
loop $-1 $-1 $134 $130 #
plane-surface $-1 0 -33.11837030611747 0 0 1 0 0 0 1 forward_v I I I I #
coedge $-1 $215 $216 $187 $217 forward $131 $-1 #
coedge $-1 $133 $146 $218 $219 forward $46 $-1 #
coedge $-1 $220 $134 $133 $181 reversed $176 $-1 #
edge $-1 $221 -77.250892666402166 $136 43.423833181064118 $180 $222 forward 7 unknown #
straight-curve $-1 43.423833181064118 -33.11837030611747 61.416217037227476 0 0 1 I I #
point $-1 43.423833181064118 -33.11837030611747 12.846899551772719 #
coedge $-1 $138 $223 $142 $188 reversed $176 $-1 #
straight-curve $-1 30.168681461866569 -33.11837030611747 9.8369826327624725 -1 0 0 I I #
point $-1 43.423833181064118 -33.11837030611747 9.8369826327624725 #
coedge $-1 $189 $142 $178 $217 reversed $81 $-1 #
edge $-1 $144 -9.8369826327624725 $224 12.846899551772719 $142 $225 forward 7 unknown #
coedge $-1 $143 $187 $226 $227 reversed $81 $-1 #
point $-1 77.250892666402166 -33.11837030611747 9.8369826327624725 #
coedge $-1 $226 $228 $146 $192 reversed $229 $-1 #
edge $-1 $193 -77.250892666402166 $230 77.250892666402166 $191 $231 forward 7 unknown #
vertex $-1 $147 $232 #
straight-curve $-1 77.250892666402166 0 12.846899551772719 0 1 0 I I #
face $-1 $233 $234 $11 $-1 $235 reversed single #
loop $-1 $-1 $236 $150 #
plane-surface $-1 77.250892666402166 0 0 -1 0 0 0 0 1 forward_v I I I I #
coedge $-1 $204 $237 $153 $201 forward $151 $-1 #
coedge $-1 $200 $153 $238 $239 reversed $96 $-1 #
coedge $-1 $153 $199 $202 $240 forward $96 $-1 #
edge $-1 $241 36.125797585175292 $242 39.353538237149841 $198 $243 forward 7 unknown #
coedge $-1 $244 $154 $200 $240 reversed $98 $-1 #
coedge $-1 $154 $244 $236 $245 reversed $98 $-1 #
coedge $-1 $246 $198 $154 $205 forward $151 $-1 #
edge $-1 $242 13.255151719197549 $247 47.082211204535596 $204 $248 forward 7 unknown #
vertex $-1 $155 $249 #
point $-1 61.337362923733139 -30.479077646542219 10.242310291609856 #
straight-curve $-1 -77.250892666402166 33.11837030611747 0 0 0 -1 I I #
point $-1 -77.250892666402166 -33.11837030611747 -12.846899551772719 #
straight-curve $-1 -77.250892666402166 0 -12.846899551772719 0 1 0 I I #
point $-1 -77.250892666402166 33.11837030611747 -12.846899551772719 #
face $-1 $-1 $229 $10 $-1 $250 reversed single #
loop $-1 $-1 $251 $175 #
plane-surface $-1 -77.250892666402166 0 0 1 0 0 0 0 -1 forward_v I I I I #
coedge $-1 $252 $178 $223 $253 forward $131 $-1 #
coedge $-1 $178 $252 $254 $255 forward $131 $-1 #
edge $-1 $256 -33.11837030611747 $224 33.11837030611747 $187 $257 forward 7 unknown #
coedge $-1 $251 $258 $179 $219 reversed $213 $-1 #
edge $-1 $230 -33.11837030611747 $221 33.11837030611747 $218 $259 forward 7 unknown #
coedge $-1 $223 $180 $258 $260 forward $176 $-1 #
vertex $-1 $219 $261 #
straight-curve $-1 0 -33.11837030611747 12.846899551772719 1 0 0 I I #
coedge $-1 $184 $220 $215 $253 reversed $176 $-1 #
vertex $-1 $188 $262 #
straight-curve $-1 77.250892666402166 -33.11837030611747 0 0 0 -1 I I #
coedge $-1 $254 $191 $189 $227 forward $229 $-1 #
edge $-1 $193 -12.846899551772719 $256 12.846899551772719 $189 $263 forward 7 unknown #
coedge $-1 $191 $254 $251 $264 reversed $229 $-1 #
loop $-1 $-1 $226 $212 #
vertex $-1 $192 $265 #
straight-curve $-1 0 33.11837030611747 12.846899551772719 -1 0 0 I I #
point $-1 77.250892666402166 33.11837030611747 12.846899551772719 #
face $-1 $266 $267 $11 $-1 $268 reversed single #
loop $-1 $-1 $269 $195 #
plane-surface $-1 0 0 -12.846899551772719 0 0 1 1 0 0 forward_v I I I I #
coedge $-1 $270 $271 $203 $245 forward $196 $-1 #
coedge $-1 $198 $272 $273 $274 forward $151 $-1 #
coedge $-1 $273 $275 $199 $239 forward $267 $-1 #
edge $-1 $276 -51.579234404465005 $241 -48.569317485454761 $238 $277 forward 7 unknown #
edge $-1 $276 -1.8873468352005311e-014 $242 4.4133784763775985 $200 $278 forward 7 unknown #
vertex $-1 $239 $279 #
vertex $-1 $205 $280 #
straight-curve $-1 43.423833181064118 -69.244167891292761 12.846899551772722 0 1 0 I I #
coedge $-1 $203 $202 $275 $281 reversed $98 $-1 #
edge $-1 $247 4.3428397042663054 $282 8.7562181806439234 $236 $283 forward 7 unknown #
coedge $-1 $284 $204 $271 $285 forward $151 $-1 #
vertex $-1 $285 $286 #
straight-curve $-1 30.168681461866569 -29.89062965414292 12.846899551772719 1 0 0 I I #
point $-1 60.337362923733139 -29.797079278371289 9.5109565975519228 #
plane-surface $-1 0 33.11837030611747 0 0 -1 0 0 0 -1 forward_v I I I I #
coedge $-1 $287 $218 $228 $264 forward $213 $-1 #
coedge $-1 $216 $215 $287 $288 forward $131 $-1 #
edge $-1 $224 -77.250892666402166 $289 77.250892666402166 $223 $290 forward 7 unknown #
coedge $-1 $228 $226 $216 $255 reversed $229 $-1 #
edge $-1 $291 -77.250892666402166 $256 77.250892666402166 $254 $292 forward 7 unknown #
vertex $-1 $217 $293 #
straight-curve $-1 77.250892666402166 0 -12.846899551772719 0 -1 0 I I #
coedge $-1 $218 $287 $220 $260 reversed $213 $-1 #
straight-curve $-1 -77.250892666402166 0 12.846899551772719 0 -1 0 I I #
edge $-1 $221 -12.846899551772719 $289 12.846899551772719 $258 $294 forward 7 unknown #
point $-1 -77.250892666402166 -33.11837030611747 12.846899551772719 #
point $-1 77.250892666402166 -33.11837030611747 -12.846899551772719 #
straight-curve $-1 77.250892666402166 33.11837030611747 0 0 0 -1 I I #
edge $-1 $230 -12.846899551772719 $291 12.846899551772719 $228 $295 forward 7 unknown #
point $-1 -77.250892666402166 33.11837030611747 12.846899551772719 #
face $-1 $296 $297 $11 $-1 $298 reversed single #
loop $-1 $-1 $238 $233 #
plane-surface $-1 0 -33.11837030611747 0 0 1 0 0 0 1 forward_v I I I I #
coedge $-1 $299 $300 $301 $302 forward $234 $-1 #
coedge $-1 $301 $236 $303 $304 forward $196 $-1 #
coedge $-1 $236 $305 $246 $285 reversed $196 $-1 #
coedge $-1 $237 $284 $306 $307 forward $151 $-1 #
coedge $-1 $308 $238 $237 $274 reversed $267 $-1 #
edge $-1 $309 -77.250892666402166 $241 43.423833181064118 $273 $310 forward 7 unknown #
coedge $-1 $238 $303 $244 $281 forward $267 $-1 #
vertex $-1 $281 $311 #
straight-curve $-1 43.423833181064118 -33.11837030611747 61.416217037227476 0 0 1 I I #
straight-curve $-1 43.423833181064118 -33.118370306117455 9.836982632762485 0 0.7313536940579346 0.68199836817093118 I I #
point $-1 43.423833181064118 -33.11837030611747 12.846899551772719 #
point $-1 43.423833181064118 -29.89062965414292 12.846899551772719 #
edge $-1 $282 -47.082211204535596 $276 -13.255151719197549 $275 $312 forward 7 unknown #
vertex $-1 $304 $313 #
straight-curve $-1 77.250892666402166 -26.714477793726289 15.808709143310267 0 -0.7313536940579346 -0.68199836817093118 I I #
coedge $-1 $272 $246 $314 $315 forward $151 $-1 #
edge $-1 $247 -29.89062965414292 $316 33.11837030611747 $271 $317 forward 7 unknown #
point $-1 77.250892666402166 -29.89062965414292 12.846899551772719 #
coedge $-1 $258 $251 $252 $288 reversed $213 $-1 #
edge $-1 $289 -33.11837030611747 $291 33.11837030611747 $287 $318 forward 7 unknown #
vertex $-1 $288 $319 #
straight-curve $-1 0 -33.11837030611747 -12.846899551772719 -1 0 0 I I #
vertex $-1 $255 $320 #
straight-curve $-1 0 33.11837030611747 -12.846899551772719 1 0 0 I I #
point $-1 77.250892666402166 33.11837030611747 -12.846899551772719 #
straight-curve $-1 -77.250892666402166 -33.11837030611747 0 0 0 -1 I I #
straight-curve $-1 -77.250892666402166 33.11837030611747 0 0 0 -1 I I #
face $-1 $-1 $321 $11 $-1 $322 reversed single #
loop $-1 $-1 $323 $266 #
plane-surface $-1 -77.250892666402166 0 0 1 0 0 0 0 -1 forward_v I I I I #
coedge $-1 $324 $269 $325 $326 forward $234 $-1 #
coedge $-1 $269 $324 $327 $328 forward $234 $-1 #
coedge $-1 $305 $270 $269 $302 reversed $196 $-1 #
edge $-1 $329 -33.11837030611747 $330 33.11837030611747 $301 $331 forward 7 unknown #
coedge $-1 $275 $325 $270 $304 reversed $267 $-1 #
edge $-1 $282 -9.8369826327624725 $330 12.846899551772719 $270 $332 forward 7 unknown #
coedge $-1 $271 $301 $333 $334 reversed $196 $-1 #
coedge $-1 $323 $335 $272 $307 reversed $297 $-1 #
edge $-1 $336 -33.11837030611747 $309 33.11837030611747 $306 $337 forward 7 unknown #
coedge $-1 $325 $273 $335 $338 forward $267 $-1 #
vertex $-1 $307 $339 #
straight-curve $-1 0 -33.11837030611747 12.846899551772719 1 0 0 I I #
point $-1 43.423833181064118 -33.11837030611747 9.8369826327624725 #
straight-curve $-1 30.168681461866569 -33.11837030611747 9.8369826327624725 -1 0 0 I I #
point $-1 77.250892666402166 -33.11837030611747 9.8369826327624725 #
coedge $-1 $333 $340 $284 $315 reversed $321 $-1 #
edge $-1 $316 -77.250892666402166 $336 77.250892666402166 $314 $341 forward 7 unknown #
vertex $-1 $285 $342 #
straight-curve $-1 77.250892666402166 0 12.846899551772719 0 1 0 I I #
straight-curve $-1 -77.250892666402166 0 -12.846899551772719 0 1 0 I I #
point $-1 -77.250892666402166 -33.11837030611747 -12.846899551772719 #
point $-1 -77.250892666402166 33.11837030611747 -12.846899551772719 #
loop $-1 $-1 $333 $296 #
plane-surface $-1 0 33.11837030611747 0 0 -1 0 0 0 -1 forward_v I I I I #
coedge $-1 $343 $306 $340 $344 forward $297 $-1 #
coedge $-1 $300 $299 $343 $345 forward $234 $-1 #
coedge $-1 $303 $308 $299 $326 reversed $267 $-1 #
edge $-1 $330 -77.250892666402166 $346 77.250892666402166 $325 $347 forward 7 unknown #
coedge $-1 $340 $333 $300 $328 reversed $321 $-1 #
edge $-1 $348 -77.250892666402166 $329 77.250892666402166 $327 $349 forward 7 unknown #
vertex $-1 $302 $350 #
vertex $-1 $304 $351 #
straight-curve $-1 77.250892666402166 0 -12.846899551772719 0 -1 0 I I #
straight-curve $-1 77.250892666402166 -33.11837030611747 0 0 0 -1 I I #
coedge $-1 $327 $314 $305 $334 forward $321 $-1 #
edge $-1 $316 -12.846899551772719 $329 12.846899551772719 $305 $352 forward 7 unknown #
coedge $-1 $306 $343 $308 $338 reversed $297 $-1 #
vertex $-1 $315 $353 #
straight-curve $-1 -77.250892666402166 0 12.846899551772719 0 -1 0 I I #
edge $-1 $309 -12.846899551772719 $346 12.846899551772719 $335 $354 forward 7 unknown #
point $-1 -77.250892666402166 -33.11837030611747 12.846899551772719 #
coedge $-1 $314 $327 $323 $344 reversed $321 $-1 #
straight-curve $-1 0 33.11837030611747 12.846899551772719 -1 0 0 I I #
point $-1 77.250892666402166 33.11837030611747 12.846899551772719 #
coedge $-1 $335 $323 $324 $345 reversed $297 $-1 #
edge $-1 $336 -12.846899551772719 $348 12.846899551772719 $340 $355 forward 7 unknown #
edge $-1 $346 -33.11837030611747 $348 33.11837030611747 $343 $356 forward 7 unknown #
vertex $-1 $345 $357 #
straight-curve $-1 0 -33.11837030611747 -12.846899551772719 -1 0 0 I I #
vertex $-1 $328 $358 #
straight-curve $-1 0 33.11837030611747 -12.846899551772719 1 0 0 I I #
point $-1 77.250892666402166 33.11837030611747 -12.846899551772719 #
point $-1 77.250892666402166 -33.11837030611747 -12.846899551772719 #
straight-curve $-1 77.250892666402166 33.11837030611747 0 0 0 -1 I I #
point $-1 -77.250892666402166 33.11837030611747 12.846899551772719 #
straight-curve $-1 -77.250892666402166 -33.11837030611747 0 0 0 -1 I I #
straight-curve $-1 -77.250892666402166 33.11837030611747 0 0 0 -1 I I #
straight-curve $-1 -77.250892666402166 0 -12.846899551772719 0 1 0 I I #
point $-1 -77.250892666402166 -33.11837030611747 -12.846899551772719 #
point $-1 -77.250892666402166 33.11837030611747 -12.846899551772719 #
End-of-ACIS-data 