500 0 17 0           
7 Unknown 11 ACIS 5.0 NT 24 Thu Mar 25 19:33:09 1999 
-1 9.9999999999999995e-007 1e-010 
body $-1 $17 $-1 $18 #
body $-1 $19 $-1 $20 #
body $-1 $21 $-1 $22 #
body $-1 $23 $-1 $24 #
body $-1 $25 $-1 $26 #
body $-1 $27 $-1 $28 #
body $-1 $29 $-1 $30 #
body $-1 $31 $-1 $32 #
body $-1 $33 $-1 $34 #
body $-1 $35 $-1 $36 #
body $-1 $37 $-1 $38 #
body $-1 $39 $-1 $40 #
body $-1 $41 $-1 $42 #
body $-1 $43 $-1 $44 #
body $-1 $45 $-1 $46 #
body $-1 $47 $-1 $48 #
body $-1 $49 $-1 $50 #
lump $-1 $-1 $51 $0 #
transform $-1 1 0 0 0 1 0 0 0 1 51.548203985717336 26.827342221394627 9.3602182891420096 1 rotate no_reflect no_shear #
lump $-1 $-1 $52 $1 #
transform $-1 1 0 0 0 1 0 0 0 1 51.548203985717336 26.827342221394627 9.3602182891420096 1 rotate no_reflect no_shear #
lump $-1 $-1 $53 $2 #
transform $-1 1 0 0 0 1 0 0 0 1 51.548203985717336 26.827342221394627 9.3602182891420096 1 rotate no_reflect no_shear #
lump $-1 $-1 $54 $3 #
transform $-1 1 0 0 0 1 0 0 0 1 51.548203985717336 26.827342221394627 9.3602182891420096 1 rotate no_reflect no_shear #
lump $-1 $-1 $55 $4 #
transform $-1 1 0 0 0 1 0 0 0 1 51.548203985717336 26.827342221394627 9.3602182891420096 1 rotate no_reflect no_shear #
lump $-1 $-1 $56 $5 #
transform $-1 1 0 0 0 1 0 0 0 1 51.548203985717336 26.827342221394627 9.3602182891420096 1 rotate no_reflect no_shear #
lump $-1 $-1 $57 $6 #
transform $-1 1 0 0 0 1 0 0 0 1 51.548203985717336 26.827342221394627 9.3602182891420096 1 rotate no_reflect no_shear #
lump $-1 $-1 $58 $7 #
transform $-1 1 0 0 0 1 0 0 0 1 51.548203985717336 26.827342221394627 9.3602182891420096 1 rotate no_reflect no_shear #
lump $-1 $-1 $59 $8 #
transform $-1 1 0 0 0 1 0 0 0 1 51.548203985717336 26.827342221394627 9.3602182891420096 1 rotate no_reflect no_shear #
lump $-1 $-1 $60 $9 #
transform $-1 1 0 0 0 1 0 0 0 1 51.548203985717336 26.827342221394627 9.3602182891420096 1 rotate no_reflect no_shear #
lump $-1 $-1 $61 $10 #
transform $-1 1 0 0 0 1 0 0 0 1 51.548203985717336 26.827342221394627 9.3602182891420096 1 rotate no_reflect no_shear #
lump $-1 $-1 $62 $11 #
transform $-1 1 0 0 0 1 0 0 0 1 51.548203985717336 26.827342221394627 9.3602182891420096 1 rotate no_reflect no_shear #
lump $-1 $-1 $63 $12 #
transform $-1 1 0 0 0 1 0 0 0 1 51.548203985717336 26.827342221394627 9.3602182891420096 1 rotate no_reflect no_shear #
lump $-1 $-1 $64 $13 #
transform $-1 1 0 0 0 1 0 0 0 1 51.548203985717336 26.827342221394627 9.3602182891420096 1 rotate no_reflect no_shear #
lump $-1 $-1 $65 $14 #
transform $-1 1 0 0 0 1 0 0 0 1 51.548203985717336 26.827342221394627 9.3602182891420096 1 rotate no_reflect no_shear #
lump $-1 $-1 $66 $15 #
transform $-1 1 0 0 0 1 0 0 0 1 51.548203985717336 26.827342221394627 9.3602182891420096 1 rotate no_reflect no_shear #
lump $-1 $-1 $67 $16 #
transform $-1 1 0 0 0 1 0 0 0 1 51.548203985717336 26.827342221394627 9.3602182891420096 1 rotate no_reflect no_shear #
shell $-1 $-1 $-1 $68 $-1 $17 #
shell $-1 $-1 $-1 $69 $-1 $19 #
shell $-1 $-1 $-1 $70 $-1 $21 #
shell $-1 $-1 $-1 $71 $-1 $23 #
shell $-1 $-1 $-1 $72 $-1 $25 #
shell $-1 $-1 $-1 $73 $-1 $27 #
shell $-1 $-1 $-1 $74 $-1 $29 #
shell $-1 $-1 $-1 $75 $-1 $31 #
shell $-1 $-1 $-1 $76 $-1 $33 #
shell $-1 $-1 $-1 $77 $-1 $35 #
shell $-1 $-1 $-1 $78 $-1 $37 #
shell $-1 $-1 $-1 $79 $-1 $39 #
shell $-1 $-1 $-1 $80 $-1 $41 #
shell $-1 $-1 $-1 $81 $-1 $43 #
shell $-1 $-1 $-1 $82 $-1 $45 #
shell $-1 $-1 $-1 $83 $-1 $47 #
shell $-1 $-1 $-1 $84 $-1 $49 #
face $-1 $85 $86 $51 $-1 $87 forward single #
face $-1 $88 $89 $52 $-1 $90 forward single #
face $-1 $91 $92 $53 $-1 $93 forward single #
face $-1 $94 $95 $54 $-1 $96 reversed single #
face $-1 $97 $98 $55 $-1 $99 forward single #
face $-1 $100 $101 $56 $-1 $102 forward single #
face $-1 $103 $104 $57 $-1 $105 forward single #
face $-1 $106 $107 $58 $-1 $108 reversed single #
face $-1 $109 $110 $59 $-1 $111 forward single #
face $-1 $112 $113 $60 $-1 $114 forward single #
face $-1 $115 $116 $61 $-1 $117 forward single #
face $-1 $118 $119 $62 $-1 $120 reversed single #
face $-1 $121 $122 $63 $-1 $123 forward single #
face $-1 $124 $125 $64 $-1 $126 forward single #
face $-1 $127 $128 $65 $-1 $129 reversed single #
face $-1 $130 $131 $66 $-1 $132 forward single #
face $-1 $133 $134 $67 $-1 $135 forward single #
face $-1 $136 $137 $51 $-1 $138 reversed single #
loop $-1 $-1 $139 $68 #
plane-surface $-1 0 0 9.3602182891420096 0 0 1 1 0 0 forward_v I I I I #
face $-1 $140 $141 $52 $-1 $142 reversed single #
loop $-1 $-1 $143 $69 #
plane-surface $-1 -46.464908730191382 0 -1.1384562288048854 0 0 1 1 0 0 forward_v I I I I #
face $-1 $144 $145 $53 $-1 $146 reversed single #
loop $-1 $-1 $147 $70 #
plane-surface $-1 46.464908730191382 0 -1.1384562288048854 0 0 1 1 0 0 forward_v I I I I #
face $-1 $148 $149 $54 $-1 $150 reversed single #
loop $-1 $-1 $151 $71 #
plane-surface $-1 -15.29577338994771 71.31520767617009 110.85863347645308 -1 0 0 0 0.7660444514056185 0.64278759981090561 forward_v I I I I #
face $-1 $152 $153 $55 $-1 $154 forward single #
loop $-1 $155 $156 $72 #
cone-surface $-1 -28.746218537522303 23.434340678295229 5.644273354052106 0 -0.7660444514056185 -0.64278759981090561 1.5 0 0 1 I I 0 1 1.5 forward I I I I #
face $-1 $157 $158 $56 $-1 $159 forward single #
loop $-1 $160 $161 $73 #
cone-surface $-1 -23.70230160718183 23.434340678295229 5.644273354052106 0 -0.7660444514056185 -0.64278759981090561 1.5 0 0 1 I I 0 1 1.5 forward I I I I #
face $-1 $162 $163 $57 $-1 $164 forward single #
loop $-1 $165 $166 $74 #
cone-surface $-1 -18.658384676841358 23.434340678295229 5.644273354052106 0 -0.7660444514056185 -0.64278759981090561 1.5 0 0 1 I I 0 1 1.5 forward I I I I #
face $-1 $167 $168 $58 $-1 $169 reversed single #
loop $-1 $-1 $170 $75 #
plane-surface $-1 32.108829824415956 71.31520767617009 110.85863347645308 -1 0 0 0 0.7660444514056185 0.64278759981090561 forward_v I I I I #
face $-1 $171 $172 $59 $-1 $173 forward single #
loop $-1 $174 $175 $76 #
cone-surface $-1 18.658384676841365 23.434340678295229 5.644273354052106 0 -0.7660444514056185 -0.64278759981090561 1.5 0 0 1 I I 0 1 1.5 forward I I I I #
face $-1 $176 $177 $60 $-1 $178 forward single #
loop $-1 $179 $180 $77 #
cone-surface $-1 23.702301607181838 23.434340678295229 5.644273354052106 0 -0.7660444514056185 -0.64278759981090561 1.5 0 0 1 I I 0 1 1.5 forward I I I I #
face $-1 $181 $182 $61 $-1 $183 forward single #
loop $-1 $184 $185 $78 #
cone-surface $-1 28.74621853752231 23.434340678295229 5.644273354052106 0 -0.7660444514056185 -0.64278759981090561 1.5 0 0 1 I I 0 1 1.5 forward I I I I #
face $-1 $186 $187 $62 $-1 $188 reversed single #
loop $-1 $-1 $189 $79 #
plane-surface $-1 -41.381613474665428 -115.19821276210099 57.413708666487125 1 0 0 0 0.85716730853699208 -0.51503806187062418 forward_v I I I I #
face $-1 $190 $191 $63 $-1 $192 forward single #
loop $-1 $193 $194 $80 #
cone-surface $-1 -37.451236109510234 -23.867355772626333 5.9698591967277173 0 0.85716730853699208 -0.51503806187062418 1 0 0 1 I I 0 1 1 forward I I I I #
face $-1 $195 $196 $64 $-1 $197 forward single #
loop $-1 $198 $199 $81 #
cone-surface $-1 -31.555670061777448 -23.867355772626333 5.9698591967277173 0 0.85716730853699208 -0.51503806187062418 1 0 0 1 I I 0 1 1 forward I I I I #
face $-1 $200 $201 $65 $-1 $202 reversed single #
loop $-1 $-1 $203 $82 #
plane-surface $-1 0 -115.19821276210099 57.413708666487125 1 0 0 0 0.85716730853699208 -0.51503806187062418 forward_v I I I I #
face $-1 $204 $205 $66 $-1 $206 forward single #
loop $-1 $207 $208 $83 #
cone-surface $-1 3.930377365155195 -23.867355772626333 5.9698591967277173 0 0.85716730853699208 -0.51503806187062418 1 0 0 1 I I 0 1 1 forward I I I I #
face $-1 $209 $210 $67 $-1 $211 forward single #
loop $-1 $212 $213 $84 #
cone-surface $-1 9.8259434128879803 -23.867355772626333 5.9698591967277173 0 0.85716730853699208 -0.51503806187062418 1 0 0 1 I I 0 1 1 forward I I I I #
face $-1 $214 $215 $51 $-1 $216 reversed single #
loop $-1 $-1 $217 $85 #
plane-surface $-1 0 0 -9.3602182891420096 0 0 1 1 0 0 forward_v I I I I #
coedge $-1 $218 $219 $220 $221 forward $86 $-1 #
face $-1 $222 $223 $52 $-1 $224 reversed single #
loop $-1 $-1 $225 $88 #
plane-surface $-1 -46.464908730191382 0 -6.0115286429555095 0 0 1 1 0 0 forward_v I I I I #
coedge $-1 $226 $227 $228 $229 forward $89 $-1 #
face $-1 $230 $231 $53 $-1 $232 reversed single #
loop $-1 $-1 $233 $91 #
plane-surface $-1 46.464908730191382 0 -6.0115286429555095 0 0 1 1 0 0 forward_v I I I I #
coedge $-1 $234 $235 $236 $237 reversed $92 $-1 #
face $-1 $238 $239 $54 $-1 $240 reversed single #
loop $-1 $-1 $241 $94 #
plane-surface $-1 -23.70230160718183 -7.6612236101974247 44.589540847368667 0 0.7660444514056185 0.64278759981090561 1 0 0 forward_v I I I I #
coedge $-1 $242 $243 $244 $245 reversed $95 $-1 #
face $-1 $-1 $246 $55 $-1 $247 forward single #
loop $-1 $248 $249 $97 #
cone-surface $-1 -28.746218537522303 21.930633316790992 4.3825130946497364 0 -0.7660444514056185 -0.64278759981090561 0.75 0 0 1 I I -0.70710678118654757 0.70710678118654757 0.75 forward I I I I #
loop $-1 $-1 $250 $72 #
coedge $-1 $156 $156 $251 $252 reversed $98 $-1 #
face $-1 $-1 $253 $56 $-1 $254 forward single #
loop $-1 $255 $256 $100 #
cone-surface $-1 -23.70230160718183 21.930633316790992 4.3825130946497364 0 -0.7660444514056185 -0.64278759981090561 0.75 0 0 1 I I -0.70710678118654757 0.70710678118654757 0.75 forward I I I I #
loop $-1 $-1 $257 $73 #
coedge $-1 $161 $161 $258 $259 reversed $101 $-1 #
face $-1 $-1 $260 $57 $-1 $261 forward single #
loop $-1 $262 $263 $103 #
cone-surface $-1 -18.658384676841358 21.930633316790992 4.3825130946497364 0 -0.7660444514056185 -0.64278759981090561 0.75 0 0 1 I I -0.70710678118654757 0.70710678118654757 0.75 forward I I I I #
loop $-1 $-1 $264 $74 #
coedge $-1 $166 $166 $265 $266 reversed $104 $-1 #
face $-1 $267 $268 $58 $-1 $269 reversed single #
loop $-1 $-1 $270 $106 #
plane-surface $-1 23.702301607181838 -7.6612236101974247 44.589540847368667 0 0.7660444514056185 0.64278759981090561 1 0 0 forward_v I I I I #
coedge $-1 $271 $272 $273 $274 reversed $107 $-1 #
face $-1 $-1 $275 $59 $-1 $276 forward single #
loop $-1 $277 $278 $109 #
cone-surface $-1 18.658384676841365 21.930633316790992 4.3825130946497364 0 -0.7660444514056185 -0.64278759981090561 0.75 0 0 1 I I -0.70710678118654757 0.70710678118654757 0.75 forward I I I I #
loop $-1 $-1 $279 $76 #
coedge $-1 $175 $175 $280 $281 reversed $110 $-1 #
face $-1 $-1 $282 $60 $-1 $283 forward single #
loop $-1 $284 $285 $112 #
cone-surface $-1 23.702301607181838 21.930633316790992 4.3825130946497364 0 -0.7660444514056185 -0.64278759981090561 0.75 0 0 1 I I -0.70710678118654757 0.70710678118654757 0.75 forward I I I I #
loop $-1 $-1 $286 $77 #
coedge $-1 $180 $180 $287 $288 reversed $113 $-1 #
face $-1 $-1 $289 $61 $-1 $290 forward single #
loop $-1 $291 $292 $115 #
cone-surface $-1 28.74621853752231 21.930633316790992 4.3825130946497364 0 -0.7660444514056185 -0.64278759981090561 0.75 0 0 1 I I -0.70710678118654757 0.70710678118654757 0.75 forward I I I I #
loop $-1 $-1 $293 $78 #
coedge $-1 $185 $185 $294 $295 reversed $116 $-1 #
face $-1 $296 $297 $62 $-1 $298 reversed single #
loop $-1 $-1 $299 $118 #
plane-surface $-1 -34.503453085643841 -26.827342221394645 4.3151345190562438 0 -0.85716730853699208 0.51503806187062418 1 0 0 forward_v I I I I #
coedge $-1 $300 $301 $302 $303 reversed $119 $-1 #
face $-1 $-1 $304 $63 $-1 $305 forward single #
loop $-1 $306 $307 $121 #
cone-surface $-1 -37.451236109510234 -21.994481695931739 4.8445229584209937 0 0.85716730853699208 -0.51503806187062418 0.5 0 0 1 I I -0.70710678118654746 0.70710678118654746 0.5 forward I I I I #
loop $-1 $-1 $308 $80 #
coedge $-1 $194 $194 $309 $310 reversed $122 $-1 #
face $-1 $-1 $311 $64 $-1 $312 forward single #
loop $-1 $313 $314 $124 #
cone-surface $-1 -31.555670061777448 -21.994481695931739 4.8445229584209937 0 0.85716730853699208 -0.51503806187062418 0.5 0 0 1 I I -0.70710678118654746 0.70710678118654746 0.5 forward I I I I #
loop $-1 $-1 $315 $81 #
coedge $-1 $199 $199 $316 $317 reversed $125 $-1 #
face $-1 $318 $319 $65 $-1 $320 reversed single #
loop $-1 $-1 $321 $127 #
plane-surface $-1 6.8781603890215877 -26.827342221394645 4.3151345190562438 0 -0.85716730853699208 0.51503806187062418 1 0 0 forward_v I I I I #
coedge $-1 $322 $323 $324 $325 reversed $128 $-1 #
face $-1 $-1 $326 $66 $-1 $327 forward single #
loop $-1 $328 $329 $130 #
cone-surface $-1 3.930377365155195 -21.994481695931739 4.8445229584209937 0 0.85716730853699208 -0.51503806187062418 0.5 0 0 1 I I -0.70710678118654746 0.70710678118654746 0.5 forward I I I I #
loop $-1 $-1 $330 $83 #
coedge $-1 $208 $208 $331 $332 reversed $131 $-1 #
face $-1 $-1 $333 $67 $-1 $334 forward single #
loop $-1 $335 $336 $133 #
cone-surface $-1 9.8259434128879803 -21.994481695931739 4.8445229584209937 0 0.85716730853699208 -0.51503806187062418 0.5 0 0 1 I I -0.70710678118654746 0.70710678118654746 0.5 forward I I I I #
loop $-1 $-1 $337 $84 #
coedge $-1 $213 $213 $338 $339 reversed $134 $-1 #
face $-1 $340 $341 $51 $-1 $342 reversed single #
loop $-1 $-1 $343 $136 #
plane-surface $-1 0 -26.827342221394627 0 0 1 0 0 0 1 forward_v I I I I #
coedge $-1 $344 $345 $346 $347 forward $137 $-1 #
coedge $-1 $348 $139 $349 $350 forward $86 $-1 #
coedge $-1 $139 $348 $351 $352 forward $86 $-1 #
coedge $-1 $353 $354 $139 $221 reversed $355 $-1 #
edge $-1 $356 -26.827342221394627 $357 26.827342221394627 $220 $358 forward 7 unknown #
face $-1 $359 $360 $52 $-1 $361 reversed single #
loop $-1 $-1 $362 $140 #
plane-surface $-1 -41.381613474665428 0 -3.5749924358801977 -1 0 0 0 0 1 forward_v I I I I #
coedge $-1 $363 $364 $365 $366 forward $141 $-1 #
coedge $-1 $367 $143 $368 $369 reversed $89 $-1 #
coedge $-1 $143 $367 $370 $371 reversed $89 $-1 #
coedge $-1 $362 $372 $143 $229 reversed $223 $-1 #
edge $-1 $373 -26.827342221394627 $374 26.827342221394627 $228 $375 forward 7 unknown #
face $-1 $376 $377 $53 $-1 $378 reversed single #
loop $-1 $-1 $379 $144 #
plane-surface $-1 41.381613474665428 0 -3.5749924358801977 1 0 0 0 0 -1 forward_v I I I I #
coedge $-1 $380 $381 $382 $383 reversed $145 $-1 #
coedge $-1 $384 $147 $385 $386 reversed $92 $-1 #
coedge $-1 $147 $384 $387 $388 reversed $92 $-1 #
coedge $-1 $389 $390 $147 $237 forward $391 $-1 #
edge $-1 $392 -26.827342221394627 $393 26.827342221394627 $236 $394 forward 7 unknown #
face $-1 $395 $396 $54 $-1 $397 reversed single #
loop $-1 $-1 $398 $148 #
plane-surface $-1 -32.108829824415949 71.31520767617009 110.85863347645308 1 0 0 0 -0.7660444514056185 -0.64278759981090561 forward_v I I I I #
coedge $-1 $399 $400 $401 $402 reversed $149 $-1 #
coedge $-1 $243 $151 $403 $404 reversed $95 $-1 #
coedge $-1 $151 $242 $399 $405 reversed $95 $-1 #
coedge $-1 $401 $406 $151 $245 forward $396 $-1 #
edge $-1 $407 46.069098449084528 $408 51.941649200175959 $244 $409 forward 7 unknown #
loop $-1 $-1 $251 $152 #
plane-surface $-1 -23.70230160718183 -7.6612236101974247 44.589540847368667 0 0.7660444514056185 0.64278759981090561 1 0 0 forward_v I I I I #
loop $-1 $-1 $410 $97 #
coedge $-1 $249 $249 $250 $411 reversed $153 $-1 #
coedge $-1 $250 $250 $249 $411 forward $155 $-1 #
coedge $-1 $251 $251 $156 $252 forward $246 $-1 #
edge $-1 $412 2.9193086844427995e-016 $412 6.2831853071796004 $251 $413 forward 7 unknown #
loop $-1 $-1 $258 $157 #
plane-surface $-1 -23.70230160718183 -7.6612236101974247 44.589540847368667 0 0.7660444514056185 0.64278759981090561 1 0 0 forward_v I I I I #
loop $-1 $-1 $414 $100 #
coedge $-1 $256 $256 $257 $415 reversed $158 $-1 #
coedge $-1 $257 $257 $256 $415 forward $160 $-1 #
coedge $-1 $258 $258 $161 $259 forward $253 $-1 #
edge $-1 $416 2.9193086844427995e-016 $416 6.2831853071796004 $258 $417 forward 7 unknown #
loop $-1 $-1 $265 $162 #
plane-surface $-1 -23.70230160718183 -7.6612236101974247 44.589540847368667 0 0.7660444514056185 0.64278759981090561 1 0 0 forward_v I I I I #
loop $-1 $-1 $418 $103 #
coedge $-1 $263 $263 $264 $419 reversed $163 $-1 #
coedge $-1 $264 $264 $263 $419 forward $165 $-1 #
coedge $-1 $265 $265 $166 $266 forward $260 $-1 #
edge $-1 $420 2.9193086844427995e-016 $420 6.2831853071796004 $265 $421 forward 7 unknown #
face $-1 $422 $423 $58 $-1 $424 forward single #
loop $-1 $-1 $425 $167 #
plane-surface $-1 15.295773389947717 71.31520767617009 110.85863347645308 1 0 0 0 -0.7660444514056185 -0.64278759981090561 forward_v I I I I #
coedge $-1 $426 $427 $428 $429 reversed $168 $-1 #
coedge $-1 $272 $170 $430 $431 reversed $107 $-1 #
coedge $-1 $170 $271 $426 $432 reversed $107 $-1 #
coedge $-1 $428 $433 $170 $274 forward $434 $-1 #
edge $-1 $435 46.069098449084528 $436 51.941649200175959 $273 $437 forward 7 unknown #
loop $-1 $-1 $280 $171 #
plane-surface $-1 23.702301607181838 -7.6612236101974247 44.589540847368667 0 0.7660444514056185 0.64278759981090561 1 0 0 forward_v I I I I #
loop $-1 $-1 $438 $109 #
coedge $-1 $278 $278 $279 $439 reversed $172 $-1 #
coedge $-1 $279 $279 $278 $439 forward $174 $-1 #
coedge $-1 $280 $280 $175 $281 forward $275 $-1 #
edge $-1 $440 2.9193086844427995e-016 $440 6.2831853071796004 $280 $441 forward 7 unknown #
loop $-1 $-1 $287 $176 #
plane-surface $-1 23.702301607181838 -7.6612236101974247 44.589540847368667 0 0.7660444514056185 0.64278759981090561 1 0 0 forward_v I I I I #
loop $-1 $-1 $442 $112 #
coedge $-1 $285 $285 $286 $443 reversed $177 $-1 #
coedge $-1 $286 $286 $285 $443 forward $179 $-1 #
coedge $-1 $287 $287 $180 $288 forward $282 $-1 #
edge $-1 $444 2.9193086844427995e-016 $444 6.2831853071796004 $287 $445 forward 7 unknown #
loop $-1 $-1 $294 $181 #
plane-surface $-1 23.702301607181838 -7.6612236101974247 44.589540847368667 0 0.7660444514056185 0.64278759981090561 1 0 0 forward_v I I I I #
loop $-1 $-1 $446 $115 #
coedge $-1 $292 $292 $293 $447 reversed $182 $-1 #
coedge $-1 $293 $293 $292 $447 forward $184 $-1 #
coedge $-1 $294 $294 $185 $295 forward $289 $-1 #
edge $-1 $448 2.9193086844427995e-016 $448 6.2831853071796004 $294 $449 forward 7 unknown #
face $-1 $450 $451 $62 $-1 $452 forward single #
loop $-1 $-1 $453 $186 #
plane-surface $-1 -27.625292696622253 -115.19821276210099 57.413708666487125 -1 0 0 0 -0.85716730853699208 0.51503806187062418 forward_v I I I I #
coedge $-1 $454 $455 $456 $457 reversed $187 $-1 #
coedge $-1 $301 $189 $458 $459 reversed $119 $-1 #
coedge $-1 $189 $300 $454 $460 reversed $119 $-1 #
coedge $-1 $456 $461 $189 $303 forward $462 $-1 #
edge $-1 $463 19.346636044101551 $464 24.39171981418729 $302 $465 forward 7 unknown #
loop $-1 $-1 $309 $190 #
plane-surface $-1 -34.503453085643841 -26.827342221394645 4.3151345190562438 0 -0.85716730853699208 0.51503806187062418 1 0 0 forward_v I I I I #
loop $-1 $-1 $466 $121 #
coedge $-1 $307 $307 $308 $467 reversed $191 $-1 #
coedge $-1 $308 $308 $307 $467 forward $193 $-1 #
coedge $-1 $309 $309 $194 $310 forward $304 $-1 #
edge $-1 $468 1.2285910259226982e-015 $468 6.2831853071796013 $309 $469 forward 7 unknown #
loop $-1 $-1 $316 $195 #
plane-surface $-1 -34.503453085643841 -26.827342221394645 4.3151345190562438 0 -0.85716730853699208 0.51503806187062418 1 0 0 forward_v I I I I #
loop $-1 $-1 $470 $124 #
coedge $-1 $314 $314 $315 $471 reversed $196 $-1 #
coedge $-1 $315 $315 $314 $471 forward $198 $-1 #
coedge $-1 $316 $316 $199 $317 forward $311 $-1 #
edge $-1 $472 1.2285910259226982e-015 $472 6.2831853071796013 $316 $473 forward 7 unknown #
face $-1 $474 $475 $65 $-1 $476 reversed single #
loop $-1 $-1 $477 $200 #
plane-surface $-1 13.756320778043175 -115.19821276210099 57.413708666487125 -1 0 0 0 -0.85716730853699208 0.51503806187062418 forward_v I I I I #
coedge $-1 $478 $479 $480 $481 reversed $201 $-1 #
coedge $-1 $323 $203 $482 $483 reversed $128 $-1 #
coedge $-1 $203 $322 $478 $484 reversed $128 $-1 #
coedge $-1 $480 $485 $203 $325 forward $475 $-1 #
edge $-1 $486 19.346636044101551 $487 24.39171981418729 $324 $488 forward 7 unknown #
loop $-1 $-1 $331 $204 #
plane-surface $-1 6.8781603890215877 -26.827342221394645 4.3151345190562438 0 -0.85716730853699208 0.51503806187062418 1 0 0 forward_v I I I I #
loop $-1 $-1 $489 $130 #
coedge $-1 $329 $329 $330 $490 reversed $205 $-1 #
coedge $-1 $330 $330 $329 $490 forward $207 $-1 #
coedge $-1 $331 $331 $208 $332 forward $326 $-1 #
edge $-1 $491 1.2285910259226982e-015 $491 6.2831853071796013 $331 $492 forward 7 unknown #
loop $-1 $-1 $338 $209 #
plane-surface $-1 6.8781603890215877 -26.827342221394645 4.3151345190562438 0 -0.85716730853699208 0.51503806187062418 1 0 0 forward_v I I I I #
loop $-1 $-1 $493 $133 #
coedge $-1 $336 $336 $337 $494 reversed $210 $-1 #
coedge $-1 $337 $337 $336 $494 forward $212 $-1 #
coedge $-1 $338 $338 $213 $339 forward $333 $-1 #
edge $-1 $495 1.2285910259226982e-015 $495 6.2831853071796013 $338 $496 forward 7 unknown #
face $-1 $497 $498 $51 $-1 $499 reversed single #
loop $-1 $-1 $500 $214 #
plane-surface $-1 -51.548203985717336 0 0 1 0 0 0 0 -1 forward_v I I I I #
coedge $-1 $501 $351 $502 $503 forward $215 $-1 #
coedge $-1 $504 $217 $501 $505 forward $137 $-1 #
coedge $-1 $217 $504 $506 $507 forward $137 $-1 #
coedge $-1 $354 $353 $217 $347 reversed $355 $-1 #
edge $-1 $508 -26.827342221394627 $509 26.827342221394627 $346 $510 forward 7 unknown #
coedge $-1 $219 $218 $511 $512 forward $86 $-1 #
coedge $-1 $513 $514 $218 $350 reversed $498 $-1 #
edge $-1 $357 -51.548203985717336 $515 51.548203985717336 $349 $516 forward 7 unknown #
coedge $-1 $343 $517 $219 $352 reversed $215 $-1 #
edge $-1 $518 -51.548203985717336 $356 51.548203985717336 $351 $519 forward 7 unknown #
coedge $-1 $346 $220 $517 $520 forward $355 $-1 #
coedge $-1 $220 $346 $513 $521 reversed $355 $-1 #
loop $-1 $-1 $353 $497 #
vertex $-1 $221 $522 #
vertex $-1 $221 $523 #
straight-curve $-1 51.548203985717336 0 9.3602182891420096 0 1 0 I I #
face $-1 $524 $525 $52 $-1 $526 reversed single #
loop $-1 $-1 $527 $222 #
plane-surface $-1 0 -26.827342221394627 0 0 1 0 0 0 1 forward_v I I I I #
coedge $-1 $365 $228 $528 $529 reversed $223 $-1 #
coedge $-1 $530 $225 $527 $531 reversed $141 $-1 #
coedge $-1 $225 $530 $532 $533 reversed $141 $-1 #
coedge $-1 $372 $362 $225 $366 reversed $223 $-1 #
edge $-1 $534 -26.827342221394627 $535 26.827342221394627 $365 $536 forward 7 unknown #
coedge $-1 $227 $226 $537 $538 reversed $89 $-1 #
coedge $-1 $539 $540 $226 $369 forward $541 $-1 #
edge $-1 $542 -28.315749620621645 $374 -18.149159109569737 $368 $543 forward 7 unknown #
coedge $-1 $544 $528 $227 $371 forward $360 $-1 #
edge $-1 $373 18.149159109569737 $545 28.315749620621645 $370 $546 forward 7 unknown #
coedge $-1 $228 $365 $539 $547 reversed $223 $-1 #
vertex $-1 $371 $548 #
vertex $-1 $369 $549 #
straight-curve $-1 -41.381613474665428 0 -1.1384562288048854 0 1 0 I I #
face $-1 $550 $551 $53 $-1 $552 reversed single #
loop $-1 $-1 $387 $230 #
plane-surface $-1 0 -26.827342221394627 0 0 1 0 0 0 1 forward_v I I I I #
coedge $-1 $553 $554 $555 $556 reversed $231 $-1 #
coedge $-1 $557 $233 $558 $559 reversed $145 $-1 #
coedge $-1 $233 $557 $560 $561 reversed $145 $-1 #
coedge $-1 $390 $389 $233 $383 forward $391 $-1 #
edge $-1 $562 -26.827342221394627 $563 26.827342221394627 $382 $564 forward 7 unknown #
coedge $-1 $235 $234 $554 $565 forward $92 $-1 #
coedge $-1 $566 $555 $234 $386 forward $551 $-1 #
edge $-1 $567 18.149159109569737 $392 28.315749620621645 $385 $568 forward 7 unknown #
coedge $-1 $569 $570 $235 $388 forward $377 $-1 #
edge $-1 $393 -28.315749620621645 $571 -18.149159109569737 $387 $572 forward 7 unknown #
coedge $-1 $382 $236 $570 $573 forward $391 $-1 #
coedge $-1 $236 $382 $566 $574 reversed $391 $-1 #
loop $-1 $-1 $236 $550 #
vertex $-1 $574 $575 #
vertex $-1 $573 $576 #
straight-curve $-1 51.548203985717336 0 -1.1384562288048854 0 -1 0 I I #
face $-1 $-1 $577 $54 $-1 $578 forward single #
loop $-1 $-1 $244 $238 #
plane-surface $-1 0 26.827342221394627 0 0 -1 0 0 0 -1 forward_v I I I I #
coedge $-1 $579 $580 $581 $582 reversed $239 $-1 #
coedge $-1 $583 $241 $243 $405 forward $149 $-1 #
coedge $-1 $241 $583 $579 $584 forward $149 $-1 #
coedge $-1 $581 $244 $241 $402 forward $396 $-1 #
edge $-1 $408 3.444622586356795 $585 20.257679020825034 $401 $586 forward 7 unknown #
coedge $-1 $587 $588 $242 $404 forward $577 $-1 #
edge $-1 $589 -13.757916656989167 $407 -8.830261616690418 $403 $590 forward 7 unknown #
edge $-1 $408 -53.654684442789289 $589 -45.988613968268048 $243 $591 forward 7 unknown #
coedge $-1 $244 $581 $587 $592 reversed $396 $-1 #
vertex $-1 $592 $593 #
vertex $-1 $245 $594 #
straight-curve $-1 -15.29577338994771 26.827342221394627 55.429316738226539 0 0 -1 I I #
coedge $-1 $410 $410 $-1 $595 reversed $248 $-1 #
edge $-1 $596 0 $596 6.2831853071796004 $249 $597 forward 7 unknown #
vertex $-1 $252 $598 #
ellipse-curve $-1 -28.746218537522303 24.363514701245258 6.4239429135962993 0 0.7660444514056185 0.64278759981090561 1.5 0 0 1 I I #
coedge $-1 $414 $414 $-1 $599 reversed $255 $-1 #
edge $-1 $600 0 $600 6.2831853071796004 $256 $601 forward 7 unknown #
vertex $-1 $259 $602 #
ellipse-curve $-1 -23.70230160718183 24.363514701245258 6.4239429135962993 0 0.7660444514056185 0.64278759981090561 1.5 0 0 1 I I #
coedge $-1 $418 $418 $-1 $603 reversed $262 $-1 #
edge $-1 $604 0 $604 6.2831853071796004 $263 $605 forward 7 unknown #
vertex $-1 $266 $606 #
ellipse-curve $-1 -18.658384676841358 24.363514701245258 6.4239429135962993 0 0.7660444514056185 0.64278759981090561 1.5 0 0 1 I I #
face $-1 $-1 $434 $58 $-1 $607 reversed single #
loop $-1 $-1 $608 $267 #
plane-surface $-1 0 0 9.3602182891420096 0 0 1 1 0 0 forward_v I I I I #
coedge $-1 $609 $610 $611 $612 reversed $268 $-1 #
coedge $-1 $613 $270 $272 $432 forward $168 $-1 #
coedge $-1 $270 $613 $609 $614 forward $168 $-1 #
coedge $-1 $611 $273 $270 $429 forward $434 $-1 #
edge $-1 $436 -20.257679020825037 $615 -3.4446225863567985 $428 $616 forward 7 unknown #
coedge $-1 $617 $618 $271 $431 forward $423 $-1 #
edge $-1 $619 -13.757916656989167 $435 -8.830261616690418 $430 $620 forward 7 unknown #
edge $-1 $436 -53.654684442789289 $619 -45.988613968268048 $272 $621 forward 7 unknown #
coedge $-1 $273 $611 $617 $622 reversed $434 $-1 #
loop $-1 $-1 $611 $422 #
vertex $-1 $622 $623 #
vertex $-1 $274 $624 #
straight-curve $-1 32.108829824415956 26.827342221394627 55.429316738226539 0 0 -1 I I #
coedge $-1 $438 $438 $-1 $625 reversed $277 $-1 #
edge $-1 $626 0 $626 6.2831853071796004 $278 $627 forward 7 unknown #
vertex $-1 $281 $628 #
ellipse-curve $-1 18.658384676841365 24.363514701245258 6.4239429135962993 0 0.7660444514056185 0.64278759981090561 1.5 0 0 1 I I #
coedge $-1 $442 $442 $-1 $629 reversed $284 $-1 #
edge $-1 $630 0 $630 6.2831853071796004 $285 $631 forward 7 unknown #
vertex $-1 $288 $632 #
ellipse-curve $-1 23.702301607181838 24.363514701245258 6.4239429135962993 0 0.7660444514056185 0.64278759981090561 1.5 0 0 1 I I #
coedge $-1 $446 $446 $-1 $633 reversed $291 $-1 #
edge $-1 $634 0 $634 6.2831853071796004 $292 $635 forward 7 unknown #
vertex $-1 $295 $636 #
ellipse-curve $-1 28.74621853752231 24.363514701245258 6.4239429135962993 0 0.7660444514056185 0.64278759981090561 1.5 0 0 1 I I #
face $-1 $-1 $462 $62 $-1 $637 reversed single #
loop $-1 $-1 $638 $296 #
plane-surface $-1 0 0 9.3602182891420096 0 0 1 1 0 0 forward_v I I I I #
coedge $-1 $639 $640 $641 $642 reversed $297 $-1 #
coedge $-1 $643 $299 $301 $460 forward $187 $-1 #
coedge $-1 $299 $643 $639 $644 forward $187 $-1 #
coedge $-1 $641 $302 $299 $457 forward $462 $-1 #
edge $-1 $464 -24.129886931843508 $645 -10.373566153800333 $456 $646 forward 7 unknown #
coedge $-1 $647 $648 $300 $459 forward $451 $-1 #
edge $-1 $649 -33.803156212340255 $463 -30.77176415965587 $458 $650 forward 7 unknown #
edge $-1 $464 3.4272391519548185e-014 $649 5.8857631641326646 $301 $651 forward 7 unknown #
coedge $-1 $302 $641 $647 $652 reversed $462 $-1 #
loop $-1 $-1 $641 $450 #
vertex $-1 $652 $653 #
vertex $-1 $303 $654 #
straight-curve $-1 -41.381613474665428 -26.82734222139463 28.706854333243562 0 0 -1 I I #
coedge $-1 $466 $466 $-1 $655 reversed $306 $-1 #
edge $-1 $656 0 $656 6.2831853071796004 $307 $657 forward 7 unknown #
vertex $-1 $310 $658 #
ellipse-curve $-1 -37.451236109510234 -25.31164619505244 6.8376764040991356 0 -0.85716730853699208 0.51503806187062418 1 0 0 1 I I #
coedge $-1 $470 $470 $-1 $659 reversed $313 $-1 #
edge $-1 $660 0 $660 6.2831853071796004 $314 $661 forward 7 unknown #
vertex $-1 $317 $662 #
ellipse-curve $-1 -31.555670061777448 -25.31164619505244 6.8376764040991356 0 -0.85716730853699208 0.51503806187062418 1 0 0 1 I I #
face $-1 $-1 $663 $65 $-1 $664 forward single #
loop $-1 $-1 $324 $318 #
plane-surface $-1 0 -26.827342221394627 0 0 1 0 0 0 1 forward_v I I I I #
coedge $-1 $665 $666 $667 $668 reversed $319 $-1 #
coedge $-1 $669 $321 $323 $484 forward $201 $-1 #
coedge $-1 $321 $669 $665 $670 forward $201 $-1 #
coedge $-1 $667 $324 $321 $481 forward $475 $-1 #
edge $-1 $487 -3.4390801945107938 $671 10.317240583532381 $480 $672 forward 7 unknown #
coedge $-1 $673 $674 $322 $483 forward $663 $-1 #
edge $-1 $675 -33.803156212340255 $486 -30.77176415965587 $482 $676 forward 7 unknown #
edge $-1 $487 3.4272391519548185e-014 $675 5.8857631641326646 $323 $677 forward 7 unknown #
coedge $-1 $324 $667 $673 $678 reversed $475 $-1 #
vertex $-1 $678 $679 #
vertex $-1 $325 $680 #
straight-curve $-1 0 -26.82734222139463 28.706854333243562 0 0 -1 I I #
coedge $-1 $489 $489 $-1 $681 reversed $328 $-1 #
edge $-1 $682 0 $682 6.2831853071796004 $329 $683 forward 7 unknown #
vertex $-1 $332 $684 #
ellipse-curve $-1 3.930377365155195 -25.31164619505244 6.8376764040991356 0 -0.85716730853699208 0.51503806187062418 1 0 0 1 I I #
coedge $-1 $493 $493 $-1 $685 reversed $335 $-1 #
edge $-1 $686 0 $686 6.2831853071796004 $336 $687 forward 7 unknown #
vertex $-1 $339 $688 #
ellipse-curve $-1 9.8259434128879803 -25.31164619505244 6.8376764040991356 0 -0.85716730853699208 0.51503806187062418 1 0 0 1 I I #
face $-1 $-1 $355 $51 $-1 $689 reversed single #
loop $-1 $-1 $513 $340 #
plane-surface $-1 0 26.827342221394627 0 0 -1 0 0 0 -1 forward_v I I I I #
coedge $-1 $690 $511 $514 $691 forward $341 $-1 #
coedge $-1 $517 $343 $344 $505 reversed $215 $-1 #
coedge $-1 $511 $690 $343 $503 reversed $341 $-1 #
edge $-1 $518 -9.3602182891420096 $692 9.3602182891420096 $502 $693 forward 7 unknown #
coedge $-1 $345 $344 $690 $694 forward $137 $-1 #
edge $-1 $509 -51.548203985717336 $692 51.548203985717336 $501 $695 forward 7 unknown #
coedge $-1 $514 $513 $345 $507 reversed $498 $-1 #
edge $-1 $696 -51.548203985717336 $508 51.548203985717336 $506 $697 forward 7 unknown #
vertex $-1 $347 $698 #
vertex $-1 $520 $699 #
straight-curve $-1 51.548203985717336 0 -9.3602182891420096 0 -1 0 I I #
coedge $-1 $500 $502 $348 $512 reversed $341 $-1 #
edge $-1 $515 -26.827342221394627 $518 26.827342221394627 $511 $700 forward 7 unknown #
coedge $-1 $506 $349 $354 $521 forward $498 $-1 #
coedge $-1 $349 $506 $500 $691 reversed $498 $-1 #
vertex $-1 $350 $701 #
straight-curve $-1 0 26.827342221394627 9.3602182891420096 -1 0 0 I I #
coedge $-1 $351 $501 $353 $520 reversed $215 $-1 #
vertex $-1 $512 $702 #
straight-curve $-1 0 -26.827342221394627 9.3602182891420096 1 0 0 I I #
edge $-1 $356 -9.3602182891420096 $509 9.3602182891420096 $353 $703 forward 7 unknown #
edge $-1 $357 -9.3602182891420096 $508 9.3602182891420096 $354 $704 forward 7 unknown #
point $-1 51.548203985717336 -26.827342221394627 9.3602182891420096 #
point $-1 51.548203985717336 26.827342221394627 9.3602182891420096 #
face $-1 $-1 $541 $52 $-1 $705 reversed single #
loop $-1 $-1 $706 $359 #
plane-surface $-1 -51.548203985717336 0 0 1 0 0 0 0 -1 forward_v I I I I #
coedge $-1 $528 $544 $363 $531 forward $360 $-1 #
coedge $-1 $370 $527 $362 $529 forward $360 $-1 #
edge $-1 $535 -4.2240324250154107 $373 0.64903998913521344 $528 $707 forward 7 unknown #
coedge $-1 $364 $363 $706 $708 reversed $141 $-1 #
edge $-1 $709 -28.315749620621645 $535 -18.149159109569737 $527 $710 forward 7 unknown #
coedge $-1 $540 $539 $364 $533 forward $541 $-1 #
edge $-1 $534 18.149159109569737 $711 28.315749620621645 $532 $712 forward 7 unknown #
vertex $-1 $533 $713 #
vertex $-1 $531 $714 #
straight-curve $-1 -41.381613474665428 0 -6.0115286429555095 0 -1 0 I I #
coedge $-1 $715 $716 $367 $538 forward $525 $-1 #
edge $-1 $545 -26.827342221394627 $542 26.827342221394627 $537 $717 forward 7 unknown #
coedge $-1 $532 $368 $372 $547 forward $541 $-1 #
coedge $-1 $368 $532 $715 $718 reversed $541 $-1 #
loop $-1 $-1 $532 $524 #
vertex $-1 $718 $719 #
straight-curve $-1 -23.232454365095691 26.827342221394627 -1.1384562288048854 1 0 0 I I #
coedge $-1 $527 $370 $716 $720 forward $360 $-1 #
vertex $-1 $720 $721 #
straight-curve $-1 -23.232454365095691 -26.827342221394627 -1.1384562288048854 -1 0 0 I I #
edge $-1 $374 -0.64903998913521344 $534 4.2240324250154107 $539 $722 forward 7 unknown #
point $-1 -41.381613474665428 -26.827342221394627 -1.1384562288048854 #
point $-1 -41.381613474665428 26.827342221394627 -1.1384562288048854 #
face $-1 $-1 $391 $53 $-1 $723 reversed single #
loop $-1 $-1 $385 $376 #
plane-surface $-1 0 26.827342221394627 0 0 -1 0 0 0 -1 forward_v I I I I #
coedge $-1 $724 $379 $557 $725 reversed $231 $-1 #
coedge $-1 $379 $724 $384 $565 reversed $231 $-1 #
coedge $-1 $385 $560 $379 $556 forward $551 $-1 #
edge $-1 $726 -4.2240324250154107 $567 0.64903998913521344 $555 $727 forward 7 unknown #
coedge $-1 $381 $380 $553 $725 forward $145 $-1 #
coedge $-1 $570 $569 $380 $559 forward $377 $-1 #
edge $-1 $728 18.149159109569737 $562 28.315749620621645 $558 $729 forward 7 unknown #
coedge $-1 $555 $566 $381 $561 forward $551 $-1 #
edge $-1 $563 -28.315749620621645 $726 -18.149159109569737 $560 $730 forward 7 unknown #
vertex $-1 $383 $731 #
vertex $-1 $383 $732 #
straight-curve $-1 51.548203985717336 0 -6.0115286429555095 0 1 0 I I #
edge $-1 $567 -26.827342221394627 $571 26.827342221394627 $554 $733 forward 7 unknown #
coedge $-1 $560 $385 $390 $574 forward $551 $-1 #
vertex $-1 $386 $734 #
straight-curve $-1 23.232454365095691 26.827342221394627 -1.1384562288048854 1 0 0 I I #
coedge $-1 $558 $387 $724 $735 forward $377 $-1 #
coedge $-1 $387 $558 $389 $573 reversed $377 $-1 #
vertex $-1 $388 $736 #
straight-curve $-1 23.232454365095691 -26.827342221394627 -1.1384562288048854 -1 0 0 I I #
edge $-1 $393 1.1384562288048854 $562 6.0115286429555095 $389 $737 forward 7 unknown #
edge $-1 $392 1.1384562288048854 $563 6.0115286429555095 $390 $738 forward 7 unknown #
point $-1 51.548203985717336 26.827342221394627 -1.1384562288048854 #
point $-1 51.548203985717336 -26.827342221394627 -1.1384562288048854 #
loop $-1 $-1 $403 $395 #
plane-surface $-1 0 0 9.3602182891420096 0 0 1 1 0 0 forward_v I I I I #
coedge $-1 $580 $398 $400 $584 reversed $239 $-1 #
coedge $-1 $398 $579 $739 $740 reversed $239 $-1 #
coedge $-1 $406 $401 $398 $582 forward $396 $-1 #
edge $-1 $585 -51.941649200175959 $741 -46.069098449084528 $581 $742 forward 7 unknown #
coedge $-1 $400 $399 $588 $743 reversed $149 $-1 #
edge $-1 $744 45.988613968268048 $585 53.654684442789289 $579 $745 forward 7 unknown #
vertex $-1 $402 $746 #
straight-curve $-1 -11.851150803590915 26.827342221394627 3.4876675380505873 -1 0 0 I I #
coedge $-1 $739 $403 $406 $592 forward $577 $-1 #
coedge $-1 $403 $739 $583 $743 forward $577 $-1 #
vertex $-1 $404 $747 #
straight-curve $-1 -15.29577338994771 35.657603838085045 9.3602182891420114 0 1 0 I I #
straight-curve $-1 -15.29577338994771 -7.6612236101974247 44.589540847368667 0 -0.64278759981090561 0.7660444514056185 I I #
edge $-1 $407 15.29577338994771 $741 32.108829824415949 $406 $748 forward 7 unknown #
point $-1 -15.29577338994771 26.827342221394627 9.3602182891420096 #
point $-1 -15.29577338994771 26.82734222139463 3.4876675380505802 #
edge $-1 $749 1 $749 0 $410 $-1 forward 7 unknown #
vertex $-1 $411 $750 #
ellipse-curve $-1 -28.746218537522303 22.505166655345207 4.8646037945079152 0 0.7660444514056185 0.64278759981090561 1.5 0 0 1 I I #
point $-1 -27.246218537522303 24.363514701245254 6.4239429135962958 #
edge $-1 $751 1 $751 0 $414 $-1 forward 7 unknown #
vertex $-1 $415 $752 #
ellipse-curve $-1 -23.70230160718183 22.505166655345207 4.8646037945079152 0 0.7660444514056185 0.64278759981090561 1.5 0 0 1 I I #
point $-1 -22.20230160718183 24.363514701245254 6.4239429135962958 #
edge $-1 $753 1 $753 0 $418 $-1 forward 7 unknown #
vertex $-1 $419 $754 #
ellipse-curve $-1 -18.658384676841358 22.505166655345207 4.8646037945079152 0 0.7660444514056185 0.64278759981090561 1.5 0 0 1 I I #
point $-1 -17.158384676841358 24.363514701245254 6.4239429135962958 #
plane-surface $-1 0 26.827342221394627 0 0 -1 0 0 0 -1 forward_v I I I I #
coedge $-1 $618 $617 $610 $755 forward $423 $-1 #
coedge $-1 $610 $425 $427 $614 reversed $268 $-1 #
coedge $-1 $425 $609 $608 $755 reversed $268 $-1 #
coedge $-1 $433 $428 $425 $612 forward $434 $-1 #
edge $-1 $615 -51.941649200175959 $756 -46.069098449084528 $611 $757 forward 7 unknown #
coedge $-1 $427 $426 $618 $758 reversed $168 $-1 #
edge $-1 $759 45.988613968268048 $615 53.654684442789289 $609 $760 forward 7 unknown #
vertex $-1 $429 $761 #
straight-curve $-1 11.851150803590919 26.827342221394627 3.4876675380505873 -1 0 0 I I #
coedge $-1 $608 $430 $433 $622 forward $423 $-1 #
coedge $-1 $430 $608 $613 $758 forward $423 $-1 #
vertex $-1 $431 $762 #
straight-curve $-1 32.108829824415956 35.657603838085045 9.3602182891420114 0 1 0 I I #
straight-curve $-1 32.108829824415956 -7.6612236101974247 44.589540847368667 0 -0.64278759981090561 0.7660444514056185 I I #
edge $-1 $435 -32.108829824415956 $756 -15.295773389947717 $433 $763 forward 7 unknown #
point $-1 32.108829824415956 26.827342221394627 9.3602182891420096 #
point $-1 32.108829824415956 26.82734222139463 3.4876675380505802 #
edge $-1 $764 1 $764 0 $438 $-1 forward 7 unknown #
vertex $-1 $439 $765 #
ellipse-curve $-1 18.658384676841365 22.505166655345207 4.8646037945079152 0 0.7660444514056185 0.64278759981090561 1.5 0 0 1 I I #
point $-1 20.158384676841365 24.363514701245254 6.4239429135962958 #
edge $-1 $766 1 $766 0 $442 $-1 forward 7 unknown #
vertex $-1 $443 $767 #
ellipse-curve $-1 23.702301607181838 22.505166655345207 4.8646037945079152 0 0.7660444514056185 0.64278759981090561 1.5 0 0 1 I I #
point $-1 25.202301607181838 24.363514701245254 6.4239429135962958 #
edge $-1 $768 1 $768 0 $446 $-1 forward 7 unknown #
vertex $-1 $447 $769 #
ellipse-curve $-1 28.74621853752231 22.505166655345207 4.8646037945079152 0 0.7660444514056185 0.64278759981090561 1.5 0 0 1 I I #
point $-1 30.24621853752231 24.363514701245254 6.4239429135962958 #
plane-surface $-1 0 -26.827342221394627 0 0 1 0 0 0 1 forward_v I I I I #
coedge $-1 $648 $647 $640 $770 forward $451 $-1 #
coedge $-1 $640 $453 $455 $644 reversed $297 $-1 #
coedge $-1 $453 $639 $638 $770 reversed $297 $-1 #
coedge $-1 $461 $456 $453 $642 forward $462 $-1 #
edge $-1 $645 -24.39171981418729 $771 -19.346636044101551 $641 $772 forward 7 unknown #
coedge $-1 $455 $454 $648 $773 reversed $187 $-1 #
edge $-1 $774 -5.8857631641326646 $645 -3.4272391519548185e-014 $639 $775 forward 7 unknown #
vertex $-1 $457 $776 #
straight-curve $-1 -17.25172654282192 -26.827342221394627 4.315134519056274 1 0 0 I I #
coedge $-1 $638 $458 $461 $652 forward $451 $-1 #
coedge $-1 $458 $638 $643 $773 forward $451 $-1 #
vertex $-1 $459 $777 #
straight-curve $-1 -41.381613474665428 -57.599106381050497 9.3602182891420114 0 -1 0 I I #
straight-curve $-1 -41.381613474665428 -26.827342221394645 4.3151345190562438 0 0.51503806187062418 0.85716730853699208 I I #
edge $-1 $463 -41.381613474665428 $771 -27.625292696622253 $461 $778 forward 7 unknown #
point $-1 -41.381613474665428 -26.827342221394627 9.3602182891420096 #
point $-1 -41.381613474665428 -26.827342221394627 4.3151345190562731 #
edge $-1 $779 1 $779 0 $466 $-1 forward 7 unknown #
vertex $-1 $467 $780 #
ellipse-curve $-1 -37.451236109510234 -22.423065350200236 5.102041989356306 0 -0.85716730853699208 0.51503806187062418 1 0 0 1 I I #
point $-1 -36.451236109510234 -25.311646195052425 6.8376764040991285 #
edge $-1 $781 1 $781 0 $470 $-1 forward 7 unknown #
vertex $-1 $471 $782 #
ellipse-curve $-1 -31.555670061777448 -22.423065350200236 5.102041989356306 0 -0.85716730853699208 0.51503806187062418 1 0 0 1 I I #
point $-1 -30.555670061777448 -25.311646195052425 6.8376764040991285 #
loop $-1 $-1 $482 $474 #
plane-surface $-1 0 0 9.3602182891420096 0 0 1 1 0 0 forward_v I I I I #
coedge $-1 $666 $477 $479 $670 reversed $319 $-1 #
coedge $-1 $477 $665 $783 $784 reversed $319 $-1 #
coedge $-1 $485 $480 $477 $668 forward $475 $-1 #
edge $-1 $671 -24.39171981418729 $785 -19.346636044101551 $667 $786 forward 7 unknown #
coedge $-1 $479 $478 $674 $787 reversed $201 $-1 #
edge $-1 $788 -5.8857631641326646 $671 -3.4272391519548185e-014 $665 $789 forward 7 unknown #
vertex $-1 $481 $790 #
straight-curve $-1 3.4390801945107938 -26.827342221394627 4.315134519056274 1 0 0 I I #
coedge $-1 $783 $482 $485 $678 forward $663 $-1 #
coedge $-1 $482 $783 $669 $787 forward $663 $-1 #
vertex $-1 $483 $791 #
straight-curve $-1 0 -57.599106381050497 9.3602182891420114 0 -1 0 I I #
straight-curve $-1 0 -26.827342221394645 4.3151345190562438 0 0.51503806187062418 0.85716730853699208 I I #
edge $-1 $486 0 $785 13.756320778043175 $485 $792 forward 7 unknown #
point $-1 0 -26.827342221394627 9.3602182891420096 #
point $-1 0 -26.827342221394627 4.3151345190562731 #
edge $-1 $793 1 $793 0 $489 $-1 forward 7 unknown #
vertex $-1 $490 $794 #
ellipse-curve $-1 3.930377365155195 -22.423065350200236 5.102041989356306 0 -0.85716730853699208 0.51503806187062418 1 0 0 1 I I #
point $-1 4.930377365155195 -25.311646195052425 6.8376764040991285 #
edge $-1 $795 1 $795 0 $493 $-1 forward 7 unknown #
vertex $-1 $494 $796 #
ellipse-curve $-1 9.8259434128879803 -22.423065350200236 5.102041989356306 0 -0.85716730853699208 0.51503806187062418 1 0 0 1 I I #
point $-1 10.82594341288798 -25.311646195052425 6.8376764040991285 #
plane-surface $-1 51.548203985717336 0 0 -1 0 0 0 0 1 forward_v I I I I #
coedge $-1 $502 $500 $504 $694 reversed $341 $-1 #
edge $-1 $515 -9.3602182891420096 $696 9.3602182891420096 $514 $797 forward 7 unknown #
vertex $-1 $694 $798 #
straight-curve $-1 -51.548203985717336 -26.827342221394627 0 0 0 -1 I I #
edge $-1 $692 -26.827342221394627 $696 26.827342221394627 $690 $799 forward 7 unknown #
straight-curve $-1 0 -26.827342221394627 -9.3602182891420096 -1 0 0 I I #
vertex $-1 $507 $800 #
straight-curve $-1 0 26.827342221394627 -9.3602182891420096 1 0 0 I I #
point $-1 51.548203985717336 26.827342221394627 -9.3602182891420096 #
point $-1 51.548203985717336 -26.827342221394627 -9.3602182891420096 #
straight-curve $-1 -51.548203985717336 0 9.3602182891420096 0 -1 0 I I #
point $-1 -51.548203985717336 26.827342221394627 9.3602182891420096 #
point $-1 -51.548203985717336 -26.827342221394627 9.3602182891420096 #
straight-curve $-1 51.548203985717336 -26.827342221394627 0 0 0 -1 I I #
straight-curve $-1 51.548203985717336 26.827342221394627 0 0 0 -1 I I #
plane-surface $-1 0 26.827342221394627 0 0 -1 0 0 0 -1 forward_v I I I I #
coedge $-1 $716 $715 $530 $708 forward $525 $-1 #
straight-curve $-1 -41.381613474665428 -26.827342221394627 -1.7874962179400988 0 0 1 I I #
edge $-1 $711 -26.827342221394627 $709 26.827342221394627 $706 $801 forward 7 unknown #
vertex $-1 $531 $802 #
straight-curve $-1 -23.232454365095691 -26.827342221394627 -6.0115286429555095 1 0 0 I I #
vertex $-1 $533 $803 #
straight-curve $-1 -23.232454365095691 26.827342221394627 -6.0115286429555095 -1 0 0 I I #
point $-1 -41.381613474665428 26.827342221394627 -6.0115286429555095 #
point $-1 -41.381613474665428 -26.827342221394627 -6.0115286429555095 #
coedge $-1 $706 $537 $540 $718 forward $525 $-1 #
coedge $-1 $537 $706 $544 $720 reversed $525 $-1 #
straight-curve $-1 -51.548203985717336 0 -1.1384562288048854 0 1 0 I I #
edge $-1 $542 1.1384562288048854 $711 6.0115286429555095 $540 $804 forward 7 unknown #
point $-1 -51.548203985717336 26.827342221394627 -1.1384562288048854 #
edge $-1 $545 1.1384562288048854 $709 6.0115286429555095 $716 $805 forward 7 unknown #
point $-1 -51.548203985717336 -26.827342221394627 -1.1384562288048854 #
straight-curve $-1 -41.381613474665428 26.827342221394627 -1.7874962179400988 0 0 -1 I I #
plane-surface $-1 51.548203985717336 0 0 -1 0 0 0 0 1 forward_v I I I I #
coedge $-1 $554 $553 $569 $735 reversed $231 $-1 #
edge $-1 $728 -26.827342221394627 $726 26.827342221394627 $553 $806 forward 7 unknown #
vertex $-1 $561 $807 #
straight-curve $-1 41.381613474665428 26.827342221394627 -1.7874962179400988 0 0 1 I I #
vertex $-1 $559 $808 #
straight-curve $-1 23.232454365095691 -26.827342221394627 -6.0115286429555095 1 0 0 I I #
straight-curve $-1 23.232454365095691 26.827342221394627 -6.0115286429555095 -1 0 0 I I #
point $-1 51.548203985717336 -26.827342221394627 -6.0115286429555095 #
point $-1 51.548203985717336 26.827342221394627 -6.0115286429555095 #
straight-curve $-1 41.381613474665428 0 -1.1384562288048854 0 -1 0 I I #
point $-1 41.381613474665428 26.827342221394627 -1.1384562288048854 #
edge $-1 $571 -0.64903998913521344 $728 4.2240324250154107 $569 $809 forward 7 unknown #
point $-1 41.381613474665428 -26.827342221394627 -1.1384562288048854 #
straight-curve $-1 51.548203985717336 -26.827342221394627 0 0 0 -1 I I #
straight-curve $-1 51.548203985717336 26.827342221394627 0 0 0 -1 I I #
coedge $-1 $588 $587 $580 $740 forward $577 $-1 #
edge $-1 $741 8.830261616690418 $744 13.757916656989167 $739 $810 forward 7 unknown #
vertex $-1 $740 $811 #
straight-curve $-1 -32.108829824415949 26.827342221394627 55.429316738226539 0 0 1 I I #
edge $-1 $744 -20.257679020825034 $589 -3.444622586356795 $588 $812 forward 7 unknown #
vertex $-1 $743 $813 #
straight-curve $-1 -32.108829824415949 -7.6612236101974247 44.589540847368667 0 0.64278759981090561 -0.7660444514056185 I I #
point $-1 -32.108829824415949 26.82734222139463 3.4876675380505802 #
point $-1 -15.29577338994771 21.899687181095878 9.3602182891420114 #
straight-curve $-1 0 26.827342221394627 9.3602182891420096 -1 0 0 I I #
vertex $-1 $595 $814 #
point $-1 -27.246218537522303 22.505166655345207 4.8646037945079152 #
vertex $-1 $599 $815 #
point $-1 -22.20230160718183 22.505166655345207 4.8646037945079152 #
vertex $-1 $603 $816 #
point $-1 -17.158384676841358 22.505166655345207 4.8646037945079152 #
edge $-1 $756 8.830261616690418 $759 13.757916656989167 $608 $817 forward 7 unknown #
vertex $-1 $755 $818 #
straight-curve $-1 15.295773389947717 26.827342221394627 55.429316738226539 0 0 1 I I #
edge $-1 $759 3.4446225863567985 $619 20.257679020825037 $618 $819 forward 7 unknown #
vertex $-1 $758 $820 #
straight-curve $-1 15.295773389947717 -7.6612236101974247 44.589540847368667 0 0.64278759981090561 -0.7660444514056185 I I #
point $-1 15.295773389947717 26.82734222139463 3.4876675380505802 #
point $-1 32.108829824415956 21.899687181095878 9.3602182891420114 #
straight-curve $-1 0 26.827342221394627 9.3602182891420096 -1 0 0 I I #
vertex $-1 $625 $821 #
point $-1 20.158384676841365 22.505166655345207 4.8646037945079152 #
vertex $-1 $629 $822 #
point $-1 25.202301607181838 22.505166655345207 4.8646037945079152 #
vertex $-1 $633 $823 #
point $-1 30.24621853752231 22.505166655345207 4.8646037945079152 #
edge $-1 $771 30.77176415965587 $774 33.803156212340255 $638 $824 forward 7 unknown #
vertex $-1 $642 $825 #
straight-curve $-1 -27.625292696622253 -26.82734222139463 28.706854333243562 0 0 1 I I #
edge $-1 $774 10.373566153800333 $649 24.129886931843508 $648 $826 forward 7 unknown #
vertex $-1 $773 $827 #
straight-curve $-1 -27.625292696622253 -26.827342221394645 4.3151345190562438 0 -0.51503806187062418 -0.85716730853699208 I I #
point $-1 -27.625292696622253 -26.827342221394627 4.3151345190562731 #
point $-1 -41.381613474665428 -23.795950168710245 9.3602182891420096 #
straight-curve $-1 0 -26.827342221394627 9.3602182891420096 1 0 0 I I #
vertex $-1 $655 $828 #
point $-1 -36.451236109510234 -22.423065350200236 5.102041989356306 #
vertex $-1 $659 $829 #
point $-1 -30.555670061777448 -22.423065350200236 5.102041989356306 #
coedge $-1 $674 $673 $666 $784 forward $663 $-1 #
edge $-1 $785 30.77176415965587 $788 33.803156212340255 $783 $830 forward 7 unknown #
vertex $-1 $784 $831 #
straight-curve $-1 13.756320778043175 -26.82734222139463 28.706854333243562 0 0 1 I I #
edge $-1 $788 -10.317240583532381 $675 3.4390801945107938 $674 $832 forward 7 unknown #
vertex $-1 $787 $833 #
straight-curve $-1 13.756320778043175 -26.827342221394645 4.3151345190562438 0 -0.51503806187062418 -0.85716730853699208 I I #
point $-1 13.756320778043175 -26.827342221394627 4.3151345190562731 #
point $-1 0 -23.795950168710245 9.3602182891420096 #
straight-curve $-1 0 -26.827342221394627 9.3602182891420096 1 0 0 I I #
vertex $-1 $681 $834 #
point $-1 4.930377365155195 -22.423065350200236 5.102041989356306 #
vertex $-1 $685 $835 #
point $-1 10.82594341288798 -22.423065350200236 5.102041989356306 #
straight-curve $-1 -51.548203985717336 26.827342221394627 0 0 0 -1 I I #
point $-1 -51.548203985717336 -26.827342221394627 -9.3602182891420096 #
straight-curve $-1 -51.548203985717336 0 -9.3602182891420096 0 1 0 I I #
point $-1 -51.548203985717336 26.827342221394627 -9.3602182891420096 #
straight-curve $-1 -51.548203985717336 0 -6.0115286429555095 0 -1 0 I I #
point $-1 -51.548203985717336 -26.827342221394627 -6.0115286429555095 #
point $-1 -51.548203985717336 26.827342221394627 -6.0115286429555095 #
straight-curve $-1 -51.548203985717336 26.827342221394627 0 0 0 -1 I I #
straight-curve $-1 -51.548203985717336 -26.827342221394627 0 0 0 -1 I I #
straight-curve $-1 41.381613474665428 0 -6.0115286429555095 0 1 0 I I #
point $-1 41.381613474665428 26.827342221394627 -6.0115286429555095 #
point $-1 41.381613474665428 -26.827342221394627 -6.0115286429555095 #
straight-curve $-1 41.381613474665428 -26.827342221394627 -1.7874962179400988 0 0 -1 I I #
straight-curve $-1 -32.108829824415949 35.657603838085045 9.3602182891420114 0 -1 0 I I #
point $-1 -32.108829824415949 26.827342221394627 9.3602182891420096 #
straight-curve $-1 -11.851150803590915 21.899687181095882 9.3602182891420078 1 0 0 I I #
point $-1 -32.108829824415949 21.899687181095878 9.3602182891420114 #
point $-1 -28.746218537522303 21.356099978236777 3.9004223947915571 #
point $-1 -23.70230160718183 21.356099978236777 3.9004223947915571 #
point $-1 -18.658384676841358 21.356099978236777 3.9004223947915571 #
straight-curve $-1 15.295773389947717 35.657603838085045 9.3602182891420114 0 -1 0 I I #
point $-1 15.295773389947717 26.827342221394627 9.3602182891420096 #
straight-curve $-1 11.851150803590919 21.899687181095882 9.3602182891420078 1 0 0 I I #
point $-1 15.295773389947717 21.899687181095878 9.3602182891420114 #
point $-1 18.658384676841365 21.356099978236777 3.9004223947915571 #
point $-1 23.702301607181838 21.356099978236777 3.9004223947915571 #
point $-1 28.74621853752231 21.356099978236777 3.9004223947915571 #
straight-curve $-1 -27.625292696622253 -57.599106381050497 9.3602182891420114 0 1 0 I I #
point $-1 -27.625292696622253 -26.827342221394627 9.3602182891420096 #
straight-curve $-1 -17.25172654282192 -23.795950168710242 9.3602182891420096 -1 0 0 I I #
point $-1 -27.625292696622253 -23.795950168710245 9.3602182891420096 #
point $-1 -37.451236109510234 -21.565898041663242 4.5870039274856813 #
point $-1 -31.555670061777448 -21.565898041663242 4.5870039274856813 #
straight-curve $-1 13.756320778043175 -57.599106381050497 9.3602182891420114 0 1 0 I I #
point $-1 13.756320778043175 -26.827342221394627 9.3602182891420096 #
straight-curve $-1 3.4390801945107938 -23.795950168710242 9.3602182891420096 -1 0 0 I I #
point $-1 13.756320778043175 -23.795950168710245 9.3602182891420096 #
point $-1 3.930377365155195 -21.565898041663242 4.5870039274856813 #
point $-1 9.8259434128879803 -21.565898041663242 4.5870039274856813 #
End-of-ACIS-data 