500 0 7 0           
7 Unknown 11 ACIS 5.0 NT 24 Thu Mar 25 21:24:59 1999 
-1 9.9999999999999995e-007 1e-010 
body $-1 $7 $-1 $8 #
body $-1 $9 $-1 $10 #
body $-1 $11 $-1 $12 #
body $-1 $13 $-1 $14 #
body $-1 $15 $-1 $16 #
body $-1 $17 $-1 $18 #
body $-1 $19 $-1 $20 #
lump $-1 $-1 $21 $0 #
transform $-1 1 0 0 0 1 0 0 0 1 63.877681814020207 40.28775743598451 11.407876821750392 1 rotate no_reflect no_shear #
lump $-1 $-1 $22 $1 #
transform $-1 1 0 0 0 1 0 0 0 1 63.877681814020207 40.28775743598451 11.407876821750392 1 rotate no_reflect no_shear #
lump $-1 $-1 $23 $2 #
transform $-1 1 0 0 0 1 0 0 0 1 63.877681814020207 40.28775743598451 11.407876821750392 1 rotate no_reflect no_shear #
lump $-1 $-1 $24 $3 #
transform $-1 1 0 0 0 1 0 0 0 1 63.877681814020207 40.28775743598451 11.407876821750392 1 rotate no_reflect no_shear #
lump $-1 $-1 $25 $4 #
transform $-1 1 0 0 0 1 0 0 0 1 63.877681814020207 40.28775743598451 11.407876821750392 1 rotate no_reflect no_shear #
lump $-1 $-1 $26 $5 #
transform $-1 1 0 0 0 1 0 0 0 1 63.877681814020207 40.28775743598451 11.407876821750392 1 rotate no_reflect no_shear #
lump $-1 $-1 $27 $6 #
transform $-1 1 0 0 0 1 0 0 0 1 63.877681814020207 40.28775743598451 11.407876821750392 1 rotate no_reflect no_shear #
shell $-1 $-1 $-1 $28 $-1 $7 #
shell $-1 $-1 $-1 $29 $-1 $9 #
shell $-1 $-1 $-1 $30 $-1 $11 #
shell $-1 $-1 $-1 $31 $-1 $13 #
shell $-1 $-1 $-1 $32 $-1 $15 #
shell $-1 $-1 $-1 $33 $-1 $17 #
shell $-1 $-1 $-1 $34 $-1 $19 #
face $-1 $35 $36 $21 $-1 $37 forward single #
face $-1 $38 $39 $22 $-1 $40 reversed single #
face $-1 $41 $42 $23 $-1 $43 forward single #
face $-1 $44 $45 $24 $-1 $46 forward single #
face $-1 $47 $48 $25 $-1 $49 reversed single #
face $-1 $50 $51 $26 $-1 $52 forward single #
face $-1 $53 $54 $27 $-1 $55 forward single #
face $-1 $56 $57 $21 $-1 $58 reversed single #
loop $-1 $-1 $59 $28 #
plane-surface $-1 0 0 11.407876821750392 0 0 1 1 0 0 forward_v I I I I #
face $-1 $60 $61 $22 $-1 $62 reversed single #
loop $-1 $-1 $63 $29 #
plane-surface $-1 -167.2339431571765 -14.485252884700845 80.419647431968698 0 1 0 -0.80901700255871778 0 0.5877852410284794 forward_v I I I I #
face $-1 $64 $65 $23 $-1 $66 forward single #
loop $-1 $67 $68 $30 #
cone-surface $-1 -60.994525498201149 -9.8956217584271293 7.8776243473767975 0.80901700255871778 0 -0.5877852410284794 0.5877852410284794 0 0.80901700255871778 1 I I 0 1 1 forward I I I I #
face $-1 $69 $70 $24 $-1 $71 forward single #
loop $-1 $72 $73 $31 #
cone-surface $-1 -60.994525498201149 -3.0111750690165593 7.8776243473767975 0.80901700255871778 0 -0.5877852410284794 0.5877852410284794 0 0.80901700255871778 1 I I 0 1 1 forward I I I I #
face $-1 $74 $75 $25 $-1 $76 reversed single #
loop $-1 $-1 $77 $32 #
plane-surface $-1 44.992174119951073 36.959245356486676 180.57529112790522 0 -1 0 -0.62932039886446345 0 -0.77714595512881146 forward_v I I I I #
face $-1 $78 $79 $26 $-1 $80 forward single #
loop $-1 $81 $82 $33 #
cone-surface $-1 56.734037688062102 25.269122906844608 5.3465624247122374 -0.62932039886446345 0 -0.77714595512881146 0.77714595512881146 0 -0.62932039886446345 1 I I 0 1 1 forward I I I I #
face $-1 $83 $84 $27 $-1 $85 forward single #
loop $-1 $86 $87 $34 #
cone-surface $-1 56.734037688062102 32.283196376629839 5.3465624247122374 -0.62932039886446345 0 -0.77714595512881146 0.77714595512881146 0 -0.62932039886446345 1 I I 0 1 1 forward I I I I #
face $-1 $88 $89 $21 $-1 $90 reversed single #
loop $-1 $-1 $91 $35 #
plane-surface $-1 0 0 -11.407876821750392 0 0 1 1 0 0 forward_v I I I I #
coedge $-1 $92 $93 $94 $95 forward $36 $-1 #
face $-1 $96 $97 $22 $-1 $98 reversed single #
loop $-1 $-1 $99 $38 #
plane-surface $-1 -63.877681814020193 -6.4533984137218496 5.3269302291799221 -0.80901700255871778 0 0.5877852410284794 0.5877852410284794 0 0.80901700255871778 forward_v I I I I #
coedge $-1 $100 $101 $102 $103 reversed $39 $-1 #
face $-1 $-1 $104 $23 $-1 $105 forward single #
loop $-1 $106 $107 $41 #
cone-surface $-1 -59.915893771439997 -9.8956217584271293 7.0939525487742046 0.80901700255871778 0 -0.5877852410284794 0.2938926205142397 0 0.40450850127935889 1 I I -0.70710678118654746 0.70710678118654746 0.5 forward I I I I #
loop $-1 $-1 $108 $30 #
coedge $-1 $68 $68 $109 $110 reversed $42 $-1 #
face $-1 $-1 $111 $24 $-1 $112 forward single #
loop $-1 $113 $114 $44 #
cone-surface $-1 -59.915893771439997 -3.0111750690165593 7.0939525487742046 0.80901700255871778 0 -0.5877852410284794 0.2938926205142397 0 0.40450850127935889 1 I I -0.70710678118654746 0.70710678118654746 0.5 forward I I I I #
loop $-1 $-1 $115 $31 #
coedge $-1 $73 $73 $116 $117 reversed $45 $-1 #
face $-1 $118 $119 $25 $-1 $120 reversed single #
loop $-1 $-1 $121 $47 #
plane-surface $-1 -35.40688227552188 28.77615964173723 81.29072703836313 0.62932039886446345 0 0.77714595512881146 0.77714595512881146 0 -0.62932039886446345 forward_v I I I I #
coedge $-1 $122 $123 $124 $125 reversed $48 $-1 #
face $-1 $-1 $126 $26 $-1 $127 forward single #
loop $-1 $128 $129 $50 #
cone-surface $-1 55.768949783074163 25.269122906844608 4.1547781395398005 -0.62932039886446345 0 -0.77714595512881146 0.38857297756440573 0 -0.31466019943223172 1 I I -0.70710678118654746 0.70710678118654746 0.5 forward I I I I #
loop $-1 $-1 $130 $33 #
coedge $-1 $82 $82 $131 $132 reversed $51 $-1 #
face $-1 $-1 $133 $27 $-1 $134 forward single #
loop $-1 $135 $136 $53 #
cone-surface $-1 55.768949783074163 32.283196376629839 4.1547781395398005 -0.62932039886446345 0 -0.77714595512881146 0.38857297756440573 0 -0.31466019943223172 1 I I -0.70710678118654746 0.70710678118654746 0.5 forward I I I I #
loop $-1 $-1 $137 $34 #
coedge $-1 $87 $87 $138 $139 reversed $54 $-1 #
face $-1 $140 $141 $21 $-1 $142 reversed single #
loop $-1 $-1 $143 $56 #
plane-surface $-1 0 -40.28775743598451 0 0 1 0 0 0 1 forward_v I I I I #
coedge $-1 $144 $145 $146 $147 forward $57 $-1 #
coedge $-1 $148 $59 $149 $150 forward $36 $-1 #
coedge $-1 $59 $148 $151 $152 forward $36 $-1 #
coedge $-1 $153 $154 $59 $95 reversed $155 $-1 #
edge $-1 $156 -40.28775743598451 $157 40.28775743598451 $94 $158 forward 7 unknown #
face $-1 $159 $160 $22 $-1 $161 reversed single #
loop $-1 $-1 $162 $60 #
plane-surface $-1 -167.2339431571765 1.5784560572571458 80.419647431968698 0 -1 0 0.80901700255871778 0 -0.5877852410284794 forward_v I I I I #
coedge $-1 $163 $164 $165 $166 reversed $61 $-1 #
coedge $-1 $101 $63 $167 $168 reversed $39 $-1 #
coedge $-1 $63 $100 $163 $169 reversed $39 $-1 #
coedge $-1 $165 $170 $63 $103 forward $171 $-1 #
edge $-1 $172 19.739289764568042 $173 24.157355945242578 $102 $174 forward 7 unknown #
loop $-1 $-1 $109 $64 #
plane-surface $-1 -63.877681814020193 -6.4533984137218496 5.3269302291799221 -0.80901700255871778 0 0.5877852410284794 0.5877852410284794 0 0.80901700255871778 forward_v I I I I #
loop $-1 $-1 $175 $41 #
coedge $-1 $107 $107 $108 $176 reversed $65 $-1 #
coedge $-1 $108 $108 $107 $176 forward $67 $-1 #
coedge $-1 $109 $109 $68 $110 forward $104 $-1 #
edge $-1 $177 0 $177 6.2831853071796004 $109 $178 forward 7 unknown #
loop $-1 $-1 $116 $69 #
plane-surface $-1 -63.877681814020193 -6.4533984137218496 5.3269302291799221 -0.80901700255871778 0 0.5877852410284794 0.5877852410284794 0 0.80901700255871778 forward_v I I I I #
loop $-1 $-1 $179 $44 #
coedge $-1 $114 $114 $115 $180 reversed $70 $-1 #
coedge $-1 $115 $115 $114 $180 forward $72 $-1 #
coedge $-1 $116 $116 $73 $117 forward $111 $-1 #
edge $-1 $181 0 $181 6.2831853071796004 $116 $182 forward 7 unknown #
face $-1 $183 $184 $25 $-1 $185 forward single #
loop $-1 $-1 $186 $74 #
plane-surface $-1 44.992174119951073 20.593073926987788 180.57529112790522 0 1 0 0.62932039886446345 0 0.77714595512881146 forward_v I I I I #
coedge $-1 $187 $188 $189 $190 reversed $75 $-1 #
coedge $-1 $123 $77 $191 $192 reversed $48 $-1 #
coedge $-1 $77 $122 $187 $193 reversed $48 $-1 #
coedge $-1 $189 $194 $77 $125 forward $184 $-1 #
edge $-1 $195 -41.38159475404467 $196 -28.395161913239875 $124 $197 forward 7 unknown #
loop $-1 $-1 $131 $78 #
plane-surface $-1 -35.40688227552188 28.77615964173723 81.29072703836313 0.62932039886446345 0 0.77714595512881146 0.77714595512881146 0 -0.62932039886446345 forward_v I I I I #
loop $-1 $-1 $198 $50 #
coedge $-1 $129 $129 $130 $199 reversed $79 $-1 #
coedge $-1 $130 $130 $129 $199 forward $81 $-1 #
coedge $-1 $131 $131 $82 $132 forward $126 $-1 #
edge $-1 $200 0 $200 6.2831853071796004 $131 $201 forward 7 unknown #
loop $-1 $-1 $138 $83 #
plane-surface $-1 -35.40688227552188 28.77615964173723 81.29072703836313 0.62932039886446345 0 0.77714595512881146 0.77714595512881146 0 -0.62932039886446345 forward_v I I I I #
loop $-1 $-1 $202 $53 #
coedge $-1 $136 $136 $137 $203 reversed $84 $-1 #
coedge $-1 $137 $137 $136 $203 forward $86 $-1 #
coedge $-1 $138 $138 $87 $139 forward $133 $-1 #
edge $-1 $204 0 $204 6.2831853071796004 $138 $205 forward 7 unknown #
face $-1 $206 $207 $21 $-1 $208 reversed single #
loop $-1 $-1 $209 $88 #
plane-surface $-1 -63.877681814020207 0 0 1 0 0 0 0 -1 forward_v I I I I #
coedge $-1 $210 $151 $211 $212 forward $89 $-1 #
coedge $-1 $213 $91 $210 $214 forward $57 $-1 #
coedge $-1 $91 $213 $215 $216 forward $57 $-1 #
coedge $-1 $154 $153 $91 $147 reversed $155 $-1 #
edge $-1 $217 -40.28775743598451 $218 40.28775743598451 $146 $219 forward 7 unknown #
coedge $-1 $93 $92 $220 $221 forward $36 $-1 #
coedge $-1 $222 $223 $92 $150 reversed $207 $-1 #
edge $-1 $157 -63.877681814020207 $224 63.877681814020207 $149 $225 forward 7 unknown #
coedge $-1 $143 $226 $93 $152 reversed $89 $-1 #
edge $-1 $227 -63.877681814020207 $156 63.877681814020207 $151 $228 forward 7 unknown #
coedge $-1 $146 $94 $226 $229 forward $155 $-1 #
coedge $-1 $94 $146 $222 $230 reversed $155 $-1 #
loop $-1 $-1 $153 $206 #
vertex $-1 $95 $231 #
vertex $-1 $95 $232 #
straight-curve $-1 63.877681814020207 0 11.407876821750392 0 1 0 I I #
face $-1 $-1 $171 $22 $-1 $233 forward single #
loop $-1 $-1 $234 $96 #
plane-surface $-1 -63.877681814020207 0 0 1 0 0 0 0 -1 forward_v I I I I #
coedge $-1 $235 $236 $237 $238 reversed $97 $-1 #
coedge $-1 $239 $99 $101 $169 forward $61 $-1 #
coedge $-1 $99 $239 $235 $240 forward $61 $-1 #
coedge $-1 $237 $102 $99 $166 forward $171 $-1 #
edge $-1 $173 -11.25855367783992 $241 4.8051552641180706 $165 $242 forward 7 unknown #
coedge $-1 $243 $244 $100 $168 forward $160 $-1 #
edge $-1 $245 -34.882893486804448 $172 -28.801946894233957 $167 $246 forward 7 unknown #
edge $-1 $173 -7.5164632799285576 $245 2.4161062406544664e-014 $101 $247 forward 7 unknown #
coedge $-1 $102 $237 $243 $248 forward $171 $-1 #
loop $-1 $-1 $237 $159 #
vertex $-1 $168 $249 #
vertex $-1 $103 $250 #
straight-curve $-1 -83.616971578588249 -14.485252884700845 11.407876821750392 1 0 0 I I #
coedge $-1 $175 $175 $-1 $251 reversed $106 $-1 #
edge $-1 $252 0 $252 6.2831853071796004 $107 $253 forward 7 unknown #
vertex $-1 $110 $254 #
ellipse-curve $-1 -61.668648723682935 -9.8956217584271293 8.3674035254651482 -0.80901700255871778 0 0.5877852410284794 0.5877852410284794 0 0.80901700255871778 1 I I #
coedge $-1 $179 $179 $-1 $255 reversed $113 $-1 #
edge $-1 $256 0 $256 6.2831853071796004 $114 $257 forward 7 unknown #
vertex $-1 $117 $258 #
ellipse-curve $-1 -61.668648723682935 -3.0111750690165593 8.3674035254651482 -0.80901700255871778 0 0.5877852410284794 0.5877852410284794 0 0.80901700255871778 1 I I #
face $-1 $-1 $259 $25 $-1 $260 reversed single #
loop $-1 $-1 $124 $118 #
plane-surface $-1 0 0 11.407876821750392 0 0 1 1 0 0 forward_v I I I I #
coedge $-1 $261 $262 $263 $264 reversed $119 $-1 #
coedge $-1 $265 $121 $123 $193 forward $75 $-1 #
coedge $-1 $121 $265 $261 $266 forward $75 $-1 #
coedge $-1 $263 $124 $121 $190 forward $184 $-1 #
edge $-1 $196 -22.571165535618061 $267 -6.2049941061191731 $189 $268 forward 7 unknown #
coedge $-1 $269 $270 $122 $192 forward $259 $-1 #
edge $-1 $271 -89.395974921062432 $195 -78.879768742202216 $191 $272 forward 7 unknown #
edge $-1 $196 111.04494680723576 $271 127.75536362804041 $123 $273 forward 7 unknown #
coedge $-1 $124 $263 $269 $274 forward $184 $-1 #
vertex $-1 $192 $275 #
vertex $-1 $125 $276 #
straight-curve $-1 22.496087059975537 36.959245356486676 11.407876821750392 -1 0 0 I I #
coedge $-1 $198 $198 $-1 $277 reversed $128 $-1 #
edge $-1 $278 0 $278 6.2831853071796004 $129 $279 forward 7 unknown #
vertex $-1 $132 $280 #
ellipse-curve $-1 57.384465393617816 25.269122906844608 6.1497737323202779 0.62932039886446345 0 0.77714595512881146 0.77714595512881146 0 -0.62932039886446345 1 I I #
coedge $-1 $202 $202 $-1 $281 reversed $135 $-1 #
edge $-1 $282 0 $282 6.2831853071796004 $136 $283 forward 7 unknown #
vertex $-1 $139 $284 #
ellipse-curve $-1 57.384465393617816 32.283196376629839 6.1497737323202779 0.62932039886446345 0 0.77714595512881146 0.77714595512881146 0 -0.62932039886446345 1 I I #
face $-1 $-1 $155 $21 $-1 $285 reversed single #
loop $-1 $-1 $222 $140 #
plane-surface $-1 0 40.28775743598451 0 0 -1 0 0 0 -1 forward_v I I I I #
coedge $-1 $286 $220 $223 $287 forward $141 $-1 #
coedge $-1 $226 $143 $144 $214 reversed $89 $-1 #
coedge $-1 $220 $286 $143 $212 reversed $141 $-1 #
edge $-1 $227 -11.407876821750392 $288 11.407876821750392 $211 $289 forward 7 unknown #
coedge $-1 $145 $144 $286 $290 forward $57 $-1 #
edge $-1 $218 -63.877681814020207 $288 63.877681814020207 $210 $291 forward 7 unknown #
coedge $-1 $223 $222 $145 $216 reversed $207 $-1 #
edge $-1 $292 -63.877681814020207 $217 63.877681814020207 $215 $293 forward 7 unknown #
vertex $-1 $147 $294 #
vertex $-1 $229 $295 #
straight-curve $-1 63.877681814020207 0 -11.407876821750392 0 -1 0 I I #
coedge $-1 $209 $211 $148 $221 reversed $141 $-1 #
edge $-1 $224 -40.28775743598451 $227 40.28775743598451 $220 $296 forward 7 unknown #
coedge $-1 $215 $149 $154 $230 forward $207 $-1 #
coedge $-1 $149 $215 $209 $287 reversed $207 $-1 #
vertex $-1 $150 $297 #
straight-curve $-1 0 40.28775743598451 11.407876821750392 -1 0 0 I I #
coedge $-1 $151 $210 $153 $229 reversed $89 $-1 #
vertex $-1 $221 $298 #
straight-curve $-1 0 -40.28775743598451 11.407876821750392 1 0 0 I I #
edge $-1 $156 -11.407876821750392 $218 11.407876821750392 $153 $299 forward 7 unknown #
edge $-1 $157 -11.407876821750392 $217 11.407876821750392 $154 $300 forward 7 unknown #
point $-1 63.877681814020207 -40.28775743598451 11.407876821750392 #
point $-1 63.877681814020207 40.28775743598451 11.407876821750392 #
plane-surface $-1 0 0 11.407876821750392 0 0 1 1 0 0 forward_v I I I I #
coedge $-1 $244 $243 $236 $301 forward $160 $-1 #
coedge $-1 $236 $162 $164 $240 reversed $97 $-1 #
coedge $-1 $162 $235 $234 $301 reversed $97 $-1 #
coedge $-1 $170 $165 $162 $238 forward $171 $-1 #
edge $-1 $241 -24.157355945242578 $302 -19.739289764568042 $237 $303 forward 7 unknown #
coedge $-1 $164 $163 $244 $304 reversed $61 $-1 #
edge $-1 $305 -2.4161062406544664e-014 $241 7.5164632799285576 $235 $306 forward 7 unknown #
vertex $-1 $166 $307 #
straight-curve $-1 -59.45961563334567 -3.2266992068609248 11.407876821750392 0 1 0 I I #
coedge $-1 $234 $167 $170 $248 reversed $160 $-1 #
coedge $-1 $167 $234 $239 $304 forward $160 $-1 #
vertex $-1 $168 $308 #
straight-curve $-1 -63.877681814020207 -14.485252884700845 40.209823715984349 0 0 1 I I #
straight-curve $-1 -63.877681814020193 -14.485252884700845 5.3269302291799221 -0.5877852410284794 0 -0.80901700255871778 I I #
edge $-1 $302 -1.5784560572571458 $172 14.485252884700845 $243 $309 forward 7 unknown #
point $-1 -63.877681814020207 -14.485252884700845 11.407876821750392 #
point $-1 -59.45961563334567 -14.485252884700845 11.407876821750392 #
edge $-1 $310 1 $310 0 $175 $-1 forward 7 unknown #
vertex $-1 $176 $311 #
ellipse-curve $-1 -60.320402272719356 -9.8956217584271293 7.3878451692884441 -0.80901700255871778 0 0.5877852410284794 0.5877852410284794 0 0.80901700255871778 1 I I #
point $-1 -61.080863482654465 -9.8956217584271293 9.1764205280238684 #
edge $-1 $312 1 $312 0 $179 $-1 forward 7 unknown #
vertex $-1 $180 $313 #
ellipse-curve $-1 -60.320402272719356 -3.0111750690165593 7.3878451692884441 -0.80901700255871778 0 0.5877852410284794 0.5877852410284794 0 0.80901700255871778 1 I I #
point $-1 -61.080863482654465 -3.0111750690165593 9.1764205280238684 #
loop $-1 $-1 $191 $183 #
plane-surface $-1 63.877681814020207 0 0 -1 0 0 0 0 1 forward_v I I I I #
coedge $-1 $262 $186 $188 $266 reversed $119 $-1 #
coedge $-1 $186 $261 $314 $315 reversed $119 $-1 #
coedge $-1 $194 $189 $186 $264 forward $184 $-1 #
edge $-1 $267 28.395161913239875 $316 41.38159475404467 $263 $317 forward 7 unknown #
coedge $-1 $188 $187 $270 $318 reversed $75 $-1 #
edge $-1 $319 -127.75536362804041 $267 -111.04494680723576 $261 $320 forward 7 unknown #
vertex $-1 $190 $321 #
straight-curve $-1 50.891248973215411 14.388079820868615 11.407876821750392 0 -1 0 I I #
coedge $-1 $314 $191 $194 $274 reversed $259 $-1 #
coedge $-1 $191 $314 $265 $318 forward $259 $-1 #
vertex $-1 $192 $322 #
straight-curve $-1 63.877681814020207 36.959245356486676 90.287645563952609 0 0 1 I I #
straight-curve $-1 -35.40688227552188 36.959245356486676 81.29072703836313 0.77714595512881146 0 -0.62932039886446345 I I #
edge $-1 $316 20.593073926987788 $195 36.959245356486676 $269 $323 forward 7 unknown #
point $-1 63.877681814020207 36.959245356486676 11.407876821750392 #
point $-1 50.891248973215411 36.959245356486676 11.407876821750392 #
edge $-1 $324 1 $324 0 $198 $-1 forward 7 unknown #
vertex $-1 $199 $325 #
ellipse-curve $-1 56.083609982506395 25.269122906844608 4.5433511171042058 0.62932039886446345 0 0.77714595512881146 0.77714595512881146 0 -0.62932039886446345 1 I I #
point $-1 58.161611348746625 25.269122906844608 5.5204533334558041 #
edge $-1 $326 1 $326 0 $202 $-1 forward 7 unknown #
vertex $-1 $203 $327 #
ellipse-curve $-1 56.083609982506395 32.283196376629839 4.5433511171042058 0.62932039886446345 0 0.77714595512881146 0.77714595512881146 0 -0.62932039886446345 1 I I #
point $-1 58.161611348746625 32.283196376629839 5.5204533334558041 #
plane-surface $-1 63.877681814020207 0 0 -1 0 0 0 0 1 forward_v I I I I #
coedge $-1 $211 $209 $213 $290 reversed $141 $-1 #
edge $-1 $224 -11.407876821750392 $292 11.407876821750392 $223 $328 forward 7 unknown #
vertex $-1 $290 $329 #
straight-curve $-1 -63.877681814020207 -40.28775743598451 0 0 0 -1 I I #
edge $-1 $288 -40.28775743598451 $292 40.28775743598451 $286 $330 forward 7 unknown #
straight-curve $-1 0 -40.28775743598451 -11.407876821750392 -1 0 0 I I #
vertex $-1 $216 $331 #
straight-curve $-1 0 40.28775743598451 -11.407876821750392 1 0 0 I I #
point $-1 63.877681814020207 40.28775743598451 -11.407876821750392 #
point $-1 63.877681814020207 -40.28775743598451 -11.407876821750392 #
straight-curve $-1 -63.877681814020207 0 11.407876821750392 0 -1 0 I I #
point $-1 -63.877681814020207 40.28775743598451 11.407876821750392 #
point $-1 -63.877681814020207 -40.28775743598451 11.407876821750392 #
straight-curve $-1 63.877681814020207 -40.28775743598451 0 0 0 -1 I I #
straight-curve $-1 63.877681814020207 40.28775743598451 0 0 0 -1 I I #
edge $-1 $302 28.801946894233957 $305 34.882893486804448 $234 $332 forward 7 unknown #
vertex $-1 $248 $333 #
straight-curve $-1 -83.616971578588249 1.5784560572571458 11.407876821750392 -1 0 0 I I #
edge $-1 $305 -4.8051552641180706 $245 11.25855367783992 $244 $334 forward 7 unknown #
vertex $-1 $304 $335 #
straight-curve $-1 -63.877681814020193 1.5784560572571458 5.3269302291799221 0.5877852410284794 0 0.80901700255871778 I I #
point $-1 -59.45961563334567 1.5784560572571458 11.407876821750392 #
point $-1 -63.877681814020207 -14.485252884700845 5.3269302291799026 #
straight-curve $-1 -63.877681814020207 0 11.407876821750392 0 -1 0 I I #
vertex $-1 $251 $336 #
point $-1 -59.732617031690879 -9.8956217584271293 8.1968621718471617 #
vertex $-1 $255 $337 #
point $-1 -59.732617031690879 -3.0111750690165593 8.1968621718471617 #
coedge $-1 $270 $269 $262 $315 forward $259 $-1 #
edge $-1 $316 78.879768742202216 $319 89.395974921062432 $314 $338 forward 7 unknown #
vertex $-1 $274 $339 #
straight-curve $-1 22.496087059975537 20.593073926987788 11.407876821750392 1 0 0 I I #
edge $-1 $319 6.2049941061191731 $271 22.571165535618061 $270 $340 forward 7 unknown #
vertex $-1 $318 $341 #
straight-curve $-1 -35.40688227552188 20.593073926987788 81.29072703836313 -0.77714595512881146 0 0.62932039886446345 I I #
point $-1 50.891248973215411 20.593073926987788 11.407876821750392 #
point $-1 63.877681814020207 36.959245356486676 0.89167064289017617 #
straight-curve $-1 63.877681814020207 0 11.407876821750392 0 1 0 I I #
vertex $-1 $277 $342 #
point $-1 56.860755937635204 25.269122906844608 3.9140307182397427 #
vertex $-1 $281 $343 #
point $-1 56.860755937635204 32.283196376629839 3.9140307182397427 #
straight-curve $-1 -63.877681814020207 40.28775743598451 0 0 0 -1 I I #
point $-1 -63.877681814020207 -40.28775743598451 -11.407876821750392 #
straight-curve $-1 -63.877681814020207 0 -11.407876821750392 0 1 0 I I #
point $-1 -63.877681814020207 40.28775743598451 -11.407876821750392 #
straight-curve $-1 -63.877681814020207 1.5784560572571458 40.209823715984349 0 0 -1 I I #
point $-1 -63.877681814020207 1.5784560572571458 11.407876821750392 #
straight-curve $-1 -63.877681814020207 -3.2266992068609248 5.3269302291798981 0 -1 0 I I #
point $-1 -63.877681814020207 1.5784560572571458 5.3269302291799026 #
point $-1 -59.511385270160638 -9.8956217584271293 6.800059928259965 #
point $-1 -59.511385270160638 -3.0111750690165593 6.800059928259965 #
straight-curve $-1 63.877681814020207 20.593073926987788 90.287645563952609 0 0 -1 I I #
point $-1 63.877681814020207 20.593073926987788 11.407876821750392 #
straight-curve $-1 63.877681814020207 14.388079820868615 0.89167064289016906 0 1 0 I I #
point $-1 63.877681814020207 20.593073926987788 0.89167064289017617 #
point $-1 55.454289583641931 25.269122906844608 3.7662051619753947 #
point $-1 55.454289583641931 32.283196376629839 3.7662051619753947 #
End-of-ACIS-data 