500 0 4 0           
7 Unknown 11 ACIS 5.0 NT 24 Thu Mar 25 18:01:34 1999 
-1 9.9999999999999995e-007 1e-010 
body $-1 $4 $-1 $5 #
body $-1 $6 $-1 $7 #
body $-1 $8 $-1 $9 #
body $-1 $10 $-1 $11 #
lump $-1 $-1 $12 $0 #
transform $-1 1 0 0 0 1 0 0 0 1 44.178594317453538 26.755641802200589 10.4213661669706 1 rotate no_reflect no_shear #
lump $-1 $-1 $13 $1 #
transform $-1 1 0 0 0 1 0 0 0 1 44.178594317453538 26.755641802200589 10.4213661669706 1 rotate no_reflect no_shear #
lump $-1 $-1 $14 $2 #
transform $-1 1 0 0 0 1 0 0 0 1 44.178594317453538 26.755641802200589 10.4213661669706 1 rotate no_reflect no_shear #
lump $-1 $-1 $15 $3 #
transform $-1 1 0 0 0 1 0 0 0 1 44.178594317453538 26.755641802200589 10.4213661669706 1 rotate no_reflect no_shear #
shell $-1 $-1 $-1 $16 $-1 $4 #
shell $-1 $-1 $-1 $17 $-1 $6 #
shell $-1 $-1 $-1 $18 $-1 $8 #
shell $-1 $-1 $-1 $19 $-1 $10 #
face $-1 $20 $21 $12 $-1 $22 forward single #
face $-1 $23 $24 $13 $-1 $25 reversed single #
face $-1 $26 $27 $14 $-1 $28 reversed single #
face $-1 $29 $30 $15 $-1 $31 forward single #
face $-1 $32 $33 $12 $-1 $34 reversed single #
loop $-1 $-1 $35 $16 #
plane-surface $-1 0 0 10.4213661669706 0 0 1 1 0 0 forward_v I I I I #
face $-1 $36 $37 $13 $-1 $38 reversed single #
loop $-1 $-1 $39 $17 #
plane-surface $-1 -33.543324099783824 -24.435411308169989 0 -1 0 0 0 0 1 forward_v I I I I #
face $-1 $40 $41 $14 $-1 $42 reversed single #
loop $-1 $-1 $43 $18 #
plane-surface $-1 -27.144139627542124 -26.755641802200593 4.6806223702693188 0 -0.62932039886446345 0.77714595512881146 1 0 0 forward_v I I I I #
face $-1 $44 $45 $15 $-1 $46 forward single #
loop $-1 $47 $48 $19 #
cone-surface $-1 -27.144139627542128 -22.261443853988919 6.378355803091603 0 0.62932039886446345 -0.77714595512881146 1.5 0 0 1 I I 0 1 1.5 forward I I I I #
face $-1 $49 $50 $12 $-1 $51 reversed single #
loop $-1 $-1 $52 $20 #
plane-surface $-1 0 0 -10.4213661669706 0 0 1 1 0 0 forward_v I I I I #
coedge $-1 $53 $54 $55 $56 forward $21 $-1 #
face $-1 $57 $58 $13 $-1 $59 forward single #
loop $-1 $-1 $60 $23 #
plane-surface $-1 -38.860959208618681 -22.115180814139389 0 0 -1 0 0 0 -1 forward_v I I I I #
coedge $-1 $61 $62 $63 $64 reversed $24 $-1 #
face $-1 $65 $66 $14 $-1 $67 forward single #
loop $-1 $-1 $68 $26 #
plane-surface $-1 -20.744955155300424 -82.360622996462951 73.347054124440746 -1 0 0 0 -0.62932039886446345 0.77714595512881146 forward_v I I I I #
coedge $-1 $69 $70 $71 $72 reversed $27 $-1 #
face $-1 $-1 $73 $15 $-1 $74 forward single #
loop $-1 $75 $76 $29 #
cone-surface $-1 -27.144139627542128 -20.83986962922161 4.6228578712166435 0 0.62932039886446345 -0.77714595512881146 0.75 0 0 1 I I -0.70710678118654757 0.70710678118654757 0.75 forward I I I I #
loop $-1 $-1 $77 $19 #
coedge $-1 $48 $48 $78 $79 reversed $30 $-1 #
face $-1 $80 $81 $12 $-1 $82 reversed single #
loop $-1 $-1 $83 $32 #
plane-surface $-1 0 -26.755641802200589 0 0 1 0 0 0 1 forward_v I I I I #
coedge $-1 $84 $85 $86 $87 forward $33 $-1 #
coedge $-1 $88 $35 $89 $90 forward $21 $-1 #
coedge $-1 $35 $88 $91 $92 forward $21 $-1 #
coedge $-1 $93 $94 $35 $56 reversed $95 $-1 #
edge $-1 $96 -26.755641802200589 $97 26.755641802200589 $55 $98 forward 7 unknown #
face $-1 $99 $100 $13 $-1 $101 reversed single #
loop $-1 $-1 $102 $36 #
plane-surface $-1 0 0 10.4213661669706 0 0 1 1 0 0 forward_v I I I I #
coedge $-1 $103 $104 $105 $106 forward $37 $-1 #
coedge $-1 $105 $39 $107 $108 reversed $24 $-1 #
coedge $-1 $39 $105 $102 $109 reversed $24 $-1 #
coedge $-1 $110 $111 $39 $64 forward $112 $-1 #
edge $-1 $113 -10.4213661669706 $114 10.4213661669706 $63 $115 forward 7 unknown #
face $-1 $116 $117 $14 $-1 $118 forward single #
loop $-1 $-1 $119 $40 #
plane-surface $-1 0 0 10.4213661669706 0 0 1 1 0 0 forward_v I I I I #
coedge $-1 $120 $121 $122 $123 reversed $41 $-1 #
coedge $-1 $124 $43 $125 $126 reversed $27 $-1 #
coedge $-1 $43 $124 $120 $127 forward $27 $-1 #
coedge $-1 $122 $128 $43 $72 forward $129 $-1 #
edge $-1 $130 -19.971254286012762 $131 -7.1728853415293621 $71 $132 forward 7 unknown #
loop $-1 $-1 $78 $44 #
plane-surface $-1 -27.144139627542124 -26.755641802200593 4.6806223702693188 0 -0.62932039886446345 0.77714595512881146 1 0 0 forward_v I I I I #
loop $-1 $-1 $133 $29 #
coedge $-1 $76 $76 $77 $134 reversed $45 $-1 #
coedge $-1 $77 $77 $76 $134 forward $47 $-1 #
coedge $-1 $78 $78 $48 $79 forward $73 $-1 #
edge $-1 $135 -4.5022562042465652e-017 $135 6.2831853071796004 $78 $136 forward 7 unknown #
face $-1 $137 $138 $12 $-1 $139 reversed single #
loop $-1 $-1 $140 $49 #
plane-surface $-1 -44.178594317453538 0 0 1 0 0 0 0 -1 forward_v I I I I #
coedge $-1 $141 $91 $142 $143 forward $50 $-1 #
coedge $-1 $144 $52 $141 $145 forward $33 $-1 #
coedge $-1 $52 $144 $146 $147 forward $33 $-1 #
coedge $-1 $94 $93 $52 $87 reversed $95 $-1 #
edge $-1 $148 -26.755641802200589 $149 26.755641802200589 $86 $150 forward 7 unknown #
coedge $-1 $54 $53 $151 $152 forward $21 $-1 #
coedge $-1 $153 $154 $53 $90 reversed $138 $-1 #
edge $-1 $97 -44.178594317453538 $155 44.178594317453538 $89 $156 forward 7 unknown #
coedge $-1 $83 $157 $54 $92 reversed $50 $-1 #
edge $-1 $158 -44.178594317453538 $96 44.178594317453538 $91 $159 forward 7 unknown #
coedge $-1 $86 $55 $157 $160 forward $95 $-1 #
coedge $-1 $55 $86 $153 $161 reversed $95 $-1 #
loop $-1 $-1 $93 $137 #
vertex $-1 $56 $162 #
vertex $-1 $56 $163 #
straight-curve $-1 44.178594317453538 0 10.4213661669706 0 1 0 I I #
face $-1 $164 $165 $13 $-1 $166 reversed single #
loop $-1 $-1 $167 $57 #
plane-surface $-1 -44.178594317453538 0 0 1 0 0 0 0 -1 forward_v I I I I #
coedge $-1 $168 $169 $62 $109 forward $58 $-1 #
coedge $-1 $170 $60 $171 $172 reversed $37 $-1 #
coedge $-1 $60 $170 $168 $173 reversed $37 $-1 #
coedge $-1 $62 $61 $60 $106 reversed $24 $-1 #
edge $-1 $174 -10.4213661669706 $175 10.4213661669706 $105 $176 forward 7 unknown #
coedge $-1 $177 $171 $61 $108 forward $165 $-1 #
edge $-1 $175 9.8974751600543946 $113 14.537936148115595 $107 $178 forward 7 unknown #
edge $-1 $114 -14.537936148115595 $174 -9.8974751600543946 $102 $179 forward 7 unknown #
coedge $-1 $180 $63 $169 $181 reversed $112 $-1 #
coedge $-1 $63 $180 $177 $182 reversed $112 $-1 #
loop $-1 $-1 $63 $164 #
vertex $-1 $182 $183 #
vertex $-1 $64 $184 #
straight-curve $-1 -33.543324099783824 -26.755641802200589 0 0 0 1 I I #
face $-1 $-1 $129 $14 $-1 $185 reversed single #
loop $-1 $-1 $125 $65 #
plane-surface $-1 -33.543324099783824 -24.435411308169989 0 -1 0 0 0 0 1 forward_v I I I I #
coedge $-1 $186 $187 $121 $188 forward $66 $-1 #
coedge $-1 $121 $68 $70 $127 reversed $41 $-1 #
coedge $-1 $68 $120 $119 $188 reversed $41 $-1 #
coedge $-1 $189 $71 $68 $123 forward $129 $-1 #
edge $-1 $131 -31.99290469195105 $190 -26.252160895249773 $122 $191 forward 7 unknown #
coedge $-1 $70 $69 $186 $192 reversed $27 $-1 #
coedge $-1 $193 $194 $69 $126 forward $117 $-1 #
edge $-1 $195 -9.6933587730150137 $130 -0.57122669679470883 $125 $196 forward 7 unknown #
edge $-1 $197 -9.1221320762203106 $131 -4.4378234572560832e-015 $120 $198 forward 7 unknown #
coedge $-1 $71 $189 $193 $199 forward $129 $-1 #
loop $-1 $-1 $122 $116 #
vertex $-1 $126 $200 #
vertex $-1 $72 $201 #
straight-curve $-1 -13.572069813771062 -26.755641802200589 4.6806223702693224 1 0 0 I I #
coedge $-1 $133 $133 $-1 $202 reversed $75 $-1 #
edge $-1 $203 0 $203 6.2831853071796004 $76 $204 forward 7 unknown #
vertex $-1 $79 $205 #
ellipse-curve $-1 -27.144139627542128 -23.211027779607889 7.5509942686199629 0 -0.62932039886446345 0.77714595512881146 1.5 0 0 1 I I #
face $-1 $-1 $95 $12 $-1 $206 reversed single #
loop $-1 $-1 $153 $80 #
plane-surface $-1 0 26.755641802200589 0 0 -1 0 0 0 -1 forward_v I I I I #
coedge $-1 $207 $151 $154 $208 forward $81 $-1 #
coedge $-1 $157 $83 $84 $145 reversed $50 $-1 #
coedge $-1 $151 $207 $83 $143 reversed $81 $-1 #
edge $-1 $158 -10.4213661669706 $209 10.4213661669706 $142 $210 forward 7 unknown #
coedge $-1 $85 $84 $207 $211 forward $33 $-1 #
edge $-1 $149 -44.178594317453538 $209 44.178594317453538 $141 $212 forward 7 unknown #
coedge $-1 $154 $153 $85 $147 reversed $138 $-1 #
edge $-1 $213 -44.178594317453538 $148 44.178594317453538 $146 $214 forward 7 unknown #
vertex $-1 $87 $215 #
vertex $-1 $160 $216 #
straight-curve $-1 44.178594317453538 0 -10.4213661669706 0 -1 0 I I #
coedge $-1 $140 $142 $88 $152 reversed $81 $-1 #
edge $-1 $155 -26.755641802200589 $158 26.755641802200589 $151 $217 forward 7 unknown #
coedge $-1 $146 $89 $94 $161 forward $138 $-1 #
coedge $-1 $89 $146 $140 $208 reversed $138 $-1 #
vertex $-1 $90 $218 #
straight-curve $-1 0 26.755641802200589 10.4213661669706 -1 0 0 I I #
coedge $-1 $91 $141 $93 $160 reversed $50 $-1 #
vertex $-1 $152 $219 #
straight-curve $-1 0 -26.755641802200589 10.4213661669706 1 0 0 I I #
edge $-1 $96 -10.4213661669706 $149 10.4213661669706 $93 $220 forward 7 unknown #
edge $-1 $97 -10.4213661669706 $148 10.4213661669706 $94 $221 forward 7 unknown #
point $-1 44.178594317453538 -26.755641802200589 10.4213661669706 #
point $-1 44.178594317453538 26.755641802200589 10.4213661669706 #
face $-1 $-1 $112 $13 $-1 $222 reversed single #
loop $-1 $-1 $107 $99 #
plane-surface $-1 0 0 -10.4213661669706 0 0 1 1 0 0 forward_v I I I I #
coedge $-1 $223 $224 $170 $225 forward $100 $-1 #
coedge $-1 $226 $102 $104 $173 forward $58 $-1 #
coedge $-1 $102 $226 $110 $181 forward $58 $-1 #
coedge $-1 $104 $103 $167 $225 reversed $37 $-1 #
coedge $-1 $107 $227 $103 $172 forward $165 $-1 #
edge $-1 $228 -24.748114713144197 $175 -14.112844495474484 $171 $229 forward 7 unknown #
edge $-1 $174 14.112844495474484 $230 24.748114713144197 $168 $231 forward 7 unknown #
vertex $-1 $173 $232 #
vertex $-1 $172 $233 #
straight-curve $-1 -33.543324099783824 -22.115180814139389 0 0 0 -1 I I #
coedge $-1 $227 $107 $111 $182 forward $165 $-1 #
straight-curve $-1 -33.543324099783824 -12.217705654084995 -10.4213661669706 0 -1 0 I I #
straight-curve $-1 -33.543324099783824 -12.217705654084995 10.4213661669706 0 1 0 I I #
coedge $-1 $111 $110 $234 $235 forward $112 $-1 #
edge $-1 $236 -44.178594317453538 $114 -33.543324099783824 $110 $237 forward 7 unknown #
edge $-1 $113 33.543324099783824 $238 44.178594317453538 $111 $239 forward 7 unknown #
point $-1 -33.543324099783824 -26.755641802200589 -10.4213661669706 #
point $-1 -33.543324099783824 -26.755641802200589 10.4213661669706 #
plane-surface $-1 0 -26.755641802200589 0 0 1 0 0 0 1 forward_v I I I I #
coedge $-1 $240 $119 $124 $192 forward $66 $-1 #
coedge $-1 $119 $240 $189 $241 forward $66 $-1 #
edge $-1 $190 14.424669696030886 $197 21.513897741216283 $119 $242 forward 7 unknown #
coedge $-1 $128 $122 $187 $241 reversed $129 $-1 #
vertex $-1 $188 $243 #
straight-curve $-1 -20.744955155300424 -26.755641802200589 36.673527062220373 0 0 1 I I #
edge $-1 $197 7.1728853415293621 $195 19.971254286012762 $186 $244 forward 7 unknown #
coedge $-1 $194 $125 $128 $199 reversed $117 $-1 #
coedge $-1 $125 $193 $240 $245 reversed $117 $-1 #
vertex $-1 $245 $246 #
straight-curve $-1 -33.543324099783824 -27.199568319076189 4.3211377576004448 0 -0.77714595512881146 -0.62932039886446345 I I #
vertex $-1 $192 $247 #
straight-curve $-1 -20.744955155300424 -26.755641802200593 4.6806223702693188 0 -0.77714595512881146 -0.62932039886446345 I I #
edge $-1 $248 -10.4213661669706 $130 -4.6806223702693215 $128 $249 forward 7 unknown #
point $-1 -33.543324099783824 -26.755641802200589 4.6806223702693215 #
point $-1 -20.744955155300424 -26.755641802200589 4.6806223702693215 #
edge $-1 $250 1 $250 0 $133 $-1 forward 7 unknown #
vertex $-1 $134 $251 #
ellipse-curve $-1 -27.144139627542128 -21.311859928369959 5.2057173375632519 0 -0.62932039886446345 0.77714595512881146 1.5 0 0 1 I I #
point $-1 -25.644139627542128 -23.211027779607882 7.550994268619954 #
plane-surface $-1 44.178594317453538 0 0 -1 0 0 0 0 1 forward_v I I I I #
coedge $-1 $142 $140 $144 $211 reversed $81 $-1 #
edge $-1 $155 -10.4213661669706 $213 10.4213661669706 $154 $252 forward 7 unknown #
vertex $-1 $211 $253 #
straight-curve $-1 -44.178594317453538 -26.755641802200589 0 0 0 -1 I I #
edge $-1 $209 -26.755641802200589 $213 26.755641802200589 $207 $254 forward 7 unknown #
straight-curve $-1 0 -26.755641802200589 -10.4213661669706 -1 0 0 I I #
vertex $-1 $147 $255 #
straight-curve $-1 0 26.755641802200589 -10.4213661669706 1 0 0 I I #
point $-1 44.178594317453538 26.755641802200589 -10.4213661669706 #
point $-1 44.178594317453538 -26.755641802200589 -10.4213661669706 #
straight-curve $-1 -44.178594317453538 0 10.4213661669706 0 -1 0 I I #
point $-1 -44.178594317453538 26.755641802200589 10.4213661669706 #
point $-1 -44.178594317453538 -26.755641802200589 10.4213661669706 #
straight-curve $-1 44.178594317453538 -26.755641802200589 0 0 0 -1 I I #
straight-curve $-1 44.178594317453538 26.755641802200589 0 0 0 -1 I I #
plane-surface $-1 0 -26.755641802200589 0 0 1 0 0 0 1 forward_v I I I I #
coedge $-1 $234 $167 $227 $256 reversed $100 $-1 #
coedge $-1 $167 $234 $226 $257 reversed $100 $-1 #
edge $-1 $230 -10.4213661669706 $228 10.4213661669706 $167 $258 forward 7 unknown #
coedge $-1 $169 $168 $224 $257 forward $58 $-1 #
coedge $-1 $171 $177 $223 $256 forward $165 $-1 #
vertex $-1 $172 $259 #
straight-curve $-1 -19.43047960430934 -22.115180814139389 -10.4213661669706 1 0 0 I I #
vertex $-1 $257 $260 #
straight-curve $-1 -19.43047960430934 -22.115180814139389 10.4213661669706 -1 0 0 I I #
point $-1 -33.543324099783824 -22.115180814139389 10.4213661669706 #
point $-1 -33.543324099783824 -22.115180814139389 -10.4213661669706 #
coedge $-1 $224 $223 $180 $235 reversed $100 $-1 #
edge $-1 $236 -10.4213661669706 $238 10.4213661669706 $234 $261 forward 7 unknown #
vertex $-1 $257 $262 #
straight-curve $-1 0 -26.755641802200589 10.4213661669706 1 0 0 I I #
vertex $-1 $256 $263 #
straight-curve $-1 0 -26.755641802200589 -10.4213661669706 -1 0 0 I I #
coedge $-1 $187 $186 $194 $245 forward $66 $-1 #
edge $-1 $248 -33.543324099783824 $190 -20.744955155300424 $189 $264 forward 7 unknown #
straight-curve $-1 -20.744955155300424 -41.180311498231475 10.4213661669706 0 1 0 I I #
point $-1 -20.744955155300424 -26.755641802200589 10.4213661669706 #
straight-curve $-1 -13.572069813771062 -19.666413757015192 10.4213661669706 -1 0 0 I I #
edge $-1 $195 -21.513897741216283 $248 -14.424669696030886 $240 $265 forward 7 unknown #
point $-1 -33.543324099783824 -19.666413757015192 10.4213661669706 #
point $-1 -20.744955155300424 -19.666413757015192 10.4213661669706 #
vertex $-1 $241 $266 #
straight-curve $-1 -33.543324099783824 -26.755641802200589 0 0 0 -1 I I #
vertex $-1 $202 $267 #
point $-1 -25.644139627542128 -21.311859928369959 5.2057173375632519 #
straight-curve $-1 -44.178594317453538 26.755641802200589 0 0 0 -1 I I #
point $-1 -44.178594317453538 -26.755641802200589 -10.4213661669706 #
straight-curve $-1 -44.178594317453538 0 -10.4213661669706 0 1 0 I I #
point $-1 -44.178594317453538 26.755641802200589 -10.4213661669706 #
edge $-1 $238 -26.755641802200589 $228 -22.115180814139389 $223 $268 forward 7 unknown #
edge $-1 $230 22.115180814139389 $236 26.755641802200589 $224 $269 forward 7 unknown #
straight-curve $-1 -44.178594317453538 -22.115180814139389 0 0 0 -1 I I #
point $-1 -44.178594317453538 -22.115180814139389 -10.4213661669706 #
point $-1 -44.178594317453538 -22.115180814139389 10.4213661669706 #
straight-curve $-1 -44.178594317453538 -26.755641802200589 0 0 0 -1 I I #
point $-1 -44.178594317453538 -26.755641802200589 10.4213661669706 #
point $-1 -44.178594317453538 -26.755641802200589 -10.4213661669706 #
straight-curve $-1 0 -26.755641802200589 10.4213661669706 1 0 0 I I #
straight-curve $-1 -33.543324099783824 -41.180311498231475 10.4213661669706 0 -1 0 I I #
point $-1 -33.543324099783824 -26.755641802200589 10.4213661669706 #
point $-1 -27.144139627542128 -20.367879330073261 4.039998404870035 #
straight-curve $-1 -44.178594317453538 0 -10.4213661669706 0 1 0 I I #
straight-curve $-1 -44.178594317453538 0 10.4213661669706 0 -1 0 I I #
End-of-ACIS-data 