500 0 9 0           
7 Unknown 11 ACIS 5.0 NT 24 Fri Mar 26 01:27:43 1999 
-1 9.9999999999999995e-007 1e-010 
body $-1 $9 $-1 $10 #
body $-1 $11 $-1 $12 #
body $-1 $13 $-1 $14 #
body $-1 $15 $-1 $16 #
body $-1 $17 $-1 $18 #
body $-1 $19 $-1 $20 #
body $-1 $21 $-1 $22 #
body $-1 $23 $-1 $24 #
body $-1 $25 $-1 $26 #
lump $-1 $-1 $27 $0 #
transform $-1 1 0 0 0 1 0 0 0 1 73.920712912381362 35.09558820479829 14.918436532772407 1 rotate no_reflect no_shear #
lump $-1 $-1 $28 $1 #
transform $-1 1 0 0 0 1 0 0 0 1 73.920712912381362 35.09558820479829 14.918436532772407 1 rotate no_reflect no_shear #
lump $-1 $-1 $29 $2 #
transform $-1 1 0 0 0 1 0 0 0 1 73.920712912381362 35.09558820479829 14.918436532772407 1 rotate no_reflect no_shear #
lump $-1 $-1 $30 $3 #
transform $-1 1 0 0 0 1 0 0 0 1 73.920712912381362 35.09558820479829 14.918436532772407 1 rotate no_reflect no_shear #
lump $-1 $-1 $31 $4 #
transform $-1 1 0 0 0 1 0 0 0 1 73.920712912381362 35.09558820479829 14.918436532772407 1 rotate no_reflect no_shear #
lump $-1 $-1 $32 $5 #
transform $-1 1 0 0 0 1 0 0 0 1 73.920712912381362 35.09558820479829 14.918436532772407 1 rotate no_reflect no_shear #
lump $-1 $-1 $33 $6 #
transform $-1 1 0 0 0 1 0 0 0 1 73.920712912381362 35.09558820479829 14.918436532772407 1 rotate no_reflect no_shear #
lump $-1 $-1 $34 $7 #
transform $-1 1 0 0 0 1 0 0 0 1 73.920712912381362 35.09558820479829 14.918436532772407 1 rotate no_reflect no_shear #
lump $-1 $-1 $35 $8 #
transform $-1 1 0 0 0 1 0 0 0 1 73.920712912381362 35.09558820479829 14.918436532772407 1 rotate no_reflect no_shear #
shell $-1 $-1 $-1 $36 $-1 $9 #
shell $-1 $-1 $-1 $37 $-1 $11 #
shell $-1 $-1 $-1 $38 $-1 $13 #
shell $-1 $-1 $-1 $39 $-1 $15 #
shell $-1 $-1 $-1 $40 $-1 $17 #
shell $-1 $-1 $-1 $41 $-1 $19 #
shell $-1 $-1 $-1 $42 $-1 $21 #
shell $-1 $-1 $-1 $43 $-1 $23 #
shell $-1 $-1 $-1 $44 $-1 $25 #
face $-1 $45 $46 $27 $-1 $47 forward single #
face $-1 $48 $49 $28 $-1 $50 reversed single #
face $-1 $51 $52 $29 $-1 $53 forward single #
face $-1 $54 $55 $30 $-1 $56 forward single #
face $-1 $57 $58 $31 $-1 $59 forward single #
face $-1 $60 $61 $32 $-1 $62 reversed single #
face $-1 $63 $64 $33 $-1 $65 forward single #
face $-1 $66 $67 $34 $-1 $68 forward single #
face $-1 $69 $70 $35 $-1 $71 forward single #
face $-1 $72 $73 $27 $-1 $74 reversed single #
loop $-1 $-1 $75 $36 #
plane-surface $-1 0 0 14.918436532772407 0 0 1 1 0 0 forward_v I I I I #
face $-1 $76 $77 $28 $-1 $78 reversed single #
loop $-1 $-1 $79 $37 #
plane-surface $-1 0.66637992369802745 -146.67292985393613 100.06660775376329 -1 0 0 0 -0.75470958851134928 0.65605901945558964 forward_v I I I I #
face $-1 $80 $81 $29 $-1 $82 forward single #
loop $-1 $83 $84 $38 #
cone-surface $-1 -25.275601009439626 -29.008903449201306 8.1803125572794375 0 0.75470958851134928 -0.65605901945558964 1.5 0 0 1 I I 0 1 1.5 forward I I I I #
face $-1 $85 $86 $30 $-1 $87 forward single #
loop $-1 $88 $89 $39 #
cone-surface $-1 -15.547358159513003 -29.008903449201306 8.1803125572794375 0 0.75470958851134928 -0.65605901945558964 1.5 0 0 1 I I 0 1 1.5 forward I I I I #
face $-1 $90 $91 $31 $-1 $92 forward single #
loop $-1 $93 $94 $40 #
cone-surface $-1 -5.8191153095863797 -29.008903449201306 8.1803125572794375 0 0.75470958851134928 -0.65605901945558964 1.5 0 0 1 I I 0 1 1.5 forward I I I I #
face $-1 $95 $96 $32 $-1 $97 reversed single #
loop $-1 $-1 $98 $41 #
plane-surface $-1 -63.004295142967599 79.114338858842686 160.20939871707034 1 0 0 0 -0.6560590369687036 -0.75470957328743171 forward_v I I I I #
face $-1 $99 $100 $33 $-1 $101 forward single #
loop $-1 $102 $103 $42 #
cone-surface $-1 -54.738765139445277 24.77759776137826 5.0433425525205182 0 -0.6560590369687036 -0.75470957328743171 2.5 0 0 1 I I 0 1 2.5 forward I I I I #
face $-1 $104 $105 $34 $-1 $106 forward single #
loop $-1 $107 $108 $43 #
cone-surface $-1 -42.340470134161805 24.77759776137826 5.0433425525205182 0 -0.6560590369687036 -0.75470957328743171 2.5 0 0 1 I I 0 1 2.5 forward I I I I #
face $-1 $109 $110 $35 $-1 $111 forward single #
loop $-1 $112 $113 $44 #
cone-surface $-1 -29.942175128878326 24.77759776137826 5.0433425525205182 0 -0.6560590369687036 -0.75470957328743171 2.5 0 0 1 I I 0 1 2.5 forward I I I I #
face $-1 $114 $115 $27 $-1 $116 reversed single #
loop $-1 $-1 $117 $45 #
plane-surface $-1 0 0 -14.918436532772407 0 0 1 1 0 0 forward_v I I I I #
coedge $-1 $118 $119 $120 $121 forward $46 $-1 #
face $-1 $122 $123 $28 $-1 $124 reversed single #
loop $-1 $-1 $125 $48 #
plane-surface $-1 -15.54735815951301 -35.09558820479829 3.0739068922531771 0 -0.75470958851134928 0.65605901945558964 1 0 0 forward_v I I I I #
coedge $-1 $126 $127 $128 $129 reversed $49 $-1 #
face $-1 $-1 $130 $29 $-1 $131 forward single #
loop $-1 $132 $133 $51 #
cone-surface $-1 -25.275601009439626 -27.504332636947478 6.8724091374543939 0 0.75470958851134928 -0.65605901945558964 0.75 0 0 1 I I -0.70710678118654757 0.70710678118654757 0.75 forward I I I I #
loop $-1 $-1 $134 $38 #
coedge $-1 $84 $84 $135 $136 reversed $52 $-1 #
face $-1 $-1 $137 $30 $-1 $138 forward single #
loop $-1 $139 $140 $54 #
cone-surface $-1 -15.547358159513003 -27.504332636947478 6.8724091374543939 0 0.75470958851134928 -0.65605901945558964 0.75 0 0 1 I I -0.70710678118654757 0.70710678118654757 0.75 forward I I I I #
loop $-1 $-1 $141 $39 #
coedge $-1 $89 $89 $142 $143 reversed $55 $-1 #
face $-1 $-1 $144 $31 $-1 $145 forward single #
loop $-1 $146 $147 $57 #
cone-surface $-1 -5.8191153095863797 -27.504332636947478 6.8724091374543939 0 0.75470958851134928 -0.65605901945558964 0.75 0 0 1 I I -0.70710678118654757 0.70710678118654757 0.75 forward I I I I #
loop $-1 $-1 $148 $40 #
coedge $-1 $94 $94 $149 $150 reversed $58 $-1 #
face $-1 $151 $152 $32 $-1 $153 reversed single #
loop $-1 $-1 $154 $60 #
plane-surface $-1 -42.340470134161805 -17.878364591831172 48.632059318658179 0 0.6560590369687036 0.75470957328743171 1 0 0 forward_v I I I I #
coedge $-1 $155 $156 $157 $158 reversed $61 $-1 #
face $-1 $-1 $159 $33 $-1 $160 forward single #
loop $-1 $161 $162 $63 #
cone-surface $-1 -54.738765139445277 20.734967061150869 0.39282801220662478 0 -0.6560590369687036 -0.75470957328743171 1.25 0 0 1 I I -0.70710678118654746 0.70710678118654746 1.25 forward I I I I #
loop $-1 $-1 $163 $42 #
coedge $-1 $103 $103 $164 $165 reversed $64 $-1 #
face $-1 $-1 $166 $34 $-1 $167 forward single #
loop $-1 $168 $169 $66 #
cone-surface $-1 -42.340470134161805 20.734967061150869 0.39282801220662478 0 -0.6560590369687036 -0.75470957328743171 1.25 0 0 1 I I -0.70710678118654746 0.70710678118654746 1.25 forward I I I I #
loop $-1 $-1 $170 $43 #
coedge $-1 $108 $108 $171 $172 reversed $67 $-1 #
face $-1 $-1 $173 $35 $-1 $174 forward single #
loop $-1 $175 $176 $69 #
cone-surface $-1 -29.942175128878326 20.734967061150869 0.39282801220662478 0 -0.6560590369687036 -0.75470957328743171 1.25 0 0 1 I I -0.70710678118654746 0.70710678118654746 1.25 forward I I I I #
loop $-1 $-1 $177 $44 #
coedge $-1 $113 $113 $178 $179 reversed $70 $-1 #
face $-1 $180 $181 $27 $-1 $182 reversed single #
loop $-1 $-1 $183 $72 #
plane-surface $-1 0 -35.09558820479829 0 0 1 0 0 0 1 forward_v I I I I #
coedge $-1 $184 $185 $186 $187 forward $73 $-1 #
coedge $-1 $188 $75 $189 $190 forward $46 $-1 #
coedge $-1 $75 $188 $191 $192 forward $46 $-1 #
coedge $-1 $193 $194 $75 $121 reversed $195 $-1 #
edge $-1 $196 -35.09558820479829 $197 35.09558820479829 $120 $198 forward 7 unknown #
face $-1 $199 $200 $28 $-1 $201 reversed single #
loop $-1 $-1 $202 $76 #
plane-surface $-1 -31.761096242724047 -146.67292985393613 100.06660775376329 1 0 0 0 0.75470958851134928 -0.65605901945558964 forward_v I I I I #
coedge $-1 $203 $204 $205 $206 reversed $77 $-1 #
coedge $-1 $127 $79 $207 $208 reversed $49 $-1 #
coedge $-1 $79 $126 $203 $209 reversed $49 $-1 #
coedge $-1 $205 $210 $79 $129 forward $211 $-1 #
edge $-1 $212 38.240876722169773 $213 48.537168991623112 $128 $214 forward 7 unknown #
loop $-1 $-1 $135 $80 #
plane-surface $-1 -15.54735815951301 -35.09558820479829 3.0739068922531771 0 -0.75470958851134928 0.65605901945558964 1 0 0 forward_v I I I I #
loop $-1 $-1 $215 $51 #
coedge $-1 $133 $133 $134 $216 reversed $81 $-1 #
coedge $-1 $134 $134 $133 $216 forward $83 $-1 #
coedge $-1 $135 $135 $84 $136 forward $130 $-1 #
edge $-1 $217 3.1077198033604232e-015 $217 6.2831853071796031 $135 $218 forward 7 unknown #
loop $-1 $-1 $142 $85 #
plane-surface $-1 -15.54735815951301 -35.09558820479829 3.0739068922531771 0 -0.75470958851134928 0.65605901945558964 1 0 0 forward_v I I I I #
loop $-1 $-1 $219 $54 #
coedge $-1 $140 $140 $141 $220 reversed $86 $-1 #
coedge $-1 $141 $141 $140 $220 forward $88 $-1 #
coedge $-1 $142 $142 $89 $143 forward $137 $-1 #
edge $-1 $221 3.1077198033604232e-015 $221 6.2831853071796031 $142 $222 forward 7 unknown #
loop $-1 $-1 $149 $90 #
plane-surface $-1 -15.54735815951301 -35.09558820479829 3.0739068922531771 0 -0.75470958851134928 0.65605901945558964 1 0 0 forward_v I I I I #
loop $-1 $-1 $223 $57 #
coedge $-1 $147 $147 $148 $224 reversed $91 $-1 #
coedge $-1 $148 $148 $147 $224 forward $93 $-1 #
coedge $-1 $149 $149 $94 $150 forward $144 $-1 #
edge $-1 $225 3.1077198033604232e-015 $225 6.2831853071796031 $149 $226 forward 7 unknown #
face $-1 $227 $228 $32 $-1 $229 reversed single #
loop $-1 $-1 $230 $95 #
plane-surface $-1 -21.676645125356011 79.114338858842686 160.20939871707034 -1 0 0 0 0.6560590369687036 0.75470957328743171 forward_v I I I I #
coedge $-1 $231 $232 $233 $234 reversed $96 $-1 #
coedge $-1 $156 $98 $235 $236 reversed $61 $-1 #
coedge $-1 $98 $155 $231 $237 reversed $61 $-1 #
coedge $-1 $233 $238 $98 $158 forward $239 $-1 #
edge $-1 $240 4.4615812246230533 $241 18.652448303430056 $157 $242 forward 7 unknown #
loop $-1 $-1 $164 $99 #
plane-surface $-1 -42.340470134161805 -17.878364591831172 48.632059318658179 0 0.6560590369687036 0.75470957328743171 1 0 0 forward_v I I I I #
loop $-1 $-1 $243 $63 #
coedge $-1 $162 $162 $163 $244 reversed $100 $-1 #
coedge $-1 $163 $163 $162 $244 forward $102 $-1 #
coedge $-1 $164 $164 $103 $165 forward $159 $-1 #
edge $-1 $245 -9.4605392733002236e-017 $245 6.2831853071796004 $164 $246 forward 7 unknown #
loop $-1 $-1 $171 $104 #
plane-surface $-1 -42.340470134161805 -17.878364591831172 48.632059318658179 0 0.6560590369687036 0.75470957328743171 1 0 0 forward_v I I I I #
loop $-1 $-1 $247 $66 #
coedge $-1 $169 $169 $170 $248 reversed $105 $-1 #
coedge $-1 $170 $170 $169 $248 forward $107 $-1 #
coedge $-1 $171 $171 $108 $172 forward $166 $-1 #
edge $-1 $249 -9.4605392733002236e-017 $249 6.2831853071796004 $171 $250 forward 7 unknown #
loop $-1 $-1 $178 $109 #
plane-surface $-1 -42.340470134161805 -17.878364591831172 48.632059318658179 0 0.6560590369687036 0.75470957328743171 1 0 0 forward_v I I I I #
loop $-1 $-1 $251 $69 #
coedge $-1 $176 $176 $177 $252 reversed $110 $-1 #
coedge $-1 $177 $177 $176 $252 forward $112 $-1 #
coedge $-1 $178 $178 $113 $179 forward $173 $-1 #
edge $-1 $253 -9.4605392733002236e-017 $253 6.2831853071796004 $178 $254 forward 7 unknown #
face $-1 $255 $256 $27 $-1 $257 reversed single #
loop $-1 $-1 $258 $114 #
plane-surface $-1 -73.920712912381362 0 0 1 0 0 0 0 -1 forward_v I I I I #
coedge $-1 $259 $191 $260 $261 forward $115 $-1 #
coedge $-1 $262 $117 $259 $263 forward $73 $-1 #
coedge $-1 $117 $262 $264 $265 forward $73 $-1 #
coedge $-1 $194 $193 $117 $187 reversed $195 $-1 #
edge $-1 $266 -35.09558820479829 $267 35.09558820479829 $186 $268 forward 7 unknown #
coedge $-1 $119 $118 $269 $270 forward $46 $-1 #
coedge $-1 $271 $272 $118 $190 reversed $256 $-1 #
edge $-1 $197 -73.920712912381362 $273 73.920712912381362 $189 $274 forward 7 unknown #
coedge $-1 $183 $275 $119 $192 reversed $115 $-1 #
edge $-1 $276 -73.920712912381362 $196 73.920712912381362 $191 $277 forward 7 unknown #
coedge $-1 $186 $120 $275 $278 forward $195 $-1 #
coedge $-1 $120 $186 $271 $279 reversed $195 $-1 #
loop $-1 $-1 $193 $255 #
vertex $-1 $121 $280 #
vertex $-1 $121 $281 #
straight-curve $-1 73.920712912381362 0 14.918436532772407 0 1 0 I I #
face $-1 $-1 $211 $28 $-1 $282 forward single #
loop $-1 $-1 $283 $122 #
plane-surface $-1 0 -35.09558820479829 0 0 1 0 0 0 1 forward_v I I I I #
coedge $-1 $284 $285 $286 $287 reversed $123 $-1 #
coedge $-1 $288 $125 $127 $209 forward $77 $-1 #
coedge $-1 $125 $288 $284 $289 forward $77 $-1 #
coedge $-1 $286 $128 $125 $206 forward $211 $-1 #
edge $-1 $213 -8.4400590034545324 $290 23.987417162967542 $205 $291 forward 7 unknown #
coedge $-1 $292 $293 $126 $208 forward $200 $-1 #
edge $-1 $294 -46.959396984628469 $212 -35.114867344109243 $207 $295 forward 7 unknown #
edge $-1 $213 -15.694155501432478 $294 0 $127 $296 forward 7 unknown #
coedge $-1 $128 $286 $292 $297 forward $211 $-1 #
loop $-1 $-1 $286 $199 #
vertex $-1 $208 $298 #
vertex $-1 $129 $299 #
straight-curve $-1 0.66637992369802745 -73.336464926968063 14.918436532772404 0 1 0 I I #
coedge $-1 $215 $215 $-1 $300 reversed $132 $-1 #
edge $-1 $301 0 $301 6.2831853071796004 $133 $302 forward 7 unknown #
vertex $-1 $136 $303 #
ellipse-curve $-1 -25.275601009439626 -29.947442070071624 8.9961717125127905 0 -0.75470958851134928 0.65605901945558964 1.5 0 0 1 I I #
coedge $-1 $219 $219 $-1 $304 reversed $139 $-1 #
edge $-1 $305 0 $305 6.2831853071796004 $140 $306 forward 7 unknown #
vertex $-1 $143 $307 #
ellipse-curve $-1 -15.547358159513003 -29.947442070071624 8.9961717125127905 0 -0.75470958851134928 0.65605901945558964 1.5 0 0 1 I I #
coedge $-1 $223 $223 $-1 $308 reversed $146 $-1 #
edge $-1 $309 0 $309 6.2831853071796004 $147 $310 forward 7 unknown #
vertex $-1 $150 $311 #
ellipse-curve $-1 -5.8191153095863797 -29.947442070071624 8.9961717125127905 0 -0.75470958851134928 0.65605901945558964 1.5 0 0 1 I I #
face $-1 $-1 $239 $32 $-1 $312 forward single #
loop $-1 $-1 $313 $151 #
plane-surface $-1 0 35.09558820479829 0 0 -1 0 0 0 -1 forward_v I I I I #
coedge $-1 $314 $315 $316 $317 reversed $152 $-1 #
coedge $-1 $318 $154 $156 $237 forward $96 $-1 #
coedge $-1 $154 $318 $314 $319 forward $96 $-1 #
coedge $-1 $316 $157 $154 $234 forward $239 $-1 #
edge $-1 $241 -41.834060075886697 $320 -0.5064100582751081 $233 $321 forward 7 unknown #
coedge $-1 $322 $323 $155 $236 forward $228 $-1 #
edge $-1 $324 -77.522195638857312 $240 -65.186262825762768 $235 $325 forward 7 unknown #
edge $-1 $241 51.388092970502043 $324 70.191176409596579 $156 $326 forward 7 unknown #
coedge $-1 $157 $316 $322 $327 forward $239 $-1 #
loop $-1 $-1 $316 $227 #
vertex $-1 $236 $328 #
vertex $-1 $158 $329 #
straight-curve $-1 -63.004295142967599 39.557169429421343 14.918436532772404 0 -1 0 I I #
coedge $-1 $243 $243 $-1 $330 reversed $161 $-1 #
edge $-1 $331 0 $331 6.2831853071796004 $162 $332 forward 7 unknown #
vertex $-1 $165 $333 #
ellipse-curve $-1 -54.738765139445277 28.000154665394788 8.7504701262251388 0 0.6560590369687036 0.75470957328743171 2.5 0 0 1 I I #
coedge $-1 $247 $247 $-1 $334 reversed $168 $-1 #
edge $-1 $335 0 $335 6.2831853071796004 $169 $336 forward 7 unknown #
vertex $-1 $172 $337 #
ellipse-curve $-1 -42.340470134161805 28.000154665394788 8.7504701262251388 0 0.6560590369687036 0.75470957328743171 2.5 0 0 1 I I #
coedge $-1 $251 $251 $-1 $338 reversed $175 $-1 #
edge $-1 $339 0 $339 6.2831853071796004 $176 $340 forward 7 unknown #
vertex $-1 $179 $341 #
ellipse-curve $-1 -29.942175128878326 28.000154665394788 8.7504701262251388 0 0.6560590369687036 0.75470957328743171 2.5 0 0 1 I I #
face $-1 $-1 $195 $27 $-1 $342 reversed single #
loop $-1 $-1 $271 $180 #
plane-surface $-1 0 35.09558820479829 0 0 -1 0 0 0 -1 forward_v I I I I #
coedge $-1 $343 $269 $272 $344 forward $181 $-1 #
coedge $-1 $275 $183 $184 $263 reversed $115 $-1 #
coedge $-1 $269 $343 $183 $261 reversed $181 $-1 #
edge $-1 $276 -14.918436532772407 $345 14.918436532772407 $260 $346 forward 7 unknown #
coedge $-1 $185 $184 $343 $347 forward $73 $-1 #
edge $-1 $267 -73.920712912381362 $345 73.920712912381362 $259 $348 forward 7 unknown #
coedge $-1 $272 $271 $185 $265 reversed $256 $-1 #
edge $-1 $349 -73.920712912381362 $266 73.920712912381362 $264 $350 forward 7 unknown #
vertex $-1 $187 $351 #
vertex $-1 $278 $352 #
straight-curve $-1 73.920712912381362 0 -14.918436532772407 0 -1 0 I I #
coedge $-1 $258 $260 $188 $270 reversed $181 $-1 #
edge $-1 $273 -35.09558820479829 $276 35.09558820479829 $269 $353 forward 7 unknown #
coedge $-1 $264 $189 $194 $279 forward $256 $-1 #
coedge $-1 $189 $264 $258 $344 reversed $256 $-1 #
vertex $-1 $190 $354 #
straight-curve $-1 0 35.09558820479829 14.918436532772407 -1 0 0 I I #
coedge $-1 $191 $259 $193 $278 reversed $115 $-1 #
vertex $-1 $270 $355 #
straight-curve $-1 0 -35.09558820479829 14.918436532772407 1 0 0 I I #
edge $-1 $196 -14.918436532772407 $267 14.918436532772407 $193 $356 forward 7 unknown #
edge $-1 $197 -14.918436532772407 $266 14.918436532772407 $194 $357 forward 7 unknown #
point $-1 73.920712912381362 -35.09558820479829 14.918436532772407 #
point $-1 73.920712912381362 35.09558820479829 14.918436532772407 #
plane-surface $-1 0 0 14.918436532772407 0 0 1 1 0 0 forward_v I I I I #
coedge $-1 $293 $292 $285 $358 forward $200 $-1 #
coedge $-1 $285 $202 $204 $289 reversed $123 $-1 #
coedge $-1 $202 $284 $283 $358 reversed $123 $-1 #
coedge $-1 $210 $205 $202 $287 forward $211 $-1 #
edge $-1 $290 -48.537168991623112 $359 -38.240876722169773 $286 $360 forward 7 unknown #
coedge $-1 $204 $203 $293 $361 reversed $77 $-1 #
edge $-1 $362 0 $290 15.694155501432478 $284 $363 forward 7 unknown #
vertex $-1 $206 $364 #
straight-curve $-1 -7.773679079756505 -24.799295935344951 14.918436532772407 -1 0 0 I I #
coedge $-1 $283 $207 $210 $297 reversed $200 $-1 #
coedge $-1 $207 $283 $288 $361 forward $200 $-1 #
vertex $-1 $208 $365 #
straight-curve $-1 0.66637992369802745 -35.09558820479829 50.033303876881646 0 0 1 I I #
straight-curve $-1 0.66637992369802745 -35.09558820479829 3.0739068922531771 0 -0.65605901945558964 -0.75470958851134928 I I #
edge $-1 $359 -31.761096242724047 $212 0.66637992369802745 $292 $366 forward 7 unknown #
point $-1 0.66637992369802745 -35.09558820479829 14.918436532772407 #
point $-1 0.66637992369802745 -24.799295935344951 14.918436532772407 #
edge $-1 $367 1 $367 0 $215 $-1 forward 7 unknown #
vertex $-1 $216 $368 #
ellipse-curve $-1 -25.275601009439626 -28.070364828330991 7.3644534020460863 0 -0.75470958851134928 0.65605901945558964 1.5 0 0 1 I I #
point $-1 -23.775601009439626 -29.947442070071617 8.9961717125127905 #
edge $-1 $369 1 $369 0 $219 $-1 forward 7 unknown #
vertex $-1 $220 $370 #
ellipse-curve $-1 -15.547358159513003 -28.070364828330991 7.3644534020460863 0 -0.75470958851134928 0.65605901945558964 1.5 0 0 1 I I #
point $-1 -14.047358159513003 -29.947442070071617 8.9961717125127905 #
edge $-1 $371 1 $371 0 $223 $-1 forward 7 unknown #
vertex $-1 $224 $372 #
ellipse-curve $-1 -5.8191153095863797 -28.070364828330991 7.3644534020460863 0 -0.75470958851134928 0.65605901945558964 1.5 0 0 1 I I #
point $-1 -4.3191153095863797 -29.947442070071617 8.9961717125127905 #
plane-surface $-1 0 0 14.918436532772407 0 0 1 1 0 0 forward_v I I I I #
coedge $-1 $323 $322 $315 $373 forward $228 $-1 #
coedge $-1 $315 $230 $232 $319 reversed $152 $-1 #
coedge $-1 $230 $314 $313 $373 reversed $152 $-1 #
coedge $-1 $238 $233 $230 $317 forward $239 $-1 #
edge $-1 $320 -18.652448303430056 $374 -4.4615812246230533 $316 $375 forward 7 unknown #
coedge $-1 $232 $231 $323 $376 reversed $96 $-1 #
edge $-1 $377 -70.191176409596579 $320 -51.388092970502043 $314 $378 forward 7 unknown #
vertex $-1 $234 $379 #
straight-curve $-1 -21.170235067080903 20.904721125991287 14.918436532772411 1 0 0 I I #
coedge $-1 $313 $235 $238 $327 reversed $228 $-1 #
coedge $-1 $235 $313 $318 $376 forward $228 $-1 #
vertex $-1 $236 $380 #
straight-curve $-1 -63.004295142967599 35.09558820479829 80.104699358535171 0 0 1 I I #
straight-curve $-1 -63.004295142967599 -17.878364591831172 48.632059318658179 0 0.75470957328743171 -0.6560590369687036 I I #
edge $-1 $374 21.676645125356011 $240 63.004295142967599 $322 $381 forward 7 unknown #
point $-1 -63.004295142967599 35.09558820479829 14.918436532772407 #
point $-1 -63.004295142967599 20.904721125991287 14.918436532772404 #
edge $-1 $382 1 $382 0 $243 $-1 forward 7 unknown #
vertex $-1 $244 $383 #
ellipse-curve $-1 -54.738765139445277 21.55504085736175 1.3362149788159146 0 0.6560590369687036 0.75470957328743171 2.5 0 0 1 I I #
point $-1 -52.238765139445277 28.000154665394774 8.7504701262251228 #
edge $-1 $384 1 $384 0 $247 $-1 forward 7 unknown #
vertex $-1 $248 $385 #
ellipse-curve $-1 -42.340470134161805 21.55504085736175 1.3362149788159146 0 0.6560590369687036 0.75470957328743171 2.5 0 0 1 I I #
point $-1 -39.840470134161805 28.000154665394774 8.7504701262251228 #
edge $-1 $386 1 $386 0 $251 $-1 forward 7 unknown #
vertex $-1 $252 $387 #
ellipse-curve $-1 -29.942175128878326 21.55504085736175 1.3362149788159146 0 0.6560590369687036 0.75470957328743171 2.5 0 0 1 I I #
point $-1 -27.442175128878326 28.000154665394774 8.7504701262251228 #
plane-surface $-1 73.920712912381362 0 0 -1 0 0 0 0 1 forward_v I I I I #
coedge $-1 $260 $258 $262 $347 reversed $181 $-1 #
edge $-1 $273 -14.918436532772407 $349 14.918436532772407 $272 $388 forward 7 unknown #
vertex $-1 $347 $389 #
straight-curve $-1 -73.920712912381362 -35.09558820479829 0 0 0 -1 I I #
edge $-1 $345 -35.09558820479829 $349 35.09558820479829 $343 $390 forward 7 unknown #
straight-curve $-1 0 -35.09558820479829 -14.918436532772407 -1 0 0 I I #
vertex $-1 $265 $391 #
straight-curve $-1 0 35.09558820479829 -14.918436532772407 1 0 0 I I #
point $-1 73.920712912381362 35.09558820479829 -14.918436532772407 #
point $-1 73.920712912381362 -35.09558820479829 -14.918436532772407 #
straight-curve $-1 -73.920712912381362 0 14.918436532772407 0 -1 0 I I #
point $-1 -73.920712912381362 35.09558820479829 14.918436532772407 #
point $-1 -73.920712912381362 -35.09558820479829 14.918436532772407 #
straight-curve $-1 73.920712912381362 -35.09558820479829 0 0 0 -1 I I #
straight-curve $-1 73.920712912381362 35.09558820479829 0 0 0 -1 I I #
edge $-1 $359 35.114867344109243 $362 46.959396984628469 $283 $392 forward 7 unknown #
vertex $-1 $297 $393 #
straight-curve $-1 -31.761096242724047 -73.336464926968063 14.918436532772404 0 -1 0 I I #
edge $-1 $362 -23.987417162967542 $294 8.4400590034545324 $293 $394 forward 7 unknown #
vertex $-1 $361 $395 #
straight-curve $-1 -31.761096242724047 -35.09558820479829 3.0739068922531771 0 0.65605901945558964 0.75470958851134928 I I #
point $-1 -31.761096242724047 -24.799295935344951 14.918436532772407 #
point $-1 0.66637992369802745 -35.09558820479829 3.0739068922531771 #
straight-curve $-1 0 -35.09558820479829 14.918436532772407 1 0 0 I I #
vertex $-1 $300 $396 #
point $-1 -23.775601009439626 -28.070364828330991 7.3644534020460863 #
vertex $-1 $304 $397 #
point $-1 -14.047358159513003 -28.070364828330991 7.3644534020460863 #
vertex $-1 $308 $398 #
point $-1 -4.3191153095863797 -28.070364828330991 7.3644534020460863 #
edge $-1 $374 65.186262825762768 $377 77.522195638857312 $313 $399 forward 7 unknown #
vertex $-1 $327 $400 #
straight-curve $-1 -21.676645125356011 39.557169429421343 14.918436532772404 0 1 0 I I #
edge $-1 $377 0.5064100582751081 $324 41.834060075886697 $323 $401 forward 7 unknown #
vertex $-1 $376 $402 #
straight-curve $-1 -21.676645125356011 -17.878364591831172 48.632059318658179 0 -0.75470957328743171 0.6560590369687036 I I #
point $-1 -21.676645125356011 20.904721125991287 14.918436532772404 #
point $-1 -63.004295142967599 35.095588204798297 2.5825037196778666 #
straight-curve $-1 0 35.09558820479829 14.918436532772407 -1 0 0 I I #
vertex $-1 $330 $403 #
point $-1 -52.238765139445277 21.55504085736175 1.3362149788159146 #
vertex $-1 $334 $404 #
point $-1 -39.840470134161805 21.55504085736175 1.3362149788159146 #
vertex $-1 $338 $405 #
point $-1 -27.442175128878326 21.55504085736175 1.3362149788159146 #
straight-curve $-1 -73.920712912381362 35.09558820479829 0 0 0 -1 I I #
point $-1 -73.920712912381362 -35.09558820479829 -14.918436532772407 #
straight-curve $-1 -73.920712912381362 0 -14.918436532772407 0 1 0 I I #
point $-1 -73.920712912381362 35.09558820479829 -14.918436532772407 #
straight-curve $-1 -31.761096242724047 -35.09558820479829 50.033303876881646 0 0 -1 I I #
point $-1 -31.761096242724047 -35.09558820479829 14.918436532772407 #
straight-curve $-1 -7.773679079756505 -35.09558820479829 3.0739068922531763 1 0 0 I I #
point $-1 -31.761096242724047 -35.09558820479829 3.0739068922531771 #
point $-1 -25.275601009439626 -26.938300445563964 6.3803648728627014 #
point $-1 -15.547358159513003 -26.938300445563964 6.3803648728627014 #
point $-1 -5.8191153095863797 -26.938300445563964 6.3803648728627014 #
straight-curve $-1 -21.676645125356011 35.09558820479829 80.104699358535171 0 0 -1 I I #
point $-1 -21.676645125356011 35.09558820479829 14.918436532772407 #
straight-curve $-1 -21.170235067080903 35.09558820479829 2.5825037196778773 -1 0 0 I I #
point $-1 -21.676645125356011 35.095588204798297 2.5825037196778666 #
point $-1 -54.738765139445277 19.914893264939987 -0.55055895440266489 #
point $-1 -42.340470134161805 19.914893264939987 -0.55055895440266489 #
point $-1 -29.942175128878326 19.914893264939987 -0.55055895440266489 #
End-of-ACIS-data 