500 0 12 0           
7 Unknown 11 ACIS 5.0 NT 24 Fri Mar 26 14:30:19 1999 
-1 9.9999999999999995e-007 1e-010 
body $-1 $12 $-1 $13 #
body $-1 $14 $-1 $15 #
body $-1 $16 $-1 $17 #
body $-1 $18 $-1 $19 #
body $-1 $20 $-1 $21 #
body $-1 $22 $-1 $23 #
body $-1 $24 $-1 $25 #
body $-1 $26 $-1 $27 #
body $-1 $28 $-1 $29 #
body $-1 $30 $-1 $31 #
body $-1 $32 $-1 $33 #
body $-1 $34 $-1 $35 #
lump $-1 $-1 $36 $0 #
transform $-1 1 0 0 0 1 0 0 0 1 61.334879604480122 26.466261672283242 11.877872788107805 1 rotate no_reflect no_shear #
lump $-1 $-1 $37 $1 #
transform $-1 1 0 0 0 1 0 0 0 1 61.334879604480122 26.466261672283242 11.877872788107805 1 rotate no_reflect no_shear #
lump $-1 $-1 $38 $2 #
transform $-1 1 0 0 0 1 0 0 0 1 61.334879604480122 26.466261672283242 11.877872788107805 1 rotate no_reflect no_shear #
lump $-1 $-1 $39 $3 #
transform $-1 1 0 0 0 1 0 0 0 1 61.334879604480122 26.466261672283242 11.877872788107805 1 rotate no_reflect no_shear #
lump $-1 $-1 $40 $4 #
transform $-1 1 0 0 0 1 0 0 0 1 61.334879604480122 26.466261672283242 11.877872788107805 1 rotate no_reflect no_shear #
lump $-1 $-1 $41 $5 #
transform $-1 1 0 0 0 1 0 0 0 1 61.334879604480122 26.466261672283242 11.877872788107805 1 rotate no_reflect no_shear #
lump $-1 $-1 $42 $6 #
transform $-1 1 0 0 0 1 0 0 0 1 61.334879604480122 26.466261672283242 11.877872788107805 1 rotate no_reflect no_shear #
lump $-1 $-1 $43 $7 #
transform $-1 1 0 0 0 1 0 0 0 1 61.334879604480122 26.466261672283242 11.877872788107805 1 rotate no_reflect no_shear #
lump $-1 $-1 $44 $8 #
transform $-1 1 0 0 0 1 0 0 0 1 61.334879604480122 26.466261672283242 11.877872788107805 1 rotate no_reflect no_shear #
lump $-1 $-1 $45 $9 #
transform $-1 1 0 0 0 1 0 0 0 1 61.334879604480122 26.466261672283242 11.877872788107805 1 rotate no_reflect no_shear #
lump $-1 $-1 $46 $10 #
transform $-1 1 0 0 0 1 0 0 0 1 61.334879604480122 26.466261672283242 11.877872788107805 1 rotate no_reflect no_shear #
lump $-1 $-1 $47 $11 #
transform $-1 1 0 0 0 1 0 0 0 1 61.334879604480122 26.466261672283242 11.877872788107805 1 rotate no_reflect no_shear #
shell $-1 $-1 $-1 $48 $-1 $12 #
shell $-1 $-1 $-1 $49 $-1 $14 #
shell $-1 $-1 $-1 $50 $-1 $16 #
shell $-1 $-1 $-1 $51 $-1 $18 #
shell $-1 $-1 $-1 $52 $-1 $20 #
shell $-1 $-1 $-1 $53 $-1 $22 #
shell $-1 $-1 $-1 $54 $-1 $24 #
shell $-1 $-1 $-1 $55 $-1 $26 #
shell $-1 $-1 $-1 $56 $-1 $28 #
shell $-1 $-1 $-1 $57 $-1 $30 #
shell $-1 $-1 $-1 $58 $-1 $32 #
shell $-1 $-1 $-1 $59 $-1 $34 #
face $-1 $60 $61 $36 $-1 $62 forward single #
face $-1 $63 $64 $37 $-1 $65 forward single #
face $-1 $66 $67 $38 $-1 $68 reversed single #
face $-1 $69 $70 $39 $-1 $71 reversed single #
face $-1 $72 $73 $40 $-1 $74 forward single #
face $-1 $75 $76 $41 $-1 $77 forward single #
face $-1 $78 $79 $42 $-1 $80 reversed single #
face $-1 $81 $82 $43 $-1 $83 forward single #
face $-1 $84 $85 $44 $-1 $86 forward single #
face $-1 $87 $88 $45 $-1 $89 reversed single #
face $-1 $90 $91 $46 $-1 $92 forward single #
face $-1 $93 $94 $47 $-1 $95 forward single #
face $-1 $96 $97 $36 $-1 $98 reversed single #
loop $-1 $-1 $99 $48 #
plane-surface $-1 0 0 11.877872788107805 0 0 1 1 0 0 forward_v I I I I #
face $-1 $100 $101 $37 $-1 $102 reversed single #
loop $-1 $-1 $103 $49 #
plane-surface $-1 0 -26.466261672283242 0 0 1 0 0 0 1 forward_v I I I I #
face $-1 $104 $105 $38 $-1 $106 forward single #
loop $-1 $-1 $107 $50 #
plane-surface $-1 0 13.32994408518099 8.007080775853229 0 1 0 0 0 1 forward_v I I I I #
face $-1 $108 $109 $39 $-1 $110 reversed single #
loop $-1 $-1 $111 $51 #
plane-surface $-1 103.30379191138645 -6.4279456739435705 169.14661043591713 0 -1 0 -0.85716730853699208 0 -0.51503806187062418 forward_v I I I I #
face $-1 $112 $113 $40 $-1 $114 forward single #
loop $-1 $115 $116 $52 #
cone-surface $-1 57.583727697241962 -10.704225989601643 6.0906713945049606 -0.85716730853699208 0 -0.51503806187062418 0.25751903093531209 0 -0.42858365426849604 1 I I 0 1 0.5 forward I I I I #
face $-1 $117 $118 $41 $-1 $119 forward single #
loop $-1 $120 $121 $53 #
cone-surface $-1 57.583727697241962 -8.1384578002068011 6.0906713945049606 -0.85716730853699208 0 -0.51503806187062418 0.25751903093531209 0 -0.42858365426849604 1 I I 0 1 0.5 forward I I I I #
face $-1 $122 $123 $42 $-1 $124 reversed single #
loop $-1 $-1 $125 $54 #
plane-surface $-1 103.30379191138645 3.4509992056187127 169.14661043591713 0 -1 0 -0.85716730853699208 0 -0.51503806187062418 forward_v I I I I #
face $-1 $126 $127 $43 $-1 $128 forward single #
loop $-1 $129 $130 $55 #
cone-surface $-1 57.583727697241962 -0.82528111003935933 6.0906713945049606 -0.85716730853699208 0 -0.51503806187062418 0.25751903093531209 0 -0.42858365426849604 1 I I 0 1 0.5 forward I I I I #
face $-1 $131 $132 $44 $-1 $133 forward single #
loop $-1 $134 $135 $56 #
cone-surface $-1 57.583727697241962 1.7404870793554821 6.0906713945049606 -0.85716730853699208 0 -0.51503806187062418 0.25751903093531209 0 -0.42858365426849604 1 I I 0 1 0.5 forward I I I I #
face $-1 $136 $137 $45 $-1 $138 reversed single #
loop $-1 $-1 $139 $57 #
plane-surface $-1 -1.8447154286388923 10.336547864220346 105.9670154027981 0.85716730853699208 0 0.51503806187062418 0.51503806187062418 0 -0.85716730853699208 forward_v I I I I #
face $-1 $140 $141 $46 $-1 $142 forward single #
loop $-1 $143 $144 $58 #
cone-surface $-1 57.583727697241962 9.0536637695229238 6.0906713945049606 -0.85716730853699208 0 -0.51503806187062418 0.25751903093531209 0 -0.42858365426849604 1 I I 0 1 0.5 forward I I I I #
face $-1 $145 $146 $47 $-1 $147 forward single #
loop $-1 $148 $149 $59 #
cone-surface $-1 57.583727697241962 11.619431958917769 6.0906713945049606 -0.85716730853699208 0 -0.51503806187062418 0.25751903093531209 0 -0.42858365426849604 1 I I 0 1 0.5 forward I I I I #
face $-1 $150 $151 $36 $-1 $152 reversed single #
loop $-1 $-1 $153 $60 #
plane-surface $-1 0 0 -11.877872788107805 0 0 1 1 0 0 forward_v I I I I #
coedge $-1 $154 $155 $156 $157 forward $61 $-1 #
face $-1 $158 $159 $37 $-1 $160 forward single #
loop $-1 $-1 $161 $63 #
plane-surface $-1 -61.334879604480122 0 0 1 0 0 0 0 -1 forward_v I I I I #
coedge $-1 $162 $163 $164 $165 forward $64 $-1 #
face $-1 $166 $167 $38 $-1 $168 reversed single #
loop $-1 $-1 $169 $66 #
plane-surface $-1 0 19.898102878732114 9.931312842295462 0 0 1 1 0 0 forward_v I I I I #
coedge $-1 $170 $171 $172 $173 reversed $67 $-1 #
face $-1 $174 $175 $39 $-1 $176 reversed single #
loop $-1 $-1 $177 $69 #
plane-surface $-1 -1.8447154286388923 -9.42134189490422 105.9670154027981 0.85716730853699208 0 0.51503806187062418 0.51503806187062418 0 -0.85716730853699208 forward_v I I I I #
coedge $-1 $178 $179 $180 $181 reversed $70 $-1 #
face $-1 $-1 $182 $40 $-1 $183 forward single #
loop $-1 $184 $185 $72 #
cone-surface $-1 56.940852215839215 -10.704225989601643 5.7043928481019925 -0.85716730853699208 0 -0.51503806187062418 0.12875951546765604 0 -0.21429182713424802 1 I I -0.70710678118654746 0.70710678118654746 0.25 forward I I I I #
loop $-1 $-1 $186 $52 #
coedge $-1 $116 $116 $187 $188 reversed $73 $-1 #
face $-1 $-1 $189 $41 $-1 $190 forward single #
loop $-1 $191 $192 $75 #
cone-surface $-1 56.940852215839215 -8.1384578002068011 5.7043928481019925 -0.85716730853699208 0 -0.51503806187062418 0.12875951546765604 0 -0.21429182713424802 1 I I -0.70710678118654746 0.70710678118654746 0.25 forward I I I I #
loop $-1 $-1 $193 $53 #
coedge $-1 $121 $121 $194 $195 reversed $76 $-1 #
face $-1 $196 $197 $42 $-1 $198 reversed single #
loop $-1 $-1 $199 $78 #
plane-surface $-1 -1.8447154286388923 0.45760298465806315 105.9670154027981 0.85716730853699208 0 0.51503806187062418 0.51503806187062418 0 -0.85716730853699208 forward_v I I I I #
coedge $-1 $200 $201 $202 $203 reversed $79 $-1 #
face $-1 $-1 $204 $43 $-1 $205 forward single #
loop $-1 $206 $207 $81 #
cone-surface $-1 56.940852215839215 -0.82528111003935933 5.7043928481019925 -0.85716730853699208 0 -0.51503806187062418 0.12875951546765604 0 -0.21429182713424802 1 I I -0.70710678118654746 0.70710678118654746 0.25 forward I I I I #
loop $-1 $-1 $208 $55 #
coedge $-1 $130 $130 $209 $210 reversed $82 $-1 #
face $-1 $-1 $211 $44 $-1 $212 forward single #
loop $-1 $213 $214 $84 #
cone-surface $-1 56.940852215839215 1.7404870793554821 5.7043928481019925 -0.85716730853699208 0 -0.51503806187062418 0.12875951546765604 0 -0.21429182713424802 1 I I -0.70710678118654746 0.70710678118654746 0.25 forward I I I I #
loop $-1 $-1 $215 $56 #
coedge $-1 $135 $135 $216 $217 reversed $85 $-1 #
face $-1 $218 $219 $45 $-1 $220 reversed single #
loop $-1 $-1 $221 $87 #
plane-surface $-1 103.30379191138645 7.3431516432596968 169.14661043591713 0 1 0 0.85716730853699208 0 0.51503806187062418 forward_v I I I I #
coedge $-1 $222 $223 $224 $225 reversed $88 $-1 #
face $-1 $-1 $226 $46 $-1 $227 forward single #
loop $-1 $228 $229 $90 #
cone-surface $-1 56.940852215839215 9.0536637695229238 5.7043928481019925 -0.85716730853699208 0 -0.51503806187062418 0.12875951546765604 0 -0.21429182713424802 1 I I -0.70710678118654746 0.70710678118654746 0.25 forward I I I I #
loop $-1 $-1 $230 $58 #
coedge $-1 $144 $144 $231 $232 reversed $91 $-1 #
face $-1 $-1 $233 $47 $-1 $234 forward single #
loop $-1 $235 $236 $93 #
cone-surface $-1 56.940852215839215 11.619431958917769 5.7043928481019925 -0.85716730853699208 0 -0.51503806187062418 0.12875951546765604 0 -0.21429182713424802 1 I I -0.70710678118654746 0.70710678118654746 0.25 forward I I I I #
loop $-1 $-1 $237 $59 #
coedge $-1 $149 $149 $238 $239 reversed $94 $-1 #
face $-1 $240 $241 $36 $-1 $242 reversed single #
loop $-1 $-1 $243 $96 #
plane-surface $-1 0 -26.466261672283242 0 0 1 0 0 0 1 forward_v I I I I #
coedge $-1 $244 $245 $246 $247 forward $97 $-1 #
coedge $-1 $248 $99 $249 $250 forward $61 $-1 #
coedge $-1 $99 $248 $251 $252 forward $61 $-1 #
coedge $-1 $253 $254 $99 $157 reversed $255 $-1 #
edge $-1 $256 -26.466261672283242 $257 26.466261672283242 $156 $258 forward 7 unknown #
face $-1 $259 $260 $37 $-1 $261 reversed single #
loop $-1 $-1 $262 $100 #
plane-surface $-1 0 -31.545947231671935 -3.5842613564712842 0 0 1 1 0 0 forward_v I I I I #
coedge $-1 $263 $264 $163 $265 forward $101 $-1 #
coedge $-1 $266 $103 $267 $268 reversed $64 $-1 #
coedge $-1 $103 $266 $161 $265 reversed $64 $-1 #
coedge $-1 $269 $262 $103 $165 reversed $159 $-1 #
edge $-1 $270 -61.334879604480122 $271 61.334879604480122 $164 $272 forward 7 unknown #
face $-1 $273 $274 $38 $-1 $275 reversed single #
loop $-1 $-1 $276 $104 #
plane-surface $-1 0 19.898102878732114 6.082848709410996 0 0 1 1 0 0 forward_v I I I I #
coedge $-1 $277 $172 $278 $279 reversed $105 $-1 #
coedge $-1 $280 $107 $281 $282 reversed $67 $-1 #
coedge $-1 $107 $280 $283 $284 reversed $67 $-1 #
coedge $-1 $169 $285 $107 $173 forward $105 $-1 #
edge $-1 $286 -61.334879604480122 $287 61.334879604480122 $107 $288 forward 7 unknown #
face $-1 $289 $290 $39 $-1 $291 forward single #
loop $-1 $-1 $292 $108 #
plane-surface $-1 103.30379191138645 -12.41473811586487 169.14661043591713 0 1 0 0.85716730853699208 0 0.51503806187062418 forward_v I I I I #
coedge $-1 $293 $294 $295 $296 reversed $109 $-1 #
coedge $-1 $179 $111 $297 $298 reversed $70 $-1 #
coedge $-1 $111 $178 $293 $299 reversed $70 $-1 #
coedge $-1 $295 $300 $111 $181 forward $290 $-1 #
edge $-1 $301 -9.6829836487868945 $302 -3.0378471428476033 $180 $303 forward 7 unknown #
loop $-1 $-1 $187 $112 #
plane-surface $-1 -1.8447154286388923 -9.42134189490422 105.9670154027981 0.85716730853699208 0 0.51503806187062418 0.51503806187062418 0 -0.85716730853699208 forward_v I I I I #
loop $-1 $-1 $304 $72 #
coedge $-1 $185 $185 $186 $305 reversed $113 $-1 #
coedge $-1 $186 $186 $185 $305 forward $115 $-1 #
coedge $-1 $187 $187 $116 $188 forward $182 $-1 #
edge $-1 $306 0 $306 6.2831853071796004 $187 $307 forward 7 unknown #
loop $-1 $-1 $194 $117 #
plane-surface $-1 -1.8447154286388923 -9.42134189490422 105.9670154027981 0.85716730853699208 0 0.51503806187062418 0.51503806187062418 0 -0.85716730853699208 forward_v I I I I #
loop $-1 $-1 $308 $75 #
coedge $-1 $192 $192 $193 $309 reversed $118 $-1 #
coedge $-1 $193 $193 $192 $309 forward $120 $-1 #
coedge $-1 $194 $194 $121 $195 forward $189 $-1 #
edge $-1 $310 0 $310 6.2831853071796004 $194 $311 forward 7 unknown #
face $-1 $312 $313 $42 $-1 $314 reversed single #
loop $-1 $-1 $315 $122 #
plane-surface $-1 103.30379191138645 -2.5357932363025864 169.14661043591713 0 1 0 0.85716730853699208 0 0.51503806187062418 forward_v I I I I #
coedge $-1 $316 $317 $318 $319 reversed $123 $-1 #
coedge $-1 $201 $125 $320 $321 reversed $79 $-1 #
coedge $-1 $125 $200 $316 $322 reversed $79 $-1 #
coedge $-1 $318 $323 $125 $203 forward $324 $-1 #
edge $-1 $325 -9.6829836487868945 $326 -3.0378471428476033 $202 $327 forward 7 unknown #
loop $-1 $-1 $209 $126 #
plane-surface $-1 -1.8447154286388923 0.45760298465806315 105.9670154027981 0.85716730853699208 0 0.51503806187062418 0.51503806187062418 0 -0.85716730853699208 forward_v I I I I #
loop $-1 $-1 $328 $81 #
coedge $-1 $207 $207 $208 $329 reversed $127 $-1 #
coedge $-1 $208 $208 $207 $329 forward $129 $-1 #
coedge $-1 $209 $209 $130 $210 forward $204 $-1 #
edge $-1 $330 0 $330 6.2831853071796004 $209 $331 forward 7 unknown #
loop $-1 $-1 $216 $131 #
plane-surface $-1 -1.8447154286388923 0.45760298465806315 105.9670154027981 0.85716730853699208 0 0.51503806187062418 0.51503806187062418 0 -0.85716730853699208 forward_v I I I I #
loop $-1 $-1 $332 $84 #
coedge $-1 $214 $214 $215 $333 reversed $132 $-1 #
coedge $-1 $215 $215 $214 $333 forward $134 $-1 #
coedge $-1 $216 $216 $135 $217 forward $211 $-1 #
edge $-1 $334 0 $334 6.2831853071796004 $216 $335 forward 7 unknown #
face $-1 $336 $337 $45 $-1 $338 forward single #
loop $-1 $-1 $339 $136 #
plane-surface $-1 61.334879604480122 0 0 -1 0 0 0 0 1 forward_v I I I I #
coedge $-1 $340 $341 $342 $343 reversed $137 $-1 #
coedge $-1 $344 $139 $345 $346 forward $88 $-1 #
coedge $-1 $139 $344 $340 $347 forward $88 $-1 #
coedge $-1 $342 $348 $139 $225 forward $337 $-1 #
edge $-1 $349 -8.1616701530708227 $350 -2.1748777111495237 $224 $351 forward 7 unknown #
loop $-1 $-1 $231 $140 #
plane-surface $-1 -1.8447154286388923 10.336547864220346 105.9670154027981 0.85716730853699208 0 0.51503806187062418 0.51503806187062418 0 -0.85716730853699208 forward_v I I I I #
loop $-1 $-1 $352 $90 #
coedge $-1 $229 $229 $230 $353 reversed $141 $-1 #
coedge $-1 $230 $230 $229 $353 forward $143 $-1 #
coedge $-1 $231 $231 $144 $232 forward $226 $-1 #
edge $-1 $354 0 $354 6.2831853071796004 $231 $355 forward 7 unknown #
loop $-1 $-1 $238 $145 #
plane-surface $-1 -1.8447154286388923 10.336547864220346 105.9670154027981 0.85716730853699208 0 0.51503806187062418 0.51503806187062418 0 -0.85716730853699208 forward_v I I I I #
loop $-1 $-1 $356 $93 #
coedge $-1 $236 $236 $237 $357 reversed $146 $-1 #
coedge $-1 $237 $237 $236 $357 forward $148 $-1 #
coedge $-1 $238 $238 $149 $239 forward $233 $-1 #
edge $-1 $358 0 $358 6.2831853071796004 $238 $359 forward 7 unknown #
face $-1 $360 $361 $36 $-1 $362 reversed single #
loop $-1 $-1 $363 $150 #
plane-surface $-1 -61.334879604480122 0 0 1 0 0 0 0 -1 forward_v I I I I #
coedge $-1 $364 $251 $365 $366 forward $151 $-1 #
coedge $-1 $367 $153 $364 $368 forward $97 $-1 #
coedge $-1 $153 $367 $369 $370 forward $97 $-1 #
coedge $-1 $254 $253 $153 $247 reversed $255 $-1 #
edge $-1 $371 -26.466261672283242 $372 26.466261672283242 $246 $373 forward 7 unknown #
coedge $-1 $155 $154 $374 $375 forward $61 $-1 #
coedge $-1 $376 $377 $154 $250 reversed $361 $-1 #
edge $-1 $257 -61.334879604480122 $378 61.334879604480122 $249 $379 forward 7 unknown #
coedge $-1 $243 $380 $155 $252 reversed $151 $-1 #
edge $-1 $381 -61.334879604480122 $256 61.334879604480122 $251 $382 forward 7 unknown #
coedge $-1 $246 $156 $380 $383 forward $255 $-1 #
coedge $-1 $156 $246 $376 $384 reversed $255 $-1 #
loop $-1 $-1 $253 $360 #
vertex $-1 $157 $385 #
vertex $-1 $157 $386 #
straight-curve $-1 61.334879604480122 0 11.877872788107805 0 1 0 I I #
face $-1 $387 $388 $37 $-1 $389 reversed single #
loop $-1 $-1 $390 $158 #
plane-surface $-1 0 -31.545947231671935 -6.5842613564712842 0 0 1 1 0 0 forward_v I I I I #
coedge $-1 $164 $391 $392 $393 forward $159 $-1 #
coedge $-1 $394 $161 $395 $396 reversed $101 $-1 #
coedge $-1 $161 $394 $269 $397 reversed $101 $-1 #
edge $-1 $270 3.5842613564712842 $398 6.5842613564712842 $161 $399 forward 7 unknown #
coedge $-1 $163 $162 $400 $401 forward $64 $-1 #
coedge $-1 $392 $402 $162 $268 forward $403 $-1 #
edge $-1 $404 -6.5842613564712842 $271 -3.5842613564712842 $267 $405 forward 7 unknown #
coedge $-1 $391 $164 $264 $397 forward $159 $-1 #
vertex $-1 $265 $406 #
vertex $-1 $393 $407 #
straight-curve $-1 0 -26.466261672283242 -3.5842613564712842 1 0 0 I I #
face $-1 $408 $409 $38 $-1 $410 reversed single #
loop $-1 $-1 $278 $166 #
plane-surface $-1 61.334879604480122 0 0 -1 0 0 0 0 1 forward_v I I I I #
coedge $-1 $411 $412 $413 $414 reversed $167 $-1 #
coedge $-1 $285 $169 $415 $416 reversed $105 $-1 #
coedge $-1 $283 $417 $169 $279 forward $274 $-1 #
edge $-1 $418 -16.517210232917179 $287 -3.3808926458149333 $278 $419 forward 7 unknown #
coedge $-1 $171 $170 $411 $420 reversed $67 $-1 #
coedge $-1 $421 $422 $170 $282 forward $409 $-1 #
edge $-1 $423 2.0793083214843815 $286 5.9277724543688475 $281 $424 forward 7 unknown #
coedge $-1 $413 $278 $171 $284 forward $274 $-1 #
edge $-1 $287 -5.9277724543688475 $425 -2.0793083214843815 $283 $426 forward 7 unknown #
coedge $-1 $172 $277 $421 $427 reversed $105 $-1 #
vertex $-1 $427 $428 #
vertex $-1 $279 $429 #
straight-curve $-1 0 13.32994408518099 9.931312842295462 1 0 0 I I #
face $-1 $-1 $430 $39 $-1 $431 reversed single #
loop $-1 $-1 $180 $174 #
plane-surface $-1 0 0 11.877872788107805 0 0 1 1 0 0 forward_v I I I I #
coedge $-1 $432 $433 $434 $435 reversed $175 $-1 #
coedge $-1 $436 $177 $179 $299 forward $109 $-1 #
coedge $-1 $177 $436 $432 $437 forward $109 $-1 #
coedge $-1 $434 $180 $177 $296 forward $290 $-1 #
edge $-1 $302 1.7172747264914605 $438 7.7040671684127595 $295 $439 forward 7 unknown #
coedge $-1 $440 $441 $178 $298 forward $430 $-1 #
edge $-1 $442 -83.75479715518577 $301 -72.695432429850754 $297 $443 forward 7 unknown #
edge $-1 $302 109.76753508633114 $442 122.6697592089602 $179 $444 forward 7 unknown #
coedge $-1 $180 $434 $440 $445 forward $290 $-1 #
vertex $-1 $298 $446 #
vertex $-1 $181 $447 #
straight-curve $-1 51.651895955693227 -6.4279456739435705 11.877872788107808 -1 0 0 I I #
coedge $-1 $304 $304 $-1 $448 reversed $184 $-1 #
edge $-1 $449 0 $449 6.2831853071796004 $185 $450 forward 7 unknown #
vertex $-1 $188 $451 #
ellipse-curve $-1 58.012311351510476 -10.704225989601643 6.3481904254402837 0.85716730853699208 0 0.51503806187062418 0.25751903093531209 0 -0.42858365426849604 1 I I #
coedge $-1 $308 $308 $-1 $452 reversed $191 $-1 #
edge $-1 $453 0 $453 6.2831853071796004 $192 $454 forward 7 unknown #
vertex $-1 $195 $455 #
ellipse-curve $-1 58.012311351510476 -8.1384578002068011 6.3481904254402837 0.85716730853699208 0 0.51503806187062418 0.25751903093531209 0 -0.42858365426849604 1 I I #
face $-1 $-1 $324 $42 $-1 $456 forward single #
loop $-1 $-1 $457 $196 #
plane-surface $-1 61.334879604480122 0 0 -1 0 0 0 0 1 forward_v I I I I #
coedge $-1 $458 $459 $460 $461 reversed $197 $-1 #
coedge $-1 $462 $199 $201 $322 forward $123 $-1 #
coedge $-1 $199 $462 $458 $463 forward $123 $-1 #
coedge $-1 $460 $202 $199 $319 forward $324 $-1 #
edge $-1 $326 -3.2221977132896811 $464 2.7645947286316179 $318 $465 forward 7 unknown #
coedge $-1 $466 $467 $200 $321 forward $313 $-1 #
edge $-1 $468 -83.75479715518577 $325 -72.695432429850754 $320 $469 forward 7 unknown #
edge $-1 $326 109.76753508633114 $468 122.6697592089602 $201 $470 forward 7 unknown #
coedge $-1 $202 $460 $466 $471 forward $324 $-1 #
loop $-1 $-1 $460 $312 #
vertex $-1 $321 $472 #
vertex $-1 $203 $473 #
straight-curve $-1 51.651895955693227 3.4509992056187127 11.877872788107808 -1 0 0 I I #
coedge $-1 $328 $328 $-1 $474 reversed $206 $-1 #
edge $-1 $475 0 $475 6.2831853071796004 $207 $476 forward 7 unknown #
vertex $-1 $210 $477 #
ellipse-curve $-1 58.012311351510476 -0.82528111003935933 6.3481904254402837 0.85716730853699208 0 0.51503806187062418 0.25751903093531209 0 -0.42858365426849604 1 I I #
coedge $-1 $332 $332 $-1 $478 reversed $213 $-1 #
edge $-1 $479 0 $479 6.2831853071796004 $214 $480 forward 7 unknown #
vertex $-1 $217 $481 #
ellipse-curve $-1 58.012311351510476 1.7404870793554821 6.3481904254402837 0.85716730853699208 0 0.51503806187062418 0.25751903093531209 0 -0.42858365426849604 1 I I #
face $-1 $-1 $482 $45 $-1 $483 forward single #
loop $-1 $-1 $342 $218 #
plane-surface $-1 0 0 11.877872788107805 0 0 1 1 0 0 forward_v I I I I #
coedge $-1 $484 $485 $341 $486 forward $219 $-1 #
coedge $-1 $341 $221 $223 $347 reversed $137 $-1 #
coedge $-1 $221 $340 $339 $486 reversed $137 $-1 #
coedge $-1 $487 $224 $221 $343 forward $337 $-1 #
edge $-1 $350 3.0378471428476033 $488 9.6829836487868945 $342 $489 forward 7 unknown #
coedge $-1 $223 $222 $484 $490 reversed $88 $-1 #
coedge $-1 $491 $492 $222 $346 reversed $482 $-1 #
edge $-1 $349 109.76753508633114 $493 122.6697592089602 $345 $494 forward 7 unknown #
edge $-1 $495 -122.6697592089602 $350 -109.76753508633114 $340 $496 forward 7 unknown #
coedge $-1 $224 $487 $491 $497 forward $337 $-1 #
vertex $-1 $497 $498 #
vertex $-1 $225 $499 #
straight-curve $-1 54.689743098540816 5.1682739321101732 11.877872788107808 0 -1 0 I I #
coedge $-1 $352 $352 $-1 $500 reversed $228 $-1 #
edge $-1 $501 0 $501 6.2831853071796004 $229 $502 forward 7 unknown #
vertex $-1 $232 $503 #
ellipse-curve $-1 58.012311351510476 9.0536637695229238 6.3481904254402837 0.85716730853699208 0 0.51503806187062418 0.25751903093531209 0 -0.42858365426849604 1 I I #
coedge $-1 $356 $356 $-1 $504 reversed $235 $-1 #
edge $-1 $505 0 $505 6.2831853071796004 $236 $506 forward 7 unknown #
vertex $-1 $239 $507 #
ellipse-curve $-1 58.012311351510476 11.619431958917769 6.3481904254402837 0.85716730853699208 0 0.51503806187062418 0.25751903093531209 0 -0.42858365426849604 1 I I #
face $-1 $-1 $255 $36 $-1 $508 reversed single #
loop $-1 $-1 $376 $240 #
plane-surface $-1 0 26.466261672283242 0 0 -1 0 0 0 -1 forward_v I I I I #
coedge $-1 $509 $374 $377 $510 forward $241 $-1 #
coedge $-1 $380 $243 $244 $368 reversed $151 $-1 #
coedge $-1 $374 $509 $243 $366 reversed $241 $-1 #
edge $-1 $381 -11.877872788107805 $511 11.877872788107805 $365 $512 forward 7 unknown #
coedge $-1 $245 $244 $509 $513 forward $97 $-1 #
edge $-1 $372 -61.334879604480122 $511 61.334879604480122 $364 $514 forward 7 unknown #
coedge $-1 $377 $376 $245 $370 reversed $361 $-1 #
edge $-1 $515 -61.334879604480122 $371 61.334879604480122 $369 $516 forward 7 unknown #
vertex $-1 $247 $517 #
vertex $-1 $383 $518 #
straight-curve $-1 61.334879604480122 0 -11.877872788107805 0 -1 0 I I #
coedge $-1 $363 $365 $248 $375 reversed $241 $-1 #
edge $-1 $378 -26.466261672283242 $381 26.466261672283242 $374 $519 forward 7 unknown #
coedge $-1 $369 $249 $254 $384 forward $361 $-1 #
coedge $-1 $249 $369 $363 $510 reversed $361 $-1 #
vertex $-1 $250 $520 #
straight-curve $-1 0 26.466261672283242 11.877872788107805 -1 0 0 I I #
coedge $-1 $251 $364 $253 $383 reversed $151 $-1 #
vertex $-1 $375 $521 #
straight-curve $-1 0 -26.466261672283242 11.877872788107805 1 0 0 I I #
edge $-1 $256 -11.877872788107805 $372 11.877872788107805 $253 $522 forward 7 unknown #
edge $-1 $257 -11.877872788107805 $371 11.877872788107805 $254 $523 forward 7 unknown #
point $-1 61.334879604480122 -26.466261672283242 11.877872788107805 #
point $-1 61.334879604480122 26.466261672283242 11.877872788107805 #
face $-1 $-1 $403 $37 $-1 $524 reversed single #
loop $-1 $-1 $525 $259 #
plane-surface $-1 0 -36.625632791060625 -5.0842613564712842 0 1 0 0 0 1 forward_v I I I I #
coedge $-1 $526 $400 $402 $527 forward $260 $-1 #
coedge $-1 $262 $269 $528 $529 forward $159 $-1 #
coedge $-1 $530 $267 $262 $393 reversed $403 $-1 #
edge $-1 $531 -5.0796855593886896 $271 5.0796855593886932 $392 $532 forward 7 unknown #
coedge $-1 $264 $263 $525 $533 reversed $101 $-1 #
coedge $-1 $400 $526 $263 $396 forward $260 $-1 #
edge $-1 $534 -5.0796855593886896 $398 5.0796855593886932 $263 $535 forward 7 unknown #
edge $-1 $270 -5.0796855593886932 $536 5.0796855593886896 $264 $537 forward 7 unknown #
vertex $-1 $265 $538 #
straight-curve $-1 -61.334879604480122 -26.466261672283242 0 0 0 -1 I I #
coedge $-1 $390 $395 $266 $401 reversed $260 $-1 #
edge $-1 $404 -61.334879604480122 $398 61.334879604480122 $400 $539 forward 7 unknown #
coedge $-1 $267 $530 $390 $527 reversed $403 $-1 #
loop $-1 $-1 $267 $387 #
vertex $-1 $268 $540 #
straight-curve $-1 61.334879604480122 -26.466261672283242 0 0 0 1 I I #
point $-1 -61.334879604480122 -26.466261672283242 -3.5842613564712842 #
point $-1 61.334879604480122 -26.466261672283242 -3.5842613564712842 #
face $-1 $-1 $541 $38 $-1 $542 reversed single #
loop $-1 $-1 $421 $273 #
plane-surface $-1 -61.334879604480122 0 0 1 0 0 0 0 -1 forward_v I I I I #
coedge $-1 $543 $276 $280 $420 forward $167 $-1 #
coedge $-1 $276 $543 $544 $545 reversed $167 $-1 #
coedge $-1 $417 $283 $276 $414 forward $274 $-1 #
edge $-1 $425 3.3808926458149333 $546 16.517210232917179 $413 $547 forward 7 unknown #
coedge $-1 $548 $549 $277 $416 forward $541 $-1 #
edge $-1 $550 -61.334879604480122 $418 61.334879604480122 $415 $551 forward 7 unknown #
coedge $-1 $278 $413 $548 $552 reversed $274 $-1 #
vertex $-1 $552 $553 #
straight-curve $-1 61.334879604480122 9.9490514393660572 9.931312842295462 0 -1 0 I I #
edge $-1 $425 -61.334879604480122 $423 61.334879604480122 $280 $554 forward 7 unknown #
coedge $-1 $555 $281 $285 $427 forward $409 $-1 #
coedge $-1 $281 $555 $543 $556 forward $409 $-1 #
vertex $-1 $556 $557 #
straight-curve $-1 -61.334879604480122 13.32994408518099 4.0035403879266145 0 0 1 I I #
vertex $-1 $414 $558 #
straight-curve $-1 61.334879604480122 13.32994408518099 4.0035403879266145 0 0 -1 I I #
edge $-1 $286 3.3808926458149333 $550 16.517210232917179 $421 $559 forward 7 unknown #
point $-1 -61.334879604480122 13.32994408518099 9.931312842295462 #
point $-1 61.334879604480122 13.32994408518099 9.931312842295462 #
loop $-1 $-1 $297 $289 #
plane-surface $-1 61.334879604480122 0 0 -1 0 0 0 0 1 forward_v I I I I #
coedge $-1 $433 $292 $294 $437 reversed $175 $-1 #
coedge $-1 $292 $432 $560 $561 reversed $175 $-1 #
coedge $-1 $300 $295 $292 $435 forward $290 $-1 #
edge $-1 $438 3.0378471428476033 $562 9.6829836487868945 $434 $563 forward 7 unknown #
coedge $-1 $294 $293 $441 $564 reversed $109 $-1 #
edge $-1 $565 -122.6697592089602 $438 -109.76753508633114 $432 $566 forward 7 unknown #
vertex $-1 $296 $567 #
straight-curve $-1 54.689743098540816 -4.71067094745211 11.877872788107808 0 -1 0 I I #
coedge $-1 $560 $297 $300 $445 reversed $430 $-1 #
coedge $-1 $297 $560 $436 $564 forward $430 $-1 #
vertex $-1 $298 $568 #
straight-curve $-1 61.334879604480122 -6.4279456739435705 84.573305217958563 0 0 1 I I #
straight-curve $-1 -1.8447154286388923 -6.4279456739435705 105.9670154027981 0.51503806187062418 0 -0.85716730853699208 I I #
edge $-1 $562 -12.41473811586487 $301 -6.4279456739435705 $440 $569 forward 7 unknown #
point $-1 61.334879604480122 -6.4279456739435705 11.877872788107805 #
point $-1 54.689743098540831 -6.4279456739435705 11.877872788107808 #
edge $-1 $570 1 $570 0 $304 $-1 forward 7 unknown #
vertex $-1 $305 $571 #
ellipse-curve $-1 57.155144042973461 -10.704225989601643 5.8331523635696483 0.85716730853699208 0 0.51503806187062418 0.25751903093531209 0 -0.42858365426849604 1 I I #
point $-1 58.269830382445768 -10.704225989601643 5.919606771171777 #
edge $-1 $572 1 $572 0 $308 $-1 forward 7 unknown #
vertex $-1 $309 $573 #
ellipse-curve $-1 57.155144042973461 -8.1384578002068011 5.8331523635696483 0.85716730853699208 0 0.51503806187062418 0.25751903093531209 0 -0.42858365426849604 1 I I #
point $-1 58.269830382445768 -8.1384578002068011 5.919606771171777 #
plane-surface $-1 0 0 11.877872788107805 0 0 1 1 0 0 forward_v I I I I #
coedge $-1 $467 $466 $459 $574 forward $313 $-1 #
coedge $-1 $459 $315 $317 $463 reversed $197 $-1 #
coedge $-1 $315 $458 $457 $574 reversed $197 $-1 #
coedge $-1 $323 $318 $315 $461 forward $324 $-1 #
edge $-1 $464 3.0378471428476033 $575 9.6829836487868945 $460 $576 forward 7 unknown #
coedge $-1 $317 $316 $467 $577 reversed $123 $-1 #
edge $-1 $578 -122.6697592089602 $464 -109.76753508633114 $458 $579 forward 7 unknown #
vertex $-1 $319 $580 #
straight-curve $-1 54.689743098540816 0.22880149232903157 11.877872788107808 0 -1 0 I I #
coedge $-1 $457 $320 $323 $471 reversed $313 $-1 #
coedge $-1 $320 $457 $462 $577 forward $313 $-1 #
vertex $-1 $321 $581 #
straight-curve $-1 61.334879604480122 3.4509992056187127 84.573305217958563 0 0 1 I I #
straight-curve $-1 -1.8447154286388923 3.4509992056187127 105.9670154027981 0.51503806187062418 0 -0.85716730853699208 I I #
edge $-1 $575 -2.5357932363025864 $325 3.4509992056187127 $466 $582 forward 7 unknown #
point $-1 61.334879604480122 3.4509992056187127 11.877872788107805 #
point $-1 54.689743098540831 3.4509992056187127 11.877872788107808 #
edge $-1 $583 1 $583 0 $328 $-1 forward 7 unknown #
vertex $-1 $329 $584 #
ellipse-curve $-1 57.155144042973461 -0.82528111003935933 5.8331523635696483 0.85716730853699208 0 0.51503806187062418 0.25751903093531209 0 -0.42858365426849604 1 I I #
point $-1 58.269830382445768 -0.82528111003935933 5.919606771171777 #
edge $-1 $585 1 $585 0 $332 $-1 forward 7 unknown #
vertex $-1 $333 $586 #
ellipse-curve $-1 57.155144042973461 1.7404870793554821 5.8331523635696483 0.85716730853699208 0 0.51503806187062418 0.25751903093531209 0 -0.42858365426849604 1 I I #
point $-1 58.269830382445768 1.7404870793554821 5.919606771171777 #
loop $-1 $-1 $345 $336 #
plane-surface $-1 0 13.32994408518099 8.007080775853229 0 1 0 0 0 1 forward_v I I I I #
coedge $-1 $587 $339 $344 $490 forward $219 $-1 #
coedge $-1 $339 $587 $487 $588 reversed $219 $-1 #
edge $-1 $488 72.695432429850754 $495 83.75479715518577 $339 $589 forward 7 unknown #
coedge $-1 $348 $342 $485 $588 forward $337 $-1 #
vertex $-1 $588 $590 #
straight-curve $-1 51.651895955693227 7.3431516432596968 11.877872788107808 1 0 0 I I #
edge $-1 $495 2.1748777111495237 $493 8.1616701530708227 $484 $591 forward 7 unknown #
coedge $-1 $492 $345 $348 $497 reversed $482 $-1 #
coedge $-1 $345 $491 $587 $592 reversed $482 $-1 #
vertex $-1 $592 $593 #
straight-curve $-1 -1.8447154286388923 13.329944085180996 105.9670154027981 0.51503806187062418 0 -0.85716730853699208 I I #
vertex $-1 $490 $594 #
straight-curve $-1 -1.8447154286388923 7.3431516432596968 105.9670154027981 -0.51503806187062418 0 0.85716730853699208 I I #
edge $-1 $595 -9.6829836487868945 $349 -3.0378471428476033 $348 $596 forward 7 unknown #
point $-1 54.689743098540831 13.329944085180996 11.877872788107808 #
point $-1 54.689743098540831 7.3431516432596968 11.877872788107808 #
edge $-1 $597 1 $597 0 $352 $-1 forward 7 unknown #
vertex $-1 $353 $598 #
ellipse-curve $-1 57.155144042973461 9.0536637695229238 5.8331523635696483 0.85716730853699208 0 0.51503806187062418 0.25751903093531209 0 -0.42858365426849604 1 I I #
point $-1 58.269830382445768 9.0536637695229238 5.919606771171777 #
edge $-1 $599 1 $599 0 $356 $-1 forward 7 unknown #
vertex $-1 $357 $600 #
ellipse-curve $-1 57.155144042973461 11.619431958917769 5.8331523635696483 0.85716730853699208 0 0.51503806187062418 0.25751903093531209 0 -0.42858365426849604 1 I I #
point $-1 58.269830382445768 11.619431958917769 5.919606771171777 #
plane-surface $-1 61.334879604480122 0 0 -1 0 0 0 0 1 forward_v I I I I #
coedge $-1 $365 $363 $367 $513 reversed $241 $-1 #
edge $-1 $378 -11.877872788107805 $515 11.877872788107805 $377 $601 forward 7 unknown #
vertex $-1 $513 $602 #
straight-curve $-1 -61.334879604480122 -26.466261672283242 0 0 0 -1 I I #
edge $-1 $511 -26.466261672283242 $515 26.466261672283242 $509 $603 forward 7 unknown #
straight-curve $-1 0 -26.466261672283242 -11.877872788107805 -1 0 0 I I #
vertex $-1 $370 $604 #
straight-curve $-1 0 26.466261672283242 -11.877872788107805 1 0 0 I I #
point $-1 61.334879604480122 26.466261672283242 -11.877872788107805 #
point $-1 61.334879604480122 -26.466261672283242 -11.877872788107805 #
straight-curve $-1 -61.334879604480122 0 11.877872788107805 0 -1 0 I I #
point $-1 -61.334879604480122 26.466261672283242 11.877872788107805 #
point $-1 -61.334879604480122 -26.466261672283242 11.877872788107805 #
straight-curve $-1 61.334879604480122 -26.466261672283242 0 0 0 -1 I I #
straight-curve $-1 61.334879604480122 26.466261672283242 0 0 0 -1 I I #
plane-surface $-1 61.334879604480122 0 0 -1 0 0 0 0 1 forward_v I I I I #
coedge $-1 $605 $528 $394 $533 forward $388 $-1 #
coedge $-1 $395 $390 $605 $606 forward $260 $-1 #
edge $-1 $404 -5.0796855593886932 $607 5.0796855593886896 $402 $608 forward 7 unknown #
coedge $-1 $525 $609 $391 $529 reversed $388 $-1 #
edge $-1 $536 -61.334879604480122 $531 61.334879604480122 $528 $610 forward 7 unknown #
coedge $-1 $402 $392 $609 $611 forward $403 $-1 #
vertex $-1 $393 $612 #
straight-curve $-1 61.334879604480122 -31.545947231671935 -3.5842613564712842 0 1 0 I I #
edge $-1 $536 -1.5 $534 1.5 $394 $613 forward 7 unknown #
vertex $-1 $396 $614 #
straight-curve $-1 -61.334879604480122 -31.545947231671935 -6.5842613564712842 0 1 0 I I #
vertex $-1 $397 $615 #
straight-curve $-1 -61.334879604480122 -31.545947231671935 -3.5842613564712842 0 -1 0 I I #
point $-1 -61.334879604480122 -26.466261672283242 -6.5842613564712842 #
straight-curve $-1 0 -26.466261672283242 -6.5842613564712842 -1 0 0 I I #
point $-1 61.334879604480122 -26.466261672283242 -6.5842613564712842 #
loop $-1 $-1 $415 $408 #
plane-surface $-1 0 26.466261672283242 0 0 -1 0 0 0 -1 forward_v I I I I #
coedge $-1 $412 $411 $422 $556 reversed $167 $-1 #
coedge $-1 $549 $548 $412 $545 forward $541 $-1 #
edge $-1 $546 -61.334879604480122 $616 61.334879604480122 $544 $617 forward 7 unknown #
vertex $-1 $545 $618 #
straight-curve $-1 61.334879604480122 9.9490514393660572 6.082848709410996 0 1 0 I I #
coedge $-1 $544 $415 $417 $552 forward $541 $-1 #
coedge $-1 $415 $544 $555 $619 reversed $541 $-1 #
vertex $-1 $619 $620 #
straight-curve $-1 0 26.466261672283242 9.931312842295462 1 0 0 I I #
edge $-1 $418 -9.931312842295462 $546 -6.082848709410996 $417 $621 forward 7 unknown #
point $-1 61.334879604480122 26.466261672283238 9.931312842295462 #
straight-curve $-1 0 13.32994408518099 6.082848709410996 -1 0 0 I I #
coedge $-1 $422 $421 $549 $619 forward $409 $-1 #
edge $-1 $616 -16.517210232917179 $423 -3.3808926458149333 $422 $622 forward 7 unknown #
point $-1 -61.334879604480122 13.32994408518099 6.082848709410996 #
point $-1 61.334879604480122 13.32994408518099 6.082848709410996 #
straight-curve $-1 -61.334879604480122 9.9490514393660572 9.931312842295462 0 1 0 I I #
coedge $-1 $441 $440 $433 $561 forward $430 $-1 #
edge $-1 $562 72.695432429850754 $565 83.75479715518577 $560 $623 forward 7 unknown #
vertex $-1 $445 $624 #
straight-curve $-1 51.651895955693227 -12.41473811586487 11.877872788107808 1 0 0 I I #
edge $-1 $565 -7.7040671684127595 $442 -1.7172747264914605 $441 $625 forward 7 unknown #
vertex $-1 $564 $626 #
straight-curve $-1 -1.8447154286388923 -12.41473811586487 105.9670154027981 -0.51503806187062418 0 0.85716730853699208 I I #
point $-1 54.689743098540831 -12.41473811586487 11.877872788107808 #
point $-1 61.334879604480122 -6.4279456739435705 0.81850806277279275 #
straight-curve $-1 61.334879604480122 0 11.877872788107805 0 1 0 I I #
vertex $-1 $448 $627 #
point $-1 57.412663073908774 -10.704225989601643 5.4045687093011523 #
vertex $-1 $452 $628 #
point $-1 57.412663073908774 -8.1384578002068011 5.4045687093011523 #
edge $-1 $575 72.695432429850754 $578 83.75479715518577 $457 $629 forward 7 unknown #
vertex $-1 $471 $630 #
straight-curve $-1 51.651895955693227 -2.5357932363025864 11.877872788107808 1 0 0 I I #
edge $-1 $578 -2.7645947286316179 $468 3.2221977132896811 $467 $631 forward 7 unknown #
vertex $-1 $577 $632 #
straight-curve $-1 -1.8447154286388923 -2.5357932363025864 105.9670154027981 -0.51503806187062418 0 0.85716730853699208 I I #
point $-1 54.689743098540831 -2.5357932363025864 11.877872788107808 #
point $-1 61.334879604480122 3.4509992056187127 0.81850806277279275 #
straight-curve $-1 61.334879604480122 0 11.877872788107805 0 1 0 I I #
vertex $-1 $474 $633 #
point $-1 57.412663073908774 -0.82528111003935933 5.4045687093011523 #
vertex $-1 $478 $634 #
point $-1 57.412663073908774 1.7404870793554821 5.4045687093011523 #
coedge $-1 $485 $484 $492 $592 forward $219 $-1 #
edge $-1 $488 7.3431516432596968 $595 13.329944085180996 $485 $635 forward 7 unknown #
straight-curve $-1 61.334879604480122 7.3431516432596968 84.573305217958563 0 0 -1 I I #
point $-1 61.334879604480122 7.3431516432596968 11.877872788107805 #
straight-curve $-1 61.334879604480122 5.1682739321101732 0.81850806277278565 0 1 0 I I #
edge $-1 $493 -83.75479715518577 $595 -72.695432429850754 $587 $636 forward 7 unknown #
point $-1 61.334879604480122 13.329944085180996 0.81850806277279275 #
point $-1 61.334879604480122 7.3431516432596968 0.81850806277279275 #
vertex $-1 $592 $637 #
straight-curve $-1 51.651895955693227 13.329944085180996 11.877872788107808 -1 0 0 I I #
vertex $-1 $500 $638 #
point $-1 57.412663073908774 9.0536637695229238 5.4045687093011523 #
vertex $-1 $504 $639 #
point $-1 57.412663073908774 11.619431958917769 5.4045687093011523 #
straight-curve $-1 -61.334879604480122 26.466261672283242 0 0 0 -1 I I #
point $-1 -61.334879604480122 -26.466261672283242 -11.877872788107805 #
straight-curve $-1 -61.334879604480122 0 -11.877872788107805 0 1 0 I I #
point $-1 -61.334879604480122 26.466261672283242 -11.877872788107805 #
coedge $-1 $609 $525 $526 $606 reversed $388 $-1 #
edge $-1 $607 -61.334879604480122 $534 61.334879604480122 $605 $640 forward 7 unknown #
vertex $-1 $611 $641 #
straight-curve $-1 61.334879604480122 -31.545947231671935 -6.5842613564712842 0 -1 0 I I #
coedge $-1 $528 $605 $530 $611 reversed $388 $-1 #
straight-curve $-1 0 -36.625632791060625 -3.5842613564712842 1 0 0 I I #
edge $-1 $531 -1.5 $607 1.5 $530 $642 forward 7 unknown #
point $-1 61.334879604480122 -36.625632791060625 -3.5842613564712842 #
straight-curve $-1 -61.334879604480122 -36.625632791060625 -5.0842613564712842 0 0 -1 I I #
point $-1 -61.334879604480122 -36.625632791060625 -6.5842613564712842 #
point $-1 -61.334879604480122 -36.625632791060625 -3.5842613564712842 #
vertex $-1 $545 $643 #
straight-curve $-1 0 26.466261672283242 6.082848709410996 -1 0 0 I I #
point $-1 61.334879604480122 26.466261672283238 6.082848709410996 #
edge $-1 $550 -9.931312842295462 $616 -6.082848709410996 $549 $644 forward 7 unknown #
point $-1 -61.334879604480122 26.466261672283238 9.931312842295462 #
straight-curve $-1 61.334879604480122 26.466261672283242 0 0 0 -1 I I #
straight-curve $-1 -61.334879604480122 9.9490514393660572 6.082848709410996 0 -1 0 I I #
straight-curve $-1 61.334879604480122 -12.41473811586487 84.573305217958563 0 0 -1 I I #
point $-1 61.334879604480122 -12.41473811586487 11.877872788107805 #
straight-curve $-1 61.334879604480122 -4.71067094745211 0.81850806277278565 0 1 0 I I #
point $-1 61.334879604480122 -12.41473811586487 0.81850806277279275 #
point $-1 56.726560388704968 -10.704225989601643 5.5756333326343368 #
point $-1 56.726560388704968 -8.1384578002068011 5.5756333326343368 #
straight-curve $-1 61.334879604480122 -2.5357932363025864 84.573305217958563 0 0 -1 I I #
point $-1 61.334879604480122 -2.5357932363025864 11.877872788107805 #
straight-curve $-1 61.334879604480122 0.22880149232903157 0.81850806277278565 0 1 0 I I #
point $-1 61.334879604480122 -2.5357932363025864 0.81850806277279275 #
point $-1 56.726560388704968 -0.82528111003935933 5.5756333326343368 #
point $-1 56.726560388704968 1.7404870793554821 5.5756333326343368 #
straight-curve $-1 61.334879604480122 0 11.877872788107805 0 1 0 I I #
straight-curve $-1 61.334879604480122 13.329944085180996 84.573305217958563 0 0 1 I I #
point $-1 61.334879604480122 13.329944085180996 11.877872788107805 #
point $-1 56.726560388704968 9.0536637695229238 5.5756333326343368 #
point $-1 56.726560388704968 11.619431958917769 5.5756333326343368 #
straight-curve $-1 0 -36.625632791060625 -6.5842613564712842 -1 0 0 I I #
point $-1 61.334879604480122 -36.625632791060625 -6.5842613564712842 #
straight-curve $-1 61.334879604480122 -36.625632791060625 -5.0842613564712842 0 0 -1 I I #
point $-1 -61.334879604480122 26.466261672283238 6.082848709410996 #
straight-curve $-1 -61.334879604480122 26.466261672283242 0 0 0 -1 I I #
End-of-ACIS-data 