500 0 6 0           
7 Unknown 11 ACIS 5.0 NT 24 Fri Mar 26 16:42:59 1999 
-1 9.9999999999999995e-007 1e-010 
body $-1 $6 $-1 $7 #
body $-1 $8 $-1 $9 #
body $-1 $10 $-1 $11 #
body $-1 $12 $-1 $13 #
body $-1 $14 $-1 $15 #
body $-1 $16 $-1 $17 #
lump $-1 $-1 $18 $0 #
transform $-1 1 0 0 0 1 0 0 0 1 42.097231971190524 28.025807897858861 7.2039848683521788 1 rotate no_reflect no_shear #
lump $-1 $-1 $19 $1 #
transform $-1 1 0 0 0 1 0 0 0 1 42.097231971190524 28.025807897858861 7.2039848683521788 1 rotate no_reflect no_shear #
lump $-1 $-1 $20 $2 #
transform $-1 1 0 0 0 1 0 0 0 1 42.097231971190524 28.025807897858861 7.2039848683521788 1 rotate no_reflect no_shear #
lump $-1 $-1 $21 $3 #
transform $-1 1 0 0 0 1 0 0 0 1 42.097231971190524 28.025807897858861 7.2039848683521788 1 rotate no_reflect no_shear #
lump $-1 $-1 $22 $4 #
transform $-1 1 0 0 0 1 0 0 0 1 42.097231971190524 28.025807897858861 7.2039848683521788 1 rotate no_reflect no_shear #
lump $-1 $-1 $23 $5 #
transform $-1 1 0 0 0 1 0 0 0 1 42.097231971190524 28.025807897858861 7.2039848683521788 1 rotate no_reflect no_shear #
shell $-1 $-1 $-1 $24 $-1 $6 #
shell $-1 $-1 $-1 $25 $-1 $8 #
shell $-1 $-1 $-1 $26 $-1 $10 #
shell $-1 $-1 $-1 $27 $-1 $12 #
shell $-1 $-1 $-1 $28 $-1 $14 #
shell $-1 $-1 $-1 $29 $-1 $16 #
face $-1 $30 $31 $18 $-1 $32 forward single #
face $-1 $33 $34 $19 $-1 $35 forward single #
face $-1 $36 $37 $20 $-1 $38 forward single #
face $-1 $39 $40 $21 $-1 $41 reversed single #
face $-1 $42 $43 $22 $-1 $44 forward single #
face $-1 $45 $46 $23 $-1 $47 forward single #
face $-1 $48 $49 $18 $-1 $50 reversed single #
loop $-1 $-1 $51 $24 #
plane-surface $-1 0 0 7.2039848683521788 0 0 1 1 0 0 forward_v I I I I #
face $-1 $52 $53 $19 $-1 $54 reversed single #
loop $-1 $-1 $55 $25 #
plane-surface $-1 0 -28.025807897858861 0 0 1 0 0 0 1 forward_v I I I I #
face $-1 $56 $57 $20 $-1 $58 reversed single #
loop $-1 $-1 $59 $26 #
plane-surface $-1 0 28.025807897858861 0 0 -1 0 0 0 -1 forward_v I I I I #
face $-1 $60 $61 $21 $-1 $62 reversed single #
loop $-1 $-1 $63 $27 #
plane-surface $-1 15.312546460022794 1.8152531263328822 116.1414172318717 0 -1 0 -0.52991927123019833 0 -0.84804809178421925 forward_v I I I I #
face $-1 $64 $65 $22 $-1 $66 forward single #
loop $-1 $67 $68 $28 #
cone-surface $-1 35.507836031026784 -5.4224544553271592 2.1847737643582916 -0.52991927123019833 0 -0.84804809178421925 0.84804809178421925 0 -0.52991927123019833 1 I I 0 1 1 forward I I I I #
face $-1 $69 $70 $23 $-1 $71 forward single #
loop $-1 $72 $73 $29 #
cone-surface $-1 35.507836031026784 -1.0798299063311347 2.1847737643582916 -0.52991927123019833 0 -0.84804809178421925 0.84804809178421925 0 -0.52991927123019833 1 I I 0 1 1 forward I I I I #
face $-1 $74 $75 $18 $-1 $76 reversed single #
loop $-1 $-1 $77 $30 #
plane-surface $-1 0 0 -7.2039848683521788 0 0 1 1 0 0 forward_v I I I I #
coedge $-1 $78 $79 $80 $81 forward $31 $-1 #
face $-1 $82 $83 $19 $-1 $84 forward single #
loop $-1 $-1 $85 $33 #
plane-surface $-1 -42.097231971190524 0 0 1 0 0 0 0 -1 forward_v I I I I #
coedge $-1 $86 $87 $88 $89 forward $34 $-1 #
face $-1 $90 $91 $20 $-1 $92 forward single #
loop $-1 $-1 $93 $36 #
plane-surface $-1 42.097231971190524 0 0 -1 0 0 0 0 1 forward_v I I I I #
coedge $-1 $94 $95 $96 $97 forward $37 $-1 #
face $-1 $98 $99 $21 $-1 $100 reversed single #
loop $-1 $-1 $101 $39 #
plane-surface $-1 -29.303722513940983 -3.2511421808291487 44.740462746740192 0.52991927123019833 0 0.84804809178421925 0.84804809178421925 0 -0.52991927123019833 forward_v I I I I #
coedge $-1 $102 $103 $104 $105 reversed $40 $-1 #
face $-1 $-1 $106 $22 $-1 $107 forward single #
loop $-1 $108 $109 $42 #
cone-surface $-1 34.318497425564715 -5.4224544553271592 0.28143416226016971 -0.52991927123019833 0 -0.84804809178421925 0.42402404589210962 0 -0.26495963561509916 1 I I -0.70710678118654735 0.70710678118654768 0.5 forward I I I I #
loop $-1 $-1 $110 $28 #
coedge $-1 $68 $68 $111 $112 reversed $43 $-1 #
face $-1 $-1 $113 $23 $-1 $114 forward single #
loop $-1 $115 $116 $45 #
cone-surface $-1 34.318497425564715 -1.0798299063311347 0.28143416226016971 -0.52991927123019833 0 -0.84804809178421925 0.42402404589210962 0 -0.26495963561509916 1 I I -0.70710678118654735 0.70710678118654768 0.5 forward I I I I #
loop $-1 $-1 $117 $29 #
coedge $-1 $73 $73 $118 $119 reversed $46 $-1 #
face $-1 $120 $121 $18 $-1 $122 reversed single #
loop $-1 $-1 $123 $48 #
plane-surface $-1 0 -28.025807897858861 0 0 1 0 0 0 1 forward_v I I I I #
coedge $-1 $124 $125 $126 $127 forward $49 $-1 #
coedge $-1 $128 $51 $129 $130 forward $31 $-1 #
coedge $-1 $51 $128 $131 $132 forward $31 $-1 #
coedge $-1 $133 $134 $51 $81 reversed $135 $-1 #
edge $-1 $136 -28.025807897858861 $137 28.025807897858861 $80 $138 forward 7 unknown #
face $-1 $139 $140 $19 $-1 $141 reversed single #
loop $-1 $-1 $142 $52 #
plane-surface $-1 0 -30.951254099658229 2.1689750603747688 0 0 1 1 0 0 forward_v I I I I #
coedge $-1 $143 $144 $87 $145 forward $53 $-1 #
coedge $-1 $146 $55 $147 $148 reversed $34 $-1 #
coedge $-1 $55 $146 $85 $145 reversed $34 $-1 #
coedge $-1 $149 $142 $55 $89 reversed $83 $-1 #
edge $-1 $150 -42.097231971190524 $151 42.097231971190524 $88 $152 forward 7 unknown #
face $-1 $153 $154 $20 $-1 $155 reversed single #
loop $-1 $-1 $156 $56 #
plane-surface $-1 0 30.951254099658229 2.1689750603747688 0 0 1 1 0 0 forward_v I I I I #
coedge $-1 $157 $158 $95 $159 forward $57 $-1 #
coedge $-1 $160 $59 $161 $162 reversed $37 $-1 #
coedge $-1 $59 $160 $93 $159 reversed $37 $-1 #
coedge $-1 $156 $163 $59 $97 reversed $91 $-1 #
edge $-1 $164 -42.097231971190524 $165 42.097231971190524 $96 $166 forward 7 unknown #
face $-1 $167 $168 $21 $-1 $169 forward single #
loop $-1 $-1 $170 $60 #
plane-surface $-1 15.312546460022794 -8.3175374879911796 116.1414172318717 0 1 0 0.52991927123019833 0 0.84804809178421925 forward_v I I I I #
coedge $-1 $171 $172 $173 $174 reversed $61 $-1 #
coedge $-1 $103 $63 $175 $176 reversed $40 $-1 #
coedge $-1 $63 $102 $171 $177 reversed $40 $-1 #
coedge $-1 $173 $178 $63 $105 forward $168 $-1 #
edge $-1 $179 -34.440958741179131 $180 -23.110924800545586 $104 $181 forward 7 unknown #
loop $-1 $-1 $111 $64 #
plane-surface $-1 -29.303722513940983 -3.2511421808291487 44.740462746740192 0.52991927123019833 0 0.84804809178421925 0.84804809178421925 0 -0.52991927123019833 forward_v I I I I #
loop $-1 $-1 $182 $42 #
coedge $-1 $109 $109 $110 $183 reversed $65 $-1 #
coedge $-1 $110 $110 $109 $183 forward $67 $-1 #
coedge $-1 $111 $111 $68 $112 forward $106 $-1 #
edge $-1 $184 0 $184 6.2831853071796004 $111 $185 forward 7 unknown #
loop $-1 $-1 $118 $69 #
plane-surface $-1 -29.303722513940983 -3.2511421808291487 44.740462746740192 0.52991927123019833 0 0.84804809178421925 0.84804809178421925 0 -0.52991927123019833 forward_v I I I I #
loop $-1 $-1 $186 $45 #
coedge $-1 $116 $116 $117 $187 reversed $70 $-1 #
coedge $-1 $117 $117 $116 $187 forward $72 $-1 #
coedge $-1 $118 $118 $73 $119 forward $113 $-1 #
edge $-1 $188 0 $188 6.2831853071796004 $118 $189 forward 7 unknown #
face $-1 $190 $191 $18 $-1 $192 reversed single #
loop $-1 $-1 $193 $74 #
plane-surface $-1 -42.097231971190524 0 0 1 0 0 0 0 -1 forward_v I I I I #
coedge $-1 $194 $131 $195 $196 forward $75 $-1 #
coedge $-1 $197 $77 $194 $198 forward $49 $-1 #
coedge $-1 $77 $197 $199 $200 forward $49 $-1 #
coedge $-1 $134 $133 $77 $127 reversed $135 $-1 #
edge $-1 $201 -28.025807897858861 $202 28.025807897858861 $126 $203 forward 7 unknown #
coedge $-1 $79 $78 $204 $205 forward $31 $-1 #
coedge $-1 $206 $207 $78 $130 reversed $191 $-1 #
edge $-1 $137 -42.097231971190524 $208 42.097231971190524 $129 $209 forward 7 unknown #
coedge $-1 $123 $210 $79 $132 reversed $75 $-1 #
edge $-1 $211 -42.097231971190524 $136 42.097231971190524 $131 $212 forward 7 unknown #
coedge $-1 $126 $80 $210 $213 forward $135 $-1 #
coedge $-1 $80 $126 $206 $214 reversed $135 $-1 #
loop $-1 $-1 $133 $190 #
vertex $-1 $81 $215 #
vertex $-1 $81 $216 #
straight-curve $-1 42.097231971190524 0 7.2039848683521788 0 1 0 I I #
face $-1 $217 $218 $19 $-1 $219 reversed single #
loop $-1 $-1 $220 $82 #
plane-surface $-1 0 -30.951254099658229 -1.4951703485101175 0 0 1 1 0 0 forward_v I I I I #
coedge $-1 $88 $221 $222 $223 forward $83 $-1 #
coedge $-1 $224 $85 $225 $226 reversed $53 $-1 #
coedge $-1 $85 $224 $149 $227 reversed $53 $-1 #
edge $-1 $150 -2.1689750603747688 $228 1.4951703485101175 $85 $229 forward 7 unknown #
coedge $-1 $87 $86 $230 $231 forward $34 $-1 #
coedge $-1 $222 $232 $86 $148 forward $233 $-1 #
edge $-1 $234 -1.4951703485101175 $151 2.1689750603747688 $147 $235 forward 7 unknown #
coedge $-1 $221 $88 $144 $227 forward $83 $-1 #
vertex $-1 $145 $236 #
vertex $-1 $223 $237 #
straight-curve $-1 0 -28.025807897858861 2.1689750603747688 1 0 0 I I #
face $-1 $238 $239 $20 $-1 $240 reversed single #
loop $-1 $-1 $241 $90 #
plane-surface $-1 0 30.951254099658229 -1.4951703485101175 0 0 1 1 0 0 forward_v I I I I #
coedge $-1 $242 $96 $158 $243 forward $91 $-1 #
coedge $-1 $244 $93 $241 $245 reversed $57 $-1 #
coedge $-1 $93 $244 $156 $243 reversed $57 $-1 #
edge $-1 $164 -2.1689750603747688 $246 1.4951703485101175 $93 $247 forward 7 unknown #
coedge $-1 $95 $94 $248 $249 forward $37 $-1 #
coedge $-1 $250 $251 $94 $162 forward $252 $-1 #
edge $-1 $253 -1.4951703485101175 $165 2.1689750603747688 $161 $254 forward 7 unknown #
coedge $-1 $96 $242 $250 $255 forward $91 $-1 #
vertex $-1 $159 $256 #
vertex $-1 $255 $257 #
straight-curve $-1 0 28.025807897858861 2.1689750603747688 -1 0 0 I I #
face $-1 $-1 $258 $21 $-1 $259 reversed single #
loop $-1 $-1 $104 $98 #
plane-surface $-1 0 0 7.2039848683521788 0 0 1 1 0 0 forward_v I I I I #
coedge $-1 $260 $261 $262 $263 reversed $99 $-1 #
coedge $-1 $264 $101 $103 $177 forward $61 $-1 #
coedge $-1 $101 $264 $260 $265 forward $61 $-1 #
coedge $-1 $262 $104 $101 $174 forward $168 $-1 #
edge $-1 $180 -3.4408242167474565 $266 6.6919663975766053 $173 $267 forward 7 unknown #
coedge $-1 $268 $269 $102 $176 forward $258 $-1 #
edge $-1 $270 -57.946514843159434 $179 -50.86672374758367 $175 $271 forward 7 unknown #
edge $-1 $180 70.834332541346782 $270 84.194463942381063 $103 $272 forward 7 unknown #
coedge $-1 $104 $262 $268 $273 forward $168 $-1 #
vertex $-1 $176 $274 #
vertex $-1 $105 $275 #
straight-curve $-1 7.6562732300113971 1.8152531263328822 7.2039848683521797 -1 0 0 I I #
coedge $-1 $182 $182 $-1 $276 reversed $108 $-1 #
edge $-1 $277 0 $277 6.2831853071796004 $109 $278 forward 7 unknown #
vertex $-1 $112 $279 #
ellipse-curve $-1 36.432215000873754 -5.4224544553271592 3.6640893205643037 0.52991927123019833 0 0.84804809178421925 0.84804809178421925 0 -0.52991927123019833 1 I I #
coedge $-1 $186 $186 $-1 $280 reversed $115 $-1 #
edge $-1 $281 0 $281 6.2831853071796004 $116 $282 forward 7 unknown #
vertex $-1 $119 $283 #
ellipse-curve $-1 36.432215000873754 -1.0798299063311347 3.6640893205643037 0.52991927123019833 0 0.84804809178421925 0.84804809178421925 0 -0.52991927123019833 1 I I #
face $-1 $-1 $135 $18 $-1 $284 reversed single #
loop $-1 $-1 $207 $120 #
plane-surface $-1 0 28.025807897858861 0 0 -1 0 0 0 -1 forward_v I I I I #
coedge $-1 $285 $204 $207 $286 forward $121 $-1 #
coedge $-1 $210 $123 $124 $198 reversed $75 $-1 #
coedge $-1 $204 $285 $123 $196 reversed $121 $-1 #
edge $-1 $211 -7.2039848683521788 $287 7.2039848683521788 $195 $288 forward 7 unknown #
coedge $-1 $125 $124 $285 $289 forward $49 $-1 #
edge $-1 $202 -42.097231971190524 $287 42.097231971190524 $194 $290 forward 7 unknown #
coedge $-1 $207 $206 $125 $200 reversed $191 $-1 #
edge $-1 $291 -42.097231971190524 $201 42.097231971190524 $199 $292 forward 7 unknown #
vertex $-1 $127 $293 #
vertex $-1 $213 $294 #
straight-curve $-1 42.097231971190524 0 -7.2039848683521788 0 -1 0 I I #
coedge $-1 $193 $195 $128 $205 reversed $121 $-1 #
edge $-1 $208 -28.025807897858861 $211 28.025807897858861 $204 $295 forward 7 unknown #
coedge $-1 $199 $129 $134 $214 forward $191 $-1 #
coedge $-1 $129 $199 $193 $286 reversed $191 $-1 #
vertex $-1 $130 $296 #
straight-curve $-1 0 28.025807897858861 7.2039848683521788 -1 0 0 I I #
coedge $-1 $131 $194 $133 $213 reversed $75 $-1 #
vertex $-1 $205 $297 #
straight-curve $-1 0 -28.025807897858861 7.2039848683521788 1 0 0 I I #
edge $-1 $136 -7.2039848683521788 $202 7.2039848683521788 $133 $298 forward 7 unknown #
edge $-1 $137 -7.2039848683521788 $201 7.2039848683521788 $134 $299 forward 7 unknown #
point $-1 42.097231971190524 -28.025807897858861 7.2039848683521788 #
point $-1 42.097231971190524 28.025807897858861 7.2039848683521788 #
face $-1 $-1 $233 $19 $-1 $300 reversed single #
loop $-1 $-1 $301 $139 #
plane-surface $-1 0 -33.876700301457596 0.33690235593232565 0 1 0 0 0 1 forward_v I I I I #
coedge $-1 $302 $230 $232 $303 forward $140 $-1 #
coedge $-1 $142 $149 $304 $305 forward $83 $-1 #
coedge $-1 $306 $147 $142 $223 reversed $233 $-1 #
edge $-1 $307 -2.9254462017993674 $151 2.9254462017993674 $222 $308 forward 7 unknown #
coedge $-1 $144 $143 $301 $309 reversed $53 $-1 #
coedge $-1 $230 $302 $143 $226 forward $140 $-1 #
edge $-1 $310 -2.9254462017993674 $228 2.9254462017993674 $143 $311 forward 7 unknown #
edge $-1 $150 -2.9254462017993674 $312 2.9254462017993674 $144 $313 forward 7 unknown #
vertex $-1 $145 $314 #
straight-curve $-1 -42.097231971190524 -28.025807897858861 0 0 0 -1 I I #
coedge $-1 $220 $225 $146 $231 reversed $140 $-1 #
edge $-1 $234 -42.097231971190524 $228 42.097231971190524 $230 $315 forward 7 unknown #
coedge $-1 $147 $306 $220 $303 reversed $233 $-1 #
loop $-1 $-1 $147 $217 #
vertex $-1 $148 $316 #
straight-curve $-1 42.097231971190524 -28.025807897858861 0 0 0 1 I I #
point $-1 -42.097231971190524 -28.025807897858861 2.1689750603747688 #
point $-1 42.097231971190524 -28.025807897858861 2.1689750603747688 #
face $-1 $-1 $252 $20 $-1 $317 reversed single #
loop $-1 $-1 $318 $153 #
plane-surface $-1 0 33.876700301457596 0.33690235593232565 0 -1 0 0 0 -1 forward_v I I I I #
coedge $-1 $248 $319 $157 $245 forward $154 $-1 #
coedge $-1 $163 $156 $320 $321 forward $91 $-1 #
edge $-1 $164 -2.9254462017993674 $322 2.9254462017993674 $158 $323 forward 7 unknown #
coedge $-1 $158 $157 $318 $324 reversed $57 $-1 #
edge $-1 $325 -2.9254462017993674 $246 2.9254462017993674 $157 $326 forward 7 unknown #
vertex $-1 $159 $327 #
straight-curve $-1 42.097231971190524 28.025807897858861 0 0 0 -1 I I #
coedge $-1 $328 $241 $160 $249 reversed $154 $-1 #
edge $-1 $253 -42.097231971190524 $246 42.097231971190524 $248 $329 forward 7 unknown #
coedge $-1 $330 $161 $163 $255 reversed $252 $-1 #
coedge $-1 $161 $330 $328 $331 reversed $252 $-1 #
loop $-1 $-1 $161 $238 #
vertex $-1 $162 $332 #
straight-curve $-1 -42.097231971190524 28.025807897858861 0 0 0 1 I I #
edge $-1 $333 -2.9254462017993674 $165 2.9254462017993674 $250 $334 forward 7 unknown #
point $-1 42.097231971190524 28.025807897858861 2.1689750603747688 #
point $-1 -42.097231971190524 28.025807897858861 2.1689750603747688 #
loop $-1 $-1 $175 $167 #
plane-surface $-1 42.097231971190524 0 0 -1 0 0 0 0 1 forward_v I I I I #
coedge $-1 $261 $170 $172 $265 reversed $99 $-1 #
coedge $-1 $170 $260 $335 $336 reversed $99 $-1 #
coedge $-1 $178 $173 $170 $263 forward $168 $-1 #
edge $-1 $266 23.110924800545586 $337 34.440958741179131 $262 $338 forward 7 unknown #
coedge $-1 $172 $171 $269 $339 reversed $61 $-1 #
edge $-1 $340 -84.194463942381063 $266 -70.834332541346782 $260 $341 forward 7 unknown #
vertex $-1 $174 $342 #
straight-curve $-1 30.767198030556997 -1.6255710904145744 7.2039848683521761 0 -1 0 I I #
coedge $-1 $335 $175 $178 $273 reversed $258 $-1 #
coedge $-1 $175 $335 $264 $339 forward $258 $-1 #
vertex $-1 $176 $343 #
straight-curve $-1 42.097231971190524 1.8152531263328822 58.07070861593585 0 0 1 I I #
straight-curve $-1 -29.303722513940983 1.8152531263328822 44.740462746740192 0.84804809178421925 0 -0.52991927123019833 I I #
edge $-1 $337 -8.3175374879911796 $179 1.8152531263328822 $268 $344 forward 7 unknown #
point $-1 42.097231971190524 1.8152531263328822 7.2039848683521788 #
point $-1 30.767198030556983 1.8152531263328822 7.2039848683521797 #
edge $-1 $345 1 $345 0 $182 $-1 forward 7 unknown #
vertex $-1 $183 $346 #
ellipse-curve $-1 34.583457061179814 -5.4224544553271592 0.70545820815227955 0.52991927123019833 0 0.84804809178421925 0.84804809178421925 0 -0.52991927123019833 1 I I #
point $-1 37.280263092657975 -5.4224544553271592 3.1341700493341058 #
edge $-1 $347 1 $347 0 $186 $-1 forward 7 unknown #
vertex $-1 $187 $348 #
ellipse-curve $-1 34.583457061179814 -1.0798299063311347 0.70545820815227955 0.52991927123019833 0 0.84804809178421925 0.84804809178421925 0 -0.52991927123019833 1 I I #
point $-1 37.280263092657975 -1.0798299063311347 3.1341700493341058 #
plane-surface $-1 42.097231971190524 0 0 -1 0 0 0 0 1 forward_v I I I I #
coedge $-1 $195 $193 $197 $289 reversed $121 $-1 #
edge $-1 $208 -7.2039848683521788 $291 7.2039848683521788 $207 $349 forward 7 unknown #
vertex $-1 $289 $350 #
straight-curve $-1 -42.097231971190524 -28.025807897858861 0 0 0 -1 I I #
edge $-1 $287 -28.025807897858861 $291 28.025807897858861 $285 $351 forward 7 unknown #
straight-curve $-1 0 -28.025807897858861 -7.2039848683521788 -1 0 0 I I #
vertex $-1 $200 $352 #
straight-curve $-1 0 28.025807897858861 -7.2039848683521788 1 0 0 I I #
point $-1 42.097231971190524 28.025807897858861 -7.2039848683521788 #
point $-1 42.097231971190524 -28.025807897858861 -7.2039848683521788 #
straight-curve $-1 -42.097231971190524 0 7.2039848683521788 0 -1 0 I I #
point $-1 -42.097231971190524 28.025807897858861 7.2039848683521788 #
point $-1 -42.097231971190524 -28.025807897858861 7.2039848683521788 #
straight-curve $-1 42.097231971190524 -28.025807897858861 0 0 0 -1 I I #
straight-curve $-1 42.097231971190524 28.025807897858861 0 0 0 -1 I I #
plane-surface $-1 42.097231971190524 0 0 -1 0 0 0 0 1 forward_v I I I I #
coedge $-1 $353 $304 $224 $309 forward $218 $-1 #
coedge $-1 $225 $220 $353 $354 forward $140 $-1 #
edge $-1 $234 -2.9254462017993674 $355 2.9254462017993674 $232 $356 forward 7 unknown #
coedge $-1 $301 $357 $221 $305 reversed $218 $-1 #
edge $-1 $312 -42.097231971190524 $307 42.097231971190524 $304 $358 forward 7 unknown #
coedge $-1 $232 $222 $357 $359 forward $233 $-1 #
vertex $-1 $223 $360 #
straight-curve $-1 42.097231971190524 -30.951254099658229 2.1689750603747688 0 1 0 I I #
edge $-1 $312 -1.8320727044424432 $310 1.8320727044424432 $224 $361 forward 7 unknown #
vertex $-1 $226 $362 #
straight-curve $-1 -42.097231971190524 -30.951254099658229 -1.4951703485101175 0 1 0 I I #
vertex $-1 $227 $363 #
straight-curve $-1 -42.097231971190524 -30.951254099658229 2.1689750603747688 0 -1 0 I I #
point $-1 -42.097231971190524 -28.025807897858861 -1.4951703485101175 #
straight-curve $-1 0 -28.025807897858861 -1.4951703485101175 -1 0 0 I I #
point $-1 42.097231971190524 -28.025807897858861 -1.4951703485101175 #
plane-surface $-1 -42.097231971190524 0 0 1 0 0 0 0 -1 forward_v I I I I #
coedge $-1 $364 $320 $244 $324 forward $239 $-1 #
coedge $-1 $241 $328 $364 $365 forward $154 $-1 #
coedge $-1 $318 $366 $242 $321 reversed $239 $-1 #
edge $-1 $322 -42.097231971190524 $333 42.097231971190524 $320 $367 forward 7 unknown #
vertex $-1 $243 $368 #
straight-curve $-1 42.097231971190524 30.951254099658229 2.1689750603747688 0 1 0 I I #
edge $-1 $322 -1.8320727044424432 $325 1.8320727044424432 $244 $369 forward 7 unknown #
vertex $-1 $245 $370 #
straight-curve $-1 42.097231971190524 30.951254099658229 -1.4951703485101175 0 -1 0 I I #
point $-1 42.097231971190524 28.025807897858861 -1.4951703485101175 #
coedge $-1 $319 $248 $251 $331 forward $154 $-1 #
straight-curve $-1 0 28.025807897858861 -1.4951703485101175 1 0 0 I I #
coedge $-1 $251 $250 $366 $371 forward $252 $-1 #
edge $-1 $253 -2.9254462017993674 $372 2.9254462017993674 $251 $373 forward 7 unknown #
point $-1 -42.097231971190524 28.025807897858861 -1.4951703485101175 #
vertex $-1 $321 $374 #
straight-curve $-1 -42.097231971190524 30.951254099658229 2.1689750603747688 0 -1 0 I I #
coedge $-1 $269 $268 $261 $336 forward $258 $-1 #
edge $-1 $337 50.86672374758367 $340 57.946514843159434 $335 $375 forward 7 unknown #
vertex $-1 $273 $376 #
straight-curve $-1 7.6562732300113971 -8.3175374879911796 7.2039848683521797 1 0 0 I I #
edge $-1 $340 -6.6919663975766053 $270 3.4408242167474565 $269 $377 forward 7 unknown #
vertex $-1 $339 $378 #
straight-curve $-1 -29.303722513940983 -8.3175374879911796 44.740462746740192 -0.84804809178421925 0 0.52991927123019833 I I #
point $-1 30.767198030556983 -8.3175374879911796 7.2039848683521797 #
point $-1 42.097231971190524 1.8152531263328822 0.1241937727764153 #
straight-curve $-1 42.097231971190524 0 7.2039848683521788 0 1 0 I I #
vertex $-1 $276 $379 #
point $-1 35.431505152964036 -5.4224544553271592 0.17553893692208117 #
vertex $-1 $280 $380 #
point $-1 35.431505152964036 -1.0798299063311347 0.17553893692208117 #
straight-curve $-1 -42.097231971190524 28.025807897858861 0 0 0 -1 I I #
point $-1 -42.097231971190524 -28.025807897858861 -7.2039848683521788 #
straight-curve $-1 -42.097231971190524 0 -7.2039848683521788 0 1 0 I I #
point $-1 -42.097231971190524 28.025807897858861 -7.2039848683521788 #
coedge $-1 $357 $301 $302 $354 reversed $218 $-1 #
edge $-1 $355 -42.097231971190524 $310 42.097231971190524 $353 $381 forward 7 unknown #
vertex $-1 $359 $382 #
straight-curve $-1 42.097231971190524 -30.951254099658229 -1.4951703485101175 0 -1 0 I I #
coedge $-1 $304 $353 $306 $359 reversed $218 $-1 #
straight-curve $-1 0 -33.876700301457596 2.1689750603747688 1 0 0 I I #
edge $-1 $307 -1.8320727044424432 $355 1.8320727044424432 $306 $383 forward 7 unknown #
point $-1 42.097231971190524 -33.876700301457596 2.1689750603747688 #
straight-curve $-1 -42.097231971190524 -33.876700301457596 0.33690235593232565 0 0 -1 I I #
point $-1 -42.097231971190524 -33.876700301457596 -1.4951703485101175 #
point $-1 -42.097231971190524 -33.876700301457596 2.1689750603747688 #
coedge $-1 $366 $318 $319 $365 reversed $239 $-1 #
edge $-1 $372 -42.097231971190524 $325 42.097231971190524 $364 $384 forward 7 unknown #
coedge $-1 $320 $364 $330 $371 reversed $239 $-1 #
straight-curve $-1 0 33.876700301457596 2.1689750603747688 -1 0 0 I I #
point $-1 42.097231971190524 33.876700301457596 2.1689750603747688 #
straight-curve $-1 42.097231971190524 33.876700301457596 0.33690235593232565 0 0 -1 I I #
point $-1 42.097231971190524 33.876700301457596 -1.4951703485101175 #
edge $-1 $333 -1.8320727044424432 $372 1.8320727044424432 $366 $385 forward 7 unknown #
vertex $-1 $365 $386 #
straight-curve $-1 -42.097231971190524 30.951254099658229 -1.4951703485101175 0 1 0 I I #
point $-1 -42.097231971190524 33.876700301457596 2.1689750603747688 #
straight-curve $-1 42.097231971190524 -8.3175374879911796 58.07070861593585 0 0 -1 I I #
point $-1 42.097231971190524 -8.3175374879911796 7.2039848683521788 #
straight-curve $-1 42.097231971190531 -1.6255710904145744 0.1241937727764082 0 1 0 I I #
point $-1 42.097231971190524 -8.3175374879911796 0.1241937727764153 #
point $-1 34.053537789949615 -5.4224544553271592 -0.14258988363194008 #
point $-1 34.053537789949615 -1.0798299063311347 -0.14258988363194008 #
straight-curve $-1 0 -33.876700301457596 -1.4951703485101175 -1 0 0 I I #
point $-1 42.097231971190524 -33.876700301457596 -1.4951703485101175 #
straight-curve $-1 42.097231971190524 -33.876700301457596 0.33690235593232565 0 0 -1 I I #
straight-curve $-1 0 33.876700301457596 -1.4951703485101175 1 0 0 I I #
straight-curve $-1 -42.097231971190524 33.876700301457596 0.33690235593232565 0 0 -1 I I #
point $-1 -42.097231971190524 33.876700301457596 -1.4951703485101175 #
End-of-ACIS-data 