500 0 9 0           
7 Unknown 11 ACIS 5.0 NT 24 Thu Mar 25 20:52:37 1999 
-1 9.9999999999999995e-007 1e-010 
body $-1 $9 $-1 $10 #
body $-1 $11 $-1 $12 #
body $-1 $13 $-1 $14 #
body $-1 $15 $-1 $16 #
body $-1 $17 $-1 $18 #
body $-1 $19 $-1 $20 #
body $-1 $21 $-1 $22 #
body $-1 $23 $-1 $24 #
body $-1 $25 $-1 $26 #
lump $-1 $-1 $27 $0 #
transform $-1 1 0 0 0 1 0 0 0 1 52.609027375102997 35.967992613460794 9.0317893985886855 1 rotate no_reflect no_shear #
lump $-1 $-1 $28 $1 #
transform $-1 1 0 0 0 1 0 0 0 1 52.609027375102997 35.967992613460794 9.0317893985886855 1 rotate no_reflect no_shear #
lump $-1 $-1 $29 $2 #
transform $-1 1 0 0 0 1 0 0 0 1 52.609027375102997 35.967992613460794 9.0317893985886855 1 rotate no_reflect no_shear #
lump $-1 $-1 $30 $3 #
transform $-1 1 0 0 0 1 0 0 0 1 52.609027375102997 35.967992613460794 9.0317893985886855 1 rotate no_reflect no_shear #
lump $-1 $-1 $31 $4 #
transform $-1 1 0 0 0 1 0 0 0 1 52.609027375102997 35.967992613460794 9.0317893985886855 1 rotate no_reflect no_shear #
lump $-1 $-1 $32 $5 #
transform $-1 1 0 0 0 1 0 0 0 1 52.609027375102997 35.967992613460794 9.0317893985886855 1 rotate no_reflect no_shear #
lump $-1 $-1 $33 $6 #
transform $-1 1 0 0 0 1 0 0 0 1 52.609027375102997 35.967992613460794 9.0317893985886855 1 rotate no_reflect no_shear #
lump $-1 $-1 $34 $7 #
transform $-1 1 0 0 0 1 0 0 0 1 52.609027375102997 35.967992613460794 9.0317893985886855 1 rotate no_reflect no_shear #
lump $-1 $-1 $35 $8 #
transform $-1 1 0 0 0 1 0 0 0 1 52.609027375102997 35.967992613460794 9.0317893985886855 1 rotate no_reflect no_shear #
shell $-1 $-1 $-1 $36 $-1 $9 #
shell $-1 $-1 $-1 $37 $-1 $11 #
shell $-1 $-1 $-1 $38 $-1 $13 #
shell $-1 $-1 $-1 $39 $-1 $15 #
shell $-1 $-1 $-1 $40 $-1 $17 #
shell $-1 $-1 $-1 $41 $-1 $19 #
shell $-1 $-1 $-1 $42 $-1 $21 #
shell $-1 $-1 $-1 $43 $-1 $23 #
shell $-1 $-1 $-1 $44 $-1 $25 #
face $-1 $45 $46 $27 $-1 $47 forward single #
face $-1 $48 $49 $28 $-1 $50 reversed single #
face $-1 $51 $52 $29 $-1 $53 reversed single #
face $-1 $54 $55 $30 $-1 $56 reversed single #
face $-1 $57 $58 $31 $-1 $59 forward single #
face $-1 $60 $61 $32 $-1 $62 reversed single #
face $-1 $63 $64 $33 $-1 $65 forward single #
face $-1 $66 $67 $34 $-1 $68 forward single #
face $-1 $69 $70 $35 $-1 $71 forward single #
face $-1 $72 $73 $27 $-1 $74 reversed single #
loop $-1 $-1 $75 $36 #
plane-surface $-1 0 0 9.0317893985886855 0 0 1 1 0 0 forward_v I I I I #
face $-1 $76 $77 $28 $-1 $78 reversed single #
loop $-1 $-1 $79 $37 #
plane-surface $-1 0 -31.199589843541947 4.3363173564438986 0 0 1 1 0 0 forward_v I I I I #
face $-1 $80 $81 $29 $-1 $82 reversed single #
loop $-1 $-1 $83 $38 #
plane-surface $-1 0 31.199589843541943 4.3363173564438986 0 0 1 1 0 0 forward_v I I I I #
face $-1 $84 $85 $30 $-1 $86 reversed single #
loop $-1 $-1 $87 $39 #
plane-surface $-1 57.802102207330506 13.386842770731697 153.65770554589892 0 1 0 0.73135370988377701 0 0.68199835119979291 forward_v I I I I #
face $-1 $88 $89 $31 $-1 $90 forward single #
loop $-1 $91 $92 $40 #
cone-surface $-1 49.618526171304076 19.909014922177398 5.9767776630016005 -0.73135370988377701 0 -0.68199835119979291 0.68199835119979291 0 -0.73135370988377701 1 I I 0 1 1 forward I I I I #
face $-1 $93 $94 $32 $-1 $95 reversed single #
loop $-1 $-1 $96 $41 #
plane-surface $-1 -112.95962503630804 16.100418188994102 88.643939031959349 0 1 0 -0.57357644374324357 0 0.81915203911291934 forward_v I I I I #
face $-1 $97 $98 $33 $-1 $99 forward single #
loop $-1 $100 $101 $42 #
cone-surface $-1 -47.446391219947657 18.1665719659199 5.0777533141434219 0.57357644374324357 0 -0.81915203911291934 0.81915203911291934 0 0.57357644374324357 1 I I 0 1 1 forward I I I I #
face $-1 $102 $103 $34 $-1 $104 forward single #
loop $-1 $105 $106 $43 #
cone-surface $-1 -47.446391219947657 21.265802631308603 5.0777533141434219 0.57357644374324357 0 -0.81915203911291934 0.81915203911291934 0 0.57357644374324357 1 I I 0 1 1 forward I I I I #
face $-1 $107 $108 $35 $-1 $109 forward single #
loop $-1 $110 $111 $44 #
cone-surface $-1 -47.446391219947657 24.365033296697305 5.0777533141434219 0.57357644374324357 0 -0.81915203911291934 0.81915203911291934 0 0.57357644374324357 1 I I 0 1 1 forward I I I I #
face $-1 $112 $113 $27 $-1 $114 reversed single #
loop $-1 $-1 $115 $45 #
plane-surface $-1 0 0 -9.0317893985886855 0 0 1 1 0 0 forward_v I I I I #
coedge $-1 $116 $117 $118 $119 forward $46 $-1 #
face $-1 $120 $121 $28 $-1 $122 reversed single #
loop $-1 $-1 $123 $48 #
plane-surface $-1 0 -26.4311870736231 6.6840533775162925 0 -1 0 0 0 -1 forward_v I I I I #
coedge $-1 $124 $125 $126 $127 reversed $49 $-1 #
face $-1 $128 $129 $29 $-1 $130 forward single #
loop $-1 $-1 $131 $51 #
plane-surface $-1 0 26.431187073623096 6.6840533775162925 0 1 0 0 0 1 forward_v I I I I #
coedge $-1 $132 $133 $134 $135 reversed $52 $-1 #
face $-1 $136 $137 $30 $-1 $138 forward single #
loop $-1 $-1 $139 $54 #
plane-surface $-1 -19.149512480987013 19.909014922177398 81.899165689808896 0.73135370988377701 0 0.68199835119979291 0.68199835119979291 0 -0.73135370988377701 forward_v I I I I #
coedge $-1 $140 $141 $142 $143 reversed $55 $-1 #
face $-1 $-1 $144 $31 $-1 $145 forward single #
loop $-1 $146 $147 $57 #
cone-surface $-1 48.166655026634899 19.909014922177398 4.6228859503632833 -0.73135370988377701 0 -0.68199835119979291 0.34099917559989645 0 -0.36567685494188851 1 I I -0.70710678118654746 0.70710678118654746 0.5 forward I I I I #
loop $-1 $-1 $148 $40 #
coedge $-1 $92 $92 $149 $150 reversed $58 $-1 #
face $-1 $151 $152 $32 $-1 $153 forward single #
loop $-1 $-1 $154 $60 #
plane-surface $-1 -52.60902737510299 21.265802631308603 2.454354931833322 -0.57357644374324357 0 0.81915203911291934 0.81915203911291934 0 0.57357644374324357 forward_v I I I I #
coedge $-1 $155 $156 $157 $158 reversed $61 $-1 #
face $-1 $-1 $159 $33 $-1 $160 forward single #
loop $-1 $161 $162 $63 #
cone-surface $-1 -46.693741714297822 18.1665719659199 4.0028584435193739 0.57357644374324357 0 -0.81915203911291934 0.40957601955645967 0 0.28678822187162178 1 I I -0.70710678118654746 0.70710678118654746 0.5 forward I I I I #
loop $-1 $-1 $163 $42 #
coedge $-1 $101 $101 $164 $165 reversed $64 $-1 #
face $-1 $-1 $166 $34 $-1 $167 forward single #
loop $-1 $168 $169 $66 #
cone-surface $-1 -46.693741714297822 21.265802631308603 4.0028584435193739 0.57357644374324357 0 -0.81915203911291934 0.40957601955645967 0 0.28678822187162178 1 I I -0.70710678118654746 0.70710678118654746 0.5 forward I I I I #
loop $-1 $-1 $170 $43 #
coedge $-1 $106 $106 $171 $172 reversed $67 $-1 #
face $-1 $-1 $173 $35 $-1 $174 forward single #
loop $-1 $175 $176 $69 #
cone-surface $-1 -46.693741714297822 24.365033296697305 4.0028584435193739 0.57357644374324357 0 -0.81915203911291934 0.40957601955645967 0 0.28678822187162178 1 I I -0.70710678118654746 0.70710678118654746 0.5 forward I I I I #
loop $-1 $-1 $177 $44 #
coedge $-1 $111 $111 $178 $179 reversed $70 $-1 #
face $-1 $180 $181 $27 $-1 $182 reversed single #
loop $-1 $-1 $183 $72 #
plane-surface $-1 0 -35.967992613460794 0 0 1 0 0 0 1 forward_v I I I I #
coedge $-1 $184 $185 $186 $187 forward $73 $-1 #
coedge $-1 $188 $75 $189 $190 forward $46 $-1 #
coedge $-1 $75 $188 $191 $192 forward $46 $-1 #
coedge $-1 $193 $194 $75 $119 reversed $195 $-1 #
edge $-1 $196 -35.967992613460794 $197 35.967992613460794 $118 $198 forward 7 unknown #
face $-1 $199 $200 $28 $-1 $201 reversed single #
loop $-1 $-1 $202 $76 #
plane-surface $-1 -52.609027375102997 0 0 1 0 0 0 0 -1 forward_v I I I I #
coedge $-1 $203 $204 $205 $206 reversed $77 $-1 #
coedge $-1 $207 $79 $208 $209 reversed $49 $-1 #
coedge $-1 $79 $207 $203 $210 forward $49 $-1 #
coedge $-1 $205 $211 $79 $127 forward $212 $-1 #
edge $-1 $213 -20.368197691689822 $214 -10.831392151852127 $126 $215 forward 7 unknown #
face $-1 $216 $217 $29 $-1 $218 reversed single #
loop $-1 $-1 $219 $80 #
plane-surface $-1 0 0 9.0317893985886855 0 0 1 1 0 0 forward_v I I I I #
coedge $-1 $220 $221 $222 $223 reversed $81 $-1 #
coedge $-1 $224 $83 $220 $225 forward $52 $-1 #
coedge $-1 $83 $224 $226 $227 reversed $52 $-1 #
coedge $-1 $228 $229 $83 $135 forward $217 $-1 #
edge $-1 $230 10.831392151852125 $231 20.368197691689822 $134 $232 forward 7 unknown #
face $-1 $233 $234 $30 $-1 $235 reversed single #
loop $-1 $-1 $236 $84 #
plane-surface $-1 0 0 9.0317893985886855 0 0 1 1 0 0 forward_v I I I I #
coedge $-1 $237 $238 $239 $240 reversed $85 $-1 #
coedge $-1 $141 $87 $241 $242 reversed $55 $-1 #
coedge $-1 $87 $140 $237 $243 reversed $55 $-1 #
coedge $-1 $239 $244 $87 $143 forward $234 $-1 #
edge $-1 $245 67.797063374360775 $246 71.88130177145807 $142 $247 forward 7 unknown #
loop $-1 $-1 $149 $88 #
plane-surface $-1 -19.149512480987013 19.909014922177398 81.899165689808896 0.73135370988377701 0 0.68199835119979291 0.68199835119979291 0 -0.73135370988377701 forward_v I I I I #
loop $-1 $-1 $248 $57 #
coedge $-1 $147 $147 $148 $249 reversed $89 $-1 #
coedge $-1 $148 $148 $147 $249 forward $91 $-1 #
coedge $-1 $149 $149 $92 $150 forward $144 $-1 #
edge $-1 $250 0 $250 6.2831853071796004 $149 $251 forward 7 unknown #
face $-1 $252 $253 $32 $-1 $254 forward single #
loop $-1 $-1 $157 $93 #
plane-surface $-1 0 0 9.0317893985886855 0 0 1 1 0 0 forward_v I I I I #
coedge $-1 $255 $256 $257 $258 reversed $94 $-1 #
coedge $-1 $156 $96 $259 $260 reversed $61 $-1 #
coedge $-1 $96 $155 $255 $261 reversed $61 $-1 #
coedge $-1 $257 $262 $96 $158 forward $152 $-1 #
edge $-1 $263 3.8707851430510232 $264 13.264334885805297 $157 $265 forward 7 unknown #
loop $-1 $-1 $164 $97 #
plane-surface $-1 -52.60902737510299 21.265802631308603 2.454354931833322 -0.57357644374324357 0 0.81915203911291934 0.81915203911291934 0 0.57357644374324357 forward_v I I I I #
loop $-1 $-1 $266 $63 #
coedge $-1 $162 $162 $163 $267 reversed $98 $-1 #
coedge $-1 $163 $163 $162 $267 forward $100 $-1 #
coedge $-1 $164 $164 $101 $165 forward $159 $-1 #
edge $-1 $268 0 $268 6.2831853071796004 $164 $269 forward 7 unknown #
loop $-1 $-1 $171 $102 #
plane-surface $-1 -52.60902737510299 21.265802631308603 2.454354931833322 -0.57357644374324357 0 0.81915203911291934 0.81915203911291934 0 0.57357644374324357 forward_v I I I I #
loop $-1 $-1 $270 $66 #
coedge $-1 $169 $169 $170 $271 reversed $103 $-1 #
coedge $-1 $170 $170 $169 $271 forward $105 $-1 #
coedge $-1 $171 $171 $106 $172 forward $166 $-1 #
edge $-1 $272 0 $272 6.2831853071796004 $171 $273 forward 7 unknown #
loop $-1 $-1 $178 $107 #
plane-surface $-1 -52.60902737510299 21.265802631308603 2.454354931833322 -0.57357644374324357 0 0.81915203911291934 0.81915203911291934 0 0.57357644374324357 forward_v I I I I #
loop $-1 $-1 $274 $69 #
coedge $-1 $176 $176 $177 $275 reversed $108 $-1 #
coedge $-1 $177 $177 $176 $275 forward $110 $-1 #
coedge $-1 $178 $178 $111 $179 forward $173 $-1 #
edge $-1 $276 0 $276 6.2831853071796004 $178 $277 forward 7 unknown #
face $-1 $278 $279 $27 $-1 $280 reversed single #
loop $-1 $-1 $281 $112 #
plane-surface $-1 -52.609027375102997 0 0 1 0 0 0 0 -1 forward_v I I I I #
coedge $-1 $282 $191 $283 $284 forward $113 $-1 #
coedge $-1 $285 $115 $282 $286 forward $73 $-1 #
coedge $-1 $115 $285 $287 $288 forward $73 $-1 #
coedge $-1 $194 $193 $115 $187 reversed $195 $-1 #
edge $-1 $289 -35.967992613460794 $290 35.967992613460794 $186 $291 forward 7 unknown #
coedge $-1 $117 $116 $292 $293 forward $46 $-1 #
coedge $-1 $294 $295 $116 $190 reversed $279 $-1 #
edge $-1 $197 -52.609027375102997 $296 52.609027375102997 $189 $297 forward 7 unknown #
coedge $-1 $183 $298 $117 $192 reversed $113 $-1 #
edge $-1 $299 -52.609027375102997 $196 52.609027375102997 $191 $300 forward 7 unknown #
coedge $-1 $186 $118 $298 $301 forward $195 $-1 #
coedge $-1 $118 $186 $294 $302 reversed $195 $-1 #
loop $-1 $-1 $193 $278 #
vertex $-1 $119 $303 #
vertex $-1 $119 $304 #
straight-curve $-1 52.609027375102997 0 9.0317893985886855 0 1 0 I I #
face $-1 $305 $306 $28 $-1 $307 forward single #
loop $-1 $-1 $208 $120 #
plane-surface $-1 0 -35.967992613460794 0 0 1 0 0 0 1 forward_v I I I I #
coedge $-1 $308 $309 $310 $311 forward $121 $-1 #
coedge $-1 $310 $123 $125 $210 reversed $77 $-1 #
coedge $-1 $123 $310 $312 $313 reversed $77 $-1 #
coedge $-1 $314 $126 $123 $206 forward $212 $-1 #
edge $-1 $214 0.99429066768575236 $315 5.6897627098305392 $205 $316 forward 7 unknown #
coedge $-1 $125 $124 $308 $317 reversed $49 $-1 #
coedge $-1 $318 $319 $124 $209 forward $200 $-1 #
edge $-1 $320 -52.609027375102997 $213 52.609027375102997 $208 $321 forward 7 unknown #
edge $-1 $322 -52.609027375102997 $214 52.609027375102997 $203 $323 forward 7 unknown #
coedge $-1 $126 $314 $318 $324 forward $212 $-1 #
loop $-1 $-1 $205 $305 #
vertex $-1 $209 $325 #
vertex $-1 $127 $326 #
straight-curve $-1 52.609027375102997 -15.599794921770973 4.3363173564438986 0 1 0 I I #
face $-1 $327 $328 $29 $-1 $329 reversed single #
loop $-1 $-1 $229 $128 #
plane-surface $-1 52.609027375102997 0 0 -1 0 0 0 0 1 forward_v I I I I #
coedge $-1 $330 $331 $221 $332 forward $129 $-1 #
coedge $-1 $333 $131 $132 $225 reversed $81 $-1 #
coedge $-1 $131 $333 $219 $332 reversed $81 $-1 #
coedge $-1 $334 $335 $131 $223 forward $328 $-1 #
edge $-1 $336 0.99429066768575236 $337 5.6897627098305392 $222 $338 forward 7 unknown #
coedge $-1 $133 $132 $335 $339 reversed $52 $-1 #
edge $-1 $230 -52.609027375102997 $336 52.609027375102997 $220 $340 forward 7 unknown #
coedge $-1 $341 $342 $133 $227 forward $343 $-1 #
edge $-1 $231 -52.609027375102997 $344 52.609027375102997 $226 $345 forward 7 unknown #
coedge $-1 $346 $134 $342 $347 reversed $217 $-1 #
coedge $-1 $134 $346 $333 $348 forward $217 $-1 #
vertex $-1 $135 $349 #
vertex $-1 $227 $350 #
straight-curve $-1 52.609027375102997 15.599794921770972 4.3363173564438986 0 1 0 I I #
face $-1 $-1 $351 $30 $-1 $352 forward single #
loop $-1 $-1 $142 $136 #
plane-surface $-1 52.609027375102997 0 0 -1 0 0 0 0 1 forward_v I I I I #
coedge $-1 $241 $353 $354 $355 forward $137 $-1 #
coedge $-1 $354 $139 $141 $243 forward $85 $-1 #
coedge $-1 $139 $354 $356 $357 reversed $85 $-1 #
coedge $-1 $358 $142 $139 $240 forward $234 $-1 #
edge $-1 $246 3.4323353096429976 $359 16.476679612534397 $239 $360 forward 7 unknown #
coedge $-1 $361 $236 $140 $242 forward $137 $-1 #
edge $-1 $362 19.899362443294478 $245 23.707976271437744 $241 $363 forward 7 unknown #
edge $-1 $246 -105.21805475020597 $362 -99.633563495288655 $141 $364 forward 7 unknown #
coedge $-1 $142 $358 $361 $365 reversed $234 $-1 #
vertex $-1 $365 $366 #
vertex $-1 $143 $367 #
straight-curve $-1 52.609027375102997 13.386842770731697 76.82885277294946 0 0 -1 I I #
coedge $-1 $248 $248 $-1 $368 reversed $146 $-1 #
edge $-1 $369 0 $369 6.2831853071796004 $147 $370 forward 7 unknown #
vertex $-1 $150 $371 #
ellipse-curve $-1 50.704720461031371 19.909014922177398 6.9896702000400257 0.73135370988377701 0 0.68199835119979291 0.68199835119979291 0 -0.73135370988377701 1 I I #
face $-1 $-1 $372 $32 $-1 $373 reversed single #
loop $-1 $-1 $374 $151 #
plane-surface $-1 0 26.431187073623096 6.6840533775162925 0 1 0 0 0 1 forward_v I I I I #
coedge $-1 $375 $154 $156 $261 forward $94 $-1 #
coedge $-1 $154 $375 $374 $376 forward $94 $-1 #
coedge $-1 $377 $157 $154 $258 forward $152 $-1 #
edge $-1 $264 5.4675168733398003 $378 15.798285757968802 $257 $379 forward 7 unknown #
coedge $-1 $380 $381 $155 $260 forward $372 $-1 #
edge $-1 $382 -41.867614584146359 $263 -35.290180117390989 $259 $383 forward 7 unknown #
edge $-1 $264 -11.467406896681576 $382 8.6223355153435888e-015 $156 $384 forward 7 unknown #
coedge $-1 $157 $377 $380 $385 forward $152 $-1 #
vertex $-1 $260 $386 #
vertex $-1 $158 $387 #
straight-curve $-1 -56.47981251815402 16.100418188994102 9.0317893985886855 1 0 0 I I #
coedge $-1 $266 $266 $-1 $388 reversed $161 $-1 #
edge $-1 $389 0 $389 6.2831853071796004 $162 $390 forward 7 unknown #
vertex $-1 $165 $391 #
ellipse-curve $-1 -47.912252503725867 18.1665719659199 5.7430721652109984 -0.57357644374324357 0 0.81915203911291934 0.81915203911291934 0 0.57357644374324357 1 I I #
coedge $-1 $270 $270 $-1 $392 reversed $168 $-1 #
edge $-1 $393 0 $393 6.2831853071796004 $169 $394 forward 7 unknown #
vertex $-1 $172 $395 #
ellipse-curve $-1 -47.912252503725867 21.265802631308603 5.7430721652109984 -0.57357644374324357 0 0.81915203911291934 0.81915203911291934 0 0.57357644374324357 1 I I #
coedge $-1 $274 $274 $-1 $396 reversed $175 $-1 #
edge $-1 $397 0 $397 6.2831853071796004 $176 $398 forward 7 unknown #
vertex $-1 $179 $399 #
ellipse-curve $-1 -47.912252503725867 24.365033296697305 5.7430721652109984 -0.57357644374324357 0 0.81915203911291934 0.81915203911291934 0 0.57357644374324357 1 I I #
face $-1 $-1 $195 $27 $-1 $400 reversed single #
loop $-1 $-1 $294 $180 #
plane-surface $-1 0 35.967992613460794 0 0 -1 0 0 0 -1 forward_v I I I I #
coedge $-1 $401 $292 $295 $402 forward $181 $-1 #
coedge $-1 $298 $183 $184 $286 reversed $113 $-1 #
coedge $-1 $292 $401 $183 $284 reversed $181 $-1 #
edge $-1 $299 -9.0317893985886855 $403 9.0317893985886855 $283 $404 forward 7 unknown #
coedge $-1 $185 $184 $401 $405 forward $73 $-1 #
edge $-1 $290 -52.609027375102997 $403 52.609027375102997 $282 $406 forward 7 unknown #
coedge $-1 $295 $294 $185 $288 reversed $279 $-1 #
edge $-1 $407 -52.609027375102997 $289 52.609027375102997 $287 $408 forward 7 unknown #
vertex $-1 $187 $409 #
vertex $-1 $301 $410 #
straight-curve $-1 52.609027375102997 0 -9.0317893985886855 0 -1 0 I I #
coedge $-1 $281 $283 $188 $293 reversed $181 $-1 #
edge $-1 $296 -35.967992613460794 $299 35.967992613460794 $292 $411 forward 7 unknown #
coedge $-1 $287 $189 $194 $302 forward $279 $-1 #
coedge $-1 $189 $287 $281 $402 reversed $279 $-1 #
vertex $-1 $190 $412 #
straight-curve $-1 0 35.967992613460794 9.0317893985886855 -1 0 0 I I #
coedge $-1 $191 $282 $193 $301 reversed $113 $-1 #
vertex $-1 $293 $413 #
straight-curve $-1 0 -35.967992613460794 9.0317893985886855 1 0 0 I I #
edge $-1 $196 -9.0317893985886855 $290 9.0317893985886855 $193 $414 forward 7 unknown #
edge $-1 $197 -9.0317893985886855 $289 9.0317893985886855 $194 $415 forward 7 unknown #
point $-1 52.609027375102997 -35.967992613460794 9.0317893985886855 #
point $-1 52.609027375102997 35.967992613460794 9.0317893985886855 #
face $-1 $-1 $212 $28 $-1 $416 reversed single #
loop $-1 $-1 $312 $199 #
plane-surface $-1 0 0 9.0317893985886855 0 0 1 1 0 0 forward_v I I I I #
coedge $-1 $417 $202 $207 $317 forward $121 $-1 #
coedge $-1 $202 $417 $418 $419 reversed $121 $-1 #
coedge $-1 $204 $203 $202 $311 reversed $77 $-1 #
edge $-1 $420 -5.6897627098305392 $322 -0.99429066768575236 $202 $421 forward 7 unknown #
coedge $-1 $418 $422 $204 $313 forward $306 $-1 #
edge $-1 $315 -52.609027375102997 $420 52.609027375102997 $312 $423 forward 7 unknown #
coedge $-1 $211 $205 $422 $424 reversed $212 $-1 #
vertex $-1 $206 $425 #
straight-curve $-1 52.609027375102997 -26.4311870736231 3.3420266887581462 0 0 1 I I #
edge $-1 $322 10.831392151852127 $320 20.368197691689822 $308 $426 forward 7 unknown #
coedge $-1 $427 $208 $211 $324 reversed $200 $-1 #
coedge $-1 $208 $427 $417 $428 forward $200 $-1 #
vertex $-1 $209 $429 #
straight-curve $-1 0 -35.967992613460794 4.3363173564438986 1 0 0 I I #
vertex $-1 $317 $430 #
straight-curve $-1 0 -26.4311870736231 4.3363173564438986 1 0 0 I I #
edge $-1 $431 -9.0317893985886855 $213 -4.3363173564438986 $211 $432 forward 7 unknown #
point $-1 52.609027375102997 -35.967992613460794 4.3363173564438986 #
point $-1 52.609027375102997 -26.4311870736231 4.3363173564438986 #
face $-1 $-1 $343 $29 $-1 $433 reversed single #
loop $-1 $-1 $222 $216 #
plane-surface $-1 -52.609027375102997 0 0 1 0 0 0 0 -1 forward_v I I I I #
coedge $-1 $434 $219 $346 $435 forward $129 $-1 #
coedge $-1 $219 $434 $334 $436 forward $129 $-1 #
edge $-1 $337 -52.609027375102997 $437 52.609027375102997 $219 $438 forward 7 unknown #
coedge $-1 $221 $220 $229 $348 reversed $81 $-1 #
coedge $-1 $439 $222 $331 $436 reversed $328 $-1 #
coedge $-1 $222 $439 $224 $339 forward $328 $-1 #
vertex $-1 $339 $440 #
vertex $-1 $223 $441 #
straight-curve $-1 -52.609027375102997 26.431187073623096 3.3420266887581462 0 0 1 I I #
edge $-1 $344 -20.368197691689822 $336 -10.831392151852125 $335 $442 forward 7 unknown #
straight-curve $-1 0 26.431187073623096 4.3363173564438986 -1 0 0 I I #
coedge $-1 $443 $226 $439 $444 reversed $343 $-1 #
coedge $-1 $226 $443 $228 $347 forward $343 $-1 #
loop $-1 $-1 $226 $327 #
vertex $-1 $227 $445 #
straight-curve $-1 0 35.967992613460794 4.3363173564438986 -1 0 0 I I #
coedge $-1 $229 $228 $330 $435 reversed $217 $-1 #
edge $-1 $446 -9.0317893985886855 $231 -4.3363173564438986 $228 $447 forward 7 unknown #
edge $-1 $437 -5.6897627098305392 $230 -0.99429066768575236 $229 $448 forward 7 unknown #
point $-1 52.609027375102997 26.431187073623096 4.3363173564438986 #
point $-1 52.609027375102997 35.967992613460794 4.3363173564438986 #
loop $-1 $-1 $356 $233 #
plane-surface $-1 0 26.431187073623096 6.6840533775162925 0 1 0 0 0 1 forward_v I I I I #
coedge $-1 $236 $361 $449 $450 forward $137 $-1 #
coedge $-1 $238 $237 $236 $355 reversed $85 $-1 #
edge $-1 $451 -16.476679612534397 $362 -3.4323353096429976 $236 $452 forward 7 unknown #
coedge $-1 $449 $453 $238 $357 forward $351 $-1 #
edge $-1 $359 -71.183661066589394 $451 -65.59916981167207 $356 $454 forward 7 unknown #
coedge $-1 $244 $239 $453 $455 forward $234 $-1 #
vertex $-1 $455 $456 #
straight-curve $-1 52.609027375102997 9.9545074610886992 4.9475510014913979 0 1 0 I I #
coedge $-1 $353 $241 $244 $365 forward $137 $-1 #
vertex $-1 $242 $457 #
straight-curve $-1 28.901051103665253 13.386842770731697 9.0317893985886855 1 0 0 I I #
straight-curve $-1 -19.149512480987013 13.386842770731697 81.899165689808896 -0.68199835119979291 0 0.73135370988377701 I I #
edge $-1 $245 13.386842770731697 $458 26.431187073623096 $244 $459 forward 7 unknown #
point $-1 52.609027375102997 13.386842770731697 9.0317893985886855 #
point $-1 52.609027375102997 13.386842770731697 4.9475510014913908 #
edge $-1 $460 1 $460 0 $248 $-1 forward 7 unknown #
vertex $-1 $249 $461 #
ellipse-curve $-1 48.532331881576788 19.909014922177398 4.9638851259631798 0.73135370988377701 0 0.68199835119979291 0.68199835119979291 0 -0.73135370988377701 1 I I #
point $-1 51.386718812231152 19.909014922177398 6.2583164901562442 #
loop $-1 $-1 $259 $252 #
plane-surface $-1 -52.609027375102997 0 0 1 0 0 0 0 -1 forward_v I I I I #
coedge $-1 $462 $463 $256 $376 reversed $253 $-1 #
coedge $-1 $256 $255 $381 $464 reversed $94 $-1 #
edge $-1 $465 -8.6223355153435888e-015 $378 11.467406896681576 $374 $466 forward 7 unknown #
coedge $-1 $262 $257 $463 $467 forward $152 $-1 #
vertex $-1 $467 $468 #
straight-curve $-1 -43.215477632348723 10.632901315654301 9.0317893985886855 0 1 0 I I #
coedge $-1 $469 $259 $262 $385 reversed $372 $-1 #
coedge $-1 $259 $469 $375 $464 forward $372 $-1 #
vertex $-1 $260 $470 #
straight-curve $-1 -52.609027375102997 16.100418188994102 44.321969515979674 0 0 1 I I #
straight-curve $-1 -52.60902737510299 16.100418188994102 2.454354931833322 -0.81915203911291934 0 -0.57357644374324357 I I #
edge $-1 $471 -26.431187073623096 $263 -16.100418188994102 $380 $472 forward 7 unknown #
point $-1 -52.609027375102997 16.100418188994102 9.0317893985886855 #
point $-1 -43.215477632348723 16.100418188994102 9.0317893985886855 #
edge $-1 $473 1 $473 0 $266 $-1 forward 7 unknown #
vertex $-1 $267 $474 #
ellipse-curve $-1 -46.980529936169447 18.1665719659199 4.4124344630758339 -0.57357644374324357 0 0.81915203911291934 0.81915203911291934 0 0.57357644374324357 1 I I #
point $-1 -47.093100464612959 18.1665719659199 6.3166486089542548 #
edge $-1 $475 1 $475 0 $270 $-1 forward 7 unknown #
vertex $-1 $271 $476 #
ellipse-curve $-1 -46.980529936169447 21.265802631308603 4.4124344630758339 -0.57357644374324357 0 0.81915203911291934 0.81915203911291934 0 0.57357644374324357 1 I I #
point $-1 -47.093100464612959 21.265802631308603 6.3166486089542548 #
edge $-1 $477 1 $477 0 $274 $-1 forward 7 unknown #
vertex $-1 $275 $478 #
ellipse-curve $-1 -46.980529936169447 24.365033296697305 4.4124344630758339 -0.57357644374324357 0 0.81915203911291934 0.81915203911291934 0 0.57357644374324357 1 I I #
point $-1 -47.093100464612959 24.365033296697305 6.3166486089542548 #
plane-surface $-1 52.609027375102997 0 0 -1 0 0 0 0 1 forward_v I I I I #
coedge $-1 $283 $281 $285 $405 reversed $181 $-1 #
edge $-1 $296 -9.0317893985886855 $407 9.0317893985886855 $295 $479 forward 7 unknown #
vertex $-1 $405 $480 #
straight-curve $-1 -52.609027375102997 -35.967992613460794 0 0 0 -1 I I #
edge $-1 $403 -35.967992613460794 $407 35.967992613460794 $401 $481 forward 7 unknown #
straight-curve $-1 0 -35.967992613460794 -9.0317893985886855 -1 0 0 I I #
vertex $-1 $288 $482 #
straight-curve $-1 0 35.967992613460794 -9.0317893985886855 1 0 0 I I #
point $-1 52.609027375102997 35.967992613460794 -9.0317893985886855 #
point $-1 52.609027375102997 -35.967992613460794 -9.0317893985886855 #
straight-curve $-1 -52.609027375102997 0 9.0317893985886855 0 -1 0 I I #
point $-1 -52.609027375102997 35.967992613460794 9.0317893985886855 #
point $-1 -52.609027375102997 -35.967992613460794 9.0317893985886855 #
straight-curve $-1 52.609027375102997 -35.967992613460794 0 0 0 -1 I I #
straight-curve $-1 52.609027375102997 35.967992613460794 0 0 0 -1 I I #
plane-surface $-1 52.609027375102997 0 0 -1 0 0 0 0 1 forward_v I I I I #
coedge $-1 $309 $308 $319 $428 reversed $121 $-1 #
coedge $-1 $483 $312 $309 $419 forward $306 $-1 #
edge $-1 $420 26.4311870736231 $484 35.967992613460794 $309 $485 forward 7 unknown #
vertex $-1 $419 $486 #
straight-curve $-1 -52.609027375102997 -26.4311870736231 3.3420266887581462 0 0 -1 I I #
coedge $-1 $312 $483 $314 $424 forward $306 $-1 #
straight-curve $-1 0 -26.4311870736231 9.0317893985886855 -1 0 0 I I #
edge $-1 $431 -35.967992613460794 $315 -26.4311870736231 $314 $487 forward 7 unknown #
point $-1 52.609027375102997 -26.4311870736231 9.0317893985886855 #
straight-curve $-1 -52.609027375102997 -15.599794921770973 4.3363173564438986 0 -1 0 I I #
coedge $-1 $319 $318 $483 $488 reversed $200 $-1 #
edge $-1 $484 -9.0317893985886855 $320 -4.3363173564438986 $417 $489 forward 7 unknown #
point $-1 -52.609027375102997 -35.967992613460794 4.3363173564438986 #
point $-1 -52.609027375102997 -26.4311870736231 4.3363173564438986 #
vertex $-1 $424 $490 #
straight-curve $-1 52.609027375102997 -35.967992613460794 0 0 0 -1 I I #
plane-surface $-1 0 35.967992613460794 0 0 -1 0 0 0 -1 forward_v I I I I #
coedge $-1 $331 $330 $443 $491 forward $129 $-1 #
edge $-1 $437 26.431187073623096 $446 35.967992613460794 $346 $492 forward 7 unknown #
edge $-1 $493 -35.967992613460794 $337 -26.431187073623096 $334 $494 forward 7 unknown #
vertex $-1 $435 $495 #
straight-curve $-1 0 26.431187073623096 9.0317893985886855 1 0 0 I I #
coedge $-1 $335 $334 $341 $444 forward $328 $-1 #
point $-1 -52.609027375102997 26.431187073623096 4.3363173564438986 #
point $-1 -52.609027375102997 26.431187073623096 9.0317893985886855 #
straight-curve $-1 -52.609027375102997 15.599794921770972 4.3363173564438986 0 -1 0 I I #
coedge $-1 $342 $341 $434 $491 reversed $343 $-1 #
edge $-1 $493 -9.0317893985886855 $344 -4.3363173564438986 $341 $496 forward 7 unknown #
point $-1 -52.609027375102997 35.967992613460794 4.3363173564438986 #
vertex $-1 $435 $497 #
straight-curve $-1 52.609027375102997 35.967992613460794 0 0 0 -1 I I #
straight-curve $-1 52.609027375102997 26.431187073623096 3.3420266887581462 0 0 -1 I I #
coedge $-1 $453 $356 $353 $450 reversed $351 $-1 #
edge $-1 $458 -52.609027375102997 $451 -48.800413546959724 $353 $498 forward 7 unknown #
vertex $-1 $357 $499 #
straight-curve $-1 48.800413546959724 9.9545074610886992 9.0317893985886855 0 -1 0 I I #
coedge $-1 $356 $449 $358 $455 reversed $351 $-1 #
straight-curve $-1 4.0618878953241371 26.431187073623096 57.007985605650923 -0.68199835119979291 0 0.73135370988377701 I I #
edge $-1 $359 1.6055243127332526 $458 5.6897627098305392 $358 $500 forward 7 unknown #
point $-1 52.609027375102997 26.431187073623096 4.9475510014913988 #
point $-1 48.800413546959732 13.386842770731697 9.0317893985886855 #
vertex $-1 $450 $501 #
straight-curve $-1 52.609027375102997 0 9.0317893985886855 0 1 0 I I #
vertex $-1 $368 $502 #
point $-1 49.214330232776582 19.909014922177398 4.2325314160794028 #
coedge $-1 $463 $374 $469 $503 reversed $253 $-1 #
coedge $-1 $374 $462 $377 $467 reversed $253 $-1 #
edge $-1 $465 -15.798285757968802 $382 -5.4675168733398003 $381 $504 forward 7 unknown #
vertex $-1 $503 $505 #
straight-curve $-1 -52.60902737510299 26.431187073623104 2.454354931833322 0.81915203911291934 0 0.57357644374324357 I I #
edge $-1 $378 43.215477632348723 $471 52.609027375102997 $377 $506 forward 7 unknown #
point $-1 -43.215477632348723 26.431187073623104 9.0317893985886855 #
coedge $-1 $381 $380 $462 $503 forward $372 $-1 #
point $-1 -52.609027375102997 16.100418188994102 2.4543549318333171 #
vertex $-1 $385 $507 #
straight-curve $-1 -52.609027375102997 0 9.0317893985886855 0 -1 0 I I #
vertex $-1 $388 $508 #
point $-1 -46.161377897056525 18.1665719659199 4.986010906819077 #
vertex $-1 $392 $509 #
point $-1 -46.161377897056525 21.265802631308603 4.986010906819077 #
vertex $-1 $396 $510 #
point $-1 -46.161377897056525 24.365033296697305 4.986010906819077 #
straight-curve $-1 -52.609027375102997 35.967992613460794 0 0 0 -1 I I #
point $-1 -52.609027375102997 -35.967992613460794 -9.0317893985886855 #
straight-curve $-1 -52.609027375102997 0 -9.0317893985886855 0 1 0 I I #
point $-1 -52.609027375102997 35.967992613460794 -9.0317893985886855 #
coedge $-1 $422 $418 $427 $488 forward $306 $-1 #
vertex $-1 $419 $511 #
straight-curve $-1 -52.609027375102997 0 9.0317893985886855 0 -1 0 I I #
point $-1 -52.609027375102997 -26.4311870736231 9.0317893985886855 #
straight-curve $-1 52.609027375102997 0 9.0317893985886855 0 1 0 I I #
edge $-1 $484 -52.609027375102997 $431 52.609027375102997 $427 $512 forward 7 unknown #
straight-curve $-1 -52.609027375102997 -35.967992613460794 0 0 0 -1 I I #
point $-1 52.609027375102997 -35.967992613460794 9.0317893985886855 #
edge $-1 $446 -52.609027375102997 $493 52.609027375102997 $443 $513 forward 7 unknown #
straight-curve $-1 52.609027375102997 0 9.0317893985886855 0 1 0 I I #
vertex $-1 $491 $514 #
straight-curve $-1 -52.609027375102997 0 9.0317893985886855 0 -1 0 I I #
point $-1 52.609027375102997 26.431187073623096 9.0317893985886855 #
straight-curve $-1 -52.609027375102997 35.967992613460794 0 0 0 -1 I I #
point $-1 52.609027375102997 35.967992613460794 9.0317893985886855 #
straight-curve $-1 0 26.431187073623096 9.0317893985886855 -1 0 0 I I #
point $-1 48.800413546959724 26.431187073623096 9.0317893985886855 #
straight-curve $-1 52.609027375102997 26.431187073623096 3.3420266887581462 0 0 1 I I #
point $-1 52.609027375102997 26.431187073623096 9.0317893985886855 #
point $-1 47.800978171693011 19.909014922177398 4.2818867747633869 #
edge $-1 $471 35.290180117390989 $465 41.867614584146359 $469 $515 forward 7 unknown #
straight-curve $-1 -52.609027375102997 10.632901315654301 2.4543549318333171 0 -1 0 I I #
point $-1 -52.609027375102997 26.431187073623104 2.4543549318333171 #
straight-curve $-1 0 26.431187073623096 9.0317893985886855 -1 0 0 I I #
point $-1 -52.609027375102997 26.431187073623096 9.0317893985886855 #
point $-1 -46.406953492426197 18.1665719659199 3.5932824239629144 #
point $-1 -46.406953492426197 21.265802631308603 3.5932824239629144 #
point $-1 -46.406953492426197 24.365033296697305 3.5932824239629144 #
point $-1 -52.609027375102997 -35.967992613460794 9.0317893985886855 #
straight-curve $-1 0 -35.967992613460794 9.0317893985886855 1 0 0 I I #
straight-curve $-1 0 35.967992613460794 9.0317893985886855 -1 0 0 I I #
point $-1 -52.609027375102997 35.967992613460794 9.0317893985886855 #
straight-curve $-1 -52.609027375102997 26.431187073623104 44.321969515979674 0 0 -1 I I #
End-of-ACIS-data 