500 0 4 0           
7 Unknown 11 ACIS 5.0 NT 24 Thu Mar 25 17:23:24 1999 
-1 9.9999999999999995e-007 1e-010 
body $-1 $4 $-1 $5 #
body $-1 $6 $-1 $7 #
body $-1 $8 $-1 $9 #
body $-1 $10 $-1 $11 #
lump $-1 $-1 $12 $0 #
transform $-1 1 0 0 0 1 0 0 0 1 42.982268745994446 27.297092187159215 9.4466416384017649 1 rotate no_reflect no_shear #
lump $-1 $-1 $13 $1 #
transform $-1 1 0 0 0 1 0 0 0 1 42.982268745994446 27.297092187159215 9.4466416384017649 1 rotate no_reflect no_shear #
lump $-1 $-1 $14 $2 #
transform $-1 1 0 0 0 1 0 0 0 1 42.982268745994446 27.297092187159215 9.4466416384017649 1 rotate no_reflect no_shear #
lump $-1 $-1 $15 $3 #
transform $-1 1 0 0 0 1 0 0 0 1 42.982268745994446 27.297092187159215 9.4466416384017649 1 rotate no_reflect no_shear #
shell $-1 $-1 $-1 $16 $-1 $4 #
shell $-1 $-1 $-1 $17 $-1 $6 #
shell $-1 $-1 $-1 $18 $-1 $8 #
shell $-1 $-1 $-1 $19 $-1 $10 #
face $-1 $20 $21 $12 $-1 $22 forward single #
face $-1 $23 $24 $13 $-1 $25 reversed single #
face $-1 $26 $27 $14 $-1 $28 forward single #
face $-1 $29 $30 $15 $-1 $31 reversed single #
face $-1 $32 $33 $12 $-1 $34 reversed single #
loop $-1 $-1 $35 $16 #
plane-surface $-1 0 0 9.4466416384017649 0 0 1 1 0 0 forward_v I I I I #
face $-1 $36 $37 $13 $-1 $38 reversed single #
loop $-1 $-1 $39 $17 #
plane-surface $-1 -48.172149932719812 0 3.8079476734722704 0 0 1 1 0 0 forward_v I I I I #
face $-1 $40 $41 $14 $-1 $42 forward single #
loop $-1 $-1 $43 $18 #
plane-surface $-1 -11.684805659862789 -87.013078420136964 68.040590990053403 -1 0 0 0 -0.69465837861970381 0.71933979245794832 forward_v I I I I #
face $-1 $44 $45 $15 $-1 $46 reversed single #
loop $-1 $47 $48 $19 #
cone-surface $-1 -22.143656016203252 -25.270255470394048 7.4650901388832045 0 0.69465837861970381 -0.71933979245794832 0.5 0 0 1 I I 0 1 0.5 forward I I I I #
face $-1 $49 $50 $12 $-1 $51 reversed single #
loop $-1 $-1 $52 $20 #
plane-surface $-1 0 0 -9.4466416384017649 0 0 1 1 0 0 forward_v I I I I #
coedge $-1 $53 $54 $55 $56 forward $21 $-1 #
face $-1 $57 $58 $13 $-1 $59 forward single #
loop $-1 $-1 $60 $23 #
plane-surface $-1 -53.362031119445177 0 6.6272946559370176 1 0 0 0 0 -1 forward_v I I I I #
coedge $-1 $61 $62 $63 $64 reversed $24 $-1 #
face $-1 $65 $66 $14 $-1 $67 forward single #
loop $-1 $-1 $68 $26 #
plane-surface $-1 -22.143656016203252 -27.297092187159222 6.2028784318225973 0 -0.69465837861970381 0.71933979245794832 1 0 0 forward_v I I I I #
coedge $-1 $69 $70 $71 $72 reversed $27 $-1 #
face $-1 $73 $74 $15 $-1 $75 forward single #
loop $-1 $76 $77 $29 #
cone-surface $-1 -22.143656016203252 -24.749261686429271 6.9255852945397436 0 0.69465837861970381 -0.71933979245794832 0.25 0 0 1 I I -0.70710678118654746 0.70710678118654746 0.25 forward I I I I #
loop $-1 $-1 $78 $19 #
coedge $-1 $48 $48 $79 $80 reversed $30 $-1 #
face $-1 $81 $82 $12 $-1 $83 reversed single #
loop $-1 $-1 $84 $32 #
plane-surface $-1 0 -27.297092187159215 0 0 1 0 0 0 1 forward_v I I I I #
coedge $-1 $85 $86 $87 $88 forward $33 $-1 #
coedge $-1 $89 $35 $90 $91 forward $21 $-1 #
coedge $-1 $35 $89 $92 $93 forward $21 $-1 #
coedge $-1 $94 $95 $35 $56 reversed $96 $-1 #
edge $-1 $97 -27.297092187159215 $98 27.297092187159215 $55 $99 forward 7 unknown #
face $-1 $100 $101 $13 $-1 $102 reversed single #
loop $-1 $-1 $103 $36 #
plane-surface $-1 0 0 9.4466416384017649 0 0 1 1 0 0 forward_v I I I I #
coedge $-1 $104 $105 $106 $107 forward $37 $-1 #
coedge $-1 $108 $39 $109 $110 forward $24 $-1 #
coedge $-1 $39 $108 $111 $112 forward $24 $-1 #
coedge $-1 $113 $114 $39 $64 forward $115 $-1 #
edge $-1 $116 -27.297092187159215 $117 27.297092187159215 $63 $118 forward 7 unknown #
face $-1 $119 $120 $14 $-1 $121 forward single #
loop $-1 $-1 $122 $40 #
plane-surface $-1 -32.602506372543715 -87.013078420136964 68.040590990053403 1 0 0 0 0.69465837861970381 -0.71933979245794832 forward_v I I I I #
coedge $-1 $123 $124 $125 $126 reversed $41 $-1 #
coedge $-1 $70 $43 $124 $127 forward $27 $-1 #
coedge $-1 $43 $69 $128 $129 reversed $27 $-1 #
coedge $-1 $130 $125 $43 $72 forward $120 $-1 #
edge $-1 $131 -19.568462077819881 $132 -16.209447022909266 $71 $133 forward 7 unknown #
face $-1 $134 $135 $15 $-1 $136 forward single #
loop $-1 $-1 $137 $44 #
plane-surface $-1 -11.684805659862789 -87.013078420136964 68.040590990053403 -1 0 0 0 -0.69465837861970381 0.71933979245794832 forward_v I I I I #
loop $-1 $-1 $138 $29 #
coedge $-1 $77 $77 $78 $139 forward $45 $-1 #
coedge $-1 $78 $78 $77 $139 reversed $47 $-1 #
coedge $-1 $79 $79 $48 $80 forward $135 $-1 #
edge $-1 $140 -3.5074398622107038e-016 $140 6.2831853071796004 $79 $141 forward 7 unknown #
face $-1 $142 $143 $12 $-1 $144 reversed single #
loop $-1 $-1 $145 $49 #
plane-surface $-1 -42.982268745994446 0 0 1 0 0 0 0 -1 forward_v I I I I #
coedge $-1 $146 $92 $147 $148 forward $50 $-1 #
coedge $-1 $149 $52 $146 $150 forward $33 $-1 #
coedge $-1 $52 $149 $151 $152 forward $33 $-1 #
coedge $-1 $95 $94 $52 $88 reversed $96 $-1 #
edge $-1 $153 -27.297092187159215 $154 27.297092187159215 $87 $155 forward 7 unknown #
coedge $-1 $54 $53 $156 $157 forward $21 $-1 #
coedge $-1 $158 $159 $53 $91 reversed $143 $-1 #
edge $-1 $98 -42.982268745994446 $160 42.982268745994446 $90 $161 forward 7 unknown #
coedge $-1 $84 $162 $54 $93 reversed $50 $-1 #
edge $-1 $163 -42.982268745994446 $97 42.982268745994446 $92 $164 forward 7 unknown #
coedge $-1 $87 $55 $162 $165 forward $96 $-1 #
coedge $-1 $55 $87 $158 $166 reversed $96 $-1 #
loop $-1 $-1 $94 $142 #
vertex $-1 $56 $167 #
vertex $-1 $56 $168 #
straight-curve $-1 42.982268745994446 0 9.4466416384017649 0 1 0 I I #
face $-1 $169 $170 $13 $-1 $171 reversed single #
loop $-1 $-1 $172 $57 #
plane-surface $-1 0 0 -9.4466416384017649 0 0 1 1 0 0 forward_v I I I I #
coedge $-1 $173 $174 $175 $176 forward $58 $-1 #
coedge $-1 $177 $60 $108 $178 reversed $37 $-1 #
coedge $-1 $60 $177 $179 $180 reversed $37 $-1 #
coedge $-1 $181 $111 $60 $107 reversed $182 $-1 #
edge $-1 $183 -2.8193469824647472 $184 2.8193469824647472 $106 $185 forward 7 unknown #
coedge $-1 $62 $61 $104 $178 forward $24 $-1 #
coedge $-1 $186 $187 $61 $110 reversed $170 $-1 #
edge $-1 $116 -5.1898811867253656 $188 5.1898811867253656 $109 $189 forward 7 unknown #
coedge $-1 $106 $190 $62 $112 reversed $182 $-1 #
edge $-1 $184 -5.1898811867253656 $117 5.1898811867253656 $111 $191 forward 7 unknown #
coedge $-1 $192 $63 $190 $193 forward $115 $-1 #
coedge $-1 $63 $192 $186 $194 reversed $115 $-1 #
loop $-1 $-1 $63 $169 #
vertex $-1 $194 $195 #
vertex $-1 $193 $196 #
straight-curve $-1 -42.982268745994446 0 3.8079476734722704 0 1 0 I I #
face $-1 $197 $198 $14 $-1 $199 reversed single #
loop $-1 $-1 $200 $65 #
plane-surface $-1 0 0 9.4466416384017649 0 0 1 1 0 0 forward_v I I I I #
coedge $-1 $201 $202 $200 $203 reversed $66 $-1 #
coedge $-1 $204 $68 $202 $205 reversed $41 $-1 #
coedge $-1 $68 $204 $69 $127 reversed $41 $-1 #
coedge $-1 $71 $200 $68 $126 forward $120 $-1 #
edge $-1 $206 -21.530678364442089 $131 -0.61297765176116314 $125 $207 forward 7 unknown #
edge $-1 $131 -4.6695804821710656 $208 -1.0047061288372931e-014 $69 $209 forward 7 unknown #
coedge $-1 $210 $211 $70 $129 forward $212 $-1 #
edge $-1 $132 24.573653856624937 $208 27.817417063204097 $128 $213 forward 7 unknown #
coedge $-1 $214 $71 $211 $215 forward $120 $-1 #
vertex $-1 $126 $216 #
vertex $-1 $215 $217 #
straight-curve $-1 -11.684805659862789 -43.506539210068482 9.4466416384017649 0 -1 0 I I #
face $-1 $218 $219 $15 $-1 $220 forward single #
loop $-1 $221 $79 $73 #
plane-surface $-1 -22.143656016203252 -27.297092187159222 6.2028784318225973 0 -0.69465837861970381 0.71933979245794832 1 0 0 forward_v I I I I #
coedge $-1 $222 $223 $224 $225 reversed $74 $-1 #
coedge $-1 $138 $138 $-1 $226 forward $76 $-1 #
edge $-1 $227 0 $227 6.2831853071796004 $77 $228 forward 7 unknown #
vertex $-1 $80 $229 #
ellipse-curve $-1 -22.143656016203252 -25.617584659703908 7.8247600351121864 0 0.69465837861970381 -0.71933979245794832 0.5 0 0 1 I I #
face $-1 $-1 $96 $12 $-1 $230 reversed single #
loop $-1 $-1 $158 $81 #
plane-surface $-1 0 27.297092187159215 0 0 -1 0 0 0 -1 forward_v I I I I #
coedge $-1 $231 $156 $159 $232 forward $82 $-1 #
coedge $-1 $162 $84 $85 $150 reversed $50 $-1 #
coedge $-1 $156 $231 $84 $148 reversed $82 $-1 #
edge $-1 $163 -9.4466416384017649 $233 9.4466416384017649 $147 $234 forward 7 unknown #
coedge $-1 $86 $85 $231 $235 forward $33 $-1 #
edge $-1 $154 -42.982268745994446 $233 42.982268745994446 $146 $236 forward 7 unknown #
coedge $-1 $159 $158 $86 $152 reversed $143 $-1 #
edge $-1 $237 -42.982268745994446 $153 42.982268745994446 $151 $238 forward 7 unknown #
vertex $-1 $88 $239 #
vertex $-1 $165 $240 #
straight-curve $-1 42.982268745994446 0 -9.4466416384017649 0 -1 0 I I #
coedge $-1 $145 $147 $89 $157 reversed $82 $-1 #
edge $-1 $160 -27.297092187159215 $163 27.297092187159215 $156 $241 forward 7 unknown #
coedge $-1 $151 $90 $95 $166 forward $143 $-1 #
coedge $-1 $90 $151 $145 $232 reversed $143 $-1 #
vertex $-1 $91 $242 #
straight-curve $-1 0 27.297092187159215 9.4466416384017649 -1 0 0 I I #
coedge $-1 $92 $146 $94 $165 reversed $50 $-1 #
vertex $-1 $157 $243 #
straight-curve $-1 0 -27.297092187159215 9.4466416384017649 1 0 0 I I #
edge $-1 $97 -9.4466416384017649 $154 9.4466416384017649 $94 $244 forward 7 unknown #
edge $-1 $98 -9.4466416384017649 $153 9.4466416384017649 $95 $245 forward 7 unknown #
point $-1 42.982268745994446 -27.297092187159215 9.4466416384017649 #
point $-1 42.982268745994446 27.297092187159215 9.4466416384017649 #
face $-1 $246 $115 $13 $-1 $247 reversed single #
loop $-1 $-1 $186 $100 #
plane-surface $-1 0 -27.297092187159215 0 0 1 0 0 0 1 forward_v I I I I #
coedge $-1 $248 $249 $250 $251 forward $101 $-1 #
coedge $-1 $179 $103 $181 $252 forward $58 $-1 #
coedge $-1 $103 $179 $253 $254 forward $58 $-1 #
coedge $-1 $255 $256 $103 $176 reversed $257 $-1 #
edge $-1 $258 -27.297092187159215 $259 27.297092187159215 $175 $260 forward 7 unknown #
coedge $-1 $105 $104 $187 $261 reversed $37 $-1 #
edge $-1 $188 -27.297092187159215 $184 27.297092187159215 $104 $262 forward 7 unknown #
coedge $-1 $174 $173 $105 $180 forward $58 $-1 #
edge $-1 $183 -27.297092187159215 $263 27.297092187159215 $105 $264 forward 7 unknown #
coedge $-1 $265 $106 $173 $252 reversed $182 $-1 #
loop $-1 $-1 $265 $246 #
vertex $-1 $252 $266 #
vertex $-1 $112 $267 #
straight-curve $-1 -53.362031119445177 27.297092187159215 6.6272946559370176 0 0 -1 I I #
coedge $-1 $268 $109 $114 $194 forward $170 $-1 #
coedge $-1 $109 $253 $177 $261 forward $170 $-1 #
vertex $-1 $178 $269 #
straight-curve $-1 -48.172149932719812 -27.297092187159215 3.8079476734722704 -1 0 0 I I #
coedge $-1 $111 $270 $113 $193 reversed $182 $-1 #
straight-curve $-1 -48.172149932719812 27.297092187159215 3.8079476734722704 1 0 0 I I #
coedge $-1 $114 $113 $271 $272 reversed $115 $-1 #
edge $-1 $117 -3.8079476734722704 $273 9.4466416384017649 $190 $274 forward 7 unknown #
edge $-1 $116 -3.8079476734722704 $275 9.4466416384017649 $114 $276 forward 7 unknown #
point $-1 -42.982268745994446 -27.297092187159215 3.8079476734722704 #
point $-1 -42.982268745994446 27.297092187159215 3.8079476734722704 #
face $-1 $277 $278 $14 $-1 $279 reversed single #
loop $-1 $-1 $280 $119 #
plane-surface $-1 -48.172149932719812 0 3.8079476734722704 0 0 1 1 0 0 forward_v I I I I #
coedge $-1 $125 $281 $122 $203 forward $120 $-1 #
coedge $-1 $202 $122 $282 $283 reversed $66 $-1 #
coedge $-1 $122 $201 $123 $205 forward $66 $-1 #
edge $-1 $284 16.209447022909266 $206 19.568462077819881 $200 $285 forward 7 unknown #
coedge $-1 $124 $123 $210 $286 reversed $41 $-1 #
edge $-1 $287 1.0047061288372931e-014 $206 4.6695804821710656 $202 $288 forward 7 unknown #
vertex $-1 $126 $289 #
straight-curve $-1 -11.071828008101626 -23.938077132248601 9.4466416384017649 1 0 0 I I #
vertex $-1 $286 $290 #
straight-curve $-1 -11.684805659862789 -27.297092187159222 6.2028784318225973 0 -0.71933979245794832 -0.69465837861970381 I I #
coedge $-1 $282 $128 $204 $286 forward $212 $-1 #
coedge $-1 $128 $291 $130 $215 reversed $212 $-1 #
loop $-1 $-1 $282 $292 #
straight-curve $-1 -11.684805659862789 -27.297092187159215 34.020295495026701 0 0 -1 I I #
coedge $-1 $293 $130 $294 $295 forward $120 $-1 #
edge $-1 $132 -11.684805659862789 $296 42.982268745994446 $211 $297 forward 7 unknown #
point $-1 -11.684805659862789 -23.938077132248601 9.4466416384017649 #
point $-1 -11.684805659862789 -27.297092187159215 9.4466416384017649 #
face $-1 $298 $299 $15 $-1 $300 forward single #
loop $-1 $-1 $301 $134 #
plane-surface $-1 -32.602506372543715 -87.013078420136964 68.040590990053403 1 0 0 0 0.69465837861970381 -0.71933979245794832 forward_v I I I I #
loop $-1 $-1 $302 $73 #
coedge $-1 $223 $137 $303 $304 forward $74 $-1 #
coedge $-1 $137 $222 $305 $306 reversed $74 $-1 #
coedge $-1 $307 $308 $137 $225 forward $299 $-1 #
edge $-1 $309 -19.568462077819881 $310 -16.209447022909266 $224 $311 forward 7 unknown #
edge $-1 $312 1 $312 0 $138 $-1 forward 7 unknown #
vertex $-1 $139 $313 #
ellipse-curve $-1 -22.143656016203252 -24.922926281084198 7.1054202426542306 0 -0.69465837861970381 0.71933979245794832 0.5 0 0 1 I I #
point $-1 -21.643656016203252 -25.617584659703901 7.8247600351121793 #
plane-surface $-1 42.982268745994446 0 0 -1 0 0 0 0 1 forward_v I I I I #
coedge $-1 $147 $145 $149 $235 reversed $82 $-1 #
edge $-1 $160 -9.4466416384017649 $237 9.4466416384017649 $159 $314 forward 7 unknown #
vertex $-1 $235 $315 #
straight-curve $-1 -42.982268745994446 -27.297092187159215 0 0 0 -1 I I #
edge $-1 $233 -27.297092187159215 $237 27.297092187159215 $231 $316 forward 7 unknown #
straight-curve $-1 0 -27.297092187159215 -9.4466416384017649 -1 0 0 I I #
vertex $-1 $152 $317 #
straight-curve $-1 0 27.297092187159215 -9.4466416384017649 1 0 0 I I #
point $-1 42.982268745994446 27.297092187159215 -9.4466416384017649 #
point $-1 42.982268745994446 -27.297092187159215 -9.4466416384017649 #
straight-curve $-1 -42.982268745994446 0 9.4466416384017649 0 -1 0 I I #
point $-1 -42.982268745994446 27.297092187159215 9.4466416384017649 #
point $-1 -42.982268745994446 -27.297092187159215 9.4466416384017649 #
straight-curve $-1 42.982268745994446 -27.297092187159215 0 0 0 -1 I I #
straight-curve $-1 42.982268745994446 27.297092187159215 0 0 0 -1 I I #
face $-1 $318 $182 $13 $-1 $319 reversed single #
plane-surface $-1 -42.982268745994446 0 0 1 0 0 0 0 -1 forward_v I I I I #
coedge $-1 $271 $172 $268 $320 forward $101 $-1 #
coedge $-1 $172 $271 $270 $321 forward $101 $-1 #
coedge $-1 $256 $255 $172 $251 reversed $257 $-1 #
edge $-1 $322 -27.297092187159215 $323 27.297092187159215 $250 $324 forward 7 unknown #
edge $-1 $259 -42.982268745994446 $183 53.362031119445177 $181 $325 forward 7 unknown #
coedge $-1 $187 $326 $174 $254 reversed $170 $-1 #
edge $-1 $263 -53.362031119445177 $258 42.982268745994446 $253 $327 forward 7 unknown #
coedge $-1 $250 $175 $326 $328 forward $257 $-1 #
coedge $-1 $175 $250 $265 $329 reversed $257 $-1 #
loop $-1 $-1 $255 $318 #
vertex $-1 $176 $330 #
vertex $-1 $176 $331 #
straight-curve $-1 42.982268745994446 0 9.4466416384017649 0 1 0 I I #
edge $-1 $263 -2.8193469824647472 $188 2.8193469824647472 $177 $332 forward 7 unknown #
straight-curve $-1 -53.362031119445177 0 3.8079476734722704 0 1 0 I I #
vertex $-1 $180 $333 #
straight-curve $-1 -53.362031119445177 0 9.4466416384017649 0 -1 0 I I #
coedge $-1 $270 $181 $256 $329 forward $182 $-1 #
point $-1 -53.362031119445177 27.297092187159215 9.4466416384017649 #
point $-1 -53.362031119445177 27.297092187159215 3.8079476734722704 #
coedge $-1 $326 $186 $248 $320 reversed $170 $-1 #
point $-1 -53.362031119445177 -27.297092187159215 3.8079476734722704 #
coedge $-1 $190 $265 $249 $321 reversed $182 $-1 #
coedge $-1 $249 $248 $192 $272 forward $101 $-1 #
edge $-1 $275 -27.297092187159215 $273 27.297092187159215 $192 $334 forward 7 unknown #
vertex $-1 $321 $335 #
straight-curve $-1 -42.982268745994446 27.297092187159215 0 0 0 -1 I I #
vertex $-1 $272 $336 #
straight-curve $-1 -42.982268745994446 -27.297092187159215 0 0 0 -1 I I #
face $-1 $292 $337 $14 $-1 $338 reversed single #
loop $-1 $-1 $339 $197 #
plane-surface $-1 -53.362031119445177 0 6.6272946559370176 1 0 0 0 0 -1 forward_v I I I I #
coedge $-1 $340 $341 $342 $343 reversed $198 $-1 #
coedge $-1 $200 $344 $345 $346 forward $120 $-1 #
coedge $-1 $345 $210 $201 $283 forward $212 $-1 #
edge $-1 $287 -27.817417063204097 $284 -24.573653856624937 $282 $347 forward 7 unknown #
vertex $-1 $283 $348 #
straight-curve $-1 -32.602506372543715 -43.506539210068482 9.4466416384017649 0 1 0 I I #
edge $-1 $208 0.61297765176116314 $287 21.530678364442089 $210 $349 forward 7 unknown #
vertex $-1 $286 $350 #
straight-curve $-1 -32.602506372543715 -27.297092187159222 6.2028784318225973 0 0.71933979245794832 0.69465837861970381 I I #
point $-1 -32.602506372543715 -23.938077132248601 9.4466416384017649 #
point $-1 -11.684805659862789 -27.297092187159215 6.2028784318226045 #
coedge $-1 $211 $351 $352 $353 reversed $212 $-1 #
face $-1 $354 $212 $14 $-1 $355 reversed single #
coedge $-1 $344 $214 $356 $357 forward $120 $-1 #
coedge $-1 $352 $358 $214 $295 reversed $359 $-1 #
edge $-1 $296 -27.297092187159215 $360 27.297092187159215 $294 $361 forward 7 unknown #
vertex $-1 $295 $362 #
straight-curve $-1 0 -27.297092187159215 9.4466416384017649 1 0 0 I I #
face $-1 $363 $364 $15 $-1 $365 reversed single #
loop $-1 $-1 $366 $218 #
plane-surface $-1 0 0 9.4466416384017649 0 0 1 1 0 0 forward_v I I I I #
coedge $-1 $367 $368 $366 $369 reversed $219 $-1 #
coedge $-1 $370 $303 $308 $371 reversed $221 $-1 #
coedge $-1 $302 $372 $222 $304 reversed $221 $-1 #
edge $-1 $309 -4.6695804821710656 $373 -1.0047061288372931e-014 $222 $374 forward 7 unknown #
coedge $-1 $375 $376 $223 $306 forward $377 $-1 #
edge $-1 $310 24.573653856624937 $373 27.817417063204097 $305 $378 forward 7 unknown #
coedge $-1 $379 $224 $376 $380 forward $299 $-1 #
coedge $-1 $224 $366 $302 $371 forward $299 $-1 #
vertex $-1 $371 $381 #
vertex $-1 $380 $382 #
straight-curve $-1 -11.684805659862789 -43.506539210068482 9.4466416384017649 0 -1 0 I I #
vertex $-1 $226 $383 #
point $-1 -21.643656016203252 -24.922926281084198 7.1054202426542306 #
straight-curve $-1 -42.982268745994446 27.297092187159215 0 0 0 -1 I I #
point $-1 -42.982268745994446 -27.297092187159215 -9.4466416384017649 #
straight-curve $-1 -42.982268745994446 0 -9.4466416384017649 0 1 0 I I #
point $-1 -42.982268745994446 27.297092187159215 -9.4466416384017649 #
face $-1 $-1 $257 $13 $-1 $384 reversed single #
plane-surface $-1 0 27.297092187159215 0 0 -1 0 0 0 -1 forward_v I I I I #
edge $-1 $323 -42.982268745994446 $275 42.982268745994446 $268 $385 forward 7 unknown #
edge $-1 $273 -42.982268745994446 $322 42.982268745994446 $270 $386 forward 7 unknown #
vertex $-1 $251 $387 #
vertex $-1 $328 $388 #
straight-curve $-1 42.982268745994446 0 -9.4466416384017649 0 -1 0 I I #
straight-curve $-1 0 27.297092187159215 9.4466416384017649 -1 0 0 I I #
coedge $-1 $253 $268 $255 $328 reversed $170 $-1 #
straight-curve $-1 0 -27.297092187159215 9.4466416384017649 1 0 0 I I #
edge $-1 $258 -9.4466416384017649 $323 9.4466416384017649 $255 $389 forward 7 unknown #
edge $-1 $259 -9.4466416384017649 $322 9.4466416384017649 $256 $390 forward 7 unknown #
point $-1 42.982268745994446 -27.297092187159215 9.4466416384017649 #
point $-1 42.982268745994446 27.297092187159215 9.4466416384017649 #
straight-curve $-1 -53.362031119445177 -27.297092187159215 6.6272946559370176 0 0 -1 I I #
point $-1 -53.362031119445177 -27.297092187159215 9.4466416384017649 #
straight-curve $-1 -42.982268745994446 0 -9.4466416384017649 0 1 0 I I #
point $-1 -42.982268745994446 27.297092187159215 -9.4466416384017649 #
point $-1 -42.982268745994446 -27.297092187159215 -9.4466416384017649 #
loop $-1 $-1 $391 $277 #
plane-surface $-1 0 0 -9.4466416384017649 0 0 1 1 0 0 forward_v I I I I #
coedge $-1 $392 $393 $394 $395 forward $278 $-1 #
coedge $-1 $396 $280 $397 $398 forward $198 $-1 #
coedge $-1 $280 $396 $399 $400 forward $198 $-1 #
coedge $-1 $401 $402 $280 $343 forward $403 $-1 #
edge $-1 $404 -27.297092187159215 $405 27.297092187159215 $342 $406 forward 7 unknown #
coedge $-1 $281 $293 $393 $407 forward $120 $-1 #
coedge $-1 $408 $282 $281 $346 reversed $212 $-1 #
edge $-1 $409 -53.362031119445177 $284 -32.602506372543715 $345 $297 forward 7 unknown #
straight-curve $-1 -32.602506372543715 -27.297092187159215 34.020295495026701 0 0 1 I I #
point $-1 -32.602506372543715 -27.297092187159215 9.4466416384017649 #
straight-curve $-1 -11.071828008101626 -27.297092187159215 6.2028784318226027 -1 0 0 I I #
point $-1 -32.602506372543715 -27.297092187159215 6.2028784318226045 #
coedge $-1 $291 $410 $411 $412 reversed $212 $-1 #
coedge $-1 $413 $294 $291 $353 forward $359 $-1 #
edge $-1 $296 -9.4466416384017649 $414 9.4466416384017649 $352 $415 forward 7 unknown #
face $-1 $416 $403 $14 $-1 $417 reversed single #
plane-surface $-1 0 -27.297092187159215 0 0 1 0 0 0 1 forward_v I I I I #
coedge $-1 $418 $394 $293 $357 reversed $419 $-1 #
edge $-1 $360 -42.982268745994446 $420 53.362031119445177 $356 $421 forward 7 unknown #
coedge $-1 $294 $413 $418 $422 reversed $359 $-1 #
loop $-1 $-1 $352 $423 #
vertex $-1 $295 $424 #
straight-curve $-1 42.982268745994446 0 9.4466416384017649 0 1 0 I I #
point $-1 42.982268745994446 -27.297092187159215 9.4466416384017649 #
face $-1 $425 $426 $15 $-1 $427 reversed single #
loop $-1 $-1 $428 $298 #
plane-surface $-1 -48.172149932719812 0 3.8079476734722704 0 0 1 1 0 0 forward_v I I I I #
coedge $-1 $308 $429 $301 $369 forward $299 $-1 #
coedge $-1 $368 $301 $430 $431 reversed $219 $-1 #
coedge $-1 $301 $367 $370 $432 forward $219 $-1 #
edge $-1 $433 16.209447022909266 $434 19.568462077819881 $366 $435 forward 7 unknown #
coedge $-1 $372 $302 $368 $432 reversed $221 $-1 #
edge $-1 $434 -21.530678364442089 $309 -0.61297765176116314 $308 $436 forward 7 unknown #
coedge $-1 $303 $370 $375 $437 reversed $221 $-1 #
vertex $-1 $437 $438 #
straight-curve $-1 -11.684805659862789 -27.297092187159222 6.2028784318225973 0 -0.71933979245794832 -0.69465837861970381 I I #
coedge $-1 $430 $305 $372 $437 forward $377 $-1 #
coedge $-1 $305 $439 $307 $380 reversed $377 $-1 #
loop $-1 $-1 $430 $440 #
straight-curve $-1 -11.684805659862789 -27.297092187159215 34.020295495026701 0 0 -1 I I #
coedge $-1 $441 $307 $442 $443 forward $299 $-1 #
edge $-1 $310 -11.684805659862789 $444 42.982268745994446 $376 $445 forward 7 unknown #
point $-1 -11.684805659862789 -23.938077132248601 9.4466416384017649 #
point $-1 -11.684805659862789 -27.297092187159215 9.4466416384017649 #
point $-1 -22.143656016203252 -24.575597091774345 6.7457503464252566 #
plane-surface $-1 42.982268745994446 0 0 -1 0 0 0 0 1 forward_v I I I I #
straight-curve $-1 0 -27.297092187159215 -9.4466416384017649 -1 0 0 I I #
straight-curve $-1 0 27.297092187159215 -9.4466416384017649 1 0 0 I I #
point $-1 42.982268745994446 27.297092187159215 -9.4466416384017649 #
point $-1 42.982268745994446 -27.297092187159215 -9.4466416384017649 #
straight-curve $-1 42.982268745994446 -27.297092187159215 0 0 0 -1 I I #
straight-curve $-1 42.982268745994446 27.297092187159215 0 0 0 -1 I I #
coedge $-1 $411 $446 $413 $447 forward $337 $-1 #
coedge $-1 $448 $339 $396 $449 reversed $278 $-1 #
coedge $-1 $339 $448 $344 $407 reversed $278 $-1 #
coedge $-1 $356 $399 $339 $395 reversed $419 $-1 #
edge $-1 $420 -2.8193469824647472 $450 2.8193469824647472 $394 $451 forward 7 unknown #
coedge $-1 $341 $340 $392 $449 forward $198 $-1 #
coedge $-1 $410 $408 $340 $398 reversed $212 $-1 #
edge $-1 $404 -5.1898811867253656 $452 5.1898811867253656 $397 $453 forward 7 unknown #
coedge $-1 $394 $454 $341 $400 reversed $419 $-1 #
edge $-1 $450 -5.1898811867253656 $405 5.1898811867253656 $399 $455 forward 7 unknown #
coedge $-1 $456 $342 $454 $457 forward $403 $-1 #
coedge $-1 $342 $456 $410 $458 reversed $403 $-1 #
loop $-1 $-1 $342 $354 #
vertex $-1 $458 $459 #
vertex $-1 $457 $460 #
straight-curve $-1 -42.982268745994446 0 3.8079476734722704 0 1 0 I I #
edge $-1 $420 -27.297092187159215 $409 27.297092187159215 $393 $461 forward 7 unknown #
coedge $-1 $397 $345 $448 $462 forward $212 $-1 #
vertex $-1 $407 $463 #
coedge $-1 $351 $397 $402 $458 forward $212 $-1 #
coedge $-1 $464 $391 $351 $412 forward $337 $-1 #
edge $-1 $414 -42.982268745994446 $465 42.982268745994446 $351 $466 forward 7 unknown #
coedge $-1 $358 $352 $391 $447 reversed $359 $-1 #
vertex $-1 $353 $467 #
straight-curve $-1 42.982268745994446 -27.297092187159215 0 0 0 -1 I I #
face $-1 $423 $419 $14 $-1 $468 reversed single #
plane-surface $-1 -42.982268745994446 0 0 1 0 0 0 0 -1 forward_v I I I I #
coedge $-1 $469 $356 $358 $422 forward $419 $-1 #
loop $-1 $-1 $418 $416 #
vertex $-1 $357 $470 #
straight-curve $-1 0 27.297092187159215 9.4466416384017649 -1 0 0 I I #
edge $-1 $360 -9.4466416384017649 $471 9.4466416384017649 $358 $472 forward 7 unknown #
face $-1 $-1 $359 $14 $-1 $473 reversed single #
point $-1 42.982268745994446 27.297092187159215 9.4466416384017649 #
face $-1 $440 $474 $15 $-1 $475 reversed single #
loop $-1 $-1 $476 $363 #
plane-surface $-1 -53.362031119445177 0 6.6272946559370176 1 0 0 0 0 -1 forward_v I I I I #
coedge $-1 $477 $478 $479 $480 reversed $364 $-1 #
coedge $-1 $366 $481 $482 $483 forward $299 $-1 #
coedge $-1 $482 $375 $367 $431 forward $377 $-1 #
edge $-1 $484 -27.817417063204097 $433 -24.573653856624937 $430 $485 forward 7 unknown #
edge $-1 $484 1.0047061288372931e-014 $434 4.6695804821710656 $368 $486 forward 7 unknown #
vertex $-1 $431 $487 #
vertex $-1 $371 $488 #
straight-curve $-1 -32.602506372543715 -43.506539210068482 9.4466416384017649 0 1 0 I I #
straight-curve $-1 -11.071828008101626 -23.938077132248601 9.4466416384017649 1 0 0 I I #
edge $-1 $373 0.61297765176116314 $484 21.530678364442089 $375 $489 forward 7 unknown #
point $-1 -11.684805659862789 -27.297092187159215 6.2028784318226045 #
coedge $-1 $376 $490 $491 $492 reversed $377 $-1 #
face $-1 $493 $377 $15 $-1 $494 reversed single #
coedge $-1 $481 $379 $495 $496 forward $299 $-1 #
coedge $-1 $491 $497 $379 $443 reversed $498 $-1 #
edge $-1 $444 -27.297092187159215 $499 27.297092187159215 $442 $500 forward 7 unknown #
vertex $-1 $443 $501 #
straight-curve $-1 0 -27.297092187159215 9.4466416384017649 1 0 0 I I #
coedge $-1 $391 $464 $469 $502 forward $337 $-1 #
edge $-1 $471 -27.297092187159215 $414 27.297092187159215 $413 $503 forward 7 unknown #
coedge $-1 $393 $392 $408 $462 reversed $278 $-1 #
edge $-1 $452 -27.297092187159215 $450 27.297092187159215 $392 $504 forward 7 unknown #
vertex $-1 $400 $505 #
straight-curve $-1 -53.362031119445177 27.297092187159215 6.6272946559370176 0 0 -1 I I #
vertex $-1 $449 $506 #
straight-curve $-1 -48.172149932719812 -27.297092187159215 3.8079476734722704 -1 0 0 I I #
coedge $-1 $399 $469 $401 $457 reversed $419 $-1 #
straight-curve $-1 -48.172149932719812 27.297092187159215 3.8079476734722704 1 0 0 I I #
coedge $-1 $402 $401 $464 $507 reversed $403 $-1 #
edge $-1 $405 -3.8079476734722704 $508 9.4466416384017649 $454 $509 forward 7 unknown #
edge $-1 $404 -3.8079476734722704 $465 9.4466416384017649 $402 $510 forward 7 unknown #
point $-1 -42.982268745994446 -27.297092187159215 3.8079476734722704 #
point $-1 -42.982268745994446 27.297092187159215 3.8079476734722704 #
straight-curve $-1 -53.362031119445177 0 9.4466416384017649 0 -1 0 I I #
edge $-1 $409 -2.8193469824647472 $452 2.8193469824647472 $448 $511 forward 7 unknown #
point $-1 -53.362031119445177 -27.297092187159215 9.4466416384017649 #
coedge $-1 $446 $411 $456 $507 forward $337 $-1 #
vertex $-1 $507 $512 #
straight-curve $-1 0 -27.297092187159215 -9.4466416384017649 -1 0 0 I I #
point $-1 42.982268745994446 -27.297092187159215 -9.4466416384017649 #
plane-surface $-1 0 27.297092187159215 0 0 -1 0 0 0 -1 forward_v I I I I #
coedge $-1 $454 $418 $446 $502 reversed $419 $-1 #
point $-1 -53.362031119445177 27.297092187159215 9.4466416384017649 #
vertex $-1 $447 $513 #
straight-curve $-1 42.982268745994446 27.297092187159215 0 0 0 -1 I I #
plane-surface $-1 42.982268745994446 0 0 -1 0 0 0 0 1 forward_v I I I I #
loop $-1 $-1 $514 $425 #
plane-surface $-1 0 0 -9.4466416384017649 0 0 1 1 0 0 forward_v I I I I #
coedge $-1 $515 $516 $517 $518 forward $426 $-1 #
coedge $-1 $519 $428 $520 $521 forward $364 $-1 #
coedge $-1 $428 $519 $522 $523 forward $364 $-1 #
coedge $-1 $524 $525 $428 $480 forward $526 $-1 #
edge $-1 $527 -27.297092187159215 $528 27.297092187159215 $479 $529 forward 7 unknown #
coedge $-1 $429 $441 $516 $530 forward $299 $-1 #
coedge $-1 $531 $430 $429 $483 reversed $377 $-1 #
edge $-1 $532 -53.362031119445177 $433 -32.602506372543715 $482 $445 forward 7 unknown #
vertex $-1 $437 $533 #
straight-curve $-1 -32.602506372543715 -27.297092187159215 34.020295495026701 0 0 1 I I #
straight-curve $-1 -32.602506372543715 -27.297092187159222 6.2028784318225973 0 0.71933979245794832 0.69465837861970381 I I #
point $-1 -32.602506372543715 -27.297092187159215 9.4466416384017649 #
point $-1 -32.602506372543715 -23.938077132248601 9.4466416384017649 #
straight-curve $-1 -11.071828008101626 -27.297092187159215 6.2028784318226027 -1 0 0 I I #
coedge $-1 $439 $534 $535 $536 reversed $377 $-1 #
coedge $-1 $537 $442 $439 $492 forward $498 $-1 #
edge $-1 $444 -9.4466416384017649 $538 9.4466416384017649 $491 $539 forward 7 unknown #
face $-1 $540 $526 $15 $-1 $541 reversed single #
plane-surface $-1 0 -27.297092187159215 0 0 1 0 0 0 1 forward_v I I I I #
coedge $-1 $542 $517 $441 $496 reversed $543 $-1 #
edge $-1 $499 -42.982268745994446 $544 53.362031119445177 $495 $545 forward 7 unknown #
coedge $-1 $442 $537 $542 $546 reversed $498 $-1 #
loop $-1 $-1 $491 $547 #
vertex $-1 $443 $548 #
straight-curve $-1 42.982268745994446 0 9.4466416384017649 0 1 0 I I #
point $-1 42.982268745994446 -27.297092187159215 9.4466416384017649 #
edge $-1 $508 -42.982268745994446 $471 42.982268745994446 $469 $549 forward 7 unknown #
straight-curve $-1 42.982268745994446 0 -9.4466416384017649 0 -1 0 I I #
straight-curve $-1 -53.362031119445177 0 3.8079476734722704 0 1 0 I I #
point $-1 -53.362031119445177 27.297092187159215 3.8079476734722704 #
point $-1 -53.362031119445177 -27.297092187159215 3.8079476734722704 #
edge $-1 $465 -27.297092187159215 $508 27.297092187159215 $456 $550 forward 7 unknown #
vertex $-1 $502 $551 #
straight-curve $-1 -42.982268745994446 27.297092187159215 0 0 0 -1 I I #
straight-curve $-1 -42.982268745994446 -27.297092187159215 0 0 0 -1 I I #
straight-curve $-1 -53.362031119445177 -27.297092187159215 6.6272946559370176 0 0 -1 I I #
point $-1 -42.982268745994446 -27.297092187159215 -9.4466416384017649 #
point $-1 42.982268745994446 27.297092187159215 -9.4466416384017649 #
coedge $-1 $535 $552 $537 $553 forward $474 $-1 #
coedge $-1 $554 $476 $519 $555 reversed $426 $-1 #
coedge $-1 $476 $554 $481 $530 reversed $426 $-1 #
coedge $-1 $495 $522 $476 $518 reversed $543 $-1 #
edge $-1 $544 -2.8193469824647472 $556 2.8193469824647472 $517 $557 forward 7 unknown #
coedge $-1 $478 $477 $515 $555 forward $364 $-1 #
coedge $-1 $534 $531 $477 $521 reversed $377 $-1 #
edge $-1 $527 -5.1898811867253656 $558 5.1898811867253656 $520 $559 forward 7 unknown #
coedge $-1 $517 $560 $478 $523 reversed $543 $-1 #
edge $-1 $556 -5.1898811867253656 $528 5.1898811867253656 $522 $561 forward 7 unknown #
coedge $-1 $562 $479 $560 $563 forward $526 $-1 #
coedge $-1 $479 $562 $534 $564 reversed $526 $-1 #
loop $-1 $-1 $479 $493 #
vertex $-1 $564 $565 #
vertex $-1 $563 $566 #
straight-curve $-1 -42.982268745994446 0 3.8079476734722704 0 1 0 I I #
edge $-1 $544 -27.297092187159215 $532 27.297092187159215 $516 $567 forward 7 unknown #
coedge $-1 $520 $482 $554 $568 forward $377 $-1 #
vertex $-1 $530 $569 #
point $-1 -32.602506372543715 -27.297092187159215 6.2028784318226045 #
coedge $-1 $490 $520 $525 $564 forward $377 $-1 #
coedge $-1 $570 $514 $490 $536 forward $474 $-1 #
edge $-1 $538 -42.982268745994446 $571 42.982268745994446 $490 $572 forward 7 unknown #
coedge $-1 $497 $491 $514 $553 reversed $498 $-1 #
vertex $-1 $492 $573 #
straight-curve $-1 42.982268745994446 -27.297092187159215 0 0 0 -1 I I #
face $-1 $547 $543 $15 $-1 $574 reversed single #
plane-surface $-1 -42.982268745994446 0 0 1 0 0 0 0 -1 forward_v I I I I #
coedge $-1 $575 $495 $497 $546 forward $543 $-1 #
loop $-1 $-1 $542 $540 #
vertex $-1 $496 $576 #
straight-curve $-1 0 27.297092187159215 9.4466416384017649 -1 0 0 I I #
edge $-1 $499 -9.4466416384017649 $577 9.4466416384017649 $497 $578 forward 7 unknown #
face $-1 $-1 $498 $15 $-1 $579 reversed single #
point $-1 42.982268745994446 27.297092187159215 9.4466416384017649 #
straight-curve $-1 0 27.297092187159215 -9.4466416384017649 1 0 0 I I #
straight-curve $-1 -42.982268745994446 0 -9.4466416384017649 0 1 0 I I #
point $-1 -42.982268745994446 27.297092187159215 -9.4466416384017649 #
coedge $-1 $514 $570 $575 $580 forward $474 $-1 #
edge $-1 $577 -27.297092187159215 $538 27.297092187159215 $537 $581 forward 7 unknown #
coedge $-1 $516 $515 $531 $568 reversed $426 $-1 #
edge $-1 $558 -27.297092187159215 $556 27.297092187159215 $515 $582 forward 7 unknown #
vertex $-1 $523 $583 #
straight-curve $-1 -53.362031119445177 27.297092187159215 6.6272946559370176 0 0 -1 I I #
vertex $-1 $555 $584 #
straight-curve $-1 -48.172149932719812 -27.297092187159215 3.8079476734722704 -1 0 0 I I #
coedge $-1 $522 $575 $524 $563 reversed $543 $-1 #
straight-curve $-1 -48.172149932719812 27.297092187159215 3.8079476734722704 1 0 0 I I #
coedge $-1 $525 $524 $570 $585 reversed $526 $-1 #
edge $-1 $528 -3.8079476734722704 $586 9.4466416384017649 $560 $587 forward 7 unknown #
edge $-1 $527 -3.8079476734722704 $571 9.4466416384017649 $525 $588 forward 7 unknown #
point $-1 -42.982268745994446 -27.297092187159215 3.8079476734722704 #
point $-1 -42.982268745994446 27.297092187159215 3.8079476734722704 #
straight-curve $-1 -53.362031119445177 0 9.4466416384017649 0 -1 0 I I #
edge $-1 $532 -2.8193469824647472 $558 2.8193469824647472 $554 $589 forward 7 unknown #
point $-1 -53.362031119445177 -27.297092187159215 9.4466416384017649 #
coedge $-1 $552 $535 $562 $585 forward $474 $-1 #
vertex $-1 $585 $590 #
straight-curve $-1 0 -27.297092187159215 -9.4466416384017649 -1 0 0 I I #
point $-1 42.982268745994446 -27.297092187159215 -9.4466416384017649 #
plane-surface $-1 0 27.297092187159215 0 0 -1 0 0 0 -1 forward_v I I I I #
coedge $-1 $560 $542 $552 $580 reversed $543 $-1 #
point $-1 -53.362031119445177 27.297092187159215 9.4466416384017649 #
vertex $-1 $553 $591 #
straight-curve $-1 42.982268745994446 27.297092187159215 0 0 0 -1 I I #
plane-surface $-1 42.982268745994446 0 0 -1 0 0 0 0 1 forward_v I I I I #
edge $-1 $586 -42.982268745994446 $577 42.982268745994446 $575 $592 forward 7 unknown #
straight-curve $-1 42.982268745994446 0 -9.4466416384017649 0 -1 0 I I #
straight-curve $-1 -53.362031119445177 0 3.8079476734722704 0 1 0 I I #
point $-1 -53.362031119445177 27.297092187159215 3.8079476734722704 #
point $-1 -53.362031119445177 -27.297092187159215 3.8079476734722704 #
edge $-1 $571 -27.297092187159215 $586 27.297092187159215 $562 $593 forward 7 unknown #
vertex $-1 $580 $594 #
straight-curve $-1 -42.982268745994446 27.297092187159215 0 0 0 -1 I I #
straight-curve $-1 -42.982268745994446 -27.297092187159215 0 0 0 -1 I I #
straight-curve $-1 -53.362031119445177 -27.297092187159215 6.6272946559370176 0 0 -1 I I #
point $-1 -42.982268745994446 -27.297092187159215 -9.4466416384017649 #
point $-1 42.982268745994446 27.297092187159215 -9.4466416384017649 #
straight-curve $-1 0 27.297092187159215 -9.4466416384017649 1 0 0 I I #
straight-curve $-1 -42.982268745994446 0 -9.4466416384017649 0 1 0 I I #
point $-1 -42.982268745994446 27.297092187159215 -9.4466416384017649 #
End-of-ACIS-data 