500 0 4 0           
7 Unknown 11 ACIS 5.0 NT 24 Fri Mar 26 17:30:55 1999 
-1 9.9999999999999995e-007 1e-010 
body $-1 $4 $-1 $5 #
body $-1 $6 $-1 $7 #
body $-1 $8 $-1 $9 #
body $-1 $10 $-1 $11 #
lump $-1 $-1 $12 $0 #
transform $-1 1 0 0 0 1 0 0 0 1 54.769737846003601 37.043076852375187 14.809543344404887 1 rotate no_reflect no_shear #
lump $-1 $-1 $13 $1 #
transform $-1 1 0 0 0 1 0 0 0 1 54.769737846003601 37.043076852375187 14.809543344404887 1 rotate no_reflect no_shear #
lump $-1 $-1 $14 $2 #
transform $-1 1 0 0 0 1 0 0 0 1 54.769737846003601 37.043076852375187 14.809543344404887 1 rotate no_reflect no_shear #
lump $-1 $-1 $15 $3 #
transform $-1 1 0 0 0 1 0 0 0 1 54.769737846003601 37.043076852375187 14.809543344404887 1 rotate no_reflect no_shear #
shell $-1 $-1 $-1 $16 $-1 $4 #
shell $-1 $-1 $-1 $17 $-1 $6 #
shell $-1 $-1 $-1 $18 $-1 $8 #
shell $-1 $-1 $-1 $19 $-1 $10 #
face $-1 $20 $21 $12 $-1 $22 forward single #
face $-1 $23 $24 $13 $-1 $25 reversed single #
face $-1 $26 $27 $14 $-1 $28 forward single #
face $-1 $29 $30 $15 $-1 $31 forward single #
face $-1 $32 $33 $12 $-1 $34 reversed single #
loop $-1 $-1 $35 $16 #
plane-surface $-1 0 0 14.809543344404887 0 0 1 1 0 0 forward_v I I I I #
face $-1 $36 $37 $13 $-1 $38 reversed single #
loop $-1 $-1 $39 $17 #
plane-surface $-1 84.32838361142106 -5.4202754816999814 153.16204383421038 0 -1 0 -0.82903758062907751 0 -0.55919289150049634 forward_v I I I I #
face $-1 $40 $41 $14 $-1 $42 forward single #
loop $-1 $43 $44 $18 #
cone-surface $-1 47.754224888343316 -20.219321330822577 6.340318725693546 -0.82903758062907751 0 -0.55919289150049634 0.83878933725074445 0 -1.2435563709436162 1 I I 0 1 1.5 forward I I I I #
face $-1 $45 $46 $15 $-1 $47 forward single #
loop $-1 $48 $49 $19 #
cone-surface $-1 47.754224888343316 -11.339893821349023 6.340318725693546 -0.82903758062907751 0 -0.55919289150049634 0.83878933725074445 0 -1.2435563709436162 1 I I 0 1 1.5 forward I I I I #
face $-1 $50 $51 $12 $-1 $52 reversed single #
loop $-1 $-1 $53 $20 #
plane-surface $-1 0 0 -14.809543344404887 0 0 1 1 0 0 forward_v I I I I #
coedge $-1 $54 $55 $56 $57 forward $21 $-1 #
face $-1 $58 $59 $13 $-1 $60 reversed single #
loop $-1 $-1 $61 $23 #
plane-surface $-1 -6.4839582996582408 -15.779607576085798 91.908347688548531 0.82903758062907751 0 0.55919289150049634 0.55919289150049634 0 -0.82903758062907751 forward_v I I I I #
coedge $-1 $62 $63 $64 $65 reversed $24 $-1 #
face $-1 $-1 $66 $14 $-1 $67 forward single #
loop $-1 $68 $69 $26 #
cone-surface $-1 44.741882543633913 -20.219321330822577 4.3084682218246542 -0.82903758062907751 0 -0.55919289150049634 0.41939466862537222 0 -0.62177818547180808 1 I I -0.70710678118654757 0.70710678118654757 0.75 forward I I I I #
loop $-1 $-1 $70 $18 #
coedge $-1 $44 $44 $71 $72 reversed $27 $-1 #
face $-1 $-1 $73 $15 $-1 $74 forward single #
loop $-1 $75 $76 $29 #
cone-surface $-1 44.741882543633913 -11.339893821349023 4.3084682218246542 -0.82903758062907751 0 -0.55919289150049634 0.41939466862537222 0 -0.62177818547180808 1 I I -0.70710678118654757 0.70710678118654757 0.75 forward I I I I #
loop $-1 $-1 $77 $19 #
coedge $-1 $49 $49 $78 $79 reversed $30 $-1 #
face $-1 $80 $81 $12 $-1 $82 reversed single #
loop $-1 $-1 $83 $32 #
plane-surface $-1 0 -37.043076852375187 0 0 1 0 0 0 1 forward_v I I I I #
coedge $-1 $84 $85 $86 $87 forward $33 $-1 #
coedge $-1 $88 $35 $89 $90 forward $21 $-1 #
coedge $-1 $35 $88 $91 $92 forward $21 $-1 #
coedge $-1 $93 $94 $35 $57 reversed $95 $-1 #
edge $-1 $96 -37.043076852375187 $97 37.043076852375187 $56 $98 forward 7 unknown #
face $-1 $99 $100 $13 $-1 $101 forward single #
loop $-1 $-1 $102 $36 #
plane-surface $-1 84.32838361142106 -26.138939670471615 153.16204383421038 0 1 0 0.82903758062907751 0 0.55919289150049634 forward_v I I I I #
coedge $-1 $103 $104 $105 $106 reversed $37 $-1 #
coedge $-1 $63 $39 $107 $108 reversed $24 $-1 #
coedge $-1 $39 $62 $103 $109 reversed $24 $-1 #
coedge $-1 $105 $110 $39 $65 forward $100 $-1 #
edge $-1 $111 -12.605546040293071 $112 -3.355648443447663 $64 $113 forward 7 unknown #
loop $-1 $-1 $71 $40 #
plane-surface $-1 -6.4839582996582408 -15.779607576085798 91.908347688548531 0.82903758062907751 0 0.55919289150049634 0.55919289150049634 0 -0.82903758062907751 forward_v I I I I #
loop $-1 $-1 $114 $26 #
coedge $-1 $69 $69 $70 $115 reversed $41 $-1 #
coedge $-1 $70 $70 $69 $115 forward $43 $-1 #
coedge $-1 $71 $71 $44 $72 forward $66 $-1 #
edge $-1 $116 0 $116 6.2831853071796004 $71 $117 forward 7 unknown #
loop $-1 $-1 $78 $45 #
plane-surface $-1 -6.4839582996582408 -15.779607576085798 91.908347688548531 0.82903758062907751 0 0.55919289150049634 0.55919289150049634 0 -0.82903758062907751 forward_v I I I I #
loop $-1 $-1 $118 $29 #
coedge $-1 $76 $76 $77 $119 reversed $46 $-1 #
coedge $-1 $77 $77 $76 $119 forward $48 $-1 #
coedge $-1 $78 $78 $49 $79 forward $73 $-1 #
edge $-1 $120 0 $120 6.2831853071796004 $78 $121 forward 7 unknown #
face $-1 $122 $123 $12 $-1 $124 reversed single #
loop $-1 $-1 $125 $50 #
plane-surface $-1 -54.769737846003601 0 0 1 0 0 0 0 -1 forward_v I I I I #
coedge $-1 $126 $91 $127 $128 forward $51 $-1 #
coedge $-1 $129 $53 $126 $130 forward $33 $-1 #
coedge $-1 $53 $129 $131 $132 forward $33 $-1 #
coedge $-1 $94 $93 $53 $87 reversed $95 $-1 #
edge $-1 $133 -37.043076852375187 $134 37.043076852375187 $86 $135 forward 7 unknown #
coedge $-1 $55 $54 $136 $137 forward $21 $-1 #
coedge $-1 $138 $139 $54 $90 reversed $123 $-1 #
edge $-1 $97 -54.769737846003601 $140 54.769737846003601 $89 $141 forward 7 unknown #
coedge $-1 $83 $142 $55 $92 reversed $51 $-1 #
edge $-1 $143 -54.769737846003601 $96 54.769737846003601 $91 $144 forward 7 unknown #
coedge $-1 $86 $56 $142 $145 forward $95 $-1 #
coedge $-1 $56 $86 $138 $146 reversed $95 $-1 #
loop $-1 $-1 $93 $122 #
vertex $-1 $57 $147 #
vertex $-1 $57 $148 #
straight-curve $-1 54.769737846003601 0 14.809543344404887 0 1 0 I I #
face $-1 $-1 $149 $13 $-1 $150 reversed single #
loop $-1 $-1 $64 $58 #
plane-surface $-1 0 0 14.809543344404887 0 0 1 1 0 0 forward_v I I I I #
coedge $-1 $151 $152 $153 $154 reversed $59 $-1 #
coedge $-1 $155 $61 $63 $109 forward $37 $-1 #
coedge $-1 $61 $155 $151 $156 forward $37 $-1 #
coedge $-1 $153 $64 $61 $106 forward $100 $-1 #
edge $-1 $112 -2.4695283063429176 $157 18.249135882428718 $105 $158 forward 7 unknown #
coedge $-1 $159 $160 $62 $108 forward $149 $-1 #
edge $-1 $161 -75.48501613963596 $111 -61.771478572700303 $107 $162 forward 7 unknown #
edge $-1 $112 92.997960702385427 $161 109.53947569200722 $63 $163 forward 7 unknown #
coedge $-1 $64 $153 $159 $164 forward $100 $-1 #
vertex $-1 $108 $165 #
vertex $-1 $65 $166 #
straight-curve $-1 42.16419180571053 -5.4202754816999814 14.809543344404887 -1 0 0 I I #
coedge $-1 $114 $114 $-1 $167 reversed $68 $-1 #
edge $-1 $168 0 $168 6.2831853071796004 $69 $169 forward 7 unknown #
vertex $-1 $72 $170 #
ellipse-curve $-1 50.1447890475809 -20.219321330822577 7.9527745609370548 0.82903758062907751 0 0.55919289150049634 0.83878933725074445 0 -1.2435563709436162 1 I I #
coedge $-1 $118 $118 $-1 $171 reversed $75 $-1 #
edge $-1 $172 0 $172 6.2831853071796004 $76 $173 forward 7 unknown #
vertex $-1 $79 $174 #
ellipse-curve $-1 50.1447890475809 -11.339893821349023 7.9527745609370548 0.82903758062907751 0 0.55919289150049634 0.83878933725074445 0 -1.2435563709436162 1 I I #
face $-1 $-1 $95 $12 $-1 $175 reversed single #
loop $-1 $-1 $138 $80 #
plane-surface $-1 0 37.043076852375187 0 0 -1 0 0 0 -1 forward_v I I I I #
coedge $-1 $176 $136 $139 $177 forward $81 $-1 #
coedge $-1 $142 $83 $84 $130 reversed $51 $-1 #
coedge $-1 $136 $176 $83 $128 reversed $81 $-1 #
edge $-1 $143 -14.809543344404887 $178 14.809543344404887 $127 $179 forward 7 unknown #
coedge $-1 $85 $84 $176 $180 forward $33 $-1 #
edge $-1 $134 -54.769737846003601 $178 54.769737846003601 $126 $181 forward 7 unknown #
coedge $-1 $139 $138 $85 $132 reversed $123 $-1 #
edge $-1 $182 -54.769737846003601 $133 54.769737846003601 $131 $183 forward 7 unknown #
vertex $-1 $87 $184 #
vertex $-1 $145 $185 #
straight-curve $-1 54.769737846003601 0 -14.809543344404887 0 -1 0 I I #
coedge $-1 $125 $127 $88 $137 reversed $81 $-1 #
edge $-1 $140 -37.043076852375187 $143 37.043076852375187 $136 $186 forward 7 unknown #
coedge $-1 $131 $89 $94 $146 forward $123 $-1 #
coedge $-1 $89 $131 $125 $177 reversed $123 $-1 #
vertex $-1 $90 $187 #
straight-curve $-1 0 37.043076852375187 14.809543344404887 -1 0 0 I I #
coedge $-1 $91 $126 $93 $145 reversed $51 $-1 #
vertex $-1 $137 $188 #
straight-curve $-1 0 -37.043076852375187 14.809543344404887 1 0 0 I I #
edge $-1 $96 -14.809543344404887 $134 14.809543344404887 $93 $189 forward 7 unknown #
edge $-1 $97 -14.809543344404887 $133 14.809543344404887 $94 $190 forward 7 unknown #
point $-1 54.769737846003601 -37.043076852375187 14.809543344404887 #
point $-1 54.769737846003601 37.043076852375187 14.809543344404887 #
loop $-1 $-1 $107 $99 #
plane-surface $-1 54.769737846003601 0 0 -1 0 0 0 0 1 forward_v I I I I #
coedge $-1 $152 $102 $104 $156 reversed $59 $-1 #
coedge $-1 $102 $151 $191 $192 reversed $59 $-1 #
coedge $-1 $110 $105 $102 $154 forward $100 $-1 #
edge $-1 $157 3.355648443447663 $193 12.605546040293071 $153 $194 forward 7 unknown #
coedge $-1 $104 $103 $160 $195 reversed $37 $-1 #
edge $-1 $196 -109.53947569200722 $157 -92.997960702385427 $151 $197 forward 7 unknown #
vertex $-1 $106 $198 #
straight-curve $-1 45.519840249158207 -7.8898037880428991 14.809543344404879 0 -1 0 I I #
coedge $-1 $191 $107 $110 $164 reversed $149 $-1 #
coedge $-1 $107 $191 $155 $195 forward $149 $-1 #
vertex $-1 $108 $199 #
straight-curve $-1 54.769737846003601 -5.4202754816999814 76.58102191710519 0 0 1 I I #
straight-curve $-1 -6.4839582996582408 -5.4202754816999814 91.908347688548531 0.55919289150049634 0 -0.82903758062907751 I I #
edge $-1 $193 -26.138939670471615 $111 -5.4202754816999814 $159 $200 forward 7 unknown #
point $-1 54.769737846003601 -5.4202754816999814 14.809543344404887 #
point $-1 45.519840249158193 -5.4202754816999814 14.809543344404887 #
edge $-1 $201 1 $201 0 $114 $-1 forward 7 unknown #
vertex $-1 $115 $202 #
ellipse-curve $-1 45.363660729105725 -20.219321330822577 4.7278628904500266 0.82903758062907751 0 0.55919289150049634 0.83878933725074445 0 -1.2435563709436162 1 I I #
point $-1 50.983578384831659 -20.219321330822577 6.7092181899934484 #
edge $-1 $203 1 $203 0 $118 $-1 forward 7 unknown #
vertex $-1 $119 $204 #
ellipse-curve $-1 45.363660729105725 -11.339893821349023 4.7278628904500266 0.82903758062907751 0 0.55919289150049634 0.83878933725074445 0 -1.2435563709436162 1 I I #
point $-1 50.983578384831659 -11.339893821349023 6.7092181899934484 #
plane-surface $-1 54.769737846003601 0 0 -1 0 0 0 0 1 forward_v I I I I #
coedge $-1 $127 $125 $129 $180 reversed $81 $-1 #
edge $-1 $140 -14.809543344404887 $182 14.809543344404887 $139 $205 forward 7 unknown #
vertex $-1 $180 $206 #
straight-curve $-1 -54.769737846003601 -37.043076852375187 0 0 0 -1 I I #
edge $-1 $178 -37.043076852375187 $182 37.043076852375187 $176 $207 forward 7 unknown #
straight-curve $-1 0 -37.043076852375187 -14.809543344404887 -1 0 0 I I #
vertex $-1 $132 $208 #
straight-curve $-1 0 37.043076852375187 -14.809543344404887 1 0 0 I I #
point $-1 54.769737846003601 37.043076852375187 -14.809543344404887 #
point $-1 54.769737846003601 -37.043076852375187 -14.809543344404887 #
straight-curve $-1 -54.769737846003601 0 14.809543344404887 0 -1 0 I I #
point $-1 -54.769737846003601 37.043076852375187 14.809543344404887 #
point $-1 -54.769737846003601 -37.043076852375187 14.809543344404887 #
straight-curve $-1 54.769737846003601 -37.043076852375187 0 0 0 -1 I I #
straight-curve $-1 54.769737846003601 37.043076852375187 0 0 0 -1 I I #
coedge $-1 $160 $159 $152 $192 forward $149 $-1 #
edge $-1 $193 61.771478572700303 $196 75.48501613963596 $191 $209 forward 7 unknown #
vertex $-1 $164 $210 #
straight-curve $-1 42.16419180571053 -26.138939670471615 14.809543344404887 1 0 0 I I #
edge $-1 $196 -18.249135882428718 $161 2.4695283063429176 $160 $211 forward 7 unknown #
vertex $-1 $195 $212 #
straight-curve $-1 -6.4839582996582408 -26.138939670471615 91.908347688548531 -0.55919289150049634 0 0.82903758062907751 I I #
point $-1 45.519840249158193 -26.138939670471615 14.809543344404887 #
point $-1 54.769737846003601 -5.4202754816999814 1.0960057774692302 #
straight-curve $-1 54.769737846003601 0 14.809543344404887 0 1 0 I I #
vertex $-1 $167 $213 #
point $-1 46.202450066356462 -20.219321330822577 3.4843065195064105 #
vertex $-1 $171 $214 #
point $-1 46.202450066356462 -11.339893821349023 3.4843065195064105 #
straight-curve $-1 -54.769737846003601 37.043076852375187 0 0 0 -1 I I #
point $-1 -54.769737846003601 -37.043076852375187 -14.809543344404887 #
straight-curve $-1 -54.769737846003601 0 -14.809543344404887 0 1 0 I I #
point $-1 -54.769737846003601 37.043076852375187 -14.809543344404887 #
straight-curve $-1 54.769737846003601 -26.138939670471615 76.58102191710519 0 0 -1 I I #
point $-1 54.769737846003601 -26.138939670471615 14.809543344404887 #
straight-curve $-1 54.769737846003608 -7.8898037880428991 1.0960057774692231 0 1 0 I I #
point $-1 54.769737846003601 -26.138939670471615 1.0960057774692302 #
point $-1 44.120104358162102 -20.219321330822577 3.8890735531992817 #
point $-1 44.120104358162102 -11.339893821349023 3.8890735531992817 #
End-of-ACIS-data 