500 0 6 0           
7 Unknown 11 ACIS 5.0 NT 24 Thu Mar 25 15:27:04 1999 
-1 9.9999999999999995e-007 1e-010 
body $-1 $6 $-1 $7 #
body $-1 $8 $-1 $9 #
body $-1 $10 $-1 $11 #
body $-1 $12 $-1 $13 #
body $-1 $14 $-1 $15 #
body $-1 $16 $-1 $17 #
lump $-1 $-1 $18 $0 #
transform $-1 1 0 0 0 1 0 0 0 1 70.392773216956087 46.72020368329099 10.608467648683787 1 rotate no_reflect no_shear #
lump $-1 $-1 $19 $1 #
transform $-1 1 0 0 0 1 0 0 0 1 70.392773216956087 46.72020368329099 10.608467648683787 1 rotate no_reflect no_shear #
lump $-1 $-1 $20 $2 #
transform $-1 1 0 0 0 1 0 0 0 1 70.392773216956087 46.72020368329099 10.608467648683787 1 rotate no_reflect no_shear #
lump $-1 $-1 $21 $3 #
transform $-1 1 0 0 0 1 0 0 0 1 70.392773216956087 46.72020368329099 10.608467648683787 1 rotate no_reflect no_shear #
lump $-1 $-1 $22 $4 #
transform $-1 1 0 0 0 1 0 0 0 1 70.392773216956087 46.72020368329099 10.608467648683787 1 rotate no_reflect no_shear #
lump $-1 $-1 $23 $5 #
transform $-1 1 0 0 0 1 0 0 0 1 70.392773216956087 46.72020368329099 10.608467648683787 1 rotate no_reflect no_shear #
shell $-1 $-1 $-1 $24 $-1 $6 #
shell $-1 $-1 $-1 $25 $-1 $8 #
shell $-1 $-1 $-1 $26 $-1 $10 #
shell $-1 $-1 $-1 $27 $-1 $12 #
shell $-1 $-1 $-1 $28 $-1 $14 #
shell $-1 $-1 $-1 $29 $-1 $16 #
face $-1 $30 $31 $18 $-1 $32 forward single #
face $-1 $33 $34 $19 $-1 $35 forward single #
face $-1 $36 $37 $20 $-1 $38 forward single #
face $-1 $39 $40 $21 $-1 $41 reversed single #
face $-1 $42 $43 $22 $-1 $44 forward single #
face $-1 $45 $46 $23 $-1 $47 forward single #
face $-1 $48 $49 $18 $-1 $50 reversed single #
loop $-1 $-1 $51 $24 #
plane-surface $-1 0 0 10.608467648683787 0 0 1 1 0 0 forward_v I I I I #
face $-1 $52 $53 $19 $-1 $54 reversed single #
loop $-1 $-1 $55 $25 #
plane-surface $-1 0 -46.72020368329099 0 0 1 0 0 0 1 forward_v I I I I #
face $-1 $56 $57 $20 $-1 $58 reversed single #
loop $-1 $-1 $59 $26 #
plane-surface $-1 0 42.442689649274556 4.892689509924681 0 0 1 1 0 0 forward_v I I I I #
face $-1 $60 $61 $21 $-1 $62 reversed single #
loop $-1 $-1 $63 $27 #
plane-surface $-1 -158.99198945309715 -19.884764912820742 112.02501532983507 0 -1 0 0.62932039886446345 0 -0.77714595512881146 forward_v I I I I #
face $-1 $64 $65 $22 $-1 $66 forward single #
loop $-1 $67 $68 $28 #
cone-surface $-1 -64.037977027017519 -32.098478087659018 4.8593540406247726 0.62932039886446345 0 -0.77714595512881146 1.5542919102576229 0 1.2586407977289269 1 I I 0 1 2 forward I I I I #
face $-1 $69 $70 $23 $-1 $71 forward single #
loop $-1 $72 $73 $29 #
cone-surface $-1 -64.037977027017519 -24.770250182756051 4.8593540406247726 0.62932039886446345 0 -0.77714595512881146 1.5542919102576229 0 1.2586407977289269 1 I I 0 1 2 forward I I I I #
face $-1 $74 $75 $18 $-1 $76 reversed single #
loop $-1 $-1 $77 $30 #
plane-surface $-1 0 0 -10.608467648683787 0 0 1 1 0 0 forward_v I I I I #
coedge $-1 $78 $79 $80 $81 forward $31 $-1 #
face $-1 $82 $83 $19 $-1 $84 forward single #
loop $-1 $-1 $85 $33 #
plane-surface $-1 -70.392773216956087 0 0 1 0 0 0 0 -1 forward_v I I I I #
coedge $-1 $86 $87 $88 $89 forward $34 $-1 #
face $-1 $90 $91 $20 $-1 $92 reversed single #
loop $-1 $-1 $93 $36 #
plane-surface $-1 0 42.442689649274556 -0.50993334357566589 0 0 1 1 0 0 forward_v I I I I #
coedge $-1 $94 $95 $96 $97 reversed $37 $-1 #
face $-1 $98 $99 $21 $-1 $100 reversed single #
loop $-1 $-1 $101 $39 #
plane-surface $-1 -70.392773216956101 -28.434364135207531 2.6140973781207606 -0.62932039886446345 0 0.77714595512881146 0.77714595512881146 0 0.62932039886446345 forward_v I I I I #
coedge $-1 $102 $103 $104 $105 reversed $40 $-1 #
face $-1 $-1 $106 $22 $-1 $107 forward single #
loop $-1 $108 $109 $42 #
cone-surface $-1 -61.989972894429449 -32.098478087659018 2.3302796127184742 0.62932039886446345 0 -0.77714595512881146 0.77714595512881146 0 0.62932039886446345 1 I I -0.70710678118654746 0.70710678118654746 1 forward I I I I #
loop $-1 $-1 $110 $28 #
coedge $-1 $68 $68 $111 $112 reversed $43 $-1 #
face $-1 $-1 $113 $23 $-1 $114 forward single #
loop $-1 $115 $116 $45 #
cone-surface $-1 -61.989972894429449 -24.770250182756051 2.3302796127184742 0.62932039886446345 0 -0.77714595512881146 0.77714595512881146 0 0.62932039886446345 1 I I -0.70710678118654746 0.70710678118654746 1 forward I I I I #
loop $-1 $-1 $117 $29 #
coedge $-1 $73 $73 $118 $119 reversed $46 $-1 #
face $-1 $120 $121 $18 $-1 $122 reversed single #
loop $-1 $-1 $123 $48 #
plane-surface $-1 0 -46.72020368329099 0 0 1 0 0 0 1 forward_v I I I I #
coedge $-1 $124 $125 $126 $127 forward $49 $-1 #
coedge $-1 $128 $51 $129 $130 forward $31 $-1 #
coedge $-1 $51 $128 $131 $132 forward $31 $-1 #
coedge $-1 $133 $134 $51 $81 reversed $135 $-1 #
edge $-1 $136 -46.72020368329099 $137 46.72020368329099 $80 $138 forward 7 unknown #
face $-1 $139 $140 $19 $-1 $141 reversed single #
loop $-1 $-1 $142 $52 #
plane-surface $-1 0 -51.588323846139325 -1.7399275214957264 0 0 1 1 0 0 forward_v I I I I #
coedge $-1 $143 $144 $87 $145 forward $53 $-1 #
coedge $-1 $146 $55 $147 $148 reversed $34 $-1 #
coedge $-1 $55 $146 $85 $145 reversed $34 $-1 #
coedge $-1 $149 $142 $55 $89 reversed $83 $-1 #
edge $-1 $150 -70.392773216956087 $151 70.392773216956087 $88 $152 forward 7 unknown #
face $-1 $153 $154 $20 $-1 $155 reversed single #
loop $-1 $-1 $156 $56 #
plane-surface $-1 0 38.165175615258121 2.1913780831745076 0 1 0 0 0 1 forward_v I I I I #
coedge $-1 $157 $158 $159 $160 reversed $57 $-1 #
coedge $-1 $161 $59 $162 $163 reversed $37 $-1 #
coedge $-1 $59 $161 $164 $165 forward $37 $-1 #
coedge $-1 $166 $167 $59 $97 forward $154 $-1 #
edge $-1 $168 -25.498858858653712 $169 -16.943830790620844 $96 $170 forward 7 unknown #
face $-1 $171 $172 $21 $-1 $173 reversed single #
loop $-1 $-1 $174 $60 #
plane-surface $-1 -158.99198945309715 -36.98396335759432 112.02501532983507 0 1 0 -0.62932039886446345 0 0.77714595512881146 forward_v I I I I #
coedge $-1 $175 $176 $177 $178 reversed $61 $-1 #
coedge $-1 $103 $63 $179 $180 reversed $40 $-1 #
coedge $-1 $63 $102 $175 $181 reversed $40 $-1 #
coedge $-1 $177 $182 $63 $105 forward $172 $-1 #
edge $-1 $183 45.404040016233751 $184 53.398410286796761 $104 $185 forward 7 unknown #
loop $-1 $-1 $111 $64 #
plane-surface $-1 -70.392773216956101 -28.434364135207531 2.6140973781207606 -0.62932039886446345 0 0.77714595512881146 0.77714595512881146 0 0.62932039886446345 forward_v I I I I #
loop $-1 $-1 $186 $42 #
coedge $-1 $109 $109 $110 $187 reversed $65 $-1 #
coedge $-1 $110 $110 $109 $187 forward $67 $-1 #
coedge $-1 $111 $111 $68 $112 forward $106 $-1 #
edge $-1 $188 0 $188 6.2831853071796004 $111 $189 forward 7 unknown #
loop $-1 $-1 $118 $69 #
plane-surface $-1 -70.392773216956101 -28.434364135207531 2.6140973781207606 -0.62932039886446345 0 0.77714595512881146 0.77714595512881146 0 0.62932039886446345 forward_v I I I I #
loop $-1 $-1 $190 $45 #
coedge $-1 $116 $116 $117 $191 reversed $70 $-1 #
coedge $-1 $117 $117 $116 $191 forward $72 $-1 #
coedge $-1 $118 $118 $73 $119 forward $113 $-1 #
edge $-1 $192 0 $192 6.2831853071796004 $118 $193 forward 7 unknown #
face $-1 $194 $195 $18 $-1 $196 reversed single #
loop $-1 $-1 $197 $74 #
plane-surface $-1 -70.392773216956087 0 0 1 0 0 0 0 -1 forward_v I I I I #
coedge $-1 $198 $131 $199 $200 forward $75 $-1 #
coedge $-1 $201 $77 $198 $202 forward $49 $-1 #
coedge $-1 $77 $201 $203 $204 forward $49 $-1 #
coedge $-1 $134 $133 $77 $127 reversed $135 $-1 #
edge $-1 $205 -46.72020368329099 $206 46.72020368329099 $126 $207 forward 7 unknown #
coedge $-1 $79 $78 $208 $209 forward $31 $-1 #
coedge $-1 $210 $211 $78 $130 reversed $195 $-1 #
edge $-1 $137 -70.392773216956087 $212 70.392773216956087 $129 $213 forward 7 unknown #
coedge $-1 $123 $214 $79 $132 reversed $75 $-1 #
edge $-1 $215 -70.392773216956087 $136 70.392773216956087 $131 $216 forward 7 unknown #
coedge $-1 $126 $80 $214 $217 forward $135 $-1 #
coedge $-1 $80 $126 $210 $218 reversed $135 $-1 #
loop $-1 $-1 $133 $194 #
vertex $-1 $81 $219 #
vertex $-1 $81 $220 #
straight-curve $-1 70.392773216956087 0 10.608467648683787 0 1 0 I I #
face $-1 $221 $222 $19 $-1 $223 reversed single #
loop $-1 $-1 $224 $82 #
plane-surface $-1 0 -51.588323846139325 -5.2375781881966876 0 0 1 1 0 0 forward_v I I I I #
coedge $-1 $88 $225 $226 $227 forward $83 $-1 #
coedge $-1 $228 $85 $229 $230 reversed $53 $-1 #
coedge $-1 $85 $228 $149 $231 reversed $53 $-1 #
edge $-1 $150 1.7399275214957264 $232 5.2375781881966876 $85 $233 forward 7 unknown #
coedge $-1 $87 $86 $234 $235 forward $34 $-1 #
coedge $-1 $226 $236 $86 $148 forward $237 $-1 #
edge $-1 $238 -5.2375781881966876 $151 -1.7399275214957264 $147 $239 forward 7 unknown #
coedge $-1 $225 $88 $144 $231 forward $83 $-1 #
vertex $-1 $145 $240 #
vertex $-1 $227 $241 #
straight-curve $-1 0 -46.72020368329099 -1.7399275214957264 1 0 0 I I #
face $-1 $242 $243 $20 $-1 $244 reversed single #
loop $-1 $-1 $96 $90 #
plane-surface $-1 70.392773216956087 0 0 -1 0 0 0 0 1 forward_v I I I I #
coedge $-1 $245 $164 $246 $247 reversed $91 $-1 #
coedge $-1 $248 $93 $245 $249 forward $57 $-1 #
coedge $-1 $93 $248 $250 $251 reversed $57 $-1 #
coedge $-1 $167 $166 $93 $160 forward $154 $-1 #
edge $-1 $252 16.943830790620844 $253 25.498858858653712 $159 $254 forward 7 unknown #
coedge $-1 $95 $94 $255 $256 reversed $37 $-1 #
coedge $-1 $257 $258 $94 $163 forward $259 $-1 #
edge $-1 $260 -70.392773216956087 $168 70.392773216956087 $162 $261 forward 7 unknown #
coedge $-1 $156 $262 $95 $165 reversed $91 $-1 #
edge $-1 $263 -70.392773216956087 $169 70.392773216956087 $164 $264 forward 7 unknown #
coedge $-1 $159 $96 $262 $265 forward $154 $-1 #
coedge $-1 $96 $159 $257 $266 reversed $154 $-1 #
vertex $-1 $266 $267 #
vertex $-1 $97 $268 #
straight-curve $-1 70.392773216956087 21.221344824637278 4.892689509924681 0 -1 0 I I #
face $-1 $-1 $269 $21 $-1 $270 forward single #
loop $-1 $-1 $104 $98 #
plane-surface $-1 -70.392773216956087 0 0 1 0 0 0 0 -1 forward_v I I I I #
coedge $-1 $271 $272 $273 $274 reversed $99 $-1 #
coedge $-1 $275 $101 $103 $181 forward $61 $-1 #
coedge $-1 $101 $275 $271 $276 forward $61 $-1 #
coedge $-1 $273 $104 $101 $178 forward $172 $-1 #
edge $-1 $184 5.6675828452169768 $277 22.766781289990554 $177 $278 forward 7 unknown #
coedge $-1 $279 $280 $102 $180 forward $269 $-1 #
edge $-1 $281 -18.975446422022372 $183 -9.1032215095924869 $179 $282 forward 7 unknown #
edge $-1 $184 1.8310242626372826e-014 $281 12.703179946157714 $103 $283 forward 7 unknown #
coedge $-1 $104 $273 $279 $284 reversed $172 $-1 #
vertex $-1 $284 $285 #
vertex $-1 $105 $286 #
straight-curve $-1 -70.392773216956087 -19.884764912820742 56.012507664917536 0 0 -1 I I #
coedge $-1 $186 $186 $-1 $287 reversed $108 $-1 #
edge $-1 $288 0 $288 6.2831853071796004 $109 $289 forward 7 unknown #
vertex $-1 $112 $290 #
ellipse-curve $-1 -65.456660760741144 -32.098478087659018 6.6112825134022826 -0.62932039886446345 0 0.77714595512881146 1.5542919102576229 0 1.2586407977289269 1 I I #
coedge $-1 $190 $190 $-1 $291 reversed $115 $-1 #
edge $-1 $292 0 $292 6.2831853071796004 $116 $293 forward 7 unknown #
vertex $-1 $119 $294 #
ellipse-curve $-1 -65.456660760741144 -24.770250182756051 6.6112825134022826 -0.62932039886446345 0 0.77714595512881146 1.5542919102576229 0 1.2586407977289269 1 I I #
face $-1 $-1 $135 $18 $-1 $295 reversed single #
loop $-1 $-1 $210 $120 #
plane-surface $-1 0 46.72020368329099 0 0 -1 0 0 0 -1 forward_v I I I I #
coedge $-1 $296 $208 $211 $297 forward $121 $-1 #
coedge $-1 $214 $123 $124 $202 reversed $75 $-1 #
coedge $-1 $208 $296 $123 $200 reversed $121 $-1 #
edge $-1 $215 -10.608467648683787 $298 10.608467648683787 $199 $299 forward 7 unknown #
coedge $-1 $125 $124 $296 $300 forward $49 $-1 #
edge $-1 $206 -70.392773216956087 $298 70.392773216956087 $198 $301 forward 7 unknown #
coedge $-1 $211 $210 $125 $204 reversed $195 $-1 #
edge $-1 $302 -70.392773216956087 $205 70.392773216956087 $203 $303 forward 7 unknown #
vertex $-1 $127 $304 #
vertex $-1 $217 $305 #
straight-curve $-1 70.392773216956087 0 -10.608467648683787 0 -1 0 I I #
coedge $-1 $197 $199 $128 $209 reversed $121 $-1 #
edge $-1 $212 -46.72020368329099 $215 46.72020368329099 $208 $306 forward 7 unknown #
coedge $-1 $203 $129 $134 $218 forward $195 $-1 #
coedge $-1 $129 $203 $197 $297 reversed $195 $-1 #
vertex $-1 $130 $307 #
straight-curve $-1 0 46.72020368329099 10.608467648683787 -1 0 0 I I #
coedge $-1 $131 $198 $133 $217 reversed $75 $-1 #
vertex $-1 $209 $308 #
straight-curve $-1 0 -46.72020368329099 10.608467648683787 1 0 0 I I #
edge $-1 $136 -10.608467648683787 $206 10.608467648683787 $133 $309 forward 7 unknown #
edge $-1 $137 -10.608467648683787 $205 10.608467648683787 $134 $310 forward 7 unknown #
point $-1 70.392773216956087 -46.72020368329099 10.608467648683787 #
point $-1 70.392773216956087 46.72020368329099 10.608467648683787 #
face $-1 $-1 $237 $19 $-1 $311 reversed single #
loop $-1 $-1 $312 $139 #
plane-surface $-1 0 -56.45644400898766 -3.488752854846207 0 1 0 0 0 1 forward_v I I I I #
coedge $-1 $313 $234 $236 $314 forward $140 $-1 #
coedge $-1 $142 $149 $315 $316 forward $83 $-1 #
coedge $-1 $317 $147 $142 $227 reversed $237 $-1 #
edge $-1 $318 -4.868120162848335 $151 4.868120162848335 $226 $319 forward 7 unknown #
coedge $-1 $144 $143 $312 $320 reversed $53 $-1 #
coedge $-1 $234 $313 $143 $230 forward $140 $-1 #
edge $-1 $321 -4.868120162848335 $232 4.868120162848335 $143 $322 forward 7 unknown #
edge $-1 $150 -4.868120162848335 $323 4.868120162848335 $144 $324 forward 7 unknown #
vertex $-1 $145 $325 #
straight-curve $-1 -70.392773216956087 -46.72020368329099 0 0 0 -1 I I #
coedge $-1 $224 $229 $146 $235 reversed $140 $-1 #
edge $-1 $238 -70.392773216956087 $232 70.392773216956087 $234 $326 forward 7 unknown #
coedge $-1 $147 $317 $224 $314 reversed $237 $-1 #
loop $-1 $-1 $147 $221 #
vertex $-1 $148 $327 #
straight-curve $-1 70.392773216956087 -46.72020368329099 0 0 0 1 I I #
point $-1 -70.392773216956087 -46.72020368329099 -1.7399275214957264 #
point $-1 70.392773216956087 -46.72020368329099 -1.7399275214957264 #
face $-1 $-1 $259 $20 $-1 $328 reversed single #
loop $-1 $-1 $255 $153 #
plane-surface $-1 -70.392773216956087 0 0 1 0 0 0 0 -1 forward_v I I I I #
coedge $-1 $262 $156 $157 $249 reversed $91 $-1 #
coedge $-1 $255 $329 $156 $247 forward $243 $-1 #
edge $-1 $330 -1.6056223851629197 $263 3.7970004683374272 $246 $331 forward 7 unknown #
coedge $-1 $158 $157 $329 $332 reversed $57 $-1 #
edge $-1 $252 -70.392773216956087 $330 70.392773216956087 $245 $333 forward 7 unknown #
coedge $-1 $258 $257 $158 $251 forward $259 $-1 #
edge $-1 $253 -70.392773216956087 $334 70.392773216956087 $250 $335 forward 7 unknown #
vertex $-1 $160 $336 #
vertex $-1 $251 $337 #
straight-curve $-1 70.392773216956087 21.221344824637278 -0.50993334357566589 0 1 0 I I #
coedge $-1 $338 $246 $161 $256 forward $243 $-1 #
edge $-1 $263 16.943830790620844 $260 25.498858858653712 $255 $339 forward 7 unknown #
coedge $-1 $250 $162 $167 $266 forward $259 $-1 #
coedge $-1 $162 $250 $338 $340 reversed $259 $-1 #
loop $-1 $-1 $162 $242 #
vertex $-1 $340 $341 #
straight-curve $-1 0 46.72020368329099 4.892689509924681 1 0 0 I I #
coedge $-1 $164 $245 $166 $265 reversed $91 $-1 #
vertex $-1 $256 $342 #
straight-curve $-1 0 38.165175615258121 4.892689509924681 1 0 0 I I #
edge $-1 $169 -3.7970004683374272 $252 1.6056223851629197 $166 $343 forward 7 unknown #
edge $-1 $168 -4.892689509924681 $253 0.50993334357566589 $167 $344 forward 7 unknown #
point $-1 70.392773216956087 46.72020368329099 4.892689509924681 #
point $-1 70.392773216956087 38.165175615258121 4.892689509924681 #
loop $-1 $-1 $179 $171 #
plane-surface $-1 0 0 10.608467648683787 0 0 1 1 0 0 forward_v I I I I #
coedge $-1 $272 $174 $176 $276 reversed $99 $-1 #
coedge $-1 $174 $271 $345 $346 reversed $99 $-1 #
coedge $-1 $182 $177 $174 $274 forward $172 $-1 #
edge $-1 $277 -53.398410286796761 $347 -45.404040016233751 $273 $348 forward 7 unknown #
coedge $-1 $176 $175 $280 $349 reversed $61 $-1 #
edge $-1 $350 -12.703179946157714 $277 -1.8310242626372826e-014 $271 $351 forward 7 unknown #
vertex $-1 $178 $352 #
straight-curve $-1 -70.392773216956087 -14.217182067603765 2.6140973781207766 0 -1 0 I I #
coedge $-1 $345 $179 $182 $284 forward $269 $-1 #
coedge $-1 $179 $345 $275 $349 forward $269 $-1 #
vertex $-1 $180 $353 #
straight-curve $-1 -79.495994726548574 -19.884764912820742 10.608467648683785 -1 0 0 I I #
straight-curve $-1 -70.392773216956101 -19.884764912820742 2.6140973781207606 0.77714595512881146 0 0.62932039886446345 I I #
edge $-1 $183 19.884764912820742 $347 36.98396335759432 $182 $354 forward 7 unknown #
point $-1 -70.392773216956087 -19.884764912820742 10.608467648683787 #
point $-1 -70.392773216956087 -19.884764912820742 2.6140973781207721 #
edge $-1 $355 1 $355 0 $186 $-1 forward 7 unknown #
vertex $-1 $187 $356 #
ellipse-curve $-1 -62.619293293293914 -32.098478087659018 3.1074255678472857 -0.62932039886446345 0 0.77714595512881146 1.5542919102576229 0 1.2586407977289269 1 I I #
point $-1 -63.902368850483498 -32.098478087659018 7.8699233111311866 #
edge $-1 $357 1 $357 0 $190 $-1 forward 7 unknown #
vertex $-1 $191 $358 #
ellipse-curve $-1 -62.619293293293914 -24.770250182756051 3.1074255678472857 -0.62932039886446345 0 0.77714595512881146 1.5542919102576229 0 1.2586407977289269 1 I I #
point $-1 -63.902368850483498 -24.770250182756051 7.8699233111311866 #
plane-surface $-1 70.392773216956087 0 0 -1 0 0 0 0 1 forward_v I I I I #
coedge $-1 $199 $197 $201 $300 reversed $121 $-1 #
edge $-1 $212 -10.608467648683787 $302 10.608467648683787 $211 $359 forward 7 unknown #
vertex $-1 $300 $360 #
straight-curve $-1 -70.392773216956087 -46.72020368329099 0 0 0 -1 I I #
edge $-1 $298 -46.72020368329099 $302 46.72020368329099 $296 $361 forward 7 unknown #
straight-curve $-1 0 -46.72020368329099 -10.608467648683787 -1 0 0 I I #
vertex $-1 $204 $362 #
straight-curve $-1 0 46.72020368329099 -10.608467648683787 1 0 0 I I #
point $-1 70.392773216956087 46.72020368329099 -10.608467648683787 #
point $-1 70.392773216956087 -46.72020368329099 -10.608467648683787 #
straight-curve $-1 -70.392773216956087 0 10.608467648683787 0 -1 0 I I #
point $-1 -70.392773216956087 46.72020368329099 10.608467648683787 #
point $-1 -70.392773216956087 -46.72020368329099 10.608467648683787 #
straight-curve $-1 70.392773216956087 -46.72020368329099 0 0 0 -1 I I #
straight-curve $-1 70.392773216956087 46.72020368329099 0 0 0 -1 I I #
plane-surface $-1 70.392773216956087 0 0 -1 0 0 0 0 1 forward_v I I I I #
coedge $-1 $363 $315 $228 $320 forward $222 $-1 #
coedge $-1 $229 $224 $363 $364 forward $140 $-1 #
edge $-1 $238 -4.868120162848335 $365 4.868120162848335 $236 $366 forward 7 unknown #
coedge $-1 $312 $367 $225 $316 reversed $222 $-1 #
edge $-1 $323 -70.392773216956087 $318 70.392773216956087 $315 $368 forward 7 unknown #
coedge $-1 $236 $226 $367 $369 forward $237 $-1 #
vertex $-1 $227 $370 #
straight-curve $-1 70.392773216956087 -51.588323846139325 -1.7399275214957264 0 1 0 I I #
edge $-1 $323 -1.7488253333504806 $321 1.7488253333504806 $228 $371 forward 7 unknown #
vertex $-1 $230 $372 #
straight-curve $-1 -70.392773216956087 -51.588323846139325 -5.2375781881966876 0 1 0 I I #
vertex $-1 $231 $373 #
straight-curve $-1 -70.392773216956087 -51.588323846139325 -1.7399275214957264 0 -1 0 I I #
point $-1 -70.392773216956087 -46.72020368329099 -5.2375781881966876 #
straight-curve $-1 0 -46.72020368329099 -5.2375781881966876 -1 0 0 I I #
point $-1 70.392773216956087 -46.72020368329099 -5.2375781881966876 #
plane-surface $-1 0 46.72020368329099 0 0 -1 0 0 0 -1 forward_v I I I I #
coedge $-1 $246 $338 $248 $332 forward $243 $-1 #
vertex $-1 $332 $374 #
straight-curve $-1 -70.392773216956087 38.165175615258121 1.0956890415872538 0 0 1 I I #
edge $-1 $334 -25.498858858653712 $330 -16.943830790620844 $329 $375 forward 7 unknown #
straight-curve $-1 0 38.165175615258121 -0.50993334357566589 -1 0 0 I I #
vertex $-1 $251 $376 #
straight-curve $-1 0 46.72020368329099 -0.50993334357566589 -1 0 0 I I #
point $-1 70.392773216956087 38.165175615258121 -0.50993334357566589 #
point $-1 70.392773216956087 46.72020368329099 -0.50993334357566589 #
coedge $-1 $329 $255 $258 $340 forward $243 $-1 #
straight-curve $-1 -70.392773216956087 21.221344824637278 4.892689509924681 0 1 0 I I #
edge $-1 $260 -4.892689509924681 $334 0.50993334357566589 $258 $377 forward 7 unknown #
point $-1 -70.392773216956087 46.72020368329099 4.892689509924681 #
point $-1 -70.392773216956087 38.165175615258121 4.892689509924681 #
straight-curve $-1 70.392773216956087 38.165175615258121 1.0956890415872538 0 0 -1 I I #
straight-curve $-1 70.392773216956087 46.72020368329099 0 0 0 -1 I I #
coedge $-1 $280 $279 $272 $346 forward $269 $-1 #
edge $-1 $347 9.1032215095924869 $350 18.975446422022372 $345 $378 forward 7 unknown #
vertex $-1 $346 $379 #
straight-curve $-1 -70.392773216956087 -36.98396335759432 56.012507664917536 0 0 1 I I #
edge $-1 $350 -22.766781289990554 $281 -5.6675828452169768 $280 $380 forward 7 unknown #
vertex $-1 $349 $381 #
straight-curve $-1 -70.392773216956101 -36.98396335759432 2.6140973781207606 -0.77714595512881146 0 -0.62932039886446345 I I #
point $-1 -70.392773216956087 -36.98396335759432 2.6140973781207721 #
point $-1 -60.520548304526201 -19.884764912820742 10.608467648683787 #
straight-curve $-1 -70.392773216956087 0 10.608467648683787 0 -1 0 I I #
vertex $-1 $287 $382 #
point $-1 -61.065001383036289 -32.098478087659018 4.3660663655762129 #
vertex $-1 $291 $383 #
point $-1 -61.065001383036289 -24.770250182756051 4.3660663655762129 #
straight-curve $-1 -70.392773216956087 46.72020368329099 0 0 0 -1 I I #
point $-1 -70.392773216956087 -46.72020368329099 -10.608467648683787 #
straight-curve $-1 -70.392773216956087 0 -10.608467648683787 0 1 0 I I #
point $-1 -70.392773216956087 46.72020368329099 -10.608467648683787 #
coedge $-1 $367 $312 $313 $364 reversed $222 $-1 #
edge $-1 $365 -70.392773216956087 $321 70.392773216956087 $363 $384 forward 7 unknown #
vertex $-1 $369 $385 #
straight-curve $-1 70.392773216956087 -51.588323846139325 -5.2375781881966876 0 -1 0 I I #
coedge $-1 $315 $363 $317 $369 reversed $222 $-1 #
straight-curve $-1 0 -56.45644400898766 -1.7399275214957264 1 0 0 I I #
edge $-1 $318 -1.7488253333504806 $365 1.7488253333504806 $317 $386 forward 7 unknown #
point $-1 70.392773216956087 -56.45644400898766 -1.7399275214957264 #
straight-curve $-1 -70.392773216956087 -56.45644400898766 -3.488752854846207 0 0 -1 I I #
point $-1 -70.392773216956087 -56.45644400898766 -5.2375781881966876 #
point $-1 -70.392773216956087 -56.45644400898766 -1.7399275214957264 #
point $-1 -70.392773216956087 38.165175615258121 -0.50993334357566589 #
straight-curve $-1 -70.392773216956087 21.221344824637278 -0.50993334357566589 0 -1 0 I I #
point $-1 -70.392773216956087 46.72020368329099 -0.50993334357566589 #
straight-curve $-1 -70.392773216956087 46.72020368329099 0 0 0 -1 I I #
straight-curve $-1 -79.495994726548574 -36.98396335759432 10.608467648683785 1 0 0 I I #
point $-1 -70.392773216956087 -36.98396335759432 10.608467648683787 #
straight-curve $-1 -60.520548304526194 -14.217182067603765 10.608467648683785 0 1 0 I I #
point $-1 -60.520548304526201 -36.98396335759432 10.608467648683787 #
point $-1 -61.360652495564985 -32.098478087659018 1.5531336575896626 #
point $-1 -61.360652495564985 -24.770250182756051 1.5531336575896626 #
straight-curve $-1 0 -56.45644400898766 -5.2375781881966876 -1 0 0 I I #
point $-1 70.392773216956087 -56.45644400898766 -5.2375781881966876 #
straight-curve $-1 70.392773216956087 -56.45644400898766 -3.488752854846207 0 0 -1 I I #
End-of-ACIS-data 