500 0 13 0           
7 Unknown 11 ACIS 5.0 NT 24 Thu Mar 25 19:30:11 1999 
-1 9.9999999999999995e-007 1e-010 
body $-1 $13 $-1 $14 #
body $-1 $15 $-1 $16 #
body $-1 $17 $-1 $18 #
body $-1 $19 $-1 $20 #
body $-1 $21 $-1 $22 #
body $-1 $23 $-1 $24 #
body $-1 $25 $-1 $26 #
body $-1 $27 $-1 $28 #
body $-1 $29 $-1 $30 #
body $-1 $31 $-1 $32 #
body $-1 $33 $-1 $34 #
body $-1 $35 $-1 $36 #
body $-1 $37 $-1 $38 #
lump $-1 $-1 $39 $0 #
transform $-1 1 0 0 0 1 0 0 0 1 50.834070863979008 22.468017050528349 7.7215594960173268 1 rotate no_reflect no_shear #
lump $-1 $-1 $40 $1 #
transform $-1 1 0 0 0 1 0 0 0 1 50.834070863979008 22.468017050528349 7.7215594960173268 1 rotate no_reflect no_shear #
lump $-1 $-1 $41 $2 #
transform $-1 1 0 0 0 1 0 0 0 1 50.834070863979008 22.468017050528349 7.7215594960173268 1 rotate no_reflect no_shear #
lump $-1 $-1 $42 $3 #
transform $-1 1 0 0 0 1 0 0 0 1 50.834070863979008 22.468017050528349 7.7215594960173268 1 rotate no_reflect no_shear #
lump $-1 $-1 $43 $4 #
transform $-1 1 0 0 0 1 0 0 0 1 50.834070863979008 22.468017050528349 7.7215594960173268 1 rotate no_reflect no_shear #
lump $-1 $-1 $44 $5 #
transform $-1 1 0 0 0 1 0 0 0 1 50.834070863979008 22.468017050528349 7.7215594960173268 1 rotate no_reflect no_shear #
lump $-1 $-1 $45 $6 #
transform $-1 1 0 0 0 1 0 0 0 1 50.834070863979008 22.468017050528349 7.7215594960173268 1 rotate no_reflect no_shear #
lump $-1 $-1 $46 $7 #
transform $-1 1 0 0 0 1 0 0 0 1 50.834070863979008 22.468017050528349 7.7215594960173268 1 rotate no_reflect no_shear #
lump $-1 $-1 $47 $8 #
transform $-1 1 0 0 0 1 0 0 0 1 50.834070863979008 22.468017050528349 7.7215594960173268 1 rotate no_reflect no_shear #
lump $-1 $-1 $48 $9 #
transform $-1 1 0 0 0 1 0 0 0 1 50.834070863979008 22.468017050528349 7.7215594960173268 1 rotate no_reflect no_shear #
lump $-1 $-1 $49 $10 #
transform $-1 1 0 0 0 1 0 0 0 1 50.834070863979008 22.468017050528349 7.7215594960173268 1 rotate no_reflect no_shear #
lump $-1 $-1 $50 $11 #
transform $-1 1 0 0 0 1 0 0 0 1 50.834070863979008 22.468017050528349 7.7215594960173268 1 rotate no_reflect no_shear #
lump $-1 $-1 $51 $12 #
transform $-1 1 0 0 0 1 0 0 0 1 50.834070863979008 22.468017050528349 7.7215594960173268 1 rotate no_reflect no_shear #
shell $-1 $-1 $-1 $52 $-1 $13 #
shell $-1 $-1 $-1 $53 $-1 $15 #
shell $-1 $-1 $-1 $54 $-1 $17 #
shell $-1 $-1 $-1 $55 $-1 $19 #
shell $-1 $-1 $-1 $56 $-1 $21 #
shell $-1 $-1 $-1 $57 $-1 $23 #
shell $-1 $-1 $-1 $58 $-1 $25 #
shell $-1 $-1 $-1 $59 $-1 $27 #
shell $-1 $-1 $-1 $60 $-1 $29 #
shell $-1 $-1 $-1 $61 $-1 $31 #
shell $-1 $-1 $-1 $62 $-1 $33 #
shell $-1 $-1 $-1 $63 $-1 $35 #
shell $-1 $-1 $-1 $64 $-1 $37 #
face $-1 $65 $66 $39 $-1 $67 forward single #
face $-1 $68 $69 $40 $-1 $70 forward single #
face $-1 $71 $72 $41 $-1 $73 reversed single #
face $-1 $74 $75 $42 $-1 $76 forward single #
face $-1 $77 $78 $43 $-1 $79 reversed single #
face $-1 $80 $81 $44 $-1 $82 forward single #
face $-1 $83 $84 $45 $-1 $85 forward single #
face $-1 $86 $87 $46 $-1 $88 reversed single #
face $-1 $89 $90 $47 $-1 $91 forward single #
face $-1 $92 $93 $48 $-1 $94 forward single #
face $-1 $95 $96 $49 $-1 $97 reversed single #
face $-1 $98 $99 $50 $-1 $100 forward single #
face $-1 $101 $102 $51 $-1 $103 forward single #
face $-1 $104 $105 $39 $-1 $106 reversed single #
loop $-1 $-1 $107 $52 #
plane-surface $-1 0 0 7.7215594960173268 0 0 1 1 0 0 forward_v I I I I #
face $-1 $108 $109 $40 $-1 $110 forward single #
loop $-1 $-1 $111 $53 #
plane-surface $-1 0 -22.468017050528349 0 0 1 0 0 0 1 forward_v I I I I #
face $-1 $112 $113 $41 $-1 $114 reversed single #
loop $-1 $-1 $115 $54 #
plane-surface $-1 58.358960760202791 -6.6553143901238592 146.29182750442885 0 -1 0 -0.74314483375859142 0 -0.66913059716165679 forward_v I I I I #
face $-1 $116 $117 $42 $-1 $118 forward single #
loop $-1 $119 $120 $55 #
cone-surface $-1 47.709155263228944 -11.227972485319146 4.4334468977110486 -0.74314483375859142 0 -0.66913059716165679 0.66913059716165679 0 -0.74314483375859142 1 I I 0 1 1 forward I I I I #
face $-1 $121 $122 $43 $-1 $123 reversed single #
loop $-1 $-1 $124 $56 #
plane-surface $-1 -137.98067827289023 -12.30663420073169 56.244160369229697 0 1 0 -0.85716730853699208 0 0.51503806187062418 forward_v I I I I #
face $-1 $125 $126 $44 $-1 $127 forward single #
loop $-1 $128 $129 $57 #
cone-surface $-1 -49.171076524565947 -10.355671220060055 5.4954003748957403 0.85716730853699208 0 -0.51503806187062418 0.25751903093531209 0 0.42858365426849604 1 I I 0 1 0.5 forward I I I I #
face $-1 $130 $131 $45 $-1 $132 forward single #
loop $-1 $133 $134 $58 #
cone-surface $-1 -49.171076524565947 -7.4292267490525994 5.4954003748957403 0.85716730853699208 0 -0.51503806187062418 0.25751903093531209 0 0.42858365426849604 1 I I 0 1 0.5 forward I I I I #
face $-1 $135 $136 $46 $-1 $137 reversed single #
loop $-1 $-1 $138 $59 #
plane-surface $-1 -137.98067827289023 0.44958167628256884 56.244160369229697 0 1 0 -0.85716730853699208 0 0.51503806187062418 forward_v I I I I #
face $-1 $139 $140 $47 $-1 $141 forward single #
loop $-1 $142 $143 $60 #
cone-surface $-1 -49.171076524565947 2.4005446569542066 5.4954003748957403 0.85716730853699208 0 -0.51503806187062418 0.25751903093531209 0 0.42858365426849604 1 I I 0 1 0.5 forward I I I I #
face $-1 $144 $145 $48 $-1 $146 forward single #
loop $-1 $147 $148 $61 #
cone-surface $-1 -49.171076524565947 5.3269891279616637 5.4954003748957403 0.85716730853699208 0 -0.51503806187062418 0.25751903093531209 0 0.42858365426849604 1 I I 0 1 0.5 forward I I I I #
face $-1 $149 $150 $49 $-1 $151 reversed single #
loop $-1 $-1 $152 $62 #
plane-surface $-1 -137.98067827289023 13.205797553296833 56.244160369229697 0 1 0 -0.85716730853699208 0 0.51503806187062418 forward_v I I I I #
face $-1 $153 $154 $50 $-1 $155 forward single #
loop $-1 $156 $157 $63 #
cone-surface $-1 -49.171076524565947 15.15676053396847 5.4954003748957403 0.85716730853699208 0 -0.51503806187062418 0.25751903093531209 0 0.42858365426849604 1 I I 0 1 0.5 forward I I I I #
face $-1 $158 $159 $51 $-1 $160 forward single #
loop $-1 $161 $162 $64 #
cone-surface $-1 -49.171076524565947 18.083205004975927 5.4954003748957403 0.85716730853699208 0 -0.51503806187062418 0.25751903093531209 0 0.42858365426849604 1 I I 0 1 0.5 forward I I I I #
face $-1 $163 $164 $39 $-1 $165 reversed single #
loop $-1 $-1 $166 $65 #
plane-surface $-1 0 0 -7.7215594960173268 0 0 1 1 0 0 forward_v I I I I #
coedge $-1 $167 $168 $169 $170 forward $66 $-1 #
face $-1 $171 $172 $40 $-1 $173 reversed single #
loop $-1 $-1 $174 $68 #
plane-surface $-1 0 0 7.7215594960173268 0 0 1 1 0 0 forward_v I I I I #
coedge $-1 $175 $176 $177 $178 forward $69 $-1 #
face $-1 $179 $180 $41 $-1 $181 reversed single #
loop $-1 $-1 $182 $71 #
plane-surface $-1 -17.195193522765479 -11.227972485319144 78.262563117684351 0.74314483375859142 0 0.66913059716165679 0.66913059716165679 0 -0.74314483375859142 forward_v I I I I #
coedge $-1 $183 $184 $185 $186 reversed $72 $-1 #
face $-1 $-1 $187 $42 $-1 $188 forward single #
loop $-1 $189 $190 $74 #
cone-surface $-1 46.469597754483075 -11.227972485319146 3.3173443314745805 -0.74314483375859142 0 -0.66913059716165679 0.3345652985808284 0 -0.37157241687929571 1 I I -0.70710678118654779 0.70710678118654713 0.5 forward I I I I #
loop $-1 $-1 $191 $55 #
coedge $-1 $120 $120 $192 $193 reversed $75 $-1 #
face $-1 $194 $195 $43 $-1 $196 reversed single #
loop $-1 $-1 $197 $77 #
plane-surface $-1 -50.834070863979008 -8.8924489845563244 3.8811976996742672 -0.85716730853699208 0 0.51503806187062418 0.51503806187062418 0 0.85716730853699208 forward_v I I I I #
coedge $-1 $198 $199 $200 $201 reversed $78 $-1 #
face $-1 $-1 $202 $44 $-1 $203 forward single #
loop $-1 $204 $205 $80 #
cone-surface $-1 -48.447551401382768 -10.355671220060055 5.0606626364780274 0.85716730853699208 0 -0.51503806187062418 0.12875951546765604 0 0.21429182713424802 1 I I -0.70710678118654746 0.70710678118654746 0.25 forward I I I I #
loop $-1 $-1 $206 $57 #
coedge $-1 $129 $129 $207 $208 reversed $81 $-1 #
face $-1 $-1 $209 $45 $-1 $210 forward single #
loop $-1 $211 $212 $83 #
cone-surface $-1 -48.447551401382768 -7.4292267490525994 5.0606626364780274 0.85716730853699208 0 -0.51503806187062418 0.12875951546765604 0 0.21429182713424802 1 I I -0.70710678118654746 0.70710678118654746 0.25 forward I I I I #
loop $-1 $-1 $213 $58 #
coedge $-1 $134 $134 $214 $215 reversed $84 $-1 #
face $-1 $216 $217 $46 $-1 $218 reversed single #
loop $-1 $-1 $219 $86 #
plane-surface $-1 -50.834070863979008 3.8637668924579351 3.8811976996742672 -0.85716730853699208 0 0.51503806187062418 0.51503806187062418 0 0.85716730853699208 forward_v I I I I #
coedge $-1 $220 $221 $222 $223 reversed $87 $-1 #
face $-1 $-1 $224 $47 $-1 $225 forward single #
loop $-1 $226 $227 $89 #
cone-surface $-1 -48.447551401382768 2.4005446569542066 5.0606626364780274 0.85716730853699208 0 -0.51503806187062418 0.12875951546765604 0 0.21429182713424802 1 I I -0.70710678118654746 0.70710678118654746 0.25 forward I I I I #
loop $-1 $-1 $228 $60 #
coedge $-1 $143 $143 $229 $230 reversed $90 $-1 #
face $-1 $-1 $231 $48 $-1 $232 forward single #
loop $-1 $233 $234 $92 #
cone-surface $-1 -48.447551401382768 5.3269891279616637 5.0606626364780274 0.85716730853699208 0 -0.51503806187062418 0.12875951546765604 0 0.21429182713424802 1 I I -0.70710678118654746 0.70710678118654746 0.25 forward I I I I #
loop $-1 $-1 $235 $61 #
coedge $-1 $148 $148 $236 $237 reversed $93 $-1 #
face $-1 $238 $239 $49 $-1 $240 reversed single #
loop $-1 $-1 $241 $95 #
plane-surface $-1 -50.834070863979008 16.619982769472198 3.8811976996742672 -0.85716730853699208 0 0.51503806187062418 0.51503806187062418 0 0.85716730853699208 forward_v I I I I #
coedge $-1 $242 $243 $244 $245 reversed $96 $-1 #
face $-1 $-1 $246 $50 $-1 $247 forward single #
loop $-1 $248 $249 $98 #
cone-surface $-1 -48.447551401382768 15.15676053396847 5.0606626364780274 0.85716730853699208 0 -0.51503806187062418 0.12875951546765604 0 0.21429182713424802 1 I I -0.70710678118654746 0.70710678118654746 0.25 forward I I I I #
loop $-1 $-1 $250 $63 #
coedge $-1 $157 $157 $251 $252 reversed $99 $-1 #
face $-1 $-1 $253 $51 $-1 $254 forward single #
loop $-1 $255 $256 $101 #
cone-surface $-1 -48.447551401382768 18.083205004975927 5.0606626364780274 0.85716730853699208 0 -0.51503806187062418 0.12875951546765604 0 0.21429182713424802 1 I I -0.70710678118654746 0.70710678118654746 0.25 forward I I I I #
loop $-1 $-1 $257 $64 #
coedge $-1 $162 $162 $258 $259 reversed $102 $-1 #
face $-1 $260 $261 $39 $-1 $262 reversed single #
loop $-1 $-1 $263 $104 #
plane-surface $-1 0 -22.468017050528349 0 0 1 0 0 0 1 forward_v I I I I #
coedge $-1 $264 $265 $266 $267 forward $105 $-1 #
coedge $-1 $268 $107 $269 $270 forward $66 $-1 #
coedge $-1 $107 $268 $271 $272 forward $66 $-1 #
coedge $-1 $273 $274 $107 $170 reversed $275 $-1 #
edge $-1 $276 -22.468017050528349 $277 22.468017050528349 $169 $278 forward 7 unknown #
face $-1 $279 $280 $40 $-1 $281 reversed single #
loop $-1 $-1 $282 $108 #
plane-surface $-1 -50.834070863979008 0 0 1 0 0 0 0 -1 forward_v I I I I #
coedge $-1 $283 $284 $176 $285 forward $109 $-1 #
coedge $-1 $286 $111 $287 $288 reversed $69 $-1 #
coedge $-1 $111 $286 $174 $285 reversed $69 $-1 #
coedge $-1 $289 $290 $111 $178 reversed $291 $-1 #
edge $-1 $292 -7.7215594960173268 $293 7.7215594960173268 $177 $294 forward 7 unknown #
face $-1 $295 $296 $41 $-1 $297 forward single #
loop $-1 $-1 $298 $112 #
plane-surface $-1 58.358960760202791 -15.800630580514429 146.29182750442885 0 1 0 0.74314483375859142 0 0.66913059716165679 forward_v I I I I #
coedge $-1 $299 $300 $301 $302 reversed $113 $-1 #
coedge $-1 $184 $115 $303 $304 reversed $72 $-1 #
coedge $-1 $115 $183 $299 $305 reversed $72 $-1 #
coedge $-1 $301 $306 $115 $186 forward $296 $-1 #
edge $-1 $307 -21.654590483877612 $308 -17.140729466110614 $185 $309 forward 7 unknown #
loop $-1 $-1 $192 $116 #
plane-surface $-1 -17.195193522765479 -11.227972485319144 78.262563117684351 0.74314483375859142 0 0.66913059716165679 0.66913059716165679 0 -0.74314483375859142 forward_v I I I I #
loop $-1 $-1 $310 $74 #
coedge $-1 $190 $190 $191 $311 reversed $117 $-1 #
coedge $-1 $191 $191 $190 $311 forward $119 $-1 #
coedge $-1 $192 $192 $120 $193 forward $187 $-1 #
edge $-1 $312 0 $312 6.2831853071796004 $192 $313 forward 7 unknown #
face $-1 $314 $315 $43 $-1 $316 reversed single #
loop $-1 $-1 $317 $121 #
plane-surface $-1 -137.98067827289023 -5.4782637683809581 56.244160369229697 0 -1 0 0.85716730853699208 0 -0.51503806187062418 forward_v I I I I #
coedge $-1 $318 $319 $320 $321 reversed $122 $-1 #
coedge $-1 $199 $124 $322 $323 reversed $78 $-1 #
coedge $-1 $124 $198 $318 $324 reversed $78 $-1 #
coedge $-1 $320 $325 $124 $201 forward $326 $-1 #
edge $-1 $327 18.156268272466107 $328 20.463790359194356 $200 $329 forward 7 unknown #
loop $-1 $-1 $207 $125 #
plane-surface $-1 -50.834070863979008 -8.8924489845563244 3.8811976996742672 -0.85716730853699208 0 0.51503806187062418 0.51503806187062418 0 0.85716730853699208 forward_v I I I I #
loop $-1 $-1 $330 $80 #
coedge $-1 $205 $205 $206 $331 reversed $126 $-1 #
coedge $-1 $206 $206 $205 $331 forward $128 $-1 #
coedge $-1 $207 $207 $129 $208 forward $202 $-1 #
edge $-1 $332 0 $332 6.2831853071796004 $207 $333 forward 7 unknown #
loop $-1 $-1 $214 $130 #
plane-surface $-1 -50.834070863979008 -8.8924489845563244 3.8811976996742672 -0.85716730853699208 0 0.51503806187062418 0.51503806187062418 0 0.85716730853699208 forward_v I I I I #
loop $-1 $-1 $334 $83 #
coedge $-1 $212 $212 $213 $335 reversed $131 $-1 #
coedge $-1 $213 $213 $212 $335 forward $133 $-1 #
coedge $-1 $214 $214 $134 $215 forward $209 $-1 #
edge $-1 $336 0 $336 6.2831853071796004 $214 $337 forward 7 unknown #
face $-1 $338 $339 $46 $-1 $340 forward single #
loop $-1 $-1 $341 $135 #
plane-surface $-1 -137.98067827289023 7.2779521086333014 56.244160369229697 0 -1 0 0.85716730853699208 0 -0.51503806187062418 forward_v I I I I #
coedge $-1 $342 $343 $344 $345 reversed $136 $-1 #
coedge $-1 $221 $138 $346 $347 reversed $87 $-1 #
coedge $-1 $138 $220 $342 $348 reversed $87 $-1 #
coedge $-1 $344 $349 $138 $223 forward $339 $-1 #
edge $-1 $350 18.156268272466107 $351 20.463790359194356 $222 $352 forward 7 unknown #
loop $-1 $-1 $229 $139 #
plane-surface $-1 -50.834070863979008 3.8637668924579351 3.8811976996742672 -0.85716730853699208 0 0.51503806187062418 0.51503806187062418 0 0.85716730853699208 forward_v I I I I #
loop $-1 $-1 $353 $89 #
coedge $-1 $227 $227 $228 $354 reversed $140 $-1 #
coedge $-1 $228 $228 $227 $354 forward $142 $-1 #
coedge $-1 $229 $229 $143 $230 forward $224 $-1 #
edge $-1 $355 0 $355 6.2831853071796004 $229 $356 forward 7 unknown #
loop $-1 $-1 $236 $144 #
plane-surface $-1 -50.834070863979008 3.8637668924579351 3.8811976996742672 -0.85716730853699208 0 0.51503806187062418 0.51503806187062418 0 0.85716730853699208 forward_v I I I I #
loop $-1 $-1 $357 $92 #
coedge $-1 $234 $234 $235 $358 reversed $145 $-1 #
coedge $-1 $235 $235 $234 $358 forward $147 $-1 #
coedge $-1 $236 $236 $148 $237 forward $231 $-1 #
edge $-1 $359 0 $359 6.2831853071796004 $236 $360 forward 7 unknown #
face $-1 $361 $362 $49 $-1 $363 forward single #
loop $-1 $-1 $364 $149 #
plane-surface $-1 -137.98067827289023 20.034167985647564 56.244160369229697 0 -1 0 0.85716730853699208 0 -0.51503806187062418 forward_v I I I I #
coedge $-1 $365 $366 $367 $368 reversed $150 $-1 #
coedge $-1 $243 $152 $369 $370 reversed $96 $-1 #
coedge $-1 $152 $242 $365 $371 reversed $96 $-1 #
coedge $-1 $367 $372 $152 $245 forward $362 $-1 #
edge $-1 $373 18.156268272466107 $374 20.463790359194356 $244 $375 forward 7 unknown #
loop $-1 $-1 $251 $153 #
plane-surface $-1 -50.834070863979008 16.619982769472198 3.8811976996742672 -0.85716730853699208 0 0.51503806187062418 0.51503806187062418 0 0.85716730853699208 forward_v I I I I #
loop $-1 $-1 $376 $98 #
coedge $-1 $249 $249 $250 $377 reversed $154 $-1 #
coedge $-1 $250 $250 $249 $377 forward $156 $-1 #
coedge $-1 $251 $251 $157 $252 forward $246 $-1 #
edge $-1 $378 0 $378 6.2831853071796004 $251 $379 forward 7 unknown #
loop $-1 $-1 $258 $158 #
plane-surface $-1 -50.834070863979008 16.619982769472198 3.8811976996742672 -0.85716730853699208 0 0.51503806187062418 0.51503806187062418 0 0.85716730853699208 forward_v I I I I #
loop $-1 $-1 $380 $101 #
coedge $-1 $256 $256 $257 $381 reversed $159 $-1 #
coedge $-1 $257 $257 $256 $381 forward $161 $-1 #
coedge $-1 $258 $258 $162 $259 forward $253 $-1 #
edge $-1 $382 0 $382 6.2831853071796004 $258 $383 forward 7 unknown #
face $-1 $384 $385 $39 $-1 $386 reversed single #
loop $-1 $-1 $387 $163 #
plane-surface $-1 -50.834070863979008 0 0 1 0 0 0 0 -1 forward_v I I I I #
coedge $-1 $388 $271 $389 $390 forward $164 $-1 #
coedge $-1 $391 $166 $388 $392 forward $105 $-1 #
coedge $-1 $166 $391 $393 $394 forward $105 $-1 #
coedge $-1 $274 $273 $166 $267 reversed $275 $-1 #
edge $-1 $395 -22.468017050528349 $396 22.468017050528349 $266 $397 forward 7 unknown #
coedge $-1 $168 $167 $398 $399 forward $66 $-1 #
coedge $-1 $400 $401 $167 $270 reversed $385 $-1 #
edge $-1 $277 -50.834070863979008 $402 50.834070863979008 $269 $403 forward 7 unknown #
coedge $-1 $263 $404 $168 $272 reversed $164 $-1 #
edge $-1 $405 -50.834070863979008 $276 50.834070863979008 $271 $406 forward 7 unknown #
coedge $-1 $266 $169 $404 $407 forward $275 $-1 #
coedge $-1 $169 $266 $400 $408 reversed $275 $-1 #
loop $-1 $-1 $273 $384 #
vertex $-1 $170 $409 #
vertex $-1 $170 $410 #
straight-curve $-1 50.834070863979008 0 7.7215594960173268 0 1 0 I I #
face $-1 $411 $291 $40 $-1 $412 reversed single #
loop $-1 $-1 $413 $171 #
plane-surface $-1 -49.261881512205001 -29.135403520542265 0 0 1 0 0 0 1 forward_v I I I I #
coedge $-1 $414 $415 $286 $416 forward $172 $-1 #
coedge $-1 $417 $174 $415 $418 forward $109 $-1 #
coedge $-1 $174 $417 $289 $419 forward $109 $-1 #
edge $-1 $292 47.689692160430994 $420 50.834070863979008 $174 $421 forward 7 unknown #
coedge $-1 $176 $175 $282 $416 reversed $69 $-1 #
coedge $-1 $422 $423 $175 $288 forward $424 $-1 #
edge $-1 $425 -50.834070863979008 $293 -47.689692160430994 $287 $426 forward 7 unknown #
coedge $-1 $427 $177 $284 $419 reversed $291 $-1 #
coedge $-1 $177 $427 $422 $428 reversed $291 $-1 #
loop $-1 $-1 $427 $279 #
vertex $-1 $285 $429 #
vertex $-1 $428 $430 #
straight-curve $-1 -47.689692160430994 -22.468017050528349 0 0 0 -1 I I #
face $-1 $-1 $431 $41 $-1 $432 reversed single #
loop $-1 $-1 $185 $179 #
plane-surface $-1 0 0 7.7215594960173268 0 0 1 1 0 0 forward_v I I I I #
coedge $-1 $433 $434 $435 $436 reversed $180 $-1 #
coedge $-1 $437 $182 $184 $305 forward $113 $-1 #
coedge $-1 $182 $437 $433 $438 forward $113 $-1 #
coedge $-1 $435 $185 $182 $302 forward $296 $-1 #
edge $-1 $308 1.041328147464287 $439 10.186644337854858 $301 $440 forward 7 unknown #
coedge $-1 $441 $442 $183 $304 forward $431 $-1 #
edge $-1 $443 -70.43750491749833 $307 -65.424354256197105 $303 $444 forward 7 unknown #
edge $-1 $308 94.922282194835361 $443 101.66814172795799 $184 $445 forward 7 unknown #
coedge $-1 $185 $435 $441 $446 forward $296 $-1 #
vertex $-1 $304 $447 #
vertex $-1 $186 $448 #
straight-curve $-1 29.179480380101396 -6.6553143901238592 7.7215594960173206 -1 0 0 I I #
coedge $-1 $310 $310 $-1 $449 reversed $189 $-1 #
edge $-1 $450 0 $450 6.2831853071796004 $190 $451 forward 7 unknown #
vertex $-1 $193 $452 #
ellipse-curve $-1 48.57714035509553 -11.227972485319146 5.2149841653666993 0.74314483375859142 0 0.66913059716165679 0.66913059716165679 0 -0.74314483375859142 1 I I #
face $-1 $-1 $326 $43 $-1 $453 forward single #
loop $-1 $-1 $454 $194 #
plane-surface $-1 -50.834070863979008 0 0 1 0 0 0 0 -1 forward_v I I I I #
coedge $-1 $455 $456 $457 $458 reversed $195 $-1 #
coedge $-1 $459 $197 $199 $324 forward $122 $-1 #
coedge $-1 $197 $459 $455 $460 forward $122 $-1 #
coedge $-1 $457 $200 $197 $321 forward $326 $-1 #
edge $-1 $328 -7.8604097084535276 $461 -1.0320392761027959 $320 $462 forward 7 unknown #
coedge $-1 $463 $464 $198 $323 forward $315 $-1 #
edge $-1 $465 -24.240882484940581 $327 -20.400520688597521 $322 $466 forward 7 unknown #
edge $-1 $328 -4.4802942880518453 $465 0 $199 $467 forward 7 unknown #
coedge $-1 $200 $457 $463 $468 forward $326 $-1 #
loop $-1 $-1 $457 $314 #
vertex $-1 $323 $469 #
vertex $-1 $201 $470 #
straight-curve $-1 -68.990339136445115 -12.30663420073169 7.7215594960173277 1 0 0 I I #
coedge $-1 $330 $330 $-1 $471 reversed $204 $-1 #
edge $-1 $472 0 $472 6.2831853071796004 $205 $473 forward 7 unknown #
vertex $-1 $208 $474 #
ellipse-curve $-1 -49.68030982061488 -10.355671220060055 5.8013785978457983 -0.85716730853699208 0 0.51503806187062418 0.25751903093531209 0 0.42858365426849604 1 I I #
coedge $-1 $334 $334 $-1 $475 reversed $211 $-1 #
edge $-1 $476 0 $476 6.2831853071796004 $212 $477 forward 7 unknown #
vertex $-1 $215 $478 #
ellipse-curve $-1 -49.68030982061488 -7.4292267490525994 5.8013785978457983 -0.85716730853699208 0 0.51503806187062418 0.25751903093531209 0 0.42858365426849604 1 I I #
face $-1 $-1 $479 $46 $-1 $480 reversed single #
loop $-1 $-1 $222 $216 #
plane-surface $-1 0 0 7.7215594960173268 0 0 1 1 0 0 forward_v I I I I #
coedge $-1 $481 $482 $483 $484 reversed $217 $-1 #
coedge $-1 $485 $219 $221 $348 forward $136 $-1 #
coedge $-1 $219 $485 $481 $486 forward $136 $-1 #
coedge $-1 $483 $222 $219 $345 forward $339 $-1 #
edge $-1 $351 -1.4823017699463987 $487 5.3460686624043339 $344 $488 forward 7 unknown #
coedge $-1 $489 $490 $220 $347 forward $479 $-1 #
edge $-1 $491 -24.240882484940581 $350 -20.400520688597521 $346 $492 forward 7 unknown #
edge $-1 $351 -4.4802942880518453 $491 0 $221 $493 forward 7 unknown #
coedge $-1 $222 $483 $489 $494 forward $339 $-1 #
vertex $-1 $347 $495 #
vertex $-1 $223 $496 #
straight-curve $-1 -68.990339136445115 0.44958167628256884 7.7215594960173277 1 0 0 I I #
coedge $-1 $353 $353 $-1 $497 reversed $226 $-1 #
edge $-1 $498 0 $498 6.2831853071796004 $227 $499 forward 7 unknown #
vertex $-1 $230 $500 #
ellipse-curve $-1 -49.68030982061488 2.4005446569542066 5.8013785978457983 -0.85716730853699208 0 0.51503806187062418 0.25751903093531209 0 0.42858365426849604 1 I I #
coedge $-1 $357 $357 $-1 $501 reversed $233 $-1 #
edge $-1 $502 0 $502 6.2831853071796004 $234 $503 forward 7 unknown #
vertex $-1 $237 $504 #
ellipse-curve $-1 -49.68030982061488 5.3269891279616637 5.8013785978457983 -0.85716730853699208 0 0.51503806187062418 0.25751903093531209 0 0.42858365426849604 1 I I #
face $-1 $-1 $505 $49 $-1 $506 reversed single #
loop $-1 $-1 $244 $238 #
plane-surface $-1 0 0 7.7215594960173268 0 0 1 1 0 0 forward_v I I I I #
coedge $-1 $507 $508 $509 $510 reversed $239 $-1 #
coedge $-1 $511 $241 $243 $371 forward $150 $-1 #
coedge $-1 $241 $511 $507 $512 forward $150 $-1 #
coedge $-1 $509 $244 $241 $368 forward $362 $-1 #
edge $-1 $374 4.8958061685607337 $513 11.724176600911465 $367 $514 forward 7 unknown #
coedge $-1 $515 $516 $242 $370 forward $505 $-1 #
edge $-1 $517 -24.240882484940581 $373 -20.400520688597521 $369 $518 forward 7 unknown #
edge $-1 $374 -4.4802942880518453 $517 0 $243 $519 forward 7 unknown #
coedge $-1 $244 $509 $515 $520 forward $362 $-1 #
vertex $-1 $245 $521 #
vertex $-1 $245 $522 #
straight-curve $-1 -68.990339136445115 13.205797553296833 7.7215594960173277 1 0 0 I I #
coedge $-1 $376 $376 $-1 $523 reversed $248 $-1 #
edge $-1 $524 0 $524 6.2831853071796004 $249 $525 forward 7 unknown #
vertex $-1 $252 $526 #
ellipse-curve $-1 -49.68030982061488 15.15676053396847 5.8013785978457983 -0.85716730853699208 0 0.51503806187062418 0.25751903093531209 0 0.42858365426849604 1 I I #
coedge $-1 $380 $380 $-1 $527 reversed $255 $-1 #
edge $-1 $528 0 $528 6.2831853071796004 $256 $529 forward 7 unknown #
vertex $-1 $259 $530 #
ellipse-curve $-1 -49.68030982061488 18.083205004975927 5.8013785978457983 -0.85716730853699208 0 0.51503806187062418 0.25751903093531209 0 0.42858365426849604 1 I I #
face $-1 $-1 $275 $39 $-1 $531 reversed single #
loop $-1 $-1 $400 $260 #
plane-surface $-1 0 22.468017050528349 0 0 -1 0 0 0 -1 forward_v I I I I #
coedge $-1 $532 $398 $401 $533 forward $261 $-1 #
coedge $-1 $404 $263 $264 $392 reversed $164 $-1 #
coedge $-1 $398 $532 $263 $390 reversed $261 $-1 #
edge $-1 $405 -7.7215594960173268 $534 7.7215594960173268 $389 $535 forward 7 unknown #
coedge $-1 $265 $264 $532 $536 forward $105 $-1 #
edge $-1 $396 -50.834070863979008 $534 50.834070863979008 $388 $537 forward 7 unknown #
coedge $-1 $401 $400 $265 $394 reversed $385 $-1 #
edge $-1 $538 -50.834070863979008 $395 50.834070863979008 $393 $539 forward 7 unknown #
vertex $-1 $267 $540 #
vertex $-1 $407 $541 #
straight-curve $-1 50.834070863979008 0 -7.7215594960173268 0 -1 0 I I #
coedge $-1 $387 $389 $268 $399 reversed $261 $-1 #
edge $-1 $402 -22.468017050528349 $405 22.468017050528349 $398 $542 forward 7 unknown #
coedge $-1 $393 $269 $274 $408 forward $385 $-1 #
coedge $-1 $269 $393 $387 $533 reversed $385 $-1 #
vertex $-1 $270 $543 #
straight-curve $-1 0 22.468017050528349 7.7215594960173268 -1 0 0 I I #
coedge $-1 $271 $388 $273 $407 reversed $164 $-1 #
vertex $-1 $399 $544 #
straight-curve $-1 0 -22.468017050528349 7.7215594960173268 1 0 0 I I #
edge $-1 $276 -7.7215594960173268 $396 7.7215594960173268 $273 $545 forward 7 unknown #
edge $-1 $277 -7.7215594960173268 $395 7.7215594960173268 $274 $546 forward 7 unknown #
point $-1 50.834070863979008 -22.468017050528349 7.7215594960173268 #
point $-1 50.834070863979008 22.468017050528349 7.7215594960173268 #
face $-1 $-1 $424 $40 $-1 $547 reversed single #
plane-surface $-1 -47.689692160430994 -25.801710285535307 0 -1 0 0 0 0 1 forward_v I I I I #
coedge $-1 $548 $549 $550 $551 forward $280 $-1 #
coedge $-1 $550 $282 $423 $552 reversed $172 $-1 #
coedge $-1 $282 $550 $283 $418 reversed $172 $-1 #
edge $-1 $420 -7.7215594960173268 $425 7.7215594960173268 $282 $553 forward 7 unknown #
coedge $-1 $284 $283 $549 $554 forward $109 $-1 #
edge $-1 $420 22.468017050528349 $555 29.135403520542265 $415 $556 forward 7 unknown #
edge $-1 $557 -3.3336932350069581 $292 3.3336932350069581 $289 $558 forward 7 unknown #
vertex $-1 $418 $559 #
straight-curve $-1 0 -22.468017050528349 7.7215594960173268 -1 0 0 I I #
coedge $-1 $560 $287 $290 $428 forward $424 $-1 #
coedge $-1 $287 $560 $414 $552 forward $424 $-1 #
loop $-1 $-1 $287 $411 #
vertex $-1 $416 $561 #
straight-curve $-1 0 -22.468017050528349 -7.7215594960173268 1 0 0 I I #
coedge $-1 $290 $289 $562 $563 forward $291 $-1 #
edge $-1 $293 -3.3336932350069581 $564 3.3336932350069581 $290 $565 forward 7 unknown #
point $-1 -47.689692160430994 -22.468017050528349 7.7215594960173268 #
point $-1 -47.689692160430994 -22.468017050528349 -7.7215594960173268 #
loop $-1 $-1 $303 $295 #
plane-surface $-1 50.834070863979008 0 0 -1 0 0 0 0 1 forward_v I I I I #
coedge $-1 $434 $298 $300 $438 reversed $180 $-1 #
coedge $-1 $298 $433 $566 $567 reversed $180 $-1 #
coedge $-1 $306 $301 $298 $436 forward $296 $-1 #
edge $-1 $439 17.140729466110614 $568 21.654590483877612 $435 $569 forward 7 unknown #
coedge $-1 $300 $299 $442 $570 reversed $113 $-1 #
edge $-1 $571 -101.66814172795799 $439 -94.922282194835361 $433 $572 forward 7 unknown #
vertex $-1 $302 $573 #
straight-curve $-1 46.320209846212002 -5.6139862426595721 7.7215594960173277 0 -1 0 I I #
coedge $-1 $566 $303 $306 $446 reversed $431 $-1 #
coedge $-1 $303 $566 $437 $570 forward $431 $-1 #
vertex $-1 $304 $574 #
straight-curve $-1 50.834070863979008 -6.6553143901238592 73.145913752214426 0 0 1 I I #
straight-curve $-1 -17.195193522765479 -6.6553143901238592 78.262563117684351 0.66913059716165679 0 -0.74314483375859142 I I #
edge $-1 $568 -15.800630580514429 $307 -6.6553143901238592 $441 $575 forward 7 unknown #
point $-1 50.834070863979008 -6.6553143901238592 7.7215594960173268 #
point $-1 46.320209846212009 -6.6553143901238592 7.7215594960173206 #
edge $-1 $576 1 $576 0 $310 $-1 forward 7 unknown #
vertex $-1 $311 $577 #
ellipse-curve $-1 46.841170171362371 -11.227972485319146 3.6519096300554086 0.74314483375859142 0 0.66913059716165679 0.66913059716165679 0 -0.74314483375859142 1 I I #
point $-1 49.24627095225717 -11.227972485319146 4.4718393316080975 #
plane-surface $-1 0 0 7.7215594960173268 0 0 1 1 0 0 forward_v I I I I #
coedge $-1 $464 $463 $456 $578 forward $315 $-1 #
coedge $-1 $456 $317 $319 $460 reversed $195 $-1 #
coedge $-1 $317 $455 $454 $578 reversed $195 $-1 #
coedge $-1 $325 $320 $317 $458 forward $326 $-1 #
edge $-1 $461 -20.463790359194356 $579 -18.156268272466107 $457 $580 forward 7 unknown #
coedge $-1 $319 $318 $464 $581 reversed $122 $-1 #
edge $-1 $582 0 $461 4.4802942880518453 $455 $583 forward 7 unknown #
vertex $-1 $321 $584 #
straight-curve $-1 -48.526548777250753 -4.4462244922781622 7.7215594960173277 0 1 0 I I #
coedge $-1 $454 $322 $325 $468 reversed $315 $-1 #
coedge $-1 $322 $454 $459 $581 forward $315 $-1 #
vertex $-1 $323 $585 #
straight-curve $-1 -50.834070863979008 -12.30663420073169 28.122080184614848 0 0 1 I I #
straight-curve $-1 -50.834070863979008 -12.30663420073169 3.8811976996742672 -0.51503806187062418 0 -0.85716730853699208 I I #
edge $-1 $579 5.4782637683809581 $327 12.30663420073169 $463 $586 forward 7 unknown #
point $-1 -50.834070863979008 -12.30663420073169 7.7215594960173268 #
point $-1 -48.52654877725076 -12.30663420073169 7.7215594960173268 #
edge $-1 $587 1 $587 0 $330 $-1 forward 7 unknown #
vertex $-1 $331 $588 #
ellipse-curve $-1 -48.661843228517014 -10.355671220060055 5.1894221519456831 -0.85716730853699208 0 0.51503806187062418 0.25751903093531209 0 0.42858365426849604 1 I I #
point $-1 -49.422790789679567 -10.355671220060055 6.2299622521142934 #
edge $-1 $589 1 $589 0 $334 $-1 forward 7 unknown #
vertex $-1 $335 $590 #
ellipse-curve $-1 -48.661843228517014 -7.4292267490525994 5.1894221519456831 -0.85716730853699208 0 0.51503806187062418 0.25751903093531209 0 0.42858365426849604 1 I I #
point $-1 -49.422790789679567 -7.4292267490525994 6.2299622521142934 #
loop $-1 $-1 $346 $338 #
plane-surface $-1 -50.834070863979008 0 0 1 0 0 0 0 -1 forward_v I I I I #
coedge $-1 $482 $341 $343 $486 reversed $217 $-1 #
coedge $-1 $341 $481 $591 $592 reversed $217 $-1 #
coedge $-1 $349 $344 $341 $484 forward $339 $-1 #
edge $-1 $487 -20.463790359194356 $593 -18.156268272466107 $483 $594 forward 7 unknown #
coedge $-1 $343 $342 $490 $595 reversed $136 $-1 #
edge $-1 $596 0 $487 4.4802942880518453 $481 $597 forward 7 unknown #
vertex $-1 $345 $598 #
straight-curve $-1 -48.526548777250753 1.9318834462289676 7.7215594960173277 0 1 0 I I #
coedge $-1 $591 $346 $349 $494 reversed $479 $-1 #
coedge $-1 $346 $591 $485 $595 forward $479 $-1 #
vertex $-1 $347 $599 #
straight-curve $-1 -50.834070863979008 0.44958167628256884 28.122080184614848 0 0 1 I I #
straight-curve $-1 -50.834070863979008 0.44958167628256884 3.8811976996742672 -0.51503806187062418 0 -0.85716730853699208 I I #
edge $-1 $593 -7.2779521086333014 $350 -0.44958167628256884 $489 $600 forward 7 unknown #
point $-1 -50.834070863979008 0.44958167628256884 7.7215594960173268 #
point $-1 -48.52654877725076 0.44958167628256884 7.7215594960173268 #
edge $-1 $601 1 $601 0 $353 $-1 forward 7 unknown #
vertex $-1 $354 $602 #
ellipse-curve $-1 -48.661843228517014 2.4005446569542066 5.1894221519456831 -0.85716730853699208 0 0.51503806187062418 0.25751903093531209 0 0.42858365426849604 1 I I #
point $-1 -49.422790789679567 2.4005446569542066 6.2299622521142934 #
edge $-1 $603 1 $603 0 $357 $-1 forward 7 unknown #
vertex $-1 $358 $604 #
ellipse-curve $-1 -48.661843228517014 5.3269891279616637 5.1894221519456831 -0.85716730853699208 0 0.51503806187062418 0.25751903093531209 0 0.42858365426849604 1 I I #
point $-1 -49.422790789679567 5.3269891279616637 6.2299622521142934 #
loop $-1 $-1 $369 $361 #
plane-surface $-1 -50.834070863979008 0 0 1 0 0 0 0 -1 forward_v I I I I #
coedge $-1 $508 $364 $366 $512 reversed $239 $-1 #
coedge $-1 $364 $507 $605 $606 reversed $239 $-1 #
coedge $-1 $372 $367 $364 $510 forward $362 $-1 #
edge $-1 $513 -20.463790359194356 $607 -18.156268272466107 $509 $608 forward 7 unknown #
coedge $-1 $366 $365 $516 $609 reversed $150 $-1 #
edge $-1 $610 0 $513 4.4802942880518453 $507 $611 forward 7 unknown #
vertex $-1 $368 $612 #
straight-curve $-1 -48.526548777250753 8.3099913847360991 7.7215594960173277 0 1 0 I I #
coedge $-1 $605 $369 $372 $520 reversed $505 $-1 #
coedge $-1 $369 $605 $511 $609 forward $505 $-1 #
vertex $-1 $370 $613 #
straight-curve $-1 -50.834070863979008 13.205797553296833 28.122080184614848 0 0 1 I I #
straight-curve $-1 -50.834070863979008 13.205797553296833 3.8811976996742672 -0.51503806187062418 0 -0.85716730853699208 I I #
edge $-1 $607 -20.034167985647564 $373 -13.205797553296833 $515 $614 forward 7 unknown #
point $-1 -50.834070863979008 13.205797553296833 7.7215594960173268 #
point $-1 -48.52654877725076 13.205797553296833 7.7215594960173268 #
edge $-1 $615 1 $615 0 $376 $-1 forward 7 unknown #
vertex $-1 $377 $616 #
ellipse-curve $-1 -48.661843228517014 15.15676053396847 5.1894221519456831 -0.85716730853699208 0 0.51503806187062418 0.25751903093531209 0 0.42858365426849604 1 I I #
point $-1 -49.422790789679567 15.15676053396847 6.2299622521142934 #
edge $-1 $617 1 $617 0 $380 $-1 forward 7 unknown #
vertex $-1 $381 $618 #
ellipse-curve $-1 -48.661843228517014 18.083205004975927 5.1894221519456831 -0.85716730853699208 0 0.51503806187062418 0.25751903093531209 0 0.42858365426849604 1 I I #
point $-1 -49.422790789679567 18.083205004975927 6.2299622521142934 #
plane-surface $-1 50.834070863979008 0 0 -1 0 0 0 0 1 forward_v I I I I #
coedge $-1 $389 $387 $391 $536 reversed $261 $-1 #
edge $-1 $402 -7.7215594960173268 $538 7.7215594960173268 $401 $619 forward 7 unknown #
vertex $-1 $536 $620 #
straight-curve $-1 -50.834070863979008 -22.468017050528349 0 0 0 -1 I I #
edge $-1 $534 -22.468017050528349 $538 22.468017050528349 $532 $621 forward 7 unknown #
straight-curve $-1 0 -22.468017050528349 -7.7215594960173268 -1 0 0 I I #
vertex $-1 $394 $622 #
straight-curve $-1 0 22.468017050528349 -7.7215594960173268 1 0 0 I I #
point $-1 50.834070863979008 22.468017050528349 -7.7215594960173268 #
point $-1 50.834070863979008 -22.468017050528349 -7.7215594960173268 #
straight-curve $-1 -50.834070863979008 0 7.7215594960173268 0 -1 0 I I #
point $-1 -50.834070863979008 22.468017050528349 7.7215594960173268 #
point $-1 -50.834070863979008 -22.468017050528349 7.7215594960173268 #
straight-curve $-1 50.834070863979008 -22.468017050528349 0 0 0 -1 I I #
straight-curve $-1 50.834070863979008 22.468017050528349 0 0 0 -1 I I #
plane-surface $-1 0 0 -7.7215594960173268 0 0 1 1 0 0 forward_v I I I I #
coedge $-1 $562 $413 $560 $623 reversed $280 $-1 #
coedge $-1 $413 $562 $417 $554 reversed $280 $-1 #
coedge $-1 $415 $414 $413 $551 reversed $172 $-1 #
edge $-1 $555 -7.7215594960173268 $624 7.7215594960173268 $550 $625 forward 7 unknown #
edge $-1 $624 -29.135403520542265 $425 -22.468017050528349 $414 $626 forward 7 unknown #
straight-curve $-1 -50.834070863979008 -22.468017050528349 0 0 0 -1 I I #
edge $-1 $555 -1.5721893517740071 $557 1.5721893517740071 $549 $627 forward 7 unknown #
vertex $-1 $418 $628 #
straight-curve $-1 -50.834070863979008 0 7.7215594960173268 0 -1 0 I I #
vertex $-1 $419 $629 #
straight-curve $-1 -47.689692160430994 -25.801710285535307 7.7215594960173268 0 1 0 I I #
point $-1 -50.834070863979008 -22.468017050528349 7.7215594960173268 #
coedge $-1 $423 $422 $548 $623 forward $424 $-1 #
point $-1 -50.834070863979008 -22.468017050528349 -7.7215594960173268 #
coedge $-1 $549 $548 $427 $563 reversed $280 $-1 #
edge $-1 $557 -7.7215594960173268 $564 7.7215594960173268 $427 $630 forward 7 unknown #
vertex $-1 $563 $631 #
straight-curve $-1 -47.689692160430994 -25.801710285535307 -7.7215594960173268 0 -1 0 I I #
coedge $-1 $442 $441 $434 $567 forward $431 $-1 #
edge $-1 $568 65.424354256197105 $571 70.43750491749833 $566 $632 forward 7 unknown #
vertex $-1 $446 $633 #
straight-curve $-1 29.179480380101396 -15.800630580514429 7.7215594960173206 1 0 0 I I #
edge $-1 $571 -10.186644337854858 $443 -1.041328147464287 $442 $634 forward 7 unknown #
vertex $-1 $570 $635 #
straight-curve $-1 -17.195193522765479 -15.800630580514429 78.262563117684351 -0.66913059716165679 0 0.74314483375859142 I I #
point $-1 46.320209846212009 -15.800630580514429 7.7215594960173206 #
point $-1 50.834070863979008 -6.6553143901238592 2.7084088347160957 #
straight-curve $-1 50.834070863979008 0 7.7215594960173268 0 1 0 I I #
vertex $-1 $449 $636 #
point $-1 47.510300768524026 -11.227972485319146 2.9087647962968171 #
edge $-1 $579 20.400520688597521 $582 24.240882484940581 $454 $637 forward 7 unknown #
vertex $-1 $468 $638 #
straight-curve $-1 -68.990339136445115 -5.4782637683809581 7.7215594960173277 -1 0 0 I I #
edge $-1 $582 1.0320392761027959 $465 7.8604097084535276 $464 $639 forward 7 unknown #
vertex $-1 $581 $640 #
straight-curve $-1 -50.834070863979008 -5.4782637683809581 3.8811976996742672 0.51503806187062418 0 0.85716730853699208 I I #
point $-1 -48.52654877725076 -5.4782637683809581 7.7215594960173268 #
point $-1 -50.834070863979008 -12.30663420073169 3.8811976996742672 #
straight-curve $-1 -50.834070863979008 0 7.7215594960173268 0 -1 0 I I #
vertex $-1 $471 $641 #
point $-1 -48.404324197581701 -10.355671220060055 5.6180058062141791 #
vertex $-1 $475 $642 #
point $-1 -48.404324197581701 -7.4292267490525994 5.6180058062141791 #
coedge $-1 $490 $489 $482 $592 forward $479 $-1 #
edge $-1 $593 20.400520688597521 $596 24.240882484940581 $591 $643 forward 7 unknown #
vertex $-1 $494 $644 #
straight-curve $-1 -68.990339136445115 7.2779521086333014 7.7215594960173277 -1 0 0 I I #
edge $-1 $596 -5.3460686624043339 $491 1.4823017699463987 $490 $645 forward 7 unknown #
vertex $-1 $595 $646 #
straight-curve $-1 -50.834070863979008 7.2779521086333014 3.8811976996742672 0.51503806187062418 0 0.85716730853699208 I I #
point $-1 -48.52654877725076 7.2779521086333014 7.7215594960173268 #
point $-1 -50.834070863979008 0.44958167628256884 3.8811976996742672 #
straight-curve $-1 -50.834070863979008 0 7.7215594960173268 0 -1 0 I I #
vertex $-1 $497 $647 #
point $-1 -48.404324197581701 2.4005446569542066 5.6180058062141791 #
vertex $-1 $501 $648 #
point $-1 -48.404324197581701 5.3269891279616637 5.6180058062141791 #
coedge $-1 $516 $515 $508 $606 forward $505 $-1 #
edge $-1 $607 20.400520688597521 $610 24.240882484940581 $605 $649 forward 7 unknown #
vertex $-1 $520 $650 #
straight-curve $-1 -68.990339136445115 20.034167985647564 7.7215594960173277 -1 0 0 I I #
edge $-1 $610 -11.724176600911465 $517 -4.8958061685607337 $516 $651 forward 7 unknown #
vertex $-1 $609 $652 #
straight-curve $-1 -50.834070863979008 20.034167985647564 3.8811976996742672 0.51503806187062418 0 0.85716730853699208 I I #
point $-1 -48.52654877725076 20.034167985647564 7.7215594960173268 #
point $-1 -50.834070863979008 13.205797553296833 3.8811976996742672 #
straight-curve $-1 -50.834070863979008 0 7.7215594960173268 0 -1 0 I I #
vertex $-1 $523 $653 #
point $-1 -48.404324197581701 15.15676053396847 5.6180058062141791 #
vertex $-1 $527 $654 #
point $-1 -48.404324197581701 18.083205004975927 5.6180058062141791 #
straight-curve $-1 -50.834070863979008 22.468017050528349 0 0 0 -1 I I #
point $-1 -50.834070863979008 -22.468017050528349 -7.7215594960173268 #
straight-curve $-1 -50.834070863979008 0 -7.7215594960173268 0 1 0 I I #
point $-1 -50.834070863979008 22.468017050528349 -7.7215594960173268 #
edge $-1 $564 -1.5721893517740071 $624 1.5721893517740071 $548 $655 forward 7 unknown #
vertex $-1 $552 $656 #
straight-curve $-1 -50.834070863979008 -29.135403520542265 0 0 0 -1 I I #
straight-curve $-1 -50.834070863979008 0 -7.7215594960173268 0 1 0 I I #
straight-curve $-1 -49.261881512205001 -29.135403520542265 7.7215594960173268 1 0 0 I I #
point $-1 -50.834070863979008 -29.135403520542265 7.7215594960173268 #
point $-1 -47.689692160430994 -29.135403520542265 7.7215594960173268 #
straight-curve $-1 -47.689692160430994 -29.135403520542265 0 0 0 -1 I I #
point $-1 -47.689692160430994 -29.135403520542265 -7.7215594960173268 #
straight-curve $-1 50.834070863979008 -15.800630580514429 73.145913752214426 0 0 -1 I I #
point $-1 50.834070863979008 -15.800630580514429 7.7215594960173268 #
straight-curve $-1 50.834070863979008 -5.6139862426595721 2.7084088347161028 0 1 0 I I #
point $-1 50.834070863979008 -15.800630580514429 2.7084088347160957 #
point $-1 46.098025337603779 -11.227972485319146 2.9827790328937525 #
straight-curve $-1 -50.834070863979008 -5.4782637683809581 28.122080184614848 0 0 -1 I I #
point $-1 -50.834070863979008 -5.4782637683809581 7.7215594960173268 #
straight-curve $-1 -50.834070863979008 -4.4462244922781622 3.8811976996742663 0 -1 0 I I #
point $-1 -50.834070863979008 -5.4782637683809581 3.8811976996742672 #
point $-1 -48.233259574248521 -10.355671220060055 4.9319031210103716 #
point $-1 -48.233259574248521 -7.4292267490525994 4.9319031210103716 #
straight-curve $-1 -50.834070863979008 7.2779521086333014 28.122080184614848 0 0 -1 I I #
point $-1 -50.834070863979008 7.2779521086333014 7.7215594960173268 #
straight-curve $-1 -50.834070863979008 1.9318834462289676 3.8811976996742663 0 -1 0 I I #
point $-1 -50.834070863979008 7.2779521086333014 3.8811976996742672 #
point $-1 -48.233259574248521 2.4005446569542066 4.9319031210103716 #
point $-1 -48.233259574248521 5.3269891279616637 4.9319031210103716 #
straight-curve $-1 -50.834070863979008 20.034167985647564 28.122080184614848 0 0 -1 I I #
point $-1 -50.834070863979008 20.034167985647564 7.7215594960173268 #
straight-curve $-1 -50.834070863979008 8.3099913847360991 3.8811976996742663 0 -1 0 I I #
point $-1 -50.834070863979008 20.034167985647564 3.8811976996742672 #
point $-1 -48.233259574248521 15.15676053396847 4.9319031210103716 #
point $-1 -48.233259574248521 18.083205004975927 4.9319031210103716 #
straight-curve $-1 -49.261881512205001 -29.135403520542265 -7.7215594960173268 -1 0 0 I I #
point $-1 -50.834070863979008 -29.135403520542265 -7.7215594960173268 #
End-of-ACIS-data 