500 0 5 0           
7 Unknown 11 ACIS 5.0 NT 24 Thu Mar 25 15:12:02 1999 
-1 9.9999999999999995e-007 1e-010 
body $-1 $5 $-1 $6 #
body $-1 $7 $-1 $8 #
body $-1 $9 $-1 $10 #
body $-1 $11 $-1 $12 #
body $-1 $13 $-1 $14 #
lump $-1 $-1 $15 $0 #
transform $-1 1 0 0 0 1 0 0 0 1 73.412884914700768 44.037200825247993 10.345590631814831 1 rotate no_reflect no_shear #
lump $-1 $-1 $16 $1 #
transform $-1 1 0 0 0 1 0 0 0 1 73.412884914700768 44.037200825247993 10.345590631814831 1 rotate no_reflect no_shear #
lump $-1 $-1 $17 $2 #
transform $-1 1 0 0 0 1 0 0 0 1 73.412884914700768 44.037200825247993 10.345590631814831 1 rotate no_reflect no_shear #
lump $-1 $-1 $18 $3 #
transform $-1 1 0 0 0 1 0 0 0 1 73.412884914700768 44.037200825247993 10.345590631814831 1 rotate no_reflect no_shear #
lump $-1 $-1 $19 $4 #
transform $-1 1 0 0 0 1 0 0 0 1 73.412884914700768 44.037200825247993 10.345590631814831 1 rotate no_reflect no_shear #
shell $-1 $-1 $-1 $20 $-1 $5 #
shell $-1 $-1 $-1 $21 $-1 $7 #
shell $-1 $-1 $-1 $22 $-1 $9 #
shell $-1 $-1 $-1 $23 $-1 $11 #
shell $-1 $-1 $-1 $24 $-1 $13 #
face $-1 $25 $26 $15 $-1 $27 forward single #
face $-1 $28 $29 $16 $-1 $30 forward single #
face $-1 $31 $32 $17 $-1 $33 reversed single #
face $-1 $34 $35 $18 $-1 $36 forward single #
face $-1 $37 $38 $19 $-1 $39 forward single #
face $-1 $40 $41 $15 $-1 $42 reversed single #
loop $-1 $-1 $43 $20 #
plane-surface $-1 0 0 10.345590631814831 0 0 1 1 0 0 forward_v I I I I #
face $-1 $44 $45 $16 $-1 $46 reversed single #
loop $-1 $-1 $47 $21 #
plane-surface $-1 0 -39.45089665390779 0.042909882623820561 0 0 1 1 0 0 forward_v I I I I #
face $-1 $48 $49 $17 $-1 $50 reversed single #
loop $-1 $-1 $51 $22 #
plane-surface $-1 -52.908717912461981 97.066011570095526 168.32852059059056 -1 0 0 0 0.75470958851134928 0.65605901945558964 forward_v I I I I #
face $-1 $52 $53 $18 $-1 $54 forward single #
loop $-1 $55 $56 $23 #
cone-surface $-1 -67.554551485489682 41.370217465139362 7.4390851825921054 0 -0.75470958851134928 -0.65605901945558964 1 0 0 1 I I 0 1 1 forward I I I I #
face $-1 $57 $58 $19 $-1 $59 forward single #
loop $-1 $60 $61 $24 #
cone-surface $-1 -58.76705134167306 41.370217465139362 7.4390851825921054 0 -0.75470958851134928 -0.65605901945558964 1 0 0 1 I I 0 1 1 forward I I I I #
face $-1 $62 $63 $15 $-1 $64 reversed single #
loop $-1 $-1 $65 $25 #
plane-surface $-1 0 0 -10.345590631814831 0 0 1 1 0 0 forward_v I I I I #
coedge $-1 $66 $67 $68 $69 forward $26 $-1 #
face $-1 $70 $71 $16 $-1 $72 reversed single #
loop $-1 $-1 $73 $28 #
plane-surface $-1 0 -39.45089665390779 -3.1139681498864422 0 0 1 1 0 0 forward_v I I I I #
coedge $-1 $74 $75 $76 $77 reversed $29 $-1 #
face $-1 $78 $79 $17 $-1 $80 reversed single #
loop $-1 $-1 $81 $31 #
plane-surface $-1 -63.160801413581375 -13.744804760714189 72.002150005501292 0 0.75470958851134928 0.65605901945558964 1 0 0 forward_v I I I I #
coedge $-1 $82 $83 $84 $85 reversed $32 $-1 #
face $-1 $-1 $86 $18 $-1 $87 forward single #
loop $-1 $88 $89 $34 #
cone-surface $-1 -67.554551485489682 40.418268106090068 6.6115682508128994 0 -0.75470958851134928 -0.65605901945558964 0.5 0 0 1 I I -0.70710678118654746 0.70710678118654746 0.5 forward I I I I #
loop $-1 $-1 $90 $23 #
coedge $-1 $56 $56 $91 $92 reversed $35 $-1 #
face $-1 $-1 $93 $19 $-1 $94 forward single #
loop $-1 $95 $96 $37 #
cone-surface $-1 -58.76705134167306 40.418268106090068 6.6115682508128994 0 -0.75470958851134928 -0.65605901945558964 0.5 0 0 1 I I -0.70710678118654746 0.70710678118654746 0.5 forward I I I I #
loop $-1 $-1 $97 $24 #
coedge $-1 $61 $61 $98 $99 reversed $38 $-1 #
face $-1 $100 $101 $15 $-1 $102 reversed single #
loop $-1 $-1 $103 $40 #
plane-surface $-1 0 -44.037200825247993 0 0 1 0 0 0 1 forward_v I I I I #
coedge $-1 $104 $105 $106 $107 forward $41 $-1 #
coedge $-1 $108 $43 $109 $110 forward $26 $-1 #
coedge $-1 $43 $108 $111 $112 forward $26 $-1 #
coedge $-1 $113 $114 $43 $69 reversed $115 $-1 #
edge $-1 $116 -44.037200825247993 $117 44.037200825247993 $68 $118 forward 7 unknown #
face $-1 $119 $120 $16 $-1 $121 reversed single #
loop $-1 $-1 $122 $44 #
plane-surface $-1 0 -34.864592482567588 -1.5355291336313108 0 -1 0 0 0 -1 forward_v I I I I #
coedge $-1 $123 $124 $125 $126 reversed $45 $-1 #
coedge $-1 $127 $47 $128 $129 forward $29 $-1 #
coedge $-1 $47 $127 $130 $131 reversed $29 $-1 #
coedge $-1 $132 $133 $47 $77 forward $134 $-1 #
edge $-1 $135 15.139144155613693 $136 24.311752498294098 $76 $137 forward 7 unknown #
face $-1 $138 $139 $17 $-1 $140 forward single #
loop $-1 $-1 $84 $48 #
plane-surface $-1 0 44.037200825247993 0 0 -1 0 0 0 -1 forward_v I I I I #
coedge $-1 $141 $142 $143 $144 reversed $49 $-1 #
coedge $-1 $83 $51 $145 $146 reversed $32 $-1 #
coedge $-1 $51 $82 $141 $147 reversed $32 $-1 #
coedge $-1 $143 $148 $51 $85 forward $79 $-1 #
edge $-1 $149 73.818669663480449 $150 78.632705717823129 $84 $151 forward 7 unknown #
loop $-1 $-1 $91 $52 #
plane-surface $-1 -63.160801413581375 -13.744804760714189 72.002150005501292 0 0.75470958851134928 0.65605901945558964 1 0 0 forward_v I I I I #
loop $-1 $-1 $152 $34 #
coedge $-1 $89 $89 $90 $153 reversed $53 $-1 #
coedge $-1 $90 $90 $89 $153 forward $55 $-1 #
coedge $-1 $91 $91 $56 $92 forward $86 $-1 #
edge $-1 $154 5.8796625141330822e-015 $154 6.2831853071796067 $91 $155 forward 7 unknown #
loop $-1 $-1 $98 $57 #
plane-surface $-1 -63.160801413581375 -13.744804760714189 72.002150005501292 0 0.75470958851134928 0.65605901945558964 1 0 0 forward_v I I I I #
loop $-1 $-1 $156 $37 #
coedge $-1 $96 $96 $97 $157 reversed $58 $-1 #
coedge $-1 $97 $97 $96 $157 forward $60 $-1 #
coedge $-1 $98 $98 $61 $99 forward $93 $-1 #
edge $-1 $158 5.8796625141330822e-015 $158 6.2831853071796067 $98 $159 forward 7 unknown #
face $-1 $160 $161 $15 $-1 $162 reversed single #
loop $-1 $-1 $163 $62 #
plane-surface $-1 -73.412884914700768 0 0 1 0 0 0 0 -1 forward_v I I I I #
coedge $-1 $164 $111 $165 $166 forward $63 $-1 #
coedge $-1 $167 $65 $164 $168 forward $41 $-1 #
coedge $-1 $65 $167 $169 $170 forward $41 $-1 #
coedge $-1 $114 $113 $65 $107 reversed $115 $-1 #
edge $-1 $171 -44.037200825247993 $172 44.037200825247993 $106 $173 forward 7 unknown #
coedge $-1 $67 $66 $174 $175 forward $26 $-1 #
coedge $-1 $176 $177 $66 $110 reversed $161 $-1 #
edge $-1 $117 -73.412884914700768 $178 73.412884914700768 $109 $179 forward 7 unknown #
coedge $-1 $103 $180 $67 $112 reversed $63 $-1 #
edge $-1 $181 -73.412884914700768 $116 73.412884914700768 $111 $182 forward 7 unknown #
coedge $-1 $106 $68 $180 $183 forward $115 $-1 #
coedge $-1 $68 $106 $176 $184 reversed $115 $-1 #
loop $-1 $-1 $113 $160 #
vertex $-1 $69 $185 #
vertex $-1 $69 $186 #
straight-curve $-1 73.412884914700768 0 10.345590631814831 0 1 0 I I #
face $-1 $187 $188 $16 $-1 $189 reversed single #
loop $-1 $-1 $190 $70 #
plane-surface $-1 -73.412884914700768 0 0 1 0 0 0 0 -1 forward_v I I I I #
coedge $-1 $191 $128 $133 $192 reversed $71 $-1 #
coedge $-1 $193 $73 $194 $195 reversed $45 $-1 #
coedge $-1 $73 $193 $191 $196 forward $45 $-1 #
coedge $-1 $133 $132 $73 $126 forward $134 $-1 #
edge $-1 $197 -24.311752498294098 $198 -15.139144155613693 $125 $199 forward 7 unknown #
coedge $-1 $75 $74 $190 $200 reversed $29 $-1 #
coedge $-1 $122 $201 $74 $129 reversed $71 $-1 #
edge $-1 $135 -73.412884914700768 $202 73.412884914700768 $128 $203 forward 7 unknown #
coedge $-1 $204 $205 $75 $131 forward $188 $-1 #
edge $-1 $136 -73.412884914700768 $206 73.412884914700768 $130 $207 forward 7 unknown #
coedge $-1 $125 $76 $205 $208 forward $134 $-1 #
coedge $-1 $76 $125 $122 $192 forward $134 $-1 #
loop $-1 $-1 $76 $187 #
vertex $-1 $77 $209 #
vertex $-1 $208 $210 #
straight-curve $-1 73.412884914700768 -19.725448326953895 0.042909882623820561 0 -1 0 I I #
face $-1 $-1 $211 $17 $-1 $212 reversed single #
loop $-1 $-1 $145 $78 #
plane-surface $-1 0 0 10.345590631814831 0 0 1 1 0 0 forward_v I I I I #
coedge $-1 $213 $81 $83 $147 forward $49 $-1 #
coedge $-1 $81 $213 $214 $215 reversed $49 $-1 #
coedge $-1 $216 $84 $81 $144 forward $79 $-1 #
edge $-1 $150 21.328317205671294 $217 41.832484207910085 $143 $218 forward 7 unknown #
coedge $-1 $219 $220 $82 $146 forward $139 $-1 #
edge $-1 $221 -8.6805825504298113 $149 -4.49580495979977 $145 $222 forward 7 unknown #
edge $-1 $150 -88.074401650496029 $221 -81.695741398095791 $83 $223 forward 7 unknown #
coedge $-1 $84 $216 $219 $224 reversed $79 $-1 #
vertex $-1 $224 $225 #
vertex $-1 $85 $226 #
straight-curve $-1 -52.908717912461981 44.037200825247993 84.164260295295279 0 0 -1 I I #
coedge $-1 $152 $152 $-1 $227 reversed $88 $-1 #
edge $-1 $228 0 $228 6.2831853071796004 $89 $229 forward 7 unknown #
vertex $-1 $92 $230 #
ellipse-curve $-1 -67.554551485489682 41.944812029932955 7.9385726046434932 0 0.75470958851134928 0.65605901945558964 1 0 0 1 I I #
coedge $-1 $156 $156 $-1 $231 reversed $95 $-1 #
edge $-1 $232 0 $232 6.2831853071796004 $96 $233 forward 7 unknown #
vertex $-1 $99 $234 #
ellipse-curve $-1 -58.76705134167306 41.944812029932955 7.9385726046434932 0 0.75470958851134928 0.65605901945558964 1 0 0 1 I I #
face $-1 $-1 $115 $15 $-1 $235 reversed single #
loop $-1 $-1 $176 $100 #
plane-surface $-1 0 44.037200825247993 0 0 -1 0 0 0 -1 forward_v I I I I #
coedge $-1 $236 $174 $177 $237 forward $101 $-1 #
coedge $-1 $180 $103 $104 $168 reversed $63 $-1 #
coedge $-1 $174 $236 $103 $166 reversed $101 $-1 #
edge $-1 $181 -10.345590631814831 $238 10.345590631814831 $165 $239 forward 7 unknown #
coedge $-1 $105 $104 $236 $240 forward $41 $-1 #
edge $-1 $172 -73.412884914700768 $238 73.412884914700768 $164 $241 forward 7 unknown #
coedge $-1 $177 $176 $105 $170 reversed $161 $-1 #
edge $-1 $242 -73.412884914700768 $171 73.412884914700768 $169 $243 forward 7 unknown #
vertex $-1 $107 $244 #
vertex $-1 $183 $245 #
straight-curve $-1 73.412884914700768 0 -10.345590631814831 0 -1 0 I I #
coedge $-1 $163 $165 $108 $175 reversed $101 $-1 #
edge $-1 $178 -44.037200825247993 $181 44.037200825247993 $174 $246 forward 7 unknown #
coedge $-1 $169 $109 $114 $184 forward $161 $-1 #
coedge $-1 $109 $169 $163 $237 reversed $161 $-1 #
vertex $-1 $110 $247 #
straight-curve $-1 0 44.037200825247993 10.345590631814831 -1 0 0 I I #
coedge $-1 $111 $164 $113 $183 reversed $63 $-1 #
vertex $-1 $175 $248 #
straight-curve $-1 0 -44.037200825247993 10.345590631814831 1 0 0 I I #
edge $-1 $116 -10.345590631814831 $172 10.345590631814831 $113 $249 forward 7 unknown #
edge $-1 $117 -10.345590631814831 $171 10.345590631814831 $114 $250 forward 7 unknown #
point $-1 73.412884914700768 -44.037200825247993 10.345590631814831 #
point $-1 73.412884914700768 44.037200825247993 10.345590631814831 #
face $-1 $-1 $134 $16 $-1 $251 reversed single #
loop $-1 $-1 $130 $119 #
plane-surface $-1 0 -44.037200825247993 0 0 1 0 0 0 1 forward_v I I I I #
coedge $-1 $252 $253 $127 $200 forward $120 $-1 #
coedge $-1 $201 $122 $124 $196 reversed $71 $-1 #
edge $-1 $198 -2.3462035830707868 $135 0.81067444943947597 $133 $254 forward 7 unknown #
coedge $-1 $124 $123 $255 $256 reversed $45 $-1 #
coedge $-1 $205 $204 $123 $195 forward $188 $-1 #
edge $-1 $257 -73.412884914700768 $197 73.412884914700768 $194 $258 forward 7 unknown #
edge $-1 $259 -73.412884914700768 $198 73.412884914700768 $191 $260 forward 7 unknown #
vertex $-1 $195 $261 #
vertex $-1 $126 $262 #
straight-curve $-1 73.412884914700768 -19.725448326953895 -3.1139681498864422 0 1 0 I I #
edge $-1 $206 -24.311752498294098 $202 -15.139144155613693 $190 $263 forward 7 unknown #
coedge $-1 $128 $191 $252 $264 reversed $71 $-1 #
vertex $-1 $200 $265 #
straight-curve $-1 0 -34.864592482567588 0.042909882623820561 -1 0 0 I I #
coedge $-1 $194 $130 $253 $266 forward $188 $-1 #
coedge $-1 $130 $194 $132 $208 reversed $188 $-1 #
vertex $-1 $266 $267 #
straight-curve $-1 0 -44.037200825247993 0.042909882623820561 -1 0 0 I I #
edge $-1 $136 -0.042909882623820561 $197 3.1139681498864422 $132 $268 forward 7 unknown #
point $-1 73.412884914700768 -34.864592482567588 0.042909882623820561 #
point $-1 73.412884914700768 -44.037200825247993 0.042909882623820561 #
loop $-1 $-1 $214 $138 #
plane-surface $-1 -73.412884914700768 0 0 1 0 0 0 0 -1 forward_v I I I I #
coedge $-1 $142 $141 $220 $269 reversed $49 $-1 #
coedge $-1 $270 $271 $142 $215 forward $211 $-1 #
edge $-1 $217 -56.395343582242518 $272 -50.01668332984228 $214 $273 forward 7 unknown #
coedge $-1 $148 $143 $271 $274 reversed $79 $-1 #
vertex $-1 $144 $275 #
straight-curve $-1 -31.580400706790687 44.037200825247993 5.5315545774721393 -1 0 0 I I #
coedge $-1 $276 $145 $148 $224 forward $139 $-1 #
coedge $-1 $145 $276 $213 $269 forward $139 $-1 #
vertex $-1 $146 $277 #
straight-curve $-1 -52.908717912461981 48.533005785047763 10.345590631814829 0 1 0 I I #
straight-curve $-1 -52.908717912461981 -13.744804760714189 72.002150005501292 0 -0.65605901945558964 0.75470958851134928 I I #
edge $-1 $149 52.908717912461981 $278 73.412884914700768 $148 $279 forward 7 unknown #
point $-1 -52.908717912461981 44.037200825247993 10.345590631814831 #
point $-1 -52.908717912461981 44.037200825247993 5.53155457747215 #
edge $-1 $280 1 $280 0 $152 $-1 forward 7 unknown #
vertex $-1 $153 $281 #
ellipse-curve $-1 -67.554551485489682 40.795622900345741 6.9395977605406944 0 0.75470958851134928 0.65605901945558964 1 0 0 1 I I #
point $-1 -66.554551485489682 41.94481202993299 7.9385726046435163 #
edge $-1 $282 1 $282 0 $156 $-1 forward 7 unknown #
vertex $-1 $157 $283 #
ellipse-curve $-1 -58.76705134167306 40.795622900345741 6.9395977605406944 0 0.75470958851134928 0.65605901945558964 1 0 0 1 I I #
point $-1 -57.76705134167306 41.94481202993299 7.9385726046435163 #
plane-surface $-1 73.412884914700768 0 0 -1 0 0 0 0 1 forward_v I I I I #
coedge $-1 $165 $163 $167 $240 reversed $101 $-1 #
edge $-1 $178 -10.345590631814831 $242 10.345590631814831 $177 $284 forward 7 unknown #
vertex $-1 $240 $285 #
straight-curve $-1 -73.412884914700768 -44.037200825247993 0 0 0 -1 I I #
edge $-1 $238 -44.037200825247993 $242 44.037200825247993 $236 $286 forward 7 unknown #
straight-curve $-1 0 -44.037200825247993 -10.345590631814831 -1 0 0 I I #
vertex $-1 $170 $287 #
straight-curve $-1 0 44.037200825247993 -10.345590631814831 1 0 0 I I #
point $-1 73.412884914700768 44.037200825247993 -10.345590631814831 #
point $-1 73.412884914700768 -44.037200825247993 -10.345590631814831 #
straight-curve $-1 -73.412884914700768 0 10.345590631814831 0 -1 0 I I #
point $-1 -73.412884914700768 44.037200825247993 10.345590631814831 #
point $-1 -73.412884914700768 -44.037200825247993 10.345590631814831 #
straight-curve $-1 73.412884914700768 -44.037200825247993 0 0 0 -1 I I #
straight-curve $-1 73.412884914700768 44.037200825247993 0 0 0 -1 I I #
plane-surface $-1 73.412884914700768 0 0 -1 0 0 0 0 1 forward_v I I I I #
coedge $-1 $255 $190 $201 $264 forward $120 $-1 #
coedge $-1 $190 $255 $204 $266 reversed $120 $-1 #
straight-curve $-1 73.412884914700768 -34.864592482567588 -0.76776456681565541 0 0 1 I I #
coedge $-1 $253 $252 $193 $256 forward $120 $-1 #
edge $-1 $259 15.139144155613693 $257 24.311752498294098 $255 $288 forward 7 unknown #
vertex $-1 $195 $289 #
straight-curve $-1 0 -44.037200825247993 -3.1139681498864422 1 0 0 I I #
vertex $-1 $256 $290 #
straight-curve $-1 0 -34.864592482567588 -3.1139681498864422 1 0 0 I I #
point $-1 73.412884914700768 -44.037200825247993 -3.1139681498864422 #
point $-1 73.412884914700768 -34.864592482567588 -3.1139681498864422 #
straight-curve $-1 -73.412884914700768 -19.725448326953895 0.042909882623820561 0 1 0 I I #
edge $-1 $202 -0.81067444943947597 $259 2.3462035830707868 $252 $291 forward 7 unknown #
point $-1 -73.412884914700768 -34.864592482567588 0.042909882623820561 #
edge $-1 $206 -0.042909882623820561 $257 3.1139681498864422 $253 $292 forward 7 unknown #
point $-1 -73.412884914700768 -44.037200825247993 0.042909882623820561 #
straight-curve $-1 73.412884914700768 -44.037200825247993 0 0 0 -1 I I #
edge $-1 $272 -41.832484207910085 $221 -21.328317205671294 $220 $293 forward 7 unknown #
coedge $-1 $271 $214 $276 $294 reversed $211 $-1 #
coedge $-1 $214 $270 $216 $274 forward $211 $-1 #
vertex $-1 $215 $295 #
straight-curve $-1 -73.412884914700768 7.0385270128208877 48.09366112638255 0 -0.65605901945558975 0.75470958851134939 I I #
edge $-1 $278 -10.345590631814831 $217 -5.5315545774721446 $216 $296 forward 7 unknown #
point $-1 -73.412884914700768 44.037200825247993 5.5315545774721446 #
coedge $-1 $220 $219 $270 $294 forward $139 $-1 #
point $-1 -52.908717912461981 39.852423234617952 10.345590631814829 #
vertex $-1 $224 $297 #
straight-curve $-1 0 44.037200825247993 10.345590631814831 -1 0 0 I I #
vertex $-1 $227 $298 #
point $-1 -66.554551485489682 40.795622900345741 6.9395977605406944 #
vertex $-1 $231 $299 #
point $-1 -57.76705134167306 40.795622900345741 6.9395977605406944 #
straight-curve $-1 -73.412884914700768 44.037200825247993 0 0 0 -1 I I #
point $-1 -73.412884914700768 -44.037200825247993 -10.345590631814831 #
straight-curve $-1 -73.412884914700768 0 -10.345590631814831 0 1 0 I I #
point $-1 -73.412884914700768 44.037200825247993 -10.345590631814831 #
straight-curve $-1 -73.412884914700768 -19.725448326953895 -3.1139681498864422 0 -1 0 I I #
point $-1 -73.412884914700768 -44.037200825247993 -3.1139681498864422 #
point $-1 -73.412884914700768 -34.864592482567588 -3.1139681498864422 #
straight-curve $-1 -73.412884914700768 -34.864592482567588 -0.76776456681565541 0 0 -1 I I #
straight-curve $-1 -73.412884914700768 -44.037200825247993 0 0 0 -1 I I #
straight-curve $-1 -31.580400706790687 39.852423234617945 10.345590631814822 1 0 0 I I #
edge $-1 $278 -44.037200825247993 $272 -39.852423234617952 $270 $300 forward 7 unknown #
point $-1 -73.412884914700768 39.852423234617952 10.345590631814829 #
straight-curve $-1 -73.412884914700768 44.037200825247993 0 0 0 -1 I I #
point $-1 -73.412884914700768 44.037200825247993 10.345590631814831 #
point $-1 -67.554551485489682 40.040913311834395 6.2835387410851045 #
point $-1 -58.76705134167306 40.040913311834395 6.2835387410851045 #
straight-curve $-1 -73.412884914700768 0 10.345590631814831 0 -1 0 I I #
End-of-ACIS-data 