500 0 5 0           
7 Unknown 11 ACIS 5.0 NT 24 Fri Mar 26 01:56:57 1999 
-1 9.9999999999999995e-007 1e-010 
body $-1 $5 $-1 $6 #
body $-1 $7 $-1 $8 #
body $-1 $9 $-1 $10 #
body $-1 $11 $-1 $12 #
body $-1 $13 $-1 $14 #
lump $-1 $-1 $15 $0 #
transform $-1 1 0 0 0 1 0 0 0 1 64.287850581377597 33.789429007312272 6.9295811025189291 1 rotate no_reflect no_shear #
lump $-1 $-1 $16 $1 #
transform $-1 1 0 0 0 1 0 0 0 1 64.287850581377597 33.789429007312272 6.9295811025189291 1 rotate no_reflect no_shear #
lump $-1 $-1 $17 $2 #
transform $-1 1 0 0 0 1 0 0 0 1 64.287850581377597 33.789429007312272 6.9295811025189291 1 rotate no_reflect no_shear #
lump $-1 $-1 $18 $3 #
transform $-1 1 0 0 0 1 0 0 0 1 64.287850581377597 33.789429007312272 6.9295811025189291 1 rotate no_reflect no_shear #
lump $-1 $-1 $19 $4 #
transform $-1 1 0 0 0 1 0 0 0 1 64.287850581377597 33.789429007312272 6.9295811025189291 1 rotate no_reflect no_shear #
shell $-1 $-1 $-1 $20 $-1 $5 #
shell $-1 $-1 $-1 $21 $-1 $7 #
shell $-1 $-1 $-1 $22 $-1 $9 #
shell $-1 $-1 $-1 $23 $-1 $11 #
shell $-1 $-1 $-1 $24 $-1 $13 #
face $-1 $25 $26 $15 $-1 $27 forward single #
face $-1 $28 $29 $16 $-1 $30 forward single #
face $-1 $31 $32 $17 $-1 $33 reversed single #
face $-1 $34 $35 $18 $-1 $36 forward single #
face $-1 $37 $38 $19 $-1 $39 reversed single #
face $-1 $40 $41 $15 $-1 $42 reversed single #
loop $-1 $-1 $43 $20 #
plane-surface $-1 0 0 6.9295811025189291 0 0 1 1 0 0 forward_v I I I I #
face $-1 $44 $45 $16 $-1 $46 forward single #
loop $-1 $-1 $47 $21 #
plane-surface $-1 -136.18647116480921 -30.82241525176202 109.306909028738 0 1 0 -0.55919291073839883 0 0.82903756765294845 forward_v I I I I #
face $-1 $48 $49 $17 $-1 $50 reversed single #
loop $-1 $51 $52 $22 #
cone-surface $-1 -60.258188754532 -23.953572006493701 3.481172760361714 0.55919291073839883 0 -0.82903756765294845 1.2435563514794228 0 0.83878936610759824 1 I I 0 1 1.5 forward I I I I #
face $-1 $53 $54 $18 $-1 $55 forward single #
loop $-1 $-1 $56 $23 #
plane-surface $-1 -136.18647116480921 2.9670137555502514 109.306909028738 0 1 0 -0.55919291073839883 0 0.82903756765294845 forward_v I I I I #
face $-1 $57 $58 $19 $-1 $59 reversed single #
loop $-1 $60 $61 $24 #
cone-surface $-1 -60.258188754532 9.8358570008185708 3.481172760361714 0.55919291073839883 0 -0.82903756765294845 1.2435563514794228 0 0.83878936610759824 1 I I 0 1 1.5 forward I I I I #
face $-1 $62 $63 $15 $-1 $64 reversed single #
loop $-1 $-1 $65 $25 #
plane-surface $-1 0 0 -6.9295811025189291 0 0 1 1 0 0 forward_v I I I I #
coedge $-1 $66 $67 $68 $69 forward $26 $-1 #
face $-1 $70 $71 $16 $-1 $72 forward single #
loop $-1 $-1 $73 $28 #
plane-surface $-1 -64.287850581377597 -23.953572006493701 2.7128224774950667 -0.55919291073839883 0 0.82903756765294845 0.82903756765294845 0 0.55919291073839883 forward_v I I I I #
coedge $-1 $74 $75 $76 $77 reversed $29 $-1 #
face $-1 $78 $79 $17 $-1 $80 forward single #
loop $-1 $81 $82 $31 #
cone-surface $-1 -58.934933061074652 -23.953572006493701 1.5193655549767211 0.55919291073839883 0 -0.82903756765294845 0.62177817573971139 0 0.41939468305379912 1 I I -0.70710678118654757 0.70710678118654757 0.75 forward I I I I #
loop $-1 $-1 $83 $22 #
coedge $-1 $52 $52 $84 $85 reversed $32 $-1 #
face $-1 $86 $87 $18 $-1 $88 forward single #
loop $-1 $-1 $89 $34 #
plane-surface $-1 -64.287850581377597 9.8358570008185708 2.7128224774950667 -0.55919291073839883 0 0.82903756765294845 0.82903756765294845 0 0.55919291073839883 forward_v I I I I #
coedge $-1 $90 $91 $92 $93 reversed $35 $-1 #
face $-1 $94 $95 $19 $-1 $96 forward single #
loop $-1 $97 $98 $37 #
cone-surface $-1 -58.934933061074652 9.8358570008185708 1.5193655549767211 0.55919291073839883 0 -0.82903756765294845 0.62177817573971139 0 0.41939468305379912 1 I I -0.70710678118654757 0.70710678118654757 0.75 forward I I I I #
loop $-1 $-1 $99 $24 #
coedge $-1 $61 $61 $100 $101 reversed $38 $-1 #
face $-1 $102 $103 $15 $-1 $104 reversed single #
loop $-1 $-1 $105 $40 #
plane-surface $-1 0 -33.789429007312272 0 0 1 0 0 0 1 forward_v I I I I #
coedge $-1 $106 $107 $108 $109 forward $41 $-1 #
coedge $-1 $110 $43 $111 $112 forward $26 $-1 #
coedge $-1 $43 $110 $113 $114 forward $26 $-1 #
coedge $-1 $115 $116 $43 $69 reversed $117 $-1 #
edge $-1 $118 -33.789429007312272 $119 33.789429007312272 $68 $120 forward 7 unknown #
face $-1 $121 $122 $16 $-1 $123 forward single #
loop $-1 $-1 $124 $44 #
plane-surface $-1 -136.18647116480921 -17.084728761225382 109.306909028738 0 -1 0 0.55919291073839883 0 -0.82903756765294845 forward_v I I I I #
coedge $-1 $125 $126 $127 $128 reversed $45 $-1 #
coedge $-1 $75 $47 $126 $129 forward $29 $-1 #
coedge $-1 $47 $74 $130 $131 reversed $29 $-1 #
coedge $-1 $132 $127 $47 $77 forward $122 $-1 #
edge $-1 $133 -10.05698663391108 $134 -3.8053850010270054 $76 $135 forward 7 unknown #
face $-1 $136 $137 $17 $-1 $138 forward single #
loop $-1 $-1 $139 $48 #
plane-surface $-1 -136.18647116480921 -30.82241525176202 109.306909028738 0 1 0 -0.55919291073839883 0 0.82903756765294845 forward_v I I I I #
loop $-1 $-1 $140 $31 #
coedge $-1 $82 $82 $83 $141 forward $49 $-1 #
coedge $-1 $83 $83 $82 $141 reversed $51 $-1 #
coedge $-1 $84 $84 $52 $85 forward $137 $-1 #
edge $-1 $142 0 $142 6.2831853071796004 $84 $143 forward 7 unknown #
face $-1 $144 $145 $18 $-1 $146 forward single #
loop $-1 $-1 $147 $53 #
plane-surface $-1 -136.18647116480921 16.70470024608689 109.306909028738 0 -1 0 0.55919291073839883 0 -0.82903756765294845 forward_v I I I I #
coedge $-1 $148 $149 $150 $151 reversed $54 $-1 #
coedge $-1 $91 $56 $149 $152 forward $35 $-1 #
coedge $-1 $56 $90 $153 $154 reversed $35 $-1 #
coedge $-1 $155 $150 $56 $93 forward $145 $-1 #
edge $-1 $156 -10.05698663391108 $157 -3.8053850010270054 $92 $158 forward 7 unknown #
face $-1 $159 $160 $19 $-1 $161 forward single #
loop $-1 $-1 $162 $57 #
plane-surface $-1 -136.18647116480921 2.9670137555502514 109.306909028738 0 1 0 -0.55919291073839883 0 0.82903756765294845 forward_v I I I I #
loop $-1 $-1 $163 $37 #
coedge $-1 $98 $98 $99 $164 forward $58 $-1 #
coedge $-1 $99 $99 $98 $164 reversed $60 $-1 #
coedge $-1 $100 $100 $61 $101 forward $160 $-1 #
edge $-1 $165 0 $165 6.2831853071796004 $100 $166 forward 7 unknown #
face $-1 $167 $168 $15 $-1 $169 reversed single #
loop $-1 $-1 $170 $62 #
plane-surface $-1 -64.287850581377597 0 0 1 0 0 0 0 -1 forward_v I I I I #
coedge $-1 $171 $113 $172 $173 forward $63 $-1 #
coedge $-1 $174 $65 $171 $175 forward $41 $-1 #
coedge $-1 $65 $174 $176 $177 forward $41 $-1 #
coedge $-1 $116 $115 $65 $109 reversed $117 $-1 #
edge $-1 $178 -33.789429007312272 $179 33.789429007312272 $108 $180 forward 7 unknown #
coedge $-1 $67 $66 $181 $182 forward $26 $-1 #
coedge $-1 $183 $184 $66 $112 reversed $168 $-1 #
edge $-1 $119 -64.287850581377597 $185 64.287850581377597 $111 $186 forward 7 unknown #
coedge $-1 $105 $187 $67 $114 reversed $63 $-1 #
edge $-1 $188 -64.287850581377597 $118 64.287850581377597 $113 $189 forward 7 unknown #
coedge $-1 $108 $68 $187 $190 forward $117 $-1 #
coedge $-1 $68 $108 $183 $191 reversed $117 $-1 #
loop $-1 $-1 $115 $167 #
vertex $-1 $69 $192 #
vertex $-1 $69 $193 #
straight-curve $-1 64.287850581377597 0 6.9295811025189291 0 1 0 I I #
face $-1 $194 $195 $16 $-1 $196 reversed single #
loop $-1 $-1 $197 $70 #
plane-surface $-1 0 0 6.9295811025189291 0 0 1 1 0 0 forward_v I I I I #
coedge $-1 $198 $199 $197 $200 reversed $71 $-1 #
coedge $-1 $201 $73 $199 $202 reversed $45 $-1 #
coedge $-1 $73 $201 $74 $129 reversed $45 $-1 #
coedge $-1 $76 $197 $73 $128 forward $122 $-1 #
edge $-1 $203 5.107942757978531 $133 18.84562924851517 $127 $204 forward 7 unknown #
edge $-1 $133 -7.5407941410697568 $205 0 $74 $206 forward 7 unknown #
coedge $-1 $207 $208 $75 $131 forward $209 $-1 #
edge $-1 $134 47.723873411850072 $205 51.940632036873936 $130 $210 forward 7 unknown #
coedge $-1 $211 $76 $208 $212 forward $122 $-1 #
vertex $-1 $128 $213 #
vertex $-1 $212 $214 #
straight-curve $-1 -68.093235582404603 -30.82241525176202 6.9295811025189309 -1 0 0 I I #
face $-1 $215 $216 $17 $-1 $217 forward single #
loop $-1 $218 $84 $78 #
plane-surface $-1 -64.287850581377597 -23.953572006493701 2.7128224774950667 -0.55919291073839883 0 0.82903756765294845 0.82903756765294845 0 0.55919291073839883 forward_v I I I I #
coedge $-1 $219 $220 $221 $222 reversed $79 $-1 #
coedge $-1 $140 $140 $-1 $223 forward $81 $-1 #
edge $-1 $224 0 $224 6.2831853071796004 $82 $225 forward 7 unknown #
vertex $-1 $85 $226 #
ellipse-curve $-1 -61.162049764935553 -23.953572006493701 4.8212017900070006 0.55919291073839883 0 -0.82903756765294845 1.2435563514794228 0 0.83878936610759824 1 I I #
face $-1 $227 $228 $18 $-1 $229 reversed single #
loop $-1 $-1 $230 $86 #
plane-surface $-1 0 0 6.9295811025189291 0 0 1 1 0 0 forward_v I I I I #
coedge $-1 $231 $232 $230 $233 reversed $87 $-1 #
coedge $-1 $234 $89 $232 $235 reversed $54 $-1 #
coedge $-1 $89 $234 $90 $152 reversed $54 $-1 #
coedge $-1 $92 $230 $89 $151 forward $145 $-1 #
edge $-1 $236 -11.786771745677605 $156 1.950914744859034 $150 $237 forward 7 unknown #
edge $-1 $156 -7.5407941410697568 $238 0 $90 $239 forward 7 unknown #
coedge $-1 $240 $241 $91 $154 forward $242 $-1 #
edge $-1 $157 47.723873411850072 $238 51.940632036873936 $153 $243 forward 7 unknown #
coedge $-1 $244 $92 $241 $245 forward $145 $-1 #
vertex $-1 $151 $246 #
vertex $-1 $245 $247 #
straight-curve $-1 -68.093235582404603 2.9670137555502514 6.9295811025189309 -1 0 0 I I #
face $-1 $248 $249 $19 $-1 $250 forward single #
loop $-1 $251 $100 $94 #
plane-surface $-1 -64.287850581377597 9.8358570008185708 2.7128224774950667 -0.55919291073839883 0 0.82903756765294845 0.82903756765294845 0 0.55919291073839883 forward_v I I I I #
coedge $-1 $252 $253 $254 $255 reversed $95 $-1 #
coedge $-1 $163 $163 $-1 $256 forward $97 $-1 #
edge $-1 $257 0 $257 6.2831853071796004 $98 $258 forward 7 unknown #
vertex $-1 $101 $259 #
ellipse-curve $-1 -61.162049764935553 9.8358570008185708 4.8212017900070006 0.55919291073839883 0 -0.82903756765294845 1.2435563514794228 0 0.83878936610759824 1 I I #
face $-1 $-1 $117 $15 $-1 $260 reversed single #
loop $-1 $-1 $183 $102 #
plane-surface $-1 0 33.789429007312272 0 0 -1 0 0 0 -1 forward_v I I I I #
coedge $-1 $261 $181 $184 $262 forward $103 $-1 #
coedge $-1 $187 $105 $106 $175 reversed $63 $-1 #
coedge $-1 $181 $261 $105 $173 reversed $103 $-1 #
edge $-1 $188 -6.9295811025189291 $263 6.9295811025189291 $172 $264 forward 7 unknown #
coedge $-1 $107 $106 $261 $265 forward $41 $-1 #
edge $-1 $179 -64.287850581377597 $263 64.287850581377597 $171 $266 forward 7 unknown #
coedge $-1 $184 $183 $107 $177 reversed $168 $-1 #
edge $-1 $267 -64.287850581377597 $178 64.287850581377597 $176 $268 forward 7 unknown #
vertex $-1 $109 $269 #
vertex $-1 $190 $270 #
straight-curve $-1 64.287850581377597 0 -6.9295811025189291 0 -1 0 I I #
coedge $-1 $170 $172 $110 $182 reversed $103 $-1 #
edge $-1 $185 -33.789429007312272 $188 33.789429007312272 $181 $271 forward 7 unknown #
coedge $-1 $176 $111 $116 $191 forward $168 $-1 #
coedge $-1 $111 $176 $170 $262 reversed $168 $-1 #
vertex $-1 $112 $272 #
straight-curve $-1 0 33.789429007312272 6.9295811025189291 -1 0 0 I I #
coedge $-1 $113 $171 $115 $190 reversed $63 $-1 #
vertex $-1 $182 $273 #
straight-curve $-1 0 -33.789429007312272 6.9295811025189291 1 0 0 I I #
edge $-1 $118 -6.9295811025189291 $179 6.9295811025189291 $115 $274 forward 7 unknown #
edge $-1 $119 -6.9295811025189291 $178 6.9295811025189291 $116 $275 forward 7 unknown #
point $-1 64.287850581377597 -33.789429007312272 6.9295811025189291 #
point $-1 64.287850581377597 33.789429007312272 6.9295811025189291 #
face $-1 $276 $277 $16 $-1 $278 reversed single #
loop $-1 $-1 $279 $121 #
plane-surface $-1 0 0 -6.9295811025189291 0 0 1 1 0 0 forward_v I I I I #
coedge $-1 $127 $280 $124 $200 forward $122 $-1 #
coedge $-1 $199 $124 $281 $282 reversed $71 $-1 #
coedge $-1 $124 $198 $125 $202 forward $71 $-1 #
edge $-1 $283 3.8053850010270054 $203 10.05698663391108 $197 $284 forward 7 unknown #
coedge $-1 $126 $125 $207 $285 reversed $45 $-1 #
edge $-1 $286 0 $203 7.5407941410697568 $199 $287 forward 7 unknown #
vertex $-1 $128 $288 #
straight-curve $-1 -58.036248948493522 -11.97678600324685 6.9295811025189291 0 -1 0 I I #
vertex $-1 $285 $289 #
straight-curve $-1 -64.287850581377597 -30.82241525176202 2.7128224774950667 -0.82903756765294845 0 -0.55919291073839883 I I #
coedge $-1 $281 $130 $201 $285 forward $209 $-1 #
coedge $-1 $130 $290 $132 $212 reversed $209 $-1 #
loop $-1 $-1 $281 $276 #
straight-curve $-1 -64.287850581377597 -30.82241525176202 54.653454514369002 0 0 -1 I I #
coedge $-1 $291 $132 $292 $293 forward $122 $-1 #
edge $-1 $134 30.82241525176202 $294 33.789429007312272 $208 $295 forward 7 unknown #
point $-1 -58.036248948493522 -30.82241525176202 6.9295811025189291 #
point $-1 -64.287850581377597 -30.82241525176202 6.9295811025189291 #
face $-1 $296 $297 $17 $-1 $298 forward single #
loop $-1 $-1 $299 $136 #
plane-surface $-1 -136.18647116480921 -17.084728761225382 109.306909028738 0 -1 0 0.55919291073839883 0 -0.82903756765294845 forward_v I I I I #
loop $-1 $-1 $300 $78 #
coedge $-1 $220 $139 $301 $302 forward $79 $-1 #
coedge $-1 $139 $219 $303 $304 reversed $79 $-1 #
coedge $-1 $305 $306 $139 $222 forward $297 $-1 #
edge $-1 $307 -10.05698663391108 $308 -3.8053850010270054 $221 $309 forward 7 unknown #
edge $-1 $310 1 $310 0 $140 $-1 forward 7 unknown #
vertex $-1 $141 $311 #
ellipse-curve $-1 -59.354327744128454 -23.953572006493701 2.1411437307164327 -0.55919291073839883 0 0.82903756765294845 1.2435563514794228 0 0.83878936610759824 1 I I #
point $-1 -59.918493413456133 -23.953572006493701 5.6599911561145939 #
face $-1 $312 $313 $18 $-1 $314 reversed single #
loop $-1 $315 $316 $144 #
cone-surface $-1 -60.258188754532 -23.953572006493701 3.481172760361714 0.55919291073839883 0 -0.82903756765294845 1.2435563514794228 0 0.83878936610759824 1 I I 0 1 1.5 forward I I I I #
coedge $-1 $150 $317 $147 $233 forward $145 $-1 #
coedge $-1 $232 $147 $318 $319 reversed $87 $-1 #
coedge $-1 $147 $231 $148 $235 forward $87 $-1 #
edge $-1 $320 3.8053850010270054 $236 10.05698663391108 $230 $321 forward 7 unknown #
coedge $-1 $149 $148 $240 $322 reversed $54 $-1 #
edge $-1 $323 0 $236 7.5407941410697568 $232 $324 forward 7 unknown #
vertex $-1 $151 $325 #
straight-curve $-1 -58.036248948493522 4.9179285004092854 6.9295811025189291 0 -1 0 I I #
vertex $-1 $322 $326 #
straight-curve $-1 -64.287850581377597 2.9670137555502514 2.7128224774950667 -0.82903756765294845 0 -0.55919291073839883 I I #
coedge $-1 $318 $153 $234 $322 forward $242 $-1 #
coedge $-1 $153 $327 $155 $245 reversed $242 $-1 #
loop $-1 $-1 $318 $328 #
straight-curve $-1 -64.287850581377597 2.9670137555502514 54.653454514369002 0 0 -1 I I #
coedge $-1 $329 $155 $330 $331 forward $145 $-1 #
edge $-1 $157 -2.9670137555502514 $332 17.084728761225382 $241 $333 forward 7 unknown #
point $-1 -58.036248948493522 2.9670137555502514 6.9295811025189291 #
point $-1 -64.287850581377597 2.9670137555502514 6.9295811025189291 #
face $-1 $334 $335 $19 $-1 $336 forward single #
loop $-1 $-1 $337 $159 #
plane-surface $-1 -136.18647116480921 16.70470024608689 109.306909028738 0 -1 0 0.55919291073839883 0 -0.82903756765294845 forward_v I I I I #
loop $-1 $-1 $338 $94 #
coedge $-1 $253 $162 $339 $340 forward $95 $-1 #
coedge $-1 $162 $252 $341 $342 reversed $95 $-1 #
coedge $-1 $343 $344 $162 $255 forward $335 $-1 #
edge $-1 $345 -10.05698663391108 $346 -3.8053850010270054 $254 $347 forward 7 unknown #
edge $-1 $348 1 $348 0 $163 $-1 forward 7 unknown #
vertex $-1 $164 $349 #
ellipse-curve $-1 -59.354327744128454 9.8358570008185708 2.1411437307164327 -0.55919291073839883 0 0.82903756765294845 1.2435563514794228 0 0.83878936610759824 1 I I #
point $-1 -59.918493413456133 9.8358570008185708 5.6599911561145939 #
plane-surface $-1 64.287850581377597 0 0 -1 0 0 0 0 1 forward_v I I I I #
coedge $-1 $172 $170 $174 $265 reversed $103 $-1 #
edge $-1 $185 -6.9295811025189291 $267 6.9295811025189291 $184 $350 forward 7 unknown #
vertex $-1 $265 $351 #
straight-curve $-1 -64.287850581377597 -33.789429007312272 0 0 0 -1 I I #
edge $-1 $263 -33.789429007312272 $267 33.789429007312272 $261 $352 forward 7 unknown #
straight-curve $-1 0 -33.789429007312272 -6.9295811025189291 -1 0 0 I I #
vertex $-1 $177 $353 #
straight-curve $-1 0 33.789429007312272 -6.9295811025189291 1 0 0 I I #
point $-1 64.287850581377597 33.789429007312272 -6.9295811025189291 #
point $-1 64.287850581377597 -33.789429007312272 -6.9295811025189291 #
straight-curve $-1 -64.287850581377597 0 6.9295811025189291 0 -1 0 I I #
point $-1 -64.287850581377597 33.789429007312272 6.9295811025189291 #
point $-1 -64.287850581377597 -33.789429007312272 6.9295811025189291 #
straight-curve $-1 64.287850581377597 -33.789429007312272 0 0 0 -1 I I #
straight-curve $-1 64.287850581377597 33.789429007312272 0 0 0 -1 I I #
face $-1 $354 $209 $16 $-1 $355 reversed single #
loop $-1 $-1 $356 $194 #
plane-surface $-1 0 -33.789429007312272 0 0 1 0 0 0 1 forward_v I I I I #
coedge $-1 $357 $358 $359 $360 forward $195 $-1 #
coedge $-1 $197 $361 $362 $363 forward $122 $-1 #
coedge $-1 $362 $207 $198 $282 forward $209 $-1 #
edge $-1 $286 -51.940632036873936 $283 -47.723873411850072 $281 $364 forward 7 unknown #
vertex $-1 $282 $365 #
straight-curve $-1 -68.093235582404603 -17.084728761225382 6.9295811025189309 1 0 0 I I #
edge $-1 $205 -18.84562924851517 $286 -5.107942757978531 $207 $366 forward 7 unknown #
vertex $-1 $285 $367 #
straight-curve $-1 -64.287850581377597 -17.084728761225382 2.7128224774950667 0.82903756765294845 0 0.55919291073839883 I I #
point $-1 -58.036248948493522 -17.084728761225382 6.9295811025189291 #
point $-1 -64.287850581377597 -30.82241525176202 2.7128224774950667 #
coedge $-1 $208 $368 $356 $369 reversed $209 $-1 #
coedge $-1 $361 $211 $370 $371 forward $122 $-1 #
coedge $-1 $356 $372 $211 $293 reversed $277 $-1 #
edge $-1 $294 -64.287850581377597 $373 64.287850581377597 $292 $374 forward 7 unknown #
vertex $-1 $212 $375 #
straight-curve $-1 -64.287850581377597 0 6.9295811025189291 0 -1 0 I I #
face $-1 $376 $377 $17 $-1 $378 reversed single #
loop $-1 $-1 $379 $215 #
plane-surface $-1 0 0 6.9295811025189291 0 0 1 1 0 0 forward_v I I I I #
coedge $-1 $380 $381 $379 $382 reversed $216 $-1 #
coedge $-1 $383 $301 $306 $384 reversed $218 $-1 #
coedge $-1 $300 $385 $219 $302 reversed $218 $-1 #
edge $-1 $307 -7.5407941410697568 $386 0 $219 $387 forward 7 unknown #
coedge $-1 $388 $389 $220 $304 forward $390 $-1 #
edge $-1 $308 47.723873411850072 $386 51.940632036873936 $303 $391 forward 7 unknown #
coedge $-1 $392 $221 $389 $393 forward $297 $-1 #
coedge $-1 $221 $379 $300 $384 forward $297 $-1 #
vertex $-1 $384 $394 #
vertex $-1 $393 $395 #
straight-curve $-1 -68.093235582404603 -30.82241525176202 6.9295811025189309 -1 0 0 I I #
vertex $-1 $223 $396 #
point $-1 -58.110771392649028 -23.953572006493701 2.9799330968240305 #
face $-1 $397 $398 $18 $-1 $399 forward single #
loop $-1 $400 $401 $227 #
cone-surface $-1 -58.934933061074652 -23.953572006493701 1.5193655549767211 0.55919291073839883 0 -0.82903756765294845 0.62177817573971139 0 0.41939468305379912 1 I I -0.70710678118654757 0.70710678118654757 0.75 forward I I I I #
loop $-1 $-1 $402 $144 #
coedge $-1 $316 $316 $403 $404 reversed $228 $-1 #
coedge $-1 $230 $405 $406 $407 forward $145 $-1 #
coedge $-1 $406 $240 $231 $319 forward $242 $-1 #
edge $-1 $323 -51.940632036873936 $320 -47.723873411850072 $318 $408 forward 7 unknown #
vertex $-1 $319 $409 #
straight-curve $-1 -68.093235582404603 16.70470024608689 6.9295811025189309 1 0 0 I I #
edge $-1 $238 -1.950914744859034 $323 11.786771745677605 $240 $410 forward 7 unknown #
vertex $-1 $322 $411 #
straight-curve $-1 -64.287850581377597 16.70470024608689 2.7128224774950667 0.82903756765294845 0 0.55919291073839883 I I #
point $-1 -58.036248948493522 16.70470024608689 6.9295811025189291 #
point $-1 -64.287850581377597 2.9670137555502514 2.7128224774950667 #
coedge $-1 $241 $412 $413 $414 forward $242 $-1 #
face $-1 $415 $242 $18 $-1 $416 reversed single #
coedge $-1 $417 $244 $418 $419 forward $145 $-1 #
coedge $-1 $413 $420 $244 $331 reversed $421 $-1 #
edge $-1 $332 3.8053850010270054 $422 10.05698663391108 $244 $423 forward 7 unknown #
vertex $-1 $414 $424 #
straight-curve $-1 -64.287850581377597 0 6.9295811025189291 0 -1 0 I I #
face $-1 $425 $426 $19 $-1 $427 reversed single #
loop $-1 $-1 $428 $248 #
plane-surface $-1 0 0 6.9295811025189291 0 0 1 1 0 0 forward_v I I I I #
coedge $-1 $429 $430 $428 $431 reversed $249 $-1 #
coedge $-1 $432 $339 $344 $433 reversed $251 $-1 #
coedge $-1 $338 $434 $252 $340 reversed $251 $-1 #
edge $-1 $345 -7.5407941410697568 $435 0 $252 $436 forward 7 unknown #
coedge $-1 $437 $438 $253 $342 forward $439 $-1 #
edge $-1 $346 47.723873411850072 $435 51.940632036873936 $341 $440 forward 7 unknown #
coedge $-1 $441 $254 $438 $442 forward $335 $-1 #
coedge $-1 $254 $428 $338 $433 forward $335 $-1 #
vertex $-1 $433 $443 #
vertex $-1 $442 $444 #
straight-curve $-1 -68.093235582404603 2.9670137555502514 6.9295811025189309 -1 0 0 I I #
vertex $-1 $256 $445 #
point $-1 -58.110771392649028 9.8358570008185708 2.9799330968240305 #
straight-curve $-1 -64.287850581377597 33.789429007312272 0 0 0 -1 I I #
point $-1 -64.287850581377597 -33.789429007312272 -6.9295811025189291 #
straight-curve $-1 -64.287850581377597 0 -6.9295811025189291 0 1 0 I I #
point $-1 -64.287850581377597 33.789429007312272 -6.9295811025189291 #
face $-1 $446 $447 $16 $-1 $448 reversed single #
plane-surface $-1 -64.287850581377597 0 0 1 0 0 0 0 -1 forward_v I I I I #
coedge $-1 $449 $292 $290 $369 forward $277 $-1 #
coedge $-1 $450 $279 $449 $451 forward $195 $-1 #
coedge $-1 $279 $450 $452 $453 forward $195 $-1 #
coedge $-1 $454 $455 $279 $360 reversed $456 $-1 #
edge $-1 $457 -33.789429007312272 $458 33.789429007312272 $359 $459 forward 7 unknown #
coedge $-1 $280 $291 $460 $461 forward $122 $-1 #
coedge $-1 $462 $281 $280 $363 reversed $209 $-1 #
edge $-1 $463 -33.789429007312272 $283 17.084728761225382 $362 $295 forward 7 unknown #
straight-curve $-1 -64.287850581377597 -17.084728761225382 54.653454514369002 0 0 1 I I #
point $-1 -64.287850581377597 -17.084728761225382 6.9295811025189291 #
straight-curve $-1 -64.287850581377597 -11.97678600324685 2.7128224774950649 0 1 0 I I #
point $-1 -64.287850581377597 -17.084728761225382 2.7128224774950667 #
coedge $-1 $290 $462 $450 $464 reversed $209 $-1 #
edge $-1 $294 -6.9295811025189291 $465 6.9295811025189291 $290 $466 forward 7 unknown #
coedge $-1 $455 $454 $291 $371 reversed $456 $-1 #
edge $-1 $373 -33.789429007312272 $467 33.789429007312272 $370 $468 forward 7 unknown #
coedge $-1 $292 $449 $455 $469 reversed $277 $-1 #
vertex $-1 $371 $470 #
straight-curve $-1 0 -33.789429007312272 6.9295811025189291 1 0 0 I I #
point $-1 -64.287850581377597 -33.789429007312272 6.9295811025189291 #
face $-1 $471 $472 $17 $-1 $473 reversed single #
loop $-1 $-1 $474 $296 #
plane-surface $-1 0 0 -6.9295811025189291 0 0 1 1 0 0 forward_v I I I I #
coedge $-1 $306 $475 $299 $382 forward $297 $-1 #
coedge $-1 $381 $299 $476 $477 reversed $216 $-1 #
coedge $-1 $299 $380 $383 $478 forward $216 $-1 #
edge $-1 $479 3.8053850010270054 $480 10.05698663391108 $379 $481 forward 7 unknown #
coedge $-1 $385 $300 $381 $478 reversed $218 $-1 #
edge $-1 $480 5.107942757978531 $307 18.84562924851517 $306 $482 forward 7 unknown #
coedge $-1 $301 $383 $388 $483 reversed $218 $-1 #
vertex $-1 $483 $484 #
straight-curve $-1 -64.287850581377597 -30.82241525176202 2.7128224774950667 -0.82903756765294845 0 -0.55919291073839883 I I #
coedge $-1 $476 $303 $385 $483 forward $390 $-1 #
coedge $-1 $303 $485 $305 $393 reversed $390 $-1 #
loop $-1 $-1 $476 $471 #
straight-curve $-1 -64.287850581377597 -30.82241525176202 54.653454514369002 0 0 -1 I I #
coedge $-1 $486 $305 $487 $488 forward $297 $-1 #
edge $-1 $308 30.82241525176202 $489 33.789429007312272 $389 $490 forward 7 unknown #
point $-1 -58.036248948493522 -30.82241525176202 6.9295811025189291 #
point $-1 -64.287850581377597 -30.82241525176202 6.9295811025189291 #
point $-1 -58.51553837802085 -23.953572006493701 0.89758737923700971 #
face $-1 $491 $492 $18 $-1 $493 forward single #
loop $-1 $-1 $494 $312 #
plane-surface $-1 -136.18647116480921 -30.82241525176202 109.306909028738 0 1 0 -0.55919291073839883 0 0.82903756765294845 forward_v I I I I #
loop $-1 $-1 $495 $227 #
coedge $-1 $401 $401 $402 $496 forward $313 $-1 #
coedge $-1 $402 $402 $401 $496 reversed $315 $-1 #
coedge $-1 $403 $403 $316 $404 forward $492 $-1 #
edge $-1 $497 0 $497 6.2831853071796004 $403 $498 forward 7 unknown #
coedge $-1 $317 $499 $500 $501 forward $145 $-1 #
coedge $-1 $502 $318 $317 $407 reversed $242 $-1 #
edge $-1 $503 -33.789429007312272 $320 -16.70470024608689 $406 $333 forward 7 unknown #
straight-curve $-1 -64.287850581377597 16.70470024608689 54.653454514369002 0 0 1 I I #
point $-1 -64.287850581377597 16.70470024608689 6.9295811025189291 #
straight-curve $-1 -64.287850581377597 4.9179285004092854 2.7128224774950649 0 1 0 I I #
point $-1 -64.287850581377597 16.70470024608689 2.7128224774950667 #
coedge $-1 $327 $504 $505 $506 forward $242 $-1 #
coedge $-1 $420 $330 $327 $414 reversed $421 $-1 #
edge $-1 $507 -51.940632036873936 $332 -47.723873411850072 $327 $508 forward 7 unknown #
face $-1 $509 $510 $18 $-1 $511 reversed single #
plane-surface $-1 -64.287850581377597 0 0 1 0 0 0 0 -1 forward_v I I I I #
coedge $-1 $512 $329 $494 $513 forward $145 $-1 #
coedge $-1 $514 $515 $329 $419 reversed $516 $-1 #
edge $-1 $422 5.107942757978531 $517 18.84562924851517 $329 $518 forward 7 unknown #
coedge $-1 $330 $413 $514 $519 forward $421 $-1 #
loop $-1 $-1 $330 $491 #
vertex $-1 $419 $520 #
straight-curve $-1 -68.093235582404603 -17.084728761225382 6.9295811025189309 1 0 0 I I #
point $-1 -64.287850581377597 -17.084728761225382 6.9295811025189291 #
face $-1 $521 $522 $19 $-1 $523 reversed single #
loop $-1 $524 $525 $334 #
cone-surface $-1 -60.258188754532 -23.953572006493701 3.481172760361714 0.55919291073839883 0 -0.82903756765294845 1.2435563514794228 0 0.83878936610759824 1 I I 0 1 1.5 forward I I I I #
coedge $-1 $344 $526 $337 $431 forward $335 $-1 #
coedge $-1 $430 $337 $527 $528 reversed $249 $-1 #
coedge $-1 $337 $429 $432 $529 forward $249 $-1 #
edge $-1 $530 3.8053850010270054 $531 10.05698663391108 $428 $532 forward 7 unknown #
coedge $-1 $434 $338 $430 $529 reversed $251 $-1 #
edge $-1 $531 -11.786771745677605 $345 1.950914744859034 $344 $533 forward 7 unknown #
coedge $-1 $339 $432 $437 $534 reversed $251 $-1 #
vertex $-1 $534 $535 #
straight-curve $-1 -64.287850581377597 2.9670137555502514 2.7128224774950667 -0.82903756765294845 0 -0.55919291073839883 I I #
coedge $-1 $527 $341 $434 $534 forward $439 $-1 #
coedge $-1 $341 $536 $343 $442 reversed $439 $-1 #
loop $-1 $-1 $527 $537 #
straight-curve $-1 -64.287850581377597 2.9670137555502514 54.653454514369002 0 0 -1 I I #
coedge $-1 $538 $343 $539 $540 forward $335 $-1 #
edge $-1 $346 -2.9670137555502514 $541 17.084728761225382 $438 $542 forward 7 unknown #
point $-1 -58.036248948493522 2.9670137555502514 6.9295811025189291 #
point $-1 -64.287850581377597 2.9670137555502514 6.9295811025189291 #
point $-1 -58.51553837802085 9.8358570008185708 0.89758737923700971 #
face $-1 $-1 $456 $16 $-1 $543 reversed single #
loop $-1 $-1 $544 $354 #
plane-surface $-1 0 33.789429007312272 0 0 -1 0 0 0 -1 forward_v I I I I #
coedge $-1 $372 $356 $357 $451 reversed $277 $-1 #
coedge $-1 $358 $357 $368 $464 forward $195 $-1 #
edge $-1 $458 -64.287850581377597 $465 64.287850581377597 $449 $545 forward 7 unknown #
coedge $-1 $546 $544 $358 $453 reversed $447 $-1 #
edge $-1 $547 -64.287850581377597 $457 64.287850581377597 $452 $548 forward 7 unknown #
coedge $-1 $370 $359 $544 $549 reversed $456 $-1 #
coedge $-1 $359 $370 $372 $469 forward $456 $-1 #
loop $-1 $-1 $455 $446 #
vertex $-1 $360 $550 #
vertex $-1 $469 $551 #
straight-curve $-1 64.287850581377597 0 -6.9295811025189291 0 -1 0 I I #
coedge $-1 $544 $546 $361 $461 reversed $447 $-1 #
edge $-1 $467 -64.287850581377597 $463 64.287850581377597 $460 $552 forward 7 unknown #
coedge $-1 $368 $362 $546 $553 forward $209 $-1 #
vertex $-1 $461 $554 #
edge $-1 $465 -33.789429007312272 $547 33.789429007312272 $368 $555 forward 7 unknown #
vertex $-1 $464 $556 #
straight-curve $-1 -64.287850581377597 -33.789429007312272 0 0 0 -1 I I #
vertex $-1 $371 $557 #
straight-curve $-1 64.287850581377597 0 6.9295811025189291 0 1 0 I I #
edge $-1 $373 -6.9295811025189291 $458 6.9295811025189291 $455 $558 forward 7 unknown #
point $-1 64.287850581377597 -33.789429007312272 6.9295811025189291 #
face $-1 $559 $390 $17 $-1 $560 reversed single #
loop $-1 $-1 $561 $376 #
plane-surface $-1 0 -33.789429007312272 0 0 1 0 0 0 1 forward_v I I I I #
coedge $-1 $562 $563 $564 $565 forward $377 $-1 #
coedge $-1 $379 $566 $567 $568 forward $297 $-1 #
coedge $-1 $567 $388 $380 $477 forward $390 $-1 #
edge $-1 $569 -51.940632036873936 $479 -47.723873411850072 $476 $570 forward 7 unknown #
edge $-1 $569 0 $480 7.5407941410697568 $381 $571 forward 7 unknown #
vertex $-1 $477 $572 #
vertex $-1 $384 $573 #
straight-curve $-1 -68.093235582404603 -17.084728761225382 6.9295811025189309 1 0 0 I I #
straight-curve $-1 -58.036248948493522 -11.97678600324685 6.9295811025189291 0 -1 0 I I #
edge $-1 $386 -18.84562924851517 $569 -5.107942757978531 $388 $574 forward 7 unknown #
point $-1 -64.287850581377597 -30.82241525176202 2.7128224774950667 #
coedge $-1 $389 $575 $561 $576 reversed $390 $-1 #
coedge $-1 $566 $392 $577 $578 forward $297 $-1 #
coedge $-1 $561 $579 $392 $488 reversed $472 $-1 #
edge $-1 $489 -64.287850581377597 $580 64.287850581377597 $487 $581 forward 7 unknown #
vertex $-1 $393 $582 #
straight-curve $-1 -64.287850581377597 0 6.9295811025189291 0 -1 0 I I #
face $-1 $583 $421 $18 $-1 $584 forward single #
loop $-1 $516 $403 $397 #
plane-surface $-1 -64.287850581377597 -23.953572006493701 2.7128224774950667 -0.55919291073839883 0 0.82903756765294845 0.82903756765294845 0 0.55919291073839883 forward_v I I I I #
coedge $-1 $585 $586 $417 $513 reversed $398 $-1 #
coedge $-1 $495 $495 $-1 $587 forward $400 $-1 #
edge $-1 $588 0 $588 6.2831853071796004 $401 $589 forward 7 unknown #
vertex $-1 $404 $590 #
ellipse-curve $-1 -61.162049764935553 -23.953572006493701 4.8212017900070006 0.55919291073839883 0 -0.82903756765294845 1.2435563514794228 0 0.83878936610759824 1 I I #
coedge $-1 $405 $591 $592 $593 forward $145 $-1 #
coedge $-1 $594 $595 $405 $501 reversed $510 $-1 #
edge $-1 $596 -64.287850581377597 $503 64.287850581377597 $500 $597 forward 7 unknown #
coedge $-1 $598 $406 $595 $599 forward $242 $-1 #
vertex $-1 $501 $600 #
coedge $-1 $412 $601 $586 $602 forward $242 $-1 #
coedge $-1 $515 $514 $412 $506 reversed $516 $-1 #
edge $-1 $603 -18.84562924851517 $507 -5.107942757978531 $412 $604 forward 7 unknown #
vertex $-1 $506 $605 #
straight-curve $-1 -64.287850581377597 -17.084728761225382 54.653454514369002 0 0 1 I I #
face $-1 $-1 $606 $18 $-1 $607 reversed single #
loop $-1 $-1 $594 $415 #
plane-surface $-1 0 33.789429007312272 0 0 -1 0 0 0 -1 forward_v I I I I #
coedge $-1 $591 $417 $601 $608 forward $145 $-1 #
edge $-1 $517 -10.05698663391108 $609 -3.8053850010270054 $417 $610 forward 7 unknown #
coedge $-1 $505 $418 $420 $519 reversed $516 $-1 #
coedge $-1 $418 $505 $585 $611 reversed $516 $-1 #
loop $-1 $-1 $418 $397 #
vertex $-1 $419 $612 #
straight-curve $-1 -58.036248948493522 -11.97678600324685 6.9295811025189291 0 -1 0 I I #
edge $-1 $507 0 $422 7.5407941410697568 $420 $613 forward 7 unknown #
point $-1 -58.036248948493522 -17.084728761225382 6.9295811025189291 #
face $-1 $614 $615 $19 $-1 $616 forward single #
loop $-1 $617 $618 $425 #
cone-surface $-1 -58.934933061074652 -23.953572006493701 1.5193655549767211 0.55919291073839883 0 -0.82903756765294845 0.62177817573971139 0 0.41939468305379912 1 I I -0.70710678118654757 0.70710678118654757 0.75 forward I I I I #
loop $-1 $-1 $619 $334 #
coedge $-1 $525 $525 $620 $621 reversed $426 $-1 #
coedge $-1 $428 $622 $623 $624 forward $335 $-1 #
coedge $-1 $623 $437 $429 $528 forward $439 $-1 #
edge $-1 $625 -51.940632036873936 $530 -47.723873411850072 $527 $626 forward 7 unknown #
edge $-1 $625 0 $531 7.5407941410697568 $430 $627 forward 7 unknown #
vertex $-1 $528 $628 #
vertex $-1 $433 $629 #
straight-curve $-1 -68.093235582404603 16.70470024608689 6.9295811025189309 1 0 0 I I #
straight-curve $-1 -58.036248948493522 4.9179285004092854 6.9295811025189291 0 -1 0 I I #
edge $-1 $435 -1.950914744859034 $625 11.786771745677605 $437 $630 forward 7 unknown #
point $-1 -64.287850581377597 2.9670137555502514 2.7128224774950667 #
coedge $-1 $438 $631 $632 $633 forward $439 $-1 #
face $-1 $634 $439 $19 $-1 $635 reversed single #
coedge $-1 $636 $441 $637 $638 forward $335 $-1 #
coedge $-1 $632 $639 $441 $540 reversed $640 $-1 #
edge $-1 $541 3.8053850010270054 $641 10.05698663391108 $441 $642 forward 7 unknown #
vertex $-1 $633 $643 #
straight-curve $-1 -64.287850581377597 0 6.9295811025189291 0 -1 0 I I #
plane-surface $-1 64.287850581377597 0 0 -1 0 0 0 0 1 forward_v I I I I #
coedge $-1 $452 $460 $454 $549 forward $447 $-1 #
straight-curve $-1 0 -33.789429007312272 -6.9295811025189291 -1 0 0 I I #
coedge $-1 $460 $452 $462 $553 reversed $447 $-1 #
vertex $-1 $453 $644 #
straight-curve $-1 0 33.789429007312272 -6.9295811025189291 1 0 0 I I #
edge $-1 $467 -6.9295811025189291 $457 6.9295811025189291 $454 $645 forward 7 unknown #
point $-1 64.287850581377597 33.789429007312272 -6.9295811025189291 #
point $-1 64.287850581377597 -33.789429007312272 -6.9295811025189291 #
straight-curve $-1 0 33.789429007312272 6.9295811025189291 -1 0 0 I I #
edge $-1 $463 -6.9295811025189291 $547 6.9295811025189291 $546 $646 forward 7 unknown #
point $-1 -64.287850581377597 33.789429007312272 6.9295811025189291 #
straight-curve $-1 -64.287850581377597 0 -6.9295811025189291 0 1 0 I I #
point $-1 -64.287850581377597 -33.789429007312272 -6.9295811025189291 #
point $-1 64.287850581377597 33.789429007312272 6.9295811025189291 #
straight-curve $-1 64.287850581377597 -33.789429007312272 0 0 0 -1 I I #
face $-1 $647 $648 $17 $-1 $649 reversed single #
plane-surface $-1 -64.287850581377597 0 0 1 0 0 0 0 -1 forward_v I I I I #
coedge $-1 $650 $487 $485 $576 forward $472 $-1 #
coedge $-1 $651 $474 $650 $652 forward $377 $-1 #
coedge $-1 $474 $651 $653 $654 forward $377 $-1 #
coedge $-1 $655 $656 $474 $565 reversed $657 $-1 #
edge $-1 $658 -33.789429007312272 $659 33.789429007312272 $564 $660 forward 7 unknown #
coedge $-1 $475 $486 $661 $662 forward $297 $-1 #
coedge $-1 $663 $476 $475 $568 reversed $390 $-1 #
edge $-1 $664 -33.789429007312272 $479 17.084728761225382 $567 $490 forward 7 unknown #
vertex $-1 $483 $665 #
straight-curve $-1 -64.287850581377597 -17.084728761225382 54.653454514369002 0 0 1 I I #
straight-curve $-1 -64.287850581377597 -17.084728761225382 2.7128224774950667 0.82903756765294845 0 0.55919291073839883 I I #
point $-1 -64.287850581377597 -17.084728761225382 6.9295811025189291 #
point $-1 -58.036248948493522 -17.084728761225382 6.9295811025189291 #
straight-curve $-1 -64.287850581377597 -11.97678600324685 2.7128224774950649 0 1 0 I I #
coedge $-1 $485 $663 $651 $666 reversed $390 $-1 #
edge $-1 $489 -6.9295811025189291 $667 6.9295811025189291 $485 $668 forward 7 unknown #
coedge $-1 $656 $655 $486 $578 reversed $657 $-1 #
edge $-1 $580 -33.789429007312272 $669 33.789429007312272 $577 $670 forward 7 unknown #
coedge $-1 $487 $650 $656 $671 reversed $472 $-1 #
vertex $-1 $578 $672 #
straight-curve $-1 0 -33.789429007312272 6.9295811025189291 1 0 0 I I #
point $-1 -64.287850581377597 -33.789429007312272 6.9295811025189291 #
face $-1 $673 $674 $18 $-1 $675 reversed single #
plane-surface $-1 -136.18647116480921 -17.084728761225382 109.306909028738 0 -1 0 0.55919291073839883 0 -0.82903756765294845 forward_v I I I I #
coedge $-1 $586 $494 $515 $611 forward $398 $-1 #
coedge $-1 $494 $585 $504 $602 reversed $398 $-1 #
edge $-1 $676 1 $676 0 $495 $-1 forward 7 unknown #
vertex $-1 $496 $677 #
ellipse-curve $-1 -59.354327744128454 -23.953572006493701 2.1411437307164327 -0.55919291073839883 0 0.82903756765294845 1.2435563514794228 0 0.83878936610759824 1 I I #
point $-1 -59.918493413456133 -23.953572006493701 5.6599911561145939 #
coedge $-1 $499 $512 $678 $679 forward $145 $-1 #
coedge $-1 $680 $681 $499 $593 reversed $606 $-1 #
edge $-1 $682 -33.789429007312272 $596 33.789429007312272 $592 $683 forward 7 unknown #
coedge $-1 $684 $500 $681 $685 forward $510 $-1 #
coedge $-1 $500 $684 $502 $599 reversed $510 $-1 #
vertex $-1 $593 $686 #
straight-curve $-1 0 33.789429007312272 6.9295811025189291 -1 0 0 I I #
coedge $-1 $687 $502 $688 $689 reversed $242 $-1 #
edge $-1 $503 -6.9295811025189291 $690 6.9295811025189291 $595 $691 forward 7 unknown #
point $-1 -64.287850581377597 33.789429007312272 6.9295811025189291 #
coedge $-1 $504 $687 $512 $608 reversed $242 $-1 #
edge $-1 $609 47.723873411850072 $603 51.940632036873936 $504 $692 forward 7 unknown #
vertex $-1 $506 $693 #
straight-curve $-1 -64.287850581377597 -11.97678600324685 2.7128224774950649 0 1 0 I I #
point $-1 -64.287850581377597 -17.084728761225382 2.7128224774950667 #
loop $-1 $-1 $680 $509 #
plane-surface $-1 64.287850581377597 0 0 -1 0 0 0 0 1 forward_v I I I I #
edge $-1 $609 30.82241525176202 $694 33.789429007312272 $601 $333 forward 7 unknown #
vertex $-1 $608 $695 #
straight-curve $-1 -68.093235582404603 -30.82241525176202 6.9295811025189309 -1 0 0 I I #
edge $-1 $517 -7.5407941410697568 $603 0 $585 $696 forward 7 unknown #
point $-1 -58.036248948493522 -30.82241525176202 6.9295811025189291 #
straight-curve $-1 -64.287850581377597 -17.084728761225382 2.7128224774950667 0.82903756765294845 0 0.55919291073839883 I I #
face $-1 $697 $698 $19 $-1 $699 forward single #
loop $-1 $-1 $700 $521 #
plane-surface $-1 -136.18647116480921 -30.82241525176202 109.306909028738 0 1 0 -0.55919291073839883 0 0.82903756765294845 forward_v I I I I #
loop $-1 $-1 $701 $425 #
coedge $-1 $618 $618 $619 $702 forward $522 $-1 #
coedge $-1 $619 $619 $618 $702 reversed $524 $-1 #
coedge $-1 $620 $620 $525 $621 forward $698 $-1 #
edge $-1 $703 0 $703 6.2831853071796004 $620 $704 forward 7 unknown #
coedge $-1 $526 $705 $706 $707 forward $335 $-1 #
coedge $-1 $708 $527 $526 $624 reversed $439 $-1 #
edge $-1 $709 -33.789429007312272 $530 -16.70470024608689 $623 $542 forward 7 unknown #
vertex $-1 $534 $710 #
straight-curve $-1 -64.287850581377597 16.70470024608689 54.653454514369002 0 0 1 I I #
straight-curve $-1 -64.287850581377597 16.70470024608689 2.7128224774950667 0.82903756765294845 0 0.55919291073839883 I I #
point $-1 -64.287850581377597 16.70470024608689 6.9295811025189291 #
point $-1 -58.036248948493522 16.70470024608689 6.9295811025189291 #
straight-curve $-1 -64.287850581377597 4.9179285004092854 2.7128224774950649 0 1 0 I I #
coedge $-1 $536 $711 $712 $713 forward $439 $-1 #
coedge $-1 $639 $539 $536 $633 reversed $640 $-1 #
edge $-1 $714 -51.940632036873936 $541 -47.723873411850072 $536 $715 forward 7 unknown #
face $-1 $716 $717 $19 $-1 $718 reversed single #
plane-surface $-1 -64.287850581377597 0 0 1 0 0 0 0 -1 forward_v I I I I #
coedge $-1 $719 $538 $700 $720 forward $335 $-1 #
coedge $-1 $721 $722 $538 $638 reversed $723 $-1 #
edge $-1 $641 5.107942757978531 $724 18.84562924851517 $538 $725 forward 7 unknown #
coedge $-1 $539 $632 $721 $726 forward $640 $-1 #
loop $-1 $-1 $539 $697 #
vertex $-1 $638 $727 #
straight-curve $-1 -68.093235582404603 -17.084728761225382 6.9295811025189309 1 0 0 I I #
point $-1 -64.287850581377597 -17.084728761225382 6.9295811025189291 #
point $-1 -64.287850581377597 33.789429007312272 -6.9295811025189291 #
straight-curve $-1 64.287850581377597 33.789429007312272 0 0 0 -1 I I #
straight-curve $-1 -64.287850581377597 33.789429007312272 0 0 0 -1 I I #
face $-1 $-1 $657 $17 $-1 $728 reversed single #
loop $-1 $-1 $729 $559 #
plane-surface $-1 0 33.789429007312272 0 0 -1 0 0 0 -1 forward_v I I I I #
coedge $-1 $579 $561 $562 $652 reversed $472 $-1 #
coedge $-1 $563 $562 $575 $666 forward $377 $-1 #
edge $-1 $659 -64.287850581377597 $667 64.287850581377597 $650 $730 forward 7 unknown #
coedge $-1 $731 $729 $563 $654 reversed $648 $-1 #
edge $-1 $732 -64.287850581377597 $658 64.287850581377597 $653 $733 forward 7 unknown #
coedge $-1 $577 $564 $729 $734 reversed $657 $-1 #
coedge $-1 $564 $577 $579 $671 forward $657 $-1 #
loop $-1 $-1 $656 $647 #
vertex $-1 $565 $735 #
vertex $-1 $671 $736 #
straight-curve $-1 64.287850581377597 0 -6.9295811025189291 0 -1 0 I I #
coedge $-1 $729 $731 $566 $662 reversed $648 $-1 #
edge $-1 $669 -64.287850581377597 $664 64.287850581377597 $661 $737 forward 7 unknown #
coedge $-1 $575 $567 $731 $738 forward $390 $-1 #
vertex $-1 $662 $739 #
point $-1 -64.287850581377597 -17.084728761225382 2.7128224774950667 #
edge $-1 $667 -33.789429007312272 $732 33.789429007312272 $575 $740 forward 7 unknown #
vertex $-1 $666 $741 #
straight-curve $-1 -64.287850581377597 -33.789429007312272 0 0 0 -1 I I #
vertex $-1 $578 $742 #
straight-curve $-1 64.287850581377597 0 6.9295811025189291 0 1 0 I I #
edge $-1 $580 -6.9295811025189291 $659 6.9295811025189291 $656 $743 forward 7 unknown #
point $-1 64.287850581377597 -33.789429007312272 6.9295811025189291 #
face $-1 $328 $744 $18 $-1 $745 reversed single #
loop $-1 $-1 $746 $583 #
plane-surface $-1 0 0 -6.9295811025189291 0 0 1 1 0 0 forward_v I I I I #
vertex $-1 $587 $747 #
point $-1 -58.110771392649028 -23.953572006493701 2.9799330968240305 #
coedge $-1 $748 $749 $591 $679 reversed $744 $-1 #
edge $-1 $694 -64.287850581377597 $682 64.287850581377597 $678 $750 forward 7 unknown #
coedge $-1 $751 $592 $749 $752 forward $606 $-1 #
coedge $-1 $592 $751 $594 $685 reversed $606 $-1 #
vertex $-1 $593 $753 #
straight-curve $-1 64.287850581377597 0 6.9295811025189291 0 1 0 I I #
coedge $-1 $595 $594 $754 $755 reversed $510 $-1 #
edge $-1 $596 -6.9295811025189291 $756 6.9295811025189291 $681 $757 forward 7 unknown #
point $-1 64.287850581377597 33.789429007312272 6.9295811025189291 #
coedge $-1 $601 $598 $748 $758 reversed $242 $-1 #
coedge $-1 $754 $759 $598 $689 forward $674 $-1 #
edge $-1 $760 -33.789429007312272 $690 33.789429007312272 $598 $761 forward 7 unknown #
vertex $-1 $755 $762 #
straight-curve $-1 -64.287850581377597 33.789429007312272 0 0 0 -1 I I #
straight-curve $-1 -64.287850581377597 -30.82241525176202 54.653454514369002 0 0 -1 I I #
point $-1 -64.287850581377597 -30.82241525176202 2.7128224774950667 #
vertex $-1 $608 $763 #
point $-1 -64.287850581377597 -30.82241525176202 6.9295811025189291 #
straight-curve $-1 -64.287850581377597 -30.82241525176202 2.7128224774950667 -0.82903756765294845 0 -0.55919291073839883 I I #
face $-1 $764 $640 $19 $-1 $765 forward single #
loop $-1 $723 $620 $614 #
plane-surface $-1 -64.287850581377597 -23.953572006493701 2.7128224774950667 -0.55919291073839883 0 0.82903756765294845 0.82903756765294845 0 0.55919291073839883 forward_v I I I I #
coedge $-1 $766 $767 $636 $720 reversed $615 $-1 #
coedge $-1 $701 $701 $-1 $768 forward $617 $-1 #
edge $-1 $769 0 $769 6.2831853071796004 $618 $770 forward 7 unknown #
vertex $-1 $621 $771 #
ellipse-curve $-1 -61.162049764935553 -23.953572006493701 4.8212017900070006 0.55919291073839883 0 -0.82903756765294845 1.2435563514794228 0 0.83878936610759824 1 I I #
coedge $-1 $622 $772 $773 $774 forward $335 $-1 #
coedge $-1 $775 $776 $622 $707 reversed $717 $-1 #
edge $-1 $777 -64.287850581377597 $709 64.287850581377597 $706 $778 forward 7 unknown #
coedge $-1 $779 $623 $776 $780 forward $439 $-1 #
vertex $-1 $707 $781 #
point $-1 -64.287850581377597 16.70470024608689 2.7128224774950667 #
coedge $-1 $631 $782 $767 $783 forward $439 $-1 #
coedge $-1 $722 $721 $631 $713 reversed $723 $-1 #
edge $-1 $784 -18.84562924851517 $714 -5.107942757978531 $631 $785 forward 7 unknown #
vertex $-1 $713 $786 #
straight-curve $-1 -64.287850581377597 -17.084728761225382 54.653454514369002 0 0 1 I I #
face $-1 $-1 $787 $19 $-1 $788 reversed single #
loop $-1 $-1 $775 $634 #
plane-surface $-1 0 33.789429007312272 0 0 -1 0 0 0 -1 forward_v I I I I #
coedge $-1 $772 $636 $782 $789 forward $335 $-1 #
edge $-1 $724 -10.05698663391108 $790 -3.8053850010270054 $636 $791 forward 7 unknown #
coedge $-1 $712 $637 $639 $726 reversed $723 $-1 #
coedge $-1 $637 $712 $766 $792 reversed $723 $-1 #
loop $-1 $-1 $637 $614 #
vertex $-1 $638 $793 #
straight-curve $-1 -58.036248948493522 -11.97678600324685 6.9295811025189291 0 -1 0 I I #
edge $-1 $714 0 $641 7.5407941410697568 $639 $794 forward 7 unknown #
point $-1 -58.036248948493522 -17.084728761225382 6.9295811025189291 #
plane-surface $-1 64.287850581377597 0 0 -1 0 0 0 0 1 forward_v I I I I #
coedge $-1 $653 $661 $655 $734 forward $648 $-1 #
straight-curve $-1 0 -33.789429007312272 -6.9295811025189291 -1 0 0 I I #
coedge $-1 $661 $653 $663 $738 reversed $648 $-1 #
vertex $-1 $654 $795 #
straight-curve $-1 0 33.789429007312272 -6.9295811025189291 1 0 0 I I #
edge $-1 $669 -6.9295811025189291 $658 6.9295811025189291 $655 $796 forward 7 unknown #
point $-1 64.287850581377597 33.789429007312272 -6.9295811025189291 #
point $-1 64.287850581377597 -33.789429007312272 -6.9295811025189291 #
straight-curve $-1 0 33.789429007312272 6.9295811025189291 -1 0 0 I I #
edge $-1 $664 -6.9295811025189291 $732 6.9295811025189291 $731 $797 forward 7 unknown #
point $-1 -64.287850581377597 33.789429007312272 6.9295811025189291 #
straight-curve $-1 -64.287850581377597 0 -6.9295811025189291 0 1 0 I I #
point $-1 -64.287850581377597 -33.789429007312272 -6.9295811025189291 #
point $-1 64.287850581377597 33.789429007312272 6.9295811025189291 #
straight-curve $-1 64.287850581377597 -33.789429007312272 0 0 0 -1 I I #
loop $-1 $-1 $748 $673 #
plane-surface $-1 0 -33.789429007312272 0 0 1 0 0 0 1 forward_v I I I I #
coedge $-1 $759 $754 $751 $798 forward $674 $-1 #
point $-1 -58.51553837802085 -23.953572006493701 0.89758737923700971 #
coedge $-1 $799 $678 $687 $758 forward $744 $-1 #
coedge $-1 $678 $799 $680 $752 reversed $744 $-1 #
straight-curve $-1 0 -33.789429007312272 6.9295811025189291 1 0 0 I I #
coedge $-1 $681 $680 $746 $798 reversed $606 $-1 #
edge $-1 $682 -6.9295811025189291 $800 6.9295811025189291 $680 $801 forward 7 unknown #
point $-1 64.287850581377597 -33.789429007312272 6.9295811025189291 #
coedge $-1 $746 $688 $684 $755 forward $674 $-1 #
edge $-1 $690 -64.287850581377597 $756 64.287850581377597 $684 $802 forward 7 unknown #
vertex $-1 $798 $803 #
straight-curve $-1 64.287850581377597 33.789429007312272 0 0 0 -1 I I #
edge $-1 $694 -6.9295811025189291 $760 6.9295811025189291 $687 $804 forward 7 unknown #
coedge $-1 $688 $746 $799 $805 forward $674 $-1 #
vertex $-1 $689 $806 #
straight-curve $-1 -64.287850581377597 0 -6.9295811025189291 0 1 0 I I #
point $-1 -64.287850581377597 33.789429007312272 -6.9295811025189291 #
point $-1 -64.287850581377597 -33.789429007312272 6.9295811025189291 #
face $-1 $807 $808 $19 $-1 $809 reversed single #
plane-surface $-1 -136.18647116480921 -17.084728761225382 109.306909028738 0 -1 0 0.55919291073839883 0 -0.82903756765294845 forward_v I I I I #
coedge $-1 $767 $700 $722 $792 forward $615 $-1 #
coedge $-1 $700 $766 $711 $783 reversed $615 $-1 #
edge $-1 $810 1 $810 0 $701 $-1 forward 7 unknown #
vertex $-1 $702 $811 #
ellipse-curve $-1 -59.354327744128454 -23.953572006493701 2.1411437307164327 -0.55919291073839883 0 0.82903756765294845 1.2435563514794228 0 0.83878936610759824 1 I I #
point $-1 -59.918493413456133 -23.953572006493701 5.6599911561145939 #
coedge $-1 $705 $719 $812 $813 forward $335 $-1 #
coedge $-1 $814 $815 $705 $774 reversed $787 $-1 #
edge $-1 $816 -33.789429007312272 $777 33.789429007312272 $773 $817 forward 7 unknown #
coedge $-1 $818 $706 $815 $819 forward $717 $-1 #
coedge $-1 $706 $818 $708 $780 reversed $717 $-1 #
vertex $-1 $774 $820 #
straight-curve $-1 0 33.789429007312272 6.9295811025189291 -1 0 0 I I #
coedge $-1 $821 $708 $822 $823 reversed $439 $-1 #
edge $-1 $709 -6.9295811025189291 $824 6.9295811025189291 $776 $825 forward 7 unknown #
point $-1 -64.287850581377597 33.789429007312272 6.9295811025189291 #
coedge $-1 $711 $821 $719 $789 reversed $439 $-1 #
edge $-1 $790 47.723873411850072 $784 51.940632036873936 $711 $826 forward 7 unknown #
vertex $-1 $713 $827 #
straight-curve $-1 -64.287850581377597 -11.97678600324685 2.7128224774950649 0 1 0 I I #
point $-1 -64.287850581377597 -17.084728761225382 2.7128224774950667 #
loop $-1 $-1 $814 $716 #
plane-surface $-1 64.287850581377597 0 0 -1 0 0 0 0 1 forward_v I I I I #
edge $-1 $790 30.82241525176202 $828 33.789429007312272 $782 $542 forward 7 unknown #
vertex $-1 $789 $829 #
straight-curve $-1 -68.093235582404603 -30.82241525176202 6.9295811025189309 -1 0 0 I I #
edge $-1 $724 -7.5407941410697568 $784 0 $766 $830 forward 7 unknown #
point $-1 -58.036248948493522 -30.82241525176202 6.9295811025189291 #
straight-curve $-1 -64.287850581377597 -17.084728761225382 2.7128224774950667 0.82903756765294845 0 0.55919291073839883 I I #
point $-1 -64.287850581377597 33.789429007312272 -6.9295811025189291 #
straight-curve $-1 64.287850581377597 33.789429007312272 0 0 0 -1 I I #
straight-curve $-1 -64.287850581377597 33.789429007312272 0 0 0 -1 I I #
edge $-1 $756 -33.789429007312272 $800 33.789429007312272 $751 $831 forward 7 unknown #
coedge $-1 $749 $748 $759 $805 reversed $744 $-1 #
vertex $-1 $752 $832 #
straight-curve $-1 64.287850581377597 -33.789429007312272 0 0 0 -1 I I #
straight-curve $-1 0 33.789429007312272 -6.9295811025189291 1 0 0 I I #
point $-1 64.287850581377597 33.789429007312272 -6.9295811025189291 #
straight-curve $-1 -64.287850581377597 -33.789429007312272 0 0 0 -1 I I #
edge $-1 $800 -64.287850581377597 $760 64.287850581377597 $799 $833 forward 7 unknown #
point $-1 -64.287850581377597 -33.789429007312272 -6.9295811025189291 #
face $-1 $537 $834 $19 $-1 $835 reversed single #
loop $-1 $-1 $836 $764 #
plane-surface $-1 0 0 -6.9295811025189291 0 0 1 1 0 0 forward_v I I I I #
vertex $-1 $768 $837 #
point $-1 -58.110771392649028 -23.953572006493701 2.9799330968240305 #
coedge $-1 $838 $839 $772 $813 reversed $834 $-1 #
edge $-1 $828 -64.287850581377597 $816 64.287850581377597 $812 $840 forward 7 unknown #
coedge $-1 $841 $773 $839 $842 forward $787 $-1 #
coedge $-1 $773 $841 $775 $819 reversed $787 $-1 #
vertex $-1 $774 $843 #
straight-curve $-1 64.287850581377597 0 6.9295811025189291 0 1 0 I I #
coedge $-1 $776 $775 $844 $845 reversed $717 $-1 #
edge $-1 $777 -6.9295811025189291 $846 6.9295811025189291 $815 $847 forward 7 unknown #
point $-1 64.287850581377597 33.789429007312272 6.9295811025189291 #
coedge $-1 $782 $779 $838 $848 reversed $439 $-1 #
coedge $-1 $844 $849 $779 $823 forward $808 $-1 #
edge $-1 $850 -33.789429007312272 $824 33.789429007312272 $779 $851 forward 7 unknown #
vertex $-1 $845 $852 #
straight-curve $-1 -64.287850581377597 33.789429007312272 0 0 0 -1 I I #
straight-curve $-1 -64.287850581377597 -30.82241525176202 54.653454514369002 0 0 -1 I I #
point $-1 -64.287850581377597 -30.82241525176202 2.7128224774950667 #
vertex $-1 $789 $853 #
point $-1 -64.287850581377597 -30.82241525176202 6.9295811025189291 #
straight-curve $-1 -64.287850581377597 -30.82241525176202 2.7128224774950667 -0.82903756765294845 0 -0.55919291073839883 I I #
straight-curve $-1 64.287850581377597 0 -6.9295811025189291 0 -1 0 I I #
point $-1 64.287850581377597 -33.789429007312272 -6.9295811025189291 #
straight-curve $-1 0 -33.789429007312272 -6.9295811025189291 -1 0 0 I I #
loop $-1 $-1 $838 $807 #
plane-surface $-1 0 -33.789429007312272 0 0 1 0 0 0 1 forward_v I I I I #
coedge $-1 $849 $844 $841 $854 forward $808 $-1 #
point $-1 -58.51553837802085 -23.953572006493701 0.89758737923700971 #
coedge $-1 $855 $812 $821 $848 forward $834 $-1 #
coedge $-1 $812 $855 $814 $842 reversed $834 $-1 #
straight-curve $-1 0 -33.789429007312272 6.9295811025189291 1 0 0 I I #
coedge $-1 $815 $814 $836 $854 reversed $787 $-1 #
edge $-1 $816 -6.9295811025189291 $856 6.9295811025189291 $814 $857 forward 7 unknown #
point $-1 64.287850581377597 -33.789429007312272 6.9295811025189291 #
coedge $-1 $836 $822 $818 $845 forward $808 $-1 #
edge $-1 $824 -64.287850581377597 $846 64.287850581377597 $818 $858 forward 7 unknown #
vertex $-1 $854 $859 #
straight-curve $-1 64.287850581377597 33.789429007312272 0 0 0 -1 I I #
edge $-1 $828 -6.9295811025189291 $850 6.9295811025189291 $821 $860 forward 7 unknown #
coedge $-1 $822 $836 $855 $861 forward $808 $-1 #
vertex $-1 $823 $862 #
straight-curve $-1 -64.287850581377597 0 -6.9295811025189291 0 1 0 I I #
point $-1 -64.287850581377597 33.789429007312272 -6.9295811025189291 #
point $-1 -64.287850581377597 -33.789429007312272 6.9295811025189291 #
edge $-1 $846 -33.789429007312272 $856 33.789429007312272 $841 $863 forward 7 unknown #
coedge $-1 $839 $838 $849 $861 reversed $834 $-1 #
vertex $-1 $842 $864 #
straight-curve $-1 64.287850581377597 -33.789429007312272 0 0 0 -1 I I #
straight-curve $-1 0 33.789429007312272 -6.9295811025189291 1 0 0 I I #
point $-1 64.287850581377597 33.789429007312272 -6.9295811025189291 #
straight-curve $-1 -64.287850581377597 -33.789429007312272 0 0 0 -1 I I #
edge $-1 $856 -64.287850581377597 $850 64.287850581377597 $855 $865 forward 7 unknown #
point $-1 -64.287850581377597 -33.789429007312272 -6.9295811025189291 #
straight-curve $-1 64.287850581377597 0 -6.9295811025189291 0 -1 0 I I #
point $-1 64.287850581377597 -33.789429007312272 -6.9295811025189291 #
straight-curve $-1 0 -33.789429007312272 -6.9295811025189291 -1 0 0 I I #
End-of-ACIS-data 