500 0 6 0           
7 Unknown 11 ACIS 5.0 NT 24 Fri Mar 26 18:50:15 1999 
-1 9.9999999999999995e-007 1e-010 
body $-1 $6 $-1 $7 #
body $-1 $8 $-1 $9 #
body $-1 $10 $-1 $11 #
body $-1 $12 $-1 $13 #
body $-1 $14 $-1 $15 #
body $-1 $16 $-1 $17 #
lump $-1 $-1 $18 $0 #
transform $-1 1 0 0 0 1 0 0 0 1 60.440076906643881 38.969065608190959 8.9080474906165588 1 rotate no_reflect no_shear #
lump $-1 $-1 $19 $1 #
transform $-1 1 0 0 0 1 0 0 0 1 60.440076906643881 38.969065608190959 8.9080474906165588 1 rotate no_reflect no_shear #
lump $-1 $-1 $20 $2 #
transform $-1 1 0 0 0 1 0 0 0 1 60.440076906643881 38.969065608190959 8.9080474906165588 1 rotate no_reflect no_shear #
lump $-1 $-1 $21 $3 #
transform $-1 1 0 0 0 1 0 0 0 1 60.440076906643881 38.969065608190959 8.9080474906165588 1 rotate no_reflect no_shear #
lump $-1 $-1 $22 $4 #
transform $-1 1 0 0 0 1 0 0 0 1 60.440076906643881 38.969065608190959 8.9080474906165588 1 rotate no_reflect no_shear #
lump $-1 $-1 $23 $5 #
transform $-1 1 0 0 0 1 0 0 0 1 60.440076906643881 38.969065608190959 8.9080474906165588 1 rotate no_reflect no_shear #
shell $-1 $-1 $-1 $24 $-1 $6 #
shell $-1 $-1 $-1 $25 $-1 $8 #
shell $-1 $-1 $-1 $26 $-1 $10 #
shell $-1 $-1 $-1 $27 $-1 $12 #
shell $-1 $-1 $-1 $28 $-1 $14 #
shell $-1 $-1 $-1 $29 $-1 $16 #
face $-1 $30 $31 $18 $-1 $32 forward single #
face $-1 $33 $34 $19 $-1 $35 forward single #
face $-1 $36 $37 $20 $-1 $38 reversed single #
face $-1 $39 $40 $21 $-1 $41 forward single #
face $-1 $42 $43 $22 $-1 $44 reversed single #
face $-1 $45 $46 $23 $-1 $47 forward single #
face $-1 $48 $49 $18 $-1 $50 reversed single #
loop $-1 $-1 $51 $24 #
plane-surface $-1 0 0 8.9080474906165588 0 0 1 1 0 0 forward_v I I I I #
face $-1 $52 $53 $19 $-1 $54 reversed single #
loop $-1 $-1 $55 $25 #
plane-surface $-1 -60.440076906643881 0 0 1 0 0 0 0 -1 forward_v I I I I #
face $-1 $56 $57 $20 $-1 $58 reversed single #
loop $-1 $-1 $59 $26 #
plane-surface $-1 -7.6481080811092994 -103.02578862312269 103.1133199902339 -1 0 0 0 -0.52991927123019833 0.84804809178421925 forward_v I I I I #
face $-1 $60 $61 $21 $-1 $62 forward single #
loop $-1 $63 $64 $27 #
cone-surface $-1 -20.223683663783724 -31.771268625598236 3.8730017724823265 0 0.52991927123019833 -0.84804809178421925 2 0 0 1 I I 0 1 2 forward I I I I #
face $-1 $65 $66 $22 $-1 $67 reversed single #
loop $-1 $-1 $68 $28 #
plane-surface $-1 47.979445579344279 -103.02578862312269 103.1133199902339 -1 0 0 0 -0.52991927123019833 0.84804809178421925 forward_v I I I I #
face $-1 $69 $70 $23 $-1 $71 forward single #
loop $-1 $72 $73 $29 #
cone-surface $-1 35.403869996669854 -31.771268625598236 3.8730017724823265 0 0.52991927123019833 -0.84804809178421925 2 0 0 1 I I 0 1 2 forward I I I I #
face $-1 $74 $75 $18 $-1 $76 reversed single #
loop $-1 $-1 $77 $30 #
plane-surface $-1 0 0 -8.9080474906165588 0 0 1 1 0 0 forward_v I I I I #
coedge $-1 $78 $79 $80 $81 forward $31 $-1 #
face $-1 $82 $83 $19 $-1 $84 forward single #
loop $-1 $-1 $85 $33 #
plane-surface $-1 0 38.969065608190959 0 0 -1 0 0 0 -1 forward_v I I I I #
coedge $-1 $86 $87 $88 $89 forward $34 $-1 #
face $-1 $90 $91 $20 $-1 $92 reversed single #
loop $-1 $-1 $93 $36 #
plane-surface $-1 -20.223683663783724 -38.969065608190959 0.60113621429231046 0 -0.52991927123019833 0.84804809178421925 1 0 0 forward_v I I I I #
coedge $-1 $94 $95 $96 $97 reversed $37 $-1 #
face $-1 $-1 $98 $21 $-1 $99 forward single #
loop $-1 $100 $101 $39 #
cone-surface $-1 -20.223683663783724 -30.690470722332321 2.1433636007260048 0 0.52991927123019833 -0.84804809178421925 1 0 0 1 I I -0.70710678118654746 0.70710678118654746 1 forward I I I I #
loop $-1 $-1 $102 $27 #
coedge $-1 $64 $64 $103 $104 reversed $40 $-1 #
face $-1 $105 $106 $22 $-1 $107 reversed single #
loop $-1 $-1 $108 $42 #
plane-surface $-1 35.403869996669854 -38.969065608190959 0.60113621429231046 0 -0.52991927123019833 0.84804809178421925 1 0 0 forward_v I I I I #
coedge $-1 $109 $110 $111 $112 reversed $43 $-1 #
face $-1 $-1 $113 $23 $-1 $114 forward single #
loop $-1 $115 $116 $45 #
cone-surface $-1 35.403869996669854 -30.690470722332321 2.1433636007260048 0 0.52991927123019833 -0.84804809178421925 1 0 0 1 I I -0.70710678118654746 0.70710678118654746 1 forward I I I I #
loop $-1 $-1 $117 $29 #
coedge $-1 $73 $73 $118 $119 reversed $46 $-1 #
face $-1 $120 $121 $18 $-1 $122 reversed single #
loop $-1 $-1 $123 $48 #
plane-surface $-1 0 -38.969065608190959 0 0 1 0 0 0 1 forward_v I I I I #
coedge $-1 $124 $125 $126 $127 forward $49 $-1 #
coedge $-1 $128 $51 $129 $130 forward $31 $-1 #
coedge $-1 $51 $128 $131 $132 forward $31 $-1 #
coedge $-1 $133 $134 $51 $81 reversed $135 $-1 #
edge $-1 $136 -38.969065608190959 $137 38.969065608190959 $80 $138 forward 7 unknown #
face $-1 $139 $140 $19 $-1 $141 reversed single #
loop $-1 $-1 $88 $52 #
plane-surface $-1 -65.252600152834177 0 -2.4305281029339327 0 0 1 1 0 0 forward_v I I I I #
coedge $-1 $142 $143 $87 $144 forward $53 $-1 #
coedge $-1 $145 $55 $146 $147 reversed $34 $-1 #
coedge $-1 $55 $145 $85 $144 reversed $34 $-1 #
coedge $-1 $148 $149 $55 $89 reversed $83 $-1 #
edge $-1 $150 -38.969065608190959 $151 38.969065608190959 $88 $152 forward 7 unknown #
face $-1 $153 $154 $20 $-1 $155 reversed single #
loop $-1 $-1 $156 $56 #
plane-surface $-1 -32.799259246458149 -103.02578862312269 103.1133199902339 1 0 0 0 0.52991927123019833 -0.84804809178421925 forward_v I I I I #
coedge $-1 $157 $158 $159 $160 reversed $57 $-1 #
coedge $-1 $95 $59 $161 $162 reversed $37 $-1 #
coedge $-1 $59 $94 $157 $163 reversed $37 $-1 #
coedge $-1 $159 $164 $59 $97 forward $165 $-1 #
edge $-1 $166 12.543828703370387 $167 25.837665404484383 $96 $168 forward 7 unknown #
loop $-1 $-1 $103 $60 #
plane-surface $-1 -20.223683663783724 -38.969065608190959 0.60113621429231046 0 -0.52991927123019833 0.84804809178421925 1 0 0 forward_v I I I I #
loop $-1 $-1 $169 $39 #
coedge $-1 $101 $101 $102 $170 reversed $61 $-1 #
coedge $-1 $102 $102 $101 $170 forward $63 $-1 #
coedge $-1 $103 $103 $64 $104 forward $98 $-1 #
edge $-1 $171 4.2422632106812069e-016 $171 6.2831853071796004 $103 $172 forward 7 unknown #
face $-1 $173 $174 $22 $-1 $175 reversed single #
loop $-1 $-1 $176 $65 #
plane-surface $-1 22.82829441399543 -103.02578862312269 103.1133199902339 1 0 0 0 0.52991927123019833 -0.84804809178421925 forward_v I I I I #
coedge $-1 $177 $178 $179 $180 reversed $66 $-1 #
coedge $-1 $110 $68 $181 $182 reversed $43 $-1 #
coedge $-1 $68 $109 $177 $183 reversed $43 $-1 #
coedge $-1 $179 $184 $68 $112 forward $185 $-1 #
edge $-1 $186 12.543828703370387 $187 25.837665404484383 $111 $188 forward 7 unknown #
loop $-1 $-1 $118 $69 #
plane-surface $-1 35.403869996669854 -38.969065608190959 0.60113621429231046 0 -0.52991927123019833 0.84804809178421925 1 0 0 forward_v I I I I #
loop $-1 $-1 $189 $45 #
coedge $-1 $116 $116 $117 $190 reversed $70 $-1 #
coedge $-1 $117 $117 $116 $190 forward $72 $-1 #
coedge $-1 $118 $118 $73 $119 forward $113 $-1 #
edge $-1 $191 4.2422632106812069e-016 $191 6.2831853071796004 $118 $192 forward 7 unknown #
face $-1 $193 $194 $18 $-1 $195 reversed single #
loop $-1 $-1 $196 $74 #
plane-surface $-1 -60.440076906643881 0 0 1 0 0 0 0 -1 forward_v I I I I #
coedge $-1 $197 $131 $198 $199 forward $75 $-1 #
coedge $-1 $200 $77 $197 $201 forward $49 $-1 #
coedge $-1 $77 $200 $202 $203 forward $49 $-1 #
coedge $-1 $134 $133 $77 $127 reversed $135 $-1 #
edge $-1 $204 -38.969065608190959 $205 38.969065608190959 $126 $206 forward 7 unknown #
coedge $-1 $79 $78 $207 $208 forward $31 $-1 #
coedge $-1 $209 $210 $78 $130 reversed $194 $-1 #
edge $-1 $137 -60.440076906643881 $211 60.440076906643881 $129 $212 forward 7 unknown #
coedge $-1 $123 $213 $79 $132 reversed $75 $-1 #
edge $-1 $214 -60.440076906643881 $136 60.440076906643881 $131 $215 forward 7 unknown #
coedge $-1 $126 $80 $213 $216 forward $135 $-1 #
coedge $-1 $80 $126 $209 $217 reversed $135 $-1 #
loop $-1 $-1 $133 $193 #
vertex $-1 $81 $218 #
vertex $-1 $81 $219 #
straight-curve $-1 60.440076906643881 0 8.9080474906165588 0 1 0 I I #
face $-1 $220 $221 $19 $-1 $222 reversed single #
loop $-1 $-1 $223 $82 #
plane-surface $-1 -65.252600152834177 0 -6.5253427918943121 0 0 1 1 0 0 forward_v I I I I #
coedge $-1 $224 $85 $225 $226 reversed $53 $-1 #
coedge $-1 $85 $224 $148 $227 reversed $53 $-1 #
edge $-1 $150 2.4305281029339327 $228 6.5253427918943121 $85 $229 forward 7 unknown #
coedge $-1 $87 $86 $223 $230 forward $34 $-1 #
coedge $-1 $231 $232 $86 $147 forward $233 $-1 #
edge $-1 $234 -6.5253427918943121 $151 -2.4305281029339327 $146 $235 forward 7 unknown #
coedge $-1 $236 $88 $143 $227 forward $83 $-1 #
coedge $-1 $88 $236 $231 $237 forward $83 $-1 #
vertex $-1 $144 $238 #
vertex $-1 $237 $239 #
straight-curve $-1 -60.440076906643881 0 -2.4305281029339327 0 -1 0 I I #
face $-1 $-1 $165 $20 $-1 $240 forward single #
loop $-1 $-1 $241 $90 #
plane-surface $-1 0 -38.969065608190959 0 0 1 0 0 0 1 forward_v I I I I #
coedge $-1 $242 $243 $244 $245 reversed $91 $-1 #
coedge $-1 $246 $93 $95 $163 forward $57 $-1 #
coedge $-1 $93 $246 $242 $247 forward $57 $-1 #
coedge $-1 $244 $96 $93 $160 forward $165 $-1 #
edge $-1 $167 -2.4637337507825627 $248 22.687417414566287 $159 $249 forward 7 unknown #
coedge $-1 $250 $251 $94 $162 forward $154 $-1 #
edge $-1 $252 -50.955523780824642 $166 -42.648612504500392 $161 $253 forward 7 unknown #
edge $-1 $167 -15.675805216594405 $252 0 $95 $254 forward 7 unknown #
coedge $-1 $96 $244 $250 $255 forward $165 $-1 #
loop $-1 $-1 $244 $153 #
vertex $-1 $162 $256 #
vertex $-1 $97 $257 #
straight-curve $-1 -7.6481080811092994 -51.512894311561347 8.9080474906165605 0 1 0 I I #
coedge $-1 $169 $169 $-1 $258 reversed $100 $-1 #
edge $-1 $259 0 $259 6.2831853071796004 $101 $260 forward 7 unknown #
vertex $-1 $104 $261 #
ellipse-curve $-1 -20.223683663783724 -32.322147257633958 4.7545918524544382 0 -0.52991927123019833 0.84804809178421925 2 0 0 1 I I #
face $-1 $-1 $185 $22 $-1 $262 forward single #
loop $-1 $-1 $263 $105 #
plane-surface $-1 0 -38.969065608190959 0 0 1 0 0 0 1 forward_v I I I I #
coedge $-1 $264 $265 $266 $267 reversed $106 $-1 #
coedge $-1 $268 $108 $110 $183 forward $66 $-1 #
coedge $-1 $108 $268 $264 $269 forward $66 $-1 #
coedge $-1 $266 $111 $108 $180 forward $185 $-1 #
edge $-1 $187 -30.277510581009352 $270 -5.1263594156605023 $179 $271 forward 7 unknown #
coedge $-1 $272 $273 $109 $182 forward $174 $-1 #
edge $-1 $274 -50.955523780824642 $186 -42.648612504500392 $181 $275 forward 7 unknown #
edge $-1 $187 -15.675805216594405 $274 0 $110 $276 forward 7 unknown #
coedge $-1 $111 $266 $272 $277 forward $185 $-1 #
loop $-1 $-1 $266 $173 #
vertex $-1 $182 $278 #
vertex $-1 $112 $279 #
straight-curve $-1 47.979445579344279 -51.512894311561347 8.9080474906165605 0 1 0 I I #
coedge $-1 $189 $189 $-1 $280 reversed $115 $-1 #
edge $-1 $281 0 $281 6.2831853071796004 $116 $282 forward 7 unknown #
vertex $-1 $119 $283 #
ellipse-curve $-1 35.403869996669854 -32.322147257633958 4.7545918524544382 0 -0.52991927123019833 0.84804809178421925 2 0 0 1 I I #
face $-1 $-1 $135 $18 $-1 $284 reversed single #
loop $-1 $-1 $209 $120 #
plane-surface $-1 0 38.969065608190959 0 0 -1 0 0 0 -1 forward_v I I I I #
coedge $-1 $285 $207 $210 $286 forward $121 $-1 #
coedge $-1 $213 $123 $124 $201 reversed $75 $-1 #
coedge $-1 $207 $285 $123 $199 reversed $121 $-1 #
edge $-1 $214 -8.9080474906165588 $287 8.9080474906165588 $198 $288 forward 7 unknown #
coedge $-1 $125 $124 $285 $289 forward $49 $-1 #
edge $-1 $205 -60.440076906643881 $287 60.440076906643881 $197 $290 forward 7 unknown #
coedge $-1 $210 $209 $125 $203 reversed $194 $-1 #
edge $-1 $291 -60.440076906643881 $204 60.440076906643881 $202 $292 forward 7 unknown #
vertex $-1 $127 $293 #
vertex $-1 $216 $294 #
straight-curve $-1 60.440076906643881 0 -8.9080474906165588 0 -1 0 I I #
coedge $-1 $196 $198 $128 $208 reversed $121 $-1 #
edge $-1 $211 -38.969065608190959 $214 38.969065608190959 $207 $295 forward 7 unknown #
coedge $-1 $202 $129 $134 $217 forward $194 $-1 #
coedge $-1 $129 $202 $196 $286 reversed $194 $-1 #
vertex $-1 $130 $296 #
straight-curve $-1 0 38.969065608190959 8.9080474906165588 -1 0 0 I I #
coedge $-1 $131 $197 $133 $216 reversed $75 $-1 #
vertex $-1 $208 $297 #
straight-curve $-1 0 -38.969065608190959 8.9080474906165588 1 0 0 I I #
edge $-1 $136 -8.9080474906165588 $205 8.9080474906165588 $133 $298 forward 7 unknown #
edge $-1 $137 -8.9080474906165588 $204 8.9080474906165588 $134 $299 forward 7 unknown #
point $-1 60.440076906643881 -38.969065608190959 8.9080474906165588 #
point $-1 60.440076906643881 38.969065608190959 8.9080474906165588 #
face $-1 $-1 $233 $19 $-1 $300 reversed single #
loop $-1 $-1 $301 $139 #
plane-surface $-1 -70.065123399024472 0 -4.4779354474141222 1 0 0 0 0 -1 forward_v I I I I #
coedge $-1 $302 $225 $145 $230 reversed $140 $-1 #
coedge $-1 $143 $142 $301 $303 reversed $53 $-1 #
coedge $-1 $223 $304 $142 $226 forward $140 $-1 #
edge $-1 $305 -4.8125232461902954 $228 4.8125232461903025 $142 $306 forward 7 unknown #
edge $-1 $150 -4.8125232461903025 $307 4.8125232461902954 $143 $308 forward 7 unknown #
vertex $-1 $144 $309 #
straight-curve $-1 -60.440076906643881 38.969065608190959 0 0 0 -1 I I #
edge $-1 $234 -38.969065608190959 $228 38.969065608190959 $223 $310 forward 7 unknown #
coedge $-1 $311 $146 $149 $237 reversed $233 $-1 #
coedge $-1 $146 $311 $302 $312 reversed $233 $-1 #
loop $-1 $-1 $146 $220 #
vertex $-1 $147 $313 #
straight-curve $-1 -60.440076906643881 -38.969065608190959 0 0 0 1 I I #
coedge $-1 $149 $148 $314 $315 forward $83 $-1 #
edge $-1 $316 -4.8125232461902954 $151 4.8125232461903025 $231 $317 forward 7 unknown #
point $-1 -60.440076906643874 38.969065608190959 -2.4305281029339327 #
point $-1 -60.440076906643874 -38.969065608190959 -2.4305281029339327 #
plane-surface $-1 0 0 8.9080474906165588 0 0 1 1 0 0 forward_v I I I I #
coedge $-1 $251 $250 $243 $318 forward $154 $-1 #
coedge $-1 $243 $156 $158 $247 reversed $91 $-1 #
coedge $-1 $156 $242 $241 $318 reversed $91 $-1 #
coedge $-1 $164 $159 $156 $245 forward $165 $-1 #
edge $-1 $248 -25.837665404484383 $319 -12.543828703370387 $244 $320 forward 7 unknown #
coedge $-1 $158 $157 $251 $321 reversed $57 $-1 #
edge $-1 $322 0 $248 15.675805216594405 $242 $323 forward 7 unknown #
vertex $-1 $160 $324 #
straight-curve $-1 -10.111841831891862 -25.675228907076963 8.9080474906165588 -1 0 0 I I #
coedge $-1 $241 $161 $164 $255 reversed $154 $-1 #
coedge $-1 $161 $241 $246 $321 forward $154 $-1 #
vertex $-1 $162 $325 #
straight-curve $-1 -7.6481080811092994 -38.969065608190959 51.556659995116952 0 0 1 I I #
straight-curve $-1 -7.6481080811092994 -38.969065608190959 0.60113621429231046 0 -0.84804809178421925 -0.52991927123019833 I I #
edge $-1 $319 -32.799259246458149 $166 -7.6481080811092994 $250 $326 forward 7 unknown #
point $-1 -7.6481080811092994 -38.969065608190959 8.9080474906165588 #
point $-1 -7.6481080811092994 -25.675228907076963 8.9080474906165588 #
edge $-1 $327 1 $327 0 $169 $-1 forward 7 unknown #
vertex $-1 $170 $328 #
ellipse-curve $-1 -20.223683663783724 -31.22038999356252 2.9914116925102241 0 -0.52991927123019833 0.84804809178421925 2 0 0 1 I I #
point $-1 -18.223683663783724 -32.322147257633951 4.7545918524544284 #
plane-surface $-1 0 0 8.9080474906165588 0 0 1 1 0 0 forward_v I I I I #
coedge $-1 $273 $272 $265 $329 forward $174 $-1 #
coedge $-1 $265 $176 $178 $269 reversed $106 $-1 #
coedge $-1 $176 $264 $263 $329 reversed $106 $-1 #
coedge $-1 $184 $179 $176 $267 forward $185 $-1 #
edge $-1 $270 -25.837665404484383 $330 -12.543828703370387 $266 $331 forward 7 unknown #
coedge $-1 $178 $177 $273 $332 reversed $66 $-1 #
edge $-1 $333 0 $270 15.675805216594405 $264 $334 forward 7 unknown #
vertex $-1 $180 $335 #
straight-curve $-1 17.701934998334927 -25.675228907076963 8.9080474906165588 -1 0 0 I I #
coedge $-1 $263 $181 $184 $277 reversed $174 $-1 #
coedge $-1 $181 $263 $268 $332 forward $174 $-1 #
vertex $-1 $182 $336 #
straight-curve $-1 47.979445579344279 -38.969065608190959 51.556659995116952 0 0 1 I I #
straight-curve $-1 47.979445579344279 -38.969065608190959 0.60113621429231046 0 -0.84804809178421925 -0.52991927123019833 I I #
edge $-1 $330 22.82829441399543 $186 47.979445579344279 $272 $337 forward 7 unknown #
point $-1 47.979445579344279 -38.969065608190959 8.9080474906165588 #
point $-1 47.979445579344279 -25.675228907076963 8.9080474906165588 #
edge $-1 $338 1 $338 0 $189 $-1 forward 7 unknown #
vertex $-1 $190 $339 #
ellipse-curve $-1 35.403869996669854 -31.22038999356252 2.9914116925102241 0 -0.52991927123019833 0.84804809178421925 2 0 0 1 I I #
point $-1 37.403869996669854 -32.322147257633951 4.7545918524544284 #
plane-surface $-1 60.440076906643881 0 0 -1 0 0 0 0 1 forward_v I I I I #
coedge $-1 $198 $196 $200 $289 reversed $121 $-1 #
edge $-1 $211 -8.9080474906165588 $291 8.9080474906165588 $210 $340 forward 7 unknown #
vertex $-1 $289 $341 #
straight-curve $-1 -60.440076906643881 -38.969065608190959 0 0 0 -1 I I #
edge $-1 $287 -38.969065608190959 $291 38.969065608190959 $285 $342 forward 7 unknown #
straight-curve $-1 0 -38.969065608190959 -8.9080474906165588 -1 0 0 I I #
vertex $-1 $203 $343 #
straight-curve $-1 0 38.969065608190959 -8.9080474906165588 1 0 0 I I #
point $-1 60.440076906643881 38.969065608190959 -8.9080474906165588 #
point $-1 60.440076906643881 -38.969065608190959 -8.9080474906165588 #
straight-curve $-1 -60.440076906643881 0 8.9080474906165588 0 -1 0 I I #
point $-1 -60.440076906643881 38.969065608190959 8.9080474906165588 #
point $-1 -60.440076906643881 -38.969065608190959 8.9080474906165588 #
straight-curve $-1 60.440076906643881 -38.969065608190959 0 0 0 -1 I I #
straight-curve $-1 60.440076906643881 38.969065608190959 0 0 0 -1 I I #
plane-surface $-1 0 -38.969065608190959 0 0 1 0 0 0 1 forward_v I I I I #
coedge $-1 $344 $314 $224 $303 forward $221 $-1 #
coedge $-1 $304 $223 $232 $312 forward $140 $-1 #
edge $-1 $307 -2.0474073444801895 $305 2.0474073444801899 $224 $345 forward 7 unknown #
coedge $-1 $225 $302 $344 $346 forward $140 $-1 #
vertex $-1 $226 $347 #
straight-curve $-1 -65.252600152834177 38.969065608190959 -6.5253427918943121 1 0 0 I I #
vertex $-1 $227 $348 #
straight-curve $-1 -65.252600152834177 38.969065608190959 -2.4305281029339327 -1 0 0 I I #
point $-1 -60.440076906643874 38.969065608190959 -6.5253427918943121 #
straight-curve $-1 -60.440076906643881 0 -6.5253427918943121 0 1 0 I I #
coedge $-1 $232 $231 $349 $350 forward $233 $-1 #
edge $-1 $234 -4.8125232461903025 $351 4.8125232461902954 $232 $352 forward 7 unknown #
point $-1 -60.440076906643874 -38.969065608190959 -6.5253427918943121 #
coedge $-1 $301 $349 $236 $315 reversed $221 $-1 #
edge $-1 $307 -38.969065608190959 $316 38.969065608190959 $314 $353 forward 7 unknown #
vertex $-1 $315 $354 #
straight-curve $-1 -65.252600152834177 -38.969065608190959 -2.4305281029339327 1 0 0 I I #
edge $-1 $319 42.648612504500392 $322 50.955523780824642 $241 $355 forward 7 unknown #
vertex $-1 $255 $356 #
straight-curve $-1 -32.799259246458149 -51.512894311561347 8.9080474906165605 0 -1 0 I I #
edge $-1 $322 -22.687417414566287 $252 2.4637337507825627 $251 $357 forward 7 unknown #
vertex $-1 $321 $358 #
straight-curve $-1 -32.799259246458149 -38.969065608190959 0.60113621429231046 0 0.84804809178421925 0.52991927123019833 I I #
point $-1 -32.799259246458149 -25.675228907076963 8.9080474906165588 #
point $-1 -7.6481080811092994 -38.969065608190959 0.60113621429231046 #
straight-curve $-1 0 -38.969065608190959 8.9080474906165588 1 0 0 I I #
vertex $-1 $258 $359 #
point $-1 -18.223683663783724 -31.22038999356252 2.9914116925102241 #
edge $-1 $330 42.648612504500392 $333 50.955523780824642 $263 $360 forward 7 unknown #
vertex $-1 $277 $361 #
straight-curve $-1 22.82829441399543 -51.512894311561347 8.9080474906165605 0 -1 0 I I #
edge $-1 $333 5.1263594156605023 $274 30.277510581009352 $273 $362 forward 7 unknown #
vertex $-1 $332 $363 #
straight-curve $-1 22.82829441399543 -38.969065608190959 0.60113621429231046 0 0.84804809178421925 0.52991927123019833 I I #
point $-1 22.82829441399543 -25.675228907076963 8.9080474906165588 #
point $-1 47.979445579344279 -38.969065608190959 0.60113621429231046 #
straight-curve $-1 0 -38.969065608190959 8.9080474906165588 1 0 0 I I #
vertex $-1 $280 $364 #
point $-1 37.403869996669854 -31.22038999356252 2.9914116925102241 #
straight-curve $-1 -60.440076906643881 38.969065608190959 0 0 0 -1 I I #
point $-1 -60.440076906643881 -38.969065608190959 -8.9080474906165588 #
straight-curve $-1 -60.440076906643881 0 -8.9080474906165588 0 1 0 I I #
point $-1 -60.440076906643881 38.969065608190959 -8.9080474906165588 #
coedge $-1 $349 $301 $304 $346 reversed $221 $-1 #
straight-curve $-1 -70.065123399024472 38.969065608190959 -4.4779354474141222 0 0 -1 I I #
edge $-1 $351 -38.969065608190959 $305 38.969065608190959 $344 $365 forward 7 unknown #
point $-1 -70.065123399024472 38.969065608190959 -6.5253427918943121 #
point $-1 -70.065123399024472 38.969065608190959 -2.4305281029339327 #
coedge $-1 $314 $344 $311 $350 reversed $221 $-1 #
edge $-1 $316 -2.0474073444801895 $351 2.0474073444801899 $349 $366 forward 7 unknown #
vertex $-1 $346 $367 #
straight-curve $-1 -65.252600152834177 -38.969065608190959 -6.5253427918943121 -1 0 0 I I #
straight-curve $-1 -70.065123399024472 0 -2.4305281029339327 0 -1 0 I I #
point $-1 -70.065123399024472 -38.969065608190959 -2.4305281029339327 #
straight-curve $-1 -32.799259246458149 -38.969065608190959 51.556659995116952 0 0 -1 I I #
point $-1 -32.799259246458149 -38.969065608190959 8.9080474906165588 #
straight-curve $-1 -10.111841831891862 -38.969065608190959 0.60113621429230923 1 0 0 I I #
point $-1 -32.799259246458149 -38.969065608190959 0.60113621429231046 #
point $-1 -20.223683663783724 -30.160551451102123 1.2953155089417856 #
straight-curve $-1 22.82829441399543 -38.969065608190959 51.556659995116952 0 0 -1 I I #
point $-1 22.82829441399543 -38.969065608190959 8.9080474906165588 #
straight-curve $-1 17.701934998334927 -38.969065608190959 0.60113621429230923 1 0 0 I I #
point $-1 22.82829441399543 -38.969065608190959 0.60113621429231046 #
point $-1 35.403869996669854 -30.160551451102123 1.2953155089417856 #
straight-curve $-1 -70.065123399024472 0 -6.5253427918943121 0 1 0 I I #
straight-curve $-1 -70.065123399024472 -38.969065608190959 -4.4779354474141222 0 0 -1 I I #
point $-1 -70.065123399024472 -38.969065608190959 -6.5253427918943121 #
End-of-ACIS-data 