500 0 7 0           
7 Unknown 11 ACIS 5.0 NT 24 Fri Mar 26 00:55:13 1999 
-1 9.9999999999999995e-007 1e-010 
body $-1 $7 $-1 $8 #
body $-1 $9 $-1 $10 #
body $-1 $11 $-1 $12 #
body $-1 $13 $-1 $14 #
body $-1 $15 $-1 $16 #
body $-1 $17 $-1 $18 #
body $-1 $19 $-1 $20 #
lump $-1 $-1 $21 $0 #
transform $-1 1 0 0 0 1 0 0 0 1 79.346903897213664 52.528730390915804 10.576923654078319 1 rotate no_reflect no_shear #
lump $-1 $-1 $22 $1 #
transform $-1 1 0 0 0 1 0 0 0 1 79.346903897213664 52.528730390915804 10.576923654078319 1 rotate no_reflect no_shear #
lump $-1 $-1 $23 $2 #
transform $-1 1 0 0 0 1 0 0 0 1 79.346903897213664 52.528730390915804 10.576923654078319 1 rotate no_reflect no_shear #
lump $-1 $-1 $24 $3 #
transform $-1 1 0 0 0 1 0 0 0 1 79.346903897213664 52.528730390915804 10.576923654078319 1 rotate no_reflect no_shear #
lump $-1 $-1 $25 $4 #
transform $-1 1 0 0 0 1 0 0 0 1 79.346903897213664 52.528730390915804 10.576923654078319 1 rotate no_reflect no_shear #
lump $-1 $-1 $26 $5 #
transform $-1 1 0 0 0 1 0 0 0 1 79.346903897213664 52.528730390915804 10.576923654078319 1 rotate no_reflect no_shear #
lump $-1 $-1 $27 $6 #
transform $-1 1 0 0 0 1 0 0 0 1 79.346903897213664 52.528730390915804 10.576923654078319 1 rotate no_reflect no_shear #
shell $-1 $-1 $-1 $28 $-1 $7 #
shell $-1 $-1 $-1 $29 $-1 $9 #
shell $-1 $-1 $-1 $30 $-1 $11 #
shell $-1 $-1 $-1 $31 $-1 $13 #
shell $-1 $-1 $-1 $32 $-1 $15 #
shell $-1 $-1 $-1 $33 $-1 $17 #
shell $-1 $-1 $-1 $34 $-1 $19 #
face $-1 $35 $36 $21 $-1 $37 forward single #
face $-1 $38 $39 $22 $-1 $40 reversed single #
face $-1 $41 $42 $23 $-1 $43 reversed single #
face $-1 $44 $45 $24 $-1 $46 forward single #
face $-1 $47 $48 $25 $-1 $49 forward single #
face $-1 $50 $51 $26 $-1 $52 reversed single #
face $-1 $53 $54 $27 $-1 $55 forward single #
face $-1 $56 $57 $21 $-1 $58 reversed single #
loop $-1 $-1 $59 $28 #
plane-surface $-1 0 0 10.576923654078319 0 0 1 1 0 0 forward_v I I I I #
face $-1 $60 $61 $22 $-1 $62 reversed single #
loop $-1 $-1 $63 $29 #
plane-surface $-1 0 -48.917443862158642 4.6191527295712387 0 0 1 1 0 0 forward_v I I I I #
face $-1 $64 $65 $23 $-1 $66 reversed single #
loop $-1 $-1 $67 $30 #
plane-surface $-1 -79.346903897213679 -39.833679719780619 4.1208641755220157 -0.81915205242281985 0 0.57357642473473569 0.57357642473473569 0 0.81915205242281985 forward_v I I I I #
face $-1 $68 $69 $24 $-1 $70 forward single #
loop $-1 $71 $72 $31 #
cone-surface $-1 -75.938620368089474 -42.179027268475274 6.5450606984470125 0.81915205242281985 0 -0.57357642473473569 0.86036463710210354 0 1.2287280786342298 1 I I 0 1 1.5 forward I I I I #
face $-1 $73 $74 $25 $-1 $75 forward single #
loop $-1 $76 $77 $32 #
cone-surface $-1 -75.938620368089474 -37.488332171085958 6.5450606984470125 0.81915205242281985 0 -0.57357642473473569 0.86036463710210354 0 1.2287280786342298 1 I I 0 1 1.5 forward I I I I #
face $-1 $78 $79 $26 $-1 $80 reversed single #
loop $-1 $-1 $81 $33 #
plane-surface $-1 106.69767012480871 -24.214617011167217 228.26445433915251 0 -1 0 -0.78801076186113728 0 -0.61566146476048833 forward_v I I I I #
face $-1 $82 $83 $27 $-1 $84 forward single #
loop $-1 $85 $86 $34 #
cone-surface $-1 76.619599192716635 -31.976288277494589 7.459172119529728 -0.78801076186113728 0 -0.61566146476048833 0.9234921971407325 0 -1.182016142791706 1 I I 0 1 1.5 forward I I I I #
face $-1 $87 $88 $21 $-1 $89 reversed single #
loop $-1 $-1 $90 $35 #
plane-surface $-1 0 0 -10.576923654078319 0 0 1 1 0 0 forward_v I I I I #
coedge $-1 $91 $92 $93 $94 forward $36 $-1 #
face $-1 $95 $96 $22 $-1 $97 reversed single #
loop $-1 $-1 $98 $38 #
plane-surface $-1 0 -45.30615733340148 7.598038191824779 0 -1 0 0 0 -1 forward_v I I I I #
coedge $-1 $99 $100 $101 $102 reversed $39 $-1 #
face $-1 $103 $104 $23 $-1 $105 forward single #
loop $-1 $-1 $106 $41 #
plane-surface $-1 -209.3412622588113 -34.361202106159752 95.143891077790968 0 -1 0 0.81915205242281985 0 -0.57357642473473569 forward_v I I I I #
coedge $-1 $107 $108 $109 $110 reversed $42 $-1 #
face $-1 $-1 $111 $24 $-1 $112 forward single #
loop $-1 $113 $114 $44 #
cone-surface $-1 -74.176263488435794 -42.179027268475274 5.311045163542806 0.81915205242281985 0 -0.57357642473473569 0.43018231855105177 0 0.61436403931711492 1 I I -0.70710678118654757 0.70710678118654757 0.75 forward I I I I #
loop $-1 $-1 $115 $31 #
coedge $-1 $72 $72 $116 $117 reversed $45 $-1 #
face $-1 $-1 $118 $25 $-1 $119 forward single #
loop $-1 $120 $121 $47 #
cone-surface $-1 -74.176263488435794 -37.488332171085958 5.311045163542806 0.81915205242281985 0 -0.57357642473473569 0.43018231855105177 0 0.61436403931711492 1 I I -0.70710678118654757 0.70710678118654757 0.75 forward I I I I #
loop $-1 $-1 $122 $32 #
coedge $-1 $77 $77 $123 $124 reversed $48 $-1 #
face $-1 $125 $126 $26 $-1 $127 reversed single #
loop $-1 $-1 $128 $50 #
plane-surface $-1 -18.354758257922853 -31.976288277494589 130.56279218401596 0.78801076186113728 0 0.61566146476048833 0.61566146476048833 0 -0.78801076186113728 forward_v I I I I #
coedge $-1 $129 $130 $131 $132 reversed $51 $-1 #
face $-1 $-1 $133 $27 $-1 $134 forward single #
loop $-1 $135 $136 $53 #
cone-surface $-1 75.280501556538709 -31.976288277494589 6.4129544128077303 -0.78801076186113728 0 -0.61566146476048833 0.46174609857036625 0 -0.59100807139585299 1 I I -0.70710678118654757 0.70710678118654757 0.75 forward I I I I #
loop $-1 $-1 $137 $34 #
coedge $-1 $86 $86 $138 $139 reversed $54 $-1 #
face $-1 $140 $141 $21 $-1 $142 reversed single #
loop $-1 $-1 $143 $56 #
plane-surface $-1 0 -52.528730390915804 0 0 1 0 0 0 1 forward_v I I I I #
coedge $-1 $144 $145 $146 $147 forward $57 $-1 #
coedge $-1 $148 $59 $149 $150 forward $36 $-1 #
coedge $-1 $59 $148 $151 $152 forward $36 $-1 #
coedge $-1 $153 $154 $59 $94 reversed $155 $-1 #
edge $-1 $156 -52.528730390915804 $157 52.528730390915804 $93 $158 forward 7 unknown #
face $-1 $159 $160 $22 $-1 $161 reversed single #
loop $-1 $-1 $162 $60 #
plane-surface $-1 -79.346903897213664 0 0 1 0 0 0 0 -1 forward_v I I I I #
coedge $-1 $163 $164 $165 $166 reversed $61 $-1 #
coedge $-1 $167 $63 $168 $169 reversed $39 $-1 #
coedge $-1 $63 $167 $163 $170 forward $39 $-1 #
coedge $-1 $165 $171 $63 $102 forward $172 $-1 #
edge $-1 $173 -28.070008459836483 $174 -20.847435402322159 $101 $175 forward 7 unknown #
face $-1 $176 $177 $23 $-1 $178 reversed single #
loop $-1 $-1 $109 $64 #
plane-surface $-1 0 0 10.576923654078319 0 0 1 1 0 0 forward_v I I I I #
coedge $-1 $179 $180 $181 $182 reversed $65 $-1 #
coedge $-1 $183 $67 $184 $185 reversed $42 $-1 #
coedge $-1 $67 $183 $179 $186 forward $42 $-1 #
coedge $-1 $181 $187 $67 $110 forward $104 $-1 #
edge $-1 $188 -25.38931747351117 $189 -14.444362246269442 $109 $190 forward 7 unknown #
loop $-1 $-1 $116 $68 #
plane-surface $-1 -79.346903897213679 -39.833679719780619 4.1208641755220157 -0.81915205242281985 0 0.57357642473473569 0.57357642473473569 0 0.81915205242281985 forward_v I I I I #
loop $-1 $-1 $191 $44 #
coedge $-1 $114 $114 $115 $192 reversed $69 $-1 #
coedge $-1 $115 $115 $114 $192 forward $71 $-1 #
coedge $-1 $116 $116 $72 $117 forward $111 $-1 #
edge $-1 $193 0 $193 6.2831853071796004 $116 $194 forward 7 unknown #
loop $-1 $-1 $123 $73 #
plane-surface $-1 -79.346903897213679 -39.833679719780619 4.1208641755220157 -0.81915205242281985 0 0.57357642473473569 0.57357642473473569 0 0.81915205242281985 forward_v I I I I #
loop $-1 $-1 $195 $47 #
coedge $-1 $121 $121 $122 $196 reversed $74 $-1 #
coedge $-1 $122 $122 $121 $196 forward $76 $-1 #
coedge $-1 $123 $123 $77 $124 forward $118 $-1 #
edge $-1 $197 0 $197 6.2831853071796004 $123 $198 forward 7 unknown #
face $-1 $199 $200 $26 $-1 $201 reversed single #
loop $-1 $-1 $202 $78 #
plane-surface $-1 106.69767012480871 -39.737959543821958 228.26445433915251 0 1 0 0.78801076186113728 0 0.61566146476048833 forward_v I I I I #
coedge $-1 $203 $204 $205 $206 reversed $79 $-1 #
coedge $-1 $130 $81 $207 $208 reversed $51 $-1 #
coedge $-1 $81 $129 $203 $209 reversed $51 $-1 #
coedge $-1 $205 $210 $81 $132 forward $211 $-1 #
edge $-1 $212 -25.99806883480931 $213 -22.039638555379376 $131 $214 forward 7 unknown #
loop $-1 $-1 $138 $82 #
plane-surface $-1 -18.354758257922853 -31.976288277494589 130.56279218401596 0.78801076186113728 0 0.61566146476048833 0.61566146476048833 0 -0.78801076186113728 forward_v I I I I #
loop $-1 $-1 $215 $53 #
coedge $-1 $136 $136 $137 $216 reversed $83 $-1 #
coedge $-1 $137 $137 $136 $216 forward $85 $-1 #
coedge $-1 $138 $138 $86 $139 forward $133 $-1 #
edge $-1 $217 0 $217 6.2831853071796004 $138 $218 forward 7 unknown #
face $-1 $219 $220 $21 $-1 $221 reversed single #
loop $-1 $-1 $222 $87 #
plane-surface $-1 -79.346903897213664 0 0 1 0 0 0 0 -1 forward_v I I I I #
coedge $-1 $223 $151 $224 $225 forward $88 $-1 #
coedge $-1 $226 $90 $223 $227 forward $57 $-1 #
coedge $-1 $90 $226 $228 $229 forward $57 $-1 #
coedge $-1 $154 $153 $90 $147 reversed $155 $-1 #
edge $-1 $230 -52.528730390915804 $231 52.528730390915804 $146 $232 forward 7 unknown #
coedge $-1 $92 $91 $233 $234 forward $36 $-1 #
coedge $-1 $235 $236 $91 $150 reversed $220 $-1 #
edge $-1 $157 -79.346903897213664 $237 79.346903897213664 $149 $238 forward 7 unknown #
coedge $-1 $143 $239 $92 $152 reversed $88 $-1 #
edge $-1 $240 -79.346903897213664 $156 79.346903897213664 $151 $241 forward 7 unknown #
coedge $-1 $146 $93 $239 $242 forward $155 $-1 #
coedge $-1 $93 $146 $235 $243 reversed $155 $-1 #
loop $-1 $-1 $153 $219 #
vertex $-1 $94 $244 #
vertex $-1 $94 $245 #
straight-curve $-1 79.346903897213664 0 10.576923654078319 0 1 0 I I #
face $-1 $246 $247 $22 $-1 $248 forward single #
loop $-1 $-1 $168 $95 #
plane-surface $-1 0 -52.528730390915804 0 0 1 0 0 0 1 forward_v I I I I #
coedge $-1 $249 $250 $251 $252 forward $96 $-1 #
coedge $-1 $251 $98 $100 $170 reversed $61 $-1 #
coedge $-1 $98 $251 $253 $254 reversed $61 $-1 #
coedge $-1 $255 $101 $98 $166 forward $172 $-1 #
edge $-1 $174 0.82013363365884917 $256 6.7779045581659298 $165 $257 forward 7 unknown #
coedge $-1 $100 $99 $249 $258 reversed $39 $-1 #
coedge $-1 $259 $260 $99 $169 forward $160 $-1 #
edge $-1 $261 -79.346903897213664 $173 79.346903897213664 $168 $262 forward 7 unknown #
edge $-1 $263 -79.346903897213664 $174 79.346903897213664 $163 $264 forward 7 unknown #
coedge $-1 $101 $255 $259 $265 forward $172 $-1 #
loop $-1 $-1 $165 $246 #
vertex $-1 $169 $266 #
vertex $-1 $102 $267 #
straight-curve $-1 79.346903897213664 -24.458721931079321 4.6191527295712387 0 1 0 I I #
face $-1 $-1 $268 $23 $-1 $269 forward single #
loop $-1 $-1 $270 $103 #
plane-surface $-1 -79.346903897213664 0 0 1 0 0 0 0 -1 forward_v I I I I #
coedge $-1 $180 $106 $108 $186 reversed $65 $-1 #
coedge $-1 $106 $179 $270 $271 reversed $65 $-1 #
coedge $-1 $272 $109 $106 $182 forward $104 $-1 #
edge $-1 $189 -29.844308609767197 $273 -25.323727232191985 $181 $274 forward 7 unknown #
coedge $-1 $108 $107 $275 $276 reversed $42 $-1 #
coedge $-1 $277 $278 $107 $185 forward $268 $-1 #
edge $-1 $279 -24.179923841610073 $188 -16.29853056491487 $184 $280 forward 7 unknown #
edge $-1 $281 2.4884734274515653e-014 $189 7.8813932766952206 $179 $282 forward 7 unknown #
coedge $-1 $109 $272 $277 $283 forward $104 $-1 #
vertex $-1 $185 $284 #
vertex $-1 $110 $285 #
straight-curve $-1 -74.826322519638452 -19.91683985989031 10.576923654078319 0 1 0 I I #
coedge $-1 $191 $191 $-1 $286 reversed $113 $-1 #
edge $-1 $287 0 $287 6.2831853071796004 $114 $288 forward 7 unknown #
vertex $-1 $117 $289 #
ellipse-curve $-1 -77.086613208426058 -42.179027268475274 7.3488939148001782 -0.81915205242281985 0 0.57357642473473569 0.86036463710210354 0 1.2287280786342298 1 I I #
coedge $-1 $195 $195 $-1 $290 reversed $120 $-1 #
edge $-1 $291 0 $291 6.2831853071796004 $121 $292 forward 7 unknown #
vertex $-1 $124 $293 #
ellipse-curve $-1 -77.086613208426058 -37.488332171085958 7.3488939148001782 -0.81915205242281985 0 0.57357642473473569 0.86036463710210354 0 1.2287280786342298 1 I I #
face $-1 $-1 $211 $26 $-1 $294 forward single #
loop $-1 $-1 $295 $125 #
plane-surface $-1 79.346903897213664 0 0 -1 0 0 0 0 1 forward_v I I I I #
coedge $-1 $296 $297 $298 $299 reversed $126 $-1 #
coedge $-1 $300 $128 $130 $209 forward $79 $-1 #
coedge $-1 $128 $300 $296 $301 forward $79 $-1 #
coedge $-1 $298 $131 $128 $206 forward $211 $-1 #
edge $-1 $213 8.2264728724199223 $302 23.749815405074663 $205 $303 forward 7 unknown #
coedge $-1 $304 $305 $129 $208 forward $200 $-1 #
edge $-1 $306 -108.62186336829184 $212 -103.55530351549794 $207 $307 forward 7 unknown #
edge $-1 $213 152.26425112082603 $306 158.6938077944273 $130 $308 forward 7 unknown #
coedge $-1 $131 $298 $304 $309 forward $211 $-1 #
loop $-1 $-1 $298 $199 #
vertex $-1 $208 $310 #
vertex $-1 $132 $311 #
straight-curve $-1 53.348835062404355 -24.214617011167217 10.576923654078314 -1 0 0 I I #
coedge $-1 $215 $215 $-1 $312 reversed $135 $-1 #
edge $-1 $313 0 $313 6.2831853071796004 $136 $314 forward 7 unknown #
vertex $-1 $139 $315 #
ellipse-curve $-1 77.367688757498698 -31.976288277494589 8.0436437276813511 0.78801076186113728 0 0.61566146476048833 0.9234921971407325 0 -1.182016142791706 1 I I #
face $-1 $-1 $155 $21 $-1 $316 reversed single #
loop $-1 $-1 $235 $140 #
plane-surface $-1 0 52.528730390915804 0 0 -1 0 0 0 -1 forward_v I I I I #
coedge $-1 $317 $233 $236 $318 forward $141 $-1 #
coedge $-1 $239 $143 $144 $227 reversed $88 $-1 #
coedge $-1 $233 $317 $143 $225 reversed $141 $-1 #
edge $-1 $240 -10.576923654078319 $319 10.576923654078319 $224 $320 forward 7 unknown #
coedge $-1 $145 $144 $317 $321 forward $57 $-1 #
edge $-1 $231 -79.346903897213664 $319 79.346903897213664 $223 $322 forward 7 unknown #
coedge $-1 $236 $235 $145 $229 reversed $220 $-1 #
edge $-1 $323 -79.346903897213664 $230 79.346903897213664 $228 $324 forward 7 unknown #
vertex $-1 $147 $325 #
vertex $-1 $242 $326 #
straight-curve $-1 79.346903897213664 0 -10.576923654078319 0 -1 0 I I #
coedge $-1 $222 $224 $148 $234 reversed $141 $-1 #
edge $-1 $237 -52.528730390915804 $240 52.528730390915804 $233 $327 forward 7 unknown #
coedge $-1 $228 $149 $154 $243 forward $220 $-1 #
coedge $-1 $149 $228 $222 $318 reversed $220 $-1 #
vertex $-1 $150 $328 #
straight-curve $-1 0 52.528730390915804 10.576923654078319 -1 0 0 I I #
coedge $-1 $151 $223 $153 $242 reversed $88 $-1 #
vertex $-1 $234 $329 #
straight-curve $-1 0 -52.528730390915804 10.576923654078319 1 0 0 I I #
edge $-1 $156 -10.576923654078319 $231 10.576923654078319 $153 $330 forward 7 unknown #
edge $-1 $157 -10.576923654078319 $230 10.576923654078319 $154 $331 forward 7 unknown #
point $-1 79.346903897213664 -52.528730390915804 10.576923654078319 #
point $-1 79.346903897213664 52.528730390915804 10.576923654078319 #
face $-1 $-1 $172 $22 $-1 $332 reversed single #
loop $-1 $-1 $253 $159 #
plane-surface $-1 0 0 10.576923654078319 0 0 1 1 0 0 forward_v I I I I #
coedge $-1 $333 $162 $167 $258 forward $96 $-1 #
coedge $-1 $162 $333 $334 $335 reversed $96 $-1 #
coedge $-1 $164 $163 $162 $252 reversed $61 $-1 #
edge $-1 $336 -6.7779045581659298 $263 -0.82013363365884917 $162 $337 forward 7 unknown #
coedge $-1 $334 $338 $164 $254 forward $247 $-1 #
edge $-1 $256 -79.346903897213664 $336 79.346903897213664 $253 $339 forward 7 unknown #
coedge $-1 $171 $165 $338 $340 reversed $172 $-1 #
vertex $-1 $166 $341 #
straight-curve $-1 79.346903897213664 -45.30615733340148 3.7990190959123895 0 0 1 I I #
edge $-1 $263 20.847435402322159 $261 28.070008459836483 $249 $342 forward 7 unknown #
coedge $-1 $343 $168 $171 $265 reversed $160 $-1 #
coedge $-1 $168 $343 $333 $344 forward $160 $-1 #
vertex $-1 $169 $345 #
straight-curve $-1 0 -52.528730390915804 4.6191527295712387 1 0 0 I I #
vertex $-1 $258 $346 #
straight-curve $-1 0 -45.30615733340148 4.6191527295712387 1 0 0 I I #
edge $-1 $347 -10.576923654078319 $173 -4.6191527295712387 $171 $348 forward 7 unknown #
point $-1 79.346903897213664 -52.528730390915804 4.6191527295712387 #
point $-1 79.346903897213664 -45.30615733340148 4.6191527295712387 #
loop $-1 $-1 $184 $176 #
plane-surface $-1 0 -45.30615733340148 7.598038191824779 0 -1 0 0 0 -1 forward_v I I I I #
coedge $-1 $275 $349 $180 $271 forward $177 $-1 #
edge $-1 $273 36.995021884817163 $281 43.451081363373447 $270 $350 forward 7 unknown #
coedge $-1 $187 $181 $349 $351 forward $104 $-1 #
vertex $-1 $351 $352 #
straight-curve $-1 -104.67063112940565 -34.361202106159752 10.576923654078321 -1 0 0 I I #
coedge $-1 $353 $270 $183 $276 forward $177 $-1 #
edge $-1 $281 14.444362246269442 $279 25.389317473511177 $275 $354 forward 7 unknown #
coedge $-1 $278 $184 $187 $283 reversed $268 $-1 #
coedge $-1 $184 $277 $353 $355 reversed $268 $-1 #
vertex $-1 $355 $356 #
straight-curve $-1 -65.477869629784763 -45.30615733340148 23.9278984178044 0.57357642473473569 0 0.81915205242281985 I I #
vertex $-1 $276 $357 #
straight-curve $-1 -79.346903897213679 -34.361202106159752 4.1208641755220157 0.57357642473473569 0 0.81915205242281985 I I #
edge $-1 $358 -79.346903897213664 $188 -74.826322519638438 $187 $359 forward 7 unknown #
point $-1 -74.826322519638438 -45.30615733340148 10.576923654078319 #
point $-1 -74.826322519638452 -34.361202106159752 10.576923654078319 #
edge $-1 $360 1 $360 0 $191 $-1 forward 7 unknown #
vertex $-1 $192 $361 #
ellipse-curve $-1 -74.790627527752903 -42.179027268475274 5.7412274820938576 -0.81915205242281985 0 0.57357642473473569 0.86036463710210354 0 1.2287280786342298 1 I I #
point $-1 -76.226248571323936 -42.179027268475274 8.5776219934343967 #
edge $-1 $362 1 $362 0 $195 $-1 forward 7 unknown #
vertex $-1 $196 $363 #
ellipse-curve $-1 -74.790627527752903 -37.488332171085958 5.7412274820938576 -0.81915205242281985 0 0.57357642473473569 0.86036463710210354 0 1.2287280786342298 1 I I #
point $-1 -76.226248571323936 -37.488332171085958 8.5776219934343967 #
plane-surface $-1 0 0 10.576923654078319 0 0 1 1 0 0 forward_v I I I I #
coedge $-1 $305 $304 $297 $364 forward $200 $-1 #
coedge $-1 $297 $202 $204 $301 reversed $126 $-1 #
coedge $-1 $202 $296 $295 $364 reversed $126 $-1 #
coedge $-1 $210 $205 $202 $299 forward $211 $-1 #
edge $-1 $302 22.039638555379376 $365 25.99806883480931 $298 $366 forward 7 unknown #
coedge $-1 $204 $203 $305 $367 reversed $79 $-1 #
edge $-1 $368 -158.6938077944273 $302 -152.26425112082603 $296 $369 forward 7 unknown #
vertex $-1 $206 $370 #
straight-curve $-1 75.388473617783745 -15.988144138747295 10.576923654078314 0 -1 0 I I #
coedge $-1 $295 $207 $210 $309 reversed $200 $-1 #
coedge $-1 $207 $295 $300 $367 forward $200 $-1 #
vertex $-1 $208 $371 #
straight-curve $-1 79.346903897213664 -24.214617011167217 114.13222716957625 0 0 1 I I #
straight-curve $-1 -18.354758257922853 -24.214617011167217 130.56279218401596 0.61566146476048833 0 -0.78801076186113728 I I #
edge $-1 $365 -39.737959543821958 $212 -24.214617011167217 $304 $372 forward 7 unknown #
point $-1 79.346903897213664 -24.214617011167217 10.576923654078319 #
point $-1 75.388473617783731 -24.214617011167217 10.576923654078314 #
edge $-1 $373 1 $373 0 $215 $-1 forward 7 unknown #
vertex $-1 $216 $374 #
ellipse-curve $-1 75.871509627934557 -31.976288277494589 6.8747005113780961 0.78801076186113728 0 0.61566146476048833 0.9234921971407325 0 -1.182016142791706 1 I I #
point $-1 78.291180954639458 -31.976288277494589 6.8616275848896535 #
plane-surface $-1 79.346903897213664 0 0 -1 0 0 0 0 1 forward_v I I I I #
coedge $-1 $224 $222 $226 $321 reversed $141 $-1 #
edge $-1 $237 -10.576923654078319 $323 10.576923654078319 $236 $375 forward 7 unknown #
vertex $-1 $321 $376 #
straight-curve $-1 -79.346903897213664 -52.528730390915804 0 0 0 -1 I I #
edge $-1 $319 -52.528730390915804 $323 52.528730390915804 $317 $377 forward 7 unknown #
straight-curve $-1 0 -52.528730390915804 -10.576923654078319 -1 0 0 I I #
vertex $-1 $229 $378 #
straight-curve $-1 0 52.528730390915804 -10.576923654078319 1 0 0 I I #
point $-1 79.346903897213664 52.528730390915804 -10.576923654078319 #
point $-1 79.346903897213664 -52.528730390915804 -10.576923654078319 #
straight-curve $-1 -79.346903897213664 0 10.576923654078319 0 -1 0 I I #
point $-1 -79.346903897213664 52.528730390915804 10.576923654078319 #
point $-1 -79.346903897213664 -52.528730390915804 10.576923654078319 #
straight-curve $-1 79.346903897213664 -52.528730390915804 0 0 0 -1 I I #
straight-curve $-1 79.346903897213664 52.528730390915804 0 0 0 -1 I I #
plane-surface $-1 79.346903897213664 0 0 -1 0 0 0 0 1 forward_v I I I I #
coedge $-1 $250 $249 $260 $344 reversed $96 $-1 #
coedge $-1 $379 $253 $250 $335 forward $247 $-1 #
edge $-1 $336 45.30615733340148 $380 52.528730390915804 $250 $381 forward 7 unknown #
vertex $-1 $335 $382 #
straight-curve $-1 -79.346903897213664 -45.30615733340148 3.7990190959123895 0 0 -1 I I #
coedge $-1 $253 $379 $255 $340 forward $247 $-1 #
straight-curve $-1 0 -45.30615733340148 10.576923654078319 -1 0 0 I I #
edge $-1 $347 -52.528730390915804 $256 -45.30615733340148 $255 $383 forward 7 unknown #
point $-1 79.346903897213664 -45.30615733340148 10.576923654078319 #
straight-curve $-1 -79.346903897213664 -24.458721931079321 4.6191527295712387 0 -1 0 I I #
coedge $-1 $260 $259 $379 $384 reversed $160 $-1 #
edge $-1 $380 -10.576923654078319 $261 -4.6191527295712387 $333 $385 forward 7 unknown #
point $-1 -79.346903897213664 -52.528730390915804 4.6191527295712387 #
point $-1 -79.346903897213664 -45.30615733340148 4.6191527295712387 #
vertex $-1 $340 $386 #
straight-curve $-1 79.346903897213664 -52.528730390915804 0 0 0 -1 I I #
coedge $-1 $270 $353 $272 $351 reversed $177 $-1 #
straight-curve $-1 -79.346903897213664 -34.361202106159752 47.571945538895484 0 0 -1 I I #
edge $-1 $273 34.361202106159752 $358 45.30615733340148 $349 $387 forward 7 unknown #
point $-1 -79.346903897213664 -34.361202106159752 10.576923654078319 #
coedge $-1 $349 $275 $278 $355 forward $177 $-1 #
straight-curve $-1 -79.346903897213664 -19.91683985989031 4.1208641755220432 0 -1 0 I I #
edge $-1 $279 -43.451081363373447 $358 -36.995021884817163 $353 $388 forward 7 unknown #
point $-1 -79.346903897213664 -45.306157333401487 4.1208641755220361 #
point $-1 -79.346903897213664 -34.361202106159752 4.1208641755220361 #
vertex $-1 $355 $389 #
straight-curve $-1 0 -45.30615733340148 10.576923654078319 1 0 0 I I #
vertex $-1 $286 $390 #
point $-1 -73.930262890650809 -42.179027268475274 6.9699555607280876 #
vertex $-1 $290 $391 #
point $-1 -73.930262890650809 -37.488332171085958 6.9699555607280876 #
edge $-1 $365 103.55530351549794 $368 108.62186336829184 $295 $392 forward 7 unknown #
vertex $-1 $309 $393 #
straight-curve $-1 53.348835062404355 -39.737959543821958 10.576923654078314 1 0 0 I I #
edge $-1 $368 -23.749815405074663 $306 -8.2264728724199223 $305 $394 forward 7 unknown #
vertex $-1 $367 $395 #
straight-curve $-1 -18.354758257922853 -39.737959543821958 130.56279218401596 -0.61566146476048833 0 0.78801076186113728 I I #
point $-1 75.388473617783731 -39.737959543821958 10.576923654078314 #
point $-1 79.346903897213664 -24.214617011167217 5.5103638012844129 #
straight-curve $-1 79.346903897213664 0 10.576923654078319 0 1 0 I I #
vertex $-1 $312 $396 #
point $-1 76.795001825075289 -31.976288277494589 5.6926843685863906 #
straight-curve $-1 -79.346903897213664 52.528730390915804 0 0 0 -1 I I #
point $-1 -79.346903897213664 -52.528730390915804 -10.576923654078319 #
straight-curve $-1 -79.346903897213664 0 -10.576923654078319 0 1 0 I I #
point $-1 -79.346903897213664 52.528730390915804 -10.576923654078319 #
coedge $-1 $338 $334 $343 $384 forward $247 $-1 #
vertex $-1 $335 $397 #
straight-curve $-1 -79.346903897213664 0 10.576923654078319 0 -1 0 I I #
point $-1 -79.346903897213664 -45.30615733340148 10.576923654078319 #
straight-curve $-1 79.346903897213664 0 10.576923654078319 0 1 0 I I #
edge $-1 $380 -79.346903897213664 $347 79.346903897213664 $343 $398 forward 7 unknown #
straight-curve $-1 -79.346903897213664 -52.528730390915804 0 0 0 -1 I I #
point $-1 79.346903897213664 -52.528730390915804 10.576923654078319 #
straight-curve $-1 -79.346903897213664 0 10.576923654078319 0 -1 0 I I #
straight-curve $-1 -79.346903897213664 -45.306157333401487 47.571945538895484 0 0 1 I I #
point $-1 -79.346903897213664 -45.30615733340148 10.576923654078319 #
point $-1 -73.561899449118684 -42.179027268475274 4.8808628449917544 #
point $-1 -73.561899449118684 -37.488332171085958 4.8808628449917544 #
straight-curve $-1 79.346903897213664 -39.737959543821958 114.13222716957625 0 0 -1 I I #
point $-1 79.346903897213664 -39.737959543821958 10.576923654078319 #
straight-curve $-1 79.346903897213664 -15.988144138747295 5.5103638012844058 0 1 0 I I #
point $-1 79.346903897213664 -39.737959543821958 5.5103638012844129 #
point $-1 74.689493485142862 -31.976288277494589 5.9512083142373644 #
point $-1 -79.346903897213664 -52.528730390915804 10.576923654078319 #
straight-curve $-1 0 -52.528730390915804 10.576923654078319 1 0 0 I I #
End-of-ACIS-data 