500 0 11 0           
7 Unknown 11 ACIS 5.0 NT 24 Fri Mar 26 18:12:29 1999 
-1 9.9999999999999995e-007 1e-010 
body $-1 $11 $-1 $12 #
body $-1 $13 $-1 $14 #
body $-1 $15 $-1 $16 #
body $-1 $17 $-1 $18 #
body $-1 $19 $-1 $20 #
body $-1 $21 $-1 $22 #
body $-1 $23 $-1 $24 #
body $-1 $25 $-1 $26 #
body $-1 $27 $-1 $28 #
body $-1 $29 $-1 $30 #
body $-1 $31 $-1 $32 #
lump $-1 $-1 $33 $0 #
transform $-1 1 0 0 0 1 0 0 0 1 57.626270332956935 36.150297550251658 10.809564512088709 1 rotate no_reflect no_shear #
lump $-1 $-1 $34 $1 #
transform $-1 1 0 0 0 1 0 0 0 1 57.626270332956935 36.150297550251658 10.809564512088709 1 rotate no_reflect no_shear #
lump $-1 $-1 $35 $2 #
transform $-1 1 0 0 0 1 0 0 0 1 57.626270332956935 36.150297550251658 10.809564512088709 1 rotate no_reflect no_shear #
lump $-1 $-1 $36 $3 #
transform $-1 1 0 0 0 1 0 0 0 1 57.626270332956935 36.150297550251658 10.809564512088709 1 rotate no_reflect no_shear #
lump $-1 $-1 $37 $4 #
transform $-1 1 0 0 0 1 0 0 0 1 57.626270332956935 36.150297550251658 10.809564512088709 1 rotate no_reflect no_shear #
lump $-1 $-1 $38 $5 #
transform $-1 1 0 0 0 1 0 0 0 1 57.626270332956935 36.150297550251658 10.809564512088709 1 rotate no_reflect no_shear #
lump $-1 $-1 $39 $6 #
transform $-1 1 0 0 0 1 0 0 0 1 57.626270332956935 36.150297550251658 10.809564512088709 1 rotate no_reflect no_shear #
lump $-1 $-1 $40 $7 #
transform $-1 1 0 0 0 1 0 0 0 1 57.626270332956935 36.150297550251658 10.809564512088709 1 rotate no_reflect no_shear #
lump $-1 $-1 $41 $8 #
transform $-1 1 0 0 0 1 0 0 0 1 57.626270332956935 36.150297550251658 10.809564512088709 1 rotate no_reflect no_shear #
lump $-1 $-1 $42 $9 #
transform $-1 1 0 0 0 1 0 0 0 1 57.626270332956935 36.150297550251658 10.809564512088709 1 rotate no_reflect no_shear #
lump $-1 $-1 $43 $10 #
transform $-1 1 0 0 0 1 0 0 0 1 57.626270332956935 36.150297550251658 10.809564512088709 1 rotate no_reflect no_shear #
shell $-1 $-1 $-1 $44 $-1 $11 #
shell $-1 $-1 $-1 $45 $-1 $13 #
shell $-1 $-1 $-1 $46 $-1 $15 #
shell $-1 $-1 $-1 $47 $-1 $17 #
shell $-1 $-1 $-1 $48 $-1 $19 #
shell $-1 $-1 $-1 $49 $-1 $21 #
shell $-1 $-1 $-1 $50 $-1 $23 #
shell $-1 $-1 $-1 $51 $-1 $25 #
shell $-1 $-1 $-1 $52 $-1 $27 #
shell $-1 $-1 $-1 $53 $-1 $29 #
shell $-1 $-1 $-1 $54 $-1 $31 #
face $-1 $55 $56 $33 $-1 $57 forward single #
face $-1 $58 $59 $34 $-1 $60 forward single #
face $-1 $61 $62 $35 $-1 $63 forward single #
face $-1 $64 $65 $36 $-1 $66 reversed single #
face $-1 $67 $68 $37 $-1 $69 forward single #
face $-1 $70 $71 $38 $-1 $72 reversed single #
face $-1 $73 $74 $39 $-1 $75 forward single #
face $-1 $76 $77 $40 $-1 $78 reversed single #
face $-1 $79 $80 $41 $-1 $81 forward single #
face $-1 $82 $83 $42 $-1 $84 forward single #
face $-1 $85 $86 $43 $-1 $87 forward single #
face $-1 $88 $89 $33 $-1 $90 reversed single #
loop $-1 $-1 $91 $44 #
plane-surface $-1 0 0 10.809564512088709 0 0 1 1 0 0 forward_v I I I I #
face $-1 $92 $93 $34 $-1 $94 reversed single #
loop $-1 $-1 $95 $45 #
plane-surface $-1 -57.626270332956935 0 0 1 0 0 0 0 -1 forward_v I I I I #
face $-1 $96 $97 $35 $-1 $98 reversed single #
loop $-1 $-1 $99 $46 #
plane-surface $-1 57.626270332956935 0 0 -1 0 0 0 0 1 forward_v I I I I #
face $-1 $100 $101 $36 $-1 $102 reversed single #
loop $-1 $-1 $103 $47 #
plane-surface $-1 -21.427405849722433 -133.88999615250407 68.352614722237504 -1 0 0 0 -0.84804810408105047 0.52991925155115449 forward_v I I I I #
face $-1 $104 $105 $37 $-1 $106 forward single #
loop $-1 $107 $108 $48 #
cone-surface $-1 -31.574359176137641 -34.199704843604138 8.514409749976469 0 0.84804810408105047 -0.52991925155115449 0.5 0 0 1 I I 0 1 0.5 forward I I I I #
face $-1 $109 $110 $38 $-1 $111 reversed single #
loop $-1 $-1 $112 $49 #
plane-surface $-1 26.797997324831844 -133.88999615250407 68.352614722237504 -1 0 0 0 -0.84804810408105047 0.52991925155115449 forward_v I I I I #
face $-1 $113 $114 $39 $-1 $115 forward single #
loop $-1 $116 $117 $50 #
cone-surface $-1 16.651043998416625 -34.199704843604138 8.514409749976469 0 0.84804810408105047 -0.52991925155115449 0.5 0 0 1 I I 0 1 0.5 forward I I I I #
face $-1 $118 $119 $40 $-1 $120 reversed single #
loop $-1 $-1 $121 $51 #
plane-surface $-1 -34.280984029517889 43.031260052125269 140.9555961018734 1 0 0 0 -0.57357644374324357 -0.81915203911291934 forward_v I I I I #
face $-1 $122 $123 $41 $-1 $124 forward single #
loop $-1 $125 $126 $52 #
cone-surface $-1 -29.620603046813049 30.354869968535688 5.5129937098144062 0 -0.57357644374324357 -0.81915203911291934 1.5 0 0 1 I I 0 1 1.5 forward I I I I #
face $-1 $127 $128 $42 $-1 $129 forward single #
loop $-1 $130 $131 $53 #
cone-surface $-1 -22.630031572755783 30.354869968535688 5.5129937098144062 0 -0.57357644374324357 -0.81915203911291934 1.5 0 0 1 I I 0 1 1.5 forward I I I I #
face $-1 $132 $133 $43 $-1 $134 forward single #
loop $-1 $135 $136 $54 #
cone-surface $-1 -15.639460098698521 30.354869968535688 5.5129937098144062 0 -0.57357644374324357 -0.81915203911291934 1.5 0 0 1 I I 0 1 1.5 forward I I I I #
face $-1 $137 $138 $33 $-1 $139 reversed single #
loop $-1 $-1 $140 $55 #
plane-surface $-1 0 0 -10.809564512088709 0 0 1 1 0 0 forward_v I I I I #
coedge $-1 $141 $142 $143 $144 forward $56 $-1 #
face $-1 $145 $146 $34 $-1 $147 forward single #
loop $-1 $-1 $148 $58 #
plane-surface $-1 0 36.150297550251658 0 0 -1 0 0 0 -1 forward_v I I I I #
coedge $-1 $149 $150 $151 $152 forward $59 $-1 #
face $-1 $153 $154 $35 $-1 $155 forward single #
loop $-1 $-1 $156 $61 #
plane-surface $-1 0 -36.150297550251658 0 0 1 0 0 0 1 forward_v I I I I #
coedge $-1 $157 $158 $159 $160 forward $62 $-1 #
face $-1 $161 $162 $36 $-1 $163 reversed single #
loop $-1 $-1 $164 $64 #
plane-surface $-1 -31.574359176137637 -36.150297550251636 7.2780746331874298 0 -0.84804810408105047 0.52991925155115449 1 0 0 forward_v I I I I #
coedge $-1 $165 $166 $167 $168 reversed $65 $-1 #
face $-1 $-1 $169 $37 $-1 $170 forward single #
loop $-1 $171 $172 $67 #
cone-surface $-1 -31.574359176137641 -33.140459970171989 7.852520114427076 0 0.84804810408105047 -0.52991925155115449 0.25 0 0 1 I I -0.70710678118654746 0.70710678118654746 0.25 forward I I I I #
loop $-1 $-1 $173 $48 #
coedge $-1 $108 $108 $174 $175 reversed $68 $-1 #
face $-1 $176 $177 $38 $-1 $178 reversed single #
loop $-1 $-1 $179 $70 #
plane-surface $-1 16.65104399841664 -36.150297550251636 7.2780746331874298 0 -0.84804810408105047 0.52991925155115449 1 0 0 forward_v I I I I #
coedge $-1 $180 $181 $182 $183 reversed $71 $-1 #
face $-1 $-1 $184 $39 $-1 $185 forward single #
loop $-1 $186 $187 $73 #
cone-surface $-1 16.651043998416625 -33.140459970171989 7.852520114427076 0 0.84804810408105047 -0.52991925155115449 0.25 0 0 1 I I -0.70710678118654746 0.70710678118654746 0.25 forward I I I I #
loop $-1 $-1 $188 $50 #
coedge $-1 $117 $117 $189 $190 reversed $74 $-1 #
face $-1 $191 $192 $40 $-1 $193 reversed single #
loop $-1 $-1 $194 $76 #
plane-surface $-1 -22.630031572755783 -23.074882355403169 46.546242402445387 0 0.57357644374324357 0.81915203911291934 1 0 0 forward_v I I I I #
coedge $-1 $195 $196 $197 $198 reversed $77 $-1 #
face $-1 $-1 $199 $41 $-1 $200 forward single #
loop $-1 $201 $202 $79 #
cone-surface $-1 -29.620603046813049 28.223217848620003 2.4686790421605203 0 -0.57357644374324357 -0.81915203911291934 0.75 0 0 1 I I -0.70710678118654757 0.70710678118654757 0.75 forward I I I I #
loop $-1 $-1 $203 $52 #
coedge $-1 $126 $126 $204 $205 reversed $80 $-1 #
face $-1 $-1 $206 $42 $-1 $207 forward single #
loop $-1 $208 $209 $82 #
cone-surface $-1 -22.630031572755783 28.223217848620003 2.4686790421605203 0 -0.57357644374324357 -0.81915203911291934 0.75 0 0 1 I I -0.70710678118654757 0.70710678118654757 0.75 forward I I I I #
loop $-1 $-1 $210 $53 #
coedge $-1 $131 $131 $211 $212 reversed $83 $-1 #
face $-1 $-1 $213 $43 $-1 $214 forward single #
loop $-1 $215 $216 $85 #
cone-surface $-1 -15.639460098698521 28.223217848620003 2.4686790421605203 0 -0.57357644374324357 -0.81915203911291934 0.75 0 0 1 I I -0.70710678118654757 0.70710678118654757 0.75 forward I I I I #
loop $-1 $-1 $217 $54 #
coedge $-1 $136 $136 $218 $219 reversed $86 $-1 #
face $-1 $220 $221 $33 $-1 $222 reversed single #
loop $-1 $-1 $223 $88 #
plane-surface $-1 0 -36.150297550251658 0 0 1 0 0 0 1 forward_v I I I I #
coedge $-1 $224 $225 $226 $227 forward $89 $-1 #
coedge $-1 $228 $91 $229 $230 forward $56 $-1 #
coedge $-1 $91 $228 $231 $232 forward $56 $-1 #
coedge $-1 $233 $234 $91 $144 reversed $235 $-1 #
edge $-1 $236 -36.150297550251658 $237 36.150297550251658 $143 $238 forward 7 unknown #
face $-1 $239 $240 $34 $-1 $241 reversed single #
loop $-1 $-1 $151 $92 #
plane-surface $-1 -62.326703912158266 0 10.309564512088709 0 0 1 1 0 0 forward_v I I I I #
coedge $-1 $242 $243 $150 $244 forward $93 $-1 #
coedge $-1 $245 $95 $246 $247 reversed $59 $-1 #
coedge $-1 $95 $245 $148 $244 reversed $59 $-1 #
coedge $-1 $248 $249 $95 $152 reversed $146 $-1 #
edge $-1 $250 -36.150297550251658 $251 36.150297550251658 $151 $252 forward 7 unknown #
face $-1 $253 $254 $35 $-1 $255 reversed single #
loop $-1 $-1 $256 $96 #
plane-surface $-1 62.326703912158266 0 10.309564512088709 0 0 1 1 0 0 forward_v I I I I #
coedge $-1 $257 $258 $158 $259 forward $97 $-1 #
coedge $-1 $260 $99 $261 $262 reversed $62 $-1 #
coedge $-1 $99 $260 $156 $259 reversed $62 $-1 #
coedge $-1 $263 $264 $99 $160 reversed $154 $-1 #
edge $-1 $265 -36.150297550251658 $266 36.150297550251658 $159 $267 forward 7 unknown #
face $-1 $268 $269 $36 $-1 $270 forward single #
loop $-1 $-1 $271 $100 #
plane-surface $-1 -41.721312502552841 -133.88999615250407 68.352614722237504 1 0 0 0 0.84804810408105047 -0.52991925155115449 forward_v I I I I #
coedge $-1 $272 $273 $274 $275 reversed $101 $-1 #
coedge $-1 $166 $103 $276 $277 reversed $65 $-1 #
coedge $-1 $103 $165 $272 $278 reversed $65 $-1 #
coedge $-1 $274 $279 $103 $168 forward $269 $-1 #
edge $-1 $280 30.794700526000376 $281 33.001420244471682 $167 $282 forward 7 unknown #
loop $-1 $-1 $174 $104 #
plane-surface $-1 -31.574359176137637 -36.150297550251636 7.2780746331874298 0 -0.84804810408105047 0.52991925155115449 1 0 0 forward_v I I I I #
loop $-1 $-1 $283 $67 #
coedge $-1 $172 $172 $173 $284 reversed $105 $-1 #
coedge $-1 $173 $173 $172 $284 forward $107 $-1 #
coedge $-1 $174 $174 $108 $175 forward $169 $-1 #
edge $-1 $285 4.5240324131000867e-015 $285 6.2831853071796049 $174 $286 forward 7 unknown #
face $-1 $287 $288 $38 $-1 $289 reversed single #
loop $-1 $-1 $290 $109 #
plane-surface $-1 6.5040906720014355 -133.88999615250407 68.352614722237504 1 0 0 0 0.84804810408105047 -0.52991925155115449 forward_v I I I I #
coedge $-1 $291 $292 $293 $294 reversed $110 $-1 #
coedge $-1 $181 $112 $295 $296 reversed $71 $-1 #
coedge $-1 $112 $180 $291 $297 reversed $71 $-1 #
coedge $-1 $293 $298 $112 $183 forward $299 $-1 #
edge $-1 $300 30.794700526000376 $301 33.001420244471682 $182 $302 forward 7 unknown #
loop $-1 $-1 $189 $113 #
plane-surface $-1 16.65104399841664 -36.150297550251636 7.2780746331874298 0 -0.84804810408105047 0.52991925155115449 1 0 0 forward_v I I I I #
loop $-1 $-1 $303 $73 #
coedge $-1 $187 $187 $188 $304 reversed $114 $-1 #
coedge $-1 $188 $188 $187 $304 forward $116 $-1 #
coedge $-1 $189 $189 $117 $190 forward $184 $-1 #
edge $-1 $305 4.5240324131000867e-015 $305 6.2831853071796049 $189 $306 forward 7 unknown #
face $-1 $307 $308 $40 $-1 $309 reversed single #
loop $-1 $-1 $310 $118 #
plane-surface $-1 -10.979079115993676 43.031260052125269 140.9555961018734 -1 0 0 0 0.57357644374324357 0.81915203911291934 forward_v I I I I #
coedge $-1 $311 $312 $313 $314 reversed $119 $-1 #
coedge $-1 $196 $121 $315 $316 reversed $77 $-1 #
coedge $-1 $121 $195 $311 $317 reversed $77 $-1 #
coedge $-1 $313 $318 $121 $198 forward $319 $-1 #
edge $-1 $320 -14.634667524189023 $321 -6.4467519349735802 $197 $322 forward 7 unknown #
loop $-1 $-1 $204 $122 #
plane-surface $-1 -22.630031572755783 -23.074882355403169 46.546242402445387 0 0.57357644374324357 0.81915203911291934 1 0 0 forward_v I I I I #
loop $-1 $-1 $323 $79 #
coedge $-1 $202 $202 $203 $324 reversed $123 $-1 #
coedge $-1 $203 $203 $202 $324 forward $125 $-1 #
coedge $-1 $204 $204 $126 $205 forward $199 $-1 #
edge $-1 $325 -1.502905182053293e-015 $325 6.2831853071795987 $204 $326 forward 7 unknown #
loop $-1 $-1 $211 $127 #
plane-surface $-1 -22.630031572755783 -23.074882355403169 46.546242402445387 0 0.57357644374324357 0.81915203911291934 1 0 0 forward_v I I I I #
loop $-1 $-1 $327 $82 #
coedge $-1 $209 $209 $210 $328 reversed $128 $-1 #
coedge $-1 $210 $210 $209 $328 forward $130 $-1 #
coedge $-1 $211 $211 $131 $212 forward $206 $-1 #
edge $-1 $329 -1.502905182053293e-015 $329 6.2831853071795987 $211 $330 forward 7 unknown #
loop $-1 $-1 $218 $132 #
plane-surface $-1 -22.630031572755783 -23.074882355403169 46.546242402445387 0 0.57357644374324357 0.81915203911291934 1 0 0 forward_v I I I I #
loop $-1 $-1 $331 $85 #
coedge $-1 $216 $216 $217 $332 reversed $133 $-1 #
coedge $-1 $217 $217 $216 $332 forward $135 $-1 #
coedge $-1 $218 $218 $136 $219 forward $213 $-1 #
edge $-1 $333 -1.502905182053293e-015 $333 6.2831853071795987 $218 $334 forward 7 unknown #
face $-1 $335 $336 $33 $-1 $337 reversed single #
loop $-1 $-1 $338 $137 #
plane-surface $-1 -57.626270332956935 0 0 1 0 0 0 0 -1 forward_v I I I I #
coedge $-1 $339 $231 $340 $341 forward $138 $-1 #
coedge $-1 $342 $140 $339 $343 forward $89 $-1 #
coedge $-1 $140 $342 $344 $345 forward $89 $-1 #
coedge $-1 $234 $233 $140 $227 reversed $235 $-1 #
edge $-1 $346 -36.150297550251658 $347 36.150297550251658 $226 $348 forward 7 unknown #
coedge $-1 $142 $141 $349 $350 forward $56 $-1 #
coedge $-1 $351 $352 $141 $230 reversed $336 $-1 #
edge $-1 $237 -57.626270332956935 $353 57.626270332956935 $229 $354 forward 7 unknown #
coedge $-1 $223 $355 $142 $232 reversed $138 $-1 #
edge $-1 $356 -57.626270332956935 $236 57.626270332956935 $231 $357 forward 7 unknown #
coedge $-1 $226 $143 $355 $358 forward $235 $-1 #
coedge $-1 $143 $226 $351 $359 reversed $235 $-1 #
loop $-1 $-1 $233 $335 #
vertex $-1 $144 $360 #
vertex $-1 $144 $361 #
straight-curve $-1 57.626270332956935 0 10.809564512088709 0 1 0 I I #
face $-1 $362 $363 $34 $-1 $364 reversed single #
loop $-1 $-1 $365 $145 #
plane-surface $-1 -62.326703912158266 0 4.1179573310349618 0 0 1 1 0 0 forward_v I I I I #
coedge $-1 $366 $148 $367 $368 reversed $93 $-1 #
coedge $-1 $148 $366 $248 $369 reversed $93 $-1 #
edge $-1 $250 -10.309564512088709 $370 -4.1179573310349618 $148 $371 forward 7 unknown #
coedge $-1 $150 $149 $365 $372 forward $59 $-1 #
coedge $-1 $373 $374 $149 $247 forward $375 $-1 #
edge $-1 $376 4.1179573310349618 $251 10.309564512088709 $246 $377 forward 7 unknown #
coedge $-1 $378 $151 $243 $369 forward $146 $-1 #
coedge $-1 $151 $378 $373 $379 forward $146 $-1 #
vertex $-1 $244 $380 #
vertex $-1 $379 $381 #
straight-curve $-1 -57.626270332956935 0 10.309564512088709 0 -1 0 I I #
face $-1 $382 $383 $35 $-1 $384 reversed single #
loop $-1 $-1 $385 $153 #
plane-surface $-1 62.326703912158266 0 4.1179573310349618 0 0 1 1 0 0 forward_v I I I I #
coedge $-1 $264 $263 $386 $387 forward $154 $-1 #
coedge $-1 $388 $156 $389 $390 reversed $97 $-1 #
coedge $-1 $156 $388 $263 $391 reversed $97 $-1 #
edge $-1 $265 -10.309564512088709 $392 -4.1179573310349618 $156 $393 forward 7 unknown #
coedge $-1 $158 $157 $394 $395 forward $62 $-1 #
coedge $-1 $396 $397 $157 $262 forward $398 $-1 #
edge $-1 $399 4.1179573310349618 $266 10.309564512088709 $261 $400 forward 7 unknown #
coedge $-1 $256 $159 $258 $391 forward $154 $-1 #
coedge $-1 $159 $256 $396 $401 forward $154 $-1 #
vertex $-1 $259 $402 #
vertex $-1 $401 $403 #
straight-curve $-1 57.626270332956935 0 10.309564512088709 0 1 0 I I #
face $-1 $-1 $404 $36 $-1 $405 reversed single #
loop $-1 $-1 $167 $161 #
plane-surface $-1 0 0 10.809564512088709 0 0 1 1 0 0 forward_v I I I I #
coedge $-1 $406 $407 $408 $409 reversed $162 $-1 #
coedge $-1 $410 $164 $166 $278 forward $101 $-1 #
coedge $-1 $164 $410 $406 $411 forward $101 $-1 #
coedge $-1 $408 $167 $164 $275 forward $269 $-1 #
edge $-1 $281 5.6402262616536145 $412 25.934132914484024 $274 $413 forward 7 unknown #
coedge $-1 $414 $415 $165 $277 forward $404 $-1 #
edge $-1 $416 -26.898232727931358 $280 -23.366742849030043 $276 $417 forward 7 unknown #
edge $-1 $281 -4.164256557979126 $416 3.9918193188544054e-014 $166 $418 forward 7 unknown #
coedge $-1 $167 $408 $414 $419 forward $269 $-1 #
vertex $-1 $277 $420 #
vertex $-1 $168 $421 #
straight-curve $-1 -21.427405849722433 -66.944998076252034 10.809564512088709 0 1 0 I I #
coedge $-1 $283 $283 $-1 $422 reversed $171 $-1 #
edge $-1 $423 0 $423 6.2831853071796004 $172 $424 forward 7 unknown #
vertex $-1 $175 $425 #
ellipse-curve $-1 -31.574359176137641 -35.046937691015998 9.0438195726380588 0 -0.84804810408105047 0.52991925155115449 0.5 0 0 1 I I #
face $-1 $-1 $299 $38 $-1 $426 forward single #
loop $-1 $-1 $427 $176 #
plane-surface $-1 0 -36.150297550251658 0 0 1 0 0 0 1 forward_v I I I I #
coedge $-1 $428 $429 $430 $431 reversed $177 $-1 #
coedge $-1 $432 $179 $181 $297 forward $110 $-1 #
coedge $-1 $179 $432 $428 $433 forward $110 $-1 #
coedge $-1 $430 $182 $179 $294 forward $299 $-1 #
edge $-1 $301 -18.472475325623524 $434 1.8214313272068843 $293 $435 forward 7 unknown #
coedge $-1 $436 $437 $180 $296 forward $288 $-1 #
edge $-1 $438 -26.898232727931358 $300 -23.366742849030043 $295 $439 forward 7 unknown #
edge $-1 $301 -4.164256557979126 $438 3.9918193188544054e-014 $181 $440 forward 7 unknown #
coedge $-1 $182 $430 $436 $441 forward $299 $-1 #
loop $-1 $-1 $430 $287 #
vertex $-1 $296 $442 #
vertex $-1 $183 $443 #
straight-curve $-1 26.797997324831844 -66.944998076252034 10.809564512088709 0 1 0 I I #
coedge $-1 $303 $303 $-1 $444 reversed $186 $-1 #
edge $-1 $445 0 $445 6.2831853071796004 $187 $446 forward 7 unknown #
vertex $-1 $190 $447 #
ellipse-curve $-1 16.651043998416625 -35.046937691015998 9.0438195726380588 0 -0.84804810408105047 0.52991925155115449 0.5 0 0 1 I I #
face $-1 $-1 $319 $40 $-1 $448 forward single #
loop $-1 $-1 $449 $191 #
plane-surface $-1 0 36.150297550251658 0 0 -1 0 0 0 -1 forward_v I I I I #
coedge $-1 $450 $451 $452 $453 reversed $192 $-1 #
coedge $-1 $454 $194 $196 $317 forward $119 $-1 #
coedge $-1 $194 $454 $450 $455 forward $119 $-1 #
coedge $-1 $452 $197 $194 $314 forward $319 $-1 #
edge $-1 $321 -22.965968243139997 $456 0.33593667038421593 $313 $457 forward 7 unknown #
coedge $-1 $458 $459 $195 $316 forward $308 $-1 #
edge $-1 $460 -65.401473866758181 $320 -59.668233538847986 $315 $461 forward 7 unknown #
edge $-1 $321 62.30499575110494 $460 72.300595100503301 $196 $462 forward 7 unknown #
coedge $-1 $197 $452 $458 $463 forward $319 $-1 #
loop $-1 $-1 $452 $307 #
vertex $-1 $316 $464 #
vertex $-1 $198 $465 #
straight-curve $-1 -34.280984029517889 21.515630026062635 10.809564512088713 0 -1 0 I I #
coedge $-1 $323 $323 $-1 $466 reversed $201 $-1 #
edge $-1 $467 0 $467 6.2831853071796004 $202 $468 forward 7 unknown #
vertex $-1 $205 $469 #
ellipse-curve $-1 -29.620603046813049 32.056339755643947 7.9429443481336088 0 0.57357644374324357 0.81915203911291934 1.5 0 0 1 I I #
coedge $-1 $327 $327 $-1 $470 reversed $208 $-1 #
edge $-1 $471 0 $471 6.2831853071796004 $209 $472 forward 7 unknown #
vertex $-1 $212 $473 #
ellipse-curve $-1 -22.630031572755783 32.056339755643947 7.9429443481336088 0 0.57357644374324357 0.81915203911291934 1.5 0 0 1 I I #
coedge $-1 $331 $331 $-1 $474 reversed $215 $-1 #
edge $-1 $475 0 $475 6.2831853071796004 $216 $476 forward 7 unknown #
vertex $-1 $219 $477 #
ellipse-curve $-1 -15.639460098698521 32.056339755643947 7.9429443481336088 0 0.57357644374324357 0.81915203911291934 1.5 0 0 1 I I #
face $-1 $-1 $235 $33 $-1 $478 reversed single #
loop $-1 $-1 $351 $220 #
plane-surface $-1 0 36.150297550251658 0 0 -1 0 0 0 -1 forward_v I I I I #
coedge $-1 $479 $349 $352 $480 forward $221 $-1 #
coedge $-1 $355 $223 $224 $343 reversed $138 $-1 #
coedge $-1 $349 $479 $223 $341 reversed $221 $-1 #
edge $-1 $356 -10.809564512088709 $481 10.809564512088709 $340 $482 forward 7 unknown #
coedge $-1 $225 $224 $479 $483 forward $89 $-1 #
edge $-1 $347 -57.626270332956935 $481 57.626270332956935 $339 $484 forward 7 unknown #
coedge $-1 $352 $351 $225 $345 reversed $336 $-1 #
edge $-1 $485 -57.626270332956935 $346 57.626270332956935 $344 $486 forward 7 unknown #
vertex $-1 $227 $487 #
vertex $-1 $358 $488 #
straight-curve $-1 57.626270332956935 0 -10.809564512088709 0 -1 0 I I #
coedge $-1 $338 $340 $228 $350 reversed $221 $-1 #
edge $-1 $353 -36.150297550251658 $356 36.150297550251658 $349 $489 forward 7 unknown #
coedge $-1 $344 $229 $234 $359 forward $336 $-1 #
coedge $-1 $229 $344 $338 $480 reversed $336 $-1 #
vertex $-1 $230 $490 #
straight-curve $-1 0 36.150297550251658 10.809564512088709 -1 0 0 I I #
coedge $-1 $231 $339 $233 $358 reversed $138 $-1 #
vertex $-1 $350 $491 #
straight-curve $-1 0 -36.150297550251658 10.809564512088709 1 0 0 I I #
edge $-1 $236 -10.809564512088709 $347 10.809564512088709 $233 $492 forward 7 unknown #
edge $-1 $237 -10.809564512088709 $346 10.809564512088709 $234 $493 forward 7 unknown #
point $-1 57.626270332956935 -36.150297550251658 10.809564512088709 #
point $-1 57.626270332956935 36.150297550251658 10.809564512088709 #
face $-1 $-1 $375 $34 $-1 $494 reversed single #
loop $-1 $-1 $495 $239 #
plane-surface $-1 -67.027137491359596 0 7.2137609215618355 1 0 0 0 0 -1 forward_v I I I I #
coedge $-1 $496 $367 $245 $372 reversed $240 $-1 #
coedge $-1 $243 $242 $495 $497 reversed $93 $-1 #
coedge $-1 $365 $498 $242 $368 forward $240 $-1 #
edge $-1 $499 -4.7004335792013308 $370 4.7004335792013308 $242 $500 forward 7 unknown #
edge $-1 $250 -4.7004335792013308 $501 4.7004335792013308 $243 $502 forward 7 unknown #
vertex $-1 $244 $503 #
straight-curve $-1 -57.626270332956935 36.150297550251658 0 0 0 -1 I I #
edge $-1 $376 -36.150297550251658 $370 36.150297550251658 $365 $504 forward 7 unknown #
coedge $-1 $505 $246 $249 $379 reversed $375 $-1 #
coedge $-1 $246 $505 $496 $506 reversed $375 $-1 #
loop $-1 $-1 $246 $362 #
vertex $-1 $247 $507 #
straight-curve $-1 -57.626270332956935 -36.150297550251658 0 0 0 1 I I #
coedge $-1 $249 $248 $508 $509 forward $146 $-1 #
edge $-1 $510 -4.7004335792013308 $251 4.7004335792013308 $373 $511 forward 7 unknown #
point $-1 -57.626270332956935 36.150297550251658 10.309564512088709 #
point $-1 -57.626270332956935 -36.150297550251658 10.309564512088709 #
face $-1 $-1 $398 $35 $-1 $512 reversed single #
loop $-1 $-1 $513 $253 #
plane-surface $-1 67.027137491359596 0 7.2137609215618355 -1 0 0 0 0 1 forward_v I I I I #
coedge $-1 $389 $514 $515 $516 forward $254 $-1 #
coedge $-1 $513 $517 $256 $387 reversed $383 $-1 #
edge $-1 $518 -36.150297550251658 $519 36.150297550251658 $386 $520 forward 7 unknown #
coedge $-1 $258 $257 $513 $521 reversed $97 $-1 #
coedge $-1 $394 $385 $257 $390 forward $254 $-1 #
edge $-1 $522 -4.7004335792013308 $392 4.7004335792013308 $257 $523 forward 7 unknown #
edge $-1 $265 -4.7004335792013308 $518 4.7004335792013308 $258 $524 forward 7 unknown #
vertex $-1 $259 $525 #
straight-curve $-1 57.626270332956935 -36.150297550251658 0 0 0 -1 I I #
coedge $-1 $514 $389 $260 $395 reversed $254 $-1 #
edge $-1 $399 -36.150297550251658 $392 36.150297550251658 $394 $526 forward 7 unknown #
coedge $-1 $527 $261 $264 $401 reversed $398 $-1 #
coedge $-1 $261 $527 $514 $528 reversed $398 $-1 #
loop $-1 $-1 $261 $382 #
vertex $-1 $262 $529 #
straight-curve $-1 57.626270332956935 36.150297550251658 0 0 0 1 I I #
edge $-1 $519 -4.7004335792013308 $266 4.7004335792013308 $396 $530 forward 7 unknown #
point $-1 57.626270332956935 -36.150297550251658 10.309564512088709 #
point $-1 57.626270332956935 36.150297550251658 10.309564512088709 #
loop $-1 $-1 $276 $268 #
plane-surface $-1 0 -36.150297550251658 0 0 1 0 0 0 1 forward_v I I I I #
coedge $-1 $407 $271 $273 $411 reversed $162 $-1 #
coedge $-1 $271 $406 $531 $532 reversed $162 $-1 #
coedge $-1 $279 $274 $271 $409 forward $269 $-1 #
edge $-1 $412 -33.001420244471682 $533 -30.794700526000376 $408 $534 forward 7 unknown #
coedge $-1 $273 $272 $415 $535 reversed $101 $-1 #
edge $-1 $536 -3.9918193188544054e-014 $412 4.164256557979126 $406 $537 forward 7 unknown #
vertex $-1 $275 $538 #
straight-curve $-1 -15.787179588068819 -33.943577831780345 10.809564512088709 -1 0 0 I I #
coedge $-1 $531 $276 $279 $419 reversed $404 $-1 #
coedge $-1 $276 $531 $410 $535 forward $404 $-1 #
vertex $-1 $277 $539 #
straight-curve $-1 -21.427405849722433 -36.150297550251658 34.176307361118752 0 0 1 I I #
straight-curve $-1 -21.427405849722433 -36.150297550251636 7.2780746331874298 0 -0.52991925155115449 -0.84804810408105047 I I #
edge $-1 $533 -41.721312502552841 $280 -21.427405849722433 $414 $540 forward 7 unknown #
point $-1 -21.427405849722433 -36.150297550251658 10.809564512088709 #
point $-1 -21.427405849722433 -33.943577831780352 10.809564512088709 #
edge $-1 $541 1 $541 0 $283 $-1 forward 7 unknown #
vertex $-1 $284 $542 #
ellipse-curve $-1 -31.574359176137641 -33.35247199619225 7.9849999273148642 0 -0.84804810408105047 0.52991925155115449 0.5 0 0 1 I I #
point $-1 -31.074359176137641 -35.046937691016019 9.0438195726380748 #
plane-surface $-1 0 0 10.809564512088709 0 0 1 1 0 0 forward_v I I I I #
coedge $-1 $437 $436 $429 $543 forward $288 $-1 #
coedge $-1 $429 $290 $292 $433 reversed $177 $-1 #
coedge $-1 $290 $428 $427 $543 reversed $177 $-1 #
coedge $-1 $298 $293 $290 $431 forward $299 $-1 #
edge $-1 $434 -33.001420244471682 $544 -30.794700526000376 $430 $545 forward 7 unknown #
coedge $-1 $292 $291 $437 $546 reversed $110 $-1 #
edge $-1 $547 -3.9918193188544054e-014 $434 4.164256557979126 $428 $548 forward 7 unknown #
vertex $-1 $294 $549 #
straight-curve $-1 8.3255219992083198 -33.943577831780345 10.809564512088709 -1 0 0 I I #
coedge $-1 $427 $295 $298 $441 reversed $288 $-1 #
coedge $-1 $295 $427 $432 $546 forward $288 $-1 #
vertex $-1 $296 $550 #
straight-curve $-1 26.797997324831844 -36.150297550251658 34.176307361118752 0 0 1 I I #
straight-curve $-1 26.797997324831844 -36.150297550251636 7.2780746331874298 0 -0.52991925155115449 -0.84804810408105047 I I #
edge $-1 $544 6.5040906720014355 $300 26.797997324831844 $436 $551 forward 7 unknown #
point $-1 26.797997324831844 -36.150297550251658 10.809564512088709 #
point $-1 26.797997324831844 -33.943577831780352 10.809564512088709 #
edge $-1 $552 1 $552 0 $303 $-1 forward 7 unknown #
vertex $-1 $304 $553 #
ellipse-curve $-1 16.651043998416625 -33.35247199619225 7.9849999273148642 0 -0.84804810408105047 0.52991925155115449 0.5 0 0 1 I I #
point $-1 17.151043998416625 -35.046937691016019 9.0438195726380748 #
plane-surface $-1 0 0 10.809564512088709 0 0 1 1 0 0 forward_v I I I I #
coedge $-1 $459 $458 $451 $554 forward $308 $-1 #
coedge $-1 $451 $310 $312 $455 reversed $192 $-1 #
coedge $-1 $310 $450 $449 $554 reversed $192 $-1 #
coedge $-1 $318 $313 $310 $453 forward $319 $-1 #
edge $-1 $456 6.4467519349735802 $555 14.634667524189023 $452 $556 forward 7 unknown #
coedge $-1 $312 $311 $459 $557 reversed $119 $-1 #
edge $-1 $558 -72.300595100503301 $456 -62.30499575110494 $450 $559 forward 7 unknown #
vertex $-1 $314 $560 #
straight-curve $-1 -11.315015786377892 27.962381961036225 10.809564512088713 1 0 0 I I #
coedge $-1 $449 $315 $318 $463 reversed $308 $-1 #
coedge $-1 $315 $449 $454 $557 forward $308 $-1 #
vertex $-1 $316 $561 #
straight-curve $-1 -34.280984029517889 36.150297550251658 70.477798050936698 0 0 1 I I #
straight-curve $-1 -34.280984029517889 -23.074882355403169 46.546242402445387 0 0.81915203911291934 -0.57357644374324357 I I #
edge $-1 $555 10.979079115993676 $320 34.280984029517889 $458 $562 forward 7 unknown #
point $-1 -34.280984029517889 36.150297550251658 10.809564512088709 #
point $-1 -34.280984029517889 27.962381961036215 10.809564512088713 #
edge $-1 $563 1 $563 0 $323 $-1 forward 7 unknown #
vertex $-1 $324 $564 #
ellipse-curve $-1 -29.620603046813049 28.653400181427436 3.0830430714952097 0 0.57357644374324357 0.81915203911291934 1.5 0 0 1 I I #
point $-1 -28.120603046813049 32.05633975564394 7.9429443481336026 #
edge $-1 $565 1 $565 0 $327 $-1 forward 7 unknown #
vertex $-1 $328 $566 #
ellipse-curve $-1 -22.630031572755783 28.653400181427436 3.0830430714952097 0 0.57357644374324357 0.81915203911291934 1.5 0 0 1 I I #
point $-1 -21.130031572755783 32.05633975564394 7.9429443481336026 #
edge $-1 $567 1 $567 0 $331 $-1 forward 7 unknown #
vertex $-1 $332 $568 #
ellipse-curve $-1 -15.639460098698521 28.653400181427436 3.0830430714952097 0 0.57357644374324357 0.81915203911291934 1.5 0 0 1 I I #
point $-1 -14.139460098698521 32.05633975564394 7.9429443481336026 #
plane-surface $-1 57.626270332956935 0 0 -1 0 0 0 0 1 forward_v I I I I #
coedge $-1 $340 $338 $342 $483 reversed $221 $-1 #
edge $-1 $353 -10.809564512088709 $485 10.809564512088709 $352 $569 forward 7 unknown #
vertex $-1 $483 $570 #
straight-curve $-1 -57.626270332956935 -36.150297550251658 0 0 0 -1 I I #
edge $-1 $481 -36.150297550251658 $485 36.150297550251658 $479 $571 forward 7 unknown #
straight-curve $-1 0 -36.150297550251658 -10.809564512088709 -1 0 0 I I #
vertex $-1 $345 $572 #
straight-curve $-1 0 36.150297550251658 -10.809564512088709 1 0 0 I I #
point $-1 57.626270332956935 36.150297550251658 -10.809564512088709 #
point $-1 57.626270332956935 -36.150297550251658 -10.809564512088709 #
straight-curve $-1 -57.626270332956935 0 10.809564512088709 0 -1 0 I I #
point $-1 -57.626270332956935 36.150297550251658 10.809564512088709 #
point $-1 -57.626270332956935 -36.150297550251658 10.809564512088709 #
straight-curve $-1 57.626270332956935 -36.150297550251658 0 0 0 -1 I I #
straight-curve $-1 57.626270332956935 36.150297550251658 0 0 0 -1 I I #
plane-surface $-1 0 -36.150297550251658 0 0 1 0 0 0 1 forward_v I I I I #
coedge $-1 $573 $508 $366 $497 forward $363 $-1 #
coedge $-1 $498 $365 $374 $506 forward $240 $-1 #
edge $-1 $501 -3.0958035905268737 $499 3.0958035905268737 $366 $574 forward 7 unknown #
coedge $-1 $367 $496 $573 $575 forward $240 $-1 #
vertex $-1 $368 $576 #
straight-curve $-1 -62.326703912158266 36.150297550251658 4.1179573310349618 1 0 0 I I #
vertex $-1 $369 $577 #
straight-curve $-1 -62.326703912158266 36.150297550251658 10.309564512088709 -1 0 0 I I #
point $-1 -57.626270332956935 36.150297550251658 4.1179573310349618 #
straight-curve $-1 -57.626270332956935 0 4.1179573310349618 0 1 0 I I #
coedge $-1 $374 $373 $578 $579 forward $375 $-1 #
edge $-1 $376 -4.7004335792013308 $580 4.7004335792013308 $374 $581 forward 7 unknown #
point $-1 -57.626270332956935 -36.150297550251658 4.1179573310349618 #
coedge $-1 $495 $578 $378 $509 reversed $363 $-1 #
edge $-1 $501 -36.150297550251658 $510 36.150297550251658 $508 $582 forward 7 unknown #
vertex $-1 $509 $583 #
straight-curve $-1 -62.326703912158266 -36.150297550251658 10.309564512088709 1 0 0 I I #
plane-surface $-1 0 36.150297550251658 0 0 -1 0 0 0 -1 forward_v I I I I #
coedge $-1 $515 $386 $388 $521 forward $383 $-1 #
coedge $-1 $385 $394 $397 $528 forward $254 $-1 #
coedge $-1 $517 $513 $385 $516 reversed $383 $-1 #
edge $-1 $584 -36.150297550251658 $522 36.150297550251658 $515 $585 forward 7 unknown #
coedge $-1 $386 $515 $527 $586 reversed $383 $-1 #
vertex $-1 $387 $587 #
vertex $-1 $387 $588 #
straight-curve $-1 67.027137491359596 0 10.309564512088709 0 1 0 I I #
edge $-1 $518 -3.0958035905268737 $522 3.0958035905268737 $513 $589 forward 7 unknown #
vertex $-1 $521 $590 #
straight-curve $-1 62.326703912158266 -36.150297550251658 4.1179573310349618 -1 0 0 I I #
straight-curve $-1 62.326703912158266 -36.150297550251658 10.309564512088709 1 0 0 I I #
point $-1 57.626270332956935 -36.150297550251658 4.1179573310349618 #
straight-curve $-1 57.626270332956935 0 4.1179573310349618 0 -1 0 I I #
coedge $-1 $397 $396 $517 $586 forward $398 $-1 #
edge $-1 $399 -4.7004335792013308 $584 4.7004335792013308 $397 $591 forward 7 unknown #
point $-1 57.626270332956935 36.150297550251658 4.1179573310349618 #
straight-curve $-1 62.326703912158266 36.150297550251658 10.309564512088709 -1 0 0 I I #
coedge $-1 $415 $414 $407 $532 forward $404 $-1 #
edge $-1 $533 23.366742849030043 $536 26.898232727931358 $531 $592 forward 7 unknown #
vertex $-1 $419 $593 #
straight-curve $-1 -41.721312502552841 -66.944998076252034 10.809564512088709 0 -1 0 I I #
edge $-1 $536 -25.934132914484024 $416 -5.6402262616536145 $415 $594 forward 7 unknown #
vertex $-1 $535 $595 #
straight-curve $-1 -41.721312502552841 -36.150297550251636 7.2780746331874298 0 0.52991925155115449 0.84804810408105047 I I #
point $-1 -41.721312502552841 -33.943577831780352 10.809564512088709 #
point $-1 -21.427405849722433 -36.150297550251658 7.278074633187396 #
straight-curve $-1 0 -36.150297550251658 10.809564512088709 1 0 0 I I #
vertex $-1 $422 $596 #
point $-1 -31.074359176137641 -33.35247199619225 7.9849999273148642 #
edge $-1 $544 23.366742849030043 $547 26.898232727931358 $427 $597 forward 7 unknown #
vertex $-1 $441 $598 #
straight-curve $-1 6.5040906720014355 -66.944998076252034 10.809564512088709 0 -1 0 I I #
edge $-1 $547 -1.8214313272068843 $438 18.472475325623524 $437 $599 forward 7 unknown #
vertex $-1 $546 $600 #
straight-curve $-1 6.5040906720014355 -36.150297550251636 7.2780746331874298 0 0.52991925155115449 0.84804810408105047 I I #
point $-1 6.5040906720014355 -33.943577831780352 10.809564512088709 #
point $-1 26.797997324831844 -36.150297550251658 7.278074633187396 #
straight-curve $-1 0 -36.150297550251658 10.809564512088709 1 0 0 I I #
vertex $-1 $444 $601 #
point $-1 17.151043998416625 -33.35247199619225 7.9849999273148642 #
edge $-1 $555 59.668233538847986 $558 65.401473866758181 $449 $602 forward 7 unknown #
vertex $-1 $463 $603 #
straight-curve $-1 -10.979079115993676 21.515630026062635 10.809564512088713 0 1 0 I I #
edge $-1 $558 -0.33593667038421593 $460 22.965968243139997 $459 $604 forward 7 unknown #
vertex $-1 $557 $605 #
straight-curve $-1 -10.979079115993676 -23.074882355403169 46.546242402445387 0 -0.81915203911291934 0.57357644374324357 I I #
point $-1 -10.979079115993676 27.962381961036215 10.809564512088713 #
point $-1 -34.280984029517889 36.150297550251658 5.0763241841785245 #
straight-curve $-1 0 36.150297550251658 10.809564512088709 -1 0 0 I I #
vertex $-1 $466 $606 #
point $-1 -28.120603046813049 28.653400181427436 3.0830430714952097 #
vertex $-1 $470 $607 #
point $-1 -21.130031572755783 28.653400181427436 3.0830430714952097 #
vertex $-1 $474 $608 #
point $-1 -14.139460098698521 28.653400181427436 3.0830430714952097 #
straight-curve $-1 -57.626270332956935 36.150297550251658 0 0 0 -1 I I #
point $-1 -57.626270332956935 -36.150297550251658 -10.809564512088709 #
straight-curve $-1 -57.626270332956935 0 -10.809564512088709 0 1 0 I I #
point $-1 -57.626270332956935 36.150297550251658 -10.809564512088709 #
coedge $-1 $578 $495 $498 $575 reversed $363 $-1 #
straight-curve $-1 -67.027137491359596 36.150297550251658 7.2137609215618355 0 0 -1 I I #
edge $-1 $580 -36.150297550251658 $499 36.150297550251658 $573 $609 forward 7 unknown #
point $-1 -67.027137491359596 36.150297550251658 4.1179573310349618 #
point $-1 -67.027137491359596 36.150297550251658 10.309564512088709 #
coedge $-1 $508 $573 $505 $579 reversed $363 $-1 #
edge $-1 $510 -3.0958035905268737 $580 3.0958035905268737 $578 $610 forward 7 unknown #
vertex $-1 $575 $611 #
straight-curve $-1 -62.326703912158266 -36.150297550251658 4.1179573310349618 -1 0 0 I I #
straight-curve $-1 -67.027137491359596 0 10.309564512088709 0 -1 0 I I #
point $-1 -67.027137491359596 -36.150297550251658 10.309564512088709 #
vertex $-1 $516 $612 #
straight-curve $-1 67.027137491359596 0 4.1179573310349618 0 -1 0 I I #
edge $-1 $519 -3.0958035905268737 $584 3.0958035905268737 $517 $613 forward 7 unknown #
point $-1 67.027137491359596 -36.150297550251658 10.309564512088709 #
point $-1 67.027137491359596 36.150297550251658 10.309564512088709 #
straight-curve $-1 67.027137491359596 -36.150297550251658 7.2137609215618355 0 0 -1 I I #
point $-1 67.027137491359596 -36.150297550251658 4.1179573310349618 #
straight-curve $-1 62.326703912158266 36.150297550251658 4.1179573310349618 1 0 0 I I #
straight-curve $-1 -41.721312502552841 -36.150297550251658 34.176307361118752 0 0 -1 I I #
point $-1 -41.721312502552841 -36.150297550251658 10.809564512088709 #
straight-curve $-1 -15.787179588068819 -36.150297550251658 7.2780746331873987 1 0 0 I I #
point $-1 -41.721312502552841 -36.150297550251658 7.278074633187396 #
point $-1 -31.574359176137641 -32.928447944151728 7.7200403015392878 #
straight-curve $-1 6.5040906720014355 -36.150297550251658 34.176307361118752 0 0 -1 I I #
point $-1 6.5040906720014355 -36.150297550251658 10.809564512088709 #
straight-curve $-1 8.3255219992083198 -36.150297550251658 7.2780746331873987 1 0 0 I I #
point $-1 6.5040906720014355 -36.150297550251658 7.278074633187396 #
point $-1 16.651043998416625 -32.928447944151728 7.7200403015392878 #
straight-curve $-1 -10.979079115993676 36.150297550251658 70.477798050936698 0 0 -1 I I #
point $-1 -10.979079115993676 36.150297550251658 10.809564512088709 #
straight-curve $-1 -11.315015786377892 36.150297550251658 5.0763241841785245 -1 0 0 I I #
point $-1 -10.979079115993676 36.150297550251658 5.0763241841785245 #
point $-1 -29.620603046813049 27.793035515812569 1.8543150128258308 #
point $-1 -22.630031572755783 27.793035515812569 1.8543150128258308 #
point $-1 -15.639460098698521 27.793035515812569 1.8543150128258308 #
straight-curve $-1 -67.027137491359596 0 4.1179573310349618 0 1 0 I I #
straight-curve $-1 -67.027137491359596 -36.150297550251658 7.2137609215618355 0 0 -1 I I #
point $-1 -67.027137491359596 -36.150297550251658 4.1179573310349618 #
point $-1 67.027137491359596 36.150297550251658 4.1179573310349618 #
straight-curve $-1 67.027137491359596 36.150297550251658 7.2137609215618355 0 0 -1 I I #
End-of-ACIS-data 