500 0 8 0           
7 Unknown 11 ACIS 5.0 NT 24 Thu Mar 25 21:19:27 1999 
-1 9.9999999999999995e-007 1e-010 
body $-1 $8 $-1 $9 #
body $-1 $10 $-1 $11 #
body $-1 $12 $-1 $13 #
body $-1 $14 $-1 $15 #
body $-1 $16 $-1 $17 #
body $-1 $18 $-1 $19 #
body $-1 $20 $-1 $21 #
body $-1 $22 $-1 $23 #
lump $-1 $-1 $24 $0 #
transform $-1 1 0 0 0 1 0 0 0 1 61.470381786553546 29.339833674952285 9.2770535830585086 1 rotate no_reflect no_shear #
lump $-1 $-1 $25 $1 #
transform $-1 1 0 0 0 1 0 0 0 1 61.470381786553546 29.339833674952285 9.2770535830585086 1 rotate no_reflect no_shear #
lump $-1 $-1 $26 $2 #
transform $-1 1 0 0 0 1 0 0 0 1 61.470381786553546 29.339833674952285 9.2770535830585086 1 rotate no_reflect no_shear #
lump $-1 $-1 $27 $3 #
transform $-1 1 0 0 0 1 0 0 0 1 61.470381786553546 29.339833674952285 9.2770535830585086 1 rotate no_reflect no_shear #
lump $-1 $-1 $28 $4 #
transform $-1 1 0 0 0 1 0 0 0 1 61.470381786553546 29.339833674952285 9.2770535830585086 1 rotate no_reflect no_shear #
lump $-1 $-1 $29 $5 #
transform $-1 1 0 0 0 1 0 0 0 1 61.470381786553546 29.339833674952285 9.2770535830585086 1 rotate no_reflect no_shear #
lump $-1 $-1 $30 $6 #
transform $-1 1 0 0 0 1 0 0 0 1 61.470381786553546 29.339833674952285 9.2770535830585086 1 rotate no_reflect no_shear #
lump $-1 $-1 $31 $7 #
transform $-1 1 0 0 0 1 0 0 0 1 61.470381786553546 29.339833674952285 9.2770535830585086 1 rotate no_reflect no_shear #
shell $-1 $-1 $-1 $32 $-1 $8 #
shell $-1 $-1 $-1 $33 $-1 $10 #
shell $-1 $-1 $-1 $34 $-1 $12 #
shell $-1 $-1 $-1 $35 $-1 $14 #
shell $-1 $-1 $-1 $36 $-1 $16 #
shell $-1 $-1 $-1 $37 $-1 $18 #
shell $-1 $-1 $-1 $38 $-1 $20 #
shell $-1 $-1 $-1 $39 $-1 $22 #
face $-1 $40 $41 $24 $-1 $42 forward single #
face $-1 $43 $44 $25 $-1 $45 forward single #
face $-1 $46 $47 $26 $-1 $48 reversed single #
face $-1 $49 $50 $27 $-1 $51 forward single #
face $-1 $52 $53 $28 $-1 $54 forward single #
face $-1 $55 $56 $29 $-1 $57 forward single #
face $-1 $58 $59 $30 $-1 $60 reversed single #
face $-1 $61 $62 $31 $-1 $63 forward single #
face $-1 $64 $65 $24 $-1 $66 reversed single #
loop $-1 $-1 $67 $32 #
plane-surface $-1 0 0 9.2770535830585086 0 0 1 1 0 0 forward_v I I I I #
face $-1 $68 $69 $25 $-1 $70 reversed single #
loop $-1 $-1 $71 $33 #
plane-surface $-1 0 -29.339833674952285 0 0 1 0 0 0 1 forward_v I I I I #
face $-1 $72 $73 $26 $-1 $74 reversed single #
loop $-1 $-1 $75 $34 #
plane-surface $-1 -143.73381045181981 -8.7650455382131689 92.581536321865769 0 1 0 -0.66913061440640931 0 0.74314481823134659 forward_v I I I I #
face $-1 $76 $77 $27 $-1 $78 forward single #
loop $-1 $79 $80 $35 #
cone-surface $-1 -56.550316454224458 -6.2370985468083155 4.753414360602136 0.66913061440640931 0 -0.74314481823134659 0.74314481823134659 0 0.66913061440640931 1 I I 0 1 1 forward I I I I #
face $-1 $81 $82 $28 $-1 $83 forward single #
loop $-1 $84 $85 $36 #
cone-surface $-1 -56.550316454224458 -2.445178059701032 4.753414360602136 0.66913061440640931 0 -0.74314481823134659 0.74314481823134659 0 0.66913061440640931 1 I I 0 1 1 forward I I I I #
face $-1 $86 $87 $29 $-1 $88 forward single #
loop $-1 $89 $90 $37 #
cone-surface $-1 -56.550316454224458 1.3467424274062516 4.753414360602136 0.66913061440640931 0 -0.74314481823134659 0.74314481823134659 0 0.66913061440640931 1 I I 0 1 1 forward I I I I #
face $-1 $91 $92 $30 $-1 $93 reversed single #
loop $-1 $-1 $94 $38 #
plane-surface $-1 19.40875487539877 -10.383267514728484 172.80390225049447 0 -1 0 -0.51503808176128008 0 -0.85716729658548041 forward_v I I I I #
face $-1 $95 $96 $31 $-1 $97 forward single #
loop $-1 $98 $99 $39 #
cone-surface $-1 55.612705728732593 -15.944582481881376 4.1060124342239064 -0.51503808176128008 0 -0.85716729658548041 1.7143345931709608 0 -1.0300761635225602 1 I I 0 1 2 forward I I I I #
face $-1 $100 $101 $24 $-1 $102 reversed single #
loop $-1 $-1 $103 $40 #
plane-surface $-1 0 0 -9.2770535830585086 0 0 1 1 0 0 forward_v I I I I #
coedge $-1 $104 $105 $106 $107 forward $41 $-1 #
face $-1 $108 $109 $25 $-1 $110 forward single #
loop $-1 $-1 $111 $43 #
plane-surface $-1 -61.470381786553546 0 0 1 0 0 0 0 -1 forward_v I I I I #
coedge $-1 $112 $113 $114 $115 forward $44 $-1 #
face $-1 $116 $117 $26 $-1 $118 reversed single #
loop $-1 $-1 $119 $46 #
plane-surface $-1 -61.470381786553546 -2.445178059701032 1.2187449231061294 -0.66913061440640931 0 0.74314481823134659 0.74314481823134659 0 0.66913061440640931 forward_v I I I I #
coedge $-1 $120 $121 $122 $123 reversed $47 $-1 #
face $-1 $-1 $124 $27 $-1 $125 forward single #
loop $-1 $126 $127 $49 #
cone-surface $-1 -55.770514940291832 -6.2370985468083155 3.8873570590062823 0.66913061440640931 0 -0.74314481823134659 0.3715724091156733 0 0.33456530720320465 1 I I -0.70710678118654746 0.70710678118654746 0.5 forward I I I I #
loop $-1 $-1 $128 $35 #
coedge $-1 $80 $80 $129 $130 reversed $50 $-1 #
face $-1 $-1 $131 $28 $-1 $132 forward single #
loop $-1 $133 $134 $52 #
cone-surface $-1 -55.770514940291832 -2.445178059701032 3.8873570590062823 0.66913061440640931 0 -0.74314481823134659 0.3715724091156733 0 0.33456530720320465 1 I I -0.70710678118654746 0.70710678118654746 0.5 forward I I I I #
loop $-1 $-1 $135 $36 #
coedge $-1 $85 $85 $136 $137 reversed $53 $-1 #
face $-1 $-1 $138 $29 $-1 $139 forward single #
loop $-1 $140 $141 $55 #
cone-surface $-1 -55.770514940291832 1.3467424274062516 3.8873570590062823 0.66913061440640931 0 -0.74314481823134659 0.3715724091156733 0 0.33456530720320465 1 I I -0.70710678118654746 0.70710678118654746 0.5 forward I I I I #
loop $-1 $-1 $142 $37 #
coedge $-1 $90 $90 $143 $144 reversed $56 $-1 #
face $-1 $145 $146 $30 $-1 $147 reversed single #
loop $-1 $-1 $148 $58 #
plane-surface $-1 -43.910420165561362 -15.944582481881376 67.423100298379566 0.51503808176128008 0 0.85716729658548041 0.85716729658548041 0 -0.51503808176128008 forward_v I I I I #
coedge $-1 $149 $150 $151 $152 reversed $59 $-1 #
face $-1 $-1 $153 $31 $-1 $154 forward single #
loop $-1 $155 $156 $61 #
cone-surface $-1 53.544757177176422 -15.944582481881376 0.66436815162335883 -0.51503808176128008 0 -0.85716729658548041 0.85716729658548041 0 -0.51503808176128008 1 I I -0.70710678118654768 0.70710678118654735 1 forward I I I I #
loop $-1 $-1 $157 $39 #
coedge $-1 $99 $99 $158 $159 reversed $62 $-1 #
face $-1 $160 $161 $24 $-1 $162 reversed single #
loop $-1 $-1 $163 $64 #
plane-surface $-1 0 -29.339833674952285 0 0 1 0 0 0 1 forward_v I I I I #
coedge $-1 $164 $165 $166 $167 forward $65 $-1 #
coedge $-1 $168 $67 $169 $170 forward $41 $-1 #
coedge $-1 $67 $168 $171 $172 forward $41 $-1 #
coedge $-1 $173 $174 $67 $107 reversed $175 $-1 #
edge $-1 $176 -29.339833674952285 $177 29.339833674952285 $106 $178 forward 7 unknown #
face $-1 $179 $180 $25 $-1 $181 reversed single #
loop $-1 $-1 $182 $68 #
plane-surface $-1 0 -33.256801787911293 2.3058340915152353 0 0 1 1 0 0 forward_v I I I I #
coedge $-1 $183 $184 $113 $185 forward $69 $-1 #
coedge $-1 $186 $71 $187 $188 reversed $44 $-1 #
coedge $-1 $71 $186 $111 $185 reversed $44 $-1 #
coedge $-1 $189 $182 $71 $115 reversed $109 $-1 #
edge $-1 $190 -61.470381786553546 $191 61.470381786553546 $114 $192 forward 7 unknown #
face $-1 $193 $194 $26 $-1 $195 forward single #
loop $-1 $-1 $196 $72 #
plane-surface $-1 -143.73381045181981 3.874689418811105 92.581536321865769 0 -1 0 0.66913061440640931 0 -0.74314481823134659 forward_v I I I I #
coedge $-1 $197 $198 $199 $200 reversed $73 $-1 #
coedge $-1 $121 $75 $201 $202 reversed $47 $-1 #
coedge $-1 $75 $120 $197 $203 reversed $47 $-1 #
coedge $-1 $199 $204 $75 $123 forward $194 $-1 #
edge $-1 $205 10.396523439356358 $206 19.346181690555682 $122 $207 forward 7 unknown #
loop $-1 $-1 $129 $76 #
plane-surface $-1 -61.470381786553546 -2.445178059701032 1.2187449231061294 -0.66913061440640931 0 0.74314481823134659 0.74314481823134659 0 0.66913061440640931 forward_v I I I I #
loop $-1 $-1 $208 $49 #
coedge $-1 $127 $127 $128 $209 reversed $77 $-1 #
coedge $-1 $128 $128 $127 $209 forward $79 $-1 #
coedge $-1 $129 $129 $80 $130 forward $124 $-1 #
edge $-1 $210 0 $210 6.2831853071796004 $129 $211 forward 7 unknown #
loop $-1 $-1 $136 $81 #
plane-surface $-1 -61.470381786553546 -2.445178059701032 1.2187449231061294 -0.66913061440640931 0 0.74314481823134659 0.74314481823134659 0 0.66913061440640931 forward_v I I I I #
loop $-1 $-1 $212 $52 #
coedge $-1 $134 $134 $135 $213 reversed $82 $-1 #
coedge $-1 $135 $135 $134 $213 forward $84 $-1 #
coedge $-1 $136 $136 $85 $137 forward $131 $-1 #
edge $-1 $214 0 $214 6.2831853071796004 $136 $215 forward 7 unknown #
loop $-1 $-1 $143 $86 #
plane-surface $-1 -61.470381786553546 -2.445178059701032 1.2187449231061294 -0.66913061440640931 0 0.74314481823134659 0.74314481823134659 0 0.66913061440640931 forward_v I I I I #
loop $-1 $-1 $216 $55 #
coedge $-1 $141 $141 $142 $217 reversed $87 $-1 #
coedge $-1 $142 $142 $141 $217 forward $89 $-1 #
coedge $-1 $143 $143 $90 $144 forward $138 $-1 #
edge $-1 $218 0 $218 6.2831853071796004 $143 $219 forward 7 unknown #
face $-1 $220 $221 $30 $-1 $222 reversed single #
loop $-1 $-1 $223 $91 #
plane-surface $-1 19.40875487539877 -21.505897449034268 172.80390225049447 0 1 0 0.51503808176128008 0 0.85716729658548041 forward_v I I I I #
coedge $-1 $224 $225 $226 $227 reversed $92 $-1 #
coedge $-1 $150 $94 $228 $229 reversed $59 $-1 #
coedge $-1 $94 $149 $224 $230 reversed $59 $-1 #
coedge $-1 $226 $231 $94 $152 forward $232 $-1 #
edge $-1 $233 -51.76600434885416 $234 -43.156473172802045 $151 $235 forward 7 unknown #
loop $-1 $-1 $158 $95 #
plane-surface $-1 -43.910420165561362 -15.944582481881376 67.423100298379566 0.51503808176128008 0 0.85716729658548041 0.85716729658548041 0 -0.51503808176128008 forward_v I I I I #
loop $-1 $-1 $236 $61 #
coedge $-1 $156 $156 $157 $237 reversed $96 $-1 #
coedge $-1 $157 $157 $156 $237 forward $98 $-1 #
coedge $-1 $158 $158 $99 $159 forward $153 $-1 #
edge $-1 $238 0 $238 6.2831853071796004 $158 $239 forward 7 unknown #
face $-1 $240 $241 $24 $-1 $242 reversed single #
loop $-1 $-1 $243 $100 #
plane-surface $-1 -61.470381786553546 0 0 1 0 0 0 0 -1 forward_v I I I I #
coedge $-1 $244 $171 $245 $246 forward $101 $-1 #
coedge $-1 $247 $103 $244 $248 forward $65 $-1 #
coedge $-1 $103 $247 $249 $250 forward $65 $-1 #
coedge $-1 $174 $173 $103 $167 reversed $175 $-1 #
edge $-1 $251 -29.339833674952285 $252 29.339833674952285 $166 $253 forward 7 unknown #
coedge $-1 $105 $104 $254 $255 forward $41 $-1 #
coedge $-1 $256 $257 $104 $170 reversed $241 $-1 #
edge $-1 $177 -61.470381786553546 $258 61.470381786553546 $169 $259 forward 7 unknown #
coedge $-1 $163 $260 $105 $172 reversed $101 $-1 #
edge $-1 $261 -61.470381786553546 $176 61.470381786553546 $171 $262 forward 7 unknown #
coedge $-1 $166 $106 $260 $263 forward $175 $-1 #
coedge $-1 $106 $166 $256 $264 reversed $175 $-1 #
loop $-1 $-1 $173 $240 #
vertex $-1 $107 $265 #
vertex $-1 $107 $266 #
straight-curve $-1 61.470381786553546 0 9.2770535830585086 0 1 0 I I #
face $-1 $267 $268 $25 $-1 $269 reversed single #
loop $-1 $-1 $270 $108 #
plane-surface $-1 0 -33.256801787911293 -1.2705044640583143 0 0 1 1 0 0 forward_v I I I I #
coedge $-1 $114 $271 $272 $273 forward $109 $-1 #
coedge $-1 $274 $111 $275 $276 reversed $69 $-1 #
coedge $-1 $111 $274 $189 $277 reversed $69 $-1 #
edge $-1 $190 -2.3058340915152353 $278 1.2705044640583143 $111 $279 forward 7 unknown #
coedge $-1 $113 $112 $280 $281 forward $44 $-1 #
coedge $-1 $272 $282 $112 $188 forward $283 $-1 #
edge $-1 $284 -1.2705044640583143 $191 2.3058340915152353 $187 $285 forward 7 unknown #
coedge $-1 $271 $114 $184 $277 forward $109 $-1 #
vertex $-1 $185 $286 #
vertex $-1 $273 $287 #
straight-curve $-1 0 -29.339833674952285 2.3058340915152353 1 0 0 I I #
face $-1 $-1 $288 $26 $-1 $289 reversed single #
loop $-1 $-1 $122 $116 #
plane-surface $-1 0 0 9.2770535830585086 0 0 1 1 0 0 forward_v I I I I #
coedge $-1 $290 $291 $292 $293 reversed $117 $-1 #
coedge $-1 $294 $119 $121 $203 forward $73 $-1 #
coedge $-1 $119 $294 $290 $295 forward $73 $-1 #
coedge $-1 $292 $122 $119 $200 forward $194 $-1 #
edge $-1 $206 -7.5424565083626529 $296 5.0972784486616209 $199 $297 forward 7 unknown #
coedge $-1 $298 $299 $120 $202 forward $288 $-1 #
edge $-1 $300 -45.072023237826755 $205 -37.013714577874374 $201 $301 forward 7 unknown #
edge $-1 $206 -12.042953179030617 $300 0 $121 $302 forward 7 unknown #
coedge $-1 $122 $292 $298 $303 forward $194 $-1 #
vertex $-1 $202 $304 #
vertex $-1 $123 $305 #
straight-curve $-1 -71.866905225909903 -8.7650455382131689 9.2770535830585104 1 0 0 I I #
coedge $-1 $208 $208 $-1 $306 reversed $126 $-1 #
edge $-1 $307 0 $307 6.2831853071796004 $127 $308 forward 7 unknown #
vertex $-1 $130 $309 #
ellipse-curve $-1 -56.995552660953884 -6.2370985468083155 5.247899253082319 -0.66913061440640931 0 0.74314481823134659 0.74314481823134659 0 0.66913061440640931 1 I I #
coedge $-1 $212 $212 $-1 $310 reversed $133 $-1 #
edge $-1 $311 0 $311 6.2831853071796004 $134 $312 forward 7 unknown #
vertex $-1 $137 $313 #
ellipse-curve $-1 -56.995552660953884 -2.445178059701032 5.247899253082319 -0.66913061440640931 0 0.74314481823134659 0.74314481823134659 0 0.66913061440640931 1 I I #
coedge $-1 $216 $216 $-1 $314 reversed $140 $-1 #
edge $-1 $315 0 $315 6.2831853071796004 $141 $316 forward 7 unknown #
vertex $-1 $144 $317 #
ellipse-curve $-1 -56.995552660953884 1.3467424274062516 5.247899253082319 -0.66913061440640931 0 0.74314481823134659 0.74314481823134659 0 0.66913061440640931 1 I I #
face $-1 $-1 $232 $30 $-1 $318 forward single #
loop $-1 $-1 $319 $145 #
plane-surface $-1 61.470381786553546 0 0 -1 0 0 0 0 1 forward_v I I I I #
coedge $-1 $320 $321 $322 $323 reversed $146 $-1 #
coedge $-1 $324 $148 $150 $230 forward $92 $-1 #
coedge $-1 $148 $324 $320 $325 forward $92 $-1 #
coedge $-1 $322 $151 $148 $227 forward $232 $-1 #
edge $-1 $234 2.4109762737877958 $326 13.53360620809358 $226 $327 forward 7 unknown #
coedge $-1 $328 $329 $149 $229 forward $221 $-1 #
edge $-1 $330 -82.298025867827803 $233 -77.124897542188734 $228 $331 forward 7 unknown #
edge $-1 $234 112.89659692051998 $330 122.94076357310708 $150 $332 forward 7 unknown #
coedge $-1 $151 $322 $328 $333 forward $232 $-1 #
loop $-1 $-1 $322 $220 #
vertex $-1 $229 $334 #
vertex $-1 $152 $335 #
straight-curve $-1 9.7043774376993852 -10.383267514728484 9.2770535830585032 -1 0 0 I I #
coedge $-1 $236 $236 $-1 $336 reversed $155 $-1 #
edge $-1 $337 0 $337 6.2831853071796004 $156 $338 forward 7 unknown #
vertex $-1 $159 $339 #
ellipse-curve $-1 57.165616198527481 -15.944582481881376 6.6904894202389738 0.51503808176128008 0 0.85716729658548041 1.7143345931709608 0 -1.0300761635225602 1 I I #
face $-1 $-1 $175 $24 $-1 $340 reversed single #
loop $-1 $-1 $256 $160 #
plane-surface $-1 0 29.339833674952285 0 0 -1 0 0 0 -1 forward_v I I I I #
coedge $-1 $341 $254 $257 $342 forward $161 $-1 #
coedge $-1 $260 $163 $164 $248 reversed $101 $-1 #
coedge $-1 $254 $341 $163 $246 reversed $161 $-1 #
edge $-1 $261 -9.2770535830585086 $343 9.2770535830585086 $245 $344 forward 7 unknown #
coedge $-1 $165 $164 $341 $345 forward $65 $-1 #
edge $-1 $252 -61.470381786553546 $343 61.470381786553546 $244 $346 forward 7 unknown #
coedge $-1 $257 $256 $165 $250 reversed $241 $-1 #
edge $-1 $347 -61.470381786553546 $251 61.470381786553546 $249 $348 forward 7 unknown #
vertex $-1 $167 $349 #
vertex $-1 $263 $350 #
straight-curve $-1 61.470381786553546 0 -9.2770535830585086 0 -1 0 I I #
coedge $-1 $243 $245 $168 $255 reversed $161 $-1 #
edge $-1 $258 -29.339833674952285 $261 29.339833674952285 $254 $351 forward 7 unknown #
coedge $-1 $249 $169 $174 $264 forward $241 $-1 #
coedge $-1 $169 $249 $243 $342 reversed $241 $-1 #
vertex $-1 $170 $352 #
straight-curve $-1 0 29.339833674952285 9.2770535830585086 -1 0 0 I I #
coedge $-1 $171 $244 $173 $263 reversed $101 $-1 #
vertex $-1 $255 $353 #
straight-curve $-1 0 -29.339833674952285 9.2770535830585086 1 0 0 I I #
edge $-1 $176 -9.2770535830585086 $252 9.2770535830585086 $173 $354 forward 7 unknown #
edge $-1 $177 -9.2770535830585086 $251 9.2770535830585086 $174 $355 forward 7 unknown #
point $-1 61.470381786553546 -29.339833674952285 9.2770535830585086 #
point $-1 61.470381786553546 29.339833674952285 9.2770535830585086 #
face $-1 $-1 $283 $25 $-1 $356 reversed single #
loop $-1 $-1 $357 $179 #
plane-surface $-1 0 -37.173769900870298 0.51766481372846052 0 1 0 0 0 1 forward_v I I I I #
coedge $-1 $358 $280 $282 $359 forward $180 $-1 #
coedge $-1 $182 $189 $360 $361 forward $109 $-1 #
coedge $-1 $362 $187 $182 $273 reversed $283 $-1 #
edge $-1 $363 -3.9169681129590046 $191 3.9169681129590082 $272 $364 forward 7 unknown #
coedge $-1 $184 $183 $357 $365 reversed $69 $-1 #
coedge $-1 $280 $358 $183 $276 forward $180 $-1 #
edge $-1 $366 -3.9169681129590046 $278 3.9169681129590082 $183 $367 forward 7 unknown #
edge $-1 $190 -3.9169681129590082 $368 3.9169681129590046 $184 $369 forward 7 unknown #
vertex $-1 $185 $370 #
straight-curve $-1 -61.470381786553546 -29.339833674952285 0 0 0 -1 I I #
coedge $-1 $270 $275 $186 $281 reversed $180 $-1 #
edge $-1 $284 -61.470381786553546 $278 61.470381786553546 $280 $371 forward 7 unknown #
coedge $-1 $187 $362 $270 $359 reversed $283 $-1 #
loop $-1 $-1 $187 $267 #
vertex $-1 $188 $372 #
straight-curve $-1 61.470381786553546 -29.339833674952285 0 0 0 1 I I #
point $-1 -61.470381786553546 -29.339833674952285 2.3058340915152353 #
point $-1 61.470381786553546 -29.339833674952285 2.3058340915152353 #
loop $-1 $-1 $201 $193 #
plane-surface $-1 -61.470381786553546 0 0 1 0 0 0 0 -1 forward_v I I I I #
coedge $-1 $291 $196 $198 $295 reversed $117 $-1 #
coedge $-1 $196 $290 $373 $374 reversed $117 $-1 #
coedge $-1 $204 $199 $196 $293 forward $194 $-1 #
edge $-1 $296 -19.346181690555682 $375 -10.396523439356358 $292 $376 forward 7 unknown #
coedge $-1 $198 $197 $299 $377 reversed $73 $-1 #
edge $-1 $378 0 $296 12.042953179030617 $290 $379 forward 7 unknown #
vertex $-1 $200 $380 #
straight-curve $-1 -52.520723535354215 -1.222589029850516 9.2770535830585068 0 1 0 I I #
coedge $-1 $373 $201 $204 $303 reversed $288 $-1 #
coedge $-1 $201 $373 $294 $377 forward $288 $-1 #
vertex $-1 $202 $381 #
straight-curve $-1 -61.470381786553546 -8.7650455382131689 46.290768160932885 0 0 1 I I #
straight-curve $-1 -61.470381786553546 -8.7650455382131689 1.2187449231061294 -0.74314481823134659 0 -0.66913061440640931 I I #
edge $-1 $375 -3.874689418811105 $205 8.7650455382131689 $298 $382 forward 7 unknown #
point $-1 -61.470381786553546 -8.7650455382131689 9.2770535830585086 #
point $-1 -52.520723535354222 -8.7650455382131689 9.2770535830585086 #
edge $-1 $383 1 $383 0 $208 $-1 forward 7 unknown #
vertex $-1 $209 $384 #
ellipse-curve $-1 -56.105080247495039 -6.2370985468083155 4.2589294681219556 -0.66913061440640931 0 0.74314481823134659 0.74314481823134659 0 0.66913061440640931 1 I I #
point $-1 -56.252407842722533 -6.2370985468083155 5.9170298674887247 #
edge $-1 $385 1 $385 0 $212 $-1 forward 7 unknown #
vertex $-1 $213 $386 #
ellipse-curve $-1 -56.105080247495039 -2.445178059701032 4.2589294681219556 -0.66913061440640931 0 0.74314481823134659 0.74314481823134659 0 0.66913061440640931 1 I I #
point $-1 -56.252407842722533 -2.445178059701032 5.9170298674887247 #
edge $-1 $387 1 $387 0 $216 $-1 forward 7 unknown #
vertex $-1 $217 $388 #
ellipse-curve $-1 -56.105080247495039 1.3467424274062516 4.2589294681219556 -0.66913061440640931 0 0.74314481823134659 0.74314481823134659 0 0.66913061440640931 1 I I #
point $-1 -56.252407842722533 1.3467424274062516 5.9170298674887247 #
plane-surface $-1 0 0 9.2770535830585086 0 0 1 1 0 0 forward_v I I I I #
coedge $-1 $329 $328 $321 $389 forward $221 $-1 #
coedge $-1 $321 $223 $225 $325 reversed $146 $-1 #
coedge $-1 $223 $320 $319 $389 reversed $146 $-1 #
coedge $-1 $231 $226 $223 $323 forward $232 $-1 #
edge $-1 $326 43.156473172802045 $390 51.76600434885416 $322 $391 forward 7 unknown #
coedge $-1 $225 $224 $329 $392 reversed $92 $-1 #
edge $-1 $393 -122.94076357310708 $326 -112.89659692051998 $320 $394 forward 7 unknown #
vertex $-1 $227 $395 #
straight-curve $-1 52.860850610501423 -7.9722912409406881 9.2770535830585104 0 -1 0 I I #
coedge $-1 $319 $228 $231 $333 reversed $221 $-1 #
coedge $-1 $228 $319 $324 $392 forward $221 $-1 #
vertex $-1 $229 $396 #
straight-curve $-1 61.470381786553546 -10.383267514728484 86.401951125247237 0 0 1 I I #
straight-curve $-1 -43.910420165561362 -10.383267514728484 67.423100298379566 0.85716729658548041 0 -0.51503808176128008 I I #
edge $-1 $390 -21.505897449034268 $233 -10.383267514728484 $328 $397 forward 7 unknown #
point $-1 61.470381786553546 -10.383267514728484 9.2770535830585086 #
point $-1 52.86085061050143 -10.383267514728484 9.2770535830585104 #
edge $-1 $398 1 $398 0 $236 $-1 forward 7 unknown #
vertex $-1 $237 $399 #
ellipse-curve $-1 54.059795258937704 -15.944582481881376 1.521535448208839 0.51503808176128008 0 0.85716729658548041 1.7143345931709608 0 -1.0300761635225602 1 I I #
point $-1 58.879950791698441 -15.944582481881376 5.6604132567164127 #
plane-surface $-1 61.470381786553546 0 0 -1 0 0 0 0 1 forward_v I I I I #
coedge $-1 $245 $243 $247 $345 reversed $161 $-1 #
edge $-1 $258 -9.2770535830585086 $347 9.2770535830585086 $257 $400 forward 7 unknown #
vertex $-1 $345 $401 #
straight-curve $-1 -61.470381786553546 -29.339833674952285 0 0 0 -1 I I #
edge $-1 $343 -29.339833674952285 $347 29.339833674952285 $341 $402 forward 7 unknown #
straight-curve $-1 0 -29.339833674952285 -9.2770535830585086 -1 0 0 I I #
vertex $-1 $250 $403 #
straight-curve $-1 0 29.339833674952285 -9.2770535830585086 1 0 0 I I #
point $-1 61.470381786553546 29.339833674952285 -9.2770535830585086 #
point $-1 61.470381786553546 -29.339833674952285 -9.2770535830585086 #
straight-curve $-1 -61.470381786553546 0 9.2770535830585086 0 -1 0 I I #
point $-1 -61.470381786553546 29.339833674952285 9.2770535830585086 #
point $-1 -61.470381786553546 -29.339833674952285 9.2770535830585086 #
straight-curve $-1 61.470381786553546 -29.339833674952285 0 0 0 -1 I I #
straight-curve $-1 61.470381786553546 29.339833674952285 0 0 0 -1 I I #
plane-surface $-1 61.470381786553546 0 0 -1 0 0 0 0 1 forward_v I I I I #
coedge $-1 $404 $360 $274 $365 forward $268 $-1 #
coedge $-1 $275 $270 $404 $405 forward $180 $-1 #
edge $-1 $284 -3.9169681129590082 $406 3.9169681129590046 $282 $407 forward 7 unknown #
coedge $-1 $357 $408 $271 $361 reversed $268 $-1 #
edge $-1 $368 -61.470381786553546 $363 61.470381786553546 $360 $409 forward 7 unknown #
coedge $-1 $282 $272 $408 $410 forward $283 $-1 #
vertex $-1 $273 $411 #
straight-curve $-1 61.470381786553546 -33.256801787911293 2.3058340915152353 0 1 0 I I #
edge $-1 $368 -1.7881692777867748 $366 1.7881692777867748 $274 $412 forward 7 unknown #
vertex $-1 $276 $413 #
straight-curve $-1 -61.470381786553546 -33.256801787911293 -1.2705044640583143 0 1 0 I I #
vertex $-1 $277 $414 #
straight-curve $-1 -61.470381786553546 -33.256801787911293 2.3058340915152353 0 -1 0 I I #
point $-1 -61.470381786553546 -29.339833674952285 -1.2705044640583143 #
straight-curve $-1 0 -29.339833674952285 -1.2705044640583143 -1 0 0 I I #
point $-1 61.470381786553546 -29.339833674952285 -1.2705044640583143 #
coedge $-1 $299 $298 $291 $374 forward $288 $-1 #
edge $-1 $375 37.013714577874374 $378 45.072023237826755 $373 $415 forward 7 unknown #
vertex $-1 $303 $416 #
straight-curve $-1 -71.866905225909903 3.874689418811105 9.2770535830585104 -1 0 0 I I #
edge $-1 $378 -5.0972784486616209 $300 7.5424565083626529 $299 $417 forward 7 unknown #
vertex $-1 $377 $418 #
straight-curve $-1 -61.470381786553546 3.874689418811105 1.2187449231061294 0.74314481823134659 0 0.66913061440640931 I I #
point $-1 -52.520723535354222 3.874689418811105 9.2770535830585086 #
point $-1 -61.470381786553546 -8.7650455382131689 1.2187449231061294 #
straight-curve $-1 -61.470381786553546 0 9.2770535830585086 0 -1 0 I I #
vertex $-1 $306 $419 #
point $-1 -55.361935429263688 -6.2370985468083155 4.9280600825283649 #
vertex $-1 $310 $420 #
point $-1 -55.361935429263688 -2.445178059701032 4.9280600825283649 #
vertex $-1 $314 $421 #
point $-1 -55.361935429263688 1.3467424274062516 4.9280600825283649 #
edge $-1 $390 77.124897542188734 $393 82.298025867827803 $319 $422 forward 7 unknown #
vertex $-1 $333 $423 #
straight-curve $-1 9.7043774376993852 -21.505897449034268 9.2770535830585032 1 0 0 I I #
edge $-1 $393 -13.53360620809358 $330 -2.4109762737877958 $329 $424 forward 7 unknown #
vertex $-1 $392 $425 #
straight-curve $-1 -43.910420165561362 -21.505897449034268 67.423100298379566 -0.85716729658548041 0 0.51503808176128008 I I #
point $-1 52.86085061050143 -21.505897449034268 9.2770535830585104 #
point $-1 61.470381786553546 -10.383267514728484 4.1039252574194336 #
straight-curve $-1 61.470381786553546 0 9.2770535830585086 0 1 0 I I #
vertex $-1 $336 $426 #
point $-1 55.774129852108665 -15.944582481881376 0.49145928468627875 #
straight-curve $-1 -61.470381786553546 29.339833674952285 0 0 0 -1 I I #
point $-1 -61.470381786553546 -29.339833674952285 -9.2770535830585086 #
straight-curve $-1 -61.470381786553546 0 -9.2770535830585086 0 1 0 I I #
point $-1 -61.470381786553546 29.339833674952285 -9.2770535830585086 #
coedge $-1 $408 $357 $358 $405 reversed $268 $-1 #
edge $-1 $406 -61.470381786553546 $366 61.470381786553546 $404 $427 forward 7 unknown #
vertex $-1 $410 $428 #
straight-curve $-1 61.470381786553546 -33.256801787911293 -1.2705044640583143 0 -1 0 I I #
coedge $-1 $360 $404 $362 $410 reversed $268 $-1 #
straight-curve $-1 0 -37.173769900870298 2.3058340915152353 1 0 0 I I #
edge $-1 $363 -1.7881692777867748 $406 1.7881692777867748 $362 $429 forward 7 unknown #
point $-1 61.470381786553546 -37.173769900870298 2.3058340915152353 #
straight-curve $-1 -61.470381786553546 -37.173769900870298 0.51766481372846052 0 0 -1 I I #
point $-1 -61.470381786553546 -37.173769900870298 -1.2705044640583143 #
point $-1 -61.470381786553546 -37.173769900870298 2.3058340915152353 #
straight-curve $-1 -61.470381786553546 3.874689418811105 46.290768160932885 0 0 -1 I I #
point $-1 -61.470381786553546 3.874689418811105 9.2770535830585086 #
straight-curve $-1 -61.470381786553546 -1.222589029850516 1.21874492310613 0 -1 0 I I #
point $-1 -61.470381786553546 3.874689418811105 1.2187449231061294 #
point $-1 -55.435949633088626 -6.2370985468083155 3.5157846498906089 #
point $-1 -55.435949633088626 -2.445178059701032 3.5157846498906089 #
point $-1 -55.435949633088626 1.3467424274062516 3.5157846498906089 #
straight-curve $-1 61.470381786553546 -21.505897449034268 86.401951125247237 0 0 -1 I I #
point $-1 61.470381786553546 -21.505897449034268 9.2770535830585086 #
straight-curve $-1 61.470381786553531 -7.9722912409406881 4.1039252574194407 0 1 0 I I #
point $-1 61.470381786553546 -21.505897449034268 4.1039252574194336 #
point $-1 53.029719095415139 -15.944582481881376 -0.19279914496212125 #
straight-curve $-1 0 -37.173769900870298 -1.2705044640583143 -1 0 0 I I #
point $-1 61.470381786553546 -37.173769900870298 -1.2705044640583143 #
straight-curve $-1 61.470381786553546 -37.173769900870298 0.51766481372846052 0 0 -1 I I #
End-of-ACIS-data 