500 0 8 0           
7 Unknown 11 ACIS 5.0 NT 24 Fri Mar 26 03:18:11 1999 
-1 9.9999999999999995e-007 1e-010 
body $-1 $8 $-1 $9 #
body $-1 $10 $-1 $11 #
body $-1 $12 $-1 $13 #
body $-1 $14 $-1 $15 #
body $-1 $16 $-1 $17 #
body $-1 $18 $-1 $19 #
body $-1 $20 $-1 $21 #
body $-1 $22 $-1 $23 #
lump $-1 $-1 $24 $0 #
transform $-1 1 0 0 0 1 0 0 0 1 78.712118900112927 38.640931492154806 14.389492787268354 1 rotate no_reflect no_shear #
lump $-1 $-1 $25 $1 #
transform $-1 1 0 0 0 1 0 0 0 1 78.712118900112927 38.640931492154806 14.389492787268354 1 rotate no_reflect no_shear #
lump $-1 $-1 $26 $2 #
transform $-1 1 0 0 0 1 0 0 0 1 78.712118900112927 38.640931492154806 14.389492787268354 1 rotate no_reflect no_shear #
lump $-1 $-1 $27 $3 #
transform $-1 1 0 0 0 1 0 0 0 1 78.712118900112927 38.640931492154806 14.389492787268354 1 rotate no_reflect no_shear #
lump $-1 $-1 $28 $4 #
transform $-1 1 0 0 0 1 0 0 0 1 78.712118900112927 38.640931492154806 14.389492787268354 1 rotate no_reflect no_shear #
lump $-1 $-1 $29 $5 #
transform $-1 1 0 0 0 1 0 0 0 1 78.712118900112927 38.640931492154806 14.389492787268354 1 rotate no_reflect no_shear #
lump $-1 $-1 $30 $6 #
transform $-1 1 0 0 0 1 0 0 0 1 78.712118900112927 38.640931492154806 14.389492787268354 1 rotate no_reflect no_shear #
lump $-1 $-1 $31 $7 #
transform $-1 1 0 0 0 1 0 0 0 1 78.712118900112927 38.640931492154806 14.389492787268354 1 rotate no_reflect no_shear #
shell $-1 $-1 $-1 $32 $-1 $8 #
shell $-1 $-1 $-1 $33 $-1 $10 #
shell $-1 $-1 $-1 $34 $-1 $12 #
shell $-1 $-1 $-1 $35 $-1 $14 #
shell $-1 $-1 $-1 $36 $-1 $16 #
shell $-1 $-1 $-1 $37 $-1 $18 #
shell $-1 $-1 $-1 $38 $-1 $20 #
shell $-1 $-1 $-1 $39 $-1 $22 #
face $-1 $40 $41 $24 $-1 $42 forward single #
face $-1 $43 $44 $25 $-1 $45 reversed single #
face $-1 $46 $47 $26 $-1 $48 reversed single #
face $-1 $49 $50 $27 $-1 $51 forward single #
face $-1 $52 $53 $28 $-1 $54 forward single #
face $-1 $55 $56 $29 $-1 $57 reversed single #
face $-1 $58 $59 $30 $-1 $60 forward single #
face $-1 $61 $62 $31 $-1 $63 forward single #
face $-1 $64 $65 $24 $-1 $66 reversed single #
loop $-1 $-1 $67 $32 #
plane-surface $-1 0 0 14.389492787268354 0 0 1 1 0 0 forward_v I I I I #
face $-1 $68 $69 $25 $-1 $70 reversed single #
loop $-1 $-1 $71 $33 #
plane-surface $-1 -70.994793310277643 -24.027530237044321 0 0 1 0 0 0 1 forward_v I I I I #
face $-1 $72 $73 $26 $-1 $74 reversed single #
loop $-1 $-1 $75 $34 #
plane-surface $-1 59.719002116848515 -38.640931492154763 7.7074682779896904 0 -0.77714596973225614 0.62932038083071107 1 0 0 forward_v I I I I #
face $-1 $76 $77 $27 $-1 $78 forward single #
loop $-1 $79 $80 $35 #
cone-surface $-1 51.579094924020893 -33.670214081087146 9.2141423187931437 0 0.77714596973225614 -0.62932038083071107 2 0 0 1 I I 0 1 2 forward I I I I #
face $-1 $81 $82 $28 $-1 $83 forward single #
loop $-1 $84 $85 $36 #
cone-surface $-1 67.858909309676108 -33.670214081087146 9.2141423187931437 0 0.77714596973225614 -0.62932038083071107 2 0 0 1 I I 0 1 2 forward I I I I #
face $-1 $86 $87 $29 $-1 $88 reversed single #
loop $-1 $-1 $89 $37 #
plane-surface $-1 59.719002116848515 -9.9941199524377708 67.766756629646352 0 0.77714596973225614 0.62932038083071107 1 0 0 forward_v I I I I #
face $-1 $90 $91 $30 $-1 $92 forward single #
loop $-1 $93 $94 $38 #
cone-surface $-1 51.579094924020893 33.670214081087153 9.2141423187931473 0 -0.77714596973225614 -0.62932038083071107 2 0 0 1 I I 0 1 2 forward I I I I #
face $-1 $95 $96 $31 $-1 $97 forward single #
loop $-1 $98 $99 $39 #
cone-surface $-1 67.858909309676108 33.670214081087153 9.2141423187931473 0 -0.77714596973225614 -0.62932038083071107 2 0 0 1 I I 0 1 2 forward I I I I #
face $-1 $100 $101 $24 $-1 $102 reversed single #
loop $-1 $-1 $103 $40 #
plane-surface $-1 0 0 -14.389492787268354 0 0 1 1 0 0 forward_v I I I I #
coedge $-1 $104 $105 $106 $107 forward $41 $-1 #
face $-1 $108 $109 $25 $-1 $110 reversed single #
loop $-1 $-1 $111 $43 #
plane-surface $-1 -70.994793310277643 -18.801782189620514 0 0 -1 0 0 0 -1 forward_v I I I I #
coedge $-1 $112 $113 $114 $115 reversed $44 $-1 #
face $-1 $116 $117 $26 $-1 $118 reversed single #
loop $-1 $-1 $119 $46 #
plane-surface $-1 40.725885333584102 -160.98254343677257 106.77774956241224 1 0 0 0 0.77714596973225614 -0.62932038083071107 forward_v I I I I #
coedge $-1 $120 $121 $122 $123 reversed $47 $-1 #
face $-1 $-1 $124 $27 $-1 $125 forward single #
loop $-1 $126 $127 $49 #
cone-surface $-1 51.579094924020893 -30.627849006061208 6.7504837241265481 0 0.77714596973225614 -0.62932038083071107 1 0 0 1 I I -0.70710678118654779 0.70710678118654713 1 forward I I I I #
loop $-1 $-1 $128 $35 #
coedge $-1 $80 $80 $129 $130 reversed $50 $-1 #
face $-1 $-1 $131 $28 $-1 $132 forward single #
loop $-1 $133 $134 $52 #
cone-surface $-1 67.858909309676108 -30.627849006061208 6.7504837241265481 0 0.77714596973225614 -0.62932038083071107 1 0 0 1 I I -0.70710678118654779 0.70710678118654713 1 forward I I I I #
loop $-1 $-1 $135 $36 #
coedge $-1 $85 $85 $136 $137 reversed $53 $-1 #
face $-1 $138 $139 $29 $-1 $140 reversed single #
loop $-1 $-1 $141 $55 #
plane-surface $-1 40.725885333584102 112.34749199218004 166.8370379140689 1 0 0 0 -0.77714596973225614 -0.62932038083071107 forward_v I I I I #
coedge $-1 $142 $143 $144 $145 reversed $56 $-1 #
face $-1 $-1 $146 $30 $-1 $147 forward single #
loop $-1 $148 $149 $58 #
cone-surface $-1 51.579094924020893 30.627849006061211 6.7504837241265516 0 -0.77714596973225614 -0.62932038083071107 1 0 0 1 I I -0.70710678118654779 0.70710678118654713 1 forward I I I I #
loop $-1 $-1 $150 $38 #
coedge $-1 $94 $94 $151 $152 reversed $59 $-1 #
face $-1 $-1 $153 $31 $-1 $154 forward single #
loop $-1 $155 $156 $61 #
cone-surface $-1 67.858909309676108 30.627849006061211 6.7504837241265516 0 -0.77714596973225614 -0.62932038083071107 1 0 0 1 I I -0.70710678118654779 0.70710678118654713 1 forward I I I I #
loop $-1 $-1 $157 $39 #
coedge $-1 $99 $99 $158 $159 reversed $62 $-1 #
face $-1 $160 $161 $24 $-1 $162 reversed single #
loop $-1 $-1 $163 $64 #
plane-surface $-1 0 -38.640931492154806 0 0 1 0 0 0 1 forward_v I I I I #
coedge $-1 $164 $165 $166 $167 forward $65 $-1 #
coedge $-1 $168 $67 $169 $170 forward $41 $-1 #
coedge $-1 $67 $168 $171 $172 forward $41 $-1 #
coedge $-1 $173 $174 $67 $107 reversed $175 $-1 #
edge $-1 $176 -38.640931492154806 $177 38.640931492154806 $106 $178 forward 7 unknown #
face $-1 $179 $180 $25 $-1 $181 reversed single #
loop $-1 $-1 $182 $68 #
plane-surface $-1 -63.277467720442367 -21.414656213332417 0 -1 0 0 0 0 1 forward_v I I I I #
coedge $-1 $183 $184 $185 $186 forward $69 $-1 #
coedge $-1 $187 $71 $188 $189 reversed $44 $-1 #
coedge $-1 $71 $187 $190 $191 reversed $44 $-1 #
coedge $-1 $192 $193 $71 $115 forward $194 $-1 #
edge $-1 $195 -14.389492787268354 $196 14.389492787268354 $114 $197 forward 7 unknown #
face $-1 $198 $199 $26 $-1 $200 forward single #
loop $-1 $-1 $201 $72 #
plane-surface $-1 0 -38.640931492154806 0 0 1 0 0 0 1 forward_v I I I I #
coedge $-1 $202 $203 $204 $205 reversed $73 $-1 #
coedge $-1 $206 $75 $207 $208 reversed $47 $-1 #
coedge $-1 $75 $206 $202 $209 forward $47 $-1 #
coedge $-1 $204 $210 $75 $123 forward $199 $-1 #
edge $-1 $211 -48.852617841688669 $212 -10.866384275159845 $122 $213 forward 7 unknown #
loop $-1 $-1 $129 $76 #
plane-surface $-1 59.719002116848515 -38.640931492154763 7.7074682779896904 0 -0.77714596973225614 0.62932038083071107 1 0 0 forward_v I I I I #
loop $-1 $-1 $214 $49 #
coedge $-1 $127 $127 $128 $215 reversed $77 $-1 #
coedge $-1 $128 $128 $127 $215 forward $79 $-1 #
coedge $-1 $129 $129 $80 $130 forward $124 $-1 #
edge $-1 $216 7.2023940852280121e-016 $216 6.2831853071796013 $129 $217 forward 7 unknown #
loop $-1 $-1 $136 $81 #
plane-surface $-1 59.719002116848515 -38.640931492154763 7.7074682779896904 0 -0.77714596973225614 0.62932038083071107 1 0 0 forward_v I I I I #
loop $-1 $-1 $218 $52 #
coedge $-1 $134 $134 $135 $219 reversed $82 $-1 #
coedge $-1 $135 $135 $134 $219 forward $84 $-1 #
coedge $-1 $136 $136 $85 $137 forward $131 $-1 #
edge $-1 $220 7.2023940852280121e-016 $220 6.2831853071796013 $136 $221 forward 7 unknown #
face $-1 $222 $223 $29 $-1 $224 reversed single #
loop $-1 $-1 $225 $86 #
plane-surface $-1 78.712118900112927 0 0 -1 0 0 0 0 1 forward_v I I I I #
coedge $-1 $226 $227 $228 $229 reversed $87 $-1 #
coedge $-1 $230 $89 $225 $231 reversed $56 $-1 #
coedge $-1 $89 $230 $226 $232 forward $56 $-1 #
coedge $-1 $228 $233 $89 $145 forward $223 $-1 #
edge $-1 $234 -48.852617841688669 $235 -10.866384275159845 $144 $236 forward 7 unknown #
loop $-1 $-1 $151 $90 #
plane-surface $-1 59.719002116848515 -9.9941199524377708 67.766756629646352 0 0.77714596973225614 0.62932038083071107 1 0 0 forward_v I I I I #
loop $-1 $-1 $237 $58 #
coedge $-1 $149 $149 $150 $238 reversed $91 $-1 #
coedge $-1 $150 $150 $149 $238 forward $93 $-1 #
coedge $-1 $151 $151 $94 $152 forward $146 $-1 #
edge $-1 $239 -1.050363983534518e-015 $239 6.2831853071795996 $151 $240 forward 7 unknown #
loop $-1 $-1 $158 $95 #
plane-surface $-1 59.719002116848515 -9.9941199524377708 67.766756629646352 0 0.77714596973225614 0.62932038083071107 1 0 0 forward_v I I I I #
loop $-1 $-1 $241 $61 #
coedge $-1 $156 $156 $157 $242 reversed $96 $-1 #
coedge $-1 $157 $157 $156 $242 forward $98 $-1 #
coedge $-1 $158 $158 $99 $159 forward $153 $-1 #
edge $-1 $243 -1.050363983534518e-015 $243 6.2831853071795996 $158 $244 forward 7 unknown #
face $-1 $245 $246 $24 $-1 $247 reversed single #
loop $-1 $-1 $248 $100 #
plane-surface $-1 -78.712118900112927 0 0 1 0 0 0 0 -1 forward_v I I I I #
coedge $-1 $249 $171 $250 $251 forward $101 $-1 #
coedge $-1 $252 $103 $249 $253 forward $65 $-1 #
coedge $-1 $103 $252 $254 $255 forward $65 $-1 #
coedge $-1 $174 $173 $103 $167 reversed $175 $-1 #
edge $-1 $256 -38.640931492154806 $257 38.640931492154806 $166 $258 forward 7 unknown #
coedge $-1 $105 $104 $259 $260 forward $41 $-1 #
coedge $-1 $261 $262 $104 $170 reversed $246 $-1 #
edge $-1 $177 -78.712118900112927 $263 78.712118900112927 $169 $264 forward 7 unknown #
coedge $-1 $163 $265 $105 $172 reversed $101 $-1 #
edge $-1 $266 -78.712118900112927 $176 78.712118900112927 $171 $267 forward 7 unknown #
coedge $-1 $166 $106 $265 $268 forward $175 $-1 #
coedge $-1 $106 $166 $261 $269 reversed $175 $-1 #
loop $-1 $-1 $173 $245 #
vertex $-1 $107 $270 #
vertex $-1 $107 $271 #
straight-curve $-1 78.712118900112927 0 14.389492787268354 0 1 0 I I #
face $-1 $272 $273 $25 $-1 $274 forward single #
loop $-1 $-1 $275 $108 #
plane-surface $-1 0 0 -14.389492787268354 0 0 1 1 0 0 forward_v I I I I #
coedge $-1 $276 $277 $187 $278 forward $109 $-1 #
coedge $-1 $279 $111 $275 $280 reversed $69 $-1 #
coedge $-1 $111 $279 $281 $282 reversed $69 $-1 #
coedge $-1 $277 $276 $111 $186 reversed $109 $-1 #
edge $-1 $283 -14.389492787268354 $284 14.389492787268354 $185 $285 forward 7 unknown #
coedge $-1 $113 $112 $182 $278 reversed $44 $-1 #
coedge $-1 $286 $287 $112 $189 forward $180 $-1 #
edge $-1 $288 27.780071065303545 $195 43.214722244974105 $188 $289 forward 7 unknown #
coedge $-1 $290 $291 $113 $191 forward $273 $-1 #
edge $-1 $196 -43.214722244974105 $292 -27.780071065303545 $190 $293 forward 7 unknown #
coedge $-1 $294 $114 $291 $295 reversed $194 $-1 #
coedge $-1 $114 $294 $286 $296 reversed $194 $-1 #
loop $-1 $-1 $294 $272 #
vertex $-1 $296 $297 #
vertex $-1 $115 $298 #
straight-curve $-1 -78.712118900112927 -24.027530237044321 0 0 0 1 I I #
face $-1 $-1 $299 $26 $-1 $300 reversed single #
loop $-1 $-1 $204 $116 #
plane-surface $-1 0 0 14.389492787268354 0 0 1 1 0 0 forward_v I I I I #
coedge $-1 $301 $302 $203 $303 forward $117 $-1 #
coedge $-1 $203 $119 $121 $209 reversed $73 $-1 #
coedge $-1 $119 $202 $201 $303 reversed $73 $-1 #
coedge $-1 $304 $122 $119 $205 forward $199 $-1 #
edge $-1 $212 -47.261336837779488 $305 -41.850340226231481 $204 $306 forward 7 unknown #
coedge $-1 $121 $120 $301 $307 reversed $47 $-1 #
coedge $-1 $308 $309 $120 $208 forward $299 $-1 #
edge $-1 $310 -9.1638489066087452 $211 -0.56569004131755429 $207 $311 forward 7 unknown #
edge $-1 $312 -6.7553953981016379e-014 $212 8.5981588652911221 $202 $313 forward 7 unknown #
coedge $-1 $122 $304 $308 $314 forward $199 $-1 #
vertex $-1 $208 $315 #
vertex $-1 $123 $316 #
straight-curve $-1 29.859501058424257 -33.229934880606798 14.389492787268354 -1 0 0 I I #
coedge $-1 $214 $214 $-1 $317 reversed $126 $-1 #
edge $-1 $318 0 $318 6.2831853071796004 $127 $319 forward 7 unknown #
vertex $-1 $130 $320 #
ellipse-curve $-1 51.579094924020893 -35.935433186380799 11.048480532629004 0 -0.77714596973225614 0.62932038083071107 2 0 0 1 I I #
coedge $-1 $218 $218 $-1 $321 reversed $133 $-1 #
edge $-1 $322 0 $322 6.2831853071796004 $134 $323 forward 7 unknown #
vertex $-1 $137 $324 #
ellipse-curve $-1 67.858909309676108 -35.935433186380799 11.048480532629004 0 -0.77714596973225614 0.62932038083071107 2 0 0 1 I I #
face $-1 $-1 $325 $29 $-1 $326 forward single #
loop $-1 $-1 $144 $138 #
plane-surface $-1 0 38.640931492154806 0 0 -1 0 0 0 -1 forward_v I I I I #
coedge $-1 $327 $328 $142 $231 forward $139 $-1 #
coedge $-1 $227 $141 $143 $232 reversed $87 $-1 #
coedge $-1 $141 $226 $329 $330 reversed $87 $-1 #
coedge $-1 $331 $144 $141 $229 forward $223 $-1 #
edge $-1 $235 -75.711050679044774 $332 -69.029026169766098 $228 $333 forward 7 unknown #
coedge $-1 $143 $142 $334 $335 reversed $56 $-1 #
edge $-1 $336 39.206621533472386 $234 47.804780398763512 $225 $337 forward 7 unknown #
edge $-1 $338 68.683704119018515 $235 77.28186298430964 $226 $339 forward 7 unknown #
coedge $-1 $144 $331 $327 $340 forward $223 $-1 #
vertex $-1 $145 $341 #
vertex $-1 $145 $342 #
straight-curve $-1 29.859501058424257 38.640931492154806 7.7074682779896904 -1 0 0 I I #
coedge $-1 $237 $237 $-1 $343 reversed $148 $-1 #
edge $-1 $344 0 $344 6.2831853071796004 $149 $345 forward 7 unknown #
vertex $-1 $152 $346 #
ellipse-curve $-1 51.579094924020893 35.93543318638082 11.048480532629018 0 0.77714596973225614 0.62932038083071107 2 0 0 1 I I #
coedge $-1 $241 $241 $-1 $347 reversed $155 $-1 #
edge $-1 $348 0 $348 6.2831853071796004 $156 $349 forward 7 unknown #
vertex $-1 $159 $350 #
ellipse-curve $-1 67.858909309676108 35.93543318638082 11.048480532629018 0 0.77714596973225614 0.62932038083071107 2 0 0 1 I I #
face $-1 $-1 $175 $24 $-1 $351 reversed single #
loop $-1 $-1 $261 $160 #
plane-surface $-1 0 38.640931492154806 0 0 -1 0 0 0 -1 forward_v I I I I #
coedge $-1 $352 $259 $262 $353 forward $161 $-1 #
coedge $-1 $265 $163 $164 $253 reversed $101 $-1 #
coedge $-1 $259 $352 $163 $251 reversed $161 $-1 #
edge $-1 $266 -14.389492787268354 $354 14.389492787268354 $250 $355 forward 7 unknown #
coedge $-1 $165 $164 $352 $356 forward $65 $-1 #
edge $-1 $257 -78.712118900112927 $354 78.712118900112927 $249 $357 forward 7 unknown #
coedge $-1 $262 $261 $165 $255 reversed $246 $-1 #
edge $-1 $358 -78.712118900112927 $256 78.712118900112927 $254 $359 forward 7 unknown #
vertex $-1 $167 $360 #
vertex $-1 $268 $361 #
straight-curve $-1 78.712118900112927 0 -14.389492787268354 0 -1 0 I I #
coedge $-1 $248 $250 $168 $260 reversed $161 $-1 #
edge $-1 $263 -38.640931492154806 $266 38.640931492154806 $259 $362 forward 7 unknown #
coedge $-1 $254 $169 $174 $269 forward $246 $-1 #
coedge $-1 $169 $254 $248 $353 reversed $246 $-1 #
vertex $-1 $170 $363 #
straight-curve $-1 0 38.640931492154806 14.389492787268354 -1 0 0 I I #
coedge $-1 $171 $249 $173 $268 reversed $101 $-1 #
vertex $-1 $260 $364 #
straight-curve $-1 0 -38.640931492154806 14.389492787268354 1 0 0 I I #
edge $-1 $176 -14.389492787268354 $257 14.389492787268354 $173 $365 forward 7 unknown #
edge $-1 $177 -14.389492787268354 $256 14.389492787268354 $174 $366 forward 7 unknown #
point $-1 78.712118900112927 -38.640931492154806 14.389492787268354 #
point $-1 78.712118900112927 38.640931492154806 14.389492787268354 #
face $-1 $-1 $194 $25 $-1 $367 reversed single #
loop $-1 $-1 $281 $179 #
plane-surface $-1 0 0 14.389492787268354 0 0 1 1 0 0 forward_v I I I I #
coedge $-1 $287 $286 $183 $280 forward $180 $-1 #
coedge $-1 $185 $182 $287 $368 reversed $109 $-1 #
coedge $-1 $182 $185 $290 $369 reversed $109 $-1 #
edge $-1 $292 -14.389492787268354 $288 14.389492787268354 $182 $370 forward 7 unknown #
coedge $-1 $184 $183 $294 $371 reversed $69 $-1 #
edge $-1 $372 -43.214722244974105 $284 -27.780071065303545 $275 $373 forward 7 unknown #
coedge $-1 $291 $290 $184 $282 forward $273 $-1 #
edge $-1 $283 27.780071065303545 $374 43.214722244974105 $281 $375 forward 7 unknown #
vertex $-1 $282 $376 #
vertex $-1 $280 $377 #
straight-curve $-1 -63.277467720442367 -18.801782189620514 0 0 0 -1 I I #
coedge $-1 $275 $188 $193 $296 forward $180 $-1 #
coedge $-1 $188 $275 $276 $368 forward $180 $-1 #
vertex $-1 $189 $378 #
straight-curve $-1 -35.497396655138822 -24.027530237044321 -14.389492787268354 -1 0 0 I I #
coedge $-1 $281 $190 $277 $369 forward $273 $-1 #
coedge $-1 $190 $281 $192 $295 forward $273 $-1 #
vertex $-1 $191 $379 #
straight-curve $-1 -35.497396655138822 -24.027530237044321 14.389492787268354 1 0 0 I I #
coedge $-1 $193 $192 $279 $371 forward $194 $-1 #
edge $-1 $374 18.801782189620514 $196 24.027530237044321 $192 $380 forward 7 unknown #
edge $-1 $195 -24.027530237044321 $372 -18.801782189620514 $193 $381 forward 7 unknown #
point $-1 -78.712118900112927 -24.027530237044321 -14.389492787268354 #
point $-1 -78.712118900112927 -24.027530237044321 14.389492787268354 #
loop $-1 $-1 $207 $198 #
plane-surface $-1 78.712118900112927 0 0 -1 0 0 0 0 1 forward_v I I I I #
coedge $-1 $382 $201 $206 $307 forward $117 $-1 #
coedge $-1 $201 $382 $304 $383 reversed $117 $-1 #
edge $-1 $305 38.999381993937767 $312 45.681406503216479 $201 $384 forward 7 unknown #
coedge $-1 $210 $204 $302 $383 forward $199 $-1 #
vertex $-1 $383 $385 #
straight-curve $-1 40.725885333584102 -80.491271718386287 14.389492787268352 0 -1 0 I I #
edge $-1 $312 10.866384275159845 $310 48.852617841688669 $301 $386 forward 7 unknown #
coedge $-1 $309 $207 $210 $314 reversed $299 $-1 #
coedge $-1 $207 $308 $382 $387 forward $299 $-1 #
vertex $-1 $307 $388 #
straight-curve $-1 78.712118900112927 -32.873934608372693 14.829116522995964 0 0.62932038083071107 0.77714596973225614 I I #
vertex $-1 $307 $389 #
straight-curve $-1 40.725885333584102 -38.640931492154763 7.7074682779896904 0 0.62932038083071107 0.77714596973225614 I I #
edge $-1 $390 -38.640931492154806 $211 -33.229934880606798 $308 $391 forward 7 unknown #
point $-1 78.712118900112927 -33.229934880606798 14.389492787268354 #
point $-1 40.725885333584102 -33.229934880606798 14.389492787268354 #
edge $-1 $392 1 $392 0 $214 $-1 forward 7 unknown #
vertex $-1 $215 $393 #
ellipse-curve $-1 51.579094924020893 -31.404994975793464 7.3798041049572589 0 -0.77714596973225614 0.62932038083071107 2 0 0 1 I I #
point $-1 53.579094924020893 -35.935433186380827 11.048480532629029 #
edge $-1 $394 1 $394 0 $218 $-1 forward 7 unknown #
vertex $-1 $219 $395 #
ellipse-curve $-1 67.858909309676108 -31.404994975793464 7.3798041049572589 0 -0.77714596973225614 0.62932038083071107 2 0 0 1 I I #
point $-1 69.858909309676108 -35.935433186380827 11.048480532629029 #
loop $-1 $-1 $334 $222 #
plane-surface $-1 0 0 14.389492787268354 0 0 1 1 0 0 forward_v I I I I #
coedge $-1 $328 $225 $233 $340 reversed $139 $-1 #
coedge $-1 $225 $327 $396 $397 reversed $139 $-1 #
coedge $-1 $334 $398 $227 $330 forward $325 $-1 #
edge $-1 $332 17.532814503935214 $338 22.943811115483179 $329 $399 forward 7 unknown #
coedge $-1 $233 $228 $398 $400 reversed $223 $-1 #
vertex $-1 $229 $401 #
straight-curve $-1 40.725885333584102 38.640931492154806 83.418518957034451 0 0 1 I I #
coedge $-1 $396 $329 $230 $335 forward $325 $-1 #
edge $-1 $338 10.866384275159845 $336 48.852617841688669 $334 $402 forward 7 unknown #
vertex $-1 $397 $403 #
straight-curve $-1 78.712118900112927 8.5564088860764418 44.858760698824305 0 0.62932038083071107 -0.77714596973225614 I I #
vertex $-1 $335 $404 #
straight-curve $-1 40.725885333584102 -9.9941199524377708 67.766756629646352 0 0.62932038083071107 -0.77714596973225614 I I #
edge $-1 $405 -14.389492787268354 $234 -7.7074682779896868 $327 $406 forward 7 unknown #
point $-1 78.712118900112927 38.640931492154806 7.7074682779896868 #
point $-1 40.725885333584102 38.640931492154806 7.7074682779896833 #
edge $-1 $407 1 $407 0 $237 $-1 forward 7 unknown #
vertex $-1 $238 $408 #
ellipse-curve $-1 51.579094924020893 31.404994975793468 7.3798041049572625 0 0.77714596973225614 0.62932038083071107 2 0 0 1 I I #
point $-1 53.579094924020893 35.935433186380834 11.048480532629032 #
edge $-1 $409 1 $409 0 $241 $-1 forward 7 unknown #
vertex $-1 $242 $410 #
ellipse-curve $-1 67.858909309676108 31.404994975793468 7.3798041049572625 0 0.77714596973225614 0.62932038083071107 2 0 0 1 I I #
point $-1 69.858909309676108 35.935433186380834 11.048480532629032 #
plane-surface $-1 78.712118900112927 0 0 -1 0 0 0 0 1 forward_v I I I I #
coedge $-1 $250 $248 $252 $356 reversed $161 $-1 #
edge $-1 $263 -14.389492787268354 $358 14.389492787268354 $262 $411 forward 7 unknown #
vertex $-1 $356 $412 #
straight-curve $-1 -78.712118900112927 -38.640931492154806 0 0 0 -1 I I #
edge $-1 $354 -38.640931492154806 $358 38.640931492154806 $352 $413 forward 7 unknown #
straight-curve $-1 0 -38.640931492154806 -14.389492787268354 -1 0 0 I I #
vertex $-1 $255 $414 #
straight-curve $-1 0 38.640931492154806 -14.389492787268354 1 0 0 I I #
point $-1 78.712118900112927 38.640931492154806 -14.389492787268354 #
point $-1 78.712118900112927 -38.640931492154806 -14.389492787268354 #
straight-curve $-1 -78.712118900112927 0 14.389492787268354 0 -1 0 I I #
point $-1 -78.712118900112927 38.640931492154806 14.389492787268354 #
point $-1 -78.712118900112927 -38.640931492154806 14.389492787268354 #
straight-curve $-1 78.712118900112927 -38.640931492154806 0 0 0 -1 I I #
straight-curve $-1 78.712118900112927 38.640931492154806 0 0 0 -1 I I #
plane-surface $-1 -78.712118900112927 0 0 1 0 0 0 0 -1 forward_v I I I I #
edge $-1 $284 8.0944540829543055 $288 13.320202130378112 $287 $415 forward 7 unknown #
edge $-1 $292 -13.320202130378112 $283 -8.0944540829543055 $290 $416 forward 7 unknown #
straight-curve $-1 -63.277467720442367 -24.027530237044321 0 0 0 -1 I I #
edge $-1 $374 -14.389492787268354 $372 14.389492787268354 $294 $417 forward 7 unknown #
vertex $-1 $371 $418 #
straight-curve $-1 -35.497396655138822 -18.801782189620514 -14.389492787268354 1 0 0 I I #
vertex $-1 $295 $419 #
straight-curve $-1 -35.497396655138822 -18.801782189620514 14.389492787268354 -1 0 0 I I #
point $-1 -63.277467720442367 -18.801782189620514 14.389492787268354 #
point $-1 -63.277467720442367 -18.801782189620514 -14.389492787268354 #
point $-1 -63.277467720442367 -24.027530237044321 -14.389492787268354 #
point $-1 -63.277467720442367 -24.027530237044321 14.389492787268354 #
straight-curve $-1 -78.712118900112927 0 14.389492787268354 0 -1 0 I I #
straight-curve $-1 -78.712118900112927 0 -14.389492787268354 0 1 0 I I #
coedge $-1 $302 $301 $309 $387 reversed $117 $-1 #
edge $-1 $305 40.725885333584102 $390 78.712118900112927 $302 $420 forward 7 unknown #
straight-curve $-1 40.725885333584102 -38.640931492154806 53.38887478120612 0 0 -1 I I #
point $-1 40.725885333584102 -38.640931492154806 14.389492787268354 #
straight-curve $-1 29.859501058424257 -38.640931492154806 7.7074682779896406 1 0 0 I I #
edge $-1 $390 -14.389492787268354 $310 -7.707468277989638 $309 $421 forward 7 unknown #
point $-1 78.712118900112927 -38.640931492154806 7.707468277989638 #
point $-1 40.725885333584102 -38.640931492154806 7.707468277989638 #
vertex $-1 $314 $422 #
straight-curve $-1 78.712118900112927 0 14.389492787268354 0 1 0 I I #
vertex $-1 $317 $423 #
point $-1 53.579094924020893 -31.404994975793464 7.3798041049572589 #
vertex $-1 $321 $424 #
point $-1 69.858909309676108 -31.404994975793464 7.3798041049572589 #
coedge $-1 $398 $334 $328 $397 forward $325 $-1 #
edge $-1 $336 33.229934880606841 $405 38.640931492154806 $328 $425 forward 7 unknown #
coedge $-1 $329 $396 $331 $400 forward $325 $-1 #
straight-curve $-1 40.725885333584102 56.17374599609002 14.389492787268352 0 -1 0 I I #
edge $-1 $405 -78.712118900112927 $332 -40.725885333584102 $331 $426 forward 7 unknown #
point $-1 40.725885333584102 38.640931492154806 14.389492787268354 #
straight-curve $-1 29.859501058424257 33.229934880606841 14.389492787268352 1 0 0 I I #
point $-1 78.712118900112927 33.229934880606841 14.389492787268352 #
point $-1 40.725885333584102 33.229934880606841 14.389492787268352 #
vertex $-1 $397 $427 #
straight-curve $-1 78.712118900112927 38.640931492154806 0 0 0 -1 I I #
vertex $-1 $343 $428 #
point $-1 53.579094924020893 31.404994975793468 7.3798041049572625 #
vertex $-1 $347 $429 #
point $-1 69.858909309676108 31.404994975793468 7.3798041049572625 #
straight-curve $-1 -78.712118900112927 38.640931492154806 0 0 0 -1 I I #
point $-1 -78.712118900112927 -38.640931492154806 -14.389492787268354 #
straight-curve $-1 -78.712118900112927 0 -14.389492787268354 0 1 0 I I #
point $-1 -78.712118900112927 38.640931492154806 -14.389492787268354 #
straight-curve $-1 -63.277467720442367 -10.707328106666209 -14.389492787268354 0 -1 0 I I #
straight-curve $-1 -63.277467720442367 -10.707328106666209 14.389492787268354 0 1 0 I I #
straight-curve $-1 -78.712118900112927 -18.801782189620514 0 0 0 -1 I I #
point $-1 -78.712118900112927 -18.801782189620514 -14.389492787268354 #
point $-1 -78.712118900112927 -18.801782189620514 14.389492787268354 #
straight-curve $-1 0 -38.640931492154806 14.389492787268354 1 0 0 I I #
straight-curve $-1 78.712118900112927 -38.640931492154806 0 0 0 -1 I I #
point $-1 78.712118900112927 -38.640931492154806 14.389492787268354 #
point $-1 51.579094924020893 -29.850703036328952 6.1211633432958372 #
point $-1 67.858909309676108 -29.850703036328952 6.1211633432958372 #
straight-curve $-1 78.712118900112927 0 14.389492787268354 0 1 0 I I #
straight-curve $-1 0 38.640931492154806 14.389492787268354 -1 0 0 I I #
point $-1 78.712118900112927 38.640931492154806 14.389492787268354 #
point $-1 51.579094924020893 29.850703036328955 6.1211633432958408 #
point $-1 67.858909309676108 29.850703036328955 6.1211633432958408 #
End-of-ACIS-data 