500 0 6 0           
7 Unknown 11 ACIS 5.0 NT 24 Fri Mar 26 18:26:11 1999 
-1 9.9999999999999995e-007 1e-010 
body $-1 $6 $-1 $7 #
body $-1 $8 $-1 $9 #
body $-1 $10 $-1 $11 #
body $-1 $12 $-1 $13 #
body $-1 $14 $-1 $15 #
body $-1 $16 $-1 $17 #
lump $-1 $-1 $18 $0 #
transform $-1 1 0 0 0 1 0 0 0 1 43.446150090029604 20.862160550143248 5.8994958237747532 1 rotate no_reflect no_shear #
lump $-1 $-1 $19 $1 #
transform $-1 1 0 0 0 1 0 0 0 1 43.446150090029604 20.862160550143248 5.8994958237747532 1 rotate no_reflect no_shear #
lump $-1 $-1 $20 $2 #
transform $-1 1 0 0 0 1 0 0 0 1 43.446150090029604 20.862160550143248 5.8994958237747532 1 rotate no_reflect no_shear #
lump $-1 $-1 $21 $3 #
transform $-1 1 0 0 0 1 0 0 0 1 43.446150090029604 20.862160550143248 5.8994958237747532 1 rotate no_reflect no_shear #
lump $-1 $-1 $22 $4 #
transform $-1 1 0 0 0 1 0 0 0 1 43.446150090029604 20.862160550143248 5.8994958237747532 1 rotate no_reflect no_shear #
lump $-1 $-1 $23 $5 #
transform $-1 1 0 0 0 1 0 0 0 1 43.446150090029604 20.862160550143248 5.8994958237747532 1 rotate no_reflect no_shear #
shell $-1 $-1 $-1 $24 $-1 $6 #
shell $-1 $-1 $-1 $25 $-1 $8 #
shell $-1 $-1 $-1 $26 $-1 $10 #
shell $-1 $-1 $-1 $27 $-1 $12 #
shell $-1 $-1 $-1 $28 $-1 $14 #
shell $-1 $-1 $-1 $29 $-1 $16 #
face $-1 $30 $31 $18 $-1 $32 forward single #
face $-1 $33 $34 $19 $-1 $35 forward single #
face $-1 $36 $37 $20 $-1 $38 reversed single #
face $-1 $39 $40 $21 $-1 $41 forward single #
face $-1 $42 $43 $22 $-1 $44 reversed single #
face $-1 $45 $46 $23 $-1 $47 forward single #
face $-1 $48 $49 $18 $-1 $50 reversed single #
loop $-1 $-1 $51 $24 #
plane-surface $-1 0 0 5.8994958237747532 0 0 1 1 0 0 forward_v I I I I #
face $-1 $52 $53 $19 $-1 $54 reversed single #
loop $-1 $-1 $55 $25 #
plane-surface $-1 -39.580051155934399 0 -2.8994958237747532 0 0 1 1 0 0 forward_v I I I I #
face $-1 $56 $57 $20 $-1 $58 reversed single #
loop $-1 $-1 $59 $26 #
plane-surface $-1 -35.713952221839193 59.066995475336256 89.503661653339137 1 0 0 0 -0.75470958851134928 -0.65605901945558964 forward_v I I I I #
face $-1 $60 $61 $21 $-1 $62 forward single #
loop $-1 $63 $64 $27 #
cone-surface $-1 -25.619933926463791 16.595071498675892 1.5925079556667447 0 -0.75470958851134928 -0.65605901945558964 1.5 0 0 1 I I 0 1 1.5 forward I I I I #
face $-1 $65 $66 $22 $-1 $67 reversed single #
loop $-1 $-1 $68 $28 #
plane-surface $-1 -15.52591563108839 -86.440612663840369 58.013916444826521 -1 0 0 0 -0.75470958851134928 0.65605901945558964 forward_v I I I I #
face $-1 $69 $70 $23 $-1 $71 forward single #
loop $-1 $72 $73 $29 #
cone-surface $-1 -25.619933926463791 -16.595071498675892 1.5925079556667447 0 0.75470958851134928 -0.65605901945558964 1.5 0 0 1 I I 0 1 1.5 forward I I I I #
face $-1 $74 $75 $18 $-1 $76 reversed single #
loop $-1 $-1 $77 $30 #
plane-surface $-1 0 0 -5.8994958237747532 0 0 1 1 0 0 forward_v I I I I #
coedge $-1 $78 $79 $80 $81 forward $31 $-1 #
face $-1 $82 $83 $19 $-1 $84 reversed single #
loop $-1 $-1 $85 $33 #
plane-surface $-1 -35.713952221839193 0 -4.3994958237747532 -1 0 0 0 0 1 forward_v I I I I #
coedge $-1 $86 $87 $88 $89 forward $34 $-1 #
face $-1 $90 $91 $20 $-1 $92 reversed single #
loop $-1 $-1 $93 $36 #
plane-surface $-1 -25.619933926463791 -6.511456638360869 32.497184398968734 0 0.75470958851134928 0.65605901945558964 1 0 0 forward_v I I I I #
coedge $-1 $94 $95 $96 $97 reversed $37 $-1 #
face $-1 $-1 $98 $21 $-1 $99 forward single #
loop $-1 $100 $101 $39 #
cone-surface $-1 -25.619933926463791 13.888250177565038 -0.76049586037363781 0 -0.75470958851134928 -0.65605901945558964 0.75 0 0 1 I I -0.70710678118654757 0.70710678118654757 0.75 forward I I I I #
loop $-1 $-1 $102 $27 #
coedge $-1 $64 $64 $103 $104 reversed $40 $-1 #
face $-1 $105 $106 $22 $-1 $107 reversed single #
loop $-1 $-1 $108 $42 #
plane-surface $-1 -25.619933926463791 -20.862160550143244 1.0074391904561182 0 -0.75470958851134928 0.65605901945558964 1 0 0 forward_v I I I I #
coedge $-1 $109 $110 $111 $112 reversed $43 $-1 #
face $-1 $-1 $113 $23 $-1 $114 forward single #
loop $-1 $115 $116 $45 #
cone-surface $-1 -25.619933926463791 -13.888250177565036 -0.76049586037363781 0 0.75470958851134928 -0.65605901945558964 0.75 0 0 1 I I -0.70710678118654757 0.70710678118654757 0.75 forward I I I I #
loop $-1 $-1 $117 $29 #
coedge $-1 $73 $73 $118 $119 reversed $46 $-1 #
face $-1 $120 $121 $18 $-1 $122 reversed single #
loop $-1 $-1 $123 $48 #
plane-surface $-1 0 -20.862160550143248 0 0 1 0 0 0 1 forward_v I I I I #
coedge $-1 $124 $125 $126 $127 forward $49 $-1 #
coedge $-1 $128 $51 $129 $130 forward $31 $-1 #
coedge $-1 $51 $128 $131 $132 forward $31 $-1 #
coedge $-1 $133 $134 $51 $81 reversed $135 $-1 #
edge $-1 $136 -20.862160550143248 $137 20.862160550143248 $80 $138 forward 7 unknown #
face $-1 $139 $140 $19 $-1 $141 reversed single #
loop $-1 $-1 $142 $52 #
plane-surface $-1 0 0 -5.8994958237747532 0 0 1 1 0 0 forward_v I I I I #
coedge $-1 $143 $88 $144 $145 reversed $53 $-1 #
coedge $-1 $146 $55 $147 $148 reversed $34 $-1 #
coedge $-1 $55 $146 $149 $150 reversed $34 $-1 #
coedge $-1 $85 $151 $55 $89 reversed $53 $-1 #
edge $-1 $152 -20.862160550143248 $153 20.862160550143248 $88 $154 forward 7 unknown #
face $-1 $155 $156 $20 $-1 $157 reversed single #
loop $-1 $-1 $158 $56 #
plane-surface $-1 -15.52591563108839 59.066995475336256 89.503661653339137 -1 0 0 0 0.75470958851134928 0.65605901945558964 forward_v I I I I #
coedge $-1 $159 $160 $161 $162 reversed $57 $-1 #
coedge $-1 $95 $59 $163 $164 reversed $37 $-1 #
coedge $-1 $59 $94 $159 $165 reversed $37 $-1 #
coedge $-1 $161 $166 $59 $97 forward $167 $-1 #
edge $-1 $168 8.6713371875248804 $169 12.923937031004904 $96 $170 forward 7 unknown #
loop $-1 $-1 $103 $60 #
plane-surface $-1 -25.619933926463791 -6.511456638360869 32.497184398968734 0 0.75470958851134928 0.65605901945558964 1 0 0 forward_v I I I I #
loop $-1 $-1 $171 $39 #
coedge $-1 $101 $101 $102 $172 reversed $61 $-1 #
coedge $-1 $102 $102 $101 $172 forward $63 $-1 #
coedge $-1 $103 $103 $64 $104 forward $98 $-1 #
edge $-1 $173 0 $173 6.2831853071796004 $103 $174 forward 7 unknown #
face $-1 $175 $176 $22 $-1 $177 forward single #
loop $-1 $-1 $178 $65 #
plane-surface $-1 -35.713952221839193 -86.440612663840369 58.013916444826521 1 0 0 0 0.75470958851134928 -0.65605901945558964 forward_v I I I I #
coedge $-1 $179 $180 $181 $182 reversed $66 $-1 #
coedge $-1 $110 $68 $183 $184 reversed $43 $-1 #
coedge $-1 $68 $109 $179 $185 reversed $43 $-1 #
coedge $-1 $181 $186 $68 $112 forward $176 $-1 #
edge $-1 $187 22.358145781776937 $188 26.610745625256964 $111 $189 forward 7 unknown #
loop $-1 $-1 $118 $69 #
plane-surface $-1 -25.619933926463791 -20.862160550143244 1.0074391904561182 0 -0.75470958851134928 0.65605901945558964 1 0 0 forward_v I I I I #
loop $-1 $-1 $190 $45 #
coedge $-1 $116 $116 $117 $191 reversed $70 $-1 #
coedge $-1 $117 $117 $116 $191 forward $72 $-1 #
coedge $-1 $118 $118 $73 $119 forward $113 $-1 #
edge $-1 $192 -4.3666528558597487e-016 $192 6.2831853071796004 $118 $193 forward 7 unknown #
face $-1 $194 $195 $18 $-1 $196 reversed single #
loop $-1 $-1 $197 $74 #
plane-surface $-1 -43.446150090029604 0 0 1 0 0 0 0 -1 forward_v I I I I #
coedge $-1 $198 $131 $199 $200 forward $75 $-1 #
coedge $-1 $201 $77 $198 $202 forward $49 $-1 #
coedge $-1 $77 $201 $203 $204 forward $49 $-1 #
coedge $-1 $134 $133 $77 $127 reversed $135 $-1 #
edge $-1 $205 -20.862160550143248 $206 20.862160550143248 $126 $207 forward 7 unknown #
coedge $-1 $79 $78 $208 $209 forward $31 $-1 #
coedge $-1 $210 $211 $78 $130 reversed $195 $-1 #
edge $-1 $137 -43.446150090029604 $212 43.446150090029604 $129 $213 forward 7 unknown #
coedge $-1 $123 $214 $79 $132 reversed $75 $-1 #
edge $-1 $215 -43.446150090029604 $136 43.446150090029604 $131 $216 forward 7 unknown #
coedge $-1 $126 $80 $214 $217 forward $135 $-1 #
coedge $-1 $80 $126 $210 $218 reversed $135 $-1 #
loop $-1 $-1 $133 $194 #
vertex $-1 $81 $219 #
vertex $-1 $81 $220 #
straight-curve $-1 43.446150090029604 0 5.8994958237747532 0 1 0 I I #
face $-1 $221 $222 $19 $-1 $223 reversed single #
loop $-1 $-1 $144 $82 #
plane-surface $-1 0 -20.862160550143248 0 0 1 0 0 0 1 forward_v I I I I #
coedge $-1 $224 $225 $143 $226 forward $83 $-1 #
coedge $-1 $151 $85 $142 $226 reversed $53 $-1 #
coedge $-1 $149 $227 $85 $145 forward $140 $-1 #
edge $-1 $228 -3.6997479118873766 $152 -0.69974791188737662 $144 $229 forward 7 unknown #
coedge $-1 $87 $86 $230 $231 reversed $34 $-1 #
coedge $-1 $232 $233 $86 $148 forward $234 $-1 #
edge $-1 $235 -23.656124512062405 $153 -15.923926643871994 $147 $236 forward 7 unknown #
coedge $-1 $237 $144 $87 $150 forward $140 $-1 #
edge $-1 $152 15.923926643871994 $238 23.656124512062405 $149 $239 forward 7 unknown #
coedge $-1 $88 $143 $232 $240 reversed $53 $-1 #
vertex $-1 $150 $241 #
vertex $-1 $148 $242 #
straight-curve $-1 -35.713952221839193 0 -2.8994958237747532 0 1 0 I I #
face $-1 $-1 $167 $20 $-1 $243 forward single #
loop $-1 $-1 $244 $90 #
plane-surface $-1 0 20.862160550143248 0 0 -1 0 0 0 -1 forward_v I I I I #
coedge $-1 $245 $246 $247 $248 reversed $91 $-1 #
coedge $-1 $249 $93 $95 $165 forward $57 $-1 #
coedge $-1 $93 $249 $245 $250 forward $57 $-1 #
coedge $-1 $247 $96 $93 $162 forward $167 $-1 #
edge $-1 $169 -22.9039852586073 $251 -2.7159486678564946 $161 $252 forward 7 unknown #
coedge $-1 $253 $254 $94 $164 forward $156 $-1 #
edge $-1 $255 -43.74439163621345 $168 -38.852335002894819 $163 $256 forward 7 unknown #
edge $-1 $169 35.242282568129866 $255 41.724321100286488 $95 $257 forward 7 unknown #
coedge $-1 $96 $247 $253 $258 forward $167 $-1 #
loop $-1 $-1 $247 $155 #
vertex $-1 $164 $259 #
vertex $-1 $97 $260 #
straight-curve $-1 -35.713952221839193 29.533497737668128 5.8994958237747568 0 -1 0 I I #
coedge $-1 $171 $171 $-1 $261 reversed $100 $-1 #
edge $-1 $262 0 $262 6.2831853071796004 $101 $263 forward 7 unknown #
vertex $-1 $104 $264 #
ellipse-curve $-1 -25.619933926463791 18.735860628403238 3.4534675071154357 0 0.75470958851134928 0.65605901945558964 1.5 0 0 1 I I #
face $-1 $-1 $265 $22 $-1 $266 reversed single #
loop $-1 $-1 $111 $105 #
plane-surface $-1 0 0 5.8994958237747532 0 0 1 1 0 0 forward_v I I I I #
coedge $-1 $267 $268 $269 $270 reversed $106 $-1 #
coedge $-1 $271 $108 $110 $185 forward $66 $-1 #
coedge $-1 $108 $271 $267 $272 forward $66 $-1 #
coedge $-1 $269 $111 $108 $182 forward $176 $-1 #
edge $-1 $188 2.7159486678564946 $273 22.9039852586073 $181 $274 forward 7 unknown #
coedge $-1 $275 $276 $109 $184 forward $265 $-1 #
edge $-1 $277 -27.999519031957146 $187 -23.107462398638507 $183 $278 forward 7 unknown #
edge $-1 $188 -6.4820385321566238 $277 5.3472153159747578e-015 $110 $279 forward 7 unknown #
coedge $-1 $111 $269 $275 $280 forward $176 $-1 #
vertex $-1 $112 $281 #
vertex $-1 $112 $282 #
straight-curve $-1 -15.52591563108839 -43.220306331920185 5.8994958237747532 0 1 0 I I #
coedge $-1 $190 $190 $-1 $283 reversed $115 $-1 #
edge $-1 $284 0 $284 6.2831853071796004 $116 $285 forward 7 unknown #
vertex $-1 $119 $286 #
ellipse-curve $-1 -25.619933926463791 -18.735860628403234 3.4534675071154335 0 -0.75470958851134928 0.65605901945558964 1.5 0 0 1 I I #
face $-1 $-1 $135 $18 $-1 $287 reversed single #
loop $-1 $-1 $210 $120 #
plane-surface $-1 0 20.862160550143248 0 0 -1 0 0 0 -1 forward_v I I I I #
coedge $-1 $288 $208 $211 $289 forward $121 $-1 #
coedge $-1 $214 $123 $124 $202 reversed $75 $-1 #
coedge $-1 $208 $288 $123 $200 reversed $121 $-1 #
edge $-1 $215 -5.8994958237747532 $290 5.8994958237747532 $199 $291 forward 7 unknown #
coedge $-1 $125 $124 $288 $292 forward $49 $-1 #
edge $-1 $206 -43.446150090029604 $290 43.446150090029604 $198 $293 forward 7 unknown #
coedge $-1 $211 $210 $125 $204 reversed $195 $-1 #
edge $-1 $294 -43.446150090029604 $205 43.446150090029604 $203 $295 forward 7 unknown #
vertex $-1 $127 $296 #
vertex $-1 $217 $297 #
straight-curve $-1 43.446150090029604 0 -5.8994958237747532 0 -1 0 I I #
coedge $-1 $197 $199 $128 $209 reversed $121 $-1 #
edge $-1 $212 -20.862160550143248 $215 20.862160550143248 $208 $298 forward 7 unknown #
coedge $-1 $203 $129 $134 $218 forward $195 $-1 #
coedge $-1 $129 $203 $197 $289 reversed $195 $-1 #
vertex $-1 $130 $299 #
straight-curve $-1 0 20.862160550143248 5.8994958237747532 -1 0 0 I I #
coedge $-1 $131 $198 $133 $217 reversed $75 $-1 #
vertex $-1 $209 $300 #
straight-curve $-1 0 -20.862160550143248 5.8994958237747532 1 0 0 I I #
edge $-1 $136 -5.8994958237747532 $206 5.8994958237747532 $133 $301 forward 7 unknown #
edge $-1 $137 -5.8994958237747532 $205 5.8994958237747532 $134 $302 forward 7 unknown #
point $-1 43.446150090029604 -20.862160550143248 5.8994958237747532 #
point $-1 43.446150090029604 20.862160550143248 5.8994958237747532 #
face $-1 $-1 $234 $19 $-1 $303 reversed single #
loop $-1 $-1 $230 $139 #
plane-surface $-1 -43.446150090029604 0 0 1 0 0 0 0 -1 forward_v I I I I #
coedge $-1 $304 $142 $227 $305 forward $83 $-1 #
coedge $-1 $142 $304 $306 $307 forward $83 $-1 #
edge $-1 $308 -20.862160550143248 $228 20.862160550143248 $142 $309 forward 7 unknown #
coedge $-1 $144 $237 $224 $305 reversed $140 $-1 #
vertex $-1 $305 $310 #
straight-curve $-1 -35.713952221839193 -20.862160550143248 -2.1997479118873766 0 0 1 I I #
coedge $-1 $311 $312 $146 $231 forward $222 $-1 #
edge $-1 $238 -20.862160550143248 $235 20.862160550143248 $230 $313 forward 7 unknown #
coedge $-1 $306 $147 $151 $240 forward $234 $-1 #
coedge $-1 $147 $306 $311 $314 reversed $234 $-1 #
loop $-1 $-1 $232 $221 #
vertex $-1 $314 $315 #
straight-curve $-1 -19.790025577967199 20.862160550143248 -2.8994958237747532 1 0 0 I I #
coedge $-1 $227 $149 $312 $316 forward $140 $-1 #
vertex $-1 $316 $317 #
straight-curve $-1 -19.790025577967199 -20.862160550143248 -2.8994958237747532 -1 0 0 I I #
edge $-1 $153 0.69974791188737662 $308 3.6997479118873766 $232 $318 forward 7 unknown #
point $-1 -35.713952221839193 -20.862160550143248 -2.8994958237747532 #
point $-1 -35.713952221839193 20.862160550143248 -2.8994958237747532 #
plane-surface $-1 0 0 5.8994958237747532 0 0 1 1 0 0 forward_v I I I I #
coedge $-1 $254 $253 $246 $319 forward $156 $-1 #
coedge $-1 $246 $158 $160 $250 reversed $91 $-1 #
coedge $-1 $158 $245 $244 $319 reversed $91 $-1 #
coedge $-1 $166 $161 $158 $248 forward $167 $-1 #
edge $-1 $251 -12.923937031004904 $320 -8.6713371875248804 $247 $321 forward 7 unknown #
coedge $-1 $160 $159 $254 $322 reversed $57 $-1 #
edge $-1 $323 -41.724321100286488 $251 -35.242282568129866 $245 $324 forward 7 unknown #
vertex $-1 $162 $325 #
straight-curve $-1 -12.809966963231895 16.609560706663224 5.8994958237747497 1 0 0 I I #
coedge $-1 $244 $163 $166 $258 reversed $156 $-1 #
coedge $-1 $163 $244 $249 $322 forward $156 $-1 #
vertex $-1 $164 $326 #
straight-curve $-1 -35.713952221839193 20.862160550143248 44.751830826669568 0 0 1 I I #
straight-curve $-1 -35.713952221839193 -6.511456638360869 32.497184398968734 0 0.65605901945558964 -0.75470958851134928 I I #
edge $-1 $320 15.52591563108839 $168 35.713952221839193 $253 $327 forward 7 unknown #
point $-1 -35.713952221839193 20.862160550143248 5.8994958237747532 #
point $-1 -35.713952221839193 16.609560706663224 5.8994958237747532 #
edge $-1 $328 1 $328 0 $171 $-1 forward 7 unknown #
vertex $-1 $172 $329 #
ellipse-curve $-1 -25.619933926463791 14.454282368948549 -0.26845159578194555 0 0.75470958851134928 0.65605901945558964 1.5 0 0 1 I I #
point $-1 -24.119933926463791 18.735860628403238 3.4534675071154357 #
loop $-1 $-1 $183 $175 #
plane-surface $-1 0 -20.862160550143248 0 0 1 0 0 0 1 forward_v I I I I #
coedge $-1 $268 $178 $180 $272 reversed $106 $-1 #
coedge $-1 $178 $267 $330 $331 reversed $106 $-1 #
coedge $-1 $186 $181 $178 $270 forward $176 $-1 #
edge $-1 $273 -26.610745625256964 $332 -22.358145781776937 $269 $333 forward 7 unknown #
coedge $-1 $180 $179 $276 $334 reversed $66 $-1 #
edge $-1 $335 -5.3472153159747578e-015 $273 6.4820385321566238 $267 $336 forward 7 unknown #
vertex $-1 $182 $337 #
straight-curve $-1 -12.809966963231895 -16.609560706663217 5.8994958237747532 -1 0 0 I I #
coedge $-1 $330 $183 $186 $280 reversed $265 $-1 #
coedge $-1 $183 $330 $271 $334 forward $265 $-1 #
vertex $-1 $184 $338 #
straight-curve $-1 -15.52591563108839 -20.862160550143244 29.00695822241326 0 0 1 I I #
straight-curve $-1 -15.52591563108839 -20.862160550143244 1.0074391904561182 0 -0.65605901945558964 -0.75470958851134928 I I #
edge $-1 $332 -35.713952221839193 $187 -15.52591563108839 $275 $339 forward 7 unknown #
point $-1 -15.52591563108839 -20.862160550143248 5.8994958237747532 #
point $-1 -15.52591563108839 -16.60956070666322 5.8994958237747532 #
edge $-1 $340 1 $340 0 $190 $-1 forward 7 unknown #
vertex $-1 $191 $341 #
ellipse-curve $-1 -25.619933926463791 -14.454282368948547 -0.26845159578194555 0 -0.75470958851134928 0.65605901945558964 1.5 0 0 1 I I #
point $-1 -24.119933926463791 -18.735860628403238 3.4534675071154357 #
plane-surface $-1 43.446150090029604 0 0 -1 0 0 0 0 1 forward_v I I I I #
coedge $-1 $199 $197 $201 $292 reversed $121 $-1 #
edge $-1 $212 -5.8994958237747532 $294 5.8994958237747532 $211 $342 forward 7 unknown #
vertex $-1 $292 $343 #
straight-curve $-1 -43.446150090029604 -20.862160550143248 0 0 0 -1 I I #
edge $-1 $290 -20.862160550143248 $294 20.862160550143248 $288 $344 forward 7 unknown #
straight-curve $-1 0 -20.862160550143248 -5.8994958237747532 -1 0 0 I I #
vertex $-1 $204 $345 #
straight-curve $-1 0 20.862160550143248 -5.8994958237747532 1 0 0 I I #
point $-1 43.446150090029604 20.862160550143248 -5.8994958237747532 #
point $-1 43.446150090029604 -20.862160550143248 -5.8994958237747532 #
straight-curve $-1 -43.446150090029604 0 5.8994958237747532 0 -1 0 I I #
point $-1 -43.446150090029604 20.862160550143248 5.8994958237747532 #
point $-1 -43.446150090029604 -20.862160550143248 5.8994958237747532 #
straight-curve $-1 43.446150090029604 -20.862160550143248 0 0 0 -1 I I #
straight-curve $-1 43.446150090029604 20.862160550143248 0 0 0 -1 I I #
plane-surface $-1 0 20.862160550143248 0 0 -1 0 0 0 -1 forward_v I I I I #
coedge $-1 $225 $224 $346 $347 forward $83 $-1 #
edge $-1 $228 35.713952221839193 $348 43.446150090029604 $227 $349 forward 7 unknown #
coedge $-1 $233 $232 $225 $307 reversed $234 $-1 #
edge $-1 $350 -43.446150090029604 $308 -35.713952221839193 $306 $351 forward 7 unknown #
vertex $-1 $240 $352 #
straight-curve $-1 -35.713952221839193 0 -5.8994958237747532 0 -1 0 I I #
point $-1 -35.713952221839193 -20.862160550143248 -5.8994958237747532 #
coedge $-1 $346 $230 $233 $314 forward $222 $-1 #
coedge $-1 $230 $346 $237 $316 reversed $222 $-1 #
straight-curve $-1 -43.446150090029604 0 -2.8994958237747532 0 1 0 I I #
edge $-1 $235 2.8994958237747532 $350 5.8994958237747532 $233 $353 forward 7 unknown #
point $-1 -43.446150090029604 20.862160550143248 -2.8994958237747532 #
edge $-1 $238 2.8994958237747532 $348 5.8994958237747532 $312 $354 forward 7 unknown #
point $-1 -43.446150090029604 -20.862160550143248 -2.8994958237747532 #
straight-curve $-1 -35.713952221839193 20.862160550143248 -2.1997479118873766 0 0 -1 I I #
edge $-1 $320 38.852335002894819 $323 43.74439163621345 $244 $355 forward 7 unknown #
vertex $-1 $258 $356 #
straight-curve $-1 -15.52591563108839 29.533497737668128 5.8994958237747568 0 1 0 I I #
edge $-1 $323 2.7159486678564946 $255 22.9039852586073 $254 $357 forward 7 unknown #
vertex $-1 $322 $358 #
straight-curve $-1 -15.52591563108839 -6.511456638360869 32.497184398968734 0 -0.65605901945558964 0.75470958851134928 I I #
point $-1 -15.52591563108839 16.609560706663224 5.8994958237747532 #
point $-1 -35.713952221839193 20.862160550143248 1.0074391904561182 #
straight-curve $-1 0 20.862160550143248 5.8994958237747532 -1 0 0 I I #
vertex $-1 $261 $359 #
point $-1 -24.119933926463791 14.454282368948549 -0.26845159578194555 #
coedge $-1 $276 $275 $268 $331 forward $265 $-1 #
edge $-1 $332 23.107462398638507 $335 27.999519031957146 $330 $360 forward 7 unknown #
vertex $-1 $280 $361 #
straight-curve $-1 -35.713952221839193 -43.220306331920185 5.8994958237747532 0 -1 0 I I #
edge $-1 $335 -22.9039852586073 $277 -2.7159486678564946 $276 $362 forward 7 unknown #
vertex $-1 $334 $363 #
straight-curve $-1 -35.713952221839193 -20.862160550143244 1.0074391904561182 0 0.65605901945558964 0.75470958851134928 I I #
point $-1 -35.713952221839193 -16.60956070666322 5.8994958237747532 #
point $-1 -15.52591563108839 -20.862160550143248 1.0074391904561142 #
straight-curve $-1 0 -20.862160550143248 5.8994958237747532 1 0 0 I I #
vertex $-1 $283 $364 #
point $-1 -24.119933926463791 -14.454282368948547 -0.26845159578194555 #
straight-curve $-1 -43.446150090029604 20.862160550143248 0 0 0 -1 I I #
point $-1 -43.446150090029604 -20.862160550143248 -5.8994958237747532 #
straight-curve $-1 -43.446150090029604 0 -5.8994958237747532 0 1 0 I I #
point $-1 -43.446150090029604 20.862160550143248 -5.8994958237747532 #
coedge $-1 $312 $311 $304 $347 reversed $222 $-1 #
edge $-1 $348 -20.862160550143248 $350 20.862160550143248 $346 $365 forward 7 unknown #
vertex $-1 $347 $366 #
straight-curve $-1 0 -20.862160550143248 -5.8994958237747532 -1 0 0 I I #
vertex $-1 $307 $367 #
straight-curve $-1 0 20.862160550143248 -5.8994958237747532 1 0 0 I I #
point $-1 -35.713952221839193 20.862160550143248 -5.8994958237747532 #
straight-curve $-1 -43.446150090029604 20.862160550143248 0 0 0 -1 I I #
straight-curve $-1 -43.446150090029604 -20.862160550143248 0 0 0 -1 I I #
straight-curve $-1 -15.52591563108839 20.862160550143248 44.751830826669568 0 0 -1 I I #
point $-1 -15.52591563108839 20.862160550143248 5.8994958237747532 #
straight-curve $-1 -12.809966963231895 20.862160550143248 1.0074391904561182 -1 0 0 I I #
point $-1 -15.52591563108839 20.862160550143248 1.0074391904561182 #
point $-1 -25.619933926463791 13.322217986181526 -1.2525401249653301 #
straight-curve $-1 -35.713952221839193 -20.862160550143244 29.00695822241326 0 0 -1 I I #
point $-1 -35.713952221839193 -20.862160550143248 5.8994958237747532 #
straight-curve $-1 -12.809966963231895 -20.862160550143248 1.007439190456114 1 0 0 I I #
point $-1 -35.713952221839193 -20.862160550143248 1.0074391904561142 #
point $-1 -25.619933926463791 -13.322217986181524 -1.2525401249653301 #
straight-curve $-1 -43.446150090029604 0 -5.8994958237747532 0 1 0 I I #
point $-1 -43.446150090029604 -20.862160550143248 -5.8994958237747532 #
point $-1 -43.446150090029604 20.862160550143248 -5.8994958237747532 #
End-of-ACIS-data 