500 0 19 0           
7 Unknown 11 ACIS 5.0 NT 24 Thu Mar 25 21:47:10 1999 
-1 9.9999999999999995e-007 1e-010 
body $-1 $19 $-1 $20 #
body $-1 $21 $-1 $22 #
body $-1 $23 $-1 $24 #
body $-1 $25 $-1 $26 #
body $-1 $27 $-1 $28 #
body $-1 $29 $-1 $30 #
body $-1 $31 $-1 $32 #
body $-1 $33 $-1 $34 #
body $-1 $35 $-1 $36 #
body $-1 $37 $-1 $38 #
body $-1 $39 $-1 $40 #
body $-1 $41 $-1 $42 #
body $-1 $43 $-1 $44 #
body $-1 $45 $-1 $46 #
body $-1 $47 $-1 $48 #
body $-1 $49 $-1 $50 #
body $-1 $51 $-1 $52 #
body $-1 $53 $-1 $54 #
body $-1 $55 $-1 $56 #
lump $-1 $-1 $57 $0 #
transform $-1 1 0 0 0 1 0 0 0 1 68.223517563402197 33.886685926431966 14.7424199312438 1 rotate no_reflect no_shear #
lump $-1 $-1 $58 $1 #
transform $-1 1 0 0 0 1 0 0 0 1 68.223517563402197 33.886685926431966 14.7424199312438 1 rotate no_reflect no_shear #
lump $-1 $-1 $59 $2 #
transform $-1 1 0 0 0 1 0 0 0 1 68.223517563402197 33.886685926431966 14.7424199312438 1 rotate no_reflect no_shear #
lump $-1 $-1 $60 $3 #
transform $-1 1 0 0 0 1 0 0 0 1 68.223517563402197 33.886685926431966 14.7424199312438 1 rotate no_reflect no_shear #
lump $-1 $-1 $61 $4 #
transform $-1 1 0 0 0 1 0 0 0 1 68.223517563402197 33.886685926431966 14.7424199312438 1 rotate no_reflect no_shear #
lump $-1 $-1 $62 $5 #
transform $-1 1 0 0 0 1 0 0 0 1 68.223517563402197 33.886685926431966 14.7424199312438 1 rotate no_reflect no_shear #
lump $-1 $-1 $63 $6 #
transform $-1 1 0 0 0 1 0 0 0 1 68.223517563402197 33.886685926431966 14.7424199312438 1 rotate no_reflect no_shear #
lump $-1 $-1 $64 $7 #
transform $-1 1 0 0 0 1 0 0 0 1 68.223517563402197 33.886685926431966 14.7424199312438 1 rotate no_reflect no_shear #
lump $-1 $-1 $65 $8 #
transform $-1 1 0 0 0 1 0 0 0 1 68.223517563402197 33.886685926431966 14.7424199312438 1 rotate no_reflect no_shear #
lump $-1 $-1 $66 $9 #
transform $-1 1 0 0 0 1 0 0 0 1 68.223517563402197 33.886685926431966 14.7424199312438 1 rotate no_reflect no_shear #
lump $-1 $-1 $67 $10 #
transform $-1 1 0 0 0 1 0 0 0 1 68.223517563402197 33.886685926431966 14.7424199312438 1 rotate no_reflect no_shear #
lump $-1 $-1 $68 $11 #
transform $-1 1 0 0 0 1 0 0 0 1 68.223517563402197 33.886685926431966 14.7424199312438 1 rotate no_reflect no_shear #
lump $-1 $-1 $69 $12 #
transform $-1 1 0 0 0 1 0 0 0 1 68.223517563402197 33.886685926431966 14.7424199312438 1 rotate no_reflect no_shear #
lump $-1 $-1 $70 $13 #
transform $-1 1 0 0 0 1 0 0 0 1 68.223517563402197 33.886685926431966 14.7424199312438 1 rotate no_reflect no_shear #
lump $-1 $-1 $71 $14 #
transform $-1 1 0 0 0 1 0 0 0 1 68.223517563402197 33.886685926431966 14.7424199312438 1 rotate no_reflect no_shear #
lump $-1 $-1 $72 $15 #
transform $-1 1 0 0 0 1 0 0 0 1 68.223517563402197 33.886685926431966 14.7424199312438 1 rotate no_reflect no_shear #
lump $-1 $-1 $73 $16 #
transform $-1 1 0 0 0 1 0 0 0 1 68.223517563402197 33.886685926431966 14.7424199312438 1 rotate no_reflect no_shear #
lump $-1 $-1 $74 $17 #
transform $-1 1 0 0 0 1 0 0 0 1 68.223517563402197 33.886685926431966 14.7424199312438 1 rotate no_reflect no_shear #
lump $-1 $-1 $75 $18 #
transform $-1 1 0 0 0 1 0 0 0 1 68.223517563402197 33.886685926431966 14.7424199312438 1 rotate no_reflect no_shear #
shell $-1 $-1 $-1 $76 $-1 $19 #
shell $-1 $-1 $-1 $77 $-1 $21 #
shell $-1 $-1 $-1 $78 $-1 $23 #
shell $-1 $-1 $-1 $79 $-1 $25 #
shell $-1 $-1 $-1 $80 $-1 $27 #
shell $-1 $-1 $-1 $81 $-1 $29 #
shell $-1 $-1 $-1 $82 $-1 $31 #
shell $-1 $-1 $-1 $83 $-1 $33 #
shell $-1 $-1 $-1 $84 $-1 $35 #
shell $-1 $-1 $-1 $85 $-1 $37 #
shell $-1 $-1 $-1 $86 $-1 $39 #
shell $-1 $-1 $-1 $87 $-1 $41 #
shell $-1 $-1 $-1 $88 $-1 $43 #
shell $-1 $-1 $-1 $89 $-1 $45 #
shell $-1 $-1 $-1 $90 $-1 $47 #
shell $-1 $-1 $-1 $91 $-1 $49 #
shell $-1 $-1 $-1 $92 $-1 $51 #
shell $-1 $-1 $-1 $93 $-1 $53 #
shell $-1 $-1 $-1 $94 $-1 $55 #
face $-1 $95 $96 $57 $-1 $97 forward single #
face $-1 $98 $99 $58 $-1 $100 reversed single #
face $-1 $101 $102 $59 $-1 $103 forward single #
face $-1 $104 $105 $60 $-1 $106 forward single #
face $-1 $107 $108 $61 $-1 $109 reversed single #
face $-1 $110 $111 $62 $-1 $112 forward single #
face $-1 $113 $114 $63 $-1 $115 forward single #
face $-1 $116 $117 $64 $-1 $118 reversed single #
face $-1 $119 $120 $65 $-1 $121 forward single #
face $-1 $122 $123 $66 $-1 $124 forward single #
face $-1 $125 $126 $67 $-1 $127 reversed single #
face $-1 $128 $129 $68 $-1 $130 forward single #
face $-1 $131 $132 $69 $-1 $133 forward single #
face $-1 $134 $135 $70 $-1 $136 reversed single #
face $-1 $137 $138 $71 $-1 $139 forward single #
face $-1 $140 $141 $72 $-1 $142 forward single #
face $-1 $143 $144 $73 $-1 $145 reversed single #
face $-1 $146 $147 $74 $-1 $148 forward single #
face $-1 $149 $150 $75 $-1 $151 forward single #
face $-1 $152 $153 $57 $-1 $154 reversed single #
loop $-1 $-1 $155 $76 #
plane-surface $-1 0 0 14.7424199312438 0 0 1 1 0 0 forward_v I I I I #
face $-1 $156 $157 $58 $-1 $158 reversed single #
loop $-1 $-1 $159 $77 #
plane-surface $-1 -51.34461497826743 67.085786695411898 160.28197673038269 1 0 0 0 -0.62932039886446345 -0.77714595512881146 forward_v I I I I #
face $-1 $160 $161 $59 $-1 $162 forward single #
loop $-1 $163 $164 $78 #
cone-surface $-1 -46.42094177924848 31.62652553690889 12.778411930774437 0 -0.62932039886446345 -0.77714595512881146 0.5 0 0 1 I I 0 1 0.5 forward I I I I #
face $-1 $165 $166 $60 $-1 $167 forward single #
loop $-1 $168 $169 $79 #
cone-surface $-1 -39.035431980720048 31.62652553690889 12.778411930774437 0 -0.62932039886446345 -0.77714595512881146 0.5 0 0 1 I I 0 1 0.5 forward I I I I #
face $-1 $170 $171 $61 $-1 $172 reversed single #
loop $-1 $-1 $173 $80 #
plane-surface $-1 -17.232856196566331 67.085786695411898 160.28197673038269 1 0 0 0 -0.62932039886446345 -0.77714595512881146 forward_v I I I I #
face $-1 $174 $175 $62 $-1 $176 forward single #
loop $-1 $177 $178 $81 #
cone-surface $-1 -12.309182997547381 31.62652553690889 12.778411930774437 0 -0.62932039886446345 -0.77714595512881146 0.5 0 0 1 I I 0 1 0.5 forward I I I I #
face $-1 $179 $180 $63 $-1 $181 forward single #
loop $-1 $182 $183 $82 #
cone-surface $-1 -4.9236731990189497 31.62652553690889 12.778411930774437 0 -0.62932039886446345 -0.77714595512881146 0.5 0 0 1 I I 0 1 0.5 forward I I I I #
face $-1 $184 $185 $64 $-1 $186 reversed single #
loop $-1 $-1 $187 $83 #
plane-surface $-1 16.878902585134767 67.085786695411898 160.28197673038269 1 0 0 0 -0.62932039886446345 -0.77714595512881146 forward_v I I I I #
face $-1 $188 $189 $65 $-1 $190 forward single #
loop $-1 $191 $192 $84 #
cone-surface $-1 21.802575784153717 31.62652553690889 12.778411930774437 0 -0.62932039886446345 -0.77714595512881146 0.5 0 0 1 I I 0 1 0.5 forward I I I I #
face $-1 $193 $194 $66 $-1 $195 forward single #
loop $-1 $196 $197 $85 #
cone-surface $-1 29.188085582682149 31.62652553690889 12.778411930774437 0 -0.62932039886446345 -0.77714595512881146 0.5 0 0 1 I I 0 1 0.5 forward I I I I #
face $-1 $198 $199 $67 $-1 $200 reversed single #
loop $-1 $-1 $201 $86 #
plane-surface $-1 50.990661366835866 67.085786695411898 160.28197673038269 1 0 0 0 -0.62932039886446345 -0.77714595512881146 forward_v I I I I #
face $-1 $202 $203 $68 $-1 $204 forward single #
loop $-1 $205 $206 $87 #
cone-surface $-1 55.914334565854816 31.62652553690889 12.778411930774437 0 -0.62932039886446345 -0.77714595512881146 0.5 0 0 1 I I 0 1 0.5 forward I I I I #
face $-1 $207 $208 $69 $-1 $209 forward single #
loop $-1 $210 $211 $88 #
cone-surface $-1 63.299844364383262 31.62652553690889 12.778411930774437 0 -0.62932039886446345 -0.77714595512881146 0.5 0 0 1 I I 0 1 0.5 forward I I I I #
face $-1 $212 $213 $70 $-1 $214 reversed single #
loop $-1 $-1 $215 $89 #
plane-surface $-1 0 -116.00256256987217 113.25207069340782 -1 0 0 0 -0.6018150307709319 0.79863550430605224 forward_v I I I I #
face $-1 $216 $217 $71 $-1 $218 forward single #
loop $-1 $219 $220 $90 #
cone-surface $-1 -13.348958911128832 -25.303893225579852 7.3336334073950846 0 0.6018150307709319 -0.79863550430605224 2 0 0 1 I I 0 1 2 forward I I I I #
face $-1 $221 $222 $72 $-1 $223 forward single #
loop $-1 $224 $225 $91 #
cone-surface $-1 -5.3395835644515302 -25.303893225579852 7.3336334073950846 0 0.6018150307709319 -0.79863550430605224 2 0 0 1 I I 0 1 2 forward I I I I #
face $-1 $226 $227 $73 $-1 $228 reversed single #
loop $-1 $-1 $229 $92 #
plane-surface $-1 18.688542475580363 -116.00256256987217 113.25207069340782 -1 0 0 0 -0.6018150307709319 0.79863550430605224 forward_v I I I I #
face $-1 $230 $231 $74 $-1 $232 forward single #
loop $-1 $233 $234 $93 #
cone-surface $-1 5.3395835644515302 -25.303893225579852 7.3336334073950846 0 0.6018150307709319 -0.79863550430605224 2 0 0 1 I I 0 1 2 forward I I I I #
face $-1 $235 $236 $75 $-1 $237 forward single #
loop $-1 $238 $239 $94 #
cone-surface $-1 13.348958911128832 -25.303893225579852 7.3336334073950846 0 0.6018150307709319 -0.79863550430605224 2 0 0 1 I I 0 1 2 forward I I I I #
face $-1 $240 $241 $57 $-1 $242 reversed single #
loop $-1 $-1 $243 $95 #
plane-surface $-1 0 0 -14.7424199312438 0 0 1 1 0 0 forward_v I I I I #
coedge $-1 $244 $245 $246 $247 forward $96 $-1 #
face $-1 $248 $249 $58 $-1 $250 reversed single #
loop $-1 $-1 $251 $98 #
plane-surface $-1 -42.728186879984264 -18.783115874462098 54.242715292267803 0 0.62932039886446345 0.77714595512881146 1 0 0 forward_v I I I I #
coedge $-1 $252 $253 $254 $255 reversed $99 $-1 #
face $-1 $-1 $256 $59 $-1 $257 forward single #
loop $-1 $258 $259 $101 #
cone-surface $-1 -46.42094177924848 31.154535237760541 12.195552464427829 0 -0.62932039886446345 -0.77714595512881146 0.25 0 0 1 I I -0.70710678118654746 0.70710678118654746 0.25 forward I I I I #
loop $-1 $-1 $260 $78 #
coedge $-1 $164 $164 $261 $262 reversed $102 $-1 #
face $-1 $-1 $263 $60 $-1 $264 forward single #
loop $-1 $265 $266 $104 #
cone-surface $-1 -39.035431980720048 31.154535237760541 12.195552464427829 0 -0.62932039886446345 -0.77714595512881146 0.25 0 0 1 I I -0.70710678118654746 0.70710678118654746 0.25 forward I I I I #
loop $-1 $-1 $267 $79 #
coedge $-1 $169 $169 $268 $269 reversed $105 $-1 #
face $-1 $270 $271 $61 $-1 $272 reversed single #
loop $-1 $-1 $273 $107 #
plane-surface $-1 -8.6164280982831656 -18.783115874462098 54.242715292267803 0 0.62932039886446345 0.77714595512881146 1 0 0 forward_v I I I I #
coedge $-1 $274 $275 $276 $277 reversed $108 $-1 #
face $-1 $-1 $278 $62 $-1 $279 forward single #
loop $-1 $280 $281 $110 #
cone-surface $-1 -12.309182997547381 31.154535237760541 12.195552464427829 0 -0.62932039886446345 -0.77714595512881146 0.25 0 0 1 I I -0.70710678118654746 0.70710678118654746 0.25 forward I I I I #
loop $-1 $-1 $282 $81 #
coedge $-1 $178 $178 $283 $284 reversed $111 $-1 #
face $-1 $-1 $285 $63 $-1 $286 forward single #
loop $-1 $287 $288 $113 #
cone-surface $-1 -4.9236731990189497 31.154535237760541 12.195552464427829 0 -0.62932039886446345 -0.77714595512881146 0.25 0 0 1 I I -0.70710678118654746 0.70710678118654746 0.25 forward I I I I #
loop $-1 $-1 $289 $82 #
coedge $-1 $183 $183 $290 $291 reversed $114 $-1 #
face $-1 $292 $293 $64 $-1 $294 reversed single #
loop $-1 $-1 $295 $116 #
plane-surface $-1 25.495330683417933 -18.783115874462098 54.242715292267803 0 0.62932039886446345 0.77714595512881146 1 0 0 forward_v I I I I #
coedge $-1 $296 $297 $298 $299 reversed $117 $-1 #
face $-1 $-1 $300 $65 $-1 $301 forward single #
loop $-1 $302 $303 $119 #
cone-surface $-1 21.802575784153717 31.154535237760541 12.195552464427829 0 -0.62932039886446345 -0.77714595512881146 0.25 0 0 1 I I -0.70710678118654746 0.70710678118654746 0.25 forward I I I I #
loop $-1 $-1 $304 $84 #
coedge $-1 $192 $192 $305 $306 reversed $120 $-1 #
face $-1 $-1 $307 $66 $-1 $308 forward single #
loop $-1 $309 $310 $122 #
cone-surface $-1 29.188085582682149 31.154535237760541 12.195552464427829 0 -0.62932039886446345 -0.77714595512881146 0.25 0 0 1 I I -0.70710678118654746 0.70710678118654746 0.25 forward I I I I #
loop $-1 $-1 $311 $85 #
coedge $-1 $197 $197 $312 $313 reversed $123 $-1 #
face $-1 $314 $315 $67 $-1 $316 forward single #
loop $-1 $-1 $317 $125 #
plane-surface $-1 59.607089465119032 -18.783115874462098 54.242715292267803 0 0.62932039886446345 0.77714595512881146 1 0 0 forward_v I I I I #
coedge $-1 $318 $319 $320 $321 reversed $126 $-1 #
face $-1 $-1 $322 $68 $-1 $323 forward single #
loop $-1 $324 $325 $128 #
cone-surface $-1 55.914334565854816 31.154535237760541 12.195552464427829 0 -0.62932039886446345 -0.77714595512881146 0.25 0 0 1 I I -0.70710678118654746 0.70710678118654746 0.25 forward I I I I #
loop $-1 $-1 $326 $87 #
coedge $-1 $206 $206 $327 $328 reversed $129 $-1 #
face $-1 $-1 $329 $69 $-1 $330 forward single #
loop $-1 $331 $332 $131 #
cone-surface $-1 63.299844364383262 31.154535237760541 12.195552464427829 0 -0.62932039886446345 -0.77714595512881146 0.25 0 0 1 I I -0.70710678118654746 0.70710678118654746 0.25 forward I I I I #
loop $-1 $-1 $333 $88 #
coedge $-1 $211 $211 $334 $335 reversed $132 $-1 #
face $-1 $336 $337 $70 $-1 $338 reversed single #
loop $-1 $-1 $339 $134 #
plane-surface $-1 -9.3442712377901813 -33.886685926431952 4.2806239838467661 0 -0.6018150307709319 0.79863550430605224 1 0 0 forward_v I I I I #
coedge $-1 $340 $341 $342 $343 reversed $135 $-1 #
face $-1 $-1 $344 $71 $-1 $345 forward single #
loop $-1 $346 $347 $137 #
cone-surface $-1 -13.348958911128832 -23.060921424595982 4.3571093529388332 0 0.6018150307709319 -0.79863550430605224 1 0 0 1 I I -0.70710678118654746 0.70710678118654746 1 forward I I I I #
loop $-1 $-1 $348 $90 #
coedge $-1 $220 $220 $349 $350 reversed $138 $-1 #
face $-1 $-1 $351 $72 $-1 $352 forward single #
loop $-1 $353 $354 $140 #
cone-surface $-1 -5.3395835644515302 -23.060921424595982 4.3571093529388332 0 0.6018150307709319 -0.79863550430605224 1 0 0 1 I I -0.70710678118654746 0.70710678118654746 1 forward I I I I #
loop $-1 $-1 $355 $91 #
coedge $-1 $225 $225 $356 $357 reversed $141 $-1 #
face $-1 $358 $359 $73 $-1 $360 reversed single #
loop $-1 $-1 $361 $143 #
plane-surface $-1 -9.3442712377901813 -33.886685926431952 4.2806239838467661 0 -0.6018150307709319 0.79863550430605224 1 0 0 forward_v I I I I #
coedge $-1 $362 $363 $364 $365 reversed $144 $-1 #
face $-1 $-1 $366 $74 $-1 $367 forward single #
loop $-1 $368 $369 $146 #
cone-surface $-1 5.3395835644515302 -23.060921424595982 4.3571093529388332 0 0.6018150307709319 -0.79863550430605224 1 0 0 1 I I -0.70710678118654746 0.70710678118654746 1 forward I I I I #
loop $-1 $-1 $370 $93 #
coedge $-1 $234 $234 $371 $372 reversed $147 $-1 #
face $-1 $-1 $373 $75 $-1 $374 forward single #
loop $-1 $375 $376 $149 #
cone-surface $-1 13.348958911128832 -23.060921424595982 4.3571093529388332 0 0.6018150307709319 -0.79863550430605224 1 0 0 1 I I -0.70710678118654746 0.70710678118654746 1 forward I I I I #
loop $-1 $-1 $377 $94 #
coedge $-1 $239 $239 $378 $379 reversed $150 $-1 #
face $-1 $380 $381 $57 $-1 $382 reversed single #
loop $-1 $-1 $383 $152 #
plane-surface $-1 0 -33.886685926431966 0 0 1 0 0 0 1 forward_v I I I I #
coedge $-1 $384 $385 $386 $387 forward $153 $-1 #
coedge $-1 $388 $155 $389 $390 forward $96 $-1 #
coedge $-1 $155 $388 $391 $392 forward $96 $-1 #
coedge $-1 $393 $394 $155 $247 reversed $395 $-1 #
edge $-1 $396 -33.886685926431966 $397 33.886685926431966 $246 $398 forward 7 unknown #
face $-1 $399 $400 $58 $-1 $401 reversed single #
loop $-1 $-1 $402 $156 #
plane-surface $-1 -34.111758781701099 67.085786695411898 160.28197673038269 -1 0 0 0 0.62932039886446345 0.77714595512881146 forward_v I I I I #
coedge $-1 $403 $404 $405 $406 reversed $157 $-1 #
coedge $-1 $253 $159 $407 $408 reversed $99 $-1 #
coedge $-1 $159 $252 $403 $409 reversed $99 $-1 #
coedge $-1 $405 $410 $159 $255 forward $411 $-1 #
edge $-1 $412 -0.34379257872601698 $413 3.5472078014556843 $254 $414 forward 7 unknown #
loop $-1 $-1 $261 $160 #
plane-surface $-1 -42.728186879984264 -18.783115874462098 54.242715292267803 0 0.62932039886446345 0.77714595512881146 1 0 0 forward_v I I I I #
loop $-1 $-1 $415 $101 #
coedge $-1 $259 $259 $260 $416 reversed $161 $-1 #
coedge $-1 $260 $260 $259 $416 forward $163 $-1 #
coedge $-1 $261 $261 $164 $262 forward $256 $-1 #
edge $-1 $417 -5.6570218165486154e-015 $417 6.2831853071795951 $261 $418 forward 7 unknown #
loop $-1 $-1 $268 $165 #
plane-surface $-1 -42.728186879984264 -18.783115874462098 54.242715292267803 0 0.62932039886446345 0.77714595512881146 1 0 0 forward_v I I I I #
loop $-1 $-1 $419 $104 #
coedge $-1 $266 $266 $267 $420 reversed $166 $-1 #
coedge $-1 $267 $267 $266 $420 forward $168 $-1 #
coedge $-1 $268 $268 $169 $269 forward $263 $-1 #
edge $-1 $421 -5.6570218165486154e-015 $421 6.2831853071795951 $268 $422 forward 7 unknown #
face $-1 $423 $424 $61 $-1 $425 forward single #
loop $-1 $-1 $426 $170 #
plane-surface $-1 1.7763568394002505e-015 67.085786695411898 160.28197673038269 -1 0 0 0 0.62932039886446345 0.77714595512881146 forward_v I I I I #
coedge $-1 $427 $428 $429 $430 reversed $171 $-1 #
coedge $-1 $275 $173 $431 $432 reversed $108 $-1 #
coedge $-1 $173 $274 $427 $433 reversed $108 $-1 #
coedge $-1 $429 $434 $173 $277 forward $424 $-1 #
edge $-1 $435 -0.34379257872601698 $436 3.5472078014556843 $276 $437 forward 7 unknown #
loop $-1 $-1 $283 $174 #
plane-surface $-1 -8.6164280982831656 -18.783115874462098 54.242715292267803 0 0.62932039886446345 0.77714595512881146 1 0 0 forward_v I I I I #
loop $-1 $-1 $438 $110 #
coedge $-1 $281 $281 $282 $439 reversed $175 $-1 #
coedge $-1 $282 $282 $281 $439 forward $177 $-1 #
coedge $-1 $283 $283 $178 $284 forward $278 $-1 #
edge $-1 $440 -5.6570218165486154e-015 $440 6.2831853071795951 $283 $441 forward 7 unknown #
loop $-1 $-1 $290 $179 #
plane-surface $-1 -8.6164280982831656 -18.783115874462098 54.242715292267803 0 0.62932039886446345 0.77714595512881146 1 0 0 forward_v I I I I #
loop $-1 $-1 $442 $113 #
coedge $-1 $288 $288 $289 $443 reversed $180 $-1 #
coedge $-1 $289 $289 $288 $443 forward $182 $-1 #
coedge $-1 $290 $290 $183 $291 forward $285 $-1 #
edge $-1 $444 -5.6570218165486154e-015 $444 6.2831853071795951 $290 $445 forward 7 unknown #
face $-1 $446 $447 $64 $-1 $448 forward single #
loop $-1 $-1 $449 $184 #
plane-surface $-1 34.111758781701099 67.085786695411898 160.28197673038269 -1 0 0 0 0.62932039886446345 0.77714595512881146 forward_v I I I I #
coedge $-1 $450 $451 $452 $453 reversed $185 $-1 #
coedge $-1 $297 $187 $454 $455 reversed $117 $-1 #
coedge $-1 $187 $296 $450 $456 reversed $117 $-1 #
coedge $-1 $452 $457 $187 $299 forward $447 $-1 #
edge $-1 $458 -0.34379257872601698 $459 3.5472078014556843 $298 $460 forward 7 unknown #
loop $-1 $-1 $305 $188 #
plane-surface $-1 25.495330683417933 -18.783115874462098 54.242715292267803 0 0.62932039886446345 0.77714595512881146 1 0 0 forward_v I I I I #
loop $-1 $-1 $461 $119 #
coedge $-1 $303 $303 $304 $462 reversed $189 $-1 #
coedge $-1 $304 $304 $303 $462 forward $191 $-1 #
coedge $-1 $305 $305 $192 $306 forward $300 $-1 #
edge $-1 $463 -5.6570218165486154e-015 $463 6.2831853071795951 $305 $464 forward 7 unknown #
loop $-1 $-1 $312 $193 #
plane-surface $-1 25.495330683417933 -18.783115874462098 54.242715292267803 0 0.62932039886446345 0.77714595512881146 1 0 0 forward_v I I I I #
loop $-1 $-1 $465 $122 #
coedge $-1 $310 $310 $311 $466 reversed $194 $-1 #
coedge $-1 $311 $311 $310 $466 forward $196 $-1 #
coedge $-1 $312 $312 $197 $313 forward $307 $-1 #
edge $-1 $467 -5.6570218165486154e-015 $467 6.2831853071795951 $312 $468 forward 7 unknown #
face $-1 $469 $470 $67 $-1 $471 reversed single #
loop $-1 $-1 $320 $198 #
plane-surface $-1 0 0 14.7424199312438 0 0 1 1 0 0 forward_v I I I I #
coedge $-1 $472 $473 $474 $475 reversed $199 $-1 #
coedge $-1 $319 $201 $476 $477 reversed $126 $-1 #
coedge $-1 $201 $318 $472 $478 reversed $126 $-1 #
coedge $-1 $474 $479 $201 $321 forward $315 $-1 #
edge $-1 $480 -0.34379257872601698 $481 3.5472078014556843 $320 $482 forward 7 unknown #
loop $-1 $-1 $327 $202 #
plane-surface $-1 59.607089465119032 -18.783115874462098 54.242715292267803 0 0.62932039886446345 0.77714595512881146 1 0 0 forward_v I I I I #
loop $-1 $-1 $483 $128 #
coedge $-1 $325 $325 $326 $484 reversed $203 $-1 #
coedge $-1 $326 $326 $325 $484 forward $205 $-1 #
coedge $-1 $327 $327 $206 $328 forward $322 $-1 #
edge $-1 $485 -5.6570218165486154e-015 $485 6.2831853071795951 $327 $486 forward 7 unknown #
loop $-1 $-1 $334 $207 #
plane-surface $-1 59.607089465119032 -18.783115874462098 54.242715292267803 0 0.62932039886446345 0.77714595512881146 1 0 0 forward_v I I I I #
loop $-1 $-1 $487 $131 #
coedge $-1 $332 $332 $333 $488 reversed $208 $-1 #
coedge $-1 $333 $333 $332 $488 forward $210 $-1 #
coedge $-1 $334 $334 $211 $335 forward $329 $-1 #
edge $-1 $489 -5.6570218165486154e-015 $489 6.2831853071795951 $334 $490 forward 7 unknown #
face $-1 $491 $492 $70 $-1 $493 reversed single #
loop $-1 $-1 $494 $212 #
plane-surface $-1 -18.688542475580363 -116.00256256987217 113.25207069340782 1 0 0 0 0.6018150307709319 -0.79863550430605224 forward_v I I I I #
coedge $-1 $495 $496 $497 $498 reversed $213 $-1 #
coedge $-1 $341 $215 $499 $500 reversed $135 $-1 #
coedge $-1 $215 $340 $495 $501 reversed $135 $-1 #
coedge $-1 $497 $502 $215 $343 forward $503 $-1 #
edge $-1 $504 24.114595358504118 $505 37.997867219782485 $342 $506 forward 7 unknown #
loop $-1 $-1 $349 $216 #
plane-surface $-1 -9.3442712377901813 -33.886685926431952 4.2806239838467661 0 -0.6018150307709319 0.79863550430605224 1 0 0 forward_v I I I I #
loop $-1 $-1 $507 $137 #
coedge $-1 $347 $347 $348 $508 reversed $217 $-1 #
coedge $-1 $348 $348 $347 $508 forward $219 $-1 #
coedge $-1 $349 $349 $220 $350 forward $344 $-1 #
edge $-1 $509 -6.9924678859621399e-016 $509 6.2831853071795996 $349 $510 forward 7 unknown #
loop $-1 $-1 $356 $221 #
plane-surface $-1 -9.3442712377901813 -33.886685926431952 4.2806239838467661 0 -0.6018150307709319 0.79863550430605224 1 0 0 forward_v I I I I #
loop $-1 $-1 $511 $140 #
coedge $-1 $354 $354 $355 $512 reversed $222 $-1 #
coedge $-1 $355 $355 $354 $512 forward $224 $-1 #
coedge $-1 $356 $356 $225 $357 forward $351 $-1 #
edge $-1 $513 -6.9924678859621399e-016 $513 6.2831853071795996 $356 $514 forward 7 unknown #
face $-1 $515 $516 $73 $-1 $517 forward single #
loop $-1 $-1 $518 $226 #
plane-surface $-1 0 -33.886685926431966 0 0 1 0 0 0 1 forward_v I I I I #
coedge $-1 $519 $520 $521 $522 reversed $227 $-1 #
coedge $-1 $363 $229 $523 $524 reversed $144 $-1 #
coedge $-1 $229 $362 $525 $526 reversed $144 $-1 #
coedge $-1 $527 $518 $229 $365 forward $359 $-1 #
edge $-1 $528 -52.345411362857149 $529 -41.883615415460106 $364 $530 forward 7 unknown #
loop $-1 $-1 $371 $230 #
plane-surface $-1 -9.3442712377901813 -33.886685926431952 4.2806239838467661 0 -0.6018150307709319 0.79863550430605224 1 0 0 forward_v I I I I #
loop $-1 $-1 $531 $146 #
coedge $-1 $369 $369 $370 $532 reversed $231 $-1 #
coedge $-1 $370 $370 $369 $532 forward $233 $-1 #
coedge $-1 $371 $371 $234 $372 forward $366 $-1 #
edge $-1 $533 -6.9924678859621399e-016 $533 6.2831853071795996 $371 $534 forward 7 unknown #
loop $-1 $-1 $378 $235 #
plane-surface $-1 -9.3442712377901813 -33.886685926431952 4.2806239838467661 0 -0.6018150307709319 0.79863550430605224 1 0 0 forward_v I I I I #
loop $-1 $-1 $535 $149 #
coedge $-1 $376 $376 $377 $536 reversed $236 $-1 #
coedge $-1 $377 $377 $376 $536 forward $238 $-1 #
coedge $-1 $378 $378 $239 $379 forward $373 $-1 #
edge $-1 $537 -6.9924678859621399e-016 $537 6.2831853071795996 $378 $538 forward 7 unknown #
face $-1 $539 $540 $57 $-1 $541 reversed single #
loop $-1 $-1 $542 $240 #
plane-surface $-1 -68.223517563402197 0 0 1 0 0 0 0 -1 forward_v I I I I #
coedge $-1 $543 $391 $544 $545 forward $241 $-1 #
coedge $-1 $546 $243 $543 $547 forward $153 $-1 #
coedge $-1 $243 $546 $548 $549 forward $153 $-1 #
coedge $-1 $394 $393 $243 $387 reversed $395 $-1 #
edge $-1 $550 -33.886685926431966 $551 33.886685926431966 $386 $552 forward 7 unknown #
coedge $-1 $245 $244 $553 $554 forward $96 $-1 #
coedge $-1 $555 $556 $244 $390 reversed $540 $-1 #
edge $-1 $397 -68.223517563402197 $557 68.223517563402197 $389 $558 forward 7 unknown #
coedge $-1 $383 $559 $245 $392 reversed $241 $-1 #
edge $-1 $560 -68.223517563402197 $396 68.223517563402197 $391 $561 forward 7 unknown #
coedge $-1 $386 $246 $559 $562 forward $395 $-1 #
coedge $-1 $246 $386 $555 $563 reversed $395 $-1 #
loop $-1 $-1 $393 $539 #
vertex $-1 $247 $564 #
vertex $-1 $247 $565 #
straight-curve $-1 68.223517563402197 0 14.7424199312438 0 1 0 I I #
face $-1 $-1 $411 $58 $-1 $566 forward single #
loop $-1 $-1 $567 $248 #
plane-surface $-1 0 33.886685926431966 0 0 -1 0 0 0 -1 forward_v I I I I #
coedge $-1 $568 $569 $570 $571 reversed $249 $-1 #
coedge $-1 $572 $251 $253 $409 forward $157 $-1 #
coedge $-1 $251 $572 $568 $573 forward $157 $-1 #
coedge $-1 $570 $254 $251 $406 forward $411 $-1 #
edge $-1 $413 -29.980521538275298 $574 -12.747665341708966 $405 $575 forward 7 unknown #
coedge $-1 $576 $577 $252 $408 forward $400 $-1 #
edge $-1 $578 -68.549438479757498 $412 -65.398568433947545 $407 $579 forward 7 unknown #
edge $-1 $413 62.766589852001871 $578 67.77337185286396 $253 $580 forward 7 unknown #
coedge $-1 $254 $570 $576 $581 forward $411 $-1 #
loop $-1 $-1 $570 $399 #
vertex $-1 $408 $582 #
vertex $-1 $255 $583 #
straight-curve $-1 -51.34461497826743 33.542893347705949 14.742419931243802 0 -1 0 I I #
coedge $-1 $415 $415 $-1 $584 reversed $258 $-1 #
edge $-1 $585 0 $585 6.2831853071796004 $259 $586 forward 7 unknown #
vertex $-1 $262 $587 #
ellipse-curve $-1 -46.42094177924848 31.941185736341115 13.166984908338835 0 0.62932039886446345 0.77714595512881146 0.5 0 0 1 I I #
coedge $-1 $419 $419 $-1 $588 reversed $265 $-1 #
edge $-1 $589 0 $589 6.2831853071796004 $266 $590 forward 7 unknown #
vertex $-1 $269 $591 #
ellipse-curve $-1 -39.035431980720048 31.941185736341115 13.166984908338835 0 0.62932039886446345 0.77714595512881146 0.5 0 0 1 I I #
face $-1 $-1 $592 $61 $-1 $593 reversed single #
loop $-1 $-1 $276 $270 #
plane-surface $-1 0 0 14.7424199312438 0 0 1 1 0 0 forward_v I I I I #
coedge $-1 $594 $595 $596 $597 reversed $271 $-1 #
coedge $-1 $598 $273 $275 $433 forward $171 $-1 #
coedge $-1 $273 $598 $594 $599 forward $171 $-1 #
coedge $-1 $596 $276 $273 $430 forward $424 $-1 #
edge $-1 $436 -12.924642147424748 $600 4.3082140491415846 $429 $601 forward 7 unknown #
coedge $-1 $602 $603 $274 $432 forward $592 $-1 #
edge $-1 $604 -68.549438479757498 $435 -65.398568433947545 $431 $605 forward 7 unknown #
edge $-1 $436 62.766589852001871 $604 67.77337185286396 $275 $606 forward 7 unknown #
coedge $-1 $276 $596 $602 $607 forward $424 $-1 #
vertex $-1 $277 $608 #
vertex $-1 $277 $609 #
straight-curve $-1 -17.232856196566331 33.542893347705949 14.742419931243802 0 -1 0 I I #
coedge $-1 $438 $438 $-1 $610 reversed $280 $-1 #
edge $-1 $611 0 $611 6.2831853071796004 $281 $612 forward 7 unknown #
vertex $-1 $284 $613 #
ellipse-curve $-1 -12.309182997547381 31.941185736341115 13.166984908338835 0 0.62932039886446345 0.77714595512881146 0.5 0 0 1 I I #
coedge $-1 $442 $442 $-1 $614 reversed $287 $-1 #
edge $-1 $615 0 $615 6.2831853071796004 $288 $616 forward 7 unknown #
vertex $-1 $291 $617 #
ellipse-curve $-1 -4.9236731990189497 31.941185736341115 13.166984908338835 0 0.62932039886446345 0.77714595512881146 0.5 0 0 1 I I #
face $-1 $-1 $618 $64 $-1 $619 reversed single #
loop $-1 $-1 $298 $292 #
plane-surface $-1 0 0 14.7424199312438 0 0 1 1 0 0 forward_v I I I I #
coedge $-1 $620 $621 $622 $623 reversed $293 $-1 #
coedge $-1 $624 $295 $297 $456 forward $185 $-1 #
coedge $-1 $295 $624 $620 $625 forward $185 $-1 #
coedge $-1 $622 $298 $295 $453 forward $447 $-1 #
edge $-1 $459 4.1312372434258009 $626 21.364093439992132 $452 $627 forward 7 unknown #
coedge $-1 $628 $629 $296 $455 forward $618 $-1 #
edge $-1 $630 -68.549438479757498 $458 -65.398568433947545 $454 $631 forward 7 unknown #
edge $-1 $459 62.766589852001871 $630 67.77337185286396 $297 $632 forward 7 unknown #
coedge $-1 $298 $622 $628 $633 forward $447 $-1 #
vertex $-1 $299 $634 #
vertex $-1 $299 $635 #
straight-curve $-1 16.878902585134767 33.542893347705949 14.742419931243802 0 -1 0 I I #
coedge $-1 $461 $461 $-1 $636 reversed $302 $-1 #
edge $-1 $637 0 $637 6.2831853071796004 $303 $638 forward 7 unknown #
vertex $-1 $306 $639 #
ellipse-curve $-1 21.802575784153717 31.941185736341115 13.166984908338835 0 0.62932039886446345 0.77714595512881146 0.5 0 0 1 I I #
coedge $-1 $465 $465 $-1 $640 reversed $309 $-1 #
edge $-1 $641 0 $641 6.2831853071796004 $310 $642 forward 7 unknown #
vertex $-1 $313 $643 #
ellipse-curve $-1 29.188085582682149 31.941185736341115 13.166984908338835 0 0.62932039886446345 0.77714595512881146 0.5 0 0 1 I I #
face $-1 $-1 $644 $67 $-1 $645 reversed single #
loop $-1 $-1 $476 $314 #
plane-surface $-1 0 33.886685926431966 0 0 -1 0 0 0 -1 forward_v I I I I #
coedge $-1 $646 $317 $319 $478 forward $199 $-1 #
coedge $-1 $317 $646 $647 $648 reversed $199 $-1 #
coedge $-1 $649 $320 $317 $475 forward $315 $-1 #
edge $-1 $481 21.18711663427635 $650 38.419972830842681 $474 $651 forward 7 unknown #
coedge $-1 $652 $653 $318 $477 forward $470 $-1 #
edge $-1 $654 -68.549438479757498 $480 -65.398568433947545 $476 $655 forward 7 unknown #
edge $-1 $481 62.766589852001871 $654 67.77337185286396 $319 $656 forward 7 unknown #
coedge $-1 $320 $649 $652 $657 forward $315 $-1 #
vertex $-1 $321 $658 #
vertex $-1 $321 $659 #
straight-curve $-1 50.990661366835866 33.542893347705949 14.742419931243802 0 -1 0 I I #
coedge $-1 $483 $483 $-1 $660 reversed $324 $-1 #
edge $-1 $661 0 $661 6.2831853071796004 $325 $662 forward 7 unknown #
vertex $-1 $328 $663 #
ellipse-curve $-1 55.914334565854816 31.941185736341115 13.166984908338835 0 0.62932039886446345 0.77714595512881146 0.5 0 0 1 I I #
coedge $-1 $487 $487 $-1 $664 reversed $331 $-1 #
edge $-1 $665 0 $665 6.2831853071796004 $332 $666 forward 7 unknown #
vertex $-1 $335 $667 #
ellipse-curve $-1 63.299844364383262 31.941185736341115 13.166984908338835 0 0.62932039886446345 0.77714595512881146 0.5 0 0 1 I I #
face $-1 $-1 $503 $70 $-1 $668 forward single #
loop $-1 $-1 $669 $336 #
plane-surface $-1 0 -33.886685926431966 0 0 1 0 0 0 1 forward_v I I I I #
coedge $-1 $670 $671 $672 $673 reversed $337 $-1 #
coedge $-1 $674 $339 $341 $501 forward $213 $-1 #
coedge $-1 $339 $674 $670 $675 forward $213 $-1 #
coedge $-1 $672 $342 $339 $498 forward $503 $-1 #
edge $-1 $505 -4.6721356188950907 $676 14.016406856685272 $497 $677 forward 7 unknown #
coedge $-1 $678 $679 $340 $500 forward $492 $-1 #
edge $-1 $680 -52.345411362857149 $504 -41.883615415460106 $499 $681 forward 7 unknown #
edge $-1 $505 -17.383739874352017 $680 1.7763522597878294e-014 $341 $682 forward 7 unknown #
coedge $-1 $342 $672 $678 $683 forward $503 $-1 #
loop $-1 $-1 $672 $491 #
vertex $-1 $500 $684 #
vertex $-1 $343 $685 #
straight-curve $-1 0 -58.001281284936084 14.742419931243802 0 1 0 I I #
coedge $-1 $507 $507 $-1 $686 reversed $346 $-1 #
edge $-1 $687 0 $687 6.2831853071796004 $347 $688 forward 7 unknown #
vertex $-1 $350 $689 #
ellipse-curve $-1 -13.348958911128832 -26.945049995792786 9.511521957545277 0 -0.6018150307709319 0.79863550430605224 2 0 0 1 I I #
coedge $-1 $511 $511 $-1 $690 reversed $353 $-1 #
edge $-1 $691 0 $691 6.2831853071796004 $354 $692 forward 7 unknown #
vertex $-1 $357 $693 #
ellipse-curve $-1 -5.3395835644515302 -26.945049995792786 9.511521957545277 0 -0.6018150307709319 0.79863550430605224 2 0 0 1 I I #
face $-1 $-1 $694 $73 $-1 $695 forward single #
loop $-1 $-1 $696 $358 #
plane-surface $-1 0 -116.00256256987217 113.25207069340782 -1 0 0 0 -0.6018150307709319 0.79863550430605224 forward_v I I I I #
coedge $-1 $364 $697 $520 $698 forward $359 $-1 #
coedge $-1 $523 $361 $699 $700 reversed $227 $-1 #
coedge $-1 $361 $523 $518 $698 reversed $227 $-1 #
coedge $-1 $701 $696 $361 $522 forward $516 $-1 #
edge $-1 $702 -17.383739874352017 $703 1.7763522597878294e-014 $521 $704 forward 7 unknown #
coedge $-1 $520 $519 $362 $524 forward $227 $-1 #
edge $-1 $705 -17.383739874352017 $528 1.7763522597878294e-014 $362 $706 forward 7 unknown #
coedge $-1 $699 $707 $363 $526 forward $694 $-1 #
edge $-1 $529 24.114595358504118 $705 37.997867219782485 $525 $708 forward 7 unknown #
coedge $-1 $697 $364 $707 $709 reversed $359 $-1 #
vertex $-1 $365 $710 #
vertex $-1 $365 $711 #
straight-curve $-1 18.688542475580363 -33.886685926431966 56.626035346703908 0 0 1 I I #
coedge $-1 $531 $531 $-1 $712 reversed $368 $-1 #
edge $-1 $713 0 $713 6.2831853071796004 $369 $714 forward 7 unknown #
vertex $-1 $372 $715 #
ellipse-curve $-1 5.3395835644515302 -26.945049995792786 9.511521957545277 0 -0.6018150307709319 0.79863550430605224 2 0 0 1 I I #
coedge $-1 $535 $535 $-1 $716 reversed $375 $-1 #
edge $-1 $717 0 $717 6.2831853071796004 $376 $718 forward 7 unknown #
vertex $-1 $379 $719 #
ellipse-curve $-1 13.348958911128832 -26.945049995792786 9.511521957545277 0 -0.6018150307709319 0.79863550430605224 2 0 0 1 I I #
face $-1 $-1 $395 $57 $-1 $720 reversed single #
loop $-1 $-1 $555 $380 #
plane-surface $-1 0 33.886685926431966 0 0 -1 0 0 0 -1 forward_v I I I I #
coedge $-1 $721 $553 $556 $722 forward $381 $-1 #
coedge $-1 $559 $383 $384 $547 reversed $241 $-1 #
coedge $-1 $553 $721 $383 $545 reversed $381 $-1 #
edge $-1 $560 -14.7424199312438 $723 14.7424199312438 $544 $724 forward 7 unknown #
coedge $-1 $385 $384 $721 $725 forward $153 $-1 #
edge $-1 $551 -68.223517563402197 $723 68.223517563402197 $543 $726 forward 7 unknown #
coedge $-1 $556 $555 $385 $549 reversed $540 $-1 #
edge $-1 $727 -68.223517563402197 $550 68.223517563402197 $548 $728 forward 7 unknown #
vertex $-1 $387 $729 #
vertex $-1 $562 $730 #
straight-curve $-1 68.223517563402197 0 -14.7424199312438 0 -1 0 I I #
coedge $-1 $542 $544 $388 $554 reversed $381 $-1 #
edge $-1 $557 -33.886685926431966 $560 33.886685926431966 $553 $731 forward 7 unknown #
coedge $-1 $548 $389 $394 $563 forward $540 $-1 #
coedge $-1 $389 $548 $542 $722 reversed $540 $-1 #
vertex $-1 $390 $732 #
straight-curve $-1 0 33.886685926431966 14.7424199312438 -1 0 0 I I #
coedge $-1 $391 $543 $393 $562 reversed $241 $-1 #
vertex $-1 $554 $733 #
straight-curve $-1 0 -33.886685926431966 14.7424199312438 1 0 0 I I #
edge $-1 $396 -14.7424199312438 $551 14.7424199312438 $393 $734 forward 7 unknown #
edge $-1 $397 -14.7424199312438 $550 14.7424199312438 $394 $735 forward 7 unknown #
point $-1 68.223517563402197 -33.886685926431966 14.7424199312438 #
point $-1 68.223517563402197 33.886685926431966 14.7424199312438 #
plane-surface $-1 0 0 14.7424199312438 0 0 1 1 0 0 forward_v I I I I #
coedge $-1 $577 $576 $569 $736 forward $400 $-1 #
coedge $-1 $569 $402 $404 $573 reversed $249 $-1 #
coedge $-1 $402 $568 $567 $736 reversed $249 $-1 #
coedge $-1 $410 $405 $402 $571 forward $411 $-1 #
edge $-1 $574 -3.5472078014556843 $737 0.34379257872601698 $570 $738 forward 7 unknown #
coedge $-1 $404 $403 $577 $739 reversed $157 $-1 #
edge $-1 $740 -67.77337185286396 $574 -62.766589852001871 $568 $741 forward 7 unknown #
vertex $-1 $406 $742 #
straight-curve $-1 -21.364093439992132 29.995685546250261 14.742419931243802 1 0 0 I I #
coedge $-1 $567 $407 $410 $581 reversed $400 $-1 #
coedge $-1 $407 $567 $572 $739 forward $400 $-1 #
vertex $-1 $408 $743 #
straight-curve $-1 -51.34461497826743 33.886685926431966 80.140988365191347 0 0 1 I I #
straight-curve $-1 -51.34461497826743 -18.783115874462098 54.242715292267803 0 0.77714595512881146 -0.62932039886446345 I I #
edge $-1 $737 34.111758781701099 $412 51.34461497826743 $576 $744 forward 7 unknown #
point $-1 -51.34461497826743 33.886685926431966 14.7424199312438 #
point $-1 -51.34461497826743 29.995685546250265 14.742419931243802 #
edge $-1 $745 1 $745 0 $415 $-1 forward 7 unknown #
vertex $-1 $416 $746 #
ellipse-curve $-1 -46.42094177924848 31.311865337476657 12.389838953210031 0 0.62932039886446345 0.77714595512881146 0.5 0 0 1 I I #
point $-1 -45.92094177924848 31.941185736341119 13.166984908338843 #
edge $-1 $747 1 $747 0 $419 $-1 forward 7 unknown #
vertex $-1 $420 $748 #
ellipse-curve $-1 -39.035431980720048 31.311865337476657 12.389838953210031 0 0.62932039886446345 0.77714595512881146 0.5 0 0 1 I I #
point $-1 -38.535431980720048 31.941185736341119 13.166984908338843 #
loop $-1 $-1 $431 $423 #
plane-surface $-1 0 33.886685926431966 0 0 -1 0 0 0 -1 forward_v I I I I #
coedge $-1 $595 $426 $428 $599 reversed $271 $-1 #
coedge $-1 $426 $594 $749 $750 reversed $271 $-1 #
coedge $-1 $434 $429 $426 $597 forward $424 $-1 #
edge $-1 $600 -3.5472078014556843 $751 0.34379257872601698 $596 $752 forward 7 unknown #
coedge $-1 $428 $427 $603 $753 reversed $171 $-1 #
edge $-1 $754 -67.77337185286396 $600 -62.766589852001871 $594 $755 forward 7 unknown #
vertex $-1 $430 $756 #
straight-curve $-1 -4.3082140491415828 29.995685546250261 14.742419931243802 1 0 0 I I #
coedge $-1 $749 $431 $434 $607 reversed $592 $-1 #
coedge $-1 $431 $749 $598 $753 forward $592 $-1 #
vertex $-1 $432 $757 #
straight-curve $-1 -17.232856196566331 33.886685926431966 80.140988365191347 0 0 1 I I #
straight-curve $-1 -17.232856196566331 -18.783115874462098 54.242715292267803 0 0.77714595512881146 -0.62932039886446345 I I #
edge $-1 $751 -1.7763568394002505e-015 $435 17.232856196566331 $602 $758 forward 7 unknown #
point $-1 -17.232856196566331 33.886685926431966 14.7424199312438 #
point $-1 -17.232856196566331 29.995685546250265 14.742419931243802 #
edge $-1 $759 1 $759 0 $438 $-1 forward 7 unknown #
vertex $-1 $439 $760 #
ellipse-curve $-1 -12.309182997547381 31.311865337476657 12.389838953210031 0 0.62932039886446345 0.77714595512881146 0.5 0 0 1 I I #
point $-1 -11.809182997547381 31.941185736341119 13.166984908338843 #
edge $-1 $761 1 $761 0 $442 $-1 forward 7 unknown #
vertex $-1 $443 $762 #
ellipse-curve $-1 -4.9236731990189497 31.311865337476657 12.389838953210031 0 0.62932039886446345 0.77714595512881146 0.5 0 0 1 I I #
point $-1 -4.4236731990189497 31.941185736341119 13.166984908338843 #
loop $-1 $-1 $454 $446 #
plane-surface $-1 0 33.886685926431966 0 0 -1 0 0 0 -1 forward_v I I I I #
coedge $-1 $621 $449 $451 $625 reversed $293 $-1 #
coedge $-1 $449 $620 $763 $764 reversed $293 $-1 #
coedge $-1 $457 $452 $449 $623 forward $447 $-1 #
edge $-1 $626 -3.5472078014556843 $765 0.34379257872601698 $622 $766 forward 7 unknown #
coedge $-1 $451 $450 $629 $767 reversed $185 $-1 #
edge $-1 $768 -67.77337185286396 $626 -62.766589852001871 $620 $769 forward 7 unknown #
vertex $-1 $453 $770 #
straight-curve $-1 12.747665341708966 29.995685546250261 14.742419931243802 1 0 0 I I #
coedge $-1 $763 $454 $457 $633 reversed $618 $-1 #
coedge $-1 $454 $763 $624 $767 forward $618 $-1 #
vertex $-1 $455 $771 #
straight-curve $-1 16.878902585134767 33.886685926431966 80.140988365191347 0 0 1 I I #
straight-curve $-1 16.878902585134767 -18.783115874462098 54.242715292267803 0 0.77714595512881146 -0.62932039886446345 I I #
edge $-1 $765 -34.111758781701099 $458 -16.878902585134767 $628 $772 forward 7 unknown #
point $-1 16.878902585134767 33.886685926431966 14.7424199312438 #
point $-1 16.878902585134767 29.995685546250265 14.742419931243802 #
edge $-1 $773 1 $773 0 $461 $-1 forward 7 unknown #
vertex $-1 $462 $774 #
ellipse-curve $-1 21.802575784153717 31.311865337476657 12.389838953210031 0 0.62932039886446345 0.77714595512881146 0.5 0 0 1 I I #
point $-1 22.302575784153717 31.941185736341119 13.166984908338843 #
edge $-1 $775 1 $775 0 $465 $-1 forward 7 unknown #
vertex $-1 $466 $776 #
ellipse-curve $-1 29.188085582682149 31.311865337476657 12.389838953210031 0 0.62932039886446345 0.77714595512881146 0.5 0 0 1 I I #
point $-1 29.688085582682149 31.941185736341119 13.166984908338843 #
loop $-1 $-1 $647 $469 #
plane-surface $-1 68.223517563402197 0 0 -1 0 0 0 0 1 forward_v I I I I #
coedge $-1 $473 $472 $653 $777 reversed $199 $-1 #
coedge $-1 $778 $779 $473 $648 forward $644 $-1 #
edge $-1 $650 38.39995497711412 $780 43.406736977976209 $647 $781 forward 7 unknown #
coedge $-1 $479 $474 $779 $782 forward $315 $-1 #
vertex $-1 $782 $783 #
straight-curve $-1 29.803544732559516 29.995685546250261 14.742419931243802 1 0 0 I I #
coedge $-1 $784 $476 $479 $657 reversed $470 $-1 #
coedge $-1 $476 $784 $646 $777 forward $470 $-1 #
vertex $-1 $477 $785 #
straight-curve $-1 50.990661366835866 33.886685926431966 80.140988365191347 0 0 1 I I #
straight-curve $-1 50.990661366835866 -18.783115874462098 54.242715292267803 0 0.77714595512881146 -0.62932039886446345 I I #
edge $-1 $786 -68.223517563402197 $480 -50.990661366835866 $652 $787 forward 7 unknown #
point $-1 50.990661366835866 33.886685926431966 14.7424199312438 #
point $-1 50.990661366835866 29.995685546250265 14.742419931243802 #
edge $-1 $788 1 $788 0 $483 $-1 forward 7 unknown #
vertex $-1 $484 $789 #
ellipse-curve $-1 55.914334565854816 31.311865337476657 12.389838953210031 0 0.62932039886446345 0.77714595512881146 0.5 0 0 1 I I #
point $-1 56.414334565854816 31.941185736341119 13.166984908338843 #
edge $-1 $790 1 $790 0 $487 $-1 forward 7 unknown #
vertex $-1 $488 $791 #
ellipse-curve $-1 63.299844364383262 31.311865337476657 12.389838953210031 0 0.62932039886446345 0.77714595512881146 0.5 0 0 1 I I #
point $-1 63.799844364383262 31.941185736341119 13.166984908338843 #
plane-surface $-1 0 0 14.7424199312438 0 0 1 1 0 0 forward_v I I I I #
coedge $-1 $679 $678 $671 $792 forward $492 $-1 #
coedge $-1 $671 $494 $496 $675 reversed $337 $-1 #
coedge $-1 $494 $670 $669 $792 reversed $337 $-1 #
coedge $-1 $502 $497 $494 $673 forward $503 $-1 #
edge $-1 $676 -37.997867219782485 $793 -24.114595358504118 $672 $794 forward 7 unknown #
coedge $-1 $496 $495 $679 $795 reversed $213 $-1 #
edge $-1 $796 -1.7763522597878294e-014 $676 17.383739874352017 $670 $797 forward 7 unknown #
vertex $-1 $498 $798 #
straight-curve $-1 -4.6721356188950907 -20.003414065153603 14.7424199312438 -1 0 0 I I #
coedge $-1 $669 $499 $502 $683 reversed $492 $-1 #
coedge $-1 $499 $669 $674 $795 forward $492 $-1 #
vertex $-1 $500 $799 #
straight-curve $-1 0 -33.886685926431966 56.626035346703908 0 0 1 I I #
straight-curve $-1 0 -33.886685926431952 4.2806239838467661 0 -0.79863550430605224 -0.6018150307709319 I I #
edge $-1 $793 -18.688542475580363 $504 0 $678 $800 forward 7 unknown #
point $-1 0 -33.886685926431966 14.7424199312438 #
point $-1 0 -20.003414065153599 14.7424199312438 #
edge $-1 $801 1 $801 0 $507 $-1 forward 7 unknown #
vertex $-1 $508 $802 #
ellipse-curve $-1 -13.348958911128832 -23.662736455366915 5.1557448572448852 0 -0.6018150307709319 0.79863550430605224 2 0 0 1 I I #
point $-1 -11.348958911128832 -26.945049995792793 9.5115219575452841 #
edge $-1 $803 1 $803 0 $511 $-1 forward 7 unknown #
vertex $-1 $512 $804 #
ellipse-curve $-1 -5.3395835644515302 -23.662736455366915 5.1557448572448852 0 -0.6018150307709319 0.79863550430605224 2 0 0 1 I I #
point $-1 -3.3395835644515302 -26.945049995792793 9.5115219575452841 #
loop $-1 $-1 $699 $515 #
plane-surface $-1 0 0 14.7424199312438 0 0 1 1 0 0 forward_v I I I I #
coedge $-1 $521 $701 $805 $806 reversed $516 $-1 #
coedge $-1 $518 $527 $701 $807 forward $359 $-1 #
edge $-1 $703 4.6721356188950907 $528 23.360678094475453 $518 $808 forward 7 unknown #
coedge $-1 $805 $525 $519 $700 forward $694 $-1 #
edge $-1 $705 -23.360678094475453 $702 -4.6721356188950907 $699 $809 forward 7 unknown #
coedge $-1 $696 $521 $697 $807 reversed $516 $-1 #
vertex $-1 $700 $810 #
vertex $-1 $698 $811 #
straight-curve $-1 0 -33.886685926431952 4.2806239838467661 0 -0.79863550430605224 -0.6018150307709319 I I #
vertex $-1 $526 $812 #
straight-curve $-1 18.688542475580363 -33.886685926431952 4.2806239838467661 0 -0.79863550430605224 -0.6018150307709319 I I #
coedge $-1 $525 $805 $527 $709 forward $694 $-1 #
straight-curve $-1 18.688542475580363 -58.001281284936084 14.742419931243802 0 1 0 I I #
edge $-1 $813 0 $529 18.688542475580363 $527 $814 forward 7 unknown #
point $-1 18.688542475580363 -33.886685926431966 4.2806239838467555 #
point $-1 18.688542475580363 -33.886685926431966 14.7424199312438 #
edge $-1 $815 1 $815 0 $531 $-1 forward 7 unknown #
vertex $-1 $532 $816 #
ellipse-curve $-1 5.3395835644515302 -23.662736455366915 5.1557448572448852 0 -0.6018150307709319 0.79863550430605224 2 0 0 1 I I #
point $-1 7.3395835644515302 -26.945049995792793 9.5115219575452841 #
edge $-1 $817 1 $817 0 $535 $-1 forward 7 unknown #
vertex $-1 $536 $818 #
ellipse-curve $-1 13.348958911128832 -23.662736455366915 5.1557448572448852 0 -0.6018150307709319 0.79863550430605224 2 0 0 1 I I #
point $-1 15.348958911128832 -26.945049995792793 9.5115219575452841 #
plane-surface $-1 68.223517563402197 0 0 -1 0 0 0 0 1 forward_v I I I I #
coedge $-1 $544 $542 $546 $725 reversed $381 $-1 #
edge $-1 $557 -14.7424199312438 $727 14.7424199312438 $556 $819 forward 7 unknown #
vertex $-1 $725 $820 #
straight-curve $-1 -68.223517563402197 -33.886685926431966 0 0 0 -1 I I #
edge $-1 $723 -33.886685926431966 $727 33.886685926431966 $721 $821 forward 7 unknown #
straight-curve $-1 0 -33.886685926431966 -14.7424199312438 -1 0 0 I I #
vertex $-1 $549 $822 #
straight-curve $-1 0 33.886685926431966 -14.7424199312438 1 0 0 I I #
point $-1 68.223517563402197 33.886685926431966 -14.7424199312438 #
point $-1 68.223517563402197 -33.886685926431966 -14.7424199312438 #
straight-curve $-1 -68.223517563402197 0 14.7424199312438 0 -1 0 I I #
point $-1 -68.223517563402197 33.886685926431966 14.7424199312438 #
point $-1 -68.223517563402197 -33.886685926431966 14.7424199312438 #
straight-curve $-1 68.223517563402197 -33.886685926431966 0 0 0 -1 I I #
straight-curve $-1 68.223517563402197 33.886685926431966 0 0 0 -1 I I #
edge $-1 $737 65.398568433947545 $740 68.549438479757498 $567 $823 forward 7 unknown #
vertex $-1 $581 $824 #
straight-curve $-1 -34.111758781701099 33.542893347705949 14.742419931243802 0 1 0 I I #
edge $-1 $740 12.747665341708966 $578 29.980521538275298 $577 $825 forward 7 unknown #
vertex $-1 $739 $826 #
straight-curve $-1 -34.111758781701099 -18.783115874462098 54.242715292267803 0 -0.77714595512881146 0.62932039886446345 I I #
point $-1 -34.111758781701099 29.995685546250265 14.742419931243802 #
point $-1 -51.34461497826743 33.886685926431973 11.591549885433857 #
straight-curve $-1 0 33.886685926431966 14.7424199312438 -1 0 0 I I #
vertex $-1 $584 $827 #
point $-1 -45.92094177924848 31.311865337476657 12.389838953210031 #
vertex $-1 $588 $828 #
point $-1 -38.535431980720048 31.311865337476657 12.389838953210031 #
coedge $-1 $603 $602 $595 $750 forward $592 $-1 #
edge $-1 $751 65.398568433947545 $754 68.549438479757498 $749 $829 forward 7 unknown #
vertex $-1 $607 $830 #
straight-curve $-1 1.7763568394002505e-015 33.542893347705949 14.742419931243802 0 1 0 I I #
edge $-1 $754 -4.3082140491415846 $604 12.924642147424748 $603 $831 forward 7 unknown #
vertex $-1 $753 $832 #
straight-curve $-1 1.7763568394002505e-015 -18.783115874462098 54.242715292267803 0 -0.77714595512881146 0.62932039886446345 I I #
point $-1 1.7763568394002505e-015 29.995685546250265 14.742419931243802 #
point $-1 -17.232856196566331 33.886685926431973 11.591549885433857 #
straight-curve $-1 0 33.886685926431966 14.7424199312438 -1 0 0 I I #
vertex $-1 $610 $833 #
point $-1 -11.809182997547381 31.311865337476657 12.389838953210031 #
vertex $-1 $614 $834 #
point $-1 -4.4236731990189497 31.311865337476657 12.389838953210031 #
coedge $-1 $629 $628 $621 $764 forward $618 $-1 #
edge $-1 $765 65.398568433947545 $768 68.549438479757498 $763 $835 forward 7 unknown #
vertex $-1 $633 $836 #
straight-curve $-1 34.111758781701099 33.542893347705949 14.742419931243802 0 1 0 I I #
edge $-1 $768 -21.364093439992132 $630 -4.1312372434258009 $629 $837 forward 7 unknown #
vertex $-1 $767 $838 #
straight-curve $-1 34.111758781701099 -18.783115874462098 54.242715292267803 0 -0.77714595512881146 0.62932039886446345 I I #
point $-1 34.111758781701099 29.995685546250265 14.742419931243802 #
point $-1 16.878902585134767 33.886685926431973 11.591549885433857 #
straight-curve $-1 0 33.886685926431966 14.7424199312438 -1 0 0 I I #
vertex $-1 $636 $839 #
point $-1 22.302575784153717 31.311865337476657 12.389838953210031 #
vertex $-1 $640 $840 #
point $-1 29.688085582682149 31.311865337476657 12.389838953210031 #
edge $-1 $780 -38.419972830842681 $654 -21.18711663427635 $653 $841 forward 7 unknown #
coedge $-1 $779 $647 $784 $842 reversed $644 $-1 #
coedge $-1 $647 $778 $649 $782 reversed $644 $-1 #
vertex $-1 $648 $843 #
straight-curve $-1 68.223517563402197 0.15331585865754782 38.9082949138187 0 0.77714595512881146 -0.62932039886446345 I I #
edge $-1 $650 29.995685546250265 $786 33.886685926431966 $779 $844 forward 7 unknown #
point $-1 68.223517563402197 29.995685546250265 14.742419931243802 #
coedge $-1 $653 $652 $778 $842 forward $470 $-1 #
point $-1 50.990661366835866 33.886685926431973 11.591549885433857 #
vertex $-1 $782 $845 #
straight-curve $-1 0 33.886685926431966 14.7424199312438 -1 0 0 I I #
vertex $-1 $660 $846 #
point $-1 56.414334565854816 31.311865337476657 12.389838953210031 #
vertex $-1 $664 $847 #
point $-1 63.799844364383262 31.311865337476657 12.389838953210031 #
edge $-1 $793 41.883615415460106 $796 52.345411362857149 $669 $848 forward 7 unknown #
vertex $-1 $683 $849 #
straight-curve $-1 -18.688542475580363 -58.001281284936084 14.742419931243802 0 -1 0 I I #
edge $-1 $796 -14.016406856685272 $680 4.6721356188950907 $679 $850 forward 7 unknown #
vertex $-1 $795 $851 #
straight-curve $-1 -18.688542475580363 -33.886685926431952 4.2806239838467661 0 0.79863550430605224 0.6018150307709319 I I #
point $-1 -18.688542475580363 -20.003414065153599 14.7424199312438 #
point $-1 0 -33.886685926431966 4.2806239838467555 #
straight-curve $-1 0 -33.886685926431966 14.7424199312438 1 0 0 I I #
vertex $-1 $686 $852 #
point $-1 -11.348958911128832 -23.662736455366915 5.1557448572448852 #
vertex $-1 $690 $853 #
point $-1 -3.3395835644515302 -23.662736455366915 5.1557448572448852 #
coedge $-1 $707 $699 $696 $806 forward $694 $-1 #
edge $-1 $702 -37.997867219782485 $813 -24.114595358504118 $805 $854 forward 7 unknown #
edge $-1 $813 41.883615415460106 $703 52.345411362857149 $697 $855 forward 7 unknown #
straight-curve $-1 -4.6721356188950907 -33.886685926431966 4.2806239838467528 1 0 0 I I #
straight-curve $-1 -4.6721356188950907 -20.003414065153603 14.7424199312438 -1 0 0 I I #
point $-1 0 -20.003414065153599 14.7424199312438 #
point $-1 0 -33.886685926431966 4.2806239838467555 #
point $-1 18.688542475580363 -20.003414065153599 14.7424199312438 #
vertex $-1 $709 $856 #
straight-curve $-1 0 -33.886685926431966 14.7424199312438 1 0 0 I I #
vertex $-1 $712 $857 #
point $-1 7.3395835644515302 -23.662736455366915 5.1557448572448852 #
vertex $-1 $716 $858 #
point $-1 15.348958911128832 -23.662736455366915 5.1557448572448852 #
straight-curve $-1 -68.223517563402197 33.886685926431966 0 0 0 -1 I I #
point $-1 -68.223517563402197 -33.886685926431966 -14.7424199312438 #
straight-curve $-1 -68.223517563402197 0 -14.7424199312438 0 1 0 I I #
point $-1 -68.223517563402197 33.886685926431966 -14.7424199312438 #
straight-curve $-1 -34.111758781701099 33.886685926431966 80.140988365191347 0 0 -1 I I #
point $-1 -34.111758781701099 33.886685926431966 14.7424199312438 #
straight-curve $-1 -21.364093439992132 33.886685926431966 11.59154988543386 -1 0 0 I I #
point $-1 -34.111758781701099 33.886685926431973 11.591549885433857 #
point $-1 -46.42094177924848 30.997205138044425 12.001265975645627 #
point $-1 -39.035431980720048 30.997205138044425 12.001265975645627 #
straight-curve $-1 1.7763568394002505e-015 33.886685926431966 80.140988365191347 0 0 -1 I I #
point $-1 1.7763568394002505e-015 33.886685926431966 14.7424199312438 #
straight-curve $-1 -4.3082140491415828 33.886685926431966 11.59154988543386 -1 0 0 I I #
point $-1 1.7763568394002505e-015 33.886685926431973 11.591549885433857 #
point $-1 -12.309182997547381 30.997205138044425 12.001265975645627 #
point $-1 -4.9236731990189497 30.997205138044425 12.001265975645627 #
straight-curve $-1 34.111758781701099 33.886685926431966 80.140988365191347 0 0 -1 I I #
point $-1 34.111758781701099 33.886685926431966 14.7424199312438 #
straight-curve $-1 12.747665341708966 33.886685926431966 11.59154988543386 -1 0 0 I I #
point $-1 34.111758781701099 33.886685926431973 11.591549885433857 #
point $-1 21.802575784153717 30.997205138044425 12.001265975645627 #
point $-1 29.188085582682149 30.997205138044425 12.001265975645627 #
straight-curve $-1 29.803544732559516 33.886685926431966 11.59154988543386 -1 0 0 I I #
edge $-1 $786 -14.7424199312438 $780 -11.591549885433857 $778 $859 forward 7 unknown #
point $-1 68.223517563402197 33.886685926431973 11.591549885433857 #
straight-curve $-1 68.223517563402197 0 14.7424199312438 0 1 0 I I #
point $-1 68.223517563402197 33.886685926431966 14.7424199312438 #
point $-1 55.914334565854816 30.997205138044425 12.001265975645627 #
point $-1 63.299844364383262 30.997205138044425 12.001265975645627 #
straight-curve $-1 -18.688542475580363 -33.886685926431966 56.626035346703908 0 0 -1 I I #
point $-1 -18.688542475580363 -33.886685926431966 14.7424199312438 #
straight-curve $-1 -4.6721356188950907 -33.886685926431966 4.2806239838467528 1 0 0 I I #
point $-1 -18.688542475580363 -33.886685926431966 4.2806239838467555 #
point $-1 -13.348958911128832 -22.459106393825049 3.5584738486327812 #
point $-1 -5.3395835644515302 -22.459106393825049 3.5584738486327812 #
straight-curve $-1 0 -58.001281284936084 14.742419931243802 0 -1 0 I I #
straight-curve $-1 0 -33.886685926431966 56.626035346703908 0 0 -1 I I #
point $-1 0 -33.886685926431966 14.7424199312438 #
point $-1 5.3395835644515302 -22.459106393825049 3.5584738486327812 #
point $-1 13.348958911128832 -22.459106393825049 3.5584738486327812 #
straight-curve $-1 68.223517563402197 33.886685926431966 0 0 0 -1 I I #
End-of-ACIS-data 