500 0 13 0           
7 Unknown 11 ACIS 5.0 NT 24 Thu Mar 25 15:23:21 1999 
-1 9.9999999999999995e-007 1e-010 
body $-1 $13 $-1 $14 #
body $-1 $15 $-1 $16 #
body $-1 $17 $-1 $18 #
body $-1 $19 $-1 $20 #
body $-1 $21 $-1 $22 #
body $-1 $23 $-1 $24 #
body $-1 $25 $-1 $26 #
body $-1 $27 $-1 $28 #
body $-1 $29 $-1 $30 #
body $-1 $31 $-1 $32 #
body $-1 $33 $-1 $34 #
body $-1 $35 $-1 $36 #
body $-1 $37 $-1 $38 #
lump $-1 $-1 $39 $0 #
transform $-1 1 0 0 0 1 0 0 0 1 62.230903042695395 32.920255963666904 13.410832383355549 1 rotate no_reflect no_shear #
lump $-1 $-1 $40 $1 #
transform $-1 1 0 0 0 1 0 0 0 1 62.230903042695395 32.920255963666904 13.410832383355549 1 rotate no_reflect no_shear #
lump $-1 $-1 $41 $2 #
transform $-1 1 0 0 0 1 0 0 0 1 62.230903042695395 32.920255963666904 13.410832383355549 1 rotate no_reflect no_shear #
lump $-1 $-1 $42 $3 #
transform $-1 1 0 0 0 1 0 0 0 1 62.230903042695395 32.920255963666904 13.410832383355549 1 rotate no_reflect no_shear #
lump $-1 $-1 $43 $4 #
transform $-1 1 0 0 0 1 0 0 0 1 62.230903042695395 32.920255963666904 13.410832383355549 1 rotate no_reflect no_shear #
lump $-1 $-1 $44 $5 #
transform $-1 1 0 0 0 1 0 0 0 1 62.230903042695395 32.920255963666904 13.410832383355549 1 rotate no_reflect no_shear #
lump $-1 $-1 $45 $6 #
transform $-1 1 0 0 0 1 0 0 0 1 62.230903042695395 32.920255963666904 13.410832383355549 1 rotate no_reflect no_shear #
lump $-1 $-1 $46 $7 #
transform $-1 1 0 0 0 1 0 0 0 1 62.230903042695395 32.920255963666904 13.410832383355549 1 rotate no_reflect no_shear #
lump $-1 $-1 $47 $8 #
transform $-1 1 0 0 0 1 0 0 0 1 62.230903042695395 32.920255963666904 13.410832383355549 1 rotate no_reflect no_shear #
lump $-1 $-1 $48 $9 #
transform $-1 1 0 0 0 1 0 0 0 1 62.230903042695395 32.920255963666904 13.410832383355549 1 rotate no_reflect no_shear #
lump $-1 $-1 $49 $10 #
transform $-1 1 0 0 0 1 0 0 0 1 62.230903042695395 32.920255963666904 13.410832383355549 1 rotate no_reflect no_shear #
lump $-1 $-1 $50 $11 #
transform $-1 1 0 0 0 1 0 0 0 1 62.230903042695395 32.920255963666904 13.410832383355549 1 rotate no_reflect no_shear #
lump $-1 $-1 $51 $12 #
transform $-1 1 0 0 0 1 0 0 0 1 62.230903042695395 32.920255963666904 13.410832383355549 1 rotate no_reflect no_shear #
shell $-1 $-1 $-1 $52 $-1 $13 #
shell $-1 $-1 $-1 $53 $-1 $15 #
shell $-1 $-1 $-1 $54 $-1 $17 #
shell $-1 $-1 $-1 $55 $-1 $19 #
shell $-1 $-1 $-1 $56 $-1 $21 #
shell $-1 $-1 $-1 $57 $-1 $23 #
shell $-1 $-1 $-1 $58 $-1 $25 #
shell $-1 $-1 $-1 $59 $-1 $27 #
shell $-1 $-1 $-1 $60 $-1 $29 #
shell $-1 $-1 $-1 $61 $-1 $31 #
shell $-1 $-1 $-1 $62 $-1 $33 #
shell $-1 $-1 $-1 $63 $-1 $35 #
shell $-1 $-1 $-1 $64 $-1 $37 #
face $-1 $65 $66 $39 $-1 $67 forward single #
face $-1 $68 $69 $40 $-1 $70 forward single #
face $-1 $71 $72 $41 $-1 $73 forward single #
face $-1 $74 $75 $42 $-1 $76 reversed single #
face $-1 $77 $78 $43 $-1 $79 forward single #
face $-1 $80 $81 $44 $-1 $82 forward single #
face $-1 $83 $84 $45 $-1 $85 reversed single #
face $-1 $86 $87 $46 $-1 $88 forward single #
face $-1 $89 $90 $47 $-1 $91 forward single #
face $-1 $92 $93 $48 $-1 $94 reversed single #
face $-1 $95 $96 $49 $-1 $97 forward single #
face $-1 $98 $99 $50 $-1 $100 reversed single #
face $-1 $101 $102 $51 $-1 $103 forward single #
face $-1 $104 $105 $39 $-1 $106 reversed single #
loop $-1 $-1 $107 $52 #
plane-surface $-1 0 0 13.410832383355549 0 0 1 1 0 0 forward_v I I I I #
face $-1 $108 $109 $40 $-1 $110 reversed single #
loop $-1 $-1 $111 $53 #
plane-surface $-1 0 -27.717940042926848 -9.036544400115476 0 0 1 1 0 0 forward_v I I I I #
face $-1 $112 $113 $41 $-1 $114 reversed single #
loop $-1 $-1 $115 $54 #
plane-surface $-1 0 27.717940042926848 -9.036544400115476 0 0 1 1 0 0 forward_v I I I I #
face $-1 $116 $117 $42 $-1 $118 reversed single #
loop $-1 $-1 $119 $55 #
plane-surface $-1 -138.85724315985547 1.7763568394002505e-015 106.75934192621877 0 -1 0 0.61566148304635926 0 -0.78801074757464917 forward_v I I I I #
face $-1 $120 $121 $43 $-1 $122 forward single #
loop $-1 $123 $124 $56 #
cone-surface $-1 -58.666313305645893 -7.6772780257971789 10.357423269437868 0.61566148304635926 0 -0.78801074757464917 0.39400537378732459 0 0.30783074152317963 1 I I 0 1 0.5 forward I I I I #
face $-1 $125 $126 $44 $-1 $127 forward single #
loop $-1 $128 $129 $57 #
cone-surface $-1 -58.666313305645893 -3.0709112103188723 10.357423269437868 0.61566148304635926 0 -0.78801074757464917 0.39400537378732459 0 0.30783074152317963 1 I I 0 1 0.5 forward I I I I #
face $-1 $130 $131 $45 $-1 $132 reversed single #
loop $-1 $-1 $133 $58 #
plane-surface $-1 -62.230903042695402 -5.3740946180580238 8.6821010683789552 -0.61566148304635926 0 0.78801074757464917 0.78801074757464917 0 0.61566148304635926 forward_v I I I I #
face $-1 $134 $135 $46 $-1 $136 forward single #
loop $-1 $137 $138 $59 #
cone-surface $-1 -58.666313305645893 3.0709112103188758 10.357423269437868 0.61566148304635926 0 -0.78801074757464917 0.39400537378732459 0 0.30783074152317963 1 I I 0 1 0.5 forward I I I I #
face $-1 $139 $140 $47 $-1 $141 forward single #
loop $-1 $142 $143 $60 #
cone-surface $-1 -58.666313305645893 7.6772780257971789 10.357423269437868 0.61566148304635926 0 -0.78801074757464917 0.39400537378732459 0 0.30783074152317963 1 I I 0 1 0.5 forward I I I I #
face $-1 $144 $145 $48 $-1 $146 reversed single #
loop $-1 $-1 $147 $61 #
plane-surface $-1 37.734271431932463 -4.24423840371918 175.01811532028191 0 -1 0 -0.6018150307709319 0 -0.79863550430605224 forward_v I I I I #
face $-1 $148 $149 $49 $-1 $150 forward single #
loop $-1 $151 $152 $62 #
cone-surface $-1 51.530195495540852 -9.2718986139919153 4.0413873651081671 -0.6018150307709319 0 -0.79863550430605224 1.9965887607651305 0 -1.5045375769273297 1 I I 0 1 2.5 forward I I I I #
face $-1 $153 $154 $50 $-1 $155 reversed single #
loop $-1 $-1 $156 $63 #
plane-surface $-1 37.734271431932463 18.271385718467613 175.01811532028191 0 -1 0 -0.6018150307709319 0 -0.79863550430605224 forward_v I I I I #
face $-1 $157 $158 $51 $-1 $159 forward single #
loop $-1 $160 $161 $64 #
cone-surface $-1 51.530195495540852 13.243725508194878 4.0413873651081671 -0.6018150307709319 0 -0.79863550430605224 1.9965887607651305 0 -1.5045375769273297 1 I I 0 1 2.5 forward I I I I #
face $-1 $162 $163 $39 $-1 $164 reversed single #
loop $-1 $-1 $165 $65 #
plane-surface $-1 0 0 -13.410832383355549 0 0 1 1 0 0 forward_v I I I I #
coedge $-1 $166 $167 $168 $169 forward $66 $-1 #
face $-1 $170 $171 $40 $-1 $172 reversed single #
loop $-1 $-1 $173 $68 #
plane-surface $-1 0 -22.515624122186793 -11.223688391735513 0 -1 0 0 0 -1 forward_v I I I I #
coedge $-1 $174 $175 $176 $177 reversed $69 $-1 #
face $-1 $178 $179 $41 $-1 $180 reversed single #
loop $-1 $-1 $181 $71 #
plane-surface $-1 0 22.515624122186793 -11.223688391735513 0 1 0 0 0 1 forward_v I I I I #
coedge $-1 $182 $183 $184 $185 reversed $72 $-1 #
face $-1 $186 $187 $42 $-1 $188 reversed single #
loop $-1 $-1 $189 $74 #
plane-surface $-1 -62.230903042695402 -5.3740946180580238 8.6821010683789552 -0.61566148304635926 0 0.78801074757464917 0.78801074757464917 0 0.61566148304635926 forward_v I I I I #
coedge $-1 $190 $191 $192 $193 reversed $75 $-1 #
face $-1 $-1 $194 $43 $-1 $195 forward single #
loop $-1 $196 $197 $77 #
cone-surface $-1 -57.974058175465572 -7.6772780257971789 9.4713771261148114 0.61566148304635926 0 -0.78801074757464917 0.19700268689366229 0 0.15391537076158981 1 I I -0.70710678118654746 0.70710678118654746 0.25 forward I I I I #
loop $-1 $-1 $198 $56 #
coedge $-1 $124 $124 $199 $200 reversed $78 $-1 #
face $-1 $-1 $201 $44 $-1 $202 forward single #
loop $-1 $203 $204 $80 #
cone-surface $-1 -57.974058175465572 -3.0709112103188723 9.4713771261148114 0.61566148304635926 0 -0.78801074757464917 0.19700268689366229 0 0.15391537076158981 1 I I -0.70710678118654746 0.70710678118654746 0.25 forward I I I I #
loop $-1 $-1 $205 $57 #
coedge $-1 $129 $129 $206 $207 reversed $81 $-1 #
face $-1 $208 $209 $45 $-1 $210 reversed single #
loop $-1 $-1 $211 $83 #
plane-surface $-1 -138.85724315985547 10.748189236116056 106.75934192621877 0 -1 0 0.61566148304635926 0 -0.78801074757464917 forward_v I I I I #
coedge $-1 $212 $213 $214 $215 reversed $84 $-1 #
face $-1 $-1 $216 $46 $-1 $217 forward single #
loop $-1 $218 $219 $86 #
cone-surface $-1 -57.974058175465572 3.0709112103188758 9.4713771261148114 0.61566148304635926 0 -0.78801074757464917 0.19700268689366229 0 0.15391537076158981 1 I I -0.70710678118654746 0.70710678118654746 0.25 forward I I I I #
loop $-1 $-1 $220 $59 #
coedge $-1 $138 $138 $221 $222 reversed $87 $-1 #
face $-1 $-1 $223 $47 $-1 $224 forward single #
loop $-1 $225 $226 $89 #
cone-surface $-1 -57.974058175465572 7.6772780257971789 9.4713771261148114 0.61566148304635926 0 -0.78801074757464917 0.19700268689366229 0 0.15391537076158981 1 I I -0.70710678118654746 0.70710678118654746 0.25 forward I I I I #
loop $-1 $-1 $227 $60 #
coedge $-1 $143 $143 $228 $229 reversed $90 $-1 #
face $-1 $230 $231 $48 $-1 $232 reversed single #
loop $-1 $-1 $233 $92 #
plane-surface $-1 -37.168714227152755 -9.2718986139919153 75.618498050433757 0.6018150307709319 0 0.79863550430605224 0.79863550430605224 0 -0.6018150307709319 forward_v I I I I #
coedge $-1 $234 $235 $236 $237 reversed $93 $-1 #
face $-1 $-1 $238 $49 $-1 $239 forward single #
loop $-1 $240 $241 $95 #
cone-surface $-1 48.500848319828428 -9.2718986139919153 0.021307962481747822 -0.6018150307709319 0 -0.79863550430605224 0.99829438038256524 0 -0.75226878846366485 1 I I -0.70710678118654746 0.70710678118654746 1.25 forward I I I I #
loop $-1 $-1 $242 $62 #
coedge $-1 $152 $152 $243 $244 reversed $96 $-1 #
face $-1 $245 $246 $50 $-1 $247 reversed single #
loop $-1 $-1 $248 $98 #
plane-surface $-1 -37.168714227152755 13.243725508194878 75.618498050433757 0.6018150307709319 0 0.79863550430605224 0.79863550430605224 0 -0.6018150307709319 forward_v I I I I #
coedge $-1 $249 $250 $251 $252 reversed $99 $-1 #
face $-1 $-1 $253 $51 $-1 $254 forward single #
loop $-1 $255 $256 $101 #
cone-surface $-1 48.500848319828428 13.243725508194878 0.021307962481747822 -0.6018150307709319 0 -0.79863550430605224 0.99829438038256524 0 -0.75226878846366485 1 I I -0.70710678118654746 0.70710678118654746 1.25 forward I I I I #
loop $-1 $-1 $257 $64 #
coedge $-1 $161 $161 $258 $259 reversed $102 $-1 #
face $-1 $260 $261 $39 $-1 $262 reversed single #
loop $-1 $-1 $263 $104 #
plane-surface $-1 0 -32.920255963666904 0 0 1 0 0 0 1 forward_v I I I I #
coedge $-1 $264 $265 $266 $267 forward $105 $-1 #
coedge $-1 $268 $107 $269 $270 forward $66 $-1 #
coedge $-1 $107 $268 $271 $272 forward $66 $-1 #
coedge $-1 $273 $274 $107 $169 reversed $275 $-1 #
edge $-1 $276 -32.920255963666904 $277 32.920255963666904 $168 $278 forward 7 unknown #
face $-1 $279 $280 $40 $-1 $281 reversed single #
loop $-1 $-1 $282 $108 #
plane-surface $-1 0 0 -13.410832383355549 0 0 1 1 0 0 forward_v I I I I #
coedge $-1 $283 $284 $285 $286 reversed $109 $-1 #
coedge $-1 $287 $111 $284 $288 forward $69 $-1 #
coedge $-1 $111 $287 $289 $290 reversed $69 $-1 #
coedge $-1 $291 $285 $111 $177 forward $280 $-1 #
edge $-1 $292 8.6566541007233688 $293 19.061285942203479 $176 $294 forward 7 unknown #
face $-1 $295 $296 $41 $-1 $297 reversed single #
loop $-1 $-1 $184 $112 #
plane-surface $-1 62.230903042695395 0 0 -1 0 0 0 0 1 forward_v I I I I #
coedge $-1 $298 $299 $300 $301 reversed $113 $-1 #
coedge $-1 $302 $115 $303 $304 reversed $72 $-1 #
coedge $-1 $115 $302 $299 $305 forward $72 $-1 #
coedge $-1 $306 $307 $115 $185 forward $179 $-1 #
edge $-1 $308 -19.061285942203479 $309 -8.6566541007233688 $184 $310 forward 7 unknown #
face $-1 $311 $312 $42 $-1 $313 reversed single #
loop $-1 $-1 $314 $116 #
plane-surface $-1 -138.85724315985547 -10.748189236116049 106.75934192621877 0 1 0 -0.61566148304635926 0 0.78801074757464917 forward_v I I I I #
coedge $-1 $315 $316 $317 $318 reversed $117 $-1 #
coedge $-1 $191 $119 $319 $320 reversed $75 $-1 #
coedge $-1 $119 $190 $315 $321 reversed $75 $-1 #
coedge $-1 $317 $322 $119 $193 forward $312 $-1 #
edge $-1 $323 39.968838579753836 $324 44.697569894730421 $192 $325 forward 7 unknown #
loop $-1 $-1 $199 $120 #
plane-surface $-1 -62.230903042695402 -5.3740946180580238 8.6821010683789552 -0.61566148304635926 0 0.78801074757464917 0.78801074757464917 0 0.61566148304635926 forward_v I I I I #
loop $-1 $-1 $326 $77 #
coedge $-1 $197 $197 $198 $327 reversed $121 $-1 #
coedge $-1 $198 $198 $197 $327 forward $123 $-1 #
coedge $-1 $199 $199 $124 $200 forward $194 $-1 #
edge $-1 $328 0 $328 6.2831853071796004 $199 $329 forward 7 unknown #
loop $-1 $-1 $206 $125 #
plane-surface $-1 -62.230903042695402 -5.3740946180580238 8.6821010683789552 -0.61566148304635926 0 0.78801074757464917 0.78801074757464917 0 0.61566148304635926 forward_v I I I I #
loop $-1 $-1 $330 $80 #
coedge $-1 $204 $204 $205 $331 reversed $126 $-1 #
coedge $-1 $205 $205 $204 $331 forward $128 $-1 #
coedge $-1 $206 $206 $129 $207 forward $201 $-1 #
edge $-1 $332 0 $332 6.2831853071796004 $206 $333 forward 7 unknown #
face $-1 $334 $335 $45 $-1 $336 forward single #
loop $-1 $-1 $337 $130 #
plane-surface $-1 -62.230903042695395 0 0 1 0 0 0 0 -1 forward_v I I I I #
coedge $-1 $338 $339 $340 $341 reversed $131 $-1 #
coedge $-1 $342 $133 $343 $344 reversed $84 $-1 #
coedge $-1 $133 $342 $345 $346 reversed $84 $-1 #
coedge $-1 $347 $348 $133 $215 forward $335 $-1 #
edge $-1 $349 8.8800565823946346e-015 $350 7.6807327487474488 $214 $351 forward 7 unknown #
loop $-1 $-1 $221 $134 #
plane-surface $-1 -62.230903042695402 -5.3740946180580238 8.6821010683789552 -0.61566148304635926 0 0.78801074757464917 0.78801074757464917 0 0.61566148304635926 forward_v I I I I #
loop $-1 $-1 $352 $86 #
coedge $-1 $219 $219 $220 $353 reversed $135 $-1 #
coedge $-1 $220 $220 $219 $353 forward $137 $-1 #
coedge $-1 $221 $221 $138 $222 forward $216 $-1 #
edge $-1 $354 0 $354 6.2831853071796004 $221 $355 forward 7 unknown #
loop $-1 $-1 $228 $139 #
plane-surface $-1 -62.230903042695402 -5.3740946180580238 8.6821010683789552 -0.61566148304635926 0 0.78801074757464917 0.78801074757464917 0 0.61566148304635926 forward_v I I I I #
loop $-1 $-1 $356 $89 #
coedge $-1 $226 $226 $227 $357 reversed $140 $-1 #
coedge $-1 $227 $227 $226 $357 forward $142 $-1 #
coedge $-1 $228 $228 $143 $229 forward $223 $-1 #
edge $-1 $358 0 $358 6.2831853071796004 $228 $359 forward 7 unknown #
face $-1 $360 $361 $48 $-1 $362 forward single #
loop $-1 $-1 $363 $144 #
plane-surface $-1 37.734271431932463 -14.299558824264651 175.01811532028191 0 1 0 0.6018150307709319 0 0.79863550430605224 forward_v I I I I #
coedge $-1 $364 $365 $366 $367 reversed $145 $-1 #
coedge $-1 $235 $147 $368 $369 reversed $93 $-1 #
coedge $-1 $147 $234 $364 $370 reversed $93 $-1 #
coedge $-1 $366 $371 $147 $237 forward $361 $-1 #
edge $-1 $372 -43.36376732672916 $373 -26.516509006917619 $236 $374 forward 7 unknown #
loop $-1 $-1 $243 $148 #
plane-surface $-1 -37.168714227152755 -9.2718986139919153 75.618498050433757 0.6018150307709319 0 0.79863550430605224 0.79863550430605224 0 -0.6018150307709319 forward_v I I I I #
loop $-1 $-1 $375 $95 #
coedge $-1 $241 $241 $242 $376 reversed $149 $-1 #
coedge $-1 $242 $242 $241 $376 forward $151 $-1 #
coedge $-1 $243 $243 $152 $244 forward $238 $-1 #
edge $-1 $377 0 $377 6.2831853071796004 $243 $378 forward 7 unknown #
face $-1 $379 $380 $50 $-1 $381 reversed single #
loop $-1 $-1 $382 $153 #
plane-surface $-1 37.734271431932463 8.2160652979221425 175.01811532028191 0 1 0 0.6018150307709319 0 0.79863550430605224 forward_v I I I I #
coedge $-1 $383 $384 $385 $386 reversed $154 $-1 #
coedge $-1 $250 $156 $387 $388 reversed $99 $-1 #
coedge $-1 $156 $249 $383 $389 reversed $99 $-1 #
coedge $-1 $385 $390 $156 $252 forward $391 $-1 #
edge $-1 $392 -43.36376732672916 $393 -26.516509006917619 $251 $394 forward 7 unknown #
loop $-1 $-1 $258 $157 #
plane-surface $-1 -37.168714227152755 13.243725508194878 75.618498050433757 0.6018150307709319 0 0.79863550430605224 0.79863550430605224 0 -0.6018150307709319 forward_v I I I I #
loop $-1 $-1 $395 $101 #
coedge $-1 $256 $256 $257 $396 reversed $158 $-1 #
coedge $-1 $257 $257 $256 $396 forward $160 $-1 #
coedge $-1 $258 $258 $161 $259 forward $253 $-1 #
edge $-1 $397 0 $397 6.2831853071796004 $258 $398 forward 7 unknown #
face $-1 $399 $400 $39 $-1 $401 reversed single #
loop $-1 $-1 $402 $162 #
plane-surface $-1 -62.230903042695395 0 0 1 0 0 0 0 -1 forward_v I I I I #
coedge $-1 $403 $271 $404 $405 forward $163 $-1 #
coedge $-1 $406 $165 $403 $407 forward $105 $-1 #
coedge $-1 $165 $406 $408 $409 forward $105 $-1 #
coedge $-1 $274 $273 $165 $267 reversed $275 $-1 #
edge $-1 $410 -32.920255963666904 $411 32.920255963666904 $266 $412 forward 7 unknown #
coedge $-1 $167 $166 $413 $414 forward $66 $-1 #
coedge $-1 $415 $416 $166 $270 reversed $400 $-1 #
edge $-1 $277 -62.230903042695395 $417 62.230903042695395 $269 $418 forward 7 unknown #
coedge $-1 $263 $419 $167 $272 reversed $163 $-1 #
edge $-1 $420 -62.230903042695395 $276 62.230903042695395 $271 $421 forward 7 unknown #
coedge $-1 $266 $168 $419 $422 forward $275 $-1 #
coedge $-1 $168 $266 $415 $423 reversed $275 $-1 #
loop $-1 $-1 $273 $399 #
vertex $-1 $169 $424 #
vertex $-1 $169 $425 #
straight-curve $-1 62.230903042695395 0 13.410832383355549 0 1 0 I I #
face $-1 $426 $427 $40 $-1 $428 reversed single #
loop $-1 $-1 $285 $170 #
plane-surface $-1 62.230903042695395 0 0 -1 0 0 0 0 1 forward_v I I I I #
coedge $-1 $429 $430 $283 $431 forward $171 $-1 #
coedge $-1 $432 $173 $282 $431 reversed $109 $-1 #
coedge $-1 $173 $432 $174 $288 reversed $109 $-1 #
coedge $-1 $176 $433 $173 $286 forward $280 $-1 #
edge $-1 $434 -7.7989881874877929 $292 -3.4247002042477197 $285 $435 forward 7 unknown #
coedge $-1 $175 $174 $436 $437 reversed $69 $-1 #
edge $-1 $292 -62.230903042695395 $438 62.230903042695395 $284 $439 forward 7 unknown #
coedge $-1 $440 $441 $175 $290 forward $427 $-1 #
edge $-1 $293 -62.230903042695395 $442 62.230903042695395 $289 $443 forward 7 unknown #
coedge $-1 $433 $176 $441 $444 forward $280 $-1 #
vertex $-1 $177 $445 #
vertex $-1 $444 $446 #
straight-curve $-1 62.230903042695395 -13.858970021463424 -9.036544400115476 0 -1 0 I I #
face $-1 $447 $448 $41 $-1 $449 reversed single #
loop $-1 $-1 $450 $178 #
plane-surface $-1 0 0 -13.410832383355549 0 0 1 1 0 0 forward_v I I I I #
coedge $-1 $451 $181 $450 $452 reversed $113 $-1 #
coedge $-1 $181 $451 $183 $305 reversed $113 $-1 #
coedge $-1 $453 $454 $181 $301 forward $448 $-1 #
edge $-1 $455 -7.7989881874877929 $456 -3.4247002042477197 $300 $457 forward 7 unknown #
coedge $-1 $183 $182 $453 $458 reversed $72 $-1 #
coedge $-1 $459 $460 $182 $304 forward $461 $-1 #
edge $-1 $462 -62.230903042695395 $308 62.230903042695395 $303 $463 forward 7 unknown #
edge $-1 $456 -62.230903042695395 $309 62.230903042695395 $299 $464 forward 7 unknown #
coedge $-1 $465 $184 $451 $466 forward $179 $-1 #
coedge $-1 $184 $465 $459 $467 reversed $179 $-1 #
vertex $-1 $467 $468 #
vertex $-1 $185 $469 #
straight-curve $-1 62.230903042695395 13.858970021463424 -9.036544400115476 0 -1 0 I I #
face $-1 $-1 $470 $42 $-1 $471 forward single #
loop $-1 $-1 $192 $186 #
plane-surface $-1 -62.230903042695395 0 0 1 0 0 0 0 -1 forward_v I I I I #
coedge $-1 $472 $473 $474 $475 reversed $187 $-1 #
coedge $-1 $476 $189 $191 $321 forward $117 $-1 #
coedge $-1 $189 $476 $472 $477 forward $117 $-1 #
coedge $-1 $474 $192 $189 $318 forward $312 $-1 #
edge $-1 $324 -2.6870473090290137 $478 8.0611419270870375 $317 $479 forward 7 unknown #
coedge $-1 $480 $481 $190 $320 forward $470 $-1 #
edge $-1 $482 -13.2502184924939 $323 -7.1977185372323405 $319 $483 forward 7 unknown #
edge $-1 $324 8.8800565823946346e-015 $482 7.6807327487474488 $191 $484 forward 7 unknown #
coedge $-1 $192 $474 $480 $485 reversed $312 $-1 #
vertex $-1 $485 $486 #
vertex $-1 $193 $487 #
straight-curve $-1 -62.230903042695395 1.7763568394002505e-015 53.379670963109383 0 0 -1 I I #
coedge $-1 $326 $326 $-1 $488 reversed $196 $-1 #
edge $-1 $489 0 $489 6.2831853071796004 $197 $490 forward 7 unknown #
vertex $-1 $200 $491 #
ellipse-curve $-1 -59.204653065064619 -7.6772780257971789 11.046466725867253 -0.61566148304635926 0 0.78801074757464917 0.39400537378732459 0 0.30783074152317963 1 I I #
coedge $-1 $330 $330 $-1 $492 reversed $203 $-1 #
edge $-1 $493 0 $493 6.2831853071796004 $204 $494 forward 7 unknown #
vertex $-1 $207 $495 #
ellipse-curve $-1 -59.204653065064619 -3.0709112103188723 11.046466725867253 -0.61566148304635926 0 0.78801074757464917 0.39400537378732459 0 0.30783074152317963 1 I I #
face $-1 $-1 $496 $45 $-1 $497 forward single #
loop $-1 $-1 $348 $208 #
plane-surface $-1 -138.85724315985547 1.7763568394002505e-015 106.75934192621877 0 -1 0 0.61566148304635926 0 -0.78801074757464917 forward_v I I I I #
coedge $-1 $343 $498 $339 $499 forward $209 $-1 #
coedge $-1 $339 $211 $342 $500 reversed $131 $-1 #
coedge $-1 $211 $338 $337 $499 reversed $131 $-1 #
coedge $-1 $501 $345 $211 $341 forward $496 $-1 #
edge $-1 $502 -13.2502184924939 $503 -7.1977185372323405 $340 $504 forward 7 unknown #
coedge $-1 $213 $212 $338 $500 forward $84 $-1 #
coedge $-1 $505 $337 $212 $344 forward $209 $-1 #
edge $-1 $506 -13.435236545145068 $349 -2.6870473090290137 $343 $507 forward 7 unknown #
coedge $-1 $340 $508 $213 $346 forward $496 $-1 #
edge $-1 $350 2.6870473090290137 $502 13.435236545145068 $345 $509 forward 7 unknown #
coedge $-1 $348 $214 $508 $510 reversed $335 $-1 #
coedge $-1 $214 $347 $505 $511 reversed $335 $-1 #
vertex $-1 $344 $512 #
vertex $-1 $346 $513 #
straight-curve $-1 -62.230903042695402 1.7763568394002505e-015 8.6821010683789552 0.78801074757464917 0 0.61566148304635926 I I #
coedge $-1 $352 $352 $-1 $514 reversed $218 $-1 #
edge $-1 $515 0 $515 6.2831853071796004 $219 $516 forward 7 unknown #
vertex $-1 $222 $517 #
ellipse-curve $-1 -59.204653065064619 3.0709112103188758 11.046466725867253 -0.61566148304635926 0 0.78801074757464917 0.39400537378732459 0 0.30783074152317963 1 I I #
coedge $-1 $356 $356 $-1 $518 reversed $225 $-1 #
edge $-1 $519 0 $519 6.2831853071796004 $226 $520 forward 7 unknown #
vertex $-1 $229 $521 #
ellipse-curve $-1 -59.204653065064619 7.6772780257971789 11.046466725867253 -0.61566148304635926 0 0.78801074757464917 0.39400537378732459 0 0.30783074152317963 1 I I #
face $-1 $-1 $522 $48 $-1 $523 reversed single #
loop $-1 $-1 $236 $230 #
plane-surface $-1 0 0 13.410832383355549 0 0 1 1 0 0 forward_v I I I I #
coedge $-1 $524 $525 $526 $527 reversed $231 $-1 #
coedge $-1 $528 $233 $235 $370 forward $145 $-1 #
coedge $-1 $233 $528 $524 $529 forward $145 $-1 #
coedge $-1 $526 $236 $233 $367 forward $361 $-1 #
edge $-1 $373 -0.3917109032767776 $530 9.6636095172686929 $366 $531 forward 7 unknown #
coedge $-1 $532 $533 $234 $369 forward $522 $-1 #
edge $-1 $534 -86.793545268792414 $372 -74.098225276785399 $368 $535 forward 7 unknown #
edge $-1 $373 103.36675304933726 $534 124.4618060853908 $235 $536 forward 7 unknown #
coedge $-1 $236 $526 $532 $537 forward $361 $-1 #
vertex $-1 $237 $538 #
vertex $-1 $237 $539 #
straight-curve $-1 18.867135715966231 -4.24423840371918 13.410832383355554 -1 0 0 I I #
coedge $-1 $375 $375 $-1 $540 reversed $240 $-1 #
edge $-1 $541 0 $541 6.2831853071796004 $241 $542 forward 7 unknown #
vertex $-1 $244 $543 #
ellipse-curve $-1 53.80727388278963 -9.2718986139919153 7.0631723873520427 0.6018150307709319 0 0.79863550430605224 1.9965887607651305 0 -1.5045375769273297 1 I I #
face $-1 $-1 $391 $50 $-1 $544 forward single #
loop $-1 $-1 $545 $245 #
plane-surface $-1 62.230903042695395 0 0 -1 0 0 0 0 1 forward_v I I I I #
coedge $-1 $546 $547 $548 $549 reversed $246 $-1 #
coedge $-1 $550 $248 $250 $389 forward $154 $-1 #
coedge $-1 $248 $550 $546 $551 forward $154 $-1 #
coedge $-1 $548 $251 $248 $386 forward $391 $-1 #
edge $-1 $393 -11.649522964370174 $552 -1.5942025438247036 $385 $553 forward 7 unknown #
coedge $-1 $554 $555 $249 $388 forward $380 $-1 #
edge $-1 $556 -86.793545268792414 $392 -74.098225276785399 $387 $557 forward 7 unknown #
edge $-1 $393 103.36675304933726 $556 124.4618060853908 $250 $558 forward 7 unknown #
coedge $-1 $251 $548 $554 $559 forward $391 $-1 #
loop $-1 $-1 $548 $379 #
vertex $-1 $388 $560 #
vertex $-1 $252 $561 #
straight-curve $-1 18.867135715966231 18.271385718467613 13.410832383355554 -1 0 0 I I #
coedge $-1 $395 $395 $-1 $562 reversed $255 $-1 #
edge $-1 $563 0 $563 6.2831853071796004 $256 $564 forward 7 unknown #
vertex $-1 $259 $565 #
ellipse-curve $-1 53.80727388278963 13.243725508194878 7.0631723873520427 0.6018150307709319 0 0.79863550430605224 1.9965887607651305 0 -1.5045375769273297 1 I I #
face $-1 $-1 $275 $39 $-1 $566 reversed single #
loop $-1 $-1 $415 $260 #
plane-surface $-1 0 32.920255963666904 0 0 -1 0 0 0 -1 forward_v I I I I #
coedge $-1 $567 $413 $416 $568 forward $261 $-1 #
coedge $-1 $419 $263 $264 $407 reversed $163 $-1 #
coedge $-1 $413 $567 $263 $405 reversed $261 $-1 #
edge $-1 $420 -13.410832383355549 $569 13.410832383355549 $404 $570 forward 7 unknown #
coedge $-1 $265 $264 $567 $571 forward $105 $-1 #
edge $-1 $411 -62.230903042695395 $569 62.230903042695395 $403 $572 forward 7 unknown #
coedge $-1 $416 $415 $265 $409 reversed $400 $-1 #
edge $-1 $573 -62.230903042695395 $410 62.230903042695395 $408 $574 forward 7 unknown #
vertex $-1 $267 $575 #
vertex $-1 $422 $576 #
straight-curve $-1 62.230903042695395 0 -13.410832383355549 0 -1 0 I I #
coedge $-1 $402 $404 $268 $414 reversed $261 $-1 #
edge $-1 $417 -32.920255963666904 $420 32.920255963666904 $413 $577 forward 7 unknown #
coedge $-1 $408 $269 $274 $423 forward $400 $-1 #
coedge $-1 $269 $408 $402 $568 reversed $400 $-1 #
vertex $-1 $270 $578 #
straight-curve $-1 0 32.920255963666904 13.410832383355549 -1 0 0 I I #
coedge $-1 $271 $403 $273 $422 reversed $163 $-1 #
vertex $-1 $414 $579 #
straight-curve $-1 0 -32.920255963666904 13.410832383355549 1 0 0 I I #
edge $-1 $276 -13.410832383355549 $411 13.410832383355549 $273 $580 forward 7 unknown #
edge $-1 $277 -13.410832383355549 $410 13.410832383355549 $274 $581 forward 7 unknown #
point $-1 62.230903042695395 -32.920255963666904 13.410832383355549 #
point $-1 62.230903042695395 32.920255963666904 13.410832383355549 #
face $-1 $-1 $582 $40 $-1 $583 reversed single #
loop $-1 $-1 $289 $279 #
plane-surface $-1 0 -32.920255963666904 0 0 1 0 0 0 1 forward_v I I I I #
coedge $-1 $584 $282 $433 $585 forward $171 $-1 #
coedge $-1 $282 $584 $586 $587 forward $171 $-1 #
edge $-1 $588 -62.230903042695395 $434 62.230903042695395 $282 $589 forward 7 unknown #
coedge $-1 $284 $283 $590 $591 reversed $109 $-1 #
coedge $-1 $285 $291 $429 $585 reversed $280 $-1 #
vertex $-1 $585 $592 #
straight-curve $-1 62.230903042695395 -22.515624122186793 -5.6118441958677563 0 0 1 I I #
coedge $-1 $590 $593 $287 $437 forward $582 $-1 #
edge $-1 $442 -19.061285942203479 $438 -8.6566541007233688 $436 $594 forward 7 unknown #
vertex $-1 $437 $595 #
straight-curve $-1 0 -22.515624122186793 -9.036544400115476 -1 0 0 I I #
coedge $-1 $596 $289 $593 $597 forward $427 $-1 #
coedge $-1 $289 $596 $291 $444 reversed $427 $-1 #
vertex $-1 $597 $598 #
straight-curve $-1 0 -32.920255963666904 -9.036544400115476 -1 0 0 I I #
edge $-1 $293 9.036544400115476 $599 13.410832383355549 $291 $600 forward 7 unknown #
point $-1 62.230903042695395 -22.515624122186793 -9.036544400115476 #
point $-1 62.230903042695395 -32.920255963666904 -9.036544400115476 #
face $-1 $-1 $461 $41 $-1 $601 reversed single #
loop $-1 $-1 $453 $295 #
plane-surface $-1 -62.230903042695395 0 0 1 0 0 0 0 -1 forward_v I I I I #
coedge $-1 $602 $603 $298 $452 forward $296 $-1 #
coedge $-1 $299 $298 $306 $466 reversed $113 $-1 #
edge $-1 $604 -62.230903042695395 $455 62.230903042695395 $450 $605 forward 7 unknown #
coedge $-1 $606 $300 $302 $458 forward $448 $-1 #
coedge $-1 $300 $606 $602 $607 reversed $448 $-1 #
vertex $-1 $607 $608 #
vertex $-1 $458 $609 #
straight-curve $-1 -62.230903042695395 22.515624122186793 -5.6118441958677563 0 0 1 I I #
edge $-1 $456 8.6566541007233688 $462 19.061285942203479 $453 $610 forward 7 unknown #
coedge $-1 $611 $303 $307 $467 forward $461 $-1 #
coedge $-1 $303 $611 $606 $612 reversed $461 $-1 #
loop $-1 $-1 $303 $447 #
vertex $-1 $612 $613 #
straight-curve $-1 0 32.920255963666904 -9.036544400115476 1 0 0 I I #
straight-curve $-1 0 22.515624122186793 -9.036544400115476 1 0 0 I I #
coedge $-1 $307 $306 $603 $614 reversed $179 $-1 #
edge $-1 $309 3.4247002042477197 $604 7.7989881874877929 $306 $615 forward 7 unknown #
edge $-1 $308 9.036544400115476 $616 13.410832383355549 $307 $617 forward 7 unknown #
point $-1 62.230903042695395 32.920255963666904 -9.036544400115476 #
point $-1 62.230903042695395 22.515624122186793 -9.036544400115476 #
loop $-1 $-1 $319 $311 #
plane-surface $-1 0 0 13.410832383355549 0 0 1 1 0 0 forward_v I I I I #
coedge $-1 $473 $314 $316 $477 reversed $187 $-1 #
coedge $-1 $314 $472 $618 $619 reversed $187 $-1 #
coedge $-1 $322 $317 $314 $475 forward $312 $-1 #
edge $-1 $478 -44.697569894730421 $620 -39.968838579753836 $474 $621 forward 7 unknown #
coedge $-1 $316 $315 $481 $622 reversed $117 $-1 #
edge $-1 $623 -7.6807327487474488 $478 -8.8800565823946346e-015 $472 $624 forward 7 unknown #
vertex $-1 $318 $625 #
straight-curve $-1 -62.230903042695395 -2.6870473090290119 8.6821010683789659 0 -1 0 I I #
coedge $-1 $618 $319 $322 $485 forward $470 $-1 #
coedge $-1 $319 $618 $476 $622 forward $470 $-1 #
vertex $-1 $320 $626 #
straight-curve $-1 -69.428621579927736 1.7763568394002505e-015 13.410832383355547 -1 0 0 I I #
straight-curve $-1 -62.230903042695402 1.7763568394002505e-015 8.6821010683789552 0.78801074757464917 0 0.61566148304635926 I I #
edge $-1 $323 -1.7763568394002505e-015 $620 10.748189236116049 $322 $627 forward 7 unknown #
point $-1 -62.230903042695395 1.7763568394002505e-015 13.410832383355549 #
point $-1 -62.230903042695395 1.7763568394002505e-015 8.6821010683789606 #
edge $-1 $628 1 $628 0 $326 $-1 forward 7 unknown #
vertex $-1 $327 $629 #
ellipse-curve $-1 -58.12797354622716 -7.6772780257971789 9.6683798130084746 -0.61566148304635926 0 0.78801074757464917 0.39400537378732459 0 0.30783074152317963 1 I I #
point $-1 -58.810647691277296 -7.6772780257971789 11.354297467390442 #
edge $-1 $630 1 $630 0 $330 $-1 forward 7 unknown #
vertex $-1 $331 $631 #
ellipse-curve $-1 -58.12797354622716 -3.0709112103188723 9.6683798130084746 -0.61566148304635926 0 0.78801074757464917 0.39400537378732459 0 0.30783074152317963 1 I I #
point $-1 -58.810647691277296 -3.0709112103188723 11.354297467390442 #
loop $-1 $-1 $340 $334 #
plane-surface $-1 0 0 13.410832383355549 0 0 1 1 0 0 forward_v I I I I #
coedge $-1 $337 $505 $501 $632 reversed $209 $-1 #
edge $-1 $503 39.968838579753836 $506 44.697569894730421 $337 $633 forward 7 unknown #
edge $-1 $506 8.8800565823946346e-015 $502 7.6807327487474488 $338 $634 forward 7 unknown #
coedge $-1 $508 $340 $498 $632 forward $496 $-1 #
vertex $-1 $341 $635 #
vertex $-1 $632 $636 #
straight-curve $-1 -69.428621579927736 10.748189236116056 13.410832383355547 -1 0 0 I I #
coedge $-1 $498 $343 $348 $511 forward $209 $-1 #
vertex $-1 $499 $637 #
straight-curve $-1 -62.230903042695395 -2.6870473090290119 8.6821010683789659 0 -1 0 I I #
coedge $-1 $345 $501 $347 $510 forward $496 $-1 #
straight-curve $-1 -56.178403087433836 -2.6870473090290119 13.410832383355549 0 1 0 I I #
edge $-1 $638 7.1977185372323405 $350 13.2502184924939 $508 $639 forward 7 unknown #
edge $-1 $349 -44.697569894730421 $638 -39.968838579753836 $505 $640 forward 7 unknown #
point $-1 -62.230903042695395 1.7763568394002505e-015 8.6821010683789606 #
point $-1 -56.178403087433836 1.7763568394002505e-015 13.410832383355549 #
edge $-1 $641 1 $641 0 $352 $-1 forward 7 unknown #
vertex $-1 $353 $642 #
ellipse-curve $-1 -58.12797354622716 3.0709112103188758 9.6683798130084746 -0.61566148304635926 0 0.78801074757464917 0.39400537378732459 0 0.30783074152317963 1 I I #
point $-1 -58.810647691277296 3.0709112103188758 11.354297467390442 #
edge $-1 $643 1 $643 0 $356 $-1 forward 7 unknown #
vertex $-1 $357 $644 #
ellipse-curve $-1 -58.12797354622716 7.6772780257971789 9.6683798130084746 -0.61566148304635926 0 0.78801074757464917 0.39400537378732459 0 0.30783074152317963 1 I I #
point $-1 -58.810647691277296 7.6772780257971789 11.354297467390442 #
loop $-1 $-1 $368 $360 #
plane-surface $-1 62.230903042695395 0 0 -1 0 0 0 0 1 forward_v I I I I #
coedge $-1 $525 $363 $365 $529 reversed $231 $-1 #
coedge $-1 $363 $524 $645 $646 reversed $231 $-1 #
coedge $-1 $371 $366 $363 $527 forward $361 $-1 #
edge $-1 $530 26.516509006917619 $647 43.36376732672916 $526 $648 forward 7 unknown #
coedge $-1 $365 $364 $533 $649 reversed $145 $-1 #
edge $-1 $650 -124.4618060853908 $530 -103.36675304933726 $524 $651 forward 7 unknown #
vertex $-1 $367 $652 #
straight-curve $-1 45.383644722883858 -4.6359493069959576 13.410832383355547 0 -1 0 I I #
coedge $-1 $645 $368 $371 $537 reversed $522 $-1 #
coedge $-1 $368 $645 $528 $649 forward $522 $-1 #
vertex $-1 $369 $653 #
straight-curve $-1 62.230903042695395 -4.24423840371918 87.509057660140954 0 0 1 I I #
straight-curve $-1 -37.168714227152755 -4.24423840371918 75.618498050433757 0.79863550430605224 0 -0.6018150307709319 I I #
edge $-1 $647 -14.299558824264651 $372 -4.24423840371918 $532 $654 forward 7 unknown #
point $-1 62.230903042695395 -4.24423840371918 13.410832383355549 #
point $-1 45.383644722883851 -4.24423840371918 13.410832383355547 #
edge $-1 $655 1 $655 0 $375 $-1 forward 7 unknown #
vertex $-1 $376 $656 #
ellipse-curve $-1 49.253117108292095 -9.2718986139919153 1.0196023428643131 0.6018150307709319 0 0.79863550430605224 1.9965887607651305 0 -1.5045375769273297 1 I I #
point $-1 55.803862643554744 -9.2718986139919153 5.5586348104246923 #
plane-surface $-1 0 0 13.410832383355549 0 0 1 1 0 0 forward_v I I I I #
coedge $-1 $555 $554 $547 $657 forward $380 $-1 #
coedge $-1 $547 $382 $384 $551 reversed $246 $-1 #
coedge $-1 $382 $546 $545 $657 reversed $246 $-1 #
coedge $-1 $390 $385 $382 $549 forward $391 $-1 #
edge $-1 $552 26.516509006917619 $658 43.36376732672916 $548 $659 forward 7 unknown #
coedge $-1 $384 $383 $555 $660 reversed $154 $-1 #
edge $-1 $661 -124.4618060853908 $552 -103.36675304933726 $546 $662 forward 7 unknown #
vertex $-1 $386 $663 #
straight-curve $-1 45.383644722883858 6.6218627540974389 13.410832383355547 0 -1 0 I I #
coedge $-1 $545 $387 $390 $559 reversed $380 $-1 #
coedge $-1 $387 $545 $550 $660 forward $380 $-1 #
vertex $-1 $388 $664 #
straight-curve $-1 62.230903042695395 18.271385718467613 87.509057660140954 0 0 1 I I #
straight-curve $-1 -37.168714227152755 18.271385718467613 75.618498050433757 0.79863550430605224 0 -0.6018150307709319 I I #
edge $-1 $658 8.2160652979221425 $392 18.271385718467613 $554 $665 forward 7 unknown #
point $-1 62.230903042695395 18.271385718467613 13.410832383355549 #
point $-1 45.383644722883851 18.271385718467613 13.410832383355547 #
edge $-1 $666 1 $666 0 $395 $-1 forward 7 unknown #
vertex $-1 $396 $667 #
ellipse-curve $-1 49.253117108292095 13.243725508194878 1.0196023428643131 0.6018150307709319 0 0.79863550430605224 1.9965887607651305 0 -1.5045375769273297 1 I I #
point $-1 55.803862643554744 13.243725508194878 5.5586348104246923 #
plane-surface $-1 62.230903042695395 0 0 -1 0 0 0 0 1 forward_v I I I I #
coedge $-1 $404 $402 $406 $571 reversed $261 $-1 #
edge $-1 $417 -13.410832383355549 $573 13.410832383355549 $416 $668 forward 7 unknown #
vertex $-1 $571 $669 #
straight-curve $-1 -62.230903042695395 -32.920255963666904 0 0 0 -1 I I #
edge $-1 $569 -32.920255963666904 $573 32.920255963666904 $567 $670 forward 7 unknown #
straight-curve $-1 0 -32.920255963666904 -13.410832383355549 -1 0 0 I I #
vertex $-1 $409 $671 #
straight-curve $-1 0 32.920255963666904 -13.410832383355549 1 0 0 I I #
point $-1 62.230903042695395 32.920255963666904 -13.410832383355549 #
point $-1 62.230903042695395 -32.920255963666904 -13.410832383355549 #
straight-curve $-1 -62.230903042695395 0 13.410832383355549 0 -1 0 I I #
point $-1 -62.230903042695395 32.920255963666904 13.410832383355549 #
point $-1 -62.230903042695395 -32.920255963666904 13.410832383355549 #
straight-curve $-1 62.230903042695395 -32.920255963666904 0 0 0 -1 I I #
straight-curve $-1 62.230903042695395 32.920255963666904 0 0 0 -1 I I #
loop $-1 $-1 $590 $426 #
plane-surface $-1 -62.230903042695395 0 0 1 0 0 0 0 -1 forward_v I I I I #
coedge $-1 $430 $429 $596 $672 forward $171 $-1 #
edge $-1 $434 22.515624122186793 $599 32.920255963666904 $433 $673 forward 7 unknown #
coedge $-1 $593 $590 $430 $587 reversed $582 $-1 #
edge $-1 $674 -32.920255963666904 $588 -22.515624122186793 $586 $675 forward 7 unknown #
vertex $-1 $591 $676 #
straight-curve $-1 0 -22.515624122186793 -13.410832383355549 1 0 0 I I #
coedge $-1 $586 $436 $432 $591 forward $582 $-1 #
edge $-1 $438 3.4247002042477197 $588 7.7989881874877929 $590 $677 forward 7 unknown #
point $-1 62.230903042695395 -22.515624122186793 -13.410832383355549 #
coedge $-1 $436 $586 $440 $597 reversed $582 $-1 #
straight-curve $-1 -62.230903042695395 -13.858970021463424 -9.036544400115476 0 1 0 I I #
point $-1 -62.230903042695395 -22.515624122186793 -9.036544400115476 #
coedge $-1 $441 $440 $584 $672 reversed $427 $-1 #
edge $-1 $442 9.036544400115476 $674 13.410832383355549 $593 $678 forward 7 unknown #
point $-1 -62.230903042695395 -32.920255963666904 -9.036544400115476 #
vertex $-1 $444 $679 #
straight-curve $-1 62.230903042695395 -32.920255963666904 0 0 0 -1 I I #
plane-surface $-1 0 32.920255963666904 0 0 -1 0 0 0 -1 forward_v I I I I #
coedge $-1 $680 $450 $454 $607 forward $296 $-1 #
coedge $-1 $450 $680 $465 $614 forward $296 $-1 #
vertex $-1 $452 $681 #
straight-curve $-1 0 22.515624122186793 -13.410832383355549 -1 0 0 I I #
coedge $-1 $454 $453 $460 $612 forward $448 $-1 #
edge $-1 $455 22.515624122186793 $682 32.920255963666904 $454 $683 forward 7 unknown #
point $-1 -62.230903042695395 22.515624122186793 -13.410832383355549 #
point $-1 -62.230903042695395 22.515624122186793 -9.036544400115476 #
straight-curve $-1 -62.230903042695395 13.858970021463424 -9.036544400115476 0 1 0 I I #
coedge $-1 $460 $459 $680 $684 reversed $461 $-1 #
edge $-1 $462 9.036544400115476 $682 13.410832383355549 $460 $685 forward 7 unknown #
point $-1 -62.230903042695395 32.920255963666904 -9.036544400115476 #
edge $-1 $616 -32.920255963666904 $604 -22.515624122186793 $465 $686 forward 7 unknown #
straight-curve $-1 62.230903042695395 22.515624122186793 -5.6118441958677563 0 0 -1 I I #
vertex $-1 $614 $687 #
straight-curve $-1 62.230903042695395 32.920255963666904 0 0 0 -1 I I #
coedge $-1 $481 $480 $473 $619 forward $470 $-1 #
edge $-1 $620 7.1977185372323405 $623 13.2502184924939 $618 $688 forward 7 unknown #
vertex $-1 $619 $689 #
straight-curve $-1 -62.230903042695395 -10.748189236116049 53.379670963109383 0 0 1 I I #
edge $-1 $623 -8.0611419270870375 $482 2.6870473090290137 $481 $690 forward 7 unknown #
vertex $-1 $622 $691 #
straight-curve $-1 -62.230903042695402 -10.748189236116049 8.6821010683789552 -0.78801074757464917 0 -0.61566148304635926 I I #
point $-1 -62.230903042695395 -10.748189236116049 8.6821010683789606 #
point $-1 -56.178403087433836 1.7763568394002505e-015 13.410832383355549 #
straight-curve $-1 -62.230903042695395 0 13.410832383355549 0 -1 0 I I #
vertex $-1 $488 $692 #
point $-1 -57.733968172439837 -7.6772780257971789 9.9762105545316526 #
vertex $-1 $492 $693 #
point $-1 -57.733968172439837 -3.0709112103188723 9.9762105545316526 #
edge $-1 $503 -10.748189236116056 $638 -1.7763568394002505e-015 $498 $694 forward 7 unknown #
straight-curve $-1 -62.230903042695395 10.748189236116056 53.379670963109383 0 0 -1 I I #
straight-curve $-1 -62.230903042695402 10.748189236116056 8.6821010683789552 0.78801074757464917 0 0.61566148304635926 I I #
point $-1 -56.178403087433836 10.748189236116056 13.410832383355549 #
point $-1 -62.230903042695395 10.748189236116056 13.410832383355549 #
point $-1 -62.230903042695395 10.748189236116056 8.6821010683789606 #
vertex $-1 $510 $695 #
straight-curve $-1 -69.428621579927736 1.7763568394002505e-015 13.410832383355547 1 0 0 I I #
straight-curve $-1 -62.230903042695395 1.7763568394002505e-015 53.379670963109383 0 0 1 I I #
vertex $-1 $514 $696 #
point $-1 -57.733968172439837 3.0709112103188758 9.9762105545316526 #
vertex $-1 $518 $697 #
point $-1 -57.733968172439837 7.6772780257971789 9.9762105545316526 #
coedge $-1 $533 $532 $525 $646 forward $522 $-1 #
edge $-1 $647 74.098225276785399 $650 86.793545268792414 $645 $698 forward 7 unknown #
vertex $-1 $537 $699 #
straight-curve $-1 18.867135715966231 -14.299558824264651 13.410832383355554 1 0 0 I I #
edge $-1 $650 -9.6636095172686929 $534 0.3917109032767776 $533 $700 forward 7 unknown #
vertex $-1 $649 $701 #
straight-curve $-1 -37.168714227152755 -14.299558824264651 75.618498050433757 -0.79863550430605224 0 0.6018150307709319 I I #
point $-1 45.383644722883851 -14.299558824264651 13.410832383355547 #
point $-1 62.230903042695395 -4.24423840371918 0.71551239134853972 #
straight-curve $-1 62.230903042695395 0 13.410832383355549 0 1 0 I I #
vertex $-1 $540 $702 #
point $-1 51.249705869057223 -9.2718986139919153 -0.48493523406301664 #
edge $-1 $658 74.098225276785399 $661 86.793545268792414 $545 $703 forward 7 unknown #
vertex $-1 $559 $704 #
straight-curve $-1 18.867135715966231 8.2160652979221425 13.410832383355554 1 0 0 I I #
edge $-1 $661 1.5942025438247036 $556 11.649522964370174 $555 $705 forward 7 unknown #
vertex $-1 $660 $706 #
straight-curve $-1 -37.168714227152755 8.2160652979221425 75.618498050433757 -0.79863550430605224 0 0.6018150307709319 I I #
point $-1 45.383644722883851 8.2160652979221425 13.410832383355547 #
point $-1 62.230903042695395 18.271385718467613 0.71551239134853972 #
straight-curve $-1 62.230903042695395 0 13.410832383355549 0 1 0 I I #
vertex $-1 $562 $707 #
point $-1 51.249705869057223 13.243725508194878 -0.48493523406301664 #
straight-curve $-1 -62.230903042695395 32.920255963666904 0 0 0 -1 I I #
point $-1 -62.230903042695395 -32.920255963666904 -13.410832383355549 #
straight-curve $-1 -62.230903042695395 0 -13.410832383355549 0 1 0 I I #
point $-1 -62.230903042695395 32.920255963666904 -13.410832383355549 #
edge $-1 $599 -62.230903042695395 $674 62.230903042695395 $596 $708 forward 7 unknown #
straight-curve $-1 62.230903042695395 0 -13.410832383355549 0 -1 0 I I #
vertex $-1 $587 $709 #
straight-curve $-1 -62.230903042695395 0 -13.410832383355549 0 1 0 I I #
point $-1 -62.230903042695395 -22.515624122186793 -13.410832383355549 #
straight-curve $-1 -62.230903042695395 -22.515624122186793 -5.6118441958677563 0 0 -1 I I #
straight-curve $-1 -62.230903042695395 -32.920255963666904 0 0 0 -1 I I #
point $-1 62.230903042695395 -32.920255963666904 -13.410832383355549 #
coedge $-1 $603 $602 $611 $684 forward $296 $-1 #
point $-1 62.230903042695395 22.515624122186793 -13.410832383355549 #
vertex $-1 $684 $710 #
straight-curve $-1 -62.230903042695395 0 -13.410832383355549 0 1 0 I I #
edge $-1 $682 -62.230903042695395 $616 62.230903042695395 $611 $711 forward 7 unknown #
straight-curve $-1 -62.230903042695395 32.920255963666904 0 0 0 -1 I I #
straight-curve $-1 62.230903042695395 0 -13.410832383355549 0 -1 0 I I #
point $-1 62.230903042695395 32.920255963666904 -13.410832383355549 #
straight-curve $-1 -69.428621579927736 -10.748189236116049 13.410832383355547 1 0 0 I I #
point $-1 -62.230903042695395 -10.748189236116049 13.410832383355549 #
straight-curve $-1 -56.178403087433836 -2.6870473090290119 13.410832383355549 0 1 0 I I #
point $-1 -56.178403087433836 -10.748189236116049 13.410832383355549 #
point $-1 -57.820142804703984 -7.6772780257971789 9.2743744392211482 #
point $-1 -57.820142804703984 -3.0709112103188723 9.2743744392211482 #
straight-curve $-1 -62.230903042695395 0 13.410832383355549 0 -1 0 I I #
point $-1 -62.230903042695395 1.7763568394002505e-015 13.410832383355549 #
point $-1 -57.820142804703984 3.0709112103188758 9.2743744392211482 #
point $-1 -57.820142804703984 7.6772780257971789 9.2743744392211482 #
straight-curve $-1 62.230903042695395 -14.299558824264651 87.509057660140954 0 0 -1 I I #
point $-1 62.230903042695395 -14.299558824264651 13.410832383355549 #
straight-curve $-1 62.230903042695395 -4.6359493069959576 0.71551239134853972 0 1 0 I I #
point $-1 62.230903042695395 -14.299558824264651 0.71551239134853972 #
point $-1 47.748579531364761 -9.2718986139919153 -0.97698641790081742 #
straight-curve $-1 62.230903042695395 8.2160652979221425 87.509057660140954 0 0 -1 I I #
point $-1 62.230903042695395 8.2160652979221425 13.410832383355549 #
straight-curve $-1 62.230903042695395 6.6218627540974389 0.71551239134853972 0 1 0 I I #
point $-1 62.230903042695395 8.2160652979221425 0.71551239134853972 #
point $-1 47.748579531364761 13.243725508194878 -0.97698641790081742 #
straight-curve $-1 0 -32.920255963666904 -13.410832383355549 -1 0 0 I I #
point $-1 -62.230903042695395 -32.920255963666904 -13.410832383355549 #
point $-1 -62.230903042695395 32.920255963666904 -13.410832383355549 #
straight-curve $-1 0 32.920255963666904 -13.410832383355549 1 0 0 I I #
End-of-ACIS-data 