500 0 5 0           
7 Unknown 11 ACIS 5.0 NT 24 Thu Mar 25 18:44:17 1999 
-1 9.9999999999999995e-007 1e-010 
body $-1 $5 $-1 $6 #
body $-1 $7 $-1 $8 #
body $-1 $9 $-1 $10 #
body $-1 $11 $-1 $12 #
body $-1 $13 $-1 $14 #
lump $-1 $-1 $15 $0 #
transform $-1 1 0 0 0 1 0 0 0 1 62.482375560777612 28.402431943805365 12.674781368397898 1 rotate no_reflect no_shear #
lump $-1 $-1 $16 $1 #
transform $-1 1 0 0 0 1 0 0 0 1 62.482375560777612 28.402431943805365 12.674781368397898 1 rotate no_reflect no_shear #
lump $-1 $-1 $17 $2 #
transform $-1 1 0 0 0 1 0 0 0 1 62.482375560777612 28.402431943805365 12.674781368397898 1 rotate no_reflect no_shear #
lump $-1 $-1 $18 $3 #
transform $-1 1 0 0 0 1 0 0 0 1 62.482375560777612 28.402431943805365 12.674781368397898 1 rotate no_reflect no_shear #
lump $-1 $-1 $19 $4 #
transform $-1 1 0 0 0 1 0 0 0 1 62.482375560777612 28.402431943805365 12.674781368397898 1 rotate no_reflect no_shear #
shell $-1 $-1 $-1 $20 $-1 $5 #
shell $-1 $-1 $-1 $21 $-1 $7 #
shell $-1 $-1 $-1 $22 $-1 $9 #
shell $-1 $-1 $-1 $23 $-1 $11 #
shell $-1 $-1 $-1 $24 $-1 $13 #
face $-1 $25 $26 $15 $-1 $27 forward single #
face $-1 $28 $29 $16 $-1 $30 forward single #
face $-1 $31 $32 $17 $-1 $33 forward single #
face $-1 $34 $35 $18 $-1 $36 reversed single #
face $-1 $37 $38 $19 $-1 $39 forward single #
face $-1 $40 $41 $15 $-1 $42 reversed single #
loop $-1 $-1 $43 $20 #
plane-surface $-1 0 0 12.674781368397898 0 0 1 1 0 0 forward_v I I I I #
face $-1 $44 $45 $16 $-1 $46 forward single #
loop $-1 $-1 $47 $21 #
plane-surface $-1 0 -28.402431943805365 0 0 1 0 0 0 1 forward_v I I I I #
face $-1 $48 $49 $17 $-1 $50 forward single #
loop $-1 $-1 $51 $22 #
plane-surface $-1 0 28.402431943805365 0 0 -1 0 0 0 -1 forward_v I I I I #
face $-1 $52 $53 $18 $-1 $54 reversed single #
loop $-1 $-1 $55 $23 #
plane-surface $-1 -126.84398126619918 11.993989998007496 108.53324070022205 0 1 0 -0.51503808176128008 0 0.85716729658548041 forward_v I I I I #
face $-1 $56 $57 $19 $-1 $58 forward single #
loop $-1 $59 $60 $24 #
cone-surface $-1 -52.70341928212185 15.77899934880497 6.361542646719184 0.51503808176128008 0 -0.85716729658548041 0.85716729658548041 0 0.51503808176128008 1 I I 0 1 1 forward I I I I #
face $-1 $61 $62 $15 $-1 $63 reversed single #
loop $-1 $-1 $64 $25 #
plane-surface $-1 0 0 -12.674781368397898 0 0 1 1 0 0 forward_v I I I I #
coedge $-1 $65 $66 $67 $68 forward $26 $-1 #
face $-1 $69 $70 $16 $-1 $71 reversed single #
loop $-1 $-1 $72 $28 #
plane-surface $-1 0 0 12.674781368397898 0 0 1 1 0 0 forward_v I I I I #
coedge $-1 $73 $74 $75 $76 forward $29 $-1 #
face $-1 $77 $78 $17 $-1 $79 reversed single #
loop $-1 $-1 $80 $31 #
plane-surface $-1 0 0 12.674781368397898 0 0 1 1 0 0 forward_v I I I I #
coedge $-1 $81 $82 $83 $84 forward $32 $-1 #
face $-1 $85 $86 $18 $-1 $87 reversed single #
loop $-1 $-1 $88 $34 #
plane-surface $-1 -62.482375560777612 15.77899934880497 1.4175428128811944 -0.51503808176128008 0 0.85716729658548041 0.85716729658548041 0 0.51503808176128008 forward_v I I I I #
coedge $-1 $89 $90 $91 $92 reversed $35 $-1 #
face $-1 $-1 $93 $19 $-1 $94 forward single #
loop $-1 $95 $96 $37 #
cone-surface $-1 -52.034539370921237 15.77899934880497 5.248339554506078 0.51503808176128008 0 -0.85716729658548041 0.4285836482927402 0 0.25751904088064004 1 I I -0.70710678118654746 0.70710678118654746 0.5 forward I I I I #
loop $-1 $-1 $97 $24 #
coedge $-1 $60 $60 $98 $99 reversed $38 $-1 #
face $-1 $100 $101 $15 $-1 $102 reversed single #
loop $-1 $-1 $103 $40 #
plane-surface $-1 0 -28.402431943805365 0 0 1 0 0 0 1 forward_v I I I I #
coedge $-1 $104 $105 $106 $107 forward $41 $-1 #
coedge $-1 $108 $43 $109 $110 forward $26 $-1 #
coedge $-1 $43 $108 $111 $112 forward $26 $-1 #
coedge $-1 $113 $114 $43 $68 reversed $115 $-1 #
edge $-1 $116 -28.402431943805365 $117 28.402431943805365 $67 $118 forward 7 unknown #
face $-1 $119 $120 $16 $-1 $121 reversed single #
loop $-1 $-1 $122 $44 #
plane-surface $-1 -62.482375560777612 0 0 1 0 0 0 0 -1 forward_v I I I I #
coedge $-1 $123 $124 $74 $125 forward $45 $-1 #
coedge $-1 $126 $47 $127 $128 reversed $29 $-1 #
coedge $-1 $47 $126 $72 $125 reversed $29 $-1 #
coedge $-1 $129 $130 $47 $76 reversed $131 $-1 #
edge $-1 $132 -12.674781368397898 $133 12.674781368397898 $75 $134 forward 7 unknown #
face $-1 $135 $136 $17 $-1 $137 reversed single #
loop $-1 $-1 $138 $48 #
plane-surface $-1 -60.293193604710595 37.240855188008283 0 0 -1 0 0 0 -1 forward_v I I I I #
coedge $-1 $139 $140 $81 $141 forward $49 $-1 #
coedge $-1 $142 $51 $80 $141 reversed $32 $-1 #
coedge $-1 $51 $142 $143 $144 reversed $32 $-1 #
coedge $-1 $145 $146 $51 $84 reversed $136 $-1 #
edge $-1 $147 -12.674781368397898 $148 12.674781368397898 $83 $149 forward 7 unknown #
face $-1 $150 $151 $18 $-1 $152 reversed single #
loop $-1 $-1 $153 $52 #
plane-surface $-1 -126.84398126619918 19.564008699602443 108.53324070022205 0 -1 0 0.51503808176128008 0 -0.85716729658548041 forward_v I I I I #
coedge $-1 $154 $155 $156 $157 reversed $53 $-1 #
coedge $-1 $90 $55 $158 $159 reversed $35 $-1 #
coedge $-1 $55 $89 $154 $160 reversed $35 $-1 #
coedge $-1 $156 $161 $55 $92 forward $162 $-1 #
edge $-1 $163 0.93961507232197761 $164 19.674805888993582 $91 $165 forward 7 unknown #
loop $-1 $-1 $98 $56 #
plane-surface $-1 -62.482375560777612 15.77899934880497 1.4175428128811944 -0.51503808176128008 0 0.85716729658548041 0.85716729658548041 0 0.51503808176128008 forward_v I I I I #
loop $-1 $-1 $166 $37 #
coedge $-1 $96 $96 $97 $167 reversed $57 $-1 #
coedge $-1 $97 $97 $96 $167 forward $59 $-1 #
coedge $-1 $98 $98 $60 $99 forward $93 $-1 #
edge $-1 $168 0 $168 6.2831853071796004 $98 $169 forward 7 unknown #
face $-1 $170 $171 $15 $-1 $172 reversed single #
loop $-1 $-1 $173 $61 #
plane-surface $-1 -62.482375560777612 0 0 1 0 0 0 0 -1 forward_v I I I I #
coedge $-1 $174 $111 $175 $176 forward $62 $-1 #
coedge $-1 $177 $64 $174 $178 forward $41 $-1 #
coedge $-1 $64 $177 $179 $180 forward $41 $-1 #
coedge $-1 $114 $113 $64 $107 reversed $115 $-1 #
edge $-1 $181 -28.402431943805365 $182 28.402431943805365 $106 $183 forward 7 unknown #
coedge $-1 $66 $65 $184 $185 forward $26 $-1 #
coedge $-1 $186 $187 $65 $110 reversed $171 $-1 #
edge $-1 $117 -62.482375560777612 $188 62.482375560777612 $109 $189 forward 7 unknown #
coedge $-1 $103 $190 $66 $112 reversed $62 $-1 #
edge $-1 $191 -62.482375560777612 $116 62.482375560777612 $111 $192 forward 7 unknown #
coedge $-1 $106 $67 $190 $193 forward $115 $-1 #
coedge $-1 $67 $106 $186 $194 reversed $115 $-1 #
loop $-1 $-1 $113 $170 #
vertex $-1 $68 $195 #
vertex $-1 $68 $196 #
straight-curve $-1 62.482375560777612 0 12.674781368397898 0 1 0 I I #
face $-1 $197 $131 $16 $-1 $198 reversed single #
loop $-1 $-1 $199 $69 #
plane-surface $-1 -60.293193604710595 -37.24085518800829 0 0 1 0 0 0 1 forward_v I I I I #
coedge $-1 $200 $201 $126 $202 forward $70 $-1 #
coedge $-1 $203 $72 $201 $204 forward $45 $-1 #
coedge $-1 $72 $203 $129 $205 forward $45 $-1 #
edge $-1 $132 58.104011648643578 $206 62.482375560777612 $72 $207 forward 7 unknown #
coedge $-1 $74 $73 $122 $202 reversed $29 $-1 #
coedge $-1 $208 $209 $73 $128 forward $210 $-1 #
edge $-1 $211 -62.482375560777612 $133 -58.104011648643578 $127 $212 forward 7 unknown #
coedge $-1 $213 $75 $124 $205 reversed $131 $-1 #
coedge $-1 $75 $213 $208 $214 reversed $131 $-1 #
loop $-1 $-1 $213 $119 #
vertex $-1 $125 $215 #
vertex $-1 $214 $216 #
straight-curve $-1 -58.104011648643578 -28.402431943805365 0 0 0 -1 I I #
face $-1 $217 $218 $17 $-1 $219 reversed single #
loop $-1 $-1 $83 $77 #
plane-surface $-1 -58.104011648643578 32.821643565906825 0 -1 0 0 0 0 1 forward_v I I I I #
coedge $-1 $220 $221 $222 $223 forward $78 $-1 #
coedge $-1 $224 $80 $146 $225 forward $49 $-1 #
coedge $-1 $80 $224 $226 $227 forward $49 $-1 #
edge $-1 $228 -62.482375560777612 $148 -58.104011648643578 $80 $229 forward 7 unknown #
coedge $-1 $82 $81 $230 $231 reversed $32 $-1 #
coedge $-1 $232 $233 $82 $144 forward $218 $-1 #
edge $-1 $147 58.104011648643578 $234 62.482375560777612 $143 $235 forward 7 unknown #
coedge $-1 $222 $83 $233 $236 reversed $136 $-1 #
coedge $-1 $83 $222 $139 $225 reversed $136 $-1 #
vertex $-1 $144 $237 #
vertex $-1 $225 $238 #
straight-curve $-1 -58.104011648643578 28.402431943805365 0 0 0 1 I I #
face $-1 $-1 $162 $18 $-1 $239 forward single #
loop $-1 $-1 $240 $85 #
plane-surface $-1 -62.482375560777612 0 0 1 0 0 0 0 -1 forward_v I I I I #
coedge $-1 $241 $242 $243 $244 reversed $86 $-1 #
coedge $-1 $245 $88 $90 $160 forward $53 $-1 #
coedge $-1 $88 $245 $241 $246 forward $53 $-1 #
coedge $-1 $243 $91 $88 $157 forward $162 $-1 #
edge $-1 $164 4.1044903236050114 $247 11.674509025199958 $156 $248 forward 7 unknown #
coedge $-1 $249 $250 $89 $159 forward $151 $-1 #
edge $-1 $251 -52.849077537229832 $163 -41.591838981713124 $158 $252 forward 7 unknown #
edge $-1 $164 -21.857099414901967 $251 0 $90 $253 forward 7 unknown #
coedge $-1 $91 $243 $249 $254 forward $162 $-1 #
loop $-1 $-1 $243 $150 #
vertex $-1 $159 $255 #
vertex $-1 $92 $256 #
straight-curve $-1 -63.42199063309959 11.993989998007496 12.674781368397902 1 0 0 I I #
coedge $-1 $166 $166 $-1 $257 reversed $95 $-1 #
edge $-1 $258 0 $258 6.2831853071796004 $96 $259 forward 7 unknown #
vertex $-1 $99 $260 #
ellipse-curve $-1 -53.114780152441817 15.77899934880497 7.0461620906395437 -0.51503808176128008 0 0.85716729658548041 0.85716729658548041 0 0.51503808176128008 1 I I #
face $-1 $-1 $115 $15 $-1 $261 reversed single #
loop $-1 $-1 $186 $100 #
plane-surface $-1 0 28.402431943805365 0 0 -1 0 0 0 -1 forward_v I I I I #
coedge $-1 $262 $184 $187 $263 forward $101 $-1 #
coedge $-1 $190 $103 $104 $178 reversed $62 $-1 #
coedge $-1 $184 $262 $103 $176 reversed $101 $-1 #
edge $-1 $191 -12.674781368397898 $264 12.674781368397898 $175 $265 forward 7 unknown #
coedge $-1 $105 $104 $262 $266 forward $41 $-1 #
edge $-1 $182 -62.482375560777612 $264 62.482375560777612 $174 $267 forward 7 unknown #
coedge $-1 $187 $186 $105 $180 reversed $171 $-1 #
edge $-1 $268 -62.482375560777612 $181 62.482375560777612 $179 $269 forward 7 unknown #
vertex $-1 $107 $270 #
vertex $-1 $193 $271 #
straight-curve $-1 62.482375560777612 0 -12.674781368397898 0 -1 0 I I #
coedge $-1 $173 $175 $108 $185 reversed $101 $-1 #
edge $-1 $188 -28.402431943805365 $191 28.402431943805365 $184 $272 forward 7 unknown #
coedge $-1 $179 $109 $114 $194 forward $171 $-1 #
coedge $-1 $109 $179 $173 $263 reversed $171 $-1 #
vertex $-1 $110 $273 #
straight-curve $-1 0 28.402431943805365 12.674781368397898 -1 0 0 I I #
coedge $-1 $111 $174 $113 $193 reversed $62 $-1 #
vertex $-1 $185 $274 #
straight-curve $-1 0 -28.402431943805365 12.674781368397898 1 0 0 I I #
edge $-1 $116 -12.674781368397898 $182 12.674781368397898 $113 $275 forward 7 unknown #
edge $-1 $117 -12.674781368397898 $181 12.674781368397898 $114 $276 forward 7 unknown #
point $-1 62.482375560777612 -28.402431943805365 12.674781368397898 #
point $-1 62.482375560777612 28.402431943805365 12.674781368397898 #
face $-1 $-1 $210 $16 $-1 $277 reversed single #
plane-surface $-1 -58.104011648643578 -32.821643565906825 0 -1 0 0 0 0 1 forward_v I I I I #
coedge $-1 $278 $279 $280 $281 forward $120 $-1 #
coedge $-1 $280 $122 $209 $282 reversed $70 $-1 #
coedge $-1 $122 $280 $123 $204 reversed $70 $-1 #
edge $-1 $206 -12.674781368397898 $211 12.674781368397898 $122 $283 forward 7 unknown #
coedge $-1 $124 $123 $279 $284 forward $45 $-1 #
edge $-1 $206 28.402431943805365 $285 37.24085518800829 $201 $286 forward 7 unknown #
edge $-1 $287 -4.4192116221014643 $132 4.4192116221014643 $129 $288 forward 7 unknown #
vertex $-1 $204 $289 #
straight-curve $-1 0 -28.402431943805365 12.674781368397898 -1 0 0 I I #
coedge $-1 $290 $127 $130 $214 forward $210 $-1 #
coedge $-1 $127 $290 $200 $282 forward $210 $-1 #
loop $-1 $-1 $127 $197 #
vertex $-1 $202 $291 #
straight-curve $-1 0 -28.402431943805365 -12.674781368397898 1 0 0 I I #
coedge $-1 $130 $129 $292 $293 forward $131 $-1 #
edge $-1 $133 -4.4192116221014643 $294 4.4192116221014643 $130 $295 forward 7 unknown #
point $-1 -58.104011648643578 -28.402431943805361 12.674781368397898 #
point $-1 -58.104011648643578 -28.402431943805361 -12.674781368397898 #
face $-1 $-1 $296 $17 $-1 $297 reversed single #
loop $-1 $-1 $143 $135 #
plane-surface $-1 0 0 -12.674781368397898 0 0 1 1 0 0 forward_v I I I I #
coedge $-1 $298 $138 $299 $300 reversed $78 $-1 #
coedge $-1 $138 $298 $224 $301 reversed $78 $-1 #
coedge $-1 $146 $145 $138 $223 reversed $136 $-1 #
edge $-1 $302 -12.674781368397898 $303 12.674781368397898 $222 $304 forward 7 unknown #
coedge $-1 $140 $139 $221 $301 forward $49 $-1 #
edge $-1 $148 -4.4192116221014608 $302 4.4192116221014572 $146 $305 forward 7 unknown #
coedge $-1 $306 $230 $140 $227 reversed $296 $-1 #
edge $-1 $307 -37.240855188008283 $228 -28.402431943805365 $226 $308 forward 7 unknown #
vertex $-1 $231 $309 #
straight-curve $-1 0 28.402431943805365 12.674781368397898 1 0 0 I I #
coedge $-1 $226 $310 $142 $231 forward $296 $-1 #
edge $-1 $234 -12.674781368397898 $228 12.674781368397898 $230 $311 forward 7 unknown #
coedge $-1 $299 $143 $310 $312 forward $218 $-1 #
coedge $-1 $143 $299 $145 $236 forward $218 $-1 #
vertex $-1 $312 $313 #
straight-curve $-1 0 28.402431943805365 -12.674781368397898 -1 0 0 I I #
edge $-1 $303 -4.4192116221014572 $147 4.4192116221014608 $145 $314 forward 7 unknown #
point $-1 -58.104011648643578 28.402431943805365 -12.674781368397898 #
point $-1 -58.104011648643578 28.402431943805365 12.674781368397898 #
plane-surface $-1 0 0 12.674781368397898 0 0 1 1 0 0 forward_v I I I I #
coedge $-1 $250 $249 $242 $315 forward $151 $-1 #
coedge $-1 $242 $153 $155 $246 reversed $86 $-1 #
coedge $-1 $153 $241 $240 $315 reversed $86 $-1 #
coedge $-1 $161 $156 $153 $244 forward $162 $-1 #
edge $-1 $247 -19.674805888993582 $316 -0.93961507232197761 $243 $317 forward 7 unknown #
coedge $-1 $155 $154 $250 $318 reversed $53 $-1 #
edge $-1 $319 0 $247 21.857099414901967 $241 $320 forward 7 unknown #
vertex $-1 $157 $321 #
straight-curve $-1 -43.747184744106008 7.8894996744024848 12.674781368397898 0 1 0 I I #
coedge $-1 $240 $158 $161 $254 reversed $151 $-1 #
coedge $-1 $158 $240 $245 $318 forward $151 $-1 #
vertex $-1 $159 $322 #
straight-curve $-1 -62.482375560777612 11.993989998007496 54.266620350111026 0 0 1 I I #
straight-curve $-1 -62.482375560777612 11.993989998007496 1.4175428128811944 -0.85716729658548041 0 -0.51503808176128008 I I #
edge $-1 $316 -19.564008699602443 $163 -11.993989998007496 $249 $323 forward 7 unknown #
point $-1 -62.482375560777612 11.993989998007496 12.674781368397898 #
point $-1 -43.747184744106008 11.993989998007496 12.674781368397898 #
edge $-1 $324 1 $324 0 $166 $-1 forward 7 unknown #
vertex $-1 $167 $325 #
ellipse-curve $-1 -52.292058411801875 15.77899934880497 5.6769232027988181 -0.51503808176128008 0 0.85716729658548041 0.85716729658548041 0 0.51503808176128008 1 I I #
point $-1 -52.257612855856337 15.77899934880497 7.5612001724008291 #
plane-surface $-1 62.482375560777612 0 0 -1 0 0 0 0 1 forward_v I I I I #
coedge $-1 $175 $173 $177 $266 reversed $101 $-1 #
edge $-1 $188 -12.674781368397898 $268 12.674781368397898 $187 $326 forward 7 unknown #
vertex $-1 $266 $327 #
straight-curve $-1 -62.482375560777612 -28.402431943805365 0 0 0 -1 I I #
edge $-1 $264 -28.402431943805365 $268 28.402431943805365 $262 $328 forward 7 unknown #
straight-curve $-1 0 -28.402431943805365 -12.674781368397898 -1 0 0 I I #
vertex $-1 $180 $329 #
straight-curve $-1 0 28.402431943805365 -12.674781368397898 1 0 0 I I #
point $-1 62.482375560777612 28.402431943805365 -12.674781368397898 #
point $-1 62.482375560777612 -28.402431943805365 -12.674781368397898 #
straight-curve $-1 -62.482375560777612 0 12.674781368397898 0 -1 0 I I #
point $-1 -62.482375560777612 28.402431943805365 12.674781368397898 #
point $-1 -62.482375560777612 -28.402431943805365 12.674781368397898 #
straight-curve $-1 62.482375560777612 -28.402431943805365 0 0 0 -1 I I #
straight-curve $-1 62.482375560777612 28.402431943805365 0 0 0 -1 I I #
plane-surface $-1 0 0 -12.674781368397898 0 0 1 1 0 0 forward_v I I I I #
coedge $-1 $292 $199 $290 $330 reversed $120 $-1 #
coedge $-1 $199 $292 $203 $284 reversed $120 $-1 #
coedge $-1 $201 $200 $199 $281 reversed $70 $-1 #
edge $-1 $285 -12.674781368397898 $331 12.674781368397898 $280 $332 forward 7 unknown #
edge $-1 $331 -37.24085518800829 $211 -28.402431943805365 $200 $333 forward 7 unknown #
straight-curve $-1 -62.482375560777612 -28.402431943805365 0 0 0 -1 I I #
edge $-1 $285 -2.1891819560670172 $287 2.1891819560670172 $279 $334 forward 7 unknown #
vertex $-1 $204 $335 #
straight-curve $-1 -62.482375560777612 0 12.674781368397898 0 -1 0 I I #
vertex $-1 $205 $336 #
straight-curve $-1 -58.104011648643578 -32.821643565906825 12.674781368397898 0 1 0 I I #
point $-1 -62.482375560777612 -28.402431943805365 12.674781368397898 #
coedge $-1 $209 $208 $278 $330 forward $210 $-1 #
point $-1 -62.482375560777612 -28.402431943805365 -12.674781368397898 #
coedge $-1 $279 $278 $213 $293 reversed $120 $-1 #
edge $-1 $287 -12.674781368397898 $294 12.674781368397898 $213 $337 forward 7 unknown #
vertex $-1 $293 $338 #
straight-curve $-1 -58.104011648643578 -32.821643565906825 -12.674781368397898 0 -1 0 I I #
loop $-1 $-1 $230 $217 #
plane-surface $-1 -62.482375560777612 0 0 1 0 0 0 0 -1 forward_v I I I I #
coedge $-1 $221 $220 $306 $339 reversed $78 $-1 #
coedge $-1 $233 $232 $220 $300 forward $218 $-1 #
edge $-1 $340 -2.1891819560670172 $303 2.1891819560670172 $220 $341 forward 7 unknown #
edge $-1 $302 -2.1891819560670172 $307 2.1891819560670172 $221 $342 forward 7 unknown #
vertex $-1 $225 $343 #
vertex $-1 $236 $344 #
straight-curve $-1 -58.104011648643578 37.240855188008283 0 0 0 -1 I I #
straight-curve $-1 -58.104011648643578 32.821643565906825 12.674781368397898 0 1 0 I I #
coedge $-1 $310 $226 $298 $339 forward $296 $-1 #
vertex $-1 $301 $345 #
straight-curve $-1 -62.482375560777612 0 12.674781368397898 0 -1 0 I I #
point $-1 -62.482375560777612 28.402431943805365 12.674781368397898 #
coedge $-1 $230 $306 $232 $312 reversed $296 $-1 #
straight-curve $-1 -62.482375560777612 28.402431943805365 0 0 0 1 I I #
edge $-1 $234 -4.4192116221014608 $340 4.4192116221014572 $310 $346 forward 7 unknown #
point $-1 -62.482375560777612 28.402431943805365 -12.674781368397898 #
straight-curve $-1 -58.104011648643578 32.821643565906825 -12.674781368397898 0 -1 0 I I #
edge $-1 $316 41.591838981713124 $319 52.849077537229832 $240 $347 forward 7 unknown #
vertex $-1 $254 $348 #
straight-curve $-1 -63.42199063309959 19.564008699602443 12.674781368397902 -1 0 0 I I #
edge $-1 $319 -11.674509025199958 $251 -4.1044903236050114 $250 $349 forward 7 unknown #
vertex $-1 $318 $350 #
straight-curve $-1 -62.482375560777612 19.564008699602443 1.4175428128811944 0.85716729658548041 0 0.51503808176128008 I I #
point $-1 -43.747184744106008 19.564008699602443 12.674781368397898 #
point $-1 -62.482375560777612 11.993989998007496 1.4175428128811944 #
straight-curve $-1 -62.482375560777612 0 12.674781368397898 0 -1 0 I I #
vertex $-1 $257 $351 #
point $-1 -51.434891115216395 15.77899934880497 6.1919612845600982 #
straight-curve $-1 -62.482375560777612 28.402431943805365 0 0 0 -1 I I #
point $-1 -62.482375560777612 -28.402431943805365 -12.674781368397898 #
straight-curve $-1 -62.482375560777612 0 -12.674781368397898 0 1 0 I I #
point $-1 -62.482375560777612 28.402431943805365 -12.674781368397898 #
edge $-1 $294 -2.1891819560670172 $331 2.1891819560670172 $278 $352 forward 7 unknown #
vertex $-1 $282 $353 #
straight-curve $-1 -62.482375560777612 -37.24085518800829 0 0 0 -1 I I #
straight-curve $-1 -62.482375560777612 0 -12.674781368397898 0 1 0 I I #
straight-curve $-1 -60.293193604710595 -37.24085518800829 12.674781368397898 1 0 0 I I #
point $-1 -62.482375560777612 -37.24085518800829 12.674781368397898 #
point $-1 -58.104011648643578 -37.24085518800829 12.674781368397898 #
straight-curve $-1 -58.104011648643578 -37.24085518800829 0 0 0 -1 I I #
point $-1 -58.104011648643578 -37.24085518800829 -12.674781368397898 #
edge $-1 $307 -12.674781368397898 $340 12.674781368397898 $298 $354 forward 7 unknown #
vertex $-1 $300 $355 #
straight-curve $-1 -60.293193604710595 37.240855188008283 -12.674781368397898 1 0 0 I I #
straight-curve $-1 -60.293193604710595 37.240855188008283 12.674781368397898 -1 0 0 I I #
point $-1 -58.104011648643578 37.240855188008283 12.674781368397898 #
point $-1 -58.104011648643578 37.240855188008283 -12.674781368397898 #
point $-1 -62.482375560777612 37.240855188008283 12.674781368397898 #
straight-curve $-1 -62.482375560777612 32.821643565906825 -12.674781368397898 0 1 0 I I #
straight-curve $-1 -62.482375560777612 19.564008699602443 54.266620350111026 0 0 -1 I I #
point $-1 -62.482375560777612 19.564008699602443 12.674781368397898 #
straight-curve $-1 -62.482375560777612 7.8894996744024848 1.4175428128811931 0 -1 0 I I #
point $-1 -62.482375560777612 19.564008699602443 1.4175428128811944 #
point $-1 -51.7770203300406 15.77899934880497 4.8197559062133379 #
straight-curve $-1 -60.293193604710595 -37.24085518800829 -12.674781368397898 -1 0 0 I I #
point $-1 -62.482375560777612 -37.24085518800829 -12.674781368397898 #
straight-curve $-1 -62.482375560777612 37.240855188008283 0 0 0 -1 I I #
point $-1 -62.482375560777612 37.240855188008283 -12.674781368397898 #
End-of-ACIS-data 