500 0 11 0           
7 Unknown 11 ACIS 5.0 NT 24 Thu Mar 25 17:13:34 1999 
-1 9.9999999999999995e-007 1e-010 
body $-1 $11 $-1 $12 #
body $-1 $13 $-1 $14 #
body $-1 $15 $-1 $16 #
body $-1 $17 $-1 $18 #
body $-1 $19 $-1 $20 #
body $-1 $21 $-1 $22 #
body $-1 $23 $-1 $24 #
body $-1 $25 $-1 $26 #
body $-1 $27 $-1 $28 #
body $-1 $29 $-1 $30 #
body $-1 $31 $-1 $32 #
lump $-1 $-1 $33 $0 #
transform $-1 1 0 0 0 1 0 0 0 1 52.378307443464465 22.633592661931274 7.447527473423774 1 rotate no_reflect no_shear #
lump $-1 $-1 $34 $1 #
transform $-1 1 0 0 0 1 0 0 0 1 52.378307443464465 22.633592661931274 7.447527473423774 1 rotate no_reflect no_shear #
lump $-1 $-1 $35 $2 #
transform $-1 1 0 0 0 1 0 0 0 1 52.378307443464465 22.633592661931274 7.447527473423774 1 rotate no_reflect no_shear #
lump $-1 $-1 $36 $3 #
transform $-1 1 0 0 0 1 0 0 0 1 52.378307443464465 22.633592661931274 7.447527473423774 1 rotate no_reflect no_shear #
lump $-1 $-1 $37 $4 #
transform $-1 1 0 0 0 1 0 0 0 1 52.378307443464465 22.633592661931274 7.447527473423774 1 rotate no_reflect no_shear #
lump $-1 $-1 $38 $5 #
transform $-1 1 0 0 0 1 0 0 0 1 52.378307443464465 22.633592661931274 7.447527473423774 1 rotate no_reflect no_shear #
lump $-1 $-1 $39 $6 #
transform $-1 1 0 0 0 1 0 0 0 1 52.378307443464465 22.633592661931274 7.447527473423774 1 rotate no_reflect no_shear #
lump $-1 $-1 $40 $7 #
transform $-1 1 0 0 0 1 0 0 0 1 52.378307443464465 22.633592661931274 7.447527473423774 1 rotate no_reflect no_shear #
lump $-1 $-1 $41 $8 #
transform $-1 1 0 0 0 1 0 0 0 1 52.378307443464465 22.633592661931274 7.447527473423774 1 rotate no_reflect no_shear #
lump $-1 $-1 $42 $9 #
transform $-1 1 0 0 0 1 0 0 0 1 52.378307443464465 22.633592661931274 7.447527473423774 1 rotate no_reflect no_shear #
lump $-1 $-1 $43 $10 #
transform $-1 1 0 0 0 1 0 0 0 1 52.378307443464465 22.633592661931274 7.447527473423774 1 rotate no_reflect no_shear #
shell $-1 $-1 $-1 $44 $-1 $11 #
shell $-1 $-1 $-1 $45 $-1 $13 #
shell $-1 $-1 $-1 $46 $-1 $15 #
shell $-1 $-1 $-1 $47 $-1 $17 #
shell $-1 $-1 $-1 $48 $-1 $19 #
shell $-1 $-1 $-1 $49 $-1 $21 #
shell $-1 $-1 $-1 $50 $-1 $23 #
shell $-1 $-1 $-1 $51 $-1 $25 #
shell $-1 $-1 $-1 $52 $-1 $27 #
shell $-1 $-1 $-1 $53 $-1 $29 #
shell $-1 $-1 $-1 $54 $-1 $31 #
face $-1 $55 $56 $33 $-1 $57 forward single #
face $-1 $58 $59 $34 $-1 $60 forward single #
face $-1 $61 $62 $35 $-1 $63 forward single #
face $-1 $64 $65 $36 $-1 $66 reversed single #
face $-1 $67 $68 $37 $-1 $69 forward single #
face $-1 $70 $71 $38 $-1 $72 reversed single #
face $-1 $73 $74 $39 $-1 $75 forward single #
face $-1 $76 $77 $40 $-1 $78 reversed single #
face $-1 $79 $80 $41 $-1 $81 forward single #
face $-1 $82 $83 $42 $-1 $84 reversed single #
face $-1 $85 $86 $43 $-1 $87 forward single #
face $-1 $88 $89 $33 $-1 $90 reversed single #
loop $-1 $-1 $91 $44 #
plane-surface $-1 0 0 7.447527473423774 0 0 1 1 0 0 forward_v I I I I #
face $-1 $92 $93 $34 $-1 $94 reversed single #
loop $-1 $-1 $95 $45 #
plane-surface $-1 -49.829792498478419 0 -0.031034096448546933 0 0 1 1 0 0 forward_v I I I I #
face $-1 $96 $97 $35 $-1 $98 reversed single #
loop $-1 $-1 $99 $46 #
plane-surface $-1 52.378307443464465 0 0 -1 0 0 0 0 1 forward_v I I I I #
face $-1 $100 $101 $36 $-1 $102 reversed single #
loop $-1 $-1 $103 $47 #
plane-surface $-1 -43.347707710850081 -100.48292981719086 70.378585843084778 1 0 0 0 0.74314483375859142 -0.66913059716165679 forward_v I I I I #
face $-1 $104 $105 $37 $-1 $106 forward single #
loop $-1 $107 $108 $48 #
cone-surface $-1 -35.432527208018556 -17.764010474981344 2.384886132712837 0 0.74314483375859142 -0.66913059716165679 1.5 0 0 1 I I 0 1 1.5 forward I I I I #
face $-1 $109 $110 $38 $-1 $111 reversed single #
loop $-1 $-1 $112 $49 #
plane-surface $-1 -20.309545427587921 -100.48292981719086 70.378585843084778 1 0 0 0 0.74314483375859142 -0.66913059716165679 forward_v I I I I #
face $-1 $113 $114 $39 $-1 $115 forward single #
loop $-1 $116 $117 $50 #
cone-surface $-1 -12.394364924756403 -17.764010474981344 2.384886132712837 0 0.74314483375859142 -0.66913059716165679 1.5 0 0 1 I I 0 1 1.5 forward I I I I #
face $-1 $118 $119 $40 $-1 $120 reversed single #
loop $-1 $-1 $121 $51 #
plane-surface $-1 2.7286168556742343 -100.48292981719086 70.378585843084778 1 0 0 0 0.74314483375859142 -0.66913059716165679 forward_v I I I I #
face $-1 $122 $123 $41 $-1 $124 forward single #
loop $-1 $125 $126 $52 #
cone-surface $-1 10.643797358505751 -17.764010474981344 2.384886132712837 0 0.74314483375859142 -0.66913059716165679 1.5 0 0 1 I I 0 1 1.5 forward I I I I #
face $-1 $127 $128 $42 $-1 $129 reversed single #
loop $-1 $-1 $130 $53 #
plane-surface $-1 25.766779138936386 -100.48292981719086 70.378585843084778 1 0 0 0 0.74314483375859142 -0.66913059716165679 forward_v I I I I #
face $-1 $131 $132 $43 $-1 $133 forward single #
loop $-1 $134 $135 $54 #
cone-surface $-1 33.681959641767904 -17.764010474981344 2.384886132712837 0 0.74314483375859142 -0.66913059716165679 1.5 0 0 1 I I 0 1 1.5 forward I I I I #
face $-1 $136 $137 $33 $-1 $138 reversed single #
loop $-1 $-1 $139 $55 #
plane-surface $-1 0 0 -7.447527473423774 0 0 1 1 0 0 forward_v I I I I #
coedge $-1 $140 $141 $142 $143 forward $56 $-1 #
face $-1 $144 $145 $34 $-1 $146 reversed single #
loop $-1 $-1 $147 $58 #
plane-surface $-1 -49.829792498478419 0 -3.0310340964485469 0 0 1 1 0 0 forward_v I I I I #
coedge $-1 $148 $149 $150 $151 forward $59 $-1 #
face $-1 $152 $153 $35 $-1 $154 reversed single #
loop $-1 $-1 $155 $61 #
plane-surface $-1 0 0 -7.447527473423774 0 0 1 1 0 0 forward_v I I I I #
coedge $-1 $156 $157 $158 $159 forward $62 $-1 #
face $-1 $160 $161 $36 $-1 $162 reversed single #
loop $-1 $-1 $163 $64 #
plane-surface $-1 -35.432527208018563 -22.633592661931289 0.28272956716031672 0 -0.74314483375859142 0.66913059716165679 1 0 0 forward_v I I I I #
coedge $-1 $164 $165 $166 $167 reversed $65 $-1 #
face $-1 $-1 $168 $37 $-1 $169 forward single #
loop $-1 $170 $171 $67 #
cone-surface $-1 -35.432527208018556 -15.562676088120284 0.40279579726239234 0 0.74314483375859142 -0.66913059716165679 0.75 0 0 1 I I -0.70710678118654757 0.70710678118654757 0.75 forward I I I I #
loop $-1 $-1 $172 $48 #
coedge $-1 $108 $108 $173 $174 reversed $68 $-1 #
face $-1 $175 $176 $38 $-1 $177 reversed single #
loop $-1 $-1 $178 $70 #
plane-surface $-1 -12.394364924756403 -22.633592661931289 0.28272956716031672 0 -0.74314483375859142 0.66913059716165679 1 0 0 forward_v I I I I #
coedge $-1 $179 $180 $181 $182 reversed $71 $-1 #
face $-1 $-1 $183 $39 $-1 $184 forward single #
loop $-1 $185 $186 $73 #
cone-surface $-1 -12.394364924756403 -15.562676088120284 0.40279579726239234 0 0.74314483375859142 -0.66913059716165679 0.75 0 0 1 I I -0.70710678118654757 0.70710678118654757 0.75 forward I I I I #
loop $-1 $-1 $187 $50 #
coedge $-1 $117 $117 $188 $189 reversed $74 $-1 #
face $-1 $190 $191 $40 $-1 $192 reversed single #
loop $-1 $-1 $193 $76 #
plane-surface $-1 10.643797358505751 -22.633592661931289 0.28272956716031672 0 -0.74314483375859142 0.66913059716165679 1 0 0 forward_v I I I I #
coedge $-1 $194 $195 $196 $197 reversed $77 $-1 #
face $-1 $-1 $198 $41 $-1 $199 forward single #
loop $-1 $200 $201 $79 #
cone-surface $-1 10.643797358505751 -15.562676088120284 0.40279579726239234 0 0.74314483375859142 -0.66913059716165679 0.75 0 0 1 I I -0.70710678118654757 0.70710678118654757 0.75 forward I I I I #
loop $-1 $-1 $202 $52 #
coedge $-1 $126 $126 $203 $204 reversed $80 $-1 #
face $-1 $205 $206 $42 $-1 $207 reversed single #
loop $-1 $-1 $208 $82 #
plane-surface $-1 33.681959641767904 -22.633592661931289 0.28272956716031672 0 -0.74314483375859142 0.66913059716165679 1 0 0 forward_v I I I I #
coedge $-1 $209 $210 $211 $212 reversed $83 $-1 #
face $-1 $-1 $213 $43 $-1 $214 forward single #
loop $-1 $215 $216 $85 #
cone-surface $-1 33.681959641767904 -15.562676088120284 0.40279579726239234 0 0.74314483375859142 -0.66913059716165679 0.75 0 0 1 I I -0.70710678118654757 0.70710678118654757 0.75 forward I I I I #
loop $-1 $-1 $217 $54 #
coedge $-1 $135 $135 $218 $219 reversed $86 $-1 #
face $-1 $220 $221 $33 $-1 $222 reversed single #
loop $-1 $-1 $223 $88 #
plane-surface $-1 0 -22.633592661931274 0 0 1 0 0 0 1 forward_v I I I I #
coedge $-1 $224 $225 $226 $227 forward $89 $-1 #
coedge $-1 $228 $91 $229 $230 forward $56 $-1 #
coedge $-1 $91 $228 $231 $232 forward $56 $-1 #
coedge $-1 $233 $234 $91 $143 reversed $235 $-1 #
edge $-1 $236 -22.633592661931274 $237 22.633592661931274 $142 $238 forward 7 unknown #
face $-1 $239 $240 $34 $-1 $241 reversed single #
loop $-1 $-1 $242 $92 #
plane-surface $-1 -47.281277553492373 0 -1.5310340964485469 -1 0 0 0 0 1 forward_v I I I I #
coedge $-1 $243 $244 $245 $246 forward $93 $-1 #
coedge $-1 $247 $95 $248 $249 reversed $59 $-1 #
coedge $-1 $95 $247 $250 $251 reversed $59 $-1 #
coedge $-1 $242 $252 $95 $151 reversed $145 $-1 #
edge $-1 $253 -22.633592661931274 $254 22.633592661931274 $150 $255 forward 7 unknown #
face $-1 $256 $257 $35 $-1 $258 reversed single #
loop $-1 $-1 $158 $96 #
plane-surface $-1 56.13177537541857 -10.738537715083726 0 0 1 0 0 0 1 forward_v I I I I #
coedge $-1 $259 $260 $157 $261 forward $97 $-1 #
coedge $-1 $262 $99 $263 $264 reversed $62 $-1 #
coedge $-1 $99 $262 $155 $261 reversed $62 $-1 #
coedge $-1 $265 $266 $99 $159 reversed $153 $-1 #
edge $-1 $267 -7.447527473423774 $268 7.447527473423774 $158 $269 forward 7 unknown #
face $-1 $270 $271 $36 $-1 $272 forward single #
loop $-1 $-1 $273 $100 #
plane-surface $-1 -27.517346705187045 -100.48292981719086 70.378585843084778 -1 0 0 0 -0.74314483375859142 0.66913059716165679 forward_v I I I I #
coedge $-1 $274 $275 $276 $277 reversed $101 $-1 #
coedge $-1 $165 $103 $278 $279 reversed $65 $-1 #
coedge $-1 $103 $164 $274 $280 reversed $65 $-1 #
coedge $-1 $276 $281 $103 $167 forward $282 $-1 #
edge $-1 $283 27.741765448118613 $284 34.906563354382058 $166 $285 forward 7 unknown #
loop $-1 $-1 $173 $104 #
plane-surface $-1 -35.432527208018563 -22.633592661931289 0.28272956716031672 0 -0.74314483375859142 0.66913059716165679 1 0 0 forward_v I I I I #
loop $-1 $-1 $286 $67 #
coedge $-1 $171 $171 $172 $287 reversed $105 $-1 #
coedge $-1 $172 $172 $171 $287 forward $107 $-1 #
coedge $-1 $173 $173 $108 $174 forward $168 $-1 #
edge $-1 $288 -4.8118864073841136e-016 $288 6.2831853071795996 $173 $289 forward 7 unknown #
face $-1 $290 $291 $38 $-1 $292 reversed single #
loop $-1 $-1 $293 $109 #
plane-surface $-1 -4.4791844219248862 -100.48292981719086 70.378585843084778 -1 0 0 0 -0.74314483375859142 0.66913059716165679 forward_v I I I I #
coedge $-1 $294 $295 $296 $297 reversed $110 $-1 #
coedge $-1 $180 $112 $298 $299 reversed $71 $-1 #
coedge $-1 $112 $179 $294 $300 reversed $71 $-1 #
coedge $-1 $296 $301 $112 $182 forward $291 $-1 #
edge $-1 $302 27.741765448118613 $303 34.906563354382058 $181 $304 forward 7 unknown #
loop $-1 $-1 $188 $113 #
plane-surface $-1 -12.394364924756403 -22.633592661931289 0.28272956716031672 0 -0.74314483375859142 0.66913059716165679 1 0 0 forward_v I I I I #
loop $-1 $-1 $305 $73 #
coedge $-1 $186 $186 $187 $306 reversed $114 $-1 #
coedge $-1 $187 $187 $186 $306 forward $116 $-1 #
coedge $-1 $188 $188 $117 $189 forward $183 $-1 #
edge $-1 $307 -4.8118864073841136e-016 $307 6.2831853071795996 $188 $308 forward 7 unknown #
face $-1 $309 $310 $40 $-1 $311 reversed single #
loop $-1 $-1 $312 $118 #
plane-surface $-1 18.558977861337269 -100.48292981719086 70.378585843084778 -1 0 0 0 -0.74314483375859142 0.66913059716165679 forward_v I I I I #
coedge $-1 $313 $314 $315 $316 reversed $119 $-1 #
coedge $-1 $195 $121 $317 $318 reversed $77 $-1 #
coedge $-1 $121 $194 $313 $319 reversed $77 $-1 #
coedge $-1 $315 $320 $121 $197 forward $310 $-1 #
edge $-1 $321 27.741765448118613 $322 34.906563354382058 $196 $323 forward 7 unknown #
loop $-1 $-1 $203 $122 #
plane-surface $-1 10.643797358505751 -22.633592661931289 0.28272956716031672 0 -0.74314483375859142 0.66913059716165679 1 0 0 forward_v I I I I #
loop $-1 $-1 $324 $79 #
coedge $-1 $201 $201 $202 $325 reversed $123 $-1 #
coedge $-1 $202 $202 $201 $325 forward $125 $-1 #
coedge $-1 $203 $203 $126 $204 forward $198 $-1 #
edge $-1 $326 -4.8118864073841136e-016 $326 6.2831853071795996 $203 $327 forward 7 unknown #
face $-1 $328 $329 $42 $-1 $330 reversed single #
loop $-1 $-1 $331 $127 #
plane-surface $-1 41.597140144599422 -100.48292981719086 70.378585843084778 -1 0 0 0 -0.74314483375859142 0.66913059716165679 forward_v I I I I #
coedge $-1 $332 $333 $334 $335 reversed $128 $-1 #
coedge $-1 $210 $130 $336 $337 reversed $83 $-1 #
coedge $-1 $130 $209 $332 $338 reversed $83 $-1 #
coedge $-1 $334 $339 $130 $212 forward $329 $-1 #
edge $-1 $340 27.741765448118613 $341 34.906563354382058 $211 $342 forward 7 unknown #
loop $-1 $-1 $218 $131 #
plane-surface $-1 33.681959641767904 -22.633592661931289 0.28272956716031672 0 -0.74314483375859142 0.66913059716165679 1 0 0 forward_v I I I I #
loop $-1 $-1 $343 $85 #
coedge $-1 $216 $216 $217 $344 reversed $132 $-1 #
coedge $-1 $217 $217 $216 $344 forward $134 $-1 #
coedge $-1 $218 $218 $135 $219 forward $213 $-1 #
edge $-1 $345 -4.8118864073841136e-016 $345 6.2831853071795996 $218 $346 forward 7 unknown #
face $-1 $347 $348 $33 $-1 $349 reversed single #
loop $-1 $-1 $350 $136 #
plane-surface $-1 -52.378307443464465 0 0 1 0 0 0 0 -1 forward_v I I I I #
coedge $-1 $351 $231 $352 $353 forward $137 $-1 #
coedge $-1 $354 $139 $351 $355 forward $89 $-1 #
coedge $-1 $139 $354 $356 $357 forward $89 $-1 #
coedge $-1 $234 $233 $139 $227 reversed $235 $-1 #
edge $-1 $358 -22.633592661931274 $359 22.633592661931274 $226 $360 forward 7 unknown #
coedge $-1 $141 $140 $361 $362 forward $56 $-1 #
coedge $-1 $363 $364 $140 $230 reversed $348 $-1 #
edge $-1 $237 -52.378307443464465 $365 52.378307443464465 $229 $366 forward 7 unknown #
coedge $-1 $223 $367 $141 $232 reversed $137 $-1 #
edge $-1 $368 -52.378307443464465 $236 52.378307443464465 $231 $369 forward 7 unknown #
coedge $-1 $226 $142 $367 $370 forward $235 $-1 #
coedge $-1 $142 $226 $363 $371 reversed $235 $-1 #
loop $-1 $-1 $233 $347 #
vertex $-1 $143 $372 #
vertex $-1 $143 $373 #
straight-curve $-1 52.378307443464465 0 7.447527473423774 0 1 0 I I #
face $-1 $374 $375 $34 $-1 $376 reversed single #
loop $-1 $-1 $377 $144 #
plane-surface $-1 0 -22.633592661931274 0 0 1 0 0 0 1 forward_v I I I I #
coedge $-1 $245 $150 $378 $379 reversed $145 $-1 #
coedge $-1 $380 $147 $377 $381 reversed $93 $-1 #
coedge $-1 $147 $380 $382 $383 reversed $93 $-1 #
coedge $-1 $252 $242 $147 $246 reversed $145 $-1 #
edge $-1 $384 -22.633592661931274 $385 22.633592661931274 $245 $386 forward 7 unknown #
coedge $-1 $149 $148 $387 $388 reversed $59 $-1 #
coedge $-1 $389 $390 $148 $249 forward $391 $-1 #
edge $-1 $392 -27.463411194225255 $254 -22.366381304253164 $248 $393 forward 7 unknown #
coedge $-1 $394 $378 $149 $251 forward $240 $-1 #
edge $-1 $253 22.366381304253164 $395 27.463411194225255 $250 $396 forward 7 unknown #
coedge $-1 $150 $245 $389 $397 reversed $145 $-1 #
vertex $-1 $251 $398 #
vertex $-1 $249 $399 #
straight-curve $-1 -47.281277553492373 0 -0.031034096448546933 0 1 0 I I #
face $-1 $400 $401 $35 $-1 $402 reversed single #
loop $-1 $-1 $403 $152 #
plane-surface $-1 56.13177537541857 -7.7385377150837265 0 0 -1 0 0 0 -1 forward_v I I I I #
coedge $-1 $404 $155 $405 $406 forward $97 $-1 #
coedge $-1 $155 $404 $265 $407 forward $97 $-1 #
edge $-1 $267 -10.738537715083726 $408 -7.7385377150837265 $155 $409 forward 7 unknown #
coedge $-1 $157 $156 $410 $411 forward $62 $-1 #
coedge $-1 $412 $413 $156 $264 forward $414 $-1 #
edge $-1 $415 7.7385377150837265 $268 10.738537715083726 $263 $416 forward 7 unknown #
coedge $-1 $417 $158 $260 $407 reversed $153 $-1 #
coedge $-1 $158 $417 $412 $418 reversed $153 $-1 #
vertex $-1 $261 $419 #
vertex $-1 $418 $420 #
straight-curve $-1 52.378307443464465 -10.738537715083726 0 0 0 1 I I #
face $-1 $-1 $282 $36 $-1 $421 reversed single #
loop $-1 $-1 $422 $160 #
plane-surface $-1 0 0 7.447527473423774 0 0 1 1 0 0 forward_v I I I I #
coedge $-1 $423 $424 $425 $426 reversed $161 $-1 #
coedge $-1 $427 $163 $165 $280 forward $101 $-1 #
coedge $-1 $163 $427 $423 $428 forward $101 $-1 #
coedge $-1 $425 $166 $163 $277 forward $282 $-1 #
edge $-1 $284 -25.631444106840799 $429 -9.8010831011777633 $276 $430 forward 7 unknown #
coedge $-1 $431 $432 $164 $279 forward $271 $-1 #
edge $-1 $433 -34.059085097479752 $283 -27.607872246664158 $278 $434 forward 7 unknown #
edge $-1 $284 2.1224720073754982e-014 $433 9.6411864562472616 $165 $435 forward 7 unknown #
coedge $-1 $166 $425 $431 $436 reversed $282 $-1 #
loop $-1 $-1 $425 $270 #
vertex $-1 $436 $437 #
vertex $-1 $167 $438 #
straight-curve $-1 -43.347707710850081 -22.633592661931274 35.189292921542389 0 0 -1 I I #
coedge $-1 $286 $286 $-1 $439 reversed $170 $-1 #
edge $-1 $440 0 $440 6.2831853071796004 $171 $441 forward 7 unknown #
vertex $-1 $174 $442 #
ellipse-curve $-1 -35.432527208018556 -19.407986236523477 3.8651285202920524 0 -0.74314483375859142 0.66913059716165679 1.5 0 0 1 I I #
face $-1 $-1 $443 $38 $-1 $444 forward single #
loop $-1 $-1 $181 $175 #
plane-surface $-1 0 -22.633592661931274 0 0 1 0 0 0 1 forward_v I I I I #
coedge $-1 $445 $446 $447 $448 reversed $176 $-1 #
coedge $-1 $449 $178 $180 $300 forward $110 $-1 #
coedge $-1 $178 $449 $445 $450 forward $110 $-1 #
coedge $-1 $447 $181 $178 $297 forward $291 $-1 #
edge $-1 $303 -14.112362965209719 $451 1.7179980404533151 $296 $452 forward 7 unknown #
coedge $-1 $453 $454 $179 $299 forward $443 $-1 #
edge $-1 $455 -34.059085097479752 $302 -27.607872246664158 $298 $456 forward 7 unknown #
edge $-1 $303 2.1224720073754982e-014 $455 9.6411864562472616 $180 $457 forward 7 unknown #
coedge $-1 $181 $447 $453 $458 reversed $291 $-1 #
vertex $-1 $458 $459 #
vertex $-1 $182 $460 #
straight-curve $-1 -20.309545427587921 -22.633592661931274 35.189292921542389 0 0 -1 I I #
coedge $-1 $305 $305 $-1 $461 reversed $185 $-1 #
edge $-1 $462 0 $462 6.2831853071796004 $186 $463 forward 7 unknown #
vertex $-1 $189 $464 #
ellipse-curve $-1 -12.394364924756403 -19.407986236523477 3.8651285202920524 0 -0.74314483375859142 0.66913059716165679 1.5 0 0 1 I I #
face $-1 $-1 $465 $40 $-1 $466 forward single #
loop $-1 $-1 $196 $190 #
plane-surface $-1 0 -22.633592661931274 0 0 1 0 0 0 1 forward_v I I I I #
coedge $-1 $467 $468 $469 $470 reversed $191 $-1 #
coedge $-1 $471 $193 $195 $319 forward $119 $-1 #
coedge $-1 $193 $471 $467 $472 forward $119 $-1 #
coedge $-1 $469 $196 $193 $316 forward $310 $-1 #
edge $-1 $322 -2.593281823578641 $473 13.237079182084393 $315 $474 forward 7 unknown #
coedge $-1 $475 $476 $194 $318 forward $465 $-1 #
edge $-1 $477 -34.059085097479752 $321 -27.607872246664158 $317 $478 forward 7 unknown #
edge $-1 $322 2.1224720073754982e-014 $477 9.6411864562472616 $195 $479 forward 7 unknown #
coedge $-1 $196 $469 $475 $480 reversed $310 $-1 #
vertex $-1 $480 $481 #
vertex $-1 $197 $482 #
straight-curve $-1 2.7286168556742343 -22.633592661931274 35.189292921542389 0 0 -1 I I #
coedge $-1 $324 $324 $-1 $483 reversed $200 $-1 #
edge $-1 $484 0 $484 6.2831853071796004 $201 $485 forward 7 unknown #
vertex $-1 $204 $486 #
ellipse-curve $-1 10.643797358505751 -19.407986236523477 3.8651285202920524 0 -0.74314483375859142 0.66913059716165679 1.5 0 0 1 I I #
face $-1 $-1 $487 $42 $-1 $488 forward single #
loop $-1 $-1 $211 $205 #
plane-surface $-1 0 -22.633592661931274 0 0 1 0 0 0 1 forward_v I I I I #
coedge $-1 $489 $490 $491 $492 reversed $206 $-1 #
coedge $-1 $493 $208 $210 $338 forward $128 $-1 #
coedge $-1 $208 $493 $489 $494 forward $128 $-1 #
coedge $-1 $491 $211 $208 $335 forward $329 $-1 #
edge $-1 $341 8.9257993180524338 $495 24.75616032371547 $334 $496 forward 7 unknown #
coedge $-1 $497 $498 $209 $337 forward $487 $-1 #
edge $-1 $499 -34.059085097479752 $340 -27.607872246664158 $336 $500 forward 7 unknown #
edge $-1 $341 2.1224720073754982e-014 $499 9.6411864562472616 $210 $501 forward 7 unknown #
coedge $-1 $211 $491 $497 $502 reversed $329 $-1 #
vertex $-1 $502 $503 #
vertex $-1 $212 $504 #
straight-curve $-1 25.766779138936386 -22.633592661931274 35.189292921542389 0 0 -1 I I #
coedge $-1 $343 $343 $-1 $505 reversed $215 $-1 #
edge $-1 $506 0 $506 6.2831853071796004 $216 $507 forward 7 unknown #
vertex $-1 $219 $508 #
ellipse-curve $-1 33.681959641767904 -19.407986236523477 3.8651285202920524 0 -0.74314483375859142 0.66913059716165679 1.5 0 0 1 I I #
face $-1 $-1 $235 $33 $-1 $509 reversed single #
loop $-1 $-1 $363 $220 #
plane-surface $-1 0 22.633592661931274 0 0 -1 0 0 0 -1 forward_v I I I I #
coedge $-1 $510 $361 $364 $511 forward $221 $-1 #
coedge $-1 $367 $223 $224 $355 reversed $137 $-1 #
coedge $-1 $361 $510 $223 $353 reversed $221 $-1 #
edge $-1 $368 -7.447527473423774 $512 7.447527473423774 $352 $513 forward 7 unknown #
coedge $-1 $225 $224 $510 $514 forward $89 $-1 #
edge $-1 $359 -52.378307443464465 $512 52.378307443464465 $351 $515 forward 7 unknown #
coedge $-1 $364 $363 $225 $357 reversed $348 $-1 #
edge $-1 $516 -52.378307443464465 $358 52.378307443464465 $356 $517 forward 7 unknown #
vertex $-1 $227 $518 #
vertex $-1 $370 $519 #
straight-curve $-1 52.378307443464465 0 -7.447527473423774 0 -1 0 I I #
coedge $-1 $350 $352 $228 $362 reversed $221 $-1 #
edge $-1 $365 -22.633592661931274 $368 22.633592661931274 $361 $520 forward 7 unknown #
coedge $-1 $356 $229 $234 $371 forward $348 $-1 #
coedge $-1 $229 $356 $350 $511 reversed $348 $-1 #
vertex $-1 $230 $521 #
straight-curve $-1 0 22.633592661931274 7.447527473423774 -1 0 0 I I #
coedge $-1 $231 $351 $233 $370 reversed $137 $-1 #
vertex $-1 $362 $522 #
straight-curve $-1 0 -22.633592661931274 7.447527473423774 1 0 0 I I #
edge $-1 $236 -7.447527473423774 $359 7.447527473423774 $233 $523 forward 7 unknown #
edge $-1 $237 -7.447527473423774 $358 7.447527473423774 $234 $524 forward 7 unknown #
point $-1 52.378307443464465 -22.633592661931274 7.447527473423774 #
point $-1 52.378307443464465 22.633592661931274 7.447527473423774 #
face $-1 $-1 $391 $34 $-1 $525 reversed single #
loop $-1 $-1 $526 $239 #
plane-surface $-1 -52.378307443464465 0 0 1 0 0 0 0 -1 forward_v I I I I #
coedge $-1 $378 $394 $243 $381 forward $240 $-1 #
coedge $-1 $250 $377 $242 $379 forward $240 $-1 #
edge $-1 $385 -2.2655170482242735 $253 0.73448295177572653 $378 $527 forward 7 unknown #
coedge $-1 $244 $243 $526 $528 reversed $93 $-1 #
edge $-1 $529 -27.463411194225255 $385 -22.366381304253164 $377 $530 forward 7 unknown #
coedge $-1 $390 $389 $244 $383 forward $391 $-1 #
edge $-1 $384 22.366381304253164 $531 27.463411194225255 $382 $532 forward 7 unknown #
vertex $-1 $383 $533 #
vertex $-1 $381 $534 #
straight-curve $-1 -47.281277553492373 0 -3.0310340964485469 0 -1 0 I I #
coedge $-1 $535 $536 $247 $388 forward $375 $-1 #
edge $-1 $395 -22.633592661931274 $392 22.633592661931274 $387 $537 forward 7 unknown #
coedge $-1 $382 $248 $252 $397 forward $391 $-1 #
coedge $-1 $248 $382 $535 $538 reversed $391 $-1 #
loop $-1 $-1 $382 $374 #
vertex $-1 $538 $539 #
straight-curve $-1 -24.914896249239209 22.633592661931274 -0.031034096448546933 1 0 0 I I #
coedge $-1 $377 $250 $536 $540 forward $240 $-1 #
vertex $-1 $540 $541 #
straight-curve $-1 -24.914896249239209 -22.633592661931274 -0.031034096448546933 -1 0 0 I I #
edge $-1 $254 -0.73448295177572653 $384 2.2655170482242735 $389 $542 forward 7 unknown #
point $-1 -47.281277553492373 -22.633592661931274 -0.031034096448546933 #
point $-1 -47.281277553492373 22.633592661931274 -0.031034096448546933 #
face $-1 $-1 $414 $35 $-1 $543 forward single #
loop $-1 $-1 $544 $256 #
plane-surface $-1 59.885243307372676 -9.2385377150837265 0 -1 0 0 0 0 1 forward_v I I I I #
coedge $-1 $405 $545 $546 $547 forward $257 $-1 #
coedge $-1 $260 $259 $548 $549 forward $97 $-1 #
coedge $-1 $410 $403 $259 $406 reversed $257 $-1 #
edge $-1 $408 -3.7534679319541056 $550 3.7534679319541056 $405 $551 forward 7 unknown #
edge $-1 $552 -3.7534679319541056 $267 3.7534679319541056 $265 $553 forward 7 unknown #
vertex $-1 $406 $554 #
straight-curve $-1 52.378307443464465 0 -7.447527473423774 0 1 0 I I #
coedge $-1 $545 $405 $262 $411 reversed $257 $-1 #
edge $-1 $415 -7.447527473423774 $408 7.447527473423774 $410 $555 forward 7 unknown #
coedge $-1 $556 $263 $266 $418 forward $414 $-1 #
coedge $-1 $263 $556 $545 $557 forward $414 $-1 #
loop $-1 $-1 $263 $400 #
vertex $-1 $264 $558 #
straight-curve $-1 52.378307443464465 0 7.447527473423774 0 -1 0 I I #
coedge $-1 $266 $265 $544 $559 reversed $153 $-1 #
edge $-1 $268 -3.7534679319541056 $560 3.7534679319541056 $266 $561 forward 7 unknown #
point $-1 52.378307443464465 -10.738537715083726 -7.447527473423774 #
point $-1 52.378307443464465 -10.738537715083726 7.447527473423774 #
plane-surface $-1 0 -22.633592661931274 0 0 1 0 0 0 1 forward_v I I I I #
coedge $-1 $432 $431 $424 $562 forward $271 $-1 #
coedge $-1 $424 $273 $275 $428 reversed $161 $-1 #
coedge $-1 $273 $423 $422 $562 reversed $161 $-1 #
coedge $-1 $281 $276 $273 $426 forward $282 $-1 #
edge $-1 $429 -34.906563354382058 $563 -27.741765448118613 $425 $564 forward 7 unknown #
coedge $-1 $275 $274 $432 $565 reversed $101 $-1 #
edge $-1 $566 -9.6411864562472616 $429 -2.1224720073754982e-014 $423 $567 forward 7 unknown #
vertex $-1 $277 $568 #
straight-curve $-1 -17.716263604009281 -22.633592661931274 0.28272956716033137 1 0 0 I I #
coedge $-1 $422 $278 $281 $436 forward $271 $-1 #
coedge $-1 $278 $422 $427 $565 forward $271 $-1 #
vertex $-1 $279 $569 #
straight-curve $-1 -43.347707710850081 -50.241464908595432 7.4475274734237757 0 -1 0 I I #
straight-curve $-1 -43.347707710850081 -22.633592661931289 0.28272956716031672 0 0.66913059716165679 0.74314483375859142 I I #
edge $-1 $283 -43.347707710850081 $563 -27.517346705187045 $281 $570 forward 7 unknown #
point $-1 -43.347707710850081 -22.633592661931274 7.447527473423774 #
point $-1 -43.347707710850081 -22.633592661931274 0.28272956716033248 #
edge $-1 $571 1 $571 0 $286 $-1 forward 7 unknown #
vertex $-1 $287 $572 #
ellipse-curve $-1 -35.432527208018556 -16.120034713439228 0.90464374513363488 0 -0.74314483375859142 0.66913059716165679 1.5 0 0 1 I I #
point $-1 -33.932527208018556 -19.407986236523463 3.8651285202920387 #
loop $-1 $-1 $298 $290 #
plane-surface $-1 0 0 7.447527473423774 0 0 1 1 0 0 forward_v I I I I #
coedge $-1 $446 $293 $295 $450 reversed $176 $-1 #
coedge $-1 $293 $445 $573 $574 reversed $176 $-1 #
coedge $-1 $301 $296 $293 $448 forward $291 $-1 #
edge $-1 $451 -34.906563354382058 $575 -27.741765448118613 $447 $576 forward 7 unknown #
coedge $-1 $295 $294 $454 $577 reversed $110 $-1 #
edge $-1 $578 -9.6411864562472616 $451 -2.1224720073754982e-014 $445 $579 forward 7 unknown #
vertex $-1 $297 $580 #
straight-curve $-1 -6.1971824623782013 -22.633592661931274 0.28272956716033137 1 0 0 I I #
coedge $-1 $573 $298 $301 $458 forward $443 $-1 #
coedge $-1 $298 $573 $449 $577 forward $443 $-1 #
vertex $-1 $299 $581 #
straight-curve $-1 -20.309545427587921 -50.241464908595432 7.4475274734237757 0 -1 0 I I #
straight-curve $-1 -20.309545427587921 -22.633592661931289 0.28272956716031672 0 0.66913059716165679 0.74314483375859142 I I #
edge $-1 $302 -20.309545427587921 $575 -4.4791844219248862 $301 $582 forward 7 unknown #
point $-1 -20.309545427587921 -22.633592661931274 7.447527473423774 #
point $-1 -20.309545427587921 -22.633592661931274 0.28272956716033248 #
edge $-1 $583 1 $583 0 $305 $-1 forward 7 unknown #
vertex $-1 $306 $584 #
ellipse-curve $-1 -12.394364924756403 -16.120034713439228 0.90464374513363488 0 -0.74314483375859142 0.66913059716165679 1.5 0 0 1 I I #
point $-1 -10.894364924756403 -19.407986236523463 3.8651285202920387 #
loop $-1 $-1 $317 $309 #
plane-surface $-1 0 0 7.447527473423774 0 0 1 1 0 0 forward_v I I I I #
coedge $-1 $468 $312 $314 $472 reversed $191 $-1 #
coedge $-1 $312 $467 $585 $586 reversed $191 $-1 #
coedge $-1 $320 $315 $312 $470 forward $310 $-1 #
edge $-1 $473 -34.906563354382058 $587 -27.741765448118613 $469 $588 forward 7 unknown #
coedge $-1 $314 $313 $476 $589 reversed $119 $-1 #
edge $-1 $590 -9.6411864562472616 $473 -2.1224720073754982e-014 $467 $591 forward 7 unknown #
vertex $-1 $316 $592 #
straight-curve $-1 5.3218986792528753 -22.633592661931274 0.28272956716033137 1 0 0 I I #
coedge $-1 $585 $317 $320 $480 forward $465 $-1 #
coedge $-1 $317 $585 $471 $589 forward $465 $-1 #
vertex $-1 $318 $593 #
straight-curve $-1 2.7286168556742343 -50.241464908595432 7.4475274734237757 0 -1 0 I I #
straight-curve $-1 2.7286168556742343 -22.633592661931289 0.28272956716031672 0 0.66913059716165679 0.74314483375859142 I I #
edge $-1 $321 2.7286168556742343 $587 18.558977861337269 $320 $594 forward 7 unknown #
point $-1 2.7286168556742343 -22.633592661931274 7.447527473423774 #
point $-1 2.7286168556742343 -22.633592661931274 0.28272956716033248 #
edge $-1 $595 1 $595 0 $324 $-1 forward 7 unknown #
vertex $-1 $325 $596 #
ellipse-curve $-1 10.643797358505751 -16.120034713439228 0.90464374513363488 0 -0.74314483375859142 0.66913059716165679 1.5 0 0 1 I I #
point $-1 12.143797358505751 -19.407986236523463 3.8651285202920387 #
loop $-1 $-1 $336 $328 #
plane-surface $-1 0 0 7.447527473423774 0 0 1 1 0 0 forward_v I I I I #
coedge $-1 $490 $331 $333 $494 reversed $206 $-1 #
coedge $-1 $331 $489 $597 $598 reversed $206 $-1 #
coedge $-1 $339 $334 $331 $492 forward $329 $-1 #
edge $-1 $495 -34.906563354382058 $599 -27.741765448118613 $491 $600 forward 7 unknown #
coedge $-1 $333 $332 $498 $601 reversed $128 $-1 #
edge $-1 $602 -9.6411864562472616 $495 -2.1224720073754982e-014 $489 $603 forward 7 unknown #
vertex $-1 $335 $604 #
straight-curve $-1 16.840979820883952 -22.633592661931274 0.28272956716033137 1 0 0 I I #
coedge $-1 $597 $336 $339 $502 forward $487 $-1 #
coedge $-1 $336 $597 $493 $601 forward $487 $-1 #
vertex $-1 $337 $605 #
straight-curve $-1 25.766779138936386 -50.241464908595432 7.4475274734237757 0 -1 0 I I #
straight-curve $-1 25.766779138936386 -22.633592661931289 0.28272956716031672 0 0.66913059716165679 0.74314483375859142 I I #
edge $-1 $340 25.766779138936386 $599 41.597140144599422 $339 $606 forward 7 unknown #
point $-1 25.766779138936386 -22.633592661931274 7.447527473423774 #
point $-1 25.766779138936386 -22.633592661931274 0.28272956716033248 #
edge $-1 $607 1 $607 0 $343 $-1 forward 7 unknown #
vertex $-1 $344 $608 #
ellipse-curve $-1 33.681959641767904 -16.120034713439228 0.90464374513363488 0 -0.74314483375859142 0.66913059716165679 1.5 0 0 1 I I #
point $-1 35.181959641767904 -19.407986236523463 3.8651285202920387 #
plane-surface $-1 52.378307443464465 0 0 -1 0 0 0 0 1 forward_v I I I I #
coedge $-1 $352 $350 $354 $514 reversed $221 $-1 #
edge $-1 $365 -7.447527473423774 $516 7.447527473423774 $364 $609 forward 7 unknown #
vertex $-1 $514 $610 #
straight-curve $-1 -52.378307443464465 -22.633592661931274 0 0 0 -1 I I #
edge $-1 $512 -22.633592661931274 $516 22.633592661931274 $510 $611 forward 7 unknown #
straight-curve $-1 0 -22.633592661931274 -7.447527473423774 -1 0 0 I I #
vertex $-1 $357 $612 #
straight-curve $-1 0 22.633592661931274 -7.447527473423774 1 0 0 I I #
point $-1 52.378307443464465 22.633592661931274 -7.447527473423774 #
point $-1 52.378307443464465 -22.633592661931274 -7.447527473423774 #
straight-curve $-1 -52.378307443464465 0 7.447527473423774 0 -1 0 I I #
point $-1 -52.378307443464465 22.633592661931274 7.447527473423774 #
point $-1 -52.378307443464465 -22.633592661931274 7.447527473423774 #
straight-curve $-1 52.378307443464465 -22.633592661931274 0 0 0 -1 I I #
straight-curve $-1 52.378307443464465 22.633592661931274 0 0 0 -1 I I #
plane-surface $-1 0 22.633592661931274 0 0 -1 0 0 0 -1 forward_v I I I I #
coedge $-1 $536 $535 $380 $528 forward $375 $-1 #
straight-curve $-1 -47.281277553492373 -22.633592661931274 -0.76551704822427347 0 0 1 I I #
edge $-1 $531 -22.633592661931274 $529 22.633592661931274 $526 $613 forward 7 unknown #
vertex $-1 $381 $614 #
straight-curve $-1 -24.914896249239209 -22.633592661931274 -3.0310340964485469 1 0 0 I I #
vertex $-1 $383 $615 #
straight-curve $-1 -24.914896249239209 22.633592661931274 -3.0310340964485469 -1 0 0 I I #
point $-1 -47.281277553492373 22.633592661931274 -3.0310340964485469 #
point $-1 -47.281277553492373 -22.633592661931274 -3.0310340964485469 #
coedge $-1 $526 $387 $390 $538 forward $375 $-1 #
coedge $-1 $387 $526 $394 $540 reversed $375 $-1 #
straight-curve $-1 -52.378307443464465 0 -0.031034096448546933 0 1 0 I I #
edge $-1 $392 0.031034096448546933 $531 3.0310340964485469 $390 $616 forward 7 unknown #
point $-1 -52.378307443464465 22.633592661931274 -0.031034096448546933 #
edge $-1 $395 0.031034096448546933 $529 3.0310340964485469 $536 $617 forward 7 unknown #
point $-1 -52.378307443464465 -22.633592661931274 -0.031034096448546933 #
straight-curve $-1 -47.281277553492373 22.633592661931274 -0.76551704822427347 0 0 -1 I I #
plane-surface $-1 0 0 7.447527473423774 0 0 1 1 0 0 forward_v I I I I #
coedge $-1 $548 $618 $417 $559 forward $401 $-1 #
coedge $-1 $403 $410 $413 $557 reversed $257 $-1 #
coedge $-1 $618 $548 $403 $547 reversed $401 $-1 #
edge $-1 $619 -7.447527473423774 $550 7.447527473423774 $546 $620 forward 7 unknown #
coedge $-1 $546 $544 $404 $549 reversed $401 $-1 #
edge $-1 $550 -1.5 $552 1.5 $548 $621 forward 7 unknown #
vertex $-1 $549 $622 #
straight-curve $-1 56.13177537541857 -7.7385377150837265 -7.447527473423774 1 0 0 I I #
vertex $-1 $559 $623 #
straight-curve $-1 56.13177537541857 -10.738537715083726 -7.447527473423774 -1 0 0 I I #
point $-1 52.378307443464465 -7.7385377150837265 -7.447527473423774 #
straight-curve $-1 52.378307443464465 -7.7385377150837265 0 0 0 -1 I I #
coedge $-1 $413 $412 $618 $624 forward $414 $-1 #
edge $-1 $619 -3.7534679319541056 $415 3.7534679319541056 $545 $625 forward 7 unknown #
point $-1 52.378307443464465 -7.7385377150837265 7.447527473423774 #
edge $-1 $560 -7.447527473423774 $552 7.447527473423774 $544 $626 forward 7 unknown #
vertex $-1 $624 $627 #
straight-curve $-1 56.13177537541857 -10.738537715083726 7.447527473423774 1 0 0 I I #
edge $-1 $563 27.607872246664158 $566 34.059085097479752 $422 $628 forward 7 unknown #
vertex $-1 $562 $629 #
straight-curve $-1 -27.517346705187045 -22.633592661931274 35.189292921542389 0 0 1 I I #
edge $-1 $566 9.8010831011777633 $433 25.631444106840799 $432 $630 forward 7 unknown #
vertex $-1 $565 $631 #
straight-curve $-1 -27.517346705187045 -22.633592661931289 0.28272956716031672 0 -0.66913059716165679 -0.74314483375859142 I I #
point $-1 -27.517346705187045 -22.633592661931274 0.28272956716033248 #
point $-1 -43.347707710850081 -16.18237981111568 7.447527473423774 #
straight-curve $-1 0 -22.633592661931274 7.447527473423774 1 0 0 I I #
vertex $-1 $439 $632 #
point $-1 -33.932527208018556 -16.120034713439228 0.90464374513363488 #
coedge $-1 $454 $453 $446 $574 forward $443 $-1 #
edge $-1 $575 27.607872246664158 $578 34.059085097479752 $573 $633 forward 7 unknown #
vertex $-1 $574 $634 #
straight-curve $-1 -4.4791844219248862 -22.633592661931274 35.189292921542389 0 0 1 I I #
edge $-1 $578 -1.7179980404533151 $455 14.112362965209719 $454 $635 forward 7 unknown #
vertex $-1 $577 $636 #
straight-curve $-1 -4.4791844219248862 -22.633592661931289 0.28272956716031672 0 -0.66913059716165679 -0.74314483375859142 I I #
point $-1 -4.4791844219248862 -22.633592661931274 0.28272956716033248 #
point $-1 -20.309545427587921 -16.18237981111568 7.447527473423774 #
straight-curve $-1 0 -22.633592661931274 7.447527473423774 1 0 0 I I #
vertex $-1 $461 $637 #
point $-1 -10.894364924756403 -16.120034713439228 0.90464374513363488 #
coedge $-1 $476 $475 $468 $586 forward $465 $-1 #
edge $-1 $587 27.607872246664158 $590 34.059085097479752 $585 $638 forward 7 unknown #
vertex $-1 $586 $639 #
straight-curve $-1 18.558977861337269 -22.633592661931274 35.189292921542389 0 0 1 I I #
edge $-1 $590 -13.237079182084393 $477 2.593281823578641 $476 $640 forward 7 unknown #
vertex $-1 $589 $641 #
straight-curve $-1 18.558977861337269 -22.633592661931289 0.28272956716031672 0 -0.66913059716165679 -0.74314483375859142 I I #
point $-1 18.558977861337269 -22.633592661931274 0.28272956716033248 #
point $-1 2.7286168556742343 -16.18237981111568 7.447527473423774 #
straight-curve $-1 0 -22.633592661931274 7.447527473423774 1 0 0 I I #
vertex $-1 $483 $642 #
point $-1 12.143797358505751 -16.120034713439228 0.90464374513363488 #
coedge $-1 $498 $497 $490 $598 forward $487 $-1 #
edge $-1 $599 27.607872246664158 $602 34.059085097479752 $597 $643 forward 7 unknown #
vertex $-1 $598 $644 #
straight-curve $-1 41.597140144599422 -22.633592661931274 35.189292921542389 0 0 1 I I #
edge $-1 $602 -24.75616032371547 $499 -8.9257993180524338 $498 $645 forward 7 unknown #
vertex $-1 $601 $646 #
straight-curve $-1 41.597140144599422 -22.633592661931289 0.28272956716031672 0 -0.66913059716165679 -0.74314483375859142 I I #
point $-1 41.597140144599422 -22.633592661931274 0.28272956716033248 #
point $-1 25.766779138936386 -16.18237981111568 7.447527473423774 #
straight-curve $-1 0 -22.633592661931274 7.447527473423774 1 0 0 I I #
vertex $-1 $505 $647 #
point $-1 35.181959641767904 -16.120034713439228 0.90464374513363488 #
straight-curve $-1 -52.378307443464465 22.633592661931274 0 0 0 -1 I I #
point $-1 -52.378307443464465 -22.633592661931274 -7.447527473423774 #
straight-curve $-1 -52.378307443464465 0 -7.447527473423774 0 1 0 I I #
point $-1 -52.378307443464465 22.633592661931274 -7.447527473423774 #
straight-curve $-1 -52.378307443464465 0 -3.0310340964485469 0 -1 0 I I #
point $-1 -52.378307443464465 -22.633592661931274 -3.0310340964485469 #
point $-1 -52.378307443464465 22.633592661931274 -3.0310340964485469 #
straight-curve $-1 -52.378307443464465 22.633592661931274 0 0 0 -1 I I #
straight-curve $-1 -52.378307443464465 -22.633592661931274 0 0 0 -1 I I #
coedge $-1 $544 $546 $556 $624 reversed $401 $-1 #
vertex $-1 $624 $648 #
straight-curve $-1 59.885243307372676 -7.7385377150837265 0 0 0 -1 I I #
straight-curve $-1 59.885243307372676 -9.2385377150837265 -7.447527473423774 0 -1 0 I I #
point $-1 59.885243307372676 -7.7385377150837265 -7.447527473423774 #
point $-1 59.885243307372676 -10.738537715083726 -7.447527473423774 #
edge $-1 $560 -1.5 $619 1.5 $618 $649 forward 7 unknown #
straight-curve $-1 56.13177537541857 -7.7385377150837265 7.447527473423774 -1 0 0 I I #
straight-curve $-1 59.885243307372676 -10.738537715083726 0 0 0 -1 I I #
point $-1 59.885243307372676 -10.738537715083726 7.447527473423774 #
straight-curve $-1 -27.517346705187045 -50.241464908595432 7.4475274734237757 0 1 0 I I #
point $-1 -27.517346705187045 -22.633592661931274 7.447527473423774 #
straight-curve $-1 -17.716263604009281 -16.182379811115677 7.447527473423774 -1 0 0 I I #
point $-1 -27.517346705187045 -16.18237981111568 7.447527473423774 #
point $-1 -35.432527208018556 -15.00531746280134 -0.099052150608850198 #
straight-curve $-1 -4.4791844219248862 -50.241464908595432 7.4475274734237757 0 1 0 I I #
point $-1 -4.4791844219248862 -22.633592661931274 7.447527473423774 #
straight-curve $-1 -6.1971824623782013 -16.182379811115677 7.447527473423774 -1 0 0 I I #
point $-1 -4.4791844219248862 -16.18237981111568 7.447527473423774 #
point $-1 -12.394364924756403 -15.00531746280134 -0.099052150608850198 #
straight-curve $-1 18.558977861337269 -50.241464908595432 7.4475274734237757 0 1 0 I I #
point $-1 18.558977861337269 -22.633592661931274 7.447527473423774 #
straight-curve $-1 5.3218986792528753 -16.182379811115677 7.447527473423774 -1 0 0 I I #
point $-1 18.558977861337269 -16.18237981111568 7.447527473423774 #
point $-1 10.643797358505751 -15.00531746280134 -0.099052150608850198 #
straight-curve $-1 41.597140144599422 -50.241464908595432 7.4475274734237757 0 1 0 I I #
point $-1 41.597140144599422 -22.633592661931274 7.447527473423774 #
straight-curve $-1 16.840979820883952 -16.182379811115677 7.447527473423774 -1 0 0 I I #
point $-1 41.597140144599422 -16.18237981111568 7.447527473423774 #
point $-1 33.681959641767904 -15.00531746280134 -0.099052150608850198 #
point $-1 59.885243307372676 -7.7385377150837265 7.447527473423774 #
straight-curve $-1 59.885243307372676 -9.2385377150837265 7.447527473423774 0 1 0 I I #
End-of-ACIS-data 