500 0 19 0           
7 Unknown 11 ACIS 5.0 NT 24 Thu Mar 25 20:13:22 1999 
-1 9.9999999999999995e-007 1e-010 
body $-1 $19 $-1 $20 #
body $-1 $21 $-1 $22 #
body $-1 $23 $-1 $24 #
body $-1 $25 $-1 $26 #
body $-1 $27 $-1 $28 #
body $-1 $29 $-1 $30 #
body $-1 $31 $-1 $32 #
body $-1 $33 $-1 $34 #
body $-1 $35 $-1 $36 #
body $-1 $37 $-1 $38 #
body $-1 $39 $-1 $40 #
body $-1 $41 $-1 $42 #
body $-1 $43 $-1 $44 #
body $-1 $45 $-1 $46 #
body $-1 $47 $-1 $48 #
body $-1 $49 $-1 $50 #
body $-1 $51 $-1 $52 #
body $-1 $53 $-1 $54 #
body $-1 $55 $-1 $56 #
lump $-1 $-1 $57 $0 #
transform $-1 1 0 0 0 1 0 0 0 1 78.93063142796106 47.725727753311688 10.20625910476336 1 rotate no_reflect no_shear #
lump $-1 $-1 $58 $1 #
transform $-1 1 0 0 0 1 0 0 0 1 78.93063142796106 47.725727753311688 10.20625910476336 1 rotate no_reflect no_shear #
lump $-1 $-1 $59 $2 #
transform $-1 1 0 0 0 1 0 0 0 1 78.93063142796106 47.725727753311688 10.20625910476336 1 rotate no_reflect no_shear #
lump $-1 $-1 $60 $3 #
transform $-1 1 0 0 0 1 0 0 0 1 78.93063142796106 47.725727753311688 10.20625910476336 1 rotate no_reflect no_shear #
lump $-1 $-1 $61 $4 #
transform $-1 1 0 0 0 1 0 0 0 1 78.93063142796106 47.725727753311688 10.20625910476336 1 rotate no_reflect no_shear #
lump $-1 $-1 $62 $5 #
transform $-1 1 0 0 0 1 0 0 0 1 78.93063142796106 47.725727753311688 10.20625910476336 1 rotate no_reflect no_shear #
lump $-1 $-1 $63 $6 #
transform $-1 1 0 0 0 1 0 0 0 1 78.93063142796106 47.725727753311688 10.20625910476336 1 rotate no_reflect no_shear #
lump $-1 $-1 $64 $7 #
transform $-1 1 0 0 0 1 0 0 0 1 78.93063142796106 47.725727753311688 10.20625910476336 1 rotate no_reflect no_shear #
lump $-1 $-1 $65 $8 #
transform $-1 1 0 0 0 1 0 0 0 1 78.93063142796106 47.725727753311688 10.20625910476336 1 rotate no_reflect no_shear #
lump $-1 $-1 $66 $9 #
transform $-1 1 0 0 0 1 0 0 0 1 78.93063142796106 47.725727753311688 10.20625910476336 1 rotate no_reflect no_shear #
lump $-1 $-1 $67 $10 #
transform $-1 1 0 0 0 1 0 0 0 1 78.93063142796106 47.725727753311688 10.20625910476336 1 rotate no_reflect no_shear #
lump $-1 $-1 $68 $11 #
transform $-1 1 0 0 0 1 0 0 0 1 78.93063142796106 47.725727753311688 10.20625910476336 1 rotate no_reflect no_shear #
lump $-1 $-1 $69 $12 #
transform $-1 1 0 0 0 1 0 0 0 1 78.93063142796106 47.725727753311688 10.20625910476336 1 rotate no_reflect no_shear #
lump $-1 $-1 $70 $13 #
transform $-1 1 0 0 0 1 0 0 0 1 78.93063142796106 47.725727753311688 10.20625910476336 1 rotate no_reflect no_shear #
lump $-1 $-1 $71 $14 #
transform $-1 1 0 0 0 1 0 0 0 1 78.93063142796106 47.725727753311688 10.20625910476336 1 rotate no_reflect no_shear #
lump $-1 $-1 $72 $15 #
transform $-1 1 0 0 0 1 0 0 0 1 78.93063142796106 47.725727753311688 10.20625910476336 1 rotate no_reflect no_shear #
lump $-1 $-1 $73 $16 #
transform $-1 1 0 0 0 1 0 0 0 1 78.93063142796106 47.725727753311688 10.20625910476336 1 rotate no_reflect no_shear #
lump $-1 $-1 $74 $17 #
transform $-1 1 0 0 0 1 0 0 0 1 78.93063142796106 47.725727753311688 10.20625910476336 1 rotate no_reflect no_shear #
lump $-1 $-1 $75 $18 #
transform $-1 1 0 0 0 1 0 0 0 1 78.93063142796106 47.725727753311688 10.20625910476336 1 rotate no_reflect no_shear #
shell $-1 $-1 $-1 $76 $-1 $19 #
shell $-1 $-1 $-1 $77 $-1 $21 #
shell $-1 $-1 $-1 $78 $-1 $23 #
shell $-1 $-1 $-1 $79 $-1 $25 #
shell $-1 $-1 $-1 $80 $-1 $27 #
shell $-1 $-1 $-1 $81 $-1 $29 #
shell $-1 $-1 $-1 $82 $-1 $31 #
shell $-1 $-1 $-1 $83 $-1 $33 #
shell $-1 $-1 $-1 $84 $-1 $35 #
shell $-1 $-1 $-1 $85 $-1 $37 #
shell $-1 $-1 $-1 $86 $-1 $39 #
shell $-1 $-1 $-1 $87 $-1 $41 #
shell $-1 $-1 $-1 $88 $-1 $43 #
shell $-1 $-1 $-1 $89 $-1 $45 #
shell $-1 $-1 $-1 $90 $-1 $47 #
shell $-1 $-1 $-1 $91 $-1 $49 #
shell $-1 $-1 $-1 $92 $-1 $51 #
shell $-1 $-1 $-1 $93 $-1 $53 #
shell $-1 $-1 $-1 $94 $-1 $55 #
face $-1 $95 $96 $57 $-1 $97 reversed single #
face $-1 $98 $99 $58 $-1 $100 forward single #
face $-1 $101 $102 $59 $-1 $103 forward single #
face $-1 $104 $105 $60 $-1 $106 reversed single #
face $-1 $107 $108 $61 $-1 $109 forward single #
face $-1 $110 $111 $62 $-1 $112 forward single #
face $-1 $113 $114 $63 $-1 $115 forward single #
face $-1 $116 $117 $64 $-1 $118 reversed single #
face $-1 $119 $120 $65 $-1 $121 forward single #
face $-1 $122 $123 $66 $-1 $124 forward single #
face $-1 $125 $126 $67 $-1 $127 forward single #
face $-1 $128 $129 $68 $-1 $130 reversed single #
face $-1 $131 $132 $69 $-1 $133 forward single #
face $-1 $134 $135 $70 $-1 $136 forward single #
face $-1 $137 $138 $71 $-1 $139 forward single #
face $-1 $140 $141 $72 $-1 $142 reversed single #
face $-1 $143 $144 $73 $-1 $145 forward single #
face $-1 $146 $147 $74 $-1 $148 forward single #
face $-1 $149 $150 $75 $-1 $151 forward single #
face $-1 $152 $153 $57 $-1 $154 forward single #
loop $-1 $-1 $155 $76 #
plane-surface $-1 0 -47.725727753311688 0 0 1 0 0 0 1 forward_v I I I I #
face $-1 $156 $157 $58 $-1 $158 forward single #
loop $-1 $-1 $159 $77 #
plane-surface $-1 0 -47.725727753311688 0 0 1 0 0 0 1 forward_v I I I I #
face $-1 $160 $161 $59 $-1 $162 forward single #
loop $-1 $-1 $163 $78 #
plane-surface $-1 0 47.725727753311688 0 0 -1 0 0 0 -1 forward_v I I I I #
face $-1 $164 $165 $60 $-1 $166 reversed single #
loop $-1 $-1 $167 $79 #
plane-surface $-1 129.15085383923585 -22.553311729311091 219.14081157783161 0 -1 0 -0.84804810408105047 0 -0.52991925155115449 forward_v I I I I #
face $-1 $168 $169 $61 $-1 $170 forward single #
loop $-1 $171 $172 $80 #
cone-surface $-1 75.821820533113709 -31.906242020504077 5.6447422483541612 -0.84804810408105047 0 -0.52991925155115449 0.26495962577557725 0 -0.42402405204052523 1 I I 0 1 0.5 forward I I I I #
face $-1 $173 $174 $62 $-1 $175 forward single #
loop $-1 $176 $177 $81 #
cone-surface $-1 75.821820533113709 -28.398893161306706 5.6447422483541612 -0.84804810408105047 0 -0.52991925155115449 0.26495962577557725 0 -0.42402405204052523 1 I I 0 1 0.5 forward I I I I #
face $-1 $178 $179 $63 $-1 $180 forward single #
loop $-1 $181 $182 $82 #
cone-surface $-1 75.821820533113709 -24.891544302109335 5.6447422483541612 -0.84804810408105047 0 -0.52991925155115449 0.26495962577557725 0 -0.42402405204052523 1 I I 0 1 0.5 forward I I I I #
face $-1 $183 $184 $64 $-1 $185 reversed single #
loop $-1 $-1 $186 $83 #
plane-surface $-1 129.15085383923585 -3.3390504847016533 219.14081157783161 0 -1 0 -0.84804810408105047 0 -0.52991925155115449 forward_v I I I I #
face $-1 $187 $188 $65 $-1 $189 forward single #
loop $-1 $190 $191 $84 #
cone-surface $-1 75.821820533113709 -12.691980775894642 5.6447422483541612 -0.84804810408105047 0 -0.52991925155115449 0.26495962577557725 0 -0.42402405204052523 1 I I 0 1 0.5 forward I I I I #
face $-1 $192 $193 $66 $-1 $194 forward single #
loop $-1 $195 $196 $85 #
cone-surface $-1 75.821820533113709 -9.1846319166972705 5.6447422483541612 -0.84804810408105047 0 -0.52991925155115449 0.26495962577557725 0 -0.42402405204052523 1 I I 0 1 0.5 forward I I I I #
face $-1 $197 $198 $67 $-1 $199 forward single #
loop $-1 $200 $201 $86 #
cone-surface $-1 75.821820533113709 -5.6772830574998991 5.6447422483541612 -0.84804810408105047 0 -0.52991925155115449 0.26495962577557725 0 -0.42402405204052523 1 I I 0 1 0.5 forward I I I I #
face $-1 $202 $203 $68 $-1 $204 reversed single #
loop $-1 $-1 $205 $87 #
plane-surface $-1 129.15085383923585 15.875210759907779 219.14081157783161 0 -1 0 -0.84804810408105047 0 -0.52991925155115449 forward_v I I I I #
face $-1 $206 $207 $69 $-1 $208 forward single #
loop $-1 $209 $210 $88 #
cone-surface $-1 75.821820533113709 6.5222804687147971 5.6447422483541612 -0.84804810408105047 0 -0.52991925155115449 0.26495962577557725 0 -0.42402405204052523 1 I I 0 1 0.5 forward I I I I #
face $-1 $211 $212 $70 $-1 $213 forward single #
loop $-1 $214 $215 $89 #
cone-surface $-1 75.821820533113709 10.029629327912161 5.6447422483541612 -0.84804810408105047 0 -0.52991925155115449 0.26495962577557725 0 -0.42402405204052523 1 I I 0 1 0.5 forward I I I I #
face $-1 $216 $217 $71 $-1 $218 forward single #
loop $-1 $219 $220 $90 #
cone-surface $-1 75.821820533113709 13.53697818710954 5.6447422483541612 -0.84804810408105047 0 -0.52991925155115449 0.26495962577557725 0 -0.42402405204052523 1 I I 0 1 0.5 forward I I I I #
face $-1 $221 $222 $72 $-1 $223 reversed single #
loop $-1 $-1 $224 $91 #
plane-surface $-1 129.15085383923585 35.089472004517212 219.14081157783161 0 -1 0 -0.84804810408105047 0 -0.52991925155115449 forward_v I I I I #
face $-1 $225 $226 $73 $-1 $227 forward single #
loop $-1 $228 $229 $92 #
cone-surface $-1 75.821820533113709 25.736541713324229 5.6447422483541612 -0.84804810408105047 0 -0.52991925155115449 0.26495962577557725 0 -0.42402405204052523 1 I I 0 1 0.5 forward I I I I #
face $-1 $230 $231 $74 $-1 $232 forward single #
loop $-1 $233 $234 $93 #
cone-surface $-1 75.821820533113709 29.243890572521593 5.6447422483541612 -0.84804810408105047 0 -0.52991925155115449 0.26495962577557725 0 -0.42402405204052523 1 I I 0 1 0.5 forward I I I I #
face $-1 $235 $236 $75 $-1 $237 forward single #
loop $-1 $238 $239 $94 #
cone-surface $-1 75.821820533113709 32.751239431718972 5.6447422483541612 -0.84804810408105047 0 -0.52991925155115449 0.26495962577557725 0 -0.42402405204052523 1 I I 0 1 0.5 forward I I I I #
face $-1 $240 $241 $57 $-1 $242 reversed single #
loop $-1 $-1 $243 $95 #
plane-surface $-1 0 0 10.20625910476336 0 0 1 1 0 0 forward_v I I I I #
coedge $-1 $244 $245 $246 $247 reversed $96 $-1 #
face $-1 $248 $249 $58 $-1 $250 reversed single #
loop $-1 $-1 $251 $98 #
plane-surface $-1 0 0 10.20625910476336 0 0 1 1 0 0 forward_v I I I I #
coedge $-1 $252 $253 $254 $255 forward $99 $-1 #
face $-1 $256 $257 $59 $-1 $258 reversed single #
loop $-1 $-1 $259 $101 #
plane-surface $-1 0 0 10.20625910476336 0 0 1 1 0 0 forward_v I I I I #
coedge $-1 $260 $261 $262 $263 forward $102 $-1 #
face $-1 $264 $265 $60 $-1 $266 reversed single #
loop $-1 $-1 $267 $104 #
plane-surface $-1 -4.7230908335692448 -28.398893161306709 135.48708931630131 0.84804810408105047 0 0.52991925155115449 0.52991925155115449 0 -0.84804810408105047 forward_v I I I I #
coedge $-1 $268 $269 $270 $271 reversed $105 $-1 #
face $-1 $-1 $272 $61 $-1 $273 forward single #
loop $-1 $274 $275 $107 #
cone-surface $-1 75.185784455052925 -31.906242020504077 5.2473028096907957 -0.84804810408105047 0 -0.52991925155115449 0.13247981288778862 0 -0.21201202602026262 1 I I -0.70710678118654746 0.70710678118654746 0.25 forward I I I I #
loop $-1 $-1 $276 $80 #
coedge $-1 $172 $172 $277 $278 reversed $108 $-1 #
face $-1 $-1 $279 $62 $-1 $280 forward single #
loop $-1 $281 $282 $110 #
cone-surface $-1 75.185784455052925 -28.398893161306706 5.2473028096907957 -0.84804810408105047 0 -0.52991925155115449 0.13247981288778862 0 -0.21201202602026262 1 I I -0.70710678118654746 0.70710678118654746 0.25 forward I I I I #
loop $-1 $-1 $283 $81 #
coedge $-1 $177 $177 $284 $285 reversed $111 $-1 #
face $-1 $-1 $286 $63 $-1 $287 forward single #
loop $-1 $288 $289 $113 #
cone-surface $-1 75.185784455052925 -24.891544302109335 5.2473028096907957 -0.84804810408105047 0 -0.52991925155115449 0.13247981288778862 0 -0.21201202602026262 1 I I -0.70710678118654746 0.70710678118654746 0.25 forward I I I I #
loop $-1 $-1 $290 $82 #
coedge $-1 $182 $182 $291 $292 reversed $114 $-1 #
face $-1 $293 $294 $64 $-1 $295 reversed single #
loop $-1 $-1 $296 $116 #
plane-surface $-1 -4.7230908335692448 -9.1846319166972705 135.48708931630131 0.84804810408105047 0 0.52991925155115449 0.52991925155115449 0 -0.84804810408105047 forward_v I I I I #
coedge $-1 $297 $298 $299 $300 reversed $117 $-1 #
face $-1 $-1 $301 $65 $-1 $302 forward single #
loop $-1 $303 $304 $119 #
cone-surface $-1 75.185784455052925 -12.691980775894642 5.2473028096907957 -0.84804810408105047 0 -0.52991925155115449 0.13247981288778862 0 -0.21201202602026262 1 I I -0.70710678118654746 0.70710678118654746 0.25 forward I I I I #
loop $-1 $-1 $305 $84 #
coedge $-1 $191 $191 $306 $307 reversed $120 $-1 #
face $-1 $-1 $308 $66 $-1 $309 forward single #
loop $-1 $310 $311 $122 #
cone-surface $-1 75.185784455052925 -9.1846319166972705 5.2473028096907957 -0.84804810408105047 0 -0.52991925155115449 0.13247981288778862 0 -0.21201202602026262 1 I I -0.70710678118654746 0.70710678118654746 0.25 forward I I I I #
loop $-1 $-1 $312 $85 #
coedge $-1 $196 $196 $313 $314 reversed $123 $-1 #
face $-1 $-1 $315 $67 $-1 $316 forward single #
loop $-1 $317 $318 $125 #
cone-surface $-1 75.185784455052925 -5.6772830574998991 5.2473028096907957 -0.84804810408105047 0 -0.52991925155115449 0.13247981288778862 0 -0.21201202602026262 1 I I -0.70710678118654746 0.70710678118654746 0.25 forward I I I I #
loop $-1 $-1 $319 $86 #
coedge $-1 $201 $201 $320 $321 reversed $126 $-1 #
face $-1 $322 $323 $68 $-1 $324 reversed single #
loop $-1 $-1 $325 $128 #
plane-surface $-1 -4.7230908335692448 10.029629327912161 135.48708931630131 0.84804810408105047 0 0.52991925155115449 0.52991925155115449 0 -0.84804810408105047 forward_v I I I I #
coedge $-1 $326 $327 $328 $329 reversed $129 $-1 #
face $-1 $-1 $330 $69 $-1 $331 forward single #
loop $-1 $332 $333 $131 #
cone-surface $-1 75.185784455052925 6.5222804687147971 5.2473028096907957 -0.84804810408105047 0 -0.52991925155115449 0.13247981288778862 0 -0.21201202602026262 1 I I -0.70710678118654746 0.70710678118654746 0.25 forward I I I I #
loop $-1 $-1 $334 $88 #
coedge $-1 $210 $210 $335 $336 reversed $132 $-1 #
face $-1 $-1 $337 $70 $-1 $338 forward single #
loop $-1 $339 $340 $134 #
cone-surface $-1 75.185784455052925 10.029629327912161 5.2473028096907957 -0.84804810408105047 0 -0.52991925155115449 0.13247981288778862 0 -0.21201202602026262 1 I I -0.70710678118654746 0.70710678118654746 0.25 forward I I I I #
loop $-1 $-1 $341 $89 #
coedge $-1 $215 $215 $342 $343 reversed $135 $-1 #
face $-1 $-1 $344 $71 $-1 $345 forward single #
loop $-1 $346 $347 $137 #
cone-surface $-1 75.185784455052925 13.53697818710954 5.2473028096907957 -0.84804810408105047 0 -0.52991925155115449 0.13247981288778862 0 -0.21201202602026262 1 I I -0.70710678118654746 0.70710678118654746 0.25 forward I I I I #
loop $-1 $-1 $348 $90 #
coedge $-1 $220 $220 $349 $350 reversed $138 $-1 #
face $-1 $351 $352 $72 $-1 $353 reversed single #
loop $-1 $-1 $354 $140 #
plane-surface $-1 -4.7230908335692448 29.243890572521593 135.48708931630131 0.84804810408105047 0 0.52991925155115449 0.52991925155115449 0 -0.84804810408105047 forward_v I I I I #
coedge $-1 $355 $356 $357 $358 reversed $141 $-1 #
face $-1 $-1 $359 $73 $-1 $360 forward single #
loop $-1 $361 $362 $143 #
cone-surface $-1 75.185784455052925 25.736541713324229 5.2473028096907957 -0.84804810408105047 0 -0.52991925155115449 0.13247981288778862 0 -0.21201202602026262 1 I I -0.70710678118654746 0.70710678118654746 0.25 forward I I I I #
loop $-1 $-1 $363 $92 #
coedge $-1 $229 $229 $364 $365 reversed $144 $-1 #
face $-1 $-1 $366 $74 $-1 $367 forward single #
loop $-1 $368 $369 $146 #
cone-surface $-1 75.185784455052925 29.243890572521593 5.2473028096907957 -0.84804810408105047 0 -0.52991925155115449 0.13247981288778862 0 -0.21201202602026262 1 I I -0.70710678118654746 0.70710678118654746 0.25 forward I I I I #
loop $-1 $-1 $370 $93 #
coedge $-1 $234 $234 $371 $372 reversed $147 $-1 #
face $-1 $-1 $373 $75 $-1 $374 forward single #
loop $-1 $375 $376 $149 #
cone-surface $-1 75.185784455052925 32.751239431718972 5.2473028096907957 -0.84804810408105047 0 -0.52991925155115449 0.13247981288778862 0 -0.21201202602026262 1 I I -0.70710678118654746 0.70710678118654746 0.25 forward I I I I #
loop $-1 $-1 $377 $94 #
coedge $-1 $239 $239 $378 $379 reversed $150 $-1 #
face $-1 $380 $381 $57 $-1 $382 reversed single #
loop $-1 $-1 $383 $152 #
plane-surface $-1 0 0 -10.20625910476336 0 0 1 1 0 0 forward_v I I I I #
coedge $-1 $384 $385 $386 $387 forward $153 $-1 #
coedge $-1 $388 $155 $389 $390 reversed $96 $-1 #
coedge $-1 $155 $388 $391 $392 forward $96 $-1 #
coedge $-1 $393 $383 $155 $247 forward $241 $-1 #
edge $-1 $394 -78.93063142796106 $395 78.93063142796106 $155 $396 forward 7 unknown #
face $-1 $397 $398 $58 $-1 $399 reversed single #
loop $-1 $-1 $400 $156 #
plane-surface $-1 -78.93063142796106 0 0 1 0 0 0 0 -1 forward_v I I I I #
coedge $-1 $401 $402 $253 $403 forward $157 $-1 #
coedge $-1 $404 $159 $405 $406 reversed $99 $-1 #
coedge $-1 $159 $404 $251 $403 reversed $99 $-1 #
coedge $-1 $407 $408 $159 $255 reversed $409 $-1 #
edge $-1 $410 -10.20625910476336 $411 10.20625910476336 $254 $412 forward 7 unknown #
face $-1 $413 $414 $59 $-1 $415 reversed single #
loop $-1 $-1 $416 $160 #
plane-surface $-1 -76.484113219447494 57.022933017404497 0 0 -1 0 0 0 -1 forward_v I I I I #
coedge $-1 $417 $418 $260 $419 forward $161 $-1 #
coedge $-1 $420 $163 $259 $419 reversed $102 $-1 #
coedge $-1 $163 $420 $421 $422 reversed $102 $-1 #
coedge $-1 $423 $424 $163 $263 reversed $414 $-1 #
edge $-1 $425 -10.20625910476336 $426 10.20625910476336 $262 $427 forward 7 unknown #
face $-1 $428 $429 $60 $-1 $430 forward single #
loop $-1 $-1 $431 $164 #
plane-surface $-1 129.15085383923585 -34.244474593302328 219.14081157783161 0 1 0 0.84804810408105047 0 0.52991925155115449 forward_v I I I I #
coedge $-1 $432 $433 $434 $435 reversed $165 $-1 #
coedge $-1 $269 $167 $436 $437 reversed $105 $-1 #
coedge $-1 $167 $268 $432 $438 reversed $105 $-1 #
coedge $-1 $434 $439 $167 $271 forward $429 $-1 #
edge $-1 $440 -14.355204508343135 $441 -8.9856308227295756 $270 $442 forward 7 unknown #
loop $-1 $-1 $277 $168 #
plane-surface $-1 -4.7230908335692448 -28.398893161306709 135.48708931630131 0.84804810408105047 0 0.52991925155115449 0.52991925155115449 0 -0.84804810408105047 forward_v I I I I #
loop $-1 $-1 $443 $107 #
coedge $-1 $275 $275 $276 $444 reversed $169 $-1 #
coedge $-1 $276 $276 $275 $444 forward $171 $-1 #
coedge $-1 $277 $277 $172 $278 forward $272 $-1 #
edge $-1 $445 0 $445 6.2831853071796004 $277 $446 forward 7 unknown #
loop $-1 $-1 $284 $173 #
plane-surface $-1 -4.7230908335692448 -28.398893161306709 135.48708931630131 0.84804810408105047 0 0.52991925155115449 0.52991925155115449 0 -0.84804810408105047 forward_v I I I I #
loop $-1 $-1 $447 $110 #
coedge $-1 $282 $282 $283 $448 reversed $174 $-1 #
coedge $-1 $283 $283 $282 $448 forward $176 $-1 #
coedge $-1 $284 $284 $177 $285 forward $279 $-1 #
edge $-1 $449 0 $449 6.2831853071796004 $284 $450 forward 7 unknown #
loop $-1 $-1 $291 $178 #
plane-surface $-1 -4.7230908335692448 -28.398893161306709 135.48708931630131 0.84804810408105047 0 0.52991925155115449 0.52991925155115449 0 -0.84804810408105047 forward_v I I I I #
loop $-1 $-1 $451 $113 #
coedge $-1 $289 $289 $290 $452 reversed $179 $-1 #
coedge $-1 $290 $290 $289 $452 forward $181 $-1 #
coedge $-1 $291 $291 $182 $292 forward $286 $-1 #
edge $-1 $453 0 $453 6.2831853071796004 $291 $454 forward 7 unknown #
face $-1 $455 $456 $64 $-1 $457 reversed single #
loop $-1 $-1 $458 $183 #
plane-surface $-1 129.15085383923585 -15.030213348692888 219.14081157783161 0 1 0 0.84804810408105047 0 0.52991925155115449 forward_v I I I I #
coedge $-1 $459 $460 $461 $462 reversed $184 $-1 #
coedge $-1 $298 $186 $463 $464 reversed $117 $-1 #
coedge $-1 $186 $297 $459 $465 reversed $117 $-1 #
coedge $-1 $461 $466 $186 $300 forward $467 $-1 #
edge $-1 $468 -14.355204508343135 $469 -8.9856308227295756 $299 $470 forward 7 unknown #
loop $-1 $-1 $306 $187 #
plane-surface $-1 -4.7230908335692448 -9.1846319166972705 135.48708931630131 0.84804810408105047 0 0.52991925155115449 0.52991925155115449 0 -0.84804810408105047 forward_v I I I I #
loop $-1 $-1 $471 $119 #
coedge $-1 $304 $304 $305 $472 reversed $188 $-1 #
coedge $-1 $305 $305 $304 $472 forward $190 $-1 #
coedge $-1 $306 $306 $191 $307 forward $301 $-1 #
edge $-1 $473 0 $473 6.2831853071796004 $306 $474 forward 7 unknown #
loop $-1 $-1 $313 $192 #
plane-surface $-1 -4.7230908335692448 -9.1846319166972705 135.48708931630131 0.84804810408105047 0 0.52991925155115449 0.52991925155115449 0 -0.84804810408105047 forward_v I I I I #
loop $-1 $-1 $475 $122 #
coedge $-1 $311 $311 $312 $476 reversed $193 $-1 #
coedge $-1 $312 $312 $311 $476 forward $195 $-1 #
coedge $-1 $313 $313 $196 $314 forward $308 $-1 #
edge $-1 $477 0 $477 6.2831853071796004 $313 $478 forward 7 unknown #
loop $-1 $-1 $320 $197 #
plane-surface $-1 -4.7230908335692448 -9.1846319166972705 135.48708931630131 0.84804810408105047 0 0.52991925155115449 0.52991925155115449 0 -0.84804810408105047 forward_v I I I I #
loop $-1 $-1 $479 $125 #
coedge $-1 $318 $318 $319 $480 reversed $198 $-1 #
coedge $-1 $319 $319 $318 $480 forward $200 $-1 #
coedge $-1 $320 $320 $201 $321 forward $315 $-1 #
edge $-1 $481 0 $481 6.2831853071796004 $320 $482 forward 7 unknown #
face $-1 $483 $484 $68 $-1 $485 reversed single #
loop $-1 $-1 $486 $202 #
plane-surface $-1 129.15085383923585 4.1840478959165441 219.14081157783161 0 1 0 0.84804810408105047 0 0.52991925155115449 forward_v I I I I #
coedge $-1 $487 $488 $489 $490 reversed $203 $-1 #
coedge $-1 $327 $205 $491 $492 reversed $129 $-1 #
coedge $-1 $205 $326 $487 $493 reversed $129 $-1 #
coedge $-1 $489 $494 $205 $329 forward $495 $-1 #
edge $-1 $496 -14.355204508343135 $497 -8.9856308227295756 $328 $498 forward 7 unknown #
loop $-1 $-1 $335 $206 #
plane-surface $-1 -4.7230908335692448 10.029629327912161 135.48708931630131 0.84804810408105047 0 0.52991925155115449 0.52991925155115449 0 -0.84804810408105047 forward_v I I I I #
loop $-1 $-1 $499 $131 #
coedge $-1 $333 $333 $334 $500 reversed $207 $-1 #
coedge $-1 $334 $334 $333 $500 forward $209 $-1 #
coedge $-1 $335 $335 $210 $336 forward $330 $-1 #
edge $-1 $501 0 $501 6.2831853071796004 $335 $502 forward 7 unknown #
loop $-1 $-1 $342 $211 #
plane-surface $-1 -4.7230908335692448 10.029629327912161 135.48708931630131 0.84804810408105047 0 0.52991925155115449 0.52991925155115449 0 -0.84804810408105047 forward_v I I I I #
loop $-1 $-1 $503 $134 #
coedge $-1 $340 $340 $341 $504 reversed $212 $-1 #
coedge $-1 $341 $341 $340 $504 forward $214 $-1 #
coedge $-1 $342 $342 $215 $343 forward $337 $-1 #
edge $-1 $505 0 $505 6.2831853071796004 $342 $506 forward 7 unknown #
loop $-1 $-1 $349 $216 #
plane-surface $-1 -4.7230908335692448 10.029629327912161 135.48708931630131 0.84804810408105047 0 0.52991925155115449 0.52991925155115449 0 -0.84804810408105047 forward_v I I I I #
loop $-1 $-1 $507 $137 #
coedge $-1 $347 $347 $348 $508 reversed $217 $-1 #
coedge $-1 $348 $348 $347 $508 forward $219 $-1 #
coedge $-1 $349 $349 $220 $350 forward $344 $-1 #
edge $-1 $509 0 $509 6.2831853071796004 $349 $510 forward 7 unknown #
face $-1 $511 $512 $72 $-1 $513 reversed single #
loop $-1 $-1 $514 $221 #
plane-surface $-1 129.15085383923585 23.398309140525974 219.14081157783161 0 1 0 0.84804810408105047 0 0.52991925155115449 forward_v I I I I #
coedge $-1 $515 $516 $517 $518 reversed $222 $-1 #
coedge $-1 $356 $224 $519 $520 reversed $141 $-1 #
coedge $-1 $224 $355 $515 $521 reversed $141 $-1 #
coedge $-1 $517 $522 $224 $358 forward $523 $-1 #
edge $-1 $524 -14.355204508343135 $525 -8.9856308227295756 $357 $526 forward 7 unknown #
loop $-1 $-1 $364 $225 #
plane-surface $-1 -4.7230908335692448 29.243890572521593 135.48708931630131 0.84804810408105047 0 0.52991925155115449 0.52991925155115449 0 -0.84804810408105047 forward_v I I I I #
loop $-1 $-1 $527 $143 #
coedge $-1 $362 $362 $363 $528 reversed $226 $-1 #
coedge $-1 $363 $363 $362 $528 forward $228 $-1 #
coedge $-1 $364 $364 $229 $365 forward $359 $-1 #
edge $-1 $529 0 $529 6.2831853071796004 $364 $530 forward 7 unknown #
loop $-1 $-1 $371 $230 #
plane-surface $-1 -4.7230908335692448 29.243890572521593 135.48708931630131 0.84804810408105047 0 0.52991925155115449 0.52991925155115449 0 -0.84804810408105047 forward_v I I I I #
loop $-1 $-1 $531 $146 #
coedge $-1 $369 $369 $370 $532 reversed $231 $-1 #
coedge $-1 $370 $370 $369 $532 forward $233 $-1 #
coedge $-1 $371 $371 $234 $372 forward $366 $-1 #
edge $-1 $533 0 $533 6.2831853071796004 $371 $534 forward 7 unknown #
loop $-1 $-1 $378 $235 #
plane-surface $-1 -4.7230908335692448 29.243890572521593 135.48708931630131 0.84804810408105047 0 0.52991925155115449 0.52991925155115449 0 -0.84804810408105047 forward_v I I I I #
loop $-1 $-1 $535 $149 #
coedge $-1 $376 $376 $377 $536 reversed $236 $-1 #
coedge $-1 $377 $377 $376 $536 forward $238 $-1 #
coedge $-1 $378 $378 $239 $379 forward $373 $-1 #
edge $-1 $537 0 $537 6.2831853071796004 $378 $538 forward 7 unknown #
face $-1 $539 $540 $57 $-1 $541 reversed single #
loop $-1 $-1 $542 $240 #
plane-surface $-1 -78.93063142796106 0 0 1 0 0 0 0 -1 forward_v I I I I #
coedge $-1 $246 $543 $544 $545 forward $241 $-1 #
coedge $-1 $546 $243 $547 $548 forward $153 $-1 #
coedge $-1 $243 $546 $388 $549 forward $153 $-1 #
coedge $-1 $389 $550 $243 $387 reversed $551 $-1 #
edge $-1 $552 -47.725727753311688 $553 47.725727753311688 $386 $554 forward 7 unknown #
coedge $-1 $245 $244 $385 $549 reversed $96 $-1 #
coedge $-1 $544 $386 $244 $390 forward $551 $-1 #
edge $-1 $552 -10.20625910476336 $394 10.20625910476336 $389 $555 forward 7 unknown #
coedge $-1 $556 $557 $245 $392 reversed $381 $-1 #
edge $-1 $558 -10.20625910476336 $395 10.20625910476336 $391 $559 forward 7 unknown #
coedge $-1 $543 $246 $557 $560 forward $241 $-1 #
vertex $-1 $390 $561 #
vertex $-1 $560 $562 #
straight-curve $-1 0 -47.725727753311688 -10.20625910476336 -1 0 0 I I #
face $-1 $563 $409 $58 $-1 $564 reversed single #
loop $-1 $-1 $565 $248 #
plane-surface $-1 -76.484113219447494 -57.022933017404497 0 0 1 0 0 0 1 forward_v I I I I #
coedge $-1 $566 $567 $404 $568 forward $249 $-1 #
coedge $-1 $569 $251 $567 $570 forward $157 $-1 #
coedge $-1 $251 $569 $407 $571 forward $157 $-1 #
edge $-1 $410 74.037595010933927 $572 78.93063142796106 $251 $573 forward 7 unknown #
coedge $-1 $253 $252 $400 $568 reversed $99 $-1 #
coedge $-1 $574 $575 $252 $406 forward $576 $-1 #
edge $-1 $577 -78.93063142796106 $411 -74.037595010933927 $405 $578 forward 7 unknown #
coedge $-1 $579 $254 $402 $571 reversed $409 $-1 #
coedge $-1 $254 $579 $574 $580 reversed $409 $-1 #
loop $-1 $-1 $579 $397 #
vertex $-1 $403 $581 #
vertex $-1 $580 $582 #
straight-curve $-1 -74.037595010933927 -47.725727753311688 0 0 0 -1 I I #
face $-1 $583 $584 $59 $-1 $585 reversed single #
loop $-1 $-1 $262 $256 #
plane-surface $-1 -74.037595010933927 52.374330385358093 0 -1 0 0 0 0 1 forward_v I I I I #
coedge $-1 $586 $587 $588 $589 forward $257 $-1 #
coedge $-1 $590 $259 $424 $591 forward $161 $-1 #
coedge $-1 $259 $590 $592 $593 forward $161 $-1 #
edge $-1 $594 -78.93063142796106 $426 -74.037595010933927 $259 $595 forward 7 unknown #
coedge $-1 $261 $260 $596 $597 reversed $102 $-1 #
coedge $-1 $598 $599 $261 $422 forward $584 $-1 #
edge $-1 $425 74.037595010933927 $600 78.93063142796106 $421 $601 forward 7 unknown #
coedge $-1 $588 $262 $599 $602 reversed $414 $-1 #
coedge $-1 $262 $588 $417 $591 reversed $414 $-1 #
vertex $-1 $422 $603 #
vertex $-1 $591 $604 #
straight-curve $-1 -74.037595010933927 47.725727753311688 0 0 0 1 I I #
face $-1 $-1 $605 $60 $-1 $606 reversed single #
loop $-1 $-1 $270 $264 #
plane-surface $-1 0 0 10.20625910476336 0 0 1 1 0 0 forward_v I I I I #
coedge $-1 $607 $608 $609 $610 reversed $265 $-1 #
coedge $-1 $611 $267 $269 $438 forward $165 $-1 #
coedge $-1 $267 $611 $607 $612 forward $165 $-1 #
coedge $-1 $609 $270 $267 $435 forward $429 $-1 #
edge $-1 $441 8.3538651486577358 $613 20.045028012648974 $434 $614 forward 7 unknown #
coedge $-1 $615 $616 $268 $437 forward $605 $-1 #
edge $-1 $617 -107.95726114541959 $440 -99.364146684152445 $436 $618 forward 7 unknown #
edge $-1 $441 147.72844796026394 $617 157.86126285592209 $269 $619 forward 7 unknown #
coedge $-1 $270 $609 $615 $620 forward $429 $-1 #
vertex $-1 $271 $621 #
vertex $-1 $271 $622 #
straight-curve $-1 64.575426919617925 -22.553311729311091 10.206259104763362 -1 0 0 I I #
coedge $-1 $443 $443 $-1 $623 reversed $274 $-1 #
edge $-1 $624 0 $624 6.2831853071796004 $275 $625 forward 7 unknown #
vertex $-1 $278 $626 #
ellipse-curve $-1 76.245844585154288 -31.906242020504077 5.9097018741297758 0.84804810408105047 0 0.52991925155115449 0.26495962577557725 0 -0.42402405204052523 1 I I #
coedge $-1 $447 $447 $-1 $627 reversed $281 $-1 #
edge $-1 $628 0 $628 6.2831853071796004 $282 $629 forward 7 unknown #
vertex $-1 $285 $630 #
ellipse-curve $-1 76.245844585154288 -28.398893161306706 5.9097018741297758 0.84804810408105047 0 0.52991925155115449 0.26495962577557725 0 -0.42402405204052523 1 I I #
coedge $-1 $451 $451 $-1 $631 reversed $288 $-1 #
edge $-1 $632 0 $632 6.2831853071796004 $289 $633 forward 7 unknown #
vertex $-1 $292 $634 #
ellipse-curve $-1 76.245844585154288 -24.891544302109335 5.9097018741297758 0.84804810408105047 0 0.52991925155115449 0.26495962577557725 0 -0.42402405204052523 1 I I #
face $-1 $-1 $467 $64 $-1 $635 forward single #
loop $-1 $-1 $636 $293 #
plane-surface $-1 78.93063142796106 0 0 -1 0 0 0 0 1 forward_v I I I I #
coedge $-1 $637 $638 $639 $640 reversed $294 $-1 #
coedge $-1 $641 $296 $298 $465 forward $184 $-1 #
coedge $-1 $296 $641 $637 $642 forward $184 $-1 #
coedge $-1 $639 $299 $296 $462 forward $467 $-1 #
edge $-1 $469 -1.2532654736469819 $643 10.437897390344252 $461 $644 forward 7 unknown #
coedge $-1 $645 $646 $297 $464 forward $456 $-1 #
edge $-1 $647 -107.95726114541959 $468 -99.364146684152445 $463 $648 forward 7 unknown #
edge $-1 $469 147.72844796026394 $647 157.86126285592209 $298 $649 forward 7 unknown #
coedge $-1 $299 $639 $645 $650 forward $467 $-1 #
loop $-1 $-1 $639 $455 #
vertex $-1 $464 $651 #
vertex $-1 $300 $652 #
straight-curve $-1 64.575426919617925 -3.3390504847016533 10.206259104763362 -1 0 0 I I #
coedge $-1 $471 $471 $-1 $653 reversed $303 $-1 #
edge $-1 $654 0 $654 6.2831853071796004 $304 $655 forward 7 unknown #
vertex $-1 $307 $656 #
ellipse-curve $-1 76.245844585154288 -12.691980775894642 5.9097018741297758 0.84804810408105047 0 0.52991925155115449 0.26495962577557725 0 -0.42402405204052523 1 I I #
coedge $-1 $475 $475 $-1 $657 reversed $310 $-1 #
edge $-1 $658 0 $658 6.2831853071796004 $311 $659 forward 7 unknown #
vertex $-1 $314 $660 #
ellipse-curve $-1 76.245844585154288 -9.1846319166972705 5.9097018741297758 0.84804810408105047 0 0.52991925155115449 0.26495962577557725 0 -0.42402405204052523 1 I I #
coedge $-1 $479 $479 $-1 $661 reversed $317 $-1 #
edge $-1 $662 0 $662 6.2831853071796004 $318 $663 forward 7 unknown #
vertex $-1 $321 $664 #
ellipse-curve $-1 76.245844585154288 -5.6772830574998991 5.9097018741297758 0.84804810408105047 0 0.52991925155115449 0.26495962577557725 0 -0.42402405204052523 1 I I #
face $-1 $-1 $495 $68 $-1 $665 forward single #
loop $-1 $-1 $666 $322 #
plane-surface $-1 78.93063142796106 0 0 -1 0 0 0 0 1 forward_v I I I I #
coedge $-1 $667 $668 $669 $670 reversed $323 $-1 #
coedge $-1 $671 $325 $327 $493 forward $203 $-1 #
coedge $-1 $325 $671 $667 $672 forward $203 $-1 #
coedge $-1 $669 $328 $325 $490 forward $495 $-1 #
edge $-1 $497 -10.860396095951698 $673 0.83076676803953653 $489 $674 forward 7 unknown #
coedge $-1 $675 $676 $326 $492 forward $484 $-1 #
edge $-1 $677 -107.95726114541959 $496 -99.364146684152445 $491 $678 forward 7 unknown #
edge $-1 $497 147.72844796026394 $677 157.86126285592209 $327 $679 forward 7 unknown #
coedge $-1 $328 $669 $675 $680 forward $495 $-1 #
loop $-1 $-1 $669 $483 #
vertex $-1 $492 $681 #
vertex $-1 $329 $682 #
straight-curve $-1 64.575426919617925 15.875210759907779 10.206259104763362 -1 0 0 I I #
coedge $-1 $499 $499 $-1 $683 reversed $332 $-1 #
edge $-1 $684 0 $684 6.2831853071796004 $333 $685 forward 7 unknown #
vertex $-1 $336 $686 #
ellipse-curve $-1 76.245844585154288 6.5222804687147971 5.9097018741297758 0.84804810408105047 0 0.52991925155115449 0.26495962577557725 0 -0.42402405204052523 1 I I #
coedge $-1 $503 $503 $-1 $687 reversed $339 $-1 #
edge $-1 $688 0 $688 6.2831853071796004 $340 $689 forward 7 unknown #
vertex $-1 $343 $690 #
ellipse-curve $-1 76.245844585154288 10.029629327912161 5.9097018741297758 0.84804810408105047 0 0.52991925155115449 0.26495962577557725 0 -0.42402405204052523 1 I I #
coedge $-1 $507 $507 $-1 $691 reversed $346 $-1 #
edge $-1 $692 0 $692 6.2831853071796004 $347 $693 forward 7 unknown #
vertex $-1 $350 $694 #
ellipse-curve $-1 76.245844585154288 13.53697818710954 5.9097018741297758 0.84804810408105047 0 0.52991925155115449 0.26495962577557725 0 -0.42402405204052523 1 I I #
face $-1 $-1 $523 $72 $-1 $695 forward single #
loop $-1 $-1 $696 $351 #
plane-surface $-1 78.93063142796106 0 0 -1 0 0 0 0 1 forward_v I I I I #
coedge $-1 $697 $698 $699 $700 reversed $352 $-1 #
coedge $-1 $701 $354 $356 $521 forward $222 $-1 #
coedge $-1 $354 $701 $697 $702 forward $222 $-1 #
coedge $-1 $699 $357 $354 $518 forward $523 $-1 #
edge $-1 $525 -20.467526718256416 $703 -8.7763638542651776 $517 $704 forward 7 unknown #
coedge $-1 $705 $706 $355 $520 forward $512 $-1 #
edge $-1 $707 -107.95726114541959 $524 -99.364146684152445 $519 $708 forward 7 unknown #
edge $-1 $525 147.72844796026394 $707 157.86126285592209 $356 $709 forward 7 unknown #
coedge $-1 $357 $699 $705 $710 forward $523 $-1 #
loop $-1 $-1 $699 $511 #
vertex $-1 $520 $711 #
vertex $-1 $358 $712 #
straight-curve $-1 64.575426919617925 35.089472004517212 10.206259104763362 -1 0 0 I I #
coedge $-1 $527 $527 $-1 $713 reversed $361 $-1 #
edge $-1 $714 0 $714 6.2831853071796004 $362 $715 forward 7 unknown #
vertex $-1 $365 $716 #
ellipse-curve $-1 76.245844585154288 25.736541713324229 5.9097018741297758 0.84804810408105047 0 0.52991925155115449 0.26495962577557725 0 -0.42402405204052523 1 I I #
coedge $-1 $531 $531 $-1 $717 reversed $368 $-1 #
edge $-1 $718 0 $718 6.2831853071796004 $369 $719 forward 7 unknown #
vertex $-1 $372 $720 #
ellipse-curve $-1 76.245844585154288 29.243890572521593 5.9097018741297758 0.84804810408105047 0 0.52991925155115449 0.26495962577557725 0 -0.42402405204052523 1 I I #
coedge $-1 $535 $535 $-1 $721 reversed $375 $-1 #
edge $-1 $722 0 $722 6.2831853071796004 $376 $723 forward 7 unknown #
vertex $-1 $379 $724 #
ellipse-curve $-1 76.245844585154288 32.751239431718972 5.9097018741297758 0.84804810408105047 0 0.52991925155115449 0.26495962577557725 0 -0.42402405204052523 1 I I #
face $-1 $-1 $551 $57 $-1 $725 reversed single #
loop $-1 $-1 $547 $380 #
plane-surface $-1 0 47.725727753311688 0 0 -1 0 0 0 -1 forward_v I I I I #
coedge $-1 $557 $556 $726 $727 forward $381 $-1 #
coedge $-1 $383 $393 $728 $729 forward $241 $-1 #
coedge $-1 $550 $389 $383 $545 reversed $551 $-1 #
edge $-1 $730 -47.725727753311688 $394 47.725727753311688 $544 $731 forward 7 unknown #
coedge $-1 $385 $384 $556 $732 forward $153 $-1 #
coedge $-1 $733 $726 $384 $548 reversed $540 $-1 #
edge $-1 $553 -78.93063142796106 $734 78.93063142796106 $547 $735 forward 7 unknown #
edge $-1 $558 -78.93063142796106 $552 78.93063142796106 $388 $736 forward 7 unknown #
coedge $-1 $386 $544 $733 $737 reversed $551 $-1 #
loop $-1 $-1 $389 $539 #
vertex $-1 $387 $738 #
vertex $-1 $387 $739 #
straight-curve $-1 78.93063142796106 0 10.20625910476336 0 1 0 I I #
straight-curve $-1 78.93063142796106 -47.725727753311688 0 0 0 -1 I I #
coedge $-1 $542 $391 $546 $732 reversed $381 $-1 #
coedge $-1 $391 $542 $393 $560 reversed $381 $-1 #
vertex $-1 $732 $740 #
straight-curve $-1 -78.93063142796106 -47.725727753311688 0 0 0 -1 I I #
edge $-1 $395 -47.725727753311688 $741 47.725727753311688 $557 $742 forward 7 unknown #
point $-1 78.93063142796106 -47.725727753311688 -10.20625910476336 #
point $-1 -78.93063142796106 -47.725727753311688 -10.20625910476336 #
face $-1 $-1 $576 $58 $-1 $743 reversed single #
plane-surface $-1 -74.037595010933927 -52.374330385358093 0 -1 0 0 0 0 1 forward_v I I I I #
coedge $-1 $744 $745 $746 $747 forward $398 $-1 #
coedge $-1 $746 $400 $575 $748 reversed $249 $-1 #
coedge $-1 $400 $746 $401 $570 reversed $249 $-1 #
edge $-1 $572 -10.20625910476336 $577 10.20625910476336 $400 $749 forward 7 unknown #
coedge $-1 $402 $401 $745 $750 forward $157 $-1 #
edge $-1 $572 47.725727753311688 $751 57.022933017404497 $567 $752 forward 7 unknown #
edge $-1 $753 -4.6486026320464049 $410 4.6486026320464049 $407 $754 forward 7 unknown #
vertex $-1 $570 $755 #
straight-curve $-1 0 -47.725727753311688 10.20625910476336 -1 0 0 I I #
coedge $-1 $756 $405 $408 $580 forward $576 $-1 #
coedge $-1 $405 $756 $566 $748 forward $576 $-1 #
loop $-1 $-1 $405 $563 #
vertex $-1 $568 $757 #
straight-curve $-1 0 -47.725727753311688 -10.20625910476336 1 0 0 I I #
coedge $-1 $408 $407 $758 $759 forward $409 $-1 #
edge $-1 $411 -4.6486026320464049 $760 4.6486026320464049 $408 $761 forward 7 unknown #
point $-1 -74.037595010933927 -47.725727753311688 10.20625910476336 #
point $-1 -74.037595010933927 -47.725727753311688 -10.20625910476336 #
face $-1 $-1 $762 $59 $-1 $763 reversed single #
loop $-1 $-1 $421 $413 #
plane-surface $-1 0 0 -10.20625910476336 0 0 1 1 0 0 forward_v I I I I #
coedge $-1 $764 $416 $765 $766 reversed $257 $-1 #
coedge $-1 $416 $764 $590 $767 reversed $257 $-1 #
coedge $-1 $424 $423 $416 $589 reversed $414 $-1 #
edge $-1 $768 -10.20625910476336 $769 10.20625910476336 $588 $770 forward 7 unknown #
coedge $-1 $418 $417 $587 $767 forward $161 $-1 #
edge $-1 $426 -4.6486026320464049 $768 4.6486026320464049 $424 $771 forward 7 unknown #
coedge $-1 $772 $596 $418 $593 reversed $762 $-1 #
edge $-1 $773 -57.022933017404497 $594 -47.725727753311688 $592 $774 forward 7 unknown #
vertex $-1 $597 $775 #
straight-curve $-1 0 47.725727753311688 10.20625910476336 1 0 0 I I #
coedge $-1 $592 $776 $420 $597 forward $762 $-1 #
edge $-1 $600 -10.20625910476336 $594 10.20625910476336 $596 $777 forward 7 unknown #
coedge $-1 $765 $421 $776 $778 forward $584 $-1 #
coedge $-1 $421 $765 $423 $602 forward $584 $-1 #
vertex $-1 $778 $779 #
straight-curve $-1 0 47.725727753311688 -10.20625910476336 -1 0 0 I I #
edge $-1 $769 -4.6486026320464049 $425 4.6486026320464049 $423 $780 forward 7 unknown #
point $-1 -74.037595010933927 47.725727753311688 -10.20625910476336 #
point $-1 -74.037595010933927 47.725727753311688 10.20625910476336 #
loop $-1 $-1 $436 $428 #
plane-surface $-1 78.93063142796106 0 0 -1 0 0 0 0 1 forward_v I I I I #
coedge $-1 $608 $431 $433 $612 reversed $265 $-1 #
coedge $-1 $431 $607 $781 $782 reversed $265 $-1 #
coedge $-1 $439 $434 $431 $610 forward $429 $-1 #
edge $-1 $613 8.9856308227295756 $783 14.355204508343135 $609 $784 forward 7 unknown #
coedge $-1 $433 $432 $616 $785 reversed $165 $-1 #
edge $-1 $786 -157.86126285592209 $613 -147.72844796026394 $607 $787 forward 7 unknown #
vertex $-1 $435 $788 #
straight-curve $-1 73.561057742347487 -14.199446580653355 10.206259104763362 0 -1 0 I I #
coedge $-1 $781 $436 $439 $620 reversed $605 $-1 #
coedge $-1 $436 $781 $611 $785 forward $605 $-1 #
vertex $-1 $437 $789 #
straight-curve $-1 78.93063142796106 -22.553311729311091 109.57040578891581 0 0 1 I I #
straight-curve $-1 -4.7230908335692448 -22.553311729311091 135.48708931630131 0.52991925155115449 0 -0.84804810408105047 I I #
edge $-1 $783 -34.244474593302328 $440 -22.553311729311091 $615 $790 forward 7 unknown #
point $-1 78.93063142796106 -22.553311729311091 10.20625910476336 #
point $-1 73.561057742347501 -22.553311729311091 10.206259104763348 #
edge $-1 $791 1 $791 0 $443 $-1 forward 7 unknown #
vertex $-1 $444 $792 #
ellipse-curve $-1 75.397796481073186 -31.906242020504077 5.3797826225785839 0.84804810408105047 0 0.52991925155115449 0.26495962577557725 0 -0.42402405204052523 1 I I #
point $-1 76.51080421092982 -31.906242020504077 5.4856778220892135 #
edge $-1 $793 1 $793 0 $447 $-1 forward 7 unknown #
vertex $-1 $448 $794 #
ellipse-curve $-1 75.397796481073186 -28.398893161306706 5.3797826225785839 0.84804810408105047 0 0.52991925155115449 0.26495962577557725 0 -0.42402405204052523 1 I I #
point $-1 76.51080421092982 -28.398893161306706 5.4856778220892135 #
edge $-1 $795 1 $795 0 $451 $-1 forward 7 unknown #
vertex $-1 $452 $796 #
ellipse-curve $-1 75.397796481073186 -24.891544302109335 5.3797826225785839 0.84804810408105047 0 0.52991925155115449 0.26495962577557725 0 -0.42402405204052523 1 I I #
point $-1 76.51080421092982 -24.891544302109335 5.4856778220892135 #
plane-surface $-1 0 0 10.20625910476336 0 0 1 1 0 0 forward_v I I I I #
coedge $-1 $646 $645 $638 $797 forward $456 $-1 #
coedge $-1 $638 $458 $460 $642 reversed $294 $-1 #
coedge $-1 $458 $637 $636 $797 reversed $294 $-1 #
coedge $-1 $466 $461 $458 $640 forward $467 $-1 #
edge $-1 $643 8.9856308227295756 $798 14.355204508343135 $639 $799 forward 7 unknown #
coedge $-1 $460 $459 $646 $800 reversed $184 $-1 #
edge $-1 $801 -157.86126285592209 $643 -147.72844796026394 $637 $802 forward 7 unknown #
vertex $-1 $462 $803 #
straight-curve $-1 73.561057742347487 -4.5923159583486353 10.206259104763362 0 -1 0 I I #
coedge $-1 $636 $463 $466 $650 reversed $456 $-1 #
coedge $-1 $463 $636 $641 $800 forward $456 $-1 #
vertex $-1 $464 $804 #
straight-curve $-1 78.93063142796106 -3.3390504847016533 109.57040578891581 0 0 1 I I #
straight-curve $-1 -4.7230908335692448 -3.3390504847016533 135.48708931630131 0.52991925155115449 0 -0.84804810408105047 I I #
edge $-1 $798 -15.030213348692888 $468 -3.3390504847016533 $645 $805 forward 7 unknown #
point $-1 78.93063142796106 -3.3390504847016533 10.20625910476336 #
point $-1 73.561057742347501 -3.3390504847016533 10.206259104763348 #
edge $-1 $806 1 $806 0 $471 $-1 forward 7 unknown #
vertex $-1 $472 $807 #
ellipse-curve $-1 75.397796481073186 -12.691980775894642 5.3797826225785839 0.84804810408105047 0 0.52991925155115449 0.26495962577557725 0 -0.42402405204052523 1 I I #
point $-1 76.51080421092982 -12.691980775894642 5.4856778220892135 #
edge $-1 $808 1 $808 0 $475 $-1 forward 7 unknown #
vertex $-1 $476 $809 #
ellipse-curve $-1 75.397796481073186 -9.1846319166972705 5.3797826225785839 0.84804810408105047 0 0.52991925155115449 0.26495962577557725 0 -0.42402405204052523 1 I I #
point $-1 76.51080421092982 -9.1846319166972705 5.4856778220892135 #
edge $-1 $810 1 $810 0 $479 $-1 forward 7 unknown #
vertex $-1 $480 $811 #
ellipse-curve $-1 75.397796481073186 -5.6772830574998991 5.3797826225785839 0.84804810408105047 0 0.52991925155115449 0.26495962577557725 0 -0.42402405204052523 1 I I #
point $-1 76.51080421092982 -5.6772830574998991 5.4856778220892135 #
plane-surface $-1 0 0 10.20625910476336 0 0 1 1 0 0 forward_v I I I I #
coedge $-1 $676 $675 $668 $812 forward $484 $-1 #
coedge $-1 $668 $486 $488 $672 reversed $323 $-1 #
coedge $-1 $486 $667 $666 $812 reversed $323 $-1 #
coedge $-1 $494 $489 $486 $670 forward $495 $-1 #
edge $-1 $673 8.9856308227295756 $813 14.355204508343135 $669 $814 forward 7 unknown #
coedge $-1 $488 $487 $676 $815 reversed $203 $-1 #
edge $-1 $816 -157.86126285592209 $673 -147.72844796026394 $667 $817 forward 7 unknown #
vertex $-1 $490 $818 #
straight-curve $-1 73.561057742347487 5.0148146639560807 10.206259104763362 0 -1 0 I I #
coedge $-1 $666 $491 $494 $680 reversed $484 $-1 #
coedge $-1 $491 $666 $671 $815 forward $484 $-1 #
vertex $-1 $492 $819 #
straight-curve $-1 78.93063142796106 15.875210759907779 109.57040578891581 0 0 1 I I #
straight-curve $-1 -4.7230908335692448 15.875210759907779 135.48708931630131 0.52991925155115449 0 -0.84804810408105047 I I #
edge $-1 $813 4.1840478959165441 $496 15.875210759907779 $675 $820 forward 7 unknown #
point $-1 78.93063142796106 15.875210759907779 10.20625910476336 #
point $-1 73.561057742347501 15.875210759907779 10.206259104763348 #
edge $-1 $821 1 $821 0 $499 $-1 forward 7 unknown #
vertex $-1 $500 $822 #
ellipse-curve $-1 75.397796481073186 6.5222804687147971 5.3797826225785839 0.84804810408105047 0 0.52991925155115449 0.26495962577557725 0 -0.42402405204052523 1 I I #
point $-1 76.51080421092982 6.5222804687147971 5.4856778220892135 #
edge $-1 $823 1 $823 0 $503 $-1 forward 7 unknown #
vertex $-1 $504 $824 #
ellipse-curve $-1 75.397796481073186 10.029629327912161 5.3797826225785839 0.84804810408105047 0 0.52991925155115449 0.26495962577557725 0 -0.42402405204052523 1 I I #
point $-1 76.51080421092982 10.029629327912161 5.4856778220892135 #
edge $-1 $825 1 $825 0 $507 $-1 forward 7 unknown #
vertex $-1 $508 $826 #
ellipse-curve $-1 75.397796481073186 13.53697818710954 5.3797826225785839 0.84804810408105047 0 0.52991925155115449 0.26495962577557725 0 -0.42402405204052523 1 I I #
point $-1 76.51080421092982 13.53697818710954 5.4856778220892135 #
plane-surface $-1 0 0 10.20625910476336 0 0 1 1 0 0 forward_v I I I I #
coedge $-1 $706 $705 $698 $827 forward $512 $-1 #
coedge $-1 $698 $514 $516 $702 reversed $352 $-1 #
coedge $-1 $514 $697 $696 $827 reversed $352 $-1 #
coedge $-1 $522 $517 $514 $700 forward $523 $-1 #
edge $-1 $703 8.9856308227295756 $828 14.355204508343135 $699 $829 forward 7 unknown #
coedge $-1 $516 $515 $706 $830 reversed $222 $-1 #
edge $-1 $831 -157.86126285592209 $703 -147.72844796026394 $697 $832 forward 7 unknown #
vertex $-1 $518 $833 #
straight-curve $-1 73.561057742347487 14.621945286260797 10.206259104763362 0 -1 0 I I #
coedge $-1 $696 $519 $522 $710 reversed $512 $-1 #
coedge $-1 $519 $696 $701 $830 forward $512 $-1 #
vertex $-1 $520 $834 #
straight-curve $-1 78.93063142796106 35.089472004517212 109.57040578891581 0 0 1 I I #
straight-curve $-1 -4.7230908335692448 35.089472004517212 135.48708931630131 0.52991925155115449 0 -0.84804810408105047 I I #
edge $-1 $828 23.398309140525974 $524 35.089472004517212 $705 $835 forward 7 unknown #
point $-1 78.93063142796106 35.089472004517212 10.20625910476336 #
point $-1 73.561057742347501 35.089472004517212 10.206259104763348 #
edge $-1 $836 1 $836 0 $527 $-1 forward 7 unknown #
vertex $-1 $528 $837 #
ellipse-curve $-1 75.397796481073186 25.736541713324229 5.3797826225785839 0.84804810408105047 0 0.52991925155115449 0.26495962577557725 0 -0.42402405204052523 1 I I #
point $-1 76.51080421092982 25.736541713324229 5.4856778220892135 #
edge $-1 $838 1 $838 0 $531 $-1 forward 7 unknown #
vertex $-1 $532 $839 #
ellipse-curve $-1 75.397796481073186 29.243890572521593 5.3797826225785839 0.84804810408105047 0 0.52991925155115449 0.26495962577557725 0 -0.42402405204052523 1 I I #
point $-1 76.51080421092982 29.243890572521593 5.4856778220892135 #
edge $-1 $840 1 $840 0 $535 $-1 forward 7 unknown #
vertex $-1 $536 $841 #
ellipse-curve $-1 75.397796481073186 32.751239431718972 5.3797826225785839 0.84804810408105047 0 0.52991925155115449 0.26495962577557725 0 -0.42402405204052523 1 I I #
point $-1 76.51080421092982 32.751239431718972 5.4856778220892135 #
plane-surface $-1 78.93063142796106 0 0 -1 0 0 0 0 1 forward_v I I I I #
coedge $-1 $547 $728 $542 $727 reversed $540 $-1 #
edge $-1 $734 -10.20625910476336 $741 10.20625910476336 $726 $842 forward 7 unknown #
coedge $-1 $726 $733 $543 $729 reversed $540 $-1 #
edge $-1 $741 -78.93063142796106 $730 78.93063142796106 $728 $843 forward 7 unknown #
vertex $-1 $545 $844 #
straight-curve $-1 78.93063142796106 0 -10.20625910476336 0 -1 0 I I #
edge $-1 $734 -47.725727753311688 $558 47.725727753311688 $556 $845 forward 7 unknown #
coedge $-1 $728 $547 $550 $737 forward $540 $-1 #
vertex $-1 $548 $846 #
straight-curve $-1 0 47.725727753311688 10.20625910476336 -1 0 0 I I #
straight-curve $-1 0 -47.725727753311688 10.20625910476336 1 0 0 I I #
edge $-1 $553 -10.20625910476336 $730 10.20625910476336 $550 $847 forward 7 unknown #
point $-1 78.93063142796106 -47.725727753311688 10.20625910476336 #
point $-1 78.93063142796106 47.725727753311688 10.20625910476336 #
point $-1 -78.93063142796106 -47.725727753311688 10.20625910476336 #
vertex $-1 $729 $848 #
straight-curve $-1 -78.93063142796106 0 -10.20625910476336 0 1 0 I I #
plane-surface $-1 0 0 -10.20625910476336 0 0 1 1 0 0 forward_v I I I I #
coedge $-1 $758 $565 $756 $849 reversed $398 $-1 #
coedge $-1 $565 $758 $569 $750 reversed $398 $-1 #
coedge $-1 $567 $566 $565 $747 reversed $249 $-1 #
edge $-1 $751 -10.20625910476336 $850 10.20625910476336 $746 $851 forward 7 unknown #
edge $-1 $850 -57.022933017404497 $577 -47.725727753311688 $566 $852 forward 7 unknown #
straight-curve $-1 -78.93063142796106 -47.725727753311688 0 0 0 -1 I I #
edge $-1 $751 -2.4465182085135666 $753 2.4465182085135666 $745 $853 forward 7 unknown #
vertex $-1 $570 $854 #
straight-curve $-1 -78.93063142796106 0 10.20625910476336 0 -1 0 I I #
vertex $-1 $571 $855 #
straight-curve $-1 -74.037595010933927 -52.374330385358093 10.20625910476336 0 1 0 I I #
point $-1 -78.93063142796106 -47.725727753311688 10.20625910476336 #
coedge $-1 $575 $574 $744 $849 forward $576 $-1 #
point $-1 -78.93063142796106 -47.725727753311688 -10.20625910476336 #
coedge $-1 $745 $744 $579 $759 reversed $398 $-1 #
edge $-1 $753 -10.20625910476336 $760 10.20625910476336 $579 $856 forward 7 unknown #
vertex $-1 $759 $857 #
straight-curve $-1 -74.037595010933927 -52.374330385358093 -10.20625910476336 0 -1 0 I I #
loop $-1 $-1 $596 $583 #
plane-surface $-1 -78.93063142796106 0 0 1 0 0 0 0 -1 forward_v I I I I #
coedge $-1 $587 $586 $772 $858 reversed $257 $-1 #
coedge $-1 $599 $598 $586 $766 forward $584 $-1 #
edge $-1 $859 -2.4465182085135666 $769 2.4465182085135666 $586 $860 forward 7 unknown #
edge $-1 $768 -2.4465182085135666 $773 2.4465182085135666 $587 $861 forward 7 unknown #
vertex $-1 $591 $862 #
vertex $-1 $602 $863 #
straight-curve $-1 -74.037595010933927 57.022933017404497 0 0 0 -1 I I #
straight-curve $-1 -74.037595010933927 52.374330385358093 10.20625910476336 0 1 0 I I #
coedge $-1 $776 $592 $764 $858 forward $762 $-1 #
vertex $-1 $767 $864 #
straight-curve $-1 -78.93063142796106 0 10.20625910476336 0 -1 0 I I #
point $-1 -78.93063142796106 47.725727753311688 10.20625910476336 #
coedge $-1 $596 $772 $598 $778 reversed $762 $-1 #
straight-curve $-1 -78.93063142796106 47.725727753311688 0 0 0 1 I I #
edge $-1 $600 -4.6486026320464049 $859 4.6486026320464049 $776 $865 forward 7 unknown #
point $-1 -78.93063142796106 47.725727753311688 -10.20625910476336 #
straight-curve $-1 -74.037595010933927 52.374330385358093 -10.20625910476336 0 -1 0 I I #
coedge $-1 $616 $615 $608 $782 forward $605 $-1 #
edge $-1 $783 99.364146684152445 $786 107.95726114541959 $781 $866 forward 7 unknown #
vertex $-1 $620 $867 #
straight-curve $-1 64.575426919617925 -34.244474593302328 10.206259104763362 1 0 0 I I #
edge $-1 $786 -20.045028012648974 $617 -8.3538651486577358 $616 $868 forward 7 unknown #
vertex $-1 $785 $869 #
straight-curve $-1 -4.7230908335692448 -34.244474593302328 135.48708931630131 -0.52991925155115449 0 0.84804810408105047 I I #
point $-1 73.561057742347501 -34.244474593302328 10.206259104763348 #
point $-1 78.93063142796106 -22.553311729311091 1.6131446434962129 #
straight-curve $-1 78.93063142796106 0 10.20625910476336 0 1 0 I I #
vertex $-1 $623 $870 #
point $-1 75.662756106848761 -31.906242020504077 4.9557585705380589 #
vertex $-1 $627 $871 #
point $-1 75.662756106848761 -28.398893161306706 4.9557585705380589 #
vertex $-1 $631 $872 #
point $-1 75.662756106848761 -24.891544302109335 4.9557585705380589 #
edge $-1 $798 99.364146684152445 $801 107.95726114541959 $636 $873 forward 7 unknown #
vertex $-1 $650 $874 #
straight-curve $-1 64.575426919617925 -15.030213348692888 10.206259104763362 1 0 0 I I #
edge $-1 $801 -10.437897390344252 $647 1.2532654736469819 $646 $875 forward 7 unknown #
vertex $-1 $800 $876 #
straight-curve $-1 -4.7230908335692448 -15.030213348692888 135.48708931630131 -0.52991925155115449 0 0.84804810408105047 I I #
point $-1 73.561057742347501 -15.030213348692888 10.206259104763348 #
point $-1 78.93063142796106 -3.3390504847016533 1.6131446434962129 #
straight-curve $-1 78.93063142796106 0 10.20625910476336 0 1 0 I I #
vertex $-1 $653 $877 #
point $-1 75.662756106848761 -12.691980775894642 4.9557585705380589 #
vertex $-1 $657 $878 #
point $-1 75.662756106848761 -9.1846319166972705 4.9557585705380589 #
vertex $-1 $661 $879 #
point $-1 75.662756106848761 -5.6772830574998991 4.9557585705380589 #
edge $-1 $813 99.364146684152445 $816 107.95726114541959 $666 $880 forward 7 unknown #
vertex $-1 $680 $881 #
straight-curve $-1 64.575426919617925 4.1840478959165441 10.206259104763362 1 0 0 I I #
edge $-1 $816 -0.83076676803953653 $677 10.860396095951698 $676 $882 forward 7 unknown #
vertex $-1 $815 $883 #
straight-curve $-1 -4.7230908335692448 4.1840478959165441 135.48708931630131 -0.52991925155115449 0 0.84804810408105047 I I #
point $-1 73.561057742347501 4.1840478959165441 10.206259104763348 #
point $-1 78.93063142796106 15.875210759907779 1.6131446434962129 #
straight-curve $-1 78.93063142796106 0 10.20625910476336 0 1 0 I I #
vertex $-1 $683 $884 #
point $-1 75.662756106848761 6.5222804687147971 4.9557585705380589 #
vertex $-1 $687 $885 #
point $-1 75.662756106848761 10.029629327912161 4.9557585705380589 #
vertex $-1 $691 $886 #
point $-1 75.662756106848761 13.53697818710954 4.9557585705380589 #
edge $-1 $828 99.364146684152445 $831 107.95726114541959 $696 $887 forward 7 unknown #
vertex $-1 $710 $888 #
straight-curve $-1 64.575426919617925 23.398309140525974 10.206259104763362 1 0 0 I I #
edge $-1 $831 8.7763638542651776 $707 20.467526718256416 $706 $889 forward 7 unknown #
vertex $-1 $830 $890 #
straight-curve $-1 -4.7230908335692448 23.398309140525974 135.48708931630131 -0.52991925155115449 0 0.84804810408105047 I I #
point $-1 73.561057742347501 23.398309140525974 10.206259104763348 #
point $-1 78.93063142796106 35.089472004517212 1.6131446434962129 #
straight-curve $-1 78.93063142796106 0 10.20625910476336 0 1 0 I I #
vertex $-1 $713 $891 #
point $-1 75.662756106848761 25.736541713324229 4.9557585705380589 #
vertex $-1 $717 $892 #
point $-1 75.662756106848761 29.243890572521593 4.9557585705380589 #
vertex $-1 $721 $893 #
point $-1 75.662756106848761 32.751239431718972 4.9557585705380589 #
straight-curve $-1 -78.93063142796106 47.725727753311688 0 0 0 -1 I I #
straight-curve $-1 0 47.725727753311688 -10.20625910476336 1 0 0 I I #
point $-1 78.93063142796106 47.725727753311688 -10.20625910476336 #
straight-curve $-1 -78.93063142796106 0 10.20625910476336 0 -1 0 I I #
point $-1 -78.93063142796106 47.725727753311688 10.20625910476336 #
straight-curve $-1 78.93063142796106 47.725727753311688 0 0 0 -1 I I #
point $-1 -78.93063142796106 47.725727753311688 -10.20625910476336 #
edge $-1 $760 -2.4465182085135666 $850 2.4465182085135666 $744 $894 forward 7 unknown #
vertex $-1 $748 $895 #
straight-curve $-1 -78.93063142796106 -57.022933017404497 0 0 0 -1 I I #
straight-curve $-1 -78.93063142796106 0 -10.20625910476336 0 1 0 I I #
straight-curve $-1 -76.484113219447494 -57.022933017404497 10.20625910476336 1 0 0 I I #
point $-1 -78.93063142796106 -57.022933017404497 10.20625910476336 #
point $-1 -74.037595010933927 -57.022933017404497 10.20625910476336 #
straight-curve $-1 -74.037595010933927 -57.022933017404497 0 0 0 -1 I I #
point $-1 -74.037595010933927 -57.022933017404497 -10.20625910476336 #
edge $-1 $773 -10.20625910476336 $859 10.20625910476336 $764 $896 forward 7 unknown #
vertex $-1 $766 $897 #
straight-curve $-1 -76.484113219447494 57.022933017404497 -10.20625910476336 1 0 0 I I #
straight-curve $-1 -76.484113219447494 57.022933017404497 10.20625910476336 -1 0 0 I I #
point $-1 -74.037595010933927 57.022933017404497 10.20625910476336 #
point $-1 -74.037595010933927 57.022933017404497 -10.20625910476336 #
point $-1 -78.93063142796106 57.022933017404497 10.20625910476336 #
straight-curve $-1 -78.93063142796106 52.374330385358093 -10.20625910476336 0 1 0 I I #
straight-curve $-1 78.93063142796106 -34.244474593302328 109.57040578891581 0 0 -1 I I #
point $-1 78.93063142796106 -34.244474593302328 10.20625910476336 #
straight-curve $-1 78.93063142796106 -14.199446580653355 1.6131446434962129 0 1 0 I I #
point $-1 78.93063142796106 -34.244474593302328 1.6131446434962129 #
point $-1 74.973772429032664 -31.906242020504077 5.1148229968030074 #
point $-1 74.973772429032664 -28.398893161306706 5.1148229968030074 #
point $-1 74.973772429032664 -24.891544302109335 5.1148229968030074 #
straight-curve $-1 78.93063142796106 -15.030213348692888 109.57040578891581 0 0 -1 I I #
point $-1 78.93063142796106 -15.030213348692888 10.20625910476336 #
straight-curve $-1 78.93063142796106 -4.5923159583486353 1.6131446434962129 0 1 0 I I #
point $-1 78.93063142796106 -15.030213348692888 1.6131446434962129 #
point $-1 74.973772429032664 -12.691980775894642 5.1148229968030074 #
point $-1 74.973772429032664 -9.1846319166972705 5.1148229968030074 #
point $-1 74.973772429032664 -5.6772830574998991 5.1148229968030074 #
straight-curve $-1 78.93063142796106 4.1840478959165441 109.57040578891581 0 0 -1 I I #
point $-1 78.93063142796106 4.1840478959165441 10.20625910476336 #
straight-curve $-1 78.93063142796106 5.0148146639560807 1.6131446434962129 0 1 0 I I #
point $-1 78.93063142796106 4.1840478959165441 1.6131446434962129 #
point $-1 74.973772429032664 6.5222804687147971 5.1148229968030074 #
point $-1 74.973772429032664 10.029629327912161 5.1148229968030074 #
point $-1 74.973772429032664 13.53697818710954 5.1148229968030074 #
straight-curve $-1 78.93063142796106 23.398309140525974 109.57040578891581 0 0 -1 I I #
point $-1 78.93063142796106 23.398309140525974 10.20625910476336 #
straight-curve $-1 78.93063142796106 14.621945286260797 1.6131446434962129 0 1 0 I I #
point $-1 78.93063142796106 23.398309140525974 1.6131446434962129 #
point $-1 74.973772429032664 25.736541713324229 5.1148229968030074 #
point $-1 74.973772429032664 29.243890572521593 5.1148229968030074 #
point $-1 74.973772429032664 32.751239431718972 5.1148229968030074 #
straight-curve $-1 -76.484113219447494 -57.022933017404497 -10.20625910476336 -1 0 0 I I #
point $-1 -78.93063142796106 -57.022933017404497 -10.20625910476336 #
straight-curve $-1 -78.93063142796106 57.022933017404497 0 0 0 -1 I I #
point $-1 -78.93063142796106 57.022933017404497 -10.20625910476336 #
End-of-ACIS-data 