500 0 4 0           
7 Unknown 11 ACIS 5.0 NT 24 Fri Mar 26 20:07:33 1999 
-1 9.9999999999999995e-007 1e-010 
body $-1 $4 $-1 $5 #
body $-1 $6 $-1 $7 #
body $-1 $8 $-1 $9 #
body $-1 $10 $-1 $11 #
lump $-1 $-1 $12 $0 #
transform $-1 1 0 0 0 1 0 0 0 1 50.035706656086916 33.841252485738742 8.2591783235710547 1 rotate no_reflect no_shear #
lump $-1 $-1 $13 $1 #
transform $-1 1 0 0 0 1 0 0 0 1 50.035706656086916 33.841252485738742 8.2591783235710547 1 rotate no_reflect no_shear #
lump $-1 $-1 $14 $2 #
transform $-1 1 0 0 0 1 0 0 0 1 50.035706656086916 33.841252485738742 8.2591783235710547 1 rotate no_reflect no_shear #
lump $-1 $-1 $15 $3 #
transform $-1 1 0 0 0 1 0 0 0 1 50.035706656086916 33.841252485738742 8.2591783235710547 1 rotate no_reflect no_shear #
shell $-1 $-1 $-1 $16 $-1 $4 #
shell $-1 $-1 $-1 $17 $-1 $6 #
shell $-1 $-1 $-1 $18 $-1 $8 #
shell $-1 $-1 $-1 $19 $-1 $10 #
face $-1 $20 $21 $12 $-1 $22 forward single #
face $-1 $23 $24 $13 $-1 $25 reversed single #
face $-1 $26 $27 $14 $-1 $28 forward single #
face $-1 $29 $30 $15 $-1 $31 reversed single #
face $-1 $32 $33 $12 $-1 $34 reversed single #
loop $-1 $-1 $35 $16 #
plane-surface $-1 0 0 8.2591783235710547 0 0 1 1 0 0 forward_v I I I I #
face $-1 $36 $37 $13 $-1 $38 forward single #
loop $-1 $-1 $39 $17 #
plane-surface $-1 -45.589951298482788 0 -3.6947504416788188 0 0 1 1 0 0 forward_v I I I I #
face $-1 $40 $41 $14 $-1 $42 forward single #
loop $-1 $-1 $43 $18 #
plane-surface $-1 36.550020361211473 -89.800477377478586 85.654423875993757 1 0 0 0 0.55919291073839883 -0.82903756765294845 forward_v I I I I #
face $-1 $44 $45 $15 $-1 $46 reversed single #
loop $-1 $47 $48 $19 #
cone-surface $-1 41.934913348378998 -27.603443159446069 2.3462711146539146 0 0.55919291073839883 -0.82903756765294845 2 0 0 1 I I 0 1 2 forward I I I I #
face $-1 $49 $50 $12 $-1 $51 reversed single #
loop $-1 $-1 $52 $20 #
plane-surface $-1 0 0 -8.2591783235710547 0 0 1 1 0 0 forward_v I I I I #
coedge $-1 $53 $54 $55 $56 forward $21 $-1 #
face $-1 $57 $58 $13 $-1 $59 forward single #
loop $-1 $-1 $60 $23 #
plane-surface $-1 -45.589951298482788 0 -6.6947504416788188 0 0 1 1 0 0 forward_v I I I I #
coedge $-1 $61 $62 $63 $64 reversed $24 $-1 #
face $-1 $65 $66 $14 $-1 $67 forward single #
loop $-1 $-1 $68 $26 #
plane-surface $-1 41.934913348378984 -33.84125248573875 2.6914627920762797 0 -0.55919291073839883 0.82903756765294845 1 0 0 forward_v I I I I #
coedge $-1 $69 $70 $71 $72 reversed $27 $-1 #
face $-1 $73 $74 $15 $-1 $75 forward single #
loop $-1 $76 $77 $29 #
cone-surface $-1 41.934913348378998 -24.933679709758422 -1.611815896168781 0 0.55919291073839883 -0.82903756765294845 1 0 0 1 I I -0.70710678118654746 0.70710678118654746 1 forward I I I I #
loop $-1 $-1 $78 $19 #
coedge $-1 $48 $48 $79 $80 reversed $30 $-1 #
face $-1 $81 $82 $12 $-1 $83 reversed single #
loop $-1 $-1 $84 $32 #
plane-surface $-1 0 -33.841252485738742 0 0 1 0 0 0 1 forward_v I I I I #
coedge $-1 $85 $86 $87 $88 forward $33 $-1 #
coedge $-1 $89 $35 $90 $91 forward $21 $-1 #
coedge $-1 $35 $89 $92 $93 forward $21 $-1 #
coedge $-1 $94 $95 $35 $56 reversed $96 $-1 #
edge $-1 $97 -33.841252485738742 $98 33.841252485738742 $55 $99 forward 7 unknown #
face $-1 $100 $101 $13 $-1 $102 reversed single #
loop $-1 $-1 $103 $36 #
plane-surface $-1 -41.14419594087866 0 -5.1947504416788188 -1 0 0 0 0 1 forward_v I I I I #
coedge $-1 $104 $105 $106 $107 reversed $37 $-1 #
coedge $-1 $108 $39 $109 $110 reversed $24 $-1 #
coedge $-1 $39 $108 $111 $112 reversed $24 $-1 #
coedge $-1 $113 $103 $39 $64 forward $58 $-1 #
edge $-1 $114 -33.841252485738742 $115 33.841252485738742 $63 $116 forward 7 unknown #
face $-1 $117 $118 $14 $-1 $119 reversed single #
loop $-1 $-1 $120 $40 #
plane-surface $-1 47.319806335546495 -89.800477377478586 85.654423875993757 -1 0 0 0 -0.55919291073839883 0.82903756765294845 forward_v I I I I #
coedge $-1 $121 $122 $123 $124 reversed $41 $-1 #
coedge $-1 $70 $43 $122 $125 forward $27 $-1 #
coedge $-1 $43 $69 $126 $127 reversed $27 $-1 #
coedge $-1 $128 $123 $43 $72 forward $118 $-1 #
edge $-1 $129 -40.135749145920592 $130 -34.568033614425822 $71 $131 forward 7 unknown #
face $-1 $132 $133 $15 $-1 $134 forward single #
loop $-1 $-1 $135 $44 #
plane-surface $-1 36.550020361211473 -89.800477377478586 85.654423875993757 1 0 0 0 0.55919291073839883 -0.82903756765294845 forward_v I I I I #
loop $-1 $-1 $136 $29 #
coedge $-1 $77 $77 $78 $137 forward $45 $-1 #
coedge $-1 $78 $78 $77 $137 reversed $47 $-1 #
coedge $-1 $79 $79 $48 $80 forward $133 $-1 #
edge $-1 $138 3.4645347762740274e-017 $138 6.2831853071796004 $79 $139 forward 7 unknown #
face $-1 $140 $141 $12 $-1 $142 reversed single #
loop $-1 $-1 $143 $49 #
plane-surface $-1 -50.035706656086916 0 0 1 0 0 0 0 -1 forward_v I I I I #
coedge $-1 $144 $92 $145 $146 forward $50 $-1 #
coedge $-1 $147 $52 $144 $148 forward $33 $-1 #
coedge $-1 $52 $147 $149 $150 forward $33 $-1 #
coedge $-1 $95 $94 $52 $88 reversed $96 $-1 #
edge $-1 $151 -33.841252485738742 $152 33.841252485738742 $87 $153 forward 7 unknown #
coedge $-1 $54 $53 $154 $155 forward $21 $-1 #
coedge $-1 $156 $157 $53 $91 reversed $141 $-1 #
edge $-1 $98 -50.035706656086916 $158 50.035706656086916 $90 $159 forward 7 unknown #
coedge $-1 $84 $160 $54 $93 reversed $50 $-1 #
edge $-1 $161 -50.035706656086916 $97 50.035706656086916 $92 $162 forward 7 unknown #
coedge $-1 $87 $55 $160 $163 forward $96 $-1 #
coedge $-1 $55 $87 $156 $164 reversed $96 $-1 #
loop $-1 $-1 $94 $140 #
vertex $-1 $56 $165 #
vertex $-1 $56 $166 #
straight-curve $-1 50.035706656086916 0 8.2591783235710547 0 1 0 I I #
face $-1 $167 $168 $13 $-1 $102 reversed single #
loop $-1 $-1 $169 $57 #
plane-surface $-1 -50.035706656086916 0 0 1 0 0 0 0 -1 forward_v I I I I #
coedge $-1 $63 $106 $170 $171 reversed $58 $-1 #
coedge $-1 $172 $60 $173 $174 reversed $37 $-1 #
coedge $-1 $60 $172 $175 $176 reversed $37 $-1 #
coedge $-1 $103 $113 $60 $107 forward $58 $-1 #
edge $-1 $177 -33.841252485738742 $178 33.841252485738742 $106 $179 forward 7 unknown #
coedge $-1 $62 $61 $180 $181 reversed $24 $-1 #
coedge $-1 $170 $182 $61 $110 forward $183 $-1 #
edge $-1 $184 -27.240731006845522 $114 -18.349220291637266 $109 $185 forward 7 unknown #
coedge $-1 $186 $187 $62 $112 forward $188 $-1 #
edge $-1 $115 18.349220291637266 $189 27.240731006845522 $111 $190 forward 7 unknown #
coedge $-1 $106 $63 $187 $191 reversed $58 $-1 #
vertex $-1 $110 $192 #
vertex $-1 $112 $193 #
straight-curve $-1 -41.14419594087866 0 -3.6947504416788188 0 1 0 I I #
face $-1 $194 $195 $14 $-1 $196 reversed single #
loop $-1 $-1 $197 $65 #
plane-surface $-1 0 -33.841252485738742 0 0 1 0 0 0 1 forward_v I I I I #
coedge $-1 $198 $199 $197 $200 reversed $66 $-1 #
coedge $-1 $201 $68 $199 $202 reversed $41 $-1 #
coedge $-1 $68 $201 $69 $125 reversed $41 $-1 #
coedge $-1 $71 $197 $68 $124 forward $118 $-1 #
edge $-1 $203 -26.352349661357003 $129 -15.582563687021981 $123 $204 forward 7 unknown #
edge $-1 $129 8.6223131303995443e-015 $205 9.9566990649841394 $69 $206 forward 7 unknown #
coedge $-1 $207 $208 $70 $127 forward $209 $-1 #
edge $-1 $130 11.058986203000551 $205 19.313463777687382 $126 $210 forward 7 unknown #
coedge $-1 $211 $71 $208 $212 reversed $118 $-1 #
vertex $-1 $124 $213 #
vertex $-1 $127 $214 #
straight-curve $-1 36.550020361211473 -33.841252485738742 42.827211937996879 0 0 1 I I #
face $-1 $215 $216 $15 $-1 $217 forward single #
loop $-1 $218 $79 $73 #
plane-surface $-1 41.934913348378984 -33.84125248573875 2.6914627920762797 0 -0.55919291073839883 0.82903756765294845 1 0 0 forward_v I I I I #
coedge $-1 $219 $220 $221 $222 reversed $74 $-1 #
coedge $-1 $136 $136 $-1 $223 forward $76 $-1 #
edge $-1 $224 0 $224 6.2831853071796004 $77 $225 forward 7 unknown #
vertex $-1 $80 $226 #
ellipse-curve $-1 41.934913348378998 -29.714013698395323 5.4753205578236717 0 0.55919291073839883 -0.82903756765294845 2 0 0 1 I I #
face $-1 $-1 $96 $12 $-1 $227 reversed single #
loop $-1 $-1 $156 $81 #
plane-surface $-1 0 33.841252485738742 0 0 -1 0 0 0 -1 forward_v I I I I #
coedge $-1 $228 $154 $157 $229 forward $82 $-1 #
coedge $-1 $160 $84 $85 $148 reversed $50 $-1 #
coedge $-1 $154 $228 $84 $146 reversed $82 $-1 #
edge $-1 $161 -8.2591783235710547 $230 8.2591783235710547 $145 $231 forward 7 unknown #
coedge $-1 $86 $85 $228 $232 forward $33 $-1 #
edge $-1 $152 -50.035706656086916 $230 50.035706656086916 $144 $233 forward 7 unknown #
coedge $-1 $157 $156 $86 $150 reversed $141 $-1 #
edge $-1 $234 -50.035706656086916 $151 50.035706656086916 $149 $235 forward 7 unknown #
vertex $-1 $88 $236 #
vertex $-1 $163 $237 #
straight-curve $-1 50.035706656086916 0 -8.2591783235710547 0 -1 0 I I #
coedge $-1 $143 $145 $89 $155 reversed $82 $-1 #
edge $-1 $158 -33.841252485738742 $161 33.841252485738742 $154 $238 forward 7 unknown #
coedge $-1 $149 $90 $95 $164 forward $141 $-1 #
coedge $-1 $90 $149 $143 $229 reversed $141 $-1 #
vertex $-1 $91 $239 #
straight-curve $-1 0 33.841252485738742 8.2591783235710547 -1 0 0 I I #
coedge $-1 $92 $144 $94 $163 reversed $50 $-1 #
vertex $-1 $155 $240 #
straight-curve $-1 0 -33.841252485738742 8.2591783235710547 1 0 0 I I #
edge $-1 $97 -8.2591783235710547 $152 8.2591783235710547 $94 $241 forward 7 unknown #
edge $-1 $98 -8.2591783235710547 $151 8.2591783235710547 $95 $242 forward 7 unknown #
point $-1 50.035706656086916 -33.841252485738742 8.2591783235710547 #
point $-1 50.035706656086916 33.841252485738742 8.2591783235710547 #
face $-1 $243 $183 $13 $-1 $244 reversed single #
loop $-1 $-1 $180 $100 #
coedge $-1 $245 $246 $172 $247 forward $101 $-1 #
coedge $-1 $175 $109 $103 $171 forward $183 $-1 #
edge $-1 $114 1.0973752208394094 $178 4.0973752208394094 $170 $248 forward 7 unknown #
coedge $-1 $105 $104 $169 $247 reversed $37 $-1 #
coedge $-1 $187 $249 $104 $174 forward $188 $-1 #
edge $-1 $250 -27.240731006845522 $177 -18.349220291637266 $173 $251 forward 7 unknown #
coedge $-1 $252 $170 $105 $176 forward $183 $-1 #
edge $-1 $178 18.349220291637266 $253 27.240731006845522 $175 $254 forward 7 unknown #
vertex $-1 $174 $255 #
vertex $-1 $176 $256 #
straight-curve $-1 -41.14419594087866 0 -6.6947504416788188 0 -1 0 I I #
coedge $-1 $257 $258 $108 $181 forward $168 $-1 #
edge $-1 $189 -33.841252485738742 $184 33.841252485738742 $180 $259 forward 7 unknown #
coedge $-1 $109 $260 $257 $261 forward $183 $-1 #
loop $-1 $-1 $109 $167 #
vertex $-1 $110 $262 #
straight-curve $-1 -22.794975649241394 -33.841252485738742 -3.6947504416788188 1 0 0 I I #
coedge $-1 $263 $111 $258 $264 reversed $188 $-1 #
coedge $-1 $111 $173 $113 $191 forward $188 $-1 #
loop $-1 $-1 $111 $265 #
vertex $-1 $181 $266 #
straight-curve $-1 -22.794975649241394 33.841252485738742 -3.6947504416788188 -1 0 0 I I #
edge $-1 $177 -4.0973752208394094 $115 -1.0973752208394094 $187 $267 forward 7 unknown #
point $-1 -41.14419594087866 -33.841252485738742 -3.6947504416788188 #
point $-1 -41.14419594087866 33.841252485738742 -3.6947504416788188 #
face $-1 $268 $269 $14 $-1 $270 forward single #
loop $-1 $-1 $271 $117 #
plane-surface $-1 -45.589951298482788 0 -3.6947504416788188 0 0 1 1 0 0 forward_v I I I I #
coedge $-1 $123 $272 $120 $200 forward $118 $-1 #
coedge $-1 $199 $120 $273 $274 reversed $66 $-1 #
coedge $-1 $120 $198 $121 $202 forward $66 $-1 #
edge $-1 $275 34.568033614425822 $203 40.135749145920592 $197 $276 forward 7 unknown #
coedge $-1 $122 $121 $207 $277 reversed $41 $-1 #
edge $-1 $278 -9.9566990649841394 $203 -8.6223131303995443e-015 $199 $279 forward 7 unknown #
vertex $-1 $124 $280 #
straight-curve $-1 20.967456674189492 -33.841252485738742 2.691462792076285 -1 0 0 I I #
vertex $-1 $277 $281 #
straight-curve $-1 36.550020361211473 -33.84125248573875 2.6914627920762797 0 0.82903756765294845 0.55919291073839883 I I #
coedge $-1 $273 $126 $201 $277 forward $209 $-1 #
coedge $-1 $126 $282 $128 $212 forward $209 $-1 #
loop $-1 $-1 $273 $283 #
straight-curve $-1 36.550020361211473 -44.900238688739293 8.2591783235710565 0 1 0 I I #
coedge $-1 $284 $128 $285 $286 forward $118 $-1 #
edge $-1 $287 -50.035706656086916 $130 36.550020361211473 $128 $288 forward 7 unknown #
point $-1 36.550020361211473 -33.841252485738742 2.6914627920762846 #
point $-1 36.550020361211473 -33.841252485738742 8.2591783235710547 #
face $-1 $289 $290 $15 $-1 $291 reversed single #
loop $-1 $-1 $292 $132 #
plane-surface $-1 47.319806335546495 -89.800477377478586 85.654423875993757 -1 0 0 0 -0.55919291073839883 0.82903756765294845 forward_v I I I I #
loop $-1 $-1 $293 $73 #
coedge $-1 $220 $135 $294 $295 forward $74 $-1 #
coedge $-1 $135 $219 $296 $297 reversed $74 $-1 #
coedge $-1 $298 $299 $135 $222 forward $290 $-1 #
edge $-1 $300 -40.135749145920592 $301 -34.568033614425822 $221 $302 forward 7 unknown #
edge $-1 $303 1 $303 0 $136 $-1 forward 7 unknown #
vertex $-1 $137 $304 #
ellipse-curve $-1 41.934913348378998 -25.492872620496822 -0.78277832851583251 0 -0.55919291073839883 0.82903756765294845 2 0 0 1 I I #
point $-1 43.934913348378998 -29.714013698395316 5.475320557823661 #
plane-surface $-1 50.035706656086916 0 0 -1 0 0 0 0 1 forward_v I I I I #
coedge $-1 $145 $143 $147 $232 reversed $82 $-1 #
edge $-1 $158 -8.2591783235710547 $234 8.2591783235710547 $157 $305 forward 7 unknown #
vertex $-1 $232 $306 #
straight-curve $-1 -50.035706656086916 -33.841252485738742 0 0 0 -1 I I #
edge $-1 $230 -33.841252485738742 $234 33.841252485738742 $228 $307 forward 7 unknown #
straight-curve $-1 0 -33.841252485738742 -8.2591783235710547 -1 0 0 I I #
vertex $-1 $150 $308 #
straight-curve $-1 0 33.841252485738742 -8.2591783235710547 1 0 0 I I #
point $-1 50.035706656086916 33.841252485738742 -8.2591783235710547 #
point $-1 50.035706656086916 -33.841252485738742 -8.2591783235710547 #
straight-curve $-1 -50.035706656086916 0 8.2591783235710547 0 -1 0 I I #
point $-1 -50.035706656086916 33.841252485738742 8.2591783235710547 #
point $-1 -50.035706656086916 -33.841252485738742 8.2591783235710547 #
straight-curve $-1 50.035706656086916 -33.841252485738742 0 0 0 -1 I I #
straight-curve $-1 50.035706656086916 33.841252485738742 0 0 0 -1 I I #
face $-1 $309 $310 $13 $-1 $311 forward single #
plane-surface $-1 0 -33.841252485738742 0 0 1 0 0 0 1 forward_v I I I I #
coedge $-1 $312 $169 $249 $313 forward $101 $-1 #
coedge $-1 $169 $312 $252 $314 reversed $101 $-1 #
edge $-1 $253 -33.841252485738742 $250 33.841252485738742 $169 $315 forward 7 unknown #
straight-curve $-1 -41.14419594087866 -33.841252485738742 -2.5973752208394094 0 0 -1 I I #
coedge $-1 $173 $316 $245 $313 reversed $188 $-1 #
vertex $-1 $313 $317 #
straight-curve $-1 -22.794975649241394 33.841252485738742 -6.6947504416788188 1 0 0 I I #
coedge $-1 $318 $175 $246 $314 forward $183 $-1 #
vertex $-1 $314 $319 #
straight-curve $-1 -22.794975649241394 -33.841252485738742 -6.6947504416788188 -1 0 0 I I #
point $-1 -41.14419594087866 33.841252485738742 -6.6947504416788188 #
point $-1 -41.14419594087866 -33.841252485738742 -6.6947504416788188 #
coedge $-1 $320 $180 $182 $261 reversed $168 $-1 #
coedge $-1 $180 $320 $186 $264 forward $168 $-1 #
straight-curve $-1 -50.035706656086916 0 -3.6947504416788188 0 -1 0 I I #
coedge $-1 $182 $321 $322 $323 reversed $183 $-1 #
edge $-1 $324 -8.2591783235710547 $184 3.6947504416788188 $257 $325 forward 7 unknown #
point $-1 -50.035706656086916 -33.841252485738742 -3.6947504416788188 #
coedge $-1 $326 $186 $327 $328 reversed $188 $-1 #
edge $-1 $329 -8.2591783235710547 $189 3.6947504416788188 $186 $330 forward 7 unknown #
face $-1 $331 $188 $13 $-1 $332 reversed single #
point $-1 -50.035706656086916 33.841252485738742 -3.6947504416788188 #
straight-curve $-1 -41.14419594087866 33.841252485738742 -2.5973752208394094 0 0 1 I I #
face $-1 $333 $334 $14 $-1 $335 forward single #
loop $-1 $-1 $336 $194 #
plane-surface $-1 -45.589951298482788 0 -6.6947504416788188 0 0 1 1 0 0 forward_v I I I I #
coedge $-1 $337 $338 $339 $340 reversed $195 $-1 #
coedge $-1 $197 $341 $342 $343 reversed $118 $-1 #
coedge $-1 $342 $207 $198 $274 forward $209 $-1 #
edge $-1 $278 -19.313463777687382 $275 -11.058986203000551 $273 $344 forward 7 unknown #
vertex $-1 $343 $345 #
straight-curve $-1 47.319806335546495 -33.841252485738742 42.827211937996879 0 0 -1 I I #
edge $-1 $205 15.582563687021981 $278 26.352349661357003 $207 $346 forward 7 unknown #
vertex $-1 $277 $347 #
straight-curve $-1 47.319806335546495 -33.84125248573875 2.6914627920762797 0 -0.82903756765294845 -0.55919291073839883 I I #
point $-1 47.319806335546495 -33.841252485738742 2.6914627920762846 #
point $-1 36.550020361211473 -25.586774911051911 8.2591783235710547 #
coedge $-1 $208 $348 $349 $350 forward $209 $-1 #
face $-1 $351 $209 $14 $-1 $352 forward single #
coedge $-1 $353 $211 $337 $354 forward $118 $-1 #
coedge $-1 $349 $355 $211 $286 reversed $356 $-1 #
edge $-1 $287 -8.2591783235710547 $357 3.6947504416788188 $285 $358 forward 7 unknown #
vertex $-1 $350 $359 #
straight-curve $-1 0 -33.841252485738742 8.2591783235710547 1 0 0 I I #
face $-1 $360 $361 $15 $-1 $362 reversed single #
loop $-1 $-1 $363 $215 #
plane-surface $-1 0 -33.841252485738742 0 0 1 0 0 0 1 forward_v I I I I #
coedge $-1 $364 $365 $363 $366 reversed $216 $-1 #
coedge $-1 $367 $294 $299 $368 reversed $218 $-1 #
coedge $-1 $293 $369 $219 $295 reversed $218 $-1 #
edge $-1 $300 8.6223131303995443e-015 $370 9.9566990649841394 $219 $371 forward 7 unknown #
coedge $-1 $372 $373 $220 $297 forward $374 $-1 #
edge $-1 $301 11.058986203000551 $370 19.313463777687382 $296 $375 forward 7 unknown #
coedge $-1 $376 $221 $373 $377 reversed $290 $-1 #
coedge $-1 $221 $363 $293 $368 forward $290 $-1 #
vertex $-1 $368 $378 #
vertex $-1 $297 $379 #
straight-curve $-1 36.550020361211473 -33.841252485738742 42.827211937996879 0 0 1 I I #
vertex $-1 $223 $380 #
point $-1 43.934913348378998 -25.492872620496822 -0.78277832851583251 #
straight-curve $-1 -50.035706656086916 33.841252485738742 0 0 0 -1 I I #
point $-1 -50.035706656086916 -33.841252485738742 -8.2591783235710547 #
straight-curve $-1 -50.035706656086916 0 -8.2591783235710547 0 1 0 I I #
point $-1 -50.035706656086916 33.841252485738742 -8.2591783235710547 #
face $-1 $265 $381 $13 $-1 $382 reversed single #
loop $-1 $-1 $383 $243 #
plane-surface $-1 0 0 8.2591783235710547 0 0 1 1 0 0 forward_v I I I I #
coedge $-1 $246 $245 $384 $385 reversed $101 $-1 #
edge $-1 $250 6.6947504416788188 $386 8.2591783235710547 $249 $330 forward 7 unknown #
edge $-1 $253 6.6947504416788188 $387 8.2591783235710547 $246 $325 forward 7 unknown #
straight-curve $-1 -50.035706656086916 0 -6.6947504416788188 0 1 0 I I #
coedge $-1 $249 $326 $388 $389 reversed $188 $-1 #
point $-1 -50.035706656086916 33.841252485738742 -6.6947504416788188 #
coedge $-1 $321 $252 $390 $391 reversed $183 $-1 #
point $-1 -50.035706656086916 -33.841252485738742 -6.6947504416788188 #
coedge $-1 $258 $257 $392 $393 reversed $168 $-1 #
coedge $-1 $260 $318 $394 $395 reversed $183 $-1 #
coedge $-1 $383 $392 $260 $323 forward $310 $-1 #
edge $-1 $324 -50.035706656086916 $396 50.035706656086916 $260 $397 forward 7 unknown #
vertex $-1 $393 $398 #
straight-curve $-1 -50.035706656086916 -33.841252485738742 0 0 0 -1 I I #
coedge $-1 $316 $263 $399 $400 forward $188 $-1 #
coedge $-1 $392 $383 $263 $328 forward $310 $-1 #
edge $-1 $401 -50.035706656086916 $329 50.035706656086916 $263 $402 forward 7 unknown #
vertex $-1 $328 $403 #
straight-curve $-1 -50.035706656086916 33.841252485738742 0 0 0 -1 I I #
face $-1 $-1 $404 $13 $-1 $405 reversed single #
plane-surface $-1 0 33.841252485738742 0 0 -1 0 0 0 -1 forward_v I I I I #
face $-1 $406 $407 $14 $-1 $408 reversed single #
loop $-1 $-1 $409 $268 #
plane-surface $-1 -41.14419594087866 0 -5.1947504416788188 -1 0 0 0 0 1 forward_v I I I I #
coedge $-1 $410 $411 $412 $413 reversed $269 $-1 #
coedge $-1 $414 $271 $284 $354 reversed $195 $-1 #
coedge $-1 $271 $414 $415 $416 reversed $195 $-1 #
coedge $-1 $417 $409 $271 $340 forward $334 $-1 #
edge $-1 $418 -33.841252485738742 $419 33.841252485738742 $339 $420 forward 7 unknown #
coedge $-1 $272 $421 $422 $423 reversed $118 $-1 #
coedge $-1 $424 $273 $272 $343 forward $209 $-1 #
edge $-1 $275 47.319806335546495 $425 50.035706656086916 $272 $288 forward 7 unknown #
straight-curve $-1 47.319806335546495 -44.900238688739293 8.2591783235710565 0 -1 0 I I #
point $-1 47.319806335546495 -33.841252485738742 8.2591783235710547 #
straight-curve $-1 20.967456674189492 -25.586774911051911 8.2591783235710547 1 0 0 I I #
point $-1 47.319806335546495 -25.586774911051911 8.2591783235710547 #
coedge $-1 $282 $424 $426 $427 forward $209 $-1 #
coedge $-1 $428 $285 $282 $350 reversed $356 $-1 #
edge $-1 $429 -33.841252485738742 $287 33.841252485738742 $349 $430 forward 7 unknown #
face $-1 $431 $432 $14 $-1 $433 reversed single #
plane-surface $-1 0 0 8.2591783235710547 0 0 1 1 0 0 forward_v I I I I #
coedge $-1 $434 $284 $409 $435 forward $118 $-1 #
edge $-1 $357 -27.240731006845522 $418 -18.349220291637266 $284 $436 forward 7 unknown #
coedge $-1 $285 $428 $414 $437 forward $356 $-1 #
loop $-1 $-1 $355 $406 #
vertex $-1 $354 $438 #
straight-curve $-1 -50.035706656086916 -33.841252485738742 0 0 0 -1 I I #
point $-1 -50.035706656086916 -33.841252485738742 8.2591783235710547 #
face $-1 $439 $440 $15 $-1 $441 forward single #
loop $-1 $-1 $442 $289 #
plane-surface $-1 -45.589951298482788 0 -3.6947504416788188 0 0 1 1 0 0 forward_v I I I I #
coedge $-1 $299 $443 $292 $366 forward $290 $-1 #
coedge $-1 $365 $292 $444 $445 reversed $216 $-1 #
coedge $-1 $292 $364 $367 $446 forward $216 $-1 #
edge $-1 $447 34.568033614425822 $448 40.135749145920592 $363 $449 forward 7 unknown #
coedge $-1 $369 $293 $365 $446 reversed $218 $-1 #
edge $-1 $448 -26.352349661357003 $300 -15.582563687021981 $299 $450 forward 7 unknown #
coedge $-1 $294 $367 $372 $451 reversed $218 $-1 #
vertex $-1 $451 $452 #
straight-curve $-1 36.550020361211473 -33.84125248573875 2.6914627920762797 0 0.82903756765294845 0.55919291073839883 I I #
coedge $-1 $444 $296 $369 $451 forward $374 $-1 #
coedge $-1 $296 $453 $298 $377 forward $374 $-1 #
loop $-1 $-1 $444 $454 #
straight-curve $-1 36.550020361211473 -44.900238688739293 8.2591783235710565 0 1 0 I I #
coedge $-1 $455 $298 $456 $457 forward $290 $-1 #
edge $-1 $458 -50.035706656086916 $301 36.550020361211473 $298 $459 forward 7 unknown #
point $-1 36.550020361211473 -33.841252485738742 2.6914627920762846 #
point $-1 36.550020361211473 -33.841252485738742 8.2591783235710547 #
point $-1 41.934913348378998 -24.374486799020023 -2.4408534638217292 #
loop $-1 $-1 $460 $309 #
plane-surface $-1 0 0 -8.2591783235710547 0 0 1 1 0 0 forward_v I I I I #
coedge $-1 $327 $322 $461 $462 forward $310 $-1 #
coedge $-1 $388 $390 $312 $385 forward $381 $-1 #
edge $-1 $387 -33.841252485738742 $386 33.841252485738742 $312 $463 forward 7 unknown #
vertex $-1 $389 $464 #
vertex $-1 $385 $465 #
coedge $-1 $460 $384 $316 $389 forward $381 $-1 #
edge $-1 $386 -50.035706656086916 $466 50.035706656086916 $316 $467 forward 7 unknown #
coedge $-1 $384 $460 $318 $391 forward $381 $-1 #
edge $-1 $468 -50.035706656086916 $387 50.035706656086916 $318 $469 forward 7 unknown #
coedge $-1 $322 $327 $320 $393 forward $310 $-1 #
edge $-1 $329 -33.841252485738742 $324 33.841252485738742 $320 $470 forward 7 unknown #
coedge $-1 $471 $461 $321 $395 forward $404 $-1 #
edge $-1 $396 -8.2591783235710547 $468 8.2591783235710547 $394 $472 forward 7 unknown #
vertex $-1 $462 $473 #
straight-curve $-1 0 -33.841252485738742 8.2591783235710547 1 0 0 I I #
point $-1 -50.035706656086916 -33.841252485738742 8.2591783235710547 #
coedge $-1 $461 $471 $326 $400 reversed $404 $-1 #
edge $-1 $401 -8.2591783235710547 $466 8.2591783235710547 $399 $474 forward 7 unknown #
vertex $-1 $462 $475 #
straight-curve $-1 0 33.841252485738742 8.2591783235710547 -1 0 0 I I #
point $-1 -50.035706656086916 33.841252485738742 8.2591783235710547 #
loop $-1 $-1 $394 $331 #
plane-surface $-1 50.035706656086916 0 0 -1 0 0 0 0 1 forward_v I I I I #
face $-1 $283 $356 $14 $-1 $408 reversed single #
loop $-1 $-1 $476 $333 #
plane-surface $-1 -50.035706656086916 0 0 1 0 0 0 0 -1 forward_v I I I I #
coedge $-1 $339 $412 $353 $435 reversed $334 $-1 #
coedge $-1 $477 $336 $478 $479 reversed $269 $-1 #
coedge $-1 $336 $477 $434 $480 reversed $269 $-1 #
coedge $-1 $409 $417 $336 $413 forward $334 $-1 #
edge $-1 $481 -33.841252485738742 $482 33.841252485738742 $412 $483 forward 7 unknown #
coedge $-1 $338 $337 $355 $437 reversed $195 $-1 #
coedge $-1 $484 $485 $338 $416 forward $486 $-1 #
edge $-1 $419 18.349220291637266 $487 27.240731006845522 $415 $488 forward 7 unknown #
coedge $-1 $412 $339 $485 $489 reversed $334 $-1 #
vertex $-1 $354 $490 #
vertex $-1 $416 $491 #
straight-curve $-1 -41.14419594087866 0 -3.6947504416788188 0 1 0 I I #
coedge $-1 $341 $492 $493 $494 reversed $118 $-1 #
coedge $-1 $495 $496 $341 $423 forward $497 $-1 #
edge $-1 $425 -8.2591783235710547 $498 8.2591783235710547 $422 $499 forward 7 unknown #
coedge $-1 $348 $342 $496 $500 forward $209 $-1 #
vertex $-1 $500 $501 #
coedge $-1 $502 $484 $348 $427 reversed $486 $-1 #
edge $-1 $503 -50.035706656086916 $429 50.035706656086916 $426 $504 forward 7 unknown #
coedge $-1 $355 $349 $484 $505 forward $356 $-1 #
vertex $-1 $427 $506 #
straight-curve $-1 -50.035706656086916 0 8.2591783235710547 0 -1 0 I I #
face $-1 $507 $486 $14 $-1 $508 reversed single #
loop $-1 $-1 $509 $351 #
plane-surface $-1 0 0 -8.2591783235710547 0 0 1 1 0 0 forward_v I I I I #
coedge $-1 $492 $353 $411 $480 forward $118 $-1 #
edge $-1 $418 1.0973752208394094 $482 4.0973752208394094 $353 $510 forward 7 unknown #
straight-curve $-1 -22.794975649241394 -33.841252485738742 -3.6947504416788188 1 0 0 I I #
edge $-1 $487 -33.841252485738742 $357 33.841252485738742 $355 $511 forward 7 unknown #
point $-1 -50.035706656086916 -33.841252485738742 -3.6947504416788188 #
face $-1 $512 $513 $15 $-1 $514 forward single #
loop $-1 $-1 $515 $360 #
plane-surface $-1 -45.589951298482788 0 -6.6947504416788188 0 0 1 1 0 0 forward_v I I I I #
coedge $-1 $516 $517 $518 $519 reversed $361 $-1 #
coedge $-1 $363 $520 $521 $522 reversed $290 $-1 #
coedge $-1 $521 $372 $364 $445 forward $374 $-1 #
edge $-1 $523 -19.313463777687382 $447 -11.058986203000551 $444 $524 forward 7 unknown #
edge $-1 $523 -9.9566990649841394 $448 -8.6223131303995443e-015 $365 $525 forward 7 unknown #
vertex $-1 $522 $526 #
vertex $-1 $368 $527 #
straight-curve $-1 47.319806335546495 -33.841252485738742 42.827211937996879 0 0 -1 I I #
straight-curve $-1 20.967456674189492 -33.841252485738742 2.691462792076285 -1 0 0 I I #
edge $-1 $370 15.582563687021981 $523 26.352349661357003 $372 $528 forward 7 unknown #
point $-1 36.550020361211473 -25.586774911051911 8.2591783235710547 #
coedge $-1 $373 $529 $530 $531 forward $374 $-1 #
face $-1 $532 $374 $15 $-1 $533 forward single #
coedge $-1 $534 $376 $516 $535 forward $290 $-1 #
coedge $-1 $530 $536 $376 $457 reversed $537 $-1 #
edge $-1 $458 -8.2591783235710547 $538 3.6947504416788188 $456 $539 forward 7 unknown #
vertex $-1 $531 $540 #
straight-curve $-1 0 -33.841252485738742 8.2591783235710547 1 0 0 I I #
coedge $-1 $390 $388 $471 $541 forward $381 $-1 #
coedge $-1 $394 $399 $383 $462 reversed $404 $-1 #
edge $-1 $396 -33.841252485738742 $401 33.841252485738742 $461 $542 forward 7 unknown #
straight-curve $-1 -50.035706656086916 0 -8.2591783235710547 0 1 0 I I #
point $-1 -50.035706656086916 33.841252485738742 -8.2591783235710547 #
point $-1 -50.035706656086916 -33.841252485738742 -8.2591783235710547 #
vertex $-1 $541 $543 #
straight-curve $-1 0 33.841252485738742 -8.2591783235710547 1 0 0 I I #
vertex $-1 $395 $544 #
straight-curve $-1 0 -33.841252485738742 -8.2591783235710547 -1 0 0 I I #
straight-curve $-1 -50.035706656086916 0 8.2591783235710547 0 -1 0 I I #
coedge $-1 $399 $394 $460 $541 reversed $404 $-1 #
straight-curve $-1 50.035706656086916 -33.841252485738742 0 0 0 -1 I I #
point $-1 50.035706656086916 -33.841252485738742 8.2591783235710547 #
straight-curve $-1 50.035706656086916 33.841252485738742 0 0 0 -1 I I #
point $-1 50.035706656086916 33.841252485738742 8.2591783235710547 #
coedge $-1 $545 $546 $477 $547 forward $407 $-1 #
coedge $-1 $411 $410 $476 $547 reversed $269 $-1 #
coedge $-1 $485 $548 $410 $479 forward $486 $-1 #
edge $-1 $549 -27.240731006845522 $481 -18.349220291637266 $478 $550 forward 7 unknown #
edge $-1 $482 18.349220291637266 $551 27.240731006845522 $434 $552 forward 7 unknown #
vertex $-1 $479 $553 #
vertex $-1 $480 $554 #
straight-curve $-1 -41.14419594087866 0 -6.6947504416788188 0 -1 0 I I #
coedge $-1 $426 $415 $428 $505 reversed $486 $-1 #
coedge $-1 $415 $478 $417 $489 forward $486 $-1 #
loop $-1 $-1 $415 $431 #
vertex $-1 $437 $555 #
straight-curve $-1 -22.794975649241394 33.841252485738742 -3.6947504416788188 -1 0 0 I I #
edge $-1 $481 -4.0973752208394094 $419 -1.0973752208394094 $485 $556 forward 7 unknown #
point $-1 -41.14419594087866 -33.841252485738742 -3.6947504416788188 #
point $-1 -41.14419594087866 33.841252485738742 -3.6947504416788188 #
coedge $-1 $421 $434 $546 $557 forward $118 $-1 #
coedge $-1 $558 $509 $421 $494 forward $432 $-1 #
edge $-1 $498 -50.035706656086916 $559 50.035706656086916 $421 $560 forward 7 unknown #
coedge $-1 $561 $422 $509 $562 reversed $497 $-1 #
coedge $-1 $422 $561 $424 $500 reversed $497 $-1 #
loop $-1 $-1 $422 $507 #
vertex $-1 $423 $563 #
straight-curve $-1 50.035706656086916 -33.841252485738742 0 0 0 -1 I I #
edge $-1 $425 -33.841252485738742 $503 33.841252485738742 $496 $564 forward 7 unknown #
point $-1 50.035706656086916 -33.841252485738742 8.2591783235710547 #
coedge $-1 $565 $426 $561 $566 forward $486 $-1 #
vertex $-1 $500 $567 #
straight-curve $-1 0 33.841252485738742 8.2591783235710547 -1 0 0 I I #
edge $-1 $429 -8.2591783235710547 $487 3.6947504416788188 $484 $568 forward 7 unknown #
point $-1 -50.035706656086916 33.841252485738742 8.2591783235710547 #
face $-1 $-1 $497 $14 $-1 $569 reversed single #
plane-surface $-1 0 33.841252485738742 0 0 -1 0 0 0 -1 forward_v I I I I #
coedge $-1 $493 $570 $495 $562 forward $432 $-1 #
straight-curve $-1 -41.14419594087866 -33.841252485738742 -2.5973752208394094 0 0 -1 I I #
straight-curve $-1 -50.035706656086916 0 -3.6947504416788188 0 -1 0 I I #
face $-1 $571 $572 $15 $-1 $573 reversed single #
loop $-1 $-1 $574 $439 #
plane-surface $-1 -41.14419594087866 0 -5.1947504416788188 -1 0 0 0 0 1 forward_v I I I I #
coedge $-1 $575 $576 $577 $578 reversed $440 $-1 #
coedge $-1 $579 $442 $455 $535 reversed $361 $-1 #
coedge $-1 $442 $579 $580 $581 reversed $361 $-1 #
coedge $-1 $582 $574 $442 $519 forward $513 $-1 #
edge $-1 $583 -33.841252485738742 $584 33.841252485738742 $518 $585 forward 7 unknown #
coedge $-1 $443 $586 $587 $588 reversed $290 $-1 #
coedge $-1 $589 $444 $443 $522 forward $374 $-1 #
edge $-1 $447 47.319806335546495 $590 50.035706656086916 $443 $459 forward 7 unknown #
vertex $-1 $451 $591 #
straight-curve $-1 47.319806335546495 -44.900238688739293 8.2591783235710565 0 -1 0 I I #
straight-curve $-1 47.319806335546495 -33.84125248573875 2.6914627920762797 0 -0.82903756765294845 -0.55919291073839883 I I #
point $-1 47.319806335546495 -33.841252485738742 8.2591783235710547 #
point $-1 47.319806335546495 -33.841252485738742 2.6914627920762846 #
straight-curve $-1 20.967456674189492 -25.586774911051911 8.2591783235710547 1 0 0 I I #
coedge $-1 $453 $589 $592 $593 forward $374 $-1 #
coedge $-1 $594 $456 $453 $531 reversed $537 $-1 #
edge $-1 $595 -33.841252485738742 $458 33.841252485738742 $530 $596 forward 7 unknown #
face $-1 $597 $598 $15 $-1 $599 reversed single #
plane-surface $-1 0 0 8.2591783235710547 0 0 1 1 0 0 forward_v I I I I #
coedge $-1 $600 $455 $574 $601 forward $290 $-1 #
edge $-1 $538 -27.240731006845522 $583 -18.349220291637266 $455 $602 forward 7 unknown #
coedge $-1 $456 $594 $579 $603 forward $537 $-1 #
loop $-1 $-1 $536 $571 #
vertex $-1 $535 $604 #
straight-curve $-1 -50.035706656086916 -33.841252485738742 0 0 0 -1 I I #
point $-1 -50.035706656086916 -33.841252485738742 8.2591783235710547 #
edge $-1 $466 -33.841252485738742 $468 33.841252485738742 $471 $605 forward 7 unknown #
straight-curve $-1 50.035706656086916 0 8.2591783235710547 0 1 0 I I #
point $-1 50.035706656086916 33.841252485738742 -8.2591783235710547 #
point $-1 50.035706656086916 -33.841252485738742 -8.2591783235710547 #
coedge $-1 $606 $476 $548 $607 forward $407 $-1 #
coedge $-1 $476 $606 $492 $557 reversed $407 $-1 #
edge $-1 $551 -33.841252485738742 $549 33.841252485738742 $476 $608 forward 7 unknown #
coedge $-1 $478 $565 $545 $607 reversed $486 $-1 #
vertex $-1 $607 $609 #
straight-curve $-1 -22.794975649241394 33.841252485738742 -6.6947504416788188 1 0 0 I I #
vertex $-1 $557 $610 #
straight-curve $-1 -22.794975649241394 -33.841252485738742 -6.6947504416788188 -1 0 0 I I #
point $-1 -41.14419594087866 33.841252485738742 -6.6947504416788188 #
point $-1 -41.14419594087866 -33.841252485738742 -6.6947504416788188 #
point $-1 -50.035706656086916 33.841252485738742 -3.6947504416788188 #
straight-curve $-1 -41.14419594087866 33.841252485738742 -2.5973752208394094 0 0 1 I I #
edge $-1 $551 6.6947504416788188 $559 8.2591783235710547 $546 $358 forward 7 unknown #
coedge $-1 $570 $493 $606 $611 forward $432 $-1 #
vertex $-1 $611 $612 #
straight-curve $-1 0 -33.841252485738742 -8.2591783235710547 -1 0 0 I I #
coedge $-1 $496 $495 $502 $566 reversed $497 $-1 #
edge $-1 $613 -33.841252485738742 $498 33.841252485738742 $495 $614 forward 7 unknown #
point $-1 50.035706656086916 -33.841252485738742 -8.2591783235710547 #
straight-curve $-1 50.035706656086916 0 8.2591783235710547 0 1 0 I I #
coedge $-1 $548 $502 $570 $615 reversed $486 $-1 #
edge $-1 $503 -8.2591783235710547 $613 8.2591783235710547 $561 $616 forward 7 unknown #
point $-1 50.035706656086916 33.841252485738742 8.2591783235710547 #
straight-curve $-1 -50.035706656086916 33.841252485738742 0 0 0 -1 I I #
plane-surface $-1 50.035706656086916 0 0 -1 0 0 0 0 1 forward_v I I I I #
coedge $-1 $509 $558 $565 $615 forward $432 $-1 #
face $-1 $454 $537 $15 $-1 $573 reversed single #
loop $-1 $-1 $617 $512 #
plane-surface $-1 -50.035706656086916 0 0 1 0 0 0 0 -1 forward_v I I I I #
coedge $-1 $518 $577 $534 $601 reversed $513 $-1 #
coedge $-1 $618 $515 $619 $620 reversed $440 $-1 #
coedge $-1 $515 $618 $600 $621 reversed $440 $-1 #
coedge $-1 $574 $582 $515 $578 forward $513 $-1 #
edge $-1 $622 -33.841252485738742 $623 33.841252485738742 $577 $624 forward 7 unknown #
coedge $-1 $517 $516 $536 $603 reversed $361 $-1 #
coedge $-1 $625 $626 $517 $581 forward $627 $-1 #
edge $-1 $584 18.349220291637266 $628 27.240731006845522 $580 $629 forward 7 unknown #
coedge $-1 $577 $518 $626 $630 reversed $513 $-1 #
vertex $-1 $535 $631 #
vertex $-1 $581 $632 #
straight-curve $-1 -41.14419594087866 0 -3.6947504416788188 0 1 0 I I #
coedge $-1 $520 $633 $634 $635 reversed $290 $-1 #
coedge $-1 $636 $637 $520 $588 forward $638 $-1 #
edge $-1 $590 -8.2591783235710547 $639 8.2591783235710547 $587 $640 forward 7 unknown #
coedge $-1 $529 $521 $637 $641 forward $374 $-1 #
vertex $-1 $641 $642 #
point $-1 47.319806335546495 -25.586774911051911 8.2591783235710547 #
coedge $-1 $643 $625 $529 $593 reversed $627 $-1 #
edge $-1 $644 -50.035706656086916 $595 50.035706656086916 $592 $645 forward 7 unknown #
coedge $-1 $536 $530 $625 $646 forward $537 $-1 #
vertex $-1 $593 $647 #
straight-curve $-1 -50.035706656086916 0 8.2591783235710547 0 -1 0 I I #
face $-1 $648 $627 $15 $-1 $649 reversed single #
loop $-1 $-1 $650 $532 #
plane-surface $-1 0 0 -8.2591783235710547 0 0 1 1 0 0 forward_v I I I I #
coedge $-1 $633 $534 $576 $621 forward $290 $-1 #
edge $-1 $583 1.0973752208394094 $623 4.0973752208394094 $534 $651 forward 7 unknown #
straight-curve $-1 -22.794975649241394 -33.841252485738742 -3.6947504416788188 1 0 0 I I #
edge $-1 $628 -33.841252485738742 $538 33.841252485738742 $536 $652 forward 7 unknown #
point $-1 -50.035706656086916 -33.841252485738742 -3.6947504416788188 #
straight-curve $-1 50.035706656086916 0 -8.2591783235710547 0 -1 0 I I #
coedge $-1 $546 $545 $558 $611 reversed $407 $-1 #
edge $-1 $549 6.6947504416788188 $653 8.2591783235710547 $548 $568 forward 7 unknown #
straight-curve $-1 -50.035706656086916 0 -6.6947504416788188 0 1 0 I I #
point $-1 -50.035706656086916 33.841252485738742 -6.6947504416788188 #
point $-1 -50.035706656086916 -33.841252485738742 -6.6947504416788188 #
edge $-1 $559 -33.841252485738742 $653 33.841252485738742 $606 $654 forward 7 unknown #
point $-1 -50.035706656086916 -33.841252485738742 -8.2591783235710547 #
vertex $-1 $562 $655 #
straight-curve $-1 50.035706656086916 0 -8.2591783235710547 0 -1 0 I I #
edge $-1 $653 -50.035706656086916 $613 50.035706656086916 $565 $656 forward 7 unknown #
straight-curve $-1 50.035706656086916 33.841252485738742 0 0 0 -1 I I #
coedge $-1 $657 $658 $618 $659 forward $572 $-1 #
coedge $-1 $576 $575 $617 $659 reversed $440 $-1 #
coedge $-1 $626 $660 $575 $620 forward $627 $-1 #
edge $-1 $661 -27.240731006845522 $622 -18.349220291637266 $619 $662 forward 7 unknown #
edge $-1 $623 18.349220291637266 $663 27.240731006845522 $600 $664 forward 7 unknown #
vertex $-1 $620 $665 #
vertex $-1 $621 $666 #
straight-curve $-1 -41.14419594087866 0 -6.6947504416788188 0 -1 0 I I #
coedge $-1 $592 $580 $594 $646 reversed $627 $-1 #
coedge $-1 $580 $619 $582 $630 forward $627 $-1 #
loop $-1 $-1 $580 $597 #
vertex $-1 $603 $667 #
straight-curve $-1 -22.794975649241394 33.841252485738742 -3.6947504416788188 -1 0 0 I I #
edge $-1 $622 -4.0973752208394094 $584 -1.0973752208394094 $626 $668 forward 7 unknown #
point $-1 -41.14419594087866 -33.841252485738742 -3.6947504416788188 #
point $-1 -41.14419594087866 33.841252485738742 -3.6947504416788188 #
coedge $-1 $586 $600 $658 $669 forward $290 $-1 #
coedge $-1 $670 $650 $586 $635 forward $598 $-1 #
edge $-1 $639 -50.035706656086916 $671 50.035706656086916 $586 $672 forward 7 unknown #
coedge $-1 $673 $587 $650 $674 reversed $638 $-1 #
coedge $-1 $587 $673 $589 $641 reversed $638 $-1 #
loop $-1 $-1 $587 $648 #
vertex $-1 $588 $675 #
straight-curve $-1 50.035706656086916 -33.841252485738742 0 0 0 -1 I I #
edge $-1 $590 -33.841252485738742 $644 33.841252485738742 $637 $676 forward 7 unknown #
point $-1 50.035706656086916 -33.841252485738742 8.2591783235710547 #
coedge $-1 $677 $592 $673 $678 forward $627 $-1 #
vertex $-1 $641 $679 #
straight-curve $-1 0 33.841252485738742 8.2591783235710547 -1 0 0 I I #
edge $-1 $595 -8.2591783235710547 $628 3.6947504416788188 $625 $680 forward 7 unknown #
point $-1 -50.035706656086916 33.841252485738742 8.2591783235710547 #
face $-1 $-1 $638 $15 $-1 $681 reversed single #
plane-surface $-1 0 33.841252485738742 0 0 -1 0 0 0 -1 forward_v I I I I #
coedge $-1 $634 $682 $636 $674 forward $598 $-1 #
straight-curve $-1 -41.14419594087866 -33.841252485738742 -2.5973752208394094 0 0 -1 I I #
straight-curve $-1 -50.035706656086916 0 -3.6947504416788188 0 -1 0 I I #
vertex $-1 $615 $683 #
straight-curve $-1 -50.035706656086916 0 -8.2591783235710547 0 1 0 I I #
point $-1 50.035706656086916 33.841252485738742 -8.2591783235710547 #
straight-curve $-1 0 33.841252485738742 -8.2591783235710547 1 0 0 I I #
coedge $-1 $684 $617 $660 $685 forward $572 $-1 #
coedge $-1 $617 $684 $633 $669 reversed $572 $-1 #
edge $-1 $663 -33.841252485738742 $661 33.841252485738742 $617 $686 forward 7 unknown #
coedge $-1 $619 $677 $657 $685 reversed $627 $-1 #
vertex $-1 $685 $687 #
straight-curve $-1 -22.794975649241394 33.841252485738742 -6.6947504416788188 1 0 0 I I #
vertex $-1 $669 $688 #
straight-curve $-1 -22.794975649241394 -33.841252485738742 -6.6947504416788188 -1 0 0 I I #
point $-1 -41.14419594087866 33.841252485738742 -6.6947504416788188 #
point $-1 -41.14419594087866 -33.841252485738742 -6.6947504416788188 #
point $-1 -50.035706656086916 33.841252485738742 -3.6947504416788188 #
straight-curve $-1 -41.14419594087866 33.841252485738742 -2.5973752208394094 0 0 1 I I #
edge $-1 $663 6.6947504416788188 $671 8.2591783235710547 $658 $539 forward 7 unknown #
coedge $-1 $682 $634 $684 $689 forward $598 $-1 #
vertex $-1 $689 $690 #
straight-curve $-1 0 -33.841252485738742 -8.2591783235710547 -1 0 0 I I #
coedge $-1 $637 $636 $643 $678 reversed $638 $-1 #
edge $-1 $691 -33.841252485738742 $639 33.841252485738742 $636 $692 forward 7 unknown #
point $-1 50.035706656086916 -33.841252485738742 -8.2591783235710547 #
straight-curve $-1 50.035706656086916 0 8.2591783235710547 0 1 0 I I #
coedge $-1 $660 $643 $682 $693 reversed $627 $-1 #
edge $-1 $644 -8.2591783235710547 $691 8.2591783235710547 $673 $694 forward 7 unknown #
point $-1 50.035706656086916 33.841252485738742 8.2591783235710547 #
straight-curve $-1 -50.035706656086916 33.841252485738742 0 0 0 -1 I I #
plane-surface $-1 50.035706656086916 0 0 -1 0 0 0 0 1 forward_v I I I I #
coedge $-1 $650 $670 $677 $693 forward $598 $-1 #
point $-1 -50.035706656086916 33.841252485738742 -8.2591783235710547 #
coedge $-1 $658 $657 $670 $689 reversed $572 $-1 #
edge $-1 $661 6.6947504416788188 $695 8.2591783235710547 $660 $680 forward 7 unknown #
straight-curve $-1 -50.035706656086916 0 -6.6947504416788188 0 1 0 I I #
point $-1 -50.035706656086916 33.841252485738742 -6.6947504416788188 #
point $-1 -50.035706656086916 -33.841252485738742 -6.6947504416788188 #
edge $-1 $671 -33.841252485738742 $695 33.841252485738742 $684 $696 forward 7 unknown #
point $-1 -50.035706656086916 -33.841252485738742 -8.2591783235710547 #
vertex $-1 $674 $697 #
straight-curve $-1 50.035706656086916 0 -8.2591783235710547 0 -1 0 I I #
edge $-1 $695 -50.035706656086916 $691 50.035706656086916 $677 $698 forward 7 unknown #
straight-curve $-1 50.035706656086916 33.841252485738742 0 0 0 -1 I I #
vertex $-1 $693 $699 #
straight-curve $-1 -50.035706656086916 0 -8.2591783235710547 0 1 0 I I #
point $-1 50.035706656086916 33.841252485738742 -8.2591783235710547 #
straight-curve $-1 0 33.841252485738742 -8.2591783235710547 1 0 0 I I #
point $-1 -50.035706656086916 33.841252485738742 -8.2591783235710547 #
End-of-ACIS-data 