500 0 7 0           
7 Unknown 11 ACIS 5.0 NT 24 Fri Mar 26 20:09:36 1999 
-1 9.9999999999999995e-007 1e-010 
body $-1 $7 $-1 $8 #
body $-1 $9 $-1 $10 #
body $-1 $11 $-1 $12 #
body $-1 $13 $-1 $14 #
body $-1 $15 $-1 $16 #
body $-1 $17 $-1 $18 #
body $-1 $19 $-1 $20 #
lump $-1 $-1 $21 $0 #
transform $-1 1 0 0 0 1 0 0 0 1 52.057252723776969 31.317917767670846 7.6763163106493852 1 rotate no_reflect no_shear #
lump $-1 $-1 $22 $1 #
transform $-1 1 0 0 0 1 0 0 0 1 52.057252723776969 31.317917767670846 7.6763163106493852 1 rotate no_reflect no_shear #
lump $-1 $-1 $23 $2 #
transform $-1 1 0 0 0 1 0 0 0 1 52.057252723776969 31.317917767670846 7.6763163106493852 1 rotate no_reflect no_shear #
lump $-1 $-1 $24 $3 #
transform $-1 1 0 0 0 1 0 0 0 1 52.057252723776969 31.317917767670846 7.6763163106493852 1 rotate no_reflect no_shear #
lump $-1 $-1 $25 $4 #
transform $-1 1 0 0 0 1 0 0 0 1 52.057252723776969 31.317917767670846 7.6763163106493852 1 rotate no_reflect no_shear #
lump $-1 $-1 $26 $5 #
transform $-1 1 0 0 0 1 0 0 0 1 52.057252723776969 31.317917767670846 7.6763163106493852 1 rotate no_reflect no_shear #
lump $-1 $-1 $27 $6 #
transform $-1 1 0 0 0 1 0 0 0 1 52.057252723776969 31.317917767670846 7.6763163106493852 1 rotate no_reflect no_shear #
shell $-1 $-1 $-1 $28 $-1 $7 #
shell $-1 $-1 $-1 $29 $-1 $9 #
shell $-1 $-1 $-1 $30 $-1 $11 #
shell $-1 $-1 $-1 $31 $-1 $13 #
shell $-1 $-1 $-1 $32 $-1 $15 #
shell $-1 $-1 $-1 $33 $-1 $17 #
shell $-1 $-1 $-1 $34 $-1 $19 #
face $-1 $35 $36 $21 $-1 $37 forward single #
face $-1 $38 $39 $22 $-1 $40 forward single #
face $-1 $41 $42 $23 $-1 $43 forward single #
face $-1 $44 $45 $24 $-1 $46 reversed single #
face $-1 $47 $48 $25 $-1 $49 forward single #
face $-1 $50 $51 $26 $-1 $52 reversed single #
face $-1 $53 $54 $27 $-1 $55 forward single #
face $-1 $56 $57 $21 $-1 $58 reversed single #
loop $-1 $-1 $59 $28 #
plane-surface $-1 0 0 7.6763163106493852 0 0 1 1 0 0 forward_v I I I I #
face $-1 $60 $61 $22 $-1 $62 reversed single #
loop $-1 $-1 $63 $29 #
plane-surface $-1 -48.907528973894543 0 -3.0867379897188116 0 0 1 1 0 0 forward_v I I I I #
face $-1 $64 $65 $23 $-1 $66 reversed single #
loop $-1 $-1 $67 $30 #
plane-surface $-1 47.834325275110302 0 7.1609792705384372 0 0 1 1 0 0 forward_v I I I I #
face $-1 $68 $69 $24 $-1 $70 reversed single #
loop $-1 $-1 $71 $31 #
plane-surface $-1 -1.0732036987842442 56.514890886648743 122.04730409923522 -1 0 0 0 0.68199836817093118 0.7313536940579346 forward_v I I I I #
face $-1 $72 $73 $25 $-1 $74 forward single #
loop $-1 $75 $76 $32 #
cone-surface $-1 -8.8074022314620564 27.992727140651688 4.4472598179258718 0 -0.68199836817093118 -0.7313536940579346 1.5 0 0 1 I I 0 1 1.5 forward I I I I #
face $-1 $77 $78 $26 $-1 $79 reversed single #
loop $-1 $-1 $80 $33 #
plane-surface $-1 -8.8074022314620493 -14.491031931506569 45.902775935151695 0 0.68199836817093118 0.7313536940579346 1 0 0 forward_v I I I I #
face $-1 $81 $82 $27 $-1 $83 forward single #
loop $-1 $84 $85 $34 #
cone-surface $-1 6.660994833893561 27.992727140651688 4.4472598179258718 0 -0.68199836817093118 -0.7313536940579346 1.5 0 0 1 I I 0 1 1.5 forward I I I I #
face $-1 $86 $87 $21 $-1 $88 reversed single #
loop $-1 $-1 $89 $35 #
plane-surface $-1 0 0 -7.6763163106493852 0 0 1 1 0 0 forward_v I I I I #
coedge $-1 $90 $91 $92 $93 forward $36 $-1 #
face $-1 $94 $95 $22 $-1 $96 reversed single #
loop $-1 $-1 $97 $38 #
plane-surface $-1 -45.757805224012117 0 -5.3815271501840982 -1 0 0 0 0 1 forward_v I I I I #
coedge $-1 $98 $99 $100 $101 forward $39 $-1 #
face $-1 $102 $103 $23 $-1 $104 reversed single #
loop $-1 $-1 $105 $41 #
plane-surface $-1 47.834325275110302 0 4.1609792705384372 0 0 1 1 0 0 forward_v I I I I #
coedge $-1 $106 $107 $108 $109 reversed $42 $-1 #
face $-1 $110 $111 $24 $-1 $112 reversed single #
loop $-1 $-1 $113 $44 #
plane-surface $-1 -8.8074022314620493 -14.491031931506569 45.902775935151695 0 0.68199836817093118 0.7313536940579346 1 0 0 forward_v I I I I #
coedge $-1 $114 $115 $116 $117 reversed $45 $-1 #
face $-1 $-1 $118 $25 $-1 $119 forward single #
loop $-1 $120 $121 $47 #
cone-surface $-1 -8.8074022314620564 26.564083444516772 2.9152270544706678 0 -0.68199836817093118 -0.7313536940579346 0.75 0 0 1 I I -0.70710678118654757 0.70710678118654757 0.75 forward I I I I #
loop $-1 $-1 $122 $32 #
coedge $-1 $76 $76 $123 $124 reversed $48 $-1 #
face $-1 $125 $126 $26 $-1 $127 reversed single #
loop $-1 $-1 $128 $50 #
plane-surface $-1 14.395193366571373 56.514890886648743 122.04730409923522 -1 0 0 0 0.68199836817093118 0.7313536940579346 forward_v I I I I #
coedge $-1 $129 $130 $131 $132 reversed $51 $-1 #
face $-1 $-1 $133 $27 $-1 $134 forward single #
loop $-1 $135 $136 $53 #
cone-surface $-1 6.660994833893561 26.564083444516772 2.9152270544706678 0 -0.68199836817093118 -0.7313536940579346 0.75 0 0 1 I I -0.70710678118654757 0.70710678118654757 0.75 forward I I I I #
loop $-1 $-1 $137 $34 #
coedge $-1 $85 $85 $138 $139 reversed $54 $-1 #
face $-1 $140 $141 $21 $-1 $142 reversed single #
loop $-1 $-1 $143 $56 #
plane-surface $-1 0 -31.317917767670846 0 0 1 0 0 0 1 forward_v I I I I #
coedge $-1 $144 $145 $146 $147 forward $57 $-1 #
coedge $-1 $148 $59 $149 $150 forward $36 $-1 #
coedge $-1 $59 $148 $151 $152 forward $36 $-1 #
coedge $-1 $153 $154 $59 $93 reversed $155 $-1 #
edge $-1 $156 -31.317917767670846 $157 31.317917767670846 $92 $158 forward 7 unknown #
face $-1 $159 $160 $22 $-1 $161 reversed single #
loop $-1 $-1 $162 $60 #
plane-surface $-1 0 0 -7.6763163106493852 0 0 1 1 0 0 forward_v I I I I #
coedge $-1 $163 $100 $164 $165 reversed $61 $-1 #
coedge $-1 $166 $63 $167 $168 reversed $39 $-1 #
coedge $-1 $63 $166 $169 $170 reversed $39 $-1 #
coedge $-1 $97 $171 $63 $101 reversed $61 $-1 #
edge $-1 $172 -31.317917767670846 $173 31.317917767670846 $100 $174 forward 7 unknown #
face $-1 $175 $176 $23 $-1 $177 reversed single #
loop $-1 $-1 $178 $64 #
plane-surface $-1 43.611397826443628 0 5.6609792705384372 1 0 0 0 0 -1 forward_v I I I I #
coedge $-1 $179 $180 $181 $182 reversed $65 $-1 #
coedge $-1 $183 $67 $184 $185 reversed $42 $-1 #
coedge $-1 $67 $183 $186 $187 reversed $42 $-1 #
coedge $-1 $188 $189 $67 $109 forward $190 $-1 #
edge $-1 $191 -31.317917767670846 $192 31.317917767670846 $108 $193 forward 7 unknown #
face $-1 $194 $195 $24 $-1 $196 reversed single #
loop $-1 $-1 $197 $68 #
plane-surface $-1 -16.541600764139854 56.514890886648743 122.04730409923522 1 0 0 0 -0.68199836817093118 -0.7313536940579346 forward_v I I I I #
coedge $-1 $198 $199 $200 $201 reversed $69 $-1 #
coedge $-1 $115 $71 $202 $203 reversed $45 $-1 #
coedge $-1 $71 $114 $198 $204 reversed $45 $-1 #
coedge $-1 $200 $205 $71 $117 forward $195 $-1 #
edge $-1 $206 53.347335738968226 $207 57.83841373859179 $116 $208 forward 7 unknown #
loop $-1 $-1 $123 $72 #
plane-surface $-1 -8.8074022314620493 -14.491031931506569 45.902775935151695 0 0.68199836817093118 0.7313536940579346 1 0 0 forward_v I I I I #
loop $-1 $-1 $209 $47 #
coedge $-1 $121 $121 $122 $210 reversed $73 $-1 #
coedge $-1 $122 $122 $121 $210 forward $75 $-1 #
coedge $-1 $123 $123 $76 $124 forward $118 $-1 #
edge $-1 $211 -1.2646059382128307e-015 $211 6.2831853071795996 $123 $212 forward 7 unknown #
face $-1 $213 $214 $26 $-1 $215 forward single #
loop $-1 $-1 $216 $77 #
plane-surface $-1 0 31.317917767670846 0 0 -1 0 0 0 -1 forward_v I I I I #
coedge $-1 $217 $218 $219 $220 reversed $78 $-1 #
coedge $-1 $221 $80 $222 $223 reversed $51 $-1 #
coedge $-1 $80 $221 $224 $225 reversed $51 $-1 #
coedge $-1 $226 $227 $80 $132 forward $214 $-1 #
edge $-1 $228 -62.635835535341727 $229 -56.050661421702266 $131 $230 forward 7 unknown #
loop $-1 $-1 $138 $81 #
plane-surface $-1 -8.8074022314620493 -14.491031931506569 45.902775935151695 0 0.68199836817093118 0.7313536940579346 1 0 0 forward_v I I I I #
loop $-1 $-1 $231 $53 #
coedge $-1 $136 $136 $137 $232 reversed $82 $-1 #
coedge $-1 $137 $137 $136 $232 forward $84 $-1 #
coedge $-1 $138 $138 $85 $139 forward $133 $-1 #
edge $-1 $233 -1.2646059382128307e-015 $233 6.2831853071795996 $138 $234 forward 7 unknown #
face $-1 $235 $236 $21 $-1 $237 reversed single #
loop $-1 $-1 $238 $86 #
plane-surface $-1 -52.057252723776969 0 0 1 0 0 0 0 -1 forward_v I I I I #
coedge $-1 $239 $151 $240 $241 forward $87 $-1 #
coedge $-1 $242 $89 $239 $243 forward $57 $-1 #
coedge $-1 $89 $242 $244 $245 forward $57 $-1 #
coedge $-1 $154 $153 $89 $147 reversed $155 $-1 #
edge $-1 $246 -31.317917767670846 $247 31.317917767670846 $146 $248 forward 7 unknown #
coedge $-1 $91 $90 $249 $250 forward $36 $-1 #
coedge $-1 $251 $252 $90 $150 reversed $236 $-1 #
edge $-1 $157 -52.057252723776969 $253 52.057252723776969 $149 $254 forward 7 unknown #
coedge $-1 $143 $255 $91 $152 reversed $87 $-1 #
edge $-1 $256 -52.057252723776969 $156 52.057252723776969 $151 $257 forward 7 unknown #
coedge $-1 $146 $92 $255 $258 forward $155 $-1 #
coedge $-1 $92 $146 $251 $259 reversed $155 $-1 #
loop $-1 $-1 $153 $235 #
vertex $-1 $93 $260 #
vertex $-1 $93 $261 #
straight-curve $-1 52.057252723776969 0 7.6763163106493852 0 1 0 I I #
face $-1 $262 $263 $22 $-1 $264 reversed single #
loop $-1 $-1 $164 $94 #
plane-surface $-1 0 -31.317917767670846 0 0 1 0 0 0 1 forward_v I I I I #
coedge $-1 $265 $266 $163 $267 forward $95 $-1 #
coedge $-1 $171 $97 $162 $267 reversed $61 $-1 #
coedge $-1 $169 $268 $97 $165 forward $160 $-1 #
edge $-1 $269 -4.9855527355573361 $172 -0.39597441462676253 $164 $270 forward 7 unknown #
coedge $-1 $99 $98 $271 $272 reversed $39 $-1 #
coedge $-1 $273 $274 $98 $168 forward $275 $-1 #
edge $-1 $276 -27.603488236829698 $173 -21.304040737064845 $167 $277 forward 7 unknown #
coedge $-1 $278 $164 $99 $170 forward $160 $-1 #
edge $-1 $172 21.304040737064845 $279 27.603488236829698 $169 $280 forward 7 unknown #
coedge $-1 $100 $163 $273 $281 reversed $61 $-1 #
vertex $-1 $170 $282 #
vertex $-1 $168 $283 #
straight-curve $-1 -45.757805224012117 0 -3.0867379897188116 0 1 0 I I #
face $-1 $284 $285 $23 $-1 $286 reversed single #
loop $-1 $-1 $186 $102 #
plane-surface $-1 0 -31.317917767670846 0 0 1 0 0 0 1 forward_v I I I I #
coedge $-1 $287 $288 $289 $290 reversed $103 $-1 #
coedge $-1 $291 $105 $292 $293 reversed $65 $-1 #
coedge $-1 $105 $291 $294 $295 reversed $65 $-1 #
coedge $-1 $189 $188 $105 $182 forward $190 $-1 #
edge $-1 $296 -31.317917767670846 $297 31.317917767670846 $181 $298 forward 7 unknown #
coedge $-1 $107 $106 $288 $299 forward $42 $-1 #
coedge $-1 $300 $289 $106 $185 forward $285 $-1 #
edge $-1 $301 19.694235188888477 $191 28.140090086221825 $184 $302 forward 7 unknown #
coedge $-1 $303 $304 $107 $187 forward $176 $-1 #
edge $-1 $192 -28.140090086221825 $305 -19.694235188888477 $186 $306 forward 7 unknown #
coedge $-1 $181 $108 $304 $307 forward $190 $-1 #
coedge $-1 $108 $181 $300 $308 reversed $190 $-1 #
loop $-1 $-1 $108 $284 #
vertex $-1 $308 $309 #
vertex $-1 $307 $310 #
straight-curve $-1 52.057252723776969 0 7.1609792705384372 0 -1 0 I I #
face $-1 $-1 $311 $24 $-1 $312 forward single #
loop $-1 $-1 $116 $110 #
plane-surface $-1 0 31.317917767670846 0 0 -1 0 0 0 -1 forward_v I I I I #
coedge $-1 $313 $314 $315 $316 reversed $111 $-1 #
coedge $-1 $317 $113 $115 $204 forward $69 $-1 #
coedge $-1 $113 $317 $313 $318 forward $69 $-1 #
coedge $-1 $315 $116 $113 $201 forward $195 $-1 #
edge $-1 $207 -3.3304974169467805 $319 12.13789964840883 $200 $320 forward 7 unknown #
coedge $-1 $321 $322 $114 $203 forward $311 $-1 #
edge $-1 $323 -1.7556190896784258 $206 3.060472324346474 $202 $324 forward 7 unknown #
edge $-1 $207 -62.635835535341727 $323 -56.050661421702266 $115 $325 forward 7 unknown #
coedge $-1 $116 $315 $321 $326 reversed $195 $-1 #
vertex $-1 $326 $327 #
vertex $-1 $117 $328 #
straight-curve $-1 -1.0732036987842442 31.317917767670846 61.02365204961761 0 0 -1 I I #
coedge $-1 $209 $209 $-1 $329 reversed $120 $-1 #
edge $-1 $330 0 $330 6.2831853071796004 $121 $331 forward 7 unknown #
vertex $-1 $124 $332 #
ellipse-curve $-1 -8.8074022314620564 28.90987206065839 5.430777310837609 0 0.68199836817093118 0.7313536940579346 1.5 0 0 1 I I #
face $-1 $-1 $333 $26 $-1 $334 forward single #
loop $-1 $-1 $227 $125 #
plane-surface $-1 -1.0732036987842442 56.514890886648743 122.04730409923522 -1 0 0 0 0.68199836817093118 0.7313536940579346 forward_v I I I I #
coedge $-1 $222 $335 $218 $336 forward $126 $-1 #
coedge $-1 $218 $128 $221 $337 reversed $78 $-1 #
coedge $-1 $128 $217 $216 $336 reversed $78 $-1 #
coedge $-1 $338 $224 $128 $220 forward $333 $-1 #
edge $-1 $339 -1.7556190896784258 $340 3.060472324346474 $219 $341 forward 7 unknown #
coedge $-1 $130 $129 $217 $337 forward $51 $-1 #
coedge $-1 $342 $216 $129 $223 forward $126 $-1 #
edge $-1 $343 -18.798894482302398 $228 -3.3304974169467805 $222 $344 forward 7 unknown #
coedge $-1 $219 $345 $130 $225 forward $333 $-1 #
edge $-1 $229 3.3304974169467805 $339 18.798894482302398 $224 $346 forward 7 unknown #
coedge $-1 $227 $131 $345 $347 reversed $214 $-1 #
coedge $-1 $131 $226 $342 $348 reversed $214 $-1 #
vertex $-1 $223 $349 #
vertex $-1 $225 $350 #
straight-curve $-1 -1.0732036987842442 -14.491031931506569 45.902775935151695 0 -0.7313536940579346 0.68199836817093118 I I #
coedge $-1 $231 $231 $-1 $351 reversed $135 $-1 #
edge $-1 $352 0 $352 6.2831853071796004 $136 $353 forward 7 unknown #
vertex $-1 $139 $354 #
ellipse-curve $-1 6.660994833893561 28.90987206065839 5.430777310837609 0 0.68199836817093118 0.7313536940579346 1.5 0 0 1 I I #
face $-1 $-1 $155 $21 $-1 $355 reversed single #
loop $-1 $-1 $251 $140 #
plane-surface $-1 0 31.317917767670846 0 0 -1 0 0 0 -1 forward_v I I I I #
coedge $-1 $356 $249 $252 $357 forward $141 $-1 #
coedge $-1 $255 $143 $144 $243 reversed $87 $-1 #
coedge $-1 $249 $356 $143 $241 reversed $141 $-1 #
edge $-1 $256 -7.6763163106493852 $358 7.6763163106493852 $240 $359 forward 7 unknown #
coedge $-1 $145 $144 $356 $360 forward $57 $-1 #
edge $-1 $247 -52.057252723776969 $358 52.057252723776969 $239 $361 forward 7 unknown #
coedge $-1 $252 $251 $145 $245 reversed $236 $-1 #
edge $-1 $362 -52.057252723776969 $246 52.057252723776969 $244 $363 forward 7 unknown #
vertex $-1 $147 $364 #
vertex $-1 $258 $365 #
straight-curve $-1 52.057252723776969 0 -7.6763163106493852 0 -1 0 I I #
coedge $-1 $238 $240 $148 $250 reversed $141 $-1 #
edge $-1 $253 -31.317917767670846 $256 31.317917767670846 $249 $366 forward 7 unknown #
coedge $-1 $244 $149 $154 $259 forward $236 $-1 #
coedge $-1 $149 $244 $238 $357 reversed $236 $-1 #
vertex $-1 $150 $367 #
straight-curve $-1 0 31.317917767670846 7.6763163106493852 -1 0 0 I I #
coedge $-1 $151 $239 $153 $258 reversed $87 $-1 #
vertex $-1 $250 $368 #
straight-curve $-1 0 -31.317917767670846 7.6763163106493852 1 0 0 I I #
edge $-1 $156 -7.6763163106493852 $247 7.6763163106493852 $153 $369 forward 7 unknown #
edge $-1 $157 -7.6763163106493852 $246 7.6763163106493852 $154 $370 forward 7 unknown #
point $-1 52.057252723776969 -31.317917767670846 7.6763163106493852 #
point $-1 52.057252723776969 31.317917767670846 7.6763163106493852 #
face $-1 $-1 $275 $22 $-1 $371 reversed single #
loop $-1 $-1 $271 $159 #
plane-surface $-1 -52.057252723776969 0 0 1 0 0 0 0 -1 forward_v I I I I #
coedge $-1 $372 $162 $268 $373 forward $95 $-1 #
coedge $-1 $162 $372 $374 $375 forward $95 $-1 #
edge $-1 $376 -31.317917767670846 $269 31.317917767670846 $162 $377 forward 7 unknown #
coedge $-1 $164 $278 $265 $373 reversed $160 $-1 #
vertex $-1 $373 $378 #
straight-curve $-1 -45.757805224012117 -31.317917767670846 -2.6907635750920491 0 0 1 I I #
coedge $-1 $379 $380 $166 $272 forward $263 $-1 #
edge $-1 $279 -31.317917767670846 $276 31.317917767670846 $271 $381 forward 7 unknown #
coedge $-1 $374 $167 $171 $281 forward $275 $-1 #
coedge $-1 $167 $374 $379 $382 reversed $275 $-1 #
loop $-1 $-1 $273 $262 #
vertex $-1 $382 $383 #
straight-curve $-1 -24.453764486947271 31.317917767670846 -3.0867379897188116 1 0 0 I I #
coedge $-1 $268 $169 $380 $384 forward $160 $-1 #
vertex $-1 $384 $385 #
straight-curve $-1 -24.453764486947271 -31.317917767670846 -3.0867379897188116 -1 0 0 I I #
edge $-1 $173 0.39597441462676253 $376 4.9855527355573361 $273 $386 forward 7 unknown #
point $-1 -45.757805224012117 -31.317917767670846 -3.0867379897188116 #
point $-1 -45.757805224012117 31.317917767670846 -3.0867379897188116 #
face $-1 $-1 $190 $23 $-1 $387 reversed single #
loop $-1 $-1 $184 $175 #
plane-surface $-1 0 31.317917767670846 0 0 -1 0 0 0 -1 forward_v I I I I #
coedge $-1 $388 $178 $291 $389 reversed $103 $-1 #
coedge $-1 $178 $388 $183 $299 reversed $103 $-1 #
coedge $-1 $184 $294 $178 $290 forward $285 $-1 #
edge $-1 $390 1.3304896352692186 $301 4.3304896352692186 $289 $391 forward 7 unknown #
coedge $-1 $180 $179 $287 $389 forward $65 $-1 #
coedge $-1 $304 $303 $179 $293 forward $176 $-1 #
edge $-1 $392 19.694235188888477 $296 28.140090086221825 $292 $393 forward 7 unknown #
coedge $-1 $289 $300 $180 $295 forward $285 $-1 #
edge $-1 $297 -28.140090086221825 $390 -19.694235188888477 $294 $394 forward 7 unknown #
vertex $-1 $182 $395 #
vertex $-1 $182 $396 #
straight-curve $-1 52.057252723776969 0 4.1609792705384372 0 1 0 I I #
edge $-1 $301 -31.317917767670846 $305 31.317917767670846 $288 $397 forward 7 unknown #
coedge $-1 $294 $184 $189 $308 forward $285 $-1 #
vertex $-1 $185 $398 #
straight-curve $-1 23.917162637555151 31.317917767670846 7.1609792705384372 1 0 0 I I #
coedge $-1 $292 $186 $388 $399 forward $176 $-1 #
coedge $-1 $186 $292 $188 $307 reversed $176 $-1 #
vertex $-1 $187 $400 #
straight-curve $-1 23.917162637555151 -31.317917767670846 7.1609792705384372 -1 0 0 I I #
edge $-1 $192 -7.1609792705384372 $296 -4.1609792705384372 $188 $401 forward 7 unknown #
edge $-1 $191 -7.1609792705384372 $297 -4.1609792705384372 $189 $402 forward 7 unknown #
point $-1 52.057252723776976 31.317917767670846 7.1609792705384372 #
point $-1 52.057252723776976 -31.317917767670846 7.1609792705384372 #
loop $-1 $-1 $202 $194 #
plane-surface $-1 0 0 7.6763163106493852 0 0 1 1 0 0 forward_v I I I I #
coedge $-1 $314 $197 $199 $318 reversed $111 $-1 #
coedge $-1 $197 $313 $403 $404 reversed $111 $-1 #
coedge $-1 $205 $200 $197 $316 forward $195 $-1 #
edge $-1 $319 -57.83841373859179 $405 -53.347335738968226 $315 $406 forward 7 unknown #
coedge $-1 $199 $198 $322 $407 reversed $69 $-1 #
edge $-1 $408 56.050661421702266 $319 62.635835535341727 $313 $409 forward 7 unknown #
vertex $-1 $201 $410 #
straight-curve $-1 -4.4037011157310246 31.317917767670842 3.1852383110258238 -1 0 0 I I #
coedge $-1 $403 $202 $205 $326 forward $311 $-1 #
coedge $-1 $202 $403 $317 $407 forward $311 $-1 #
vertex $-1 $203 $411 #
straight-curve $-1 -1.0732036987842442 28.257445443324372 7.6763163106493835 0 1 0 I I #
straight-curve $-1 -1.0732036987842442 -14.491031931506569 45.902775935151695 0 -0.7313536940579346 0.68199836817093118 I I #
edge $-1 $206 1.0732036987842442 $405 16.541600764139854 $205 $412 forward 7 unknown #
point $-1 -1.0732036987842442 31.317917767670846 7.6763163106493852 #
point $-1 -1.0732036987842442 31.317917767670849 3.1852383110258202 #
edge $-1 $413 1 $413 0 $209 $-1 forward 7 unknown #
vertex $-1 $210 $414 #
ellipse-curve $-1 -8.8074022314620564 27.075582220644971 3.4637423250141186 0 0.68199836817093118 0.7313536940579346 1.5 0 0 1 I I #
point $-1 -7.3074022314620564 28.909872060658401 5.4307773108376232 #
loop $-1 $-1 $219 $213 #
plane-surface $-1 0 0 7.6763163106493852 0 0 1 1 0 0 forward_v I I I I #
coedge $-1 $216 $342 $338 $415 reversed $126 $-1 #
edge $-1 $340 53.347335738968226 $343 57.83841373859179 $216 $416 forward 7 unknown #
edge $-1 $343 -62.635835535341727 $339 -56.050661421702266 $217 $417 forward 7 unknown #
coedge $-1 $345 $219 $335 $415 forward $333 $-1 #
vertex $-1 $220 $418 #
vertex $-1 $415 $419 #
straight-curve $-1 14.395193366571373 28.257445443324372 7.6763163106493835 0 1 0 I I #
coedge $-1 $335 $222 $227 $348 forward $126 $-1 #
vertex $-1 $336 $420 #
straight-curve $-1 -4.4037011157310246 31.317917767670842 3.1852383110258238 -1 0 0 I I #
coedge $-1 $224 $338 $226 $347 forward $333 $-1 #
straight-curve $-1 -4.4037011157310246 26.501826353645942 7.6763163106493835 1 0 0 I I #
edge $-1 $421 -3.060472324346474 $229 1.7556190896784258 $345 $422 forward 7 unknown #
edge $-1 $228 -57.83841373859179 $421 -53.347335738968226 $342 $423 forward 7 unknown #
point $-1 -1.0732036987842442 31.317917767670849 3.1852383110258202 #
point $-1 -1.0732036987842442 26.501826353645946 7.6763163106493835 #
edge $-1 $424 1 $424 0 $231 $-1 forward 7 unknown #
vertex $-1 $232 $425 #
ellipse-curve $-1 6.660994833893561 27.075582220644971 3.4637423250141186 0 0.68199836817093118 0.7313536940579346 1.5 0 0 1 I I #
point $-1 8.160994833893561 28.909872060658401 5.4307773108376232 #
plane-surface $-1 52.057252723776969 0 0 -1 0 0 0 0 1 forward_v I I I I #
coedge $-1 $240 $238 $242 $360 reversed $141 $-1 #
edge $-1 $253 -7.6763163106493852 $362 7.6763163106493852 $252 $426 forward 7 unknown #
vertex $-1 $360 $427 #
straight-curve $-1 -52.057252723776969 -31.317917767670846 0 0 0 -1 I I #
edge $-1 $358 -31.317917767670846 $362 31.317917767670846 $356 $428 forward 7 unknown #
straight-curve $-1 0 -31.317917767670846 -7.6763163106493852 -1 0 0 I I #
vertex $-1 $245 $429 #
straight-curve $-1 0 31.317917767670846 -7.6763163106493852 1 0 0 I I #
point $-1 52.057252723776969 31.317917767670846 -7.6763163106493852 #
point $-1 52.057252723776969 -31.317917767670846 -7.6763163106493852 #
straight-curve $-1 -52.057252723776969 0 7.6763163106493852 0 -1 0 I I #
point $-1 -52.057252723776969 31.317917767670846 7.6763163106493852 #
point $-1 -52.057252723776969 -31.317917767670846 7.6763163106493852 #
straight-curve $-1 52.057252723776969 -31.317917767670846 0 0 0 -1 I I #
straight-curve $-1 52.057252723776969 31.317917767670846 0 0 0 -1 I I #
plane-surface $-1 0 31.317917767670846 0 0 -1 0 0 0 -1 forward_v I I I I #
coedge $-1 $266 $265 $430 $431 forward $95 $-1 #
edge $-1 $269 45.757805224012117 $432 52.057252723776969 $268 $433 forward 7 unknown #
coedge $-1 $274 $273 $266 $375 reversed $275 $-1 #
edge $-1 $434 -52.057252723776969 $376 -45.757805224012117 $374 $435 forward 7 unknown #
vertex $-1 $281 $436 #
straight-curve $-1 -45.757805224012117 0 -7.6763163106493852 0 -1 0 I I #
point $-1 -45.757805224012117 -31.317917767670846 -7.6763163106493852 #
coedge $-1 $430 $271 $274 $382 forward $263 $-1 #
coedge $-1 $271 $430 $278 $384 reversed $263 $-1 #
straight-curve $-1 -52.057252723776969 0 -3.0867379897188116 0 1 0 I I #
edge $-1 $276 3.0867379897188116 $434 7.6763163106493852 $274 $437 forward 7 unknown #
point $-1 -52.057252723776969 31.317917767670846 -3.0867379897188116 #
edge $-1 $279 3.0867379897188116 $432 7.6763163106493852 $380 $438 forward 7 unknown #
point $-1 -52.057252723776969 -31.317917767670846 -3.0867379897188116 #
straight-curve $-1 -45.757805224012117 31.317917767670846 -2.6907635750920491 0 0 -1 I I #
plane-surface $-1 52.057252723776969 0 0 -1 0 0 0 0 1 forward_v I I I I #
coedge $-1 $288 $287 $303 $399 reversed $103 $-1 #
edge $-1 $392 -31.317917767670846 $390 31.317917767670846 $287 $439 forward 7 unknown #
vertex $-1 $295 $440 #
straight-curve $-1 43.611397826443628 31.317917767670846 2.8304896352692186 0 0 1 I I #
vertex $-1 $293 $441 #
straight-curve $-1 23.917162637555151 -31.317917767670846 4.1609792705384372 1 0 0 I I #
straight-curve $-1 23.917162637555151 31.317917767670846 4.1609792705384372 -1 0 0 I I #
point $-1 52.057252723776976 -31.317917767670846 4.1609792705384372 #
point $-1 52.057252723776976 31.317917767670846 4.1609792705384372 #
straight-curve $-1 43.611397826443628 0 7.1609792705384372 0 -1 0 I I #
point $-1 43.611397826443628 31.317917767670846 7.1609792705384372 #
edge $-1 $305 -4.3304896352692186 $392 -1.3304896352692186 $303 $442 forward 7 unknown #
point $-1 43.611397826443628 -31.317917767670846 7.1609792705384372 #
straight-curve $-1 52.057252723776969 -31.317917767670846 0 0 0 -1 I I #
straight-curve $-1 52.057252723776969 31.317917767670846 0 0 0 -1 I I #
coedge $-1 $322 $321 $314 $404 forward $311 $-1 #
edge $-1 $405 -3.060472324346474 $408 1.7556190896784258 $403 $443 forward 7 unknown #
vertex $-1 $404 $444 #
straight-curve $-1 -16.541600764139854 31.317917767670846 61.02365204961761 0 0 1 I I #
edge $-1 $408 -12.13789964840883 $323 3.3304974169467805 $322 $445 forward 7 unknown #
vertex $-1 $407 $446 #
straight-curve $-1 -16.541600764139854 -14.491031931506569 45.902775935151695 0 0.7313536940579346 -0.68199836817093118 I I #
point $-1 -16.541600764139854 31.317917767670849 3.1852383110258202 #
point $-1 -1.0732036987842442 26.501826353645946 7.6763163106493835 #
straight-curve $-1 0 31.317917767670846 7.6763163106493852 -1 0 0 I I #
vertex $-1 $329 $447 #
point $-1 -7.3074022314620564 27.075582220644971 3.4637423250141186 #
edge $-1 $340 -14.395193366571373 $421 1.0732036987842442 $335 $448 forward 7 unknown #
straight-curve $-1 14.395193366571373 31.317917767670846 61.02365204961761 0 0 -1 I I #
straight-curve $-1 14.395193366571373 -14.491031931506569 45.902775935151695 0 -0.7313536940579346 0.68199836817093118 I I #
point $-1 14.395193366571373 26.501826353645946 7.6763163106493835 #
point $-1 14.395193366571373 31.317917767670846 7.6763163106493852 #
point $-1 14.395193366571373 31.317917767670849 3.1852383110258202 #
vertex $-1 $347 $449 #
straight-curve $-1 -1.0732036987842442 28.257445443324372 7.6763163106493835 0 -1 0 I I #
straight-curve $-1 -1.0732036987842442 31.317917767670846 61.02365204961761 0 0 1 I I #
vertex $-1 $351 $450 #
point $-1 8.160994833893561 27.075582220644971 3.4637423250141186 #
straight-curve $-1 -52.057252723776969 31.317917767670846 0 0 0 -1 I I #
point $-1 -52.057252723776969 -31.317917767670846 -7.6763163106493852 #
straight-curve $-1 -52.057252723776969 0 -7.6763163106493852 0 1 0 I I #
point $-1 -52.057252723776969 31.317917767670846 -7.6763163106493852 #
coedge $-1 $380 $379 $372 $431 reversed $263 $-1 #
edge $-1 $432 -31.317917767670846 $434 31.317917767670846 $430 $451 forward 7 unknown #
vertex $-1 $431 $452 #
straight-curve $-1 0 -31.317917767670846 -7.6763163106493852 -1 0 0 I I #
vertex $-1 $375 $453 #
straight-curve $-1 0 31.317917767670846 -7.6763163106493852 1 0 0 I I #
point $-1 -45.757805224012117 31.317917767670846 -7.6763163106493852 #
straight-curve $-1 -52.057252723776969 31.317917767670846 0 0 0 -1 I I #
straight-curve $-1 -52.057252723776969 -31.317917767670846 0 0 0 -1 I I #
straight-curve $-1 43.611397826443628 0 4.1609792705384372 0 1 0 I I #
point $-1 43.611397826443628 31.317917767670846 4.1609792705384372 #
point $-1 43.611397826443628 -31.317917767670846 4.1609792705384372 #
straight-curve $-1 43.611397826443628 -31.317917767670846 2.8304896352692186 0 0 -1 I I #
straight-curve $-1 -16.541600764139854 28.257445443324372 7.6763163106493835 0 -1 0 I I #
point $-1 -16.541600764139854 31.317917767670846 7.6763163106493852 #
straight-curve $-1 -4.4037011157310246 26.501826353645942 7.6763163106493835 1 0 0 I I #
point $-1 -16.541600764139854 26.501826353645946 7.6763163106493835 #
point $-1 -8.8074022314620564 26.052584668388572 2.3667117839272169 #
straight-curve $-1 0 31.317917767670846 7.6763163106493852 -1 0 0 I I #
point $-1 -1.0732036987842442 31.317917767670846 7.6763163106493852 #
point $-1 6.660994833893561 26.052584668388572 2.3667117839272169 #
straight-curve $-1 -52.057252723776969 0 -7.6763163106493852 0 1 0 I I #
point $-1 -52.057252723776969 -31.317917767670846 -7.6763163106493852 #
point $-1 -52.057252723776969 31.317917767670846 -7.6763163106493852 #
End-of-ACIS-data 