500 0 8 0           
7 Unknown 11 ACIS 5.0 NT 24 Thu Mar 25 23:13:12 1999 
-1 9.9999999999999995e-007 1e-010 
body $-1 $8 $-1 $9 #
body $-1 $10 $-1 $11 #
body $-1 $12 $-1 $13 #
body $-1 $14 $-1 $15 #
body $-1 $16 $-1 $17 #
body $-1 $18 $-1 $19 #
body $-1 $20 $-1 $21 #
body $-1 $22 $-1 $23 #
lump $-1 $-1 $24 $0 #
transform $-1 1 0 0 0 1 0 0 0 1 42.8064821314127 26.630499494992574 6.4264457733925839 1 rotate no_reflect no_shear #
lump $-1 $-1 $25 $1 #
transform $-1 1 0 0 0 1 0 0 0 1 42.8064821314127 26.630499494992574 6.4264457733925839 1 rotate no_reflect no_shear #
lump $-1 $-1 $26 $2 #
transform $-1 1 0 0 0 1 0 0 0 1 42.8064821314127 26.630499494992574 6.4264457733925839 1 rotate no_reflect no_shear #
lump $-1 $-1 $27 $3 #
transform $-1 1 0 0 0 1 0 0 0 1 42.8064821314127 26.630499494992574 6.4264457733925839 1 rotate no_reflect no_shear #
lump $-1 $-1 $28 $4 #
transform $-1 1 0 0 0 1 0 0 0 1 42.8064821314127 26.630499494992574 6.4264457733925839 1 rotate no_reflect no_shear #
lump $-1 $-1 $29 $5 #
transform $-1 1 0 0 0 1 0 0 0 1 42.8064821314127 26.630499494992574 6.4264457733925839 1 rotate no_reflect no_shear #
lump $-1 $-1 $30 $6 #
transform $-1 1 0 0 0 1 0 0 0 1 42.8064821314127 26.630499494992574 6.4264457733925839 1 rotate no_reflect no_shear #
lump $-1 $-1 $31 $7 #
transform $-1 1 0 0 0 1 0 0 0 1 42.8064821314127 26.630499494992574 6.4264457733925839 1 rotate no_reflect no_shear #
shell $-1 $-1 $-1 $32 $-1 $8 #
shell $-1 $-1 $-1 $33 $-1 $10 #
shell $-1 $-1 $-1 $34 $-1 $12 #
shell $-1 $-1 $-1 $35 $-1 $14 #
shell $-1 $-1 $-1 $36 $-1 $16 #
shell $-1 $-1 $-1 $37 $-1 $18 #
shell $-1 $-1 $-1 $38 $-1 $20 #
shell $-1 $-1 $-1 $39 $-1 $22 #
face $-1 $40 $41 $24 $-1 $42 forward single #
face $-1 $43 $44 $25 $-1 $45 forward single #
face $-1 $46 $47 $26 $-1 $48 reversed single #
face $-1 $49 $50 $27 $-1 $51 forward single #
face $-1 $52 $53 $28 $-1 $54 forward single #
face $-1 $55 $56 $29 $-1 $57 reversed single #
face $-1 $58 $59 $30 $-1 $60 forward single #
face $-1 $61 $62 $31 $-1 $63 forward single #
face $-1 $64 $65 $24 $-1 $66 reversed single #
loop $-1 $-1 $67 $32 #
plane-surface $-1 0 0 6.4264457733925839 0 0 1 1 0 0 forward_v I I I I #
face $-1 $68 $69 $25 $-1 $70 forward single #
loop $-1 $-1 $71 $33 #
plane-surface $-1 0 -26.630499494992574 0 0 1 0 0 0 1 forward_v I I I I #
face $-1 $72 $73 $26 $-1 $74 reversed single #
loop $-1 $-1 $75 $34 #
plane-surface $-1 25.956097964458074 19.201959121169562 122.03883842612107 0 1 0 0.6018150307709319 0 0.79863550430605224 forward_v I I I I #
face $-1 $76 $77 $27 $-1 $78 forward single #
loop $-1 $79 $80 $35 #
cone-surface $-1 39.662826393089887 21.324399227976134 3.884963541903522 -0.6018150307709319 0 -0.79863550430605224 0.39931775215302612 0 -0.30090751538546595 1 I I 0 1 0.5 forward I I I I #
face $-1 $81 $82 $28 $-1 $83 forward single #
loop $-1 $84 $85 $36 #
cone-surface $-1 39.662826393089887 24.508059388185995 3.884963541903522 -0.6018150307709319 0 -0.79863550430605224 0.39931775215302612 0 -0.30090751538546595 1 I I 0 1 0.5 forward I I I I #
face $-1 $86 $87 $29 $-1 $88 reversed single #
loop $-1 $-1 $89 $37 #
plane-surface $-1 -91.912061711601496 1.4092193331778589 70.480134670003608 0 1 0 -0.57357644374324357 0 0.81915203911291934 forward_v I I I I #
face $-1 $90 $91 $30 $-1 $92 forward single #
loop $-1 $93 $94 $38 #
cone-surface $-1 -37.170301297522592 5.409946409995225 1.5356500256506691 0.57357644374324357 0 -0.81915203911291934 1.6383040782258387 0 1.1471528874864871 1 I I 0 1 2 forward I I I I #
face $-1 $95 $96 $31 $-1 $97 forward single #
loop $-1 $98 $99 $39 #
cone-surface $-1 -37.170301297522592 11.411037025221265 1.5356500256506691 0.57357644374324357 0 -0.81915203911291934 1.6383040782258387 0 1.1471528874864871 1 I I 0 1 2 forward I I I I #
face $-1 $100 $101 $24 $-1 $102 reversed single #
loop $-1 $-1 $103 $40 #
plane-surface $-1 0 0 -6.4264457733925839 0 0 1 1 0 0 forward_v I I I I #
coedge $-1 $104 $105 $106 $107 forward $41 $-1 #
face $-1 $108 $109 $25 $-1 $110 reversed single #
loop $-1 $-1 $111 $43 #
plane-surface $-1 0 0 6.4264457733925839 0 0 1 1 0 0 forward_v I I I I #
coedge $-1 $112 $113 $114 $115 forward $44 $-1 #
face $-1 $116 $117 $26 $-1 $118 reversed single #
loop $-1 $-1 $119 $46 #
plane-surface $-1 -25.567070757764888 22.916229308081068 53.665285536943486 0.6018150307709319 0 0.79863550430605224 0.79863550430605224 0 -0.6018150307709319 forward_v I I I I #
coedge $-1 $120 $121 $122 $123 reversed $47 $-1 #
face $-1 $-1 $124 $27 $-1 $125 forward single #
loop $-1 $126 $127 $49 #
cone-surface $-1 39.211465120011688 21.324399227976134 3.285986913673983 -0.6018150307709319 0 -0.79863550430605224 0.19965887607651306 0 -0.15045375769273298 1 I I -0.70710678118654746 0.70710678118654746 0.25 forward I I I I #
loop $-1 $-1 $128 $35 #
coedge $-1 $80 $80 $129 $130 reversed $50 $-1 #
face $-1 $-1 $131 $28 $-1 $132 forward single #
loop $-1 $133 $134 $52 #
cone-surface $-1 39.211465120011688 24.508059388185995 3.285986913673983 -0.6018150307709319 0 -0.79863550430605224 0.19965887607651306 0 -0.15045375769273298 1 I I -0.70710678118654746 0.70710678118654746 0.25 forward I I I I #
loop $-1 $-1 $135 $36 #
coedge $-1 $85 $85 $136 $137 reversed $53 $-1 #
face $-1 $138 $139 $29 $-1 $140 reversed single #
loop $-1 $-1 $141 $55 #
plane-surface $-1 -42.8064821314127 8.4104917176082417 0.35010041960869387 -0.57357644374324357 0 0.81915203911291934 0.81915203911291934 0 0.57357644374324357 forward_v I I I I #
coedge $-1 $142 $143 $144 $145 reversed $56 $-1 #
face $-1 $-1 $146 $30 $-1 $147 forward single #
loop $-1 $148 $149 $58 #
cone-surface $-1 -35.29950418919362 5.409946409995225 -1.1361250843122246 0.57357644374324357 0 -0.81915203911291934 0.81915203911291934 0 0.57357644374324357 1 I I -0.70710678118654746 0.70710678118654746 1 forward I I I I #
loop $-1 $-1 $150 $38 #
coedge $-1 $94 $94 $151 $152 reversed $59 $-1 #
face $-1 $-1 $153 $31 $-1 $154 forward single #
loop $-1 $155 $156 $61 #
cone-surface $-1 -35.29950418919362 11.411037025221265 -1.1361250843122246 0.57357644374324357 0 -0.81915203911291934 0.81915203911291934 0 0.57357644374324357 1 I I -0.70710678118654746 0.70710678118654746 1 forward I I I I #
loop $-1 $-1 $157 $39 #
coedge $-1 $99 $99 $158 $159 reversed $62 $-1 #
face $-1 $160 $161 $24 $-1 $162 reversed single #
loop $-1 $-1 $163 $64 #
plane-surface $-1 0 -26.630499494992574 0 0 1 0 0 0 1 forward_v I I I I #
coedge $-1 $164 $165 $166 $167 forward $65 $-1 #
coedge $-1 $168 $67 $169 $170 forward $41 $-1 #
coedge $-1 $67 $168 $171 $172 forward $41 $-1 #
coedge $-1 $173 $174 $67 $107 reversed $175 $-1 #
edge $-1 $176 -26.630499494992574 $177 26.630499494992574 $106 $178 forward 7 unknown #
face $-1 $179 $180 $25 $-1 $181 reversed single #
loop $-1 $-1 $182 $68 #
plane-surface $-1 -42.8064821314127 0 0 1 0 0 0 0 -1 forward_v I I I I #
coedge $-1 $183 $184 $113 $185 forward $69 $-1 #
coedge $-1 $186 $71 $187 $188 reversed $44 $-1 #
coedge $-1 $71 $186 $111 $185 reversed $44 $-1 #
coedge $-1 $189 $190 $71 $115 reversed $191 $-1 #
edge $-1 $192 -6.4264457733925839 $193 6.4264457733925839 $114 $194 forward 7 unknown #
face $-1 $195 $196 $26 $-1 $197 forward single #
loop $-1 $-1 $198 $72 #
plane-surface $-1 0 26.630499494992574 0 0 -1 0 0 0 -1 forward_v I I I I #
coedge $-1 $199 $200 $201 $202 reversed $73 $-1 #
coedge $-1 $121 $75 $203 $204 reversed $47 $-1 #
coedge $-1 $75 $120 $199 $205 reversed $47 $-1 #
coedge $-1 $201 $206 $75 $123 forward $207 $-1 #
edge $-1 $208 54.592973439667951 $209 58.877302398340014 $122 $210 forward 7 unknown #
loop $-1 $-1 $129 $76 #
plane-surface $-1 -25.567070757764888 22.916229308081068 53.665285536943486 0.6018150307709319 0 0.79863550430605224 0.79863550430605224 0 -0.6018150307709319 forward_v I I I I #
loop $-1 $-1 $211 $49 #
coedge $-1 $127 $127 $128 $212 reversed $77 $-1 #
coedge $-1 $128 $128 $127 $212 forward $79 $-1 #
coedge $-1 $129 $129 $80 $130 forward $124 $-1 #
edge $-1 $213 0 $213 6.2831853071796004 $129 $214 forward 7 unknown #
loop $-1 $-1 $136 $81 #
plane-surface $-1 -25.567070757764888 22.916229308081068 53.665285536943486 0.6018150307709319 0 0.79863550430605224 0.79863550430605224 0 -0.6018150307709319 forward_v I I I I #
loop $-1 $-1 $215 $52 #
coedge $-1 $134 $134 $135 $216 reversed $82 $-1 #
coedge $-1 $135 $135 $134 $216 forward $84 $-1 #
coedge $-1 $136 $136 $85 $137 forward $131 $-1 #
edge $-1 $217 0 $217 6.2831853071796004 $136 $218 forward 7 unknown #
face $-1 $219 $220 $29 $-1 $221 reversed single #
loop $-1 $-1 $222 $86 #
plane-surface $-1 -91.912061711601496 15.411764102038624 70.480134670003608 0 -1 0 0.57357644374324357 0 -0.81915203911291934 forward_v I I I I #
coedge $-1 $223 $224 $225 $226 reversed $87 $-1 #
coedge $-1 $143 $89 $227 $228 reversed $56 $-1 #
coedge $-1 $89 $142 $223 $229 reversed $56 $-1 #
coedge $-1 $225 $230 $89 $145 forward $231 $-1 #
edge $-1 $232 3.1495487243880476 $233 11.827469062996826 $144 $234 forward 7 unknown #
loop $-1 $-1 $151 $90 #
plane-surface $-1 -42.8064821314127 8.4104917176082417 0.35010041960869387 -0.57357644374324357 0 0.81915203911291934 0.81915203911291934 0 0.57357644374324357 forward_v I I I I #
loop $-1 $-1 $235 $58 #
coedge $-1 $149 $149 $150 $236 reversed $91 $-1 #
coedge $-1 $150 $150 $149 $236 forward $93 $-1 #
coedge $-1 $151 $151 $94 $152 forward $146 $-1 #
edge $-1 $237 0 $237 6.2831853071796004 $151 $238 forward 7 unknown #
loop $-1 $-1 $158 $95 #
plane-surface $-1 -42.8064821314127 8.4104917176082417 0.35010041960869387 -0.57357644374324357 0 0.81915203911291934 0.81915203911291934 0 0.57357644374324357 forward_v I I I I #
loop $-1 $-1 $239 $61 #
coedge $-1 $156 $156 $157 $240 reversed $96 $-1 #
coedge $-1 $157 $157 $156 $240 forward $98 $-1 #
coedge $-1 $158 $158 $99 $159 forward $153 $-1 #
edge $-1 $241 0 $241 6.2831853071796004 $158 $242 forward 7 unknown #
face $-1 $243 $244 $24 $-1 $245 reversed single #
loop $-1 $-1 $246 $100 #
plane-surface $-1 -42.8064821314127 0 0 1 0 0 0 0 -1 forward_v I I I I #
coedge $-1 $247 $171 $248 $249 forward $101 $-1 #
coedge $-1 $250 $103 $247 $251 forward $65 $-1 #
coedge $-1 $103 $250 $252 $253 forward $65 $-1 #
coedge $-1 $174 $173 $103 $167 reversed $175 $-1 #
edge $-1 $254 -26.630499494992574 $255 26.630499494992574 $166 $256 forward 7 unknown #
coedge $-1 $105 $104 $257 $258 forward $41 $-1 #
coedge $-1 $259 $260 $104 $170 reversed $244 $-1 #
edge $-1 $177 -42.8064821314127 $261 42.8064821314127 $169 $262 forward 7 unknown #
coedge $-1 $163 $263 $105 $172 reversed $101 $-1 #
edge $-1 $264 -42.8064821314127 $176 42.8064821314127 $171 $265 forward 7 unknown #
coedge $-1 $166 $106 $263 $266 forward $175 $-1 #
coedge $-1 $106 $166 $259 $267 reversed $175 $-1 #
loop $-1 $-1 $173 $243 #
vertex $-1 $107 $268 #
vertex $-1 $107 $269 #
straight-curve $-1 42.8064821314127 0 6.4264457733925839 0 1 0 I I #
face $-1 $270 $191 $25 $-1 $271 reversed single #
loop $-1 $-1 $272 $108 #
plane-surface $-1 -40.997086679537702 -32.896698929580623 0 0 1 0 0 0 1 forward_v I I I I #
coedge $-1 $273 $274 $186 $275 forward $109 $-1 #
coedge $-1 $276 $111 $274 $277 forward $69 $-1 #
coedge $-1 $111 $276 $189 $278 forward $69 $-1 #
edge $-1 $192 39.187691227662704 $279 42.8064821314127 $111 $280 forward 7 unknown #
coedge $-1 $113 $112 $182 $275 reversed $44 $-1 #
coedge $-1 $281 $282 $112 $188 forward $283 $-1 #
edge $-1 $284 -42.8064821314127 $193 -39.187691227662704 $187 $285 forward 7 unknown #
coedge $-1 $286 $114 $184 $278 reversed $191 $-1 #
coedge $-1 $114 $286 $281 $287 reversed $191 $-1 #
loop $-1 $-1 $286 $179 #
vertex $-1 $185 $288 #
vertex $-1 $287 $289 #
straight-curve $-1 -39.187691227662704 -26.630499494992574 0 0 0 -1 I I #
face $-1 $-1 $207 $26 $-1 $290 reversed single #
loop $-1 $-1 $203 $116 #
plane-surface $-1 0 0 6.4264457733925839 0 0 1 1 0 0 forward_v I I I I #
coedge $-1 $291 $292 $200 $293 forward $117 $-1 #
coedge $-1 $294 $119 $121 $205 forward $73 $-1 #
coedge $-1 $119 $294 $198 $293 reversed $73 $-1 #
coedge $-1 $295 $122 $119 $202 forward $207 $-1 #
edge $-1 $209 7.7438444671290281 $296 15.17238484095204 $201 $297 forward 7 unknown #
coedge $-1 $298 $299 $120 $204 forward $196 $-1 #
edge $-1 $300 24.142936703309001 $208 29.828433149183663 $203 $301 forward 7 unknown #
edge $-1 $209 -85.612964262825415 $300 -78.493951377448013 $121 $302 forward 7 unknown #
coedge $-1 $122 $295 $298 $303 reversed $207 $-1 #
loop $-1 $-1 $201 $195 #
vertex $-1 $303 $304 #
vertex $-1 $123 $305 #
straight-curve $-1 42.8064821314127 19.201959121169562 61.019419213060537 0 0 -1 I I #
coedge $-1 $211 $211 $-1 $306 reversed $126 $-1 #
edge $-1 $307 0 $307 6.2831853071796004 $127 $308 forward 7 unknown #
vertex $-1 $130 $309 #
ellipse-curve $-1 39.963733908475355 21.324399227976134 4.2842812940565533 0.6018150307709319 0 0.79863550430605224 0.39931775215302612 0 -0.30090751538546595 1 I I #
coedge $-1 $215 $215 $-1 $310 reversed $133 $-1 #
edge $-1 $311 0 $311 6.2831853071796004 $134 $312 forward 7 unknown #
vertex $-1 $137 $313 #
ellipse-curve $-1 39.963733908475355 24.508059388185995 4.2842812940565533 0.6018150307709319 0 0.79863550430605224 0.39931775215302612 0 -0.30090751538546595 1 I I #
face $-1 $-1 $231 $29 $-1 $314 forward single #
loop $-1 $-1 $315 $138 #
plane-surface $-1 -42.8064821314127 0 0 1 0 0 0 0 -1 forward_v I I I I #
coedge $-1 $316 $317 $318 $319 reversed $139 $-1 #
coedge $-1 $320 $141 $143 $229 forward $87 $-1 #
coedge $-1 $141 $320 $316 $321 forward $87 $-1 #
coedge $-1 $318 $144 $141 $226 forward $231 $-1 #
edge $-1 $233 -2.796026525626262 $322 11.206518243234504 $225 $323 forward 7 unknown #
coedge $-1 $324 $325 $142 $228 forward $220 $-1 #
edge $-1 $326 -34.88996691539311 $232 -28.813621561609221 $227 $327 forward 7 unknown #
edge $-1 $233 -10.593784699610001 $326 0 $143 $328 forward 7 unknown #
coedge $-1 $144 $318 $324 $329 forward $231 $-1 #
loop $-1 $-1 $318 $219 #
vertex $-1 $228 $330 #
vertex $-1 $145 $331 #
straight-curve $-1 -45.956030855800748 1.4092193331778589 6.4264457733925866 1 0 0 I I #
coedge $-1 $235 $235 $-1 $332 reversed $148 $-1 #
edge $-1 $333 0 $333 6.2831853071796004 $149 $334 forward 7 unknown #
vertex $-1 $152 $335 #
ellipse-curve $-1 -38.467521962108314 5.409946409995225 3.3882730965006367 -0.57357644374324357 0 0.81915203911291934 1.6383040782258387 0 1.1471528874864871 1 I I #
coedge $-1 $239 $239 $-1 $336 reversed $155 $-1 #
edge $-1 $337 0 $337 6.2831853071796004 $156 $338 forward 7 unknown #
vertex $-1 $159 $339 #
ellipse-curve $-1 -38.467521962108314 11.411037025221265 3.3882730965006367 -0.57357644374324357 0 0.81915203911291934 1.6383040782258387 0 1.1471528874864871 1 I I #
face $-1 $-1 $175 $24 $-1 $340 reversed single #
loop $-1 $-1 $259 $160 #
plane-surface $-1 0 26.630499494992574 0 0 -1 0 0 0 -1 forward_v I I I I #
coedge $-1 $341 $257 $260 $342 forward $161 $-1 #
coedge $-1 $263 $163 $164 $251 reversed $101 $-1 #
coedge $-1 $257 $341 $163 $249 reversed $161 $-1 #
edge $-1 $264 -6.4264457733925839 $343 6.4264457733925839 $248 $344 forward 7 unknown #
coedge $-1 $165 $164 $341 $345 forward $65 $-1 #
edge $-1 $255 -42.8064821314127 $343 42.8064821314127 $247 $346 forward 7 unknown #
coedge $-1 $260 $259 $165 $253 reversed $244 $-1 #
edge $-1 $347 -42.8064821314127 $254 42.8064821314127 $252 $348 forward 7 unknown #
vertex $-1 $167 $349 #
vertex $-1 $266 $350 #
straight-curve $-1 42.8064821314127 0 -6.4264457733925839 0 -1 0 I I #
coedge $-1 $246 $248 $168 $258 reversed $161 $-1 #
edge $-1 $261 -26.630499494992574 $264 26.630499494992574 $257 $351 forward 7 unknown #
coedge $-1 $252 $169 $174 $267 forward $244 $-1 #
coedge $-1 $169 $252 $246 $342 reversed $244 $-1 #
vertex $-1 $170 $352 #
straight-curve $-1 0 26.630499494992574 6.4264457733925839 -1 0 0 I I #
coedge $-1 $171 $247 $173 $266 reversed $101 $-1 #
vertex $-1 $258 $353 #
straight-curve $-1 0 -26.630499494992574 6.4264457733925839 1 0 0 I I #
edge $-1 $176 -6.4264457733925839 $255 6.4264457733925839 $173 $354 forward 7 unknown #
edge $-1 $177 -6.4264457733925839 $254 6.4264457733925839 $174 $355 forward 7 unknown #
point $-1 42.8064821314127 -26.630499494992574 6.4264457733925839 #
point $-1 42.8064821314127 26.630499494992574 6.4264457733925839 #
face $-1 $-1 $283 $25 $-1 $356 reversed single #
plane-surface $-1 -39.187691227662704 -29.7635992122866 0 -1 0 0 0 0 1 forward_v I I I I #
coedge $-1 $357 $358 $359 $360 forward $180 $-1 #
coedge $-1 $359 $182 $282 $361 reversed $109 $-1 #
coedge $-1 $182 $359 $183 $277 reversed $109 $-1 #
edge $-1 $279 -6.4264457733925839 $284 6.4264457733925839 $182 $362 forward 7 unknown #
coedge $-1 $184 $183 $358 $363 forward $69 $-1 #
edge $-1 $279 26.630499494992574 $364 32.896698929580623 $274 $365 forward 7 unknown #
edge $-1 $366 -3.1330997172940229 $192 3.1330997172940265 $189 $367 forward 7 unknown #
vertex $-1 $277 $368 #
straight-curve $-1 0 -26.630499494992574 6.4264457733925839 -1 0 0 I I #
coedge $-1 $369 $187 $190 $287 forward $283 $-1 #
coedge $-1 $187 $369 $273 $361 forward $283 $-1 #
loop $-1 $-1 $187 $270 #
vertex $-1 $275 $370 #
straight-curve $-1 0 -26.630499494992574 -6.4264457733925839 1 0 0 I I #
coedge $-1 $190 $189 $371 $372 forward $191 $-1 #
edge $-1 $193 -3.1330997172940265 $373 3.1330997172940229 $190 $374 forward 7 unknown #
point $-1 -39.187691227662704 -26.630499494992574 6.4264457733925839 #
point $-1 -39.187691227662704 -26.630499494992574 -6.4264457733925839 #
plane-surface $-1 42.8064821314127 0 0 -1 0 0 0 0 1 forward_v I I I I #
coedge $-1 $292 $198 $375 $376 reversed $117 $-1 #
coedge $-1 $198 $291 $295 $377 forward $117 $-1 #
edge $-1 $296 -59.255291305324121 $378 -52.13627841994672 $198 $379 forward 7 unknown #
coedge $-1 $200 $199 $299 $380 reversed $73 $-1 #
coedge $-1 $206 $201 $292 $377 reversed $207 $-1 #
vertex $-1 $293 $381 #
straight-curve $-1 42.806482131412707 11.458114654040534 2.1421168147205236 0 1 0 I I #
coedge $-1 $375 $203 $206 $303 forward $196 $-1 #
coedge $-1 $203 $375 $294 $380 forward $196 $-1 #
vertex $-1 $204 $382 #
straight-curve $-1 12.978048982229037 19.201959121169562 6.4264457733925866 1 0 0 I I #
straight-curve $-1 -25.567070757764888 19.201959121169562 53.665285536943486 -0.79863550430605224 0 0.6018150307709319 I I #
edge $-1 $208 19.201959121169562 $383 26.630499494992574 $206 $384 forward 7 unknown #
point $-1 42.8064821314127 19.201959121169562 6.4264457733925839 #
point $-1 42.8064821314127 19.201959121169562 2.1421168147205236 #
edge $-1 $385 1 $385 0 $211 $-1 forward 7 unknown #
vertex $-1 $212 $386 #
ellipse-curve $-1 39.361918877704419 21.324399227976134 3.485645789750496 0.6018150307709319 0 0.79863550430605224 0.39931775215302612 0 -0.30090751538546595 1 I I #
point $-1 40.363051660628379 21.324399227976134 3.9833737786710826 #
edge $-1 $387 1 $387 0 $215 $-1 forward 7 unknown #
vertex $-1 $216 $388 #
ellipse-curve $-1 39.361918877704419 24.508059388185995 3.485645789750496 0.6018150307709319 0 0.79863550430605224 0.39931775215302612 0 -0.30090751538546595 1 I I #
point $-1 40.363051660628379 24.508059388185995 3.9833737786710826 #
plane-surface $-1 0 0 6.4264457733925839 0 0 1 1 0 0 forward_v I I I I #
coedge $-1 $325 $324 $317 $389 forward $220 $-1 #
coedge $-1 $317 $222 $224 $321 reversed $139 $-1 #
coedge $-1 $222 $316 $315 $389 reversed $139 $-1 #
coedge $-1 $230 $225 $222 $319 forward $231 $-1 #
edge $-1 $322 -11.827469062996826 $390 -3.1495487243880476 $318 $391 forward 7 unknown #
coedge $-1 $224 $223 $325 $392 reversed $87 $-1 #
edge $-1 $393 0 $322 10.593784699610001 $316 $394 forward 7 unknown #
vertex $-1 $226 $395 #
straight-curve $-1 -34.128561792803922 4.2052458588041208 6.4264457733925848 0 1 0 I I #
coedge $-1 $315 $227 $230 $329 reversed $220 $-1 #
coedge $-1 $227 $315 $320 $392 forward $220 $-1 #
vertex $-1 $228 $396 #
straight-curve $-1 -42.8064821314127 1.4092193331778589 35.240067335001804 0 0 1 I I #
straight-curve $-1 -42.8064821314127 1.4092193331778589 0.35010041960869387 -0.81915203911291934 0 -0.57357644374324357 I I #
edge $-1 $390 -15.411764102038624 $232 -1.4092193331778589 $324 $397 forward 7 unknown #
point $-1 -42.8064821314127 1.4092193331778589 6.4264457733925839 #
point $-1 -34.128561792803922 1.4092193331778589 6.4264457733925839 #
edge $-1 $398 1 $398 0 $235 $-1 forward 7 unknown #
vertex $-1 $236 $399 #
ellipse-curve $-1 -35.873080632936862 5.409946409995225 -0.31697304519930525 -0.57357644374324357 0 0.81915203911291934 1.6383040782258387 0 1.1471528874864871 1 I I #
point $-1 -36.829217883882478 5.409946409995225 4.53542598398713 #
edge $-1 $400 1 $400 0 $239 $-1 forward 7 unknown #
vertex $-1 $240 $401 #
ellipse-curve $-1 -35.873080632936862 11.411037025221265 -0.31697304519930525 -0.57357644374324357 0 0.81915203911291934 1.6383040782258387 0 1.1471528874864871 1 I I #
point $-1 -36.829217883882478 11.411037025221265 4.53542598398713 #
plane-surface $-1 42.8064821314127 0 0 -1 0 0 0 0 1 forward_v I I I I #
coedge $-1 $248 $246 $250 $345 reversed $161 $-1 #
edge $-1 $261 -6.4264457733925839 $347 6.4264457733925839 $260 $402 forward 7 unknown #
vertex $-1 $345 $403 #
straight-curve $-1 -42.8064821314127 -26.630499494992574 0 0 0 -1 I I #
edge $-1 $343 -26.630499494992574 $347 26.630499494992574 $341 $404 forward 7 unknown #
straight-curve $-1 0 -26.630499494992574 -6.4264457733925839 -1 0 0 I I #
vertex $-1 $253 $405 #
straight-curve $-1 0 26.630499494992574 -6.4264457733925839 1 0 0 I I #
point $-1 42.8064821314127 26.630499494992574 -6.4264457733925839 #
point $-1 42.8064821314127 -26.630499494992574 -6.4264457733925839 #
straight-curve $-1 -42.8064821314127 0 6.4264457733925839 0 -1 0 I I #
point $-1 -42.8064821314127 26.630499494992574 6.4264457733925839 #
point $-1 -42.8064821314127 -26.630499494992574 6.4264457733925839 #
straight-curve $-1 42.8064821314127 -26.630499494992574 0 0 0 -1 I I #
straight-curve $-1 42.8064821314127 26.630499494992574 0 0 0 -1 I I #
plane-surface $-1 0 0 -6.4264457733925839 0 0 1 1 0 0 forward_v I I I I #
coedge $-1 $371 $272 $369 $406 reversed $180 $-1 #
coedge $-1 $272 $371 $276 $363 reversed $180 $-1 #
coedge $-1 $274 $273 $272 $360 reversed $109 $-1 #
edge $-1 $364 -6.4264457733925839 $407 6.4264457733925839 $359 $408 forward 7 unknown #
edge $-1 $407 -32.896698929580623 $284 -26.630499494992574 $273 $409 forward 7 unknown #
straight-curve $-1 -42.8064821314127 -26.630499494992574 0 0 0 -1 I I #
edge $-1 $364 -1.8093954518749982 $366 1.8093954518749982 $358 $410 forward 7 unknown #
vertex $-1 $277 $411 #
straight-curve $-1 -42.8064821314127 0 6.4264457733925839 0 -1 0 I I #
vertex $-1 $278 $412 #
straight-curve $-1 -39.187691227662704 -29.7635992122866 6.4264457733925839 0 1 0 I I #
point $-1 -42.8064821314127 -26.630499494992574 6.4264457733925839 #
coedge $-1 $282 $281 $357 $406 forward $283 $-1 #
point $-1 -42.8064821314127 -26.630499494992574 -6.4264457733925839 #
coedge $-1 $358 $357 $286 $372 reversed $180 $-1 #
edge $-1 $366 -6.4264457733925839 $373 6.4264457733925839 $286 $413 forward 7 unknown #
vertex $-1 $372 $414 #
straight-curve $-1 -39.187691227662704 -29.7635992122866 -6.4264457733925839 0 -1 0 I I #
coedge $-1 $299 $298 $291 $376 forward $196 $-1 #
edge $-1 $383 -42.8064821314127 $378 -37.120985685538038 $291 $415 forward 7 unknown #
edge $-1 $383 -6.4264457733925839 $296 -2.1421168147205267 $295 $416 forward 7 unknown #
vertex $-1 $293 $417 #
straight-curve $-1 -4.5168973230168543 26.630499494992574 37.802841774974695 -0.79863550430605224 0 0.6018150307709319 I I #
edge $-1 $378 -15.17238484095204 $300 -7.7438444671290281 $299 $418 forward 7 unknown #
point $-1 42.8064821314127 26.630499494992574 2.1421168147205267 #
point $-1 37.120985685538038 19.201959121169562 6.4264457733925866 #
vertex $-1 $303 $419 #
straight-curve $-1 42.8064821314127 0 6.4264457733925839 0 1 0 I I #
vertex $-1 $306 $420 #
point $-1 39.76123662985745 21.324399227976134 3.1847382743650301 #
vertex $-1 $310 $421 #
point $-1 39.76123662985745 24.508059388185995 3.1847382743650301 #
edge $-1 $390 28.813621561609221 $393 34.88996691539311 $315 $422 forward 7 unknown #
vertex $-1 $329 $423 #
straight-curve $-1 -45.956030855800748 15.411764102038624 6.4264457733925866 -1 0 0 I I #
edge $-1 $393 -11.206518243234504 $326 2.796026525626262 $325 $424 forward 7 unknown #
vertex $-1 $392 $425 #
straight-curve $-1 -42.8064821314127 15.411764102038624 0.35010041960869387 0.81915203911291934 0 0.57357644374324357 I I #
point $-1 -34.128561792803922 15.411764102038624 6.4264457733925839 #
point $-1 -42.8064821314127 1.4092193331778589 0.35010041960869387 #
straight-curve $-1 -42.8064821314127 0 6.4264457733925839 0 -1 0 I I #
vertex $-1 $332 $426 #
point $-1 -34.234776554711026 5.409946409995225 0.830179842287182 #
vertex $-1 $336 $427 #
point $-1 -34.234776554711026 11.411037025221265 0.830179842287182 #
straight-curve $-1 -42.8064821314127 26.630499494992574 0 0 0 -1 I I #
point $-1 -42.8064821314127 -26.630499494992574 -6.4264457733925839 #
straight-curve $-1 -42.8064821314127 0 -6.4264457733925839 0 1 0 I I #
point $-1 -42.8064821314127 26.630499494992574 -6.4264457733925839 #
edge $-1 $373 -1.8093954518749982 $407 1.8093954518749982 $357 $428 forward 7 unknown #
vertex $-1 $361 $429 #
straight-curve $-1 -42.8064821314127 -32.896698929580623 0 0 0 -1 I I #
straight-curve $-1 -42.8064821314127 0 -6.4264457733925839 0 1 0 I I #
straight-curve $-1 -40.997086679537702 -32.896698929580623 6.4264457733925839 1 0 0 I I #
point $-1 -42.8064821314127 -32.896698929580623 6.4264457733925839 #
point $-1 -39.187691227662704 -32.896698929580623 6.4264457733925839 #
straight-curve $-1 -39.187691227662704 -32.896698929580623 0 0 0 -1 I I #
point $-1 -39.187691227662704 -32.896698929580623 -6.4264457733925839 #
straight-curve $-1 0 26.630499494992574 6.4264457733925839 -1 0 0 I I #
straight-curve $-1 42.8064821314127 26.630499494992574 0 0 0 -1 I I #
point $-1 37.120985685538038 26.630499494992574 6.4264457733925866 #
straight-curve $-1 37.120985685538031 11.458114654040534 6.4264457733925937 0 -1 0 I I #
point $-1 42.8064821314127 26.630499494992574 6.4264457733925839 #
point $-1 39.061011362318958 21.324399227976134 3.08632803759747 #
point $-1 39.061011362318958 24.508059388185995 3.08632803759747 #
straight-curve $-1 -42.8064821314127 15.411764102038624 35.240067335001804 0 0 -1 I I #
point $-1 -42.8064821314127 15.411764102038624 6.4264457733925839 #
straight-curve $-1 -42.8064821314127 4.2052458588041208 0.35010041960869398 0 -1 0 I I #
point $-1 -42.8064821314127 15.411764102038624 0.35010041960869387 #
point $-1 -34.725927745450377 5.409946409995225 -1.955277123425144 #
point $-1 -34.725927745450377 11.411037025221265 -1.955277123425144 #
straight-curve $-1 -40.997086679537702 -32.896698929580623 -6.4264457733925839 -1 0 0 I I #
point $-1 -42.8064821314127 -32.896698929580623 -6.4264457733925839 #
End-of-ACIS-data 