500 0 10 0           
7 Unknown 11 ACIS 5.0 NT 24 Thu Mar 25 23:03:54 1999 
-1 9.9999999999999995e-007 1e-010 
body $-1 $10 $-1 $11 #
body $-1 $12 $-1 $13 #
body $-1 $14 $-1 $15 #
body $-1 $16 $-1 $17 #
body $-1 $18 $-1 $19 #
body $-1 $20 $-1 $21 #
body $-1 $22 $-1 $23 #
body $-1 $24 $-1 $25 #
body $-1 $26 $-1 $27 #
body $-1 $28 $-1 $29 #
lump $-1 $-1 $30 $0 #
transform $-1 1 0 0 0 1 0 0 0 1 52.036500137333292 22.624530753700942 5.9152304137380893 1 rotate no_reflect no_shear #
lump $-1 $-1 $31 $1 #
transform $-1 1 0 0 0 1 0 0 0 1 52.036500137333292 22.624530753700942 5.9152304137380893 1 rotate no_reflect no_shear #
lump $-1 $-1 $32 $2 #
transform $-1 1 0 0 0 1 0 0 0 1 52.036500137333292 22.624530753700942 5.9152304137380893 1 rotate no_reflect no_shear #
lump $-1 $-1 $33 $3 #
transform $-1 1 0 0 0 1 0 0 0 1 52.036500137333292 22.624530753700942 5.9152304137380893 1 rotate no_reflect no_shear #
lump $-1 $-1 $34 $4 #
transform $-1 1 0 0 0 1 0 0 0 1 52.036500137333292 22.624530753700942 5.9152304137380893 1 rotate no_reflect no_shear #
lump $-1 $-1 $35 $5 #
transform $-1 1 0 0 0 1 0 0 0 1 52.036500137333292 22.624530753700942 5.9152304137380893 1 rotate no_reflect no_shear #
lump $-1 $-1 $36 $6 #
transform $-1 1 0 0 0 1 0 0 0 1 52.036500137333292 22.624530753700942 5.9152304137380893 1 rotate no_reflect no_shear #
lump $-1 $-1 $37 $7 #
transform $-1 1 0 0 0 1 0 0 0 1 52.036500137333292 22.624530753700942 5.9152304137380893 1 rotate no_reflect no_shear #
lump $-1 $-1 $38 $8 #
transform $-1 1 0 0 0 1 0 0 0 1 52.036500137333292 22.624530753700942 5.9152304137380893 1 rotate no_reflect no_shear #
lump $-1 $-1 $39 $9 #
transform $-1 1 0 0 0 1 0 0 0 1 52.036500137333292 22.624530753700942 5.9152304137380893 1 rotate no_reflect no_shear #
shell $-1 $-1 $-1 $40 $-1 $10 #
shell $-1 $-1 $-1 $41 $-1 $12 #
shell $-1 $-1 $-1 $42 $-1 $14 #
shell $-1 $-1 $-1 $43 $-1 $16 #
shell $-1 $-1 $-1 $44 $-1 $18 #
shell $-1 $-1 $-1 $45 $-1 $20 #
shell $-1 $-1 $-1 $46 $-1 $22 #
shell $-1 $-1 $-1 $47 $-1 $24 #
shell $-1 $-1 $-1 $48 $-1 $26 #
shell $-1 $-1 $-1 $49 $-1 $28 #
face $-1 $50 $51 $30 $-1 $52 forward single #
face $-1 $53 $54 $31 $-1 $55 forward single #
face $-1 $56 $57 $32 $-1 $58 reversed single #
face $-1 $59 $60 $33 $-1 $61 forward single #
face $-1 $62 $63 $34 $-1 $64 forward single #
face $-1 $65 $66 $35 $-1 $67 forward single #
face $-1 $68 $69 $36 $-1 $70 reversed single #
face $-1 $71 $72 $37 $-1 $73 forward single #
face $-1 $74 $75 $38 $-1 $76 forward single #
face $-1 $77 $78 $39 $-1 $79 forward single #
face $-1 $80 $81 $30 $-1 $82 reversed single #
loop $-1 $-1 $83 $40 #
plane-surface $-1 0 0 5.9152304137380893 0 0 1 1 0 0 forward_v I I I I #
face $-1 $84 $85 $31 $-1 $86 reversed single #
loop $-1 $-1 $87 $41 #
plane-surface $-1 0 -19.091796722740611 -0.77110616070338334 0 0 1 1 0 0 forward_v I I I I #
face $-1 $88 $89 $32 $-1 $90 reversed single #
loop $-1 $-1 $91 $42 #
plane-surface $-1 21.435757554840649 -0.53326183955296536 144.72292555305287 0 1 0 0.54463904215088732 0 0.83867056331134215 forward_v I I I I #
face $-1 $92 $93 $33 $-1 $94 forward single #
loop $-1 $95 $96 $43 #
cone-surface $-1 47.74356634061558 1.0651601322515205 2.8406232502844171 -0.54463904215088732 0 -0.83867056331134215 0.41933528165567108 0 -0.27231952107544366 1 I I 0 1 0.5 forward I I I I #
face $-1 $97 $98 $34 $-1 $99 forward single #
loop $-1 $100 $101 $44 #
cone-surface $-1 47.74356634061558 3.4627930899582537 2.8406232502844171 -0.54463904215088732 0 -0.83867056331134215 0.41933528165567108 0 -0.27231952107544366 1 I I 0 1 0.5 forward I I I I #
face $-1 $102 $103 $35 $-1 $104 forward single #
loop $-1 $105 $106 $45 #
cone-surface $-1 47.74356634061558 5.860426047664987 2.8406232502844171 -0.54463904215088732 0 -0.83867056331134215 0.41933528165567108 0 -0.27231952107544366 1 I I 0 1 0.5 forward I I I I #
face $-1 $107 $108 $36 $-1 $109 reversed single #
loop $-1 $-1 $110 $46 #
plane-surface $-1 -116.11023783151867 6.5871962142618781 82.196853792081043 0 1 0 -0.61566148304635926 0 0.78801074757464917 forward_v I I I I #
face $-1 $111 $112 $37 $-1 $113 forward single #
loop $-1 $114 $115 $47 #
cone-surface $-1 -48.062264267924931 8.8700209631381774 2.6567153547338975 0.61566148304635926 0 -0.78801074757464917 0.39400537378732459 0 0.30783074152317963 1 I I 0 1 0.5 forward I I I I #
face $-1 $116 $117 $38 $-1 $118 forward single #
loop $-1 $119 $120 $48 #
cone-surface $-1 -48.062264267924931 12.294258086452626 2.6567153547338975 0.61566148304635926 0 -0.78801074757464917 0.39400537378732459 0 0.30783074152317963 1 I I 0 1 0.5 forward I I I I #
face $-1 $121 $122 $39 $-1 $123 forward single #
loop $-1 $124 $125 $49 #
cone-surface $-1 -48.062264267924931 15.718495209767074 2.6567153547338975 0.61566148304635926 0 -0.78801074757464917 0.39400537378732459 0 0.30783074152317963 1 I I 0 1 0.5 forward I I I I #
face $-1 $126 $127 $30 $-1 $128 reversed single #
loop $-1 $-1 $129 $50 #
plane-surface $-1 0 0 -5.9152304137380893 0 0 1 1 0 0 forward_v I I I I #
coedge $-1 $130 $131 $132 $133 forward $51 $-1 #
face $-1 $134 $135 $31 $-1 $136 reversed single #
loop $-1 $-1 $137 $53 #
plane-surface $-1 0 -19.091796722740611 -3.7804053931912884 0 0 1 1 0 0 forward_v I I I I #
coedge $-1 $138 $139 $140 $141 reversed $54 $-1 #
face $-1 $142 $143 $32 $-1 $144 reversed single #
loop $-1 $-1 $145 $56 #
plane-surface $-1 -35.246461628522795 3.4627930899582573 57.439963787196788 0.54463904215088732 0 0.83867056331134215 0.83867056331134215 0 -0.54463904215088732 forward_v I I I I #
coedge $-1 $146 $147 $148 $149 reversed $57 $-1 #
face $-1 $-1 $150 $33 $-1 $151 forward single #
loop $-1 $152 $153 $59 #
cone-surface $-1 47.285388559413462 1.0651601322515205 2.1350913509552756 -0.54463904215088732 0 -0.83867056331134215 0.20966764082783554 0 -0.13615976053772183 1 I I -0.70710678118654746 0.70710678118654746 0.25 forward I I I I #
loop $-1 $-1 $154 $43 #
coedge $-1 $96 $96 $155 $156 reversed $60 $-1 #
face $-1 $-1 $157 $34 $-1 $158 forward single #
loop $-1 $159 $160 $62 #
cone-surface $-1 47.285388559413462 3.4627930899582537 2.1350913509552756 -0.54463904215088732 0 -0.83867056331134215 0.20966764082783554 0 -0.13615976053772183 1 I I -0.70710678118654746 0.70710678118654746 0.25 forward I I I I #
loop $-1 $-1 $161 $44 #
coedge $-1 $101 $101 $162 $163 reversed $63 $-1 #
face $-1 $-1 $164 $35 $-1 $165 forward single #
loop $-1 $166 $167 $65 #
cone-surface $-1 47.285388559413462 5.860426047664987 2.1350913509552756 -0.54463904215088732 0 -0.83867056331134215 0.20966764082783554 0 -0.13615976053772183 1 I I -0.70710678118654746 0.70710678118654746 0.25 forward I I I I #
loop $-1 $-1 $168 $45 #
coedge $-1 $106 $106 $169 $170 reversed $66 $-1 #
face $-1 $171 $172 $36 $-1 $173 reversed single #
loop $-1 $-1 $174 $68 #
plane-surface $-1 -52.036500137333292 12.294258086452626 0.18621104330435401 -0.61566148304635926 0 0.78801074757464917 0.78801074757464917 0 0.61566148304635926 forward_v I I I I #
coedge $-1 $175 $176 $177 $178 reversed $69 $-1 #
face $-1 $-1 $179 $37 $-1 $180 forward single #
loop $-1 $181 $182 $71 #
cone-surface $-1 -47.60051815564016 8.8700209631381774 2.0657072940529106 0.61566148304635926 0 -0.78801074757464917 0.19700268689366229 0 0.15391537076158981 1 I I -0.70710678118654746 0.70710678118654746 0.25 forward I I I I #
loop $-1 $-1 $183 $47 #
coedge $-1 $115 $115 $184 $185 reversed $72 $-1 #
face $-1 $-1 $186 $38 $-1 $187 forward single #
loop $-1 $188 $189 $74 #
cone-surface $-1 -47.60051815564016 12.294258086452626 2.0657072940529106 0.61566148304635926 0 -0.78801074757464917 0.19700268689366229 0 0.15391537076158981 1 I I -0.70710678118654746 0.70710678118654746 0.25 forward I I I I #
loop $-1 $-1 $190 $48 #
coedge $-1 $120 $120 $191 $192 reversed $75 $-1 #
face $-1 $-1 $193 $39 $-1 $194 forward single #
loop $-1 $195 $196 $77 #
cone-surface $-1 -47.60051815564016 15.718495209767074 2.0657072940529106 0.61566148304635926 0 -0.78801074757464917 0.19700268689366229 0 0.15391537076158981 1 I I -0.70710678118654746 0.70710678118654746 0.25 forward I I I I #
loop $-1 $-1 $197 $49 #
coedge $-1 $125 $125 $198 $199 reversed $78 $-1 #
face $-1 $200 $201 $30 $-1 $202 reversed single #
loop $-1 $-1 $203 $80 #
plane-surface $-1 0 -22.624530753700942 0 0 1 0 0 0 1 forward_v I I I I #
coedge $-1 $204 $205 $206 $207 forward $81 $-1 #
coedge $-1 $208 $83 $209 $210 forward $51 $-1 #
coedge $-1 $83 $208 $211 $212 forward $51 $-1 #
coedge $-1 $213 $214 $83 $133 reversed $215 $-1 #
edge $-1 $216 -22.624530753700942 $217 22.624530753700942 $132 $218 forward 7 unknown #
face $-1 $219 $220 $31 $-1 $221 reversed single #
loop $-1 $-1 $222 $84 #
plane-surface $-1 0 -15.559062691780278 -2.275755776947336 0 -1 0 0 0 -1 forward_v I I I I #
coedge $-1 $223 $224 $225 $226 reversed $85 $-1 #
coedge $-1 $227 $87 $228 $229 forward $54 $-1 #
coedge $-1 $87 $227 $230 $231 reversed $54 $-1 #
coedge $-1 $232 $233 $87 $141 forward $234 $-1 #
edge $-1 $235 6.0131643304099729 $236 13.07863239233064 $140 $237 forward 7 unknown #
face $-1 $238 $239 $32 $-1 $240 forward single #
loop $-1 $-1 $241 $88 #
plane-surface $-1 21.435757554840649 7.45884801946948 144.72292555305287 0 -1 0 -0.54463904215088732 0 -0.83867056331134215 forward_v I I I I #
coedge $-1 $242 $243 $244 $245 reversed $89 $-1 #
coedge $-1 $147 $91 $246 $247 reversed $57 $-1 #
coedge $-1 $91 $146 $242 $248 reversed $57 $-1 #
coedge $-1 $244 $249 $91 $149 forward $250 $-1 #
edge $-1 $251 66.446232362788351 $252 71.603718172693092 $148 $253 forward 7 unknown #
loop $-1 $-1 $155 $92 #
plane-surface $-1 -35.246461628522795 3.4627930899582573 57.439963787196788 0.54463904215088732 0 0.83867056331134215 0.83867056331134215 0 -0.54463904215088732 forward_v I I I I #
loop $-1 $-1 $254 $59 #
coedge $-1 $153 $153 $154 $255 reversed $93 $-1 #
coedge $-1 $154 $154 $153 $255 forward $95 $-1 #
coedge $-1 $155 $155 $96 $156 forward $150 $-1 #
edge $-1 $256 0 $256 6.2831853071796004 $155 $257 forward 7 unknown #
loop $-1 $-1 $162 $97 #
plane-surface $-1 -35.246461628522795 3.4627930899582573 57.439963787196788 0.54463904215088732 0 0.83867056331134215 0.83867056331134215 0 -0.54463904215088732 forward_v I I I I #
loop $-1 $-1 $258 $62 #
coedge $-1 $160 $160 $161 $259 reversed $98 $-1 #
coedge $-1 $161 $161 $160 $259 forward $100 $-1 #
coedge $-1 $162 $162 $101 $163 forward $157 $-1 #
edge $-1 $260 0 $260 6.2831853071796004 $162 $261 forward 7 unknown #
loop $-1 $-1 $169 $102 #
plane-surface $-1 -35.246461628522795 3.4627930899582573 57.439963787196788 0.54463904215088732 0 0.83867056331134215 0.83867056331134215 0 -0.54463904215088732 forward_v I I I I #
loop $-1 $-1 $262 $65 #
coedge $-1 $167 $167 $168 $263 reversed $103 $-1 #
coedge $-1 $168 $168 $167 $263 forward $105 $-1 #
coedge $-1 $169 $169 $106 $170 forward $164 $-1 #
edge $-1 $264 0 $264 6.2831853071796004 $169 $265 forward 7 unknown #
face $-1 $266 $267 $36 $-1 $268 reversed single #
loop $-1 $-1 $269 $107 #
plane-surface $-1 -116.11023783151867 18.001319958643371 82.196853792081043 0 -1 0 0.61566148304635926 0 -0.78801074757464917 forward_v I I I I #
coedge $-1 $270 $271 $272 $273 reversed $108 $-1 #
coedge $-1 $176 $110 $274 $275 reversed $69 $-1 #
coedge $-1 $110 $175 $270 $276 reversed $69 $-1 #
coedge $-1 $272 $277 $110 $178 forward $278 $-1 #
edge $-1 $279 6.0186187784260454 $280 13.351429034196407 $177 $281 forward 7 unknown #
loop $-1 $-1 $184 $111 #
plane-surface $-1 -52.036500137333292 12.294258086452626 0.18621104330435401 -0.61566148304635926 0 0.78801074757464917 0.78801074757464917 0 0.61566148304635926 forward_v I I I I #
loop $-1 $-1 $282 $71 #
coedge $-1 $182 $182 $183 $283 reversed $112 $-1 #
coedge $-1 $183 $183 $182 $283 forward $114 $-1 #
coedge $-1 $184 $184 $115 $185 forward $179 $-1 #
edge $-1 $284 0 $284 6.2831853071796004 $184 $285 forward 7 unknown #
loop $-1 $-1 $191 $116 #
plane-surface $-1 -52.036500137333292 12.294258086452626 0.18621104330435401 -0.61566148304635926 0 0.78801074757464917 0.78801074757464917 0 0.61566148304635926 forward_v I I I I #
loop $-1 $-1 $286 $74 #
coedge $-1 $189 $189 $190 $287 reversed $117 $-1 #
coedge $-1 $190 $190 $189 $287 forward $119 $-1 #
coedge $-1 $191 $191 $120 $192 forward $186 $-1 #
edge $-1 $288 0 $288 6.2831853071796004 $191 $289 forward 7 unknown #
loop $-1 $-1 $198 $121 #
plane-surface $-1 -52.036500137333292 12.294258086452626 0.18621104330435401 -0.61566148304635926 0 0.78801074757464917 0.78801074757464917 0 0.61566148304635926 forward_v I I I I #
loop $-1 $-1 $290 $77 #
coedge $-1 $196 $196 $197 $291 reversed $122 $-1 #
coedge $-1 $197 $197 $196 $291 forward $124 $-1 #
coedge $-1 $198 $198 $125 $199 forward $193 $-1 #
edge $-1 $292 0 $292 6.2831853071796004 $198 $293 forward 7 unknown #
face $-1 $294 $295 $30 $-1 $296 reversed single #
loop $-1 $-1 $297 $126 #
plane-surface $-1 -52.036500137333292 0 0 1 0 0 0 0 -1 forward_v I I I I #
coedge $-1 $298 $211 $299 $300 forward $127 $-1 #
coedge $-1 $301 $129 $298 $302 forward $81 $-1 #
coedge $-1 $129 $301 $303 $304 forward $81 $-1 #
coedge $-1 $214 $213 $129 $207 reversed $215 $-1 #
edge $-1 $305 -22.624530753700942 $306 22.624530753700942 $206 $307 forward 7 unknown #
coedge $-1 $131 $130 $308 $309 forward $51 $-1 #
coedge $-1 $310 $311 $130 $210 reversed $295 $-1 #
edge $-1 $217 -52.036500137333292 $312 52.036500137333292 $209 $313 forward 7 unknown #
coedge $-1 $203 $314 $131 $212 reversed $127 $-1 #
edge $-1 $315 -52.036500137333292 $216 52.036500137333292 $211 $316 forward 7 unknown #
coedge $-1 $206 $132 $314 $317 forward $215 $-1 #
coedge $-1 $132 $206 $310 $318 reversed $215 $-1 #
loop $-1 $-1 $213 $294 #
vertex $-1 $133 $319 #
vertex $-1 $133 $320 #
straight-curve $-1 52.036500137333292 0 5.9152304137380893 0 1 0 I I #
face $-1 $321 $322 $31 $-1 $323 reversed single #
loop $-1 $-1 $324 $134 #
plane-surface $-1 -52.036500137333292 0 0 1 0 0 0 0 -1 forward_v I I I I #
coedge $-1 $325 $228 $233 $326 reversed $135 $-1 #
coedge $-1 $327 $137 $328 $329 reversed $85 $-1 #
coedge $-1 $137 $327 $325 $330 forward $85 $-1 #
coedge $-1 $233 $232 $137 $226 forward $234 $-1 #
edge $-1 $331 -13.07863239233064 $332 -6.0131643304099729 $225 $333 forward 7 unknown #
coedge $-1 $139 $138 $324 $334 reversed $54 $-1 #
coedge $-1 $222 $335 $138 $229 reversed $135 $-1 #
edge $-1 $235 -52.036500137333292 $336 52.036500137333292 $228 $337 forward 7 unknown #
coedge $-1 $338 $339 $139 $231 forward $322 $-1 #
edge $-1 $236 -52.036500137333292 $340 52.036500137333292 $230 $341 forward 7 unknown #
coedge $-1 $225 $140 $339 $342 forward $234 $-1 #
coedge $-1 $140 $225 $222 $326 forward $234 $-1 #
loop $-1 $-1 $140 $321 #
vertex $-1 $141 $343 #
vertex $-1 $342 $344 #
straight-curve $-1 52.036500137333292 -9.5458983613703055 -0.77110616070338334 0 -1 0 I I #
face $-1 $-1 $250 $32 $-1 $345 reversed single #
loop $-1 $-1 $346 $142 #
plane-surface $-1 0 0 5.9152304137380893 0 0 1 1 0 0 forward_v I I I I #
coedge $-1 $347 $348 $349 $350 reversed $143 $-1 #
coedge $-1 $351 $145 $147 $248 forward $89 $-1 #
coedge $-1 $145 $351 $347 $352 forward $89 $-1 #
coedge $-1 $349 $148 $145 $245 forward $250 $-1 #
edge $-1 $252 -2.264658384532094 $353 5.7274514744903513 $244 $354 forward 7 unknown #
coedge $-1 $355 $356 $146 $247 forward $239 $-1 #
edge $-1 $357 33.376789807806318 $251 41.318621359912967 $246 $358 forward 7 unknown #
edge $-1 $252 -104.07300027466658 $357 -94.603451801724191 $147 $359 forward 7 unknown #
coedge $-1 $148 $349 $355 $360 reversed $250 $-1 #
loop $-1 $-1 $349 $238 #
vertex $-1 $360 $361 #
vertex $-1 $149 $362 #
straight-curve $-1 52.036500137333292 -0.53326183955296536 72.361462776526437 0 0 -1 I I #
coedge $-1 $254 $254 $-1 $363 reversed $152 $-1 #
edge $-1 $364 0 $364 6.2831853071796004 $153 $365 forward 7 unknown #
vertex $-1 $156 $366 #
ellipse-curve $-1 48.065584361279974 1.0651601322515205 3.3364875087857206 0.54463904215088732 0 0.83867056331134215 0.41933528165567108 0 -0.27231952107544366 1 I I #
coedge $-1 $258 $258 $-1 $367 reversed $159 $-1 #
edge $-1 $368 0 $368 6.2831853071796004 $160 $369 forward 7 unknown #
vertex $-1 $163 $370 #
ellipse-curve $-1 48.065584361279974 3.4627930899582537 3.3364875087857206 0.54463904215088732 0 0.83867056331134215 0.41933528165567108 0 -0.27231952107544366 1 I I #
coedge $-1 $262 $262 $-1 $371 reversed $166 $-1 #
edge $-1 $372 0 $372 6.2831853071796004 $167 $373 forward 7 unknown #
vertex $-1 $170 $374 #
ellipse-curve $-1 48.065584361279974 5.860426047664987 3.3364875087857206 0.54463904215088732 0 0.83867056331134215 0.41933528165567108 0 -0.27231952107544366 1 I I #
face $-1 $-1 $278 $36 $-1 $375 forward single #
loop $-1 $-1 $376 $171 #
plane-surface $-1 -52.036500137333292 0 0 1 0 0 0 0 -1 forward_v I I I I #
coedge $-1 $377 $378 $379 $380 reversed $172 $-1 #
coedge $-1 $381 $174 $176 $276 forward $108 $-1 #
coedge $-1 $174 $381 $377 $382 forward $108 $-1 #
coedge $-1 $379 $177 $174 $273 forward $278 $-1 #
edge $-1 $280 0.44006717103556525 $383 11.854190915417059 $272 $384 forward 7 unknown #
coedge $-1 $385 $386 $175 $275 forward $267 $-1 #
edge $-1 $387 -40.912215852736168 $279 -35.183196482302435 $274 $388 forward 7 unknown #
edge $-1 $280 -9.3054698534752092 $387 0 $176 $389 forward 7 unknown #
coedge $-1 $177 $379 $385 $390 forward $278 $-1 #
loop $-1 $-1 $379 $266 #
vertex $-1 $275 $391 #
vertex $-1 $178 $392 #
straight-curve $-1 -58.055118915759337 6.5871962142618781 5.9152304137380867 1 0 0 I I #
coedge $-1 $282 $282 $-1 $393 reversed $181 $-1 #
edge $-1 $394 0 $394 6.2831853071796004 $182 $395 forward 7 unknown #
vertex $-1 $185 $396 #
ellipse-curve $-1 -48.370095009448107 8.8700209631381774 3.0507207285212221 -0.61566148304635926 0 0.78801074757464917 0.39400537378732459 0 0.30783074152317963 1 I I #
coedge $-1 $286 $286 $-1 $397 reversed $188 $-1 #
edge $-1 $398 0 $398 6.2831853071796004 $189 $399 forward 7 unknown #
vertex $-1 $192 $400 #
ellipse-curve $-1 -48.370095009448107 12.294258086452626 3.0507207285212221 -0.61566148304635926 0 0.78801074757464917 0.39400537378732459 0 0.30783074152317963 1 I I #
coedge $-1 $290 $290 $-1 $401 reversed $195 $-1 #
edge $-1 $402 0 $402 6.2831853071796004 $196 $403 forward 7 unknown #
vertex $-1 $199 $404 #
ellipse-curve $-1 -48.370095009448107 15.718495209767074 3.0507207285212221 -0.61566148304635926 0 0.78801074757464917 0.39400537378732459 0 0.30783074152317963 1 I I #
face $-1 $-1 $215 $30 $-1 $405 reversed single #
loop $-1 $-1 $310 $200 #
plane-surface $-1 0 22.624530753700942 0 0 -1 0 0 0 -1 forward_v I I I I #
coedge $-1 $406 $308 $311 $407 forward $201 $-1 #
coedge $-1 $314 $203 $204 $302 reversed $127 $-1 #
coedge $-1 $308 $406 $203 $300 reversed $201 $-1 #
edge $-1 $315 -5.9152304137380893 $408 5.9152304137380893 $299 $409 forward 7 unknown #
coedge $-1 $205 $204 $406 $410 forward $81 $-1 #
edge $-1 $306 -52.036500137333292 $408 52.036500137333292 $298 $411 forward 7 unknown #
coedge $-1 $311 $310 $205 $304 reversed $295 $-1 #
edge $-1 $412 -52.036500137333292 $305 52.036500137333292 $303 $413 forward 7 unknown #
vertex $-1 $207 $414 #
vertex $-1 $317 $415 #
straight-curve $-1 52.036500137333292 0 -5.9152304137380893 0 -1 0 I I #
coedge $-1 $297 $299 $208 $309 reversed $201 $-1 #
edge $-1 $312 -22.624530753700942 $315 22.624530753700942 $308 $416 forward 7 unknown #
coedge $-1 $303 $209 $214 $318 forward $295 $-1 #
coedge $-1 $209 $303 $297 $407 reversed $295 $-1 #
vertex $-1 $210 $417 #
straight-curve $-1 0 22.624530753700942 5.9152304137380893 -1 0 0 I I #
coedge $-1 $211 $298 $213 $317 reversed $127 $-1 #
vertex $-1 $309 $418 #
straight-curve $-1 0 -22.624530753700942 5.9152304137380893 1 0 0 I I #
edge $-1 $216 -5.9152304137380893 $306 5.9152304137380893 $213 $419 forward 7 unknown #
edge $-1 $217 -5.9152304137380893 $305 5.9152304137380893 $214 $420 forward 7 unknown #
point $-1 52.036500137333292 -22.624530753700942 5.9152304137380893 #
point $-1 52.036500137333292 22.624530753700942 5.9152304137380893 #
face $-1 $-1 $234 $31 $-1 $421 reversed single #
loop $-1 $-1 $230 $219 #
plane-surface $-1 0 -22.624530753700942 0 0 1 0 0 0 1 forward_v I I I I #
coedge $-1 $422 $423 $227 $334 forward $220 $-1 #
coedge $-1 $335 $222 $224 $330 reversed $135 $-1 #
edge $-1 $332 -2.6425275047176204 $235 0.36677172777028466 $233 $424 forward 7 unknown #
coedge $-1 $224 $223 $425 $426 reversed $85 $-1 #
coedge $-1 $339 $338 $223 $329 forward $322 $-1 #
edge $-1 $427 -52.036500137333292 $331 52.036500137333292 $328 $428 forward 7 unknown #
edge $-1 $429 -52.036500137333292 $332 52.036500137333292 $325 $430 forward 7 unknown #
vertex $-1 $329 $431 #
vertex $-1 $226 $432 #
straight-curve $-1 52.036500137333292 -9.5458983613703055 -3.7804053931912884 0 1 0 I I #
edge $-1 $340 -13.07863239233064 $336 -6.0131643304099729 $324 $433 forward 7 unknown #
coedge $-1 $228 $325 $422 $434 reversed $135 $-1 #
vertex $-1 $334 $435 #
straight-curve $-1 0 -15.559062691780278 -0.77110616070338334 -1 0 0 I I #
coedge $-1 $328 $230 $423 $436 forward $322 $-1 #
coedge $-1 $230 $328 $232 $342 reversed $322 $-1 #
vertex $-1 $436 $437 #
straight-curve $-1 0 -22.624530753700942 -0.77110616070338334 -1 0 0 I I #
edge $-1 $236 0.77110616070338334 $331 3.7804053931912884 $232 $438 forward 7 unknown #
point $-1 52.036500137333292 -15.559062691780278 -0.77110616070338334 #
point $-1 52.036500137333292 -22.624530753700945 -0.77110616070338334 #
plane-surface $-1 52.036500137333292 0 0 -1 0 0 0 0 1 forward_v I I I I #
coedge $-1 $356 $355 $348 $439 forward $239 $-1 #
coedge $-1 $348 $241 $243 $352 reversed $143 $-1 #
coedge $-1 $241 $347 $346 $439 reversed $143 $-1 #
coedge $-1 $249 $244 $241 $350 forward $250 $-1 #
edge $-1 $353 -71.603718172693092 $440 -66.446232362788351 $349 $441 forward 7 unknown #
coedge $-1 $243 $242 $356 $442 reversed $89 $-1 #
edge $-1 $443 94.603451801724191 $353 104.07300027466658 $347 $444 forward 7 unknown #
vertex $-1 $245 $445 #
straight-curve $-1 52.036500137333284 1.7313965449791286 0.75774460383335196 0 1 0 I I #
coedge $-1 $346 $246 $249 $360 forward $239 $-1 #
coedge $-1 $246 $346 $351 $442 forward $239 $-1 #
vertex $-1 $247 $446 #
straight-curve $-1 10.717878777420324 -0.53326183955296536 5.9152304137380867 1 0 0 I I #
straight-curve $-1 -35.246461628522795 -0.53326183955296536 57.439963787196788 -0.83867056331134215 0 0.54463904215088732 I I #
edge $-1 $251 -0.53326183955296536 $440 7.45884801946948 $249 $447 forward 7 unknown #
point $-1 52.036500137333292 -0.53326183955296536 5.9152304137380893 #
point $-1 52.036500137333292 -0.53326183955296536 0.75774460383334485 #
edge $-1 $448 1 $448 0 $254 $-1 forward 7 unknown #
vertex $-1 $255 $449 #
ellipse-curve $-1 47.421548319951185 1.0651601322515205 2.3447589917831113 0.54463904215088732 0 0.83867056331134215 0.41933528165567108 0 -0.27231952107544366 1 I I #
point $-1 48.484919642935644 1.0651601322515205 3.0641679877102792 #
edge $-1 $450 1 $450 0 $258 $-1 forward 7 unknown #
vertex $-1 $259 $451 #
ellipse-curve $-1 47.421548319951185 3.4627930899582537 2.3447589917831113 0.54463904215088732 0 0.83867056331134215 0.41933528165567108 0 -0.27231952107544366 1 I I #
point $-1 48.484919642935644 3.4627930899582537 3.0641679877102792 #
edge $-1 $452 1 $452 0 $262 $-1 forward 7 unknown #
vertex $-1 $263 $453 #
ellipse-curve $-1 47.421548319951185 5.860426047664987 2.3447589917831113 0.54463904215088732 0 0.83867056331134215 0.41933528165567108 0 -0.27231952107544366 1 I I #
point $-1 48.484919642935644 5.860426047664987 3.0641679877102792 #
plane-surface $-1 0 0 5.9152304137380893 0 0 1 1 0 0 forward_v I I I I #
coedge $-1 $386 $385 $378 $454 forward $267 $-1 #
coedge $-1 $378 $269 $271 $382 reversed $172 $-1 #
coedge $-1 $269 $377 $376 $454 reversed $172 $-1 #
coedge $-1 $277 $272 $269 $380 forward $278 $-1 #
edge $-1 $383 -13.351429034196407 $455 -6.0186187784260454 $379 $456 forward 7 unknown #
coedge $-1 $271 $270 $386 $457 reversed $108 $-1 #
edge $-1 $458 0 $383 9.3054698534752092 $377 $459 forward 7 unknown #
vertex $-1 $273 $460 #
straight-curve $-1 -44.703689881562937 6.1471290432263128 5.9152304137380884 0 1 0 I I #
coedge $-1 $376 $274 $277 $390 reversed $267 $-1 #
coedge $-1 $274 $376 $381 $457 forward $267 $-1 #
vertex $-1 $275 $461 #
straight-curve $-1 -52.036500137333292 6.5871962142618781 41.098426896040522 0 0 1 I I #
straight-curve $-1 -52.036500137333292 6.5871962142618781 0.18621104330435401 -0.78801074757464917 0 -0.61566148304635926 I I #
edge $-1 $455 -18.001319958643371 $279 -6.5871962142618781 $385 $462 forward 7 unknown #
point $-1 -52.036500137333292 6.5871962142618781 5.9152304137380893 #
point $-1 -44.70368988156293 6.5871962142618781 5.9152304137380893 #
edge $-1 $463 1 $463 0 $282 $-1 forward 7 unknown #
vertex $-1 $283 $464 #
ellipse-curve $-1 -47.754433526401748 8.8700209631381774 2.2627099809465729 -0.61566148304635926 0 0.78801074757464917 0.39400537378732459 0 0.30783074152317963 1 I I #
point $-1 -47.976089635660784 8.8700209631381774 3.3585514700444019 #
edge $-1 $465 1 $465 0 $286 $-1 forward 7 unknown #
vertex $-1 $287 $466 #
ellipse-curve $-1 -47.754433526401748 12.294258086452626 2.2627099809465729 -0.61566148304635926 0 0.78801074757464917 0.39400537378732459 0 0.30783074152317963 1 I I #
point $-1 -47.976089635660784 12.294258086452626 3.3585514700444019 #
edge $-1 $467 1 $467 0 $290 $-1 forward 7 unknown #
vertex $-1 $291 $468 #
ellipse-curve $-1 -47.754433526401748 15.718495209767074 2.2627099809465729 -0.61566148304635926 0 0.78801074757464917 0.39400537378732459 0 0.30783074152317963 1 I I #
point $-1 -47.976089635660784 15.718495209767074 3.3585514700444019 #
plane-surface $-1 52.036500137333292 0 0 -1 0 0 0 0 1 forward_v I I I I #
coedge $-1 $299 $297 $301 $410 reversed $201 $-1 #
edge $-1 $312 -5.9152304137380893 $412 5.9152304137380893 $311 $469 forward 7 unknown #
vertex $-1 $410 $470 #
straight-curve $-1 -52.036500137333292 -22.624530753700942 0 0 0 -1 I I #
edge $-1 $408 -22.624530753700942 $412 22.624530753700942 $406 $471 forward 7 unknown #
straight-curve $-1 0 -22.624530753700942 -5.9152304137380893 -1 0 0 I I #
vertex $-1 $304 $472 #
straight-curve $-1 0 22.624530753700942 -5.9152304137380893 1 0 0 I I #
point $-1 52.036500137333292 22.624530753700942 -5.9152304137380893 #
point $-1 52.036500137333292 -22.624530753700942 -5.9152304137380893 #
straight-curve $-1 -52.036500137333292 0 5.9152304137380893 0 -1 0 I I #
point $-1 -52.036500137333292 22.624530753700942 5.9152304137380893 #
point $-1 -52.036500137333292 -22.624530753700942 5.9152304137380893 #
straight-curve $-1 52.036500137333292 -22.624530753700942 0 0 0 -1 I I #
straight-curve $-1 52.036500137333292 22.624530753700942 0 0 0 -1 I I #
plane-surface $-1 52.036500137333292 0 0 -1 0 0 0 0 1 forward_v I I I I #
coedge $-1 $425 $324 $335 $434 forward $220 $-1 #
coedge $-1 $324 $425 $338 $436 reversed $220 $-1 #
straight-curve $-1 52.036500137333292 -15.559062691780278 -1.137877888473668 0 0 1 I I #
coedge $-1 $423 $422 $327 $426 forward $220 $-1 #
edge $-1 $429 6.0131643304099729 $427 13.07863239233064 $425 $473 forward 7 unknown #
vertex $-1 $329 $474 #
straight-curve $-1 0 -22.624530753700942 -3.7804053931912884 1 0 0 I I #
vertex $-1 $426 $475 #
straight-curve $-1 0 -15.559062691780278 -3.7804053931912884 1 0 0 I I #
point $-1 52.036500137333292 -22.624530753700945 -3.7804053931912884 #
point $-1 52.036500137333292 -15.559062691780278 -3.7804053931912884 #
straight-curve $-1 -52.036500137333292 -9.5458983613703055 -0.77110616070338334 0 1 0 I I #
edge $-1 $336 -0.36677172777028466 $429 2.6425275047176204 $422 $476 forward 7 unknown #
point $-1 -52.036500137333292 -15.559062691780278 -0.77110616070338334 #
edge $-1 $340 0.77110616070338334 $427 3.7804053931912884 $423 $477 forward 7 unknown #
point $-1 -52.036500137333292 -22.624530753700945 -0.77110616070338334 #
straight-curve $-1 52.036500137333292 -22.624530753700942 0 0 0 -1 I I #
edge $-1 $440 -41.318621359912967 $443 -33.376789807806318 $346 $478 forward 7 unknown #
vertex $-1 $439 $479 #
straight-curve $-1 52.036500137333292 7.45884801946948 72.361462776526437 0 0 1 I I #
edge $-1 $443 -5.7274514744903513 $357 2.264658384532094 $356 $480 forward 7 unknown #
vertex $-1 $442 $481 #
straight-curve $-1 -35.246461628522795 7.45884801946948 57.439963787196788 0.83867056331134215 0 -0.54463904215088732 I I #
point $-1 52.036500137333292 7.45884801946948 0.75774460383334485 #
point $-1 44.094668585226643 -0.53326183955296536 5.9152304137380867 #
straight-curve $-1 52.036500137333292 0 5.9152304137380893 0 1 0 I I #
vertex $-1 $363 $482 #
point $-1 47.840883601606855 1.0651601322515205 2.0724394707076677 #
vertex $-1 $367 $483 #
point $-1 47.840883601606855 3.4627930899582537 2.0724394707076677 #
vertex $-1 $371 $484 #
point $-1 47.840883601606855 5.860426047664987 2.0724394707076677 #
edge $-1 $455 35.183196482302435 $458 40.912215852736168 $376 $485 forward 7 unknown #
vertex $-1 $390 $486 #
straight-curve $-1 -58.055118915759337 18.001319958643371 5.9152304137380867 -1 0 0 I I #
edge $-1 $458 -11.854190915417059 $387 -0.44006717103556525 $386 $487 forward 7 unknown #
vertex $-1 $457 $488 #
straight-curve $-1 -52.036500137333292 18.001319958643371 0.18621104330435401 0.78801074757464917 0 0.61566148304635926 I I #
point $-1 -44.70368988156293 18.001319958643371 5.9152304137380893 #
point $-1 -52.036500137333292 6.5871962142618781 0.18621104330435401 #
straight-curve $-1 -52.036500137333292 0 5.9152304137380893 0 -1 0 I I #
vertex $-1 $393 $489 #
point $-1 -47.360428152614425 8.8700209631381774 2.5705407224697527 #
vertex $-1 $397 $490 #
point $-1 -47.360428152614425 12.294258086452626 2.5705407224697527 #
vertex $-1 $401 $491 #
point $-1 -47.360428152614425 15.718495209767074 2.5705407224697527 #
straight-curve $-1 -52.036500137333292 22.624530753700942 0 0 0 -1 I I #
point $-1 -52.036500137333292 -22.624530753700942 -5.9152304137380893 #
straight-curve $-1 -52.036500137333292 0 -5.9152304137380893 0 1 0 I I #
point $-1 -52.036500137333292 22.624530753700942 -5.9152304137380893 #
straight-curve $-1 -52.036500137333292 -9.5458983613703055 -3.7804053931912884 0 -1 0 I I #
point $-1 -52.036500137333292 -22.624530753700945 -3.7804053931912884 #
point $-1 -52.036500137333292 -15.559062691780278 -3.7804053931912884 #
straight-curve $-1 -52.036500137333292 -15.559062691780278 -1.137877888473668 0 0 -1 I I #
straight-curve $-1 -52.036500137333292 -22.624530753700942 0 0 0 -1 I I #
straight-curve $-1 10.717878777420324 7.45884801946948 5.9152304137380867 -1 0 0 I I #
point $-1 52.036500137333292 7.45884801946948 5.9152304137380893 #
straight-curve $-1 44.094668585226643 1.7313965449791286 5.9152304137380867 0 -1 0 I I #
point $-1 44.094668585226643 7.45884801946948 5.9152304137380867 #
point $-1 47.14922879887574 1.0651601322515205 1.9254237101274401 #
point $-1 47.14922879887574 3.4627930899582537 1.9254237101274401 #
point $-1 47.14922879887574 5.860426047664987 1.9254237101274401 #
straight-curve $-1 -52.036500137333292 18.001319958643371 41.098426896040522 0 0 -1 I I #
point $-1 -52.036500137333292 18.001319958643371 5.9152304137380893 #
straight-curve $-1 -52.036500137333292 6.1471290432263128 0.1862110433043544 0 -1 0 I I #
point $-1 -52.036500137333292 18.001319958643371 0.18621104330435401 #
point $-1 -47.446602784878571 8.8700209631381774 1.8687046071592484 #
point $-1 -47.446602784878571 12.294258086452626 1.8687046071592484 #
point $-1 -47.446602784878571 15.718495209767074 1.8687046071592484 #
End-of-ACIS-data 