500 0 6 0           
7 Unknown 11 ACIS 5.0 NT 24 Thu Mar 25 19:57:43 1999 
-1 9.9999999999999995e-007 1e-010 
body $-1 $6 $-1 $7 #
body $-1 $8 $-1 $9 #
body $-1 $10 $-1 $11 #
body $-1 $12 $-1 $13 #
body $-1 $14 $-1 $15 #
body $-1 $16 $-1 $17 #
lump $-1 $-1 $18 $0 #
transform $-1 1 0 0 0 1 0 0 0 1 54.910122989593191 24.271088788103061 11.787999765022997 1 rotate no_reflect no_shear #
lump $-1 $-1 $19 $1 #
transform $-1 1 0 0 0 1 0 0 0 1 54.910122989593191 24.271088788103061 11.787999765022997 1 rotate no_reflect no_shear #
lump $-1 $-1 $20 $2 #
transform $-1 1 0 0 0 1 0 0 0 1 54.910122989593191 24.271088788103061 11.787999765022997 1 rotate no_reflect no_shear #
lump $-1 $-1 $21 $3 #
transform $-1 1 0 0 0 1 0 0 0 1 54.910122989593191 24.271088788103061 11.787999765022997 1 rotate no_reflect no_shear #
lump $-1 $-1 $22 $4 #
transform $-1 1 0 0 0 1 0 0 0 1 54.910122989593191 24.271088788103061 11.787999765022997 1 rotate no_reflect no_shear #
lump $-1 $-1 $23 $5 #
transform $-1 1 0 0 0 1 0 0 0 1 54.910122989593191 24.271088788103061 11.787999765022997 1 rotate no_reflect no_shear #
shell $-1 $-1 $-1 $24 $-1 $6 #
shell $-1 $-1 $-1 $25 $-1 $8 #
shell $-1 $-1 $-1 $26 $-1 $10 #
shell $-1 $-1 $-1 $27 $-1 $12 #
shell $-1 $-1 $-1 $28 $-1 $14 #
shell $-1 $-1 $-1 $29 $-1 $16 #
face $-1 $30 $31 $18 $-1 $32 forward single #
face $-1 $33 $34 $19 $-1 $35 forward single #
face $-1 $36 $37 $20 $-1 $38 reversed single #
face $-1 $39 $40 $21 $-1 $41 reversed single #
face $-1 $42 $43 $22 $-1 $44 forward single #
face $-1 $45 $46 $23 $-1 $47 forward single #
face $-1 $48 $49 $18 $-1 $50 reversed single #
loop $-1 $-1 $51 $24 #
plane-surface $-1 0 0 11.787999765022997 0 0 1 1 0 0 forward_v I I I I #
face $-1 $52 $53 $19 $-1 $54 reversed single #
loop $-1 $-1 $55 $25 #
plane-surface $-1 0 -17.640676187948749 -1.937811394784891 0 0 1 1 0 0 forward_v I I I I #
face $-1 $56 $57 $20 $-1 $58 reversed single #
loop $-1 $-1 $59 $26 #
plane-surface $-1 -51.37839983845921 12.954393162371463 0 0 1 0 0 0 1 forward_v I I I I #
face $-1 $60 $61 $21 $-1 $62 reversed single #
loop $-1 $-1 $63 $27 #
plane-surface $-1 -121.00159770282855 -11.010263587794437 90.023298425405955 0 1 0 -0.6018150307709319 0 0.79863550430605224 forward_v I I I I #
face $-1 $64 $65 $22 $-1 $66 forward single #
loop $-1 $67 $68 $28 #
cone-surface $-1 -48.18502807354858 -9.0485353366300476 6.4674584320555795 0.6018150307709319 0 -0.79863550430605224 0.39931775215302612 0 0.30090751538546595 1 I I 0 1 0.5 forward I I I I #
face $-1 $69 $70 $23 $-1 $71 forward single #
loop $-1 $72 $73 $29 #
cone-surface $-1 -48.18502807354858 -6.105942959883464 6.4674584320555795 0.6018150307709319 0 -0.79863550430605224 0.39931775215302612 0 0.30090751538546595 1 I I 0 1 0.5 forward I I I I #
face $-1 $74 $75 $18 $-1 $76 reversed single #
loop $-1 $-1 $77 $30 #
plane-surface $-1 0 0 -11.787999765022997 0 0 1 1 0 0 forward_v I I I I #
coedge $-1 $78 $79 $80 $81 forward $31 $-1 #
face $-1 $82 $83 $19 $-1 $84 reversed single #
loop $-1 $-1 $85 $33 #
plane-surface $-1 0 -17.640676187948749 -8.2653486324655905 0 0 1 1 0 0 forward_v I I I I #
coedge $-1 $86 $87 $88 $89 reversed $34 $-1 #
face $-1 $90 $91 $20 $-1 $92 reversed single #
loop $-1 $-1 $93 $36 #
plane-surface $-1 -47.846676687325228 18.612740975237262 0 -1 0 0 0 0 1 forward_v I I I I #
coedge $-1 $94 $95 $96 $97 reversed $37 $-1 #
face $-1 $98 $99 $21 $-1 $100 reversed single #
loop $-1 $-1 $101 $39 #
plane-surface $-1 -54.910122989593191 -7.5772391482567549 2.3169508948037389 -0.6018150307709319 0 0.79863550430605224 0.79863550430605224 0 0.6018150307709319 forward_v I I I I #
coedge $-1 $102 $103 $104 $105 reversed $40 $-1 #
face $-1 $-1 $106 $22 $-1 $107 forward single #
loop $-1 $108 $109 $42 #
cone-surface $-1 -47.593732454346423 -9.0485353366300476 5.6827826581212815 0.6018150307709319 0 -0.79863550430605224 0.19965887607651306 0 0.15045375769273298 1 I I -0.70710678118654746 0.70710678118654746 0.25 forward I I I I #
loop $-1 $-1 $110 $28 #
coedge $-1 $68 $68 $111 $112 reversed $43 $-1 #
face $-1 $-1 $113 $23 $-1 $114 forward single #
loop $-1 $115 $116 $45 #
cone-surface $-1 -47.593732454346423 -6.105942959883464 5.6827826581212815 0.6018150307709319 0 -0.79863550430605224 0.19965887607651306 0 0.15045375769273298 1 I I -0.70710678118654746 0.70710678118654746 0.25 forward I I I I #
loop $-1 $-1 $117 $29 #
coedge $-1 $73 $73 $118 $119 reversed $46 $-1 #
face $-1 $120 $121 $18 $-1 $122 reversed single #
loop $-1 $-1 $123 $48 #
plane-surface $-1 0 -24.271088788103061 0 0 1 0 0 0 1 forward_v I I I I #
coedge $-1 $124 $125 $126 $127 forward $49 $-1 #
coedge $-1 $128 $51 $129 $130 forward $31 $-1 #
coedge $-1 $51 $128 $131 $132 forward $31 $-1 #
coedge $-1 $133 $134 $51 $81 reversed $135 $-1 #
edge $-1 $136 -24.271088788103061 $137 24.271088788103061 $80 $138 forward 7 unknown #
face $-1 $139 $140 $19 $-1 $141 reversed single #
loop $-1 $-1 $142 $52 #
plane-surface $-1 0 -11.010263587794437 -5.1015800136252407 0 -1 0 0 0 -1 forward_v I I I I #
coedge $-1 $143 $144 $145 $146 reversed $53 $-1 #
coedge $-1 $147 $55 $148 $149 forward $34 $-1 #
coedge $-1 $55 $147 $150 $151 reversed $34 $-1 #
coedge $-1 $152 $153 $55 $89 forward $154 $-1 #
edge $-1 $155 2.1899254938200627 $156 15.450750694128686 $88 $157 forward 7 unknown #
face $-1 $158 $159 $20 $-1 $160 reversed single #
loop $-1 $-1 $161 $56 #
plane-surface $-1 0 24.271088788103061 0 0 -1 0 0 0 -1 forward_v I I I I #
coedge $-1 $162 $163 $164 $165 forward $57 $-1 #
coedge $-1 $164 $59 $166 $167 reversed $37 $-1 #
coedge $-1 $59 $164 $168 $169 reversed $37 $-1 #
coedge $-1 $170 $171 $59 $97 forward $172 $-1 #
edge $-1 $173 -11.787999765022997 $174 11.787999765022997 $96 $175 forward 7 unknown #
face $-1 $176 $177 $21 $-1 $178 forward single #
loop $-1 $-1 $179 $60 #
plane-surface $-1 -121.00159770282855 -4.1442147087190726 90.023298425405955 0 -1 0 0.6018150307709319 0 -0.79863550430605224 forward_v I I I I #
coedge $-1 $180 $181 $182 $183 reversed $61 $-1 #
coedge $-1 $103 $63 $184 $185 reversed $40 $-1 #
coedge $-1 $63 $102 $180 $186 reversed $40 $-1 #
coedge $-1 $182 $187 $63 $105 forward $177 $-1 #
edge $-1 $188 5.590675861821083 $189 18.159181970891439 $104 $190 forward 7 unknown #
loop $-1 $-1 $111 $64 #
plane-surface $-1 -54.910122989593191 -7.5772391482567549 2.3169508948037389 -0.6018150307709319 0 0.79863550430605224 0.79863550430605224 0 0.6018150307709319 forward_v I I I I #
loop $-1 $-1 $191 $42 #
coedge $-1 $109 $109 $110 $192 reversed $65 $-1 #
coedge $-1 $110 $110 $109 $192 forward $67 $-1 #
coedge $-1 $111 $111 $68 $112 forward $106 $-1 #
edge $-1 $193 0 $193 6.2831853071796004 $111 $194 forward 7 unknown #
loop $-1 $-1 $118 $69 #
plane-surface $-1 -54.910122989593191 -7.5772391482567549 2.3169508948037389 -0.6018150307709319 0 0.79863550430605224 0.79863550430605224 0 0.6018150307709319 forward_v I I I I #
loop $-1 $-1 $195 $45 #
coedge $-1 $116 $116 $117 $196 reversed $70 $-1 #
coedge $-1 $117 $117 $116 $196 forward $72 $-1 #
coedge $-1 $118 $118 $73 $119 forward $113 $-1 #
edge $-1 $197 0 $197 6.2831853071796004 $118 $198 forward 7 unknown #
face $-1 $199 $200 $18 $-1 $201 reversed single #
loop $-1 $-1 $202 $74 #
plane-surface $-1 -54.910122989593191 0 0 1 0 0 0 0 -1 forward_v I I I I #
coedge $-1 $203 $131 $204 $205 forward $75 $-1 #
coedge $-1 $206 $77 $203 $207 forward $49 $-1 #
coedge $-1 $77 $206 $208 $209 forward $49 $-1 #
coedge $-1 $134 $133 $77 $127 reversed $135 $-1 #
edge $-1 $210 -24.271088788103061 $211 24.271088788103061 $126 $212 forward 7 unknown #
coedge $-1 $79 $78 $213 $214 forward $31 $-1 #
coedge $-1 $215 $216 $78 $130 reversed $200 $-1 #
edge $-1 $137 -54.910122989593191 $217 54.910122989593191 $129 $218 forward 7 unknown #
coedge $-1 $123 $219 $79 $132 reversed $75 $-1 #
edge $-1 $220 -54.910122989593191 $136 54.910122989593191 $131 $221 forward 7 unknown #
coedge $-1 $126 $80 $219 $222 forward $135 $-1 #
coedge $-1 $80 $126 $215 $223 reversed $135 $-1 #
loop $-1 $-1 $133 $199 #
vertex $-1 $81 $224 #
vertex $-1 $81 $225 #
straight-curve $-1 54.910122989593191 0 11.787999765022997 0 1 0 I I #
face $-1 $226 $227 $19 $-1 $228 reversed single #
loop $-1 $-1 $229 $82 #
plane-surface $-1 -54.910122989593191 0 0 1 0 0 0 0 -1 forward_v I I I I #
coedge $-1 $230 $148 $153 $231 reversed $83 $-1 #
coedge $-1 $232 $85 $233 $234 reversed $53 $-1 #
coedge $-1 $85 $232 $230 $235 forward $53 $-1 #
coedge $-1 $153 $152 $85 $146 forward $154 $-1 #
edge $-1 $236 -15.450750694128686 $237 -2.1899254938200627 $145 $238 forward 7 unknown #
coedge $-1 $87 $86 $229 $239 reversed $34 $-1 #
coedge $-1 $142 $240 $86 $149 reversed $83 $-1 #
edge $-1 $155 -54.910122989593191 $241 54.910122989593191 $148 $242 forward 7 unknown #
coedge $-1 $243 $244 $87 $151 forward $227 $-1 #
edge $-1 $156 -54.910122989593191 $245 54.910122989593191 $150 $246 forward 7 unknown #
coedge $-1 $145 $88 $244 $247 forward $154 $-1 #
coedge $-1 $88 $145 $142 $231 forward $154 $-1 #
loop $-1 $-1 $88 $226 #
vertex $-1 $89 $248 #
vertex $-1 $247 $249 #
straight-curve $-1 54.910122989593191 -8.8203380939743745 -1.937811394784891 0 -1 0 I I #
face $-1 $250 $251 $20 $-1 $252 forward single #
loop $-1 $-1 $253 $90 #
plane-surface $-1 0 0 -11.787999765022997 0 0 1 1 0 0 forward_v I I I I #
coedge $-1 $254 $255 $256 $257 forward $91 $-1 #
coedge $-1 $256 $93 $253 $258 reversed $57 $-1 #
coedge $-1 $93 $256 $259 $260 reversed $57 $-1 #
coedge $-1 $95 $94 $93 $165 reversed $37 $-1 #
edge $-1 $261 -11.787999765022997 $262 11.787999765022997 $93 $263 forward 7 unknown #
coedge $-1 $264 $253 $94 $167 forward $159 $-1 #
edge $-1 $262 22.157476768095623 $173 29.220923070363586 $166 $265 forward 7 unknown #
coedge $-1 $259 $266 $95 $169 forward $251 $-1 #
edge $-1 $174 -29.220923070363586 $261 -22.157476768095623 $168 $267 forward 7 unknown #
coedge $-1 $268 $96 $266 $269 reversed $172 $-1 #
coedge $-1 $96 $268 $264 $270 reversed $172 $-1 #
loop $-1 $-1 $96 $250 #
vertex $-1 $270 $271 #
vertex $-1 $97 $272 #
straight-curve $-1 -54.910122989593191 12.954393162371463 0 0 0 1 I I #
face $-1 $-1 $273 $21 $-1 $274 reversed single #
loop $-1 $-1 $104 $98 #
plane-surface $-1 0 0 11.787999765022997 0 0 1 1 0 0 forward_v I I I I #
coedge $-1 $275 $276 $277 $278 reversed $99 $-1 #
coedge $-1 $279 $101 $103 $186 forward $61 $-1 #
coedge $-1 $101 $279 $275 $280 forward $61 $-1 #
coedge $-1 $277 $104 $101 $183 forward $177 $-1 #
edge $-1 $189 -7.2216440136660598 $281 -0.35559513459069514 $182 $282 forward 7 unknown #
coedge $-1 $283 $284 $102 $185 forward $273 $-1 #
edge $-1 $285 -42.694698317899238 $188 -33.223649447679982 $184 $286 forward 7 unknown #
edge $-1 $189 -15.737474782055104 $285 0 $103 $287 forward 7 unknown #
coedge $-1 $104 $277 $283 $288 forward $177 $-1 #
vertex $-1 $185 $289 #
vertex $-1 $105 $290 #
straight-curve $-1 -60.500798851414274 -11.010263587794437 11.787999765022995 1 0 0 I I #
coedge $-1 $191 $191 $-1 $291 reversed $108 $-1 #
edge $-1 $292 0 $292 6.2831853071796004 $109 $293 forward 7 unknown #
vertex $-1 $112 $294 #
ellipse-curve $-1 -48.625869935058006 -9.0485353366300476 7.0524753299133707 -0.6018150307709319 0 0.79863550430605224 0.39931775215302612 0 0.30090751538546595 1 I I #
coedge $-1 $195 $195 $-1 $295 reversed $115 $-1 #
edge $-1 $296 0 $296 6.2831853071796004 $116 $297 forward 7 unknown #
vertex $-1 $119 $298 #
ellipse-curve $-1 -48.625869935058006 -6.105942959883464 7.0524753299133707 -0.6018150307709319 0 0.79863550430605224 0.39931775215302612 0 0.30090751538546595 1 I I #
face $-1 $-1 $135 $18 $-1 $299 reversed single #
loop $-1 $-1 $215 $120 #
plane-surface $-1 0 24.271088788103061 0 0 -1 0 0 0 -1 forward_v I I I I #
coedge $-1 $300 $213 $216 $301 forward $121 $-1 #
coedge $-1 $219 $123 $124 $207 reversed $75 $-1 #
coedge $-1 $213 $300 $123 $205 reversed $121 $-1 #
edge $-1 $220 -11.787999765022997 $302 11.787999765022997 $204 $303 forward 7 unknown #
coedge $-1 $125 $124 $300 $304 forward $49 $-1 #
edge $-1 $211 -54.910122989593191 $302 54.910122989593191 $203 $305 forward 7 unknown #
coedge $-1 $216 $215 $125 $209 reversed $200 $-1 #
edge $-1 $306 -54.910122989593191 $210 54.910122989593191 $208 $307 forward 7 unknown #
vertex $-1 $127 $308 #
vertex $-1 $222 $309 #
straight-curve $-1 54.910122989593191 0 -11.787999765022997 0 -1 0 I I #
coedge $-1 $202 $204 $128 $214 reversed $121 $-1 #
edge $-1 $217 -24.271088788103061 $220 24.271088788103061 $213 $310 forward 7 unknown #
coedge $-1 $208 $129 $134 $223 forward $200 $-1 #
coedge $-1 $129 $208 $202 $301 reversed $200 $-1 #
vertex $-1 $130 $311 #
straight-curve $-1 0 24.271088788103061 11.787999765022997 -1 0 0 I I #
coedge $-1 $131 $203 $133 $222 reversed $75 $-1 #
vertex $-1 $214 $312 #
straight-curve $-1 0 -24.271088788103061 11.787999765022997 1 0 0 I I #
edge $-1 $136 -11.787999765022997 $211 11.787999765022997 $133 $313 forward 7 unknown #
edge $-1 $137 -11.787999765022997 $210 11.787999765022997 $134 $314 forward 7 unknown #
point $-1 54.910122989593191 -24.271088788103061 11.787999765022997 #
point $-1 54.910122989593191 24.271088788103061 11.787999765022997 #
face $-1 $-1 $154 $19 $-1 $315 reversed single #
loop $-1 $-1 $150 $139 #
plane-surface $-1 0 -24.271088788103061 0 0 1 0 0 0 1 forward_v I I I I #
coedge $-1 $316 $317 $147 $239 forward $140 $-1 #
coedge $-1 $240 $142 $144 $235 reversed $83 $-1 #
edge $-1 $237 -5.7145586256529697 $155 0.61297861202772941 $153 $318 forward 7 unknown #
coedge $-1 $144 $143 $319 $320 reversed $53 $-1 #
coedge $-1 $244 $243 $143 $234 forward $227 $-1 #
edge $-1 $321 -54.910122989593191 $236 54.910122989593191 $233 $322 forward 7 unknown #
edge $-1 $323 -54.910122989593191 $237 54.910122989593191 $230 $324 forward 7 unknown #
vertex $-1 $234 $325 #
vertex $-1 $146 $326 #
straight-curve $-1 54.910122989593191 -8.8203380939743745 -8.2653486324655905 0 1 0 I I #
edge $-1 $245 -15.450750694128686 $241 -2.1899254938200627 $229 $327 forward 7 unknown #
coedge $-1 $148 $230 $316 $328 reversed $83 $-1 #
vertex $-1 $239 $329 #
straight-curve $-1 0 -11.010263587794437 -1.937811394784891 -1 0 0 I I #
coedge $-1 $233 $150 $317 $330 forward $227 $-1 #
coedge $-1 $150 $233 $152 $247 reversed $227 $-1 #
vertex $-1 $330 $331 #
straight-curve $-1 0 -24.271088788103061 -1.937811394784891 -1 0 0 I I #
edge $-1 $156 1.937811394784891 $236 8.2653486324655905 $152 $332 forward 7 unknown #
point $-1 54.910122989593191 -11.010263587794437 -1.937811394784891 #
point $-1 54.910122989593191 -24.271088788103061 -1.937811394784891 #
face $-1 $-1 $172 $20 $-1 $333 reversed single #
loop $-1 $-1 $259 $158 #
plane-surface $-1 0 0 11.787999765022997 0 0 1 1 0 0 forward_v I I I I #
coedge $-1 $166 $334 $162 $258 forward $159 $-1 #
coedge $-1 $335 $161 $334 $336 reversed $91 $-1 #
coedge $-1 $161 $335 $337 $338 reversed $91 $-1 #
coedge $-1 $163 $162 $161 $257 reversed $57 $-1 #
edge $-1 $339 -11.787999765022997 $340 11.787999765022997 $161 $341 forward 7 unknown #
edge $-1 $340 -14.96471830048443 $262 -3.6480226747528324 $253 $342 forward 7 unknown #
coedge $-1 $337 $168 $163 $260 forward $251 $-1 #
edge $-1 $261 3.6480226747528324 $339 14.96471830048443 $259 $343 forward 7 unknown #
vertex $-1 $169 $344 #
vertex $-1 $167 $345 #
straight-curve $-1 -47.846676687325228 12.954393162371463 0 0 0 -1 I I #
coedge $-1 $334 $166 $171 $270 forward $159 $-1 #
straight-curve $-1 -25.689199919229605 12.954393162371463 -11.787999765022997 -1 0 0 I I #
coedge $-1 $168 $337 $170 $269 forward $251 $-1 #
straight-curve $-1 -25.689199919229605 12.954393162371463 11.787999765022997 1 0 0 I I #
coedge $-1 $171 $170 $335 $346 forward $172 $-1 #
edge $-1 $347 -24.271088788103061 $174 -12.954393162371463 $170 $348 forward 7 unknown #
edge $-1 $173 12.954393162371463 $349 24.271088788103061 $171 $350 forward 7 unknown #
point $-1 -54.910122989593191 12.954393162371463 -11.787999765022997 #
point $-1 -54.910122989593191 12.954393162371463 11.787999765022997 #
loop $-1 $-1 $184 $176 #
plane-surface $-1 -54.910122989593191 0 0 1 0 0 0 0 -1 forward_v I I I I #
coedge $-1 $276 $179 $181 $280 reversed $99 $-1 #
coedge $-1 $179 $275 $351 $352 reversed $99 $-1 #
coedge $-1 $187 $182 $179 $278 forward $177 $-1 #
edge $-1 $281 -18.159181970891439 $353 -5.590675861821083 $277 $354 forward 7 unknown #
coedge $-1 $181 $180 $284 $355 reversed $61 $-1 #
edge $-1 $356 0 $281 15.737474782055104 $275 $357 forward 7 unknown #
vertex $-1 $183 $358 #
straight-curve $-1 -42.341616880522835 -3.7886195741283775 11.787999765022997 0 1 0 I I #
coedge $-1 $351 $184 $187 $288 reversed $273 $-1 #
coedge $-1 $184 $351 $279 $355 forward $273 $-1 #
vertex $-1 $185 $359 #
straight-curve $-1 -54.910122989593191 -11.010263587794437 45.011649212702977 0 0 1 I I #
straight-curve $-1 -54.910122989593191 -11.010263587794437 2.3169508948037389 -0.79863550430605224 0 -0.6018150307709319 I I #
edge $-1 $353 4.1442147087190726 $188 11.010263587794437 $283 $360 forward 7 unknown #
point $-1 -54.910122989593191 -11.010263587794437 11.787999765022997 #
point $-1 -42.341616880522835 -11.010263587794437 11.787999765022997 #
edge $-1 $361 1 $361 0 $191 $-1 forward 7 unknown #
vertex $-1 $192 $362 #
ellipse-curve $-1 -47.744186212039153 -9.0485353366300476 5.8824415341977945 -0.6018150307709319 0 0.79863550430605224 0.39931775215302612 0 0.30090751538546595 1 I I #
point $-1 -48.226552182904975 -9.0485353366300476 7.3533828452988299 #
edge $-1 $363 1 $363 0 $195 $-1 forward 7 unknown #
vertex $-1 $196 $364 #
ellipse-curve $-1 -47.744186212039153 -6.105942959883464 5.8824415341977945 -0.6018150307709319 0 0.79863550430605224 0.39931775215302612 0 0.30090751538546595 1 I I #
point $-1 -48.226552182904975 -6.105942959883464 7.3533828452988299 #
plane-surface $-1 54.910122989593191 0 0 -1 0 0 0 0 1 forward_v I I I I #
coedge $-1 $204 $202 $206 $304 reversed $121 $-1 #
edge $-1 $217 -11.787999765022997 $306 11.787999765022997 $216 $365 forward 7 unknown #
vertex $-1 $304 $366 #
straight-curve $-1 -54.910122989593191 -24.271088788103061 0 0 0 -1 I I #
edge $-1 $302 -24.271088788103061 $306 24.271088788103061 $300 $367 forward 7 unknown #
straight-curve $-1 0 -24.271088788103061 -11.787999765022997 -1 0 0 I I #
vertex $-1 $209 $368 #
straight-curve $-1 0 24.271088788103061 -11.787999765022997 1 0 0 I I #
point $-1 54.910122989593191 24.271088788103061 -11.787999765022997 #
point $-1 54.910122989593191 -24.271088788103061 -11.787999765022997 #
straight-curve $-1 -54.910122989593191 0 11.787999765022997 0 -1 0 I I #
point $-1 -54.910122989593191 24.271088788103061 11.787999765022997 #
point $-1 -54.910122989593191 -24.271088788103061 11.787999765022997 #
straight-curve $-1 54.910122989593191 -24.271088788103061 0 0 0 -1 I I #
straight-curve $-1 54.910122989593191 24.271088788103061 0 0 0 -1 I I #
plane-surface $-1 54.910122989593191 0 0 -1 0 0 0 0 1 forward_v I I I I #
coedge $-1 $319 $229 $240 $328 forward $140 $-1 #
coedge $-1 $229 $319 $243 $330 reversed $140 $-1 #
straight-curve $-1 54.910122989593191 -11.010263587794437 -2.5507900068126204 0 0 1 I I #
coedge $-1 $317 $316 $232 $320 forward $140 $-1 #
edge $-1 $323 2.1899254938200627 $321 15.450750694128686 $319 $369 forward 7 unknown #
vertex $-1 $234 $370 #
straight-curve $-1 0 -24.271088788103061 -8.2653486324655905 1 0 0 I I #
vertex $-1 $320 $371 #
straight-curve $-1 0 -11.010263587794437 -8.2653486324655905 1 0 0 I I #
point $-1 54.910122989593191 -24.271088788103061 -8.2653486324655905 #
point $-1 54.910122989593191 -11.010263587794437 -8.2653486324655905 #
straight-curve $-1 -54.910122989593191 -8.8203380939743745 -1.937811394784891 0 1 0 I I #
edge $-1 $241 -0.61297861202772941 $323 5.7145586256529697 $316 $372 forward 7 unknown #
point $-1 -54.910122989593191 -11.010263587794437 -1.937811394784891 #
edge $-1 $245 1.937811394784891 $321 8.2653486324655905 $317 $373 forward 7 unknown #
point $-1 -54.910122989593191 -24.271088788103061 -1.937811394784891 #
straight-curve $-1 54.910122989593191 -24.271088788103061 0 0 0 -1 I I #
plane-surface $-1 -54.910122989593191 0 0 1 0 0 0 0 -1 forward_v I I I I #
coedge $-1 $253 $264 $254 $336 forward $159 $-1 #
coedge $-1 $255 $254 $268 $346 reversed $91 $-1 #
edge $-1 $349 -54.910122989593191 $340 -47.846676687325228 $254 $374 forward 7 unknown #
coedge $-1 $266 $259 $255 $338 forward $251 $-1 #
edge $-1 $339 47.846676687325228 $347 54.910122989593191 $255 $375 forward 7 unknown #
vertex $-1 $338 $376 #
vertex $-1 $258 $377 #
straight-curve $-1 -47.846676687325228 24.271088788103061 0 0 0 -1 I I #
straight-curve $-1 -47.846676687325228 9.3063704876186311 -11.787999765022997 0 -1 0 I I #
straight-curve $-1 -47.846676687325228 9.3063704876186311 11.787999765022997 0 1 0 I I #
point $-1 -47.846676687325228 12.954393162371463 11.787999765022997 #
point $-1 -47.846676687325228 12.954393162371463 -11.787999765022997 #
edge $-1 $347 -11.787999765022997 $349 11.787999765022997 $335 $378 forward 7 unknown #
vertex $-1 $338 $379 #
straight-curve $-1 -54.910122989593191 0 11.787999765022997 0 -1 0 I I #
vertex $-1 $336 $380 #
straight-curve $-1 -54.910122989593191 0 -11.787999765022997 0 1 0 I I #
coedge $-1 $284 $283 $276 $352 forward $273 $-1 #
edge $-1 $353 33.223649447679982 $356 42.694698317899238 $351 $381 forward 7 unknown #
vertex $-1 $288 $382 #
straight-curve $-1 -60.500798851414274 -4.1442147087190726 11.787999765022995 -1 0 0 I I #
edge $-1 $356 0.35559513459069514 $285 7.2216440136660598 $284 $383 forward 7 unknown #
vertex $-1 $355 $384 #
straight-curve $-1 -54.910122989593191 -4.1442147087190726 2.3169508948037389 0.79863550430605224 0 0.6018150307709319 I I #
point $-1 -42.341616880522835 -4.1442147087190726 11.787999765022997 #
point $-1 -54.910122989593191 -11.010263587794437 2.3169508948037389 #
straight-curve $-1 -54.910122989593191 0 11.787999765022997 0 -1 0 I I #
vertex $-1 $291 $385 #
point $-1 -47.344868459886129 -9.0485353366300476 6.1833490495832608 #
vertex $-1 $295 $386 #
point $-1 -47.344868459886129 -6.105942959883464 6.1833490495832608 #
straight-curve $-1 -54.910122989593191 24.271088788103061 0 0 0 -1 I I #
point $-1 -54.910122989593191 -24.271088788103061 -11.787999765022997 #
straight-curve $-1 -54.910122989593191 0 -11.787999765022997 0 1 0 I I #
point $-1 -54.910122989593191 24.271088788103061 -11.787999765022997 #
straight-curve $-1 -54.910122989593191 -8.8203380939743745 -8.2653486324655905 0 -1 0 I I #
point $-1 -54.910122989593191 -24.271088788103061 -8.2653486324655905 #
point $-1 -54.910122989593191 -11.010263587794437 -8.2653486324655905 #
straight-curve $-1 -54.910122989593191 -11.010263587794437 -2.5507900068126204 0 0 -1 I I #
straight-curve $-1 -54.910122989593191 -24.271088788103061 0 0 0 -1 I I #
straight-curve $-1 0 24.271088788103061 -11.787999765022997 1 0 0 I I #
straight-curve $-1 0 24.271088788103061 11.787999765022997 -1 0 0 I I #
point $-1 -47.846676687325228 24.271088788103061 11.787999765022997 #
point $-1 -47.846676687325228 24.271088788103061 -11.787999765022997 #
straight-curve $-1 -54.910122989593191 24.271088788103061 0 0 0 -1 I I #
point $-1 -54.910122989593191 24.271088788103061 11.787999765022997 #
point $-1 -54.910122989593191 24.271088788103061 -11.787999765022997 #
straight-curve $-1 -54.910122989593191 -4.1442147087190726 45.011649212702977 0 0 -1 I I #
point $-1 -54.910122989593191 -4.1442147087190726 11.787999765022997 #
straight-curve $-1 -54.910122989593191 -3.7886195741283775 2.3169508948037372 0 -1 0 I I #
point $-1 -54.910122989593191 -4.1442147087190726 2.3169508948037389 #
point $-1 -47.443278696653692 -9.0485353366300476 5.4831237820447685 #
point $-1 -47.443278696653692 -6.105942959883464 5.4831237820447685 #
End-of-ACIS-data 