500 0 8 0           
7 Unknown 11 ACIS 5.0 NT 24 Thu Mar 25 17:00:32 1999 
-1 9.9999999999999995e-007 1e-010 
body $-1 $8 $-1 $9 #
body $-1 $10 $-1 $11 #
body $-1 $12 $-1 $13 #
body $-1 $14 $-1 $15 #
body $-1 $16 $-1 $17 #
body $-1 $18 $-1 $19 #
body $-1 $20 $-1 $21 #
body $-1 $22 $-1 $23 #
lump $-1 $-1 $24 $0 #
transform $-1 1 0 0 0 1 0 0 0 1 70.16205328531754 36.912216192193469 16.294568729368599 1 rotate no_reflect no_shear #
lump $-1 $-1 $25 $1 #
transform $-1 1 0 0 0 1 0 0 0 1 70.16205328531754 36.912216192193469 16.294568729368599 1 rotate no_reflect no_shear #
lump $-1 $-1 $26 $2 #
transform $-1 1 0 0 0 1 0 0 0 1 70.16205328531754 36.912216192193469 16.294568729368599 1 rotate no_reflect no_shear #
lump $-1 $-1 $27 $3 #
transform $-1 1 0 0 0 1 0 0 0 1 70.16205328531754 36.912216192193469 16.294568729368599 1 rotate no_reflect no_shear #
lump $-1 $-1 $28 $4 #
transform $-1 1 0 0 0 1 0 0 0 1 70.16205328531754 36.912216192193469 16.294568729368599 1 rotate no_reflect no_shear #
lump $-1 $-1 $29 $5 #
transform $-1 1 0 0 0 1 0 0 0 1 70.16205328531754 36.912216192193469 16.294568729368599 1 rotate no_reflect no_shear #
lump $-1 $-1 $30 $6 #
transform $-1 1 0 0 0 1 0 0 0 1 70.16205328531754 36.912216192193469 16.294568729368599 1 rotate no_reflect no_shear #
lump $-1 $-1 $31 $7 #
transform $-1 1 0 0 0 1 0 0 0 1 70.16205328531754 36.912216192193469 16.294568729368599 1 rotate no_reflect no_shear #
shell $-1 $-1 $-1 $32 $-1 $8 #
shell $-1 $-1 $-1 $33 $-1 $10 #
shell $-1 $-1 $-1 $34 $-1 $12 #
shell $-1 $-1 $-1 $35 $-1 $14 #
shell $-1 $-1 $-1 $36 $-1 $16 #
shell $-1 $-1 $-1 $37 $-1 $18 #
shell $-1 $-1 $-1 $38 $-1 $20 #
shell $-1 $-1 $-1 $39 $-1 $22 #
face $-1 $40 $41 $24 $-1 $42 forward single #
face $-1 $43 $44 $25 $-1 $45 reversed single #
face $-1 $46 $47 $26 $-1 $48 reversed single #
face $-1 $49 $50 $27 $-1 $51 forward single #
face $-1 $52 $53 $28 $-1 $54 reversed single #
face $-1 $55 $56 $29 $-1 $57 forward single #
face $-1 $58 $59 $30 $-1 $60 forward single #
face $-1 $61 $62 $31 $-1 $63 forward single #
face $-1 $64 $65 $24 $-1 $66 reversed single #
loop $-1 $-1 $67 $32 #
plane-surface $-1 0 0 16.294568729368599 0 0 1 1 0 0 forward_v I I I I #
face $-1 $68 $69 $25 $-1 $70 reversed single #
loop $-1 $-1 $71 $33 #
plane-surface $-1 0 -27.958025699036984 6.9470847239380902 0 0 1 1 0 0 forward_v I I I I #
face $-1 $72 $73 $26 $-1 $74 reversed single #
loop $-1 $-1 $75 $34 #
plane-surface $-1 -187.84775256254576 3.2810328390975378 78.786118125700511 0 1 0 -0.83867057594974714 0 0.54463902268945019 forward_v I I I I #
face $-1 $76 $77 $27 $-1 $78 forward single #
loop $-1 $79 $80 $35 #
cone-surface $-1 -64.556882440596226 11.106303430381487 8.6255968721134639 0.83867057594974714 0 -0.54463902268945019 0.54463902268945019 0 0.83867057594974714 1 I I 0 1 1 forward I I I I #
face $-1 $81 $82 $28 $-1 $83 reversed single #
loop $-1 $-1 $84 $36 #
plane-surface $-1 22.153076883398754 23.562638482282338 198.86179034524454 0 -1 0 -0.51503808176128008 0 -0.85716729658548041 forward_v I I I I #
face $-1 $85 $86 $29 $-1 $87 forward single #
loop $-1 $88 $89 $37 #
cone-surface $-1 60.890448243267151 10.956709396543282 9.7010094747236657 -0.51503808176128008 0 -0.85716729658548041 0.85716729658548041 0 -0.51503808176128008 1 I I 0 1 1 forward I I I I #
face $-1 $90 $91 $30 $-1 $92 forward single #
loop $-1 $93 $94 $38 #
cone-surface $-1 60.890448243267151 15.683932803695427 9.7010094747236657 -0.51503808176128008 0 -0.85716729658548041 0.85716729658548041 0 -0.51503808176128008 1 I I 0 1 1 forward I I I I #
face $-1 $95 $96 $31 $-1 $97 forward single #
loop $-1 $98 $99 $39 #
cone-surface $-1 60.890448243267151 20.411156210847572 9.7010094747236657 -0.51503808176128008 0 -0.85716729658548041 0.85716729658548041 0 -0.51503808176128008 1 I I 0 1 1 forward I I I I #
face $-1 $100 $101 $24 $-1 $102 reversed single #
loop $-1 $-1 $103 $40 #
plane-surface $-1 0 0 -16.294568729368599 0 0 1 1 0 0 forward_v I I I I #
coedge $-1 $104 $105 $106 $107 forward $41 $-1 #
face $-1 $108 $109 $25 $-1 $110 reversed single #
loop $-1 $-1 $111 $43 #
plane-surface $-1 0 -19.003835205880499 11.620826726653345 0 -1 0 0 0 -1 forward_v I I I I #
coedge $-1 $112 $113 $114 $115 reversed $44 $-1 #
face $-1 $116 $117 $26 $-1 $118 reversed single #
loop $-1 $-1 $119 $46 #
plane-surface $-1 -70.16205328531754 11.106303430381487 2.3601338632995663 -0.83867057594974714 0 0.54463902268945019 0.54463902268945019 0 0.83867057594974714 forward_v I I I I #
coedge $-1 $120 $121 $122 $123 reversed $47 $-1 #
face $-1 $-1 $124 $27 $-1 $125 forward single #
loop $-1 $126 $127 $49 #
cone-surface $-1 -63.056940066793828 11.106303430381487 7.6515229365481119 0.83867057594974714 0 -0.54463902268945019 0.2723195113447251 0 0.41933528797487357 1 I I -0.70710678118654813 0.70710678118654691 0.5 forward I I I I #
loop $-1 $-1 $128 $35 #
coedge $-1 $80 $80 $129 $130 reversed $50 $-1 #
face $-1 $131 $132 $28 $-1 $133 reversed single #
loop $-1 $-1 $134 $52 #
plane-surface $-1 -50.119181789606571 15.683932803695427 78.580555270320417 0.51503808176128008 0 0.85716729658548041 0.85716729658548041 0 -0.51503808176128008 forward_v I I I I #
coedge $-1 $135 $136 $137 $138 reversed $53 $-1 #
face $-1 $-1 $139 $29 $-1 $140 forward single #
loop $-1 $141 $142 $55 #
cone-surface $-1 59.671297917157034 10.956709396543282 7.6720026378127599 -0.51503808176128008 0 -0.85716729658548041 0.4285836482927402 0 -0.25751904088064004 1 I I -0.70710678118654746 0.70710678118654746 0.5 forward I I I I #
loop $-1 $-1 $143 $37 #
coedge $-1 $89 $89 $144 $145 reversed $56 $-1 #
face $-1 $-1 $146 $30 $-1 $147 forward single #
loop $-1 $148 $149 $58 #
cone-surface $-1 59.671297917157034 15.683932803695427 7.6720026378127599 -0.51503808176128008 0 -0.85716729658548041 0.4285836482927402 0 -0.25751904088064004 1 I I -0.70710678118654746 0.70710678118654746 0.5 forward I I I I #
loop $-1 $-1 $150 $38 #
coedge $-1 $94 $94 $151 $152 reversed $59 $-1 #
face $-1 $-1 $153 $31 $-1 $154 forward single #
loop $-1 $155 $156 $61 #
cone-surface $-1 59.671297917157034 20.411156210847572 7.6720026378127599 -0.51503808176128008 0 -0.85716729658548041 0.4285836482927402 0 -0.25751904088064004 1 I I -0.70710678118654746 0.70710678118654746 0.5 forward I I I I #
loop $-1 $-1 $157 $39 #
coedge $-1 $99 $99 $158 $159 reversed $62 $-1 #
face $-1 $160 $161 $24 $-1 $162 reversed single #
loop $-1 $-1 $163 $64 #
plane-surface $-1 0 -36.912216192193469 0 0 1 0 0 0 1 forward_v I I I I #
coedge $-1 $164 $165 $166 $167 forward $65 $-1 #
coedge $-1 $168 $67 $169 $170 forward $41 $-1 #
coedge $-1 $67 $168 $171 $172 forward $41 $-1 #
coedge $-1 $173 $174 $67 $107 reversed $175 $-1 #
edge $-1 $176 -36.912216192193469 $177 36.912216192193469 $106 $178 forward 7 unknown #
face $-1 $179 $180 $25 $-1 $181 reversed single #
loop $-1 $-1 $182 $68 #
plane-surface $-1 -70.16205328531754 0 0 1 0 0 0 0 -1 forward_v I I I I #
coedge $-1 $183 $184 $185 $186 reversed $69 $-1 #
coedge $-1 $187 $71 $188 $189 reversed $44 $-1 #
coedge $-1 $71 $187 $183 $190 forward $44 $-1 #
coedge $-1 $185 $191 $71 $115 forward $192 $-1 #
edge $-1 $193 -22.933203342674979 $194 -5.0248223563620069 $114 $195 forward 7 unknown #
face $-1 $196 $197 $26 $-1 $198 forward single #
loop $-1 $-1 $199 $72 #
plane-surface $-1 -187.84775256254576 18.931574021665437 78.786118125700511 0 -1 0 0.83867057594974714 0 -0.54463902268945019 forward_v I I I I #
coedge $-1 $200 $201 $202 $203 reversed $73 $-1 #
coedge $-1 $121 $75 $204 $205 reversed $47 $-1 #
coedge $-1 $75 $120 $200 $206 reversed $47 $-1 #
coedge $-1 $202 $207 $75 $123 forward $197 $-1 #
edge $-1 $208 23.761822995955342 $209 32.810950513742945 $122 $210 forward 7 unknown #
loop $-1 $-1 $129 $76 #
plane-surface $-1 -70.16205328531754 11.106303430381487 2.3601338632995663 -0.83867057594974714 0 0.54463902268945019 0.54463902268945019 0 0.83867057594974714 forward_v I I I I #
loop $-1 $-1 $211 $49 #
coedge $-1 $127 $127 $128 $212 reversed $77 $-1 #
coedge $-1 $128 $128 $127 $212 forward $79 $-1 #
coedge $-1 $129 $129 $80 $130 forward $124 $-1 #
edge $-1 $213 0 $213 6.2831853071796004 $129 $214 forward 7 unknown #
face $-1 $215 $216 $28 $-1 $217 reversed single #
loop $-1 $-1 $218 $81 #
plane-surface $-1 22.153076883398754 7.8052271251085159 198.86179034524454 0 1 0 0.51503808176128008 0 0.85716729658548041 forward_v I I I I #
coedge $-1 $219 $220 $221 $222 reversed $82 $-1 #
coedge $-1 $136 $84 $223 $224 reversed $53 $-1 #
coedge $-1 $84 $135 $219 $225 reversed $53 $-1 #
coedge $-1 $221 $226 $84 $138 forward $227 $-1 #
edge $-1 $228 -59.085514843618164 $229 -42.465567329976359 $137 $230 forward 7 unknown #
loop $-1 $-1 $144 $85 #
plane-surface $-1 -50.119181789606571 15.683932803695427 78.580555270320417 0.51503808176128008 0 0.85716729658548041 0.85716729658548041 0 -0.51503808176128008 forward_v I I I I #
loop $-1 $-1 $231 $55 #
coedge $-1 $142 $142 $143 $232 reversed $86 $-1 #
coedge $-1 $143 $143 $142 $232 forward $88 $-1 #
coedge $-1 $144 $144 $89 $145 forward $139 $-1 #
edge $-1 $233 0 $233 6.2831853071796004 $144 $234 forward 7 unknown #
loop $-1 $-1 $151 $90 #
plane-surface $-1 -50.119181789606571 15.683932803695427 78.580555270320417 0.51503808176128008 0 0.85716729658548041 0.85716729658548041 0 -0.51503808176128008 forward_v I I I I #
loop $-1 $-1 $235 $58 #
coedge $-1 $149 $149 $150 $236 reversed $91 $-1 #
coedge $-1 $150 $150 $149 $236 forward $93 $-1 #
coedge $-1 $151 $151 $94 $152 forward $146 $-1 #
edge $-1 $237 0 $237 6.2831853071796004 $151 $238 forward 7 unknown #
loop $-1 $-1 $158 $95 #
plane-surface $-1 -50.119181789606571 15.683932803695427 78.580555270320417 0.51503808176128008 0 0.85716729658548041 0.85716729658548041 0 -0.51503808176128008 forward_v I I I I #
loop $-1 $-1 $239 $61 #
coedge $-1 $156 $156 $157 $240 reversed $96 $-1 #
coedge $-1 $157 $157 $156 $240 forward $98 $-1 #
coedge $-1 $158 $158 $99 $159 forward $153 $-1 #
edge $-1 $241 0 $241 6.2831853071796004 $158 $242 forward 7 unknown #
face $-1 $243 $244 $24 $-1 $245 reversed single #
loop $-1 $-1 $246 $100 #
plane-surface $-1 -70.16205328531754 0 0 1 0 0 0 0 -1 forward_v I I I I #
coedge $-1 $247 $171 $248 $249 forward $101 $-1 #
coedge $-1 $250 $103 $247 $251 forward $65 $-1 #
coedge $-1 $103 $250 $252 $253 forward $65 $-1 #
coedge $-1 $174 $173 $103 $167 reversed $175 $-1 #
edge $-1 $254 -36.912216192193469 $255 36.912216192193469 $166 $256 forward 7 unknown #
coedge $-1 $105 $104 $257 $258 forward $41 $-1 #
coedge $-1 $259 $260 $104 $170 reversed $244 $-1 #
edge $-1 $177 -70.16205328531754 $261 70.16205328531754 $169 $262 forward 7 unknown #
coedge $-1 $163 $263 $105 $172 reversed $101 $-1 #
edge $-1 $264 -70.16205328531754 $176 70.16205328531754 $171 $265 forward 7 unknown #
coedge $-1 $166 $106 $263 $266 forward $175 $-1 #
coedge $-1 $106 $166 $259 $267 reversed $175 $-1 #
loop $-1 $-1 $173 $243 #
vertex $-1 $107 $268 #
vertex $-1 $107 $269 #
straight-curve $-1 70.16205328531754 0 16.294568729368599 0 1 0 I I #
face $-1 $270 $271 $25 $-1 $272 forward single #
loop $-1 $-1 $188 $108 #
plane-surface $-1 0 -36.912216192193469 0 0 1 0 0 0 1 forward_v I I I I #
coedge $-1 $273 $274 $275 $276 forward $109 $-1 #
coedge $-1 $275 $111 $113 $190 reversed $69 $-1 #
coedge $-1 $111 $275 $277 $278 reversed $69 $-1 #
coedge $-1 $279 $114 $111 $186 forward $192 $-1 #
edge $-1 $194 1.1366713606114178 $280 10.484155366041927 $185 $281 forward 7 unknown #
coedge $-1 $113 $112 $273 $282 reversed $44 $-1 #
coedge $-1 $283 $284 $112 $189 forward $180 $-1 #
edge $-1 $285 -70.16205328531754 $193 70.16205328531754 $188 $286 forward 7 unknown #
edge $-1 $287 -70.16205328531754 $194 70.16205328531754 $183 $288 forward 7 unknown #
coedge $-1 $114 $279 $283 $289 forward $192 $-1 #
loop $-1 $-1 $185 $270 #
vertex $-1 $189 $290 #
vertex $-1 $115 $291 #
straight-curve $-1 70.16205328531754 -13.979012849518492 6.9470847239380902 0 1 0 I I #
face $-1 $-1 $292 $26 $-1 $293 reversed single #
loop $-1 $-1 $122 $116 #
plane-surface $-1 0 0 16.294568729368599 0 0 1 1 0 0 forward_v I I I I #
coedge $-1 $294 $295 $296 $297 reversed $117 $-1 #
coedge $-1 $298 $119 $121 $206 forward $73 $-1 #
coedge $-1 $119 $298 $294 $299 forward $73 $-1 #
coedge $-1 $296 $122 $119 $203 forward $197 $-1 #
edge $-1 $209 -2.2721188760932058 $300 13.378422306474693 $202 $301 forward 7 unknown #
coedge $-1 $302 $303 $120 $205 forward $292 $-1 #
edge $-1 $304 -37.032925199550689 $208 -23.098490333481656 $204 $305 forward 7 unknown #
edge $-1 $209 -16.614908482140404 $304 0 $121 $306 forward 7 unknown #
coedge $-1 $122 $296 $302 $307 forward $197 $-1 #
vertex $-1 $205 $308 #
vertex $-1 $123 $309 #
straight-curve $-1 -93.923876281272882 3.2810328390975378 16.294568729368599 1 0 0 I I #
coedge $-1 $211 $211 $-1 $310 reversed $126 $-1 #
edge $-1 $311 0 $311 6.2831853071796004 $127 $312 forward 7 unknown #
vertex $-1 $130 $313 #
ellipse-curve $-1 -65.637489526423735 11.106303430381487 9.3273512963340828 -0.83867057594974714 0 0.54463902268945019 0.54463902268945019 0 0.83867057594974714 1 I I #
face $-1 $-1 $227 $28 $-1 $314 forward single #
loop $-1 $-1 $315 $131 #
plane-surface $-1 70.16205328531754 0 0 -1 0 0 0 0 1 forward_v I I I I #
coedge $-1 $316 $317 $318 $319 reversed $132 $-1 #
coedge $-1 $320 $134 $136 $225 forward $82 $-1 #
coedge $-1 $134 $320 $316 $321 forward $82 $-1 #
coedge $-1 $318 $137 $134 $222 forward $227 $-1 #
edge $-1 $229 -15.720672080434625 $322 0.036739276739197635 $221 $323 forward 7 unknown #
coedge $-1 $324 $325 $135 $224 forward $216 $-1 #
edge $-1 $326 -93.12259857530718 $228 -83.136326443253665 $223 $327 forward 7 unknown #
edge $-1 $229 120.93472064813517 $326 140.32410657063508 $136 $328 forward 7 unknown #
coedge $-1 $137 $318 $324 $329 forward $227 $-1 #
loop $-1 $-1 $318 $215 #
vertex $-1 $224 $330 #
vertex $-1 $138 $331 #
straight-curve $-1 11.076538441699377 23.562638482282338 16.294568729368592 -1 0 0 I I #
coedge $-1 $231 $231 $-1 $332 reversed $141 $-1 #
edge $-1 $333 0 $333 6.2831853071796004 $142 $334 forward 7 unknown #
vertex $-1 $145 $335 #
ellipse-curve $-1 61.852079528496638 10.956709396543282 11.301432663341846 0.51503808176128008 0 0.85716729658548041 0.85716729658548041 0 -0.51503808176128008 1 I I #
coedge $-1 $235 $235 $-1 $336 reversed $148 $-1 #
edge $-1 $337 0 $337 6.2831853071796004 $149 $338 forward 7 unknown #
vertex $-1 $152 $339 #
ellipse-curve $-1 61.852079528496638 15.683932803695427 11.301432663341846 0.51503808176128008 0 0.85716729658548041 0.85716729658548041 0 -0.51503808176128008 1 I I #
coedge $-1 $239 $239 $-1 $340 reversed $155 $-1 #
edge $-1 $341 0 $341 6.2831853071796004 $156 $342 forward 7 unknown #
vertex $-1 $159 $343 #
ellipse-curve $-1 61.852079528496638 20.411156210847572 11.301432663341846 0.51503808176128008 0 0.85716729658548041 0.85716729658548041 0 -0.51503808176128008 1 I I #
face $-1 $-1 $175 $24 $-1 $344 reversed single #
loop $-1 $-1 $259 $160 #
plane-surface $-1 0 36.912216192193469 0 0 -1 0 0 0 -1 forward_v I I I I #
coedge $-1 $345 $257 $260 $346 forward $161 $-1 #
coedge $-1 $263 $163 $164 $251 reversed $101 $-1 #
coedge $-1 $257 $345 $163 $249 reversed $161 $-1 #
edge $-1 $264 -16.294568729368599 $347 16.294568729368599 $248 $348 forward 7 unknown #
coedge $-1 $165 $164 $345 $349 forward $65 $-1 #
edge $-1 $255 -70.16205328531754 $347 70.16205328531754 $247 $350 forward 7 unknown #
coedge $-1 $260 $259 $165 $253 reversed $244 $-1 #
edge $-1 $351 -70.16205328531754 $254 70.16205328531754 $252 $352 forward 7 unknown #
vertex $-1 $167 $353 #
vertex $-1 $266 $354 #
straight-curve $-1 70.16205328531754 0 -16.294568729368599 0 -1 0 I I #
coedge $-1 $246 $248 $168 $258 reversed $161 $-1 #
edge $-1 $261 -36.912216192193469 $264 36.912216192193469 $257 $355 forward 7 unknown #
coedge $-1 $252 $169 $174 $267 forward $244 $-1 #
coedge $-1 $169 $252 $246 $346 reversed $244 $-1 #
vertex $-1 $170 $356 #
straight-curve $-1 0 36.912216192193469 16.294568729368599 -1 0 0 I I #
coedge $-1 $171 $247 $173 $266 reversed $101 $-1 #
vertex $-1 $258 $357 #
straight-curve $-1 0 -36.912216192193469 16.294568729368599 1 0 0 I I #
edge $-1 $176 -16.294568729368599 $255 16.294568729368599 $173 $358 forward 7 unknown #
edge $-1 $177 -16.294568729368599 $254 16.294568729368599 $174 $359 forward 7 unknown #
point $-1 70.16205328531754 -36.912216192193469 16.294568729368599 #
point $-1 70.16205328531754 36.912216192193469 16.294568729368599 #
face $-1 $-1 $192 $25 $-1 $360 reversed single #
loop $-1 $-1 $277 $179 #
plane-surface $-1 0 0 16.294568729368599 0 0 1 1 0 0 forward_v I I I I #
coedge $-1 $361 $182 $187 $282 forward $109 $-1 #
coedge $-1 $182 $361 $362 $363 reversed $109 $-1 #
coedge $-1 $184 $183 $182 $276 reversed $69 $-1 #
edge $-1 $364 -10.484155366041927 $287 -1.1366713606114178 $182 $365 forward 7 unknown #
coedge $-1 $362 $366 $184 $278 forward $271 $-1 #
edge $-1 $280 -70.16205328531754 $364 70.16205328531754 $277 $367 forward 7 unknown #
coedge $-1 $191 $185 $366 $368 reversed $192 $-1 #
vertex $-1 $186 $369 #
straight-curve $-1 70.16205328531754 -19.003835205880499 5.8104133633266724 0 0 1 I I #
edge $-1 $287 5.0248223563620069 $285 22.933203342674979 $273 $370 forward 7 unknown #
coedge $-1 $371 $188 $191 $289 reversed $180 $-1 #
coedge $-1 $188 $371 $361 $372 forward $180 $-1 #
vertex $-1 $189 $373 #
straight-curve $-1 0 -36.912216192193469 6.9470847239380902 1 0 0 I I #
vertex $-1 $282 $374 #
straight-curve $-1 0 -19.003835205880499 6.9470847239380902 1 0 0 I I #
edge $-1 $375 -16.294568729368599 $193 -6.9470847239380902 $191 $376 forward 7 unknown #
point $-1 70.16205328531754 -36.912216192193469 6.9470847239380902 #
point $-1 70.16205328531754 -19.003835205880499 6.9470847239380902 #
loop $-1 $-1 $204 $196 #
plane-surface $-1 -70.16205328531754 0 0 1 0 0 0 0 -1 forward_v I I I I #
coedge $-1 $295 $199 $201 $299 reversed $117 $-1 #
coedge $-1 $199 $294 $377 $378 reversed $117 $-1 #
coedge $-1 $207 $202 $199 $297 forward $197 $-1 #
edge $-1 $300 -32.810950513742945 $379 -23.761822995955342 $296 $380 forward 7 unknown #
coedge $-1 $201 $200 $303 $381 reversed $73 $-1 #
edge $-1 $382 0 $300 16.614908482140404 $294 $383 forward 7 unknown #
vertex $-1 $203 $384 #
straight-curve $-1 -61.112925767529937 5.5531517151907437 16.294568729368599 0 1 0 I I #
coedge $-1 $377 $204 $207 $307 reversed $292 $-1 #
coedge $-1 $204 $377 $298 $381 forward $292 $-1 #
vertex $-1 $205 $385 #
straight-curve $-1 -70.16205328531754 3.2810328390975378 39.393059062850256 0 0 1 I I #
straight-curve $-1 -70.16205328531754 3.2810328390975378 2.3601338632995663 -0.54463902268945019 0 -0.83867057594974714 I I #
edge $-1 $379 -18.931574021665437 $208 -3.2810328390975378 $302 $386 forward 7 unknown #
point $-1 -70.16205328531754 3.2810328390975378 16.294568729368599 #
point $-1 -61.112925767529937 3.2810328390975378 16.294568729368599 #
edge $-1 $387 1 $387 0 $211 $-1 forward 7 unknown #
vertex $-1 $212 $388 #
ellipse-curve $-1 -63.476275354768703 11.106303430381487 7.9238424478928362 -0.83867057594974714 0 0.54463902268945019 0.54463902268945019 0 0.83867057594974714 1 I I #
point $-1 -65.092850503734297 11.106303430381487 10.166021872283837 #
plane-surface $-1 0 0 16.294568729368599 0 0 1 1 0 0 forward_v I I I I #
coedge $-1 $325 $324 $317 $389 forward $216 $-1 #
coedge $-1 $317 $218 $220 $321 reversed $132 $-1 #
coedge $-1 $218 $316 $315 $389 reversed $132 $-1 #
coedge $-1 $226 $221 $218 $319 forward $227 $-1 #
edge $-1 $322 42.465567329976359 $390 59.085514843618164 $318 $391 forward 7 unknown #
coedge $-1 $220 $219 $325 $392 reversed $82 $-1 #
edge $-1 $393 -140.32410657063508 $322 -120.93472064813517 $316 $394 forward 7 unknown #
vertex $-1 $222 $395 #
straight-curve $-1 53.542105771675743 7.8419664018477135 16.294568729368599 0 -1 0 I I #
coedge $-1 $315 $223 $226 $329 reversed $216 $-1 #
coedge $-1 $223 $315 $320 $392 forward $216 $-1 #
vertex $-1 $224 $396 #
straight-curve $-1 70.16205328531754 23.562638482282338 99.430895172622272 0 0 1 I I #
straight-curve $-1 -50.119181789606571 23.562638482282338 78.580555270320417 0.85716729658548041 0 -0.51503808176128008 I I #
edge $-1 $390 7.8052271251085159 $228 23.562638482282338 $324 $397 forward 7 unknown #
point $-1 70.16205328531754 23.562638482282338 16.294568729368599 #
point $-1 53.542105771675736 23.562638482282338 16.294568729368606 #
edge $-1 $398 1 $398 0 $231 $-1 forward 7 unknown #
vertex $-1 $232 $399 #
ellipse-curve $-1 59.928816958037672 10.956709396543282 8.1005862861055 0.51503808176128008 0 0.85716729658548041 0.85716729658548041 0 -0.51503808176128008 1 I I #
point $-1 62.709246825082104 10.956709396543282 10.786394581580549 #
edge $-1 $400 1 $400 0 $235 $-1 forward 7 unknown #
vertex $-1 $236 $401 #
ellipse-curve $-1 59.928816958037672 15.683932803695427 8.1005862861055 0.51503808176128008 0 0.85716729658548041 0.85716729658548041 0 -0.51503808176128008 1 I I #
point $-1 62.709246825082104 15.683932803695427 10.786394581580549 #
edge $-1 $402 1 $402 0 $239 $-1 forward 7 unknown #
vertex $-1 $240 $403 #
ellipse-curve $-1 59.928816958037672 20.411156210847572 8.1005862861055 0.51503808176128008 0 0.85716729658548041 0.85716729658548041 0 -0.51503808176128008 1 I I #
point $-1 62.709246825082104 20.411156210847572 10.786394581580549 #
plane-surface $-1 70.16205328531754 0 0 -1 0 0 0 0 1 forward_v I I I I #
coedge $-1 $248 $246 $250 $349 reversed $161 $-1 #
edge $-1 $261 -16.294568729368599 $351 16.294568729368599 $260 $404 forward 7 unknown #
vertex $-1 $349 $405 #
straight-curve $-1 -70.16205328531754 -36.912216192193469 0 0 0 -1 I I #
edge $-1 $347 -36.912216192193469 $351 36.912216192193469 $345 $406 forward 7 unknown #
straight-curve $-1 0 -36.912216192193469 -16.294568729368599 -1 0 0 I I #
vertex $-1 $253 $407 #
straight-curve $-1 0 36.912216192193469 -16.294568729368599 1 0 0 I I #
point $-1 70.16205328531754 36.912216192193469 -16.294568729368599 #
point $-1 70.16205328531754 -36.912216192193469 -16.294568729368599 #
straight-curve $-1 -70.16205328531754 0 16.294568729368599 0 -1 0 I I #
point $-1 -70.16205328531754 36.912216192193469 16.294568729368599 #
point $-1 -70.16205328531754 -36.912216192193469 16.294568729368599 #
straight-curve $-1 70.16205328531754 -36.912216192193469 0 0 0 -1 I I #
straight-curve $-1 70.16205328531754 36.912216192193469 0 0 0 -1 I I #
plane-surface $-1 70.16205328531754 0 0 -1 0 0 0 0 1 forward_v I I I I #
coedge $-1 $274 $273 $284 $372 reversed $109 $-1 #
coedge $-1 $408 $277 $274 $363 forward $271 $-1 #
edge $-1 $364 19.003835205880499 $409 36.912216192193469 $274 $410 forward 7 unknown #
vertex $-1 $363 $411 #
straight-curve $-1 -70.16205328531754 -19.003835205880499 5.8104133633266724 0 0 -1 I I #
coedge $-1 $277 $408 $279 $368 forward $271 $-1 #
straight-curve $-1 0 -19.003835205880499 16.294568729368599 -1 0 0 I I #
edge $-1 $375 -36.912216192193469 $280 -19.003835205880499 $279 $412 forward 7 unknown #
point $-1 70.16205328531754 -19.003835205880499 16.294568729368599 #
straight-curve $-1 -70.16205328531754 -13.979012849518492 6.9470847239380902 0 -1 0 I I #
coedge $-1 $284 $283 $408 $413 reversed $180 $-1 #
edge $-1 $409 -16.294568729368599 $285 -6.9470847239380902 $361 $414 forward 7 unknown #
point $-1 -70.16205328531754 -36.912216192193469 6.9470847239380902 #
point $-1 -70.16205328531754 -19.003835205880499 6.9470847239380902 #
vertex $-1 $368 $415 #
straight-curve $-1 70.16205328531754 -36.912216192193469 0 0 0 -1 I I #
coedge $-1 $303 $302 $295 $378 forward $292 $-1 #
edge $-1 $379 23.098490333481656 $382 37.032925199550689 $377 $416 forward 7 unknown #
vertex $-1 $307 $417 #
straight-curve $-1 -93.923876281272882 18.931574021665437 16.294568729368599 -1 0 0 I I #
edge $-1 $382 -13.378422306474693 $304 2.2721188760932058 $303 $418 forward 7 unknown #
vertex $-1 $381 $419 #
straight-curve $-1 -70.16205328531754 18.931574021665437 2.3601338632995663 0.54463902268945019 0 0.83867057594974714 I I #
point $-1 -61.112925767529937 18.931574021665437 16.294568729368599 #
point $-1 -70.16205328531754 3.2810328390975378 2.3601338632995663 #
straight-curve $-1 -70.16205328531754 0 16.294568729368599 0 -1 0 I I #
vertex $-1 $310 $420 #
point $-1 -62.93163633207925 11.106303430381487 8.7625130238425832 #
edge $-1 $390 83.136326443253665 $393 93.12259857530718 $315 $421 forward 7 unknown #
vertex $-1 $329 $422 #
straight-curve $-1 11.076538441699377 7.8052271251085159 16.294568729368592 1 0 0 I I #
edge $-1 $393 -0.036739276739197635 $326 15.720672080434625 $325 $423 forward 7 unknown #
vertex $-1 $392 $424 #
straight-curve $-1 -50.119181789606571 7.8052271251085159 78.580555270320417 -0.85716729658548041 0 0.51503808176128008 I I #
point $-1 53.542105771675736 7.8052271251085159 16.294568729368606 #
point $-1 70.162053285317555 23.562638482282338 6.308296597315092 #
straight-curve $-1 70.16205328531754 0 16.294568729368599 0 1 0 I I #
vertex $-1 $332 $425 #
point $-1 60.785984254623152 10.956709396543282 7.5855482043442199 #
vertex $-1 $336 $426 #
point $-1 60.785984254623152 15.683932803695427 7.5855482043442199 #
vertex $-1 $340 $427 #
point $-1 60.785984254623152 20.411156210847572 7.5855482043442199 #
straight-curve $-1 -70.16205328531754 36.912216192193469 0 0 0 -1 I I #
point $-1 -70.16205328531754 -36.912216192193469 -16.294568729368599 #
straight-curve $-1 -70.16205328531754 0 -16.294568729368599 0 1 0 I I #
point $-1 -70.16205328531754 36.912216192193469 -16.294568729368599 #
coedge $-1 $366 $362 $371 $413 forward $271 $-1 #
vertex $-1 $363 $428 #
straight-curve $-1 -70.16205328531754 0 16.294568729368599 0 -1 0 I I #
point $-1 -70.16205328531754 -19.003835205880499 16.294568729368599 #
straight-curve $-1 70.16205328531754 0 16.294568729368599 0 1 0 I I #
edge $-1 $409 -70.16205328531754 $375 70.16205328531754 $371 $429 forward 7 unknown #
straight-curve $-1 -70.16205328531754 -36.912216192193469 0 0 0 -1 I I #
point $-1 70.16205328531754 -36.912216192193469 16.294568729368599 #
straight-curve $-1 -70.16205328531754 18.931574021665437 39.393059062850256 0 0 -1 I I #
point $-1 -70.16205328531754 18.931574021665437 16.294568729368599 #
straight-curve $-1 -70.16205328531754 5.5531517151907437 2.3601338632995756 0 -1 0 I I #
point $-1 -70.16205328531754 18.931574021665437 2.3601338632995663 #
point $-1 -62.637604778818954 11.106303430381487 7.3792034252033876 #
straight-curve $-1 70.16205328531754 7.8052271251085159 99.430895172622272 0 0 -1 I I #
point $-1 70.16205328531754 7.8052271251085159 16.294568729368599 #
straight-curve $-1 70.16205328531754 7.8419664018477135 6.3082965973150991 0 1 0 I I #
point $-1 70.162053285317555 7.8052271251085159 6.308296597315092 #
point $-1 59.413778876276396 10.956709396543282 7.2434189895200198 #
point $-1 59.413778876276396 15.683932803695427 7.2434189895200198 #
point $-1 59.413778876276396 20.411156210847572 7.2434189895200198 #
point $-1 -70.16205328531754 -36.912216192193469 16.294568729368599 #
straight-curve $-1 0 -36.912216192193469 16.294568729368599 1 0 0 I I #
End-of-ACIS-data 