500 0 12 0           
7 Unknown 11 ACIS 5.0 NT 24 Thu Mar 25 22:45:49 1999 
-1 9.9999999999999995e-007 1e-010 
body $-1 $12 $-1 $13 #
body $-1 $14 $-1 $15 #
body $-1 $16 $-1 $17 #
body $-1 $18 $-1 $19 #
body $-1 $20 $-1 $21 #
body $-1 $22 $-1 $23 #
body $-1 $24 $-1 $25 #
body $-1 $26 $-1 $27 #
body $-1 $28 $-1 $29 #
body $-1 $30 $-1 $31 #
body $-1 $32 $-1 $33 #
body $-1 $34 $-1 $35 #
lump $-1 $-1 $36 $0 #
transform $-1 1 0 0 0 1 0 0 0 1 48.507339701528977 20.614472085077406 7.4176742795832737 1 rotate no_reflect no_shear #
lump $-1 $-1 $37 $1 #
transform $-1 1 0 0 0 1 0 0 0 1 48.507339701528977 20.614472085077406 7.4176742795832737 1 rotate no_reflect no_shear #
lump $-1 $-1 $38 $2 #
transform $-1 1 0 0 0 1 0 0 0 1 48.507339701528977 20.614472085077406 7.4176742795832737 1 rotate no_reflect no_shear #
lump $-1 $-1 $39 $3 #
transform $-1 1 0 0 0 1 0 0 0 1 48.507339701528977 20.614472085077406 7.4176742795832737 1 rotate no_reflect no_shear #
lump $-1 $-1 $40 $4 #
transform $-1 1 0 0 0 1 0 0 0 1 48.507339701528977 20.614472085077406 7.4176742795832737 1 rotate no_reflect no_shear #
lump $-1 $-1 $41 $5 #
transform $-1 1 0 0 0 1 0 0 0 1 48.507339701528977 20.614472085077406 7.4176742795832737 1 rotate no_reflect no_shear #
lump $-1 $-1 $42 $6 #
transform $-1 1 0 0 0 1 0 0 0 1 48.507339701528977 20.614472085077406 7.4176742795832737 1 rotate no_reflect no_shear #
lump $-1 $-1 $43 $7 #
transform $-1 1 0 0 0 1 0 0 0 1 48.507339701528977 20.614472085077406 7.4176742795832737 1 rotate no_reflect no_shear #
lump $-1 $-1 $44 $8 #
transform $-1 1 0 0 0 1 0 0 0 1 48.507339701528977 20.614472085077406 7.4176742795832737 1 rotate no_reflect no_shear #
lump $-1 $-1 $45 $9 #
transform $-1 1 0 0 0 1 0 0 0 1 48.507339701528977 20.614472085077406 7.4176742795832737 1 rotate no_reflect no_shear #
lump $-1 $-1 $46 $10 #
transform $-1 1 0 0 0 1 0 0 0 1 48.507339701528977 20.614472085077406 7.4176742795832737 1 rotate no_reflect no_shear #
lump $-1 $-1 $47 $11 #
transform $-1 1 0 0 0 1 0 0 0 1 48.507339701528977 20.614472085077406 7.4176742795832737 1 rotate no_reflect no_shear #
shell $-1 $-1 $-1 $48 $-1 $12 #
shell $-1 $-1 $-1 $49 $-1 $14 #
shell $-1 $-1 $-1 $50 $-1 $16 #
shell $-1 $-1 $-1 $51 $-1 $18 #
shell $-1 $-1 $-1 $52 $-1 $20 #
shell $-1 $-1 $-1 $53 $-1 $22 #
shell $-1 $-1 $-1 $54 $-1 $24 #
shell $-1 $-1 $-1 $55 $-1 $26 #
shell $-1 $-1 $-1 $56 $-1 $28 #
shell $-1 $-1 $-1 $57 $-1 $30 #
shell $-1 $-1 $-1 $58 $-1 $32 #
shell $-1 $-1 $-1 $59 $-1 $34 #
face $-1 $60 $61 $36 $-1 $62 forward single #
face $-1 $63 $64 $37 $-1 $65 forward single #
face $-1 $66 $67 $38 $-1 $68 reversed single #
face $-1 $69 $70 $39 $-1 $71 forward single #
face $-1 $72 $73 $40 $-1 $74 forward single #
face $-1 $75 $76 $41 $-1 $77 forward single #
face $-1 $78 $79 $42 $-1 $80 reversed single #
face $-1 $81 $82 $43 $-1 $83 forward single #
face $-1 $84 $85 $44 $-1 $86 forward single #
face $-1 $87 $88 $45 $-1 $89 forward single #
face $-1 $90 $91 $46 $-1 $92 reversed single #
face $-1 $93 $94 $47 $-1 $95 forward single #
face $-1 $96 $97 $36 $-1 $98 reversed single #
loop $-1 $-1 $99 $48 #
plane-surface $-1 0 0 7.4176742795832737 0 0 1 1 0 0 forward_v I I I I #
face $-1 $100 $101 $37 $-1 $102 reversed single #
loop $-1 $-1 $103 $49 #
plane-surface $-1 0 -20.614472085077406 0 0 1 0 0 0 1 forward_v I I I I #
face $-1 $104 $105 $38 $-1 $106 reversed single #
loop $-1 $-1 $107 $50 #
plane-surface $-1 69.970068120158814 -2.0462159832390796 136.55356546738744 0 -1 0 -0.80901700255871778 0 -0.5877852410284794 forward_v I I I I #
face $-1 $108 $109 $39 $-1 $110 forward single #
loop $-1 $111 $112 $51 #
cone-surface $-1 45.649160550005583 -7.9016024035488019 3.8362865812314482 -0.80901700255871778 0 -0.5877852410284794 0.2938926205142397 0 -0.40450850127935889 1 I I 0 1 0.5 forward I I I I #
face $-1 $113 $114 $40 $-1 $115 forward single #
loop $-1 $116 $117 $52 #
cone-surface $-1 45.649160550005583 -5.7058324959326558 3.8362865812314482 -0.80901700255871778 0 -0.5877852410284794 0.2938926205142397 0 -0.40450850127935889 1 I I 0 1 0.5 forward I I I I #
face $-1 $118 $119 $41 $-1 $120 forward single #
loop $-1 $121 $122 $53 #
cone-surface $-1 45.649160550005583 -3.5100625883165115 3.8362865812314482 -0.80901700255871778 0 -0.5877852410284794 0.2938926205142397 0 -0.40450850127935889 1 I I 0 1 0.5 forward I I I I #
face $-1 $123 $124 $42 $-1 $125 reversed single #
loop $-1 $-1 $126 $54 #
plane-surface $-1 69.970068120158814 15.39631578167887 136.55356546738744 0 -1 0 -0.80901700255871778 0 -0.5877852410284794 forward_v I I I I #
face $-1 $127 $128 $43 $-1 $129 forward single #
loop $-1 $130 $131 $55 #
cone-surface $-1 45.649160550005583 9.5409293613691482 3.8362865812314482 -0.80901700255871778 0 -0.5877852410284794 0.2938926205142397 0 -0.40450850127935889 1 I I 0 1 0.5 forward I I I I #
face $-1 $132 $133 $44 $-1 $134 forward single #
loop $-1 $135 $136 $56 #
cone-surface $-1 45.649160550005583 11.736699268985294 3.8362865812314482 -0.80901700255871778 0 -0.5877852410284794 0.2938926205142397 0 -0.40450850127935889 1 I I 0 1 0.5 forward I I I I #
face $-1 $137 $138 $45 $-1 $139 forward single #
loop $-1 $140 $141 $57 #
cone-surface $-1 45.649160550005583 13.932469176601433 3.8362865812314482 -0.80901700255871778 0 -0.5877852410284794 0.2938926205142397 0 -0.40450850127935889 1 I I 0 1 0.5 forward I I I I #
face $-1 $142 $143 $46 $-1 $144 reversed single #
loop $-1 $-1 $145 $58 #
plane-surface $-1 -128.93615479934576 5.3320170001814411 57.797324887157608 0 1 0 -0.82903758062907751 0 0.55919289150049634 forward_v I I I I #
face $-1 $146 $147 $47 $-1 $148 forward single #
loop $-1 $149 $150 $59 #
cone-surface $-1 -45.93429314403182 9.4902690977803239 4.6274102595429341 0.82903758062907751 0 -0.55919289150049634 0.55919289150049634 0 0.82903758062907751 1 I I 0 1 1 forward I I I I #
face $-1 $151 $152 $36 $-1 $153 reversed single #
loop $-1 $-1 $154 $60 #
plane-surface $-1 0 0 -7.4176742795832737 0 0 1 1 0 0 forward_v I I I I #
coedge $-1 $155 $156 $157 $158 forward $61 $-1 #
face $-1 $159 $160 $37 $-1 $161 reversed single #
loop $-1 $-1 $162 $63 #
plane-surface $-1 0 0 -7.4176742795832737 0 0 1 1 0 0 forward_v I I I I #
coedge $-1 $163 $164 $165 $166 forward $64 $-1 #
face $-1 $167 $168 $38 $-1 $169 reversed single #
loop $-1 $-1 $170 $66 #
plane-surface $-1 -8.5164570146981049 -5.7058324959326558 79.529768751160361 0.80901700255871778 0 0.5877852410284794 0.5877852410284794 0 -0.80901700255871778 forward_v I I I I #
coedge $-1 $171 $172 $173 $174 reversed $67 $-1 #
face $-1 $-1 $175 $39 $-1 $176 forward single #
loop $-1 $177 $178 $69 #
cone-surface $-1 44.904374564389414 -7.9016024035488019 3.2951679042624065 -0.80901700255871778 0 -0.5877852410284794 0.14694631025711985 0 -0.20225425063967944 1 I I -0.70710678118654746 0.70710678118654746 0.25 forward I I I I #
loop $-1 $-1 $179 $51 #
coedge $-1 $112 $112 $180 $181 reversed $70 $-1 #
face $-1 $-1 $182 $40 $-1 $183 forward single #
loop $-1 $184 $185 $72 #
cone-surface $-1 44.904374564389414 -5.7058324959326558 3.2951679042624065 -0.80901700255871778 0 -0.5877852410284794 0.14694631025711985 0 -0.20225425063967944 1 I I -0.70710678118654746 0.70710678118654746 0.25 forward I I I I #
loop $-1 $-1 $186 $52 #
coedge $-1 $117 $117 $187 $188 reversed $73 $-1 #
face $-1 $-1 $189 $41 $-1 $190 forward single #
loop $-1 $191 $192 $75 #
cone-surface $-1 44.904374564389414 -3.5100625883165115 3.2951679042624065 -0.80901700255871778 0 -0.5877852410284794 0.14694631025711985 0 -0.20225425063967944 1 I I -0.70710678118654746 0.70710678118654746 0.25 forward I I I I #
loop $-1 $-1 $193 $53 #
coedge $-1 $122 $122 $194 $195 reversed $76 $-1 #
face $-1 $196 $197 $42 $-1 $198 reversed single #
loop $-1 $-1 $199 $78 #
plane-surface $-1 -8.5164570146981049 11.736699268985294 79.529768751160361 0.80901700255871778 0 0.5877852410284794 0.5877852410284794 0 -0.80901700255871778 forward_v I I I I #
coedge $-1 $200 $201 $202 $203 reversed $79 $-1 #
face $-1 $-1 $204 $43 $-1 $205 forward single #
loop $-1 $206 $207 $81 #
cone-surface $-1 44.904374564389414 9.5409293613691482 3.2951679042624065 -0.80901700255871778 0 -0.5877852410284794 0.14694631025711985 0 -0.20225425063967944 1 I I -0.70710678118654746 0.70710678118654746 0.25 forward I I I I #
loop $-1 $-1 $208 $55 #
coedge $-1 $131 $131 $209 $210 reversed $82 $-1 #
face $-1 $-1 $211 $44 $-1 $212 forward single #
loop $-1 $213 $214 $84 #
cone-surface $-1 44.904374564389414 11.736699268985294 3.2951679042624065 -0.80901700255871778 0 -0.5877852410284794 0.14694631025711985 0 -0.20225425063967944 1 I I -0.70710678118654746 0.70710678118654746 0.25 forward I I I I #
loop $-1 $-1 $215 $56 #
coedge $-1 $136 $136 $216 $217 reversed $85 $-1 #
face $-1 $-1 $218 $45 $-1 $219 forward single #
loop $-1 $220 $221 $87 #
cone-surface $-1 44.904374564389414 13.932469176601433 3.2951679042624065 -0.80901700255871778 0 -0.5877852410284794 0.14694631025711985 0 -0.20225425063967944 1 I I -0.70710678118654746 0.70710678118654746 0.25 forward I I I I #
loop $-1 $-1 $222 $57 #
coedge $-1 $141 $141 $223 $224 reversed $88 $-1 #
face $-1 $225 $226 $46 $-1 $227 reversed single #
loop $-1 $-1 $228 $90 #
plane-surface $-1 -48.507339701528991 9.4902690977803239 3.5474057937679859 -0.82903758062907751 0 0.55919289150049634 0.55919289150049634 0 0.82903758062907751 forward_v I I I I #
coedge $-1 $229 $230 $231 $232 reversed $91 $-1 #
face $-1 $-1 $233 $47 $-1 $234 forward single #
loop $-1 $235 $236 $93 #
cone-surface $-1 -44.251992283641847 9.4902690977803239 3.4926840366599947 0.82903758062907751 0 -0.55919289150049634 0.27959644575024817 0 0.41451879031453875 1 I I -0.70710678118654746 0.70710678118654746 0.5 forward I I I I #
loop $-1 $-1 $237 $59 #
coedge $-1 $150 $150 $238 $239 reversed $94 $-1 #
face $-1 $240 $241 $36 $-1 $242 reversed single #
loop $-1 $-1 $243 $96 #
plane-surface $-1 0 -20.614472085077406 0 0 1 0 0 0 1 forward_v I I I I #
coedge $-1 $244 $245 $246 $247 forward $97 $-1 #
coedge $-1 $248 $99 $249 $250 forward $61 $-1 #
coedge $-1 $99 $248 $251 $252 forward $61 $-1 #
coedge $-1 $253 $254 $99 $158 reversed $255 $-1 #
edge $-1 $256 -20.614472085077406 $257 20.614472085077406 $157 $258 forward 7 unknown #
face $-1 $259 $260 $37 $-1 $261 reversed single #
loop $-1 $-1 $262 $100 #
plane-surface $-1 -35.573892154353729 -26.95835272539632 0 0 1 0 0 0 1 forward_v I I I I #
coedge $-1 $263 $264 $164 $265 forward $101 $-1 #
coedge $-1 $266 $103 $267 $268 reversed $64 $-1 #
coedge $-1 $103 $266 $162 $265 reversed $64 $-1 #
coedge $-1 $269 $270 $103 $166 reversed $260 $-1 #
edge $-1 $271 -7.4176742795832737 $272 7.4176742795832737 $165 $273 forward 7 unknown #
face $-1 $274 $275 $38 $-1 $276 forward single #
loop $-1 $-1 $277 $104 #
plane-surface $-1 69.970068120158814 -9.3654490086262321 136.55356546738744 0 1 0 0.80901700255871778 0 0.5877852410284794 forward_v I I I I #
coedge $-1 $278 $279 $280 $281 reversed $105 $-1 #
coedge $-1 $172 $107 $282 $283 reversed $67 $-1 #
coedge $-1 $107 $171 $278 $284 reversed $67 $-1 #
coedge $-1 $280 $285 $107 $174 forward $275 $-1 #
edge $-1 $286 -13.52230564144957 $287 -8.891010808355702 $173 $288 forward 7 unknown #
loop $-1 $-1 $180 $108 #
plane-surface $-1 -8.5164570146981049 -5.7058324959326558 79.529768751160361 0.80901700255871778 0 0.5877852410284794 0.5877852410284794 0 -0.80901700255871778 forward_v I I I I #
loop $-1 $-1 $289 $69 #
coedge $-1 $178 $178 $179 $290 reversed $109 $-1 #
coedge $-1 $179 $179 $178 $290 forward $111 $-1 #
coedge $-1 $180 $180 $112 $181 forward $175 $-1 #
edge $-1 $291 0 $291 6.2831853071796004 $180 $292 forward 7 unknown #
loop $-1 $-1 $187 $113 #
plane-surface $-1 -8.5164570146981049 -5.7058324959326558 79.529768751160361 0.80901700255871778 0 0.5877852410284794 0.5877852410284794 0 -0.80901700255871778 forward_v I I I I #
loop $-1 $-1 $293 $72 #
coedge $-1 $185 $185 $186 $294 reversed $114 $-1 #
coedge $-1 $186 $186 $185 $294 forward $116 $-1 #
coedge $-1 $187 $187 $117 $188 forward $182 $-1 #
edge $-1 $295 0 $295 6.2831853071796004 $187 $296 forward 7 unknown #
loop $-1 $-1 $194 $118 #
plane-surface $-1 -8.5164570146981049 -5.7058324959326558 79.529768751160361 0.80901700255871778 0 0.5877852410284794 0.5877852410284794 0 -0.80901700255871778 forward_v I I I I #
loop $-1 $-1 $297 $75 #
coedge $-1 $192 $192 $193 $298 reversed $119 $-1 #
coedge $-1 $193 $193 $192 $298 forward $121 $-1 #
coedge $-1 $194 $194 $122 $195 forward $189 $-1 #
edge $-1 $299 0 $299 6.2831853071796004 $194 $300 forward 7 unknown #
face $-1 $301 $302 $42 $-1 $303 reversed single #
loop $-1 $-1 $304 $123 #
plane-surface $-1 69.970068120158814 8.077082756291718 136.55356546738744 0 1 0 0.80901700255871778 0 0.5877852410284794 forward_v I I I I #
coedge $-1 $305 $306 $307 $308 reversed $124 $-1 #
coedge $-1 $201 $126 $309 $310 reversed $79 $-1 #
coedge $-1 $126 $200 $305 $311 reversed $79 $-1 #
coedge $-1 $307 $312 $126 $203 forward $313 $-1 #
edge $-1 $314 -13.52230564144957 $315 -8.891010808355702 $202 $316 forward 7 unknown #
loop $-1 $-1 $209 $127 #
plane-surface $-1 -8.5164570146981049 11.736699268985294 79.529768751160361 0.80901700255871778 0 0.5877852410284794 0.5877852410284794 0 -0.80901700255871778 forward_v I I I I #
loop $-1 $-1 $317 $81 #
coedge $-1 $207 $207 $208 $318 reversed $128 $-1 #
coedge $-1 $208 $208 $207 $318 forward $130 $-1 #
coedge $-1 $209 $209 $131 $210 forward $204 $-1 #
edge $-1 $319 0 $319 6.2831853071796004 $209 $320 forward 7 unknown #
loop $-1 $-1 $216 $132 #
plane-surface $-1 -8.5164570146981049 11.736699268985294 79.529768751160361 0.80901700255871778 0 0.5877852410284794 0.5877852410284794 0 -0.80901700255871778 forward_v I I I I #
loop $-1 $-1 $321 $84 #
coedge $-1 $214 $214 $215 $322 reversed $133 $-1 #
coedge $-1 $215 $215 $214 $322 forward $135 $-1 #
coedge $-1 $216 $216 $136 $217 forward $211 $-1 #
edge $-1 $323 0 $323 6.2831853071796004 $216 $324 forward 7 unknown #
loop $-1 $-1 $223 $137 #
plane-surface $-1 -8.5164570146981049 11.736699268985294 79.529768751160361 0.80901700255871778 0 0.5877852410284794 0.5877852410284794 0 -0.80901700255871778 forward_v I I I I #
loop $-1 $-1 $325 $87 #
coedge $-1 $221 $221 $222 $326 reversed $138 $-1 #
coedge $-1 $222 $222 $221 $326 forward $140 $-1 #
coedge $-1 $223 $223 $141 $224 forward $218 $-1 #
edge $-1 $327 0 $327 6.2831853071796004 $223 $328 forward 7 unknown #
face $-1 $329 $330 $46 $-1 $331 reversed single #
loop $-1 $-1 $332 $142 #
plane-surface $-1 -128.93615479934576 13.648521195379207 57.797324887157608 0 -1 0 0.82903758062907751 0 -0.55919289150049634 forward_v I I I I #
coedge $-1 $333 $334 $335 $336 reversed $143 $-1 #
coedge $-1 $230 $145 $337 $338 reversed $91 $-1 #
coedge $-1 $145 $229 $333 $339 reversed $91 $-1 #
coedge $-1 $335 $340 $145 $232 forward $341 $-1 #
edge $-1 $342 15.960737698143902 $343 18.571266672987313 $231 $344 forward 7 unknown #
loop $-1 $-1 $238 $146 #
plane-surface $-1 -48.507339701528991 9.4902690977803239 3.5474057937679859 -0.82903758062907751 0 0.55919289150049634 0.55919289150049634 0 0.82903758062907751 forward_v I I I I #
loop $-1 $-1 $345 $93 #
coedge $-1 $236 $236 $237 $346 reversed $147 $-1 #
coedge $-1 $237 $237 $236 $346 forward $149 $-1 #
coedge $-1 $238 $238 $150 $239 forward $233 $-1 #
edge $-1 $347 0 $347 6.2831853071796004 $238 $348 forward 7 unknown #
face $-1 $349 $350 $36 $-1 $351 reversed single #
loop $-1 $-1 $352 $151 #
plane-surface $-1 -48.507339701528977 0 0 1 0 0 0 0 -1 forward_v I I I I #
coedge $-1 $353 $251 $354 $355 forward $152 $-1 #
coedge $-1 $356 $154 $353 $357 forward $97 $-1 #
coedge $-1 $154 $356 $358 $359 forward $97 $-1 #
coedge $-1 $254 $253 $154 $247 reversed $255 $-1 #
edge $-1 $360 -20.614472085077406 $361 20.614472085077406 $246 $362 forward 7 unknown #
coedge $-1 $156 $155 $363 $364 forward $61 $-1 #
coedge $-1 $365 $366 $155 $250 reversed $350 $-1 #
edge $-1 $257 -48.507339701528977 $367 48.507339701528977 $249 $368 forward 7 unknown #
coedge $-1 $243 $369 $156 $252 reversed $152 $-1 #
edge $-1 $370 -48.507339701528977 $256 48.507339701528977 $251 $371 forward 7 unknown #
coedge $-1 $246 $157 $369 $372 forward $255 $-1 #
coedge $-1 $157 $246 $365 $373 reversed $255 $-1 #
loop $-1 $-1 $253 $349 #
vertex $-1 $158 $374 #
vertex $-1 $158 $375 #
straight-curve $-1 48.507339701528977 0 7.4176742795832737 0 1 0 I I #
face $-1 $376 $377 $37 $-1 $378 reversed single #
loop $-1 $-1 $165 $159 #
plane-surface $-1 -37.475793166345028 -23.786412405236863 0 1 0 0 0 0 -1 forward_v I I I I #
coedge $-1 $379 $380 $381 $382 forward $160 $-1 #
coedge $-1 $383 $162 $384 $385 forward $101 $-1 #
coedge $-1 $162 $383 $269 $386 forward $101 $-1 #
edge $-1 $271 -37.475793166345028 $387 -33.67199114236243 $162 $388 forward 7 unknown #
coedge $-1 $164 $163 $389 $390 forward $64 $-1 #
coedge $-1 $391 $392 $163 $268 forward $393 $-1 #
edge $-1 $394 33.67199114236243 $272 37.475793166345028 $267 $395 forward 7 unknown #
coedge $-1 $381 $165 $264 $386 reversed $260 $-1 #
coedge $-1 $165 $381 $391 $396 reversed $260 $-1 #
vertex $-1 $265 $397 #
vertex $-1 $396 $398 #
straight-curve $-1 -37.475793166345028 -20.614472085077406 0 0 0 1 I I #
face $-1 $-1 $399 $38 $-1 $400 reversed single #
loop $-1 $-1 $173 $167 #
plane-surface $-1 0 0 7.4176742795832737 0 0 1 1 0 0 forward_v I I I I #
coedge $-1 $401 $402 $403 $404 reversed $168 $-1 #
coedge $-1 $405 $170 $172 $284 forward $105 $-1 #
coedge $-1 $170 $405 $401 $406 forward $105 $-1 #
coedge $-1 $403 $173 $170 $281 forward $275 $-1 #
edge $-1 $287 -0.80670026472724832 $407 6.5125327606599042 $280 $408 forward 7 unknown #
coedge $-1 $409 $410 $171 $283 forward $399 $-1 #
edge $-1 $411 -67.233539117390293 $286 -60.859108454110448 $282 $412 forward 7 unknown #
edge $-1 $287 89.135449865088887 $411 97.014679403057968 $172 $413 forward 7 unknown #
coedge $-1 $173 $403 $409 $414 forward $275 $-1 #
vertex $-1 $174 $415 #
vertex $-1 $174 $416 #
straight-curve $-1 34.985034060079407 -2.0462159832390796 7.4176742795832666 -1 0 0 I I #
coedge $-1 $289 $289 $-1 $417 reversed $177 $-1 #
edge $-1 $418 0 $418 6.2831853071796004 $178 $419 forward 7 unknown #
vertex $-1 $181 $420 #
ellipse-curve $-1 46.191692284982054 -7.9016024035488019 4.2304589479433545 0.80901700255871778 0 0.5877852410284794 0.2938926205142397 0 -0.40450850127935889 1 I I #
coedge $-1 $293 $293 $-1 $421 reversed $184 $-1 #
edge $-1 $422 0 $422 6.2831853071796004 $185 $423 forward 7 unknown #
vertex $-1 $188 $424 #
ellipse-curve $-1 46.191692284982054 -5.7058324959326558 4.2304589479433545 0.80901700255871778 0 0.5877852410284794 0.2938926205142397 0 -0.40450850127935889 1 I I #
coedge $-1 $297 $297 $-1 $425 reversed $191 $-1 #
edge $-1 $426 0 $426 6.2831853071796004 $192 $427 forward 7 unknown #
vertex $-1 $195 $428 #
ellipse-curve $-1 46.191692284982054 -3.5100625883165115 4.2304589479433545 0.80901700255871778 0 0.5877852410284794 0.2938926205142397 0 -0.40450850127935889 1 I I #
face $-1 $-1 $313 $42 $-1 $429 forward single #
loop $-1 $-1 $430 $196 #
plane-surface $-1 48.507339701528977 0 0 -1 0 0 0 0 1 forward_v I I I I #
coedge $-1 $431 $432 $433 $434 reversed $197 $-1 #
coedge $-1 $435 $199 $201 $311 forward $124 $-1 #
coedge $-1 $199 $435 $431 $436 forward $124 $-1 #
coedge $-1 $433 $202 $199 $308 forward $313 $-1 #
edge $-1 $315 -9.5279661471862234 $437 -2.2087331217990709 $307 $438 forward 7 unknown #
coedge $-1 $439 $440 $200 $310 forward $302 $-1 #
edge $-1 $441 -67.233539117390293 $314 -60.859108454110448 $309 $442 forward 7 unknown #
edge $-1 $315 89.135449865088887 $441 97.014679403057968 $201 $443 forward 7 unknown #
coedge $-1 $202 $433 $439 $444 forward $313 $-1 #
loop $-1 $-1 $433 $301 #
vertex $-1 $310 $445 #
vertex $-1 $203 $446 #
straight-curve $-1 34.985034060079407 15.39631578167887 7.4176742795832666 -1 0 0 I I #
coedge $-1 $317 $317 $-1 $447 reversed $206 $-1 #
edge $-1 $448 0 $448 6.2831853071796004 $207 $449 forward 7 unknown #
vertex $-1 $210 $450 #
ellipse-curve $-1 46.191692284982054 9.5409293613691482 4.2304589479433545 0.80901700255871778 0 0.5877852410284794 0.2938926205142397 0 -0.40450850127935889 1 I I #
coedge $-1 $321 $321 $-1 $451 reversed $213 $-1 #
edge $-1 $452 0 $452 6.2831853071796004 $214 $453 forward 7 unknown #
vertex $-1 $217 $454 #
ellipse-curve $-1 46.191692284982054 11.736699268985294 4.2304589479433545 0.80901700255871778 0 0.5877852410284794 0.2938926205142397 0 -0.40450850127935889 1 I I #
coedge $-1 $325 $325 $-1 $455 reversed $220 $-1 #
edge $-1 $456 0 $456 6.2831853071796004 $221 $457 forward 7 unknown #
vertex $-1 $224 $458 #
ellipse-curve $-1 46.191692284982054 13.932469176601433 4.2304589479433545 0.80901700255871778 0 0.5877852410284794 0.2938926205142397 0 -0.40450850127935889 1 I I #
face $-1 $-1 $341 $46 $-1 $459 forward single #
loop $-1 $-1 $460 $225 #
plane-surface $-1 -48.507339701528977 0 0 1 0 0 0 0 -1 forward_v I I I I #
coedge $-1 $461 $462 $463 $464 reversed $226 $-1 #
coedge $-1 $465 $228 $230 $339 forward $143 $-1 #
coedge $-1 $228 $465 $461 $466 forward $143 $-1 #
coedge $-1 $463 $231 $228 $336 forward $341 $-1 #
edge $-1 $343 0.58688245129127914 $467 8.9033866464890448 $335 $468 forward 7 unknown #
coedge $-1 $469 $470 $229 $338 forward $330 $-1 #
edge $-1 $471 -25.351256649810797 $342 -21.48098816399553 $337 $472 forward 7 unknown #
edge $-1 $343 -4.6683872676537916 $471 -2.5250441212413278e-014 $230 $473 forward 7 unknown #
coedge $-1 $231 $463 $469 $474 forward $341 $-1 #
loop $-1 $-1 $463 $329 #
vertex $-1 $338 $475 #
vertex $-1 $232 $476 #
straight-curve $-1 -64.468077399672879 5.3320170001814411 7.4176742795832737 1 0 0 I I #
coedge $-1 $345 $345 $-1 $477 reversed $235 $-1 #
edge $-1 $478 0 $478 6.2831853071796004 $236 $479 forward 7 unknown #
vertex $-1 $239 $480 #
ellipse-curve $-1 -47.202075214107275 9.4902690977803239 5.4825400366756369 -0.82903758062907751 0 0.55919289150049634 0.55919289150049634 0 0.82903758062907751 1 I I #
face $-1 $-1 $255 $36 $-1 $481 reversed single #
loop $-1 $-1 $365 $240 #
plane-surface $-1 0 20.614472085077406 0 0 -1 0 0 0 -1 forward_v I I I I #
coedge $-1 $482 $363 $366 $483 forward $241 $-1 #
coedge $-1 $369 $243 $244 $357 reversed $152 $-1 #
coedge $-1 $363 $482 $243 $355 reversed $241 $-1 #
edge $-1 $370 -7.4176742795832737 $484 7.4176742795832737 $354 $485 forward 7 unknown #
coedge $-1 $245 $244 $482 $486 forward $97 $-1 #
edge $-1 $361 -48.507339701528977 $484 48.507339701528977 $353 $487 forward 7 unknown #
coedge $-1 $366 $365 $245 $359 reversed $350 $-1 #
edge $-1 $488 -48.507339701528977 $360 48.507339701528977 $358 $489 forward 7 unknown #
vertex $-1 $247 $490 #
vertex $-1 $372 $491 #
straight-curve $-1 48.507339701528977 0 -7.4176742795832737 0 -1 0 I I #
coedge $-1 $352 $354 $248 $364 reversed $241 $-1 #
edge $-1 $367 -20.614472085077406 $370 20.614472085077406 $363 $492 forward 7 unknown #
coedge $-1 $358 $249 $254 $373 forward $350 $-1 #
coedge $-1 $249 $358 $352 $483 reversed $350 $-1 #
vertex $-1 $250 $493 #
straight-curve $-1 0 20.614472085077406 7.4176742795832737 -1 0 0 I I #
coedge $-1 $251 $353 $253 $372 reversed $152 $-1 #
vertex $-1 $364 $494 #
straight-curve $-1 0 -20.614472085077406 7.4176742795832737 1 0 0 I I #
edge $-1 $256 -7.4176742795832737 $361 7.4176742795832737 $253 $495 forward 7 unknown #
edge $-1 $257 -7.4176742795832737 $360 7.4176742795832737 $254 $496 forward 7 unknown #
point $-1 48.507339701528977 -20.614472085077406 7.4176742795832737 #
point $-1 48.507339701528977 20.614472085077406 7.4176742795832737 #
face $-1 $-1 $393 $37 $-1 $497 forward single #
loop $-1 $-1 $498 $259 #
plane-surface $-1 -33.67199114236243 -23.786412405236863 0 -1 0 0 0 0 1 forward_v I I I I #
coedge $-1 $499 $262 $383 $500 reversed $160 $-1 #
coedge $-1 $262 $499 $501 $502 reversed $160 $-1 #
coedge $-1 $270 $269 $262 $382 reversed $260 $-1 #
edge $-1 $503 -7.4176742795832737 $504 7.4176742795832737 $381 $505 forward 7 unknown #
coedge $-1 $264 $263 $379 $500 forward $101 $-1 #
coedge $-1 $389 $498 $263 $385 reversed $377 $-1 #
edge $-1 $387 -3.1719403201594574 $506 3.1719403201594574 $384 $507 forward 7 unknown #
edge $-1 $504 -3.1719403201594574 $271 3.1719403201594574 $269 $508 forward 7 unknown #
vertex $-1 $385 $509 #
straight-curve $-1 0 -20.614472085077406 -7.4176742795832737 1 0 0 I I #
coedge $-1 $510 $384 $266 $390 reversed $377 $-1 #
edge $-1 $394 -7.4176742795832737 $387 7.4176742795832737 $389 $511 forward 7 unknown #
coedge $-1 $501 $267 $270 $396 forward $393 $-1 #
coedge $-1 $267 $501 $510 $512 forward $393 $-1 #
loop $-1 $-1 $267 $376 #
vertex $-1 $268 $513 #
straight-curve $-1 0 -20.614472085077406 7.4176742795832737 -1 0 0 I I #
edge $-1 $272 -3.1719403201594574 $503 3.1719403201594574 $270 $514 forward 7 unknown #
point $-1 -37.475793166345028 -20.614472085077406 -7.4176742795832737 #
point $-1 -37.475793166345028 -20.614472085077406 7.4176742795832737 #
loop $-1 $-1 $282 $274 #
plane-surface $-1 48.507339701528977 0 0 -1 0 0 0 0 1 forward_v I I I I #
coedge $-1 $402 $277 $279 $406 reversed $168 $-1 #
coedge $-1 $277 $401 $515 $516 reversed $168 $-1 #
coedge $-1 $285 $280 $277 $404 forward $275 $-1 #
edge $-1 $407 8.891010808355702 $517 13.52230564144957 $403 $518 forward 7 unknown #
coedge $-1 $279 $278 $410 $519 reversed $105 $-1 #
edge $-1 $520 -97.014679403057968 $407 -89.135449865088887 $401 $521 forward 7 unknown #
vertex $-1 $281 $522 #
straight-curve $-1 43.876044868435116 -2.8529162479663279 7.4176742795832737 0 -1 0 I I #
coedge $-1 $515 $282 $285 $414 reversed $399 $-1 #
coedge $-1 $282 $515 $405 $519 forward $399 $-1 #
vertex $-1 $283 $523 #
straight-curve $-1 48.507339701528977 -2.0462159832390796 68.276782733693722 0 0 1 I I #
straight-curve $-1 -8.5164570146981049 -2.0462159832390796 79.529768751160361 0.5877852410284794 0 -0.80901700255871778 I I #
edge $-1 $517 -9.3654490086262321 $286 -2.0462159832390796 $409 $524 forward 7 unknown #
point $-1 48.507339701528977 -2.0462159832390796 7.4176742795832737 #
point $-1 43.876044868435109 -2.0462159832390796 7.4176742795832808 #
edge $-1 $525 1 $525 0 $289 $-1 forward 7 unknown #
vertex $-1 $290 $526 #
ellipse-curve $-1 45.10662881502909 -7.9016024035488019 3.4421142145195263 0.80901700255871778 0 0.5877852410284794 0.2938926205142397 0 -0.40450850127935889 1 I I #
point $-1 46.48558490549631 -7.9016024035488019 3.8259504466640113 #
edge $-1 $527 1 $527 0 $293 $-1 forward 7 unknown #
vertex $-1 $294 $528 #
ellipse-curve $-1 45.10662881502909 -5.7058324959326558 3.4421142145195263 0.80901700255871778 0 0.5877852410284794 0.2938926205142397 0 -0.40450850127935889 1 I I #
point $-1 46.48558490549631 -5.7058324959326558 3.8259504466640113 #
edge $-1 $529 1 $529 0 $297 $-1 forward 7 unknown #
vertex $-1 $298 $530 #
ellipse-curve $-1 45.10662881502909 -3.5100625883165115 3.4421142145195263 0.80901700255871778 0 0.5877852410284794 0.2938926205142397 0 -0.40450850127935889 1 I I #
point $-1 46.48558490549631 -3.5100625883165115 3.8259504466640113 #
plane-surface $-1 0 0 7.4176742795832737 0 0 1 1 0 0 forward_v I I I I #
coedge $-1 $440 $439 $432 $531 forward $302 $-1 #
coedge $-1 $432 $304 $306 $436 reversed $197 $-1 #
coedge $-1 $304 $431 $430 $531 reversed $197 $-1 #
coedge $-1 $312 $307 $304 $434 forward $313 $-1 #
edge $-1 $437 8.891010808355702 $532 13.52230564144957 $433 $533 forward 7 unknown #
coedge $-1 $306 $305 $440 $534 reversed $124 $-1 #
edge $-1 $535 -97.014679403057968 $437 -89.135449865088887 $431 $536 forward 7 unknown #
vertex $-1 $308 $537 #
straight-curve $-1 43.876044868435116 5.8683496344926471 7.4176742795832737 0 -1 0 I I #
coedge $-1 $430 $309 $312 $444 reversed $302 $-1 #
coedge $-1 $309 $430 $435 $534 forward $302 $-1 #
vertex $-1 $310 $538 #
straight-curve $-1 48.507339701528977 15.39631578167887 68.276782733693722 0 0 1 I I #
straight-curve $-1 -8.5164570146981049 15.39631578167887 79.529768751160361 0.5877852410284794 0 -0.80901700255871778 I I #
edge $-1 $532 8.077082756291718 $314 15.39631578167887 $439 $539 forward 7 unknown #
point $-1 48.507339701528977 15.39631578167887 7.4176742795832737 #
point $-1 43.876044868435109 15.39631578167887 7.4176742795832808 #
edge $-1 $540 1 $540 0 $317 $-1 forward 7 unknown #
vertex $-1 $318 $541 #
ellipse-curve $-1 45.10662881502909 9.5409293613691482 3.4421142145195263 0.80901700255871778 0 0.5877852410284794 0.2938926205142397 0 -0.40450850127935889 1 I I #
point $-1 46.48558490549631 9.5409293613691482 3.8259504466640113 #
edge $-1 $542 1 $542 0 $321 $-1 forward 7 unknown #
vertex $-1 $322 $543 #
ellipse-curve $-1 45.10662881502909 11.736699268985294 3.4421142145195263 0.80901700255871778 0 0.5877852410284794 0.2938926205142397 0 -0.40450850127935889 1 I I #
point $-1 46.48558490549631 11.736699268985294 3.8259504466640113 #
edge $-1 $544 1 $544 0 $325 $-1 forward 7 unknown #
vertex $-1 $326 $545 #
ellipse-curve $-1 45.10662881502909 13.932469176601433 3.4421142145195263 0.80901700255871778 0 0.5877852410284794 0.2938926205142397 0 -0.40450850127935889 1 I I #
point $-1 46.48558490549631 13.932469176601433 3.8259504466640113 #
plane-surface $-1 0 0 7.4176742795832737 0 0 1 1 0 0 forward_v I I I I #
coedge $-1 $470 $469 $462 $546 forward $330 $-1 #
coedge $-1 $462 $332 $334 $466 reversed $226 $-1 #
coedge $-1 $332 $461 $460 $546 reversed $226 $-1 #
coedge $-1 $340 $335 $332 $464 forward $341 $-1 #
edge $-1 $467 -18.571266672987313 $547 -15.960737698143902 $463 $548 forward 7 unknown #
coedge $-1 $334 $333 $470 $549 reversed $143 $-1 #
edge $-1 $550 2.5250441212413278e-014 $467 4.6683872676537916 $461 $551 forward 7 unknown #
vertex $-1 $336 $552 #
straight-curve $-1 -45.896810726685565 4.745134548890162 7.4176742795832737 0 1 0 I I #
coedge $-1 $460 $337 $340 $474 reversed $330 $-1 #
coedge $-1 $337 $460 $465 $549 forward $330 $-1 #
vertex $-1 $338 $553 #
straight-curve $-1 -48.507339701528977 5.3320170001814411 28.898662443578804 0 0 1 I I #
straight-curve $-1 -48.507339701528991 5.3320170001814411 3.5474057937679859 -0.55919289150049634 0 -0.82903758062907751 I I #
edge $-1 $547 -13.648521195379207 $342 -5.3320170001814411 $469 $554 forward 7 unknown #
point $-1 -48.507339701528977 5.3320170001814411 7.4176742795832737 #
point $-1 -45.896810726685565 5.3320170001814411 7.4176742795832737 #
edge $-1 $555 1 $555 0 $345 $-1 forward 7 unknown #
vertex $-1 $346 $556 #
ellipse-curve $-1 -44.666511073956386 9.4902690977803239 3.7722804824102427 -0.82903758062907751 0 0.55919289150049634 0.55919289150049634 0 0.82903758062907751 1 I I #
point $-1 -46.642882322606766 9.4902690977803239 6.3115776173047022 #
plane-surface $-1 48.507339701528977 0 0 -1 0 0 0 0 1 forward_v I I I I #
coedge $-1 $354 $352 $356 $486 reversed $241 $-1 #
edge $-1 $367 -7.4176742795832737 $488 7.4176742795832737 $366 $557 forward 7 unknown #
vertex $-1 $486 $558 #
straight-curve $-1 -48.507339701528977 -20.614472085077406 0 0 0 -1 I I #
edge $-1 $484 -20.614472085077406 $488 20.614472085077406 $482 $559 forward 7 unknown #
straight-curve $-1 0 -20.614472085077406 -7.4176742795832737 -1 0 0 I I #
vertex $-1 $359 $560 #
straight-curve $-1 0 20.614472085077406 -7.4176742795832737 1 0 0 I I #
point $-1 48.507339701528977 20.614472085077406 -7.4176742795832737 #
point $-1 48.507339701528977 -20.614472085077406 -7.4176742795832737 #
straight-curve $-1 -48.507339701528977 0 7.4176742795832737 0 -1 0 I I #
point $-1 -48.507339701528977 20.614472085077406 7.4176742795832737 #
point $-1 -48.507339701528977 -20.614472085077406 7.4176742795832737 #
straight-curve $-1 48.507339701528977 -20.614472085077406 0 0 0 -1 I I #
straight-curve $-1 48.507339701528977 20.614472085077406 0 0 0 -1 I I #
plane-surface $-1 0 0 7.4176742795832737 0 0 1 1 0 0 forward_v I I I I #
coedge $-1 $384 $510 $499 $561 forward $377 $-1 #
coedge $-1 $380 $379 $498 $561 reversed $160 $-1 #
edge $-1 $506 -1.9019010119912991 $504 1.9019010119912991 $379 $562 forward 7 unknown #
coedge $-1 $392 $391 $380 $502 forward $393 $-1 #
edge $-1 $503 -1.9019010119912991 $563 1.9019010119912991 $380 $564 forward 7 unknown #
vertex $-1 $396 $565 #
vertex $-1 $386 $566 #
straight-curve $-1 -37.475793166345028 -26.95835272539632 0 0 0 -1 I I #
vertex $-1 $561 $567 #
straight-curve $-1 -33.67199114236243 -23.786412405236863 -7.4176742795832737 0 -1 0 I I #
straight-curve $-1 -37.475793166345028 -23.786412405236863 -7.4176742795832737 0 1 0 I I #
point $-1 -33.67199114236243 -20.614472085077406 -7.4176742795832737 #
coedge $-1 $498 $389 $392 $512 reversed $377 $-1 #
straight-curve $-1 -33.67199114236243 -20.614472085077406 0 0 0 -1 I I #
edge $-1 $563 -3.1719403201594574 $394 3.1719403201594574 $510 $568 forward 7 unknown #
point $-1 -33.67199114236243 -20.614472085077406 7.4176742795832737 #
straight-curve $-1 -37.475793166345028 -23.786412405236863 7.4176742795832737 0 -1 0 I I #
coedge $-1 $410 $409 $402 $516 forward $399 $-1 #
edge $-1 $517 60.859108454110448 $520 67.233539117390293 $515 $569 forward 7 unknown #
vertex $-1 $414 $570 #
straight-curve $-1 34.985034060079407 -9.3654490086262321 7.4176742795832666 1 0 0 I I #
edge $-1 $520 -6.5125327606599042 $411 0.80670026472724832 $410 $571 forward 7 unknown #
vertex $-1 $519 $572 #
straight-curve $-1 -8.5164570146981049 -9.3654490086262321 79.529768751160361 -0.5877852410284794 0 0.80901700255871778 I I #
point $-1 43.876044868435109 -9.3654490086262321 7.4176742795832808 #
point $-1 48.507339701528977 -2.0462159832390796 1.0432436163034282 #
straight-curve $-1 48.507339701528977 0 7.4176742795832737 0 1 0 I I #
vertex $-1 $417 $573 #
point $-1 45.400521435543332 -7.9016024035488019 3.0376057132401675 #
vertex $-1 $421 $574 #
point $-1 45.400521435543332 -5.7058324959326558 3.0376057132401675 #
vertex $-1 $425 $575 #
point $-1 45.400521435543332 -3.5100625883165115 3.0376057132401675 #
edge $-1 $532 60.859108454110448 $535 67.233539117390293 $430 $576 forward 7 unknown #
vertex $-1 $444 $577 #
straight-curve $-1 34.985034060079407 8.077082756291718 7.4176742795832666 1 0 0 I I #
edge $-1 $535 2.2087331217990709 $441 9.5279661471862234 $440 $578 forward 7 unknown #
vertex $-1 $534 $579 #
straight-curve $-1 -8.5164570146981049 8.077082756291718 79.529768751160361 -0.5877852410284794 0 0.80901700255871778 I I #
point $-1 43.876044868435109 8.077082756291718 7.4176742795832808 #
point $-1 48.507339701528977 15.39631578167887 1.0432436163034282 #
straight-curve $-1 48.507339701528977 0 7.4176742795832737 0 1 0 I I #
vertex $-1 $447 $580 #
point $-1 45.400521435543332 9.5409293613691482 3.0376057132401675 #
vertex $-1 $451 $581 #
point $-1 45.400521435543332 11.736699268985294 3.0376057132401675 #
vertex $-1 $455 $582 #
point $-1 45.400521435543332 13.932469176601433 3.0376057132401675 #
edge $-1 $547 21.48098816399553 $550 25.351256649810797 $460 $583 forward 7 unknown #
vertex $-1 $474 $584 #
straight-curve $-1 -64.468077399672879 13.648521195379207 7.4176742795832737 -1 0 0 I I #
edge $-1 $550 -8.9033866464890448 $471 -0.58688245129127914 $470 $585 forward 7 unknown #
vertex $-1 $549 $586 #
straight-curve $-1 -48.507339701528991 13.648521195379207 3.5474057937679859 0.55919289150049634 0 0.82903758062907751 I I #
point $-1 -45.896810726685565 13.648521195379207 7.4176742795832737 #
point $-1 -48.507339701528977 5.3320170001814411 3.5474057937680068 #
straight-curve $-1 -48.507339701528977 0 7.4176742795832737 0 -1 0 I I #
vertex $-1 $477 $587 #
point $-1 -44.107318182455892 9.4902690977803239 4.6013180630393204 #
straight-curve $-1 -48.507339701528977 20.614472085077406 0 0 0 -1 I I #
point $-1 -48.507339701528977 -20.614472085077406 -7.4176742795832737 #
straight-curve $-1 -48.507339701528977 0 -7.4176742795832737 0 1 0 I I #
point $-1 -48.507339701528977 20.614472085077406 -7.4176742795832737 #
edge $-1 $563 -7.4176742795832737 $506 7.4176742795832737 $498 $588 forward 7 unknown #
straight-curve $-1 -35.573892154353729 -26.95835272539632 -7.4176742795832737 -1 0 0 I I #
vertex $-1 $512 $589 #
straight-curve $-1 -35.573892154353729 -26.95835272539632 7.4176742795832737 1 0 0 I I #
point $-1 -37.475793166345028 -26.95835272539632 7.4176742795832737 #
point $-1 -37.475793166345028 -26.95835272539632 -7.4176742795832737 #
point $-1 -33.67199114236243 -26.95835272539632 -7.4176742795832737 #
straight-curve $-1 -33.67199114236243 -23.786412405236863 7.4176742795832737 0 1 0 I I #
straight-curve $-1 48.507339701528977 -9.3654490086262321 68.276782733693722 0 0 -1 I I #
point $-1 48.507339701528977 -9.3654490086262321 7.4176742795832737 #
straight-curve $-1 48.507339701528977 -2.8529162479663279 1.0432436163034282 0 1 0 I I #
point $-1 48.507339701528977 -9.3654490086262321 1.0432436163034282 #
point $-1 44.702120313749738 -7.9016024035488019 3.1482215940052867 #
point $-1 44.702120313749738 -5.7058324959326558 3.1482215940052867 #
point $-1 44.702120313749738 -3.5100625883165115 3.1482215940052867 #
straight-curve $-1 48.507339701528977 8.077082756291718 68.276782733693722 0 0 -1 I I #
point $-1 48.507339701528977 8.077082756291718 7.4176742795832737 #
straight-curve $-1 48.507339701528977 5.8683496344926471 1.0432436163034282 0 1 0 I I #
point $-1 48.507339701528977 8.077082756291718 1.0432436163034282 #
point $-1 44.702120313749738 9.5409293613691482 3.1482215940052867 #
point $-1 44.702120313749738 11.736699268985294 3.1482215940052867 #
point $-1 44.702120313749738 13.932469176601433 3.1482215940052867 #
straight-curve $-1 -48.507339701528977 13.648521195379207 28.898662443578804 0 0 -1 I I #
point $-1 -48.507339701528977 13.648521195379207 7.4176742795832737 #
straight-curve $-1 -48.507339701528977 4.745134548890162 3.5474057937680037 0 -1 0 I I #
point $-1 -48.507339701528977 13.648521195379207 3.5474057937680068 #
point $-1 -43.837473493327309 9.4902690977803239 3.2130875909097467 #
straight-curve $-1 -33.67199114236243 -26.95835272539632 0 0 0 -1 I I #
point $-1 -33.67199114236243 -26.95835272539632 7.4176742795832737 #
End-of-ACIS-data 