500 0 10 0           
7 Unknown 11 ACIS 5.0 NT 24 Thu Mar 25 18:21:03 1999 
-1 9.9999999999999995e-007 1e-010 
body $-1 $10 $-1 $11 #
body $-1 $12 $-1 $13 #
body $-1 $14 $-1 $15 #
body $-1 $16 $-1 $17 #
body $-1 $18 $-1 $19 #
body $-1 $20 $-1 $21 #
body $-1 $22 $-1 $23 #
body $-1 $24 $-1 $25 #
body $-1 $26 $-1 $27 #
body $-1 $28 $-1 $29 #
lump $-1 $-1 $30 $0 #
transform $-1 1 0 0 0 1 0 0 0 1 67.488631855220191 37.982256810367168 7.7981455264767625 1 rotate no_reflect no_shear #
lump $-1 $-1 $31 $1 #
transform $-1 1 0 0 0 1 0 0 0 1 67.488631855220191 37.982256810367168 7.7981455264767625 1 rotate no_reflect no_shear #
lump $-1 $-1 $32 $2 #
transform $-1 1 0 0 0 1 0 0 0 1 67.488631855220191 37.982256810367168 7.7981455264767625 1 rotate no_reflect no_shear #
lump $-1 $-1 $33 $3 #
transform $-1 1 0 0 0 1 0 0 0 1 67.488631855220191 37.982256810367168 7.7981455264767625 1 rotate no_reflect no_shear #
lump $-1 $-1 $34 $4 #
transform $-1 1 0 0 0 1 0 0 0 1 67.488631855220191 37.982256810367168 7.7981455264767625 1 rotate no_reflect no_shear #
lump $-1 $-1 $35 $5 #
transform $-1 1 0 0 0 1 0 0 0 1 67.488631855220191 37.982256810367168 7.7981455264767625 1 rotate no_reflect no_shear #
lump $-1 $-1 $36 $6 #
transform $-1 1 0 0 0 1 0 0 0 1 67.488631855220191 37.982256810367168 7.7981455264767625 1 rotate no_reflect no_shear #
lump $-1 $-1 $37 $7 #
transform $-1 1 0 0 0 1 0 0 0 1 67.488631855220191 37.982256810367168 7.7981455264767625 1 rotate no_reflect no_shear #
lump $-1 $-1 $38 $8 #
transform $-1 1 0 0 0 1 0 0 0 1 67.488631855220191 37.982256810367168 7.7981455264767625 1 rotate no_reflect no_shear #
lump $-1 $-1 $39 $9 #
transform $-1 1 0 0 0 1 0 0 0 1 67.488631855220191 37.982256810367168 7.7981455264767625 1 rotate no_reflect no_shear #
shell $-1 $-1 $-1 $40 $-1 $10 #
shell $-1 $-1 $-1 $41 $-1 $12 #
shell $-1 $-1 $-1 $42 $-1 $14 #
shell $-1 $-1 $-1 $43 $-1 $16 #
shell $-1 $-1 $-1 $44 $-1 $18 #
shell $-1 $-1 $-1 $45 $-1 $20 #
shell $-1 $-1 $-1 $46 $-1 $22 #
shell $-1 $-1 $-1 $47 $-1 $24 #
shell $-1 $-1 $-1 $48 $-1 $26 #
shell $-1 $-1 $-1 $49 $-1 $28 #
face $-1 $50 $51 $30 $-1 $52 forward single #
face $-1 $53 $54 $31 $-1 $55 forward single #
face $-1 $56 $57 $32 $-1 $58 reversed single #
face $-1 $59 $60 $33 $-1 $61 forward single #
face $-1 $62 $63 $34 $-1 $64 reversed single #
face $-1 $65 $66 $35 $-1 $67 forward single #
face $-1 $68 $69 $36 $-1 $70 forward single #
face $-1 $71 $72 $37 $-1 $73 reversed single #
face $-1 $74 $75 $38 $-1 $76 forward single #
face $-1 $77 $78 $39 $-1 $79 forward single #
face $-1 $80 $81 $30 $-1 $82 reversed single #
loop $-1 $-1 $83 $40 #
plane-surface $-1 0 0 7.7981455264767625 0 0 1 1 0 0 forward_v I I I I #
face $-1 $84 $85 $31 $-1 $86 forward single #
loop $-1 $-1 $87 $41 #
plane-surface $-1 0 -37.982256810367168 0 0 1 0 0 0 1 forward_v I I I I #
face $-1 $88 $89 $32 $-1 $90 reversed single #
loop $-1 $-1 $91 $42 #
plane-surface $-1 97.349889672412431 26.538734589291373 191.8495744338509 0 1 0 0.80901700255871778 0 0.5877852410284794 forward_v I I I I #
face $-1 $92 $93 $33 $-1 $94 forward single #
loop $-1 $95 $96 $43 #
cone-surface $-1 65.45480968794395 32.260495699829271 5.2616949676476494 -0.80901700255871778 0 -0.5877852410284794 0.2938926205142397 0 -0.40450850127935889 1 I I 0 1 0.5 forward I I I I #
face $-1 $97 $98 $34 $-1 $99 reversed single #
loop $-1 $-1 $100 $44 #
plane-surface $-1 -164.58315089501224 -2.6357937663330198 96.246722293980312 0 1 0 -0.71933980857756763 0 0.69465836192734942 forward_v I I I I #
face $-1 $101 $102 $35 $-1 $103 forward single #
loop $-1 $104 $105 $45 #
cone-surface $-1 -64.455684213191176 -0.69717575616100902 4.6900429797170995 0.71933980857756763 0 -0.69465836192734942 0.34732918096367471 0 0.35966990428878381 1 I I 0 1 0.5 forward I I I I #
face $-1 $106 $107 $36 $-1 $108 forward single #
loop $-1 $109 $110 $46 #
cone-surface $-1 -64.455684213191176 2.210751259097016 4.6900429797170995 0.71933980857756763 0 -0.69465836192734942 0.34732918096367471 0 0.35966990428878381 1 I I 0 1 0.5 forward I I I I #
face $-1 $111 $112 $37 $-1 $113 reversed single #
loop $-1 $-1 $114 $47 #
plane-surface $-1 -164.58315089501224 31.197093774765126 96.246722293980312 0 1 0 -0.71933980857756763 0 0.69465836192734942 forward_v I I I I #
face $-1 $115 $116 $38 $-1 $117 forward single #
loop $-1 $118 $119 $48 #
cone-surface $-1 -64.455684213191176 33.135711784937136 4.6900429797170995 0.71933980857756763 0 -0.69465836192734942 0.34732918096367471 0 0.35966990428878381 1 I I 0 1 0.5 forward I I I I #
face $-1 $120 $121 $39 $-1 $122 forward single #
loop $-1 $123 $124 $49 #
cone-surface $-1 -64.455684213191176 36.043638800195161 4.6900429797170995 0.71933980857756763 0 -0.69465836192734942 0.34732918096367471 0 0.35966990428878381 1 I I 0 1 0.5 forward I I I I #
face $-1 $125 $126 $30 $-1 $127 reversed single #
loop $-1 $-1 $128 $50 #
plane-surface $-1 0 0 -7.7981455264767625 0 0 1 1 0 0 forward_v I I I I #
coedge $-1 $129 $130 $131 $132 forward $51 $-1 #
face $-1 $133 $134 $31 $-1 $135 reversed single #
loop $-1 $-1 $136 $53 #
plane-surface $-1 0 0 7.7981455264767625 0 0 1 1 0 0 forward_v I I I I #
coedge $-1 $137 $138 $139 $140 forward $54 $-1 #
face $-1 $141 $142 $32 $-1 $143 reversed single #
loop $-1 $-1 $144 $56 #
plane-surface $-1 -11.849011628185636 32.260495699829271 112.51193095044508 0.80901700255871778 0 0.5877852410284794 0.5877852410284794 0 -0.80901700255871778 forward_v I I I I #
coedge $-1 $145 $146 $147 $148 reversed $57 $-1 #
face $-1 $-1 $149 $33 $-1 $150 forward single #
loop $-1 $151 $152 $59 #
cone-surface $-1 64.848046936024915 32.260495699829271 4.8208560368762896 -0.80901700255871778 0 -0.5877852410284794 0.14694631025711985 0 -0.20225425063967944 1 I I -0.70710678118654746 0.70710678118654746 0.25 forward I I I I #
loop $-1 $-1 $153 $43 #
coedge $-1 $96 $96 $154 $155 reversed $60 $-1 #
face $-1 $156 $157 $34 $-1 $158 reversed single #
loop $-1 $-1 $159 $62 #
plane-surface $-1 -67.488631855220191 0.75678775146800348 2.4836373874499316 -0.71933980857756763 0 0.69465836192734942 0.69465836192734942 0 0.71933980857756763 forward_v I I I I #
coedge $-1 $160 $161 $162 $163 reversed $63 $-1 #
face $-1 $-1 $164 $35 $-1 $165 forward single #
loop $-1 $166 $167 $65 #
cone-surface $-1 -63.808981984850767 -0.69717575616100902 4.0655299119890085 0.71933980857756763 0 -0.69465836192734942 0.17366459048183736 0 0.17983495214439191 1 I I -0.70710678118654746 0.70710678118654746 0.25 forward I I I I #
loop $-1 $-1 $168 $45 #
coedge $-1 $105 $105 $169 $170 reversed $66 $-1 #
face $-1 $-1 $171 $36 $-1 $172 forward single #
loop $-1 $173 $174 $68 #
cone-surface $-1 -63.808981984850767 2.210751259097016 4.0655299119890085 0.71933980857756763 0 -0.69465836192734942 0.17366459048183736 0 0.17983495214439191 1 I I -0.70710678118654746 0.70710678118654746 0.25 forward I I I I #
loop $-1 $-1 $175 $46 #
coedge $-1 $110 $110 $176 $177 reversed $69 $-1 #
face $-1 $178 $179 $37 $-1 $180 forward single #
loop $-1 $-1 $181 $71 #
plane-surface $-1 -67.488631855220191 34.589675292566149 2.4836373874499316 -0.71933980857756763 0 0.69465836192734942 0.69465836192734942 0 0.71933980857756763 forward_v I I I I #
coedge $-1 $182 $183 $184 $185 reversed $72 $-1 #
face $-1 $-1 $186 $38 $-1 $187 forward single #
loop $-1 $188 $189 $74 #
cone-surface $-1 -63.808981984850767 33.135711784937136 4.0655299119890085 0.71933980857756763 0 -0.69465836192734942 0.17366459048183736 0 0.17983495214439191 1 I I -0.70710678118654746 0.70710678118654746 0.25 forward I I I I #
loop $-1 $-1 $190 $48 #
coedge $-1 $119 $119 $191 $192 reversed $75 $-1 #
face $-1 $-1 $193 $39 $-1 $194 forward single #
loop $-1 $195 $196 $77 #
cone-surface $-1 -63.808981984850767 36.043638800195161 4.0655299119890085 0.71933980857756763 0 -0.69465836192734942 0.17366459048183736 0 0.17983495214439191 1 I I -0.70710678118654746 0.70710678118654746 0.25 forward I I I I #
loop $-1 $-1 $197 $49 #
coedge $-1 $124 $124 $198 $199 reversed $78 $-1 #
face $-1 $200 $201 $30 $-1 $202 reversed single #
loop $-1 $-1 $203 $80 #
plane-surface $-1 0 -37.982256810367168 0 0 1 0 0 0 1 forward_v I I I I #
coedge $-1 $204 $205 $206 $207 forward $81 $-1 #
coedge $-1 $208 $83 $209 $210 forward $51 $-1 #
coedge $-1 $83 $208 $211 $212 forward $51 $-1 #
coedge $-1 $213 $214 $83 $132 reversed $215 $-1 #
edge $-1 $216 -37.982256810367168 $217 37.982256810367168 $131 $218 forward 7 unknown #
face $-1 $219 $220 $31 $-1 $221 reversed single #
loop $-1 $-1 $222 $84 #
plane-surface $-1 -67.488631855220191 0 0 1 0 0 0 0 -1 forward_v I I I I #
coedge $-1 $223 $224 $225 $226 forward $85 $-1 #
coedge $-1 $225 $87 $222 $227 reversed $54 $-1 #
coedge $-1 $87 $225 $228 $229 reversed $54 $-1 #
coedge $-1 $230 $231 $87 $140 reversed $220 $-1 #
edge $-1 $232 -67.488631855220191 $233 67.488631855220191 $139 $234 forward 7 unknown #
face $-1 $235 $236 $32 $-1 $237 forward single #
loop $-1 $-1 $147 $88 #
plane-surface $-1 67.488631855220191 0 0 -1 0 0 0 0 1 forward_v I I I I #
coedge $-1 $238 $239 $240 $241 reversed $89 $-1 #
coedge $-1 $146 $91 $242 $243 reversed $57 $-1 #
coedge $-1 $91 $145 $238 $244 reversed $57 $-1 #
coedge $-1 $240 $245 $91 $148 forward $142 $-1 #
edge $-1 $246 88.126641690448693 $247 92.611757567078442 $147 $248 forward 7 unknown #
loop $-1 $-1 $154 $92 #
plane-surface $-1 -11.849011628185636 32.260495699829271 112.51193095044508 0.80901700255871778 0 0.5877852410284794 0.5877852410284794 0 -0.80901700255871778 forward_v I I I I #
loop $-1 $-1 $249 $59 #
coedge $-1 $152 $152 $153 $250 reversed $93 $-1 #
coedge $-1 $153 $153 $152 $250 forward $95 $-1 #
coedge $-1 $154 $154 $96 $155 forward $149 $-1 #
edge $-1 $251 0 $251 6.2831853071796004 $154 $252 forward 7 unknown #
face $-1 $253 $254 $34 $-1 $255 forward single #
loop $-1 $-1 $256 $97 #
plane-surface $-1 -164.58315089501224 4.1493692692690267 96.246722293980312 0 -1 0 0.71933980857756763 0 -0.69465836192734942 forward_v I I I I #
coedge $-1 $257 $258 $259 $260 reversed $98 $-1 #
coedge $-1 $161 $100 $261 $262 reversed $63 $-1 #
coedge $-1 $100 $160 $257 $263 reversed $63 $-1 #
coedge $-1 $259 $264 $100 $163 forward $254 $-1 #
edge $-1 $265 14.802943592285928 $266 19.935104323951947 $162 $267 forward 7 unknown #
loop $-1 $-1 $169 $101 #
plane-surface $-1 -67.488631855220191 0.75678775146800348 2.4836373874499316 -0.71933980857756763 0 0.69465836192734942 0.69465836192734942 0 0.71933980857756763 forward_v I I I I #
loop $-1 $-1 $268 $65 #
coedge $-1 $167 $167 $168 $269 reversed $102 $-1 #
coedge $-1 $168 $168 $167 $269 forward $104 $-1 #
coedge $-1 $169 $169 $105 $170 forward $164 $-1 #
edge $-1 $270 0 $270 6.2831853071796004 $169 $271 forward 7 unknown #
loop $-1 $-1 $176 $106 #
plane-surface $-1 -67.488631855220191 0.75678775146800348 2.4836373874499316 -0.71933980857756763 0 0.69465836192734942 0.69465836192734942 0 0.71933980857756763 forward_v I I I I #
loop $-1 $-1 $272 $68 #
coedge $-1 $174 $174 $175 $273 reversed $107 $-1 #
coedge $-1 $175 $175 $174 $273 forward $109 $-1 #
coedge $-1 $176 $176 $110 $177 forward $171 $-1 #
edge $-1 $274 0 $274 6.2831853071796004 $176 $275 forward 7 unknown #
face $-1 $276 $277 $37 $-1 $278 reversed single #
loop $-1 $-1 $184 $111 #
plane-surface $-1 0 0 7.7981455264767625 0 0 1 1 0 0 forward_v I I I I #
coedge $-1 $279 $280 $281 $282 reversed $112 $-1 #
coedge $-1 $183 $114 $283 $284 reversed $72 $-1 #
coedge $-1 $114 $182 $279 $285 reversed $72 $-1 #
coedge $-1 $281 $286 $114 $185 forward $179 $-1 #
edge $-1 $287 14.802943592285928 $288 19.935104323951947 $184 $289 forward 7 unknown #
loop $-1 $-1 $191 $115 #
plane-surface $-1 -67.488631855220191 34.589675292566149 2.4836373874499316 -0.71933980857756763 0 0.69465836192734942 0.69465836192734942 0 0.71933980857756763 forward_v I I I I #
loop $-1 $-1 $290 $74 #
coedge $-1 $189 $189 $190 $291 reversed $116 $-1 #
coedge $-1 $190 $190 $189 $291 forward $118 $-1 #
coedge $-1 $191 $191 $119 $192 forward $186 $-1 #
edge $-1 $292 0 $292 6.2831853071796004 $191 $293 forward 7 unknown #
loop $-1 $-1 $198 $120 #
plane-surface $-1 -67.488631855220191 34.589675292566149 2.4836373874499316 -0.71933980857756763 0 0.69465836192734942 0.69465836192734942 0 0.71933980857756763 forward_v I I I I #
loop $-1 $-1 $294 $77 #
coedge $-1 $196 $196 $197 $295 reversed $121 $-1 #
coedge $-1 $197 $197 $196 $295 forward $123 $-1 #
coedge $-1 $198 $198 $124 $199 forward $193 $-1 #
edge $-1 $296 0 $296 6.2831853071796004 $198 $297 forward 7 unknown #
face $-1 $298 $299 $30 $-1 $300 reversed single #
loop $-1 $-1 $301 $125 #
plane-surface $-1 -67.488631855220191 0 0 1 0 0 0 0 -1 forward_v I I I I #
coedge $-1 $302 $211 $303 $304 forward $126 $-1 #
coedge $-1 $305 $128 $302 $306 forward $81 $-1 #
coedge $-1 $128 $305 $307 $308 forward $81 $-1 #
coedge $-1 $214 $213 $128 $207 reversed $215 $-1 #
edge $-1 $309 -37.982256810367168 $310 37.982256810367168 $206 $311 forward 7 unknown #
coedge $-1 $130 $129 $312 $313 forward $51 $-1 #
coedge $-1 $314 $315 $129 $210 reversed $299 $-1 #
edge $-1 $217 -67.488631855220191 $316 67.488631855220191 $209 $317 forward 7 unknown #
coedge $-1 $203 $318 $130 $212 reversed $126 $-1 #
edge $-1 $319 -67.488631855220191 $216 67.488631855220191 $211 $320 forward 7 unknown #
coedge $-1 $206 $131 $318 $321 forward $215 $-1 #
coedge $-1 $131 $206 $314 $322 reversed $215 $-1 #
loop $-1 $-1 $213 $298 #
vertex $-1 $132 $323 #
vertex $-1 $132 $324 #
straight-curve $-1 67.488631855220191 0 7.7981455264767625 0 1 0 I I #
face $-1 $325 $326 $31 $-1 $327 reversed single #
loop $-1 $-1 $230 $133 #
plane-surface $-1 0 -42.131626079636192 4.7981455264767625 0 0 1 1 0 0 forward_v I I I I #
coedge $-1 $328 $329 $137 $227 forward $134 $-1 #
coedge $-1 $330 $136 $329 $331 forward $85 $-1 #
coedge $-1 $136 $330 $332 $333 forward $85 $-1 #
coedge $-1 $138 $137 $136 $226 reversed $54 $-1 #
edge $-1 $334 -67.488631855220191 $335 67.488631855220191 $136 $336 forward 7 unknown #
edge $-1 $335 -7.7981455264767625 $233 -4.7981455264767625 $222 $337 forward 7 unknown #
coedge $-1 $332 $338 $138 $229 forward $339 $-1 #
edge $-1 $232 4.7981455264767625 $334 7.7981455264767625 $228 $340 forward 7 unknown #
coedge $-1 $341 $139 $338 $342 forward $220 $-1 #
coedge $-1 $139 $341 $328 $343 forward $220 $-1 #
vertex $-1 $229 $344 #
vertex $-1 $227 $345 #
straight-curve $-1 0 -37.982256810367168 4.7981455264767625 -1 0 0 I I #
face $-1 $-1 $346 $32 $-1 $347 reversed single #
loop $-1 $-1 $242 $141 #
plane-surface $-1 0 0 7.7981455264767625 0 0 1 1 0 0 forward_v I I I I #
coedge $-1 $348 $144 $146 $244 forward $89 $-1 #
coedge $-1 $144 $348 $349 $350 reversed $89 $-1 #
coedge $-1 $351 $147 $144 $241 forward $142 $-1 #
edge $-1 $247 10.408486739376738 $352 21.852008960452533 $240 $353 forward 7 unknown #
coedge $-1 $354 $355 $145 $243 forward $236 $-1 #
edge $-1 $356 15.555059687020254 $246 18.813687019013976 $242 $357 forward 7 unknown #
edge $-1 $247 -134.97726371044038 $356 -129.43335565604295 $146 $358 forward 7 unknown #
coedge $-1 $147 $351 $354 $359 reversed $142 $-1 #
vertex $-1 $359 $360 #
vertex $-1 $148 $361 #
straight-curve $-1 67.488631855220191 26.538734589291373 95.924787216925452 0 0 -1 I I #
coedge $-1 $249 $249 $-1 $362 reversed $151 $-1 #
edge $-1 $363 0 $363 6.2831853071796004 $152 $364 forward 7 unknown #
vertex $-1 $155 $365 #
ellipse-curve $-1 65.859318189223302 32.260495699829271 5.555587588161889 0.80901700255871778 0 0.5877852410284794 0.2938926205142397 0 -0.40450850127935889 1 I I #
face $-1 $-1 $366 $34 $-1 $367 reversed single #
loop $-1 $-1 $162 $156 #
plane-surface $-1 0 0 7.7981455264767625 0 0 1 1 0 0 forward_v I I I I #
coedge $-1 $368 $369 $370 $371 reversed $157 $-1 #
coedge $-1 $372 $159 $161 $263 forward $98 $-1 #
coedge $-1 $159 $372 $368 $373 forward $98 $-1 #
coedge $-1 $370 $162 $159 $260 forward $254 $-1 #
edge $-1 $266 -3.0141876420670215 $374 3.770975393535025 $259 $375 forward 7 unknown #
coedge $-1 $376 $377 $160 $262 forward $366 $-1 #
edge $-1 $378 -45.639723759540225 $265 -40.32521562051339 $261 $379 forward 7 unknown #
edge $-1 $266 -7.3880356344184701 $378 0 $161 $380 forward 7 unknown #
coedge $-1 $162 $370 $376 $381 forward $254 $-1 #
vertex $-1 $262 $382 #
vertex $-1 $163 $383 #
straight-curve $-1 -82.291575447506119 -2.6357937663330198 7.7981455264767661 1 0 0 I I #
coedge $-1 $268 $268 $-1 $384 reversed $166 $-1 #
edge $-1 $385 0 $385 6.2831853071796004 $167 $386 forward 7 unknown #
vertex $-1 $170 $387 #
ellipse-curve $-1 -64.922551489387189 -0.69717575616100902 5.1408914569633444 -0.71933980857756763 0 0.69465836192734942 0.34732918096367471 0 0.35966990428878381 1 I I #
coedge $-1 $272 $272 $-1 $388 reversed $173 $-1 #
edge $-1 $389 0 $389 6.2831853071796004 $174 $390 forward 7 unknown #
vertex $-1 $177 $391 #
ellipse-curve $-1 -64.922551489387189 2.210751259097016 5.1408914569633444 -0.71933980857756763 0 0.69465836192734942 0.34732918096367471 0 0.35966990428878381 1 I I #
face $-1 $-1 $392 $37 $-1 $393 reversed single #
loop $-1 $-1 $394 $178 #
plane-surface $-1 0 37.982256810367168 0 0 -1 0 0 0 -1 forward_v I I I I #
coedge $-1 $395 $181 $183 $285 forward $112 $-1 #
coedge $-1 $181 $395 $394 $396 reversed $112 $-1 #
coedge $-1 $397 $184 $181 $282 forward $179 $-1 #
edge $-1 $288 13.902256128482051 $398 20.687419164084101 $281 $399 forward 7 unknown #
coedge $-1 $400 $401 $182 $284 forward $392 $-1 #
edge $-1 $402 -45.639723759540225 $287 -40.32521562051339 $283 $403 forward 7 unknown #
edge $-1 $288 -7.3880356344184701 $402 0 $183 $404 forward 7 unknown #
coedge $-1 $184 $397 $400 $405 forward $179 $-1 #
vertex $-1 $284 $406 #
vertex $-1 $185 $407 #
straight-curve $-1 -82.291575447506119 31.197093774765126 7.7981455264767661 1 0 0 I I #
coedge $-1 $290 $290 $-1 $408 reversed $188 $-1 #
edge $-1 $409 0 $409 6.2831853071796004 $189 $410 forward 7 unknown #
vertex $-1 $192 $411 #
ellipse-curve $-1 -64.922551489387189 33.135711784937136 5.1408914569633444 -0.71933980857756763 0 0.69465836192734942 0.34732918096367471 0 0.35966990428878381 1 I I #
coedge $-1 $294 $294 $-1 $412 reversed $195 $-1 #
edge $-1 $413 0 $413 6.2831853071796004 $196 $414 forward 7 unknown #
vertex $-1 $199 $415 #
ellipse-curve $-1 -64.922551489387189 36.043638800195161 5.1408914569633444 -0.71933980857756763 0 0.69465836192734942 0.34732918096367471 0 0.35966990428878381 1 I I #
face $-1 $-1 $215 $30 $-1 $416 reversed single #
loop $-1 $-1 $314 $200 #
plane-surface $-1 0 37.982256810367168 0 0 -1 0 0 0 -1 forward_v I I I I #
coedge $-1 $417 $312 $315 $418 forward $201 $-1 #
coedge $-1 $318 $203 $204 $306 reversed $126 $-1 #
coedge $-1 $312 $417 $203 $304 reversed $201 $-1 #
edge $-1 $319 -7.7981455264767625 $419 7.7981455264767625 $303 $420 forward 7 unknown #
coedge $-1 $205 $204 $417 $421 forward $81 $-1 #
edge $-1 $310 -67.488631855220191 $419 67.488631855220191 $302 $422 forward 7 unknown #
coedge $-1 $315 $314 $205 $308 reversed $299 $-1 #
edge $-1 $423 -67.488631855220191 $309 67.488631855220191 $307 $424 forward 7 unknown #
vertex $-1 $207 $425 #
vertex $-1 $321 $426 #
straight-curve $-1 67.488631855220191 0 -7.7981455264767625 0 -1 0 I I #
coedge $-1 $301 $303 $208 $313 reversed $201 $-1 #
edge $-1 $316 -37.982256810367168 $319 37.982256810367168 $312 $427 forward 7 unknown #
coedge $-1 $307 $209 $214 $322 forward $299 $-1 #
coedge $-1 $209 $307 $301 $418 reversed $299 $-1 #
vertex $-1 $210 $428 #
straight-curve $-1 0 37.982256810367168 7.7981455264767625 -1 0 0 I I #
coedge $-1 $211 $302 $213 $321 reversed $126 $-1 #
vertex $-1 $313 $429 #
straight-curve $-1 0 -37.982256810367168 7.7981455264767625 1 0 0 I I #
edge $-1 $216 -7.7981455264767625 $310 7.7981455264767625 $213 $430 forward 7 unknown #
edge $-1 $217 -7.7981455264767625 $309 7.7981455264767625 $214 $431 forward 7 unknown #
point $-1 67.488631855220191 -37.982256810367168 7.7981455264767625 #
point $-1 67.488631855220191 37.982256810367168 7.7981455264767625 #
face $-1 $-1 $339 $31 $-1 $432 reversed single #
loop $-1 $-1 $433 $219 #
plane-surface $-1 0 -46.280995348905215 6.2981455264767625 0 1 0 0 0 1 forward_v I I I I #
coedge $-1 $434 $222 $231 $343 reversed $134 $-1 #
coedge $-1 $222 $434 $223 $331 reversed $134 $-1 #
coedge $-1 $224 $223 $435 $436 forward $85 $-1 #
edge $-1 $335 37.982256810367168 $437 46.280995348905215 $329 $438 forward 7 unknown #
coedge $-1 $439 $228 $224 $333 reversed $339 $-1 #
edge $-1 $440 -46.280995348905215 $334 -37.982256810367168 $332 $441 forward 7 unknown #
vertex $-1 $229 $442 #
vertex $-1 $331 $443 #
straight-curve $-1 0 -37.982256810367168 7.7981455264767625 -1 0 0 I I #
straight-curve $-1 -67.488631855220191 -37.982256810367168 0 0 0 -1 I I #
coedge $-1 $228 $439 $230 $342 reversed $339 $-1 #
loop $-1 $-1 $228 $325 #
straight-curve $-1 67.488631855220191 -37.982256810367168 0 0 0 1 I I #
coedge $-1 $231 $230 $444 $445 forward $220 $-1 #
edge $-1 $232 -4.1493692692690232 $446 4.1493692692690232 $338 $447 forward 7 unknown #
edge $-1 $448 -4.1493692692690232 $233 4.1493692692690232 $328 $449 forward 7 unknown #
point $-1 67.488631855220191 -37.982256810367168 4.7981455264767625 #
point $-1 -67.488631855220191 -37.982256810367168 4.7981455264767625 #
loop $-1 $-1 $349 $235 #
plane-surface $-1 0 37.982256810367168 0 0 -1 0 0 0 -1 forward_v I I I I #
coedge $-1 $239 $238 $355 $450 reversed $89 $-1 #
coedge $-1 $451 $452 $239 $350 forward $346 $-1 #
edge $-1 $352 -85.982894067717965 $453 -80.43898601332053 $349 $454 forward 7 unknown #
coedge $-1 $245 $240 $452 $455 reversed $142 $-1 #
vertex $-1 $241 $456 #
straight-curve $-1 67.488631855220191 16.130247849914635 3.3130296498470031 0 1 0 I I #
coedge $-1 $457 $242 $245 $359 forward $236 $-1 #
coedge $-1 $242 $457 $348 $450 forward $236 $-1 #
vertex $-1 $243 $458 #
straight-curve $-1 48.674944836206215 26.538734589291373 7.798145526476759 1 0 0 I I #
straight-curve $-1 -11.849011628185636 26.538734589291373 112.51193095044508 -0.5877852410284794 0 0.80901700255871778 I I #
edge $-1 $246 26.538734589291373 $459 37.982256810367168 $245 $460 forward 7 unknown #
point $-1 67.488631855220191 26.538734589291373 7.7981455264767625 #
point $-1 67.488631855220191 26.538734589291373 3.3130296498470102 #
edge $-1 $461 1 $461 0 $249 $-1 forward 7 unknown #
vertex $-1 $250 $462 #
ellipse-curve $-1 65.050301186664598 32.260495699829271 4.9678023471334098 0.80901700255871778 0 0.5877852410284794 0.2938926205142397 0 -0.40450850127935889 1 I I #
point $-1 66.153210809737544 32.260495699829271 5.1510790868825298 #
loop $-1 $-1 $261 $253 #
plane-surface $-1 -67.488631855220191 0 0 1 0 0 0 0 -1 forward_v I I I I #
coedge $-1 $369 $256 $258 $373 reversed $157 $-1 #
coedge $-1 $256 $368 $463 $464 reversed $157 $-1 #
coedge $-1 $264 $259 $256 $371 forward $254 $-1 #
edge $-1 $374 -19.935104323951947 $465 -14.802943592285928 $370 $466 forward 7 unknown #
coedge $-1 $258 $257 $377 $467 reversed $98 $-1 #
edge $-1 $468 0 $374 7.3880356344184701 $368 $469 forward 7 unknown #
vertex $-1 $260 $470 #
straight-curve $-1 -62.356471123554165 0.37839387573400174 7.7981455264767643 0 1 0 I I #
coedge $-1 $463 $261 $264 $381 reversed $366 $-1 #
coedge $-1 $261 $463 $372 $467 forward $366 $-1 #
vertex $-1 $262 $471 #
straight-curve $-1 -67.488631855220191 -2.6357937663330198 48.123361146990156 0 0 1 I I #
straight-curve $-1 -67.488631855220191 -2.6357937663330198 2.4836373874499316 -0.69465836192734942 0 -0.71933980857756763 I I #
edge $-1 $465 -4.1493692692690267 $265 2.6357937663330198 $376 $472 forward 7 unknown #
point $-1 -67.488631855220191 -2.6357937663330198 7.7981455264767625 #
point $-1 -62.356471123554172 -2.6357937663330198 7.7981455264767625 #
edge $-1 $473 1 $473 0 $268 $-1 forward 7 unknown #
vertex $-1 $269 $474 #
ellipse-curve $-1 -63.988816936995157 -0.69717575616100902 4.2391945024708457 -0.71933980857756763 0 0.69465836192734942 0.34732918096367471 0 0.35966990428878381 1 I I #
point $-1 -64.57522230842352 -0.69717575616100902 5.5005613612521369 #
edge $-1 $475 1 $475 0 $272 $-1 forward 7 unknown #
vertex $-1 $273 $476 #
ellipse-curve $-1 -63.988816936995157 2.210751259097016 4.2391945024708457 -0.71933980857756763 0 0.69465836192734942 0.34732918096367471 0 0.35966990428878381 1 I I #
point $-1 -64.57522230842352 2.210751259097016 5.5005613612521369 #
loop $-1 $-1 $283 $276 #
plane-surface $-1 -67.488631855220191 0 0 1 0 0 0 0 -1 forward_v I I I I #
coedge $-1 $477 $478 $280 $396 forward $277 $-1 #
coedge $-1 $280 $279 $401 $479 reversed $112 $-1 #
edge $-1 $398 15.159445970781961 $480 22.547481605200431 $394 $481 forward 7 unknown #
coedge $-1 $286 $281 $478 $482 forward $179 $-1 #
vertex $-1 $482 $483 #
straight-curve $-1 -62.356471123554165 17.294837646283074 7.7981455264767643 0 1 0 I I #
coedge $-1 $484 $283 $286 $405 reversed $392 $-1 #
coedge $-1 $283 $484 $395 $479 forward $392 $-1 #
vertex $-1 $284 $485 #
straight-curve $-1 -67.488631855220191 31.197093774765126 48.123361146990156 0 0 1 I I #
straight-curve $-1 -67.488631855220191 31.197093774765126 2.4836373874499316 -0.69465836192734942 0 -0.71933980857756763 I I #
edge $-1 $486 -37.982256810367168 $287 -31.197093774765126 $400 $487 forward 7 unknown #
point $-1 -67.488631855220191 31.197093774765126 7.7981455264767625 #
point $-1 -62.356471123554172 31.197093774765126 7.7981455264767625 #
edge $-1 $488 1 $488 0 $290 $-1 forward 7 unknown #
vertex $-1 $291 $489 #
ellipse-curve $-1 -63.988816936995157 33.135711784937136 4.2391945024708457 -0.71933980857756763 0 0.69465836192734942 0.34732918096367471 0 0.35966990428878381 1 I I #
point $-1 -64.57522230842352 33.135711784937136 5.5005613612521369 #
edge $-1 $490 1 $490 0 $294 $-1 forward 7 unknown #
vertex $-1 $295 $491 #
ellipse-curve $-1 -63.988816936995157 36.043638800195161 4.2391945024708457 -0.71933980857756763 0 0.69465836192734942 0.34732918096367471 0 0.35966990428878381 1 I I #
point $-1 -64.57522230842352 36.043638800195161 5.5005613612521369 #
plane-surface $-1 67.488631855220191 0 0 -1 0 0 0 0 1 forward_v I I I I #
coedge $-1 $303 $301 $305 $421 reversed $201 $-1 #
edge $-1 $316 -7.7981455264767625 $423 7.7981455264767625 $315 $492 forward 7 unknown #
vertex $-1 $421 $493 #
straight-curve $-1 -67.488631855220191 -37.982256810367168 0 0 0 -1 I I #
edge $-1 $419 -37.982256810367168 $423 37.982256810367168 $417 $494 forward 7 unknown #
straight-curve $-1 0 -37.982256810367168 -7.7981455264767625 -1 0 0 I I #
vertex $-1 $308 $495 #
straight-curve $-1 0 37.982256810367168 -7.7981455264767625 1 0 0 I I #
point $-1 67.488631855220191 37.982256810367168 -7.7981455264767625 #
point $-1 67.488631855220191 -37.982256810367168 -7.7981455264767625 #
straight-curve $-1 -67.488631855220191 0 7.7981455264767625 0 -1 0 I I #
point $-1 -67.488631855220191 37.982256810367168 7.7981455264767625 #
point $-1 -67.488631855220191 -37.982256810367168 7.7981455264767625 #
straight-curve $-1 67.488631855220191 -37.982256810367168 0 0 0 -1 I I #
straight-curve $-1 67.488631855220191 37.982256810367168 0 0 0 -1 I I #
plane-surface $-1 67.488631855220191 0 0 -1 0 0 0 0 1 forward_v I I I I #
coedge $-1 $444 $435 $434 $496 forward $326 $-1 #
coedge $-1 $329 $328 $433 $496 reversed $134 $-1 #
coedge $-1 $433 $497 $330 $436 reversed $326 $-1 #
edge $-1 $437 -67.488631855220191 $440 67.488631855220191 $435 $498 forward 7 unknown #
vertex $-1 $331 $499 #
straight-curve $-1 -67.488631855220191 0 7.7981455264767625 0 -1 0 I I #
coedge $-1 $338 $332 $497 $500 forward $339 $-1 #
vertex $-1 $333 $501 #
straight-curve $-1 67.488631855220191 0 7.7981455264767625 0 1 0 I I #
point $-1 67.488631855220191 -37.982256810367168 7.7981455264767625 #
point $-1 -67.488631855220191 -37.982256810367168 7.7981455264767625 #
coedge $-1 $497 $433 $341 $445 reversed $326 $-1 #
edge $-1 $446 -67.488631855220191 $448 67.488631855220191 $444 $502 forward 7 unknown #
vertex $-1 $500 $503 #
straight-curve $-1 67.488631855220191 -42.131626079636192 4.7981455264767625 0 -1 0 I I #
vertex $-1 $343 $504 #
straight-curve $-1 -67.488631855220191 -42.131626079636192 4.7981455264767625 0 1 0 I I #
edge $-1 $453 -21.852008960452533 $356 -10.408486739376738 $355 $505 forward 7 unknown #
coedge $-1 $452 $349 $457 $506 reversed $346 $-1 #
coedge $-1 $349 $451 $351 $455 forward $346 $-1 #
vertex $-1 $350 $507 #
straight-curve $-1 16.94915574130038 37.982256810367168 72.874652879835949 -0.5877852410284794 0 0.80901700255871778 I I #
edge $-1 $459 -7.7981455264767625 $352 -3.3130296498470151 $351 $508 forward 7 unknown #
point $-1 67.488631855220191 37.982256810367168 3.3130296498470151 #
coedge $-1 $355 $354 $451 $506 forward $236 $-1 #
point $-1 64.230004523226469 26.538734589291373 7.7981455264767447 #
vertex $-1 $359 $509 #
straight-curve $-1 67.488631855220191 0 7.7981455264767625 0 1 0 I I #
vertex $-1 $362 $510 #
point $-1 65.34419380717884 32.260495699829271 4.5632938458540506 #
coedge $-1 $377 $376 $369 $464 forward $366 $-1 #
edge $-1 $465 40.32521562051339 $468 45.639723759540225 $463 $511 forward 7 unknown #
vertex $-1 $381 $512 #
straight-curve $-1 -82.291575447506119 4.1493692692690267 7.7981455264767661 -1 0 0 I I #
edge $-1 $468 -3.770975393535025 $378 3.0141876420670215 $377 $513 forward 7 unknown #
vertex $-1 $467 $514 #
straight-curve $-1 -67.488631855220191 4.1493692692690267 2.4836373874499316 0.69465836192734942 0 0.71933980857756763 I I #
point $-1 -62.356471123554172 4.1493692692690267 7.7981455264767625 #
point $-1 -67.488631855220191 -2.6357937663330198 2.4836373874499316 #
straight-curve $-1 -67.488631855220191 0 7.7981455264767625 0 -1 0 I I #
vertex $-1 $384 $515 #
point $-1 -63.641487756031488 -0.69717575616100902 4.5988644067596294 #
vertex $-1 $388 $516 #
point $-1 -63.641487756031488 2.210751259097016 4.5988644067596294 #
coedge $-1 $478 $394 $484 $517 reversed $277 $-1 #
coedge $-1 $394 $477 $397 $482 reversed $277 $-1 #
edge $-1 $480 -20.687419164084101 $402 -13.902256128482051 $401 $518 forward 7 unknown #
vertex $-1 $396 $519 #
straight-curve $-1 -51.82583521776462 37.982256810367168 18.702938489241038 -0.69465836192734942 0 -0.71933980857756763 I I #
edge $-1 $398 62.356471123554172 $486 67.488631855220191 $478 $520 forward 7 unknown #
point $-1 -62.356471123554172 37.982256810367176 7.7981455264767625 #
coedge $-1 $401 $400 $477 $517 forward $392 $-1 #
point $-1 -67.488631855220191 31.197093774765126 2.4836373874499316 #
vertex $-1 $482 $521 #
straight-curve $-1 -67.488631855220191 0 7.7981455264767625 0 -1 0 I I #
vertex $-1 $408 $522 #
point $-1 -63.641487756031488 33.135711784937136 4.5988644067596294 #
vertex $-1 $412 $523 #
point $-1 -63.641487756031488 36.043638800195161 4.5988644067596294 #
straight-curve $-1 -67.488631855220191 37.982256810367168 0 0 0 -1 I I #
point $-1 -67.488631855220191 -37.982256810367168 -7.7981455264767625 #
straight-curve $-1 -67.488631855220191 0 -7.7981455264767625 0 1 0 I I #
point $-1 -67.488631855220191 37.982256810367168 -7.7981455264767625 #
edge $-1 $437 -1.5 $448 1.5 $434 $524 forward 7 unknown #
coedge $-1 $435 $444 $439 $500 reversed $326 $-1 #
straight-curve $-1 0 -46.280995348905215 7.7981455264767625 1 0 0 I I #
point $-1 -67.488631855220191 -46.280995348905215 7.7981455264767625 #
edge $-1 $440 -1.5 $446 1.5 $439 $525 forward 7 unknown #
point $-1 67.488631855220191 -46.280995348905215 7.7981455264767625 #
straight-curve $-1 0 -46.280995348905215 4.7981455264767625 -1 0 0 I I #
point $-1 67.488631855220191 -46.280995348905215 4.7981455264767625 #
point $-1 -67.488631855220191 -46.280995348905215 4.7981455264767625 #
straight-curve $-1 64.230004523226455 16.130247849914635 7.798145526476759 0 -1 0 I I #
edge $-1 $459 -67.488631855220191 $453 -64.230004523226469 $451 $526 forward 7 unknown #
point $-1 64.230004523226469 37.982256810367168 7.7981455264767447 #
straight-curve $-1 67.488631855220191 37.982256810367168 0 0 0 -1 I I #
point $-1 67.488631855220191 37.982256810367168 7.7981455264767625 #
point $-1 64.645792685385231 32.260495699829271 4.6739097266191694 #
straight-curve $-1 -67.488631855220191 4.1493692692690267 48.123361146990156 0 0 -1 I I #
point $-1 -67.488631855220191 4.1493692692690267 7.7981455264767625 #
straight-curve $-1 -67.488631855220191 0.37839387573400174 2.4836373874499245 0 -1 0 I I #
point $-1 -67.488631855220191 4.1493692692690267 2.4836373874499316 #
point $-1 -63.629147032706378 -0.69717575616100902 3.8918653215071712 #
point $-1 -63.629147032706378 2.210751259097016 3.8918653215071712 #
edge $-1 $486 -7.7981455264767625 $480 -2.4836373874499316 $477 $527 forward 7 unknown #
straight-curve $-1 -67.488631855220191 17.294837646283074 2.4836373874499245 0 -1 0 I I #
point $-1 -67.488631855220191 37.982256810367176 2.4836373874499316 #
straight-curve $-1 0 37.982256810367168 7.7981455264767625 -1 0 0 I I #
point $-1 -67.488631855220191 37.982256810367168 7.7981455264767625 #
point $-1 -63.629147032706378 33.135711784937136 3.8918653215071712 #
point $-1 -63.629147032706378 36.043638800195161 3.8918653215071712 #
straight-curve $-1 -67.488631855220191 -46.280995348905215 6.2981455264767625 0 0 -1 I I #
straight-curve $-1 67.488631855220191 -46.280995348905215 6.2981455264767625 0 0 -1 I I #
straight-curve $-1 0 37.982256810367168 7.7981455264767625 -1 0 0 I I #
straight-curve $-1 -67.488631855220191 37.982256810367168 0 0 0 -1 I I #
End-of-ACIS-data 