500 0 7 0           
7 Unknown 11 ACIS 5.0 NT 24 Fri Mar 26 03:32:06 1999 
-1 9.9999999999999995e-007 1e-010 
body $-1 $7 $-1 $8 #
body $-1 $9 $-1 $10 #
body $-1 $11 $-1 $12 #
body $-1 $13 $-1 $14 #
body $-1 $15 $-1 $16 #
body $-1 $17 $-1 $18 #
body $-1 $19 $-1 $20 #
lump $-1 $-1 $21 $0 #
transform $-1 1 0 0 0 1 0 0 0 1 63.108615375225071 31.362865188503758 9.8417775510199608 1 rotate no_reflect no_shear #
lump $-1 $-1 $22 $1 #
transform $-1 1 0 0 0 1 0 0 0 1 63.108615375225071 31.362865188503758 9.8417775510199608 1 rotate no_reflect no_shear #
lump $-1 $-1 $23 $2 #
transform $-1 1 0 0 0 1 0 0 0 1 63.108615375225071 31.362865188503758 9.8417775510199608 1 rotate no_reflect no_shear #
lump $-1 $-1 $24 $3 #
transform $-1 1 0 0 0 1 0 0 0 1 63.108615375225071 31.362865188503758 9.8417775510199608 1 rotate no_reflect no_shear #
lump $-1 $-1 $25 $4 #
transform $-1 1 0 0 0 1 0 0 0 1 63.108615375225071 31.362865188503758 9.8417775510199608 1 rotate no_reflect no_shear #
lump $-1 $-1 $26 $5 #
transform $-1 1 0 0 0 1 0 0 0 1 63.108615375225071 31.362865188503758 9.8417775510199608 1 rotate no_reflect no_shear #
lump $-1 $-1 $27 $6 #
transform $-1 1 0 0 0 1 0 0 0 1 63.108615375225071 31.362865188503758 9.8417775510199608 1 rotate no_reflect no_shear #
shell $-1 $-1 $-1 $28 $-1 $7 #
shell $-1 $-1 $-1 $29 $-1 $9 #
shell $-1 $-1 $-1 $30 $-1 $11 #
shell $-1 $-1 $-1 $31 $-1 $13 #
shell $-1 $-1 $-1 $32 $-1 $15 #
shell $-1 $-1 $-1 $33 $-1 $17 #
shell $-1 $-1 $-1 $34 $-1 $19 #
face $-1 $35 $36 $21 $-1 $37 forward single #
face $-1 $38 $39 $22 $-1 $40 forward single #
face $-1 $41 $42 $23 $-1 $43 reversed single #
face $-1 $44 $45 $24 $-1 $46 forward single #
face $-1 $47 $48 $25 $-1 $49 forward single #
face $-1 $50 $51 $26 $-1 $52 reversed single #
face $-1 $53 $54 $27 $-1 $55 forward single #
face $-1 $56 $57 $21 $-1 $58 reversed single #
loop $-1 $-1 $59 $28 #
plane-surface $-1 0 0 9.8417775510199608 0 0 1 1 0 0 forward_v I I I I #
face $-1 $60 $61 $22 $-1 $62 reversed single #
loop $-1 $-1 $63 $29 #
plane-surface $-1 -59.798186456472969 0 4.6030919381971813 0 0 1 1 0 0 forward_v I I I I #
face $-1 $64 $65 $23 $-1 $66 reversed single #
loop $-1 $-1 $67 $30 #
plane-surface $-1 29.105126930016404 94.415142489140791 128.63624300501141 1 0 0 0 -0.79863551827123203 -0.60181501223851219 forward_v I I I I #
face $-1 $68 $69 $24 $-1 $70 forward single #
loop $-1 $71 $72 $31 #
cone-surface $-1 32.913852893768706 28.108454455955179 5.8206854924374305 0 -0.79863551827123203 -0.60181501223851219 0.5 0 0 1 I I 0 1 0.5 forward I I I I #
face $-1 $73 $74 $25 $-1 $75 forward single #
loop $-1 $76 $77 $32 #
cone-surface $-1 38.626941839397176 28.108454455955179 5.8206854924374305 0 -0.79863551827123203 -0.60181501223851219 0.5 0 0 1 I I 0 1 0.5 forward I I I I #
face $-1 $78 $79 $26 $-1 $80 reversed single #
loop $-1 $-1 $81 $33 #
plane-surface $-1 -43.462348558734988 -100.10569684736645 110.19668975170069 -1 0 0 0 -0.54463904215088732 0.83867056331134215 forward_v I I I I #
face $-1 $82 $83 $27 $-1 $84 forward single #
loop $-1 $85 $86 $34 #
cone-surface $-1 -49.975053048227927 -25.674845392637941 4.8535894394276378 0 0.54463904215088732 -0.83867056331134215 2 0 0 1 I I 0 1 2 forward I I I I #
face $-1 $87 $88 $21 $-1 $89 reversed single #
loop $-1 $-1 $90 $35 #
plane-surface $-1 0 0 -9.8417775510199608 0 0 1 1 0 0 forward_v I I I I #
coedge $-1 $91 $92 $93 $94 forward $36 $-1 #
face $-1 $95 $96 $22 $-1 $97 reversed single #
loop $-1 $-1 $98 $38 #
plane-surface $-1 -59.798186456472969 0 1.2381993967964853 0 0 1 1 0 0 forward_v I I I I #
coedge $-1 $99 $100 $101 $102 forward $39 $-1 #
face $-1 $103 $104 $23 $-1 $105 reversed single #
loop $-1 $-1 $106 $41 #
plane-surface $-1 35.770397366582955 -6.3864210060046389 52.676818736218138 0 0.79863551827123203 0.60181501223851219 1 0 0 forward_v I I I I #
coedge $-1 $107 $108 $109 $110 reversed $42 $-1 #
face $-1 $-1 $111 $24 $-1 $112 forward single #
loop $-1 $113 $114 $44 #
cone-surface $-1 32.913852893768706 27.389769014249065 5.2791171824876653 0 -0.79863551827123203 -0.60181501223851219 0.25 0 0 1 I I -0.70710678118654746 0.70710678118654746 0.25 forward I I I I #
loop $-1 $-1 $115 $31 #
coedge $-1 $72 $72 $116 $117 reversed $45 $-1 #
face $-1 $-1 $118 $25 $-1 $119 forward single #
loop $-1 $120 $121 $47 #
cone-surface $-1 38.626941839397176 27.389769014249065 5.2791171824876653 0 -0.79863551827123203 -0.60181501223851219 0.25 0 0 1 I I -0.70710678118654746 0.70710678118654746 0.25 forward I I I I #
loop $-1 $-1 $122 $32 #
coedge $-1 $77 $77 $123 $124 reversed $48 $-1 #
face $-1 $125 $126 $26 $-1 $127 forward single #
loop $-1 $-1 $128 $50 #
plane-surface $-1 -49.975053048227927 -31.362865188503761 4.3420137386230095 0 -0.54463904215088732 0.83867056331134215 1 0 0 forward_v I I I I #
coedge $-1 $129 $130 $131 $132 reversed $51 $-1 #
face $-1 $-1 $133 $27 $-1 $134 forward single #
loop $-1 $135 $136 $53 #
cone-surface $-1 -49.975053048227927 -23.67663327772674 1.7766126707224483 0 0.54463904215088732 -0.83867056331134215 1 0 0 1 I I -0.70710678118654746 0.70710678118654746 1 forward I I I I #
loop $-1 $-1 $137 $34 #
coedge $-1 $86 $86 $138 $139 reversed $54 $-1 #
face $-1 $140 $141 $21 $-1 $142 reversed single #
loop $-1 $-1 $143 $56 #
plane-surface $-1 0 -31.362865188503758 0 0 1 0 0 0 1 forward_v I I I I #
coedge $-1 $144 $145 $146 $147 forward $57 $-1 #
coedge $-1 $148 $59 $149 $150 forward $36 $-1 #
coedge $-1 $59 $148 $151 $152 forward $36 $-1 #
coedge $-1 $153 $154 $59 $94 reversed $155 $-1 #
edge $-1 $156 -31.362865188503758 $157 31.362865188503758 $93 $158 forward 7 unknown #
face $-1 $159 $160 $22 $-1 $161 reversed single #
loop $-1 $-1 $162 $60 #
plane-surface $-1 -56.487757537720867 0 2.9206456674968333 -1 0 0 0 0 1 forward_v I I I I #
coedge $-1 $163 $164 $165 $166 forward $61 $-1 #
coedge $-1 $167 $63 $168 $169 reversed $39 $-1 #
coedge $-1 $63 $167 $170 $171 reversed $39 $-1 #
coedge $-1 $162 $172 $63 $102 reversed $96 $-1 #
edge $-1 $173 -31.362865188503758 $174 31.362865188503758 $101 $175 forward 7 unknown #
face $-1 $176 $177 $23 $-1 $178 forward single #
loop $-1 $-1 $179 $64 #
plane-surface $-1 42.435667803149506 94.415142489140791 128.63624300501141 -1 0 0 0 0.79863551827123203 0.60181501223851219 forward_v I I I I #
coedge $-1 $180 $181 $182 $183 reversed $65 $-1 #
coedge $-1 $108 $67 $184 $185 reversed $42 $-1 #
coedge $-1 $67 $107 $180 $186 reversed $42 $-1 #
coedge $-1 $182 $187 $67 $110 forward $177 $-1 #
edge $-1 $188 15.844706056066638 $189 21.315474396887176 $109 $190 forward 7 unknown #
loop $-1 $-1 $116 $68 #
plane-surface $-1 35.770397366582955 -6.3864210060046389 52.676818736218138 0 0.79863551827123203 0.60181501223851219 1 0 0 forward_v I I I I #
loop $-1 $-1 $191 $44 #
coedge $-1 $114 $114 $115 $192 reversed $69 $-1 #
coedge $-1 $115 $115 $114 $192 forward $71 $-1 #
coedge $-1 $116 $116 $72 $117 forward $111 $-1 #
edge $-1 $193 -1.3984938081017603e-015 $193 6.2831853071795987 $116 $194 forward 7 unknown #
loop $-1 $-1 $123 $73 #
plane-surface $-1 35.770397366582955 -6.3864210060046389 52.676818736218138 0 0.79863551827123203 0.60181501223851219 1 0 0 forward_v I I I I #
loop $-1 $-1 $195 $47 #
coedge $-1 $121 $121 $122 $196 reversed $74 $-1 #
coedge $-1 $122 $122 $121 $196 forward $76 $-1 #
coedge $-1 $123 $123 $77 $124 forward $118 $-1 #
edge $-1 $197 -1.3984938081017603e-015 $197 6.2831853071795987 $123 $198 forward 7 unknown #
face $-1 $199 $200 $26 $-1 $201 forward single #
loop $-1 $-1 $131 $78 #
plane-surface $-1 0 0 9.8417775510199608 0 0 1 1 0 0 forward_v I I I I #
coedge $-1 $202 $203 $204 $205 reversed $79 $-1 #
coedge $-1 $130 $81 $206 $207 reversed $51 $-1 #
coedge $-1 $81 $129 $202 $208 reversed $51 $-1 #
coedge $-1 $204 $209 $81 $132 forward $126 $-1 #
edge $-1 $210 18.689983235179465 $211 27.15887668139046 $131 $212 forward 7 unknown #
loop $-1 $-1 $138 $82 #
plane-surface $-1 -49.975053048227927 -31.362865188503761 4.3420137386230095 0 -0.54463904215088732 0.83867056331134215 1 0 0 forward_v I I I I #
loop $-1 $-1 $213 $53 #
coedge $-1 $136 $136 $137 $214 reversed $83 $-1 #
coedge $-1 $137 $137 $136 $214 forward $85 $-1 #
coedge $-1 $138 $138 $86 $139 forward $133 $-1 #
edge $-1 $215 -9.6747328752912999e-016 $215 6.2831853071795996 $138 $216 forward 7 unknown #
face $-1 $217 $218 $21 $-1 $219 reversed single #
loop $-1 $-1 $220 $87 #
plane-surface $-1 -63.108615375225071 0 0 1 0 0 0 0 -1 forward_v I I I I #
coedge $-1 $221 $151 $222 $223 forward $88 $-1 #
coedge $-1 $224 $90 $221 $225 forward $57 $-1 #
coedge $-1 $90 $224 $226 $227 forward $57 $-1 #
coedge $-1 $154 $153 $90 $147 reversed $155 $-1 #
edge $-1 $228 -31.362865188503758 $229 31.362865188503758 $146 $230 forward 7 unknown #
coedge $-1 $92 $91 $231 $232 forward $36 $-1 #
coedge $-1 $233 $234 $91 $150 reversed $218 $-1 #
edge $-1 $157 -63.108615375225071 $235 63.108615375225071 $149 $236 forward 7 unknown #
coedge $-1 $143 $237 $92 $152 reversed $88 $-1 #
edge $-1 $238 -63.108615375225071 $156 63.108615375225071 $151 $239 forward 7 unknown #
coedge $-1 $146 $93 $237 $240 forward $155 $-1 #
coedge $-1 $93 $146 $233 $241 reversed $155 $-1 #
loop $-1 $-1 $153 $217 #
vertex $-1 $94 $242 #
vertex $-1 $94 $243 #
straight-curve $-1 63.108615375225071 0 9.8417775510199608 0 1 0 I I #
face $-1 $244 $245 $22 $-1 $246 reversed single #
loop $-1 $-1 $247 $95 #
plane-surface $-1 0 -31.362865188503758 0 0 1 0 0 0 1 forward_v I I I I #
coedge $-1 $165 $101 $248 $249 reversed $96 $-1 #
coedge $-1 $250 $98 $247 $251 reversed $61 $-1 #
coedge $-1 $98 $250 $252 $253 reversed $61 $-1 #
coedge $-1 $172 $162 $98 $166 reversed $96 $-1 #
edge $-1 $254 -31.362865188503758 $255 31.362865188503758 $165 $256 forward 7 unknown #
coedge $-1 $100 $99 $257 $258 reversed $39 $-1 #
coedge $-1 $259 $260 $99 $169 forward $261 $-1 #
edge $-1 $262 -33.20952214698859 $174 -26.588664309484383 $168 $263 forward 7 unknown #
coedge $-1 $264 $248 $100 $171 forward $160 $-1 #
edge $-1 $173 26.588664309484383 $265 33.20952214698859 $170 $266 forward 7 unknown #
coedge $-1 $101 $165 $259 $267 reversed $96 $-1 #
vertex $-1 $171 $268 #
vertex $-1 $169 $269 #
straight-curve $-1 -56.487757537720867 0 4.6030919381971813 0 1 0 I I #
face $-1 $-1 $270 $23 $-1 $271 reversed single #
loop $-1 $-1 $109 $103 #
plane-surface $-1 0 0 9.8417775510199608 0 0 1 1 0 0 forward_v I I I I #
coedge $-1 $272 $273 $274 $275 reversed $104 $-1 #
coedge $-1 $276 $106 $108 $186 forward $65 $-1 #
coedge $-1 $106 $276 $272 $277 forward $65 $-1 #
coedge $-1 $274 $109 $106 $183 forward $177 $-1 #
edge $-1 $189 11.219928246724926 $278 24.550469119858029 $182 $279 forward 7 unknown #
coedge $-1 $280 $281 $107 $185 forward $270 $-1 #
edge $-1 $282 -61.736298954870534 $188 -54.476343951485745 $184 $283 forward 7 unknown #
edge $-1 $189 53.635281934268505 $282 62.725730377007523 $108 $284 forward 7 unknown #
coedge $-1 $109 $274 $280 $285 forward $177 $-1 #
vertex $-1 $185 $286 #
vertex $-1 $110 $287 #
straight-curve $-1 29.105126930016404 47.207571244570396 9.841777551019959 0 -1 0 I I #
coedge $-1 $191 $191 $-1 $288 reversed $113 $-1 #
edge $-1 $289 0 $289 6.2831853071796004 $114 $290 forward 7 unknown #
vertex $-1 $117 $291 #
ellipse-curve $-1 32.913852893768706 28.627481018093484 6.2118000493275645 0 0.79863551827123203 0.60181501223851219 0.5 0 0 1 I I #
coedge $-1 $195 $195 $-1 $292 reversed $120 $-1 #
edge $-1 $293 0 $293 6.2831853071796004 $121 $294 forward 7 unknown #
vertex $-1 $124 $295 #
ellipse-curve $-1 38.626941839397176 28.627481018093484 6.2118000493275645 0 0.79863551827123203 0.60181501223851219 0.5 0 0 1 I I #
face $-1 $-1 $296 $26 $-1 $297 reversed single #
loop $-1 $-1 $298 $125 #
plane-surface $-1 -56.487757537720867 0 2.9206456674968333 -1 0 0 0 0 1 forward_v I I I I #
coedge $-1 $299 $128 $130 $208 forward $79 $-1 #
coedge $-1 $128 $299 $298 $300 reversed $79 $-1 #
coedge $-1 $301 $131 $128 $205 forward $126 $-1 #
edge $-1 $211 18.474822034621024 $302 31.500231013606903 $204 $303 forward 7 unknown #
coedge $-1 $304 $305 $129 $207 forward $296 $-1 #
edge $-1 $306 -50.756331137227335 $210 -45.256567324830385 $206 $307 forward 7 unknown #
edge $-1 $211 -10.0979977319975 $306 -4.4307663135772214e-015 $130 $308 forward 7 unknown #
coedge $-1 $131 $301 $304 $309 forward $126 $-1 #
vertex $-1 $207 $310 #
vertex $-1 $132 $311 #
straight-curve $-1 -43.462348558734988 -50.052848423683223 9.841777551019959 0 1 0 I I #
coedge $-1 $213 $213 $-1 $312 reversed $135 $-1 #
edge $-1 $313 0 $313 6.2831853071796004 $136 $314 forward 7 unknown #
vertex $-1 $139 $315 #
ellipse-curve $-1 -49.975053048227927 -27.128418465398259 7.0918956448214878 0 -0.54463904215088732 0.83867056331134215 2 0 0 1 I I #
face $-1 $-1 $155 $21 $-1 $316 reversed single #
loop $-1 $-1 $233 $140 #
plane-surface $-1 0 31.362865188503758 0 0 -1 0 0 0 -1 forward_v I I I I #
coedge $-1 $317 $231 $234 $318 forward $141 $-1 #
coedge $-1 $237 $143 $144 $225 reversed $88 $-1 #
coedge $-1 $231 $317 $143 $223 reversed $141 $-1 #
edge $-1 $238 -9.8417775510199608 $319 9.8417775510199608 $222 $320 forward 7 unknown #
coedge $-1 $145 $144 $317 $321 forward $57 $-1 #
edge $-1 $229 -63.108615375225071 $319 63.108615375225071 $221 $322 forward 7 unknown #
coedge $-1 $234 $233 $145 $227 reversed $218 $-1 #
edge $-1 $323 -63.108615375225071 $228 63.108615375225071 $226 $324 forward 7 unknown #
vertex $-1 $147 $325 #
vertex $-1 $240 $326 #
straight-curve $-1 63.108615375225071 0 -9.8417775510199608 0 -1 0 I I #
coedge $-1 $220 $222 $148 $232 reversed $141 $-1 #
edge $-1 $235 -31.362865188503758 $238 31.362865188503758 $231 $327 forward 7 unknown #
coedge $-1 $226 $149 $154 $241 forward $218 $-1 #
coedge $-1 $149 $226 $220 $318 reversed $218 $-1 #
vertex $-1 $150 $328 #
straight-curve $-1 0 31.362865188503758 9.8417775510199608 -1 0 0 I I #
coedge $-1 $151 $221 $153 $240 reversed $88 $-1 #
vertex $-1 $232 $329 #
straight-curve $-1 0 -31.362865188503758 9.8417775510199608 1 0 0 I I #
edge $-1 $156 -9.8417775510199608 $229 9.8417775510199608 $153 $330 forward 7 unknown #
edge $-1 $157 -9.8417775510199608 $228 9.8417775510199608 $154 $331 forward 7 unknown #
point $-1 63.108615375225071 -31.362865188503758 9.8417775510199608 #
point $-1 63.108615375225071 31.362865188503758 9.8417775510199608 #
face $-1 $-1 $261 $22 $-1 $332 reversed single #
loop $-1 $-1 $333 $159 #
plane-surface $-1 -63.108615375225071 0 0 1 0 0 0 0 -1 forward_v I I I I #
coedge $-1 $248 $264 $163 $251 forward $160 $-1 #
coedge $-1 $170 $247 $162 $249 forward $160 $-1 #
edge $-1 $255 -0.22212343695193137 $173 3.1427691044487647 $248 $334 forward 7 unknown #
coedge $-1 $164 $163 $333 $335 reversed $61 $-1 #
edge $-1 $336 -33.20952214698859 $255 -26.588664309484383 $247 $337 forward 7 unknown #
coedge $-1 $260 $259 $164 $253 forward $261 $-1 #
edge $-1 $254 26.588664309484383 $338 33.20952214698859 $252 $339 forward 7 unknown #
vertex $-1 $253 $340 #
vertex $-1 $251 $341 #
straight-curve $-1 -56.487757537720867 0 1.2381993967964853 0 -1 0 I I #
coedge $-1 $342 $343 $167 $258 forward $245 $-1 #
edge $-1 $265 -31.362865188503758 $262 31.362865188503758 $257 $344 forward 7 unknown #
coedge $-1 $252 $168 $172 $267 forward $261 $-1 #
coedge $-1 $168 $252 $342 $345 reversed $261 $-1 #
loop $-1 $-1 $252 $244 #
vertex $-1 $345 $346 #
straight-curve $-1 -29.899093228236485 31.362865188503758 4.6030919381971813 1 0 0 I I #
coedge $-1 $247 $170 $343 $347 forward $160 $-1 #
vertex $-1 $347 $348 #
straight-curve $-1 -29.899093228236485 -31.362865188503758 4.6030919381971813 -1 0 0 I I #
edge $-1 $174 -3.1427691044487647 $254 0.22212343695193137 $259 $349 forward 7 unknown #
point $-1 -56.487757537720867 -31.362865188503758 4.6030919381971813 #
point $-1 -56.487757537720867 31.362865188503758 4.6030919381971813 #
loop $-1 $-1 $184 $176 #
plane-surface $-1 0 31.362865188503758 0 0 -1 0 0 0 -1 forward_v I I I I #
coedge $-1 $273 $179 $181 $277 reversed $104 $-1 #
coedge $-1 $179 $272 $350 $351 reversed $104 $-1 #
coedge $-1 $187 $182 $179 $275 forward $177 $-1 #
edge $-1 $278 -21.315474396887176 $352 -15.844706056066638 $274 $353 forward 7 unknown #
coedge $-1 $181 $180 $281 $354 reversed $65 $-1 #
edge $-1 $355 -62.725730377007523 $278 -53.635281934268505 $272 $356 forward 7 unknown #
vertex $-1 $183 $357 #
straight-curve $-1 17.885198683291478 25.892096847683213 9.841777551019959 1 0 0 I I #
coedge $-1 $350 $184 $187 $285 reversed $270 $-1 #
coedge $-1 $184 $350 $276 $354 forward $270 $-1 #
vertex $-1 $185 $358 #
straight-curve $-1 29.105126930016404 31.362865188503758 64.318121502505704 0 0 1 I I #
straight-curve $-1 29.105126930016404 -6.3864210060046389 52.676818736218138 0 0.60181501223851219 -0.79863551827123203 I I #
edge $-1 $352 -42.435667803149506 $188 -29.105126930016404 $280 $359 forward 7 unknown #
point $-1 29.105126930016404 31.362865188503758 9.8417775510199608 #
point $-1 29.105126930016404 25.89209684768322 9.841777551019959 #
edge $-1 $360 1 $360 0 $191 $-1 forward 7 unknown #
vertex $-1 $192 $361 #
ellipse-curve $-1 32.913852893768706 27.589427893816872 5.429570935547293 0 0.79863551827123203 0.60181501223851219 0.5 0 0 1 I I #
point $-1 33.413852893768706 28.627481018093487 6.211800049327568 #
edge $-1 $362 1 $362 0 $195 $-1 forward 7 unknown #
vertex $-1 $196 $363 #
ellipse-curve $-1 38.626941839397176 27.589427893816872 5.429570935547293 0 0.79863551827123203 0.60181501223851219 0.5 0 0 1 I I #
point $-1 39.126941839397176 28.627481018093487 6.211800049327568 #
loop $-1 $-1 $206 $199 #
plane-surface $-1 0 -31.362865188503758 0 0 1 0 0 0 1 forward_v I I I I #
coedge $-1 $364 $365 $203 $300 forward $200 $-1 #
coedge $-1 $203 $202 $305 $366 reversed $79 $-1 #
edge $-1 $302 2.6664919029515604 $367 12.764489634949056 $298 $368 forward 7 unknown #
coedge $-1 $209 $204 $365 $369 forward $126 $-1 #
vertex $-1 $205 $370 #
straight-curve $-1 -24.987526524113964 -22.893971742292763 9.8417775510199608 -1 0 0 I I #
coedge $-1 $371 $206 $209 $309 reversed $296 $-1 #
coedge $-1 $206 $371 $299 $366 forward $296 $-1 #
vertex $-1 $207 $372 #
straight-curve $-1 -43.462348558734988 -31.362865188503761 55.098344875850344 0 0 1 I I #
straight-curve $-1 -43.462348558734988 -31.362865188503761 4.3420137386230095 0 -0.83867056331134215 -0.54463904215088732 I I #
edge $-1 $373 -56.487757537720867 $210 -43.462348558734988 $304 $374 forward 7 unknown #
point $-1 -43.462348558734988 -31.362865188503758 9.8417775510199608 #
point $-1 -43.462348558734988 -22.893971742292763 9.8417775510199608 #
edge $-1 $375 1 $375 0 $213 $-1 forward 7 unknown #
vertex $-1 $214 $376 #
ellipse-curve $-1 -49.975053048227927 -24.221272319877627 2.6152832340337904 0 -0.54463904215088732 0.83867056331134215 2 0 0 1 I I #
point $-1 -47.975053048227927 -27.128418465398259 7.0918956448214843 #
plane-surface $-1 63.108615375225071 0 0 -1 0 0 0 0 1 forward_v I I I I #
coedge $-1 $222 $220 $224 $321 reversed $141 $-1 #
edge $-1 $235 -9.8417775510199608 $323 9.8417775510199608 $234 $377 forward 7 unknown #
vertex $-1 $321 $378 #
straight-curve $-1 -63.108615375225071 -31.362865188503758 0 0 0 -1 I I #
edge $-1 $319 -31.362865188503758 $323 31.362865188503758 $317 $379 forward 7 unknown #
straight-curve $-1 0 -31.362865188503758 -9.8417775510199608 -1 0 0 I I #
vertex $-1 $227 $380 #
straight-curve $-1 0 31.362865188503758 -9.8417775510199608 1 0 0 I I #
point $-1 63.108615375225071 31.362865188503758 -9.8417775510199608 #
point $-1 63.108615375225071 -31.362865188503758 -9.8417775510199608 #
straight-curve $-1 -63.108615375225071 0 9.8417775510199608 0 -1 0 I I #
point $-1 -63.108615375225071 31.362865188503758 9.8417775510199608 #
point $-1 -63.108615375225071 -31.362865188503758 9.8417775510199608 #
straight-curve $-1 63.108615375225071 -31.362865188503758 0 0 0 -1 I I #
straight-curve $-1 63.108615375225071 31.362865188503758 0 0 0 -1 I I #
plane-surface $-1 0 31.362865188503758 0 0 -1 0 0 0 -1 forward_v I I I I #
coedge $-1 $343 $342 $250 $335 forward $245 $-1 #
straight-curve $-1 -56.487757537720867 -31.362865188503758 1.4603228337484166 0 0 1 I I #
edge $-1 $338 -31.362865188503758 $336 31.362865188503758 $333 $381 forward 7 unknown #
vertex $-1 $251 $382 #
straight-curve $-1 -29.899093228236485 -31.362865188503758 1.2381993967964853 1 0 0 I I #
vertex $-1 $253 $383 #
straight-curve $-1 -29.899093228236485 31.362865188503758 1.2381993967964853 -1 0 0 I I #
point $-1 -56.487757537720867 31.362865188503758 1.2381993967964853 #
point $-1 -56.487757537720867 -31.362865188503758 1.2381993967964853 #
coedge $-1 $333 $257 $260 $345 forward $245 $-1 #
coedge $-1 $257 $333 $264 $347 reversed $245 $-1 #
straight-curve $-1 -63.108615375225071 0 4.6030919381971813 0 1 0 I I #
edge $-1 $262 -4.6030919381971813 $338 -1.2381993967964853 $260 $384 forward 7 unknown #
point $-1 -63.108615375225071 31.362865188503758 4.6030919381971813 #
edge $-1 $265 -4.6030919381971813 $336 -1.2381993967964853 $343 $385 forward 7 unknown #
point $-1 -63.108615375225071 -31.362865188503758 4.6030919381971813 #
straight-curve $-1 -56.487757537720867 31.362865188503758 1.4603228337484166 0 0 -1 I I #
coedge $-1 $281 $280 $273 $351 forward $270 $-1 #
edge $-1 $352 54.476343951485745 $355 61.736298954870534 $350 $386 forward 7 unknown #
vertex $-1 $285 $387 #
straight-curve $-1 42.435667803149506 47.207571244570396 9.841777551019959 0 1 0 I I #
edge $-1 $355 -24.550469119858029 $282 -11.219928246724926 $281 $388 forward 7 unknown #
vertex $-1 $354 $389 #
straight-curve $-1 42.435667803149506 -6.3864210060046389 52.676818736218138 0 -0.60181501223851219 0.79863551827123203 I I #
point $-1 42.435667803149506 25.89209684768322 9.841777551019959 #
point $-1 29.105126930016404 31.362865188503761 2.5818225476351699 #
straight-curve $-1 0 31.362865188503758 9.8417775510199608 -1 0 0 I I #
vertex $-1 $288 $390 #
point $-1 33.413852893768706 27.589427893816872 5.429570935547293 #
vertex $-1 $292 $391 #
point $-1 39.126941839397176 27.589427893816872 5.429570935547293 #
coedge $-1 $365 $298 $371 $392 reversed $200 $-1 #
coedge $-1 $298 $364 $301 $369 reversed $200 $-1 #
edge $-1 $367 -31.500231013606903 $306 -18.474822034621024 $305 $393 forward 7 unknown #
vertex $-1 $300 $394 #
straight-curve $-1 -56.487757537720867 -20.657663475979245 11.294053146946595 0 -0.83867056331134215 -0.54463904215088732 I I #
edge $-1 $302 -27.15887668139046 $373 -18.689983235179465 $301 $395 forward 7 unknown #
point $-1 -56.487757537720867 -22.893971742292763 9.8417775510199608 #
coedge $-1 $305 $304 $364 $392 forward $296 $-1 #
point $-1 -43.462348558734988 -31.362865188503758 4.3420137386230122 #
vertex $-1 $309 $396 #
straight-curve $-1 0 -31.362865188503758 9.8417775510199608 1 0 0 I I #
vertex $-1 $312 $397 #
point $-1 -47.975053048227927 -24.221272319877627 2.6152832340337904 #
straight-curve $-1 -63.108615375225071 31.362865188503758 0 0 0 -1 I I #
point $-1 -63.108615375225071 -31.362865188503758 -9.8417775510199608 #
straight-curve $-1 -63.108615375225071 0 -9.8417775510199608 0 1 0 I I #
point $-1 -63.108615375225071 31.362865188503758 -9.8417775510199608 #
straight-curve $-1 -63.108615375225071 0 1.2381993967964853 0 -1 0 I I #
point $-1 -63.108615375225071 -31.362865188503758 1.2381993967964853 #
point $-1 -63.108615375225071 31.362865188503758 1.2381993967964853 #
straight-curve $-1 -63.108615375225071 31.362865188503758 0 0 0 -1 I I #
straight-curve $-1 -63.108615375225071 -31.362865188503758 0 0 0 -1 I I #
straight-curve $-1 42.435667803149506 31.362865188503758 64.318121502505704 0 0 -1 I I #
point $-1 42.435667803149506 31.362865188503758 9.8417775510199608 #
straight-curve $-1 17.885198683291478 31.362865188503758 2.5818225476351699 -1 0 0 I I #
point $-1 42.435667803149506 31.362865188503761 2.5818225476351699 #
point $-1 32.913852893768706 27.190110134681259 5.1286634294280375 #
point $-1 38.626941839397176 27.190110134681259 5.1286634294280375 #
edge $-1 $373 45.256567324830385 $367 50.756331137227335 $371 $398 forward 7 unknown #
straight-curve $-1 -24.987526524113964 -31.362865188503758 4.3420137386230122 1 0 0 I I #
point $-1 -56.487757537720867 -31.362865188503758 4.3420137386230113 #
straight-curve $-1 -56.487757537720867 -50.052848423683223 9.841777551019959 0 -1 0 I I #
point $-1 -56.487757537720867 -31.362865188503758 9.8417775510199608 #
point $-1 -49.975053048227927 -23.131994235575853 0.93794210741110617 #
straight-curve $-1 -56.487757537720867 -31.362865188503761 55.098344875850344 0 0 -1 I I #
End-of-ACIS-data 