500 0 18 0           
7 Unknown 11 ACIS 5.0 NT 24 Thu Mar 25 19:18:49 1999 
-1 9.9999999999999995e-007 1e-010 
body $-1 $18 $-1 $19 #
body $-1 $20 $-1 $21 #
body $-1 $22 $-1 $23 #
body $-1 $24 $-1 $25 #
body $-1 $26 $-1 $27 #
body $-1 $28 $-1 $29 #
body $-1 $30 $-1 $31 #
body $-1 $32 $-1 $33 #
body $-1 $34 $-1 $35 #
body $-1 $36 $-1 $37 #
body $-1 $38 $-1 $39 #
body $-1 $40 $-1 $41 #
body $-1 $42 $-1 $43 #
body $-1 $44 $-1 $45 #
body $-1 $46 $-1 $47 #
body $-1 $48 $-1 $49 #
body $-1 $50 $-1 $51 #
body $-1 $52 $-1 $53 #
lump $-1 $-1 $54 $0 #
transform $-1 1 0 0 0 1 0 0 0 1 71.286355174413274 31.526595621783351 13.519961211515778 1 rotate no_reflect no_shear #
lump $-1 $-1 $55 $1 #
transform $-1 1 0 0 0 1 0 0 0 1 71.286355174413274 31.526595621783351 13.519961211515778 1 rotate no_reflect no_shear #
lump $-1 $-1 $56 $2 #
transform $-1 1 0 0 0 1 0 0 0 1 71.286355174413274 31.526595621783351 13.519961211515778 1 rotate no_reflect no_shear #
lump $-1 $-1 $57 $3 #
transform $-1 1 0 0 0 1 0 0 0 1 71.286355174413274 31.526595621783351 13.519961211515778 1 rotate no_reflect no_shear #
lump $-1 $-1 $58 $4 #
transform $-1 1 0 0 0 1 0 0 0 1 71.286355174413274 31.526595621783351 13.519961211515778 1 rotate no_reflect no_shear #
lump $-1 $-1 $59 $5 #
transform $-1 1 0 0 0 1 0 0 0 1 71.286355174413274 31.526595621783351 13.519961211515778 1 rotate no_reflect no_shear #
lump $-1 $-1 $60 $6 #
transform $-1 1 0 0 0 1 0 0 0 1 71.286355174413274 31.526595621783351 13.519961211515778 1 rotate no_reflect no_shear #
lump $-1 $-1 $61 $7 #
transform $-1 1 0 0 0 1 0 0 0 1 71.286355174413274 31.526595621783351 13.519961211515778 1 rotate no_reflect no_shear #
lump $-1 $-1 $62 $8 #
transform $-1 1 0 0 0 1 0 0 0 1 71.286355174413274 31.526595621783351 13.519961211515778 1 rotate no_reflect no_shear #
lump $-1 $-1 $63 $9 #
transform $-1 1 0 0 0 1 0 0 0 1 71.286355174413274 31.526595621783351 13.519961211515778 1 rotate no_reflect no_shear #
lump $-1 $-1 $64 $10 #
transform $-1 1 0 0 0 1 0 0 0 1 71.286355174413274 31.526595621783351 13.519961211515778 1 rotate no_reflect no_shear #
lump $-1 $-1 $65 $11 #
transform $-1 1 0 0 0 1 0 0 0 1 71.286355174413274 31.526595621783351 13.519961211515778 1 rotate no_reflect no_shear #
lump $-1 $-1 $66 $12 #
transform $-1 1 0 0 0 1 0 0 0 1 71.286355174413274 31.526595621783351 13.519961211515778 1 rotate no_reflect no_shear #
lump $-1 $-1 $67 $13 #
transform $-1 1 0 0 0 1 0 0 0 1 71.286355174413274 31.526595621783351 13.519961211515778 1 rotate no_reflect no_shear #
lump $-1 $-1 $68 $14 #
transform $-1 1 0 0 0 1 0 0 0 1 71.286355174413274 31.526595621783351 13.519961211515778 1 rotate no_reflect no_shear #
lump $-1 $-1 $69 $15 #
transform $-1 1 0 0 0 1 0 0 0 1 71.286355174413274 31.526595621783351 13.519961211515778 1 rotate no_reflect no_shear #
lump $-1 $-1 $70 $16 #
transform $-1 1 0 0 0 1 0 0 0 1 71.286355174413274 31.526595621783351 13.519961211515778 1 rotate no_reflect no_shear #
lump $-1 $-1 $71 $17 #
transform $-1 1 0 0 0 1 0 0 0 1 71.286355174413274 31.526595621783351 13.519961211515778 1 rotate no_reflect no_shear #
shell $-1 $-1 $-1 $72 $-1 $18 #
shell $-1 $-1 $-1 $73 $-1 $20 #
shell $-1 $-1 $-1 $74 $-1 $22 #
shell $-1 $-1 $-1 $75 $-1 $24 #
shell $-1 $-1 $-1 $76 $-1 $26 #
shell $-1 $-1 $-1 $77 $-1 $28 #
shell $-1 $-1 $-1 $78 $-1 $30 #
shell $-1 $-1 $-1 $79 $-1 $32 #
shell $-1 $-1 $-1 $80 $-1 $34 #
shell $-1 $-1 $-1 $81 $-1 $36 #
shell $-1 $-1 $-1 $82 $-1 $38 #
shell $-1 $-1 $-1 $83 $-1 $40 #
shell $-1 $-1 $-1 $84 $-1 $42 #
shell $-1 $-1 $-1 $85 $-1 $44 #
shell $-1 $-1 $-1 $86 $-1 $46 #
shell $-1 $-1 $-1 $87 $-1 $48 #
shell $-1 $-1 $-1 $88 $-1 $50 #
shell $-1 $-1 $-1 $89 $-1 $52 #
face $-1 $90 $91 $54 $-1 $92 forward single #
face $-1 $93 $94 $55 $-1 $95 forward single #
face $-1 $96 $97 $56 $-1 $98 forward single #
face $-1 $99 $100 $57 $-1 $101 reversed single #
face $-1 $102 $103 $58 $-1 $104 forward single #
face $-1 $105 $106 $59 $-1 $107 forward single #
face $-1 $108 $109 $60 $-1 $110 reversed single #
face $-1 $111 $112 $61 $-1 $113 forward single #
face $-1 $114 $115 $62 $-1 $116 forward single #
face $-1 $117 $118 $63 $-1 $119 reversed single #
face $-1 $120 $121 $64 $-1 $122 forward single #
face $-1 $123 $124 $65 $-1 $125 forward single #
face $-1 $126 $127 $66 $-1 $128 reversed single #
face $-1 $129 $130 $67 $-1 $131 forward single #
face $-1 $132 $133 $68 $-1 $134 forward single #
face $-1 $135 $136 $69 $-1 $137 reversed single #
face $-1 $138 $139 $70 $-1 $140 forward single #
face $-1 $141 $142 $71 $-1 $143 forward single #
face $-1 $144 $145 $54 $-1 $146 reversed single #
loop $-1 $-1 $147 $72 #
plane-surface $-1 0 0 13.519961211515778 0 0 1 1 0 0 forward_v I I I I #
face $-1 $148 $149 $55 $-1 $150 reversed single #
loop $-1 $-1 $151 $73 #
plane-surface $-1 -64.759069576585517 0 -9.5466184436501003 0 0 1 1 0 0 forward_v I I I I #
face $-1 $152 $153 $56 $-1 $154 reversed single #
loop $-1 $-1 $155 $74 #
plane-surface $-1 64.759069576585517 0 -9.5466184436501003 0 0 1 1 0 0 forward_v I I I I #
face $-1 $156 $157 $57 $-1 $158 reversed single #
loop $-1 $-1 $159 $75 #
plane-surface $-1 26.48447005458636 -130.56592342811587 102.85519839321879 1 0 0 0 0.69465837861970381 -0.71933979245794832 forward_v I I I I #
face $-1 $160 $161 $58 $-1 $162 forward single #
loop $-1 $163 $164 $76 #
cone-surface $-1 35.5551311757782 -21.38919507508713 3.5005387955029335 0 0.69465837861970381 -0.71933979245794832 2.5 0 0 1 I I 0 1 2.5 forward I I I I #
face $-1 $165 $166 $59 $-1 $167 forward single #
loop $-1 $168 $169 $77 #
cone-surface $-1 49.161122857565942 -21.38919507508713 3.5005387955029335 0 0.69465837861970381 -0.71933979245794832 2.5 0 0 1 I I 0 1 2.5 forward I I I I #
face $-1 $170 $171 $60 $-1 $172 reversed single #
loop $-1 $-1 $173 $78 #
plane-surface $-1 -29.115891989378863 56.296404604204277 158.55391489979868 -1 0 0 0 0.54463904215088732 0.83867056331134215 forward_v I I I I #
face $-1 $174 $175 $61 $-1 $176 forward single #
loop $-1 $177 $178 $79 #
cone-surface $-1 -37.820295756015575 23.868777421701104 7.8151975617041352 0 -0.54463904215088732 -0.83867056331134215 1.5 0 0 1 I I 0 1 1.5 forward I I I I #
face $-1 $179 $180 $62 $-1 $181 forward single #
loop $-1 $182 $183 $80 #
cone-surface $-1 -32.597653496033551 23.868777421701104 7.8151975617041352 0 -0.54463904215088732 -0.83867056331134215 1.5 0 0 1 I I 0 1 1.5 forward I I I I #
face $-1 $184 $185 $63 $-1 $186 reversed single #
loop $-1 $-1 $187 $81 #
plane-surface $-1 1.7763568394002505e-014 56.296404604204277 158.55391489979868 -1 0 0 0 0.54463904215088732 0.83867056331134215 forward_v I I I I #
face $-1 $188 $189 $64 $-1 $190 forward single #
loop $-1 $191 $192 $82 #
cone-surface $-1 -8.7044037666366947 23.868777421701104 7.8151975617041352 0 -0.54463904215088732 -0.83867056331134215 1.5 0 0 1 I I 0 1 1.5 forward I I I I #
face $-1 $193 $194 $65 $-1 $195 forward single #
loop $-1 $196 $197 $83 #
cone-surface $-1 -3.4817615066546637 23.868777421701104 7.8151975617041352 0 -0.54463904215088732 -0.83867056331134215 1.5 0 0 1 I I 0 1 1.5 forward I I I I #
face $-1 $198 $199 $66 $-1 $200 reversed single #
loop $-1 $-1 $201 $84 #
plane-surface $-1 29.115891989378898 56.296404604204277 158.55391489979868 -1 0 0 0 0.54463904215088732 0.83867056331134215 forward_v I I I I #
face $-1 $202 $203 $67 $-1 $204 forward single #
loop $-1 $205 $206 $85 #
cone-surface $-1 20.411488222742179 23.868777421701104 7.8151975617041352 0 -0.54463904215088732 -0.83867056331134215 1.5 0 0 1 I I 0 1 1.5 forward I I I I #
face $-1 $207 $208 $68 $-1 $209 forward single #
loop $-1 $210 $211 $86 #
cone-surface $-1 25.634130482724217 23.868777421701104 7.8151975617041352 0 -0.54463904215088732 -0.83867056331134215 1.5 0 0 1 I I 0 1 1.5 forward I I I I #
face $-1 $212 $213 $69 $-1 $214 reversed single #
loop $-1 $-1 $215 $87 #
plane-surface $-1 58.231783978757775 56.296404604204277 158.55391489979868 -1 0 0 0 0.54463904215088732 0.83867056331134215 forward_v I I I I #
face $-1 $216 $217 $70 $-1 $218 forward single #
loop $-1 $219 $220 $88 #
cone-surface $-1 49.527380212121059 23.868777421701104 7.8151975617041352 0 -0.54463904215088732 -0.83867056331134215 1.5 0 0 1 I I 0 1 1.5 forward I I I I #
face $-1 $221 $222 $71 $-1 $223 forward single #
loop $-1 $224 $225 $89 #
cone-surface $-1 54.750022472103097 23.868777421701104 7.8151975617041352 0 -0.54463904215088732 -0.83867056331134215 1.5 0 0 1 I I 0 1 1.5 forward I I I I #
face $-1 $226 $227 $54 $-1 $228 reversed single #
loop $-1 $-1 $229 $90 #
plane-surface $-1 0 0 -13.519961211515778 0 0 1 1 0 0 forward_v I I I I #
coedge $-1 $230 $231 $232 $233 forward $91 $-1 #
face $-1 $234 $235 $55 $-1 $236 reversed single #
loop $-1 $-1 $237 $93 #
plane-surface $-1 -58.231783978757754 0 -11.533289827582939 -1 0 0 0 0 1 forward_v I I I I #
coedge $-1 $238 $239 $240 $241 forward $94 $-1 #
face $-1 $242 $243 $56 $-1 $244 reversed single #
loop $-1 $-1 $245 $96 #
plane-surface $-1 58.231783978757761 0 -11.533289827582939 1 0 0 0 0 -1 forward_v I I I I #
coedge $-1 $246 $247 $248 $249 reversed $97 $-1 #
face $-1 $250 $251 $57 $-1 $252 reversed single #
loop $-1 $-1 $253 $99 #
plane-surface $-1 42.358127016672057 -31.526595621783358 0.29697452072672093 0 -0.69465837861970381 0.71933979245794832 1 0 0 forward_v I I I I #
coedge $-1 $254 $255 $256 $257 reversed $100 $-1 #
face $-1 $-1 $258 $58 $-1 $259 forward single #
loop $-1 $260 $261 $102 #
cone-surface $-1 35.5551311757782 -17.229873178261276 -0.8065650156878128 0 0.69465837861970381 -0.71933979245794832 1.25 0 0 1 I I -0.70710678118654746 0.70710678118654746 1.25 forward I I I I #
loop $-1 $-1 $262 $76 #
coedge $-1 $164 $164 $263 $264 reversed $103 $-1 #
face $-1 $-1 $265 $59 $-1 $266 forward single #
loop $-1 $267 $268 $105 #
cone-surface $-1 49.161122857565942 -17.229873178261276 -0.8065650156878128 0 0.69465837861970381 -0.71933979245794832 1.25 0 0 1 I I -0.70710678118654746 0.70710678118654746 1.25 forward I I I I #
loop $-1 $-1 $269 $77 #
coedge $-1 $169 $169 $270 $271 reversed $106 $-1 #
face $-1 $272 $273 $60 $-1 $274 reversed single #
loop $-1 $-1 $275 $108 #
plane-surface $-1 -35.208974626024556 -21.354259797036512 38.982379598723497 0 0.54463904215088732 0.83867056331134215 1 0 0 forward_v I I I I #
coedge $-1 $276 $277 $278 $279 reversed $109 $-1 #
face $-1 $-1 $280 $61 $-1 $281 forward single #
loop $-1 $282 $283 $111 #
cone-surface $-1 -37.820295756015575 22.638565030370998 5.920836637531572 0 -0.54463904215088732 -0.83867056331134215 0.75 0 0 1 I I -0.70710678118654757 0.70710678118654757 0.75 forward I I I I #
loop $-1 $-1 $284 $79 #
coedge $-1 $178 $178 $285 $286 reversed $112 $-1 #
face $-1 $-1 $287 $62 $-1 $288 forward single #
loop $-1 $289 $290 $114 #
cone-surface $-1 -32.597653496033551 22.638565030370998 5.920836637531572 0 -0.54463904215088732 -0.83867056331134215 0.75 0 0 1 I I -0.70710678118654757 0.70710678118654757 0.75 forward I I I I #
loop $-1 $-1 $291 $80 #
coedge $-1 $183 $183 $292 $293 reversed $115 $-1 #
face $-1 $294 $295 $63 $-1 $296 reversed single #
loop $-1 $-1 $297 $117 #
plane-surface $-1 -6.0930826366456756 -21.354259797036512 38.982379598723497 0 0.54463904215088732 0.83867056331134215 1 0 0 forward_v I I I I #
coedge $-1 $298 $299 $300 $301 reversed $118 $-1 #
face $-1 $-1 $302 $64 $-1 $303 forward single #
loop $-1 $304 $305 $120 #
cone-surface $-1 -8.7044037666366947 22.638565030370998 5.920836637531572 0 -0.54463904215088732 -0.83867056331134215 0.75 0 0 1 I I -0.70710678118654757 0.70710678118654757 0.75 forward I I I I #
loop $-1 $-1 $306 $82 #
coedge $-1 $192 $192 $307 $308 reversed $121 $-1 #
face $-1 $-1 $309 $65 $-1 $310 forward single #
loop $-1 $311 $312 $123 #
cone-surface $-1 -3.4817615066546637 22.638565030370998 5.920836637531572 0 -0.54463904215088732 -0.83867056331134215 0.75 0 0 1 I I -0.70710678118654757 0.70710678118654757 0.75 forward I I I I #
loop $-1 $-1 $313 $83 #
coedge $-1 $197 $197 $314 $315 reversed $124 $-1 #
face $-1 $316 $317 $66 $-1 $318 reversed single #
loop $-1 $-1 $319 $126 #
plane-surface $-1 23.022809352733205 -21.354259797036512 38.982379598723497 0 0.54463904215088732 0.83867056331134215 1 0 0 forward_v I I I I #
coedge $-1 $320 $321 $322 $323 reversed $127 $-1 #
face $-1 $-1 $324 $67 $-1 $325 forward single #
loop $-1 $326 $327 $129 #
cone-surface $-1 20.411488222742179 22.638565030370998 5.920836637531572 0 -0.54463904215088732 -0.83867056331134215 0.75 0 0 1 I I -0.70710678118654757 0.70710678118654757 0.75 forward I I I I #
loop $-1 $-1 $328 $85 #
coedge $-1 $206 $206 $329 $330 reversed $130 $-1 #
face $-1 $-1 $331 $68 $-1 $332 forward single #
loop $-1 $333 $334 $132 #
cone-surface $-1 25.634130482724217 22.638565030370998 5.920836637531572 0 -0.54463904215088732 -0.83867056331134215 0.75 0 0 1 I I -0.70710678118654757 0.70710678118654757 0.75 forward I I I I #
loop $-1 $-1 $335 $86 #
coedge $-1 $211 $211 $336 $337 reversed $133 $-1 #
face $-1 $338 $339 $69 $-1 $340 reversed single #
loop $-1 $-1 $341 $135 #
plane-surface $-1 52.138701342112086 -21.354259797036512 38.982379598723497 0 0.54463904215088732 0.83867056331134215 1 0 0 forward_v I I I I #
coedge $-1 $342 $343 $344 $345 reversed $136 $-1 #
face $-1 $-1 $346 $70 $-1 $347 forward single #
loop $-1 $348 $349 $138 #
cone-surface $-1 49.527380212121059 22.638565030370998 5.920836637531572 0 -0.54463904215088732 -0.83867056331134215 0.75 0 0 1 I I -0.70710678118654757 0.70710678118654757 0.75 forward I I I I #
loop $-1 $-1 $350 $88 #
coedge $-1 $220 $220 $351 $352 reversed $139 $-1 #
face $-1 $-1 $353 $71 $-1 $354 forward single #
loop $-1 $355 $356 $141 #
cone-surface $-1 54.750022472103097 22.638565030370998 5.920836637531572 0 -0.54463904215088732 -0.83867056331134215 0.75 0 0 1 I I -0.70710678118654757 0.70710678118654757 0.75 forward I I I I #
loop $-1 $-1 $357 $89 #
coedge $-1 $225 $225 $358 $359 reversed $142 $-1 #
face $-1 $360 $361 $54 $-1 $362 reversed single #
loop $-1 $-1 $363 $144 #
plane-surface $-1 0 -31.526595621783351 0 0 1 0 0 0 1 forward_v I I I I #
coedge $-1 $364 $365 $366 $367 forward $145 $-1 #
coedge $-1 $368 $147 $369 $370 forward $91 $-1 #
coedge $-1 $147 $368 $371 $372 forward $91 $-1 #
coedge $-1 $373 $374 $147 $233 reversed $375 $-1 #
edge $-1 $376 -31.526595621783351 $377 31.526595621783351 $232 $378 forward 7 unknown #
face $-1 $379 $380 $55 $-1 $381 reversed single #
loop $-1 $-1 $382 $148 #
plane-surface $-1 0 0 -13.519961211515778 0 0 1 1 0 0 forward_v I I I I #
coedge $-1 $383 $240 $384 $385 reversed $149 $-1 #
coedge $-1 $386 $151 $387 $388 reversed $94 $-1 #
coedge $-1 $151 $386 $389 $390 reversed $94 $-1 #
coedge $-1 $237 $391 $151 $241 reversed $149 $-1 #
edge $-1 $392 -31.526595621783351 $393 31.526595621783351 $240 $394 forward 7 unknown #
face $-1 $395 $396 $56 $-1 $397 reversed single #
loop $-1 $-1 $398 $152 #
plane-surface $-1 0 -31.526595621783351 0 0 1 0 0 0 1 forward_v I I I I #
coedge $-1 $399 $400 $401 $402 reversed $153 $-1 #
coedge $-1 $403 $155 $404 $405 reversed $97 $-1 #
coedge $-1 $155 $403 $398 $406 reversed $97 $-1 #
coedge $-1 $407 $408 $155 $249 forward $409 $-1 #
edge $-1 $410 -31.526595621783351 $411 31.526595621783351 $248 $412 forward 7 unknown #
face $-1 $413 $414 $57 $-1 $415 forward single #
loop $-1 $-1 $416 $156 #
plane-surface $-1 58.231783978757754 -130.56592342811587 102.85519839321879 -1 0 0 0 -0.69465837861970381 0.71933979245794832 forward_v I I I I #
coedge $-1 $417 $418 $419 $420 reversed $157 $-1 #
coedge $-1 $255 $159 $421 $422 reversed $100 $-1 #
coedge $-1 $159 $254 $417 $423 reversed $100 $-1 #
coedge $-1 $419 $424 $159 $257 forward $425 $-1 #
edge $-1 $426 37.907637985093615 $427 51.130624675882665 $256 $428 forward 7 unknown #
loop $-1 $-1 $263 $160 #
plane-surface $-1 42.358127016672057 -31.526595621783358 0.29697452072672093 0 -0.69465837861970381 0.71933979245794832 1 0 0 forward_v I I I I #
loop $-1 $-1 $429 $102 #
coedge $-1 $261 $261 $262 $430 reversed $161 $-1 #
coedge $-1 $262 $262 $261 $430 forward $163 $-1 #
coedge $-1 $263 $263 $164 $264 forward $258 $-1 #
edge $-1 $431 5.9880766062944049e-016 $431 6.2831853071796013 $263 $432 forward 7 unknown #
loop $-1 $-1 $270 $165 #
plane-surface $-1 42.358127016672057 -31.526595621783358 0.29697452072672093 0 -0.69465837861970381 0.71933979245794832 1 0 0 forward_v I I I I #
loop $-1 $-1 $433 $105 #
coedge $-1 $268 $268 $269 $434 reversed $166 $-1 #
coedge $-1 $269 $269 $268 $434 forward $168 $-1 #
coedge $-1 $270 $270 $169 $271 forward $265 $-1 #
edge $-1 $435 5.9880766062944049e-016 $435 6.2831853071796013 $270 $436 forward 7 unknown #
face $-1 $437 $438 $60 $-1 $439 reversed single #
loop $-1 $-1 $440 $170 #
plane-surface $-1 -41.302057262670246 56.296404604204277 158.55391489979868 1 0 0 0 -0.54463904215088732 -0.83867056331134215 forward_v I I I I #
coedge $-1 $441 $442 $443 $444 reversed $171 $-1 #
coedge $-1 $277 $173 $445 $446 reversed $109 $-1 #
coedge $-1 $173 $276 $441 $447 reversed $109 $-1 #
coedge $-1 $443 $448 $173 $279 forward $438 $-1 #
edge $-1 $449 65.756996238383564 $450 74.635807534628725 $278 $451 forward 7 unknown #
loop $-1 $-1 $285 $174 #
plane-surface $-1 -35.208974626024556 -21.354259797036512 38.982379598723497 0 0.54463904215088732 0.83867056331134215 1 0 0 forward_v I I I I #
loop $-1 $-1 $452 $111 #
coedge $-1 $283 $283 $284 $453 reversed $175 $-1 #
coedge $-1 $284 $284 $283 $453 forward $177 $-1 #
coedge $-1 $285 $285 $178 $286 forward $280 $-1 #
edge $-1 $454 -1.0284869292818256e-016 $454 6.2831853071796004 $285 $455 forward 7 unknown #
loop $-1 $-1 $292 $179 #
plane-surface $-1 -35.208974626024556 -21.354259797036512 38.982379598723497 0 0.54463904215088732 0.83867056331134215 1 0 0 forward_v I I I I #
loop $-1 $-1 $456 $114 #
coedge $-1 $290 $290 $291 $457 reversed $180 $-1 #
coedge $-1 $291 $291 $290 $457 forward $182 $-1 #
coedge $-1 $292 $292 $183 $293 forward $287 $-1 #
edge $-1 $458 -1.0284869292818256e-016 $458 6.2831853071796004 $292 $459 forward 7 unknown #
face $-1 $460 $461 $63 $-1 $462 reversed single #
loop $-1 $-1 $463 $184 #
plane-surface $-1 -12.186165273291369 56.296404604204277 158.55391489979868 1 0 0 0 -0.54463904215088732 -0.83867056331134215 forward_v I I I I #
coedge $-1 $464 $465 $466 $467 reversed $185 $-1 #
coedge $-1 $299 $187 $468 $469 reversed $118 $-1 #
coedge $-1 $187 $298 $464 $470 reversed $118 $-1 #
coedge $-1 $466 $471 $187 $301 forward $461 $-1 #
edge $-1 $472 65.756996238383564 $473 74.635807534628725 $300 $474 forward 7 unknown #
loop $-1 $-1 $307 $188 #
plane-surface $-1 -6.0930826366456756 -21.354259797036512 38.982379598723497 0 0.54463904215088732 0.83867056331134215 1 0 0 forward_v I I I I #
loop $-1 $-1 $475 $120 #
coedge $-1 $305 $305 $306 $476 reversed $189 $-1 #
coedge $-1 $306 $306 $305 $476 forward $191 $-1 #
coedge $-1 $307 $307 $192 $308 forward $302 $-1 #
edge $-1 $477 -1.0284869292818256e-016 $477 6.2831853071796004 $307 $478 forward 7 unknown #
loop $-1 $-1 $314 $193 #
plane-surface $-1 -6.0930826366456756 -21.354259797036512 38.982379598723497 0 0.54463904215088732 0.83867056331134215 1 0 0 forward_v I I I I #
loop $-1 $-1 $479 $123 #
coedge $-1 $312 $312 $313 $480 reversed $194 $-1 #
coedge $-1 $313 $313 $312 $480 forward $196 $-1 #
coedge $-1 $314 $314 $197 $315 forward $309 $-1 #
edge $-1 $481 -1.0284869292818256e-016 $481 6.2831853071796004 $314 $482 forward 7 unknown #
face $-1 $483 $484 $66 $-1 $485 forward single #
loop $-1 $-1 $486 $198 #
plane-surface $-1 16.929726716087512 56.296404604204277 158.55391489979868 1 0 0 0 -0.54463904215088732 -0.83867056331134215 forward_v I I I I #
coedge $-1 $487 $488 $489 $490 reversed $199 $-1 #
coedge $-1 $321 $201 $491 $492 reversed $127 $-1 #
coedge $-1 $201 $320 $487 $493 reversed $127 $-1 #
coedge $-1 $489 $494 $201 $323 forward $495 $-1 #
edge $-1 $496 65.756996238383564 $497 74.635807534628725 $322 $498 forward 7 unknown #
loop $-1 $-1 $329 $202 #
plane-surface $-1 23.022809352733205 -21.354259797036512 38.982379598723497 0 0.54463904215088732 0.83867056331134215 1 0 0 forward_v I I I I #
loop $-1 $-1 $499 $129 #
coedge $-1 $327 $327 $328 $500 reversed $203 $-1 #
coedge $-1 $328 $328 $327 $500 forward $205 $-1 #
coedge $-1 $329 $329 $206 $330 forward $324 $-1 #
edge $-1 $501 -1.0284869292818256e-016 $501 6.2831853071796004 $329 $502 forward 7 unknown #
loop $-1 $-1 $336 $207 #
plane-surface $-1 23.022809352733205 -21.354259797036512 38.982379598723497 0 0.54463904215088732 0.83867056331134215 1 0 0 forward_v I I I I #
loop $-1 $-1 $503 $132 #
coedge $-1 $334 $334 $335 $504 reversed $208 $-1 #
coedge $-1 $335 $335 $334 $504 forward $210 $-1 #
coedge $-1 $336 $336 $211 $337 forward $331 $-1 #
edge $-1 $505 -1.0284869292818256e-016 $505 6.2831853071796004 $336 $506 forward 7 unknown #
face $-1 $507 $508 $69 $-1 $509 forward single #
loop $-1 $-1 $510 $212 #
plane-surface $-1 46.045618705466396 56.296404604204277 158.55391489979868 1 0 0 0 -0.54463904215088732 -0.83867056331134215 forward_v I I I I #
coedge $-1 $511 $512 $513 $514 reversed $213 $-1 #
coedge $-1 $343 $215 $515 $516 reversed $136 $-1 #
coedge $-1 $215 $342 $511 $517 reversed $136 $-1 #
coedge $-1 $513 $518 $215 $345 forward $519 $-1 #
edge $-1 $520 65.756996238383564 $521 74.635807534628725 $344 $522 forward 7 unknown #
loop $-1 $-1 $351 $216 #
plane-surface $-1 52.138701342112086 -21.354259797036512 38.982379598723497 0 0.54463904215088732 0.83867056331134215 1 0 0 forward_v I I I I #
loop $-1 $-1 $523 $138 #
coedge $-1 $349 $349 $350 $524 reversed $217 $-1 #
coedge $-1 $350 $350 $349 $524 forward $219 $-1 #
coedge $-1 $351 $351 $220 $352 forward $346 $-1 #
edge $-1 $525 -1.0284869292818256e-016 $525 6.2831853071796004 $351 $526 forward 7 unknown #
loop $-1 $-1 $358 $221 #
plane-surface $-1 52.138701342112086 -21.354259797036512 38.982379598723497 0 0.54463904215088732 0.83867056331134215 1 0 0 forward_v I I I I #
loop $-1 $-1 $527 $141 #
coedge $-1 $356 $356 $357 $528 reversed $222 $-1 #
coedge $-1 $357 $357 $356 $528 forward $224 $-1 #
coedge $-1 $358 $358 $225 $359 forward $353 $-1 #
edge $-1 $529 -1.0284869292818256e-016 $529 6.2831853071796004 $358 $530 forward 7 unknown #
face $-1 $531 $532 $54 $-1 $533 reversed single #
loop $-1 $-1 $534 $226 #
plane-surface $-1 -71.286355174413274 0 0 1 0 0 0 0 -1 forward_v I I I I #
coedge $-1 $535 $371 $536 $537 forward $227 $-1 #
coedge $-1 $538 $229 $535 $539 forward $145 $-1 #
coedge $-1 $229 $538 $540 $541 forward $145 $-1 #
coedge $-1 $374 $373 $229 $367 reversed $375 $-1 #
edge $-1 $542 -31.526595621783351 $543 31.526595621783351 $366 $544 forward 7 unknown #
coedge $-1 $231 $230 $545 $546 forward $91 $-1 #
coedge $-1 $547 $548 $230 $370 reversed $532 $-1 #
edge $-1 $377 -71.286355174413274 $549 71.286355174413274 $369 $550 forward 7 unknown #
coedge $-1 $363 $551 $231 $372 reversed $227 $-1 #
edge $-1 $552 -71.286355174413274 $376 71.286355174413274 $371 $553 forward 7 unknown #
coedge $-1 $366 $232 $551 $554 forward $375 $-1 #
coedge $-1 $232 $366 $547 $555 reversed $375 $-1 #
loop $-1 $-1 $373 $531 #
vertex $-1 $233 $556 #
vertex $-1 $233 $557 #
straight-curve $-1 71.286355174413274 0 13.519961211515778 0 1 0 I I #
face $-1 $558 $559 $55 $-1 $560 reversed single #
loop $-1 $-1 $384 $234 #
plane-surface $-1 0 -31.526595621783351 0 0 1 0 0 0 1 forward_v I I I I #
coedge $-1 $561 $562 $383 $563 forward $235 $-1 #
coedge $-1 $391 $237 $382 $563 reversed $149 $-1 #
coedge $-1 $389 $564 $237 $385 forward $380 $-1 #
edge $-1 $565 -7.7533162977243082 $392 -3.7799735298586308 $384 $566 forward 7 unknown #
coedge $-1 $239 $238 $567 $568 reversed $94 $-1 #
coedge $-1 $569 $570 $238 $388 forward $571 $-1 #
edge $-1 $572 -38.906820386120515 $393 -25.852249190464995 $387 $573 forward 7 unknown #
coedge $-1 $574 $384 $239 $390 forward $380 $-1 #
edge $-1 $392 25.852249190464995 $575 38.906820386120515 $389 $576 forward 7 unknown #
coedge $-1 $240 $383 $569 $577 reversed $149 $-1 #
vertex $-1 $390 $578 #
vertex $-1 $388 $579 #
straight-curve $-1 -58.231783978757754 0 -9.5466184436501003 0 1 0 I I #
face $-1 $580 $581 $56 $-1 $582 reversed single #
loop $-1 $-1 $583 $242 #
plane-surface $-1 0 0 -13.519961211515778 0 0 1 1 0 0 forward_v I I I I #
coedge $-1 $584 $585 $247 $406 forward $243 $-1 #
coedge $-1 $586 $245 $583 $587 reversed $153 $-1 #
coedge $-1 $245 $586 $403 $588 reversed $153 $-1 #
coedge $-1 $404 $589 $245 $402 forward $581 $-1 #
edge $-1 $590 -7.7533162977243082 $591 -3.7799735298586308 $401 $592 forward 7 unknown #
coedge $-1 $247 $246 $400 $588 forward $97 $-1 #
coedge $-1 $593 $401 $246 $405 forward $581 $-1 #
edge $-1 $591 25.852249190465002 $410 38.906820386120515 $404 $594 forward 7 unknown #
edge $-1 $411 -38.906820386120515 $595 -25.852249190465002 $398 $596 forward 7 unknown #
coedge $-1 $597 $248 $585 $598 forward $409 $-1 #
coedge $-1 $248 $597 $593 $599 reversed $409 $-1 #
loop $-1 $-1 $248 $580 #
vertex $-1 $599 $600 #
vertex $-1 $598 $601 #
straight-curve $-1 71.286355174413274 0 -9.5466184436501003 0 -1 0 I I #
face $-1 $-1 $425 $57 $-1 $602 reversed single #
loop $-1 $-1 $603 $250 #
plane-surface $-1 0 0 13.519961211515778 0 0 1 1 0 0 forward_v I I I I #
coedge $-1 $604 $605 $606 $607 reversed $251 $-1 #
coedge $-1 $608 $253 $255 $423 forward $157 $-1 #
coedge $-1 $253 $608 $604 $609 forward $157 $-1 #
coedge $-1 $606 $256 $253 $420 forward $425 $-1 #
edge $-1 $427 5.3054065462503317 $610 37.052720470421725 $419 $611 forward 7 unknown #
coedge $-1 $612 $613 $254 $422 forward $414 $-1 #
edge $-1 $614 -47.449169338564552 $426 -33.756366092274583 $421 $615 forward 7 unknown #
edge $-1 $427 9.8928161431344572e-015 $614 19.0352367404872 $255 $616 forward 7 unknown #
coedge $-1 $256 $606 $612 $617 reversed $425 $-1 #
loop $-1 $-1 $606 $413 #
vertex $-1 $617 $618 #
vertex $-1 $257 $619 #
straight-curve $-1 26.48447005458636 -31.526595621783351 51.427599196609393 0 0 -1 I I #
coedge $-1 $429 $429 $-1 $620 reversed $260 $-1 #
edge $-1 $621 0 $621 6.2831853071796004 $261 $622 forward 7 unknown #
vertex $-1 $264 $623 #
ellipse-curve $-1 35.5551311757782 -24.680193998638366 6.9084678661212529 0 -0.69465837861970381 0.71933979245794832 2.5 0 0 1 I I #
coedge $-1 $433 $433 $-1 $624 reversed $267 $-1 #
edge $-1 $625 0 $625 6.2831853071796004 $268 $626 forward 7 unknown #
vertex $-1 $271 $627 #
ellipse-curve $-1 49.161122857565942 -24.680193998638366 6.9084678661212529 0 -0.69465837861970381 0.71933979245794832 2.5 0 0 1 I I #
face $-1 $-1 $628 $60 $-1 $629 forward single #
loop $-1 $-1 $278 $272 #
plane-surface $-1 0 31.526595621783351 0 0 -1 0 0 0 -1 forward_v I I I I #
coedge $-1 $630 $631 $632 $633 reversed $273 $-1 #
coedge $-1 $634 $275 $277 $447 forward $171 $-1 #
coedge $-1 $275 $634 $630 $635 forward $171 $-1 #
coedge $-1 $632 $278 $275 $444 forward $438 $-1 #
edge $-1 $450 11.511404676366585 $636 23.697569949657968 $443 $637 forward 7 unknown #
coedge $-1 $638 $639 $276 $446 forward $628 $-1 #
edge $-1 $640 -10.293776861049384 $449 3.3783933196812121 $445 $641 forward 7 unknown #
edge $-1 $450 -63.053191243566694 $640 -46.750997296579385 $277 $642 forward 7 unknown #
coedge $-1 $278 $632 $638 $643 reversed $438 $-1 #
vertex $-1 $643 $644 #
vertex $-1 $279 $645 #
straight-curve $-1 -29.115891989378863 31.526595621783351 79.276957449899342 0 0 -1 I I #
coedge $-1 $452 $452 $-1 $646 reversed $282 $-1 #
edge $-1 $647 0 $647 6.2831853071796004 $283 $648 forward 7 unknown #
vertex $-1 $286 $649 #
ellipse-curve $-1 -37.820295756015575 24.690510531418052 9.0805555633932009 0 0.54463904215088732 0.83867056331134215 1.5 0 0 1 I I #
coedge $-1 $456 $456 $-1 $650 reversed $289 $-1 #
edge $-1 $651 0 $651 6.2831853071796004 $290 $652 forward 7 unknown #
vertex $-1 $293 $653 #
ellipse-curve $-1 -32.597653496033551 24.690510531418052 9.0805555633932009 0 0.54463904215088732 0.83867056331134215 1.5 0 0 1 I I #
face $-1 $-1 $654 $63 $-1 $655 forward single #
loop $-1 $-1 $300 $294 #
plane-surface $-1 0 31.526595621783351 0 0 -1 0 0 0 -1 forward_v I I I I #
coedge $-1 $656 $657 $658 $659 reversed $295 $-1 #
coedge $-1 $660 $297 $299 $470 forward $185 $-1 #
coedge $-1 $297 $660 $656 $661 forward $185 $-1 #
coedge $-1 $658 $300 $297 $467 forward $461 $-1 #
edge $-1 $473 -3.0465413183228556 $662 9.1396239549685312 $466 $663 forward 7 unknown #
coedge $-1 $664 $665 $298 $469 forward $654 $-1 #
edge $-1 $666 -10.293776861049384 $472 3.3783933196812121 $468 $667 forward 7 unknown #
edge $-1 $473 -63.053191243566694 $666 -46.750997296579385 $299 $668 forward 7 unknown #
coedge $-1 $300 $658 $664 $669 reversed $461 $-1 #
vertex $-1 $669 $670 #
vertex $-1 $301 $671 #
straight-curve $-1 1.7763568394002505e-014 31.526595621783351 79.276957449899342 0 0 -1 I I #
coedge $-1 $475 $475 $-1 $672 reversed $304 $-1 #
edge $-1 $673 0 $673 6.2831853071796004 $305 $674 forward 7 unknown #
vertex $-1 $308 $675 #
ellipse-curve $-1 -8.7044037666366947 24.690510531418052 9.0805555633932009 0 0.54463904215088732 0.83867056331134215 1.5 0 0 1 I I #
coedge $-1 $479 $479 $-1 $676 reversed $311 $-1 #
edge $-1 $677 0 $677 6.2831853071796004 $312 $678 forward 7 unknown #
vertex $-1 $315 $679 #
ellipse-curve $-1 -3.4817615066546637 24.690510531418052 9.0805555633932009 0 0.54463904215088732 0.83867056331134215 1.5 0 0 1 I I #
face $-1 $-1 $495 $66 $-1 $680 reversed single #
loop $-1 $-1 $681 $316 #
plane-surface $-1 0 0 13.519961211515778 0 0 1 1 0 0 forward_v I I I I #
coedge $-1 $682 $683 $684 $685 reversed $317 $-1 #
coedge $-1 $686 $319 $321 $493 forward $199 $-1 #
coedge $-1 $319 $686 $682 $687 forward $199 $-1 #
coedge $-1 $684 $322 $319 $490 forward $495 $-1 #
edge $-1 $497 -17.604487313012296 $688 -5.4183220397209091 $489 $689 forward 7 unknown #
coedge $-1 $690 $691 $320 $492 forward $484 $-1 #
edge $-1 $692 -10.293776861049384 $496 3.3783933196812121 $491 $693 forward 7 unknown #
edge $-1 $497 -63.053191243566694 $692 -46.750997296579385 $321 $694 forward 7 unknown #
coedge $-1 $322 $684 $690 $695 reversed $495 $-1 #
loop $-1 $-1 $684 $483 #
vertex $-1 $695 $696 #
vertex $-1 $323 $697 #
straight-curve $-1 29.115891989378898 31.526595621783351 79.276957449899342 0 0 -1 I I #
coedge $-1 $499 $499 $-1 $698 reversed $326 $-1 #
edge $-1 $699 0 $699 6.2831853071796004 $327 $700 forward 7 unknown #
vertex $-1 $330 $701 #
ellipse-curve $-1 20.411488222742179 24.690510531418052 9.0805555633932009 0 0.54463904215088732 0.83867056331134215 1.5 0 0 1 I I #
coedge $-1 $503 $503 $-1 $702 reversed $333 $-1 #
edge $-1 $703 0 $703 6.2831853071796004 $334 $704 forward 7 unknown #
vertex $-1 $337 $705 #
ellipse-curve $-1 25.634130482724217 24.690510531418052 9.0805555633932009 0 0.54463904215088732 0.83867056331134215 1.5 0 0 1 I I #
face $-1 $-1 $519 $69 $-1 $706 reversed single #
loop $-1 $-1 $707 $338 #
plane-surface $-1 0 0 13.519961211515778 0 0 1 1 0 0 forward_v I I I I #
coedge $-1 $708 $709 $710 $711 reversed $339 $-1 #
coedge $-1 $712 $341 $343 $517 forward $213 $-1 #
coedge $-1 $341 $712 $708 $713 forward $213 $-1 #
coedge $-1 $710 $344 $341 $514 forward $519 $-1 #
edge $-1 $521 -32.162433307701733 $714 -19.976268034410353 $513 $715 forward 7 unknown #
coedge $-1 $716 $717 $342 $516 forward $508 $-1 #
edge $-1 $718 -10.293776861049384 $520 3.3783933196812121 $515 $719 forward 7 unknown #
edge $-1 $521 -63.053191243566694 $718 -46.750997296579385 $343 $720 forward 7 unknown #
coedge $-1 $344 $710 $716 $721 reversed $519 $-1 #
loop $-1 $-1 $710 $507 #
vertex $-1 $721 $722 #
vertex $-1 $345 $723 #
straight-curve $-1 58.231783978757775 31.526595621783351 79.276957449899342 0 0 -1 I I #
coedge $-1 $523 $523 $-1 $724 reversed $348 $-1 #
edge $-1 $725 0 $725 6.2831853071796004 $349 $726 forward 7 unknown #
vertex $-1 $352 $727 #
ellipse-curve $-1 49.527380212121059 24.690510531418052 9.0805555633932009 0 0.54463904215088732 0.83867056331134215 1.5 0 0 1 I I #
coedge $-1 $527 $527 $-1 $728 reversed $355 $-1 #
edge $-1 $729 0 $729 6.2831853071796004 $356 $730 forward 7 unknown #
vertex $-1 $359 $731 #
ellipse-curve $-1 54.750022472103097 24.690510531418052 9.0805555633932009 0 0.54463904215088732 0.83867056331134215 1.5 0 0 1 I I #
face $-1 $-1 $375 $54 $-1 $732 reversed single #
loop $-1 $-1 $547 $360 #
plane-surface $-1 0 31.526595621783351 0 0 -1 0 0 0 -1 forward_v I I I I #
coedge $-1 $733 $545 $548 $734 forward $361 $-1 #
coedge $-1 $551 $363 $364 $539 reversed $227 $-1 #
coedge $-1 $545 $733 $363 $537 reversed $361 $-1 #
edge $-1 $552 -13.519961211515778 $735 13.519961211515778 $536 $736 forward 7 unknown #
coedge $-1 $365 $364 $733 $737 forward $145 $-1 #
edge $-1 $543 -71.286355174413274 $735 71.286355174413274 $535 $738 forward 7 unknown #
coedge $-1 $548 $547 $365 $541 reversed $532 $-1 #
edge $-1 $739 -71.286355174413274 $542 71.286355174413274 $540 $740 forward 7 unknown #
vertex $-1 $367 $741 #
vertex $-1 $554 $742 #
straight-curve $-1 71.286355174413274 0 -13.519961211515778 0 -1 0 I I #
coedge $-1 $534 $536 $368 $546 reversed $361 $-1 #
edge $-1 $549 -31.526595621783351 $552 31.526595621783351 $545 $743 forward 7 unknown #
coedge $-1 $540 $369 $374 $555 forward $532 $-1 #
coedge $-1 $369 $540 $534 $734 reversed $532 $-1 #
vertex $-1 $370 $744 #
straight-curve $-1 0 31.526595621783351 13.519961211515778 -1 0 0 I I #
coedge $-1 $371 $535 $373 $554 reversed $227 $-1 #
vertex $-1 $546 $745 #
straight-curve $-1 0 -31.526595621783351 13.519961211515778 1 0 0 I I #
edge $-1 $376 -13.519961211515778 $543 13.519961211515778 $373 $746 forward 7 unknown #
edge $-1 $377 -13.519961211515778 $542 13.519961211515778 $374 $747 forward 7 unknown #
point $-1 71.286355174413274 -31.526595621783351 13.519961211515778 #
point $-1 71.286355174413274 31.526595621783351 13.519961211515778 #
face $-1 $-1 $571 $55 $-1 $748 reversed single #
loop $-1 $-1 $567 $379 #
plane-surface $-1 -71.286355174413274 0 0 1 0 0 0 0 -1 forward_v I I I I #
coedge $-1 $749 $382 $564 $750 forward $235 $-1 #
coedge $-1 $382 $749 $751 $752 forward $235 $-1 #
edge $-1 $753 -31.526595621783351 $565 31.526595621783351 $382 $754 forward 7 unknown #
coedge $-1 $384 $574 $561 $750 reversed $380 $-1 #
vertex $-1 $750 $755 #
straight-curve $-1 -58.231783978757754 -31.526595621783351 -5.7666449137914695 0 0 1 I I #
coedge $-1 $756 $757 $386 $568 forward $559 $-1 #
edge $-1 $575 -31.526595621783351 $572 31.526595621783351 $567 $758 forward 7 unknown #
coedge $-1 $751 $387 $391 $577 forward $571 $-1 #
coedge $-1 $387 $751 $756 $759 reversed $571 $-1 #
loop $-1 $-1 $569 $558 #
vertex $-1 $759 $760 #
straight-curve $-1 -32.379534788292759 31.526595621783351 -9.5466184436501003 1 0 0 I I #
coedge $-1 $564 $389 $757 $761 forward $380 $-1 #
vertex $-1 $761 $762 #
straight-curve $-1 -32.379534788292759 -31.526595621783351 -9.5466184436501003 -1 0 0 I I #
edge $-1 $393 3.7799735298586308 $753 7.7533162977243082 $569 $763 forward 7 unknown #
point $-1 -58.231783978757754 -31.526595621783351 -9.5466184436501003 #
point $-1 -58.231783978757754 31.526595621783351 -9.5466184436501003 #
face $-1 $-1 $409 $56 $-1 $764 reversed single #
loop $-1 $-1 $404 $395 #
plane-surface $-1 0 31.526595621783351 0 0 -1 0 0 0 -1 forward_v I I I I #
coedge $-1 $765 $766 $399 $587 forward $396 $-1 #
coedge $-1 $767 $398 $586 $768 forward $243 $-1 #
coedge $-1 $398 $767 $407 $598 reversed $243 $-1 #
coedge $-1 $400 $399 $584 $768 reversed $153 $-1 #
edge $-1 $769 -31.526595621783351 $590 31.526595621783351 $583 $770 forward 7 unknown #
edge $-1 $591 -31.526595621783351 $595 31.526595621783351 $400 $771 forward 7 unknown #
coedge $-1 $401 $593 $765 $772 reversed $581 $-1 #
vertex $-1 $772 $773 #
vertex $-1 $405 $774 #
straight-curve $-1 58.231783978757761 31.526595621783351 -5.7666449137914695 0 0 1 I I #
coedge $-1 $589 $404 $408 $599 forward $581 $-1 #
straight-curve $-1 32.379534788292759 31.526595621783351 -9.5466184436501003 1 0 0 I I #
vertex $-1 $406 $775 #
straight-curve $-1 32.379534788292759 -31.526595621783351 -9.5466184436501003 -1 0 0 I I #
coedge $-1 $408 $407 $776 $777 reversed $409 $-1 #
edge $-1 $411 9.5466184436501003 $778 13.519961211515778 $407 $779 forward 7 unknown #
edge $-1 $410 9.5466184436501003 $780 13.519961211515778 $408 $781 forward 7 unknown #
point $-1 71.286355174413274 31.526595621783351 -9.5466184436501003 #
point $-1 71.286355174413274 -31.526595621783351 -9.5466184436501003 #
plane-surface $-1 0 -31.526595621783351 0 0 1 0 0 0 1 forward_v I I I I #
coedge $-1 $613 $612 $605 $782 forward $414 $-1 #
coedge $-1 $605 $416 $418 $609 reversed $251 $-1 #
coedge $-1 $416 $604 $603 $782 reversed $251 $-1 #
coedge $-1 $424 $419 $416 $607 forward $425 $-1 #
edge $-1 $610 -51.130624675882665 $783 -37.907637985093615 $606 $784 forward 7 unknown #
coedge $-1 $418 $417 $613 $785 reversed $157 $-1 #
edge $-1 $786 -19.0352367404872 $610 -9.8928161431344572e-015 $604 $787 forward 7 unknown #
vertex $-1 $420 $788 #
straight-curve $-1 21.179063508336029 -31.526595621783351 0.29697452072672892 1 0 0 I I #
coedge $-1 $603 $421 $424 $617 forward $414 $-1 #
coedge $-1 $421 $603 $608 $785 forward $414 $-1 #
vertex $-1 $422 $789 #
straight-curve $-1 26.48447005458636 -65.282961714057933 13.519961211515778 0 -1 0 I I #
straight-curve $-1 26.48447005458636 -31.526595621783358 0.29697452072672093 0 0.71933979245794832 0.69465837861970381 I I #
edge $-1 $426 26.48447005458636 $783 58.231783978757754 $424 $790 forward 7 unknown #
point $-1 26.48447005458636 -31.526595621783351 13.519961211515778 #
point $-1 26.48447005458636 -31.526595621783351 0.29697452072672781 #
edge $-1 $791 1 $791 0 $429 $-1 forward 7 unknown #
vertex $-1 $430 $792 #
ellipse-curve $-1 35.5551311757782 -18.098196151535905 0.092609724884622602 0 -0.69465837861970381 0.71933979245794832 2.5 0 0 1 I I #
point $-1 38.0551311757782 -24.680193998638355 6.908467866121244 #
edge $-1 $793 1 $793 0 $433 $-1 forward 7 unknown #
vertex $-1 $434 $794 #
ellipse-curve $-1 49.161122857565942 -18.098196151535905 0.092609724884622602 0 -0.69465837861970381 0.71933979245794832 2.5 0 0 1 I I #
point $-1 51.661122857565942 -24.680193998638355 6.908467866121244 #
loop $-1 $-1 $445 $437 #
plane-surface $-1 0 0 13.519961211515778 0 0 1 1 0 0 forward_v I I I I #
coedge $-1 $631 $440 $442 $635 reversed $273 $-1 #
coedge $-1 $440 $630 $795 $796 reversed $273 $-1 #
coedge $-1 $448 $443 $440 $633 forward $438 $-1 #
edge $-1 $636 -74.635807534628725 $797 -65.756996238383564 $632 $798 forward 7 unknown #
coedge $-1 $442 $441 $639 $799 reversed $171 $-1 #
edge $-1 $800 46.750997296579385 $636 63.053191243566694 $630 $801 forward 7 unknown #
vertex $-1 $444 $802 #
straight-curve $-1 -17.604487313012278 31.526595621783351 4.6411499152706206 -1 0 0 I I #
coedge $-1 $795 $445 $448 $643 forward $628 $-1 #
coedge $-1 $445 $795 $634 $799 forward $628 $-1 #
vertex $-1 $446 $803 #
straight-curve $-1 -29.115891989378863 28.148202302102138 13.519961211515778 0 1 0 I I #
straight-curve $-1 -29.115891989378863 -21.354259797036512 38.982379598723497 0 -0.83867056331134215 0.54463904215088732 I I #
edge $-1 $449 29.115891989378863 $797 41.302057262670246 $448 $804 forward 7 unknown #
point $-1 -29.115891989378863 31.526595621783351 13.519961211515778 #
point $-1 -29.115891989378863 31.526595621783351 4.641149915270617 #
edge $-1 $805 1 $805 0 $452 $-1 forward 7 unknown #
vertex $-1 $453 $806 #
ellipse-curve $-1 -37.820295756015575 23.047044311984163 6.5498395600150783 0 0.54463904215088732 0.83867056331134215 1.5 0 0 1 I I #
point $-1 -36.320295756015575 24.690510531418045 9.0805555633931903 #
edge $-1 $807 1 $807 0 $456 $-1 forward 7 unknown #
vertex $-1 $457 $808 #
ellipse-curve $-1 -32.597653496033551 23.047044311984163 6.5498395600150783 0 0.54463904215088732 0.83867056331134215 1.5 0 0 1 I I #
point $-1 -31.097653496033551 24.690510531418045 9.0805555633931903 #
loop $-1 $-1 $468 $460 #
plane-surface $-1 0 0 13.519961211515778 0 0 1 1 0 0 forward_v I I I I #
coedge $-1 $657 $463 $465 $661 reversed $295 $-1 #
coedge $-1 $463 $656 $809 $810 reversed $295 $-1 #
coedge $-1 $471 $466 $463 $659 forward $461 $-1 #
edge $-1 $662 -74.635807534628725 $811 -65.756996238383564 $658 $812 forward 7 unknown #
coedge $-1 $465 $464 $665 $813 reversed $185 $-1 #
edge $-1 $814 46.750997296579385 $662 63.053191243566694 $656 $815 forward 7 unknown #
vertex $-1 $467 $816 #
straight-curve $-1 -3.0465413183228378 31.526595621783351 4.6411499152706206 -1 0 0 I I #
coedge $-1 $809 $468 $471 $669 forward $654 $-1 #
coedge $-1 $468 $809 $660 $813 forward $654 $-1 #
vertex $-1 $469 $817 #
straight-curve $-1 1.7763568394002505e-014 28.148202302102138 13.519961211515778 0 1 0 I I #
straight-curve $-1 1.7763568394002505e-014 -21.354259797036512 38.982379598723497 0 -0.83867056331134215 0.54463904215088732 I I #
edge $-1 $472 -1.7763568394002505e-014 $811 12.186165273291369 $471 $818 forward 7 unknown #
point $-1 1.7763568394002505e-014 31.526595621783351 13.519961211515778 #
point $-1 1.7763568394002505e-014 31.526595621783351 4.641149915270617 #
edge $-1 $819 1 $819 0 $475 $-1 forward 7 unknown #
vertex $-1 $476 $820 #
ellipse-curve $-1 -8.7044037666366947 23.047044311984163 6.5498395600150783 0 0.54463904215088732 0.83867056331134215 1.5 0 0 1 I I #
point $-1 -7.2044037666366947 24.690510531418045 9.0805555633931903 #
edge $-1 $821 1 $821 0 $479 $-1 forward 7 unknown #
vertex $-1 $480 $822 #
ellipse-curve $-1 -3.4817615066546637 23.047044311984163 6.5498395600150783 0 0.54463904215088732 0.83867056331134215 1.5 0 0 1 I I #
point $-1 -1.9817615066546637 24.690510531418045 9.0805555633931903 #
plane-surface $-1 0 31.526595621783351 0 0 -1 0 0 0 -1 forward_v I I I I #
coedge $-1 $691 $690 $683 $823 forward $484 $-1 #
coedge $-1 $683 $486 $488 $687 reversed $317 $-1 #
coedge $-1 $486 $682 $681 $823 reversed $317 $-1 #
coedge $-1 $494 $489 $486 $685 forward $495 $-1 #
edge $-1 $688 -74.635807534628725 $824 -65.756996238383564 $684 $825 forward 7 unknown #
coedge $-1 $488 $487 $691 $826 reversed $199 $-1 #
edge $-1 $827 46.750997296579385 $688 63.053191243566694 $682 $828 forward 7 unknown #
vertex $-1 $490 $829 #
straight-curve $-1 11.511404676366602 31.526595621783351 4.6411499152706206 -1 0 0 I I #
coedge $-1 $681 $491 $494 $695 forward $484 $-1 #
coedge $-1 $491 $681 $686 $826 forward $484 $-1 #
vertex $-1 $492 $830 #
straight-curve $-1 29.115891989378898 28.148202302102138 13.519961211515778 0 1 0 I I #
straight-curve $-1 29.115891989378898 -21.354259797036512 38.982379598723497 0 -0.83867056331134215 0.54463904215088732 I I #
edge $-1 $496 -29.115891989378898 $824 -16.929726716087512 $494 $831 forward 7 unknown #
point $-1 29.115891989378898 31.526595621783351 13.519961211515778 #
point $-1 29.115891989378898 31.526595621783351 4.641149915270617 #
edge $-1 $832 1 $832 0 $499 $-1 forward 7 unknown #
vertex $-1 $500 $833 #
ellipse-curve $-1 20.411488222742179 23.047044311984163 6.5498395600150783 0 0.54463904215088732 0.83867056331134215 1.5 0 0 1 I I #
point $-1 21.911488222742179 24.690510531418045 9.0805555633931903 #
edge $-1 $834 1 $834 0 $503 $-1 forward 7 unknown #
vertex $-1 $504 $835 #
ellipse-curve $-1 25.634130482724217 23.047044311984163 6.5498395600150783 0 0.54463904215088732 0.83867056331134215 1.5 0 0 1 I I #
point $-1 27.134130482724217 24.690510531418045 9.0805555633931903 #
plane-surface $-1 0 31.526595621783351 0 0 -1 0 0 0 -1 forward_v I I I I #
coedge $-1 $717 $716 $709 $836 forward $508 $-1 #
coedge $-1 $709 $510 $512 $713 reversed $339 $-1 #
coedge $-1 $510 $708 $707 $836 reversed $339 $-1 #
coedge $-1 $518 $513 $510 $711 forward $519 $-1 #
edge $-1 $714 -74.635807534628725 $837 -65.756996238383564 $710 $838 forward 7 unknown #
coedge $-1 $512 $511 $717 $839 reversed $213 $-1 #
edge $-1 $840 46.750997296579385 $714 63.053191243566694 $708 $841 forward 7 unknown #
vertex $-1 $514 $842 #
straight-curve $-1 26.069350671056043 31.526595621783351 4.6411499152706206 -1 0 0 I I #
coedge $-1 $707 $515 $518 $721 forward $508 $-1 #
coedge $-1 $515 $707 $712 $839 forward $508 $-1 #
vertex $-1 $516 $843 #
straight-curve $-1 58.231783978757775 28.148202302102138 13.519961211515778 0 1 0 I I #
straight-curve $-1 58.231783978757775 -21.354259797036512 38.982379598723497 0 -0.83867056331134215 0.54463904215088732 I I #
edge $-1 $520 -58.231783978757775 $837 -46.045618705466396 $518 $844 forward 7 unknown #
point $-1 58.231783978757775 31.526595621783351 13.519961211515778 #
point $-1 58.231783978757775 31.526595621783351 4.641149915270617 #
edge $-1 $845 1 $845 0 $523 $-1 forward 7 unknown #
vertex $-1 $524 $846 #
ellipse-curve $-1 49.527380212121059 23.047044311984163 6.5498395600150783 0 0.54463904215088732 0.83867056331134215 1.5 0 0 1 I I #
point $-1 51.027380212121059 24.690510531418045 9.0805555633931903 #
edge $-1 $847 1 $847 0 $527 $-1 forward 7 unknown #
vertex $-1 $528 $848 #
ellipse-curve $-1 54.750022472103097 23.047044311984163 6.5498395600150783 0 0.54463904215088732 0.83867056331134215 1.5 0 0 1 I I #
point $-1 56.250022472103097 24.690510531418045 9.0805555633931903 #
plane-surface $-1 71.286355174413274 0 0 -1 0 0 0 0 1 forward_v I I I I #
coedge $-1 $536 $534 $538 $737 reversed $361 $-1 #
edge $-1 $549 -13.519961211515778 $739 13.519961211515778 $548 $849 forward 7 unknown #
vertex $-1 $737 $850 #
straight-curve $-1 -71.286355174413274 -31.526595621783351 0 0 0 -1 I I #
edge $-1 $735 -31.526595621783351 $739 31.526595621783351 $733 $851 forward 7 unknown #
straight-curve $-1 0 -31.526595621783351 -13.519961211515778 -1 0 0 I I #
vertex $-1 $541 $852 #
straight-curve $-1 0 31.526595621783351 -13.519961211515778 1 0 0 I I #
point $-1 71.286355174413274 31.526595621783351 -13.519961211515778 #
point $-1 71.286355174413274 -31.526595621783351 -13.519961211515778 #
straight-curve $-1 -71.286355174413274 0 13.519961211515778 0 -1 0 I I #
point $-1 -71.286355174413274 31.526595621783351 13.519961211515778 #
point $-1 -71.286355174413274 -31.526595621783351 13.519961211515778 #
straight-curve $-1 71.286355174413274 -31.526595621783351 0 0 0 -1 I I #
straight-curve $-1 71.286355174413274 31.526595621783351 0 0 0 -1 I I #
plane-surface $-1 0 31.526595621783351 0 0 -1 0 0 0 -1 forward_v I I I I #
coedge $-1 $562 $561 $853 $854 forward $235 $-1 #
edge $-1 $565 58.231783978757754 $855 71.286355174413274 $564 $856 forward 7 unknown #
coedge $-1 $570 $569 $562 $752 reversed $571 $-1 #
edge $-1 $857 -71.286355174413274 $753 -58.231783978757754 $751 $858 forward 7 unknown #
vertex $-1 $577 $859 #
straight-curve $-1 -58.231783978757754 0 -13.519961211515778 0 -1 0 I I #
point $-1 -58.231783978757754 -31.526595621783351 -13.519961211515778 #
coedge $-1 $853 $567 $570 $759 forward $559 $-1 #
coedge $-1 $567 $853 $574 $761 reversed $559 $-1 #
straight-curve $-1 -71.286355174413274 0 -9.5466184436501003 0 1 0 I I #
edge $-1 $572 9.5466184436501003 $857 13.519961211515778 $570 $860 forward 7 unknown #
point $-1 -71.286355174413274 31.526595621783351 -9.5466184436501003 #
edge $-1 $575 9.5466184436501003 $855 13.519961211515778 $757 $861 forward 7 unknown #
point $-1 -71.286355174413274 -31.526595621783351 -9.5466184436501003 #
straight-curve $-1 -58.231783978757754 31.526595621783351 -5.7666449137914695 0 0 -1 I I #
plane-surface $-1 71.286355174413274 0 0 -1 0 0 0 0 1 forward_v I I I I #
coedge $-1 $776 $583 $589 $772 forward $396 $-1 #
coedge $-1 $583 $776 $767 $862 forward $396 $-1 #
coedge $-1 $585 $584 $766 $862 reversed $243 $-1 #
edge $-1 $595 3.7799735298586308 $769 7.7533162977243082 $584 $863 forward 7 unknown #
vertex $-1 $587 $864 #
straight-curve $-1 58.231783978757761 0 -13.519961211515778 0 1 0 I I #
straight-curve $-1 58.231783978757761 0 -9.5466184436501003 0 -1 0 I I #
edge $-1 $590 58.231783978757761 $780 71.286355174413274 $589 $865 forward 7 unknown #
point $-1 58.231783978757761 31.526595621783351 -13.519961211515778 #
point $-1 58.231783978757761 31.526595621783351 -9.5466184436501003 #
point $-1 58.231783978757761 -31.526595621783351 -9.5466184436501003 #
coedge $-1 $766 $765 $597 $777 forward $396 $-1 #
edge $-1 $780 -31.526595621783351 $778 31.526595621783351 $597 $866 forward 7 unknown #
vertex $-1 $598 $867 #
straight-curve $-1 71.286355174413274 -31.526595621783351 0 0 0 -1 I I #
vertex $-1 $777 $868 #
straight-curve $-1 71.286355174413274 31.526595621783351 0 0 0 -1 I I #
edge $-1 $783 33.756366092274583 $786 47.449169338564552 $603 $869 forward 7 unknown #
vertex $-1 $782 $870 #
straight-curve $-1 58.231783978757754 -31.526595621783351 51.427599196609393 0 0 1 I I #
edge $-1 $786 -37.052720470421725 $614 -5.3054065462503317 $613 $871 forward 7 unknown #
vertex $-1 $785 $872 #
straight-curve $-1 58.231783978757754 -31.526595621783358 0.29697452072672093 0 -0.71933979245794832 -0.69465837861970381 I I #
point $-1 58.231783978757754 -31.526595621783351 0.29697452072672781 #
point $-1 26.48447005458636 -17.833792375493381 13.519961211515778 #
straight-curve $-1 0 -31.526595621783351 13.519961211515778 1 0 0 I I #
vertex $-1 $620 $873 #
point $-1 38.0551311757782 -18.098196151535905 0.092609724884622602 #
vertex $-1 $624 $874 #
point $-1 51.661122857565942 -18.098196151535905 0.092609724884622602 #
coedge $-1 $639 $638 $631 $796 forward $628 $-1 #
edge $-1 $797 -3.3783933196812121 $800 10.293776861049384 $795 $875 forward 7 unknown #
vertex $-1 $796 $876 #
straight-curve $-1 -41.302057262670246 31.526595621783351 79.276957449899342 0 0 1 I I #
edge $-1 $800 -23.697569949657968 $640 -11.511404676366585 $639 $877 forward 7 unknown #
vertex $-1 $799 $878 #
straight-curve $-1 -41.302057262670246 -21.354259797036512 38.982379598723497 0 0.83867056331134215 -0.54463904215088732 I I #
point $-1 -41.302057262670246 31.526595621783351 4.641149915270617 #
point $-1 -29.115891989378863 17.854425441052754 13.519961211515778 #
straight-curve $-1 0 31.526595621783351 13.519961211515778 -1 0 0 I I #
vertex $-1 $646 $879 #
point $-1 -36.320295756015575 23.047044311984163 6.5498395600150783 #
vertex $-1 $650 $880 #
point $-1 -31.097653496033551 23.047044311984163 6.5498395600150783 #
coedge $-1 $665 $664 $657 $810 forward $654 $-1 #
edge $-1 $811 -3.3783933196812121 $814 10.293776861049384 $809 $881 forward 7 unknown #
vertex $-1 $810 $882 #
straight-curve $-1 -12.186165273291369 31.526595621783351 79.276957449899342 0 0 1 I I #
edge $-1 $814 -9.1396239549685312 $666 3.0465413183228556 $665 $883 forward 7 unknown #
vertex $-1 $813 $884 #
straight-curve $-1 -12.186165273291369 -21.354259797036512 38.982379598723497 0 0.83867056331134215 -0.54463904215088732 I I #
point $-1 -12.186165273291369 31.526595621783351 4.641149915270617 #
point $-1 1.7763568394002505e-014 17.854425441052754 13.519961211515778 #
straight-curve $-1 0 31.526595621783351 13.519961211515778 -1 0 0 I I #
vertex $-1 $672 $885 #
point $-1 -7.2044037666366947 23.047044311984163 6.5498395600150783 #
vertex $-1 $676 $886 #
point $-1 -1.9817615066546637 23.047044311984163 6.5498395600150783 #
edge $-1 $824 -3.3783933196812121 $827 10.293776861049384 $681 $887 forward 7 unknown #
vertex $-1 $685 $888 #
straight-curve $-1 16.929726716087512 31.526595621783351 79.276957449899342 0 0 1 I I #
edge $-1 $827 5.4183220397209091 $692 17.604487313012296 $691 $889 forward 7 unknown #
vertex $-1 $826 $890 #
straight-curve $-1 16.929726716087512 -21.354259797036512 38.982379598723497 0 0.83867056331134215 -0.54463904215088732 I I #
point $-1 16.929726716087512 31.526595621783351 4.641149915270617 #
point $-1 29.115891989378898 17.854425441052754 13.519961211515778 #
straight-curve $-1 0 31.526595621783351 13.519961211515778 -1 0 0 I I #
vertex $-1 $698 $891 #
point $-1 21.911488222742179 23.047044311984163 6.5498395600150783 #
vertex $-1 $702 $892 #
point $-1 27.134130482724217 23.047044311984163 6.5498395600150783 #
edge $-1 $837 -3.3783933196812121 $840 10.293776861049384 $707 $893 forward 7 unknown #
vertex $-1 $711 $894 #
straight-curve $-1 46.045618705466396 31.526595621783351 79.276957449899342 0 0 1 I I #
edge $-1 $840 19.976268034410353 $718 32.162433307701733 $717 $895 forward 7 unknown #
vertex $-1 $839 $896 #
straight-curve $-1 46.045618705466396 -21.354259797036512 38.982379598723497 0 0.83867056331134215 -0.54463904215088732 I I #
point $-1 46.045618705466396 31.526595621783351 4.641149915270617 #
point $-1 58.231783978757775 17.854425441052754 13.519961211515778 #
straight-curve $-1 0 31.526595621783351 13.519961211515778 -1 0 0 I I #
vertex $-1 $724 $897 #
point $-1 51.027380212121059 23.047044311984163 6.5498395600150783 #
vertex $-1 $728 $898 #
point $-1 56.250022472103097 23.047044311984163 6.5498395600150783 #
straight-curve $-1 -71.286355174413274 31.526595621783351 0 0 0 -1 I I #
point $-1 -71.286355174413274 -31.526595621783351 -13.519961211515778 #
straight-curve $-1 -71.286355174413274 0 -13.519961211515778 0 1 0 I I #
point $-1 -71.286355174413274 31.526595621783351 -13.519961211515778 #
coedge $-1 $757 $756 $749 $854 reversed $559 $-1 #
edge $-1 $855 -31.526595621783351 $857 31.526595621783351 $853 $899 forward 7 unknown #
vertex $-1 $854 $900 #
straight-curve $-1 0 -31.526595621783351 -13.519961211515778 -1 0 0 I I #
vertex $-1 $752 $901 #
straight-curve $-1 0 31.526595621783351 -13.519961211515778 1 0 0 I I #
point $-1 -58.231783978757754 31.526595621783351 -13.519961211515778 #
straight-curve $-1 -71.286355174413274 31.526595621783351 0 0 0 -1 I I #
straight-curve $-1 -71.286355174413274 -31.526595621783351 0 0 0 -1 I I #
edge $-1 $778 -71.286355174413274 $769 -58.231783978757761 $767 $902 forward 7 unknown #
straight-curve $-1 58.231783978757761 -31.526595621783351 -5.7666449137914695 0 0 -1 I I #
point $-1 58.231783978757761 -31.526595621783351 -13.519961211515778 #
straight-curve $-1 0 31.526595621783351 -13.519961211515778 1 0 0 I I #
straight-curve $-1 71.286355174413274 0 -13.519961211515778 0 -1 0 I I #
point $-1 71.286355174413274 -31.526595621783351 -13.519961211515778 #
point $-1 71.286355174413274 31.526595621783351 -13.519961211515778 #
straight-curve $-1 58.231783978757754 -65.282961714057933 13.519961211515778 0 1 0 I I #
point $-1 58.231783978757754 -31.526595621783351 13.519961211515778 #
straight-curve $-1 21.179063508336029 -17.833792375493381 13.519961211515778 -1 0 0 I I #
point $-1 58.231783978757754 -17.833792375493381 13.519961211515778 #
point $-1 35.5551311757782 -16.361550204986646 -1.7057397562602481 #
point $-1 49.161122857565942 -16.361550204986646 -1.7057397562602481 #
straight-curve $-1 -41.302057262670246 28.148202302102138 13.519961211515778 0 -1 0 I I #
point $-1 -41.302057262670246 31.526595621783351 13.519961211515778 #
straight-curve $-1 -17.604487313012278 17.854425441052758 13.519961211515774 1 0 0 I I #
point $-1 -41.302057262670246 17.854425441052754 13.519961211515778 #
point $-1 -37.820295756015575 22.230085748757833 5.2918337150480657 #
point $-1 -32.597653496033551 22.230085748757833 5.2918337150480657 #
straight-curve $-1 -12.186165273291369 28.148202302102138 13.519961211515778 0 -1 0 I I #
point $-1 -12.186165273291369 31.526595621783351 13.519961211515778 #
straight-curve $-1 -3.0465413183228378 17.854425441052758 13.519961211515774 1 0 0 I I #
point $-1 -12.186165273291369 17.854425441052754 13.519961211515778 #
point $-1 -8.7044037666366947 22.230085748757833 5.2918337150480657 #
point $-1 -3.4817615066546637 22.230085748757833 5.2918337150480657 #
straight-curve $-1 16.929726716087512 28.148202302102138 13.519961211515778 0 -1 0 I I #
point $-1 16.929726716087512 31.526595621783351 13.519961211515778 #
straight-curve $-1 11.511404676366602 17.854425441052758 13.519961211515774 1 0 0 I I #
point $-1 16.929726716087512 17.854425441052754 13.519961211515778 #
point $-1 20.411488222742179 22.230085748757833 5.2918337150480657 #
point $-1 25.634130482724217 22.230085748757833 5.2918337150480657 #
straight-curve $-1 46.045618705466396 28.148202302102138 13.519961211515778 0 -1 0 I I #
point $-1 46.045618705466396 31.526595621783351 13.519961211515778 #
straight-curve $-1 26.069350671056043 17.854425441052758 13.519961211515774 1 0 0 I I #
point $-1 46.045618705466396 17.854425441052754 13.519961211515778 #
point $-1 49.527380212121059 22.230085748757833 5.2918337150480657 #
point $-1 54.750022472103097 22.230085748757833 5.2918337150480657 #
straight-curve $-1 -71.286355174413274 0 -13.519961211515778 0 1 0 I I #
point $-1 -71.286355174413274 -31.526595621783351 -13.519961211515778 #
point $-1 -71.286355174413274 31.526595621783351 -13.519961211515778 #
straight-curve $-1 0 -31.526595621783351 -13.519961211515778 -1 0 0 I I #
End-of-ACIS-data 