500 0 11 0           
7 Unknown 11 ACIS 5.0 NT 24 Fri Mar 26 18:55:57 1999 
-1 9.9999999999999995e-007 1e-010 
body $-1 $11 $-1 $12 #
body $-1 $13 $-1 $14 #
body $-1 $15 $-1 $16 #
body $-1 $17 $-1 $18 #
body $-1 $19 $-1 $20 #
body $-1 $21 $-1 $22 #
body $-1 $23 $-1 $24 #
body $-1 $25 $-1 $26 #
body $-1 $27 $-1 $28 #
body $-1 $29 $-1 $30 #
body $-1 $31 $-1 $32 #
lump $-1 $-1 $33 $0 #
transform $-1 1 0 0 0 1 0 0 0 1 79.278542435987418 38.582933694645462 9.397341142925093 1 rotate no_reflect no_shear #
lump $-1 $-1 $34 $1 #
transform $-1 1 0 0 0 1 0 0 0 1 79.278542435987418 38.582933694645462 9.397341142925093 1 rotate no_reflect no_shear #
lump $-1 $-1 $35 $2 #
transform $-1 1 0 0 0 1 0 0 0 1 79.278542435987418 38.582933694645462 9.397341142925093 1 rotate no_reflect no_shear #
lump $-1 $-1 $36 $3 #
transform $-1 1 0 0 0 1 0 0 0 1 79.278542435987418 38.582933694645462 9.397341142925093 1 rotate no_reflect no_shear #
lump $-1 $-1 $37 $4 #
transform $-1 1 0 0 0 1 0 0 0 1 79.278542435987418 38.582933694645462 9.397341142925093 1 rotate no_reflect no_shear #
lump $-1 $-1 $38 $5 #
transform $-1 1 0 0 0 1 0 0 0 1 79.278542435987418 38.582933694645462 9.397341142925093 1 rotate no_reflect no_shear #
lump $-1 $-1 $39 $6 #
transform $-1 1 0 0 0 1 0 0 0 1 79.278542435987418 38.582933694645462 9.397341142925093 1 rotate no_reflect no_shear #
lump $-1 $-1 $40 $7 #
transform $-1 1 0 0 0 1 0 0 0 1 79.278542435987418 38.582933694645462 9.397341142925093 1 rotate no_reflect no_shear #
lump $-1 $-1 $41 $8 #
transform $-1 1 0 0 0 1 0 0 0 1 79.278542435987418 38.582933694645462 9.397341142925093 1 rotate no_reflect no_shear #
lump $-1 $-1 $42 $9 #
transform $-1 1 0 0 0 1 0 0 0 1 79.278542435987418 38.582933694645462 9.397341142925093 1 rotate no_reflect no_shear #
lump $-1 $-1 $43 $10 #
transform $-1 1 0 0 0 1 0 0 0 1 79.278542435987418 38.582933694645462 9.397341142925093 1 rotate no_reflect no_shear #
shell $-1 $-1 $-1 $44 $-1 $11 #
shell $-1 $-1 $-1 $45 $-1 $13 #
shell $-1 $-1 $-1 $46 $-1 $15 #
shell $-1 $-1 $-1 $47 $-1 $17 #
shell $-1 $-1 $-1 $48 $-1 $19 #
shell $-1 $-1 $-1 $49 $-1 $21 #
shell $-1 $-1 $-1 $50 $-1 $23 #
shell $-1 $-1 $-1 $51 $-1 $25 #
shell $-1 $-1 $-1 $52 $-1 $27 #
shell $-1 $-1 $-1 $53 $-1 $29 #
shell $-1 $-1 $-1 $54 $-1 $31 #
face $-1 $55 $56 $33 $-1 $57 forward single #
face $-1 $58 $59 $34 $-1 $60 reversed single #
face $-1 $61 $62 $35 $-1 $63 reversed single #
face $-1 $64 $65 $36 $-1 $66 forward single #
face $-1 $67 $68 $37 $-1 $69 forward single #
face $-1 $70 $71 $38 $-1 $72 reversed single #
face $-1 $73 $74 $39 $-1 $75 forward single #
face $-1 $76 $77 $40 $-1 $78 forward single #
face $-1 $79 $80 $41 $-1 $81 reversed single #
face $-1 $82 $83 $42 $-1 $84 forward single #
face $-1 $85 $86 $43 $-1 $87 forward single #
face $-1 $88 $89 $33 $-1 $90 reversed single #
loop $-1 $-1 $91 $44 #
plane-surface $-1 0 0 9.397341142925093 0 0 1 1 0 0 forward_v I I I I #
face $-1 $92 $93 $34 $-1 $94 reversed single #
loop $-1 $-1 $95 $45 #
plane-surface $-1 -73.57638370085121 0 6.397341142925093 0 0 1 1 0 0 forward_v I I I I #
face $-1 $96 $97 $35 $-1 $98 reversed single #
loop $-1 $-1 $99 $46 #
plane-surface $-1 -26.257660121974769 -122.60538855838708 139.30650442052598 -1 0 0 0 -0.52991927123019833 0.84804809178421925 forward_v I I I I #
face $-1 $100 $101 $36 $-1 $102 forward single #
loop $-1 $103 $104 $47 #
cone-surface $-1 -55.983777867503505 -34.428216273885305 6.3036401267225033 0 0.52991927123019833 -0.84804809178421925 1.5 0 0 1 I I 0 1 1.5 forward I I I I #
face $-1 $105 $106 $37 $-1 $107 forward single #
loop $-1 $108 $109 $48 #
cone-surface $-1 -38.148107220186262 -34.428216273885305 6.3036401267225033 0 0.52991927123019833 -0.84804809178421925 1.5 0 0 1 I I 0 1 1.5 forward I I I I #
face $-1 $110 $111 $38 $-1 $112 reversed single #
loop $-1 $-1 $113 $49 #
plane-surface $-1 -52.716259421363027 -12.042429600212785 61.926438641189307 0 0.75470958851134928 0.65605901945558964 1 0 0 forward_v I I I I #
face $-1 $114 $115 $39 $-1 $116 forward single #
loop $-1 $117 $118 $50 #
cone-surface $-1 -59.212530368942446 35.550194028071751 6.063584477963202 0 -0.75470958851134928 -0.65605901945558964 1 0 0 1 I I 0 1 1 forward I I I I #
face $-1 $119 $120 $40 $-1 $121 forward single #
loop $-1 $122 $123 $51 #
cone-surface $-1 -46.219988473783616 35.550194028071751 6.063584477963202 0 -0.75470958851134928 -0.65605901945558964 1 0 0 1 I I 0 1 1 forward I I I I #
face $-1 $124 $125 $41 $-1 $126 reversed single #
loop $-1 $-1 $127 $52 #
plane-surface $-1 5.7021587351362157 107.62212267907442 165.94924427003383 1 0 0 0 -0.75470958851134928 -0.65605901945558964 forward_v I I I I #
face $-1 $128 $129 $42 $-1 $130 forward single #
loop $-1 $131 $132 $53 #
cone-surface $-1 14.363853331908757 35.550194028071751 6.063584477963202 0 -0.75470958851134928 -0.65605901945558964 1 0 0 1 I I 0 1 1 forward I I I I #
face $-1 $133 $134 $43 $-1 $135 forward single #
loop $-1 $136 $137 $54 #
cone-surface $-1 27.356395227067594 35.550194028071751 6.063584477963202 0 -0.75470958851134928 -0.65605901945558964 1 0 0 1 I I 0 1 1 forward I I I I #
face $-1 $138 $139 $33 $-1 $140 reversed single #
loop $-1 $-1 $141 $55 #
plane-surface $-1 0 0 -9.397341142925093 0 0 1 1 0 0 forward_v I I I I #
coedge $-1 $142 $143 $144 $145 forward $56 $-1 #
face $-1 $146 $147 $34 $-1 $148 reversed single #
loop $-1 $-1 $149 $58 #
plane-surface $-1 -67.874224965715001 0 7.897341142925093 -1 0 0 0 0 1 forward_v I I I I #
coedge $-1 $150 $151 $152 $153 forward $59 $-1 #
face $-1 $154 $155 $35 $-1 $156 forward single #
loop $-1 $-1 $157 $61 #
plane-surface $-1 -47.065942543844884 -38.582933694645462 4.8424711559792115 0 -0.52991927123019833 0.84804809178421925 1 0 0 forward_v I I I I #
coedge $-1 $158 $159 $160 $161 reversed $62 $-1 #
face $-1 $-1 $162 $36 $-1 $163 forward single #
loop $-1 $164 $165 $64 #
cone-surface $-1 -55.983777867503505 -33.520717190489535 4.8513380351546882 0 0.52991927123019833 -0.84804809178421925 0.75 0 0 1 I I -0.70710678118654757 0.70710678118654757 0.75 forward I I I I #
loop $-1 $-1 $166 $47 #
coedge $-1 $104 $104 $167 $168 reversed $65 $-1 #
face $-1 $-1 $169 $37 $-1 $170 forward single #
loop $-1 $171 $172 $67 #
cone-surface $-1 -38.148107220186262 -33.520717190489535 4.8513380351546882 0 0.52991927123019833 -0.84804809178421925 0.75 0 0 1 I I -0.70710678118654757 0.70710678118654757 0.75 forward I I I I #
loop $-1 $-1 $173 $48 #
coedge $-1 $109 $109 $174 $175 reversed $68 $-1 #
face $-1 $176 $177 $38 $-1 $178 forward single #
loop $-1 $-1 $179 $70 #
plane-surface $-1 -37.558293877011053 107.62212267907442 165.94924427003383 -1 0 0 0 0.75470958851134928 0.65605901945558964 forward_v I I I I #
coedge $-1 $180 $181 $182 $183 reversed $71 $-1 #
face $-1 $-1 $184 $39 $-1 $185 forward single #
loop $-1 $186 $187 $73 #
cone-surface $-1 -59.212530368942446 34.621357894892114 5.2561595663879714 0 -0.75470958851134928 -0.65605901945558964 0.5 0 0 1 I I -0.70710678118654691 0.70710678118654813 0.5 forward I I I I #
loop $-1 $-1 $188 $50 #
coedge $-1 $118 $118 $189 $190 reversed $74 $-1 #
face $-1 $-1 $191 $40 $-1 $192 forward single #
loop $-1 $193 $194 $76 #
cone-surface $-1 -46.219988473783616 34.621357894892114 5.2561595663879714 0 -0.75470958851134928 -0.65605901945558964 0.5 0 0 1 I I -0.70710678118654691 0.70710678118654813 0.5 forward I I I I #
loop $-1 $-1 $195 $51 #
coedge $-1 $123 $123 $196 $197 reversed $77 $-1 #
face $-1 $198 $199 $41 $-1 $200 reversed single #
loop $-1 $-1 $201 $79 #
plane-surface $-1 20.86012427948819 -12.042429600212785 61.926438641189307 0 0.75470958851134928 0.65605901945558964 1 0 0 forward_v I I I I #
coedge $-1 $202 $203 $204 $205 reversed $80 $-1 #
face $-1 $-1 $206 $42 $-1 $207 forward single #
loop $-1 $208 $209 $82 #
cone-surface $-1 14.363853331908757 34.621357894892114 5.2561595663879714 0 -0.75470958851134928 -0.65605901945558964 0.5 0 0 1 I I -0.70710678118654691 0.70710678118654813 0.5 forward I I I I #
loop $-1 $-1 $210 $53 #
coedge $-1 $132 $132 $211 $212 reversed $83 $-1 #
face $-1 $-1 $213 $43 $-1 $214 forward single #
loop $-1 $215 $216 $85 #
cone-surface $-1 27.356395227067594 34.621357894892114 5.2561595663879714 0 -0.75470958851134928 -0.65605901945558964 0.5 0 0 1 I I -0.70710678118654691 0.70710678118654813 0.5 forward I I I I #
loop $-1 $-1 $217 $54 #
coedge $-1 $137 $137 $218 $219 reversed $86 $-1 #
face $-1 $220 $221 $33 $-1 $222 reversed single #
loop $-1 $-1 $223 $88 #
plane-surface $-1 0 -38.582933694645462 0 0 1 0 0 0 1 forward_v I I I I #
coedge $-1 $224 $225 $226 $227 forward $89 $-1 #
coedge $-1 $228 $91 $229 $230 forward $56 $-1 #
coedge $-1 $91 $228 $231 $232 forward $56 $-1 #
coedge $-1 $233 $234 $91 $145 reversed $235 $-1 #
edge $-1 $236 -38.582933694645462 $237 38.582933694645462 $144 $238 forward 7 unknown #
face $-1 $239 $240 $34 $-1 $241 reversed single #
loop $-1 $-1 $242 $92 #
plane-surface $-1 0 38.582933694645462 0 0 -1 0 0 0 -1 forward_v I I I I #
coedge $-1 $152 $243 $244 $245 reversed $93 $-1 #
coedge $-1 $246 $95 $247 $248 reversed $59 $-1 #
coedge $-1 $95 $246 $249 $250 reversed $59 $-1 #
coedge $-1 $251 $149 $95 $153 reversed $93 $-1 #
edge $-1 $252 -38.582933694645462 $253 38.582933694645462 $152 $254 forward 7 unknown #
face $-1 $255 $256 $35 $-1 $257 forward single #
loop $-1 $-1 $258 $96 #
plane-surface $-1 -67.874224965715001 0 7.897341142925093 -1 0 0 0 0 1 forward_v I I I I #
coedge $-1 $259 $260 $261 $262 reversed $97 $-1 #
coedge $-1 $159 $99 $263 $264 reversed $62 $-1 #
coedge $-1 $99 $158 $259 $265 reversed $62 $-1 #
coedge $-1 $261 $266 $99 $161 forward $256 $-1 #
edge $-1 $267 22.719760584548077 $268 30.009076166122156 $160 $269 forward 7 unknown #
loop $-1 $-1 $167 $100 #
plane-surface $-1 -47.065942543844884 -38.582933694645462 4.8424711559792115 0 -0.52991927123019833 0.84804809178421925 1 0 0 forward_v I I I I #
loop $-1 $-1 $270 $64 #
coedge $-1 $165 $165 $166 $271 reversed $101 $-1 #
coedge $-1 $166 $166 $165 $271 forward $103 $-1 #
coedge $-1 $167 $167 $104 $168 forward $162 $-1 #
edge $-1 $272 1.5688762029662652e-015 $272 6.2831853071796022 $167 $273 forward 7 unknown #
loop $-1 $-1 $174 $105 #
plane-surface $-1 -47.065942543844884 -38.582933694645462 4.8424711559792115 0 -0.52991927123019833 0.84804809178421925 1 0 0 forward_v I I I I #
loop $-1 $-1 $274 $67 #
coedge $-1 $172 $172 $173 $275 reversed $106 $-1 #
coedge $-1 $173 $173 $172 $275 forward $108 $-1 #
coedge $-1 $174 $174 $109 $175 forward $169 $-1 #
edge $-1 $276 1.5688762029662652e-015 $276 6.2831853071796022 $174 $277 forward 7 unknown #
face $-1 $278 $279 $38 $-1 $280 reversed single #
loop $-1 $-1 $182 $110 #
plane-surface $-1 0 0 9.397341142925093 0 0 1 1 0 0 forward_v I I I I #
coedge $-1 $281 $282 $283 $284 reversed $111 $-1 #
coedge $-1 $285 $113 $286 $287 reversed $71 $-1 #
coedge $-1 $113 $285 $281 $288 forward $71 $-1 #
coedge $-1 $283 $289 $113 $183 forward $177 $-1 #
edge $-1 $290 -41.516095255033491 $291 -11.200164166329539 $182 $292 forward 7 unknown #
loop $-1 $-1 $189 $114 #
plane-surface $-1 -52.716259421363027 -12.042429600212785 61.926438641189307 0 0.75470958851134928 0.65605901945558964 1 0 0 forward_v I I I I #
loop $-1 $-1 $293 $73 #
coedge $-1 $187 $187 $188 $294 reversed $115 $-1 #
coedge $-1 $188 $188 $187 $294 forward $117 $-1 #
coedge $-1 $189 $189 $118 $190 forward $184 $-1 #
edge $-1 $295 -5.4776603943590583e-016 $295 6.2831853071795996 $189 $296 forward 7 unknown #
loop $-1 $-1 $196 $119 #
plane-surface $-1 -52.716259421363027 -12.042429600212785 61.926438641189307 0 0.75470958851134928 0.65605901945558964 1 0 0 forward_v I I I I #
loop $-1 $-1 $297 $76 #
coedge $-1 $194 $194 $195 $298 reversed $120 $-1 #
coedge $-1 $195 $195 $194 $298 forward $122 $-1 #
coedge $-1 $196 $196 $123 $197 forward $191 $-1 #
edge $-1 $299 -5.4776603943590583e-016 $299 6.2831853071795996 $196 $300 forward 7 unknown #
face $-1 $301 $302 $41 $-1 $303 forward single #
loop $-1 $-1 $304 $124 #
plane-surface $-1 36.018089823840164 107.62212267907442 165.94924427003383 -1 0 0 0 0.75470958851134928 0.65605901945558964 forward_v I I I I #
coedge $-1 $305 $306 $307 $308 reversed $125 $-1 #
coedge $-1 $203 $127 $309 $310 reversed $80 $-1 #
coedge $-1 $127 $202 $305 $311 reversed $80 $-1 #
coedge $-1 $307 $312 $127 $205 forward $302 $-1 #
edge $-1 $313 15.22812764489175 $314 20.190644300191174 $204 $315 forward 7 unknown #
loop $-1 $-1 $211 $128 #
plane-surface $-1 20.86012427948819 -12.042429600212785 61.926438641189307 0 0.75470958851134928 0.65605901945558964 1 0 0 forward_v I I I I #
loop $-1 $-1 $316 $82 #
coedge $-1 $209 $209 $210 $317 reversed $129 $-1 #
coedge $-1 $210 $210 $209 $317 forward $131 $-1 #
coedge $-1 $211 $211 $132 $212 forward $206 $-1 #
edge $-1 $318 -5.4776603943590583e-016 $318 6.2831853071795996 $211 $319 forward 7 unknown #
loop $-1 $-1 $218 $133 #
plane-surface $-1 20.86012427948819 -12.042429600212785 61.926438641189307 0 0.75470958851134928 0.65605901945558964 1 0 0 forward_v I I I I #
loop $-1 $-1 $320 $85 #
coedge $-1 $216 $216 $217 $321 reversed $134 $-1 #
coedge $-1 $217 $217 $216 $321 forward $136 $-1 #
coedge $-1 $218 $218 $137 $219 forward $213 $-1 #
edge $-1 $322 -5.4776603943590583e-016 $322 6.2831853071795996 $218 $323 forward 7 unknown #
face $-1 $324 $325 $33 $-1 $326 reversed single #
loop $-1 $-1 $327 $138 #
plane-surface $-1 -79.278542435987418 0 0 1 0 0 0 0 -1 forward_v I I I I #
coedge $-1 $328 $231 $329 $330 forward $139 $-1 #
coedge $-1 $331 $141 $328 $332 forward $89 $-1 #
coedge $-1 $141 $331 $333 $334 forward $89 $-1 #
coedge $-1 $234 $233 $141 $227 reversed $235 $-1 #
edge $-1 $335 -38.582933694645462 $336 38.582933694645462 $226 $337 forward 7 unknown #
coedge $-1 $143 $142 $338 $339 forward $56 $-1 #
coedge $-1 $340 $341 $142 $230 reversed $325 $-1 #
edge $-1 $237 -79.278542435987418 $342 79.278542435987418 $229 $343 forward 7 unknown #
coedge $-1 $223 $344 $143 $232 reversed $139 $-1 #
edge $-1 $345 -79.278542435987418 $236 79.278542435987418 $231 $346 forward 7 unknown #
coedge $-1 $226 $144 $344 $347 forward $235 $-1 #
coedge $-1 $144 $226 $340 $348 reversed $235 $-1 #
loop $-1 $-1 $233 $324 #
vertex $-1 $145 $349 #
vertex $-1 $145 $350 #
straight-curve $-1 79.278542435987418 0 9.397341142925093 0 1 0 I I #
face $-1 $351 $352 $34 $-1 $353 forward single #
loop $-1 $-1 $354 $146 #
plane-surface $-1 -79.278542435987418 0 0 1 0 0 0 0 -1 forward_v I I I I #
coedge $-1 $249 $355 $251 $356 forward $147 $-1 #
coedge $-1 $149 $251 $357 $358 reversed $93 $-1 #
coedge $-1 $359 $247 $149 $245 forward $360 $-1 #
edge $-1 $253 2.4486705714625465 $361 5.4486705714625465 $244 $362 forward 7 unknown #
coedge $-1 $151 $150 $354 $363 reversed $59 $-1 #
coedge $-1 $244 $364 $150 $248 forward $360 $-1 #
edge $-1 $365 -42.490350585561814 $253 -31.086033115289396 $247 $366 forward 7 unknown #
coedge $-1 $367 $242 $151 $250 forward $147 $-1 #
edge $-1 $252 31.086033115289396 $368 42.490350585561814 $249 $369 forward 7 unknown #
coedge $-1 $243 $152 $242 $356 reversed $93 $-1 #
vertex $-1 $250 $370 #
vertex $-1 $248 $371 #
straight-curve $-1 -67.874224965715001 0 6.397341142925093 0 -1 0 I I #
face $-1 $-1 $372 $35 $-1 $373 reversed single #
loop $-1 $-1 $261 $154 #
plane-surface $-1 0 0 9.397341142925093 0 0 1 1 0 0 forward_v I I I I #
coedge $-1 $374 $375 $260 $376 reversed $155 $-1 #
coedge $-1 $377 $157 $159 $265 forward $97 $-1 #
coedge $-1 $157 $377 $258 $376 forward $97 $-1 #
coedge $-1 $378 $160 $157 $262 forward $256 $-1 #
edge $-1 $268 2.7246888500523276 $379 44.341253693792559 $261 $380 forward 7 unknown #
coedge $-1 $381 $382 $158 $264 forward $372 $-1 #
edge $-1 $383 -64.81078105428378 $267 -60.255911067337898 $263 $384 forward 7 unknown #
edge $-1 $268 -8.5954035533975386 $383 0 $159 $385 forward 7 unknown #
coedge $-1 $160 $378 $381 $386 forward $256 $-1 #
vertex $-1 $264 $387 #
vertex $-1 $161 $388 #
straight-curve $-1 -26.257660121974769 -61.302694279193538 9.3973411429250859 0 1 0 I I #
coedge $-1 $270 $270 $-1 $389 reversed $164 $-1 #
edge $-1 $390 0 $390 6.2831853071796004 $165 $391 forward 7 unknown #
vertex $-1 $168 $392 #
ellipse-curve $-1 -55.983777867503505 -34.938275903858425 7.1199061494521514 0 -0.52991927123019833 0.84804809178421925 1.5 0 0 1 I I #
coedge $-1 $274 $274 $-1 $393 reversed $171 $-1 #
edge $-1 $394 0 $394 6.2831853071796004 $172 $395 forward 7 unknown #
vertex $-1 $175 $396 #
ellipse-curve $-1 -38.148107220186262 -34.938275903858425 7.1199061494521514 0 -0.52991927123019833 0.84804809178421925 1.5 0 0 1 I I #
face $-1 $-1 $397 $38 $-1 $398 forward single #
loop $-1 $-1 $399 $176 #
plane-surface $-1 0 38.582933694645462 0 0 -1 0 0 0 -1 forward_v I I I I #
coedge $-1 $282 $179 $181 $288 reversed $111 $-1 #
coedge $-1 $179 $281 $399 $400 reversed $111 $-1 #
coedge $-1 $401 $182 $179 $284 forward $177 $-1 #
edge $-1 $291 -20.190644300191174 $402 -15.22812764489175 $283 $403 forward 7 unknown #
coedge $-1 $181 $180 $404 $405 reversed $71 $-1 #
coedge $-1 $406 $407 $180 $287 forward $397 $-1 #
edge $-1 $408 -52.82745614132434 $290 -45.263324701720911 $286 $409 forward 7 unknown #
edge $-1 $410 -77.165867389290909 $291 -69.60173594968748 $281 $411 forward 7 unknown #
coedge $-1 $182 $401 $406 $412 forward $177 $-1 #
vertex $-1 $287 $413 #
vertex $-1 $183 $414 #
straight-curve $-1 -26.358129710681514 33.620417039346037 9.3973411429250859 1 0 0 I I #
coedge $-1 $293 $293 $-1 $415 reversed $186 $-1 #
edge $-1 $416 0 $416 6.2831853071796004 $187 $417 forward 7 unknown #
vertex $-1 $190 $418 #
ellipse-curve $-1 -59.212530368942446 36.101675366995742 6.5429798798106606 0 0.75470958851134928 0.65605901945558964 1 0 0 1 I I #
coedge $-1 $297 $297 $-1 $419 reversed $193 $-1 #
edge $-1 $420 0 $420 6.2831853071796004 $194 $421 forward 7 unknown #
vertex $-1 $197 $422 #
ellipse-curve $-1 -46.219988473783616 36.101675366995742 6.5429798798106606 0 0.75470958851134928 0.65605901945558964 1 0 0 1 I I #
face $-1 $-1 $423 $41 $-1 $424 reversed single #
loop $-1 $-1 $204 $198 #
plane-surface $-1 0 0 9.397341142925093 0 0 1 1 0 0 forward_v I I I I #
coedge $-1 $425 $426 $427 $428 reversed $199 $-1 #
coedge $-1 $429 $201 $203 $311 forward $125 $-1 #
coedge $-1 $201 $429 $425 $430 forward $125 $-1 #
coedge $-1 $427 $204 $201 $308 forward $302 $-1 #
edge $-1 $314 -4.7279034046078792 $431 25.588027684096069 $307 $432 forward 7 unknown #
coedge $-1 $433 $434 $202 $310 forward $423 $-1 #
edge $-1 $435 -79.286003518320683 $313 -73.577280992091829 $309 $436 forward 7 unknown #
edge $-1 $314 69.60173594968748 $435 77.165867389290909 $203 $437 forward 7 unknown #
coedge $-1 $204 $427 $433 $438 forward $302 $-1 #
vertex $-1 $205 $439 #
vertex $-1 $205 $440 #
straight-curve $-1 5.7021587351362157 53.811061339537211 9.3973411429250859 0 -1 0 I I #
coedge $-1 $316 $316 $-1 $441 reversed $208 $-1 #
edge $-1 $442 0 $442 6.2831853071796004 $209 $443 forward 7 unknown #
vertex $-1 $212 $444 #
ellipse-curve $-1 14.363853331908757 36.101675366995742 6.5429798798106606 0 0.75470958851134928 0.65605901945558964 1 0 0 1 I I #
coedge $-1 $320 $320 $-1 $445 reversed $215 $-1 #
edge $-1 $446 0 $446 6.2831853071796004 $216 $447 forward 7 unknown #
vertex $-1 $219 $448 #
ellipse-curve $-1 27.356395227067594 36.101675366995742 6.5429798798106606 0 0.75470958851134928 0.65605901945558964 1 0 0 1 I I #
face $-1 $-1 $235 $33 $-1 $449 reversed single #
loop $-1 $-1 $340 $220 #
plane-surface $-1 0 38.582933694645462 0 0 -1 0 0 0 -1 forward_v I I I I #
coedge $-1 $450 $338 $341 $451 forward $221 $-1 #
coedge $-1 $344 $223 $224 $332 reversed $139 $-1 #
coedge $-1 $338 $450 $223 $330 reversed $221 $-1 #
edge $-1 $345 -9.397341142925093 $452 9.397341142925093 $329 $453 forward 7 unknown #
coedge $-1 $225 $224 $450 $454 forward $89 $-1 #
edge $-1 $336 -79.278542435987418 $452 79.278542435987418 $328 $455 forward 7 unknown #
coedge $-1 $341 $340 $225 $334 reversed $325 $-1 #
edge $-1 $456 -79.278542435987418 $335 79.278542435987418 $333 $457 forward 7 unknown #
vertex $-1 $227 $458 #
vertex $-1 $347 $459 #
straight-curve $-1 79.278542435987418 0 -9.397341142925093 0 -1 0 I I #
coedge $-1 $327 $329 $228 $339 reversed $221 $-1 #
edge $-1 $342 -38.582933694645462 $345 38.582933694645462 $338 $460 forward 7 unknown #
coedge $-1 $333 $229 $234 $348 forward $325 $-1 #
coedge $-1 $229 $333 $327 $451 reversed $325 $-1 #
vertex $-1 $230 $461 #
straight-curve $-1 0 38.582933694645462 9.397341142925093 -1 0 0 I I #
coedge $-1 $231 $328 $233 $347 reversed $139 $-1 #
vertex $-1 $339 $462 #
straight-curve $-1 0 -38.582933694645462 9.397341142925093 1 0 0 I I #
edge $-1 $236 -9.397341142925093 $336 9.397341142925093 $233 $463 forward 7 unknown #
edge $-1 $237 -9.397341142925093 $335 9.397341142925093 $234 $464 forward 7 unknown #
point $-1 79.278542435987418 -38.582933694645462 9.397341142925093 #
point $-1 79.278542435987418 38.582933694645462 9.397341142925093 #
face $-1 $-1 $360 $34 $-1 $465 reversed single #
loop $-1 $-1 $357 $239 #
plane-surface $-1 0 0 9.397341142925093 0 0 1 1 0 0 forward_v I I I I #
coedge $-1 $466 $467 $246 $363 forward $240 $-1 #
coedge $-1 $242 $367 $468 $469 reversed $147 $-1 #
edge $-1 $470 -5.4486705714625465 $252 -2.4486705714625465 $242 $471 forward 7 unknown #
coedge $-1 $468 $472 $243 $358 forward $352 $-1 #
edge $-1 $361 -38.582933694645462 $470 38.582933694645462 $357 $473 forward 7 unknown #
coedge $-1 $364 $244 $472 $474 reversed $360 $-1 #
loop $-1 $-1 $244 $351 #
vertex $-1 $245 $475 #
straight-curve $-1 -67.874224965715001 -38.582933694645462 3.9486705714625465 0 0 1 I I #
edge $-1 $368 -38.582933694645462 $365 38.582933694645462 $354 $476 forward 7 unknown #
coedge $-1 $247 $359 $466 $477 forward $360 $-1 #
vertex $-1 $363 $478 #
straight-curve $-1 -36.788191850425605 -38.582933694645462 6.397341142925093 1 0 0 I I #
coedge $-1 $355 $249 $467 $479 reversed $147 $-1 #
vertex $-1 $363 $480 #
straight-curve $-1 -36.788191850425605 38.582933694645462 6.397341142925093 -1 0 0 I I #
point $-1 -67.874224965715001 38.582933694645462 6.397341142925093 #
point $-1 -67.874224965715001 -38.582933694645462 6.397341142925093 #
loop $-1 $-1 $263 $255 #
plane-surface $-1 0 -38.582933694645462 0 0 1 0 0 0 1 forward_v I I I I #
coedge $-1 $375 $258 $481 $482 reversed $155 $-1 #
coedge $-1 $258 $374 $378 $483 reversed $155 $-1 #
edge $-1 $484 0 $379 8.5954035533975421 $258 $485 forward 7 unknown #
coedge $-1 $260 $259 $382 $486 reversed $97 $-1 #
coedge $-1 $266 $261 $375 $483 forward $256 $-1 #
vertex $-1 $483 $487 #
straight-curve $-1 -23.532971271922442 -31.293618113071382 9.397341142925093 -1 0 0 I I #
coedge $-1 $481 $263 $266 $386 reversed $372 $-1 #
coedge $-1 $263 $481 $377 $486 forward $372 $-1 #
vertex $-1 $264 $488 #
straight-curve $-1 -26.257660121974769 -38.582933694645462 69.653252210262991 0 0 1 I I #
straight-curve $-1 -26.257660121974769 -38.582933694645462 4.8424711559792115 0 -0.84804809178421925 -0.52991927123019833 I I #
edge $-1 $489 -67.874224965715001 $267 -26.257660121974769 $381 $490 forward 7 unknown #
point $-1 -26.257660121974769 -38.582933694645462 9.397341142925093 #
point $-1 -26.257660121974769 -31.293618113071382 9.397341142925093 #
edge $-1 $491 1 $491 0 $270 $-1 forward 7 unknown #
vertex $-1 $271 $492 #
ellipse-curve $-1 -55.983777867503505 -33.918156643912184 5.4873741039928525 0 -0.52991927123019833 0.84804809178421925 1.5 0 0 1 I I #
point $-1 -54.483777867503505 -34.938275903858425 7.1199061494521558 #
edge $-1 $493 1 $493 0 $274 $-1 forward 7 unknown #
vertex $-1 $275 $494 #
ellipse-curve $-1 -38.148107220186262 -33.918156643912184 5.4873741039928525 0 -0.52991927123019833 0.84804809178421925 1.5 0 0 1 I I #
point $-1 -36.648107220186262 -34.938275903858425 7.1199061494521558 #
loop $-1 $-1 $286 $278 #
plane-surface $-1 -67.874224965715001 0 7.897341142925093 -1 0 0 0 0 1 forward_v I I I I #
coedge $-1 $404 $495 $282 $400 forward $279 $-1 #
edge $-1 $402 73.577280992091829 $410 79.286003518320683 $399 $496 forward 7 unknown #
coedge $-1 $289 $283 $495 $497 forward $177 $-1 #
vertex $-1 $497 $498 #
straight-curve $-1 -37.558293877011053 53.811061339537211 9.3973411429250859 0 1 0 I I #
coedge $-1 $499 $399 $285 $405 forward $279 $-1 #
edge $-1 $410 11.200164166329539 $408 41.516095255033491 $404 $500 forward 7 unknown #
coedge $-1 $407 $286 $289 $412 reversed $397 $-1 #
coedge $-1 $286 $406 $499 $501 reversed $397 $-1 #
vertex $-1 $501 $502 #
straight-curve $-1 -67.874224965715001 3.925004618235052 43.558006303216473 0 -0.65605901945558975 0.75470958851134939 I I #
vertex $-1 $405 $503 #
straight-curve $-1 -37.558293877011053 -12.042429600212785 61.926438641189307 0 -0.65605901945558964 0.75470958851134928 I I #
edge $-1 $504 -38.582933694645462 $290 -33.620417039346037 $289 $505 forward 7 unknown #
point $-1 -67.874224965715001 33.620417039346037 9.397341142925093 #
point $-1 -37.558293877011053 33.620417039346037 9.397341142925093 #
edge $-1 $506 1 $506 0 $293 $-1 forward 7 unknown #
vertex $-1 $294 $507 #
ellipse-curve $-1 -59.212530368942446 34.998712689147787 5.5841890761157664 0 0.75470958851134928 0.65605901945558964 1 0 0 1 I I #
point $-1 -58.212530368942446 36.101675366995714 6.5429798798106367 #
edge $-1 $508 1 $508 0 $297 $-1 forward 7 unknown #
vertex $-1 $298 $509 #
ellipse-curve $-1 -46.219988473783616 34.998712689147787 5.5841890761157664 0 0.75470958851134928 0.65605901945558964 1 0 0 1 I I #
point $-1 -45.219988473783616 36.101675366995714 6.5429798798106367 #
loop $-1 $-1 $309 $301 #
plane-surface $-1 0 38.582933694645462 0 0 -1 0 0 0 -1 forward_v I I I I #
coedge $-1 $426 $304 $306 $430 reversed $199 $-1 #
coedge $-1 $304 $425 $510 $511 reversed $199 $-1 #
coedge $-1 $312 $307 $304 $428 forward $302 $-1 #
edge $-1 $431 -20.190644300191174 $512 -15.22812764489175 $427 $513 forward 7 unknown #
coedge $-1 $306 $305 $434 $514 reversed $125 $-1 #
edge $-1 $515 -77.165867389290909 $431 -69.60173594968748 $425 $516 forward 7 unknown #
vertex $-1 $308 $517 #
straight-curve $-1 10.430062139744095 33.620417039346037 9.3973411429250859 1 0 0 I I #
coedge $-1 $510 $309 $312 $438 reversed $423 $-1 #
coedge $-1 $309 $510 $429 $514 forward $423 $-1 #
vertex $-1 $310 $518 #
straight-curve $-1 5.7021587351362157 38.582933694645462 82.974622135016915 0 0 1 I I #
straight-curve $-1 5.7021587351362157 -12.042429600212785 61.926438641189307 0 0.65605901945558964 -0.75470958851134928 I I #
edge $-1 $512 -36.018089823840164 $313 -5.7021587351362157 $433 $519 forward 7 unknown #
point $-1 5.7021587351362157 38.582933694645462 9.397341142925093 #
point $-1 5.7021587351362157 33.620417039346037 9.397341142925093 #
edge $-1 $520 1 $520 0 $316 $-1 forward 7 unknown #
vertex $-1 $317 $521 #
ellipse-curve $-1 14.363853331908757 34.998712689147787 5.5841890761157664 0 0.75470958851134928 0.65605901945558964 1 0 0 1 I I #
point $-1 15.363853331908757 36.101675366995714 6.5429798798106367 #
edge $-1 $522 1 $522 0 $320 $-1 forward 7 unknown #
vertex $-1 $321 $523 #
ellipse-curve $-1 27.356395227067594 34.998712689147787 5.5841890761157664 0 0.75470958851134928 0.65605901945558964 1 0 0 1 I I #
point $-1 28.356395227067594 36.101675366995714 6.5429798798106367 #
plane-surface $-1 79.278542435987418 0 0 -1 0 0 0 0 1 forward_v I I I I #
coedge $-1 $329 $327 $331 $454 reversed $221 $-1 #
edge $-1 $342 -9.397341142925093 $456 9.397341142925093 $341 $524 forward 7 unknown #
vertex $-1 $454 $525 #
straight-curve $-1 -79.278542435987418 -38.582933694645462 0 0 0 -1 I I #
edge $-1 $452 -38.582933694645462 $456 38.582933694645462 $450 $526 forward 7 unknown #
straight-curve $-1 0 -38.582933694645462 -9.397341142925093 -1 0 0 I I #
vertex $-1 $334 $527 #
straight-curve $-1 0 38.582933694645462 -9.397341142925093 1 0 0 I I #
point $-1 79.278542435987418 38.582933694645462 -9.397341142925093 #
point $-1 79.278542435987418 -38.582933694645462 -9.397341142925093 #
straight-curve $-1 -79.278542435987418 0 9.397341142925093 0 -1 0 I I #
point $-1 -79.278542435987418 38.582933694645462 9.397341142925093 #
point $-1 -79.278542435987418 -38.582933694645462 9.397341142925093 #
straight-curve $-1 79.278542435987418 -38.582933694645462 0 0 0 -1 I I #
straight-curve $-1 79.278542435987418 38.582933694645462 0 0 0 -1 I I #
plane-surface $-1 0 -38.582933694645462 0 0 1 0 0 0 1 forward_v I I I I #
coedge $-1 $528 $354 $364 $477 reversed $240 $-1 #
coedge $-1 $354 $528 $367 $479 forward $240 $-1 #
coedge $-1 $529 $357 $355 $469 forward $352 $-1 #
edge $-1 $470 67.874224965715001 $530 79.278542435987418 $355 $531 forward 7 unknown #
vertex $-1 $469 $532 #
straight-curve $-1 -67.874224965715001 38.582933694645462 3.9486705714625465 0 0 -1 I I #
coedge $-1 $357 $529 $359 $474 forward $352 $-1 #
straight-curve $-1 -67.874224965715001 0 9.397341142925093 0 1 0 I I #
edge $-1 $533 -79.278542435987418 $361 -67.874224965715001 $359 $534 forward 7 unknown #
point $-1 -67.874224965715001 -38.582933694645462 9.397341142925093 #
straight-curve $-1 -79.278542435987418 0 6.397341142925093 0 -1 0 I I #
edge $-1 $533 -9.397341142925093 $365 -6.397341142925093 $466 $535 forward 7 unknown #
point $-1 -79.278542435987418 -38.582933694645462 6.397341142925093 #
edge $-1 $530 -9.397341142925093 $368 -6.397341142925093 $367 $536 forward 7 unknown #
point $-1 -79.278542435987418 38.582933694645462 6.397341142925093 #
coedge $-1 $382 $381 $374 $482 forward $372 $-1 #
edge $-1 $489 60.255911067337898 $484 64.81078105428378 $481 $537 forward 7 unknown #
edge $-1 $379 31.293618113071378 $489 38.582933694645462 $378 $538 forward 7 unknown #
vertex $-1 $482 $539 #
straight-curve $-1 -67.874224965715001 -38.582933694645462 4.8424711559792115 0 0.84804809178421925 0.52991927123019833 I I #
edge $-1 $484 -44.341253693792559 $383 -2.7246888500523276 $382 $540 forward 7 unknown #
point $-1 -67.874224965715001 -31.293618113071378 9.397341142925093 #
point $-1 -26.257660121974769 -38.582933694645462 4.8424711559792115 #
vertex $-1 $386 $541 #
straight-curve $-1 0 -38.582933694645462 9.397341142925093 1 0 0 I I #
vertex $-1 $389 $542 #
point $-1 -54.483777867503505 -33.918156643912184 5.4873741039928525 #
vertex $-1 $393 $543 #
point $-1 -36.648107220186262 -33.918156643912184 5.4873741039928525 #
coedge $-1 $399 $499 $401 $497 reversed $279 $-1 #
straight-curve $-1 -37.558293877011053 38.582933694645462 82.974622135016915 0 0 -1 I I #
edge $-1 $402 37.558293877011053 $504 67.874224965715001 $495 $544 forward 7 unknown #
point $-1 -37.558293877011053 38.582933694645462 9.397341142925093 #
coedge $-1 $495 $404 $407 $501 forward $279 $-1 #
straight-curve $-1 -26.358129710681514 38.582933694645462 3.6886186166962283 -1 0 0 I I #
edge $-1 $408 -79.286003518320683 $504 -73.577280992091829 $499 $545 forward 7 unknown #
point $-1 -67.874224965715001 38.582933694645462 3.6886186166962318 #
point $-1 -37.558293877011053 38.582933694645462 3.6886186166962318 #
vertex $-1 $412 $546 #
straight-curve $-1 -67.874224965715001 0 9.397341142925093 0 -1 0 I I #
vertex $-1 $415 $547 #
point $-1 -58.212530368942446 34.998712689147787 5.5841890761157664 #
vertex $-1 $419 $548 #
point $-1 -45.219988473783616 34.998712689147787 5.5841890761157664 #
coedge $-1 $434 $433 $426 $511 forward $423 $-1 #
edge $-1 $512 73.577280992091829 $515 79.286003518320683 $510 $549 forward 7 unknown #
vertex $-1 $438 $550 #
straight-curve $-1 36.018089823840164 53.811061339537211 9.3973411429250859 0 1 0 I I #
edge $-1 $515 -25.588027684096069 $435 4.7279034046078792 $434 $551 forward 7 unknown #
vertex $-1 $514 $552 #
straight-curve $-1 36.018089823840164 -12.042429600212785 61.926438641189307 0 -0.65605901945558964 0.75470958851134928 I I #
point $-1 36.018089823840164 33.620417039346037 9.397341142925093 #
point $-1 5.7021587351362157 38.582933694645462 3.6886186166962318 #
straight-curve $-1 0 38.582933694645462 9.397341142925093 -1 0 0 I I #
vertex $-1 $441 $553 #
point $-1 15.363853331908757 34.998712689147787 5.5841890761157664 #
vertex $-1 $445 $554 #
point $-1 28.356395227067594 34.998712689147787 5.5841890761157664 #
straight-curve $-1 -79.278542435987418 38.582933694645462 0 0 0 -1 I I #
point $-1 -79.278542435987418 -38.582933694645462 -9.397341142925093 #
straight-curve $-1 -79.278542435987418 0 -9.397341142925093 0 1 0 I I #
point $-1 -79.278542435987418 38.582933694645462 -9.397341142925093 #
coedge $-1 $467 $466 $529 $555 reversed $240 $-1 #
coedge $-1 $472 $468 $528 $555 forward $352 $-1 #
vertex $-1 $469 $556 #
straight-curve $-1 0 38.582933694645462 9.397341142925093 -1 0 0 I I #
point $-1 -67.874224965715001 38.582933694645462 9.397341142925093 #
vertex $-1 $555 $557 #
straight-curve $-1 0 -38.582933694645462 9.397341142925093 1 0 0 I I #
straight-curve $-1 -79.278542435987418 -38.582933694645462 0 0 0 -1 I I #
straight-curve $-1 -79.278542435987418 38.582933694645462 0 0 0 -1 I I #
straight-curve $-1 -67.874224965715001 -38.582933694645462 69.653252210262991 0 0 -1 I I #
straight-curve $-1 -67.874224965715001 0 9.397341142925093 0 -1 0 I I #
point $-1 -67.874224965715001 -38.582933694645462 4.8424711559792115 #
straight-curve $-1 -23.532971271922442 -38.582933694645462 4.8424711559792106 1 0 0 I I #
point $-1 -67.874224965715001 -38.582933694645462 9.397341142925093 #
point $-1 -55.983777867503505 -33.123277737066886 4.2153019663165239 #
point $-1 -38.148107220186262 -33.123277737066886 4.2153019663165239 #
straight-curve $-1 0 38.582933694645462 9.397341142925093 -1 0 0 I I #
straight-curve $-1 -67.874224965715001 38.582933694645462 82.974622135016915 0 0 1 I I #
point $-1 -67.874224965715001 38.582933694645462 9.397341142925093 #
point $-1 -59.212530368942446 34.244003100636441 4.9281300566601765 #
point $-1 -46.219988473783616 34.244003100636441 4.9281300566601765 #
straight-curve $-1 36.018089823840164 38.582933694645462 82.974622135016915 0 0 -1 I I #
point $-1 36.018089823840164 38.582933694645462 9.397341142925093 #
straight-curve $-1 10.430062139744095 38.582933694645462 3.6886186166962283 -1 0 0 I I #
point $-1 36.018089823840164 38.582933694645462 3.6886186166962318 #
point $-1 14.363853331908757 34.244003100636441 4.9281300566601765 #
point $-1 27.356395227067594 34.244003100636441 4.9281300566601765 #
edge $-1 $530 -38.582933694645462 $533 38.582933694645462 $528 $558 forward 7 unknown #
point $-1 -79.278542435987418 38.582933694645462 9.397341142925093 #
point $-1 -79.278542435987418 -38.582933694645462 9.397341142925093 #
straight-curve $-1 -79.278542435987418 0 9.397341142925093 0 -1 0 I I #
End-of-ACIS-data 