500 0 11 0           
7 Unknown 11 ACIS 5.0 NT 24 Fri Mar 26 16:52:38 1999 
-1 9.9999999999999995e-007 1e-010 
body $-1 $11 $-1 $12 #
body $-1 $13 $-1 $14 #
body $-1 $15 $-1 $16 #
body $-1 $17 $-1 $18 #
body $-1 $19 $-1 $20 #
body $-1 $21 $-1 $22 #
body $-1 $23 $-1 $24 #
body $-1 $25 $-1 $26 #
body $-1 $27 $-1 $28 #
body $-1 $29 $-1 $30 #
body $-1 $31 $-1 $32 #
lump $-1 $-1 $33 $0 #
transform $-1 1 0 0 0 1 0 0 0 1 58.474684896389661 26.962385073216424 8.2816742700855741 1 rotate no_reflect no_shear #
lump $-1 $-1 $34 $1 #
transform $-1 1 0 0 0 1 0 0 0 1 58.474684896389661 26.962385073216424 8.2816742700855741 1 rotate no_reflect no_shear #
lump $-1 $-1 $35 $2 #
transform $-1 1 0 0 0 1 0 0 0 1 58.474684896389661 26.962385073216424 8.2816742700855741 1 rotate no_reflect no_shear #
lump $-1 $-1 $36 $3 #
transform $-1 1 0 0 0 1 0 0 0 1 58.474684896389661 26.962385073216424 8.2816742700855741 1 rotate no_reflect no_shear #
lump $-1 $-1 $37 $4 #
transform $-1 1 0 0 0 1 0 0 0 1 58.474684896389661 26.962385073216424 8.2816742700855741 1 rotate no_reflect no_shear #
lump $-1 $-1 $38 $5 #
transform $-1 1 0 0 0 1 0 0 0 1 58.474684896389661 26.962385073216424 8.2816742700855741 1 rotate no_reflect no_shear #
lump $-1 $-1 $39 $6 #
transform $-1 1 0 0 0 1 0 0 0 1 58.474684896389661 26.962385073216424 8.2816742700855741 1 rotate no_reflect no_shear #
lump $-1 $-1 $40 $7 #
transform $-1 1 0 0 0 1 0 0 0 1 58.474684896389661 26.962385073216424 8.2816742700855741 1 rotate no_reflect no_shear #
lump $-1 $-1 $41 $8 #
transform $-1 1 0 0 0 1 0 0 0 1 58.474684896389661 26.962385073216424 8.2816742700855741 1 rotate no_reflect no_shear #
lump $-1 $-1 $42 $9 #
transform $-1 1 0 0 0 1 0 0 0 1 58.474684896389661 26.962385073216424 8.2816742700855741 1 rotate no_reflect no_shear #
lump $-1 $-1 $43 $10 #
transform $-1 1 0 0 0 1 0 0 0 1 58.474684896389661 26.962385073216424 8.2816742700855741 1 rotate no_reflect no_shear #
shell $-1 $-1 $-1 $44 $-1 $11 #
shell $-1 $-1 $-1 $45 $-1 $13 #
shell $-1 $-1 $-1 $46 $-1 $15 #
shell $-1 $-1 $-1 $47 $-1 $17 #
shell $-1 $-1 $-1 $48 $-1 $19 #
shell $-1 $-1 $-1 $49 $-1 $21 #
shell $-1 $-1 $-1 $50 $-1 $23 #
shell $-1 $-1 $-1 $51 $-1 $25 #
shell $-1 $-1 $-1 $52 $-1 $27 #
shell $-1 $-1 $-1 $53 $-1 $29 #
shell $-1 $-1 $-1 $54 $-1 $31 #
face $-1 $55 $56 $33 $-1 $57 forward single #
face $-1 $58 $59 $34 $-1 $60 forward single #
face $-1 $61 $62 $35 $-1 $63 reversed single #
face $-1 $64 $65 $36 $-1 $66 forward single #
face $-1 $67 $68 $37 $-1 $69 forward single #
face $-1 $70 $71 $38 $-1 $72 reversed single #
face $-1 $73 $74 $39 $-1 $75 forward single #
face $-1 $76 $77 $40 $-1 $78 forward single #
face $-1 $79 $80 $41 $-1 $81 reversed single #
face $-1 $82 $83 $42 $-1 $84 forward single #
face $-1 $85 $86 $43 $-1 $87 forward single #
face $-1 $88 $89 $33 $-1 $90 reversed single #
loop $-1 $-1 $91 $44 #
plane-surface $-1 0 0 8.2816742700855741 0 0 1 1 0 0 forward_v I I I I #
face $-1 $92 $93 $34 $-1 $94 reversed single #
loop $-1 $-1 $95 $45 #
plane-surface $-1 -58.474684896389661 0 0 1 0 0 0 0 -1 forward_v I I I I #
face $-1 $96 $97 $35 $-1 $98 reversed single #
loop $-1 $-1 $99 $46 #
plane-surface $-1 10.92906364952384 40.973214709068813 131.23645904575835 1 0 0 0 -0.51503808176128008 -0.85716729658548041 forward_v I I I I #
face $-1 $100 $101 $36 $-1 $102 forward single #
loop $-1 $103 $104 $47 #
cone-surface $-1 14.837428058131152 21.645143544697497 3.9132331306776971 0 -0.51503808176128008 -0.85716729658548041 1.5 0 0 1 I I 0 1 1.5 forward I I I I #
face $-1 $105 $106 $37 $-1 $107 forward single #
loop $-1 $108 $109 $48 #
cone-surface $-1 20.699974671042128 21.645143544697497 3.9132331306776971 0 -0.51503808176128008 -0.85716729658548041 1.5 0 0 1 I I 0 1 1.5 forward I I I I #
face $-1 $110 $111 $38 $-1 $112 reversed single #
loop $-1 $-1 $113 $49 #
plane-surface $-1 3.7659313239588066 -120.36230562916671 72.565833820134515 -1 0 0 0 -0.79863551827123203 0.60181501223851219 forward_v I I I I #
face $-1 $114 $115 $39 $-1 $116 forward single #
loop $-1 $117 $118 $50 #
cone-surface $-1 -4.7458404498457085 -23.278434224501986 4.188032647952328 0 0.79863551827123203 -0.60181501223851219 1 0 0 1 I I 0 1 1 forward I I I I #
face $-1 $119 $120 $40 $-1 $121 forward single #
loop $-1 $122 $123 $51 #
cone-surface $-1 0.36122261443699699 -23.278434224501986 4.188032647952328 0 0.79863551827123203 -0.60181501223851219 1 0 0 1 I I 0 1 1 forward I I I I #
face $-1 $124 $125 $41 $-1 $126 reversed single #
loop $-1 $-1 $127 $52 #
plane-surface $-1 15.682411807285117 -120.36230562916671 72.565833820134515 -1 0 0 0 -0.79863551827123203 0.60181501223851219 forward_v I I I I #
face $-1 $128 $129 $42 $-1 $130 forward single #
loop $-1 $131 $132 $53 #
cone-surface $-1 7.1706400334806091 -23.278434224501986 4.188032647952328 0 0.79863551827123203 -0.60181501223851219 1 0 0 1 I I 0 1 1 forward I I I I #
face $-1 $133 $134 $43 $-1 $135 forward single #
loop $-1 $136 $137 $54 #
cone-surface $-1 12.277703097763307 -23.278434224501986 4.188032647952328 0 0.79863551827123203 -0.60181501223851219 1 0 0 1 I I 0 1 1 forward I I I I #
face $-1 $138 $139 $33 $-1 $140 reversed single #
loop $-1 $-1 $141 $55 #
plane-surface $-1 0 0 -8.2816742700855741 0 0 1 1 0 0 forward_v I I I I #
coedge $-1 $142 $143 $144 $145 forward $56 $-1 #
face $-1 $146 $147 $34 $-1 $148 reversed single #
loop $-1 $-1 $149 $58 #
plane-surface $-1 0 0 -8.2816742700855741 0 0 1 1 0 0 forward_v I I I I #
coedge $-1 $150 $151 $152 $153 forward $59 $-1 #
face $-1 $154 $155 $35 $-1 $156 reversed single #
loop $-1 $-1 $157 $61 #
plane-surface $-1 17.768701364586647 -19.260164372194843 30.991283903106051 0 0.51503808176128008 0.85716729658548041 1 0 0 forward_v I I I I #
coedge $-1 $158 $159 $160 $161 reversed $62 $-1 #
face $-1 $-1 $162 $36 $-1 $163 forward single #
loop $-1 $164 $165 $64 #
cone-surface $-1 14.837428058131152 20.155329837490278 1.4337667901388187 0 -0.51503808176128008 -0.85716729658548041 0.75 0 0 1 I I -0.70710678118654757 0.70710678118654757 0.75 forward I I I I #
loop $-1 $-1 $166 $47 #
coedge $-1 $104 $104 $167 $168 reversed $65 $-1 #
face $-1 $-1 $169 $37 $-1 $170 forward single #
loop $-1 $171 $172 $67 #
cone-surface $-1 20.699974671042128 20.155329837490278 1.4337667901388187 0 -0.51503808176128008 -0.85716729658548041 0.75 0 0 1 I I -0.70710678118654757 0.70710678118654757 0.75 forward I I I I #
loop $-1 $-1 $173 $48 #
coedge $-1 $109 $109 $174 $175 reversed $68 $-1 #
face $-1 $176 $177 $38 $-1 $178 reversed single #
loop $-1 $-1 $179 $70 #
plane-surface $-1 -2.1923089177043522 -26.962385073216439 2.1839474070067411 0 -0.79863551827123203 0.60181501223851219 1 0 0 forward_v I I I I #
coedge $-1 $180 $181 $182 $183 reversed $71 $-1 #
face $-1 $-1 $184 $39 $-1 $185 forward single #
loop $-1 $186 $187 $73 #
cone-surface $-1 -4.7458404498457085 -21.492648938377052 2.8423469512392501 0 0.79863551827123203 -0.60181501223851219 0.5 0 0 1 I I -0.70710678118654746 0.70710678118654746 0.5 forward I I I I #
loop $-1 $-1 $188 $50 #
coedge $-1 $118 $118 $189 $190 reversed $74 $-1 #
face $-1 $-1 $191 $40 $-1 $192 forward single #
loop $-1 $193 $194 $76 #
cone-surface $-1 0.36122261443699699 -21.492648938377052 2.8423469512392501 0 0.79863551827123203 -0.60181501223851219 0.5 0 0 1 I I -0.70710678118654746 0.70710678118654746 0.5 forward I I I I #
loop $-1 $-1 $195 $51 #
coedge $-1 $123 $123 $196 $197 reversed $77 $-1 #
face $-1 $198 $199 $41 $-1 $200 forward single #
loop $-1 $-1 $201 $79 #
plane-surface $-1 -2.1923089177043522 -26.962385073216439 2.1839474070067411 0 -0.79863551827123203 0.60181501223851219 1 0 0 forward_v I I I I #
coedge $-1 $202 $203 $204 $205 reversed $80 $-1 #
face $-1 $-1 $206 $42 $-1 $207 forward single #
loop $-1 $208 $209 $82 #
cone-surface $-1 7.1706400334806091 -21.492648938377052 2.8423469512392501 0 0.79863551827123203 -0.60181501223851219 0.5 0 0 1 I I -0.70710678118654746 0.70710678118654746 0.5 forward I I I I #
loop $-1 $-1 $210 $53 #
coedge $-1 $132 $132 $211 $212 reversed $83 $-1 #
face $-1 $-1 $213 $43 $-1 $214 forward single #
loop $-1 $215 $216 $85 #
cone-surface $-1 12.277703097763307 -21.492648938377052 2.8423469512392501 0 0.79863551827123203 -0.60181501223851219 0.5 0 0 1 I I -0.70710678118654746 0.70710678118654746 0.5 forward I I I I #
loop $-1 $-1 $217 $54 #
coedge $-1 $137 $137 $218 $219 reversed $86 $-1 #
face $-1 $220 $221 $33 $-1 $222 reversed single #
loop $-1 $-1 $223 $88 #
plane-surface $-1 0 -26.962385073216424 0 0 1 0 0 0 1 forward_v I I I I #
coedge $-1 $224 $225 $226 $227 forward $89 $-1 #
coedge $-1 $228 $91 $229 $230 forward $56 $-1 #
coedge $-1 $91 $228 $231 $232 forward $56 $-1 #
coedge $-1 $233 $234 $91 $145 reversed $235 $-1 #
edge $-1 $236 -26.962385073216424 $237 26.962385073216424 $144 $238 forward 7 unknown #
face $-1 $239 $240 $34 $-1 $241 reversed single #
loop $-1 $-1 $242 $92 #
plane-surface $-1 -62.240616220348471 -13.399036533045276 0 0 1 0 0 0 1 forward_v I I I I #
coedge $-1 $243 $244 $151 $245 forward $93 $-1 #
coedge $-1 $246 $95 $247 $248 reversed $59 $-1 #
coedge $-1 $95 $246 $149 $245 reversed $59 $-1 #
coedge $-1 $249 $250 $95 $153 reversed $251 $-1 #
edge $-1 $252 -8.2816742700855741 $253 8.2816742700855741 $152 $254 forward 7 unknown #
face $-1 $255 $256 $35 $-1 $257 forward single #
loop $-1 $-1 $258 $96 #
plane-surface $-1 24.608339079649454 40.973214709068813 131.23645904575835 -1 0 0 0 0.51503808176128008 0.85716729658548041 forward_v I I I I #
coedge $-1 $259 $260 $261 $262 reversed $97 $-1 #
coedge $-1 $159 $99 $263 $264 reversed $62 $-1 #
coedge $-1 $99 $158 $259 $265 reversed $62 $-1 #
coedge $-1 $261 $266 $99 $161 forward $256 $-1 #
edge $-1 $267 -6.4757777186820178 $268 1.9516350465833412 $160 $269 forward 7 unknown #
loop $-1 $-1 $167 $100 #
plane-surface $-1 17.768701364586647 -19.260164372194843 30.991283903106051 0 0.51503808176128008 0.85716729658548041 1 0 0 forward_v I I I I #
loop $-1 $-1 $270 $64 #
coedge $-1 $165 $165 $166 $271 reversed $101 $-1 #
coedge $-1 $166 $166 $165 $271 forward $103 $-1 #
coedge $-1 $167 $167 $104 $168 forward $162 $-1 #
edge $-1 $272 -2.0913331627885476e-016 $272 6.2831853071796004 $167 $273 forward 7 unknown #
loop $-1 $-1 $174 $105 #
plane-surface $-1 17.768701364586647 -19.260164372194843 30.991283903106051 0 0.51503808176128008 0.85716729658548041 1 0 0 forward_v I I I I #
loop $-1 $-1 $274 $67 #
coedge $-1 $172 $172 $173 $275 reversed $106 $-1 #
coedge $-1 $173 $173 $172 $275 forward $108 $-1 #
coedge $-1 $174 $174 $109 $175 forward $169 $-1 #
edge $-1 $276 -2.0913331627885476e-016 $276 6.2831853071796004 $174 $277 forward 7 unknown #
face $-1 $278 $279 $38 $-1 $280 forward single #
loop $-1 $-1 $281 $110 #
plane-surface $-1 -8.150549159367511 -120.36230562916671 72.565833820134515 1 0 0 0 0.79863551827123203 -0.60181501223851219 forward_v I I I I #
coedge $-1 $282 $283 $284 $285 reversed $111 $-1 #
coedge $-1 $181 $113 $286 $287 reversed $71 $-1 #
coedge $-1 $113 $180 $282 $288 reversed $71 $-1 #
coedge $-1 $284 $289 $113 $183 forward $279 $-1 #
edge $-1 $290 33.218767741366932 $291 37.813734384817138 $182 $292 forward 7 unknown #
loop $-1 $-1 $189 $114 #
plane-surface $-1 -2.1923089177043522 -26.962385073216439 2.1839474070067411 0 -0.79863551827123203 0.60181501223851219 1 0 0 forward_v I I I I #
loop $-1 $-1 $293 $73 #
coedge $-1 $187 $187 $188 $294 reversed $115 $-1 #
coedge $-1 $188 $188 $187 $294 forward $117 $-1 #
coedge $-1 $189 $189 $118 $190 forward $184 $-1 #
edge $-1 $295 -1.3783259511344542e-015 $295 6.2831853071795987 $189 $296 forward 7 unknown #
loop $-1 $-1 $196 $119 #
plane-surface $-1 -2.1923089177043522 -26.962385073216439 2.1839474070067411 0 -0.79863551827123203 0.60181501223851219 1 0 0 forward_v I I I I #
loop $-1 $-1 $297 $76 #
coedge $-1 $194 $194 $195 $298 reversed $120 $-1 #
coedge $-1 $195 $195 $194 $298 forward $122 $-1 #
coedge $-1 $196 $196 $123 $197 forward $191 $-1 #
edge $-1 $299 -1.3783259511344542e-015 $299 6.2831853071795987 $196 $300 forward 7 unknown #
face $-1 $301 $302 $41 $-1 $303 forward single #
loop $-1 $-1 $304 $124 #
plane-surface $-1 0 0 8.2816742700855741 0 0 1 1 0 0 forward_v I I I I #
coedge $-1 $305 $306 $307 $308 reversed $125 $-1 #
coedge $-1 $203 $127 $309 $310 reversed $80 $-1 #
coedge $-1 $127 $202 $304 $311 reversed $80 $-1 #
coedge $-1 $312 $313 $127 $205 forward $314 $-1 #
edge $-1 $315 -34.098969503060495 $316 -28.001242639981683 $204 $317 forward 7 unknown #
loop $-1 $-1 $211 $128 #
plane-surface $-1 -2.1923089177043522 -26.962385073216439 2.1839474070067411 0 -0.79863551827123203 0.60181501223851219 1 0 0 forward_v I I I I #
loop $-1 $-1 $318 $82 #
coedge $-1 $209 $209 $210 $319 reversed $129 $-1 #
coedge $-1 $210 $210 $209 $319 forward $131 $-1 #
coedge $-1 $211 $211 $132 $212 forward $206 $-1 #
edge $-1 $320 -1.3783259511344542e-015 $320 6.2831853071795987 $211 $321 forward 7 unknown #
loop $-1 $-1 $218 $133 #
plane-surface $-1 -2.1923089177043522 -26.962385073216439 2.1839474070067411 0 -0.79863551827123203 0.60181501223851219 1 0 0 forward_v I I I I #
loop $-1 $-1 $322 $85 #
coedge $-1 $216 $216 $217 $323 reversed $134 $-1 #
coedge $-1 $217 $217 $216 $323 forward $136 $-1 #
coedge $-1 $218 $218 $137 $219 forward $213 $-1 #
edge $-1 $324 -1.3783259511344542e-015 $324 6.2831853071795987 $218 $325 forward 7 unknown #
face $-1 $326 $327 $33 $-1 $328 reversed single #
loop $-1 $-1 $329 $138 #
plane-surface $-1 -58.474684896389661 0 0 1 0 0 0 0 -1 forward_v I I I I #
coedge $-1 $330 $231 $331 $332 forward $139 $-1 #
coedge $-1 $333 $141 $330 $334 forward $89 $-1 #
coedge $-1 $141 $333 $335 $336 forward $89 $-1 #
coedge $-1 $234 $233 $141 $227 reversed $235 $-1 #
edge $-1 $337 -26.962385073216424 $338 26.962385073216424 $226 $339 forward 7 unknown #
coedge $-1 $143 $142 $340 $341 forward $56 $-1 #
coedge $-1 $342 $343 $142 $230 reversed $327 $-1 #
edge $-1 $237 -58.474684896389661 $344 58.474684896389661 $229 $345 forward 7 unknown #
coedge $-1 $223 $346 $143 $232 reversed $139 $-1 #
edge $-1 $347 -58.474684896389661 $236 58.474684896389661 $231 $348 forward 7 unknown #
coedge $-1 $226 $144 $346 $349 forward $235 $-1 #
coedge $-1 $144 $226 $342 $350 reversed $235 $-1 #
loop $-1 $-1 $233 $326 #
vertex $-1 $145 $351 #
vertex $-1 $145 $352 #
straight-curve $-1 58.474684896389661 0 8.2816742700855741 0 1 0 I I #
face $-1 $353 $251 $34 $-1 $354 reversed single #
loop $-1 $-1 $355 $146 #
plane-surface $-1 -66.006547544307281 -11.899036533045276 0 1 0 0 0 0 -1 forward_v I I I I #
coedge $-1 $356 $357 $358 $359 forward $147 $-1 #
coedge $-1 $360 $149 $356 $361 forward $93 $-1 #
coedge $-1 $149 $360 $249 $362 forward $93 $-1 #
edge $-1 $252 10.399036533045276 $363 13.399036533045276 $149 $364 forward 7 unknown #
coedge $-1 $151 $150 $365 $366 forward $59 $-1 #
coedge $-1 $367 $368 $150 $248 forward $369 $-1 #
edge $-1 $370 -13.399036533045276 $253 -10.399036533045276 $247 $371 forward 7 unknown #
coedge $-1 $372 $152 $244 $362 reversed $251 $-1 #
coedge $-1 $152 $372 $367 $373 reversed $251 $-1 #
loop $-1 $-1 $152 $239 #
vertex $-1 $245 $374 #
vertex $-1 $373 $375 #
straight-curve $-1 -58.474684896389661 -10.399036533045276 0 0 0 1 I I #
face $-1 $-1 $376 $35 $-1 $377 reversed single #
loop $-1 $-1 $160 $154 #
plane-surface $-1 0 0 8.2816742700855741 0 0 1 1 0 0 forward_v I I I I #
coedge $-1 $378 $379 $380 $381 reversed $155 $-1 #
coedge $-1 $382 $157 $159 $265 forward $97 $-1 #
coedge $-1 $157 $382 $378 $383 forward $97 $-1 #
coedge $-1 $380 $160 $157 $262 forward $256 $-1 #
edge $-1 $268 2.0447129672305167 $384 15.723988397356131 $261 $385 forward 7 unknown #
coedge $-1 $386 $387 $158 $264 forward $376 $-1 #
edge $-1 $388 -62.400255795409841 $267 -57.336555252793602 $263 $389 forward 7 unknown #
edge $-1 $268 44.093068915137749 $388 53.924770146432849 $159 $390 forward 7 unknown #
coedge $-1 $160 $380 $386 $391 forward $256 $-1 #
vertex $-1 $264 $392 #
vertex $-1 $161 $393 #
straight-curve $-1 10.92906364952384 20.486607354534407 8.2816742700855741 0 -1 0 I I #
coedge $-1 $270 $270 $-1 $394 reversed $164 $-1 #
edge $-1 $395 0 $395 6.2831853071796004 $165 $396 forward 7 unknown #
vertex $-1 $168 $397 #
ellipse-curve $-1 14.837428058131152 22.748678690583748 5.7498239987774529 0 0.51503808176128008 0.85716729658548041 1.5 0 0 1 I I #
coedge $-1 $274 $274 $-1 $398 reversed $171 $-1 #
edge $-1 $399 0 $399 6.2831853071796004 $172 $400 forward 7 unknown #
vertex $-1 $175 $401 #
ellipse-curve $-1 20.699974671042128 22.748678690583748 5.7498239987774529 0 0.51503808176128008 0.85716729658548041 1.5 0 0 1 I I #
face $-1 $-1 $402 $38 $-1 $403 reversed single #
loop $-1 $-1 $182 $176 #
plane-surface $-1 0 0 8.2816742700855741 0 0 1 1 0 0 forward_v I I I I #
coedge $-1 $404 $405 $406 $407 reversed $177 $-1 #
coedge $-1 $408 $179 $181 $288 forward $111 $-1 #
coedge $-1 $179 $408 $404 $409 forward $111 $-1 #
coedge $-1 $406 $182 $179 $285 forward $279 $-1 #
edge $-1 $291 -4.8620857828109827 $410 7.0543947005153349 $284 $411 forward 7 unknown #
coedge $-1 $412 $413 $180 $287 forward $402 $-1 #
edge $-1 $414 -34.098969503060495 $290 -28.001242639981683 $286 $415 forward 7 unknown #
edge $-1 $291 -7.6351811603349296 $414 -2.3448253187574213e-014 $181 $416 forward 7 unknown #
coedge $-1 $182 $406 $412 $417 forward $279 $-1 #
vertex $-1 $183 $418 #
vertex $-1 $183 $419 #
straight-curve $-1 3.7659313239588066 -60.181152814583356 8.2816742700855741 0 1 0 I I #
coedge $-1 $293 $293 $-1 $420 reversed $186 $-1 #
edge $-1 $421 0 $421 6.2831853071796004 $187 $422 forward 7 unknown #
vertex $-1 $190 $423 #
ellipse-curve $-1 -4.7458404498457085 -24.664901751491321 5.2328108385461629 0 -0.79863551827123203 0.60181501223851219 1 0 0 1 I I #
coedge $-1 $297 $297 $-1 $424 reversed $193 $-1 #
edge $-1 $425 0 $425 6.2831853071796004 $194 $426 forward 7 unknown #
vertex $-1 $197 $427 #
ellipse-curve $-1 0.36122261443699699 -24.664901751491321 5.2328108385461629 0 -0.79863551827123203 0.60181501223851219 1 0 0 1 I I #
face $-1 $-1 $314 $41 $-1 $428 reversed single #
loop $-1 $-1 $429 $198 #
plane-surface $-1 3.7659313239588066 -120.36230562916671 72.565833820134515 -1 0 0 0 -0.79863551827123203 0.60181501223851219 forward_v I I I I #
coedge $-1 $430 $431 $203 $311 forward $199 $-1 #
coedge $-1 $309 $201 $430 $432 reversed $125 $-1 #
coedge $-1 $201 $309 $313 $433 reversed $125 $-1 #
coedge $-1 $434 $429 $201 $308 forward $302 $-1 #
edge $-1 $435 -7.6351811603349296 $436 -2.3448253187574213e-014 $307 $437 forward 7 unknown #
coedge $-1 $306 $305 $202 $310 forward $125 $-1 #
edge $-1 $438 -7.6351811603349296 $315 -2.3448253187574213e-014 $202 $439 forward 7 unknown #
edge $-1 $316 33.218767741366932 $438 37.813734384817138 $304 $440 forward 7 unknown #
coedge $-1 $441 $204 $431 $442 reversed $314 $-1 #
coedge $-1 $204 $441 $306 $433 forward $314 $-1 #
loop $-1 $-1 $204 $301 #
vertex $-1 $205 $443 #
vertex $-1 $311 $444 #
straight-curve $-1 15.682411807285117 -26.962385073216424 36.282916910067257 0 0 1 I I #
coedge $-1 $318 $318 $-1 $445 reversed $208 $-1 #
edge $-1 $446 0 $446 6.2831853071796004 $209 $447 forward 7 unknown #
vertex $-1 $212 $448 #
ellipse-curve $-1 7.1706400334806091 -24.664901751491321 5.2328108385461629 0 -0.79863551827123203 0.60181501223851219 1 0 0 1 I I #
coedge $-1 $322 $322 $-1 $449 reversed $215 $-1 #
edge $-1 $450 0 $450 6.2831853071796004 $216 $451 forward 7 unknown #
vertex $-1 $219 $452 #
ellipse-curve $-1 12.277703097763307 -24.664901751491321 5.2328108385461629 0 -0.79863551827123203 0.60181501223851219 1 0 0 1 I I #
face $-1 $-1 $235 $33 $-1 $453 reversed single #
loop $-1 $-1 $342 $220 #
plane-surface $-1 0 26.962385073216424 0 0 -1 0 0 0 -1 forward_v I I I I #
coedge $-1 $454 $340 $343 $455 forward $221 $-1 #
coedge $-1 $346 $223 $224 $334 reversed $139 $-1 #
coedge $-1 $340 $454 $223 $332 reversed $221 $-1 #
edge $-1 $347 -8.2816742700855741 $456 8.2816742700855741 $331 $457 forward 7 unknown #
coedge $-1 $225 $224 $454 $458 forward $89 $-1 #
edge $-1 $338 -58.474684896389661 $456 58.474684896389661 $330 $459 forward 7 unknown #
coedge $-1 $343 $342 $225 $336 reversed $327 $-1 #
edge $-1 $460 -58.474684896389661 $337 58.474684896389661 $335 $461 forward 7 unknown #
vertex $-1 $227 $462 #
vertex $-1 $349 $463 #
straight-curve $-1 58.474684896389661 0 -8.2816742700855741 0 -1 0 I I #
coedge $-1 $329 $331 $228 $341 reversed $221 $-1 #
edge $-1 $344 -26.962385073216424 $347 26.962385073216424 $340 $464 forward 7 unknown #
coedge $-1 $335 $229 $234 $350 forward $327 $-1 #
coedge $-1 $229 $335 $329 $455 reversed $327 $-1 #
vertex $-1 $230 $465 #
straight-curve $-1 0 26.962385073216424 8.2816742700855741 -1 0 0 I I #
coedge $-1 $231 $330 $233 $349 reversed $139 $-1 #
vertex $-1 $341 $466 #
straight-curve $-1 0 -26.962385073216424 8.2816742700855741 1 0 0 I I #
edge $-1 $236 -8.2816742700855741 $338 8.2816742700855741 $233 $467 forward 7 unknown #
edge $-1 $237 -8.2816742700855741 $337 8.2816742700855741 $234 $468 forward 7 unknown #
point $-1 58.474684896389661 -26.962385073216424 8.2816742700855741 #
point $-1 58.474684896389661 26.962385073216424 8.2816742700855741 #
face $-1 $-1 $369 $34 $-1 $469 forward single #
plane-surface $-1 -62.240616220348471 -10.399036533045276 0 0 -1 0 0 0 -1 forward_v I I I I #
coedge $-1 $470 $471 $372 $472 forward $240 $-1 #
coedge $-1 $365 $242 $243 $361 reversed $147 $-1 #
coedge $-1 $242 $365 $368 $473 reversed $147 $-1 #
coedge $-1 $471 $470 $242 $359 reversed $240 $-1 #
edge $-1 $474 -8.2816742700855741 $475 8.2816742700855741 $358 $476 forward 7 unknown #
coedge $-1 $244 $243 $470 $477 forward $93 $-1 #
edge $-1 $363 -3.7659313239588101 $475 3.7659313239588101 $356 $478 forward 7 unknown #
edge $-1 $479 -3.7659313239588101 $252 3.7659313239588101 $249 $480 forward 7 unknown #
vertex $-1 $361 $481 #
straight-curve $-1 -58.474684896389661 0 -8.2816742700855741 0 -1 0 I I #
coedge $-1 $357 $356 $246 $366 reversed $147 $-1 #
edge $-1 $370 -8.2816742700855741 $363 8.2816742700855741 $365 $482 forward 7 unknown #
coedge $-1 $483 $247 $250 $373 forward $369 $-1 #
coedge $-1 $247 $483 $357 $473 forward $369 $-1 #
loop $-1 $-1 $247 $353 #
vertex $-1 $248 $484 #
straight-curve $-1 -58.474684896389661 0 8.2816742700855741 0 1 0 I I #
coedge $-1 $250 $249 $355 $472 reversed $251 $-1 #
edge $-1 $253 -3.7659313239588101 $485 3.7659313239588101 $250 $486 forward 7 unknown #
point $-1 -58.474684896389661 -10.399036533045276 -8.2816742700855741 #
point $-1 -58.474684896389661 -10.399036533045276 8.2816742700855741 #
loop $-1 $-1 $263 $255 #
plane-surface $-1 0 26.962385073216424 0 0 -1 0 0 0 -1 forward_v I I I I #
coedge $-1 $379 $258 $260 $383 reversed $155 $-1 #
coedge $-1 $258 $378 $487 $488 reversed $155 $-1 #
coedge $-1 $266 $261 $258 $381 forward $256 $-1 #
edge $-1 $384 -1.9516350465833412 $489 6.4757777186820178 $380 $490 forward 7 unknown #
coedge $-1 $260 $259 $387 $491 reversed $97 $-1 #
edge $-1 $492 -53.924770146432849 $384 -44.093068915137749 $378 $493 forward 7 unknown #
vertex $-1 $262 $494 #
straight-curve $-1 8.8843506822933236 18.534972307951065 8.2816742700855741 1 0 0 I I #
coedge $-1 $487 $263 $266 $391 reversed $376 $-1 #
coedge $-1 $263 $487 $382 $491 forward $376 $-1 #
vertex $-1 $264 $495 #
straight-curve $-1 10.92906364952384 26.962385073216424 65.618229522879176 0 0 1 I I #
straight-curve $-1 10.92906364952384 -19.260164372194843 30.991283903106051 0 0.85716729658548041 -0.51503808176128008 I I #
edge $-1 $489 -24.608339079649454 $267 -10.92906364952384 $386 $496 forward 7 unknown #
point $-1 10.92906364952384 26.962385073216424 8.2816742700855741 #
point $-1 10.92906364952384 18.534972307951065 8.2816742700855741 #
edge $-1 $497 1 $497 0 $270 $-1 forward 7 unknown #
vertex $-1 $271 $498 #
ellipse-curve $-1 14.837428058131152 20.541608398811238 2.0766422625779288 0 0.51503808176128008 0.85716729658548041 1.5 0 0 1 I I #
point $-1 16.337428058131152 22.748678690583755 5.7498239987774653 #
edge $-1 $499 1 $499 0 $274 $-1 forward 7 unknown #
vertex $-1 $275 $500 #
ellipse-curve $-1 20.699974671042128 20.541608398811238 2.0766422625779288 0 0.51503808176128008 0.85716729658548041 1.5 0 0 1 I I #
point $-1 22.199974671042128 22.748678690583755 5.7498239987774653 #
loop $-1 $-1 $286 $278 #
plane-surface $-1 0 -26.962385073216424 0 0 1 0 0 0 1 forward_v I I I I #
coedge $-1 $405 $281 $283 $409 reversed $177 $-1 #
coedge $-1 $281 $404 $501 $502 reversed $177 $-1 #
coedge $-1 $289 $284 $281 $407 forward $279 $-1 #
edge $-1 $410 -37.813734384817138 $503 -33.218767741366932 $406 $504 forward 7 unknown #
coedge $-1 $283 $282 $413 $505 reversed $111 $-1 #
edge $-1 $506 2.3448253187574213e-014 $410 7.6351811603349296 $404 $507 forward 7 unknown #
vertex $-1 $285 $508 #
straight-curve $-1 -1.0961544588521761 -22.367418429766214 8.2816742700855741 -1 0 0 I I #
coedge $-1 $501 $286 $289 $417 reversed $402 $-1 #
coedge $-1 $286 $501 $408 $505 forward $402 $-1 #
vertex $-1 $287 $509 #
straight-curve $-1 3.7659313239588066 -26.962385073216424 36.282916910067257 0 0 1 I I #
straight-curve $-1 3.7659313239588066 -26.962385073216439 2.1839474070067411 0 -0.60181501223851219 -0.79863551827123203 I I #
edge $-1 $503 -8.150549159367511 $290 3.7659313239588066 $412 $510 forward 7 unknown #
point $-1 3.7659313239588066 -26.962385073216424 8.2816742700855741 #
point $-1 3.7659313239588066 -22.367418429766214 8.2816742700855741 #
edge $-1 $511 1 $511 0 $293 $-1 forward 7 unknown #
vertex $-1 $294 $512 #
ellipse-curve $-1 -4.7458404498457085 -21.891966697512668 3.1432544573585064 0 -0.79863551827123203 0.60181501223851219 1 0 0 1 I I #
point $-1 -3.7458404498457085 -24.664901751491307 5.2328108385461505 #
edge $-1 $513 1 $513 0 $297 $-1 forward 7 unknown #
vertex $-1 $298 $514 #
ellipse-curve $-1 0.36122261443699699 -21.891966697512668 3.1432544573585064 0 -0.79863551827123203 0.60181501223851219 1 0 0 1 I I #
point $-1 1.361222614436997 -24.664901751491307 5.2328108385461505 #
plane-surface $-1 0 -26.962385073216424 0 0 1 0 0 0 1 forward_v I I I I #
coedge $-1 $307 $434 $515 $516 reversed $302 $-1 #
coedge $-1 $515 $304 $305 $432 forward $199 $-1 #
coedge $-1 $304 $515 $312 $442 forward $199 $-1 #
edge $-1 $438 -16.778566266137293 $435 -4.8620857828109827 $430 $517 forward 7 unknown #
edge $-1 $436 4.8620857828109827 $315 16.778566266137293 $313 $518 forward 7 unknown #
coedge $-1 $429 $307 $441 $519 reversed $302 $-1 #
vertex $-1 $432 $520 #
vertex $-1 $433 $521 #
straight-curve $-1 3.7659313239588066 -26.962385073216439 2.1839474070067411 0 -0.60181501223851219 -0.79863551827123203 I I #
vertex $-1 $311 $522 #
straight-curve $-1 15.682411807285117 -26.962385073216439 2.1839474070067411 0 -0.60181501223851219 -0.79863551827123203 I I #
straight-curve $-1 15.682411807285117 -60.181152814583356 8.2816742700855741 0 1 0 I I #
coedge $-1 $313 $312 $434 $519 forward $314 $-1 #
edge $-1 $523 3.7659313239588066 $316 15.682411807285117 $312 $524 forward 7 unknown #
point $-1 15.682411807285117 -26.962385073216424 2.1839474070067597 #
point $-1 15.682411807285117 -26.962385073216424 8.2816742700855741 #
edge $-1 $525 1 $525 0 $318 $-1 forward 7 unknown #
vertex $-1 $319 $526 #
ellipse-curve $-1 7.1706400334806091 -21.891966697512668 3.1432544573585064 0 -0.79863551827123203 0.60181501223851219 1 0 0 1 I I #
point $-1 8.1706400334806091 -24.664901751491307 5.2328108385461505 #
edge $-1 $527 1 $527 0 $322 $-1 forward 7 unknown #
vertex $-1 $323 $528 #
ellipse-curve $-1 12.277703097763307 -21.891966697512668 3.1432544573585064 0 -0.79863551827123203 0.60181501223851219 1 0 0 1 I I #
point $-1 13.277703097763307 -24.664901751491307 5.2328108385461505 #
plane-surface $-1 58.474684896389661 0 0 -1 0 0 0 0 1 forward_v I I I I #
coedge $-1 $331 $329 $333 $458 reversed $221 $-1 #
edge $-1 $344 -8.2816742700855741 $460 8.2816742700855741 $343 $529 forward 7 unknown #
vertex $-1 $458 $530 #
straight-curve $-1 -58.474684896389661 -26.962385073216424 0 0 0 -1 I I #
edge $-1 $456 -26.962385073216424 $460 26.962385073216424 $454 $531 forward 7 unknown #
straight-curve $-1 0 -26.962385073216424 -8.2816742700855741 -1 0 0 I I #
vertex $-1 $336 $532 #
straight-curve $-1 0 26.962385073216424 -8.2816742700855741 1 0 0 I I #
point $-1 58.474684896389661 26.962385073216424 -8.2816742700855741 #
point $-1 58.474684896389661 -26.962385073216424 -8.2816742700855741 #
straight-curve $-1 -58.474684896389661 0 8.2816742700855741 0 -1 0 I I #
point $-1 -58.474684896389661 26.962385073216424 8.2816742700855741 #
point $-1 -58.474684896389661 -26.962385073216424 8.2816742700855741 #
straight-curve $-1 58.474684896389661 -26.962385073216424 0 0 0 -1 I I #
straight-curve $-1 58.474684896389661 26.962385073216424 0 0 0 -1 I I #
plane-surface $-1 0 0 8.2816742700855741 0 0 1 1 0 0 forward_v I I I I #
coedge $-1 $358 $355 $360 $477 reversed $240 $-1 #
coedge $-1 $355 $358 $483 $533 reversed $240 $-1 #
edge $-1 $485 -8.2816742700855741 $479 8.2816742700855741 $372 $534 forward 7 unknown #
edge $-1 $474 -3.7659313239588101 $370 3.7659313239588101 $357 $535 forward 7 unknown #
vertex $-1 $533 $536 #
vertex $-1 $477 $537 #
straight-curve $-1 -66.006547544307281 -13.399036533045276 0 0 0 -1 I I #
edge $-1 $475 -1.5 $479 1.5 $470 $538 forward 7 unknown #
straight-curve $-1 -62.240616220348471 -13.399036533045276 -8.2816742700855741 -1 0 0 I I #
vertex $-1 $362 $539 #
straight-curve $-1 -62.240616220348471 -10.399036533045276 -8.2816742700855741 1 0 0 I I #
point $-1 -58.474684896389661 -13.399036533045276 -8.2816742700855741 #
straight-curve $-1 -58.474684896389661 -13.399036533045276 0 0 0 -1 I I #
coedge $-1 $368 $367 $471 $533 forward $369 $-1 #
point $-1 -58.474684896389661 -13.399036533045276 8.2816742700855741 #
vertex $-1 $373 $540 #
straight-curve $-1 -62.240616220348471 -10.399036533045276 8.2816742700855741 -1 0 0 I I #
coedge $-1 $387 $386 $379 $488 forward $376 $-1 #
edge $-1 $489 57.336555252793602 $492 62.400255795409841 $487 $541 forward 7 unknown #
vertex $-1 $391 $542 #
straight-curve $-1 24.608339079649454 20.486607354534407 8.2816742700855741 0 1 0 I I #
edge $-1 $492 -15.723988397356131 $388 -2.0447129672305167 $387 $543 forward 7 unknown #
vertex $-1 $491 $544 #
straight-curve $-1 24.608339079649454 -19.260164372194843 30.991283903106051 0 -0.85716729658548041 0.51503808176128008 I I #
point $-1 24.608339079649454 18.534972307951065 8.2816742700855741 #
point $-1 10.92906364952384 26.962385073216424 3.2179737274693352 #
straight-curve $-1 0 26.962385073216424 8.2816742700855741 -1 0 0 I I #
vertex $-1 $394 $545 #
point $-1 16.337428058131152 20.541608398811238 2.0766422625779288 #
vertex $-1 $398 $546 #
point $-1 22.199974671042128 20.541608398811238 2.0766422625779288 #
coedge $-1 $413 $412 $405 $502 forward $402 $-1 #
edge $-1 $503 28.001242639981683 $506 34.098969503060495 $501 $547 forward 7 unknown #
vertex $-1 $417 $548 #
straight-curve $-1 -8.150549159367511 -60.181152814583356 8.2816742700855741 0 -1 0 I I #
edge $-1 $506 -7.0543947005153349 $414 4.8620857828109827 $413 $549 forward 7 unknown #
vertex $-1 $505 $550 #
straight-curve $-1 -8.150549159367511 -26.962385073216439 2.1839474070067411 0 0.60181501223851219 0.79863551827123203 I I #
point $-1 -8.150549159367511 -22.367418429766214 8.2816742700855741 #
point $-1 3.7659313239588066 -26.962385073216424 2.1839474070067597 #
straight-curve $-1 0 -26.962385073216424 8.2816742700855741 1 0 0 I I #
vertex $-1 $420 $551 #
point $-1 -3.7458404498457085 -21.891966697512668 3.1432544573585064 #
vertex $-1 $424 $552 #
point $-1 1.361222614436997 -21.891966697512668 3.1432544573585064 #
coedge $-1 $431 $430 $429 $516 forward $199 $-1 #
edge $-1 $435 -37.813734384817138 $523 -33.218767741366932 $515 $553 forward 7 unknown #
straight-curve $-1 -1.0961544588521761 -22.367418429766214 8.2816742700855741 -1 0 0 I I #
straight-curve $-1 -1.0961544588521761 -26.962385073216424 2.1839474070067584 1 0 0 I I #
edge $-1 $523 28.001242639981683 $436 34.098969503060495 $441 $554 forward 7 unknown #
point $-1 3.7659313239588066 -22.367418429766214 8.2816742700855741 #
point $-1 3.7659313239588066 -26.962385073216424 2.1839474070067597 #
point $-1 15.682411807285117 -22.367418429766214 8.2816742700855741 #
vertex $-1 $442 $555 #
straight-curve $-1 0 -26.962385073216424 8.2816742700855741 1 0 0 I I #
vertex $-1 $445 $556 #
point $-1 8.1706400334806091 -21.891966697512668 3.1432544573585064 #
vertex $-1 $449 $557 #
point $-1 13.277703097763307 -21.891966697512668 3.1432544573585064 #
straight-curve $-1 -58.474684896389661 26.962385073216424 0 0 0 -1 I I #
point $-1 -58.474684896389661 -26.962385073216424 -8.2816742700855741 #
straight-curve $-1 -58.474684896389661 0 -8.2816742700855741 0 1 0 I I #
point $-1 -58.474684896389661 26.962385073216424 -8.2816742700855741 #
edge $-1 $485 -1.5 $474 1.5 $471 $558 forward 7 unknown #
straight-curve $-1 -66.006547544307281 -10.399036533045276 0 0 0 -1 I I #
straight-curve $-1 -62.240616220348471 -13.399036533045276 8.2816742700855741 1 0 0 I I #
point $-1 -66.006547544307281 -13.399036533045276 8.2816742700855741 #
point $-1 -66.006547544307281 -13.399036533045276 -8.2816742700855741 #
straight-curve $-1 -66.006547544307281 -11.899036533045276 -8.2816742700855741 0 1 0 I I #
point $-1 -66.006547544307281 -10.399036533045276 -8.2816742700855741 #
point $-1 -66.006547544307281 -10.399036533045276 8.2816742700855741 #
straight-curve $-1 24.608339079649454 26.962385073216424 65.618229522879176 0 0 -1 I I #
point $-1 24.608339079649454 26.962385073216424 8.2816742700855741 #
straight-curve $-1 8.8843506822933236 26.962385073216421 3.2179737274693352 -1 0 0 I I #
point $-1 24.608339079649454 26.962385073216424 3.2179737274693352 #
point $-1 14.837428058131152 19.769051276169318 0.79089131769970833 #
point $-1 20.699974671042128 19.769051276169318 0.79089131769970833 #
straight-curve $-1 -8.150549159367511 -26.962385073216424 36.282916910067257 0 0 -1 I I #
point $-1 -8.150549159367511 -26.962385073216424 8.2816742700855741 #
straight-curve $-1 -1.0961544588521761 -26.962385073216424 2.1839474070067584 1 0 0 I I #
point $-1 -8.150549159367511 -26.962385073216424 2.1839474070067597 #
point $-1 -4.7458404498457085 -21.093331179241435 2.5414394451199938 #
point $-1 0.36122261443699699 -21.093331179241435 2.5414394451199938 #
straight-curve $-1 3.7659313239588066 -60.181152814583356 8.2816742700855741 0 -1 0 I I #
straight-curve $-1 3.7659313239588066 -26.962385073216424 36.282916910067257 0 0 -1 I I #
point $-1 3.7659313239588066 -26.962385073216424 8.2816742700855741 #
point $-1 7.1706400334806091 -21.093331179241435 2.5414394451199938 #
point $-1 12.277703097763307 -21.093331179241435 2.5414394451199938 #
straight-curve $-1 -66.006547544307281 -11.899036533045276 8.2816742700855741 0 -1 0 I I #
End-of-ACIS-data 