500 0 8 0           
7 Unknown 11 ACIS 5.0 NT 24 Fri Mar 26 01:29:46 1999 
-1 9.9999999999999995e-007 1e-010 
body $-1 $8 $-1 $9 #
body $-1 $10 $-1 $11 #
body $-1 $12 $-1 $13 #
body $-1 $14 $-1 $15 #
body $-1 $16 $-1 $17 #
body $-1 $18 $-1 $19 #
body $-1 $20 $-1 $21 #
body $-1 $22 $-1 $23 #
lump $-1 $-1 $24 $0 #
transform $-1 1 0 0 0 1 0 0 0 1 59.818720053712582 31.463474727064597 7.9977546723591955 1 rotate no_reflect no_shear #
lump $-1 $-1 $25 $1 #
transform $-1 1 0 0 0 1 0 0 0 1 59.818720053712582 31.463474727064597 7.9977546723591955 1 rotate no_reflect no_shear #
lump $-1 $-1 $26 $2 #
transform $-1 1 0 0 0 1 0 0 0 1 59.818720053712582 31.463474727064597 7.9977546723591955 1 rotate no_reflect no_shear #
lump $-1 $-1 $27 $3 #
transform $-1 1 0 0 0 1 0 0 0 1 59.818720053712582 31.463474727064597 7.9977546723591955 1 rotate no_reflect no_shear #
lump $-1 $-1 $28 $4 #
transform $-1 1 0 0 0 1 0 0 0 1 59.818720053712582 31.463474727064597 7.9977546723591955 1 rotate no_reflect no_shear #
lump $-1 $-1 $29 $5 #
transform $-1 1 0 0 0 1 0 0 0 1 59.818720053712582 31.463474727064597 7.9977546723591955 1 rotate no_reflect no_shear #
lump $-1 $-1 $30 $6 #
transform $-1 1 0 0 0 1 0 0 0 1 59.818720053712582 31.463474727064597 7.9977546723591955 1 rotate no_reflect no_shear #
lump $-1 $-1 $31 $7 #
transform $-1 1 0 0 0 1 0 0 0 1 59.818720053712582 31.463474727064597 7.9977546723591955 1 rotate no_reflect no_shear #
shell $-1 $-1 $-1 $32 $-1 $8 #
shell $-1 $-1 $-1 $33 $-1 $10 #
shell $-1 $-1 $-1 $34 $-1 $12 #
shell $-1 $-1 $-1 $35 $-1 $14 #
shell $-1 $-1 $-1 $36 $-1 $16 #
shell $-1 $-1 $-1 $37 $-1 $18 #
shell $-1 $-1 $-1 $38 $-1 $20 #
shell $-1 $-1 $-1 $39 $-1 $22 #
face $-1 $40 $41 $24 $-1 $42 forward single #
face $-1 $43 $44 $25 $-1 $45 reversed single #
face $-1 $46 $47 $26 $-1 $48 reversed single #
face $-1 $49 $50 $27 $-1 $51 reversed single #
face $-1 $52 $53 $28 $-1 $54 forward single #
face $-1 $55 $56 $29 $-1 $57 forward single #
face $-1 $58 $59 $30 $-1 $60 reversed single #
face $-1 $61 $62 $31 $-1 $63 forward single #
face $-1 $64 $65 $24 $-1 $66 reversed single #
loop $-1 $-1 $67 $32 #
plane-surface $-1 0 0 7.9977546723591955 0 0 1 1 0 0 forward_v I I I I #
face $-1 $68 $69 $25 $-1 $70 reversed single #
loop $-1 $-1 $71 $33 #
plane-surface $-1 -55.856327728929337 -20.805238236359187 0 0 1 0 0 0 1 forward_v I I I I #
face $-1 $72 $73 $26 $-1 $74 reversed single #
loop $-1 $-1 $75 $34 #
plane-surface $-1 55.85632772892933 -20.805238236359187 0 0 1 0 0 0 1 forward_v I I I I #
face $-1 $76 $77 $27 $-1 $78 reversed single #
loop $-1 $-1 $79 $35 #
plane-surface $-1 -25.0705587104401 71.563848730229097 129.87618582874563 1 0 0 0 -0.70710678939079041 -0.70710677298230451 forward_v I I I I #
face $-1 $80 $81 $28 $-1 $82 forward single #
loop $-1 $83 $84 $36 #
cone-surface $-1 -19.637837050152456 25.505847046378513 2.0401269625168643 0 -0.70710678939079041 -0.70710677298230451 2 0 0 1 I I 0 1 2 forward I I I I #
face $-1 $85 $86 $29 $-1 $87 forward single #
loop $-1 $88 $89 $37 #
cone-surface $-1 -11.488754559720981 25.505847046378513 2.0401269625168643 0 -0.70710678939079041 -0.70710677298230451 2 0 0 1 I I 0 1 2 forward I I I I #
face $-1 $90 $91 $30 $-1 $92 reversed single #
loop $-1 $-1 $93 $38 #
plane-surface $-1 -29.957752681198386 -127.01018371190158 72.931071692892971 -1 0 0 0 -0.79863551827123203 0.60181501223851219 forward_v I I I I #
face $-1 $94 $95 $31 $-1 $96 forward single #
loop $-1 $97 $98 $39 #
cone-surface $-1 -40.925844042672239 -27.133696736768719 3.2081619627418485 0 0.79863551827123203 -0.60181501223851219 1.5 0 0 1 I I 0 1 1.5 forward I I I I #
face $-1 $99 $100 $24 $-1 $101 reversed single #
loop $-1 $-1 $102 $40 #
plane-surface $-1 0 0 -7.9977546723591955 0 0 1 1 0 0 forward_v I I I I #
coedge $-1 $103 $104 $105 $106 forward $41 $-1 #
face $-1 $107 $108 $25 $-1 $109 reversed single #
loop $-1 $-1 $110 $43 #
plane-surface $-1 -55.856327728929337 -16.104998308211322 0 0 -1 0 0 0 -1 forward_v I I I I #
coedge $-1 $111 $112 $113 $114 reversed $44 $-1 #
face $-1 $115 $116 $26 $-1 $117 reversed single #
loop $-1 $-1 $118 $46 #
plane-surface $-1 51.893935404146085 -18.455118272285254 0 1 0 0 0 0 -1 forward_v I I I I #
coedge $-1 $119 $120 $121 $122 forward $47 $-1 #
face $-1 $123 $124 $27 $-1 $125 reversed single #
loop $-1 $-1 $126 $49 #
plane-surface $-1 -15.563295804936715 -13.032597435065284 45.27974162652049 0 0.70710678939079041 0.70710677298230451 1 0 0 forward_v I I I I #
coedge $-1 $127 $128 $129 $130 reversed $50 $-1 #
face $-1 $-1 $131 $28 $-1 $132 forward single #
loop $-1 $133 $134 $52 #
cone-surface $-1 -19.637837050152456 22.448155612852101 -1.0175644000555009 0 -0.70710678939079041 -0.70710677298230451 1 0 0 1 I I -0.70710678118654746 0.70710678118654746 1 forward I I I I #
loop $-1 $-1 $135 $36 #
coedge $-1 $84 $84 $136 $137 reversed $53 $-1 #
face $-1 $-1 $138 $29 $-1 $139 forward single #
loop $-1 $140 $141 $55 #
cone-surface $-1 -11.488754559720981 22.448155612852101 -1.0175644000555009 0 -0.70710678939079041 -0.70710677298230451 1 0 0 1 I I -0.70710678118654746 0.70710678118654746 1 forward I I I I #
loop $-1 $-1 $142 $37 #
coedge $-1 $89 $89 $143 $144 reversed $56 $-1 #
face $-1 $145 $146 $30 $-1 $147 reversed single #
loop $-1 $-1 $148 $58 #
plane-surface $-1 -40.925844042672239 -31.463474727064593 0.93146421045862837 0 -0.79863551827123203 0.60181501223851219 1 0 0 forward_v I I I I #
coedge $-1 $149 $150 $151 $152 reversed $59 $-1 #
face $-1 $-1 $153 $31 $-1 $154 forward single #
loop $-1 $155 $156 $61 #
cone-surface $-1 -40.925844042672239 -24.867357930455949 1.5003532248959042 0 0.79863551827123203 -0.60181501223851219 0.75 0 0 1 I I -0.70710678118654757 0.70710678118654757 0.75 forward I I I I #
loop $-1 $-1 $157 $39 #
coedge $-1 $98 $98 $158 $159 reversed $62 $-1 #
face $-1 $160 $161 $24 $-1 $162 reversed single #
loop $-1 $-1 $163 $64 #
plane-surface $-1 0 -31.463474727064597 0 0 1 0 0 0 1 forward_v I I I I #
coedge $-1 $164 $165 $166 $167 forward $65 $-1 #
coedge $-1 $168 $67 $169 $170 forward $41 $-1 #
coedge $-1 $67 $168 $171 $172 forward $41 $-1 #
coedge $-1 $173 $174 $67 $106 reversed $175 $-1 #
edge $-1 $176 -31.463474727064597 $177 31.463474727064597 $105 $178 forward 7 unknown #
face $-1 $179 $180 $25 $-1 $181 reversed single #
loop $-1 $-1 $182 $68 #
plane-surface $-1 -51.893935404146092 -18.455118272285254 0 -1 0 0 0 0 1 forward_v I I I I #
coedge $-1 $183 $184 $185 $186 forward $69 $-1 #
coedge $-1 $187 $71 $188 $189 reversed $44 $-1 #
coedge $-1 $71 $187 $190 $191 reversed $44 $-1 #
coedge $-1 $192 $193 $71 $114 forward $194 $-1 #
edge $-1 $195 -7.9977546723591955 $196 7.9977546723591955 $113 $197 forward 7 unknown #
face $-1 $198 $199 $26 $-1 $200 reversed single #
loop $-1 $-1 $201 $72 #
plane-surface $-1 55.85632772892933 -16.104998308211322 0 0 -1 0 0 0 -1 forward_v I I I I #
coedge $-1 $202 $203 $204 $205 forward $73 $-1 #
coedge $-1 $206 $75 $207 $208 reversed $47 $-1 #
coedge $-1 $75 $206 $209 $210 reversed $47 $-1 #
coedge $-1 $203 $202 $75 $122 reversed $73 $-1 #
edge $-1 $211 -7.9977546723591955 $212 7.9977546723591955 $121 $213 forward 7 unknown #
face $-1 $214 $215 $27 $-1 $216 reversed single #
loop $-1 $-1 $217 $76 #
plane-surface $-1 -6.0560328994333297 71.563848730229097 129.87618582874563 -1 0 0 0 0.70710678939079041 0.70710677298230451 forward_v I I I I #
coedge $-1 $218 $219 $220 $221 reversed $77 $-1 #
coedge $-1 $128 $79 $222 $223 reversed $50 $-1 #
coedge $-1 $79 $127 $218 $224 reversed $50 $-1 #
coedge $-1 $220 $225 $79 $130 forward $226 $-1 #
edge $-1 $227 4.3184496380499517 $228 11.532535711150885 $129 $229 forward 7 unknown #
loop $-1 $-1 $136 $80 #
plane-surface $-1 -15.563295804936715 -13.032597435065284 45.27974162652049 0 0.70710678939079041 0.70710677298230451 1 0 0 forward_v I I I I #
loop $-1 $-1 $230 $52 #
coedge $-1 $134 $134 $135 $231 reversed $81 $-1 #
coedge $-1 $135 $135 $134 $231 forward $83 $-1 #
coedge $-1 $136 $136 $84 $137 forward $131 $-1 #
edge $-1 $232 -9.4205548614051221e-016 $232 6.2831853071795996 $136 $233 forward 7 unknown #
loop $-1 $-1 $143 $85 #
plane-surface $-1 -15.563295804936715 -13.032597435065284 45.27974162652049 0 0.70710678939079041 0.70710677298230451 1 0 0 forward_v I I I I #
loop $-1 $-1 $234 $55 #
coedge $-1 $141 $141 $142 $235 reversed $86 $-1 #
coedge $-1 $142 $142 $141 $235 forward $88 $-1 #
coedge $-1 $143 $143 $89 $144 forward $138 $-1 #
edge $-1 $236 -9.4205548614051221e-016 $236 6.2831853071795996 $143 $237 forward 7 unknown #
face $-1 $238 $239 $30 $-1 $240 forward single #
loop $-1 $-1 $241 $90 #
plane-surface $-1 -51.893935404146092 -127.01018371190158 72.931071692892971 1 0 0 0 0.79863551827123203 -0.60181501223851219 forward_v I I I I #
coedge $-1 $242 $243 $244 $245 reversed $91 $-1 #
coedge $-1 $150 $93 $246 $247 reversed $59 $-1 #
coedge $-1 $93 $149 $242 $248 reversed $59 $-1 #
coedge $-1 $244 $249 $93 $152 forward $239 $-1 #
edge $-1 $250 32.041617128886188 $251 37.366448774259254 $151 $252 forward 7 unknown #
loop $-1 $-1 $158 $94 #
plane-surface $-1 -40.925844042672239 -31.463474727064593 0.93146421045862837 0 -0.79863551827123203 0.60181501223851219 1 0 0 forward_v I I I I #
loop $-1 $-1 $253 $61 #
coedge $-1 $156 $156 $157 $254 reversed $95 $-1 #
coedge $-1 $157 $157 $156 $254 forward $97 $-1 #
coedge $-1 $158 $158 $98 $159 forward $153 $-1 #
edge $-1 $255 0 $255 6.2831853071796004 $158 $256 forward 7 unknown #
face $-1 $257 $258 $24 $-1 $259 reversed single #
loop $-1 $-1 $260 $99 #
plane-surface $-1 -59.818720053712582 0 0 1 0 0 0 0 -1 forward_v I I I I #
coedge $-1 $261 $171 $262 $263 forward $100 $-1 #
coedge $-1 $264 $102 $261 $265 forward $65 $-1 #
coedge $-1 $102 $264 $266 $267 forward $65 $-1 #
coedge $-1 $174 $173 $102 $167 reversed $175 $-1 #
edge $-1 $268 -31.463474727064597 $269 31.463474727064597 $166 $270 forward 7 unknown #
coedge $-1 $104 $103 $271 $272 forward $41 $-1 #
coedge $-1 $273 $274 $103 $170 reversed $258 $-1 #
edge $-1 $177 -59.818720053712582 $275 59.818720053712582 $169 $276 forward 7 unknown #
coedge $-1 $163 $277 $104 $172 reversed $100 $-1 #
edge $-1 $278 -59.818720053712582 $176 59.818720053712582 $171 $279 forward 7 unknown #
coedge $-1 $166 $105 $277 $280 forward $175 $-1 #
coedge $-1 $105 $166 $273 $281 reversed $175 $-1 #
loop $-1 $-1 $173 $257 #
vertex $-1 $106 $282 #
vertex $-1 $106 $283 #
straight-curve $-1 59.818720053712582 0 7.9977546723591955 0 1 0 I I #
face $-1 $284 $285 $25 $-1 $286 forward single #
loop $-1 $-1 $287 $107 #
plane-surface $-1 0 0 -7.9977546723591955 0 0 1 1 0 0 forward_v I I I I #
coedge $-1 $288 $289 $187 $290 forward $108 $-1 #
coedge $-1 $291 $110 $287 $292 reversed $69 $-1 #
coedge $-1 $110 $291 $293 $294 reversed $69 $-1 #
coedge $-1 $289 $288 $110 $186 reversed $108 $-1 #
edge $-1 $295 -7.9977546723591955 $296 7.9977546723591955 $185 $297 forward 7 unknown #
coedge $-1 $112 $111 $182 $290 reversed $44 $-1 #
coedge $-1 $298 $299 $111 $189 forward $180 $-1 #
edge $-1 $300 23.965771539681423 $195 31.890556189247913 $188 $301 forward 7 unknown #
coedge $-1 $302 $303 $112 $191 forward $285 $-1 #
edge $-1 $196 -31.890556189247913 $304 -23.965771539681423 $190 $305 forward 7 unknown #
coedge $-1 $306 $113 $303 $307 reversed $194 $-1 #
coedge $-1 $113 $306 $298 $308 reversed $194 $-1 #
loop $-1 $-1 $306 $284 #
vertex $-1 $308 $309 #
vertex $-1 $114 $310 #
straight-curve $-1 -59.818720053712582 -20.805238236359187 0 0 0 1 I I #
face $-1 $311 $312 $26 $-1 $313 forward single #
loop $-1 $-1 $207 $115 #
plane-surface $-1 0 0 -7.9977546723591955 0 0 1 1 0 0 forward_v I I I I #
coedge $-1 $314 $315 $316 $317 reversed $116 $-1 #
coedge $-1 $121 $118 $318 $319 reversed $73 $-1 #
coedge $-1 $118 $121 $320 $321 reversed $73 $-1 #
coedge $-1 $315 $314 $118 $205 reversed $116 $-1 #
edge $-1 $322 -7.9977546723591955 $323 7.9977546723591955 $204 $324 forward 7 unknown #
coedge $-1 $120 $119 $325 $326 reversed $47 $-1 #
coedge $-1 $318 $327 $119 $208 forward $199 $-1 #
edge $-1 $328 -31.89055618924791 $212 -23.96577153968142 $207 $329 forward 7 unknown #
coedge $-1 $330 $320 $120 $210 forward $312 $-1 #
edge $-1 $211 23.96577153968142 $331 31.89055618924791 $209 $332 forward 7 unknown #
vertex $-1 $210 $333 #
vertex $-1 $208 $334 #
straight-curve $-1 51.893935404146085 -20.805238236359187 0 0 0 -1 I I #
face $-1 $-1 $226 $27 $-1 $335 forward single #
loop $-1 $-1 $336 $123 #
plane-surface $-1 0 31.463474727064597 0 0 -1 0 0 0 -1 forward_v I I I I #
coedge $-1 $337 $338 $339 $340 reversed $124 $-1 #
coedge $-1 $341 $126 $128 $224 forward $77 $-1 #
coedge $-1 $126 $341 $337 $342 forward $77 $-1 #
coedge $-1 $339 $129 $126 $221 forward $226 $-1 #
edge $-1 $228 -17.288910807971742 $343 1.7256150030350277 $220 $344 forward 7 unknown #
coedge $-1 $345 $346 $127 $223 forward $215 $-1 #
edge $-1 $347 -64.154424482518166 $227 -56.940338242013624 $222 $348 forward 7 unknown #
edge $-1 $228 52.724690971050769 $347 62.9269494541292 $128 $349 forward 7 unknown #
coedge $-1 $129 $339 $345 $350 forward $226 $-1 #
loop $-1 $-1 $339 $214 #
vertex $-1 $223 $351 #
vertex $-1 $130 $352 #
straight-curve $-1 -25.0705587104401 35.781924365114548 7.9977546723591928 0 -1 0 I I #
coedge $-1 $230 $230 $-1 $353 reversed $133 $-1 #
edge $-1 $354 0 $354 6.2831853071796004 $134 $355 forward 7 unknown #
vertex $-1 $137 $356 #
ellipse-curve $-1 -19.637837050152456 27.856431690514128 4.3907115521069215 0 0.70710678939079041 0.70710677298230451 2 0 0 1 I I #
coedge $-1 $234 $234 $-1 $357 reversed $140 $-1 #
edge $-1 $358 0 $358 6.2831853071796004 $141 $359 forward 7 unknown #
vertex $-1 $144 $360 #
ellipse-curve $-1 -11.488754559720981 27.856431690514128 4.3907115521069215 0 0.70710678939079041 0.70710677298230451 2 0 0 1 I I #
face $-1 $-1 $361 $30 $-1 $362 reversed single #
loop $-1 $-1 $151 $145 #
plane-surface $-1 0 0 7.9977546723591955 0 0 1 1 0 0 forward_v I I I I #
coedge $-1 $363 $364 $365 $366 reversed $146 $-1 #
coedge $-1 $367 $148 $150 $248 forward $91 $-1 #
coedge $-1 $148 $367 $363 $368 forward $91 $-1 #
coedge $-1 $365 $151 $148 $245 forward $239 $-1 #
edge $-1 $251 9.4948306598622665 $369 31.431013382809972 $244 $370 forward 7 unknown #
coedge $-1 $371 $372 $149 $247 forward $361 $-1 #
edge $-1 $373 -35.534071635987864 $250 -28.467781174087289 $246 $374 forward 7 unknown #
edge $-1 $251 -8.8479541671232269 $373 5.8620632968935532e-015 $150 $375 forward 7 unknown #
coedge $-1 $151 $365 $371 $376 forward $239 $-1 #
vertex $-1 $152 $377 #
vertex $-1 $152 $378 #
straight-curve $-1 -29.957752681198386 -63.505091855950788 7.9977546723591928 0 1 0 I I #
coedge $-1 $253 $253 $-1 $379 reversed $155 $-1 #
edge $-1 $380 0 $380 6.2831853071796004 $156 $381 forward 7 unknown #
vertex $-1 $159 $382 #
ellipse-curve $-1 -40.925844042672239 -28.801058904378063 4.4646094414089088 0 -0.79863551827123203 0.60181501223851219 1.5 0 0 1 I I #
face $-1 $-1 $175 $24 $-1 $383 reversed single #
loop $-1 $-1 $273 $160 #
plane-surface $-1 0 31.463474727064597 0 0 -1 0 0 0 -1 forward_v I I I I #
coedge $-1 $384 $271 $274 $385 forward $161 $-1 #
coedge $-1 $277 $163 $164 $265 reversed $100 $-1 #
coedge $-1 $271 $384 $163 $263 reversed $161 $-1 #
edge $-1 $278 -7.9977546723591955 $386 7.9977546723591955 $262 $387 forward 7 unknown #
coedge $-1 $165 $164 $384 $388 forward $65 $-1 #
edge $-1 $269 -59.818720053712582 $386 59.818720053712582 $261 $389 forward 7 unknown #
coedge $-1 $274 $273 $165 $267 reversed $258 $-1 #
edge $-1 $390 -59.818720053712582 $268 59.818720053712582 $266 $391 forward 7 unknown #
vertex $-1 $167 $392 #
vertex $-1 $280 $393 #
straight-curve $-1 59.818720053712582 0 -7.9977546723591955 0 -1 0 I I #
coedge $-1 $260 $262 $168 $272 reversed $161 $-1 #
edge $-1 $275 -31.463474727064597 $278 31.463474727064597 $271 $394 forward 7 unknown #
coedge $-1 $266 $169 $174 $281 forward $258 $-1 #
coedge $-1 $169 $266 $260 $385 reversed $258 $-1 #
vertex $-1 $170 $395 #
straight-curve $-1 0 31.463474727064597 7.9977546723591955 -1 0 0 I I #
coedge $-1 $171 $261 $173 $280 reversed $100 $-1 #
vertex $-1 $272 $396 #
straight-curve $-1 0 -31.463474727064597 7.9977546723591955 1 0 0 I I #
edge $-1 $176 -7.9977546723591955 $269 7.9977546723591955 $173 $397 forward 7 unknown #
edge $-1 $177 -7.9977546723591955 $268 7.9977546723591955 $174 $398 forward 7 unknown #
point $-1 59.818720053712582 -31.463474727064597 7.9977546723591955 #
point $-1 59.818720053712582 31.463474727064597 7.9977546723591955 #
face $-1 $-1 $194 $25 $-1 $399 reversed single #
loop $-1 $-1 $293 $179 #
plane-surface $-1 0 0 7.9977546723591955 0 0 1 1 0 0 forward_v I I I I #
coedge $-1 $299 $298 $183 $292 forward $180 $-1 #
coedge $-1 $185 $182 $299 $400 reversed $108 $-1 #
coedge $-1 $182 $185 $302 $401 reversed $108 $-1 #
edge $-1 $304 -7.9977546723591955 $300 7.9977546723591955 $182 $402 forward 7 unknown #
coedge $-1 $184 $183 $306 $403 reversed $69 $-1 #
edge $-1 $404 -31.890556189247913 $296 -23.965771539681423 $287 $405 forward 7 unknown #
coedge $-1 $303 $302 $184 $294 forward $285 $-1 #
edge $-1 $295 23.965771539681423 $406 31.890556189247913 $293 $407 forward 7 unknown #
vertex $-1 $294 $408 #
vertex $-1 $292 $409 #
straight-curve $-1 -51.893935404146092 -16.104998308211322 0 0 0 -1 I I #
coedge $-1 $287 $188 $193 $308 forward $180 $-1 #
coedge $-1 $188 $287 $288 $400 forward $180 $-1 #
vertex $-1 $189 $410 #
straight-curve $-1 -27.928163864464668 -20.805238236359187 -7.9977546723591955 -1 0 0 I I #
coedge $-1 $293 $190 $289 $401 forward $285 $-1 #
coedge $-1 $190 $293 $192 $307 forward $285 $-1 #
vertex $-1 $191 $411 #
straight-curve $-1 -27.928163864464668 -20.805238236359187 7.9977546723591955 1 0 0 I I #
coedge $-1 $193 $192 $291 $403 forward $194 $-1 #
edge $-1 $406 16.104998308211322 $196 20.805238236359187 $192 $412 forward 7 unknown #
edge $-1 $195 -20.805238236359187 $404 -16.104998308211322 $193 $413 forward 7 unknown #
point $-1 -59.818720053712582 -20.805238236359187 -7.9977546723591955 #
point $-1 -59.818720053712582 -20.805238236359187 7.9977546723591955 #
face $-1 $-1 $414 $26 $-1 $415 reversed single #
loop $-1 $-1 $209 $198 #
plane-surface $-1 0 0 7.9977546723591955 0 0 1 1 0 0 forward_v I I I I #
coedge $-1 $204 $201 $416 $417 reversed $116 $-1 #
coedge $-1 $201 $204 $418 $419 reversed $116 $-1 #
coedge $-1 $420 $421 $201 $317 forward $414 $-1 #
edge $-1 $422 -7.9977546723591955 $423 7.9977546723591955 $316 $424 forward 7 unknown #
coedge $-1 $416 $207 $202 $319 forward $199 $-1 #
edge $-1 $212 -11.57767910021656 $323 -6.8774391720686943 $318 $425 forward 7 unknown #
coedge $-1 $209 $418 $203 $321 forward $312 $-1 #
edge $-1 $322 6.8774391720686943 $211 11.57767910021656 $320 $426 forward 7 unknown #
vertex $-1 $321 $427 #
vertex $-1 $319 $428 #
straight-curve $-1 51.893935404146085 -16.104998308211322 0 0 0 -1 I I #
coedge $-1 $421 $420 $206 $326 forward $414 $-1 #
edge $-1 $331 -7.9977546723591955 $328 7.9977546723591955 $325 $429 forward 7 unknown #
coedge $-1 $207 $416 $421 $430 forward $199 $-1 #
vertex $-1 $326 $431 #
straight-curve $-1 27.928163864464665 -20.805238236359187 -7.9977546723591955 -1 0 0 I I #
coedge $-1 $418 $209 $420 $432 forward $312 $-1 #
vertex $-1 $432 $433 #
straight-curve $-1 27.928163864464665 -20.805238236359187 7.9977546723591955 1 0 0 I I #
point $-1 51.893935404146085 -20.805238236359187 7.9977546723591955 #
point $-1 51.893935404146085 -20.805238236359187 -7.9977546723591955 #
plane-surface $-1 0 0 7.9977546723591955 0 0 1 1 0 0 forward_v I I I I #
coedge $-1 $346 $345 $338 $434 forward $215 $-1 #
coedge $-1 $338 $217 $219 $342 reversed $124 $-1 #
coedge $-1 $217 $337 $336 $434 reversed $124 $-1 #
coedge $-1 $225 $220 $217 $340 forward $226 $-1 #
edge $-1 $343 -11.532535711150885 $435 -4.3184496380499517 $339 $436 forward 7 unknown #
coedge $-1 $219 $218 $346 $437 reversed $77 $-1 #
edge $-1 $438 -62.9269494541292 $343 -52.724690971050769 $337 $439 forward 7 unknown #
vertex $-1 $221 $440 #
straight-curve $-1 -7.7816479024683574 24.24938865396366 7.9977546723591963 1 0 0 I I #
coedge $-1 $336 $222 $225 $350 reversed $215 $-1 #
coedge $-1 $222 $336 $341 $437 forward $215 $-1 #
vertex $-1 $223 $441 #
straight-curve $-1 -25.0705587104401 31.463474727064597 64.938092914372817 0 0 1 I I #
straight-curve $-1 -25.0705587104401 -13.032597435065284 45.27974162652049 0 0.70710677298230451 -0.70710678939079041 I I #
edge $-1 $435 6.0560328994333297 $227 25.0705587104401 $345 $442 forward 7 unknown #
point $-1 -25.0705587104401 31.463474727064597 7.9977546723591955 #
point $-1 -25.0705587104401 24.249388653963663 7.9977546723591928 #
edge $-1 $443 1 $443 0 $230 $-1 forward 7 unknown #
vertex $-1 $231 $444 #
ellipse-curve $-1 -19.637837050152456 23.15526240224289 -0.31045762707319635 0 0.70710678939079041 0.70710677298230451 2 0 0 1 I I #
point $-1 -17.637837050152456 27.856431690514128 4.3907115521069242 #
edge $-1 $445 1 $445 0 $234 $-1 forward 7 unknown #
vertex $-1 $235 $446 #
ellipse-curve $-1 -11.488754559720981 23.15526240224289 -0.31045762707319635 0 0.70710678939079041 0.70710677298230451 2 0 0 1 I I #
point $-1 -9.4887545597209808 27.856431690514128 4.3907115521069242 #
loop $-1 $-1 $246 $238 #
plane-surface $-1 0 -31.463474727064597 0 0 1 0 0 0 1 forward_v I I I I #
coedge $-1 $364 $241 $243 $368 reversed $146 $-1 #
coedge $-1 $241 $363 $447 $448 reversed $146 $-1 #
coedge $-1 $249 $244 $241 $366 forward $239 $-1 #
edge $-1 $369 -37.366448774259254 $449 -32.041617128886188 $365 $450 forward 7 unknown #
coedge $-1 $243 $242 $372 $451 reversed $91 $-1 #
edge $-1 $452 -5.8620632968935532e-015 $369 8.8479541671232269 $363 $453 forward 7 unknown #
vertex $-1 $245 $454 #
straight-curve $-1 -20.462922021336119 -26.13864308169153 7.9977546723591955 -1 0 0 I I #
coedge $-1 $447 $246 $249 $376 reversed $361 $-1 #
coedge $-1 $246 $447 $367 $451 forward $361 $-1 #
vertex $-1 $247 $455 #
straight-curve $-1 -29.957752681198386 -31.463474727064593 36.465535846446485 0 0 1 I I #
straight-curve $-1 -29.957752681198386 -31.463474727064593 0.93146421045862837 0 -0.60181501223851219 -0.79863551827123203 I I #
edge $-1 $449 -51.893935404146092 $250 -29.957752681198386 $371 $456 forward 7 unknown #
point $-1 -29.957752681198386 -31.463474727064597 7.9977546723591955 #
point $-1 -29.957752681198386 -26.138643081691534 7.9977546723591955 #
edge $-1 $457 1 $457 0 $253 $-1 forward 7 unknown #
vertex $-1 $254 $458 #
ellipse-curve $-1 -40.925844042672239 -25.466334569159372 1.9517144840747882 0 -0.79863551827123203 0.60181501223851219 1.5 0 0 1 I I #
point $-1 -39.425844042672239 -28.801058904378063 4.4646094414089088 #
plane-surface $-1 59.818720053712582 0 0 -1 0 0 0 0 1 forward_v I I I I #
coedge $-1 $262 $260 $264 $388 reversed $161 $-1 #
edge $-1 $275 -7.9977546723591955 $390 7.9977546723591955 $274 $459 forward 7 unknown #
vertex $-1 $388 $460 #
straight-curve $-1 -59.818720053712582 -31.463474727064597 0 0 0 -1 I I #
edge $-1 $386 -31.463474727064597 $390 31.463474727064597 $384 $461 forward 7 unknown #
straight-curve $-1 0 -31.463474727064597 -7.9977546723591955 -1 0 0 I I #
vertex $-1 $267 $462 #
straight-curve $-1 0 31.463474727064597 -7.9977546723591955 1 0 0 I I #
point $-1 59.818720053712582 31.463474727064597 -7.9977546723591955 #
point $-1 59.818720053712582 -31.463474727064597 -7.9977546723591955 #
straight-curve $-1 -59.818720053712582 0 7.9977546723591955 0 -1 0 I I #
point $-1 -59.818720053712582 31.463474727064597 7.9977546723591955 #
point $-1 -59.818720053712582 -31.463474727064597 7.9977546723591955 #
straight-curve $-1 59.818720053712582 -31.463474727064597 0 0 0 -1 I I #
straight-curve $-1 59.818720053712582 31.463474727064597 0 0 0 -1 I I #
plane-surface $-1 -59.818720053712582 0 0 1 0 0 0 0 -1 forward_v I I I I #
edge $-1 $296 6.8774391720686943 $300 11.57767910021656 $299 $463 forward 7 unknown #
edge $-1 $304 -11.57767910021656 $295 -6.8774391720686943 $302 $464 forward 7 unknown #
straight-curve $-1 -51.893935404146092 -20.805238236359187 0 0 0 -1 I I #
edge $-1 $406 -7.9977546723591955 $404 7.9977546723591955 $306 $465 forward 7 unknown #
vertex $-1 $403 $466 #
straight-curve $-1 -27.928163864464668 -16.104998308211322 -7.9977546723591955 1 0 0 I I #
vertex $-1 $307 $467 #
straight-curve $-1 -27.928163864464668 -16.104998308211322 7.9977546723591955 -1 0 0 I I #
point $-1 -51.893935404146092 -16.104998308211322 7.9977546723591955 #
point $-1 -51.893935404146092 -16.104998308211322 -7.9977546723591955 #
point $-1 -51.893935404146092 -20.805238236359187 -7.9977546723591955 #
point $-1 -51.893935404146092 -20.805238236359187 7.9977546723591955 #
straight-curve $-1 -59.818720053712582 0 7.9977546723591955 0 -1 0 I I #
straight-curve $-1 -59.818720053712582 0 -7.9977546723591955 0 1 0 I I #
loop $-1 $-1 $325 $311 #
plane-surface $-1 59.818720053712582 0 0 -1 0 0 0 0 1 forward_v I I I I #
coedge $-1 $327 $318 $314 $417 forward $199 $-1 #
edge $-1 $323 23.96577153968142 $422 31.89055618924791 $416 $468 forward 7 unknown #
coedge $-1 $320 $330 $315 $419 forward $312 $-1 #
edge $-1 $423 -31.89055618924791 $322 -23.96577153968142 $418 $469 forward 7 unknown #
coedge $-1 $325 $316 $330 $432 reversed $414 $-1 #
coedge $-1 $316 $325 $327 $430 reversed $414 $-1 #
vertex $-1 $430 $470 #
vertex $-1 $317 $471 #
straight-curve $-1 59.818720053712582 -16.104998308211322 0 0 0 1 I I #
straight-curve $-1 51.893935404146085 -9.2275591361426272 -7.9977546723591955 0 1 0 I I #
straight-curve $-1 51.893935404146085 -9.2275591361426272 7.9977546723591955 0 -1 0 I I #
point $-1 51.893935404146085 -16.104998308211322 7.9977546723591955 #
point $-1 51.893935404146085 -16.104998308211322 -7.9977546723591955 #
straight-curve $-1 59.818720053712582 -20.805238236359187 0 0 0 -1 I I #
edge $-1 $422 16.104998308211322 $328 20.805238236359187 $421 $472 forward 7 unknown #
point $-1 59.818720053712575 -20.805238236359187 -7.9977546723591955 #
edge $-1 $331 -20.805238236359187 $423 -16.104998308211322 $420 $473 forward 7 unknown #
point $-1 59.818720053712575 -20.805238236359187 7.9977546723591955 #
edge $-1 $435 56.940338242013624 $438 64.154424482518166 $336 $474 forward 7 unknown #
vertex $-1 $350 $475 #
straight-curve $-1 -6.0560328994333297 35.781924365114548 7.9977546723591928 0 1 0 I I #
edge $-1 $438 -1.7256150030350277 $347 17.288910807971742 $346 $476 forward 7 unknown #
vertex $-1 $437 $477 #
straight-curve $-1 -6.0560328994333297 -13.032597435065284 45.27974162652049 0 -0.70710677298230451 0.70710678939079041 I I #
point $-1 -6.0560328994333297 24.249388653963663 7.9977546723591928 #
point $-1 -25.0705587104401 31.463474727064593 0.78366843185465029 #
straight-curve $-1 0 31.463474727064597 7.9977546723591955 -1 0 0 I I #
vertex $-1 $353 $478 #
point $-1 -17.637837050152456 23.15526240224289 -0.31045762707319635 #
vertex $-1 $357 $479 #
point $-1 -9.4887545597209808 23.15526240224289 -0.31045762707319635 #
coedge $-1 $372 $371 $364 $448 forward $361 $-1 #
edge $-1 $449 28.467781174087289 $452 35.534071635987864 $447 $480 forward 7 unknown #
vertex $-1 $376 $481 #
straight-curve $-1 -51.893935404146092 -63.505091855950788 7.9977546723591928 0 -1 0 I I #
edge $-1 $452 -31.431013382809972 $373 -9.4948306598622665 $372 $482 forward 7 unknown #
vertex $-1 $451 $483 #
straight-curve $-1 -51.893935404146092 -31.463474727064593 0.93146421045862837 0 0.60181501223851219 0.79863551827123203 I I #
point $-1 -51.893935404146092 -26.138643081691534 7.9977546723591955 #
point $-1 -29.957752681198386 -31.463474727064597 0.93146421045862371 #
straight-curve $-1 0 -31.463474727064597 7.9977546723591955 1 0 0 I I #
vertex $-1 $379 $484 #
point $-1 -39.425844042672239 -25.466334569159372 1.9517144840747882 #
straight-curve $-1 -59.818720053712582 31.463474727064597 0 0 0 -1 I I #
point $-1 -59.818720053712582 -31.463474727064597 -7.9977546723591955 #
straight-curve $-1 -59.818720053712582 0 -7.9977546723591955 0 1 0 I I #
point $-1 -59.818720053712582 31.463474727064597 -7.9977546723591955 #
straight-curve $-1 -51.893935404146092 -9.2275591361426272 -7.9977546723591955 0 -1 0 I I #
straight-curve $-1 -51.893935404146092 -9.2275591361426272 7.9977546723591955 0 1 0 I I #
straight-curve $-1 -59.818720053712582 -16.104998308211322 0 0 0 -1 I I #
point $-1 -59.818720053712582 -16.104998308211322 -7.9977546723591955 #
point $-1 -59.818720053712582 -16.104998308211322 7.9977546723591955 #
straight-curve $-1 27.928163864464665 -16.104998308211322 -7.9977546723591955 1 0 0 I I #
straight-curve $-1 27.928163864464665 -16.104998308211322 7.9977546723591955 -1 0 0 I I #
point $-1 59.818720053712575 -16.104998308211322 -7.9977546723591955 #
point $-1 59.818720053712575 -16.104998308211322 7.9977546723591955 #
straight-curve $-1 59.818720053712582 0 -7.9977546723591955 0 -1 0 I I #
straight-curve $-1 59.818720053712582 0 7.9977546723591955 0 1 0 I I #
straight-curve $-1 -6.0560328994333297 31.463474727064597 64.938092914372817 0 0 -1 I I #
point $-1 -6.0560328994333297 31.463474727064597 7.9977546723591955 #
straight-curve $-1 -7.7816479024683574 31.463474727064597 0.78366843185465029 -1 0 0 I I #
point $-1 -6.0560328994333297 31.463474727064593 0.78366843185465029 #
point $-1 -19.637837050152456 21.741048823461313 -1.7246711730378053 #
point $-1 -11.488754559720981 21.741048823461313 -1.7246711730378053 #
straight-curve $-1 -51.893935404146092 -31.463474727064593 36.465535846446485 0 0 -1 I I #
point $-1 -51.893935404146092 -31.463474727064597 7.9977546723591955 #
straight-curve $-1 -20.462922021336119 -31.463474727064597 0.93146421045862327 1 0 0 I I #
point $-1 -51.893935404146092 -31.463474727064597 0.93146421045862371 #
point $-1 -40.925844042672239 -24.268381291752526 1.0489919657170201 #
End-of-ACIS-data 