500 0 20 0           
7 Unknown 11 ACIS 5.0 NT 24 Thu Mar 25 23:43:39 1999 
-1 9.9999999999999995e-007 1e-010 
body $-1 $20 $-1 $21 #
body $-1 $22 $-1 $23 #
body $-1 $24 $-1 $25 #
body $-1 $26 $-1 $27 #
body $-1 $28 $-1 $29 #
body $-1 $30 $-1 $31 #
body $-1 $32 $-1 $33 #
body $-1 $34 $-1 $35 #
body $-1 $36 $-1 $37 #
body $-1 $38 $-1 $39 #
body $-1 $40 $-1 $41 #
body $-1 $42 $-1 $43 #
body $-1 $44 $-1 $45 #
body $-1 $46 $-1 $47 #
body $-1 $48 $-1 $49 #
body $-1 $50 $-1 $51 #
body $-1 $52 $-1 $53 #
body $-1 $54 $-1 $55 #
body $-1 $56 $-1 $57 #
body $-1 $58 $-1 $59 #
lump $-1 $-1 $60 $0 #
transform $-1 1 0 0 0 1 0 0 0 1 46.003601184118168 20.433253322966884 9.1033270869879814 1 rotate no_reflect no_shear #
lump $-1 $-1 $61 $1 #
transform $-1 0.84804809178421925 0 0.52991927123019833 0 1 0 -0.52991927123019833 0 0.84804809178421925 -48.756389626905168 18.3964143545419 89.981009353646172 1 rotate no_reflect no_shear #
lump $-1 $-1 $62 $2 #
transform $-1 0.84804809178421925 0 0.52991927123019833 0 -1 0 0.52991927123019833 0 -0.84804809178421925 6.4339188058714409 16.732186519909771 12.790276683463553 1 rotate no_reflect no_shear #
lump $-1 $-1 $63 $3 #
transform $-1 0.84804809178421925 0 0.52991927123019833 0 -1 0 0.52991927123019833 0 -0.84804809178421925 6.4339188058714409 20.060642189174029 12.790276683463553 1 rotate no_reflect no_shear #
lump $-1 $-1 $64 $4 #
transform $-1 0.77714595512881146 0 -0.62932039886446345 0 1 0 0.62932039886446345 0 0.77714595512881146 78.40618649782536 5.1016832176129272 144.39301417088754 1 rotate no_reflect no_shear #
lump $-1 $-1 $65 $5 #
transform $-1 0.77714595512881146 0 -0.62932039886446345 0 -1 0 -0.62932039886446345 0 -0.77714595512881146 88.938048560675327 3.2408503098610417 15.261420195212004 1 rotate no_reflect no_shear #
lump $-1 $-1 $66 $6 #
transform $-1 0.77714595512881146 0 -0.62932039886446345 0 -1 0 -0.62932039886446345 0 -0.77714595512881146 88.938048560675327 5.1016832176129272 15.261420195212004 1 rotate no_reflect no_shear #
lump $-1 $-1 $67 $7 #
transform $-1 0.77714595512881146 0 -0.62932039886446345 0 -1 0 -0.62932039886446345 0 -0.77714595512881146 88.938048560675327 6.9625161253648127 15.261420195212004 1 rotate no_reflect no_shear #
lump $-1 $-1 $68 $8 #
transform $-1 0.77714595512881146 0 -0.62932039886446345 0 1 0 0.62932039886446345 0 0.77714595512881146 78.40618649782536 15.322729954515566 144.39301417088754 1 rotate no_reflect no_shear #
lump $-1 $-1 $69 $9 #
transform $-1 0.77714595512881146 0 -0.62932039886446345 0 -1 0 -0.62932039886446345 0 -0.77714595512881146 88.938048560675327 13.46189704676368 15.261420195212004 1 rotate no_reflect no_shear #
lump $-1 $-1 $70 $10 #
transform $-1 0.77714595512881146 0 -0.62932039886446345 0 -1 0 -0.62932039886446345 0 -0.77714595512881146 88.938048560675327 15.322729954515566 15.261420195212004 1 rotate no_reflect no_shear #
lump $-1 $-1 $71 $11 #
transform $-1 0.77714595512881146 0 -0.62932039886446345 0 -1 0 -0.62932039886446345 0 -0.77714595512881146 88.938048560675327 17.183562862267451 15.261420195212004 1 rotate no_reflect no_shear #
lump $-1 $-1 $72 $12 #
transform $-1 0.77714595512881146 0 -0.62932039886446345 0 1 0 0.62932039886446345 0 0.77714595512881146 78.40618649782536 25.543776691418202 144.39301417088754 1 rotate no_reflect no_shear #
lump $-1 $-1 $73 $13 #
transform $-1 0.77714595512881146 0 -0.62932039886446345 0 -1 0 -0.62932039886446345 0 -0.77714595512881146 88.938048560675327 23.682943783666317 15.261420195212004 1 rotate no_reflect no_shear #
lump $-1 $-1 $74 $14 #
transform $-1 0.77714595512881146 0 -0.62932039886446345 0 -1 0 -0.62932039886446345 0 -0.77714595512881146 88.938048560675327 25.543776691418202 15.261420195212004 1 rotate no_reflect no_shear #
lump $-1 $-1 $75 $15 #
transform $-1 0.77714595512881146 0 -0.62932039886446345 0 -1 0 -0.62932039886446345 0 -0.77714595512881146 88.938048560675327 27.404609599170087 15.261420195212004 1 rotate no_reflect no_shear #
lump $-1 $-1 $76 $16 #
transform $-1 0.77714595512881146 0 -0.62932039886446345 0 1 0 0.62932039886446345 0 0.77714595512881146 78.40618649782536 35.764823428320838 144.39301417088754 1 rotate no_reflect no_shear #
lump $-1 $-1 $77 $17 #
transform $-1 0.77714595512881146 0 -0.62932039886446345 0 -1 0 -0.62932039886446345 0 -0.77714595512881146 88.938048560675327 33.903990520568954 15.261420195212004 1 rotate no_reflect no_shear #
lump $-1 $-1 $78 $18 #
transform $-1 0.77714595512881146 0 -0.62932039886446345 0 -1 0 -0.62932039886446345 0 -0.77714595512881146 88.938048560675327 35.764823428320838 15.261420195212004 1 rotate no_reflect no_shear #
lump $-1 $-1 $79 $19 #
transform $-1 0.77714595512881146 0 -0.62932039886446345 0 -1 0 -0.62932039886446345 0 -0.77714595512881146 88.938048560675327 37.625656336072723 15.261420195212004 1 rotate no_reflect no_shear #
shell $-1 $-1 $-1 $80 $-1 $20 #
shell $-1 $-1 $-1 $81 $-1 $22 #
shell $-1 $-1 $-1 $82 $-1 $24 #
shell $-1 $-1 $-1 $83 $-1 $26 #
shell $-1 $-1 $-1 $84 $-1 $28 #
shell $-1 $-1 $-1 $85 $-1 $30 #
shell $-1 $-1 $-1 $86 $-1 $32 #
shell $-1 $-1 $-1 $87 $-1 $34 #
shell $-1 $-1 $-1 $88 $-1 $36 #
shell $-1 $-1 $-1 $89 $-1 $38 #
shell $-1 $-1 $-1 $90 $-1 $40 #
shell $-1 $-1 $-1 $91 $-1 $42 #
shell $-1 $-1 $-1 $92 $-1 $44 #
shell $-1 $-1 $-1 $93 $-1 $46 #
shell $-1 $-1 $-1 $94 $-1 $48 #
shell $-1 $-1 $-1 $95 $-1 $50 #
shell $-1 $-1 $-1 $96 $-1 $52 #
shell $-1 $-1 $-1 $97 $-1 $54 #
shell $-1 $-1 $-1 $98 $-1 $56 #
shell $-1 $-1 $-1 $99 $-1 $58 #
face $-1 $100 $101 $60 $-1 $102 forward single #
face $-1 $103 $104 $61 $-1 $105 forward single #
face $-1 $106 $107 $62 $-1 $108 forward single #
face $-1 $109 $110 $63 $-1 $111 forward single #
face $-1 $112 $113 $64 $-1 $114 forward single #
face $-1 $115 $116 $65 $-1 $117 forward single #
face $-1 $118 $119 $66 $-1 $120 forward single #
face $-1 $121 $122 $67 $-1 $123 forward single #
face $-1 $124 $125 $68 $-1 $126 forward single #
face $-1 $127 $128 $69 $-1 $129 forward single #
face $-1 $130 $131 $70 $-1 $132 forward single #
face $-1 $133 $134 $71 $-1 $135 forward single #
face $-1 $136 $137 $72 $-1 $138 forward single #
face $-1 $139 $140 $73 $-1 $141 forward single #
face $-1 $142 $143 $74 $-1 $144 forward single #
face $-1 $145 $146 $75 $-1 $147 forward single #
face $-1 $148 $149 $76 $-1 $150 forward single #
face $-1 $151 $152 $77 $-1 $153 forward single #
face $-1 $154 $155 $78 $-1 $156 forward single #
face $-1 $157 $158 $79 $-1 $159 forward single #
face $-1 $160 $161 $60 $-1 $162 reversed single #
loop $-1 $-1 $163 $80 #
plane-surface $-1 0 0 9.1033270869879814 0 0 1 1 0 0 forward_v I I I I #
face $-1 $164 $165 $61 $-1 $166 reversed single #
loop $-1 $-1 $167 $81 #
plane-surface $-1 0 0 92.007202368236335 0 0 1 1 0 0 forward_v I I I I #
face $-1 $168 $169 $62 $-1 $170 forward single #
loop $-1 $171 $172 $82 #
cone-surface $-1 0 0 -1.6003295999023397 0 0 1 1 0 0 1 I I 0 1 1 forward I I I I #
face $-1 $173 $174 $63 $-1 $175 forward single #
loop $-1 $176 $177 $83 #
cone-surface $-1 0 0 -1.6003295999023397 0 0 1 1 0 0 1 I I 0 1 1 forward I I I I #
face $-1 $178 $179 $64 $-1 $180 reversed single #
loop $-1 $-1 $181 $84 #
plane-surface $-1 0 0 92.007202368236335 0 0 1 1 0 0 forward_v I I I I #
face $-1 $182 $183 $65 $-1 $184 forward single #
loop $-1 $185 $186 $85 #
cone-surface $-1 0 0 -0.98448896755882487 0 0 1 0.5 0 0 1 I I 0 1 0.5 forward I I I I #
face $-1 $187 $188 $66 $-1 $189 forward single #
loop $-1 $190 $191 $86 #
cone-surface $-1 0 0 -0.98448896755882487 0 0 1 0.5 0 0 1 I I 0 1 0.5 forward I I I I #
face $-1 $192 $193 $67 $-1 $194 forward single #
loop $-1 $195 $196 $87 #
cone-surface $-1 0 0 -0.98448896755882487 0 0 1 0.5 0 0 1 I I 0 1 0.5 forward I I I I #
face $-1 $197 $198 $68 $-1 $199 reversed single #
loop $-1 $-1 $200 $88 #
plane-surface $-1 0 0 92.007202368236335 0 0 1 1 0 0 forward_v I I I I #
face $-1 $201 $202 $69 $-1 $203 forward single #
loop $-1 $204 $205 $89 #
cone-surface $-1 0 0 -0.98448896755882487 0 0 1 0.5 0 0 1 I I 0 1 0.5 forward I I I I #
face $-1 $206 $207 $70 $-1 $208 forward single #
loop $-1 $209 $210 $90 #
cone-surface $-1 0 0 -0.98448896755882487 0 0 1 0.5 0 0 1 I I 0 1 0.5 forward I I I I #
face $-1 $211 $212 $71 $-1 $213 forward single #
loop $-1 $214 $215 $91 #
cone-surface $-1 0 0 -0.98448896755882487 0 0 1 0.5 0 0 1 I I 0 1 0.5 forward I I I I #
face $-1 $216 $217 $72 $-1 $218 reversed single #
loop $-1 $-1 $219 $92 #
plane-surface $-1 0 0 92.007202368236335 0 0 1 1 0 0 forward_v I I I I #
face $-1 $220 $221 $73 $-1 $222 forward single #
loop $-1 $223 $224 $93 #
cone-surface $-1 0 0 -0.98448896755882487 0 0 1 0.5 0 0 1 I I 0 1 0.5 forward I I I I #
face $-1 $225 $226 $74 $-1 $227 forward single #
loop $-1 $228 $229 $94 #
cone-surface $-1 0 0 -0.98448896755882487 0 0 1 0.5 0 0 1 I I 0 1 0.5 forward I I I I #
face $-1 $230 $231 $75 $-1 $232 forward single #
loop $-1 $233 $234 $95 #
cone-surface $-1 0 0 -0.98448896755882487 0 0 1 0.5 0 0 1 I I 0 1 0.5 forward I I I I #
face $-1 $235 $236 $76 $-1 $237 reversed single #
loop $-1 $-1 $238 $96 #
plane-surface $-1 0 0 92.007202368236335 0 0 1 1 0 0 forward_v I I I I #
face $-1 $239 $240 $77 $-1 $241 forward single #
loop $-1 $242 $243 $97 #
cone-surface $-1 0 0 -0.98448896755882487 0 0 1 0.5 0 0 1 I I 0 1 0.5 forward I I I I #
face $-1 $244 $245 $78 $-1 $246 forward single #
loop $-1 $247 $248 $98 #
cone-surface $-1 0 0 -0.98448896755882487 0 0 1 0.5 0 0 1 I I 0 1 0.5 forward I I I I #
face $-1 $249 $250 $79 $-1 $251 forward single #
loop $-1 $252 $253 $99 #
cone-surface $-1 0 0 -0.98448896755882487 0 0 1 0.5 0 0 1 I I 0 1 0.5 forward I I I I #
face $-1 $254 $255 $60 $-1 $256 reversed single #
loop $-1 $-1 $257 $100 #
plane-surface $-1 0 0 -9.1033270869879814 0 0 1 1 0 0 forward_v I I I I #
coedge $-1 $258 $259 $260 $261 forward $101 $-1 #
face $-1 $262 $263 $61 $-1 $264 reversed single #
loop $-1 $-1 $265 $103 #
plane-surface $-1 0 0 -92.007202368236335 0 0 1 1 0 0 forward_v I I I I #
coedge $-1 $266 $267 $268 $269 forward $104 $-1 #
face $-1 $-1 $270 $62 $-1 $271 forward single #
loop $-1 $-1 $272 $106 #
plane-surface $-1 0 0 -2.7006591998046803 0 0 -1 -1 0 0 forward_v I I I I #
loop $-1 $-1 $273 $82 #
coedge $-1 $172 $172 $272 $274 reversed $107 $-1 #
face $-1 $-1 $275 $63 $-1 $276 forward single #
loop $-1 $-1 $277 $109 #
plane-surface $-1 0 0 -2.7006591998046803 0 0 -1 -1 0 0 forward_v I I I I #
loop $-1 $-1 $278 $83 #
coedge $-1 $177 $177 $277 $279 reversed $110 $-1 #
face $-1 $280 $281 $64 $-1 $282 reversed single #
loop $-1 $-1 $283 $112 #
plane-surface $-1 0 0 -92.007202368236335 0 0 1 1 0 0 forward_v I I I I #
coedge $-1 $284 $285 $286 $287 forward $113 $-1 #
face $-1 $-1 $288 $65 $-1 $289 forward single #
loop $-1 $-1 $290 $115 #
plane-surface $-1 0 0 -1.7189779351176488 0 0 -1 -1 0 0 forward_v I I I I #
loop $-1 $-1 $291 $85 #
coedge $-1 $186 $186 $290 $292 reversed $116 $-1 #
face $-1 $-1 $293 $66 $-1 $294 forward single #
loop $-1 $-1 $295 $118 #
plane-surface $-1 0 0 -1.7189779351176488 0 0 -1 -1 0 0 forward_v I I I I #
loop $-1 $-1 $296 $86 #
coedge $-1 $191 $191 $295 $297 reversed $119 $-1 #
face $-1 $-1 $298 $67 $-1 $299 forward single #
loop $-1 $-1 $300 $121 #
plane-surface $-1 0 0 -1.7189779351176488 0 0 -1 -1 0 0 forward_v I I I I #
loop $-1 $-1 $301 $87 #
coedge $-1 $196 $196 $300 $302 reversed $122 $-1 #
face $-1 $303 $304 $68 $-1 $305 reversed single #
loop $-1 $-1 $306 $124 #
plane-surface $-1 0 0 -92.007202368236335 0 0 1 1 0 0 forward_v I I I I #
coedge $-1 $307 $308 $309 $310 forward $125 $-1 #
face $-1 $-1 $311 $69 $-1 $312 forward single #
loop $-1 $-1 $313 $127 #
plane-surface $-1 0 0 -1.7189779351176488 0 0 -1 -1 0 0 forward_v I I I I #
loop $-1 $-1 $314 $89 #
coedge $-1 $205 $205 $313 $315 reversed $128 $-1 #
face $-1 $-1 $316 $70 $-1 $317 forward single #
loop $-1 $-1 $318 $130 #
plane-surface $-1 0 0 -1.7189779351176488 0 0 -1 -1 0 0 forward_v I I I I #
loop $-1 $-1 $319 $90 #
coedge $-1 $210 $210 $318 $320 reversed $131 $-1 #
face $-1 $-1 $321 $71 $-1 $322 forward single #
loop $-1 $-1 $323 $133 #
plane-surface $-1 0 0 -1.7189779351176488 0 0 -1 -1 0 0 forward_v I I I I #
loop $-1 $-1 $324 $91 #
coedge $-1 $215 $215 $323 $325 reversed $134 $-1 #
face $-1 $326 $327 $72 $-1 $328 reversed single #
loop $-1 $-1 $329 $136 #
plane-surface $-1 0 0 -92.007202368236335 0 0 1 1 0 0 forward_v I I I I #
coedge $-1 $330 $331 $332 $333 forward $137 $-1 #
face $-1 $-1 $334 $73 $-1 $335 forward single #
loop $-1 $-1 $336 $139 #
plane-surface $-1 0 0 -1.7189779351176488 0 0 -1 -1 0 0 forward_v I I I I #
loop $-1 $-1 $337 $93 #
coedge $-1 $224 $224 $336 $338 reversed $140 $-1 #
face $-1 $-1 $339 $74 $-1 $340 forward single #
loop $-1 $-1 $341 $142 #
plane-surface $-1 0 0 -1.7189779351176488 0 0 -1 -1 0 0 forward_v I I I I #
loop $-1 $-1 $342 $94 #
coedge $-1 $229 $229 $341 $343 reversed $143 $-1 #
face $-1 $-1 $344 $75 $-1 $345 forward single #
loop $-1 $-1 $346 $145 #
plane-surface $-1 0 0 -1.7189779351176488 0 0 -1 -1 0 0 forward_v I I I I #
loop $-1 $-1 $347 $95 #
coedge $-1 $234 $234 $346 $348 reversed $146 $-1 #
face $-1 $349 $350 $76 $-1 $351 reversed single #
loop $-1 $-1 $352 $148 #
plane-surface $-1 0 0 -92.007202368236335 0 0 1 1 0 0 forward_v I I I I #
coedge $-1 $353 $354 $355 $356 forward $149 $-1 #
face $-1 $-1 $357 $77 $-1 $358 forward single #
loop $-1 $-1 $359 $151 #
plane-surface $-1 0 0 -1.7189779351176488 0 0 -1 -1 0 0 forward_v I I I I #
loop $-1 $-1 $360 $97 #
coedge $-1 $243 $243 $359 $361 reversed $152 $-1 #
face $-1 $-1 $362 $78 $-1 $363 forward single #
loop $-1 $-1 $364 $154 #
plane-surface $-1 0 0 -1.7189779351176488 0 0 -1 -1 0 0 forward_v I I I I #
loop $-1 $-1 $365 $98 #
coedge $-1 $248 $248 $364 $366 reversed $155 $-1 #
face $-1 $-1 $367 $79 $-1 $368 forward single #
loop $-1 $-1 $369 $157 #
plane-surface $-1 0 0 -1.7189779351176488 0 0 -1 -1 0 0 forward_v I I I I #
loop $-1 $-1 $370 $99 #
coedge $-1 $253 $253 $369 $371 reversed $158 $-1 #
face $-1 $372 $373 $60 $-1 $374 reversed single #
loop $-1 $-1 $375 $160 #
plane-surface $-1 0 -20.433253322966884 0 0 1 0 0 0 1 forward_v I I I I #
coedge $-1 $376 $377 $378 $379 forward $161 $-1 #
coedge $-1 $380 $163 $381 $382 forward $101 $-1 #
coedge $-1 $163 $380 $383 $384 forward $101 $-1 #
coedge $-1 $385 $386 $163 $261 reversed $387 $-1 #
edge $-1 $388 -20.433253322966884 $389 20.433253322966884 $260 $390 forward 7 unknown #
face $-1 $391 $392 $61 $-1 $393 reversed single #
loop $-1 $-1 $394 $164 #
plane-surface $-1 0 -3.8831982808082985 0 0 1 0 0 0 1 forward_v I I I I #
coedge $-1 $395 $396 $397 $398 forward $165 $-1 #
coedge $-1 $399 $167 $400 $401 forward $104 $-1 #
coedge $-1 $167 $399 $402 $403 forward $104 $-1 #
coedge $-1 $404 $405 $167 $269 reversed $406 $-1 #
edge $-1 $407 -3.8831982808082985 $408 3.8831982808082985 $268 $409 forward 7 unknown #
loop $-1 $410 $411 $168 #
cone-surface $-1 0 0 0 0 0 1 0.5 0 0 1 I I -0.70710678118654746 0.70710678118654746 0.5 forward I I I I #
coedge $-1 $272 $272 $172 $274 forward $169 $-1 #
coedge $-1 $273 $273 $411 $412 forward $171 $-1 #
edge $-1 $413 0 $413 6.2831853071796004 $272 $414 forward 7 unknown #
loop $-1 $415 $416 $173 #
cone-surface $-1 0 0 0 0 0 1 0.5 0 0 1 I I -0.70710678118654746 0.70710678118654746 0.5 forward I I I I #
coedge $-1 $277 $277 $177 $279 forward $174 $-1 #
coedge $-1 $278 $278 $416 $417 forward $176 $-1 #
edge $-1 $418 0 $418 6.2831853071796004 $277 $419 forward 7 unknown #
face $-1 $420 $421 $64 $-1 $422 reversed single #
loop $-1 $-1 $423 $178 #
plane-surface $-1 0 -3.1013881795864764 0 0 1 0 0 0 1 forward_v I I I I #
coedge $-1 $424 $425 $426 $427 forward $179 $-1 #
coedge $-1 $428 $181 $429 $430 forward $113 $-1 #
coedge $-1 $181 $428 $431 $432 forward $113 $-1 #
coedge $-1 $433 $434 $181 $287 reversed $435 $-1 #
edge $-1 $436 -3.1013881795864764 $437 3.1013881795864764 $286 $438 forward 7 unknown #
loop $-1 $439 $440 $182 #
cone-surface $-1 0 0 0 0 0 1 0.25 0 0 1 I I -0.70710678118654746 0.70710678118654746 0.25 forward I I I I #
coedge $-1 $290 $290 $186 $292 forward $183 $-1 #
coedge $-1 $291 $291 $440 $441 forward $185 $-1 #
edge $-1 $442 0 $442 6.2831853071796004 $290 $443 forward 7 unknown #
loop $-1 $444 $445 $187 #
cone-surface $-1 0 0 0 0 0 1 0.25 0 0 1 I I -0.70710678118654746 0.70710678118654746 0.25 forward I I I I #
coedge $-1 $295 $295 $191 $297 forward $188 $-1 #
coedge $-1 $296 $296 $445 $446 forward $190 $-1 #
edge $-1 $447 0 $447 6.2831853071796004 $295 $448 forward 7 unknown #
loop $-1 $449 $450 $192 #
cone-surface $-1 0 0 0 0 0 1 0.25 0 0 1 I I -0.70710678118654746 0.70710678118654746 0.25 forward I I I I #
coedge $-1 $300 $300 $196 $302 forward $193 $-1 #
coedge $-1 $301 $301 $450 $451 forward $195 $-1 #
edge $-1 $452 0 $452 6.2831853071796004 $300 $453 forward 7 unknown #
face $-1 $454 $455 $68 $-1 $456 reversed single #
loop $-1 $-1 $457 $197 #
plane-surface $-1 0 -3.1013881795864764 0 0 1 0 0 0 1 forward_v I I I I #
coedge $-1 $458 $459 $460 $461 forward $198 $-1 #
coedge $-1 $462 $200 $463 $464 forward $125 $-1 #
coedge $-1 $200 $462 $465 $466 forward $125 $-1 #
coedge $-1 $467 $468 $200 $310 reversed $469 $-1 #
edge $-1 $470 -3.1013881795864764 $471 3.1013881795864764 $309 $472 forward 7 unknown #
loop $-1 $473 $474 $201 #
cone-surface $-1 0 0 0 0 0 1 0.25 0 0 1 I I -0.70710678118654746 0.70710678118654746 0.25 forward I I I I #
coedge $-1 $313 $313 $205 $315 forward $202 $-1 #
coedge $-1 $314 $314 $474 $475 forward $204 $-1 #
edge $-1 $476 0 $476 6.2831853071796004 $313 $477 forward 7 unknown #
loop $-1 $478 $479 $206 #
cone-surface $-1 0 0 0 0 0 1 0.25 0 0 1 I I -0.70710678118654746 0.70710678118654746 0.25 forward I I I I #
coedge $-1 $318 $318 $210 $320 forward $207 $-1 #
coedge $-1 $319 $319 $479 $480 forward $209 $-1 #
edge $-1 $481 0 $481 6.2831853071796004 $318 $482 forward 7 unknown #
loop $-1 $483 $484 $211 #
cone-surface $-1 0 0 0 0 0 1 0.25 0 0 1 I I -0.70710678118654746 0.70710678118654746 0.25 forward I I I I #
coedge $-1 $323 $323 $215 $325 forward $212 $-1 #
coedge $-1 $324 $324 $484 $485 forward $214 $-1 #
edge $-1 $486 0 $486 6.2831853071796004 $323 $487 forward 7 unknown #
face $-1 $488 $489 $72 $-1 $490 reversed single #
loop $-1 $-1 $491 $216 #
plane-surface $-1 0 -3.1013881795864764 0 0 1 0 0 0 1 forward_v I I I I #
coedge $-1 $492 $493 $494 $495 forward $217 $-1 #
coedge $-1 $496 $219 $497 $498 forward $137 $-1 #
coedge $-1 $219 $496 $499 $500 forward $137 $-1 #
coedge $-1 $501 $502 $219 $333 reversed $503 $-1 #
edge $-1 $504 -3.1013881795864764 $505 3.1013881795864764 $332 $506 forward 7 unknown #
loop $-1 $507 $508 $220 #
cone-surface $-1 0 0 0 0 0 1 0.25 0 0 1 I I -0.70710678118654746 0.70710678118654746 0.25 forward I I I I #
coedge $-1 $336 $336 $224 $338 forward $221 $-1 #
coedge $-1 $337 $337 $508 $509 forward $223 $-1 #
edge $-1 $510 0 $510 6.2831853071796004 $336 $511 forward 7 unknown #
loop $-1 $512 $513 $225 #
cone-surface $-1 0 0 0 0 0 1 0.25 0 0 1 I I -0.70710678118654746 0.70710678118654746 0.25 forward I I I I #
coedge $-1 $341 $341 $229 $343 forward $226 $-1 #
coedge $-1 $342 $342 $513 $514 forward $228 $-1 #
edge $-1 $515 0 $515 6.2831853071796004 $341 $516 forward 7 unknown #
loop $-1 $517 $518 $230 #
cone-surface $-1 0 0 0 0 0 1 0.25 0 0 1 I I -0.70710678118654746 0.70710678118654746 0.25 forward I I I I #
coedge $-1 $346 $346 $234 $348 forward $231 $-1 #
coedge $-1 $347 $347 $518 $519 forward $233 $-1 #
edge $-1 $520 0 $520 6.2831853071796004 $346 $521 forward 7 unknown #
face $-1 $522 $523 $76 $-1 $524 reversed single #
loop $-1 $-1 $525 $235 #
plane-surface $-1 0 -3.1013881795864764 0 0 1 0 0 0 1 forward_v I I I I #
coedge $-1 $526 $527 $528 $529 forward $236 $-1 #
coedge $-1 $530 $238 $531 $532 forward $149 $-1 #
coedge $-1 $238 $530 $533 $534 forward $149 $-1 #
coedge $-1 $535 $536 $238 $356 reversed $537 $-1 #
edge $-1 $538 -3.1013881795864764 $539 3.1013881795864764 $355 $540 forward 7 unknown #
loop $-1 $541 $542 $239 #
cone-surface $-1 0 0 0 0 0 1 0.25 0 0 1 I I -0.70710678118654746 0.70710678118654746 0.25 forward I I I I #
coedge $-1 $359 $359 $243 $361 forward $240 $-1 #
coedge $-1 $360 $360 $542 $543 forward $242 $-1 #
edge $-1 $544 0 $544 6.2831853071796004 $359 $545 forward 7 unknown #
loop $-1 $546 $547 $244 #
cone-surface $-1 0 0 0 0 0 1 0.25 0 0 1 I I -0.70710678118654746 0.70710678118654746 0.25 forward I I I I #
coedge $-1 $364 $364 $248 $366 forward $245 $-1 #
coedge $-1 $365 $365 $547 $548 forward $247 $-1 #
edge $-1 $549 0 $549 6.2831853071796004 $364 $550 forward 7 unknown #
loop $-1 $551 $552 $249 #
cone-surface $-1 0 0 0 0 0 1 0.25 0 0 1 I I -0.70710678118654746 0.70710678118654746 0.25 forward I I I I #
coedge $-1 $369 $369 $253 $371 forward $250 $-1 #
coedge $-1 $370 $370 $552 $553 forward $252 $-1 #
edge $-1 $554 0 $554 6.2831853071796004 $369 $555 forward 7 unknown #
face $-1 $556 $557 $60 $-1 $558 reversed single #
loop $-1 $-1 $559 $254 #
plane-surface $-1 -46.003601184118168 0 0 1 0 0 0 0 -1 forward_v I I I I #
coedge $-1 $560 $383 $561 $562 forward $255 $-1 #
coedge $-1 $563 $257 $560 $564 forward $161 $-1 #
coedge $-1 $257 $563 $565 $566 forward $161 $-1 #
coedge $-1 $386 $385 $257 $379 reversed $387 $-1 #
edge $-1 $567 -20.433253322966884 $568 20.433253322966884 $378 $569 forward 7 unknown #
coedge $-1 $259 $258 $570 $571 forward $101 $-1 #
coedge $-1 $572 $573 $258 $382 reversed $557 $-1 #
edge $-1 $389 -46.003601184118168 $574 46.003601184118168 $381 $575 forward 7 unknown #
coedge $-1 $375 $576 $259 $384 reversed $255 $-1 #
edge $-1 $577 -46.003601184118168 $388 46.003601184118168 $383 $578 forward 7 unknown #
coedge $-1 $378 $260 $576 $579 forward $387 $-1 #
coedge $-1 $260 $378 $572 $580 reversed $387 $-1 #
loop $-1 $-1 $385 $556 #
vertex $-1 $261 $581 #
vertex $-1 $261 $582 #
straight-curve $-1 46.003601184118168 0 9.1033270869879814 0 1 0 I I #
face $-1 $583 $584 $61 $-1 $585 reversed single #
loop $-1 $-1 $586 $262 #
plane-surface $-1 -184.01440473647267 0 0 1 0 0 0 0 -1 forward_v I I I I #
coedge $-1 $587 $402 $588 $589 forward $263 $-1 #
coedge $-1 $590 $265 $587 $591 forward $165 $-1 #
coedge $-1 $265 $590 $592 $593 forward $165 $-1 #
coedge $-1 $405 $404 $265 $398 reversed $406 $-1 #
edge $-1 $594 -3.8831982808082985 $595 3.8831982808082985 $397 $596 forward 7 unknown #
coedge $-1 $267 $266 $597 $598 forward $104 $-1 #
coedge $-1 $599 $600 $266 $401 reversed $584 $-1 #
edge $-1 $408 -184.01440473647267 $601 184.01440473647267 $400 $602 forward 7 unknown #
coedge $-1 $394 $603 $267 $403 reversed $263 $-1 #
edge $-1 $604 -184.01440473647267 $407 184.01440473647267 $402 $605 forward 7 unknown #
coedge $-1 $397 $268 $603 $606 forward $406 $-1 #
coedge $-1 $268 $397 $599 $607 reversed $406 $-1 #
loop $-1 $-1 $404 $583 #
vertex $-1 $269 $608 #
vertex $-1 $269 $609 #
straight-curve $-1 184.01440473647267 0 92.007202368236335 0 1 0 I I #
loop $-1 $-1 $610 $168 #
coedge $-1 $411 $411 $273 $412 reversed $270 $-1 #
edge $-1 $611 0 $611 6.2831853071796004 $411 $612 forward 7 unknown #
vertex $-1 $274 $613 #
ellipse-curve $-1 0 0 -2.7006591998046803 0 0 -1 1 0 0 1 I I #
loop $-1 $-1 $614 $173 #
coedge $-1 $416 $416 $278 $417 reversed $275 $-1 #
edge $-1 $615 0 $615 6.2831853071796004 $416 $616 forward 7 unknown #
vertex $-1 $279 $617 #
ellipse-curve $-1 0 0 -2.7006591998046803 0 0 -1 1 0 0 1 I I #
face $-1 $618 $619 $64 $-1 $620 reversed single #
loop $-1 $-1 $621 $280 #
plane-surface $-1 -184.01440473647267 0 0 1 0 0 0 0 -1 forward_v I I I I #
coedge $-1 $622 $431 $623 $624 forward $281 $-1 #
coedge $-1 $625 $283 $622 $626 forward $179 $-1 #
coedge $-1 $283 $625 $627 $628 forward $179 $-1 #
coedge $-1 $434 $433 $283 $427 reversed $435 $-1 #
edge $-1 $629 -3.1013881795864764 $630 3.1013881795864764 $426 $631 forward 7 unknown #
coedge $-1 $285 $284 $632 $633 forward $113 $-1 #
coedge $-1 $634 $635 $284 $430 reversed $619 $-1 #
edge $-1 $437 -184.01440473647267 $636 184.01440473647267 $429 $637 forward 7 unknown #
coedge $-1 $423 $638 $285 $432 reversed $281 $-1 #
edge $-1 $639 -184.01440473647267 $436 184.01440473647267 $431 $640 forward 7 unknown #
coedge $-1 $426 $286 $638 $641 forward $435 $-1 #
coedge $-1 $286 $426 $634 $642 reversed $435 $-1 #
loop $-1 $-1 $433 $618 #
vertex $-1 $287 $643 #
vertex $-1 $287 $644 #
straight-curve $-1 184.01440473647267 0 92.007202368236335 0 1 0 I I #
loop $-1 $-1 $645 $182 #
coedge $-1 $440 $440 $291 $441 reversed $288 $-1 #
edge $-1 $646 0 $646 6.2831853071796004 $440 $647 forward 7 unknown #
vertex $-1 $292 $648 #
ellipse-curve $-1 0 0 -1.7189779351176488 0 0 -1 0.5 0 0 1 I I #
loop $-1 $-1 $649 $187 #
coedge $-1 $445 $445 $296 $446 reversed $293 $-1 #
edge $-1 $650 0 $650 6.2831853071796004 $445 $651 forward 7 unknown #
vertex $-1 $297 $652 #
ellipse-curve $-1 0 0 -1.7189779351176488 0 0 -1 0.5 0 0 1 I I #
loop $-1 $-1 $653 $192 #
coedge $-1 $450 $450 $301 $451 reversed $298 $-1 #
edge $-1 $654 0 $654 6.2831853071796004 $450 $655 forward 7 unknown #
vertex $-1 $302 $656 #
ellipse-curve $-1 0 0 -1.7189779351176488 0 0 -1 0.5 0 0 1 I I #
face $-1 $657 $658 $68 $-1 $659 reversed single #
loop $-1 $-1 $660 $303 #
plane-surface $-1 -184.01440473647267 0 0 1 0 0 0 0 -1 forward_v I I I I #
coedge $-1 $661 $465 $662 $663 forward $304 $-1 #
coedge $-1 $664 $306 $661 $665 forward $198 $-1 #
coedge $-1 $306 $664 $666 $667 forward $198 $-1 #
coedge $-1 $468 $467 $306 $461 reversed $469 $-1 #
edge $-1 $668 -3.1013881795864764 $669 3.1013881795864764 $460 $670 forward 7 unknown #
coedge $-1 $308 $307 $671 $672 forward $125 $-1 #
coedge $-1 $673 $674 $307 $464 reversed $658 $-1 #
edge $-1 $471 -184.01440473647267 $675 184.01440473647267 $463 $676 forward 7 unknown #
coedge $-1 $457 $677 $308 $466 reversed $304 $-1 #
edge $-1 $678 -184.01440473647267 $470 184.01440473647267 $465 $679 forward 7 unknown #
coedge $-1 $460 $309 $677 $680 forward $469 $-1 #
coedge $-1 $309 $460 $673 $681 reversed $469 $-1 #
loop $-1 $-1 $467 $657 #
vertex $-1 $310 $682 #
vertex $-1 $310 $683 #
straight-curve $-1 184.01440473647267 0 92.007202368236335 0 1 0 I I #
loop $-1 $-1 $684 $201 #
coedge $-1 $474 $474 $314 $475 reversed $311 $-1 #
edge $-1 $685 0 $685 6.2831853071796004 $474 $686 forward 7 unknown #
vertex $-1 $315 $687 #
ellipse-curve $-1 0 0 -1.7189779351176488 0 0 -1 0.5 0 0 1 I I #
loop $-1 $-1 $688 $206 #
coedge $-1 $479 $479 $319 $480 reversed $316 $-1 #
edge $-1 $689 0 $689 6.2831853071796004 $479 $690 forward 7 unknown #
vertex $-1 $320 $691 #
ellipse-curve $-1 0 0 -1.7189779351176488 0 0 -1 0.5 0 0 1 I I #
loop $-1 $-1 $692 $211 #
coedge $-1 $484 $484 $324 $485 reversed $321 $-1 #
edge $-1 $693 0 $693 6.2831853071796004 $484 $694 forward 7 unknown #
vertex $-1 $325 $695 #
ellipse-curve $-1 0 0 -1.7189779351176488 0 0 -1 0.5 0 0 1 I I #
face $-1 $696 $697 $72 $-1 $698 reversed single #
loop $-1 $-1 $699 $326 #
plane-surface $-1 -184.01440473647267 0 0 1 0 0 0 0 -1 forward_v I I I I #
coedge $-1 $700 $499 $701 $702 forward $327 $-1 #
coedge $-1 $703 $329 $700 $704 forward $217 $-1 #
coedge $-1 $329 $703 $705 $706 forward $217 $-1 #
coedge $-1 $502 $501 $329 $495 reversed $503 $-1 #
edge $-1 $707 -3.1013881795864764 $708 3.1013881795864764 $494 $709 forward 7 unknown #
coedge $-1 $331 $330 $710 $711 forward $137 $-1 #
coedge $-1 $712 $713 $330 $498 reversed $697 $-1 #
edge $-1 $505 -184.01440473647267 $714 184.01440473647267 $497 $715 forward 7 unknown #
coedge $-1 $491 $716 $331 $500 reversed $327 $-1 #
edge $-1 $717 -184.01440473647267 $504 184.01440473647267 $499 $718 forward 7 unknown #
coedge $-1 $494 $332 $716 $719 forward $503 $-1 #
coedge $-1 $332 $494 $712 $720 reversed $503 $-1 #
loop $-1 $-1 $501 $696 #
vertex $-1 $333 $721 #
vertex $-1 $333 $722 #
straight-curve $-1 184.01440473647267 0 92.007202368236335 0 1 0 I I #
loop $-1 $-1 $723 $220 #
coedge $-1 $508 $508 $337 $509 reversed $334 $-1 #
edge $-1 $724 0 $724 6.2831853071796004 $508 $725 forward 7 unknown #
vertex $-1 $338 $726 #
ellipse-curve $-1 0 0 -1.7189779351176488 0 0 -1 0.5 0 0 1 I I #
loop $-1 $-1 $727 $225 #
coedge $-1 $513 $513 $342 $514 reversed $339 $-1 #
edge $-1 $728 0 $728 6.2831853071796004 $513 $729 forward 7 unknown #
vertex $-1 $343 $730 #
ellipse-curve $-1 0 0 -1.7189779351176488 0 0 -1 0.5 0 0 1 I I #
loop $-1 $-1 $731 $230 #
coedge $-1 $518 $518 $347 $519 reversed $344 $-1 #
edge $-1 $732 0 $732 6.2831853071796004 $518 $733 forward 7 unknown #
vertex $-1 $348 $734 #
ellipse-curve $-1 0 0 -1.7189779351176488 0 0 -1 0.5 0 0 1 I I #
face $-1 $735 $736 $76 $-1 $737 reversed single #
loop $-1 $-1 $738 $349 #
plane-surface $-1 -184.01440473647267 0 0 1 0 0 0 0 -1 forward_v I I I I #
coedge $-1 $739 $533 $740 $741 forward $350 $-1 #
coedge $-1 $742 $352 $739 $743 forward $236 $-1 #
coedge $-1 $352 $742 $744 $745 forward $236 $-1 #
coedge $-1 $536 $535 $352 $529 reversed $537 $-1 #
edge $-1 $746 -3.1013881795864764 $747 3.1013881795864764 $528 $748 forward 7 unknown #
coedge $-1 $354 $353 $749 $750 forward $149 $-1 #
coedge $-1 $751 $752 $353 $532 reversed $736 $-1 #
edge $-1 $539 -184.01440473647267 $753 184.01440473647267 $531 $754 forward 7 unknown #
coedge $-1 $525 $755 $354 $534 reversed $350 $-1 #
edge $-1 $756 -184.01440473647267 $538 184.01440473647267 $533 $757 forward 7 unknown #
coedge $-1 $528 $355 $755 $758 forward $537 $-1 #
coedge $-1 $355 $528 $751 $759 reversed $537 $-1 #
loop $-1 $-1 $535 $735 #
vertex $-1 $356 $760 #
vertex $-1 $356 $761 #
straight-curve $-1 184.01440473647267 0 92.007202368236335 0 1 0 I I #
loop $-1 $-1 $762 $239 #
coedge $-1 $542 $542 $360 $543 reversed $357 $-1 #
edge $-1 $763 0 $763 6.2831853071796004 $542 $764 forward 7 unknown #
vertex $-1 $361 $765 #
ellipse-curve $-1 0 0 -1.7189779351176488 0 0 -1 0.5 0 0 1 I I #
loop $-1 $-1 $766 $244 #
coedge $-1 $547 $547 $365 $548 reversed $362 $-1 #
edge $-1 $767 0 $767 6.2831853071796004 $547 $768 forward 7 unknown #
vertex $-1 $366 $769 #
ellipse-curve $-1 0 0 -1.7189779351176488 0 0 -1 0.5 0 0 1 I I #
loop $-1 $-1 $770 $249 #
coedge $-1 $552 $552 $370 $553 reversed $367 $-1 #
edge $-1 $771 0 $771 6.2831853071796004 $552 $772 forward 7 unknown #
vertex $-1 $371 $773 #
ellipse-curve $-1 0 0 -1.7189779351176488 0 0 -1 0.5 0 0 1 I I #
face $-1 $-1 $387 $60 $-1 $774 reversed single #
loop $-1 $-1 $572 $372 #
plane-surface $-1 0 20.433253322966884 0 0 -1 0 0 0 -1 forward_v I I I I #
coedge $-1 $775 $570 $573 $776 forward $373 $-1 #
coedge $-1 $576 $375 $376 $564 reversed $255 $-1 #
coedge $-1 $570 $775 $375 $562 reversed $373 $-1 #
edge $-1 $577 -9.1033270869879814 $777 9.1033270869879814 $561 $778 forward 7 unknown #
coedge $-1 $377 $376 $775 $779 forward $161 $-1 #
edge $-1 $568 -46.003601184118168 $777 46.003601184118168 $560 $780 forward 7 unknown #
coedge $-1 $573 $572 $377 $566 reversed $557 $-1 #
edge $-1 $781 -46.003601184118168 $567 46.003601184118168 $565 $782 forward 7 unknown #
vertex $-1 $379 $783 #
vertex $-1 $579 $784 #
straight-curve $-1 46.003601184118168 0 -9.1033270869879814 0 -1 0 I I #
coedge $-1 $559 $561 $380 $571 reversed $373 $-1 #
edge $-1 $574 -20.433253322966884 $577 20.433253322966884 $570 $785 forward 7 unknown #
coedge $-1 $565 $381 $386 $580 forward $557 $-1 #
coedge $-1 $381 $565 $559 $776 reversed $557 $-1 #
vertex $-1 $382 $786 #
straight-curve $-1 0 20.433253322966884 9.1033270869879814 -1 0 0 I I #
coedge $-1 $383 $560 $385 $579 reversed $255 $-1 #
vertex $-1 $571 $787 #
straight-curve $-1 0 -20.433253322966884 9.1033270869879814 1 0 0 I I #
edge $-1 $388 -9.1033270869879814 $568 9.1033270869879814 $385 $788 forward 7 unknown #
edge $-1 $389 -9.1033270869879814 $567 9.1033270869879814 $386 $789 forward 7 unknown #
point $-1 46.003601184118168 -20.433253322966884 9.1033270869879814 #
point $-1 46.003601184118168 20.433253322966884 9.1033270869879814 #
face $-1 $-1 $406 $61 $-1 $790 reversed single #
loop $-1 $-1 $599 $391 #
plane-surface $-1 0 3.8831982808082985 0 0 -1 0 0 0 -1 forward_v I I I I #
coedge $-1 $791 $597 $600 $792 forward $392 $-1 #
coedge $-1 $603 $394 $395 $591 reversed $263 $-1 #
coedge $-1 $597 $791 $394 $589 reversed $392 $-1 #
edge $-1 $604 -92.007202368236335 $793 92.007202368236335 $588 $794 forward 7 unknown #
coedge $-1 $396 $395 $791 $795 forward $165 $-1 #
edge $-1 $595 -184.01440473647267 $793 184.01440473647267 $587 $796 forward 7 unknown #
coedge $-1 $600 $599 $396 $593 reversed $584 $-1 #
edge $-1 $797 -184.01440473647267 $594 184.01440473647267 $592 $798 forward 7 unknown #
vertex $-1 $398 $799 #
vertex $-1 $606 $800 #
straight-curve $-1 184.01440473647267 0 -92.007202368236335 0 -1 0 I I #
coedge $-1 $586 $588 $399 $598 reversed $392 $-1 #
edge $-1 $601 -3.8831982808082985 $604 3.8831982808082985 $597 $801 forward 7 unknown #
coedge $-1 $592 $400 $405 $607 forward $584 $-1 #
coedge $-1 $400 $592 $586 $792 reversed $584 $-1 #
vertex $-1 $401 $802 #
straight-curve $-1 0 3.8831982808082985 92.007202368236335 -1 0 0 I I #
coedge $-1 $402 $587 $404 $606 reversed $263 $-1 #
vertex $-1 $598 $803 #
straight-curve $-1 0 -3.8831982808082985 92.007202368236335 1 0 0 I I #
edge $-1 $407 -92.007202368236335 $595 92.007202368236335 $404 $804 forward 7 unknown #
edge $-1 $408 -92.007202368236335 $594 92.007202368236335 $405 $805 forward 7 unknown #
point $-1 184.01440473647267 -3.8831982808082985 92.007202368236335 #
point $-1 184.01440473647267 3.8831982808082985 92.007202368236335 #
coedge $-1 $610 $610 $-1 $806 reversed $410 $-1 #
vertex $-1 $412 $807 #
ellipse-curve $-1 0 0 -0.5 0 0 -1 1 0 0 1 I I #
point $-1 1 0 -2.7006591998046803 #
coedge $-1 $614 $614 $-1 $808 reversed $415 $-1 #
vertex $-1 $417 $809 #
ellipse-curve $-1 0 0 -0.5 0 0 -1 1 0 0 1 I I #
point $-1 1 0 -2.7006591998046803 #
face $-1 $-1 $435 $64 $-1 $810 reversed single #
loop $-1 $-1 $634 $420 #
plane-surface $-1 0 3.1013881795864764 0 0 -1 0 0 0 -1 forward_v I I I I #
coedge $-1 $811 $632 $635 $812 forward $421 $-1 #
coedge $-1 $638 $423 $424 $626 reversed $281 $-1 #
coedge $-1 $632 $811 $423 $624 reversed $421 $-1 #
edge $-1 $639 -92.007202368236335 $813 92.007202368236335 $623 $814 forward 7 unknown #
coedge $-1 $425 $424 $811 $815 forward $179 $-1 #
edge $-1 $630 -184.01440473647267 $813 184.01440473647267 $622 $816 forward 7 unknown #
coedge $-1 $635 $634 $425 $628 reversed $619 $-1 #
edge $-1 $817 -184.01440473647267 $629 184.01440473647267 $627 $818 forward 7 unknown #
vertex $-1 $427 $819 #
vertex $-1 $641 $820 #
straight-curve $-1 184.01440473647267 0 -92.007202368236335 0 -1 0 I I #
coedge $-1 $621 $623 $428 $633 reversed $421 $-1 #
edge $-1 $636 -3.1013881795864764 $639 3.1013881795864764 $632 $821 forward 7 unknown #
coedge $-1 $627 $429 $434 $642 forward $619 $-1 #
coedge $-1 $429 $627 $621 $812 reversed $619 $-1 #
vertex $-1 $430 $822 #
straight-curve $-1 0 3.1013881795864764 92.007202368236335 -1 0 0 I I #
coedge $-1 $431 $622 $433 $641 reversed $281 $-1 #
vertex $-1 $633 $823 #
straight-curve $-1 0 -3.1013881795864764 92.007202368236335 1 0 0 I I #
edge $-1 $436 -92.007202368236335 $630 92.007202368236335 $433 $824 forward 7 unknown #
edge $-1 $437 -92.007202368236335 $629 92.007202368236335 $434 $825 forward 7 unknown #
point $-1 184.01440473647267 -3.1013881795864764 92.007202368236335 #
point $-1 184.01440473647267 3.1013881795864764 92.007202368236335 #
coedge $-1 $645 $645 $-1 $826 reversed $439 $-1 #
vertex $-1 $441 $827 #
ellipse-curve $-1 0 0 -0.25 0 0 -1 0.5 0 0 1 I I #
point $-1 0.5 0 -1.7189779351176488 #
coedge $-1 $649 $649 $-1 $828 reversed $444 $-1 #
vertex $-1 $446 $829 #
ellipse-curve $-1 0 0 -0.25 0 0 -1 0.5 0 0 1 I I #
point $-1 0.5 0 -1.7189779351176488 #
coedge $-1 $653 $653 $-1 $830 reversed $449 $-1 #
vertex $-1 $451 $831 #
ellipse-curve $-1 0 0 -0.25 0 0 -1 0.5 0 0 1 I I #
point $-1 0.5 0 -1.7189779351176488 #
face $-1 $-1 $469 $68 $-1 $832 reversed single #
loop $-1 $-1 $673 $454 #
plane-surface $-1 0 3.1013881795864764 0 0 -1 0 0 0 -1 forward_v I I I I #
coedge $-1 $833 $671 $674 $834 forward $455 $-1 #
coedge $-1 $677 $457 $458 $665 reversed $304 $-1 #
coedge $-1 $671 $833 $457 $663 reversed $455 $-1 #
edge $-1 $678 -92.007202368236335 $835 92.007202368236335 $662 $836 forward 7 unknown #
coedge $-1 $459 $458 $833 $837 forward $198 $-1 #
edge $-1 $669 -184.01440473647267 $835 184.01440473647267 $661 $838 forward 7 unknown #
coedge $-1 $674 $673 $459 $667 reversed $658 $-1 #
edge $-1 $839 -184.01440473647267 $668 184.01440473647267 $666 $840 forward 7 unknown #
vertex $-1 $461 $841 #
vertex $-1 $680 $842 #
straight-curve $-1 184.01440473647267 0 -92.007202368236335 0 -1 0 I I #
coedge $-1 $660 $662 $462 $672 reversed $455 $-1 #
edge $-1 $675 -3.1013881795864764 $678 3.1013881795864764 $671 $843 forward 7 unknown #
coedge $-1 $666 $463 $468 $681 forward $658 $-1 #
coedge $-1 $463 $666 $660 $834 reversed $658 $-1 #
vertex $-1 $464 $844 #
straight-curve $-1 0 3.1013881795864764 92.007202368236335 -1 0 0 I I #
coedge $-1 $465 $661 $467 $680 reversed $304 $-1 #
vertex $-1 $672 $845 #
straight-curve $-1 0 -3.1013881795864764 92.007202368236335 1 0 0 I I #
edge $-1 $470 -92.007202368236335 $669 92.007202368236335 $467 $846 forward 7 unknown #
edge $-1 $471 -92.007202368236335 $668 92.007202368236335 $468 $847 forward 7 unknown #
point $-1 184.01440473647267 -3.1013881795864764 92.007202368236335 #
point $-1 184.01440473647267 3.1013881795864764 92.007202368236335 #
coedge $-1 $684 $684 $-1 $848 reversed $473 $-1 #
vertex $-1 $475 $849 #
ellipse-curve $-1 0 0 -0.25 0 0 -1 0.5 0 0 1 I I #
point $-1 0.5 0 -1.7189779351176488 #
coedge $-1 $688 $688 $-1 $850 reversed $478 $-1 #
vertex $-1 $480 $851 #
ellipse-curve $-1 0 0 -0.25 0 0 -1 0.5 0 0 1 I I #
point $-1 0.5 0 -1.7189779351176488 #
coedge $-1 $692 $692 $-1 $852 reversed $483 $-1 #
vertex $-1 $485 $853 #
ellipse-curve $-1 0 0 -0.25 0 0 -1 0.5 0 0 1 I I #
point $-1 0.5 0 -1.7189779351176488 #
face $-1 $-1 $503 $72 $-1 $854 reversed single #
loop $-1 $-1 $712 $488 #
plane-surface $-1 0 3.1013881795864764 0 0 -1 0 0 0 -1 forward_v I I I I #
coedge $-1 $855 $710 $713 $856 forward $489 $-1 #
coedge $-1 $716 $491 $492 $704 reversed $327 $-1 #
coedge $-1 $710 $855 $491 $702 reversed $489 $-1 #
edge $-1 $717 -92.007202368236335 $857 92.007202368236335 $701 $858 forward 7 unknown #
coedge $-1 $493 $492 $855 $859 forward $217 $-1 #
edge $-1 $708 -184.01440473647267 $857 184.01440473647267 $700 $860 forward 7 unknown #
coedge $-1 $713 $712 $493 $706 reversed $697 $-1 #
edge $-1 $861 -184.01440473647267 $707 184.01440473647267 $705 $862 forward 7 unknown #
vertex $-1 $495 $863 #
vertex $-1 $719 $864 #
straight-curve $-1 184.01440473647267 0 -92.007202368236335 0 -1 0 I I #
coedge $-1 $699 $701 $496 $711 reversed $489 $-1 #
edge $-1 $714 -3.1013881795864764 $717 3.1013881795864764 $710 $865 forward 7 unknown #
coedge $-1 $705 $497 $502 $720 forward $697 $-1 #
coedge $-1 $497 $705 $699 $856 reversed $697 $-1 #
vertex $-1 $498 $866 #
straight-curve $-1 0 3.1013881795864764 92.007202368236335 -1 0 0 I I #
coedge $-1 $499 $700 $501 $719 reversed $327 $-1 #
vertex $-1 $711 $867 #
straight-curve $-1 0 -3.1013881795864764 92.007202368236335 1 0 0 I I #
edge $-1 $504 -92.007202368236335 $708 92.007202368236335 $501 $868 forward 7 unknown #
edge $-1 $505 -92.007202368236335 $707 92.007202368236335 $502 $869 forward 7 unknown #
point $-1 184.01440473647267 -3.1013881795864764 92.007202368236335 #
point $-1 184.01440473647267 3.1013881795864764 92.007202368236335 #
coedge $-1 $723 $723 $-1 $870 reversed $507 $-1 #
vertex $-1 $509 $871 #
ellipse-curve $-1 0 0 -0.25 0 0 -1 0.5 0 0 1 I I #
point $-1 0.5 0 -1.7189779351176488 #
coedge $-1 $727 $727 $-1 $872 reversed $512 $-1 #
vertex $-1 $514 $873 #
ellipse-curve $-1 0 0 -0.25 0 0 -1 0.5 0 0 1 I I #
point $-1 0.5 0 -1.7189779351176488 #
coedge $-1 $731 $731 $-1 $874 reversed $517 $-1 #
vertex $-1 $519 $875 #
ellipse-curve $-1 0 0 -0.25 0 0 -1 0.5 0 0 1 I I #
point $-1 0.5 0 -1.7189779351176488 #
face $-1 $-1 $537 $76 $-1 $876 reversed single #
loop $-1 $-1 $751 $522 #
plane-surface $-1 0 3.1013881795864764 0 0 -1 0 0 0 -1 forward_v I I I I #
coedge $-1 $877 $749 $752 $878 forward $523 $-1 #
coedge $-1 $755 $525 $526 $743 reversed $350 $-1 #
coedge $-1 $749 $877 $525 $741 reversed $523 $-1 #
edge $-1 $756 -92.007202368236335 $879 92.007202368236335 $740 $880 forward 7 unknown #
coedge $-1 $527 $526 $877 $881 forward $236 $-1 #
edge $-1 $747 -184.01440473647267 $879 184.01440473647267 $739 $882 forward 7 unknown #
coedge $-1 $752 $751 $527 $745 reversed $736 $-1 #
edge $-1 $883 -184.01440473647267 $746 184.01440473647267 $744 $884 forward 7 unknown #
vertex $-1 $529 $885 #
vertex $-1 $758 $886 #
straight-curve $-1 184.01440473647267 0 -92.007202368236335 0 -1 0 I I #
coedge $-1 $738 $740 $530 $750 reversed $523 $-1 #
edge $-1 $753 -3.1013881795864764 $756 3.1013881795864764 $749 $887 forward 7 unknown #
coedge $-1 $744 $531 $536 $759 forward $736 $-1 #
coedge $-1 $531 $744 $738 $878 reversed $736 $-1 #
vertex $-1 $532 $888 #
straight-curve $-1 0 3.1013881795864764 92.007202368236335 -1 0 0 I I #
coedge $-1 $533 $739 $535 $758 reversed $350 $-1 #
vertex $-1 $750 $889 #
straight-curve $-1 0 -3.1013881795864764 92.007202368236335 1 0 0 I I #
edge $-1 $538 -92.007202368236335 $747 92.007202368236335 $535 $890 forward 7 unknown #
edge $-1 $539 -92.007202368236335 $746 92.007202368236335 $536 $891 forward 7 unknown #
point $-1 184.01440473647267 -3.1013881795864764 92.007202368236335 #
point $-1 184.01440473647267 3.1013881795864764 92.007202368236335 #
coedge $-1 $762 $762 $-1 $892 reversed $541 $-1 #
vertex $-1 $543 $893 #
ellipse-curve $-1 0 0 -0.25 0 0 -1 0.5 0 0 1 I I #
point $-1 0.5 0 -1.7189779351176488 #
coedge $-1 $766 $766 $-1 $894 reversed $546 $-1 #
vertex $-1 $548 $895 #
ellipse-curve $-1 0 0 -0.25 0 0 -1 0.5 0 0 1 I I #
point $-1 0.5 0 -1.7189779351176488 #
coedge $-1 $770 $770 $-1 $896 reversed $551 $-1 #
vertex $-1 $553 $897 #
ellipse-curve $-1 0 0 -0.25 0 0 -1 0.5 0 0 1 I I #
point $-1 0.5 0 -1.7189779351176488 #
plane-surface $-1 46.003601184118168 0 0 -1 0 0 0 0 1 forward_v I I I I #
coedge $-1 $561 $559 $563 $779 reversed $373 $-1 #
edge $-1 $574 -9.1033270869879814 $781 9.1033270869879814 $573 $898 forward 7 unknown #
vertex $-1 $779 $899 #
straight-curve $-1 -46.003601184118168 -20.433253322966884 0 0 0 -1 I I #
edge $-1 $777 -20.433253322966884 $781 20.433253322966884 $775 $900 forward 7 unknown #
straight-curve $-1 0 -20.433253322966884 -9.1033270869879814 -1 0 0 I I #
vertex $-1 $566 $901 #
straight-curve $-1 0 20.433253322966884 -9.1033270869879814 1 0 0 I I #
point $-1 46.003601184118168 20.433253322966884 -9.1033270869879814 #
point $-1 46.003601184118168 -20.433253322966884 -9.1033270869879814 #
straight-curve $-1 -46.003601184118168 0 9.1033270869879814 0 -1 0 I I #
point $-1 -46.003601184118168 20.433253322966884 9.1033270869879814 #
point $-1 -46.003601184118168 -20.433253322966884 9.1033270869879814 #
straight-curve $-1 46.003601184118168 -20.433253322966884 0 0 0 -1 I I #
straight-curve $-1 46.003601184118168 20.433253322966884 0 0 0 -1 I I #
plane-surface $-1 184.01440473647267 0 0 -1 0 0 0 0 1 forward_v I I I I #
coedge $-1 $588 $586 $590 $795 reversed $392 $-1 #
edge $-1 $601 -92.007202368236335 $797 92.007202368236335 $600 $902 forward 7 unknown #
vertex $-1 $795 $903 #
straight-curve $-1 -184.01440473647267 -3.8831982808082985 0 0 0 -1 I I #
edge $-1 $793 -3.8831982808082985 $797 3.8831982808082985 $791 $904 forward 7 unknown #
straight-curve $-1 0 -3.8831982808082985 -92.007202368236335 -1 0 0 I I #
vertex $-1 $593 $905 #
straight-curve $-1 0 3.8831982808082985 -92.007202368236335 1 0 0 I I #
point $-1 184.01440473647267 3.8831982808082985 -92.007202368236335 #
point $-1 184.01440473647267 -3.8831982808082985 -92.007202368236335 #
straight-curve $-1 -184.01440473647267 0 92.007202368236335 0 -1 0 I I #
point $-1 -184.01440473647267 3.8831982808082985 92.007202368236335 #
point $-1 -184.01440473647267 -3.8831982808082985 92.007202368236335 #
straight-curve $-1 184.01440473647267 -3.8831982808082985 0 0 0 -1 I I #
straight-curve $-1 184.01440473647267 3.8831982808082985 0 0 0 -1 I I #
edge $-1 $906 1 $906 0 $610 $-1 forward 7 unknown #
point $-1 1 0 -0.5 #
edge $-1 $907 1 $907 0 $614 $-1 forward 7 unknown #
point $-1 1 0 -0.5 #
plane-surface $-1 184.01440473647267 0 0 -1 0 0 0 0 1 forward_v I I I I #
coedge $-1 $623 $621 $625 $815 reversed $421 $-1 #
edge $-1 $636 -92.007202368236335 $817 92.007202368236335 $635 $908 forward 7 unknown #
vertex $-1 $815 $909 #
straight-curve $-1 -184.01440473647267 -3.1013881795864764 0 0 0 -1 I I #
edge $-1 $813 -3.1013881795864764 $817 3.1013881795864764 $811 $910 forward 7 unknown #
straight-curve $-1 0 -3.1013881795864764 -92.007202368236335 -1 0 0 I I #
vertex $-1 $628 $911 #
straight-curve $-1 0 3.1013881795864764 -92.007202368236335 1 0 0 I I #
point $-1 184.01440473647267 3.1013881795864764 -92.007202368236335 #
point $-1 184.01440473647267 -3.1013881795864764 -92.007202368236335 #
straight-curve $-1 -184.01440473647267 0 92.007202368236335 0 -1 0 I I #
point $-1 -184.01440473647267 3.1013881795864764 92.007202368236335 #
point $-1 -184.01440473647267 -3.1013881795864764 92.007202368236335 #
straight-curve $-1 184.01440473647267 -3.1013881795864764 0 0 0 -1 I I #
straight-curve $-1 184.01440473647267 3.1013881795864764 0 0 0 -1 I I #
edge $-1 $912 1 $912 0 $645 $-1 forward 7 unknown #
point $-1 0.5 0 -0.25 #
edge $-1 $913 1 $913 0 $649 $-1 forward 7 unknown #
point $-1 0.5 0 -0.25 #
edge $-1 $914 1 $914 0 $653 $-1 forward 7 unknown #
point $-1 0.5 0 -0.25 #
plane-surface $-1 184.01440473647267 0 0 -1 0 0 0 0 1 forward_v I I I I #
coedge $-1 $662 $660 $664 $837 reversed $455 $-1 #
edge $-1 $675 -92.007202368236335 $839 92.007202368236335 $674 $915 forward 7 unknown #
vertex $-1 $837 $916 #
straight-curve $-1 -184.01440473647267 -3.1013881795864764 0 0 0 -1 I I #
edge $-1 $835 -3.1013881795864764 $839 3.1013881795864764 $833 $917 forward 7 unknown #
straight-curve $-1 0 -3.1013881795864764 -92.007202368236335 -1 0 0 I I #
vertex $-1 $667 $918 #
straight-curve $-1 0 3.1013881795864764 -92.007202368236335 1 0 0 I I #
point $-1 184.01440473647267 3.1013881795864764 -92.007202368236335 #
point $-1 184.01440473647267 -3.1013881795864764 -92.007202368236335 #
straight-curve $-1 -184.01440473647267 0 92.007202368236335 0 -1 0 I I #
point $-1 -184.01440473647267 3.1013881795864764 92.007202368236335 #
point $-1 -184.01440473647267 -3.1013881795864764 92.007202368236335 #
straight-curve $-1 184.01440473647267 -3.1013881795864764 0 0 0 -1 I I #
straight-curve $-1 184.01440473647267 3.1013881795864764 0 0 0 -1 I I #
edge $-1 $919 1 $919 0 $684 $-1 forward 7 unknown #
point $-1 0.5 0 -0.25 #
edge $-1 $920 1 $920 0 $688 $-1 forward 7 unknown #
point $-1 0.5 0 -0.25 #
edge $-1 $921 1 $921 0 $692 $-1 forward 7 unknown #
point $-1 0.5 0 -0.25 #
plane-surface $-1 184.01440473647267 0 0 -1 0 0 0 0 1 forward_v I I I I #
coedge $-1 $701 $699 $703 $859 reversed $489 $-1 #
edge $-1 $714 -92.007202368236335 $861 92.007202368236335 $713 $922 forward 7 unknown #
vertex $-1 $859 $923 #
straight-curve $-1 -184.01440473647267 -3.1013881795864764 0 0 0 -1 I I #
edge $-1 $857 -3.1013881795864764 $861 3.1013881795864764 $855 $924 forward 7 unknown #
straight-curve $-1 0 -3.1013881795864764 -92.007202368236335 -1 0 0 I I #
vertex $-1 $706 $925 #
straight-curve $-1 0 3.1013881795864764 -92.007202368236335 1 0 0 I I #
point $-1 184.01440473647267 3.1013881795864764 -92.007202368236335 #
point $-1 184.01440473647267 -3.1013881795864764 -92.007202368236335 #
straight-curve $-1 -184.01440473647267 0 92.007202368236335 0 -1 0 I I #
point $-1 -184.01440473647267 3.1013881795864764 92.007202368236335 #
point $-1 -184.01440473647267 -3.1013881795864764 92.007202368236335 #
straight-curve $-1 184.01440473647267 -3.1013881795864764 0 0 0 -1 I I #
straight-curve $-1 184.01440473647267 3.1013881795864764 0 0 0 -1 I I #
edge $-1 $926 1 $926 0 $723 $-1 forward 7 unknown #
point $-1 0.5 0 -0.25 #
edge $-1 $927 1 $927 0 $727 $-1 forward 7 unknown #
point $-1 0.5 0 -0.25 #
edge $-1 $928 1 $928 0 $731 $-1 forward 7 unknown #
point $-1 0.5 0 -0.25 #
plane-surface $-1 184.01440473647267 0 0 -1 0 0 0 0 1 forward_v I I I I #
coedge $-1 $740 $738 $742 $881 reversed $523 $-1 #
edge $-1 $753 -92.007202368236335 $883 92.007202368236335 $752 $929 forward 7 unknown #
vertex $-1 $881 $930 #
straight-curve $-1 -184.01440473647267 -3.1013881795864764 0 0 0 -1 I I #
edge $-1 $879 -3.1013881795864764 $883 3.1013881795864764 $877 $931 forward 7 unknown #
straight-curve $-1 0 -3.1013881795864764 -92.007202368236335 -1 0 0 I I #
vertex $-1 $745 $932 #
straight-curve $-1 0 3.1013881795864764 -92.007202368236335 1 0 0 I I #
point $-1 184.01440473647267 3.1013881795864764 -92.007202368236335 #
point $-1 184.01440473647267 -3.1013881795864764 -92.007202368236335 #
straight-curve $-1 -184.01440473647267 0 92.007202368236335 0 -1 0 I I #
point $-1 -184.01440473647267 3.1013881795864764 92.007202368236335 #
point $-1 -184.01440473647267 -3.1013881795864764 92.007202368236335 #
straight-curve $-1 184.01440473647267 -3.1013881795864764 0 0 0 -1 I I #
straight-curve $-1 184.01440473647267 3.1013881795864764 0 0 0 -1 I I #
edge $-1 $933 1 $933 0 $762 $-1 forward 7 unknown #
point $-1 0.5 0 -0.25 #
edge $-1 $934 1 $934 0 $766 $-1 forward 7 unknown #
point $-1 0.5 0 -0.25 #
edge $-1 $935 1 $935 0 $770 $-1 forward 7 unknown #
point $-1 0.5 0 -0.25 #
straight-curve $-1 -46.003601184118168 20.433253322966884 0 0 0 -1 I I #
point $-1 -46.003601184118168 -20.433253322966884 -9.1033270869879814 #
straight-curve $-1 -46.003601184118168 0 -9.1033270869879814 0 1 0 I I #
point $-1 -46.003601184118168 20.433253322966884 -9.1033270869879814 #
straight-curve $-1 -184.01440473647267 3.8831982808082985 0 0 0 -1 I I #
point $-1 -184.01440473647267 -3.8831982808082985 -92.007202368236335 #
straight-curve $-1 -184.01440473647267 0 -92.007202368236335 0 1 0 I I #
point $-1 -184.01440473647267 3.8831982808082985 -92.007202368236335 #
vertex $-1 $806 $936 #
vertex $-1 $808 $937 #
straight-curve $-1 -184.01440473647267 3.1013881795864764 0 0 0 -1 I I #
point $-1 -184.01440473647267 -3.1013881795864764 -92.007202368236335 #
straight-curve $-1 -184.01440473647267 0 -92.007202368236335 0 1 0 I I #
point $-1 -184.01440473647267 3.1013881795864764 -92.007202368236335 #
vertex $-1 $826 $938 #
vertex $-1 $828 $939 #
vertex $-1 $830 $940 #
straight-curve $-1 -184.01440473647267 3.1013881795864764 0 0 0 -1 I I #
point $-1 -184.01440473647267 -3.1013881795864764 -92.007202368236335 #
straight-curve $-1 -184.01440473647267 0 -92.007202368236335 0 1 0 I I #
point $-1 -184.01440473647267 3.1013881795864764 -92.007202368236335 #
vertex $-1 $848 $941 #
vertex $-1 $850 $942 #
vertex $-1 $852 $943 #
straight-curve $-1 -184.01440473647267 3.1013881795864764 0 0 0 -1 I I #
point $-1 -184.01440473647267 -3.1013881795864764 -92.007202368236335 #
straight-curve $-1 -184.01440473647267 0 -92.007202368236335 0 1 0 I I #
point $-1 -184.01440473647267 3.1013881795864764 -92.007202368236335 #
vertex $-1 $870 $944 #
vertex $-1 $872 $945 #
vertex $-1 $874 $946 #
straight-curve $-1 -184.01440473647267 3.1013881795864764 0 0 0 -1 I I #
point $-1 -184.01440473647267 -3.1013881795864764 -92.007202368236335 #
straight-curve $-1 -184.01440473647267 0 -92.007202368236335 0 1 0 I I #
point $-1 -184.01440473647267 3.1013881795864764 -92.007202368236335 #
vertex $-1 $892 $947 #
vertex $-1 $894 $948 #
vertex $-1 $896 $949 #
point $-1 0 0 0.5 #
point $-1 0 0 0.5 #
point $-1 0 0 0.25 #
point $-1 0 0 0.25 #
point $-1 0 0 0.25 #
point $-1 0 0 0.25 #
point $-1 0 0 0.25 #
point $-1 0 0 0.25 #
point $-1 0 0 0.25 #
point $-1 0 0 0.25 #
point $-1 0 0 0.25 #
point $-1 0 0 0.25 #
point $-1 0 0 0.25 #
point $-1 0 0 0.25 #
End-of-ACIS-data 