500 0 9 0           
7 Unknown 11 ACIS 5.0 NT 24 Thu Mar 25 18:27:29 1999 
-1 9.9999999999999995e-007 1e-010 
body $-1 $9 $-1 $10 #
body $-1 $11 $-1 $12 #
body $-1 $13 $-1 $14 #
body $-1 $15 $-1 $16 #
body $-1 $17 $-1 $18 #
body $-1 $19 $-1 $20 #
body $-1 $21 $-1 $22 #
body $-1 $23 $-1 $24 #
body $-1 $25 $-1 $26 #
lump $-1 $-1 $27 $0 #
transform $-1 1 0 0 0 1 0 0 0 1 77.546311838129824 43.283418106665479 17.440310096148369 1 rotate no_reflect no_shear #
lump $-1 $-1 $28 $1 #
transform $-1 1 0 0 0 1 0 0 0 1 77.546311838129824 43.283418106665479 17.440310096148369 1 rotate no_reflect no_shear #
lump $-1 $-1 $29 $2 #
transform $-1 1 0 0 0 1 0 0 0 1 77.546311838129824 43.283418106665479 17.440310096148369 1 rotate no_reflect no_shear #
lump $-1 $-1 $30 $3 #
transform $-1 1 0 0 0 1 0 0 0 1 77.546311838129824 43.283418106665479 17.440310096148369 1 rotate no_reflect no_shear #
lump $-1 $-1 $31 $4 #
transform $-1 1 0 0 0 1 0 0 0 1 77.546311838129824 43.283418106665479 17.440310096148369 1 rotate no_reflect no_shear #
lump $-1 $-1 $32 $5 #
transform $-1 1 0 0 0 1 0 0 0 1 77.546311838129824 43.283418106665479 17.440310096148369 1 rotate no_reflect no_shear #
lump $-1 $-1 $33 $6 #
transform $-1 1 0 0 0 1 0 0 0 1 77.546311838129824 43.283418106665479 17.440310096148369 1 rotate no_reflect no_shear #
lump $-1 $-1 $34 $7 #
transform $-1 1 0 0 0 1 0 0 0 1 77.546311838129824 43.283418106665479 17.440310096148369 1 rotate no_reflect no_shear #
lump $-1 $-1 $35 $8 #
transform $-1 1 0 0 0 1 0 0 0 1 77.546311838129824 43.283418106665479 17.440310096148369 1 rotate no_reflect no_shear #
shell $-1 $-1 $-1 $36 $-1 $9 #
shell $-1 $-1 $-1 $37 $-1 $11 #
shell $-1 $-1 $-1 $38 $-1 $13 #
shell $-1 $-1 $-1 $39 $-1 $15 #
shell $-1 $-1 $-1 $40 $-1 $17 #
shell $-1 $-1 $-1 $41 $-1 $19 #
shell $-1 $-1 $-1 $42 $-1 $21 #
shell $-1 $-1 $-1 $43 $-1 $23 #
shell $-1 $-1 $-1 $44 $-1 $25 #
face $-1 $45 $46 $27 $-1 $47 forward single #
face $-1 $48 $49 $28 $-1 $50 reversed single #
face $-1 $51 $52 $29 $-1 $53 reversed single #
face $-1 $54 $55 $30 $-1 $56 reversed single #
face $-1 $57 $58 $31 $-1 $59 forward single #
face $-1 $60 $61 $32 $-1 $62 forward single #
face $-1 $63 $64 $33 $-1 $65 reversed single #
face $-1 $66 $67 $34 $-1 $68 forward single #
face $-1 $69 $70 $35 $-1 $71 forward single #
face $-1 $72 $73 $27 $-1 $74 reversed single #
loop $-1 $-1 $75 $36 #
plane-surface $-1 0 0 17.440310096148369 0 0 1 1 0 0 forward_v I I I I #
face $-1 $76 $77 $28 $-1 $78 reversed single #
loop $-1 $-1 $79 $37 #
plane-surface $-1 0 -35.393523372900866 7.4266223588847744 0 0 1 1 0 0 forward_v I I I I #
face $-1 $80 $81 $29 $-1 $82 reversed single #
loop $-1 $-1 $83 $38 #
plane-surface $-1 0 35.393523372900873 7.4266223588847744 0 0 1 1 0 0 forward_v I I I I #
face $-1 $84 $85 $30 $-1 $86 reversed single #
loop $-1 $-1 $87 $39 #
plane-surface $-1 -207.61793186225589 -20.207338903735149 94.546907350523256 0 1 0 -0.83867057594974714 0 0.54463902268945019 forward_v I I I I #
face $-1 $88 $89 $31 $-1 $90 forward single #
loop $-1 $91 $92 $40 #
cone-surface $-1 -73.864361317621999 -16.83054757618785 12.920352829582949 0.83867057594974714 0 -0.54463902268945019 0.54463902268945019 0 0.83867057594974714 1 I I 0 1 1 forward I I I I #
face $-1 $93 $94 $32 $-1 $95 forward single #
loop $-1 $96 $97 $41 #
cone-surface $-1 -73.864361317621999 -11.765360584866908 12.920352829582949 0.83867057594974714 0 -0.54463902268945019 0.54463902268945019 0 0.83867057594974714 1 I I 0 1 1 forward I I I I #
face $-1 $98 $99 $33 $-1 $100 reversed single #
loop $-1 $-1 $101 $42 #
plane-surface $-1 -207.61793186225589 7.2962897354011123 94.546907350523256 0 1 0 -0.83867057594974714 0 0.54463902268945019 forward_v I I I I #
face $-1 $102 $103 $34 $-1 $104 forward single #
loop $-1 $105 $106 $43 #
cone-surface $-1 -73.864361317621999 10.673081062948405 12.920352829582949 0.83867057594974714 0 -0.54463902268945019 0.54463902268945019 0 0.83867057594974714 1 I I 0 1 1 forward I I I I #
face $-1 $107 $108 $35 $-1 $109 forward single #
loop $-1 $110 $111 $44 #
cone-surface $-1 -73.864361317621999 15.738268054269348 12.920352829582949 0.83867057594974714 0 -0.54463902268945019 0.54463902268945019 0 0.83867057594974714 1 I I 0 1 1 forward I I I I #
face $-1 $112 $113 $27 $-1 $114 reversed single #
loop $-1 $-1 $115 $45 #
plane-surface $-1 0 0 -17.440310096148369 0 0 1 1 0 0 forward_v I I I I #
coedge $-1 $116 $117 $118 $119 forward $46 $-1 #
face $-1 $120 $121 $28 $-1 $122 reversed single #
loop $-1 $-1 $123 $48 #
plane-surface $-1 0 -27.503628639136256 12.433466227516572 0 -1 0 0 0 -1 forward_v I I I I #
coedge $-1 $124 $125 $126 $127 reversed $49 $-1 #
face $-1 $128 $129 $29 $-1 $130 forward single #
loop $-1 $-1 $131 $51 #
plane-surface $-1 0 27.503628639136259 12.433466227516572 0 1 0 0 0 1 forward_v I I I I #
coedge $-1 $132 $133 $134 $135 reversed $52 $-1 #
face $-1 $136 $137 $30 $-1 $138 reversed single #
loop $-1 $-1 $139 $54 #
plane-surface $-1 -77.54631183812981 -14.297954080527383 10.077412365142521 -0.83867057594974714 0 0.54463902268945019 0.54463902268945019 0 0.83867057594974714 forward_v I I I I #
coedge $-1 $140 $141 $142 $143 reversed $55 $-1 #
face $-1 $-1 $144 $31 $-1 $145 forward single #
loop $-1 $146 $147 $57 #
cone-surface $-1 -72.153836279443055 -16.83054757618785 11.809524917175732 0.83867057594974714 0 -0.54463902268945019 0.2723195113447251 0 0.41933528797487357 1 I I -0.70710678118654746 0.70710678118654746 0.5 forward I I I I #
loop $-1 $-1 $148 $40 #
coedge $-1 $92 $92 $149 $150 reversed $58 $-1 #
face $-1 $-1 $151 $32 $-1 $152 forward single #
loop $-1 $153 $154 $60 #
cone-surface $-1 -72.153836279443055 -11.765360584866908 11.809524917175732 0.83867057594974714 0 -0.54463902268945019 0.2723195113447251 0 0.41933528797487357 1 I I -0.70710678118654746 0.70710678118654746 0.5 forward I I I I #
loop $-1 $-1 $155 $41 #
coedge $-1 $97 $97 $156 $157 reversed $61 $-1 #
face $-1 $158 $159 $33 $-1 $160 reversed single #
loop $-1 $-1 $161 $63 #
plane-surface $-1 -77.54631183812981 13.205674558608877 10.077412365142521 -0.83867057594974714 0 0.54463902268945019 0.54463902268945019 0 0.83867057594974714 forward_v I I I I #
coedge $-1 $162 $163 $164 $165 reversed $64 $-1 #
face $-1 $-1 $166 $34 $-1 $167 forward single #
loop $-1 $168 $169 $66 #
cone-surface $-1 -72.153836279443055 10.673081062948405 11.809524917175732 0.83867057594974714 0 -0.54463902268945019 0.2723195113447251 0 0.41933528797487357 1 I I -0.70710678118654746 0.70710678118654746 0.5 forward I I I I #
loop $-1 $-1 $170 $43 #
coedge $-1 $106 $106 $171 $172 reversed $67 $-1 #
face $-1 $-1 $173 $35 $-1 $174 forward single #
loop $-1 $175 $176 $69 #
cone-surface $-1 -72.153836279443055 15.738268054269348 11.809524917175732 0.83867057594974714 0 -0.54463902268945019 0.2723195113447251 0 0.41933528797487357 1 I I -0.70710678118654746 0.70710678118654746 0.5 forward I I I I #
loop $-1 $-1 $177 $44 #
coedge $-1 $111 $111 $178 $179 reversed $70 $-1 #
face $-1 $180 $181 $27 $-1 $182 reversed single #
loop $-1 $-1 $183 $72 #
plane-surface $-1 0 -43.283418106665479 0 0 1 0 0 0 1 forward_v I I I I #
coedge $-1 $184 $185 $186 $187 forward $73 $-1 #
coedge $-1 $188 $75 $189 $190 forward $46 $-1 #
coedge $-1 $75 $188 $191 $192 forward $46 $-1 #
coedge $-1 $193 $194 $75 $119 reversed $195 $-1 #
edge $-1 $196 -43.283418106665479 $197 43.283418106665479 $118 $198 forward 7 unknown #
face $-1 $199 $200 $28 $-1 $201 reversed single #
loop $-1 $-1 $202 $76 #
plane-surface $-1 -77.546311838129824 0 0 1 0 0 0 0 -1 forward_v I I I I #
coedge $-1 $203 $204 $205 $206 reversed $77 $-1 #
coedge $-1 $207 $79 $208 $209 reversed $49 $-1 #
coedge $-1 $79 $207 $203 $210 forward $49 $-1 #
coedge $-1 $205 $211 $79 $127 forward $212 $-1 #
edge $-1 $213 -25.586656420215046 $214 -9.806866952685823 $126 $215 forward 7 unknown #
face $-1 $216 $217 $29 $-1 $218 reversed single #
loop $-1 $-1 $219 $80 #
plane-surface $-1 0 0 17.440310096148369 0 0 1 1 0 0 forward_v I I I I #
coedge $-1 $220 $221 $222 $223 reversed $81 $-1 #
coedge $-1 $224 $83 $220 $225 forward $52 $-1 #
coedge $-1 $83 $224 $226 $227 reversed $52 $-1 #
coedge $-1 $228 $229 $83 $135 forward $217 $-1 #
edge $-1 $230 9.806866952685823 $231 25.58665642021505 $134 $232 forward 7 unknown #
face $-1 $233 $234 $30 $-1 $235 reversed single #
loop $-1 $-1 $236 $84 #
plane-surface $-1 -207.61793186225589 -8.3885692573196184 94.546907350523256 0 -1 0 0.83867057594974714 0 -0.54463902268945019 forward_v I I I I #
coedge $-1 $237 $238 $239 $240 reversed $85 $-1 #
coedge $-1 $141 $87 $241 $242 reversed $55 $-1 #
coedge $-1 $87 $140 $237 $243 reversed $55 $-1 #
coedge $-1 $239 $244 $87 $143 forward $245 $-1 #
edge $-1 $246 26.262654092998119 $247 31.044175633605605 $142 $248 forward 7 unknown #
loop $-1 $-1 $149 $88 #
plane-surface $-1 -77.54631183812981 -14.297954080527383 10.077412365142521 -0.83867057594974714 0 0.54463902268945019 0.54463902268945019 0 0.83867057594974714 forward_v I I I I #
loop $-1 $-1 $249 $57 #
coedge $-1 $147 $147 $148 $250 reversed $89 $-1 #
coedge $-1 $148 $148 $147 $250 forward $91 $-1 #
coedge $-1 $149 $149 $92 $150 forward $144 $-1 #
edge $-1 $251 0 $251 6.2831853071796004 $149 $252 forward 7 unknown #
loop $-1 $-1 $156 $93 #
plane-surface $-1 -77.54631183812981 -14.297954080527383 10.077412365142521 -0.83867057594974714 0 0.54463902268945019 0.54463902268945019 0 0.83867057594974714 forward_v I I I I #
loop $-1 $-1 $253 $60 #
coedge $-1 $154 $154 $155 $254 reversed $94 $-1 #
coedge $-1 $155 $155 $154 $254 forward $96 $-1 #
coedge $-1 $156 $156 $97 $157 forward $151 $-1 #
edge $-1 $255 0 $255 6.2831853071796004 $156 $256 forward 7 unknown #
face $-1 $257 $258 $33 $-1 $259 forward single #
loop $-1 $-1 $260 $98 #
plane-surface $-1 -207.61793186225589 19.115059381816643 94.546907350523256 0 -1 0 0.83867057594974714 0 -0.54463902268945019 forward_v I I I I #
coedge $-1 $261 $262 $263 $264 reversed $99 $-1 #
coedge $-1 $163 $101 $265 $266 reversed $64 $-1 #
coedge $-1 $101 $162 $261 $267 reversed $64 $-1 #
coedge $-1 $263 $268 $101 $165 forward $258 $-1 #
edge $-1 $269 26.262654092998119 $270 31.044175633605605 $164 $271 forward 7 unknown #
loop $-1 $-1 $171 $102 #
plane-surface $-1 -77.54631183812981 13.205674558608877 10.077412365142521 -0.83867057594974714 0 0.54463902268945019 0.54463902268945019 0 0.83867057594974714 forward_v I I I I #
loop $-1 $-1 $272 $66 #
coedge $-1 $169 $169 $170 $273 reversed $103 $-1 #
coedge $-1 $170 $170 $169 $273 forward $105 $-1 #
coedge $-1 $171 $171 $106 $172 forward $166 $-1 #
edge $-1 $274 0 $274 6.2831853071796004 $171 $275 forward 7 unknown #
loop $-1 $-1 $178 $107 #
plane-surface $-1 -77.54631183812981 13.205674558608877 10.077412365142521 -0.83867057594974714 0 0.54463902268945019 0.54463902268945019 0 0.83867057594974714 forward_v I I I I #
loop $-1 $-1 $276 $69 #
coedge $-1 $176 $176 $177 $277 reversed $108 $-1 #
coedge $-1 $177 $177 $176 $277 forward $110 $-1 #
coedge $-1 $178 $178 $111 $179 forward $173 $-1 #
edge $-1 $278 0 $278 6.2831853071796004 $178 $279 forward 7 unknown #
face $-1 $280 $281 $27 $-1 $282 reversed single #
loop $-1 $-1 $283 $112 #
plane-surface $-1 -77.546311838129824 0 0 1 0 0 0 0 -1 forward_v I I I I #
coedge $-1 $284 $191 $285 $286 forward $113 $-1 #
coedge $-1 $287 $115 $284 $288 forward $73 $-1 #
coedge $-1 $115 $287 $289 $290 forward $73 $-1 #
coedge $-1 $194 $193 $115 $187 reversed $195 $-1 #
edge $-1 $291 -43.283418106665479 $292 43.283418106665479 $186 $293 forward 7 unknown #
coedge $-1 $117 $116 $294 $295 forward $46 $-1 #
coedge $-1 $296 $297 $116 $190 reversed $281 $-1 #
edge $-1 $197 -77.546311838129824 $298 77.546311838129824 $189 $299 forward 7 unknown #
coedge $-1 $183 $300 $117 $192 reversed $113 $-1 #
edge $-1 $301 -77.546311838129824 $196 77.546311838129824 $191 $302 forward 7 unknown #
coedge $-1 $186 $118 $300 $303 forward $195 $-1 #
coedge $-1 $118 $186 $296 $304 reversed $195 $-1 #
loop $-1 $-1 $193 $280 #
vertex $-1 $119 $305 #
vertex $-1 $119 $306 #
straight-curve $-1 77.546311838129824 0 17.440310096148369 0 1 0 I I #
face $-1 $307 $308 $28 $-1 $309 forward single #
loop $-1 $-1 $208 $120 #
plane-surface $-1 0 -43.283418106665479 0 0 1 0 0 0 1 forward_v I I I I #
coedge $-1 $310 $311 $312 $313 forward $121 $-1 #
coedge $-1 $312 $123 $125 $210 reversed $77 $-1 #
coedge $-1 $123 $312 $314 $315 reversed $77 $-1 #
coedge $-1 $316 $126 $123 $206 forward $212 $-1 #
edge $-1 $214 1.2098892451264884 $317 11.223576982390084 $205 $318 forward 7 unknown #
coedge $-1 $125 $124 $310 $319 reversed $49 $-1 #
coedge $-1 $320 $321 $124 $209 forward $200 $-1 #
edge $-1 $322 -77.546311838129824 $213 77.546311838129824 $208 $323 forward 7 unknown #
edge $-1 $324 -77.546311838129824 $214 77.546311838129824 $203 $325 forward 7 unknown #
coedge $-1 $126 $316 $320 $326 forward $212 $-1 #
loop $-1 $-1 $205 $307 #
vertex $-1 $209 $327 #
vertex $-1 $127 $328 #
straight-curve $-1 77.546311838129824 -17.696761686450433 7.4266223588847744 0 1 0 I I #
face $-1 $329 $330 $29 $-1 $331 reversed single #
loop $-1 $-1 $229 $128 #
plane-surface $-1 77.546311838129824 0 0 -1 0 0 0 0 1 forward_v I I I I #
coedge $-1 $332 $333 $221 $334 forward $129 $-1 #
coedge $-1 $335 $131 $132 $225 reversed $81 $-1 #
coedge $-1 $131 $335 $219 $334 reversed $81 $-1 #
coedge $-1 $336 $337 $131 $223 forward $330 $-1 #
edge $-1 $338 1.2098892451264884 $339 11.223576982390084 $222 $340 forward 7 unknown #
coedge $-1 $133 $132 $337 $341 reversed $52 $-1 #
edge $-1 $230 -77.546311838129824 $338 77.546311838129824 $220 $342 forward 7 unknown #
coedge $-1 $343 $344 $133 $227 forward $345 $-1 #
edge $-1 $231 -77.546311838129824 $346 77.546311838129824 $226 $347 forward 7 unknown #
coedge $-1 $348 $134 $344 $349 reversed $217 $-1 #
coedge $-1 $134 $348 $335 $350 forward $217 $-1 #
vertex $-1 $135 $351 #
vertex $-1 $227 $352 #
straight-curve $-1 77.546311838129824 17.696761686450436 7.4266223588847744 0 1 0 I I #
face $-1 $-1 $245 $30 $-1 $353 forward single #
loop $-1 $-1 $354 $136 #
plane-surface $-1 -77.546311838129824 0 0 1 0 0 0 0 -1 forward_v I I I I #
coedge $-1 $355 $356 $357 $358 reversed $137 $-1 #
coedge $-1 $359 $139 $141 $243 forward $85 $-1 #
coedge $-1 $139 $359 $355 $360 forward $85 $-1 #
coedge $-1 $357 $142 $139 $240 forward $245 $-1 #
edge $-1 $247 -13.058361863471458 $361 -1.239592217055927 $239 $362 forward 7 unknown #
coedge $-1 $363 $364 $140 $242 forward $234 $-1 #
edge $-1 $365 -37.196041310119128 $246 -29.833143579113258 $241 $366 forward 7 unknown #
edge $-1 $247 -8.7792488995667686 $365 2.5617124586774352e-014 $141 $367 forward 7 unknown #
coedge $-1 $142 $357 $363 $368 forward $245 $-1 #
loop $-1 $-1 $357 $233 #
vertex $-1 $242 $369 #
vertex $-1 $143 $370 #
straight-curve $-1 -103.80896593112794 -20.207338903735149 17.440310096148366 1 0 0 I I #
coedge $-1 $249 $249 $-1 $371 reversed $146 $-1 #
edge $-1 $372 0 $372 6.2831853071796004 $147 $373 forward 7 unknown #
vertex $-1 $150 $374 #
ellipse-curve $-1 -75.155551067826067 -16.83054757618785 13.758861230645442 -0.83867057594974714 0 0.54463902268945019 0.54463902268945019 0 0.83867057594974714 1 I I #
coedge $-1 $253 $253 $-1 $375 reversed $153 $-1 #
edge $-1 $376 0 $376 6.2831853071796004 $154 $377 forward 7 unknown #
vertex $-1 $157 $378 #
ellipse-curve $-1 -75.155551067826067 -11.765360584866908 13.758861230645442 -0.83867057594974714 0 0.54463902268945019 0.54463902268945019 0 0.83867057594974714 1 I I #
face $-1 $-1 $379 $33 $-1 $380 reversed single #
loop $-1 $-1 $164 $158 #
plane-surface $-1 0 0 17.440310096148369 0 0 1 1 0 0 forward_v I I I I #
coedge $-1 $381 $382 $383 $384 reversed $159 $-1 #
coedge $-1 $385 $161 $163 $267 forward $99 $-1 #
coedge $-1 $161 $385 $381 $386 forward $99 $-1 #
coedge $-1 $383 $164 $161 $264 forward $258 $-1 #
edge $-1 $270 0.69345245609667394 $387 12.512222102512204 $263 $388 forward 7 unknown #
coedge $-1 $389 $390 $162 $266 forward $379 $-1 #
edge $-1 $391 -37.196041310119128 $269 -29.833143579113258 $265 $392 forward 7 unknown #
edge $-1 $270 -8.7792488995667686 $391 2.5617124586774352e-014 $163 $393 forward 7 unknown #
coedge $-1 $164 $383 $389 $394 forward $258 $-1 #
vertex $-1 $165 $395 #
vertex $-1 $165 $396 #
straight-curve $-1 -103.80896593112794 7.2962897354011123 17.440310096148366 1 0 0 I I #
coedge $-1 $272 $272 $-1 $397 reversed $168 $-1 #
edge $-1 $398 0 $398 6.2831853071796004 $169 $399 forward 7 unknown #
vertex $-1 $172 $400 #
ellipse-curve $-1 -75.155551067826067 10.673081062948405 13.758861230645442 -0.83867057594974714 0 0.54463902268945019 0.54463902268945019 0 0.83867057594974714 1 I I #
coedge $-1 $276 $276 $-1 $401 reversed $175 $-1 #
edge $-1 $402 0 $402 6.2831853071796004 $176 $403 forward 7 unknown #
vertex $-1 $179 $404 #
ellipse-curve $-1 -75.155551067826067 15.738268054269348 13.758861230645442 -0.83867057594974714 0 0.54463902268945019 0.54463902268945019 0 0.83867057594974714 1 I I #
face $-1 $-1 $195 $27 $-1 $405 reversed single #
loop $-1 $-1 $296 $180 #
plane-surface $-1 0 43.283418106665479 0 0 -1 0 0 0 -1 forward_v I I I I #
coedge $-1 $406 $294 $297 $407 forward $181 $-1 #
coedge $-1 $300 $183 $184 $288 reversed $113 $-1 #
coedge $-1 $294 $406 $183 $286 reversed $181 $-1 #
edge $-1 $301 -17.440310096148369 $408 17.440310096148369 $285 $409 forward 7 unknown #
coedge $-1 $185 $184 $406 $410 forward $73 $-1 #
edge $-1 $292 -77.546311838129824 $408 77.546311838129824 $284 $411 forward 7 unknown #
coedge $-1 $297 $296 $185 $290 reversed $281 $-1 #
edge $-1 $412 -77.546311838129824 $291 77.546311838129824 $289 $413 forward 7 unknown #
vertex $-1 $187 $414 #
vertex $-1 $303 $415 #
straight-curve $-1 77.546311838129824 0 -17.440310096148369 0 -1 0 I I #
coedge $-1 $283 $285 $188 $295 reversed $181 $-1 #
edge $-1 $298 -43.283418106665479 $301 43.283418106665479 $294 $416 forward 7 unknown #
coedge $-1 $289 $189 $194 $304 forward $281 $-1 #
coedge $-1 $189 $289 $283 $407 reversed $281 $-1 #
vertex $-1 $190 $417 #
straight-curve $-1 0 43.283418106665479 17.440310096148369 -1 0 0 I I #
coedge $-1 $191 $284 $193 $303 reversed $113 $-1 #
vertex $-1 $295 $418 #
straight-curve $-1 0 -43.283418106665479 17.440310096148369 1 0 0 I I #
edge $-1 $196 -17.440310096148369 $292 17.440310096148369 $193 $419 forward 7 unknown #
edge $-1 $197 -17.440310096148369 $291 17.440310096148369 $194 $420 forward 7 unknown #
point $-1 77.546311838129824 -43.283418106665479 17.440310096148369 #
point $-1 77.546311838129824 43.283418106665479 17.440310096148369 #
face $-1 $-1 $212 $28 $-1 $421 reversed single #
loop $-1 $-1 $314 $199 #
plane-surface $-1 0 0 17.440310096148369 0 0 1 1 0 0 forward_v I I I I #
coedge $-1 $422 $202 $207 $319 forward $121 $-1 #
coedge $-1 $202 $422 $423 $424 reversed $121 $-1 #
coedge $-1 $204 $203 $202 $313 reversed $77 $-1 #
edge $-1 $425 -11.223576982390084 $324 -1.2098892451264884 $202 $426 forward 7 unknown #
coedge $-1 $423 $427 $204 $315 forward $308 $-1 #
edge $-1 $317 -77.546311838129824 $425 77.546311838129824 $314 $428 forward 7 unknown #
coedge $-1 $211 $205 $427 $429 reversed $212 $-1 #
vertex $-1 $206 $430 #
straight-curve $-1 77.546311838129824 -27.503628639136256 6.216733113758286 0 0 1 I I #
edge $-1 $324 9.806866952685823 $322 25.586656420215046 $310 $431 forward 7 unknown #
coedge $-1 $432 $208 $211 $326 reversed $200 $-1 #
coedge $-1 $208 $432 $422 $433 forward $200 $-1 #
vertex $-1 $209 $434 #
straight-curve $-1 0 -43.283418106665479 7.4266223588847744 1 0 0 I I #
vertex $-1 $319 $435 #
straight-curve $-1 0 -27.503628639136256 7.4266223588847744 1 0 0 I I #
edge $-1 $436 -17.440310096148369 $213 -7.4266223588847744 $211 $437 forward 7 unknown #
point $-1 77.546311838129824 -43.283418106665479 7.4266223588847744 #
point $-1 77.546311838129824 -27.503628639136256 7.4266223588847744 #
face $-1 $-1 $345 $29 $-1 $438 reversed single #
loop $-1 $-1 $222 $216 #
plane-surface $-1 -77.546311838129824 0 0 1 0 0 0 0 -1 forward_v I I I I #
coedge $-1 $439 $219 $348 $440 forward $129 $-1 #
coedge $-1 $219 $439 $336 $441 forward $129 $-1 #
edge $-1 $339 -77.546311838129824 $442 77.546311838129824 $219 $443 forward 7 unknown #
coedge $-1 $221 $220 $229 $350 reversed $81 $-1 #
coedge $-1 $444 $222 $333 $441 reversed $330 $-1 #
coedge $-1 $222 $444 $224 $341 forward $330 $-1 #
vertex $-1 $341 $445 #
vertex $-1 $223 $446 #
straight-curve $-1 -77.546311838129824 27.503628639136259 6.216733113758286 0 0 1 I I #
edge $-1 $346 -25.58665642021505 $338 -9.806866952685823 $337 $447 forward 7 unknown #
straight-curve $-1 0 27.503628639136259 7.4266223588847744 -1 0 0 I I #
coedge $-1 $448 $226 $444 $449 reversed $345 $-1 #
coedge $-1 $226 $448 $228 $349 forward $345 $-1 #
loop $-1 $-1 $226 $329 #
vertex $-1 $227 $450 #
straight-curve $-1 0 43.283418106665479 7.4266223588847744 -1 0 0 I I #
coedge $-1 $229 $228 $332 $440 reversed $217 $-1 #
edge $-1 $451 -17.440310096148369 $231 -7.4266223588847744 $228 $452 forward 7 unknown #
edge $-1 $442 -11.223576982390084 $230 -1.2098892451264884 $229 $453 forward 7 unknown #
point $-1 77.546311838129824 27.503628639136259 7.4266223588847744 #
point $-1 77.546311838129824 43.283418106665486 7.4266223588847744 #
plane-surface $-1 0 0 17.440310096148369 0 0 1 1 0 0 forward_v I I I I #
coedge $-1 $364 $363 $356 $454 forward $234 $-1 #
coedge $-1 $356 $236 $238 $360 reversed $137 $-1 #
coedge $-1 $236 $355 $354 $454 reversed $137 $-1 #
coedge $-1 $244 $239 $236 $358 forward $245 $-1 #
edge $-1 $361 -31.044175633605605 $455 -26.262654092998119 $357 $456 forward 7 unknown #
coedge $-1 $238 $237 $364 $457 reversed $85 $-1 #
edge $-1 $458 -2.5617124586774352e-014 $361 8.7792488995667686 $355 $459 forward 7 unknown #
vertex $-1 $240 $460 #
straight-curve $-1 -72.764790297522325 -7.1489770402636914 17.440310096148373 0 1 0 I I #
coedge $-1 $354 $241 $244 $368 reversed $234 $-1 #
coedge $-1 $241 $354 $359 $457 forward $234 $-1 #
vertex $-1 $242 $461 #
straight-curve $-1 -77.546311838129824 -20.207338903735149 47.273453675261628 0 0 1 I I #
straight-curve $-1 -77.54631183812981 -20.207338903735149 10.077412365142521 -0.54463902268945019 0 -0.83867057594974714 I I #
edge $-1 $455 8.3885692573196184 $246 20.207338903735149 $363 $462 forward 7 unknown #
point $-1 -77.546311838129824 -20.207338903735149 17.440310096148369 #
point $-1 -72.764790297522339 -20.207338903735149 17.440310096148369 #
edge $-1 $463 1 $463 0 $249 $-1 forward 7 unknown #
vertex $-1 $250 $464 #
ellipse-curve $-1 -72.57317156741793 -16.83054757618785 12.081844428520457 -0.83867057594974714 0 0.54463902268945019 0.54463902268945019 0 0.83867057594974714 1 I I #
point $-1 -74.610912045136629 -16.83054757618785 14.597531806595189 #
edge $-1 $465 1 $465 0 $253 $-1 forward 7 unknown #
vertex $-1 $254 $466 #
ellipse-curve $-1 -72.57317156741793 -11.765360584866908 12.081844428520457 -0.83867057594974714 0 0.54463902268945019 0.54463902268945019 0 0.83867057594974714 1 I I #
point $-1 -74.610912045136629 -11.765360584866908 14.597531806595189 #
loop $-1 $-1 $265 $257 #
plane-surface $-1 -77.546311838129824 0 0 1 0 0 0 0 -1 forward_v I I I I #
coedge $-1 $382 $260 $262 $386 reversed $159 $-1 #
coedge $-1 $260 $381 $467 $468 reversed $159 $-1 #
coedge $-1 $268 $263 $260 $384 forward $258 $-1 #
edge $-1 $387 -31.044175633605605 $469 -26.262654092998119 $383 $470 forward 7 unknown #
coedge $-1 $262 $261 $390 $471 reversed $99 $-1 #
edge $-1 $472 -2.5617124586774352e-014 $387 8.7792488995667686 $381 $473 forward 7 unknown #
vertex $-1 $264 $474 #
straight-curve $-1 -72.764790297522325 6.6028372793044383 17.440310096148373 0 1 0 I I #
coedge $-1 $467 $265 $268 $394 reversed $379 $-1 #
coedge $-1 $265 $467 $385 $471 forward $379 $-1 #
vertex $-1 $266 $475 #
straight-curve $-1 -77.546311838129824 7.2962897354011123 47.273453675261628 0 0 1 I I #
straight-curve $-1 -77.54631183812981 7.2962897354011123 10.077412365142521 -0.54463902268945019 0 -0.83867057594974714 I I #
edge $-1 $469 -19.115059381816643 $269 -7.2962897354011123 $389 $476 forward 7 unknown #
point $-1 -77.546311838129824 7.2962897354011123 17.440310096148369 #
point $-1 -72.764790297522339 7.2962897354011123 17.440310096148369 #
edge $-1 $477 1 $477 0 $272 $-1 forward 7 unknown #
vertex $-1 $273 $478 #
ellipse-curve $-1 -72.57317156741793 10.673081062948405 12.081844428520457 -0.83867057594974714 0 0.54463902268945019 0.54463902268945019 0 0.83867057594974714 1 I I #
point $-1 -74.610912045136629 10.673081062948405 14.597531806595189 #
edge $-1 $479 1 $479 0 $276 $-1 forward 7 unknown #
vertex $-1 $277 $480 #
ellipse-curve $-1 -72.57317156741793 15.738268054269348 12.081844428520457 -0.83867057594974714 0 0.54463902268945019 0.54463902268945019 0 0.83867057594974714 1 I I #
point $-1 -74.610912045136629 15.738268054269348 14.597531806595189 #
plane-surface $-1 77.546311838129824 0 0 -1 0 0 0 0 1 forward_v I I I I #
coedge $-1 $285 $283 $287 $410 reversed $181 $-1 #
edge $-1 $298 -17.440310096148369 $412 17.440310096148369 $297 $481 forward 7 unknown #
vertex $-1 $410 $482 #
straight-curve $-1 -77.546311838129824 -43.283418106665479 0 0 0 -1 I I #
edge $-1 $408 -43.283418106665479 $412 43.283418106665479 $406 $483 forward 7 unknown #
straight-curve $-1 0 -43.283418106665479 -17.440310096148369 -1 0 0 I I #
vertex $-1 $290 $484 #
straight-curve $-1 0 43.283418106665479 -17.440310096148369 1 0 0 I I #
point $-1 77.546311838129824 43.283418106665479 -17.440310096148369 #
point $-1 77.546311838129824 -43.283418106665479 -17.440310096148369 #
straight-curve $-1 -77.546311838129824 0 17.440310096148369 0 -1 0 I I #
point $-1 -77.546311838129824 43.283418106665479 17.440310096148369 #
point $-1 -77.546311838129824 -43.283418106665479 17.440310096148369 #
straight-curve $-1 77.546311838129824 -43.283418106665479 0 0 0 -1 I I #
straight-curve $-1 77.546311838129824 43.283418106665479 0 0 0 -1 I I #
plane-surface $-1 77.546311838129824 0 0 -1 0 0 0 0 1 forward_v I I I I #
coedge $-1 $311 $310 $321 $433 reversed $121 $-1 #
coedge $-1 $485 $314 $311 $424 forward $308 $-1 #
edge $-1 $425 27.503628639136256 $486 43.283418106665479 $311 $487 forward 7 unknown #
vertex $-1 $424 $488 #
straight-curve $-1 -77.546311838129824 -27.503628639136256 6.216733113758286 0 0 -1 I I #
coedge $-1 $314 $485 $316 $429 forward $308 $-1 #
straight-curve $-1 0 -27.503628639136256 17.440310096148369 -1 0 0 I I #
edge $-1 $436 -43.283418106665479 $317 -27.503628639136256 $316 $489 forward 7 unknown #
point $-1 77.546311838129824 -27.503628639136256 17.440310096148369 #
straight-curve $-1 -77.546311838129824 -17.696761686450433 7.4266223588847744 0 -1 0 I I #
coedge $-1 $321 $320 $485 $490 reversed $200 $-1 #
edge $-1 $486 -17.440310096148369 $322 -7.4266223588847744 $422 $491 forward 7 unknown #
point $-1 -77.546311838129824 -43.283418106665479 7.4266223588847744 #
point $-1 -77.546311838129824 -27.503628639136256 7.4266223588847744 #
vertex $-1 $429 $492 #
straight-curve $-1 77.546311838129824 -43.283418106665479 0 0 0 -1 I I #
plane-surface $-1 0 43.283418106665479 0 0 -1 0 0 0 -1 forward_v I I I I #
coedge $-1 $333 $332 $448 $493 forward $129 $-1 #
edge $-1 $442 27.503628639136259 $451 43.283418106665479 $348 $494 forward 7 unknown #
edge $-1 $495 -43.283418106665479 $339 -27.503628639136259 $336 $496 forward 7 unknown #
vertex $-1 $440 $497 #
straight-curve $-1 0 27.503628639136259 17.440310096148369 1 0 0 I I #
coedge $-1 $337 $336 $343 $449 forward $330 $-1 #
point $-1 -77.546311838129824 27.503628639136259 7.4266223588847744 #
point $-1 -77.546311838129824 27.503628639136259 17.440310096148369 #
straight-curve $-1 -77.546311838129824 17.696761686450436 7.4266223588847744 0 -1 0 I I #
coedge $-1 $344 $343 $439 $493 reversed $345 $-1 #
edge $-1 $495 -17.440310096148369 $346 -7.4266223588847744 $343 $498 forward 7 unknown #
point $-1 -77.546311838129824 43.283418106665486 7.4266223588847744 #
vertex $-1 $440 $499 #
straight-curve $-1 77.546311838129824 43.283418106665479 0 0 0 -1 I I #
straight-curve $-1 77.546311838129824 27.503628639136259 6.216733113758286 0 0 -1 I I #
edge $-1 $455 29.833143579113258 $458 37.196041310119128 $354 $500 forward 7 unknown #
vertex $-1 $368 $501 #
straight-curve $-1 -103.80896593112794 -8.3885692573196184 17.440310096148366 -1 0 0 I I #
edge $-1 $458 1.239592217055927 $365 13.058361863471458 $364 $502 forward 7 unknown #
vertex $-1 $457 $503 #
straight-curve $-1 -77.54631183812981 -8.3885692573196184 10.077412365142521 0.54463902268945019 0 0.83867057594974714 I I #
point $-1 -72.764790297522339 -8.3885692573196184 17.440310096148369 #
point $-1 -77.546311838129824 -20.207338903735149 10.0774123651425 #
straight-curve $-1 -77.546311838129824 0 17.440310096148369 0 -1 0 I I #
vertex $-1 $371 $504 #
point $-1 -72.028532544728478 -16.83054757618785 12.920515004470204 #
vertex $-1 $375 $505 #
point $-1 -72.028532544728478 -11.765360584866908 12.920515004470204 #
coedge $-1 $390 $389 $382 $468 forward $379 $-1 #
edge $-1 $469 29.833143579113258 $472 37.196041310119128 $467 $506 forward 7 unknown #
vertex $-1 $394 $507 #
straight-curve $-1 -103.80896593112794 19.115059381816643 17.440310096148366 -1 0 0 I I #
edge $-1 $472 -12.512222102512204 $391 -0.69345245609667394 $390 $508 forward 7 unknown #
vertex $-1 $471 $509 #
straight-curve $-1 -77.54631183812981 19.115059381816643 10.077412365142521 0.54463902268945019 0 0.83867057594974714 I I #
point $-1 -72.764790297522339 19.115059381816643 17.440310096148369 #
point $-1 -77.546311838129824 7.2962897354011123 10.0774123651425 #
straight-curve $-1 -77.546311838129824 0 17.440310096148369 0 -1 0 I I #
vertex $-1 $397 $510 #
point $-1 -72.028532544728478 10.673081062948405 12.920515004470204 #
vertex $-1 $401 $511 #
point $-1 -72.028532544728478 15.738268054269348 12.920515004470204 #
straight-curve $-1 -77.546311838129824 43.283418106665479 0 0 0 -1 I I #
point $-1 -77.546311838129824 -43.283418106665479 -17.440310096148369 #
straight-curve $-1 -77.546311838129824 0 -17.440310096148369 0 1 0 I I #
point $-1 -77.546311838129824 43.283418106665479 -17.440310096148369 #
coedge $-1 $427 $423 $432 $490 forward $308 $-1 #
vertex $-1 $424 $512 #
straight-curve $-1 -77.546311838129824 0 17.440310096148369 0 -1 0 I I #
point $-1 -77.546311838129824 -27.503628639136256 17.440310096148369 #
straight-curve $-1 77.546311838129824 0 17.440310096148369 0 1 0 I I #
edge $-1 $486 -77.546311838129824 $436 77.546311838129824 $432 $513 forward 7 unknown #
straight-curve $-1 -77.546311838129824 -43.283418106665479 0 0 0 -1 I I #
point $-1 77.546311838129824 -43.283418106665479 17.440310096148369 #
edge $-1 $451 -77.546311838129824 $495 77.546311838129824 $448 $514 forward 7 unknown #
straight-curve $-1 77.546311838129824 0 17.440310096148369 0 1 0 I I #
vertex $-1 $493 $515 #
straight-curve $-1 -77.546311838129824 0 17.440310096148369 0 -1 0 I I #
point $-1 77.546311838129824 27.503628639136259 17.440310096148369 #
straight-curve $-1 -77.546311838129824 43.283418106665479 0 0 0 -1 I I #
point $-1 77.546311838129824 43.283418106665479 17.440310096148369 #
straight-curve $-1 -77.546311838129824 -8.3885692573196184 47.273453675261628 0 0 -1 I I #
point $-1 -77.546311838129824 -8.3885692573196184 17.440310096148369 #
straight-curve $-1 -77.546311838129824 -7.1489770402636914 10.077412365142489 0 -1 0 I I #
point $-1 -77.546311838129824 -8.3885692573196184 10.0774123651425 #
point $-1 -71.734500991468181 -16.83054757618785 11.537205405831008 #
point $-1 -71.734500991468181 -11.765360584866908 11.537205405831008 #
straight-curve $-1 -77.546311838129824 19.115059381816643 47.273453675261628 0 0 -1 I I #
point $-1 -77.546311838129824 19.115059381816643 17.440310096148369 #
straight-curve $-1 -77.546311838129824 6.6028372793044383 10.077412365142489 0 -1 0 I I #
point $-1 -77.546311838129824 19.115059381816643 10.0774123651425 #
point $-1 -71.734500991468181 10.673081062948405 11.537205405831008 #
point $-1 -71.734500991468181 15.738268054269348 11.537205405831008 #
point $-1 -77.546311838129824 -43.283418106665479 17.440310096148369 #
straight-curve $-1 0 -43.283418106665479 17.440310096148369 1 0 0 I I #
straight-curve $-1 0 43.283418106665479 17.440310096148369 -1 0 0 I I #
point $-1 -77.546311838129824 43.283418106665479 17.440310096148369 #
End-of-ACIS-data 