500 0 6 0           
7 Unknown 11 ACIS 5.0 NT 24 Fri Mar 26 20:37:45 1999 
-1 9.9999999999999995e-007 1e-010 
body $-1 $6 $-1 $7 #
body $-1 $8 $-1 $9 #
body $-1 $10 $-1 $11 #
body $-1 $12 $-1 $13 #
body $-1 $14 $-1 $15 #
body $-1 $16 $-1 $17 #
lump $-1 $-1 $18 $0 #
transform $-1 1 0 0 0 1 0 0 0 1 48.474379711294901 27.595794068988702 10.083114232928681 1 rotate no_reflect no_shear #
lump $-1 $-1 $19 $1 #
transform $-1 1 0 0 0 1 0 0 0 1 48.474379711294901 27.595794068988702 10.083114232928681 1 rotate no_reflect no_shear #
lump $-1 $-1 $20 $2 #
transform $-1 1 0 0 0 1 0 0 0 1 48.474379711294901 27.595794068988702 10.083114232928681 1 rotate no_reflect no_shear #
lump $-1 $-1 $21 $3 #
transform $-1 1 0 0 0 1 0 0 0 1 48.474379711294901 27.595794068988702 10.083114232928681 1 rotate no_reflect no_shear #
lump $-1 $-1 $22 $4 #
transform $-1 1 0 0 0 1 0 0 0 1 48.474379711294901 27.595794068988702 10.083114232928681 1 rotate no_reflect no_shear #
lump $-1 $-1 $23 $5 #
transform $-1 1 0 0 0 1 0 0 0 1 48.474379711294901 27.595794068988702 10.083114232928681 1 rotate no_reflect no_shear #
shell $-1 $-1 $-1 $24 $-1 $6 #
shell $-1 $-1 $-1 $25 $-1 $8 #
shell $-1 $-1 $-1 $26 $-1 $10 #
shell $-1 $-1 $-1 $27 $-1 $12 #
shell $-1 $-1 $-1 $28 $-1 $14 #
shell $-1 $-1 $-1 $29 $-1 $16 #
face $-1 $30 $31 $18 $-1 $32 forward single #
face $-1 $33 $34 $19 $-1 $35 forward single #
face $-1 $36 $37 $20 $-1 $38 reversed single #
face $-1 $39 $40 $21 $-1 $41 forward single #
face $-1 $42 $43 $22 $-1 $44 reversed single #
face $-1 $45 $46 $23 $-1 $47 forward single #
face $-1 $48 $49 $18 $-1 $50 reversed single #
loop $-1 $-1 $51 $24 #
plane-surface $-1 0 0 10.083114232928681 0 0 1 1 0 0 forward_v I I I I #
face $-1 $52 $53 $19 $-1 $54 reversed single #
loop $-1 $-1 $55 $25 #
plane-surface $-1 0 -24.189666568506663 -2.3358539341381404 0 0 1 1 0 0 forward_v I I I I #
face $-1 $56 $57 $20 $-1 $58 reversed single #
loop $-1 $-1 $59 $26 #
plane-surface $-1 34.142875420512098 -4.7947845695086837 140.50382776622465 0 1 0 0.62932039886446345 0 0.77714595512881146 forward_v I I I I #
face $-1 $60 $61 $21 $-1 $62 forward single #
loop $-1 $63 $64 $27 #
cone-surface $-1 43.127893409077295 1.7594092655803273 5.0384617102170708 -0.62932039886446345 0 -0.77714595512881146 1.1657189326932171 0 -0.94398059829669512 1 I I 0 1 1.5 forward I I I I #
face $-1 $65 $66 $22 $-1 $67 reversed single #
loop $-1 $-1 $68 $28 #
plane-surface $-1 -109.48621166053402 -4.7947845695086837 79.491995816985551 0 1 0 -0.62932039886446345 0 0.77714595512881146 forward_v I I I I #
face $-1 $69 $70 $23 $-1 $71 forward single #
loop $-1 $72 $73 $29 #
cone-surface $-1 -43.127893409077295 1.7594092655803273 5.0384617102170761 0.62932039886446345 0 -0.77714595512881146 1.1657189326932171 0 0.94398059829669512 1 I I 0 1 1.5 forward I I I I #
face $-1 $74 $75 $18 $-1 $76 reversed single #
loop $-1 $-1 $77 $30 #
plane-surface $-1 0 0 -10.083114232928681 0 0 1 1 0 0 forward_v I I I I #
coedge $-1 $78 $79 $80 $81 forward $31 $-1 #
face $-1 $82 $83 $19 $-1 $84 reversed single #
loop $-1 $-1 $85 $33 #
plane-surface $-1 0 -24.189666568506663 -8.1421300416682207 0 0 1 1 0 0 forward_v I I I I #
coedge $-1 $86 $87 $88 $89 reversed $34 $-1 #
face $-1 $90 $91 $20 $-1 $92 reversed single #
loop $-1 $-1 $93 $36 #
plane-surface $-1 -26.868956528727026 1.7594092655803237 65.160491526202733 0.62932039886446345 0 0.77714595512881146 0.77714595512881146 0 -0.62932039886446345 forward_v I I I I #
coedge $-1 $94 $95 $96 $97 reversed $37 $-1 #
face $-1 $-1 $98 $21 $-1 $99 forward single #
loop $-1 $100 $101 $39 #
cone-surface $-1 40.97363732249228 1.7594092655803273 2.3781770491413834 -0.62932039886446345 0 -0.77714595512881146 0.58285946634660857 0 -0.47199029914834756 1 I I -0.70710678118654768 0.70710678118654735 0.75 forward I I I I #
loop $-1 $-1 $102 $27 #
coedge $-1 $64 $64 $103 $104 reversed $40 $-1 #
face $-1 $105 $106 $22 $-1 $107 reversed single #
loop $-1 $-1 $108 $42 #
plane-surface $-1 -48.474379711294901 1.7594092655803237 4.1486595769636381 -0.62932039886446345 0 0.77714595512881146 0.77714595512881146 0 0.62932039886446345 forward_v I I I I #
coedge $-1 $109 $110 $111 $112 reversed $43 $-1 #
face $-1 $-1 $113 $23 $-1 $114 forward single #
loop $-1 $115 $116 $45 #
cone-surface $-1 -40.97363732249228 1.7594092655803273 2.3781770491413887 0.62932039886446345 0 -0.77714595512881146 0.58285946634660857 0 0.47199029914834756 1 I I -0.70710678118654768 0.70710678118654735 0.75 forward I I I I #
loop $-1 $-1 $117 $29 #
coedge $-1 $73 $73 $118 $119 reversed $46 $-1 #
face $-1 $120 $121 $18 $-1 $122 reversed single #
loop $-1 $-1 $123 $48 #
plane-surface $-1 0 -27.595794068988702 0 0 1 0 0 0 1 forward_v I I I I #
coedge $-1 $124 $125 $126 $127 forward $49 $-1 #
coedge $-1 $128 $51 $129 $130 forward $31 $-1 #
coedge $-1 $51 $128 $131 $132 forward $31 $-1 #
coedge $-1 $133 $134 $51 $81 reversed $135 $-1 #
edge $-1 $136 -27.595794068988702 $137 27.595794068988702 $80 $138 forward 7 unknown #
face $-1 $139 $140 $19 $-1 $141 reversed single #
loop $-1 $-1 $142 $52 #
plane-surface $-1 0 -20.783539068024623 -5.2389919879031801 0 -1 0 0 0 -1 forward_v I I I I #
coedge $-1 $143 $144 $145 $146 reversed $53 $-1 #
coedge $-1 $147 $55 $148 $149 forward $34 $-1 #
coedge $-1 $55 $147 $150 $151 reversed $34 $-1 #
coedge $-1 $152 $153 $55 $89 forward $154 $-1 #
edge $-1 $155 8.688705783771292 $156 15.500960784735371 $88 $157 forward 7 unknown #
face $-1 $158 $159 $20 $-1 $160 forward single #
loop $-1 $-1 $161 $56 #
plane-surface $-1 34.142875420512098 8.3136031006693312 140.50382776622465 0 -1 0 -0.62932039886446345 0 -0.77714595512881146 forward_v I I I I #
coedge $-1 $162 $163 $164 $165 reversed $57 $-1 #
coedge $-1 $95 $59 $166 $167 reversed $37 $-1 #
coedge $-1 $59 $94 $162 $168 reversed $37 $-1 #
coedge $-1 $164 $169 $59 $97 forward $170 $-1 #
edge $-1 $171 60.168799650183644 $172 66.103254306148727 $96 $173 forward 7 unknown #
loop $-1 $-1 $103 $60 #
plane-surface $-1 -26.868956528727026 1.7594092655803237 65.160491526202733 0.62932039886446345 0 0.77714595512881146 0.77714595512881146 0 -0.62932039886446345 forward_v I I I I #
loop $-1 $-1 $174 $39 #
coedge $-1 $101 $101 $102 $175 reversed $61 $-1 #
coedge $-1 $102 $102 $101 $175 forward $63 $-1 #
coedge $-1 $103 $103 $64 $104 forward $98 $-1 #
edge $-1 $176 0 $176 6.2831853071796004 $103 $177 forward 7 unknown #
face $-1 $178 $179 $22 $-1 $180 reversed single #
loop $-1 $-1 $181 $65 #
plane-surface $-1 -109.48621166053402 8.3136031006693312 79.491995816985551 0 -1 0 0.62932039886446345 0 -0.77714595512881146 forward_v I I I I #
coedge $-1 $182 $183 $184 $185 reversed $66 $-1 #
coedge $-1 $110 $68 $186 $187 reversed $43 $-1 #
coedge $-1 $68 $109 $182 $188 reversed $43 $-1 #
coedge $-1 $184 $189 $68 $112 forward $190 $-1 #
edge $-1 $191 6.2687261189721113 $192 13.597167148533984 $111 $193 forward 7 unknown #
loop $-1 $-1 $118 $69 #
plane-surface $-1 -48.474379711294901 1.7594092655803237 4.1486595769636381 -0.62932039886446345 0 0.77714595512881146 0.77714595512881146 0 0.62932039886446345 forward_v I I I I #
loop $-1 $-1 $194 $45 #
coedge $-1 $116 $116 $117 $195 reversed $70 $-1 #
coedge $-1 $117 $117 $116 $195 forward $72 $-1 #
coedge $-1 $118 $118 $73 $119 forward $113 $-1 #
edge $-1 $196 0 $196 6.2831853071796004 $118 $197 forward 7 unknown #
face $-1 $198 $199 $18 $-1 $200 reversed single #
loop $-1 $-1 $201 $74 #
plane-surface $-1 -48.474379711294901 0 0 1 0 0 0 0 -1 forward_v I I I I #
coedge $-1 $202 $131 $203 $204 forward $75 $-1 #
coedge $-1 $205 $77 $202 $206 forward $49 $-1 #
coedge $-1 $77 $205 $207 $208 forward $49 $-1 #
coedge $-1 $134 $133 $77 $127 reversed $135 $-1 #
edge $-1 $209 -27.595794068988702 $210 27.595794068988702 $126 $211 forward 7 unknown #
coedge $-1 $79 $78 $212 $213 forward $31 $-1 #
coedge $-1 $214 $215 $78 $130 reversed $199 $-1 #
edge $-1 $137 -48.474379711294901 $216 48.474379711294901 $129 $217 forward 7 unknown #
coedge $-1 $123 $218 $79 $132 reversed $75 $-1 #
edge $-1 $219 -48.474379711294901 $136 48.474379711294901 $131 $220 forward 7 unknown #
coedge $-1 $126 $80 $218 $221 forward $135 $-1 #
coedge $-1 $80 $126 $214 $222 reversed $135 $-1 #
loop $-1 $-1 $133 $198 #
vertex $-1 $81 $223 #
vertex $-1 $81 $224 #
straight-curve $-1 48.474379711294901 0 10.083114232928681 0 1 0 I I #
face $-1 $225 $226 $19 $-1 $227 reversed single #
loop $-1 $-1 $228 $82 #
plane-surface $-1 -48.474379711294901 0 0 1 0 0 0 0 -1 forward_v I I I I #
coedge $-1 $229 $148 $153 $230 reversed $83 $-1 #
coedge $-1 $231 $85 $232 $233 reversed $53 $-1 #
coedge $-1 $85 $231 $229 $234 forward $53 $-1 #
coedge $-1 $153 $152 $85 $146 forward $154 $-1 #
edge $-1 $235 -15.500960784735371 $236 -8.688705783771292 $145 $237 forward 7 unknown #
coedge $-1 $87 $86 $228 $238 reversed $34 $-1 #
coedge $-1 $142 $239 $86 $149 reversed $83 $-1 #
edge $-1 $155 -48.474379711294901 $240 48.474379711294901 $148 $241 forward 7 unknown #
coedge $-1 $242 $243 $87 $151 forward $226 $-1 #
edge $-1 $156 -48.474379711294901 $244 48.474379711294901 $150 $245 forward 7 unknown #
coedge $-1 $145 $88 $243 $246 forward $154 $-1 #
coedge $-1 $88 $145 $142 $230 forward $154 $-1 #
loop $-1 $-1 $88 $225 #
vertex $-1 $89 $247 #
vertex $-1 $246 $248 #
straight-curve $-1 48.474379711294901 -12.094833284253331 -2.3358539341381404 0 -1 0 I I #
face $-1 $-1 $170 $20 $-1 $249 reversed single #
loop $-1 $-1 $250 $90 #
plane-surface $-1 0 0 10.083114232928681 0 0 1 1 0 0 forward_v I I I I #
coedge $-1 $251 $252 $253 $254 reversed $91 $-1 #
coedge $-1 $255 $93 $95 $168 forward $57 $-1 #
coedge $-1 $93 $255 $251 $256 forward $57 $-1 #
coedge $-1 $253 $96 $93 $165 forward $170 $-1 #
edge $-1 $172 -5.6744892022988456 $257 7.4338984678791693 $164 $258 forward 7 unknown #
coedge $-1 $259 $260 $94 $167 forward $159 $-1 #
edge $-1 $261 24.074500971476937 $171 31.402942001038852 $166 $262 forward 7 unknown #
edge $-1 $172 -96.948759422589831 $261 -87.51881774793074 $95 $263 forward 7 unknown #
coedge $-1 $96 $253 $259 $264 reversed $170 $-1 #
loop $-1 $-1 $253 $158 #
vertex $-1 $264 $265 #
vertex $-1 $97 $266 #
straight-curve $-1 48.474379711294901 -4.7947845695086837 70.251913883112323 0 0 -1 I I #
coedge $-1 $174 $174 $-1 $267 reversed $100 $-1 #
edge $-1 $268 0 $268 6.2831853071796004 $101 $269 forward 7 unknown #
vertex $-1 $104 $270 #
ellipse-curve $-1 44.810159196513951 1.7594092655803273 7.1158869049461346 0.62932039886446345 0 0.77714595512881146 1.1657189326932171 0 -0.94398059829669512 1 I I #
face $-1 $-1 $190 $22 $-1 $271 forward single #
loop $-1 $-1 $272 $105 #
plane-surface $-1 -48.474379711294901 0 0 1 0 0 0 0 -1 forward_v I I I I #
coedge $-1 $273 $274 $275 $276 reversed $106 $-1 #
coedge $-1 $277 $108 $110 $188 forward $66 $-1 #
coedge $-1 $108 $277 $273 $278 forward $66 $-1 #
coedge $-1 $275 $111 $108 $185 forward $190 $-1 #
edge $-1 $192 -5.6744892022988456 $279 7.4338984678791693 $184 $280 forward 7 unknown #
coedge $-1 $281 $282 $109 $187 forward $179 $-1 #
edge $-1 $283 -35.597338331529137 $191 -29.662883675564096 $186 $284 forward 7 unknown #
edge $-1 $192 -9.429941674659025 $283 0 $110 $285 forward 7 unknown #
coedge $-1 $111 $275 $281 $286 forward $190 $-1 #
loop $-1 $-1 $275 $178 #
vertex $-1 $187 $287 #
vertex $-1 $112 $288 #
straight-curve $-1 -54.743105830267012 -4.7947845695086837 10.083114232928679 1 0 0 I I #
coedge $-1 $194 $194 $-1 $289 reversed $115 $-1 #
edge $-1 $290 0 $290 6.2831853071796004 $116 $291 forward 7 unknown #
vertex $-1 $119 $292 #
ellipse-curve $-1 -44.810159196513965 1.7594092655803273 7.1158869049461604 -0.62932039886446345 0 0.77714595512881146 1.1657189326932171 0 0.94398059829669512 1 I I #
face $-1 $-1 $135 $18 $-1 $293 reversed single #
loop $-1 $-1 $214 $120 #
plane-surface $-1 0 27.595794068988702 0 0 -1 0 0 0 -1 forward_v I I I I #
coedge $-1 $294 $212 $215 $295 forward $121 $-1 #
coedge $-1 $218 $123 $124 $206 reversed $75 $-1 #
coedge $-1 $212 $294 $123 $204 reversed $121 $-1 #
edge $-1 $219 -10.083114232928681 $296 10.083114232928681 $203 $297 forward 7 unknown #
coedge $-1 $125 $124 $294 $298 forward $49 $-1 #
edge $-1 $210 -48.474379711294901 $296 48.474379711294901 $202 $299 forward 7 unknown #
coedge $-1 $215 $214 $125 $208 reversed $199 $-1 #
edge $-1 $300 -48.474379711294901 $209 48.474379711294901 $207 $301 forward 7 unknown #
vertex $-1 $127 $302 #
vertex $-1 $221 $303 #
straight-curve $-1 48.474379711294901 0 -10.083114232928681 0 -1 0 I I #
coedge $-1 $201 $203 $128 $213 reversed $121 $-1 #
edge $-1 $216 -27.595794068988702 $219 27.595794068988702 $212 $304 forward 7 unknown #
coedge $-1 $207 $129 $134 $222 forward $199 $-1 #
coedge $-1 $129 $207 $201 $295 reversed $199 $-1 #
vertex $-1 $130 $305 #
straight-curve $-1 0 27.595794068988702 10.083114232928681 -1 0 0 I I #
coedge $-1 $131 $202 $133 $221 reversed $75 $-1 #
vertex $-1 $213 $306 #
straight-curve $-1 0 -27.595794068988702 10.083114232928681 1 0 0 I I #
edge $-1 $136 -10.083114232928681 $210 10.083114232928681 $133 $307 forward 7 unknown #
edge $-1 $137 -10.083114232928681 $209 10.083114232928681 $134 $308 forward 7 unknown #
point $-1 48.474379711294901 -27.595794068988702 10.083114232928681 #
point $-1 48.474379711294901 27.595794068988702 10.083114232928681 #
face $-1 $-1 $154 $19 $-1 $309 reversed single #
loop $-1 $-1 $150 $139 #
plane-surface $-1 0 -27.595794068988702 0 0 1 0 0 0 1 forward_v I I I I #
coedge $-1 $310 $311 $147 $238 forward $140 $-1 #
coedge $-1 $239 $142 $144 $234 reversed $83 $-1 #
edge $-1 $236 -5.5226340477166307 $155 0.2836420598134497 $153 $312 forward 7 unknown #
coedge $-1 $144 $143 $313 $314 reversed $53 $-1 #
coedge $-1 $243 $242 $143 $233 forward $226 $-1 #
edge $-1 $315 -48.474379711294901 $235 48.474379711294901 $232 $316 forward 7 unknown #
edge $-1 $317 -48.474379711294901 $236 48.474379711294901 $229 $318 forward 7 unknown #
vertex $-1 $233 $319 #
vertex $-1 $146 $320 #
straight-curve $-1 48.474379711294901 -12.094833284253331 -8.1421300416682207 0 1 0 I I #
edge $-1 $244 -15.500960784735371 $240 -8.688705783771292 $228 $321 forward 7 unknown #
coedge $-1 $148 $229 $310 $322 reversed $83 $-1 #
vertex $-1 $238 $323 #
straight-curve $-1 0 -20.783539068024623 -2.3358539341381404 -1 0 0 I I #
coedge $-1 $232 $150 $311 $324 forward $226 $-1 #
coedge $-1 $150 $232 $152 $246 reversed $226 $-1 #
vertex $-1 $324 $325 #
straight-curve $-1 0 -27.595794068988702 -2.3358539341381404 -1 0 0 I I #
edge $-1 $156 2.3358539341381404 $235 8.1421300416682207 $152 $326 forward 7 unknown #
point $-1 48.474379711294901 -20.783539068024623 -2.3358539341381404 #
point $-1 48.474379711294901 -27.595794068988702 -2.3358539341381404 #
plane-surface $-1 48.474379711294901 0 0 -1 0 0 0 0 1 forward_v I I I I #
coedge $-1 $260 $259 $252 $327 forward $159 $-1 #
coedge $-1 $252 $161 $163 $256 reversed $91 $-1 #
coedge $-1 $161 $251 $250 $327 reversed $91 $-1 #
coedge $-1 $169 $164 $161 $254 forward $170 $-1 #
edge $-1 $257 -66.103254306148727 $328 -60.168799650183644 $253 $329 forward 7 unknown #
coedge $-1 $163 $162 $260 $330 reversed $57 $-1 #
edge $-1 $331 87.51881774793074 $257 96.948759422589831 $251 $332 forward 7 unknown #
vertex $-1 $165 $333 #
straight-curve $-1 48.474379711294901 0.87970463279016187 4.1486595769636025 0 1 0 I I #
coedge $-1 $250 $166 $169 $264 forward $159 $-1 #
coedge $-1 $166 $250 $255 $330 forward $159 $-1 #
vertex $-1 $167 $334 #
straight-curve $-1 17.071437710256049 -4.7947845695086837 10.083114232928679 1 0 0 I I #
straight-curve $-1 -26.868956528727026 -4.7947845695086837 65.160491526202733 -0.77714595512881146 0 0.62932039886446345 I I #
edge $-1 $171 -4.7947845695086837 $328 8.3136031006693312 $169 $335 forward 7 unknown #
point $-1 48.474379711294901 -4.7947845695086837 10.083114232928681 #
point $-1 48.474379711294901 -4.7947845695086837 4.1486595769636025 #
edge $-1 $336 1 $336 0 $174 $-1 forward 7 unknown #
vertex $-1 $175 $337 #
ellipse-curve $-1 41.445627621640625 1.7594092655803273 2.9610365154879918 0.62932039886446345 0 0.77714595512881146 1.1657189326932171 0 -0.94398059829669512 1 I I #
point $-1 45.975878129207175 1.7594092655803273 6.1719063066494559 #
plane-surface $-1 0 0 10.083114232928681 0 0 1 1 0 0 forward_v I I I I #
coedge $-1 $282 $281 $274 $338 forward $179 $-1 #
coedge $-1 $274 $181 $183 $278 reversed $106 $-1 #
coedge $-1 $181 $273 $272 $338 reversed $106 $-1 #
coedge $-1 $189 $184 $181 $276 forward $190 $-1 #
edge $-1 $279 -13.597167148533984 $339 -6.2687261189721113 $275 $340 forward 7 unknown #
coedge $-1 $183 $182 $282 $341 reversed $66 $-1 #
edge $-1 $342 0 $279 9.429941674659025 $273 $343 forward 7 unknown #
vertex $-1 $185 $344 #
straight-curve $-1 -41.145938681733028 0.87970463279016187 10.083114232928679 0 1 0 I I #
coedge $-1 $272 $186 $189 $286 reversed $179 $-1 #
coedge $-1 $186 $272 $277 $341 forward $179 $-1 #
vertex $-1 $187 $345 #
straight-curve $-1 -48.474379711294901 -4.7947845695086837 39.745997908492775 0 0 1 I I #
straight-curve $-1 -48.474379711294901 -4.7947845695086837 4.1486595769636381 -0.77714595512881146 0 -0.62932039886446345 I I #
edge $-1 $339 -8.3136031006693312 $191 4.7947845695086837 $281 $346 forward 7 unknown #
point $-1 -48.474379711294901 -4.7947845695086837 10.083114232928681 #
point $-1 -41.145938681733028 -4.7947845695086837 10.083114232928681 #
edge $-1 $347 1 $347 0 $194 $-1 forward 7 unknown #
vertex $-1 $195 $348 #
ellipse-curve $-1 -41.445627621640625 1.7594092655803273 2.9610365154879972 -0.62932039886446345 0 0.77714595512881146 1.1657189326932171 0 0.94398059829669512 1 I I #
point $-1 -43.644440263820741 1.7594092655803273 8.0598675032428506 #
plane-surface $-1 48.474379711294901 0 0 -1 0 0 0 0 1 forward_v I I I I #
coedge $-1 $203 $201 $205 $298 reversed $121 $-1 #
edge $-1 $216 -10.083114232928681 $300 10.083114232928681 $215 $349 forward 7 unknown #
vertex $-1 $298 $350 #
straight-curve $-1 -48.474379711294901 -27.595794068988702 0 0 0 -1 I I #
edge $-1 $296 -27.595794068988702 $300 27.595794068988702 $294 $351 forward 7 unknown #
straight-curve $-1 0 -27.595794068988702 -10.083114232928681 -1 0 0 I I #
vertex $-1 $208 $352 #
straight-curve $-1 0 27.595794068988702 -10.083114232928681 1 0 0 I I #
point $-1 48.474379711294901 27.595794068988702 -10.083114232928681 #
point $-1 48.474379711294901 -27.595794068988702 -10.083114232928681 #
straight-curve $-1 -48.474379711294901 0 10.083114232928681 0 -1 0 I I #
point $-1 -48.474379711294901 27.595794068988702 10.083114232928681 #
point $-1 -48.474379711294901 -27.595794068988702 10.083114232928681 #
straight-curve $-1 48.474379711294901 -27.595794068988702 0 0 0 -1 I I #
straight-curve $-1 48.474379711294901 27.595794068988702 0 0 0 -1 I I #
plane-surface $-1 48.474379711294901 0 0 -1 0 0 0 0 1 forward_v I I I I #
coedge $-1 $313 $228 $239 $322 forward $140 $-1 #
coedge $-1 $228 $313 $242 $324 reversed $140 $-1 #
straight-curve $-1 48.474379711294901 -20.783539068024623 -2.6194959939515901 0 0 1 I I #
coedge $-1 $311 $310 $231 $314 forward $140 $-1 #
edge $-1 $317 8.688705783771292 $315 15.500960784735371 $313 $353 forward 7 unknown #
vertex $-1 $233 $354 #
straight-curve $-1 0 -27.595794068988702 -8.1421300416682207 1 0 0 I I #
vertex $-1 $314 $355 #
straight-curve $-1 0 -20.783539068024623 -8.1421300416682207 1 0 0 I I #
point $-1 48.474379711294901 -27.595794068988702 -8.1421300416682207 #
point $-1 48.474379711294901 -20.783539068024623 -8.1421300416682207 #
straight-curve $-1 -48.474379711294901 -12.094833284253331 -2.3358539341381404 0 1 0 I I #
edge $-1 $240 -0.2836420598134497 $317 5.5226340477166307 $310 $356 forward 7 unknown #
point $-1 -48.474379711294901 -20.783539068024623 -2.3358539341381404 #
edge $-1 $244 2.3358539341381404 $315 8.1421300416682207 $311 $357 forward 7 unknown #
point $-1 -48.474379711294901 -27.595794068988702 -2.3358539341381404 #
straight-curve $-1 48.474379711294901 -27.595794068988702 0 0 0 -1 I I #
edge $-1 $328 -31.402942001038852 $331 -24.074500971476937 $250 $358 forward 7 unknown #
vertex $-1 $327 $359 #
straight-curve $-1 48.474379711294901 8.3136031006693312 70.251913883112323 0 0 1 I I #
edge $-1 $331 -7.4338984678791693 $261 5.6744892022988456 $260 $360 forward 7 unknown #
vertex $-1 $330 $361 #
straight-curve $-1 -26.868956528727026 8.3136031006693312 65.160491526202733 0.77714595512881146 0 -0.62932039886446345 I I #
point $-1 48.474379711294901 8.3136031006693312 4.1486595769636025 #
point $-1 41.145938681732986 -4.7947845695086837 10.083114232928679 #
straight-curve $-1 48.474379711294901 0 10.083114232928681 0 1 0 I I #
vertex $-1 $267 $362 #
point $-1 42.611346554333842 1.7594092655803273 2.0170559171912963 #
edge $-1 $339 29.662883675564096 $342 35.597338331529137 $272 $363 forward 7 unknown #
vertex $-1 $286 $364 #
straight-curve $-1 -54.743105830267012 8.3136031006693312 10.083114232928679 -1 0 0 I I #
edge $-1 $342 -7.4338984678791693 $283 5.6744892022988456 $282 $365 forward 7 unknown #
vertex $-1 $341 $366 #
straight-curve $-1 -48.474379711294901 8.3136031006693312 4.1486595769636381 0.77714595512881146 0 0.62932039886446345 I I #
point $-1 -41.145938681733028 8.3136031006693312 10.083114232928681 #
point $-1 -48.474379711294901 -4.7947845695086837 4.1486595769636381 #
straight-curve $-1 -48.474379711294901 0 10.083114232928681 0 -1 0 I I #
vertex $-1 $289 $367 #
point $-1 -40.279908688947408 1.7594092655803273 3.9050171137846919 #
straight-curve $-1 -48.474379711294901 27.595794068988702 0 0 0 -1 I I #
point $-1 -48.474379711294901 -27.595794068988702 -10.083114232928681 #
straight-curve $-1 -48.474379711294901 0 -10.083114232928681 0 1 0 I I #
point $-1 -48.474379711294901 27.595794068988702 -10.083114232928681 #
straight-curve $-1 -48.474379711294901 -12.094833284253331 -8.1421300416682207 0 -1 0 I I #
point $-1 -48.474379711294901 -27.595794068988702 -8.1421300416682207 #
point $-1 -48.474379711294901 -20.783539068024623 -8.1421300416682207 #
straight-curve $-1 -48.474379711294901 -20.783539068024623 -2.6194959939515901 0 0 -1 I I #
straight-curve $-1 -48.474379711294901 -27.595794068988702 0 0 0 -1 I I #
straight-curve $-1 17.071437710256049 8.3136031006693312 10.083114232928679 -1 0 0 I I #
point $-1 48.474379711294901 8.3136031006693312 10.083114232928681 #
straight-curve $-1 41.145938681732993 0.87970463279016187 10.083114232928679 0 -1 0 I I #
point $-1 41.145938681732986 8.3136031006693312 10.083114232928679 #
point $-1 40.501647023343935 1.7594092655803273 1.7953175827947752 #
straight-curve $-1 -48.474379711294901 8.3136031006693312 39.745997908492775 0 0 -1 I I #
point $-1 -48.474379711294901 8.3136031006693312 10.083114232928681 #
straight-curve $-1 -48.474379711294901 0.87970463279016187 4.148659576963639 0 -1 0 I I #
point $-1 -48.474379711294901 8.3136031006693312 4.1486595769636381 #
point $-1 -40.501647023343935 1.7594092655803273 1.7953175827947805 #
End-of-ACIS-data 