500 0 5 0           
7 Unknown 11 ACIS 5.0 NT 24 Fri Mar 26 01:51:05 1999 
-1 9.9999999999999995e-007 1e-010 
body $-1 $5 $-1 $6 #
body $-1 $7 $-1 $8 #
body $-1 $9 $-1 $10 #
body $-1 $11 $-1 $12 #
body $-1 $13 $-1 $14 #
lump $-1 $-1 $15 $0 #
transform $-1 1 0 0 0 1 0 0 0 1 78.947721793267618 53.363860473591956 24.692450212547801 1 rotate no_reflect no_shear #
lump $-1 $-1 $16 $1 #
transform $-1 1 0 0 0 1 0 0 0 1 78.947721793267618 53.363860473591956 24.692450212547801 1 rotate no_reflect no_shear #
lump $-1 $-1 $17 $2 #
transform $-1 1 0 0 0 1 0 0 0 1 78.947721793267618 53.363860473591956 24.692450212547801 1 rotate no_reflect no_shear #
lump $-1 $-1 $18 $3 #
transform $-1 1 0 0 0 1 0 0 0 1 78.947721793267618 53.363860473591956 24.692450212547801 1 rotate no_reflect no_shear #
lump $-1 $-1 $19 $4 #
transform $-1 1 0 0 0 1 0 0 0 1 78.947721793267618 53.363860473591956 24.692450212547801 1 rotate no_reflect no_shear #
shell $-1 $-1 $-1 $20 $-1 $5 #
shell $-1 $-1 $-1 $21 $-1 $7 #
shell $-1 $-1 $-1 $22 $-1 $9 #
shell $-1 $-1 $-1 $23 $-1 $11 #
shell $-1 $-1 $-1 $24 $-1 $13 #
face $-1 $25 $26 $15 $-1 $27 forward single #
face $-1 $28 $29 $16 $-1 $30 reversed single #
face $-1 $31 $32 $17 $-1 $33 forward single #
face $-1 $34 $35 $18 $-1 $36 reversed single #
face $-1 $37 $38 $19 $-1 $39 reversed single #
face $-1 $40 $41 $15 $-1 $42 reversed single #
loop $-1 $-1 $43 $20 #
plane-surface $-1 0 0 24.692450212547801 0 0 1 1 0 0 forward_v I I I I #
face $-1 $44 $45 $16 $-1 $46 forward single #
loop $-1 $-1 $47 $21 #
plane-surface $-1 -68.640419226197253 0 18.280901097713642 0 0 1 1 0 0 forward_v I I I I #
face $-1 $48 $49 $17 $-1 $50 forward single #
loop $-1 $-1 $51 $22 #
plane-surface $-1 46.417521586852125 -179.46476989499058 103.15015912589341 1 0 0 0 0.79863551827123203 -0.60181501223851219 forward_v I I I I #
face $-1 $52 $53 $18 $-1 $54 reversed single #
loop $-1 $55 $56 $23 #
cone-surface $-1 55.711864502970826 -45.517195720375675 15.199983407419273 0 0.79863551827123203 -0.60181501223851219 2 0 0 1 I I 0 1 2 forward I I I I #
face $-1 $57 $58 $19 $-1 $59 reversed single #
loop $-1 $60 $61 $24 #
cone-surface $-1 69.653378877148896 -45.517195720375675 15.199983407419273 0 0.79863551827123203 -0.60181501223851219 2 0 0 1 I I 0 1 2 forward I I I I #
face $-1 $62 $63 $15 $-1 $64 reversed single #
loop $-1 $-1 $65 $25 #
plane-surface $-1 0 0 -24.692450212547801 0 0 1 1 0 0 forward_v I I I I #
coedge $-1 $66 $67 $68 $69 forward $26 $-1 #
face $-1 $70 $71 $16 $-1 $72 forward single #
loop $-1 $-1 $73 $28 #
plane-surface $-1 -68.640419226197253 0 13.236910306592467 0 0 1 1 0 0 forward_v I I I I #
coedge $-1 $74 $75 $76 $77 reversed $29 $-1 #
face $-1 $78 $79 $17 $-1 $80 reversed single #
loop $-1 $-1 $81 $31 #
plane-surface $-1 62.682621690059875 -53.363860473591927 8.126310811457401 0 -0.79863551827123203 0.60181501223851219 1 0 0 forward_v I I I I #
coedge $-1 $82 $83 $84 $85 reversed $32 $-1 #
face $-1 $86 $87 $18 $-1 $88 forward single #
loop $-1 $89 $90 $34 #
cone-surface $-1 55.711864502970826 -43.113635991553458 13.388771290597443 0 0.79863551827123203 -0.60181501223851219 1 0 0 1 I I -0.70710678118654746 0.70710678118654746 1 forward I I I I #
loop $-1 $-1 $91 $23 #
coedge $-1 $56 $56 $92 $93 reversed $35 $-1 #
face $-1 $94 $95 $19 $-1 $96 reversed single #
loop $-1 $97 $98 $37 #
cone-surface $-1 69.653378877148896 -43.113635991553458 13.388771290597443 0 0.79863551827123203 -0.60181501223851219 1 0 0 1 I I -0.70710678118654746 0.70710678118654746 1 forward I I I I #
loop $-1 $-1 $99 $24 #
coedge $-1 $61 $61 $100 $101 reversed $38 $-1 #
face $-1 $102 $103 $15 $-1 $104 reversed single #
loop $-1 $-1 $105 $40 #
plane-surface $-1 0 -53.363860473591956 0 0 1 0 0 0 1 forward_v I I I I #
coedge $-1 $106 $107 $108 $109 forward $41 $-1 #
coedge $-1 $110 $43 $111 $112 forward $26 $-1 #
coedge $-1 $43 $110 $113 $114 forward $26 $-1 #
coedge $-1 $115 $116 $43 $69 reversed $117 $-1 #
edge $-1 $118 -53.363860473591956 $119 53.363860473591956 $68 $120 forward 7 unknown #
face $-1 $121 $122 $16 $-1 $123 reversed single #
loop $-1 $-1 $124 $44 #
plane-surface $-1 -58.33311665912688 0 15.758905702153054 -1 0 0 0 0 1 forward_v I I I I #
coedge $-1 $125 $126 $127 $128 reversed $45 $-1 #
coedge $-1 $129 $47 $130 $131 reversed $29 $-1 #
coedge $-1 $47 $129 $132 $133 reversed $29 $-1 #
coedge $-1 $134 $124 $47 $77 forward $71 $-1 #
edge $-1 $135 -53.363860473591956 $136 53.363860473591956 $76 $137 forward 7 unknown #
face $-1 $138 $139 $17 $-1 $140 forward single #
loop $-1 $-1 $141 $48 #
plane-surface $-1 0 -53.363860473591956 0 0 1 0 0 0 1 forward_v I I I I #
coedge $-1 $142 $143 $141 $144 reversed $49 $-1 #
coedge $-1 $83 $51 $143 $145 forward $32 $-1 #
coedge $-1 $51 $82 $146 $147 reversed $32 $-1 #
coedge $-1 $148 $141 $51 $85 forward $79 $-1 #
edge $-1 $149 -43.448768751489339 $150 -26.882629350398904 $84 $151 forward 7 unknown #
face $-1 $152 $153 $18 $-1 $154 forward single #
loop $-1 $-1 $155 $52 #
plane-surface $-1 46.417521586852125 -179.46476989499058 103.15015912589341 1 0 0 0 0.79863551827123203 -0.60181501223851219 forward_v I I I I #
loop $-1 $-1 $156 $34 #
coedge $-1 $90 $90 $91 $157 forward $53 $-1 #
coedge $-1 $91 $91 $90 $157 reversed $55 $-1 #
coedge $-1 $92 $92 $56 $93 forward $153 $-1 #
edge $-1 $158 1.4388295220363729e-015 $158 6.2831853071796022 $92 $159 forward 7 unknown #
face $-1 $160 $161 $19 $-1 $162 reversed single #
loop $-1 $163 $164 $57 #
cone-surface $-1 55.711864502970826 -45.517195720375675 15.199983407419273 0 0.79863551827123203 -0.60181501223851219 2 0 0 1 I I 0 1 2 forward I I I I #
loop $-1 $-1 $165 $37 #
coedge $-1 $98 $98 $99 $166 forward $58 $-1 #
coedge $-1 $99 $99 $98 $166 reversed $60 $-1 #
coedge $-1 $100 $100 $61 $101 forward $167 $-1 #
edge $-1 $168 1.4388295220363729e-015 $168 6.2831853071796022 $100 $169 forward 7 unknown #
face $-1 $170 $171 $15 $-1 $172 reversed single #
loop $-1 $-1 $173 $62 #
plane-surface $-1 -78.947721793267618 0 0 1 0 0 0 0 -1 forward_v I I I I #
coedge $-1 $174 $113 $175 $176 forward $63 $-1 #
coedge $-1 $177 $65 $174 $178 forward $41 $-1 #
coedge $-1 $65 $177 $179 $180 forward $41 $-1 #
coedge $-1 $116 $115 $65 $109 reversed $117 $-1 #
edge $-1 $181 -53.363860473591956 $182 53.363860473591956 $108 $183 forward 7 unknown #
coedge $-1 $67 $66 $184 $185 forward $26 $-1 #
coedge $-1 $186 $187 $66 $112 reversed $171 $-1 #
edge $-1 $119 -78.947721793267618 $188 78.947721793267618 $111 $189 forward 7 unknown #
coedge $-1 $105 $190 $67 $114 reversed $63 $-1 #
edge $-1 $191 -78.947721793267618 $118 78.947721793267618 $113 $192 forward 7 unknown #
coedge $-1 $108 $68 $190 $193 forward $117 $-1 #
coedge $-1 $68 $108 $186 $194 reversed $117 $-1 #
loop $-1 $-1 $115 $170 #
vertex $-1 $69 $195 #
vertex $-1 $69 $196 #
straight-curve $-1 78.947721793267618 0 24.692450212547801 0 1 0 I I #
face $-1 $197 $198 $16 $-1 $123 reversed single #
loop $-1 $-1 $199 $70 #
plane-surface $-1 -78.947721793267618 0 0 1 0 0 0 0 -1 forward_v I I I I #
coedge $-1 $76 $127 $200 $201 reversed $71 $-1 #
coedge $-1 $202 $73 $203 $204 reversed $45 $-1 #
coedge $-1 $73 $202 $205 $206 reversed $45 $-1 #
coedge $-1 $124 $134 $73 $128 forward $71 $-1 #
edge $-1 $207 -53.363860473591956 $208 53.363860473591956 $127 $209 forward 7 unknown #
coedge $-1 $75 $74 $210 $211 reversed $29 $-1 #
coedge $-1 $200 $212 $74 $131 forward $213 $-1 #
edge $-1 $214 -44.627512180168992 $135 -24.012907046028253 $130 $215 forward 7 unknown #
coedge $-1 $216 $217 $75 $133 forward $218 $-1 #
edge $-1 $136 24.012907046028253 $219 44.627512180168992 $132 $220 forward 7 unknown #
coedge $-1 $127 $76 $217 $221 reversed $71 $-1 #
vertex $-1 $131 $222 #
vertex $-1 $133 $223 #
straight-curve $-1 -58.33311665912688 0 18.280901097713642 0 1 0 I I #
face $-1 $224 $225 $17 $-1 $226 reversed single #
loop $-1 $-1 $146 $78 #
plane-surface $-1 0 0 24.692450212547801 0 0 1 1 0 0 forward_v I I I I #
coedge $-1 $84 $227 $81 $144 forward $79 $-1 #
coedge $-1 $228 $81 $229 $230 reversed $49 $-1 #
coedge $-1 $81 $228 $82 $145 reversed $49 $-1 #
edge $-1 $231 -47.606410948237681 $149 -15.076210741822187 $141 $232 forward 7 unknown #
edge $-1 $149 -4.6896506375148425e-014 $233 20.743053648490779 $82 $234 forward 7 unknown #
coedge $-1 $235 $236 $83 $147 forward $139 $-1 #
edge $-1 $150 36.368524473903335 $233 48.852005559233959 $146 $237 forward 7 unknown #
coedge $-1 $238 $84 $236 $239 reversed $79 $-1 #
vertex $-1 $144 $240 #
vertex $-1 $147 $241 #
straight-curve $-1 46.417521586852125 -53.363860473591956 51.575079562946705 0 0 1 I I #
face $-1 $242 $243 $18 $-1 $244 reversed single #
loop $-1 $245 $92 $86 #
plane-surface $-1 62.682621690059875 -53.363860473591927 8.126310811457401 0 -0.79863551827123203 0.60181501223851219 1 0 0 forward_v I I I I #
coedge $-1 $246 $247 $248 $249 reversed $87 $-1 #
coedge $-1 $156 $156 $-1 $250 forward $89 $-1 #
edge $-1 $251 0 $251 6.2831853071796004 $90 $252 forward 7 unknown #
vertex $-1 $93 $253 #
ellipse-curve $-1 55.711864502970826 -47.122119930926644 16.409380512002581 0 0.79863551827123203 -0.60181501223851219 2 0 0 1 I I #
face $-1 $254 $255 $19 $-1 $256 forward single #
loop $-1 $257 $258 $94 #
cone-surface $-1 55.711864502970826 -43.113635991553458 13.388771290597443 0 0.79863551827123203 -0.60181501223851219 1 0 0 1 I I -0.70710678118654746 0.70710678118654746 1 forward I I I I #
loop $-1 $-1 $259 $57 #
coedge $-1 $164 $164 $260 $261 reversed $95 $-1 #
coedge $-1 $165 $165 $-1 $262 forward $97 $-1 #
edge $-1 $263 0 $263 6.2831853071796004 $98 $264 forward 7 unknown #
loop $-1 $265 $100 $254 #
vertex $-1 $101 $266 #
ellipse-curve $-1 69.653378877148896 -47.122119930926644 16.409380512002581 0 0.79863551827123203 -0.60181501223851219 2 0 0 1 I I #
face $-1 $-1 $117 $15 $-1 $267 reversed single #
loop $-1 $-1 $186 $102 #
plane-surface $-1 0 53.363860473591956 0 0 -1 0 0 0 -1 forward_v I I I I #
coedge $-1 $268 $184 $187 $269 forward $103 $-1 #
coedge $-1 $190 $105 $106 $178 reversed $63 $-1 #
coedge $-1 $184 $268 $105 $176 reversed $103 $-1 #
edge $-1 $191 -24.692450212547801 $270 24.692450212547801 $175 $271 forward 7 unknown #
coedge $-1 $107 $106 $268 $272 forward $41 $-1 #
edge $-1 $182 -78.947721793267618 $270 78.947721793267618 $174 $273 forward 7 unknown #
coedge $-1 $187 $186 $107 $180 reversed $171 $-1 #
edge $-1 $274 -78.947721793267618 $181 78.947721793267618 $179 $275 forward 7 unknown #
vertex $-1 $109 $276 #
vertex $-1 $193 $277 #
straight-curve $-1 78.947721793267618 0 -24.692450212547801 0 -1 0 I I #
coedge $-1 $173 $175 $110 $185 reversed $103 $-1 #
edge $-1 $188 -53.363860473591956 $191 53.363860473591956 $184 $278 forward 7 unknown #
coedge $-1 $179 $111 $116 $194 forward $171 $-1 #
coedge $-1 $111 $179 $173 $269 reversed $171 $-1 #
vertex $-1 $112 $279 #
straight-curve $-1 0 53.363860473591956 24.692450212547801 -1 0 0 I I #
coedge $-1 $113 $174 $115 $193 reversed $63 $-1 #
vertex $-1 $185 $280 #
straight-curve $-1 0 -53.363860473591956 24.692450212547801 1 0 0 I I #
edge $-1 $118 -24.692450212547801 $182 24.692450212547801 $115 $281 forward 7 unknown #
edge $-1 $119 -24.692450212547801 $181 24.692450212547801 $116 $282 forward 7 unknown #
point $-1 78.947721793267618 -53.363860473591956 24.692450212547801 #
point $-1 78.947721793267618 53.363860473591956 24.692450212547801 #
face $-1 $283 $213 $16 $-1 $284 reversed single #
loop $-1 $-1 $210 $121 #
coedge $-1 $285 $286 $202 $287 forward $122 $-1 #
coedge $-1 $205 $130 $124 $201 forward $213 $-1 #
edge $-1 $135 -10.401448246637115 $208 -5.3574574555159398 $200 $288 forward 7 unknown #
coedge $-1 $126 $125 $199 $287 reversed $45 $-1 #
coedge $-1 $217 $289 $125 $204 forward $218 $-1 #
edge $-1 $290 -44.627512180168992 $207 -24.012907046028253 $203 $291 forward 7 unknown #
coedge $-1 $292 $200 $126 $206 forward $213 $-1 #
edge $-1 $208 24.012907046028253 $293 44.627512180168992 $205 $294 forward 7 unknown #
vertex $-1 $204 $295 #
vertex $-1 $206 $296 #
straight-curve $-1 -58.33311665912688 0 13.236910306592467 0 -1 0 I I #
coedge $-1 $297 $298 $129 $211 forward $198 $-1 #
edge $-1 $219 -53.363860473591956 $214 53.363860473591956 $210 $299 forward 7 unknown #
coedge $-1 $130 $300 $297 $301 forward $213 $-1 #
loop $-1 $-1 $130 $197 #
vertex $-1 $131 $302 #
straight-curve $-1 -34.320209613098626 -53.363860473591956 18.280901097713642 1 0 0 I I #
coedge $-1 $303 $132 $298 $304 reversed $218 $-1 #
coedge $-1 $132 $203 $134 $221 forward $218 $-1 #
loop $-1 $-1 $132 $305 #
vertex $-1 $211 $306 #
straight-curve $-1 -34.320209613098626 53.363860473591956 18.280901097713642 -1 0 0 I I #
edge $-1 $207 5.3574574555159398 $136 10.401448246637115 $217 $307 forward 7 unknown #
point $-1 -58.33311665912688 -53.363860473591956 18.280901097713642 #
point $-1 -58.33311665912688 53.363860473591956 18.280901097713642 #
face $-1 $308 $309 $17 $-1 $310 forward single #
loop $-1 $-1 $311 $138 #
plane-surface $-1 -68.640419226197253 0 18.280901097713642 0 0 1 1 0 0 forward_v I I I I #
coedge $-1 $141 $312 $313 $314 reversed $79 $-1 #
coedge $-1 $143 $142 $235 $315 reversed $49 $-1 #
coedge $-1 $313 $316 $142 $230 forward $317 $-1 #
edge $-1 $318 -7.9304476997569822 $231 12.81260594873384 $229 $319 forward 7 unknown #
vertex $-1 $314 $320 #
straight-curve $-1 31.341310845029938 -53.363860473591956 8.1263108114573583 -1 0 0 I I #
vertex $-1 $315 $321 #
straight-curve $-1 46.417521586852125 -53.363860473591927 8.126310811457401 0 0.60181501223851219 0.79863551827123203 I I #
coedge $-1 $322 $146 $228 $315 forward $139 $-1 #
coedge $-1 $146 $323 $148 $239 forward $139 $-1 #
straight-curve $-1 46.417521586852125 -89.732384947495291 24.692450212547797 0 1 0 I I #
coedge $-1 $324 $148 $325 $326 forward $79 $-1 #
edge $-1 $327 -78.947721793267618 $150 46.417521586852125 $148 $328 forward 7 unknown #
point $-1 46.417521586852125 -53.363860473591956 8.1263108114573637 #
point $-1 46.417521586852125 -53.363860473591956 24.692450212547801 #
face $-1 $329 $330 $18 $-1 $331 forward single #
loop $-1 $-1 $332 $152 #
plane-surface $-1 0 -53.363860473591956 0 0 1 0 0 0 1 forward_v I I I I #
loop $-1 $-1 $333 $86 #
coedge $-1 $247 $155 $334 $335 forward $87 $-1 #
coedge $-1 $155 $246 $336 $337 reversed $87 $-1 #
coedge $-1 $338 $332 $155 $249 forward $243 $-1 #
edge $-1 $339 -43.448768751489339 $340 -26.882629350398904 $248 $341 forward 7 unknown #
edge $-1 $342 1 $342 0 $156 $-1 forward 7 unknown #
vertex $-1 $157 $343 #
ellipse-curve $-1 55.711864502970826 -43.912271509824691 13.990586302835956 0 -0.79863551827123203 0.60181501223851219 2 0 0 1 I I #
point $-1 57.711864502970826 -47.122119930926658 16.409380512002588 #
face $-1 $344 $167 $19 $-1 $345 forward single #
loop $-1 $-1 $346 $160 #
plane-surface $-1 46.417521586852125 -179.46476989499058 103.15015912589341 1 0 0 0 0.79863551827123203 -0.60181501223851219 forward_v I I I I #
loop $-1 $-1 $347 $94 #
coedge $-1 $258 $258 $259 $348 forward $161 $-1 #
coedge $-1 $259 $259 $258 $348 reversed $163 $-1 #
coedge $-1 $260 $260 $164 $261 forward $265 $-1 #
edge $-1 $349 1.4388295220363729e-015 $349 6.2831853071796022 $260 $350 forward 7 unknown #
edge $-1 $351 1 $351 0 $165 $-1 forward 7 unknown #
vertex $-1 $166 $352 #
ellipse-curve $-1 69.653378877148896 -43.912271509824691 13.990586302835956 0 -0.79863551827123203 0.60181501223851219 2 0 0 1 I I #
loop $-1 $353 $260 $254 #
point $-1 71.653378877148896 -47.122119930926658 16.409380512002588 #
plane-surface $-1 78.947721793267618 0 0 -1 0 0 0 0 1 forward_v I I I I #
coedge $-1 $175 $173 $177 $272 reversed $103 $-1 #
edge $-1 $188 -24.692450212547801 $274 24.692450212547801 $187 $354 forward 7 unknown #
vertex $-1 $272 $355 #
straight-curve $-1 -78.947721793267618 -53.363860473591956 0 0 0 -1 I I #
edge $-1 $270 -53.363860473591956 $274 53.363860473591956 $268 $356 forward 7 unknown #
straight-curve $-1 0 -53.363860473591956 -24.692450212547801 -1 0 0 I I #
vertex $-1 $180 $357 #
straight-curve $-1 0 53.363860473591956 -24.692450212547801 1 0 0 I I #
point $-1 78.947721793267618 53.363860473591956 -24.692450212547801 #
point $-1 78.947721793267618 -53.363860473591956 -24.692450212547801 #
straight-curve $-1 -78.947721793267618 0 24.692450212547801 0 -1 0 I I #
point $-1 -78.947721793267618 53.363860473591956 24.692450212547801 #
point $-1 -78.947721793267618 -53.363860473591956 24.692450212547801 #
straight-curve $-1 78.947721793267618 -53.363860473591956 0 0 0 -1 I I #
straight-curve $-1 78.947721793267618 53.363860473591956 0 0 0 -1 I I #
face $-1 $358 $359 $16 $-1 $360 forward single #
plane-surface $-1 0 -53.363860473591956 0 0 1 0 0 0 1 forward_v I I I I #
coedge $-1 $361 $199 $289 $362 forward $122 $-1 #
coedge $-1 $199 $361 $292 $363 reversed $122 $-1 #
edge $-1 $293 -53.363860473591956 $290 53.363860473591956 $199 $364 forward 7 unknown #
straight-curve $-1 -58.33311665912688 -53.363860473591956 7.8794528510765272 0 0 -1 I I #
coedge $-1 $203 $365 $285 $362 reversed $218 $-1 #
vertex $-1 $362 $366 #
straight-curve $-1 -34.320209613098626 53.363860473591956 13.236910306592467 1 0 0 I I #
coedge $-1 $367 $205 $286 $363 forward $213 $-1 #
vertex $-1 $363 $368 #
straight-curve $-1 -34.320209613098626 -53.363860473591956 13.236910306592467 -1 0 0 I I #
point $-1 -58.33311665912688 53.363860473591956 13.236910306592467 #
point $-1 -58.33311665912688 -53.363860473591956 13.236910306592467 #
coedge $-1 $369 $210 $212 $301 reversed $198 $-1 #
coedge $-1 $210 $369 $216 $304 forward $198 $-1 #
straight-curve $-1 -78.947721793267618 0 18.280901097713642 0 -1 0 I I #
coedge $-1 $212 $370 $371 $372 reversed $213 $-1 #
edge $-1 $373 -24.692450212547801 $214 -18.280901097713642 $297 $374 forward 7 unknown #
point $-1 -78.947721793267618 -53.363860473591956 18.280901097713642 #
coedge $-1 $375 $216 $376 $377 reversed $218 $-1 #
edge $-1 $378 -24.692450212547801 $219 -18.280901097713642 $216 $379 forward 7 unknown #
face $-1 $380 $218 $16 $-1 $381 reversed single #
point $-1 -78.947721793267618 53.363860473591956 18.280901097713642 #
straight-curve $-1 -58.33311665912688 53.363860473591956 7.8794528510765272 0 0 1 I I #
face $-1 $382 $383 $17 $-1 $384 forward single #
loop $-1 $-1 $385 $224 #
plane-surface $-1 -68.640419226197253 0 13.236910306592467 0 0 1 1 0 0 forward_v I I I I #
coedge $-1 $386 $387 $388 $389 reversed $225 $-1 #
coedge $-1 $227 $390 $391 $392 reversed $79 $-1 #
coedge $-1 $393 $229 $227 $314 forward $317 $-1 #
edge $-1 $231 -8.1263108114573637 $394 24.692450212547801 $313 $395 forward 7 unknown #
edge $-1 $233 15.076210741822187 $318 47.606410948237681 $235 $396 forward 7 unknown #
coedge $-1 $229 $397 $322 $398 reversed $317 $-1 #
loop $-1 $-1 $229 $399 #
vertex $-1 $398 $400 #
straight-curve $-1 78.947721793267618 -45.653041867747461 18.358913003729484 0 -0.60181501223851219 -0.79863551827123203 I I #
point $-1 78.947721793267618 -53.363860473591956 8.1263108114573637 #
point $-1 46.417521586852125 -40.880379388261332 24.692450212547801 #
coedge $-1 $401 $235 $316 $398 forward $139 $-1 #
coedge $-1 $236 $401 $402 $403 forward $139 $-1 #
coedge $-1 $404 $238 $386 $405 forward $79 $-1 #
coedge $-1 $402 $406 $238 $326 reversed $407 $-1 #
edge $-1 $327 -24.692450212547801 $408 -18.280901097713642 $325 $409 forward 7 unknown #
vertex $-1 $403 $410 #
straight-curve $-1 0 -53.363860473591956 24.692450212547801 1 0 0 I I #
face $-1 $411 $412 $18 $-1 $413 reversed single #
loop $-1 $-1 $336 $242 #
plane-surface $-1 0 0 24.692450212547801 0 0 1 1 0 0 forward_v I I I I #
coedge $-1 $248 $414 $333 $415 forward $243 $-1 #
coedge $-1 $416 $334 $332 $415 reversed $245 $-1 #
coedge $-1 $333 $417 $246 $335 reversed $245 $-1 #
edge $-1 $339 -4.6896506375148425e-014 $418 20.743053648490779 $246 $419 forward 7 unknown #
coedge $-1 $420 $421 $247 $337 forward $330 $-1 #
edge $-1 $340 36.368524473903335 $418 48.852005559233959 $336 $422 forward 7 unknown #
coedge $-1 $423 $248 $421 $424 reversed $243 $-1 #
vertex $-1 $415 $425 #
vertex $-1 $337 $426 #
straight-curve $-1 46.417521586852125 -53.363860473591956 51.575079562946705 0 0 1 I I #
vertex $-1 $250 $427 #
point $-1 57.711864502970826 -43.912271509824691 13.990586302835956 #
face $-1 $428 $429 $19 $-1 $430 reversed single #
plane-surface $-1 62.682621690059875 -53.363860473591927 8.126310811457401 0 -0.79863551827123203 0.60181501223851219 1 0 0 forward_v I I I I #
coedge $-1 $431 $432 $433 $434 reversed $255 $-1 #
coedge $-1 $347 $347 $-1 $435 forward $257 $-1 #
edge $-1 $436 0 $436 6.2831853071796004 $258 $437 forward 7 unknown #
vertex $-1 $261 $438 #
ellipse-curve $-1 55.711864502970826 -47.122119930926644 16.409380512002581 0 0.79863551827123203 -0.60181501223851219 2 0 0 1 I I #
vertex $-1 $262 $439 #
point $-1 71.653378877148896 -43.912271509824691 13.990586302835956 #
loop $-1 $-1 $440 $254 #
straight-curve $-1 -78.947721793267618 53.363860473591956 0 0 0 -1 I I #
point $-1 -78.947721793267618 -53.363860473591956 -24.692450212547801 #
straight-curve $-1 -78.947721793267618 0 -24.692450212547801 0 1 0 I I #
point $-1 -78.947721793267618 53.363860473591956 -24.692450212547801 #
face $-1 $305 $441 $16 $-1 $442 reversed single #
loop $-1 $-1 $443 $283 #
plane-surface $-1 0 0 24.692450212547801 0 0 1 1 0 0 forward_v I I I I #
coedge $-1 $286 $285 $444 $445 reversed $122 $-1 #
edge $-1 $290 -13.236910306592467 $446 24.692450212547801 $289 $379 forward 7 unknown #
edge $-1 $293 -13.236910306592467 $447 24.692450212547801 $286 $374 forward 7 unknown #
straight-curve $-1 -78.947721793267618 0 13.236910306592467 0 1 0 I I #
coedge $-1 $289 $375 $448 $449 reversed $218 $-1 #
point $-1 -78.947721793267618 53.363860473591956 13.236910306592467 #
coedge $-1 $370 $292 $450 $451 reversed $213 $-1 #
point $-1 -78.947721793267618 -53.363860473591956 13.236910306592467 #
coedge $-1 $298 $297 $452 $453 reversed $198 $-1 #
coedge $-1 $300 $367 $454 $455 reversed $213 $-1 #
coedge $-1 $443 $452 $300 $372 forward $359 $-1 #
edge $-1 $373 -78.947721793267618 $456 78.947721793267618 $300 $457 forward 7 unknown #
vertex $-1 $453 $458 #
straight-curve $-1 -78.947721793267618 -53.363860473591956 0 0 0 -1 I I #
coedge $-1 $365 $303 $459 $460 forward $218 $-1 #
coedge $-1 $452 $443 $303 $377 forward $359 $-1 #
edge $-1 $461 -78.947721793267618 $378 78.947721793267618 $303 $462 forward 7 unknown #
vertex $-1 $377 $463 #
straight-curve $-1 -78.947721793267618 53.363860473591956 0 0 0 -1 I I #
face $-1 $-1 $464 $16 $-1 $465 reversed single #
plane-surface $-1 0 53.363860473591956 0 0 -1 0 0 0 -1 forward_v I I I I #
face $-1 $466 $467 $17 $-1 $468 reversed single #
loop $-1 $-1 $469 $308 #
plane-surface $-1 -58.33311665912688 0 15.758905702153054 -1 0 0 0 0 1 forward_v I I I I #
coedge $-1 $470 $471 $472 $473 reversed $309 $-1 #
coedge $-1 $474 $311 $324 $405 reversed $225 $-1 #
coedge $-1 $311 $474 $475 $476 reversed $225 $-1 #
coedge $-1 $477 $469 $311 $389 forward $383 $-1 #
edge $-1 $478 -53.363860473591956 $479 53.363860473591956 $388 $480 forward 7 unknown #
coedge $-1 $312 $481 $482 $483 forward $79 $-1 #
coedge $-1 $484 $485 $312 $392 forward $486 $-1 #
edge $-1 $394 -78.947721793267618 $487 78.947721793267618 $312 $488 forward 7 unknown #
coedge $-1 $397 $313 $485 $489 reversed $317 $-1 #
vertex $-1 $314 $490 #
straight-curve $-1 78.947721793267618 -53.363860473591956 0 0 0 -1 I I #
straight-curve $-1 31.341310845029938 -40.880379388261332 24.692450212547801 1 0 0 I I #
coedge $-1 $316 $393 $491 $492 reversed $317 $-1 #
edge $-1 $318 -40.880379388261332 $493 53.363860473591956 $316 $494 forward 7 unknown #
face $-1 $-1 $317 $17 $-1 $495 reversed single #
point $-1 78.947721793267618 -40.880379388261332 24.692450212547801 #
coedge $-1 $323 $322 $496 $497 forward $139 $-1 #
coedge $-1 $498 $325 $323 $403 reversed $407 $-1 #
edge $-1 $499 -53.363860473591956 $327 53.363860473591956 $402 $500 forward 7 unknown #
coedge $-1 $481 $324 $469 $501 forward $79 $-1 #
edge $-1 $408 -44.627512180168992 $478 -24.012907046028253 $324 $502 forward 7 unknown #
coedge $-1 $325 $498 $474 $503 forward $407 $-1 #
loop $-1 $-1 $406 $466 #
vertex $-1 $405 $504 #
straight-curve $-1 -78.947721793267618 -53.363860473591956 0 0 0 -1 I I #
point $-1 -78.947721793267618 -53.363860473591956 24.692450212547801 #
face $-1 $505 $506 $18 $-1 $507 forward single #
loop $-1 $-1 $508 $329 #
plane-surface $-1 -68.640419226197253 0 18.280901097713642 0 0 1 1 0 0 forward_v I I I I #
coedge $-1 $332 $509 $510 $511 reversed $243 $-1 #
edge $-1 $512 -47.606410948237681 $339 -15.076210741822187 $332 $513 forward 7 unknown #
coedge $-1 $417 $333 $514 $515 reversed $245 $-1 #
coedge $-1 $334 $416 $420 $516 reversed $245 $-1 #
vertex $-1 $516 $517 #
straight-curve $-1 46.417521586852125 -53.363860473591927 8.126310811457401 0 0.60181501223851219 0.79863551827123203 I I #
coedge $-1 $518 $336 $417 $516 forward $330 $-1 #
coedge $-1 $336 $519 $338 $424 forward $330 $-1 #
straight-curve $-1 46.417521586852125 -89.732384947495291 24.692450212547797 0 1 0 I I #
coedge $-1 $520 $338 $521 $522 forward $243 $-1 #
edge $-1 $523 -78.947721793267618 $340 46.417521586852125 $338 $524 forward 7 unknown #
point $-1 46.417521586852125 -53.363860473591956 8.1263108114573637 #
point $-1 46.417521586852125 -53.363860473591956 24.692450212547801 #
point $-1 55.711864502970826 -42.315000473282225 12.786956278358931 #
face $-1 $525 $526 $19 $-1 $527 forward single #
loop $-1 $-1 $528 $344 #
plane-surface $-1 0 -53.363860473591956 0 0 1 0 0 0 1 forward_v I I I I #
coedge $-1 $432 $346 $529 $530 forward $255 $-1 #
coedge $-1 $346 $431 $531 $532 reversed $255 $-1 #
coedge $-1 $533 $528 $346 $434 forward $429 $-1 #
edge $-1 $534 -43.448768751489339 $535 -26.882629350398904 $433 $536 forward 7 unknown #
edge $-1 $537 1 $537 0 $347 $-1 forward 7 unknown #
vertex $-1 $348 $538 #
ellipse-curve $-1 55.711864502970826 -43.912271509824691 13.990586302835956 0 -0.79863551827123203 0.60181501223851219 2 0 0 1 I I #
point $-1 57.711864502970826 -47.122119930926658 16.409380512002588 #
point $-1 69.653378877148896 -42.315000473282225 12.786956278358931 #
coedge $-1 $539 $529 $528 $540 reversed $353 $-1 #
loop $-1 $-1 $541 $358 #
plane-surface $-1 0 0 -24.692450212547801 0 0 1 1 0 0 forward_v I I I I #
coedge $-1 $376 $371 $542 $543 forward $359 $-1 #
coedge $-1 $448 $450 $361 $445 forward $441 $-1 #
edge $-1 $447 -53.363860473591956 $446 53.363860473591956 $361 $544 forward 7 unknown #
vertex $-1 $449 $545 #
vertex $-1 $445 $546 #
coedge $-1 $541 $444 $365 $449 forward $441 $-1 #
edge $-1 $446 -78.947721793267618 $547 78.947721793267618 $365 $548 forward 7 unknown #
coedge $-1 $444 $541 $367 $451 forward $441 $-1 #
edge $-1 $549 -78.947721793267618 $447 78.947721793267618 $367 $550 forward 7 unknown #
coedge $-1 $371 $376 $369 $453 forward $359 $-1 #
edge $-1 $378 -53.363860473591956 $373 53.363860473591956 $369 $551 forward 7 unknown #
coedge $-1 $552 $542 $370 $455 forward $464 $-1 #
edge $-1 $456 -24.692450212547801 $549 24.692450212547801 $454 $553 forward 7 unknown #
vertex $-1 $543 $554 #
straight-curve $-1 0 -53.363860473591956 24.692450212547801 1 0 0 I I #
point $-1 -78.947721793267618 -53.363860473591956 24.692450212547801 #
coedge $-1 $542 $552 $375 $460 reversed $464 $-1 #
edge $-1 $461 -24.692450212547801 $547 24.692450212547801 $459 $555 forward 7 unknown #
vertex $-1 $543 $556 #
straight-curve $-1 0 53.363860473591956 24.692450212547801 -1 0 0 I I #
point $-1 -78.947721793267618 53.363860473591956 24.692450212547801 #
loop $-1 $-1 $454 $380 #
plane-surface $-1 78.947721793267618 0 0 -1 0 0 0 0 1 forward_v I I I I #
face $-1 $557 $407 $17 $-1 $468 reversed single #
loop $-1 $-1 $558 $382 #
plane-surface $-1 -78.947721793267618 0 0 1 0 0 0 0 -1 forward_v I I I I #
coedge $-1 $388 $472 $404 $501 reversed $383 $-1 #
coedge $-1 $559 $385 $560 $561 reversed $309 $-1 #
coedge $-1 $385 $559 $481 $562 reversed $309 $-1 #
coedge $-1 $469 $477 $385 $473 forward $383 $-1 #
edge $-1 $563 -53.363860473591956 $564 53.363860473591956 $472 $565 forward 7 unknown #
coedge $-1 $387 $386 $406 $503 reversed $225 $-1 #
coedge $-1 $566 $567 $387 $476 forward $568 $-1 #
edge $-1 $479 24.012907046028253 $569 44.627512180168992 $475 $570 forward 7 unknown #
coedge $-1 $472 $388 $567 $571 reversed $383 $-1 #
vertex $-1 $405 $572 #
vertex $-1 $476 $573 #
straight-curve $-1 -58.33311665912688 0 18.280901097713642 0 1 0 I I #
coedge $-1 $390 $404 $471 $562 forward $79 $-1 #
coedge $-1 $558 $574 $390 $483 reversed $467 $-1 #
edge $-1 $575 -13.236910306592467 $487 24.692450212547801 $482 $409 forward 7 unknown #
coedge $-1 $576 $391 $574 $577 forward $486 $-1 #
coedge $-1 $391 $576 $393 $489 forward $486 $-1 #
loop $-1 $-1 $485 $557 #
vertex $-1 $577 $578 #
straight-curve $-1 0 -53.363860473591956 -24.692450212547801 -1 0 0 I I #
edge $-1 $579 -53.363860473591956 $394 53.363860473591956 $393 $580 forward 7 unknown #
point $-1 78.947721793267618 -53.363860473591956 -24.692450212547801 #
coedge $-1 $581 $496 $397 $492 forward $568 $-1 #
edge $-1 $493 -24.692450212547801 $579 24.692450212547801 $397 $582 forward 7 unknown #
vertex $-1 $398 $583 #
straight-curve $-1 78.947721793267618 0 24.692450212547801 0 1 0 I I #
plane-surface $-1 78.947721793267618 0 0 -1 0 0 0 0 1 forward_v I I I I #
coedge $-1 $491 $566 $401 $497 reversed $568 $-1 #
edge $-1 $493 -78.947721793267618 $499 78.947721793267618 $496 $584 forward 7 unknown #
coedge $-1 $406 $402 $566 $585 forward $407 $-1 #
vertex $-1 $497 $586 #
straight-curve $-1 -78.947721793267618 0 24.692450212547801 0 -1 0 I I #
edge $-1 $478 -10.401448246637115 $564 -5.3574574555159398 $404 $587 forward 7 unknown #
straight-curve $-1 -34.320209613098626 -53.363860473591956 18.280901097713642 1 0 0 I I #
edge $-1 $569 -53.363860473591956 $408 53.363860473591956 $406 $588 forward 7 unknown #
point $-1 -78.947721793267618 -53.363860473591956 18.280901097713642 #
face $-1 $589 $590 $18 $-1 $591 forward single #
loop $-1 $-1 $592 $411 #
plane-surface $-1 -68.640419226197253 0 13.236910306592467 0 0 1 1 0 0 forward_v I I I I #
coedge $-1 $593 $594 $595 $596 reversed $412 $-1 #
coedge $-1 $414 $597 $598 $599 reversed $243 $-1 #
coedge $-1 $600 $514 $414 $511 forward $601 $-1 #
edge $-1 $512 -8.1263108114573637 $602 24.692450212547801 $510 $603 forward 7 unknown #
vertex $-1 $511 $604 #
straight-curve $-1 31.341310845029938 -53.363860473591956 8.1263108114573583 -1 0 0 I I #
coedge $-1 $510 $605 $416 $515 forward $601 $-1 #
edge $-1 $606 -7.9304476997569822 $512 12.81260594873384 $514 $607 forward 7 unknown #
edge $-1 $418 15.076210741822187 $606 47.606410948237681 $420 $608 forward 7 unknown #
point $-1 46.417521586852125 -40.880379388261332 24.692450212547801 #
coedge $-1 $609 $420 $605 $610 forward $330 $-1 #
coedge $-1 $421 $609 $611 $612 forward $330 $-1 #
coedge $-1 $613 $423 $593 $614 forward $243 $-1 #
coedge $-1 $611 $615 $423 $522 reversed $616 $-1 #
edge $-1 $523 -24.692450212547801 $617 -18.280901097713642 $521 $618 forward 7 unknown #
vertex $-1 $612 $619 #
straight-curve $-1 0 -53.363860473591956 24.692450212547801 1 0 0 I I #
face $-1 $620 $621 $19 $-1 $622 reversed single #
loop $-1 $-1 $531 $428 #
plane-surface $-1 0 0 24.692450212547801 0 0 1 1 0 0 forward_v I I I I #
coedge $-1 $433 $623 $440 $540 forward $429 $-1 #
coedge $-1 $440 $624 $431 $530 reversed $353 $-1 #
edge $-1 $534 -4.6896506375148425e-014 $625 20.743053648490779 $431 $626 forward 7 unknown #
coedge $-1 $627 $628 $432 $532 forward $526 $-1 #
edge $-1 $535 36.368524473903335 $625 48.852005559233959 $531 $629 forward 7 unknown #
coedge $-1 $630 $433 $628 $631 reversed $429 $-1 #
vertex $-1 $540 $632 #
vertex $-1 $532 $633 #
straight-curve $-1 46.417521586852125 -53.363860473591956 51.575079562946705 0 0 1 I I #
vertex $-1 $435 $634 #
point $-1 57.711864502970826 -43.912271509824691 13.990586302835956 #
coedge $-1 $624 $440 $635 $636 reversed $353 $-1 #
edge $-1 $637 -47.606410948237681 $534 -15.076210741822187 $528 $638 forward 7 unknown #
coedge $-1 $450 $448 $552 $639 forward $441 $-1 #
coedge $-1 $454 $459 $443 $543 reversed $464 $-1 #
edge $-1 $456 -53.363860473591956 $461 53.363860473591956 $542 $640 forward 7 unknown #
straight-curve $-1 -78.947721793267618 0 -24.692450212547801 0 1 0 I I #
point $-1 -78.947721793267618 53.363860473591956 -24.692450212547801 #
point $-1 -78.947721793267618 -53.363860473591956 -24.692450212547801 #
vertex $-1 $639 $641 #
straight-curve $-1 0 53.363860473591956 -24.692450212547801 1 0 0 I I #
vertex $-1 $455 $642 #
straight-curve $-1 0 -53.363860473591956 -24.692450212547801 -1 0 0 I I #
straight-curve $-1 -78.947721793267618 0 24.692450212547801 0 -1 0 I I #
coedge $-1 $459 $454 $541 $639 reversed $464 $-1 #
straight-curve $-1 78.947721793267618 -53.363860473591956 0 0 0 -1 I I #
point $-1 78.947721793267618 -53.363860473591956 24.692450212547801 #
straight-curve $-1 78.947721793267618 53.363860473591956 0 0 0 -1 I I #
point $-1 78.947721793267618 53.363860473591956 24.692450212547801 #
face $-1 $643 $486 $17 $-1 $644 reversed single #
coedge $-1 $645 $482 $559 $646 forward $467 $-1 #
coedge $-1 $471 $470 $558 $646 reversed $309 $-1 #
coedge $-1 $567 $647 $470 $561 forward $568 $-1 #
edge $-1 $648 -44.627512180168992 $563 -24.012907046028253 $560 $649 forward 7 unknown #
edge $-1 $564 24.012907046028253 $575 44.627512180168992 $481 $650 forward 7 unknown #
vertex $-1 $561 $651 #
vertex $-1 $562 $652 #
straight-curve $-1 -58.33311665912688 0 13.236910306592467 0 -1 0 I I #
coedge $-1 $496 $475 $498 $585 reversed $568 $-1 #
coedge $-1 $475 $560 $477 $571 forward $568 $-1 #
loop $-1 $-1 $475 $643 #
vertex $-1 $503 $653 #
straight-curve $-1 -34.320209613098626 53.363860473591956 18.280901097713642 -1 0 0 I I #
edge $-1 $563 5.3574574555159398 $479 10.401448246637115 $567 $654 forward 7 unknown #
point $-1 -58.33311665912688 -53.363860473591956 18.280901097713642 #
point $-1 -58.33311665912688 53.363860473591956 18.280901097713642 #
coedge $-1 $482 $645 $484 $577 reversed $467 $-1 #
vertex $-1 $483 $655 #
coedge $-1 $485 $484 $581 $656 forward $486 $-1 #
edge $-1 $487 -53.363860473591956 $657 53.363860473591956 $574 $658 forward 7 unknown #
point $-1 -78.947721793267618 -53.363860473591956 -24.692450212547801 #
vertex $-1 $489 $659 #
straight-curve $-1 78.947721793267618 0 -24.692450212547801 0 -1 0 I I #
coedge $-1 $647 $491 $576 $656 reversed $568 $-1 #
straight-curve $-1 78.947721793267618 53.363860473591956 0 0 0 -1 I I #
point $-1 78.947721793267618 53.363860473591956 24.692450212547801 #
straight-curve $-1 0 53.363860473591956 24.692450212547801 -1 0 0 I I #
edge $-1 $499 -24.692450212547801 $569 -18.280901097713642 $566 $660 forward 7 unknown #
point $-1 -78.947721793267618 53.363860473591956 24.692450212547801 #
straight-curve $-1 -58.33311665912688 -53.363860473591956 7.8794528510765272 0 0 -1 I I #
straight-curve $-1 -78.947721793267618 0 18.280901097713642 0 -1 0 I I #
face $-1 $661 $662 $18 $-1 $663 reversed single #
loop $-1 $-1 $664 $505 #
plane-surface $-1 -58.33311665912688 0 15.758905702153054 -1 0 0 0 0 1 forward_v I I I I #
coedge $-1 $665 $666 $667 $668 reversed $506 $-1 #
coedge $-1 $669 $508 $520 $614 reversed $412 $-1 #
coedge $-1 $508 $669 $670 $671 reversed $412 $-1 #
coedge $-1 $672 $664 $508 $596 forward $590 $-1 #
edge $-1 $673 -53.363860473591956 $674 53.363860473591956 $595 $675 forward 7 unknown #
coedge $-1 $509 $676 $677 $678 forward $243 $-1 #
coedge $-1 $679 $680 $509 $599 forward $681 $-1 #
edge $-1 $602 -78.947721793267618 $682 78.947721793267618 $509 $683 forward 7 unknown #
coedge $-1 $684 $510 $680 $685 reversed $601 $-1 #
loop $-1 $-1 $514 $686 #
vertex $-1 $511 $687 #
straight-curve $-1 78.947721793267618 -53.363860473591956 0 0 0 -1 I I #
point $-1 78.947721793267618 -53.363860473591956 8.1263108114573637 #
coedge $-1 $514 $684 $518 $610 reversed $601 $-1 #
vertex $-1 $610 $688 #
straight-curve $-1 78.947721793267618 -45.653041867747461 18.358913003729484 0 -0.60181501223851219 -0.79863551827123203 I I #
straight-curve $-1 31.341310845029938 -40.880379388261332 24.692450212547801 1 0 0 I I #
coedge $-1 $519 $518 $689 $690 forward $330 $-1 #
edge $-1 $606 -40.880379388261332 $691 53.363860473591956 $605 $692 forward 7 unknown #
coedge $-1 $693 $521 $519 $612 reversed $616 $-1 #
edge $-1 $694 -53.363860473591956 $523 53.363860473591956 $611 $695 forward 7 unknown #
coedge $-1 $676 $520 $664 $696 forward $243 $-1 #
edge $-1 $617 -44.627512180168992 $673 -24.012907046028253 $520 $697 forward 7 unknown #
coedge $-1 $521 $693 $669 $698 forward $616 $-1 #
loop $-1 $-1 $615 $661 #
vertex $-1 $614 $699 #
straight-curve $-1 -78.947721793267618 -53.363860473591956 0 0 0 -1 I I #
point $-1 -78.947721793267618 -53.363860473591956 24.692450212547801 #
face $-1 $700 $701 $19 $-1 $702 forward single #
loop $-1 $-1 $703 $525 #
plane-surface $-1 -68.640419226197253 0 18.280901097713642 0 0 1 1 0 0 forward_v I I I I #
coedge $-1 $528 $704 $705 $706 reversed $429 $-1 #
coedge $-1 $529 $539 $627 $707 reversed $353 $-1 #
vertex $-1 $707 $708 #
straight-curve $-1 46.417521586852125 -53.363860473591927 8.126310811457401 0 0.60181501223851219 0.79863551827123203 I I #
coedge $-1 $709 $531 $624 $707 forward $526 $-1 #
coedge $-1 $531 $710 $533 $631 forward $526 $-1 #
straight-curve $-1 46.417521586852125 -89.732384947495291 24.692450212547797 0 1 0 I I #
coedge $-1 $711 $533 $712 $713 forward $429 $-1 #
edge $-1 $714 -78.947721793267618 $535 46.417521586852125 $533 $715 forward 7 unknown #
point $-1 46.417521586852125 -53.363860473591956 8.1263108114573637 #
point $-1 46.417521586852125 -53.363860473591956 24.692450212547801 #
point $-1 55.711864502970826 -42.315000473282225 12.786956278358931 #
coedge $-1 $705 $716 $539 $636 forward $717 $-1 #
edge $-1 $718 -7.9304476997569822 $637 12.81260594873384 $635 $719 forward 7 unknown #
vertex $-1 $706 $720 #
straight-curve $-1 31.341310845029938 -53.363860473591956 8.1263108114573583 -1 0 0 I I #
edge $-1 $547 -53.363860473591956 $549 53.363860473591956 $552 $721 forward 7 unknown #
straight-curve $-1 78.947721793267618 0 24.692450212547801 0 1 0 I I #
point $-1 78.947721793267618 53.363860473591956 -24.692450212547801 #
point $-1 78.947721793267618 -53.363860473591956 -24.692450212547801 #
face $-1 $399 $568 $17 $-1 $722 reversed single #
plane-surface $-1 0 0 -24.692450212547801 0 0 1 1 0 0 forward_v I I I I #
coedge $-1 $574 $558 $647 $723 forward $467 $-1 #
edge $-1 $575 -53.363860473591956 $648 53.363860473591956 $558 $724 forward 7 unknown #
coedge $-1 $560 $581 $645 $723 reversed $568 $-1 #
vertex $-1 $723 $725 #
straight-curve $-1 -34.320209613098626 53.363860473591956 13.236910306592467 1 0 0 I I #
straight-curve $-1 -34.320209613098626 -53.363860473591956 13.236910306592467 -1 0 0 I I #
point $-1 -58.33311665912688 53.363860473591956 13.236910306592467 #
point $-1 -58.33311665912688 -53.363860473591956 13.236910306592467 #
point $-1 -78.947721793267618 53.363860473591956 18.280901097713642 #
straight-curve $-1 -58.33311665912688 53.363860473591956 7.8794528510765272 0 0 1 I I #
point $-1 -78.947721793267618 -53.363860473591956 13.236910306592467 #
edge $-1 $657 -78.947721793267618 $579 78.947721793267618 $581 $726 forward 7 unknown #
vertex $-1 $656 $727 #
straight-curve $-1 -78.947721793267618 0 -24.692450212547801 0 1 0 I I #
point $-1 78.947721793267618 53.363860473591956 -24.692450212547801 #
straight-curve $-1 -78.947721793267618 53.363860473591956 0 0 0 -1 I I #
face $-1 $728 $616 $18 $-1 $663 reversed single #
loop $-1 $-1 $729 $589 #
plane-surface $-1 -78.947721793267618 0 0 1 0 0 0 0 -1 forward_v I I I I #
coedge $-1 $595 $667 $613 $696 reversed $590 $-1 #
coedge $-1 $730 $592 $731 $732 reversed $506 $-1 #
coedge $-1 $592 $730 $676 $733 reversed $506 $-1 #
coedge $-1 $664 $672 $592 $668 forward $590 $-1 #
edge $-1 $734 -53.363860473591956 $735 53.363860473591956 $667 $736 forward 7 unknown #
coedge $-1 $594 $593 $615 $698 reversed $412 $-1 #
coedge $-1 $737 $738 $594 $671 forward $739 $-1 #
edge $-1 $674 24.012907046028253 $740 44.627512180168992 $670 $741 forward 7 unknown #
coedge $-1 $667 $595 $738 $742 reversed $590 $-1 #
vertex $-1 $614 $743 #
vertex $-1 $671 $744 #
straight-curve $-1 -58.33311665912688 0 18.280901097713642 0 1 0 I I #
coedge $-1 $597 $613 $666 $733 forward $243 $-1 #
coedge $-1 $729 $745 $597 $678 reversed $662 $-1 #
edge $-1 $746 -13.236910306592467 $682 24.692450212547801 $677 $618 forward 7 unknown #
coedge $-1 $747 $598 $745 $748 forward $681 $-1 #
coedge $-1 $598 $747 $600 $685 forward $681 $-1 #
loop $-1 $-1 $680 $728 #
vertex $-1 $748 $749 #
straight-curve $-1 0 -53.363860473591956 -24.692450212547801 -1 0 0 I I #
coedge $-1 $605 $600 $750 $751 reversed $601 $-1 #
edge $-1 $752 -53.363860473591956 $602 53.363860473591956 $600 $753 forward 7 unknown #
face $-1 $-1 $601 $18 $-1 $754 reversed single #
point $-1 78.947721793267618 -53.363860473591956 -24.692450212547801 #
point $-1 78.947721793267618 -40.880379388261332 24.692450212547801 #
coedge $-1 $750 $737 $609 $690 reversed $739 $-1 #
edge $-1 $691 -78.947721793267618 $694 78.947721793267618 $689 $755 forward 7 unknown #
vertex $-1 $610 $756 #
straight-curve $-1 78.947721793267618 0 24.692450212547801 0 1 0 I I #
coedge $-1 $615 $611 $737 $757 forward $616 $-1 #
vertex $-1 $690 $758 #
straight-curve $-1 -78.947721793267618 0 24.692450212547801 0 -1 0 I I #
edge $-1 $673 -10.401448246637115 $735 -5.3574574555159398 $613 $759 forward 7 unknown #
straight-curve $-1 -34.320209613098626 -53.363860473591956 18.280901097713642 1 0 0 I I #
edge $-1 $740 -53.363860473591956 $617 53.363860473591956 $615 $760 forward 7 unknown #
point $-1 -78.947721793267618 -53.363860473591956 18.280901097713642 #
face $-1 $761 $762 $19 $-1 $763 forward single #
loop $-1 $-1 $764 $620 #
plane-surface $-1 -68.640419226197253 0 13.236910306592467 0 0 1 1 0 0 forward_v I I I I #
coedge $-1 $765 $766 $767 $768 reversed $621 $-1 #
coedge $-1 $623 $769 $770 $771 reversed $429 $-1 #
coedge $-1 $772 $635 $623 $706 forward $717 $-1 #
edge $-1 $637 -8.1263108114573637 $773 24.692450212547801 $705 $774 forward 7 unknown #
edge $-1 $625 15.076210741822187 $718 47.606410948237681 $627 $775 forward 7 unknown #
point $-1 46.417521586852125 -40.880379388261332 24.692450212547801 #
coedge $-1 $776 $627 $716 $777 forward $526 $-1 #
coedge $-1 $628 $776 $778 $779 forward $526 $-1 #
coedge $-1 $780 $630 $765 $781 forward $429 $-1 #
coedge $-1 $778 $782 $630 $713 reversed $783 $-1 #
edge $-1 $714 -24.692450212547801 $784 -18.280901097713642 $712 $785 forward 7 unknown #
vertex $-1 $779 $786 #
straight-curve $-1 0 -53.363860473591956 24.692450212547801 1 0 0 I I #
coedge $-1 $635 $787 $709 $777 reversed $717 $-1 #
loop $-1 $-1 $635 $788 #
vertex $-1 $777 $789 #
straight-curve $-1 78.947721793267618 -45.653041867747461 18.358913003729484 0 -0.60181501223851219 -0.79863551827123203 I I #
point $-1 78.947721793267618 -53.363860473591956 8.1263108114573637 #
straight-curve $-1 78.947721793267618 0 -24.692450212547801 0 -1 0 I I #
plane-surface $-1 0 53.363860473591956 0 0 -1 0 0 0 -1 forward_v I I I I #
edge $-1 $648 -13.236910306592467 $657 24.692450212547801 $647 $660 forward 7 unknown #
straight-curve $-1 -78.947721793267618 0 13.236910306592467 0 1 0 I I #
point $-1 -78.947721793267618 53.363860473591956 13.236910306592467 #
straight-curve $-1 0 53.363860473591956 -24.692450212547801 1 0 0 I I #
point $-1 -78.947721793267618 53.363860473591956 -24.692450212547801 #
face $-1 $790 $681 $18 $-1 $791 reversed single #
coedge $-1 $792 $677 $730 $793 forward $662 $-1 #
coedge $-1 $666 $665 $729 $793 reversed $506 $-1 #
coedge $-1 $738 $794 $665 $732 forward $739 $-1 #
edge $-1 $795 -44.627512180168992 $734 -24.012907046028253 $731 $796 forward 7 unknown #
edge $-1 $735 24.012907046028253 $746 44.627512180168992 $676 $797 forward 7 unknown #
vertex $-1 $732 $798 #
vertex $-1 $733 $799 #
straight-curve $-1 -58.33311665912688 0 13.236910306592467 0 -1 0 I I #
coedge $-1 $689 $670 $693 $757 reversed $739 $-1 #
coedge $-1 $670 $731 $672 $742 forward $739 $-1 #
loop $-1 $-1 $670 $790 #
vertex $-1 $698 $800 #
straight-curve $-1 -34.320209613098626 53.363860473591956 18.280901097713642 -1 0 0 I I #
edge $-1 $734 5.3574574555159398 $674 10.401448246637115 $738 $801 forward 7 unknown #
point $-1 -58.33311665912688 -53.363860473591956 18.280901097713642 #
point $-1 -58.33311665912688 53.363860473591956 18.280901097713642 #
coedge $-1 $677 $792 $679 $748 reversed $662 $-1 #
vertex $-1 $678 $802 #
coedge $-1 $680 $679 $803 $804 forward $681 $-1 #
edge $-1 $682 -53.363860473591956 $805 53.363860473591956 $745 $806 forward 7 unknown #
point $-1 -78.947721793267618 -53.363860473591956 -24.692450212547801 #
coedge $-1 $803 $689 $684 $751 forward $739 $-1 #
edge $-1 $691 -24.692450212547801 $752 24.692450212547801 $684 $807 forward 7 unknown #
vertex $-1 $685 $808 #
straight-curve $-1 78.947721793267618 0 -24.692450212547801 0 -1 0 I I #
plane-surface $-1 78.947721793267618 0 0 -1 0 0 0 0 1 forward_v I I I I #
straight-curve $-1 0 53.363860473591956 24.692450212547801 -1 0 0 I I #
point $-1 78.947721793267618 53.363860473591956 24.692450212547801 #
edge $-1 $694 -24.692450212547801 $740 -18.280901097713642 $737 $809 forward 7 unknown #
point $-1 -78.947721793267618 53.363860473591956 24.692450212547801 #
straight-curve $-1 -58.33311665912688 -53.363860473591956 7.8794528510765272 0 0 -1 I I #
straight-curve $-1 -78.947721793267618 0 18.280901097713642 0 -1 0 I I #
face $-1 $810 $811 $19 $-1 $812 reversed single #
loop $-1 $-1 $813 $700 #
plane-surface $-1 -58.33311665912688 0 15.758905702153054 -1 0 0 0 0 1 forward_v I I I I #
coedge $-1 $814 $815 $816 $817 reversed $701 $-1 #
coedge $-1 $818 $703 $711 $781 reversed $621 $-1 #
coedge $-1 $703 $818 $819 $820 reversed $621 $-1 #
coedge $-1 $821 $813 $703 $768 forward $762 $-1 #
edge $-1 $822 -53.363860473591956 $823 53.363860473591956 $767 $824 forward 7 unknown #
coedge $-1 $704 $825 $826 $827 forward $429 $-1 #
coedge $-1 $828 $829 $704 $771 forward $830 $-1 #
edge $-1 $773 -78.947721793267618 $831 78.947721793267618 $704 $832 forward 7 unknown #
coedge $-1 $787 $705 $829 $833 reversed $717 $-1 #
vertex $-1 $706 $834 #
straight-curve $-1 78.947721793267618 -53.363860473591956 0 0 0 -1 I I #
straight-curve $-1 31.341310845029938 -40.880379388261332 24.692450212547801 1 0 0 I I #
coedge $-1 $710 $709 $835 $836 forward $526 $-1 #
edge $-1 $718 -40.880379388261332 $837 53.363860473591956 $716 $838 forward 7 unknown #
coedge $-1 $839 $712 $710 $779 reversed $783 $-1 #
edge $-1 $840 -53.363860473591956 $714 53.363860473591956 $778 $841 forward 7 unknown #
coedge $-1 $825 $711 $813 $842 forward $429 $-1 #
edge $-1 $784 -44.627512180168992 $822 -24.012907046028253 $711 $843 forward 7 unknown #
coedge $-1 $712 $839 $818 $844 forward $783 $-1 #
loop $-1 $-1 $782 $810 #
vertex $-1 $781 $845 #
straight-curve $-1 -78.947721793267618 -53.363860473591956 0 0 0 -1 I I #
point $-1 -78.947721793267618 -53.363860473591956 24.692450212547801 #
coedge $-1 $716 $772 $846 $847 reversed $717 $-1 #
face $-1 $-1 $717 $19 $-1 $848 reversed single #
point $-1 78.947721793267618 -40.880379388261332 24.692450212547801 #
face $-1 $686 $739 $18 $-1 $849 reversed single #
plane-surface $-1 0 0 -24.692450212547801 0 0 1 1 0 0 forward_v I I I I #
coedge $-1 $745 $729 $794 $850 forward $662 $-1 #
edge $-1 $746 -53.363860473591956 $795 53.363860473591956 $729 $851 forward 7 unknown #
coedge $-1 $731 $803 $792 $850 reversed $739 $-1 #
vertex $-1 $850 $852 #
straight-curve $-1 -34.320209613098626 53.363860473591956 13.236910306592467 1 0 0 I I #
straight-curve $-1 -34.320209613098626 -53.363860473591956 13.236910306592467 -1 0 0 I I #
point $-1 -58.33311665912688 53.363860473591956 13.236910306592467 #
point $-1 -58.33311665912688 -53.363860473591956 13.236910306592467 #
point $-1 -78.947721793267618 53.363860473591956 18.280901097713642 #
straight-curve $-1 -58.33311665912688 53.363860473591956 7.8794528510765272 0 0 1 I I #
point $-1 -78.947721793267618 -53.363860473591956 13.236910306592467 #
coedge $-1 $794 $750 $747 $804 reversed $739 $-1 #
edge $-1 $805 -78.947721793267618 $752 78.947721793267618 $803 $853 forward 7 unknown #
vertex $-1 $804 $854 #
straight-curve $-1 -78.947721793267618 0 -24.692450212547801 0 1 0 I I #
straight-curve $-1 78.947721793267618 53.363860473591956 0 0 0 -1 I I #
point $-1 78.947721793267618 53.363860473591956 -24.692450212547801 #
straight-curve $-1 -78.947721793267618 53.363860473591956 0 0 0 -1 I I #
face $-1 $855 $783 $19 $-1 $812 reversed single #
loop $-1 $-1 $856 $761 #
plane-surface $-1 -78.947721793267618 0 0 1 0 0 0 0 -1 forward_v I I I I #
coedge $-1 $767 $816 $780 $842 reversed $762 $-1 #
coedge $-1 $857 $764 $858 $859 reversed $701 $-1 #
coedge $-1 $764 $857 $825 $860 reversed $701 $-1 #
coedge $-1 $813 $821 $764 $817 forward $762 $-1 #
edge $-1 $861 -53.363860473591956 $862 53.363860473591956 $816 $863 forward 7 unknown #
coedge $-1 $766 $765 $782 $844 reversed $621 $-1 #
coedge $-1 $864 $865 $766 $820 forward $866 $-1 #
edge $-1 $823 24.012907046028253 $867 44.627512180168992 $819 $868 forward 7 unknown #
coedge $-1 $816 $767 $865 $869 reversed $762 $-1 #
vertex $-1 $781 $870 #
vertex $-1 $820 $871 #
straight-curve $-1 -58.33311665912688 0 18.280901097713642 0 1 0 I I #
coedge $-1 $769 $780 $815 $860 forward $429 $-1 #
coedge $-1 $856 $872 $769 $827 reversed $811 $-1 #
edge $-1 $873 -13.236910306592467 $831 24.692450212547801 $826 $785 forward 7 unknown #
coedge $-1 $874 $770 $872 $875 forward $830 $-1 #
coedge $-1 $770 $874 $772 $833 forward $830 $-1 #
loop $-1 $-1 $829 $855 #
vertex $-1 $875 $876 #
straight-curve $-1 0 -53.363860473591956 -24.692450212547801 -1 0 0 I I #
edge $-1 $877 -53.363860473591956 $773 53.363860473591956 $772 $878 forward 7 unknown #
point $-1 78.947721793267618 -53.363860473591956 -24.692450212547801 #
coedge $-1 $846 $864 $776 $836 reversed $866 $-1 #
edge $-1 $837 -78.947721793267618 $840 78.947721793267618 $835 $879 forward 7 unknown #
vertex $-1 $777 $880 #
straight-curve $-1 78.947721793267618 0 24.692450212547801 0 1 0 I I #
coedge $-1 $782 $778 $864 $881 forward $783 $-1 #
vertex $-1 $836 $882 #
straight-curve $-1 -78.947721793267618 0 24.692450212547801 0 -1 0 I I #
edge $-1 $822 -10.401448246637115 $862 -5.3574574555159398 $780 $883 forward 7 unknown #
straight-curve $-1 -34.320209613098626 -53.363860473591956 18.280901097713642 1 0 0 I I #
edge $-1 $867 -53.363860473591956 $784 53.363860473591956 $782 $884 forward 7 unknown #
point $-1 -78.947721793267618 -53.363860473591956 18.280901097713642 #
coedge $-1 $885 $835 $787 $847 forward $866 $-1 #
edge $-1 $837 -24.692450212547801 $877 24.692450212547801 $787 $886 forward 7 unknown #
plane-surface $-1 78.947721793267618 0 0 -1 0 0 0 0 1 forward_v I I I I #
plane-surface $-1 0 53.363860473591956 0 0 -1 0 0 0 -1 forward_v I I I I #
edge $-1 $795 -13.236910306592467 $805 24.692450212547801 $794 $809 forward 7 unknown #
straight-curve $-1 -78.947721793267618 0 13.236910306592467 0 1 0 I I #
point $-1 -78.947721793267618 53.363860473591956 13.236910306592467 #
straight-curve $-1 0 53.363860473591956 -24.692450212547801 1 0 0 I I #
point $-1 -78.947721793267618 53.363860473591956 -24.692450212547801 #
face $-1 $887 $830 $19 $-1 $888 reversed single #
coedge $-1 $889 $826 $857 $890 forward $811 $-1 #
coedge $-1 $815 $814 $856 $890 reversed $701 $-1 #
coedge $-1 $865 $891 $814 $859 forward $866 $-1 #
edge $-1 $892 -44.627512180168992 $861 -24.012907046028253 $858 $893 forward 7 unknown #
edge $-1 $862 24.012907046028253 $873 44.627512180168992 $825 $894 forward 7 unknown #
vertex $-1 $859 $895 #
vertex $-1 $860 $896 #
straight-curve $-1 -58.33311665912688 0 13.236910306592467 0 -1 0 I I #
coedge $-1 $835 $819 $839 $881 reversed $866 $-1 #
coedge $-1 $819 $858 $821 $869 forward $866 $-1 #
loop $-1 $-1 $819 $887 #
vertex $-1 $844 $897 #
straight-curve $-1 -34.320209613098626 53.363860473591956 18.280901097713642 -1 0 0 I I #
edge $-1 $861 5.3574574555159398 $823 10.401448246637115 $865 $898 forward 7 unknown #
point $-1 -58.33311665912688 -53.363860473591956 18.280901097713642 #
point $-1 -58.33311665912688 53.363860473591956 18.280901097713642 #
coedge $-1 $826 $889 $828 $875 reversed $811 $-1 #
vertex $-1 $827 $899 #
coedge $-1 $829 $828 $885 $900 forward $830 $-1 #
edge $-1 $831 -53.363860473591956 $901 53.363860473591956 $872 $902 forward 7 unknown #
point $-1 -78.947721793267618 -53.363860473591956 -24.692450212547801 #
vertex $-1 $833 $903 #
straight-curve $-1 78.947721793267618 0 -24.692450212547801 0 -1 0 I I #
straight-curve $-1 0 53.363860473591956 24.692450212547801 -1 0 0 I I #
point $-1 78.947721793267618 53.363860473591956 24.692450212547801 #
edge $-1 $840 -24.692450212547801 $867 -18.280901097713642 $864 $904 forward 7 unknown #
point $-1 -78.947721793267618 53.363860473591956 24.692450212547801 #
straight-curve $-1 -58.33311665912688 -53.363860473591956 7.8794528510765272 0 0 -1 I I #
straight-curve $-1 -78.947721793267618 0 18.280901097713642 0 -1 0 I I #
coedge $-1 $891 $846 $874 $900 reversed $866 $-1 #
straight-curve $-1 78.947721793267618 53.363860473591956 0 0 0 -1 I I #
face $-1 $788 $866 $19 $-1 $905 reversed single #
plane-surface $-1 0 0 -24.692450212547801 0 0 1 1 0 0 forward_v I I I I #
coedge $-1 $872 $856 $891 $906 forward $811 $-1 #
edge $-1 $873 -53.363860473591956 $892 53.363860473591956 $856 $907 forward 7 unknown #
coedge $-1 $858 $885 $889 $906 reversed $866 $-1 #
vertex $-1 $906 $908 #
straight-curve $-1 -34.320209613098626 53.363860473591956 13.236910306592467 1 0 0 I I #
straight-curve $-1 -34.320209613098626 -53.363860473591956 13.236910306592467 -1 0 0 I I #
point $-1 -58.33311665912688 53.363860473591956 13.236910306592467 #
point $-1 -58.33311665912688 -53.363860473591956 13.236910306592467 #
point $-1 -78.947721793267618 53.363860473591956 18.280901097713642 #
straight-curve $-1 -58.33311665912688 53.363860473591956 7.8794528510765272 0 0 1 I I #
point $-1 -78.947721793267618 -53.363860473591956 13.236910306592467 #
edge $-1 $901 -78.947721793267618 $877 78.947721793267618 $885 $909 forward 7 unknown #
vertex $-1 $900 $910 #
straight-curve $-1 -78.947721793267618 0 -24.692450212547801 0 1 0 I I #
point $-1 78.947721793267618 53.363860473591956 -24.692450212547801 #
straight-curve $-1 -78.947721793267618 53.363860473591956 0 0 0 -1 I I #
plane-surface $-1 0 53.363860473591956 0 0 -1 0 0 0 -1 forward_v I I I I #
edge $-1 $892 -13.236910306592467 $901 24.692450212547801 $891 $904 forward 7 unknown #
straight-curve $-1 -78.947721793267618 0 13.236910306592467 0 1 0 I I #
point $-1 -78.947721793267618 53.363860473591956 13.236910306592467 #
straight-curve $-1 0 53.363860473591956 -24.692450212547801 1 0 0 I I #
point $-1 -78.947721793267618 53.363860473591956 -24.692450212547801 #
End-of-ACIS-data 