500 0 9 0           
7 Unknown 11 ACIS 5.0 NT 24 Fri Mar 26 15:26:38 1999 
-1 9.9999999999999995e-007 1e-010 
body $-1 $9 $-1 $10 #
body $-1 $11 $-1 $12 #
body $-1 $13 $-1 $14 #
body $-1 $15 $-1 $16 #
body $-1 $17 $-1 $18 #
body $-1 $19 $-1 $20 #
body $-1 $21 $-1 $22 #
body $-1 $23 $-1 $24 #
body $-1 $25 $-1 $26 #
lump $-1 $-1 $27 $0 #
transform $-1 1 0 0 0 1 0 0 0 1 51.020844141972105 34.045089599626984 10.135497575132336 1 rotate no_reflect no_shear #
lump $-1 $-1 $28 $1 #
transform $-1 1 0 0 0 1 0 0 0 1 51.020844141972105 34.045089599626984 10.135497575132336 1 rotate no_reflect no_shear #
lump $-1 $-1 $29 $2 #
transform $-1 1 0 0 0 1 0 0 0 1 51.020844141972105 34.045089599626984 10.135497575132336 1 rotate no_reflect no_shear #
lump $-1 $-1 $30 $3 #
transform $-1 1 0 0 0 1 0 0 0 1 51.020844141972105 34.045089599626984 10.135497575132336 1 rotate no_reflect no_shear #
lump $-1 $-1 $31 $4 #
transform $-1 1 0 0 0 1 0 0 0 1 51.020844141972105 34.045089599626984 10.135497575132336 1 rotate no_reflect no_shear #
lump $-1 $-1 $32 $5 #
transform $-1 1 0 0 0 1 0 0 0 1 51.020844141972105 34.045089599626984 10.135497575132336 1 rotate no_reflect no_shear #
lump $-1 $-1 $33 $6 #
transform $-1 1 0 0 0 1 0 0 0 1 51.020844141972105 34.045089599626984 10.135497575132336 1 rotate no_reflect no_shear #
lump $-1 $-1 $34 $7 #
transform $-1 1 0 0 0 1 0 0 0 1 51.020844141972105 34.045089599626984 10.135497575132336 1 rotate no_reflect no_shear #
lump $-1 $-1 $35 $8 #
transform $-1 1 0 0 0 1 0 0 0 1 51.020844141972105 34.045089599626984 10.135497575132336 1 rotate no_reflect no_shear #
shell $-1 $-1 $-1 $36 $-1 $9 #
shell $-1 $-1 $-1 $37 $-1 $11 #
shell $-1 $-1 $-1 $38 $-1 $13 #
shell $-1 $-1 $-1 $39 $-1 $15 #
shell $-1 $-1 $-1 $40 $-1 $17 #
shell $-1 $-1 $-1 $41 $-1 $19 #
shell $-1 $-1 $-1 $42 $-1 $21 #
shell $-1 $-1 $-1 $43 $-1 $23 #
shell $-1 $-1 $-1 $44 $-1 $25 #
face $-1 $45 $46 $27 $-1 $47 forward single #
face $-1 $48 $49 $28 $-1 $50 forward single #
face $-1 $51 $52 $29 $-1 $53 reversed single #
face $-1 $54 $55 $30 $-1 $56 forward single #
face $-1 $57 $58 $31 $-1 $59 forward single #
face $-1 $60 $61 $32 $-1 $62 reversed single #
face $-1 $63 $64 $33 $-1 $65 forward single #
face $-1 $66 $67 $34 $-1 $68 reversed single #
face $-1 $69 $70 $35 $-1 $71 forward single #
face $-1 $72 $73 $27 $-1 $74 reversed single #
loop $-1 $-1 $75 $36 #
plane-surface $-1 0 0 10.135497575132336 0 0 1 1 0 0 forward_v I I I I #
face $-1 $76 $77 $28 $-1 $78 reversed single #
loop $-1 $-1 $79 $37 #
plane-surface $-1 0 -34.045089599626984 0 0 1 0 0 0 1 forward_v I I I I #
face $-1 $80 $81 $29 $-1 $82 reversed single #
loop $-1 $-1 $83 $38 #
plane-surface $-1 -139.39153923021667 18.790572338954227 51.889506364067913 0 1 0 -0.86602541151947299 0 0.49999998660252726 forward_v I I I I #
face $-1 $84 $85 $30 $-1 $86 forward single #
loop $-1 $87 $88 $39 #
cone-surface $-1 -47.42458170520478 22.504604717464971 4.9702497910313479 0.86602541151947299 0 -0.49999998660252726 0.49999998660252726 0 0.86602541151947299 1 I I 0 1 1 forward I I I I #
face $-1 $89 $90 $31 $-1 $91 forward single #
loop $-1 $92 $93 $40 #
cone-surface $-1 -47.42458170520478 28.075653285231084 4.9702497910313479 0.86602541151947299 0 -0.49999998660252726 0.49999998660252726 0 0.86602541151947299 1 I I 0 1 1 forward I I I I #
face $-1 $94 $95 $32 $-1 $96 reversed single #
loop $-1 $-1 $97 $41 #
plane-surface $-1 85.932290083122297 -11.293200571677453 144.55035288772874 0 -1 0 -0.85716730853699208 0 -0.51503806187062418 forward_v I I I I #
face $-1 $98 $99 $33 $-1 $100 forward single #
loop $-1 $101 $102 $42 #
cone-surface $-1 48.529784941191991 -16.669927614446873 6.8472805542299477 -0.85716730853699208 0 -0.51503806187062418 0.51503806187062418 0 -0.85716730853699208 1 I I 0 1 1 forward I I I I #
face $-1 $103 $104 $34 $-1 $105 reversed single #
loop $-1 $-1 $106 $43 #
plane-surface $-1 85.932290083122297 31.707914753717997 144.55035288772874 0 -1 0 -0.85716730853699208 0 -0.51503806187062418 forward_v I I I I #
face $-1 $107 $108 $35 $-1 $109 forward single #
loop $-1 $110 $111 $44 #
cone-surface $-1 48.529784941191991 26.331187710948576 6.8472805542299477 -0.85716730853699208 0 -0.51503806187062418 0.51503806187062418 0 -0.85716730853699208 1 I I 0 1 1 forward I I I I #
face $-1 $112 $113 $27 $-1 $114 reversed single #
loop $-1 $-1 $115 $45 #
plane-surface $-1 0 0 -10.135497575132336 0 0 1 1 0 0 forward_v I I I I #
coedge $-1 $116 $117 $118 $119 forward $46 $-1 #
face $-1 $120 $121 $28 $-1 $122 forward single #
loop $-1 $-1 $123 $48 #
plane-surface $-1 -51.020844141972105 0 0 1 0 0 0 0 -1 forward_v I I I I #
coedge $-1 $124 $125 $126 $127 forward $49 $-1 #
face $-1 $128 $129 $29 $-1 $130 reversed single #
loop $-1 $-1 $131 $51 #
plane-surface $-1 -51.020844141972091 25.290129001348028 0.86866358919654374 -0.86602541151947299 0 0.49999998660252726 0.49999998660252726 0 0.86602541151947299 forward_v I I I I #
coedge $-1 $132 $133 $134 $135 reversed $52 $-1 #
face $-1 $-1 $136 $30 $-1 $137 forward single #
loop $-1 $138 $139 $54 #
cone-surface $-1 -46.070411015263147 22.504604717464971 4.1884190065969964 0.86602541151947299 0 -0.49999998660252726 0.24999999330126363 0 0.43301270575973649 1 I I -0.70710678118654746 0.70710678118654746 0.5 forward I I I I #
loop $-1 $-1 $140 $39 #
coedge $-1 $88 $88 $141 $142 reversed $55 $-1 #
face $-1 $-1 $143 $31 $-1 $144 forward single #
loop $-1 $145 $146 $57 #
cone-surface $-1 -46.070411015263147 28.075653285231084 4.1884190065969964 0.86602541151947299 0 -0.49999998660252726 0.24999999330126363 0 0.43301270575973649 1 I I -0.70710678118654746 0.70710678118654746 0.5 forward I I I I #
loop $-1 $-1 $147 $40 #
coedge $-1 $93 $93 $148 $149 reversed $58 $-1 #
face $-1 $150 $151 $32 $-1 $152 reversed single #
loop $-1 $-1 $153 $60 #
plane-surface $-1 -1.5345092217968812 -16.669927614446873 91.994999523959734 0.85716730853699208 0 0.51503806187062418 0.51503806187062418 0 -0.85716730853699208 forward_v I I I I #
coedge $-1 $154 $155 $156 $157 reversed $61 $-1 #
face $-1 $-1 $158 $33 $-1 $159 forward single #
loop $-1 $160 $161 $63 #
cone-surface $-1 47.294744108322078 -16.669927614446873 6.1051931804381478 -0.85716730853699208 0 -0.51503806187062418 0.25751903093531209 0 -0.42858365426849604 1 I I -0.70710678118654746 0.70710678118654746 0.5 forward I I I I #
loop $-1 $-1 $162 $42 #
coedge $-1 $102 $102 $163 $164 reversed $64 $-1 #
face $-1 $165 $166 $34 $-1 $167 reversed single #
loop $-1 $-1 $168 $66 #
plane-surface $-1 -1.5345092217968812 26.331187710948576 91.994999523959734 0.85716730853699208 0 0.51503806187062418 0.51503806187062418 0 -0.85716730853699208 forward_v I I I I #
coedge $-1 $169 $170 $171 $172 reversed $67 $-1 #
face $-1 $-1 $173 $35 $-1 $174 forward single #
loop $-1 $175 $176 $69 #
cone-surface $-1 47.294744108322078 26.331187710948576 6.1051931804381478 -0.85716730853699208 0 -0.51503806187062418 0.25751903093531209 0 -0.42858365426849604 1 I I -0.70710678118654746 0.70710678118654746 0.5 forward I I I I #
loop $-1 $-1 $177 $44 #
coedge $-1 $111 $111 $178 $179 reversed $70 $-1 #
face $-1 $180 $181 $27 $-1 $182 reversed single #
loop $-1 $-1 $183 $72 #
plane-surface $-1 0 -34.045089599626984 0 0 1 0 0 0 1 forward_v I I I I #
coedge $-1 $184 $185 $186 $187 forward $73 $-1 #
coedge $-1 $188 $75 $189 $190 forward $46 $-1 #
coedge $-1 $75 $188 $191 $192 forward $46 $-1 #
coedge $-1 $193 $194 $75 $119 reversed $195 $-1 #
edge $-1 $196 -34.045089599626984 $197 34.045089599626984 $118 $198 forward 7 unknown #
face $-1 $199 $200 $28 $-1 $201 reversed single #
loop $-1 $-1 $202 $76 #
plane-surface $-1 0 -38.875719647877837 5.3234527606095989 0 0 1 1 0 0 forward_v I I I I #
coedge $-1 $203 $204 $125 $205 forward $77 $-1 #
coedge $-1 $206 $79 $207 $208 reversed $49 $-1 #
coedge $-1 $79 $206 $123 $205 reversed $49 $-1 #
coedge $-1 $209 $202 $79 $127 reversed $121 $-1 #
edge $-1 $210 -51.020844141972105 $211 51.020844141972105 $126 $212 forward 7 unknown #
face $-1 $213 $214 $29 $-1 $215 forward single #
loop $-1 $-1 $216 $80 #
plane-surface $-1 -139.39153923021667 31.789685663741828 51.889506364067913 0 -1 0 0.86602541151947299 0 -0.49999998660252726 forward_v I I I I #
coedge $-1 $217 $218 $219 $220 reversed $81 $-1 #
coedge $-1 $133 $83 $221 $222 reversed $52 $-1 #
coedge $-1 $83 $132 $217 $223 reversed $52 $-1 #
coedge $-1 $219 $224 $83 $135 forward $214 $-1 #
edge $-1 $225 18.674925473136227 $226 24.025134378307101 $134 $227 forward 7 unknown #
loop $-1 $-1 $141 $84 #
plane-surface $-1 -51.020844141972091 25.290129001348028 0.86866358919654374 -0.86602541151947299 0 0.49999998660252726 0.49999998660252726 0 0.86602541151947299 forward_v I I I I #
loop $-1 $-1 $228 $54 #
coedge $-1 $139 $139 $140 $229 reversed $85 $-1 #
coedge $-1 $140 $140 $139 $229 forward $87 $-1 #
coedge $-1 $141 $141 $88 $142 forward $136 $-1 #
edge $-1 $230 0 $230 6.2831853071796004 $141 $231 forward 7 unknown #
loop $-1 $-1 $148 $89 #
plane-surface $-1 -51.020844141972091 25.290129001348028 0.86866358919654374 -0.86602541151947299 0 0.49999998660252726 0.49999998660252726 0 0.86602541151947299 forward_v I I I I #
loop $-1 $-1 $232 $57 #
coedge $-1 $146 $146 $147 $233 reversed $90 $-1 #
coedge $-1 $147 $147 $146 $233 forward $92 $-1 #
coedge $-1 $148 $148 $93 $149 forward $143 $-1 #
edge $-1 $234 0 $234 6.2831853071796004 $148 $235 forward 7 unknown #
face $-1 $236 $237 $32 $-1 $238 reversed single #
loop $-1 $-1 $239 $94 #
plane-surface $-1 85.932290083122297 -22.046654657216294 144.55035288772874 0 1 0 0.85716730853699208 0 0.51503806187062418 forward_v I I I I #
coedge $-1 $240 $241 $242 $243 reversed $95 $-1 #
coedge $-1 $155 $97 $244 $245 reversed $61 $-1 #
coedge $-1 $97 $154 $240 $246 reversed $61 $-1 #
coedge $-1 $242 $247 $97 $157 forward $248 $-1 #
edge $-1 $249 -8.0546991004109572 $250 -4.6854950560535755 $156 $251 forward 7 unknown #
loop $-1 $-1 $163 $98 #
plane-surface $-1 -1.5345092217968812 -16.669927614446873 91.994999523959734 0.85716730853699208 0 0.51503806187062418 0.51503806187062418 0 -0.85716730853699208 forward_v I I I I #
loop $-1 $-1 $252 $63 #
coedge $-1 $161 $161 $162 $253 reversed $99 $-1 #
coedge $-1 $162 $162 $161 $253 forward $101 $-1 #
coedge $-1 $163 $163 $102 $164 forward $158 $-1 #
edge $-1 $254 0 $254 6.2831853071796004 $163 $255 forward 7 unknown #
face $-1 $256 $257 $34 $-1 $258 reversed single #
loop $-1 $-1 $259 $103 #
plane-surface $-1 85.932290083122297 20.954460668179156 144.55035288772874 0 1 0 0.85716730853699208 0 0.51503806187062418 forward_v I I I I #
coedge $-1 $260 $261 $262 $263 reversed $104 $-1 #
coedge $-1 $170 $106 $264 $265 reversed $67 $-1 #
coedge $-1 $106 $169 $260 $266 reversed $67 $-1 #
coedge $-1 $262 $267 $106 $172 forward $268 $-1 #
edge $-1 $269 -8.0546991004109572 $270 -4.6854950560535755 $171 $271 forward 7 unknown #
loop $-1 $-1 $178 $107 #
plane-surface $-1 -1.5345092217968812 26.331187710948576 91.994999523959734 0.85716730853699208 0 0.51503806187062418 0.51503806187062418 0 -0.85716730853699208 forward_v I I I I #
loop $-1 $-1 $272 $69 #
coedge $-1 $176 $176 $177 $273 reversed $108 $-1 #
coedge $-1 $177 $177 $176 $273 forward $110 $-1 #
coedge $-1 $178 $178 $111 $179 forward $173 $-1 #
edge $-1 $274 0 $274 6.2831853071796004 $178 $275 forward 7 unknown #
face $-1 $276 $277 $27 $-1 $278 reversed single #
loop $-1 $-1 $279 $112 #
plane-surface $-1 -51.020844141972105 0 0 1 0 0 0 0 -1 forward_v I I I I #
coedge $-1 $280 $191 $281 $282 forward $113 $-1 #
coedge $-1 $283 $115 $280 $284 forward $73 $-1 #
coedge $-1 $115 $283 $285 $286 forward $73 $-1 #
coedge $-1 $194 $193 $115 $187 reversed $195 $-1 #
edge $-1 $287 -34.045089599626984 $288 34.045089599626984 $186 $289 forward 7 unknown #
coedge $-1 $117 $116 $290 $291 forward $46 $-1 #
coedge $-1 $292 $293 $116 $190 reversed $277 $-1 #
edge $-1 $197 -51.020844141972105 $294 51.020844141972105 $189 $295 forward 7 unknown #
coedge $-1 $183 $296 $117 $192 reversed $113 $-1 #
edge $-1 $297 -51.020844141972105 $196 51.020844141972105 $191 $298 forward 7 unknown #
coedge $-1 $186 $118 $296 $299 forward $195 $-1 #
coedge $-1 $118 $186 $292 $300 reversed $195 $-1 #
loop $-1 $-1 $193 $276 #
vertex $-1 $119 $301 #
vertex $-1 $119 $302 #
straight-curve $-1 51.020844141972105 0 10.135497575132336 0 1 0 I I #
face $-1 $303 $304 $28 $-1 $305 reversed single #
loop $-1 $-1 $306 $120 #
plane-surface $-1 0 -38.875719647877837 1.6429744913914943 0 0 1 1 0 0 forward_v I I I I #
coedge $-1 $126 $307 $308 $309 forward $121 $-1 #
coedge $-1 $310 $123 $311 $312 reversed $77 $-1 #
coedge $-1 $123 $310 $209 $313 reversed $77 $-1 #
edge $-1 $210 -5.3234527606095989 $314 -1.6429744913914943 $123 $315 forward 7 unknown #
coedge $-1 $125 $124 $316 $317 forward $49 $-1 #
coedge $-1 $308 $318 $124 $208 forward $319 $-1 #
edge $-1 $320 1.6429744913914943 $211 5.3234527606095989 $207 $321 forward 7 unknown #
coedge $-1 $307 $126 $204 $313 forward $121 $-1 #
vertex $-1 $205 $322 #
vertex $-1 $309 $323 #
straight-curve $-1 0 -34.045089599626984 5.3234527606095989 1 0 0 I I #
face $-1 $-1 $324 $29 $-1 $325 reversed single #
loop $-1 $-1 $134 $128 #
plane-surface $-1 0 0 10.135497575132336 0 0 1 1 0 0 forward_v I I I I #
coedge $-1 $326 $327 $328 $329 reversed $129 $-1 #
coedge $-1 $330 $131 $133 $223 forward $81 $-1 #
coedge $-1 $131 $330 $326 $331 forward $81 $-1 #
coedge $-1 $328 $134 $131 $220 forward $214 $-1 #
edge $-1 $226 6.1455078382802135 $332 19.144621163067814 $219 $333 forward 7 unknown #
coedge $-1 $334 $335 $132 $222 forward $324 $-1 #
edge $-1 $336 -25.076089592837437 $225 -15.809255606901621 $221 $337 forward 7 unknown #
edge $-1 $226 -10.700418097058835 $336 2.8450313176714033e-014 $133 $338 forward 7 unknown #
coedge $-1 $134 $328 $334 $339 forward $214 $-1 #
vertex $-1 $222 $340 #
vertex $-1 $135 $341 #
straight-curve $-1 -69.695769615108333 18.790572338954227 10.135497575132334 1 0 0 I I #
coedge $-1 $228 $228 $-1 $342 reversed $138 $-1 #
edge $-1 $343 0 $343 6.2831853071796004 $139 $344 forward 7 unknown #
vertex $-1 $142 $345 #
ellipse-curve $-1 -48.345739689386669 22.504604717464971 5.5020805821644307 -0.86602541151947299 0 0.49999998660252726 0.49999998660252726 0 0.86602541151947299 1 I I #
coedge $-1 $232 $232 $-1 $346 reversed $145 $-1 #
edge $-1 $347 0 $347 6.2831853071796004 $146 $348 forward 7 unknown #
vertex $-1 $149 $349 #
ellipse-curve $-1 -48.345739689386669 28.075653285231084 5.5020805821644307 -0.86602541151947299 0 0.49999998660252726 0.49999998660252726 0 0.86602541151947299 1 I I #
face $-1 $-1 $248 $32 $-1 $350 forward single #
loop $-1 $-1 $351 $150 #
plane-surface $-1 51.020844141972105 0 0 -1 0 0 0 0 1 forward_v I I I I #
coedge $-1 $352 $353 $354 $355 reversed $151 $-1 #
coedge $-1 $356 $153 $155 $246 forward $95 $-1 #
coedge $-1 $153 $356 $352 $357 forward $95 $-1 #
coedge $-1 $354 $156 $153 $243 forward $248 $-1 #
edge $-1 $250 2.958236764454016 $358 13.711690849992857 $242 $359 forward 7 unknown #
coedge $-1 $360 $361 $154 $245 forward $237 $-1 #
edge $-1 $362 -67.746976224823769 $249 -62.139678868732034 $244 $363 forward 7 unknown #
edge $-1 $250 95.500027980003949 $362 102.04168828394418 $155 $364 forward 7 unknown #
coedge $-1 $156 $354 $360 $365 forward $248 $-1 #
loop $-1 $-1 $354 $236 #
vertex $-1 $245 $366 #
vertex $-1 $157 $367 #
straight-curve $-1 42.966145041561148 -11.293200571677453 10.135497575132334 -1 0 0 I I #
coedge $-1 $252 $252 $-1 $368 reversed $160 $-1 #
edge $-1 $369 0 $369 6.2831853071796004 $161 $370 forward 7 unknown #
vertex $-1 $164 $371 #
ellipse-curve $-1 49.336242119793418 -16.669927614446873 7.3318488970864397 0.85716730853699208 0 0.51503806187062418 0.51503806187062418 0 -0.85716730853699208 1 I I #
face $-1 $-1 $268 $34 $-1 $372 forward single #
loop $-1 $-1 $373 $165 #
plane-surface $-1 51.020844141972105 0 0 -1 0 0 0 0 1 forward_v I I I I #
coedge $-1 $374 $375 $376 $377 reversed $166 $-1 #
coedge $-1 $378 $168 $170 $266 forward $104 $-1 #
coedge $-1 $168 $378 $374 $379 forward $104 $-1 #
coedge $-1 $376 $171 $168 $263 forward $268 $-1 #
edge $-1 $270 -18.542320898243709 $380 -7.7888668127048675 $262 $381 forward 7 unknown #
coedge $-1 $382 $383 $169 $265 forward $257 $-1 #
edge $-1 $384 -67.746976224823769 $269 -62.139678868732034 $264 $385 forward 7 unknown #
edge $-1 $270 95.500027980003949 $384 102.04168828394418 $170 $386 forward 7 unknown #
coedge $-1 $171 $376 $382 $387 forward $268 $-1 #
loop $-1 $-1 $376 $256 #
vertex $-1 $265 $388 #
vertex $-1 $172 $389 #
straight-curve $-1 42.966145041561148 31.707914753717997 10.135497575132334 -1 0 0 I I #
coedge $-1 $272 $272 $-1 $390 reversed $175 $-1 #
edge $-1 $391 0 $391 6.2831853071796004 $176 $392 forward 7 unknown #
vertex $-1 $179 $393 #
ellipse-curve $-1 49.336242119793418 26.331187710948576 7.3318488970864397 0.85716730853699208 0 0.51503806187062418 0.51503806187062418 0 -0.85716730853699208 1 I I #
face $-1 $-1 $195 $27 $-1 $394 reversed single #
loop $-1 $-1 $292 $180 #
plane-surface $-1 0 34.045089599626984 0 0 -1 0 0 0 -1 forward_v I I I I #
coedge $-1 $395 $290 $293 $396 forward $181 $-1 #
coedge $-1 $296 $183 $184 $284 reversed $113 $-1 #
coedge $-1 $290 $395 $183 $282 reversed $181 $-1 #
edge $-1 $297 -10.135497575132336 $397 10.135497575132336 $281 $398 forward 7 unknown #
coedge $-1 $185 $184 $395 $399 forward $73 $-1 #
edge $-1 $288 -51.020844141972105 $397 51.020844141972105 $280 $400 forward 7 unknown #
coedge $-1 $293 $292 $185 $286 reversed $277 $-1 #
edge $-1 $401 -51.020844141972105 $287 51.020844141972105 $285 $402 forward 7 unknown #
vertex $-1 $187 $403 #
vertex $-1 $299 $404 #
straight-curve $-1 51.020844141972105 0 -10.135497575132336 0 -1 0 I I #
coedge $-1 $279 $281 $188 $291 reversed $181 $-1 #
edge $-1 $294 -34.045089599626984 $297 34.045089599626984 $290 $405 forward 7 unknown #
coedge $-1 $285 $189 $194 $300 forward $277 $-1 #
coedge $-1 $189 $285 $279 $396 reversed $277 $-1 #
vertex $-1 $190 $406 #
straight-curve $-1 0 34.045089599626984 10.135497575132336 -1 0 0 I I #
coedge $-1 $191 $280 $193 $299 reversed $113 $-1 #
vertex $-1 $291 $407 #
straight-curve $-1 0 -34.045089599626984 10.135497575132336 1 0 0 I I #
edge $-1 $196 -10.135497575132336 $288 10.135497575132336 $193 $408 forward 7 unknown #
edge $-1 $197 -10.135497575132336 $287 10.135497575132336 $194 $409 forward 7 unknown #
point $-1 51.020844141972105 -34.045089599626984 10.135497575132336 #
point $-1 51.020844141972105 34.045089599626984 10.135497575132336 #
face $-1 $-1 $319 $28 $-1 $410 reversed single #
loop $-1 $-1 $411 $199 #
plane-surface $-1 0 -43.70634969612869 3.4832136260005466 0 1 0 0 0 1 forward_v I I I I #
coedge $-1 $412 $316 $318 $413 forward $200 $-1 #
coedge $-1 $202 $209 $414 $415 forward $121 $-1 #
coedge $-1 $416 $207 $202 $309 reversed $319 $-1 #
edge $-1 $417 -4.8306300482508533 $211 4.8306300482508533 $308 $418 forward 7 unknown #
coedge $-1 $204 $203 $411 $419 reversed $77 $-1 #
coedge $-1 $316 $412 $203 $312 forward $200 $-1 #
edge $-1 $420 -4.8306300482508533 $314 4.8306300482508533 $203 $421 forward 7 unknown #
edge $-1 $210 -4.8306300482508533 $422 4.8306300482508533 $204 $423 forward 7 unknown #
vertex $-1 $205 $424 #
straight-curve $-1 -51.020844141972105 -34.045089599626984 0 0 0 -1 I I #
coedge $-1 $306 $311 $206 $317 reversed $200 $-1 #
edge $-1 $320 -51.020844141972105 $314 51.020844141972105 $316 $425 forward 7 unknown #
coedge $-1 $207 $416 $306 $413 reversed $319 $-1 #
loop $-1 $-1 $207 $303 #
vertex $-1 $208 $426 #
straight-curve $-1 51.020844141972105 -34.045089599626984 0 0 0 1 I I #
point $-1 -51.020844141972105 -34.045089599626984 5.3234527606095989 #
point $-1 51.020844141972105 -34.045089599626984 5.3234527606095989 #
loop $-1 $-1 $221 $213 #
plane-surface $-1 -51.020844141972105 0 0 1 0 0 0 0 -1 forward_v I I I I #
coedge $-1 $327 $216 $218 $331 reversed $129 $-1 #
coedge $-1 $216 $326 $427 $428 reversed $129 $-1 #
coedge $-1 $224 $219 $216 $329 forward $214 $-1 #
edge $-1 $332 -24.025134378307101 $429 -18.674925473136227 $328 $430 forward 7 unknown #
coedge $-1 $218 $217 $335 $431 reversed $81 $-1 #
edge $-1 $432 -2.8450313176714033e-014 $332 10.700418097058835 $326 $433 forward 7 unknown #
vertex $-1 $220 $434 #
straight-curve $-1 -45.670635236801239 12.645064500674014 10.135497575132336 0 1 0 I I #
coedge $-1 $427 $221 $224 $339 reversed $324 $-1 #
coedge $-1 $221 $427 $330 $431 forward $324 $-1 #
vertex $-1 $222 $435 #
straight-curve $-1 -51.020844141972105 18.790572338954227 25.944753182033956 0 0 1 I I #
straight-curve $-1 -51.020844141972091 18.790572338954227 0.86866358919654374 -0.49999998660252726 0 -0.86602541151947299 I I #
edge $-1 $429 -31.789685663741828 $225 -18.790572338954227 $334 $436 forward 7 unknown #
point $-1 -51.020844141972105 18.790572338954227 10.135497575132336 #
point $-1 -45.670635236801232 18.790572338954227 10.135497575132336 #
edge $-1 $437 1 $437 0 $228 $-1 forward 7 unknown #
vertex $-1 $229 $438 #
ellipse-curve $-1 -46.503423721022884 22.504604717464971 4.4384189998982597 -0.86602541151947299 0 0.49999998660252726 0.49999998660252726 0 0.86602541151947299 1 I I #
point $-1 -47.845739702784151 22.504604717464971 6.3681059936839084 #
edge $-1 $439 1 $439 0 $232 $-1 forward 7 unknown #
vertex $-1 $233 $440 #
ellipse-curve $-1 -46.503423721022884 28.075653285231084 4.4384189998982597 -0.86602541151947299 0 0.49999998660252726 0.49999998660252726 0 0.86602541151947299 1 I I #
point $-1 -47.845739702784151 28.075653285231084 6.3681059936839084 #
plane-surface $-1 0 0 10.135497575132336 0 0 1 1 0 0 forward_v I I I I #
coedge $-1 $361 $360 $353 $441 forward $237 $-1 #
coedge $-1 $353 $239 $241 $357 reversed $151 $-1 #
coedge $-1 $239 $352 $351 $441 reversed $151 $-1 #
coedge $-1 $247 $242 $239 $355 forward $248 $-1 #
edge $-1 $358 4.6854950560535755 $442 8.0546991004109572 $354 $443 forward 7 unknown #
coedge $-1 $241 $240 $361 $444 reversed $95 $-1 #
edge $-1 $445 -102.04168828394418 $358 -95.500027980003949 $352 $446 forward 7 unknown #
vertex $-1 $243 $447 #
straight-curve $-1 47.651640097614717 -8.3349638072234367 10.135497575132327 0 -1 0 I I #
coedge $-1 $351 $244 $247 $365 reversed $237 $-1 #
coedge $-1 $244 $351 $356 $444 forward $237 $-1 #
vertex $-1 $245 $448 #
straight-curve $-1 51.020844141972105 -11.293200571677453 72.275176443864368 0 0 1 I I #
straight-curve $-1 -1.5345092217968812 -11.293200571677453 91.994999523959734 0.51503806187062418 0 -0.85716730853699208 I I #
edge $-1 $442 -22.046654657216294 $249 -11.293200571677453 $360 $449 forward 7 unknown #
point $-1 51.020844141972105 -11.293200571677453 10.135497575132336 #
point $-1 47.651640097614724 -11.293200571677453 10.135497575132334 #
edge $-1 $450 1 $450 0 $252 $-1 forward 7 unknown #
vertex $-1 $253 $451 #
ellipse-curve $-1 47.723327762590571 -16.669927614446873 6.3627122113734602 0.85716730853699208 0 0.51503806187062418 0.51503806187062418 0 -0.85716730853699208 1 I I #
point $-1 49.851280181664038 -16.669927614446873 6.4746815885494433 #
plane-surface $-1 0 0 10.135497575132336 0 0 1 1 0 0 forward_v I I I I #
coedge $-1 $383 $382 $375 $452 forward $257 $-1 #
coedge $-1 $375 $259 $261 $379 reversed $166 $-1 #
coedge $-1 $259 $374 $373 $452 reversed $166 $-1 #
coedge $-1 $267 $262 $259 $377 forward $268 $-1 #
edge $-1 $380 4.6854950560535755 $453 8.0546991004109572 $376 $454 forward 7 unknown #
coedge $-1 $261 $260 $383 $455 reversed $104 $-1 #
edge $-1 $456 -102.04168828394418 $380 -95.500027980003949 $374 $457 forward 7 unknown #
vertex $-1 $263 $458 #
straight-curve $-1 47.651640097614717 13.165593855474288 10.135497575132327 0 -1 0 I I #
coedge $-1 $373 $264 $267 $387 reversed $257 $-1 #
coedge $-1 $264 $373 $378 $455 forward $257 $-1 #
vertex $-1 $265 $459 #
straight-curve $-1 51.020844141972105 31.707914753717997 72.275176443864368 0 0 1 I I #
straight-curve $-1 -1.5345092217968812 31.707914753717997 91.994999523959734 0.51503806187062418 0 -0.85716730853699208 I I #
edge $-1 $453 20.954460668179156 $269 31.707914753717997 $382 $460 forward 7 unknown #
point $-1 51.020844141972105 31.707914753717997 10.135497575132336 #
point $-1 47.651640097614724 31.707914753717997 10.135497575132334 #
edge $-1 $461 1 $461 0 $272 $-1 forward 7 unknown #
vertex $-1 $273 $462 #
ellipse-curve $-1 47.723327762590571 26.331187710948576 6.3627122113734602 0.85716730853699208 0 0.51503806187062418 0.51503806187062418 0 -0.85716730853699208 1 I I #
point $-1 49.851280181664038 26.331187710948576 6.4746815885494433 #
plane-surface $-1 51.020844141972105 0 0 -1 0 0 0 0 1 forward_v I I I I #
coedge $-1 $281 $279 $283 $399 reversed $181 $-1 #
edge $-1 $294 -10.135497575132336 $401 10.135497575132336 $293 $463 forward 7 unknown #
vertex $-1 $399 $464 #
straight-curve $-1 -51.020844141972105 -34.045089599626984 0 0 0 -1 I I #
edge $-1 $397 -34.045089599626984 $401 34.045089599626984 $395 $465 forward 7 unknown #
straight-curve $-1 0 -34.045089599626984 -10.135497575132336 -1 0 0 I I #
vertex $-1 $286 $466 #
straight-curve $-1 0 34.045089599626984 -10.135497575132336 1 0 0 I I #
point $-1 51.020844141972105 34.045089599626984 -10.135497575132336 #
point $-1 51.020844141972105 -34.045089599626984 -10.135497575132336 #
straight-curve $-1 -51.020844141972105 0 10.135497575132336 0 -1 0 I I #
point $-1 -51.020844141972105 34.045089599626984 10.135497575132336 #
point $-1 -51.020844141972105 -34.045089599626984 10.135497575132336 #
straight-curve $-1 51.020844141972105 -34.045089599626984 0 0 0 -1 I I #
straight-curve $-1 51.020844141972105 34.045089599626984 0 0 0 -1 I I #
plane-surface $-1 51.020844141972105 0 0 -1 0 0 0 0 1 forward_v I I I I #
coedge $-1 $467 $414 $310 $419 forward $304 $-1 #
coedge $-1 $311 $306 $467 $468 forward $200 $-1 #
edge $-1 $320 -4.8306300482508533 $469 4.8306300482508533 $318 $470 forward 7 unknown #
coedge $-1 $411 $471 $307 $415 reversed $304 $-1 #
edge $-1 $422 -51.020844141972105 $417 51.020844141972105 $414 $472 forward 7 unknown #
coedge $-1 $318 $308 $471 $473 forward $319 $-1 #
vertex $-1 $309 $474 #
straight-curve $-1 51.020844141972105 -38.875719647877837 5.3234527606095989 0 1 0 I I #
edge $-1 $422 -1.8402391346090523 $420 1.8402391346090523 $310 $475 forward 7 unknown #
vertex $-1 $312 $476 #
straight-curve $-1 -51.020844141972105 -38.875719647877837 1.6429744913914943 0 1 0 I I #
vertex $-1 $313 $477 #
straight-curve $-1 -51.020844141972105 -38.875719647877837 5.3234527606095989 0 -1 0 I I #
point $-1 -51.020844141972105 -34.045089599626984 1.6429744913914943 #
straight-curve $-1 0 -34.045089599626984 1.6429744913914943 -1 0 0 I I #
point $-1 51.020844141972105 -34.045089599626984 1.6429744913914943 #
coedge $-1 $335 $334 $327 $428 forward $324 $-1 #
edge $-1 $429 15.809255606901621 $432 25.076089592837437 $427 $478 forward 7 unknown #
vertex $-1 $339 $479 #
straight-curve $-1 -69.695769615108333 31.789685663741828 10.135497575132334 -1 0 0 I I #
edge $-1 $432 -19.144621163067814 $336 -6.1455078382802135 $335 $480 forward 7 unknown #
vertex $-1 $431 $481 #
straight-curve $-1 -51.020844141972091 31.789685663741828 0.86866358919654374 0.49999998660252726 0 0.86602541151947299 I I #
point $-1 -45.670635236801232 31.789685663741828 10.135497575132336 #
point $-1 -51.020844141972105 18.790572338954227 0.86866358919651909 #
straight-curve $-1 -51.020844141972105 0 10.135497575132336 0 -1 0 I I #
vertex $-1 $342 $482 #
point $-1 -46.003423734420359 22.504604717464971 5.3044444114177329 #
vertex $-1 $346 $483 #
point $-1 -46.003423734420359 28.075653285231084 5.3044444114177329 #
edge $-1 $442 62.139678868732034 $445 67.746976224823769 $351 $484 forward 7 unknown #
vertex $-1 $365 $485 #
straight-curve $-1 42.966145041561148 -22.046654657216294 10.135497575132334 1 0 0 I I #
edge $-1 $445 -13.711690849992857 $362 -2.958236764454016 $361 $486 forward 7 unknown #
vertex $-1 $444 $487 #
straight-curve $-1 -1.5345092217968812 -22.046654657216294 91.994999523959734 -0.51503806187062418 0 0.85716730853699208 I I #
point $-1 47.651640097614724 -22.046654657216294 10.135497575132334 #
point $-1 51.020844141972105 -11.293200571677453 4.528200219040599 #
straight-curve $-1 51.020844141972105 0 10.135497575132336 0 1 0 I I #
vertex $-1 $368 $488 #
point $-1 48.238365824461198 -16.669927614446873 5.5055449028364674 #
edge $-1 $453 62.139678868732034 $456 67.746976224823769 $373 $489 forward 7 unknown #
vertex $-1 $387 $490 #
straight-curve $-1 42.966145041561148 20.954460668179156 10.135497575132334 1 0 0 I I #
edge $-1 $456 7.7888668127048675 $384 18.542320898243709 $383 $491 forward 7 unknown #
vertex $-1 $455 $492 #
straight-curve $-1 -1.5345092217968812 20.954460668179156 91.994999523959734 -0.51503806187062418 0 0.85716730853699208 I I #
point $-1 47.651640097614724 20.954460668179156 10.135497575132334 #
point $-1 51.020844141972105 31.707914753717997 4.528200219040599 #
straight-curve $-1 51.020844141972105 0 10.135497575132336 0 1 0 I I #
vertex $-1 $390 $493 #
point $-1 48.238365824461198 26.331187710948576 5.5055449028364674 #
straight-curve $-1 -51.020844141972105 34.045089599626984 0 0 0 -1 I I #
point $-1 -51.020844141972105 -34.045089599626984 -10.135497575132336 #
straight-curve $-1 -51.020844141972105 0 -10.135497575132336 0 1 0 I I #
point $-1 -51.020844141972105 34.045089599626984 -10.135497575132336 #
coedge $-1 $471 $411 $412 $468 reversed $304 $-1 #
edge $-1 $469 -51.020844141972105 $420 51.020844141972105 $467 $494 forward 7 unknown #
vertex $-1 $473 $495 #
straight-curve $-1 51.020844141972105 -38.875719647877837 1.6429744913914943 0 -1 0 I I #
coedge $-1 $414 $467 $416 $473 reversed $304 $-1 #
straight-curve $-1 0 -43.70634969612869 5.3234527606095989 1 0 0 I I #
edge $-1 $417 -1.8402391346090523 $469 1.8402391346090523 $416 $496 forward 7 unknown #
point $-1 51.020844141972105 -43.70634969612869 5.3234527606095989 #
straight-curve $-1 -51.020844141972105 -43.70634969612869 3.4832136260005466 0 0 -1 I I #
point $-1 -51.020844141972105 -43.70634969612869 1.6429744913914943 #
point $-1 -51.020844141972105 -43.70634969612869 5.3234527606095989 #
straight-curve $-1 -51.020844141972105 31.789685663741828 25.944753182033956 0 0 -1 I I #
point $-1 -51.020844141972105 31.789685663741828 10.135497575132336 #
straight-curve $-1 -51.020844141972105 12.645064500674014 0.8686635891965151 0 -1 0 I I #
point $-1 -51.020844141972105 31.789685663741828 0.86866358919651909 #
point $-1 -45.637398309503411 22.504604717464971 3.9384190132957326 #
point $-1 -45.637398309503411 28.075653285231084 3.9384190132957326 #
straight-curve $-1 51.020844141972105 -22.046654657216294 72.275176443864368 0 0 -1 I I #
point $-1 51.020844141972105 -22.046654657216294 10.135497575132336 #
straight-curve $-1 51.020844141972105 -8.3349638072234367 4.5282002190405919 0 1 0 I I #
point $-1 51.020844141972105 -22.046654657216294 4.528200219040599 #
point $-1 46.866160454053585 -16.669927614446873 5.8476741495028355 #
straight-curve $-1 51.020844141972105 20.954460668179156 72.275176443864368 0 0 -1 I I #
point $-1 51.020844141972105 20.954460668179156 10.135497575132336 #
straight-curve $-1 51.020844141972105 13.165593855474288 4.5282002190405919 0 1 0 I I #
point $-1 51.020844141972105 20.954460668179156 4.528200219040599 #
point $-1 46.866160454053585 26.331187710948576 5.8476741495028355 #
straight-curve $-1 0 -43.70634969612869 1.6429744913914943 -1 0 0 I I #
point $-1 51.020844141972105 -43.70634969612869 1.6429744913914943 #
straight-curve $-1 51.020844141972105 -43.70634969612869 3.4832136260005466 0 0 -1 I I #
End-of-ACIS-data 