500 0 4 0           
7 Unknown 11 ACIS 5.0 NT 24 Fri Mar 26 18:30:22 1999 
-1 9.9999999999999995e-007 1e-010 
body $-1 $4 $-1 $5 #
body $-1 $6 $-1 $7 #
body $-1 $8 $-1 $9 #
body $-1 $10 $-1 $11 #
lump $-1 $-1 $12 $0 #
transform $-1 1 0 0 0 1 0 0 0 1 56.635029145176546 32.152871171396427 14.109700770523499 1 rotate no_reflect no_shear #
lump $-1 $-1 $13 $1 #
transform $-1 1 0 0 0 1 0 0 0 1 56.635029145176546 32.152871171396427 14.109700770523499 1 rotate no_reflect no_shear #
lump $-1 $-1 $14 $2 #
transform $-1 1 0 0 0 1 0 0 0 1 56.635029145176546 32.152871171396427 14.109700770523499 1 rotate no_reflect no_shear #
lump $-1 $-1 $15 $3 #
transform $-1 1 0 0 0 1 0 0 0 1 56.635029145176546 32.152871171396427 14.109700770523499 1 rotate no_reflect no_shear #
shell $-1 $-1 $-1 $16 $-1 $4 #
shell $-1 $-1 $-1 $17 $-1 $6 #
shell $-1 $-1 $-1 $18 $-1 $8 #
shell $-1 $-1 $-1 $19 $-1 $10 #
face $-1 $20 $21 $12 $-1 $22 forward single #
face $-1 $23 $24 $13 $-1 $25 reversed single #
face $-1 $26 $27 $14 $-1 $28 reversed single #
face $-1 $29 $30 $15 $-1 $31 forward single #
face $-1 $32 $33 $12 $-1 $34 reversed single #
loop $-1 $-1 $35 $16 #
plane-surface $-1 0 0 14.109700770523499 0 0 1 1 0 0 forward_v I I I I #
face $-1 $36 $37 $13 $-1 $38 reversed single #
loop $-1 $-1 $39 $17 #
plane-surface $-1 -49.451573662343321 -27.94803696715481 0 0 1 0 0 0 1 forward_v I I I I #
face $-1 $40 $41 $14 $-1 $42 reversed single #
loop $-1 $-1 $43 $18 #
plane-surface $-1 -33.826460980315531 -23.067896723312266 75.38230065928829 0.6018150307709319 0 0.79863550430605224 0.79863550430605224 0 -0.6018150307709319 forward_v I I I I #
face $-1 $44 $45 $15 $-1 $46 forward single #
loop $-1 $47 $48 $19 #
cone-surface $-1 49.646852334921633 -23.067896723312266 7.459798730768286 -0.6018150307709319 0 -0.79863550430605224 1.9965887607651305 0 -1.5045375769273297 1 I I 0 1 2.5 forward I I I I #
face $-1 $49 $50 $12 $-1 $51 reversed single #
loop $-1 $-1 $52 $20 #
plane-surface $-1 0 0 -14.109700770523499 0 0 1 1 0 0 forward_v I I I I #
coedge $-1 $53 $54 $55 $56 forward $21 $-1 #
face $-1 $57 $58 $13 $-1 $59 reversed single #
loop $-1 $-1 $60 $23 #
plane-surface $-1 -49.451573662343321 -23.438806200567452 0 0 -1 0 0 0 -1 forward_v I I I I #
coedge $-1 $61 $62 $63 $64 reversed $24 $-1 #
face $-1 $65 $66 $14 $-1 $67 reversed single #
loop $-1 $-1 $68 $26 #
plane-surface $-1 34.341162635118565 -13.982922275228104 165.84379078478037 0 -1 0 -0.6018150307709319 0 -0.79863550430605224 forward_v I I I I #
coedge $-1 $69 $70 $71 $72 reversed $27 $-1 #
face $-1 $-1 $73 $15 $-1 $74 forward single #
loop $-1 $75 $76 $29 #
cone-surface $-1 46.481409411108601 -23.067896723312266 3.2591141739651697 -0.6018150307709319 0 -0.79863550430605224 0.99829438038256524 0 -0.75226878846366485 1 I I -0.70710678118654746 0.70710678118654746 1.25 forward I I I I #
loop $-1 $-1 $77 $19 #
coedge $-1 $48 $48 $78 $79 reversed $30 $-1 #
face $-1 $80 $81 $12 $-1 $82 reversed single #
loop $-1 $-1 $83 $32 #
plane-surface $-1 0 -32.152871171396427 0 0 1 0 0 0 1 forward_v I I I I #
coedge $-1 $84 $85 $86 $87 forward $33 $-1 #
coedge $-1 $88 $35 $89 $90 forward $21 $-1 #
coedge $-1 $35 $88 $91 $92 forward $21 $-1 #
coedge $-1 $93 $94 $35 $56 reversed $95 $-1 #
edge $-1 $96 -32.152871171396427 $97 32.152871171396427 $55 $98 forward 7 unknown #
face $-1 $99 $100 $13 $-1 $101 reversed single #
loop $-1 $-1 $102 $36 #
plane-surface $-1 -42.268118179510097 -25.693421583861131 0 -1 0 0 0 0 1 forward_v I I I I #
coedge $-1 $103 $104 $105 $106 forward $37 $-1 #
coedge $-1 $107 $39 $108 $109 reversed $24 $-1 #
coedge $-1 $39 $107 $110 $111 reversed $24 $-1 #
coedge $-1 $112 $113 $39 $64 forward $114 $-1 #
edge $-1 $115 -14.109700770523499 $116 14.109700770523499 $63 $117 forward 7 unknown #
face $-1 $118 $119 $14 $-1 $120 forward single #
loop $-1 $-1 $71 $40 #
plane-surface $-1 56.635029145176546 0 0 -1 0 0 0 0 1 forward_v I I I I #
coedge $-1 $121 $122 $123 $124 reversed $41 $-1 #
coedge $-1 $125 $43 $126 $127 reversed $27 $-1 #
coedge $-1 $43 $125 $121 $128 forward $27 $-1 #
coedge $-1 $123 $129 $43 $72 forward $66 $-1 #
edge $-1 $130 -20.618922809740294 $131 -2.4489739135719706 $71 $132 forward 7 unknown #
loop $-1 $-1 $78 $44 #
plane-surface $-1 -33.826460980315531 -23.067896723312266 75.38230065928829 0.6018150307709319 0 0.79863550430605224 0.79863550430605224 0 -0.6018150307709319 forward_v I I I I #
loop $-1 $-1 $133 $29 #
coedge $-1 $76 $76 $77 $134 reversed $45 $-1 #
coedge $-1 $77 $77 $76 $134 forward $47 $-1 #
coedge $-1 $78 $78 $48 $79 forward $73 $-1 #
edge $-1 $135 0 $135 6.2831853071796004 $78 $136 forward 7 unknown #
face $-1 $137 $138 $12 $-1 $139 reversed single #
loop $-1 $-1 $140 $49 #
plane-surface $-1 -56.635029145176546 0 0 1 0 0 0 0 -1 forward_v I I I I #
coedge $-1 $141 $91 $142 $143 forward $50 $-1 #
coedge $-1 $144 $52 $141 $145 forward $33 $-1 #
coedge $-1 $52 $144 $146 $147 forward $33 $-1 #
coedge $-1 $94 $93 $52 $87 reversed $95 $-1 #
edge $-1 $148 -32.152871171396427 $149 32.152871171396427 $86 $150 forward 7 unknown #
coedge $-1 $54 $53 $151 $152 forward $21 $-1 #
coedge $-1 $153 $154 $53 $90 reversed $138 $-1 #
edge $-1 $97 -56.635029145176546 $155 56.635029145176546 $89 $156 forward 7 unknown #
coedge $-1 $83 $157 $54 $92 reversed $50 $-1 #
edge $-1 $158 -56.635029145176546 $96 56.635029145176546 $91 $159 forward 7 unknown #
coedge $-1 $86 $55 $157 $160 forward $95 $-1 #
coedge $-1 $55 $86 $153 $161 reversed $95 $-1 #
loop $-1 $-1 $93 $137 #
vertex $-1 $56 $162 #
vertex $-1 $56 $163 #
straight-curve $-1 56.635029145176546 0 14.109700770523499 0 1 0 I I #
face $-1 $164 $165 $13 $-1 $166 forward single #
loop $-1 $-1 $167 $57 #
plane-surface $-1 0 0 -14.109700770523499 0 0 1 1 0 0 forward_v I I I I #
coedge $-1 $168 $169 $107 $170 forward $58 $-1 #
coedge $-1 $171 $60 $167 $172 reversed $37 $-1 #
coedge $-1 $60 $171 $173 $174 reversed $37 $-1 #
coedge $-1 $169 $168 $60 $106 reversed $58 $-1 #
edge $-1 $175 -14.109700770523499 $176 14.109700770523499 $105 $177 forward 7 unknown #
coedge $-1 $62 $61 $102 $170 reversed $24 $-1 #
coedge $-1 $178 $179 $61 $109 forward $100 $-1 #
edge $-1 $180 17.542331348338436 $115 31.909242314004885 $108 $181 forward 7 unknown #
coedge $-1 $182 $183 $62 $111 forward $165 $-1 #
edge $-1 $116 -31.909242314004885 $184 -17.542331348338436 $110 $185 forward 7 unknown #
coedge $-1 $186 $63 $183 $187 reversed $114 $-1 #
coedge $-1 $63 $186 $178 $188 reversed $114 $-1 #
loop $-1 $-1 $186 $164 #
vertex $-1 $188 $189 #
vertex $-1 $64 $190 #
straight-curve $-1 -56.635029145176546 -27.94803696715481 0 0 0 1 I I #
face $-1 $-1 $191 $14 $-1 $192 reversed single #
loop $-1 $-1 $193 $65 #
plane-surface $-1 0 0 14.109700770523499 0 0 1 1 0 0 forward_v I I I I #
coedge $-1 $122 $68 $70 $128 reversed $41 $-1 #
coedge $-1 $68 $121 $194 $195 reversed $41 $-1 #
coedge $-1 $196 $71 $68 $124 forward $66 $-1 #
edge $-1 $131 -75.707218348535989 $197 -68.812194621866681 $123 $198 forward 7 unknown #
coedge $-1 $70 $69 $193 $199 reversed $27 $-1 #
coedge $-1 $200 $201 $69 $127 forward $191 $-1 #
edge $-1 $202 65.622403079793628 $130 77.079451132974853 $126 $203 forward 7 unknown #
edge $-1 $204 101.81301023717188 $131 113.27005829035312 $121 $205 forward 7 unknown #
coedge $-1 $71 $196 $200 $206 forward $66 $-1 #
vertex $-1 $127 $207 #
vertex $-1 $72 $208 #
straight-curve $-1 56.635029145176539 -11.533948361656133 7.2146770438542021 0 1 0 I I #
coedge $-1 $133 $133 $-1 $209 reversed $75 $-1 #
edge $-1 $210 0 $210 6.2831853071796004 $76 $211 forward 7 unknown #
vertex $-1 $79 $212 #
ellipse-curve $-1 52.060026470271012 -23.067896723312266 10.662188907188854 0.6018150307709319 0 0.79863550430605224 1.9965887607651305 0 -1.5045375769273297 1 I I #
face $-1 $-1 $95 $12 $-1 $213 reversed single #
loop $-1 $-1 $153 $80 #
plane-surface $-1 0 32.152871171396427 0 0 -1 0 0 0 -1 forward_v I I I I #
coedge $-1 $214 $151 $154 $215 forward $81 $-1 #
coedge $-1 $157 $83 $84 $145 reversed $50 $-1 #
coedge $-1 $151 $214 $83 $143 reversed $81 $-1 #
edge $-1 $158 -14.109700770523499 $216 14.109700770523499 $142 $217 forward 7 unknown #
coedge $-1 $85 $84 $214 $218 forward $33 $-1 #
edge $-1 $149 -56.635029145176546 $216 56.635029145176546 $141 $219 forward 7 unknown #
coedge $-1 $154 $153 $85 $147 reversed $138 $-1 #
edge $-1 $220 -56.635029145176546 $148 56.635029145176546 $146 $221 forward 7 unknown #
vertex $-1 $87 $222 #
vertex $-1 $160 $223 #
straight-curve $-1 56.635029145176546 0 -14.109700770523499 0 -1 0 I I #
coedge $-1 $140 $142 $88 $152 reversed $81 $-1 #
edge $-1 $155 -32.152871171396427 $158 32.152871171396427 $151 $224 forward 7 unknown #
coedge $-1 $146 $89 $94 $161 forward $138 $-1 #
coedge $-1 $89 $146 $140 $215 reversed $138 $-1 #
vertex $-1 $90 $225 #
straight-curve $-1 0 32.152871171396427 14.109700770523499 -1 0 0 I I #
coedge $-1 $91 $141 $93 $160 reversed $50 $-1 #
vertex $-1 $152 $226 #
straight-curve $-1 0 -32.152871171396427 14.109700770523499 1 0 0 I I #
edge $-1 $96 -14.109700770523499 $149 14.109700770523499 $93 $227 forward 7 unknown #
edge $-1 $97 -14.109700770523499 $148 14.109700770523499 $94 $228 forward 7 unknown #
point $-1 56.635029145176546 -32.152871171396427 14.109700770523499 #
point $-1 56.635029145176546 32.152871171396427 14.109700770523499 #
face $-1 $-1 $114 $13 $-1 $229 reversed single #
loop $-1 $-1 $173 $99 #
plane-surface $-1 0 0 14.109700770523499 0 0 1 1 0 0 forward_v I I I I #
coedge $-1 $179 $178 $103 $172 forward $100 $-1 #
coedge $-1 $105 $102 $179 $230 reversed $58 $-1 #
coedge $-1 $102 $105 $182 $231 reversed $58 $-1 #
edge $-1 $184 -14.109700770523499 $180 14.109700770523499 $102 $232 forward 7 unknown #
coedge $-1 $104 $103 $186 $233 reversed $37 $-1 #
edge $-1 $234 -31.909242314004885 $176 -17.542331348338436 $167 $235 forward 7 unknown #
coedge $-1 $183 $182 $104 $174 forward $165 $-1 #
edge $-1 $175 17.542331348338436 $236 31.909242314004885 $173 $237 forward 7 unknown #
vertex $-1 $174 $238 #
vertex $-1 $172 $239 #
straight-curve $-1 -42.268118179510097 -23.438806200567452 0 0 0 -1 I I #
coedge $-1 $167 $108 $113 $188 forward $100 $-1 #
coedge $-1 $108 $167 $168 $230 forward $100 $-1 #
vertex $-1 $109 $240 #
straight-curve $-1 -24.725786831171661 -27.94803696715481 -14.109700770523499 -1 0 0 I I #
coedge $-1 $173 $110 $169 $231 forward $165 $-1 #
coedge $-1 $110 $173 $112 $187 forward $165 $-1 #
vertex $-1 $111 $241 #
straight-curve $-1 -24.725786831171661 -27.94803696715481 14.109700770523499 1 0 0 I I #
coedge $-1 $113 $112 $171 $233 forward $114 $-1 #
edge $-1 $236 23.438806200567452 $116 27.94803696715481 $112 $242 forward 7 unknown #
edge $-1 $115 -27.94803696715481 $234 -23.438806200567452 $113 $243 forward 7 unknown #
point $-1 -56.635029145176546 -27.94803696715481 -14.109700770523499 #
point $-1 -56.635029145176546 -27.94803696715481 14.109700770523499 #
loop $-1 $-1 $126 $118 #
plane-surface $-1 0 -32.152871171396427 0 0 1 0 0 0 1 forward_v I I I I #
coedge $-1 $244 $194 $125 $199 forward $119 $-1 #
coedge $-1 $193 $245 $122 $195 forward $119 $-1 #
edge $-1 $197 -39.464447827617263 $204 -30.314442477806196 $194 $246 forward 7 unknown #
coedge $-1 $129 $123 $245 $247 reversed $66 $-1 #
vertex $-1 $124 $248 #
straight-curve $-1 56.635029145176546 -13.982922275228104 82.921895392390184 0 0 1 I I #
edge $-1 $204 2.4489739135719706 $202 20.618922809740294 $193 $249 forward 7 unknown #
coedge $-1 $201 $126 $129 $206 reversed $191 $-1 #
coedge $-1 $126 $200 $244 $250 reversed $191 $-1 #
vertex $-1 $250 $251 #
straight-curve $-1 -4.9233571820405242 -32.152871171396427 53.602249299251994 0.79863550430605224 0 -0.6018150307709319 I I #
vertex $-1 $199 $252 #
straight-curve $-1 -33.826460980315531 -13.982922275228104 75.38230065928829 0.79863550430605224 0 -0.6018150307709319 I I #
edge $-1 $253 -14.109700770523499 $130 -7.2146770438541958 $129 $254 forward 7 unknown #
point $-1 56.635029145176546 -32.152871171396427 7.2146770438541958 #
point $-1 56.635029145176546 -13.982922275228104 7.2146770438541949 #
edge $-1 $255 1 $255 0 $133 $-1 forward 7 unknown #
vertex $-1 $134 $256 #
ellipse-curve $-1 47.233678199572267 -23.067896723312266 4.2574085543477347 0.6018150307709319 0 0.79863550430605224 1.9965887607651305 0 -1.5045375769273297 1 I I #
point $-1 54.056615231036133 -23.067896723312266 9.1576513302615083 #
plane-surface $-1 56.635029145176546 0 0 -1 0 0 0 0 1 forward_v I I I I #
coedge $-1 $142 $140 $144 $218 reversed $81 $-1 #
edge $-1 $155 -14.109700770523499 $220 14.109700770523499 $154 $257 forward 7 unknown #
vertex $-1 $218 $258 #
straight-curve $-1 -56.635029145176546 -32.152871171396427 0 0 0 -1 I I #
edge $-1 $216 -32.152871171396427 $220 32.152871171396427 $214 $259 forward 7 unknown #
straight-curve $-1 0 -32.152871171396427 -14.109700770523499 -1 0 0 I I #
vertex $-1 $147 $260 #
straight-curve $-1 0 32.152871171396427 -14.109700770523499 1 0 0 I I #
point $-1 56.635029145176546 32.152871171396427 -14.109700770523499 #
point $-1 56.635029145176546 -32.152871171396427 -14.109700770523499 #
straight-curve $-1 -56.635029145176546 0 14.109700770523499 0 -1 0 I I #
point $-1 -56.635029145176546 32.152871171396427 14.109700770523499 #
point $-1 -56.635029145176546 -32.152871171396427 14.109700770523499 #
straight-curve $-1 56.635029145176546 -32.152871171396427 0 0 0 -1 I I #
straight-curve $-1 56.635029145176546 32.152871171396427 0 0 0 -1 I I #
plane-surface $-1 -56.635029145176546 0 0 1 0 0 0 0 -1 forward_v I I I I #
edge $-1 $176 10.592095408636887 $180 15.101326175224244 $179 $261 forward 7 unknown #
edge $-1 $184 -15.101326175224244 $175 -10.592095408636887 $182 $262 forward 7 unknown #
straight-curve $-1 -42.268118179510097 -27.94803696715481 0 0 0 -1 I I #
edge $-1 $236 -14.109700770523499 $234 14.109700770523499 $186 $263 forward 7 unknown #
vertex $-1 $233 $264 #
straight-curve $-1 -24.725786831171661 -23.438806200567452 -14.109700770523499 1 0 0 I I #
vertex $-1 $187 $265 #
straight-curve $-1 -24.725786831171661 -23.438806200567452 14.109700770523499 -1 0 0 I I #
point $-1 -42.268118179510097 -23.438806200567452 14.109700770523499 #
point $-1 -42.268118179510097 -23.438806200567452 -14.109700770523499 #
point $-1 -42.268118179510097 -27.94803696715481 -14.109700770523499 #
point $-1 -42.268118179510097 -27.94803696715481 14.109700770523499 #
straight-curve $-1 -56.635029145176546 0 14.109700770523499 0 -1 0 I I #
straight-curve $-1 -56.635029145176546 0 -14.109700770523499 0 1 0 I I #
coedge $-1 $245 $193 $201 $250 forward $119 $-1 #
coedge $-1 $194 $244 $196 $247 forward $119 $-1 #
straight-curve $-1 17.170581317559282 -13.982922275228104 14.109700770523503 -1 0 0 I I #
edge $-1 $253 -32.152871171396427 $197 -13.982922275228104 $196 $266 forward 7 unknown #
point $-1 56.635029145176546 -13.982922275228104 14.109700770523499 #
straight-curve $-1 47.485023795365485 -11.533948361656133 14.109700770523503 0 -1 0 I I #
edge $-1 $202 47.485023795365478 $253 56.635029145176546 $201 $267 forward 7 unknown #
point $-1 47.485023795365478 -32.152871171396427 14.109700770523496 #
point $-1 47.485023795365478 -13.982922275228104 14.109700770523496 #
vertex $-1 $247 $268 #
straight-curve $-1 56.635029145176546 -32.152871171396427 0 0 0 -1 I I #
vertex $-1 $209 $269 #
point $-1 49.230266960337396 -23.067896723312266 2.7528709774204052 #
straight-curve $-1 -56.635029145176546 32.152871171396427 0 0 0 -1 I I #
point $-1 -56.635029145176546 -32.152871171396427 -14.109700770523499 #
straight-curve $-1 -56.635029145176546 0 -14.109700770523499 0 1 0 I I #
point $-1 -56.635029145176546 32.152871171396427 -14.109700770523499 #
straight-curve $-1 -42.268118179510097 -12.846710791930565 -14.109700770523499 0 -1 0 I I #
straight-curve $-1 -42.268118179510097 -12.846710791930565 14.109700770523499 0 1 0 I I #
straight-curve $-1 -56.635029145176546 -23.438806200567452 0 0 0 -1 I I #
point $-1 -56.635029145176546 -23.438806200567452 -14.109700770523499 #
point $-1 -56.635029145176546 -23.438806200567452 14.109700770523499 #
straight-curve $-1 56.635029145176546 0 14.109700770523499 0 1 0 I I #
straight-curve $-1 0 -32.152871171396427 14.109700770523499 1 0 0 I I #
point $-1 56.635029145176546 -32.152871171396427 14.109700770523499 #
point $-1 45.729140622644934 -23.067896723312266 2.2608197935826047 #
End-of-ACIS-data 