500 0 8 0           
7 Unknown 11 ACIS 5.0 NT 24 Fri Mar 26 00:59:44 1999 
-1 9.9999999999999995e-007 1e-010 
body $-1 $8 $-1 $9 #
body $-1 $10 $-1 $11 #
body $-1 $12 $-1 $13 #
body $-1 $14 $-1 $15 #
body $-1 $16 $-1 $17 #
body $-1 $18 $-1 $19 #
body $-1 $20 $-1 $21 #
body $-1 $22 $-1 $23 #
lump $-1 $-1 $24 $0 #
transform $-1 1 0 0 0 1 0 0 0 1 65.470748008667258 29.983232877372409 10.963686118458364 1 rotate no_reflect no_shear #
lump $-1 $-1 $25 $1 #
transform $-1 1 0 0 0 1 0 0 0 1 65.470748008667258 29.983232877372409 10.963686118458364 1 rotate no_reflect no_shear #
lump $-1 $-1 $26 $2 #
transform $-1 1 0 0 0 1 0 0 0 1 65.470748008667258 29.983232877372409 10.963686118458364 1 rotate no_reflect no_shear #
lump $-1 $-1 $27 $3 #
transform $-1 1 0 0 0 1 0 0 0 1 65.470748008667258 29.983232877372409 10.963686118458364 1 rotate no_reflect no_shear #
lump $-1 $-1 $28 $4 #
transform $-1 1 0 0 0 1 0 0 0 1 65.470748008667258 29.983232877372409 10.963686118458364 1 rotate no_reflect no_shear #
lump $-1 $-1 $29 $5 #
transform $-1 1 0 0 0 1 0 0 0 1 65.470748008667258 29.983232877372409 10.963686118458364 1 rotate no_reflect no_shear #
lump $-1 $-1 $30 $6 #
transform $-1 1 0 0 0 1 0 0 0 1 65.470748008667258 29.983232877372409 10.963686118458364 1 rotate no_reflect no_shear #
lump $-1 $-1 $31 $7 #
transform $-1 1 0 0 0 1 0 0 0 1 65.470748008667258 29.983232877372409 10.963686118458364 1 rotate no_reflect no_shear #
shell $-1 $-1 $-1 $32 $-1 $8 #
shell $-1 $-1 $-1 $33 $-1 $10 #
shell $-1 $-1 $-1 $34 $-1 $12 #
shell $-1 $-1 $-1 $35 $-1 $14 #
shell $-1 $-1 $-1 $36 $-1 $16 #
shell $-1 $-1 $-1 $37 $-1 $18 #
shell $-1 $-1 $-1 $38 $-1 $20 #
shell $-1 $-1 $-1 $39 $-1 $22 #
face $-1 $40 $41 $24 $-1 $42 forward single #
face $-1 $43 $44 $25 $-1 $45 reversed single #
face $-1 $46 $47 $26 $-1 $48 forward single #
face $-1 $49 $50 $27 $-1 $51 forward single #
face $-1 $52 $53 $28 $-1 $54 reversed single #
face $-1 $55 $56 $29 $-1 $57 forward single #
face $-1 $58 $59 $30 $-1 $60 forward single #
face $-1 $61 $62 $31 $-1 $63 forward single #
face $-1 $64 $65 $24 $-1 $66 reversed single #
loop $-1 $-1 $67 $32 #
plane-surface $-1 0 0 10.963686118458364 0 0 1 1 0 0 forward_v I I I I #
face $-1 $68 $69 $25 $-1 $70 reversed single #
loop $-1 $-1 $71 $33 #
plane-surface $-1 43.080341441472029 -108.78579333223644 105.64438903924157 -1 0 0 0 -0.6018150307709319 0.79863550430605224 forward_v I I I I #
face $-1 $72 $73 $26 $-1 $74 forward single #
loop $-1 $75 $76 $34 #
cone-surface $-1 28.704801233507965 -22.001423543625098 4.1363048172212427 0 0.6018150307709319 -0.79863550430605224 1.5 0 0 1 I I 0 1 1.5 forward I I I I #
face $-1 $77 $78 $27 $-1 $79 forward single #
loop $-1 $80 $81 $35 #
cone-surface $-1 37.330125358286395 -22.001423543625098 4.1363048172212427 0 0.6018150307709319 -0.79863550430605224 1.5 0 0 1 I I 0 1 1.5 forward I I I I #
face $-1 $82 $83 $28 $-1 $84 reversed single #
loop $-1 $-1 $85 $36 #
plane-surface $-1 14.125731076134159 46.021796472312282 149.53322804824583 1 0 0 0 -0.51503808176128008 -0.85716729658548041 forward_v I I I I #
face $-1 $86 $87 $29 $-1 $88 forward single #
loop $-1 $89 $90 $37 #
cone-surface $-1 20.59795818815526 25.648609662222078 7.7797679134217823 0 -0.51503808176128008 -0.85716729658548041 1.5 0 0 1 I I 0 1 1.5 forward I I I I #
face $-1 $91 $92 $30 $-1 $93 forward single #
loop $-1 $94 $95 $38 #
cone-surface $-1 30.306298856186899 25.648609662222078 7.7797679134217823 0 -0.51503808176128008 -0.85716729658548041 1.5 0 0 1 I I 0 1 1.5 forward I I I I #
face $-1 $96 $97 $31 $-1 $98 forward single #
loop $-1 $99 $100 $39 #
cone-surface $-1 40.014639524218538 25.648609662222078 7.7797679134217823 0 -0.51503808176128008 -0.85716729658548041 1.5 0 0 1 I I 0 1 1.5 forward I I I I #
face $-1 $101 $102 $24 $-1 $103 reversed single #
loop $-1 $-1 $104 $40 #
plane-surface $-1 0 0 -10.963686118458364 0 0 1 1 0 0 forward_v I I I I #
coedge $-1 $105 $106 $107 $108 forward $41 $-1 #
face $-1 $109 $110 $25 $-1 $111 reversed single #
loop $-1 $-1 $112 $43 #
plane-surface $-1 33.017463295897187 -29.983232877372416 1.0698613328486886 0 -0.6018150307709319 0.79863550430605224 1 0 0 forward_v I I I I #
coedge $-1 $113 $114 $115 $116 reversed $44 $-1 #
face $-1 $-1 $117 $26 $-1 $118 forward single #
loop $-1 $119 $120 $46 #
cone-surface $-1 28.704801233507965 -20.133027280379128 1.6568592805594111 0 0.6018150307709319 -0.79863550430605224 0.75 0 0 1 I I -0.70710678118654757 0.70710678118654757 0.75 forward I I I I #
loop $-1 $-1 $121 $34 #
coedge $-1 $76 $76 $122 $123 reversed $47 $-1 #
face $-1 $-1 $124 $27 $-1 $125 forward single #
loop $-1 $126 $127 $49 #
cone-surface $-1 37.330125358286395 -20.133027280379128 1.6568592805594111 0 0.6018150307709319 -0.79863550430605224 0.75 0 0 1 I I -0.70710678118654757 0.70710678118654757 0.75 forward I I I I #
loop $-1 $-1 $128 $35 #
coedge $-1 $81 $81 $129 $130 reversed $50 $-1 #
face $-1 $131 $132 $28 $-1 $133 reversed single #
loop $-1 $-1 $134 $52 #
plane-surface $-1 30.306298856186899 -21.41806045940799 37.294459896208735 0 0.51503808176128008 0.85716729658548041 1 0 0 forward_v I I I I #
coedge $-1 $135 $136 $137 $138 reversed $53 $-1 #
face $-1 $-1 $139 $29 $-1 $140 forward single #
loop $-1 $141 $142 $55 #
cone-surface $-1 20.59795818815526 24.717471674475341 6.2300940932345323 0 -0.51503808176128008 -0.85716729658548041 0.75 0 0 1 I I -0.70710678118654757 0.70710678118654757 0.75 forward I I I I #
loop $-1 $-1 $143 $37 #
coedge $-1 $90 $90 $144 $145 reversed $56 $-1 #
face $-1 $-1 $146 $30 $-1 $147 forward single #
loop $-1 $148 $149 $58 #
cone-surface $-1 30.306298856186899 24.717471674475341 6.2300940932345323 0 -0.51503808176128008 -0.85716729658548041 0.75 0 0 1 I I -0.70710678118654757 0.70710678118654757 0.75 forward I I I I #
loop $-1 $-1 $150 $38 #
coedge $-1 $95 $95 $151 $152 reversed $59 $-1 #
face $-1 $-1 $153 $31 $-1 $154 forward single #
loop $-1 $155 $156 $61 #
cone-surface $-1 40.014639524218538 24.717471674475341 6.2300940932345323 0 -0.51503808176128008 -0.85716729658548041 0.75 0 0 1 I I -0.70710678118654757 0.70710678118654757 0.75 forward I I I I #
loop $-1 $-1 $157 $39 #
coedge $-1 $100 $100 $158 $159 reversed $62 $-1 #
face $-1 $160 $161 $24 $-1 $162 reversed single #
loop $-1 $-1 $163 $64 #
plane-surface $-1 0 -29.983232877372409 0 0 1 0 0 0 1 forward_v I I I I #
coedge $-1 $164 $165 $166 $167 forward $65 $-1 #
coedge $-1 $168 $67 $169 $170 forward $41 $-1 #
coedge $-1 $67 $168 $171 $172 forward $41 $-1 #
coedge $-1 $173 $174 $67 $108 reversed $175 $-1 #
edge $-1 $176 -29.983232877372409 $177 29.983232877372409 $107 $178 forward 7 unknown #
face $-1 $179 $180 $25 $-1 $181 reversed single #
loop $-1 $-1 $182 $68 #
plane-surface $-1 22.954585150322345 -108.78579333223644 105.64438903924157 1 0 0 0 0.6018150307709319 -0.79863550430605224 forward_v I I I I #
coedge $-1 $183 $184 $185 $186 reversed $69 $-1 #
coedge $-1 $114 $71 $187 $188 reversed $44 $-1 #
coedge $-1 $71 $113 $183 $189 reversed $44 $-1 #
coedge $-1 $185 $190 $71 $116 forward $191 $-1 #
edge $-1 $192 24.40966378874581 $193 37.539212475904904 $115 $194 forward 7 unknown #
loop $-1 $-1 $122 $72 #
plane-surface $-1 33.017463295897187 -29.983232877372416 1.0698613328486886 0 -0.6018150307709319 0.79863550430605224 1 0 0 forward_v I I I I #
loop $-1 $-1 $195 $46 #
coedge $-1 $120 $120 $121 $196 reversed $73 $-1 #
coedge $-1 $121 $121 $120 $196 forward $75 $-1 #
coedge $-1 $122 $122 $76 $123 forward $117 $-1 #
edge $-1 $197 -9.3232905146161872e-016 $197 6.2831853071795996 $122 $198 forward 7 unknown #
loop $-1 $-1 $129 $77 #
plane-surface $-1 33.017463295897187 -29.983232877372416 1.0698613328486886 0 -0.6018150307709319 0.79863550430605224 1 0 0 forward_v I I I I #
loop $-1 $-1 $199 $49 #
coedge $-1 $127 $127 $128 $200 reversed $78 $-1 #
coedge $-1 $128 $128 $127 $200 forward $80 $-1 #
coedge $-1 $129 $129 $81 $130 forward $124 $-1 #
edge $-1 $201 -9.3232905146161872e-016 $201 6.2831853071795996 $129 $202 forward 7 unknown #
face $-1 $203 $204 $28 $-1 $205 reversed single #
loop $-1 $-1 $206 $82 #
plane-surface $-1 46.48686663623964 46.021796472312282 149.53322804824583 -1 0 0 0 0.51503808176128008 0.85716729658548041 forward_v I I I I #
coedge $-1 $207 $208 $209 $210 reversed $83 $-1 #
coedge $-1 $136 $85 $211 $212 reversed $53 $-1 #
coedge $-1 $85 $135 $207 $213 reversed $53 $-1 #
coedge $-1 $209 $214 $85 $138 forward $215 $-1 #
edge $-1 $216 -6.9723346412162677 $217 0.607192936232817 $137 $218 forward 7 unknown #
loop $-1 $-1 $144 $86 #
plane-surface $-1 30.306298856186899 -21.41806045940799 37.294459896208735 0 0.51503808176128008 0.85716729658548041 1 0 0 forward_v I I I I #
loop $-1 $-1 $219 $55 #
coedge $-1 $142 $142 $143 $220 reversed $87 $-1 #
coedge $-1 $143 $143 $142 $220 forward $89 $-1 #
coedge $-1 $144 $144 $90 $145 forward $139 $-1 #
edge $-1 $221 1.8297828381764705e-015 $221 6.2831853071796022 $144 $222 forward 7 unknown #
loop $-1 $-1 $151 $91 #
plane-surface $-1 30.306298856186899 -21.41806045940799 37.294459896208735 0 0.51503808176128008 0.85716729658548041 1 0 0 forward_v I I I I #
loop $-1 $-1 $223 $58 #
coedge $-1 $149 $149 $150 $224 reversed $92 $-1 #
coedge $-1 $150 $150 $149 $224 forward $94 $-1 #
coedge $-1 $151 $151 $95 $152 forward $146 $-1 #
edge $-1 $225 1.8297828381764705e-015 $225 6.2831853071796022 $151 $226 forward 7 unknown #
loop $-1 $-1 $158 $96 #
plane-surface $-1 30.306298856186899 -21.41806045940799 37.294459896208735 0 0.51503808176128008 0.85716729658548041 1 0 0 forward_v I I I I #
loop $-1 $-1 $227 $61 #
coedge $-1 $156 $156 $157 $228 reversed $97 $-1 #
coedge $-1 $157 $157 $156 $228 forward $99 $-1 #
coedge $-1 $158 $158 $100 $159 forward $153 $-1 #
edge $-1 $229 1.8297828381764705e-015 $229 6.2831853071796022 $158 $230 forward 7 unknown #
face $-1 $231 $232 $24 $-1 $233 reversed single #
loop $-1 $-1 $234 $101 #
plane-surface $-1 -65.470748008667258 0 0 1 0 0 0 0 -1 forward_v I I I I #
coedge $-1 $235 $171 $236 $237 forward $102 $-1 #
coedge $-1 $238 $104 $235 $239 forward $65 $-1 #
coedge $-1 $104 $238 $240 $241 forward $65 $-1 #
coedge $-1 $174 $173 $104 $167 reversed $175 $-1 #
edge $-1 $242 -29.983232877372409 $243 29.983232877372409 $166 $244 forward 7 unknown #
coedge $-1 $106 $105 $245 $246 forward $41 $-1 #
coedge $-1 $247 $248 $105 $170 reversed $232 $-1 #
edge $-1 $177 -65.470748008667258 $249 65.470748008667258 $169 $250 forward 7 unknown #
coedge $-1 $163 $251 $106 $172 reversed $102 $-1 #
edge $-1 $252 -65.470748008667258 $176 65.470748008667258 $171 $253 forward 7 unknown #
coedge $-1 $166 $107 $251 $254 forward $175 $-1 #
coedge $-1 $107 $166 $247 $255 reversed $175 $-1 #
loop $-1 $-1 $173 $231 #
vertex $-1 $108 $256 #
vertex $-1 $108 $257 #
straight-curve $-1 65.470748008667258 0 10.963686118458364 0 1 0 I I #
face $-1 $-1 $191 $25 $-1 $258 forward single #
loop $-1 $-1 $259 $109 #
plane-surface $-1 0 -29.983232877372409 0 0 1 0 0 0 1 forward_v I I I I #
coedge $-1 $260 $261 $262 $263 reversed $110 $-1 #
coedge $-1 $264 $112 $114 $189 forward $69 $-1 #
coedge $-1 $112 $264 $260 $265 forward $69 $-1 #
coedge $-1 $262 $115 $112 $186 forward $191 $-1 #
edge $-1 $193 -26.571609793523436 $266 -6.4458535023737511 $185 $267 forward 7 unknown #
coedge $-1 $268 $269 $113 $188 forward $180 $-1 #
edge $-1 $270 -51.752333186772091 $192 -41.858508401162425 $187 $271 forward 7 unknown #
edge $-1 $193 -16.439976204874071 $270 -8.8817612989391469e-015 $114 $272 forward 7 unknown #
coedge $-1 $115 $262 $268 $273 forward $191 $-1 #
loop $-1 $-1 $262 $179 #
vertex $-1 $188 $274 #
vertex $-1 $116 $275 #
straight-curve $-1 43.080341441472029 -54.392896666118219 10.963686118458362 0 1 0 I I #
coedge $-1 $195 $195 $-1 $276 reversed $119 $-1 #
edge $-1 $277 0 $277 6.2831853071796004 $120 $278 forward 7 unknown #
vertex $-1 $123 $279 #
ellipse-curve $-1 28.704801233507965 -23.418458533792865 6.0167737256535272 0 -0.6018150307709319 0.79863550430605224 1.5 0 0 1 I I #
coedge $-1 $199 $199 $-1 $280 reversed $126 $-1 #
edge $-1 $281 0 $281 6.2831853071796004 $127 $282 forward 7 unknown #
vertex $-1 $130 $283 #
ellipse-curve $-1 37.330125358286395 -23.418458533792865 6.0167737256535272 0 -0.6018150307709319 0.79863550430605224 1.5 0 0 1 I I #
face $-1 $-1 $215 $28 $-1 $284 forward single #
loop $-1 $-1 $285 $131 #
plane-surface $-1 0 29.983232877372409 0 0 -1 0 0 0 -1 forward_v I I I I #
coedge $-1 $286 $287 $288 $289 reversed $132 $-1 #
coedge $-1 $290 $134 $136 $213 forward $83 $-1 #
coedge $-1 $134 $290 $286 $291 forward $83 $-1 #
coedge $-1 $288 $137 $134 $210 forward $215 $-1 #
edge $-1 $217 -1.027418351959291 $292 31.33371720814619 $209 $293 forward 7 unknown #
coedge $-1 $294 $295 $135 $212 forward $204 $-1 #
edge $-1 $296 -68.357167620241441 $216 -63.802927905664554 $211 $297 forward 7 unknown #
edge $-1 $217 51.123935705310956 $296 59.96646575474481 $136 $298 forward 7 unknown #
coedge $-1 $137 $288 $294 $299 forward $215 $-1 #
loop $-1 $-1 $288 $203 #
vertex $-1 $212 $300 #
vertex $-1 $138 $301 #
straight-curve $-1 14.125731076134159 23.010898236156141 10.963686118458369 0 -1 0 I I #
coedge $-1 $219 $219 $-1 $302 reversed $141 $-1 #
edge $-1 $303 0 $303 6.2831853071796004 $142 $304 forward 7 unknown #
vertex $-1 $145 $305 #
ellipse-curve $-1 20.59795818815526 26.193469088647859 8.6865662611699257 0 0.51503808176128008 0.85716729658548041 1.5 0 0 1 I I #
coedge $-1 $223 $223 $-1 $306 reversed $148 $-1 #
edge $-1 $307 0 $307 6.2831853071796004 $149 $308 forward 7 unknown #
vertex $-1 $152 $309 #
ellipse-curve $-1 30.306298856186899 26.193469088647859 8.6865662611699257 0 0.51503808176128008 0.85716729658548041 1.5 0 0 1 I I #
coedge $-1 $227 $227 $-1 $310 reversed $155 $-1 #
edge $-1 $311 0 $311 6.2831853071796004 $156 $312 forward 7 unknown #
vertex $-1 $159 $313 #
ellipse-curve $-1 40.014639524218538 26.193469088647859 8.6865662611699257 0 0.51503808176128008 0.85716729658548041 1.5 0 0 1 I I #
face $-1 $-1 $175 $24 $-1 $314 reversed single #
loop $-1 $-1 $247 $160 #
plane-surface $-1 0 29.983232877372409 0 0 -1 0 0 0 -1 forward_v I I I I #
coedge $-1 $315 $245 $248 $316 forward $161 $-1 #
coedge $-1 $251 $163 $164 $239 reversed $102 $-1 #
coedge $-1 $245 $315 $163 $237 reversed $161 $-1 #
edge $-1 $252 -10.963686118458364 $317 10.963686118458364 $236 $318 forward 7 unknown #
coedge $-1 $165 $164 $315 $319 forward $65 $-1 #
edge $-1 $243 -65.470748008667258 $317 65.470748008667258 $235 $320 forward 7 unknown #
coedge $-1 $248 $247 $165 $241 reversed $232 $-1 #
edge $-1 $321 -65.470748008667258 $242 65.470748008667258 $240 $322 forward 7 unknown #
vertex $-1 $167 $323 #
vertex $-1 $254 $324 #
straight-curve $-1 65.470748008667258 0 -10.963686118458364 0 -1 0 I I #
coedge $-1 $234 $236 $168 $246 reversed $161 $-1 #
edge $-1 $249 -29.983232877372409 $252 29.983232877372409 $245 $325 forward 7 unknown #
coedge $-1 $240 $169 $174 $255 forward $232 $-1 #
coedge $-1 $169 $240 $234 $316 reversed $232 $-1 #
vertex $-1 $170 $326 #
straight-curve $-1 0 29.983232877372409 10.963686118458364 -1 0 0 I I #
coedge $-1 $171 $235 $173 $254 reversed $102 $-1 #
vertex $-1 $246 $327 #
straight-curve $-1 0 -29.983232877372409 10.963686118458364 1 0 0 I I #
edge $-1 $176 -10.963686118458364 $243 10.963686118458364 $173 $328 forward 7 unknown #
edge $-1 $177 -10.963686118458364 $242 10.963686118458364 $174 $329 forward 7 unknown #
point $-1 65.470748008667258 -29.983232877372409 10.963686118458364 #
point $-1 65.470748008667258 29.983232877372409 10.963686118458364 #
plane-surface $-1 0 0 10.963686118458364 0 0 1 1 0 0 forward_v I I I I #
coedge $-1 $269 $268 $261 $330 forward $180 $-1 #
coedge $-1 $261 $182 $184 $265 reversed $110 $-1 #
coedge $-1 $182 $260 $259 $330 reversed $110 $-1 #
coedge $-1 $190 $185 $182 $263 forward $191 $-1 #
edge $-1 $266 -37.539212475904904 $331 -24.40966378874581 $262 $332 forward 7 unknown #
coedge $-1 $184 $183 $269 $333 reversed $69 $-1 #
edge $-1 $334 8.8817612989391469e-015 $266 16.439976204874071 $260 $335 forward 7 unknown #
vertex $-1 $186 $336 #
straight-curve $-1 16.508731647948593 -16.853684190213315 10.963686118458364 -1 0 0 I I #
coedge $-1 $259 $187 $190 $273 reversed $180 $-1 #
coedge $-1 $187 $259 $264 $333 forward $180 $-1 #
vertex $-1 $188 $337 #
straight-curve $-1 43.080341441472029 -29.983232877372409 52.822194519620787 0 0 1 I I #
straight-curve $-1 43.080341441472029 -29.983232877372416 1.0698613328486886 0 -0.79863550430605224 -0.6018150307709319 I I #
edge $-1 $331 22.954585150322345 $192 43.080341441472029 $268 $338 forward 7 unknown #
point $-1 43.080341441472029 -29.983232877372409 10.963686118458364 #
point $-1 43.080341441472029 -16.853684190213315 10.963686118458364 #
edge $-1 $339 1 $339 0 $195 $-1 forward 7 unknown #
vertex $-1 $196 $340 #
ellipse-curve $-1 28.704801233507965 -20.584388553457327 2.2558359087889501 0 -0.6018150307709319 0.79863550430605224 1.5 0 0 1 I I #
point $-1 30.204801233507965 -23.418458533792872 6.0167737256535343 #
edge $-1 $341 1 $341 0 $199 $-1 forward 7 unknown #
vertex $-1 $200 $342 #
ellipse-curve $-1 37.330125358286395 -20.584388553457327 2.2558359087889501 0 -0.6018150307709319 0.79863550430605224 1.5 0 0 1 I I #
point $-1 38.830125358286395 -23.418458533792872 6.0167737256535343 #
plane-surface $-1 0 0 10.963686118458364 0 0 1 1 0 0 forward_v I I I I #
coedge $-1 $295 $294 $287 $343 forward $204 $-1 #
coedge $-1 $287 $206 $208 $291 reversed $132 $-1 #
coedge $-1 $206 $286 $285 $343 reversed $132 $-1 #
coedge $-1 $214 $209 $206 $289 forward $215 $-1 #
edge $-1 $292 -0.607192936232817 $344 6.9723346412162677 $288 $345 forward 7 unknown #
coedge $-1 $208 $207 $295 $346 reversed $83 $-1 #
edge $-1 $347 -59.96646575474481 $292 -51.123935705310956 $286 $348 forward 7 unknown #
vertex $-1 $210 $349 #
straight-curve $-1 15.15314942809345 22.403705299923317 10.963686118458369 1 0 0 I I #
coedge $-1 $285 $211 $214 $299 reversed $204 $-1 #
coedge $-1 $211 $285 $290 $346 forward $204 $-1 #
vertex $-1 $212 $350 #
straight-curve $-1 14.125731076134159 29.983232877372409 74.766614024122916 0 0 1 I I #
straight-curve $-1 14.125731076134159 -21.41806045940799 37.294459896208735 0 0.85716729658548041 -0.51503808176128008 I I #
edge $-1 $344 -46.48686663623964 $216 -14.125731076134159 $294 $351 forward 7 unknown #
point $-1 14.125731076134159 29.983232877372409 10.963686118458364 #
point $-1 14.125731076134159 22.403705299923324 10.963686118458362 #
edge $-1 $352 1 $352 0 $219 $-1 forward 7 unknown #
vertex $-1 $220 $353 #
ellipse-curve $-1 20.59795818815526 25.103750235796301 6.8729695656736425 0 0.51503808176128008 0.85716729658548041 1.5 0 0 1 I I #
point $-1 22.09795818815526 26.193469088647859 8.6865662611699204 #
edge $-1 $354 1 $354 0 $223 $-1 forward 7 unknown #
vertex $-1 $224 $355 #
ellipse-curve $-1 30.306298856186899 25.103750235796301 6.8729695656736425 0 0.51503808176128008 0.85716729658548041 1.5 0 0 1 I I #
point $-1 31.806298856186899 26.193469088647859 8.6865662611699204 #
edge $-1 $356 1 $356 0 $227 $-1 forward 7 unknown #
vertex $-1 $228 $357 #
ellipse-curve $-1 40.014639524218538 25.103750235796301 6.8729695656736425 0 0.51503808176128008 0.85716729658548041 1.5 0 0 1 I I #
point $-1 41.514639524218538 26.193469088647859 8.6865662611699204 #
plane-surface $-1 65.470748008667258 0 0 -1 0 0 0 0 1 forward_v I I I I #
coedge $-1 $236 $234 $238 $319 reversed $161 $-1 #
edge $-1 $249 -10.963686118458364 $321 10.963686118458364 $248 $358 forward 7 unknown #
vertex $-1 $319 $359 #
straight-curve $-1 -65.470748008667258 -29.983232877372409 0 0 0 -1 I I #
edge $-1 $317 -29.983232877372409 $321 29.983232877372409 $315 $360 forward 7 unknown #
straight-curve $-1 0 -29.983232877372409 -10.963686118458364 -1 0 0 I I #
vertex $-1 $241 $361 #
straight-curve $-1 0 29.983232877372409 -10.963686118458364 1 0 0 I I #
point $-1 65.470748008667258 29.983232877372409 -10.963686118458364 #
point $-1 65.470748008667258 -29.983232877372409 -10.963686118458364 #
straight-curve $-1 -65.470748008667258 0 10.963686118458364 0 -1 0 I I #
point $-1 -65.470748008667258 29.983232877372409 10.963686118458364 #
point $-1 -65.470748008667258 -29.983232877372409 10.963686118458364 #
straight-curve $-1 65.470748008667258 -29.983232877372409 0 0 0 -1 I I #
straight-curve $-1 65.470748008667258 29.983232877372409 0 0 0 -1 I I #
edge $-1 $331 41.858508401162425 $334 51.752333186772091 $259 $362 forward 7 unknown #
vertex $-1 $273 $363 #
straight-curve $-1 22.954585150322345 -54.392896666118219 10.963686118458362 0 -1 0 I I #
edge $-1 $334 6.4458535023737511 $270 26.571609793523436 $269 $364 forward 7 unknown #
vertex $-1 $333 $365 #
straight-curve $-1 22.954585150322345 -29.983232877372416 1.0698613328486886 0 0.79863550430605224 0.6018150307709319 I I #
point $-1 22.954585150322345 -16.853684190213315 10.963686118458364 #
point $-1 43.080341441472029 -29.983232877372409 1.0698613328486939 #
straight-curve $-1 0 -29.983232877372409 10.963686118458364 1 0 0 I I #
vertex $-1 $276 $366 #
point $-1 30.204801233507965 -20.584388553457327 2.2558359087889501 #
vertex $-1 $280 $367 #
point $-1 38.830125358286395 -20.584388553457327 2.2558359087889501 #
edge $-1 $344 63.802927905664554 $347 68.357167620241441 $285 $368 forward 7 unknown #
vertex $-1 $299 $369 #
straight-curve $-1 46.48686663623964 23.010898236156141 10.963686118458369 0 1 0 I I #
edge $-1 $347 -31.33371720814619 $296 1.027418351959291 $295 $370 forward 7 unknown #
vertex $-1 $346 $371 #
straight-curve $-1 46.48686663623964 -21.41806045940799 37.294459896208735 0 -0.85716729658548041 0.51503808176128008 I I #
point $-1 46.48686663623964 22.403705299923324 10.963686118458362 #
point $-1 14.125731076134159 29.983232877372409 6.4094464038814749 #
straight-curve $-1 0 29.983232877372409 10.963686118458364 -1 0 0 I I #
vertex $-1 $302 $372 #
point $-1 22.09795818815526 25.103750235796301 6.8729695656736425 #
vertex $-1 $306 $373 #
point $-1 31.806298856186899 25.103750235796301 6.8729695656736425 #
vertex $-1 $310 $374 #
point $-1 41.514639524218538 25.103750235796301 6.8729695656736425 #
straight-curve $-1 -65.470748008667258 29.983232877372409 0 0 0 -1 I I #
point $-1 -65.470748008667258 -29.983232877372409 -10.963686118458364 #
straight-curve $-1 -65.470748008667258 0 -10.963686118458364 0 1 0 I I #
point $-1 -65.470748008667258 29.983232877372409 -10.963686118458364 #
straight-curve $-1 22.954585150322345 -29.983232877372409 52.822194519620787 0 0 -1 I I #
point $-1 22.954585150322345 -29.983232877372409 10.963686118458364 #
straight-curve $-1 16.508731647948593 -29.983232877372409 1.0698613328486946 1 0 0 I I #
point $-1 22.954585150322345 -29.983232877372409 1.0698613328486939 #
point $-1 28.704801233507965 -19.68166600730093 1.0578826523298719 #
point $-1 37.330125358286395 -19.68166600730093 1.0578826523298719 #
straight-curve $-1 46.48686663623964 29.983232877372409 74.766614024122916 0 0 -1 I I #
point $-1 46.48686663623964 29.983232877372409 10.963686118458364 #
straight-curve $-1 15.15314942809345 29.983232877372409 6.4094464038814767 -1 0 0 I I #
point $-1 46.48686663623964 29.983232877372409 6.4094464038814749 #
point $-1 20.59795818815526 24.331193113154381 5.5872186207954222 #
point $-1 30.306298856186899 24.331193113154381 5.5872186207954222 #
point $-1 40.014639524218538 24.331193113154381 5.5872186207954222 #
End-of-ACIS-data 