500 0 5 0           
7 Unknown 11 ACIS 5.0 NT 24 Thu Mar 25 17:25:24 1999 
-1 9.9999999999999995e-007 1e-010 
body $-1 $5 $-1 $6 #
body $-1 $7 $-1 $8 #
body $-1 $9 $-1 $10 #
body $-1 $11 $-1 $12 #
body $-1 $13 $-1 $14 #
lump $-1 $-1 $15 $0 #
transform $-1 1 0 0 0 1 0 0 0 1 55.009002960295419 34.958677173506992 13.414500181313215 1 rotate no_reflect no_shear #
lump $-1 $-1 $16 $1 #
transform $-1 1 0 0 0 1 0 0 0 1 55.009002960295419 34.958677173506992 13.414500181313215 1 rotate no_reflect no_shear #
lump $-1 $-1 $17 $2 #
transform $-1 1 0 0 0 1 0 0 0 1 55.009002960295419 34.958677173506992 13.414500181313215 1 rotate no_reflect no_shear #
lump $-1 $-1 $18 $3 #
transform $-1 1 0 0 0 1 0 0 0 1 55.009002960295419 34.958677173506992 13.414500181313215 1 rotate no_reflect no_shear #
lump $-1 $-1 $19 $4 #
transform $-1 1 0 0 0 1 0 0 0 1 55.009002960295419 34.958677173506992 13.414500181313215 1 rotate no_reflect no_shear #
shell $-1 $-1 $-1 $20 $-1 $5 #
shell $-1 $-1 $-1 $21 $-1 $7 #
shell $-1 $-1 $-1 $22 $-1 $9 #
shell $-1 $-1 $-1 $23 $-1 $11 #
shell $-1 $-1 $-1 $24 $-1 $13 #
face $-1 $25 $26 $15 $-1 $27 forward single #
face $-1 $28 $29 $16 $-1 $30 reversed single #
face $-1 $31 $32 $17 $-1 $33 forward single #
face $-1 $34 $35 $18 $-1 $36 forward single #
face $-1 $37 $38 $19 $-1 $39 forward single #
face $-1 $40 $41 $15 $-1 $42 reversed single #
loop $-1 $-1 $43 $20 #
plane-surface $-1 0 0 13.414500181313215 0 0 1 1 0 0 forward_v I I I I #
face $-1 $44 $45 $16 $-1 $46 reversed single #
loop $-1 $-1 $47 $21 #
plane-surface $-1 -40.717440040254075 -127.22754156377161 69.035289832283766 -1 0 0 0 -0.83867057594974714 0.54463902268945019 forward_v I I I I #
face $-1 $48 $49 $17 $-1 $50 forward single #
loop $-1 $51 $52 $22 #
cone-surface $-1 -52.150690376287152 -31.902533749604356 10.18673704583278 0 0.83867057594974714 -0.54463902268945019 1 0 0 1 I I 0 1 1 forward I I I I #
face $-1 $53 $54 $18 $-1 $55 forward single #
loop $-1 $56 $57 $23 #
cone-surface $-1 -47.863221500274747 -31.902533749604356 10.18673704583278 0 0.83867057594974714 -0.54463902268945019 1 0 0 1 I I 0 1 1 forward I I I I #
face $-1 $58 $59 $19 $-1 $60 forward single #
loop $-1 $61 $62 $24 #
cone-surface $-1 -43.575752624262336 -31.902533749604356 10.18673704583278 0 0.83867057594974714 -0.54463902268945019 1 0 0 1 I I 0 1 1 forward I I I I #
face $-1 $63 $64 $15 $-1 $65 reversed single #
loop $-1 $-1 $66 $25 #
plane-surface $-1 0 0 -13.414500181313215 0 0 1 1 0 0 forward_v I I I I #
coedge $-1 $67 $68 $69 $70 forward $26 $-1 #
face $-1 $71 $72 $16 $-1 $73 forward single #
loop $-1 $-1 $74 $28 #
plane-surface $-1 -47.863221500274747 -34.958677173506999 9.1151906094510267 0 -0.83867057594974714 0.54463902268945019 1 0 0 forward_v I I I I #
coedge $-1 $75 $76 $77 $78 reversed $29 $-1 #
face $-1 $-1 $79 $17 $-1 $80 forward single #
loop $-1 $81 $82 $31 #
cone-surface $-1 -52.150690376287152 -29.823057133547803 8.8363091849387203 0 0.83867057594974714 -0.54463902268945019 0.5 0 0 1 I I -0.70710678118654879 0.70710678118654635 0.5 forward I I I I #
loop $-1 $-1 $83 $22 #
coedge $-1 $52 $52 $84 $85 reversed $32 $-1 #
face $-1 $-1 $86 $18 $-1 $87 forward single #
loop $-1 $88 $89 $34 #
cone-surface $-1 -47.863221500274747 -29.823057133547803 8.8363091849387203 0 0.83867057594974714 -0.54463902268945019 0.5 0 0 1 I I -0.70710678118654879 0.70710678118654635 0.5 forward I I I I #
loop $-1 $-1 $90 $23 #
coedge $-1 $57 $57 $91 $92 reversed $35 $-1 #
face $-1 $-1 $93 $19 $-1 $94 forward single #
loop $-1 $95 $96 $37 #
cone-surface $-1 -43.575752624262336 -29.823057133547803 8.8363091849387203 0 0.83867057594974714 -0.54463902268945019 0.5 0 0 1 I I -0.70710678118654879 0.70710678118654635 0.5 forward I I I I #
loop $-1 $-1 $97 $24 #
coedge $-1 $62 $62 $98 $99 reversed $38 $-1 #
face $-1 $100 $101 $15 $-1 $102 reversed single #
loop $-1 $-1 $103 $40 #
plane-surface $-1 0 -34.958677173506992 0 0 1 0 0 0 1 forward_v I I I I #
coedge $-1 $104 $105 $106 $107 forward $41 $-1 #
coedge $-1 $108 $43 $109 $110 forward $26 $-1 #
coedge $-1 $43 $108 $111 $112 forward $26 $-1 #
coedge $-1 $113 $114 $43 $70 reversed $115 $-1 #
edge $-1 $116 -34.958677173506992 $117 34.958677173506992 $69 $118 forward 7 unknown #
face $-1 $119 $120 $16 $-1 $121 reversed single #
loop $-1 $-1 $77 $44 #
plane-surface $-1 0 0 13.414500181313215 0 0 1 1 0 0 forward_v I I I I #
coedge $-1 $122 $123 $124 $125 reversed $45 $-1 #
coedge $-1 $76 $47 $126 $127 reversed $29 $-1 #
coedge $-1 $47 $75 $122 $128 reversed $29 $-1 #
coedge $-1 $124 $129 $47 $78 forward $72 $-1 #
edge $-1 $130 28.655093608378813 $131 31.447097800020707 $77 $132 forward 7 unknown #
loop $-1 $-1 $84 $48 #
plane-surface $-1 -47.863221500274747 -34.958677173506999 9.1151906094510267 0 -0.83867057594974714 0.54463902268945019 1 0 0 forward_v I I I I #
loop $-1 $-1 $133 $31 #
coedge $-1 $82 $82 $83 $134 reversed $49 $-1 #
coedge $-1 $83 $83 $82 $134 forward $51 $-1 #
coedge $-1 $84 $84 $52 $85 forward $79 $-1 #
edge $-1 $135 -5.9944162894154966e-016 $135 6.2831853071795996 $84 $136 forward 7 unknown #
loop $-1 $-1 $91 $53 #
plane-surface $-1 -47.863221500274747 -34.958677173506999 9.1151906094510267 0 -0.83867057594974714 0.54463902268945019 1 0 0 forward_v I I I I #
loop $-1 $-1 $137 $34 #
coedge $-1 $89 $89 $90 $138 reversed $54 $-1 #
coedge $-1 $90 $90 $89 $138 forward $56 $-1 #
coedge $-1 $91 $91 $57 $92 forward $86 $-1 #
edge $-1 $139 -5.9944162894154966e-016 $139 6.2831853071795996 $91 $140 forward 7 unknown #
loop $-1 $-1 $98 $58 #
plane-surface $-1 -47.863221500274747 -34.958677173506999 9.1151906094510267 0 -0.83867057594974714 0.54463902268945019 1 0 0 forward_v I I I I #
loop $-1 $-1 $141 $37 #
coedge $-1 $96 $96 $97 $142 reversed $59 $-1 #
coedge $-1 $97 $97 $96 $142 forward $61 $-1 #
coedge $-1 $98 $98 $62 $99 forward $93 $-1 #
edge $-1 $143 -5.9944162894154966e-016 $143 6.2831853071795996 $98 $144 forward 7 unknown #
face $-1 $145 $146 $15 $-1 $147 reversed single #
loop $-1 $-1 $148 $63 #
plane-surface $-1 -55.009002960295419 0 0 1 0 0 0 0 -1 forward_v I I I I #
coedge $-1 $149 $111 $150 $151 forward $64 $-1 #
coedge $-1 $152 $66 $149 $153 forward $41 $-1 #
coedge $-1 $66 $152 $154 $155 forward $41 $-1 #
coedge $-1 $114 $113 $66 $107 reversed $115 $-1 #
edge $-1 $156 -34.958677173506992 $157 34.958677173506992 $106 $158 forward 7 unknown #
coedge $-1 $68 $67 $159 $160 forward $26 $-1 #
coedge $-1 $161 $162 $67 $110 reversed $146 $-1 #
edge $-1 $117 -55.009002960295419 $163 55.009002960295419 $109 $164 forward 7 unknown #
coedge $-1 $103 $165 $68 $112 reversed $64 $-1 #
edge $-1 $166 -55.009002960295419 $116 55.009002960295419 $111 $167 forward 7 unknown #
coedge $-1 $106 $69 $165 $168 forward $115 $-1 #
coedge $-1 $69 $106 $161 $169 reversed $115 $-1 #
loop $-1 $-1 $113 $145 #
vertex $-1 $70 $170 #
vertex $-1 $70 $171 #
straight-curve $-1 55.009002960295419 0 13.414500181313215 0 1 0 I I #
face $-1 $-1 $172 $16 $-1 $173 reversed single #
loop $-1 $-1 $174 $71 #
plane-surface $-1 -55.009002960295419 0 0 1 0 0 0 0 -1 forward_v I I I I #
coedge $-1 $175 $74 $76 $128 forward $45 $-1 #
coedge $-1 $74 $175 $174 $176 reversed $45 $-1 #
coedge $-1 $177 $77 $74 $125 forward $72 $-1 #
edge $-1 $131 16.785829290116702 $178 31.077392210158045 $124 $179 forward 7 unknown #
coedge $-1 $180 $181 $75 $127 forward $172 $-1 #
edge $-1 $182 -25.402454306690846 $130 -21.103144734828668 $126 $183 forward 7 unknown #
edge $-1 $131 -5.126338869100616 $182 -1.2808562293387176e-014 $76 $184 forward 7 unknown #
coedge $-1 $77 $177 $180 $185 forward $72 $-1 #
vertex $-1 $127 $186 #
vertex $-1 $78 $187 #
straight-curve $-1 -40.717440040254075 -63.613770781885805 13.414500181313215 0 1 0 I I #
coedge $-1 $133 $133 $-1 $188 reversed $81 $-1 #
edge $-1 $189 0 $189 6.2831853071796004 $82 $190 forward 7 unknown #
vertex $-1 $85 $191 #
ellipse-curve $-1 -52.150690376287152 -33.562675077686045 11.264845395382123 0 -0.83867057594974714 0.54463902268945019 1 0 0 1 I I #
coedge $-1 $137 $137 $-1 $192 reversed $88 $-1 #
edge $-1 $193 0 $193 6.2831853071796004 $89 $194 forward 7 unknown #
vertex $-1 $92 $195 #
ellipse-curve $-1 -47.863221500274747 -33.562675077686045 11.264845395382123 0 -0.83867057594974714 0.54463902268945019 1 0 0 1 I I #
coedge $-1 $141 $141 $-1 $196 reversed $95 $-1 #
edge $-1 $197 0 $197 6.2831853071796004 $96 $198 forward 7 unknown #
vertex $-1 $99 $199 #
ellipse-curve $-1 -43.575752624262336 -33.562675077686045 11.264845395382123 0 -0.83867057594974714 0.54463902268945019 1 0 0 1 I I #
face $-1 $-1 $115 $15 $-1 $200 reversed single #
loop $-1 $-1 $161 $100 #
plane-surface $-1 0 34.958677173506992 0 0 -1 0 0 0 -1 forward_v I I I I #
coedge $-1 $201 $159 $162 $202 forward $101 $-1 #
coedge $-1 $165 $103 $104 $153 reversed $64 $-1 #
coedge $-1 $159 $201 $103 $151 reversed $101 $-1 #
edge $-1 $166 -13.414500181313215 $203 13.414500181313215 $150 $204 forward 7 unknown #
coedge $-1 $105 $104 $201 $205 forward $41 $-1 #
edge $-1 $157 -55.009002960295419 $203 55.009002960295419 $149 $206 forward 7 unknown #
coedge $-1 $162 $161 $105 $155 reversed $146 $-1 #
edge $-1 $207 -55.009002960295419 $156 55.009002960295419 $154 $208 forward 7 unknown #
vertex $-1 $107 $209 #
vertex $-1 $168 $210 #
straight-curve $-1 55.009002960295419 0 -13.414500181313215 0 -1 0 I I #
coedge $-1 $148 $150 $108 $160 reversed $101 $-1 #
edge $-1 $163 -34.958677173506992 $166 34.958677173506992 $159 $211 forward 7 unknown #
coedge $-1 $154 $109 $114 $169 forward $146 $-1 #
coedge $-1 $109 $154 $148 $202 reversed $146 $-1 #
vertex $-1 $110 $212 #
straight-curve $-1 0 34.958677173506992 13.414500181313215 -1 0 0 I I #
coedge $-1 $111 $149 $113 $168 reversed $64 $-1 #
vertex $-1 $160 $213 #
straight-curve $-1 0 -34.958677173506992 13.414500181313215 1 0 0 I I #
edge $-1 $116 -13.414500181313215 $157 13.414500181313215 $113 $214 forward 7 unknown #
edge $-1 $117 -13.414500181313215 $156 13.414500181313215 $114 $215 forward 7 unknown #
point $-1 55.009002960295419 -34.958677173506992 13.414500181313215 #
point $-1 55.009002960295419 34.958677173506992 13.414500181313215 #
loop $-1 $-1 $126 $119 #
plane-surface $-1 0 -34.958677173506992 0 0 1 0 0 0 1 forward_v I I I I #
coedge $-1 $216 $217 $123 $176 forward $120 $-1 #
coedge $-1 $123 $122 $181 $218 reversed $45 $-1 #
edge $-1 $178 0.57126993688679606 $219 5.6976088059873984 $174 $220 forward 7 unknown #
coedge $-1 $129 $124 $217 $221 forward $72 $-1 #
vertex $-1 $221 $222 #
straight-curve $-1 -23.931610750137374 -32.166672981865098 13.414500181313215 -1 0 0 I I #
coedge $-1 $223 $126 $129 $185 reversed $172 $-1 #
coedge $-1 $126 $223 $175 $218 forward $172 $-1 #
vertex $-1 $127 $224 #
straight-curve $-1 -40.717440040254075 -34.958677173506992 34.517644916141883 0 0 1 I I #
straight-curve $-1 -40.717440040254075 -34.958677173506999 9.1151906094510267 0 -0.54463902268945019 -0.83867057594974714 I I #
edge $-1 $225 -55.009002960295419 $130 -40.717440040254075 $180 $226 forward 7 unknown #
point $-1 -40.717440040254075 -34.958677173506992 13.414500181313215 #
point $-1 -40.717440040254075 -32.166672981865098 13.414500181313215 #
edge $-1 $227 1 $227 0 $133 $-1 forward 7 unknown #
vertex $-1 $134 $228 #
ellipse-curve $-1 -52.150690376287152 -30.242392421522673 9.1086286962834446 0 -0.83867057594974714 0.54463902268945019 1 0 0 1 I I #
point $-1 -51.150690376287152 -33.562675077686038 11.264845395382117 #
edge $-1 $229 1 $229 0 $137 $-1 forward 7 unknown #
vertex $-1 $138 $230 #
ellipse-curve $-1 -47.863221500274747 -30.242392421522673 9.1086286962834446 0 -0.83867057594974714 0.54463902268945019 1 0 0 1 I I #
point $-1 -46.863221500274747 -33.562675077686038 11.264845395382117 #
edge $-1 $231 1 $231 0 $141 $-1 forward 7 unknown #
vertex $-1 $142 $232 #
ellipse-curve $-1 -43.575752624262336 -30.242392421522673 9.1086286962834446 0 -0.83867057594974714 0.54463902268945019 1 0 0 1 I I #
point $-1 -42.575752624262336 -33.562675077686038 11.264845395382117 #
plane-surface $-1 55.009002960295419 0 0 -1 0 0 0 0 1 forward_v I I I I #
coedge $-1 $150 $148 $152 $205 reversed $101 $-1 #
edge $-1 $163 -13.414500181313215 $207 13.414500181313215 $162 $233 forward 7 unknown #
vertex $-1 $205 $234 #
straight-curve $-1 -55.009002960295419 -34.958677173506992 0 0 0 -1 I I #
edge $-1 $203 -34.958677173506992 $207 34.958677173506992 $201 $235 forward 7 unknown #
straight-curve $-1 0 -34.958677173506992 -13.414500181313215 -1 0 0 I I #
vertex $-1 $155 $236 #
straight-curve $-1 0 34.958677173506992 -13.414500181313215 1 0 0 I I #
point $-1 55.009002960295419 34.958677173506992 -13.414500181313215 #
point $-1 55.009002960295419 -34.958677173506992 -13.414500181313215 #
straight-curve $-1 -55.009002960295419 0 13.414500181313215 0 -1 0 I I #
point $-1 -55.009002960295419 34.958677173506992 13.414500181313215 #
point $-1 -55.009002960295419 -34.958677173506992 13.414500181313215 #
straight-curve $-1 55.009002960295419 -34.958677173506992 0 0 0 -1 I I #
straight-curve $-1 55.009002960295419 34.958677173506992 0 0 0 -1 I I #
coedge $-1 $217 $174 $223 $237 reversed $120 $-1 #
coedge $-1 $174 $216 $177 $221 reversed $120 $-1 #
edge $-1 $219 -31.077392210158045 $182 -16.785829290116702 $181 $238 forward 7 unknown #
vertex $-1 $176 $239 #
straight-curve $-1 -55.009002960295419 -31.855537081747208 13.89360746830484 0 -0.54463902268945019 -0.83867057594974714 I I #
edge $-1 $178 32.166672981865098 $225 34.958677173506992 $217 $240 forward 7 unknown #
point $-1 -55.009002960295419 -32.166672981865098 13.414500181313215 #
coedge $-1 $181 $180 $216 $237 forward $172 $-1 #
point $-1 -40.717440040254075 -34.958677173506992 9.1151906094510373 #
vertex $-1 $221 $241 #
straight-curve $-1 0 -34.958677173506992 13.414500181313215 1 0 0 I I #
vertex $-1 $188 $242 #
point $-1 -51.150690376287152 -30.242392421522673 9.1086286962834446 #
vertex $-1 $192 $243 #
point $-1 -46.863221500274747 -30.242392421522673 9.1086286962834446 #
vertex $-1 $196 $244 #
point $-1 -42.575752624262336 -30.242392421522673 9.1086286962834446 #
straight-curve $-1 -55.009002960295419 34.958677173506992 0 0 0 -1 I I #
point $-1 -55.009002960295419 -34.958677173506992 -13.414500181313215 #
straight-curve $-1 -55.009002960295419 0 -13.414500181313215 0 1 0 I I #
point $-1 -55.009002960295419 34.958677173506992 -13.414500181313215 #
edge $-1 $225 -13.414500181313215 $219 -9.1151906094510373 $216 $245 forward 7 unknown #
straight-curve $-1 -23.931610750137374 -34.958677173506992 9.1151906094510373 1 0 0 I I #
point $-1 -55.009002960295419 -34.958677173506992 9.1151906094510373 #
straight-curve $-1 -55.009002960295419 0 13.414500181313215 0 -1 0 I I #
point $-1 -55.009002960295419 -34.958677173506992 13.414500181313215 #
point $-1 -52.150690376287152 -29.403721845572932 8.563989673593996 #
point $-1 -47.863221500274747 -29.403721845572932 8.563989673593996 #
point $-1 -43.575752624262336 -29.403721845572932 8.563989673593996 #
straight-curve $-1 -55.009002960295419 -34.958677173506992 0 0 0 -1 I I #
End-of-ACIS-data 