500 0 6 0           
7 Unknown 11 ACIS 5.0 NT 24 Fri Mar 26 14:26:24 1999 
-1 9.9999999999999995e-007 1e-010 
body $-1 $6 $-1 $7 #
body $-1 $8 $-1 $9 #
body $-1 $10 $-1 $11 #
body $-1 $12 $-1 $13 #
body $-1 $14 $-1 $15 #
body $-1 $16 $-1 $17 #
lump $-1 $-1 $18 $0 #
transform $-1 1 0 0 0 1 0 0 0 1 48.703878902554401 29.351790150224691 9.7059679499108729 1 rotate no_reflect no_shear #
lump $-1 $-1 $19 $1 #
transform $-1 1 0 0 0 1 0 0 0 1 48.703878902554401 29.351790150224691 9.7059679499108729 1 rotate no_reflect no_shear #
lump $-1 $-1 $20 $2 #
transform $-1 1 0 0 0 1 0 0 0 1 48.703878902554401 29.351790150224691 9.7059679499108729 1 rotate no_reflect no_shear #
lump $-1 $-1 $21 $3 #
transform $-1 1 0 0 0 1 0 0 0 1 48.703878902554401 29.351790150224691 9.7059679499108729 1 rotate no_reflect no_shear #
lump $-1 $-1 $22 $4 #
transform $-1 1 0 0 0 1 0 0 0 1 48.703878902554401 29.351790150224691 9.7059679499108729 1 rotate no_reflect no_shear #
lump $-1 $-1 $23 $5 #
transform $-1 1 0 0 0 1 0 0 0 1 48.703878902554401 29.351790150224691 9.7059679499108729 1 rotate no_reflect no_shear #
shell $-1 $-1 $-1 $24 $-1 $6 #
shell $-1 $-1 $-1 $25 $-1 $8 #
shell $-1 $-1 $-1 $26 $-1 $10 #
shell $-1 $-1 $-1 $27 $-1 $12 #
shell $-1 $-1 $-1 $28 $-1 $14 #
shell $-1 $-1 $-1 $29 $-1 $16 #
face $-1 $30 $31 $18 $-1 $32 forward single #
face $-1 $33 $34 $19 $-1 $35 forward single #
face $-1 $36 $37 $20 $-1 $38 reversed single #
face $-1 $39 $40 $21 $-1 $41 forward single #
face $-1 $42 $43 $22 $-1 $44 reversed single #
face $-1 $45 $46 $23 $-1 $47 forward single #
face $-1 $48 $49 $18 $-1 $50 reversed single #
loop $-1 $-1 $51 $24 #
plane-surface $-1 0 0 9.7059679499108729 0 0 1 1 0 0 forward_v I I I I #
face $-1 $52 $53 $19 $-1 $54 reversed single #
loop $-1 $-1 $55 $25 #
plane-surface $-1 0 -24.899870858786826 -3.846793872730272 0 0 1 1 0 0 forward_v I I I I #
face $-1 $56 $57 $20 $-1 $58 reversed single #
loop $-1 $-1 $59 $26 #
plane-surface $-1 -131.31034323196306 20.089251820880428 55.047259844711746 0 1 0 -0.84804810408105047 0 0.52991925155115449 forward_v I I I I #
face $-1 $60 $61 $21 $-1 $62 forward single #
loop $-1 $63 $64 $27 #
cone-surface $-1 -44.245997850988587 24.720520985552557 5.0073527381276595 0.84804810408105047 0 -0.52991925155115449 0.79487887732673168 0 1.2720721561215758 1 I I 0 1 1.5 forward I I I I #
face $-1 $65 $66 $22 $-1 $67 reversed single #
loop $-1 $-1 $68 $28 #
plane-surface $-1 51.108043280138581 -2.5752204896848916 138.92630872618963 0 -1 0 -0.71933980857756763 0 -0.69465836192734942 forward_v I I I I #
face $-1 $69 $70 $23 $-1 $71 forward single #
loop $-1 $72 $73 $29 #
cone-surface $-1 43.041376567296048 -9.8382378333882059 3.9506370692553472 -0.71933980857756763 0 -0.69465836192734942 1.3893167238546988 0 -1.4386796171551353 1 I I 0 1 2 forward I I I I #
face $-1 $74 $75 $18 $-1 $76 reversed single #
loop $-1 $-1 $77 $30 #
plane-surface $-1 0 0 -9.7059679499108729 0 0 1 1 0 0 forward_v I I I I #
coedge $-1 $78 $79 $80 $81 forward $31 $-1 #
face $-1 $82 $83 $19 $-1 $84 reversed single #
loop $-1 $-1 $85 $33 #
plane-surface $-1 0 -24.899870858786826 -8.0263998472422013 0 0 1 1 0 0 forward_v I I I I #
coedge $-1 $86 $87 $88 $89 reversed $34 $-1 #
face $-1 $90 $91 $20 $-1 $92 forward single #
loop $-1 $-1 $93 $36 #
plane-surface $-1 -48.703878902554393 24.720520985552564 3.4290137333523631 -0.84804810408105047 0 0.52991925155115449 0.52991925155115449 0 0.84804810408105047 forward_v I I I I #
coedge $-1 $94 $95 $96 $97 reversed $37 $-1 #
face $-1 $-1 $98 $21 $-1 $99 forward single #
loop $-1 $100 $101 $39 #
cone-surface $-1 -41.113218812734708 24.720520985552557 3.0497751959603381 0.84804810408105047 0 -0.52991925155115449 0.39743943866336584 0 0.63603607806078788 1 I I -0.70710678118654757 0.70710678118654757 0.75 forward I I I I #
loop $-1 $-1 $102 $27 #
coedge $-1 $64 $64 $103 $104 reversed $40 $-1 #
face $-1 $105 $106 $22 $-1 $107 reversed single #
loop $-1 $-1 $108 $42 #
plane-surface $-1 -18.961234573358446 -9.8382378333882059 71.261195250276771 0.71933980857756763 0 0.69465836192734942 0.69465836192734942 0 -0.71933980857756763 forward_v I I I I #
coedge $-1 $109 $110 $111 $112 reversed $43 $-1 #
face $-1 $-1 $113 $23 $-1 $114 forward single #
loop $-1 $115 $116 $45 #
cone-surface $-1 40.770495849534861 -9.8382378333882059 1.7576731032380462 -0.71933980857756763 0 -0.69465836192734942 0.69465836192734942 0 -0.71933980857756763 1 I I -0.70710678118654746 0.70710678118654746 1 forward I I I I #
loop $-1 $-1 $117 $29 #
coedge $-1 $73 $73 $118 $119 reversed $46 $-1 #
face $-1 $120 $121 $18 $-1 $122 reversed single #
loop $-1 $-1 $123 $48 #
plane-surface $-1 0 -29.351790150224691 0 0 1 0 0 0 1 forward_v I I I I #
coedge $-1 $124 $125 $126 $127 forward $49 $-1 #
coedge $-1 $128 $51 $129 $130 forward $31 $-1 #
coedge $-1 $51 $128 $131 $132 forward $31 $-1 #
coedge $-1 $133 $134 $51 $81 reversed $135 $-1 #
edge $-1 $136 -29.351790150224691 $137 29.351790150224691 $80 $138 forward 7 unknown #
face $-1 $139 $140 $19 $-1 $141 reversed single #
loop $-1 $-1 $142 $52 #
plane-surface $-1 0 -20.447951567348962 -5.9365968599862367 0 -1 0 0 0 -1 forward_v I I I I #
coedge $-1 $143 $144 $145 $146 reversed $53 $-1 #
coedge $-1 $147 $55 $148 $149 forward $34 $-1 #
coedge $-1 $55 $147 $150 $151 reversed $34 $-1 #
coedge $-1 $152 $153 $55 $89 forward $154 $-1 #
edge $-1 $155 7.998016137955549 $156 16.901854720831277 $88 $157 forward 7 unknown #
face $-1 $158 $159 $20 $-1 $160 reversed single #
loop $-1 $-1 $96 $56 #
plane-surface $-1 0 0 9.7059679499108729 0 0 1 1 0 0 forward_v I I I I #
coedge $-1 $161 $162 $163 $164 reversed $57 $-1 #
coedge $-1 $95 $59 $165 $166 reversed $37 $-1 #
coedge $-1 $59 $94 $161 $167 reversed $37 $-1 #
coedge $-1 $163 $168 $59 $97 forward $91 $-1 #
edge $-1 $169 16.951292713427129 $170 20.8735688961726 $96 $171 forward 7 unknown #
loop $-1 $-1 $103 $60 #
plane-surface $-1 -48.703878902554393 24.720520985552564 3.4290137333523631 -0.84804810408105047 0 0.52991925155115449 0.52991925155115449 0 0.84804810408105047 forward_v I I I I #
loop $-1 $-1 $172 $39 #
coedge $-1 $101 $101 $102 $173 reversed $61 $-1 #
coedge $-1 $102 $102 $101 $173 forward $63 $-1 #
coedge $-1 $103 $103 $64 $104 forward $98 $-1 #
edge $-1 $174 0 $174 6.2831853071796004 $103 $175 forward 7 unknown #
face $-1 $176 $177 $22 $-1 $178 reversed single #
loop $-1 $-1 $179 $65 #
plane-surface $-1 51.108043280138581 -17.10125517709152 138.92630872618963 0 1 0 0.71933980857756763 0 0.69465836192734942 forward_v I I I I #
coedge $-1 $180 $181 $182 $183 reversed $66 $-1 #
coedge $-1 $110 $68 $184 $185 reversed $43 $-1 #
coedge $-1 $68 $109 $180 $186 reversed $43 $-1 #
coedge $-1 $182 $187 $68 $112 forward $188 $-1 #
edge $-1 $189 -23.14985726248511 $190 -14.927934410335677 $111 $191 forward 7 unknown #
loop $-1 $-1 $118 $69 #
plane-surface $-1 -18.961234573358446 -9.8382378333882059 71.261195250276771 0.71933980857756763 0 0.69465836192734942 0.69465836192734942 0 -0.71933980857756763 forward_v I I I I #
loop $-1 $-1 $192 $45 #
coedge $-1 $116 $116 $117 $193 reversed $70 $-1 #
coedge $-1 $117 $117 $116 $193 forward $72 $-1 #
coedge $-1 $118 $118 $73 $119 forward $113 $-1 #
edge $-1 $194 0 $194 6.2831853071796004 $118 $195 forward 7 unknown #
face $-1 $196 $197 $18 $-1 $198 reversed single #
loop $-1 $-1 $199 $74 #
plane-surface $-1 -48.703878902554401 0 0 1 0 0 0 0 -1 forward_v I I I I #
coedge $-1 $200 $131 $201 $202 forward $75 $-1 #
coedge $-1 $203 $77 $200 $204 forward $49 $-1 #
coedge $-1 $77 $203 $205 $206 forward $49 $-1 #
coedge $-1 $134 $133 $77 $127 reversed $135 $-1 #
edge $-1 $207 -29.351790150224691 $208 29.351790150224691 $126 $209 forward 7 unknown #
coedge $-1 $79 $78 $210 $211 forward $31 $-1 #
coedge $-1 $212 $213 $78 $130 reversed $197 $-1 #
edge $-1 $137 -48.703878902554401 $214 48.703878902554401 $129 $215 forward 7 unknown #
coedge $-1 $123 $216 $79 $132 reversed $75 $-1 #
edge $-1 $217 -48.703878902554401 $136 48.703878902554401 $131 $218 forward 7 unknown #
coedge $-1 $126 $80 $216 $219 forward $135 $-1 #
coedge $-1 $80 $126 $212 $220 reversed $135 $-1 #
loop $-1 $-1 $133 $196 #
vertex $-1 $81 $221 #
vertex $-1 $81 $222 #
straight-curve $-1 48.703878902554401 0 9.7059679499108729 0 1 0 I I #
face $-1 $223 $224 $19 $-1 $225 reversed single #
loop $-1 $-1 $226 $82 #
plane-surface $-1 -48.703878902554401 0 0 1 0 0 0 0 -1 forward_v I I I I #
coedge $-1 $227 $148 $153 $228 reversed $83 $-1 #
coedge $-1 $229 $85 $230 $231 reversed $53 $-1 #
coedge $-1 $85 $229 $227 $232 forward $53 $-1 #
coedge $-1 $153 $152 $85 $146 forward $154 $-1 #
edge $-1 $233 -16.901854720831277 $234 -7.998016137955549 $145 $235 forward 7 unknown #
coedge $-1 $87 $86 $226 $236 reversed $34 $-1 #
coedge $-1 $142 $237 $86 $149 reversed $83 $-1 #
edge $-1 $155 -48.703878902554401 $238 48.703878902554401 $148 $239 forward 7 unknown #
coedge $-1 $240 $241 $87 $151 forward $224 $-1 #
edge $-1 $156 -48.703878902554401 $242 48.703878902554401 $150 $243 forward 7 unknown #
coedge $-1 $145 $88 $241 $244 forward $154 $-1 #
coedge $-1 $88 $145 $142 $228 forward $154 $-1 #
loop $-1 $-1 $88 $223 #
vertex $-1 $89 $245 #
vertex $-1 $244 $246 #
straight-curve $-1 48.703878902554401 -12.449935429393413 -3.846793872730272 0 -1 0 I I #
face $-1 $-1 $247 $20 $-1 $248 reversed single #
loop $-1 $-1 $249 $90 #
plane-surface $-1 0 29.351790150224691 0 0 -1 0 0 0 -1 forward_v I I I I #
coedge $-1 $250 $93 $95 $167 forward $57 $-1 #
coedge $-1 $93 $250 $249 $251 reversed $57 $-1 #
coedge $-1 $252 $96 $93 $164 forward $91 $-1 #
edge $-1 $170 7.7289913281041454 $253 16.991529657448417 $163 $254 forward 7 unknown #
coedge $-1 $255 $256 $94 $166 forward $247 $-1 #
edge $-1 $257 -24.094616189003521 $169 -17.817661972445002 $165 $258 forward 7 unknown #
edge $-1 $170 -7.4016487818933943 $257 1.3557137071152151e-014 $95 $259 forward 7 unknown #
coedge $-1 $96 $252 $255 $260 forward $91 $-1 #
vertex $-1 $166 $261 #
vertex $-1 $97 $262 #
straight-curve $-1 -65.65517161598153 20.089251820880428 9.7059679499108711 1 0 0 I I #
coedge $-1 $172 $172 $-1 $263 reversed $100 $-1 #
edge $-1 $264 0 $264 6.2831853071796004 $101 $265 forward 7 unknown #
vertex $-1 $104 $266 #
ellipse-curve $-1 -46.742740811181669 24.720520985552557 6.56749084163161 -0.84804810408105047 0 0.52991925155115449 0.79487887732673168 0 1.2720721561215758 1 I I #
face $-1 $-1 $188 $22 $-1 $267 forward single #
loop $-1 $-1 $268 $105 #
plane-surface $-1 48.703878902554401 0 0 -1 0 0 0 0 1 forward_v I I I I #
coedge $-1 $269 $270 $271 $272 reversed $106 $-1 #
coedge $-1 $273 $108 $110 $186 forward $66 $-1 #
coedge $-1 $108 $273 $269 $274 forward $66 $-1 #
coedge $-1 $271 $111 $108 $183 forward $188 $-1 #
edge $-1 $190 -2.3438984270092114 $275 12.182136260397417 $182 $276 forward 7 unknown #
coedge $-1 $277 $278 $109 $185 forward $177 $-1 #
edge $-1 $279 -68.271236966315058 $189 -59.757186413183945 $184 $280 forward 7 unknown #
edge $-1 $190 85.571834849632538 $279 97.407757805108787 $110 $281 forward 7 unknown #
coedge $-1 $111 $271 $277 $282 forward $188 $-1 #
loop $-1 $-1 $271 $176 #
vertex $-1 $185 $283 #
vertex $-1 $112 $284 #
straight-curve $-1 25.554021640069291 -2.5752204896848916 9.7059679499108711 -1 0 0 I I #
coedge $-1 $192 $192 $-1 $285 reversed $115 $-1 #
edge $-1 $286 0 $286 6.2831853071796004 $116 $287 forward 7 unknown #
vertex $-1 $119 $288 #
ellipse-curve $-1 44.592917476479677 -9.8382378333882059 5.4489426733453099 0.71933980857756763 0 0.69465836192734942 1.3893167238546988 0 -1.4386796171551353 1 I I #
face $-1 $-1 $135 $18 $-1 $289 reversed single #
loop $-1 $-1 $212 $120 #
plane-surface $-1 0 29.351790150224691 0 0 -1 0 0 0 -1 forward_v I I I I #
coedge $-1 $290 $210 $213 $291 forward $121 $-1 #
coedge $-1 $216 $123 $124 $204 reversed $75 $-1 #
coedge $-1 $210 $290 $123 $202 reversed $121 $-1 #
edge $-1 $217 -9.7059679499108729 $292 9.7059679499108729 $201 $293 forward 7 unknown #
coedge $-1 $125 $124 $290 $294 forward $49 $-1 #
edge $-1 $208 -48.703878902554401 $292 48.703878902554401 $200 $295 forward 7 unknown #
coedge $-1 $213 $212 $125 $206 reversed $197 $-1 #
edge $-1 $296 -48.703878902554401 $207 48.703878902554401 $205 $297 forward 7 unknown #
vertex $-1 $127 $298 #
vertex $-1 $219 $299 #
straight-curve $-1 48.703878902554401 0 -9.7059679499108729 0 -1 0 I I #
coedge $-1 $199 $201 $128 $211 reversed $121 $-1 #
edge $-1 $214 -29.351790150224691 $217 29.351790150224691 $210 $300 forward 7 unknown #
coedge $-1 $205 $129 $134 $220 forward $197 $-1 #
coedge $-1 $129 $205 $199 $291 reversed $197 $-1 #
vertex $-1 $130 $301 #
straight-curve $-1 0 29.351790150224691 9.7059679499108729 -1 0 0 I I #
coedge $-1 $131 $200 $133 $219 reversed $75 $-1 #
vertex $-1 $211 $302 #
straight-curve $-1 0 -29.351790150224691 9.7059679499108729 1 0 0 I I #
edge $-1 $136 -9.7059679499108729 $208 9.7059679499108729 $133 $303 forward 7 unknown #
edge $-1 $137 -9.7059679499108729 $207 9.7059679499108729 $134 $304 forward 7 unknown #
point $-1 48.703878902554401 -29.351790150224691 9.7059679499108729 #
point $-1 48.703878902554401 29.351790150224691 9.7059679499108729 #
face $-1 $-1 $154 $19 $-1 $305 reversed single #
loop $-1 $-1 $150 $139 #
plane-surface $-1 0 -29.351790150224691 0 0 1 0 0 0 1 forward_v I I I I #
coedge $-1 $306 $307 $147 $236 forward $140 $-1 #
coedge $-1 $237 $142 $144 $232 reversed $83 $-1 #
edge $-1 $234 -5.058101417249083 $155 -0.87849544273715363 $153 $308 forward 7 unknown #
coedge $-1 $144 $143 $309 $310 reversed $53 $-1 #
coedge $-1 $241 $240 $143 $231 forward $224 $-1 #
edge $-1 $311 -48.703878902554401 $233 48.703878902554401 $230 $312 forward 7 unknown #
edge $-1 $313 -48.703878902554401 $234 48.703878902554401 $227 $314 forward 7 unknown #
vertex $-1 $231 $315 #
vertex $-1 $146 $316 #
straight-curve $-1 48.703878902554401 -12.449935429393413 -8.0263998472422013 0 1 0 I I #
edge $-1 $242 -16.901854720831277 $238 -7.998016137955549 $226 $317 forward 7 unknown #
coedge $-1 $148 $227 $306 $318 reversed $83 $-1 #
vertex $-1 $236 $319 #
straight-curve $-1 0 -20.447951567348962 -3.846793872730272 -1 0 0 I I #
coedge $-1 $230 $150 $307 $320 forward $224 $-1 #
coedge $-1 $150 $230 $152 $244 reversed $224 $-1 #
vertex $-1 $320 $321 #
straight-curve $-1 0 -29.351790150224691 -3.846793872730272 -1 0 0 I I #
edge $-1 $156 3.846793872730272 $233 8.0263998472422013 $152 $322 forward 7 unknown #
point $-1 48.703878902554401 -20.447951567348962 -3.846793872730272 #
point $-1 48.703878902554401 -29.351790150224691 -3.846793872730272 #
loop $-1 $-1 $165 $158 #
plane-surface $-1 -48.703878902554401 0 0 1 0 0 0 0 -1 forward_v I I I I #
coedge $-1 $323 $324 $162 $251 forward $159 $-1 #
coedge $-1 $162 $161 $256 $325 reversed $57 $-1 #
edge $-1 $253 4.0489284482277705 $326 11.450577230121178 $249 $327 forward 7 unknown #
coedge $-1 $168 $163 $324 $328 forward $91 $-1 #
vertex $-1 $328 $329 #
straight-curve $-1 -44.78160271980893 12.360260492776282 9.7059679499108746 0 1 0 I I #
coedge $-1 $330 $165 $168 $260 reversed $247 $-1 #
coedge $-1 $165 $330 $250 $325 forward $247 $-1 #
vertex $-1 $166 $331 #
straight-curve $-1 -48.703878902554401 20.089251820880428 27.523629922355873 0 0 1 I I #
straight-curve $-1 -48.703878902554393 20.089251820880428 3.4290137333523631 -0.52991925155115449 0 -0.84804810408105047 I I #
edge $-1 $332 -29.351790150224691 $169 -20.089251820880428 $255 $333 forward 7 unknown #
point $-1 -48.703878902554401 20.089251820880428 9.7059679499108729 #
point $-1 -44.78160271980893 20.089251820880428 9.7059679499108729 #
edge $-1 $334 1 $334 0 $172 $-1 forward 7 unknown #
vertex $-1 $173 $335 #
ellipse-curve $-1 -41.749254890795498 24.720520985552557 3.447214634623704 -0.84804810408105047 0 0.52991925155115449 0.79487887732673168 0 1.2720721561215758 1 I I #
point $-1 -45.947861933854938 24.720520985552557 7.8395629977531911 #
plane-surface $-1 0 0 9.7059679499108729 0 0 1 1 0 0 forward_v I I I I #
coedge $-1 $278 $277 $270 $336 forward $177 $-1 #
coedge $-1 $270 $179 $181 $274 reversed $106 $-1 #
coedge $-1 $179 $269 $268 $336 reversed $106 $-1 #
coedge $-1 $187 $182 $179 $272 forward $188 $-1 #
edge $-1 $275 14.927934410335677 $337 23.14985726248511 $271 $338 forward 7 unknown #
coedge $-1 $181 $180 $278 $339 reversed $66 $-1 #
edge $-1 $340 -97.407757805108787 $275 -85.571834849632538 $269 $341 forward 7 unknown #
vertex $-1 $183 $342 #
straight-curve $-1 40.48195605040496 -4.9191189166941029 9.7059679499108782 0 -1 0 I I #
coedge $-1 $268 $184 $187 $282 reversed $177 $-1 #
coedge $-1 $184 $268 $273 $339 forward $177 $-1 #
vertex $-1 $185 $343 #
straight-curve $-1 48.703878902554401 -2.5752204896848916 69.463154363094816 0 0 1 I I #
straight-curve $-1 -18.961234573358446 -2.5752204896848916 71.261195250276771 0.69465836192734942 0 -0.71933980857756763 I I #
edge $-1 $337 -17.10125517709152 $189 -2.5752204896848916 $277 $344 forward 7 unknown #
point $-1 48.703878902554401 -2.5752204896848916 9.7059679499108729 #
point $-1 40.481956050404968 -2.5752204896848916 9.7059679499108711 #
edge $-1 $345 1 $345 0 $192 $-1 forward 7 unknown #
vertex $-1 $193 $346 #
ellipse-curve $-1 41.489835658112426 -9.8382378333882059 2.4523314651653956 0.71933980857756763 0 0.69465836192734942 1.3893167238546988 0 -1.4386796171551353 1 I I #
point $-1 45.982234200334361 -9.8382378333882059 4.0102630561901629 #
plane-surface $-1 48.703878902554401 0 0 -1 0 0 0 0 1 forward_v I I I I #
coedge $-1 $201 $199 $203 $294 reversed $121 $-1 #
edge $-1 $214 -9.7059679499108729 $296 9.7059679499108729 $213 $347 forward 7 unknown #
vertex $-1 $294 $348 #
straight-curve $-1 -48.703878902554401 -29.351790150224691 0 0 0 -1 I I #
edge $-1 $292 -29.351790150224691 $296 29.351790150224691 $290 $349 forward 7 unknown #
straight-curve $-1 0 -29.351790150224691 -9.7059679499108729 -1 0 0 I I #
vertex $-1 $206 $350 #
straight-curve $-1 0 29.351790150224691 -9.7059679499108729 1 0 0 I I #
point $-1 48.703878902554401 29.351790150224691 -9.7059679499108729 #
point $-1 48.703878902554401 -29.351790150224691 -9.7059679499108729 #
straight-curve $-1 -48.703878902554401 0 9.7059679499108729 0 -1 0 I I #
point $-1 -48.703878902554401 29.351790150224691 9.7059679499108729 #
point $-1 -48.703878902554401 -29.351790150224691 9.7059679499108729 #
straight-curve $-1 48.703878902554401 -29.351790150224691 0 0 0 -1 I I #
straight-curve $-1 48.703878902554401 29.351790150224691 0 0 0 -1 I I #
plane-surface $-1 48.703878902554401 0 0 -1 0 0 0 0 1 forward_v I I I I #
coedge $-1 $309 $226 $237 $318 forward $140 $-1 #
coedge $-1 $226 $309 $240 $320 reversed $140 $-1 #
straight-curve $-1 48.703878902554401 -20.447951567348962 -2.9682984299931183 0 0 1 I I #
coedge $-1 $307 $306 $229 $310 forward $140 $-1 #
edge $-1 $313 7.998016137955549 $311 16.901854720831277 $309 $351 forward 7 unknown #
vertex $-1 $231 $352 #
straight-curve $-1 0 -29.351790150224691 -8.0263998472422013 1 0 0 I I #
vertex $-1 $310 $353 #
straight-curve $-1 0 -20.447951567348962 -8.0263998472422013 1 0 0 I I #
point $-1 48.703878902554401 -29.351790150224691 -8.0263998472422013 #
point $-1 48.703878902554401 -20.447951567348962 -8.0263998472422013 #
straight-curve $-1 -48.703878902554401 -12.449935429393413 -3.846793872730272 0 1 0 I I #
edge $-1 $238 0.87849544273715363 $313 5.058101417249083 $306 $354 forward 7 unknown #
point $-1 -48.703878902554401 -20.447951567348962 -3.846793872730272 #
edge $-1 $242 3.846793872730272 $311 8.0263998472422013 $307 $355 forward 7 unknown #
point $-1 -48.703878902554401 -29.351790150224691 -3.846793872730272 #
straight-curve $-1 48.703878902554401 -29.351790150224691 0 0 0 -1 I I #
coedge $-1 $324 $249 $330 $356 reversed $159 $-1 #
coedge $-1 $249 $323 $252 $328 reversed $159 $-1 #
edge $-1 $326 -16.991529657448417 $257 -7.7289913281041454 $256 $357 forward 7 unknown #
vertex $-1 $251 $358 #
straight-curve $-1 -42.635997586939894 29.351790150224691 13.139654043990264 -0.52991925155115449 0 -0.84804810408105047 I I #
edge $-1 $253 44.78160271980893 $332 48.703878902554401 $324 $359 forward 7 unknown #
point $-1 -44.78160271980893 29.351790150224701 9.7059679499108729 #
coedge $-1 $256 $255 $323 $356 forward $247 $-1 #
point $-1 -48.703878902554401 20.089251820880428 3.4290137333523516 #
vertex $-1 $328 $360 #
straight-curve $-1 -48.703878902554401 0 9.7059679499108729 0 -1 0 I I #
vertex $-1 $263 $361 #
point $-1 -40.954376013468767 24.720520985552557 4.7192867907452793 #
edge $-1 $337 59.757186413183945 $340 68.271236966315058 $268 $362 forward 7 unknown #
vertex $-1 $282 $363 #
straight-curve $-1 25.554021640069291 -17.10125517709152 9.7059679499108711 1 0 0 I I #
edge $-1 $340 -12.182136260397417 $279 2.3438984270092114 $278 $364 forward 7 unknown #
vertex $-1 $339 $365 #
straight-curve $-1 -18.961234573358446 -17.10125517709152 71.261195250276771 -0.69465836192734942 0 0.71933980857756763 I I #
point $-1 40.481956050404968 -17.10125517709152 9.7059679499108711 #
point $-1 48.703878902554401 -2.5752204896848916 1.1919173967797576 #
straight-curve $-1 48.703878902554401 0 9.7059679499108729 0 1 0 I I #
vertex $-1 $285 $366 #
point $-1 42.879152381967124 -9.8382378333882059 1.0136518480102603 #
straight-curve $-1 -48.703878902554401 29.351790150224691 0 0 0 -1 I I #
point $-1 -48.703878902554401 -29.351790150224691 -9.7059679499108729 #
straight-curve $-1 -48.703878902554401 0 -9.7059679499108729 0 1 0 I I #
point $-1 -48.703878902554401 29.351790150224691 -9.7059679499108729 #
straight-curve $-1 -48.703878902554401 -12.449935429393413 -8.0263998472422013 0 -1 0 I I #
point $-1 -48.703878902554401 -29.351790150224691 -8.0263998472422013 #
point $-1 -48.703878902554401 -20.447951567348962 -8.0263998472422013 #
straight-curve $-1 -48.703878902554401 -20.447951567348962 -2.9682984299931183 0 0 -1 I I #
straight-curve $-1 -48.703878902554401 -29.351790150224691 0 0 0 -1 I I #
edge $-1 $332 -9.7059679499108729 $326 -3.4290137333523516 $323 $367 forward 7 unknown #
straight-curve $-1 -48.703878902554401 12.360260492776282 3.4290137333523472 0 -1 0 I I #
point $-1 -48.703878902554401 29.351790150224701 3.4290137333523516 #
straight-curve $-1 0 29.351790150224691 9.7059679499108729 -1 0 0 I I #
point $-1 -48.703878902554401 29.351790150224691 9.7059679499108729 #
point $-1 -40.477182734673917 24.720520985552557 2.6523357572969721 #
straight-curve $-1 48.703878902554401 -17.10125517709152 69.463154363094816 0 0 -1 I I #
point $-1 48.703878902554401 -17.10125517709152 9.7059679499108729 #
straight-curve $-1 48.703878902554393 -4.9191189166941029 1.1919173967797576 0 1 0 I I #
point $-1 48.703878902554401 -17.10125517709152 1.1919173967797576 #
point $-1 40.051156040957295 -9.8382378333882059 1.0630147413106967 #
straight-curve $-1 -48.703878902554401 29.351790150224691 0 0 0 -1 I I #
End-of-ACIS-data 