500 0 14 0           
7 Unknown 11 ACIS 5.0 NT 24 Fri Mar 26 00:47:01 1999 
-1 9.9999999999999995e-007 1e-010 
body $-1 $14 $-1 $15 #
body $-1 $16 $-1 $17 #
body $-1 $18 $-1 $19 #
body $-1 $20 $-1 $21 #
body $-1 $22 $-1 $23 #
body $-1 $24 $-1 $25 #
body $-1 $26 $-1 $27 #
body $-1 $28 $-1 $29 #
body $-1 $30 $-1 $31 #
body $-1 $32 $-1 $33 #
body $-1 $34 $-1 $35 #
body $-1 $36 $-1 $37 #
body $-1 $38 $-1 $39 #
body $-1 $40 $-1 $41 #
lump $-1 $-1 $42 $0 #
transform $-1 1 0 0 0 1 0 0 0 1 73.226111636707657 41.279664489265812 15.967004963417512 1 rotate no_reflect no_shear #
lump $-1 $-1 $43 $1 #
transform $-1 1 0 0 0 1 0 0 0 1 73.226111636707657 41.279664489265812 15.967004963417512 1 rotate no_reflect no_shear #
lump $-1 $-1 $44 $2 #
transform $-1 1 0 0 0 1 0 0 0 1 73.226111636707657 41.279664489265812 15.967004963417512 1 rotate no_reflect no_shear #
lump $-1 $-1 $45 $3 #
transform $-1 1 0 0 0 1 0 0 0 1 73.226111636707657 41.279664489265812 15.967004963417512 1 rotate no_reflect no_shear #
lump $-1 $-1 $46 $4 #
transform $-1 1 0 0 0 1 0 0 0 1 73.226111636707657 41.279664489265812 15.967004963417512 1 rotate no_reflect no_shear #
lump $-1 $-1 $47 $5 #
transform $-1 1 0 0 0 1 0 0 0 1 73.226111636707657 41.279664489265812 15.967004963417512 1 rotate no_reflect no_shear #
lump $-1 $-1 $48 $6 #
transform $-1 1 0 0 0 1 0 0 0 1 73.226111636707657 41.279664489265812 15.967004963417512 1 rotate no_reflect no_shear #
lump $-1 $-1 $49 $7 #
transform $-1 1 0 0 0 1 0 0 0 1 73.226111636707657 41.279664489265812 15.967004963417512 1 rotate no_reflect no_shear #
lump $-1 $-1 $50 $8 #
transform $-1 1 0 0 0 1 0 0 0 1 73.226111636707657 41.279664489265812 15.967004963417512 1 rotate no_reflect no_shear #
lump $-1 $-1 $51 $9 #
transform $-1 1 0 0 0 1 0 0 0 1 73.226111636707657 41.279664489265812 15.967004963417512 1 rotate no_reflect no_shear #
lump $-1 $-1 $52 $10 #
transform $-1 1 0 0 0 1 0 0 0 1 73.226111636707657 41.279664489265812 15.967004963417512 1 rotate no_reflect no_shear #
lump $-1 $-1 $53 $11 #
transform $-1 1 0 0 0 1 0 0 0 1 73.226111636707657 41.279664489265812 15.967004963417512 1 rotate no_reflect no_shear #
lump $-1 $-1 $54 $12 #
transform $-1 1 0 0 0 1 0 0 0 1 73.226111636707657 41.279664489265812 15.967004963417512 1 rotate no_reflect no_shear #
lump $-1 $-1 $55 $13 #
transform $-1 1 0 0 0 1 0 0 0 1 73.226111636707657 41.279664489265812 15.967004963417512 1 rotate no_reflect no_shear #
shell $-1 $-1 $-1 $56 $-1 $14 #
shell $-1 $-1 $-1 $57 $-1 $16 #
shell $-1 $-1 $-1 $58 $-1 $18 #
shell $-1 $-1 $-1 $59 $-1 $20 #
shell $-1 $-1 $-1 $60 $-1 $22 #
shell $-1 $-1 $-1 $61 $-1 $24 #
shell $-1 $-1 $-1 $62 $-1 $26 #
shell $-1 $-1 $-1 $63 $-1 $28 #
shell $-1 $-1 $-1 $64 $-1 $30 #
shell $-1 $-1 $-1 $65 $-1 $32 #
shell $-1 $-1 $-1 $66 $-1 $34 #
shell $-1 $-1 $-1 $67 $-1 $36 #
shell $-1 $-1 $-1 $68 $-1 $38 #
shell $-1 $-1 $-1 $69 $-1 $40 #
face $-1 $70 $71 $42 $-1 $72 forward single #
face $-1 $73 $74 $43 $-1 $75 forward single #
face $-1 $76 $77 $44 $-1 $78 reversed single #
face $-1 $79 $80 $45 $-1 $81 forward single #
face $-1 $82 $83 $46 $-1 $84 forward single #
face $-1 $85 $86 $47 $-1 $87 reversed single #
face $-1 $88 $89 $48 $-1 $90 forward single #
face $-1 $91 $92 $49 $-1 $93 forward single #
face $-1 $94 $95 $50 $-1 $96 reversed single #
face $-1 $97 $98 $51 $-1 $99 forward single #
face $-1 $100 $101 $52 $-1 $102 forward single #
face $-1 $103 $104 $53 $-1 $105 reversed single #
face $-1 $106 $107 $54 $-1 $108 forward single #
face $-1 $109 $110 $55 $-1 $111 forward single #
face $-1 $112 $113 $42 $-1 $114 reversed single #
loop $-1 $-1 $115 $56 #
plane-surface $-1 0 0 15.967004963417512 0 0 1 1 0 0 forward_v I I I I #
face $-1 $116 $117 $43 $-1 $118 forward single #
loop $-1 $-1 $119 $57 #
plane-surface $-1 0 -41.279664489265812 0 0 1 0 0 0 1 forward_v I I I I #
face $-1 $120 $121 $44 $-1 $122 reversed single #
loop $-1 $-1 $123 $58 #
plane-surface $-1 116.28768632421375 3.2501224780704678 203.23381206824396 0 -1 0 -0.83867057594974714 0 -0.54463902268945019 forward_v I I I I #
face $-1 $124 $125 $45 $-1 $126 forward single #
loop $-1 $127 $128 $59 #
cone-surface $-1 67.453819591019098 -9.0559451206508044 7.788321651147176 -0.83867057594974714 0 -0.54463902268945019 0.54463902268945019 0 -0.83867057594974714 1 I I 0 1 1 forward I I I I #
face $-1 $129 $130 $46 $-1 $131 forward single #
loop $-1 $132 $133 $60 #
cone-surface $-1 67.453819591019098 -1.6723045614180378 7.788321651147176 -0.83867057594974714 0 -0.54463902268945019 0.54463902268945019 0 -0.83867057594974714 1 I I 0 1 1 forward I I I I #
face $-1 $134 $135 $47 $-1 $136 reversed single #
loop $-1 $-1 $137 $61 #
plane-surface $-1 116.28768632421375 26.351385431684314 203.23381206824396 0 -1 0 -0.83867057594974714 0 -0.54463902268945019 forward_v I I I I #
face $-1 $138 $139 $48 $-1 $140 forward single #
loop $-1 $141 $142 $62 #
cone-surface $-1 67.453819591019098 14.045317832963043 7.788321651147176 -0.83867057594974714 0 -0.54463902268945019 0.54463902268945019 0 -0.83867057594974714 1 I I 0 1 1 forward I I I I #
face $-1 $143 $144 $49 $-1 $145 forward single #
loop $-1 $146 $147 $63 #
cone-surface $-1 67.453819591019098 21.42895839219581 7.788321651147176 -0.83867057594974714 0 -0.54463902268945019 0.54463902268945019 0 -0.83867057594974714 1 I I 0 1 1 forward I I I I #
face $-1 $148 $149 $50 $-1 $150 reversed single #
loop $-1 $-1 $151 $64 #
plane-surface $-1 -196.05128207854381 -13.978372160139317 80.408641626407785 0 1 0 -0.83867057594974714 0 0.54463902268945019 forward_v I I I I #
face $-1 $152 $153 $51 $-1 $154 forward single #
loop $-1 $155 $156 $65 #
cone-surface $-1 -67.453819591019112 -9.0559451206508044 7.7883216511471653 0.83867057594974714 0 -0.54463902268945019 0.54463902268945019 0 0.83867057594974714 1 I I 0 1 1 forward I I I I #
face $-1 $157 $158 $52 $-1 $159 forward single #
loop $-1 $160 $161 $66 #
cone-surface $-1 -67.453819591019112 -1.6723045614180378 7.7883216511471653 0.83867057594974714 0 -0.54463902268945019 0.54463902268945019 0 0.83867057594974714 1 I I 0 1 1 forward I I I I #
face $-1 $162 $163 $53 $-1 $164 reversed single #
loop $-1 $-1 $165 $67 #
plane-surface $-1 -196.05128207854381 9.1228907934745305 80.408641626407785 0 1 0 -0.83867057594974714 0 0.54463902268945019 forward_v I I I I #
face $-1 $166 $167 $54 $-1 $168 forward single #
loop $-1 $169 $170 $68 #
cone-surface $-1 -67.453819591019112 14.045317832963043 7.7883216511471653 0.83867057594974714 0 -0.54463902268945019 0.54463902268945019 0 0.83867057594974714 1 I I 0 1 1 forward I I I I #
face $-1 $171 $172 $55 $-1 $173 forward single #
loop $-1 $174 $175 $69 #
cone-surface $-1 -67.453819591019112 21.42895839219581 7.7883216511471653 0.83867057594974714 0 -0.54463902268945019 0.54463902268945019 0 0.83867057594974714 1 I I 0 1 1 forward I I I I #
face $-1 $176 $177 $42 $-1 $178 reversed single #
loop $-1 $-1 $179 $70 #
plane-surface $-1 0 0 -15.967004963417512 0 0 1 1 0 0 forward_v I I I I #
coedge $-1 $180 $181 $182 $183 forward $71 $-1 #
face $-1 $184 $185 $43 $-1 $186 reversed single #
loop $-1 $-1 $187 $73 #
plane-surface $-1 0 0 15.967004963417512 0 0 1 1 0 0 forward_v I I I I #
coedge $-1 $188 $189 $190 $191 forward $74 $-1 #
face $-1 $192 $193 $44 $-1 $194 reversed single #
loop $-1 $-1 $195 $76 #
plane-surface $-1 -6.5374841176224265 -5.3641248410344247 123.47021631391389 0.83867057594974714 0 0.54463902268945019 0.54463902268945019 0 -0.83867057594974714 forward_v I I I I #
coedge $-1 $196 $197 $198 $199 reversed $77 $-1 #
face $-1 $-1 $200 $45 $-1 $201 forward single #
loop $-1 $202 $203 $79 #
cone-surface $-1 66.237290385571811 -9.0559451206508044 6.998298373202001 -0.83867057594974714 0 -0.54463902268945019 0.2723195113447251 0 -0.41933528797487357 1 I I -0.70710678118654746 0.70710678118654746 0.5 forward I I I I #
loop $-1 $-1 $204 $59 #
coedge $-1 $128 $128 $205 $206 reversed $80 $-1 #
face $-1 $-1 $207 $46 $-1 $208 forward single #
loop $-1 $209 $210 $82 #
cone-surface $-1 66.237290385571811 -1.6723045614180378 6.998298373202001 -0.83867057594974714 0 -0.54463902268945019 0.2723195113447251 0 -0.41933528797487357 1 I I -0.70710678118654746 0.70710678118654746 0.5 forward I I I I #
loop $-1 $-1 $211 $60 #
coedge $-1 $133 $133 $212 $213 reversed $83 $-1 #
face $-1 $214 $215 $47 $-1 $216 reversed single #
loop $-1 $-1 $217 $85 #
plane-surface $-1 -6.5374841176224265 17.737138112579423 123.47021631391389 0.83867057594974714 0 0.54463902268945019 0.54463902268945019 0 -0.83867057594974714 forward_v I I I I #
coedge $-1 $218 $219 $220 $221 reversed $86 $-1 #
face $-1 $-1 $222 $48 $-1 $223 forward single #
loop $-1 $224 $225 $88 #
cone-surface $-1 66.237290385571811 14.045317832963043 6.998298373202001 -0.83867057594974714 0 -0.54463902268945019 0.2723195113447251 0 -0.41933528797487357 1 I I -0.70710678118654746 0.70710678118654746 0.5 forward I I I I #
loop $-1 $-1 $226 $62 #
coedge $-1 $142 $142 $227 $228 reversed $89 $-1 #
face $-1 $-1 $229 $49 $-1 $230 forward single #
loop $-1 $231 $232 $91 #
cone-surface $-1 66.237290385571811 21.42895839219581 6.998298373202001 -0.83867057594974714 0 -0.54463902268945019 0.2723195113447251 0 -0.41933528797487357 1 I I -0.70710678118654746 0.70710678118654746 0.5 forward I I I I #
loop $-1 $-1 $233 $63 #
coedge $-1 $147 $147 $234 $235 reversed $92 $-1 #
face $-1 $236 $237 $50 $-1 $238 reversed single #
loop $-1 $-1 $239 $94 #
plane-surface $-1 -73.226111636707628 -5.3641248410344247 0.64504587207771635 -0.83867057594974714 0 0.54463902268945019 0.54463902268945019 0 0.83867057594974714 forward_v I I I I #
coedge $-1 $240 $241 $242 $243 reversed $95 $-1 #
face $-1 $-1 $244 $51 $-1 $245 forward single #
loop $-1 $246 $247 $97 #
cone-surface $-1 -66.237290385571825 -9.0559451206508044 6.9982983732019903 0.83867057594974714 0 -0.54463902268945019 0.2723195113447251 0 0.41933528797487357 1 I I -0.70710678118654746 0.70710678118654746 0.5 forward I I I I #
loop $-1 $-1 $248 $65 #
coedge $-1 $156 $156 $249 $250 reversed $98 $-1 #
face $-1 $-1 $251 $52 $-1 $252 forward single #
loop $-1 $253 $254 $100 #
cone-surface $-1 -66.237290385571825 -1.6723045614180378 6.9982983732019903 0.83867057594974714 0 -0.54463902268945019 0.2723195113447251 0 0.41933528797487357 1 I I -0.70710678118654746 0.70710678118654746 0.5 forward I I I I #
loop $-1 $-1 $255 $66 #
coedge $-1 $161 $161 $256 $257 reversed $101 $-1 #
face $-1 $258 $259 $53 $-1 $260 reversed single #
loop $-1 $-1 $261 $103 #
plane-surface $-1 -73.226111636707628 17.737138112579423 0.64504587207771635 -0.83867057594974714 0 0.54463902268945019 0.54463902268945019 0 0.83867057594974714 forward_v I I I I #
coedge $-1 $262 $263 $264 $265 reversed $104 $-1 #
face $-1 $-1 $266 $54 $-1 $267 forward single #
loop $-1 $268 $269 $106 #
cone-surface $-1 -66.237290385571825 14.045317832963043 6.9982983732019903 0.83867057594974714 0 -0.54463902268945019 0.2723195113447251 0 0.41933528797487357 1 I I -0.70710678118654746 0.70710678118654746 0.5 forward I I I I #
loop $-1 $-1 $270 $68 #
coedge $-1 $170 $170 $271 $272 reversed $107 $-1 #
face $-1 $-1 $273 $55 $-1 $274 forward single #
loop $-1 $275 $276 $109 #
cone-surface $-1 -66.237290385571825 21.42895839219581 6.9982983732019903 0.83867057594974714 0 -0.54463902268945019 0.2723195113447251 0 0.41933528797487357 1 I I -0.70710678118654746 0.70710678118654746 0.5 forward I I I I #
loop $-1 $-1 $277 $69 #
coedge $-1 $175 $175 $278 $279 reversed $110 $-1 #
face $-1 $280 $281 $42 $-1 $282 reversed single #
loop $-1 $-1 $283 $112 #
plane-surface $-1 0 -41.279664489265812 0 0 1 0 0 0 1 forward_v I I I I #
coedge $-1 $284 $285 $286 $287 forward $113 $-1 #
coedge $-1 $288 $115 $289 $290 forward $71 $-1 #
coedge $-1 $115 $288 $291 $292 forward $71 $-1 #
coedge $-1 $293 $294 $115 $183 reversed $295 $-1 #
edge $-1 $296 -41.279664489265812 $297 41.279664489265812 $182 $298 forward 7 unknown #
face $-1 $299 $300 $43 $-1 $301 reversed single #
loop $-1 $-1 $302 $116 #
plane-surface $-1 -73.226111636707657 0 0 1 0 0 0 0 -1 forward_v I I I I #
coedge $-1 $303 $304 $305 $306 forward $117 $-1 #
coedge $-1 $305 $119 $302 $307 reversed $74 $-1 #
coedge $-1 $119 $305 $308 $309 reversed $74 $-1 #
coedge $-1 $310 $311 $119 $191 reversed $300 $-1 #
edge $-1 $312 -73.226111636707657 $313 73.226111636707657 $190 $314 forward 7 unknown #
face $-1 $315 $316 $44 $-1 $317 reversed single #
loop $-1 $-1 $318 $120 #
plane-surface $-1 116.28768632421375 -13.978372160139317 203.23381206824396 0 1 0 0.83867057594974714 0 0.54463902268945019 forward_v I I I I #
coedge $-1 $319 $320 $321 $322 reversed $121 $-1 #
coedge $-1 $197 $123 $323 $324 reversed $77 $-1 #
coedge $-1 $123 $196 $319 $325 reversed $77 $-1 #
coedge $-1 $321 $326 $123 $199 forward $327 $-1 #
edge $-1 $328 -15.082268474600781 $329 -5.1320722181685312 $198 $330 forward 7 unknown #
loop $-1 $-1 $205 $124 #
plane-surface $-1 -6.5374841176224265 -5.3641248410344247 123.47021631391389 0.83867057594974714 0 0.54463902268945019 0.54463902268945019 0 -0.83867057594974714 forward_v I I I I #
loop $-1 $-1 $331 $79 #
coedge $-1 $203 $203 $204 $332 reversed $125 $-1 #
coedge $-1 $204 $204 $203 $332 forward $127 $-1 #
coedge $-1 $205 $205 $128 $206 forward $200 $-1 #
edge $-1 $333 0 $333 6.2831853071796004 $205 $334 forward 7 unknown #
loop $-1 $-1 $212 $129 #
plane-surface $-1 -6.5374841176224265 -5.3641248410344247 123.47021631391389 0.83867057594974714 0 0.54463902268945019 0.54463902268945019 0 -0.83867057594974714 forward_v I I I I #
loop $-1 $-1 $335 $82 #
coedge $-1 $210 $210 $211 $336 reversed $130 $-1 #
coedge $-1 $211 $211 $210 $336 forward $132 $-1 #
coedge $-1 $212 $212 $133 $213 forward $207 $-1 #
edge $-1 $337 0 $337 6.2831853071796004 $212 $338 forward 7 unknown #
face $-1 $339 $340 $47 $-1 $341 reversed single #
loop $-1 $-1 $342 $134 #
plane-surface $-1 116.28768632421375 9.1228907934745305 203.23381206824396 0 1 0 0.83867057594974714 0 0.54463902268945019 forward_v I I I I #
coedge $-1 $343 $344 $345 $346 reversed $135 $-1 #
coedge $-1 $219 $137 $347 $348 reversed $86 $-1 #
coedge $-1 $137 $218 $343 $349 reversed $86 $-1 #
coedge $-1 $345 $350 $137 $221 forward $351 $-1 #
edge $-1 $352 -15.082268474600781 $353 -5.1320722181685312 $220 $354 forward 7 unknown #
loop $-1 $-1 $227 $138 #
plane-surface $-1 -6.5374841176224265 17.737138112579423 123.47021631391389 0.83867057594974714 0 0.54463902268945019 0.54463902268945019 0 -0.83867057594974714 forward_v I I I I #
loop $-1 $-1 $355 $88 #
coedge $-1 $225 $225 $226 $356 reversed $139 $-1 #
coedge $-1 $226 $226 $225 $356 forward $141 $-1 #
coedge $-1 $227 $227 $142 $228 forward $222 $-1 #
edge $-1 $357 0 $357 6.2831853071796004 $227 $358 forward 7 unknown #
loop $-1 $-1 $234 $143 #
plane-surface $-1 -6.5374841176224265 17.737138112579423 123.47021631391389 0.83867057594974714 0 0.54463902268945019 0.54463902268945019 0 -0.83867057594974714 forward_v I I I I #
loop $-1 $-1 $359 $91 #
coedge $-1 $232 $232 $233 $360 reversed $144 $-1 #
coedge $-1 $233 $233 $232 $360 forward $146 $-1 #
coedge $-1 $234 $234 $147 $235 forward $229 $-1 #
edge $-1 $361 0 $361 6.2831853071796004 $234 $362 forward 7 unknown #
face $-1 $363 $364 $50 $-1 $365 forward single #
loop $-1 $-1 $366 $148 #
plane-surface $-1 -196.05128207854381 3.2501224780704678 80.408641626407785 0 -1 0 0.83867057594974714 0 -0.54463902268945019 forward_v I I I I #
coedge $-1 $367 $368 $369 $370 reversed $149 $-1 #
coedge $-1 $241 $151 $371 $372 reversed $95 $-1 #
coedge $-1 $151 $240 $367 $373 reversed $95 $-1 #
coedge $-1 $369 $374 $151 $243 forward $364 $-1 #
edge $-1 $375 24.799529402564247 $376 34.74972565899651 $242 $377 forward 7 unknown #
loop $-1 $-1 $249 $152 #
plane-surface $-1 -73.226111636707628 -5.3641248410344247 0.64504587207771635 -0.83867057594974714 0 0.54463902268945019 0.54463902268945019 0 0.83867057594974714 forward_v I I I I #
loop $-1 $-1 $378 $97 #
coedge $-1 $247 $247 $248 $379 reversed $153 $-1 #
coedge $-1 $248 $248 $247 $379 forward $155 $-1 #
coedge $-1 $249 $249 $156 $250 forward $244 $-1 #
edge $-1 $380 0 $380 6.2831853071796004 $249 $381 forward 7 unknown #
loop $-1 $-1 $256 $157 #
plane-surface $-1 -73.226111636707628 -5.3641248410344247 0.64504587207771635 -0.83867057594974714 0 0.54463902268945019 0.54463902268945019 0 0.83867057594974714 forward_v I I I I #
loop $-1 $-1 $382 $100 #
coedge $-1 $254 $254 $255 $383 reversed $158 $-1 #
coedge $-1 $255 $255 $254 $383 forward $160 $-1 #
coedge $-1 $256 $256 $161 $257 forward $251 $-1 #
edge $-1 $384 0 $384 6.2831853071796004 $256 $385 forward 7 unknown #
face $-1 $386 $387 $53 $-1 $388 forward single #
loop $-1 $-1 $389 $162 #
plane-surface $-1 -196.05128207854381 26.351385431684314 80.408641626407785 0 -1 0 0.83867057594974714 0 -0.54463902268945019 forward_v I I I I #
coedge $-1 $390 $391 $392 $393 reversed $163 $-1 #
coedge $-1 $263 $165 $394 $395 reversed $104 $-1 #
coedge $-1 $165 $262 $390 $396 reversed $104 $-1 #
coedge $-1 $392 $397 $165 $265 forward $387 $-1 #
edge $-1 $398 24.799529402564247 $399 34.74972565899651 $264 $400 forward 7 unknown #
loop $-1 $-1 $271 $166 #
plane-surface $-1 -73.226111636707628 17.737138112579423 0.64504587207771635 -0.83867057594974714 0 0.54463902268945019 0.54463902268945019 0 0.83867057594974714 forward_v I I I I #
loop $-1 $-1 $401 $106 #
coedge $-1 $269 $269 $270 $402 reversed $167 $-1 #
coedge $-1 $270 $270 $269 $402 forward $169 $-1 #
coedge $-1 $271 $271 $170 $272 forward $266 $-1 #
edge $-1 $403 0 $403 6.2831853071796004 $271 $404 forward 7 unknown #
loop $-1 $-1 $278 $171 #
plane-surface $-1 -73.226111636707628 17.737138112579423 0.64504587207771635 -0.83867057594974714 0 0.54463902268945019 0.54463902268945019 0 0.83867057594974714 forward_v I I I I #
loop $-1 $-1 $405 $109 #
coedge $-1 $276 $276 $277 $406 reversed $172 $-1 #
coedge $-1 $277 $277 $276 $406 forward $174 $-1 #
coedge $-1 $278 $278 $175 $279 forward $273 $-1 #
edge $-1 $407 0 $407 6.2831853071796004 $278 $408 forward 7 unknown #
face $-1 $409 $410 $42 $-1 $411 reversed single #
loop $-1 $-1 $412 $176 #
plane-surface $-1 -73.226111636707657 0 0 1 0 0 0 0 -1 forward_v I I I I #
coedge $-1 $413 $291 $414 $415 forward $177 $-1 #
coedge $-1 $416 $179 $413 $417 forward $113 $-1 #
coedge $-1 $179 $416 $418 $419 forward $113 $-1 #
coedge $-1 $294 $293 $179 $287 reversed $295 $-1 #
edge $-1 $420 -41.279664489265812 $421 41.279664489265812 $286 $422 forward 7 unknown #
coedge $-1 $181 $180 $423 $424 forward $71 $-1 #
coedge $-1 $425 $426 $180 $290 reversed $410 $-1 #
edge $-1 $297 -73.226111636707657 $427 73.226111636707657 $289 $428 forward 7 unknown #
coedge $-1 $283 $429 $181 $292 reversed $177 $-1 #
edge $-1 $430 -73.226111636707657 $296 73.226111636707657 $291 $431 forward 7 unknown #
coedge $-1 $286 $182 $429 $432 forward $295 $-1 #
coedge $-1 $182 $286 $425 $433 reversed $295 $-1 #
loop $-1 $-1 $293 $409 #
vertex $-1 $183 $434 #
vertex $-1 $183 $435 #
straight-curve $-1 73.226111636707657 0 15.967004963417512 0 1 0 I I #
face $-1 $436 $437 $43 $-1 $438 reversed single #
loop $-1 $-1 $310 $184 #
plane-surface $-1 0 -47.466171125038315 11.745228859347666 0 0 1 1 0 0 forward_v I I I I #
coedge $-1 $439 $440 $188 $307 forward $185 $-1 #
coedge $-1 $441 $187 $440 $442 forward $117 $-1 #
coedge $-1 $187 $441 $443 $444 forward $117 $-1 #
coedge $-1 $189 $188 $187 $306 reversed $74 $-1 #
edge $-1 $445 -73.226111636707657 $446 73.226111636707657 $187 $447 forward 7 unknown #
edge $-1 $446 -15.967004963417512 $313 -11.745228859347666 $302 $448 forward 7 unknown #
coedge $-1 $443 $449 $189 $309 forward $450 $-1 #
edge $-1 $312 11.745228859347666 $445 15.967004963417512 $308 $451 forward 7 unknown #
coedge $-1 $452 $190 $449 $453 forward $300 $-1 #
coedge $-1 $190 $452 $439 $454 forward $300 $-1 #
vertex $-1 $309 $455 #
vertex $-1 $307 $456 #
straight-curve $-1 0 -41.279664489265812 11.745228859347666 -1 0 0 I I #
face $-1 $-1 $327 $44 $-1 $457 forward single #
loop $-1 $-1 $458 $192 #
plane-surface $-1 73.226111636707657 0 0 -1 0 0 0 0 1 forward_v I I I I #
coedge $-1 $459 $460 $461 $462 reversed $193 $-1 #
coedge $-1 $463 $195 $197 $325 forward $121 $-1 #
coedge $-1 $195 $463 $459 $464 forward $121 $-1 #
coedge $-1 $461 $198 $195 $322 forward $327 $-1 #
edge $-1 $329 -5.9321848985876802 $465 11.296309739622105 $321 $466 forward 7 unknown #
coedge $-1 $467 $468 $196 $324 forward $316 $-1 #
edge $-1 $469 -100.97186016204429 $328 -85.649901070704473 $323 $470 forward 7 unknown #
edge $-1 $329 128.18288185293144 $469 146.45222327341534 $197 $471 forward 7 unknown #
coedge $-1 $198 $461 $467 $472 forward $327 $-1 #
loop $-1 $-1 $461 $315 #
vertex $-1 $324 $473 #
vertex $-1 $199 $474 #
straight-curve $-1 58.143843162106876 3.2501224780704678 15.967004963417509 -1 0 0 I I #
coedge $-1 $331 $331 $-1 $475 reversed $202 $-1 #
edge $-1 $476 0 $476 6.2831853071796004 $203 $477 forward 7 unknown #
vertex $-1 $206 $478 #
ellipse-curve $-1 68.251013508491511 -9.0559451206508044 8.3060254177476232 0.83867057594974714 0 0.54463902268945019 0.54463902268945019 0 -0.83867057594974714 1 I I #
coedge $-1 $335 $335 $-1 $479 reversed $209 $-1 #
edge $-1 $480 0 $480 6.2831853071796004 $210 $481 forward 7 unknown #
vertex $-1 $213 $482 #
ellipse-curve $-1 68.251013508491511 -1.6723045614180378 8.3060254177476232 0.83867057594974714 0 0.54463902268945019 0.54463902268945019 0 -0.83867057594974714 1 I I #
face $-1 $-1 $351 $47 $-1 $483 forward single #
loop $-1 $-1 $484 $214 #
plane-surface $-1 73.226111636707657 0 0 -1 0 0 0 0 1 forward_v I I I I #
coedge $-1 $485 $486 $487 $488 reversed $215 $-1 #
coedge $-1 $489 $217 $219 $349 forward $135 $-1 #
coedge $-1 $217 $489 $485 $490 forward $135 $-1 #
coedge $-1 $487 $220 $217 $346 forward $351 $-1 #
edge $-1 $353 -17.482816375394602 $491 -0.25432173718481899 $345 $492 forward 7 unknown #
coedge $-1 $493 $494 $218 $348 forward $340 $-1 #
edge $-1 $495 -100.97186016204429 $352 -85.649901070704473 $347 $496 forward 7 unknown #
edge $-1 $353 128.18288185293144 $495 146.45222327341534 $219 $497 forward 7 unknown #
coedge $-1 $220 $487 $493 $498 forward $351 $-1 #
loop $-1 $-1 $487 $339 #
vertex $-1 $348 $499 #
vertex $-1 $221 $500 #
straight-curve $-1 58.143843162106876 26.351385431684314 15.967004963417509 -1 0 0 I I #
coedge $-1 $355 $355 $-1 $501 reversed $224 $-1 #
edge $-1 $502 0 $502 6.2831853071796004 $225 $503 forward 7 unknown #
vertex $-1 $228 $504 #
ellipse-curve $-1 68.251013508491511 14.045317832963043 8.3060254177476232 0.83867057594974714 0 0.54463902268945019 0.54463902268945019 0 -0.83867057594974714 1 I I #
coedge $-1 $359 $359 $-1 $505 reversed $231 $-1 #
edge $-1 $506 0 $506 6.2831853071796004 $232 $507 forward 7 unknown #
vertex $-1 $235 $508 #
ellipse-curve $-1 68.251013508491511 21.42895839219581 8.3060254177476232 0.83867057594974714 0 0.54463902268945019 0.54463902268945019 0 -0.83867057594974714 1 I I #
face $-1 $-1 $509 $50 $-1 $510 reversed single #
loop $-1 $-1 $242 $236 #
plane-surface $-1 0 0 15.967004963417512 0 0 1 1 0 0 forward_v I I I I #
coedge $-1 $511 $512 $513 $514 reversed $237 $-1 #
coedge $-1 $515 $239 $241 $373 forward $149 $-1 #
coedge $-1 $239 $515 $511 $516 forward $149 $-1 #
coedge $-1 $513 $242 $239 $370 forward $364 $-1 #
edge $-1 $376 -11.296309739622105 $517 5.9321848985876802 $369 $518 forward 7 unknown #
coedge $-1 $519 $520 $240 $372 forward $509 $-1 #
edge $-1 $521 -39.559274941126219 $375 -24.237315849786381 $371 $522 forward 7 unknown #
edge $-1 $376 -18.26934142048389 $521 5.2165360557043749e-014 $241 $523 forward 7 unknown #
coedge $-1 $242 $513 $519 $524 forward $364 $-1 #
vertex $-1 $372 $525 #
vertex $-1 $243 $526 #
straight-curve $-1 -98.025641039271903 -13.978372160139317 15.967004963417509 1 0 0 I I #
coedge $-1 $378 $378 $-1 $527 reversed $246 $-1 #
edge $-1 $528 0 $528 6.2831853071796004 $247 $529 forward 7 unknown #
vertex $-1 $250 $530 #
ellipse-curve $-1 -68.251013508491511 -9.0559451206508044 8.3060254177476054 -0.83867057594974714 0 0.54463902268945019 0.54463902268945019 0 0.83867057594974714 1 I I #
coedge $-1 $382 $382 $-1 $531 reversed $253 $-1 #
edge $-1 $532 0 $532 6.2831853071796004 $254 $533 forward 7 unknown #
vertex $-1 $257 $534 #
ellipse-curve $-1 -68.251013508491511 -1.6723045614180378 8.3060254177476054 -0.83867057594974714 0 0.54463902268945019 0.54463902268945019 0 0.83867057594974714 1 I I #
face $-1 $-1 $535 $53 $-1 $536 reversed single #
loop $-1 $-1 $264 $258 #
plane-surface $-1 0 0 15.967004963417512 0 0 1 1 0 0 forward_v I I I I #
coedge $-1 $537 $538 $539 $540 reversed $259 $-1 #
coedge $-1 $541 $261 $263 $396 forward $163 $-1 #
coedge $-1 $261 $541 $537 $542 forward $163 $-1 #
coedge $-1 $539 $264 $261 $393 forward $387 $-1 #
edge $-1 $399 0.25432173718481899 $543 17.482816375394602 $392 $544 forward 7 unknown #
coedge $-1 $545 $546 $262 $395 forward $535 $-1 #
edge $-1 $547 -39.559274941126219 $398 -24.237315849786381 $394 $548 forward 7 unknown #
edge $-1 $399 -18.26934142048389 $547 5.2165360557043749e-014 $263 $549 forward 7 unknown #
coedge $-1 $264 $539 $545 $550 forward $387 $-1 #
vertex $-1 $265 $551 #
vertex $-1 $265 $552 #
straight-curve $-1 -98.025641039271903 9.1228907934745305 15.967004963417509 1 0 0 I I #
coedge $-1 $401 $401 $-1 $553 reversed $268 $-1 #
edge $-1 $554 0 $554 6.2831853071796004 $269 $555 forward 7 unknown #
vertex $-1 $272 $556 #
ellipse-curve $-1 -68.251013508491511 14.045317832963043 8.3060254177476054 -0.83867057594974714 0 0.54463902268945019 0.54463902268945019 0 0.83867057594974714 1 I I #
coedge $-1 $405 $405 $-1 $557 reversed $275 $-1 #
edge $-1 $558 0 $558 6.2831853071796004 $276 $559 forward 7 unknown #
vertex $-1 $279 $560 #
ellipse-curve $-1 -68.251013508491511 21.42895839219581 8.3060254177476054 -0.83867057594974714 0 0.54463902268945019 0.54463902268945019 0 0.83867057594974714 1 I I #
face $-1 $-1 $295 $42 $-1 $561 reversed single #
loop $-1 $-1 $425 $280 #
plane-surface $-1 0 41.279664489265812 0 0 -1 0 0 0 -1 forward_v I I I I #
coedge $-1 $562 $423 $426 $563 forward $281 $-1 #
coedge $-1 $429 $283 $284 $417 reversed $177 $-1 #
coedge $-1 $423 $562 $283 $415 reversed $281 $-1 #
edge $-1 $430 -15.967004963417512 $564 15.967004963417512 $414 $565 forward 7 unknown #
coedge $-1 $285 $284 $562 $566 forward $113 $-1 #
edge $-1 $421 -73.226111636707657 $564 73.226111636707657 $413 $567 forward 7 unknown #
coedge $-1 $426 $425 $285 $419 reversed $410 $-1 #
edge $-1 $568 -73.226111636707657 $420 73.226111636707657 $418 $569 forward 7 unknown #
vertex $-1 $287 $570 #
vertex $-1 $432 $571 #
straight-curve $-1 73.226111636707657 0 -15.967004963417512 0 -1 0 I I #
coedge $-1 $412 $414 $288 $424 reversed $281 $-1 #
edge $-1 $427 -41.279664489265812 $430 41.279664489265812 $423 $572 forward 7 unknown #
coedge $-1 $418 $289 $294 $433 forward $410 $-1 #
coedge $-1 $289 $418 $412 $563 reversed $410 $-1 #
vertex $-1 $290 $573 #
straight-curve $-1 0 41.279664489265812 15.967004963417512 -1 0 0 I I #
coedge $-1 $291 $413 $293 $432 reversed $177 $-1 #
vertex $-1 $424 $574 #
straight-curve $-1 0 -41.279664489265812 15.967004963417512 1 0 0 I I #
edge $-1 $296 -15.967004963417512 $421 15.967004963417512 $293 $575 forward 7 unknown #
edge $-1 $297 -15.967004963417512 $420 15.967004963417512 $294 $576 forward 7 unknown #
point $-1 73.226111636707657 -41.279664489265812 15.967004963417512 #
point $-1 73.226111636707657 41.279664489265812 15.967004963417512 #
face $-1 $-1 $450 $43 $-1 $577 reversed single #
loop $-1 $-1 $578 $299 #
plane-surface $-1 0 -53.652677760810818 13.856116911382589 0 1 0 0 0 1 forward_v I I I I #
coedge $-1 $579 $302 $311 $454 reversed $185 $-1 #
coedge $-1 $302 $579 $303 $442 reversed $185 $-1 #
coedge $-1 $304 $303 $580 $581 forward $117 $-1 #
edge $-1 $446 41.279664489265812 $582 53.652677760810818 $440 $583 forward 7 unknown #
coedge $-1 $584 $308 $304 $444 reversed $450 $-1 #
edge $-1 $585 -53.652677760810818 $445 -41.279664489265812 $443 $586 forward 7 unknown #
vertex $-1 $309 $587 #
vertex $-1 $442 $588 #
straight-curve $-1 0 -41.279664489265812 15.967004963417512 -1 0 0 I I #
straight-curve $-1 -73.226111636707657 -41.279664489265812 0 0 0 -1 I I #
coedge $-1 $308 $584 $310 $453 reversed $450 $-1 #
loop $-1 $-1 $308 $436 #
straight-curve $-1 73.226111636707657 -41.279664489265812 0 0 0 1 I I #
coedge $-1 $311 $310 $589 $590 forward $300 $-1 #
edge $-1 $312 -6.1865066357725027 $591 6.1865066357725027 $449 $592 forward 7 unknown #
edge $-1 $593 -6.1865066357725027 $313 6.1865066357725027 $439 $594 forward 7 unknown #
point $-1 73.226111636707657 -41.279664489265812 11.745228859347666 #
point $-1 -73.226111636707657 -41.279664489265812 11.745228859347666 #
plane-surface $-1 0 0 15.967004963417512 0 0 1 1 0 0 forward_v I I I I #
coedge $-1 $468 $467 $460 $595 forward $316 $-1 #
coedge $-1 $460 $318 $320 $464 reversed $193 $-1 #
coedge $-1 $318 $459 $458 $595 reversed $193 $-1 #
coedge $-1 $326 $321 $318 $462 forward $327 $-1 #
edge $-1 $465 5.1320722181685312 $596 15.082268474600781 $461 $597 forward 7 unknown #
coedge $-1 $320 $319 $468 $598 reversed $121 $-1 #
edge $-1 $599 -146.45222327341534 $465 -128.18288185293144 $459 $600 forward 7 unknown #
vertex $-1 $322 $601 #
straight-curve $-1 63.275915380275407 -2.6820624205172123 15.967004963417509 0 -1 0 I I #
coedge $-1 $458 $323 $326 $472 reversed $316 $-1 #
coedge $-1 $323 $458 $463 $598 forward $316 $-1 #
vertex $-1 $324 $602 #
straight-curve $-1 73.226111636707657 3.2501224780704678 101.61690603412198 0 0 1 I I #
straight-curve $-1 -6.5374841176224265 3.2501224780704678 123.47021631391389 0.54463902268945019 0 -0.83867057594974714 I I #
edge $-1 $596 -13.978372160139317 $328 3.2501224780704678 $467 $603 forward 7 unknown #
point $-1 73.226111636707657 3.2501224780704678 15.967004963417512 #
point $-1 63.275915380275407 3.2501224780704678 15.967004963417509 #
edge $-1 $604 1 $604 0 $331 $-1 forward 7 unknown #
vertex $-1 $332 $605 #
ellipse-curve $-1 66.656625673546685 -9.0559451206508044 7.2706178845467262 0.83867057594974714 0 0.54463902268945019 0.54463902268945019 0 -0.83867057594974714 1 I I #
point $-1 68.795652531180977 -9.0559451206508044 7.4673548417978797 #
edge $-1 $606 1 $606 0 $335 $-1 forward 7 unknown #
vertex $-1 $336 $607 #
ellipse-curve $-1 66.656625673546685 -1.6723045614180378 7.2706178845467262 0.83867057594974714 0 0.54463902268945019 0.54463902268945019 0 -0.83867057594974714 1 I I #
point $-1 68.795652531180977 -1.6723045614180378 7.4673548417978797 #
plane-surface $-1 0 0 15.967004963417512 0 0 1 1 0 0 forward_v I I I I #
coedge $-1 $494 $493 $486 $608 forward $340 $-1 #
coedge $-1 $486 $342 $344 $490 reversed $215 $-1 #
coedge $-1 $342 $485 $484 $608 reversed $215 $-1 #
coedge $-1 $350 $345 $342 $488 forward $351 $-1 #
edge $-1 $491 5.1320722181685312 $609 15.082268474600781 $487 $610 forward 7 unknown #
coedge $-1 $344 $343 $494 $611 reversed $135 $-1 #
edge $-1 $612 -146.45222327341534 $491 -128.18288185293144 $485 $613 forward 7 unknown #
vertex $-1 $346 $614 #
straight-curve $-1 63.275915380275407 8.8685690562897115 15.967004963417509 0 -1 0 I I #
coedge $-1 $484 $347 $350 $498 reversed $340 $-1 #
coedge $-1 $347 $484 $489 $611 forward $340 $-1 #
vertex $-1 $348 $615 #
straight-curve $-1 73.226111636707657 26.351385431684314 101.61690603412198 0 0 1 I I #
straight-curve $-1 -6.5374841176224265 26.351385431684314 123.47021631391389 0.54463902268945019 0 -0.83867057594974714 I I #
edge $-1 $609 9.1228907934745305 $352 26.351385431684314 $493 $616 forward 7 unknown #
point $-1 73.226111636707657 26.351385431684314 15.967004963417512 #
point $-1 63.275915380275407 26.351385431684314 15.967004963417509 #
edge $-1 $617 1 $617 0 $355 $-1 forward 7 unknown #
vertex $-1 $356 $618 #
ellipse-curve $-1 66.656625673546685 14.045317832963043 7.2706178845467262 0.83867057594974714 0 0.54463902268945019 0.54463902268945019 0 -0.83867057594974714 1 I I #
point $-1 68.795652531180977 14.045317832963043 7.4673548417978797 #
edge $-1 $619 1 $619 0 $359 $-1 forward 7 unknown #
vertex $-1 $360 $620 #
ellipse-curve $-1 66.656625673546685 21.42895839219581 7.2706178845467262 0.83867057594974714 0 0.54463902268945019 0.54463902268945019 0 -0.83867057594974714 1 I I #
point $-1 68.795652531180977 21.42895839219581 7.4673548417978797 #
loop $-1 $-1 $371 $363 #
plane-surface $-1 -73.226111636707657 0 0 1 0 0 0 0 -1 forward_v I I I I #
coedge $-1 $512 $366 $368 $516 reversed $237 $-1 #
coedge $-1 $366 $511 $621 $622 reversed $237 $-1 #
coedge $-1 $374 $369 $366 $514 forward $364 $-1 #
edge $-1 $517 -34.74972565899651 $623 -24.799529402564247 $513 $624 forward 7 unknown #
coedge $-1 $368 $367 $520 $625 reversed $149 $-1 #
edge $-1 $626 -5.2165360557043749e-014 $517 18.26934142048389 $511 $627 forward 7 unknown #
vertex $-1 $370 $628 #
straight-curve $-1 -63.275915380275393 -2.6820624205172123 15.967004963417512 0 1 0 I I #
coedge $-1 $621 $371 $374 $524 reversed $509 $-1 #
coedge $-1 $371 $621 $515 $625 forward $509 $-1 #
vertex $-1 $372 $629 #
straight-curve $-1 -73.226111636707657 -13.978372160139317 40.204320813203893 0 0 1 I I #
straight-curve $-1 -73.226111636707628 -13.978372160139317 0.64504587207771635 -0.54463902268945019 0 -0.83867057594974714 I I #
edge $-1 $623 -3.2501224780704678 $375 13.978372160139317 $519 $630 forward 7 unknown #
point $-1 -73.226111636707657 -13.978372160139317 15.967004963417512 #
point $-1 -63.275915380275393 -13.978372160139317 15.967004963417512 #
edge $-1 $631 1 $631 0 $378 $-1 forward 7 unknown #
vertex $-1 $379 $632 #
ellipse-curve $-1 -66.656625673546699 -9.0559451206508044 7.2706178845467155 -0.83867057594974714 0 0.54463902268945019 0.54463902268945019 0 0.83867057594974714 1 I I #
point $-1 -67.706374485802087 -9.0559451206508044 9.1446959936973631 #
edge $-1 $633 1 $633 0 $382 $-1 forward 7 unknown #
vertex $-1 $383 $634 #
ellipse-curve $-1 -66.656625673546699 -1.6723045614180378 7.2706178845467155 -0.83867057594974714 0 0.54463902268945019 0.54463902268945019 0 0.83867057594974714 1 I I #
point $-1 -67.706374485802087 -1.6723045614180378 9.1446959936973631 #
loop $-1 $-1 $394 $386 #
plane-surface $-1 -73.226111636707657 0 0 1 0 0 0 0 -1 forward_v I I I I #
coedge $-1 $538 $389 $391 $542 reversed $259 $-1 #
coedge $-1 $389 $537 $635 $636 reversed $259 $-1 #
coedge $-1 $397 $392 $389 $540 forward $387 $-1 #
edge $-1 $543 -34.74972565899651 $637 -24.799529402564247 $539 $638 forward 7 unknown #
coedge $-1 $391 $390 $546 $639 reversed $163 $-1 #
edge $-1 $640 -5.2165360557043749e-014 $543 18.26934142048389 $537 $641 forward 7 unknown #
vertex $-1 $393 $642 #
straight-curve $-1 -63.275915380275393 8.8685690562897115 15.967004963417512 0 1 0 I I #
coedge $-1 $635 $394 $397 $550 reversed $535 $-1 #
coedge $-1 $394 $635 $541 $639 forward $535 $-1 #
vertex $-1 $395 $643 #
straight-curve $-1 -73.226111636707657 9.1228907934745305 40.204320813203893 0 0 1 I I #
straight-curve $-1 -73.226111636707628 9.1228907934745305 0.64504587207771635 -0.54463902268945019 0 -0.83867057594974714 I I #
edge $-1 $637 -26.351385431684314 $398 -9.1228907934745305 $545 $644 forward 7 unknown #
point $-1 -73.226111636707657 9.1228907934745305 15.967004963417512 #
point $-1 -63.275915380275393 9.1228907934745305 15.967004963417512 #
edge $-1 $645 1 $645 0 $401 $-1 forward 7 unknown #
vertex $-1 $402 $646 #
ellipse-curve $-1 -66.656625673546699 14.045317832963043 7.2706178845467155 -0.83867057594974714 0 0.54463902268945019 0.54463902268945019 0 0.83867057594974714 1 I I #
point $-1 -67.706374485802087 14.045317832963043 9.1446959936973631 #
edge $-1 $647 1 $647 0 $405 $-1 forward 7 unknown #
vertex $-1 $406 $648 #
ellipse-curve $-1 -66.656625673546699 21.42895839219581 7.2706178845467155 -0.83867057594974714 0 0.54463902268945019 0.54463902268945019 0 0.83867057594974714 1 I I #
point $-1 -67.706374485802087 21.42895839219581 9.1446959936973631 #
plane-surface $-1 73.226111636707657 0 0 -1 0 0 0 0 1 forward_v I I I I #
coedge $-1 $414 $412 $416 $566 reversed $281 $-1 #
edge $-1 $427 -15.967004963417512 $568 15.967004963417512 $426 $649 forward 7 unknown #
vertex $-1 $566 $650 #
straight-curve $-1 -73.226111636707657 -41.279664489265812 0 0 0 -1 I I #
edge $-1 $564 -41.279664489265812 $568 41.279664489265812 $562 $651 forward 7 unknown #
straight-curve $-1 0 -41.279664489265812 -15.967004963417512 -1 0 0 I I #
vertex $-1 $419 $652 #
straight-curve $-1 0 41.279664489265812 -15.967004963417512 1 0 0 I I #
point $-1 73.226111636707657 41.279664489265812 -15.967004963417512 #
point $-1 73.226111636707657 -41.279664489265812 -15.967004963417512 #
straight-curve $-1 -73.226111636707657 0 15.967004963417512 0 -1 0 I I #
point $-1 -73.226111636707657 41.279664489265812 15.967004963417512 #
point $-1 -73.226111636707657 -41.279664489265812 15.967004963417512 #
straight-curve $-1 73.226111636707657 -41.279664489265812 0 0 0 -1 I I #
straight-curve $-1 73.226111636707657 41.279664489265812 0 0 0 -1 I I #
plane-surface $-1 73.226111636707657 0 0 -1 0 0 0 0 1 forward_v I I I I #
coedge $-1 $589 $580 $579 $653 forward $437 $-1 #
coedge $-1 $440 $439 $578 $653 reversed $185 $-1 #
coedge $-1 $578 $654 $441 $581 reversed $437 $-1 #
edge $-1 $582 -73.226111636707657 $585 73.226111636707657 $580 $655 forward 7 unknown #
vertex $-1 $442 $656 #
straight-curve $-1 -73.226111636707657 0 15.967004963417512 0 -1 0 I I #
coedge $-1 $449 $443 $654 $657 forward $450 $-1 #
vertex $-1 $444 $658 #
straight-curve $-1 73.226111636707657 0 15.967004963417512 0 1 0 I I #
point $-1 73.226111636707657 -41.279664489265812 15.967004963417512 #
point $-1 -73.226111636707657 -41.279664489265812 15.967004963417512 #
coedge $-1 $654 $578 $452 $590 reversed $437 $-1 #
edge $-1 $591 -73.226111636707657 $593 73.226111636707657 $589 $659 forward 7 unknown #
vertex $-1 $657 $660 #
straight-curve $-1 73.226111636707657 -47.466171125038315 11.745228859347666 0 -1 0 I I #
vertex $-1 $454 $661 #
straight-curve $-1 -73.226111636707657 -47.466171125038315 11.745228859347666 0 1 0 I I #
edge $-1 $596 85.649901070704473 $599 100.97186016204429 $458 $662 forward 7 unknown #
vertex $-1 $472 $663 #
straight-curve $-1 58.143843162106876 -13.978372160139317 15.967004963417509 1 0 0 I I #
edge $-1 $599 -11.296309739622105 $469 5.9321848985876802 $468 $664 forward 7 unknown #
vertex $-1 $598 $665 #
straight-curve $-1 -6.5374841176224265 -13.978372160139317 123.47021631391389 -0.54463902268945019 0 0.83867057594974714 I I #
point $-1 63.275915380275407 -13.978372160139317 15.967004963417509 #
point $-1 73.226111636707657 3.2501224780704678 0.64504587207768793 #
straight-curve $-1 73.226111636707657 0 15.967004963417512 0 1 0 I I #
vertex $-1 $475 $666 #
point $-1 67.201264696236137 -9.0559451206508044 6.4319473085969792 #
vertex $-1 $479 $667 #
point $-1 67.201264696236137 -1.6723045614180378 6.4319473085969792 #
edge $-1 $609 85.649901070704473 $612 100.97186016204429 $484 $668 forward 7 unknown #
vertex $-1 $498 $669 #
straight-curve $-1 58.143843162106876 9.1228907934745305 15.967004963417509 1 0 0 I I #
edge $-1 $612 0.25432173718481899 $495 17.482816375394602 $494 $670 forward 7 unknown #
vertex $-1 $611 $671 #
straight-curve $-1 -6.5374841176224265 9.1228907934745305 123.47021631391389 -0.54463902268945019 0 0.83867057594974714 I I #
point $-1 63.275915380275407 9.1228907934745305 15.967004963417509 #
point $-1 73.226111636707657 26.351385431684314 0.64504587207768793 #
straight-curve $-1 73.226111636707657 0 15.967004963417512 0 1 0 I I #
vertex $-1 $501 $672 #
point $-1 67.201264696236137 14.045317832963043 6.4319473085969792 #
vertex $-1 $505 $673 #
point $-1 67.201264696236137 21.42895839219581 6.4319473085969792 #
coedge $-1 $520 $519 $512 $622 forward $509 $-1 #
edge $-1 $623 24.237315849786381 $626 39.559274941126219 $621 $674 forward 7 unknown #
vertex $-1 $524 $675 #
straight-curve $-1 -98.025641039271903 3.2501224780704678 15.967004963417509 -1 0 0 I I #
edge $-1 $626 -5.9321848985876802 $521 11.296309739622105 $520 $676 forward 7 unknown #
vertex $-1 $625 $677 #
straight-curve $-1 -73.226111636707628 3.2501224780704678 0.64504587207771635 0.54463902268945019 0 0.83867057594974714 I I #
point $-1 -63.275915380275393 3.2501224780704678 15.967004963417512 #
point $-1 -73.226111636707657 -13.978372160139317 0.64504587207767261 #
straight-curve $-1 -73.226111636707657 0 15.967004963417512 0 -1 0 I I #
vertex $-1 $527 $678 #
point $-1 -66.111986650857247 -9.0559451206508044 8.1092884604964617 #
vertex $-1 $531 $679 #
point $-1 -66.111986650857247 -1.6723045614180378 8.1092884604964617 #
coedge $-1 $546 $545 $538 $636 forward $535 $-1 #
edge $-1 $637 24.237315849786381 $640 39.559274941126219 $635 $680 forward 7 unknown #
vertex $-1 $550 $681 #
straight-curve $-1 -98.025641039271903 26.351385431684314 15.967004963417509 -1 0 0 I I #
edge $-1 $640 -17.482816375394602 $547 -0.25432173718481899 $546 $682 forward 7 unknown #
vertex $-1 $639 $683 #
straight-curve $-1 -73.226111636707628 26.351385431684314 0.64504587207771635 0.54463902268945019 0 0.83867057594974714 I I #
point $-1 -63.275915380275393 26.351385431684314 15.967004963417512 #
point $-1 -73.226111636707657 9.1228907934745305 0.64504587207767261 #
straight-curve $-1 -73.226111636707657 0 15.967004963417512 0 -1 0 I I #
vertex $-1 $553 $684 #
point $-1 -66.111986650857247 14.045317832963043 8.1092884604964617 #
vertex $-1 $557 $685 #
point $-1 -66.111986650857247 21.42895839219581 8.1092884604964617 #
straight-curve $-1 -73.226111636707657 41.279664489265812 0 0 0 -1 I I #
point $-1 -73.226111636707657 -41.279664489265812 -15.967004963417512 #
straight-curve $-1 -73.226111636707657 0 -15.967004963417512 0 1 0 I I #
point $-1 -73.226111636707657 41.279664489265812 -15.967004963417512 #
edge $-1 $582 -2.1108880520349231 $593 2.1108880520349231 $579 $686 forward 7 unknown #
coedge $-1 $580 $589 $584 $657 reversed $437 $-1 #
straight-curve $-1 0 -53.652677760810818 15.967004963417512 1 0 0 I I #
point $-1 -73.226111636707657 -53.652677760810818 15.967004963417512 #
edge $-1 $585 -2.1108880520349231 $591 2.1108880520349231 $584 $687 forward 7 unknown #
point $-1 73.226111636707657 -53.652677760810818 15.967004963417512 #
straight-curve $-1 0 -53.652677760810818 11.745228859347666 -1 0 0 I I #
point $-1 73.226111636707657 -53.652677760810818 11.745228859347666 #
point $-1 -73.226111636707657 -53.652677760810818 11.745228859347666 #
straight-curve $-1 73.226111636707657 -13.978372160139317 101.61690603412198 0 0 -1 I I #
point $-1 73.226111636707657 -13.978372160139317 15.967004963417512 #
straight-curve $-1 73.226111636707657 -2.6820624205172123 0.64504587207769504 0 1 0 I I #
point $-1 73.226111636707657 -13.978372160139317 0.64504587207768793 #
point $-1 65.817955097596936 -9.0559451206508044 6.7259788618572758 #
point $-1 65.817955097596936 -1.6723045614180378 6.7259788618572758 #
straight-curve $-1 73.226111636707657 9.1228907934745305 101.61690603412198 0 0 -1 I I #
point $-1 73.226111636707657 9.1228907934745305 15.967004963417512 #
straight-curve $-1 73.226111636707657 8.8685690562897115 0.64504587207769504 0 1 0 I I #
point $-1 73.226111636707657 9.1228907934745305 0.64504587207768793 #
point $-1 65.817955097596936 14.045317832963043 6.7259788618572758 #
point $-1 65.817955097596936 21.42895839219581 6.7259788618572758 #
straight-curve $-1 -73.226111636707657 3.2501224780704678 40.204320813203893 0 0 -1 I I #
point $-1 -73.226111636707657 3.2501224780704678 15.967004963417512 #
straight-curve $-1 -73.226111636707657 -2.6820624205172123 0.64504587207767994 0 -1 0 I I #
point $-1 -73.226111636707657 3.2501224780704678 0.64504587207767261 #
point $-1 -65.817955097596951 -9.0559451206508044 6.7259788618572651 #
point $-1 -65.817955097596951 -1.6723045614180378 6.7259788618572651 #
straight-curve $-1 -73.226111636707657 26.351385431684314 40.204320813203893 0 0 -1 I I #
point $-1 -73.226111636707657 26.351385431684314 15.967004963417512 #
straight-curve $-1 -73.226111636707657 8.8685690562897115 0.64504587207767994 0 -1 0 I I #
point $-1 -73.226111636707657 26.351385431684314 0.64504587207767261 #
point $-1 -65.817955097596951 14.045317832963043 6.7259788618572651 #
point $-1 -65.817955097596951 21.42895839219581 6.7259788618572651 #
straight-curve $-1 -73.226111636707657 -53.652677760810818 13.856116911382589 0 0 -1 I I #
straight-curve $-1 73.226111636707657 -53.652677760810818 13.856116911382589 0 0 -1 I I #
End-of-ACIS-data 