500 0 4 0           
7 Unknown 11 ACIS 5.0 NT 24 Thu Mar 25 21:11:56 1999 
-1 9.9999999999999995e-007 1e-010 
body $-1 $4 $-1 $5 #
body $-1 $6 $-1 $7 #
body $-1 $8 $-1 $9 #
body $-1 $10 $-1 $11 #
lump $-1 $-1 $12 $0 #
transform $-1 1 0 0 0 1 0 0 0 1 48.587908566545607 32.661863631785948 12.729624185799301 1 rotate no_reflect no_shear #
lump $-1 $-1 $13 $1 #
transform $-1 1 0 0 0 1 0 0 0 1 48.587908566545607 32.661863631785948 12.729624185799301 1 rotate no_reflect no_shear #
lump $-1 $-1 $14 $2 #
transform $-1 1 0 0 0 1 0 0 0 1 48.587908566545607 32.661863631785948 12.729624185799301 1 rotate no_reflect no_shear #
lump $-1 $-1 $15 $3 #
transform $-1 1 0 0 0 1 0 0 0 1 48.587908566545607 32.661863631785948 12.729624185799301 1 rotate no_reflect no_shear #
shell $-1 $-1 $-1 $16 $-1 $4 #
shell $-1 $-1 $-1 $17 $-1 $6 #
shell $-1 $-1 $-1 $18 $-1 $8 #
shell $-1 $-1 $-1 $19 $-1 $10 #
face $-1 $20 $21 $12 $-1 $22 reversed single #
face $-1 $23 $24 $13 $-1 $25 forward single #
face $-1 $26 $27 $14 $-1 $28 reversed single #
face $-1 $29 $30 $15 $-1 $31 forward single #
face $-1 $32 $33 $12 $-1 $34 forward single #
loop $-1 $-1 $35 $16 #
plane-surface $-1 0 -32.661863631785948 0 0 1 0 0 0 1 forward_v I I I I #
face $-1 $36 $37 $13 $-1 $38 forward single #
loop $-1 $-1 $39 $17 #
plane-surface $-1 0 -32.661863631785948 0 0 1 0 0 0 1 forward_v I I I I #
face $-1 $40 $41 $14 $-1 $42 reversed single #
loop $-1 $-1 $43 $18 #
plane-surface $-1 -129.15031289821718 1.8944213162732098 56.47052494684683 0 1 0 -0.82903758062907751 0 0.55919289150049634 forward_v I I I I #
face $-1 $44 $45 $15 $-1 $46 forward single #
loop $-1 $47 $48 $19 #
cone-surface $-1 -42.562344548698611 10.018793242096152 5.7768654753544384 0.82903758062907751 0 -0.55919289150049634 0.83878933725074445 0 1.2435563709436162 1 I I 0 1 1.5 forward I I I I #
face $-1 $49 $50 $12 $-1 $51 reversed single #
loop $-1 $-1 $52 $20 #
plane-surface $-1 0 0 12.729624185799301 0 0 1 1 0 0 forward_v I I I I #
coedge $-1 $53 $54 $55 $56 reversed $21 $-1 #
face $-1 $57 $58 $13 $-1 $59 reversed single #
loop $-1 $-1 $60 $23 #
plane-surface $-1 0 0 12.729624185799301 0 0 1 1 0 0 forward_v I I I I #
coedge $-1 $61 $62 $63 $64 forward $24 $-1 #
face $-1 $65 $66 $14 $-1 $67 reversed single #
loop $-1 $-1 $68 $26 #
plane-surface $-1 -48.587908566545579 10.018793242096152 2.1304987802700808 -0.82903758062907751 0 0.55919289150049634 0.55919289150049634 0 0.82903758062907751 forward_v I I I I #
coedge $-1 $69 $70 $71 $72 reversed $27 $-1 #
face $-1 $-1 $73 $15 $-1 $74 forward single #
loop $-1 $75 $76 $29 #
cone-surface $-1 -39.489602412602849 10.018793242096152 3.7042747990488092 0.82903758062907751 0 -0.55919289150049634 0.41939466862537222 0 0.62177818547180808 1 I I -0.70710678118654768 0.70710678118654735 0.75 forward I I I I #
loop $-1 $-1 $77 $19 #
coedge $-1 $48 $48 $78 $79 reversed $30 $-1 #
face $-1 $80 $81 $12 $-1 $82 reversed single #
loop $-1 $-1 $83 $32 #
plane-surface $-1 0 0 -12.729624185799301 0 0 1 1 0 0 forward_v I I I I #
coedge $-1 $84 $85 $86 $87 forward $33 $-1 #
coedge $-1 $88 $35 $89 $90 reversed $21 $-1 #
coedge $-1 $35 $88 $91 $92 forward $21 $-1 #
coedge $-1 $93 $83 $35 $56 forward $50 $-1 #
edge $-1 $94 -48.587908566545607 $95 48.587908566545607 $35 $96 forward 7 unknown #
face $-1 $97 $98 $13 $-1 $99 reversed single #
loop $-1 $-1 $100 $36 #
plane-surface $-1 -48.587908566545607 0 0 1 0 0 0 0 -1 forward_v I I I I #
coedge $-1 $101 $102 $62 $103 forward $37 $-1 #
coedge $-1 $104 $39 $105 $106 reversed $24 $-1 #
coedge $-1 $39 $104 $60 $103 reversed $24 $-1 #
coedge $-1 $107 $108 $39 $64 reversed $109 $-1 #
edge $-1 $110 -12.729624185799301 $111 12.729624185799301 $63 $112 forward 7 unknown #
face $-1 $113 $114 $14 $-1 $115 reversed single #
loop $-1 $-1 $116 $40 #
plane-surface $-1 -129.15031289821718 18.143165167919094 56.47052494684683 0 -1 0 0.82903758062907751 0 -0.55919289150049634 forward_v I I I I #
coedge $-1 $117 $118 $119 $120 reversed $41 $-1 #
coedge $-1 $70 $43 $121 $122 reversed $27 $-1 #
coedge $-1 $43 $69 $117 $123 reversed $27 $-1 #
coedge $-1 $119 $124 $43 $72 forward $125 $-1 #
edge $-1 $126 15.987247882562983 $127 23.136448017009094 $71 $128 forward 7 unknown #
loop $-1 $-1 $78 $44 #
plane-surface $-1 -48.587908566545579 10.018793242096152 2.1304987802700808 -0.82903758062907751 0 0.55919289150049634 0.55919289150049634 0 0.82903758062907751 forward_v I I I I #
loop $-1 $-1 $129 $29 #
coedge $-1 $76 $76 $77 $130 reversed $45 $-1 #
coedge $-1 $77 $77 $76 $130 forward $47 $-1 #
coedge $-1 $78 $78 $48 $79 forward $73 $-1 #
edge $-1 $131 0 $131 6.2831853071796004 $78 $132 forward 7 unknown #
face $-1 $133 $134 $12 $-1 $135 reversed single #
loop $-1 $-1 $136 $49 #
plane-surface $-1 -48.587908566545607 0 0 1 0 0 0 0 -1 forward_v I I I I #
coedge $-1 $55 $137 $138 $139 forward $50 $-1 #
coedge $-1 $140 $52 $141 $142 forward $33 $-1 #
coedge $-1 $52 $140 $88 $143 forward $33 $-1 #
coedge $-1 $89 $144 $52 $87 reversed $145 $-1 #
edge $-1 $146 -32.661863631785948 $147 32.661863631785948 $86 $148 forward 7 unknown #
coedge $-1 $54 $53 $85 $143 reversed $21 $-1 #
coedge $-1 $138 $86 $53 $90 forward $145 $-1 #
edge $-1 $146 -12.729624185799301 $94 12.729624185799301 $89 $149 forward 7 unknown #
coedge $-1 $150 $151 $54 $92 reversed $81 $-1 #
edge $-1 $152 -12.729624185799301 $95 12.729624185799301 $91 $153 forward 7 unknown #
coedge $-1 $137 $55 $151 $154 forward $50 $-1 #
vertex $-1 $90 $155 #
vertex $-1 $154 $156 #
straight-curve $-1 0 -32.661863631785948 -12.729624185799301 -1 0 0 I I #
face $-1 $157 $109 $13 $-1 $158 reversed single #
loop $-1 $-1 $159 $57 #
plane-surface $-1 -45.879789506613712 -42.544654819490532 0 0 1 0 0 0 1 forward_v I I I I #
coedge $-1 $160 $161 $104 $162 forward $58 $-1 #
coedge $-1 $163 $60 $161 $164 forward $37 $-1 #
coedge $-1 $60 $163 $107 $165 forward $37 $-1 #
edge $-1 $110 43.171670446681816 $166 48.587908566545607 $60 $167 forward 7 unknown #
coedge $-1 $62 $61 $100 $162 reversed $24 $-1 #
coedge $-1 $168 $169 $61 $106 forward $170 $-1 #
edge $-1 $171 -48.587908566545607 $111 -43.171670446681816 $105 $172 forward 7 unknown #
coedge $-1 $173 $63 $102 $165 reversed $109 $-1 #
coedge $-1 $63 $173 $168 $174 reversed $109 $-1 #
loop $-1 $-1 $173 $97 #
vertex $-1 $103 $175 #
vertex $-1 $174 $176 #
straight-curve $-1 -43.171670446681816 -32.661863631785948 0 0 0 -1 I I #
face $-1 $-1 $125 $14 $-1 $177 forward single #
loop $-1 $-1 $178 $65 #
plane-surface $-1 -48.587908566545607 0 0 1 0 0 0 0 -1 forward_v I I I I #
coedge $-1 $179 $180 $181 $182 reversed $66 $-1 #
coedge $-1 $183 $68 $70 $123 forward $41 $-1 #
coedge $-1 $68 $183 $179 $184 forward $41 $-1 #
coedge $-1 $181 $71 $68 $120 forward $125 $-1 #
edge $-1 $127 -3.1149753047748661 $185 13.133768546871018 $119 $186 forward 7 unknown #
coedge $-1 $187 $188 $69 $122 forward $114 $-1 #
edge $-1 $189 -26.104763693153377 $126 -15.505638287624114 $121 $190 forward 7 unknown #
edge $-1 $127 -12.784855178080777 $189 5.0869049068944123e-014 $70 $191 forward 7 unknown #
coedge $-1 $71 $181 $187 $192 forward $125 $-1 #
loop $-1 $-1 $181 $113 #
vertex $-1 $122 $193 #
vertex $-1 $72 $194 #
straight-curve $-1 -64.57515644910859 1.8944213162732098 12.729624185799302 1 0 0 I I #
coedge $-1 $129 $129 $-1 $195 reversed $75 $-1 #
edge $-1 $196 0 $196 6.2831853071796004 $76 $197 forward 7 unknown #
vertex $-1 $79 $198 #
ellipse-curve $-1 -45.013308499322548 10.018793242096152 7.4300614830346801 -0.82903758062907751 0 0.55919289150049634 0.83878933725074445 0 1.2435563709436162 1 I I #
face $-1 $-1 $145 $12 $-1 $199 reversed single #
loop $-1 $-1 $200 $80 #
plane-surface $-1 0 32.661863631785948 0 0 -1 0 0 0 -1 forward_v I I I I #
coedge $-1 $151 $150 $201 $202 forward $81 $-1 #
coedge $-1 $83 $93 $203 $204 forward $50 $-1 #
coedge $-1 $144 $89 $83 $139 reversed $145 $-1 #
edge $-1 $205 -32.661863631785948 $94 32.661863631785948 $138 $206 forward 7 unknown #
coedge $-1 $85 $84 $150 $207 forward $33 $-1 #
coedge $-1 $200 $201 $84 $142 reversed $134 $-1 #
edge $-1 $147 -48.587908566545607 $208 48.587908566545607 $141 $209 forward 7 unknown #
edge $-1 $152 -48.587908566545607 $146 48.587908566545607 $88 $210 forward 7 unknown #
coedge $-1 $86 $138 $200 $211 reversed $145 $-1 #
loop $-1 $-1 $89 $133 #
vertex $-1 $87 $212 #
vertex $-1 $87 $213 #
straight-curve $-1 48.587908566545607 0 12.729624185799301 0 1 0 I I #
straight-curve $-1 48.587908566545607 -32.661863631785948 0 0 0 -1 I I #
coedge $-1 $136 $91 $140 $207 reversed $81 $-1 #
coedge $-1 $91 $136 $93 $154 reversed $81 $-1 #
vertex $-1 $207 $214 #
straight-curve $-1 -48.587908566545607 -32.661863631785948 0 0 0 -1 I I #
edge $-1 $95 -32.661863631785948 $215 32.661863631785948 $151 $216 forward 7 unknown #
point $-1 48.587908566545607 -32.661863631785948 -12.729624185799301 #
point $-1 -48.587908566545607 -32.661863631785948 -12.729624185799301 #
face $-1 $-1 $170 $13 $-1 $217 reversed single #
plane-surface $-1 -43.171670446681816 -37.60325922563824 0 -1 0 0 0 0 1 forward_v I I I I #
coedge $-1 $218 $219 $220 $221 forward $98 $-1 #
coedge $-1 $220 $100 $169 $222 reversed $58 $-1 #
coedge $-1 $100 $220 $101 $164 reversed $58 $-1 #
edge $-1 $166 -12.729624185799301 $171 12.729624185799301 $100 $223 forward 7 unknown #
coedge $-1 $102 $101 $219 $224 forward $37 $-1 #
edge $-1 $166 32.661863631785948 $225 42.544654819490532 $161 $226 forward 7 unknown #
edge $-1 $227 -4.9413955938522918 $110 4.9413955938522918 $107 $228 forward 7 unknown #
vertex $-1 $164 $229 #
straight-curve $-1 0 -32.661863631785948 12.729624185799301 -1 0 0 I I #
coedge $-1 $230 $105 $108 $174 forward $170 $-1 #
coedge $-1 $105 $230 $160 $222 forward $170 $-1 #
loop $-1 $-1 $105 $157 #
vertex $-1 $162 $231 #
straight-curve $-1 0 -32.661863631785948 -12.729624185799301 1 0 0 I I #
coedge $-1 $108 $107 $232 $233 forward $109 $-1 #
edge $-1 $111 -4.9413955938522918 $234 4.9413955938522918 $108 $235 forward 7 unknown #
point $-1 -43.171670446681816 -32.661863631785948 12.729624185799301 #
point $-1 -43.171670446681816 -32.661863631785948 -12.729624185799301 #
plane-surface $-1 0 0 12.729624185799301 0 0 1 1 0 0 forward_v I I I I #
coedge $-1 $188 $187 $180 $236 forward $114 $-1 #
coedge $-1 $180 $116 $118 $184 reversed $66 $-1 #
coedge $-1 $116 $179 $178 $236 reversed $66 $-1 #
coedge $-1 $124 $119 $116 $182 forward $125 $-1 #
edge $-1 $185 -23.136448017009094 $237 -15.987247882562983 $181 $238 forward 7 unknown #
coedge $-1 $118 $117 $188 $239 reversed $41 $-1 #
edge $-1 $240 -5.0869049068944123e-014 $185 12.784855178080777 $179 $241 forward 7 unknown #
vertex $-1 $120 $242 #
straight-curve $-1 -41.438708432099503 5.0093966210480758 12.729624185799301 0 1 0 I I #
coedge $-1 $178 $121 $124 $192 reversed $114 $-1 #
coedge $-1 $121 $178 $183 $239 forward $114 $-1 #
vertex $-1 $122 $243 #
straight-curve $-1 -48.587908566545607 1.8944213162732098 28.235262473423415 0 0 1 I I #
straight-curve $-1 -48.587908566545579 1.8944213162732098 2.1304987802700808 -0.55919289150049634 0 -0.82903758062907751 I I #
edge $-1 $237 -18.143165167919094 $126 -1.8944213162732098 $187 $244 forward 7 unknown #
point $-1 -48.587908566545607 1.8944213162732098 12.729624185799301 #
point $-1 -41.438708432099496 1.8944213162732098 12.729624185799301 #
edge $-1 $245 1 $245 0 $129 $-1 forward 7 unknown #
vertex $-1 $130 $246 #
ellipse-curve $-1 -40.11138059807466 10.018793242096152 4.1236694676741816 -0.82903758062907751 0 0.55919289150049634 0.83878933725074445 0 1.2435563709436162 1 I I #
point $-1 -44.174519162071824 10.018793242096152 8.6736178539783104 #
plane-surface $-1 48.587908566545607 0 0 -1 0 0 0 0 1 forward_v I I I I #
coedge $-1 $203 $141 $144 $211 forward $134 $-1 #
coedge $-1 $141 $203 $136 $202 reversed $134 $-1 #
edge $-1 $208 -12.729624185799301 $215 12.729624185799301 $201 $247 forward 7 unknown #
coedge $-1 $201 $200 $137 $204 reversed $134 $-1 #
edge $-1 $215 -48.587908566545607 $205 48.587908566545607 $203 $248 forward 7 unknown #
vertex $-1 $139 $249 #
straight-curve $-1 48.587908566545607 0 -12.729624185799301 0 -1 0 I I #
edge $-1 $208 -32.661863631785948 $152 32.661863631785948 $150 $250 forward 7 unknown #
vertex $-1 $142 $251 #
straight-curve $-1 0 32.661863631785948 12.729624185799301 -1 0 0 I I #
straight-curve $-1 0 -32.661863631785948 12.729624185799301 1 0 0 I I #
edge $-1 $147 -12.729624185799301 $205 12.729624185799301 $144 $252 forward 7 unknown #
point $-1 48.587908566545607 -32.661863631785948 12.729624185799301 #
point $-1 48.587908566545607 32.661863631785948 12.729624185799301 #
point $-1 -48.587908566545607 -32.661863631785948 12.729624185799301 #
vertex $-1 $204 $253 #
straight-curve $-1 -48.587908566545607 0 -12.729624185799301 0 1 0 I I #
plane-surface $-1 0 0 -12.729624185799301 0 0 1 1 0 0 forward_v I I I I #
coedge $-1 $232 $159 $230 $254 reversed $98 $-1 #
coedge $-1 $159 $232 $163 $224 reversed $98 $-1 #
coedge $-1 $161 $160 $159 $221 reversed $58 $-1 #
edge $-1 $225 -12.729624185799301 $255 12.729624185799301 $220 $256 forward 7 unknown #
edge $-1 $255 -42.544654819490532 $171 -32.661863631785948 $160 $257 forward 7 unknown #
straight-curve $-1 -48.587908566545607 -32.661863631785948 0 0 0 -1 I I #
edge $-1 $225 -2.7081190599318958 $227 2.7081190599318958 $219 $258 forward 7 unknown #
vertex $-1 $164 $259 #
straight-curve $-1 -48.587908566545607 0 12.729624185799301 0 -1 0 I I #
vertex $-1 $165 $260 #
straight-curve $-1 -43.171670446681816 -37.60325922563824 12.729624185799301 0 1 0 I I #
point $-1 -48.587908566545607 -32.661863631785948 12.729624185799301 #
coedge $-1 $169 $168 $218 $254 forward $170 $-1 #
point $-1 -48.587908566545607 -32.661863631785948 -12.729624185799301 #
coedge $-1 $219 $218 $173 $233 reversed $98 $-1 #
edge $-1 $227 -12.729624185799301 $234 12.729624185799301 $173 $261 forward 7 unknown #
vertex $-1 $233 $262 #
straight-curve $-1 -43.171670446681816 -37.60325922563824 -12.729624185799301 0 -1 0 I I #
edge $-1 $237 15.505638287624114 $240 26.104763693153377 $178 $263 forward 7 unknown #
vertex $-1 $192 $264 #
straight-curve $-1 -64.57515644910859 18.143165167919094 12.729624185799302 -1 0 0 I I #
edge $-1 $240 -13.133768546871018 $189 3.1149753047748661 $188 $265 forward 7 unknown #
vertex $-1 $239 $266 #
straight-curve $-1 -48.587908566545579 18.143165167919094 2.1304987802700808 0.55919289150049634 0 0.82903758062907751 I I #
point $-1 -41.438708432099496 18.143165167919094 12.729624185799301 #
point $-1 -48.587908566545607 1.8944213162732098 2.1304987802700386 #
straight-curve $-1 -48.587908566545607 0 12.729624185799301 0 -1 0 I I #
vertex $-1 $195 $267 #
point $-1 -39.272591260823916 10.018793242096152 5.3672258386177969 #
straight-curve $-1 -48.587908566545607 32.661863631785948 0 0 0 -1 I I #
straight-curve $-1 0 32.661863631785948 -12.729624185799301 1 0 0 I I #
point $-1 48.587908566545607 32.661863631785948 -12.729624185799301 #
straight-curve $-1 -48.587908566545607 0 12.729624185799301 0 -1 0 I I #
point $-1 -48.587908566545607 32.661863631785948 12.729624185799301 #
straight-curve $-1 48.587908566545607 32.661863631785948 0 0 0 -1 I I #
point $-1 -48.587908566545607 32.661863631785948 -12.729624185799301 #
edge $-1 $234 -2.7081190599318958 $255 2.7081190599318958 $218 $268 forward 7 unknown #
vertex $-1 $222 $269 #
straight-curve $-1 -48.587908566545607 -42.544654819490532 0 0 0 -1 I I #
straight-curve $-1 -48.587908566545607 0 -12.729624185799301 0 1 0 I I #
straight-curve $-1 -45.879789506613712 -42.544654819490532 12.729624185799301 1 0 0 I I #
point $-1 -48.587908566545607 -42.544654819490532 12.729624185799301 #
point $-1 -43.171670446681816 -42.544654819490532 12.729624185799301 #
straight-curve $-1 -43.171670446681816 -42.544654819490532 0 0 0 -1 I I #
point $-1 -43.171670446681816 -42.544654819490532 -12.729624185799301 #
straight-curve $-1 -48.587908566545607 18.143165167919094 28.235262473423415 0 0 -1 I I #
point $-1 -48.587908566545607 18.143165167919094 12.729624185799301 #
straight-curve $-1 -48.587908566545607 5.0093966210480758 2.1304987802700381 0 -1 0 I I #
point $-1 -48.587908566545607 18.143165167919094 2.1304987802700386 #
point $-1 -38.867824227131038 10.018793242096152 3.2848801304234372 #
straight-curve $-1 -45.879789506613712 -42.544654819490532 -12.729624185799301 -1 0 0 I I #
point $-1 -48.587908566545607 -42.544654819490532 -12.729624185799301 #
End-of-ACIS-data 