500 0 6 0           
7 Unknown 11 ACIS 5.0 NT 24 Fri Mar 26 01:11:47 1999 
-1 9.9999999999999995e-007 1e-010 
body $-1 $6 $-1 $7 #
body $-1 $8 $-1 $9 #
body $-1 $10 $-1 $11 #
body $-1 $12 $-1 $13 #
body $-1 $14 $-1 $15 #
body $-1 $16 $-1 $17 #
lump $-1 $-1 $18 $0 #
transform $-1 1 0 0 0 1 0 0 0 1 45.048982207708974 18.04021529993944 4.705420211873605 1 rotate no_reflect no_shear #
lump $-1 $-1 $19 $1 #
transform $-1 1 0 0 0 1 0 0 0 1 45.048982207708974 18.04021529993944 4.705420211873605 1 rotate no_reflect no_shear #
lump $-1 $-1 $20 $2 #
transform $-1 1 0 0 0 1 0 0 0 1 45.048982207708974 18.04021529993944 4.705420211873605 1 rotate no_reflect no_shear #
lump $-1 $-1 $21 $3 #
transform $-1 1 0 0 0 1 0 0 0 1 45.048982207708974 18.04021529993944 4.705420211873605 1 rotate no_reflect no_shear #
lump $-1 $-1 $22 $4 #
transform $-1 1 0 0 0 1 0 0 0 1 45.048982207708974 18.04021529993944 4.705420211873605 1 rotate no_reflect no_shear #
lump $-1 $-1 $23 $5 #
transform $-1 1 0 0 0 1 0 0 0 1 45.048982207708974 18.04021529993944 4.705420211873605 1 rotate no_reflect no_shear #
shell $-1 $-1 $-1 $24 $-1 $6 #
shell $-1 $-1 $-1 $25 $-1 $8 #
shell $-1 $-1 $-1 $26 $-1 $10 #
shell $-1 $-1 $-1 $27 $-1 $12 #
shell $-1 $-1 $-1 $28 $-1 $14 #
shell $-1 $-1 $-1 $29 $-1 $16 #
face $-1 $30 $31 $18 $-1 $32 forward single #
face $-1 $33 $34 $19 $-1 $35 reversed single #
face $-1 $36 $37 $20 $-1 $38 reversed single #
face $-1 $39 $40 $21 $-1 $41 forward single #
face $-1 $42 $43 $22 $-1 $44 reversed single #
face $-1 $45 $46 $23 $-1 $47 forward single #
face $-1 $48 $49 $18 $-1 $50 reversed single #
loop $-1 $-1 $51 $24 #
plane-surface $-1 0 0 4.705420211873605 0 0 1 1 0 0 forward_v I I I I #
face $-1 $52 $53 $19 $-1 $54 reversed single #
loop $-1 $-1 $55 $25 #
plane-surface $-1 -38.638141783961764 -15.933025108692556 0 1 0 0 0 0 -1 forward_v I I I I #
face $-1 $56 $57 $20 $-1 $58 reversed single #
loop $-1 $-1 $59 $26 #
plane-surface $-1 25.116453750137282 11.206292742470206 126.7622018610529 0 1 0 0.5877852598018023 0 0.80901698891910034 forward_v I I I I #
face $-1 $60 $61 $21 $-1 $62 forward single #
loop $-1 $63 $64 $27 #
cone-surface $-1 41.9573792179999 14.623254021204822 2.1461428737606205 -0.5877852598018023 0 -0.80901698891910034 1.2135254833786506 0 -0.88167788970270344 1 I I 0 1 1.5 forward I I I I #
face $-1 $65 $66 $22 $-1 $67 reversed single #
loop $-1 $-1 $68 $28 #
plane-surface $-1 -98.007237629238958 11.206292742470206 73.803946439522917 0 1 0 -0.5877852598018023 0 0.80901698891910034 forward_v I I I I #
face $-1 $69 $70 $23 $-1 $71 forward single #
loop $-1 $72 $73 $29 #
cone-surface $-1 -41.957379217999907 14.623254021204822 2.1461428737606223 0.5877852598018023 0 -0.80901698891910034 1.2135254833786506 0 0.88167788970270344 1 I I 0 1 1.5 forward I I I I #
face $-1 $74 $75 $18 $-1 $76 reversed single #
loop $-1 $-1 $77 $30 #
plane-surface $-1 0 0 -4.705420211873605 0 0 1 1 0 0 forward_v I I I I #
coedge $-1 $78 $79 $80 $81 forward $31 $-1 #
face $-1 $82 $83 $19 $-1 $84 reversed single #
loop $-1 $-1 $85 $33 #
plane-surface $-1 -37.138141783961764 -13.825834917445672 0 0 -1 0 0 0 -1 forward_v I I I I #
coedge $-1 $86 $87 $88 $89 forward $34 $-1 #
face $-1 $90 $91 $20 $-1 $92 reversed single #
loop $-1 $-1 $93 $36 #
plane-surface $-1 -27.841801671392695 14.623254021204822 53.871417981951225 0.5877852598018023 0 0.80901698891910034 0.80901698891910034 0 -0.5877852598018023 forward_v I I I I #
coedge $-1 $94 $95 $96 $97 reversed $37 $-1 #
face $-1 $-1 $98 $21 $-1 $99 forward single #
loop $-1 $100 $101 $39 #
cone-surface $-1 41.034734667111479 14.623254021204822 0.87623161968449992 -0.5877852598018023 0 -0.80901698891910034 0.60676274168932531 0 -0.44083894485135172 1 I I -0.70710678118654757 0.70710678118654757 0.75 forward I I I I #
loop $-1 $-1 $102 $27 #
coedge $-1 $64 $64 $103 $104 reversed $40 $-1 #
face $-1 $105 $106 $22 $-1 $107 forward single #
loop $-1 $-1 $108 $42 #
plane-surface $-1 -45.048982207708981 14.623254021204822 0.91316256042124166 -0.5877852598018023 0 0.80901698891910034 0.80901698891910034 0 0.5877852598018023 forward_v I I I I #
coedge $-1 $109 $110 $111 $112 reversed $43 $-1 #
face $-1 $-1 $113 $23 $-1 $114 forward single #
loop $-1 $115 $116 $45 #
cone-surface $-1 -41.034734667111486 14.623254021204822 0.87623161968450169 0.5877852598018023 0 -0.80901698891910034 0.60676274168932531 0 0.44083894485135172 1 I I -0.70710678118654757 0.70710678118654757 0.75 forward I I I I #
loop $-1 $-1 $117 $29 #
coedge $-1 $73 $73 $118 $119 reversed $46 $-1 #
face $-1 $120 $121 $18 $-1 $122 reversed single #
loop $-1 $-1 $123 $48 #
plane-surface $-1 0 -18.04021529993944 0 0 1 0 0 0 1 forward_v I I I I #
coedge $-1 $124 $125 $126 $127 forward $49 $-1 #
coedge $-1 $128 $51 $129 $130 forward $31 $-1 #
coedge $-1 $51 $128 $131 $132 forward $31 $-1 #
coedge $-1 $133 $134 $51 $81 reversed $135 $-1 #
edge $-1 $136 -18.04021529993944 $137 18.04021529993944 $80 $138 forward 7 unknown #
face $-1 $139 $140 $19 $-1 $141 forward single #
loop $-1 $-1 $142 $52 #
plane-surface $-1 -35.638141783961764 -15.933025108692556 0 -1 0 0 0 0 1 forward_v I I I I #
coedge $-1 $143 $144 $145 $146 forward $53 $-1 #
coedge $-1 $147 $55 $148 $149 reversed $34 $-1 #
coedge $-1 $55 $147 $150 $151 reversed $34 $-1 #
coedge $-1 $144 $143 $55 $89 reversed $53 $-1 #
edge $-1 $152 -4.705420211873605 $153 4.705420211873605 $88 $154 forward 7 unknown #
face $-1 $155 $156 $20 $-1 $157 reversed single #
loop $-1 $-1 $96 $56 #
plane-surface $-1 45.048982207708974 0 0 -1 0 0 0 0 1 forward_v I I I I #
coedge $-1 $158 $159 $160 $161 reversed $57 $-1 #
coedge $-1 $95 $59 $162 $163 reversed $37 $-1 #
coedge $-1 $59 $94 $158 $164 reversed $37 $-1 #
coedge $-1 $160 $165 $59 $97 forward $91 $-1 #
edge $-1 $166 58.675680718652842 $167 62.467938370105188 $96 $168 forward 7 unknown #
loop $-1 $-1 $103 $60 #
plane-surface $-1 -27.841801671392695 14.623254021204822 53.871417981951225 0.5877852598018023 0 0.80901698891910034 0.80901698891910034 0 -0.5877852598018023 forward_v I I I I #
loop $-1 $-1 $169 $39 #
coedge $-1 $101 $101 $102 $170 reversed $61 $-1 #
coedge $-1 $102 $102 $101 $170 forward $63 $-1 #
coedge $-1 $103 $103 $64 $104 forward $98 $-1 #
edge $-1 $171 0 $171 6.2831853071796004 $103 $172 forward 7 unknown #
face $-1 $173 $174 $22 $-1 $175 reversed single #
loop $-1 $-1 $111 $65 #
plane-surface $-1 0 0 4.705420211873605 0 0 1 1 0 0 forward_v I I I I #
coedge $-1 $176 $177 $178 $179 reversed $66 $-1 #
coedge $-1 $110 $68 $180 $181 reversed $43 $-1 #
coedge $-1 $68 $109 $176 $182 reversed $43 $-1 #
coedge $-1 $178 $183 $68 $112 forward $106 $-1 #
edge $-1 $184 3.9546366069105048 $185 9.1742313742544823 $111 $186 forward 7 unknown #
loop $-1 $-1 $118 $69 #
plane-surface $-1 -45.048982207708981 14.623254021204822 0.91316256042124166 -0.5877852598018023 0 0.80901698891910034 0.80901698891910034 0 0.5877852598018023 forward_v I I I I #
loop $-1 $-1 $187 $45 #
coedge $-1 $116 $116 $117 $188 reversed $70 $-1 #
coedge $-1 $117 $117 $116 $188 forward $72 $-1 #
coedge $-1 $118 $118 $73 $119 forward $113 $-1 #
edge $-1 $189 0 $189 6.2831853071796004 $118 $190 forward 7 unknown #
face $-1 $191 $192 $18 $-1 $193 reversed single #
loop $-1 $-1 $194 $74 #
plane-surface $-1 -45.048982207708974 0 0 1 0 0 0 0 -1 forward_v I I I I #
coedge $-1 $195 $131 $196 $197 forward $75 $-1 #
coedge $-1 $198 $77 $195 $199 forward $49 $-1 #
coedge $-1 $77 $198 $200 $201 forward $49 $-1 #
coedge $-1 $134 $133 $77 $127 reversed $135 $-1 #
edge $-1 $202 -18.04021529993944 $203 18.04021529993944 $126 $204 forward 7 unknown #
coedge $-1 $79 $78 $205 $206 forward $31 $-1 #
coedge $-1 $207 $208 $78 $130 reversed $192 $-1 #
edge $-1 $137 -45.048982207708974 $209 45.048982207708974 $129 $210 forward 7 unknown #
coedge $-1 $123 $211 $79 $132 reversed $75 $-1 #
edge $-1 $212 -45.048982207708974 $136 45.048982207708974 $131 $213 forward 7 unknown #
coedge $-1 $126 $80 $211 $214 forward $135 $-1 #
coedge $-1 $80 $126 $207 $215 reversed $135 $-1 #
loop $-1 $-1 $133 $191 #
vertex $-1 $81 $216 #
vertex $-1 $81 $217 #
straight-curve $-1 45.048982207708974 0 4.705420211873605 0 1 0 I I #
face $-1 $218 $219 $19 $-1 $220 reversed single #
loop $-1 $-1 $221 $82 #
plane-surface $-1 0 0 4.705420211873605 0 0 1 1 0 0 forward_v I I I I #
coedge $-1 $222 $223 $224 $225 reversed $83 $-1 #
coedge $-1 $88 $85 $226 $227 reversed $53 $-1 #
coedge $-1 $85 $88 $228 $229 reversed $53 $-1 #
coedge $-1 $223 $222 $85 $146 reversed $83 $-1 #
edge $-1 $230 -4.705420211873605 $231 4.705420211873605 $145 $232 forward 7 unknown #
coedge $-1 $87 $86 $233 $234 reversed $34 $-1 #
coedge $-1 $226 $235 $86 $149 forward $219 $-1 #
edge $-1 $236 -10.073702745593163 $153 -5.8593223630993938 $148 $237 forward 7 unknown #
coedge $-1 $238 $228 $87 $151 forward $140 $-1 #
edge $-1 $152 5.8593223630993938 $239 10.073702745593163 $150 $240 forward 7 unknown #
vertex $-1 $151 $241 #
vertex $-1 $149 $242 #
straight-curve $-1 -38.638141783961764 -13.825834917445672 0 0 0 -1 I I #
face $-1 $-1 $243 $20 $-1 $244 forward single #
loop $-1 $-1 $245 $90 #
plane-surface $-1 0 18.04021529993944 0 0 -1 0 0 0 -1 forward_v I I I I #
coedge $-1 $246 $93 $95 $164 forward $57 $-1 #
coedge $-1 $93 $246 $245 $247 reversed $57 $-1 #
coedge $-1 $248 $96 $93 $161 forward $91 $-1 #
edge $-1 $167 3.8946657318677946 $249 10.728588289337029 $160 $250 forward 7 unknown #
coedge $-1 $251 $252 $94 $163 forward $243 $-1 #
edge $-1 $253 27.271160565296377 $166 32.490755332640333 $162 $254 forward 7 unknown #
edge $-1 $167 -90.09796441541792 $253 -83.64619042446914 $95 $255 forward 7 unknown #
coedge $-1 $96 $248 $251 $256 reversed $91 $-1 #
vertex $-1 $256 $257 #
vertex $-1 $97 $258 #
straight-curve $-1 45.048982207708974 11.206292742470206 63.381100930526451 0 0 -1 I I #
coedge $-1 $169 $169 $-1 $259 reversed $100 $-1 #
edge $-1 $260 0 $260 6.2831853071796004 $101 $261 forward 7 unknown #
vertex $-1 $104 $262 #
ellipse-curve $-1 42.439184824036978 14.623254021204822 2.8092913861474313 0.5877852598018023 0 0.80901698891910034 1.2135254833786506 0 -0.88167788970270344 1 I I #
face $-1 $-1 $263 $22 $-1 $264 reversed single #
loop $-1 $-1 $265 $105 #
plane-surface $-1 0 18.04021529993944 0 0 -1 0 0 0 -1 forward_v I I I I #
coedge $-1 $266 $108 $110 $182 forward $66 $-1 #
coedge $-1 $108 $266 $265 $267 reversed $66 $-1 #
coedge $-1 $268 $111 $108 $179 forward $106 $-1 #
edge $-1 $185 3.8946657318677946 $269 10.728588289337029 $178 $270 forward 7 unknown #
coedge $-1 $271 $272 $109 $181 forward $263 $-1 #
edge $-1 $273 -35.98881065934021 $184 -32.196553007887857 $180 $274 forward 7 unknown #
edge $-1 $185 -6.4517739909488228 $273 -8.7502459990790685e-015 $110 $275 forward 7 unknown #
coedge $-1 $111 $268 $271 $276 forward $106 $-1 #
vertex $-1 $181 $277 #
vertex $-1 $112 $278 #
straight-curve $-1 -49.003618814619479 11.206292742470206 4.7054202118736086 1 0 0 I I #
coedge $-1 $187 $187 $-1 $279 reversed $115 $-1 #
edge $-1 $280 0 $280 6.2831853071796004 $116 $281 forward 7 unknown #
vertex $-1 $119 $282 #
ellipse-curve $-1 -42.439184824036985 14.623254021204822 2.8092913861474282 -0.5877852598018023 0 0.80901698891910034 1.2135254833786506 0 0.88167788970270344 1 I I #
face $-1 $-1 $135 $18 $-1 $283 reversed single #
loop $-1 $-1 $207 $120 #
plane-surface $-1 0 18.04021529993944 0 0 -1 0 0 0 -1 forward_v I I I I #
coedge $-1 $284 $205 $208 $285 forward $121 $-1 #
coedge $-1 $211 $123 $124 $199 reversed $75 $-1 #
coedge $-1 $205 $284 $123 $197 reversed $121 $-1 #
edge $-1 $212 -4.705420211873605 $286 4.705420211873605 $196 $287 forward 7 unknown #
coedge $-1 $125 $124 $284 $288 forward $49 $-1 #
edge $-1 $203 -45.048982207708974 $286 45.048982207708974 $195 $289 forward 7 unknown #
coedge $-1 $208 $207 $125 $201 reversed $192 $-1 #
edge $-1 $290 -45.048982207708974 $202 45.048982207708974 $200 $291 forward 7 unknown #
vertex $-1 $127 $292 #
vertex $-1 $214 $293 #
straight-curve $-1 45.048982207708974 0 -4.705420211873605 0 -1 0 I I #
coedge $-1 $194 $196 $128 $206 reversed $121 $-1 #
edge $-1 $209 -18.04021529993944 $212 18.04021529993944 $205 $294 forward 7 unknown #
coedge $-1 $200 $129 $134 $215 forward $192 $-1 #
coedge $-1 $129 $200 $194 $285 reversed $192 $-1 #
vertex $-1 $130 $295 #
straight-curve $-1 0 18.04021529993944 4.705420211873605 -1 0 0 I I #
coedge $-1 $131 $195 $133 $214 reversed $75 $-1 #
vertex $-1 $206 $296 #
straight-curve $-1 0 -18.04021529993944 4.705420211873605 1 0 0 I I #
edge $-1 $136 -4.705420211873605 $203 4.705420211873605 $133 $297 forward 7 unknown #
edge $-1 $137 -4.705420211873605 $202 4.705420211873605 $134 $298 forward 7 unknown #
point $-1 45.048982207708974 -18.04021529993944 4.705420211873605 #
point $-1 45.048982207708974 18.04021529993944 4.705420211873605 #
face $-1 $-1 $299 $19 $-1 $300 reversed single #
loop $-1 $-1 $301 $139 #
plane-surface $-1 0 0 -4.705420211873605 0 0 1 1 0 0 forward_v I I I I #
coedge $-1 $228 $238 $223 $302 forward $140 $-1 #
coedge $-1 $145 $142 $301 $303 reversed $83 $-1 #
coedge $-1 $142 $145 $221 $302 reversed $83 $-1 #
coedge $-1 $304 $305 $142 $225 forward $299 $-1 #
edge $-1 $306 -4.705420211873605 $307 4.705420211873605 $224 $308 forward 7 unknown #
coedge $-1 $301 $148 $143 $227 forward $219 $-1 #
edge $-1 $153 -20.069070891980882 $231 -17.069070891980882 $226 $309 forward 7 unknown #
coedge $-1 $150 $221 $144 $229 forward $140 $-1 #
edge $-1 $230 17.069070891980882 $152 20.069070891980882 $228 $310 forward 7 unknown #
vertex $-1 $229 $311 #
vertex $-1 $227 $312 #
straight-curve $-1 -35.638141783961764 -13.825834917445672 0 0 0 -1 I I #
coedge $-1 $305 $304 $147 $234 forward $299 $-1 #
edge $-1 $239 -4.705420211873605 $236 4.705420211873605 $233 $313 forward 7 unknown #
coedge $-1 $148 $301 $305 $314 forward $219 $-1 #
vertex $-1 $149 $315 #
straight-curve $-1 -38.638141783961764 -7.966512554346278 -4.705420211873605 0 1 0 I I #
coedge $-1 $221 $150 $304 $316 forward $140 $-1 #
vertex $-1 $316 $317 #
straight-curve $-1 -38.638141783961764 -7.966512554346278 4.705420211873605 0 -1 0 I I #
point $-1 -38.638141783961764 -13.825834917445672 4.705420211873605 #
point $-1 -38.638141783961764 -13.825834917445672 -4.705420211873605 #
loop $-1 $-1 $162 $155 #
plane-surface $-1 0 0 4.705420211873605 0 0 1 1 0 0 forward_v I I I I #
coedge $-1 $318 $319 $159 $247 forward $156 $-1 #
coedge $-1 $159 $158 $252 $320 reversed $57 $-1 #
edge $-1 $249 -63.003306431075139 $321 -56.551532440126351 $245 $322 forward 7 unknown #
coedge $-1 $165 $160 $319 $323 reversed $91 $-1 #
vertex $-1 $247 $324 #
straight-curve $-1 45.048982207708974 7.311627010602411 0.91316256042125588 0 1 0 I I #
coedge $-1 $325 $162 $165 $256 forward $243 $-1 #
coedge $-1 $162 $325 $246 $320 forward $243 $-1 #
vertex $-1 $163 $326 #
straight-curve $-1 12.558226875068641 11.206292742470206 4.7054202118736015 1 0 0 I I #
straight-curve $-1 -27.841801671392695 11.206292742470206 53.871417981951225 -0.80901698891910034 0 0.5877852598018023 I I #
edge $-1 $166 11.206292742470206 $327 18.04021529993944 $165 $328 forward 7 unknown #
point $-1 45.048982207708974 11.206292742470206 4.705420211873605 #
point $-1 45.048982207708967 11.206292742470206 0.91316256042126298 #
edge $-1 $329 1 $329 0 $169 $-1 forward 7 unknown #
vertex $-1 $170 $330 #
ellipse-curve $-1 41.47557361196283 14.623254021204822 1.4829943613738252 0.5877852598018023 0 0.80901698891910034 1.2135254833786506 0 -0.88167788970270344 1 I I #
point $-1 43.652710307415617 14.623254021204822 1.9276134964447125 #
loop $-1 $-1 $180 $173 #
plane-surface $-1 -45.048982207708974 0 0 1 0 0 0 0 -1 forward_v I I I I #
coedge $-1 $331 $332 $177 $267 forward $174 $-1 #
coedge $-1 $177 $176 $272 $333 reversed $66 $-1 #
edge $-1 $269 11.502550232417361 $334 17.954324223366175 $265 $335 forward 7 unknown #
coedge $-1 $183 $178 $332 $336 forward $106 $-1 #
vertex $-1 $336 $337 #
straight-curve $-1 -39.829387440364997 7.311627010602411 4.7054202118736042 0 1 0 I I #
coedge $-1 $338 $180 $183 $276 reversed $263 $-1 #
coedge $-1 $180 $338 $266 $333 forward $263 $-1 #
vertex $-1 $181 $339 #
straight-curve $-1 -45.048982207708974 11.206292742470206 36.901973219761459 0 0 1 I I #
straight-curve $-1 -45.048982207708981 11.206292742470206 0.91316256042124166 -0.80901698891910034 0 -0.5877852598018023 I I #
edge $-1 $340 -18.04021529993944 $184 -11.206292742470206 $271 $341 forward 7 unknown #
point $-1 -45.048982207708974 11.206292742470206 4.705420211873605 #
point $-1 -39.829387440364997 11.206292742470206 4.705420211873605 #
edge $-1 $342 1 $342 0 $187 $-1 forward 7 unknown #
vertex $-1 $188 $343 #
ellipse-curve $-1 -41.475573611962837 14.623254021204822 1.482994361373827 -0.5877852598018023 0 0.80901698891910034 1.2135254833786506 0 0.88167788970270344 1 I I #
point $-1 -41.225659340658325 14.623254021204822 3.6909692758501209 #
plane-surface $-1 45.048982207708974 0 0 -1 0 0 0 0 1 forward_v I I I I #
coedge $-1 $196 $194 $198 $288 reversed $121 $-1 #
edge $-1 $209 -4.705420211873605 $290 4.705420211873605 $208 $344 forward 7 unknown #
vertex $-1 $288 $345 #
straight-curve $-1 -45.048982207708974 -18.04021529993944 0 0 0 -1 I I #
edge $-1 $286 -18.04021529993944 $290 18.04021529993944 $284 $346 forward 7 unknown #
straight-curve $-1 0 -18.04021529993944 -4.705420211873605 -1 0 0 I I #
vertex $-1 $201 $347 #
straight-curve $-1 0 18.04021529993944 -4.705420211873605 1 0 0 I I #
point $-1 45.048982207708974 18.04021529993944 -4.705420211873605 #
point $-1 45.048982207708974 -18.04021529993944 -4.705420211873605 #
straight-curve $-1 -45.048982207708974 0 4.705420211873605 0 -1 0 I I #
point $-1 -45.048982207708974 18.04021529993944 4.705420211873605 #
point $-1 -45.048982207708974 -18.04021529993944 4.705420211873605 #
straight-curve $-1 45.048982207708974 -18.04021529993944 0 0 0 -1 I I #
straight-curve $-1 45.048982207708974 18.04021529993944 0 0 0 -1 I I #
loop $-1 $-1 $224 $218 #
plane-surface $-1 0 -18.04021529993944 0 0 1 0 0 0 1 forward_v I I I I #
coedge $-1 $235 $226 $222 $303 forward $219 $-1 #
edge $-1 $307 -10.073702745593163 $230 -5.8593223630993938 $221 $348 forward 7 unknown #
edge $-1 $231 5.8593223630993938 $306 10.073702745593163 $301 $349 forward 7 unknown #
coedge $-1 $233 $224 $238 $316 reversed $299 $-1 #
coedge $-1 $224 $233 $235 $314 reversed $299 $-1 #
vertex $-1 $314 $350 #
vertex $-1 $225 $351 #
straight-curve $-1 -35.638141783961764 -18.04021529993944 0 0 0 1 I I #
straight-curve $-1 -18.569070891980882 -13.825834917445672 -4.705420211873605 1 0 0 I I #
straight-curve $-1 -18.569070891980882 -13.825834917445672 4.705420211873605 -1 0 0 I I #
point $-1 -35.638141783961764 -13.825834917445672 4.705420211873605 #
point $-1 -35.638141783961764 -13.825834917445672 -4.705420211873605 #
straight-curve $-1 -38.638141783961764 -18.04021529993944 0 0 0 -1 I I #
edge $-1 $306 35.638141783961764 $236 38.638141783961764 $305 $352 forward 7 unknown #
point $-1 -38.638141783961764 -18.04021529993944 -4.705420211873605 #
edge $-1 $239 -38.638141783961764 $307 -35.638141783961764 $304 $353 forward 7 unknown #
point $-1 -38.638141783961764 -18.04021529993944 4.705420211873605 #
coedge $-1 $319 $245 $325 $354 reversed $156 $-1 #
coedge $-1 $245 $318 $248 $323 forward $156 $-1 #
edge $-1 $321 -10.728588289337029 $253 -3.8946657318677946 $252 $355 forward 7 unknown #
vertex $-1 $247 $356 #
straight-curve $-1 -5.9217630531068304 18.04021529993944 37.945577399383325 -0.80901698891910034 0 0.5877852598018023 I I #
edge $-1 $327 -4.705420211873605 $249 -0.91316256042126354 $248 $357 forward 7 unknown #
point $-1 45.048982207708974 18.04021529993944 0.91316256042126354 #
coedge $-1 $252 $251 $318 $354 forward $243 $-1 #
point $-1 39.829387440365018 11.206292742470206 4.7054202118736015 #
vertex $-1 $256 $358 #
straight-curve $-1 45.048982207708974 0 4.705420211873605 0 1 0 I I #
vertex $-1 $259 $359 #
point $-1 42.689099095341483 14.623254021204822 0.60131647167112179 #
coedge $-1 $332 $265 $338 $360 reversed $174 $-1 #
coedge $-1 $265 $331 $268 $336 reversed $174 $-1 #
edge $-1 $334 -10.728588289337029 $273 -3.8946657318677946 $272 $361 forward 7 unknown #
vertex $-1 $267 $362 #
straight-curve $-1 -30.523628886444005 18.04021529993944 11.466449688618326 -0.80901698891910034 0 -0.5877852598018023 I I #
edge $-1 $269 39.829387440364997 $340 45.048982207708974 $332 $363 forward 7 unknown #
point $-1 -39.829387440364997 18.04021529993944 4.705420211873605 #
coedge $-1 $272 $271 $331 $360 forward $263 $-1 #
point $-1 -45.048982207708974 11.206292742470206 0.91316256042124677 #
vertex $-1 $336 $364 #
straight-curve $-1 -45.048982207708974 0 4.705420211873605 0 -1 0 I I #
vertex $-1 $279 $365 #
point $-1 -40.26204812858419 14.623254021204822 2.3646722510765303 #
straight-curve $-1 -45.048982207708974 18.04021529993944 0 0 0 -1 I I #
point $-1 -45.048982207708974 -18.04021529993944 -4.705420211873605 #
straight-curve $-1 -45.048982207708974 0 -4.705420211873605 0 1 0 I I #
point $-1 -45.048982207708974 18.04021529993944 -4.705420211873605 #
straight-curve $-1 -35.638141783961764 -7.966512554346278 4.705420211873605 0 1 0 I I #
straight-curve $-1 -35.638141783961764 -7.966512554346278 -4.705420211873605 0 -1 0 I I #
point $-1 -35.638141783961764 -18.04021529993944 -4.705420211873605 #
point $-1 -35.638141783961764 -18.04021529993944 4.705420211873605 #
straight-curve $-1 0 -18.04021529993944 -4.705420211873605 -1 0 0 I I #
straight-curve $-1 0 -18.04021529993944 4.705420211873605 1 0 0 I I #
edge $-1 $327 -45.048982207708974 $321 -39.829387440365018 $318 $366 forward 7 unknown #
straight-curve $-1 39.829387440365011 7.311627010602411 4.7054202118736015 0 -1 0 I I #
point $-1 39.829387440365018 18.04021529993944 4.7054202118736015 #
straight-curve $-1 45.048982207708974 18.04021529993944 0 0 0 -1 I I #
point $-1 45.048982207708974 18.04021529993944 4.705420211873605 #
point $-1 40.593895722260129 14.623254021204822 0.2694688779951746 #
edge $-1 $340 -4.705420211873605 $334 -0.91316256042124677 $331 $367 forward 7 unknown #
straight-curve $-1 -45.048982207708974 7.311627010602411 0.91316256042124377 0 -1 0 I I #
point $-1 -45.048982207708974 18.04021529993944 0.91316256042124677 #
straight-curve $-1 0 18.04021529993944 4.705420211873605 -1 0 0 I I #
point $-1 -45.048982207708974 18.04021529993944 4.705420211873605 #
point $-1 -40.593895722260136 14.623254021204822 0.26946887799517638 #
straight-curve $-1 0 18.04021529993944 4.705420211873605 -1 0 0 I I #
straight-curve $-1 -45.048982207708974 18.04021529993944 0 0 0 -1 I I #
End-of-ACIS-data 