500 0 6 0           
7 Unknown 11 ACIS 5.0 NT 24 Fri Mar 26 17:52:46 1999 
-1 9.9999999999999995e-007 1e-010 
body $-1 $6 $-1 $7 #
body $-1 $8 $-1 $9 #
body $-1 $10 $-1 $11 #
body $-1 $12 $-1 $13 #
body $-1 $14 $-1 $15 #
body $-1 $16 $-1 $17 #
lump $-1 $-1 $18 $0 #
transform $-1 1 0 0 0 1 0 0 0 1 59.867549668874176 24.946791686111272 12.037148654233292 1 rotate no_reflect no_shear #
lump $-1 $-1 $19 $1 #
transform $-1 1 0 0 0 1 0 0 0 1 59.867549668874176 24.946791686111272 12.037148654233292 1 rotate no_reflect no_shear #
lump $-1 $-1 $20 $2 #
transform $-1 1 0 0 0 1 0 0 0 1 59.867549668874176 24.946791686111272 12.037148654233292 1 rotate no_reflect no_shear #
lump $-1 $-1 $21 $3 #
transform $-1 1 0 0 0 1 0 0 0 1 59.867549668874176 24.946791686111272 12.037148654233292 1 rotate no_reflect no_shear #
lump $-1 $-1 $22 $4 #
transform $-1 1 0 0 0 1 0 0 0 1 59.867549668874176 24.946791686111272 12.037148654233292 1 rotate no_reflect no_shear #
lump $-1 $-1 $23 $5 #
transform $-1 1 0 0 0 1 0 0 0 1 59.867549668874176 24.946791686111272 12.037148654233292 1 rotate no_reflect no_shear #
shell $-1 $-1 $-1 $24 $-1 $6 #
shell $-1 $-1 $-1 $25 $-1 $8 #
shell $-1 $-1 $-1 $26 $-1 $10 #
shell $-1 $-1 $-1 $27 $-1 $12 #
shell $-1 $-1 $-1 $28 $-1 $14 #
shell $-1 $-1 $-1 $29 $-1 $16 #
face $-1 $30 $31 $18 $-1 $32 forward single #
face $-1 $33 $34 $19 $-1 $35 reversed single #
face $-1 $36 $37 $20 $-1 $38 forward single #
face $-1 $39 $40 $21 $-1 $41 forward single #
face $-1 $42 $43 $22 $-1 $44 reversed single #
face $-1 $45 $46 $23 $-1 $47 forward single #
face $-1 $48 $49 $18 $-1 $50 reversed single #
loop $-1 $-1 $51 $24 #
plane-surface $-1 0 0 12.037148654233292 0 0 1 1 0 0 forward_v I I I I #
face $-1 $52 $53 $19 $-1 $54 reversed single #
loop $-1 $-1 $55 $25 #
plane-surface $-1 -22.819158454998931 82.578883853362854 122.32101984264723 1 0 0 0 -0.75470958851134928 -0.65605901945558964 forward_v I I I I #
face $-1 $56 $57 $20 $-1 $58 forward single #
loop $-1 $59 $60 $26 #
cone-surface $-1 -18.727882530398531 20.320833964487395 7.292056537473611 0 -0.75470958851134928 -0.65605901945558964 1.5 0 0 1 I I 0 1 1.5 forward I I I I #
face $-1 $61 $62 $21 $-1 $63 forward single #
loop $-1 $64 $65 $27 #
cone-surface $-1 -12.590968643497931 20.320833964487395 7.292056537473611 0 -0.75470958851134928 -0.65605901945558964 1.5 0 0 1 I I 0 1 1.5 forward I I I I #
face $-1 $66 $67 $22 $-1 $68 reversed single #
loop $-1 $-1 $69 $28 #
plane-surface $-1 -44.041848758755634 -112.51550079007612 88.329370750018384 -1 0 0 0 -0.73135370988377701 0.68199835119979291 forward_v I I I I #
face $-1 $70 $71 $23 $-1 $72 forward single #
loop $-1 $73 $74 $29 #
cone-surface $-1 -51.954699213814905 -21.238435266465224 8.2290853500879599 0 0.73135370988377701 -0.68199835119979291 1.5 0 0 1 I I 0 1 1.5 forward I I I I #
face $-1 $75 $76 $18 $-1 $77 reversed single #
loop $-1 $-1 $78 $30 #
plane-surface $-1 0 0 -12.037148654233292 0 0 1 1 0 0 forward_v I I I I #
coedge $-1 $79 $80 $81 $82 forward $31 $-1 #
face $-1 $83 $84 $19 $-1 $85 reversed single #
loop $-1 $-1 $86 $33 #
plane-surface $-1 -15.659425586948231 -7.7863436981947416 43.767727976706425 0 0.75470958851134928 0.65605901945558964 1 0 0 forward_v I I I I #
coedge $-1 $87 $88 $89 $90 reversed $34 $-1 #
face $-1 $-1 $91 $20 $-1 $92 forward single #
loop $-1 $93 $94 $36 #
cone-surface $-1 -18.727882530398531 17.703926201412099 5.0172133829890555 0 -0.75470958851134928 -0.65605901945558964 0.75 0 0 1 I I -0.70710678118654757 0.70710678118654757 0.75 forward I I I I #
loop $-1 $-1 $95 $26 #
coedge $-1 $60 $60 $96 $97 reversed $37 $-1 #
face $-1 $-1 $98 $21 $-1 $99 forward single #
loop $-1 $100 $101 $39 #
cone-surface $-1 -12.590968643497931 17.703926201412099 5.0172133829890555 0 -0.75470958851134928 -0.65605901945558964 0.75 0 0 1 I I -0.70710678118654757 0.70710678118654757 0.75 forward I I I I #
loop $-1 $-1 $102 $27 #
coedge $-1 $65 $65 $103 $104 reversed $40 $-1 #
face $-1 $105 $106 $22 $-1 $107 forward single #
loop $-1 $-1 $108 $42 #
plane-surface $-1 -51.954699213814905 -24.946791686111283 6.6702304209305794 0 -0.73135370988377701 0.68199835119979291 1 0 0 forward_v I I I I #
coedge $-1 $109 $110 $111 $112 reversed $43 $-1 #
face $-1 $-1 $113 $23 $-1 $114 forward single #
loop $-1 $115 $116 $45 #
cone-surface $-1 -51.954699213814905 -19.483929612920836 6.5929823991941419 0 0.73135370988377701 -0.68199835119979291 0.75 0 0 1 I I -0.70710678118654757 0.70710678118654757 0.75 forward I I I I #
loop $-1 $-1 $117 $29 #
coedge $-1 $74 $74 $118 $119 reversed $46 $-1 #
face $-1 $120 $121 $18 $-1 $122 reversed single #
loop $-1 $-1 $123 $48 #
plane-surface $-1 0 -24.946791686111272 0 0 1 0 0 0 1 forward_v I I I I #
coedge $-1 $124 $125 $126 $127 forward $49 $-1 #
coedge $-1 $128 $51 $129 $130 forward $31 $-1 #
coedge $-1 $51 $128 $131 $132 forward $31 $-1 #
coedge $-1 $133 $134 $51 $82 reversed $135 $-1 #
edge $-1 $136 -24.946791686111272 $137 24.946791686111272 $81 $138 forward 7 unknown #
face $-1 $139 $140 $19 $-1 $141 reversed single #
loop $-1 $-1 $142 $52 #
plane-surface $-1 -8.4996927188975313 82.578883853362854 122.32101984264723 -1 0 0 0 0.75470958851134928 0.65605901945558964 forward_v I I I I #
coedge $-1 $143 $144 $145 $146 reversed $53 $-1 #
coedge $-1 $88 $55 $147 $148 reversed $34 $-1 #
coedge $-1 $55 $87 $143 $149 reversed $34 $-1 #
coedge $-1 $145 $150 $55 $90 forward $151 $-1 #
edge $-1 $152 16.342650240570155 $153 21.492814540434345 $89 $154 forward 7 unknown #
loop $-1 $-1 $96 $56 #
plane-surface $-1 -15.659425586948231 -7.7863436981947416 43.767727976706425 0 0.75470958851134928 0.65605901945558964 1 0 0 forward_v I I I I #
loop $-1 $-1 $155 $36 #
coedge $-1 $94 $94 $95 $156 reversed $57 $-1 #
coedge $-1 $95 $95 $94 $156 forward $59 $-1 #
coedge $-1 $96 $96 $60 $97 forward $91 $-1 #
edge $-1 $157 -1.5538599016802116e-015 $157 6.2831853071795987 $96 $158 forward 7 unknown #
loop $-1 $-1 $103 $61 #
plane-surface $-1 -15.659425586948231 -7.7863436981947416 43.767727976706425 0 0.75470958851134928 0.65605901945558964 1 0 0 forward_v I I I I #
loop $-1 $-1 $159 $39 #
coedge $-1 $101 $101 $102 $160 reversed $62 $-1 #
coedge $-1 $102 $102 $101 $160 forward $64 $-1 #
coedge $-1 $103 $103 $65 $104 forward $98 $-1 #
edge $-1 $161 -1.5538599016802116e-015 $161 6.2831853071795987 $103 $162 forward 7 unknown #
face $-1 $163 $164 $22 $-1 $165 reversed single #
loop $-1 $-1 $111 $66 #
plane-surface $-1 0 0 12.037148654233292 0 0 1 1 0 0 forward_v I I I I #
coedge $-1 $166 $167 $168 $169 reversed $67 $-1 #
coedge $-1 $110 $69 $170 $171 reversed $43 $-1 #
coedge $-1 $69 $109 $166 $172 reversed $43 $-1 #
coedge $-1 $168 $173 $69 $112 forward $106 $-1 #
edge $-1 $174 31.310958708926787 $175 36.315690805955754 $111 $176 forward 7 unknown #
loop $-1 $-1 $118 $70 #
plane-surface $-1 -51.954699213814905 -24.946791686111283 6.6702304209305794 0 -0.73135370988377701 0.68199835119979291 1 0 0 forward_v I I I I #
loop $-1 $-1 $177 $45 #
coedge $-1 $116 $116 $117 $178 reversed $71 $-1 #
coedge $-1 $117 $117 $116 $178 forward $73 $-1 #
coedge $-1 $118 $118 $74 $119 forward $113 $-1 #
edge $-1 $179 -2.33793943891594e-016 $179 6.2831853071796004 $118 $180 forward 7 unknown #
face $-1 $181 $182 $18 $-1 $183 reversed single #
loop $-1 $-1 $184 $75 #
plane-surface $-1 -59.867549668874176 0 0 1 0 0 0 0 -1 forward_v I I I I #
coedge $-1 $185 $131 $186 $187 forward $76 $-1 #
coedge $-1 $188 $78 $185 $189 forward $49 $-1 #
coedge $-1 $78 $188 $190 $191 forward $49 $-1 #
coedge $-1 $134 $133 $78 $127 reversed $135 $-1 #
edge $-1 $192 -24.946791686111272 $193 24.946791686111272 $126 $194 forward 7 unknown #
coedge $-1 $80 $79 $195 $196 forward $31 $-1 #
coedge $-1 $197 $198 $79 $130 reversed $182 $-1 #
edge $-1 $137 -59.867549668874176 $199 59.867549668874176 $129 $200 forward 7 unknown #
coedge $-1 $123 $201 $80 $132 reversed $76 $-1 #
edge $-1 $202 -59.867549668874176 $136 59.867549668874176 $131 $203 forward 7 unknown #
coedge $-1 $126 $81 $201 $204 forward $135 $-1 #
coedge $-1 $81 $126 $197 $205 reversed $135 $-1 #
loop $-1 $-1 $133 $181 #
vertex $-1 $82 $206 #
vertex $-1 $82 $207 #
straight-curve $-1 59.867549668874176 0 12.037148654233292 0 1 0 I I #
face $-1 $-1 $151 $19 $-1 $208 forward single #
loop $-1 $-1 $209 $83 #
plane-surface $-1 0 24.946791686111272 0 0 -1 0 0 0 -1 forward_v I I I I #
coedge $-1 $210 $211 $212 $213 reversed $84 $-1 #
coedge $-1 $214 $86 $88 $149 forward $53 $-1 #
coedge $-1 $86 $214 $210 $215 forward $53 $-1 #
coedge $-1 $212 $89 $86 $146 forward $151 $-1 #
edge $-1 $153 -14.989445661524815 $216 -0.66997992542341578 $145 $217 forward 7 unknown #
coedge $-1 $218 $219 $87 $148 forward $140 $-1 #
edge $-1 $220 -55.047947720823942 $152 -49.123361267090324 $147 $221 forward 7 unknown #
edge $-1 $153 42.043429427021231 $220 49.893583372222515 $88 $222 forward 7 unknown #
coedge $-1 $89 $212 $218 $223 forward $151 $-1 #
loop $-1 $-1 $212 $139 #
vertex $-1 $148 $224 #
vertex $-1 $90 $225 #
straight-curve $-1 -22.819158454998931 41.289441926681427 12.037148654233292 0 -1 0 I I #
coedge $-1 $155 $155 $-1 $226 reversed $93 $-1 #
edge $-1 $227 0 $227 6.2831853071796004 $94 $228 forward 7 unknown #
vertex $-1 $97 $229 #
ellipse-curve $-1 -18.727882530398531 22.371709536179182 9.0748554273664759 0 0.75470958851134928 0.65605901945558964 1.5 0 0 1 I I #
coedge $-1 $159 $159 $-1 $230 reversed $100 $-1 #
edge $-1 $231 0 $231 6.2831853071796004 $101 $232 forward 7 unknown #
vertex $-1 $104 $233 #
ellipse-curve $-1 -12.590968643497931 22.371709536179182 9.0748554273664759 0 0.75470958851134928 0.65605901945558964 1.5 0 0 1 I I #
face $-1 $-1 $234 $22 $-1 $235 reversed single #
loop $-1 $-1 $236 $105 #
plane-surface $-1 -59.867549668874176 0 0 1 0 0 0 0 -1 forward_v I I I I #
coedge $-1 $237 $108 $110 $172 forward $67 $-1 #
coedge $-1 $108 $237 $236 $238 reversed $67 $-1 #
coedge $-1 $239 $111 $108 $169 forward $106 $-1 #
edge $-1 $175 18.064499151848182 $240 33.890200061966723 $168 $241 forward 7 unknown #
coedge $-1 $242 $243 $109 $171 forward $234 $-1 #
edge $-1 $244 -37.494454954078599 $174 -32.1275367207759 $170 $245 forward 7 unknown #
edge $-1 $175 -7.3383345989392677 $244 -1.5713278183403837e-014 $110 $246 forward 7 unknown #
coedge $-1 $111 $239 $242 $247 forward $106 $-1 #
vertex $-1 $171 $248 #
vertex $-1 $112 $249 #
straight-curve $-1 -44.041848758755634 -56.257750395038059 12.037148654233292 0 1 0 I I #
coedge $-1 $177 $177 $-1 $250 reversed $115 $-1 #
edge $-1 $251 0 $251 6.2831853071796004 $116 $252 forward 7 unknown #
vertex $-1 $119 $253 #
ellipse-curve $-1 -51.954699213814905 -22.44442563759679 9.3536895375819409 0 -0.73135370988377701 0.68199835119979291 1.5 0 0 1 I I #
face $-1 $-1 $135 $18 $-1 $254 reversed single #
loop $-1 $-1 $197 $120 #
plane-surface $-1 0 24.946791686111272 0 0 -1 0 0 0 -1 forward_v I I I I #
coedge $-1 $255 $195 $198 $256 forward $121 $-1 #
coedge $-1 $201 $123 $124 $189 reversed $76 $-1 #
coedge $-1 $195 $255 $123 $187 reversed $121 $-1 #
edge $-1 $202 -12.037148654233292 $257 12.037148654233292 $186 $258 forward 7 unknown #
coedge $-1 $125 $124 $255 $259 forward $49 $-1 #
edge $-1 $193 -59.867549668874176 $257 59.867549668874176 $185 $260 forward 7 unknown #
coedge $-1 $198 $197 $125 $191 reversed $182 $-1 #
edge $-1 $261 -59.867549668874176 $192 59.867549668874176 $190 $262 forward 7 unknown #
vertex $-1 $127 $263 #
vertex $-1 $204 $264 #
straight-curve $-1 59.867549668874176 0 -12.037148654233292 0 -1 0 I I #
coedge $-1 $184 $186 $128 $196 reversed $121 $-1 #
edge $-1 $199 -24.946791686111272 $202 24.946791686111272 $195 $265 forward 7 unknown #
coedge $-1 $190 $129 $134 $205 forward $182 $-1 #
coedge $-1 $129 $190 $184 $256 reversed $182 $-1 #
vertex $-1 $130 $266 #
straight-curve $-1 0 24.946791686111272 12.037148654233292 -1 0 0 I I #
coedge $-1 $131 $185 $133 $204 reversed $76 $-1 #
vertex $-1 $196 $267 #
straight-curve $-1 0 -24.946791686111272 12.037148654233292 1 0 0 I I #
edge $-1 $136 -12.037148654233292 $193 12.037148654233292 $133 $268 forward 7 unknown #
edge $-1 $137 -12.037148654233292 $192 12.037148654233292 $134 $269 forward 7 unknown #
point $-1 59.867549668874176 -24.946791686111272 12.037148654233292 #
point $-1 59.867549668874176 24.946791686111272 12.037148654233292 #
plane-surface $-1 0 0 12.037148654233292 0 0 1 1 0 0 forward_v I I I I #
coedge $-1 $219 $218 $211 $270 forward $140 $-1 #
coedge $-1 $211 $142 $144 $215 reversed $84 $-1 #
coedge $-1 $142 $210 $209 $270 reversed $84 $-1 #
coedge $-1 $150 $145 $142 $213 forward $151 $-1 #
edge $-1 $216 -21.492814540434345 $271 -16.342650240570155 $212 $272 forward 7 unknown #
coedge $-1 $144 $143 $219 $273 reversed $53 $-1 #
edge $-1 $274 -49.893583372222515 $216 -42.043429427021231 $210 $275 forward 7 unknown #
vertex $-1 $146 $276 #
straight-curve $-1 -7.8297127934741155 19.796627386247081 12.037148654233292 1 0 0 I I #
coedge $-1 $209 $147 $150 $223 reversed $140 $-1 #
coedge $-1 $147 $209 $214 $273 forward $140 $-1 #
vertex $-1 $148 $277 #
straight-curve $-1 -22.819158454998931 24.946791686111272 61.160509921323616 0 0 1 I I #
straight-curve $-1 -22.819158454998931 -7.7863436981947416 43.767727976706425 0 0.65605901945558964 -0.75470958851134928 I I #
edge $-1 $271 8.4996927188975313 $152 22.819158454998931 $218 $278 forward 7 unknown #
point $-1 -22.819158454998931 24.946791686111272 12.037148654233292 #
point $-1 -22.819158454998931 19.796627386247081 12.037148654233288 #
edge $-1 $279 1 $279 0 $155 $-1 forward 7 unknown #
vertex $-1 $156 $280 #
ellipse-curve $-1 -18.727882530398531 18.269958392795612 5.509257647580748 0 0.75470958851134928 0.65605901945558964 1.5 0 0 1 I I #
point $-1 -17.227882530398531 22.371709536179178 9.0748554273664759 #
edge $-1 $281 1 $281 0 $159 $-1 forward 7 unknown #
vertex $-1 $160 $282 #
ellipse-curve $-1 -12.590968643497931 18.269958392795612 5.509257647580748 0 0.75470958851134928 0.65605901945558964 1.5 0 0 1 I I #
point $-1 -11.090968643497931 22.371709536179178 9.0748554273664759 #
loop $-1 $-1 $170 $163 #
plane-surface $-1 0 -24.946791686111272 0 0 1 0 0 0 1 forward_v I I I I #
coedge $-1 $283 $284 $167 $238 forward $164 $-1 #
coedge $-1 $167 $166 $243 $285 reversed $67 $-1 #
edge $-1 $240 -1.2706480821765722 $286 6.067686516762679 $236 $287 forward 7 unknown #
coedge $-1 $173 $168 $284 $288 forward $106 $-1 #
vertex $-1 $288 $289 #
straight-curve $-1 -25.977349606907453 -19.942059589082309 12.037148654233292 -1 0 0 I I #
coedge $-1 $290 $170 $173 $247 reversed $234 $-1 #
coedge $-1 $170 $290 $237 $285 forward $234 $-1 #
vertex $-1 $171 $291 #
straight-curve $-1 -44.041848758755634 -24.946791686111268 44.164685375009192 0 0 1 I I #
straight-curve $-1 -44.041848758755634 -24.946791686111283 6.6702304209305794 0 -0.68199835119979291 -0.73135370988377701 I I #
edge $-1 $292 -59.867549668874176 $174 -44.041848758755634 $242 $293 forward 7 unknown #
point $-1 -44.041848758755634 -24.946791686111272 12.037148654233292 #
point $-1 -44.041848758755634 -19.942059589082309 12.037148654233292 #
edge $-1 $294 1 $294 0 $177 $-1 forward 7 unknown #
vertex $-1 $178 $295 #
ellipse-curve $-1 -51.954699213814905 -20.032444895333668 7.1044811625939861 0 -0.73135370988377701 0.68199835119979291 1.5 0 0 1 I I #
point $-1 -50.454699213814905 -22.444425637596783 9.3536895375819338 #
plane-surface $-1 59.867549668874176 0 0 -1 0 0 0 0 1 forward_v I I I I #
coedge $-1 $186 $184 $188 $259 reversed $121 $-1 #
edge $-1 $199 -12.037148654233292 $261 12.037148654233292 $198 $296 forward 7 unknown #
vertex $-1 $259 $297 #
straight-curve $-1 -59.867549668874176 -24.946791686111272 0 0 0 -1 I I #
edge $-1 $257 -24.946791686111272 $261 24.946791686111272 $255 $298 forward 7 unknown #
straight-curve $-1 0 -24.946791686111272 -12.037148654233292 -1 0 0 I I #
vertex $-1 $191 $299 #
straight-curve $-1 0 24.946791686111272 -12.037148654233292 1 0 0 I I #
point $-1 59.867549668874176 24.946791686111272 -12.037148654233292 #
point $-1 59.867549668874176 -24.946791686111272 -12.037148654233292 #
straight-curve $-1 -59.867549668874176 0 12.037148654233292 0 -1 0 I I #
point $-1 -59.867549668874176 24.946791686111272 12.037148654233292 #
point $-1 -59.867549668874176 -24.946791686111272 12.037148654233292 #
straight-curve $-1 59.867549668874176 -24.946791686111272 0 0 0 -1 I I #
straight-curve $-1 59.867549668874176 24.946791686111272 0 0 0 -1 I I #
edge $-1 $271 49.123361267090324 $274 55.047947720823942 $209 $300 forward 7 unknown #
vertex $-1 $223 $301 #
straight-curve $-1 -8.4996927188975313 41.289441926681427 12.037148654233292 0 1 0 I I #
edge $-1 $274 0.66997992542341578 $220 14.989445661524815 $219 $302 forward 7 unknown #
vertex $-1 $273 $303 #
straight-curve $-1 -8.4996927188975313 -7.7863436981947416 43.767727976706425 0 -0.65605901945558964 0.75470958851134928 I I #
point $-1 -8.4996927188975313 19.796627386247081 12.037148654233288 #
point $-1 -22.819158454998931 24.946791686111268 6.1125622004996742 #
straight-curve $-1 0 24.946791686111272 12.037148654233292 -1 0 0 I I #
vertex $-1 $226 $304 #
point $-1 -17.227882530398531 18.269958392795612 5.509257647580748 #
vertex $-1 $230 $305 #
point $-1 -11.090968643497931 18.269958392795612 5.509257647580748 #
coedge $-1 $284 $236 $290 $306 reversed $164 $-1 #
coedge $-1 $236 $283 $239 $288 reversed $164 $-1 #
edge $-1 $286 -33.890200061966723 $244 -18.064499151848182 $243 $307 forward 7 unknown #
vertex $-1 $238 $308 #
straight-curve $-1 -59.867549668874176 -20.808639486081908 11.107855465376748 0 -0.68199835119979291 -0.73135370988377701 I I #
edge $-1 $240 19.942059589082309 $292 24.946791686111272 $284 $309 forward 7 unknown #
point $-1 -59.867549668874176 -19.942059589082309 12.037148654233292 #
coedge $-1 $243 $242 $283 $306 forward $234 $-1 #
point $-1 -44.041848758755634 -24.946791686111272 6.6702304209305909 #
vertex $-1 $288 $310 #
straight-curve $-1 0 -24.946791686111272 12.037148654233292 1 0 0 I I #
vertex $-1 $250 $311 #
point $-1 -50.454699213814905 -20.032444895333668 7.1044811625939861 #
straight-curve $-1 -59.867549668874176 24.946791686111272 0 0 0 -1 I I #
point $-1 -59.867549668874176 -24.946791686111272 -12.037148654233292 #
straight-curve $-1 -59.867549668874176 0 -12.037148654233292 0 1 0 I I #
point $-1 -59.867549668874176 24.946791686111272 -12.037148654233292 #
straight-curve $-1 -8.4996927188975313 24.946791686111272 61.160509921323616 0 0 -1 I I #
point $-1 -8.4996927188975313 24.946791686111272 12.037148654233292 #
straight-curve $-1 -7.8297127934741155 24.946791686111276 6.1125622004996742 -1 0 0 I I #
point $-1 -8.4996927188975313 24.946791686111268 6.1125622004996742 #
point $-1 -18.727882530398531 17.137894010028585 4.525169118397363 #
point $-1 -12.590968643497931 17.137894010028585 4.525169118397363 #
edge $-1 $292 -12.037148654233292 $286 -6.6702304209305909 $283 $312 forward 7 unknown #
straight-curve $-1 -25.977349606907453 -24.946791686111272 6.6702304209305883 1 0 0 I I #
point $-1 -59.867549668874176 -24.946791686111272 6.6702304209305909 #
straight-curve $-1 -59.867549668874176 0 12.037148654233292 0 -1 0 I I #
point $-1 -59.867549668874176 -24.946791686111272 12.037148654233292 #
point $-1 -51.954699213814905 -18.935414330508003 6.0814836357942976 #
straight-curve $-1 -59.867549668874176 -24.946791686111272 0 0 0 -1 I I #
End-of-ACIS-data 