500 0 8 0           
7 Unknown 11 ACIS 5.0 NT 24 Thu Mar 25 21:52:48 1999 
-1 9.9999999999999995e-007 1e-010 
body $-1 $8 $-1 $9 #
body $-1 $10 $-1 $11 #
body $-1 $12 $-1 $13 #
body $-1 $14 $-1 $15 #
body $-1 $16 $-1 $17 #
body $-1 $18 $-1 $19 #
body $-1 $20 $-1 $21 #
body $-1 $22 $-1 $23 #
lump $-1 $-1 $24 $0 #
transform $-1 1 0 0 0 1 0 0 0 1 44.745017853328044 30.064659125577467 6.4701363187302663 1 rotate no_reflect no_shear #
lump $-1 $-1 $25 $1 #
transform $-1 1 0 0 0 1 0 0 0 1 44.745017853328044 30.064659125577467 6.4701363187302663 1 rotate no_reflect no_shear #
lump $-1 $-1 $26 $2 #
transform $-1 1 0 0 0 1 0 0 0 1 44.745017853328044 30.064659125577467 6.4701363187302663 1 rotate no_reflect no_shear #
lump $-1 $-1 $27 $3 #
transform $-1 1 0 0 0 1 0 0 0 1 44.745017853328044 30.064659125577467 6.4701363187302663 1 rotate no_reflect no_shear #
lump $-1 $-1 $28 $4 #
transform $-1 1 0 0 0 1 0 0 0 1 44.745017853328044 30.064659125577467 6.4701363187302663 1 rotate no_reflect no_shear #
lump $-1 $-1 $29 $5 #
transform $-1 1 0 0 0 1 0 0 0 1 44.745017853328044 30.064659125577467 6.4701363187302663 1 rotate no_reflect no_shear #
lump $-1 $-1 $30 $6 #
transform $-1 1 0 0 0 1 0 0 0 1 44.745017853328044 30.064659125577467 6.4701363187302663 1 rotate no_reflect no_shear #
lump $-1 $-1 $31 $7 #
transform $-1 1 0 0 0 1 0 0 0 1 44.745017853328044 30.064659125577467 6.4701363187302663 1 rotate no_reflect no_shear #
shell $-1 $-1 $-1 $32 $-1 $8 #
shell $-1 $-1 $-1 $33 $-1 $10 #
shell $-1 $-1 $-1 $34 $-1 $12 #
shell $-1 $-1 $-1 $35 $-1 $14 #
shell $-1 $-1 $-1 $36 $-1 $16 #
shell $-1 $-1 $-1 $37 $-1 $18 #
shell $-1 $-1 $-1 $38 $-1 $20 #
shell $-1 $-1 $-1 $39 $-1 $22 #
face $-1 $40 $41 $24 $-1 $42 forward single #
face $-1 $43 $44 $25 $-1 $45 reversed single #
face $-1 $46 $47 $26 $-1 $48 reversed single #
face $-1 $49 $50 $27 $-1 $51 forward single #
face $-1 $52 $53 $28 $-1 $54 reversed single #
face $-1 $55 $56 $29 $-1 $57 forward single #
face $-1 $58 $59 $30 $-1 $60 reversed single #
face $-1 $61 $62 $31 $-1 $63 forward single #
face $-1 $64 $65 $24 $-1 $66 reversed single #
loop $-1 $-1 $67 $32 #
plane-surface $-1 0 0 6.4701363187302663 0 0 1 1 0 0 forward_v I I I I #
face $-1 $68 $69 $25 $-1 $70 reversed single #
loop $-1 $-1 $71 $33 #
plane-surface $-1 0 -26.680760257037964 3.4701363187302663 0 0 1 1 0 0 forward_v I I I I #
face $-1 $72 $73 $26 $-1 $74 reversed single #
loop $-1 $-1 $75 $34 #
plane-surface $-1 73.214380225545966 -11.983066664690554 126.38109817149017 0 -1 0 -0.84804810408105047 0 -0.52991925155115449 forward_v I I I I #
face $-1 $76 $77 $27 $-1 $78 forward single #
loop $-1 $79 $80 $35 #
cone-surface $-1 43.257658032934486 -17.639964026594509 4.5034836902683848 -0.84804810408105047 0 -0.52991925155115449 0.13247981288778862 0 -0.21201202602026262 1 I I 0 1 0.25 forward I I I I #
face $-1 $81 $82 $28 $-1 $83 reversed single #
loop $-1 $-1 $84 $36 #
plane-surface $-1 -116.21493890002438 -14.228178096154483 56.096303592894657 0 1 0 -0.79863551827123203 0 0.60181501223851219 forward_v I I I I #
face $-1 $85 $86 $29 $-1 $87 forward single #
loop $-1 $88 $89 $37 #
cone-surface $-1 -41.801493852964811 -10.125004111874819 3.3379608921563895 0.79863551827123203 0 -0.60181501223851219 0.60181501223851219 0 0.79863551827123203 1 I I 0 1 1 forward I I I I #
face $-1 $90 $91 $30 $-1 $92 reversed single #
loop $-1 $-1 $93 $38 #
plane-surface $-1 -116.21493890002438 12.452582160883477 56.096303592894657 0 1 0 -0.79863551827123203 0 0.60181501223851219 forward_v I I I I #
face $-1 $94 $95 $31 $-1 $96 forward single #
loop $-1 $97 $98 $39 #
cone-surface $-1 -41.801493852964811 16.555756145163141 3.3379608921563895 0.79863551827123203 0 -0.60181501223851219 0.60181501223851219 0 0.79863551827123203 1 I I 0 1 1 forward I I I I #
face $-1 $99 $100 $24 $-1 $101 reversed single #
loop $-1 $-1 $102 $40 #
plane-surface $-1 0 0 -6.4701363187302663 0 0 1 1 0 0 forward_v I I I I #
coedge $-1 $103 $104 $105 $106 forward $41 $-1 #
face $-1 $107 $108 $25 $-1 $109 reversed single #
loop $-1 $-1 $110 $43 #
plane-surface $-1 0 -23.29686138849846 4.9701363187302663 0 -1 0 0 0 -1 forward_v I I I I #
coedge $-1 $111 $112 $113 $114 reversed $44 $-1 #
face $-1 $115 $116 $26 $-1 $117 forward single #
loop $-1 $-1 $118 $46 #
plane-surface $-1 -2.677474889629238 -17.639964026594509 78.958605428532877 0.84804810408105047 0 0.52991925155115449 0.52991925155115449 0 -0.84804810408105047 forward_v I I I I #
coedge $-1 $119 $120 $121 $122 reversed $47 $-1 #
face $-1 $-1 $123 $27 $-1 $124 forward single #
loop $-1 $125 $126 $49 #
cone-surface $-1 42.727627967883826 -17.639964026594509 4.1722841580489129 -0.84804810408105047 0 -0.52991925155115449 0.066239906443894311 0 -0.10600601301013131 1 I I -0.70710678118654746 0.70710678118654746 0.125 forward I I I I #
loop $-1 $-1 $127 $35 #
coedge $-1 $80 $80 $128 $129 reversed $50 $-1 #
face $-1 $130 $131 $28 $-1 $132 reversed single #
loop $-1 $-1 $133 $52 #
plane-surface $-1 -44.745017853328036 -10.125004111874819 2.2398566588685327 -0.79863551827123203 0 0.60181501223851219 0.60181501223851219 0 0.79863551827123203 forward_v I I I I #
coedge $-1 $134 $135 $136 $137 reversed $53 $-1 #
face $-1 $-1 $138 $29 $-1 $139 forward single #
loop $-1 $140 $141 $55 #
cone-surface $-1 -40.052524233527357 -10.125004111874819 2.0200177893941236 0.79863551827123203 0 -0.60181501223851219 0.3009075061192561 0 0.39931775913561601 1 I I -0.70710678118654746 0.70710678118654746 0.5 forward I I I I #
loop $-1 $-1 $142 $37 #
coedge $-1 $89 $89 $143 $144 reversed $56 $-1 #
face $-1 $145 $146 $30 $-1 $147 reversed single #
loop $-1 $-1 $148 $58 #
plane-surface $-1 -44.745017853328036 16.555756145163141 2.2398566588685327 -0.79863551827123203 0 0.60181501223851219 0.60181501223851219 0 0.79863551827123203 forward_v I I I I #
coedge $-1 $149 $150 $151 $152 reversed $59 $-1 #
face $-1 $-1 $153 $31 $-1 $154 forward single #
loop $-1 $155 $156 $61 #
cone-surface $-1 -40.052524233527357 16.555756145163141 2.0200177893941236 0.79863551827123203 0 -0.60181501223851219 0.3009075061192561 0 0.39931775913561601 1 I I -0.70710678118654746 0.70710678118654746 0.5 forward I I I I #
loop $-1 $-1 $157 $39 #
coedge $-1 $98 $98 $158 $159 reversed $62 $-1 #
face $-1 $160 $161 $24 $-1 $162 reversed single #
loop $-1 $-1 $163 $64 #
plane-surface $-1 0 -30.064659125577467 0 0 1 0 0 0 1 forward_v I I I I #
coedge $-1 $164 $165 $166 $167 forward $65 $-1 #
coedge $-1 $168 $67 $169 $170 forward $41 $-1 #
coedge $-1 $67 $168 $171 $172 forward $41 $-1 #
coedge $-1 $173 $174 $67 $106 reversed $175 $-1 #
edge $-1 $176 -30.064659125577467 $177 30.064659125577467 $105 $178 forward 7 unknown #
face $-1 $179 $180 $25 $-1 $181 reversed single #
loop $-1 $-1 $182 $68 #
plane-surface $-1 -44.745017853328044 0 0 1 0 0 0 0 -1 forward_v I I I I #
coedge $-1 $183 $184 $185 $186 reversed $69 $-1 #
coedge $-1 $187 $71 $188 $189 reversed $44 $-1 #
coedge $-1 $71 $187 $183 $190 forward $44 $-1 #
coedge $-1 $185 $191 $71 $114 forward $192 $-1 #
edge $-1 $193 -16.724278997058484 $194 -9.9564812599794781 $113 $195 forward 7 unknown #
face $-1 $196 $197 $26 $-1 $198 forward single #
loop $-1 $-1 $199 $72 #
plane-surface $-1 0 -23.29686138849846 4.9701363187302663 0 -1 0 0 0 -1 forward_v I I I I #
coedge $-1 $200 $201 $202 $203 reversed $73 $-1 #
coedge $-1 $120 $75 $204 $205 reversed $47 $-1 #
coedge $-1 $75 $119 $200 $206 reversed $47 $-1 #
coedge $-1 $202 $207 $75 $122 forward $197 $-1 #
edge $-1 $208 -8.1378277405550605 $209 -6.0111562038489907 $121 $210 forward 7 unknown #
loop $-1 $-1 $128 $76 #
plane-surface $-1 -2.677474889629238 -17.639964026594509 78.958605428532877 0.84804810408105047 0 0.52991925155115449 0.52991925155115449 0 -0.84804810408105047 forward_v I I I I #
loop $-1 $-1 $211 $49 #
coedge $-1 $126 $126 $127 $212 reversed $77 $-1 #
coedge $-1 $127 $127 $126 $212 forward $79 $-1 #
coedge $-1 $128 $128 $80 $129 forward $123 $-1 #
edge $-1 $213 0 $213 6.2831853071796004 $128 $214 forward 7 unknown #
face $-1 $215 $216 $28 $-1 $217 forward single #
loop $-1 $-1 $218 $81 #
plane-surface $-1 -116.21493890002438 -6.0218301275951562 56.096303592894657 0 -1 0 0.79863551827123203 0 -0.60181501223851219 forward_v I I I I #
coedge $-1 $219 $220 $221 $222 reversed $82 $-1 #
coedge $-1 $135 $84 $223 $224 reversed $53 $-1 #
coedge $-1 $84 $134 $219 $225 reversed $53 $-1 #
coedge $-1 $221 $226 $84 $137 forward $216 $-1 #
edge $-1 $227 13.362451596684146 $228 16.550195876806939 $136 $229 forward 7 unknown #
loop $-1 $-1 $143 $85 #
plane-surface $-1 -44.745017853328036 -10.125004111874819 2.2398566588685327 -0.79863551827123203 0 0.60181501223851219 0.60181501223851219 0 0.79863551827123203 forward_v I I I I #
loop $-1 $-1 $230 $55 #
coedge $-1 $141 $141 $142 $231 reversed $86 $-1 #
coedge $-1 $142 $142 $141 $231 forward $88 $-1 #
coedge $-1 $143 $143 $89 $144 forward $138 $-1 #
edge $-1 $232 0 $232 6.2831853071796004 $143 $233 forward 7 unknown #
face $-1 $234 $235 $30 $-1 $236 forward single #
loop $-1 $-1 $237 $90 #
plane-surface $-1 -116.21493890002438 20.658930129442805 56.096303592894657 0 -1 0 0.79863551827123203 0 -0.60181501223851219 forward_v I I I I #
coedge $-1 $238 $239 $240 $241 reversed $91 $-1 #
coedge $-1 $150 $93 $242 $243 reversed $59 $-1 #
coedge $-1 $93 $149 $238 $244 reversed $59 $-1 #
coedge $-1 $240 $245 $93 $152 forward $235 $-1 #
edge $-1 $246 13.362451596684146 $247 16.550195876806939 $151 $248 forward 7 unknown #
loop $-1 $-1 $158 $94 #
plane-surface $-1 -44.745017853328036 16.555756145163141 2.2398566588685327 -0.79863551827123203 0 0.60181501223851219 0.60181501223851219 0 0.79863551827123203 forward_v I I I I #
loop $-1 $-1 $249 $61 #
coedge $-1 $156 $156 $157 $250 reversed $95 $-1 #
coedge $-1 $157 $157 $156 $250 forward $97 $-1 #
coedge $-1 $158 $158 $98 $159 forward $153 $-1 #
edge $-1 $251 0 $251 6.2831853071796004 $158 $252 forward 7 unknown #
face $-1 $253 $254 $24 $-1 $255 reversed single #
loop $-1 $-1 $256 $99 #
plane-surface $-1 -44.745017853328044 0 0 1 0 0 0 0 -1 forward_v I I I I #
coedge $-1 $257 $171 $258 $259 forward $100 $-1 #
coedge $-1 $260 $102 $257 $261 forward $65 $-1 #
coedge $-1 $102 $260 $262 $263 forward $65 $-1 #
coedge $-1 $174 $173 $102 $167 reversed $175 $-1 #
edge $-1 $264 -30.064659125577467 $265 30.064659125577467 $166 $266 forward 7 unknown #
coedge $-1 $104 $103 $267 $268 forward $41 $-1 #
coedge $-1 $269 $270 $103 $170 reversed $254 $-1 #
edge $-1 $177 -44.745017853328044 $271 44.745017853328044 $169 $272 forward 7 unknown #
coedge $-1 $163 $273 $104 $172 reversed $100 $-1 #
edge $-1 $274 -44.745017853328044 $176 44.745017853328044 $171 $275 forward 7 unknown #
coedge $-1 $166 $105 $273 $276 forward $175 $-1 #
coedge $-1 $105 $166 $269 $277 reversed $175 $-1 #
loop $-1 $-1 $173 $253 #
vertex $-1 $106 $278 #
vertex $-1 $106 $279 #
straight-curve $-1 44.745017853328044 0 6.4701363187302663 0 1 0 I I #
face $-1 $280 $281 $25 $-1 $282 forward single #
loop $-1 $-1 $188 $107 #
plane-surface $-1 0 -30.064659125577467 0 0 1 0 0 0 1 forward_v I I I I #
coedge $-1 $283 $284 $285 $286 forward $108 $-1 #
coedge $-1 $285 $110 $112 $190 reversed $69 $-1 #
coedge $-1 $110 $285 $287 $288 reversed $69 $-1 #
coedge $-1 $289 $113 $110 $186 forward $192 $-1 #
edge $-1 $194 0.98506815936513314 $290 3.9850681593651331 $185 $291 forward 7 unknown #
coedge $-1 $112 $111 $283 $292 reversed $44 $-1 #
coedge $-1 $293 $294 $111 $189 forward $180 $-1 #
edge $-1 $295 -44.745017853328044 $193 44.745017853328044 $188 $296 forward 7 unknown #
edge $-1 $297 -44.745017853328044 $194 44.745017853328044 $183 $298 forward 7 unknown #
coedge $-1 $113 $289 $293 $299 forward $192 $-1 #
loop $-1 $-1 $185 $280 #
vertex $-1 $189 $300 #
vertex $-1 $114 $301 #
straight-curve $-1 44.745017853328044 -13.340380128518982 3.4701363187302663 0 1 0 I I #
face $-1 $-1 $302 $26 $-1 $303 reversed single #
loop $-1 $-1 $202 $115 #
plane-surface $-1 0 0 6.4701363187302663 0 0 1 1 0 0 forward_v I I I I #
coedge $-1 $304 $305 $201 $306 reversed $116 $-1 #
coedge $-1 $307 $118 $120 $206 forward $73 $-1 #
coedge $-1 $118 $307 $199 $306 forward $73 $-1 #
coedge $-1 $308 $121 $118 $203 forward $197 $-1 #
edge $-1 $209 3.1630846513932998 $309 14.476879375201205 $202 $310 forward 7 unknown #
coedge $-1 $311 $312 $119 $205 forward $302 $-1 #
edge $-1 $313 -60.12379877238741 $208 -56.720412767014814 $204 $314 forward 7 unknown #
edge $-1 $209 85.476836468317444 $313 89.490035706656087 $120 $315 forward 7 unknown #
coedge $-1 $121 $308 $311 $316 forward $197 $-1 #
vertex $-1 $205 $317 #
vertex $-1 $122 $318 #
straight-curve $-1 36.607190112772983 -11.983066664690554 6.470136318730269 -1 0 0 I I #
coedge $-1 $211 $211 $-1 $319 reversed $125 $-1 #
edge $-1 $320 0 $320 6.2831853071796004 $126 $321 forward 7 unknown #
vertex $-1 $129 $322 #
ellipse-curve $-1 43.681682084975016 -17.639964026594509 4.7684433160439657 0.84804810408105047 0 0.52991925155115449 0.13247981288778862 0 -0.21201202602026262 1 I I #
face $-1 $-1 $323 $28 $-1 $324 reversed single #
loop $-1 $-1 $136 $130 #
plane-surface $-1 0 0 6.4701363187302663 0 0 1 1 0 0 forward_v I I I I #
coedge $-1 $325 $326 $327 $328 reversed $131 $-1 #
coedge $-1 $329 $133 $135 $225 forward $82 $-1 #
coedge $-1 $133 $329 $325 $330 forward $82 $-1 #
coedge $-1 $327 $136 $133 $222 forward $216 $-1 #
edge $-1 $228 -9.1656760402170736 $331 -0.95932807165774658 $221 $332 forward 7 unknown #
coedge $-1 $333 $334 $134 $224 forward $323 $-1 #
edge $-1 $335 -25.808295137578806 $227 -21.578015477717063 $223 $336 forward 7 unknown #
edge $-1 $228 -5.2968839515412682 $335 1.1724126593787106e-014 $135 $337 forward 7 unknown #
coedge $-1 $136 $327 $333 $338 forward $216 $-1 #
vertex $-1 $224 $339 #
vertex $-1 $137 $340 #
straight-curve $-1 -58.107469450012189 -14.228178096154483 6.4701363187302654 1 0 0 I I #
coedge $-1 $230 $230 $-1 $341 reversed $140 $-1 #
edge $-1 $342 0 $342 6.2831853071796004 $141 $343 forward 7 unknown #
vertex $-1 $144 $344 #
ellipse-curve $-1 -43.151145713266644 -10.125004111874819 4.3549964887993955 -0.79863551827123203 0 0.60181501223851219 0.60181501223851219 0 0.79863551827123203 1 I I #
face $-1 $-1 $345 $30 $-1 $346 reversed single #
loop $-1 $-1 $151 $145 #
plane-surface $-1 0 0 6.4701363187302663 0 0 1 1 0 0 forward_v I I I I #
coedge $-1 $347 $348 $349 $350 reversed $146 $-1 #
coedge $-1 $351 $148 $150 $244 forward $91 $-1 #
coedge $-1 $148 $351 $347 $352 forward $91 $-1 #
coedge $-1 $349 $151 $148 $241 forward $235 $-1 #
edge $-1 $247 4.1747040883019064 $353 12.381052056861234 $240 $354 forward 7 unknown #
coedge $-1 $355 $356 $149 $243 forward $345 $-1 #
edge $-1 $357 -25.808295137578806 $246 -21.578015477717063 $242 $358 forward 7 unknown #
edge $-1 $247 -5.2968839515412682 $357 1.1724126593787106e-014 $150 $359 forward 7 unknown #
coedge $-1 $151 $349 $355 $360 forward $235 $-1 #
vertex $-1 $152 $361 #
vertex $-1 $152 $362 #
straight-curve $-1 -58.107469450012189 12.452582160883477 6.4701363187302654 1 0 0 I I #
coedge $-1 $249 $249 $-1 $363 reversed $155 $-1 #
edge $-1 $364 0 $364 6.2831853071796004 $156 $365 forward 7 unknown #
vertex $-1 $159 $366 #
ellipse-curve $-1 -43.151145713266644 16.555756145163141 4.3549964887993955 -0.79863551827123203 0 0.60181501223851219 0.60181501223851219 0 0.79863551827123203 1 I I #
face $-1 $-1 $175 $24 $-1 $367 reversed single #
loop $-1 $-1 $269 $160 #
plane-surface $-1 0 30.064659125577467 0 0 -1 0 0 0 -1 forward_v I I I I #
coedge $-1 $368 $267 $270 $369 forward $161 $-1 #
coedge $-1 $273 $163 $164 $261 reversed $100 $-1 #
coedge $-1 $267 $368 $163 $259 reversed $161 $-1 #
edge $-1 $274 -6.4701363187302663 $370 6.4701363187302663 $258 $371 forward 7 unknown #
coedge $-1 $165 $164 $368 $372 forward $65 $-1 #
edge $-1 $265 -44.745017853328044 $370 44.745017853328044 $257 $373 forward 7 unknown #
coedge $-1 $270 $269 $165 $263 reversed $254 $-1 #
edge $-1 $374 -44.745017853328044 $264 44.745017853328044 $262 $375 forward 7 unknown #
vertex $-1 $167 $376 #
vertex $-1 $276 $377 #
straight-curve $-1 44.745017853328044 0 -6.4701363187302663 0 -1 0 I I #
coedge $-1 $256 $258 $168 $268 reversed $161 $-1 #
edge $-1 $271 -30.064659125577467 $274 30.064659125577467 $267 $378 forward 7 unknown #
coedge $-1 $262 $169 $174 $277 forward $254 $-1 #
coedge $-1 $169 $262 $256 $369 reversed $254 $-1 #
vertex $-1 $170 $379 #
straight-curve $-1 0 30.064659125577467 6.4701363187302663 -1 0 0 I I #
coedge $-1 $171 $257 $173 $276 reversed $100 $-1 #
vertex $-1 $268 $380 #
straight-curve $-1 0 -30.064659125577467 6.4701363187302663 1 0 0 I I #
edge $-1 $176 -6.4701363187302663 $265 6.4701363187302663 $173 $381 forward 7 unknown #
edge $-1 $177 -6.4701363187302663 $264 6.4701363187302663 $174 $382 forward 7 unknown #
point $-1 44.745017853328044 -30.064659125577467 6.4701363187302663 #
point $-1 44.745017853328044 30.064659125577467 6.4701363187302663 #
face $-1 $-1 $192 $25 $-1 $383 reversed single #
loop $-1 $-1 $287 $179 #
plane-surface $-1 0 0 6.4701363187302663 0 0 1 1 0 0 forward_v I I I I #
coedge $-1 $384 $182 $187 $292 forward $108 $-1 #
coedge $-1 $182 $384 $385 $386 reversed $108 $-1 #
coedge $-1 $184 $183 $182 $286 reversed $69 $-1 #
edge $-1 $387 -3.9850681593651331 $297 -0.98506815936513314 $182 $388 forward 7 unknown #
coedge $-1 $385 $389 $184 $288 forward $281 $-1 #
edge $-1 $290 -44.745017853328044 $387 44.745017853328044 $287 $390 forward 7 unknown #
coedge $-1 $191 $185 $389 $391 reversed $192 $-1 #
vertex $-1 $186 $392 #
straight-curve $-1 44.745017853328044 -23.29686138849846 2.4850681593651331 0 0 1 I I #
edge $-1 $297 9.9564812599794781 $295 16.724278997058484 $283 $393 forward 7 unknown #
coedge $-1 $394 $188 $191 $299 reversed $180 $-1 #
coedge $-1 $188 $394 $384 $395 forward $180 $-1 #
vertex $-1 $189 $396 #
straight-curve $-1 0 -30.064659125577467 3.4701363187302663 1 0 0 I I #
vertex $-1 $292 $397 #
straight-curve $-1 0 -23.29686138849846 3.4701363187302663 1 0 0 I I #
edge $-1 $398 -6.4701363187302663 $193 -3.4701363187302663 $191 $399 forward 7 unknown #
point $-1 44.745017853328044 -30.064659125577467 3.4701363187302663 #
point $-1 44.745017853328044 -23.29686138849846 3.4701363187302663 #
loop $-1 $-1 $204 $196 #
plane-surface $-1 44.745017853328044 0 0 -1 0 0 0 0 1 forward_v I I I I #
coedge $-1 $305 $199 $400 $401 reversed $116 $-1 #
coedge $-1 $199 $304 $308 $402 reversed $116 $-1 #
edge $-1 $403 -89.490035706656087 $309 -85.476836468317444 $199 $404 forward 7 unknown #
coedge $-1 $201 $200 $312 $405 reversed $73 $-1 #
coedge $-1 $207 $202 $305 $402 forward $197 $-1 #
vertex $-1 $402 $406 #
straight-curve $-1 42.618346316621974 -8.8199820132972544 6.4701363187302618 0 -1 0 I I #
coedge $-1 $400 $204 $207 $316 reversed $302 $-1 #
coedge $-1 $204 $400 $307 $405 forward $302 $-1 #
vertex $-1 $205 $407 #
straight-curve $-1 44.745017853328044 -11.983066664690554 63.190549085745083 0 0 1 I I #
straight-curve $-1 -2.677474889629238 -11.983066664690554 78.958605428532877 0.52991925155115449 0 -0.84804810408105047 I I #
edge $-1 $408 -23.29686138849846 $208 -11.983066664690554 $311 $409 forward 7 unknown #
point $-1 44.745017853328044 -11.983066664690554 6.4701363187302663 #
point $-1 42.618346316621974 -11.983066664690554 6.470136318730269 #
edge $-1 $410 1 $410 0 $211 $-1 forward 7 unknown #
vertex $-1 $212 $411 #
ellipse-curve $-1 42.833633980893957 -17.639964026594509 4.2385240644928075 0.84804810408105047 0 0.52991925155115449 0.13247981288778862 0 -0.21201202602026262 1 I I #
point $-1 43.814161897862796 -17.639964026594509 4.5564312900236992 #
loop $-1 $-1 $223 $215 #
plane-surface $-1 -44.745017853328044 0 0 1 0 0 0 0 -1 forward_v I I I I #
coedge $-1 $326 $218 $220 $330 reversed $131 $-1 #
coedge $-1 $218 $325 $412 $413 reversed $131 $-1 #
coedge $-1 $226 $221 $218 $328 forward $216 $-1 #
edge $-1 $331 -16.550195876806939 $414 -13.362451596684146 $327 $415 forward 7 unknown #
coedge $-1 $220 $219 $334 $416 reversed $82 $-1 #
edge $-1 $417 -1.1724126593787106e-014 $331 5.2968839515412682 $325 $418 forward 7 unknown #
vertex $-1 $222 $419 #
straight-curve $-1 -41.557273573205251 -5.0625020559374097 6.4701363187302663 0 1 0 I I #
coedge $-1 $412 $223 $226 $338 reversed $323 $-1 #
coedge $-1 $223 $412 $329 $416 forward $323 $-1 #
vertex $-1 $224 $420 #
straight-curve $-1 -44.745017853328044 -14.228178096154483 28.048151796447328 0 0 1 I I #
straight-curve $-1 -44.745017853328036 -14.228178096154483 2.2398566588685327 -0.60181501223851219 0 -0.79863551827123203 I I #
edge $-1 $414 6.0218301275951562 $227 14.228178096154483 $333 $421 forward 7 unknown #
point $-1 -44.745017853328044 -14.228178096154483 6.4701363187302663 #
point $-1 -41.557273573205251 -14.228178096154483 6.4701363187302663 #
edge $-1 $422 1 $422 0 $230 $-1 forward 7 unknown #
vertex $-1 $231 $423 #
ellipse-curve $-1 -40.45184199266297 -10.125004111874819 2.3209252955133799 -0.79863551827123203 0 0.60181501223851219 0.60181501223851219 0 0.79863551827123203 1 I I #
point $-1 -42.54933070102814 -10.125004111874819 5.1536320070706303 #
loop $-1 $-1 $242 $234 #
plane-surface $-1 -44.745017853328044 0 0 1 0 0 0 0 -1 forward_v I I I I #
coedge $-1 $348 $237 $239 $352 reversed $146 $-1 #
coedge $-1 $237 $347 $424 $425 reversed $146 $-1 #
coedge $-1 $245 $240 $237 $350 forward $235 $-1 #
edge $-1 $353 -16.550195876806939 $426 -13.362451596684146 $349 $427 forward 7 unknown #
coedge $-1 $239 $238 $356 $428 reversed $91 $-1 #
edge $-1 $429 -1.1724126593787106e-014 $353 5.2968839515412682 $347 $430 forward 7 unknown #
vertex $-1 $241 $431 #
straight-curve $-1 -41.557273573205251 8.2778780725815704 6.4701363187302663 0 1 0 I I #
coedge $-1 $424 $242 $245 $360 reversed $345 $-1 #
coedge $-1 $242 $424 $351 $428 forward $345 $-1 #
vertex $-1 $243 $432 #
straight-curve $-1 -44.745017853328044 12.452582160883477 28.048151796447328 0 0 1 I I #
straight-curve $-1 -44.745017853328036 12.452582160883477 2.2398566588685327 -0.60181501223851219 0 -0.79863551827123203 I I #
edge $-1 $426 -20.658930129442805 $246 -12.452582160883477 $355 $433 forward 7 unknown #
point $-1 -44.745017853328044 12.452582160883477 6.4701363187302663 #
point $-1 -41.557273573205251 12.452582160883477 6.4701363187302663 #
edge $-1 $434 1 $434 0 $249 $-1 forward 7 unknown #
vertex $-1 $250 $435 #
ellipse-curve $-1 -40.45184199266297 16.555756145163141 2.3209252955133799 -0.79863551827123203 0 0.60181501223851219 0.60181501223851219 0 0.79863551827123203 1 I I #
point $-1 -42.54933070102814 16.555756145163141 5.1536320070706303 #
plane-surface $-1 44.745017853328044 0 0 -1 0 0 0 0 1 forward_v I I I I #
coedge $-1 $258 $256 $260 $372 reversed $161 $-1 #
edge $-1 $271 -6.4701363187302663 $374 6.4701363187302663 $270 $436 forward 7 unknown #
vertex $-1 $372 $437 #
straight-curve $-1 -44.745017853328044 -30.064659125577467 0 0 0 -1 I I #
edge $-1 $370 -30.064659125577467 $374 30.064659125577467 $368 $438 forward 7 unknown #
straight-curve $-1 0 -30.064659125577467 -6.4701363187302663 -1 0 0 I I #
vertex $-1 $263 $439 #
straight-curve $-1 0 30.064659125577467 -6.4701363187302663 1 0 0 I I #
point $-1 44.745017853328044 30.064659125577467 -6.4701363187302663 #
point $-1 44.745017853328044 -30.064659125577467 -6.4701363187302663 #
straight-curve $-1 -44.745017853328044 0 6.4701363187302663 0 -1 0 I I #
point $-1 -44.745017853328044 30.064659125577467 6.4701363187302663 #
point $-1 -44.745017853328044 -30.064659125577467 6.4701363187302663 #
straight-curve $-1 44.745017853328044 -30.064659125577467 0 0 0 -1 I I #
straight-curve $-1 44.745017853328044 30.064659125577467 0 0 0 -1 I I #
plane-surface $-1 44.745017853328044 0 0 -1 0 0 0 0 1 forward_v I I I I #
coedge $-1 $284 $283 $294 $395 reversed $108 $-1 #
coedge $-1 $440 $287 $284 $386 forward $281 $-1 #
edge $-1 $387 23.29686138849846 $441 30.064659125577467 $284 $442 forward 7 unknown #
vertex $-1 $386 $443 #
straight-curve $-1 -44.745017853328044 -23.29686138849846 2.4850681593651331 0 0 -1 I I #
coedge $-1 $287 $440 $289 $391 forward $281 $-1 #
straight-curve $-1 0 -23.29686138849846 6.4701363187302663 -1 0 0 I I #
edge $-1 $398 -30.064659125577467 $290 -23.29686138849846 $289 $444 forward 7 unknown #
point $-1 44.745017853328044 -23.29686138849846 6.4701363187302663 #
straight-curve $-1 -44.745017853328044 -13.340380128518982 3.4701363187302663 0 -1 0 I I #
coedge $-1 $294 $293 $440 $445 reversed $180 $-1 #
edge $-1 $441 -6.4701363187302663 $295 -3.4701363187302663 $384 $446 forward 7 unknown #
point $-1 -44.745017853328044 -30.064659125577467 3.4701363187302663 #
point $-1 -44.745017853328044 -23.29686138849846 3.4701363187302663 #
vertex $-1 $391 $447 #
straight-curve $-1 44.745017853328044 -30.064659125577467 0 0 0 -1 I I #
coedge $-1 $312 $311 $304 $401 forward $302 $-1 #
edge $-1 $408 56.720412767014814 $403 60.12379877238741 $400 $448 forward 7 unknown #
edge $-1 $309 42.618346316621974 $408 44.745017853328044 $308 $449 forward 7 unknown #
vertex $-1 $401 $450 #
straight-curve $-1 -2.677474889629238 -23.296861388498463 78.958605428532877 -0.52991925155115449 0 0.84804810408105047 I I #
edge $-1 $403 -14.476879375201209 $313 -3.1630846513932998 $312 $451 forward 7 unknown #
point $-1 42.618346316621974 -23.29686138849846 6.4701363187302663 #
point $-1 44.745017853328044 -11.983066664690554 3.066750313357673 #
vertex $-1 $316 $452 #
straight-curve $-1 44.745017853328044 0 6.4701363187302663 0 1 0 I I #
vertex $-1 $319 $453 #
point $-1 42.966113793781744 -17.639964026594509 4.0265120384725446 #
coedge $-1 $334 $333 $326 $413 forward $323 $-1 #
edge $-1 $414 21.578015477717063 $417 25.808295137578806 $412 $454 forward 7 unknown #
vertex $-1 $338 $455 #
straight-curve $-1 -58.107469450012189 -6.0218301275951562 6.4701363187302654 -1 0 0 I I #
edge $-1 $417 0.95932807165774658 $335 9.1656760402170736 $334 $456 forward 7 unknown #
vertex $-1 $416 $457 #
straight-curve $-1 -44.745017853328036 -6.0218301275951562 2.2398566588685327 0.60181501223851219 0 0.79863551827123203 I I #
point $-1 -41.557273573205251 -6.0218301275951562 6.4701363187302663 #
point $-1 -44.745017853328044 -14.228178096154483 2.2398566588685234 #
straight-curve $-1 -44.745017853328044 0 6.4701363187302663 0 -1 0 I I #
vertex $-1 $341 $458 #
point $-1 -39.85002698042446 -10.125004111874819 3.1195608137846116 #
coedge $-1 $356 $355 $348 $425 forward $345 $-1 #
edge $-1 $426 21.578015477717063 $429 25.808295137578806 $424 $459 forward 7 unknown #
vertex $-1 $360 $460 #
straight-curve $-1 -58.107469450012189 20.658930129442805 6.4701363187302654 -1 0 0 I I #
edge $-1 $429 -12.381052056861234 $357 -4.1747040883019064 $356 $461 forward 7 unknown #
vertex $-1 $428 $462 #
straight-curve $-1 -44.745017853328036 20.658930129442805 2.2398566588685327 0.60181501223851219 0 0.79863551827123203 I I #
point $-1 -41.557273573205251 20.658930129442805 6.4701363187302663 #
point $-1 -44.745017853328044 12.452582160883477 2.2398566588685234 #
straight-curve $-1 -44.745017853328044 0 6.4701363187302663 0 -1 0 I I #
vertex $-1 $363 $463 #
point $-1 -39.85002698042446 16.555756145163141 3.1195608137846116 #
straight-curve $-1 -44.745017853328044 30.064659125577467 0 0 0 -1 I I #
point $-1 -44.745017853328044 -30.064659125577467 -6.4701363187302663 #
straight-curve $-1 -44.745017853328044 0 -6.4701363187302663 0 1 0 I I #
point $-1 -44.745017853328044 30.064659125577467 -6.4701363187302663 #
coedge $-1 $389 $385 $394 $445 forward $281 $-1 #
vertex $-1 $386 $464 #
straight-curve $-1 -44.745017853328044 0 6.4701363187302663 0 -1 0 I I #
point $-1 -44.745017853328044 -23.29686138849846 6.4701363187302663 #
straight-curve $-1 44.745017853328044 0 6.4701363187302663 0 1 0 I I #
edge $-1 $441 -44.745017853328044 $398 44.745017853328044 $394 $465 forward 7 unknown #
straight-curve $-1 -44.745017853328044 -30.064659125577467 0 0 0 -1 I I #
point $-1 44.745017853328044 -30.064659125577467 6.4701363187302663 #
straight-curve $-1 44.745017853328044 -23.296861388498463 63.190549085745083 0 0 -1 I I #
straight-curve $-1 0 -23.29686138849846 6.4701363187302663 1 0 0 I I #
point $-1 44.745017853328044 -23.296861388498463 3.066750313357673 #
straight-curve $-1 44.745017853328036 -8.8199820132972544 3.0667503133576872 0 1 0 I I #
point $-1 44.745017853328044 -23.29686138849846 6.4701363187302663 #
point $-1 42.621621954873696 -17.639964026594509 4.1060442516050184 #
straight-curve $-1 -44.745017853328044 -6.0218301275951562 28.048151796447328 0 0 -1 I I #
point $-1 -44.745017853328044 -6.0218301275951562 6.4701363187302663 #
straight-curve $-1 -44.745017853328044 -5.0625020559374097 2.2398566588685171 0 -1 0 I I #
point $-1 -44.745017853328044 -6.0218301275951562 2.2398566588685234 #
point $-1 -39.653206474391745 -10.125004111874819 1.7191102832748675 #
straight-curve $-1 -44.745017853328044 20.658930129442805 28.048151796447328 0 0 -1 I I #
point $-1 -44.745017853328044 20.658930129442805 6.4701363187302663 #
straight-curve $-1 -44.745017853328044 8.2778780725815704 2.2398566588685171 0 -1 0 I I #
point $-1 -44.745017853328044 20.658930129442805 2.2398566588685234 #
point $-1 -39.653206474391745 16.555756145163141 1.7191102832748675 #
point $-1 -44.745017853328044 -30.064659125577467 6.4701363187302663 #
straight-curve $-1 0 -30.064659125577467 6.4701363187302663 1 0 0 I I #
End-of-ACIS-data 