500 0 10 0           
7 Unknown 11 ACIS 5.0 NT 24 Fri Mar 26 03:17:47 1999 
-1 9.9999999999999995e-007 1e-010 
body $-1 $10 $-1 $11 #
body $-1 $12 $-1 $13 #
body $-1 $14 $-1 $15 #
body $-1 $16 $-1 $17 #
body $-1 $18 $-1 $19 #
body $-1 $20 $-1 $21 #
body $-1 $22 $-1 $23 #
body $-1 $24 $-1 $25 #
body $-1 $26 $-1 $27 #
body $-1 $28 $-1 $29 #
lump $-1 $-1 $30 $0 #
transform $-1 1 0 0 0 1 0 0 0 1 44.853663747062598 23.264852227727644 10.605753659220609 1 rotate no_reflect no_shear #
lump $-1 $-1 $31 $1 #
transform $-1 1 0 0 0 1 0 0 0 1 44.853663747062598 23.264852227727644 10.605753659220609 1 rotate no_reflect no_shear #
lump $-1 $-1 $32 $2 #
transform $-1 1 0 0 0 1 0 0 0 1 44.853663747062598 23.264852227727644 10.605753659220609 1 rotate no_reflect no_shear #
lump $-1 $-1 $33 $3 #
transform $-1 1 0 0 0 1 0 0 0 1 44.853663747062598 23.264852227727644 10.605753659220609 1 rotate no_reflect no_shear #
lump $-1 $-1 $34 $4 #
transform $-1 1 0 0 0 1 0 0 0 1 44.853663747062598 23.264852227727644 10.605753659220609 1 rotate no_reflect no_shear #
lump $-1 $-1 $35 $5 #
transform $-1 1 0 0 0 1 0 0 0 1 44.853663747062598 23.264852227727644 10.605753659220609 1 rotate no_reflect no_shear #
lump $-1 $-1 $36 $6 #
transform $-1 1 0 0 0 1 0 0 0 1 44.853663747062598 23.264852227727644 10.605753659220609 1 rotate no_reflect no_shear #
lump $-1 $-1 $37 $7 #
transform $-1 1 0 0 0 1 0 0 0 1 44.853663747062598 23.264852227727644 10.605753659220609 1 rotate no_reflect no_shear #
lump $-1 $-1 $38 $8 #
transform $-1 1 0 0 0 1 0 0 0 1 44.853663747062598 23.264852227727644 10.605753659220609 1 rotate no_reflect no_shear #
lump $-1 $-1 $39 $9 #
transform $-1 1 0 0 0 1 0 0 0 1 44.853663747062598 23.264852227727644 10.605753659220609 1 rotate no_reflect no_shear #
shell $-1 $-1 $-1 $40 $-1 $10 #
shell $-1 $-1 $-1 $41 $-1 $12 #
shell $-1 $-1 $-1 $42 $-1 $14 #
shell $-1 $-1 $-1 $43 $-1 $16 #
shell $-1 $-1 $-1 $44 $-1 $18 #
shell $-1 $-1 $-1 $45 $-1 $20 #
shell $-1 $-1 $-1 $46 $-1 $22 #
shell $-1 $-1 $-1 $47 $-1 $24 #
shell $-1 $-1 $-1 $48 $-1 $26 #
shell $-1 $-1 $-1 $49 $-1 $28 #
face $-1 $50 $51 $30 $-1 $52 forward single #
face $-1 $53 $54 $31 $-1 $55 reversed single #
face $-1 $56 $57 $32 $-1 $58 reversed single #
face $-1 $59 $60 $33 $-1 $61 forward single #
face $-1 $62 $63 $34 $-1 $64 forward single #
face $-1 $65 $66 $35 $-1 $67 forward single #
face $-1 $68 $69 $36 $-1 $70 reversed single #
face $-1 $71 $72 $37 $-1 $73 forward single #
face $-1 $74 $75 $38 $-1 $76 forward single #
face $-1 $77 $78 $39 $-1 $79 forward single #
face $-1 $80 $81 $30 $-1 $82 reversed single #
loop $-1 $-1 $83 $40 #
plane-surface $-1 0 0 10.605753659220609 0 0 1 1 0 0 forward_v I I I I #
face $-1 $84 $85 $31 $-1 $86 reversed single #
loop $-1 $-1 $87 $41 #
plane-surface $-1 0 -16.667948514380114 4.6604854209535702 0 0 1 1 0 0 forward_v I I I I #
face $-1 $88 $89 $32 $-1 $90 reversed single #
loop $-1 $-1 $91 $42 #
plane-surface $-1 -97.582308544322345 15.850840964962615 77.133283303988577 0 1 0 -0.5877852598018023 0 0.80901698891910034 forward_v I I I I #
face $-1 $92 $93 $33 $-1 $94 forward single #
loop $-1 $95 $96 $43 #
cone-surface $-1 -40.200577113440048 17.333643217515622 6.9057292840321862 0.5877852598018023 0 -0.80901698891910034 0.40450849445955017 0 0.29389262990090115 1 I I 0 1 0.5 forward I I I I #
face $-1 $97 $98 $34 $-1 $99 forward single #
loop $-1 $100 $101 $44 #
cone-surface $-1 -40.200577113440048 19.557846596345129 6.9057292840321862 0.5877852598018023 0 -0.80901698891910034 0.40450849445955017 0 0.29389262990090115 1 I I 0 1 0.5 forward I I I I #
face $-1 $102 $103 $35 $-1 $104 forward single #
loop $-1 $105 $106 $45 #
cone-surface $-1 -40.200577113440048 21.782049975174637 6.9057292840321862 0.5877852598018023 0 -0.80901698891910034 0.40450849445955017 0 0.29389262990090115 1 I I 0 1 0.5 forward I I I I #
face $-1 $107 $108 $36 $-1 $109 reversed single #
loop $-1 $-1 $110 $46 #
plane-surface $-1 -27.721088226214199 19.557846596345129 57.287176127971549 0.5877852598018023 0 0.80901698891910034 0.80901698891910034 0 -0.5877852598018023 forward_v I I I I #
face $-1 $111 $112 $37 $-1 $113 forward single #
loop $-1 $114 $115 $47 #
cone-surface $-1 40.200577113440033 17.333643217515622 6.9057292840321862 -0.5877852598018023 0 -0.80901698891910034 0.40450849445955017 0 -0.29389262990090115 1 I I 0 1 0.5 forward I I I I #
face $-1 $116 $117 $38 $-1 $118 forward single #
loop $-1 $119 $120 $48 #
cone-surface $-1 40.200577113440033 19.557846596345129 6.9057292840321862 -0.5877852598018023 0 -0.80901698891910034 0.40450849445955017 0 -0.29389262990090115 1 I I 0 1 0.5 forward I I I I #
face $-1 $121 $122 $39 $-1 $123 forward single #
loop $-1 $124 $125 $49 #
cone-surface $-1 40.200577113440033 21.782049975174637 6.9057292840321862 -0.5877852598018023 0 -0.80901698891910034 0.40450849445955017 0 -0.29389262990090115 1 I I 0 1 0.5 forward I I I I #
face $-1 $126 $127 $30 $-1 $128 reversed single #
loop $-1 $-1 $129 $50 #
plane-surface $-1 0 0 -10.605753659220609 0 0 1 1 0 0 forward_v I I I I #
coedge $-1 $130 $131 $132 $133 forward $51 $-1 #
face $-1 $134 $135 $31 $-1 $136 reversed single #
loop $-1 $-1 $137 $53 #
plane-surface $-1 0 -10.071044801032585 7.6331195400870886 0 -1 0 0 0 -1 forward_v I I I I #
coedge $-1 $138 $139 $140 $141 reversed $54 $-1 #
face $-1 $142 $143 $32 $-1 $144 forward single #
loop $-1 $-1 $145 $56 #
plane-surface $-1 -44.853663747062605 19.557846596345129 4.5585313307117872 -0.5877852598018023 0 0.80901698891910034 0.80901698891910034 0 0.5877852598018023 forward_v I I I I #
coedge $-1 $146 $147 $148 $149 reversed $57 $-1 #
face $-1 $-1 $150 $33 $-1 $151 forward single #
loop $-1 $152 $153 $59 #
cone-surface $-1 -39.562187824648689 17.333643217515622 6.0270618258683957 0.5877852598018023 0 -0.80901698891910034 0.20225424722977509 0 0.14694631495045057 1 I I -0.70710678118654746 0.70710678118654746 0.25 forward I I I I #
loop $-1 $-1 $154 $43 #
coedge $-1 $96 $96 $155 $156 reversed $60 $-1 #
face $-1 $-1 $157 $34 $-1 $158 forward single #
loop $-1 $159 $160 $62 #
cone-surface $-1 -39.562187824648689 19.557846596345129 6.0270618258683957 0.5877852598018023 0 -0.80901698891910034 0.20225424722977509 0 0.14694631495045057 1 I I -0.70710678118654746 0.70710678118654746 0.25 forward I I I I #
loop $-1 $-1 $161 $44 #
coedge $-1 $101 $101 $162 $163 reversed $63 $-1 #
face $-1 $-1 $164 $35 $-1 $165 forward single #
loop $-1 $166 $167 $65 #
cone-surface $-1 -39.562187824648689 21.782049975174637 6.0270618258683957 0.5877852598018023 0 -0.80901698891910034 0.20225424722977509 0 0.14694631495045057 1 I I -0.70710678118654746 0.70710678118654746 0.25 forward I I I I #
loop $-1 $-1 $168 $45 #
coedge $-1 $106 $106 $169 $170 reversed $66 $-1 #
face $-1 $171 $172 $36 $-1 $173 forward single #
loop $-1 $-1 $174 $68 #
plane-surface $-1 25.007556571045541 15.850840964962615 129.86192810124834 0 1 0 0.5877852598018023 0 0.80901698891910034 forward_v I I I I #
coedge $-1 $175 $176 $177 $178 reversed $69 $-1 #
face $-1 $-1 $179 $37 $-1 $180 forward single #
loop $-1 $181 $182 $71 #
cone-surface $-1 39.562187824648674 17.333643217515622 6.0270618258683957 -0.5877852598018023 0 -0.80901698891910034 0.20225424722977509 0 -0.14694631495045057 1 I I -0.70710678118654746 0.70710678118654746 0.25 forward I I I I #
loop $-1 $-1 $183 $47 #
coedge $-1 $115 $115 $184 $185 reversed $72 $-1 #
face $-1 $-1 $186 $38 $-1 $187 forward single #
loop $-1 $188 $189 $74 #
cone-surface $-1 39.562187824648674 19.557846596345129 6.0270618258683957 -0.5877852598018023 0 -0.80901698891910034 0.20225424722977509 0 -0.14694631495045057 1 I I -0.70710678118654746 0.70710678118654746 0.25 forward I I I I #
loop $-1 $-1 $190 $48 #
coedge $-1 $120 $120 $191 $192 reversed $75 $-1 #
face $-1 $-1 $193 $39 $-1 $194 forward single #
loop $-1 $195 $196 $77 #
cone-surface $-1 39.562187824648674 21.782049975174637 6.0270618258683957 -0.5877852598018023 0 -0.80901698891910034 0.20225424722977509 0 -0.14694631495045057 1 I I -0.70710678118654746 0.70710678118654746 0.25 forward I I I I #
loop $-1 $-1 $197 $49 #
coedge $-1 $125 $125 $198 $199 reversed $78 $-1 #
face $-1 $200 $201 $30 $-1 $202 reversed single #
loop $-1 $-1 $203 $80 #
plane-surface $-1 0 -23.264852227727644 0 0 1 0 0 0 1 forward_v I I I I #
coedge $-1 $204 $205 $206 $207 forward $81 $-1 #
coedge $-1 $208 $83 $209 $210 forward $51 $-1 #
coedge $-1 $83 $208 $211 $212 forward $51 $-1 #
coedge $-1 $213 $214 $83 $133 reversed $215 $-1 #
edge $-1 $216 -23.264852227727644 $217 23.264852227727644 $132 $218 forward 7 unknown #
face $-1 $219 $220 $31 $-1 $221 reversed single #
loop $-1 $-1 $222 $84 #
plane-surface $-1 -44.853663747062598 0 0 1 0 0 0 0 -1 forward_v I I I I #
coedge $-1 $223 $224 $225 $226 reversed $85 $-1 #
coedge $-1 $227 $87 $228 $229 reversed $54 $-1 #
coedge $-1 $87 $227 $223 $230 forward $54 $-1 #
coedge $-1 $225 $231 $87 $141 forward $232 $-1 #
edge $-1 $233 -14.930877970537587 $234 -1.7370705438425276 $140 $235 forward 7 unknown #
face $-1 $236 $237 $32 $-1 $238 reversed single #
loop $-1 $-1 $148 $88 #
plane-surface $-1 0 0 10.605753659220609 0 0 1 1 0 0 forward_v I I I I #
coedge $-1 $239 $240 $241 $242 reversed $89 $-1 #
coedge $-1 $147 $91 $243 $244 reversed $57 $-1 #
coedge $-1 $91 $146 $239 $245 reversed $57 $-1 #
coedge $-1 $241 $246 $91 $149 forward $143 $-1 #
edge $-1 $247 3.9374905250985748 $248 12.26077784466186 $148 $249 forward 7 unknown #
loop $-1 $-1 $155 $92 #
plane-surface $-1 -44.853663747062605 19.557846596345129 4.5585313307117872 -0.5877852598018023 0 0.80901698891910034 0.80901698891910034 0 0.5877852598018023 forward_v I I I I #
loop $-1 $-1 $250 $59 #
coedge $-1 $153 $153 $154 $251 reversed $93 $-1 #
coedge $-1 $154 $154 $153 $251 forward $95 $-1 #
coedge $-1 $155 $155 $96 $156 forward $150 $-1 #
edge $-1 $252 0 $252 6.2831853071796004 $155 $253 forward 7 unknown #
loop $-1 $-1 $162 $97 #
plane-surface $-1 -44.853663747062605 19.557846596345129 4.5585313307117872 -0.5877852598018023 0 0.80901698891910034 0.80901698891910034 0 0.5877852598018023 forward_v I I I I #
loop $-1 $-1 $254 $62 #
coedge $-1 $160 $160 $161 $255 reversed $98 $-1 #
coedge $-1 $161 $161 $160 $255 forward $100 $-1 #
coedge $-1 $162 $162 $101 $163 forward $157 $-1 #
edge $-1 $256 0 $256 6.2831853071796004 $162 $257 forward 7 unknown #
loop $-1 $-1 $169 $102 #
plane-surface $-1 -44.853663747062605 19.557846596345129 4.5585313307117872 -0.5877852598018023 0 0.80901698891910034 0.80901698891910034 0 0.5877852598018023 forward_v I I I I #
loop $-1 $-1 $258 $65 #
coedge $-1 $167 $167 $168 $259 reversed $103 $-1 #
coedge $-1 $168 $168 $167 $259 forward $105 $-1 #
coedge $-1 $169 $169 $106 $170 forward $164 $-1 #
edge $-1 $260 0 $260 6.2831853071796004 $169 $261 forward 7 unknown #
face $-1 $262 $263 $36 $-1 $264 reversed single #
loop $-1 $-1 $177 $107 #
plane-surface $-1 0 0 10.605753659220609 0 0 1 1 0 0 forward_v I I I I #
coedge $-1 $265 $266 $267 $268 reversed $108 $-1 #
coedge $-1 $269 $110 $270 $271 reversed $69 $-1 #
coedge $-1 $110 $269 $265 $272 forward $69 $-1 #
coedge $-1 $267 $273 $110 $178 forward $172 $-1 #
edge $-1 $274 -13.485928929555079 $275 -6.0719176667900499 $177 $276 forward 7 unknown #
loop $-1 $-1 $184 $111 #
plane-surface $-1 -27.721088226214199 19.557846596345129 57.287176127971549 0.5877852598018023 0 0.80901698891910034 0.80901698891910034 0 -0.5877852598018023 forward_v I I I I #
loop $-1 $-1 $277 $71 #
coedge $-1 $182 $182 $183 $278 reversed $112 $-1 #
coedge $-1 $183 $183 $182 $278 forward $114 $-1 #
coedge $-1 $184 $184 $115 $185 forward $179 $-1 #
edge $-1 $279 0 $279 6.2831853071796004 $184 $280 forward 7 unknown #
loop $-1 $-1 $191 $116 #
plane-surface $-1 -27.721088226214199 19.557846596345129 57.287176127971549 0.5877852598018023 0 0.80901698891910034 0.80901698891910034 0 -0.5877852598018023 forward_v I I I I #
loop $-1 $-1 $281 $74 #
coedge $-1 $189 $189 $190 $282 reversed $117 $-1 #
coedge $-1 $190 $190 $189 $282 forward $119 $-1 #
coedge $-1 $191 $191 $120 $192 forward $186 $-1 #
edge $-1 $283 0 $283 6.2831853071796004 $191 $284 forward 7 unknown #
loop $-1 $-1 $198 $121 #
plane-surface $-1 -27.721088226214199 19.557846596345129 57.287176127971549 0.5877852598018023 0 0.80901698891910034 0.80901698891910034 0 -0.5877852598018023 forward_v I I I I #
loop $-1 $-1 $285 $77 #
coedge $-1 $196 $196 $197 $286 reversed $122 $-1 #
coedge $-1 $197 $197 $196 $286 forward $124 $-1 #
coedge $-1 $198 $198 $125 $199 forward $193 $-1 #
edge $-1 $287 0 $287 6.2831853071796004 $198 $288 forward 7 unknown #
face $-1 $289 $290 $30 $-1 $291 reversed single #
loop $-1 $-1 $292 $126 #
plane-surface $-1 -44.853663747062598 0 0 1 0 0 0 0 -1 forward_v I I I I #
coedge $-1 $293 $211 $294 $295 forward $127 $-1 #
coedge $-1 $296 $129 $293 $297 forward $81 $-1 #
coedge $-1 $129 $296 $298 $299 forward $81 $-1 #
coedge $-1 $214 $213 $129 $207 reversed $215 $-1 #
edge $-1 $300 -23.264852227727644 $301 23.264852227727644 $206 $302 forward 7 unknown #
coedge $-1 $131 $130 $303 $304 forward $51 $-1 #
coedge $-1 $305 $306 $130 $210 reversed $290 $-1 #
edge $-1 $217 -44.853663747062598 $307 44.853663747062598 $209 $308 forward 7 unknown #
coedge $-1 $203 $309 $131 $212 reversed $127 $-1 #
edge $-1 $310 -44.853663747062598 $216 44.853663747062598 $211 $311 forward 7 unknown #
coedge $-1 $206 $132 $309 $312 forward $215 $-1 #
coedge $-1 $132 $206 $305 $313 reversed $215 $-1 #
loop $-1 $-1 $213 $289 #
vertex $-1 $133 $314 #
vertex $-1 $133 $315 #
straight-curve $-1 44.853663747062598 0 10.605753659220609 0 1 0 I I #
face $-1 $316 $317 $31 $-1 $318 forward single #
loop $-1 $-1 $228 $134 #
plane-surface $-1 0 -23.264852227727644 0 0 1 0 0 0 1 forward_v I I I I #
coedge $-1 $319 $320 $321 $322 forward $135 $-1 #
coedge $-1 $321 $137 $139 $230 reversed $85 $-1 #
coedge $-1 $137 $321 $323 $324 reversed $85 $-1 #
coedge $-1 $325 $140 $137 $226 forward $232 $-1 #
edge $-1 $234 0.84392565091002592 $326 6.7891938891770627 $225 $327 forward 7 unknown #
coedge $-1 $139 $138 $319 $328 reversed $54 $-1 #
coedge $-1 $329 $330 $138 $229 forward $220 $-1 #
edge $-1 $331 -44.853663747062598 $233 44.853663747062598 $228 $332 forward 7 unknown #
edge $-1 $333 -44.853663747062598 $234 44.853663747062598 $223 $334 forward 7 unknown #
coedge $-1 $140 $325 $329 $335 forward $232 $-1 #
loop $-1 $-1 $225 $316 #
vertex $-1 $229 $336 #
vertex $-1 $141 $337 #
straight-curve $-1 44.853663747062598 -8.3339742571900572 4.6604854209535702 0 1 0 I I #
face $-1 $-1 $338 $32 $-1 $339 reversed single #
loop $-1 $-1 $340 $142 #
plane-surface $-1 0 23.264852227727644 0 0 -1 0 0 0 -1 forward_v I I I I #
coedge $-1 $341 $145 $147 $245 forward $89 $-1 #
coedge $-1 $145 $341 $340 $342 reversed $89 $-1 #
coedge $-1 $343 $148 $145 $242 forward $143 $-1 #
edge $-1 $248 6.0719176667900499 $344 13.485928929555079 $241 $345 forward 7 unknown #
coedge $-1 $346 $347 $146 $244 forward $338 $-1 #
edge $-1 $348 -34.008110321282494 $247 -27.960887992773678 $243 $349 forward 7 unknown #
edge $-1 $248 -10.288148992623441 $348 -8.8807605448725156e-015 $147 $350 forward 7 unknown #
coedge $-1 $148 $343 $346 $351 forward $143 $-1 #
vertex $-1 $244 $352 #
vertex $-1 $149 $353 #
straight-curve $-1 -48.791154272161172 15.850840964962615 10.605753659220611 1 0 0 I I #
coedge $-1 $250 $250 $-1 $354 reversed $152 $-1 #
edge $-1 $355 0 $355 6.2831853071796004 $153 $356 forward 7 unknown #
vertex $-1 $156 $357 #
ellipse-curve $-1 -40.692020087280959 17.333643217515622 7.5821424949661989 -0.5877852598018023 0 0.80901698891910034 0.40450849445955017 0 0.29389262990090115 1 I I #
coedge $-1 $254 $254 $-1 $358 reversed $159 $-1 #
edge $-1 $359 0 $359 6.2831853071796004 $160 $360 forward 7 unknown #
vertex $-1 $163 $361 #
ellipse-curve $-1 -40.692020087280959 19.557846596345129 7.5821424949661989 -0.5877852598018023 0 0.80901698891910034 0.40450849445955017 0 0.29389262990090115 1 I I #
coedge $-1 $258 $258 $-1 $362 reversed $166 $-1 #
edge $-1 $363 0 $363 6.2831853071796004 $167 $364 forward 7 unknown #
vertex $-1 $170 $365 #
ellipse-curve $-1 -40.692020087280959 21.782049975174637 7.5821424949661989 -0.5877852598018023 0 0.80901698891910034 0.40450849445955017 0 0.29389262990090115 1 I I #
face $-1 $-1 $366 $36 $-1 $367 reversed single #
loop $-1 $-1 $368 $171 #
plane-surface $-1 44.853663747062598 0 0 -1 0 0 0 0 1 forward_v I I I I #
coedge $-1 $266 $174 $176 $272 reversed $108 $-1 #
coedge $-1 $174 $265 $369 $370 reversed $108 $-1 #
coedge $-1 $371 $177 $174 $268 forward $172 $-1 #
edge $-1 $275 24.026598141976557 $372 32.349885461539827 $267 $373 forward 7 unknown #
coedge $-1 $176 $175 $368 $374 reversed $69 $-1 #
coedge $-1 $375 $376 $175 $271 forward $366 $-1 #
edge $-1 $377 -61.657632979113245 $274 -51.36948398648984 $270 $378 forward 7 unknown #
edge $-1 $379 -89.707327494125195 $275 -79.41917850150179 $265 $380 forward 7 unknown #
coedge $-1 $177 $371 $375 $381 forward $172 $-1 #
vertex $-1 $271 $382 #
vertex $-1 $178 $383 #
straight-curve $-1 36.53037642749932 9.7789232981725647 10.605753659220611 0 -1 0 I I #
coedge $-1 $277 $277 $-1 $384 reversed $181 $-1 #
edge $-1 $385 0 $385 6.2831853071796004 $182 $386 forward 7 unknown #
vertex $-1 $185 $387 #
ellipse-curve $-1 40.692020087280959 17.333643217515622 7.5821424949662175 0.5877852598018023 0 0.80901698891910034 0.40450849445955017 0 -0.29389262990090115 1 I I #
coedge $-1 $281 $281 $-1 $388 reversed $188 $-1 #
edge $-1 $389 0 $389 6.2831853071796004 $189 $390 forward 7 unknown #
vertex $-1 $192 $391 #
ellipse-curve $-1 40.692020087280959 19.557846596345129 7.5821424949662175 0.5877852598018023 0 0.80901698891910034 0.40450849445955017 0 -0.29389262990090115 1 I I #
coedge $-1 $285 $285 $-1 $392 reversed $195 $-1 #
edge $-1 $393 0 $393 6.2831853071796004 $196 $394 forward 7 unknown #
vertex $-1 $199 $395 #
ellipse-curve $-1 40.692020087280959 21.782049975174637 7.5821424949662175 0.5877852598018023 0 0.80901698891910034 0.40450849445955017 0 -0.29389262990090115 1 I I #
face $-1 $-1 $215 $30 $-1 $396 reversed single #
loop $-1 $-1 $305 $200 #
plane-surface $-1 0 23.264852227727644 0 0 -1 0 0 0 -1 forward_v I I I I #
coedge $-1 $397 $303 $306 $398 forward $201 $-1 #
coedge $-1 $309 $203 $204 $297 reversed $127 $-1 #
coedge $-1 $303 $397 $203 $295 reversed $201 $-1 #
edge $-1 $310 -10.605753659220609 $399 10.605753659220609 $294 $400 forward 7 unknown #
coedge $-1 $205 $204 $397 $401 forward $81 $-1 #
edge $-1 $301 -44.853663747062598 $399 44.853663747062598 $293 $402 forward 7 unknown #
coedge $-1 $306 $305 $205 $299 reversed $290 $-1 #
edge $-1 $403 -44.853663747062598 $300 44.853663747062598 $298 $404 forward 7 unknown #
vertex $-1 $207 $405 #
vertex $-1 $312 $406 #
straight-curve $-1 44.853663747062598 0 -10.605753659220609 0 -1 0 I I #
coedge $-1 $292 $294 $208 $304 reversed $201 $-1 #
edge $-1 $307 -23.264852227727644 $310 23.264852227727644 $303 $407 forward 7 unknown #
coedge $-1 $298 $209 $214 $313 forward $290 $-1 #
coedge $-1 $209 $298 $292 $398 reversed $290 $-1 #
vertex $-1 $210 $408 #
straight-curve $-1 0 23.264852227727644 10.605753659220609 -1 0 0 I I #
coedge $-1 $211 $293 $213 $312 reversed $127 $-1 #
vertex $-1 $304 $409 #
straight-curve $-1 0 -23.264852227727644 10.605753659220609 1 0 0 I I #
edge $-1 $216 -10.605753659220609 $301 10.605753659220609 $213 $410 forward 7 unknown #
edge $-1 $217 -10.605753659220609 $300 10.605753659220609 $214 $411 forward 7 unknown #
point $-1 44.853663747062598 -23.264852227727644 10.605753659220609 #
point $-1 44.853663747062598 23.264852227727644 10.605753659220609 #
face $-1 $-1 $232 $31 $-1 $412 reversed single #
loop $-1 $-1 $323 $219 #
plane-surface $-1 0 0 10.605753659220609 0 0 1 1 0 0 forward_v I I I I #
coedge $-1 $413 $222 $227 $328 forward $135 $-1 #
coedge $-1 $222 $413 $414 $415 reversed $135 $-1 #
coedge $-1 $224 $223 $222 $322 reversed $85 $-1 #
edge $-1 $416 -6.7891938891770627 $333 -0.84392565091002592 $222 $417 forward 7 unknown #
coedge $-1 $414 $418 $224 $324 forward $317 $-1 #
edge $-1 $326 -44.853663747062598 $416 44.853663747062598 $323 $419 forward 7 unknown #
coedge $-1 $231 $225 $418 $420 reversed $232 $-1 #
vertex $-1 $226 $421 #
straight-curve $-1 44.853663747062598 -10.071044801032585 3.8165597700435443 0 0 1 I I #
edge $-1 $333 1.7370705438425276 $331 14.930877970537587 $319 $422 forward 7 unknown #
coedge $-1 $423 $228 $231 $335 reversed $220 $-1 #
coedge $-1 $228 $423 $413 $424 forward $220 $-1 #
vertex $-1 $229 $425 #
straight-curve $-1 0 -23.264852227727644 4.6604854209535702 1 0 0 I I #
vertex $-1 $328 $426 #
straight-curve $-1 0 -10.071044801032585 4.6604854209535702 1 0 0 I I #
edge $-1 $427 -10.605753659220609 $233 -4.6604854209535702 $231 $428 forward 7 unknown #
point $-1 44.853663747062598 -23.264852227727644 4.6604854209535702 #
point $-1 44.853663747062598 -10.071044801032585 4.6604854209535702 #
loop $-1 $-1 $243 $236 #
plane-surface $-1 -44.853663747062598 0 0 1 0 0 0 0 -1 forward_v I I I I #
coedge $-1 $429 $430 $240 $342 forward $237 $-1 #
coedge $-1 $240 $239 $347 $431 reversed $89 $-1 #
edge $-1 $344 6.5158202394272173 $432 16.803969232050651 $340 $433 forward 7 unknown #
coedge $-1 $246 $241 $430 $434 forward $143 $-1 #
vertex $-1 $434 $435 #
straight-curve $-1 -36.530376427499306 9.7789232981725647 10.605753659220609 0 1 0 I I #
coedge $-1 $436 $243 $246 $351 reversed $338 $-1 #
coedge $-1 $243 $436 $341 $431 forward $338 $-1 #
vertex $-1 $244 $437 #
straight-curve $-1 -44.853663747062598 15.850840964962615 38.566641651994289 0 0 1 I I #
straight-curve $-1 -44.853663747062605 15.850840964962615 4.5585313307117872 -0.80901698891910034 0 -0.5877852598018023 I I #
edge $-1 $438 -23.264852227727644 $247 -15.850840964962615 $346 $439 forward 7 unknown #
point $-1 -44.853663747062598 15.850840964962615 10.605753659220609 #
point $-1 -36.530376427499313 15.850840964962615 10.605753659220609 #
edge $-1 $440 1 $440 0 $250 $-1 forward 7 unknown #
vertex $-1 $251 $441 #
ellipse-curve $-1 -39.709134139599136 17.333643217515622 6.2293160730981709 -0.5877852598018023 0 0.80901698891910034 0.40450849445955017 0 0.29389262990090115 1 I I #
point $-1 -40.28751159282141 17.333643217515622 7.8760351248671032 #
edge $-1 $442 1 $442 0 $254 $-1 forward 7 unknown #
vertex $-1 $255 $443 #
ellipse-curve $-1 -39.709134139599136 19.557846596345129 6.2293160730981709 -0.5877852598018023 0 0.80901698891910034 0.40450849445955017 0 0.29389262990090115 1 I I #
point $-1 -40.28751159282141 19.557846596345129 7.8760351248671032 #
edge $-1 $444 1 $444 0 $258 $-1 forward 7 unknown #
vertex $-1 $259 $445 #
ellipse-curve $-1 -39.709134139599136 21.782049975174637 6.2293160730981709 -0.5877852598018023 0 0.80901698891910034 0.40450849445955017 0 0.29389262990090115 1 I I #
point $-1 -40.28751159282141 21.782049975174637 7.8760351248671032 #
loop $-1 $-1 $270 $262 #
plane-surface $-1 0 23.264852227727644 0 0 -1 0 0 0 -1 forward_v I I I I #
coedge $-1 $446 $369 $269 $374 forward $263 $-1 #
coedge $-1 $368 $447 $266 $370 forward $263 $-1 #
edge $-1 $372 54.325210391403559 $379 60.372432719912361 $369 $448 forward 7 unknown #
coedge $-1 $273 $267 $447 $449 forward $172 $-1 #
vertex $-1 $449 $450 #
straight-curve $-1 12.50377828552277 15.850840964962615 10.605753659220611 1 0 0 I I #
edge $-1 $379 6.0719176667900499 $377 13.485928929555079 $368 $451 forward 7 unknown #
coedge $-1 $376 $270 $273 $381 reversed $366 $-1 #
coedge $-1 $270 $375 $446 $452 forward $366 $-1 #
vertex $-1 $271 $453 #
straight-curve $-1 -5.0284088295786269 23.264852227727644 40.799979150104058 -0.80901698891910034 0 0.5877852598018023 I I #
vertex $-1 $374 $454 #
straight-curve $-1 -27.721088226214199 15.850840964962615 57.287176127971549 -0.80901698891910034 0 0.5877852598018023 I I #
edge $-1 $455 -44.853663747062598 $274 -36.530376427499327 $375 $456 forward 7 unknown #
point $-1 36.530376427499327 23.264852227727644 10.605753659220611 #
point $-1 36.530376427499327 15.850840964962615 10.605753659220611 #
edge $-1 $457 1 $457 0 $277 $-1 forward 7 unknown #
vertex $-1 $278 $458 #
ellipse-curve $-1 39.709134139599122 17.333643217515622 6.2293160730981709 0.5877852598018023 0 0.80901698891910034 0.40450849445955017 0 -0.29389262990090115 1 I I #
point $-1 41.0965285817405 17.333643217515622 7.2882498650653016 #
edge $-1 $459 1 $459 0 $281 $-1 forward 7 unknown #
vertex $-1 $282 $460 #
ellipse-curve $-1 39.709134139599122 19.557846596345129 6.2293160730981709 0.5877852598018023 0 0.80901698891910034 0.40450849445955017 0 -0.29389262990090115 1 I I #
point $-1 41.0965285817405 19.557846596345129 7.2882498650653016 #
edge $-1 $461 1 $461 0 $285 $-1 forward 7 unknown #
vertex $-1 $286 $462 #
ellipse-curve $-1 39.709134139599122 21.782049975174637 6.2293160730981709 0.5877852598018023 0 0.80901698891910034 0.40450849445955017 0 -0.29389262990090115 1 I I #
point $-1 41.0965285817405 21.782049975174637 7.2882498650653016 #
plane-surface $-1 44.853663747062598 0 0 -1 0 0 0 0 1 forward_v I I I I #
coedge $-1 $294 $292 $296 $401 reversed $201 $-1 #
edge $-1 $307 -10.605753659220609 $403 10.605753659220609 $306 $463 forward 7 unknown #
vertex $-1 $401 $464 #
straight-curve $-1 -44.853663747062598 -23.264852227727644 0 0 0 -1 I I #
edge $-1 $399 -23.264852227727644 $403 23.264852227727644 $397 $465 forward 7 unknown #
straight-curve $-1 0 -23.264852227727644 -10.605753659220609 -1 0 0 I I #
vertex $-1 $299 $466 #
straight-curve $-1 0 23.264852227727644 -10.605753659220609 1 0 0 I I #
point $-1 44.853663747062598 23.264852227727644 -10.605753659220609 #
point $-1 44.853663747062598 -23.264852227727644 -10.605753659220609 #
straight-curve $-1 -44.853663747062598 0 10.605753659220609 0 -1 0 I I #
point $-1 -44.853663747062598 23.264852227727644 10.605753659220609 #
point $-1 -44.853663747062598 -23.264852227727644 10.605753659220609 #
straight-curve $-1 44.853663747062598 -23.264852227727644 0 0 0 -1 I I #
straight-curve $-1 44.853663747062598 23.264852227727644 0 0 0 -1 I I #
plane-surface $-1 44.853663747062598 0 0 -1 0 0 0 0 1 forward_v I I I I #
coedge $-1 $320 $319 $330 $424 reversed $135 $-1 #
coedge $-1 $467 $323 $320 $415 forward $317 $-1 #
edge $-1 $416 10.071044801032585 $468 23.264852227727644 $320 $469 forward 7 unknown #
vertex $-1 $415 $470 #
straight-curve $-1 -44.853663747062598 -10.071044801032585 3.8165597700435443 0 0 -1 I I #
coedge $-1 $323 $467 $325 $420 forward $317 $-1 #
straight-curve $-1 0 -10.071044801032585 10.605753659220609 -1 0 0 I I #
edge $-1 $427 -23.264852227727644 $326 -10.071044801032585 $325 $471 forward 7 unknown #
point $-1 44.853663747062598 -10.071044801032585 10.605753659220607 #
straight-curve $-1 -44.853663747062598 -8.3339742571900572 4.6604854209535702 0 -1 0 I I #
coedge $-1 $330 $329 $467 $472 reversed $220 $-1 #
edge $-1 $468 -10.605753659220609 $331 -4.6604854209535702 $413 $473 forward 7 unknown #
point $-1 -44.853663747062598 -23.264852227727644 4.6604854209535702 #
point $-1 -44.853663747062598 -10.071044801032585 4.6604854209535702 #
vertex $-1 $420 $474 #
straight-curve $-1 44.853663747062598 -23.264852227727644 0 0 0 -1 I I #
coedge $-1 $430 $340 $436 $475 reversed $237 $-1 #
coedge $-1 $340 $429 $343 $434 reversed $237 $-1 #
edge $-1 $432 -13.485928929555079 $348 -6.0719176667900499 $347 $476 forward 7 unknown #
vertex $-1 $342 $477 #
straight-curve $-1 -31.258967157059772 23.264852227727644 14.435656751474175 -0.80901698891910034 0 -0.5877852598018023 I I #
edge $-1 $344 36.530376427499313 $438 44.853663747062598 $430 $478 forward 7 unknown #
point $-1 -36.530376427499313 23.264852227727644 10.605753659220609 #
coedge $-1 $347 $346 $429 $475 forward $338 $-1 #
point $-1 -44.853663747062598 15.850840964962615 4.5585313307117925 #
vertex $-1 $434 $479 #
straight-curve $-1 -44.853663747062598 0 10.605753659220609 0 -1 0 I I #
vertex $-1 $354 $480 #
point $-1 -39.304625645139588 17.333643217515622 6.5232087029990717 #
vertex $-1 $358 $481 #
point $-1 -39.304625645139588 19.557846596345129 6.5232087029990717 #
vertex $-1 $362 $482 #
point $-1 -39.304625645139588 21.782049975174637 6.5232087029990717 #
coedge $-1 $447 $368 $376 $452 reversed $263 $-1 #
coedge $-1 $369 $446 $371 $449 reversed $263 $-1 #
straight-curve $-1 44.853663747062598 15.850840964962615 64.930964050624169 0 0 -1 I I #
edge $-1 $372 15.850840964962615 $455 23.264852227727644 $447 $483 forward 7 unknown #
point $-1 44.853663747062598 15.850840964962615 10.605753659220609 #
straight-curve $-1 44.853663747062598 9.7789232981725647 4.5585313307118049 0 1 0 I I #
edge $-1 $455 -10.605753659220609 $377 -4.5585313307118085 $446 $484 forward 7 unknown #
point $-1 44.853663747062591 23.264852227727644 4.5585313307118085 #
point $-1 44.853663747062591 15.850840964962615 4.5585313307118085 #
vertex $-1 $449 $485 #
straight-curve $-1 0 23.264852227727644 10.605753659220609 -1 0 0 I I #
vertex $-1 $384 $486 #
point $-1 40.113642634058678 17.333643217515622 5.9354234431972692 #
vertex $-1 $388 $487 #
point $-1 40.113642634058678 19.557846596345129 5.9354234431972692 #
vertex $-1 $392 $488 #
point $-1 40.113642634058678 21.782049975174637 5.9354234431972692 #
straight-curve $-1 -44.853663747062598 23.264852227727644 0 0 0 -1 I I #
point $-1 -44.853663747062598 -23.264852227727644 -10.605753659220609 #
straight-curve $-1 -44.853663747062598 0 -10.605753659220609 0 1 0 I I #
point $-1 -44.853663747062598 23.264852227727644 -10.605753659220609 #
coedge $-1 $418 $414 $423 $472 forward $317 $-1 #
vertex $-1 $415 $489 #
straight-curve $-1 -44.853663747062598 0 10.605753659220609 0 -1 0 I I #
point $-1 -44.853663747062598 -10.071044801032585 10.605753659220607 #
straight-curve $-1 44.853663747062598 0 10.605753659220609 0 1 0 I I #
edge $-1 $468 -44.853663747062598 $427 44.853663747062598 $423 $490 forward 7 unknown #
straight-curve $-1 -44.853663747062598 -23.264852227727644 0 0 0 -1 I I #
point $-1 44.853663747062598 -23.264852227727644 10.605753659220609 #
edge $-1 $438 -10.605753659220609 $432 -4.5585313307117925 $429 $491 forward 7 unknown #
straight-curve $-1 -44.853663747062598 9.7789232981725647 4.5585313307117907 0 -1 0 I I #
point $-1 -44.853663747062598 23.264852227727644 4.5585313307117925 #
straight-curve $-1 0 23.264852227727644 10.605753659220609 -1 0 0 I I #
point $-1 -44.853663747062598 23.264852227727644 10.605753659220609 #
point $-1 -39.415241509698241 17.333643217515622 5.8248075786386204 #
point $-1 -39.415241509698241 19.557846596345129 5.8248075786386204 #
point $-1 -39.415241509698241 21.782049975174637 5.8248075786386204 #
straight-curve $-1 44.853663747062598 0 10.605753659220609 0 1 0 I I #
straight-curve $-1 44.853663747062598 23.264852227727644 0 0 0 -1 I I #
point $-1 44.853663747062598 23.264852227727644 10.605753659220609 #
point $-1 39.415241509698227 17.333643217515622 5.8248075786386204 #
point $-1 39.415241509698227 19.557846596345129 5.8248075786386204 #
point $-1 39.415241509698227 21.782049975174637 5.8248075786386204 #
point $-1 -44.853663747062598 -23.264852227727644 10.605753659220609 #
straight-curve $-1 0 -23.264852227727644 10.605753659220609 1 0 0 I I #
straight-curve $-1 -44.853663747062598 23.264852227727644 0 0 0 -1 I I #
End-of-ACIS-data 