500 0 7 0           
7 Unknown 11 ACIS 5.0 NT 24 Thu Mar 25 17:59:03 1999 
-1 9.9999999999999995e-007 1e-010 
body $-1 $7 $-1 $8 #
body $-1 $9 $-1 $10 #
body $-1 $11 $-1 $12 #
body $-1 $13 $-1 $14 #
body $-1 $15 $-1 $16 #
body $-1 $17 $-1 $18 #
body $-1 $19 $-1 $20 #
lump $-1 $-1 $21 $0 #
transform $-1 1 0 0 0 1 0 0 0 1 46.159855952635276 23.889102489065028 9.2899716042561788 1 rotate no_reflect no_shear #
lump $-1 $-1 $22 $1 #
transform $-1 1 0 0 0 1 0 0 0 1 46.159855952635276 23.889102489065028 9.2899716042561788 1 rotate no_reflect no_shear #
lump $-1 $-1 $23 $2 #
transform $-1 1 0 0 0 1 0 0 0 1 46.159855952635276 23.889102489065028 9.2899716042561788 1 rotate no_reflect no_shear #
lump $-1 $-1 $24 $3 #
transform $-1 1 0 0 0 1 0 0 0 1 46.159855952635276 23.889102489065028 9.2899716042561788 1 rotate no_reflect no_shear #
lump $-1 $-1 $25 $4 #
transform $-1 1 0 0 0 1 0 0 0 1 46.159855952635276 23.889102489065028 9.2899716042561788 1 rotate no_reflect no_shear #
lump $-1 $-1 $26 $5 #
transform $-1 1 0 0 0 1 0 0 0 1 46.159855952635276 23.889102489065028 9.2899716042561788 1 rotate no_reflect no_shear #
lump $-1 $-1 $27 $6 #
transform $-1 1 0 0 0 1 0 0 0 1 46.159855952635276 23.889102489065028 9.2899716042561788 1 rotate no_reflect no_shear #
shell $-1 $-1 $-1 $28 $-1 $7 #
shell $-1 $-1 $-1 $29 $-1 $9 #
shell $-1 $-1 $-1 $30 $-1 $11 #
shell $-1 $-1 $-1 $31 $-1 $13 #
shell $-1 $-1 $-1 $32 $-1 $15 #
shell $-1 $-1 $-1 $33 $-1 $17 #
shell $-1 $-1 $-1 $34 $-1 $19 #
face $-1 $35 $36 $21 $-1 $37 forward single #
face $-1 $38 $39 $22 $-1 $40 reversed single #
face $-1 $41 $42 $23 $-1 $43 reversed single #
face $-1 $44 $45 $24 $-1 $46 reversed single #
face $-1 $47 $48 $25 $-1 $49 forward single #
face $-1 $50 $51 $26 $-1 $52 forward single #
face $-1 $53 $54 $27 $-1 $55 forward single #
face $-1 $56 $57 $21 $-1 $58 reversed single #
loop $-1 $-1 $59 $28 #
plane-surface $-1 0 0 9.2899716042561788 0 0 1 1 0 0 forward_v I I I I #
face $-1 $60 $61 $22 $-1 $62 reversed single #
loop $-1 $-1 $63 $29 #
plane-surface $-1 0 -15.762079849439917 7.7899716042561788 0 -1 0 0 0 -1 forward_v I I I I #
face $-1 $64 $65 $23 $-1 $66 reversed single #
loop $-1 $-1 $67 $30 #
plane-surface $-1 0 19.825591169252473 6.2899716042561788 0 0 1 1 0 0 forward_v I I I I #
face $-1 $68 $69 $24 $-1 $70 reversed single #
loop $-1 $-1 $71 $31 #
plane-surface $-1 -46.159855952635283 -12.759389343086074 5.362418187960337 -0.80901700255871778 0 0.5877852410284794 0.5877852410284794 0 0.80901700255871778 forward_v I I I I #
face $-1 $72 $73 $25 $-1 $74 forward single #
loop $-1 $75 $76 $32 #
cone-surface $-1 -44.14150412174785 -14.561003646898381 6.8963835533651681 0.80901700255871778 0 -0.5877852410284794 0.2938926205142397 0 0.40450850127935889 1 I I 0 1 0.5 forward I I I I #
face $-1 $77 $78 $26 $-1 $79 forward single #
loop $-1 $80 $81 $33 #
cone-surface $-1 -44.14150412174785 -12.759389343086074 6.8963835533651681 0.80901700255871778 0 -0.5877852410284794 0.2938926205142397 0 0.40450850127935889 1 I I 0 1 0.5 forward I I I I #
face $-1 $82 $83 $27 $-1 $84 forward single #
loop $-1 $85 $86 $34 #
cone-surface $-1 -44.14150412174785 -10.957775039273766 6.8963835533651681 0.80901700255871778 0 -0.5877852410284794 0.2938926205142397 0 0.40450850127935889 1 I I 0 1 0.5 forward I I I I #
face $-1 $87 $88 $21 $-1 $89 reversed single #
loop $-1 $-1 $90 $35 #
plane-surface $-1 0 0 -9.2899716042561788 0 0 1 1 0 0 forward_v I I I I #
coedge $-1 $91 $92 $93 $94 forward $36 $-1 #
face $-1 $95 $96 $22 $-1 $97 reversed single #
loop $-1 $-1 $98 $38 #
plane-surface $-1 0 -19.825591169252473 6.2899716042561788 0 0 1 1 0 0 forward_v I I I I #
coedge $-1 $99 $100 $101 $102 reversed $39 $-1 #
face $-1 $103 $104 $23 $-1 $105 forward single #
loop $-1 $-1 $106 $41 #
plane-surface $-1 0 15.762079849439917 7.7899716042561788 0 1 0 0 0 1 forward_v I I I I #
coedge $-1 $107 $108 $109 $110 reversed $42 $-1 #
face $-1 $111 $112 $24 $-1 $113 reversed single #
loop $-1 $-1 $114 $44 #
plane-surface $-1 -120.84807255532164 -9.7566988367322303 59.626582301879566 0 -1 0 0.80901700255871778 0 -0.5877852410284794 forward_v I I I I #
coedge $-1 $115 $116 $117 $118 reversed $45 $-1 #
face $-1 $-1 $119 $25 $-1 $120 forward single #
loop $-1 $121 $122 $47 #
cone-surface $-1 -43.34766529242205 -14.561003646898381 6.3196259003649562 0.80901700255871778 0 -0.5877852410284794 0.14694631025711985 0 0.20225425063967944 1 I I -0.70710678118654746 0.70710678118654746 0.25 forward I I I I #
loop $-1 $-1 $123 $32 #
coedge $-1 $76 $76 $124 $125 reversed $48 $-1 #
face $-1 $-1 $126 $26 $-1 $127 forward single #
loop $-1 $128 $129 $50 #
cone-surface $-1 -43.34766529242205 -12.759389343086074 6.3196259003649562 0.80901700255871778 0 -0.5877852410284794 0.14694631025711985 0 0.20225425063967944 1 I I -0.70710678118654746 0.70710678118654746 0.25 forward I I I I #
loop $-1 $-1 $130 $33 #
coedge $-1 $81 $81 $131 $132 reversed $51 $-1 #
face $-1 $-1 $133 $27 $-1 $134 forward single #
loop $-1 $135 $136 $53 #
cone-surface $-1 -43.34766529242205 -10.957775039273766 6.3196259003649562 0.80901700255871778 0 -0.5877852410284794 0.14694631025711985 0 0.20225425063967944 1 I I -0.70710678118654746 0.70710678118654746 0.25 forward I I I I #
loop $-1 $-1 $137 $34 #
coedge $-1 $86 $86 $138 $139 reversed $54 $-1 #
face $-1 $140 $141 $21 $-1 $142 reversed single #
loop $-1 $-1 $143 $56 #
plane-surface $-1 0 -23.889102489065028 0 0 1 0 0 0 1 forward_v I I I I #
coedge $-1 $144 $145 $146 $147 forward $57 $-1 #
coedge $-1 $148 $59 $149 $150 forward $36 $-1 #
coedge $-1 $59 $148 $151 $152 forward $36 $-1 #
coedge $-1 $153 $154 $59 $94 reversed $155 $-1 #
edge $-1 $156 -23.889102489065028 $157 23.889102489065028 $93 $158 forward 7 unknown #
face $-1 $159 $160 $22 $-1 $161 reversed single #
loop $-1 $-1 $162 $60 #
plane-surface $-1 -46.159855952635276 0 0 1 0 0 0 0 -1 forward_v I I I I #
coedge $-1 $163 $164 $165 $166 reversed $61 $-1 #
coedge $-1 $167 $63 $168 $169 reversed $39 $-1 #
coedge $-1 $63 $167 $162 $170 reversed $39 $-1 #
coedge $-1 $171 $172 $63 $102 forward $173 $-1 #
edge $-1 $174 -46.159855952635276 $175 46.159855952635276 $101 $176 forward 7 unknown #
face $-1 $177 $178 $23 $-1 $179 reversed single #
loop $-1 $-1 $180 $64 #
plane-surface $-1 0 0 9.2899716042561788 0 0 1 1 0 0 forward_v I I I I #
coedge $-1 $181 $182 $183 $184 reversed $65 $-1 #
coedge $-1 $185 $67 $181 $186 forward $42 $-1 #
coedge $-1 $67 $185 $187 $188 reversed $42 $-1 #
coedge $-1 $189 $190 $67 $110 forward $178 $-1 #
edge $-1 $191 5.8492842648136811 $192 13.976306904438792 $109 $193 forward 7 unknown #
face $-1 $194 $195 $24 $-1 $196 forward single #
loop $-1 $-1 $197 $68 #
plane-surface $-1 -46.159855952635276 0 0 1 0 0 0 0 -1 forward_v I I I I #
coedge $-1 $198 $199 $200 $201 reversed $69 $-1 #
coedge $-1 $202 $71 $203 $204 reversed $45 $-1 #
coedge $-1 $71 $202 $198 $205 forward $45 $-1 #
coedge $-1 $200 $206 $71 $118 forward $195 $-1 #
edge $-1 $207 -9.3823851778968805 $208 -3.3770041651891933 $117 $209 forward 7 unknown #
loop $-1 $-1 $124 $72 #
plane-surface $-1 -46.159855952635283 -12.759389343086074 5.362418187960337 -0.80901700255871778 0 0.5877852410284794 0.5877852410284794 0 0.80901700255871778 forward_v I I I I #
loop $-1 $-1 $210 $47 #
coedge $-1 $122 $122 $123 $211 reversed $73 $-1 #
coedge $-1 $123 $123 $122 $211 forward $75 $-1 #
coedge $-1 $124 $124 $76 $125 forward $119 $-1 #
edge $-1 $212 0 $212 6.2831853071796004 $124 $213 forward 7 unknown #
loop $-1 $-1 $131 $77 #
plane-surface $-1 -46.159855952635283 -12.759389343086074 5.362418187960337 -0.80901700255871778 0 0.5877852410284794 0.5877852410284794 0 0.80901700255871778 forward_v I I I I #
loop $-1 $-1 $214 $50 #
coedge $-1 $129 $129 $130 $215 reversed $78 $-1 #
coedge $-1 $130 $130 $129 $215 forward $80 $-1 #
coedge $-1 $131 $131 $81 $132 forward $126 $-1 #
edge $-1 $216 0 $216 6.2831853071796004 $131 $217 forward 7 unknown #
loop $-1 $-1 $138 $82 #
plane-surface $-1 -46.159855952635283 -12.759389343086074 5.362418187960337 -0.80901700255871778 0 0.5877852410284794 0.5877852410284794 0 0.80901700255871778 forward_v I I I I #
loop $-1 $-1 $218 $53 #
coedge $-1 $136 $136 $137 $219 reversed $83 $-1 #
coedge $-1 $137 $137 $136 $219 forward $85 $-1 #
coedge $-1 $138 $138 $86 $139 forward $133 $-1 #
edge $-1 $220 0 $220 6.2831853071796004 $138 $221 forward 7 unknown #
face $-1 $222 $223 $21 $-1 $224 reversed single #
loop $-1 $-1 $225 $87 #
plane-surface $-1 -46.159855952635276 0 0 1 0 0 0 0 -1 forward_v I I I I #
coedge $-1 $226 $151 $227 $228 forward $88 $-1 #
coedge $-1 $229 $90 $226 $230 forward $57 $-1 #
coedge $-1 $90 $229 $231 $232 forward $57 $-1 #
coedge $-1 $154 $153 $90 $147 reversed $155 $-1 #
edge $-1 $233 -23.889102489065028 $234 23.889102489065028 $146 $235 forward 7 unknown #
coedge $-1 $92 $91 $236 $237 forward $36 $-1 #
coedge $-1 $238 $239 $91 $150 reversed $223 $-1 #
edge $-1 $157 -46.159855952635276 $240 46.159855952635276 $149 $241 forward 7 unknown #
coedge $-1 $143 $242 $92 $152 reversed $88 $-1 #
edge $-1 $243 -46.159855952635276 $156 46.159855952635276 $151 $244 forward 7 unknown #
coedge $-1 $146 $93 $242 $245 forward $155 $-1 #
coedge $-1 $93 $146 $238 $246 reversed $155 $-1 #
loop $-1 $-1 $153 $222 #
vertex $-1 $94 $247 #
vertex $-1 $94 $248 #
straight-curve $-1 46.159855952635276 0 9.2899716042561788 0 1 0 I I #
face $-1 $249 $173 $22 $-1 $250 forward single #
loop $-1 $-1 $251 $95 #
plane-surface $-1 0 -23.889102489065028 0 0 1 0 0 0 1 forward_v I I I I #
coedge $-1 $252 $253 $100 $170 forward $96 $-1 #
coedge $-1 $254 $98 $251 $255 reversed $61 $-1 #
coedge $-1 $98 $254 $167 $256 forward $61 $-1 #
coedge $-1 $168 $257 $98 $166 forward $258 $-1 #
edge $-1 $259 -13.976306904438792 $260 -5.8492842648136811 $165 $261 forward 7 unknown #
coedge $-1 $100 $99 $164 $256 reversed $39 $-1 #
coedge $-1 $262 $165 $99 $169 forward $258 $-1 #
edge $-1 $260 2.3949858021280894 $174 5.3949858021280894 $168 $263 forward 7 unknown #
edge $-1 $175 -5.3949858021280894 $264 -2.3949858021280894 $162 $265 forward 7 unknown #
coedge $-1 $266 $101 $253 $267 forward $173 $-1 #
coedge $-1 $101 $266 $262 $268 forward $173 $-1 #
loop $-1 $-1 $101 $159 #
vertex $-1 $169 $269 #
vertex $-1 $267 $270 #
straight-curve $-1 0 -15.762079849439917 9.2899716042561788 -1 0 0 I I #
face $-1 $271 $272 $23 $-1 $273 reversed single #
loop $-1 $-1 $190 $103 #
plane-surface $-1 46.159855952635276 0 0 -1 0 0 0 0 1 forward_v I I I I #
coedge $-1 $274 $275 $182 $276 forward $104 $-1 #
coedge $-1 $277 $106 $107 $186 reversed $65 $-1 #
coedge $-1 $106 $277 $180 $276 reversed $65 $-1 #
coedge $-1 $278 $279 $106 $184 forward $272 $-1 #
edge $-1 $280 2.3949858021280894 $281 5.3949858021280894 $183 $282 forward 7 unknown #
coedge $-1 $108 $107 $279 $283 reversed $42 $-1 #
edge $-1 $191 -46.159855952635276 $280 46.159855952635276 $181 $284 forward 7 unknown #
coedge $-1 $285 $286 $108 $188 forward $287 $-1 #
edge $-1 $192 -46.159855952635276 $288 46.159855952635276 $187 $289 forward 7 unknown #
coedge $-1 $290 $109 $286 $291 reversed $178 $-1 #
coedge $-1 $109 $290 $277 $292 forward $178 $-1 #
vertex $-1 $110 $293 #
vertex $-1 $188 $294 #
straight-curve $-1 46.159855952635276 9.9127955846262363 6.2899716042561788 0 1 0 I I #
face $-1 $-1 $295 $24 $-1 $296 forward single #
loop $-1 $-1 $200 $111 #
plane-surface $-1 0 0 9.2899716042561788 0 0 1 1 0 0 forward_v I I I I #
coedge $-1 $297 $298 $199 $299 forward $112 $-1 #
coedge $-1 $199 $114 $116 $205 reversed $69 $-1 #
coedge $-1 $114 $198 $197 $299 reversed $69 $-1 #
coedge $-1 $300 $117 $114 $201 forward $195 $-1 #
edge $-1 $208 -17.117714829428152 $301 -14.264180325025542 $200 $302 forward 7 unknown #
coedge $-1 $116 $115 $297 $303 reversed $45 $-1 #
coedge $-1 $304 $305 $115 $204 forward $295 $-1 #
edge $-1 $306 -14.548007022681215 $207 -9.6932840639869386 $203 $307 forward 7 unknown #
edge $-1 $308 1.2080531203272332e-014 $208 4.854722958694289 $198 $309 forward 7 unknown #
coedge $-1 $117 $300 $304 $310 forward $195 $-1 #
vertex $-1 $204 $311 #
vertex $-1 $118 $312 #
straight-curve $-1 -43.306321448232666 -6.3796946715430369 9.2899716042561788 0 1 0 I I #
coedge $-1 $210 $210 $-1 $313 reversed $121 $-1 #
edge $-1 $314 0 $314 6.2831853071796004 $122 $315 forward 7 unknown #
vertex $-1 $125 $316 #
ellipse-curve $-1 -44.733088700433974 -14.561003646898381 7.3261948961082606 -0.80901700255871778 0 0.5877852410284794 0.2938926205142397 0 0.40450850127935889 1 I I #
coedge $-1 $214 $214 $-1 $317 reversed $128 $-1 #
edge $-1 $318 0 $318 6.2831853071796004 $129 $319 forward 7 unknown #
vertex $-1 $132 $320 #
ellipse-curve $-1 -44.733088700433974 -12.759389343086074 7.3261948961082606 -0.80901700255871778 0 0.5877852410284794 0.2938926205142397 0 0.40450850127935889 1 I I #
coedge $-1 $218 $218 $-1 $321 reversed $135 $-1 #
edge $-1 $322 0 $322 6.2831853071796004 $136 $323 forward 7 unknown #
vertex $-1 $139 $324 #
ellipse-curve $-1 -44.733088700433974 -10.957775039273766 7.3261948961082606 -0.80901700255871778 0 0.5877852410284794 0.2938926205142397 0 0.40450850127935889 1 I I #
face $-1 $-1 $155 $21 $-1 $325 reversed single #
loop $-1 $-1 $238 $140 #
plane-surface $-1 0 23.889102489065028 0 0 -1 0 0 0 -1 forward_v I I I I #
coedge $-1 $326 $236 $239 $327 forward $141 $-1 #
coedge $-1 $242 $143 $144 $230 reversed $88 $-1 #
coedge $-1 $236 $326 $143 $228 reversed $141 $-1 #
edge $-1 $243 -9.2899716042561788 $328 9.2899716042561788 $227 $329 forward 7 unknown #
coedge $-1 $145 $144 $326 $330 forward $57 $-1 #
edge $-1 $234 -46.159855952635276 $328 46.159855952635276 $226 $331 forward 7 unknown #
coedge $-1 $239 $238 $145 $232 reversed $223 $-1 #
edge $-1 $332 -46.159855952635276 $233 46.159855952635276 $231 $333 forward 7 unknown #
vertex $-1 $147 $334 #
vertex $-1 $245 $335 #
straight-curve $-1 46.159855952635276 0 -9.2899716042561788 0 -1 0 I I #
coedge $-1 $225 $227 $148 $237 reversed $141 $-1 #
edge $-1 $240 -23.889102489065028 $243 23.889102489065028 $236 $336 forward 7 unknown #
coedge $-1 $231 $149 $154 $246 forward $223 $-1 #
coedge $-1 $149 $231 $225 $327 reversed $223 $-1 #
vertex $-1 $150 $337 #
straight-curve $-1 0 23.889102489065028 9.2899716042561788 -1 0 0 I I #
coedge $-1 $151 $226 $153 $245 reversed $88 $-1 #
vertex $-1 $237 $338 #
straight-curve $-1 0 -23.889102489065028 9.2899716042561788 1 0 0 I I #
edge $-1 $156 -9.2899716042561788 $234 9.2899716042561788 $153 $339 forward 7 unknown #
edge $-1 $157 -9.2899716042561788 $233 9.2899716042561788 $154 $340 forward 7 unknown #
point $-1 46.159855952635276 -23.889102489065028 9.2899716042561788 #
point $-1 46.159855952635276 23.889102489065028 9.2899716042561788 #
face $-1 $-1 $258 $22 $-1 $341 reversed single #
plane-surface $-1 0 0 9.2899716042561788 0 0 1 1 0 0 forward_v I I I I #
coedge $-1 $342 $343 $163 $255 forward $160 $-1 #
coedge $-1 $344 $162 $254 $345 forward $96 $-1 #
coedge $-1 $162 $344 $171 $267 reversed $96 $-1 #
coedge $-1 $164 $163 $252 $345 reversed $61 $-1 #
edge $-1 $346 -46.159855952635276 $259 46.159855952635276 $251 $347 forward 7 unknown #
edge $-1 $264 -46.159855952635276 $260 46.159855952635276 $167 $348 forward 7 unknown #
coedge $-1 $165 $262 $342 $349 forward $258 $-1 #
loop $-1 $-1 $168 $249 #
vertex $-1 $255 $350 #
vertex $-1 $166 $351 #
straight-curve $-1 46.159855952635276 -9.9127955846262363 6.2899716042561788 0 1 0 I I #
coedge $-1 $257 $168 $172 $268 reversed $258 $-1 #
straight-curve $-1 46.159855952635276 -15.762079849439917 3.8949858021280894 0 0 1 I I #
vertex $-1 $345 $352 #
straight-curve $-1 -46.159855952635276 -15.762079849439917 3.8949858021280894 0 0 -1 I I #
coedge $-1 $172 $171 $353 $354 forward $173 $-1 #
edge $-1 $175 15.762079849439917 $355 23.889102489065028 $253 $356 forward 7 unknown #
edge $-1 $357 -23.889102489065028 $174 -15.762079849439917 $262 $358 forward 7 unknown #
point $-1 46.159855952635276 -15.762079849439917 9.2899716042561788 #
point $-1 -46.159855952635276 -15.762079849439917 9.2899716042561788 #
face $-1 $-1 $287 $23 $-1 $359 reversed single #
loop $-1 $-1 $183 $177 #
plane-surface $-1 -46.159855952635276 0 0 1 0 0 0 0 -1 forward_v I I I I #
coedge $-1 $360 $180 $290 $361 forward $104 $-1 #
coedge $-1 $180 $360 $278 $362 forward $104 $-1 #
edge $-1 $281 -46.159855952635276 $363 46.159855952635276 $180 $364 forward 7 unknown #
coedge $-1 $182 $181 $190 $292 reversed $65 $-1 #
coedge $-1 $365 $183 $275 $362 reversed $272 $-1 #
coedge $-1 $183 $365 $185 $283 forward $272 $-1 #
vertex $-1 $283 $366 #
vertex $-1 $184 $367 #
straight-curve $-1 -46.159855952635276 15.762079849439917 3.8949858021280894 0 0 1 I I #
edge $-1 $288 -13.976306904438792 $280 -5.8492842648136811 $279 $368 forward 7 unknown #
straight-curve $-1 0 15.762079849439917 6.2899716042561788 -1 0 0 I I #
coedge $-1 $369 $187 $365 $370 reversed $287 $-1 #
coedge $-1 $187 $369 $189 $291 forward $287 $-1 #
loop $-1 $-1 $187 $271 #
vertex $-1 $188 $371 #
straight-curve $-1 0 23.889102489065028 6.2899716042561788 -1 0 0 I I #
coedge $-1 $190 $189 $274 $361 reversed $178 $-1 #
edge $-1 $372 -9.2899716042561788 $192 -6.2899716042561788 $189 $373 forward 7 unknown #
edge $-1 $363 -5.3949858021280894 $191 -2.3949858021280894 $190 $374 forward 7 unknown #
point $-1 46.159855952635276 15.762079849439917 6.2899716042561788 #
point $-1 46.159855952635276 23.889102489065028 6.2899716042561788 #
loop $-1 $-1 $203 $194 #
plane-surface $-1 0 -15.762079849439917 7.7899716042561788 0 -1 0 0 0 -1 forward_v I I I I #
coedge $-1 $375 $197 $202 $303 forward $112 $-1 #
coedge $-1 $197 $375 $300 $376 reversed $112 $-1 #
edge $-1 $301 20.523319546683602 $308 24.450872962979435 $197 $377 forward 7 unknown #
coedge $-1 $206 $200 $298 $376 forward $195 $-1 #
vertex $-1 $376 $378 #
straight-curve $-1 -60.424036277660818 -9.7566988367322303 9.2899716042561806 -1 0 0 I I #
edge $-1 $308 3.3770041651891933 $306 9.3823851778968805 $297 $379 forward 7 unknown #
coedge $-1 $305 $203 $206 $310 reversed $295 $-1 #
coedge $-1 $203 $304 $375 $380 reversed $295 $-1 #
vertex $-1 $380 $381 #
straight-curve $-1 -37.60875213832459 -15.762079849439917 17.132003222653083 0.5877852410284794 0 0.80901700255871778 I I #
vertex $-1 $303 $382 #
straight-curve $-1 -46.159855952635283 -9.7566988367322303 5.362418187960337 0.5877852410284794 0 0.80901700255871778 I I #
edge $-1 $383 -46.159855952635276 $207 -43.306321448232666 $206 $384 forward 7 unknown #
point $-1 -43.306321448232666 -15.762079849439917 9.2899716042561788 #
point $-1 -43.306321448232666 -9.7566988367322303 9.2899716042561788 #
edge $-1 $385 1 $385 0 $210 $-1 forward 7 unknown #
vertex $-1 $211 $386 #
ellipse-curve $-1 -43.549919543061726 -14.561003646898381 6.4665722106220764 -0.80901700255871778 0 0.5877852410284794 0.2938926205142397 0 0.40450850127935889 1 I I #
point $-1 -44.439196079919732 -14.561003646898381 7.730703397387618 #
edge $-1 $387 1 $387 0 $214 $-1 forward 7 unknown #
vertex $-1 $215 $388 #
ellipse-curve $-1 -43.549919543061726 -12.759389343086074 6.4665722106220764 -0.80901700255871778 0 0.5877852410284794 0.2938926205142397 0 0.40450850127935889 1 I I #
point $-1 -44.439196079919732 -12.759389343086074 7.730703397387618 #
edge $-1 $389 1 $389 0 $218 $-1 forward 7 unknown #
vertex $-1 $219 $390 #
ellipse-curve $-1 -43.549919543061726 -10.957775039273766 6.4665722106220764 -0.80901700255871778 0 0.5877852410284794 0.2938926205142397 0 0.40450850127935889 1 I I #
point $-1 -44.439196079919732 -10.957775039273766 7.730703397387618 #
plane-surface $-1 46.159855952635276 0 0 -1 0 0 0 0 1 forward_v I I I I #
coedge $-1 $227 $225 $229 $330 reversed $141 $-1 #
edge $-1 $240 -9.2899716042561788 $332 9.2899716042561788 $239 $391 forward 7 unknown #
vertex $-1 $330 $392 #
straight-curve $-1 -46.159855952635276 -23.889102489065028 0 0 0 -1 I I #
edge $-1 $328 -23.889102489065028 $332 23.889102489065028 $326 $393 forward 7 unknown #
straight-curve $-1 0 -23.889102489065028 -9.2899716042561788 -1 0 0 I I #
vertex $-1 $232 $394 #
straight-curve $-1 0 23.889102489065028 -9.2899716042561788 1 0 0 I I #
point $-1 46.159855952635276 23.889102489065028 -9.2899716042561788 #
point $-1 46.159855952635276 -23.889102489065028 -9.2899716042561788 #
straight-curve $-1 -46.159855952635276 0 9.2899716042561788 0 -1 0 I I #
point $-1 -46.159855952635276 23.889102489065028 9.2899716042561788 #
point $-1 -46.159855952635276 -23.889102489065028 9.2899716042561788 #
straight-curve $-1 46.159855952635276 -23.889102489065028 0 0 0 -1 I I #
straight-curve $-1 46.159855952635276 23.889102489065028 0 0 0 -1 I I #
plane-surface $-1 46.159855952635276 0 0 -1 0 0 0 0 1 forward_v I I I I #
coedge $-1 $353 $251 $257 $349 reversed $160 $-1 #
coedge $-1 $251 $353 $344 $395 forward $160 $-1 #
coedge $-1 $253 $252 $343 $395 reversed $96 $-1 #
edge $-1 $264 5.8492842648136811 $346 13.976306904438792 $252 $396 forward 7 unknown #
vertex $-1 $255 $397 #
straight-curve $-1 0 -23.889102489065028 6.2899716042561788 1 0 0 I I #
straight-curve $-1 0 -15.762079849439917 6.2899716042561788 1 0 0 I I #
edge $-1 $357 -9.2899716042561788 $259 -6.2899716042561788 $257 $398 forward 7 unknown #
point $-1 46.159855952635276 -23.889102489065028 6.2899716042561788 #
point $-1 46.159855952635276 -15.762079849439917 6.2899716042561788 #
point $-1 -46.159855952635276 -15.762079849439917 6.2899716042561788 #
coedge $-1 $343 $342 $266 $354 reversed $160 $-1 #
edge $-1 $355 -46.159855952635276 $357 46.159855952635276 $353 $399 forward 7 unknown #
vertex $-1 $267 $400 #
straight-curve $-1 -46.159855952635276 0 9.2899716042561788 0 -1 0 I I #
vertex $-1 $268 $401 #
straight-curve $-1 46.159855952635276 0 9.2899716042561788 0 1 0 I I #
plane-surface $-1 0 23.889102489065028 0 0 -1 0 0 0 -1 forward_v I I I I #
coedge $-1 $275 $274 $369 $402 forward $104 $-1 #
edge $-1 $363 15.762079849439917 $372 23.889102489065028 $290 $403 forward 7 unknown #
edge $-1 $404 -23.889102489065028 $281 -15.762079849439917 $278 $405 forward 7 unknown #
vertex $-1 $361 $406 #
straight-curve $-1 0 15.762079849439917 9.2899716042561788 1 0 0 I I #
coedge $-1 $279 $278 $285 $370 forward $272 $-1 #
point $-1 -46.159855952635276 15.762079849439917 6.2899716042561788 #
point $-1 -46.159855952635276 15.762079849439917 9.2899716042561788 #
straight-curve $-1 -46.159855952635276 9.9127955846262363 6.2899716042561788 0 -1 0 I I #
coedge $-1 $286 $285 $360 $402 reversed $287 $-1 #
edge $-1 $404 -9.2899716042561788 $288 -6.2899716042561788 $285 $407 forward 7 unknown #
point $-1 -46.159855952635276 23.889102489065028 6.2899716042561788 #
vertex $-1 $361 $408 #
straight-curve $-1 46.159855952635276 23.889102489065028 0 0 0 -1 I I #
straight-curve $-1 46.159855952635276 15.762079849439917 3.8949858021280894 0 0 -1 I I #
coedge $-1 $298 $297 $305 $380 forward $112 $-1 #
edge $-1 $301 9.7566988367322303 $383 15.762079849439917 $298 $409 forward 7 unknown #
straight-curve $-1 -46.159855952635276 -9.7566988367322303 29.813291150939783 0 0 -1 I I #
point $-1 -46.159855952635276 -9.7566988367322303 9.2899716042561788 #
straight-curve $-1 -46.159855952635276 -6.3796946715430369 5.3624181879603565 0 -1 0 I I #
edge $-1 $306 -24.450872962979435 $383 -20.523319546683602 $375 $410 forward 7 unknown #
point $-1 -46.159855952635276 -15.762079849439917 5.3624181879603467 #
point $-1 -46.159855952635276 -9.7566988367322303 5.3624181879603467 #
vertex $-1 $380 $411 #
straight-curve $-1 0 -15.762079849439917 9.2899716042561788 1 0 0 I I #
vertex $-1 $313 $412 #
point $-1 -43.256026922547491 -14.561003646898381 6.8710807119014348 #
vertex $-1 $317 $413 #
point $-1 -43.256026922547491 -12.759389343086074 6.8710807119014348 #
vertex $-1 $321 $414 #
point $-1 -43.256026922547491 -10.957775039273766 6.8710807119014348 #
straight-curve $-1 -46.159855952635276 23.889102489065028 0 0 0 -1 I I #
point $-1 -46.159855952635276 -23.889102489065028 -9.2899716042561788 #
straight-curve $-1 -46.159855952635276 0 -9.2899716042561788 0 1 0 I I #
point $-1 -46.159855952635276 23.889102489065028 -9.2899716042561788 #
edge $-1 $355 -9.2899716042561788 $346 -6.2899716042561788 $344 $415 forward 7 unknown #
straight-curve $-1 -46.159855952635276 -9.9127955846262363 6.2899716042561788 0 -1 0 I I #
point $-1 -46.159855952635276 -23.889102489065028 6.2899716042561788 #
straight-curve $-1 46.159855952635276 -23.889102489065028 0 0 0 -1 I I #
straight-curve $-1 0 -23.889102489065028 9.2899716042561788 1 0 0 I I #
point $-1 -46.159855952635276 -23.889102489065028 9.2899716042561788 #
point $-1 46.159855952635276 -23.889102489065028 9.2899716042561788 #
edge $-1 $372 -46.159855952635276 $404 46.159855952635276 $369 $416 forward 7 unknown #
straight-curve $-1 46.159855952635276 0 9.2899716042561788 0 1 0 I I #
vertex $-1 $402 $417 #
straight-curve $-1 -46.159855952635276 0 9.2899716042561788 0 -1 0 I I #
point $-1 46.159855952635276 15.762079849439917 9.2899716042561788 #
straight-curve $-1 -46.159855952635276 23.889102489065028 0 0 0 -1 I I #
point $-1 46.159855952635276 23.889102489065028 9.2899716042561788 #
straight-curve $-1 -46.159855952635276 0 9.2899716042561788 0 -1 0 I I #
straight-curve $-1 -46.159855952635276 -15.762079849439917 29.813291150939783 0 0 1 I I #
point $-1 -46.159855952635276 -15.762079849439917 9.2899716042561788 #
point $-1 -43.145411041782374 -14.561003646898381 6.172679590107836 #
point $-1 -43.145411041782374 -12.759389343086074 6.172679590107836 #
point $-1 -43.145411041782374 -10.957775039273766 6.172679590107836 #
straight-curve $-1 -46.159855952635276 -23.889102489065028 0 0 0 -1 I I #
straight-curve $-1 0 23.889102489065028 9.2899716042561788 -1 0 0 I I #
point $-1 -46.159855952635276 23.889102489065028 9.2899716042561788 #
End-of-ACIS-data 