500 0 6 0           
7 Unknown 11 ACIS 5.0 NT 24 Fri Mar 26 18:37:36 1999 
-1 9.9999999999999995e-007 1e-010 
body $-1 $6 $-1 $7 #
body $-1 $8 $-1 $9 #
body $-1 $10 $-1 $11 #
body $-1 $12 $-1 $13 #
body $-1 $14 $-1 $15 #
body $-1 $16 $-1 $17 #
lump $-1 $-1 $18 $0 #
transform $-1 1 0 0 0 1 0 0 0 1 50.508133182775353 21.321871158505203 10.109652604140885 1 rotate no_reflect no_shear #
lump $-1 $-1 $19 $1 #
transform $-1 1 0 0 0 1 0 0 0 1 50.508133182775353 21.321871158505203 10.109652604140885 1 rotate no_reflect no_shear #
lump $-1 $-1 $20 $2 #
transform $-1 1 0 0 0 1 0 0 0 1 50.508133182775353 21.321871158505203 10.109652604140885 1 rotate no_reflect no_shear #
lump $-1 $-1 $21 $3 #
transform $-1 1 0 0 0 1 0 0 0 1 50.508133182775353 21.321871158505203 10.109652604140885 1 rotate no_reflect no_shear #
lump $-1 $-1 $22 $4 #
transform $-1 1 0 0 0 1 0 0 0 1 50.508133182775353 21.321871158505203 10.109652604140885 1 rotate no_reflect no_shear #
lump $-1 $-1 $23 $5 #
transform $-1 1 0 0 0 1 0 0 0 1 50.508133182775353 21.321871158505203 10.109652604140885 1 rotate no_reflect no_shear #
shell $-1 $-1 $-1 $24 $-1 $6 #
shell $-1 $-1 $-1 $25 $-1 $8 #
shell $-1 $-1 $-1 $26 $-1 $10 #
shell $-1 $-1 $-1 $27 $-1 $12 #
shell $-1 $-1 $-1 $28 $-1 $14 #
shell $-1 $-1 $-1 $29 $-1 $16 #
face $-1 $30 $31 $18 $-1 $32 forward single #
face $-1 $33 $34 $19 $-1 $35 reversed single #
face $-1 $36 $37 $20 $-1 $38 reversed single #
face $-1 $39 $40 $21 $-1 $41 reversed single #
face $-1 $42 $43 $22 $-1 $44 forward single #
face $-1 $45 $46 $23 $-1 $47 forward single #
face $-1 $48 $49 $18 $-1 $50 reversed single #
loop $-1 $-1 $51 $24 #
plane-surface $-1 0 0 10.109652604140885 0 0 1 1 0 0 forward_v I I I I #
face $-1 $52 $53 $19 $-1 $54 reversed single #
loop $-1 $-1 $55 $25 #
plane-surface $-1 0 -16.521478466973743 5.0320258220922316 0 0 1 1 0 0 forward_v I I I I #
face $-1 $56 $57 $20 $-1 $58 reversed single #
loop $-1 $-1 $59 $26 #
plane-surface $-1 0 16.521478466973747 5.0320258220922316 0 0 1 1 0 0 forward_v I I I I #
face $-1 $60 $61 $21 $-1 $62 reversed single #
loop $-1 $-1 $63 $27 #
plane-surface $-1 -50.508133182775367 -8.5166480772954749 1.9616800193498989 -0.69465837861970381 0 0.71933979245794832 0.71933979245794832 0 0.69465837861970381 forward_v I I I I #
face $-1 $64 $65 $22 $-1 $66 forward single #
loop $-1 $67 $68 $28 #
cone-surface $-1 -45.931754015513746 -9.889978519358392 5.665316194286798 0.69465837861970381 0 -0.71933979245794832 0.35966989622897416 0 0.3473291893098519 1 I I 0 1 0.5 forward I I I I #
face $-1 $69 $70 $23 $-1 $71 forward single #
loop $-1 $72 $73 $29 #
cone-surface $-1 -45.931754015513746 -7.143317635232556 5.665316194286798 0.69465837861970381 0 -0.71933979245794832 0.35966989622897416 0 0.3473291893098519 1 I I 0 1 0.5 forward I I I I #
face $-1 $74 $75 $18 $-1 $76 reversed single #
loop $-1 $-1 $77 $30 #
plane-surface $-1 0 0 -10.109652604140885 0 0 1 1 0 0 forward_v I I I I #
coedge $-1 $78 $79 $80 $81 forward $31 $-1 #
face $-1 $82 $83 $19 $-1 $84 reversed single #
loop $-1 $-1 $85 $33 #
plane-surface $-1 0 -11.721085775442283 7.5708392131165585 0 -1 0 0 0 -1 forward_v I I I I #
coedge $-1 $86 $87 $88 $89 reversed $34 $-1 #
face $-1 $90 $91 $20 $-1 $92 forward single #
loop $-1 $-1 $93 $36 #
plane-surface $-1 0 11.721085775442287 7.5708392131165585 0 1 0 0 0 1 forward_v I I I I #
coedge $-1 $94 $95 $96 $97 reversed $37 $-1 #
face $-1 $98 $99 $21 $-1 $100 reversed single #
loop $-1 $-1 $101 $39 #
plane-surface $-1 -120.67992899048494 -5.3122103791486674 74.626700101621964 0 -1 0 0.69465837861970381 0 -0.71933979245794832 forward_v I I I I #
coedge $-1 $102 $103 $104 $105 reversed $40 $-1 #
face $-1 $-1 $106 $22 $-1 $107 forward single #
loop $-1 $108 $109 $42 #
cone-surface $-1 -45.400446461560918 -9.889978519358392 5.1151311287137222 0.69465837861970381 0 -0.71933979245794832 0.17983494811448708 0 0.17366459465492595 1 I I -0.70710678118654746 0.70710678118654746 0.25 forward I I I I #
loop $-1 $-1 $110 $28 #
coedge $-1 $68 $68 $111 $112 reversed $43 $-1 #
face $-1 $-1 $113 $23 $-1 $114 forward single #
loop $-1 $115 $116 $45 #
cone-surface $-1 -45.400446461560918 -7.143317635232556 5.1151311287137222 0.69465837861970381 0 -0.71933979245794832 0.17983494811448708 0 0.17366459465492595 1 I I -0.70710678118654746 0.70710678118654746 0.25 forward I I I I #
loop $-1 $-1 $117 $29 #
coedge $-1 $73 $73 $118 $119 reversed $46 $-1 #
face $-1 $120 $121 $18 $-1 $122 reversed single #
loop $-1 $-1 $123 $48 #
plane-surface $-1 0 -21.321871158505203 0 0 1 0 0 0 1 forward_v I I I I #
coedge $-1 $124 $125 $126 $127 forward $49 $-1 #
coedge $-1 $128 $51 $129 $130 forward $31 $-1 #
coedge $-1 $51 $128 $131 $132 forward $31 $-1 #
coedge $-1 $133 $134 $51 $81 reversed $135 $-1 #
edge $-1 $136 -21.321871158505203 $137 21.321871158505203 $80 $138 forward 7 unknown #
face $-1 $139 $140 $19 $-1 $141 reversed single #
loop $-1 $-1 $142 $52 #
plane-surface $-1 -50.508133182775353 0 0 1 0 0 0 0 -1 forward_v I I I I #
coedge $-1 $143 $144 $145 $146 reversed $53 $-1 #
coedge $-1 $147 $55 $148 $149 reversed $34 $-1 #
coedge $-1 $55 $147 $143 $150 forward $34 $-1 #
coedge $-1 $145 $151 $55 $89 forward $152 $-1 #
edge $-1 $153 -13.061131925018332 $154 -3.4603465419554116 $88 $155 forward 7 unknown #
face $-1 $156 $157 $20 $-1 $158 reversed single #
loop $-1 $-1 $159 $56 #
plane-surface $-1 0 0 10.109652604140885 0 0 1 1 0 0 forward_v I I I I #
coedge $-1 $160 $161 $162 $163 reversed $57 $-1 #
coedge $-1 $164 $59 $160 $165 forward $37 $-1 #
coedge $-1 $59 $164 $166 $167 reversed $37 $-1 #
coedge $-1 $168 $169 $59 $97 forward $157 $-1 #
edge $-1 $170 3.4603465419554134 $171 13.061131925018334 $96 $172 forward 7 unknown #
face $-1 $173 $174 $21 $-1 $175 forward single #
loop $-1 $-1 $176 $60 #
plane-surface $-1 -50.508133182775353 0 0 1 0 0 0 0 -1 forward_v I I I I #
coedge $-1 $177 $178 $179 $180 reversed $61 $-1 #
coedge $-1 $181 $63 $182 $183 reversed $40 $-1 #
coedge $-1 $63 $181 $177 $184 forward $40 $-1 #
coedge $-1 $179 $185 $63 $105 forward $174 $-1 #
edge $-1 $186 -7.4627617367945458 $187 -1.05388634050093 $104 $188 forward 7 unknown #
loop $-1 $-1 $111 $64 #
plane-surface $-1 -50.508133182775367 -8.5166480772954749 1.9616800193498989 -0.69465837861970381 0 0.71933979245794832 0.71933979245794832 0 0.69465837861970381 forward_v I I I I #
loop $-1 $-1 $189 $42 #
coedge $-1 $109 $109 $110 $190 reversed $65 $-1 #
coedge $-1 $110 $110 $109 $190 forward $67 $-1 #
coedge $-1 $111 $111 $68 $112 forward $106 $-1 #
edge $-1 $191 0 $191 6.2831853071796004 $111 $192 forward 7 unknown #
loop $-1 $-1 $118 $69 #
plane-surface $-1 -50.508133182775367 -8.5166480772954749 1.9616800193498989 -0.69465837861970381 0 0.71933979245794832 0.71933979245794832 0 0.69465837861970381 forward_v I I I I #
loop $-1 $-1 $193 $45 #
coedge $-1 $116 $116 $117 $194 reversed $70 $-1 #
coedge $-1 $117 $117 $116 $194 forward $72 $-1 #
coedge $-1 $118 $118 $73 $119 forward $113 $-1 #
edge $-1 $195 0 $195 6.2831853071796004 $118 $196 forward 7 unknown #
face $-1 $197 $198 $18 $-1 $199 reversed single #
loop $-1 $-1 $200 $74 #
plane-surface $-1 -50.508133182775353 0 0 1 0 0 0 0 -1 forward_v I I I I #
coedge $-1 $201 $131 $202 $203 forward $75 $-1 #
coedge $-1 $204 $77 $201 $205 forward $49 $-1 #
coedge $-1 $77 $204 $206 $207 forward $49 $-1 #
coedge $-1 $134 $133 $77 $127 reversed $135 $-1 #
edge $-1 $208 -21.321871158505203 $209 21.321871158505203 $126 $210 forward 7 unknown #
coedge $-1 $79 $78 $211 $212 forward $31 $-1 #
coedge $-1 $213 $214 $78 $130 reversed $198 $-1 #
edge $-1 $137 -50.508133182775353 $215 50.508133182775353 $129 $216 forward 7 unknown #
coedge $-1 $123 $217 $79 $132 reversed $75 $-1 #
edge $-1 $218 -50.508133182775353 $136 50.508133182775353 $131 $219 forward 7 unknown #
coedge $-1 $126 $80 $217 $220 forward $135 $-1 #
coedge $-1 $80 $126 $213 $221 reversed $135 $-1 #
loop $-1 $-1 $133 $197 #
vertex $-1 $81 $222 #
vertex $-1 $81 $223 #
straight-curve $-1 50.508133182775353 0 10.109652604140885 0 1 0 I I #
face $-1 $224 $225 $19 $-1 $226 forward single #
loop $-1 $-1 $148 $82 #
plane-surface $-1 0 -21.321871158505203 0 0 1 0 0 0 1 forward_v I I I I #
coedge $-1 $227 $228 $229 $230 forward $83 $-1 #
coedge $-1 $229 $85 $87 $150 reversed $53 $-1 #
coedge $-1 $85 $229 $231 $232 reversed $53 $-1 #
coedge $-1 $233 $88 $85 $146 forward $152 $-1 #
edge $-1 $154 1.2466062155339523 $234 6.3242329975826062 $145 $235 forward 7 unknown #
coedge $-1 $87 $86 $227 $236 reversed $34 $-1 #
coedge $-1 $237 $238 $86 $149 forward $140 $-1 #
edge $-1 $239 -50.508133182775353 $153 50.508133182775353 $148 $240 forward 7 unknown #
edge $-1 $241 -50.508133182775353 $154 50.508133182775353 $143 $242 forward 7 unknown #
coedge $-1 $88 $233 $237 $243 forward $152 $-1 #
loop $-1 $-1 $145 $224 #
vertex $-1 $149 $244 #
vertex $-1 $89 $245 #
straight-curve $-1 50.508133182775353 -8.2607392334868717 5.0320258220922316 0 1 0 I I #
face $-1 $246 $247 $20 $-1 $248 reversed single #
loop $-1 $-1 $169 $90 #
plane-surface $-1 50.508133182775353 0 0 -1 0 0 0 0 1 forward_v I I I I #
coedge $-1 $249 $250 $161 $251 forward $91 $-1 #
coedge $-1 $252 $93 $94 $165 reversed $57 $-1 #
coedge $-1 $93 $252 $159 $251 reversed $57 $-1 #
coedge $-1 $253 $254 $93 $163 forward $247 $-1 #
edge $-1 $255 1.2466062155339523 $256 6.3242329975826062 $162 $257 forward 7 unknown #
coedge $-1 $95 $94 $254 $258 reversed $37 $-1 #
edge $-1 $170 -50.508133182775353 $255 50.508133182775353 $160 $259 forward 7 unknown #
coedge $-1 $260 $261 $95 $167 forward $262 $-1 #
edge $-1 $171 -50.508133182775353 $263 50.508133182775353 $166 $264 forward 7 unknown #
coedge $-1 $265 $96 $261 $266 reversed $157 $-1 #
coedge $-1 $96 $265 $252 $267 forward $157 $-1 #
vertex $-1 $97 $268 #
vertex $-1 $167 $269 #
straight-curve $-1 50.508133182775353 8.2607392334868734 5.0320258220922316 0 1 0 I I #
face $-1 $-1 $270 $21 $-1 $271 forward single #
loop $-1 $-1 $179 $98 #
plane-surface $-1 0 0 10.109652604140885 0 0 1 1 0 0 forward_v I I I I #
coedge $-1 $272 $273 $178 $274 forward $99 $-1 #
coedge $-1 $178 $101 $103 $184 reversed $61 $-1 #
coedge $-1 $101 $177 $176 $274 reversed $61 $-1 #
coedge $-1 $275 $104 $101 $180 forward $174 $-1 #
edge $-1 $187 -18.269303728394497 $276 -9.8318313124671164 $179 $277 forward 7 unknown #
coedge $-1 $103 $102 $272 $278 reversed $40 $-1 #
coedge $-1 $279 $280 $102 $183 forward $270 $-1 #
edge $-1 $281 -20.114479736048878 $186 -8.3850126547173183 $182 $282 forward 7 unknown #
edge $-1 $283 1.9785632286268914e-014 $187 11.729467081331581 $177 $284 forward 7 unknown #
coedge $-1 $104 $275 $279 $285 forward $174 $-1 #
vertex $-1 $183 $286 #
vertex $-1 $105 $287 #
straight-curve $-1 -42.070660766847972 -4.2583240386477375 10.109652604140885 0 1 0 I I #
coedge $-1 $189 $189 $-1 $288 reversed $108 $-1 #
edge $-1 $289 0 $289 6.2831853071796004 $109 $290 forward 7 unknown #
vertex $-1 $112 $291 #
ellipse-curve $-1 -46.289396974811659 -9.889978519358392 6.0356663117453992 -0.69465837861970381 0 0.71933979245794832 0.35966989622897416 0 0.3473291893098519 1 I I #
coedge $-1 $193 $193 $-1 $292 reversed $115 $-1 #
edge $-1 $293 0 $293 6.2831853071796004 $116 $294 forward 7 unknown #
vertex $-1 $119 $295 #
ellipse-curve $-1 -46.289396974811659 -7.143317635232556 6.0356663117453992 -0.69465837861970381 0 0.71933979245794832 0.35966989622897416 0 0.3473291893098519 1 I I #
face $-1 $-1 $135 $18 $-1 $296 reversed single #
loop $-1 $-1 $213 $120 #
plane-surface $-1 0 21.321871158505203 0 0 -1 0 0 0 -1 forward_v I I I I #
coedge $-1 $297 $211 $214 $298 forward $121 $-1 #
coedge $-1 $217 $123 $124 $205 reversed $75 $-1 #
coedge $-1 $211 $297 $123 $203 reversed $121 $-1 #
edge $-1 $218 -10.109652604140885 $299 10.109652604140885 $202 $300 forward 7 unknown #
coedge $-1 $125 $124 $297 $301 forward $49 $-1 #
edge $-1 $209 -50.508133182775353 $299 50.508133182775353 $201 $302 forward 7 unknown #
coedge $-1 $214 $213 $125 $207 reversed $198 $-1 #
edge $-1 $303 -50.508133182775353 $208 50.508133182775353 $206 $304 forward 7 unknown #
vertex $-1 $127 $305 #
vertex $-1 $220 $306 #
straight-curve $-1 50.508133182775353 0 -10.109652604140885 0 -1 0 I I #
coedge $-1 $200 $202 $128 $212 reversed $121 $-1 #
edge $-1 $215 -21.321871158505203 $218 21.321871158505203 $211 $307 forward 7 unknown #
coedge $-1 $206 $129 $134 $221 forward $198 $-1 #
coedge $-1 $129 $206 $200 $298 reversed $198 $-1 #
vertex $-1 $130 $308 #
straight-curve $-1 0 21.321871158505203 10.109652604140885 -1 0 0 I I #
coedge $-1 $131 $201 $133 $220 reversed $75 $-1 #
vertex $-1 $212 $309 #
straight-curve $-1 0 -21.321871158505203 10.109652604140885 1 0 0 I I #
edge $-1 $136 -10.109652604140885 $209 10.109652604140885 $133 $310 forward 7 unknown #
edge $-1 $137 -10.109652604140885 $208 10.109652604140885 $134 $311 forward 7 unknown #
point $-1 50.508133182775353 -21.321871158505203 10.109652604140885 #
point $-1 50.508133182775353 21.321871158505203 10.109652604140885 #
face $-1 $-1 $152 $19 $-1 $312 reversed single #
loop $-1 $-1 $231 $139 #
plane-surface $-1 0 0 10.109652604140885 0 0 1 1 0 0 forward_v I I I I #
coedge $-1 $313 $142 $147 $236 forward $83 $-1 #
coedge $-1 $142 $313 $314 $315 reversed $83 $-1 #
coedge $-1 $144 $143 $142 $230 reversed $53 $-1 #
edge $-1 $316 -6.3242329975826062 $241 -1.2466062155339523 $142 $317 forward 7 unknown #
coedge $-1 $314 $318 $144 $232 forward $225 $-1 #
edge $-1 $234 -50.508133182775353 $316 50.508133182775353 $231 $319 forward 7 unknown #
coedge $-1 $151 $145 $318 $320 reversed $152 $-1 #
vertex $-1 $146 $321 #
straight-curve $-1 50.508133182775353 -11.721085775442283 3.7854196065582792 0 0 1 I I #
edge $-1 $241 3.4603465419554116 $239 13.061131925018332 $227 $322 forward 7 unknown #
coedge $-1 $323 $148 $151 $243 reversed $140 $-1 #
coedge $-1 $148 $323 $313 $324 forward $140 $-1 #
vertex $-1 $149 $325 #
straight-curve $-1 0 -21.321871158505203 5.0320258220922316 1 0 0 I I #
vertex $-1 $236 $326 #
straight-curve $-1 0 -11.721085775442283 5.0320258220922316 1 0 0 I I #
edge $-1 $327 -10.109652604140885 $153 -5.0320258220922316 $151 $328 forward 7 unknown #
point $-1 50.508133182775353 -21.321871158505203 5.0320258220922316 #
point $-1 50.508133182775353 -11.721085775442283 5.0320258220922316 #
face $-1 $-1 $262 $20 $-1 $329 reversed single #
loop $-1 $-1 $162 $156 #
plane-surface $-1 -50.508133182775353 0 0 1 0 0 0 0 -1 forward_v I I I I #
coedge $-1 $330 $159 $265 $331 forward $91 $-1 #
coedge $-1 $159 $330 $253 $332 forward $91 $-1 #
edge $-1 $256 -50.508133182775353 $333 50.508133182775353 $159 $334 forward 7 unknown #
coedge $-1 $161 $160 $169 $267 reversed $57 $-1 #
coedge $-1 $335 $162 $250 $332 reversed $247 $-1 #
coedge $-1 $162 $335 $164 $258 forward $247 $-1 #
vertex $-1 $258 $336 #
vertex $-1 $163 $337 #
straight-curve $-1 -50.508133182775353 11.721085775442287 3.7854196065582792 0 0 1 I I #
edge $-1 $263 -13.061131925018334 $255 -3.4603465419554134 $254 $338 forward 7 unknown #
straight-curve $-1 0 11.721085775442287 5.0320258220922316 -1 0 0 I I #
coedge $-1 $339 $166 $335 $340 reversed $262 $-1 #
coedge $-1 $166 $339 $168 $266 forward $262 $-1 #
loop $-1 $-1 $166 $246 #
vertex $-1 $167 $341 #
straight-curve $-1 0 21.321871158505203 5.0320258220922316 -1 0 0 I I #
coedge $-1 $169 $168 $249 $331 reversed $157 $-1 #
edge $-1 $342 -10.109652604140885 $171 -5.0320258220922316 $168 $343 forward 7 unknown #
edge $-1 $333 -6.3242329975826062 $170 -1.2466062155339523 $169 $344 forward 7 unknown #
point $-1 50.508133182775353 11.721085775442287 5.0320258220922316 #
point $-1 50.508133182775353 21.321871158505207 5.0320258220922316 #
loop $-1 $-1 $182 $173 #
plane-surface $-1 0 -11.721085775442283 7.5708392131165585 0 -1 0 0 0 -1 forward_v I I I I #
coedge $-1 $345 $176 $181 $278 forward $99 $-1 #
coedge $-1 $176 $345 $275 $346 reversed $99 $-1 #
edge $-1 $276 27.203697446670098 $283 35.351670031461069 $176 $347 forward 7 unknown #
coedge $-1 $185 $179 $273 $346 forward $174 $-1 #
vertex $-1 $346 $348 #
straight-curve $-1 -60.339964495242469 -5.3122103791486674 10.109652604140884 -1 0 0 I I #
edge $-1 $283 1.05388634050093 $281 7.4627617367945458 $272 $349 forward 7 unknown #
coedge $-1 $280 $182 $185 $285 reversed $270 $-1 #
coedge $-1 $182 $279 $345 $350 reversed $270 $-1 #
vertex $-1 $350 $351 #
straight-curve $-1 -36.038987504046347 -11.721085775442283 15.934371899572518 0.71933979245794832 0 0.69465837861970381 I I #
vertex $-1 $278 $352 #
straight-curve $-1 -50.508133182775367 -5.3122103791486674 1.9616800193498989 0.71933979245794832 0 0.69465837861970381 I I #
edge $-1 $353 -50.508133182775353 $186 -42.070660766847972 $185 $354 forward 7 unknown #
point $-1 -42.070660766847972 -11.721085775442283 10.109652604140885 #
point $-1 -42.070660766847972 -5.3122103791486674 10.109652604140885 #
edge $-1 $355 1 $355 0 $189 $-1 forward 7 unknown #
vertex $-1 $190 $356 #
ellipse-curve $-1 -45.574111056215841 -9.889978519358392 5.2949660768282092 -0.69465837861970381 0 0.71933979245794832 0.35966989622897416 0 0.3473291893098519 1 I I #
point $-1 -45.92972707858268 -9.889978519358392 6.3829955010552393 #
edge $-1 $357 1 $357 0 $193 $-1 forward 7 unknown #
vertex $-1 $194 $358 #
ellipse-curve $-1 -45.574111056215841 -7.143317635232556 5.2949660768282092 -0.69465837861970381 0 0.71933979245794832 0.35966989622897416 0 0.3473291893098519 1 I I #
point $-1 -45.92972707858268 -7.143317635232556 6.3829955010552393 #
plane-surface $-1 50.508133182775353 0 0 -1 0 0 0 0 1 forward_v I I I I #
coedge $-1 $202 $200 $204 $301 reversed $121 $-1 #
edge $-1 $215 -10.109652604140885 $303 10.109652604140885 $214 $359 forward 7 unknown #
vertex $-1 $301 $360 #
straight-curve $-1 -50.508133182775353 -21.321871158505203 0 0 0 -1 I I #
edge $-1 $299 -21.321871158505203 $303 21.321871158505203 $297 $361 forward 7 unknown #
straight-curve $-1 0 -21.321871158505203 -10.109652604140885 -1 0 0 I I #
vertex $-1 $207 $362 #
straight-curve $-1 0 21.321871158505203 -10.109652604140885 1 0 0 I I #
point $-1 50.508133182775353 21.321871158505203 -10.109652604140885 #
point $-1 50.508133182775353 -21.321871158505203 -10.109652604140885 #
straight-curve $-1 -50.508133182775353 0 10.109652604140885 0 -1 0 I I #
point $-1 -50.508133182775353 21.321871158505203 10.109652604140885 #
point $-1 -50.508133182775353 -21.321871158505203 10.109652604140885 #
straight-curve $-1 50.508133182775353 -21.321871158505203 0 0 0 -1 I I #
straight-curve $-1 50.508133182775353 21.321871158505203 0 0 0 -1 I I #
plane-surface $-1 50.508133182775353 0 0 -1 0 0 0 0 1 forward_v I I I I #
coedge $-1 $228 $227 $238 $324 reversed $83 $-1 #
coedge $-1 $363 $231 $228 $315 forward $225 $-1 #
edge $-1 $316 11.721085775442283 $364 21.321871158505203 $228 $365 forward 7 unknown #
vertex $-1 $315 $366 #
straight-curve $-1 -50.508133182775353 -11.721085775442283 3.7854196065582792 0 0 -1 I I #
coedge $-1 $231 $363 $233 $320 forward $225 $-1 #
straight-curve $-1 0 -11.721085775442283 10.109652604140885 -1 0 0 I I #
edge $-1 $327 -21.321871158505203 $234 -11.721085775442283 $233 $367 forward 7 unknown #
point $-1 50.508133182775353 -11.721085775442283 10.109652604140885 #
straight-curve $-1 -50.508133182775353 -8.2607392334868717 5.0320258220922316 0 -1 0 I I #
coedge $-1 $238 $237 $363 $368 reversed $140 $-1 #
edge $-1 $364 -10.109652604140885 $239 -5.0320258220922316 $313 $369 forward 7 unknown #
point $-1 -50.508133182775353 -21.321871158505203 5.0320258220922316 #
point $-1 -50.508133182775353 -11.721085775442283 5.0320258220922316 #
vertex $-1 $320 $370 #
straight-curve $-1 50.508133182775353 -21.321871158505203 0 0 0 -1 I I #
plane-surface $-1 0 21.321871158505203 0 0 -1 0 0 0 -1 forward_v I I I I #
coedge $-1 $250 $249 $339 $371 forward $91 $-1 #
edge $-1 $333 11.721085775442287 $342 21.321871158505203 $265 $372 forward 7 unknown #
edge $-1 $373 -21.321871158505203 $256 -11.721085775442287 $253 $374 forward 7 unknown #
vertex $-1 $331 $375 #
straight-curve $-1 0 11.721085775442287 10.109652604140885 1 0 0 I I #
coedge $-1 $254 $253 $260 $340 forward $247 $-1 #
point $-1 -50.508133182775353 11.721085775442287 5.0320258220922316 #
point $-1 -50.508133182775353 11.721085775442287 10.109652604140885 #
straight-curve $-1 -50.508133182775353 8.2607392334868734 5.0320258220922316 0 -1 0 I I #
coedge $-1 $261 $260 $330 $371 reversed $262 $-1 #
edge $-1 $373 -10.109652604140885 $263 -5.0320258220922316 $260 $376 forward 7 unknown #
point $-1 -50.508133182775353 21.321871158505207 5.0320258220922316 #
vertex $-1 $331 $377 #
straight-curve $-1 50.508133182775353 21.321871158505203 0 0 0 -1 I I #
straight-curve $-1 50.508133182775353 11.721085775442287 3.7854196065582792 0 0 -1 I I #
coedge $-1 $273 $272 $280 $350 forward $99 $-1 #
edge $-1 $276 5.3122103791486674 $353 11.721085775442283 $273 $378 forward 7 unknown #
straight-curve $-1 -50.508133182775353 -5.3122103791486674 37.313350050810982 0 0 -1 I I #
point $-1 -50.508133182775353 -5.3122103791486674 10.109652604140885 #
straight-curve $-1 -50.508133182775353 -4.2583240386477375 1.9616800193499138 0 -1 0 I I #
edge $-1 $281 -35.351670031461069 $353 -27.203697446670098 $345 $379 forward 7 unknown #
point $-1 -50.508133182775353 -11.721085775442283 1.9616800193499127 #
point $-1 -50.508133182775353 -5.3122103791486674 1.9616800193499127 #
vertex $-1 $350 $380 #
straight-curve $-1 0 -11.721085775442283 10.109652604140885 1 0 0 I I #
vertex $-1 $288 $381 #
point $-1 -45.214441159986869 -9.889978519358392 5.6422952661380616 #
vertex $-1 $292 $382 #
point $-1 -45.214441159986869 -7.143317635232556 5.6422952661380616 #
straight-curve $-1 -50.508133182775353 21.321871158505203 0 0 0 -1 I I #
point $-1 -50.508133182775353 -21.321871158505203 -10.109652604140885 #
straight-curve $-1 -50.508133182775353 0 -10.109652604140885 0 1 0 I I #
point $-1 -50.508133182775353 21.321871158505203 -10.109652604140885 #
coedge $-1 $318 $314 $323 $368 forward $225 $-1 #
vertex $-1 $315 $383 #
straight-curve $-1 -50.508133182775353 0 10.109652604140885 0 -1 0 I I #
point $-1 -50.508133182775353 -11.721085775442283 10.109652604140885 #
straight-curve $-1 50.508133182775353 0 10.109652604140885 0 1 0 I I #
edge $-1 $364 -50.508133182775353 $327 50.508133182775353 $323 $384 forward 7 unknown #
straight-curve $-1 -50.508133182775353 -21.321871158505203 0 0 0 -1 I I #
point $-1 50.508133182775353 -21.321871158505203 10.109652604140885 #
edge $-1 $342 -50.508133182775353 $373 50.508133182775353 $339 $385 forward 7 unknown #
straight-curve $-1 50.508133182775353 0 10.109652604140885 0 1 0 I I #
vertex $-1 $371 $386 #
straight-curve $-1 -50.508133182775353 0 10.109652604140885 0 -1 0 I I #
point $-1 50.508133182775353 11.721085775442287 10.109652604140885 #
straight-curve $-1 -50.508133182775353 21.321871158505203 0 0 0 -1 I I #
point $-1 50.508133182775353 21.321871158505203 10.109652604140885 #
straight-curve $-1 -50.508133182775353 0 10.109652604140885 0 -1 0 I I #
straight-curve $-1 -50.508133182775353 -11.721085775442283 37.313350050810982 0 0 1 I I #
point $-1 -50.508133182775353 -11.721085775442283 10.109652604140885 #
point $-1 -45.226781866905995 -9.889978519358392 4.9352961805992352 #
point $-1 -45.226781866905995 -7.143317635232556 4.9352961805992352 #
point $-1 -50.508133182775353 -21.321871158505203 10.109652604140885 #
straight-curve $-1 0 -21.321871158505203 10.109652604140885 1 0 0 I I #
straight-curve $-1 0 21.321871158505203 10.109652604140885 -1 0 0 I I #
point $-1 -50.508133182775353 21.321871158505203 10.109652604140885 #
End-of-ACIS-data 