500 0 9 0           
7 Unknown 11 ACIS 5.0 NT 24 Thu Mar 25 18:51:00 1999 
-1 9.9999999999999995e-007 1e-010 
body $-1 $9 $-1 $10 #
body $-1 $11 $-1 $12 #
body $-1 $13 $-1 $14 #
body $-1 $15 $-1 $16 #
body $-1 $17 $-1 $18 #
body $-1 $19 $-1 $20 #
body $-1 $21 $-1 $22 #
body $-1 $23 $-1 $24 #
body $-1 $25 $-1 $26 #
lump $-1 $-1 $27 $0 #
transform $-1 1 0 0 0 1 0 0 0 1 49.846491897335738 32.1949283095326 12.287955318384579 1 rotate no_reflect no_shear #
lump $-1 $-1 $28 $1 #
transform $-1 1 0 0 0 1 0 0 0 1 49.846491897335738 32.1949283095326 12.287955318384579 1 rotate no_reflect no_shear #
lump $-1 $-1 $29 $2 #
transform $-1 1 0 0 0 1 0 0 0 1 49.846491897335738 32.1949283095326 12.287955318384579 1 rotate no_reflect no_shear #
lump $-1 $-1 $30 $3 #
transform $-1 1 0 0 0 1 0 0 0 1 49.846491897335738 32.1949283095326 12.287955318384579 1 rotate no_reflect no_shear #
lump $-1 $-1 $31 $4 #
transform $-1 1 0 0 0 1 0 0 0 1 49.846491897335738 32.1949283095326 12.287955318384579 1 rotate no_reflect no_shear #
lump $-1 $-1 $32 $5 #
transform $-1 1 0 0 0 1 0 0 0 1 49.846491897335738 32.1949283095326 12.287955318384579 1 rotate no_reflect no_shear #
lump $-1 $-1 $33 $6 #
transform $-1 1 0 0 0 1 0 0 0 1 49.846491897335738 32.1949283095326 12.287955318384579 1 rotate no_reflect no_shear #
lump $-1 $-1 $34 $7 #
transform $-1 1 0 0 0 1 0 0 0 1 49.846491897335738 32.1949283095326 12.287955318384579 1 rotate no_reflect no_shear #
lump $-1 $-1 $35 $8 #
transform $-1 1 0 0 0 1 0 0 0 1 49.846491897335738 32.1949283095326 12.287955318384579 1 rotate no_reflect no_shear #
shell $-1 $-1 $-1 $36 $-1 $9 #
shell $-1 $-1 $-1 $37 $-1 $11 #
shell $-1 $-1 $-1 $38 $-1 $13 #
shell $-1 $-1 $-1 $39 $-1 $15 #
shell $-1 $-1 $-1 $40 $-1 $17 #
shell $-1 $-1 $-1 $41 $-1 $19 #
shell $-1 $-1 $-1 $42 $-1 $21 #
shell $-1 $-1 $-1 $43 $-1 $23 #
shell $-1 $-1 $-1 $44 $-1 $25 #
face $-1 $45 $46 $27 $-1 $47 forward single #
face $-1 $48 $49 $28 $-1 $50 forward single #
face $-1 $51 $52 $29 $-1 $53 reversed single #
face $-1 $54 $55 $30 $-1 $56 forward single #
face $-1 $57 $58 $31 $-1 $59 forward single #
face $-1 $60 $61 $32 $-1 $62 reversed single #
face $-1 $63 $64 $33 $-1 $65 forward single #
face $-1 $66 $67 $34 $-1 $68 forward single #
face $-1 $69 $70 $35 $-1 $71 forward single #
face $-1 $72 $73 $27 $-1 $74 reversed single #
loop $-1 $-1 $75 $36 #
plane-surface $-1 0 0 12.287955318384579 0 0 1 1 0 0 forward_v I I I I #
face $-1 $76 $77 $28 $-1 $78 reversed single #
loop $-1 $-1 $79 $37 #
plane-surface $-1 -49.846491897335738 0 0 1 0 0 0 0 -1 forward_v I I I I #
face $-1 $80 $81 $29 $-1 $82 reversed single #
loop $-1 $-1 $83 $38 #
plane-surface $-1 38.457769564035175 -32.1949283095326 1.9487500477277138 0 -0.78801076186113728 0.61566146476048833 1 0 0 forward_v I I I I #
face $-1 $84 $85 $30 $-1 $86 forward single #
loop $-1 $87 $88 $39 #
cone-surface $-1 33.576888564049227 -26.729290370119756 6.0036910906944412 0 0.78801076186113728 -0.61566146476048833 3 0 0 1 I I 0 1 3 forward I I I I #
face $-1 $89 $90 $31 $-1 $91 forward single #
loop $-1 $92 $93 $40 #
cone-surface $-1 43.338650564021137 -26.729290370119756 6.0036910906944412 0 0.78801076186113728 -0.61566146476048833 3 0 0 1 I I 0 1 3 forward I I I I #
face $-1 $94 $95 $32 $-1 $96 reversed single #
loop $-1 $-1 $97 $41 #
plane-surface $-1 39.618625455197162 -9.1940730788046636 53.720455224749983 0 0.7660444514056185 0.64278759981090561 1 0 0 forward_v I I I I #
face $-1 $98 $99 $33 $-1 $100 forward single #
loop $-1 $101 $102 $42 #
cone-surface $-1 33.481905589914021 28.285437001706455 7.839687702345854 0 -0.7660444514056185 -0.64278759981090561 1 0 0 1 I I 0 1 1 forward I I I I #
face $-1 $103 $104 $34 $-1 $105 forward single #
loop $-1 $106 $107 $43 #
cone-surface $-1 39.618625455197162 28.285437001706455 7.839687702345854 0 -0.7660444514056185 -0.64278759981090561 1 0 0 1 I I 0 1 1 forward I I I I #
face $-1 $108 $109 $35 $-1 $110 forward single #
loop $-1 $111 $112 $44 #
cone-surface $-1 45.755345320480302 28.285437001706455 7.839687702345854 0 -0.7660444514056185 -0.64278759981090561 1 0 0 1 I I 0 1 1 forward I I I I #
face $-1 $113 $114 $27 $-1 $115 reversed single #
loop $-1 $-1 $116 $45 #
plane-surface $-1 0 0 -12.287955318384579 0 0 1 1 0 0 forward_v I I I I #
coedge $-1 $117 $118 $119 $120 forward $46 $-1 #
face $-1 $121 $122 $28 $-1 $123 reversed single #
loop $-1 $-1 $124 $48 #
plane-surface $-1 0 32.1949283095326 0 0 -1 0 0 0 -1 forward_v I I I I #
coedge $-1 $125 $126 $127 $128 forward $49 $-1 #
face $-1 $129 $130 $29 $-1 $131 reversed single #
loop $-1 $-1 $132 $51 #
plane-surface $-1 27.069047230734618 -110.75407242178169 63.325878477098783 1 0 0 0 0.78801076186113728 -0.61566146476048833 forward_v I I I I #
coedge $-1 $133 $134 $135 $136 reversed $52 $-1 #
face $-1 $-1 $137 $30 $-1 $138 forward single #
loop $-1 $139 $140 $54 #
cone-surface $-1 33.576888564049227 -24.120572410029794 3.9655373011920041 0 0.78801076186113728 -0.61566146476048833 1.5 0 0 1 I I -0.70710678118654757 0.70710678118654757 1.5 forward I I I I #
loop $-1 $-1 $141 $39 #
coedge $-1 $88 $88 $142 $143 reversed $55 $-1 #
face $-1 $-1 $144 $31 $-1 $145 forward single #
loop $-1 $146 $147 $57 #
cone-surface $-1 43.338650564021137 -24.120572410029794 3.9655373011920041 0 0.78801076186113728 -0.61566146476048833 1.5 0 0 1 I I -0.70710678118654757 0.70710678118654757 1.5 forward I I I I #
loop $-1 $-1 $148 $40 #
coedge $-1 $93 $93 $149 $150 reversed $58 $-1 #
face $-1 $151 $152 $32 $-1 $153 forward single #
loop $-1 $-1 $154 $60 #
plane-surface $-1 29.390759013058592 67.175184001173662 117.80186899611437 1 0 0 0 -0.7660444514056185 -0.64278759981090561 forward_v I I I I #
coedge $-1 $155 $156 $157 $158 reversed $61 $-1 #
face $-1 $-1 $159 $33 $-1 $160 forward single #
loop $-1 $161 $162 $63 #
cone-surface $-1 33.481905589914021 27.304426922361912 7.0165225281381076 0 -0.7660444514056185 -0.64278759981090561 0.5 0 0 1 I I -0.70710678118654746 0.70710678118654746 0.5 forward I I I I #
loop $-1 $-1 $163 $42 #
coedge $-1 $102 $102 $164 $165 reversed $64 $-1 #
face $-1 $-1 $166 $34 $-1 $167 forward single #
loop $-1 $168 $169 $66 #
cone-surface $-1 39.618625455197162 27.304426922361912 7.0165225281381076 0 -0.7660444514056185 -0.64278759981090561 0.5 0 0 1 I I -0.70710678118654746 0.70710678118654746 0.5 forward I I I I #
loop $-1 $-1 $170 $43 #
coedge $-1 $107 $107 $171 $172 reversed $67 $-1 #
face $-1 $-1 $173 $35 $-1 $174 forward single #
loop $-1 $175 $176 $69 #
cone-surface $-1 45.755345320480302 27.304426922361912 7.0165225281381076 0 -0.7660444514056185 -0.64278759981090561 0.5 0 0 1 I I -0.70710678118654746 0.70710678118654746 0.5 forward I I I I #
loop $-1 $-1 $177 $44 #
coedge $-1 $112 $112 $178 $179 reversed $70 $-1 #
face $-1 $180 $181 $27 $-1 $182 reversed single #
loop $-1 $-1 $183 $72 #
plane-surface $-1 0 -32.1949283095326 0 0 1 0 0 0 1 forward_v I I I I #
coedge $-1 $184 $185 $186 $187 forward $73 $-1 #
coedge $-1 $188 $75 $189 $190 forward $46 $-1 #
coedge $-1 $75 $188 $191 $192 forward $46 $-1 #
coedge $-1 $193 $194 $75 $120 reversed $195 $-1 #
edge $-1 $196 -32.1949283095326 $197 32.1949283095326 $119 $198 forward 7 unknown #
face $-1 $199 $200 $28 $-1 $201 reversed single #
loop $-1 $-1 $127 $76 #
plane-surface $-1 -55.473308154465848 0 9.2277980568384557 0 0 1 1 0 0 forward_v I I I I #
coedge $-1 $202 $203 $125 $204 forward $77 $-1 #
coedge $-1 $205 $79 $124 $204 reversed $49 $-1 #
coedge $-1 $79 $205 $206 $207 reversed $49 $-1 #
coedge $-1 $208 $209 $79 $128 reversed $122 $-1 #
edge $-1 $210 -32.1949283095326 $211 32.1949283095326 $127 $212 forward 7 unknown #
face $-1 $213 $214 $29 $-1 $215 forward single #
loop $-1 $-1 $216 $80 #
plane-surface $-1 49.846491897335738 0 0 -1 0 0 0 0 1 forward_v I I I I #
coedge $-1 $217 $218 $219 $220 reversed $81 $-1 #
coedge $-1 $221 $83 $216 $222 reversed $52 $-1 #
coedge $-1 $83 $221 $217 $223 forward $52 $-1 #
coedge $-1 $219 $224 $83 $136 forward $214 $-1 #
edge $-1 $225 -30.617607115318144 $226 -7.8401624487170309 $135 $227 forward 7 unknown #
loop $-1 $-1 $142 $84 #
plane-surface $-1 38.457769564035175 -32.1949283095326 1.9487500477277138 0 -0.78801076186113728 0.61566146476048833 1 0 0 forward_v I I I I #
loop $-1 $-1 $228 $54 #
coedge $-1 $140 $140 $141 $229 reversed $85 $-1 #
coedge $-1 $141 $141 $140 $229 forward $87 $-1 #
coedge $-1 $142 $142 $88 $143 forward $137 $-1 #
edge $-1 $230 -7.2908963578831329e-016 $230 6.2831853071795996 $142 $231 forward 7 unknown #
loop $-1 $-1 $149 $89 #
plane-surface $-1 38.457769564035175 -32.1949283095326 1.9487500477277138 0 -0.78801076186113728 0.61566146476048833 1 0 0 forward_v I I I I #
loop $-1 $-1 $232 $57 #
coedge $-1 $147 $147 $148 $233 reversed $90 $-1 #
coedge $-1 $148 $148 $147 $233 forward $92 $-1 #
coedge $-1 $149 $149 $93 $150 forward $144 $-1 #
edge $-1 $234 -7.2908963578831329e-016 $234 6.2831853071795996 $149 $235 forward 7 unknown #
face $-1 $236 $237 $32 $-1 $238 reversed single #
loop $-1 $-1 $239 $94 #
plane-surface $-1 0 0 12.287955318384579 0 0 1 1 0 0 forward_v I I I I #
coedge $-1 $240 $241 $242 $243 reversed $95 $-1 #
coedge $-1 $244 $97 $245 $246 reversed $61 $-1 #
coedge $-1 $97 $244 $240 $247 forward $61 $-1 #
coedge $-1 $242 $248 $97 $158 forward $249 $-1 #
edge $-1 $250 -30.037179169737158 $251 -9.5814462854600109 $157 $252 forward 7 unknown #
loop $-1 $-1 $164 $98 #
plane-surface $-1 39.618625455197162 -9.1940730788046636 53.720455224749983 0 0.7660444514056185 0.64278759981090561 1 0 0 forward_v I I I I #
loop $-1 $-1 $253 $63 #
coedge $-1 $162 $162 $163 $254 reversed $99 $-1 #
coedge $-1 $163 $163 $162 $254 forward $101 $-1 #
coedge $-1 $164 $164 $102 $165 forward $159 $-1 #
edge $-1 $255 -9.6995139041228756e-016 $255 6.2831853071795996 $164 $256 forward 7 unknown #
loop $-1 $-1 $171 $103 #
plane-surface $-1 39.618625455197162 -9.1940730788046636 53.720455224749983 0 0.7660444514056185 0.64278759981090561 1 0 0 forward_v I I I I #
loop $-1 $-1 $257 $66 #
coedge $-1 $169 $169 $170 $258 reversed $104 $-1 #
coedge $-1 $170 $170 $169 $258 forward $106 $-1 #
coedge $-1 $171 $171 $107 $172 forward $166 $-1 #
edge $-1 $259 -9.6995139041228756e-016 $259 6.2831853071795996 $171 $260 forward 7 unknown #
loop $-1 $-1 $178 $108 #
plane-surface $-1 39.618625455197162 -9.1940730788046636 53.720455224749983 0 0.7660444514056185 0.64278759981090561 1 0 0 forward_v I I I I #
loop $-1 $-1 $261 $69 #
coedge $-1 $176 $176 $177 $262 reversed $109 $-1 #
coedge $-1 $177 $177 $176 $262 forward $111 $-1 #
coedge $-1 $178 $178 $112 $179 forward $173 $-1 #
edge $-1 $263 -9.6995139041228756e-016 $263 6.2831853071795996 $178 $264 forward 7 unknown #
face $-1 $265 $266 $27 $-1 $267 reversed single #
loop $-1 $-1 $268 $113 #
plane-surface $-1 -49.846491897335738 0 0 1 0 0 0 0 -1 forward_v I I I I #
coedge $-1 $269 $191 $270 $271 forward $114 $-1 #
coedge $-1 $272 $116 $269 $273 forward $73 $-1 #
coedge $-1 $116 $272 $274 $275 forward $73 $-1 #
coedge $-1 $194 $193 $116 $187 reversed $195 $-1 #
edge $-1 $276 -32.1949283095326 $277 32.1949283095326 $186 $278 forward 7 unknown #
coedge $-1 $118 $117 $279 $280 forward $46 $-1 #
coedge $-1 $281 $282 $117 $190 reversed $266 $-1 #
edge $-1 $197 -49.846491897335738 $283 49.846491897335738 $189 $284 forward 7 unknown #
coedge $-1 $183 $285 $118 $192 reversed $114 $-1 #
edge $-1 $286 -49.846491897335738 $196 49.846491897335738 $191 $287 forward 7 unknown #
coedge $-1 $186 $119 $285 $288 forward $195 $-1 #
coedge $-1 $119 $186 $281 $289 reversed $195 $-1 #
loop $-1 $-1 $193 $265 #
vertex $-1 $120 $290 #
vertex $-1 $120 $291 #
straight-curve $-1 49.846491897335738 0 12.287955318384579 0 1 0 I I #
face $-1 $292 $293 $28 $-1 $294 forward single #
loop $-1 $-1 $295 $121 #
plane-surface $-1 -61.100124411595957 0 10.757876687611517 1 0 0 0 0 -1 forward_v I I I I #
coedge $-1 $296 $124 $209 $297 reversed $77 $-1 #
coedge $-1 $124 $296 $298 $299 reversed $77 $-1 #
edge $-1 $300 -12.287955318384579 $211 -9.2277980568384557 $124 $301 forward 7 unknown #
coedge $-1 $126 $125 $302 $303 reversed $49 $-1 #
coedge $-1 $304 $305 $126 $207 forward $306 $-1 #
edge $-1 $210 9.2277980568384557 $307 12.287955318384579 $206 $308 forward 7 unknown #
coedge $-1 $309 $127 $305 $310 forward $122 $-1 #
coedge $-1 $127 $309 $202 $297 forward $122 $-1 #
vertex $-1 $207 $311 #
vertex $-1 $204 $312 #
straight-curve $-1 -49.846491897335738 0 9.2277980568384557 0 1 0 I I #
face $-1 $-1 $313 $29 $-1 $314 reversed single #
loop $-1 $-1 $135 $129 #
plane-surface $-1 0 0 12.287955318384579 0 0 1 1 0 0 forward_v I I I I #
coedge $-1 $315 $316 $133 $222 forward $130 $-1 #
coedge $-1 $218 $132 $134 $223 reversed $81 $-1 #
coedge $-1 $132 $217 $317 $318 reversed $81 $-1 #
coedge $-1 $319 $135 $132 $220 forward $214 $-1 #
edge $-1 $226 -31.25998014558742 $320 -23.182107901358243 $219 $321 forward 7 unknown #
coedge $-1 $134 $133 $322 $323 reversed $52 $-1 #
edge $-1 $324 -9.1427703555594544 $225 3.9778693248397756 $216 $325 forward 7 unknown #
edge $-1 $326 0 $226 13.120639680399233 $217 $327 forward 7 unknown #
coedge $-1 $135 $319 $315 $328 forward $214 $-1 #
vertex $-1 $136 $329 #
vertex $-1 $136 $330 #
straight-curve $-1 19.228884782017587 -24.117056065303426 12.287955318384579 -1 0 0 I I #
coedge $-1 $228 $228 $-1 $331 reversed $139 $-1 #
edge $-1 $332 0 $332 6.2831853071796004 $140 $333 forward 7 unknown #
vertex $-1 $143 $334 #
ellipse-curve $-1 33.576888564049227 -28.155992187418011 7.1183526830561457 0 -0.78801076186113728 0.61566146476048833 3 0 0 1 I I #
coedge $-1 $232 $232 $-1 $335 reversed $146 $-1 #
edge $-1 $336 0 $336 6.2831853071796004 $147 $337 forward 7 unknown #
vertex $-1 $150 $338 #
ellipse-curve $-1 43.338650564021137 -28.155992187418011 7.1183526830561457 0 -0.78801076186113728 0.61566146476048833 3 0 0 1 I I #
face $-1 $-1 $249 $32 $-1 $339 reversed single #
loop $-1 $-1 $245 $151 #
plane-surface $-1 49.846491897335738 0 0 -1 0 0 0 0 1 forward_v I I I I #
coedge $-1 $340 $341 $241 $342 forward $152 $-1 #
coedge $-1 $241 $154 $156 $247 reversed $95 $-1 #
coedge $-1 $154 $240 $239 $342 reversed $95 $-1 #
coedge $-1 $343 $157 $154 $243 forward $249 $-1 #
edge $-1 $251 -54.505971663145417 $344 -46.612979179672607 $242 $345 forward 7 unknown #
coedge $-1 $156 $155 $340 $346 reversed $61 $-1 #
coedge $-1 $347 $348 $155 $246 forward $237 $-1 #
edge $-1 $349 30.555240398595842 $250 40.858810209707883 $245 $350 forward 7 unknown #
edge $-1 $351 54.086286807953151 $251 64.389856619065199 $240 $352 forward 7 unknown #
coedge $-1 $157 $343 $347 $353 forward $249 $-1 #
loop $-1 $-1 $242 $236 #
vertex $-1 $246 $354 #
vertex $-1 $158 $355 #
straight-curve $-1 19.809312727598581 32.1949283095326 4.394962834911766 -1 0 0 I I #
coedge $-1 $253 $253 $-1 $356 reversed $161 $-1 #
edge $-1 $357 0 $357 6.2831853071796004 $162 $358 forward 7 unknown #
vertex $-1 $165 $359 #
ellipse-curve $-1 33.481905589914021 28.883424855348199 8.3414590766481584 0 0.7660444514056185 0.64278759981090561 1 0 0 1 I I #
coedge $-1 $257 $257 $-1 $360 reversed $168 $-1 #
edge $-1 $361 0 $361 6.2831853071796004 $169 $362 forward 7 unknown #
vertex $-1 $172 $363 #
ellipse-curve $-1 39.618625455197162 28.883424855348199 8.3414590766481584 0 0.7660444514056185 0.64278759981090561 1 0 0 1 I I #
coedge $-1 $261 $261 $-1 $364 reversed $175 $-1 #
edge $-1 $365 0 $365 6.2831853071796004 $176 $366 forward 7 unknown #
vertex $-1 $179 $367 #
ellipse-curve $-1 45.755345320480302 28.883424855348199 8.3414590766481584 0 0.7660444514056185 0.64278759981090561 1 0 0 1 I I #
face $-1 $-1 $195 $27 $-1 $368 reversed single #
loop $-1 $-1 $281 $180 #
plane-surface $-1 0 32.1949283095326 0 0 -1 0 0 0 -1 forward_v I I I I #
coedge $-1 $369 $279 $282 $370 forward $181 $-1 #
coedge $-1 $285 $183 $184 $273 reversed $114 $-1 #
coedge $-1 $279 $369 $183 $271 reversed $181 $-1 #
edge $-1 $286 -12.287955318384579 $371 12.287955318384579 $270 $372 forward 7 unknown #
coedge $-1 $185 $184 $369 $373 forward $73 $-1 #
edge $-1 $277 -49.846491897335738 $371 49.846491897335738 $269 $374 forward 7 unknown #
coedge $-1 $282 $281 $185 $275 reversed $266 $-1 #
edge $-1 $375 -49.846491897335738 $276 49.846491897335738 $274 $376 forward 7 unknown #
vertex $-1 $187 $377 #
vertex $-1 $288 $378 #
straight-curve $-1 49.846491897335738 0 -12.287955318384579 0 -1 0 I I #
coedge $-1 $268 $270 $188 $280 reversed $181 $-1 #
edge $-1 $283 -32.1949283095326 $286 32.1949283095326 $279 $379 forward 7 unknown #
coedge $-1 $274 $189 $194 $289 forward $266 $-1 #
coedge $-1 $189 $274 $268 $370 reversed $266 $-1 #
vertex $-1 $190 $380 #
straight-curve $-1 0 32.1949283095326 12.287955318384579 -1 0 0 I I #
coedge $-1 $191 $269 $193 $288 reversed $114 $-1 #
vertex $-1 $280 $381 #
straight-curve $-1 0 -32.1949283095326 12.287955318384579 1 0 0 I I #
edge $-1 $196 -12.287955318384579 $277 12.287955318384579 $193 $382 forward 7 unknown #
edge $-1 $197 -12.287955318384579 $276 12.287955318384579 $194 $383 forward 7 unknown #
point $-1 49.846491897335738 -32.1949283095326 12.287955318384579 #
point $-1 49.846491897335738 32.1949283095326 12.287955318384579 #
face $-1 $-1 $306 $28 $-1 $384 reversed single #
loop $-1 $-1 $302 $199 #
plane-surface $-1 0 0 12.287955318384579 0 0 1 1 0 0 forward_v I I I I #
coedge $-1 $385 $386 $296 $387 forward $200 $-1 #
coedge $-1 $203 $202 $295 $387 reversed $77 $-1 #
edge $-1 $388 -5.626816257130109 $211 5.626816257130109 $202 $389 forward 7 unknown #
coedge $-1 $390 $302 $203 $299 forward $293 $-1 #
edge $-1 $300 49.846491897335738 $391 61.100124411595957 $203 $392 forward 7 unknown #
vertex $-1 $299 $393 #
straight-curve $-1 -49.846491897335738 32.1949283095326 0 0 0 -1 I I #
coedge $-1 $298 $394 $205 $303 forward $293 $-1 #
edge $-1 $307 -32.1949283095326 $300 32.1949283095326 $302 $395 forward 7 unknown #
coedge $-1 $396 $206 $394 $397 reversed $306 $-1 #
coedge $-1 $206 $396 $208 $310 reversed $306 $-1 #
loop $-1 $-1 $206 $292 #
vertex $-1 $207 $398 #
straight-curve $-1 -49.846491897335738 -32.1949283095326 0 0 0 1 I I #
coedge $-1 $209 $208 $385 $399 forward $122 $-1 #
edge $-1 $210 -5.626816257130109 $400 5.626816257130109 $305 $401 forward 7 unknown #
point $-1 -49.846491897335738 -32.1949283095326 9.2277980568384557 #
point $-1 -49.846491897335738 32.1949283095326 9.2277980568384557 #
loop $-1 $-1 $322 $213 #
plane-surface $-1 0 -32.1949283095326 0 0 1 0 0 0 1 forward_v I I I I #
coedge $-1 $316 $216 $224 $328 reversed $130 $-1 #
coedge $-1 $216 $315 $402 $403 forward $130 $-1 #
coedge $-1 $322 $404 $218 $318 forward $313 $-1 #
edge $-1 $320 19.374983920164812 $326 29.714189190821678 $317 $405 forward 7 unknown #
coedge $-1 $224 $219 $404 $406 forward $214 $-1 #
vertex $-1 $406 $407 #
straight-curve $-1 27.069047230734618 -55.377036210890843 12.287955318384579 0 -1 0 I I #
coedge $-1 $402 $317 $221 $323 forward $313 $-1 #
edge $-1 $326 7.8401624487170309 $324 30.617607115318144 $322 $408 forward 7 unknown #
vertex $-1 $323 $409 #
straight-curve $-1 49.846491897335738 -26.566076920460095 9.1533514811335408 0 0.61566146476048833 0.78801076186113728 I I #
vertex $-1 $323 $410 #
straight-curve $-1 27.069047230734618 -32.1949283095326 1.9487500477277138 0 0.61566146476048833 0.78801076186113728 I I #
edge $-1 $411 -32.1949283095326 $225 -24.117056065303423 $315 $412 forward 7 unknown #
point $-1 49.846491897335731 -24.117056065303423 12.287955318384579 #
point $-1 27.069047230734618 -24.117056065303423 12.287955318384579 #
edge $-1 $413 1 $413 0 $228 $-1 forward 7 unknown #
vertex $-1 $229 $414 #
ellipse-curve $-1 33.576888564049227 -25.302588552821501 4.8890294983327367 0 -0.78801076186113728 0.61566146476048833 3 0 0 1 I I #
point $-1 36.576888564049227 -28.155992187418015 7.1183526830561457 #
edge $-1 $415 1 $415 0 $232 $-1 forward 7 unknown #
vertex $-1 $233 $416 #
ellipse-curve $-1 43.338650564021137 -25.302588552821501 4.8890294983327367 0 -0.78801076186113728 0.61566146476048833 3 0 0 1 I I #
point $-1 46.338650564021137 -28.155992187418015 7.1183526830561457 #
plane-surface $-1 0 32.1949283095326 0 0 -1 0 0 0 -1 forward_v I I I I #
coedge $-1 $417 $239 $244 $346 forward $152 $-1 #
coedge $-1 $239 $417 $343 $418 forward $152 $-1 #
edge $-1 $344 1.3926636910542314 $351 8.0156705994230464 $239 $419 forward 7 unknown #
coedge $-1 $248 $242 $341 $418 reversed $249 $-1 #
vertex $-1 $342 $420 #
straight-curve $-1 29.390759013058592 32.1949283095326 58.900934498057183 0 0 1 I I #
edge $-1 $351 9.5814462854600109 $349 30.037179169737151 $340 $421 forward 7 unknown #
coedge $-1 $348 $245 $248 $353 reversed $237 $-1 #
coedge $-1 $245 $347 $417 $422 reversed $237 $-1 #
vertex $-1 $422 $423 #
straight-curve $-1 49.846491897335738 5.931391763705145 35.694627687093714 0 0.64278759981090572 -0.76604445140561861 I I #
vertex $-1 $346 $424 #
straight-curve $-1 29.390759013058592 -9.1940730788046636 53.720455224749983 0 0.64278759981090561 -0.7660444514056185 I I #
edge $-1 $425 -12.287955318384579 $250 -4.3949628349117615 $347 $426 forward 7 unknown #
point $-1 49.846491897335738 32.1949283095326 4.3949628349117615 #
point $-1 29.390759013058592 32.1949283095326 4.394962834911766 #
edge $-1 $427 1 $427 0 $253 $-1 forward 7 unknown #
vertex $-1 $254 $428 #
ellipse-curve $-1 33.481905589914021 27.687449148064722 7.3379163280435602 0 0.7660444514056185 0.64278759981090561 1 0 0 1 I I #
point $-1 34.481905589914021 28.883424855348185 8.3414590766481478 #
edge $-1 $429 1 $429 0 $257 $-1 forward 7 unknown #
vertex $-1 $258 $430 #
ellipse-curve $-1 39.618625455197162 27.687449148064722 7.3379163280435602 0 0.7660444514056185 0.64278759981090561 1 0 0 1 I I #
point $-1 40.618625455197162 28.883424855348185 8.3414590766481478 #
edge $-1 $431 1 $431 0 $261 $-1 forward 7 unknown #
vertex $-1 $262 $432 #
ellipse-curve $-1 45.755345320480302 27.687449148064722 7.3379163280435602 0 0.7660444514056185 0.64278759981090561 1 0 0 1 I I #
point $-1 46.755345320480302 28.883424855348185 8.3414590766481478 #
plane-surface $-1 49.846491897335738 0 0 -1 0 0 0 0 1 forward_v I I I I #
coedge $-1 $270 $268 $272 $373 reversed $181 $-1 #
edge $-1 $283 -12.287955318384579 $375 12.287955318384579 $282 $433 forward 7 unknown #
vertex $-1 $373 $434 #
straight-curve $-1 -49.846491897335738 -32.1949283095326 0 0 0 -1 I I #
edge $-1 $371 -32.1949283095326 $375 32.1949283095326 $369 $435 forward 7 unknown #
straight-curve $-1 0 -32.1949283095326 -12.287955318384579 -1 0 0 I I #
vertex $-1 $275 $436 #
straight-curve $-1 0 32.1949283095326 -12.287955318384579 1 0 0 I I #
point $-1 49.846491897335738 32.1949283095326 -12.287955318384579 #
point $-1 49.846491897335738 -32.1949283095326 -12.287955318384579 #
straight-curve $-1 -49.846491897335738 0 12.287955318384579 0 -1 0 I I #
point $-1 -49.846491897335738 32.1949283095326 12.287955318384579 #
point $-1 -49.846491897335738 -32.1949283095326 12.287955318384579 #
straight-curve $-1 49.846491897335738 -32.1949283095326 0 0 0 -1 I I #
straight-curve $-1 49.846491897335738 32.1949283095326 0 0 0 -1 I I #
plane-surface $-1 0 -32.1949283095326 0 0 1 0 0 0 1 forward_v I I I I #
coedge $-1 $437 $295 $309 $399 reversed $200 $-1 #
coedge $-1 $295 $437 $390 $438 reversed $200 $-1 #
edge $-1 $391 -1.5300786307730618 $388 1.5300786307730618 $296 $439 forward 7 unknown #
vertex $-1 $297 $440 #
straight-curve $-1 -55.473308154465848 32.1949283095326 9.2277980568384557 1 0 0 I I #
coedge $-1 $394 $298 $386 $438 forward $293 $-1 #
vertex $-1 $299 $441 #
straight-curve $-1 0 32.1949283095326 12.287955318384579 -1 0 0 I I #
point $-1 -49.846491897335738 32.1949283095326 12.287955318384579 #
coedge $-1 $302 $390 $304 $397 forward $293 $-1 #
straight-curve $-1 -49.846491897335738 0 12.287955318384579 0 1 0 I I #
coedge $-1 $305 $304 $437 $442 forward $306 $-1 #
edge $-1 $443 -61.100124411595957 $307 -49.846491897335738 $304 $444 forward 7 unknown #
point $-1 -49.846491897335738 -32.1949283095326 12.287955318384579 #
edge $-1 $400 -32.1949283095326 $388 32.1949283095326 $385 $445 forward 7 unknown #
vertex $-1 $399 $446 #
straight-curve $-1 -55.473308154465848 -32.1949283095326 9.2277980568384557 -1 0 0 I I #
coedge $-1 $404 $322 $316 $403 reversed $313 $-1 #
edge $-1 $411 -12.287955318384579 $324 -1.9487500477277138 $316 $447 forward 7 unknown #
coedge $-1 $317 $402 $319 $406 reversed $313 $-1 #
straight-curve $-1 27.069047230734618 -32.1949283095326 31.662939238549392 0 0 -1 I I #
edge $-1 $320 27.069047230734618 $411 49.846491897335738 $404 $448 forward 7 unknown #
point $-1 27.069047230734618 -32.1949283095326 12.287955318384579 #
straight-curve $-1 19.228884782017587 -32.1949283095326 1.948750047727712 1 0 0 I I #
point $-1 49.846491897335731 -32.1949283095326 1.9487500477277138 #
point $-1 27.069047230734618 -32.1949283095326 1.9487500477277138 #
vertex $-1 $328 $449 #
straight-curve $-1 49.846491897335738 0 12.287955318384579 0 1 0 I I #
vertex $-1 $331 $450 #
point $-1 36.576888564049227 -25.302588552821501 4.8890294983327367 #
vertex $-1 $335 $451 #
point $-1 46.338650564021137 -25.302588552821501 4.8890294983327367 #
coedge $-1 $341 $340 $348 $422 forward $152 $-1 #
edge $-1 $425 -49.846491897335738 $344 -29.390759013058592 $343 $452 forward 7 unknown #
straight-curve $-1 29.390759013058592 33.587592000586831 12.287955318384576 0 -1 0 I I #
point $-1 29.390759013058592 32.1949283095326 12.287955318384579 #
straight-curve $-1 19.809312727598581 25.571921401163785 12.287955318384579 1 0 0 I I #
edge $-1 $349 25.571921401163785 $425 32.1949283095326 $348 $453 forward 7 unknown #
point $-1 49.846491897335731 25.571921401163785 12.287955318384576 #
point $-1 29.390759013058592 25.571921401163785 12.287955318384576 #
vertex $-1 $422 $454 #
straight-curve $-1 49.846491897335738 32.1949283095326 0 0 0 -1 I I #
vertex $-1 $356 $455 #
point $-1 34.481905589914021 27.687449148064722 7.3379163280435602 #
vertex $-1 $360 $456 #
point $-1 40.618625455197162 27.687449148064722 7.3379163280435602 #
vertex $-1 $364 $457 #
point $-1 46.755345320480302 27.687449148064722 7.3379163280435602 #
straight-curve $-1 -49.846491897335738 32.1949283095326 0 0 0 -1 I I #
point $-1 -49.846491897335738 -32.1949283095326 -12.287955318384579 #
straight-curve $-1 -49.846491897335738 0 -12.287955318384579 0 1 0 I I #
point $-1 -49.846491897335738 32.1949283095326 -12.287955318384579 #
coedge $-1 $386 $385 $396 $442 reversed $200 $-1 #
edge $-1 $391 -32.1949283095326 $443 32.1949283095326 $386 $458 forward 7 unknown #
straight-curve $-1 -61.100124411595957 32.1949283095326 10.757876687611517 0 0 -1 I I #
point $-1 -61.100124411595957 32.1949283095326 9.2277980568384557 #
point $-1 -61.100124411595957 32.1949283095326 12.287955318384579 #
edge $-1 $443 -1.5300786307730618 $400 1.5300786307730618 $437 $459 forward 7 unknown #
vertex $-1 $438 $460 #
straight-curve $-1 0 -32.1949283095326 12.287955318384579 1 0 0 I I #
straight-curve $-1 -61.100124411595957 0 9.2277980568384557 0 1 0 I I #
point $-1 -61.100124411595957 -32.1949283095326 9.2277980568384557 #
straight-curve $-1 49.846491897335738 -32.1949283095326 0 0 0 -1 I I #
straight-curve $-1 0 -32.1949283095326 12.287955318384579 1 0 0 I I #
point $-1 49.846491897335738 -32.1949283095326 12.287955318384579 #
point $-1 33.576888564049227 -22.938556267238088 3.0420451040512715 #
point $-1 43.338650564021137 -22.938556267238088 3.0420451040512715 #
straight-curve $-1 0 32.1949283095326 12.287955318384579 -1 0 0 I I #
straight-curve $-1 49.846491897335738 0 12.287955318384579 0 1 0 I I #
point $-1 49.846491897335738 32.1949283095326 12.287955318384579 #
point $-1 33.481905589914021 26.921404696659103 6.695128728232655 #
point $-1 39.618625455197162 26.921404696659103 6.695128728232655 #
point $-1 45.755345320480302 26.921404696659103 6.695128728232655 #
straight-curve $-1 -61.100124411595957 0 12.287955318384579 0 -1 0 I I #
straight-curve $-1 -61.100124411595957 -32.1949283095326 10.757876687611517 0 0 -1 I I #
point $-1 -61.100124411595957 -32.1949283095326 12.287955318384579 #
End-of-ACIS-data 