500 0 8 0           
7 Unknown 11 ACIS 5.0 NT 24 Thu Mar 25 22:16:10 1999 
-1 9.9999999999999995e-007 1e-010 
body $-1 $8 $-1 $9 #
body $-1 $10 $-1 $11 #
body $-1 $12 $-1 $13 #
body $-1 $14 $-1 $15 #
body $-1 $16 $-1 $17 #
body $-1 $18 $-1 $19 #
body $-1 $20 $-1 $21 #
body $-1 $22 $-1 $23 #
lump $-1 $-1 $24 $0 #
transform $-1 1 0 0 0 1 0 0 0 1 68.188116092410041 42.108612064171226 16.427203502154434 1 rotate no_reflect no_shear #
lump $-1 $-1 $25 $1 #
transform $-1 1 0 0 0 1 0 0 0 1 68.188116092410041 42.108612064171226 16.427203502154434 1 rotate no_reflect no_shear #
lump $-1 $-1 $26 $2 #
transform $-1 1 0 0 0 1 0 0 0 1 68.188116092410041 42.108612064171226 16.427203502154434 1 rotate no_reflect no_shear #
lump $-1 $-1 $27 $3 #
transform $-1 1 0 0 0 1 0 0 0 1 68.188116092410041 42.108612064171226 16.427203502154434 1 rotate no_reflect no_shear #
lump $-1 $-1 $28 $4 #
transform $-1 1 0 0 0 1 0 0 0 1 68.188116092410041 42.108612064171226 16.427203502154434 1 rotate no_reflect no_shear #
lump $-1 $-1 $29 $5 #
transform $-1 1 0 0 0 1 0 0 0 1 68.188116092410041 42.108612064171226 16.427203502154434 1 rotate no_reflect no_shear #
lump $-1 $-1 $30 $6 #
transform $-1 1 0 0 0 1 0 0 0 1 68.188116092410041 42.108612064171226 16.427203502154434 1 rotate no_reflect no_shear #
lump $-1 $-1 $31 $7 #
transform $-1 1 0 0 0 1 0 0 0 1 68.188116092410041 42.108612064171226 16.427203502154434 1 rotate no_reflect no_shear #
shell $-1 $-1 $-1 $32 $-1 $8 #
shell $-1 $-1 $-1 $33 $-1 $10 #
shell $-1 $-1 $-1 $34 $-1 $12 #
shell $-1 $-1 $-1 $35 $-1 $14 #
shell $-1 $-1 $-1 $36 $-1 $16 #
shell $-1 $-1 $-1 $37 $-1 $18 #
shell $-1 $-1 $-1 $38 $-1 $20 #
shell $-1 $-1 $-1 $39 $-1 $22 #
face $-1 $40 $41 $24 $-1 $42 forward single #
face $-1 $43 $44 $25 $-1 $45 forward single #
face $-1 $46 $47 $26 $-1 $48 reversed single #
face $-1 $49 $50 $27 $-1 $51 forward single #
face $-1 $52 $53 $28 $-1 $54 forward single #
face $-1 $55 $56 $29 $-1 $57 reversed single #
face $-1 $58 $59 $30 $-1 $60 forward single #
face $-1 $61 $62 $31 $-1 $63 forward single #
face $-1 $64 $65 $24 $-1 $66 reversed single #
loop $-1 $-1 $67 $32 #
plane-surface $-1 0 0 16.427203502154434 0 0 1 1 0 0 forward_v I I I I #
face $-1 $68 $69 $25 $-1 $70 reversed single #
loop $-1 $-1 $71 $33 #
plane-surface $-1 0 -31.985826053047631 6.8780531049715155 0 0 1 1 0 0 forward_v I I I I #
face $-1 $72 $73 $26 $-1 $74 reversed single #
loop $-1 $-1 $75 $34 #
plane-surface $-1 54.734527646250157 -12.134589708816467 196.81189739314544 0 1 0 0.6560590369687036 0 0.75470957328743171 forward_v I I I I #
face $-1 $76 $77 $27 $-1 $78 forward single #
loop $-1 $79 $80 $35 #
cone-surface $-1 60.014053735018493 -8.7579137323397234 8.9658210530891633 -0.6560590369687036 0 -0.75470957328743171 0.75470957328743171 0 -0.6560590369687036 1 I I 0 1 1 forward I I I I #
face $-1 $81 $82 $28 $-1 $83 forward single #
loop $-1 $84 $85 $36 #
cone-surface $-1 60.014053735018493 -3.6928997676246027 8.9658210530891633 -0.6560590369687036 0 -0.75470957328743171 0.75470957328743171 0 -0.6560590369687036 1 I I 0 1 1 forward I I I I #
face $-1 $86 $87 $29 $-1 $88 reversed single #
loop $-1 $-1 $89 $37 #
plane-surface $-1 -182.56284928470956 -8.1528765568611998 79.430418262416026 0 -1 0 0.83867057594974714 0 -0.54463902268945019 forward_v I I I I #
face $-1 $90 $91 $30 $-1 $92 forward single #
loop $-1 $93 $94 $38 #
cone-surface $-1 -63.101489585163371 -17.94585047476323 9.8646067454572748 0.83867057594974714 0 -0.54463902268945019 0.54463902268945019 0 0.83867057594974714 1 I I 0 1 1 forward I I I I #
face $-1 $95 $96 $31 $-1 $97 forward single #
loop $-1 $98 $99 $39 #
cone-surface $-1 -63.101489585163371 -12.070066124022013 9.8646067454572748 0.83867057594974714 0 -0.54463902268945019 0.54463902268945019 0 0.83867057594974714 1 I I 0 1 1 forward I I I I #
face $-1 $100 $101 $24 $-1 $102 reversed single #
loop $-1 $-1 $103 $40 #
plane-surface $-1 0 0 -16.427203502154434 0 0 1 1 0 0 forward_v I I I I #
coedge $-1 $104 $105 $106 $107 forward $41 $-1 #
face $-1 $108 $109 $25 $-1 $110 reversed single #
loop $-1 $-1 $111 $43 #
plane-surface $-1 0 -31.985826053047631 3.5366635562835267 0 0 1 1 0 0 forward_v I I I I #
coedge $-1 $112 $113 $114 $115 reversed $44 $-1 #
face $-1 $116 $117 $26 $-1 $118 reversed single #
loop $-1 $-1 $119 $46 #
plane-surface $-1 -34.736331906343224 -6.2254067499821559 93.887449394392164 0.6560590369687036 0 0.75470957328743171 0.75470957328743171 0 -0.6560590369687036 forward_v I I I I #
coedge $-1 $120 $121 $122 $123 reversed $47 $-1 #
face $-1 $-1 $124 $27 $-1 $125 forward single #
loop $-1 $126 $127 $49 #
cone-surface $-1 58.420276964753768 -8.7579137323397234 7.1323906475580046 -0.6560590369687036 0 -0.75470957328743171 0.37735478664371586 0 -0.3280295184843518 1 I I -0.70710678118654746 0.70710678118654746 0.5 forward I I I I #
loop $-1 $-1 $128 $35 #
coedge $-1 $80 $80 $129 $130 reversed $50 $-1 #
face $-1 $-1 $131 $28 $-1 $132 forward single #
loop $-1 $133 $134 $52 #
cone-surface $-1 58.420276964753768 -3.6928997676246027 7.1323906475580046 -0.6560590369687036 0 -0.75470957328743171 0.37735478664371586 0 -0.3280295184843518 1 I I -0.70710678118654746 0.70710678118654746 0.5 forward I I I I #
loop $-1 $-1 $135 $36 #
coedge $-1 $85 $85 $136 $137 reversed $53 $-1 #
face $-1 $138 $139 $29 $-1 $140 forward single #
loop $-1 $-1 $141 $55 #
plane-surface $-1 -68.188116092410056 -15.007958299392619 5.1546004472060787 -0.83867057594974714 0 0.54463902268945019 0.54463902268945019 0 0.83867057594974714 forward_v I I I I #
coedge $-1 $142 $143 $144 $145 reversed $56 $-1 #
face $-1 $-1 $146 $30 $-1 $147 forward single #
loop $-1 $148 $149 $58 #
cone-surface $-1 -61.255784681666313 -17.94585047476323 8.6659920048895813 0.83867057594974714 0 -0.54463902268945019 0.2723195113447251 0 0.41933528797487357 1 I I -0.70710678118654746 0.70710678118654746 0.5 forward I I I I #
loop $-1 $-1 $150 $38 #
coedge $-1 $94 $94 $151 $152 reversed $59 $-1 #
face $-1 $-1 $153 $31 $-1 $154 forward single #
loop $-1 $155 $156 $61 #
cone-surface $-1 -61.255784681666313 -12.070066124022013 8.6659920048895813 0.83867057594974714 0 -0.54463902268945019 0.2723195113447251 0 0.41933528797487357 1 I I -0.70710678118654746 0.70710678118654746 0.5 forward I I I I #
loop $-1 $-1 $157 $39 #
coedge $-1 $99 $99 $158 $159 reversed $62 $-1 #
face $-1 $160 $161 $24 $-1 $162 reversed single #
loop $-1 $-1 $163 $64 #
plane-surface $-1 0 -42.108612064171226 0 0 1 0 0 0 1 forward_v I I I I #
coedge $-1 $164 $165 $166 $167 forward $65 $-1 #
coedge $-1 $168 $67 $169 $170 forward $41 $-1 #
coedge $-1 $67 $168 $171 $172 forward $41 $-1 #
coedge $-1 $173 $174 $67 $107 reversed $175 $-1 #
edge $-1 $176 -42.108612064171226 $177 42.108612064171226 $106 $178 forward 7 unknown #
face $-1 $179 $180 $25 $-1 $181 reversed single #
loop $-1 $-1 $182 $68 #
plane-surface $-1 0 -21.863040041924037 5.2073583306275211 0 -1 0 0 0 -1 forward_v I I I I #
coedge $-1 $183 $184 $185 $186 reversed $69 $-1 #
coedge $-1 $187 $71 $182 $188 forward $44 $-1 #
coedge $-1 $71 $187 $189 $190 reversed $44 $-1 #
coedge $-1 $191 $192 $71 $115 forward $193 $-1 #
edge $-1 $194 5.8701270154002216 $195 26.11569903764741 $114 $196 forward 7 unknown #
face $-1 $197 $198 $26 $-1 $199 forward single #
loop $-1 $-1 $200 $72 #
plane-surface $-1 54.734527646250157 -0.31622379114784493 196.81189739314544 0 -1 0 -0.6560590369687036 0 -0.75470957328743171 forward_v I I I I #
coedge $-1 $201 $202 $203 $204 reversed $73 $-1 #
coedge $-1 $121 $75 $205 $206 reversed $47 $-1 #
coedge $-1 $75 $120 $201 $207 reversed $47 $-1 #
coedge $-1 $203 $208 $75 $123 forward $209 $-1 #
edge $-1 $210 81.978745194418281 $211 93.98935885477394 $122 $212 forward 7 unknown #
loop $-1 $-1 $129 $76 #
plane-surface $-1 -34.736331906343224 -6.2254067499821559 93.887449394392164 0.6560590369687036 0 0.75470957328743171 0.75470957328743171 0 -0.6560590369687036 forward_v I I I I #
loop $-1 $-1 $213 $49 #
coedge $-1 $127 $127 $128 $214 reversed $77 $-1 #
coedge $-1 $128 $128 $127 $214 forward $79 $-1 #
coedge $-1 $129 $129 $80 $130 forward $124 $-1 #
edge $-1 $215 0 $215 6.2831853071796004 $129 $216 forward 7 unknown #
loop $-1 $-1 $136 $81 #
plane-surface $-1 -34.736331906343224 -6.2254067499821559 93.887449394392164 0.6560590369687036 0 0.75470957328743171 0.75470957328743171 0 -0.6560590369687036 forward_v I I I I #
loop $-1 $-1 $217 $52 #
coedge $-1 $134 $134 $135 $218 reversed $82 $-1 #
coedge $-1 $135 $135 $134 $218 forward $84 $-1 #
coedge $-1 $136 $136 $85 $137 forward $131 $-1 #
edge $-1 $219 0 $219 6.2831853071796004 $136 $220 forward 7 unknown #
face $-1 $221 $222 $29 $-1 $223 forward single #
loop $-1 $-1 $224 $86 #
plane-surface $-1 0 -21.863040041924037 5.2073583306275211 0 -1 0 0 0 -1 forward_v I I I I #
coedge $-1 $225 $226 $227 $228 reversed $87 $-1 #
coedge $-1 $143 $89 $229 $230 reversed $56 $-1 #
coedge $-1 $89 $142 $225 $231 reversed $56 $-1 #
coedge $-1 $227 $232 $89 $145 forward $233 $-1 #
edge $-1 $234 23.288005629053579 $235 34.560608684001913 $144 $236 forward 7 unknown #
loop $-1 $-1 $151 $90 #
plane-surface $-1 -68.188116092410056 -15.007958299392619 5.1546004472060787 -0.83867057594974714 0 0.54463902268945019 0.54463902268945019 0 0.83867057594974714 forward_v I I I I #
loop $-1 $-1 $237 $58 #
coedge $-1 $149 $149 $150 $238 reversed $91 $-1 #
coedge $-1 $150 $150 $149 $238 forward $93 $-1 #
coedge $-1 $151 $151 $94 $152 forward $146 $-1 #
edge $-1 $239 0 $239 6.2831853071796004 $151 $240 forward 7 unknown #
loop $-1 $-1 $158 $95 #
plane-surface $-1 -68.188116092410056 -15.007958299392619 5.1546004472060787 -0.83867057594974714 0 0.54463902268945019 0.54463902268945019 0 0.83867057594974714 forward_v I I I I #
loop $-1 $-1 $241 $61 #
coedge $-1 $156 $156 $157 $242 reversed $96 $-1 #
coedge $-1 $157 $157 $156 $242 forward $98 $-1 #
coedge $-1 $158 $158 $99 $159 forward $153 $-1 #
edge $-1 $243 0 $243 6.2831853071796004 $158 $244 forward 7 unknown #
face $-1 $245 $246 $24 $-1 $247 reversed single #
loop $-1 $-1 $248 $100 #
plane-surface $-1 -68.188116092410041 0 0 1 0 0 0 0 -1 forward_v I I I I #
coedge $-1 $249 $171 $250 $251 forward $101 $-1 #
coedge $-1 $252 $103 $249 $253 forward $65 $-1 #
coedge $-1 $103 $252 $254 $255 forward $65 $-1 #
coedge $-1 $174 $173 $103 $167 reversed $175 $-1 #
edge $-1 $256 -42.108612064171226 $257 42.108612064171226 $166 $258 forward 7 unknown #
coedge $-1 $105 $104 $259 $260 forward $41 $-1 #
coedge $-1 $261 $262 $104 $170 reversed $246 $-1 #
edge $-1 $177 -68.188116092410041 $263 68.188116092410041 $169 $264 forward 7 unknown #
coedge $-1 $163 $265 $105 $172 reversed $101 $-1 #
edge $-1 $266 -68.188116092410041 $176 68.188116092410041 $171 $267 forward 7 unknown #
coedge $-1 $166 $106 $265 $268 forward $175 $-1 #
coedge $-1 $106 $166 $261 $269 reversed $175 $-1 #
loop $-1 $-1 $173 $245 #
vertex $-1 $107 $270 #
vertex $-1 $107 $271 #
straight-curve $-1 68.188116092410041 0 16.427203502154434 0 1 0 I I #
face $-1 $272 $273 $25 $-1 $274 reversed single #
loop $-1 $-1 $275 $108 #
plane-surface $-1 -68.188116092410041 0 0 1 0 0 0 0 -1 forward_v I I I I #
coedge $-1 $276 $277 $112 $188 reversed $109 $-1 #
coedge $-1 $278 $111 $279 $280 reversed $69 $-1 #
coedge $-1 $111 $278 $281 $282 forward $69 $-1 #
coedge $-1 $192 $191 $111 $186 forward $193 $-1 #
edge $-1 $283 -26.11569903764741 $284 -5.8701270154002216 $185 $285 forward 7 unknown #
coedge $-1 $113 $112 $275 $286 reversed $44 $-1 #
edge $-1 $194 -68.188116092410041 $287 68.188116092410041 $182 $288 forward 7 unknown #
coedge $-1 $289 $290 $113 $190 forward $273 $-1 #
edge $-1 $195 -68.188116092410041 $291 68.188116092410041 $189 $292 forward 7 unknown #
coedge $-1 $185 $114 $290 $293 forward $193 $-1 #
coedge $-1 $114 $185 $276 $294 forward $193 $-1 #
loop $-1 $-1 $114 $272 #
vertex $-1 $115 $295 #
vertex $-1 $293 $296 #
straight-curve $-1 68.188116092410041 -15.992913026523816 6.8780531049715155 0 -1 0 I I #
face $-1 $-1 $209 $26 $-1 $297 reversed single #
loop $-1 $-1 $298 $116 #
plane-surface $-1 0 0 16.427203502154434 0 0 1 1 0 0 forward_v I I I I #
coedge $-1 $299 $300 $301 $302 reversed $117 $-1 #
coedge $-1 $303 $119 $121 $207 forward $73 $-1 #
coedge $-1 $119 $303 $299 $304 forward $73 $-1 #
coedge $-1 $301 $122 $119 $204 forward $209 $-1 #
edge $-1 $211 -9.021886333825389 $305 2.796479583843233 $203 $306 forward 7 unknown #
coedge $-1 $307 $308 $120 $206 forward $198 $-1 #
edge $-1 $309 27.004222058062659 $210 40.820852269284963 $205 $310 forward 7 unknown #
edge $-1 $211 -136.37623218482008 $309 -118.06901746242218 $121 $311 forward 7 unknown #
coedge $-1 $122 $301 $307 $312 reversed $209 $-1 #
loop $-1 $-1 $301 $197 #
vertex $-1 $312 $313 #
vertex $-1 $123 $314 #
straight-curve $-1 68.188116092410041 -12.134589708816467 98.405948696572722 0 0 -1 I I #
coedge $-1 $213 $213 $-1 $315 reversed $126 $-1 #
edge $-1 $316 0 $316 6.2831853071796004 $127 $317 forward 7 unknown #
vertex $-1 $130 $318 #
ellipse-curve $-1 61.279800986798882 -8.7579137323397234 10.421896671976624 0.6560590369687036 0 0.75470957328743171 0.75470957328743171 0 -0.6560590369687036 1 I I #
coedge $-1 $217 $217 $-1 $319 reversed $133 $-1 #
edge $-1 $320 0 $320 6.2831853071796004 $134 $321 forward 7 unknown #
vertex $-1 $137 $322 #
ellipse-curve $-1 61.279800986798882 -3.6928997676246027 10.421896671976624 0.6560590369687036 0 0.75470957328743171 0.75470957328743171 0 -0.6560590369687036 1 I I #
face $-1 $-1 $233 $29 $-1 $323 reversed single #
loop $-1 $-1 $324 $138 #
plane-surface $-1 0 0 16.427203502154434 0 0 1 1 0 0 forward_v I I I I #
coedge $-1 $325 $326 $226 $327 reversed $139 $-1 #
coedge $-1 $328 $141 $143 $231 forward $87 $-1 #
coedge $-1 $141 $328 $224 $327 forward $87 $-1 #
coedge $-1 $329 $144 $141 $228 forward $233 $-1 #
edge $-1 $235 0.64889740716489008 $330 14.359060892227728 $227 $331 forward 7 unknown #
coedge $-1 $332 $333 $142 $230 forward $222 $-1 #
edge $-1 $334 -30.413822333393661 $234 -23.093308549944737 $229 $335 forward 7 unknown #
edge $-1 $235 2.636201369357039e-014 $334 13.441037969148695 $143 $336 forward 7 unknown #
coedge $-1 $144 $329 $332 $337 reversed $233 $-1 #
loop $-1 $-1 $227 $221 #
vertex $-1 $337 $338 #
vertex $-1 $145 $339 #
straight-curve $-1 -68.188116092410041 -8.1528765568611998 39.715209131208013 0 0 -1 I I #
coedge $-1 $237 $237 $-1 $340 reversed $148 $-1 #
edge $-1 $341 0 $341 6.2831853071796004 $149 $342 forward 7 unknown #
vertex $-1 $152 $343 #
ellipse-curve $-1 -64.527859200685583 -17.94585047476323 10.79090197468026 -0.83867057594974714 0 0.54463902268945019 0.54463902268945019 0 0.83867057594974714 1 I I #
coedge $-1 $241 $241 $-1 $344 reversed $155 $-1 #
edge $-1 $345 0 $345 6.2831853071796004 $156 $346 forward 7 unknown #
vertex $-1 $159 $347 #
ellipse-curve $-1 -64.527859200685583 -12.070066124022013 10.79090197468026 -0.83867057594974714 0 0.54463902268945019 0.54463902268945019 0 0.83867057594974714 1 I I #
face $-1 $-1 $175 $24 $-1 $348 reversed single #
loop $-1 $-1 $261 $160 #
plane-surface $-1 0 42.108612064171226 0 0 -1 0 0 0 -1 forward_v I I I I #
coedge $-1 $349 $259 $262 $350 forward $161 $-1 #
coedge $-1 $265 $163 $164 $253 reversed $101 $-1 #
coedge $-1 $259 $349 $163 $251 reversed $161 $-1 #
edge $-1 $266 -16.427203502154434 $351 16.427203502154434 $250 $352 forward 7 unknown #
coedge $-1 $165 $164 $349 $353 forward $65 $-1 #
edge $-1 $257 -68.188116092410041 $351 68.188116092410041 $249 $354 forward 7 unknown #
coedge $-1 $262 $261 $165 $255 reversed $246 $-1 #
edge $-1 $355 -68.188116092410041 $256 68.188116092410041 $254 $356 forward 7 unknown #
vertex $-1 $167 $357 #
vertex $-1 $268 $358 #
straight-curve $-1 68.188116092410041 0 -16.427203502154434 0 -1 0 I I #
coedge $-1 $248 $250 $168 $260 reversed $161 $-1 #
edge $-1 $263 -42.108612064171226 $266 42.108612064171226 $259 $359 forward 7 unknown #
coedge $-1 $254 $169 $174 $269 forward $246 $-1 #
coedge $-1 $169 $254 $248 $350 reversed $246 $-1 #
vertex $-1 $170 $360 #
straight-curve $-1 0 42.108612064171226 16.427203502154434 -1 0 0 I I #
coedge $-1 $171 $249 $173 $268 reversed $101 $-1 #
vertex $-1 $260 $361 #
straight-curve $-1 0 -42.108612064171226 16.427203502154434 1 0 0 I I #
edge $-1 $176 -16.427203502154434 $257 16.427203502154434 $173 $362 forward 7 unknown #
edge $-1 $177 -16.427203502154434 $256 16.427203502154434 $174 $363 forward 7 unknown #
point $-1 68.188116092410041 -42.108612064171226 16.427203502154434 #
point $-1 68.188116092410041 42.108612064171226 16.427203502154434 #
face $-1 $-1 $193 $25 $-1 $364 reversed single #
loop $-1 $-1 $189 $179 #
plane-surface $-1 0 -42.108612064171226 0 0 1 0 0 0 1 forward_v I I I I #
coedge $-1 $365 $366 $187 $286 forward $180 $-1 #
coedge $-1 $281 $182 $192 $294 reversed $109 $-1 #
coedge $-1 $182 $281 $365 $367 reversed $109 $-1 #
coedge $-1 $184 $183 $368 $369 reversed $69 $-1 #
coedge $-1 $290 $289 $183 $280 forward $273 $-1 #
edge $-1 $370 -68.188116092410041 $283 68.188116092410041 $279 $371 forward 7 unknown #
coedge $-1 $277 $276 $184 $282 reversed $109 $-1 #
edge $-1 $372 -68.188116092410041 $284 68.188116092410041 $281 $373 forward 7 unknown #
vertex $-1 $280 $374 #
vertex $-1 $186 $375 #
straight-curve $-1 68.188116092410041 -15.992913026523816 3.5366635562835267 0 1 0 I I #
edge $-1 $291 -26.11569903764741 $287 -5.8701270154002216 $275 $376 forward 7 unknown #
vertex $-1 $286 $377 #
straight-curve $-1 0 -21.863040041924037 6.8780531049715155 -1 0 0 I I #
coedge $-1 $279 $189 $366 $378 forward $273 $-1 #
coedge $-1 $189 $279 $191 $293 reversed $273 $-1 #
vertex $-1 $378 $379 #
straight-curve $-1 0 -42.108612064171226 6.8780531049715155 -1 0 0 I I #
edge $-1 $195 -6.8780531049715155 $283 -3.5366635562835267 $191 $380 forward 7 unknown #
edge $-1 $284 0.93298439096976615 $194 4.2743739396577549 $192 $381 forward 7 unknown #
point $-1 68.188116092410041 -21.863040041924037 6.8780531049715155 #
point $-1 68.188116092410041 -42.108612064171226 6.8780531049715155 #
plane-surface $-1 68.188116092410041 0 0 -1 0 0 0 0 1 forward_v I I I I #
coedge $-1 $308 $307 $300 $382 forward $198 $-1 #
coedge $-1 $300 $200 $202 $304 reversed $117 $-1 #
coedge $-1 $200 $299 $298 $382 reversed $117 $-1 #
coedge $-1 $208 $203 $200 $302 forward $209 $-1 #
edge $-1 $305 -93.98935885477394 $383 -81.978745194418281 $301 $384 forward 7 unknown #
coedge $-1 $202 $201 $308 $385 reversed $73 $-1 #
edge $-1 $386 118.06901746242218 $305 136.37623218482008 $299 $387 forward 7 unknown #
vertex $-1 $204 $388 #
straight-curve $-1 68.188116092410027 -3.112703374991078 4.4165898417987961 0 1 0 I I #
coedge $-1 $298 $205 $208 $312 forward $198 $-1 #
coedge $-1 $205 $298 $303 $385 forward $198 $-1 #
vertex $-1 $206 $389 #
straight-curve $-1 27.367263823125079 -12.134589708816467 16.427203502154441 1 0 0 I I #
straight-curve $-1 -34.736331906343224 -12.134589708816467 93.887449394392164 -0.75470957328743171 0 0.6560590369687036 I I #
edge $-1 $210 -12.134589708816467 $383 -0.31622379114784493 $208 $390 forward 7 unknown #
point $-1 68.188116092410041 -12.134589708816467 16.427203502154434 #
point $-1 68.188116092410056 -12.134589708816467 4.4165898417987819 #
edge $-1 $391 1 $391 0 $213 $-1 forward 7 unknown #
vertex $-1 $214 $392 #
ellipse-curve $-1 58.748306483238117 -8.7579137323397234 7.5097454342017205 0.6560590369687036 0 0.75470957328743171 0.75470957328743171 0 -0.6560590369687036 1 I I #
point $-1 62.034510560086296 -8.7579137323397234 9.7658376350079017 #
edge $-1 $393 1 $393 0 $217 $-1 forward 7 unknown #
vertex $-1 $218 $394 #
ellipse-curve $-1 58.748306483238117 -3.6928997676246027 7.5097454342017205 0.6560590369687036 0 0.75470957328743171 0.75470957328743171 0 -0.6560590369687036 1 I I #
point $-1 62.034510560086296 -3.6928997676246027 9.7658376350079017 #
plane-surface $-1 -68.188116092410041 0 0 1 0 0 0 0 -1 forward_v I I I I #
coedge $-1 $333 $332 $325 $395 forward $222 $-1 #
coedge $-1 $326 $224 $324 $395 reversed $139 $-1 #
coedge $-1 $224 $325 $329 $396 reversed $139 $-1 #
edge $-1 $397 -13.441037969148695 $330 -2.636201369357039e-014 $224 $398 forward 7 unknown #
coedge $-1 $226 $225 $333 $399 reversed $87 $-1 #
coedge $-1 $232 $227 $326 $396 forward $233 $-1 #
vertex $-1 $396 $400 #
straight-curve $-1 -68.188116092410041 -7.5039791496963097 5.1546004472060964 0 -1 0 I I #
coedge $-1 $324 $229 $232 $337 forward $222 $-1 #
coedge $-1 $229 $324 $328 $399 forward $222 $-1 #
vertex $-1 $230 $401 #
straight-curve $-1 -91.281424642354779 -8.1528765568611998 16.427203502154434 -1 0 0 I I #
straight-curve $-1 -68.188116092410056 -8.1528765568611998 5.1546004472060787 0.54463902268945019 0 0.83867057594974714 I I #
edge $-1 $234 8.1528765568611998 $402 21.863040041924037 $232 $403 forward 7 unknown #
point $-1 -68.188116092410041 -8.1528765568611998 16.427203502154434 #
point $-1 -68.188116092410041 -8.1528765568611998 5.1546004472061009 #
edge $-1 $404 1 $404 0 $237 $-1 forward 7 unknown #
vertex $-1 $238 $405 #
ellipse-curve $-1 -61.675119969641187 -17.94585047476323 8.9383115162343056 -0.83867057594974714 0 0.54463902268945019 0.54463902268945019 0 0.83867057594974714 1 I I #
point $-1 -63.98322017799611 -17.94585047476323 11.629572550629991 #
edge $-1 $406 1 $406 0 $241 $-1 forward 7 unknown #
vertex $-1 $242 $407 #
ellipse-curve $-1 -61.675119969641187 -12.070066124022013 8.9383115162343056 -0.83867057594974714 0 0.54463902268945019 0.54463902268945019 0 0.83867057594974714 1 I I #
point $-1 -63.98322017799611 -12.070066124022013 11.629572550629991 #
plane-surface $-1 68.188116092410041 0 0 -1 0 0 0 0 1 forward_v I I I I #
coedge $-1 $250 $248 $252 $353 reversed $161 $-1 #
edge $-1 $263 -16.427203502154434 $355 16.427203502154434 $262 $408 forward 7 unknown #
vertex $-1 $353 $409 #
straight-curve $-1 -68.188116092410041 -42.108612064171226 0 0 0 -1 I I #
edge $-1 $351 -42.108612064171226 $355 42.108612064171226 $349 $410 forward 7 unknown #
straight-curve $-1 0 -42.108612064171226 -16.427203502154434 -1 0 0 I I #
vertex $-1 $255 $411 #
straight-curve $-1 0 42.108612064171226 -16.427203502154434 1 0 0 I I #
point $-1 68.188116092410041 42.108612064171226 -16.427203502154434 #
point $-1 68.188116092410041 -42.108612064171226 -16.427203502154434 #
straight-curve $-1 -68.188116092410041 0 16.427203502154434 0 -1 0 I I #
point $-1 -68.188116092410041 42.108612064171226 16.427203502154434 #
point $-1 -68.188116092410041 -42.108612064171226 16.427203502154434 #
straight-curve $-1 68.188116092410041 -42.108612064171226 0 0 0 -1 I I #
straight-curve $-1 68.188116092410041 42.108612064171226 0 0 0 -1 I I #
plane-surface $-1 68.188116092410041 0 0 -1 0 0 0 0 1 forward_v I I I I #
coedge $-1 $368 $275 $277 $367 forward $180 $-1 #
coedge $-1 $275 $368 $289 $378 reversed $180 $-1 #
edge $-1 $287 -4.2743739396577549 $372 -0.93298439096976615 $365 $412 forward 7 unknown #
coedge $-1 $366 $365 $278 $369 forward $180 $-1 #
edge $-1 $372 5.8701270154002216 $370 26.11569903764741 $368 $413 forward 7 unknown #
vertex $-1 $280 $414 #
straight-curve $-1 0 -42.108612064171226 3.5366635562835267 1 0 0 I I #
vertex $-1 $369 $415 #
straight-curve $-1 0 -21.863040041924037 3.5366635562835267 1 0 0 I I #
point $-1 68.188116092410041 -42.108612064171226 3.5366635562835267 #
point $-1 68.188116092410041 -21.863040041924037 3.5366635562835267 #
straight-curve $-1 -68.188116092410041 -15.992913026523816 6.8780531049715155 0 1 0 I I #
point $-1 -68.188116092410041 -21.863040041924037 6.8780531049715155 #
edge $-1 $291 -6.8780531049715155 $370 -3.5366635562835267 $366 $416 forward 7 unknown #
point $-1 -68.188116092410041 -42.108612064171226 6.8780531049715155 #
straight-curve $-1 68.188116092410041 -42.108612064171226 0 0 0 -1 I I #
straight-curve $-1 68.188116092410041 -21.863040041924037 2.6036791653137605 0 0 1 I I #
edge $-1 $383 -40.820852269284963 $386 -27.004222058062659 $298 $417 forward 7 unknown #
vertex $-1 $382 $418 #
straight-curve $-1 68.188116092410041 -0.31622379114784493 98.405948696572722 0 0 1 I I #
edge $-1 $386 -2.796479583843233 $309 9.021886333825389 $308 $419 forward 7 unknown #
vertex $-1 $385 $420 #
straight-curve $-1 -34.736331906343224 -0.31622379114784493 93.887449394392164 0.75470957328743171 0 -0.6560590369687036 I I #
point $-1 68.188116092410056 -0.31622379114784493 4.4165898417987819 #
point $-1 54.371485881187738 -12.134589708816467 16.427203502154427 #
straight-curve $-1 68.188116092410041 0 16.427203502154434 0 1 0 I I #
vertex $-1 $315 $421 #
point $-1 59.503016056525553 -8.7579137323397234 6.8536863972330169 #
vertex $-1 $319 $422 #
point $-1 59.503016056525553 -3.6928997676246027 6.8536863972330169 #
edge $-1 $402 23.093308549944737 $397 30.413822333393661 $324 $423 forward 7 unknown #
edge $-1 $330 -34.560608684001913 $402 -23.288005629053579 $329 $424 forward 7 unknown #
vertex $-1 $399 $425 #
straight-curve $-1 -68.188116092410056 -21.863040041924037 5.1546004472060787 -0.54463902268945019 0 -0.83867057594974714 I I #
edge $-1 $397 -14.359060892227728 $334 -0.64889740716489008 $333 $426 forward 7 unknown #
point $-1 -68.188116092410041 -21.863040041924037 5.1546004472061009 #
point $-1 -60.867602308961118 -8.1528765568611998 16.427203502154434 #
vertex $-1 $396 $427 #
straight-curve $-1 -68.188116092410041 0 16.427203502154434 0 -1 0 I I #
vertex $-1 $340 $428 #
point $-1 -61.130480946951735 -17.94585047476323 9.7769820921840527 #
vertex $-1 $344 $429 #
point $-1 -61.130480946951735 -12.070066124022013 9.7769820921840527 #
straight-curve $-1 -68.188116092410041 42.108612064171226 0 0 0 -1 I I #
point $-1 -68.188116092410041 -42.108612064171226 -16.427203502154434 #
straight-curve $-1 -68.188116092410041 0 -16.427203502154434 0 1 0 I I #
point $-1 -68.188116092410041 42.108612064171226 -16.427203502154434 #
straight-curve $-1 -68.188116092410041 -21.863040041924037 2.6036791653137605 0 0 -1 I I #
straight-curve $-1 -68.188116092410041 -15.992913026523816 3.5366635562835267 0 -1 0 I I #
point $-1 -68.188116092410041 -42.108612064171226 3.5366635562835267 #
point $-1 -68.188116092410041 -21.863040041924037 3.5366635562835267 #
straight-curve $-1 -68.188116092410041 -42.108612064171226 0 0 0 -1 I I #
straight-curve $-1 27.367263823125079 -0.31622379114784493 16.427203502154441 -1 0 0 I I #
point $-1 68.188116092410041 -0.31622379114784493 16.427203502154434 #
straight-curve $-1 54.371485881187709 -3.112703374991078 16.427203502154441 0 -1 0 I I #
point $-1 54.371485881187738 -0.31622379114784493 16.427203502154427 #
point $-1 58.092247446269418 -8.7579137323397234 6.7550358609142886 #
point $-1 58.092247446269418 -3.6928997676246027 6.7550358609142886 #
straight-curve $-1 -91.281424642354779 -21.863040041924037 16.427203502154434 1 0 0 I I #
straight-curve $-1 -68.188116092410041 -21.863040041924037 39.715209131208013 0 0 1 I I #
point $-1 -60.867602308961118 -21.863040041924037 16.427203502154434 #
straight-curve $-1 -60.867602308961125 -7.5039791496963097 16.427203502154434 0 1 0 I I #
point $-1 -68.188116092410041 -21.863040041924037 16.427203502154434 #
point $-1 -60.836449393691439 -17.94585047476323 8.393672493544857 #
point $-1 -60.836449393691439 -12.070066124022013 8.393672493544857 #
End-of-ACIS-data 