500 0 9 0           
7 Unknown 11 ACIS 5.0 NT 24 Fri Mar 26 02:09:08 1999 
-1 9.9999999999999995e-007 1e-010 
body $-1 $9 $-1 $10 #
body $-1 $11 $-1 $12 #
body $-1 $13 $-1 $14 #
body $-1 $15 $-1 $16 #
body $-1 $17 $-1 $18 #
body $-1 $19 $-1 $20 #
body $-1 $21 $-1 $22 #
body $-1 $23 $-1 $24 #
body $-1 $25 $-1 $26 #
lump $-1 $-1 $27 $0 #
transform $-1 1 0 0 0 1 0 0 0 1 76.309701834162411 31.430738178479039 10.484650428359243 1 rotate no_reflect no_shear #
lump $-1 $-1 $28 $1 #
transform $-1 1 0 0 0 1 0 0 0 1 76.309701834162411 31.430738178479039 10.484650428359243 1 rotate no_reflect no_shear #
lump $-1 $-1 $29 $2 #
transform $-1 1 0 0 0 1 0 0 0 1 76.309701834162411 31.430738178479039 10.484650428359243 1 rotate no_reflect no_shear #
lump $-1 $-1 $30 $3 #
transform $-1 1 0 0 0 1 0 0 0 1 76.309701834162411 31.430738178479039 10.484650428359243 1 rotate no_reflect no_shear #
lump $-1 $-1 $31 $4 #
transform $-1 1 0 0 0 1 0 0 0 1 76.309701834162411 31.430738178479039 10.484650428359243 1 rotate no_reflect no_shear #
lump $-1 $-1 $32 $5 #
transform $-1 1 0 0 0 1 0 0 0 1 76.309701834162411 31.430738178479039 10.484650428359243 1 rotate no_reflect no_shear #
lump $-1 $-1 $33 $6 #
transform $-1 1 0 0 0 1 0 0 0 1 76.309701834162411 31.430738178479039 10.484650428359243 1 rotate no_reflect no_shear #
lump $-1 $-1 $34 $7 #
transform $-1 1 0 0 0 1 0 0 0 1 76.309701834162411 31.430738178479039 10.484650428359243 1 rotate no_reflect no_shear #
lump $-1 $-1 $35 $8 #
transform $-1 1 0 0 0 1 0 0 0 1 76.309701834162411 31.430738178479039 10.484650428359243 1 rotate no_reflect no_shear #
shell $-1 $-1 $-1 $36 $-1 $9 #
shell $-1 $-1 $-1 $37 $-1 $11 #
shell $-1 $-1 $-1 $38 $-1 $13 #
shell $-1 $-1 $-1 $39 $-1 $15 #
shell $-1 $-1 $-1 $40 $-1 $17 #
shell $-1 $-1 $-1 $41 $-1 $19 #
shell $-1 $-1 $-1 $42 $-1 $21 #
shell $-1 $-1 $-1 $43 $-1 $23 #
shell $-1 $-1 $-1 $44 $-1 $25 #
face $-1 $45 $46 $27 $-1 $47 forward single #
face $-1 $48 $49 $28 $-1 $50 forward single #
face $-1 $51 $52 $29 $-1 $53 reversed single #
face $-1 $54 $55 $30 $-1 $56 forward single #
face $-1 $57 $58 $31 $-1 $59 forward single #
face $-1 $60 $61 $32 $-1 $62 reversed single #
face $-1 $63 $64 $33 $-1 $65 forward single #
face $-1 $66 $67 $34 $-1 $68 reversed single #
face $-1 $69 $70 $35 $-1 $71 forward single #
face $-1 $72 $73 $27 $-1 $74 reversed single #
loop $-1 $-1 $75 $36 #
plane-surface $-1 0 0 10.484650428359243 0 0 1 1 0 0 forward_v I I I I #
face $-1 $76 $77 $28 $-1 $78 reversed single #
loop $-1 $-1 $79 $37 #
plane-surface $-1 0 -24.797445714410184 -6.1432731312147562 0 0 1 1 0 0 forward_v I I I I #
face $-1 $80 $81 $29 $-1 $82 reversed single #
loop $-1 $-1 $83 $38 #
plane-surface $-1 -184.22791836080859 23.241129874670666 115.13881049722619 0 1 0 -0.70710678939079041 0 0.70710677298230451 forward_v I I I I #
face $-1 $84 $85 $30 $-1 $86 forward single #
loop $-1 $87 $88 $39 #
cone-surface $-1 -74.118497945086361 25.581017961473059 8.2934465143875915 0.70710678939079041 0 -0.70710677298230451 0.35355338649115226 0 0.35355339469539521 1 I I 0 1 0.5 forward I I I I #
face $-1 $89 $90 $31 $-1 $91 forward single #
loop $-1 $92 $93 $40 #
cone-surface $-1 -74.118497945086361 29.09085009167665 8.2934465143875915 0.70710678939079041 0 -0.70710677298230451 0.35355338649115226 0 0.35355339469539521 1 I I 0 1 0.5 forward I I I I #
face $-1 $94 $95 $32 $-1 $96 reversed single #
loop $-1 $-1 $97 $41 #
plane-surface $-1 27.757070951500253 6.6332924640688553 217.69532687189954 0 -1 0 -0.52991927123019833 0 -0.84804809178421925 forward_v I I I I #
face $-1 $98 $99 $33 $-1 $100 forward single #
loop $-1 $101 $102 $42 #
cone-surface $-1 73.182681913355196 3.6000949517630332 7.8952555881859254 -0.52991927123019833 0 -0.84804809178421925 0.84804809178421925 0 -0.52991927123019833 1 I I 0 1 1 forward I I I I #
face $-1 $103 $104 $34 $-1 $105 reversed single #
loop $-1 $-1 $106 $43 #
plane-surface $-1 -53.118892216005889 28.397540666173221 88.26673282173121 0.52991927123019833 0 0.84804809178421925 0.84804809178421925 0 -0.52991927123019833 forward_v I I I I #
face $-1 $107 $108 $35 $-1 $109 forward single #
loop $-1 $110 $111 $44 #
cone-surface $-1 73.182681913355196 28.397540666173221 7.8952555881859254 -0.52991927123019833 0 -0.84804809178421925 0.84804809178421925 0 -0.52991927123019833 1 I I 0 1 1 forward I I I I #
face $-1 $112 $113 $27 $-1 $114 reversed single #
loop $-1 $-1 $115 $45 #
plane-surface $-1 0 0 -10.484650428359243 0 0 1 1 0 0 forward_v I I I I #
coedge $-1 $116 $117 $118 $119 forward $46 $-1 #
face $-1 $120 $121 $28 $-1 $122 reversed single #
loop $-1 $-1 $123 $48 #
plane-surface $-1 0 -24.797445714410184 -9.1432731312147553 0 0 1 1 0 0 forward_v I I I I #
coedge $-1 $124 $125 $126 $127 reversed $49 $-1 #
face $-1 $128 $129 $29 $-1 $130 forward single #
loop $-1 $-1 $131 $51 #
plane-surface $-1 -76.309701834162396 27.335934026574854 7.2205964748333429 -0.70710678939079041 0 0.70710677298230451 0.70710677298230451 0 0.70710678939079041 forward_v I I I I #
coedge $-1 $132 $133 $134 $135 reversed $52 $-1 #
face $-1 $-1 $136 $30 $-1 $137 forward single #
loop $-1 $138 $139 $54 #
cone-surface $-1 -73.382544297554205 25.581017961473059 7.5574928839333158 0.70710678939079041 0 -0.70710677298230451 0.17677669324557613 0 0.1767766973476976 1 I I -0.70710678118654746 0.70710678118654746 0.25 forward I I I I #
loop $-1 $-1 $140 $39 #
coedge $-1 $88 $88 $141 $142 reversed $55 $-1 #
face $-1 $-1 $143 $31 $-1 $144 forward single #
loop $-1 $145 $146 $57 #
cone-surface $-1 -73.382544297554205 29.09085009167665 7.5574928839333158 0.70710678939079041 0 -0.70710677298230451 0.17677669324557613 0 0.1767766973476976 1 I I -0.70710678118654746 0.70710678118654746 0.25 forward I I I I #
loop $-1 $-1 $147 $40 #
coedge $-1 $93 $93 $148 $149 reversed $58 $-1 #
face $-1 $150 $151 $32 $-1 $152 reversed single #
loop $-1 $-1 $153 $60 #
plane-surface $-1 -53.118892216005889 3.6000949517630332 88.26673282173121 0.52991927123019833 0 0.84804809178421925 0.84804809178421925 0 -0.52991927123019833 forward_v I I I I #
coedge $-1 $154 $155 $156 $157 reversed $61 $-1 #
face $-1 $-1 $158 $33 $-1 $159 forward single #
loop $-1 $160 $161 $63 #
cone-surface $-1 72.266324427273304 3.6000949517630332 6.428777089187621 -0.52991927123019833 0 -0.84804809178421925 0.42402404589210962 0 -0.26495963561509916 1 I I -0.70710678118654746 0.70710678118654746 0.5 forward I I I I #
loop $-1 $-1 $162 $42 #
coedge $-1 $102 $102 $163 $164 reversed $64 $-1 #
face $-1 $165 $166 $34 $-1 $167 reversed single #
loop $-1 $-1 $168 $66 #
plane-surface $-1 27.757070951500253 25.364343153867399 217.69532687189954 0 1 0 0.52991927123019833 0 0.84804809178421925 forward_v I I I I #
coedge $-1 $169 $170 $171 $172 reversed $67 $-1 #
face $-1 $-1 $173 $35 $-1 $174 forward single #
loop $-1 $175 $176 $69 #
cone-surface $-1 72.266324427273304 28.397540666173221 6.428777089187621 -0.52991927123019833 0 -0.84804809178421925 0.42402404589210962 0 -0.26495963561509916 1 I I -0.70710678118654746 0.70710678118654746 0.5 forward I I I I #
loop $-1 $-1 $177 $44 #
coedge $-1 $111 $111 $178 $179 reversed $70 $-1 #
face $-1 $180 $181 $27 $-1 $182 reversed single #
loop $-1 $-1 $183 $72 #
plane-surface $-1 0 -31.430738178479039 0 0 1 0 0 0 1 forward_v I I I I #
coedge $-1 $184 $185 $186 $187 forward $73 $-1 #
coedge $-1 $188 $75 $189 $190 forward $46 $-1 #
coedge $-1 $75 $188 $191 $192 forward $46 $-1 #
coedge $-1 $193 $194 $75 $119 reversed $195 $-1 #
edge $-1 $196 -31.430738178479039 $197 31.430738178479039 $118 $198 forward 7 unknown #
face $-1 $199 $200 $28 $-1 $201 reversed single #
loop $-1 $-1 $202 $76 #
plane-surface $-1 0 -18.164153250341329 -7.6432731312147562 0 -1 0 0 0 -1 forward_v I I I I #
coedge $-1 $203 $204 $205 $206 reversed $77 $-1 #
coedge $-1 $207 $79 $208 $209 forward $49 $-1 #
coedge $-1 $79 $207 $210 $211 reversed $49 $-1 #
coedge $-1 $212 $213 $79 $127 forward $214 $-1 #
edge $-1 $215 5.7654303931362367 $216 19.032015321273946 $126 $217 forward 7 unknown #
face $-1 $218 $219 $29 $-1 $220 reversed single #
loop $-1 $-1 $134 $80 #
plane-surface $-1 0 0 10.484650428359243 0 0 1 1 0 0 forward_v I I I I #
coedge $-1 $221 $222 $223 $224 reversed $81 $-1 #
coedge $-1 $133 $83 $225 $226 reversed $52 $-1 #
coedge $-1 $83 $132 $221 $227 reversed $52 $-1 #
coedge $-1 $223 $228 $83 $135 forward $129 $-1 #
edge $-1 $229 15.804257346241883 $230 19.068311224025095 $134 $231 forward 7 unknown #
loop $-1 $-1 $141 $84 #
plane-surface $-1 -76.309701834162396 27.335934026574854 7.2205964748333429 -0.70710678939079041 0 0.70710677298230451 0.70710677298230451 0 0.70710678939079041 forward_v I I I I #
loop $-1 $-1 $232 $54 #
coedge $-1 $139 $139 $140 $233 reversed $85 $-1 #
coedge $-1 $140 $140 $139 $233 forward $87 $-1 #
coedge $-1 $141 $141 $88 $142 forward $136 $-1 #
edge $-1 $234 0 $234 6.2831853071796004 $141 $235 forward 7 unknown #
loop $-1 $-1 $148 $89 #
plane-surface $-1 -76.309701834162396 27.335934026574854 7.2205964748333429 -0.70710678939079041 0 0.70710677298230451 0.70710677298230451 0 0.70710678939079041 forward_v I I I I #
loop $-1 $-1 $236 $57 #
coedge $-1 $146 $146 $147 $237 reversed $90 $-1 #
coedge $-1 $147 $147 $146 $237 forward $92 $-1 #
coedge $-1 $148 $148 $93 $149 forward $143 $-1 #
edge $-1 $238 0 $238 6.2831853071796004 $148 $239 forward 7 unknown #
face $-1 $240 $241 $32 $-1 $242 reversed single #
loop $-1 $-1 $243 $94 #
plane-surface $-1 27.757070951500253 0.56689743945721105 217.69532687189954 0 1 0 0.52991927123019833 0 0.84804809178421925 forward_v I I I I #
coedge $-1 $244 $245 $246 $247 reversed $95 $-1 #
coedge $-1 $155 $97 $248 $249 reversed $61 $-1 #
coedge $-1 $97 $154 $244 $250 reversed $61 $-1 #
coedge $-1 $246 $251 $97 $157 forward $252 $-1 #
edge $-1 $253 -62.431166358412284 $254 -57.479922217731499 $156 $255 forward 7 unknown #
loop $-1 $-1 $163 $98 #
plane-surface $-1 -53.118892216005889 3.6000949517630332 88.26673282173121 0.52991927123019833 0 0.84804809178421925 0.84804809178421925 0 -0.52991927123019833 forward_v I I I I #
loop $-1 $-1 $256 $63 #
coedge $-1 $161 $161 $162 $257 reversed $99 $-1 #
coedge $-1 $162 $162 $161 $257 forward $101 $-1 #
coedge $-1 $163 $163 $102 $164 forward $158 $-1 #
edge $-1 $258 0 $258 6.2831853071796004 $163 $259 forward 7 unknown #
face $-1 $260 $261 $34 $-1 $262 forward single #
loop $-1 $-1 $263 $103 #
plane-surface $-1 76.309701834162411 0 0 -1 0 0 0 0 1 forward_v I I I I #
coedge $-1 $264 $265 $266 $267 reversed $104 $-1 #
coedge $-1 $268 $106 $269 $270 reversed $67 $-1 #
coedge $-1 $106 $268 $264 $271 forward $67 $-1 #
coedge $-1 $266 $272 $106 $172 forward $261 $-1 #
edge $-1 $273 -17.231967845392433 $274 -11.165572820780788 $171 $275 forward 7 unknown #
loop $-1 $-1 $178 $107 #
plane-surface $-1 -53.118892216005889 28.397540666173221 88.26673282173121 0.52991927123019833 0 0.84804809178421925 0.84804809178421925 0 -0.52991927123019833 forward_v I I I I #
loop $-1 $-1 $276 $69 #
coedge $-1 $176 $176 $177 $277 reversed $108 $-1 #
coedge $-1 $177 $177 $176 $277 forward $110 $-1 #
coedge $-1 $178 $178 $111 $179 forward $173 $-1 #
edge $-1 $278 0 $278 6.2831853071796004 $178 $279 forward 7 unknown #
face $-1 $280 $281 $27 $-1 $282 reversed single #
loop $-1 $-1 $283 $112 #
plane-surface $-1 -76.309701834162411 0 0 1 0 0 0 0 -1 forward_v I I I I #
coedge $-1 $284 $191 $285 $286 forward $113 $-1 #
coedge $-1 $287 $115 $284 $288 forward $73 $-1 #
coedge $-1 $115 $287 $289 $290 forward $73 $-1 #
coedge $-1 $194 $193 $115 $187 reversed $195 $-1 #
edge $-1 $291 -31.430738178479039 $292 31.430738178479039 $186 $293 forward 7 unknown #
coedge $-1 $117 $116 $294 $295 forward $46 $-1 #
coedge $-1 $296 $297 $116 $190 reversed $281 $-1 #
edge $-1 $197 -76.309701834162411 $298 76.309701834162411 $189 $299 forward 7 unknown #
coedge $-1 $183 $300 $117 $192 reversed $113 $-1 #
edge $-1 $301 -76.309701834162411 $196 76.309701834162411 $191 $302 forward 7 unknown #
coedge $-1 $186 $118 $300 $303 forward $195 $-1 #
coedge $-1 $118 $186 $296 $304 reversed $195 $-1 #
loop $-1 $-1 $193 $280 #
vertex $-1 $119 $305 #
vertex $-1 $119 $306 #
straight-curve $-1 76.309701834162411 0 10.484650428359243 0 1 0 I I #
face $-1 $307 $308 $28 $-1 $309 reversed single #
loop $-1 $-1 $310 $120 #
plane-surface $-1 -76.309701834162411 0 0 1 0 0 0 0 -1 forward_v I I I I #
coedge $-1 $311 $208 $213 $312 reversed $121 $-1 #
coedge $-1 $313 $123 $314 $315 reversed $77 $-1 #
coedge $-1 $123 $313 $311 $316 forward $77 $-1 #
coedge $-1 $213 $212 $123 $206 forward $214 $-1 #
edge $-1 $317 -19.032015321273946 $318 -5.7654303931362367 $205 $319 forward 7 unknown #
coedge $-1 $125 $124 $310 $320 reversed $49 $-1 #
coedge $-1 $202 $321 $124 $209 reversed $121 $-1 #
edge $-1 $215 -76.309701834162411 $322 76.309701834162411 $208 $323 forward 7 unknown #
coedge $-1 $324 $325 $125 $211 forward $308 $-1 #
edge $-1 $216 -76.309701834162411 $326 76.309701834162411 $210 $327 forward 7 unknown #
coedge $-1 $205 $126 $325 $328 forward $214 $-1 #
coedge $-1 $126 $205 $202 $312 forward $214 $-1 #
loop $-1 $-1 $126 $307 #
vertex $-1 $127 $329 #
vertex $-1 $328 $330 #
straight-curve $-1 76.309701834162411 -12.398722857205092 -6.1432731312147562 0 -1 0 I I #
face $-1 $-1 $331 $29 $-1 $332 reversed single #
loop $-1 $-1 $333 $128 #
plane-surface $-1 0 31.430738178479039 0 0 -1 0 0 0 -1 forward_v I I I I #
coedge $-1 $334 $131 $133 $227 forward $81 $-1 #
coedge $-1 $131 $334 $333 $335 reversed $81 $-1 #
coedge $-1 $336 $134 $131 $224 forward $129 $-1 #
edge $-1 $230 9.5731628613832385 $337 17.762771165191616 $223 $338 forward 7 unknown #
coedge $-1 $339 $340 $132 $226 forward $331 $-1 #
edge $-1 $341 -50.348808773779766 $229 -47.084754820253849 $225 $342 forward 7 unknown #
edge $-1 $230 -4.6160693158356718 $341 2.0097183471152325e-014 $133 $343 forward 7 unknown #
coedge $-1 $134 $336 $339 $344 forward $129 $-1 #
vertex $-1 $226 $345 #
vertex $-1 $135 $346 #
straight-curve $-1 -92.113959180404294 23.241129874670666 10.484650428359245 1 0 0 I I #
coedge $-1 $232 $232 $-1 $347 reversed $138 $-1 #
edge $-1 $348 0 $348 6.2831853071796004 $139 $349 forward 7 unknown #
vertex $-1 $142 $350 #
ellipse-curve $-1 -74.677674895270812 25.581017961473059 8.8526234515962834 -0.70710678939079041 0 0.70710677298230451 0.35355338649115226 0 0.35355339469539521 1 I I #
coedge $-1 $236 $236 $-1 $351 reversed $145 $-1 #
edge $-1 $352 0 $352 6.2831853071796004 $146 $353 forward 7 unknown #
vertex $-1 $149 $354 #
ellipse-curve $-1 -74.677674895270812 29.09085009167665 8.8526234515962834 -0.70710678939079041 0 0.70710677298230451 0.35355338649115226 0 0.35355339469539521 1 I I #
face $-1 $-1 $252 $32 $-1 $355 forward single #
loop $-1 $-1 $356 $150 #
plane-surface $-1 76.309701834162411 0 0 -1 0 0 0 0 1 forward_v I I I I #
coedge $-1 $357 $358 $359 $360 reversed $151 $-1 #
coedge $-1 $361 $153 $155 $250 forward $95 $-1 #
coedge $-1 $153 $361 $357 $362 forward $95 $-1 #
coedge $-1 $359 $156 $153 $247 forward $252 $-1 #
edge $-1 $254 -4.8332449881873387 $363 1.2331500364243055 $246 $364 forward 7 unknown #
coedge $-1 $365 $366 $154 $249 forward $241 $-1 #
edge $-1 $367 -101.45689378172469 $253 -98.363013007590524 $248 $368 forward 7 unknown #
edge $-1 $254 146.78100347776035 $367 152.61940366832479 $155 $369 forward 7 unknown #
coedge $-1 $156 $359 $365 $370 forward $252 $-1 #
loop $-1 $-1 $359 $240 #
vertex $-1 $249 $371 #
vertex $-1 $157 $372 #
straight-curve $-1 13.878535475750127 6.6332924640688553 10.484650428359245 -1 0 0 I I #
coedge $-1 $256 $256 $-1 $373 reversed $160 $-1 #
edge $-1 $374 0 $374 6.2831853071796004 $161 $375 forward 7 unknown #
vertex $-1 $164 $376 #
ellipse-curve $-1 73.834079763822018 3.6000949517630332 8.9377100412921635 0.52991927123019833 0 0.84804809178421925 0.84804809178421925 0 -0.52991927123019833 1 I I #
face $-1 $-1 $377 $34 $-1 $378 reversed single #
loop $-1 $-1 $266 $165 #
plane-surface $-1 0 0 10.484650428359243 0 0 1 1 0 0 forward_v I I I I #
coedge $-1 $379 $380 $265 $381 forward $166 $-1 #
coedge $-1 $265 $168 $170 $271 reversed $104 $-1 #
coedge $-1 $168 $264 $263 $381 reversed $104 $-1 #
coedge $-1 $382 $171 $168 $267 forward $261 $-1 #
edge $-1 $274 57.479922217731499 $383 62.431166358412284 $266 $384 forward 7 unknown #
coedge $-1 $170 $169 $379 $385 reversed $67 $-1 #
coedge $-1 $386 $387 $169 $270 forward $377 $-1 #
edge $-1 $388 -106.70859471220587 $273 -100.87019452164142 $269 $389 forward 7 unknown #
edge $-1 $390 -152.61940366832479 $274 -146.78100347776035 $264 $391 forward 7 unknown #
coedge $-1 $171 $382 $386 $392 forward $261 $-1 #
vertex $-1 $270 $393 #
vertex $-1 $172 $394 #
straight-curve $-1 71.358457693481625 14.19877033308661 10.484650428359238 0 -1 0 I I #
coedge $-1 $276 $276 $-1 $395 reversed $175 $-1 #
edge $-1 $396 0 $396 6.2831853071796004 $176 $397 forward 7 unknown #
vertex $-1 $179 $398 #
ellipse-curve $-1 73.834079763822018 28.397540666173221 8.9377100412921635 0.52991927123019833 0 0.84804809178421925 0.84804809178421925 0 -0.52991927123019833 1 I I #
face $-1 $-1 $195 $27 $-1 $399 reversed single #
loop $-1 $-1 $296 $180 #
plane-surface $-1 0 31.430738178479039 0 0 -1 0 0 0 -1 forward_v I I I I #
coedge $-1 $400 $294 $297 $401 forward $181 $-1 #
coedge $-1 $300 $183 $184 $288 reversed $113 $-1 #
coedge $-1 $294 $400 $183 $286 reversed $181 $-1 #
edge $-1 $301 -10.484650428359243 $402 10.484650428359243 $285 $403 forward 7 unknown #
coedge $-1 $185 $184 $400 $404 forward $73 $-1 #
edge $-1 $292 -76.309701834162411 $402 76.309701834162411 $284 $405 forward 7 unknown #
coedge $-1 $297 $296 $185 $290 reversed $281 $-1 #
edge $-1 $406 -76.309701834162411 $291 76.309701834162411 $289 $407 forward 7 unknown #
vertex $-1 $187 $408 #
vertex $-1 $303 $409 #
straight-curve $-1 76.309701834162411 0 -10.484650428359243 0 -1 0 I I #
coedge $-1 $283 $285 $188 $295 reversed $181 $-1 #
edge $-1 $298 -31.430738178479039 $301 31.430738178479039 $294 $410 forward 7 unknown #
coedge $-1 $289 $189 $194 $304 forward $281 $-1 #
coedge $-1 $189 $289 $283 $401 reversed $281 $-1 #
vertex $-1 $190 $411 #
straight-curve $-1 0 31.430738178479039 10.484650428359243 -1 0 0 I I #
coedge $-1 $191 $284 $193 $303 reversed $113 $-1 #
vertex $-1 $295 $412 #
straight-curve $-1 0 -31.430738178479039 10.484650428359243 1 0 0 I I #
edge $-1 $196 -10.484650428359243 $292 10.484650428359243 $193 $413 forward 7 unknown #
edge $-1 $197 -10.484650428359243 $291 10.484650428359243 $194 $414 forward 7 unknown #
point $-1 76.309701834162411 -31.430738178479039 10.484650428359243 #
point $-1 76.309701834162411 31.430738178479039 10.484650428359243 #
face $-1 $-1 $214 $28 $-1 $415 reversed single #
loop $-1 $-1 $210 $199 #
plane-surface $-1 0 -31.430738178479039 0 0 1 0 0 0 1 forward_v I I I I #
coedge $-1 $416 $417 $207 $320 forward $200 $-1 #
coedge $-1 $321 $202 $204 $316 reversed $121 $-1 #
edge $-1 $318 -5.3216365656073776 $215 -2.3216365656073781 $213 $418 forward 7 unknown #
coedge $-1 $204 $203 $419 $420 reversed $77 $-1 #
coedge $-1 $325 $324 $203 $315 forward $308 $-1 #
edge $-1 $421 -76.309701834162411 $317 76.309701834162411 $314 $422 forward 7 unknown #
edge $-1 $423 -76.309701834162411 $318 76.309701834162411 $311 $424 forward 7 unknown #
vertex $-1 $315 $425 #
vertex $-1 $206 $426 #
straight-curve $-1 76.309701834162411 -12.398722857205092 -9.1432731312147553 0 1 0 I I #
edge $-1 $326 -19.032015321273946 $322 -5.7654303931362367 $310 $427 forward 7 unknown #
coedge $-1 $208 $311 $416 $428 reversed $121 $-1 #
vertex $-1 $320 $429 #
straight-curve $-1 0 -18.164153250341329 -6.1432731312147562 -1 0 0 I I #
coedge $-1 $314 $210 $417 $430 forward $308 $-1 #
coedge $-1 $210 $314 $212 $328 reversed $308 $-1 #
vertex $-1 $430 $431 #
straight-curve $-1 0 -31.430738178479039 -6.1432731312147562 -1 0 0 I I #
edge $-1 $216 6.1432731312147562 $317 9.1432731312147553 $212 $432 forward 7 unknown #
point $-1 76.309701834162411 -18.164153250341329 -6.1432731312147562 #
point $-1 76.309701834162411 -31.430738178479039 -6.1432731312147562 #
loop $-1 $-1 $225 $218 #
plane-surface $-1 -76.309701834162411 0 0 1 0 0 0 0 -1 forward_v I I I I #
coedge $-1 $433 $434 $222 $335 forward $219 $-1 #
coedge $-1 $222 $221 $340 $435 reversed $81 $-1 #
edge $-1 $337 19.810617794359612 $436 24.426687110195303 $333 $437 forward 7 unknown #
coedge $-1 $228 $223 $434 $438 forward $129 $-1 #
vertex $-1 $438 $439 #
straight-curve $-1 -73.045647956379213 13.667967013287427 10.484650428359242 0 1 0 I I #
coedge $-1 $440 $225 $228 $344 reversed $331 $-1 #
coedge $-1 $225 $440 $334 $435 forward $331 $-1 #
vertex $-1 $226 $441 #
straight-curve $-1 -76.309701834162411 23.241129874670666 57.569405248613094 0 0 1 I I #
straight-curve $-1 -76.309701834162396 23.241129874670666 7.2205964748333429 -0.70710677298230451 0 -0.70710678939079041 I I #
edge $-1 $442 -31.430738178479039 $229 -23.241129874670666 $339 $443 forward 7 unknown #
point $-1 -76.309701834162411 23.241129874670666 10.484650428359243 #
point $-1 -73.045647956379199 23.241129874670666 10.484650428359243 #
edge $-1 $444 1 $444 0 $232 $-1 forward 7 unknown #
vertex $-1 $233 $445 #
ellipse-curve $-1 -73.559320994901896 25.581017961473059 7.7342695771788916 -0.70710678939079041 0 0.70710677298230451 0.35355338649115226 0 0.35355339469539521 1 I I #
point $-1 -74.324121508779669 25.581017961473059 9.2061768462916866 #
edge $-1 $446 1 $446 0 $236 $-1 forward 7 unknown #
vertex $-1 $237 $447 #
ellipse-curve $-1 -73.559320994901896 29.09085009167665 7.7342695771788916 -0.70710678939079041 0 0.70710677298230451 0.35355338649115226 0 0.35355339469539521 1 I I #
point $-1 -74.324121508779669 29.09085009167665 9.2061768462916866 #
plane-surface $-1 0 0 10.484650428359243 0 0 1 1 0 0 forward_v I I I I #
coedge $-1 $366 $365 $358 $448 forward $241 $-1 #
coedge $-1 $358 $243 $245 $362 reversed $151 $-1 #
coedge $-1 $243 $357 $356 $448 reversed $151 $-1 #
coedge $-1 $251 $246 $243 $360 forward $252 $-1 #
edge $-1 $363 57.479922217731499 $449 62.431166358412284 $359 $450 forward 7 unknown #
coedge $-1 $245 $244 $366 $451 reversed $95 $-1 #
edge $-1 $452 -152.61940366832479 $363 -146.78100347776035 $357 $453 forward 7 unknown #
vertex $-1 $247 $454 #
straight-curve $-1 71.358457693481625 1.8000474758815166 10.484650428359238 0 -1 0 I I #
coedge $-1 $356 $248 $251 $370 reversed $241 $-1 #
coedge $-1 $248 $356 $361 $451 forward $241 $-1 #
vertex $-1 $249 $455 #
straight-curve $-1 76.309701834162411 6.6332924640688553 108.84766343594977 0 0 1 I I #
straight-curve $-1 -53.118892216005889 6.6332924640688553 88.26673282173121 0.84804809178421925 0 -0.52991927123019833 I I #
edge $-1 $449 0.56689743945721105 $253 6.6332924640688553 $365 $456 forward 7 unknown #
point $-1 76.309701834162411 6.6332924640688553 10.484650428359243 #
point $-1 71.358457693481625 6.6332924640688553 10.484650428359245 #
edge $-1 $457 1 $457 0 $256 $-1 forward 7 unknown #
vertex $-1 $257 $458 #
ellipse-curve $-1 72.531284062888403 3.6000949517630332 6.8528011350797309 0.52991927123019833 0 0.84804809178421925 0.84804809178421925 0 -0.52991927123019833 1 I I #
point $-1 74.682127855606211 3.6000949517630332 8.4077907700619221 #
loop $-1 $-1 $269 $260 #
plane-surface $-1 0 31.430738178479039 0 0 -1 0 0 0 -1 forward_v I I I I #
coedge $-1 $459 $263 $268 $385 forward $166 $-1 #
coedge $-1 $263 $459 $382 $460 reversed $166 $-1 #
edge $-1 $383 98.363013007590524 $390 101.45689378172469 $263 $461 forward 7 unknown #
coedge $-1 $272 $266 $380 $460 forward $261 $-1 #
vertex $-1 $460 $462 #
straight-curve $-1 13.878535475750127 25.364343153867399 10.484650428359245 1 0 0 I I #
edge $-1 $390 11.165572820780788 $388 17.231967845392433 $379 $463 forward 7 unknown #
coedge $-1 $387 $269 $272 $392 reversed $377 $-1 #
coedge $-1 $269 $386 $459 $464 forward $377 $-1 #
vertex $-1 $270 $465 #
straight-curve $-1 -14.184318288499396 31.430738178479039 63.937710398115811 -0.84804809178421925 0 0.52991927123019833 I I #
vertex $-1 $385 $466 #
straight-curve $-1 -53.118892216005889 25.364343153867399 88.26673282173121 -0.84804809178421925 0 0.52991927123019833 I I #
edge $-1 $467 -76.309701834162411 $273 -71.358457693481625 $386 $468 forward 7 unknown #
point $-1 71.358457693481625 31.430738178479043 10.484650428359245 #
point $-1 71.358457693481625 25.364343153867399 10.484650428359245 #
edge $-1 $469 1 $469 0 $276 $-1 forward 7 unknown #
vertex $-1 $277 $470 #
ellipse-curve $-1 72.531284062888403 28.397540666173221 6.8528011350797309 0.52991927123019833 0 0.84804809178421925 0.84804809178421925 0 -0.52991927123019833 1 I I #
point $-1 74.682127855606211 28.397540666173221 8.4077907700619221 #
plane-surface $-1 76.309701834162411 0 0 -1 0 0 0 0 1 forward_v I I I I #
coedge $-1 $285 $283 $287 $404 reversed $181 $-1 #
edge $-1 $298 -10.484650428359243 $406 10.484650428359243 $297 $471 forward 7 unknown #
vertex $-1 $404 $472 #
straight-curve $-1 -76.309701834162411 -31.430738178479039 0 0 0 -1 I I #
edge $-1 $402 -31.430738178479039 $406 31.430738178479039 $400 $473 forward 7 unknown #
straight-curve $-1 0 -31.430738178479039 -10.484650428359243 -1 0 0 I I #
vertex $-1 $290 $474 #
straight-curve $-1 0 31.430738178479039 -10.484650428359243 1 0 0 I I #
point $-1 76.309701834162411 31.430738178479039 -10.484650428359243 #
point $-1 76.309701834162411 -31.430738178479039 -10.484650428359243 #
straight-curve $-1 -76.309701834162411 0 10.484650428359243 0 -1 0 I I #
point $-1 -76.309701834162411 31.430738178479039 10.484650428359243 #
point $-1 -76.309701834162411 -31.430738178479039 10.484650428359243 #
straight-curve $-1 76.309701834162411 -31.430738178479039 0 0 0 -1 I I #
straight-curve $-1 76.309701834162411 31.430738178479039 0 0 0 -1 I I #
plane-surface $-1 76.309701834162411 0 0 -1 0 0 0 0 1 forward_v I I I I #
coedge $-1 $419 $310 $321 $428 forward $200 $-1 #
coedge $-1 $310 $419 $324 $430 reversed $200 $-1 #
straight-curve $-1 76.309701834162411 -18.164153250341329 -3.8216365656073781 0 0 1 I I #
coedge $-1 $417 $416 $313 $420 forward $200 $-1 #
edge $-1 $423 5.7654303931362367 $421 19.032015321273946 $419 $475 forward 7 unknown #
vertex $-1 $315 $476 #
straight-curve $-1 0 -31.430738178479039 -9.1432731312147553 1 0 0 I I #
vertex $-1 $420 $477 #
straight-curve $-1 0 -18.164153250341329 -9.1432731312147553 1 0 0 I I #
point $-1 76.309701834162411 -31.430738178479039 -9.1432731312147553 #
point $-1 76.309701834162411 -18.164153250341329 -9.1432731312147553 #
straight-curve $-1 -76.309701834162411 -12.398722857205092 -6.1432731312147562 0 1 0 I I #
edge $-1 $322 2.3216365656073781 $423 5.3216365656073776 $416 $478 forward 7 unknown #
point $-1 -76.309701834162411 -18.164153250341329 -6.1432731312147562 #
edge $-1 $326 6.1432731312147562 $421 9.1432731312147553 $417 $479 forward 7 unknown #
point $-1 -76.309701834162411 -31.430738178479039 -6.1432731312147562 #
straight-curve $-1 76.309701834162411 -31.430738178479039 0 0 0 -1 I I #
coedge $-1 $434 $333 $440 $480 reversed $219 $-1 #
coedge $-1 $333 $433 $336 $438 reversed $219 $-1 #
edge $-1 $436 -17.762771165191616 $341 -9.5731628613832385 $340 $481 forward 7 unknown #
vertex $-1 $335 $482 #
straight-curve $-1 -59.037425937023755 31.430738178479039 24.492872772776927 -0.70710677298230462 0 -0.70710678939079052 I I #
edge $-1 $337 73.045647956379199 $442 76.309701834162411 $434 $483 forward 7 unknown #
point $-1 -73.045647956379199 31.430738178479043 10.484650428359243 #
coedge $-1 $340 $339 $433 $480 forward $331 $-1 #
point $-1 -76.309701834162411 23.241129874670666 7.2205964748333287 #
vertex $-1 $438 $484 #
straight-curve $-1 -76.309701834162411 0 10.484650428359243 0 -1 0 I I #
vertex $-1 $347 $485 #
point $-1 -73.205767608410753 25.581017961473059 8.0878229718742869 #
vertex $-1 $351 $486 #
point $-1 -73.205767608410753 29.09085009167665 8.0878229718742869 #
edge $-1 $449 98.363013007590524 $452 101.45689378172469 $356 $487 forward 7 unknown #
vertex $-1 $370 $488 #
straight-curve $-1 13.878535475750127 0.56689743945721105 10.484650428359245 1 0 0 I I #
edge $-1 $452 -1.2331500364243055 $367 4.8332449881873387 $366 $489 forward 7 unknown #
vertex $-1 $451 $490 #
straight-curve $-1 -53.118892216005889 0.56689743945721105 88.26673282173121 -0.84804809178421925 0 0.52991927123019833 I I #
point $-1 71.358457693481625 0.56689743945721105 10.484650428359245 #
point $-1 76.309701834162411 6.6332924640688553 7.3907696542250818 #
straight-curve $-1 76.309701834162411 0 10.484650428359243 0 1 0 I I #
vertex $-1 $373 $491 #
point $-1 73.379332154672625 3.6000949517630332 6.3228818638495321 #
coedge $-1 $380 $379 $387 $464 reversed $166 $-1 #
edge $-1 $383 25.364343153867399 $467 31.430738178479039 $380 $492 forward 7 unknown #
straight-curve $-1 76.309701834162411 25.364343153867399 108.84766343594977 0 0 -1 I I #
point $-1 76.309701834162411 25.364343153867399 10.484650428359243 #
straight-curve $-1 76.309701834162411 14.19877033308661 7.3907696542250889 0 1 0 I I #
edge $-1 $467 -10.484650428359243 $388 -7.3907696542250818 $459 $493 forward 7 unknown #
point $-1 76.309701834162411 31.430738178479043 7.3907696542250818 #
point $-1 76.309701834162411 25.364343153867399 7.3907696542250818 #
vertex $-1 $460 $494 #
straight-curve $-1 0 31.430738178479039 10.484650428359243 -1 0 0 I I #
vertex $-1 $395 $495 #
point $-1 73.379332154672625 28.397540666173221 6.3228818638495321 #
straight-curve $-1 -76.309701834162411 31.430738178479039 0 0 0 -1 I I #
point $-1 -76.309701834162411 -31.430738178479039 -10.484650428359243 #
straight-curve $-1 -76.309701834162411 0 -10.484650428359243 0 1 0 I I #
point $-1 -76.309701834162411 31.430738178479039 -10.484650428359243 #
straight-curve $-1 -76.309701834162411 -12.398722857205092 -9.1432731312147553 0 -1 0 I I #
point $-1 -76.309701834162411 -31.430738178479039 -9.1432731312147553 #
point $-1 -76.309701834162411 -18.164153250341329 -9.1432731312147553 #
straight-curve $-1 -76.309701834162411 -18.164153250341329 -3.8216365656073781 0 0 -1 I I #
straight-curve $-1 -76.309701834162411 -31.430738178479039 0 0 0 -1 I I #
edge $-1 $442 -10.484650428359243 $436 -7.2205964748333287 $433 $496 forward 7 unknown #
straight-curve $-1 -76.309701834162411 13.667967013287427 7.2205964748333322 0 -1 0 I I #
point $-1 -76.309701834162411 31.430738178479043 7.2205964748333287 #
straight-curve $-1 0 31.430738178479039 10.484650428359243 -1 0 0 I I #
point $-1 -76.309701834162411 31.430738178479039 10.484650428359243 #
point $-1 -73.205767600206514 25.581017961473059 7.3807161906877399 #
point $-1 -73.205767600206514 29.09085009167665 7.3807161906877399 #
straight-curve $-1 76.309701834162411 0.56689743945721105 108.84766343594977 0 0 -1 I I #
point $-1 76.309701834162411 0.56689743945721105 10.484650428359243 #
straight-curve $-1 76.309701834162411 1.8000474758815166 7.3907696542250889 0 1 0 I I #
point $-1 76.309701834162411 0.56689743945721105 7.3907696542250818 #
point $-1 72.001364791658204 3.6000949517630332 6.0047530432955112 #
straight-curve $-1 76.309701834162411 0 10.484650428359243 0 1 0 I I #
straight-curve $-1 76.309701834162411 31.430738178479039 0 0 0 -1 I I #
point $-1 76.309701834162411 31.430738178479039 10.484650428359243 #
point $-1 72.001364791658204 28.397540666173221 6.0047530432955112 #
straight-curve $-1 -76.309701834162411 31.430738178479039 0 0 0 -1 I I #
End-of-ACIS-data 