500 0 5 0           
7 Unknown 11 ACIS 5.0 NT 24 Thu Mar 25 16:53:54 1999 
-1 9.9999999999999995e-007 1e-010 
body $-1 $5 $-1 $6 #
body $-1 $7 $-1 $8 #
body $-1 $9 $-1 $10 #
body $-1 $11 $-1 $12 #
body $-1 $13 $-1 $14 #
lump $-1 $-1 $15 $0 #
transform $-1 1 0 0 0 1 0 0 0 1 79.898678548539692 45.393041775555126 15.223230590758925 1 rotate no_reflect no_shear #
lump $-1 $-1 $16 $1 #
transform $-1 1 0 0 0 1 0 0 0 1 79.898678548539692 45.393041775555126 15.223230590758925 1 rotate no_reflect no_shear #
lump $-1 $-1 $17 $2 #
transform $-1 1 0 0 0 1 0 0 0 1 79.898678548539692 45.393041775555126 15.223230590758925 1 rotate no_reflect no_shear #
lump $-1 $-1 $18 $3 #
transform $-1 1 0 0 0 1 0 0 0 1 79.898678548539692 45.393041775555126 15.223230590758925 1 rotate no_reflect no_shear #
lump $-1 $-1 $19 $4 #
transform $-1 1 0 0 0 1 0 0 0 1 79.898678548539692 45.393041775555126 15.223230590758925 1 rotate no_reflect no_shear #
shell $-1 $-1 $-1 $20 $-1 $5 #
shell $-1 $-1 $-1 $21 $-1 $7 #
shell $-1 $-1 $-1 $22 $-1 $9 #
shell $-1 $-1 $-1 $23 $-1 $11 #
shell $-1 $-1 $-1 $24 $-1 $13 #
face $-1 $25 $26 $15 $-1 $27 forward single #
face $-1 $28 $29 $16 $-1 $30 forward single #
face $-1 $31 $32 $17 $-1 $33 reversed single #
face $-1 $34 $35 $18 $-1 $36 forward single #
face $-1 $37 $38 $19 $-1 $39 forward single #
face $-1 $40 $41 $15 $-1 $42 reversed single #
loop $-1 $-1 $43 $20 #
plane-surface $-1 0 0 15.223230590758925 0 0 1 1 0 0 forward_v I I I I #
face $-1 $44 $45 $16 $-1 $46 reversed single #
loop $-1 $-1 $47 $21 #
plane-surface $-1 -79.898678548539692 0 0 1 0 0 0 0 -1 forward_v I I I I #
face $-1 $48 $49 $17 $-1 $50 reversed single #
loop $-1 $-1 $51 $22 #
plane-surface $-1 -33.741773814034786 -171.31507888502085 100.63905445017733 -1 0 0 0 -0.78801076186113728 0.61566146476048833 forward_v I I I I #
face $-1 $52 $53 $18 $-1 $54 forward single #
loop $-1 $55 $56 $23 #
cone-surface $-1 -50.82264220699728 -38.926141945666856 7.6451505875443644 0 0.78801076186113728 -0.61566146476048833 1.5 0 0 1 I I 0 1 1.5 forward I I I I #
face $-1 $57 $58 $19 $-1 $59 forward single #
loop $-1 $60 $61 $24 #
cone-surface $-1 -40.574121171219787 -38.926141945666856 7.6451505875443644 0 0.78801076186113728 -0.61566146476048833 1.5 0 0 1 I I 0 1 1.5 forward I I I I #
face $-1 $62 $63 $15 $-1 $64 reversed single #
loop $-1 $-1 $65 $25 #
plane-surface $-1 0 0 -15.223230590758925 0 0 1 1 0 0 forward_v I I I I #
coedge $-1 $66 $67 $68 $69 forward $26 $-1 #
face $-1 $70 $71 $16 $-1 $72 forward single #
loop $-1 $-1 $73 $28 #
plane-surface $-1 0 45.393041775555126 0 0 -1 0 0 0 -1 forward_v I I I I #
coedge $-1 $74 $75 $76 $77 forward $29 $-1 #
face $-1 $78 $79 $17 $-1 $80 reversed single #
loop $-1 $-1 $81 $31 #
plane-surface $-1 -45.69838168910853 -45.393041775555119 2.2579795149346182 0 -0.78801076186113728 0.61566146476048833 1 0 0 forward_v I I I I #
coedge $-1 $82 $83 $84 $85 reversed $32 $-1 #
face $-1 $-1 $86 $18 $-1 $87 forward single #
loop $-1 $88 $89 $34 #
cone-surface $-1 -50.82264220699728 -36.933016059210132 6.0879500236715725 0 0.78801076186113728 -0.61566146476048833 0.75 0 0 1 I I -0.70710678118654757 0.70710678118654757 0.75 forward I I I I #
loop $-1 $-1 $90 $23 #
coedge $-1 $56 $56 $91 $92 reversed $35 $-1 #
face $-1 $-1 $93 $19 $-1 $94 forward single #
loop $-1 $95 $96 $37 #
cone-surface $-1 -40.574121171219787 -36.933016059210132 6.0879500236715725 0 0.78801076186113728 -0.61566146476048833 0.75 0 0 1 I I -0.70710678118654757 0.70710678118654757 0.75 forward I I I I #
loop $-1 $-1 $97 $24 #
coedge $-1 $61 $61 $98 $99 reversed $38 $-1 #
face $-1 $100 $101 $15 $-1 $102 reversed single #
loop $-1 $-1 $103 $40 #
plane-surface $-1 0 -45.393041775555126 0 0 1 0 0 0 1 forward_v I I I I #
coedge $-1 $104 $105 $106 $107 forward $41 $-1 #
coedge $-1 $108 $43 $109 $110 forward $26 $-1 #
coedge $-1 $43 $108 $111 $112 forward $26 $-1 #
coedge $-1 $113 $114 $43 $69 reversed $115 $-1 #
edge $-1 $116 -45.393041775555126 $117 45.393041775555126 $68 $118 forward 7 unknown #
face $-1 $119 $120 $16 $-1 $121 reversed single #
loop $-1 $-1 $76 $44 #
plane-surface $-1 -85.507547240139999 0 10.416856221959751 0 0 1 1 0 0 forward_v I I I I #
coedge $-1 $122 $123 $75 $124 forward $45 $-1 #
coedge $-1 $125 $47 $126 $127 reversed $29 $-1 #
coedge $-1 $47 $125 $73 $124 reversed $29 $-1 #
coedge $-1 $128 $129 $47 $77 reversed $71 $-1 #
edge $-1 $130 -45.393041775555126 $131 45.393041775555126 $76 $132 forward 7 unknown #
face $-1 $133 $134 $17 $-1 $135 reversed single #
loop $-1 $-1 $136 $48 #
plane-surface $-1 -57.654989564182273 -171.31507888502085 100.63905445017733 1 0 0 0 0.78801076186113728 -0.61566146476048833 forward_v I I I I #
coedge $-1 $137 $138 $139 $140 reversed $49 $-1 #
coedge $-1 $83 $51 $141 $142 reversed $32 $-1 #
coedge $-1 $51 $82 $137 $143 reversed $32 $-1 #
coedge $-1 $139 $144 $51 $85 forward $145 $-1 #
edge $-1 $146 40.2644976669553 $147 50.394061696610159 $84 $148 forward 7 unknown #
loop $-1 $-1 $91 $52 #
plane-surface $-1 -45.69838168910853 -45.393041775555119 2.2579795149346182 0 -0.78801076186113728 0.61566146476048833 1 0 0 forward_v I I I I #
loop $-1 $-1 $149 $34 #
coedge $-1 $89 $89 $90 $150 reversed $53 $-1 #
coedge $-1 $90 $90 $89 $150 forward $55 $-1 #
coedge $-1 $91 $91 $56 $92 forward $86 $-1 #
edge $-1 $151 1.5160386171291523e-015 $151 6.2831853071796022 $91 $152 forward 7 unknown #
loop $-1 $-1 $98 $57 #
plane-surface $-1 -45.69838168910853 -45.393041775555119 2.2579795149346182 0 -0.78801076186113728 0.61566146476048833 1 0 0 forward_v I I I I #
loop $-1 $-1 $153 $37 #
coedge $-1 $96 $96 $97 $154 reversed $58 $-1 #
coedge $-1 $97 $97 $96 $154 forward $60 $-1 #
coedge $-1 $98 $98 $61 $99 forward $93 $-1 #
edge $-1 $155 1.5160386171291523e-015 $155 6.2831853071796022 $98 $156 forward 7 unknown #
face $-1 $157 $158 $15 $-1 $159 reversed single #
loop $-1 $-1 $160 $62 #
plane-surface $-1 -79.898678548539692 0 0 1 0 0 0 0 -1 forward_v I I I I #
coedge $-1 $161 $111 $162 $163 forward $63 $-1 #
coedge $-1 $164 $65 $161 $165 forward $41 $-1 #
coedge $-1 $65 $164 $166 $167 forward $41 $-1 #
coedge $-1 $114 $113 $65 $107 reversed $115 $-1 #
edge $-1 $168 -45.393041775555126 $169 45.393041775555126 $106 $170 forward 7 unknown #
coedge $-1 $67 $66 $171 $172 forward $26 $-1 #
coedge $-1 $173 $174 $66 $110 reversed $158 $-1 #
edge $-1 $117 -79.898678548539692 $175 79.898678548539692 $109 $176 forward 7 unknown #
coedge $-1 $103 $177 $67 $112 reversed $63 $-1 #
edge $-1 $178 -79.898678548539692 $116 79.898678548539692 $111 $179 forward 7 unknown #
coedge $-1 $106 $68 $177 $180 forward $115 $-1 #
coedge $-1 $68 $106 $173 $181 reversed $115 $-1 #
loop $-1 $-1 $113 $157 #
vertex $-1 $69 $182 #
vertex $-1 $69 $183 #
straight-curve $-1 79.898678548539692 0 15.223230590758925 0 1 0 I I #
face $-1 $184 $185 $16 $-1 $186 reversed single #
loop $-1 $-1 $187 $70 #
plane-surface $-1 -85.507547240139999 0 3.3161508872314798 0 0 1 1 0 0 forward_v I I I I #
coedge $-1 $188 $73 $189 $190 reversed $45 $-1 #
coedge $-1 $73 $188 $128 $191 reversed $45 $-1 #
edge $-1 $130 -10.416856221959751 $192 -3.3161508872314798 $73 $193 forward 7 unknown #
coedge $-1 $75 $74 $187 $194 forward $29 $-1 #
coedge $-1 $195 $196 $74 $127 forward $197 $-1 #
edge $-1 $198 3.3161508872314798 $131 10.416856221959751 $126 $199 forward 7 unknown #
coedge $-1 $200 $76 $123 $191 forward $71 $-1 #
coedge $-1 $76 $200 $195 $201 forward $71 $-1 #
vertex $-1 $124 $202 #
vertex $-1 $201 $203 #
straight-curve $-1 -79.898678548539692 0 10.416856221959751 0 -1 0 I I #
face $-1 $-1 $145 $17 $-1 $204 forward single #
loop $-1 $-1 $205 $78 #
plane-surface $-1 0 -45.393041775555126 0 0 1 0 0 0 1 forward_v I I I I #
coedge $-1 $206 $207 $208 $209 reversed $79 $-1 #
coedge $-1 $210 $81 $83 $143 forward $49 $-1 #
coedge $-1 $81 $210 $206 $211 forward $49 $-1 #
coedge $-1 $208 $84 $81 $140 forward $145 $-1 #
edge $-1 $147 10.892582969480522 $212 34.805798719628008 $139 $213 forward 7 unknown #
coedge $-1 $214 $215 $82 $142 forward $134 $-1 #
edge $-1 $216 -48.061547710154052 $146 -35.09629663432974 $141 $217 forward 7 unknown #
edge $-1 $147 -16.453139605863704 $216 1.1373479346495045e-014 $83 $218 forward 7 unknown #
coedge $-1 $84 $208 $214 $219 forward $145 $-1 #
loop $-1 $-1 $208 $133 #
vertex $-1 $142 $220 #
vertex $-1 $85 $221 #
straight-curve $-1 -33.741773814034786 -85.657539442510426 15.223230590758924 0 1 0 I I #
coedge $-1 $149 $149 $-1 $222 reversed $88 $-1 #
edge $-1 $223 0 $223 6.2831853071796004 $89 $224 forward 7 unknown #
vertex $-1 $92 $225 #
ellipse-curve $-1 -50.82264220699728 -40.328259760727697 8.7406050528467691 0 -0.78801076186113728 0.61566146476048833 1.5 0 0 1 I I #
coedge $-1 $153 $153 $-1 $226 reversed $95 $-1 #
edge $-1 $227 0 $227 6.2831853071796004 $96 $228 forward 7 unknown #
vertex $-1 $99 $229 #
ellipse-curve $-1 -40.574121171219787 -40.328259760727697 8.7406050528467691 0 -0.78801076186113728 0.61566146476048833 1.5 0 0 1 I I #
face $-1 $-1 $115 $15 $-1 $230 reversed single #
loop $-1 $-1 $173 $100 #
plane-surface $-1 0 45.393041775555126 0 0 -1 0 0 0 -1 forward_v I I I I #
coedge $-1 $231 $171 $174 $232 forward $101 $-1 #
coedge $-1 $177 $103 $104 $165 reversed $63 $-1 #
coedge $-1 $171 $231 $103 $163 reversed $101 $-1 #
edge $-1 $178 -15.223230590758925 $233 15.223230590758925 $162 $234 forward 7 unknown #
coedge $-1 $105 $104 $231 $235 forward $41 $-1 #
edge $-1 $169 -79.898678548539692 $233 79.898678548539692 $161 $236 forward 7 unknown #
coedge $-1 $174 $173 $105 $167 reversed $158 $-1 #
edge $-1 $237 -79.898678548539692 $168 79.898678548539692 $166 $238 forward 7 unknown #
vertex $-1 $107 $239 #
vertex $-1 $180 $240 #
straight-curve $-1 79.898678548539692 0 -15.223230590758925 0 -1 0 I I #
coedge $-1 $160 $162 $108 $172 reversed $101 $-1 #
edge $-1 $175 -45.393041775555126 $178 45.393041775555126 $171 $241 forward 7 unknown #
coedge $-1 $166 $109 $114 $181 forward $158 $-1 #
coedge $-1 $109 $166 $160 $232 reversed $158 $-1 #
vertex $-1 $110 $242 #
straight-curve $-1 0 45.393041775555126 15.223230590758925 -1 0 0 I I #
coedge $-1 $111 $161 $113 $180 reversed $63 $-1 #
vertex $-1 $172 $243 #
straight-curve $-1 0 -45.393041775555126 15.223230590758925 1 0 0 I I #
edge $-1 $116 -15.223230590758925 $169 15.223230590758925 $113 $244 forward 7 unknown #
edge $-1 $117 -15.223230590758925 $168 15.223230590758925 $114 $245 forward 7 unknown #
point $-1 79.898678548539692 -45.393041775555126 15.223230590758925 #
point $-1 79.898678548539692 45.393041775555126 15.223230590758925 #
face $-1 $-1 $197 $16 $-1 $246 reversed single #
loop $-1 $-1 $247 $119 #
plane-surface $-1 -91.116415931740306 0 6.8665035545956155 1 0 0 0 0 -1 forward_v I I I I #
coedge $-1 $248 $189 $125 $194 reversed $120 $-1 #
coedge $-1 $123 $122 $247 $249 reversed $45 $-1 #
coedge $-1 $187 $250 $122 $190 forward $120 $-1 #
edge $-1 $251 -5.608868691600307 $192 5.608868691600307 $122 $252 forward 7 unknown #
edge $-1 $130 -5.608868691600307 $253 5.608868691600307 $123 $254 forward 7 unknown #
vertex $-1 $124 $255 #
straight-curve $-1 -79.898678548539692 45.393041775555126 0 0 0 -1 I I #
edge $-1 $198 -45.393041775555126 $192 45.393041775555126 $187 $256 forward 7 unknown #
coedge $-1 $257 $126 $129 $201 reversed $197 $-1 #
coedge $-1 $126 $257 $248 $258 reversed $197 $-1 #
loop $-1 $-1 $126 $184 #
vertex $-1 $127 $259 #
straight-curve $-1 -79.898678548539692 -45.393041775555126 0 0 0 1 I I #
coedge $-1 $129 $128 $260 $261 forward $71 $-1 #
edge $-1 $262 -5.608868691600307 $131 5.608868691600307 $195 $263 forward 7 unknown #
point $-1 -79.898678548539692 45.393041775555126 10.416856221959751 #
point $-1 -79.898678548539692 -45.393041775555126 10.416856221959751 #
plane-surface $-1 0 0 15.223230590758925 0 0 1 1 0 0 forward_v I I I I #
coedge $-1 $215 $214 $207 $264 forward $134 $-1 #
coedge $-1 $207 $136 $138 $211 reversed $79 $-1 #
coedge $-1 $136 $206 $205 $264 reversed $79 $-1 #
coedge $-1 $144 $139 $136 $209 forward $145 $-1 #
edge $-1 $212 -50.394061696610159 $265 -40.2644976669553 $208 $266 forward 7 unknown #
coedge $-1 $138 $137 $215 $267 reversed $49 $-1 #
edge $-1 $268 -1.1373479346495045e-014 $212 16.453139605863704 $206 $269 forward 7 unknown #
vertex $-1 $140 $270 #
straight-curve $-1 -22.849190844554265 -35.263477745900268 15.223230590758925 -1 0 0 I I #
coedge $-1 $205 $141 $144 $219 reversed $134 $-1 #
coedge $-1 $141 $205 $210 $267 forward $134 $-1 #
vertex $-1 $142 $271 #
straight-curve $-1 -33.741773814034786 -45.393041775555126 50.319527225088663 0 0 1 I I #
straight-curve $-1 -33.741773814034786 -45.393041775555119 2.2579795149346182 0 -0.61566146476048833 -0.78801076186113728 I I #
edge $-1 $265 -57.654989564182273 $146 -33.741773814034786 $214 $272 forward 7 unknown #
point $-1 -33.741773814034786 -45.393041775555126 15.223230590758925 #
point $-1 -33.741773814034786 -35.263477745900268 15.223230590758925 #
edge $-1 $273 1 $273 0 $149 $-1 forward 7 unknown #
vertex $-1 $150 $274 #
ellipse-curve $-1 -50.82264220699728 -37.524024130605987 6.5496961222419383 0 -0.78801076186113728 0.61566146476048833 1.5 0 0 1 I I #
point $-1 -49.32264220699728 -40.328259760727718 8.7406050528467887 #
edge $-1 $275 1 $275 0 $153 $-1 forward 7 unknown #
vertex $-1 $154 $276 #
ellipse-curve $-1 -40.574121171219787 -37.524024130605987 6.5496961222419383 0 -0.78801076186113728 0.61566146476048833 1.5 0 0 1 I I #
point $-1 -39.074121171219787 -40.328259760727718 8.7406050528467887 #
plane-surface $-1 79.898678548539692 0 0 -1 0 0 0 0 1 forward_v I I I I #
coedge $-1 $162 $160 $164 $235 reversed $101 $-1 #
edge $-1 $175 -15.223230590758925 $237 15.223230590758925 $174 $277 forward 7 unknown #
vertex $-1 $235 $278 #
straight-curve $-1 -79.898678548539692 -45.393041775555126 0 0 0 -1 I I #
edge $-1 $233 -45.393041775555126 $237 45.393041775555126 $231 $279 forward 7 unknown #
straight-curve $-1 0 -45.393041775555126 -15.223230590758925 -1 0 0 I I #
vertex $-1 $167 $280 #
straight-curve $-1 0 45.393041775555126 -15.223230590758925 1 0 0 I I #
point $-1 79.898678548539692 45.393041775555126 -15.223230590758925 #
point $-1 79.898678548539692 -45.393041775555126 -15.223230590758925 #
straight-curve $-1 -79.898678548539692 0 15.223230590758925 0 -1 0 I I #
point $-1 -79.898678548539692 45.393041775555126 15.223230590758925 #
point $-1 -79.898678548539692 -45.393041775555126 15.223230590758925 #
straight-curve $-1 79.898678548539692 -45.393041775555126 0 0 0 -1 I I #
straight-curve $-1 79.898678548539692 45.393041775555126 0 0 0 -1 I I #
plane-surface $-1 0 -45.393041775555126 0 0 1 0 0 0 1 forward_v I I I I #
coedge $-1 $281 $260 $188 $249 forward $185 $-1 #
coedge $-1 $250 $187 $196 $258 forward $120 $-1 #
edge $-1 $253 -3.5503526673641357 $251 3.5503526673641357 $188 $282 forward 7 unknown #
coedge $-1 $189 $248 $281 $283 forward $120 $-1 #
vertex $-1 $190 $284 #
straight-curve $-1 -85.507547240139999 45.393041775555126 3.3161508872314798 1 0 0 I I #
vertex $-1 $191 $285 #
straight-curve $-1 -85.507547240139999 45.393041775555126 10.416856221959751 -1 0 0 I I #
point $-1 -79.898678548539692 45.393041775555126 3.3161508872314798 #
straight-curve $-1 -79.898678548539692 0 3.3161508872314798 0 1 0 I I #
coedge $-1 $196 $195 $286 $287 forward $197 $-1 #
edge $-1 $198 -5.608868691600307 $288 5.608868691600307 $196 $289 forward 7 unknown #
point $-1 -79.898678548539692 -45.393041775555126 3.3161508872314798 #
coedge $-1 $247 $286 $200 $261 reversed $185 $-1 #
edge $-1 $253 -45.393041775555126 $262 45.393041775555126 $260 $290 forward 7 unknown #
vertex $-1 $261 $291 #
straight-curve $-1 -85.507547240139999 -45.393041775555126 10.416856221959751 1 0 0 I I #
edge $-1 $265 35.09629663432974 $268 48.061547710154052 $205 $292 forward 7 unknown #
vertex $-1 $219 $293 #
straight-curve $-1 -57.654989564182273 -85.657539442510426 15.223230590758924 0 -1 0 I I #
edge $-1 $268 -34.805798719628008 $216 -10.892582969480522 $215 $294 forward 7 unknown #
vertex $-1 $267 $295 #
straight-curve $-1 -57.654989564182273 -45.393041775555119 2.2579795149346182 0 0.61566146476048833 0.78801076186113728 I I #
point $-1 -57.654989564182273 -35.263477745900268 15.223230590758925 #
point $-1 -33.741773814034786 -45.393041775555126 2.2579795149346094 #
straight-curve $-1 0 -45.393041775555126 15.223230590758925 1 0 0 I I #
vertex $-1 $222 $296 #
point $-1 -49.32264220699728 -37.524024130605987 6.5496961222419383 #
vertex $-1 $226 $297 #
point $-1 -39.074121171219787 -37.524024130605987 6.5496961222419383 #
straight-curve $-1 -79.898678548539692 45.393041775555126 0 0 0 -1 I I #
point $-1 -79.898678548539692 -45.393041775555126 -15.223230590758925 #
straight-curve $-1 -79.898678548539692 0 -15.223230590758925 0 1 0 I I #
point $-1 -79.898678548539692 45.393041775555126 -15.223230590758925 #
coedge $-1 $286 $247 $250 $283 reversed $185 $-1 #
straight-curve $-1 -91.116415931740306 45.393041775555126 6.8665035545956155 0 0 -1 I I #
edge $-1 $288 -45.393041775555126 $251 45.393041775555126 $281 $298 forward 7 unknown #
point $-1 -91.116415931740306 45.393041775555126 3.3161508872314798 #
point $-1 -91.116415931740306 45.393041775555126 10.416856221959751 #
coedge $-1 $260 $281 $257 $287 reversed $185 $-1 #
edge $-1 $262 -3.5503526673641357 $288 3.5503526673641357 $286 $299 forward 7 unknown #
vertex $-1 $283 $300 #
straight-curve $-1 -85.507547240139999 -45.393041775555126 3.3161508872314798 -1 0 0 I I #
straight-curve $-1 -91.116415931740306 0 10.416856221959751 0 -1 0 I I #
point $-1 -91.116415931740306 -45.393041775555126 10.416856221959751 #
straight-curve $-1 -57.654989564182273 -45.393041775555126 50.319527225088663 0 0 -1 I I #
point $-1 -57.654989564182273 -45.393041775555126 15.223230590758925 #
straight-curve $-1 -22.849190844554265 -45.393041775555126 2.2579795149346089 1 0 0 I I #
point $-1 -57.654989564182273 -45.393041775555126 2.2579795149346094 #
point $-1 -50.82264220699728 -36.342007987814277 5.6262039251012066 #
point $-1 -40.574121171219787 -36.342007987814277 5.6262039251012066 #
straight-curve $-1 -91.116415931740306 0 3.3161508872314798 0 1 0 I I #
straight-curve $-1 -91.116415931740306 -45.393041775555126 6.8665035545956155 0 0 -1 I I #
point $-1 -91.116415931740306 -45.393041775555126 3.3161508872314798 #
End-of-ACIS-data 