500 0 7 0           
7 Unknown 11 ACIS 5.0 NT 24 Fri Mar 26 18:37:58 1999 
-1 9.9999999999999995e-007 1e-010 
body $-1 $7 $-1 $8 #
body $-1 $9 $-1 $10 #
body $-1 $11 $-1 $12 #
body $-1 $13 $-1 $14 #
body $-1 $15 $-1 $16 #
body $-1 $17 $-1 $18 #
body $-1 $19 $-1 $20 #
lump $-1 $-1 $21 $0 #
transform $-1 1 0 0 0 1 0 0 0 1 49.282509842219305 28.003059968850629 13.068806828506141 1 rotate no_reflect no_shear #
lump $-1 $-1 $22 $1 #
transform $-1 1 0 0 0 1 0 0 0 1 49.282509842219305 28.003059968850629 13.068806828506141 1 rotate no_reflect no_shear #
lump $-1 $-1 $23 $2 #
transform $-1 1 0 0 0 1 0 0 0 1 49.282509842219305 28.003059968850629 13.068806828506141 1 rotate no_reflect no_shear #
lump $-1 $-1 $24 $3 #
transform $-1 1 0 0 0 1 0 0 0 1 49.282509842219305 28.003059968850629 13.068806828506141 1 rotate no_reflect no_shear #
lump $-1 $-1 $25 $4 #
transform $-1 1 0 0 0 1 0 0 0 1 49.282509842219305 28.003059968850629 13.068806828506141 1 rotate no_reflect no_shear #
lump $-1 $-1 $26 $5 #
transform $-1 1 0 0 0 1 0 0 0 1 49.282509842219305 28.003059968850629 13.068806828506141 1 rotate no_reflect no_shear #
lump $-1 $-1 $27 $6 #
transform $-1 1 0 0 0 1 0 0 0 1 49.282509842219305 28.003059968850629 13.068806828506141 1 rotate no_reflect no_shear #
shell $-1 $-1 $-1 $28 $-1 $7 #
shell $-1 $-1 $-1 $29 $-1 $9 #
shell $-1 $-1 $-1 $30 $-1 $11 #
shell $-1 $-1 $-1 $31 $-1 $13 #
shell $-1 $-1 $-1 $32 $-1 $15 #
shell $-1 $-1 $-1 $33 $-1 $17 #
shell $-1 $-1 $-1 $34 $-1 $19 #
face $-1 $35 $36 $21 $-1 $37 forward single #
face $-1 $38 $39 $22 $-1 $40 forward single #
face $-1 $41 $42 $23 $-1 $43 forward single #
face $-1 $44 $45 $24 $-1 $46 reversed single #
face $-1 $47 $48 $25 $-1 $49 forward single #
face $-1 $50 $51 $26 $-1 $52 forward single #
face $-1 $53 $54 $27 $-1 $55 forward single #
face $-1 $56 $57 $21 $-1 $58 reversed single #
loop $-1 $-1 $59 $28 #
plane-surface $-1 0 0 13.068806828506141 0 0 1 1 0 0 forward_v I I I I #
face $-1 $60 $61 $22 $-1 $62 reversed single #
loop $-1 $-1 $63 $29 #
plane-surface $-1 -43.43711935403568 0 8.0656053790520801 0 0 1 1 0 0 forward_v I I I I #
face $-1 $64 $65 $23 $-1 $66 reversed single #
loop $-1 $-1 $67 $30 #
plane-surface $-1 43.43711935403568 0 8.0656053790520801 0 0 1 1 0 0 forward_v I I I I #
face $-1 $68 $69 $24 $-1 $70 reversed single #
loop $-1 $-1 $71 $31 #
plane-surface $-1 -2.9875762308135201 -105.6733562232431 62.220952985966235 1 0 0 0 0.78801076186113728 -0.61566146476048833 forward_v I I I I #
face $-1 $72 $73 $25 $-1 $74 forward single #
loop $-1 $75 $76 $32 #
cone-surface $-1 0.6278470410101491 -22.13273584004045 6.236299731642224 0 0.78801076186113728 -0.61566146476048833 1 0 0 1 I I 0 1 1 forward I I I I #
face $-1 $77 $78 $26 $-1 $79 forward single #
loop $-1 $80 $81 $33 #
cone-surface $-1 6.0509819487456511 -22.13273584004045 6.236299731642224 0 0.78801076186113728 -0.61566146476048833 1 0 0 1 I I 0 1 1 forward I I I I #
face $-1 $82 $83 $27 $-1 $84 forward single #
loop $-1 $85 $86 $34 #
cone-surface $-1 11.474116856481153 -22.13273584004045 6.236299731642224 0 0.78801076186113728 -0.61566146476048833 1 0 0 1 I I 0 1 1 forward I I I I #
face $-1 $87 $88 $21 $-1 $89 reversed single #
loop $-1 $-1 $90 $35 #
plane-surface $-1 0 0 -13.068806828506141 0 0 1 1 0 0 forward_v I I I I #
coedge $-1 $91 $92 $93 $94 forward $36 $-1 #
face $-1 $95 $96 $22 $-1 $97 reversed single #
loop $-1 $-1 $98 $38 #
plane-surface $-1 -43.43711935403568 0 1.5779859560397043 0 0 1 1 0 0 forward_v I I I I #
coedge $-1 $99 $100 $101 $102 forward $39 $-1 #
face $-1 $103 $104 $23 $-1 $105 reversed single #
loop $-1 $-1 $106 $41 #
plane-surface $-1 43.43711935403568 0 1.5779859560397043 0 0 1 1 0 0 forward_v I I I I #
coedge $-1 $107 $108 $109 $110 reversed $42 $-1 #
face $-1 $111 $112 $24 $-1 $113 reversed single #
loop $-1 $-1 $114 $44 #
plane-surface $-1 6.0509819487456511 -28.003059968850636 1.5382685928983975 0 -0.78801076186113728 0.61566146476048833 1 0 0 forward_v I I I I #
coedge $-1 $115 $116 $117 $118 reversed $45 $-1 #
face $-1 $-1 $119 $25 $-1 $120 forward single #
loop $-1 $121 $122 $47 #
cone-surface $-1 0.6278470410101491 -20.372728100502915 4.8612310202019344 0 0.78801076186113728 -0.61566146476048833 0.5 0 0 1 I I -0.70710678118654746 0.70710678118654746 0.5 forward I I I I #
loop $-1 $-1 $123 $32 #
coedge $-1 $76 $76 $124 $125 reversed $48 $-1 #
face $-1 $-1 $126 $26 $-1 $127 forward single #
loop $-1 $128 $129 $50 #
cone-surface $-1 6.0509819487456511 -20.372728100502915 4.8612310202019344 0 0.78801076186113728 -0.61566146476048833 0.5 0 0 1 I I -0.70710678118654746 0.70710678118654746 0.5 forward I I I I #
loop $-1 $-1 $130 $33 #
coedge $-1 $81 $81 $131 $132 reversed $51 $-1 #
face $-1 $-1 $133 $27 $-1 $134 forward single #
loop $-1 $135 $136 $53 #
cone-surface $-1 11.474116856481153 -20.372728100502915 4.8612310202019344 0 0.78801076186113728 -0.61566146476048833 0.5 0 0 1 I I -0.70710678118654746 0.70710678118654746 0.5 forward I I I I #
loop $-1 $-1 $137 $34 #
coedge $-1 $86 $86 $138 $139 reversed $54 $-1 #
face $-1 $140 $141 $21 $-1 $142 reversed single #
loop $-1 $-1 $143 $56 #
plane-surface $-1 0 -28.003059968850629 0 0 1 0 0 0 1 forward_v I I I I #
coedge $-1 $144 $145 $146 $147 forward $57 $-1 #
coedge $-1 $148 $59 $149 $150 forward $36 $-1 #
coedge $-1 $59 $148 $151 $152 forward $36 $-1 #
coedge $-1 $153 $154 $59 $94 reversed $155 $-1 #
edge $-1 $156 -28.003059968850629 $157 28.003059968850629 $93 $158 forward 7 unknown #
face $-1 $159 $160 $22 $-1 $161 reversed single #
loop $-1 $-1 $162 $60 #
plane-surface $-1 -37.591728865852055 0 4.8217956675458922 -1 0 0 0 0 1 forward_v I I I I #
coedge $-1 $163 $164 $165 $166 forward $61 $-1 #
coedge $-1 $167 $63 $168 $169 reversed $39 $-1 #
coedge $-1 $63 $167 $170 $171 reversed $39 $-1 #
coedge $-1 $162 $172 $63 $102 reversed $96 $-1 #
edge $-1 $173 -28.003059968850629 $174 28.003059968850629 $101 $175 forward 7 unknown #
face $-1 $176 $177 $23 $-1 $178 reversed single #
loop $-1 $-1 $179 $64 #
plane-surface $-1 37.591728865852055 0 4.8217956675458922 1 0 0 0 0 -1 forward_v I I I I #
coedge $-1 $180 $181 $182 $183 reversed $65 $-1 #
coedge $-1 $184 $67 $185 $186 reversed $42 $-1 #
coedge $-1 $67 $184 $187 $188 reversed $42 $-1 #
coedge $-1 $189 $190 $67 $110 forward $191 $-1 #
edge $-1 $192 -28.003059968850629 $193 28.003059968850629 $109 $194 forward 7 unknown #
face $-1 $195 $196 $24 $-1 $197 forward single #
loop $-1 $-1 $198 $68 #
plane-surface $-1 15.089540128304822 -105.6733562232431 62.220952985966235 -1 0 0 0 -0.78801076186113728 0.61566146476048833 forward_v I I I I #
coedge $-1 $199 $200 $201 $202 reversed $69 $-1 #
coedge $-1 $116 $71 $203 $204 reversed $45 $-1 #
coedge $-1 $71 $115 $199 $205 reversed $45 $-1 #
coedge $-1 $201 $206 $71 $118 forward $207 $-1 #
edge $-1 $208 18.041669664476977 $209 29.57220790008471 $117 $210 forward 7 unknown #
loop $-1 $-1 $124 $72 #
plane-surface $-1 6.0509819487456511 -28.003059968850636 1.5382685928983975 0 -0.78801076186113728 0.61566146476048833 1 0 0 forward_v I I I I #
loop $-1 $-1 $211 $47 #
coedge $-1 $122 $122 $123 $212 reversed $73 $-1 #
coedge $-1 $123 $123 $122 $212 forward $75 $-1 #
coedge $-1 $124 $124 $76 $125 forward $119 $-1 #
edge $-1 $213 -6.1230770534112703e-016 $213 6.2831853071795996 $124 $214 forward 7 unknown #
loop $-1 $-1 $131 $77 #
plane-surface $-1 6.0509819487456511 -28.003059968850636 1.5382685928983975 0 -0.78801076186113728 0.61566146476048833 1 0 0 forward_v I I I I #
loop $-1 $-1 $215 $50 #
coedge $-1 $129 $129 $130 $216 reversed $78 $-1 #
coedge $-1 $130 $130 $129 $216 forward $80 $-1 #
coedge $-1 $131 $131 $81 $132 forward $126 $-1 #
edge $-1 $217 -6.1230770534112703e-016 $217 6.2831853071795996 $131 $218 forward 7 unknown #
loop $-1 $-1 $138 $82 #
plane-surface $-1 6.0509819487456511 -28.003059968850636 1.5382685928983975 0 -0.78801076186113728 0.61566146476048833 1 0 0 forward_v I I I I #
loop $-1 $-1 $219 $53 #
coedge $-1 $136 $136 $137 $220 reversed $83 $-1 #
coedge $-1 $137 $137 $136 $220 forward $85 $-1 #
coedge $-1 $138 $138 $86 $139 forward $133 $-1 #
edge $-1 $221 -6.1230770534112703e-016 $221 6.2831853071795996 $138 $222 forward 7 unknown #
face $-1 $223 $224 $21 $-1 $225 reversed single #
loop $-1 $-1 $226 $87 #
plane-surface $-1 -49.282509842219305 0 0 1 0 0 0 0 -1 forward_v I I I I #
coedge $-1 $227 $151 $228 $229 forward $88 $-1 #
coedge $-1 $230 $90 $227 $231 forward $57 $-1 #
coedge $-1 $90 $230 $232 $233 forward $57 $-1 #
coedge $-1 $154 $153 $90 $147 reversed $155 $-1 #
edge $-1 $234 -28.003059968850629 $235 28.003059968850629 $146 $236 forward 7 unknown #
coedge $-1 $92 $91 $237 $238 forward $36 $-1 #
coedge $-1 $239 $240 $91 $150 reversed $224 $-1 #
edge $-1 $157 -49.282509842219305 $241 49.282509842219305 $149 $242 forward 7 unknown #
coedge $-1 $143 $243 $92 $152 reversed $88 $-1 #
edge $-1 $244 -49.282509842219305 $156 49.282509842219305 $151 $245 forward 7 unknown #
coedge $-1 $146 $93 $243 $246 forward $155 $-1 #
coedge $-1 $93 $146 $239 $247 reversed $155 $-1 #
loop $-1 $-1 $153 $223 #
vertex $-1 $94 $248 #
vertex $-1 $94 $249 #
straight-curve $-1 49.282509842219305 0 13.068806828506141 0 1 0 I I #
face $-1 $250 $251 $22 $-1 $252 reversed single #
loop $-1 $-1 $253 $95 #
plane-surface $-1 0 -28.003059968850629 0 0 1 0 0 0 1 forward_v I I I I #
coedge $-1 $165 $101 $254 $255 reversed $96 $-1 #
coedge $-1 $256 $98 $253 $257 reversed $61 $-1 #
coedge $-1 $98 $256 $258 $259 reversed $61 $-1 #
coedge $-1 $172 $162 $98 $166 reversed $96 $-1 #
edge $-1 $260 -28.003059968850629 $261 28.003059968850629 $165 $262 forward 7 unknown #
coedge $-1 $100 $99 $263 $264 reversed $39 $-1 #
coedge $-1 $265 $266 $99 $169 forward $267 $-1 #
edge $-1 $268 -27.563950165201465 $174 -15.873169188834215 $168 $269 forward 7 unknown #
coedge $-1 $270 $254 $100 $171 forward $160 $-1 #
edge $-1 $173 15.873169188834215 $271 27.563950165201465 $170 $272 forward 7 unknown #
coedge $-1 $101 $165 $265 $273 reversed $96 $-1 #
vertex $-1 $171 $274 #
vertex $-1 $169 $275 #
straight-curve $-1 -37.591728865852055 0 8.0656053790520801 0 1 0 I I #
face $-1 $276 $277 $23 $-1 $278 reversed single #
loop $-1 $-1 $187 $103 #
plane-surface $-1 0 -28.003059968850629 0 0 1 0 0 0 1 forward_v I I I I #
coedge $-1 $279 $280 $281 $282 reversed $104 $-1 #
coedge $-1 $283 $106 $284 $285 reversed $65 $-1 #
coedge $-1 $106 $283 $286 $287 reversed $65 $-1 #
coedge $-1 $190 $189 $106 $183 forward $191 $-1 #
edge $-1 $288 -28.003059968850629 $289 28.003059968850629 $182 $290 forward 7 unknown #
coedge $-1 $108 $107 $280 $291 forward $42 $-1 #
coedge $-1 $292 $281 $107 $186 forward $277 $-1 #
edge $-1 $293 15.873169188834215 $192 27.563950165201465 $185 $294 forward 7 unknown #
coedge $-1 $295 $296 $108 $188 forward $177 $-1 #
edge $-1 $193 -27.563950165201465 $297 -15.873169188834215 $187 $298 forward 7 unknown #
coedge $-1 $182 $109 $296 $299 forward $191 $-1 #
coedge $-1 $109 $182 $292 $300 reversed $191 $-1 #
loop $-1 $-1 $109 $276 #
vertex $-1 $300 $301 #
vertex $-1 $299 $302 #
straight-curve $-1 49.282509842219305 0 8.0656053790520801 0 -1 0 I I #
face $-1 $-1 $207 $24 $-1 $303 reversed single #
loop $-1 $-1 $304 $111 #
plane-surface $-1 0 0 13.068806828506141 0 0 1 1 0 0 forward_v I I I I #
coedge $-1 $305 $306 $307 $308 reversed $112 $-1 #
coedge $-1 $309 $114 $116 $205 forward $69 $-1 #
coedge $-1 $114 $309 $305 $310 forward $69 $-1 #
coedge $-1 $307 $117 $114 $202 forward $207 $-1 #
edge $-1 $209 -6.0130672051863456 $311 12.064049153931997 $201 $312 forward 7 unknown #
coedge $-1 $313 $314 $115 $204 forward $196 $-1 #
edge $-1 $315 -33.842261683177341 $208 -24.833618142770923 $203 $316 forward 7 unknown #
edge $-1 $209 1.1548452884789174e-014 $315 14.632462897301961 $116 $317 forward 7 unknown #
coedge $-1 $117 $307 $313 $318 reversed $207 $-1 #
loop $-1 $-1 $307 $195 #
vertex $-1 $318 $319 #
vertex $-1 $118 $320 #
straight-curve $-1 -2.9875762308135201 -28.003059968850629 31.110476492983118 0 0 -1 I I #
coedge $-1 $211 $211 $-1 $321 reversed $121 $-1 #
edge $-1 $322 0 $322 6.2831853071796004 $122 $323 forward 7 unknown #
vertex $-1 $125 $324 #
ellipse-curve $-1 0.6278470410101491 -23.49873819864742 7.3035377107022725 0 -0.78801076186113728 0.61566146476048833 1 0 0 1 I I #
coedge $-1 $215 $215 $-1 $325 reversed $128 $-1 #
edge $-1 $326 0 $326 6.2831853071796004 $129 $327 forward 7 unknown #
vertex $-1 $132 $328 #
ellipse-curve $-1 6.0509819487456511 -23.49873819864742 7.3035377107022725 0 -0.78801076186113728 0.61566146476048833 1 0 0 1 I I #
coedge $-1 $219 $219 $-1 $329 reversed $135 $-1 #
edge $-1 $330 0 $330 6.2831853071796004 $136 $331 forward 7 unknown #
vertex $-1 $139 $332 #
ellipse-curve $-1 11.474116856481153 -23.49873819864742 7.3035377107022725 0 -0.78801076186113728 0.61566146476048833 1 0 0 1 I I #
face $-1 $-1 $155 $21 $-1 $333 reversed single #
loop $-1 $-1 $239 $140 #
plane-surface $-1 0 28.003059968850629 0 0 -1 0 0 0 -1 forward_v I I I I #
coedge $-1 $334 $237 $240 $335 forward $141 $-1 #
coedge $-1 $243 $143 $144 $231 reversed $88 $-1 #
coedge $-1 $237 $334 $143 $229 reversed $141 $-1 #
edge $-1 $244 -13.068806828506141 $336 13.068806828506141 $228 $337 forward 7 unknown #
coedge $-1 $145 $144 $334 $338 forward $57 $-1 #
edge $-1 $235 -49.282509842219305 $336 49.282509842219305 $227 $339 forward 7 unknown #
coedge $-1 $240 $239 $145 $233 reversed $224 $-1 #
edge $-1 $340 -49.282509842219305 $234 49.282509842219305 $232 $341 forward 7 unknown #
vertex $-1 $147 $342 #
vertex $-1 $246 $343 #
straight-curve $-1 49.282509842219305 0 -13.068806828506141 0 -1 0 I I #
coedge $-1 $226 $228 $148 $238 reversed $141 $-1 #
edge $-1 $241 -28.003059968850629 $244 28.003059968850629 $237 $344 forward 7 unknown #
coedge $-1 $232 $149 $154 $247 forward $224 $-1 #
coedge $-1 $149 $232 $226 $335 reversed $224 $-1 #
vertex $-1 $150 $345 #
straight-curve $-1 0 28.003059968850629 13.068806828506141 -1 0 0 I I #
coedge $-1 $151 $227 $153 $246 reversed $88 $-1 #
vertex $-1 $238 $346 #
straight-curve $-1 0 -28.003059968850629 13.068806828506141 1 0 0 I I #
edge $-1 $156 -13.068806828506141 $235 13.068806828506141 $153 $347 forward 7 unknown #
edge $-1 $157 -13.068806828506141 $234 13.068806828506141 $154 $348 forward 7 unknown #
point $-1 49.282509842219305 -28.003059968850629 13.068806828506141 #
point $-1 49.282509842219305 28.003059968850629 13.068806828506141 #
face $-1 $-1 $267 $22 $-1 $349 reversed single #
loop $-1 $-1 $350 $159 #
plane-surface $-1 -49.282509842219305 0 0 1 0 0 0 0 -1 forward_v I I I I #
coedge $-1 $254 $270 $163 $257 forward $160 $-1 #
coedge $-1 $170 $253 $162 $255 forward $160 $-1 #
edge $-1 $261 -0.83291187773324182 $173 5.654707545279134 $254 $351 forward 7 unknown #
coedge $-1 $164 $163 $350 $352 reversed $61 $-1 #
edge $-1 $353 -27.563950165201465 $261 -15.873169188834215 $253 $354 forward 7 unknown #
coedge $-1 $266 $265 $164 $259 forward $267 $-1 #
edge $-1 $260 15.873169188834215 $355 27.563950165201465 $258 $356 forward 7 unknown #
vertex $-1 $259 $357 #
vertex $-1 $257 $358 #
straight-curve $-1 -37.591728865852055 0 1.5779859560397043 0 -1 0 I I #
coedge $-1 $359 $360 $167 $264 forward $251 $-1 #
edge $-1 $271 -28.003059968850629 $268 28.003059968850629 $263 $361 forward 7 unknown #
coedge $-1 $258 $168 $172 $273 forward $267 $-1 #
coedge $-1 $168 $258 $359 $362 reversed $267 $-1 #
loop $-1 $-1 $258 $250 #
vertex $-1 $362 $363 #
straight-curve $-1 -21.71855967701784 28.003059968850629 8.0656053790520801 1 0 0 I I #
coedge $-1 $253 $170 $360 $364 forward $160 $-1 #
vertex $-1 $364 $365 #
straight-curve $-1 -21.71855967701784 -28.003059968850629 8.0656053790520801 -1 0 0 I I #
edge $-1 $174 -5.654707545279134 $260 0.83291187773324182 $265 $366 forward 7 unknown #
point $-1 -37.591728865852055 -28.003059968850629 8.0656053790520801 #
point $-1 -37.591728865852055 28.003059968850629 8.0656053790520801 #
face $-1 $-1 $191 $23 $-1 $367 reversed single #
loop $-1 $-1 $185 $176 #
plane-surface $-1 0 28.003059968850629 0 0 -1 0 0 0 -1 forward_v I I I I #
coedge $-1 $368 $179 $283 $369 reversed $104 $-1 #
coedge $-1 $179 $368 $184 $291 reversed $104 $-1 #
coedge $-1 $185 $286 $179 $282 forward $277 $-1 #
edge $-1 $370 -0.83291187773324182 $293 5.654707545279134 $281 $371 forward 7 unknown #
coedge $-1 $181 $180 $279 $369 forward $65 $-1 #
coedge $-1 $296 $295 $180 $285 forward $177 $-1 #
edge $-1 $372 15.873169188834215 $288 27.563950165201465 $284 $373 forward 7 unknown #
coedge $-1 $281 $292 $181 $287 forward $277 $-1 #
edge $-1 $289 -27.563950165201465 $370 -15.873169188834215 $286 $374 forward 7 unknown #
vertex $-1 $183 $375 #
vertex $-1 $183 $376 #
straight-curve $-1 49.282509842219305 0 1.5779859560397043 0 1 0 I I #
edge $-1 $293 -28.003059968850629 $297 28.003059968850629 $280 $377 forward 7 unknown #
coedge $-1 $286 $185 $190 $300 forward $277 $-1 #
vertex $-1 $186 $378 #
straight-curve $-1 21.71855967701784 28.003059968850629 8.0656053790520801 1 0 0 I I #
coedge $-1 $284 $187 $368 $379 forward $177 $-1 #
coedge $-1 $187 $284 $189 $299 reversed $177 $-1 #
vertex $-1 $188 $380 #
straight-curve $-1 21.71855967701784 -28.003059968850629 8.0656053790520801 -1 0 0 I I #
edge $-1 $193 -8.0656053790520801 $288 -1.5779859560397043 $189 $381 forward 7 unknown #
edge $-1 $192 -8.0656053790520801 $289 -1.5779859560397043 $190 $382 forward 7 unknown #
point $-1 49.282509842219305 28.003059968850629 8.0656053790520801 #
point $-1 49.282509842219305 -28.003059968850629 8.0656053790520801 #
plane-surface $-1 0 -28.003059968850629 0 0 1 0 0 0 1 forward_v I I I I #
coedge $-1 $314 $313 $306 $383 forward $196 $-1 #
coedge $-1 $306 $198 $200 $310 reversed $112 $-1 #
coedge $-1 $198 $305 $304 $383 reversed $112 $-1 #
coedge $-1 $206 $201 $198 $308 forward $207 $-1 #
edge $-1 $311 -29.57220790008471 $384 -18.041669664476977 $307 $385 forward 7 unknown #
coedge $-1 $200 $199 $314 $386 reversed $69 $-1 #
edge $-1 $387 -14.632462897301961 $311 -1.1548452884789174e-014 $305 $388 forward 7 unknown #
vertex $-1 $202 $389 #
straight-curve $-1 3.0254909743728255 -28.003059968850629 1.5382685928984057 1 0 0 I I #
coedge $-1 $304 $203 $206 $318 forward $196 $-1 #
coedge $-1 $203 $304 $309 $386 forward $196 $-1 #
vertex $-1 $204 $390 #
straight-curve $-1 -2.9875762308135201 -52.836678111621552 13.068806828506141 0 -1 0 I I #
straight-curve $-1 -2.9875762308135201 -28.003059968850636 1.5382685928983975 0 0.61566146476048833 0.78801076186113728 I I #
edge $-1 $208 -2.9875762308135201 $384 15.089540128304822 $206 $391 forward 7 unknown #
point $-1 -2.9875762308135201 -28.003059968850629 13.068806828506141 #
point $-1 -2.9875762308135201 -28.003059968850629 1.5382685928984066 #
edge $-1 $392 1 $392 0 $211 $-1 forward 7 unknown #
vertex $-1 $212 $393 #
ellipse-curve $-1 0.6278470410101491 -20.766733481433484 5.1690617525821789 0 -0.78801076186113728 0.61566146476048833 1 0 0 1 I I #
point $-1 1.6278470410101491 -23.498738198647416 7.303537710702269 #
edge $-1 $394 1 $394 0 $215 $-1 forward 7 unknown #
vertex $-1 $216 $395 #
ellipse-curve $-1 6.0509819487456511 -20.766733481433484 5.1690617525821789 0 -0.78801076186113728 0.61566146476048833 1 0 0 1 I I #
point $-1 7.0509819487456511 -23.498738198647416 7.303537710702269 #
edge $-1 $396 1 $396 0 $219 $-1 forward 7 unknown #
vertex $-1 $220 $397 #
ellipse-curve $-1 11.474116856481153 -20.766733481433484 5.1690617525821789 0 -0.78801076186113728 0.61566146476048833 1 0 0 1 I I #
point $-1 12.474116856481153 -23.498738198647416 7.303537710702269 #
plane-surface $-1 49.282509842219305 0 0 -1 0 0 0 0 1 forward_v I I I I #
coedge $-1 $228 $226 $230 $338 reversed $141 $-1 #
edge $-1 $241 -13.068806828506141 $340 13.068806828506141 $240 $398 forward 7 unknown #
vertex $-1 $338 $399 #
straight-curve $-1 -49.282509842219305 -28.003059968850629 0 0 0 -1 I I #
edge $-1 $336 -28.003059968850629 $340 28.003059968850629 $334 $400 forward 7 unknown #
straight-curve $-1 0 -28.003059968850629 -13.068806828506141 -1 0 0 I I #
vertex $-1 $233 $401 #
straight-curve $-1 0 28.003059968850629 -13.068806828506141 1 0 0 I I #
point $-1 49.282509842219305 28.003059968850629 -13.068806828506141 #
point $-1 49.282509842219305 -28.003059968850629 -13.068806828506141 #
straight-curve $-1 -49.282509842219305 0 13.068806828506141 0 -1 0 I I #
point $-1 -49.282509842219305 28.003059968850629 13.068806828506141 #
point $-1 -49.282509842219305 -28.003059968850629 13.068806828506141 #
straight-curve $-1 49.282509842219305 -28.003059968850629 0 0 0 -1 I I #
straight-curve $-1 49.282509842219305 28.003059968850629 0 0 0 -1 I I #
plane-surface $-1 0 28.003059968850629 0 0 -1 0 0 0 -1 forward_v I I I I #
coedge $-1 $360 $359 $256 $352 forward $251 $-1 #
straight-curve $-1 -37.591728865852055 -28.003059968850629 2.4108978337729461 0 0 1 I I #
edge $-1 $355 -28.003059968850629 $353 28.003059968850629 $350 $402 forward 7 unknown #
vertex $-1 $257 $403 #
straight-curve $-1 -21.71855967701784 -28.003059968850629 1.5779859560397043 1 0 0 I I #
vertex $-1 $259 $404 #
straight-curve $-1 -21.71855967701784 28.003059968850629 1.5779859560397043 -1 0 0 I I #
point $-1 -37.591728865852055 28.003059968850629 1.5779859560397043 #
point $-1 -37.591728865852055 -28.003059968850629 1.5779859560397043 #
coedge $-1 $350 $263 $266 $362 forward $251 $-1 #
coedge $-1 $263 $350 $270 $364 reversed $251 $-1 #
straight-curve $-1 -49.282509842219305 0 8.0656053790520801 0 1 0 I I #
edge $-1 $268 -8.0656053790520801 $355 -1.5779859560397043 $266 $405 forward 7 unknown #
point $-1 -49.282509842219305 28.003059968850629 8.0656053790520801 #
edge $-1 $271 -8.0656053790520801 $353 -1.5779859560397043 $360 $406 forward 7 unknown #
point $-1 -49.282509842219305 -28.003059968850629 8.0656053790520801 #
straight-curve $-1 -37.591728865852055 28.003059968850629 2.4108978337729461 0 0 -1 I I #
plane-surface $-1 49.282509842219305 0 0 -1 0 0 0 0 1 forward_v I I I I #
coedge $-1 $280 $279 $295 $379 reversed $104 $-1 #
edge $-1 $372 -28.003059968850629 $370 28.003059968850629 $279 $407 forward 7 unknown #
vertex $-1 $287 $408 #
straight-curve $-1 37.591728865852055 28.003059968850629 2.4108978337729461 0 0 1 I I #
vertex $-1 $285 $409 #
straight-curve $-1 21.71855967701784 -28.003059968850629 1.5779859560397043 1 0 0 I I #
straight-curve $-1 21.71855967701784 28.003059968850629 1.5779859560397043 -1 0 0 I I #
point $-1 49.282509842219305 -28.003059968850629 1.5779859560397043 #
point $-1 49.282509842219305 28.003059968850629 1.5779859560397043 #
straight-curve $-1 37.591728865852055 0 8.0656053790520801 0 -1 0 I I #
point $-1 37.591728865852055 28.003059968850629 8.0656053790520801 #
edge $-1 $297 -5.654707545279134 $372 0.83291187773324182 $295 $410 forward 7 unknown #
point $-1 37.591728865852055 -28.003059968850629 8.0656053790520801 #
straight-curve $-1 49.282509842219305 -28.003059968850629 0 0 0 -1 I I #
straight-curve $-1 49.282509842219305 28.003059968850629 0 0 0 -1 I I #
edge $-1 $384 24.833618142770923 $387 33.842261683177341 $304 $411 forward 7 unknown #
vertex $-1 $383 $412 #
straight-curve $-1 15.089540128304822 -28.003059968850629 31.110476492983118 0 0 1 I I #
edge $-1 $387 -12.064049153931997 $315 6.0130672051863456 $314 $413 forward 7 unknown #
vertex $-1 $386 $414 #
straight-curve $-1 15.089540128304822 -28.003059968850636 1.5382685928983975 0 -0.61566146476048833 -0.78801076186113728 I I #
point $-1 15.089540128304822 -28.003059968850629 1.5382685928984066 #
point $-1 -2.9875762308135201 -18.994416428444211 13.068806828506141 #
straight-curve $-1 0 -28.003059968850629 13.068806828506141 1 0 0 I I #
vertex $-1 $321 $415 #
point $-1 1.6278470410101491 -20.766733481433484 5.1690617525821789 #
vertex $-1 $325 $416 #
point $-1 7.0509819487456511 -20.766733481433484 5.1690617525821789 #
vertex $-1 $329 $417 #
point $-1 12.474116856481153 -20.766733481433484 5.1690617525821789 #
straight-curve $-1 -49.282509842219305 28.003059968850629 0 0 0 -1 I I #
point $-1 -49.282509842219305 -28.003059968850629 -13.068806828506141 #
straight-curve $-1 -49.282509842219305 0 -13.068806828506141 0 1 0 I I #
point $-1 -49.282509842219305 28.003059968850629 -13.068806828506141 #
straight-curve $-1 -49.282509842219305 0 1.5779859560397043 0 -1 0 I I #
point $-1 -49.282509842219305 -28.003059968850629 1.5779859560397043 #
point $-1 -49.282509842219305 28.003059968850629 1.5779859560397043 #
straight-curve $-1 -49.282509842219305 28.003059968850629 0 0 0 -1 I I #
straight-curve $-1 -49.282509842219305 -28.003059968850629 0 0 0 -1 I I #
straight-curve $-1 37.591728865852055 0 1.5779859560397043 0 1 0 I I #
point $-1 37.591728865852055 28.003059968850629 1.5779859560397043 #
point $-1 37.591728865852055 -28.003059968850629 1.5779859560397043 #
straight-curve $-1 37.591728865852055 -28.003059968850629 2.4108978337729461 0 0 -1 I I #
straight-curve $-1 15.089540128304822 -52.836678111621552 13.068806828506141 0 1 0 I I #
point $-1 15.089540128304822 -28.003059968850629 13.068806828506141 #
straight-curve $-1 3.0254909743728255 -18.994416428444211 13.068806828506141 -1 0 0 I I #
point $-1 15.089540128304822 -18.994416428444211 13.068806828506141 #
point $-1 0.6278470410101491 -19.978722719572346 4.5534002878216899 #
point $-1 6.0509819487456511 -19.978722719572346 4.5534002878216899 #
point $-1 11.474116856481153 -19.978722719572346 4.5534002878216899 #
End-of-ACIS-data 