500 0 8 0           
7 Unknown 11 ACIS 5.0 NT 24 Thu Mar 25 19:41:37 1999 
-1 9.9999999999999995e-007 1e-010 
body $-1 $8 $-1 $9 #
body $-1 $10 $-1 $11 #
body $-1 $12 $-1 $13 #
body $-1 $14 $-1 $15 #
body $-1 $16 $-1 $17 #
body $-1 $18 $-1 $19 #
body $-1 $20 $-1 $21 #
body $-1 $22 $-1 $23 #
lump $-1 $-1 $24 $0 #
transform $-1 1 0 0 0 1 0 0 0 1 78.980681783501694 32.256089350968246 8.6439861745633433 1 rotate no_reflect no_shear #
lump $-1 $-1 $25 $1 #
transform $-1 1 0 0 0 1 0 0 0 1 78.980681783501694 32.256089350968246 8.6439861745633433 1 rotate no_reflect no_shear #
lump $-1 $-1 $26 $2 #
transform $-1 1 0 0 0 1 0 0 0 1 78.980681783501694 32.256089350968246 8.6439861745633433 1 rotate no_reflect no_shear #
lump $-1 $-1 $27 $3 #
transform $-1 1 0 0 0 1 0 0 0 1 78.980681783501694 32.256089350968246 8.6439861745633433 1 rotate no_reflect no_shear #
lump $-1 $-1 $28 $4 #
transform $-1 1 0 0 0 1 0 0 0 1 78.980681783501694 32.256089350968246 8.6439861745633433 1 rotate no_reflect no_shear #
lump $-1 $-1 $29 $5 #
transform $-1 1 0 0 0 1 0 0 0 1 78.980681783501694 32.256089350968246 8.6439861745633433 1 rotate no_reflect no_shear #
lump $-1 $-1 $30 $6 #
transform $-1 1 0 0 0 1 0 0 0 1 78.980681783501694 32.256089350968246 8.6439861745633433 1 rotate no_reflect no_shear #
lump $-1 $-1 $31 $7 #
transform $-1 1 0 0 0 1 0 0 0 1 78.980681783501694 32.256089350968246 8.6439861745633433 1 rotate no_reflect no_shear #
shell $-1 $-1 $-1 $32 $-1 $8 #
shell $-1 $-1 $-1 $33 $-1 $10 #
shell $-1 $-1 $-1 $34 $-1 $12 #
shell $-1 $-1 $-1 $35 $-1 $14 #
shell $-1 $-1 $-1 $36 $-1 $16 #
shell $-1 $-1 $-1 $37 $-1 $18 #
shell $-1 $-1 $-1 $38 $-1 $20 #
shell $-1 $-1 $-1 $39 $-1 $22 #
face $-1 $40 $41 $24 $-1 $42 forward single #
face $-1 $43 $44 $25 $-1 $45 forward single #
face $-1 $46 $47 $26 $-1 $48 reversed single #
face $-1 $49 $50 $27 $-1 $51 reversed single #
face $-1 $52 $53 $28 $-1 $54 forward single #
face $-1 $55 $56 $29 $-1 $57 forward single #
face $-1 $58 $59 $30 $-1 $60 reversed single #
face $-1 $61 $62 $31 $-1 $63 forward single #
face $-1 $64 $65 $24 $-1 $66 reversed single #
loop $-1 $-1 $67 $32 #
plane-surface $-1 0 0 8.6439861745633433 0 0 1 1 0 0 forward_v I I I I #
face $-1 $68 $69 $25 $-1 $70 reversed single #
loop $-1 $-1 $71 $33 #
plane-surface $-1 0 -32.256089350968246 0 0 1 0 0 0 1 forward_v I I I I #
face $-1 $72 $73 $26 $-1 $74 reversed single #
loop $-1 $-1 $75 $34 #
plane-surface $-1 -63.6141081984496 22.998711756589394 0 0 1 0 0 0 1 forward_v I I I I #
face $-1 $76 $77 $27 $-1 $78 reversed single #
loop $-1 $-1 $79 $35 #
plane-surface $-1 -190.67623442315681 -10.529831393383276 113.42317788462293 0 1 0 -0.70710678939079041 0 0.70710677298230451 forward_v I I I I #
face $-1 $80 $81 $28 $-1 $82 forward single #
loop $-1 $83 $84 $36 #
cone-surface $-1 -74.705414224184253 -7.204222659873917 4.3687185539591136 0.70710678939079041 0 -0.70710677298230451 0.70710677298230451 0 0.70710678939079041 1 I I 0 1 1 forward I I I I #
face $-1 $85 $86 $29 $-1 $87 forward single #
loop $-1 $88 $89 $37 #
cone-surface $-1 -74.705414224184253 -2.2158095596098804 4.3687185539591136 0.70710678939079041 0 -0.70710677298230451 0.70710677298230451 0 0.70710678939079041 1 I I 0 1 1 forward I I I I #
face $-1 $90 $91 $30 $-1 $92 reversed single #
loop $-1 $-1 $93 $38 #
plane-surface $-1 121.60571682956655 10.847074017233744 224.61383177360224 0 -1 0 -0.82903758062907751 0 -0.55919289150049634 forward_v I I I I #
face $-1 $94 $95 $31 $-1 $96 forward single #
loop $-1 $97 $98 $39 #
cone-surface $-1 76.957787355189083 5.5925794174104979 6.3755990281544674 -0.82903758062907751 0 -0.55919289150049634 0.55919289150049634 0 -0.82903758062907751 1 I I 0 1 1 forward I I I I #
face $-1 $99 $100 $24 $-1 $101 reversed single #
loop $-1 $-1 $102 $40 #
plane-surface $-1 0 0 -8.6439861745633433 0 0 1 1 0 0 forward_v I I I I #
coedge $-1 $103 $104 $105 $106 forward $41 $-1 #
face $-1 $107 $108 $25 $-1 $109 forward single #
loop $-1 $-1 $110 $43 #
plane-surface $-1 -78.980681783501694 0 0 1 0 0 0 0 -1 forward_v I I I I #
coedge $-1 $111 $112 $113 $114 forward $44 $-1 #
face $-1 $115 $116 $26 $-1 $117 reversed single #
loop $-1 $-1 $118 $46 #
plane-surface $-1 -65.535506962524195 27.62740055377882 0 1 0 0 0 0 -1 forward_v I I I I #
coedge $-1 $119 $120 $121 $122 forward $47 $-1 #
face $-1 $123 $124 $27 $-1 $125 reversed single #
loop $-1 $-1 $126 $49 #
plane-surface $-1 -78.98068178350168 -4.7100161097419004 1.7276278368746034 -0.70710678939079041 0 0.70710677298230451 0.70710677298230451 0 0.70710678939079041 forward_v I I I I #
coedge $-1 $127 $128 $129 $130 reversed $50 $-1 #
face $-1 $-1 $131 $28 $-1 $132 forward single #
loop $-1 $133 $134 $52 #
cone-surface $-1 -73.534772358768365 -7.204222659873917 3.1980767157080958 0.70710678939079041 0 -0.70710677298230451 0.35355338649115226 0 0.35355339469539521 1 I I -0.70710678118654746 0.70710678118654746 0.5 forward I I I I #
loop $-1 $-1 $135 $36 #
coedge $-1 $84 $84 $136 $137 reversed $53 $-1 #
face $-1 $-1 $138 $29 $-1 $139 forward single #
loop $-1 $140 $141 $55 #
cone-surface $-1 -73.534772358768365 -2.2158095596098804 3.1980767157080958 0.70710678939079041 0 -0.70710677298230451 0.35355338649115226 0 0.35355339469539521 1 I I -0.70710678118654746 0.70710678118654746 0.5 forward I I I I #
loop $-1 $-1 $142 $37 #
coedge $-1 $89 $89 $143 $144 reversed $56 $-1 #
face $-1 $145 $146 $30 $-1 $147 reversed single #
loop $-1 $-1 $148 $58 #
plane-surface $-1 -9.3501898548920508 5.5925794174104979 136.28296013520844 0.82903758062907751 0 0.55919289150049634 0.55919289150049634 0 -0.82903758062907751 forward_v I I I I #
coedge $-1 $149 $150 $151 $152 reversed $59 $-1 #
face $-1 $-1 $153 $31 $-1 $154 forward single #
loop $-1 $155 $156 $61 #
cone-surface $-1 75.639023787723971 5.5925794174104979 5.4860817979020684 -0.82903758062907751 0 -0.55919289150049634 0.27959644575024817 0 -0.41451879031453875 1 I I -0.70710678118654746 0.70710678118654746 0.5 forward I I I I #
loop $-1 $-1 $157 $39 #
coedge $-1 $98 $98 $158 $159 reversed $62 $-1 #
face $-1 $160 $161 $24 $-1 $162 reversed single #
loop $-1 $-1 $163 $64 #
plane-surface $-1 0 -32.256089350968246 0 0 1 0 0 0 1 forward_v I I I I #
coedge $-1 $164 $165 $166 $167 forward $65 $-1 #
coedge $-1 $168 $67 $169 $170 forward $41 $-1 #
coedge $-1 $67 $168 $171 $172 forward $41 $-1 #
coedge $-1 $173 $174 $67 $106 reversed $175 $-1 #
edge $-1 $176 -32.256089350968246 $177 32.256089350968246 $105 $178 forward 7 unknown #
face $-1 $179 $180 $25 $-1 $181 reversed single #
loop $-1 $-1 $182 $68 #
plane-surface $-1 0 -36.876072696216369 -1.4214118795644048 0 0 1 1 0 0 forward_v I I I I #
coedge $-1 $183 $184 $112 $185 forward $69 $-1 #
coedge $-1 $186 $71 $187 $188 reversed $44 $-1 #
coedge $-1 $71 $186 $110 $185 reversed $44 $-1 #
coedge $-1 $189 $182 $71 $114 reversed $108 $-1 #
edge $-1 $190 -78.980681783501694 $191 78.980681783501694 $113 $192 forward 7 unknown #
face $-1 $193 $194 $26 $-1 $195 forward single #
loop $-1 $-1 $196 $72 #
plane-surface $-1 -61.692709434375011 27.62740055377882 0 -1 0 0 0 0 1 forward_v I I I I #
coedge $-1 $197 $198 $199 $200 reversed $73 $-1 #
coedge $-1 $201 $75 $202 $203 reversed $47 $-1 #
coedge $-1 $75 $201 $204 $205 reversed $47 $-1 #
coedge $-1 $198 $197 $75 $122 reversed $73 $-1 #
edge $-1 $206 -8.6439861745633433 $207 8.6439861745633433 $121 $208 forward 7 unknown #
face $-1 $209 $210 $27 $-1 $211 forward single #
loop $-1 $-1 $212 $76 #
plane-surface $-1 -190.67623442315681 1.109799173899475 113.42317788462293 0 -1 0 0.70710678939079041 0 -0.70710677298230451 forward_v I I I I #
coedge $-1 $213 $214 $215 $216 reversed $77 $-1 #
coedge $-1 $128 $79 $217 $218 reversed $50 $-1 #
coedge $-1 $79 $127 $213 $219 reversed $50 $-1 #
coedge $-1 $215 $220 $79 $130 forward $210 $-1 #
edge $-1 $221 16.357435428076712 $222 23.273793605270654 $129 $223 forward 7 unknown #
loop $-1 $-1 $136 $80 #
plane-surface $-1 -78.98068178350168 -4.7100161097419004 1.7276278368746034 -0.70710678939079041 0 0.70710677298230451 0.70710677298230451 0 0.70710678939079041 forward_v I I I I #
loop $-1 $-1 $224 $52 #
coedge $-1 $134 $134 $135 $225 reversed $81 $-1 #
coedge $-1 $135 $135 $134 $225 forward $83 $-1 #
coedge $-1 $136 $136 $84 $137 forward $131 $-1 #
edge $-1 $226 0 $226 6.2831853071796004 $136 $227 forward 7 unknown #
loop $-1 $-1 $143 $85 #
plane-surface $-1 -78.98068178350168 -4.7100161097419004 1.7276278368746034 -0.70710678939079041 0 0.70710677298230451 0.70710677298230451 0 0.70710678939079041 forward_v I I I I #
loop $-1 $-1 $228 $55 #
coedge $-1 $141 $141 $142 $229 reversed $86 $-1 #
coedge $-1 $142 $142 $141 $229 forward $88 $-1 #
coedge $-1 $143 $143 $89 $144 forward $138 $-1 #
edge $-1 $230 0 $230 6.2831853071796004 $143 $231 forward 7 unknown #
face $-1 $232 $233 $30 $-1 $234 reversed single #
loop $-1 $-1 $235 $90 #
plane-surface $-1 121.60571682956655 0.33808481758725151 224.61383177360224 0 1 0 0.82903758062907751 0 0.55919289150049634 forward_v I I I I #
coedge $-1 $236 $237 $238 $239 reversed $91 $-1 #
coedge $-1 $150 $93 $240 $241 reversed $59 $-1 #
coedge $-1 $93 $149 $236 $242 reversed $59 $-1 #
coedge $-1 $238 $243 $93 $152 forward $244 $-1 #
edge $-1 $245 -18.177823368718421 $246 -15.94052406639436 $151 $247 forward 7 unknown #
loop $-1 $-1 $158 $94 #
plane-surface $-1 -9.3501898548920508 5.5925794174104979 136.28296013520844 0.82903758062907751 0 0.55919289150049634 0.55919289150049634 0 -0.82903758062907751 forward_v I I I I #
loop $-1 $-1 $248 $61 #
coedge $-1 $156 $156 $157 $249 reversed $95 $-1 #
coedge $-1 $157 $157 $156 $249 forward $97 $-1 #
coedge $-1 $158 $158 $98 $159 forward $153 $-1 #
edge $-1 $250 0 $250 6.2831853071796004 $158 $251 forward 7 unknown #
face $-1 $252 $253 $24 $-1 $254 reversed single #
loop $-1 $-1 $255 $99 #
plane-surface $-1 -78.980681783501694 0 0 1 0 0 0 0 -1 forward_v I I I I #
coedge $-1 $256 $171 $257 $258 forward $100 $-1 #
coedge $-1 $259 $102 $256 $260 forward $65 $-1 #
coedge $-1 $102 $259 $261 $262 forward $65 $-1 #
coedge $-1 $174 $173 $102 $167 reversed $175 $-1 #
edge $-1 $263 -32.256089350968246 $264 32.256089350968246 $166 $265 forward 7 unknown #
coedge $-1 $104 $103 $266 $267 forward $41 $-1 #
coedge $-1 $268 $269 $103 $170 reversed $253 $-1 #
edge $-1 $177 -78.980681783501694 $270 78.980681783501694 $169 $271 forward 7 unknown #
coedge $-1 $163 $272 $104 $172 reversed $100 $-1 #
edge $-1 $273 -78.980681783501694 $176 78.980681783501694 $171 $274 forward 7 unknown #
coedge $-1 $166 $105 $272 $275 forward $175 $-1 #
coedge $-1 $105 $166 $268 $276 reversed $175 $-1 #
loop $-1 $-1 $173 $252 #
vertex $-1 $106 $277 #
vertex $-1 $106 $278 #
straight-curve $-1 78.980681783501694 0 8.6439861745633433 0 1 0 I I #
face $-1 $279 $280 $25 $-1 $281 reversed single #
loop $-1 $-1 $282 $107 #
plane-surface $-1 0 -36.876072696216369 -5.4233345171375991 0 0 1 1 0 0 forward_v I I I I #
coedge $-1 $113 $283 $284 $285 forward $108 $-1 #
coedge $-1 $286 $110 $287 $288 reversed $69 $-1 #
coedge $-1 $110 $286 $189 $289 reversed $69 $-1 #
edge $-1 $190 1.4214118795644048 $290 5.4233345171375991 $110 $291 forward 7 unknown #
coedge $-1 $112 $111 $292 $293 forward $44 $-1 #
coedge $-1 $284 $294 $111 $188 forward $295 $-1 #
edge $-1 $296 -5.4233345171375991 $191 -1.4214118795644048 $187 $297 forward 7 unknown #
coedge $-1 $283 $113 $184 $289 forward $108 $-1 #
vertex $-1 $185 $298 #
vertex $-1 $285 $299 #
straight-curve $-1 0 -32.256089350968246 -1.4214118795644048 1 0 0 I I #
face $-1 $300 $301 $26 $-1 $302 reversed single #
loop $-1 $-1 $303 $115 #
plane-surface $-1 0 0 8.6439861745633433 0 0 1 1 0 0 forward_v I I I I #
coedge $-1 $304 $305 $201 $306 forward $116 $-1 #
coedge $-1 $121 $118 $307 $308 reversed $73 $-1 #
coedge $-1 $118 $121 $303 $309 reversed $73 $-1 #
coedge $-1 $310 $311 $118 $200 forward $312 $-1 #
edge $-1 $313 -8.6439861745633433 $314 8.6439861745633433 $199 $315 forward 7 unknown #
coedge $-1 $120 $119 $196 $306 reversed $47 $-1 #
coedge $-1 $307 $316 $119 $203 forward $301 $-1 #
edge $-1 $317 29.885655335150211 $207 33.728452863299395 $202 $318 forward 7 unknown #
coedge $-1 $319 $303 $120 $205 forward $194 $-1 #
edge $-1 $206 -33.728452863299395 $320 -29.885655335150211 $204 $321 forward 7 unknown #
vertex $-1 $205 $322 #
vertex $-1 $203 $323 #
straight-curve $-1 -65.535506962524195 22.998711756589394 0 0 0 -1 I I #
face $-1 $-1 $324 $27 $-1 $325 reversed single #
loop $-1 $-1 $129 $123 #
plane-surface $-1 0 0 8.6439861745633433 0 0 1 1 0 0 forward_v I I I I #
coedge $-1 $326 $327 $328 $329 reversed $124 $-1 #
coedge $-1 $330 $126 $128 $219 forward $77 $-1 #
coedge $-1 $126 $330 $326 $331 forward $77 $-1 #
coedge $-1 $328 $129 $126 $216 forward $210 $-1 #
edge $-1 $222 -8.1748233385123257 $332 3.4648072287704252 $215 $333 forward 7 unknown #
coedge $-1 $334 $335 $127 $218 forward $324 $-1 #
edge $-1 $336 -54.983961105436876 $221 -48.06760276774812 $217 $337 forward 7 unknown #
edge $-1 $222 -9.7812076499046849 $336 2.0097183471152325e-014 $128 $338 forward 7 unknown #
coedge $-1 $129 $328 $334 $339 forward $210 $-1 #
vertex $-1 $218 $340 #
vertex $-1 $130 $341 #
straight-curve $-1 -95.338117211578407 -10.529831393383276 8.6439861745633451 1 0 0 I I #
coedge $-1 $224 $224 $-1 $342 reversed $133 $-1 #
edge $-1 $343 0 $343 6.2831853071796004 $134 $344 forward 7 unknown #
vertex $-1 $137 $345 #
ellipse-curve $-1 -75.52250269490473 -7.204222659873917 5.1858070057189627 -0.70710678939079041 0 0.70710677298230451 0.70710677298230451 0 0.70710678939079041 1 I I #
coedge $-1 $228 $228 $-1 $346 reversed $140 $-1 #
edge $-1 $347 0 $347 6.2831853071796004 $141 $348 forward 7 unknown #
vertex $-1 $144 $349 #
ellipse-curve $-1 -75.52250269490473 -2.2158095596098804 5.1858070057189627 -0.70710678939079041 0 0.70710677298230451 0.70710677298230451 0 0.70710678939079041 1 I I #
face $-1 $-1 $244 $30 $-1 $350 forward single #
loop $-1 $-1 $351 $145 #
plane-surface $-1 78.980681783501694 0 0 -1 0 0 0 0 1 forward_v I I I I #
coedge $-1 $352 $353 $354 $355 reversed $146 $-1 #
coedge $-1 $356 $148 $150 $242 forward $91 $-1 #
coedge $-1 $148 $356 $352 $357 forward $91 $-1 #
coedge $-1 $354 $151 $148 $239 forward $244 $-1 #
edge $-1 $246 -8.0507843085284954 $358 2.4582048911179974 $238 $359 forward 7 unknown #
coedge $-1 $360 $361 $149 $241 forward $233 $-1 #
edge $-1 $362 -106.97986243605122 $245 -103.66292971223778 $240 $363 forward 7 unknown #
edge $-1 $246 153.96041982052498 $362 157.96136356700333 $150 $364 forward 7 unknown #
coedge $-1 $151 $354 $360 $365 forward $244 $-1 #
loop $-1 $-1 $354 $232 #
vertex $-1 $241 $366 #
vertex $-1 $152 $367 #
straight-curve $-1 60.802858414783273 10.847074017233744 8.643986174563338 -1 0 0 I I #
coedge $-1 $248 $248 $-1 $368 reversed $155 $-1 #
edge $-1 $369 0 $369 6.2831853071796004 $156 $370 forward 7 unknown #
vertex $-1 $159 $371 #
ellipse-curve $-1 77.862032132339664 5.5925794174104979 6.9855198126566247 0.82903758062907751 0 0.55919289150049634 0.55919289150049634 0 -0.82903758062907751 1 I I #
face $-1 $-1 $175 $24 $-1 $372 reversed single #
loop $-1 $-1 $268 $160 #
plane-surface $-1 0 32.256089350968246 0 0 -1 0 0 0 -1 forward_v I I I I #
coedge $-1 $373 $266 $269 $374 forward $161 $-1 #
coedge $-1 $272 $163 $164 $260 reversed $100 $-1 #
coedge $-1 $266 $373 $163 $258 reversed $161 $-1 #
edge $-1 $273 -8.6439861745633433 $375 8.6439861745633433 $257 $376 forward 7 unknown #
coedge $-1 $165 $164 $373 $377 forward $65 $-1 #
edge $-1 $264 -78.980681783501694 $375 78.980681783501694 $256 $378 forward 7 unknown #
coedge $-1 $269 $268 $165 $262 reversed $253 $-1 #
edge $-1 $379 -78.980681783501694 $263 78.980681783501694 $261 $380 forward 7 unknown #
vertex $-1 $167 $381 #
vertex $-1 $275 $382 #
straight-curve $-1 78.980681783501694 0 -8.6439861745633433 0 -1 0 I I #
coedge $-1 $255 $257 $168 $267 reversed $161 $-1 #
edge $-1 $270 -32.256089350968246 $273 32.256089350968246 $266 $383 forward 7 unknown #
coedge $-1 $261 $169 $174 $276 forward $253 $-1 #
coedge $-1 $169 $261 $255 $374 reversed $253 $-1 #
vertex $-1 $170 $384 #
straight-curve $-1 0 32.256089350968246 8.6439861745633433 -1 0 0 I I #
coedge $-1 $171 $256 $173 $275 reversed $100 $-1 #
vertex $-1 $267 $385 #
straight-curve $-1 0 -32.256089350968246 8.6439861745633433 1 0 0 I I #
edge $-1 $176 -8.6439861745633433 $264 8.6439861745633433 $173 $386 forward 7 unknown #
edge $-1 $177 -8.6439861745633433 $263 8.6439861745633433 $174 $387 forward 7 unknown #
point $-1 78.980681783501694 -32.256089350968246 8.6439861745633433 #
point $-1 78.980681783501694 32.256089350968246 8.6439861745633433 #
face $-1 $-1 $295 $25 $-1 $388 reversed single #
loop $-1 $-1 $389 $179 #
plane-surface $-1 0 -41.496056041464492 -3.4223731983510017 0 1 0 0 0 1 forward_v I I I I #
coedge $-1 $390 $292 $294 $391 forward $180 $-1 #
coedge $-1 $182 $189 $392 $393 forward $108 $-1 #
coedge $-1 $394 $187 $182 $285 reversed $295 $-1 #
edge $-1 $395 -4.6199833452481229 $191 4.6199833452481229 $284 $396 forward 7 unknown #
coedge $-1 $184 $183 $389 $397 reversed $69 $-1 #
coedge $-1 $292 $390 $183 $288 forward $180 $-1 #
edge $-1 $398 -4.6199833452481229 $290 4.6199833452481229 $183 $399 forward 7 unknown #
edge $-1 $190 -4.6199833452481229 $400 4.6199833452481229 $184 $401 forward 7 unknown #
vertex $-1 $185 $402 #
straight-curve $-1 -78.980681783501694 -32.256089350968246 0 0 0 -1 I I #
coedge $-1 $282 $287 $186 $293 reversed $180 $-1 #
edge $-1 $296 -78.980681783501694 $290 78.980681783501694 $292 $403 forward 7 unknown #
coedge $-1 $187 $394 $282 $391 reversed $295 $-1 #
loop $-1 $-1 $187 $279 #
vertex $-1 $188 $404 #
straight-curve $-1 78.980681783501694 -32.256089350968246 0 0 0 1 I I #
point $-1 -78.980681783501694 -32.256089350968246 -1.4214118795644048 #
point $-1 78.980681783501694 -32.256089350968246 -1.4214118795644048 #
face $-1 $-1 $312 $26 $-1 $405 reversed single #
loop $-1 $-1 $307 $193 #
plane-surface $-1 0 0 -8.6439861745633433 0 0 1 1 0 0 forward_v I I I I #
coedge $-1 $204 $406 $198 $309 forward $194 $-1 #
coedge $-1 $407 $196 $316 $408 reversed $116 $-1 #
coedge $-1 $196 $407 $319 $409 reversed $116 $-1 #
edge $-1 $320 -8.6439861745633433 $317 8.6439861745633433 $196 $410 forward 7 unknown #
coedge $-1 $411 $202 $197 $308 forward $301 $-1 #
edge $-1 $207 9.185011479699984 $313 18.442389074078836 $307 $412 forward 7 unknown #
edge $-1 $314 -18.442389074078836 $206 -9.185011479699984 $303 $413 forward 7 unknown #
coedge $-1 $414 $199 $406 $415 reversed $312 $-1 #
coedge $-1 $199 $414 $411 $416 reversed $312 $-1 #
loop $-1 $-1 $199 $300 #
vertex $-1 $416 $417 #
vertex $-1 $200 $418 #
straight-curve $-1 -65.535506962524195 32.256089350968246 0 0 0 1 I I #
coedge $-1 $202 $411 $304 $408 forward $301 $-1 #
vertex $-1 $203 $419 #
straight-curve $-1 -31.8070540992248 22.998711756589394 -8.6439861745633433 -1 0 0 I I #
coedge $-1 $406 $204 $305 $409 forward $194 $-1 #
vertex $-1 $205 $420 #
straight-curve $-1 -31.8070540992248 22.998711756589394 8.6439861745633433 1 0 0 I I #
point $-1 -65.535506962524195 22.998711756589394 8.6439861745633433 #
point $-1 -65.535506962524195 22.998711756589394 -8.6439861745633433 #
loop $-1 $-1 $217 $209 #
plane-surface $-1 -78.980681783501694 0 0 1 0 0 0 0 -1 forward_v I I I I #
coedge $-1 $327 $212 $214 $331 reversed $124 $-1 #
coedge $-1 $212 $326 $421 $422 reversed $124 $-1 #
coedge $-1 $220 $215 $212 $329 forward $210 $-1 #
edge $-1 $332 -23.273793605270654 $423 -16.357435428076712 $328 $424 forward 7 unknown #
coedge $-1 $214 $213 $335 $425 reversed $77 $-1 #
edge $-1 $426 -2.0097183471152325e-014 $332 9.7812076499046849 $326 $427 forward 7 unknown #
vertex $-1 $216 $428 #
straight-curve $-1 -72.064323606307752 -2.3550080548709502 8.6439861745633433 0 1 0 I I #
coedge $-1 $421 $217 $220 $339 reversed $324 $-1 #
coedge $-1 $217 $421 $330 $425 forward $324 $-1 #
vertex $-1 $218 $429 #
straight-curve $-1 -78.980681783501694 -10.529831393383276 56.711588942311465 0 0 1 I I #
straight-curve $-1 -78.98068178350168 -10.529831393383276 1.7276278368746034 -0.70710677298230451 0 -0.70710678939079041 I I #
edge $-1 $423 -1.109799173899475 $221 10.529831393383276 $334 $430 forward 7 unknown #
point $-1 -78.980681783501694 -10.529831393383276 8.6439861745633433 #
point $-1 -72.064323606307752 -10.529831393383276 8.6439861745633433 #
edge $-1 $431 1 $431 0 $224 $-1 forward 7 unknown #
vertex $-1 $225 $432 #
ellipse-curve $-1 -73.888325753463761 -7.204222659873917 3.551630102199248 -0.70710678939079041 0 0.70710677298230451 0.70710677298230451 0 0.70710678939079041 1 I I #
point $-1 -74.81539592192243 -7.204222659873917 5.8929137951097683 #
edge $-1 $433 1 $433 0 $228 $-1 forward 7 unknown #
vertex $-1 $229 $434 #
ellipse-curve $-1 -73.888325753463761 -2.2158095596098804 3.551630102199248 -0.70710678939079041 0 0.70710677298230451 0.70710677298230451 0 0.70710678939079041 1 I I #
point $-1 -74.81539592192243 -2.2158095596098804 5.8929137951097683 #
plane-surface $-1 0 0 8.6439861745633433 0 0 1 1 0 0 forward_v I I I I #
coedge $-1 $361 $360 $353 $435 forward $233 $-1 #
coedge $-1 $353 $235 $237 $357 reversed $146 $-1 #
coedge $-1 $235 $352 $351 $435 reversed $146 $-1 #
coedge $-1 $243 $238 $235 $355 forward $244 $-1 #
edge $-1 $358 15.94052406639436 $436 18.177823368718421 $354 $437 forward 7 unknown #
coedge $-1 $237 $236 $361 $438 reversed $91 $-1 #
edge $-1 $439 -157.96136356700333 $358 -153.96041982052498 $352 $440 forward 7 unknown #
vertex $-1 $239 $441 #
straight-curve $-1 76.743382481177633 2.796289708705249 8.6439861745633522 0 -1 0 I I #
coedge $-1 $351 $240 $243 $365 reversed $233 $-1 #
coedge $-1 $240 $351 $356 $438 forward $233 $-1 #
vertex $-1 $241 $442 #
straight-curve $-1 78.980681783501694 10.847074017233744 112.30691588680112 0 0 1 I I #
straight-curve $-1 -9.3501898548920508 10.847074017233744 136.28296013520844 0.55919289150049634 0 -0.82903758062907751 I I #
edge $-1 $436 0.33808481758725151 $245 10.847074017233744 $360 $443 forward 7 unknown #
point $-1 78.980681783501694 10.847074017233744 8.6439861745633433 #
point $-1 76.743382481177633 10.847074017233744 8.643986174563338 #
edge $-1 $444 1 $444 0 $248 $-1 forward 7 unknown #
vertex $-1 $249 $445 #
ellipse-curve $-1 76.053542578038517 5.5925794174104979 5.7656782436523164 0.82903758062907751 0 0.55919289150049634 0.55919289150049634 0 -0.82903758062907751 1 I I #
point $-1 78.421225023840151 5.5925794174104979 6.1564822320275407 #
plane-surface $-1 78.980681783501694 0 0 -1 0 0 0 0 1 forward_v I I I I #
coedge $-1 $257 $255 $259 $377 reversed $161 $-1 #
edge $-1 $270 -8.6439861745633433 $379 8.6439861745633433 $269 $446 forward 7 unknown #
vertex $-1 $377 $447 #
straight-curve $-1 -78.980681783501694 -32.256089350968246 0 0 0 -1 I I #
edge $-1 $375 -32.256089350968246 $379 32.256089350968246 $373 $448 forward 7 unknown #
straight-curve $-1 0 -32.256089350968246 -8.6439861745633433 -1 0 0 I I #
vertex $-1 $262 $449 #
straight-curve $-1 0 32.256089350968246 -8.6439861745633433 1 0 0 I I #
point $-1 78.980681783501694 32.256089350968246 -8.6439861745633433 #
point $-1 78.980681783501694 -32.256089350968246 -8.6439861745633433 #
straight-curve $-1 -78.980681783501694 0 8.6439861745633433 0 -1 0 I I #
point $-1 -78.980681783501694 32.256089350968246 8.6439861745633433 #
point $-1 -78.980681783501694 -32.256089350968246 8.6439861745633433 #
straight-curve $-1 78.980681783501694 -32.256089350968246 0 0 0 -1 I I #
straight-curve $-1 78.980681783501694 32.256089350968246 0 0 0 -1 I I #
plane-surface $-1 78.980681783501694 0 0 -1 0 0 0 0 1 forward_v I I I I #
coedge $-1 $450 $392 $286 $397 forward $280 $-1 #
coedge $-1 $287 $282 $450 $451 forward $180 $-1 #
edge $-1 $296 -4.6199833452481229 $452 4.6199833452481229 $294 $453 forward 7 unknown #
coedge $-1 $389 $454 $283 $393 reversed $280 $-1 #
edge $-1 $400 -78.980681783501694 $395 78.980681783501694 $392 $455 forward 7 unknown #
coedge $-1 $294 $284 $454 $456 forward $295 $-1 #
vertex $-1 $285 $457 #
straight-curve $-1 78.980681783501694 -36.876072696216369 -1.4214118795644048 0 1 0 I I #
edge $-1 $400 -2.0009613187865969 $398 2.0009613187865973 $286 $458 forward 7 unknown #
vertex $-1 $288 $459 #
straight-curve $-1 -78.980681783501694 -36.876072696216369 -5.4233345171375991 0 1 0 I I #
vertex $-1 $289 $460 #
straight-curve $-1 -78.980681783501694 -36.876072696216369 -1.4214118795644048 0 -1 0 I I #
point $-1 -78.980681783501694 -32.256089350968246 -5.4233345171375991 #
straight-curve $-1 0 -32.256089350968246 -5.4233345171375991 -1 0 0 I I #
point $-1 78.980681783501694 -32.256089350968246 -5.4233345171375991 #
plane-surface $-1 0 32.256089350968246 0 0 -1 0 0 0 -1 forward_v I I I I #
coedge $-1 $303 $319 $310 $415 forward $194 $-1 #
coedge $-1 $305 $304 $414 $461 reversed $116 $-1 #
edge $-1 $462 -18.442389074078836 $317 -9.185011479699984 $316 $463 forward 7 unknown #
edge $-1 $320 9.185011479699984 $464 18.442389074078836 $319 $465 forward 7 unknown #
straight-curve $-1 -61.692709434375011 22.998711756589394 0 0 0 -1 I I #
coedge $-1 $316 $307 $311 $416 forward $301 $-1 #
straight-curve $-1 -65.535506962524195 13.81370027688941 -8.6439861745633433 0 1 0 I I #
straight-curve $-1 -65.535506962524195 13.81370027688941 8.6439861745633433 0 -1 0 I I #
coedge $-1 $311 $310 $407 $461 forward $312 $-1 #
edge $-1 $464 61.692709434375011 $314 65.535506962524195 $310 $466 forward 7 unknown #
edge $-1 $313 -65.535506962524195 $462 -61.692709434375011 $311 $467 forward 7 unknown #
point $-1 -65.535506962524195 32.256089350968246 -8.6439861745633433 #
point $-1 -65.535506962524195 32.256089350968246 8.6439861745633433 #
point $-1 -61.692709434375011 22.998711756589394 -8.6439861745633433 #
point $-1 -61.692709434375011 22.998711756589394 8.6439861745633433 #
coedge $-1 $335 $334 $327 $422 forward $324 $-1 #
edge $-1 $423 48.06760276774812 $426 54.983961105436876 $421 $468 forward 7 unknown #
vertex $-1 $339 $469 #
straight-curve $-1 -95.338117211578407 1.109799173899475 8.6439861745633451 -1 0 0 I I #
edge $-1 $426 -3.4648072287704252 $336 8.1748233385123257 $335 $470 forward 7 unknown #
vertex $-1 $425 $471 #
straight-curve $-1 -78.98068178350168 1.109799173899475 1.7276278368746034 0.70710677298230451 0 0.70710678939079041 I I #
point $-1 -72.064323606307752 1.109799173899475 8.6439861745633433 #
point $-1 -78.980681783501694 -10.529831393383276 1.7276278368745892 #
straight-curve $-1 -78.980681783501694 0 8.6439861745633433 0 -1 0 I I #
vertex $-1 $342 $472 #
point $-1 -73.181218980481461 -7.204222659873917 4.2587368915900381 #
vertex $-1 $346 $473 #
point $-1 -73.181218980481461 -2.2158095596098804 4.2587368915900381 #
edge $-1 $436 103.66292971223778 $439 106.97986243605122 $351 $474 forward 7 unknown #
vertex $-1 $365 $475 #
straight-curve $-1 60.802858414783273 0.33808481758725151 8.643986174563338 1 0 0 I I #
edge $-1 $439 -2.4582048911179974 $362 8.0507843085284954 $361 $476 forward 7 unknown #
vertex $-1 $438 $477 #
straight-curve $-1 -9.3501898548920508 0.33808481758725151 136.28296013520844 -0.55919289150049634 0 0.82903758062907751 I I #
point $-1 76.743382481177633 0.33808481758725151 8.643986174563338 #
point $-1 78.980681783501694 10.847074017233744 5.3270534507499008 #
straight-curve $-1 78.980681783501694 0 8.6439861745633433 0 1 0 I I #
vertex $-1 $368 $478 #
point $-1 76.612735469539004 5.5925794174104979 4.9366406630232387 #
straight-curve $-1 -78.980681783501694 32.256089350968246 0 0 0 -1 I I #
point $-1 -78.980681783501694 -32.256089350968246 -8.6439861745633433 #
straight-curve $-1 -78.980681783501694 0 -8.6439861745633433 0 1 0 I I #
point $-1 -78.980681783501694 32.256089350968246 -8.6439861745633433 #
coedge $-1 $454 $389 $390 $451 reversed $280 $-1 #
edge $-1 $452 -78.980681783501694 $398 78.980681783501694 $450 $479 forward 7 unknown #
vertex $-1 $456 $480 #
straight-curve $-1 78.980681783501694 -36.876072696216369 -5.4233345171375991 0 -1 0 I I #
coedge $-1 $392 $450 $394 $456 reversed $280 $-1 #
straight-curve $-1 0 -41.496056041464492 -1.4214118795644048 1 0 0 I I #
edge $-1 $395 -2.0009613187865969 $452 2.0009613187865973 $394 $481 forward 7 unknown #
point $-1 78.980681783501694 -41.496056041464492 -1.4214118795644048 #
straight-curve $-1 -78.980681783501694 -41.496056041464492 -3.4223731983510017 0 0 -1 I I #
point $-1 -78.980681783501694 -41.496056041464492 -5.4233345171375991 #
point $-1 -78.980681783501694 -41.496056041464492 -1.4214118795644048 #
edge $-1 $464 -8.6439861745633433 $462 8.6439861745633433 $414 $482 forward 7 unknown #
vertex $-1 $461 $483 #
straight-curve $-1 -61.692709434375011 13.81370027688941 -8.6439861745633433 0 -1 0 I I #
vertex $-1 $415 $484 #
straight-curve $-1 -61.692709434375011 13.81370027688941 8.6439861745633433 0 1 0 I I #
straight-curve $-1 0 32.256089350968246 8.6439861745633433 -1 0 0 I I #
straight-curve $-1 0 32.256089350968246 -8.6439861745633433 1 0 0 I I #
straight-curve $-1 -78.980681783501694 1.109799173899475 56.711588942311465 0 0 -1 I I #
point $-1 -78.980681783501694 1.109799173899475 8.6439861745633433 #
straight-curve $-1 -78.980681783501694 -2.3550080548709502 1.7276278368745999 0 -1 0 I I #
point $-1 -78.980681783501694 1.109799173899475 1.7276278368745892 #
point $-1 -73.181218964072968 -7.204222659873917 2.8445233292169436 #
point $-1 -73.181218964072968 -2.2158095596098804 2.8445233292169436 #
straight-curve $-1 78.980681783501694 0.33808481758725151 112.30691588680112 0 0 -1 I I #
point $-1 78.980681783501694 0.33808481758725151 8.6439861745633433 #
straight-curve $-1 78.980681783501694 2.796289708705249 5.3270534507498937 0 1 0 I I #
point $-1 78.980681783501694 0.33808481758725151 5.3270534507499008 #
point $-1 75.224504997409426 5.5925794174104979 5.2064853521518204 #
straight-curve $-1 0 -41.496056041464492 -5.4233345171375991 -1 0 0 I I #
point $-1 78.980681783501694 -41.496056041464492 -5.4233345171375991 #
straight-curve $-1 78.980681783501694 -41.496056041464492 -3.4223731983510017 0 0 -1 I I #
straight-curve $-1 -61.692709434375011 32.256089350968246 0 0 0 -1 I I #
point $-1 -61.692709434375011 32.256089350968246 -8.6439861745633433 #
point $-1 -61.692709434375011 32.256089350968246 8.6439861745633433 #
End-of-ACIS-data 