500 0 19 0           
7 Unknown 11 ACIS 5.0 NT 24 Fri Mar 26 01:22:32 1999 
-1 9.9999999999999995e-007 1e-010 
body $-1 $19 $-1 $20 #
body $-1 $21 $-1 $22 #
body $-1 $23 $-1 $24 #
body $-1 $25 $-1 $26 #
body $-1 $27 $-1 $28 #
body $-1 $29 $-1 $30 #
body $-1 $31 $-1 $32 #
body $-1 $33 $-1 $34 #
body $-1 $35 $-1 $36 #
body $-1 $37 $-1 $38 #
body $-1 $39 $-1 $40 #
body $-1 $41 $-1 $42 #
body $-1 $43 $-1 $44 #
body $-1 $45 $-1 $46 #
body $-1 $47 $-1 $48 #
body $-1 $49 $-1 $50 #
body $-1 $51 $-1 $52 #
body $-1 $53 $-1 $54 #
body $-1 $55 $-1 $56 #
lump $-1 $-1 $57 $0 #
transform $-1 1 0 0 0 1 0 0 0 1 62.649616992706072 42.673132624241077 14.171199458317188 1 rotate no_reflect no_shear #
lump $-1 $-1 $58 $1 #
transform $-1 1 0 0 0 1 0 0 0 1 62.649616992706072 42.673132624241077 14.171199458317188 1 rotate no_reflect no_shear #
lump $-1 $-1 $59 $2 #
transform $-1 1 0 0 0 1 0 0 0 1 62.649616992706072 42.673132624241077 14.171199458317188 1 rotate no_reflect no_shear #
lump $-1 $-1 $60 $3 #
transform $-1 1 0 0 0 1 0 0 0 1 62.649616992706072 42.673132624241077 14.171199458317188 1 rotate no_reflect no_shear #
lump $-1 $-1 $61 $4 #
transform $-1 1 0 0 0 1 0 0 0 1 62.649616992706072 42.673132624241077 14.171199458317188 1 rotate no_reflect no_shear #
lump $-1 $-1 $62 $5 #
transform $-1 1 0 0 0 1 0 0 0 1 62.649616992706072 42.673132624241077 14.171199458317188 1 rotate no_reflect no_shear #
lump $-1 $-1 $63 $6 #
transform $-1 1 0 0 0 1 0 0 0 1 62.649616992706072 42.673132624241077 14.171199458317188 1 rotate no_reflect no_shear #
lump $-1 $-1 $64 $7 #
transform $-1 1 0 0 0 1 0 0 0 1 62.649616992706072 42.673132624241077 14.171199458317188 1 rotate no_reflect no_shear #
lump $-1 $-1 $65 $8 #
transform $-1 1 0 0 0 1 0 0 0 1 62.649616992706072 42.673132624241077 14.171199458317188 1 rotate no_reflect no_shear #
lump $-1 $-1 $66 $9 #
transform $-1 1 0 0 0 1 0 0 0 1 62.649616992706072 42.673132624241077 14.171199458317188 1 rotate no_reflect no_shear #
lump $-1 $-1 $67 $10 #
transform $-1 1 0 0 0 1 0 0 0 1 62.649616992706072 42.673132624241077 14.171199458317188 1 rotate no_reflect no_shear #
lump $-1 $-1 $68 $11 #
transform $-1 1 0 0 0 1 0 0 0 1 62.649616992706072 42.673132624241077 14.171199458317188 1 rotate no_reflect no_shear #
lump $-1 $-1 $69 $12 #
transform $-1 1 0 0 0 1 0 0 0 1 62.649616992706072 42.673132624241077 14.171199458317188 1 rotate no_reflect no_shear #
lump $-1 $-1 $70 $13 #
transform $-1 1 0 0 0 1 0 0 0 1 62.649616992706072 42.673132624241077 14.171199458317188 1 rotate no_reflect no_shear #
lump $-1 $-1 $71 $14 #
transform $-1 1 0 0 0 1 0 0 0 1 62.649616992706072 42.673132624241077 14.171199458317188 1 rotate no_reflect no_shear #
lump $-1 $-1 $72 $15 #
transform $-1 1 0 0 0 1 0 0 0 1 62.649616992706072 42.673132624241077 14.171199458317188 1 rotate no_reflect no_shear #
lump $-1 $-1 $73 $16 #
transform $-1 1 0 0 0 1 0 0 0 1 62.649616992706072 42.673132624241077 14.171199458317188 1 rotate no_reflect no_shear #
lump $-1 $-1 $74 $17 #
transform $-1 1 0 0 0 1 0 0 0 1 62.649616992706072 42.673132624241077 14.171199458317188 1 rotate no_reflect no_shear #
lump $-1 $-1 $75 $18 #
transform $-1 1 0 0 0 1 0 0 0 1 62.649616992706072 42.673132624241077 14.171199458317188 1 rotate no_reflect no_shear #
shell $-1 $-1 $-1 $76 $-1 $19 #
shell $-1 $-1 $-1 $77 $-1 $21 #
shell $-1 $-1 $-1 $78 $-1 $23 #
shell $-1 $-1 $-1 $79 $-1 $25 #
shell $-1 $-1 $-1 $80 $-1 $27 #
shell $-1 $-1 $-1 $81 $-1 $29 #
shell $-1 $-1 $-1 $82 $-1 $31 #
shell $-1 $-1 $-1 $83 $-1 $33 #
shell $-1 $-1 $-1 $84 $-1 $35 #
shell $-1 $-1 $-1 $85 $-1 $37 #
shell $-1 $-1 $-1 $86 $-1 $39 #
shell $-1 $-1 $-1 $87 $-1 $41 #
shell $-1 $-1 $-1 $88 $-1 $43 #
shell $-1 $-1 $-1 $89 $-1 $45 #
shell $-1 $-1 $-1 $90 $-1 $47 #
shell $-1 $-1 $-1 $91 $-1 $49 #
shell $-1 $-1 $-1 $92 $-1 $51 #
shell $-1 $-1 $-1 $93 $-1 $53 #
shell $-1 $-1 $-1 $94 $-1 $55 #
face $-1 $95 $96 $57 $-1 $97 reversed single #
face $-1 $98 $99 $58 $-1 $100 forward single #
face $-1 $101 $102 $59 $-1 $103 forward single #
face $-1 $104 $105 $60 $-1 $106 reversed single #
face $-1 $107 $108 $61 $-1 $109 forward single #
face $-1 $110 $111 $62 $-1 $112 forward single #
face $-1 $113 $114 $63 $-1 $115 forward single #
face $-1 $116 $117 $64 $-1 $118 reversed single #
face $-1 $119 $120 $65 $-1 $121 forward single #
face $-1 $122 $123 $66 $-1 $124 forward single #
face $-1 $125 $126 $67 $-1 $127 reversed single #
face $-1 $128 $129 $68 $-1 $130 forward single #
face $-1 $131 $132 $69 $-1 $133 forward single #
face $-1 $134 $135 $70 $-1 $136 reversed single #
face $-1 $137 $138 $71 $-1 $139 forward single #
face $-1 $140 $141 $72 $-1 $142 forward single #
face $-1 $143 $144 $73 $-1 $145 reversed single #
face $-1 $146 $147 $74 $-1 $148 forward single #
face $-1 $149 $150 $75 $-1 $151 forward single #
face $-1 $152 $153 $57 $-1 $154 forward single #
loop $-1 $-1 $155 $76 #
plane-surface $-1 62.649616992706072 0 0 -1 0 0 0 0 1 forward_v I I I I #
face $-1 $156 $157 $58 $-1 $158 reversed single #
loop $-1 $-1 $159 $77 #
plane-surface $-1 -62.649616992706072 0 0 1 0 0 0 0 -1 forward_v I I I I #
face $-1 $160 $161 $59 $-1 $162 reversed single #
loop $-1 $-1 $163 $78 #
plane-surface $-1 62.649616992706072 0 0 -1 0 0 0 0 1 forward_v I I I I #
face $-1 $164 $165 $60 $-1 $166 reversed single #
loop $-1 $-1 $167 $79 #
plane-surface $-1 -20.127473050817937 91.378887632142494 146.58678033904494 1 0 0 0 -0.79863551827123203 -0.60181501223851219 forward_v I I I I #
face $-1 $168 $169 $61 $-1 $170 forward single #
loop $-1 $171 $172 $80 #
cone-surface $-1 -17.264391672802738 37.666171219123719 7.9884932583840067 0 -0.79863551827123203 -0.60181501223851219 1 0 0 1 I I 0 1 1 forward I I I I #
face $-1 $173 $174 $62 $-1 $175 forward single #
loop $-1 $176 $177 $81 #
cone-surface $-1 -12.969769605779945 37.666171219123719 7.9884932583840067 0 -0.79863551827123203 -0.60181501223851219 1 0 0 1 I I 0 1 1 forward I I I I #
face $-1 $178 $179 $63 $-1 $180 forward single #
loop $-1 $181 $182 $82 #
cone-surface $-1 -8.6751475387571446 37.666171219123719 7.9884932583840067 0 -0.79863551827123203 -0.60181501223851219 1 0 0 1 I I 0 1 1 forward I I I I #
face $-1 $183 $184 $64 $-1 $185 reversed single #
loop $-1 $-1 $186 $83 #
plane-surface $-1 -32.924606609013061 -135.78861103440903 88.18225109585758 -1 0 0 0 -0.74314483375859142 0.66913059716165679 forward_v I I I I #
face $-1 $187 $188 $65 $-1 $189 forward single #
loop $-1 $190 $191 $84 #
cone-surface $-1 -43.961257432701686 -37.086086607601679 8.2102786559259986 0 0.74314483375859142 -0.66913059716165679 1 0 0 1 I I 0 1 1 forward I I I I #
face $-1 $192 $193 $66 $-1 $194 forward single #
loop $-1 $195 $196 $85 #
cone-surface $-1 -37.339266938488514 -37.086086607601679 8.2102786559259986 0 0.74314483375859142 -0.66913059716165679 1 0 0 1 I I 0 1 1 forward I I I I #
face $-1 $197 $198 $67 $-1 $199 reversed single #
loop $-1 $-1 $200 $86 #
plane-surface $-1 -7.2129632071011702 -135.78861103440903 88.18225109585758 -1 0 0 0 -0.74314483375859142 0.66913059716165679 forward_v I I I I #
face $-1 $201 $202 $68 $-1 $203 forward single #
loop $-1 $204 $205 $87 #
cone-surface $-1 -18.249614030789793 -37.086086607601679 8.2102786559259986 0 0.74314483375859142 -0.66913059716165679 1 0 0 1 I I 0 1 1 forward I I I I #
face $-1 $206 $207 $69 $-1 $208 forward single #
loop $-1 $209 $210 $88 #
cone-surface $-1 -11.627623536576621 -37.086086607601679 8.2102786559259986 0 0.74314483375859142 -0.66913059716165679 1 0 0 1 I I 0 1 1 forward I I I I #
face $-1 $211 $212 $70 $-1 $213 reversed single #
loop $-1 $-1 $214 $89 #
plane-surface $-1 18.498680194810731 -135.78861103440903 88.18225109585758 -1 0 0 0 -0.74314483375859142 0.66913059716165679 forward_v I I I I #
face $-1 $215 $216 $71 $-1 $217 forward single #
loop $-1 $218 $219 $90 #
cone-surface $-1 7.4620293711220995 -37.086086607601679 8.2102786559259986 0 0.74314483375859142 -0.66913059716165679 1 0 0 1 I I 0 1 1 forward I I I I #
face $-1 $220 $221 $72 $-1 $222 forward single #
loop $-1 $223 $224 $91 #
cone-surface $-1 14.084019865335279 -37.086086607601679 8.2102786559259986 0 0.74314483375859142 -0.66913059716165679 1 0 0 1 I I 0 1 1 forward I I I I #
face $-1 $225 $226 $73 $-1 $227 reversed single #
loop $-1 $-1 $228 $92 #
plane-surface $-1 44.210323596722631 -135.78861103440903 88.18225109585758 -1 0 0 0 -0.74314483375859142 0.66913059716165679 forward_v I I I I #
face $-1 $229 $230 $74 $-1 $231 forward single #
loop $-1 $232 $233 $93 #
cone-surface $-1 33.173672773033999 -37.086086607601679 8.2102786559259986 0 0.74314483375859142 -0.66913059716165679 1 0 0 1 I I 0 1 1 forward I I I I #
face $-1 $234 $235 $75 $-1 $236 forward single #
loop $-1 $237 $238 $94 #
cone-surface $-1 39.795663267247178 -37.086086607601679 8.2102786559259986 0 0.74314483375859142 -0.66913059716165679 1 0 0 1 I I 0 1 1 forward I I I I #
face $-1 $239 $240 $57 $-1 $241 reversed single #
loop $-1 $-1 $242 $95 #
plane-surface $-1 0 0 14.171199458317188 0 0 1 1 0 0 forward_v I I I I #
coedge $-1 $243 $244 $245 $246 reversed $96 $-1 #
face $-1 $247 $248 $58 $-1 $249 forward single #
loop $-1 $-1 $250 $98 #
plane-surface $-1 0 42.673132624241077 0 0 -1 0 0 0 -1 forward_v I I I I #
coedge $-1 $251 $252 $253 $254 forward $99 $-1 #
face $-1 $255 $256 $59 $-1 $257 forward single #
loop $-1 $-1 $258 $101 #
plane-surface $-1 0 -42.673132624241077 0 0 1 0 0 0 1 forward_v I I I I #
coedge $-1 $259 $260 $261 $262 forward $102 $-1 #
face $-1 $263 $264 $60 $-1 $265 reversed single #
loop $-1 $-1 $266 $104 #
plane-surface $-1 -12.969769605779945 -8.6895310407855106 71.179820304637914 0 0.79863551827123203 0.60181501223851219 1 0 0 forward_v I I I I #
coedge $-1 $267 $268 $269 $270 reversed $105 $-1 #
face $-1 $-1 $271 $61 $-1 $272 forward single #
loop $-1 $273 $274 $107 #
cone-surface $-1 -17.264391672802738 36.461685933327431 7.0808485187890202 0 -0.79863551827123203 -0.60181501223851219 0.5 0 0 1 I I -0.70710678118654746 0.70710678118654746 0.5 forward I I I I #
loop $-1 $-1 $275 $80 #
coedge $-1 $172 $172 $276 $277 reversed $108 $-1 #
face $-1 $-1 $278 $62 $-1 $279 forward single #
loop $-1 $280 $281 $110 #
cone-surface $-1 -12.969769605779945 36.461685933327431 7.0808485187890202 0 -0.79863551827123203 -0.60181501223851219 0.5 0 0 1 I I -0.70710678118654746 0.70710678118654746 0.5 forward I I I I #
loop $-1 $-1 $282 $81 #
coedge $-1 $177 $177 $283 $284 reversed $111 $-1 #
face $-1 $-1 $285 $63 $-1 $286 forward single #
loop $-1 $287 $288 $113 #
cone-surface $-1 -8.6751475387571446 36.461685933327431 7.0808485187890202 0 -0.79863551827123203 -0.60181501223851219 0.5 0 0 1 I I -0.70710678118654746 0.70710678118654746 0.5 forward I I I I #
loop $-1 $-1 $289 $82 #
coedge $-1 $182 $182 $290 $291 reversed $114 $-1 #
face $-1 $292 $293 $64 $-1 $294 reversed single #
loop $-1 $-1 $295 $116 #
plane-surface $-1 -40.650262185595103 -42.673132624241077 4.3406998353005974 0 -0.74314483375859142 0.66913059716165679 1 0 0 forward_v I I I I #
coedge $-1 $296 $297 $298 $299 reversed $117 $-1 #
face $-1 $-1 $300 $65 $-1 $301 forward single #
loop $-1 $302 $303 $119 #
cone-surface $-1 -43.961257432701686 -35.553178872950156 6.8300423664622745 0 0.74314483375859142 -0.66913059716165679 0.5 0 0 1 I I -0.70710678118654746 0.70710678118654746 0.5 forward I I I I #
loop $-1 $-1 $304 $84 #
coedge $-1 $191 $191 $305 $306 reversed $120 $-1 #
face $-1 $-1 $307 $66 $-1 $308 forward single #
loop $-1 $309 $310 $122 #
cone-surface $-1 -37.339266938488514 -35.553178872950156 6.8300423664622745 0 0.74314483375859142 -0.66913059716165679 0.5 0 0 1 I I -0.70710678118654746 0.70710678118654746 0.5 forward I I I I #
loop $-1 $-1 $311 $85 #
coedge $-1 $196 $196 $312 $313 reversed $123 $-1 #
face $-1 $314 $315 $67 $-1 $316 reversed single #
loop $-1 $-1 $317 $125 #
plane-surface $-1 -14.938618783683211 -42.673132624241077 4.3406998353005974 0 -0.74314483375859142 0.66913059716165679 1 0 0 forward_v I I I I #
coedge $-1 $318 $319 $320 $321 reversed $126 $-1 #
face $-1 $-1 $322 $68 $-1 $323 forward single #
loop $-1 $324 $325 $128 #
cone-surface $-1 -18.249614030789793 -35.553178872950156 6.8300423664622745 0 0.74314483375859142 -0.66913059716165679 0.5 0 0 1 I I -0.70710678118654746 0.70710678118654746 0.5 forward I I I I #
loop $-1 $-1 $326 $87 #
coedge $-1 $205 $205 $327 $328 reversed $129 $-1 #
face $-1 $-1 $329 $69 $-1 $330 forward single #
loop $-1 $331 $332 $131 #
cone-surface $-1 -11.627623536576621 -35.553178872950156 6.8300423664622745 0 0.74314483375859142 -0.66913059716165679 0.5 0 0 1 I I -0.70710678118654746 0.70710678118654746 0.5 forward I I I I #
loop $-1 $-1 $333 $88 #
coedge $-1 $210 $210 $334 $335 reversed $132 $-1 #
face $-1 $336 $337 $70 $-1 $338 reversed single #
loop $-1 $-1 $339 $134 #
plane-surface $-1 10.773024618228689 -42.673132624241077 4.3406998353005974 0 -0.74314483375859142 0.66913059716165679 1 0 0 forward_v I I I I #
coedge $-1 $340 $341 $342 $343 reversed $135 $-1 #
face $-1 $-1 $344 $71 $-1 $345 forward single #
loop $-1 $346 $347 $137 #
cone-surface $-1 7.4620293711220995 -35.553178872950156 6.8300423664622745 0 0.74314483375859142 -0.66913059716165679 0.5 0 0 1 I I -0.70710678118654746 0.70710678118654746 0.5 forward I I I I #
loop $-1 $-1 $348 $90 #
coedge $-1 $219 $219 $349 $350 reversed $138 $-1 #
face $-1 $-1 $351 $72 $-1 $352 forward single #
loop $-1 $353 $354 $140 #
cone-surface $-1 14.084019865335279 -35.553178872950156 6.8300423664622745 0 0.74314483375859142 -0.66913059716165679 0.5 0 0 1 I I -0.70710678118654746 0.70710678118654746 0.5 forward I I I I #
loop $-1 $-1 $355 $91 #
coedge $-1 $224 $224 $356 $357 reversed $141 $-1 #
face $-1 $358 $359 $73 $-1 $360 reversed single #
loop $-1 $-1 $361 $143 #
plane-surface $-1 36.484668020140589 -42.673132624241077 4.3406998353005974 0 -0.74314483375859142 0.66913059716165679 1 0 0 forward_v I I I I #
coedge $-1 $362 $363 $364 $365 reversed $144 $-1 #
face $-1 $-1 $366 $74 $-1 $367 forward single #
loop $-1 $368 $369 $146 #
cone-surface $-1 33.173672773033999 -35.553178872950156 6.8300423664622745 0 0.74314483375859142 -0.66913059716165679 0.5 0 0 1 I I -0.70710678118654746 0.70710678118654746 0.5 forward I I I I #
loop $-1 $-1 $370 $93 #
coedge $-1 $233 $233 $371 $372 reversed $147 $-1 #
face $-1 $-1 $373 $75 $-1 $374 forward single #
loop $-1 $375 $376 $149 #
cone-surface $-1 39.795663267247178 -35.553178872950156 6.8300423664622745 0 0.74314483375859142 -0.66913059716165679 0.5 0 0 1 I I -0.70710678118654746 0.70710678118654746 0.5 forward I I I I #
loop $-1 $-1 $377 $94 #
coedge $-1 $238 $238 $378 $379 reversed $150 $-1 #
face $-1 $380 $381 $57 $-1 $382 reversed single #
loop $-1 $-1 $383 $152 #
plane-surface $-1 0 0 -14.171199458317188 0 0 1 1 0 0 forward_v I I I I #
coedge $-1 $384 $385 $243 $386 forward $153 $-1 #
coedge $-1 $387 $155 $242 $386 reversed $96 $-1 #
coedge $-1 $155 $387 $383 $388 reversed $96 $-1 #
coedge $-1 $389 $390 $155 $246 forward $391 $-1 #
edge $-1 $392 -14.171199458317188 $393 14.171199458317188 $155 $394 forward 7 unknown #
face $-1 $395 $396 $58 $-1 $397 reversed single #
loop $-1 $-1 $253 $156 #
plane-surface $-1 -68.262782087147215 0 -2.0235130740669018 0 0 1 1 0 0 forward_v I I I I #
coedge $-1 $398 $399 $252 $400 forward $157 $-1 #
coedge $-1 $401 $159 $402 $403 reversed $99 $-1 #
coedge $-1 $159 $401 $250 $400 reversed $99 $-1 #
coedge $-1 $404 $405 $159 $254 reversed $248 $-1 #
edge $-1 $406 -42.673132624241077 $407 42.673132624241077 $253 $408 forward 7 unknown #
face $-1 $409 $410 $59 $-1 $411 reversed single #
loop $-1 $-1 $412 $160 #
plane-surface $-1 68.262782087147215 0 -2.0235130740669018 0 0 1 1 0 0 forward_v I I I I #
coedge $-1 $413 $414 $260 $415 forward $161 $-1 #
coedge $-1 $416 $163 $417 $418 reversed $102 $-1 #
coedge $-1 $163 $416 $258 $415 reversed $102 $-1 #
coedge $-1 $419 $420 $163 $262 reversed $256 $-1 #
edge $-1 $421 -42.673132624241077 $422 42.673132624241077 $261 $423 forward 7 unknown #
face $-1 $424 $425 $60 $-1 $426 reversed single #
loop $-1 $-1 $427 $164 #
plane-surface $-1 -5.8120661607419528 91.378887632142494 146.58678033904494 -1 0 0 0 0.79863551827123203 0.60181501223851219 forward_v I I I I #
coedge $-1 $428 $429 $430 $431 reversed $165 $-1 #
coedge $-1 $268 $167 $432 $433 reversed $105 $-1 #
coedge $-1 $167 $267 $428 $434 reversed $105 $-1 #
coedge $-1 $430 $435 $167 $270 forward $436 $-1 #
edge $-1 $437 3.0163111918301695 $438 11.419898948743523 $269 $439 forward 7 unknown #
loop $-1 $-1 $276 $168 #
plane-surface $-1 -12.969769605779945 -8.6895310407855106 71.179820304637914 0 0.79863551827123203 0.60181501223851219 1 0 0 forward_v I I I I #
loop $-1 $-1 $440 $107 #
coedge $-1 $274 $274 $275 $441 reversed $169 $-1 #
coedge $-1 $275 $275 $274 $441 forward $171 $-1 #
coedge $-1 $276 $276 $172 $277 forward $271 $-1 #
edge $-1 $442 1.358158094167149e-015 $442 6.2831853071796022 $276 $443 forward 7 unknown #
loop $-1 $-1 $283 $173 #
plane-surface $-1 -12.969769605779945 -8.6895310407855106 71.179820304637914 0 0.79863551827123203 0.60181501223851219 1 0 0 forward_v I I I I #
loop $-1 $-1 $444 $110 #
coedge $-1 $281 $281 $282 $445 reversed $174 $-1 #
coedge $-1 $282 $282 $281 $445 forward $176 $-1 #
coedge $-1 $283 $283 $177 $284 forward $278 $-1 #
edge $-1 $446 1.358158094167149e-015 $446 6.2831853071796022 $283 $447 forward 7 unknown #
loop $-1 $-1 $290 $178 #
plane-surface $-1 -12.969769605779945 -8.6895310407855106 71.179820304637914 0 0.79863551827123203 0.60181501223851219 1 0 0 forward_v I I I I #
loop $-1 $-1 $448 $113 #
coedge $-1 $288 $288 $289 $449 reversed $179 $-1 #
coedge $-1 $289 $289 $288 $449 forward $181 $-1 #
coedge $-1 $290 $290 $182 $291 forward $285 $-1 #
edge $-1 $450 1.358158094167149e-015 $450 6.2831853071796022 $290 $451 forward 7 unknown #
face $-1 $452 $453 $64 $-1 $454 forward single #
loop $-1 $-1 $455 $183 #
plane-surface $-1 -48.375917762177146 -135.78861103440903 88.18225109585758 1 0 0 0 0.74314483375859142 -0.66913059716165679 forward_v I I I I #
coedge $-1 $456 $457 $458 $459 reversed $184 $-1 #
coedge $-1 $297 $186 $460 $461 reversed $117 $-1 #
coedge $-1 $186 $296 $456 $462 reversed $117 $-1 #
coedge $-1 $458 $463 $186 $299 forward $453 $-1 #
edge $-1 $464 25.221172892963438 $465 34.072594290697786 $298 $466 forward 7 unknown #
loop $-1 $-1 $305 $187 #
plane-surface $-1 -40.650262185595103 -42.673132624241077 4.3406998353005974 0 -0.74314483375859142 0.66913059716165679 1 0 0 forward_v I I I I #
loop $-1 $-1 $467 $119 #
coedge $-1 $303 $303 $304 $468 reversed $188 $-1 #
coedge $-1 $304 $304 $303 $468 forward $190 $-1 #
coedge $-1 $305 $305 $191 $306 forward $300 $-1 #
edge $-1 $469 1.320090408112036e-015 $469 6.2831853071796013 $305 $470 forward 7 unknown #
loop $-1 $-1 $312 $192 #
plane-surface $-1 -40.650262185595103 -42.673132624241077 4.3406998353005974 0 -0.74314483375859142 0.66913059716165679 1 0 0 forward_v I I I I #
loop $-1 $-1 $471 $122 #
coedge $-1 $310 $310 $311 $472 reversed $193 $-1 #
coedge $-1 $311 $311 $310 $472 forward $195 $-1 #
coedge $-1 $312 $312 $196 $313 forward $307 $-1 #
edge $-1 $473 1.320090408112036e-015 $473 6.2831853071796013 $312 $474 forward 7 unknown #
face $-1 $475 $476 $67 $-1 $477 reversed single #
loop $-1 $-1 $478 $197 #
plane-surface $-1 -22.664274360265253 -135.78861103440903 88.18225109585758 1 0 0 0 0.74314483375859142 -0.66913059716165679 forward_v I I I I #
coedge $-1 $479 $480 $481 $482 reversed $198 $-1 #
coedge $-1 $319 $200 $483 $484 reversed $126 $-1 #
coedge $-1 $200 $318 $479 $485 reversed $126 $-1 #
coedge $-1 $481 $486 $200 $321 forward $487 $-1 #
edge $-1 $488 25.221172892963438 $489 34.072594290697786 $320 $490 forward 7 unknown #
loop $-1 $-1 $327 $201 #
plane-surface $-1 -14.938618783683211 -42.673132624241077 4.3406998353005974 0 -0.74314483375859142 0.66913059716165679 1 0 0 forward_v I I I I #
loop $-1 $-1 $491 $128 #
coedge $-1 $325 $325 $326 $492 reversed $202 $-1 #
coedge $-1 $326 $326 $325 $492 forward $204 $-1 #
coedge $-1 $327 $327 $205 $328 forward $322 $-1 #
edge $-1 $493 1.320090408112036e-015 $493 6.2831853071796013 $327 $494 forward 7 unknown #
loop $-1 $-1 $334 $206 #
plane-surface $-1 -14.938618783683211 -42.673132624241077 4.3406998353005974 0 -0.74314483375859142 0.66913059716165679 1 0 0 forward_v I I I I #
loop $-1 $-1 $495 $131 #
coedge $-1 $332 $332 $333 $496 reversed $207 $-1 #
coedge $-1 $333 $333 $332 $496 forward $209 $-1 #
coedge $-1 $334 $334 $210 $335 forward $329 $-1 #
edge $-1 $497 1.320090408112036e-015 $497 6.2831853071796013 $334 $498 forward 7 unknown #
face $-1 $499 $500 $70 $-1 $501 reversed single #
loop $-1 $-1 $502 $211 #
plane-surface $-1 3.0473690416466486 -135.78861103440903 88.18225109585758 1 0 0 0 0.74314483375859142 -0.66913059716165679 forward_v I I I I #
coedge $-1 $503 $504 $505 $506 reversed $212 $-1 #
coedge $-1 $341 $214 $507 $508 reversed $135 $-1 #
coedge $-1 $214 $340 $503 $509 reversed $135 $-1 #
coedge $-1 $505 $510 $214 $343 forward $511 $-1 #
edge $-1 $512 25.221172892963438 $513 34.072594290697786 $342 $514 forward 7 unknown #
loop $-1 $-1 $349 $215 #
plane-surface $-1 10.773024618228689 -42.673132624241077 4.3406998353005974 0 -0.74314483375859142 0.66913059716165679 1 0 0 forward_v I I I I #
loop $-1 $-1 $515 $137 #
coedge $-1 $347 $347 $348 $516 reversed $216 $-1 #
coedge $-1 $348 $348 $347 $516 forward $218 $-1 #
coedge $-1 $349 $349 $219 $350 forward $344 $-1 #
edge $-1 $517 1.320090408112036e-015 $517 6.2831853071796013 $349 $518 forward 7 unknown #
loop $-1 $-1 $356 $220 #
plane-surface $-1 10.773024618228689 -42.673132624241077 4.3406998353005974 0 -0.74314483375859142 0.66913059716165679 1 0 0 forward_v I I I I #
loop $-1 $-1 $519 $140 #
coedge $-1 $354 $354 $355 $520 reversed $221 $-1 #
coedge $-1 $355 $355 $354 $520 forward $223 $-1 #
coedge $-1 $356 $356 $224 $357 forward $351 $-1 #
edge $-1 $521 1.320090408112036e-015 $521 6.2831853071796013 $356 $522 forward 7 unknown #
face $-1 $523 $524 $73 $-1 $525 reversed single #
loop $-1 $-1 $526 $225 #
plane-surface $-1 28.759012443558547 -135.78861103440903 88.18225109585758 1 0 0 0 0.74314483375859142 -0.66913059716165679 forward_v I I I I #
coedge $-1 $527 $528 $529 $530 reversed $226 $-1 #
coedge $-1 $363 $228 $531 $532 reversed $144 $-1 #
coedge $-1 $228 $362 $527 $533 reversed $144 $-1 #
coedge $-1 $529 $534 $228 $365 forward $535 $-1 #
edge $-1 $536 25.221172892963438 $537 34.072594290697786 $364 $538 forward 7 unknown #
loop $-1 $-1 $371 $229 #
plane-surface $-1 36.484668020140589 -42.673132624241077 4.3406998353005974 0 -0.74314483375859142 0.66913059716165679 1 0 0 forward_v I I I I #
loop $-1 $-1 $539 $146 #
coedge $-1 $369 $369 $370 $540 reversed $230 $-1 #
coedge $-1 $370 $370 $369 $540 forward $232 $-1 #
coedge $-1 $371 $371 $233 $372 forward $366 $-1 #
edge $-1 $541 1.320090408112036e-015 $541 6.2831853071796013 $371 $542 forward 7 unknown #
loop $-1 $-1 $378 $234 #
plane-surface $-1 36.484668020140589 -42.673132624241077 4.3406998353005974 0 -0.74314483375859142 0.66913059716165679 1 0 0 forward_v I I I I #
loop $-1 $-1 $543 $149 #
coedge $-1 $376 $376 $377 $544 reversed $235 $-1 #
coedge $-1 $377 $377 $376 $544 forward $237 $-1 #
coedge $-1 $378 $378 $238 $379 forward $373 $-1 #
edge $-1 $545 1.320090408112036e-015 $545 6.2831853071796013 $378 $546 forward 7 unknown #
face $-1 $547 $548 $57 $-1 $549 reversed single #
loop $-1 $-1 $550 $239 #
plane-surface $-1 0 -42.673132624241077 0 0 1 0 0 0 1 forward_v I I I I #
coedge $-1 $551 $552 $244 $388 forward $240 $-1 #
coedge $-1 $553 $242 $390 $554 forward $153 $-1 #
coedge $-1 $242 $553 $555 $556 forward $153 $-1 #
edge $-1 $557 -42.673132624241077 $392 42.673132624241077 $243 $558 forward 7 unknown #
coedge $-1 $244 $243 $559 $560 forward $96 $-1 #
edge $-1 $393 -42.673132624241077 $561 42.673132624241077 $244 $562 forward 7 unknown #
coedge $-1 $563 $245 $552 $564 reversed $391 $-1 #
coedge $-1 $245 $563 $384 $554 reversed $391 $-1 #
loop $-1 $-1 $245 $547 #
vertex $-1 $386 $565 #
vertex $-1 $388 $566 #
straight-curve $-1 62.649616992706072 42.673132624241077 0 0 0 -1 I I #
face $-1 $567 $568 $58 $-1 $569 reversed single #
loop $-1 $-1 $570 $247 #
plane-surface $-1 -68.262782087147215 0 -7.8749335407296996 0 0 1 1 0 0 forward_v I I I I #
coedge $-1 $571 $250 $572 $573 reversed $157 $-1 #
coedge $-1 $250 $571 $404 $574 reversed $157 $-1 #
edge $-1 $406 2.0235130740669018 $575 7.8749335407296996 $250 $576 forward 7 unknown #
coedge $-1 $252 $251 $570 $577 forward $99 $-1 #
coedge $-1 $578 $579 $251 $403 forward $580 $-1 #
edge $-1 $581 -7.8749335407296996 $407 -2.0235130740669018 $402 $582 forward 7 unknown #
coedge $-1 $583 $253 $399 $574 forward $248 $-1 #
coedge $-1 $253 $583 $578 $584 forward $248 $-1 #
vertex $-1 $400 $585 #
vertex $-1 $584 $586 #
straight-curve $-1 -62.649616992706072 0 -2.0235130740669018 0 -1 0 I I #
face $-1 $587 $588 $59 $-1 $589 reversed single #
loop $-1 $-1 $590 $255 #
plane-surface $-1 68.262782087147215 0 -7.8749335407296996 0 0 1 1 0 0 forward_v I I I I #
coedge $-1 $420 $419 $591 $592 forward $256 $-1 #
coedge $-1 $593 $258 $594 $595 reversed $161 $-1 #
coedge $-1 $258 $593 $419 $596 reversed $161 $-1 #
edge $-1 $421 2.0235130740669018 $597 7.8749335407296996 $258 $598 forward 7 unknown #
coedge $-1 $260 $259 $599 $600 forward $102 $-1 #
coedge $-1 $601 $602 $259 $418 forward $603 $-1 #
edge $-1 $604 -7.8749335407296996 $422 -2.0235130740669018 $417 $605 forward 7 unknown #
coedge $-1 $412 $261 $414 $596 forward $256 $-1 #
coedge $-1 $261 $412 $601 $606 forward $256 $-1 #
vertex $-1 $415 $607 #
vertex $-1 $606 $608 #
straight-curve $-1 62.649616992706072 0 -2.0235130740669018 0 1 0 I I #
face $-1 $-1 $436 $60 $-1 $609 forward single #
loop $-1 $-1 $610 $263 #
plane-surface $-1 0 42.673132624241077 0 0 -1 0 0 0 -1 forward_v I I I I #
coedge $-1 $611 $612 $613 $614 reversed $264 $-1 #
coedge $-1 $615 $266 $268 $434 forward $165 $-1 #
coedge $-1 $266 $615 $611 $616 forward $165 $-1 #
coedge $-1 $613 $269 $266 $431 forward $436 $-1 #
edge $-1 $438 -13.642588247927964 $617 0.67281864214801956 $430 $618 forward 7 unknown #
coedge $-1 $619 $620 $267 $433 forward $425 $-1 #
edge $-1 $621 -70.274128644120125 $437 -59.122190711205278 $432 $622 forward 7 unknown #
edge $-1 $438 71.382526248925856 $621 85.346265248482126 $268 $623 forward 7 unknown #
coedge $-1 $269 $613 $619 $624 forward $436 $-1 #
loop $-1 $-1 $613 $424 #
vertex $-1 $433 $625 #
vertex $-1 $270 $626 #
straight-curve $-1 -20.127473050817937 45.689443816071247 14.17119945831719 0 -1 0 I I #
coedge $-1 $440 $440 $-1 $627 reversed $273 $-1 #
edge $-1 $628 0 $628 6.2831853071796004 $274 $629 forward 7 unknown #
vertex $-1 $277 $630 #
ellipse-curve $-1 -17.264391672802738 38.471338745784408 8.5952304918597537 0 0.79863551827123203 0.60181501223851219 1 0 0 1 I I #
coedge $-1 $444 $444 $-1 $631 reversed $280 $-1 #
edge $-1 $632 0 $632 6.2831853071796004 $281 $633 forward 7 unknown #
vertex $-1 $284 $634 #
ellipse-curve $-1 -12.969769605779945 38.471338745784408 8.5952304918597537 0 0.79863551827123203 0.60181501223851219 1 0 0 1 I I #
coedge $-1 $448 $448 $-1 $635 reversed $287 $-1 #
edge $-1 $636 0 $636 6.2831853071796004 $288 $637 forward 7 unknown #
vertex $-1 $291 $638 #
ellipse-curve $-1 -8.6751475387571446 38.471338745784408 8.5952304918597537 0 0.79863551827123203 0.60181501223851219 1 0 0 1 I I #
face $-1 $-1 $639 $64 $-1 $640 reversed single #
loop $-1 $-1 $298 $292 #
plane-surface $-1 0 0 14.171199458317188 0 0 1 1 0 0 forward_v I I I I #
coedge $-1 $641 $642 $643 $644 reversed $293 $-1 #
coedge $-1 $645 $295 $297 $462 forward $184 $-1 #
coedge $-1 $295 $645 $641 $646 forward $184 $-1 #
coedge $-1 $643 $298 $295 $459 forward $453 $-1 #
edge $-1 $465 12.599475516215509 $647 28.050786669379594 $458 $648 forward 7 unknown #
coedge $-1 $649 $650 $296 $461 forward $639 $-1 #
edge $-1 $651 -39.750425712628193 $464 -29.9199260896116 $460 $652 forward 7 unknown #
edge $-1 $465 -13.228241893706013 $651 0 $297 $653 forward 7 unknown #
coedge $-1 $298 $643 $649 $654 forward $453 $-1 #
vertex $-1 $461 $655 #
vertex $-1 $299 $656 #
straight-curve $-1 -32.924606609013061 -67.894305517204515 14.17119945831719 0 1 0 I I #
coedge $-1 $467 $467 $-1 $657 reversed $302 $-1 #
edge $-1 $658 0 $658 6.2831853071796004 $303 $659 forward 7 unknown #
vertex $-1 $306 $660 #
ellipse-curve $-1 -43.961257432701686 -38.247421925373899 9.255949646808892 0 -0.74314483375859142 0.66913059716165679 1 0 0 1 I I #
coedge $-1 $471 $471 $-1 $661 reversed $309 $-1 #
edge $-1 $662 0 $662 6.2831853071796004 $310 $663 forward 7 unknown #
vertex $-1 $313 $664 #
ellipse-curve $-1 -37.339266938488514 -38.247421925373899 9.255949646808892 0 -0.74314483375859142 0.66913059716165679 1 0 0 1 I I #
face $-1 $-1 $487 $67 $-1 $665 forward single #
loop $-1 $-1 $666 $314 #
plane-surface $-1 0 -42.673132624241077 0 0 1 0 0 0 1 forward_v I I I I #
coedge $-1 $667 $668 $669 $670 reversed $315 $-1 #
coedge $-1 $671 $317 $319 $485 forward $198 $-1 #
coedge $-1 $317 $671 $667 $672 forward $198 $-1 #
coedge $-1 $669 $320 $317 $482 forward $487 $-1 #
edge $-1 $489 -0.25634618474043513 $673 15.194964968423648 $481 $674 forward 7 unknown #
coedge $-1 $675 $676 $318 $484 forward $476 $-1 #
edge $-1 $677 -39.750425712628193 $488 -29.9199260896116 $483 $678 forward 7 unknown #
edge $-1 $489 -13.228241893706013 $677 0 $319 $679 forward 7 unknown #
coedge $-1 $320 $669 $675 $680 forward $487 $-1 #
loop $-1 $-1 $669 $475 #
vertex $-1 $484 $681 #
vertex $-1 $321 $682 #
straight-curve $-1 -7.2129632071011702 -67.894305517204515 14.17119945831719 0 1 0 I I #
coedge $-1 $491 $491 $-1 $683 reversed $324 $-1 #
edge $-1 $684 0 $684 6.2831853071796004 $325 $685 forward 7 unknown #
vertex $-1 $328 $686 #
ellipse-curve $-1 -18.249614030789793 -38.247421925373899 9.255949646808892 0 -0.74314483375859142 0.66913059716165679 1 0 0 1 I I #
coedge $-1 $495 $495 $-1 $687 reversed $331 $-1 #
edge $-1 $688 0 $688 6.2831853071796004 $332 $689 forward 7 unknown #
vertex $-1 $335 $690 #
ellipse-curve $-1 -11.627623536576621 -38.247421925373899 9.255949646808892 0 -0.74314483375859142 0.66913059716165679 1 0 0 1 I I #
face $-1 $-1 $511 $70 $-1 $691 forward single #
loop $-1 $-1 $692 $336 #
plane-surface $-1 0 -42.673132624241077 0 0 1 0 0 0 1 forward_v I I I I #
coedge $-1 $693 $694 $695 $696 reversed $337 $-1 #
coedge $-1 $697 $339 $341 $509 forward $212 $-1 #
coedge $-1 $339 $697 $693 $698 forward $212 $-1 #
coedge $-1 $695 $342 $339 $506 forward $511 $-1 #
edge $-1 $513 -13.112167885696387 $699 2.339143267467696 $505 $700 forward 7 unknown #
coedge $-1 $701 $702 $340 $508 forward $500 $-1 #
edge $-1 $703 -39.750425712628193 $512 -29.9199260896116 $507 $704 forward 7 unknown #
edge $-1 $513 -13.228241893706013 $703 0 $341 $705 forward 7 unknown #
coedge $-1 $342 $695 $701 $706 forward $511 $-1 #
loop $-1 $-1 $695 $499 #
vertex $-1 $508 $707 #
vertex $-1 $343 $708 #
straight-curve $-1 18.498680194810731 -67.894305517204515 14.17119945831719 0 1 0 I I #
coedge $-1 $515 $515 $-1 $709 reversed $346 $-1 #
edge $-1 $710 0 $710 6.2831853071796004 $347 $711 forward 7 unknown #
vertex $-1 $350 $712 #
ellipse-curve $-1 7.4620293711220995 -38.247421925373899 9.255949646808892 0 -0.74314483375859142 0.66913059716165679 1 0 0 1 I I #
coedge $-1 $519 $519 $-1 $713 reversed $353 $-1 #
edge $-1 $714 0 $714 6.2831853071796004 $354 $715 forward 7 unknown #
vertex $-1 $357 $716 #
ellipse-curve $-1 14.084019865335279 -38.247421925373899 9.255949646808892 0 -0.74314483375859142 0.66913059716165679 1 0 0 1 I I #
face $-1 $-1 $535 $73 $-1 $717 forward single #
loop $-1 $-1 $718 $358 #
plane-surface $-1 0 -42.673132624241077 0 0 1 0 0 0 1 forward_v I I I I #
coedge $-1 $719 $720 $721 $722 reversed $359 $-1 #
coedge $-1 $723 $361 $363 $533 forward $226 $-1 #
coedge $-1 $361 $723 $719 $724 forward $226 $-1 #
coedge $-1 $721 $364 $361 $530 forward $535 $-1 #
edge $-1 $537 -25.967989586652337 $725 -10.516678433488252 $529 $726 forward 7 unknown #
coedge $-1 $727 $728 $362 $532 forward $524 $-1 #
edge $-1 $729 -39.750425712628193 $536 -29.9199260896116 $531 $730 forward 7 unknown #
edge $-1 $537 -13.228241893706013 $729 0 $363 $731 forward 7 unknown #
coedge $-1 $364 $721 $727 $732 forward $535 $-1 #
loop $-1 $-1 $721 $523 #
vertex $-1 $532 $733 #
vertex $-1 $365 $734 #
straight-curve $-1 44.210323596722631 -67.894305517204515 14.17119945831719 0 1 0 I I #
coedge $-1 $539 $539 $-1 $735 reversed $368 $-1 #
edge $-1 $736 0 $736 6.2831853071796004 $369 $737 forward 7 unknown #
vertex $-1 $372 $738 #
ellipse-curve $-1 33.173672773033999 -38.247421925373899 9.255949646808892 0 -0.74314483375859142 0.66913059716165679 1 0 0 1 I I #
coedge $-1 $543 $543 $-1 $739 reversed $375 $-1 #
edge $-1 $740 0 $740 6.2831853071796004 $376 $741 forward 7 unknown #
vertex $-1 $379 $742 #
ellipse-curve $-1 39.795663267247178 -38.247421925373899 9.255949646808892 0 -0.74314483375859142 0.66913059716165679 1 0 0 1 I I #
face $-1 $-1 $391 $57 $-1 $743 reversed single #
loop $-1 $-1 $744 $380 #
plane-surface $-1 -62.649616992706072 0 0 1 0 0 0 0 -1 forward_v I I I I #
coedge $-1 $745 $555 $744 $746 forward $381 $-1 #
coedge $-1 $747 $383 $745 $748 forward $240 $-1 #
coedge $-1 $383 $747 $389 $564 forward $240 $-1 #
coedge $-1 $385 $384 $749 $750 forward $153 $-1 #
edge $-1 $392 -62.649616992706072 $751 62.649616992706072 $390 $752 forward 7 unknown #
coedge $-1 $550 $559 $385 $556 reversed $381 $-1 #
edge $-1 $753 -62.649616992706072 $557 62.649616992706072 $555 $754 forward 7 unknown #
vertex $-1 $386 $755 #
straight-curve $-1 62.649616992706072 0 14.171199458317188 0 1 0 I I #
coedge $-1 $555 $745 $387 $560 reversed $381 $-1 #
edge $-1 $557 -14.171199458317188 $561 14.171199458317188 $387 $756 forward 7 unknown #
vertex $-1 $560 $757 #
straight-curve $-1 62.649616992706072 0 -14.171199458317188 0 -1 0 I I #
coedge $-1 $390 $389 $758 $759 reversed $391 $-1 #
edge $-1 $760 -62.649616992706072 $393 62.649616992706072 $389 $761 forward 7 unknown #
point $-1 62.649616992706072 42.673132624241077 14.171199458317188 #
point $-1 62.649616992706072 42.673132624241077 -14.171199458317188 #
face $-1 $-1 $580 $58 $-1 $762 reversed single #
loop $-1 $-1 $763 $395 #
plane-surface $-1 -73.875947181588359 0 -4.9492233073983005 1 0 0 0 0 -1 forward_v I I I I #
coedge $-1 $764 $572 $401 $577 reversed $396 $-1 #
coedge $-1 $399 $398 $763 $765 reversed $157 $-1 #
coedge $-1 $570 $766 $398 $573 forward $396 $-1 #
edge $-1 $767 -5.6131650944411433 $575 5.6131650944411433 $398 $768 forward 7 unknown #
edge $-1 $406 -5.6131650944411433 $769 5.6131650944411433 $399 $770 forward 7 unknown #
vertex $-1 $400 $771 #
straight-curve $-1 -62.649616992706072 42.673132624241077 0 0 0 -1 I I #
edge $-1 $581 -42.673132624241077 $575 42.673132624241077 $570 $772 forward 7 unknown #
coedge $-1 $773 $402 $405 $584 reversed $580 $-1 #
coedge $-1 $402 $773 $764 $774 reversed $580 $-1 #
loop $-1 $-1 $402 $567 #
vertex $-1 $403 $775 #
straight-curve $-1 -62.649616992706072 -42.673132624241077 0 0 0 1 I I #
coedge $-1 $405 $404 $776 $777 forward $248 $-1 #
edge $-1 $778 -5.6131650944411433 $407 5.6131650944411433 $578 $779 forward 7 unknown #
point $-1 -62.649616992706072 42.673132624241077 -2.0235130740669018 #
point $-1 -62.649616992706072 -42.673132624241077 -2.0235130740669018 #
face $-1 $-1 $603 $59 $-1 $780 reversed single #
loop $-1 $-1 $781 $409 #
plane-surface $-1 73.875947181588359 0 -4.9492233073983005 -1 0 0 0 0 1 forward_v I I I I #
coedge $-1 $594 $782 $783 $784 forward $410 $-1 #
coedge $-1 $781 $785 $412 $592 reversed $588 $-1 #
edge $-1 $786 -42.673132624241077 $787 42.673132624241077 $591 $788 forward 7 unknown #
coedge $-1 $414 $413 $781 $789 reversed $161 $-1 #
coedge $-1 $599 $590 $413 $595 forward $410 $-1 #
edge $-1 $790 -5.6131650944411433 $597 5.6131650944411433 $413 $791 forward 7 unknown #
edge $-1 $421 -5.6131650944411433 $786 5.6131650944411433 $414 $792 forward 7 unknown #
vertex $-1 $415 $793 #
straight-curve $-1 62.649616992706072 -42.673132624241077 0 0 0 -1 I I #
coedge $-1 $782 $594 $416 $600 reversed $410 $-1 #
edge $-1 $604 -42.673132624241077 $597 42.673132624241077 $599 $794 forward 7 unknown #
coedge $-1 $795 $417 $420 $606 reversed $603 $-1 #
coedge $-1 $417 $795 $782 $796 reversed $603 $-1 #
loop $-1 $-1 $417 $587 #
vertex $-1 $418 $797 #
straight-curve $-1 62.649616992706072 42.673132624241077 0 0 0 1 I I #
edge $-1 $787 -5.6131650944411433 $422 5.6131650944411433 $601 $798 forward 7 unknown #
point $-1 62.649616992706072 -42.673132624241077 -2.0235130740669018 #
point $-1 62.649616992706072 42.673132624241077 -2.0235130740669018 #
plane-surface $-1 0 0 14.171199458317188 0 0 1 1 0 0 forward_v I I I I #
coedge $-1 $620 $619 $612 $799 forward $425 $-1 #
coedge $-1 $612 $427 $429 $616 reversed $264 $-1 #
coedge $-1 $427 $611 $610 $799 reversed $264 $-1 #
coedge $-1 $435 $430 $427 $614 forward $436 $-1 #
edge $-1 $617 -11.419898948743523 $800 -3.0163111918301695 $613 $801 forward 7 unknown #
coedge $-1 $429 $428 $620 $802 reversed $165 $-1 #
edge $-1 $803 -85.346265248482126 $617 -71.382526248925856 $611 $804 forward 7 unknown #
vertex $-1 $431 $805 #
straight-curve $-1 -6.4848848028899724 34.26954486732771 14.17119945831719 1 0 0 I I #
coedge $-1 $610 $432 $435 $624 reversed $425 $-1 #
coedge $-1 $432 $610 $615 $802 forward $425 $-1 #
vertex $-1 $433 $806 #
straight-curve $-1 -20.127473050817937 42.673132624241077 73.293390169522468 0 0 1 I I #
straight-curve $-1 -20.127473050817937 -8.6895310407855106 71.179820304637914 0 0.60181501223851219 -0.79863551827123203 I I #
edge $-1 $800 5.8120661607419528 $437 20.127473050817937 $619 $807 forward 7 unknown #
point $-1 -20.127473050817937 42.673132624241077 14.171199458317188 #
point $-1 -20.127473050817937 34.269544867327724 14.17119945831719 #
edge $-1 $808 1 $808 0 $440 $-1 forward 7 unknown #
vertex $-1 $441 $809 #
ellipse-curve $-1 -17.264391672802738 36.861003692463044 7.3817560249082765 0 0.79863551827123203 0.60181501223851219 1 0 0 1 I I #
point $-1 -16.264391672802738 38.471338745784387 8.595230491859736 #
edge $-1 $810 1 $810 0 $444 $-1 forward 7 unknown #
vertex $-1 $445 $811 #
ellipse-curve $-1 -12.969769605779945 36.861003692463044 7.3817560249082765 0 0.79863551827123203 0.60181501223851219 1 0 0 1 I I #
point $-1 -11.969769605779945 38.471338745784387 8.595230491859736 #
edge $-1 $812 1 $812 0 $448 $-1 forward 7 unknown #
vertex $-1 $449 $813 #
ellipse-curve $-1 -8.6751475387571446 36.861003692463044 7.3817560249082765 0 0.79863551827123203 0.60181501223851219 1 0 0 1 I I #
point $-1 -7.6751475387571446 38.471338745784387 8.595230491859736 #
loop $-1 $-1 $460 $452 #
plane-surface $-1 0 -42.673132624241077 0 0 1 0 0 0 1 forward_v I I I I #
coedge $-1 $642 $455 $457 $646 reversed $293 $-1 #
coedge $-1 $455 $641 $814 $815 reversed $293 $-1 #
coedge $-1 $463 $458 $455 $644 forward $453 $-1 #
edge $-1 $647 -34.072594290697786 $816 -25.221172892963438 $643 $817 forward 7 unknown #
coedge $-1 $457 $456 $650 $818 reversed $184 $-1 #
edge $-1 $819 0 $647 13.228241893706013 $641 $820 forward 7 unknown #
vertex $-1 $459 $821 #
straight-curve $-1 -20.325131092797552 -33.821711226506721 14.171199458317188 -1 0 0 I I #
coedge $-1 $814 $460 $463 $654 reversed $639 $-1 #
coedge $-1 $460 $814 $645 $818 forward $639 $-1 #
vertex $-1 $461 $822 #
straight-curve $-1 -32.924606609013061 -42.673132624241077 44.09112554792879 0 0 1 I I #
straight-curve $-1 -32.924606609013061 -42.673132624241077 4.3406998353005974 0 -0.66913059716165679 -0.74314483375859142 I I #
edge $-1 $816 -48.375917762177146 $464 -32.924606609013061 $649 $823 forward 7 unknown #
point $-1 -32.924606609013061 -42.673132624241077 14.171199458317188 #
point $-1 -32.924606609013061 -33.821711226506729 14.171199458317188 #
edge $-1 $824 1 $824 0 $467 $-1 forward 7 unknown #
vertex $-1 $468 $825 #
ellipse-curve $-1 -43.961257432701686 -35.924751289829452 7.1646076650431025 0 -0.74314483375859142 0.66913059716165679 1 0 0 1 I I #
point $-1 -42.961257432701686 -38.247421925373899 9.2559496468088938 #
edge $-1 $826 1 $826 0 $471 $-1 forward 7 unknown #
vertex $-1 $472 $827 #
ellipse-curve $-1 -37.339266938488514 -35.924751289829452 7.1646076650431025 0 -0.74314483375859142 0.66913059716165679 1 0 0 1 I I #
point $-1 -36.339266938488514 -38.247421925373899 9.2559496468088938 #
plane-surface $-1 0 0 14.171199458317188 0 0 1 1 0 0 forward_v I I I I #
coedge $-1 $676 $675 $668 $828 forward $476 $-1 #
coedge $-1 $668 $478 $480 $672 reversed $315 $-1 #
coedge $-1 $478 $667 $666 $828 reversed $315 $-1 #
coedge $-1 $486 $481 $478 $670 forward $487 $-1 #
edge $-1 $673 -34.072594290697786 $829 -25.221172892963438 $669 $830 forward 7 unknown #
coedge $-1 $480 $479 $676 $831 reversed $198 $-1 #
edge $-1 $832 0 $673 13.228241893706013 $667 $833 forward 7 unknown #
vertex $-1 $482 $834 #
straight-curve $-1 -7.4693093918416054 -33.821711226506721 14.171199458317188 -1 0 0 I I #
coedge $-1 $666 $483 $486 $680 reversed $476 $-1 #
coedge $-1 $483 $666 $671 $831 forward $476 $-1 #
vertex $-1 $484 $835 #
straight-curve $-1 -7.2129632071011702 -42.673132624241077 44.09112554792879 0 0 1 I I #
straight-curve $-1 -7.2129632071011702 -42.673132624241077 4.3406998353005974 0 -0.66913059716165679 -0.74314483375859142 I I #
edge $-1 $829 -22.664274360265253 $488 -7.2129632071011702 $675 $836 forward 7 unknown #
point $-1 -7.2129632071011702 -42.673132624241077 14.171199458317188 #
point $-1 -7.2129632071011702 -33.821711226506729 14.171199458317188 #
edge $-1 $837 1 $837 0 $491 $-1 forward 7 unknown #
vertex $-1 $492 $838 #
ellipse-curve $-1 -18.249614030789793 -35.924751289829452 7.1646076650431025 0 -0.74314483375859142 0.66913059716165679 1 0 0 1 I I #
point $-1 -17.249614030789793 -38.247421925373899 9.2559496468088938 #
edge $-1 $839 1 $839 0 $495 $-1 forward 7 unknown #
vertex $-1 $496 $840 #
ellipse-curve $-1 -11.627623536576621 -35.924751289829452 7.1646076650431025 0 -0.74314483375859142 0.66913059716165679 1 0 0 1 I I #
point $-1 -10.627623536576621 -38.247421925373899 9.2559496468088938 #
plane-surface $-1 0 0 14.171199458317188 0 0 1 1 0 0 forward_v I I I I #
coedge $-1 $702 $701 $694 $841 forward $500 $-1 #
coedge $-1 $694 $502 $504 $698 reversed $337 $-1 #
coedge $-1 $502 $693 $692 $841 reversed $337 $-1 #
coedge $-1 $510 $505 $502 $696 forward $511 $-1 #
edge $-1 $699 -34.072594290697786 $842 -25.221172892963438 $695 $843 forward 7 unknown #
coedge $-1 $504 $503 $702 $844 reversed $212 $-1 #
edge $-1 $845 0 $699 13.228241893706013 $693 $846 forward 7 unknown #
vertex $-1 $506 $847 #
straight-curve $-1 5.3865123091143445 -33.821711226506721 14.171199458317188 -1 0 0 I I #
coedge $-1 $692 $507 $510 $706 reversed $500 $-1 #
coedge $-1 $507 $692 $697 $844 forward $500 $-1 #
vertex $-1 $508 $848 #
straight-curve $-1 18.498680194810731 -42.673132624241077 44.09112554792879 0 0 1 I I #
straight-curve $-1 18.498680194810731 -42.673132624241077 4.3406998353005974 0 -0.66913059716165679 -0.74314483375859142 I I #
edge $-1 $842 3.0473690416466486 $512 18.498680194810731 $701 $849 forward 7 unknown #
point $-1 18.498680194810731 -42.673132624241077 14.171199458317188 #
point $-1 18.498680194810731 -33.821711226506729 14.171199458317188 #
edge $-1 $850 1 $850 0 $515 $-1 forward 7 unknown #
vertex $-1 $516 $851 #
ellipse-curve $-1 7.4620293711220995 -35.924751289829452 7.1646076650431025 0 -0.74314483375859142 0.66913059716165679 1 0 0 1 I I #
point $-1 8.4620293711220995 -38.247421925373899 9.2559496468088938 #
edge $-1 $852 1 $852 0 $519 $-1 forward 7 unknown #
vertex $-1 $520 $853 #
ellipse-curve $-1 14.084019865335279 -35.924751289829452 7.1646076650431025 0 -0.74314483375859142 0.66913059716165679 1 0 0 1 I I #
point $-1 15.084019865335279 -38.247421925373899 9.2559496468088938 #
plane-surface $-1 0 0 14.171199458317188 0 0 1 1 0 0 forward_v I I I I #
coedge $-1 $728 $727 $720 $854 forward $524 $-1 #
coedge $-1 $720 $526 $528 $724 reversed $359 $-1 #
coedge $-1 $526 $719 $718 $854 reversed $359 $-1 #
coedge $-1 $534 $529 $526 $722 forward $535 $-1 #
edge $-1 $725 -34.072594290697786 $855 -25.221172892963438 $721 $856 forward 7 unknown #
coedge $-1 $528 $527 $728 $857 reversed $226 $-1 #
edge $-1 $858 0 $725 13.228241893706013 $719 $859 forward 7 unknown #
vertex $-1 $530 $860 #
straight-curve $-1 18.242334010070294 -33.821711226506721 14.171199458317188 -1 0 0 I I #
coedge $-1 $718 $531 $534 $732 reversed $524 $-1 #
coedge $-1 $531 $718 $723 $857 forward $524 $-1 #
vertex $-1 $532 $861 #
straight-curve $-1 44.210323596722631 -42.673132624241077 44.09112554792879 0 0 1 I I #
straight-curve $-1 44.210323596722631 -42.673132624241077 4.3406998353005974 0 -0.66913059716165679 -0.74314483375859142 I I #
edge $-1 $855 28.759012443558547 $536 44.210323596722631 $727 $862 forward 7 unknown #
point $-1 44.210323596722631 -42.673132624241077 14.171199458317188 #
point $-1 44.210323596722631 -33.821711226506729 14.171199458317188 #
edge $-1 $863 1 $863 0 $539 $-1 forward 7 unknown #
vertex $-1 $540 $864 #
ellipse-curve $-1 33.173672773033999 -35.924751289829452 7.1646076650431025 0 -0.74314483375859142 0.66913059716165679 1 0 0 1 I I #
point $-1 34.173672773033999 -38.247421925373899 9.2559496468088938 #
edge $-1 $865 1 $865 0 $543 $-1 forward 7 unknown #
vertex $-1 $544 $866 #
ellipse-curve $-1 39.795663267247178 -35.924751289829452 7.1646076650431025 0 -0.74314483375859142 0.66913059716165679 1 0 0 1 I I #
point $-1 40.795663267247178 -38.247421925373899 9.2559496468088938 #
plane-surface $-1 0 42.673132624241077 0 0 -1 0 0 0 -1 forward_v I I I I #
coedge $-1 $749 $867 $550 $746 reversed $548 $-1 #
coedge $-1 $559 $550 $551 $748 reversed $381 $-1 #
edge $-1 $753 -14.171199458317188 $868 14.171199458317188 $744 $869 forward 7 unknown #
coedge $-1 $552 $551 $867 $870 forward $240 $-1 #
edge $-1 $561 -62.649616992706072 $868 62.649616992706072 $745 $871 forward 7 unknown #
coedge $-1 $758 $744 $553 $750 reversed $548 $-1 #
edge $-1 $751 -42.673132624241077 $753 42.673132624241077 $749 $872 forward 7 unknown #
vertex $-1 $554 $873 #
straight-curve $-1 0 42.673132624241077 14.171199458317188 -1 0 0 I I #
vertex $-1 $750 $874 #
straight-curve $-1 0 -42.673132624241077 14.171199458317188 1 0 0 I I #
point $-1 62.649616992706072 -42.673132624241077 14.171199458317188 #
straight-curve $-1 62.649616992706072 -42.673132624241077 0 0 0 -1 I I #
point $-1 62.649616992706072 -42.673132624241077 -14.171199458317188 #
coedge $-1 $867 $749 $563 $759 forward $548 $-1 #
edge $-1 $751 -14.171199458317188 $760 14.171199458317188 $563 $875 forward 7 unknown #
vertex $-1 $564 $876 #
straight-curve $-1 0 42.673132624241077 -14.171199458317188 1 0 0 I I #
plane-surface $-1 0 -42.673132624241077 0 0 1 0 0 0 1 forward_v I I I I #
coedge $-1 $877 $776 $571 $765 forward $568 $-1 #
coedge $-1 $766 $570 $579 $774 forward $396 $-1 #
edge $-1 $769 -2.9257102333313987 $767 2.9257102333313991 $571 $878 forward 7 unknown #
coedge $-1 $572 $764 $877 $879 forward $396 $-1 #
vertex $-1 $573 $880 #
straight-curve $-1 -68.262782087147215 42.673132624241077 -7.8749335407296996 1 0 0 I I #
vertex $-1 $574 $881 #
straight-curve $-1 -68.262782087147215 42.673132624241077 -2.0235130740669018 -1 0 0 I I #
point $-1 -62.649616992706072 42.673132624241077 -7.8749335407296996 #
straight-curve $-1 -62.649616992706072 0 -7.8749335407296996 0 1 0 I I #
coedge $-1 $579 $578 $882 $883 forward $580 $-1 #
edge $-1 $581 -5.6131650944411433 $884 5.6131650944411433 $579 $885 forward 7 unknown #
point $-1 -62.649616992706072 -42.673132624241077 -7.8749335407296996 #
coedge $-1 $763 $882 $583 $777 reversed $568 $-1 #
edge $-1 $769 -42.673132624241077 $778 42.673132624241077 $776 $886 forward 7 unknown #
vertex $-1 $777 $887 #
straight-curve $-1 -68.262782087147215 -42.673132624241077 -2.0235130740669018 1 0 0 I I #
plane-surface $-1 0 42.673132624241077 0 0 -1 0 0 0 -1 forward_v I I I I #
coedge $-1 $783 $591 $593 $789 forward $588 $-1 #
coedge $-1 $590 $599 $602 $796 forward $410 $-1 #
coedge $-1 $785 $781 $590 $784 reversed $588 $-1 #
edge $-1 $888 -42.673132624241077 $790 42.673132624241077 $783 $889 forward 7 unknown #
coedge $-1 $591 $783 $795 $890 reversed $588 $-1 #
vertex $-1 $592 $891 #
vertex $-1 $592 $892 #
straight-curve $-1 73.875947181588359 0 -2.0235130740669018 0 1 0 I I #
edge $-1 $786 -2.9257102333313987 $790 2.9257102333313991 $781 $893 forward 7 unknown #
vertex $-1 $789 $894 #
straight-curve $-1 68.262782087147215 -42.673132624241077 -7.8749335407296996 -1 0 0 I I #
straight-curve $-1 68.262782087147215 -42.673132624241077 -2.0235130740669018 1 0 0 I I #
point $-1 62.649616992706072 -42.673132624241077 -7.8749335407296996 #
straight-curve $-1 62.649616992706072 0 -7.8749335407296996 0 -1 0 I I #
coedge $-1 $602 $601 $785 $890 forward $603 $-1 #
edge $-1 $604 -5.6131650944411433 $888 5.6131650944411433 $602 $895 forward 7 unknown #
point $-1 62.649616992706072 42.673132624241077 -7.8749335407296996 #
straight-curve $-1 68.262782087147215 42.673132624241077 -2.0235130740669018 -1 0 0 I I #
edge $-1 $800 59.122190711205278 $803 70.274128644120125 $610 $896 forward 7 unknown #
vertex $-1 $624 $897 #
straight-curve $-1 -5.8120661607419528 45.689443816071247 14.17119945831719 0 1 0 I I #
edge $-1 $803 -0.67281864214801956 $621 13.642588247927964 $620 $898 forward 7 unknown #
vertex $-1 $802 $899 #
straight-curve $-1 -5.8120661607419528 -8.6895310407855106 71.179820304637914 0 -0.60181501223851219 0.79863551827123203 I I #
point $-1 -5.8120661607419528 34.269544867327724 14.17119945831719 #
point $-1 -20.127473050817937 42.673132624241077 3.0192615254023423 #
straight-curve $-1 0 42.673132624241077 14.171199458317188 -1 0 0 I I #
vertex $-1 $627 $900 #
point $-1 -16.264391672802738 36.861003692463044 7.3817560249082765 #
vertex $-1 $631 $901 #
point $-1 -11.969769605779945 36.861003692463044 7.3817560249082765 #
vertex $-1 $635 $902 #
point $-1 -7.6751475387571446 36.861003692463044 7.3817560249082765 #
coedge $-1 $650 $649 $642 $815 forward $639 $-1 #
edge $-1 $816 29.9199260896116 $819 39.750425712628193 $814 $903 forward 7 unknown #
vertex $-1 $654 $904 #
straight-curve $-1 -48.375917762177146 -67.894305517204515 14.17119945831719 0 -1 0 I I #
edge $-1 $819 -28.050786669379594 $651 -12.599475516215509 $650 $905 forward 7 unknown #
vertex $-1 $818 $906 #
straight-curve $-1 -48.375917762177146 -42.673132624241077 4.3406998353005974 0 0.66913059716165679 0.74314483375859142 I I #
point $-1 -48.375917762177146 -33.821711226506729 14.171199458317188 #
point $-1 -32.924606609013061 -42.673132624241077 4.3406998353005974 #
straight-curve $-1 0 -42.673132624241077 14.171199458317188 1 0 0 I I #
vertex $-1 $657 $907 #
point $-1 -42.961257432701686 -35.924751289829452 7.1646076650431025 #
vertex $-1 $661 $908 #
point $-1 -36.339266938488514 -35.924751289829452 7.1646076650431025 #
edge $-1 $829 29.9199260896116 $832 39.750425712628193 $666 $909 forward 7 unknown #
vertex $-1 $680 $910 #
straight-curve $-1 -22.664274360265253 -67.894305517204515 14.17119945831719 0 -1 0 I I #
edge $-1 $832 -15.194964968423648 $677 0.25634618474043513 $676 $911 forward 7 unknown #
vertex $-1 $831 $912 #
straight-curve $-1 -22.664274360265253 -42.673132624241077 4.3406998353005974 0 0.66913059716165679 0.74314483375859142 I I #
point $-1 -22.664274360265253 -33.821711226506729 14.171199458317188 #
point $-1 -7.2129632071011702 -42.673132624241077 4.3406998353005974 #
straight-curve $-1 0 -42.673132624241077 14.171199458317188 1 0 0 I I #
vertex $-1 $683 $913 #
point $-1 -17.249614030789793 -35.924751289829452 7.1646076650431025 #
vertex $-1 $687 $914 #
point $-1 -10.627623536576621 -35.924751289829452 7.1646076650431025 #
edge $-1 $842 29.9199260896116 $845 39.750425712628193 $692 $915 forward 7 unknown #
vertex $-1 $706 $916 #
straight-curve $-1 3.0473690416466486 -67.894305517204515 14.17119945831719 0 -1 0 I I #
edge $-1 $845 -2.339143267467696 $703 13.112167885696387 $702 $917 forward 7 unknown #
vertex $-1 $844 $918 #
straight-curve $-1 3.0473690416466486 -42.673132624241077 4.3406998353005974 0 0.66913059716165679 0.74314483375859142 I I #
point $-1 3.0473690416466486 -33.821711226506729 14.171199458317188 #
point $-1 18.498680194810731 -42.673132624241077 4.3406998353005974 #
straight-curve $-1 0 -42.673132624241077 14.171199458317188 1 0 0 I I #
vertex $-1 $709 $919 #
point $-1 8.4620293711220995 -35.924751289829452 7.1646076650431025 #
vertex $-1 $713 $920 #
point $-1 15.084019865335279 -35.924751289829452 7.1646076650431025 #
edge $-1 $855 29.9199260896116 $858 39.750425712628193 $718 $921 forward 7 unknown #
vertex $-1 $732 $922 #
straight-curve $-1 28.759012443558547 -67.894305517204515 14.17119945831719 0 -1 0 I I #
edge $-1 $858 10.516678433488252 $729 25.967989586652337 $728 $923 forward 7 unknown #
vertex $-1 $857 $924 #
straight-curve $-1 28.759012443558547 -42.673132624241077 4.3406998353005974 0 0.66913059716165679 0.74314483375859142 I I #
point $-1 28.759012443558547 -33.821711226506729 14.171199458317188 #
point $-1 44.210323596722631 -42.673132624241077 4.3406998353005974 #
straight-curve $-1 0 -42.673132624241077 14.171199458317188 1 0 0 I I #
vertex $-1 $735 $925 #
point $-1 34.173672773033999 -35.924751289829452 7.1646076650431025 #
vertex $-1 $739 $926 #
point $-1 40.795663267247178 -35.924751289829452 7.1646076650431025 #
coedge $-1 $744 $758 $747 $870 reversed $548 $-1 #
vertex $-1 $870 $927 #
straight-curve $-1 -62.649616992706072 -42.673132624241077 0 0 0 -1 I I #
edge $-1 $868 -42.673132624241077 $760 42.673132624241077 $867 $928 forward 7 unknown #
straight-curve $-1 0 -42.673132624241077 -14.171199458317188 -1 0 0 I I #
straight-curve $-1 -62.649616992706072 0 14.171199458317188 0 -1 0 I I #
point $-1 -62.649616992706072 42.673132624241077 14.171199458317188 #
point $-1 -62.649616992706072 -42.673132624241077 14.171199458317188 #
straight-curve $-1 -62.649616992706072 42.673132624241077 0 0 0 -1 I I #
point $-1 -62.649616992706072 42.673132624241077 -14.171199458317188 #
coedge $-1 $882 $763 $766 $879 reversed $568 $-1 #
straight-curve $-1 -73.875947181588359 42.673132624241077 -4.9492233073983005 0 0 -1 I I #
edge $-1 $884 -42.673132624241077 $767 42.673132624241077 $877 $929 forward 7 unknown #
point $-1 -73.875947181588359 42.673132624241077 -7.8749335407296996 #
point $-1 -73.875947181588359 42.673132624241077 -2.0235130740669018 #
coedge $-1 $776 $877 $773 $883 reversed $568 $-1 #
edge $-1 $778 -2.9257102333313987 $884 2.9257102333313991 $882 $930 forward 7 unknown #
vertex $-1 $879 $931 #
straight-curve $-1 -68.262782087147215 -42.673132624241077 -7.8749335407296996 -1 0 0 I I #
straight-curve $-1 -73.875947181588359 0 -2.0235130740669018 0 -1 0 I I #
point $-1 -73.875947181588359 -42.673132624241077 -2.0235130740669018 #
vertex $-1 $784 $932 #
straight-curve $-1 73.875947181588359 0 -7.8749335407296996 0 -1 0 I I #
edge $-1 $787 -2.9257102333313987 $888 2.9257102333313991 $785 $933 forward 7 unknown #
point $-1 73.875947181588359 -42.673132624241077 -2.0235130740669018 #
point $-1 73.875947181588359 42.673132624241077 -2.0235130740669018 #
straight-curve $-1 73.875947181588359 -42.673132624241077 -4.9492233073983005 0 0 -1 I I #
point $-1 73.875947181588359 -42.673132624241077 -7.8749335407296996 #
straight-curve $-1 68.262782087147215 42.673132624241077 -7.8749335407296996 1 0 0 I I #
straight-curve $-1 -5.8120661607419528 42.673132624241077 73.293390169522468 0 0 -1 I I #
point $-1 -5.8120661607419528 42.673132624241077 14.171199458317188 #
straight-curve $-1 -6.4848848028899724 42.673132624241077 3.0192615254023352 -1 0 0 I I #
point $-1 -5.8120661607419528 42.673132624241077 3.0192615254023423 #
point $-1 -17.264391672802738 36.062368174191818 6.7799410126697639 #
point $-1 -12.969769605779945 36.062368174191818 6.7799410126697639 #
point $-1 -8.6751475387571446 36.062368174191818 6.7799410126697639 #
straight-curve $-1 -48.375917762177146 -42.673132624241077 44.09112554792879 0 0 -1 I I #
point $-1 -48.375917762177146 -42.673132624241077 14.171199458317188 #
straight-curve $-1 -20.325131092797552 -42.673132624241077 4.3406998353005948 1 0 0 I I #
point $-1 -48.375917762177146 -42.673132624241077 4.3406998353005974 #
point $-1 -43.961257432701686 -35.18160645607086 6.4954770678814464 #
point $-1 -37.339266938488514 -35.18160645607086 6.4954770678814464 #
straight-curve $-1 -22.664274360265253 -42.673132624241077 44.09112554792879 0 0 -1 I I #
point $-1 -22.664274360265253 -42.673132624241077 14.171199458317188 #
straight-curve $-1 -7.4693093918416054 -42.673132624241077 4.3406998353005948 1 0 0 I I #
point $-1 -22.664274360265253 -42.673132624241077 4.3406998353005974 #
point $-1 -18.249614030789793 -35.18160645607086 6.4954770678814464 #
point $-1 -11.627623536576621 -35.18160645607086 6.4954770678814464 #
straight-curve $-1 3.0473690416466486 -42.673132624241077 44.09112554792879 0 0 -1 I I #
point $-1 3.0473690416466486 -42.673132624241077 14.171199458317188 #
straight-curve $-1 5.3865123091143445 -42.673132624241077 4.3406998353005948 1 0 0 I I #
point $-1 3.0473690416466486 -42.673132624241077 4.3406998353005974 #
point $-1 7.4620293711220995 -35.18160645607086 6.4954770678814464 #
point $-1 14.084019865335279 -35.18160645607086 6.4954770678814464 #
straight-curve $-1 28.759012443558547 -42.673132624241077 44.09112554792879 0 0 -1 I I #
point $-1 28.759012443558547 -42.673132624241077 14.171199458317188 #
straight-curve $-1 18.242334010070294 -42.673132624241077 4.3406998353005948 1 0 0 I I #
point $-1 28.759012443558547 -42.673132624241077 4.3406998353005974 #
point $-1 33.173672773033999 -35.18160645607086 6.4954770678814464 #
point $-1 39.795663267247178 -35.18160645607086 6.4954770678814464 #
point $-1 -62.649616992706072 -42.673132624241077 -14.171199458317188 #
straight-curve $-1 -62.649616992706072 0 -14.171199458317188 0 1 0 I I #
straight-curve $-1 -73.875947181588359 0 -7.8749335407296996 0 1 0 I I #
straight-curve $-1 -73.875947181588359 -42.673132624241077 -4.9492233073983005 0 0 -1 I I #
point $-1 -73.875947181588359 -42.673132624241077 -7.8749335407296996 #
point $-1 73.875947181588359 42.673132624241077 -7.8749335407296996 #
straight-curve $-1 73.875947181588359 42.673132624241077 -4.9492233073983005 0 0 -1 I I #
End-of-ACIS-data 