500 0 10 0           
7 Unknown 11 ACIS 5.0 NT 24 Fri Mar 26 02:28:43 1999 
-1 9.9999999999999995e-007 1e-010 
body $-1 $10 $-1 $11 #
body $-1 $12 $-1 $13 #
body $-1 $14 $-1 $15 #
body $-1 $16 $-1 $17 #
body $-1 $18 $-1 $19 #
body $-1 $20 $-1 $21 #
body $-1 $22 $-1 $23 #
body $-1 $24 $-1 $25 #
body $-1 $26 $-1 $27 #
body $-1 $28 $-1 $29 #
lump $-1 $-1 $30 $0 #
transform $-1 1 0 0 0 1 0 0 0 1 67.237159337137967 31.018723689072729 15.40400023234746 1 rotate no_reflect no_shear #
lump $-1 $-1 $31 $1 #
transform $-1 1 0 0 0 1 0 0 0 1 67.237159337137967 31.018723689072729 15.40400023234746 1 rotate no_reflect no_shear #
lump $-1 $-1 $32 $2 #
transform $-1 1 0 0 0 1 0 0 0 1 67.237159337137967 31.018723689072729 15.40400023234746 1 rotate no_reflect no_shear #
lump $-1 $-1 $33 $3 #
transform $-1 1 0 0 0 1 0 0 0 1 67.237159337137967 31.018723689072729 15.40400023234746 1 rotate no_reflect no_shear #
lump $-1 $-1 $34 $4 #
transform $-1 1 0 0 0 1 0 0 0 1 67.237159337137967 31.018723689072729 15.40400023234746 1 rotate no_reflect no_shear #
lump $-1 $-1 $35 $5 #
transform $-1 1 0 0 0 1 0 0 0 1 67.237159337137967 31.018723689072729 15.40400023234746 1 rotate no_reflect no_shear #
lump $-1 $-1 $36 $6 #
transform $-1 1 0 0 0 1 0 0 0 1 67.237159337137967 31.018723689072729 15.40400023234746 1 rotate no_reflect no_shear #
lump $-1 $-1 $37 $7 #
transform $-1 1 0 0 0 1 0 0 0 1 67.237159337137967 31.018723689072729 15.40400023234746 1 rotate no_reflect no_shear #
lump $-1 $-1 $38 $8 #
transform $-1 1 0 0 0 1 0 0 0 1 67.237159337137967 31.018723689072729 15.40400023234746 1 rotate no_reflect no_shear #
lump $-1 $-1 $39 $9 #
transform $-1 1 0 0 0 1 0 0 0 1 67.237159337137967 31.018723689072729 15.40400023234746 1 rotate no_reflect no_shear #
shell $-1 $-1 $-1 $40 $-1 $10 #
shell $-1 $-1 $-1 $41 $-1 $12 #
shell $-1 $-1 $-1 $42 $-1 $14 #
shell $-1 $-1 $-1 $43 $-1 $16 #
shell $-1 $-1 $-1 $44 $-1 $18 #
shell $-1 $-1 $-1 $45 $-1 $20 #
shell $-1 $-1 $-1 $46 $-1 $22 #
shell $-1 $-1 $-1 $47 $-1 $24 #
shell $-1 $-1 $-1 $48 $-1 $26 #
shell $-1 $-1 $-1 $49 $-1 $28 #
face $-1 $50 $51 $30 $-1 $52 forward single #
face $-1 $53 $54 $31 $-1 $55 forward single #
face $-1 $56 $57 $32 $-1 $58 reversed single #
face $-1 $59 $60 $33 $-1 $61 forward single #
face $-1 $62 $63 $34 $-1 $64 forward single #
face $-1 $65 $66 $35 $-1 $67 forward single #
face $-1 $68 $69 $36 $-1 $70 reversed single #
face $-1 $71 $72 $37 $-1 $73 forward single #
face $-1 $74 $75 $38 $-1 $76 forward single #
face $-1 $77 $78 $39 $-1 $79 forward single #
face $-1 $80 $81 $30 $-1 $82 reversed single #
loop $-1 $-1 $83 $40 #
plane-surface $-1 0 0 15.40400023234746 0 0 1 1 0 0 forward_v I I I I #
face $-1 $84 $85 $31 $-1 $86 reversed single #
loop $-1 $-1 $87 $41 #
plane-surface $-1 0 -31.018723689072729 0 0 1 0 0 0 1 forward_v I I I I #
face $-1 $88 $89 $32 $-1 $90 reversed single #
loop $-1 $-1 $91 $42 #
plane-surface $-1 -176.02916955212652 -11.205051195424673 87.106304519739581 0 1 0 -0.80901700255871778 0 0.5877852410284794 forward_v I I I I #
face $-1 $92 $93 $33 $-1 $94 forward single #
loop $-1 $95 $96 $43 #
cone-surface $-1 -64.16634317711862 -9.5502704209324669 11.440249848479368 0.80901700255871778 0 -0.5877852410284794 0.2938926205142397 0 0.40450850127935889 1 I I 0 1 0.5 forward I I I I #
face $-1 $97 $98 $34 $-1 $99 forward single #
loop $-1 $100 $101 $44 #
cone-surface $-1 -64.16634317711862 -7.068099259194156 11.440249848479368 0.80901700255871778 0 -0.5877852410284794 0.2938926205142397 0 0.40450850127935889 1 I I 0 1 0.5 forward I I I I #
face $-1 $102 $103 $35 $-1 $104 forward single #
loop $-1 $105 $106 $45 #
cone-surface $-1 -64.16634317711862 -4.5859280974558452 11.440249848479368 0.80901700255871778 0 -0.5877852410284794 0.2938926205142397 0 0.40450850127935889 1 I I 0 1 0.5 forward I I I I #
face $-1 $107 $108 $36 $-1 $109 reversed single #
loop $-1 $-1 $110 $46 #
plane-surface $-1 -176.02916955212652 12.813500008532216 87.106304519739581 0 1 0 -0.80901700255871778 0 0.5877852410284794 forward_v I I I I #
face $-1 $111 $112 $37 $-1 $113 forward single #
loop $-1 $114 $115 $47 #
cone-surface $-1 -64.16634317711862 14.468280783024426 11.440249848479368 0.80901700255871778 0 -0.5877852410284794 0.2938926205142397 0 0.40450850127935889 1 I I 0 1 0.5 forward I I I I #
face $-1 $116 $117 $38 $-1 $118 forward single #
loop $-1 $119 $120 $48 #
cone-surface $-1 -64.16634317711862 16.950451944762733 11.440249848479368 0.80901700255871778 0 -0.5877852410284794 0.2938926205142397 0 0.40450850127935889 1 I I 0 1 0.5 forward I I I I #
face $-1 $121 $122 $39 $-1 $123 forward single #
loop $-1 $124 $125 $49 #
cone-surface $-1 -64.16634317711862 19.43262310650104 11.440249848479368 0.80901700255871778 0 -0.5877852410284794 0.2938926205142397 0 0.40450850127935889 1 I I 0 1 0.5 forward I I I I #
face $-1 $126 $127 $30 $-1 $128 reversed single #
loop $-1 $-1 $129 $50 #
plane-surface $-1 0 0 -15.40400023234746 0 0 1 1 0 0 forward_v I I I I #
coedge $-1 $130 $131 $132 $133 forward $51 $-1 #
face $-1 $134 $135 $31 $-1 $136 reversed single #
loop $-1 $-1 $137 $53 #
plane-surface $-1 0 0 -15.40400023234746 0 0 1 1 0 0 forward_v I I I I #
coedge $-1 $138 $139 $140 $141 forward $54 $-1 #
face $-1 $142 $143 $32 $-1 $144 reversed single #
loop $-1 $-1 $145 $56 #
plane-surface $-1 -67.237159337137996 -7.068099259194156 8.06428470563975 -0.80901700255871778 0 0.5877852410284794 0.5877852410284794 0 0.80901700255871778 forward_v I I I I #
coedge $-1 $146 $147 $148 $149 reversed $57 $-1 #
face $-1 $-1 $150 $33 $-1 $151 forward single #
loop $-1 $152 $153 $59 #
cone-surface $-1 -63.559580425199584 -9.5502704209324669 10.999410917708008 0.80901700255871778 0 -0.5877852410284794 0.14694631025711985 0 0.20225425063967944 1 I I -0.70710678118654746 0.70710678118654746 0.25 forward I I I I #
loop $-1 $-1 $154 $43 #
coedge $-1 $96 $96 $155 $156 reversed $60 $-1 #
face $-1 $-1 $157 $34 $-1 $158 forward single #
loop $-1 $159 $160 $62 #
cone-surface $-1 -63.559580425199584 -7.068099259194156 10.999410917708008 0.80901700255871778 0 -0.5877852410284794 0.14694631025711985 0 0.20225425063967944 1 I I -0.70710678118654746 0.70710678118654746 0.25 forward I I I I #
loop $-1 $-1 $161 $44 #
coedge $-1 $101 $101 $162 $163 reversed $63 $-1 #
face $-1 $-1 $164 $35 $-1 $165 forward single #
loop $-1 $166 $167 $65 #
cone-surface $-1 -63.559580425199584 -4.5859280974558452 10.999410917708008 0.80901700255871778 0 -0.5877852410284794 0.14694631025711985 0 0.20225425063967944 1 I I -0.70710678118654746 0.70710678118654746 0.25 forward I I I I #
loop $-1 $-1 $168 $45 #
coedge $-1 $106 $106 $169 $170 reversed $66 $-1 #
face $-1 $171 $172 $36 $-1 $173 reversed single #
loop $-1 $-1 $174 $68 #
plane-surface $-1 -67.237159337137996 16.950451944762733 8.06428470563975 -0.80901700255871778 0 0.5877852410284794 0.5877852410284794 0 0.80901700255871778 forward_v I I I I #
coedge $-1 $175 $176 $177 $178 reversed $69 $-1 #
face $-1 $-1 $179 $37 $-1 $180 forward single #
loop $-1 $181 $182 $71 #
cone-surface $-1 -63.559580425199584 14.468280783024426 10.999410917708008 0.80901700255871778 0 -0.5877852410284794 0.14694631025711985 0 0.20225425063967944 1 I I -0.70710678118654746 0.70710678118654746 0.25 forward I I I I #
loop $-1 $-1 $183 $47 #
coedge $-1 $115 $115 $184 $185 reversed $72 $-1 #
face $-1 $-1 $186 $38 $-1 $187 forward single #
loop $-1 $188 $189 $74 #
cone-surface $-1 -63.559580425199584 16.950451944762733 10.999410917708008 0.80901700255871778 0 -0.5877852410284794 0.14694631025711985 0 0.20225425063967944 1 I I -0.70710678118654746 0.70710678118654746 0.25 forward I I I I #
loop $-1 $-1 $190 $48 #
coedge $-1 $120 $120 $191 $192 reversed $75 $-1 #
face $-1 $-1 $193 $39 $-1 $194 forward single #
loop $-1 $195 $196 $77 #
cone-surface $-1 -63.559580425199584 19.43262310650104 10.999410917708008 0.80901700255871778 0 -0.5877852410284794 0.14694631025711985 0 0.20225425063967944 1 I I -0.70710678118654746 0.70710678118654746 0.25 forward I I I I #
loop $-1 $-1 $197 $49 #
coedge $-1 $125 $125 $198 $199 reversed $78 $-1 #
face $-1 $200 $201 $30 $-1 $202 reversed single #
loop $-1 $-1 $203 $80 #
plane-surface $-1 0 -31.018723689072729 0 0 1 0 0 0 1 forward_v I I I I #
coedge $-1 $204 $205 $206 $207 forward $81 $-1 #
coedge $-1 $208 $83 $209 $210 forward $51 $-1 #
coedge $-1 $83 $208 $211 $212 forward $51 $-1 #
coedge $-1 $213 $214 $83 $133 reversed $215 $-1 #
edge $-1 $216 -31.018723689072729 $217 31.018723689072729 $132 $218 forward 7 unknown #
face $-1 $219 $220 $31 $-1 $221 reversed single #
loop $-1 $-1 $222 $84 #
plane-surface $-1 -44.112270524129606 -45.019068659304409 0 0 1 0 0 0 1 forward_v I I I I #
coedge $-1 $223 $224 $139 $225 forward $85 $-1 #
coedge $-1 $226 $87 $227 $228 reversed $54 $-1 #
coedge $-1 $87 $226 $137 $225 reversed $54 $-1 #
coedge $-1 $229 $230 $87 $141 reversed $220 $-1 #
edge $-1 $231 -15.40400023234746 $232 15.40400023234746 $140 $233 forward 7 unknown #
face $-1 $234 $235 $32 $-1 $236 reversed single #
loop $-1 $-1 $237 $88 #
plane-surface $-1 -176.02916955212652 -2.9311473229636391 87.106304519739581 0 -1 0 0.80901700255871778 0 -0.5877852410284794 forward_v I I I I #
coedge $-1 $238 $239 $240 $241 reversed $89 $-1 #
coedge $-1 $147 $91 $242 $243 reversed $57 $-1 #
coedge $-1 $91 $146 $238 $244 reversed $57 $-1 #
coedge $-1 $240 $245 $91 $149 forward $246 $-1 #
edge $-1 $247 20.777425438925292 $248 26.110040756405247 $148 $249 forward 7 unknown #
loop $-1 $-1 $155 $92 #
plane-surface $-1 -67.237159337137996 -7.068099259194156 8.06428470563975 -0.80901700255871778 0 0.5877852410284794 0.5877852410284794 0 0.80901700255871778 forward_v I I I I #
loop $-1 $-1 $250 $59 #
coedge $-1 $153 $153 $154 $251 reversed $93 $-1 #
coedge $-1 $154 $154 $153 $251 forward $95 $-1 #
coedge $-1 $155 $155 $96 $156 forward $150 $-1 #
edge $-1 $252 0 $252 6.2831853071796004 $155 $253 forward 7 unknown #
loop $-1 $-1 $162 $97 #
plane-surface $-1 -67.237159337137996 -7.068099259194156 8.06428470563975 -0.80901700255871778 0 0.5877852410284794 0.5877852410284794 0 0.80901700255871778 forward_v I I I I #
loop $-1 $-1 $254 $62 #
coedge $-1 $160 $160 $161 $255 reversed $98 $-1 #
coedge $-1 $161 $161 $160 $255 forward $100 $-1 #
coedge $-1 $162 $162 $101 $163 forward $157 $-1 #
edge $-1 $256 0 $256 6.2831853071796004 $162 $257 forward 7 unknown #
loop $-1 $-1 $169 $102 #
plane-surface $-1 -67.237159337137996 -7.068099259194156 8.06428470563975 -0.80901700255871778 0 0.5877852410284794 0.5877852410284794 0 0.80901700255871778 forward_v I I I I #
loop $-1 $-1 $258 $65 #
coedge $-1 $167 $167 $168 $259 reversed $103 $-1 #
coedge $-1 $168 $168 $167 $259 forward $105 $-1 #
coedge $-1 $169 $169 $106 $170 forward $164 $-1 #
edge $-1 $260 0 $260 6.2831853071796004 $169 $261 forward 7 unknown #
face $-1 $262 $263 $36 $-1 $264 forward single #
loop $-1 $-1 $265 $107 #
plane-surface $-1 -176.02916955212652 21.08740388099325 87.106304519739581 0 -1 0 0.80901700255871778 0 -0.5877852410284794 forward_v I I I I #
coedge $-1 $266 $267 $268 $269 reversed $108 $-1 #
coedge $-1 $176 $110 $270 $271 reversed $69 $-1 #
coedge $-1 $110 $175 $266 $272 reversed $69 $-1 #
coedge $-1 $268 $273 $110 $178 forward $263 $-1 #
edge $-1 $274 20.777425438925292 $275 26.110040756405247 $177 $276 forward 7 unknown #
loop $-1 $-1 $184 $111 #
plane-surface $-1 -67.237159337137996 16.950451944762733 8.06428470563975 -0.80901700255871778 0 0.5877852410284794 0.5877852410284794 0 0.80901700255871778 forward_v I I I I #
loop $-1 $-1 $277 $71 #
coedge $-1 $182 $182 $183 $278 reversed $112 $-1 #
coedge $-1 $183 $183 $182 $278 forward $114 $-1 #
coedge $-1 $184 $184 $115 $185 forward $179 $-1 #
edge $-1 $279 0 $279 6.2831853071796004 $184 $280 forward 7 unknown #
loop $-1 $-1 $191 $116 #
plane-surface $-1 -67.237159337137996 16.950451944762733 8.06428470563975 -0.80901700255871778 0 0.5877852410284794 0.5877852410284794 0 0.80901700255871778 forward_v I I I I #
loop $-1 $-1 $281 $74 #
coedge $-1 $189 $189 $190 $282 reversed $117 $-1 #
coedge $-1 $190 $190 $189 $282 forward $119 $-1 #
coedge $-1 $191 $191 $120 $192 forward $186 $-1 #
edge $-1 $283 0 $283 6.2831853071796004 $191 $284 forward 7 unknown #
loop $-1 $-1 $198 $121 #
plane-surface $-1 -67.237159337137996 16.950451944762733 8.06428470563975 -0.80901700255871778 0 0.5877852410284794 0.5877852410284794 0 0.80901700255871778 forward_v I I I I #
loop $-1 $-1 $285 $77 #
coedge $-1 $196 $196 $197 $286 reversed $122 $-1 #
coedge $-1 $197 $197 $196 $286 forward $124 $-1 #
coedge $-1 $198 $198 $125 $199 forward $193 $-1 #
edge $-1 $287 0 $287 6.2831853071796004 $198 $288 forward 7 unknown #
face $-1 $289 $290 $30 $-1 $291 reversed single #
loop $-1 $-1 $292 $126 #
plane-surface $-1 -67.237159337137967 0 0 1 0 0 0 0 -1 forward_v I I I I #
coedge $-1 $293 $211 $294 $295 forward $127 $-1 #
coedge $-1 $296 $129 $293 $297 forward $81 $-1 #
coedge $-1 $129 $296 $298 $299 forward $81 $-1 #
coedge $-1 $214 $213 $129 $207 reversed $215 $-1 #
edge $-1 $300 -31.018723689072729 $301 31.018723689072729 $206 $302 forward 7 unknown #
coedge $-1 $131 $130 $303 $304 forward $51 $-1 #
coedge $-1 $305 $306 $130 $210 reversed $290 $-1 #
edge $-1 $217 -67.237159337137967 $307 67.237159337137967 $209 $308 forward 7 unknown #
coedge $-1 $203 $309 $131 $212 reversed $127 $-1 #
edge $-1 $310 -67.237159337137967 $216 67.237159337137967 $211 $311 forward 7 unknown #
coedge $-1 $206 $132 $309 $312 forward $215 $-1 #
coedge $-1 $132 $206 $305 $313 reversed $215 $-1 #
loop $-1 $-1 $213 $289 #
vertex $-1 $133 $314 #
vertex $-1 $133 $315 #
straight-curve $-1 67.237159337137967 0 15.40400023234746 0 1 0 I I #
face $-1 $316 $317 $31 $-1 $318 reversed single #
loop $-1 $-1 $140 $134 #
plane-surface $-1 -48.104373236403276 -38.018896174188569 0 1 0 0 0 0 -1 forward_v I I I I #
coedge $-1 $319 $320 $321 $322 forward $135 $-1 #
coedge $-1 $323 $137 $324 $325 forward $85 $-1 #
coedge $-1 $137 $323 $229 $326 forward $85 $-1 #
edge $-1 $231 -48.104373236403276 $327 -40.120167811855936 $137 $328 forward 7 unknown #
coedge $-1 $139 $138 $329 $330 forward $54 $-1 #
coedge $-1 $331 $332 $138 $228 forward $333 $-1 #
edge $-1 $334 40.120167811855936 $232 48.104373236403276 $227 $335 forward 7 unknown #
coedge $-1 $321 $140 $224 $326 reversed $220 $-1 #
coedge $-1 $140 $321 $331 $336 reversed $220 $-1 #
vertex $-1 $225 $337 #
vertex $-1 $336 $338 #
straight-curve $-1 -48.104373236403276 -31.018723689072729 0 0 0 1 I I #
face $-1 $-1 $246 $32 $-1 $339 forward single #
loop $-1 $-1 $340 $142 #
plane-surface $-1 -67.237159337137967 0 0 1 0 0 0 0 -1 forward_v I I I I #
coedge $-1 $341 $342 $343 $344 reversed $143 $-1 #
coedge $-1 $345 $145 $147 $244 forward $89 $-1 #
coedge $-1 $145 $345 $341 $346 forward $89 $-1 #
coedge $-1 $343 $148 $145 $241 forward $246 $-1 #
edge $-1 $248 -7.671001565827595 $347 0.60290230663343891 $240 $348 forward 7 unknown #
coedge $-1 $349 $350 $146 $243 forward $235 $-1 #
edge $-1 $351 -35.488867554229998 $247 -28.14915202752233 $242 $352 forward 7 unknown #
edge $-1 $248 -9.072387234747886 $351 -4.8322124813089328e-014 $147 $353 forward 7 unknown #
coedge $-1 $148 $343 $349 $354 forward $246 $-1 #
loop $-1 $-1 $343 $234 #
vertex $-1 $243 $355 #
vertex $-1 $149 $356 #
straight-curve $-1 -88.014584776063259 -11.205051195424673 15.404000232347464 1 0 0 I I #
coedge $-1 $250 $250 $-1 $357 reversed $152 $-1 #
edge $-1 $358 0 $358 6.2831853071796004 $153 $359 forward 7 unknown #
vertex $-1 $156 $360 #
ellipse-curve $-1 -64.570851678397986 -9.5502704209324669 11.734142468993618 -0.80901700255871778 0 0.5877852410284794 0.2938926205142397 0 0.40450850127935889 1 I I #
coedge $-1 $254 $254 $-1 $361 reversed $159 $-1 #
edge $-1 $362 0 $362 6.2831853071796004 $160 $363 forward 7 unknown #
vertex $-1 $163 $364 #
ellipse-curve $-1 -64.570851678397986 -7.068099259194156 11.734142468993618 -0.80901700255871778 0 0.5877852410284794 0.2938926205142397 0 0.40450850127935889 1 I I #
coedge $-1 $258 $258 $-1 $365 reversed $166 $-1 #
edge $-1 $366 0 $366 6.2831853071796004 $167 $367 forward 7 unknown #
vertex $-1 $170 $368 #
ellipse-curve $-1 -64.570851678397986 -4.5859280974558452 11.734142468993618 -0.80901700255871778 0 0.5877852410284794 0.2938926205142397 0 0.40450850127935889 1 I I #
face $-1 $-1 $369 $36 $-1 $370 reversed single #
loop $-1 $-1 $177 $171 #
plane-surface $-1 0 0 15.40400023234746 0 0 1 1 0 0 forward_v I I I I #
coedge $-1 $371 $372 $373 $374 reversed $172 $-1 #
coedge $-1 $375 $174 $176 $272 forward $108 $-1 #
coedge $-1 $174 $375 $371 $376 forward $108 $-1 #
coedge $-1 $373 $177 $174 $269 forward $263 $-1 #
edge $-1 $275 4.3382740361508496 $377 12.612177908611883 $268 $378 forward 7 unknown #
coedge $-1 $379 $380 $175 $271 forward $369 $-1 #
edge $-1 $381 -35.488867554229998 $274 -28.14915202752233 $270 $382 forward 7 unknown #
edge $-1 $275 -9.072387234747886 $381 -4.8322124813089328e-014 $176 $383 forward 7 unknown #
coedge $-1 $177 $373 $379 $384 forward $263 $-1 #
vertex $-1 $178 $385 #
vertex $-1 $178 $386 #
straight-curve $-1 -88.014584776063259 12.813500008532216 15.404000232347464 1 0 0 I I #
coedge $-1 $277 $277 $-1 $387 reversed $181 $-1 #
edge $-1 $388 0 $388 6.2831853071796004 $182 $389 forward 7 unknown #
vertex $-1 $185 $390 #
ellipse-curve $-1 -64.570851678397986 14.468280783024426 11.734142468993618 -0.80901700255871778 0 0.5877852410284794 0.2938926205142397 0 0.40450850127935889 1 I I #
coedge $-1 $281 $281 $-1 $391 reversed $188 $-1 #
edge $-1 $392 0 $392 6.2831853071796004 $189 $393 forward 7 unknown #
vertex $-1 $192 $394 #
ellipse-curve $-1 -64.570851678397986 16.950451944762733 11.734142468993618 -0.80901700255871778 0 0.5877852410284794 0.2938926205142397 0 0.40450850127935889 1 I I #
coedge $-1 $285 $285 $-1 $395 reversed $195 $-1 #
edge $-1 $396 0 $396 6.2831853071796004 $196 $397 forward 7 unknown #
vertex $-1 $199 $398 #
ellipse-curve $-1 -64.570851678397986 19.43262310650104 11.734142468993618 -0.80901700255871778 0 0.5877852410284794 0.2938926205142397 0 0.40450850127935889 1 I I #
face $-1 $-1 $215 $30 $-1 $399 reversed single #
loop $-1 $-1 $305 $200 #
plane-surface $-1 0 31.018723689072729 0 0 -1 0 0 0 -1 forward_v I I I I #
coedge $-1 $400 $303 $306 $401 forward $201 $-1 #
coedge $-1 $309 $203 $204 $297 reversed $127 $-1 #
coedge $-1 $303 $400 $203 $295 reversed $201 $-1 #
edge $-1 $310 -15.40400023234746 $402 15.40400023234746 $294 $403 forward 7 unknown #
coedge $-1 $205 $204 $400 $404 forward $81 $-1 #
edge $-1 $301 -67.237159337137967 $402 67.237159337137967 $293 $405 forward 7 unknown #
coedge $-1 $306 $305 $205 $299 reversed $290 $-1 #
edge $-1 $406 -67.237159337137967 $300 67.237159337137967 $298 $407 forward 7 unknown #
vertex $-1 $207 $408 #
vertex $-1 $312 $409 #
straight-curve $-1 67.237159337137967 0 -15.40400023234746 0 -1 0 I I #
coedge $-1 $292 $294 $208 $304 reversed $201 $-1 #
edge $-1 $307 -31.018723689072729 $310 31.018723689072729 $303 $410 forward 7 unknown #
coedge $-1 $298 $209 $214 $313 forward $290 $-1 #
coedge $-1 $209 $298 $292 $401 reversed $290 $-1 #
vertex $-1 $210 $411 #
straight-curve $-1 0 31.018723689072729 15.40400023234746 -1 0 0 I I #
coedge $-1 $211 $293 $213 $312 reversed $127 $-1 #
vertex $-1 $304 $412 #
straight-curve $-1 0 -31.018723689072729 15.40400023234746 1 0 0 I I #
edge $-1 $216 -15.40400023234746 $301 15.40400023234746 $213 $413 forward 7 unknown #
edge $-1 $217 -15.40400023234746 $300 15.40400023234746 $214 $414 forward 7 unknown #
point $-1 67.237159337137967 -31.018723689072729 15.40400023234746 #
point $-1 67.237159337137967 31.018723689072729 15.40400023234746 #
face $-1 $-1 $333 $31 $-1 $415 forward single #
loop $-1 $-1 $416 $219 #
plane-surface $-1 -40.120167811855936 -38.018896174188569 0 -1 0 0 0 0 1 forward_v I I I I #
coedge $-1 $417 $222 $323 $418 reversed $135 $-1 #
coedge $-1 $222 $417 $419 $420 reversed $135 $-1 #
coedge $-1 $230 $229 $222 $322 reversed $220 $-1 #
edge $-1 $421 -15.40400023234746 $422 15.40400023234746 $321 $423 forward 7 unknown #
coedge $-1 $224 $223 $319 $418 forward $85 $-1 #
coedge $-1 $329 $416 $223 $325 reversed $317 $-1 #
edge $-1 $327 -7.00017248511584 $424 7.00017248511584 $324 $425 forward 7 unknown #
edge $-1 $422 -7.00017248511584 $231 7.00017248511584 $229 $426 forward 7 unknown #
vertex $-1 $325 $427 #
straight-curve $-1 0 -31.018723689072729 -15.40400023234746 1 0 0 I I #
coedge $-1 $428 $324 $226 $330 reversed $317 $-1 #
edge $-1 $334 -15.40400023234746 $327 15.40400023234746 $329 $429 forward 7 unknown #
coedge $-1 $419 $227 $230 $336 forward $333 $-1 #
coedge $-1 $227 $419 $428 $430 forward $333 $-1 #
loop $-1 $-1 $227 $316 #
vertex $-1 $228 $431 #
straight-curve $-1 0 -31.018723689072729 15.40400023234746 -1 0 0 I I #
edge $-1 $232 -7.00017248511584 $421 7.00017248511584 $230 $432 forward 7 unknown #
point $-1 -48.104373236403276 -31.018723689072729 -15.40400023234746 #
point $-1 -48.104373236403276 -31.018723689072729 15.40400023234746 #
plane-surface $-1 0 0 15.40400023234746 0 0 1 1 0 0 forward_v I I I I #
coedge $-1 $350 $349 $342 $433 forward $235 $-1 #
coedge $-1 $342 $237 $239 $346 reversed $143 $-1 #
coedge $-1 $237 $341 $340 $433 reversed $143 $-1 #
coedge $-1 $245 $240 $237 $344 forward $246 $-1 #
edge $-1 $347 -26.110040756405247 $434 -20.777425438925292 $343 $435 forward 7 unknown #
coedge $-1 $239 $238 $350 $436 reversed $89 $-1 #
edge $-1 $437 4.8322124813089328e-014 $347 9.072387234747886 $341 $438 forward 7 unknown #
vertex $-1 $241 $439 #
straight-curve $-1 -61.904544019658005 -3.534049629597078 15.404000232347462 0 1 0 I I #
coedge $-1 $340 $242 $245 $354 reversed $235 $-1 #
coedge $-1 $242 $340 $345 $436 forward $235 $-1 #
vertex $-1 $243 $440 #
straight-curve $-1 -67.237159337137967 -11.205051195424673 43.55315225986979 0 0 1 I I #
straight-curve $-1 -67.237159337137996 -11.205051195424673 8.06428470563975 -0.5877852410284794 0 -0.80901700255871778 I I #
edge $-1 $434 2.9311473229636391 $247 11.205051195424673 $349 $441 forward 7 unknown #
point $-1 -67.237159337137967 -11.205051195424673 15.40400023234746 #
point $-1 -61.904544019658012 -11.205051195424673 15.40400023234746 #
edge $-1 $442 1 $442 0 $250 $-1 forward 7 unknown #
vertex $-1 $251 $443 #
ellipse-curve $-1 -63.76183467583926 -9.5502704209324669 11.146357227965128 -0.80901700255871778 0 0.5877852410284794 0.2938926205142397 0 0.40450850127935889 1 I I #
point $-1 -64.276959057883744 -9.5502704209324669 12.138650970272966 #
edge $-1 $444 1 $444 0 $254 $-1 forward 7 unknown #
vertex $-1 $255 $445 #
ellipse-curve $-1 -63.76183467583926 -7.068099259194156 11.146357227965128 -0.80901700255871778 0 0.5877852410284794 0.2938926205142397 0 0.40450850127935889 1 I I #
point $-1 -64.276959057883744 -7.068099259194156 12.138650970272966 #
edge $-1 $446 1 $446 0 $258 $-1 forward 7 unknown #
vertex $-1 $259 $447 #
ellipse-curve $-1 -63.76183467583926 -4.5859280974558452 11.146357227965128 -0.80901700255871778 0 0.5877852410284794 0.2938926205142397 0 0.40450850127935889 1 I I #
point $-1 -64.276959057883744 -4.5859280974558452 12.138650970272966 #
loop $-1 $-1 $270 $262 #
plane-surface $-1 -67.237159337137967 0 0 1 0 0 0 0 -1 forward_v I I I I #
coedge $-1 $372 $265 $267 $376 reversed $172 $-1 #
coedge $-1 $265 $371 $448 $449 reversed $172 $-1 #
coedge $-1 $273 $268 $265 $374 forward $263 $-1 #
edge $-1 $377 -26.110040756405247 $450 -20.777425438925292 $373 $451 forward 7 unknown #
coedge $-1 $267 $266 $380 $452 reversed $108 $-1 #
edge $-1 $453 4.8322124813089328e-014 $377 9.072387234747886 $371 $454 forward 7 unknown #
vertex $-1 $269 $455 #
straight-curve $-1 -61.904544019658005 8.4752259723813665 15.404000232347462 0 1 0 I I #
coedge $-1 $448 $270 $273 $384 reversed $369 $-1 #
coedge $-1 $270 $448 $375 $452 forward $369 $-1 #
vertex $-1 $271 $456 #
straight-curve $-1 -67.237159337137967 12.813500008532216 43.55315225986979 0 0 1 I I #
straight-curve $-1 -67.237159337137996 12.813500008532216 8.06428470563975 -0.5877852410284794 0 -0.80901700255871778 I I #
edge $-1 $450 -21.08740388099325 $274 -12.813500008532216 $379 $457 forward 7 unknown #
point $-1 -67.237159337137967 12.813500008532216 15.40400023234746 #
point $-1 -61.904544019658012 12.813500008532216 15.40400023234746 #
edge $-1 $458 1 $458 0 $277 $-1 forward 7 unknown #
vertex $-1 $278 $459 #
ellipse-curve $-1 -63.76183467583926 14.468280783024426 11.146357227965128 -0.80901700255871778 0 0.5877852410284794 0.2938926205142397 0 0.40450850127935889 1 I I #
point $-1 -64.276959057883744 14.468280783024426 12.138650970272966 #
edge $-1 $460 1 $460 0 $281 $-1 forward 7 unknown #
vertex $-1 $282 $461 #
ellipse-curve $-1 -63.76183467583926 16.950451944762733 11.146357227965128 -0.80901700255871778 0 0.5877852410284794 0.2938926205142397 0 0.40450850127935889 1 I I #
point $-1 -64.276959057883744 16.950451944762733 12.138650970272966 #
edge $-1 $462 1 $462 0 $285 $-1 forward 7 unknown #
vertex $-1 $286 $463 #
ellipse-curve $-1 -63.76183467583926 19.43262310650104 11.146357227965128 -0.80901700255871778 0 0.5877852410284794 0.2938926205142397 0 0.40450850127935889 1 I I #
point $-1 -64.276959057883744 19.43262310650104 12.138650970272966 #
plane-surface $-1 67.237159337137967 0 0 -1 0 0 0 0 1 forward_v I I I I #
coedge $-1 $294 $292 $296 $404 reversed $201 $-1 #
edge $-1 $307 -15.40400023234746 $406 15.40400023234746 $306 $464 forward 7 unknown #
vertex $-1 $404 $465 #
straight-curve $-1 -67.237159337137967 -31.018723689072729 0 0 0 -1 I I #
edge $-1 $402 -31.018723689072729 $406 31.018723689072729 $400 $466 forward 7 unknown #
straight-curve $-1 0 -31.018723689072729 -15.40400023234746 -1 0 0 I I #
vertex $-1 $299 $467 #
straight-curve $-1 0 31.018723689072729 -15.40400023234746 1 0 0 I I #
point $-1 67.237159337137967 31.018723689072729 -15.40400023234746 #
point $-1 67.237159337137967 -31.018723689072729 -15.40400023234746 #
straight-curve $-1 -67.237159337137967 0 15.40400023234746 0 -1 0 I I #
point $-1 -67.237159337137967 31.018723689072729 15.40400023234746 #
point $-1 -67.237159337137967 -31.018723689072729 15.40400023234746 #
straight-curve $-1 67.237159337137967 -31.018723689072729 0 0 0 -1 I I #
straight-curve $-1 67.237159337137967 31.018723689072729 0 0 0 -1 I I #
plane-surface $-1 0 0 15.40400023234746 0 0 1 1 0 0 forward_v I I I I #
coedge $-1 $324 $428 $417 $468 forward $317 $-1 #
coedge $-1 $320 $319 $416 $468 reversed $135 $-1 #
edge $-1 $424 -3.9921027122736703 $422 3.9921027122736703 $319 $469 forward 7 unknown #
coedge $-1 $332 $331 $320 $420 forward $333 $-1 #
edge $-1 $421 -3.9921027122736703 $470 3.9921027122736703 $320 $471 forward 7 unknown #
vertex $-1 $336 $472 #
vertex $-1 $326 $473 #
straight-curve $-1 -48.104373236403276 -45.019068659304409 0 0 0 -1 I I #
vertex $-1 $468 $474 #
straight-curve $-1 -40.120167811855936 -38.018896174188569 -15.40400023234746 0 -1 0 I I #
straight-curve $-1 -48.104373236403276 -38.018896174188569 -15.40400023234746 0 1 0 I I #
point $-1 -40.120167811855936 -31.018723689072729 -15.40400023234746 #
coedge $-1 $416 $329 $332 $430 reversed $317 $-1 #
straight-curve $-1 -40.120167811855936 -31.018723689072729 0 0 0 -1 I I #
edge $-1 $470 -7.00017248511584 $334 7.00017248511584 $428 $475 forward 7 unknown #
point $-1 -40.120167811855936 -31.018723689072729 15.40400023234746 #
straight-curve $-1 -48.104373236403276 -38.018896174188569 15.40400023234746 0 -1 0 I I #
edge $-1 $434 28.14915202752233 $437 35.488867554229998 $340 $476 forward 7 unknown #
vertex $-1 $354 $477 #
straight-curve $-1 -88.014584776063259 -2.9311473229636391 15.404000232347464 -1 0 0 I I #
edge $-1 $437 -0.60290230663343891 $351 7.671001565827595 $350 $478 forward 7 unknown #
vertex $-1 $436 $479 #
straight-curve $-1 -67.237159337137996 -2.9311473229636391 8.06428470563975 0.5877852410284794 0 0.80901700255871778 I I #
point $-1 -61.904544019658012 -2.9311473229636391 15.40400023234746 #
point $-1 -67.237159337137967 -11.205051195424673 8.0642847056397891 #
straight-curve $-1 -67.237159337137967 0 15.40400023234746 0 -1 0 I I #
vertex $-1 $357 $480 #
point $-1 -63.467942055325025 -9.5502704209324669 11.550865729244487 #
vertex $-1 $361 $481 #
point $-1 -63.467942055325025 -7.068099259194156 11.550865729244487 #
vertex $-1 $365 $482 #
point $-1 -63.467942055325025 -4.5859280974558452 11.550865729244487 #
coedge $-1 $380 $379 $372 $449 forward $369 $-1 #
edge $-1 $450 28.14915202752233 $453 35.488867554229998 $448 $483 forward 7 unknown #
vertex $-1 $384 $484 #
straight-curve $-1 -88.014584776063259 21.08740388099325 15.404000232347464 -1 0 0 I I #
edge $-1 $453 -12.612177908611883 $381 -4.3382740361508496 $380 $485 forward 7 unknown #
vertex $-1 $452 $486 #
straight-curve $-1 -67.237159337137996 21.08740388099325 8.06428470563975 0.5877852410284794 0 0.80901700255871778 I I #
point $-1 -61.904544019658012 21.08740388099325 15.40400023234746 #
point $-1 -67.237159337137967 12.813500008532216 8.0642847056397891 #
straight-curve $-1 -67.237159337137967 0 15.40400023234746 0 -1 0 I I #
vertex $-1 $387 $487 #
point $-1 -63.467942055325025 14.468280783024426 11.550865729244487 #
vertex $-1 $391 $488 #
point $-1 -63.467942055325025 16.950451944762733 11.550865729244487 #
vertex $-1 $395 $489 #
point $-1 -63.467942055325025 19.43262310650104 11.550865729244487 #
straight-curve $-1 -67.237159337137967 31.018723689072729 0 0 0 -1 I I #
point $-1 -67.237159337137967 -31.018723689072729 -15.40400023234746 #
straight-curve $-1 -67.237159337137967 0 -15.40400023234746 0 1 0 I I #
point $-1 -67.237159337137967 31.018723689072729 -15.40400023234746 #
edge $-1 $470 -15.40400023234746 $424 15.40400023234746 $416 $490 forward 7 unknown #
straight-curve $-1 -44.112270524129606 -45.019068659304409 -15.40400023234746 -1 0 0 I I #
vertex $-1 $430 $491 #
straight-curve $-1 -44.112270524129606 -45.019068659304409 15.40400023234746 1 0 0 I I #
point $-1 -48.104373236403276 -45.019068659304409 15.40400023234746 #
point $-1 -48.104373236403276 -45.019068659304409 -15.40400023234746 #
point $-1 -40.120167811855936 -45.019068659304409 -15.40400023234746 #
straight-curve $-1 -40.120167811855936 -38.018896174188569 15.40400023234746 0 1 0 I I #
straight-curve $-1 -67.237159337137967 -2.9311473229636391 43.55315225986979 0 0 -1 I I #
point $-1 -67.237159337137967 -2.9311473229636391 15.40400023234746 #
straight-curve $-1 -67.237159337137967 -3.534049629597078 8.0642847056397802 0 -1 0 I I #
point $-1 -67.237159337137967 -2.9311473229636391 8.0642847056397891 #
point $-1 -63.357326174559908 -9.5502704209324669 10.852464607450889 #
point $-1 -63.357326174559908 -7.068099259194156 10.852464607450889 #
point $-1 -63.357326174559908 -4.5859280974558452 10.852464607450889 #
straight-curve $-1 -67.237159337137967 21.08740388099325 43.55315225986979 0 0 -1 I I #
point $-1 -67.237159337137967 21.08740388099325 15.40400023234746 #
straight-curve $-1 -67.237159337137967 8.4752259723813665 8.0642847056397802 0 -1 0 I I #
point $-1 -67.237159337137967 21.08740388099325 8.0642847056397891 #
point $-1 -63.357326174559908 14.468280783024426 10.852464607450889 #
point $-1 -63.357326174559908 16.950451944762733 10.852464607450889 #
point $-1 -63.357326174559908 19.43262310650104 10.852464607450889 #
straight-curve $-1 -40.120167811855936 -45.019068659304409 0 0 0 -1 I I #
point $-1 -40.120167811855936 -45.019068659304409 15.40400023234746 #
End-of-ACIS-data 