500 0 18 0           
7 Unknown 11 ACIS 5.0 NT 24 Thu Mar 25 21:51:32 1999 
-1 9.9999999999999995e-007 1e-010 
body $-1 $18 $-1 $19 #
body $-1 $20 $-1 $21 #
body $-1 $22 $-1 $23 #
body $-1 $24 $-1 $25 #
body $-1 $26 $-1 $27 #
body $-1 $28 $-1 $29 #
body $-1 $30 $-1 $31 #
body $-1 $32 $-1 $33 #
body $-1 $34 $-1 $35 #
body $-1 $36 $-1 $37 #
body $-1 $38 $-1 $39 #
body $-1 $40 $-1 $41 #
body $-1 $42 $-1 $43 #
body $-1 $44 $-1 $45 #
body $-1 $46 $-1 $47 #
body $-1 $48 $-1 $49 #
body $-1 $50 $-1 $51 #
body $-1 $52 $-1 $53 #
lump $-1 $-1 $54 $0 #
transform $-1 1 0 0 0 1 0 0 0 1 75.269631031220428 46.591274495398672 21.9741268709171 1 rotate no_reflect no_shear #
lump $-1 $-1 $55 $1 #
transform $-1 1 0 0 0 1 0 0 0 1 75.269631031220428 46.591274495398672 21.9741268709171 1 rotate no_reflect no_shear #
lump $-1 $-1 $56 $2 #
transform $-1 1 0 0 0 1 0 0 0 1 75.269631031220428 46.591274495398672 21.9741268709171 1 rotate no_reflect no_shear #
lump $-1 $-1 $57 $3 #
transform $-1 1 0 0 0 1 0 0 0 1 75.269631031220428 46.591274495398672 21.9741268709171 1 rotate no_reflect no_shear #
lump $-1 $-1 $58 $4 #
transform $-1 1 0 0 0 1 0 0 0 1 75.269631031220428 46.591274495398672 21.9741268709171 1 rotate no_reflect no_shear #
lump $-1 $-1 $59 $5 #
transform $-1 1 0 0 0 1 0 0 0 1 75.269631031220428 46.591274495398672 21.9741268709171 1 rotate no_reflect no_shear #
lump $-1 $-1 $60 $6 #
transform $-1 1 0 0 0 1 0 0 0 1 75.269631031220428 46.591274495398672 21.9741268709171 1 rotate no_reflect no_shear #
lump $-1 $-1 $61 $7 #
transform $-1 1 0 0 0 1 0 0 0 1 75.269631031220428 46.591274495398672 21.9741268709171 1 rotate no_reflect no_shear #
lump $-1 $-1 $62 $8 #
transform $-1 1 0 0 0 1 0 0 0 1 75.269631031220428 46.591274495398672 21.9741268709171 1 rotate no_reflect no_shear #
lump $-1 $-1 $63 $9 #
transform $-1 1 0 0 0 1 0 0 0 1 75.269631031220428 46.591274495398672 21.9741268709171 1 rotate no_reflect no_shear #
lump $-1 $-1 $64 $10 #
transform $-1 1 0 0 0 1 0 0 0 1 75.269631031220428 46.591274495398672 21.9741268709171 1 rotate no_reflect no_shear #
lump $-1 $-1 $65 $11 #
transform $-1 1 0 0 0 1 0 0 0 1 75.269631031220428 46.591274495398672 21.9741268709171 1 rotate no_reflect no_shear #
lump $-1 $-1 $66 $12 #
transform $-1 1 0 0 0 1 0 0 0 1 75.269631031220428 46.591274495398672 21.9741268709171 1 rotate no_reflect no_shear #
lump $-1 $-1 $67 $13 #
transform $-1 1 0 0 0 1 0 0 0 1 75.269631031220428 46.591274495398672 21.9741268709171 1 rotate no_reflect no_shear #
lump $-1 $-1 $68 $14 #
transform $-1 1 0 0 0 1 0 0 0 1 75.269631031220428 46.591274495398672 21.9741268709171 1 rotate no_reflect no_shear #
lump $-1 $-1 $69 $15 #
transform $-1 1 0 0 0 1 0 0 0 1 75.269631031220428 46.591274495398672 21.9741268709171 1 rotate no_reflect no_shear #
lump $-1 $-1 $70 $16 #
transform $-1 1 0 0 0 1 0 0 0 1 75.269631031220428 46.591274495398672 21.9741268709171 1 rotate no_reflect no_shear #
lump $-1 $-1 $71 $17 #
transform $-1 1 0 0 0 1 0 0 0 1 75.269631031220428 46.591274495398672 21.9741268709171 1 rotate no_reflect no_shear #
shell $-1 $-1 $-1 $72 $-1 $18 #
shell $-1 $-1 $-1 $73 $-1 $20 #
shell $-1 $-1 $-1 $74 $-1 $22 #
shell $-1 $-1 $-1 $75 $-1 $24 #
shell $-1 $-1 $-1 $76 $-1 $26 #
shell $-1 $-1 $-1 $77 $-1 $28 #
shell $-1 $-1 $-1 $78 $-1 $30 #
shell $-1 $-1 $-1 $79 $-1 $32 #
shell $-1 $-1 $-1 $80 $-1 $34 #
shell $-1 $-1 $-1 $81 $-1 $36 #
shell $-1 $-1 $-1 $82 $-1 $38 #
shell $-1 $-1 $-1 $83 $-1 $40 #
shell $-1 $-1 $-1 $84 $-1 $42 #
shell $-1 $-1 $-1 $85 $-1 $44 #
shell $-1 $-1 $-1 $86 $-1 $46 #
shell $-1 $-1 $-1 $87 $-1 $48 #
shell $-1 $-1 $-1 $88 $-1 $50 #
shell $-1 $-1 $-1 $89 $-1 $52 #
face $-1 $90 $91 $54 $-1 $92 forward single #
face $-1 $93 $94 $55 $-1 $95 reversed single #
face $-1 $96 $97 $56 $-1 $98 reversed single #
face $-1 $99 $100 $57 $-1 $101 forward single #
face $-1 $102 $103 $58 $-1 $104 forward single #
face $-1 $105 $106 $59 $-1 $107 forward single #
face $-1 $108 $109 $60 $-1 $110 reversed single #
face $-1 $111 $112 $61 $-1 $113 forward single #
face $-1 $114 $115 $62 $-1 $116 forward single #
face $-1 $117 $118 $63 $-1 $119 forward single #
face $-1 $120 $121 $64 $-1 $122 reversed single #
face $-1 $123 $124 $65 $-1 $125 forward single #
face $-1 $126 $127 $66 $-1 $128 forward single #
face $-1 $129 $130 $67 $-1 $131 forward single #
face $-1 $132 $133 $68 $-1 $134 reversed single #
face $-1 $135 $136 $69 $-1 $137 forward single #
face $-1 $138 $139 $70 $-1 $140 forward single #
face $-1 $141 $142 $71 $-1 $143 forward single #
face $-1 $144 $145 $54 $-1 $146 reversed single #
loop $-1 $-1 $147 $72 #
plane-surface $-1 0 0 21.9741268709171 0 0 1 1 0 0 forward_v I I I I #
face $-1 $148 $149 $55 $-1 $150 reversed single #
loop $-1 $-1 $151 $73 #
plane-surface $-1 -62.162027804059221 0 9.8755147648892283 0 0 1 1 0 0 forward_v I I I I #
face $-1 $152 $153 $56 $-1 $154 reversed single #
loop $-1 $-1 $155 $74 #
plane-surface $-1 -23.899456612531335 47.341647679823957 185.75343498876495 1 0 0 0 -0.52991927123019833 -0.84804809178421925 forward_v I I I I #
face $-1 $156 $157 $57 $-1 $158 forward single #
loop $-1 $159 $160 $75 #
cone-surface $-1 -19.523699086614073 33.909583200958778 12.032552976172058 0 -0.52991927123019833 -0.84804809178421925 2 0 0 1 I I 0 1 2 forward I I I I #
face $-1 $161 $162 $58 $-1 $163 forward single #
loop $-1 $164 $165 $76 #
cone-surface $-1 -12.960062797738182 33.909583200958778 12.032552976172058 0 -0.52991927123019833 -0.84804809178421925 2 0 0 1 I I 0 1 2 forward I I I I #
face $-1 $166 $167 $59 $-1 $168 forward single #
loop $-1 $169 $170 $77 #
cone-surface $-1 -6.3964265088622909 33.909583200958778 12.032552976172058 0 -0.52991927123019833 -0.84804809178421925 2 0 0 1 I I 0 1 2 forward I I I I #
face $-1 $171 $172 $60 $-1 $173 reversed single #
loop $-1 $-1 $174 $78 #
plane-surface $-1 38.262571191527897 47.341647679823957 185.75343498876495 1 0 0 0 -0.52991927123019833 -0.84804809178421925 forward_v I I I I #
face $-1 $175 $176 $61 $-1 $177 forward single #
loop $-1 $178 $179 $79 #
cone-surface $-1 42.638328717445148 33.909583200958778 12.032552976172058 0 -0.52991927123019833 -0.84804809178421925 2 0 0 1 I I 0 1 2 forward I I I I #
face $-1 $180 $181 $62 $-1 $182 forward single #
loop $-1 $183 $184 $80 #
cone-surface $-1 49.201965006321046 33.909583200958778 12.032552976172058 0 -0.52991927123019833 -0.84804809178421925 2 0 0 1 I I 0 1 2 forward I I I I #
face $-1 $185 $186 $63 $-1 $187 forward single #
loop $-1 $188 $189 $81 #
cone-surface $-1 55.765601295196944 33.909583200958778 12.032552976172058 0 -0.52991927123019833 -0.84804809178421925 2 0 0 1 I I 0 1 2 forward I I I I #
face $-1 $190 $191 $64 $-1 $192 reversed single #
loop $-1 $-1 $193 $82 #
plane-surface $-1 -2.0206689829450433 -126.36493053905915 136.37420653618938 -1 0 0 0 -0.52991927123019833 0.84804809178421925 forward_v I I I I #
face $-1 $194 $195 $65 $-1 $196 forward single #
loop $-1 $197 $198 $83 #
cone-surface $-1 -19.523699086614073 -33.909583200958771 12.032552976172051 0 0.52991927123019833 -0.84804809178421925 2 0 0 1 I I 0 1 2 forward I I I I #
face $-1 $199 $200 $66 $-1 $201 forward single #
loop $-1 $202 $203 $84 #
cone-surface $-1 -12.960062797738182 -33.909583200958771 12.032552976172051 0 0.52991927123019833 -0.84804809178421925 2 0 0 1 I I 0 1 2 forward I I I I #
face $-1 $204 $205 $67 $-1 $206 forward single #
loop $-1 $207 $208 $85 #
cone-surface $-1 -6.3964265088622909 -33.909583200958771 12.032552976172051 0 0.52991927123019833 -0.84804809178421925 2 0 0 1 I I 0 1 2 forward I I I I #
face $-1 $209 $210 $68 $-1 $211 reversed single #
loop $-1 $-1 $212 $86 #
plane-surface $-1 60.141358821114196 -126.36493053905915 136.37420653618938 -1 0 0 0 -0.52991927123019833 0.84804809178421925 forward_v I I I I #
face $-1 $213 $214 $69 $-1 $215 forward single #
loop $-1 $216 $217 $87 #
cone-surface $-1 42.638328717445148 -33.909583200958771 12.032552976172051 0 0.52991927123019833 -0.84804809178421925 2 0 0 1 I I 0 1 2 forward I I I I #
face $-1 $218 $219 $70 $-1 $220 forward single #
loop $-1 $221 $222 $88 #
cone-surface $-1 49.201965006321046 -33.909583200958771 12.032552976172051 0 0.52991927123019833 -0.84804809178421925 2 0 0 1 I I 0 1 2 forward I I I I #
face $-1 $223 $224 $71 $-1 $225 forward single #
loop $-1 $226 $227 $89 #
cone-surface $-1 55.765601295196944 -33.909583200958771 12.032552976172051 0 0.52991927123019833 -0.84804809178421925 2 0 0 1 I I 0 1 2 forward I I I I #
face $-1 $228 $229 $54 $-1 $230 reversed single #
loop $-1 $-1 $231 $90 #
plane-surface $-1 0 0 -21.9741268709171 0 0 1 1 0 0 forward_v I I I I #
coedge $-1 $232 $233 $234 $235 forward $91 $-1 #
face $-1 $236 $237 $55 $-1 $238 reversed single #
loop $-1 $-1 $239 $93 #
plane-surface $-1 -49.054424576898015 0 15.924820817903164 -1 0 0 0 0 1 forward_v I I I I #
coedge $-1 $240 $241 $242 $243 forward $94 $-1 #
face $-1 $244 $245 $56 $-1 $246 reversed single #
loop $-1 $-1 $247 $96 #
plane-surface $-1 -12.960062797738189 -32.432008363836538 58.088901058107467 0 0.52991927123019833 0.84804809178421925 1 0 0 forward_v I I I I #
coedge $-1 $248 $249 $250 $251 reversed $97 $-1 #
face $-1 $-1 $252 $57 $-1 $253 forward single #
loop $-1 $254 $255 $99 #
cone-surface $-1 -19.523699086614073 31.311754525315855 7.8751581223353853 0 -0.52991927123019833 -0.84804809178421925 1 0 0 1 I I -0.70710678118654746 0.70710678118654746 1 forward I I I I #
loop $-1 $-1 $256 $75 #
coedge $-1 $160 $160 $257 $258 reversed $100 $-1 #
face $-1 $-1 $259 $58 $-1 $260 forward single #
loop $-1 $261 $262 $102 #
cone-surface $-1 -12.960062797738182 31.311754525315855 7.8751581223353853 0 -0.52991927123019833 -0.84804809178421925 1 0 0 1 I I -0.70710678118654746 0.70710678118654746 1 forward I I I I #
loop $-1 $-1 $263 $76 #
coedge $-1 $165 $165 $264 $265 reversed $103 $-1 #
face $-1 $-1 $266 $59 $-1 $267 forward single #
loop $-1 $268 $269 $105 #
cone-surface $-1 -6.3964265088622909 31.311754525315855 7.8751581223353853 0 -0.52991927123019833 -0.84804809178421925 1 0 0 1 I I -0.70710678118654746 0.70710678118654746 1 forward I I I I #
loop $-1 $-1 $270 $77 #
coedge $-1 $170 $170 $271 $272 reversed $106 $-1 #
face $-1 $273 $274 $60 $-1 $275 reversed single #
loop $-1 $-1 $276 $108 #
plane-surface $-1 49.201965006321046 -32.432008363836538 58.088901058107467 0 0.52991927123019833 0.84804809178421925 1 0 0 forward_v I I I I #
coedge $-1 $277 $278 $279 $280 reversed $109 $-1 #
face $-1 $-1 $281 $61 $-1 $282 forward single #
loop $-1 $283 $284 $111 #
cone-surface $-1 42.638328717445148 31.311754525315855 7.8751581223353853 0 -0.52991927123019833 -0.84804809178421925 1 0 0 1 I I -0.70710678118654746 0.70710678118654746 1 forward I I I I #
loop $-1 $-1 $285 $79 #
coedge $-1 $179 $179 $286 $287 reversed $112 $-1 #
face $-1 $-1 $288 $62 $-1 $289 forward single #
loop $-1 $290 $291 $114 #
cone-surface $-1 49.201965006321046 31.311754525315855 7.8751581223353853 0 -0.52991927123019833 -0.84804809178421925 1 0 0 1 I I -0.70710678118654746 0.70710678118654746 1 forward I I I I #
loop $-1 $-1 $292 $80 #
coedge $-1 $184 $184 $293 $294 reversed $115 $-1 #
face $-1 $-1 $295 $63 $-1 $296 forward single #
loop $-1 $297 $298 $117 #
cone-surface $-1 55.765601295196944 31.311754525315855 7.8751581223353853 0 -0.52991927123019833 -0.84804809178421925 1 0 0 1 I I -0.70710678118654746 0.70710678118654746 1 forward I I I I #
loop $-1 $-1 $299 $81 #
coedge $-1 $189 $189 $300 $301 reversed $118 $-1 #
face $-1 $302 $303 $64 $-1 $304 reversed single #
loop $-1 $-1 $305 $120 #
plane-surface $-1 -12.960062797738189 -46.59127449539865 8.7096726055318925 0 -0.52991927123019833 0.84804809178421925 1 0 0 forward_v I I I I #
coedge $-1 $306 $307 $308 $309 reversed $121 $-1 #
face $-1 $-1 $310 $65 $-1 $311 forward single #
loop $-1 $312 $313 $123 #
cone-surface $-1 -19.523699086614073 -31.311754525315848 7.8751581223353782 0 0.52991927123019833 -0.84804809178421925 1 0 0 1 I I -0.70710678118654746 0.70710678118654746 1 forward I I I I #
loop $-1 $-1 $314 $83 #
coedge $-1 $198 $198 $315 $316 reversed $124 $-1 #
face $-1 $-1 $317 $66 $-1 $318 forward single #
loop $-1 $319 $320 $126 #
cone-surface $-1 -12.960062797738182 -31.311754525315848 7.8751581223353782 0 0.52991927123019833 -0.84804809178421925 1 0 0 1 I I -0.70710678118654746 0.70710678118654746 1 forward I I I I #
loop $-1 $-1 $321 $84 #
coedge $-1 $203 $203 $322 $323 reversed $127 $-1 #
face $-1 $-1 $324 $67 $-1 $325 forward single #
loop $-1 $326 $327 $129 #
cone-surface $-1 -6.3964265088622909 -31.311754525315848 7.8751581223353782 0 0.52991927123019833 -0.84804809178421925 1 0 0 1 I I -0.70710678118654746 0.70710678118654746 1 forward I I I I #
loop $-1 $-1 $328 $85 #
coedge $-1 $208 $208 $329 $330 reversed $130 $-1 #
face $-1 $331 $332 $68 $-1 $333 reversed single #
loop $-1 $-1 $334 $132 #
plane-surface $-1 49.201965006321046 -46.59127449539865 8.7096726055318925 0 -0.52991927123019833 0.84804809178421925 1 0 0 forward_v I I I I #
coedge $-1 $335 $336 $337 $338 reversed $133 $-1 #
face $-1 $-1 $339 $69 $-1 $340 forward single #
loop $-1 $341 $342 $135 #
cone-surface $-1 42.638328717445148 -31.311754525315848 7.8751581223353782 0 0.52991927123019833 -0.84804809178421925 1 0 0 1 I I -0.70710678118654746 0.70710678118654746 1 forward I I I I #
loop $-1 $-1 $343 $87 #
coedge $-1 $217 $217 $344 $345 reversed $136 $-1 #
face $-1 $-1 $346 $70 $-1 $347 forward single #
loop $-1 $348 $349 $138 #
cone-surface $-1 49.201965006321046 -31.311754525315848 7.8751581223353782 0 0.52991927123019833 -0.84804809178421925 1 0 0 1 I I -0.70710678118654746 0.70710678118654746 1 forward I I I I #
loop $-1 $-1 $350 $88 #
coedge $-1 $222 $222 $351 $352 reversed $139 $-1 #
face $-1 $-1 $353 $71 $-1 $354 forward single #
loop $-1 $355 $356 $141 #
cone-surface $-1 55.765601295196944 -31.311754525315848 7.8751581223353782 0 0.52991927123019833 -0.84804809178421925 1 0 0 1 I I -0.70710678118654746 0.70710678118654746 1 forward I I I I #
loop $-1 $-1 $357 $89 #
coedge $-1 $227 $227 $358 $359 reversed $142 $-1 #
face $-1 $360 $361 $54 $-1 $362 reversed single #
loop $-1 $-1 $363 $144 #
plane-surface $-1 0 -46.591274495398672 0 0 1 0 0 0 1 forward_v I I I I #
coedge $-1 $364 $365 $366 $367 forward $145 $-1 #
coedge $-1 $368 $147 $369 $370 forward $91 $-1 #
coedge $-1 $147 $368 $371 $372 forward $91 $-1 #
coedge $-1 $373 $374 $147 $235 reversed $375 $-1 #
edge $-1 $376 -46.591274495398672 $377 46.591274495398672 $234 $378 forward 7 unknown #
face $-1 $379 $380 $55 $-1 $381 reversed single #
loop $-1 $-1 $382 $148 #
plane-surface $-1 0 46.591274495398672 0 0 -1 0 0 0 -1 forward_v I I I I #
coedge $-1 $242 $383 $384 $385 reversed $149 $-1 #
coedge $-1 $386 $151 $387 $388 reversed $94 $-1 #
coedge $-1 $151 $386 $389 $390 reversed $94 $-1 #
coedge $-1 $391 $239 $151 $243 reversed $149 $-1 #
edge $-1 $392 -46.591274495398672 $393 46.591274495398672 $242 $394 forward 7 unknown #
face $-1 $395 $396 $56 $-1 $397 forward single #
loop $-1 $-1 $398 $152 #
plane-surface $-1 -2.0206689829450433 47.341647679823957 185.75343498876495 -1 0 0 0 0.52991927123019833 0.84804809178421925 forward_v I I I I #
coedge $-1 $399 $400 $401 $402 reversed $153 $-1 #
coedge $-1 $249 $155 $403 $404 reversed $97 $-1 #
coedge $-1 $155 $248 $399 $405 reversed $97 $-1 #
coedge $-1 $401 $406 $155 $251 forward $396 $-1 #
edge $-1 $407 -22.920450655486693 $408 -1.6928868754322899 $250 $409 forward 7 unknown #
loop $-1 $-1 $257 $156 #
plane-surface $-1 -12.960062797738189 -32.432008363836538 58.088901058107467 0 0.52991927123019833 0.84804809178421925 1 0 0 forward_v I I I I #
loop $-1 $-1 $410 $99 #
coedge $-1 $255 $255 $256 $411 reversed $157 $-1 #
coedge $-1 $256 $256 $255 $411 forward $159 $-1 #
coedge $-1 $257 $257 $160 $258 forward $252 $-1 #
edge $-1 $412 -1.5048616623131562e-015 $412 6.2831853071795987 $257 $413 forward 7 unknown #
loop $-1 $-1 $264 $161 #
plane-surface $-1 -12.960062797738189 -32.432008363836538 58.088901058107467 0 0.52991927123019833 0.84804809178421925 1 0 0 forward_v I I I I #
loop $-1 $-1 $414 $102 #
coedge $-1 $262 $262 $263 $415 reversed $162 $-1 #
coedge $-1 $263 $263 $262 $415 forward $164 $-1 #
coedge $-1 $264 $264 $165 $265 forward $259 $-1 #
edge $-1 $416 -1.5048616623131562e-015 $416 6.2831853071795987 $264 $417 forward 7 unknown #
loop $-1 $-1 $271 $166 #
plane-surface $-1 -12.960062797738189 -32.432008363836538 58.088901058107467 0 0.52991927123019833 0.84804809178421925 1 0 0 forward_v I I I I #
loop $-1 $-1 $418 $105 #
coedge $-1 $269 $269 $270 $419 reversed $167 $-1 #
coedge $-1 $270 $270 $269 $419 forward $169 $-1 #
coedge $-1 $271 $271 $170 $272 forward $266 $-1 #
edge $-1 $420 -1.5048616623131562e-015 $420 6.2831853071795987 $271 $421 forward 7 unknown #
face $-1 $422 $423 $60 $-1 $424 forward single #
loop $-1 $-1 $425 $171 #
plane-surface $-1 60.141358821114196 47.341647679823957 185.75343498876495 -1 0 0 0 0.52991927123019833 0.84804809178421925 forward_v I I I I #
coedge $-1 $426 $427 $428 $429 reversed $172 $-1 #
coedge $-1 $278 $174 $430 $431 reversed $109 $-1 #
coedge $-1 $174 $277 $426 $432 reversed $109 $-1 #
coedge $-1 $428 $433 $174 $280 forward $423 $-1 #
edge $-1 $434 -22.920450655486693 $435 -1.6928868754322899 $279 $436 forward 7 unknown #
loop $-1 $-1 $286 $175 #
plane-surface $-1 49.201965006321046 -32.432008363836538 58.088901058107467 0 0.52991927123019833 0.84804809178421925 1 0 0 forward_v I I I I #
loop $-1 $-1 $437 $111 #
coedge $-1 $284 $284 $285 $438 reversed $176 $-1 #
coedge $-1 $285 $285 $284 $438 forward $178 $-1 #
coedge $-1 $286 $286 $179 $287 forward $281 $-1 #
edge $-1 $439 -1.5048616623131562e-015 $439 6.2831853071795987 $286 $440 forward 7 unknown #
loop $-1 $-1 $293 $180 #
plane-surface $-1 49.201965006321046 -32.432008363836538 58.088901058107467 0 0.52991927123019833 0.84804809178421925 1 0 0 forward_v I I I I #
loop $-1 $-1 $441 $114 #
coedge $-1 $291 $291 $292 $442 reversed $181 $-1 #
coedge $-1 $292 $292 $291 $442 forward $183 $-1 #
coedge $-1 $293 $293 $184 $294 forward $288 $-1 #
edge $-1 $443 -1.5048616623131562e-015 $443 6.2831853071795987 $293 $444 forward 7 unknown #
loop $-1 $-1 $300 $185 #
plane-surface $-1 49.201965006321046 -32.432008363836538 58.088901058107467 0 0.52991927123019833 0.84804809178421925 1 0 0 forward_v I I I I #
loop $-1 $-1 $445 $117 #
coedge $-1 $298 $298 $299 $446 reversed $186 $-1 #
coedge $-1 $299 $299 $298 $446 forward $188 $-1 #
coedge $-1 $300 $300 $189 $301 forward $295 $-1 #
edge $-1 $447 -1.5048616623131562e-015 $447 6.2831853071795987 $300 $448 forward 7 unknown #
face $-1 $449 $450 $64 $-1 $451 reversed single #
loop $-1 $-1 $452 $190 #
plane-surface $-1 -23.899456612531335 -126.36493053905915 136.37420653618938 1 0 0 0 0.52991927123019833 -0.84804809178421925 forward_v I I I I #
coedge $-1 $453 $454 $455 $456 reversed $191 $-1 #
coedge $-1 $307 $193 $457 $458 reversed $121 $-1 #
coedge $-1 $193 $306 $453 $459 reversed $121 $-1 #
coedge $-1 $455 $460 $193 $309 forward $461 $-1 #
edge $-1 $462 16.591190774130901 $463 37.818754554185304 $308 $464 forward 7 unknown #
loop $-1 $-1 $315 $194 #
plane-surface $-1 -12.960062797738189 -46.59127449539865 8.7096726055318925 0 -0.52991927123019833 0.84804809178421925 1 0 0 forward_v I I I I #
loop $-1 $-1 $465 $123 #
coedge $-1 $313 $313 $314 $466 reversed $195 $-1 #
coedge $-1 $314 $314 $313 $466 forward $197 $-1 #
coedge $-1 $315 $315 $198 $316 forward $310 $-1 #
edge $-1 $467 9.2873079643517867e-017 $467 6.2831853071796004 $315 $468 forward 7 unknown #
loop $-1 $-1 $322 $199 #
plane-surface $-1 -12.960062797738189 -46.59127449539865 8.7096726055318925 0 -0.52991927123019833 0.84804809178421925 1 0 0 forward_v I I I I #
loop $-1 $-1 $469 $126 #
coedge $-1 $320 $320 $321 $470 reversed $200 $-1 #
coedge $-1 $321 $321 $320 $470 forward $202 $-1 #
coedge $-1 $322 $322 $203 $323 forward $317 $-1 #
edge $-1 $471 9.2873079643517867e-017 $471 6.2831853071796004 $322 $472 forward 7 unknown #
loop $-1 $-1 $329 $204 #
plane-surface $-1 -12.960062797738189 -46.59127449539865 8.7096726055318925 0 -0.52991927123019833 0.84804809178421925 1 0 0 forward_v I I I I #
loop $-1 $-1 $473 $129 #
coedge $-1 $327 $327 $328 $474 reversed $205 $-1 #
coedge $-1 $328 $328 $327 $474 forward $207 $-1 #
coedge $-1 $329 $329 $208 $330 forward $324 $-1 #
edge $-1 $475 9.2873079643517867e-017 $475 6.2831853071796004 $329 $476 forward 7 unknown #
face $-1 $477 $478 $68 $-1 $479 reversed single #
loop $-1 $-1 $480 $209 #
plane-surface $-1 38.262571191527897 -126.36493053905915 136.37420653618938 1 0 0 0 0.52991927123019833 -0.84804809178421925 forward_v I I I I #
coedge $-1 $481 $482 $483 $484 reversed $210 $-1 #
coedge $-1 $336 $212 $485 $486 reversed $133 $-1 #
coedge $-1 $212 $335 $481 $487 reversed $133 $-1 #
coedge $-1 $483 $488 $212 $338 forward $489 $-1 #
edge $-1 $490 16.591190774130901 $491 37.818754554185304 $337 $492 forward 7 unknown #
loop $-1 $-1 $344 $213 #
plane-surface $-1 49.201965006321046 -46.59127449539865 8.7096726055318925 0 -0.52991927123019833 0.84804809178421925 1 0 0 forward_v I I I I #
loop $-1 $-1 $493 $135 #
coedge $-1 $342 $342 $343 $494 reversed $214 $-1 #
coedge $-1 $343 $343 $342 $494 forward $216 $-1 #
coedge $-1 $344 $344 $217 $345 forward $339 $-1 #
edge $-1 $495 9.2873079643517867e-017 $495 6.2831853071796004 $344 $496 forward 7 unknown #
loop $-1 $-1 $351 $218 #
plane-surface $-1 49.201965006321046 -46.59127449539865 8.7096726055318925 0 -0.52991927123019833 0.84804809178421925 1 0 0 forward_v I I I I #
loop $-1 $-1 $497 $138 #
coedge $-1 $349 $349 $350 $498 reversed $219 $-1 #
coedge $-1 $350 $350 $349 $498 forward $221 $-1 #
coedge $-1 $351 $351 $222 $352 forward $346 $-1 #
edge $-1 $499 9.2873079643517867e-017 $499 6.2831853071796004 $351 $500 forward 7 unknown #
loop $-1 $-1 $358 $223 #
plane-surface $-1 49.201965006321046 -46.59127449539865 8.7096726055318925 0 -0.52991927123019833 0.84804809178421925 1 0 0 forward_v I I I I #
loop $-1 $-1 $501 $141 #
coedge $-1 $356 $356 $357 $502 reversed $224 $-1 #
coedge $-1 $357 $357 $356 $502 forward $226 $-1 #
coedge $-1 $358 $358 $227 $359 forward $353 $-1 #
edge $-1 $503 9.2873079643517867e-017 $503 6.2831853071796004 $358 $504 forward 7 unknown #
face $-1 $505 $506 $54 $-1 $507 reversed single #
loop $-1 $-1 $508 $228 #
plane-surface $-1 -75.269631031220428 0 0 1 0 0 0 0 -1 forward_v I I I I #
coedge $-1 $509 $371 $510 $511 forward $229 $-1 #
coedge $-1 $512 $231 $509 $513 forward $145 $-1 #
coedge $-1 $231 $512 $514 $515 forward $145 $-1 #
coedge $-1 $374 $373 $231 $367 reversed $375 $-1 #
edge $-1 $516 -46.591274495398672 $517 46.591274495398672 $366 $518 forward 7 unknown #
coedge $-1 $233 $232 $519 $520 forward $91 $-1 #
coedge $-1 $521 $522 $232 $370 reversed $506 $-1 #
edge $-1 $377 -75.269631031220428 $523 75.269631031220428 $369 $524 forward 7 unknown #
coedge $-1 $363 $525 $233 $372 reversed $229 $-1 #
edge $-1 $526 -75.269631031220428 $376 75.269631031220428 $371 $527 forward 7 unknown #
coedge $-1 $366 $234 $525 $528 forward $375 $-1 #
coedge $-1 $234 $366 $521 $529 reversed $375 $-1 #
loop $-1 $-1 $373 $505 #
vertex $-1 $235 $530 #
vertex $-1 $235 $531 #
straight-curve $-1 75.269631031220428 0 21.9741268709171 0 1 0 I I #
face $-1 $532 $533 $55 $-1 $534 forward single #
loop $-1 $-1 $535 $236 #
plane-surface $-1 -75.269631031220428 0 0 1 0 0 0 0 -1 forward_v I I I I #
coedge $-1 $389 $536 $391 $537 forward $237 $-1 #
coedge $-1 $239 $391 $538 $539 reversed $149 $-1 #
coedge $-1 $540 $387 $239 $385 forward $541 $-1 #
edge $-1 $393 1.9131043559376462 $542 14.011716461965518 $384 $543 forward 7 unknown #
coedge $-1 $241 $240 $535 $544 reversed $94 $-1 #
coedge $-1 $384 $545 $240 $388 forward $541 $-1 #
edge $-1 $546 -44.188617129190817 $393 -17.973410674868404 $387 $547 forward 7 unknown #
coedge $-1 $548 $382 $241 $390 forward $237 $-1 #
edge $-1 $392 17.973410674868404 $549 44.188617129190817 $389 $550 forward 7 unknown #
coedge $-1 $383 $242 $382 $537 reversed $149 $-1 #
vertex $-1 $390 $551 #
vertex $-1 $388 $552 #
straight-curve $-1 -49.054424576898015 0 9.8755147648892283 0 -1 0 I I #
face $-1 $-1 $553 $56 $-1 $554 reversed single #
loop $-1 $-1 $250 $244 #
plane-surface $-1 0 0 21.9741268709171 0 0 1 1 0 0 forward_v I I I I #
coedge $-1 $555 $556 $557 $558 reversed $245 $-1 #
coedge $-1 $559 $247 $249 $405 forward $153 $-1 #
coedge $-1 $247 $559 $555 $560 forward $153 $-1 #
coedge $-1 $557 $250 $247 $402 forward $396 $-1 #
edge $-1 $408 -17.41942521366224 $561 4.4593624159240512 $401 $562 forward 7 unknown #
coedge $-1 $563 $564 $248 $404 forward $553 $-1 #
edge $-1 $565 -84.167044888850597 $407 -70.902590623465372 $403 $566 forward 7 unknown #
edge $-1 $408 68.151464096315181 $565 93.182548990797343 $249 $567 forward 7 unknown #
coedge $-1 $250 $557 $563 $568 forward $396 $-1 #
vertex $-1 $404 $569 #
vertex $-1 $251 $570 #
straight-curve $-1 -23.899456612531335 23.670823839911979 21.974126870917104 0 -1 0 I I #
coedge $-1 $410 $410 $-1 $571 reversed $254 $-1 #
edge $-1 $572 0 $572 6.2831853071796004 $255 $573 forward 7 unknown #
vertex $-1 $258 $574 #
ellipse-curve $-1 -19.523699086614073 35.977492605371488 15.341899738224484 0 0.52991927123019833 0.84804809178421925 2 0 0 1 I I #
coedge $-1 $414 $414 $-1 $575 reversed $261 $-1 #
edge $-1 $576 0 $576 6.2831853071796004 $262 $577 forward 7 unknown #
vertex $-1 $265 $578 #
ellipse-curve $-1 -12.960062797738182 35.977492605371488 15.341899738224484 0 0.52991927123019833 0.84804809178421925 2 0 0 1 I I #
coedge $-1 $418 $418 $-1 $579 reversed $268 $-1 #
edge $-1 $580 0 $580 6.2831853071796004 $269 $581 forward 7 unknown #
vertex $-1 $272 $582 #
ellipse-curve $-1 -6.3964265088622909 35.977492605371488 15.341899738224484 0 0.52991927123019833 0.84804809178421925 2 0 0 1 I I #
face $-1 $-1 $583 $60 $-1 $584 reversed single #
loop $-1 $-1 $279 $273 #
plane-surface $-1 0 0 21.9741268709171 0 0 1 1 0 0 forward_v I I I I #
coedge $-1 $585 $586 $587 $588 reversed $274 $-1 #
coedge $-1 $589 $276 $278 $432 forward $172 $-1 #
coedge $-1 $276 $589 $585 $590 forward $172 $-1 #
coedge $-1 $587 $279 $276 $429 forward $423 $-1 #
edge $-1 $435 13.661588688367374 $591 35.540376317953672 $428 $592 forward 7 unknown #
coedge $-1 $593 $594 $277 $431 forward $583 $-1 #
edge $-1 $595 -84.167044888850597 $434 -70.902590623465372 $430 $596 forward 7 unknown #
edge $-1 $435 68.151464096315181 $595 93.182548990797343 $278 $597 forward 7 unknown #
coedge $-1 $279 $587 $593 $598 forward $423 $-1 #
vertex $-1 $280 $599 #
vertex $-1 $280 $600 #
straight-curve $-1 38.262571191527897 23.670823839911979 21.974126870917104 0 -1 0 I I #
coedge $-1 $437 $437 $-1 $601 reversed $283 $-1 #
edge $-1 $602 0 $602 6.2831853071796004 $284 $603 forward 7 unknown #
vertex $-1 $287 $604 #
ellipse-curve $-1 42.638328717445148 35.977492605371488 15.341899738224484 0 0.52991927123019833 0.84804809178421925 2 0 0 1 I I #
coedge $-1 $441 $441 $-1 $605 reversed $290 $-1 #
edge $-1 $606 0 $606 6.2831853071796004 $291 $607 forward 7 unknown #
vertex $-1 $294 $608 #
ellipse-curve $-1 49.201965006321046 35.977492605371488 15.341899738224484 0 0.52991927123019833 0.84804809178421925 2 0 0 1 I I #
coedge $-1 $445 $445 $-1 $609 reversed $297 $-1 #
edge $-1 $610 0 $610 6.2831853071796004 $298 $611 forward 7 unknown #
vertex $-1 $301 $612 #
ellipse-curve $-1 55.765601295196944 35.977492605371488 15.341899738224484 0 0.52991927123019833 0.84804809178421925 2 0 0 1 I I #
face $-1 $-1 $461 $64 $-1 $613 forward single #
loop $-1 $-1 $614 $302 #
plane-surface $-1 0 -46.591274495398672 0 0 1 0 0 0 1 forward_v I I I I #
coedge $-1 $615 $616 $617 $618 reversed $303 $-1 #
coedge $-1 $619 $305 $307 $459 forward $191 $-1 #
coedge $-1 $305 $619 $615 $620 forward $191 $-1 #
coedge $-1 $617 $308 $305 $456 forward $461 $-1 #
edge $-1 $463 -4.4593624159240512 $621 17.41942521366224 $455 $622 forward 7 unknown #
coedge $-1 $623 $624 $306 $458 forward $450 $-1 #
edge $-1 $625 -59.47743066256281 $462 -46.212976397177584 $457 $626 forward 7 unknown #
edge $-1 $463 -25.031084894482156 $625 2.4666512388233064e-014 $307 $627 forward 7 unknown #
coedge $-1 $308 $617 $623 $628 forward $461 $-1 #
loop $-1 $-1 $617 $449 #
vertex $-1 $458 $629 #
vertex $-1 $309 $630 #
straight-curve $-1 -2.0206689829450433 -63.182465269529573 21.974126870917104 0 1 0 I I #
coedge $-1 $465 $465 $-1 $631 reversed $312 $-1 #
edge $-1 $632 0 $632 6.2831853071796004 $313 $633 forward 7 unknown #
vertex $-1 $316 $634 #
ellipse-curve $-1 -19.523699086614073 -35.977492605371481 15.341899738224482 0 -0.52991927123019833 0.84804809178421925 2 0 0 1 I I #
coedge $-1 $469 $469 $-1 $635 reversed $319 $-1 #
edge $-1 $636 0 $636 6.2831853071796004 $320 $637 forward 7 unknown #
vertex $-1 $323 $638 #
ellipse-curve $-1 -12.960062797738182 -35.977492605371481 15.341899738224482 0 -0.52991927123019833 0.84804809178421925 2 0 0 1 I I #
coedge $-1 $473 $473 $-1 $639 reversed $326 $-1 #
edge $-1 $640 0 $640 6.2831853071796004 $327 $641 forward 7 unknown #
vertex $-1 $330 $642 #
ellipse-curve $-1 -6.3964265088622909 -35.977492605371481 15.341899738224482 0 -0.52991927123019833 0.84804809178421925 2 0 0 1 I I #
face $-1 $-1 $489 $68 $-1 $643 forward single #
loop $-1 $-1 $644 $331 #
plane-surface $-1 0 -46.591274495398672 0 0 1 0 0 0 1 forward_v I I I I #
coedge $-1 $645 $646 $647 $648 reversed $332 $-1 #
coedge $-1 $649 $334 $336 $487 forward $210 $-1 #
coedge $-1 $334 $649 $645 $650 forward $210 $-1 #
coedge $-1 $647 $337 $334 $484 forward $489 $-1 #
edge $-1 $491 -35.540376317953672 $651 -13.661588688367374 $483 $652 forward 7 unknown #
coedge $-1 $653 $654 $335 $486 forward $478 $-1 #
edge $-1 $655 -59.47743066256281 $490 -46.212976397177584 $485 $656 forward 7 unknown #
edge $-1 $491 -25.031084894482156 $655 2.4666512388233064e-014 $336 $657 forward 7 unknown #
coedge $-1 $337 $647 $653 $658 forward $489 $-1 #
loop $-1 $-1 $647 $477 #
vertex $-1 $486 $659 #
vertex $-1 $338 $660 #
straight-curve $-1 60.141358821114196 -63.182465269529573 21.974126870917104 0 1 0 I I #
coedge $-1 $493 $493 $-1 $661 reversed $341 $-1 #
edge $-1 $662 0 $662 6.2831853071796004 $342 $663 forward 7 unknown #
vertex $-1 $345 $664 #
ellipse-curve $-1 42.638328717445148 -35.977492605371481 15.341899738224482 0 -0.52991927123019833 0.84804809178421925 2 0 0 1 I I #
coedge $-1 $497 $497 $-1 $665 reversed $348 $-1 #
edge $-1 $666 0 $666 6.2831853071796004 $349 $667 forward 7 unknown #
vertex $-1 $352 $668 #
ellipse-curve $-1 49.201965006321046 -35.977492605371481 15.341899738224482 0 -0.52991927123019833 0.84804809178421925 2 0 0 1 I I #
coedge $-1 $501 $501 $-1 $669 reversed $355 $-1 #
edge $-1 $670 0 $670 6.2831853071796004 $356 $671 forward 7 unknown #
vertex $-1 $359 $672 #
ellipse-curve $-1 55.765601295196944 -35.977492605371481 15.341899738224482 0 -0.52991927123019833 0.84804809178421925 2 0 0 1 I I #
face $-1 $-1 $375 $54 $-1 $673 reversed single #
loop $-1 $-1 $521 $360 #
plane-surface $-1 0 46.591274495398672 0 0 -1 0 0 0 -1 forward_v I I I I #
coedge $-1 $674 $519 $522 $675 forward $361 $-1 #
coedge $-1 $525 $363 $364 $513 reversed $229 $-1 #
coedge $-1 $519 $674 $363 $511 reversed $361 $-1 #
edge $-1 $526 -21.9741268709171 $676 21.9741268709171 $510 $677 forward 7 unknown #
coedge $-1 $365 $364 $674 $678 forward $145 $-1 #
edge $-1 $517 -75.269631031220428 $676 75.269631031220428 $509 $679 forward 7 unknown #
coedge $-1 $522 $521 $365 $515 reversed $506 $-1 #
edge $-1 $680 -75.269631031220428 $516 75.269631031220428 $514 $681 forward 7 unknown #
vertex $-1 $367 $682 #
vertex $-1 $528 $683 #
straight-curve $-1 75.269631031220428 0 -21.9741268709171 0 -1 0 I I #
coedge $-1 $508 $510 $368 $520 reversed $361 $-1 #
edge $-1 $523 -46.591274495398672 $526 46.591274495398672 $519 $684 forward 7 unknown #
coedge $-1 $514 $369 $374 $529 forward $506 $-1 #
coedge $-1 $369 $514 $508 $675 reversed $506 $-1 #
vertex $-1 $370 $685 #
straight-curve $-1 0 46.591274495398672 21.9741268709171 -1 0 0 I I #
coedge $-1 $371 $509 $373 $528 reversed $229 $-1 #
vertex $-1 $520 $686 #
straight-curve $-1 0 -46.591274495398672 21.9741268709171 1 0 0 I I #
edge $-1 $376 -21.9741268709171 $517 21.9741268709171 $373 $687 forward 7 unknown #
edge $-1 $377 -21.9741268709171 $516 21.9741268709171 $374 $688 forward 7 unknown #
point $-1 75.269631031220428 -46.591274495398672 21.9741268709171 #
point $-1 75.269631031220428 46.591274495398672 21.9741268709171 #
face $-1 $-1 $541 $55 $-1 $689 reversed single #
loop $-1 $-1 $538 $379 #
plane-surface $-1 0 0 21.9741268709171 0 0 1 1 0 0 forward_v I I I I #
coedge $-1 $690 $691 $386 $544 forward $380 $-1 #
coedge $-1 $382 $548 $692 $693 reversed $237 $-1 #
edge $-1 $694 -14.011716461965518 $392 -1.9131043559376462 $382 $695 forward 7 unknown #
coedge $-1 $692 $696 $383 $539 forward $533 $-1 #
edge $-1 $542 -46.591274495398672 $694 46.591274495398672 $538 $697 forward 7 unknown #
coedge $-1 $545 $384 $696 $698 reversed $541 $-1 #
loop $-1 $-1 $384 $532 #
vertex $-1 $385 $699 #
straight-curve $-1 -49.054424576898015 -46.591274495398672 7.9624104089515821 0 0 1 I I #
edge $-1 $549 -46.591274495398672 $546 46.591274495398672 $535 $700 forward 7 unknown #
coedge $-1 $387 $540 $690 $701 forward $541 $-1 #
vertex $-1 $544 $702 #
straight-curve $-1 -31.081013902029611 -46.591274495398672 9.8755147648892283 1 0 0 I I #
coedge $-1 $536 $389 $691 $703 reversed $237 $-1 #
vertex $-1 $544 $704 #
straight-curve $-1 -31.081013902029611 46.591274495398672 9.8755147648892283 -1 0 0 I I #
point $-1 -49.054424576898015 46.591274495398672 9.8755147648892283 #
point $-1 -49.054424576898015 -46.591274495398672 9.8755147648892283 #
loop $-1 $-1 $403 $395 #
plane-surface $-1 0 46.591274495398672 0 0 -1 0 0 0 -1 forward_v I I I I #
coedge $-1 $556 $398 $400 $560 reversed $245 $-1 #
coedge $-1 $398 $555 $705 $706 reversed $245 $-1 #
coedge $-1 $406 $401 $398 $558 forward $396 $-1 #
edge $-1 $561 1.6928868754322899 $707 22.920450655486693 $557 $708 forward 7 unknown #
coedge $-1 $400 $399 $564 $709 reversed $153 $-1 #
edge $-1 $710 -93.182548990797343 $561 -68.151464096315181 $555 $711 forward 7 unknown #
vertex $-1 $402 $712 #
straight-curve $-1 -6.4800313988690945 25.363710715344283 21.974126870917097 1 0 0 I I #
coedge $-1 $705 $403 $406 $568 reversed $553 $-1 #
coedge $-1 $403 $705 $559 $709 forward $553 $-1 #
vertex $-1 $404 $713 #
straight-curve $-1 -23.899456612531335 46.591274495398672 92.876717494382476 0 0 1 I I #
straight-curve $-1 -23.899456612531335 -32.432008363836538 58.088901058107467 0 0.84804809178421925 -0.52991927123019833 I I #
edge $-1 $707 2.0206689829450433 $407 23.899456612531335 $563 $714 forward 7 unknown #
point $-1 -23.899456612531335 46.591274495398672 21.9741268709171 #
point $-1 -23.899456612531335 25.363710715344268 21.974126870917104 #
edge $-1 $715 1 $715 0 $410 $-1 forward 7 unknown #
vertex $-1 $411 $716 #
ellipse-curve $-1 -19.523699086614073 31.841673796546054 8.723206214119605 0 0.52991927123019833 0.84804809178421925 2 0 0 1 I I #
point $-1 -17.523699086614073 35.977492605371502 15.341899738224512 #
edge $-1 $717 1 $717 0 $414 $-1 forward 7 unknown #
vertex $-1 $415 $718 #
ellipse-curve $-1 -12.960062797738182 31.841673796546054 8.723206214119605 0 0.52991927123019833 0.84804809178421925 2 0 0 1 I I #
point $-1 -10.960062797738182 35.977492605371502 15.341899738224512 #
edge $-1 $719 1 $719 0 $418 $-1 forward 7 unknown #
vertex $-1 $419 $720 #
ellipse-curve $-1 -6.3964265088622909 31.841673796546054 8.723206214119605 0 0.52991927123019833 0.84804809178421925 2 0 0 1 I I #
point $-1 -4.3964265088622909 35.977492605371502 15.341899738224512 #
loop $-1 $-1 $430 $422 #
plane-surface $-1 0 46.591274495398672 0 0 -1 0 0 0 -1 forward_v I I I I #
coedge $-1 $586 $425 $427 $590 reversed $274 $-1 #
coedge $-1 $425 $585 $721 $722 reversed $274 $-1 #
coedge $-1 $433 $428 $425 $588 forward $423 $-1 #
edge $-1 $591 1.6928868754322899 $723 22.920450655486693 $587 $724 forward 7 unknown #
coedge $-1 $427 $426 $594 $725 reversed $172 $-1 #
edge $-1 $726 -93.182548990797343 $591 -68.151464096315181 $585 $727 forward 7 unknown #
vertex $-1 $429 $728 #
straight-curve $-1 24.600982503160523 25.363710715344283 21.974126870917097 1 0 0 I I #
coedge $-1 $721 $430 $433 $598 reversed $583 $-1 #
coedge $-1 $430 $721 $589 $725 forward $583 $-1 #
vertex $-1 $431 $729 #
straight-curve $-1 38.262571191527897 46.591274495398672 92.876717494382476 0 0 1 I I #
straight-curve $-1 38.262571191527897 -32.432008363836538 58.088901058107467 0 0.84804809178421925 -0.52991927123019833 I I #
edge $-1 $723 -60.141358821114196 $434 -38.262571191527897 $593 $730 forward 7 unknown #
point $-1 38.262571191527897 46.591274495398672 21.9741268709171 #
point $-1 38.262571191527897 25.363710715344268 21.974126870917104 #
edge $-1 $731 1 $731 0 $437 $-1 forward 7 unknown #
vertex $-1 $438 $732 #
ellipse-curve $-1 42.638328717445148 31.841673796546054 8.723206214119605 0 0.52991927123019833 0.84804809178421925 2 0 0 1 I I #
point $-1 44.638328717445148 35.977492605371502 15.341899738224512 #
edge $-1 $733 1 $733 0 $441 $-1 forward 7 unknown #
vertex $-1 $442 $734 #
ellipse-curve $-1 49.201965006321046 31.841673796546054 8.723206214119605 0 0.52991927123019833 0.84804809178421925 2 0 0 1 I I #
point $-1 51.201965006321046 35.977492605371502 15.341899738224512 #
edge $-1 $735 1 $735 0 $445 $-1 forward 7 unknown #
vertex $-1 $446 $736 #
ellipse-curve $-1 55.765601295196944 31.841673796546054 8.723206214119605 0 0.52991927123019833 0.84804809178421925 2 0 0 1 I I #
point $-1 57.765601295196944 35.977492605371502 15.341899738224512 #
plane-surface $-1 0 0 21.9741268709171 0 0 1 1 0 0 forward_v I I I I #
coedge $-1 $624 $623 $616 $737 forward $450 $-1 #
coedge $-1 $616 $452 $454 $620 reversed $303 $-1 #
coedge $-1 $452 $615 $614 $737 reversed $303 $-1 #
coedge $-1 $460 $455 $452 $618 forward $461 $-1 #
edge $-1 $621 -37.818754554185304 $738 -16.591190774130901 $617 $739 forward 7 unknown #
coedge $-1 $454 $453 $624 $740 reversed $191 $-1 #
edge $-1 $741 -2.4666512388233064e-014 $621 25.031084894482156 $615 $742 forward 7 unknown #
vertex $-1 $456 $743 #
straight-curve $-1 -6.4800313988690945 -25.363710715344272 21.9741268709171 -1 0 0 I I #
coedge $-1 $614 $457 $460 $628 reversed $450 $-1 #
coedge $-1 $457 $614 $619 $740 forward $450 $-1 #
vertex $-1 $458 $744 #
straight-curve $-1 -2.0206689829450433 -46.591274495398672 68.187103268094688 0 0 1 I I #
straight-curve $-1 -2.0206689829450433 -46.59127449539865 8.7096726055318925 0 -0.84804809178421925 -0.52991927123019833 I I #
edge $-1 $738 -23.899456612531335 $462 -2.0206689829450433 $623 $745 forward 7 unknown #
point $-1 -2.0206689829450433 -46.591274495398672 21.9741268709171 #
point $-1 -2.0206689829450433 -25.363710715344265 21.9741268709171 #
edge $-1 $746 1 $746 0 $465 $-1 forward 7 unknown #
vertex $-1 $466 $747 #
ellipse-curve $-1 -19.523699086614073 -31.841673796546047 8.7232062141195978 0 -0.52991927123019833 0.84804809178421925 2 0 0 1 I I #
point $-1 -17.523699086614073 -35.977492605371495 15.341899738224505 #
edge $-1 $748 1 $748 0 $469 $-1 forward 7 unknown #
vertex $-1 $470 $749 #
ellipse-curve $-1 -12.960062797738182 -31.841673796546047 8.7232062141195978 0 -0.52991927123019833 0.84804809178421925 2 0 0 1 I I #
point $-1 -10.960062797738182 -35.977492605371495 15.341899738224505 #
edge $-1 $750 1 $750 0 $473 $-1 forward 7 unknown #
vertex $-1 $474 $751 #
ellipse-curve $-1 -6.3964265088622909 -31.841673796546047 8.7232062141195978 0 -0.52991927123019833 0.84804809178421925 2 0 0 1 I I #
point $-1 -4.3964265088622909 -35.977492605371495 15.341899738224505 #
plane-surface $-1 0 0 21.9741268709171 0 0 1 1 0 0 forward_v I I I I #
coedge $-1 $654 $653 $646 $752 forward $478 $-1 #
coedge $-1 $646 $480 $482 $650 reversed $332 $-1 #
coedge $-1 $480 $645 $644 $752 reversed $332 $-1 #
coedge $-1 $488 $483 $480 $648 forward $489 $-1 #
edge $-1 $651 -37.818754554185304 $753 -16.591190774130901 $647 $754 forward 7 unknown #
coedge $-1 $482 $481 $654 $755 reversed $210 $-1 #
edge $-1 $756 -2.4666512388233064e-014 $651 25.031084894482156 $645 $757 forward 7 unknown #
vertex $-1 $484 $758 #
straight-curve $-1 24.600982503160523 -25.363710715344272 21.9741268709171 -1 0 0 I I #
coedge $-1 $644 $485 $488 $658 reversed $478 $-1 #
coedge $-1 $485 $644 $649 $755 forward $478 $-1 #
vertex $-1 $486 $759 #
straight-curve $-1 60.141358821114196 -46.591274495398672 68.187103268094688 0 0 1 I I #
straight-curve $-1 60.141358821114196 -46.59127449539865 8.7096726055318925 0 -0.84804809178421925 -0.52991927123019833 I I #
edge $-1 $753 38.262571191527897 $490 60.141358821114196 $653 $760 forward 7 unknown #
point $-1 60.141358821114196 -46.591274495398672 21.9741268709171 #
point $-1 60.141358821114196 -25.363710715344265 21.9741268709171 #
edge $-1 $761 1 $761 0 $493 $-1 forward 7 unknown #
vertex $-1 $494 $762 #
ellipse-curve $-1 42.638328717445148 -31.841673796546047 8.7232062141195978 0 -0.52991927123019833 0.84804809178421925 2 0 0 1 I I #
point $-1 44.638328717445148 -35.977492605371495 15.341899738224505 #
edge $-1 $763 1 $763 0 $497 $-1 forward 7 unknown #
vertex $-1 $498 $764 #
ellipse-curve $-1 49.201965006321046 -31.841673796546047 8.7232062141195978 0 -0.52991927123019833 0.84804809178421925 2 0 0 1 I I #
point $-1 51.201965006321046 -35.977492605371495 15.341899738224505 #
edge $-1 $765 1 $765 0 $501 $-1 forward 7 unknown #
vertex $-1 $502 $766 #
ellipse-curve $-1 55.765601295196944 -31.841673796546047 8.7232062141195978 0 -0.52991927123019833 0.84804809178421925 2 0 0 1 I I #
point $-1 57.765601295196944 -35.977492605371495 15.341899738224505 #
plane-surface $-1 75.269631031220428 0 0 -1 0 0 0 0 1 forward_v I I I I #
coedge $-1 $510 $508 $512 $678 reversed $361 $-1 #
edge $-1 $523 -21.9741268709171 $680 21.9741268709171 $522 $767 forward 7 unknown #
vertex $-1 $678 $768 #
straight-curve $-1 -75.269631031220428 -46.591274495398672 0 0 0 -1 I I #
edge $-1 $676 -46.591274495398672 $680 46.591274495398672 $674 $769 forward 7 unknown #
straight-curve $-1 0 -46.591274495398672 -21.9741268709171 -1 0 0 I I #
vertex $-1 $515 $770 #
straight-curve $-1 0 46.591274495398672 -21.9741268709171 1 0 0 I I #
point $-1 75.269631031220428 46.591274495398672 -21.9741268709171 #
point $-1 75.269631031220428 -46.591274495398672 -21.9741268709171 #
straight-curve $-1 -75.269631031220428 0 21.9741268709171 0 -1 0 I I #
point $-1 -75.269631031220428 46.591274495398672 21.9741268709171 #
point $-1 -75.269631031220428 -46.591274495398672 21.9741268709171 #
straight-curve $-1 75.269631031220428 -46.591274495398672 0 0 0 -1 I I #
straight-curve $-1 75.269631031220428 46.591274495398672 0 0 0 -1 I I #
plane-surface $-1 0 -46.591274495398672 0 0 1 0 0 0 1 forward_v I I I I #
coedge $-1 $771 $535 $545 $701 reversed $380 $-1 #
coedge $-1 $535 $771 $548 $703 forward $380 $-1 #
coedge $-1 $772 $538 $536 $693 forward $533 $-1 #
edge $-1 $694 49.054424576898015 $773 75.269631031220428 $536 $774 forward 7 unknown #
vertex $-1 $693 $775 #
straight-curve $-1 -49.054424576898015 46.591274495398672 7.9624104089515821 0 0 -1 I I #
coedge $-1 $538 $772 $540 $698 forward $533 $-1 #
straight-curve $-1 -49.054424576898015 0 21.9741268709171 0 1 0 I I #
edge $-1 $776 -75.269631031220428 $542 -49.054424576898015 $540 $777 forward 7 unknown #
point $-1 -49.054424576898015 -46.591274495398672 21.9741268709171 #
straight-curve $-1 -75.269631031220428 0 9.8755147648892283 0 -1 0 I I #
edge $-1 $776 -21.9741268709171 $546 -9.8755147648892283 $690 $778 forward 7 unknown #
point $-1 -75.269631031220428 -46.591274495398672 9.8755147648892283 #
edge $-1 $773 -21.9741268709171 $549 -9.8755147648892283 $548 $779 forward 7 unknown #
point $-1 -75.269631031220428 46.591274495398672 9.8755147648892283 #
coedge $-1 $564 $563 $556 $706 forward $553 $-1 #
edge $-1 $707 70.902590623465372 $710 84.167044888850597 $705 $780 forward 7 unknown #
vertex $-1 $568 $781 #
straight-curve $-1 -2.0206689829450433 23.670823839911979 21.974126870917104 0 1 0 I I #
edge $-1 $710 -4.4593624159240512 $565 17.41942521366224 $564 $782 forward 7 unknown #
vertex $-1 $709 $783 #
straight-curve $-1 -2.0206689829450433 -32.432008363836538 58.088901058107467 0 -0.84804809178421925 0.52991927123019833 I I #
point $-1 -2.0206689829450433 25.363710715344268 21.974126870917104 #
point $-1 -23.899456612531335 46.591274495398672 8.7096726055318854 #
straight-curve $-1 0 46.591274495398672 21.9741268709171 -1 0 0 I I #
vertex $-1 $571 $784 #
point $-1 -17.523699086614073 31.841673796546054 8.723206214119605 #
vertex $-1 $575 $785 #
point $-1 -10.960062797738182 31.841673796546054 8.723206214119605 #
vertex $-1 $579 $786 #
point $-1 -4.3964265088622909 31.841673796546054 8.723206214119605 #
coedge $-1 $594 $593 $586 $722 forward $583 $-1 #
edge $-1 $723 70.902590623465372 $726 84.167044888850597 $721 $787 forward 7 unknown #
vertex $-1 $598 $788 #
straight-curve $-1 60.141358821114196 23.670823839911979 21.974126870917104 0 1 0 I I #
edge $-1 $726 -35.540376317953672 $595 -13.661588688367374 $594 $789 forward 7 unknown #
vertex $-1 $725 $790 #
straight-curve $-1 60.141358821114196 -32.432008363836538 58.088901058107467 0 -0.84804809178421925 0.52991927123019833 I I #
point $-1 60.141358821114196 25.363710715344268 21.974126870917104 #
point $-1 38.262571191527897 46.591274495398672 8.7096726055318854 #
straight-curve $-1 0 46.591274495398672 21.9741268709171 -1 0 0 I I #
vertex $-1 $601 $791 #
point $-1 44.638328717445148 31.841673796546054 8.723206214119605 #
vertex $-1 $605 $792 #
point $-1 51.201965006321046 31.841673796546054 8.723206214119605 #
vertex $-1 $609 $793 #
point $-1 57.765601295196944 31.841673796546054 8.723206214119605 #
edge $-1 $738 46.212976397177584 $741 59.47743066256281 $614 $794 forward 7 unknown #
vertex $-1 $628 $795 #
straight-curve $-1 -23.899456612531335 -63.182465269529573 21.974126870917104 0 -1 0 I I #
edge $-1 $741 -17.41942521366224 $625 4.4593624159240512 $624 $796 forward 7 unknown #
vertex $-1 $740 $797 #
straight-curve $-1 -23.899456612531335 -46.59127449539865 8.7096726055318925 0 0.84804809178421925 0.52991927123019833 I I #
point $-1 -23.899456612531335 -25.363710715344265 21.9741268709171 #
point $-1 -2.0206689829450433 -46.591274495398672 8.7096726055318801 #
straight-curve $-1 0 -46.591274495398672 21.9741268709171 1 0 0 I I #
vertex $-1 $631 $798 #
point $-1 -17.523699086614073 -31.841673796546047 8.7232062141195978 #
vertex $-1 $635 $799 #
point $-1 -10.960062797738182 -31.841673796546047 8.7232062141195978 #
vertex $-1 $639 $800 #
point $-1 -4.3964265088622909 -31.841673796546047 8.7232062141195978 #
edge $-1 $753 46.212976397177584 $756 59.47743066256281 $644 $801 forward 7 unknown #
vertex $-1 $658 $802 #
straight-curve $-1 38.262571191527897 -63.182465269529573 21.974126870917104 0 -1 0 I I #
edge $-1 $756 13.661588688367374 $655 35.540376317953672 $654 $803 forward 7 unknown #
vertex $-1 $755 $804 #
straight-curve $-1 38.262571191527897 -46.59127449539865 8.7096726055318925 0 0.84804809178421925 0.52991927123019833 I I #
point $-1 38.262571191527897 -25.363710715344265 21.9741268709171 #
point $-1 60.141358821114196 -46.591274495398672 8.7096726055318801 #
straight-curve $-1 0 -46.591274495398672 21.9741268709171 1 0 0 I I #
vertex $-1 $661 $805 #
point $-1 44.638328717445148 -31.841673796546047 8.7232062141195978 #
vertex $-1 $665 $806 #
point $-1 51.201965006321046 -31.841673796546047 8.7232062141195978 #
vertex $-1 $669 $807 #
point $-1 57.765601295196944 -31.841673796546047 8.7232062141195978 #
straight-curve $-1 -75.269631031220428 46.591274495398672 0 0 0 -1 I I #
point $-1 -75.269631031220428 -46.591274495398672 -21.9741268709171 #
straight-curve $-1 -75.269631031220428 0 -21.9741268709171 0 1 0 I I #
point $-1 -75.269631031220428 46.591274495398672 -21.9741268709171 #
coedge $-1 $691 $690 $772 $808 reversed $380 $-1 #
coedge $-1 $696 $692 $771 $808 forward $533 $-1 #
vertex $-1 $693 $809 #
straight-curve $-1 0 46.591274495398672 21.9741268709171 -1 0 0 I I #
point $-1 -49.054424576898015 46.591274495398672 21.9741268709171 #
vertex $-1 $808 $810 #
straight-curve $-1 0 -46.591274495398672 21.9741268709171 1 0 0 I I #
straight-curve $-1 -75.269631031220428 -46.591274495398672 0 0 0 -1 I I #
straight-curve $-1 -75.269631031220428 46.591274495398672 0 0 0 -1 I I #
straight-curve $-1 -2.0206689829450433 46.591274495398672 92.876717494382476 0 0 -1 I I #
point $-1 -2.0206689829450433 46.591274495398672 21.9741268709171 #
straight-curve $-1 -6.4800313988690945 46.591274495398672 8.7096726055318854 -1 0 0 I I #
point $-1 -2.0206689829450433 46.591274495398672 8.7096726055318854 #
point $-1 -19.523699086614073 30.781835254085657 7.0271100305511656 #
point $-1 -12.960062797738182 30.781835254085657 7.0271100305511656 #
point $-1 -6.3964265088622909 30.781835254085657 7.0271100305511656 #
straight-curve $-1 60.141358821114196 46.591274495398672 92.876717494382476 0 0 -1 I I #
point $-1 60.141358821114196 46.591274495398672 21.9741268709171 #
straight-curve $-1 24.600982503160523 46.591274495398672 8.7096726055318854 -1 0 0 I I #
point $-1 60.141358821114196 46.591274495398672 8.7096726055318854 #
point $-1 42.638328717445148 30.781835254085657 7.0271100305511656 #
point $-1 49.201965006321046 30.781835254085657 7.0271100305511656 #
point $-1 55.765601295196944 30.781835254085657 7.0271100305511656 #
straight-curve $-1 -23.899456612531335 -46.591274495398672 68.187103268094688 0 0 -1 I I #
point $-1 -23.899456612531335 -46.591274495398672 21.9741268709171 #
straight-curve $-1 -6.4800313988690945 -46.591274495398672 8.7096726055318818 1 0 0 I I #
point $-1 -23.899456612531335 -46.591274495398672 8.7096726055318801 #
point $-1 -19.523699086614073 -30.781835254085649 7.0271100305511585 #
point $-1 -12.960062797738182 -30.781835254085649 7.0271100305511585 #
point $-1 -6.3964265088622909 -30.781835254085649 7.0271100305511585 #
straight-curve $-1 38.262571191527897 -46.591274495398672 68.187103268094688 0 0 -1 I I #
point $-1 38.262571191527897 -46.591274495398672 21.9741268709171 #
straight-curve $-1 24.600982503160523 -46.591274495398672 8.7096726055318818 1 0 0 I I #
point $-1 38.262571191527897 -46.591274495398672 8.7096726055318801 #
point $-1 42.638328717445148 -30.781835254085649 7.0271100305511585 #
point $-1 49.201965006321046 -30.781835254085649 7.0271100305511585 #
point $-1 55.765601295196944 -30.781835254085649 7.0271100305511585 #
edge $-1 $773 -46.591274495398672 $776 46.591274495398672 $771 $811 forward 7 unknown #
point $-1 -75.269631031220428 46.591274495398672 21.9741268709171 #
point $-1 -75.269631031220428 -46.591274495398672 21.9741268709171 #
straight-curve $-1 -75.269631031220428 0 21.9741268709171 0 -1 0 I I #
End-of-ACIS-data 