500 0 9 0           
7 Unknown 11 ACIS 5.0 NT 24 Fri Mar 26 18:54:53 1999 
-1 9.9999999999999995e-007 1e-010 
body $-1 $9 $-1 $10 #
body $-1 $11 $-1 $12 #
body $-1 $13 $-1 $14 #
body $-1 $15 $-1 $16 #
body $-1 $17 $-1 $18 #
body $-1 $19 $-1 $20 #
body $-1 $21 $-1 $22 #
body $-1 $23 $-1 $24 #
body $-1 $25 $-1 $26 #
lump $-1 $-1 $27 $0 #
transform $-1 1 0 0 0 1 0 0 0 1 67.885372478408158 43.176522267411265 16.860018851771009 1 rotate no_reflect no_shear #
lump $-1 $-1 $28 $1 #
transform $-1 1 0 0 0 1 0 0 0 1 67.885372478408158 43.176522267411265 16.860018851771009 1 rotate no_reflect no_shear #
lump $-1 $-1 $29 $2 #
transform $-1 1 0 0 0 1 0 0 0 1 67.885372478408158 43.176522267411265 16.860018851771009 1 rotate no_reflect no_shear #
lump $-1 $-1 $30 $3 #
transform $-1 1 0 0 0 1 0 0 0 1 67.885372478408158 43.176522267411265 16.860018851771009 1 rotate no_reflect no_shear #
lump $-1 $-1 $31 $4 #
transform $-1 1 0 0 0 1 0 0 0 1 67.885372478408158 43.176522267411265 16.860018851771009 1 rotate no_reflect no_shear #
lump $-1 $-1 $32 $5 #
transform $-1 1 0 0 0 1 0 0 0 1 67.885372478408158 43.176522267411265 16.860018851771009 1 rotate no_reflect no_shear #
lump $-1 $-1 $33 $6 #
transform $-1 1 0 0 0 1 0 0 0 1 67.885372478408158 43.176522267411265 16.860018851771009 1 rotate no_reflect no_shear #
lump $-1 $-1 $34 $7 #
transform $-1 1 0 0 0 1 0 0 0 1 67.885372478408158 43.176522267411265 16.860018851771009 1 rotate no_reflect no_shear #
lump $-1 $-1 $35 $8 #
transform $-1 1 0 0 0 1 0 0 0 1 67.885372478408158 43.176522267411265 16.860018851771009 1 rotate no_reflect no_shear #
shell $-1 $-1 $-1 $36 $-1 $9 #
shell $-1 $-1 $-1 $37 $-1 $11 #
shell $-1 $-1 $-1 $38 $-1 $13 #
shell $-1 $-1 $-1 $39 $-1 $15 #
shell $-1 $-1 $-1 $40 $-1 $17 #
shell $-1 $-1 $-1 $41 $-1 $19 #
shell $-1 $-1 $-1 $42 $-1 $21 #
shell $-1 $-1 $-1 $43 $-1 $23 #
shell $-1 $-1 $-1 $44 $-1 $25 #
face $-1 $45 $46 $27 $-1 $47 forward single #
face $-1 $48 $49 $28 $-1 $50 reversed single #
face $-1 $51 $52 $29 $-1 $53 reversed single #
face $-1 $54 $55 $30 $-1 $56 reversed single #
face $-1 $57 $58 $31 $-1 $59 forward single #
face $-1 $60 $61 $32 $-1 $62 forward single #
face $-1 $63 $64 $33 $-1 $65 reversed single #
face $-1 $66 $67 $34 $-1 $68 forward single #
face $-1 $69 $70 $35 $-1 $71 forward single #
face $-1 $72 $73 $27 $-1 $74 reversed single #
loop $-1 $-1 $75 $36 #
plane-surface $-1 0 0 16.860018851771009 0 0 1 1 0 0 forward_v I I I I #
face $-1 $76 $77 $28 $-1 $78 reversed single #
loop $-1 $-1 $79 $37 #
plane-surface $-1 -61.952423072880912 -38.524542213123063 0 0 -1 0 0 0 -1 forward_v I I I I #
face $-1 $80 $81 $29 $-1 $82 reversed single #
loop $-1 $-1 $83 $38 #
plane-surface $-1 56.019473667353672 -40.850532240267164 0 1 0 0 0 0 -1 forward_v I I I I #
face $-1 $84 $85 $30 $-1 $86 reversed single #
loop $-1 $-1 $87 $39 #
plane-surface $-1 -56.019473667353665 107.44756352331927 158.2507514925808 1 0 0 0 -0.82903758062907751 -0.55919289150049634 forward_v I I I I #
face $-1 $88 $89 $31 $-1 $90 forward single #
loop $-1 $91 $92 $40 #
cone-surface $-1 -49.92859630426014 39.741483568219039 12.874905900787857 0 -0.82903758062907751 -0.55919289150049634 1 0 0 1 I I 0 1 1 forward I I I I #
face $-1 $93 $94 $32 $-1 $95 forward single #
loop $-1 $96 $97 $41 #
cone-surface $-1 -40.792280259619851 39.741483568219039 12.874905900787857 0 -0.82903758062907751 -0.55919289150049634 1 0 0 1 I I 0 1 1 forward I I I I #
face $-1 $98 $99 $33 $-1 $100 reversed single #
loop $-1 $-1 $101 $42 #
plane-surface $-1 -45.360438281939992 -43.176522267411286 10.738796917897972 0 -0.82903758062907751 0.55919289150049634 1 0 0 forward_v I I I I #
face $-1 $102 $103 $34 $-1 $104 forward single #
loop $-1 $105 $106 $43 #
cone-surface $-1 -49.92859630426014 -39.741483568219039 12.874905900787839 0 0.82903758062907751 -0.55919289150049634 1 0 0 1 I I 0 1 1 forward I I I I #
face $-1 $107 $108 $35 $-1 $109 forward single #
loop $-1 $110 $111 $44 #
cone-surface $-1 -40.792280259619851 -39.741483568219039 12.874905900787839 0 0.82903758062907751 -0.55919289150049634 1 0 0 1 I I 0 1 1 forward I I I I #
face $-1 $112 $113 $27 $-1 $114 reversed single #
loop $-1 $-1 $115 $45 #
plane-surface $-1 0 0 -16.860018851771009 0 0 1 1 0 0 forward_v I I I I #
coedge $-1 $116 $117 $118 $119 forward $46 $-1 #
face $-1 $120 $121 $28 $-1 $122 forward single #
loop $-1 $-1 $123 $48 #
plane-surface $-1 -56.019473667353665 -40.850532240267164 0 -1 0 0 0 0 1 forward_v I I I I #
coedge $-1 $124 $125 $126 $127 forward $49 $-1 #
face $-1 $128 $129 $29 $-1 $130 forward single #
loop $-1 $-1 $131 $51 #
plane-surface $-1 61.952423072880919 -38.524542213123063 0 0 -1 0 0 0 -1 forward_v I I I I #
coedge $-1 $132 $133 $134 $135 forward $52 $-1 #
face $-1 $136 $137 $30 $-1 $138 reversed single #
loop $-1 $-1 $139 $54 #
plane-surface $-1 -45.360438281939992 -5.1114863958872547 82.328716039002259 0 0.82903758062907751 0.55919289150049634 1 0 0 forward_v I I I I #
coedge $-1 $140 $141 $142 $143 reversed $55 $-1 #
face $-1 $-1 $144 $31 $-1 $145 forward single #
loop $-1 $146 $147 $57 #
cone-surface $-1 -49.92859630426014 37.956334178355597 11.670807470990965 0 -0.82903758062907751 -0.55919289150049634 0.5 0 0 1 I I -0.70710678118654746 0.70710678118654746 0.5 forward I I I I #
loop $-1 $-1 $148 $40 #
coedge $-1 $92 $92 $149 $150 reversed $58 $-1 #
face $-1 $-1 $151 $32 $-1 $152 forward single #
loop $-1 $153 $154 $60 #
cone-surface $-1 -40.792280259619851 37.956334178355597 11.670807470990965 0 -0.82903758062907751 -0.55919289150049634 0.5 0 0 1 I I -0.70710678118654746 0.70710678118654746 0.5 forward I I I I #
loop $-1 $-1 $155 $41 #
coedge $-1 $97 $97 $156 $157 reversed $61 $-1 #
face $-1 $158 $159 $33 $-1 $160 reversed single #
loop $-1 $-1 $161 $63 #
plane-surface $-1 -34.701402896526318 -155.73557218661782 86.660832371476516 -1 0 0 0 -0.82903758062907751 0.55919289150049634 forward_v I I I I #
coedge $-1 $162 $163 $164 $165 reversed $64 $-1 #
face $-1 $-1 $166 $34 $-1 $167 forward single #
loop $-1 $168 $169 $66 #
cone-surface $-1 -49.92859630426014 -37.956334178355597 11.670807470990948 0 0.82903758062907751 -0.55919289150049634 0.5 0 0 1 I I -0.70710678118654746 0.70710678118654746 0.5 forward I I I I #
loop $-1 $-1 $170 $43 #
coedge $-1 $106 $106 $171 $172 reversed $67 $-1 #
face $-1 $-1 $173 $35 $-1 $174 forward single #
loop $-1 $175 $176 $69 #
cone-surface $-1 -40.792280259619851 -37.956334178355597 11.670807470990948 0 0.82903758062907751 -0.55919289150049634 0.5 0 0 1 I I -0.70710678118654746 0.70710678118654746 0.5 forward I I I I #
loop $-1 $-1 $177 $44 #
coedge $-1 $111 $111 $178 $179 reversed $70 $-1 #
face $-1 $180 $181 $27 $-1 $182 reversed single #
loop $-1 $-1 $183 $72 #
plane-surface $-1 0 -43.176522267411265 0 0 1 0 0 0 1 forward_v I I I I #
coedge $-1 $184 $185 $186 $187 forward $73 $-1 #
coedge $-1 $188 $75 $189 $190 forward $46 $-1 #
coedge $-1 $75 $188 $191 $192 forward $46 $-1 #
coedge $-1 $193 $194 $75 $119 reversed $195 $-1 #
edge $-1 $196 -43.176522267411265 $197 43.176522267411265 $118 $198 forward 7 unknown #
face $-1 $199 $200 $28 $-1 $201 reversed single #
loop $-1 $-1 $202 $76 #
plane-surface $-1 0 0 16.860018851771009 0 0 1 1 0 0 forward_v I I I I #
coedge $-1 $203 $204 $205 $206 reversed $77 $-1 #
coedge $-1 $207 $79 $208 $209 reversed $49 $-1 #
coedge $-1 $79 $207 $210 $211 reversed $49 $-1 #
coedge $-1 $204 $203 $79 $127 reversed $77 $-1 #
edge $-1 $212 -16.860018851771009 $213 16.860018851771009 $126 $214 forward 7 unknown #
face $-1 $215 $216 $29 $-1 $217 reversed single #
loop $-1 $-1 $218 $80 #
plane-surface $-1 0 0 16.860018851771009 0 0 1 1 0 0 forward_v I I I I #
coedge $-1 $219 $220 $221 $222 reversed $81 $-1 #
coedge $-1 $223 $83 $224 $225 reversed $52 $-1 #
coedge $-1 $83 $223 $226 $227 reversed $52 $-1 #
coedge $-1 $220 $219 $83 $135 reversed $81 $-1 #
edge $-1 $228 -16.860018851771009 $229 16.860018851771009 $134 $230 forward 7 unknown #
face $-1 $231 $232 $30 $-1 $233 reversed single #
loop $-1 $-1 $234 $84 #
plane-surface $-1 -34.701402896526318 107.44756352331927 158.2507514925808 -1 0 0 0 0.82903758062907751 0.55919289150049634 forward_v I I I I #
coedge $-1 $235 $236 $237 $238 reversed $85 $-1 #
coedge $-1 $141 $87 $239 $240 reversed $55 $-1 #
coedge $-1 $87 $140 $235 $241 reversed $55 $-1 #
coedge $-1 $237 $242 $87 $143 forward $243 $-1 #
edge $-1 $244 10.547259494248372 $245 14.676075693534955 $142 $246 forward 7 unknown #
loop $-1 $-1 $149 $88 #
plane-surface $-1 -45.360438281939992 -5.1114863958872547 82.328716039002259 0 0.82903758062907751 0.55919289150049634 1 0 0 forward_v I I I I #
loop $-1 $-1 $247 $57 #
coedge $-1 $147 $147 $148 $248 reversed $89 $-1 #
coedge $-1 $148 $148 $147 $248 forward $91 $-1 #
coedge $-1 $149 $149 $92 $150 forward $144 $-1 #
edge $-1 $249 7.5080972336600304e-016 $249 6.2831853071796013 $149 $250 forward 7 unknown #
loop $-1 $-1 $156 $93 #
plane-surface $-1 -45.360438281939992 -5.1114863958872547 82.328716039002259 0 0.82903758062907751 0.55919289150049634 1 0 0 forward_v I I I I #
loop $-1 $-1 $251 $60 #
coedge $-1 $154 $154 $155 $252 reversed $94 $-1 #
coedge $-1 $155 $155 $154 $252 forward $96 $-1 #
coedge $-1 $156 $156 $97 $157 forward $151 $-1 #
edge $-1 $253 7.5080972336600304e-016 $253 6.2831853071796013 $156 $254 forward 7 unknown #
face $-1 $255 $256 $33 $-1 $257 forward single #
loop $-1 $-1 $164 $98 #
plane-surface $-1 0 -43.176522267411265 0 0 1 0 0 0 1 forward_v I I I I #
coedge $-1 $258 $259 $260 $261 reversed $99 $-1 #
coedge $-1 $262 $101 $263 $264 reversed $64 $-1 #
coedge $-1 $101 $262 $258 $265 forward $64 $-1 #
coedge $-1 $260 $266 $101 $165 forward $159 $-1 #
edge $-1 $267 -33.339254526383669 $268 -12.021183755556322 $164 $269 forward 7 unknown #
loop $-1 $-1 $171 $102 #
plane-surface $-1 -45.360438281939992 -43.176522267411286 10.738796917897972 0 -0.82903758062907751 0.55919289150049634 1 0 0 forward_v I I I I #
loop $-1 $-1 $270 $66 #
coedge $-1 $169 $169 $170 $271 reversed $103 $-1 #
coedge $-1 $170 $170 $169 $271 forward $105 $-1 #
coedge $-1 $171 $171 $106 $172 forward $166 $-1 #
edge $-1 $272 -1.3340857799017796e-015 $272 6.2831853071795987 $171 $273 forward 7 unknown #
loop $-1 $-1 $178 $107 #
plane-surface $-1 -45.360438281939992 -43.176522267411286 10.738796917897972 0 -0.82903758062907751 0.55919289150049634 1 0 0 forward_v I I I I #
loop $-1 $-1 $274 $69 #
coedge $-1 $176 $176 $177 $275 reversed $108 $-1 #
coedge $-1 $177 $177 $176 $275 forward $110 $-1 #
coedge $-1 $178 $178 $111 $179 forward $173 $-1 #
edge $-1 $276 -1.3340857799017796e-015 $276 6.2831853071795987 $178 $277 forward 7 unknown #
face $-1 $278 $279 $27 $-1 $280 reversed single #
loop $-1 $-1 $281 $112 #
plane-surface $-1 -67.885372478408158 0 0 1 0 0 0 0 -1 forward_v I I I I #
coedge $-1 $282 $191 $283 $284 forward $113 $-1 #
coedge $-1 $285 $115 $282 $286 forward $73 $-1 #
coedge $-1 $115 $285 $287 $288 forward $73 $-1 #
coedge $-1 $194 $193 $115 $187 reversed $195 $-1 #
edge $-1 $289 -43.176522267411265 $290 43.176522267411265 $186 $291 forward 7 unknown #
coedge $-1 $117 $116 $292 $293 forward $46 $-1 #
coedge $-1 $294 $295 $116 $190 reversed $279 $-1 #
edge $-1 $197 -67.885372478408158 $296 67.885372478408158 $189 $297 forward 7 unknown #
coedge $-1 $183 $298 $117 $192 reversed $113 $-1 #
edge $-1 $299 -67.885372478408158 $196 67.885372478408158 $191 $300 forward 7 unknown #
coedge $-1 $186 $118 $298 $301 forward $195 $-1 #
coedge $-1 $118 $186 $294 $302 reversed $195 $-1 #
loop $-1 $-1 $193 $278 #
vertex $-1 $119 $303 #
vertex $-1 $119 $304 #
straight-curve $-1 67.885372478408158 0 16.860018851771009 0 1 0 I I #
face $-1 $305 $306 $28 $-1 $307 reversed single #
loop $-1 $-1 $308 $120 #
plane-surface $-1 -67.885372478408158 0 0 1 0 0 0 0 -1 forward_v I I I I #
coedge $-1 $210 $309 $204 $310 forward $121 $-1 #
coedge $-1 $126 $123 $311 $312 reversed $77 $-1 #
coedge $-1 $123 $126 $202 $310 reversed $77 $-1 #
coedge $-1 $313 $314 $123 $206 forward $315 $-1 #
edge $-1 $316 -16.860018851771009 $317 16.860018851771009 $205 $318 forward 7 unknown #
coedge $-1 $125 $124 $308 $319 reversed $49 $-1 #
coedge $-1 $311 $320 $124 $209 forward $306 $-1 #
edge $-1 $321 -36.909160941967698 $213 -25.04326213091321 $208 $322 forward 7 unknown #
coedge $-1 $323 $202 $125 $211 forward $121 $-1 #
edge $-1 $212 25.04326213091321 $324 36.909160941967698 $210 $325 forward 7 unknown #
vertex $-1 $211 $326 #
vertex $-1 $209 $327 #
straight-curve $-1 -56.019473667353665 -38.524542213123063 0 0 0 -1 I I #
face $-1 $328 $329 $29 $-1 $330 reversed single #
loop $-1 $-1 $331 $128 #
plane-surface $-1 0 -43.176522267411265 0 0 1 0 0 0 1 forward_v I I I I #
coedge $-1 $226 $332 $220 $333 forward $129 $-1 #
coedge $-1 $134 $131 $334 $335 reversed $81 $-1 #
coedge $-1 $131 $134 $218 $333 reversed $81 $-1 #
coedge $-1 $336 $337 $131 $222 forward $338 $-1 #
edge $-1 $339 -16.860018851771009 $340 16.860018851771009 $221 $341 forward 7 unknown #
coedge $-1 $133 $132 $331 $342 reversed $52 $-1 #
coedge $-1 $334 $343 $132 $225 forward $329 $-1 #
edge $-1 $344 -22.751256147277683 $229 -18.099276092989481 $224 $345 forward 7 unknown #
coedge $-1 $346 $218 $133 $227 forward $129 $-1 #
edge $-1 $228 18.099276092989481 $347 22.751256147277683 $226 $348 forward 7 unknown #
vertex $-1 $227 $349 #
vertex $-1 $225 $350 #
straight-curve $-1 56.019473667353672 -38.524542213123063 0 0 0 -1 I I #
face $-1 $-1 $243 $30 $-1 $351 forward single #
loop $-1 $-1 $352 $136 #
plane-surface $-1 0 43.176522267411265 0 0 -1 0 0 0 -1 forward_v I I I I #
coedge $-1 $353 $354 $355 $356 reversed $137 $-1 #
coedge $-1 $357 $139 $141 $241 forward $85 $-1 #
coedge $-1 $139 $357 $353 $358 forward $85 $-1 #
coedge $-1 $355 $142 $139 $238 forward $243 $-1 #
edge $-1 $245 -33.339254526383669 $359 -12.021183755556322 $237 $360 forward 7 unknown #
coedge $-1 $361 $362 $140 $240 forward $232 $-1 #
edge $-1 $363 -68.386578828392359 $244 -62.265356894519392 $239 $364 forward 7 unknown #
edge $-1 $245 78.969516843317649 $363 86.353044534822487 $141 $365 forward 7 unknown #
coedge $-1 $142 $355 $361 $366 forward $243 $-1 #
loop $-1 $-1 $355 $231 #
vertex $-1 $240 $367 #
vertex $-1 $143 $368 #
straight-curve $-1 -56.019473667353665 53.723781761659637 16.860018851771002 0 -1 0 I I #
coedge $-1 $247 $247 $-1 $369 reversed $146 $-1 #
edge $-1 $370 0 $370 6.2831853071796004 $147 $371 forward 7 unknown #
vertex $-1 $150 $372 #
ellipse-curve $-1 -49.92859630426014 41.112114167767984 13.799407884834526 0 0.82903758062907751 0.55919289150049634 1 0 0 1 I I #
coedge $-1 $251 $251 $-1 $373 reversed $153 $-1 #
edge $-1 $374 0 $374 6.2831853071796004 $154 $375 forward 7 unknown #
vertex $-1 $157 $376 #
ellipse-curve $-1 -40.792280259619851 41.112114167767984 13.799407884834526 0 0.82903758062907751 0.55919289150049634 1 0 0 1 I I #
face $-1 $-1 $377 $33 $-1 $378 forward single #
loop $-1 $-1 $379 $158 #
plane-surface $-1 0 0 16.860018851771009 0 0 1 1 0 0 forward_v I I I I #
coedge $-1 $259 $161 $163 $265 reversed $99 $-1 #
coedge $-1 $161 $258 $379 $380 reversed $99 $-1 #
coedge $-1 $381 $164 $161 $261 forward $159 $-1 #
edge $-1 $268 -32.591619267840258 $382 -26.470397333967249 $260 $383 forward 7 unknown #
coedge $-1 $163 $162 $384 $385 reversed $64 $-1 #
coedge $-1 $386 $387 $162 $264 forward $377 $-1 #
edge $-1 $388 -11.184622254905468 $267 -3.8010945634005866 $263 $389 forward 7 unknown #
edge $-1 $390 -7.3835276915049199 $268 -3.8427911784796275e-014 $258 $391 forward 7 unknown #
coedge $-1 $164 $381 $386 $392 forward $159 $-1 #
vertex $-1 $264 $393 #
vertex $-1 $165 $394 #
straight-curve $-1 -22.680219140969996 -43.176522267411265 10.738796917897995 1 0 0 I I #
coedge $-1 $270 $270 $-1 $395 reversed $168 $-1 #
edge $-1 $396 0 $396 6.2831853071796004 $169 $397 forward 7 unknown #
vertex $-1 $172 $398 #
ellipse-curve $-1 -49.92859630426014 -41.11211416776797 13.799407884834499 0 -0.82903758062907751 0.55919289150049634 1 0 0 1 I I #
coedge $-1 $274 $274 $-1 $399 reversed $175 $-1 #
edge $-1 $400 0 $400 6.2831853071796004 $176 $401 forward 7 unknown #
vertex $-1 $179 $402 #
ellipse-curve $-1 -40.792280259619851 -41.11211416776797 13.799407884834499 0 -0.82903758062907751 0.55919289150049634 1 0 0 1 I I #
face $-1 $-1 $195 $27 $-1 $403 reversed single #
loop $-1 $-1 $294 $180 #
plane-surface $-1 0 43.176522267411265 0 0 -1 0 0 0 -1 forward_v I I I I #
coedge $-1 $404 $292 $295 $405 forward $181 $-1 #
coedge $-1 $298 $183 $184 $286 reversed $113 $-1 #
coedge $-1 $292 $404 $183 $284 reversed $181 $-1 #
edge $-1 $299 -16.860018851771009 $406 16.860018851771009 $283 $407 forward 7 unknown #
coedge $-1 $185 $184 $404 $408 forward $73 $-1 #
edge $-1 $290 -67.885372478408158 $406 67.885372478408158 $282 $409 forward 7 unknown #
coedge $-1 $295 $294 $185 $288 reversed $279 $-1 #
edge $-1 $410 -67.885372478408158 $289 67.885372478408158 $287 $411 forward 7 unknown #
vertex $-1 $187 $412 #
vertex $-1 $301 $413 #
straight-curve $-1 67.885372478408158 0 -16.860018851771009 0 -1 0 I I #
coedge $-1 $281 $283 $188 $293 reversed $181 $-1 #
edge $-1 $296 -43.176522267411265 $299 43.176522267411265 $292 $414 forward 7 unknown #
coedge $-1 $287 $189 $194 $302 forward $279 $-1 #
coedge $-1 $189 $287 $281 $405 reversed $279 $-1 #
vertex $-1 $190 $415 #
straight-curve $-1 0 43.176522267411265 16.860018851771009 -1 0 0 I I #
coedge $-1 $191 $282 $193 $301 reversed $113 $-1 #
vertex $-1 $293 $416 #
straight-curve $-1 0 -43.176522267411265 16.860018851771009 1 0 0 I I #
edge $-1 $196 -16.860018851771009 $290 16.860018851771009 $193 $417 forward 7 unknown #
edge $-1 $197 -16.860018851771009 $289 16.860018851771009 $194 $418 forward 7 unknown #
point $-1 67.885372478408158 -43.176522267411265 16.860018851771009 #
point $-1 67.885372478408158 43.176522267411265 16.860018851771009 #
face $-1 $-1 $315 $28 $-1 $419 reversed single #
loop $-1 $-1 $311 $199 #
plane-surface $-1 0 0 -16.860018851771009 0 0 1 1 0 0 forward_v I I I I #
coedge $-1 $420 $421 $207 $319 forward $200 $-1 #
coedge $-1 $202 $323 $313 $422 forward $121 $-1 #
edge $-1 $317 -22.751256147277683 $212 -18.099276092989481 $202 $423 forward 7 unknown #
coedge $-1 $424 $208 $203 $312 forward $306 $-1 #
edge $-1 $213 18.099276092989481 $316 22.751256147277683 $311 $425 forward 7 unknown #
coedge $-1 $426 $205 $309 $422 reversed $315 $-1 #
coedge $-1 $205 $426 $424 $427 reversed $315 $-1 #
loop $-1 $-1 $205 $305 #
vertex $-1 $427 $428 #
vertex $-1 $206 $429 #
straight-curve $-1 -56.019473667353665 -43.176522267411265 0 0 0 1 I I #
edge $-1 $324 -16.860018851771009 $321 16.860018851771009 $308 $430 forward 7 unknown #
coedge $-1 $208 $424 $420 $431 forward $306 $-1 #
vertex $-1 $209 $432 #
straight-curve $-1 -30.976211536440456 -38.524542213123063 -16.860018851771009 1 0 0 I I #
coedge $-1 $309 $210 $421 $433 forward $121 $-1 #
vertex $-1 $433 $434 #
straight-curve $-1 -30.976211536440456 -38.524542213123063 16.860018851771009 -1 0 0 I I #
point $-1 -56.019473667353665 -38.524542213123063 16.860018851771009 #
point $-1 -56.019473667353665 -38.524542213123063 -16.860018851771009 #
face $-1 $-1 $338 $29 $-1 $435 reversed single #
loop $-1 $-1 $334 $215 #
plane-surface $-1 0 0 -16.860018851771009 0 0 1 1 0 0 forward_v I I I I #
coedge $-1 $436 $437 $223 $342 forward $216 $-1 #
coedge $-1 $218 $346 $336 $438 forward $129 $-1 #
edge $-1 $340 -36.909160941967698 $228 -25.043262130913213 $218 $439 forward 7 unknown #
coedge $-1 $440 $224 $219 $335 forward $329 $-1 #
edge $-1 $229 25.043262130913213 $339 36.909160941967698 $334 $441 forward 7 unknown #
coedge $-1 $442 $221 $332 $438 reversed $338 $-1 #
coedge $-1 $221 $442 $440 $443 reversed $338 $-1 #
loop $-1 $-1 $221 $328 #
vertex $-1 $443 $444 #
vertex $-1 $222 $445 #
straight-curve $-1 67.885372478408158 -38.524542213123063 0 0 0 1 I I #
edge $-1 $347 -16.860018851771009 $344 16.860018851771009 $331 $446 forward 7 unknown #
coedge $-1 $224 $440 $436 $447 forward $329 $-1 #
vertex $-1 $225 $448 #
straight-curve $-1 56.019473667353672 -20.425266120133582 -16.860018851771009 0 1 0 I I #
coedge $-1 $332 $226 $437 $449 forward $129 $-1 #
vertex $-1 $449 $450 #
straight-curve $-1 56.019473667353672 -20.425266120133582 16.860018851771009 0 -1 0 I I #
point $-1 56.019473667353672 -38.524542213123063 16.860018851771009 #
point $-1 56.019473667353672 -38.524542213123063 -16.860018851771009 #
plane-surface $-1 0 0 16.860018851771009 0 0 1 1 0 0 forward_v I I I I #
coedge $-1 $362 $361 $354 $451 forward $232 $-1 #
coedge $-1 $354 $234 $236 $358 reversed $137 $-1 #
coedge $-1 $234 $353 $352 $451 reversed $137 $-1 #
coedge $-1 $242 $237 $234 $356 forward $243 $-1 #
edge $-1 $359 -14.676075693534955 $452 -10.547259494248372 $355 $453 forward 7 unknown #
coedge $-1 $236 $235 $362 $454 reversed $85 $-1 #
edge $-1 $455 -86.353044534822487 $359 -78.969516843317649 $353 $456 forward 7 unknown #
vertex $-1 $238 $457 #
straight-curve $-1 -22.680219140969996 39.04770606812469 16.860018851771009 1 0 0 I I #
coedge $-1 $352 $239 $242 $366 reversed $232 $-1 #
coedge $-1 $239 $352 $357 $454 forward $232 $-1 #
vertex $-1 $240 $458 #
straight-curve $-1 -56.019473667353665 43.176522267411265 79.125375746290402 0 0 1 I I #
straight-curve $-1 -56.019473667353665 -5.1114863958872547 82.328716039002259 0 0.55919289150049634 -0.82903758062907751 I I #
edge $-1 $452 34.701402896526318 $244 56.019473667353665 $361 $459 forward 7 unknown #
point $-1 -56.019473667353665 43.176522267411265 16.860018851771009 #
point $-1 -56.019473667353665 39.047706068124683 16.860018851771017 #
edge $-1 $460 1 $460 0 $247 $-1 forward 7 unknown #
vertex $-1 $248 $461 #
ellipse-curve $-1 -49.92859630426014 38.370852968670135 11.950403916741214 0 0.82903758062907751 0.55919289150049634 1 0 0 1 I I #
point $-1 -48.92859630426014 41.112114167767949 13.799407884834501 #
edge $-1 $462 1 $462 0 $251 $-1 forward 7 unknown #
vertex $-1 $252 $463 #
ellipse-curve $-1 -40.792280259619851 38.370852968670135 11.950403916741214 0 0.82903758062907751 0.55919289150049634 1 0 0 1 I I #
point $-1 -39.792280259619851 41.112114167767949 13.799407884834501 #
loop $-1 $-1 $263 $255 #
plane-surface $-1 -56.019473667353665 -40.850532240267164 0 -1 0 0 0 0 1 forward_v I I I I #
coedge $-1 $384 $464 $259 $380 forward $256 $-1 #
edge $-1 $382 34.691263825897643 $390 38.82008002518424 $379 $465 forward 7 unknown #
coedge $-1 $266 $260 $464 $466 reversed $159 $-1 #
vertex $-1 $261 $467 #
straight-curve $-1 -34.701402896526318 -43.176522267411265 43.330416185738258 0 0 1 I I #
coedge $-1 $468 $379 $262 $385 forward $256 $-1 #
edge $-1 $390 12.021183755556322 $388 33.339254526383669 $384 $469 forward 7 unknown #
coedge $-1 $387 $263 $266 $392 reversed $377 $-1 #
coedge $-1 $263 $386 $468 $470 reversed $377 $-1 #
vertex $-1 $470 $471 #
straight-curve $-1 -56.019473667353665 -45.302067327186059 7.5875466773140445 0 -0.55919289150049634 -0.82903758062907751 I I #
vertex $-1 $385 $472 #
straight-curve $-1 -34.701402896526318 -43.176522267411286 10.738796917897972 0 -0.55919289150049634 -0.82903758062907751 I I #
edge $-1 $473 -16.860018851771009 $267 -10.738796917898004 $266 $474 forward 7 unknown #
point $-1 -56.019473667353665 -43.176522267411265 10.738796917898004 #
point $-1 -34.701402896526318 -43.176522267411265 10.738796917898004 #
edge $-1 $475 1 $475 0 $270 $-1 forward 7 unknown #
vertex $-1 $271 $476 #
ellipse-curve $-1 -49.92859630426014 -38.370852968670135 11.950403916741196 0 -0.82903758062907751 0.55919289150049634 1 0 0 1 I I #
point $-1 -48.92859630426014 -41.112114167767949 13.799407884834483 #
edge $-1 $477 1 $477 0 $274 $-1 forward 7 unknown #
vertex $-1 $275 $478 #
ellipse-curve $-1 -40.792280259619851 -38.370852968670135 11.950403916741196 0 -0.82903758062907751 0.55919289150049634 1 0 0 1 I I #
point $-1 -39.792280259619851 -41.112114167767949 13.799407884834483 #
plane-surface $-1 67.885372478408158 0 0 -1 0 0 0 0 1 forward_v I I I I #
coedge $-1 $283 $281 $285 $408 reversed $181 $-1 #
edge $-1 $296 -16.860018851771009 $410 16.860018851771009 $295 $479 forward 7 unknown #
vertex $-1 $408 $480 #
straight-curve $-1 -67.885372478408158 -43.176522267411265 0 0 0 -1 I I #
edge $-1 $406 -43.176522267411265 $410 43.176522267411265 $404 $481 forward 7 unknown #
straight-curve $-1 0 -43.176522267411265 -16.860018851771009 -1 0 0 I I #
vertex $-1 $288 $482 #
straight-curve $-1 0 43.176522267411265 -16.860018851771009 1 0 0 I I #
point $-1 67.885372478408158 43.176522267411265 -16.860018851771009 #
point $-1 67.885372478408158 -43.176522267411265 -16.860018851771009 #
straight-curve $-1 -67.885372478408158 0 16.860018851771009 0 -1 0 I I #
point $-1 -67.885372478408158 43.176522267411265 16.860018851771009 #
point $-1 -67.885372478408158 -43.176522267411265 16.860018851771009 #
straight-curve $-1 67.885372478408158 -43.176522267411265 0 0 0 -1 I I #
straight-curve $-1 67.885372478408158 43.176522267411265 0 0 0 -1 I I #
plane-surface $-1 0 -43.176522267411265 0 0 1 0 0 0 1 forward_v I I I I #
coedge $-1 $483 $308 $320 $431 reversed $200 $-1 #
coedge $-1 $308 $483 $323 $433 reversed $200 $-1 #
edge $-1 $484 -67.885372478408158 $317 -56.019473667353665 $313 $485 forward 7 unknown #
straight-curve $-1 -56.019473667353665 -20.425266120133582 16.860018851771009 0 1 0 I I #
coedge $-1 $320 $311 $314 $427 forward $306 $-1 #
straight-curve $-1 -56.019473667353665 -20.425266120133582 -16.860018851771009 0 -1 0 I I #
coedge $-1 $314 $313 $483 $486 forward $315 $-1 #
edge $-1 $316 56.019473667353665 $487 67.885372478408158 $314 $488 forward 7 unknown #
point $-1 -56.019473667353665 -43.176522267411265 -16.860018851771009 #
point $-1 -56.019473667353665 -43.176522267411265 16.860018851771009 #
straight-curve $-1 -67.885372478408158 -38.524542213123063 0 0 0 -1 I I #
edge $-1 $487 -43.176522267411265 $321 -38.524542213123063 $420 $489 forward 7 unknown #
point $-1 -67.885372478408158 -38.524542213123063 -16.860018851771009 #
edge $-1 $324 38.524542213123063 $484 43.176522267411265 $421 $490 forward 7 unknown #
point $-1 -67.885372478408158 -38.524542213123063 16.860018851771009 #
plane-surface $-1 67.885372478408158 0 0 -1 0 0 0 0 1 forward_v I I I I #
coedge $-1 $491 $331 $343 $447 reversed $216 $-1 #
coedge $-1 $331 $491 $346 $449 reversed $216 $-1 #
edge $-1 $492 -43.176522267411265 $340 -38.524542213123063 $336 $493 forward 7 unknown #
straight-curve $-1 30.976211536440459 -38.524542213123063 16.860018851771009 -1 0 0 I I #
coedge $-1 $343 $334 $337 $443 forward $329 $-1 #
straight-curve $-1 30.976211536440459 -38.524542213123063 -16.860018851771009 1 0 0 I I #
coedge $-1 $337 $336 $491 $494 forward $338 $-1 #
edge $-1 $339 38.524542213123063 $495 43.176522267411265 $337 $496 forward 7 unknown #
point $-1 67.885372478408158 -38.524542213123063 -16.860018851771009 #
point $-1 67.885372478408158 -38.524542213123063 16.860018851771009 #
straight-curve $-1 56.019473667353672 -43.176522267411265 0 0 0 -1 I I #
edge $-1 $495 -67.885372478408158 $344 -56.019473667353672 $436 $497 forward 7 unknown #
point $-1 56.019473667353672 -43.176522267411265 -16.860018851771009 #
edge $-1 $347 56.019473667353672 $492 67.885372478408158 $437 $498 forward 7 unknown #
point $-1 56.019473667353672 -43.176522267411265 16.860018851771009 #
edge $-1 $452 62.265356894519392 $455 68.386578828392359 $352 $499 forward 7 unknown #
vertex $-1 $366 $500 #
straight-curve $-1 -34.701402896526318 53.723781761659637 16.860018851771002 0 1 0 I I #
edge $-1 $455 12.021183755556322 $363 33.339254526383669 $362 $501 forward 7 unknown #
vertex $-1 $454 $502 #
straight-curve $-1 -34.701402896526318 -5.1114863958872547 82.328716039002259 0 -0.55919289150049634 0.82903758062907751 I I #
point $-1 -34.701402896526318 39.047706068124683 16.860018851771017 #
point $-1 -56.019473667353665 43.176522267411265 10.738796917898043 #
straight-curve $-1 0 43.176522267411265 16.860018851771009 -1 0 0 I I #
vertex $-1 $369 $503 #
point $-1 -48.92859630426014 38.370852968670135 11.950403916741214 #
vertex $-1 $373 $504 #
point $-1 -39.792280259619851 38.370852968670135 11.950403916741214 #
coedge $-1 $379 $468 $381 $466 forward $256 $-1 #
straight-curve $-1 -34.701402896526318 -77.867786093308908 16.860018851771009 0 1 0 I I #
edge $-1 $473 -56.019473667353665 $382 -34.701402896526318 $381 $505 forward 7 unknown #
point $-1 -34.701402896526318 -43.176522267411265 16.860018851771009 #
coedge $-1 $464 $384 $387 $470 forward $256 $-1 #
straight-curve $-1 -22.680219140969996 -39.047706068124668 16.860018851771009 -1 0 0 I I #
edge $-1 $388 18.622439947991086 $473 22.751256147277683 $468 $506 forward 7 unknown #
point $-1 -56.019473667353665 -39.047706068124668 16.860018851771009 #
point $-1 -34.701402896526318 -39.047706068124668 16.860018851771009 #
vertex $-1 $466 $507 #
straight-curve $-1 -56.019473667353665 -43.176522267411265 0 0 0 -1 I I #
vertex $-1 $395 $508 #
point $-1 -48.92859630426014 -38.370852968670135 11.950403916741196 #
vertex $-1 $399 $509 #
point $-1 -39.792280259619851 -38.370852968670135 11.950403916741196 #
straight-curve $-1 -67.885372478408158 43.176522267411265 0 0 0 -1 I I #
point $-1 -67.885372478408158 -43.176522267411265 -16.860018851771009 #
straight-curve $-1 -67.885372478408158 0 -16.860018851771009 0 1 0 I I #
point $-1 -67.885372478408158 43.176522267411265 -16.860018851771009 #
coedge $-1 $421 $420 $426 $486 reversed $200 $-1 #
vertex $-1 $433 $510 #
straight-curve $-1 0 -43.176522267411265 16.860018851771009 1 0 0 I I #
edge $-1 $484 -16.860018851771009 $487 16.860018851771009 $483 $511 forward 7 unknown #
vertex $-1 $431 $512 #
straight-curve $-1 0 -43.176522267411265 -16.860018851771009 -1 0 0 I I #
straight-curve $-1 -67.885372478408158 0 -16.860018851771009 0 1 0 I I #
straight-curve $-1 -67.885372478408158 0 16.860018851771009 0 -1 0 I I #
coedge $-1 $437 $436 $442 $494 reversed $216 $-1 #
vertex $-1 $438 $513 #
straight-curve $-1 67.885372478408158 0 16.860018851771009 0 1 0 I I #
edge $-1 $492 -16.860018851771009 $495 16.860018851771009 $442 $514 forward 7 unknown #
vertex $-1 $494 $515 #
straight-curve $-1 67.885372478408158 0 -16.860018851771009 0 -1 0 I I #
straight-curve $-1 0 -43.176522267411265 -16.860018851771009 -1 0 0 I I #
straight-curve $-1 0 -43.176522267411265 16.860018851771009 1 0 0 I I #
straight-curve $-1 -34.701402896526318 43.176522267411265 79.125375746290402 0 0 -1 I I #
point $-1 -34.701402896526318 43.176522267411265 16.860018851771009 #
straight-curve $-1 -22.680219140969996 43.176522267411272 10.738796917898028 -1 0 0 I I #
point $-1 -34.701402896526318 43.176522267411265 10.738796917898043 #
point $-1 -49.92859630426014 37.541815388041059 11.391211025240716 #
point $-1 -40.792280259619851 37.541815388041059 11.391211025240716 #
straight-curve $-1 0 -43.176522267411265 16.860018851771009 1 0 0 I I #
straight-curve $-1 -56.019473667353665 -20.425266120133582 16.860018851771009 0 -1 0 I I #
point $-1 -56.019473667353665 -43.176522267411265 16.860018851771009 #
point $-1 -49.92859630426014 -37.541815388041059 11.391211025240699 #
point $-1 -40.792280259619851 -37.541815388041059 11.391211025240699 #
point $-1 -67.885372478408158 -43.176522267411265 16.860018851771009 #
straight-curve $-1 -67.885372478408158 -43.176522267411265 0 0 0 -1 I I #
point $-1 -67.885372478408158 -43.176522267411265 -16.860018851771009 #
point $-1 67.885372478408158 -43.176522267411265 16.860018851771009 #
straight-curve $-1 67.885372478408158 -43.176522267411265 0 0 0 -1 I I #
point $-1 67.885372478408158 -43.176522267411265 -16.860018851771009 #
End-of-ACIS-data 