500 0 4 0           
7 Unknown 11 ACIS 5.0 NT 24 Thu Mar 25 23:58:04 1999 
-1 9.9999999999999995e-007 1e-010 
body $-1 $4 $-1 $5 #
body $-1 $6 $-1 $7 #
body $-1 $8 $-1 $9 #
body $-1 $10 $-1 $11 #
lump $-1 $-1 $12 $0 #
transform $-1 1 0 0 0 1 0 0 0 1 53.060701315347757 27.24674380510605 12.78668640749099 1 rotate no_reflect no_shear #
lump $-1 $-1 $13 $1 #
transform $-1 1 0 0 0 1 0 0 0 1 53.060701315347757 27.24674380510605 12.78668640749099 1 rotate no_reflect no_shear #
lump $-1 $-1 $14 $2 #
transform $-1 1 0 0 0 1 0 0 0 1 53.060701315347757 27.24674380510605 12.78668640749099 1 rotate no_reflect no_shear #
lump $-1 $-1 $15 $3 #
transform $-1 1 0 0 0 1 0 0 0 1 53.060701315347757 27.24674380510605 12.78668640749099 1 rotate no_reflect no_shear #
shell $-1 $-1 $-1 $16 $-1 $4 #
shell $-1 $-1 $-1 $17 $-1 $6 #
shell $-1 $-1 $-1 $18 $-1 $8 #
shell $-1 $-1 $-1 $19 $-1 $10 #
face $-1 $20 $21 $12 $-1 $22 forward single #
face $-1 $23 $24 $13 $-1 $25 forward single #
face $-1 $26 $27 $14 $-1 $28 reversed single #
face $-1 $29 $30 $15 $-1 $31 forward single #
face $-1 $32 $33 $12 $-1 $34 reversed single #
loop $-1 $-1 $35 $16 #
plane-surface $-1 0 0 12.78668640749099 0 0 1 1 0 0 forward_v I I I I #
face $-1 $36 $37 $13 $-1 $38 forward single #
loop $-1 $-1 $39 $17 #
plane-surface $-1 -53.060701315347757 0 0 1 0 0 0 0 -1 forward_v I I I I #
face $-1 $40 $41 $14 $-1 $42 reversed single #
loop $-1 $-1 $43 $18 #
plane-surface $-1 45.206210190851209 7.7230442433489781 152.92869325004006 0 -1 0 -0.66913061440640931 0 -0.74314481823134659 forward_v I I I I #
face $-1 $44 $45 $15 $-1 $46 forward single #
loop $-1 $47 $48 $19 #
cone-surface $-1 45.733548222867235 3.5153984721024401 5.7849171238026589 -0.66913061440640931 0 -0.74314481823134659 1.4862896364626932 0 -1.3382612288128186 1 I I 0 1 2 forward I I I I #
face $-1 $49 $50 $12 $-1 $51 reversed single #
loop $-1 $-1 $52 $20 #
plane-surface $-1 0 0 -12.78668640749099 0 0 1 1 0 0 forward_v I I I I #
coedge $-1 $53 $54 $55 $56 forward $21 $-1 #
face $-1 $57 $58 $13 $-1 $59 reversed single #
loop $-1 $-1 $60 $23 #
plane-surface $-1 0 0 12.78668640749099 0 0 1 1 0 0 forward_v I I I I #
coedge $-1 $61 $62 $63 $64 forward $24 $-1 #
face $-1 $65 $66 $14 $-1 $67 reversed single #
loop $-1 $-1 $68 $26 #
plane-surface $-1 -25.802869153096026 3.5153984721024401 74.065122781596287 0.66913061440640931 0 0.74314481823134659 0.74314481823134659 0 -0.66913061440640931 forward_v I I I I #
coedge $-1 $69 $70 $71 $72 reversed $27 $-1 #
face $-1 $-1 $73 $15 $-1 $74 forward single #
loop $-1 $75 $76 $29 #
cone-surface $-1 43.14075132812701 3.5153984721024401 2.9053245068039217 -0.66913061440640931 0 -0.74314481823134659 0.74314481823134659 0 -0.66913061440640931 1 I I -0.70710678118654746 0.70710678118654746 1 forward I I I I #
loop $-1 $-1 $77 $19 #
coedge $-1 $48 $48 $78 $79 reversed $30 $-1 #
face $-1 $80 $81 $12 $-1 $82 reversed single #
loop $-1 $-1 $83 $32 #
plane-surface $-1 0 -27.24674380510605 0 0 1 0 0 0 1 forward_v I I I I #
coedge $-1 $84 $85 $86 $87 forward $33 $-1 #
coedge $-1 $88 $35 $89 $90 forward $21 $-1 #
coedge $-1 $35 $88 $91 $92 forward $21 $-1 #
coedge $-1 $93 $94 $35 $56 reversed $95 $-1 #
edge $-1 $96 -27.24674380510605 $97 27.24674380510605 $55 $98 forward 7 unknown #
face $-1 $99 $100 $13 $-1 $101 reversed single #
loop $-1 $-1 $102 $36 #
plane-surface $-1 -64.532591532188661 -24.050872175984406 0 1 0 0 0 0 -1 forward_v I I I I #
coedge $-1 $103 $104 $61 $105 forward $37 $-1 #
coedge $-1 $106 $39 $60 $105 reversed $24 $-1 #
coedge $-1 $39 $106 $107 $108 reversed $24 $-1 #
coedge $-1 $109 $110 $39 $64 reversed $100 $-1 #
edge $-1 $111 -12.78668640749099 $112 12.78668640749099 $63 $113 forward 7 unknown #
face $-1 $114 $115 $14 $-1 $116 forward single #
loop $-1 $-1 $117 $40 #
plane-surface $-1 45.206210190851209 -0.69224729914409799 152.92869325004006 0 1 0 0.66913061440640931 0 0.74314481823134659 forward_v I I I I #
coedge $-1 $118 $119 $120 $121 reversed $41 $-1 #
coedge $-1 $70 $43 $122 $123 reversed $27 $-1 #
coedge $-1 $43 $69 $118 $124 reversed $27 $-1 #
coedge $-1 $120 $125 $43 $72 forward $115 $-1 #
edge $-1 $126 -30.457596219922152 $127 -19.650622595628718 $71 $128 forward 7 unknown #
loop $-1 $-1 $78 $44 #
plane-surface $-1 -25.802869153096026 3.5153984721024401 74.065122781596287 0.66913061440640931 0 0.74314481823134659 0.74314481823134659 0 -0.66913061440640931 forward_v I I I I #
loop $-1 $-1 $129 $29 #
coedge $-1 $76 $76 $77 $130 reversed $45 $-1 #
coedge $-1 $77 $77 $76 $130 forward $47 $-1 #
coedge $-1 $78 $78 $48 $79 forward $73 $-1 #
edge $-1 $131 0 $131 6.2831853071796004 $78 $132 forward 7 unknown #
face $-1 $133 $134 $12 $-1 $135 reversed single #
loop $-1 $-1 $136 $49 #
plane-surface $-1 -53.060701315347757 0 0 1 0 0 0 0 -1 forward_v I I I I #
coedge $-1 $137 $91 $138 $139 forward $50 $-1 #
coedge $-1 $140 $52 $137 $141 forward $33 $-1 #
coedge $-1 $52 $140 $142 $143 forward $33 $-1 #
coedge $-1 $94 $93 $52 $87 reversed $95 $-1 #
edge $-1 $144 -27.24674380510605 $145 27.24674380510605 $86 $146 forward 7 unknown #
coedge $-1 $54 $53 $136 $147 forward $21 $-1 #
coedge $-1 $148 $149 $53 $90 reversed $134 $-1 #
edge $-1 $97 -53.060701315347757 $150 53.060701315347757 $89 $151 forward 7 unknown #
coedge $-1 $83 $152 $54 $92 reversed $50 $-1 #
edge $-1 $153 -53.060701315347757 $96 53.060701315347757 $91 $154 forward 7 unknown #
coedge $-1 $86 $55 $152 $155 forward $95 $-1 #
coedge $-1 $55 $86 $148 $156 reversed $95 $-1 #
loop $-1 $-1 $93 $133 #
vertex $-1 $56 $157 #
vertex $-1 $56 $158 #
straight-curve $-1 53.060701315347757 0 12.78668640749099 0 1 0 I I #
face $-1 $159 $160 $13 $-1 $161 reversed single #
loop $-1 $-1 $63 $57 #
plane-surface $-1 -58.796646423768209 -20.855000546862762 0 0 -1 0 0 0 -1 forward_v I I I I #
coedge $-1 $162 $163 $164 $165 forward $58 $-1 #
coedge $-1 $166 $60 $110 $167 forward $37 $-1 #
coedge $-1 $60 $166 $168 $169 forward $37 $-1 #
edge $-1 $170 -27.24674380510605 $112 -20.855000546862762 $60 $171 forward 7 unknown #
coedge $-1 $62 $61 $172 $173 reversed $24 $-1 #
coedge $-1 $174 $175 $62 $108 forward $160 $-1 #
edge $-1 $111 20.855000546862762 $176 27.24674380510605 $107 $177 forward 7 unknown #
coedge $-1 $164 $63 $175 $178 reversed $100 $-1 #
coedge $-1 $63 $164 $103 $167 reversed $100 $-1 #
vertex $-1 $108 $179 #
vertex $-1 $167 $180 #
straight-curve $-1 -53.060701315347757 -20.855000546862762 0 0 0 1 I I #
face $-1 $-1 $181 $14 $-1 $182 reversed single #
loop $-1 $-1 $71 $65 #
plane-surface $-1 0 0 12.78668640749099 0 0 1 1 0 0 forward_v I I I I #
coedge $-1 $183 $184 $185 $186 reversed $66 $-1 #
coedge $-1 $187 $68 $70 $124 forward $41 $-1 #
coedge $-1 $68 $187 $183 $188 forward $41 $-1 #
coedge $-1 $185 $71 $68 $121 forward $115 $-1 #
edge $-1 $127 -5.9653450072977581 $189 2.449946535195318 $120 $190 forward 7 unknown #
coedge $-1 $191 $192 $69 $123 forward $181 $-1 #
edge $-1 $193 -73.40830318737099 $126 -63.677660217529038 $122 $194 forward 7 unknown #
edge $-1 $127 91.579185072059289 $193 106.12140263069554 $70 $195 forward 7 unknown #
coedge $-1 $71 $185 $191 $196 forward $115 $-1 #
vertex $-1 $72 $197 #
vertex $-1 $72 $198 #
straight-curve $-1 22.603105095425605 7.7230442433489781 12.78668640749099 -1 0 0 I I #
coedge $-1 $129 $129 $-1 $199 reversed $75 $-1 #
edge $-1 $200 0 $200 6.2831853071796004 $76 $201 forward 7 unknown #
vertex $-1 $79 $202 #
ellipse-curve $-1 47.657214503201033 3.5153984721024401 7.9213649225700307 0.66913061440640931 0 0.74314481823134659 1.4862896364626932 0 -1.3382612288128186 1 I I #
face $-1 $-1 $95 $12 $-1 $203 reversed single #
loop $-1 $-1 $148 $80 #
plane-surface $-1 0 27.24674380510605 0 0 -1 0 0 0 -1 forward_v I I I I #
coedge $-1 $204 $138 $88 $147 reversed $81 $-1 #
coedge $-1 $152 $83 $84 $141 reversed $50 $-1 #
coedge $-1 $136 $205 $83 $139 reversed $81 $-1 #
edge $-1 $153 -12.78668640749099 $206 12.78668640749099 $138 $207 forward 7 unknown #
coedge $-1 $85 $84 $205 $208 forward $33 $-1 #
edge $-1 $145 -53.060701315347757 $206 53.060701315347757 $137 $209 forward 7 unknown #
coedge $-1 $149 $148 $85 $143 reversed $134 $-1 #
edge $-1 $210 -53.060701315347757 $144 53.060701315347757 $142 $211 forward 7 unknown #
vertex $-1 $87 $212 #
vertex $-1 $155 $213 #
straight-curve $-1 53.060701315347757 0 -12.78668640749099 0 -1 0 I I #
edge $-1 $150 -27.24674380510605 $153 27.24674380510605 $136 $214 forward 7 unknown #
coedge $-1 $142 $89 $94 $156 forward $134 $-1 #
coedge $-1 $89 $142 $204 $215 reversed $134 $-1 #
vertex $-1 $90 $216 #
straight-curve $-1 0 27.24674380510605 12.78668640749099 -1 0 0 I I #
coedge $-1 $91 $137 $93 $155 reversed $50 $-1 #
vertex $-1 $147 $217 #
straight-curve $-1 0 -27.24674380510605 12.78668640749099 1 0 0 I I #
edge $-1 $96 -12.78668640749099 $145 12.78668640749099 $93 $218 forward 7 unknown #
edge $-1 $97 -12.78668640749099 $144 12.78668640749099 $94 $219 forward 7 unknown #
point $-1 53.060701315347757 -27.24674380510605 12.78668640749099 #
point $-1 53.060701315347757 27.24674380510605 12.78668640749099 #
face $-1 $-1 $220 $13 $-1 $221 reversed single #
loop $-1 $-1 $107 $99 #
plane-surface $-1 0 0 -12.78668640749099 0 0 1 1 0 0 forward_v I I I I #
coedge $-1 $222 $102 $223 $224 reversed $58 $-1 #
coedge $-1 $102 $222 $166 $225 reversed $58 $-1 #
coedge $-1 $110 $109 $102 $165 reversed $100 $-1 #
edge $-1 $226 -12.78668640749099 $227 12.78668640749099 $164 $228 forward 7 unknown #
coedge $-1 $104 $103 $163 $225 forward $37 $-1 #
edge $-1 $112 -5.7359451084204522 $226 5.7359451084204522 $110 $229 forward 7 unknown #
coedge $-1 $230 $172 $104 $169 reversed $220 $-1 #
edge $-1 $231 -64.532591532188661 $170 -53.060701315347757 $168 $232 forward 7 unknown #
vertex $-1 $173 $233 #
straight-curve $-1 -53.060701315347757 0 12.78668640749099 0 1 0 I I #
coedge $-1 $168 $234 $106 $173 forward $220 $-1 #
edge $-1 $176 -12.78668640749099 $170 12.78668640749099 $172 $235 forward 7 unknown #
coedge $-1 $223 $107 $234 $236 forward $160 $-1 #
coedge $-1 $107 $223 $109 $178 forward $160 $-1 #
vertex $-1 $236 $237 #
straight-curve $-1 -53.060701315347757 0 -12.78668640749099 0 -1 0 I I #
edge $-1 $227 -5.7359451084204522 $111 5.7359451084204522 $109 $238 forward 7 unknown #
point $-1 -53.060701315347757 -20.855000546862762 -12.78668640749099 #
point $-1 -53.060701315347757 -20.855000546862762 12.78668640749099 #
loop $-1 $-1 $122 $114 #
plane-surface $-1 53.060701315347757 0 0 -1 0 0 0 0 1 forward_v I I I I #
coedge $-1 $184 $117 $119 $188 reversed $66 $-1 #
coedge $-1 $117 $183 $239 $240 reversed $66 $-1 #
coedge $-1 $125 $120 $117 $186 forward $115 $-1 #
edge $-1 $189 19.650622595628718 $241 30.457596219922152 $185 $242 forward 7 unknown #
coedge $-1 $119 $118 $192 $243 reversed $41 $-1 #
edge $-1 $244 -106.12140263069554 $189 -91.579185072059289 $183 $245 forward 7 unknown #
vertex $-1 $121 $246 #
straight-curve $-1 42.253727691054323 1.75769923605122 12.786686407490983 0 -1 0 I I #
coedge $-1 $239 $122 $125 $196 reversed $181 $-1 #
coedge $-1 $122 $239 $187 $243 forward $181 $-1 #
vertex $-1 $123 $247 #
straight-curve $-1 53.060701315347757 7.7230442433489781 76.464346625020028 0 0 1 I I #
straight-curve $-1 -25.802869153096026 7.7230442433489781 74.065122781596287 0.74314481823134659 0 -0.66913061440640931 I I #
edge $-1 $241 -0.69224729914409799 $126 7.7230442433489781 $191 $248 forward 7 unknown #
point $-1 53.060701315347757 7.7230442433489781 12.78668640749099 #
point $-1 42.253727691054323 7.7230442433489781 12.78668640749099 #
edge $-1 $249 1 $249 0 $129 $-1 forward 7 unknown #
vertex $-1 $130 $250 #
ellipse-curve $-1 43.809881942533423 3.5153984721024401 3.6484693250352684 0.66913061440640931 0 0.74314481823134659 1.4862896364626932 0 -1.3382612288128186 1 I I #
point $-1 49.143504139663747 3.5153984721024401 6.5831036937572307 #
plane-surface $-1 53.060701315347757 0 0 -1 0 0 0 0 1 forward_v I I I I #
coedge $-1 $205 $136 $149 $215 forward $81 $-1 #
coedge $-1 $138 $204 $140 $208 reversed $81 $-1 #
vertex $-1 $208 $251 #
straight-curve $-1 -53.060701315347757 -27.24674380510605 0 0 0 -1 I I #
edge $-1 $206 -27.24674380510605 $210 27.24674380510605 $205 $252 forward 7 unknown #
straight-curve $-1 0 -27.24674380510605 -12.78668640749099 -1 0 0 I I #
vertex $-1 $143 $253 #
straight-curve $-1 0 27.24674380510605 -12.78668640749099 1 0 0 I I #
point $-1 53.060701315347757 27.24674380510605 -12.78668640749099 #
point $-1 53.060701315347757 -27.24674380510605 -12.78668640749099 #
straight-curve $-1 -53.060701315347757 0 12.78668640749099 0 -1 0 I I #
edge $-1 $150 -12.78668640749099 $210 12.78668640749099 $149 $254 forward 7 unknown #
point $-1 -53.060701315347757 27.24674380510605 12.78668640749099 #
point $-1 -53.060701315347757 -27.24674380510605 12.78668640749099 #
straight-curve $-1 53.060701315347757 -27.24674380510605 0 0 0 -1 I I #
straight-curve $-1 53.060701315347757 27.24674380510605 0 0 0 -1 I I #
loop $-1 $-1 $172 $159 #
plane-surface $-1 0 -27.24674380510605 0 0 1 0 0 0 1 forward_v I I I I #
coedge $-1 $163 $162 $230 $255 reversed $58 $-1 #
coedge $-1 $175 $174 $162 $224 forward $160 $-1 #
edge $-1 $256 -3.195871629121644 $227 3.195871629121644 $162 $257 forward 7 unknown #
edge $-1 $226 -3.195871629121644 $231 3.195871629121644 $163 $258 forward 7 unknown #
vertex $-1 $167 $259 #
vertex $-1 $178 $260 #
straight-curve $-1 -64.532591532188661 -20.855000546862762 0 0 0 -1 I I #
straight-curve $-1 -58.796646423768209 -20.855000546862762 12.78668640749099 -1 0 0 I I #
coedge $-1 $234 $168 $222 $255 forward $220 $-1 #
vertex $-1 $225 $261 #
straight-curve $-1 0 -27.24674380510605 12.78668640749099 1 0 0 I I #
point $-1 -53.060701315347757 -27.24674380510605 12.78668640749099 #
coedge $-1 $172 $230 $174 $236 reversed $220 $-1 #
straight-curve $-1 -53.060701315347757 -27.24674380510605 0 0 0 1 I I #
edge $-1 $176 -5.7359451084204522 $256 5.7359451084204522 $234 $262 forward 7 unknown #
point $-1 -53.060701315347757 -27.24674380510605 -12.78668640749099 #
straight-curve $-1 -58.796646423768209 -20.855000546862762 -12.78668640749099 1 0 0 I I #
coedge $-1 $192 $191 $184 $240 forward $181 $-1 #
edge $-1 $241 63.677660217529038 $244 73.40830318737099 $239 $263 forward 7 unknown #
vertex $-1 $196 $264 #
straight-curve $-1 22.603105095425605 -0.69224729914409799 12.78668640749099 1 0 0 I I #
edge $-1 $244 -2.449946535195318 $193 5.9653450072977581 $192 $265 forward 7 unknown #
vertex $-1 $243 $266 #
straight-curve $-1 -25.802869153096026 -0.69224729914409799 74.065122781596287 -0.74314481823134659 0 0.66913061440640931 I I #
point $-1 42.253727691054323 -0.69224729914409799 12.78668640749099 #
point $-1 53.060701315347757 7.7230442433489781 3.0560434376490377 #
straight-curve $-1 53.060701315347757 0 12.78668640749099 0 1 0 I I #
vertex $-1 $199 $267 #
point $-1 45.296171578996109 3.5153984721024401 2.3102080962224498 #
point $-1 -53.060701315347757 -27.24674380510605 -12.78668640749099 #
straight-curve $-1 -53.060701315347757 0 -12.78668640749099 0 1 0 I I #
point $-1 -53.060701315347757 27.24674380510605 -12.78668640749099 #
straight-curve $-1 -53.060701315347757 27.24674380510605 0 0 0 -1 I I #
edge $-1 $231 -12.78668640749099 $256 12.78668640749099 $222 $268 forward 7 unknown #
vertex $-1 $224 $269 #
straight-curve $-1 -64.532591532188661 -24.050872175984406 -12.78668640749099 0 1 0 I I #
straight-curve $-1 -64.532591532188661 -24.050872175984406 12.78668640749099 0 -1 0 I I #
point $-1 -64.532591532188661 -20.855000546862762 12.78668640749099 #
point $-1 -64.532591532188661 -20.855000546862762 -12.78668640749099 #
point $-1 -64.532591532188661 -27.24674380510605 12.78668640749099 #
straight-curve $-1 -58.796646423768209 -27.24674380510605 -12.78668640749099 -1 0 0 I I #
straight-curve $-1 53.060701315347757 -0.69224729914409799 76.464346625020028 0 0 -1 I I #
point $-1 53.060701315347757 -0.69224729914409799 12.78668640749099 #
straight-curve $-1 53.06070131534775 1.75769923605122 3.0560434376490448 0 1 0 I I #
point $-1 53.060701315347757 -0.69224729914409799 3.0560434376490377 #
point $-1 42.471620713720597 3.5153984721024401 2.162179688572575 #
straight-curve $-1 -64.532591532188661 -27.24674380510605 0 0 0 -1 I I #
point $-1 -64.532591532188661 -27.24674380510605 -12.78668640749099 #
End-of-ACIS-data 