500 0 18 0           
7 Unknown 11 ACIS 5.0 NT 24 Fri Mar 26 01:31:43 1999 
-1 9.9999999999999995e-007 1e-010 
body $-1 $18 $-1 $19 #
body $-1 $20 $-1 $21 #
body $-1 $22 $-1 $23 #
body $-1 $24 $-1 $25 #
body $-1 $26 $-1 $27 #
body $-1 $28 $-1 $29 #
body $-1 $30 $-1 $31 #
body $-1 $32 $-1 $33 #
body $-1 $34 $-1 $35 #
body $-1 $36 $-1 $37 #
body $-1 $38 $-1 $39 #
body $-1 $40 $-1 $41 #
body $-1 $42 $-1 $43 #
body $-1 $44 $-1 $45 #
body $-1 $46 $-1 $47 #
body $-1 $48 $-1 $49 #
body $-1 $50 $-1 $51 #
body $-1 $52 $-1 $53 #
lump $-1 $-1 $54 $0 #
transform $-1 1 0 0 0 1 0 0 0 1 74.828943754387041 31.431947265438776 14.437668846625948 1 rotate no_reflect no_shear #
lump $-1 $-1 $55 $1 #
transform $-1 1 0 0 0 1 0 0 0 1 74.828943754387041 31.431947265438776 14.437668846625948 1 rotate no_reflect no_shear #
lump $-1 $-1 $56 $2 #
transform $-1 1 0 0 0 1 0 0 0 1 74.828943754387041 31.431947265438776 14.437668846625948 1 rotate no_reflect no_shear #
lump $-1 $-1 $57 $3 #
transform $-1 1 0 0 0 1 0 0 0 1 74.828943754387041 31.431947265438776 14.437668846625948 1 rotate no_reflect no_shear #
lump $-1 $-1 $58 $4 #
transform $-1 1 0 0 0 1 0 0 0 1 74.828943754387041 31.431947265438776 14.437668846625948 1 rotate no_reflect no_shear #
lump $-1 $-1 $59 $5 #
transform $-1 1 0 0 0 1 0 0 0 1 74.828943754387041 31.431947265438776 14.437668846625948 1 rotate no_reflect no_shear #
lump $-1 $-1 $60 $6 #
transform $-1 1 0 0 0 1 0 0 0 1 74.828943754387041 31.431947265438776 14.437668846625948 1 rotate no_reflect no_shear #
lump $-1 $-1 $61 $7 #
transform $-1 1 0 0 0 1 0 0 0 1 74.828943754387041 31.431947265438776 14.437668846625948 1 rotate no_reflect no_shear #
lump $-1 $-1 $62 $8 #
transform $-1 1 0 0 0 1 0 0 0 1 74.828943754387041 31.431947265438776 14.437668846625948 1 rotate no_reflect no_shear #
lump $-1 $-1 $63 $9 #
transform $-1 1 0 0 0 1 0 0 0 1 74.828943754387041 31.431947265438776 14.437668846625948 1 rotate no_reflect no_shear #
lump $-1 $-1 $64 $10 #
transform $-1 1 0 0 0 1 0 0 0 1 74.828943754387041 31.431947265438776 14.437668846625948 1 rotate no_reflect no_shear #
lump $-1 $-1 $65 $11 #
transform $-1 1 0 0 0 1 0 0 0 1 74.828943754387041 31.431947265438776 14.437668846625948 1 rotate no_reflect no_shear #
lump $-1 $-1 $66 $12 #
transform $-1 1 0 0 0 1 0 0 0 1 74.828943754387041 31.431947265438776 14.437668846625948 1 rotate no_reflect no_shear #
lump $-1 $-1 $67 $13 #
transform $-1 1 0 0 0 1 0 0 0 1 74.828943754387041 31.431947265438776 14.437668846625948 1 rotate no_reflect no_shear #
lump $-1 $-1 $68 $14 #
transform $-1 1 0 0 0 1 0 0 0 1 74.828943754387041 31.431947265438776 14.437668846625948 1 rotate no_reflect no_shear #
lump $-1 $-1 $69 $15 #
transform $-1 1 0 0 0 1 0 0 0 1 74.828943754387041 31.431947265438776 14.437668846625948 1 rotate no_reflect no_shear #
lump $-1 $-1 $70 $16 #
transform $-1 1 0 0 0 1 0 0 0 1 74.828943754387041 31.431947265438776 14.437668846625948 1 rotate no_reflect no_shear #
lump $-1 $-1 $71 $17 #
transform $-1 1 0 0 0 1 0 0 0 1 74.828943754387041 31.431947265438776 14.437668846625948 1 rotate no_reflect no_shear #
shell $-1 $-1 $-1 $72 $-1 $18 #
shell $-1 $-1 $-1 $73 $-1 $20 #
shell $-1 $-1 $-1 $74 $-1 $22 #
shell $-1 $-1 $-1 $75 $-1 $24 #
shell $-1 $-1 $-1 $76 $-1 $26 #
shell $-1 $-1 $-1 $77 $-1 $28 #
shell $-1 $-1 $-1 $78 $-1 $30 #
shell $-1 $-1 $-1 $79 $-1 $32 #
shell $-1 $-1 $-1 $80 $-1 $34 #
shell $-1 $-1 $-1 $81 $-1 $36 #
shell $-1 $-1 $-1 $82 $-1 $38 #
shell $-1 $-1 $-1 $83 $-1 $40 #
shell $-1 $-1 $-1 $84 $-1 $42 #
shell $-1 $-1 $-1 $85 $-1 $44 #
shell $-1 $-1 $-1 $86 $-1 $46 #
shell $-1 $-1 $-1 $87 $-1 $48 #
shell $-1 $-1 $-1 $88 $-1 $50 #
shell $-1 $-1 $-1 $89 $-1 $52 #
face $-1 $90 $91 $54 $-1 $92 forward single #
face $-1 $93 $94 $55 $-1 $95 forward single #
face $-1 $96 $97 $56 $-1 $98 reversed single #
face $-1 $99 $100 $57 $-1 $101 forward single #
face $-1 $102 $103 $58 $-1 $104 reversed single #
face $-1 $105 $106 $59 $-1 $107 forward single #
face $-1 $108 $109 $60 $-1 $110 reversed single #
face $-1 $111 $112 $61 $-1 $113 forward single #
face $-1 $114 $115 $62 $-1 $116 forward single #
face $-1 $117 $118 $63 $-1 $119 reversed single #
face $-1 $120 $121 $64 $-1 $122 forward single #
face $-1 $123 $124 $65 $-1 $125 forward single #
face $-1 $126 $127 $66 $-1 $128 reversed single #
face $-1 $129 $130 $67 $-1 $131 forward single #
face $-1 $132 $133 $68 $-1 $134 forward single #
face $-1 $135 $136 $69 $-1 $137 reversed single #
face $-1 $138 $139 $70 $-1 $140 forward single #
face $-1 $141 $142 $71 $-1 $143 forward single #
face $-1 $144 $145 $54 $-1 $146 reversed single #
loop $-1 $-1 $147 $72 #
plane-surface $-1 0 0 14.437668846625948 0 0 1 1 0 0 forward_v I I I I #
face $-1 $148 $149 $55 $-1 $150 reversed single #
loop $-1 $-1 $151 $73 #
plane-surface $-1 -74.828943754387041 0 0 1 0 0 0 0 -1 forward_v I I I I #
face $-1 $152 $153 $56 $-1 $154 reversed single #
loop $-1 $-1 $155 $74 #
plane-surface $-1 -39.769347992131927 -139.08682341812346 104.79116910523055 -1 0 0 0 -0.71933980857756763 0.69465836192734942 forward_v I I I I #
face $-1 $156 $157 $57 $-1 $158 forward single #
loop $-1 $159 $160 $75 #
cone-surface $-1 -49.595968571350205 -22.208907903738208 5.0721994984830996 0 0.71933980857756763 -0.69465836192734942 2.5 0 0 1 I I 0 1 2.5 forward I I I I #
face $-1 $161 $162 $58 $-1 $163 reversed single #
loop $-1 $-1 $164 $76 #
plane-surface $-1 27.356418460345843 -139.08682341812346 104.79116910523055 -1 0 0 0 -0.71933980857756763 0.69465836192734942 forward_v I I I I #
face $-1 $165 $166 $59 $-1 $167 forward single #
loop $-1 $168 $169 $77 #
cone-surface $-1 17.529797881127564 -22.208907903738208 5.0721994984830996 0 0.71933980857756763 -0.69465836192734942 2.5 0 0 1 I I 0 1 2.5 forward I I I I #
face $-1 $170 $171 $60 $-1 $172 reversed single #
loop $-1 $-1 $173 $78 #
plane-surface $-1 -49.054039706327814 95.417893418930404 152.20412062401408 1 0 0 0 -0.71933980857756763 -0.69465836192734942 forward_v I I I I #
face $-1 $174 $175 $61 $-1 $176 forward single #
loop $-1 $177 $178 $79 #
cone-surface $-1 -44.917930773344224 24.836661762107902 7.6837269829558741 0 -0.71933980857756763 -0.69465836192734942 2 0 0 1 I I 0 1 2 forward I I I I #
face $-1 $179 $180 $62 $-1 $181 forward single #
loop $-1 $182 $183 $80 #
cone-surface $-1 -38.713767373868841 24.836661762107902 7.6837269829558741 0 -0.71933980857756763 -0.69465836192734942 2 0 0 1 I I 0 1 2 forward I I I I #
face $-1 $184 $185 $63 $-1 $186 reversed single #
loop $-1 $-1 $187 $81 #
plane-surface $-1 -16.041355455983936 95.417893418930404 152.20412062401408 1 0 0 0 -0.71933980857756763 -0.69465836192734942 forward_v I I I I #
face $-1 $188 $189 $64 $-1 $190 forward single #
loop $-1 $191 $192 $82 #
cone-surface $-1 -11.905246523000343 24.836661762107902 7.6837269829558741 0 -0.71933980857756763 -0.69465836192734942 2 0 0 1 I I 0 1 2 forward I I I I #
face $-1 $193 $194 $65 $-1 $195 forward single #
loop $-1 $196 $197 $83 #
cone-surface $-1 -5.7010831235249668 24.836661762107902 7.6837269829558741 0 -0.71933980857756763 -0.69465836192734942 2 0 0 1 I I 0 1 2 forward I I I I #
face $-1 $198 $199 $66 $-1 $200 reversed single #
loop $-1 $-1 $201 $84 #
plane-surface $-1 16.971328794359945 95.417893418930404 152.20412062401408 1 0 0 0 -0.71933980857756763 -0.69465836192734942 forward_v I I I I #
face $-1 $202 $203 $67 $-1 $204 forward single #
loop $-1 $205 $206 $85 #
cone-surface $-1 21.107437727343537 24.836661762107902 7.6837269829558741 0 -0.71933980857756763 -0.69465836192734942 2 0 0 1 I I 0 1 2 forward I I I I #
face $-1 $207 $208 $68 $-1 $209 forward single #
loop $-1 $210 $211 $86 #
cone-surface $-1 27.311601126818914 24.836661762107902 7.6837269829558741 0 -0.71933980857756763 -0.69465836192734942 2 0 0 1 I I 0 1 2 forward I I I I #
face $-1 $212 $213 $69 $-1 $214 reversed single #
loop $-1 $-1 $215 $87 #
plane-surface $-1 49.984013044703829 95.417893418930404 152.20412062401408 1 0 0 0 -0.71933980857756763 -0.69465836192734942 forward_v I I I I #
face $-1 $216 $217 $70 $-1 $218 forward single #
loop $-1 $219 $220 $88 #
cone-surface $-1 54.120121977687432 24.836661762107902 7.6837269829558741 0 -0.71933980857756763 -0.69465836192734942 2 0 0 1 I I 0 1 2 forward I I I I #
face $-1 $221 $222 $71 $-1 $223 forward single #
loop $-1 $224 $225 $89 #
cone-surface $-1 60.324285377162795 24.836661762107902 7.6837269829558741 0 -0.71933980857756763 -0.69465836192734942 2 0 0 1 I I 0 1 2 forward I I I I #
face $-1 $226 $227 $54 $-1 $228 reversed single #
loop $-1 $-1 $229 $90 #
plane-surface $-1 0 0 -14.437668846625948 0 0 1 1 0 0 forward_v I I I I #
coedge $-1 $230 $231 $232 $233 forward $91 $-1 #
face $-1 $234 $235 $55 $-1 $236 reversed single #
loop $-1 $-1 $237 $93 #
plane-surface $-1 0 0 -14.437668846625948 0 0 1 1 0 0 forward_v I I I I #
coedge $-1 $238 $239 $240 $241 forward $94 $-1 #
face $-1 $242 $243 $56 $-1 $244 reversed single #
loop $-1 $-1 $245 $96 #
plane-surface $-1 -49.595968571350205 -31.431947265438765 0.83006611887802251 0 -0.71933980857756763 0.69465836192734942 1 0 0 forward_v I I I I #
coedge $-1 $246 $247 $248 $249 reversed $97 $-1 #
face $-1 $-1 $250 $57 $-1 $251 forward single #
loop $-1 $252 $253 $99 #
cone-surface $-1 -49.595968571350205 -18.657048228476935 1.6422085618050186 0 0.71933980857756763 -0.69465836192734942 1.25 0 0 1 I I -0.70710678118654746 0.70710678118654768 1.25 forward I I I I #
loop $-1 $-1 $254 $75 #
coedge $-1 $160 $160 $255 $256 reversed $100 $-1 #
face $-1 $257 $258 $58 $-1 $259 reversed single #
loop $-1 $-1 $260 $102 #
plane-surface $-1 17.529797881127564 -31.431947265438765 0.83006611887802251 0 -0.71933980857756763 0.69465836192734942 1 0 0 forward_v I I I I #
coedge $-1 $261 $262 $263 $264 reversed $103 $-1 #
face $-1 $-1 $265 $59 $-1 $266 forward single #
loop $-1 $267 $268 $105 #
cone-surface $-1 17.529797881127564 -18.657048228476935 1.6422085618050186 0 0.71933980857756763 -0.69465836192734942 1.25 0 0 1 I I -0.70710678118654746 0.70710678118654768 1.25 forward I I I I #
loop $-1 $-1 $269 $77 #
coedge $-1 $169 $169 $270 $271 reversed $106 $-1 #
face $-1 $272 $273 $60 $-1 $274 reversed single #
loop $-1 $-1 $275 $108 #
plane-surface $-1 -41.815849073606529 -12.236982733754289 48.243017637661552 0 0.71933980857756763 0.69465836192734942 1 0 0 forward_v I I I I #
coedge $-1 $276 $277 $278 $279 reversed $109 $-1 #
face $-1 $-1 $280 $61 $-1 $281 forward single #
loop $-1 $282 $283 $111 #
cone-surface $-1 -44.917930773344224 23.033778909249104 5.9427032909815818 0 -0.71933980857756763 -0.69465836192734942 1 0 0 1 I I -0.70710678118654746 0.70710678118654746 1 forward I I I I #
loop $-1 $-1 $284 $79 #
coedge $-1 $178 $178 $285 $286 reversed $112 $-1 #
face $-1 $-1 $287 $62 $-1 $288 forward single #
loop $-1 $289 $290 $114 #
cone-surface $-1 -38.713767373868841 23.033778909249104 5.9427032909815818 0 -0.71933980857756763 -0.69465836192734942 1 0 0 1 I I -0.70710678118654746 0.70710678118654746 1 forward I I I I #
loop $-1 $-1 $291 $80 #
coedge $-1 $183 $183 $292 $293 reversed $115 $-1 #
face $-1 $294 $295 $63 $-1 $296 reversed single #
loop $-1 $-1 $297 $117 #
plane-surface $-1 -8.803164823262648 -12.236982733754289 48.243017637661552 0 0.71933980857756763 0.69465836192734942 1 0 0 forward_v I I I I #
coedge $-1 $298 $299 $300 $301 reversed $118 $-1 #
face $-1 $-1 $302 $64 $-1 $303 forward single #
loop $-1 $304 $305 $120 #
cone-surface $-1 -11.905246523000343 23.033778909249104 5.9427032909815818 0 -0.71933980857756763 -0.69465836192734942 1 0 0 1 I I -0.70710678118654746 0.70710678118654746 1 forward I I I I #
loop $-1 $-1 $306 $82 #
coedge $-1 $192 $192 $307 $308 reversed $121 $-1 #
face $-1 $-1 $309 $65 $-1 $310 forward single #
loop $-1 $311 $312 $123 #
cone-surface $-1 -5.7010831235249668 23.033778909249104 5.9427032909815818 0 -0.71933980857756763 -0.69465836192734942 1 0 0 1 I I -0.70710678118654746 0.70710678118654746 1 forward I I I I #
loop $-1 $-1 $313 $83 #
coedge $-1 $197 $197 $314 $315 reversed $124 $-1 #
face $-1 $316 $317 $66 $-1 $318 reversed single #
loop $-1 $-1 $319 $126 #
plane-surface $-1 24.209519427081233 -12.236982733754289 48.243017637661552 0 0.71933980857756763 0.69465836192734942 1 0 0 forward_v I I I I #
coedge $-1 $320 $321 $322 $323 reversed $127 $-1 #
face $-1 $-1 $324 $67 $-1 $325 forward single #
loop $-1 $326 $327 $129 #
cone-surface $-1 21.107437727343537 23.033778909249104 5.9427032909815818 0 -0.71933980857756763 -0.69465836192734942 1 0 0 1 I I -0.70710678118654746 0.70710678118654746 1 forward I I I I #
loop $-1 $-1 $328 $85 #
coedge $-1 $206 $206 $329 $330 reversed $130 $-1 #
face $-1 $-1 $331 $68 $-1 $332 forward single #
loop $-1 $333 $334 $132 #
cone-surface $-1 27.311601126818914 23.033778909249104 5.9427032909815818 0 -0.71933980857756763 -0.69465836192734942 1 0 0 1 I I -0.70710678118654746 0.70710678118654746 1 forward I I I I #
loop $-1 $-1 $335 $86 #
coedge $-1 $211 $211 $336 $337 reversed $133 $-1 #
face $-1 $338 $339 $69 $-1 $340 reversed single #
loop $-1 $-1 $341 $135 #
plane-surface $-1 57.222203677425114 -12.236982733754289 48.243017637661552 0 0.71933980857756763 0.69465836192734942 1 0 0 forward_v I I I I #
coedge $-1 $342 $343 $344 $345 reversed $136 $-1 #
face $-1 $-1 $346 $70 $-1 $347 forward single #
loop $-1 $348 $349 $138 #
cone-surface $-1 54.120121977687432 23.033778909249104 5.9427032909815818 0 -0.71933980857756763 -0.69465836192734942 1 0 0 1 I I -0.70710678118654746 0.70710678118654746 1 forward I I I I #
loop $-1 $-1 $350 $88 #
coedge $-1 $220 $220 $351 $352 reversed $139 $-1 #
face $-1 $-1 $353 $71 $-1 $354 forward single #
loop $-1 $355 $356 $141 #
cone-surface $-1 60.324285377162795 23.033778909249104 5.9427032909815818 0 -0.71933980857756763 -0.69465836192734942 1 0 0 1 I I -0.70710678118654746 0.70710678118654746 1 forward I I I I #
loop $-1 $-1 $357 $89 #
coedge $-1 $225 $225 $358 $359 reversed $142 $-1 #
face $-1 $360 $361 $54 $-1 $362 reversed single #
loop $-1 $-1 $363 $144 #
plane-surface $-1 0 -31.431947265438776 0 0 1 0 0 0 1 forward_v I I I I #
coedge $-1 $364 $365 $366 $367 forward $145 $-1 #
coedge $-1 $368 $147 $369 $370 forward $91 $-1 #
coedge $-1 $147 $368 $371 $372 forward $91 $-1 #
coedge $-1 $373 $374 $147 $233 reversed $375 $-1 #
edge $-1 $376 -31.431947265438776 $377 31.431947265438776 $232 $378 forward 7 unknown #
face $-1 $379 $380 $55 $-1 $381 reversed single #
loop $-1 $-1 $382 $148 #
plane-surface $-1 -82.532121056296319 -10.368821742493814 0 0 1 0 0 0 1 forward_v I I I I #
coedge $-1 $383 $384 $239 $385 forward $149 $-1 #
coedge $-1 $386 $151 $387 $388 reversed $94 $-1 #
coedge $-1 $151 $386 $237 $385 reversed $94 $-1 #
coedge $-1 $389 $390 $151 $241 reversed $391 $-1 #
edge $-1 $392 -14.437668846625948 $393 14.437668846625948 $240 $394 forward 7 unknown #
face $-1 $395 $396 $56 $-1 $397 forward single #
loop $-1 $-1 $398 $152 #
plane-surface $-1 -59.422589150568484 -139.08682341812346 104.79116910523055 1 0 0 0 0.71933980857756763 -0.69465836192734942 forward_v I I I I #
coedge $-1 $399 $400 $401 $402 reversed $153 $-1 #
coedge $-1 $247 $155 $403 $404 reversed $97 $-1 #
coedge $-1 $155 $246 $399 $405 reversed $97 $-1 #
coedge $-1 $401 $406 $155 $249 forward $396 $-1 #
edge $-1 $407 38.11146444362295 $408 51.252173337945493 $248 $409 forward 7 unknown #
loop $-1 $-1 $255 $156 #
plane-surface $-1 -49.595968571350205 -31.431947265438765 0.83006611887802251 0 -0.71933980857756763 0.69465836192734942 1 0 0 forward_v I I I I #
loop $-1 $-1 $410 $99 #
coedge $-1 $253 $253 $254 $411 reversed $157 $-1 #
coedge $-1 $254 $254 $253 $411 forward $159 $-1 #
coedge $-1 $255 $255 $160 $256 forward $250 $-1 #
edge $-1 $412 -1.1526305676102147e-016 $412 6.2831853071796004 $255 $413 forward 7 unknown #
face $-1 $414 $415 $58 $-1 $416 reversed single #
loop $-1 $-1 $417 $161 #
plane-surface $-1 7.7031773019092853 -139.08682341812346 104.79116910523055 1 0 0 0 0.71933980857756763 -0.69465836192734942 forward_v I I I I #
coedge $-1 $418 $419 $420 $421 reversed $162 $-1 #
coedge $-1 $262 $164 $422 $423 reversed $103 $-1 #
coedge $-1 $164 $261 $418 $424 reversed $103 $-1 #
coedge $-1 $420 $425 $164 $264 forward $426 $-1 #
edge $-1 $427 38.11146444362295 $428 51.252173337945493 $263 $429 forward 7 unknown #
loop $-1 $-1 $270 $165 #
plane-surface $-1 17.529797881127564 -31.431947265438765 0.83006611887802251 0 -0.71933980857756763 0.69465836192734942 1 0 0 forward_v I I I I #
loop $-1 $-1 $430 $105 #
coedge $-1 $268 $268 $269 $431 reversed $166 $-1 #
coedge $-1 $269 $269 $268 $431 forward $168 $-1 #
coedge $-1 $270 $270 $169 $271 forward $265 $-1 #
edge $-1 $432 -1.1526305676102147e-016 $432 6.2831853071796004 $270 $433 forward 7 unknown #
face $-1 $434 $435 $60 $-1 $436 reversed single #
loop $-1 $-1 $437 $170 #
plane-surface $-1 -34.577658440885244 95.417893418930404 152.20412062401408 -1 0 0 0 0.71933980857756763 0.69465836192734942 forward_v I I I I #
coedge $-1 $438 $439 $440 $441 reversed $171 $-1 #
coedge $-1 $277 $173 $442 $443 reversed $109 $-1 #
coedge $-1 $173 $276 $438 $444 reversed $109 $-1 #
coedge $-1 $440 $445 $173 $279 forward $446 $-1 #
edge $-1 $447 16.276999444026426 $448 27.300484362125715 $278 $449 forward 7 unknown #
loop $-1 $-1 $285 $174 #
plane-surface $-1 -41.815849073606529 -12.236982733754289 48.243017637661552 0 0.71933980857756763 0.69465836192734942 1 0 0 forward_v I I I I #
loop $-1 $-1 $450 $111 #
coedge $-1 $283 $283 $284 $451 reversed $175 $-1 #
coedge $-1 $284 $284 $283 $451 forward $177 $-1 #
coedge $-1 $285 $285 $178 $286 forward $280 $-1 #
edge $-1 $452 0 $452 6.2831853071796004 $285 $453 forward 7 unknown #
loop $-1 $-1 $292 $179 #
plane-surface $-1 -41.815849073606529 -12.236982733754289 48.243017637661552 0 0.71933980857756763 0.69465836192734942 1 0 0 forward_v I I I I #
loop $-1 $-1 $454 $114 #
coedge $-1 $290 $290 $291 $455 reversed $180 $-1 #
coedge $-1 $291 $291 $290 $455 forward $182 $-1 #
coedge $-1 $292 $292 $183 $293 forward $287 $-1 #
edge $-1 $456 0 $456 6.2831853071796004 $292 $457 forward 7 unknown #
face $-1 $458 $459 $63 $-1 $460 forward single #
loop $-1 $-1 $461 $184 #
plane-surface $-1 -1.5649741905413599 95.417893418930404 152.20412062401408 -1 0 0 0 0.71933980857756763 0.69465836192734942 forward_v I I I I #
coedge $-1 $462 $463 $464 $465 reversed $185 $-1 #
coedge $-1 $299 $187 $466 $467 reversed $118 $-1 #
coedge $-1 $187 $298 $462 $468 reversed $118 $-1 #
coedge $-1 $464 $469 $187 $301 forward $459 $-1 #
edge $-1 $470 16.276999444026426 $471 27.300484362125715 $300 $472 forward 7 unknown #
loop $-1 $-1 $307 $188 #
plane-surface $-1 -8.803164823262648 -12.236982733754289 48.243017637661552 0 0.71933980857756763 0.69465836192734942 1 0 0 forward_v I I I I #
loop $-1 $-1 $473 $120 #
coedge $-1 $305 $305 $306 $474 reversed $189 $-1 #
coedge $-1 $306 $306 $305 $474 forward $191 $-1 #
coedge $-1 $307 $307 $192 $308 forward $302 $-1 #
edge $-1 $475 0 $475 6.2831853071796004 $307 $476 forward 7 unknown #
loop $-1 $-1 $314 $193 #
plane-surface $-1 -8.803164823262648 -12.236982733754289 48.243017637661552 0 0.71933980857756763 0.69465836192734942 1 0 0 forward_v I I I I #
loop $-1 $-1 $477 $123 #
coedge $-1 $312 $312 $313 $478 reversed $194 $-1 #
coedge $-1 $313 $313 $312 $478 forward $196 $-1 #
coedge $-1 $314 $314 $197 $315 forward $309 $-1 #
edge $-1 $479 0 $479 6.2831853071796004 $314 $480 forward 7 unknown #
face $-1 $481 $482 $66 $-1 $483 forward single #
loop $-1 $-1 $484 $198 #
plane-surface $-1 31.447710059802521 95.417893418930404 152.20412062401408 -1 0 0 0 0.71933980857756763 0.69465836192734942 forward_v I I I I #
coedge $-1 $485 $486 $487 $488 reversed $199 $-1 #
coedge $-1 $321 $201 $489 $490 reversed $127 $-1 #
coedge $-1 $201 $320 $485 $491 reversed $127 $-1 #
coedge $-1 $487 $492 $201 $323 forward $482 $-1 #
edge $-1 $493 16.276999444026426 $494 27.300484362125715 $322 $495 forward 7 unknown #
loop $-1 $-1 $329 $202 #
plane-surface $-1 24.209519427081233 -12.236982733754289 48.243017637661552 0 0.71933980857756763 0.69465836192734942 1 0 0 forward_v I I I I #
loop $-1 $-1 $496 $129 #
coedge $-1 $327 $327 $328 $497 reversed $203 $-1 #
coedge $-1 $328 $328 $327 $497 forward $205 $-1 #
coedge $-1 $329 $329 $206 $330 forward $324 $-1 #
edge $-1 $498 0 $498 6.2831853071796004 $329 $499 forward 7 unknown #
loop $-1 $-1 $336 $207 #
plane-surface $-1 24.209519427081233 -12.236982733754289 48.243017637661552 0 0.71933980857756763 0.69465836192734942 1 0 0 forward_v I I I I #
loop $-1 $-1 $500 $132 #
coedge $-1 $334 $334 $335 $501 reversed $208 $-1 #
coedge $-1 $335 $335 $334 $501 forward $210 $-1 #
coedge $-1 $336 $336 $211 $337 forward $331 $-1 #
edge $-1 $502 0 $502 6.2831853071796004 $336 $503 forward 7 unknown #
face $-1 $504 $505 $69 $-1 $506 forward single #
loop $-1 $-1 $507 $212 #
plane-surface $-1 64.460394310146398 95.417893418930404 152.20412062401408 -1 0 0 0 0.71933980857756763 0.69465836192734942 forward_v I I I I #
coedge $-1 $508 $509 $510 $511 reversed $213 $-1 #
coedge $-1 $343 $215 $512 $513 reversed $136 $-1 #
coedge $-1 $215 $342 $508 $514 reversed $136 $-1 #
coedge $-1 $510 $515 $215 $345 forward $505 $-1 #
edge $-1 $516 16.276999444026426 $517 27.300484362125715 $344 $518 forward 7 unknown #
loop $-1 $-1 $351 $216 #
plane-surface $-1 57.222203677425114 -12.236982733754289 48.243017637661552 0 0.71933980857756763 0.69465836192734942 1 0 0 forward_v I I I I #
loop $-1 $-1 $519 $138 #
coedge $-1 $349 $349 $350 $520 reversed $217 $-1 #
coedge $-1 $350 $350 $349 $520 forward $219 $-1 #
coedge $-1 $351 $351 $220 $352 forward $346 $-1 #
edge $-1 $521 0 $521 6.2831853071796004 $351 $522 forward 7 unknown #
loop $-1 $-1 $358 $221 #
plane-surface $-1 57.222203677425114 -12.236982733754289 48.243017637661552 0 0.71933980857756763 0.69465836192734942 1 0 0 forward_v I I I I #
loop $-1 $-1 $523 $141 #
coedge $-1 $356 $356 $357 $524 reversed $222 $-1 #
coedge $-1 $357 $357 $356 $524 forward $224 $-1 #
coedge $-1 $358 $358 $225 $359 forward $353 $-1 #
edge $-1 $525 0 $525 6.2831853071796004 $358 $526 forward 7 unknown #
face $-1 $527 $528 $54 $-1 $529 reversed single #
loop $-1 $-1 $530 $226 #
plane-surface $-1 -74.828943754387041 0 0 1 0 0 0 0 -1 forward_v I I I I #
coedge $-1 $531 $371 $532 $533 forward $227 $-1 #
coedge $-1 $534 $229 $531 $535 forward $145 $-1 #
coedge $-1 $229 $534 $536 $537 forward $145 $-1 #
coedge $-1 $374 $373 $229 $367 reversed $375 $-1 #
edge $-1 $538 -31.431947265438776 $539 31.431947265438776 $366 $540 forward 7 unknown #
coedge $-1 $231 $230 $541 $542 forward $91 $-1 #
coedge $-1 $543 $544 $230 $370 reversed $528 $-1 #
edge $-1 $377 -74.828943754387041 $545 74.828943754387041 $369 $546 forward 7 unknown #
coedge $-1 $363 $547 $231 $372 reversed $227 $-1 #
edge $-1 $548 -74.828943754387041 $376 74.828943754387041 $371 $549 forward 7 unknown #
coedge $-1 $366 $232 $547 $550 forward $375 $-1 #
coedge $-1 $232 $366 $543 $551 reversed $375 $-1 #
loop $-1 $-1 $373 $527 #
vertex $-1 $233 $552 #
vertex $-1 $233 $553 #
straight-curve $-1 74.828943754387041 0 14.437668846625948 0 1 0 I I #
face $-1 $554 $391 $55 $-1 $555 reversed single #
loop $-1 $-1 $556 $234 #
plane-surface $-1 -90.235298358205597 -6.4627156573403468 0 1 0 0 0 0 -1 forward_v I I I I #
coedge $-1 $557 $558 $559 $560 forward $235 $-1 #
coedge $-1 $561 $237 $557 $562 forward $149 $-1 #
coedge $-1 $237 $561 $389 $563 forward $149 $-1 #
edge $-1 $392 2.5566095721868791 $564 10.368821742493814 $237 $565 forward 7 unknown #
coedge $-1 $239 $238 $566 $567 forward $94 $-1 #
coedge $-1 $568 $569 $238 $388 forward $570 $-1 #
edge $-1 $571 -10.368821742493814 $393 -2.5566095721868791 $387 $572 forward 7 unknown #
coedge $-1 $573 $240 $384 $563 reversed $391 $-1 #
coedge $-1 $240 $573 $568 $574 reversed $391 $-1 #
loop $-1 $-1 $240 $379 #
vertex $-1 $385 $575 #
vertex $-1 $574 $576 #
straight-curve $-1 -74.828943754387041 -2.5566095721868791 0 0 0 1 I I #
face $-1 $-1 $577 $56 $-1 $578 reversed single #
loop $-1 $-1 $248 $242 #
plane-surface $-1 0 0 14.437668846625948 0 0 1 1 0 0 forward_v I I I I #
coedge $-1 $579 $580 $581 $582 reversed $243 $-1 #
coedge $-1 $583 $245 $247 $405 forward $153 $-1 #
coedge $-1 $245 $583 $579 $584 forward $153 $-1 #
coedge $-1 $581 $248 $245 $402 forward $396 $-1 #
edge $-1 $408 14.971363706456824 $585 34.624604864893385 $401 $586 forward 7 unknown #
coedge $-1 $587 $588 $246 $404 forward $577 $-1 #
edge $-1 $589 -51.565518433737267 $407 -37.957915705989329 $403 $590 forward 7 unknown #
edge $-1 $408 -18.916793656472016 $589 1.5310180211858787e-014 $247 $591 forward 7 unknown #
coedge $-1 $248 $581 $587 $592 forward $396 $-1 #
vertex $-1 $249 $593 #
vertex $-1 $249 $594 #
straight-curve $-1 -39.769347992131927 -69.543411709061729 14.437668846625947 0 1 0 I I #
coedge $-1 $410 $410 $-1 $595 reversed $252 $-1 #
edge $-1 $596 0 $596 6.2831853071796004 $253 $597 forward 7 unknown #
vertex $-1 $256 $598 #
ellipse-curve $-1 -49.595968571350205 -24.861592818277508 7.633867482751981 0 -0.71933980857756763 0.69465836192734942 2.5 0 0 1 I I #
face $-1 $-1 $426 $58 $-1 $599 forward single #
loop $-1 $-1 $600 $257 #
plane-surface $-1 0 -31.431947265438776 0 0 1 0 0 0 1 forward_v I I I I #
coedge $-1 $601 $602 $603 $604 reversed $258 $-1 #
coedge $-1 $605 $260 $262 $424 forward $162 $-1 #
coedge $-1 $260 $605 $601 $606 forward $162 $-1 #
coedge $-1 $603 $263 $260 $421 forward $426 $-1 #
edge $-1 $428 -18.591519519782061 $607 1.0617216386544968 $420 $608 forward 7 unknown #
coedge $-1 $609 $610 $261 $423 forward $415 $-1 #
edge $-1 $611 -51.565518433737267 $427 -37.957915705989329 $422 $612 forward 7 unknown #
edge $-1 $428 -18.916793656472016 $611 1.5310180211858787e-014 $262 $613 forward 7 unknown #
coedge $-1 $263 $603 $609 $614 forward $426 $-1 #
loop $-1 $-1 $603 $414 #
vertex $-1 $423 $615 #
vertex $-1 $264 $616 #
straight-curve $-1 27.356418460345843 -69.543411709061729 14.437668846625947 0 1 0 I I #
coedge $-1 $430 $430 $-1 $617 reversed $267 $-1 #
edge $-1 $618 0 $618 6.2831853071796004 $268 $619 forward 7 unknown #
vertex $-1 $271 $620 #
ellipse-curve $-1 17.529797881127564 -24.861592818277508 7.633867482751981 0 -0.71933980857756763 0.69465836192734942 2.5 0 0 1 I I #
face $-1 $-1 $446 $60 $-1 $621 forward single #
loop $-1 $-1 $622 $272 #
plane-surface $-1 0 31.431947265438776 0 0 -1 0 0 0 -1 forward_v I I I I #
coedge $-1 $623 $624 $625 $626 reversed $273 $-1 #
coedge $-1 $627 $275 $277 $444 forward $171 $-1 #
coedge $-1 $275 $627 $623 $628 forward $171 $-1 #
coedge $-1 $625 $278 $275 $441 forward $446 $-1 #
edge $-1 $448 -28.146115169524549 $629 -13.66973390408198 $440 $630 forward 7 unknown #
coedge $-1 $631 $632 $276 $443 forward $435 $-1 #
edge $-1 $633 -73.079544532627352 $447 -61.664391465381094 $442 $634 forward 7 unknown #
edge $-1 $448 46.99496453266331 $633 62.863894530877573 $277 $635 forward 7 unknown #
coedge $-1 $278 $625 $631 $636 forward $446 $-1 #
loop $-1 $-1 $625 $434 #
vertex $-1 $443 $637 #
vertex $-1 $279 $638 #
straight-curve $-1 -49.054039706327814 47.708946709465202 14.437668846625954 0 -1 0 I I #
coedge $-1 $450 $450 $-1 $639 reversed $282 $-1 #
edge $-1 $640 0 $640 6.2831853071796004 $283 $641 forward 7 unknown #
vertex $-1 $286 $642 #
ellipse-curve $-1 -44.917930773344224 25.92020480638913 8.7300923130028174 0 0.71933980857756763 0.69465836192734942 2 0 0 1 I I #
coedge $-1 $454 $454 $-1 $643 reversed $289 $-1 #
edge $-1 $644 0 $644 6.2831853071796004 $290 $645 forward 7 unknown #
vertex $-1 $293 $646 #
ellipse-curve $-1 -38.713767373868841 25.92020480638913 8.7300923130028174 0 0.71933980857756763 0.69465836192734942 2 0 0 1 I I #
face $-1 $-1 $647 $63 $-1 $648 reversed single #
loop $-1 $-1 $300 $294 #
plane-surface $-1 0 0 14.437668846625948 0 0 1 1 0 0 forward_v I I I I #
coedge $-1 $649 $650 $651 $652 reversed $295 $-1 #
coedge $-1 $653 $297 $299 $468 forward $185 $-1 #
coedge $-1 $297 $653 $649 $654 forward $185 $-1 #
coedge $-1 $651 $300 $297 $465 forward $459 $-1 #
edge $-1 $471 -11.639773044352612 $655 2.8366082210899641 $464 $656 forward 7 unknown #
coedge $-1 $657 $658 $298 $467 forward $647 $-1 #
edge $-1 $659 -73.079544532627352 $470 -61.664391465381094 $466 $660 forward 7 unknown #
edge $-1 $471 46.99496453266331 $659 62.863894530877573 $299 $661 forward 7 unknown #
coedge $-1 $300 $651 $657 $662 forward $459 $-1 #
vertex $-1 $301 $663 #
vertex $-1 $301 $664 #
straight-curve $-1 -16.041355455983936 47.708946709465202 14.437668846625954 0 -1 0 I I #
coedge $-1 $473 $473 $-1 $665 reversed $304 $-1 #
edge $-1 $666 0 $666 6.2831853071796004 $305 $667 forward 7 unknown #
vertex $-1 $308 $668 #
ellipse-curve $-1 -11.905246523000343 25.92020480638913 8.7300923130028174 0 0.71933980857756763 0.69465836192734942 2 0 0 1 I I #
coedge $-1 $477 $477 $-1 $669 reversed $311 $-1 #
edge $-1 $670 0 $670 6.2831853071796004 $312 $671 forward 7 unknown #
vertex $-1 $315 $672 #
ellipse-curve $-1 -5.7010831235249668 25.92020480638913 8.7300923130028174 0 0.71933980857756763 0.69465836192734942 2 0 0 1 I I #
face $-1 $-1 $673 $66 $-1 $674 reversed single #
loop $-1 $-1 $322 $316 #
plane-surface $-1 0 0 14.437668846625948 0 0 1 1 0 0 forward_v I I I I #
coedge $-1 $675 $676 $677 $678 reversed $317 $-1 #
coedge $-1 $679 $319 $321 $491 forward $199 $-1 #
coedge $-1 $319 $679 $675 $680 forward $199 $-1 #
coedge $-1 $677 $322 $319 $488 forward $482 $-1 #
edge $-1 $494 4.8665690808193283 $681 19.342950346261905 $487 $682 forward 7 unknown #
coedge $-1 $683 $684 $320 $490 forward $673 $-1 #
edge $-1 $685 -73.079544532627352 $493 -61.664391465381094 $489 $686 forward 7 unknown #
edge $-1 $494 46.99496453266331 $685 62.863894530877573 $321 $687 forward 7 unknown #
coedge $-1 $322 $677 $683 $688 forward $482 $-1 #
vertex $-1 $323 $689 #
vertex $-1 $323 $690 #
straight-curve $-1 16.971328794359945 47.708946709465202 14.437668846625954 0 -1 0 I I #
coedge $-1 $496 $496 $-1 $691 reversed $326 $-1 #
edge $-1 $692 0 $692 6.2831853071796004 $327 $693 forward 7 unknown #
vertex $-1 $330 $694 #
ellipse-curve $-1 21.107437727343537 25.92020480638913 8.7300923130028174 0 0.71933980857756763 0.69465836192734942 2 0 0 1 I I #
coedge $-1 $500 $500 $-1 $695 reversed $333 $-1 #
edge $-1 $696 0 $696 6.2831853071796004 $334 $697 forward 7 unknown #
vertex $-1 $337 $698 #
ellipse-curve $-1 27.311601126818914 25.92020480638913 8.7300923130028174 0 0.71933980857756763 0.69465836192734942 2 0 0 1 I I #
face $-1 $-1 $699 $69 $-1 $700 reversed single #
loop $-1 $-1 $344 $338 #
plane-surface $-1 0 0 14.437668846625948 0 0 1 1 0 0 forward_v I I I I #
coedge $-1 $701 $702 $703 $704 reversed $339 $-1 #
coedge $-1 $705 $341 $343 $514 forward $213 $-1 #
coedge $-1 $341 $705 $701 $706 forward $213 $-1 #
coedge $-1 $703 $344 $341 $511 forward $505 $-1 #
edge $-1 $517 21.372911205991272 $707 35.849292471433841 $510 $708 forward 7 unknown #
coedge $-1 $709 $710 $342 $513 forward $699 $-1 #
edge $-1 $711 -73.079544532627352 $516 -61.664391465381094 $512 $712 forward 7 unknown #
edge $-1 $517 46.99496453266331 $711 62.863894530877573 $343 $713 forward 7 unknown #
coedge $-1 $344 $703 $709 $714 forward $505 $-1 #
vertex $-1 $345 $715 #
vertex $-1 $345 $716 #
straight-curve $-1 49.984013044703829 47.708946709465202 14.437668846625954 0 -1 0 I I #
coedge $-1 $519 $519 $-1 $717 reversed $348 $-1 #
edge $-1 $718 0 $718 6.2831853071796004 $349 $719 forward 7 unknown #
vertex $-1 $352 $720 #
ellipse-curve $-1 54.120121977687432 25.92020480638913 8.7300923130028174 0 0.71933980857756763 0.69465836192734942 2 0 0 1 I I #
coedge $-1 $523 $523 $-1 $721 reversed $355 $-1 #
edge $-1 $722 0 $722 6.2831853071796004 $356 $723 forward 7 unknown #
vertex $-1 $359 $724 #
ellipse-curve $-1 60.324285377162795 25.92020480638913 8.7300923130028174 0 0.71933980857756763 0.69465836192734942 2 0 0 1 I I #
face $-1 $-1 $375 $54 $-1 $725 reversed single #
loop $-1 $-1 $543 $360 #
plane-surface $-1 0 31.431947265438776 0 0 -1 0 0 0 -1 forward_v I I I I #
coedge $-1 $726 $541 $544 $727 forward $361 $-1 #
coedge $-1 $547 $363 $364 $535 reversed $227 $-1 #
coedge $-1 $541 $726 $363 $533 reversed $361 $-1 #
edge $-1 $548 -14.437668846625948 $728 14.437668846625948 $532 $729 forward 7 unknown #
coedge $-1 $365 $364 $726 $730 forward $145 $-1 #
edge $-1 $539 -74.828943754387041 $728 74.828943754387041 $531 $731 forward 7 unknown #
coedge $-1 $544 $543 $365 $537 reversed $528 $-1 #
edge $-1 $732 -74.828943754387041 $538 74.828943754387041 $536 $733 forward 7 unknown #
vertex $-1 $367 $734 #
vertex $-1 $550 $735 #
straight-curve $-1 74.828943754387041 0 -14.437668846625948 0 -1 0 I I #
coedge $-1 $530 $532 $368 $542 reversed $361 $-1 #
edge $-1 $545 -31.431947265438776 $548 31.431947265438776 $541 $736 forward 7 unknown #
coedge $-1 $536 $369 $374 $551 forward $528 $-1 #
coedge $-1 $369 $536 $530 $727 reversed $528 $-1 #
vertex $-1 $370 $737 #
straight-curve $-1 0 31.431947265438776 14.437668846625948 -1 0 0 I I #
coedge $-1 $371 $531 $373 $550 reversed $227 $-1 #
vertex $-1 $542 $738 #
straight-curve $-1 0 -31.431947265438776 14.437668846625948 1 0 0 I I #
edge $-1 $376 -14.437668846625948 $539 14.437668846625948 $373 $739 forward 7 unknown #
edge $-1 $377 -14.437668846625948 $538 14.437668846625948 $374 $740 forward 7 unknown #
point $-1 74.828943754387041 -31.431947265438776 14.437668846625948 #
point $-1 74.828943754387041 31.431947265438776 14.437668846625948 #
face $-1 $-1 $570 $55 $-1 $741 forward single #
plane-surface $-1 -82.532121056296319 -2.5566095721868791 0 0 -1 0 0 0 -1 forward_v I I I I #
coedge $-1 $742 $743 $573 $744 forward $380 $-1 #
coedge $-1 $566 $382 $383 $562 reversed $235 $-1 #
coedge $-1 $382 $566 $569 $745 reversed $235 $-1 #
coedge $-1 $743 $742 $382 $560 reversed $380 $-1 #
edge $-1 $746 -14.437668846625948 $747 14.437668846625948 $559 $748 forward 7 unknown #
coedge $-1 $384 $383 $742 $749 forward $149 $-1 #
edge $-1 $564 -7.7031773019092782 $747 7.7031773019092782 $557 $750 forward 7 unknown #
edge $-1 $751 -7.7031773019092782 $392 7.7031773019092782 $389 $752 forward 7 unknown #
vertex $-1 $562 $753 #
straight-curve $-1 -74.828943754387041 0 -14.437668846625948 0 -1 0 I I #
coedge $-1 $558 $557 $386 $567 reversed $235 $-1 #
edge $-1 $571 -14.437668846625948 $564 14.437668846625948 $566 $754 forward 7 unknown #
coedge $-1 $755 $387 $390 $574 forward $570 $-1 #
coedge $-1 $387 $755 $558 $745 forward $570 $-1 #
loop $-1 $-1 $387 $554 #
vertex $-1 $388 $756 #
straight-curve $-1 -74.828943754387041 0 14.437668846625948 0 1 0 I I #
coedge $-1 $390 $389 $556 $744 reversed $391 $-1 #
edge $-1 $393 -7.7031773019092782 $757 7.7031773019092782 $390 $758 forward 7 unknown #
point $-1 -74.828943754387041 -2.5566095721868791 -14.437668846625948 #
point $-1 -74.828943754387041 -2.5566095721868791 14.437668846625948 #
loop $-1 $-1 $403 $395 #
plane-surface $-1 0 -31.431947265438776 0 0 1 0 0 0 1 forward_v I I I I #
coedge $-1 $580 $398 $400 $584 reversed $243 $-1 #
coedge $-1 $398 $579 $759 $760 reversed $243 $-1 #
coedge $-1 $406 $401 $398 $582 forward $396 $-1 #
edge $-1 $585 -51.252173337945493 $761 -38.11146444362295 $581 $762 forward 7 unknown #
coedge $-1 $400 $399 $588 $763 reversed $153 $-1 #
edge $-1 $764 -1.5310180211858787e-014 $585 18.916793656472016 $579 $765 forward 7 unknown #
vertex $-1 $402 $766 #
straight-curve $-1 -24.797984285675103 -18.291238371116236 14.437668846625948 -1 0 0 I I #
coedge $-1 $759 $403 $406 $592 reversed $577 $-1 #
coedge $-1 $403 $759 $583 $763 forward $577 $-1 #
vertex $-1 $404 $767 #
straight-curve $-1 -39.769347992131927 -31.431947265438779 52.395584552615276 0 0 1 I I #
straight-curve $-1 -39.769347992131927 -31.431947265438765 0.83006611887802251 0 -0.69465836192734942 -0.71933980857756763 I I #
edge $-1 $761 -59.422589150568484 $407 -39.769347992131927 $587 $768 forward 7 unknown #
point $-1 -39.769347992131927 -31.431947265438776 14.437668846625948 #
point $-1 -39.769347992131927 -18.29123837111624 14.437668846625948 #
edge $-1 $769 1 $769 0 $410 $-1 forward 7 unknown #
vertex $-1 $411 $770 #
ellipse-curve $-1 -49.595968571350205 -19.556222989198893 2.5105315142142057 0 -0.71933980857756763 0.69465836192734942 2.5 0 0 1 I I #
point $-1 -47.095968571350205 -24.861592818277522 7.6338674827519943 #
plane-surface $-1 0 0 14.437668846625948 0 0 1 1 0 0 forward_v I I I I #
coedge $-1 $610 $609 $602 $771 forward $415 $-1 #
coedge $-1 $602 $417 $419 $606 reversed $258 $-1 #
coedge $-1 $417 $601 $600 $771 reversed $258 $-1 #
coedge $-1 $425 $420 $417 $604 forward $426 $-1 #
edge $-1 $607 -51.252173337945493 $772 -38.11146444362295 $603 $773 forward 7 unknown #
coedge $-1 $419 $418 $610 $774 reversed $162 $-1 #
edge $-1 $775 -1.5310180211858787e-014 $607 18.916793656472016 $601 $776 forward 7 unknown #
vertex $-1 $421 $777 #
straight-curve $-1 8.764898940563782 -18.291238371116236 14.437668846625948 -1 0 0 I I #
coedge $-1 $600 $422 $425 $614 reversed $415 $-1 #
coedge $-1 $422 $600 $605 $774 forward $415 $-1 #
vertex $-1 $423 $778 #
straight-curve $-1 27.356418460345843 -31.431947265438779 52.395584552615276 0 0 1 I I #
straight-curve $-1 27.356418460345843 -31.431947265438765 0.83006611887802251 0 -0.69465836192734942 -0.71933980857756763 I I #
edge $-1 $772 7.7031773019092853 $427 27.356418460345843 $609 $779 forward 7 unknown #
point $-1 27.356418460345843 -31.431947265438776 14.437668846625948 #
point $-1 27.356418460345843 -18.29123837111624 14.437668846625948 #
edge $-1 $780 1 $780 0 $430 $-1 forward 7 unknown #
vertex $-1 $431 $781 #
ellipse-curve $-1 17.529797881127564 -19.556222989198893 2.5105315142142057 0 -0.71933980857756763 0.69465836192734942 2.5 0 0 1 I I #
point $-1 20.029797881127564 -24.861592818277522 7.6338674827519943 #
plane-surface $-1 0 0 14.437668846625948 0 0 1 1 0 0 forward_v I I I I #
coedge $-1 $632 $631 $624 $782 forward $435 $-1 #
coedge $-1 $624 $437 $439 $628 reversed $273 $-1 #
coedge $-1 $437 $623 $622 $782 reversed $273 $-1 #
coedge $-1 $445 $440 $437 $626 forward $446 $-1 #
edge $-1 $629 -27.300484362125715 $783 -16.276999444026426 $625 $784 forward 7 unknown #
coedge $-1 $439 $438 $632 $785 reversed $171 $-1 #
edge $-1 $786 -62.863894530877573 $629 -46.99496453266331 $623 $787 forward 7 unknown #
vertex $-1 $441 $788 #
straight-curve $-1 -20.907924536803264 20.408462347339487 14.43766884662595 1 0 0 I I #
coedge $-1 $622 $442 $445 $636 reversed $435 $-1 #
coedge $-1 $442 $622 $627 $785 forward $435 $-1 #
vertex $-1 $443 $789 #
straight-curve $-1 -49.054039706327814 31.431947265438776 76.10206031200704 0 0 1 I I #
straight-curve $-1 -49.054039706327814 -12.236982733754289 48.243017637661552 0 0.69465836192734942 -0.71933980857756763 I I #
edge $-1 $783 34.577658440885244 $447 49.054039706327814 $631 $790 forward 7 unknown #
point $-1 -49.054039706327814 31.431947265438776 14.437668846625948 #
point $-1 -49.054039706327814 20.408462347339487 14.437668846625947 #
edge $-1 $791 1 $791 0 $450 $-1 forward 7 unknown #
vertex $-1 $451 $792 #
ellipse-curve $-1 -44.917930773344224 23.753118717826673 6.6373616529089308 0 0.71933980857756763 0.69465836192734942 2 0 0 1 I I #
point $-1 -42.917930773344224 25.92020480638913 8.7300923130028174 #
edge $-1 $793 1 $793 0 $454 $-1 forward 7 unknown #
vertex $-1 $455 $794 #
ellipse-curve $-1 -38.713767373868841 23.753118717826673 6.6373616529089308 0 0.71933980857756763 0.69465836192734942 2 0 0 1 I I #
point $-1 -36.713767373868841 25.92020480638913 8.7300923130028174 #
loop $-1 $-1 $466 $458 #
plane-surface $-1 0 31.431947265438776 0 0 -1 0 0 0 -1 forward_v I I I I #
coedge $-1 $650 $461 $463 $654 reversed $295 $-1 #
coedge $-1 $461 $649 $795 $796 reversed $295 $-1 #
coedge $-1 $469 $464 $461 $652 forward $459 $-1 #
edge $-1 $655 -27.300484362125715 $797 -16.276999444026426 $651 $798 forward 7 unknown #
coedge $-1 $463 $462 $658 $799 reversed $185 $-1 #
edge $-1 $800 -62.863894530877573 $655 -46.99496453266331 $649 $801 forward 7 unknown #
vertex $-1 $465 $802 #
straight-curve $-1 -4.401582411631324 20.408462347339487 14.43766884662595 1 0 0 I I #
coedge $-1 $795 $466 $469 $662 reversed $647 $-1 #
coedge $-1 $466 $795 $653 $799 forward $647 $-1 #
vertex $-1 $467 $803 #
straight-curve $-1 -16.041355455983936 31.431947265438776 76.10206031200704 0 0 1 I I #
straight-curve $-1 -16.041355455983936 -12.236982733754289 48.243017637661552 0 0.69465836192734942 -0.71933980857756763 I I #
edge $-1 $797 1.5649741905413599 $470 16.041355455983936 $657 $804 forward 7 unknown #
point $-1 -16.041355455983936 31.431947265438776 14.437668846625948 #
point $-1 -16.041355455983936 20.408462347339487 14.437668846625947 #
edge $-1 $805 1 $805 0 $473 $-1 forward 7 unknown #
vertex $-1 $474 $806 #
ellipse-curve $-1 -11.905246523000343 23.753118717826673 6.6373616529089308 0 0.71933980857756763 0.69465836192734942 2 0 0 1 I I #
point $-1 -9.9052465230003435 25.92020480638913 8.7300923130028174 #
edge $-1 $807 1 $807 0 $477 $-1 forward 7 unknown #
vertex $-1 $478 $808 #
ellipse-curve $-1 -5.7010831235249668 23.753118717826673 6.6373616529089308 0 0.71933980857756763 0.69465836192734942 2 0 0 1 I I #
point $-1 -3.7010831235249668 25.92020480638913 8.7300923130028174 #
loop $-1 $-1 $489 $481 #
plane-surface $-1 0 31.431947265438776 0 0 -1 0 0 0 -1 forward_v I I I I #
coedge $-1 $676 $484 $486 $680 reversed $317 $-1 #
coedge $-1 $484 $675 $809 $810 reversed $317 $-1 #
coedge $-1 $492 $487 $484 $678 forward $482 $-1 #
edge $-1 $681 -27.300484362125715 $811 -16.276999444026426 $677 $812 forward 7 unknown #
coedge $-1 $486 $485 $684 $813 reversed $199 $-1 #
edge $-1 $814 -62.863894530877573 $681 -46.99496453266331 $675 $815 forward 7 unknown #
vertex $-1 $488 $816 #
straight-curve $-1 12.104759713540616 20.408462347339487 14.43766884662595 1 0 0 I I #
coedge $-1 $809 $489 $492 $688 reversed $673 $-1 #
coedge $-1 $489 $809 $679 $813 forward $673 $-1 #
vertex $-1 $490 $817 #
straight-curve $-1 16.971328794359945 31.431947265438776 76.10206031200704 0 0 1 I I #
straight-curve $-1 16.971328794359945 -12.236982733754289 48.243017637661552 0 0.69465836192734942 -0.71933980857756763 I I #
edge $-1 $811 -31.447710059802521 $493 -16.971328794359945 $683 $818 forward 7 unknown #
point $-1 16.971328794359945 31.431947265438776 14.437668846625948 #
point $-1 16.971328794359945 20.408462347339487 14.437668846625947 #
edge $-1 $819 1 $819 0 $496 $-1 forward 7 unknown #
vertex $-1 $497 $820 #
ellipse-curve $-1 21.107437727343537 23.753118717826673 6.6373616529089308 0 0.71933980857756763 0.69465836192734942 2 0 0 1 I I #
point $-1 23.107437727343537 25.92020480638913 8.7300923130028174 #
edge $-1 $821 1 $821 0 $500 $-1 forward 7 unknown #
vertex $-1 $501 $822 #
ellipse-curve $-1 27.311601126818914 23.753118717826673 6.6373616529089308 0 0.71933980857756763 0.69465836192734942 2 0 0 1 I I #
point $-1 29.311601126818914 25.92020480638913 8.7300923130028174 #
loop $-1 $-1 $512 $504 #
plane-surface $-1 0 31.431947265438776 0 0 -1 0 0 0 -1 forward_v I I I I #
coedge $-1 $702 $507 $509 $706 reversed $339 $-1 #
coedge $-1 $507 $701 $823 $824 reversed $339 $-1 #
coedge $-1 $515 $510 $507 $704 forward $505 $-1 #
edge $-1 $707 -27.300484362125715 $825 -16.276999444026426 $703 $826 forward 7 unknown #
coedge $-1 $509 $508 $710 $827 reversed $213 $-1 #
edge $-1 $828 -62.863894530877573 $707 -46.99496453266331 $701 $829 forward 7 unknown #
vertex $-1 $511 $830 #
straight-curve $-1 28.611101838712557 20.408462347339487 14.43766884662595 1 0 0 I I #
coedge $-1 $823 $512 $515 $714 reversed $699 $-1 #
coedge $-1 $512 $823 $705 $827 forward $699 $-1 #
vertex $-1 $513 $831 #
straight-curve $-1 49.984013044703829 31.431947265438776 76.10206031200704 0 0 1 I I #
straight-curve $-1 49.984013044703829 -12.236982733754289 48.243017637661552 0 0.69465836192734942 -0.71933980857756763 I I #
edge $-1 $825 -64.460394310146398 $516 -49.984013044703829 $709 $832 forward 7 unknown #
point $-1 49.984013044703829 31.431947265438776 14.437668846625948 #
point $-1 49.984013044703829 20.408462347339487 14.437668846625947 #
edge $-1 $833 1 $833 0 $519 $-1 forward 7 unknown #
vertex $-1 $520 $834 #
ellipse-curve $-1 54.120121977687432 23.753118717826673 6.6373616529089308 0 0.71933980857756763 0.69465836192734942 2 0 0 1 I I #
point $-1 56.120121977687432 25.92020480638913 8.7300923130028174 #
edge $-1 $835 1 $835 0 $523 $-1 forward 7 unknown #
vertex $-1 $524 $836 #
ellipse-curve $-1 60.324285377162795 23.753118717826673 6.6373616529089308 0 0.71933980857756763 0.69465836192734942 2 0 0 1 I I #
point $-1 62.324285377162795 25.92020480638913 8.7300923130028174 #
plane-surface $-1 74.828943754387041 0 0 -1 0 0 0 0 1 forward_v I I I I #
coedge $-1 $532 $530 $534 $730 reversed $361 $-1 #
edge $-1 $545 -14.437668846625948 $732 14.437668846625948 $544 $837 forward 7 unknown #
vertex $-1 $730 $838 #
straight-curve $-1 -74.828943754387041 -31.431947265438776 0 0 0 -1 I I #
edge $-1 $728 -31.431947265438776 $732 31.431947265438776 $726 $839 forward 7 unknown #
straight-curve $-1 0 -31.431947265438776 -14.437668846625948 -1 0 0 I I #
vertex $-1 $537 $840 #
straight-curve $-1 0 31.431947265438776 -14.437668846625948 1 0 0 I I #
point $-1 74.828943754387041 31.431947265438776 -14.437668846625948 #
point $-1 74.828943754387041 -31.431947265438776 -14.437668846625948 #
straight-curve $-1 -74.828943754387041 0 14.437668846625948 0 -1 0 I I #
point $-1 -74.828943754387041 31.431947265438776 14.437668846625948 #
point $-1 -74.828943754387041 -31.431947265438776 14.437668846625948 #
straight-curve $-1 74.828943754387041 -31.431947265438776 0 0 0 -1 I I #
straight-curve $-1 74.828943754387041 31.431947265438776 0 0 0 -1 I I #
plane-surface $-1 0 0 14.437668846625948 0 0 1 1 0 0 forward_v I I I I #
coedge $-1 $559 $556 $561 $749 reversed $380 $-1 #
coedge $-1 $556 $559 $755 $841 reversed $380 $-1 #
edge $-1 $757 -14.437668846625948 $751 14.437668846625948 $573 $842 forward 7 unknown #
edge $-1 $746 -7.7031773019092782 $571 7.7031773019092782 $558 $843 forward 7 unknown #
vertex $-1 $841 $844 #
vertex $-1 $749 $845 #
straight-curve $-1 -90.235298358205597 -10.368821742493814 0 0 0 -1 I I #
edge $-1 $747 -3.9061060851534677 $751 3.9061060851534677 $742 $846 forward 7 unknown #
straight-curve $-1 -82.532121056296319 -10.368821742493814 -14.437668846625948 -1 0 0 I I #
vertex $-1 $563 $847 #
straight-curve $-1 -82.532121056296319 -2.5566095721868791 -14.437668846625948 1 0 0 I I #
point $-1 -74.828943754387041 -10.368821742493814 -14.437668846625948 #
straight-curve $-1 -74.828943754387041 -10.368821742493814 0 0 0 -1 I I #
coedge $-1 $569 $568 $743 $841 forward $570 $-1 #
point $-1 -74.828943754387041 -10.368821742493814 14.437668846625948 #
vertex $-1 $574 $848 #
straight-curve $-1 -82.532121056296319 -2.5566095721868791 14.437668846625948 -1 0 0 I I #
coedge $-1 $588 $587 $580 $760 forward $577 $-1 #
edge $-1 $761 37.957915705989329 $764 51.565518433737267 $759 $849 forward 7 unknown #
vertex $-1 $592 $850 #
straight-curve $-1 -59.422589150568484 -69.543411709061729 14.437668846625947 0 -1 0 I I #
edge $-1 $764 -34.624604864893385 $589 -14.971363706456824 $588 $851 forward 7 unknown #
vertex $-1 $763 $852 #
straight-curve $-1 -59.422589150568484 -31.431947265438765 0.83006611887802251 0 0.69465836192734942 0.71933980857756763 I I #
point $-1 -59.422589150568484 -18.29123837111624 14.437668846625948 #
point $-1 -39.769347992131927 -31.431947265438776 0.83006611887801152 #
straight-curve $-1 0 -31.431947265438776 14.437668846625948 1 0 0 I I #
vertex $-1 $595 $853 #
point $-1 -47.095968571350205 -19.556222989198893 2.5105315142142057 #
edge $-1 $772 37.957915705989329 $775 51.565518433737267 $600 $854 forward 7 unknown #
vertex $-1 $614 $855 #
straight-curve $-1 7.7031773019092853 -69.543411709061729 14.437668846625947 0 -1 0 I I #
edge $-1 $775 -1.0617216386544968 $611 18.591519519782061 $610 $856 forward 7 unknown #
vertex $-1 $774 $857 #
straight-curve $-1 7.7031773019092853 -31.431947265438765 0.83006611887802251 0 0.69465836192734942 0.71933980857756763 I I #
point $-1 7.7031773019092853 -18.29123837111624 14.437668846625948 #
point $-1 27.356418460345843 -31.431947265438776 0.83006611887801152 #
straight-curve $-1 0 -31.431947265438776 14.437668846625948 1 0 0 I I #
vertex $-1 $617 $858 #
point $-1 20.029797881127564 -19.556222989198893 2.5105315142142057 #
edge $-1 $783 61.664391465381094 $786 73.079544532627352 $622 $859 forward 7 unknown #
vertex $-1 $636 $860 #
straight-curve $-1 -34.577658440885244 47.708946709465202 14.437668846625954 0 1 0 I I #
edge $-1 $786 13.66973390408198 $633 28.146115169524549 $632 $861 forward 7 unknown #
vertex $-1 $785 $862 #
straight-curve $-1 -34.577658440885244 -12.236982733754289 48.243017637661552 0 -0.69465836192734942 0.71933980857756763 I I #
point $-1 -34.577658440885244 20.408462347339487 14.437668846625947 #
point $-1 -49.054039706327814 31.431947265438779 3.0225157793796811 #
straight-curve $-1 0 31.431947265438776 14.437668846625948 -1 0 0 I I #
vertex $-1 $639 $863 #
point $-1 -42.917930773344224 23.753118717826673 6.6373616529089308 #
vertex $-1 $643 $864 #
point $-1 -36.713767373868841 23.753118717826673 6.6373616529089308 #
coedge $-1 $658 $657 $650 $796 forward $647 $-1 #
edge $-1 $797 61.664391465381094 $800 73.079544532627352 $795 $865 forward 7 unknown #
vertex $-1 $662 $866 #
straight-curve $-1 -1.5649741905413599 47.708946709465202 14.437668846625954 0 1 0 I I #
edge $-1 $800 -2.8366082210899641 $659 11.639773044352612 $658 $867 forward 7 unknown #
vertex $-1 $799 $868 #
straight-curve $-1 -1.5649741905413599 -12.236982733754289 48.243017637661552 0 -0.69465836192734942 0.71933980857756763 I I #
point $-1 -1.5649741905413599 20.408462347339487 14.437668846625947 #
point $-1 -16.041355455983936 31.431947265438779 3.0225157793796811 #
straight-curve $-1 0 31.431947265438776 14.437668846625948 -1 0 0 I I #
vertex $-1 $665 $869 #
point $-1 -9.9052465230003435 23.753118717826673 6.6373616529089308 #
vertex $-1 $669 $870 #
point $-1 -3.7010831235249668 23.753118717826673 6.6373616529089308 #
coedge $-1 $684 $683 $676 $810 forward $673 $-1 #
edge $-1 $811 61.664391465381094 $814 73.079544532627352 $809 $871 forward 7 unknown #
vertex $-1 $688 $872 #
straight-curve $-1 31.447710059802521 47.708946709465202 14.437668846625954 0 1 0 I I #
edge $-1 $814 -19.342950346261905 $685 -4.8665690808193283 $684 $873 forward 7 unknown #
vertex $-1 $813 $874 #
straight-curve $-1 31.447710059802521 -12.236982733754289 48.243017637661552 0 -0.69465836192734942 0.71933980857756763 I I #
point $-1 31.447710059802521 20.408462347339487 14.437668846625947 #
point $-1 16.971328794359945 31.431947265438779 3.0225157793796811 #
straight-curve $-1 0 31.431947265438776 14.437668846625948 -1 0 0 I I #
vertex $-1 $691 $875 #
point $-1 23.107437727343537 23.753118717826673 6.6373616529089308 #
vertex $-1 $695 $876 #
point $-1 29.311601126818914 23.753118717826673 6.6373616529089308 #
coedge $-1 $710 $709 $702 $824 forward $699 $-1 #
edge $-1 $825 61.664391465381094 $828 73.079544532627352 $823 $877 forward 7 unknown #
vertex $-1 $714 $878 #
straight-curve $-1 64.460394310146398 47.708946709465202 14.437668846625954 0 1 0 I I #
edge $-1 $828 -35.849292471433841 $711 -21.372911205991272 $710 $879 forward 7 unknown #
vertex $-1 $827 $880 #
straight-curve $-1 64.460394310146398 -12.236982733754289 48.243017637661552 0 -0.69465836192734942 0.71933980857756763 I I #
point $-1 64.460394310146398 20.408462347339487 14.437668846625947 #
point $-1 49.984013044703829 31.431947265438779 3.0225157793796811 #
straight-curve $-1 0 31.431947265438776 14.437668846625948 -1 0 0 I I #
vertex $-1 $717 $881 #
point $-1 56.120121977687432 23.753118717826673 6.6373616529089308 #
vertex $-1 $721 $882 #
point $-1 62.324285377162795 23.753118717826673 6.6373616529089308 #
straight-curve $-1 -74.828943754387041 31.431947265438776 0 0 0 -1 I I #
point $-1 -74.828943754387041 -31.431947265438776 -14.437668846625948 #
straight-curve $-1 -74.828943754387041 0 -14.437668846625948 0 1 0 I I #
point $-1 -74.828943754387041 31.431947265438776 -14.437668846625948 #
edge $-1 $757 -3.9061060851534677 $746 3.9061060851534677 $743 $883 forward 7 unknown #
straight-curve $-1 -90.235298358205597 -2.5566095721868791 0 0 0 -1 I I #
straight-curve $-1 -82.532121056296319 -10.368821742493814 14.437668846625948 1 0 0 I I #
point $-1 -90.235298358205597 -10.368821742493814 14.437668846625948 #
point $-1 -90.235298358205597 -10.368821742493814 -14.437668846625948 #
straight-curve $-1 -90.235298358205597 -6.4627156573403468 -14.437668846625948 0 1 0 I I #
point $-1 -90.235298358205597 -2.5566095721868791 -14.437668846625948 #
point $-1 -90.235298358205597 -2.5566095721868791 14.437668846625948 #
straight-curve $-1 -59.422589150568484 -31.431947265438779 52.395584552615276 0 0 -1 I I #
point $-1 -59.422589150568484 -31.431947265438776 14.437668846625948 #
straight-curve $-1 -24.797984285675103 -31.431947265438776 0.83006611887801496 1 0 0 I I #
point $-1 -59.422589150568484 -31.431947265438776 0.83006611887801152 #
point $-1 -49.595968571350205 -17.757873467754976 0.77388560939583151 #
straight-curve $-1 7.7031773019092853 -31.431947265438779 52.395584552615276 0 0 -1 I I #
point $-1 7.7031773019092853 -31.431947265438776 14.437668846625948 #
straight-curve $-1 8.764898940563782 -31.431947265438776 0.83006611887801496 1 0 0 I I #
point $-1 7.7031773019092853 -31.431947265438776 0.83006611887801152 #
point $-1 17.529797881127564 -17.757873467754976 0.77388560939583151 #
straight-curve $-1 -34.577658440885244 31.431947265438776 76.10206031200704 0 0 -1 I I #
point $-1 -34.577658440885244 31.431947265438776 14.437668846625948 #
straight-curve $-1 -20.907924536803264 31.431947265438779 3.0225157793796882 -1 0 0 I I #
point $-1 -34.577658440885244 31.431947265438779 3.0225157793796811 #
point $-1 -44.917930773344224 22.314439100671535 5.2480449290542328 #
point $-1 -38.713767373868841 22.314439100671535 5.2480449290542328 #
straight-curve $-1 -1.5649741905413599 31.431947265438776 76.10206031200704 0 0 -1 I I #
point $-1 -1.5649741905413599 31.431947265438776 14.437668846625948 #
straight-curve $-1 -4.401582411631324 31.431947265438779 3.0225157793796882 -1 0 0 I I #
point $-1 -1.5649741905413599 31.431947265438779 3.0225157793796811 #
point $-1 -11.905246523000343 22.314439100671535 5.2480449290542328 #
point $-1 -5.7010831235249668 22.314439100671535 5.2480449290542328 #
straight-curve $-1 31.447710059802521 31.431947265438776 76.10206031200704 0 0 -1 I I #
point $-1 31.447710059802521 31.431947265438776 14.437668846625948 #
straight-curve $-1 12.104759713540616 31.431947265438779 3.0225157793796882 -1 0 0 I I #
point $-1 31.447710059802521 31.431947265438779 3.0225157793796811 #
point $-1 21.107437727343537 22.314439100671535 5.2480449290542328 #
point $-1 27.311601126818914 22.314439100671535 5.2480449290542328 #
straight-curve $-1 64.460394310146398 31.431947265438776 76.10206031200704 0 0 -1 I I #
point $-1 64.460394310146398 31.431947265438776 14.437668846625948 #
straight-curve $-1 28.611101838712557 31.431947265438779 3.0225157793796882 -1 0 0 I I #
point $-1 64.460394310146398 31.431947265438779 3.0225157793796811 #
point $-1 54.120121977687432 22.314439100671535 5.2480449290542328 #
point $-1 60.324285377162795 22.314439100671535 5.2480449290542328 #
straight-curve $-1 -90.235298358205597 -6.4627156573403468 14.437668846625948 0 -1 0 I I #
End-of-ACIS-data 