500 0 6 0           
7 Unknown 11 ACIS 5.0 NT 24 Fri Mar 26 19:17:58 1999 
-1 9.9999999999999995e-007 1e-010 
body $-1 $6 $-1 $7 #
body $-1 $8 $-1 $9 #
body $-1 $10 $-1 $11 #
body $-1 $12 $-1 $13 #
body $-1 $14 $-1 $15 #
body $-1 $16 $-1 $17 #
lump $-1 $-1 $18 $0 #
transform $-1 1 0 0 0 1 0 0 0 1 60.919827875606558 37.686555710088889 10.22311224966265 1 rotate no_reflect no_shear #
lump $-1 $-1 $19 $1 #
transform $-1 1 0 0 0 1 0 0 0 1 60.919827875606558 37.686555710088889 10.22311224966265 1 rotate no_reflect no_shear #
lump $-1 $-1 $20 $2 #
transform $-1 1 0 0 0 1 0 0 0 1 60.919827875606558 37.686555710088889 10.22311224966265 1 rotate no_reflect no_shear #
lump $-1 $-1 $21 $3 #
transform $-1 1 0 0 0 1 0 0 0 1 60.919827875606558 37.686555710088889 10.22311224966265 1 rotate no_reflect no_shear #
lump $-1 $-1 $22 $4 #
transform $-1 1 0 0 0 1 0 0 0 1 60.919827875606558 37.686555710088889 10.22311224966265 1 rotate no_reflect no_shear #
lump $-1 $-1 $23 $5 #
transform $-1 1 0 0 0 1 0 0 0 1 60.919827875606558 37.686555710088889 10.22311224966265 1 rotate no_reflect no_shear #
shell $-1 $-1 $-1 $24 $-1 $6 #
shell $-1 $-1 $-1 $25 $-1 $8 #
shell $-1 $-1 $-1 $26 $-1 $10 #
shell $-1 $-1 $-1 $27 $-1 $12 #
shell $-1 $-1 $-1 $28 $-1 $14 #
shell $-1 $-1 $-1 $29 $-1 $16 #
face $-1 $30 $31 $18 $-1 $32 forward single #
face $-1 $33 $34 $19 $-1 $35 forward single #
face $-1 $36 $37 $20 $-1 $38 reversed single #
face $-1 $39 $40 $21 $-1 $41 forward single #
face $-1 $42 $43 $22 $-1 $44 reversed single #
face $-1 $45 $46 $23 $-1 $47 forward single #
face $-1 $48 $49 $18 $-1 $50 reversed single #
loop $-1 $-1 $51 $24 #
plane-surface $-1 0 0 10.22311224966265 0 0 1 1 0 0 forward_v I I I I #
face $-1 $52 $53 $19 $-1 $54 reversed single #
loop $-1 $-1 $55 $25 #
plane-surface $-1 0 -37.686555710088889 0 0 1 0 0 0 1 forward_v I I I I #
face $-1 $56 $57 $20 $-1 $58 reversed single #
loop $-1 $-1 $59 $26 #
plane-surface $-1 -125.48500945822764 25.815625746884251 107.25520595850125 0 1 0 -0.52991927123019833 0 0.84804809178421925 forward_v I I I I #
face $-1 $60 $61 $21 $-1 $62 forward single #
loop $-1 $63 $64 $27 #
cone-surface $-1 -55.255529406997766 31.751090728486581 6.0708679877355669 0.52991927123019833 0 -0.84804809178421925 1.2720721376763289 0 0.79487890684529749 1 I I 0 1 1.5 forward I I I I #
face $-1 $65 $66 $22 $-1 $67 reversed single #
loop $-1 $-1 $68 $28 #
plane-surface $-1 22.159121894765178 25.815625746884251 171.82038754112236 0 1 0 0.52991927123019833 0 0.84804809178421925 forward_v I I I I #
face $-1 $69 $70 $23 $-1 $71 forward single #
loop $-1 $72 $73 $29 #
cone-surface $-1 55.255529406997766 31.751090728486581 6.0708679877355687 -0.52991927123019833 0 -0.84804809178421925 1.2720721376763289 0 -0.79487890684529749 1 I I 0 1 1.5 forward I I I I #
face $-1 $74 $75 $18 $-1 $76 reversed single #
loop $-1 $-1 $77 $30 #
plane-surface $-1 0 0 -10.22311224966265 0 0 1 1 0 0 forward_v I I I I #
coedge $-1 $78 $79 $80 $81 forward $31 $-1 #
face $-1 $82 $83 $19 $-1 $84 reversed single #
loop $-1 $-1 $85 $33 #
plane-surface $-1 0 0 -10.22311224966265 0 0 1 1 0 0 forward_v I I I I #
coedge $-1 $86 $87 $88 $89 forward $34 $-1 #
face $-1 $90 $91 $20 $-1 $92 reversed single #
loop $-1 $-1 $93 $36 #
plane-surface $-1 -60.919827875606543 31.751090728486567 3.9293183950388055 -0.52991927123019833 0 0.84804809178421925 0.84804809178421925 0 0.52991927123019833 forward_v I I I I #
coedge $-1 $94 $95 $96 $97 reversed $37 $-1 #
face $-1 $-1 $98 $21 $-1 $99 forward single #
loop $-1 $100 $101 $39 #
cone-surface $-1 -54.229879204616736 31.751090728486581 4.429484584282239 0.52991927123019833 0 -0.84804809178421925 0.63603606883816444 0 0.39743945342264875 1 I I -0.70710678118654757 0.70710678118654757 0.75 forward I I I I #
loop $-1 $-1 $102 $27 #
coedge $-1 $64 $64 $103 $104 reversed $40 $-1 #
face $-1 $105 $106 $22 $-1 $107 forward single #
loop $-1 $-1 $108 $42 #
plane-surface $-1 -42.406059687855915 31.751090728486567 68.494499977659913 0.52991927123019833 0 0.84804809178421925 0.84804809178421925 0 -0.52991927123019833 forward_v I I I I #
coedge $-1 $109 $110 $111 $112 reversed $43 $-1 #
face $-1 $-1 $113 $23 $-1 $114 forward single #
loop $-1 $115 $116 $45 #
cone-surface $-1 54.229879204616736 31.751090728486581 4.4294845842822408 -0.52991927123019833 0 -0.84804809178421925 0.63603606883816444 0 -0.39743945342264875 1 I I -0.70710678118654757 0.70710678118654757 0.75 forward I I I I #
loop $-1 $-1 $117 $29 #
coedge $-1 $73 $73 $118 $119 reversed $46 $-1 #
face $-1 $120 $121 $18 $-1 $122 reversed single #
loop $-1 $-1 $123 $48 #
plane-surface $-1 0 -37.686555710088889 0 0 1 0 0 0 1 forward_v I I I I #
coedge $-1 $124 $125 $126 $127 forward $49 $-1 #
coedge $-1 $128 $51 $129 $130 forward $31 $-1 #
coedge $-1 $51 $128 $131 $132 forward $31 $-1 #
coedge $-1 $133 $134 $51 $81 reversed $135 $-1 #
edge $-1 $136 -37.686555710088889 $137 37.686555710088889 $80 $138 forward 7 unknown #
face $-1 $139 $140 $19 $-1 $141 forward single #
loop $-1 $-1 $142 $52 #
plane-surface $-1 60.919827875606558 0 0 -1 0 0 0 0 1 forward_v I I I I #
coedge $-1 $143 $144 $145 $146 forward $53 $-1 #
coedge $-1 $145 $55 $142 $147 reversed $34 $-1 #
coedge $-1 $55 $145 $148 $149 reversed $34 $-1 #
coedge $-1 $150 $151 $55 $89 reversed $140 $-1 #
edge $-1 $152 -60.919827875606558 $153 60.919827875606558 $88 $154 forward 7 unknown #
face $-1 $155 $156 $20 $-1 $157 reversed single #
loop $-1 $-1 $158 $56 #
plane-surface $-1 0 37.686555710088889 0 0 -1 0 0 0 -1 forward_v I I I I #
coedge $-1 $159 $160 $161 $162 reversed $57 $-1 #
coedge $-1 $95 $59 $163 $164 reversed $37 $-1 #
coedge $-1 $59 $94 $159 $165 reversed $37 $-1 #
coedge $-1 $161 $166 $59 $97 forward $167 $-1 #
edge $-1 $168 1.8226768535072608 $169 11.894852292808103 $96 $170 forward 7 unknown #
loop $-1 $-1 $103 $60 #
plane-surface $-1 -60.919827875606543 31.751090728486567 3.9293183950388055 -0.52991927123019833 0 0.84804809178421925 0.84804809178421925 0 0.52991927123019833 forward_v I I I I #
loop $-1 $-1 $171 $39 #
coedge $-1 $101 $101 $102 $172 reversed $61 $-1 #
coedge $-1 $102 $102 $101 $172 forward $63 $-1 #
coedge $-1 $103 $103 $64 $104 forward $98 $-1 #
edge $-1 $173 0 $173 6.2831853071796004 $103 $174 forward 7 unknown #
face $-1 $175 $176 $22 $-1 $177 reversed single #
loop $-1 $-1 $178 $65 #
plane-surface $-1 0 0 10.22311224966265 0 0 1 1 0 0 forward_v I I I I #
coedge $-1 $179 $180 $181 $182 reversed $66 $-1 #
coedge $-1 $110 $68 $183 $184 reversed $43 $-1 #
coedge $-1 $68 $109 $179 $185 reversed $43 $-1 #
coedge $-1 $181 $186 $68 $112 forward $187 $-1 #
edge $-1 $188 75.687081520898531 $189 81.980875375522373 $111 $190 forward 7 unknown #
loop $-1 $-1 $118 $69 #
plane-surface $-1 -42.406059687855915 31.751090728486567 68.494499977659913 0.52991927123019833 0 0.84804809178421925 0.84804809178421925 0 -0.52991927123019833 forward_v I I I I #
loop $-1 $-1 $191 $45 #
coedge $-1 $116 $116 $117 $192 reversed $70 $-1 #
coedge $-1 $117 $117 $116 $192 forward $72 $-1 #
coedge $-1 $118 $118 $73 $119 forward $113 $-1 #
edge $-1 $193 0 $193 6.2831853071796004 $118 $194 forward 7 unknown #
face $-1 $195 $196 $18 $-1 $197 reversed single #
loop $-1 $-1 $198 $74 #
plane-surface $-1 -60.919827875606558 0 0 1 0 0 0 0 -1 forward_v I I I I #
coedge $-1 $199 $131 $200 $201 forward $75 $-1 #
coedge $-1 $202 $77 $199 $203 forward $49 $-1 #
coedge $-1 $77 $202 $204 $205 forward $49 $-1 #
coedge $-1 $134 $133 $77 $127 reversed $135 $-1 #
edge $-1 $206 -37.686555710088889 $207 37.686555710088889 $126 $208 forward 7 unknown #
coedge $-1 $79 $78 $209 $210 forward $31 $-1 #
coedge $-1 $211 $212 $78 $130 reversed $196 $-1 #
edge $-1 $137 -60.919827875606558 $213 60.919827875606558 $129 $214 forward 7 unknown #
coedge $-1 $123 $215 $79 $132 reversed $75 $-1 #
edge $-1 $216 -60.919827875606558 $136 60.919827875606558 $131 $217 forward 7 unknown #
coedge $-1 $126 $80 $215 $218 forward $135 $-1 #
coedge $-1 $80 $126 $211 $219 reversed $135 $-1 #
loop $-1 $-1 $133 $195 #
vertex $-1 $81 $220 #
vertex $-1 $81 $221 #
straight-curve $-1 60.919827875606558 0 10.22311224966265 0 1 0 I I #
face $-1 $222 $223 $19 $-1 $224 reversed single #
loop $-1 $-1 $151 $82 #
plane-surface $-1 0 -44.063263705033272 -6.832172651997821 0 0 1 1 0 0 forward_v I I I I #
coedge $-1 $225 $226 $86 $147 forward $83 $-1 #
coedge $-1 $227 $85 $226 $228 forward $53 $-1 #
coedge $-1 $85 $227 $229 $230 forward $53 $-1 #
coedge $-1 $87 $86 $85 $146 reversed $34 $-1 #
edge $-1 $231 -60.919827875606558 $232 60.919827875606558 $85 $233 forward 7 unknown #
edge $-1 $232 -10.22311224966265 $153 -6.832172651997821 $142 $234 forward 7 unknown #
coedge $-1 $229 $235 $87 $149 forward $236 $-1 #
edge $-1 $152 6.832172651997821 $231 10.22311224966265 $148 $237 forward 7 unknown #
coedge $-1 $238 $88 $235 $239 forward $140 $-1 #
coedge $-1 $88 $238 $225 $240 forward $140 $-1 #
vertex $-1 $149 $241 #
vertex $-1 $240 $242 #
straight-curve $-1 0 -37.686555710088889 -6.832172651997821 1 0 0 I I #
face $-1 $-1 $167 $20 $-1 $243 forward single #
loop $-1 $-1 $244 $90 #
plane-surface $-1 -60.919827875606558 0 0 1 0 0 0 0 -1 forward_v I I I I #
coedge $-1 $245 $246 $160 $247 forward $91 $-1 #
coedge $-1 $248 $93 $95 $165 forward $57 $-1 #
coedge $-1 $93 $248 $158 $247 reversed $57 $-1 #
coedge $-1 $249 $96 $93 $162 forward $167 $-1 #
edge $-1 $169 9.9400803826409678 $250 21.811010345845599 $161 $251 forward 7 unknown #
coedge $-1 $252 $244 $94 $164 forward $156 $-1 #
edge $-1 $253 -49.698284584211827 $168 -43.404490729587977 $163 $254 forward 7 unknown #
edge $-1 $169 -11.876891814130316 $253 1.675811683274863e-014 $95 $255 forward 7 unknown #
coedge $-1 $96 $249 $252 $256 forward $167 $-1 #
loop $-1 $-1 $161 $155 #
vertex $-1 $164 $257 #
vertex $-1 $97 $258 #
straight-curve $-1 -62.742504729113818 25.815625746884251 10.223112249662648 1 0 0 I I #
coedge $-1 $171 $171 $-1 $259 reversed $100 $-1 #
edge $-1 $260 0 $260 6.2831853071796004 $101 $261 forward 7 unknown #
vertex $-1 $104 $262 #
ellipse-curve $-1 -55.88374015595614 31.751090728486581 7.0762153223507207 -0.52991927123019833 0 0.84804809178421925 1.2720721376763289 0 0.79487890684529749 1 I I #
face $-1 $-1 $187 $22 $-1 $263 reversed single #
loop $-1 $-1 $264 $105 #
plane-surface $-1 0 37.686555710088889 0 0 -1 0 0 0 -1 forward_v I I I I #
coedge $-1 $183 $265 $266 $267 forward $106 $-1 #
coedge $-1 $266 $108 $110 $185 forward $66 $-1 #
coedge $-1 $108 $266 $264 $268 reversed $66 $-1 #
coedge $-1 $269 $111 $108 $182 forward $187 $-1 #
edge $-1 $189 9.9400803826409678 $270 21.811010345845606 $181 $271 forward 7 unknown #
coedge $-1 $272 $178 $109 $184 forward $106 $-1 #
edge $-1 $273 39.768091488923147 $188 49.840266928223969 $183 $274 forward 7 unknown #
edge $-1 $189 -121.83965575121314 $273 -109.96276393708284 $110 $275 forward 7 unknown #
coedge $-1 $111 $269 $272 $276 reversed $187 $-1 #
loop $-1 $-1 $181 $175 #
vertex $-1 $276 $277 #
vertex $-1 $112 $278 #
straight-curve $-1 60.919827875606558 25.815625746884251 85.910193770561179 0 0 -1 I I #
coedge $-1 $191 $191 $-1 $279 reversed $115 $-1 #
edge $-1 $280 0 $280 6.2831853071796004 $116 $281 forward 7 unknown #
vertex $-1 $119 $282 #
ellipse-curve $-1 55.883740155956147 31.751090728486581 7.0762153223507269 0.52991927123019833 0 0.84804809178421925 1.2720721376763289 0 -0.79487890684529749 1 I I #
face $-1 $-1 $135 $18 $-1 $283 reversed single #
loop $-1 $-1 $211 $120 #
plane-surface $-1 0 37.686555710088889 0 0 -1 0 0 0 -1 forward_v I I I I #
coedge $-1 $284 $209 $212 $285 forward $121 $-1 #
coedge $-1 $215 $123 $124 $203 reversed $75 $-1 #
coedge $-1 $209 $284 $123 $201 reversed $121 $-1 #
edge $-1 $216 -10.22311224966265 $286 10.22311224966265 $200 $287 forward 7 unknown #
coedge $-1 $125 $124 $284 $288 forward $49 $-1 #
edge $-1 $207 -60.919827875606558 $286 60.919827875606558 $199 $289 forward 7 unknown #
coedge $-1 $212 $211 $125 $205 reversed $196 $-1 #
edge $-1 $290 -60.919827875606558 $206 60.919827875606558 $204 $291 forward 7 unknown #
vertex $-1 $127 $292 #
vertex $-1 $218 $293 #
straight-curve $-1 60.919827875606558 0 -10.22311224966265 0 -1 0 I I #
coedge $-1 $198 $200 $128 $210 reversed $121 $-1 #
edge $-1 $213 -37.686555710088889 $216 37.686555710088889 $209 $294 forward 7 unknown #
coedge $-1 $204 $129 $134 $219 forward $196 $-1 #
coedge $-1 $129 $204 $198 $285 reversed $196 $-1 #
vertex $-1 $130 $295 #
straight-curve $-1 0 37.686555710088889 10.22311224966265 -1 0 0 I I #
coedge $-1 $131 $199 $133 $218 reversed $75 $-1 #
vertex $-1 $210 $296 #
straight-curve $-1 0 -37.686555710088889 10.22311224966265 1 0 0 I I #
edge $-1 $136 -10.22311224966265 $207 10.22311224966265 $133 $297 forward 7 unknown #
edge $-1 $137 -10.22311224966265 $206 10.22311224966265 $134 $298 forward 7 unknown #
point $-1 60.919827875606558 -37.686555710088889 10.22311224966265 #
point $-1 60.919827875606558 37.686555710088889 10.22311224966265 #
face $-1 $-1 $236 $19 $-1 $299 reversed single #
loop $-1 $-1 $300 $139 #
plane-surface $-1 0 -50.439971699977654 -8.5276424508302355 0 1 0 0 0 1 forward_v I I I I #
coedge $-1 $301 $142 $151 $240 reversed $83 $-1 #
coedge $-1 $142 $301 $143 $228 reversed $83 $-1 #
coedge $-1 $144 $143 $302 $303 forward $53 $-1 #
edge $-1 $232 37.686555710088889 $304 50.439971699977654 $226 $305 forward 7 unknown #
coedge $-1 $306 $148 $144 $230 reversed $236 $-1 #
edge $-1 $307 -50.439971699977654 $231 -37.686555710088889 $229 $308 forward 7 unknown #
vertex $-1 $149 $309 #
vertex $-1 $228 $310 #
straight-curve $-1 0 -37.686555710088889 -10.22311224966265 1 0 0 I I #
straight-curve $-1 60.919827875606558 -37.686555710088889 0 0 0 1 I I #
coedge $-1 $148 $306 $150 $239 reversed $236 $-1 #
loop $-1 $-1 $148 $222 #
straight-curve $-1 -60.919827875606558 -37.686555710088889 0 0 0 -1 I I #
coedge $-1 $151 $150 $311 $312 forward $140 $-1 #
edge $-1 $152 -6.3767079949443826 $313 6.3767079949443826 $235 $314 forward 7 unknown #
edge $-1 $315 -6.3767079949443826 $153 6.3767079949443826 $225 $316 forward 7 unknown #
point $-1 -60.919827875606558 -37.686555710088889 -6.832172651997821 #
point $-1 60.919827875606558 -37.686555710088889 -6.832172651997821 #
plane-surface $-1 0 0 10.22311224966265 0 0 1 1 0 0 forward_v I I I I #
coedge $-1 $163 $317 $248 $318 forward $156 $-1 #
coedge $-1 $246 $158 $317 $319 reversed $91 $-1 #
coedge $-1 $158 $245 $249 $320 reversed $91 $-1 #
edge $-1 $250 12.913469306570102 $321 24.790361120700435 $158 $322 forward 7 unknown #
coedge $-1 $160 $159 $244 $318 reversed $57 $-1 #
coedge $-1 $166 $161 $246 $320 forward $167 $-1 #
vertex $-1 $320 $323 #
straight-curve $-1 -50.847652436305715 15.875545364243283 10.22311224966265 0 1 0 I I #
coedge $-1 $317 $163 $166 $256 reversed $156 $-1 #
vertex $-1 $164 $324 #
straight-curve $-1 -60.919827875606558 25.815625746884251 53.627602979250625 0 0 1 I I #
straight-curve $-1 -60.919827875606543 25.815625746884251 3.9293183950388055 -0.84804809178421925 0 -0.52991927123019833 I I #
edge $-1 $325 -37.686555710088889 $168 -25.815625746884251 $252 $326 forward 7 unknown #
point $-1 -60.919827875606558 25.815625746884251 10.22311224966265 #
point $-1 -50.847652436305715 25.815625746884251 10.22311224966265 #
edge $-1 $327 1 $327 0 $171 $-1 forward 7 unknown #
vertex $-1 $172 $328 #
ellipse-curve $-1 -54.627318658039385 31.751090728486581 5.0655206531204033 -0.52991927123019833 0 0.84804809178421925 1.2720721376763289 0 0.79487890684529749 1 I I #
point $-1 -54.611668018279815 31.751090728486581 7.8710942291960277 #
plane-surface $-1 60.919827875606558 0 0 -1 0 0 0 0 1 forward_v I I I I #
coedge $-1 $329 $330 $180 $268 forward $176 $-1 #
coedge $-1 $178 $272 $329 $331 forward $106 $-1 #
coedge $-1 $180 $179 $178 $267 reversed $66 $-1 #
edge $-1 $332 -21.811010345845599 $273 -9.9400803826409678 $178 $333 forward 7 unknown #
edge $-1 $270 -85.710188996306982 $332 -73.833297182176693 $264 $334 forward 7 unknown #
coedge $-1 $186 $181 $330 $335 reversed $187 $-1 #
vertex $-1 $182 $336 #
straight-curve $-1 60.919827875606558 15.875545364243283 3.9293183950388055 0 1 0 I I #
coedge $-1 $265 $183 $186 $276 forward $106 $-1 #
vertex $-1 $184 $337 #
straight-curve $-1 11.079560947382589 25.815625746884251 10.223112249662648 1 0 0 I I #
straight-curve $-1 -42.406059687855915 25.815625746884251 68.494499977659913 -0.84804809178421925 0 0.52991927123019833 I I #
edge $-1 $188 25.815625746884251 $338 37.686555710088889 $186 $339 forward 7 unknown #
point $-1 60.919827875606558 25.815625746884251 10.22311224966265 #
point $-1 60.919827875606558 25.815625746884251 3.9293183950388055 #
edge $-1 $340 1 $340 0 $191 $-1 forward 7 unknown #
vertex $-1 $192 $341 #
ellipse-curve $-1 54.627318658039385 31.751090728486581 5.0655206531204051 0.52991927123019833 0 0.84804809178421925 1.2720721376763289 0 -0.79487890684529749 1 I I #
point $-1 57.155812293632472 31.751090728486581 6.2813364155054341 #
plane-surface $-1 60.919827875606558 0 0 -1 0 0 0 0 1 forward_v I I I I #
coedge $-1 $200 $198 $202 $288 reversed $121 $-1 #
edge $-1 $213 -10.22311224966265 $290 10.22311224966265 $212 $342 forward 7 unknown #
vertex $-1 $288 $343 #
straight-curve $-1 -60.919827875606558 -37.686555710088889 0 0 0 -1 I I #
edge $-1 $286 -37.686555710088889 $290 37.686555710088889 $284 $344 forward 7 unknown #
straight-curve $-1 0 -37.686555710088889 -10.22311224966265 -1 0 0 I I #
vertex $-1 $205 $345 #
straight-curve $-1 0 37.686555710088889 -10.22311224966265 1 0 0 I I #
point $-1 60.919827875606558 37.686555710088889 -10.22311224966265 #
point $-1 60.919827875606558 -37.686555710088889 -10.22311224966265 #
straight-curve $-1 -60.919827875606558 0 10.22311224966265 0 -1 0 I I #
point $-1 -60.919827875606558 37.686555710088889 10.22311224966265 #
point $-1 -60.919827875606558 -37.686555710088889 10.22311224966265 #
straight-curve $-1 60.919827875606558 -37.686555710088889 0 0 0 -1 I I #
straight-curve $-1 60.919827875606558 37.686555710088889 0 0 0 -1 I I #
plane-surface $-1 -60.919827875606558 0 0 1 0 0 0 0 -1 forward_v I I I I #
coedge $-1 $302 $311 $306 $346 forward $223 $-1 #
coedge $-1 $226 $225 $347 $348 forward $83 $-1 #
coedge $-1 $347 $300 $227 $303 reversed $223 $-1 #
edge $-1 $304 -60.919827875606558 $307 60.919827875606558 $302 $349 forward 7 unknown #
vertex $-1 $348 $350 #
straight-curve $-1 60.919827875606558 0 -10.22311224966265 0 -1 0 I I #
coedge $-1 $235 $229 $300 $346 reversed $236 $-1 #
vertex $-1 $230 $351 #
straight-curve $-1 -60.919827875606558 0 -10.22311224966265 0 1 0 I I #
point $-1 -60.919827875606558 -37.686555710088889 -10.22311224966265 #
point $-1 60.919827875606558 -37.686555710088889 -10.22311224966265 #
coedge $-1 $300 $347 $238 $312 reversed $223 $-1 #
edge $-1 $313 -60.919827875606558 $315 60.919827875606558 $311 $352 forward 7 unknown #
vertex $-1 $239 $353 #
straight-curve $-1 -60.919827875606558 -44.063263705033272 -6.832172651997821 0 -1 0 I I #
vertex $-1 $240 $354 #
straight-curve $-1 60.919827875606558 -44.063263705033272 -6.832172651997821 0 1 0 I I #
coedge $-1 $244 $252 $245 $319 forward $156 $-1 #
edge $-1 $321 -21.811010345845599 $253 -9.9400803826409678 $244 $355 forward 7 unknown #
edge $-1 $325 -10.22311224966265 $321 -3.9293183950387967 $245 $356 forward 7 unknown #
edge $-1 $250 50.847652436305715 $325 60.919827875606558 $246 $357 forward 7 unknown #
vertex $-1 $247 $358 #
straight-curve $-1 -39.896409432554854 37.686555710088889 17.066208493653811 -0.84804809178421925 0 -0.52991927123019833 I I #
point $-1 -50.847652436305715 37.686555710088882 10.22311224966265 #
point $-1 -60.919827875606558 25.815625746884251 3.9293183950387967 #
vertex $-1 $320 $359 #
straight-curve $-1 -60.919827875606558 0 10.22311224966265 0 -1 0 I I #
vertex $-1 $259 $360 #
point $-1 -53.355246520363053 31.751090728486581 5.8603995599657015 #
coedge $-1 $330 $264 $265 $331 reversed $176 $-1 #
coedge $-1 $264 $329 $269 $335 forward $176 $-1 #
edge $-1 $338 -60.919827875606558 $332 -50.847652436305737 $329 $361 forward 7 unknown #
vertex $-1 $268 $362 #
straight-curve $-1 50.847652436305737 15.875545364243283 10.223112249662648 0 -1 0 I I #
straight-curve $-1 -11.766534349176371 37.686555710088889 49.348799284964372 -0.84804809178421925 0 0.52991927123019833 I I #
edge $-1 $338 -10.22311224966265 $270 -3.92931839503881 $269 $363 forward 7 unknown #
point $-1 60.919827875606558 37.686555710088889 3.92931839503881 #
point $-1 50.847652436305737 25.815625746884251 10.223112249662648 #
vertex $-1 $276 $364 #
straight-curve $-1 60.919827875606558 0 10.22311224966265 0 1 0 I I #
vertex $-1 $279 $365 #
point $-1 55.899390795715718 31.751090728486581 4.2706417462751078 #
straight-curve $-1 -60.919827875606558 37.686555710088889 0 0 0 -1 I I #
point $-1 -60.919827875606558 -37.686555710088889 -10.22311224966265 #
straight-curve $-1 -60.919827875606558 0 -10.22311224966265 0 1 0 I I #
point $-1 -60.919827875606558 37.686555710088889 -10.22311224966265 #
edge $-1 $313 -1.6954697988324146 $307 1.6954697988324146 $306 $366 forward 7 unknown #
coedge $-1 $311 $302 $301 $348 reversed $223 $-1 #
edge $-1 $315 -1.6954697988324146 $304 1.6954697988324146 $301 $367 forward 7 unknown #
straight-curve $-1 0 -50.439971699977654 -10.22311224966265 -1 0 0 I I #
point $-1 60.919827875606558 -50.439971699977654 -10.22311224966265 #
point $-1 -60.919827875606558 -50.439971699977654 -10.22311224966265 #
straight-curve $-1 0 -50.439971699977654 -6.832172651997821 1 0 0 I I #
point $-1 -60.919827875606558 -50.439971699977654 -6.832172651997821 #
point $-1 60.919827875606558 -50.439971699977654 -6.832172651997821 #
straight-curve $-1 -60.919827875606558 15.875545364243283 3.9293183950387949 0 -1 0 I I #
straight-curve $-1 -60.919827875606558 37.686555710088889 0 0 0 -1 I I #
straight-curve $-1 0 37.686555710088889 10.22311224966265 -1 0 0 I I #
point $-1 -60.919827875606558 37.686555710088882 3.9293183950387967 #
point $-1 -60.919827875606558 37.686555710088889 10.22311224966265 #
point $-1 -53.832439751194087 31.751090728486581 3.7934485154440747 #
straight-curve $-1 0 37.686555710088889 10.22311224966265 -1 0 0 I I #
point $-1 50.847652436305737 37.686555710088882 10.223112249662648 #
straight-curve $-1 60.919827875606558 37.686555710088889 0 0 0 -1 I I #
point $-1 60.919827875606558 37.686555710088889 10.22311224966265 #
point $-1 53.832439751194087 31.751090728486581 3.7934485154440765 #
straight-curve $-1 -60.919827875606558 -50.439971699977654 -8.5276424508302355 0 0 -1 I I #
straight-curve $-1 60.919827875606558 -50.439971699977654 -8.5276424508302355 0 0 -1 I I #
End-of-ACIS-data 