500 0 7 0           
7 Unknown 11 ACIS 5.0 NT 24 Fri Mar 26 00:26:39 1999 
-1 9.9999999999999995e-007 1e-010 
body $-1 $7 $-1 $8 #
body $-1 $9 $-1 $10 #
body $-1 $11 $-1 $12 #
body $-1 $13 $-1 $14 #
body $-1 $15 $-1 $16 #
body $-1 $17 $-1 $18 #
body $-1 $19 $-1 $20 #
lump $-1 $-1 $21 $0 #
transform $-1 1 0 0 0 1 0 0 0 1 78.426465651417587 50.193225231967475 24.227609757189978 1 rotate no_reflect no_shear #
lump $-1 $-1 $22 $1 #
transform $-1 1 0 0 0 1 0 0 0 1 78.426465651417587 50.193225231967475 24.227609757189978 1 rotate no_reflect no_shear #
lump $-1 $-1 $23 $2 #
transform $-1 1 0 0 0 1 0 0 0 1 78.426465651417587 50.193225231967475 24.227609757189978 1 rotate no_reflect no_shear #
lump $-1 $-1 $24 $3 #
transform $-1 1 0 0 0 1 0 0 0 1 78.426465651417587 50.193225231967475 24.227609757189978 1 rotate no_reflect no_shear #
lump $-1 $-1 $25 $4 #
transform $-1 1 0 0 0 1 0 0 0 1 78.426465651417587 50.193225231967475 24.227609757189978 1 rotate no_reflect no_shear #
lump $-1 $-1 $26 $5 #
transform $-1 1 0 0 0 1 0 0 0 1 78.426465651417587 50.193225231967475 24.227609757189978 1 rotate no_reflect no_shear #
lump $-1 $-1 $27 $6 #
transform $-1 1 0 0 0 1 0 0 0 1 78.426465651417587 50.193225231967475 24.227609757189978 1 rotate no_reflect no_shear #
shell $-1 $-1 $-1 $28 $-1 $7 #
shell $-1 $-1 $-1 $29 $-1 $9 #
shell $-1 $-1 $-1 $30 $-1 $11 #
shell $-1 $-1 $-1 $31 $-1 $13 #
shell $-1 $-1 $-1 $32 $-1 $15 #
shell $-1 $-1 $-1 $33 $-1 $17 #
shell $-1 $-1 $-1 $34 $-1 $19 #
face $-1 $35 $36 $21 $-1 $37 forward single #
face $-1 $38 $39 $22 $-1 $40 forward single #
face $-1 $41 $42 $23 $-1 $43 reversed single #
face $-1 $44 $45 $24 $-1 $46 forward single #
face $-1 $47 $48 $25 $-1 $49 reversed single #
face $-1 $50 $51 $26 $-1 $52 forward single #
face $-1 $53 $54 $27 $-1 $55 forward single #
face $-1 $56 $57 $21 $-1 $58 reversed single #
loop $-1 $-1 $59 $28 #
plane-surface $-1 0 0 24.227609757189978 0 0 1 1 0 0 forward_v I I I I #
face $-1 $60 $61 $22 $-1 $62 reversed single #
loop $-1 $-1 $63 $29 #
plane-surface $-1 0 -50.193225231967475 0 0 1 0 0 0 1 forward_v I I I I #
face $-1 $64 $65 $23 $-1 $66 reversed single #
loop $-1 $-1 $67 $30 #
plane-surface $-1 78.42646822513673 41.102020372509067 228.78064291376145 0 1 0 0.70710678939079041 0 0.70710677298230451 forward_v I I I I #
face $-1 $68 $69 $24 $-1 $70 forward single #
loop $-1 $71 $72 $31 #
cone-surface $-1 69.074770984400359 45.647622802238274 14.87591490641584 -0.70710678939079041 0 -0.70710677298230451 1.0606601594734568 0 -1.0606601840861856 1 I I 0 1 1.5 forward I I I I #
face $-1 $73 $74 $25 $-1 $75 reversed single #
loop $-1 $-1 $76 $32 #
plane-surface $-1 -202.02826354751738 41.914025093789732 100.9742313376768 0 1 0 -0.78801076186113728 0 0.61566146476048833 forward_v I I I I #
face $-1 $77 $78 $26 $-1 $79 forward single #
loop $-1 $80 $81 $33 #
cone-surface $-1 -70.207525892876944 44.279510847554803 13.945077743613647 0.78801076186113728 0 -0.61566146476048833 0.30783073238024417 0 0.39400538093056864 1 I I 0 1 0.5 forward I I I I #
face $-1 $82 $83 $27 $-1 $84 forward single #
loop $-1 $85 $86 $34 #
cone-surface $-1 -70.207525892876944 47.827739478202403 13.945077743613647 0.78801076186113728 0 -0.61566146476048833 0.30783073238024417 0 0.39400538093056864 1 I I 0 1 0.5 forward I I I I #
face $-1 $87 $88 $21 $-1 $89 reversed single #
loop $-1 $-1 $90 $35 #
plane-surface $-1 0 0 -24.227609757189978 0 0 1 1 0 0 forward_v I I I I #
coedge $-1 $91 $92 $93 $94 forward $36 $-1 #
face $-1 $95 $96 $22 $-1 $97 reversed single #
loop $-1 $-1 $98 $38 #
plane-surface $-1 0 0 -24.227609757189978 0 0 1 1 0 0 forward_v I I I I #
coedge $-1 $99 $100 $101 $102 forward $39 $-1 #
face $-1 $103 $104 $23 $-1 $105 reversed single #
loop $-1 $-1 $106 $41 #
plane-surface $-1 -32.485304434945263 45.647622802238274 117.86887282739858 0.70710678939079041 0 0.70710677298230451 0.70710677298230451 0 -0.70710678939079041 forward_v I I I I #
coedge $-1 $107 $108 $109 $110 reversed $42 $-1 #
face $-1 $-1 $111 $24 $-1 $112 forward single #
loop $-1 $113 $114 $44 #
cone-surface $-1 67.82800081989474 45.647622802238274 13.629144770841652 -0.70710678939079041 0 -0.70710677298230451 0.53033007973672841 0 -0.53033009204309278 1 I I -0.70710678118654757 0.70710678118654757 0.75 forward I I I I #
loop $-1 $-1 $115 $31 #
coedge $-1 $72 $72 $116 $117 reversed $45 $-1 #
face $-1 $118 $119 $25 $-1 $120 reversed single #
loop $-1 $-1 $121 $47 #
plane-surface $-1 -78.426465651417615 46.053625162878603 4.4059258997970403 -0.78801076186113728 0 0.61566146476048833 0.61566146476048833 0 0.78801076186113728 forward_v I I I I #
coedge $-1 $122 $123 $124 $125 reversed $48 $-1 #
face $-1 $-1 $126 $26 $-1 $127 forward single #
loop $-1 $128 $129 $50 #
cone-surface $-1 -69.534781575353108 44.279510847554803 13.41947229254367 0.78801076186113728 0 -0.61566146476048833 0.15391536619012208 0 0.19700269046528432 1 I I -0.70710678118654746 0.70710678118654746 0.25 forward I I I I #
loop $-1 $-1 $130 $33 #
coedge $-1 $81 $81 $131 $132 reversed $51 $-1 #
face $-1 $-1 $133 $27 $-1 $134 forward single #
loop $-1 $135 $136 $53 #
cone-surface $-1 -69.534781575353108 47.827739478202403 13.41947229254367 0.78801076186113728 0 -0.61566146476048833 0.15391536619012208 0 0.19700269046528432 1 I I -0.70710678118654746 0.70710678118654746 0.25 forward I I I I #
loop $-1 $-1 $137 $34 #
coedge $-1 $86 $86 $138 $139 reversed $54 $-1 #
face $-1 $140 $141 $21 $-1 $142 reversed single #
loop $-1 $-1 $143 $56 #
plane-surface $-1 0 -50.193225231967475 0 0 1 0 0 0 1 forward_v I I I I #
coedge $-1 $144 $145 $146 $147 forward $57 $-1 #
coedge $-1 $148 $59 $149 $150 forward $36 $-1 #
coedge $-1 $59 $148 $151 $152 forward $36 $-1 #
coedge $-1 $153 $154 $59 $94 reversed $155 $-1 #
edge $-1 $156 -50.193225231967475 $157 50.193225231967475 $93 $158 forward 7 unknown #
face $-1 $159 $160 $22 $-1 $161 reversed single #
loop $-1 $-1 $162 $60 #
plane-surface $-1 -36.58812600025577 -79.627785823358877 0 0 1 0 0 0 1 forward_v I I I I #
coedge $-1 $163 $164 $100 $165 forward $61 $-1 #
coedge $-1 $166 $63 $167 $168 reversed $39 $-1 #
coedge $-1 $63 $166 $98 $165 reversed $39 $-1 #
coedge $-1 $169 $170 $63 $102 reversed $160 $-1 #
edge $-1 $171 -24.227609757189978 $172 24.227609757189978 $101 $173 forward 7 unknown #
face $-1 $174 $175 $23 $-1 $176 forward single #
loop $-1 $-1 $177 $64 #
plane-surface $-1 0 50.193225231967475 0 0 -1 0 0 0 -1 forward_v I I I I #
coedge $-1 $178 $179 $180 $181 reversed $65 $-1 #
coedge $-1 $108 $67 $182 $183 reversed $42 $-1 #
coedge $-1 $67 $107 $178 $184 reversed $42 $-1 #
coedge $-1 $180 $185 $67 $110 forward $186 $-1 #
edge $-1 $187 90.162711699690746 $188 107.43322128956412 $109 $189 forward 7 unknown #
loop $-1 $-1 $116 $68 #
plane-surface $-1 -32.485304434945263 45.647622802238274 117.86887282739858 0.70710678939079041 0 0.70710677298230451 0.70710677298230451 0 -0.70710678939079041 forward_v I I I I #
loop $-1 $-1 $190 $44 #
coedge $-1 $114 $114 $115 $191 reversed $69 $-1 #
coedge $-1 $115 $115 $114 $191 forward $71 $-1 #
coedge $-1 $116 $116 $72 $117 forward $111 $-1 #
edge $-1 $192 0 $192 6.2831853071796004 $116 $193 forward 7 unknown #
face $-1 $194 $195 $25 $-1 $196 reversed single #
loop $-1 $-1 $197 $73 #
plane-surface $-1 0 50.193225231967475 0 0 -1 0 0 0 -1 forward_v I I I I #
coedge $-1 $198 $199 $200 $201 reversed $74 $-1 #
coedge $-1 $123 $76 $202 $203 reversed $48 $-1 #
coedge $-1 $76 $122 $198 $204 reversed $48 $-1 #
coedge $-1 $200 $205 $76 $125 forward $206 $-1 #
edge $-1 $207 22.587666122341105 $208 38.07406238530524 $124 $209 forward 7 unknown #
loop $-1 $-1 $131 $77 #
plane-surface $-1 -78.426465651417615 46.053625162878603 4.4059258997970403 -0.78801076186113728 0 0.61566146476048833 0.61566146476048833 0 0.78801076186113728 forward_v I I I I #
loop $-1 $-1 $210 $50 #
coedge $-1 $129 $129 $130 $211 reversed $78 $-1 #
coedge $-1 $130 $130 $129 $211 forward $80 $-1 #
coedge $-1 $131 $131 $81 $132 forward $126 $-1 #
edge $-1 $212 0 $212 6.2831853071796004 $131 $213 forward 7 unknown #
loop $-1 $-1 $138 $82 #
plane-surface $-1 -78.426465651417615 46.053625162878603 4.4059258997970403 -0.78801076186113728 0 0.61566146476048833 0.61566146476048833 0 0.78801076186113728 forward_v I I I I #
loop $-1 $-1 $214 $53 #
coedge $-1 $136 $136 $137 $215 reversed $83 $-1 #
coedge $-1 $137 $137 $136 $215 forward $85 $-1 #
coedge $-1 $138 $138 $86 $139 forward $133 $-1 #
edge $-1 $216 0 $216 6.2831853071796004 $138 $217 forward 7 unknown #
face $-1 $218 $219 $21 $-1 $220 reversed single #
loop $-1 $-1 $221 $87 #
plane-surface $-1 -78.426465651417587 0 0 1 0 0 0 0 -1 forward_v I I I I #
coedge $-1 $222 $151 $223 $224 forward $88 $-1 #
coedge $-1 $225 $90 $222 $226 forward $57 $-1 #
coedge $-1 $90 $225 $227 $228 forward $57 $-1 #
coedge $-1 $154 $153 $90 $147 reversed $155 $-1 #
edge $-1 $229 -50.193225231967475 $230 50.193225231967475 $146 $231 forward 7 unknown #
coedge $-1 $92 $91 $232 $233 forward $36 $-1 #
coedge $-1 $234 $235 $91 $150 reversed $219 $-1 #
edge $-1 $157 -78.426465651417587 $236 78.426465651417587 $149 $237 forward 7 unknown #
coedge $-1 $143 $238 $92 $152 reversed $88 $-1 #
edge $-1 $239 -78.426465651417587 $156 78.426465651417587 $151 $240 forward 7 unknown #
coedge $-1 $146 $93 $238 $241 forward $155 $-1 #
coedge $-1 $93 $146 $234 $242 reversed $155 $-1 #
loop $-1 $-1 $153 $218 #
vertex $-1 $94 $243 #
vertex $-1 $94 $244 #
straight-curve $-1 78.426465651417587 0 24.227609757189978 0 1 0 I I #
face $-1 $245 $246 $22 $-1 $247 reversed single #
loop $-1 $-1 $101 $95 #
plane-surface $-1 -43.205005863473914 -64.910505527663176 0 1 0 0 0 0 -1 forward_v I I I I #
coedge $-1 $248 $249 $250 $251 forward $96 $-1 #
coedge $-1 $252 $98 $253 $254 forward $61 $-1 #
coedge $-1 $98 $252 $169 $255 forward $61 $-1 #
edge $-1 $171 -43.205005863473914 $256 -29.971246137037628 $98 $257 forward 7 unknown #
coedge $-1 $100 $99 $258 $259 forward $39 $-1 #
coedge $-1 $260 $261 $99 $168 forward $262 $-1 #
edge $-1 $263 29.971246137037628 $172 43.205005863473914 $167 $264 forward 7 unknown #
coedge $-1 $250 $101 $164 $255 reversed $160 $-1 #
coedge $-1 $101 $250 $260 $265 reversed $160 $-1 #
vertex $-1 $165 $266 #
vertex $-1 $265 $267 #
straight-curve $-1 -43.205005863473914 -50.193225231967475 0 0 0 1 I I #
face $-1 $-1 $186 $23 $-1 $268 reversed single #
loop $-1 $-1 $269 $103 #
plane-surface $-1 0 0 24.227609757189978 0 0 1 1 0 0 forward_v I I I I #
coedge $-1 $270 $271 $179 $272 forward $104 $-1 #
coedge $-1 $273 $106 $108 $184 forward $65 $-1 #
coedge $-1 $106 $273 $177 $272 reversed $65 $-1 #
coedge $-1 $274 $109 $106 $181 forward $186 $-1 #
edge $-1 $188 18.27820897138993 $275 27.369413830848337 $180 $276 forward 7 unknown #
coedge $-1 $277 $269 $107 $183 forward $175 $-1 #
edge $-1 $278 21.942722349739803 $187 39.213231538849222 $182 $279 forward 7 unknown #
edge $-1 $188 -156.85293130283517 $278 -132.42874269512455 $108 $280 forward 7 unknown #
coedge $-1 $109 $274 $277 $281 reversed $186 $-1 #
loop $-1 $-1 $180 $174 #
vertex $-1 $281 $282 #
vertex $-1 $110 $283 #
straight-curve $-1 78.426465651417587 41.102020372509067 114.39032145688073 0 0 -1 I I #
coedge $-1 $190 $190 $-1 $284 reversed $113 $-1 #
edge $-1 $285 0 $285 6.2831853071796004 $114 $286 forward 7 unknown #
vertex $-1 $117 $287 #
ellipse-curve $-1 69.791211056862878 45.647622802238274 15.5923549622533 0.70710678939079041 0 0.70710677298230451 1.0606601594734568 0 -1.0606601840861856 1 I I #
face $-1 $-1 $206 $25 $-1 $288 forward single #
loop $-1 $-1 $289 $118 #
plane-surface $-1 -78.426465651417587 0 0 1 0 0 0 0 -1 forward_v I I I I #
coedge $-1 $290 $291 $199 $292 forward $119 $-1 #
coedge $-1 $293 $121 $123 $204 forward $74 $-1 #
coedge $-1 $121 $293 $197 $292 reversed $74 $-1 #
coedge $-1 $294 $124 $121 $201 forward $206 $-1 #
edge $-1 $208 18.88721251235043 $295 27.166412650528173 $200 $296 forward 7 unknown #
coedge $-1 $297 $289 $122 $203 forward $195 $-1 #
edge $-1 $298 -46.081189769041323 $207 -26.259505911648422 $202 $299 forward 7 unknown #
edge $-1 $208 -25.154077604952683 $298 -4.6193811539156697e-014 $123 $300 forward 7 unknown #
coedge $-1 $124 $294 $297 $301 forward $206 $-1 #
loop $-1 $-1 $200 $194 #
vertex $-1 $203 $302 #
vertex $-1 $125 $303 #
straight-curve $-1 -101.01413177375869 41.914025093789732 24.227609757189981 1 0 0 I I #
coedge $-1 $210 $210 $-1 $304 reversed $128 $-1 #
edge $-1 $305 0 $305 6.2831853071796004 $129 $306 forward 7 unknown #
vertex $-1 $132 $307 #
ellipse-curve $-1 -70.683267519935526 44.279510847554803 14.316767828493521 -0.78801076186113728 0 0.61566146476048833 0.30783073238024417 0 0.39400538093056864 1 I I #
coedge $-1 $214 $214 $-1 $308 reversed $135 $-1 #
edge $-1 $309 0 $309 6.2831853071796004 $136 $310 forward 7 unknown #
vertex $-1 $139 $311 #
ellipse-curve $-1 -70.683267519935526 47.827739478202403 14.316767828493521 -0.78801076186113728 0 0.61566146476048833 0.30783073238024417 0 0.39400538093056864 1 I I #
face $-1 $-1 $155 $21 $-1 $312 reversed single #
loop $-1 $-1 $234 $140 #
plane-surface $-1 0 50.193225231967475 0 0 -1 0 0 0 -1 forward_v I I I I #
coedge $-1 $313 $232 $235 $314 forward $141 $-1 #
coedge $-1 $238 $143 $144 $226 reversed $88 $-1 #
coedge $-1 $232 $313 $143 $224 reversed $141 $-1 #
edge $-1 $239 -24.227609757189978 $315 24.227609757189978 $223 $316 forward 7 unknown #
coedge $-1 $145 $144 $313 $317 forward $57 $-1 #
edge $-1 $230 -78.426465651417587 $315 78.426465651417587 $222 $318 forward 7 unknown #
coedge $-1 $235 $234 $145 $228 reversed $219 $-1 #
edge $-1 $319 -78.426465651417587 $229 78.426465651417587 $227 $320 forward 7 unknown #
vertex $-1 $147 $321 #
vertex $-1 $241 $322 #
straight-curve $-1 78.426465651417587 0 -24.227609757189978 0 -1 0 I I #
coedge $-1 $221 $223 $148 $233 reversed $141 $-1 #
edge $-1 $236 -50.193225231967475 $239 50.193225231967475 $232 $323 forward 7 unknown #
coedge $-1 $227 $149 $154 $242 forward $219 $-1 #
coedge $-1 $149 $227 $221 $314 reversed $219 $-1 #
vertex $-1 $150 $324 #
straight-curve $-1 0 50.193225231967475 24.227609757189978 -1 0 0 I I #
coedge $-1 $151 $222 $153 $241 reversed $88 $-1 #
vertex $-1 $233 $325 #
straight-curve $-1 0 -50.193225231967475 24.227609757189978 1 0 0 I I #
edge $-1 $156 -24.227609757189978 $230 24.227609757189978 $153 $326 forward 7 unknown #
edge $-1 $157 -24.227609757189978 $229 24.227609757189978 $154 $327 forward 7 unknown #
point $-1 78.426465651417587 -50.193225231967475 24.227609757189978 #
point $-1 78.426465651417587 50.193225231967475 24.227609757189978 #
face $-1 $-1 $262 $22 $-1 $328 forward single #
loop $-1 $-1 $329 $159 #
plane-surface $-1 -29.971246137037628 -64.910505527663176 0 -1 0 0 0 0 1 forward_v I I I I #
coedge $-1 $330 $162 $252 $331 reversed $96 $-1 #
coedge $-1 $162 $330 $332 $333 reversed $96 $-1 #
coedge $-1 $170 $169 $162 $251 reversed $160 $-1 #
edge $-1 $334 -24.227609757189978 $335 24.227609757189978 $250 $336 forward 7 unknown #
coedge $-1 $164 $163 $248 $331 forward $61 $-1 #
coedge $-1 $258 $329 $163 $254 reversed $246 $-1 #
edge $-1 $256 -14.717280295695701 $337 14.717280295695701 $253 $338 forward 7 unknown #
edge $-1 $335 -14.717280295695701 $171 14.717280295695701 $169 $339 forward 7 unknown #
vertex $-1 $254 $340 #
straight-curve $-1 0 -50.193225231967475 -24.227609757189978 1 0 0 I I #
coedge $-1 $341 $253 $166 $259 reversed $246 $-1 #
edge $-1 $263 -24.227609757189978 $256 24.227609757189978 $258 $342 forward 7 unknown #
coedge $-1 $332 $167 $170 $265 forward $262 $-1 #
coedge $-1 $167 $332 $341 $343 forward $262 $-1 #
loop $-1 $-1 $167 $245 #
vertex $-1 $168 $344 #
straight-curve $-1 0 -50.193225231967475 24.227609757189978 -1 0 0 I I #
edge $-1 $172 -14.717280295695701 $334 14.717280295695701 $170 $345 forward 7 unknown #
point $-1 -43.205005863473914 -50.193225231967475 -24.227609757189978 #
point $-1 -43.205005863473914 -50.193225231967475 24.227609757189978 #
plane-surface $-1 78.426465651417587 0 0 -1 0 0 0 0 1 forward_v I I I I #
coedge $-1 $182 $346 $273 $347 forward $175 $-1 #
coedge $-1 $271 $177 $346 $348 reversed $104 $-1 #
coedge $-1 $177 $270 $274 $349 forward $104 $-1 #
edge $-1 $275 -103.69470179161759 $350 -79.270513183906985 $177 $351 forward 7 unknown #
coedge $-1 $179 $178 $269 $347 reversed $65 $-1 #
coedge $-1 $185 $180 $271 $349 reversed $186 $-1 #
vertex $-1 $181 $352 #
straight-curve $-1 78.426465651417587 22.823811401119137 6.957100167316618 0 1 0 I I #
coedge $-1 $346 $182 $185 $281 forward $175 $-1 #
vertex $-1 $183 $353 #
straight-curve $-1 39.213234112568365 41.102020372509067 24.227609757189981 1 0 0 I I #
straight-curve $-1 -32.485304434945263 41.102020372509067 117.86887282739858 -0.70710677298230451 0 0.70710678939079041 I I #
edge $-1 $187 41.102020372509067 $354 50.193225231967475 $185 $355 forward 7 unknown #
point $-1 78.426465651417587 41.102020372509067 24.227609757189978 #
point $-1 78.426465651417587 41.102020372509067 6.9571001673166109 #
edge $-1 $356 1 $356 0 $190 $-1 forward 7 unknown #
vertex $-1 $191 $357 #
ellipse-curve $-1 68.358330911937827 45.647622802238274 14.159474850578381 0.70710678939079041 0 0.70710677298230451 1.0606601594734568 0 -1.0606601840861856 1 I I #
point $-1 70.851871216336335 45.647622802238274 14.531694778167113 #
plane-surface $-1 0 0 24.227609757189978 0 0 1 1 0 0 forward_v I I I I #
coedge $-1 $202 $358 $293 $359 forward $195 $-1 #
coedge $-1 $291 $197 $358 $360 reversed $119 $-1 #
coedge $-1 $197 $290 $294 $361 reversed $119 $-1 #
edge $-1 $295 -2.7479597579841339 $362 22.406117846968506 $197 $363 forward 7 unknown #
coedge $-1 $199 $198 $289 $359 reversed $74 $-1 #
coedge $-1 $205 $200 $291 $361 forward $206 $-1 #
vertex $-1 $361 $364 #
straight-curve $-1 -62.940069388453445 23.026812581439302 24.227609757189978 0 1 0 I I #
coedge $-1 $358 $202 $205 $301 reversed $195 $-1 #
vertex $-1 $203 $365 #
straight-curve $-1 -78.426465651417587 41.914025093789732 50.487115668838399 0 0 1 I I #
straight-curve $-1 -78.426465651417615 41.914025093789732 4.4059258997970403 -0.61566146476048833 0 -0.78801076186113728 I I #
edge $-1 $366 -50.193225231967475 $207 -41.914025093789732 $297 $367 forward 7 unknown #
point $-1 -78.426465651417587 41.914025093789732 24.227609757189978 #
point $-1 -62.940069388453452 41.914025093789732 24.227609757189978 #
edge $-1 $368 1 $368 0 $210 $-1 forward 7 unknown #
vertex $-1 $211 $369 #
ellipse-curve $-1 -69.731784265818391 44.279510847554803 13.573387658733791 -0.78801076186113728 0 0.61566146476048833 0.30783073238024417 0 0.39400538093056864 1 I I #
point $-1 -70.375436787555245 44.279510847554803 14.710773209424069 #
edge $-1 $370 1 $370 0 $214 $-1 forward 7 unknown #
vertex $-1 $215 $371 #
ellipse-curve $-1 -69.731784265818391 47.827739478202403 13.573387658733791 -0.78801076186113728 0 0.61566146476048833 0.30783073238024417 0 0.39400538093056864 1 I I #
point $-1 -70.375436787555245 47.827739478202403 14.710773209424069 #
plane-surface $-1 78.426465651417587 0 0 -1 0 0 0 0 1 forward_v I I I I #
coedge $-1 $223 $221 $225 $317 reversed $141 $-1 #
edge $-1 $236 -24.227609757189978 $319 24.227609757189978 $235 $372 forward 7 unknown #
vertex $-1 $317 $373 #
straight-curve $-1 -78.426465651417587 -50.193225231967475 0 0 0 -1 I I #
edge $-1 $315 -50.193225231967475 $319 50.193225231967475 $313 $374 forward 7 unknown #
straight-curve $-1 0 -50.193225231967475 -24.227609757189978 -1 0 0 I I #
vertex $-1 $228 $375 #
straight-curve $-1 0 50.193225231967475 -24.227609757189978 1 0 0 I I #
point $-1 78.426465651417587 50.193225231967475 -24.227609757189978 #
point $-1 78.426465651417587 -50.193225231967475 -24.227609757189978 #
straight-curve $-1 -78.426465651417587 0 24.227609757189978 0 -1 0 I I #
point $-1 -78.426465651417587 50.193225231967475 24.227609757189978 #
point $-1 -78.426465651417587 -50.193225231967475 24.227609757189978 #
straight-curve $-1 78.426465651417587 -50.193225231967475 0 0 0 -1 I I #
straight-curve $-1 78.426465651417587 50.193225231967475 0 0 0 -1 I I #
plane-surface $-1 0 0 24.227609757189978 0 0 1 1 0 0 forward_v I I I I #
coedge $-1 $253 $341 $330 $376 forward $246 $-1 #
coedge $-1 $249 $248 $329 $376 reversed $96 $-1 #
edge $-1 $337 -6.6168798632181414 $335 6.6168798632181449 $248 $377 forward 7 unknown #
coedge $-1 $261 $260 $249 $333 forward $262 $-1 #
edge $-1 $334 -6.6168798632181449 $378 6.6168798632181414 $249 $379 forward 7 unknown #
vertex $-1 $265 $380 #
vertex $-1 $255 $381 #
straight-curve $-1 -43.205005863473914 -79.627785823358877 0 0 0 -1 I I #
vertex $-1 $376 $382 #
straight-curve $-1 -29.971246137037628 -64.910505527663176 -24.227609757189978 0 -1 0 I I #
straight-curve $-1 -43.205005863473914 -64.910505527663176 -24.227609757189978 0 1 0 I I #
point $-1 -29.971246137037628 -50.193225231967475 -24.227609757189978 #
coedge $-1 $329 $258 $261 $343 reversed $246 $-1 #
straight-curve $-1 -29.971246137037628 -50.193225231967475 0 0 0 -1 I I #
edge $-1 $378 -14.717280295695701 $263 14.717280295695701 $341 $383 forward 7 unknown #
point $-1 -29.971246137037628 -50.193225231967475 24.227609757189978 #
straight-curve $-1 -43.205005863473914 -64.910505527663176 24.227609757189978 0 -1 0 I I #
coedge $-1 $269 $277 $270 $348 forward $175 $-1 #
edge $-1 $350 -27.369413830848345 $278 -18.27820897138993 $269 $384 forward 7 unknown #
edge $-1 $354 -78.426465651417587 $350 -61.155956462308168 $270 $385 forward 7 unknown #
edge $-1 $354 -24.227609757189978 $275 -6.9571001673166233 $274 $386 forward 7 unknown #
vertex $-1 $347 $387 #
straight-curve $-1 5.1032396921844807 50.193225231967475 80.280327828022777 -0.70710677298230462 0 0.70710678939079052 I I #
point $-1 78.426465651417587 50.193225231967475 6.9571001673166233 #
point $-1 61.155956462308168 41.102020372509067 24.227609757189995 #
vertex $-1 $281 $388 #
straight-curve $-1 78.426465651417587 0 24.227609757189978 0 1 0 I I #
vertex $-1 $284 $389 #
point $-1 69.418991071411284 45.647622802238274 13.098814666492196 #
coedge $-1 $289 $297 $290 $360 forward $195 $-1 #
edge $-1 $362 -27.166412650528173 $298 -18.88721251235043 $289 $390 forward 7 unknown #
edge $-1 $366 -24.227609757189978 $362 -4.4059258997970767 $290 $391 forward 7 unknown #
edge $-1 $295 62.940069388453452 $366 78.426465651417587 $291 $392 forward 7 unknown #
vertex $-1 $359 $393 #
straight-curve $-1 -64.63188231815684 50.193225231967475 22.062187894737153 -0.61566146476048833 0 -0.78801076186113728 I I #
point $-1 -62.940069388453452 50.193225231967475 24.227609757189978 #
point $-1 -78.426465651417587 41.914025093789732 4.4059258997970767 #
vertex $-1 $361 $394 #
straight-curve $-1 -78.426465651417587 0 24.227609757189978 0 -1 0 I I #
vertex $-1 $304 $395 #
point $-1 -69.423953533438151 44.279510847554803 13.96739303966436 #
vertex $-1 $308 $396 #
point $-1 -69.423953533438151 47.827739478202403 13.96739303966436 #
straight-curve $-1 -78.426465651417587 50.193225231967475 0 0 0 -1 I I #
point $-1 -78.426465651417587 -50.193225231967475 -24.227609757189978 #
straight-curve $-1 -78.426465651417587 0 -24.227609757189978 0 1 0 I I #
point $-1 -78.426465651417587 50.193225231967475 -24.227609757189978 #
edge $-1 $378 -24.227609757189978 $337 24.227609757189978 $329 $397 forward 7 unknown #
straight-curve $-1 -36.58812600025577 -79.627785823358877 -24.227609757189978 -1 0 0 I I #
vertex $-1 $343 $398 #
straight-curve $-1 -36.58812600025577 -79.627785823358877 24.227609757189978 1 0 0 I I #
point $-1 -43.205005863473914 -79.627785823358877 24.227609757189978 #
point $-1 -43.205005863473914 -79.627785823358877 -24.227609757189978 #
point $-1 -29.971246137037628 -79.627785823358877 -24.227609757189978 #
straight-curve $-1 -29.971246137037628 -64.910505527663176 24.227609757189978 0 1 0 I I #
straight-curve $-1 61.15595646230819 22.823811401119137 24.227609757189967 0 -1 0 I I #
straight-curve $-1 0 50.193225231967475 24.227609757189978 -1 0 0 I I #
straight-curve $-1 78.426465651417587 50.193225231967475 0 0 0 -1 I I #
point $-1 61.155956462308168 50.193225231967482 24.227609757189995 #
point $-1 78.426465651417587 50.193225231967475 24.227609757189978 #
point $-1 67.297670727851653 45.647622802238274 13.098814691104923 #
straight-curve $-1 -78.426465651417587 23.026812581439302 4.4059258997970758 0 -1 0 I I #
straight-curve $-1 -78.426465651417587 50.193225231967475 0 0 0 -1 I I #
straight-curve $-1 0 50.193225231967475 24.227609757189978 -1 0 0 I I #
point $-1 -78.426465651417587 50.193225231967475 4.4059258997970767 #
point $-1 -78.426465651417587 50.193225231967475 24.227609757189978 #
point $-1 -69.337778884887825 44.279510847554803 13.265556926353549 #
point $-1 -69.337778884887825 47.827739478202403 13.265556926353549 #
straight-curve $-1 -29.971246137037628 -79.627785823358877 0 0 0 -1 I I #
point $-1 -29.971246137037628 -79.627785823358877 24.227609757189978 #
End-of-ACIS-data 