500 0 18 0           
7 Unknown 11 ACIS 5.0 NT 24 Thu Mar 25 15:14:32 1999 
-1 9.9999999999999995e-007 1e-010 
body $-1 $18 $-1 $19 #
body $-1 $20 $-1 $21 #
body $-1 $22 $-1 $23 #
body $-1 $24 $-1 $25 #
body $-1 $26 $-1 $27 #
body $-1 $28 $-1 $29 #
body $-1 $30 $-1 $31 #
body $-1 $32 $-1 $33 #
body $-1 $34 $-1 $35 #
body $-1 $36 $-1 $37 #
body $-1 $38 $-1 $39 #
body $-1 $40 $-1 $41 #
body $-1 $42 $-1 $43 #
body $-1 $44 $-1 $45 #
body $-1 $46 $-1 $47 #
body $-1 $48 $-1 $49 #
body $-1 $50 $-1 $51 #
body $-1 $52 $-1 $53 #
lump $-1 $-1 $54 $0 #
transform $-1 1 0 0 0 1 0 0 0 1 52.076784569841607 35.496828150593529 17.168951403164666 1 rotate no_reflect no_shear #
lump $-1 $-1 $55 $1 #
transform $-1 1 0 0 0 1 0 0 0 1 52.076784569841607 35.496828150593529 17.168951403164666 1 rotate no_reflect no_shear #
lump $-1 $-1 $56 $2 #
transform $-1 1 0 0 0 1 0 0 0 1 52.076784569841607 35.496828150593529 17.168951403164666 1 rotate no_reflect no_shear #
lump $-1 $-1 $57 $3 #
transform $-1 1 0 0 0 1 0 0 0 1 52.076784569841607 35.496828150593529 17.168951403164666 1 rotate no_reflect no_shear #
lump $-1 $-1 $58 $4 #
transform $-1 1 0 0 0 1 0 0 0 1 52.076784569841607 35.496828150593529 17.168951403164666 1 rotate no_reflect no_shear #
lump $-1 $-1 $59 $5 #
transform $-1 1 0 0 0 1 0 0 0 1 52.076784569841607 35.496828150593529 17.168951403164666 1 rotate no_reflect no_shear #
lump $-1 $-1 $60 $6 #
transform $-1 1 0 0 0 1 0 0 0 1 52.076784569841607 35.496828150593529 17.168951403164666 1 rotate no_reflect no_shear #
lump $-1 $-1 $61 $7 #
transform $-1 1 0 0 0 1 0 0 0 1 52.076784569841607 35.496828150593529 17.168951403164666 1 rotate no_reflect no_shear #
lump $-1 $-1 $62 $8 #
transform $-1 1 0 0 0 1 0 0 0 1 52.076784569841607 35.496828150593529 17.168951403164666 1 rotate no_reflect no_shear #
lump $-1 $-1 $63 $9 #
transform $-1 1 0 0 0 1 0 0 0 1 52.076784569841607 35.496828150593529 17.168951403164666 1 rotate no_reflect no_shear #
lump $-1 $-1 $64 $10 #
transform $-1 1 0 0 0 1 0 0 0 1 52.076784569841607 35.496828150593529 17.168951403164666 1 rotate no_reflect no_shear #
lump $-1 $-1 $65 $11 #
transform $-1 1 0 0 0 1 0 0 0 1 52.076784569841607 35.496828150593529 17.168951403164666 1 rotate no_reflect no_shear #
lump $-1 $-1 $66 $12 #
transform $-1 1 0 0 0 1 0 0 0 1 52.076784569841607 35.496828150593529 17.168951403164666 1 rotate no_reflect no_shear #
lump $-1 $-1 $67 $13 #
transform $-1 1 0 0 0 1 0 0 0 1 52.076784569841607 35.496828150593529 17.168951403164666 1 rotate no_reflect no_shear #
lump $-1 $-1 $68 $14 #
transform $-1 1 0 0 0 1 0 0 0 1 52.076784569841607 35.496828150593529 17.168951403164666 1 rotate no_reflect no_shear #
lump $-1 $-1 $69 $15 #
transform $-1 1 0 0 0 1 0 0 0 1 52.076784569841607 35.496828150593529 17.168951403164666 1 rotate no_reflect no_shear #
lump $-1 $-1 $70 $16 #
transform $-1 1 0 0 0 1 0 0 0 1 52.076784569841607 35.496828150593529 17.168951403164666 1 rotate no_reflect no_shear #
lump $-1 $-1 $71 $17 #
transform $-1 1 0 0 0 1 0 0 0 1 52.076784569841607 35.496828150593529 17.168951403164666 1 rotate no_reflect no_shear #
shell $-1 $-1 $-1 $72 $-1 $18 #
shell $-1 $-1 $-1 $73 $-1 $20 #
shell $-1 $-1 $-1 $74 $-1 $22 #
shell $-1 $-1 $-1 $75 $-1 $24 #
shell $-1 $-1 $-1 $76 $-1 $26 #
shell $-1 $-1 $-1 $77 $-1 $28 #
shell $-1 $-1 $-1 $78 $-1 $30 #
shell $-1 $-1 $-1 $79 $-1 $32 #
shell $-1 $-1 $-1 $80 $-1 $34 #
shell $-1 $-1 $-1 $81 $-1 $36 #
shell $-1 $-1 $-1 $82 $-1 $38 #
shell $-1 $-1 $-1 $83 $-1 $40 #
shell $-1 $-1 $-1 $84 $-1 $42 #
shell $-1 $-1 $-1 $85 $-1 $44 #
shell $-1 $-1 $-1 $86 $-1 $46 #
shell $-1 $-1 $-1 $87 $-1 $48 #
shell $-1 $-1 $-1 $88 $-1 $50 #
shell $-1 $-1 $-1 $89 $-1 $52 #
face $-1 $90 $91 $54 $-1 $92 forward single #
face $-1 $93 $94 $55 $-1 $95 forward single #
face $-1 $96 $97 $56 $-1 $98 reversed single #
face $-1 $99 $100 $57 $-1 $101 forward single #
face $-1 $102 $103 $58 $-1 $104 forward single #
face $-1 $105 $106 $59 $-1 $107 reversed single #
face $-1 $108 $109 $60 $-1 $110 forward single #
face $-1 $111 $112 $61 $-1 $113 forward single #
face $-1 $114 $115 $62 $-1 $116 reversed single #
face $-1 $117 $118 $63 $-1 $119 forward single #
face $-1 $120 $121 $64 $-1 $122 forward single #
face $-1 $123 $124 $65 $-1 $125 reversed single #
face $-1 $126 $127 $66 $-1 $128 forward single #
face $-1 $129 $130 $67 $-1 $131 forward single #
face $-1 $132 $133 $68 $-1 $134 reversed single #
face $-1 $135 $136 $69 $-1 $137 forward single #
face $-1 $138 $139 $70 $-1 $140 reversed single #
face $-1 $141 $142 $71 $-1 $143 forward single #
face $-1 $144 $145 $54 $-1 $146 reversed single #
loop $-1 $-1 $147 $72 #
plane-surface $-1 0 0 17.168951403164666 0 0 1 1 0 0 forward_v I I I I #
face $-1 $148 $149 $55 $-1 $150 forward single #
loop $-1 $-1 $151 $73 #
plane-surface $-1 0 -35.496828150593529 0 0 1 0 0 0 1 forward_v I I I I #
face $-1 $152 $153 $56 $-1 $154 reversed single #
loop $-1 $-1 $155 $74 #
plane-surface $-1 -142.27642214525764 -15.978798000207282 52.762593804819602 0 1 0 -0.86602541151947299 0 0.49999998660252726 forward_v I I I I #
face $-1 $156 $157 $57 $-1 $158 forward single #
loop $-1 $159 $160 $75 #
cone-surface $-1 -46.744390425505429 -14.069724341250481 8.5959118646041563 0.86602541151947299 0 -0.49999998660252726 0.24999999330126363 0 0.43301270575973649 1 I I 0 1 0.5 forward I I I I #
face $-1 $161 $162 $58 $-1 $163 forward single #
loop $-1 $164 $165 $76 #
cone-surface $-1 -46.744390425505429 -11.206113852815282 8.5959118646041563 0.86602541151947299 0 -0.49999998660252726 0.24999999330126363 0 0.43301270575973649 1 I I 0 1 0.5 forward I I I I #
face $-1 $166 $167 $59 $-1 $168 reversed single #
loop $-1 $-1 $169 $77 #
plane-surface $-1 -142.27642214525764 -2.1739312948873017 52.762593804819602 0 1 0 -0.86602541151947299 0 0.49999998660252726 forward_v I I I I #
face $-1 $170 $171 $60 $-1 $172 forward single #
loop $-1 $173 $174 $78 #
cone-surface $-1 -46.744390425505429 -0.26485763593049683 8.5959118646041563 0.86602541151947299 0 -0.49999998660252726 0.24999999330126363 0 0.43301270575973649 1 I I 0 1 0.5 forward I I I I #
face $-1 $175 $176 $61 $-1 $177 forward single #
loop $-1 $178 $179 $79 #
cone-surface $-1 -46.744390425505429 2.5987528525047026 8.5959118646041563 0.86602541151947299 0 -0.49999998660252726 0.24999999330126363 0 0.43301270575973649 1 I I 0 1 0.5 forward I I I I #
face $-1 $180 $181 $62 $-1 $182 reversed single #
loop $-1 $-1 $183 $80 #
plane-surface $-1 -142.27642214525764 11.630935410432679 52.762593804819602 0 1 0 -0.86602541151947299 0 0.49999998660252726 forward_v I I I I #
face $-1 $184 $185 $63 $-1 $186 forward single #
loop $-1 $187 $188 $81 #
cone-surface $-1 -46.744390425505429 13.540009069389484 8.5959118646041563 0.86602541151947299 0 -0.49999998660252726 0.24999999330126363 0 0.43301270575973649 1 I I 0 1 0.5 forward I I I I #
face $-1 $189 $190 $64 $-1 $191 forward single #
loop $-1 $192 $193 $82 #
cone-surface $-1 -46.744390425505429 16.403619557824683 8.5959118646041563 0.86602541151947299 0 -0.49999998660252726 0.24999999330126363 0 0.43301270575973649 1 I I 0 1 0.5 forward I I I I #
face $-1 $194 $195 $65 $-1 $196 reversed single #
loop $-1 $-1 $197 $83 #
plane-surface $-1 -142.27642214525764 25.435802115752665 52.762593804819602 0 1 0 -0.86602541151947299 0 0.49999998660252726 forward_v I I I I #
face $-1 $198 $199 $66 $-1 $200 forward single #
loop $-1 $201 $202 $84 #
cone-surface $-1 -46.744390425505429 27.344875774709465 8.5959118646041563 0.86602541151947299 0 -0.49999998660252726 0.24999999330126363 0 0.43301270575973649 1 I I 0 1 0.5 forward I I I I #
face $-1 $203 $204 $67 $-1 $205 forward single #
loop $-1 $206 $207 $85 #
cone-surface $-1 -46.744390425505429 30.208486263144664 8.5959118646041563 0.86602541151947299 0 -0.49999998660252726 0.24999999330126363 0 0.43301270575973649 1 I I 0 1 0.5 forward I I I I #
face $-1 $208 $209 $68 $-1 $210 reversed single #
loop $-1 $-1 $211 $86 #
plane-surface $-1 87.710766717214881 -7.0017244585091643 143.37714986908347 0 -1 0 -0.85716730853699208 0 -0.51503806187062418 forward_v I I I I #
face $-1 $212 $213 $69 $-1 $214 forward single #
loop $-1 $215 $216 $87 #
cone-surface $-1 45.449809388614099 -13.179895343604262 7.8478943477707146 -0.85716730853699208 0 -0.51503806187062418 0.77255709280593621 0 -1.2857509628054882 1 I I 0 1 1.5 forward I I I I #
face $-1 $217 $218 $70 $-1 $219 reversed single #
loop $-1 $-1 $220 $88 #
plane-surface $-1 87.710766717214881 23.140486380403352 143.37714986908347 0 1 0 0.85716730853699208 0 0.51503806187062418 forward_v I I I I #
face $-1 $221 $222 $71 $-1 $223 forward single #
loop $-1 $224 $225 $89 #
cone-surface $-1 45.449809388614099 29.318657265498445 7.8478943477707146 -0.85716730853699208 0 -0.51503806187062418 0.77255709280593621 0 -1.2857509628054882 1 I I 0 1 1.5 forward I I I I #
face $-1 $226 $227 $54 $-1 $228 reversed single #
loop $-1 $-1 $229 $90 #
plane-surface $-1 0 0 -17.168951403164666 0 0 1 1 0 0 forward_v I I I I #
coedge $-1 $230 $231 $232 $233 forward $91 $-1 #
face $-1 $234 $235 $55 $-1 $236 reversed single #
loop $-1 $-1 $237 $93 #
plane-surface $-1 0 0 17.168951403164666 0 0 1 1 0 0 forward_v I I I I #
coedge $-1 $238 $239 $240 $241 forward $94 $-1 #
face $-1 $242 $243 $56 $-1 $244 reversed single #
loop $-1 $-1 $245 $96 #
plane-surface $-1 -52.076784569841607 -12.637919097032885 0.68581063037260037 -0.86602541151947299 0 0.49999998660252726 0.49999998660252726 0 0.86602541151947299 forward_v I I I I #
coedge $-1 $246 $247 $248 $249 reversed $97 $-1 #
face $-1 $-1 $250 $57 $-1 $251 forward single #
loop $-1 $252 $253 $99 #
cone-surface $-1 -45.953762639423509 -14.069724341250481 8.1394427157890483 0.86602541151947299 0 -0.49999998660252726 0.12499999665063181 0 0.21650635287986825 1 I I -0.70710678118654746 0.70710678118654746 0.25 forward I I I I #
loop $-1 $-1 $254 $75 #
coedge $-1 $160 $160 $255 $256 reversed $100 $-1 #
face $-1 $-1 $257 $58 $-1 $258 forward single #
loop $-1 $259 $260 $102 #
cone-surface $-1 -45.953762639423509 -11.206113852815282 8.1394427157890483 0.86602541151947299 0 -0.49999998660252726 0.12499999665063181 0 0.21650635287986825 1 I I -0.70710678118654746 0.70710678118654746 0.25 forward I I I I #
loop $-1 $-1 $261 $76 #
coedge $-1 $165 $165 $262 $263 reversed $103 $-1 #
face $-1 $264 $265 $59 $-1 $266 reversed single #
loop $-1 $-1 $267 $105 #
plane-surface $-1 -52.076784569841607 1.1669476082870958 0.68581063037260037 -0.86602541151947299 0 0.49999998660252726 0.49999998660252726 0 0.86602541151947299 forward_v I I I I #
coedge $-1 $268 $269 $270 $271 reversed $106 $-1 #
face $-1 $-1 $272 $60 $-1 $273 forward single #
loop $-1 $274 $275 $108 #
cone-surface $-1 -45.953762639423509 -0.26485763593049683 8.1394427157890483 0.86602541151947299 0 -0.49999998660252726 0.12499999665063181 0 0.21650635287986825 1 I I -0.70710678118654746 0.70710678118654746 0.25 forward I I I I #
loop $-1 $-1 $276 $78 #
coedge $-1 $174 $174 $277 $278 reversed $109 $-1 #
face $-1 $-1 $279 $61 $-1 $280 forward single #
loop $-1 $281 $282 $111 #
cone-surface $-1 -45.953762639423509 2.5987528525047026 8.1394427157890483 0.86602541151947299 0 -0.49999998660252726 0.12499999665063181 0 0.21650635287986825 1 I I -0.70710678118654746 0.70710678118654746 0.25 forward I I I I #
loop $-1 $-1 $283 $79 #
coedge $-1 $179 $179 $284 $285 reversed $112 $-1 #
face $-1 $286 $287 $62 $-1 $288 reversed single #
loop $-1 $-1 $289 $114 #
plane-surface $-1 -52.076784569841607 14.971814313607076 0.68581063037260037 -0.86602541151947299 0 0.49999998660252726 0.49999998660252726 0 0.86602541151947299 forward_v I I I I #
coedge $-1 $290 $291 $292 $293 reversed $115 $-1 #
face $-1 $-1 $294 $63 $-1 $295 forward single #
loop $-1 $296 $297 $117 #
cone-surface $-1 -45.953762639423509 13.540009069389484 8.1394427157890483 0.86602541151947299 0 -0.49999998660252726 0.12499999665063181 0 0.21650635287986825 1 I I -0.70710678118654746 0.70710678118654746 0.25 forward I I I I #
loop $-1 $-1 $298 $81 #
coedge $-1 $188 $188 $299 $300 reversed $118 $-1 #
face $-1 $-1 $301 $64 $-1 $302 forward single #
loop $-1 $303 $304 $120 #
cone-surface $-1 -45.953762639423509 16.403619557824683 8.1394427157890483 0.86602541151947299 0 -0.49999998660252726 0.12499999665063181 0 0.21650635287986825 1 I I -0.70710678118654746 0.70710678118654746 0.25 forward I I I I #
loop $-1 $-1 $305 $82 #
coedge $-1 $193 $193 $306 $307 reversed $121 $-1 #
face $-1 $308 $309 $65 $-1 $310 reversed single #
loop $-1 $-1 $311 $123 #
plane-surface $-1 -52.076784569841607 28.776681018927064 0.68581063037260037 -0.86602541151947299 0 0.49999998660252726 0.49999998660252726 0 0.86602541151947299 forward_v I I I I #
coedge $-1 $312 $313 $314 $315 reversed $124 $-1 #
face $-1 $-1 $316 $66 $-1 $317 forward single #
loop $-1 $318 $319 $126 #
cone-surface $-1 -45.953762639423509 27.344875774709465 8.1394427157890483 0.86602541151947299 0 -0.49999998660252726 0.12499999665063181 0 0.21650635287986825 1 I I -0.70710678118654746 0.70710678118654746 0.25 forward I I I I #
loop $-1 $-1 $320 $84 #
coedge $-1 $202 $202 $321 $322 reversed $127 $-1 #
face $-1 $-1 $323 $67 $-1 $324 forward single #
loop $-1 $325 $326 $129 #
cone-surface $-1 -45.953762639423509 30.208486263144664 8.1394427157890483 0.86602541151947299 0 -0.49999998660252726 0.12499999665063181 0 0.21650635287986825 1 I I -0.70710678118654746 0.70710678118654746 0.25 forward I I I I #
loop $-1 $-1 $327 $85 #
coedge $-1 $207 $207 $328 $329 reversed $130 $-1 #
face $-1 $330 $331 $68 $-1 $332 reversed single #
loop $-1 $-1 $333 $132 #
plane-surface $-1 -1.5662678167688995 -13.179895343604258 89.734097482472976 0.85716730853699208 0 0.51503806187062418 0.51503806187062418 0 -0.85716730853699208 forward_v I I I I #
coedge $-1 $334 $335 $336 $337 reversed $133 $-1 #
face $-1 $-1 $338 $69 $-1 $339 forward single #
loop $-1 $340 $341 $135 #
cone-surface $-1 43.200716373977315 -13.179895343604262 6.4965029733115252 -0.85716730853699208 0 -0.51503806187062418 0.3862785464029681 0 -0.64287548140274409 1 I I -0.70710678118654757 0.70710678118654757 0.75 forward I I I I #
loop $-1 $-1 $342 $87 #
coedge $-1 $216 $216 $343 $344 reversed $136 $-1 #
face $-1 $345 $346 $70 $-1 $347 reversed single #
loop $-1 $-1 $348 $138 #
plane-surface $-1 -1.5662678167688995 29.318657265498445 89.734097482472976 0.85716730853699208 0 0.51503806187062418 0.51503806187062418 0 -0.85716730853699208 forward_v I I I I #
coedge $-1 $349 $350 $351 $352 reversed $139 $-1 #
face $-1 $-1 $353 $71 $-1 $354 forward single #
loop $-1 $355 $356 $141 #
cone-surface $-1 43.200716373977315 29.318657265498445 6.4965029733115252 -0.85716730853699208 0 -0.51503806187062418 0.3862785464029681 0 -0.64287548140274409 1 I I -0.70710678118654757 0.70710678118654757 0.75 forward I I I I #
loop $-1 $-1 $357 $89 #
coedge $-1 $225 $225 $358 $359 reversed $142 $-1 #
face $-1 $360 $361 $54 $-1 $362 reversed single #
loop $-1 $-1 $363 $144 #
plane-surface $-1 0 -35.496828150593529 0 0 1 0 0 0 1 forward_v I I I I #
coedge $-1 $364 $365 $366 $367 forward $145 $-1 #
coedge $-1 $368 $147 $369 $370 forward $91 $-1 #
coedge $-1 $147 $368 $371 $372 forward $91 $-1 #
coedge $-1 $373 $374 $147 $233 reversed $375 $-1 #
edge $-1 $376 -35.496828150593529 $377 35.496828150593529 $232 $378 forward 7 unknown #
face $-1 $379 $380 $55 $-1 $381 reversed single #
loop $-1 $-1 $382 $148 #
plane-surface $-1 -52.076784569841607 0 0 1 0 0 0 0 -1 forward_v I I I I #
coedge $-1 $383 $384 $239 $385 forward $149 $-1 #
coedge $-1 $386 $151 $387 $388 reversed $94 $-1 #
coedge $-1 $151 $386 $237 $385 reversed $94 $-1 #
coedge $-1 $389 $390 $151 $241 reversed $391 $-1 #
edge $-1 $392 -17.168951403164666 $393 17.168951403164666 $240 $394 forward 7 unknown #
face $-1 $395 $396 $56 $-1 $397 reversed single #
loop $-1 $-1 $398 $152 #
plane-surface $-1 -142.27642214525764 -9.2970401938584875 52.762593804819602 0 -1 0 0.86602541151947299 0 -0.49999998660252726 forward_v I I I I #
coedge $-1 $399 $400 $401 $402 reversed $153 $-1 #
coedge $-1 $247 $155 $403 $404 reversed $97 $-1 #
coedge $-1 $155 $246 $399 $405 reversed $97 $-1 #
coedge $-1 $401 $406 $155 $249 forward $407 $-1 #
edge $-1 $408 19.061426502787214 $409 28.577971925055451 $248 $410 forward 7 unknown #
loop $-1 $-1 $255 $156 #
plane-surface $-1 -52.076784569841607 -12.637919097032885 0.68581063037260037 -0.86602541151947299 0 0.49999998660252726 0.49999998660252726 0 0.86602541151947299 forward_v I I I I #
loop $-1 $-1 $411 $99 #
coedge $-1 $253 $253 $254 $412 reversed $157 $-1 #
coedge $-1 $254 $254 $253 $412 forward $159 $-1 #
coedge $-1 $255 $255 $160 $256 forward $250 $-1 #
edge $-1 $413 0 $413 6.2831853071796004 $255 $414 forward 7 unknown #
loop $-1 $-1 $262 $161 #
plane-surface $-1 -52.076784569841607 -12.637919097032885 0.68581063037260037 -0.86602541151947299 0 0.49999998660252726 0.49999998660252726 0 0.86602541151947299 forward_v I I I I #
loop $-1 $-1 $415 $102 #
coedge $-1 $260 $260 $261 $416 reversed $162 $-1 #
coedge $-1 $261 $261 $260 $416 forward $164 $-1 #
coedge $-1 $262 $262 $165 $263 forward $257 $-1 #
edge $-1 $417 0 $417 6.2831853071796004 $262 $418 forward 7 unknown #
face $-1 $419 $420 $59 $-1 $421 forward single #
loop $-1 $-1 $422 $166 #
plane-surface $-1 -142.27642214525764 4.5078265114614933 52.762593804819602 0 -1 0 0.86602541151947299 0 -0.49999998660252726 forward_v I I I I #
coedge $-1 $423 $424 $425 $426 reversed $167 $-1 #
coedge $-1 $269 $169 $427 $428 reversed $106 $-1 #
coedge $-1 $169 $268 $423 $429 reversed $106 $-1 #
coedge $-1 $425 $430 $169 $271 forward $420 $-1 #
edge $-1 $431 19.061426502787214 $432 28.577971925055451 $270 $433 forward 7 unknown #
loop $-1 $-1 $277 $170 #
plane-surface $-1 -52.076784569841607 1.1669476082870958 0.68581063037260037 -0.86602541151947299 0 0.49999998660252726 0.49999998660252726 0 0.86602541151947299 forward_v I I I I #
loop $-1 $-1 $434 $108 #
coedge $-1 $275 $275 $276 $435 reversed $171 $-1 #
coedge $-1 $276 $276 $275 $435 forward $173 $-1 #
coedge $-1 $277 $277 $174 $278 forward $272 $-1 #
edge $-1 $436 0 $436 6.2831853071796004 $277 $437 forward 7 unknown #
loop $-1 $-1 $284 $175 #
plane-surface $-1 -52.076784569841607 1.1669476082870958 0.68581063037260037 -0.86602541151947299 0 0.49999998660252726 0.49999998660252726 0 0.86602541151947299 forward_v I I I I #
loop $-1 $-1 $438 $111 #
coedge $-1 $282 $282 $283 $439 reversed $176 $-1 #
coedge $-1 $283 $283 $282 $439 forward $178 $-1 #
coedge $-1 $284 $284 $179 $285 forward $279 $-1 #
edge $-1 $440 0 $440 6.2831853071796004 $284 $441 forward 7 unknown #
face $-1 $442 $443 $62 $-1 $444 forward single #
loop $-1 $-1 $445 $180 #
plane-surface $-1 -142.27642214525764 18.312693216781476 52.762593804819602 0 -1 0 0.86602541151947299 0 -0.49999998660252726 forward_v I I I I #
coedge $-1 $446 $447 $448 $449 reversed $181 $-1 #
coedge $-1 $291 $183 $450 $451 reversed $115 $-1 #
coedge $-1 $183 $290 $446 $452 reversed $115 $-1 #
coedge $-1 $448 $453 $183 $293 forward $443 $-1 #
edge $-1 $454 19.061426502787214 $455 28.577971925055451 $292 $456 forward 7 unknown #
loop $-1 $-1 $299 $184 #
plane-surface $-1 -52.076784569841607 14.971814313607076 0.68581063037260037 -0.86602541151947299 0 0.49999998660252726 0.49999998660252726 0 0.86602541151947299 forward_v I I I I #
loop $-1 $-1 $457 $117 #
coedge $-1 $297 $297 $298 $458 reversed $185 $-1 #
coedge $-1 $298 $298 $297 $458 forward $187 $-1 #
coedge $-1 $299 $299 $188 $300 forward $294 $-1 #
edge $-1 $459 0 $459 6.2831853071796004 $299 $460 forward 7 unknown #
loop $-1 $-1 $306 $189 #
plane-surface $-1 -52.076784569841607 14.971814313607076 0.68581063037260037 -0.86602541151947299 0 0.49999998660252726 0.49999998660252726 0 0.86602541151947299 forward_v I I I I #
loop $-1 $-1 $461 $120 #
coedge $-1 $304 $304 $305 $462 reversed $190 $-1 #
coedge $-1 $305 $305 $304 $462 forward $192 $-1 #
coedge $-1 $306 $306 $193 $307 forward $301 $-1 #
edge $-1 $463 0 $463 6.2831853071796004 $306 $464 forward 7 unknown #
face $-1 $465 $466 $65 $-1 $467 forward single #
loop $-1 $-1 $468 $194 #
plane-surface $-1 -142.27642214525764 32.117559922101464 52.762593804819602 0 -1 0 0.86602541151947299 0 -0.49999998660252726 forward_v I I I I #
coedge $-1 $469 $470 $471 $472 reversed $195 $-1 #
coedge $-1 $313 $197 $473 $474 reversed $124 $-1 #
coedge $-1 $197 $312 $469 $475 reversed $124 $-1 #
coedge $-1 $471 $476 $197 $315 forward $466 $-1 #
edge $-1 $477 19.061426502787214 $478 28.577971925055451 $314 $479 forward 7 unknown #
loop $-1 $-1 $321 $198 #
plane-surface $-1 -52.076784569841607 28.776681018927064 0.68581063037260037 -0.86602541151947299 0 0.49999998660252726 0.49999998660252726 0 0.86602541151947299 forward_v I I I I #
loop $-1 $-1 $480 $126 #
coedge $-1 $319 $319 $320 $481 reversed $199 $-1 #
coedge $-1 $320 $320 $319 $481 forward $201 $-1 #
coedge $-1 $321 $321 $202 $322 forward $316 $-1 #
edge $-1 $482 0 $482 6.2831853071796004 $321 $483 forward 7 unknown #
loop $-1 $-1 $328 $203 #
plane-surface $-1 -52.076784569841607 28.776681018927064 0.68581063037260037 -0.86602541151947299 0 0.49999998660252726 0.49999998660252726 0 0.86602541151947299 forward_v I I I I #
loop $-1 $-1 $484 $129 #
coedge $-1 $326 $326 $327 $485 reversed $204 $-1 #
coedge $-1 $327 $327 $326 $485 forward $206 $-1 #
coedge $-1 $328 $328 $207 $329 forward $323 $-1 #
edge $-1 $486 0 $486 6.2831853071796004 $328 $487 forward 7 unknown #
face $-1 $488 $489 $68 $-1 $490 forward single #
loop $-1 $-1 $491 $208 #
plane-surface $-1 87.710766717214881 -19.35806622869935 143.37714986908347 0 1 0 0.85716730853699208 0 0.51503806187062418 forward_v I I I I #
coedge $-1 $492 $493 $494 $495 reversed $209 $-1 #
coedge $-1 $335 $211 $496 $497 reversed $133 $-1 #
coedge $-1 $211 $334 $492 $498 reversed $133 $-1 #
coedge $-1 $494 $499 $211 $337 forward $489 $-1 #
edge $-1 $500 -8.2214012112341663 $501 1.8201140847527242 $336 $502 forward 7 unknown #
loop $-1 $-1 $343 $212 #
plane-surface $-1 -1.5662678167688995 -13.179895343604258 89.734097482472976 0.85716730853699208 0 0.51503806187062418 0.51503806187062418 0 -0.85716730853699208 forward_v I I I I #
loop $-1 $-1 $503 $135 #
coedge $-1 $341 $341 $342 $504 reversed $213 $-1 #
coedge $-1 $342 $342 $341 $504 forward $215 $-1 #
coedge $-1 $343 $343 $216 $344 forward $338 $-1 #
edge $-1 $505 0 $505 6.2831853071796004 $343 $506 forward 7 unknown #
face $-1 $507 $508 $70 $-1 $509 forward single #
loop $-1 $-1 $351 $217 #
plane-surface $-1 52.076784569841607 0 0 -1 0 0 0 0 1 forward_v I I I I #
coedge $-1 $510 $511 $512 $513 reversed $218 $-1 #
coedge $-1 $350 $220 $514 $515 reversed $139 $-1 #
coedge $-1 $220 $349 $510 $516 reversed $139 $-1 #
coedge $-1 $512 $517 $220 $352 forward $346 $-1 #
edge $-1 $518 54.519623531377064 $519 71.231511986052553 $351 $520 forward 7 unknown #
loop $-1 $-1 $358 $221 #
plane-surface $-1 -1.5662678167688995 29.318657265498445 89.734097482472976 0.85716730853699208 0 0.51503806187062418 0.51503806187062418 0 -0.85716730853699208 forward_v I I I I #
loop $-1 $-1 $521 $141 #
coedge $-1 $356 $356 $357 $522 reversed $222 $-1 #
coedge $-1 $357 $357 $356 $522 forward $224 $-1 #
coedge $-1 $358 $358 $225 $359 forward $353 $-1 #
edge $-1 $523 0 $523 6.2831853071796004 $358 $524 forward 7 unknown #
face $-1 $525 $526 $54 $-1 $527 reversed single #
loop $-1 $-1 $528 $226 #
plane-surface $-1 -52.076784569841607 0 0 1 0 0 0 0 -1 forward_v I I I I #
coedge $-1 $529 $371 $530 $531 forward $227 $-1 #
coedge $-1 $532 $229 $529 $533 forward $145 $-1 #
coedge $-1 $229 $532 $534 $535 forward $145 $-1 #
coedge $-1 $374 $373 $229 $367 reversed $375 $-1 #
edge $-1 $536 -35.496828150593529 $537 35.496828150593529 $366 $538 forward 7 unknown #
coedge $-1 $231 $230 $539 $540 forward $91 $-1 #
coedge $-1 $541 $542 $230 $370 reversed $526 $-1 #
edge $-1 $377 -52.076784569841607 $543 52.076784569841607 $369 $544 forward 7 unknown #
coedge $-1 $363 $545 $231 $372 reversed $227 $-1 #
edge $-1 $546 -52.076784569841607 $376 52.076784569841607 $371 $547 forward 7 unknown #
coedge $-1 $366 $232 $545 $548 forward $375 $-1 #
coedge $-1 $232 $366 $541 $549 reversed $375 $-1 #
loop $-1 $-1 $373 $525 #
vertex $-1 $233 $550 #
vertex $-1 $233 $551 #
straight-curve $-1 52.076784569841607 0 17.168951403164666 0 1 0 I I #
face $-1 $552 $391 $55 $-1 $553 reversed single #
loop $-1 $-1 $554 $234 #
plane-surface $-1 -49.710270424134244 -51.635590072487702 0 0 1 0 0 0 1 forward_v I I I I #
coedge $-1 $555 $556 $386 $557 forward $235 $-1 #
coedge $-1 $558 $237 $556 $559 forward $149 $-1 #
coedge $-1 $237 $558 $389 $560 forward $149 $-1 #
edge $-1 $392 47.343756278426881 $561 52.076784569841607 $237 $562 forward 7 unknown #
coedge $-1 $239 $238 $382 $557 reversed $94 $-1 #
coedge $-1 $563 $564 $238 $388 forward $565 $-1 #
edge $-1 $566 -52.076784569841607 $393 -47.343756278426881 $387 $567 forward 7 unknown #
coedge $-1 $568 $240 $384 $560 reversed $391 $-1 #
coedge $-1 $240 $568 $563 $569 reversed $391 $-1 #
loop $-1 $-1 $568 $379 #
vertex $-1 $385 $570 #
vertex $-1 $569 $571 #
straight-curve $-1 -47.343756278426881 -35.496828150593529 0 0 0 -1 I I #
face $-1 $-1 $407 $56 $-1 $572 forward single #
loop $-1 $-1 $573 $242 #
plane-surface $-1 -52.076784569841607 0 0 1 0 0 0 0 -1 forward_v I I I I #
coedge $-1 $574 $575 $576 $577 reversed $243 $-1 #
coedge $-1 $578 $245 $247 $405 forward $153 $-1 #
coedge $-1 $245 $578 $574 $579 forward $153 $-1 #
coedge $-1 $576 $248 $245 $402 forward $407 $-1 #
edge $-1 $409 -9.65983845169084 $580 -2.978080645342045 $401 $581 forward 7 unknown #
coedge $-1 $582 $583 $246 $404 forward $396 $-1 #
edge $-1 $584 -25.695486272037201 $408 -9.212345499245135 $403 $585 forward 7 unknown #
edge $-1 $409 -19.033091354527112 $584 0 $247 $586 forward 7 unknown #
coedge $-1 $248 $576 $582 $587 forward $407 $-1 #
loop $-1 $-1 $576 $395 #
vertex $-1 $404 $588 #
vertex $-1 $249 $589 #
straight-curve $-1 -71.13821107262882 -15.978798000207282 17.168951403164666 1 0 0 I I #
coedge $-1 $411 $411 $-1 $590 reversed $252 $-1 #
edge $-1 $591 0 $591 6.2831853071796004 $253 $592 forward 7 unknown #
vertex $-1 $256 $593 #
ellipse-curve $-1 -47.318511858707488 -14.069724341250481 8.9273810167686349 -0.86602541151947299 0 0.49999998660252726 0.24999999330126363 0 0.43301270575973649 1 I I #
coedge $-1 $415 $415 $-1 $594 reversed $259 $-1 #
edge $-1 $595 0 $595 6.2831853071796004 $260 $596 forward 7 unknown #
vertex $-1 $263 $597 #
ellipse-curve $-1 -47.318511858707488 -11.206113852815282 8.9273810167686349 -0.86602541151947299 0 0.49999998660252726 0.24999999330126363 0 0.43301270575973649 1 I I #
face $-1 $-1 $598 $59 $-1 $599 reversed single #
loop $-1 $-1 $270 $264 #
plane-surface $-1 0 0 17.168951403164666 0 0 1 1 0 0 forward_v I I I I #
coedge $-1 $600 $601 $602 $603 reversed $265 $-1 #
coedge $-1 $604 $267 $269 $429 forward $167 $-1 #
coedge $-1 $267 $604 $600 $605 forward $167 $-1 #
coedge $-1 $602 $270 $267 $426 forward $420 $-1 #
edge $-1 $432 -2.7574050990308496 $606 3.9243527073179454 $425 $607 forward 7 unknown #
coedge $-1 $608 $609 $268 $428 forward $598 $-1 #
edge $-1 $610 -25.695486272037201 $431 -9.212345499245135 $427 $611 forward 7 unknown #
edge $-1 $432 -19.033091354527112 $610 0 $269 $612 forward 7 unknown #
coedge $-1 $270 $602 $608 $613 forward $420 $-1 #
vertex $-1 $428 $614 #
vertex $-1 $271 $615 #
straight-curve $-1 -71.13821107262882 -2.1739312948873017 17.168951403164666 1 0 0 I I #
coedge $-1 $434 $434 $-1 $616 reversed $274 $-1 #
edge $-1 $617 0 $617 6.2831853071796004 $275 $618 forward 7 unknown #
vertex $-1 $278 $619 #
ellipse-curve $-1 -47.318511858707488 -0.26485763593049683 8.9273810167686349 -0.86602541151947299 0 0.49999998660252726 0.24999999330126363 0 0.43301270575973649 1 I I #
coedge $-1 $438 $438 $-1 $620 reversed $281 $-1 #
edge $-1 $621 0 $621 6.2831853071796004 $282 $622 forward 7 unknown #
vertex $-1 $285 $623 #
ellipse-curve $-1 -47.318511858707488 2.5987528525047026 8.9273810167686349 -0.86602541151947299 0 0.49999998660252726 0.24999999330126363 0 0.43301270575973649 1 I I #
face $-1 $-1 $624 $62 $-1 $625 reversed single #
loop $-1 $-1 $292 $286 #
plane-surface $-1 0 0 17.168951403164666 0 0 1 1 0 0 forward_v I I I I #
coedge $-1 $626 $627 $628 $629 reversed $287 $-1 #
coedge $-1 $630 $289 $291 $452 forward $181 $-1 #
coedge $-1 $289 $630 $626 $631 forward $181 $-1 #
coedge $-1 $628 $292 $289 $449 forward $443 $-1 #
edge $-1 $455 4.1450282536291407 $632 10.826786059977938 $448 $633 forward 7 unknown #
coedge $-1 $634 $635 $290 $451 forward $624 $-1 #
edge $-1 $636 -25.695486272037201 $454 -9.212345499245135 $450 $637 forward 7 unknown #
edge $-1 $455 -19.033091354527112 $636 0 $291 $638 forward 7 unknown #
coedge $-1 $292 $628 $634 $639 forward $443 $-1 #
vertex $-1 $293 $640 #
vertex $-1 $293 $641 #
straight-curve $-1 -71.13821107262882 11.630935410432679 17.168951403164666 1 0 0 I I #
coedge $-1 $457 $457 $-1 $642 reversed $296 $-1 #
edge $-1 $643 0 $643 6.2831853071796004 $297 $644 forward 7 unknown #
vertex $-1 $300 $645 #
ellipse-curve $-1 -47.318511858707488 13.540009069389484 8.9273810167686349 -0.86602541151947299 0 0.49999998660252726 0.24999999330126363 0 0.43301270575973649 1 I I #
coedge $-1 $461 $461 $-1 $646 reversed $303 $-1 #
edge $-1 $647 0 $647 6.2831853071796004 $304 $648 forward 7 unknown #
vertex $-1 $307 $649 #
ellipse-curve $-1 -47.318511858707488 16.403619557824683 8.9273810167686349 -0.86602541151947299 0 0.49999998660252726 0.24999999330126363 0 0.43301270575973649 1 I I #
face $-1 $-1 $650 $65 $-1 $651 reversed single #
loop $-1 $-1 $314 $308 #
plane-surface $-1 0 0 17.168951403164666 0 0 1 1 0 0 forward_v I I I I #
coedge $-1 $652 $653 $654 $655 reversed $309 $-1 #
coedge $-1 $656 $311 $313 $475 forward $195 $-1 #
coedge $-1 $311 $656 $652 $657 forward $195 $-1 #
coedge $-1 $654 $314 $311 $472 forward $466 $-1 #
edge $-1 $478 11.047461606289133 $658 17.729219412637931 $471 $659 forward 7 unknown #
coedge $-1 $660 $661 $312 $474 forward $650 $-1 #
edge $-1 $662 -25.695486272037201 $477 -9.212345499245135 $473 $663 forward 7 unknown #
edge $-1 $478 -19.033091354527112 $662 0 $313 $664 forward 7 unknown #
coedge $-1 $314 $654 $660 $665 forward $466 $-1 #
vertex $-1 $315 $666 #
vertex $-1 $315 $667 #
straight-curve $-1 -71.13821107262882 25.435802115752665 17.168951403164666 1 0 0 I I #
coedge $-1 $480 $480 $-1 $668 reversed $318 $-1 #
edge $-1 $669 0 $669 6.2831853071796004 $319 $670 forward 7 unknown #
vertex $-1 $322 $671 #
ellipse-curve $-1 -47.318511858707488 27.344875774709465 8.9273810167686349 -0.86602541151947299 0 0.49999998660252726 0.24999999330126363 0 0.43301270575973649 1 I I #
coedge $-1 $484 $484 $-1 $672 reversed $325 $-1 #
edge $-1 $673 0 $673 6.2831853071796004 $326 $674 forward 7 unknown #
vertex $-1 $329 $675 #
ellipse-curve $-1 -47.318511858707488 30.208486263144664 8.9273810167686349 -0.86602541151947299 0 0.49999998660252726 0.24999999330126363 0 0.43301270575973649 1 I I #
face $-1 $-1 $676 $68 $-1 $677 reversed single #
loop $-1 $-1 $336 $330 #
plane-surface $-1 0 0 17.168951403164666 0 0 1 1 0 0 forward_v I I I I #
coedge $-1 $678 $679 $680 $681 reversed $331 $-1 #
coedge $-1 $682 $333 $335 $498 forward $209 $-1 #
coedge $-1 $333 $682 $678 $683 forward $209 $-1 #
coedge $-1 $680 $336 $333 $495 forward $489 $-1 #
edge $-1 $501 0.41177678670703521 $684 12.768118556897221 $494 $685 forward 7 unknown #
coedge $-1 $686 $687 $334 $497 forward $676 $-1 #
edge $-1 $688 -71.231511986052553 $500 -54.519623531377064 $496 $689 forward 7 unknown #
edge $-1 $501 84.656922116129309 $688 104.15356913968326 $335 $690 forward 7 unknown #
coedge $-1 $336 $680 $686 $691 forward $489 $-1 #
vertex $-1 $337 $692 #
vertex $-1 $337 $693 #
straight-curve $-1 43.85538335860744 -7.0017244585091643 17.16895140316467 -1 0 0 I I #
coedge $-1 $503 $503 $-1 $694 reversed $340 $-1 #
edge $-1 $695 0 $695 6.2831853071796004 $341 $696 forward 7 unknown #
vertex $-1 $344 $697 #
ellipse-curve $-1 47.056026921848144 -13.179895343604262 8.8130071758269377 0.85716730853699208 0 0.51503806187062418 0.77255709280593621 0 -1.2857509628054882 1 I I #
face $-1 $-1 $698 $70 $-1 $699 reversed single #
loop $-1 $-1 $514 $345 #
plane-surface $-1 0 0 17.168951403164666 0 0 1 1 0 0 forward_v I I I I #
coedge $-1 $700 $348 $350 $516 forward $218 $-1 #
coedge $-1 $348 $700 $701 $702 reversed $218 $-1 #
coedge $-1 $703 $351 $348 $513 forward $346 $-1 #
edge $-1 $519 8.4811577476541302 $704 20.837499517844307 $512 $705 forward 7 unknown #
coedge $-1 $706 $707 $349 $515 forward $508 $-1 #
edge $-1 $708 -1.8201140847527242 $518 8.2214012112341663 $514 $709 forward 7 unknown #
edge $-1 $519 -104.15356913968326 $708 -84.656922116129309 $350 $710 forward 7 unknown #
coedge $-1 $351 $703 $706 $711 reversed $346 $-1 #
vertex $-1 $711 $712 #
vertex $-1 $352 $713 #
straight-curve $-1 52.076784569841607 23.140486380403352 71.688574934541734 0 0 -1 I I #
coedge $-1 $521 $521 $-1 $714 reversed $355 $-1 #
edge $-1 $715 0 $715 6.2831853071796004 $356 $716 forward 7 unknown #
vertex $-1 $359 $717 #
ellipse-curve $-1 47.056026921848144 29.318657265498445 8.8130071758269377 0.85716730853699208 0 0.51503806187062418 0.77255709280593621 0 -1.2857509628054882 1 I I #
face $-1 $-1 $375 $54 $-1 $718 reversed single #
loop $-1 $-1 $541 $360 #
plane-surface $-1 0 35.496828150593529 0 0 -1 0 0 0 -1 forward_v I I I I #
coedge $-1 $719 $539 $542 $720 forward $361 $-1 #
coedge $-1 $545 $363 $364 $533 reversed $227 $-1 #
coedge $-1 $539 $719 $363 $531 reversed $361 $-1 #
edge $-1 $546 -17.168951403164666 $721 17.168951403164666 $530 $722 forward 7 unknown #
coedge $-1 $365 $364 $719 $723 forward $145 $-1 #
edge $-1 $537 -52.076784569841607 $721 52.076784569841607 $529 $724 forward 7 unknown #
coedge $-1 $542 $541 $365 $535 reversed $526 $-1 #
edge $-1 $725 -52.076784569841607 $536 52.076784569841607 $534 $726 forward 7 unknown #
vertex $-1 $367 $727 #
vertex $-1 $548 $728 #
straight-curve $-1 52.076784569841607 0 -17.168951403164666 0 -1 0 I I #
coedge $-1 $528 $530 $368 $540 reversed $361 $-1 #
edge $-1 $543 -35.496828150593529 $546 35.496828150593529 $539 $729 forward 7 unknown #
coedge $-1 $534 $369 $374 $549 forward $526 $-1 #
coedge $-1 $369 $534 $528 $720 reversed $526 $-1 #
vertex $-1 $370 $730 #
straight-curve $-1 0 35.496828150593529 17.168951403164666 -1 0 0 I I #
coedge $-1 $371 $529 $373 $548 reversed $227 $-1 #
vertex $-1 $540 $731 #
straight-curve $-1 0 -35.496828150593529 17.168951403164666 1 0 0 I I #
edge $-1 $376 -17.168951403164666 $537 17.168951403164666 $373 $732 forward 7 unknown #
edge $-1 $377 -17.168951403164666 $536 17.168951403164666 $374 $733 forward 7 unknown #
point $-1 52.076784569841607 -35.496828150593529 17.168951403164666 #
point $-1 52.076784569841607 35.496828150593529 17.168951403164666 #
face $-1 $-1 $565 $55 $-1 $734 reversed single #
plane-surface $-1 -47.343756278426881 -43.566209111540616 0 -1 0 0 0 0 1 forward_v I I I I #
coedge $-1 $735 $736 $737 $738 forward $380 $-1 #
coedge $-1 $737 $382 $564 $739 reversed $235 $-1 #
coedge $-1 $382 $737 $383 $559 reversed $235 $-1 #
edge $-1 $561 -17.168951403164666 $566 17.168951403164666 $382 $740 forward 7 unknown #
coedge $-1 $384 $383 $736 $741 forward $149 $-1 #
edge $-1 $561 35.496828150593529 $742 51.635590072487702 $556 $743 forward 7 unknown #
edge $-1 $744 -8.0693809609470861 $392 8.0693809609470861 $389 $745 forward 7 unknown #
vertex $-1 $559 $746 #
straight-curve $-1 0 -35.496828150593529 17.168951403164666 -1 0 0 I I #
coedge $-1 $747 $387 $390 $569 forward $565 $-1 #
coedge $-1 $387 $747 $555 $739 forward $565 $-1 #
loop $-1 $-1 $387 $552 #
vertex $-1 $557 $748 #
straight-curve $-1 0 -35.496828150593529 -17.168951403164666 1 0 0 I I #
coedge $-1 $390 $389 $749 $750 forward $391 $-1 #
edge $-1 $393 -8.0693809609470861 $751 8.0693809609470861 $390 $752 forward 7 unknown #
point $-1 -47.343756278426881 -35.496828150593529 17.168951403164666 #
point $-1 -47.343756278426881 -35.496828150593529 -17.168951403164666 #
plane-surface $-1 0 0 17.168951403164666 0 0 1 1 0 0 forward_v I I I I #
coedge $-1 $583 $582 $575 $753 forward $396 $-1 #
coedge $-1 $575 $398 $400 $579 reversed $243 $-1 #
coedge $-1 $398 $574 $573 $753 reversed $243 $-1 #
coedge $-1 $406 $401 $398 $577 forward $407 $-1 #
edge $-1 $580 -28.577971925055451 $754 -19.061426502787214 $576 $755 forward 7 unknown #
coedge $-1 $400 $399 $583 $756 reversed $153 $-1 #
edge $-1 $757 0 $580 19.033091354527112 $574 $758 forward 7 unknown #
vertex $-1 $402 $759 #
straight-curve $-1 -42.560239147573377 -6.3189595485164425 17.168951403164666 0 1 0 I I #
coedge $-1 $573 $403 $406 $587 reversed $396 $-1 #
coedge $-1 $403 $573 $578 $756 forward $396 $-1 #
vertex $-1 $404 $760 #
straight-curve $-1 -52.076784569841607 -15.978798000207282 26.381296902409801 0 0 1 I I #
straight-curve $-1 -52.076784569841607 -15.978798000207282 0.68581063037260037 -0.49999998660252726 0 -0.86602541151947299 I I #
edge $-1 $754 9.2970401938584875 $408 15.978798000207282 $582 $761 forward 7 unknown #
point $-1 -52.076784569841607 -15.978798000207282 17.168951403164666 #
point $-1 -42.56023914757337 -15.978798000207282 17.168951403164666 #
edge $-1 $762 1 $762 0 $411 $-1 forward 7 unknown #
vertex $-1 $412 $763 #
ellipse-curve $-1 -46.170268992303377 -14.069724341250481 8.2644427124396795 -0.86602541151947299 0 0.49999998660252726 0.24999999330126363 0 0.43301270575973649 1 I I #
point $-1 -47.068511865406222 -14.069724341250481 9.3603937225283698 #
edge $-1 $764 1 $764 0 $415 $-1 forward 7 unknown #
vertex $-1 $416 $765 #
ellipse-curve $-1 -46.170268992303377 -11.206113852815282 8.2644427124396795 -0.86602541151947299 0 0.49999998660252726 0.24999999330126363 0 0.43301270575973649 1 I I #
point $-1 -47.068511865406222 -11.206113852815282 9.3603937225283698 #
loop $-1 $-1 $427 $419 #
plane-surface $-1 -52.076784569841607 0 0 1 0 0 0 0 -1 forward_v I I I I #
coedge $-1 $601 $422 $424 $605 reversed $265 $-1 #
coedge $-1 $422 $600 $766 $767 reversed $265 $-1 #
coedge $-1 $430 $425 $422 $603 forward $420 $-1 #
edge $-1 $606 -28.577971925055451 $768 -19.061426502787214 $602 $769 forward 7 unknown #
coedge $-1 $424 $423 $609 $770 reversed $167 $-1 #
edge $-1 $771 0 $606 19.033091354527112 $600 $772 forward 7 unknown #
vertex $-1 $426 $773 #
straight-curve $-1 -42.560239147573377 0.58347380414354788 17.168951403164666 0 1 0 I I #
coedge $-1 $766 $427 $430 $613 reversed $598 $-1 #
coedge $-1 $427 $766 $604 $770 forward $598 $-1 #
vertex $-1 $428 $774 #
straight-curve $-1 -52.076784569841607 -2.1739312948873017 26.381296902409801 0 0 1 I I #
straight-curve $-1 -52.076784569841607 -2.1739312948873017 0.68581063037260037 -0.49999998660252726 0 -0.86602541151947299 I I #
edge $-1 $768 -4.5078265114614933 $431 2.1739312948873017 $608 $775 forward 7 unknown #
point $-1 -52.076784569841607 -2.1739312948873017 17.168951403164666 #
point $-1 -42.56023914757337 -2.1739312948873017 17.168951403164666 #
edge $-1 $776 1 $776 0 $434 $-1 forward 7 unknown #
vertex $-1 $435 $777 #
ellipse-curve $-1 -46.170268992303377 -0.26485763593049683 8.2644427124396795 -0.86602541151947299 0 0.49999998660252726 0.24999999330126363 0 0.43301270575973649 1 I I #
point $-1 -47.068511865406222 -0.26485763593049683 9.3603937225283698 #
edge $-1 $778 1 $778 0 $438 $-1 forward 7 unknown #
vertex $-1 $439 $779 #
ellipse-curve $-1 -46.170268992303377 2.5987528525047026 8.2644427124396795 -0.86602541151947299 0 0.49999998660252726 0.24999999330126363 0 0.43301270575973649 1 I I #
point $-1 -47.068511865406222 2.5987528525047026 9.3603937225283698 #
loop $-1 $-1 $450 $442 #
plane-surface $-1 -52.076784569841607 0 0 1 0 0 0 0 -1 forward_v I I I I #
coedge $-1 $627 $445 $447 $631 reversed $287 $-1 #
coedge $-1 $445 $626 $780 $781 reversed $287 $-1 #
coedge $-1 $453 $448 $445 $629 forward $443 $-1 #
edge $-1 $632 -28.577971925055451 $782 -19.061426502787214 $628 $783 forward 7 unknown #
coedge $-1 $447 $446 $635 $784 reversed $181 $-1 #
edge $-1 $785 0 $632 19.033091354527112 $626 $786 forward 7 unknown #
vertex $-1 $449 $787 #
straight-curve $-1 -42.560239147573377 7.4859071568035382 17.168951403164666 0 1 0 I I #
coedge $-1 $780 $450 $453 $639 reversed $624 $-1 #
coedge $-1 $450 $780 $630 $784 forward $624 $-1 #
vertex $-1 $451 $788 #
straight-curve $-1 -52.076784569841607 11.630935410432679 26.381296902409801 0 0 1 I I #
straight-curve $-1 -52.076784569841607 11.630935410432679 0.68581063037260037 -0.49999998660252726 0 -0.86602541151947299 I I #
edge $-1 $782 -18.312693216781476 $454 -11.630935410432679 $634 $789 forward 7 unknown #
point $-1 -52.076784569841607 11.630935410432679 17.168951403164666 #
point $-1 -42.56023914757337 11.630935410432679 17.168951403164666 #
edge $-1 $790 1 $790 0 $457 $-1 forward 7 unknown #
vertex $-1 $458 $791 #
ellipse-curve $-1 -46.170268992303377 13.540009069389484 8.2644427124396795 -0.86602541151947299 0 0.49999998660252726 0.24999999330126363 0 0.43301270575973649 1 I I #
point $-1 -47.068511865406222 13.540009069389484 9.3603937225283698 #
edge $-1 $792 1 $792 0 $461 $-1 forward 7 unknown #
vertex $-1 $462 $793 #
ellipse-curve $-1 -46.170268992303377 16.403619557824683 8.2644427124396795 -0.86602541151947299 0 0.49999998660252726 0.24999999330126363 0 0.43301270575973649 1 I I #
point $-1 -47.068511865406222 16.403619557824683 9.3603937225283698 #
loop $-1 $-1 $473 $465 #
plane-surface $-1 -52.076784569841607 0 0 1 0 0 0 0 -1 forward_v I I I I #
coedge $-1 $653 $468 $470 $657 reversed $309 $-1 #
coedge $-1 $468 $652 $794 $795 reversed $309 $-1 #
coedge $-1 $476 $471 $468 $655 forward $466 $-1 #
edge $-1 $658 -28.577971925055451 $796 -19.061426502787214 $654 $797 forward 7 unknown #
coedge $-1 $470 $469 $661 $798 reversed $195 $-1 #
edge $-1 $799 0 $658 19.033091354527112 $652 $800 forward 7 unknown #
vertex $-1 $472 $801 #
straight-curve $-1 -42.560239147573377 14.388340509463532 17.168951403164666 0 1 0 I I #
coedge $-1 $794 $473 $476 $665 reversed $650 $-1 #
coedge $-1 $473 $794 $656 $798 forward $650 $-1 #
vertex $-1 $474 $802 #
straight-curve $-1 -52.076784569841607 25.435802115752665 26.381296902409801 0 0 1 I I #
straight-curve $-1 -52.076784569841607 25.435802115752665 0.68581063037260037 -0.49999998660252726 0 -0.86602541151947299 I I #
edge $-1 $796 -32.117559922101464 $477 -25.435802115752665 $660 $803 forward 7 unknown #
point $-1 -52.076784569841607 25.435802115752665 17.168951403164666 #
point $-1 -42.56023914757337 25.435802115752665 17.168951403164666 #
edge $-1 $804 1 $804 0 $480 $-1 forward 7 unknown #
vertex $-1 $481 $805 #
ellipse-curve $-1 -46.170268992303377 27.344875774709465 8.2644427124396795 -0.86602541151947299 0 0.49999998660252726 0.24999999330126363 0 0.43301270575973649 1 I I #
point $-1 -47.068511865406222 27.344875774709465 9.3603937225283698 #
edge $-1 $806 1 $806 0 $484 $-1 forward 7 unknown #
vertex $-1 $485 $807 #
ellipse-curve $-1 -46.170268992303377 30.208486263144664 8.2644427124396795 -0.86602541151947299 0 0.49999998660252726 0.24999999330126363 0 0.43301270575973649 1 I I #
point $-1 -47.068511865406222 30.208486263144664 9.3603937225283698 #
loop $-1 $-1 $496 $488 #
plane-surface $-1 52.076784569841607 0 0 -1 0 0 0 0 1 forward_v I I I I #
coedge $-1 $679 $491 $493 $683 reversed $331 $-1 #
coedge $-1 $491 $678 $808 $809 reversed $331 $-1 #
coedge $-1 $499 $494 $491 $681 forward $489 $-1 #
edge $-1 $684 -1.8201140847527242 $810 8.2214012112341663 $680 $811 forward 7 unknown #
coedge $-1 $493 $492 $687 $812 reversed $209 $-1 #
edge $-1 $813 -104.15356913968326 $684 -84.656922116129309 $678 $814 forward 7 unknown #
vertex $-1 $495 $815 #
straight-curve $-1 42.035269273854716 -6.589947671802129 17.168951403164662 0 -1 0 I I #
coedge $-1 $808 $496 $499 $691 reversed $676 $-1 #
coedge $-1 $496 $808 $682 $812 forward $676 $-1 #
vertex $-1 $497 $816 #
straight-curve $-1 52.076784569841607 -7.0017244585091643 71.688574934541734 0 0 1 I I #
straight-curve $-1 -1.5662678167688995 -7.0017244585091643 89.734097482472976 0.51503806187062418 0 -0.85716730853699208 I I #
edge $-1 $810 -19.35806622869935 $500 -7.0017244585091643 $686 $817 forward 7 unknown #
point $-1 52.076784569841607 -7.0017244585091643 17.168951403164666 #
point $-1 42.035269273854716 -7.0017244585091643 17.16895140316467 #
edge $-1 $818 1 $818 0 $503 $-1 forward 7 unknown #
vertex $-1 $504 $819 #
ellipse-curve $-1 43.843591855380062 -13.179895343604262 6.8827815197144933 0.85716730853699208 0 0.51503806187062418 0.77255709280593621 0 -1.2857509628054882 1 I I #
point $-1 47.828584014654076 -13.179895343604262 7.5272562130214471 #
loop $-1 $-1 $701 $507 #
plane-surface $-1 0 35.496828150593529 0 0 -1 0 0 0 -1 forward_v I I I I #
coedge $-1 $511 $510 $707 $820 reversed $218 $-1 #
coedge $-1 $821 $822 $511 $702 forward $698 $-1 #
edge $-1 $704 -65.291657957800012 $823 -45.795010934246079 $701 $824 forward 7 unknown #
coedge $-1 $517 $512 $822 $825 reversed $346 $-1 #
vertex $-1 $513 $826 #
straight-curve $-1 52.076784569841607 14.659328632749222 0.45706294848918105 0 1 0 I I #
coedge $-1 $827 $514 $517 $711 forward $508 $-1 #
coedge $-1 $514 $827 $700 $820 forward $508 $-1 #
vertex $-1 $515 $828 #
straight-curve $-1 43.85538335860744 23.140486380403352 17.16895140316467 1 0 0 I I #
straight-curve $-1 -1.5662678167688995 23.140486380403352 89.734097482472976 -0.51503806187062418 0 0.85716730853699208 I I #
edge $-1 $518 23.140486380403352 $829 35.496828150593529 $517 $830 forward 7 unknown #
point $-1 52.076784569841607 23.140486380403352 17.168951403164666 #
point $-1 52.076784569841607 23.140486380403352 0.45706294848918105 #
edge $-1 $831 1 $831 0 $521 $-1 forward 7 unknown #
vertex $-1 $522 $832 #
ellipse-curve $-1 43.843591855380062 29.318657265498445 6.8827815197144933 0.85716730853699208 0 0.51503806187062418 0.77255709280593621 0 -1.2857509628054882 1 I I #
point $-1 47.828584014654076 29.318657265498445 7.5272562130214471 #
plane-surface $-1 52.076784569841607 0 0 -1 0 0 0 0 1 forward_v I I I I #
coedge $-1 $530 $528 $532 $723 reversed $361 $-1 #
edge $-1 $543 -17.168951403164666 $725 17.168951403164666 $542 $833 forward 7 unknown #
vertex $-1 $723 $834 #
straight-curve $-1 -52.076784569841607 -35.496828150593529 0 0 0 -1 I I #
edge $-1 $721 -35.496828150593529 $725 35.496828150593529 $719 $835 forward 7 unknown #
straight-curve $-1 0 -35.496828150593529 -17.168951403164666 -1 0 0 I I #
vertex $-1 $535 $836 #
straight-curve $-1 0 35.496828150593529 -17.168951403164666 1 0 0 I I #
point $-1 52.076784569841607 35.496828150593529 -17.168951403164666 #
point $-1 52.076784569841607 -35.496828150593529 -17.168951403164666 #
straight-curve $-1 -52.076784569841607 0 17.168951403164666 0 -1 0 I I #
point $-1 -52.076784569841607 35.496828150593529 17.168951403164666 #
point $-1 -52.076784569841607 -35.496828150593529 17.168951403164666 #
straight-curve $-1 52.076784569841607 -35.496828150593529 0 0 0 -1 I I #
straight-curve $-1 52.076784569841607 35.496828150593529 0 0 0 -1 I I #
plane-surface $-1 0 0 -17.168951403164666 0 0 1 1 0 0 forward_v I I I I #
coedge $-1 $749 $554 $747 $837 reversed $380 $-1 #
coedge $-1 $554 $749 $558 $741 reversed $380 $-1 #
coedge $-1 $556 $555 $554 $738 reversed $235 $-1 #
edge $-1 $742 -17.168951403164666 $838 17.168951403164666 $737 $839 forward 7 unknown #
edge $-1 $838 -51.635590072487702 $566 -35.496828150593529 $555 $840 forward 7 unknown #
straight-curve $-1 -52.076784569841607 -35.496828150593529 0 0 0 -1 I I #
edge $-1 $742 -2.3665141457073631 $744 2.3665141457073631 $736 $841 forward 7 unknown #
vertex $-1 $559 $842 #
straight-curve $-1 -52.076784569841607 0 17.168951403164666 0 -1 0 I I #
vertex $-1 $560 $843 #
straight-curve $-1 -47.343756278426881 -43.566209111540616 17.168951403164666 0 1 0 I I #
point $-1 -52.076784569841607 -35.496828150593529 17.168951403164666 #
coedge $-1 $564 $563 $735 $837 forward $565 $-1 #
point $-1 -52.076784569841607 -35.496828150593529 -17.168951403164666 #
coedge $-1 $736 $735 $568 $750 reversed $380 $-1 #
edge $-1 $744 -17.168951403164666 $751 17.168951403164666 $568 $844 forward 7 unknown #
vertex $-1 $750 $845 #
straight-curve $-1 -47.343756278426881 -43.566209111540616 -17.168951403164666 0 -1 0 I I #
edge $-1 $754 9.212345499245135 $757 25.695486272037201 $573 $846 forward 7 unknown #
vertex $-1 $587 $847 #
straight-curve $-1 -71.13821107262882 -9.2970401938584875 17.168951403164666 -1 0 0 I I #
edge $-1 $757 2.978080645342045 $584 9.65983845169084 $583 $848 forward 7 unknown #
vertex $-1 $756 $849 #
straight-curve $-1 -52.076784569841607 -9.2970401938584875 0.68581063037260037 0.49999998660252726 0 0.86602541151947299 I I #
point $-1 -42.56023914757337 -9.2970401938584875 17.168951403164666 #
point $-1 -52.076784569841607 -15.978798000207282 0.68581063037260037 #
straight-curve $-1 -52.076784569841607 0 17.168951403164666 0 -1 0 I I #
vertex $-1 $590 $850 #
point $-1 -45.920268999002111 -14.069724341250481 8.6974554181994161 #
vertex $-1 $594 $851 #
point $-1 -45.920268999002111 -11.206113852815282 8.6974554181994161 #
coedge $-1 $609 $608 $601 $767 forward $598 $-1 #
edge $-1 $768 9.212345499245135 $771 25.695486272037201 $766 $852 forward 7 unknown #
vertex $-1 $613 $853 #
straight-curve $-1 -71.13821107262882 4.5078265114614933 17.168951403164666 -1 0 0 I I #
edge $-1 $771 -3.9243527073179454 $610 2.7574050990308496 $609 $854 forward 7 unknown #
vertex $-1 $770 $855 #
straight-curve $-1 -52.076784569841607 4.5078265114614933 0.68581063037260037 0.49999998660252726 0 0.86602541151947299 I I #
point $-1 -42.56023914757337 4.5078265114614933 17.168951403164666 #
point $-1 -52.076784569841607 -2.1739312948873017 0.68581063037260037 #
straight-curve $-1 -52.076784569841607 0 17.168951403164666 0 -1 0 I I #
vertex $-1 $616 $856 #
point $-1 -45.920268999002111 -0.26485763593049683 8.6974554181994161 #
vertex $-1 $620 $857 #
point $-1 -45.920268999002111 2.5987528525047026 8.6974554181994161 #
coedge $-1 $635 $634 $627 $781 forward $624 $-1 #
edge $-1 $782 9.212345499245135 $785 25.695486272037201 $780 $858 forward 7 unknown #
vertex $-1 $639 $859 #
straight-curve $-1 -71.13821107262882 18.312693216781476 17.168951403164666 -1 0 0 I I #
edge $-1 $785 -10.826786059977938 $636 -4.1450282536291407 $635 $860 forward 7 unknown #
vertex $-1 $784 $861 #
straight-curve $-1 -52.076784569841607 18.312693216781476 0.68581063037260037 0.49999998660252726 0 0.86602541151947299 I I #
point $-1 -42.56023914757337 18.312693216781476 17.168951403164666 #
point $-1 -52.076784569841607 11.630935410432679 0.68581063037260037 #
straight-curve $-1 -52.076784569841607 0 17.168951403164666 0 -1 0 I I #
vertex $-1 $642 $862 #
point $-1 -45.920268999002111 13.540009069389484 8.6974554181994161 #
vertex $-1 $646 $863 #
point $-1 -45.920268999002111 16.403619557824683 8.6974554181994161 #
coedge $-1 $661 $660 $653 $795 forward $650 $-1 #
edge $-1 $796 9.212345499245135 $799 25.695486272037201 $794 $864 forward 7 unknown #
vertex $-1 $665 $865 #
straight-curve $-1 -71.13821107262882 32.117559922101464 17.168951403164666 -1 0 0 I I #
edge $-1 $799 -17.729219412637931 $662 -11.047461606289133 $661 $866 forward 7 unknown #
vertex $-1 $798 $867 #
straight-curve $-1 -52.076784569841607 32.117559922101464 0.68581063037260037 0.49999998660252726 0 0.86602541151947299 I I #
point $-1 -42.56023914757337 32.117559922101464 17.168951403164666 #
point $-1 -52.076784569841607 25.435802115752665 0.68581063037260037 #
straight-curve $-1 -52.076784569841607 0 17.168951403164666 0 -1 0 I I #
vertex $-1 $668 $868 #
point $-1 -45.920268999002111 27.344875774709465 8.6974554181994161 #
vertex $-1 $672 $869 #
point $-1 -45.920268999002111 30.208486263144664 8.6974554181994161 #
coedge $-1 $687 $686 $679 $809 forward $676 $-1 #
edge $-1 $810 54.519623531377064 $813 71.231511986052553 $808 $870 forward 7 unknown #
vertex $-1 $691 $871 #
straight-curve $-1 43.85538335860744 -19.35806622869935 17.16895140316467 1 0 0 I I #
edge $-1 $813 -12.768118556897221 $688 -0.41177678670703521 $687 $872 forward 7 unknown #
vertex $-1 $812 $873 #
straight-curve $-1 -1.5662678167688995 -19.35806622869935 89.734097482472976 -0.51503806187062418 0 0.85716730853699208 I I #
point $-1 42.035269273854716 -19.35806622869935 17.16895140316467 #
point $-1 52.076784569841607 -7.0017244585091643 0.45706294848918105 #
straight-curve $-1 52.076784569841607 0 17.168951403164666 0 1 0 I I #
vertex $-1 $694 $874 #
point $-1 44.616148948185995 -13.179895343604262 5.5970305569090053 #
edge $-1 $823 -20.837499517844314 $708 -8.4811577476541302 $707 $875 forward 7 unknown #
coedge $-1 $822 $701 $827 $876 reversed $698 $-1 #
coedge $-1 $701 $821 $703 $825 forward $698 $-1 #
vertex $-1 $702 $877 #
straight-curve $-1 18.449095598936569 35.496828150593529 56.422937670094498 -0.51503806187062429 0 0.85716730853699219 I I #
edge $-1 $829 -17.168951403164666 $704 -0.45706294848918638 $703 $878 forward 7 unknown #
point $-1 52.076784569841607 35.496828150593529 0.45706294848918638 #
coedge $-1 $707 $706 $821 $876 forward $508 $-1 #
point $-1 42.035269273854716 23.140486380403352 17.16895140316467 #
vertex $-1 $711 $879 #
straight-curve $-1 52.076784569841607 0 17.168951403164666 0 1 0 I I #
vertex $-1 $714 $880 #
point $-1 44.616148948185995 29.318657265498445 5.5970305569090053 #
straight-curve $-1 -52.076784569841607 35.496828150593529 0 0 0 -1 I I #
point $-1 -52.076784569841607 -35.496828150593529 -17.168951403164666 #
straight-curve $-1 -52.076784569841607 0 -17.168951403164666 0 1 0 I I #
point $-1 -52.076784569841607 35.496828150593529 -17.168951403164666 #
edge $-1 $751 -2.3665141457073631 $838 2.3665141457073631 $735 $881 forward 7 unknown #
vertex $-1 $739 $882 #
straight-curve $-1 -52.076784569841607 -51.635590072487702 0 0 0 -1 I I #
straight-curve $-1 -52.076784569841607 0 -17.168951403164666 0 1 0 I I #
straight-curve $-1 -49.710270424134244 -51.635590072487702 17.168951403164666 1 0 0 I I #
point $-1 -52.076784569841607 -51.635590072487702 17.168951403164666 #
point $-1 -47.343756278426881 -51.635590072487702 17.168951403164666 #
straight-curve $-1 -47.343756278426881 -51.635590072487702 0 0 0 -1 I I #
point $-1 -47.343756278426881 -51.635590072487702 -17.168951403164666 #
straight-curve $-1 -52.076784569841607 -9.2970401938584875 26.381296902409801 0 0 -1 I I #
point $-1 -52.076784569841607 -9.2970401938584875 17.168951403164666 #
straight-curve $-1 -52.076784569841607 -6.3189595485164425 0.68581063037260437 0 -1 0 I I #
point $-1 -52.076784569841607 -9.2970401938584875 0.68581063037260037 #
point $-1 -45.737256286543641 -14.069724341250481 8.0144427191384171 #
point $-1 -45.737256286543641 -11.206113852815282 8.0144427191384171 #
straight-curve $-1 -52.076784569841607 4.5078265114614933 26.381296902409801 0 0 -1 I I #
point $-1 -52.076784569841607 4.5078265114614933 17.168951403164666 #
straight-curve $-1 -52.076784569841607 0.58347380414354788 0.68581063037260437 0 -1 0 I I #
point $-1 -52.076784569841607 4.5078265114614933 0.68581063037260037 #
point $-1 -45.737256286543641 -0.26485763593049683 8.0144427191384171 #
point $-1 -45.737256286543641 2.5987528525047026 8.0144427191384171 #
straight-curve $-1 -52.076784569841607 18.312693216781476 26.381296902409801 0 0 -1 I I #
point $-1 -52.076784569841607 18.312693216781476 17.168951403164666 #
straight-curve $-1 -52.076784569841607 7.4859071568035382 0.68581063037260437 0 -1 0 I I #
point $-1 -52.076784569841607 18.312693216781476 0.68581063037260037 #
point $-1 -45.737256286543641 13.540009069389484 8.0144427191384171 #
point $-1 -45.737256286543641 16.403619557824683 8.0144427191384171 #
straight-curve $-1 -52.076784569841607 32.117559922101464 26.381296902409801 0 0 -1 I I #
point $-1 -52.076784569841607 32.117559922101464 17.168951403164666 #
straight-curve $-1 -52.076784569841607 14.388340509463532 0.68581063037260437 0 -1 0 I I #
point $-1 -52.076784569841607 32.117559922101464 0.68581063037260037 #
point $-1 -45.737256286543641 27.344875774709465 8.0144427191384171 #
point $-1 -45.737256286543641 30.208486263144664 8.0144427191384171 #
straight-curve $-1 52.076784569841607 -19.35806622869935 71.688574934541734 0 0 -1 I I #
point $-1 52.076784569841607 -19.35806622869935 17.168951403164666 #
straight-curve $-1 52.076784569841607 -6.589947671802129 0.45706294848918105 0 1 0 I I #
point $-1 52.076784569841607 -19.35806622869935 0.45706294848918105 #
point $-1 42.557840892574568 -13.179895343604262 6.110224426908557 #
straight-curve $-1 42.035269273854716 14.659328632749222 17.168951403164662 0 -1 0 I I #
edge $-1 $829 -52.076784569841607 $823 -42.035269273854716 $821 $883 forward 7 unknown #
point $-1 42.035269273854716 35.496828150593537 17.16895140316467 #
straight-curve $-1 52.076784569841607 35.496828150593529 0 0 0 -1 I I #
point $-1 52.076784569841607 35.496828150593529 17.168951403164666 #
point $-1 42.557840892574568 29.318657265498445 6.110224426908557 #
straight-curve $-1 -49.710270424134244 -51.635590072487702 -17.168951403164666 -1 0 0 I I #
point $-1 -52.076784569841607 -51.635590072487702 -17.168951403164666 #
straight-curve $-1 0 35.496828150593529 17.168951403164666 -1 0 0 I I #
End-of-ACIS-data 