500 0 8 0           
7 Unknown 11 ACIS 5.0 NT 24 Thu Mar 25 20:57:29 1999 
-1 9.9999999999999995e-007 1e-010 
body $-1 $8 $-1 $9 #
body $-1 $10 $-1 $11 #
body $-1 $12 $-1 $13 #
body $-1 $14 $-1 $15 #
body $-1 $16 $-1 $17 #
body $-1 $18 $-1 $19 #
body $-1 $20 $-1 $21 #
body $-1 $22 $-1 $23 #
lump $-1 $-1 $24 $0 #
transform $-1 1 0 0 0 1 0 0 0 1 48.526871547593615 27.010334829141414 9.3110518833755549 1 rotate no_reflect no_shear #
lump $-1 $-1 $25 $1 #
transform $-1 1 0 0 0 1 0 0 0 1 48.526871547593615 27.010334829141414 9.3110518833755549 1 rotate no_reflect no_shear #
lump $-1 $-1 $26 $2 #
transform $-1 1 0 0 0 1 0 0 0 1 48.526871547593615 27.010334829141414 9.3110518833755549 1 rotate no_reflect no_shear #
lump $-1 $-1 $27 $3 #
transform $-1 1 0 0 0 1 0 0 0 1 48.526871547593615 27.010334829141414 9.3110518833755549 1 rotate no_reflect no_shear #
lump $-1 $-1 $28 $4 #
transform $-1 1 0 0 0 1 0 0 0 1 48.526871547593615 27.010334829141414 9.3110518833755549 1 rotate no_reflect no_shear #
lump $-1 $-1 $29 $5 #
transform $-1 1 0 0 0 1 0 0 0 1 48.526871547593615 27.010334829141414 9.3110518833755549 1 rotate no_reflect no_shear #
lump $-1 $-1 $30 $6 #
transform $-1 1 0 0 0 1 0 0 0 1 48.526871547593615 27.010334829141414 9.3110518833755549 1 rotate no_reflect no_shear #
lump $-1 $-1 $31 $7 #
transform $-1 1 0 0 0 1 0 0 0 1 48.526871547593615 27.010334829141414 9.3110518833755549 1 rotate no_reflect no_shear #
shell $-1 $-1 $-1 $32 $-1 $8 #
shell $-1 $-1 $-1 $33 $-1 $10 #
shell $-1 $-1 $-1 $34 $-1 $12 #
shell $-1 $-1 $-1 $35 $-1 $14 #
shell $-1 $-1 $-1 $36 $-1 $16 #
shell $-1 $-1 $-1 $37 $-1 $18 #
shell $-1 $-1 $-1 $38 $-1 $20 #
shell $-1 $-1 $-1 $39 $-1 $22 #
face $-1 $40 $41 $24 $-1 $42 forward single #
face $-1 $43 $44 $25 $-1 $45 reversed single #
face $-1 $46 $47 $26 $-1 $48 reversed single #
face $-1 $49 $50 $27 $-1 $51 forward single #
face $-1 $52 $53 $28 $-1 $54 forward single #
face $-1 $55 $56 $29 $-1 $57 reversed single #
face $-1 $58 $59 $30 $-1 $60 forward single #
face $-1 $61 $62 $31 $-1 $63 forward single #
face $-1 $64 $65 $24 $-1 $66 reversed single #
loop $-1 $-1 $67 $32 #
plane-surface $-1 0 0 9.3110518833755549 0 0 1 1 0 0 forward_v I I I I #
face $-1 $68 $69 $25 $-1 $70 reversed single #
loop $-1 $-1 $71 $33 #
plane-surface $-1 -44.164100853650446 -22.216394831470723 0 0 -1 0 0 0 -1 forward_v I I I I #
face $-1 $72 $73 $26 $-1 $74 reversed single #
loop $-1 $-1 $75 $34 #
plane-surface $-1 -31.76278180614252 -27.010334829141414 4.9643654376050534 0 -0.64278761758704617 0.76604443648966558 1 0 0 forward_v I I I I #
face $-1 $76 $77 $27 $-1 $78 forward single #
loop $-1 $79 $80 $35 #
cone-surface $-1 -35.207873957670273 -23.612371481743512 6.1749221678075559 0 0.64278761758704617 -0.76604443648966558 1.5 0 0 1 I I 0 1 1.5 forward I I I I #
face $-1 $81 $82 $28 $-1 $83 forward single #
loop $-1 $84 $85 $36 #
cone-surface $-1 -28.31768965461476 -23.612371481743512 6.1749221678075559 0 0.64278761758704617 -0.76604443648966558 1.5 0 0 1 I I 0 1 1.5 forward I I I I #
face $-1 $86 $87 $29 $-1 $88 reversed single #
loop $-1 $-1 $89 $37 #
plane-surface $-1 40.488323194028837 -27.010334829141414 4.9643654376050534 0 -0.64278761758704617 0.76604443648966558 1 0 0 forward_v I I I I #
face $-1 $90 $91 $30 $-1 $92 forward single #
loop $-1 $93 $94 $38 #
cone-surface $-1 37.043231042501091 -23.612371481743512 6.1749221678075559 0 0.64278761758704617 -0.76604443648966558 1.5 0 0 1 I I 0 1 1.5 forward I I I I #
face $-1 $95 $96 $31 $-1 $97 forward single #
loop $-1 $98 $99 $39 #
cone-surface $-1 43.933415345556611 -23.612371481743512 6.1749221678075559 0 0.64278761758704617 -0.76604443648966558 1.5 0 0 1 I I 0 1 1.5 forward I I I I #
face $-1 $100 $101 $24 $-1 $102 reversed single #
loop $-1 $-1 $103 $40 #
plane-surface $-1 0 0 -9.3110518833755549 0 0 1 1 0 0 forward_v I I I I #
coedge $-1 $104 $105 $106 $107 forward $41 $-1 #
face $-1 $108 $109 $25 $-1 $110 forward single #
loop $-1 $-1 $111 $43 #
plane-surface $-1 -39.801330159707277 -24.613364830306068 0 -1 0 0 0 0 1 forward_v I I I I #
coedge $-1 $112 $113 $114 $115 forward $44 $-1 #
face $-1 $116 $117 $26 $-1 $118 forward single #
loop $-1 $-1 $119 $46 #
plane-surface $-1 -23.724233452577757 -89.395279131202045 79.311845376170524 -1 0 0 0 -0.64278761758704617 0.76604443648966558 forward_v I I I I #
coedge $-1 $120 $121 $122 $123 reversed $47 $-1 #
face $-1 $-1 $124 $27 $-1 $125 forward single #
loop $-1 $126 $127 $49 #
cone-surface $-1 -35.207873957670273 -22.322406960719782 4.6376023477575572 0 0.64278761758704617 -0.76604443648966558 0.75 0 0 1 I I -0.70710678118654757 0.70710678118654757 0.75 forward I I I I #
loop $-1 $-1 $128 $35 #
coedge $-1 $80 $80 $129 $130 reversed $50 $-1 #
face $-1 $-1 $131 $28 $-1 $132 forward single #
loop $-1 $133 $134 $52 #
cone-surface $-1 -28.31768965461476 -22.322406960719782 4.6376023477575572 0 0.64278761758704617 -0.76604443648966558 0.75 0 0 1 I I -0.70710678118654757 0.70710678118654757 0.75 forward I I I I #
loop $-1 $-1 $135 $36 #
coedge $-1 $85 $85 $136 $137 reversed $53 $-1 #
face $-1 $138 $139 $29 $-1 $140 reversed single #
loop $-1 $-1 $141 $55 #
plane-surface $-1 32.449774840464073 -89.395279131202045 79.311845376170524 1 0 0 0 0.64278761758704617 -0.76604443648966558 forward_v I I I I #
coedge $-1 $142 $143 $144 $145 reversed $56 $-1 #
face $-1 $-1 $146 $30 $-1 $147 forward single #
loop $-1 $148 $149 $58 #
cone-surface $-1 37.043231042501091 -22.322406960719782 4.6376023477575572 0 0.64278761758704617 -0.76604443648966558 0.75 0 0 1 I I -0.70710678118654757 0.70710678118654757 0.75 forward I I I I #
loop $-1 $-1 $150 $38 #
coedge $-1 $94 $94 $151 $152 reversed $59 $-1 #
face $-1 $-1 $153 $31 $-1 $154 forward single #
loop $-1 $155 $156 $61 #
cone-surface $-1 43.933415345556611 -22.322406960719782 4.6376023477575572 0 0.64278761758704617 -0.76604443648966558 0.75 0 0 1 I I -0.70710678118654757 0.70710678118654757 0.75 forward I I I I #
loop $-1 $-1 $157 $39 #
coedge $-1 $99 $99 $158 $159 reversed $62 $-1 #
face $-1 $160 $161 $24 $-1 $162 reversed single #
loop $-1 $-1 $163 $64 #
plane-surface $-1 0 -27.010334829141414 0 0 1 0 0 0 1 forward_v I I I I #
coedge $-1 $164 $165 $166 $167 forward $65 $-1 #
coedge $-1 $168 $67 $169 $170 forward $41 $-1 #
coedge $-1 $67 $168 $171 $172 forward $41 $-1 #
coedge $-1 $173 $174 $67 $107 reversed $175 $-1 #
edge $-1 $176 -27.010334829141414 $177 27.010334829141414 $106 $178 forward 7 unknown #
face $-1 $179 $180 $25 $-1 $181 reversed single #
loop $-1 $-1 $182 $68 #
plane-surface $-1 0 0 9.3110518833755549 0 0 1 1 0 0 forward_v I I I I #
coedge $-1 $183 $184 $185 $186 reversed $69 $-1 #
coedge $-1 $187 $71 $188 $189 reversed $44 $-1 #
coedge $-1 $71 $187 $190 $191 reversed $44 $-1 #
coedge $-1 $184 $183 $71 $115 reversed $69 $-1 #
edge $-1 $192 -9.3110518833755549 $193 9.3110518833755549 $114 $194 forward 7 unknown #
face $-1 $195 $196 $26 $-1 $197 forward single #
loop $-1 $-1 $198 $72 #
plane-surface $-1 0 0 9.3110518833755549 0 0 1 1 0 0 forward_v I I I I #
coedge $-1 $199 $200 $201 $202 reversed $73 $-1 #
coedge $-1 $203 $75 $204 $205 reversed $47 $-1 #
coedge $-1 $75 $203 $199 $206 forward $47 $-1 #
coedge $-1 $201 $207 $75 $123 forward $208 $-1 #
edge $-1 $209 -23.919939256636017 $210 -7.8428425495064964 $122 $211 forward 7 unknown #
loop $-1 $-1 $129 $76 #
plane-surface $-1 -31.76278180614252 -27.010334829141414 4.9643654376050534 0 -0.64278761758704617 0.76604443648966558 1 0 0 forward_v I I I I #
loop $-1 $-1 $212 $49 #
coedge $-1 $127 $127 $128 $213 reversed $77 $-1 #
coedge $-1 $128 $128 $127 $213 forward $79 $-1 #
coedge $-1 $129 $129 $80 $130 forward $124 $-1 #
edge $-1 $214 3.8060672692751401e-016 $214 6.2831853071796004 $129 $215 forward 7 unknown #
loop $-1 $-1 $136 $81 #
plane-surface $-1 -31.76278180614252 -27.010334829141414 4.9643654376050534 0 -0.64278761758704617 0.76604443648966558 1 0 0 forward_v I I I I #
loop $-1 $-1 $216 $52 #
coedge $-1 $134 $134 $135 $217 reversed $82 $-1 #
coedge $-1 $135 $135 $134 $217 forward $84 $-1 #
coedge $-1 $136 $136 $85 $137 forward $131 $-1 #
edge $-1 $218 3.8060672692751401e-016 $218 6.2831853071796004 $136 $219 forward 7 unknown #
face $-1 $220 $221 $29 $-1 $222 forward single #
loop $-1 $-1 $223 $86 #
plane-surface $-1 48.526871547593615 0 0 -1 0 0 0 0 1 forward_v I I I I #
coedge $-1 $224 $225 $226 $227 reversed $87 $-1 #
coedge $-1 $228 $89 $223 $229 reversed $56 $-1 #
coedge $-1 $89 $228 $224 $230 forward $56 $-1 #
coedge $-1 $226 $231 $89 $145 forward $221 $-1 #
edge $-1 $232 -28.282709950579182 $233 -12.205613243449655 $144 $234 forward 7 unknown #
loop $-1 $-1 $151 $90 #
plane-surface $-1 40.488323194028837 -27.010334829141414 4.9643654376050534 0 -0.64278761758704617 0.76604443648966558 1 0 0 forward_v I I I I #
loop $-1 $-1 $235 $58 #
coedge $-1 $149 $149 $150 $236 reversed $91 $-1 #
coedge $-1 $150 $150 $149 $236 forward $93 $-1 #
coedge $-1 $151 $151 $94 $152 forward $146 $-1 #
edge $-1 $237 3.8060672692751401e-016 $237 6.2831853071796004 $151 $238 forward 7 unknown #
loop $-1 $-1 $158 $95 #
plane-surface $-1 40.488323194028837 -27.010334829141414 4.9643654376050534 0 -0.64278761758704617 0.76604443648966558 1 0 0 forward_v I I I I #
loop $-1 $-1 $239 $61 #
coedge $-1 $156 $156 $157 $240 reversed $96 $-1 #
coedge $-1 $157 $157 $156 $240 forward $98 $-1 #
coedge $-1 $158 $158 $99 $159 forward $153 $-1 #
edge $-1 $241 3.8060672692751401e-016 $241 6.2831853071796004 $158 $242 forward 7 unknown #
face $-1 $243 $244 $24 $-1 $245 reversed single #
loop $-1 $-1 $246 $100 #
plane-surface $-1 -48.526871547593615 0 0 1 0 0 0 0 -1 forward_v I I I I #
coedge $-1 $247 $171 $248 $249 forward $101 $-1 #
coedge $-1 $250 $103 $247 $251 forward $65 $-1 #
coedge $-1 $103 $250 $252 $253 forward $65 $-1 #
coedge $-1 $174 $173 $103 $167 reversed $175 $-1 #
edge $-1 $254 -27.010334829141414 $255 27.010334829141414 $166 $256 forward 7 unknown #
coedge $-1 $105 $104 $257 $258 forward $41 $-1 #
coedge $-1 $259 $260 $104 $170 reversed $244 $-1 #
edge $-1 $177 -48.526871547593615 $261 48.526871547593615 $169 $262 forward 7 unknown #
coedge $-1 $163 $263 $105 $172 reversed $101 $-1 #
edge $-1 $264 -48.526871547593615 $176 48.526871547593615 $171 $265 forward 7 unknown #
coedge $-1 $166 $106 $263 $266 forward $175 $-1 #
coedge $-1 $106 $166 $259 $267 reversed $175 $-1 #
loop $-1 $-1 $173 $243 #
vertex $-1 $107 $268 #
vertex $-1 $107 $269 #
straight-curve $-1 48.526871547593615 0 9.3110518833755549 0 1 0 I I #
face $-1 $270 $271 $25 $-1 $272 reversed single #
loop $-1 $-1 $273 $108 #
plane-surface $-1 -48.526871547593615 0 0 1 0 0 0 0 -1 forward_v I I I I #
coedge $-1 $190 $274 $184 $275 forward $109 $-1 #
coedge $-1 $114 $111 $276 $277 reversed $69 $-1 #
coedge $-1 $111 $114 $182 $275 reversed $69 $-1 #
coedge $-1 $278 $279 $111 $186 forward $280 $-1 #
edge $-1 $281 -9.3110518833755549 $282 9.3110518833755549 $185 $283 forward 7 unknown #
coedge $-1 $113 $112 $273 $284 reversed $44 $-1 #
coedge $-1 $276 $285 $112 $189 forward $271 $-1 #
edge $-1 $286 -26.444821120768392 $193 -17.719279732882054 $188 $287 forward 7 unknown #
coedge $-1 $288 $182 $113 $191 forward $109 $-1 #
edge $-1 $192 17.719279732882054 $289 26.444821120768392 $190 $290 forward 7 unknown #
vertex $-1 $191 $291 #
vertex $-1 $189 $292 #
straight-curve $-1 -39.801330159707277 -22.216394831470723 0 0 0 -1 I I #
face $-1 $-1 $208 $26 $-1 $293 reversed single #
loop $-1 $-1 $204 $116 #
plane-surface $-1 -39.801330159707277 -24.613364830306068 0 -1 0 0 0 0 1 forward_v I I I I #
coedge $-1 $294 $295 $200 $296 forward $117 $-1 #
coedge $-1 $200 $119 $121 $206 reversed $73 $-1 #
coedge $-1 $119 $199 $198 $296 reversed $73 $-1 #
coedge $-1 $297 $122 $119 $202 forward $208 $-1 #
edge $-1 $210 -34.691557250480209 $298 -30.344870804709707 $201 $299 forward 7 unknown #
coedge $-1 $121 $120 $294 $300 reversed $47 $-1 #
coedge $-1 $301 $302 $120 $205 forward $196 $-1 #
edge $-1 $303 -7.4396671386761728 $209 -0.67742355021458489 $204 $304 forward 7 unknown #
edge $-1 $305 -6.7622435884615886 $210 0 $199 $306 forward 7 unknown #
coedge $-1 $122 $297 $301 $307 forward $208 $-1 #
loop $-1 $-1 $201 $195 #
vertex $-1 $205 $308 #
vertex $-1 $123 $309 #
straight-curve $-1 -15.88139090307126 -27.010334829141414 4.9643654376050534 1 0 0 I I #
coedge $-1 $212 $212 $-1 $310 reversed $126 $-1 #
edge $-1 $311 0 $311 6.2831853071796004 $127 $312 forward 7 unknown #
vertex $-1 $130 $313 #
ellipse-curve $-1 -35.207873957670273 -24.420245289576958 7.1377086604903042 0 -0.64278761758704617 0.76604443648966558 1.5 0 0 1 I I #
coedge $-1 $216 $216 $-1 $314 reversed $133 $-1 #
edge $-1 $315 0 $315 6.2831853071796004 $134 $316 forward 7 unknown #
vertex $-1 $137 $317 #
ellipse-curve $-1 -28.31768965461476 -24.420245289576958 7.1377086604903042 0 -0.64278761758704617 0.76604443648966558 1.5 0 0 1 I I #
face $-1 $-1 $318 $29 $-1 $319 reversed single #
loop $-1 $-1 $144 $138 #
plane-surface $-1 0 0 9.3110518833755549 0 0 1 1 0 0 forward_v I I I I #
coedge $-1 $320 $321 $142 $229 forward $139 $-1 #
coedge $-1 $225 $141 $143 $230 reversed $87 $-1 #
coedge $-1 $141 $224 $322 $323 reversed $87 $-1 #
coedge $-1 $324 $144 $141 $227 forward $221 $-1 #
edge $-1 $233 -22.867483815588521 $325 -17.687304736459609 $226 $326 forward 7 unknown #
coedge $-1 $143 $142 $327 $328 reversed $56 $-1 #
edge $-1 $329 -8.7500420455585974 $232 -1.9877984570970093 $223 $330 forward 7 unknown #
edge $-1 $331 0 $233 6.7622435884615886 $224 $332 forward 7 unknown #
coedge $-1 $144 $324 $320 $333 forward $221 $-1 #
vertex $-1 $229 $334 #
vertex $-1 $145 $335 #
straight-curve $-1 20.244161597014418 -21.830155750012501 9.3110518833755549 -1 0 0 I I #
coedge $-1 $235 $235 $-1 $336 reversed $148 $-1 #
edge $-1 $337 0 $337 6.2831853071796004 $149 $338 forward 7 unknown #
vertex $-1 $152 $339 #
ellipse-curve $-1 37.043231042501091 -24.420245289576958 7.1377086604903042 0 -0.64278761758704617 0.76604443648966558 1.5 0 0 1 I I #
coedge $-1 $239 $239 $-1 $340 reversed $155 $-1 #
edge $-1 $341 0 $341 6.2831853071796004 $156 $342 forward 7 unknown #
vertex $-1 $159 $343 #
ellipse-curve $-1 43.933415345556611 -24.420245289576958 7.1377086604903042 0 -0.64278761758704617 0.76604443648966558 1.5 0 0 1 I I #
face $-1 $-1 $175 $24 $-1 $344 reversed single #
loop $-1 $-1 $259 $160 #
plane-surface $-1 0 27.010334829141414 0 0 -1 0 0 0 -1 forward_v I I I I #
coedge $-1 $345 $257 $260 $346 forward $161 $-1 #
coedge $-1 $263 $163 $164 $251 reversed $101 $-1 #
coedge $-1 $257 $345 $163 $249 reversed $161 $-1 #
edge $-1 $264 -9.3110518833755549 $347 9.3110518833755549 $248 $348 forward 7 unknown #
coedge $-1 $165 $164 $345 $349 forward $65 $-1 #
edge $-1 $255 -48.526871547593615 $347 48.526871547593615 $247 $350 forward 7 unknown #
coedge $-1 $260 $259 $165 $253 reversed $244 $-1 #
edge $-1 $351 -48.526871547593615 $254 48.526871547593615 $252 $352 forward 7 unknown #
vertex $-1 $167 $353 #
vertex $-1 $266 $354 #
straight-curve $-1 48.526871547593615 0 -9.3110518833755549 0 -1 0 I I #
coedge $-1 $246 $248 $168 $258 reversed $161 $-1 #
edge $-1 $261 -27.010334829141414 $264 27.010334829141414 $257 $355 forward 7 unknown #
coedge $-1 $252 $169 $174 $267 forward $244 $-1 #
coedge $-1 $169 $252 $246 $346 reversed $244 $-1 #
vertex $-1 $170 $356 #
straight-curve $-1 0 27.010334829141414 9.3110518833755549 -1 0 0 I I #
coedge $-1 $171 $247 $173 $266 reversed $101 $-1 #
vertex $-1 $258 $357 #
straight-curve $-1 0 -27.010334829141414 9.3110518833755549 1 0 0 I I #
edge $-1 $176 -9.3110518833755549 $255 9.3110518833755549 $173 $358 forward 7 unknown #
edge $-1 $177 -9.3110518833755549 $254 9.3110518833755549 $174 $359 forward 7 unknown #
point $-1 48.526871547593615 -27.010334829141414 9.3110518833755549 #
point $-1 48.526871547593615 27.010334829141414 9.3110518833755549 #
face $-1 $-1 $280 $25 $-1 $360 reversed single #
loop $-1 $-1 $276 $179 #
plane-surface $-1 0 0 -9.3110518833755549 0 0 1 1 0 0 forward_v I I I I #
coedge $-1 $361 $362 $187 $284 forward $180 $-1 #
coedge $-1 $182 $288 $278 $363 forward $109 $-1 #
edge $-1 $282 -14.70365241398838 $192 -9.9097124163176886 $182 $364 forward 7 unknown #
coedge $-1 $365 $188 $183 $277 forward $271 $-1 #
edge $-1 $193 9.9097124163176886 $281 14.70365241398838 $276 $366 forward 7 unknown #
coedge $-1 $367 $185 $274 $363 reversed $280 $-1 #
coedge $-1 $185 $367 $365 $368 reversed $280 $-1 #
loop $-1 $-1 $185 $270 #
vertex $-1 $368 $369 #
vertex $-1 $186 $370 #
straight-curve $-1 -39.801330159707277 -27.010334829141414 0 0 0 1 I I #
edge $-1 $289 -9.3110518833755549 $286 9.3110518833755549 $273 $371 forward 7 unknown #
coedge $-1 $188 $365 $361 $372 forward $271 $-1 #
vertex $-1 $189 $373 #
straight-curve $-1 -22.082050426825223 -22.216394831470723 -9.3110518833755549 1 0 0 I I #
coedge $-1 $274 $190 $362 $374 forward $109 $-1 #
vertex $-1 $374 $375 #
straight-curve $-1 -22.082050426825223 -22.216394831470723 9.3110518833755549 -1 0 0 I I #
point $-1 -39.801330159707277 -22.216394831470723 9.3110518833755549 #
point $-1 -39.801330159707277 -22.216394831470723 -9.3110518833755549 #
plane-surface $-1 0 -27.010334829141414 0 0 1 0 0 0 1 forward_v I I I I #
coedge $-1 $376 $198 $203 $300 forward $117 $-1 #
coedge $-1 $198 $376 $297 $377 forward $117 $-1 #
edge $-1 $298 17.687304736459609 $305 22.867483815588521 $198 $378 forward 7 unknown #
coedge $-1 $207 $201 $295 $377 reversed $208 $-1 #
vertex $-1 $296 $379 #
straight-curve $-1 -23.724233452577757 -27.010334829141414 39.655922688085262 0 0 1 I I #
edge $-1 $305 7.8428425495064964 $303 23.919939256636024 $294 $380 forward 7 unknown #
coedge $-1 $302 $204 $207 $307 reversed $196 $-1 #
coedge $-1 $204 $301 $376 $381 reversed $196 $-1 #
vertex $-1 $381 $382 #
straight-curve $-1 -39.801330159707277 -27.529271370930374 4.5289259676652618 0 -0.76604443648966558 -0.64278761758704617 I I #
vertex $-1 $300 $383 #
straight-curve $-1 -23.724233452577757 -27.010334829141414 4.9643654376050534 0 -0.76604443648966558 -0.64278761758704617 I I #
edge $-1 $384 -9.3110518833755549 $209 -4.9643654376050534 $207 $385 forward 7 unknown #
point $-1 -39.801330159707277 -27.010334829141414 4.9643654376050534 #
point $-1 -23.724233452577757 -27.010334829141414 4.9643654376050534 #
edge $-1 $386 1 $386 0 $212 $-1 forward 7 unknown #
vertex $-1 $213 $387 #
ellipse-curve $-1 -35.207873957670273 -22.804497673910067 5.2121356751248067 0 -0.64278761758704617 0.76604443648966558 1.5 0 0 1 I I #
point $-1 -33.707873957670273 -24.420245289576958 7.1377086604903051 #
edge $-1 $388 1 $388 0 $216 $-1 forward 7 unknown #
vertex $-1 $217 $389 #
ellipse-curve $-1 -28.31768965461476 -22.804497673910067 5.2121356751248067 0 -0.64278761758704617 0.76604443648966558 1.5 0 0 1 I I #
point $-1 -26.81768965461476 -24.420245289576958 7.1377086604903051 #
loop $-1 $-1 $327 $220 #
plane-surface $-1 0 -27.010334829141414 0 0 1 0 0 0 1 forward_v I I I I #
coedge $-1 $321 $223 $231 $333 reversed $139 $-1 #
coedge $-1 $223 $320 $390 $391 forward $139 $-1 #
coedge $-1 $327 $392 $225 $323 forward $318 $-1 #
edge $-1 $325 30.344870804709707 $331 34.691557250480209 $322 $393 forward 7 unknown #
coedge $-1 $231 $226 $392 $394 forward $221 $-1 #
vertex $-1 $394 $395 #
straight-curve $-1 32.449774840464073 -44.697639565601023 9.3110518833755549 0 -1 0 I I #
coedge $-1 $390 $322 $228 $328 forward $318 $-1 #
edge $-1 $331 12.205613243449655 $329 28.282709950579182 $327 $396 forward 7 unknown #
vertex $-1 $229 $397 #
straight-curve $-1 48.526871547593615 -20.307413801090597 10.588784117856148 0 0.76604443648966558 0.64278761758704617 I I #
vertex $-1 $328 $398 #
straight-curve $-1 32.449774840464073 -27.010334829141414 4.9643654376050534 0 0.76604443648966558 0.64278761758704617 I I #
edge $-1 $399 -27.010334829141414 $232 -21.830155750012501 $320 $400 forward 7 unknown #
point $-1 48.526871547593601 -21.830155750012501 9.3110518833755549 #
point $-1 32.449774840464073 -21.830155750012501 9.3110518833755549 #
edge $-1 $401 1 $401 0 $235 $-1 forward 7 unknown #
vertex $-1 $236 $402 #
ellipse-curve $-1 37.043231042501091 -22.804497673910067 5.2121356751248067 0 -0.64278761758704617 0.76604443648966558 1.5 0 0 1 I I #
point $-1 38.543231042501091 -24.420245289576958 7.1377086604903051 #
edge $-1 $403 1 $403 0 $239 $-1 forward 7 unknown #
vertex $-1 $240 $404 #
ellipse-curve $-1 43.933415345556611 -22.804497673910067 5.2121356751248067 0 -0.64278761758704617 0.76604443648966558 1.5 0 0 1 I I #
point $-1 45.433415345556611 -24.420245289576958 7.1377086604903051 #
plane-surface $-1 48.526871547593615 0 0 -1 0 0 0 0 1 forward_v I I I I #
coedge $-1 $248 $246 $250 $349 reversed $161 $-1 #
edge $-1 $261 -9.3110518833755549 $351 9.3110518833755549 $260 $405 forward 7 unknown #
vertex $-1 $349 $406 #
straight-curve $-1 -48.526871547593615 -27.010334829141414 0 0 0 -1 I I #
edge $-1 $347 -27.010334829141414 $351 27.010334829141414 $345 $407 forward 7 unknown #
straight-curve $-1 0 -27.010334829141414 -9.3110518833755549 -1 0 0 I I #
vertex $-1 $253 $408 #
straight-curve $-1 0 27.010334829141414 -9.3110518833755549 1 0 0 I I #
point $-1 48.526871547593615 27.010334829141414 -9.3110518833755549 #
point $-1 48.526871547593615 -27.010334829141414 -9.3110518833755549 #
straight-curve $-1 -48.526871547593615 0 9.3110518833755549 0 -1 0 I I #
point $-1 -48.526871547593615 27.010334829141414 9.3110518833755549 #
point $-1 -48.526871547593615 -27.010334829141414 9.3110518833755549 #
straight-curve $-1 48.526871547593615 -27.010334829141414 0 0 0 -1 I I #
straight-curve $-1 48.526871547593615 27.010334829141414 0 0 0 -1 I I #
plane-surface $-1 0 -27.010334829141414 0 0 1 0 0 0 1 forward_v I I I I #
coedge $-1 $409 $273 $285 $372 reversed $180 $-1 #
coedge $-1 $273 $409 $288 $374 reversed $180 $-1 #
edge $-1 $410 -48.526871547593615 $282 -39.801330159707277 $278 $411 forward 7 unknown #
straight-curve $-1 -39.801330159707277 -12.306682415153034 9.3110518833755549 0 1 0 I I #
coedge $-1 $285 $276 $279 $368 forward $271 $-1 #
straight-curve $-1 -39.801330159707277 -12.306682415153034 -9.3110518833755549 0 -1 0 I I #
coedge $-1 $279 $278 $409 $412 forward $280 $-1 #
edge $-1 $281 39.801330159707277 $413 48.526871547593615 $279 $414 forward 7 unknown #
point $-1 -39.801330159707277 -27.010334829141414 -9.3110518833755549 #
point $-1 -39.801330159707277 -27.010334829141414 9.3110518833755549 #
straight-curve $-1 -48.526871547593615 -22.216394831470723 0 0 0 -1 I I #
edge $-1 $413 -27.010334829141414 $286 -22.216394831470723 $361 $415 forward 7 unknown #
point $-1 -48.526871547593615 -22.216394831470723 -9.3110518833755549 #
edge $-1 $289 22.216394831470723 $410 27.010334829141414 $362 $416 forward 7 unknown #
point $-1 -48.526871547593615 -22.216394831470723 9.3110518833755549 #
coedge $-1 $295 $294 $302 $381 forward $117 $-1 #
edge $-1 $384 -39.801330159707277 $298 -23.724233452577757 $297 $417 forward 7 unknown #
straight-curve $-1 -23.724233452577757 -44.697639565601023 9.3110518833755549 0 1 0 I I #
point $-1 -23.724233452577757 -27.010334829141414 9.3110518833755549 #
straight-curve $-1 -15.88139090307126 -21.830155750012501 9.3110518833755549 -1 0 0 I I #
edge $-1 $303 -22.867483815588521 $384 -17.687304736459609 $376 $418 forward 7 unknown #
point $-1 -39.801330159707284 -21.830155750012501 9.3110518833755549 #
point $-1 -23.724233452577757 -21.830155750012501 9.3110518833755549 #
vertex $-1 $377 $419 #
straight-curve $-1 -39.801330159707277 -27.010334829141414 0 0 0 -1 I I #
vertex $-1 $310 $420 #
point $-1 -33.707873957670273 -22.804497673910067 5.2121356751248067 #
vertex $-1 $314 $421 #
point $-1 -26.81768965461476 -22.804497673910067 5.2121356751248067 #
coedge $-1 $392 $327 $321 $391 reversed $318 $-1 #
edge $-1 $399 -9.3110518833755549 $329 -4.9643654376050534 $321 $422 forward 7 unknown #
coedge $-1 $322 $390 $324 $394 reversed $318 $-1 #
straight-curve $-1 32.449774840464073 -27.010334829141414 39.655922688085262 0 0 -1 I I #
edge $-1 $325 32.449774840464073 $399 48.526871547593615 $392 $423 forward 7 unknown #
point $-1 32.449774840464073 -27.010334829141414 9.3110518833755549 #
straight-curve $-1 20.244161597014418 -27.010334829141414 4.9643654376050534 1 0 0 I I #
point $-1 48.526871547593601 -27.010334829141414 4.9643654376050534 #
point $-1 32.449774840464073 -27.010334829141414 4.9643654376050534 #
vertex $-1 $333 $424 #
straight-curve $-1 48.526871547593615 0 9.3110518833755549 0 1 0 I I #
vertex $-1 $336 $425 #
point $-1 38.543231042501091 -22.804497673910067 5.2121356751248067 #
vertex $-1 $340 $426 #
point $-1 45.433415345556611 -22.804497673910067 5.2121356751248067 #
straight-curve $-1 -48.526871547593615 27.010334829141414 0 0 0 -1 I I #
point $-1 -48.526871547593615 -27.010334829141414 -9.3110518833755549 #
straight-curve $-1 -48.526871547593615 0 -9.3110518833755549 0 1 0 I I #
point $-1 -48.526871547593615 27.010334829141414 -9.3110518833755549 #
coedge $-1 $362 $361 $367 $412 reversed $180 $-1 #
vertex $-1 $374 $427 #
straight-curve $-1 0 -27.010334829141414 9.3110518833755549 1 0 0 I I #
edge $-1 $410 -9.3110518833755549 $413 9.3110518833755549 $409 $428 forward 7 unknown #
vertex $-1 $372 $429 #
straight-curve $-1 0 -27.010334829141414 -9.3110518833755549 -1 0 0 I I #
straight-curve $-1 -48.526871547593615 0 -9.3110518833755549 0 1 0 I I #
straight-curve $-1 -48.526871547593615 0 9.3110518833755549 0 -1 0 I I #
straight-curve $-1 0 -27.010334829141414 9.3110518833755549 1 0 0 I I #
straight-curve $-1 -39.801330159707284 -44.697639565601023 9.3110518833755549 0 -1 0 I I #
point $-1 -39.801330159707277 -27.010334829141414 9.3110518833755549 #
point $-1 -35.207873957670273 -21.840316247529497 4.0630690203903077 #
point $-1 -28.31768965461476 -21.840316247529497 4.0630690203903077 #
straight-curve $-1 48.526871547593615 -27.010334829141414 0 0 0 -1 I I #
straight-curve $-1 0 -27.010334829141414 9.3110518833755549 1 0 0 I I #
point $-1 48.526871547593615 -27.010334829141414 9.3110518833755549 #
point $-1 37.043231042501091 -21.840316247529497 4.0630690203903077 #
point $-1 43.933415345556611 -21.840316247529497 4.0630690203903077 #
point $-1 -48.526871547593615 -27.010334829141414 9.3110518833755549 #
straight-curve $-1 -48.526871547593615 -27.010334829141414 0 0 0 -1 I I #
point $-1 -48.526871547593615 -27.010334829141414 -9.3110518833755549 #
End-of-ACIS-data 