500 0 9 0           
7 Unknown 11 ACIS 5.0 NT 24 Fri Mar 26 19:51:58 1999 
-1 9.9999999999999995e-007 1e-010 
body $-1 $9 $-1 $10 #
body $-1 $11 $-1 $12 #
body $-1 $13 $-1 $14 #
body $-1 $15 $-1 $16 #
body $-1 $17 $-1 $18 #
body $-1 $19 $-1 $20 #
body $-1 $21 $-1 $22 #
body $-1 $23 $-1 $24 #
body $-1 $25 $-1 $26 #
lump $-1 $-1 $27 $0 #
transform $-1 1 0 0 0 1 0 0 0 1 57.854548783837402 25.629245531378224 11.352519165365454 1 rotate no_reflect no_shear #
lump $-1 $-1 $28 $1 #
transform $-1 1 0 0 0 1 0 0 0 1 57.854548783837402 25.629245531378224 11.352519165365454 1 rotate no_reflect no_shear #
lump $-1 $-1 $29 $2 #
transform $-1 1 0 0 0 1 0 0 0 1 57.854548783837402 25.629245531378224 11.352519165365454 1 rotate no_reflect no_shear #
lump $-1 $-1 $30 $3 #
transform $-1 1 0 0 0 1 0 0 0 1 57.854548783837402 25.629245531378224 11.352519165365454 1 rotate no_reflect no_shear #
lump $-1 $-1 $31 $4 #
transform $-1 1 0 0 0 1 0 0 0 1 57.854548783837402 25.629245531378224 11.352519165365454 1 rotate no_reflect no_shear #
lump $-1 $-1 $32 $5 #
transform $-1 1 0 0 0 1 0 0 0 1 57.854548783837402 25.629245531378224 11.352519165365454 1 rotate no_reflect no_shear #
lump $-1 $-1 $33 $6 #
transform $-1 1 0 0 0 1 0 0 0 1 57.854548783837402 25.629245531378224 11.352519165365454 1 rotate no_reflect no_shear #
lump $-1 $-1 $34 $7 #
transform $-1 1 0 0 0 1 0 0 0 1 57.854548783837402 25.629245531378224 11.352519165365454 1 rotate no_reflect no_shear #
lump $-1 $-1 $35 $8 #
transform $-1 1 0 0 0 1 0 0 0 1 57.854548783837402 25.629245531378224 11.352519165365454 1 rotate no_reflect no_shear #
shell $-1 $-1 $-1 $36 $-1 $9 #
shell $-1 $-1 $-1 $37 $-1 $11 #
shell $-1 $-1 $-1 $38 $-1 $13 #
shell $-1 $-1 $-1 $39 $-1 $15 #
shell $-1 $-1 $-1 $40 $-1 $17 #
shell $-1 $-1 $-1 $41 $-1 $19 #
shell $-1 $-1 $-1 $42 $-1 $21 #
shell $-1 $-1 $-1 $43 $-1 $23 #
shell $-1 $-1 $-1 $44 $-1 $25 #
face $-1 $45 $46 $27 $-1 $47 forward single #
face $-1 $48 $49 $28 $-1 $50 forward single #
face $-1 $51 $52 $29 $-1 $53 forward single #
face $-1 $54 $55 $30 $-1 $56 reversed single #
face $-1 $57 $58 $31 $-1 $59 forward single #
face $-1 $60 $61 $32 $-1 $62 reversed single #
face $-1 $63 $64 $33 $-1 $65 forward single #
face $-1 $66 $67 $34 $-1 $68 forward single #
face $-1 $69 $70 $35 $-1 $71 forward single #
face $-1 $72 $73 $27 $-1 $74 reversed single #
loop $-1 $-1 $75 $36 #
plane-surface $-1 0 0 11.352519165365454 0 0 1 1 0 0 forward_v I I I I #
face $-1 $76 $77 $28 $-1 $78 reversed single #
loop $-1 $-1 $79 $37 #
plane-surface $-1 0 -20.766000522011023 10.5003950340591 0 0 1 1 0 0 forward_v I I I I #
face $-1 $80 $81 $29 $-1 $82 reversed single #
loop $-1 $-1 $83 $38 #
plane-surface $-1 0 25.629245531378224 0 0 -1 0 0 0 -1 forward_v I I I I #
face $-1 $84 $85 $30 $-1 $86 reversed single #
loop $-1 $-1 $87 $39 #
plane-surface $-1 52.143688565293729 4.4674905219999665 169.3742843149017 0 1 0 0.68199836817093118 0 0.7313536940579346 forward_v I I I I #
face $-1 $88 $89 $31 $-1 $90 forward single #
loop $-1 $91 $92 $40 #
cone-surface $-1 53.825658271012472 7.9057913334130987 7.4456875733575387 -0.68199836817093118 0 -0.7313536940579346 0.7313536940579346 0 -0.68199836817093118 1 I I 0 1 1 forward I I I I #
face $-1 $93 $94 $32 $-1 $95 reversed single #
loop $-1 $-1 $96 $41 #
plane-surface $-1 -153.78173908811641 3.655977166808615 71.042463168303016 0 1 0 -0.82903758062907751 0 0.55919289150049634 forward_v I I I I #
face $-1 $97 $98 $33 $-1 $99 forward single #
loop $-1 $100 $101 $42 #
cone-surface $-1 -55.749117852581406 5.1936001624121424 8.5660423001934234 0.82903758062907751 0 -0.55919289150049634 0.27959644575024817 0 0.41451879031453875 1 I I 0 1 0.5 forward I I I I #
face $-1 $102 $103 $34 $-1 $104 forward single #
loop $-1 $105 $106 $43 #
cone-surface $-1 -55.749117852581406 7.5000346558174229 8.5660423001934234 0.82903758062907751 0 -0.55919289150049634 0.27959644575024817 0 0.41451879031453875 1 I I 0 1 0.5 forward I I I I #
face $-1 $107 $108 $35 $-1 $109 forward single #
loop $-1 $110 $111 $44 #
cone-surface $-1 -55.749117852581406 9.806469149222707 8.5660423001934234 0.82903758062907751 0 -0.55919289150049634 0.27959644575024817 0 0.41451879031453875 1 I I 0 1 0.5 forward I I I I #
face $-1 $112 $113 $27 $-1 $114 reversed single #
loop $-1 $-1 $115 $45 #
plane-surface $-1 0 0 -11.352519165365454 0 0 1 1 0 0 forward_v I I I I #
coedge $-1 $116 $117 $118 $119 forward $46 $-1 #
face $-1 $120 $121 $28 $-1 $122 reversed single #
loop $-1 $-1 $123 $48 #
plane-surface $-1 0 -20.766000522011023 4.2877083929415072 0 0 1 1 0 0 forward_v I I I I #
coedge $-1 $124 $125 $126 $127 reversed $49 $-1 #
face $-1 $128 $129 $29 $-1 $130 forward single #
loop $-1 $-1 $131 $51 #
plane-surface $-1 -57.854548783837402 0 0 1 0 0 0 0 -1 forward_v I I I I #
coedge $-1 $132 $133 $134 $135 forward $52 $-1 #
face $-1 $136 $137 $30 $-1 $138 reversed single #
loop $-1 $-1 $139 $54 #
plane-surface $-1 -26.769727158391547 7.9057913334130987 84.750008372672752 0.68199836817093118 0 0.7313536940579346 0.7313536940579346 0 -0.68199836817093118 forward_v I I I I #
coedge $-1 $140 $141 $142 $143 reversed $55 $-1 #
face $-1 $-1 $144 $31 $-1 $145 forward single #
loop $-1 $146 $147 $57 #
cone-surface $-1 52.413322009841451 7.9057913334130987 5.9311423925096669 -0.68199836817093118 0 -0.7313536940579346 0.3656768470289673 0 -0.34099918408546559 1 I I -0.70710678118654746 0.70710678118654746 0.5 forward I I I I #
loop $-1 $-1 $148 $40 #
coedge $-1 $92 $92 $149 $150 reversed $58 $-1 #
face $-1 $151 $152 $32 $-1 $153 reversed single #
loop $-1 $-1 $154 $60 #
plane-surface $-1 -57.854548783837416 7.5000346558174229 6.3387583265218979 -0.82903758062907751 0 0.55919289150049634 0.55919289150049634 0 0.82903758062907751 forward_v I I I I #
coedge $-1 $155 $156 $157 $158 reversed $61 $-1 #
face $-1 $-1 $159 $33 $-1 $160 forward single #
loop $-1 $161 $162 $63 #
cone-surface $-1 -55.127339667109595 5.1936001624121424 8.1466476315680509 0.82903758062907751 0 -0.55919289150049634 0.13979822287512408 0 0.20725939515726938 1 I I -0.70710678118654746 0.70710678118654746 0.25 forward I I I I #
loop $-1 $-1 $163 $42 #
coedge $-1 $101 $101 $164 $165 reversed $64 $-1 #
face $-1 $-1 $166 $34 $-1 $167 forward single #
loop $-1 $168 $169 $66 #
cone-surface $-1 -55.127339667109595 7.5000346558174229 8.1466476315680509 0.82903758062907751 0 -0.55919289150049634 0.13979822287512408 0 0.20725939515726938 1 I I -0.70710678118654746 0.70710678118654746 0.25 forward I I I I #
loop $-1 $-1 $170 $43 #
coedge $-1 $106 $106 $171 $172 reversed $67 $-1 #
face $-1 $-1 $173 $35 $-1 $174 forward single #
loop $-1 $175 $176 $69 #
cone-surface $-1 -55.127339667109595 9.806469149222707 8.1466476315680509 0.82903758062907751 0 -0.55919289150049634 0.13979822287512408 0 0.20725939515726938 1 I I -0.70710678118654746 0.70710678118654746 0.25 forward I I I I #
loop $-1 $-1 $177 $44 #
coedge $-1 $111 $111 $178 $179 reversed $70 $-1 #
face $-1 $180 $181 $27 $-1 $182 reversed single #
loop $-1 $-1 $183 $72 #
plane-surface $-1 0 -25.629245531378224 0 0 1 0 0 0 1 forward_v I I I I #
coedge $-1 $184 $185 $186 $187 forward $73 $-1 #
coedge $-1 $188 $75 $189 $190 forward $46 $-1 #
coedge $-1 $75 $188 $191 $192 forward $46 $-1 #
coedge $-1 $193 $194 $75 $119 reversed $195 $-1 #
edge $-1 $196 -25.629245531378224 $197 25.629245531378224 $118 $198 forward 7 unknown #
face $-1 $199 $200 $28 $-1 $201 reversed single #
loop $-1 $-1 $202 $76 #
plane-surface $-1 0 -15.902755512643822 7.3940517135003034 0 -1 0 0 0 -1 forward_v I I I I #
coedge $-1 $203 $204 $205 $206 reversed $77 $-1 #
coedge $-1 $207 $79 $208 $209 forward $49 $-1 #
coedge $-1 $79 $207 $210 $211 reversed $49 $-1 #
coedge $-1 $212 $213 $79 $127 forward $214 $-1 #
edge $-1 $215 5.5197552516383102 $216 15.246245270372713 $126 $217 forward 7 unknown #
face $-1 $218 $219 $29 $-1 $220 reversed single #
loop $-1 $-1 $221 $80 #
plane-surface $-1 0 32.771822224654223 -7.8720315701804111 0 0 1 1 0 0 forward_v I I I I #
coedge $-1 $222 $223 $132 $224 forward $81 $-1 #
coedge $-1 $225 $83 $131 $224 reversed $52 $-1 #
coedge $-1 $83 $225 $226 $227 reversed $52 $-1 #
coedge $-1 $221 $228 $83 $135 reversed $129 $-1 #
edge $-1 $229 -57.854548783837402 $230 57.854548783837402 $134 $231 forward 7 unknown #
face $-1 $232 $233 $30 $-1 $234 forward single #
loop $-1 $-1 $235 $84 #
plane-surface $-1 52.143688565293729 11.344092144826231 169.3742843149017 0 -1 0 -0.68199836817093118 0 -0.7313536940579346 forward_v I I I I #
coedge $-1 $236 $237 $238 $239 reversed $85 $-1 #
coedge $-1 $141 $87 $240 $241 reversed $55 $-1 #
coedge $-1 $87 $140 $236 $242 reversed $55 $-1 #
coedge $-1 $238 $243 $87 $143 forward $244 $-1 #
edge $-1 $245 73.3346229920854 $246 78.850549508463388 $142 $247 forward 7 unknown #
loop $-1 $-1 $149 $88 #
plane-surface $-1 -26.769727158391547 7.9057913334130987 84.750008372672752 0.68199836817093118 0 0.7313536940579346 0.7313536940579346 0 -0.68199836817093118 forward_v I I I I #
loop $-1 $-1 $248 $57 #
coedge $-1 $147 $147 $148 $249 reversed $89 $-1 #
coedge $-1 $148 $148 $147 $249 forward $91 $-1 #
coedge $-1 $149 $149 $92 $150 forward $144 $-1 #
edge $-1 $250 0 $250 6.2831853071796004 $149 $251 forward 7 unknown #
face $-1 $252 $253 $32 $-1 $254 reversed single #
loop $-1 $-1 $255 $93 #
plane-surface $-1 -153.78173908811641 11.344092144826231 71.042463168303016 0 -1 0 0.82903758062907751 0 -0.55919289150049634 forward_v I I I I #
coedge $-1 $256 $257 $258 $259 reversed $94 $-1 #
coedge $-1 $156 $96 $260 $261 reversed $61 $-1 #
coedge $-1 $96 $155 $256 $262 reversed $61 $-1 #
coedge $-1 $258 $263 $96 $158 forward $264 $-1 #
edge $-1 $265 19.036320760220804 $266 22.41814504210371 $157 $267 forward 7 unknown #
loop $-1 $-1 $164 $97 #
plane-surface $-1 -57.854548783837416 7.5000346558174229 6.3387583265218979 -0.82903758062907751 0 0.55919289150049634 0.55919289150049634 0 0.82903758062907751 forward_v I I I I #
loop $-1 $-1 $268 $63 #
coedge $-1 $162 $162 $163 $269 reversed $98 $-1 #
coedge $-1 $163 $163 $162 $269 forward $100 $-1 #
coedge $-1 $164 $164 $101 $165 forward $159 $-1 #
edge $-1 $270 0 $270 6.2831853071796004 $164 $271 forward 7 unknown #
loop $-1 $-1 $171 $102 #
plane-surface $-1 -57.854548783837416 7.5000346558174229 6.3387583265218979 -0.82903758062907751 0 0.55919289150049634 0.55919289150049634 0 0.82903758062907751 forward_v I I I I #
loop $-1 $-1 $272 $66 #
coedge $-1 $169 $169 $170 $273 reversed $103 $-1 #
coedge $-1 $170 $170 $169 $273 forward $105 $-1 #
coedge $-1 $171 $171 $106 $172 forward $166 $-1 #
edge $-1 $274 0 $274 6.2831853071796004 $171 $275 forward 7 unknown #
loop $-1 $-1 $178 $107 #
plane-surface $-1 -57.854548783837416 7.5000346558174229 6.3387583265218979 -0.82903758062907751 0 0.55919289150049634 0.55919289150049634 0 0.82903758062907751 forward_v I I I I #
loop $-1 $-1 $276 $69 #
coedge $-1 $176 $176 $177 $277 reversed $108 $-1 #
coedge $-1 $177 $177 $176 $277 forward $110 $-1 #
coedge $-1 $178 $178 $111 $179 forward $173 $-1 #
edge $-1 $278 0 $278 6.2831853071796004 $178 $279 forward 7 unknown #
face $-1 $280 $281 $27 $-1 $282 reversed single #
loop $-1 $-1 $283 $112 #
plane-surface $-1 -57.854548783837402 0 0 1 0 0 0 0 -1 forward_v I I I I #
coedge $-1 $284 $191 $285 $286 forward $113 $-1 #
coedge $-1 $287 $115 $284 $288 forward $73 $-1 #
coedge $-1 $115 $287 $289 $290 forward $73 $-1 #
coedge $-1 $194 $193 $115 $187 reversed $195 $-1 #
edge $-1 $291 -25.629245531378224 $292 25.629245531378224 $186 $293 forward 7 unknown #
coedge $-1 $117 $116 $294 $295 forward $46 $-1 #
coedge $-1 $296 $297 $116 $190 reversed $281 $-1 #
edge $-1 $197 -57.854548783837402 $298 57.854548783837402 $189 $299 forward 7 unknown #
coedge $-1 $183 $300 $117 $192 reversed $113 $-1 #
edge $-1 $301 -57.854548783837402 $196 57.854548783837402 $191 $302 forward 7 unknown #
coedge $-1 $186 $118 $300 $303 forward $195 $-1 #
coedge $-1 $118 $186 $296 $304 reversed $195 $-1 #
loop $-1 $-1 $193 $280 #
vertex $-1 $119 $305 #
vertex $-1 $119 $306 #
straight-curve $-1 57.854548783837402 0 11.352519165365454 0 1 0 I I #
face $-1 $307 $308 $28 $-1 $309 reversed single #
loop $-1 $-1 $310 $120 #
plane-surface $-1 -57.854548783837402 0 0 1 0 0 0 0 -1 forward_v I I I I #
coedge $-1 $311 $208 $213 $312 reversed $121 $-1 #
coedge $-1 $313 $123 $314 $315 reversed $77 $-1 #
coedge $-1 $123 $313 $311 $316 forward $77 $-1 #
coedge $-1 $213 $212 $123 $206 forward $214 $-1 #
edge $-1 $317 -15.246245270372713 $318 -5.5197552516383102 $205 $319 forward 7 unknown #
coedge $-1 $125 $124 $310 $320 reversed $49 $-1 #
coedge $-1 $202 $321 $124 $209 reversed $121 $-1 #
edge $-1 $215 -57.854548783837402 $322 57.854548783837402 $208 $323 forward 7 unknown #
coedge $-1 $324 $325 $125 $211 forward $308 $-1 #
edge $-1 $216 -57.854548783837402 $326 57.854548783837402 $210 $327 forward 7 unknown #
coedge $-1 $205 $126 $325 $328 forward $214 $-1 #
coedge $-1 $126 $205 $202 $312 forward $214 $-1 #
loop $-1 $-1 $126 $307 #
vertex $-1 $127 $329 #
vertex $-1 $328 $330 #
straight-curve $-1 57.854548783837402 -10.383000261005511 10.5003950340591 0 -1 0 I I #
face $-1 $331 $332 $29 $-1 $333 reversed single #
loop $-1 $-1 $334 $128 #
plane-surface $-1 0 39.914398917930221 -9.6122753677729325 0 -1 0 0 0 -1 forward_v I I I I #
coedge $-1 $335 $134 $336 $337 forward $129 $-1 #
coedge $-1 $338 $131 $228 $339 reversed $81 $-1 #
coedge $-1 $131 $338 $340 $341 reversed $81 $-1 #
edge $-1 $342 -11.352519165365454 $230 -7.8720315701804111 $131 $343 forward 7 unknown #
coedge $-1 $133 $132 $344 $345 reversed $52 $-1 #
coedge $-1 $346 $336 $133 $227 forward $332 $-1 #
edge $-1 $229 7.8720315701804111 $347 11.352519165365454 $226 $348 forward 7 unknown #
coedge $-1 $134 $335 $222 $339 forward $129 $-1 #
vertex $-1 $227 $349 #
vertex $-1 $339 $350 #
straight-curve $-1 0 25.629245531378224 -7.8720315701804111 -1 0 0 I I #
face $-1 $-1 $244 $30 $-1 $351 reversed single #
loop $-1 $-1 $352 $136 #
plane-surface $-1 0 0 11.352519165365454 0 0 1 1 0 0 forward_v I I I I #
coedge $-1 $353 $354 $355 $356 reversed $137 $-1 #
coedge $-1 $357 $139 $141 $242 forward $85 $-1 #
coedge $-1 $139 $357 $353 $358 forward $85 $-1 #
coedge $-1 $355 $142 $139 $239 forward $244 $-1 #
edge $-1 $246 0.5145948552934172 $359 7.3911964781196815 $238 $360 forward 7 unknown #
coedge $-1 $361 $362 $140 $241 forward $233 $-1 #
edge $-1 $363 25.86759762971181 $245 31.782704501190537 $240 $364 forward 7 unknown #
edge $-1 $246 -115.70909756767482 $363 -107.62120942335082 $141 $365 forward 7 unknown #
coedge $-1 $142 $355 $361 $366 reversed $244 $-1 #
loop $-1 $-1 $355 $232 #
vertex $-1 $366 $367 #
vertex $-1 $143 $368 #
straight-curve $-1 57.854548783837402 4.4674905219999665 84.68714215745085 0 0 -1 I I #
coedge $-1 $248 $248 $-1 $369 reversed $146 $-1 #
edge $-1 $370 0 $370 6.2831853071796004 $147 $371 forward 7 unknown #
vertex $-1 $150 $372 #
ellipse-curve $-1 54.896995348098038 7.9057913334130987 8.5945559071764581 0.68199836817093118 0 0.7313536940579346 0.7313536940579346 0 -0.68199836817093118 1 I I #
face $-1 $-1 $264 $32 $-1 $373 forward single #
loop $-1 $-1 $374 $151 #
plane-surface $-1 -57.854548783837402 0 0 1 0 0 0 0 -1 forward_v I I I I #
coedge $-1 $375 $376 $377 $378 reversed $152 $-1 #
coedge $-1 $379 $154 $156 $262 forward $94 $-1 #
coedge $-1 $154 $379 $375 $380 forward $94 $-1 #
coedge $-1 $377 $157 $154 $259 forward $264 $-1 #
edge $-1 $266 -0.094040161100096498 $381 7.5940748169175194 $258 $382 forward 7 unknown #
coedge $-1 $383 $384 $155 $261 forward $253 $-1 #
edge $-1 $385 -29.182473257629589 $265 -24.168712418786054 $260 $386 forward 7 unknown #
edge $-1 $266 -6.0476882544203754 $385 -2.5618607856530852e-014 $156 $387 forward 7 unknown #
coedge $-1 $157 $377 $383 $388 forward $264 $-1 #
loop $-1 $-1 $377 $252 #
vertex $-1 $261 $389 #
vertex $-1 $158 $390 #
straight-curve $-1 -76.890869544058205 3.655977166808615 11.352519165365454 1 0 0 I I #
coedge $-1 $268 $268 $-1 $391 reversed $161 $-1 #
edge $-1 $392 0 $392 6.2831853071796004 $162 $393 forward 7 unknown #
vertex $-1 $165 $394 #
ellipse-curve $-1 -56.163636642895952 5.1936001624121424 8.8456387459436776 -0.82903758062907751 0 0.55919289150049634 0.27959644575024817 0 0.41451879031453875 1 I I #
coedge $-1 $272 $272 $-1 $395 reversed $168 $-1 #
edge $-1 $396 0 $396 6.2831853071796004 $169 $397 forward 7 unknown #
vertex $-1 $172 $398 #
ellipse-curve $-1 -56.163636642895952 7.5000346558174229 8.8456387459436776 -0.82903758062907751 0 0.55919289150049634 0.27959644575024817 0 0.41451879031453875 1 I I #
coedge $-1 $276 $276 $-1 $399 reversed $175 $-1 #
edge $-1 $400 0 $400 6.2831853071796004 $176 $401 forward 7 unknown #
vertex $-1 $179 $402 #
ellipse-curve $-1 -56.163636642895952 9.806469149222707 8.8456387459436776 -0.82903758062907751 0 0.55919289150049634 0.27959644575024817 0 0.41451879031453875 1 I I #
face $-1 $-1 $195 $27 $-1 $403 reversed single #
loop $-1 $-1 $297 $180 #
plane-surface $-1 0 25.629245531378224 0 0 -1 0 0 0 -1 forward_v I I I I #
coedge $-1 $404 $294 $297 $405 forward $181 $-1 #
coedge $-1 $300 $183 $184 $288 reversed $113 $-1 #
coedge $-1 $294 $404 $183 $286 reversed $181 $-1 #
edge $-1 $301 -11.352519165365454 $406 11.352519165365454 $285 $407 forward 7 unknown #
coedge $-1 $185 $184 $404 $408 forward $73 $-1 #
edge $-1 $292 -57.854548783837402 $406 57.854548783837402 $284 $409 forward 7 unknown #
coedge $-1 $297 $296 $185 $290 reversed $281 $-1 #
edge $-1 $410 -57.854548783837402 $291 57.854548783837402 $289 $411 forward 7 unknown #
vertex $-1 $187 $412 #
vertex $-1 $303 $413 #
straight-curve $-1 57.854548783837402 0 -11.352519165365454 0 -1 0 I I #
coedge $-1 $283 $285 $188 $295 reversed $181 $-1 #
edge $-1 $298 -25.629245531378224 $301 25.629245531378224 $294 $414 forward 7 unknown #
coedge $-1 $289 $189 $194 $304 forward $281 $-1 #
coedge $-1 $189 $289 $283 $405 reversed $281 $-1 #
vertex $-1 $190 $415 #
straight-curve $-1 0 25.629245531378224 11.352519165365454 -1 0 0 I I #
coedge $-1 $191 $284 $193 $303 reversed $113 $-1 #
vertex $-1 $295 $416 #
straight-curve $-1 0 -25.629245531378224 11.352519165365454 1 0 0 I I #
edge $-1 $196 -11.352519165365454 $292 11.352519165365454 $193 $417 forward 7 unknown #
edge $-1 $197 -11.352519165365454 $291 11.352519165365454 $194 $418 forward 7 unknown #
point $-1 57.854548783837402 -25.629245531378224 11.352519165365454 #
point $-1 57.854548783837402 25.629245531378224 11.352519165365454 #
face $-1 $-1 $214 $28 $-1 $419 reversed single #
loop $-1 $-1 $210 $199 #
plane-surface $-1 0 -25.629245531378224 0 0 1 0 0 0 1 forward_v I I I I #
coedge $-1 $420 $421 $207 $320 forward $200 $-1 #
coedge $-1 $321 $202 $204 $316 reversed $121 $-1 #
edge $-1 $318 0.59068253619135547 $215 6.803369177308948 $213 $422 forward 7 unknown #
coedge $-1 $204 $203 $423 $424 reversed $77 $-1 #
coedge $-1 $325 $324 $203 $315 forward $308 $-1 #
edge $-1 $425 -57.854548783837402 $317 57.854548783837402 $314 $426 forward 7 unknown #
edge $-1 $427 -57.854548783837402 $318 57.854548783837402 $311 $428 forward 7 unknown #
vertex $-1 $315 $429 #
vertex $-1 $206 $430 #
straight-curve $-1 57.854548783837402 -10.383000261005511 4.2877083929415072 0 1 0 I I #
edge $-1 $326 -15.246245270372713 $322 -5.5197552516383102 $310 $431 forward 7 unknown #
coedge $-1 $208 $311 $420 $432 reversed $121 $-1 #
vertex $-1 $320 $433 #
straight-curve $-1 0 -15.902755512643822 10.5003950340591 -1 0 0 I I #
coedge $-1 $314 $210 $421 $434 forward $308 $-1 #
coedge $-1 $210 $314 $212 $328 reversed $308 $-1 #
vertex $-1 $434 $435 #
straight-curve $-1 0 -25.629245531378224 10.5003950340591 -1 0 0 I I #
edge $-1 $216 -10.5003950340591 $317 -4.2877083929415072 $212 $436 forward 7 unknown #
point $-1 57.854548783837402 -15.902755512643822 10.5003950340591 #
point $-1 57.854548783837402 -25.629245531378224 10.5003950340591 #
face $-1 $-1 $437 $29 $-1 $438 reversed single #
loop $-1 $-1 $226 $218 #
plane-surface $-1 57.854548783837402 0 0 -1 0 0 0 0 1 forward_v I I I I #
coedge $-1 $439 $440 $441 $442 forward $219 $-1 #
coedge $-1 $228 $221 $440 $443 forward $129 $-1 #
coedge $-1 $226 $441 $221 $337 reversed $332 $-1 #
edge $-1 $229 -7.1425766932759984 $444 7.1425766932759984 $336 $445 forward 7 unknown #
coedge $-1 $223 $222 $446 $447 forward $81 $-1 #
edge $-1 $448 -7.1425766932759984 $230 7.1425766932759984 $222 $449 forward 7 unknown #
coedge $-1 $450 $344 $223 $341 forward $437 $-1 #
edge $-1 $342 -7.1425766932759984 $451 7.1425766932759984 $223 $452 forward 7 unknown #
vertex $-1 $341 $453 #
straight-curve $-1 -57.854548783837402 25.629245531378224 0 0 0 1 I I #
coedge $-1 $340 $454 $225 $345 forward $437 $-1 #
edge $-1 $347 -57.854548783837402 $342 57.854548783837402 $344 $455 forward 7 unknown #
coedge $-1 $441 $226 $454 $456 reversed $332 $-1 #
vertex $-1 $227 $457 #
straight-curve $-1 57.854548783837402 25.629245531378224 0 0 0 -1 I I #
point $-1 57.854548783837402 25.629245531378224 -7.8720315701804111 #
point $-1 -57.854548783837402 25.629245531378224 -7.8720315701804111 #
plane-surface $-1 57.854548783837402 0 0 -1 0 0 0 0 1 forward_v I I I I #
coedge $-1 $362 $361 $354 $458 forward $233 $-1 #
coedge $-1 $354 $235 $237 $358 reversed $137 $-1 #
coedge $-1 $235 $353 $352 $458 reversed $137 $-1 #
coedge $-1 $243 $238 $235 $356 forward $244 $-1 #
edge $-1 $359 -78.850549508463388 $459 -73.3346229920854 $355 $460 forward 7 unknown #
coedge $-1 $237 $236 $362 $461 reversed $85 $-1 #
edge $-1 $462 107.62120942335082 $359 115.70909756767482 $353 $463 forward 7 unknown #
vertex $-1 $239 $464 #
straight-curve $-1 57.854548783837402 3.9528956667065493 5.8365926489874695 0 1 0 I I #
coedge $-1 $352 $240 $243 $366 forward $233 $-1 #
coedge $-1 $240 $352 $357 $461 forward $233 $-1 #
vertex $-1 $241 $465 #
straight-curve $-1 26.071844282646865 4.4674905219999665 11.35251916536545 1 0 0 I I #
straight-curve $-1 -26.769727158391547 4.4674905219999665 84.750008372672752 -0.7313536940579346 0 0.68199836817093118 I I #
edge $-1 $245 4.4674905219999665 $459 11.344092144826231 $243 $466 forward 7 unknown #
point $-1 57.854548783837402 4.4674905219999665 11.352519165365454 #
point $-1 57.854548783837402 4.4674905219999665 5.8365926489874624 #
edge $-1 $467 1 $467 0 $248 $-1 forward 7 unknown #
vertex $-1 $249 $468 #
ellipse-curve $-1 52.75432119392692 7.9057913334130987 6.2968192395386344 0.68199836817093118 0 0.7313536940579346 0.7313536940579346 0 -0.68199836817093118 1 I I #
point $-1 55.628349042155961 7.9057913334130987 7.9125575390055136 #
plane-surface $-1 0 0 11.352519165365454 0 0 1 1 0 0 forward_v I I I I #
coedge $-1 $384 $383 $376 $469 forward $253 $-1 #
coedge $-1 $376 $255 $257 $380 reversed $152 $-1 #
coedge $-1 $255 $375 $374 $469 reversed $152 $-1 #
coedge $-1 $263 $258 $255 $378 forward $264 $-1 #
edge $-1 $381 -22.41814504210371 $470 -19.036320760220804 $377 $471 forward 7 unknown #
coedge $-1 $257 $256 $384 $472 reversed $94 $-1 #
edge $-1 $473 2.5618607856530852e-014 $381 6.0476882544203754 $375 $474 forward 7 unknown #
vertex $-1 $259 $475 #
straight-curve $-1 -54.472724501954502 3.7500173279087115 11.352519165365454 0 1 0 I I #
coedge $-1 $374 $260 $263 $388 reversed $253 $-1 #
coedge $-1 $260 $374 $379 $472 forward $253 $-1 #
vertex $-1 $261 $476 #
straight-curve $-1 -57.854548783837402 3.655977166808615 35.521231584151508 0 0 1 I I #
straight-curve $-1 -57.854548783837416 3.655977166808615 6.3387583265218979 -0.55919289150049634 0 -0.82903758062907751 I I #
edge $-1 $470 -11.344092144826231 $265 -3.655977166808615 $383 $477 forward 7 unknown #
point $-1 -57.854548783837402 3.655977166808615 11.352519165365454 #
point $-1 -54.472724501954495 3.655977166808615 11.352519165365454 #
edge $-1 $478 1 $478 0 $268 $-1 forward 7 unknown #
vertex $-1 $269 $479 #
ellipse-curve $-1 -55.334599062266868 5.1936001624121424 8.2864458544431745 -0.82903758062907751 0 0.55919289150049634 0.27959644575024817 0 0.41451879031453875 1 I I #
point $-1 -55.884040197145694 5.1936001624121424 9.2601575362582107 #
edge $-1 $480 1 $480 0 $272 $-1 forward 7 unknown #
vertex $-1 $273 $481 #
ellipse-curve $-1 -55.334599062266868 7.5000346558174229 8.2864458544431745 -0.82903758062907751 0 0.55919289150049634 0.27959644575024817 0 0.41451879031453875 1 I I #
point $-1 -55.884040197145694 7.5000346558174229 9.2601575362582107 #
edge $-1 $482 1 $482 0 $276 $-1 forward 7 unknown #
vertex $-1 $277 $483 #
ellipse-curve $-1 -55.334599062266868 9.806469149222707 8.2864458544431745 -0.82903758062907751 0 0.55919289150049634 0.27959644575024817 0 0.41451879031453875 1 I I #
point $-1 -55.884040197145694 9.806469149222707 9.2601575362582107 #
plane-surface $-1 57.854548783837402 0 0 -1 0 0 0 0 1 forward_v I I I I #
coedge $-1 $285 $283 $287 $408 reversed $181 $-1 #
edge $-1 $298 -11.352519165365454 $410 11.352519165365454 $297 $484 forward 7 unknown #
vertex $-1 $408 $485 #
straight-curve $-1 -57.854548783837402 -25.629245531378224 0 0 0 -1 I I #
edge $-1 $406 -25.629245531378224 $410 25.629245531378224 $404 $486 forward 7 unknown #
straight-curve $-1 0 -25.629245531378224 -11.352519165365454 -1 0 0 I I #
vertex $-1 $290 $487 #
straight-curve $-1 0 25.629245531378224 -11.352519165365454 1 0 0 I I #
point $-1 57.854548783837402 25.629245531378224 -11.352519165365454 #
point $-1 57.854548783837402 -25.629245531378224 -11.352519165365454 #
straight-curve $-1 -57.854548783837402 0 11.352519165365454 0 -1 0 I I #
point $-1 -57.854548783837402 25.629245531378224 11.352519165365454 #
point $-1 -57.854548783837402 -25.629245531378224 11.352519165365454 #
straight-curve $-1 57.854548783837402 -25.629245531378224 0 0 0 -1 I I #
straight-curve $-1 57.854548783837402 25.629245531378224 0 0 0 -1 I I #
plane-surface $-1 57.854548783837402 0 0 -1 0 0 0 0 1 forward_v I I I I #
coedge $-1 $423 $310 $321 $432 forward $200 $-1 #
coedge $-1 $310 $423 $324 $434 reversed $200 $-1 #
straight-curve $-1 57.854548783837402 -15.902755512643822 3.6970258567501517 0 0 1 I I #
coedge $-1 $421 $420 $313 $424 forward $200 $-1 #
edge $-1 $427 5.5197552516383102 $425 15.246245270372713 $423 $488 forward 7 unknown #
vertex $-1 $315 $489 #
straight-curve $-1 0 -25.629245531378224 4.2877083929415072 1 0 0 I I #
vertex $-1 $424 $490 #
straight-curve $-1 0 -15.902755512643822 4.2877083929415072 1 0 0 I I #
point $-1 57.854548783837402 -25.629245531378224 4.2877083929415072 #
point $-1 57.854548783837402 -15.902755512643822 4.2877083929415072 #
straight-curve $-1 -57.854548783837402 -10.383000261005511 10.5003950340591 0 1 0 I I #
edge $-1 $322 -6.803369177308948 $427 -0.59068253619135547 $420 $491 forward 7 unknown #
point $-1 -57.854548783837402 -15.902755512643822 10.5003950340591 #
edge $-1 $326 -10.5003950340591 $425 -4.2877083929415072 $421 $492 forward 7 unknown #
point $-1 -57.854548783837402 -25.629245531378224 10.5003950340591 #
straight-curve $-1 57.854548783837402 -25.629245531378224 0 0 0 -1 I I #
loop $-1 $-1 $344 $331 #
plane-surface $-1 0 0 -11.352519165365454 0 0 1 1 0 0 forward_v I I I I #
coedge $-1 $446 $334 $450 $493 reversed $219 $-1 #
coedge $-1 $334 $446 $335 $443 reversed $219 $-1 #
coedge $-1 $336 $346 $334 $442 reversed $332 $-1 #
edge $-1 $444 -1.7402437975925213 $494 1.7402437975925213 $441 $495 forward 7 unknown #
edge $-1 $444 -57.854548783837402 $448 57.854548783837402 $440 $496 forward 7 unknown #
vertex $-1 $337 $497 #
straight-curve $-1 57.854548783837402 32.771822224654223 -7.8720315701804111 0 1 0 I I #
coedge $-1 $440 $439 $338 $447 reversed $219 $-1 #
edge $-1 $448 -1.7402437975925213 $451 1.7402437975925213 $446 $498 forward 7 unknown #
vertex $-1 $443 $499 #
straight-curve $-1 -57.854548783837402 32.771822224654223 -7.8720315701804111 0 -1 0 I I #
coedge $-1 $454 $340 $439 $493 forward $437 $-1 #
vertex $-1 $493 $500 #
straight-curve $-1 -57.854548783837402 32.771822224654223 -11.352519165365454 0 1 0 I I #
point $-1 -57.854548783837402 25.629245531378224 -11.352519165365454 #
coedge $-1 $344 $450 $346 $456 forward $437 $-1 #
straight-curve $-1 0 25.629245531378224 -11.352519165365454 -1 0 0 I I #
edge $-1 $494 -39.914398917930221 $347 -25.629245531378224 $346 $501 forward 7 unknown #
point $-1 57.854548783837402 25.629245531378224 -11.352519165365454 #
edge $-1 $459 -31.782704501190537 $462 -25.86759762971181 $352 $502 forward 7 unknown #
vertex $-1 $356 $503 #
straight-curve $-1 57.854548783837402 11.344092144826231 84.68714215745085 0 0 1 I I #
edge $-1 $462 -7.3911964781196815 $363 -0.5145948552934172 $362 $504 forward 7 unknown #
vertex $-1 $461 $505 #
straight-curve $-1 -26.769727158391547 11.344092144826231 84.750008372672752 0.7313536940579346 0 -0.68199836817093118 I I #
point $-1 57.854548783837402 11.344092144826231 5.8365926489874624 #
point $-1 51.939441912358674 4.4674905219999665 11.35251916536545 #
straight-curve $-1 57.854548783837402 0 11.352519165365454 0 1 0 I I #
vertex $-1 $369 $506 #
point $-1 53.48567488798485 7.9057913334130987 5.6148208713677032 #
edge $-1 $470 24.168712418786054 $473 29.182473257629589 $374 $507 forward 7 unknown #
vertex $-1 $388 $508 #
straight-curve $-1 -76.890869544058205 11.344092144826231 11.352519165365454 -1 0 0 I I #
edge $-1 $473 -7.5940748169175194 $385 0.094040161100096498 $384 $509 forward 7 unknown #
vertex $-1 $472 $510 #
straight-curve $-1 -57.854548783837416 11.344092144826231 6.3387583265218979 0.55919289150049634 0 0.82903758062907751 I I #
point $-1 -54.472724501954495 11.344092144826231 11.352519165365454 #
point $-1 -57.854548783837402 3.655977166808615 6.3387583265219192 #
straight-curve $-1 -57.854548783837402 0 11.352519165365454 0 -1 0 I I #
vertex $-1 $391 $511 #
point $-1 -55.055002616516617 5.1936001624121424 8.7009646447577147 #
vertex $-1 $395 $512 #
point $-1 -55.055002616516617 7.5000346558174229 8.7009646447577147 #
vertex $-1 $399 $513 #
point $-1 -55.055002616516617 9.806469149222707 8.7009646447577147 #
straight-curve $-1 -57.854548783837402 25.629245531378224 0 0 0 -1 I I #
point $-1 -57.854548783837402 -25.629245531378224 -11.352519165365454 #
straight-curve $-1 -57.854548783837402 0 -11.352519165365454 0 1 0 I I #
point $-1 -57.854548783837402 25.629245531378224 -11.352519165365454 #
straight-curve $-1 -57.854548783837402 -10.383000261005511 4.2877083929415072 0 -1 0 I I #
point $-1 -57.854548783837402 -25.629245531378224 4.2877083929415072 #
point $-1 -57.854548783837402 -15.902755512643822 4.2877083929415072 #
straight-curve $-1 -57.854548783837402 -15.902755512643822 3.6970258567501517 0 0 -1 I I #
straight-curve $-1 -57.854548783837402 -25.629245531378224 0 0 0 -1 I I #
edge $-1 $451 -57.854548783837402 $494 57.854548783837402 $439 $514 forward 7 unknown #
vertex $-1 $456 $515 #
straight-curve $-1 57.854548783837402 39.914398917930221 -9.6122753677729325 0 0 -1 I I #
straight-curve $-1 0 39.914398917930221 -7.8720315701804111 -1 0 0 I I #
point $-1 57.854548783837402 39.914398917930221 -7.8720315701804111 #
straight-curve $-1 -57.854548783837402 39.914398917930221 -9.6122753677729325 0 0 -1 I I #
point $-1 -57.854548783837402 39.914398917930221 -7.8720315701804111 #
point $-1 -57.854548783837402 39.914398917930221 -11.352519165365454 #
straight-curve $-1 57.854548783837402 0 -11.352519165365454 0 -1 0 I I #
straight-curve $-1 26.071844282646865 11.344092144826231 11.35251916536545 -1 0 0 I I #
point $-1 57.854548783837402 11.344092144826231 11.352519165365454 #
straight-curve $-1 51.939441912358674 3.9528956667065493 11.35251916536545 0 -1 0 I I #
point $-1 51.939441912358674 11.344092144826231 11.35251916536545 #
point $-1 52.072322825755982 7.9057913334130987 5.5654655454806994 #
straight-curve $-1 -57.854548783837402 11.344092144826231 35.521231584151508 0 0 -1 I I #
point $-1 -57.854548783837402 11.344092144826231 11.352519165365454 #
straight-curve $-1 -57.854548783837402 3.7500173279087115 6.3387583265219192 0 -1 0 I I #
point $-1 -57.854548783837402 11.344092144826231 6.3387583265219192 #
point $-1 -54.920080271952322 5.1936001624121424 8.0068494086929274 #
point $-1 -54.920080271952322 7.5000346558174229 8.0068494086929274 #
point $-1 -54.920080271952322 9.806469149222707 8.0068494086929274 #
straight-curve $-1 0 39.914398917930221 -11.352519165365454 1 0 0 I I #
point $-1 57.854548783837402 39.914398917930221 -11.352519165365454 #
End-of-ACIS-data 