500 0 7 0           
7 Unknown 11 ACIS 5.0 NT 24 Fri Mar 26 00:46:34 1999 
-1 9.9999999999999995e-007 1e-010 
body $-1 $7 $-1 $8 #
body $-1 $9 $-1 $10 #
body $-1 $11 $-1 $12 #
body $-1 $13 $-1 $14 #
body $-1 $15 $-1 $16 #
body $-1 $17 $-1 $18 #
body $-1 $19 $-1 $20 #
lump $-1 $-1 $21 $0 #
transform $-1 1 0 0 0 1 0 0 0 1 48.093508713034453 22.247889514490339 8.8629665754386924 1 rotate no_reflect no_shear #
lump $-1 $-1 $22 $1 #
transform $-1 1 0 0 0 1 0 0 0 1 48.093508713034453 22.247889514490339 8.8629665754386924 1 rotate no_reflect no_shear #
lump $-1 $-1 $23 $2 #
transform $-1 1 0 0 0 1 0 0 0 1 48.093508713034453 22.247889514490339 8.8629665754386924 1 rotate no_reflect no_shear #
lump $-1 $-1 $24 $3 #
transform $-1 1 0 0 0 1 0 0 0 1 48.093508713034453 22.247889514490339 8.8629665754386924 1 rotate no_reflect no_shear #
lump $-1 $-1 $25 $4 #
transform $-1 1 0 0 0 1 0 0 0 1 48.093508713034453 22.247889514490339 8.8629665754386924 1 rotate no_reflect no_shear #
lump $-1 $-1 $26 $5 #
transform $-1 1 0 0 0 1 0 0 0 1 48.093508713034453 22.247889514490339 8.8629665754386924 1 rotate no_reflect no_shear #
lump $-1 $-1 $27 $6 #
transform $-1 1 0 0 0 1 0 0 0 1 48.093508713034453 22.247889514490339 8.8629665754386924 1 rotate no_reflect no_shear #
shell $-1 $-1 $-1 $28 $-1 $7 #
shell $-1 $-1 $-1 $29 $-1 $9 #
shell $-1 $-1 $-1 $30 $-1 $11 #
shell $-1 $-1 $-1 $31 $-1 $13 #
shell $-1 $-1 $-1 $32 $-1 $15 #
shell $-1 $-1 $-1 $33 $-1 $17 #
shell $-1 $-1 $-1 $34 $-1 $19 #
face $-1 $35 $36 $21 $-1 $37 forward single #
face $-1 $38 $39 $22 $-1 $40 forward single #
face $-1 $41 $42 $23 $-1 $43 reversed single #
face $-1 $44 $45 $24 $-1 $46 forward single #
face $-1 $47 $48 $25 $-1 $49 forward single #
face $-1 $50 $51 $26 $-1 $52 reversed single #
face $-1 $53 $54 $27 $-1 $55 forward single #
face $-1 $56 $57 $21 $-1 $58 reversed single #
loop $-1 $-1 $59 $28 #
plane-surface $-1 0 0 8.8629665754386924 0 0 1 1 0 0 forward_v I I I I #
face $-1 $60 $61 $22 $-1 $62 reversed single #
loop $-1 $-1 $63 $29 #
plane-surface $-1 0 -22.247889514490339 0 0 1 0 0 0 1 forward_v I I I I #
face $-1 $64 $65 $23 $-1 $66 reversed single #
loop $-1 $-1 $67 $30 #
plane-surface $-1 -127.83616092786953 6.6107153794980462 59.227432674392446 0 1 0 -0.82903758062907751 0 0.55919289150049634 forward_v I I I I #
face $-1 $68 $69 $24 $-1 $70 forward single #
loop $-1 $71 $72 $31 #
cone-surface $-1 -46.234554197601817 8.9308414221412065 6.6763536799409833 0.82903758062907751 0 -0.55919289150049634 0.55919289150049634 0 0.82903758062907751 1 I I 0 1 1 forward I I I I #
face $-1 $73 $74 $25 $-1 $75 forward single #
loop $-1 $76 $77 $32 #
cone-surface $-1 -46.234554197601817 12.41103048610595 6.6763536799409833 0.82903758062907751 0 -0.55919289150049634 0.55919289150049634 0 0.82903758062907751 1 I I 0 1 1 forward I I I I #
face $-1 $78 $79 $26 $-1 $80 reversed single #
loop $-1 $-1 $81 $33 #
plane-surface $-1 33.87460935661727 19.287241159272938 138.43617484017219 0 -1 0 -0.62932039886446345 0 -0.77714595512881146 forward_v I I I I #
face $-1 $82 $83 $27 $-1 $84 forward single #
loop $-1 $85 $86 $34 #
cone-surface $-1 43.827544045324203 15.414616690888224 5.0938873284870745 -0.62932039886446345 0 -0.77714595512881146 0.77714595512881146 0 -0.62932039886446345 1 I I 0 1 1 forward I I I I #
face $-1 $87 $88 $21 $-1 $89 reversed single #
loop $-1 $-1 $90 $35 #
plane-surface $-1 0 0 -8.8629665754386924 0 0 1 1 0 0 forward_v I I I I #
coedge $-1 $91 $92 $93 $94 forward $36 $-1 #
face $-1 $95 $96 $22 $-1 $97 forward single #
loop $-1 $-1 $98 $38 #
plane-surface $-1 -48.093508713034453 0 0 1 0 0 0 0 -1 forward_v I I I I #
coedge $-1 $99 $100 $101 $102 forward $39 $-1 #
face $-1 $103 $104 $23 $-1 $105 reversed single #
loop $-1 $-1 $106 $41 #
plane-surface $-1 -48.093508713034439 10.670935954123578 5.4403362751003499 -0.82903758062907751 0 0.55919289150049634 0.55919289150049634 0 0.82903758062907751 forward_v I I I I #
coedge $-1 $107 $108 $109 $110 reversed $42 $-1 #
face $-1 $-1 $111 $24 $-1 $112 forward single #
loop $-1 $113 $114 $44 #
cone-surface $-1 -45.115377499694262 8.9308414221412065 5.9214594888621939 0.82903758062907751 0 -0.55919289150049634 0.27959644575024817 0 0.41451879031453875 1 I I -0.70710678118654746 0.70710678118654746 0.5 forward I I I I #
loop $-1 $-1 $115 $31 #
coedge $-1 $72 $72 $116 $117 reversed $45 $-1 #
face $-1 $-1 $118 $25 $-1 $119 forward single #
loop $-1 $120 $121 $47 #
cone-surface $-1 -45.115377499694262 12.41103048610595 5.9214594888621939 0.82903758062907751 0 -0.55919289150049634 0.27959644575024817 0 0.41451879031453875 1 I I -0.70710678118654746 0.70710678118654746 0.5 forward I I I I #
loop $-1 $-1 $122 $32 #
coedge $-1 $77 $77 $123 $124 reversed $48 $-1 #
face $-1 $125 $126 $26 $-1 $127 reversed single #
loop $-1 $-1 $128 $50 #
plane-surface $-1 -26.65784281553951 15.414616690888224 63.684823311598237 0.62932039886446345 0 0.77714595512881146 0.77714595512881146 0 -0.62932039886446345 forward_v I I I I #
coedge $-1 $129 $130 $131 $132 reversed $51 $-1 #
face $-1 $-1 $133 $27 $-1 $134 forward single #
loop $-1 $135 $136 $53 #
cone-surface $-1 42.772918138703332 15.414616690888224 3.7915328219696729 -0.62932039886446345 0 -0.77714595512881146 0.38857297756440573 0 -0.31466019943223172 1 I I -0.70710678118654746 0.70710678118654746 0.5 forward I I I I #
loop $-1 $-1 $137 $34 #
coedge $-1 $86 $86 $138 $139 reversed $54 $-1 #
face $-1 $140 $141 $21 $-1 $142 reversed single #
loop $-1 $-1 $143 $56 #
plane-surface $-1 0 -22.247889514490339 0 0 1 0 0 0 1 forward_v I I I I #
coedge $-1 $144 $145 $146 $147 forward $57 $-1 #
coedge $-1 $148 $59 $149 $150 forward $36 $-1 #
coedge $-1 $59 $148 $151 $152 forward $36 $-1 #
coedge $-1 $153 $154 $59 $94 reversed $155 $-1 #
edge $-1 $156 -22.247889514490339 $157 22.247889514490339 $93 $158 forward 7 unknown #
face $-1 $159 $160 $22 $-1 $161 reversed single #
loop $-1 $-1 $162 $60 #
plane-surface $-1 0 -27.15173886984935 8.3629665754386942 0 0 1 1 0 0 forward_v I I I I #
coedge $-1 $163 $164 $100 $165 forward $61 $-1 #
coedge $-1 $166 $63 $167 $168 reversed $39 $-1 #
coedge $-1 $63 $166 $98 $165 reversed $39 $-1 #
coedge $-1 $169 $162 $63 $102 reversed $96 $-1 #
edge $-1 $170 -48.093508713034453 $171 48.093508713034453 $101 $172 forward 7 unknown #
face $-1 $173 $174 $23 $-1 $175 forward single #
loop $-1 $-1 $176 $64 #
plane-surface $-1 -127.83616092786953 14.731156528749111 59.227432674392446 0 -1 0 0.82903758062907751 0 -0.55919289150049634 forward_v I I I I #
coedge $-1 $177 $178 $179 $180 reversed $65 $-1 #
coedge $-1 $108 $67 $181 $182 reversed $42 $-1 #
coedge $-1 $67 $107 $177 $183 reversed $42 $-1 #
coedge $-1 $179 $184 $67 $110 forward $174 $-1 #
edge $-1 $185 15.824571750900311 $186 18.133164966579557 $109 $187 forward 7 unknown #
loop $-1 $-1 $116 $68 #
plane-surface $-1 -48.093508713034439 10.670935954123578 5.4403362751003499 -0.82903758062907751 0 0.55919289150049634 0.55919289150049634 0 0.82903758062907751 forward_v I I I I #
loop $-1 $-1 $188 $44 #
coedge $-1 $114 $114 $115 $189 reversed $69 $-1 #
coedge $-1 $115 $115 $114 $189 forward $71 $-1 #
coedge $-1 $116 $116 $72 $117 forward $111 $-1 #
edge $-1 $190 0 $190 6.2831853071796004 $116 $191 forward 7 unknown #
loop $-1 $-1 $123 $73 #
plane-surface $-1 -48.093508713034439 10.670935954123578 5.4403362751003499 -0.82903758062907751 0 0.55919289150049634 0.55919289150049634 0 0.82903758062907751 forward_v I I I I #
loop $-1 $-1 $192 $47 #
coedge $-1 $121 $121 $122 $193 reversed $74 $-1 #
coedge $-1 $122 $122 $121 $193 forward $76 $-1 #
coedge $-1 $123 $123 $77 $124 forward $118 $-1 #
edge $-1 $194 0 $194 6.2831853071796004 $123 $195 forward 7 unknown #
face $-1 $196 $197 $26 $-1 $198 reversed single #
loop $-1 $-1 $199 $78 #
plane-surface $-1 33.87460935661727 11.541992222503509 138.43617484017219 0 1 0 0.62932039886446345 0 0.77714595512881146 forward_v I I I I #
coedge $-1 $200 $201 $202 $203 reversed $79 $-1 #
coedge $-1 $130 $81 $204 $205 reversed $51 $-1 #
coedge $-1 $81 $129 $200 $206 reversed $51 $-1 #
coedge $-1 $202 $207 $81 $132 forward $208 $-1 #
edge $-1 $209 -31.156204034725818 $210 -24.104206113682565 $131 $211 forward 7 unknown #
loop $-1 $-1 $138 $82 #
plane-surface $-1 -26.65784281553951 15.414616690888224 63.684823311598237 0.62932039886446345 0 0.77714595512881146 0.77714595512881146 0 -0.62932039886446345 forward_v I I I I #
loop $-1 $-1 $212 $53 #
coedge $-1 $136 $136 $137 $213 reversed $83 $-1 #
coedge $-1 $137 $137 $136 $213 forward $85 $-1 #
coedge $-1 $138 $138 $86 $139 forward $133 $-1 #
edge $-1 $214 0 $214 6.2831853071796004 $138 $215 forward 7 unknown #
face $-1 $216 $217 $21 $-1 $218 reversed single #
loop $-1 $-1 $219 $87 #
plane-surface $-1 -48.093508713034453 0 0 1 0 0 0 0 -1 forward_v I I I I #
coedge $-1 $220 $151 $221 $222 forward $88 $-1 #
coedge $-1 $223 $90 $220 $224 forward $57 $-1 #
coedge $-1 $90 $223 $225 $226 forward $57 $-1 #
coedge $-1 $154 $153 $90 $147 reversed $155 $-1 #
edge $-1 $227 -22.247889514490339 $228 22.247889514490339 $146 $229 forward 7 unknown #
coedge $-1 $92 $91 $230 $231 forward $36 $-1 #
coedge $-1 $232 $233 $91 $150 reversed $217 $-1 #
edge $-1 $157 -48.093508713034453 $234 48.093508713034453 $149 $235 forward 7 unknown #
coedge $-1 $143 $236 $92 $152 reversed $88 $-1 #
edge $-1 $237 -48.093508713034453 $156 48.093508713034453 $151 $238 forward 7 unknown #
coedge $-1 $146 $93 $236 $239 forward $155 $-1 #
coedge $-1 $93 $146 $232 $240 reversed $155 $-1 #
loop $-1 $-1 $153 $216 #
vertex $-1 $94 $241 #
vertex $-1 $94 $242 #
straight-curve $-1 48.093508713034453 0 8.8629665754386924 0 1 0 I I #
face $-1 $243 $244 $22 $-1 $245 reversed single #
loop $-1 $-1 $246 $95 #
plane-surface $-1 0 -27.15173886984935 3.2076937354497952 0 0 1 1 0 0 forward_v I I I I #
coedge $-1 $101 $247 $248 $249 forward $96 $-1 #
coedge $-1 $250 $98 $251 $252 reversed $61 $-1 #
coedge $-1 $98 $250 $169 $253 reversed $61 $-1 #
edge $-1 $170 -8.3629665754386942 $254 -3.2076937354497952 $98 $255 forward 7 unknown #
coedge $-1 $100 $99 $256 $257 forward $39 $-1 #
coedge $-1 $248 $258 $99 $168 forward $259 $-1 #
edge $-1 $260 3.2076937354497952 $171 8.3629665754386942 $167 $261 forward 7 unknown #
coedge $-1 $247 $101 $164 $253 forward $96 $-1 #
vertex $-1 $165 $262 #
vertex $-1 $249 $263 #
straight-curve $-1 0 -22.247889514490339 8.3629665754386942 1 0 0 I I #
face $-1 $-1 $264 $23 $-1 $265 reversed single #
loop $-1 $-1 $109 $103 #
plane-surface $-1 0 0 8.8629665754386924 0 0 1 1 0 0 forward_v I I I I #
coedge $-1 $266 $267 $268 $269 reversed $104 $-1 #
coedge $-1 $270 $106 $108 $183 forward $65 $-1 #
coedge $-1 $106 $270 $266 $271 forward $65 $-1 #
coedge $-1 $268 $109 $106 $180 forward $174 $-1 #
edge $-1 $186 1.275247402436257 $272 9.3956885516873214 $179 $273 forward 7 unknown #
coedge $-1 $274 $275 $107 $182 forward $264 $-1 #
edge $-1 $276 -24.173380062095895 $185 -20.750749761757532 $181 $277 forward 7 unknown #
edge $-1 $186 -4.1284380591543703 $276 2.5618607856530852e-014 $108 $278 forward 7 unknown #
coedge $-1 $109 $268 $274 $279 forward $174 $-1 #
vertex $-1 $182 $280 #
vertex $-1 $110 $281 #
straight-curve $-1 -63.918080463934764 6.6107153794980462 8.8629665754386906 1 0 0 I I #
coedge $-1 $188 $188 $-1 $282 reversed $113 $-1 #
edge $-1 $283 0 $283 6.2831853071796004 $114 $284 forward 7 unknown #
vertex $-1 $117 $285 #
ellipse-curve $-1 -46.939212105194827 8.9308414221412065 7.1516514252695185 -0.82903758062907751 0 0.55919289150049634 0.55919289150049634 0 0.82903758062907751 1 I I #
coedge $-1 $192 $192 $-1 $286 reversed $120 $-1 #
edge $-1 $287 0 $287 6.2831853071796004 $121 $288 forward 7 unknown #
vertex $-1 $124 $289 #
ellipse-curve $-1 -46.939212105194827 12.41103048610595 7.1516514252695185 -0.82903758062907751 0 0.55919289150049634 0.55919289150049634 0 0.82903758062907751 1 I I #
face $-1 $-1 $208 $26 $-1 $290 forward single #
loop $-1 $-1 $291 $125 #
plane-surface $-1 48.093508713034453 0 0 -1 0 0 0 0 1 forward_v I I I I #
coedge $-1 $292 $293 $294 $295 reversed $126 $-1 #
coedge $-1 $296 $128 $130 $206 forward $79 $-1 #
coedge $-1 $128 $296 $292 $297 forward $79 $-1 #
coedge $-1 $294 $131 $128 $203 forward $208 $-1 #
edge $-1 $210 -11.579932813828826 $298 -3.8346838770593976 $202 $299 forward 7 unknown #
coedge $-1 $300 $301 $129 $205 forward $197 $-1 #
edge $-1 $302 -66.065716280644637 $209 -60.355120844647402 $204 $303 forward 7 unknown #
edge $-1 $210 87.112791568618007 $302 96.18701742606892 $130 $304 forward 7 unknown #
coedge $-1 $131 $294 $300 $305 forward $208 $-1 #
loop $-1 $-1 $294 $196 #
vertex $-1 $205 $306 #
vertex $-1 $132 $307 #
straight-curve $-1 16.937304678308635 19.287241159272938 8.8629665754386906 -1 0 0 I I #
coedge $-1 $212 $212 $-1 $308 reversed $135 $-1 #
edge $-1 $309 0 $309 6.2831853071796004 $136 $310 forward 7 unknown #
vertex $-1 $139 $311 #
ellipse-curve $-1 44.567509752512834 15.414616690888224 6.0076688574400672 0.62932039886446345 0 0.77714595512881146 0.77714595512881146 0 -0.62932039886446345 1 I I #
face $-1 $-1 $155 $21 $-1 $312 reversed single #
loop $-1 $-1 $232 $140 #
plane-surface $-1 0 22.247889514490339 0 0 -1 0 0 0 -1 forward_v I I I I #
coedge $-1 $313 $230 $233 $314 forward $141 $-1 #
coedge $-1 $236 $143 $144 $224 reversed $88 $-1 #
coedge $-1 $230 $313 $143 $222 reversed $141 $-1 #
edge $-1 $237 -8.8629665754386924 $315 8.8629665754386924 $221 $316 forward 7 unknown #
coedge $-1 $145 $144 $313 $317 forward $57 $-1 #
edge $-1 $228 -48.093508713034453 $315 48.093508713034453 $220 $318 forward 7 unknown #
coedge $-1 $233 $232 $145 $226 reversed $217 $-1 #
edge $-1 $319 -48.093508713034453 $227 48.093508713034453 $225 $320 forward 7 unknown #
vertex $-1 $147 $321 #
vertex $-1 $239 $322 #
straight-curve $-1 48.093508713034453 0 -8.8629665754386924 0 -1 0 I I #
coedge $-1 $219 $221 $148 $231 reversed $141 $-1 #
edge $-1 $234 -22.247889514490339 $237 22.247889514490339 $230 $323 forward 7 unknown #
coedge $-1 $225 $149 $154 $240 forward $217 $-1 #
coedge $-1 $149 $225 $219 $314 reversed $217 $-1 #
vertex $-1 $150 $324 #
straight-curve $-1 0 22.247889514490339 8.8629665754386924 -1 0 0 I I #
coedge $-1 $151 $220 $153 $239 reversed $88 $-1 #
vertex $-1 $231 $325 #
straight-curve $-1 0 -22.247889514490339 8.8629665754386924 1 0 0 I I #
edge $-1 $156 -8.8629665754386924 $228 8.8629665754386924 $153 $326 forward 7 unknown #
edge $-1 $157 -8.8629665754386924 $227 8.8629665754386924 $154 $327 forward 7 unknown #
point $-1 48.093508713034453 -22.247889514490339 8.8629665754386924 #
point $-1 48.093508713034453 22.247889514490339 8.8629665754386924 #
face $-1 $-1 $259 $22 $-1 $328 reversed single #
loop $-1 $-1 $329 $159 #
plane-surface $-1 0 -32.055588225208361 5.7853301554442442 0 1 0 0 0 1 forward_v I I I I #
coedge $-1 $330 $256 $258 $331 forward $160 $-1 #
coedge $-1 $162 $169 $332 $333 forward $96 $-1 #
coedge $-1 $334 $167 $162 $249 reversed $259 $-1 #
edge $-1 $335 -4.9038493553590108 $171 4.9038493553590108 $248 $336 forward 7 unknown #
coedge $-1 $164 $163 $329 $337 reversed $61 $-1 #
coedge $-1 $256 $330 $163 $252 forward $160 $-1 #
edge $-1 $338 -4.9038493553590108 $254 4.9038493553590108 $163 $339 forward 7 unknown #
edge $-1 $170 -4.9038493553590108 $340 4.9038493553590108 $164 $341 forward 7 unknown #
vertex $-1 $165 $342 #
straight-curve $-1 -48.093508713034453 -22.247889514490339 0 0 0 -1 I I #
coedge $-1 $246 $251 $166 $257 reversed $160 $-1 #
edge $-1 $260 -48.093508713034453 $254 48.093508713034453 $256 $343 forward 7 unknown #
coedge $-1 $167 $334 $246 $331 reversed $259 $-1 #
loop $-1 $-1 $167 $243 #
vertex $-1 $168 $344 #
straight-curve $-1 48.093508713034453 -22.247889514490339 0 0 0 1 I I #
point $-1 -48.093508713034453 -22.247889514490339 8.3629665754386942 #
point $-1 48.093508713034453 -22.247889514490339 8.3629665754386942 #
loop $-1 $-1 $181 $173 #
plane-surface $-1 -48.093508713034453 0 0 1 0 0 0 0 -1 forward_v I I I I #
coedge $-1 $267 $176 $178 $271 reversed $104 $-1 #
coedge $-1 $176 $266 $345 $346 reversed $104 $-1 #
coedge $-1 $184 $179 $176 $269 forward $174 $-1 #
edge $-1 $272 -18.133164966579557 $347 -15.824571750900311 $268 $348 forward 7 unknown #
coedge $-1 $178 $177 $275 $349 reversed $65 $-1 #
edge $-1 $350 -2.5618607856530852e-014 $272 4.1284380591543703 $266 $351 forward 7 unknown #
vertex $-1 $180 $352 #
straight-curve $-1 -45.784915497355207 5.3354679770617892 8.8629665754386924 0 1 0 I I #
coedge $-1 $345 $181 $184 $279 reversed $264 $-1 #
coedge $-1 $181 $345 $270 $349 forward $264 $-1 #
vertex $-1 $182 $353 #
straight-curve $-1 -48.093508713034453 6.6107153794980462 29.613716337196223 0 0 1 I I #
straight-curve $-1 -48.093508713034439 6.6107153794980462 5.4403362751003499 -0.55919289150049634 0 -0.82903758062907751 I I #
edge $-1 $347 -14.731156528749111 $185 -6.6107153794980462 $274 $354 forward 7 unknown #
point $-1 -48.093508713034453 6.6107153794980462 8.8629665754386924 #
point $-1 -45.784915497355207 6.6107153794980462 8.8629665754386924 #
edge $-1 $355 1 $355 0 $188 $-1 forward 7 unknown #
vertex $-1 $189 $356 #
ellipse-curve $-1 -45.5298962900088 8.9308414221412065 6.2010559346124419 -0.82903758062907751 0 0.55919289150049634 0.55919289150049634 0 0.82903758062907751 1 I I #
point $-1 -46.380019213694339 8.9308414221412065 7.9806890058986024 #
edge $-1 $357 1 $357 0 $192 $-1 forward 7 unknown #
vertex $-1 $193 $358 #
ellipse-curve $-1 -45.5298962900088 12.41103048610595 6.2010559346124419 -0.82903758062907751 0 0.55919289150049634 0.55919289150049634 0 0.82903758062907751 1 I I #
point $-1 -46.380019213694339 12.41103048610595 7.9806890058986024 #
plane-surface $-1 0 0 8.8629665754386924 0 0 1 1 0 0 forward_v I I I I #
coedge $-1 $301 $300 $293 $359 forward $197 $-1 #
coedge $-1 $293 $199 $201 $297 reversed $126 $-1 #
coedge $-1 $199 $292 $291 $359 reversed $126 $-1 #
coedge $-1 $207 $202 $199 $295 forward $208 $-1 #
edge $-1 $298 24.104206113682565 $360 31.156204034725818 $294 $361 forward 7 unknown #
coedge $-1 $201 $200 $301 $362 reversed $79 $-1 #
edge $-1 $363 -96.18701742606892 $298 -87.112791568618007 $292 $364 forward 7 unknown #
vertex $-1 $203 $365 #
straight-curve $-1 41.0415107919912 7.7073083454441118 8.8629665754386835 0 -1 0 I I #
coedge $-1 $291 $204 $207 $305 reversed $197 $-1 #
coedge $-1 $204 $291 $296 $362 forward $197 $-1 #
vertex $-1 $205 $366 #
straight-curve $-1 48.093508713034453 19.287241159272938 69.218087420086093 0 0 1 I I #
straight-curve $-1 -26.65784281553951 19.287241159272938 63.684823311598237 0.77714595512881146 0 -0.62932039886446345 I I #
edge $-1 $360 11.541992222503509 $209 19.287241159272938 $300 $367 forward 7 unknown #
point $-1 48.093508713034453 19.287241159272938 8.8629665754386924 #
point $-1 41.0415107919912 19.287241159272938 8.8629665754386906 #
edge $-1 $368 1 $368 0 $212 $-1 forward 7 unknown #
vertex $-1 $213 $369 #
ellipse-curve $-1 43.087578338135565 15.414616690888224 4.1801057995340782 0.62932039886446345 0 0.77714595512881146 0.77714595512881146 0 -0.62932039886446345 1 I I #
point $-1 45.34465570764165 15.414616690888224 5.3783484585756067 #
plane-surface $-1 48.093508713034453 0 0 -1 0 0 0 0 1 forward_v I I I I #
coedge $-1 $221 $219 $223 $317 reversed $141 $-1 #
edge $-1 $234 -8.8629665754386924 $319 8.8629665754386924 $233 $370 forward 7 unknown #
vertex $-1 $317 $371 #
straight-curve $-1 -48.093508713034453 -22.247889514490339 0 0 0 -1 I I #
edge $-1 $315 -22.247889514490339 $319 22.247889514490339 $313 $372 forward 7 unknown #
straight-curve $-1 0 -22.247889514490339 -8.8629665754386924 -1 0 0 I I #
vertex $-1 $226 $373 #
straight-curve $-1 0 22.247889514490339 -8.8629665754386924 1 0 0 I I #
point $-1 48.093508713034453 22.247889514490339 -8.8629665754386924 #
point $-1 48.093508713034453 -22.247889514490339 -8.8629665754386924 #
straight-curve $-1 -48.093508713034453 0 8.8629665754386924 0 -1 0 I I #
point $-1 -48.093508713034453 22.247889514490339 8.8629665754386924 #
point $-1 -48.093508713034453 -22.247889514490339 8.8629665754386924 #
straight-curve $-1 48.093508713034453 -22.247889514490339 0 0 0 -1 I I #
straight-curve $-1 48.093508713034453 22.247889514490339 0 0 0 -1 I I #
plane-surface $-1 48.093508713034453 0 0 -1 0 0 0 0 1 forward_v I I I I #
coedge $-1 $374 $332 $250 $337 forward $244 $-1 #
coedge $-1 $251 $246 $374 $375 forward $160 $-1 #
edge $-1 $260 -4.9038493553590108 $376 4.9038493553590108 $258 $377 forward 7 unknown #
coedge $-1 $329 $378 $247 $333 reversed $244 $-1 #
edge $-1 $340 -48.093508713034453 $335 48.093508713034453 $332 $379 forward 7 unknown #
coedge $-1 $258 $248 $378 $380 forward $259 $-1 #
vertex $-1 $249 $381 #
straight-curve $-1 48.093508713034453 -27.15173886984935 8.3629665754386942 0 1 0 I I #
edge $-1 $340 -2.5776364199944499 $338 2.577636419994449 $250 $382 forward 7 unknown #
vertex $-1 $252 $383 #
straight-curve $-1 -48.093508713034453 -27.15173886984935 3.2076937354497952 0 1 0 I I #
vertex $-1 $253 $384 #
straight-curve $-1 -48.093508713034453 -27.15173886984935 8.3629665754386942 0 -1 0 I I #
point $-1 -48.093508713034453 -22.247889514490339 3.2076937354497952 #
straight-curve $-1 0 -22.247889514490339 3.2076937354497952 -1 0 0 I I #
point $-1 48.093508713034453 -22.247889514490339 3.2076937354497952 #
coedge $-1 $275 $274 $267 $346 forward $264 $-1 #
edge $-1 $347 20.750749761757532 $350 24.173380062095895 $345 $385 forward 7 unknown #
vertex $-1 $279 $386 #
straight-curve $-1 -63.918080463934764 14.731156528749111 8.8629665754386906 -1 0 0 I I #
edge $-1 $350 -9.3956885516873214 $276 -1.275247402436257 $275 $387 forward 7 unknown #
vertex $-1 $349 $388 #
straight-curve $-1 -48.093508713034439 14.731156528749111 5.4403362751003499 0.55919289150049634 0 0.82903758062907751 I I #
point $-1 -45.784915497355207 14.731156528749111 8.8629665754386924 #
point $-1 -48.093508713034453 6.6107153794980462 5.4403362751003286 #
straight-curve $-1 -48.093508713034453 0 8.8629665754386924 0 -1 0 I I #
vertex $-1 $282 $389 #
point $-1 -44.970703398508306 8.9308414221412065 7.0300935152415196 #
vertex $-1 $286 $390 #
point $-1 -44.970703398508306 12.41103048610595 7.0300935152415196 #
edge $-1 $360 60.355120844647402 $363 66.065716280644637 $291 $391 forward 7 unknown #
vertex $-1 $305 $392 #
straight-curve $-1 16.937304678308635 11.541992222503509 8.8629665754386906 1 0 0 I I #
edge $-1 $363 3.8346838770593976 $302 11.579932813828826 $301 $393 forward 7 unknown #
vertex $-1 $362 $394 #
straight-curve $-1 -26.65784281553951 11.541992222503509 63.684823311598237 -0.77714595512881146 0 0.62932039886446345 I I #
point $-1 41.0415107919912 11.541992222503509 8.8629665754386906 #
point $-1 48.093508713034453 19.287241159272938 3.1523711394414491 #
straight-curve $-1 48.093508713034453 0 8.8629665754386924 0 1 0 I I #
vertex $-1 $308 $395 #
point $-1 43.864724293264374 15.414616690888224 3.5507854006696151 #
straight-curve $-1 -48.093508713034453 22.247889514490339 0 0 0 -1 I I #
point $-1 -48.093508713034453 -22.247889514490339 -8.8629665754386924 #
straight-curve $-1 -48.093508713034453 0 -8.8629665754386924 0 1 0 I I #
point $-1 -48.093508713034453 22.247889514490339 -8.8629665754386924 #
coedge $-1 $378 $329 $330 $375 reversed $244 $-1 #
edge $-1 $376 -48.093508713034453 $338 48.093508713034453 $374 $396 forward 7 unknown #
vertex $-1 $380 $397 #
straight-curve $-1 48.093508713034453 -27.15173886984935 3.2076937354497952 0 -1 0 I I #
coedge $-1 $332 $374 $334 $380 reversed $244 $-1 #
straight-curve $-1 0 -32.055588225208361 8.3629665754386942 1 0 0 I I #
edge $-1 $335 -2.5776364199944499 $376 2.577636419994449 $334 $398 forward 7 unknown #
point $-1 48.093508713034453 -32.055588225208361 8.3629665754386942 #
straight-curve $-1 -48.093508713034453 -32.055588225208361 5.7853301554442442 0 0 -1 I I #
point $-1 -48.093508713034453 -32.055588225208361 3.2076937354497952 #
point $-1 -48.093508713034453 -32.055588225208361 8.3629665754386942 #
straight-curve $-1 -48.093508713034453 14.731156528749111 29.613716337196223 0 0 -1 I I #
point $-1 -48.093508713034453 14.731156528749111 8.8629665754386924 #
straight-curve $-1 -48.093508713034453 5.3354679770617892 5.4403362751003286 0 -1 0 I I #
point $-1 -48.093508713034453 14.731156528749111 5.4403362751003286 #
point $-1 -44.700858709379723 8.9308414221412065 5.6418630431119459 #
point $-1 -44.700858709379723 12.41103048610595 5.6418630431119459 #
straight-curve $-1 48.093508713034453 11.541992222503509 69.218087420086093 0 0 -1 I I #
point $-1 48.093508713034453 11.541992222503509 8.8629665754386924 #
straight-curve $-1 48.093508713034453 7.7073083454441118 3.1523711394414491 0 1 0 I I #
point $-1 48.093508713034453 11.541992222503509 3.1523711394414491 #
point $-1 42.4582579392711 15.414616690888224 3.4029598444052671 #
straight-curve $-1 0 -32.055588225208361 3.2076937354497952 -1 0 0 I I #
point $-1 48.093508713034453 -32.055588225208361 3.2076937354497952 #
straight-curve $-1 48.093508713034453 -32.055588225208361 5.7853301554442442 0 0 -1 I I #
End-of-ACIS-data 