500 0 9 0           
7 Unknown 11 ACIS 5.0 NT 24 Fri Mar 26 02:32:33 1999 
-1 9.9999999999999995e-007 1e-010 
body $-1 $9 $-1 $10 #
body $-1 $11 $-1 $12 #
body $-1 $13 $-1 $14 #
body $-1 $15 $-1 $16 #
body $-1 $17 $-1 $18 #
body $-1 $19 $-1 $20 #
body $-1 $21 $-1 $22 #
body $-1 $23 $-1 $24 #
body $-1 $25 $-1 $26 #
lump $-1 $-1 $27 $0 #
transform $-1 1 0 0 0 1 0 0 0 1 55.261696218756676 28.751361765426857 6.3170164726046814 1 rotate no_reflect no_shear #
lump $-1 $-1 $28 $1 #
transform $-1 1 0 0 0 1 0 0 0 1 55.261696218756676 28.751361765426857 6.3170164726046814 1 rotate no_reflect no_shear #
lump $-1 $-1 $29 $2 #
transform $-1 1 0 0 0 1 0 0 0 1 55.261696218756676 28.751361765426857 6.3170164726046814 1 rotate no_reflect no_shear #
lump $-1 $-1 $30 $3 #
transform $-1 1 0 0 0 1 0 0 0 1 55.261696218756676 28.751361765426857 6.3170164726046814 1 rotate no_reflect no_shear #
lump $-1 $-1 $31 $4 #
transform $-1 1 0 0 0 1 0 0 0 1 55.261696218756676 28.751361765426857 6.3170164726046814 1 rotate no_reflect no_shear #
lump $-1 $-1 $32 $5 #
transform $-1 1 0 0 0 1 0 0 0 1 55.261696218756676 28.751361765426857 6.3170164726046814 1 rotate no_reflect no_shear #
lump $-1 $-1 $33 $6 #
transform $-1 1 0 0 0 1 0 0 0 1 55.261696218756676 28.751361765426857 6.3170164726046814 1 rotate no_reflect no_shear #
lump $-1 $-1 $34 $7 #
transform $-1 1 0 0 0 1 0 0 0 1 55.261696218756676 28.751361765426857 6.3170164726046814 1 rotate no_reflect no_shear #
lump $-1 $-1 $35 $8 #
transform $-1 1 0 0 0 1 0 0 0 1 55.261696218756676 28.751361765426857 6.3170164726046814 1 rotate no_reflect no_shear #
shell $-1 $-1 $-1 $36 $-1 $9 #
shell $-1 $-1 $-1 $37 $-1 $11 #
shell $-1 $-1 $-1 $38 $-1 $13 #
shell $-1 $-1 $-1 $39 $-1 $15 #
shell $-1 $-1 $-1 $40 $-1 $17 #
shell $-1 $-1 $-1 $41 $-1 $19 #
shell $-1 $-1 $-1 $42 $-1 $21 #
shell $-1 $-1 $-1 $43 $-1 $23 #
shell $-1 $-1 $-1 $44 $-1 $25 #
face $-1 $45 $46 $27 $-1 $47 reversed single #
face $-1 $48 $49 $28 $-1 $50 forward single #
face $-1 $51 $52 $29 $-1 $53 forward single #
face $-1 $54 $55 $30 $-1 $56 reversed single #
face $-1 $57 $58 $31 $-1 $59 forward single #
face $-1 $60 $61 $32 $-1 $62 forward single #
face $-1 $63 $64 $33 $-1 $65 reversed single #
face $-1 $66 $67 $34 $-1 $68 forward single #
face $-1 $69 $70 $35 $-1 $71 forward single #
face $-1 $72 $73 $27 $-1 $74 forward single #
loop $-1 $-1 $75 $36 #
plane-surface $-1 55.261696218756676 0 0 -1 0 0 0 0 1 forward_v I I I I #
face $-1 $76 $77 $28 $-1 $78 forward single #
loop $-1 $-1 $79 $37 #
plane-surface $-1 -55.261696218756676 0 0 1 0 0 0 0 -1 forward_v I I I I #
face $-1 $80 $81 $29 $-1 $82 reversed single #
loop $-1 $-1 $83 $38 #
plane-surface $-1 55.261696218756676 0 0 -1 0 0 0 0 1 forward_v I I I I #
face $-1 $84 $85 $30 $-1 $86 reversed single #
loop $-1 $-1 $87 $39 #
plane-surface $-1 50.451055000289408 -92.144976150174671 92.808894577775675 -1 0 0 0 -0.57357644374324357 0.81915203911291934 forward_v I I I I #
face $-1 $88 $89 $31 $-1 $90 forward single #
loop $-1 $91 $92 $40 #
cone-surface $-1 30.51887518056126 -25.408169276242937 3.6443113778925103 0 0.57357644374324357 -0.81915203911291934 0.5 0 0 1 I I 0 1 0.5 forward I I I I #
face $-1 $93 $94 $32 $-1 $95 forward single #
loop $-1 $96 $97 $41 #
cone-surface $-1 42.478183072398146 -25.408169276242937 3.6443113778925103 0 0.57357644374324357 -0.81915203911291934 0.5 0 0 1 I I 0 1 0.5 forward I I I I #
face $-1 $98 $99 $33 $-1 $100 reversed single #
loop $-1 $-1 $101 $42 #
plane-surface $-1 -9.5865632453231306 57.863376231660204 122.02492082931064 1 0 0 0 -0.6560590369687036 -0.75470957328743171 forward_v I I I I #
face $-1 $102 $103 $34 $-1 $104 forward single #
loop $-1 $105 $106 $43 #
cone-surface $-1 -5.9755039472019789 24.144650732059645 1.8955448595358617 0 -0.6560590369687036 -0.75470957328743171 1.5 0 0 1 I I 0 1 1.5 forward I I I I #
face $-1 $107 $108 $35 $-1 $109 forward single #
loop $-1 $110 $111 $44 #
cone-surface $-1 -0.5589150000202423 24.144650732059645 1.8955448595358617 0 -0.6560590369687036 -0.75470957328743171 1.5 0 0 1 I I 0 1 1.5 forward I I I I #
face $-1 $112 $113 $27 $-1 $114 reversed single #
loop $-1 $-1 $115 $45 #
plane-surface $-1 0 0 6.3170164726046814 0 0 1 1 0 0 forward_v I I I I #
coedge $-1 $116 $117 $118 $119 reversed $46 $-1 #
face $-1 $120 $121 $28 $-1 $122 reversed single #
loop $-1 $-1 $123 $48 #
plane-surface $-1 0 0 6.3170164726046814 0 0 1 1 0 0 forward_v I I I I #
coedge $-1 $124 $125 $126 $127 forward $49 $-1 #
face $-1 $128 $129 $29 $-1 $130 reversed single #
loop $-1 $-1 $131 $51 #
plane-surface $-1 0 -28.751361765426857 0 0 1 0 0 0 1 forward_v I I I I #
coedge $-1 $132 $133 $134 $135 forward $52 $-1 #
face $-1 $136 $137 $30 $-1 $138 reversed single #
loop $-1 $-1 $139 $54 #
plane-surface $-1 36.498529126479703 -28.751361765426864 2.2734322929092059 0 -0.57357644374324357 0.81915203911291934 1 0 0 forward_v I I I I #
coedge $-1 $140 $141 $142 $143 reversed $55 $-1 #
face $-1 $-1 $144 $31 $-1 $145 forward single #
loop $-1 $146 $147 $57 #
cone-surface $-1 30.51887518056126 -24.809000963828389 2.7886103632498482 0 0.57357644374324357 -0.81915203911291934 0.25 0 0 1 I I -0.70710678118654746 0.70710678118654746 0.25 forward I I I I #
loop $-1 $-1 $148 $40 #
coedge $-1 $92 $92 $149 $150 reversed $58 $-1 #
face $-1 $-1 $151 $32 $-1 $152 forward single #
loop $-1 $153 $154 $60 #
cone-surface $-1 42.478183072398146 -24.809000963828389 2.7886103632498482 0 0.57357644374324357 -0.81915203911291934 0.25 0 0 1 I I -0.70710678118654746 0.70710678118654746 0.25 forward I I I I #
loop $-1 $-1 $155 $41 #
coedge $-1 $97 $97 $156 $157 reversed $61 $-1 #
face $-1 $158 $159 $33 $-1 $160 reversed single #
loop $-1 $-1 $161 $63 #
plane-surface $-1 -3.2672094736111106 -14.646494173408904 38.611858484515579 0 0.6560590369687036 0.75470957328743171 1 0 0 forward_v I I I I #
coedge $-1 $162 $163 $164 $165 reversed $64 $-1 #
face $-1 $-1 $166 $34 $-1 $167 forward single #
loop $-1 $168 $169 $66 #
cone-surface $-1 -5.9755039472019789 22.169340803626142 -0.37678922808923332 0 -0.6560590369687036 -0.75470957328743171 0.75 0 0 1 I I -0.70710678118654757 0.70710678118654757 0.75 forward I I I I #
loop $-1 $-1 $170 $43 #
coedge $-1 $106 $106 $171 $172 reversed $67 $-1 #
face $-1 $-1 $173 $35 $-1 $174 forward single #
loop $-1 $175 $176 $69 #
cone-surface $-1 -0.5589150000202423 22.169340803626142 -0.37678922808923332 0 -0.6560590369687036 -0.75470957328743171 0.75 0 0 1 I I -0.70710678118654757 0.70710678118654757 0.75 forward I I I I #
loop $-1 $-1 $177 $44 #
coedge $-1 $111 $111 $178 $179 reversed $70 $-1 #
face $-1 $180 $181 $27 $-1 $182 reversed single #
loop $-1 $-1 $118 $72 #
plane-surface $-1 0 0 -6.3170164726046814 0 0 1 1 0 0 forward_v I I I I #
coedge $-1 $183 $184 $185 $186 forward $73 $-1 #
coedge $-1 $185 $75 $187 $188 reversed $46 $-1 #
coedge $-1 $75 $185 $189 $190 forward $46 $-1 #
coedge $-1 $191 $192 $75 $119 forward $113 $-1 #
edge $-1 $193 -28.751361765426857 $194 28.751361765426857 $75 $195 forward 7 unknown #
face $-1 $196 $197 $28 $-1 $198 reversed single #
loop $-1 $-1 $199 $76 #
plane-surface $-1 -60.072337437223943 -27.251361765426857 0 1 0 0 0 0 -1 forward_v I I I I #
coedge $-1 $200 $201 $124 $202 forward $77 $-1 #
coedge $-1 $203 $79 $123 $202 reversed $49 $-1 #
coedge $-1 $79 $203 $204 $205 reversed $49 $-1 #
coedge $-1 $206 $207 $79 $127 reversed $197 $-1 #
edge $-1 $208 -6.3170164726046814 $209 6.3170164726046814 $126 $210 forward 7 unknown #
face $-1 $211 $212 $29 $-1 $213 reversed single #
loop $-1 $-1 $214 $80 #
plane-surface $-1 0 0 -6.3170164726046814 0 0 1 1 0 0 forward_v I I I I #
coedge $-1 $215 $216 $217 $218 forward $81 $-1 #
coedge $-1 $217 $83 $214 $219 reversed $52 $-1 #
coedge $-1 $83 $217 $220 $221 reversed $52 $-1 #
coedge $-1 $222 $223 $83 $135 reversed $212 $-1 #
edge $-1 $224 -6.3170164726046814 $225 6.3170164726046814 $134 $226 forward 7 unknown #
face $-1 $227 $228 $30 $-1 $229 forward single #
loop $-1 $-1 $230 $84 #
plane-surface $-1 22.546003252669998 -92.144976150174671 92.808894577775675 1 0 0 0 0.57357644374324357 -0.81915203911291934 forward_v I I I I #
coedge $-1 $231 $232 $233 $234 reversed $85 $-1 #
coedge $-1 $141 $87 $235 $236 reversed $55 $-1 #
coedge $-1 $87 $140 $231 $237 reversed $55 $-1 #
coedge $-1 $233 $238 $87 $143 forward $228 $-1 #
edge $-1 $239 17.321126309660478 $240 23.09596288507084 $142 $241 forward 7 unknown #
loop $-1 $-1 $149 $88 #
plane-surface $-1 36.498529126479703 -28.751361765426864 2.2734322929092059 0 -0.57357644374324357 0.81915203911291934 1 0 0 forward_v I I I I #
loop $-1 $-1 $242 $57 #
coedge $-1 $147 $147 $148 $243 reversed $89 $-1 #
coedge $-1 $148 $148 $147 $243 forward $91 $-1 #
coedge $-1 $149 $149 $92 $150 forward $144 $-1 #
edge $-1 $244 1.7449195536988479e-015 $244 6.2831853071796022 $149 $245 forward 7 unknown #
loop $-1 $-1 $156 $93 #
plane-surface $-1 36.498529126479703 -28.751361765426864 2.2734322929092059 0 -0.57357644374324357 0.81915203911291934 1 0 0 forward_v I I I I #
loop $-1 $-1 $246 $60 #
coedge $-1 $154 $154 $155 $247 reversed $94 $-1 #
coedge $-1 $155 $155 $154 $247 forward $96 $-1 #
coedge $-1 $156 $156 $97 $157 forward $151 $-1 #
edge $-1 $248 1.7449195536988479e-015 $248 6.2831853071796022 $156 $249 forward 7 unknown #
face $-1 $250 $251 $33 $-1 $252 reversed single #
loop $-1 $-1 $253 $98 #
plane-surface $-1 3.0521442981009095 57.863376231660204 122.02492082931064 -1 0 0 0 0.6560590369687036 0.75470957328743171 forward_v I I I I #
coedge $-1 $254 $255 $256 $257 reversed $99 $-1 #
coedge $-1 $163 $101 $258 $259 reversed $64 $-1 #
coedge $-1 $101 $162 $254 $260 reversed $64 $-1 #
coedge $-1 $256 $261 $101 $165 forward $262 $-1 #
edge $-1 $263 0.18032635040324507 $264 6.4272171157236961 $164 $265 forward 7 unknown #
loop $-1 $-1 $171 $102 #
plane-surface $-1 -3.2672094736111106 -14.646494173408904 38.611858484515579 0 0.6560590369687036 0.75470957328743171 1 0 0 forward_v I I I I #
loop $-1 $-1 $266 $66 #
coedge $-1 $169 $169 $170 $267 reversed $103 $-1 #
coedge $-1 $170 $170 $169 $267 forward $105 $-1 #
coedge $-1 $171 $171 $106 $172 forward $166 $-1 #
edge $-1 $268 1.5481357925619894e-016 $268 6.2831853071796004 $171 $269 forward 7 unknown #
loop $-1 $-1 $178 $107 #
plane-surface $-1 -3.2672094736111106 -14.646494173408904 38.611858484515579 0 0.6560590369687036 0.75470957328743171 1 0 0 forward_v I I I I #
loop $-1 $-1 $270 $69 #
coedge $-1 $176 $176 $177 $271 reversed $108 $-1 #
coedge $-1 $177 $177 $176 $271 forward $110 $-1 #
coedge $-1 $178 $178 $111 $179 forward $173 $-1 #
edge $-1 $272 1.5481357925619894e-016 $272 6.2831853071796004 $178 $273 forward 7 unknown #
face $-1 $274 $275 $27 $-1 $276 reversed single #
loop $-1 $-1 $277 $112 #
plane-surface $-1 0 -28.751361765426857 0 0 1 0 0 0 1 forward_v I I I I #
coedge $-1 $278 $115 $279 $280 forward $73 $-1 #
coedge $-1 $115 $278 $281 $282 forward $73 $-1 #
coedge $-1 $117 $116 $115 $186 reversed $46 $-1 #
edge $-1 $283 -28.751361765426857 $284 28.751361765426857 $185 $285 forward 7 unknown #
coedge $-1 $286 $279 $116 $188 forward $287 $-1 #
edge $-1 $284 -6.3170164726046814 $193 6.3170164726046814 $116 $288 forward 7 unknown #
coedge $-1 $281 $289 $117 $190 reversed $181 $-1 #
edge $-1 $283 -6.3170164726046814 $194 6.3170164726046814 $117 $290 forward 7 unknown #
coedge $-1 $291 $118 $289 $292 forward $113 $-1 #
coedge $-1 $118 $291 $286 $293 forward $113 $-1 #
vertex $-1 $119 $294 #
vertex $-1 $190 $295 #
straight-curve $-1 55.261696218756676 0 -6.3170164726046814 0 -1 0 I I #
face $-1 $296 $297 $28 $-1 $298 reversed single #
loop $-1 $-1 $126 $120 #
plane-surface $-1 -57.667016827990309 -25.751361765426857 0 0 -1 0 0 0 -1 forward_v I I I I #
coedge $-1 $299 $300 $301 $302 forward $121 $-1 #
coedge $-1 $303 $123 $207 $304 forward $77 $-1 #
coedge $-1 $123 $303 $305 $306 forward $77 $-1 #
edge $-1 $307 -28.751361765426857 $209 -25.751361765426857 $123 $308 forward 7 unknown #
coedge $-1 $125 $124 $309 $310 reversed $49 $-1 #
coedge $-1 $311 $312 $125 $205 forward $297 $-1 #
edge $-1 $208 25.751361765426857 $313 28.751361765426857 $204 $314 forward 7 unknown #
coedge $-1 $301 $126 $312 $315 reversed $197 $-1 #
coedge $-1 $126 $301 $200 $304 reversed $197 $-1 #
vertex $-1 $205 $316 #
vertex $-1 $304 $317 #
straight-curve $-1 -55.261696218756676 -25.751361765426857 0 0 0 1 I I #
face $-1 $318 $319 $29 $-1 $320 reversed single #
loop $-1 $-1 $321 $128 #
plane-surface $-1 57.667016827990317 -25.751361765426857 0 0 -1 0 0 0 -1 forward_v I I I I #
coedge $-1 $322 $323 $132 $219 forward $129 $-1 #
coedge $-1 $324 $131 $323 $325 reversed $81 $-1 #
coedge $-1 $131 $324 $326 $327 reversed $81 $-1 #
coedge $-1 $133 $132 $131 $218 reversed $52 $-1 #
edge $-1 $328 -6.3170164726046814 $329 6.3170164726046814 $131 $330 forward 7 unknown #
edge $-1 $329 -28.751361765426857 $225 -25.751361765426857 $214 $331 forward 7 unknown #
coedge $-1 $326 $332 $133 $221 forward $333 $-1 #
edge $-1 $224 25.751361765426857 $328 28.751361765426857 $220 $334 forward 7 unknown #
coedge $-1 $321 $134 $332 $335 reversed $212 $-1 #
coedge $-1 $134 $321 $322 $336 reversed $212 $-1 #
vertex $-1 $221 $337 #
vertex $-1 $336 $338 #
straight-curve $-1 55.261696218756676 -25.751361765426857 0 0 0 -1 I I #
face $-1 $-1 $339 $30 $-1 $340 reversed single #
loop $-1 $-1 $142 $136 #
plane-surface $-1 0 0 6.3170164726046814 0 0 1 1 0 0 forward_v I I I I #
coedge $-1 $341 $342 $343 $344 reversed $137 $-1 #
coedge $-1 $345 $139 $141 $237 forward $85 $-1 #
coedge $-1 $139 $345 $341 $346 forward $85 $-1 #
coedge $-1 $343 $142 $139 $234 forward $228 $-1 #
edge $-1 $240 -32.201790437049553 $347 -4.2967386894301463 $233 $348 forward 7 unknown #
coedge $-1 $349 $350 $140 $236 forward $339 $-1 #
edge $-1 $351 -44.131014995978624 $239 -40.08743081628316 $235 $352 forward 7 unknown #
edge $-1 $240 -7.0497737900574435 $351 -8.6223355153435888e-015 $141 $353 forward 7 unknown #
coedge $-1 $142 $343 $349 $354 forward $228 $-1 #
vertex $-1 $143 $355 #
vertex $-1 $143 $356 #
straight-curve $-1 50.451055000289408 -46.072488075087335 6.3170164726046778 0 1 0 I I #
coedge $-1 $242 $242 $-1 $357 reversed $146 $-1 #
edge $-1 $358 0 $358 6.2831853071796004 $147 $359 forward 7 unknown #
vertex $-1 $150 $360 #
ellipse-curve $-1 30.51887518056126 -25.863943477721676 4.2952243827569463 0 -0.57357644374324357 0.81915203911291934 0.5 0 0 1 I I #
coedge $-1 $246 $246 $-1 $361 reversed $153 $-1 #
edge $-1 $362 0 $362 6.2831853071796004 $154 $363 forward 7 unknown #
vertex $-1 $157 $364 #
ellipse-curve $-1 42.478183072398146 -25.863943477721676 4.2952243827569463 0 -0.57357644374324357 0.81915203911291934 0.5 0 0 1 I I #
face $-1 $-1 $262 $33 $-1 $365 forward single #
loop $-1 $-1 $366 $158 #
plane-surface $-1 0 28.751361765426857 0 0 -1 0 0 0 -1 forward_v I I I I #
coedge $-1 $367 $368 $369 $370 reversed $159 $-1 #
coedge $-1 $371 $161 $163 $260 forward $99 $-1 #
coedge $-1 $161 $371 $367 $372 forward $99 $-1 #
coedge $-1 $369 $164 $161 $257 forward $262 $-1 #
edge $-1 $264 -7.9529585085175754 $373 4.6857490349064648 $256 $374 forward 7 unknown #
coedge $-1 $375 $376 $162 $259 forward $251 $-1 #
edge $-1 $377 -60.125783352869234 $263 -54.695443942050645 $258 $378 forward 7 unknown #
edge $-1 $264 49.225512022710674 $377 57.502723530853707 $163 $379 forward 7 unknown #
coedge $-1 $164 $369 $375 $380 forward $262 $-1 #
loop $-1 $-1 $369 $250 #
vertex $-1 $259 $381 #
vertex $-1 $165 $382 #
straight-curve $-1 -9.5865632453231306 28.931688115830102 6.3170164726046778 0 -1 0 I I #
coedge $-1 $266 $266 $-1 $383 reversed $168 $-1 #
edge $-1 $384 0 $384 6.2831853071796004 $169 $385 forward 7 unknown #
vertex $-1 $172 $386 #
ellipse-curve $-1 -5.9755039472019789 25.627916382766628 3.6018467671953873 0 0.6560590369687036 0.75470957328743171 1.5 0 0 1 I I #
coedge $-1 $270 $270 $-1 $387 reversed $175 $-1 #
edge $-1 $388 0 $388 6.2831853071796004 $176 $389 forward 7 unknown #
vertex $-1 $179 $390 #
ellipse-curve $-1 -0.5589150000202423 25.627916382766628 3.6018467671953873 0 0.6560590369687036 0.75470957328743171 1.5 0 0 1 I I #
face $-1 $-1 $287 $27 $-1 $391 reversed single #
loop $-1 $-1 $392 $180 #
plane-surface $-1 -55.261696218756676 0 0 1 0 0 0 0 -1 forward_v I I I I #
coedge $-1 $289 $281 $393 $394 forward $181 $-1 #
coedge $-1 $184 $183 $392 $395 forward $73 $-1 #
coedge $-1 $187 $396 $183 $280 reversed $287 $-1 #
edge $-1 $284 -55.261696218756676 $397 55.261696218756676 $279 $398 forward 7 unknown #
coedge $-1 $277 $189 $184 $282 reversed $181 $-1 #
edge $-1 $399 -55.261696218756676 $283 55.261696218756676 $281 $400 forward 7 unknown #
vertex $-1 $186 $401 #
vertex $-1 $186 $402 #
straight-curve $-1 55.261696218756676 0 6.3170164726046814 0 1 0 I I #
coedge $-1 $396 $187 $192 $293 reversed $287 $-1 #
loop $-1 $-1 $187 $274 #
straight-curve $-1 55.261696218756676 28.751361765426857 0 0 0 -1 I I #
coedge $-1 $189 $277 $191 $292 reversed $181 $-1 #
straight-curve $-1 55.261696218756676 -28.751361765426857 0 0 0 -1 I I #
coedge $-1 $192 $191 $403 $404 forward $113 $-1 #
edge $-1 $194 -55.261696218756676 $405 55.261696218756676 $289 $406 forward 7 unknown #
edge $-1 $407 -55.261696218756676 $193 55.261696218756676 $286 $408 forward 7 unknown #
point $-1 55.261696218756676 28.751361765426857 -6.3170164726046814 #
point $-1 55.261696218756676 -28.751361765426857 -6.3170164726046814 #
face $-1 $-1 $409 $28 $-1 $410 reversed single #
loop $-1 $-1 $204 $196 #
plane-surface $-1 0 0 -6.3170164726046814 0 0 1 1 0 0 forward_v I I I I #
coedge $-1 $411 $199 $412 $413 reversed $121 $-1 #
coedge $-1 $199 $411 $303 $414 reversed $121 $-1 #
coedge $-1 $207 $206 $199 $302 reversed $197 $-1 #
edge $-1 $415 -6.3170164726046814 $416 6.3170164726046814 $301 $417 forward 7 unknown #
coedge $-1 $201 $200 $300 $414 forward $77 $-1 #
edge $-1 $209 -2.4053206092336339 $415 2.4053206092336339 $207 $418 forward 7 unknown #
coedge $-1 $419 $309 $201 $306 reversed $409 $-1 #
edge $-1 $420 -60.072337437223943 $307 -55.261696218756676 $305 $421 forward 7 unknown #
vertex $-1 $310 $422 #
straight-curve $-1 -55.261696218756676 0 6.3170164726046814 0 1 0 I I #
coedge $-1 $305 $423 $203 $310 forward $409 $-1 #
edge $-1 $313 -6.3170164726046814 $307 6.3170164726046814 $309 $424 forward 7 unknown #
coedge $-1 $412 $204 $423 $425 forward $297 $-1 #
coedge $-1 $204 $412 $206 $315 forward $297 $-1 #
vertex $-1 $425 $426 #
straight-curve $-1 -55.261696218756676 0 -6.3170164726046814 0 -1 0 I I #
edge $-1 $416 -2.4053206092336339 $208 2.4053206092336339 $206 $427 forward 7 unknown #
point $-1 -55.261696218756676 -25.751361765426857 -6.3170164726046814 #
point $-1 -55.261696218756676 -25.751361765426857 6.3170164726046814 #
face $-1 $-1 $333 $29 $-1 $428 forward single #
loop $-1 $-1 $429 $211 #
plane-surface $-1 60.07233743722395 -27.251361765426857 0 -1 0 0 0 0 1 forward_v I I I I #
coedge $-1 $223 $222 $430 $431 forward $212 $-1 #
coedge $-1 $432 $214 $223 $336 forward $129 $-1 #
coedge $-1 $214 $432 $215 $325 forward $129 $-1 #
coedge $-1 $216 $215 $429 $433 reversed $81 $-1 #
edge $-1 $434 -2.4053206092336339 $329 2.405320609233641 $215 $435 forward 7 unknown #
coedge $-1 $436 $220 $216 $327 forward $333 $-1 #
edge $-1 $328 -2.405320609233641 $437 2.4053206092336339 $216 $438 forward 7 unknown #
vertex $-1 $327 $439 #
vertex $-1 $219 $440 #
straight-curve $-1 55.261696218756676 -28.751361765426857 0 0 0 -1 I I #
straight-curve $-1 55.261696218756676 0 -6.3170164726046814 0 1 0 I I #
coedge $-1 $220 $436 $222 $335 forward $333 $-1 #
loop $-1 $-1 $220 $318 #
straight-curve $-1 55.261696218756676 0 6.3170164726046814 0 -1 0 I I #
edge $-1 $441 -2.4053206092336339 $224 2.4053206092336339 $222 $442 forward 7 unknown #
edge $-1 $225 -2.4053206092336339 $443 2.4053206092336339 $223 $444 forward 7 unknown #
point $-1 55.261696218756683 -25.751361765426857 6.3170164726046814 #
point $-1 55.261696218756683 -25.751361765426857 -6.3170164726046814 #
loop $-1 $-1 $235 $227 #
plane-surface $-1 0 -28.751361765426857 0 0 1 0 0 0 1 forward_v I I I I #
coedge $-1 $342 $230 $232 $346 reversed $137 $-1 #
coedge $-1 $230 $341 $445 $446 reversed $137 $-1 #
coedge $-1 $238 $233 $230 $344 forward $228 $-1 #
edge $-1 $347 -23.09596288507084 $447 -17.321126309660478 $343 $448 forward 7 unknown #
coedge $-1 $232 $231 $350 $449 reversed $85 $-1 #
edge $-1 $450 8.6223355153435888e-015 $347 7.0497737900574435 $341 $451 forward 7 unknown #
vertex $-1 $234 $452 #
straight-curve $-1 18.249264563239851 -22.976525190016496 6.3170164726046814 -1 0 0 I I #
coedge $-1 $445 $235 $238 $354 reversed $339 $-1 #
coedge $-1 $235 $445 $345 $449 forward $339 $-1 #
vertex $-1 $236 $453 #
straight-curve $-1 50.451055000289408 -28.751361765426857 46.404447288887837 0 0 1 I I #
straight-curve $-1 50.451055000289408 -28.751361765426864 2.2734322929092059 0 -0.81915203911291934 -0.57357644374324357 I I #
edge $-1 $447 -35.121013575320319 $239 -7.2159618277009088 $349 $454 forward 7 unknown #
point $-1 50.451055000289408 -28.751361765426857 6.3170164726046814 #
point $-1 50.451055000289408 -22.976525190016496 6.3170164726046814 #
edge $-1 $455 1 $455 0 $242 $-1 forward 7 unknown #
vertex $-1 $243 $456 #
ellipse-curve $-1 30.51887518056126 -24.952395074764201 2.9933983730280782 0 -0.57357644374324357 0.81915203911291934 0.5 0 0 1 I I #
point $-1 31.01887518056126 -25.863943477721673 4.2952243827569427 #
edge $-1 $457 1 $457 0 $246 $-1 forward 7 unknown #
vertex $-1 $247 $458 #
ellipse-curve $-1 42.478183072398146 -24.952395074764201 2.9933983730280782 0 -0.57357644374324357 0.81915203911291934 0.5 0 0 1 I I #
point $-1 42.978183072398146 -25.863943477721673 4.2952243827569427 #
plane-surface $-1 0 0 6.3170164726046814 0 0 1 1 0 0 forward_v I I I I #
coedge $-1 $376 $375 $368 $459 forward $251 $-1 #
coedge $-1 $368 $253 $255 $372 reversed $159 $-1 #
coedge $-1 $253 $367 $366 $459 reversed $159 $-1 #
coedge $-1 $261 $256 $253 $370 forward $262 $-1 #
edge $-1 $373 -6.4272171157236961 $460 -0.18032635040324507 $369 $461 forward 7 unknown #
coedge $-1 $255 $254 $376 $462 reversed $99 $-1 #
edge $-1 $463 -57.502723530853707 $373 -49.225512022710674 $367 $464 forward 7 unknown #
vertex $-1 $257 $465 #
straight-curve $-1 -1.6336047368055553 22.504471000106399 6.3170164726046849 1 0 0 I I #
coedge $-1 $366 $258 $261 $380 reversed $251 $-1 #
coedge $-1 $258 $366 $371 $462 forward $251 $-1 #
vertex $-1 $259 $466 #
straight-curve $-1 -9.5865632453231306 28.751361765426857 61.012460414655322 0 0 1 I I #
straight-curve $-1 -9.5865632453231306 -14.646494173408904 38.611858484515579 0 0.75470957328743171 -0.6560590369687036 I I #
edge $-1 $460 -3.0521442981009095 $263 9.5865632453231306 $375 $467 forward 7 unknown #
point $-1 -9.5865632453231306 28.751361765426857 6.3170164726046814 #
point $-1 -9.5865632453231306 22.504471000106406 6.3170164726046778 #
edge $-1 $468 1 $468 0 $266 $-1 forward 7 unknown #
vertex $-1 $267 $469 #
ellipse-curve $-1 -5.9755039472019789 22.66138508135267 0.18924295187634044 0 0.6560590369687036 0.75470957328743171 1.5 0 0 1 I I #
point $-1 -4.4755039472019789 25.627916382766625 3.6018467671953829 #
edge $-1 $470 1 $470 0 $270 $-1 forward 7 unknown #
vertex $-1 $271 $471 #
ellipse-curve $-1 -0.5589150000202423 22.66138508135267 0.18924295187634044 0 0.6560590369687036 0.75470957328743171 1.5 0 0 1 I I #
point $-1 0.9410849999797577 25.627916382766625 3.6018467671953829 #
plane-surface $-1 0 28.751361765426857 0 0 -1 0 0 0 -1 forward_v I I I I #
coedge $-1 $472 $393 $278 $395 reversed $275 $-1 #
coedge $-1 $392 $403 $277 $394 reversed $275 $-1 #
edge $-1 $399 -6.3170164726046814 $405 6.3170164726046814 $393 $473 forward 7 unknown #
edge $-1 $397 -28.751361765426857 $399 28.751361765426857 $392 $474 forward 7 unknown #
coedge $-1 $279 $286 $472 $475 reversed $287 $-1 #
vertex $-1 $280 $476 #
straight-curve $-1 0 28.751361765426857 6.3170164726046814 -1 0 0 I I #
vertex $-1 $395 $477 #
straight-curve $-1 0 -28.751361765426857 6.3170164726046814 1 0 0 I I #
point $-1 55.261696218756676 -28.751361765426857 6.3170164726046814 #
point $-1 55.261696218756676 28.751361765426857 6.3170164726046814 #
coedge $-1 $393 $472 $291 $404 reversed $275 $-1 #
edge $-1 $405 -28.751361765426857 $407 28.751361765426857 $403 $478 forward 7 unknown #
vertex $-1 $404 $479 #
straight-curve $-1 0 -28.751361765426857 -6.3170164726046814 -1 0 0 I I #
vertex $-1 $293 $480 #
straight-curve $-1 0 28.751361765426857 -6.3170164726046814 1 0 0 I I #
loop $-1 $-1 $309 $296 #
plane-surface $-1 0 -28.751361765426857 0 0 1 0 0 0 1 forward_v I I I I #
coedge $-1 $300 $299 $419 $481 reversed $121 $-1 #
coedge $-1 $312 $311 $299 $413 forward $297 $-1 #
edge $-1 $482 -1.5 $416 1.5 $299 $483 forward 7 unknown #
edge $-1 $415 -1.5 $420 1.5 $300 $484 forward 7 unknown #
vertex $-1 $304 $485 #
vertex $-1 $315 $486 #
straight-curve $-1 -60.072337437223943 -25.751361765426857 0 0 0 -1 I I #
straight-curve $-1 -57.667016827990309 -25.751361765426857 6.3170164726046814 -1 0 0 I I #
coedge $-1 $423 $305 $411 $481 forward $409 $-1 #
vertex $-1 $414 $487 #
straight-curve $-1 0 -28.751361765426857 6.3170164726046814 1 0 0 I I #
point $-1 -55.261696218756676 -28.751361765426857 6.3170164726046814 #
coedge $-1 $309 $419 $311 $425 reversed $409 $-1 #
straight-curve $-1 -55.261696218756676 -28.751361765426857 0 0 0 1 I I #
edge $-1 $313 -2.4053206092336339 $482 2.4053206092336339 $423 $488 forward 7 unknown #
point $-1 -55.261696218756676 -28.751361765426857 -6.3170164726046814 #
straight-curve $-1 -57.667016827990309 -25.751361765426857 -6.3170164726046814 1 0 0 I I #
plane-surface $-1 0 0 6.3170164726046814 0 0 1 1 0 0 forward_v I I I I #
coedge $-1 $489 $490 $324 $433 forward $319 $-1 #
coedge $-1 $490 $489 $321 $431 reversed $319 $-1 #
edge $-1 $441 -6.3170164726046814 $443 6.3170164726046814 $430 $491 forward 7 unknown #
coedge $-1 $323 $322 $489 $492 forward $129 $-1 #
edge $-1 $437 -6.3170164726046814 $434 6.3170164726046814 $429 $493 forward 7 unknown #
vertex $-1 $433 $494 #
straight-curve $-1 57.667016827990317 -28.751361765426857 -6.3170164726046814 -1 0 0 I I #
coedge $-1 $332 $326 $490 $495 forward $333 $-1 #
vertex $-1 $495 $496 #
straight-curve $-1 57.667016827990317 -28.751361765426857 6.3170164726046814 1 0 0 I I #
point $-1 55.261696218756676 -28.751361765426857 6.3170164726046814 #
point $-1 55.261696218756676 -28.751361765426857 -6.3170164726046814 #
vertex $-1 $495 $497 #
straight-curve $-1 57.667016827990317 -25.751361765426857 6.3170164726046814 -1 0 0 I I #
vertex $-1 $492 $498 #
straight-curve $-1 57.667016827990317 -25.751361765426857 -6.3170164726046814 1 0 0 I I #
coedge $-1 $350 $349 $342 $446 forward $339 $-1 #
edge $-1 $447 40.08743081628316 $450 44.131014995978624 $445 $499 forward 7 unknown #
vertex $-1 $354 $500 #
straight-curve $-1 22.546003252669998 -46.072488075087335 6.3170164726046778 0 -1 0 I I #
edge $-1 $450 4.2967386894301463 $351 32.201790437049553 $350 $501 forward 7 unknown #
vertex $-1 $449 $502 #
straight-curve $-1 22.546003252669998 -28.751361765426864 2.2734322929092059 0 0.81915203911291934 0.57357644374324357 I I #
point $-1 22.546003252669998 -22.976525190016496 6.3170164726046814 #
point $-1 50.451055000289408 -28.751361765426857 2.2734322929092108 #
straight-curve $-1 57.667016827990317 -28.751361765426857 6.3170164726046814 1 0 0 I I #
vertex $-1 $357 $503 #
point $-1 31.01887518056126 -24.952395074764201 2.9933983730280782 #
vertex $-1 $361 $504 #
point $-1 42.978183072398146 -24.952395074764201 2.9933983730280782 #
edge $-1 $460 54.695443942050645 $463 60.125783352869234 $366 $505 forward 7 unknown #
vertex $-1 $380 $506 #
straight-curve $-1 3.0521442981009095 28.931688115830102 6.3170164726046778 0 1 0 I I #
edge $-1 $463 -4.6857490349064648 $377 7.9529585085175754 $376 $507 forward 7 unknown #
vertex $-1 $462 $508 #
straight-curve $-1 3.0521442981009095 -14.646494173408904 38.611858484515579 0 -0.75470957328743171 0.6560590369687036 I I #
point $-1 3.0521442981009095 22.504471000106406 6.3170164726046778 #
point $-1 -9.5865632453231306 28.751361765426857 0.88667706178608796 #
straight-curve $-1 0 28.751361765426857 6.3170164726046814 -1 0 0 I I #
vertex $-1 $383 $509 #
point $-1 -4.4755039472019789 22.66138508135267 0.18924295187634044 #
vertex $-1 $387 $510 #
point $-1 0.9410849999797577 22.66138508135267 0.18924295187634044 #
coedge $-1 $403 $392 $396 $475 forward $275 $-1 #
straight-curve $-1 -55.261696218756676 -28.751361765426857 0 0 0 -1 I I #
straight-curve $-1 -55.261696218756676 0 6.3170164726046814 0 -1 0 I I #
edge $-1 $397 -6.3170164726046814 $407 6.3170164726046814 $396 $511 forward 7 unknown #
point $-1 -55.261696218756676 28.751361765426857 6.3170164726046814 #
point $-1 -55.261696218756676 -28.751361765426857 6.3170164726046814 #
straight-curve $-1 -55.261696218756676 0 -6.3170164726046814 0 1 0 I I #
point $-1 -55.261696218756676 -28.751361765426857 -6.3170164726046814 #
point $-1 -55.261696218756676 28.751361765426857 -6.3170164726046814 #
edge $-1 $420 -6.3170164726046814 $482 6.3170164726046814 $411 $512 forward 7 unknown #
vertex $-1 $413 $513 #
straight-curve $-1 -60.072337437223943 -27.251361765426857 -6.3170164726046814 0 1 0 I I #
straight-curve $-1 -60.072337437223943 -27.251361765426857 6.3170164726046814 0 -1 0 I I #
point $-1 -60.072337437223943 -25.751361765426857 6.3170164726046814 #
point $-1 -60.072337437223943 -25.751361765426857 -6.3170164726046814 #
point $-1 -60.072337437223943 -28.751361765426857 6.3170164726046814 #
straight-curve $-1 -57.667016827990309 -28.751361765426857 -6.3170164726046814 -1 0 0 I I #
coedge $-1 $430 $429 $432 $492 reversed $319 $-1 #
coedge $-1 $429 $430 $436 $495 reversed $319 $-1 #
straight-curve $-1 60.07233743722395 -25.751361765426857 0 0 0 -1 I I #
edge $-1 $443 -1.5 $434 1.5 $489 $514 forward 7 unknown #
straight-curve $-1 60.07233743722395 -28.751361765426857 0 0 0 -1 I I #
point $-1 60.07233743722395 -28.751361765426857 -6.3170164726046814 #
edge $-1 $437 -1.5 $441 1.5 $490 $515 forward 7 unknown #
point $-1 60.07233743722395 -28.751361765426857 6.3170164726046814 #
point $-1 60.07233743722395 -25.751361765426857 6.3170164726046814 #
point $-1 60.07233743722395 -25.751361765426857 -6.3170164726046814 #
straight-curve $-1 22.546003252669998 -28.751361765426857 46.404447288887837 0 0 -1 I I #
point $-1 22.546003252669998 -28.751361765426857 6.3170164726046814 #
straight-curve $-1 18.249264563239851 -28.751361765426857 2.2734322929092117 1 0 0 I I #
point $-1 22.546003252669998 -28.751361765426857 2.2734322929092108 #
point $-1 30.51887518056126 -24.665606852892576 2.5838223534716183 #
point $-1 42.478183072398146 -24.665606852892576 2.5838223534716183 #
straight-curve $-1 3.0521442981009095 28.751361765426857 61.012460414655322 0 0 -1 I I #
point $-1 3.0521442981009095 28.751361765426857 6.3170164726046814 #
straight-curve $-1 -1.6336047368055553 28.751361765426854 0.88667706178608441 -1 0 0 I I #
point $-1 3.0521442981009095 28.751361765426857 0.88667706178608796 #
point $-1 -5.9755039472019789 21.677296525899614 -0.94282140805480708 #
point $-1 -0.5589150000202423 21.677296525899614 -0.94282140805480708 #
straight-curve $-1 -55.261696218756676 28.751361765426857 0 0 0 -1 I I #
straight-curve $-1 -60.072337437223943 -28.751361765426857 0 0 0 -1 I I #
point $-1 -60.072337437223943 -28.751361765426857 -6.3170164726046814 #
straight-curve $-1 60.07233743722395 -27.251361765426857 -6.3170164726046814 0 -1 0 I I #
straight-curve $-1 60.07233743722395 -27.251361765426857 6.3170164726046814 0 1 0 I I #
End-of-ACIS-data 