500 0 6 0           
7 Unknown 11 ACIS 5.0 NT 24 Fri Mar 26 19:33:39 1999 
-1 9.9999999999999995e-007 1e-010 
body $-1 $6 $-1 $7 #
body $-1 $8 $-1 $9 #
body $-1 $10 $-1 $11 #
body $-1 $12 $-1 $13 #
body $-1 $14 $-1 $15 #
body $-1 $16 $-1 $17 #
lump $-1 $-1 $18 $0 #
transform $-1 1 0 0 0 1 0 0 0 1 42.462233344523455 17.739486632176156 4.8421809255301609 1 rotate no_reflect no_shear #
lump $-1 $-1 $19 $1 #
transform $-1 1 0 0 0 1 0 0 0 1 42.462233344523455 17.739486632176156 4.8421809255301609 1 rotate no_reflect no_shear #
lump $-1 $-1 $20 $2 #
transform $-1 1 0 0 0 1 0 0 0 1 42.462233344523455 17.739486632176156 4.8421809255301609 1 rotate no_reflect no_shear #
lump $-1 $-1 $21 $3 #
transform $-1 1 0 0 0 1 0 0 0 1 42.462233344523455 17.739486632176156 4.8421809255301609 1 rotate no_reflect no_shear #
lump $-1 $-1 $22 $4 #
transform $-1 1 0 0 0 1 0 0 0 1 42.462233344523455 17.739486632176156 4.8421809255301609 1 rotate no_reflect no_shear #
lump $-1 $-1 $23 $5 #
transform $-1 1 0 0 0 1 0 0 0 1 42.462233344523455 17.739486632176156 4.8421809255301609 1 rotate no_reflect no_shear #
shell $-1 $-1 $-1 $24 $-1 $6 #
shell $-1 $-1 $-1 $25 $-1 $8 #
shell $-1 $-1 $-1 $26 $-1 $10 #
shell $-1 $-1 $-1 $27 $-1 $12 #
shell $-1 $-1 $-1 $28 $-1 $14 #
shell $-1 $-1 $-1 $29 $-1 $16 #
face $-1 $30 $31 $18 $-1 $32 forward single #
face $-1 $33 $34 $19 $-1 $35 reversed single #
face $-1 $36 $37 $20 $-1 $38 reversed single #
face $-1 $39 $40 $21 $-1 $41 forward single #
face $-1 $42 $43 $22 $-1 $44 reversed single #
face $-1 $45 $46 $23 $-1 $47 forward single #
face $-1 $48 $49 $18 $-1 $50 reversed single #
loop $-1 $-1 $51 $24 #
plane-surface $-1 0 0 4.8421809255301609 0 0 1 1 0 0 forward_v I I I I #
face $-1 $52 $53 $19 $-1 $54 reversed single #
loop $-1 $-1 $55 $25 #
plane-surface $-1 -39.357586592419992 0 1.8421809255301609 0 0 1 1 0 0 forward_v I I I I #
face $-1 $56 $57 $20 $-1 $58 reversed single #
loop $-1 $-1 $59 $26 #
plane-surface $-1 44.558292038407401 0 121.70523018441389 0 -1 0 -0.71933980857756763 0 -0.69465836192734942 forward_v I I I I #
face $-1 $60 $61 $21 $-1 $62 forward single #
loop $-1 $63 $64 $27 #
cone-surface $-1 39.949474877443791 -3.5229419031452966 2.3070518045314081 -0.71933980857756763 0 -0.69465836192734942 0.69465836192734942 0 -0.71933980857756763 1 I I 0 1 1 forward I I I I #
face $-1 $65 $66 $22 $-1 $67 reversed single #
loop $-1 $-1 $68 $28 #
plane-surface $-1 44.558292038407401 10.693602825885565 121.70523018441389 0 1 0 0.71933980857756763 0 0.69465836192734942 forward_v I I I I #
face $-1 $69 $70 $23 $-1 $71 forward single #
loop $-1 $72 $73 $29 #
cone-surface $-1 39.949474877443791 14.216544729030861 2.3070518045314081 -0.71933980857756763 0 -0.69465836192734942 0.69465836192734942 0 -0.71933980857756763 1 I I 0 1 1 forward I I I I #
face $-1 $74 $75 $18 $-1 $76 reversed single #
loop $-1 $-1 $77 $30 #
plane-surface $-1 0 0 -4.8421809255301609 0 0 1 1 0 0 forward_v I I I I #
coedge $-1 $78 $79 $80 $81 forward $31 $-1 #
face $-1 $82 $83 $19 $-1 $84 reversed single #
loop $-1 $-1 $85 $33 #
plane-surface $-1 -36.252939840316529 0 3.3421809255301609 -1 0 0 0 0 1 forward_v I I I I #
coedge $-1 $86 $87 $88 $89 forward $34 $-1 #
face $-1 $90 $91 $20 $-1 $92 reversed single #
loop $-1 $-1 $93 $36 #
plane-surface $-1 -16.531257573243622 -3.5229419031452966 62.711739266646816 0.71933980857756763 0 0.69465836192734942 0.69465836192734942 0 -0.71933980857756763 forward_v I I I I #
coedge $-1 $94 $95 $96 $97 reversed $37 $-1 #
face $-1 $-1 $98 $21 $-1 $99 forward single #
loop $-1 $100 $101 $39 #
cone-surface $-1 38.631801181638778 -3.5229419031452966 1.0345891378361545 -0.71933980857756763 0 -0.69465836192734942 0.34732918096367471 0 -0.35966990428878381 1 I I -0.70710678118654746 0.70710678118654746 0.5 forward I I I I #
loop $-1 $-1 $102 $27 #
coedge $-1 $64 $64 $103 $104 reversed $40 $-1 #
face $-1 $105 $106 $22 $-1 $107 reversed single #
loop $-1 $-1 $108 $42 #
plane-surface $-1 -16.531257573243622 14.216544729030861 62.711739266646816 0.71933980857756763 0 0.69465836192734942 0.69465836192734942 0 -0.71933980857756763 forward_v I I I I #
coedge $-1 $109 $110 $111 $112 reversed $43 $-1 #
face $-1 $-1 $113 $23 $-1 $114 forward single #
loop $-1 $115 $116 $45 #
cone-surface $-1 38.631801181638778 14.216544729030861 1.0345891378361545 -0.71933980857756763 0 -0.69465836192734942 0.34732918096367471 0 -0.35966990428878381 1 I I -0.70710678118654746 0.70710678118654746 0.5 forward I I I I #
loop $-1 $-1 $117 $29 #
coedge $-1 $73 $73 $118 $119 reversed $46 $-1 #
face $-1 $120 $121 $18 $-1 $122 reversed single #
loop $-1 $-1 $123 $48 #
plane-surface $-1 0 -17.739486632176156 0 0 1 0 0 0 1 forward_v I I I I #
coedge $-1 $124 $125 $126 $127 forward $49 $-1 #
coedge $-1 $128 $51 $129 $130 forward $31 $-1 #
coedge $-1 $51 $128 $131 $132 forward $31 $-1 #
coedge $-1 $133 $134 $51 $81 reversed $135 $-1 #
edge $-1 $136 -17.739486632176156 $137 17.739486632176156 $80 $138 forward 7 unknown #
face $-1 $139 $140 $19 $-1 $141 reversed single #
loop $-1 $-1 $142 $52 #
plane-surface $-1 0 17.739486632176156 0 0 -1 0 0 0 -1 forward_v I I I I #
coedge $-1 $88 $143 $144 $145 reversed $53 $-1 #
coedge $-1 $146 $55 $147 $148 reversed $34 $-1 #
coedge $-1 $55 $146 $149 $150 reversed $34 $-1 #
coedge $-1 $151 $85 $55 $89 reversed $53 $-1 #
edge $-1 $152 -17.739486632176156 $153 17.739486632176156 $88 $154 forward 7 unknown #
face $-1 $155 $156 $20 $-1 $157 forward single #
loop $-1 $-1 $158 $56 #
plane-surface $-1 44.558292038407401 -7.0458838062905933 121.70523018441389 0 1 0 0.71933980857756763 0 0.69465836192734942 forward_v I I I I #
coedge $-1 $159 $160 $161 $162 reversed $57 $-1 #
coedge $-1 $95 $59 $163 $164 reversed $37 $-1 #
coedge $-1 $59 $94 $159 $165 reversed $37 $-1 #
coedge $-1 $161 $166 $59 $97 forward $156 $-1 #
edge $-1 $167 -20.183087325319754 $168 -17.073577974192879 $96 $169 forward 7 unknown #
loop $-1 $-1 $103 $60 #
plane-surface $-1 -16.531257573243622 -3.5229419031452966 62.711739266646816 0.71933980857756763 0 0.69465836192734942 0.69465836192734942 0 -0.71933980857756763 forward_v I I I I #
loop $-1 $-1 $170 $39 #
coedge $-1 $101 $101 $102 $171 reversed $61 $-1 #
coedge $-1 $102 $102 $101 $171 forward $63 $-1 #
coedge $-1 $103 $103 $64 $104 forward $98 $-1 #
edge $-1 $172 0 $172 6.2831853071796004 $103 $173 forward 7 unknown #
face $-1 $174 $175 $22 $-1 $176 reversed single #
loop $-1 $-1 $111 $65 #
plane-surface $-1 42.462233344523455 0 0 -1 0 0 0 0 1 forward_v I I I I #
coedge $-1 $177 $178 $179 $180 reversed $66 $-1 #
coedge $-1 $110 $68 $181 $182 reversed $43 $-1 #
coedge $-1 $68 $109 $177 $183 reversed $43 $-1 #
coedge $-1 $179 $184 $68 $112 forward $106 $-1 #
edge $-1 $185 56.010434166676788 $186 59.230425437211153 $111 $187 forward 7 unknown #
loop $-1 $-1 $118 $69 #
plane-surface $-1 -16.531257573243622 14.216544729030861 62.711739266646816 0.71933980857756763 0 0.69465836192734942 0.69465836192734942 0 -0.71933980857756763 forward_v I I I I #
loop $-1 $-1 $188 $45 #
coedge $-1 $116 $116 $117 $189 reversed $70 $-1 #
coedge $-1 $117 $117 $116 $189 forward $72 $-1 #
coedge $-1 $118 $118 $73 $119 forward $113 $-1 #
edge $-1 $190 0 $190 6.2831853071796004 $118 $191 forward 7 unknown #
face $-1 $192 $193 $18 $-1 $194 reversed single #
loop $-1 $-1 $195 $74 #
plane-surface $-1 -42.462233344523455 0 0 1 0 0 0 0 -1 forward_v I I I I #
coedge $-1 $196 $131 $197 $198 forward $75 $-1 #
coedge $-1 $199 $77 $196 $200 forward $49 $-1 #
coedge $-1 $77 $199 $201 $202 forward $49 $-1 #
coedge $-1 $134 $133 $77 $127 reversed $135 $-1 #
edge $-1 $203 -17.739486632176156 $204 17.739486632176156 $126 $205 forward 7 unknown #
coedge $-1 $79 $78 $206 $207 forward $31 $-1 #
coedge $-1 $208 $209 $78 $130 reversed $193 $-1 #
edge $-1 $137 -42.462233344523455 $210 42.462233344523455 $129 $211 forward 7 unknown #
coedge $-1 $123 $212 $79 $132 reversed $75 $-1 #
edge $-1 $213 -42.462233344523455 $136 42.462233344523455 $131 $214 forward 7 unknown #
coedge $-1 $126 $80 $212 $215 forward $135 $-1 #
coedge $-1 $80 $126 $208 $216 reversed $135 $-1 #
loop $-1 $-1 $133 $192 #
vertex $-1 $81 $217 #
vertex $-1 $81 $218 #
straight-curve $-1 42.462233344523455 0 4.8421809255301609 0 1 0 I I #
face $-1 $219 $220 $19 $-1 $221 forward single #
loop $-1 $-1 $222 $82 #
plane-surface $-1 -42.462233344523455 0 0 1 0 0 0 0 -1 forward_v I I I I #
coedge $-1 $149 $223 $151 $224 forward $83 $-1 #
coedge $-1 $85 $151 $225 $226 reversed $53 $-1 #
coedge $-1 $227 $147 $85 $145 forward $228 $-1 #
edge $-1 $153 0.17109046276508044 $229 3.1710904627650804 $144 $230 forward 7 unknown #
coedge $-1 $87 $86 $222 $231 reversed $34 $-1 #
coedge $-1 $144 $232 $86 $148 forward $228 $-1 #
edge $-1 $233 -22.783440048313459 $153 -16.574146544106533 $147 $234 forward 7 unknown #
coedge $-1 $235 $142 $87 $150 forward $83 $-1 #
edge $-1 $152 16.574146544106533 $236 22.783440048313459 $149 $237 forward 7 unknown #
coedge $-1 $143 $88 $142 $224 reversed $53 $-1 #
vertex $-1 $150 $238 #
vertex $-1 $148 $239 #
straight-curve $-1 -36.252939840316529 0 1.8421809255301609 0 -1 0 I I #
face $-1 $-1 $240 $20 $-1 $241 reversed single #
loop $-1 $-1 $96 $90 #
plane-surface $-1 0 0 4.8421809255301609 0 0 1 1 0 0 forward_v I I I I #
coedge $-1 $242 $243 $244 $245 reversed $91 $-1 #
coedge $-1 $246 $93 $95 $165 forward $57 $-1 #
coedge $-1 $93 $246 $242 $247 forward $57 $-1 #
coedge $-1 $244 $96 $93 $162 forward $156 $-1 #
edge $-1 $168 -1.7614709515726483 $248 5.284412854717945 $161 $249 forward 7 unknown #
coedge $-1 $250 $251 $94 $164 forward $240 $-1 #
edge $-1 $252 -59.230425437211153 $167 -56.010434166676788 $163 $253 forward 7 unknown #
edge $-1 $168 80.44815211262771 $252 84.924466689046909 $95 $254 forward 7 unknown #
coedge $-1 $96 $244 $250 $255 forward $156 $-1 #
vertex $-1 $164 $256 #
vertex $-1 $97 $257 #
straight-curve $-1 22.279146019203701 0 4.8421809255301582 -1 0 0 I I #
coedge $-1 $170 $170 $-1 $258 reversed $100 $-1 #
edge $-1 $259 0 $259 6.2831853071796004 $101 $260 forward 7 unknown #
vertex $-1 $104 $261 #
ellipse-curve $-1 40.907478668960003 -3.5229419031452966 3.2321852902629753 0.71933980857756763 0 0.69465836192734942 0.69465836192734942 0 -0.71933980857756763 1 I I #
face $-1 $-1 $262 $22 $-1 $263 forward single #
loop $-1 $-1 $264 $105 #
plane-surface $-1 0 17.739486632176156 0 0 -1 0 0 0 -1 forward_v I I I I #
coedge $-1 $265 $108 $110 $183 forward $66 $-1 #
coedge $-1 $108 $265 $264 $266 reversed $66 $-1 #
coedge $-1 $267 $111 $108 $180 forward $106 $-1 #
edge $-1 $186 3.585330461370134 $268 10.631214267660726 $179 $269 forward 7 unknown #
coedge $-1 $270 $271 $109 $182 forward $262 $-1 #
edge $-1 $272 17.073577974192879 $185 20.183087325319754 $181 $273 forward 7 unknown #
edge $-1 $186 -84.924466689046909 $272 -80.44815211262771 $110 $274 forward 7 unknown #
coedge $-1 $111 $267 $270 $275 reversed $106 $-1 #
vertex $-1 $275 $276 #
vertex $-1 $112 $277 #
straight-curve $-1 42.462233344523455 10.693602825885565 60.852615092206946 0 0 -1 I I #
coedge $-1 $188 $188 $-1 $278 reversed $115 $-1 #
edge $-1 $279 0 $279 6.2831853071796004 $116 $280 forward 7 unknown #
vertex $-1 $119 $281 #
ellipse-curve $-1 40.907478668960003 14.216544729030861 3.2321852902629753 0.71933980857756763 0 0.69465836192734942 0.69465836192734942 0 -0.71933980857756763 1 I I #
face $-1 $-1 $135 $18 $-1 $282 reversed single #
loop $-1 $-1 $208 $120 #
plane-surface $-1 0 17.739486632176156 0 0 -1 0 0 0 -1 forward_v I I I I #
coedge $-1 $283 $206 $209 $284 forward $121 $-1 #
coedge $-1 $212 $123 $124 $200 reversed $75 $-1 #
coedge $-1 $206 $283 $123 $198 reversed $121 $-1 #
edge $-1 $213 -4.8421809255301609 $285 4.8421809255301609 $197 $286 forward 7 unknown #
coedge $-1 $125 $124 $283 $287 forward $49 $-1 #
edge $-1 $204 -42.462233344523455 $285 42.462233344523455 $196 $288 forward 7 unknown #
coedge $-1 $209 $208 $125 $202 reversed $193 $-1 #
edge $-1 $289 -42.462233344523455 $203 42.462233344523455 $201 $290 forward 7 unknown #
vertex $-1 $127 $291 #
vertex $-1 $215 $292 #
straight-curve $-1 42.462233344523455 0 -4.8421809255301609 0 -1 0 I I #
coedge $-1 $195 $197 $128 $207 reversed $121 $-1 #
edge $-1 $210 -17.739486632176156 $213 17.739486632176156 $206 $293 forward 7 unknown #
coedge $-1 $201 $129 $134 $216 forward $193 $-1 #
coedge $-1 $129 $201 $195 $284 reversed $193 $-1 #
vertex $-1 $130 $294 #
straight-curve $-1 0 17.739486632176156 4.8421809255301609 -1 0 0 I I #
coedge $-1 $131 $196 $133 $215 reversed $75 $-1 #
vertex $-1 $207 $295 #
straight-curve $-1 0 -17.739486632176156 4.8421809255301609 1 0 0 I I #
edge $-1 $136 -4.8421809255301609 $204 4.8421809255301609 $133 $296 forward 7 unknown #
edge $-1 $137 -4.8421809255301609 $203 4.8421809255301609 $134 $297 forward 7 unknown #
point $-1 42.462233344523455 -17.739486632176156 4.8421809255301609 #
point $-1 42.462233344523455 17.739486632176156 4.8421809255301609 #
face $-1 $-1 $228 $19 $-1 $298 reversed single #
loop $-1 $-1 $225 $139 #
plane-surface $-1 0 0 4.8421809255301609 0 0 1 1 0 0 forward_v I I I I #
coedge $-1 $299 $300 $146 $231 forward $140 $-1 #
coedge $-1 $142 $235 $301 $302 reversed $83 $-1 #
edge $-1 $303 -3.1710904627650804 $152 -0.17109046276508044 $142 $304 forward 7 unknown #
coedge $-1 $301 $305 $143 $226 forward $220 $-1 #
edge $-1 $229 -17.739486632176156 $303 17.739486632176156 $225 $306 forward 7 unknown #
coedge $-1 $232 $144 $305 $307 reversed $228 $-1 #
loop $-1 $-1 $144 $219 #
vertex $-1 $145 $308 #
straight-curve $-1 -36.252939840316529 -17.739486632176156 1.6710904627650804 0 0 1 I I #
edge $-1 $236 -17.739486632176156 $233 17.739486632176156 $222 $309 forward 7 unknown #
coedge $-1 $147 $227 $299 $310 forward $228 $-1 #
vertex $-1 $231 $311 #
straight-curve $-1 -19.678793296209996 -17.739486632176156 1.8421809255301609 1 0 0 I I #
coedge $-1 $223 $149 $300 $312 reversed $83 $-1 #
vertex $-1 $231 $313 #
straight-curve $-1 -19.678793296209996 17.739486632176156 1.8421809255301609 -1 0 0 I I #
point $-1 -36.252939840316529 17.739486632176156 1.8421809255301609 #
point $-1 -36.252939840316529 -17.739486632176156 1.8421809255301609 #
loop $-1 $-1 $163 $155 #
plane-surface $-1 42.462233344523455 0 0 -1 0 0 0 0 1 forward_v I I I I #
coedge $-1 $243 $158 $160 $247 reversed $91 $-1 #
coedge $-1 $158 $242 $314 $315 reversed $91 $-1 #
coedge $-1 $166 $161 $158 $245 forward $156 $-1 #
edge $-1 $248 17.073577974192879 $316 20.183087325319754 $244 $317 forward 7 unknown #
coedge $-1 $160 $159 $251 $318 reversed $57 $-1 #
edge $-1 $319 -84.924466689046909 $248 -80.44815211262771 $242 $320 forward 7 unknown #
vertex $-1 $162 $321 #
straight-curve $-1 39.35272399339658 -1.7614709515726483 4.8421809255301582 0 -1 0 I I #
coedge $-1 $314 $163 $166 $255 reversed $240 $-1 #
coedge $-1 $163 $314 $246 $318 forward $240 $-1 #
vertex $-1 $164 $322 #
straight-curve $-1 42.462233344523455 0 60.852615092206946 0 0 1 I I #
straight-curve $-1 -16.531257573243622 0 62.711739266646816 0.69465836192734942 0 -0.71933980857756763 I I #
edge $-1 $316 -7.0458838062905933 $167 0 $250 $323 forward 7 unknown #
point $-1 42.462233344523455 0 4.8421809255301609 #
point $-1 39.35272399339658 0 4.8421809255301582 #
edge $-1 $324 1 $324 0 $170 $-1 forward 7 unknown #
vertex $-1 $171 $325 #
ellipse-curve $-1 38.991471085927564 -3.5229419031452966 1.3819183187998292 0.71933980857756763 0 0.69465836192734942 0.69465836192734942 0 -0.71933980857756763 1 I I #
point $-1 41.602137030887363 -3.5229419031452966 2.5128454816854191 #
loop $-1 $-1 $181 $174 #
plane-surface $-1 0 0 4.8421809255301609 0 0 1 1 0 0 forward_v I I I I #
coedge $-1 $326 $327 $178 $266 forward $175 $-1 #
coedge $-1 $178 $177 $271 $328 reversed $66 $-1 #
edge $-1 $268 -56.627153276014624 $329 -52.15083869959544 $264 $330 forward 7 unknown #
coedge $-1 $184 $179 $327 $331 reversed $106 $-1 #
vertex $-1 $266 $332 #
straight-curve $-1 42.462233344523455 7.1082723645154307 1.6221896549957968 0 1 0 I I #
coedge $-1 $333 $181 $184 $275 forward $262 $-1 #
coedge $-1 $181 $333 $265 $328 forward $262 $-1 #
vertex $-1 $182 $334 #
straight-curve $-1 22.279146019203701 10.693602825885565 4.8421809255301582 1 0 0 I I #
straight-curve $-1 -16.531257573243622 10.693602825885565 62.711739266646816 -0.69465836192734942 0 0.71933980857756763 I I #
edge $-1 $185 10.693602825885565 $335 17.739486632176156 $184 $336 forward 7 unknown #
point $-1 42.462233344523455 10.693602825885565 4.8421809255301609 #
point $-1 42.462233344523455 10.693602825885565 1.6221896549957933 #
edge $-1 $337 1 $337 0 $188 $-1 forward 7 unknown #
vertex $-1 $189 $338 #
ellipse-curve $-1 38.991471085927564 14.216544729030861 1.3819183187998292 0.71933980857756763 0 0.69465836192734942 0.69465836192734942 0 -0.71933980857756763 1 I I #
point $-1 41.602137030887363 14.216544729030861 2.5128454816854191 #
plane-surface $-1 42.462233344523455 0 0 -1 0 0 0 0 1 forward_v I I I I #
coedge $-1 $197 $195 $199 $287 reversed $121 $-1 #
edge $-1 $210 -4.8421809255301609 $289 4.8421809255301609 $209 $339 forward 7 unknown #
vertex $-1 $287 $340 #
straight-curve $-1 -42.462233344523455 -17.739486632176156 0 0 0 -1 I I #
edge $-1 $285 -17.739486632176156 $289 17.739486632176156 $283 $341 forward 7 unknown #
straight-curve $-1 0 -17.739486632176156 -4.8421809255301609 -1 0 0 I I #
vertex $-1 $202 $342 #
straight-curve $-1 0 17.739486632176156 -4.8421809255301609 1 0 0 I I #
point $-1 42.462233344523455 17.739486632176156 -4.8421809255301609 #
point $-1 42.462233344523455 -17.739486632176156 -4.8421809255301609 #
straight-curve $-1 -42.462233344523455 0 4.8421809255301609 0 -1 0 I I #
point $-1 -42.462233344523455 17.739486632176156 4.8421809255301609 #
point $-1 -42.462233344523455 -17.739486632176156 4.8421809255301609 #
straight-curve $-1 42.462233344523455 -17.739486632176156 0 0 0 -1 I I #
straight-curve $-1 42.462233344523455 17.739486632176156 0 0 0 -1 I I #
plane-surface $-1 0 -17.739486632176156 0 0 1 0 0 0 1 forward_v I I I I #
coedge $-1 $343 $222 $232 $310 reversed $140 $-1 #
coedge $-1 $222 $343 $235 $312 forward $140 $-1 #
coedge $-1 $344 $225 $223 $302 forward $220 $-1 #
edge $-1 $303 36.252939840316529 $345 42.462233344523455 $223 $346 forward 7 unknown #
vertex $-1 $302 $347 #
straight-curve $-1 -36.252939840316529 17.739486632176156 1.6710904627650804 0 0 -1 I I #
coedge $-1 $225 $344 $227 $307 forward $220 $-1 #
straight-curve $-1 -36.252939840316529 0 4.8421809255301609 0 1 0 I I #
edge $-1 $348 -42.462233344523455 $229 -36.252939840316529 $227 $349 forward 7 unknown #
point $-1 -36.252939840316529 -17.739486632176156 4.8421809255301609 #
straight-curve $-1 -42.462233344523455 0 1.8421809255301609 0 -1 0 I I #
edge $-1 $348 -4.8421809255301609 $233 -1.8421809255301609 $299 $350 forward 7 unknown #
point $-1 -42.462233344523455 -17.739486632176156 1.8421809255301609 #
edge $-1 $345 -4.8421809255301609 $236 -1.8421809255301609 $235 $351 forward 7 unknown #
point $-1 -42.462233344523455 17.739486632176156 1.8421809255301609 #
coedge $-1 $251 $250 $243 $315 forward $240 $-1 #
edge $-1 $316 56.010434166676788 $319 59.230425437211153 $314 $352 forward 7 unknown #
vertex $-1 $255 $353 #
straight-curve $-1 22.279146019203701 -7.0458838062905933 4.8421809255301582 1 0 0 I I #
edge $-1 $319 -5.284412854717945 $252 1.7614709515726483 $251 $354 forward 7 unknown #
vertex $-1 $318 $355 #
straight-curve $-1 -16.531257573243622 -7.0458838062905933 62.711739266646816 -0.69465836192734942 0 0.71933980857756763 I I #
point $-1 39.35272399339658 -7.0458838062905933 4.8421809255301582 #
point $-1 42.462233344523455 0 1.6221896549957933 #
straight-curve $-1 42.462233344523455 0 4.8421809255301609 0 1 0 I I #
vertex $-1 $258 $356 #
point $-1 39.68612944785491 -3.5229419031452966 0.66257851022226155 #
coedge $-1 $327 $264 $333 $357 reversed $175 $-1 #
coedge $-1 $264 $326 $267 $331 forward $175 $-1 #
edge $-1 $329 -10.631214267660729 $272 -3.585330461370134 $271 $358 forward 7 unknown #
vertex $-1 $266 $359 #
straight-curve $-1 3.1257078091981949 17.739486632176156 42.356355252856744 -0.69465836192734942 0 0.71933980857756763 I I #
edge $-1 $335 -4.8421809255301609 $268 -1.6221896549958004 $267 $360 forward 7 unknown #
point $-1 42.462233344523455 17.739486632176156 1.6221896549958004 #
coedge $-1 $271 $270 $326 $357 forward $262 $-1 #
point $-1 39.35272399339658 10.693602825885565 4.8421809255301582 #
vertex $-1 $275 $361 #
straight-curve $-1 42.462233344523455 0 4.8421809255301609 0 1 0 I I #
vertex $-1 $278 $362 #
point $-1 39.68612944785491 14.216544729030861 0.66257851022226155 #
straight-curve $-1 -42.462233344523455 17.739486632176156 0 0 0 -1 I I #
point $-1 -42.462233344523455 -17.739486632176156 -4.8421809255301609 #
straight-curve $-1 -42.462233344523455 0 -4.8421809255301609 0 1 0 I I #
point $-1 -42.462233344523455 17.739486632176156 -4.8421809255301609 #
coedge $-1 $300 $299 $344 $363 reversed $140 $-1 #
coedge $-1 $305 $301 $343 $363 forward $220 $-1 #
vertex $-1 $302 $364 #
straight-curve $-1 0 17.739486632176156 4.8421809255301609 -1 0 0 I I #
point $-1 -36.252939840316529 17.739486632176156 4.8421809255301609 #
vertex $-1 $363 $365 #
straight-curve $-1 0 -17.739486632176156 4.8421809255301609 1 0 0 I I #
straight-curve $-1 -42.462233344523455 -17.739486632176156 0 0 0 -1 I I #
straight-curve $-1 -42.462233344523455 17.739486632176156 0 0 0 -1 I I #
straight-curve $-1 42.462233344523455 -7.0458838062905933 60.852615092206946 0 0 -1 I I #
point $-1 42.462233344523455 -7.0458838062905933 4.8421809255301609 #
straight-curve $-1 42.462233344523455 -1.7614709515726483 1.6221896549957968 0 1 0 I I #
point $-1 42.462233344523455 -7.0458838062905933 1.6221896549957933 #
point $-1 38.272131277349992 -3.5229419031452966 0.68725995687247976 #
edge $-1 $335 -42.462233344523455 $329 -39.35272399339658 $326 $366 forward 7 unknown #
straight-curve $-1 39.35272399339658 7.1082723645154307 4.8421809255301582 0 -1 0 I I #
point $-1 39.35272399339658 17.73948663217616 4.8421809255301582 #
straight-curve $-1 42.462233344523455 17.739486632176156 0 0 0 -1 I I #
point $-1 42.462233344523455 17.739486632176156 4.8421809255301609 #
point $-1 38.272131277349992 14.216544729030861 0.68725995687247976 #
edge $-1 $345 -17.739486632176156 $348 17.739486632176156 $343 $367 forward 7 unknown #
point $-1 -42.462233344523455 17.739486632176156 4.8421809255301609 #
point $-1 -42.462233344523455 -17.739486632176156 4.8421809255301609 #
straight-curve $-1 0 17.739486632176156 4.8421809255301609 -1 0 0 I I #
straight-curve $-1 -42.462233344523455 0 4.8421809255301609 0 -1 0 I I #
End-of-ACIS-data 