500 0 9 0           
7 Unknown 11 ACIS 5.0 NT 24 Thu Mar 25 20:17:44 1999 
-1 9.9999999999999995e-007 1e-010 
body $-1 $9 $-1 $10 #
body $-1 $11 $-1 $12 #
body $-1 $13 $-1 $14 #
body $-1 $15 $-1 $16 #
body $-1 $17 $-1 $18 #
body $-1 $19 $-1 $20 #
body $-1 $21 $-1 $22 #
body $-1 $23 $-1 $24 #
body $-1 $25 $-1 $26 #
lump $-1 $-1 $27 $0 #
transform $-1 1 0 0 0 1 0 0 0 1 74.069643238624224 39.880784961620776 16.137556926362802 1 rotate no_reflect no_shear #
lump $-1 $-1 $28 $1 #
transform $-1 1 0 0 0 1 0 0 0 1 74.069643238624224 39.880784961620776 16.137556926362802 1 rotate no_reflect no_shear #
lump $-1 $-1 $29 $2 #
transform $-1 1 0 0 0 1 0 0 0 1 74.069643238624224 39.880784961620776 16.137556926362802 1 rotate no_reflect no_shear #
lump $-1 $-1 $30 $3 #
transform $-1 1 0 0 0 1 0 0 0 1 74.069643238624224 39.880784961620776 16.137556926362802 1 rotate no_reflect no_shear #
lump $-1 $-1 $31 $4 #
transform $-1 1 0 0 0 1 0 0 0 1 74.069643238624224 39.880784961620776 16.137556926362802 1 rotate no_reflect no_shear #
lump $-1 $-1 $32 $5 #
transform $-1 1 0 0 0 1 0 0 0 1 74.069643238624224 39.880784961620776 16.137556926362802 1 rotate no_reflect no_shear #
lump $-1 $-1 $33 $6 #
transform $-1 1 0 0 0 1 0 0 0 1 74.069643238624224 39.880784961620776 16.137556926362802 1 rotate no_reflect no_shear #
lump $-1 $-1 $34 $7 #
transform $-1 1 0 0 0 1 0 0 0 1 74.069643238624224 39.880784961620776 16.137556926362802 1 rotate no_reflect no_shear #
lump $-1 $-1 $35 $8 #
transform $-1 1 0 0 0 1 0 0 0 1 74.069643238624224 39.880784961620776 16.137556926362802 1 rotate no_reflect no_shear #
shell $-1 $-1 $-1 $36 $-1 $9 #
shell $-1 $-1 $-1 $37 $-1 $11 #
shell $-1 $-1 $-1 $38 $-1 $13 #
shell $-1 $-1 $-1 $39 $-1 $15 #
shell $-1 $-1 $-1 $40 $-1 $17 #
shell $-1 $-1 $-1 $41 $-1 $19 #
shell $-1 $-1 $-1 $42 $-1 $21 #
shell $-1 $-1 $-1 $43 $-1 $23 #
shell $-1 $-1 $-1 $44 $-1 $25 #
face $-1 $45 $46 $27 $-1 $47 forward single #
face $-1 $48 $49 $28 $-1 $50 forward single #
face $-1 $51 $52 $29 $-1 $53 reversed single #
face $-1 $54 $55 $30 $-1 $56 forward single #
face $-1 $57 $58 $31 $-1 $59 forward single #
face $-1 $60 $61 $32 $-1 $62 reversed single #
face $-1 $63 $64 $33 $-1 $65 forward single #
face $-1 $66 $67 $34 $-1 $68 forward single #
face $-1 $69 $70 $35 $-1 $71 forward single #
face $-1 $72 $73 $27 $-1 $74 reversed single #
loop $-1 $-1 $75 $36 #
plane-surface $-1 0 0 16.137556926362802 0 0 1 1 0 0 forward_v I I I I #
face $-1 $76 $77 $28 $-1 $78 reversed single #
loop $-1 $-1 $79 $37 #
plane-surface $-1 0 -33.949992700267757 -0.4589626272043148 0 0 1 1 0 0 forward_v I I I I #
face $-1 $80 $81 $29 $-1 $82 reversed single #
loop $-1 $-1 $83 $38 #
plane-surface $-1 -178.81993848219389 -3.3871002920898086 107.74450269246563 0 1 0 -0.70710678939079041 0 0.70710677298230451 forward_v I I I I #
face $-1 $84 $85 $30 $-1 $86 forward single #
loop $-1 $87 $88 $39 #
cone-surface $-1 -65.79484532073495 1.1426835784503027 7.8627588954983434 0.70710678939079041 0 -0.70710677298230451 1.414213545964609 0 1.4142135787815808 1 I I 0 1 2 forward I I I I #
face $-1 $89 $90 $31 $-1 $91 forward single #
loop $-1 $92 $93 $40 #
cone-surface $-1 -65.79484532073495 7.9373593842604677 7.8627588954983434 0.70710678939079041 0 -0.70710677298230451 1.414213545964609 0 1.4142135787815808 1 I I 0 1 2 forward I I I I #
face $-1 $94 $95 $32 $-1 $96 reversed single #
loop $-1 $-1 $97 $41 #
plane-surface $-1 52.17087081052135 13.967230344612968 218.24889003107276 0 -1 0 -0.62932039886446345 0 -0.77714595512881146 forward_v I I I I #
face $-1 $98 $99 $33 $-1 $100 forward single #
loop $-1 $101 $102 $42 #
cone-surface $-1 69.627889816864155 8.0687364195384674 12.290774750352947 -0.62932039886446345 0 -0.77714595512881146 0.38857297756440573 0 -0.31466019943223172 1 I I 0 1 0.5 forward I I I I #
face $-1 $103 $104 $34 $-1 $105 forward single #
loop $-1 $106 $107 $43 #
cone-surface $-1 69.627889816864155 10.280671641441408 12.290774750352947 -0.62932039886446345 0 -0.77714595512881146 0.38857297756440573 0 -0.31466019943223172 1 I I 0 1 0.5 forward I I I I #
face $-1 $108 $109 $35 $-1 $110 forward single #
loop $-1 $111 $112 $44 #
cone-surface $-1 69.627889816864155 12.492606863344349 12.290774750352947 -0.62932039886446345 0 -0.77714595512881146 0.38857297756440573 0 -0.31466019943223172 1 I I 0 1 0.5 forward I I I I #
face $-1 $113 $114 $27 $-1 $115 reversed single #
loop $-1 $-1 $116 $45 #
plane-surface $-1 0 0 -16.137556926362802 0 0 1 1 0 0 forward_v I I I I #
coedge $-1 $117 $118 $119 $120 forward $46 $-1 #
face $-1 $121 $122 $28 $-1 $123 reversed single #
loop $-1 $-1 $124 $48 #
plane-surface $-1 0 -33.949992700267757 -8.904351392872659 0 0 1 1 0 0 forward_v I I I I #
coedge $-1 $125 $126 $127 $128 reversed $49 $-1 #
face $-1 $129 $130 $29 $-1 $131 reversed single #
loop $-1 $-1 $132 $51 #
plane-surface $-1 -74.069643238624209 4.5400214813553816 2.9942098796373386 -0.70710678939079041 0 0.70710677298230451 0.70710677298230451 0 0.70710678939079041 forward_v I I I I #
coedge $-1 $133 $134 $135 $136 reversed $52 $-1 #
face $-1 $-1 $137 $30 $-1 $138 forward single #
loop $-1 $139 $140 $54 #
cone-surface $-1 -63.384613984321234 1.1426835784503027 5.4525276150143007 0.70710678939079041 0 -0.70710677298230451 0.70710677298230451 0 0.70710678939079041 1 I I -0.70710678118654746 0.70710678118654746 1 forward I I I I #
loop $-1 $-1 $141 $39 #
coedge $-1 $88 $88 $142 $143 reversed $55 $-1 #
face $-1 $-1 $144 $31 $-1 $145 forward single #
loop $-1 $146 $147 $57 #
cone-surface $-1 -63.384613984321234 7.9373593842604677 5.4525276150143007 0.70710678939079041 0 -0.70710677298230451 0.70710677298230451 0 0.70710678939079041 1 I I -0.70710678118654746 0.70710678118654746 1 forward I I I I #
loop $-1 $-1 $148 $40 #
coedge $-1 $93 $93 $149 $150 reversed $58 $-1 #
face $-1 $151 $152 $32 $-1 $153 reversed single #
loop $-1 $-1 $154 $60 #
plane-surface $-1 -41.056204042837663 10.280671641441401 103.12304274961089 0.62932039886446345 0 0.77714595512881146 0.77714595512881146 0 -0.62932039886446345 forward_v I I I I #
coedge $-1 $155 $156 $157 $158 reversed $61 $-1 #
face $-1 $-1 $159 $33 $-1 $160 forward single #
loop $-1 $161 $162 $63 #
cone-surface $-1 68.882666488923263 8.0687364195384674 11.370500600616342 -0.62932039886446345 0 -0.77714595512881146 0.19428648878220287 0 -0.15733009971611586 1 I I -0.70710678118654746 0.70710678118654746 0.25 forward I I I I #
loop $-1 $-1 $163 $42 #
coedge $-1 $102 $102 $164 $165 reversed $64 $-1 #
face $-1 $-1 $166 $34 $-1 $167 forward single #
loop $-1 $168 $169 $66 #
cone-surface $-1 68.882666488923263 10.280671641441408 11.370500600616342 -0.62932039886446345 0 -0.77714595512881146 0.19428648878220287 0 -0.15733009971611586 1 I I -0.70710678118654746 0.70710678118654746 0.25 forward I I I I #
loop $-1 $-1 $170 $43 #
coedge $-1 $107 $107 $171 $172 reversed $67 $-1 #
face $-1 $-1 $173 $35 $-1 $174 forward single #
loop $-1 $175 $176 $69 #
cone-surface $-1 68.882666488923263 12.492606863344349 11.370500600616342 -0.62932039886446345 0 -0.77714595512881146 0.19428648878220287 0 -0.15733009971611586 1 I I -0.70710678118654746 0.70710678118654746 0.25 forward I I I I #
loop $-1 $-1 $177 $44 #
coedge $-1 $112 $112 $178 $179 reversed $70 $-1 #
face $-1 $180 $181 $27 $-1 $182 reversed single #
loop $-1 $-1 $183 $72 #
plane-surface $-1 0 -39.880784961620776 0 0 1 0 0 0 1 forward_v I I I I #
coedge $-1 $184 $185 $186 $187 forward $73 $-1 #
coedge $-1 $188 $75 $189 $190 forward $46 $-1 #
coedge $-1 $75 $188 $191 $192 forward $46 $-1 #
coedge $-1 $193 $194 $75 $120 reversed $195 $-1 #
edge $-1 $196 -39.880784961620776 $197 39.880784961620776 $119 $198 forward 7 unknown #
face $-1 $199 $200 $28 $-1 $201 reversed single #
loop $-1 $-1 $202 $76 #
plane-surface $-1 0 -28.019200438914737 -4.6816570100384869 0 -1 0 0 0 -1 forward_v I I I I #
coedge $-1 $203 $204 $205 $206 reversed $77 $-1 #
coedge $-1 $207 $79 $208 $209 forward $49 $-1 #
coedge $-1 $79 $207 $210 $211 reversed $49 $-1 #
coedge $-1 $212 $213 $79 $128 forward $214 $-1 #
edge $-1 $215 11.044204088780859 $216 22.905788611486898 $127 $217 forward 7 unknown #
face $-1 $218 $219 $29 $-1 $220 reversed single #
loop $-1 $-1 $221 $80 #
plane-surface $-1 -178.81993848219389 12.467143254800572 107.74450269246563 0 -1 0 0.70710678939079041 0 -0.70710677298230451 forward_v I I I I #
coedge $-1 $222 $223 $224 $225 reversed $81 $-1 #
coedge $-1 $134 $83 $226 $227 reversed $52 $-1 #
coedge $-1 $83 $133 $222 $228 reversed $52 $-1 #
coedge $-1 $224 $229 $83 $136 forward $230 $-1 #
edge $-1 $231 15.340326002472722 $232 28.483672744205478 $135 $233 forward 7 unknown #
loop $-1 $-1 $142 $84 #
plane-surface $-1 -74.069643238624209 4.5400214813553816 2.9942098796373386 -0.70710678939079041 0 0.70710677298230451 0.70710677298230451 0 0.70710678939079041 forward_v I I I I #
loop $-1 $-1 $234 $54 #
coedge $-1 $140 $140 $141 $235 reversed $85 $-1 #
coedge $-1 $141 $141 $140 $235 forward $87 $-1 #
coedge $-1 $142 $142 $88 $143 forward $137 $-1 #
edge $-1 $236 0 $236 6.2831853071796004 $142 $237 forward 7 unknown #
loop $-1 $-1 $149 $89 #
plane-surface $-1 -74.069643238624209 4.5400214813553816 2.9942098796373386 -0.70710678939079041 0 0.70710677298230451 0.70710677298230451 0 0.70710678939079041 forward_v I I I I #
loop $-1 $-1 $238 $57 #
coedge $-1 $147 $147 $148 $239 reversed $90 $-1 #
coedge $-1 $148 $148 $147 $239 forward $92 $-1 #
coedge $-1 $149 $149 $93 $150 forward $144 $-1 #
edge $-1 $240 0 $240 6.2831853071796004 $149 $241 forward 7 unknown #
face $-1 $242 $243 $32 $-1 $244 forward single #
loop $-1 $-1 $245 $94 #
plane-surface $-1 52.17087081052135 6.5941129382698342 218.24889003107276 0 1 0 0.62932039886446345 0 0.77714595512881146 forward_v I I I I #
coedge $-1 $246 $247 $248 $249 reversed $95 $-1 #
coedge $-1 $156 $97 $250 $251 reversed $61 $-1 #
coedge $-1 $97 $155 $246 $252 reversed $61 $-1 #
coedge $-1 $248 $253 $97 $158 forward $243 $-1 #
edge $-1 $254 -47.984207833363548 $255 -40.276487446292869 $157 $256 forward 7 unknown #
loop $-1 $-1 $164 $98 #
plane-surface $-1 -41.056204042837663 10.280671641441401 103.12304274961089 0.62932039886446345 0 0.77714595512881146 0.77714595512881146 0 -0.62932039886446345 forward_v I I I I #
loop $-1 $-1 $257 $63 #
coedge $-1 $162 $162 $163 $258 reversed $99 $-1 #
coedge $-1 $163 $163 $162 $258 forward $101 $-1 #
coedge $-1 $164 $164 $102 $165 forward $159 $-1 #
edge $-1 $259 0 $259 6.2831853071796004 $164 $260 forward 7 unknown #
loop $-1 $-1 $171 $103 #
plane-surface $-1 -41.056204042837663 10.280671641441401 103.12304274961089 0.62932039886446345 0 0.77714595512881146 0.77714595512881146 0 -0.62932039886446345 forward_v I I I I #
loop $-1 $-1 $261 $66 #
coedge $-1 $169 $169 $170 $262 reversed $104 $-1 #
coedge $-1 $170 $170 $169 $262 forward $106 $-1 #
coedge $-1 $171 $171 $107 $172 forward $166 $-1 #
edge $-1 $263 0 $263 6.2831853071796004 $171 $264 forward 7 unknown #
loop $-1 $-1 $178 $108 #
plane-surface $-1 -41.056204042837663 10.280671641441401 103.12304274961089 0.62932039886446345 0 0.77714595512881146 0.77714595512881146 0 -0.62932039886446345 forward_v I I I I #
loop $-1 $-1 $265 $69 #
coedge $-1 $176 $176 $177 $266 reversed $109 $-1 #
coedge $-1 $177 $177 $176 $266 forward $111 $-1 #
coedge $-1 $178 $178 $112 $179 forward $173 $-1 #
edge $-1 $267 0 $267 6.2831853071796004 $178 $268 forward 7 unknown #
face $-1 $269 $270 $27 $-1 $271 reversed single #
loop $-1 $-1 $272 $113 #
plane-surface $-1 -74.069643238624224 0 0 1 0 0 0 0 -1 forward_v I I I I #
coedge $-1 $273 $191 $274 $275 forward $114 $-1 #
coedge $-1 $276 $116 $273 $277 forward $73 $-1 #
coedge $-1 $116 $276 $278 $279 forward $73 $-1 #
coedge $-1 $194 $193 $116 $187 reversed $195 $-1 #
edge $-1 $280 -39.880784961620776 $281 39.880784961620776 $186 $282 forward 7 unknown #
coedge $-1 $118 $117 $283 $284 forward $46 $-1 #
coedge $-1 $285 $286 $117 $190 reversed $270 $-1 #
edge $-1 $197 -74.069643238624224 $287 74.069643238624224 $189 $288 forward 7 unknown #
coedge $-1 $183 $289 $118 $192 reversed $114 $-1 #
edge $-1 $290 -74.069643238624224 $196 74.069643238624224 $191 $291 forward 7 unknown #
coedge $-1 $186 $119 $289 $292 forward $195 $-1 #
coedge $-1 $119 $186 $285 $293 reversed $195 $-1 #
loop $-1 $-1 $193 $269 #
vertex $-1 $120 $294 #
vertex $-1 $120 $295 #
straight-curve $-1 74.069643238624224 0 16.137556926362802 0 1 0 I I #
face $-1 $296 $297 $28 $-1 $298 reversed single #
loop $-1 $-1 $299 $121 #
plane-surface $-1 -74.069643238624224 0 0 1 0 0 0 0 -1 forward_v I I I I #
coedge $-1 $300 $208 $213 $301 reversed $122 $-1 #
coedge $-1 $302 $124 $303 $304 reversed $77 $-1 #
coedge $-1 $124 $302 $300 $305 forward $77 $-1 #
coedge $-1 $213 $212 $124 $206 forward $214 $-1 #
edge $-1 $306 -22.905788611486898 $307 -11.044204088780859 $205 $308 forward 7 unknown #
coedge $-1 $126 $125 $299 $309 reversed $49 $-1 #
coedge $-1 $202 $310 $125 $209 reversed $122 $-1 #
edge $-1 $215 -74.069643238624224 $311 74.069643238624224 $208 $312 forward 7 unknown #
coedge $-1 $313 $314 $126 $211 forward $297 $-1 #
edge $-1 $216 -74.069643238624224 $315 74.069643238624224 $210 $316 forward 7 unknown #
coedge $-1 $205 $127 $314 $317 forward $214 $-1 #
coedge $-1 $127 $205 $202 $301 forward $214 $-1 #
loop $-1 $-1 $127 $296 #
vertex $-1 $128 $318 #
vertex $-1 $317 $319 #
straight-curve $-1 74.069643238624224 -16.974996350133878 -0.4589626272043148 0 -1 0 I I #
face $-1 $-1 $230 $29 $-1 $320 forward single #
loop $-1 $-1 $321 $129 #
plane-surface $-1 -74.069643238624224 0 0 1 0 0 0 0 -1 forward_v I I I I #
coedge $-1 $322 $323 $324 $325 reversed $130 $-1 #
coedge $-1 $326 $132 $134 $228 forward $81 $-1 #
coedge $-1 $132 $326 $322 $327 forward $81 $-1 #
coedge $-1 $324 $135 $132 $225 forward $230 $-1 #
edge $-1 $232 -5.6571110327674994 $328 10.197132514122881 $224 $329 forward 7 unknown #
coedge $-1 $330 $331 $133 $227 forward $219 $-1 #
edge $-1 $332 -50.878041466595491 $231 -37.73469441987001 $226 $333 forward 7 unknown #
edge $-1 $232 -18.587499432793102 $332 2.0097183471152325e-014 $134 $334 forward 7 unknown #
coedge $-1 $135 $324 $330 $335 forward $230 $-1 #
loop $-1 $-1 $324 $218 #
vertex $-1 $227 $336 #
vertex $-1 $136 $337 #
straight-curve $-1 -89.409969241096945 -3.3871002920898086 16.137556926362805 1 0 0 I I #
coedge $-1 $234 $234 $-1 $338 reversed $139 $-1 #
edge $-1 $339 0 $339 6.2831853071796004 $140 $340 forward 7 unknown #
vertex $-1 $143 $341 #
ellipse-curve $-1 -67.497969867757845 1.1426835784503027 9.5658834030000612 -0.70710678939079041 0 0.70710677298230451 1.414213545964609 0 1.4142135787815808 1 I I #
coedge $-1 $238 $238 $-1 $342 reversed $146 $-1 #
edge $-1 $343 0 $343 6.2831853071796004 $147 $344 forward 7 unknown #
vertex $-1 $150 $345 #
ellipse-curve $-1 -67.497969867757845 7.9373593842604677 9.5658834030000612 -0.70710678939079041 0 0.70710677298230451 1.414213545964609 0 1.4142135787815808 1 I I #
face $-1 $-1 $346 $32 $-1 $347 reversed single #
loop $-1 $-1 $157 $151 #
plane-surface $-1 0 0 16.137556926362802 0 0 1 1 0 0 forward_v I I I I #
coedge $-1 $348 $349 $350 $351 reversed $152 $-1 #
coedge $-1 $352 $154 $156 $252 forward $95 $-1 #
coedge $-1 $154 $352 $348 $353 forward $95 $-1 #
coedge $-1 $350 $157 $154 $249 forward $243 $-1 #
edge $-1 $255 -8.8268945238922676 $354 -1.4537771175491336 $248 $355 forward 7 unknown #
coedge $-1 $356 $357 $155 $251 forward $346 $-1 #
edge $-1 $358 -99.22847711928452 $254 -92.986888089173576 $250 $359 forward 7 unknown #
edge $-1 $255 138.22130345719515 $358 148.13928647724848 $156 $360 forward 7 unknown #
coedge $-1 $157 $350 $356 $361 forward $243 $-1 #
vertex $-1 $251 $362 #
vertex $-1 $158 $363 #
straight-curve $-1 26.085435405260675 13.967230344612968 16.137556926362805 -1 0 0 I I #
coedge $-1 $257 $257 $-1 $364 reversed $161 $-1 #
edge $-1 $365 0 $365 6.2831853071796004 $162 $366 forward 7 unknown #
vertex $-1 $165 $367 #
ellipse-curve $-1 70.215783045088898 8.0687364195384674 13.016762411307319 0.62932039886446345 0 0.77714595512881146 0.38857297756440573 0 -0.31466019943223172 1 I I #
coedge $-1 $261 $261 $-1 $368 reversed $168 $-1 #
edge $-1 $369 0 $369 6.2831853071796004 $169 $370 forward 7 unknown #
vertex $-1 $172 $371 #
ellipse-curve $-1 70.215783045088898 10.280671641441408 13.016762411307319 0.62932039886446345 0 0.77714595512881146 0.38857297756440573 0 -0.31466019943223172 1 I I #
coedge $-1 $265 $265 $-1 $372 reversed $175 $-1 #
edge $-1 $373 0 $373 6.2831853071796004 $176 $374 forward 7 unknown #
vertex $-1 $179 $375 #
ellipse-curve $-1 70.215783045088898 12.492606863344349 13.016762411307319 0.62932039886446345 0 0.77714595512881146 0.38857297756440573 0 -0.31466019943223172 1 I I #
face $-1 $-1 $195 $27 $-1 $376 reversed single #
loop $-1 $-1 $285 $180 #
plane-surface $-1 0 39.880784961620776 0 0 -1 0 0 0 -1 forward_v I I I I #
coedge $-1 $377 $283 $286 $378 forward $181 $-1 #
coedge $-1 $289 $183 $184 $277 reversed $114 $-1 #
coedge $-1 $283 $377 $183 $275 reversed $181 $-1 #
edge $-1 $290 -16.137556926362802 $379 16.137556926362802 $274 $380 forward 7 unknown #
coedge $-1 $185 $184 $377 $381 forward $73 $-1 #
edge $-1 $281 -74.069643238624224 $379 74.069643238624224 $273 $382 forward 7 unknown #
coedge $-1 $286 $285 $185 $279 reversed $270 $-1 #
edge $-1 $383 -74.069643238624224 $280 74.069643238624224 $278 $384 forward 7 unknown #
vertex $-1 $187 $385 #
vertex $-1 $292 $386 #
straight-curve $-1 74.069643238624224 0 -16.137556926362802 0 -1 0 I I #
coedge $-1 $272 $274 $188 $284 reversed $181 $-1 #
edge $-1 $287 -39.880784961620776 $290 39.880784961620776 $283 $387 forward 7 unknown #
coedge $-1 $278 $189 $194 $293 forward $270 $-1 #
coedge $-1 $189 $278 $272 $378 reversed $270 $-1 #
vertex $-1 $190 $388 #
straight-curve $-1 0 39.880784961620776 16.137556926362802 -1 0 0 I I #
coedge $-1 $191 $273 $193 $292 reversed $114 $-1 #
vertex $-1 $284 $389 #
straight-curve $-1 0 -39.880784961620776 16.137556926362802 1 0 0 I I #
edge $-1 $196 -16.137556926362802 $281 16.137556926362802 $193 $390 forward 7 unknown #
edge $-1 $197 -16.137556926362802 $280 16.137556926362802 $194 $391 forward 7 unknown #
point $-1 74.069643238624224 -39.880784961620776 16.137556926362802 #
point $-1 74.069643238624224 39.880784961620776 16.137556926362802 #
face $-1 $-1 $214 $28 $-1 $392 reversed single #
loop $-1 $-1 $210 $199 #
plane-surface $-1 0 -39.880784961620776 0 0 1 0 0 0 1 forward_v I I I I #
coedge $-1 $393 $394 $207 $309 forward $200 $-1 #
coedge $-1 $310 $202 $204 $305 reversed $122 $-1 #
edge $-1 $307 -6.5635228878534155 $215 1.8818658778149286 $213 $395 forward 7 unknown #
coedge $-1 $204 $203 $396 $397 reversed $77 $-1 #
coedge $-1 $314 $313 $203 $304 forward $297 $-1 #
edge $-1 $398 -74.069643238624224 $306 74.069643238624224 $303 $399 forward 7 unknown #
edge $-1 $400 -74.069643238624224 $307 74.069643238624224 $300 $401 forward 7 unknown #
vertex $-1 $304 $402 #
vertex $-1 $206 $403 #
straight-curve $-1 74.069643238624224 -16.974996350133878 -8.904351392872659 0 1 0 I I #
edge $-1 $315 -22.905788611486898 $311 -11.044204088780859 $299 $404 forward 7 unknown #
coedge $-1 $208 $300 $393 $405 reversed $122 $-1 #
vertex $-1 $309 $406 #
straight-curve $-1 0 -28.019200438914737 -0.4589626272043148 -1 0 0 I I #
coedge $-1 $303 $210 $394 $407 forward $297 $-1 #
coedge $-1 $210 $303 $212 $317 reversed $297 $-1 #
vertex $-1 $407 $408 #
straight-curve $-1 0 -39.880784961620776 -0.4589626272043148 -1 0 0 I I #
edge $-1 $216 0.4589626272043148 $306 8.904351392872659 $212 $409 forward 7 unknown #
point $-1 74.069643238624224 -28.019200438914737 -0.4589626272043148 #
point $-1 74.069643238624224 -39.880784961620776 -0.4589626272043148 #
plane-surface $-1 0 0 16.137556926362802 0 0 1 1 0 0 forward_v I I I I #
coedge $-1 $331 $330 $323 $410 forward $219 $-1 #
coedge $-1 $323 $221 $223 $327 reversed $130 $-1 #
coedge $-1 $221 $322 $321 $410 reversed $130 $-1 #
coedge $-1 $229 $224 $221 $325 forward $230 $-1 #
edge $-1 $328 -28.483672744205478 $411 -15.340326002472722 $324 $412 forward 7 unknown #
coedge $-1 $223 $222 $331 $413 reversed $81 $-1 #
edge $-1 $414 -2.0097183471152325e-014 $328 18.587499432793102 $322 $415 forward 7 unknown #
vertex $-1 $225 $416 #
straight-curve $-1 -60.926296496891467 2.2700107406776908 16.137556926362798 0 1 0 I I #
coedge $-1 $321 $226 $229 $335 reversed $219 $-1 #
coedge $-1 $226 $321 $326 $413 forward $219 $-1 #
vertex $-1 $227 $417 #
straight-curve $-1 -74.069643238624224 -3.3871002920898086 53.872251346232815 0 0 1 I I #
straight-curve $-1 -74.069643238624209 -3.3871002920898086 2.9942098796373386 -0.70710677298230451 0 -0.70710678939079041 I I #
edge $-1 $411 -12.467143254800572 $231 3.3871002920898086 $330 $418 forward 7 unknown #
point $-1 -74.069643238624224 -3.3871002920898086 16.137556926362802 #
point $-1 -60.926296496891467 -3.3871002920898086 16.137556926362802 #
edge $-1 $419 1 $419 0 $234 $-1 forward 7 unknown #
vertex $-1 $235 $420 #
ellipse-curve $-1 -64.091720773712026 1.1426835784503027 6.1596343879966051 -0.70710678939079041 0 0.70710677298230451 1.414213545964609 0 1.4142135787815808 1 I I #
point $-1 -66.08375632179326 1.1426835784503027 10.980096981781662 #
edge $-1 $421 1 $421 0 $238 $-1 forward 7 unknown #
vertex $-1 $239 $422 #
ellipse-curve $-1 -64.091720773712026 7.9373593842604677 6.1596343879966051 -0.70710678939079041 0 0.70710677298230451 1.414213545964609 0 1.4142135787815808 1 I I #
point $-1 -66.08375632179326 7.9373593842604677 10.980096981781662 #
loop $-1 $-1 $250 $242 #
plane-surface $-1 74.069643238624224 0 0 -1 0 0 0 0 1 forward_v I I I I #
coedge $-1 $349 $245 $247 $353 reversed $152 $-1 #
coedge $-1 $245 $348 $423 $424 reversed $152 $-1 #
coedge $-1 $253 $248 $245 $351 forward $243 $-1 #
edge $-1 $354 40.276487446292869 $425 47.984207833363548 $350 $426 forward 7 unknown #
coedge $-1 $247 $246 $357 $427 reversed $95 $-1 #
edge $-1 $428 -148.13928647724848 $354 -138.22130345719515 $348 $429 forward 7 unknown #
vertex $-1 $249 $430 #
straight-curve $-1 66.361922851553544 5.1403358207207006 16.137556926362805 0 -1 0 I I #
coedge $-1 $423 $250 $253 $361 reversed $346 $-1 #
coedge $-1 $250 $423 $352 $427 forward $346 $-1 #
vertex $-1 $251 $431 #
straight-curve $-1 74.069643238624224 13.967230344612968 109.12444501553638 0 0 1 I I #
straight-curve $-1 -41.056204042837663 13.967230344612968 103.12304274961089 0.77714595512881146 0 -0.62932039886446345 I I #
edge $-1 $425 6.5941129382698342 $254 13.967230344612968 $356 $432 forward 7 unknown #
point $-1 74.069643238624224 13.967230344612968 16.137556926362802 #
point $-1 66.361922851553544 13.967230344612968 16.137556926362791 #
edge $-1 $433 1 $433 0 $257 $-1 forward 7 unknown #
vertex $-1 $258 $434 #
ellipse-curve $-1 69.039996588639383 8.0687364195384674 11.564787089398544 0.62932039886446345 0 0.77714595512881146 0.38857297756440573 0 -0.31466019943223172 1 I I #
point $-1 70.604356022653334 8.0687364195384674 12.702102211875118 #
edge $-1 $435 1 $435 0 $261 $-1 forward 7 unknown #
vertex $-1 $262 $436 #
ellipse-curve $-1 69.039996588639383 10.280671641441408 11.564787089398544 0.62932039886446345 0 0.77714595512881146 0.38857297756440573 0 -0.31466019943223172 1 I I #
point $-1 70.604356022653334 10.280671641441408 12.702102211875118 #
edge $-1 $437 1 $437 0 $265 $-1 forward 7 unknown #
vertex $-1 $266 $438 #
ellipse-curve $-1 69.039996588639383 12.492606863344349 11.564787089398544 0.62932039886446345 0 0.77714595512881146 0.38857297756440573 0 -0.31466019943223172 1 I I #
point $-1 70.604356022653334 12.492606863344349 12.702102211875118 #
plane-surface $-1 74.069643238624224 0 0 -1 0 0 0 0 1 forward_v I I I I #
coedge $-1 $274 $272 $276 $381 reversed $181 $-1 #
edge $-1 $287 -16.137556926362802 $383 16.137556926362802 $286 $439 forward 7 unknown #
vertex $-1 $381 $440 #
straight-curve $-1 -74.069643238624224 -39.880784961620776 0 0 0 -1 I I #
edge $-1 $379 -39.880784961620776 $383 39.880784961620776 $377 $441 forward 7 unknown #
straight-curve $-1 0 -39.880784961620776 -16.137556926362802 -1 0 0 I I #
vertex $-1 $279 $442 #
straight-curve $-1 0 39.880784961620776 -16.137556926362802 1 0 0 I I #
point $-1 74.069643238624224 39.880784961620776 -16.137556926362802 #
point $-1 74.069643238624224 -39.880784961620776 -16.137556926362802 #
straight-curve $-1 -74.069643238624224 0 16.137556926362802 0 -1 0 I I #
point $-1 -74.069643238624224 39.880784961620776 16.137556926362802 #
point $-1 -74.069643238624224 -39.880784961620776 16.137556926362802 #
straight-curve $-1 74.069643238624224 -39.880784961620776 0 0 0 -1 I I #
straight-curve $-1 74.069643238624224 39.880784961620776 0 0 0 -1 I I #
plane-surface $-1 74.069643238624224 0 0 -1 0 0 0 0 1 forward_v I I I I #
coedge $-1 $396 $299 $310 $405 forward $200 $-1 #
coedge $-1 $299 $396 $313 $407 reversed $200 $-1 #
straight-curve $-1 74.069643238624224 -28.019200438914737 -2.3408285050192434 0 0 1 I I #
coedge $-1 $394 $393 $302 $397 forward $200 $-1 #
edge $-1 $400 11.044204088780859 $398 22.905788611486898 $396 $443 forward 7 unknown #
vertex $-1 $304 $444 #
straight-curve $-1 0 -39.880784961620776 -8.904351392872659 1 0 0 I I #
vertex $-1 $397 $445 #
straight-curve $-1 0 -28.019200438914737 -8.904351392872659 1 0 0 I I #
point $-1 74.069643238624224 -39.880784961620776 -8.904351392872659 #
point $-1 74.069643238624224 -28.019200438914737 -8.904351392872659 #
straight-curve $-1 -74.069643238624224 -16.974996350133878 -0.4589626272043148 0 1 0 I I #
edge $-1 $311 -1.8818658778149286 $400 6.5635228878534155 $393 $446 forward 7 unknown #
point $-1 -74.069643238624224 -28.019200438914737 -0.4589626272043148 #
edge $-1 $315 0.4589626272043148 $398 8.904351392872659 $394 $447 forward 7 unknown #
point $-1 -74.069643238624224 -39.880784961620776 -0.4589626272043148 #
straight-curve $-1 74.069643238624224 -39.880784961620776 0 0 0 -1 I I #
edge $-1 $411 37.73469441987001 $414 50.878041466595491 $321 $448 forward 7 unknown #
vertex $-1 $335 $449 #
straight-curve $-1 -89.409969241096945 12.467143254800572 16.137556926362805 -1 0 0 I I #
edge $-1 $414 -10.197132514122881 $332 5.6571110327674994 $331 $450 forward 7 unknown #
vertex $-1 $413 $451 #
straight-curve $-1 -74.069643238624209 12.467143254800572 2.9942098796373386 0.70710677298230451 0 0.70710678939079041 I I #
point $-1 -60.926296496891467 12.467143254800572 16.137556926362802 #
point $-1 -74.069643238624224 -3.3871002920898086 2.9942098796373244 #
straight-curve $-1 -74.069643238624224 0 16.137556926362802 0 -1 0 I I #
vertex $-1 $338 $452 #
point $-1 -62.677507227747412 1.1426835784503027 7.5738479667781862 #
vertex $-1 $342 $453 #
point $-1 -62.677507227747412 7.9373593842604677 7.5738479667781862 #
coedge $-1 $357 $356 $349 $424 forward $346 $-1 #
edge $-1 $425 92.986888089173576 $428 99.22847711928452 $423 $454 forward 7 unknown #
vertex $-1 $361 $455 #
straight-curve $-1 26.085435405260675 6.5941129382698342 16.137556926362805 1 0 0 I I #
edge $-1 $428 1.4537771175491336 $358 8.8268945238922676 $357 $456 forward 7 unknown #
vertex $-1 $427 $457 #
straight-curve $-1 -41.056204042837663 6.5941129382698342 103.12304274961089 -0.77714595512881146 0 0.62932039886446345 I I #
point $-1 66.361922851553544 6.5941129382698342 16.137556926362791 #
point $-1 74.069643238624224 13.967230344612968 9.8959678962518609 #
straight-curve $-1 74.069643238624224 0 16.137556926362802 0 1 0 I I #
vertex $-1 $364 $458 #
point $-1 69.428569566203791 8.0687364195384674 11.250126889966314 #
vertex $-1 $368 $459 #
point $-1 69.428569566203791 10.280671641441408 11.250126889966314 #
vertex $-1 $372 $460 #
point $-1 69.428569566203791 12.492606863344349 11.250126889966314 #
straight-curve $-1 -74.069643238624224 39.880784961620776 0 0 0 -1 I I #
point $-1 -74.069643238624224 -39.880784961620776 -16.137556926362802 #
straight-curve $-1 -74.069643238624224 0 -16.137556926362802 0 1 0 I I #
point $-1 -74.069643238624224 39.880784961620776 -16.137556926362802 #
straight-curve $-1 -74.069643238624224 -16.974996350133878 -8.904351392872659 0 -1 0 I I #
point $-1 -74.069643238624224 -39.880784961620776 -8.904351392872659 #
point $-1 -74.069643238624224 -28.019200438914737 -8.904351392872659 #
straight-curve $-1 -74.069643238624224 -28.019200438914737 -2.3408285050192434 0 0 -1 I I #
straight-curve $-1 -74.069643238624224 -39.880784961620776 0 0 0 -1 I I #
straight-curve $-1 -74.069643238624224 12.467143254800572 53.872251346232815 0 0 -1 I I #
point $-1 -74.069643238624224 12.467143254800572 16.137556926362802 #
straight-curve $-1 -74.069643238624224 2.2700107406776908 2.994209879637328 0 -1 0 I I #
point $-1 -74.069643238624224 12.467143254800572 2.9942098796373244 #
point $-1 -62.677507194930442 1.1426835784503027 4.7454208420319963 #
point $-1 -62.677507194930442 7.9373593842604677 4.7454208420319963 #
straight-curve $-1 74.069643238624224 6.5941129382698342 109.12444501553638 0 0 -1 I I #
point $-1 74.069643238624224 6.5941129382698342 16.137556926362802 #
straight-curve $-1 74.069643238624224 5.1403358207207006 9.8959678962518751 0 1 0 I I #
point $-1 74.069643238624224 6.5941129382698342 9.8959678962518609 #
point $-1 68.725336389207143 8.0687364195384674 11.17621411183414 #
point $-1 68.725336389207143 10.280671641441408 11.17621411183414 #
point $-1 68.725336389207143 12.492606863344349 11.17621411183414 #
End-of-ACIS-data 