500 0 3 0           
7 Unknown 11 ACIS 5.0 NT 24 Fri Mar 26 14:37:59 1999 
-1 9.9999999999999995e-007 1e-010 
body $-1 $3 $-1 $4 #
body $-1 $5 $-1 $6 #
body $-1 $7 $-1 $8 #
lump $-1 $-1 $9 $0 #
transform $-1 1 0 0 0 1 0 0 0 1 76.420789208655052 34.385740158596349 14.624879578425311 1 rotate no_reflect no_shear #
lump $-1 $-1 $10 $1 #
transform $-1 1 0 0 0 1 0 0 0 1 76.420789208655052 34.385740158596349 14.624879578425311 1 rotate no_reflect no_shear #
lump $-1 $-1 $11 $2 #
transform $-1 1 0 0 0 1 0 0 0 1 76.420789208655052 34.385740158596349 14.624879578425311 1 rotate no_reflect no_shear #
shell $-1 $-1 $-1 $12 $-1 $3 #
shell $-1 $-1 $-1 $13 $-1 $5 #
shell $-1 $-1 $-1 $14 $-1 $7 #
face $-1 $15 $16 $9 $-1 $17 forward single #
face $-1 $18 $19 $10 $-1 $20 forward single #
face $-1 $21 $22 $11 $-1 $23 reversed single #
face $-1 $24 $25 $9 $-1 $26 reversed single #
loop $-1 $-1 $27 $12 #
plane-surface $-1 0 0 14.624879578425311 0 0 1 1 0 0 forward_v I I I I #
face $-1 $28 $29 $10 $-1 $30 forward single #
loop $-1 $-1 $31 $13 #
plane-surface $-1 -195.20100588318417 19.437435026507924 104.48661278353138 0 1 0 -0.77714596973225614 0 0.62932038083071107 forward_v I I I I #
face $-1 $32 $33 $11 $-1 $34 reversed single #
loop $-1 $35 $36 $14 #
cone-surface $-1 -70.936923850734516 26.911587592552138 9.0955139898467294 0.77714596973225614 0 -0.62932038083071107 1.2586407616614221 0 1.5542919394645123 1 I I 0 1 2 forward I I I I #
face $-1 $37 $38 $9 $-1 $39 reversed single #
loop $-1 $-1 $40 $15 #
plane-surface $-1 0 0 -14.624879578425311 0 0 1 1 0 0 forward_v I I I I #
coedge $-1 $41 $42 $43 $44 forward $16 $-1 #
face $-1 $45 $46 $10 $-1 $47 forward single #
loop $-1 $-1 $48 $18 #
plane-surface $-1 -76.420789208655037 26.911587592552138 8.3002924471827981 -0.77714596973225614 0 0.62932038083071107 0.62932038083071107 0 0.77714596973225614 forward_v I I I I #
coedge $-1 $49 $50 $51 $52 reversed $19 $-1 #
face $-1 $53 $54 $11 $-1 $55 forward single #
loop $-1 $56 $57 $21 #
cone-surface $-1 -67.236687291946467 26.911587592552138 6.0991215860586934 0.77714596973225614 0 -0.62932038083071107 0.62932038083071107 0 0.77714596973225614 1 I I -0.70710678118654746 0.70710678118654746 1 forward I I I I #
loop $-1 $-1 $58 $14 #
coedge $-1 $36 $36 $59 $60 reversed $22 $-1 #
face $-1 $61 $62 $9 $-1 $63 reversed single #
loop $-1 $-1 $64 $24 #
plane-surface $-1 0 -34.385740158596349 0 0 1 0 0 0 1 forward_v I I I I #
coedge $-1 $65 $66 $67 $68 forward $25 $-1 #
coedge $-1 $69 $27 $70 $71 forward $16 $-1 #
coedge $-1 $27 $69 $72 $73 forward $16 $-1 #
coedge $-1 $74 $75 $27 $44 reversed $76 $-1 #
edge $-1 $77 -34.385740158596349 $78 34.385740158596349 $43 $79 forward 7 unknown #
face $-1 $80 $81 $10 $-1 $82 reversed single #
loop $-1 $-1 $83 $28 #
plane-surface $-1 0 0 14.624879578425311 0 0 1 1 0 0 forward_v I I I I #
coedge $-1 $84 $85 $83 $86 reversed $29 $-1 #
coedge $-1 $50 $31 $85 $87 forward $19 $-1 #
coedge $-1 $31 $49 $88 $89 reversed $19 $-1 #
coedge $-1 $90 $83 $31 $52 forward $46 $-1 #
edge $-1 $91 -26.30126327066651 $92 -21.179713732937032 $51 $93 forward 7 unknown #
face $-1 $94 $95 $11 $-1 $96 forward single #
loop $-1 $-1 $97 $32 #
plane-surface $-1 -195.20100588318417 19.437435026507924 104.48661278353138 0 1 0 -0.77714596973225614 0 0.62932038083071107 forward_v I I I I #
loop $-1 $-1 $98 $21 #
coedge $-1 $57 $57 $58 $99 forward $33 $-1 #
coedge $-1 $58 $58 $57 $99 reversed $35 $-1 #
coedge $-1 $59 $59 $36 $60 forward $95 $-1 #
edge $-1 $100 0 $100 6.2831853071796004 $59 $101 forward 7 unknown #
face $-1 $102 $103 $9 $-1 $104 reversed single #
loop $-1 $-1 $105 $37 #
plane-surface $-1 -76.420789208655052 0 0 1 0 0 0 0 -1 forward_v I I I I #
coedge $-1 $106 $72 $107 $108 forward $38 $-1 #
coedge $-1 $109 $40 $106 $110 forward $25 $-1 #
coedge $-1 $40 $109 $111 $112 forward $25 $-1 #
coedge $-1 $75 $74 $40 $68 reversed $76 $-1 #
edge $-1 $113 -34.385740158596349 $114 34.385740158596349 $67 $115 forward 7 unknown #
coedge $-1 $42 $41 $116 $117 forward $16 $-1 #
coedge $-1 $118 $119 $41 $71 reversed $103 $-1 #
edge $-1 $78 -76.420789208655052 $120 76.420789208655052 $70 $121 forward 7 unknown #
coedge $-1 $64 $122 $42 $73 reversed $38 $-1 #
edge $-1 $123 -76.420789208655052 $77 76.420789208655052 $72 $124 forward 7 unknown #
coedge $-1 $67 $43 $122 $125 forward $76 $-1 #
coedge $-1 $43 $67 $118 $126 reversed $76 $-1 #
loop $-1 $-1 $74 $102 #
vertex $-1 $44 $127 #
vertex $-1 $44 $128 #
straight-curve $-1 76.420789208655052 0 14.624879578425311 0 1 0 I I #
face $-1 $129 $130 $10 $-1 $131 reversed single #
loop $-1 $-1 $88 $45 #
plane-surface $-1 -76.420789208655052 0 0 1 0 0 0 0 -1 forward_v I I I I #
coedge $-1 $51 $132 $48 $86 forward $46 $-1 #
coedge $-1 $133 $48 $134 $135 reversed $29 $-1 #
coedge $-1 $48 $133 $49 $87 reversed $29 $-1 #
edge $-1 $136 -20.92994636232028 $91 -5.9816412302318547 $83 $137 forward 7 unknown #
edge $-1 $91 -8.1382229047928689 $138 2.2748066086763162e-014 $49 $139 forward 7 unknown #
coedge $-1 $140 $141 $50 $89 forward $81 $-1 #
edge $-1 $92 37.618426813340378 $138 43.943013944582916 $88 $142 forward 7 unknown #
coedge $-1 $143 $51 $141 $144 forward $46 $-1 #
vertex $-1 $86 $145 #
vertex $-1 $144 $146 #
straight-curve $-1 -97.600502941592083 19.437435026507924 14.624879578425308 -1 0 0 I I #
face $-1 $147 $148 $11 $-1 $149 forward single #
loop $-1 $150 $59 $53 #
plane-surface $-1 -76.420789208655037 26.911587592552138 8.3002924471827981 -0.77714596973225614 0 0.62932038083071107 0.62932038083071107 0 0.77714596973225614 forward_v I I I I #
coedge $-1 $151 $152 $153 $154 reversed $54 $-1 #
coedge $-1 $98 $98 $-1 $155 forward $56 $-1 #
edge $-1 $156 0 $156 6.2831853071796004 $57 $157 forward 7 unknown #
vertex $-1 $60 $158 #
ellipse-curve $-1 -73.860014439790305 26.911587592552138 11.462586012804049 0.77714596973225614 0 -0.62932038083071107 1.2586407616614221 0 1.5542919394645123 1 I I #
face $-1 $-1 $76 $9 $-1 $159 reversed single #
loop $-1 $-1 $118 $61 #
plane-surface $-1 0 34.385740158596349 0 0 -1 0 0 0 -1 forward_v I I I I #
coedge $-1 $160 $116 $119 $161 forward $62 $-1 #
coedge $-1 $122 $64 $65 $110 reversed $38 $-1 #
coedge $-1 $116 $160 $64 $108 reversed $62 $-1 #
edge $-1 $123 -14.624879578425311 $162 14.624879578425311 $107 $163 forward 7 unknown #
coedge $-1 $66 $65 $160 $164 forward $25 $-1 #
edge $-1 $114 -76.420789208655052 $162 76.420789208655052 $106 $165 forward 7 unknown #
coedge $-1 $119 $118 $66 $112 reversed $103 $-1 #
edge $-1 $166 -76.420789208655052 $113 76.420789208655052 $111 $167 forward 7 unknown #
vertex $-1 $68 $168 #
vertex $-1 $125 $169 #
straight-curve $-1 76.420789208655052 0 -14.624879578425311 0 -1 0 I I #
coedge $-1 $105 $107 $69 $117 reversed $62 $-1 #
edge $-1 $120 -34.385740158596349 $123 34.385740158596349 $116 $170 forward 7 unknown #
coedge $-1 $111 $70 $75 $126 forward $103 $-1 #
coedge $-1 $70 $111 $105 $161 reversed $103 $-1 #
vertex $-1 $71 $171 #
straight-curve $-1 0 34.385740158596349 14.624879578425311 -1 0 0 I I #
coedge $-1 $72 $106 $74 $125 reversed $38 $-1 #
vertex $-1 $117 $172 #
straight-curve $-1 0 -34.385740158596349 14.624879578425311 1 0 0 I I #
edge $-1 $77 -14.624879578425311 $114 14.624879578425311 $74 $173 forward 7 unknown #
edge $-1 $78 -14.624879578425311 $113 14.624879578425311 $75 $174 forward 7 unknown #
point $-1 76.420789208655052 -34.385740158596349 14.624879578425311 #
point $-1 76.420789208655052 34.385740158596349 14.624879578425311 #
face $-1 $175 $176 $10 $-1 $177 reversed single #
loop $-1 $-1 $178 $80 #
plane-surface $-1 0 0 -14.624879578425311 0 0 1 1 0 0 forward_v I I I I #
coedge $-1 $83 $179 $180 $181 forward $46 $-1 #
coedge $-1 $85 $84 $140 $182 reversed $29 $-1 #
coedge $-1 $180 $183 $84 $135 forward $184 $-1 #
edge $-1 $185 -20.821310672623568 $136 -12.683087767830674 $134 $186 forward 7 unknown #
vertex $-1 $135 $187 #
straight-curve $-1 -71.299239670925573 13.455793796276069 14.624879578425311 0 -1 0 I I #
vertex $-1 $182 $188 #
straight-curve $-1 -76.420789208655037 19.437435026507924 8.3002924471827981 -0.62932038083071107 0 -0.77714596973225614 I I #
coedge $-1 $189 $88 $133 $182 forward $81 $-1 #
coedge $-1 $88 $190 $90 $144 reversed $81 $-1 #
straight-curve $-1 -76.420789208655052 19.437435026507924 52.243306391765692 0 0 -1 I I #
coedge $-1 $179 $90 $191 $192 forward $46 $-1 #
edge $-1 $92 -19.437435026507924 $193 34.385740158596349 $141 $194 forward 7 unknown #
point $-1 -71.299239670925573 19.437435026507924 14.624879578425311 #
point $-1 -76.420789208655052 19.437435026507924 14.624879578425311 #
face $-1 $195 $196 $11 $-1 $197 reversed single #
loop $-1 $-1 $198 $94 #
plane-surface $-1 0 0 14.624879578425311 0 0 1 1 0 0 forward_v I I I I #
loop $-1 $-1 $199 $53 #
coedge $-1 $152 $97 $200 $201 forward $54 $-1 #
coedge $-1 $97 $151 $202 $203 reversed $54 $-1 #
coedge $-1 $204 $198 $97 $154 forward $148 $-1 #
edge $-1 $205 -26.30126327066651 $206 -21.179713732937032 $153 $207 forward 7 unknown #
edge $-1 $208 1 $208 0 $98 $-1 forward 7 unknown #
vertex $-1 $99 $209 #
ellipse-curve $-1 -68.013833261678727 26.911587592552138 6.7284419668894042 -0.77714596973225614 0 0.62932038083071107 1.2586407616614221 0 1.5542919394645123 1 I I #
point $-1 -72.601373678128894 26.911587592552138 13.016877952268565 #
plane-surface $-1 76.420789208655052 0 0 -1 0 0 0 0 1 forward_v I I I I #
coedge $-1 $107 $105 $109 $164 reversed $62 $-1 #
edge $-1 $120 -14.624879578425311 $166 14.624879578425311 $119 $210 forward 7 unknown #
vertex $-1 $164 $211 #
straight-curve $-1 -76.420789208655052 -34.385740158596349 0 0 0 -1 I I #
edge $-1 $162 -34.385740158596349 $166 34.385740158596349 $160 $212 forward 7 unknown #
straight-curve $-1 0 -34.385740158596349 -14.624879578425311 -1 0 0 I I #
vertex $-1 $112 $213 #
straight-curve $-1 0 34.385740158596349 -14.624879578425311 1 0 0 I I #
point $-1 76.420789208655052 34.385740158596349 -14.624879578425311 #
point $-1 76.420789208655052 -34.385740158596349 -14.624879578425311 #
straight-curve $-1 -76.420789208655052 0 14.624879578425311 0 -1 0 I I #
point $-1 -76.420789208655052 34.385740158596349 14.624879578425311 #
point $-1 -76.420789208655052 -34.385740158596349 14.624879578425311 #
straight-curve $-1 76.420789208655052 -34.385740158596349 0 0 0 -1 I I #
straight-curve $-1 76.420789208655052 34.385740158596349 0 0 0 -1 I I #
face $-1 $214 $184 $10 $-1 $215 reversed single #
loop $-1 $-1 $216 $129 #
plane-surface $-1 0 -34.385740158596349 0 0 1 0 0 0 1 forward_v I I I I #
coedge $-1 $217 $218 $219 $220 forward $130 $-1 #
coedge $-1 $132 $143 $221 $222 forward $46 $-1 #
coedge $-1 $223 $134 $132 $181 reversed $184 $-1 #
edge $-1 $224 -76.420789208655052 $136 71.299239670925573 $180 $225 forward 7 unknown #
edge $-1 $138 5.9816412302318547 $185 20.92994636232028 $140 $226 forward 7 unknown #
coedge $-1 $134 $227 $189 $228 reversed $184 $-1 #
loop $-1 $-1 $134 $175 #
vertex $-1 $228 $229 #
straight-curve $-1 -63.317514046765041 34.385740158596349 24.481490120955399 0.62932038083071107 0 0.77714596973225614 I I #
point $-1 -71.299239670925573 34.385740158596349 14.624879578425311 #
point $-1 -76.420789208655052 19.437435026507924 8.3002924471827804 #
coedge $-1 $230 $140 $183 $228 forward $81 $-1 #
coedge $-1 $141 $230 $216 $231 reversed $81 $-1 #
coedge $-1 $216 $232 $143 $192 reversed $176 $-1 #
edge $-1 $193 -76.420789208655052 $233 76.420789208655052 $191 $234 forward 7 unknown #
vertex $-1 $144 $235 #
straight-curve $-1 -76.420789208655052 0 14.624879578425311 0 -1 0 I I #
face $-1 $236 $237 $11 $-1 $238 reversed single #
loop $-1 $-1 $202 $147 #
plane-surface $-1 -76.420789208655052 0 0 1 0 0 0 0 -1 forward_v I I I I #
coedge $-1 $153 $239 $199 $240 forward $148 $-1 #
coedge $-1 $241 $200 $198 $240 reversed $150 $-1 #
coedge $-1 $199 $242 $151 $201 reversed $150 $-1 #
edge $-1 $205 -8.1382229047928689 $243 2.2748066086763162e-014 $151 $244 forward 7 unknown #
coedge $-1 $245 $246 $152 $203 forward $196 $-1 #
edge $-1 $206 37.618426813340378 $243 43.943013944582916 $202 $247 forward 7 unknown #
coedge $-1 $248 $153 $246 $249 forward $148 $-1 #
vertex $-1 $240 $250 #
vertex $-1 $249 $251 #
straight-curve $-1 -97.600502941592083 19.437435026507924 14.624879578425308 -1 0 0 I I #
vertex $-1 $155 $252 #
point $-1 -66.755192500017301 26.911587592552138 8.2827339063539167 #
straight-curve $-1 -76.420789208655052 34.385740158596349 0 0 0 -1 I I #
point $-1 -76.420789208655052 -34.385740158596349 -14.624879578425311 #
straight-curve $-1 -76.420789208655052 0 -14.624879578425311 0 1 0 I I #
point $-1 -76.420789208655052 34.385740158596349 -14.624879578425311 #
face $-1 $-1 $253 $10 $-1 $254 reversed single #
plane-surface $-1 0 34.385740158596349 0 0 -1 0 0 0 -1 forward_v I I I I #
coedge $-1 $255 $191 $190 $231 forward $176 $-1 #
coedge $-1 $256 $178 $255 $257 forward $130 $-1 #
coedge $-1 $178 $256 $227 $258 forward $130 $-1 #
coedge $-1 $259 $260 $178 $220 reversed $253 $-1 #
edge $-1 $261 -34.385740158596349 $262 34.385740158596349 $219 $263 forward 7 unknown #
coedge $-1 $260 $259 $179 $222 reversed $253 $-1 #
edge $-1 $233 -34.385740158596349 $224 34.385740158596349 $221 $264 forward 7 unknown #
coedge $-1 $227 $180 $259 $265 forward $184 $-1 #
vertex $-1 $222 $266 #
straight-curve $-1 0 34.385740158596349 14.624879578425311 -1 0 0 I I #
straight-curve $-1 -76.420789208655052 13.455793796276069 8.3002924471827679 0 1 0 I I #
coedge $-1 $183 $223 $218 $258 reversed $184 $-1 #
edge $-1 $185 -8.3002924471827804 $267 14.624879578425311 $183 $268 forward 7 unknown #
point $-1 -76.420789208655052 34.385740158596349 8.3002924471827804 #
coedge $-1 $190 $189 $256 $269 reversed $81 $-1 #
edge $-1 $193 -14.624879578425311 $270 14.624879578425311 $190 $271 forward 7 unknown #
coedge $-1 $191 $255 $260 $272 reversed $176 $-1 #
vertex $-1 $222 $273 #
straight-curve $-1 0 -34.385740158596349 14.624879578425311 1 0 0 I I #
point $-1 -76.420789208655052 -34.385740158596349 14.624879578425311 #
face $-1 $274 $275 $11 $-1 $276 reversed single #
loop $-1 $-1 $277 $195 #
plane-surface $-1 0 0 -14.624879578425311 0 0 1 1 0 0 forward_v I I I I #
coedge $-1 $198 $278 $279 $280 forward $148 $-1 #
edge $-1 $281 -20.92994636232028 $205 -5.9816412302318547 $198 $282 forward 7 unknown #
coedge $-1 $242 $199 $283 $284 reversed $150 $-1 #
coedge $-1 $200 $241 $245 $285 reversed $150 $-1 #
vertex $-1 $285 $286 #
straight-curve $-1 -76.420789208655037 19.437435026507924 8.3002924471827981 -0.62932038083071107 0 -0.77714596973225614 I I #
coedge $-1 $287 $202 $242 $285 forward $196 $-1 #
coedge $-1 $202 $288 $204 $249 reversed $196 $-1 #
straight-curve $-1 -76.420789208655052 19.437435026507924 52.243306391765692 0 0 -1 I I #
coedge $-1 $278 $204 $289 $290 forward $148 $-1 #
edge $-1 $206 -19.437435026507924 $291 34.385740158596349 $246 $292 forward 7 unknown #
point $-1 -71.299239670925573 19.437435026507924 14.624879578425311 #
point $-1 -76.420789208655052 19.437435026507924 14.624879578425311 #
point $-1 -66.459541322214207 26.911587592552138 5.4698012052279825 #
loop $-1 $-1 $260 $214 #
plane-surface $-1 76.420789208655052 0 0 -1 0 0 0 0 1 forward_v I I I I #
coedge $-1 $232 $216 $217 $257 reversed $176 $-1 #
coedge $-1 $218 $217 $230 $269 forward $130 $-1 #
edge $-1 $262 -76.420789208655052 $270 76.420789208655052 $255 $293 forward 7 unknown #
edge $-1 $267 -76.420789208655052 $261 76.420789208655052 $227 $294 forward 7 unknown #
coedge $-1 $221 $219 $223 $265 reversed $253 $-1 #
coedge $-1 $219 $221 $232 $272 forward $253 $-1 #
vertex $-1 $220 $295 #
vertex $-1 $272 $296 #
straight-curve $-1 76.420789208655052 0 -14.624879578425311 0 -1 0 I I #
straight-curve $-1 76.420789208655052 0 14.624879578425311 0 1 0 I I #
edge $-1 $224 -14.624879578425311 $261 14.624879578425311 $259 $297 forward 7 unknown #
point $-1 76.420789208655052 34.385740158596349 14.624879578425311 #
vertex $-1 $258 $298 #
straight-curve $-1 -76.420789208655052 34.385740158596349 0 0 0 -1 I I #
edge $-1 $270 -34.385740158596349 $267 34.385740158596349 $230 $299 forward 7 unknown #
vertex $-1 $269 $300 #
straight-curve $-1 -76.420789208655052 -34.385740158596349 0 0 0 -1 I I #
edge $-1 $233 -14.624879578425311 $262 14.624879578425311 $260 $301 forward 7 unknown #
point $-1 76.420789208655052 -34.385740158596349 14.624879578425311 #
face $-1 $302 $303 $11 $-1 $304 reversed single #
loop $-1 $-1 $305 $236 #
plane-surface $-1 0 -34.385740158596349 0 0 1 0 0 0 1 forward_v I I I I #
coedge $-1 $306 $307 $308 $309 forward $237 $-1 #
coedge $-1 $239 $248 $310 $311 forward $148 $-1 #
coedge $-1 $312 $283 $239 $280 reversed $303 $-1 #
edge $-1 $313 -76.420789208655052 $281 71.299239670925573 $279 $314 forward 7 unknown #
vertex $-1 $284 $315 #
straight-curve $-1 -71.299239670925573 13.455793796276069 14.624879578425311 0 -1 0 I I #
coedge $-1 $279 $316 $241 $284 forward $303 $-1 #
edge $-1 $317 -20.821310672623568 $281 -12.683087767830674 $283 $318 forward 7 unknown #
edge $-1 $243 5.9816412302318547 $317 20.92994636232028 $245 $319 forward 7 unknown #
point $-1 -76.420789208655052 19.437435026507924 8.3002924471827804 #
coedge $-1 $320 $245 $316 $321 forward $196 $-1 #
coedge $-1 $246 $320 $305 $322 reversed $196 $-1 #
coedge $-1 $305 $323 $248 $290 reversed $275 $-1 #
edge $-1 $291 -76.420789208655052 $324 76.420789208655052 $289 $325 forward 7 unknown #
vertex $-1 $249 $326 #
straight-curve $-1 -76.420789208655052 0 14.624879578425311 0 -1 0 I I #
straight-curve $-1 0 -34.385740158596349 -14.624879578425311 -1 0 0 I I #
straight-curve $-1 0 34.385740158596349 -14.624879578425311 1 0 0 I I #
point $-1 76.420789208655052 34.385740158596349 -14.624879578425311 #
point $-1 76.420789208655052 -34.385740158596349 -14.624879578425311 #
straight-curve $-1 76.420789208655052 34.385740158596349 0 0 0 -1 I I #
point $-1 -76.420789208655052 34.385740158596349 -14.624879578425311 #
straight-curve $-1 -76.420789208655052 0 -14.624879578425311 0 1 0 I I #
point $-1 -76.420789208655052 -34.385740158596349 -14.624879578425311 #
straight-curve $-1 76.420789208655052 -34.385740158596349 0 0 0 -1 I I #
face $-1 $-1 $327 $11 $-1 $328 reversed single #
loop $-1 $-1 $283 $274 #
plane-surface $-1 0 34.385740158596349 0 0 -1 0 0 0 -1 forward_v I I I I #
coedge $-1 $329 $289 $288 $322 forward $275 $-1 #
coedge $-1 $330 $277 $329 $331 forward $237 $-1 #
coedge $-1 $277 $330 $332 $333 forward $237 $-1 #
coedge $-1 $334 $335 $277 $309 reversed $327 $-1 #
edge $-1 $336 -34.385740158596349 $337 34.385740158596349 $308 $338 forward 7 unknown #
coedge $-1 $335 $334 $278 $311 reversed $327 $-1 #
edge $-1 $324 -34.385740158596349 $313 34.385740158596349 $310 $339 forward 7 unknown #
coedge $-1 $332 $279 $334 $340 forward $303 $-1 #
vertex $-1 $311 $341 #
straight-curve $-1 0 34.385740158596349 14.624879578425311 -1 0 0 I I #
point $-1 -71.299239670925573 34.385740158596349 14.624879578425311 #
coedge $-1 $283 $332 $287 $321 reversed $303 $-1 #
vertex $-1 $321 $342 #
straight-curve $-1 -63.317514046765041 34.385740158596349 24.481490120955399 0.62932038083071107 0 0.77714596973225614 I I #
straight-curve $-1 -76.420789208655052 13.455793796276069 8.3002924471827679 0 1 0 I I #
coedge $-1 $288 $287 $330 $343 reversed $196 $-1 #
edge $-1 $317 -8.3002924471827804 $344 14.624879578425311 $316 $345 forward 7 unknown #
edge $-1 $291 -14.624879578425311 $346 14.624879578425311 $288 $347 forward 7 unknown #
coedge $-1 $289 $329 $335 $348 reversed $275 $-1 #
vertex $-1 $311 $349 #
straight-curve $-1 0 -34.385740158596349 14.624879578425311 1 0 0 I I #
point $-1 -76.420789208655052 -34.385740158596349 14.624879578425311 #
loop $-1 $-1 $335 $302 #
plane-surface $-1 76.420789208655052 0 0 -1 0 0 0 0 1 forward_v I I I I #
coedge $-1 $323 $305 $306 $331 reversed $275 $-1 #
coedge $-1 $307 $306 $320 $343 forward $237 $-1 #
edge $-1 $337 -76.420789208655052 $346 76.420789208655052 $329 $350 forward 7 unknown #
coedge $-1 $316 $312 $307 $333 reversed $303 $-1 #
edge $-1 $344 -76.420789208655052 $336 76.420789208655052 $332 $351 forward 7 unknown #
coedge $-1 $310 $308 $312 $340 reversed $327 $-1 #
coedge $-1 $308 $310 $323 $348 forward $327 $-1 #
vertex $-1 $309 $352 #
vertex $-1 $348 $353 #
straight-curve $-1 76.420789208655052 0 -14.624879578425311 0 -1 0 I I #
straight-curve $-1 76.420789208655052 0 14.624879578425311 0 1 0 I I #
edge $-1 $313 -14.624879578425311 $336 14.624879578425311 $334 $354 forward 7 unknown #
point $-1 76.420789208655052 34.385740158596349 14.624879578425311 #
point $-1 -76.420789208655052 34.385740158596349 8.3002924471827804 #
edge $-1 $346 -34.385740158596349 $344 34.385740158596349 $320 $355 forward 7 unknown #
vertex $-1 $333 $356 #
straight-curve $-1 -76.420789208655052 34.385740158596349 0 0 0 -1 I I #
vertex $-1 $343 $357 #
straight-curve $-1 -76.420789208655052 -34.385740158596349 0 0 0 -1 I I #
edge $-1 $324 -14.624879578425311 $337 14.624879578425311 $335 $358 forward 7 unknown #
point $-1 76.420789208655052 -34.385740158596349 14.624879578425311 #
straight-curve $-1 0 -34.385740158596349 -14.624879578425311 -1 0 0 I I #
straight-curve $-1 0 34.385740158596349 -14.624879578425311 1 0 0 I I #
point $-1 76.420789208655052 34.385740158596349 -14.624879578425311 #
point $-1 76.420789208655052 -34.385740158596349 -14.624879578425311 #
straight-curve $-1 76.420789208655052 34.385740158596349 0 0 0 -1 I I #
straight-curve $-1 -76.420789208655052 0 -14.624879578425311 0 1 0 I I #
point $-1 -76.420789208655052 34.385740158596349 -14.624879578425311 #
point $-1 -76.420789208655052 -34.385740158596349 -14.624879578425311 #
straight-curve $-1 76.420789208655052 -34.385740158596349 0 0 0 -1 I I #
End-of-ACIS-data 