500 0 13 0           
7 Unknown 11 ACIS 5.0 NT 24 Thu Mar 25 18:57:34 1999 
-1 9.9999999999999995e-007 1e-010 
body $-1 $13 $-1 $14 #
body $-1 $15 $-1 $16 #
body $-1 $17 $-1 $18 #
body $-1 $19 $-1 $20 #
body $-1 $21 $-1 $22 #
body $-1 $23 $-1 $24 #
body $-1 $25 $-1 $26 #
body $-1 $27 $-1 $28 #
body $-1 $29 $-1 $30 #
body $-1 $31 $-1 $32 #
body $-1 $33 $-1 $34 #
body $-1 $35 $-1 $36 #
body $-1 $37 $-1 $38 #
lump $-1 $-1 $39 $0 #
transform $-1 1 0 0 0 1 0 0 0 1 45.571459089938045 28.578438192556561 6.0333324393697705 1 rotate no_reflect no_shear #
lump $-1 $-1 $40 $1 #
transform $-1 1 0 0 0 1 0 0 0 1 45.571459089938045 28.578438192556561 6.0333324393697705 1 rotate no_reflect no_shear #
lump $-1 $-1 $41 $2 #
transform $-1 1 0 0 0 1 0 0 0 1 45.571459089938045 28.578438192556561 6.0333324393697705 1 rotate no_reflect no_shear #
lump $-1 $-1 $42 $3 #
transform $-1 1 0 0 0 1 0 0 0 1 45.571459089938045 28.578438192556561 6.0333324393697705 1 rotate no_reflect no_shear #
lump $-1 $-1 $43 $4 #
transform $-1 1 0 0 0 1 0 0 0 1 45.571459089938045 28.578438192556561 6.0333324393697705 1 rotate no_reflect no_shear #
lump $-1 $-1 $44 $5 #
transform $-1 1 0 0 0 1 0 0 0 1 45.571459089938045 28.578438192556561 6.0333324393697705 1 rotate no_reflect no_shear #
lump $-1 $-1 $45 $6 #
transform $-1 1 0 0 0 1 0 0 0 1 45.571459089938045 28.578438192556561 6.0333324393697705 1 rotate no_reflect no_shear #
lump $-1 $-1 $46 $7 #
transform $-1 1 0 0 0 1 0 0 0 1 45.571459089938045 28.578438192556561 6.0333324393697705 1 rotate no_reflect no_shear #
lump $-1 $-1 $47 $8 #
transform $-1 1 0 0 0 1 0 0 0 1 45.571459089938045 28.578438192556561 6.0333324393697705 1 rotate no_reflect no_shear #
lump $-1 $-1 $48 $9 #
transform $-1 1 0 0 0 1 0 0 0 1 45.571459089938045 28.578438192556561 6.0333324393697705 1 rotate no_reflect no_shear #
lump $-1 $-1 $49 $10 #
transform $-1 1 0 0 0 1 0 0 0 1 45.571459089938045 28.578438192556561 6.0333324393697705 1 rotate no_reflect no_shear #
lump $-1 $-1 $50 $11 #
transform $-1 1 0 0 0 1 0 0 0 1 45.571459089938045 28.578438192556561 6.0333324393697705 1 rotate no_reflect no_shear #
lump $-1 $-1 $51 $12 #
transform $-1 1 0 0 0 1 0 0 0 1 45.571459089938045 28.578438192556561 6.0333324393697705 1 rotate no_reflect no_shear #
shell $-1 $-1 $-1 $52 $-1 $13 #
shell $-1 $-1 $-1 $53 $-1 $15 #
shell $-1 $-1 $-1 $54 $-1 $17 #
shell $-1 $-1 $-1 $55 $-1 $19 #
shell $-1 $-1 $-1 $56 $-1 $21 #
shell $-1 $-1 $-1 $57 $-1 $23 #
shell $-1 $-1 $-1 $58 $-1 $25 #
shell $-1 $-1 $-1 $59 $-1 $27 #
shell $-1 $-1 $-1 $60 $-1 $29 #
shell $-1 $-1 $-1 $61 $-1 $31 #
shell $-1 $-1 $-1 $62 $-1 $33 #
shell $-1 $-1 $-1 $63 $-1 $35 #
shell $-1 $-1 $-1 $64 $-1 $37 #
face $-1 $65 $66 $39 $-1 $67 forward single #
face $-1 $68 $69 $40 $-1 $70 reversed single #
face $-1 $71 $72 $41 $-1 $73 reversed single #
face $-1 $74 $75 $42 $-1 $76 forward single #
face $-1 $77 $78 $43 $-1 $79 forward single #
face $-1 $80 $81 $44 $-1 $82 reversed single #
face $-1 $83 $84 $45 $-1 $85 forward single #
face $-1 $86 $87 $46 $-1 $88 forward single #
face $-1 $89 $90 $47 $-1 $91 forward single #
face $-1 $92 $93 $48 $-1 $94 reversed single #
face $-1 $95 $96 $49 $-1 $97 forward single #
face $-1 $98 $99 $50 $-1 $100 forward single #
face $-1 $101 $102 $51 $-1 $103 forward single #
face $-1 $104 $105 $39 $-1 $106 reversed single #
loop $-1 $-1 $107 $52 #
plane-surface $-1 0 0 6.0333324393697705 0 0 1 1 0 0 forward_v I I I I #
face $-1 $108 $109 $40 $-1 $110 reversed single #
loop $-1 $-1 $111 $53 #
plane-surface $-1 -40.564708889190278 -25.946456527422903 0 1 0 0 0 0 -1 forward_v I I I I #
face $-1 $112 $113 $41 $-1 $114 reversed single #
loop $-1 $-1 $115 $54 #
plane-surface $-1 -100.4226371989127 -18.598215450349795 74.249843240723891 0 1 0 -0.6018150307709319 0 0.79863550430605224 forward_v I I I I #
face $-1 $116 $117 $42 $-1 $118 forward single #
loop $-1 $119 $120 $55 #
cone-surface $-1 -42.005312201525278 -15.293962991649837 3.0412066669811599 0.6018150307709319 0 -0.79863550430605224 0.79863550430605224 0 0.6018150307709319 1 I I 0 1 1 forward I I I I #
face $-1 $121 $122 $43 $-1 $123 forward single #
loop $-1 $124 $125 $56 #
cone-surface $-1 -42.005312201525278 -10.337584303599897 3.0412066669811599 0.6018150307709319 0 -0.79863550430605224 0.79863550430605224 0 0.6018150307709319 1 I I 0 1 1 forward I I I I #
face $-1 $126 $127 $44 $-1 $128 reversed single #
loop $-1 $-1 $129 $57 #
plane-surface $-1 38.825588566573131 -12.351473783825709 129.11206082137545 0 -1 0 -0.66913061440640931 0 -0.74314481823134659 forward_v I I I I #
face $-1 $130 $131 $45 $-1 $132 forward single #
loop $-1 $133 $134 $58 #
cone-surface $-1 41.934579297313363 -21.121874646596538 2.6525463327949375 -0.66913061440640931 0 -0.74314481823134659 0.3715724091156733 0 -0.33456530720320465 1 I I 0 1 0.5 forward I I I I #
face $-1 $135 $136 $46 $-1 $137 forward single #
loop $-1 $138 $139 $59 #
cone-surface $-1 41.934579297313363 -17.832974323057478 2.6525463327949375 -0.66913061440640931 0 -0.74314481823134659 0.3715724091156733 0 -0.33456530720320465 1 I I 0 1 0.5 forward I I I I #
face $-1 $140 $141 $47 $-1 $142 forward single #
loop $-1 $143 $144 $60 #
cone-surface $-1 41.934579297313363 -14.544073999518416 2.6525463327949375 -0.66913061440640931 0 -0.74314481823134659 0.3715724091156733 0 -0.33456530720320465 1 I I 0 1 0.5 forward I I I I #
face $-1 $145 $146 $48 $-1 $147 reversed single #
loop $-1 $-1 $148 $61 #
plane-surface $-1 38.825588566573131 17.615437114093027 129.11206082137545 0 1 0 0.66913061440640931 0 0.74314481823134659 forward_v I I I I #
face $-1 $149 $150 $49 $-1 $151 forward single #
loop $-1 $152 $153 $62 #
cone-surface $-1 41.934579297313363 19.808037329785734 2.6525463327949375 -0.66913061440640931 0 -0.74314481823134659 0.3715724091156733 0 -0.33456530720320465 1 I I 0 1 0.5 forward I I I I #
face $-1 $154 $155 $50 $-1 $156 forward single #
loop $-1 $157 $158 $63 #
cone-surface $-1 41.934579297313363 23.096937653324794 2.6525463327949375 -0.66913061440640931 0 -0.74314481823134659 0.3715724091156733 0 -0.33456530720320465 1 I I 0 1 0.5 forward I I I I #
face $-1 $159 $160 $51 $-1 $161 forward single #
loop $-1 $162 $163 $64 #
cone-surface $-1 41.934579297313363 26.385837976863854 2.6525463327949375 -0.66913061440640931 0 -0.74314481823134659 0.3715724091156733 0 -0.33456530720320465 1 I I 0 1 0.5 forward I I I I #
face $-1 $164 $165 $39 $-1 $166 reversed single #
loop $-1 $-1 $167 $65 #
plane-surface $-1 0 0 -6.0333324393697705 0 0 1 1 0 0 forward_v I I I I #
coedge $-1 $168 $169 $170 $171 forward $66 $-1 #
face $-1 $172 $173 $40 $-1 $174 reversed single #
loop $-1 $-1 $175 $68 #
plane-surface $-1 -39.062313917449266 -23.314474862289245 0 0 -1 0 0 0 -1 forward_v I I I I #
coedge $-1 $176 $177 $178 $179 forward $69 $-1 #
face $-1 $180 $181 $41 $-1 $182 reversed single #
loop $-1 $-1 $183 $71 #
plane-surface $-1 -45.571459089938038 -12.815773647624868 1.4598728162132915 -0.6018150307709319 0 0.79863550430605224 0.79863550430605224 0 0.6018150307709319 forward_v I I I I #
coedge $-1 $184 $185 $186 $187 reversed $72 $-1 #
face $-1 $-1 $188 $42 $-1 $189 forward single #
loop $-1 $190 $191 $74 #
cone-surface $-1 -41.17285069239437 -15.293962991649837 1.9364929540177576 0.6018150307709319 0 -0.79863550430605224 0.39931775215302612 0 0.30090751538546595 1 I I -0.70710678118654746 0.70710678118654746 0.5 forward I I I I #
loop $-1 $-1 $192 $55 #
coedge $-1 $120 $120 $193 $194 reversed $75 $-1 #
face $-1 $-1 $195 $43 $-1 $196 forward single #
loop $-1 $197 $198 $77 #
cone-surface $-1 -41.17285069239437 -10.337584303599897 1.9364929540177576 0.6018150307709319 0 -0.79863550430605224 0.39931775215302612 0 0.30090751538546595 1 I I -0.70710678118654746 0.70710678118654746 0.5 forward I I I I #
loop $-1 $-1 $199 $56 #
coedge $-1 $125 $125 $200 $201 reversed $78 $-1 #
face $-1 $202 $203 $44 $-1 $204 reversed single #
loop $-1 $-1 $205 $80 #
plane-surface $-1 -22.160928273920447 -17.832974323057478 61.379673457516944 0.66913061440640931 0 0.74314481823134659 0.74314481823134659 0 -0.66913061440640931 forward_v I I I I #
coedge $-1 $206 $207 $208 $209 reversed $81 $-1 #
face $-1 $-1 $210 $45 $-1 $211 forward single #
loop $-1 $212 $213 $83 #
cone-surface $-1 41.262441709947225 -21.121874646596538 1.9060619328354935 -0.66913061440640931 0 -0.74314481823134659 0.18578620455783665 0 -0.16728265360160233 1 I I -0.70710678118654746 0.70710678118654746 0.25 forward I I I I #
loop $-1 $-1 $214 $58 #
coedge $-1 $134 $134 $215 $216 reversed $84 $-1 #
face $-1 $-1 $217 $46 $-1 $218 forward single #
loop $-1 $219 $220 $86 #
cone-surface $-1 41.262441709947225 -17.832974323057478 1.9060619328354935 -0.66913061440640931 0 -0.74314481823134659 0.18578620455783665 0 -0.16728265360160233 1 I I -0.70710678118654746 0.70710678118654746 0.25 forward I I I I #
loop $-1 $-1 $221 $59 #
coedge $-1 $139 $139 $222 $223 reversed $87 $-1 #
face $-1 $-1 $224 $47 $-1 $225 forward single #
loop $-1 $226 $227 $89 #
cone-surface $-1 41.262441709947225 -14.544073999518416 1.9060619328354935 -0.66913061440640931 0 -0.74314481823134659 0.18578620455783665 0 -0.16728265360160233 1 I I -0.70710678118654746 0.70710678118654746 0.25 forward I I I I #
loop $-1 $-1 $228 $60 #
coedge $-1 $144 $144 $229 $230 reversed $90 $-1 #
face $-1 $231 $232 $48 $-1 $233 reversed single #
loop $-1 $-1 $234 $92 #
plane-surface $-1 -22.160928273920447 23.096937653324794 61.379673457516944 0.66913061440640931 0 0.74314481823134659 0.74314481823134659 0 -0.66913061440640931 forward_v I I I I #
coedge $-1 $235 $236 $237 $238 reversed $93 $-1 #
face $-1 $-1 $239 $49 $-1 $240 forward single #
loop $-1 $241 $242 $95 #
cone-surface $-1 41.262441709947225 19.808037329785734 1.9060619328354935 -0.66913061440640931 0 -0.74314481823134659 0.18578620455783665 0 -0.16728265360160233 1 I I -0.70710678118654746 0.70710678118654746 0.25 forward I I I I #
loop $-1 $-1 $243 $62 #
coedge $-1 $153 $153 $244 $245 reversed $96 $-1 #
face $-1 $-1 $246 $50 $-1 $247 forward single #
loop $-1 $248 $249 $98 #
cone-surface $-1 41.262441709947225 23.096937653324794 1.9060619328354935 -0.66913061440640931 0 -0.74314481823134659 0.18578620455783665 0 -0.16728265360160233 1 I I -0.70710678118654746 0.70710678118654746 0.25 forward I I I I #
loop $-1 $-1 $250 $63 #
coedge $-1 $158 $158 $251 $252 reversed $99 $-1 #
face $-1 $-1 $253 $51 $-1 $254 forward single #
loop $-1 $255 $256 $101 #
cone-surface $-1 41.262441709947225 26.385837976863854 1.9060619328354935 -0.66913061440640931 0 -0.74314481823134659 0.18578620455783665 0 -0.16728265360160233 1 I I -0.70710678118654746 0.70710678118654746 0.25 forward I I I I #
loop $-1 $-1 $257 $64 #
coedge $-1 $163 $163 $258 $259 reversed $102 $-1 #
face $-1 $260 $261 $39 $-1 $262 reversed single #
loop $-1 $-1 $263 $104 #
plane-surface $-1 0 -28.578438192556561 0 0 1 0 0 0 1 forward_v I I I I #
coedge $-1 $264 $265 $266 $267 forward $105 $-1 #
coedge $-1 $268 $107 $269 $270 forward $66 $-1 #
coedge $-1 $107 $268 $271 $272 forward $66 $-1 #
coedge $-1 $273 $274 $107 $171 reversed $275 $-1 #
edge $-1 $276 -28.578438192556561 $277 28.578438192556561 $170 $278 forward 7 unknown #
face $-1 $279 $280 $40 $-1 $281 forward single #
loop $-1 $-1 $282 $108 #
plane-surface $-1 -37.559918945708255 -25.946456527422903 0 -1 0 0 0 0 1 forward_v I I I I #
coedge $-1 $283 $284 $285 $286 forward $109 $-1 #
coedge $-1 $287 $111 $288 $289 reversed $69 $-1 #
coedge $-1 $111 $287 $290 $291 reversed $69 $-1 #
coedge $-1 $284 $283 $111 $179 reversed $109 $-1 #
edge $-1 $292 -6.0333324393697705 $293 6.0333324393697705 $178 $294 forward 7 unknown #
face $-1 $295 $296 $41 $-1 $297 reversed single #
loop $-1 $-1 $298 $112 #
plane-surface $-1 -100.4226371989127 -7.0333318448999407 74.249843240723891 0 -1 0 0.6018150307709319 0 -0.79863550430605224 forward_v I I I I #
coedge $-1 $299 $300 $301 $302 reversed $113 $-1 #
coedge $-1 $185 $115 $303 $304 reversed $72 $-1 #
coedge $-1 $115 $184 $299 $305 reversed $72 $-1 #
coedge $-1 $301 $306 $115 $187 forward $307 $-1 #
edge $-1 $308 4.6398595095183026 $309 10.709045298852971 $186 $310 forward 7 unknown #
loop $-1 $-1 $193 $116 #
plane-surface $-1 -45.571459089938038 -12.815773647624868 1.4598728162132915 -0.6018150307709319 0 0.79863550430605224 0.79863550430605224 0 0.6018150307709319 forward_v I I I I #
loop $-1 $-1 $311 $74 #
coedge $-1 $191 $191 $192 $312 reversed $117 $-1 #
coedge $-1 $192 $192 $191 $312 forward $119 $-1 #
coedge $-1 $193 $193 $120 $194 forward $188 $-1 #
edge $-1 $313 0 $313 6.2831853071796004 $193 $314 forward 7 unknown #
loop $-1 $-1 $200 $121 #
plane-surface $-1 -45.571459089938038 -12.815773647624868 1.4598728162132915 -0.6018150307709319 0 0.79863550430605224 0.79863550430605224 0 0.6018150307709319 forward_v I I I I #
loop $-1 $-1 $315 $77 #
coedge $-1 $198 $198 $199 $316 reversed $122 $-1 #
coedge $-1 $199 $199 $198 $316 forward $124 $-1 #
coedge $-1 $200 $200 $125 $201 forward $195 $-1 #
edge $-1 $317 0 $317 6.2831853071796004 $200 $318 forward 7 unknown #
face $-1 $319 $320 $44 $-1 $321 forward single #
loop $-1 $-1 $322 $126 #
plane-surface $-1 38.825588566573131 -23.314474862289245 129.11206082137545 0 1 0 0.66913061440640931 0 0.74314481823134659 forward_v I I I I #
coedge $-1 $323 $324 $325 $326 reversed $127 $-1 #
coedge $-1 $207 $129 $327 $328 reversed $81 $-1 #
coedge $-1 $129 $206 $323 $329 reversed $81 $-1 #
coedge $-1 $325 $330 $129 $209 forward $320 $-1 #
edge $-1 $331 -26.15866480665148 $332 -19.894615088931232 $208 $333 forward 7 unknown #
loop $-1 $-1 $215 $130 #
plane-surface $-1 -22.160928273920447 -17.832974323057478 61.379673457516944 0.66913061440640931 0 0.74314481823134659 0.74314481823134659 0 -0.66913061440640931 forward_v I I I I #
loop $-1 $-1 $334 $83 #
coedge $-1 $213 $213 $214 $335 reversed $131 $-1 #
coedge $-1 $214 $214 $213 $335 forward $133 $-1 #
coedge $-1 $215 $215 $134 $216 forward $210 $-1 #
edge $-1 $336 0 $336 6.2831853071796004 $215 $337 forward 7 unknown #
loop $-1 $-1 $222 $135 #
plane-surface $-1 -22.160928273920447 -17.832974323057478 61.379673457516944 0.66913061440640931 0 0.74314481823134659 0.74314481823134659 0 -0.66913061440640931 forward_v I I I I #
loop $-1 $-1 $338 $86 #
coedge $-1 $220 $220 $221 $339 reversed $136 $-1 #
coedge $-1 $221 $221 $220 $339 forward $138 $-1 #
coedge $-1 $222 $222 $139 $223 forward $217 $-1 #
edge $-1 $340 0 $340 6.2831853071796004 $222 $341 forward 7 unknown #
loop $-1 $-1 $229 $140 #
plane-surface $-1 -22.160928273920447 -17.832974323057478 61.379673457516944 0.66913061440640931 0 0.74314481823134659 0.74314481823134659 0 -0.66913061440640931 forward_v I I I I #
loop $-1 $-1 $342 $89 #
coedge $-1 $227 $227 $228 $343 reversed $141 $-1 #
coedge $-1 $228 $228 $227 $343 forward $143 $-1 #
coedge $-1 $229 $229 $144 $230 forward $224 $-1 #
edge $-1 $344 0 $344 6.2831853071796004 $229 $345 forward 7 unknown #
face $-1 $346 $347 $48 $-1 $348 forward single #
loop $-1 $-1 $237 $145 #
plane-surface $-1 45.571459089938045 0 0 -1 0 0 0 0 1 forward_v I I I I #
coedge $-1 $349 $350 $351 $352 reversed $146 $-1 #
coedge $-1 $236 $148 $353 $354 reversed $93 $-1 #
coedge $-1 $148 $235 $349 $355 reversed $93 $-1 #
coedge $-1 $351 $356 $148 $238 forward $232 $-1 #
edge $-1 $357 58.522697971317953 $358 64.162873793664346 $237 $359 forward 7 unknown #
loop $-1 $-1 $244 $149 #
plane-surface $-1 -22.160928273920447 23.096937653324794 61.379673457516944 0.66913061440640931 0 0.74314481823134659 0.74314481823134659 0 -0.66913061440640931 forward_v I I I I #
loop $-1 $-1 $360 $95 #
coedge $-1 $242 $242 $243 $361 reversed $150 $-1 #
coedge $-1 $243 $243 $242 $361 forward $152 $-1 #
coedge $-1 $244 $244 $153 $245 forward $239 $-1 #
edge $-1 $362 0 $362 6.2831853071796004 $244 $363 forward 7 unknown #
loop $-1 $-1 $251 $154 #
plane-surface $-1 -22.160928273920447 23.096937653324794 61.379673457516944 0.66913061440640931 0 0.74314481823134659 0.74314481823134659 0 -0.66913061440640931 forward_v I I I I #
loop $-1 $-1 $364 $98 #
coedge $-1 $249 $249 $250 $365 reversed $155 $-1 #
coedge $-1 $250 $250 $249 $365 forward $157 $-1 #
coedge $-1 $251 $251 $158 $252 forward $246 $-1 #
edge $-1 $366 0 $366 6.2831853071796004 $251 $367 forward 7 unknown #
loop $-1 $-1 $258 $159 #
plane-surface $-1 -22.160928273920447 23.096937653324794 61.379673457516944 0.66913061440640931 0 0.74314481823134659 0.74314481823134659 0 -0.66913061440640931 forward_v I I I I #
loop $-1 $-1 $368 $101 #
coedge $-1 $256 $256 $257 $369 reversed $160 $-1 #
coedge $-1 $257 $257 $256 $369 forward $162 $-1 #
coedge $-1 $258 $258 $163 $259 forward $253 $-1 #
edge $-1 $370 0 $370 6.2831853071796004 $258 $371 forward 7 unknown #
face $-1 $372 $373 $39 $-1 $374 reversed single #
loop $-1 $-1 $375 $164 #
plane-surface $-1 -45.571459089938045 0 0 1 0 0 0 0 -1 forward_v I I I I #
coedge $-1 $376 $271 $377 $378 forward $165 $-1 #
coedge $-1 $379 $167 $376 $380 forward $105 $-1 #
coedge $-1 $167 $379 $381 $382 forward $105 $-1 #
coedge $-1 $274 $273 $167 $267 reversed $275 $-1 #
edge $-1 $383 -28.578438192556561 $384 28.578438192556561 $266 $385 forward 7 unknown #
coedge $-1 $169 $168 $386 $387 forward $66 $-1 #
coedge $-1 $388 $389 $168 $270 reversed $373 $-1 #
edge $-1 $277 -45.571459089938045 $390 45.571459089938045 $269 $391 forward 7 unknown #
coedge $-1 $263 $392 $169 $272 reversed $165 $-1 #
edge $-1 $393 -45.571459089938045 $276 45.571459089938045 $271 $394 forward 7 unknown #
coedge $-1 $266 $170 $392 $395 forward $275 $-1 #
coedge $-1 $170 $266 $388 $396 reversed $275 $-1 #
loop $-1 $-1 $273 $372 #
vertex $-1 $171 $397 #
vertex $-1 $171 $398 #
straight-curve $-1 45.571459089938045 0 6.0333324393697705 0 1 0 I I #
face $-1 $399 $400 $40 $-1 $401 reversed single #
loop $-1 $-1 $402 $172 #
plane-surface $-1 0 0 6.0333324393697705 0 0 1 1 0 0 forward_v I I I I #
coedge $-1 $403 $404 $405 $406 reversed $173 $-1 #
coedge $-1 $178 $175 $407 $408 reversed $109 $-1 #
coedge $-1 $175 $178 $409 $410 reversed $109 $-1 #
coedge $-1 $404 $403 $175 $286 reversed $173 $-1 #
edge $-1 $411 -6.0333324393697705 $412 6.0333324393697705 $285 $413 forward 7 unknown #
coedge $-1 $177 $176 $414 $415 reversed $69 $-1 #
coedge $-1 $407 $416 $176 $289 forward $400 $-1 #
edge $-1 $417 -15.60520992884511 $293 -10.341246598577793 $288 $418 forward 7 unknown #
coedge $-1 $419 $409 $177 $291 forward $280 $-1 #
edge $-1 $292 10.341246598577793 $420 15.60520992884511 $290 $421 forward 7 unknown #
vertex $-1 $291 $422 #
vertex $-1 $289 $423 #
straight-curve $-1 -40.564708889190278 -23.314474862289245 0 0 0 -1 I I #
face $-1 $-1 $307 $41 $-1 $424 forward single #
loop $-1 $-1 $425 $180 #
plane-surface $-1 -45.571459089938045 0 0 1 0 0 0 0 -1 forward_v I I I I #
coedge $-1 $426 $427 $428 $429 reversed $181 $-1 #
coedge $-1 $430 $183 $185 $305 forward $113 $-1 #
coedge $-1 $183 $430 $426 $431 forward $113 $-1 #
coedge $-1 $428 $186 $183 $302 forward $307 $-1 #
edge $-1 $309 -12.190328626537362 $432 -0.62544502108750688 $301 $433 forward 7 unknown #
coedge $-1 $434 $435 $184 $304 forward $296 $-1 #
edge $-1 $436 -35.665048804148661 $308 -31.091589180992173 $303 $437 forward 7 unknown #
edge $-1 $309 -7.5994439974319441 $436 8.8817612989391469e-015 $185 $438 forward 7 unknown #
coedge $-1 $186 $428 $434 $439 forward $307 $-1 #
loop $-1 $-1 $428 $295 #
vertex $-1 $304 $440 #
vertex $-1 $187 $441 #
straight-curve $-1 -50.211318599456348 -18.598215450349795 6.0333324393697723 1 0 0 I I #
coedge $-1 $311 $311 $-1 $442 reversed $190 $-1 #
edge $-1 $443 0 $443 6.2831853071796004 $191 $444 forward 7 unknown #
vertex $-1 $194 $445 #
ellipse-curve $-1 -42.536866195270711 -15.293962991649837 3.7466026277915265 -0.6018150307709319 0 0.79863550430605224 0.79863550430605224 0 0.6018150307709319 1 I I #
coedge $-1 $315 $315 $-1 $446 reversed $197 $-1 #
edge $-1 $447 0 $447 6.2831853071796004 $198 $448 forward 7 unknown #
vertex $-1 $201 $449 #
ellipse-curve $-1 -42.536866195270711 -10.337584303599897 3.7466026277915265 -0.6018150307709319 0 0.79863550430605224 0.79863550430605224 0 0.6018150307709319 1 I I #
face $-1 $-1 $450 $44 $-1 $451 reversed single #
loop $-1 $-1 $208 $202 #
plane-surface $-1 0 0 6.0333324393697705 0 0 1 1 0 0 forward_v I I I I #
coedge $-1 $452 $453 $454 $455 reversed $203 $-1 #
coedge $-1 $456 $205 $207 $329 forward $127 $-1 #
coedge $-1 $205 $456 $452 $457 forward $127 $-1 #
coedge $-1 $454 $208 $205 $326 forward $320 $-1 #
edge $-1 $332 3.4349866222969698 $458 14.397987700760506 $325 $459 forward 7 unknown #
coedge $-1 $460 $461 $206 $328 forward $450 $-1 #
edge $-1 $462 -64.162873793664346 $331 -58.522697971317953 $327 $463 forward 7 unknown #
edge $-1 $332 82.713807777641904 $462 91.142918179876062 $207 $464 forward 7 unknown #
coedge $-1 $208 $454 $460 $465 forward $320 $-1 #
vertex $-1 $328 $466 #
vertex $-1 $209 $467 #
straight-curve $-1 19.412794283286566 -12.351473783825709 6.0333324393697723 -1 0 0 I I #
coedge $-1 $334 $334 $-1 $468 reversed $212 $-1 #
edge $-1 $469 0 $469 6.2831853071796004 $213 $470 forward 7 unknown #
vertex $-1 $216 $471 #
ellipse-curve $-1 42.439434231077918 -21.121874646596538 3.2132445281965709 0.66913061440640931 0 0.74314481823134659 0.3715724091156733 0 -0.33456530720320465 1 I I #
coedge $-1 $338 $338 $-1 $472 reversed $219 $-1 #
edge $-1 $473 0 $473 6.2831853071796004 $220 $474 forward 7 unknown #
vertex $-1 $223 $475 #
ellipse-curve $-1 42.439434231077918 -17.832974323057478 3.2132445281965709 0.66913061440640931 0 0.74314481823134659 0.3715724091156733 0 -0.33456530720320465 1 I I #
coedge $-1 $342 $342 $-1 $476 reversed $226 $-1 #
edge $-1 $477 0 $477 6.2831853071796004 $227 $478 forward 7 unknown #
vertex $-1 $230 $479 #
ellipse-curve $-1 42.439434231077918 -14.544073999518416 3.2132445281965709 0.66913061440640931 0 0.74314481823134659 0.3715724091156733 0 -0.33456530720320465 1 I I #
face $-1 $-1 $480 $48 $-1 $481 reversed single #
loop $-1 $-1 $353 $231 #
plane-surface $-1 0 0 6.0333324393697705 0 0 1 1 0 0 forward_v I I I I #
coedge $-1 $482 $234 $236 $355 forward $146 $-1 #
coedge $-1 $234 $482 $483 $484 reversed $146 $-1 #
coedge $-1 $485 $237 $234 $352 forward $232 $-1 #
edge $-1 $358 6.0669682874306297 $486 17.029969365894164 $351 $487 forward 7 unknown #
coedge $-1 $488 $489 $235 $354 forward $347 $-1 #
edge $-1 $490 19.894615088931232 $357 26.15866480665148 $353 $491 forward 7 unknown #
edge $-1 $358 -91.142918179876062 $490 -82.713807777641904 $236 $492 forward 7 unknown #
coedge $-1 $237 $485 $488 $493 reversed $232 $-1 #
vertex $-1 $493 $494 #
vertex $-1 $238 $495 #
straight-curve $-1 45.571459089938045 17.615437114093027 64.556030410687725 0 0 -1 I I #
coedge $-1 $360 $360 $-1 $496 reversed $241 $-1 #
edge $-1 $497 0 $497 6.2831853071796004 $242 $498 forward 7 unknown #
vertex $-1 $245 $499 #
ellipse-curve $-1 42.439434231077918 19.808037329785734 3.2132445281965709 0.66913061440640931 0 0.74314481823134659 0.3715724091156733 0 -0.33456530720320465 1 I I #
coedge $-1 $364 $364 $-1 $500 reversed $248 $-1 #
edge $-1 $501 0 $501 6.2831853071796004 $249 $502 forward 7 unknown #
vertex $-1 $252 $503 #
ellipse-curve $-1 42.439434231077918 23.096937653324794 3.2132445281965709 0.66913061440640931 0 0.74314481823134659 0.3715724091156733 0 -0.33456530720320465 1 I I #
coedge $-1 $368 $368 $-1 $504 reversed $255 $-1 #
edge $-1 $505 0 $505 6.2831853071796004 $256 $506 forward 7 unknown #
vertex $-1 $259 $507 #
ellipse-curve $-1 42.439434231077918 26.385837976863854 3.2132445281965709 0.66913061440640931 0 0.74314481823134659 0.3715724091156733 0 -0.33456530720320465 1 I I #
face $-1 $-1 $275 $39 $-1 $508 reversed single #
loop $-1 $-1 $388 $260 #
plane-surface $-1 0 28.578438192556561 0 0 -1 0 0 0 -1 forward_v I I I I #
coedge $-1 $509 $386 $389 $510 forward $261 $-1 #
coedge $-1 $392 $263 $264 $380 reversed $165 $-1 #
coedge $-1 $386 $509 $263 $378 reversed $261 $-1 #
edge $-1 $393 -6.0333324393697705 $511 6.0333324393697705 $377 $512 forward 7 unknown #
coedge $-1 $265 $264 $509 $513 forward $105 $-1 #
edge $-1 $384 -45.571459089938045 $511 45.571459089938045 $376 $514 forward 7 unknown #
coedge $-1 $389 $388 $265 $382 reversed $373 $-1 #
edge $-1 $515 -45.571459089938045 $383 45.571459089938045 $381 $516 forward 7 unknown #
vertex $-1 $267 $517 #
vertex $-1 $395 $518 #
straight-curve $-1 45.571459089938045 0 -6.0333324393697705 0 -1 0 I I #
coedge $-1 $375 $377 $268 $387 reversed $261 $-1 #
edge $-1 $390 -28.578438192556561 $393 28.578438192556561 $386 $519 forward 7 unknown #
coedge $-1 $381 $269 $274 $396 forward $373 $-1 #
coedge $-1 $269 $381 $375 $510 reversed $373 $-1 #
vertex $-1 $270 $520 #
straight-curve $-1 0 28.578438192556561 6.0333324393697705 -1 0 0 I I #
coedge $-1 $271 $376 $273 $395 reversed $165 $-1 #
vertex $-1 $387 $521 #
straight-curve $-1 0 -28.578438192556561 6.0333324393697705 1 0 0 I I #
edge $-1 $276 -6.0333324393697705 $384 6.0333324393697705 $273 $522 forward 7 unknown #
edge $-1 $277 -6.0333324393697705 $383 6.0333324393697705 $274 $523 forward 7 unknown #
point $-1 45.571459089938045 -28.578438192556561 6.0333324393697705 #
point $-1 45.571459089938045 28.578438192556561 6.0333324393697705 #
face $-1 $-1 $524 $40 $-1 $525 reversed single #
loop $-1 $-1 $526 $279 #
plane-surface $-1 0 0 -6.0333324393697705 0 0 1 1 0 0 forward_v I I I I #
coedge $-1 $409 $419 $404 $527 forward $280 $-1 #
coedge $-1 $285 $282 $526 $528 reversed $173 $-1 #
coedge $-1 $282 $285 $402 $527 reversed $173 $-1 #
coedge $-1 $529 $530 $282 $406 forward $524 $-1 #
edge $-1 $531 -6.0333324393697705 $532 6.0333324393697705 $405 $533 forward 7 unknown #
coedge $-1 $526 $288 $283 $408 forward $400 $-1 #
edge $-1 $293 -21.033551930465645 $412 -18.028761986983621 $407 $534 forward 7 unknown #
coedge $-1 $290 $402 $284 $410 forward $280 $-1 #
edge $-1 $411 18.028761986983621 $292 21.033551930465645 $409 $535 forward 7 unknown #
vertex $-1 $410 $536 #
vertex $-1 $408 $537 #
straight-curve $-1 -37.559918945708255 -23.314474862289245 0 0 0 -1 I I #
coedge $-1 $530 $529 $287 $415 forward $524 $-1 #
edge $-1 $420 -6.0333324393697705 $417 6.0333324393697705 $414 $538 forward 7 unknown #
coedge $-1 $288 $526 $530 $539 forward $400 $-1 #
vertex $-1 $289 $540 #
straight-curve $-1 -40.564708889190278 -12.973228263711452 -6.0333324393697705 0 1 0 I I #
coedge $-1 $402 $290 $529 $541 forward $280 $-1 #
vertex $-1 $541 $542 #
straight-curve $-1 -40.564708889190278 -12.973228263711452 6.0333324393697705 0 -1 0 I I #
point $-1 -40.564708889190278 -23.314474862289245 6.0333324393697705 #
point $-1 -40.564708889190278 -23.314474862289245 -6.0333324393697705 #
plane-surface $-1 0 0 6.0333324393697705 0 0 1 1 0 0 forward_v I I I I #
coedge $-1 $435 $434 $427 $543 forward $296 $-1 #
coedge $-1 $427 $298 $300 $431 reversed $181 $-1 #
coedge $-1 $298 $426 $425 $543 reversed $181 $-1 #
coedge $-1 $306 $301 $298 $429 forward $307 $-1 #
edge $-1 $432 -10.709045298852971 $544 -4.6398595095183026 $428 $545 forward 7 unknown #
coedge $-1 $300 $299 $435 $546 reversed $113 $-1 #
edge $-1 $547 -8.8817612989391469e-015 $432 7.5994439974319441 $426 $548 forward 7 unknown #
vertex $-1 $302 $549 #
straight-curve $-1 -39.502273300603377 -6.4078868238124338 6.0333324393697705 0 1 0 I I #
coedge $-1 $425 $303 $306 $439 reversed $296 $-1 #
coedge $-1 $303 $425 $430 $546 forward $296 $-1 #
vertex $-1 $304 $550 #
straight-curve $-1 -45.571459089938045 -18.598215450349795 37.124921620361945 0 0 1 I I #
straight-curve $-1 -45.571459089938038 -18.598215450349795 1.4598728162132915 -0.79863550430605224 0 -0.6018150307709319 I I #
edge $-1 $544 7.0333318448999407 $308 18.598215450349795 $434 $551 forward 7 unknown #
point $-1 -45.571459089938045 -18.598215450349795 6.0333324393697705 #
point $-1 -39.502273300603377 -18.598215450349795 6.0333324393697705 #
edge $-1 $552 1 $552 0 $311 $-1 forward 7 unknown #
vertex $-1 $312 $553 #
ellipse-curve $-1 -41.473758207779838 -15.293962991649837 2.3358107061707836 -0.6018150307709319 0 0.79863550430605224 0.79863550430605224 0 0.6018150307709319 1 I I #
point $-1 -41.73823069096467 -15.293962991649837 4.3484176585624681 #
edge $-1 $554 1 $554 0 $315 $-1 forward 7 unknown #
vertex $-1 $316 $555 #
ellipse-curve $-1 -41.473758207779838 -10.337584303599897 2.3358107061707836 -0.6018150307709319 0 0.79863550430605224 0.79863550430605224 0 0.6018150307709319 1 I I #
point $-1 -41.73823069096467 -10.337584303599897 4.3484176585624681 #
loop $-1 $-1 $327 $319 #
plane-surface $-1 45.571459089938045 0 0 -1 0 0 0 0 1 forward_v I I I I #
coedge $-1 $453 $322 $324 $457 reversed $203 $-1 #
coedge $-1 $322 $452 $556 $557 reversed $203 $-1 #
coedge $-1 $330 $325 $322 $455 forward $320 $-1 #
edge $-1 $458 19.894615088931232 $558 26.15866480665148 $454 $559 forward 7 unknown #
coedge $-1 $324 $323 $461 $560 reversed $127 $-1 #
edge $-1 $561 -91.142918179876062 $458 -82.713807777641904 $452 $562 forward 7 unknown #
vertex $-1 $326 $563 #
straight-curve $-1 39.307409372217805 -8.9164871615287389 6.0333324393697652 0 -1 0 I I #
coedge $-1 $556 $327 $330 $465 reversed $450 $-1 #
coedge $-1 $327 $556 $456 $560 forward $450 $-1 #
vertex $-1 $328 $564 #
straight-curve $-1 45.571459089938045 -12.351473783825709 64.556030410687725 0 0 1 I I #
straight-curve $-1 -22.160928273920447 -12.351473783825709 61.379673457516944 0.74314481823134659 0 -0.66913061440640931 I I #
edge $-1 $558 -23.314474862289245 $331 -12.351473783825709 $460 $565 forward 7 unknown #
point $-1 45.571459089938045 -12.351473783825709 6.0333324393697705 #
point $-1 39.307409372217798 -12.351473783825709 6.0333324393697723 #
edge $-1 $566 1 $566 0 $334 $-1 forward 7 unknown #
vertex $-1 $335 $567 #
ellipse-curve $-1 41.429724363548829 -21.121874646596538 2.0918481373933302 0.66913061440640931 0 0.74314481823134659 0.3715724091156733 0 -0.33456530720320465 1 I I #
point $-1 42.811006640193568 -21.121874646596538 2.8786792209933401 #
edge $-1 $568 1 $568 0 $338 $-1 forward 7 unknown #
vertex $-1 $339 $569 #
ellipse-curve $-1 41.429724363548829 -17.832974323057478 2.0918481373933302 0.66913061440640931 0 0.74314481823134659 0.3715724091156733 0 -0.33456530720320465 1 I I #
point $-1 42.811006640193568 -17.832974323057478 2.8786792209933401 #
edge $-1 $570 1 $570 0 $342 $-1 forward 7 unknown #
vertex $-1 $343 $571 #
ellipse-curve $-1 41.429724363548829 -14.544073999518416 2.0918481373933302 0.66913061440640931 0 0.74314481823134659 0.3715724091156733 0 -0.33456530720320465 1 I I #
point $-1 42.811006640193568 -14.544073999518416 2.8786792209933401 #
loop $-1 $-1 $483 $346 #
plane-surface $-1 0 28.578438192556561 0 0 -1 0 0 0 -1 forward_v I I I I #
coedge $-1 $350 $349 $489 $572 reversed $146 $-1 #
coedge $-1 $573 $574 $350 $484 forward $480 $-1 #
edge $-1 $486 -62.373019366549258 $575 -53.943908964315114 $483 $576 forward 7 unknown #
coedge $-1 $356 $351 $574 $577 reversed $232 $-1 #
vertex $-1 $352 $578 #
straight-curve $-1 45.571459089938038 11.548468826662397 0.39315661702337934 0 1 0 I I #
coedge $-1 $579 $353 $356 $493 forward $347 $-1 #
coedge $-1 $353 $579 $482 $572 forward $347 $-1 #
vertex $-1 $354 $580 #
straight-curve $-1 19.412794283286566 17.615437114093027 6.0333324393697723 1 0 0 I I #
straight-curve $-1 -22.160928273920447 17.615437114093027 61.379673457516944 -0.74314481823134659 0 0.66913061440640931 I I #
edge $-1 $357 17.615437114093027 $581 28.578438192556561 $356 $582 forward 7 unknown #
point $-1 45.571459089938045 17.615437114093027 6.0333324393697705 #
point $-1 45.571459089938045 17.615437114093027 0.39315661702337934 #
edge $-1 $583 1 $583 0 $360 $-1 forward 7 unknown #
vertex $-1 $361 $584 #
ellipse-curve $-1 41.429724363548829 19.808037329785734 2.0918481373933302 0.66913061440640931 0 0.74314481823134659 0.3715724091156733 0 -0.33456530720320465 1 I I #
point $-1 42.811006640193568 19.808037329785734 2.8786792209933401 #
edge $-1 $585 1 $585 0 $364 $-1 forward 7 unknown #
vertex $-1 $365 $586 #
ellipse-curve $-1 41.429724363548829 23.096937653324794 2.0918481373933302 0.66913061440640931 0 0.74314481823134659 0.3715724091156733 0 -0.33456530720320465 1 I I #
point $-1 42.811006640193568 23.096937653324794 2.8786792209933401 #
edge $-1 $587 1 $587 0 $368 $-1 forward 7 unknown #
vertex $-1 $369 $588 #
ellipse-curve $-1 41.429724363548829 26.385837976863854 2.0918481373933302 0.66913061440640931 0 0.74314481823134659 0.3715724091156733 0 -0.33456530720320465 1 I I #
point $-1 42.811006640193568 26.385837976863854 2.8786792209933401 #
plane-surface $-1 45.571459089938045 0 0 -1 0 0 0 0 1 forward_v I I I I #
coedge $-1 $377 $375 $379 $513 reversed $261 $-1 #
edge $-1 $390 -6.0333324393697705 $515 6.0333324393697705 $389 $589 forward 7 unknown #
vertex $-1 $513 $590 #
straight-curve $-1 -45.571459089938045 -28.578438192556561 0 0 0 -1 I I #
edge $-1 $511 -28.578438192556561 $515 28.578438192556561 $509 $591 forward 7 unknown #
straight-curve $-1 0 -28.578438192556561 -6.0333324393697705 -1 0 0 I I #
vertex $-1 $382 $592 #
straight-curve $-1 0 28.578438192556561 -6.0333324393697705 1 0 0 I I #
point $-1 45.571459089938045 28.578438192556561 -6.0333324393697705 #
point $-1 45.571459089938045 -28.578438192556561 -6.0333324393697705 #
straight-curve $-1 -45.571459089938045 0 6.0333324393697705 0 -1 0 I I #
point $-1 -45.571459089938045 28.578438192556561 6.0333324393697705 #
point $-1 -45.571459089938045 -28.578438192556561 6.0333324393697705 #
straight-curve $-1 45.571459089938045 -28.578438192556561 0 0 0 -1 I I #
straight-curve $-1 45.571459089938045 28.578438192556561 0 0 0 -1 I I #
loop $-1 $-1 $405 $399 #
plane-surface $-1 0 -28.578438192556561 0 0 1 0 0 0 1 forward_v I I I I #
coedge $-1 $416 $407 $403 $528 forward $400 $-1 #
edge $-1 $532 -15.60520992884511 $411 -10.341246598577793 $402 $593 forward 7 unknown #
edge $-1 $412 10.341246598577793 $531 15.60520992884511 $526 $594 forward 7 unknown #
coedge $-1 $414 $405 $419 $541 reversed $524 $-1 #
coedge $-1 $405 $414 $416 $539 reversed $524 $-1 #
vertex $-1 $539 $595 #
vertex $-1 $406 $596 #
straight-curve $-1 -37.559918945708255 -28.578438192556561 0 0 0 1 I I #
straight-curve $-1 -19.531156958724633 -23.314474862289245 -6.0333324393697705 1 0 0 I I #
straight-curve $-1 -19.531156958724633 -23.314474862289245 6.0333324393697705 -1 0 0 I I #
point $-1 -37.559918945708255 -23.314474862289245 6.0333324393697705 #
point $-1 -37.559918945708255 -23.314474862289245 -6.0333324393697705 #
straight-curve $-1 -40.564708889190278 -28.578438192556561 0 0 0 -1 I I #
edge $-1 $531 37.559918945708255 $417 40.564708889190278 $530 $597 forward 7 unknown #
point $-1 -40.564708889190278 -28.578438192556561 -6.0333324393697705 #
edge $-1 $420 -40.564708889190278 $532 -37.559918945708255 $529 $598 forward 7 unknown #
point $-1 -40.564708889190278 -28.578438192556561 6.0333324393697705 #
edge $-1 $544 31.091589180992173 $547 35.665048804148661 $425 $599 forward 7 unknown #
vertex $-1 $439 $600 #
straight-curve $-1 -50.211318599456348 -7.0333318448999407 6.0333324393697723 -1 0 0 I I #
edge $-1 $547 0.62544502108750688 $436 12.190328626537362 $435 $601 forward 7 unknown #
vertex $-1 $546 $602 #
straight-curve $-1 -45.571459089938038 -7.0333318448999407 1.4598728162132915 0.79863550430605224 0 0.6018150307709319 I I #
point $-1 -39.502273300603377 -7.0333318448999407 6.0333324393697705 #
point $-1 -45.571459089938045 -18.598215450349795 1.4598728162132861 #
straight-curve $-1 -45.571459089938045 0 6.0333324393697705 0 -1 0 I I #
vertex $-1 $442 $603 #
point $-1 -40.675122703473782 -15.293962991649837 2.9376257369417154 #
vertex $-1 $446 $604 #
point $-1 -40.675122703473782 -10.337584303599897 2.9376257369417154 #
coedge $-1 $461 $460 $453 $557 forward $450 $-1 #
edge $-1 $558 58.522697971317953 $561 64.162873793664346 $556 $605 forward 7 unknown #
vertex $-1 $465 $606 #
straight-curve $-1 19.412794283286566 -23.314474862289245 6.0333324393697723 1 0 0 I I #
edge $-1 $561 -14.397987700760506 $462 -3.4349866222969698 $461 $607 forward 7 unknown #
vertex $-1 $560 $608 #
straight-curve $-1 -22.160928273920447 -23.314474862289245 61.379673457516944 -0.74314481823134659 0 0.66913061440640931 I I #
point $-1 39.307409372217798 -23.314474862289245 6.0333324393697723 #
point $-1 45.571459089938045 -12.351473783825709 0.39315661702337934 #
straight-curve $-1 45.571459089938045 0 6.0333324393697705 0 1 0 I I #
vertex $-1 $468 $609 #
point $-1 41.8012967726645 -21.121874646596538 1.7572828301901255 #
vertex $-1 $472 $610 #
point $-1 41.8012967726645 -17.832974323057478 1.7572828301901255 #
vertex $-1 $476 $611 #
point $-1 41.8012967726645 -14.544073999518416 1.7572828301901255 #
edge $-1 $575 -17.029969365894164 $490 -6.0669682874306297 $489 $612 forward 7 unknown #
coedge $-1 $574 $483 $579 $613 reversed $480 $-1 #
coedge $-1 $483 $573 $485 $577 forward $480 $-1 #
vertex $-1 $484 $614 #
straight-curve $-1 -0.78072704975646623 28.578438192556561 42.128853388145352 -0.74314481823134659 0 0.66913061440640931 I I #
edge $-1 $581 -6.0333324393697705 $486 -0.39315661702337878 $485 $615 forward 7 unknown #
point $-1 45.571459089938045 28.578438192556561 0.39315661702337878 #
coedge $-1 $489 $488 $573 $613 forward $347 $-1 #
point $-1 39.307409372217798 17.615437114093027 6.0333324393697723 #
vertex $-1 $493 $616 #
straight-curve $-1 45.571459089938045 0 6.0333324393697705 0 1 0 I I #
vertex $-1 $496 $617 #
point $-1 41.8012967726645 19.808037329785734 1.7572828301901255 #
vertex $-1 $500 $618 #
point $-1 41.8012967726645 23.096937653324794 1.7572828301901255 #
vertex $-1 $504 $619 #
point $-1 41.8012967726645 26.385837976863854 1.7572828301901255 #
straight-curve $-1 -45.571459089938045 28.578438192556561 0 0 0 -1 I I #
point $-1 -45.571459089938045 -28.578438192556561 -6.0333324393697705 #
straight-curve $-1 -45.571459089938045 0 -6.0333324393697705 0 1 0 I I #
point $-1 -45.571459089938045 28.578438192556561 -6.0333324393697705 #
straight-curve $-1 -37.559918945708255 -12.973228263711452 6.0333324393697705 0 1 0 I I #
straight-curve $-1 -37.559918945708255 -12.973228263711452 -6.0333324393697705 0 -1 0 I I #
point $-1 -37.559918945708255 -28.578438192556561 -6.0333324393697705 #
point $-1 -37.559918945708255 -28.578438192556561 6.0333324393697705 #
straight-curve $-1 0 -28.578438192556561 -6.0333324393697705 -1 0 0 I I #
straight-curve $-1 0 -28.578438192556561 6.0333324393697705 1 0 0 I I #
straight-curve $-1 -45.571459089938045 -7.0333318448999407 37.124921620361945 0 0 -1 I I #
point $-1 -45.571459089938045 -7.0333318448999407 6.0333324393697705 #
straight-curve $-1 -45.571459089938045 -6.4078868238124338 1.4598728162132883 0 -1 0 I I #
point $-1 -45.571459089938045 -7.0333318448999407 1.4598728162132861 #
point $-1 -40.871943177008902 -15.293962991649837 1.5371752018647316 #
point $-1 -40.871943177008902 -10.337584303599897 1.5371752018647316 #
straight-curve $-1 45.571459089938045 -23.314474862289245 64.556030410687725 0 0 -1 I I #
point $-1 45.571459089938045 -23.314474862289245 6.0333324393697705 #
straight-curve $-1 45.571459089938038 -8.9164871615287389 0.39315661702337934 0 1 0 I I #
point $-1 45.571459089938045 -23.314474862289245 0.39315661702337934 #
point $-1 41.095159056345622 -21.121874646596538 1.7202757282776568 #
point $-1 41.095159056345622 -17.832974323057478 1.7202757282776568 #
point $-1 41.095159056345622 -14.544073999518416 1.7202757282776568 #
straight-curve $-1 39.307409372217805 11.548468826662397 6.0333324393697652 0 -1 0 I I #
edge $-1 $581 -45.571459089938045 $575 -39.307409372217798 $573 $620 forward 7 unknown #
point $-1 39.307409372217798 28.578438192556561 6.0333324393697723 #
straight-curve $-1 45.571459089938045 28.578438192556561 0 0 0 -1 I I #
point $-1 45.571459089938045 28.578438192556561 6.0333324393697705 #
point $-1 41.095159056345622 19.808037329785734 1.7202757282776568 #
point $-1 41.095159056345622 23.096937653324794 1.7202757282776568 #
point $-1 41.095159056345622 26.385837976863854 1.7202757282776568 #
straight-curve $-1 0 28.578438192556561 6.0333324393697705 -1 0 0 I I #
End-of-ACIS-data 