500 0 7 0           
7 Unknown 11 ACIS 5.0 NT 24 Fri Mar 26 00:08:54 1999 
-1 9.9999999999999995e-007 1e-010 
body $-1 $7 $-1 $8 #
body $-1 $9 $-1 $10 #
body $-1 $11 $-1 $12 #
body $-1 $13 $-1 $14 #
body $-1 $15 $-1 $16 #
body $-1 $17 $-1 $18 #
body $-1 $19 $-1 $20 #
lump $-1 $-1 $21 $0 #
transform $-1 1 0 0 0 1 0 0 0 1 69.902035584582052 48.089195725919581 22.626005480725411 1 rotate no_reflect no_shear #
lump $-1 $-1 $22 $1 #
transform $-1 1 0 0 0 1 0 0 0 1 69.902035584582052 48.089195725919581 22.626005480725411 1 rotate no_reflect no_shear #
lump $-1 $-1 $23 $2 #
transform $-1 1 0 0 0 1 0 0 0 1 69.902035584582052 48.089195725919581 22.626005480725411 1 rotate no_reflect no_shear #
lump $-1 $-1 $24 $3 #
transform $-1 1 0 0 0 1 0 0 0 1 69.902035584582052 48.089195725919581 22.626005480725411 1 rotate no_reflect no_shear #
lump $-1 $-1 $25 $4 #
transform $-1 1 0 0 0 1 0 0 0 1 69.902035584582052 48.089195725919581 22.626005480725411 1 rotate no_reflect no_shear #
lump $-1 $-1 $26 $5 #
transform $-1 1 0 0 0 1 0 0 0 1 69.902035584582052 48.089195725919581 22.626005480725411 1 rotate no_reflect no_shear #
lump $-1 $-1 $27 $6 #
transform $-1 1 0 0 0 1 0 0 0 1 69.902035584582052 48.089195725919581 22.626005480725411 1 rotate no_reflect no_shear #
shell $-1 $-1 $-1 $28 $-1 $7 #
shell $-1 $-1 $-1 $29 $-1 $9 #
shell $-1 $-1 $-1 $30 $-1 $11 #
shell $-1 $-1 $-1 $31 $-1 $13 #
shell $-1 $-1 $-1 $32 $-1 $15 #
shell $-1 $-1 $-1 $33 $-1 $17 #
shell $-1 $-1 $-1 $34 $-1 $19 #
face $-1 $35 $36 $21 $-1 $37 forward single #
face $-1 $38 $39 $22 $-1 $40 reversed single #
face $-1 $41 $42 $23 $-1 $43 reversed single #
face $-1 $44 $45 $24 $-1 $46 forward single #
face $-1 $47 $48 $25 $-1 $49 forward single #
face $-1 $50 $51 $26 $-1 $52 reversed single #
face $-1 $53 $54 $27 $-1 $55 forward single #
face $-1 $56 $57 $21 $-1 $58 reversed single #
loop $-1 $-1 $59 $28 #
plane-surface $-1 0 0 22.626005480725411 0 0 1 1 0 0 forward_v I I I I #
face $-1 $60 $61 $22 $-1 $62 reversed single #
loop $-1 $-1 $63 $29 #
plane-surface $-1 -61.119966340984469 0 14.035069948394185 0 0 1 1 0 0 forward_v I I I I #
face $-1 $64 $65 $23 $-1 $66 reversed single #
loop $-1 $-1 $67 $30 #
plane-surface $-1 11.329796118442207 -163.99202465009873 93.060911235043164 -1 0 0 0 -0.82903758062907751 0.55919289150049634 forward_v I I I I #
face $-1 $68 $69 $24 $-1 $70 forward single #
loop $-1 $71 $72 $31 #
cone-surface $-1 -13.815649097637554 -44.597315313603417 18.160712903878547 0 0.82903758062907751 -0.55919289150049634 1 0 0 1 I I 0 1 1 forward I I I I #
face $-1 $73 $74 $25 $-1 $75 forward single #
loop $-1 $76 $77 $32 #
cone-surface $-1 1.2716180320103092 -44.597315313603417 18.160712903878547 0 0.82903758062907751 -0.55919289150049634 1 0 0 1 I I 0 1 1 forward I I I I #
face $-1 $78 $79 $26 $-1 $80 reversed single #
loop $-1 $-1 $81 $33 #
plane-surface $-1 46.965307226522143 112.95625148930881 168.63233234934128 1 0 0 0 -0.83867057594974714 -0.54463902268945019 forward_v I I I I #
face $-1 $82 $83 $27 $-1 $84 forward single #
loop $-1 $85 $86 $34 #
cone-surface $-1 58.433671405552104 42.533520491977448 15.895909889848417 0 -0.83867057594974714 -0.54463902268945019 3 0 0 1 I I 0 1 3 forward I I I I #
face $-1 $87 $88 $21 $-1 $89 reversed single #
loop $-1 $-1 $90 $35 #
plane-surface $-1 0 0 -22.626005480725411 0 0 1 1 0 0 forward_v I I I I #
coedge $-1 $91 $92 $93 $94 forward $36 $-1 #
face $-1 $95 $96 $22 $-1 $97 reversed single #
loop $-1 $-1 $98 $38 #
plane-surface $-1 -52.337897097386886 0 18.330537714559796 -1 0 0 0 0 1 forward_v I I I I #
coedge $-1 $99 $100 $101 $102 forward $39 $-1 #
face $-1 $103 $104 $23 $-1 $105 reversed single #
loop $-1 $-1 $106 $41 #
plane-surface $-1 -6.2720155328136258 -48.089195725919552 14.883468434417111 0 -0.82903758062907751 0.55919289150049634 1 0 0 forward_v I I I I #
coedge $-1 $107 $108 $109 $110 reversed $42 $-1 #
face $-1 $-1 $111 $24 $-1 $112 forward single #
loop $-1 $113 $114 $44 #
cone-surface $-1 -13.815649097637554 -43.302119619497354 17.287092404435583 0 0.82903758062907751 -0.55919289150049634 0.5 0 0 1 I I -0.70710678118654746 0.70710678118654746 0.5 forward I I I I #
loop $-1 $-1 $115 $31 #
coedge $-1 $72 $72 $116 $117 reversed $45 $-1 #
face $-1 $-1 $118 $25 $-1 $119 forward single #
loop $-1 $120 $121 $47 #
cone-surface $-1 1.2716180320103092 -43.302119619497354 17.287092404435583 0 0.82903758062907751 -0.55919289150049634 0.5 0 0 1 I I -0.70710678118654746 0.70710678118654746 0.5 forward I I I I #
loop $-1 $-1 $122 $32 #
coedge $-1 $77 $77 $123 $124 reversed $48 $-1 #
face $-1 $125 $126 $26 $-1 $127 forward single #
loop $-1 $-1 $128 $50 #
plane-surface $-1 58.433671405552104 -4.2933093982534842 92.489579659761404 0 0.83867057594974714 0.54463902268945019 1 0 0 forward_v I I I I #
coedge $-1 $129 $130 $131 $132 reversed $51 $-1 #
face $-1 $-1 $133 $27 $-1 $134 forward single #
loop $-1 $135 $136 $53 #
cone-surface $-1 58.433671405552104 39.226124906189483 13.748062151836329 0 -0.83867057594974714 -0.54463902268945019 1.5 0 0 1 I I -0.70710678118654757 0.70710678118654757 1.5 forward I I I I #
loop $-1 $-1 $137 $34 #
coedge $-1 $86 $86 $138 $139 reversed $54 $-1 #
face $-1 $140 $141 $21 $-1 $142 reversed single #
loop $-1 $-1 $143 $56 #
plane-surface $-1 0 -48.089195725919581 0 0 1 0 0 0 1 forward_v I I I I #
coedge $-1 $144 $145 $146 $147 forward $57 $-1 #
coedge $-1 $148 $59 $149 $150 forward $36 $-1 #
coedge $-1 $59 $148 $151 $152 forward $36 $-1 #
coedge $-1 $153 $154 $59 $94 reversed $155 $-1 #
edge $-1 $156 -48.089195725919581 $157 48.089195725919581 $93 $158 forward 7 unknown #
face $-1 $159 $160 $22 $-1 $161 reversed single #
loop $-1 $-1 $162 $60 #
plane-surface $-1 0 48.089195725919581 0 0 -1 0 0 0 -1 forward_v I I I I #
coedge $-1 $101 $163 $164 $165 reversed $61 $-1 #
coedge $-1 $166 $63 $167 $168 reversed $39 $-1 #
coedge $-1 $63 $166 $169 $170 reversed $39 $-1 #
coedge $-1 $171 $98 $63 $102 reversed $61 $-1 #
edge $-1 $172 -48.089195725919581 $173 48.089195725919581 $101 $174 forward 7 unknown #
face $-1 $175 $176 $23 $-1 $177 reversed single #
loop $-1 $-1 $178 $64 #
plane-surface $-1 -23.873827184069459 -163.99202465009873 93.060911235043164 1 0 0 0 0.82903758062907751 -0.55919289150049634 forward_v I I I I #
coedge $-1 $179 $180 $181 $182 reversed $65 $-1 #
coedge $-1 $108 $67 $183 $184 reversed $42 $-1 #
coedge $-1 $67 $107 $179 $185 reversed $42 $-1 #
coedge $-1 $181 $186 $67 $110 forward $187 $-1 #
edge $-1 $188 33.906816599129783 $189 39.12922361617909 $109 $190 forward 7 unknown #
loop $-1 $-1 $116 $68 #
plane-surface $-1 -6.2720155328136258 -48.089195725919552 14.883468434417111 0 -0.82903758062907751 0.55919289150049634 1 0 0 forward_v I I I I #
loop $-1 $-1 $191 $44 #
coedge $-1 $114 $114 $115 $192 reversed $69 $-1 #
coedge $-1 $115 $115 $114 $192 forward $71 $-1 #
coedge $-1 $116 $116 $72 $117 forward $111 $-1 #
edge $-1 $193 2.8067523563720781e-015 $193 6.2831853071796031 $116 $194 forward 7 unknown #
loop $-1 $-1 $123 $73 #
plane-surface $-1 -6.2720155328136258 -48.089195725919552 14.883468434417111 0 -0.82903758062907751 0.55919289150049634 1 0 0 forward_v I I I I #
loop $-1 $-1 $195 $47 #
coedge $-1 $121 $121 $122 $196 reversed $74 $-1 #
coedge $-1 $122 $122 $121 $196 forward $76 $-1 #
coedge $-1 $123 $123 $77 $124 forward $118 $-1 #
edge $-1 $197 2.8067523563720781e-015 $197 6.2831853071796031 $123 $198 forward 7 unknown #
face $-1 $199 $200 $26 $-1 $201 reversed single #
loop $-1 $-1 $131 $78 #
plane-surface $-1 0 0 22.626005480725411 0 0 1 1 0 0 forward_v I I I I #
coedge $-1 $202 $203 $204 $205 reversed $79 $-1 #
coedge $-1 $130 $81 $206 $207 reversed $51 $-1 #
coedge $-1 $81 $129 $202 $208 reversed $51 $-1 #
coedge $-1 $204 $209 $81 $132 forward $126 $-1 #
edge $-1 $210 8.3889300187348255 $211 15.401501042892392 $131 $212 forward 7 unknown #
loop $-1 $-1 $138 $82 #
plane-surface $-1 58.433671405552104 -4.2933093982534842 92.489579659761404 0 0.83867057594974714 0.54463902268945019 1 0 0 forward_v I I I I #
loop $-1 $-1 $213 $53 #
coedge $-1 $136 $136 $137 $214 reversed $83 $-1 #
coedge $-1 $137 $137 $136 $214 forward $85 $-1 #
coedge $-1 $138 $138 $86 $139 forward $133 $-1 #
edge $-1 $215 -9.9318547572805383e-016 $215 6.2831853071795996 $138 $216 forward 7 unknown #
face $-1 $217 $218 $21 $-1 $219 reversed single #
loop $-1 $-1 $220 $87 #
plane-surface $-1 -69.902035584582052 0 0 1 0 0 0 0 -1 forward_v I I I I #
coedge $-1 $221 $151 $222 $223 forward $88 $-1 #
coedge $-1 $224 $90 $221 $225 forward $57 $-1 #
coedge $-1 $90 $224 $226 $227 forward $57 $-1 #
coedge $-1 $154 $153 $90 $147 reversed $155 $-1 #
edge $-1 $228 -48.089195725919581 $229 48.089195725919581 $146 $230 forward 7 unknown #
coedge $-1 $92 $91 $231 $232 forward $36 $-1 #
coedge $-1 $233 $234 $91 $150 reversed $218 $-1 #
edge $-1 $157 -69.902035584582052 $235 69.902035584582052 $149 $236 forward 7 unknown #
coedge $-1 $143 $237 $92 $152 reversed $88 $-1 #
edge $-1 $238 -69.902035584582052 $156 69.902035584582052 $151 $239 forward 7 unknown #
coedge $-1 $146 $93 $237 $240 forward $155 $-1 #
coedge $-1 $93 $146 $233 $241 reversed $155 $-1 #
loop $-1 $-1 $153 $217 #
vertex $-1 $94 $242 #
vertex $-1 $94 $243 #
straight-curve $-1 69.902035584582052 0 22.626005480725411 0 1 0 I I #
face $-1 $244 $245 $22 $-1 $246 forward single #
loop $-1 $-1 $247 $95 #
plane-surface $-1 -69.902035584582052 0 0 1 0 0 0 0 -1 forward_v I I I I #
coedge $-1 $169 $248 $171 $249 forward $96 $-1 #
coedge $-1 $98 $171 $250 $251 reversed $61 $-1 #
coedge $-1 $252 $167 $98 $165 forward $253 $-1 #
edge $-1 $173 4.8698010911142866 $254 13.460736623445509 $164 $255 forward 7 unknown #
coedge $-1 $100 $99 $247 $256 reversed $39 $-1 #
coedge $-1 $164 $257 $99 $168 forward $253 $-1 #
edge $-1 $258 -39.342052414089821 $173 -21.777913926894652 $167 $259 forward 7 unknown #
coedge $-1 $260 $162 $100 $170 forward $96 $-1 #
edge $-1 $172 21.777913926894652 $261 39.342052414089821 $169 $262 forward 7 unknown #
coedge $-1 $163 $101 $162 $249 reversed $61 $-1 #
vertex $-1 $170 $263 #
vertex $-1 $168 $264 #
straight-curve $-1 -52.337897097386886 0 14.035069948394185 0 -1 0 I I #
face $-1 $-1 $187 $23 $-1 $265 forward single #
loop $-1 $-1 $266 $103 #
plane-surface $-1 0 -48.089195725919581 0 0 1 0 0 0 1 forward_v I I I I #
coedge $-1 $267 $268 $269 $270 reversed $104 $-1 #
coedge $-1 $271 $106 $108 $185 forward $65 $-1 #
coedge $-1 $106 $271 $267 $272 forward $65 $-1 #
coedge $-1 $269 $109 $106 $182 forward $187 $-1 #
edge $-1 $189 -14.46580388484902 $273 20.737819417662646 $181 $274 forward 7 unknown #
coedge $-1 $275 $276 $107 $184 forward $176 $-1 #
edge $-1 $277 -31.646987183104514 $188 -23.904450136796171 $183 $278 forward 7 unknown #
edge $-1 $189 -9.3391870612587038 $277 5.1237215713061704e-014 $108 $279 forward 7 unknown #
coedge $-1 $109 $269 $275 $280 forward $187 $-1 #
loop $-1 $-1 $269 $175 #
vertex $-1 $184 $281 #
vertex $-1 $110 $282 #
straight-curve $-1 11.329796118442207 -81.996012325049364 22.626005480725411 0 1 0 I I #
coedge $-1 $191 $191 $-1 $283 reversed $113 $-1 #
edge $-1 $284 0 $284 6.2831853071796004 $114 $285 forward 7 unknown #
vertex $-1 $117 $286 #
ellipse-curve $-1 -13.815649097637554 -45.47799221739492 18.75473695757125 0 -0.82903758062907751 0.55919289150049634 1 0 0 1 I I #
coedge $-1 $195 $195 $-1 $287 reversed $120 $-1 #
edge $-1 $288 0 $288 6.2831853071796004 $121 $289 forward 7 unknown #
vertex $-1 $124 $290 #
ellipse-curve $-1 1.2716180320103092 -45.47799221739492 18.75473695757125 0 -0.82903758062907751 0.55919289150049634 1 0 0 1 I I #
face $-1 $-1 $291 $26 $-1 $292 reversed single #
loop $-1 $-1 $293 $125 #
plane-surface $-1 69.902035584582052 0 0 -1 0 0 0 0 1 forward_v I I I I #
coedge $-1 $294 $128 $130 $208 forward $79 $-1 #
coedge $-1 $128 $294 $293 $295 reversed $79 $-1 #
coedge $-1 $296 $131 $128 $205 forward $126 $-1 #
edge $-1 $211 17.74847152374609 $297 40.685199881806014 $204 $298 forward 7 unknown #
coedge $-1 $299 $300 $129 $207 forward $291 $-1 #
edge $-1 $301 -72.48857346774345 $210 -61.690160693945231 $206 $302 forward 7 unknown #
edge $-1 $211 83.302760562357193 $301 96.17839145183919 $130 $303 forward 7 unknown #
coedge $-1 $131 $296 $299 $304 forward $126 $-1 #
vertex $-1 $207 $305 #
vertex $-1 $132 $306 #
straight-curve $-1 46.965307226522143 56.478125744654406 22.626005480725411 0 -1 0 I I #
coedge $-1 $213 $213 $-1 $307 reversed $135 $-1 #
edge $-1 $308 0 $308 6.2831853071796004 $136 $309 forward 7 unknown #
vertex $-1 $139 $310 #
ellipse-curve $-1 58.433671405552104 44.58291021384079 17.226799093826326 0 0.83867057594974714 0.54463902268945019 3 0 0 1 I I #
face $-1 $-1 $155 $21 $-1 $311 reversed single #
loop $-1 $-1 $233 $140 #
plane-surface $-1 0 48.089195725919581 0 0 -1 0 0 0 -1 forward_v I I I I #
coedge $-1 $312 $231 $234 $313 forward $141 $-1 #
coedge $-1 $237 $143 $144 $225 reversed $88 $-1 #
coedge $-1 $231 $312 $143 $223 reversed $141 $-1 #
edge $-1 $238 -22.626005480725411 $314 22.626005480725411 $222 $315 forward 7 unknown #
coedge $-1 $145 $144 $312 $316 forward $57 $-1 #
edge $-1 $229 -69.902035584582052 $314 69.902035584582052 $221 $317 forward 7 unknown #
coedge $-1 $234 $233 $145 $227 reversed $218 $-1 #
edge $-1 $318 -69.902035584582052 $228 69.902035584582052 $226 $319 forward 7 unknown #
vertex $-1 $147 $320 #
vertex $-1 $240 $321 #
straight-curve $-1 69.902035584582052 0 -22.626005480725411 0 -1 0 I I #
coedge $-1 $220 $222 $148 $232 reversed $141 $-1 #
edge $-1 $235 -48.089195725919581 $238 48.089195725919581 $231 $322 forward 7 unknown #
coedge $-1 $226 $149 $154 $241 forward $218 $-1 #
coedge $-1 $149 $226 $220 $313 reversed $218 $-1 #
vertex $-1 $150 $323 #
straight-curve $-1 0 48.089195725919581 22.626005480725411 -1 0 0 I I #
coedge $-1 $151 $221 $153 $240 reversed $88 $-1 #
vertex $-1 $232 $324 #
straight-curve $-1 0 -48.089195725919581 22.626005480725411 1 0 0 I I #
edge $-1 $156 -22.626005480725411 $229 22.626005480725411 $153 $325 forward 7 unknown #
edge $-1 $157 -22.626005480725411 $228 22.626005480725411 $154 $326 forward 7 unknown #
point $-1 69.902035584582052 -48.089195725919581 22.626005480725411 #
point $-1 69.902035584582052 48.089195725919581 22.626005480725411 #
face $-1 $-1 $253 $22 $-1 $327 reversed single #
loop $-1 $-1 $250 $159 #
plane-surface $-1 0 0 22.626005480725411 0 0 1 1 0 0 forward_v I I I I #
coedge $-1 $328 $329 $166 $256 forward $160 $-1 #
coedge $-1 $162 $260 $330 $331 reversed $96 $-1 #
edge $-1 $332 -13.460736623445509 $172 -4.8698010911142866 $162 $333 forward 7 unknown #
coedge $-1 $330 $334 $163 $251 forward $245 $-1 #
edge $-1 $254 -48.089195725919581 $332 48.089195725919581 $250 $335 forward 7 unknown #
coedge $-1 $257 $164 $334 $336 reversed $253 $-1 #
loop $-1 $-1 $164 $244 #
vertex $-1 $165 $337 #
straight-curve $-1 -52.337897097386886 -48.089195725919581 9.1652688572798979 0 0 1 I I #
edge $-1 $261 -48.089195725919581 $258 48.089195725919581 $247 $338 forward 7 unknown #
coedge $-1 $167 $252 $328 $339 forward $253 $-1 #
vertex $-1 $256 $340 #
straight-curve $-1 -30.559983170492234 -48.089195725919581 14.035069948394185 1 0 0 I I #
coedge $-1 $248 $169 $329 $341 reversed $96 $-1 #
vertex $-1 $256 $342 #
straight-curve $-1 -30.559983170492234 48.089195725919581 14.035069948394185 -1 0 0 I I #
point $-1 -52.337897097386886 48.089195725919581 14.035069948394185 #
point $-1 -52.337897097386886 -48.089195725919581 14.035069948394185 #
plane-surface $-1 0 0 22.626005480725411 0 0 1 1 0 0 forward_v I I I I #
coedge $-1 $276 $275 $268 $343 forward $176 $-1 #
coedge $-1 $268 $178 $180 $272 reversed $104 $-1 #
coedge $-1 $178 $267 $266 $343 reversed $104 $-1 #
coedge $-1 $186 $181 $178 $270 forward $187 $-1 #
edge $-1 $273 -39.12922361617909 $344 -33.906816599129783 $269 $345 forward 7 unknown #
coedge $-1 $180 $179 $276 $346 reversed $65 $-1 #
edge $-1 $347 -5.1237215713061704e-014 $273 9.3391870612587038 $267 $348 forward 7 unknown #
vertex $-1 $182 $349 #
straight-curve $-1 -3.1360077664068129 -42.866788708870274 22.626005480725411 -1 0 0 I I #
coedge $-1 $266 $183 $186 $280 reversed $176 $-1 #
coedge $-1 $183 $266 $271 $346 forward $176 $-1 #
vertex $-1 $184 $350 #
straight-curve $-1 11.329796118442207 -48.089195725919581 46.530455617521582 0 0 1 I I #
straight-curve $-1 11.329796118442207 -48.089195725919552 14.883468434417111 0 -0.55919289150049634 -0.82903758062907751 I I #
edge $-1 $344 -23.873827184069459 $188 11.329796118442207 $275 $351 forward 7 unknown #
point $-1 11.329796118442207 -48.089195725919581 22.626005480725411 #
point $-1 11.329796118442207 -42.866788708870274 22.626005480725411 #
edge $-1 $352 1 $352 0 $191 $-1 forward 7 unknown #
vertex $-1 $192 $353 #
ellipse-curve $-1 -13.815649097637554 -43.716638409811893 17.56668885018583 0 -0.82903758062907751 0.55919289150049634 1 0 0 1 I I #
point $-1 -12.815649097637554 -45.477992217394942 18.754736957571268 #
edge $-1 $354 1 $354 0 $195 $-1 forward 7 unknown #
vertex $-1 $196 $355 #
ellipse-curve $-1 1.2716180320103092 -43.716638409811893 17.56668885018583 0 -0.82903758062907751 0.55919289150049634 1 0 0 1 I I #
point $-1 2.2716180320103092 -45.477992217394942 18.754736957571268 #
loop $-1 $-1 $206 $199 #
plane-surface $-1 0 48.089195725919581 0 0 -1 0 0 0 -1 forward_v I I I I #
coedge $-1 $356 $357 $203 $295 forward $200 $-1 #
coedge $-1 $203 $202 $300 $358 reversed $79 $-1 #
edge $-1 $297 43.349464123672035 $359 56.225095013154032 $293 $360 forward 7 unknown #
coedge $-1 $209 $204 $357 $361 forward $126 $-1 #
vertex $-1 $361 $362 #
straight-curve $-1 29.216835702776052 41.076624701762015 22.626005480725411 1 0 0 I I #
coedge $-1 $363 $206 $209 $304 reversed $291 $-1 #
coedge $-1 $206 $363 $294 $358 forward $291 $-1 #
vertex $-1 $207 $364 #
straight-curve $-1 46.965307226522143 48.089195725919581 84.316166174670641 0 0 1 I I #
straight-curve $-1 46.965307226522143 -4.2933093982534842 92.489579659761404 0 0.54463902268945019 -0.83867057594974714 I I #
edge $-1 $365 -69.902035584582052 $210 -46.965307226522143 $299 $366 forward 7 unknown #
point $-1 46.965307226522143 48.089195725919581 22.626005480725411 #
point $-1 46.965307226522143 41.076624701762015 22.626005480725411 #
edge $-1 $367 1 $367 0 $213 $-1 forward 7 unknown #
vertex $-1 $214 $368 #
ellipse-curve $-1 58.433671405552104 40.484130770114106 14.565020685870504 0 0.83867057594974714 0.54463902268945019 3 0 0 1 I I #
point $-1 61.433671405552104 44.58291021384079 17.22679909382633 #
plane-surface $-1 69.902035584582052 0 0 -1 0 0 0 0 1 forward_v I I I I #
coedge $-1 $222 $220 $224 $316 reversed $141 $-1 #
edge $-1 $235 -22.626005480725411 $318 22.626005480725411 $234 $369 forward 7 unknown #
vertex $-1 $316 $370 #
straight-curve $-1 -69.902035584582052 -48.089195725919581 0 0 0 -1 I I #
edge $-1 $314 -48.089195725919581 $318 48.089195725919581 $312 $371 forward 7 unknown #
straight-curve $-1 0 -48.089195725919581 -22.626005480725411 -1 0 0 I I #
vertex $-1 $227 $372 #
straight-curve $-1 0 48.089195725919581 -22.626005480725411 1 0 0 I I #
point $-1 69.902035584582052 48.089195725919581 -22.626005480725411 #
point $-1 69.902035584582052 -48.089195725919581 -22.626005480725411 #
straight-curve $-1 -69.902035584582052 0 22.626005480725411 0 -1 0 I I #
point $-1 -69.902035584582052 48.089195725919581 22.626005480725411 #
point $-1 -69.902035584582052 -48.089195725919581 22.626005480725411 #
straight-curve $-1 69.902035584582052 -48.089195725919581 0 0 0 -1 I I #
straight-curve $-1 69.902035584582052 48.089195725919581 0 0 0 -1 I I #
plane-surface $-1 0 -48.089195725919581 0 0 1 0 0 0 1 forward_v I I I I #
coedge $-1 $373 $247 $257 $339 reversed $160 $-1 #
coedge $-1 $247 $373 $260 $341 forward $160 $-1 #
coedge $-1 $374 $250 $248 $331 forward $245 $-1 #
edge $-1 $332 52.337897097386886 $375 69.902035584582052 $248 $376 forward 7 unknown #
vertex $-1 $331 $377 #
straight-curve $-1 -52.337897097386886 48.089195725919581 9.1652688572798979 0 0 -1 I I #
coedge $-1 $250 $374 $252 $336 forward $245 $-1 #
straight-curve $-1 -52.337897097386886 0 22.626005480725411 0 1 0 I I #
edge $-1 $378 -69.902035584582052 $254 -52.337897097386886 $252 $379 forward 7 unknown #
point $-1 -52.337897097386886 -48.089195725919581 22.626005480725407 #
straight-curve $-1 -69.902035584582052 0 14.035069948394185 0 -1 0 I I #
edge $-1 $378 -22.626005480725411 $258 -14.035069948394185 $328 $380 forward 7 unknown #
point $-1 -69.902035584582052 -48.089195725919581 14.035069948394185 #
edge $-1 $375 -22.626005480725411 $261 -14.035069948394185 $260 $381 forward 7 unknown #
point $-1 -69.902035584582052 48.089195725919581 14.035069948394185 #
edge $-1 $344 23.904450136796171 $347 31.646987183104514 $266 $382 forward 7 unknown #
vertex $-1 $280 $383 #
straight-curve $-1 -23.873827184069459 -81.996012325049364 22.626005480725411 0 -1 0 I I #
edge $-1 $347 -20.737819417662646 $277 14.46580388484902 $276 $384 forward 7 unknown #
vertex $-1 $346 $385 #
straight-curve $-1 -23.873827184069459 -48.089195725919552 14.883468434417111 0 0.55919289150049634 0.82903758062907751 I I #
point $-1 -23.873827184069459 -42.866788708870274 22.626005480725411 #
point $-1 11.329796118442207 -48.089195725919581 14.883468434417068 #
straight-curve $-1 0 -48.089195725919581 22.626005480725411 1 0 0 I I #
vertex $-1 $283 $386 #
point $-1 -12.815649097637554 -43.716638409811893 17.56668885018583 #
vertex $-1 $287 $387 #
point $-1 2.2716180320103092 -43.716638409811893 17.56668885018583 #
coedge $-1 $357 $293 $363 $388 reversed $200 $-1 #
coedge $-1 $293 $356 $296 $361 reversed $200 $-1 #
edge $-1 $359 -40.685199881806014 $301 -17.74847152374609 $300 $389 forward 7 unknown #
vertex $-1 $295 $390 #
straight-curve $-1 69.902035584582052 17.466814927333893 58.981925524438338 0 0.54463902268945019 -0.83867057594974714 I I #
edge $-1 $297 41.076624701762015 $365 48.089195725919581 $357 $391 forward 7 unknown #
point $-1 69.902035584582066 41.076624701762015 22.626005480725411 #
coedge $-1 $300 $299 $356 $388 forward $291 $-1 #
point $-1 46.965307226522143 48.089195725919581 11.827592706927192 #
vertex $-1 $361 $392 #
straight-curve $-1 0 48.089195725919581 22.626005480725411 -1 0 0 I I #
vertex $-1 $307 $393 #
point $-1 61.433671405552104 40.484130770114106 14.565020685870504 #
straight-curve $-1 -69.902035584582052 48.089195725919581 0 0 0 -1 I I #
point $-1 -69.902035584582052 -48.089195725919581 -22.626005480725411 #
straight-curve $-1 -69.902035584582052 0 -22.626005480725411 0 1 0 I I #
point $-1 -69.902035584582052 48.089195725919581 -22.626005480725411 #
coedge $-1 $329 $328 $374 $394 reversed $160 $-1 #
coedge $-1 $334 $330 $373 $394 forward $245 $-1 #
vertex $-1 $331 $395 #
straight-curve $-1 0 48.089195725919581 22.626005480725411 -1 0 0 I I #
point $-1 -52.337897097386886 48.089195725919581 22.626005480725407 #
vertex $-1 $394 $396 #
straight-curve $-1 0 -48.089195725919581 22.626005480725411 1 0 0 I I #
straight-curve $-1 -69.902035584582052 -48.089195725919581 0 0 0 -1 I I #
straight-curve $-1 -69.902035584582052 48.089195725919581 0 0 0 -1 I I #
straight-curve $-1 -23.873827184069459 -48.089195725919581 46.530455617521582 0 0 -1 I I #
point $-1 -23.873827184069459 -48.089195725919581 22.626005480725411 #
straight-curve $-1 -3.1360077664068129 -48.089195725919581 14.883468434417065 1 0 0 I I #
point $-1 -23.873827184069459 -48.089195725919581 14.883468434417068 #
point $-1 -13.815649097637554 -42.887600829182816 17.007495958685336 #
point $-1 1.2716180320103092 -42.887600829182816 17.007495958685336 #
edge $-1 $365 -22.626005480725411 $359 -11.827592706927192 $356 $397 forward 7 unknown #
straight-curve $-1 29.216835702776052 48.089195725919581 11.827592706927199 -1 0 0 I I #
point $-1 69.902035584582066 48.089195725919581 11.827592706927192 #
straight-curve $-1 69.902035584582052 0 22.626005480725411 0 1 0 I I #
point $-1 69.902035584582052 48.089195725919581 22.626005480725411 #
point $-1 58.433671405552104 37.96811904226486 12.931103617802155 #
edge $-1 $375 -48.089195725919581 $378 48.089195725919581 $373 $398 forward 7 unknown #
point $-1 -69.902035584582052 48.089195725919581 22.626005480725411 #
point $-1 -69.902035584582052 -48.089195725919581 22.626005480725411 #
straight-curve $-1 69.902035584582052 48.089195725919581 0 0 0 -1 I I #
straight-curve $-1 -69.902035584582052 0 22.626005480725411 0 -1 0 I I #
End-of-ACIS-data 