500 0 14 0           
7 Unknown 11 ACIS 5.0 NT 24 Fri Mar 26 14:34:50 1999 
-1 9.9999999999999995e-007 1e-010 
body $-1 $14 $-1 $15 #
body $-1 $16 $-1 $17 #
body $-1 $18 $-1 $19 #
body $-1 $20 $-1 $21 #
body $-1 $22 $-1 $23 #
body $-1 $24 $-1 $25 #
body $-1 $26 $-1 $27 #
body $-1 $28 $-1 $29 #
body $-1 $30 $-1 $31 #
body $-1 $32 $-1 $33 #
body $-1 $34 $-1 $35 #
body $-1 $36 $-1 $37 #
body $-1 $38 $-1 $39 #
body $-1 $40 $-1 $41 #
lump $-1 $-1 $42 $0 #
transform $-1 1 0 0 0 1 0 0 0 1 48.469496749778742 28.958035525733774 13.98959364487771 1 rotate no_reflect no_shear #
lump $-1 $-1 $43 $1 #
transform $-1 1 0 0 0 1 0 0 0 1 48.469496749778742 28.958035525733774 13.98959364487771 1 rotate no_reflect no_shear #
lump $-1 $-1 $44 $2 #
transform $-1 1 0 0 0 1 0 0 0 1 48.469496749778742 28.958035525733774 13.98959364487771 1 rotate no_reflect no_shear #
lump $-1 $-1 $45 $3 #
transform $-1 1 0 0 0 1 0 0 0 1 48.469496749778742 28.958035525733774 13.98959364487771 1 rotate no_reflect no_shear #
lump $-1 $-1 $46 $4 #
transform $-1 1 0 0 0 1 0 0 0 1 48.469496749778742 28.958035525733774 13.98959364487771 1 rotate no_reflect no_shear #
lump $-1 $-1 $47 $5 #
transform $-1 1 0 0 0 1 0 0 0 1 48.469496749778742 28.958035525733774 13.98959364487771 1 rotate no_reflect no_shear #
lump $-1 $-1 $48 $6 #
transform $-1 1 0 0 0 1 0 0 0 1 48.469496749778742 28.958035525733774 13.98959364487771 1 rotate no_reflect no_shear #
lump $-1 $-1 $49 $7 #
transform $-1 1 0 0 0 1 0 0 0 1 48.469496749778742 28.958035525733774 13.98959364487771 1 rotate no_reflect no_shear #
lump $-1 $-1 $50 $8 #
transform $-1 1 0 0 0 1 0 0 0 1 48.469496749778742 28.958035525733774 13.98959364487771 1 rotate no_reflect no_shear #
lump $-1 $-1 $51 $9 #
transform $-1 1 0 0 0 1 0 0 0 1 48.469496749778742 28.958035525733774 13.98959364487771 1 rotate no_reflect no_shear #
lump $-1 $-1 $52 $10 #
transform $-1 1 0 0 0 1 0 0 0 1 48.469496749778742 28.958035525733774 13.98959364487771 1 rotate no_reflect no_shear #
lump $-1 $-1 $53 $11 #
transform $-1 1 0 0 0 1 0 0 0 1 48.469496749778742 28.958035525733774 13.98959364487771 1 rotate no_reflect no_shear #
lump $-1 $-1 $54 $12 #
transform $-1 1 0 0 0 1 0 0 0 1 48.469496749778742 28.958035525733774 13.98959364487771 1 rotate no_reflect no_shear #
lump $-1 $-1 $55 $13 #
transform $-1 1 0 0 0 1 0 0 0 1 48.469496749778742 28.958035525733774 13.98959364487771 1 rotate no_reflect no_shear #
shell $-1 $-1 $-1 $56 $-1 $14 #
shell $-1 $-1 $-1 $57 $-1 $16 #
shell $-1 $-1 $-1 $58 $-1 $18 #
shell $-1 $-1 $-1 $59 $-1 $20 #
shell $-1 $-1 $-1 $60 $-1 $22 #
shell $-1 $-1 $-1 $61 $-1 $24 #
shell $-1 $-1 $-1 $62 $-1 $26 #
shell $-1 $-1 $-1 $63 $-1 $28 #
shell $-1 $-1 $-1 $64 $-1 $30 #
shell $-1 $-1 $-1 $65 $-1 $32 #
shell $-1 $-1 $-1 $66 $-1 $34 #
shell $-1 $-1 $-1 $67 $-1 $36 #
shell $-1 $-1 $-1 $68 $-1 $38 #
shell $-1 $-1 $-1 $69 $-1 $40 #
face $-1 $70 $71 $42 $-1 $72 forward single #
face $-1 $73 $74 $43 $-1 $75 forward single #
face $-1 $76 $77 $44 $-1 $78 reversed single #
face $-1 $79 $80 $45 $-1 $81 forward single #
face $-1 $82 $83 $46 $-1 $84 forward single #
face $-1 $85 $86 $47 $-1 $87 reversed single #
face $-1 $88 $89 $48 $-1 $90 forward single #
face $-1 $91 $92 $49 $-1 $93 forward single #
face $-1 $94 $95 $50 $-1 $96 reversed single #
face $-1 $97 $98 $51 $-1 $99 forward single #
face $-1 $100 $101 $52 $-1 $102 forward single #
face $-1 $103 $104 $53 $-1 $105 reversed single #
face $-1 $106 $107 $54 $-1 $108 forward single #
face $-1 $109 $110 $55 $-1 $111 forward single #
face $-1 $112 $113 $42 $-1 $114 reversed single #
loop $-1 $-1 $115 $56 #
plane-surface $-1 0 0 13.98959364487771 0 0 1 1 0 0 forward_v I I I I #
face $-1 $116 $117 $43 $-1 $118 forward single #
loop $-1 $-1 $119 $57 #
plane-surface $-1 -48.469496749778742 0 0 1 0 0 0 0 -1 forward_v I I I I #
face $-1 $120 $121 $44 $-1 $122 reversed single #
loop $-1 $-1 $123 $58 #
plane-surface $-1 -28.567365789549129 78.714564700512398 107.98441716044024 1 0 0 0 -0.83867057594974714 -0.54463902268945019 forward_v I I I I #
face $-1 $124 $125 $45 $-1 $126 forward single #
loop $-1 $127 $128 $59 #
cone-surface $-1 -24.863757803897489 25.920363639791546 9.8846985785999912 0 -0.83867057594974714 -0.54463902268945019 1 0 0 1 I I 0 1 1 forward I I I I #
face $-1 $129 $130 $46 $-1 $131 forward single #
loop $-1 $132 $133 $60 #
cone-surface $-1 -19.30834582542002 25.920363639791546 9.8846985785999912 0 -0.83867057594974714 -0.54463902268945019 1 0 0 1 I I 0 1 1 forward I I I I #
face $-1 $134 $135 $47 $-1 $136 reversed single #
loop $-1 $-1 $137 $61 #
plane-surface $-1 -8.3320623699667866 78.714564700512398 107.98441716044024 1 0 0 0 -0.83867057594974714 -0.54463902268945019 forward_v I I I I #
face $-1 $138 $139 $48 $-1 $140 forward single #
loop $-1 $141 $142 $62 #
cone-surface $-1 -4.6284543843151482 25.920363639791546 9.8846985785999912 0 -0.83867057594974714 -0.54463902268945019 1 0 0 1 I I 0 1 1 forward I I I I #
face $-1 $143 $144 $49 $-1 $145 forward single #
loop $-1 $146 $147 $63 #
cone-surface $-1 0.92695759416232448 25.920363639791546 9.8846985785999912 0 -0.83867057594974714 -0.54463902268945019 1 0 0 1 I I 0 1 1 forward I I I I #
face $-1 $148 $149 $50 $-1 $150 reversed single #
loop $-1 $-1 $151 $64 #
plane-surface $-1 11.90324104961555 78.714564700512398 107.98441716044024 1 0 0 0 -0.83867057594974714 -0.54463902268945019 forward_v I I I I #
face $-1 $152 $153 $51 $-1 $154 forward single #
loop $-1 $155 $156 $65 #
cone-surface $-1 15.606849035267189 25.920363639791546 9.8846985785999912 0 -0.83867057594974714 -0.54463902268945019 1 0 0 1 I I 0 1 1 forward I I I I #
face $-1 $157 $158 $52 $-1 $159 forward single #
loop $-1 $160 $161 $66 #
cone-surface $-1 21.162261013744669 25.920363639791546 9.8846985785999912 0 -0.83867057594974714 -0.54463902268945019 1 0 0 1 I I 0 1 1 forward I I I I #
face $-1 $162 $163 $53 $-1 $164 reversed single #
loop $-1 $-1 $165 $67 #
plane-surface $-1 32.138544469197903 78.714564700512398 107.98441716044024 1 0 0 0 -0.83867057594974714 -0.54463902268945019 forward_v I I I I #
face $-1 $166 $167 $54 $-1 $168 forward single #
loop $-1 $169 $170 $68 #
cone-surface $-1 35.84215245484954 25.920363639791546 9.8846985785999912 0 -0.83867057594974714 -0.54463902268945019 1 0 0 1 I I 0 1 1 forward I I I I #
face $-1 $171 $172 $55 $-1 $173 forward single #
loop $-1 $174 $175 $69 #
cone-surface $-1 41.39756443332702 25.920363639791546 9.8846985785999912 0 -0.83867057594974714 -0.54463902268945019 1 0 0 1 I I 0 1 1 forward I I I I #
face $-1 $176 $177 $42 $-1 $178 reversed single #
loop $-1 $-1 $179 $70 #
plane-surface $-1 0 0 -13.98959364487771 0 0 1 1 0 0 forward_v I I I I #
coedge $-1 $180 $181 $182 $183 forward $71 $-1 #
face $-1 $184 $185 $43 $-1 $186 reversed single #
loop $-1 $-1 $187 $73 #
plane-surface $-1 0 0 13.98959364487771 0 0 1 1 0 0 forward_v I I I I #
coedge $-1 $188 $189 $190 $191 forward $74 $-1 #
face $-1 $192 $193 $44 $-1 $194 reversed single #
loop $-1 $-1 $195 $76 #
plane-surface $-1 -22.086051814658752 -2.5853168097502675 55.187658480342293 0 0.83867057594974714 0.54463902268945019 1 0 0 forward_v I I I I #
coedge $-1 $196 $197 $198 $199 reversed $77 $-1 #
face $-1 $-1 $200 $45 $-1 $201 forward single #
loop $-1 $202 $203 $79 #
cone-surface $-1 -24.863757803897489 24.857864999426976 9.1947039159856399 0 -0.83867057594974714 -0.54463902268945019 0.5 0 0 1 I I -0.70710678118654746 0.70710678118654746 0.5 forward I I I I #
loop $-1 $-1 $204 $59 #
coedge $-1 $128 $128 $205 $206 reversed $80 $-1 #
face $-1 $-1 $207 $46 $-1 $208 forward single #
loop $-1 $209 $210 $82 #
cone-surface $-1 -19.30834582542002 24.857864999426976 9.1947039159856399 0 -0.83867057594974714 -0.54463902268945019 0.5 0 0 1 I I -0.70710678118654746 0.70710678118654746 0.5 forward I I I I #
loop $-1 $-1 $211 $60 #
coedge $-1 $133 $133 $212 $213 reversed $83 $-1 #
face $-1 $214 $215 $47 $-1 $216 reversed single #
loop $-1 $-1 $217 $85 #
plane-surface $-1 -1.8507483950764083 -2.5853168097502675 55.187658480342293 0 0.83867057594974714 0.54463902268945019 1 0 0 forward_v I I I I #
coedge $-1 $218 $219 $220 $221 reversed $86 $-1 #
face $-1 $-1 $222 $48 $-1 $223 forward single #
loop $-1 $224 $225 $88 #
cone-surface $-1 -4.6284543843151482 24.857864999426976 9.1947039159856399 0 -0.83867057594974714 -0.54463902268945019 0.5 0 0 1 I I -0.70710678118654746 0.70710678118654746 0.5 forward I I I I #
loop $-1 $-1 $226 $62 #
coedge $-1 $142 $142 $227 $228 reversed $89 $-1 #
face $-1 $-1 $229 $49 $-1 $230 forward single #
loop $-1 $231 $232 $91 #
cone-surface $-1 0.92695759416232448 24.857864999426976 9.1947039159856399 0 -0.83867057594974714 -0.54463902268945019 0.5 0 0 1 I I -0.70710678118654746 0.70710678118654746 0.5 forward I I I I #
loop $-1 $-1 $233 $63 #
coedge $-1 $147 $147 $234 $235 reversed $92 $-1 #
face $-1 $236 $237 $50 $-1 $238 reversed single #
loop $-1 $-1 $239 $94 #
plane-surface $-1 18.384555024505929 -2.5853168097502675 55.187658480342293 0 0.83867057594974714 0.54463902268945019 1 0 0 forward_v I I I I #
coedge $-1 $240 $241 $242 $243 reversed $95 $-1 #
face $-1 $-1 $244 $51 $-1 $245 forward single #
loop $-1 $246 $247 $97 #
cone-surface $-1 15.606849035267189 24.857864999426976 9.1947039159856399 0 -0.83867057594974714 -0.54463902268945019 0.5 0 0 1 I I -0.70710678118654746 0.70710678118654746 0.5 forward I I I I #
loop $-1 $-1 $248 $65 #
coedge $-1 $156 $156 $249 $250 reversed $98 $-1 #
face $-1 $-1 $251 $52 $-1 $252 forward single #
loop $-1 $253 $254 $100 #
cone-surface $-1 21.162261013744669 24.857864999426976 9.1947039159856399 0 -0.83867057594974714 -0.54463902268945019 0.5 0 0 1 I I -0.70710678118654746 0.70710678118654746 0.5 forward I I I I #
loop $-1 $-1 $255 $66 #
coedge $-1 $161 $161 $256 $257 reversed $101 $-1 #
face $-1 $258 $259 $53 $-1 $260 reversed single #
loop $-1 $-1 $261 $103 #
plane-surface $-1 38.61985844408828 -2.5853168097502675 55.187658480342293 0 0.83867057594974714 0.54463902268945019 1 0 0 forward_v I I I I #
coedge $-1 $262 $263 $264 $265 reversed $104 $-1 #
face $-1 $-1 $266 $54 $-1 $267 forward single #
loop $-1 $268 $269 $106 #
cone-surface $-1 35.84215245484954 24.857864999426976 9.1947039159856399 0 -0.83867057594974714 -0.54463902268945019 0.5 0 0 1 I I -0.70710678118654746 0.70710678118654746 0.5 forward I I I I #
loop $-1 $-1 $270 $68 #
coedge $-1 $170 $170 $271 $272 reversed $107 $-1 #
face $-1 $-1 $273 $55 $-1 $274 forward single #
loop $-1 $275 $276 $109 #
cone-surface $-1 41.39756443332702 24.857864999426976 9.1947039159856399 0 -0.83867057594974714 -0.54463902268945019 0.5 0 0 1 I I -0.70710678118654746 0.70710678118654746 0.5 forward I I I I #
loop $-1 $-1 $277 $69 #
coedge $-1 $175 $175 $278 $279 reversed $110 $-1 #
face $-1 $280 $281 $42 $-1 $282 reversed single #
loop $-1 $-1 $283 $112 #
plane-surface $-1 0 -28.958035525733774 0 0 1 0 0 0 1 forward_v I I I I #
coedge $-1 $284 $285 $286 $287 forward $113 $-1 #
coedge $-1 $288 $115 $289 $290 forward $71 $-1 #
coedge $-1 $115 $288 $291 $292 forward $71 $-1 #
coedge $-1 $293 $294 $115 $183 reversed $295 $-1 #
edge $-1 $296 -28.958035525733774 $297 28.958035525733774 $182 $298 forward 7 unknown #
face $-1 $299 $300 $43 $-1 $301 reversed single #
loop $-1 $-1 $302 $116 #
plane-surface $-1 -65.003303379208276 -25.153004383388012 0 1 0 0 0 0 -1 forward_v I I I I #
coedge $-1 $303 $304 $188 $305 forward $117 $-1 #
coedge $-1 $306 $119 $187 $305 reversed $74 $-1 #
coedge $-1 $119 $306 $307 $308 reversed $74 $-1 #
coedge $-1 $309 $310 $119 $191 reversed $300 $-1 #
edge $-1 $311 -13.98959364487771 $312 13.98959364487771 $190 $313 forward 7 unknown #
face $-1 $314 $315 $44 $-1 $316 forward single #
loop $-1 $-1 $317 $120 #
plane-surface $-1 -15.604737839768374 78.714564700512398 107.98441716044024 -1 0 0 0 0.83867057594974714 0.54463902268945019 forward_v I I I I #
coedge $-1 $318 $319 $320 $321 reversed $121 $-1 #
coedge $-1 $197 $123 $322 $323 reversed $77 $-1 #
coedge $-1 $123 $196 $318 $324 reversed $77 $-1 #
coedge $-1 $320 $325 $123 $199 forward $315 $-1 #
edge $-1 $326 10.399246824522425 $327 15.188263891627479 $198 $328 forward 7 unknown #
loop $-1 $-1 $205 $124 #
plane-surface $-1 -22.086051814658752 -2.5853168097502675 55.187658480342293 0 0.83867057594974714 0.54463902268945019 1 0 0 forward_v I I I I #
loop $-1 $-1 $329 $79 #
coedge $-1 $203 $203 $204 $330 reversed $125 $-1 #
coedge $-1 $204 $204 $203 $330 forward $127 $-1 #
coedge $-1 $205 $205 $128 $206 forward $200 $-1 #
edge $-1 $331 3.4247247195094268e-015 $331 6.283185307179604 $205 $332 forward 7 unknown #
loop $-1 $-1 $212 $129 #
plane-surface $-1 -22.086051814658752 -2.5853168097502675 55.187658480342293 0 0.83867057594974714 0.54463902268945019 1 0 0 forward_v I I I I #
loop $-1 $-1 $333 $82 #
coedge $-1 $210 $210 $211 $334 reversed $130 $-1 #
coedge $-1 $211 $211 $210 $334 forward $132 $-1 #
coedge $-1 $212 $212 $133 $213 forward $207 $-1 #
edge $-1 $335 3.4247247195094268e-015 $335 6.283185307179604 $212 $336 forward 7 unknown #
face $-1 $337 $338 $47 $-1 $339 forward single #
loop $-1 $-1 $340 $134 #
plane-surface $-1 4.63056557981397 78.714564700512398 107.98441716044024 -1 0 0 0 0.83867057594974714 0.54463902268945019 forward_v I I I I #
coedge $-1 $341 $342 $343 $344 reversed $135 $-1 #
coedge $-1 $219 $137 $345 $346 reversed $86 $-1 #
coedge $-1 $137 $218 $341 $347 reversed $86 $-1 #
coedge $-1 $343 $348 $137 $221 forward $338 $-1 #
edge $-1 $349 10.399246824522425 $350 15.188263891627479 $220 $351 forward 7 unknown #
loop $-1 $-1 $227 $138 #
plane-surface $-1 -1.8507483950764083 -2.5853168097502675 55.187658480342293 0 0.83867057594974714 0.54463902268945019 1 0 0 forward_v I I I I #
loop $-1 $-1 $352 $88 #
coedge $-1 $225 $225 $226 $353 reversed $139 $-1 #
coedge $-1 $226 $226 $225 $353 forward $141 $-1 #
coedge $-1 $227 $227 $142 $228 forward $222 $-1 #
edge $-1 $354 3.4247247195094268e-015 $354 6.283185307179604 $227 $355 forward 7 unknown #
loop $-1 $-1 $234 $143 #
plane-surface $-1 -1.8507483950764083 -2.5853168097502675 55.187658480342293 0 0.83867057594974714 0.54463902268945019 1 0 0 forward_v I I I I #
loop $-1 $-1 $356 $91 #
coedge $-1 $232 $232 $233 $357 reversed $144 $-1 #
coedge $-1 $233 $233 $232 $357 forward $146 $-1 #
coedge $-1 $234 $234 $147 $235 forward $229 $-1 #
edge $-1 $358 3.4247247195094268e-015 $358 6.283185307179604 $234 $359 forward 7 unknown #
face $-1 $360 $361 $50 $-1 $362 forward single #
loop $-1 $-1 $363 $148 #
plane-surface $-1 24.865868999396305 78.714564700512398 107.98441716044024 -1 0 0 0 0.83867057594974714 0.54463902268945019 forward_v I I I I #
coedge $-1 $364 $365 $366 $367 reversed $149 $-1 #
coedge $-1 $241 $151 $368 $369 reversed $95 $-1 #
coedge $-1 $151 $240 $364 $370 reversed $95 $-1 #
coedge $-1 $366 $371 $151 $243 forward $361 $-1 #
edge $-1 $372 10.399246824522425 $373 15.188263891627479 $242 $374 forward 7 unknown #
loop $-1 $-1 $249 $152 #
plane-surface $-1 18.384555024505929 -2.5853168097502675 55.187658480342293 0 0.83867057594974714 0.54463902268945019 1 0 0 forward_v I I I I #
loop $-1 $-1 $375 $97 #
coedge $-1 $247 $247 $248 $376 reversed $153 $-1 #
coedge $-1 $248 $248 $247 $376 forward $155 $-1 #
coedge $-1 $249 $249 $156 $250 forward $244 $-1 #
edge $-1 $377 3.4247247195094268e-015 $377 6.283185307179604 $249 $378 forward 7 unknown #
loop $-1 $-1 $256 $157 #
plane-surface $-1 18.384555024505929 -2.5853168097502675 55.187658480342293 0 0.83867057594974714 0.54463902268945019 1 0 0 forward_v I I I I #
loop $-1 $-1 $379 $100 #
coedge $-1 $254 $254 $255 $380 reversed $158 $-1 #
coedge $-1 $255 $255 $254 $380 forward $160 $-1 #
coedge $-1 $256 $256 $161 $257 forward $251 $-1 #
edge $-1 $381 3.4247247195094268e-015 $381 6.283185307179604 $256 $382 forward 7 unknown #
face $-1 $383 $384 $53 $-1 $385 forward single #
loop $-1 $-1 $386 $162 #
plane-surface $-1 45.101172418978656 78.714564700512398 107.98441716044024 -1 0 0 0 0.83867057594974714 0.54463902268945019 forward_v I I I I #
coedge $-1 $387 $388 $389 $390 reversed $163 $-1 #
coedge $-1 $263 $165 $391 $392 reversed $104 $-1 #
coedge $-1 $165 $262 $387 $393 reversed $104 $-1 #
coedge $-1 $389 $394 $165 $265 forward $384 $-1 #
edge $-1 $395 10.399246824522425 $396 15.188263891627479 $264 $397 forward 7 unknown #
loop $-1 $-1 $271 $166 #
plane-surface $-1 38.61985844408828 -2.5853168097502675 55.187658480342293 0 0.83867057594974714 0.54463902268945019 1 0 0 forward_v I I I I #
loop $-1 $-1 $398 $106 #
coedge $-1 $269 $269 $270 $399 reversed $167 $-1 #
coedge $-1 $270 $270 $269 $399 forward $169 $-1 #
coedge $-1 $271 $271 $170 $272 forward $266 $-1 #
edge $-1 $400 3.4247247195094268e-015 $400 6.283185307179604 $271 $401 forward 7 unknown #
loop $-1 $-1 $278 $171 #
plane-surface $-1 38.61985844408828 -2.5853168097502675 55.187658480342293 0 0.83867057594974714 0.54463902268945019 1 0 0 forward_v I I I I #
loop $-1 $-1 $402 $109 #
coedge $-1 $276 $276 $277 $403 reversed $172 $-1 #
coedge $-1 $277 $277 $276 $403 forward $174 $-1 #
coedge $-1 $278 $278 $175 $279 forward $273 $-1 #
edge $-1 $404 3.4247247195094268e-015 $404 6.283185307179604 $278 $405 forward 7 unknown #
face $-1 $406 $407 $42 $-1 $408 reversed single #
loop $-1 $-1 $409 $176 #
plane-surface $-1 -48.469496749778742 0 0 1 0 0 0 0 -1 forward_v I I I I #
coedge $-1 $410 $291 $411 $412 forward $177 $-1 #
coedge $-1 $413 $179 $410 $414 forward $113 $-1 #
coedge $-1 $179 $413 $415 $416 forward $113 $-1 #
coedge $-1 $294 $293 $179 $287 reversed $295 $-1 #
edge $-1 $417 -28.958035525733774 $418 28.958035525733774 $286 $419 forward 7 unknown #
coedge $-1 $181 $180 $409 $420 forward $71 $-1 #
coedge $-1 $421 $422 $180 $290 reversed $407 $-1 #
edge $-1 $297 -48.469496749778742 $423 48.469496749778742 $289 $424 forward 7 unknown #
coedge $-1 $283 $425 $181 $292 reversed $177 $-1 #
edge $-1 $426 -48.469496749778742 $296 48.469496749778742 $291 $427 forward 7 unknown #
coedge $-1 $286 $182 $425 $428 forward $295 $-1 #
coedge $-1 $182 $286 $421 $429 reversed $295 $-1 #
loop $-1 $-1 $293 $406 #
vertex $-1 $183 $430 #
vertex $-1 $183 $431 #
straight-curve $-1 48.469496749778742 0 13.98959364487771 0 1 0 I I #
face $-1 $432 $433 $43 $-1 $434 reversed single #
loop $-1 $-1 $190 $184 #
plane-surface $-1 -56.736400064493509 -21.347973241042251 0 0 -1 0 0 0 -1 forward_v I I I I #
coedge $-1 $435 $436 $437 $438 forward $185 $-1 #
coedge $-1 $439 $187 $310 $440 forward $117 $-1 #
coedge $-1 $187 $439 $441 $442 forward $117 $-1 #
edge $-1 $443 -28.958035525733774 $312 -21.347973241042251 $187 $444 forward 7 unknown #
coedge $-1 $189 $188 $445 $446 reversed $74 $-1 #
coedge $-1 $447 $448 $189 $308 forward $433 $-1 #
edge $-1 $311 21.347973241042251 $449 28.958035525733774 $307 $450 forward 7 unknown #
coedge $-1 $437 $190 $448 $451 reversed $300 $-1 #
coedge $-1 $190 $437 $303 $440 reversed $300 $-1 #
vertex $-1 $308 $452 #
vertex $-1 $440 $453 #
straight-curve $-1 -48.469496749778742 -21.347973241042251 0 0 0 1 I I #
face $-1 $-1 $454 $44 $-1 $455 reversed single #
loop $-1 $-1 $198 $192 #
plane-surface $-1 0 0 13.98959364487771 0 0 1 1 0 0 forward_v I I I I #
coedge $-1 $456 $457 $458 $459 reversed $193 $-1 #
coedge $-1 $460 $195 $197 $324 forward $121 $-1 #
coedge $-1 $195 $460 $456 $461 forward $121 $-1 #
coedge $-1 $458 $198 $195 $321 forward $315 $-1 #
edge $-1 $327 -17.524339882219753 $462 -4.5617119324389979 $320 $463 forward 7 unknown #
coedge $-1 $464 $465 $196 $323 forward $454 $-1 #
edge $-1 $466 -47.377054765358594 $326 -40.002614935342415 $322 $467 forward 7 unknown #
edge $-1 $327 49.123059776849935 $466 57.916071051467547 $197 $468 forward 7 unknown #
coedge $-1 $198 $458 $464 $469 forward $315 $-1 #
vertex $-1 $323 $470 #
vertex $-1 $199 $471 #
straight-curve $-1 -28.567365789549129 39.357282350256199 13.989593644877708 0 -1 0 I I #
coedge $-1 $329 $329 $-1 $472 reversed $202 $-1 #
edge $-1 $473 0 $473 6.2831853071796004 $203 $474 forward 7 unknown #
vertex $-1 $206 $475 #
ellipse-curve $-1 -24.863757803897489 26.563526992181242 10.302373729869618 0 0.83867057594974714 0.54463902268945019 1 0 0 1 I I #
coedge $-1 $333 $333 $-1 $476 reversed $209 $-1 #
edge $-1 $477 0 $477 6.2831853071796004 $210 $478 forward 7 unknown #
vertex $-1 $213 $479 #
ellipse-curve $-1 -19.30834582542002 26.563526992181242 10.302373729869618 0 0.83867057594974714 0.54463902268945019 1 0 0 1 I I #
face $-1 $-1 $480 $47 $-1 $481 reversed single #
loop $-1 $-1 $220 $214 #
plane-surface $-1 0 0 13.98959364487771 0 0 1 1 0 0 forward_v I I I I #
coedge $-1 $482 $483 $484 $485 reversed $215 $-1 #
coedge $-1 $486 $217 $219 $347 forward $135 $-1 #
coedge $-1 $217 $486 $482 $487 forward $135 $-1 #
coedge $-1 $484 $220 $217 $344 forward $338 $-1 #
edge $-1 $350 -7.4066881724285825 $488 5.5559397773521741 $343 $489 forward 7 unknown #
coedge $-1 $490 $491 $218 $346 forward $480 $-1 #
edge $-1 $492 -47.377054765358594 $349 -40.002614935342415 $345 $493 forward 7 unknown #
edge $-1 $350 49.123059776849935 $492 57.916071051467547 $219 $494 forward 7 unknown #
coedge $-1 $220 $484 $490 $495 forward $338 $-1 #
vertex $-1 $221 $496 #
vertex $-1 $221 $497 #
straight-curve $-1 -8.3320623699667866 39.357282350256199 13.989593644877708 0 -1 0 I I #
coedge $-1 $352 $352 $-1 $498 reversed $224 $-1 #
edge $-1 $499 0 $499 6.2831853071796004 $225 $500 forward 7 unknown #
vertex $-1 $228 $501 #
ellipse-curve $-1 -4.6284543843151482 26.563526992181242 10.302373729869618 0 0.83867057594974714 0.54463902268945019 1 0 0 1 I I #
coedge $-1 $356 $356 $-1 $502 reversed $231 $-1 #
edge $-1 $503 0 $503 6.2831853071796004 $232 $504 forward 7 unknown #
vertex $-1 $235 $505 #
ellipse-curve $-1 0.92695759416232448 26.563526992181242 10.302373729869618 0 0.83867057594974714 0.54463902268945019 1 0 0 1 I I #
face $-1 $-1 $506 $50 $-1 $507 reversed single #
loop $-1 $-1 $242 $236 #
plane-surface $-1 0 0 13.98959364487771 0 0 1 1 0 0 forward_v I I I I #
coedge $-1 $508 $509 $510 $511 reversed $237 $-1 #
coedge $-1 $512 $239 $241 $370 forward $149 $-1 #
coedge $-1 $239 $512 $508 $513 forward $149 $-1 #
coedge $-1 $510 $242 $239 $367 forward $361 $-1 #
edge $-1 $373 2.710963537362586 $514 15.673591487143341 $366 $515 forward 7 unknown #
coedge $-1 $516 $517 $240 $369 forward $506 $-1 #
edge $-1 $518 -47.377054765358594 $372 -40.002614935342415 $368 $519 forward 7 unknown #
edge $-1 $373 49.123059776849935 $518 57.916071051467547 $241 $520 forward 7 unknown #
coedge $-1 $242 $510 $516 $521 forward $361 $-1 #
vertex $-1 $243 $522 #
vertex $-1 $243 $523 #
straight-curve $-1 11.90324104961555 39.357282350256199 13.989593644877708 0 -1 0 I I #
coedge $-1 $375 $375 $-1 $524 reversed $246 $-1 #
edge $-1 $525 0 $525 6.2831853071796004 $247 $526 forward 7 unknown #
vertex $-1 $250 $527 #
ellipse-curve $-1 15.606849035267189 26.563526992181242 10.302373729869618 0 0.83867057594974714 0.54463902268945019 1 0 0 1 I I #
coedge $-1 $379 $379 $-1 $528 reversed $253 $-1 #
edge $-1 $529 0 $529 6.2831853071796004 $254 $530 forward 7 unknown #
vertex $-1 $257 $531 #
ellipse-curve $-1 21.162261013744669 26.563526992181242 10.302373729869618 0 0.83867057594974714 0.54463902268945019 1 0 0 1 I I #
face $-1 $-1 $532 $53 $-1 $533 reversed single #
loop $-1 $-1 $264 $258 #
plane-surface $-1 0 0 13.98959364487771 0 0 1 1 0 0 forward_v I I I I #
coedge $-1 $534 $535 $536 $537 reversed $259 $-1 #
coedge $-1 $538 $261 $263 $393 forward $163 $-1 #
coedge $-1 $261 $538 $534 $539 forward $163 $-1 #
coedge $-1 $536 $264 $261 $390 forward $384 $-1 #
edge $-1 $396 12.828615247153763 $540 25.791243196934516 $389 $541 forward 7 unknown #
coedge $-1 $542 $543 $262 $392 forward $532 $-1 #
edge $-1 $544 -47.377054765358594 $395 -40.002614935342415 $391 $545 forward 7 unknown #
edge $-1 $396 49.123059776849935 $544 57.916071051467547 $263 $546 forward 7 unknown #
coedge $-1 $264 $536 $542 $547 forward $384 $-1 #
vertex $-1 $265 $548 #
vertex $-1 $265 $549 #
straight-curve $-1 32.138544469197903 39.357282350256199 13.989593644877708 0 -1 0 I I #
coedge $-1 $398 $398 $-1 $550 reversed $268 $-1 #
edge $-1 $551 0 $551 6.2831853071796004 $269 $552 forward 7 unknown #
vertex $-1 $272 $553 #
ellipse-curve $-1 35.84215245484954 26.563526992181242 10.302373729869618 0 0.83867057594974714 0.54463902268945019 1 0 0 1 I I #
coedge $-1 $402 $402 $-1 $554 reversed $275 $-1 #
edge $-1 $555 0 $555 6.2831853071796004 $276 $556 forward 7 unknown #
vertex $-1 $279 $557 #
ellipse-curve $-1 41.39756443332702 26.563526992181242 10.302373729869618 0 0.83867057594974714 0.54463902268945019 1 0 0 1 I I #
face $-1 $-1 $295 $42 $-1 $558 reversed single #
loop $-1 $-1 $421 $280 #
plane-surface $-1 0 28.958035525733774 0 0 -1 0 0 0 -1 forward_v I I I I #
coedge $-1 $559 $411 $288 $420 reversed $281 $-1 #
coedge $-1 $425 $283 $284 $414 reversed $177 $-1 #
coedge $-1 $409 $560 $283 $412 reversed $281 $-1 #
edge $-1 $426 -13.98959364487771 $561 13.98959364487771 $411 $562 forward 7 unknown #
coedge $-1 $285 $284 $560 $563 forward $113 $-1 #
edge $-1 $418 -48.469496749778742 $561 48.469496749778742 $410 $564 forward 7 unknown #
coedge $-1 $422 $421 $285 $416 reversed $407 $-1 #
edge $-1 $565 -48.469496749778742 $417 48.469496749778742 $415 $566 forward 7 unknown #
vertex $-1 $287 $567 #
vertex $-1 $428 $568 #
straight-curve $-1 48.469496749778742 0 -13.98959364487771 0 -1 0 I I #
edge $-1 $423 -28.958035525733774 $426 28.958035525733774 $409 $569 forward 7 unknown #
coedge $-1 $415 $289 $294 $429 forward $407 $-1 #
coedge $-1 $289 $415 $559 $570 reversed $407 $-1 #
vertex $-1 $290 $571 #
straight-curve $-1 0 28.958035525733774 13.98959364487771 -1 0 0 I I #
coedge $-1 $291 $410 $293 $428 reversed $177 $-1 #
vertex $-1 $420 $572 #
straight-curve $-1 0 -28.958035525733774 13.98959364487771 1 0 0 I I #
edge $-1 $296 -13.98959364487771 $418 13.98959364487771 $293 $573 forward 7 unknown #
edge $-1 $297 -13.98959364487771 $417 13.98959364487771 $294 $574 forward 7 unknown #
point $-1 48.469496749778742 -28.958035525733774 13.98959364487771 #
point $-1 48.469496749778742 28.958035525733774 13.98959364487771 #
face $-1 $-1 $575 $43 $-1 $576 reversed single #
loop $-1 $-1 $307 $299 #
plane-surface $-1 0 0 -13.98959364487771 0 0 1 1 0 0 forward_v I I I I #
coedge $-1 $577 $302 $578 $579 reversed $185 $-1 #
coedge $-1 $302 $577 $439 $580 reversed $185 $-1 #
coedge $-1 $310 $309 $302 $438 reversed $300 $-1 #
edge $-1 $581 -13.98959364487771 $582 13.98959364487771 $437 $583 forward 7 unknown #
coedge $-1 $304 $303 $436 $580 forward $117 $-1 #
edge $-1 $312 -8.2669033147147672 $581 8.2669033147147672 $310 $584 forward 7 unknown #
coedge $-1 $585 $445 $304 $442 reversed $575 $-1 #
edge $-1 $586 -65.003303379208276 $443 -48.469496749778742 $441 $587 forward 7 unknown #
vertex $-1 $446 $588 #
straight-curve $-1 -48.469496749778742 0 13.98959364487771 0 1 0 I I #
coedge $-1 $441 $589 $306 $446 forward $575 $-1 #
edge $-1 $449 -13.98959364487771 $443 13.98959364487771 $445 $590 forward 7 unknown #
coedge $-1 $578 $307 $589 $591 forward $433 $-1 #
coedge $-1 $307 $578 $309 $451 forward $433 $-1 #
vertex $-1 $591 $592 #
straight-curve $-1 -48.469496749778742 0 -13.98959364487771 0 -1 0 I I #
edge $-1 $582 -8.2669033147147672 $311 8.2669033147147672 $309 $593 forward 7 unknown #
point $-1 -48.469496749778742 -21.347973241042251 -13.98959364487771 #
point $-1 -48.469496749778742 -21.347973241042251 13.98959364487771 #
loop $-1 $-1 $322 $314 #
plane-surface $-1 0 28.958035525733774 0 0 -1 0 0 0 -1 forward_v I I I I #
coedge $-1 $457 $317 $319 $461 reversed $193 $-1 #
coedge $-1 $317 $456 $594 $595 reversed $193 $-1 #
coedge $-1 $325 $320 $317 $459 forward $315 $-1 #
edge $-1 $462 -15.188263891627479 $596 -10.399246824522425 $458 $597 forward 7 unknown #
coedge $-1 $319 $318 $465 $598 reversed $121 $-1 #
edge $-1 $599 -57.916071051467547 $462 -49.123059776849935 $456 $600 forward 7 unknown #
vertex $-1 $321 $601 #
straight-curve $-1 -11.043025907329376 24.16901845862872 13.989593644877704 1 0 0 I I #
coedge $-1 $594 $322 $325 $469 reversed $454 $-1 #
coedge $-1 $322 $594 $460 $598 forward $454 $-1 #
vertex $-1 $323 $602 #
straight-curve $-1 -28.567365789549129 28.958035525733774 53.992208580220122 0 0 1 I I #
straight-curve $-1 -28.567365789549129 -2.5853168097502675 55.187658480342293 0 0.54463902268945019 -0.83867057594974714 I I #
edge $-1 $596 15.604737839768374 $326 28.567365789549129 $464 $603 forward 7 unknown #
point $-1 -28.567365789549129 28.958035525733774 13.98959364487771 #
point $-1 -28.567365789549129 24.16901845862872 13.989593644877708 #
edge $-1 $604 1 $604 0 $329 $-1 forward 7 unknown #
vertex $-1 $330 $605 #
ellipse-curve $-1 -24.863757803897489 25.27720028740185 9.4670234273303642 0 0.83867057594974714 0.54463902268945019 1 0 0 1 I I #
point $-1 -23.863757803897489 26.563526992181245 10.302373729869617 #
edge $-1 $606 1 $606 0 $333 $-1 forward 7 unknown #
vertex $-1 $334 $607 #
ellipse-curve $-1 -19.30834582542002 25.27720028740185 9.4670234273303642 0 0.83867057594974714 0.54463902268945019 1 0 0 1 I I #
point $-1 -18.30834582542002 26.563526992181245 10.302373729869617 #
loop $-1 $-1 $345 $337 #
plane-surface $-1 0 28.958035525733774 0 0 -1 0 0 0 -1 forward_v I I I I #
coedge $-1 $483 $340 $342 $487 reversed $215 $-1 #
coedge $-1 $340 $482 $608 $609 reversed $215 $-1 #
coedge $-1 $348 $343 $340 $485 forward $338 $-1 #
edge $-1 $488 -15.188263891627479 $610 -10.399246824522425 $484 $611 forward 7 unknown #
coedge $-1 $342 $341 $491 $612 reversed $135 $-1 #
edge $-1 $613 -57.916071051467547 $488 -49.123059776849935 $482 $614 forward 7 unknown #
vertex $-1 $344 $615 #
straight-curve $-1 -0.92537419753820416 24.16901845862872 13.989593644877704 1 0 0 I I #
coedge $-1 $608 $345 $348 $495 reversed $480 $-1 #
coedge $-1 $345 $608 $486 $612 forward $480 $-1 #
vertex $-1 $346 $616 #
straight-curve $-1 -8.3320623699667866 28.958035525733774 53.992208580220122 0 0 1 I I #
straight-curve $-1 -8.3320623699667866 -2.5853168097502675 55.187658480342293 0 0.54463902268945019 -0.83867057594974714 I I #
edge $-1 $610 -4.63056557981397 $349 8.3320623699667866 $490 $617 forward 7 unknown #
point $-1 -8.3320623699667866 28.958035525733774 13.98959364487771 #
point $-1 -8.3320623699667866 24.16901845862872 13.989593644877708 #
edge $-1 $618 1 $618 0 $352 $-1 forward 7 unknown #
vertex $-1 $353 $619 #
ellipse-curve $-1 -4.6284543843151482 25.27720028740185 9.4670234273303642 0 0.83867057594974714 0.54463902268945019 1 0 0 1 I I #
point $-1 -3.6284543843151482 26.563526992181245 10.302373729869617 #
edge $-1 $620 1 $620 0 $356 $-1 forward 7 unknown #
vertex $-1 $357 $621 #
ellipse-curve $-1 0.92695759416232448 25.27720028740185 9.4670234273303642 0 0.83867057594974714 0.54463902268945019 1 0 0 1 I I #
point $-1 1.9269575941623245 26.563526992181245 10.302373729869617 #
loop $-1 $-1 $368 $360 #
plane-surface $-1 0 28.958035525733774 0 0 -1 0 0 0 -1 forward_v I I I I #
coedge $-1 $509 $363 $365 $513 reversed $237 $-1 #
coedge $-1 $363 $508 $622 $623 reversed $237 $-1 #
coedge $-1 $371 $366 $363 $511 forward $361 $-1 #
edge $-1 $514 -15.188263891627479 $624 -10.399246824522425 $510 $625 forward 7 unknown #
coedge $-1 $365 $364 $517 $626 reversed $149 $-1 #
edge $-1 $627 -57.916071051467547 $514 -49.123059776849935 $508 $628 forward 7 unknown #
vertex $-1 $367 $629 #
straight-curve $-1 9.1922775122529643 24.16901845862872 13.989593644877704 1 0 0 I I #
coedge $-1 $622 $368 $371 $521 reversed $506 $-1 #
coedge $-1 $368 $622 $512 $626 forward $506 $-1 #
vertex $-1 $369 $630 #
straight-curve $-1 11.90324104961555 28.958035525733774 53.992208580220122 0 0 1 I I #
straight-curve $-1 11.90324104961555 -2.5853168097502675 55.187658480342293 0 0.54463902268945019 -0.83867057594974714 I I #
edge $-1 $624 -24.865868999396305 $372 -11.90324104961555 $516 $631 forward 7 unknown #
point $-1 11.90324104961555 28.958035525733774 13.98959364487771 #
point $-1 11.90324104961555 24.16901845862872 13.989593644877708 #
edge $-1 $632 1 $632 0 $375 $-1 forward 7 unknown #
vertex $-1 $376 $633 #
ellipse-curve $-1 15.606849035267189 25.27720028740185 9.4670234273303642 0 0.83867057594974714 0.54463902268945019 1 0 0 1 I I #
point $-1 16.606849035267189 26.563526992181245 10.302373729869617 #
edge $-1 $634 1 $634 0 $379 $-1 forward 7 unknown #
vertex $-1 $380 $635 #
ellipse-curve $-1 21.162261013744669 25.27720028740185 9.4670234273303642 0 0.83867057594974714 0.54463902268945019 1 0 0 1 I I #
point $-1 22.162261013744669 26.563526992181245 10.302373729869617 #
loop $-1 $-1 $391 $383 #
plane-surface $-1 0 28.958035525733774 0 0 -1 0 0 0 -1 forward_v I I I I #
coedge $-1 $535 $386 $388 $539 reversed $259 $-1 #
coedge $-1 $386 $534 $636 $637 reversed $259 $-1 #
coedge $-1 $394 $389 $386 $537 forward $384 $-1 #
edge $-1 $540 -15.188263891627479 $638 -10.399246824522425 $536 $639 forward 7 unknown #
coedge $-1 $388 $387 $543 $640 reversed $163 $-1 #
edge $-1 $641 -57.916071051467547 $540 -49.123059776849935 $534 $642 forward 7 unknown #
vertex $-1 $390 $643 #
straight-curve $-1 19.30992922204414 24.16901845862872 13.989593644877704 1 0 0 I I #
coedge $-1 $636 $391 $394 $547 reversed $532 $-1 #
coedge $-1 $391 $636 $538 $640 forward $532 $-1 #
vertex $-1 $392 $644 #
straight-curve $-1 32.138544469197903 28.958035525733774 53.992208580220122 0 0 1 I I #
straight-curve $-1 32.138544469197903 -2.5853168097502675 55.187658480342293 0 0.54463902268945019 -0.83867057594974714 I I #
edge $-1 $638 -45.101172418978656 $395 -32.138544469197903 $542 $645 forward 7 unknown #
point $-1 32.138544469197903 28.958035525733774 13.98959364487771 #
point $-1 32.138544469197903 24.16901845862872 13.989593644877708 #
edge $-1 $646 1 $646 0 $398 $-1 forward 7 unknown #
vertex $-1 $399 $647 #
ellipse-curve $-1 35.84215245484954 25.27720028740185 9.4670234273303642 0 0.83867057594974714 0.54463902268945019 1 0 0 1 I I #
point $-1 36.84215245484954 26.563526992181245 10.302373729869617 #
edge $-1 $648 1 $648 0 $402 $-1 forward 7 unknown #
vertex $-1 $403 $649 #
ellipse-curve $-1 41.39756443332702 25.27720028740185 9.4670234273303642 0 0.83867057594974714 0.54463902268945019 1 0 0 1 I I #
point $-1 42.39756443332702 26.563526992181245 10.302373729869617 #
plane-surface $-1 48.469496749778742 0 0 -1 0 0 0 0 1 forward_v I I I I #
coedge $-1 $560 $409 $422 $570 forward $281 $-1 #
coedge $-1 $411 $559 $413 $563 reversed $281 $-1 #
vertex $-1 $563 $650 #
straight-curve $-1 -48.469496749778742 -28.958035525733774 0 0 0 -1 I I #
edge $-1 $561 -28.958035525733774 $565 28.958035525733774 $560 $651 forward 7 unknown #
straight-curve $-1 0 -28.958035525733774 -13.98959364487771 -1 0 0 I I #
vertex $-1 $416 $652 #
straight-curve $-1 0 28.958035525733774 -13.98959364487771 1 0 0 I I #
point $-1 48.469496749778742 28.958035525733774 -13.98959364487771 #
point $-1 48.469496749778742 -28.958035525733774 -13.98959364487771 #
straight-curve $-1 -48.469496749778742 0 13.98959364487771 0 -1 0 I I #
edge $-1 $423 -13.98959364487771 $565 13.98959364487771 $422 $653 forward 7 unknown #
point $-1 -48.469496749778742 28.958035525733774 13.98959364487771 #
point $-1 -48.469496749778742 -28.958035525733774 13.98959364487771 #
straight-curve $-1 48.469496749778742 -28.958035525733774 0 0 0 -1 I I #
straight-curve $-1 48.469496749778742 28.958035525733774 0 0 0 -1 I I #
loop $-1 $-1 $445 $432 #
plane-surface $-1 0 -28.958035525733774 0 0 1 0 0 0 1 forward_v I I I I #
coedge $-1 $436 $435 $585 $654 reversed $185 $-1 #
coedge $-1 $448 $447 $435 $579 forward $433 $-1 #
edge $-1 $655 -3.8050311423457615 $582 3.8050311423457615 $435 $656 forward 7 unknown #
edge $-1 $581 -3.8050311423457615 $586 3.8050311423457615 $436 $657 forward 7 unknown #
vertex $-1 $440 $658 #
vertex $-1 $451 $659 #
straight-curve $-1 -65.003303379208276 -21.347973241042251 0 0 0 -1 I I #
straight-curve $-1 -56.736400064493509 -21.347973241042251 13.98959364487771 -1 0 0 I I #
coedge $-1 $589 $441 $577 $654 forward $575 $-1 #
vertex $-1 $580 $660 #
straight-curve $-1 0 -28.958035525733774 13.98959364487771 1 0 0 I I #
point $-1 -48.469496749778742 -28.958035525733774 13.98959364487771 #
coedge $-1 $445 $585 $447 $591 reversed $575 $-1 #
straight-curve $-1 -48.469496749778742 -28.958035525733774 0 0 0 1 I I #
edge $-1 $449 -8.2669033147147672 $655 8.2669033147147672 $589 $661 forward 7 unknown #
point $-1 -48.469496749778742 -28.958035525733774 -13.98959364487771 #
straight-curve $-1 -56.736400064493509 -21.347973241042251 -13.98959364487771 1 0 0 I I #
coedge $-1 $465 $464 $457 $595 forward $454 $-1 #
edge $-1 $596 40.002614935342415 $599 47.377054765358594 $594 $662 forward 7 unknown #
vertex $-1 $469 $663 #
straight-curve $-1 -15.604737839768374 39.357282350256199 13.989593644877708 0 1 0 I I #
edge $-1 $599 4.5617119324389979 $466 17.524339882219753 $465 $664 forward 7 unknown #
vertex $-1 $598 $665 #
straight-curve $-1 -15.604737839768374 -2.5853168097502675 55.187658480342293 0 -0.54463902268945019 0.83867057594974714 I I #
point $-1 -15.604737839768374 24.16901845862872 13.989593644877708 #
point $-1 -28.567365789549129 28.958035525733777 6.6151538148615288 #
straight-curve $-1 0 28.958035525733774 13.98959364487771 -1 0 0 I I #
vertex $-1 $472 $666 #
point $-1 -23.863757803897489 25.27720028740185 9.4670234273303642 #
vertex $-1 $476 $667 #
point $-1 -18.30834582542002 25.27720028740185 9.4670234273303642 #
coedge $-1 $491 $490 $483 $609 forward $480 $-1 #
edge $-1 $610 40.002614935342415 $613 47.377054765358594 $608 $668 forward 7 unknown #
vertex $-1 $495 $669 #
straight-curve $-1 4.63056557981397 39.357282350256199 13.989593644877708 0 1 0 I I #
edge $-1 $613 -5.5559397773521741 $492 7.4066881724285825 $491 $670 forward 7 unknown #
vertex $-1 $612 $671 #
straight-curve $-1 4.63056557981397 -2.5853168097502675 55.187658480342293 0 -0.54463902268945019 0.83867057594974714 I I #
point $-1 4.63056557981397 24.16901845862872 13.989593644877708 #
point $-1 -8.3320623699667866 28.958035525733777 6.6151538148615288 #
straight-curve $-1 0 28.958035525733774 13.98959364487771 -1 0 0 I I #
vertex $-1 $498 $672 #
point $-1 -3.6284543843151482 25.27720028740185 9.4670234273303642 #
vertex $-1 $502 $673 #
point $-1 1.9269575941623245 25.27720028740185 9.4670234273303642 #
coedge $-1 $517 $516 $509 $623 forward $506 $-1 #
edge $-1 $624 40.002614935342415 $627 47.377054765358594 $622 $674 forward 7 unknown #
vertex $-1 $521 $675 #
straight-curve $-1 24.865868999396305 39.357282350256199 13.989593644877708 0 1 0 I I #
edge $-1 $627 -15.673591487143341 $518 -2.710963537362586 $517 $676 forward 7 unknown #
vertex $-1 $626 $677 #
straight-curve $-1 24.865868999396305 -2.5853168097502675 55.187658480342293 0 -0.54463902268945019 0.83867057594974714 I I #
point $-1 24.865868999396305 24.16901845862872 13.989593644877708 #
point $-1 11.90324104961555 28.958035525733777 6.6151538148615288 #
straight-curve $-1 0 28.958035525733774 13.98959364487771 -1 0 0 I I #
vertex $-1 $524 $678 #
point $-1 16.606849035267189 25.27720028740185 9.4670234273303642 #
vertex $-1 $528 $679 #
point $-1 22.162261013744669 25.27720028740185 9.4670234273303642 #
coedge $-1 $543 $542 $535 $637 forward $532 $-1 #
edge $-1 $638 40.002614935342415 $641 47.377054765358594 $636 $680 forward 7 unknown #
vertex $-1 $547 $681 #
straight-curve $-1 45.101172418978656 39.357282350256199 13.989593644877708 0 1 0 I I #
edge $-1 $641 -25.791243196934516 $544 -12.828615247153763 $543 $682 forward 7 unknown #
vertex $-1 $640 $683 #
straight-curve $-1 45.101172418978656 -2.5853168097502675 55.187658480342293 0 -0.54463902268945019 0.83867057594974714 I I #
point $-1 45.101172418978656 24.16901845862872 13.989593644877708 #
point $-1 32.138544469197903 28.958035525733777 6.6151538148615288 #
straight-curve $-1 0 28.958035525733774 13.98959364487771 -1 0 0 I I #
vertex $-1 $550 $684 #
point $-1 36.84215245484954 25.27720028740185 9.4670234273303642 #
vertex $-1 $554 $685 #
point $-1 42.39756443332702 25.27720028740185 9.4670234273303642 #
point $-1 -48.469496749778742 -28.958035525733774 -13.98959364487771 #
straight-curve $-1 -48.469496749778742 0 -13.98959364487771 0 1 0 I I #
point $-1 -48.469496749778742 28.958035525733774 -13.98959364487771 #
straight-curve $-1 -48.469496749778742 28.958035525733774 0 0 0 -1 I I #
edge $-1 $586 -13.98959364487771 $655 13.98959364487771 $577 $686 forward 7 unknown #
vertex $-1 $579 $687 #
straight-curve $-1 -65.003303379208276 -25.153004383388012 -13.98959364487771 0 1 0 I I #
straight-curve $-1 -65.003303379208276 -25.153004383388012 13.98959364487771 0 -1 0 I I #
point $-1 -65.003303379208276 -21.347973241042251 13.98959364487771 #
point $-1 -65.003303379208276 -21.347973241042251 -13.98959364487771 #
point $-1 -65.003303379208276 -28.958035525733774 13.98959364487771 #
straight-curve $-1 -56.736400064493509 -28.958035525733774 -13.98959364487771 -1 0 0 I I #
straight-curve $-1 -15.604737839768374 28.958035525733774 53.992208580220122 0 0 -1 I I #
point $-1 -15.604737839768374 28.958035525733774 13.98959364487771 #
straight-curve $-1 -11.043025907329376 28.958035525733774 6.6151538148615288 -1 0 0 I I #
point $-1 -15.604737839768374 28.958035525733777 6.6151538148615288 #
point $-1 -24.863757803897489 24.438529711452102 8.9223844046409155 #
point $-1 -19.30834582542002 24.438529711452102 8.9223844046409155 #
straight-curve $-1 4.63056557981397 28.958035525733774 53.992208580220122 0 0 -1 I I #
point $-1 4.63056557981397 28.958035525733774 13.98959364487771 #
straight-curve $-1 -0.92537419753820416 28.958035525733774 6.6151538148615288 -1 0 0 I I #
point $-1 4.63056557981397 28.958035525733777 6.6151538148615288 #
point $-1 -4.6284543843151482 24.438529711452102 8.9223844046409155 #
point $-1 0.92695759416232448 24.438529711452102 8.9223844046409155 #
straight-curve $-1 24.865868999396305 28.958035525733774 53.992208580220122 0 0 -1 I I #
point $-1 24.865868999396305 28.958035525733774 13.98959364487771 #
straight-curve $-1 9.1922775122529643 28.958035525733774 6.6151538148615288 -1 0 0 I I #
point $-1 24.865868999396305 28.958035525733777 6.6151538148615288 #
point $-1 15.606849035267189 24.438529711452102 8.9223844046409155 #
point $-1 21.162261013744669 24.438529711452102 8.9223844046409155 #
straight-curve $-1 45.101172418978656 28.958035525733774 53.992208580220122 0 0 -1 I I #
point $-1 45.101172418978656 28.958035525733774 13.98959364487771 #
straight-curve $-1 19.30992922204414 28.958035525733774 6.6151538148615288 -1 0 0 I I #
point $-1 45.101172418978656 28.958035525733777 6.6151538148615288 #
point $-1 35.84215245484954 24.438529711452102 8.9223844046409155 #
point $-1 41.39756443332702 24.438529711452102 8.9223844046409155 #
straight-curve $-1 -65.003303379208276 -28.958035525733774 0 0 0 -1 I I #
point $-1 -65.003303379208276 -28.958035525733774 -13.98959364487771 #
End-of-ACIS-data 