500 0 4 0           
7 Unknown 11 ACIS 5.0 NT 24 Fri Mar 26 17:07:02 1999 
-1 9.9999999999999995e-007 1e-010 
body $-1 $4 $-1 $5 #
body $-1 $6 $-1 $7 #
body $-1 $8 $-1 $9 #
body $-1 $10 $-1 $11 #
lump $-1 $-1 $12 $0 #
transform $-1 1 0 0 0 1 0 0 0 1 56.230964079714347 30.811966730504935 12.814325248673452 1 rotate no_reflect no_shear #
lump $-1 $-1 $13 $1 #
transform $-1 1 0 0 0 1 0 0 0 1 56.230964079714347 30.811966730504935 12.814325248673452 1 rotate no_reflect no_shear #
lump $-1 $-1 $14 $2 #
transform $-1 1 0 0 0 1 0 0 0 1 56.230964079714347 30.811966730504935 12.814325248673452 1 rotate no_reflect no_shear #
lump $-1 $-1 $15 $3 #
transform $-1 1 0 0 0 1 0 0 0 1 56.230964079714347 30.811966730504935 12.814325248673452 1 rotate no_reflect no_shear #
shell $-1 $-1 $-1 $16 $-1 $4 #
shell $-1 $-1 $-1 $17 $-1 $6 #
shell $-1 $-1 $-1 $18 $-1 $8 #
shell $-1 $-1 $-1 $19 $-1 $10 #
face $-1 $20 $21 $12 $-1 $22 forward single #
face $-1 $23 $24 $13 $-1 $25 reversed single #
face $-1 $26 $27 $14 $-1 $28 forward single #
face $-1 $29 $30 $15 $-1 $31 reversed single #
face $-1 $32 $33 $12 $-1 $34 reversed single #
loop $-1 $-1 $35 $16 #
plane-surface $-1 0 0 12.814325248673452 0 0 1 1 0 0 forward_v I I I I #
face $-1 $36 $37 $13 $-1 $38 reversed single #
loop $-1 $-1 $39 $17 #
plane-surface $-1 -33.390476424874151 -46.21977813145439 0 0 1 0 0 0 1 forward_v I I I I #
face $-1 $40 $41 $14 $-1 $42 forward single #
loop $-1 $-1 $43 $18 #
plane-surface $-1 23.462316992640609 42.61132377950581 135.66951224003492 1 0 0 0 -0.55919291073839883 -0.82903756765294845 forward_v I I I I #
face $-1 $44 $45 $15 $-1 $46 reversed single #
loop $-1 $47 $48 $19 #
cone-surface $-1 39.846640536177482 26.135725302780706 8.7804269831289705 0 -0.55919291073839883 -0.82903756765294845 1.5 0 0 1 I I 0 1 1.5 forward I I I I #
face $-1 $49 $50 $12 $-1 $51 reversed single #
loop $-1 $-1 $52 $20 #
plane-surface $-1 0 0 -12.814325248673452 0 0 1 1 0 0 forward_v I I I I #
coedge $-1 $53 $54 $55 $56 forward $21 $-1 #
face $-1 $57 $58 $13 $-1 $59 reversed single #
loop $-1 $-1 $60 $23 #
plane-surface $-1 -36.178639267380859 -38.515872430979663 0 1 0 0 0 0 -1 forward_v I I I I #
coedge $-1 $61 $62 $63 $64 forward $24 $-1 #
face $-1 $65 $66 $14 $-1 $67 forward single #
loop $-1 $-1 $68 $26 #
plane-surface $-1 39.846640536177482 -20.276589175217822 42.434348865181519 0 0.55919291073839883 0.82903756765294845 1 0 0 forward_v I I I I #
coedge $-1 $69 $70 $71 $72 reversed $27 $-1 #
face $-1 $73 $74 $15 $-1 $75 forward single #
loop $-1 $76 $77 $29 #
cone-surface $-1 39.846640536177482 24.627622109928751 6.5445720951965107 0 -0.55919291073839883 -0.82903756765294845 0.75 0 0 1 I I -0.70710678118654757 0.70710678118654757 0.75 forward I I I I #
loop $-1 $-1 $78 $19 #
coedge $-1 $48 $48 $79 $80 reversed $30 $-1 #
face $-1 $81 $82 $12 $-1 $83 reversed single #
loop $-1 $-1 $84 $32 #
plane-surface $-1 0 -30.811966730504935 0 0 1 0 0 0 1 forward_v I I I I #
coedge $-1 $85 $86 $87 $88 forward $33 $-1 #
coedge $-1 $89 $35 $90 $91 forward $21 $-1 #
coedge $-1 $35 $89 $92 $93 forward $21 $-1 #
coedge $-1 $94 $95 $35 $56 reversed $96 $-1 #
edge $-1 $97 -30.811966730504935 $98 30.811966730504935 $55 $99 forward 7 unknown #
face $-1 $100 $101 $13 $-1 $102 reversed single #
loop $-1 $-1 $103 $36 #
plane-surface $-1 -30.60231358236744 -38.515872430979663 0 -1 0 0 0 0 1 forward_v I I I I #
coedge $-1 $104 $105 $106 $107 reversed $37 $-1 #
coedge $-1 $108 $39 $109 $110 reversed $24 $-1 #
coedge $-1 $39 $108 $111 $112 reversed $24 $-1 #
coedge $-1 $105 $104 $39 $64 reversed $37 $-1 #
edge $-1 $113 -12.814325248673452 $114 12.814325248673452 $63 $115 forward 7 unknown #
face $-1 $116 $117 $14 $-1 $118 reversed single #
loop $-1 $-1 $119 $40 #
plane-surface $-1 0 0 12.814325248673452 0 0 1 1 0 0 forward_v I I I I #
coedge $-1 $120 $121 $119 $122 reversed $41 $-1 #
coedge $-1 $70 $43 $121 $123 forward $27 $-1 #
coedge $-1 $43 $69 $124 $125 reversed $27 $-1 #
coedge $-1 $126 $119 $43 $72 forward $66 $-1 #
edge $-1 $127 2.3312390048999134 $128 9.5063048407520299 $71 $129 forward 7 unknown #
face $-1 $130 $131 $15 $-1 $132 forward single #
loop $-1 $-1 $133 $44 #
plane-surface $-1 23.462316992640609 42.61132377950581 135.66951224003492 1 0 0 0 -0.55919291073839883 -0.82903756765294845 forward_v I I I I #
loop $-1 $-1 $134 $29 #
coedge $-1 $77 $77 $78 $135 forward $45 $-1 #
coedge $-1 $78 $78 $77 $135 reversed $47 $-1 #
coedge $-1 $79 $79 $48 $80 forward $131 $-1 #
edge $-1 $136 5.9292673883071215e-016 $136 6.2831853071796013 $79 $137 forward 7 unknown #
face $-1 $138 $139 $12 $-1 $140 reversed single #
loop $-1 $-1 $141 $49 #
plane-surface $-1 -56.230964079714347 0 0 1 0 0 0 0 -1 forward_v I I I I #
coedge $-1 $142 $92 $143 $144 forward $50 $-1 #
coedge $-1 $145 $52 $142 $146 forward $33 $-1 #
coedge $-1 $52 $145 $147 $148 forward $33 $-1 #
coedge $-1 $95 $94 $52 $88 reversed $96 $-1 #
edge $-1 $149 -30.811966730504935 $150 30.811966730504935 $87 $151 forward 7 unknown #
coedge $-1 $54 $53 $152 $153 forward $21 $-1 #
coedge $-1 $154 $155 $53 $91 reversed $139 $-1 #
edge $-1 $98 -56.230964079714347 $156 56.230964079714347 $90 $157 forward 7 unknown #
coedge $-1 $84 $158 $54 $93 reversed $50 $-1 #
edge $-1 $159 -56.230964079714347 $97 56.230964079714347 $92 $160 forward 7 unknown #
coedge $-1 $87 $55 $158 $161 forward $96 $-1 #
coedge $-1 $55 $87 $154 $162 reversed $96 $-1 #
loop $-1 $-1 $94 $138 #
vertex $-1 $56 $163 #
vertex $-1 $56 $164 #
straight-curve $-1 56.230964079714347 0 12.814325248673452 0 1 0 I I #
face $-1 $165 $166 $13 $-1 $102 reversed single #
loop $-1 $-1 $106 $57 #
plane-surface $-1 0 -30.811966730504935 0 0 1 0 0 0 1 forward_v I I I I #
coedge $-1 $167 $168 $108 $169 forward $58 $-1 #
coedge $-1 $63 $60 $170 $171 reversed $37 $-1 #
coedge $-1 $60 $63 $172 $173 reversed $37 $-1 #
coedge $-1 $174 $175 $60 $107 forward $101 $-1 #
edge $-1 $176 -12.814325248673452 $177 12.814325248673452 $106 $178 forward 7 unknown #
coedge $-1 $62 $61 $103 $169 reversed $24 $-1 #
coedge $-1 $170 $179 $61 $110 forward $180 $-1 #
edge $-1 $181 -2.7881628425067113 $114 2.7881628425067078 $61 $182 forward 7 unknown #
coedge $-1 $183 $172 $62 $112 forward $184 $-1 #
edge $-1 $113 -2.7881628425067078 $185 2.7881628425067113 $62 $186 forward 7 unknown #
vertex $-1 $173 $187 #
vertex $-1 $171 $188 #
straight-curve $-1 -36.178639267380859 -46.21977813145439 0 0 0 -1 I I #
face $-1 $189 $190 $14 $-1 $191 reversed single #
loop $-1 $-1 $124 $65 #
plane-surface $-1 0 30.811966730504935 0 0 -1 0 0 0 -1 forward_v I I I I #
coedge $-1 $71 $192 $68 $122 forward $66 $-1 #
coedge $-1 $193 $68 $194 $195 reversed $41 $-1 #
coedge $-1 $68 $193 $69 $123 reversed $41 $-1 #
edge $-1 $196 -36.30764381162561 $127 -3.5389967245518683 $119 $197 forward 7 unknown #
edge $-1 $127 52.969240216932725 $198 61.623933461009862 $69 $199 forward 7 unknown #
coedge $-1 $200 $201 $70 $125 forward $117 $-1 #
edge $-1 $128 55.020430871344004 $198 59.86007397804746 $124 $202 forward 7 unknown #
coedge $-1 $203 $71 $201 $204 forward $66 $-1 #
vertex $-1 $122 $205 #
vertex $-1 $204 $206 #
straight-curve $-1 23.462316992640609 21.305661889752905 12.814325248673455 0 1 0 I I #
face $-1 $207 $208 $15 $-1 $209 forward single #
loop $-1 $210 $79 $73 #
plane-surface $-1 39.846640536177482 -20.276589175217822 42.434348865181519 0 0.55919291073839883 0.82903756765294845 1 0 0 forward_v I I I I #
coedge $-1 $211 $212 $213 $214 reversed $74 $-1 #
coedge $-1 $134 $134 $-1 $215 forward $76 $-1 #
edge $-1 $216 0 $216 6.2831853071796004 $77 $217 forward 7 unknown #
vertex $-1 $80 $218 #
ellipse-curve $-1 39.846640536177482 27.224433812578869 10.394503695321735 0 -0.55919291073839883 -0.82903756765294845 1.5 0 0 1 I I #
face $-1 $-1 $96 $12 $-1 $219 reversed single #
loop $-1 $-1 $154 $81 #
plane-surface $-1 0 30.811966730504935 0 0 -1 0 0 0 -1 forward_v I I I I #
coedge $-1 $220 $152 $155 $221 forward $82 $-1 #
coedge $-1 $158 $84 $85 $146 reversed $50 $-1 #
coedge $-1 $152 $220 $84 $144 reversed $82 $-1 #
edge $-1 $159 -12.814325248673452 $222 12.814325248673452 $143 $223 forward 7 unknown #
coedge $-1 $86 $85 $220 $224 forward $33 $-1 #
edge $-1 $150 -56.230964079714347 $222 56.230964079714347 $142 $225 forward 7 unknown #
coedge $-1 $155 $154 $86 $148 reversed $139 $-1 #
edge $-1 $226 -56.230964079714347 $149 56.230964079714347 $147 $227 forward 7 unknown #
vertex $-1 $88 $228 #
vertex $-1 $161 $229 #
straight-curve $-1 56.230964079714347 0 -12.814325248673452 0 -1 0 I I #
coedge $-1 $141 $143 $89 $153 reversed $82 $-1 #
edge $-1 $156 -30.811966730504935 $159 30.811966730504935 $152 $230 forward 7 unknown #
coedge $-1 $147 $90 $95 $162 forward $139 $-1 #
coedge $-1 $90 $147 $141 $221 reversed $139 $-1 #
vertex $-1 $91 $231 #
straight-curve $-1 0 30.811966730504935 12.814325248673452 -1 0 0 I I #
coedge $-1 $92 $142 $94 $161 reversed $50 $-1 #
vertex $-1 $153 $232 #
straight-curve $-1 0 -30.811966730504935 12.814325248673452 1 0 0 I I #
edge $-1 $97 -12.814325248673452 $150 12.814325248673452 $94 $233 forward 7 unknown #
edge $-1 $98 -12.814325248673452 $149 12.814325248673452 $95 $234 forward 7 unknown #
point $-1 56.230964079714347 -30.811966730504935 12.814325248673452 #
point $-1 56.230964079714347 30.811966730504935 12.814325248673452 #
face $-1 $235 $184 $13 $-1 $236 forward single #
loop $-1 $-1 $237 $100 #
coedge $-1 $238 $103 $179 $239 reversed $58 $-1 #
coedge $-1 $103 $238 $183 $240 reversed $58 $-1 #
edge $-1 $185 -12.814325248673452 $181 12.814325248673452 $103 $241 forward 7 unknown #
coedge $-1 $242 $109 $104 $171 forward $180 $-1 #
edge $-1 $114 -7.7039057004747278 $176 7.7039057004747278 $104 $243 forward 7 unknown #
coedge $-1 $111 $244 $105 $173 forward $184 $-1 #
edge $-1 $177 -7.7039057004747278 $113 7.7039057004747278 $105 $245 forward 7 unknown #
coedge $-1 $246 $106 $244 $247 reversed $101 $-1 #
coedge $-1 $106 $246 $242 $248 reversed $101 $-1 #
vertex $-1 $248 $249 #
vertex $-1 $173 $250 #
straight-curve $-1 -36.178639267380859 -30.811966730504935 0 0 0 1 I I #
coedge $-1 $109 $251 $167 $239 forward $180 $-1 #
loop $-1 $-1 $252 $235 #
vertex $-1 $169 $253 #
straight-curve $-1 -33.390476424874151 -46.21977813145439 -12.814325248673452 -1 0 0 I I #
coedge $-1 $254 $111 $168 $240 forward $184 $-1 #
loop $-1 $-1 $255 $165 #
vertex $-1 $240 $256 #
straight-curve $-1 -33.390476424874151 -46.21977813145439 12.814325248673452 1 0 0 I I #
point $-1 -36.178639267380859 -46.21977813145439 12.814325248673452 #
point $-1 -36.178639267380859 -46.21977813145439 -12.814325248673452 #
face $-1 $257 $258 $14 $-1 $259 reversed single #
loop $-1 $-1 $260 $116 #
plane-surface $-1 -33.390476424874151 -46.21977813145439 0 0 1 0 0 0 1 forward_v I I I I #
coedge $-1 $119 $261 $262 $263 forward $66 $-1 #
coedge $-1 $121 $120 $200 $264 reversed $41 $-1 #
coedge $-1 $262 $265 $120 $195 forward $266 $-1 #
edge $-1 $267 -41.354412847344747 $196 -32.699719603267617 $194 $268 forward 7 unknown #
vertex $-1 $195 $269 #
straight-curve $-1 19.923320268088741 23.636900894652822 12.814325248673452 -1 0 0 I I #
vertex $-1 $264 $270 #
straight-curve $-1 23.462316992640609 -20.276589175217822 42.434348865181519 0 0.82903756765294845 -0.55919291073839883 I I #
coedge $-1 $271 $124 $193 $264 forward $117 $-1 #
coedge $-1 $124 $272 $126 $204 reversed $117 $-1 #
straight-curve $-1 23.462316992640609 30.811966730504935 67.83475612001746 0 0 -1 I I #
coedge $-1 $273 $126 $274 $275 forward $66 $-1 #
edge $-1 $128 -23.462316992640609 $276 56.230964079714347 $201 $277 forward 7 unknown #
point $-1 23.462316992640609 23.636900894652818 12.814325248673452 #
point $-1 23.462316992640609 30.811966730504935 12.814325248673452 #
face $-1 $278 $279 $15 $-1 $280 reversed single #
loop $-1 $-1 $281 $130 #
plane-surface $-1 0 0 12.814325248673452 0 0 1 1 0 0 forward_v I I I I #
loop $-1 $-1 $282 $73 #
coedge $-1 $212 $133 $283 $284 forward $74 $-1 #
coedge $-1 $133 $211 $285 $286 reversed $74 $-1 #
coedge $-1 $287 $281 $133 $214 forward $208 $-1 #
edge $-1 $288 2.3312390048999134 $289 9.5063048407520299 $213 $290 forward 7 unknown #
edge $-1 $291 1 $291 0 $134 $-1 forward 7 unknown #
vertex $-1 $135 $292 #
ellipse-curve $-1 39.846640536177482 25.04701679298255 7.1663502709362223 0 0.55919291073839883 0.82903756765294845 1.5 0 0 1 I I #
point $-1 41.346640536177482 27.224433812578859 10.39450369532172 #
plane-surface $-1 56.230964079714347 0 0 -1 0 0 0 0 1 forward_v I I I I #
coedge $-1 $143 $141 $145 $224 reversed $82 $-1 #
edge $-1 $156 -12.814325248673452 $226 12.814325248673452 $155 $293 forward 7 unknown #
vertex $-1 $224 $294 #
straight-curve $-1 -56.230964079714347 -30.811966730504935 0 0 0 -1 I I #
edge $-1 $222 -30.811966730504935 $226 30.811966730504935 $220 $295 forward 7 unknown #
straight-curve $-1 0 -30.811966730504935 -12.814325248673452 -1 0 0 I I #
vertex $-1 $148 $296 #
straight-curve $-1 0 30.811966730504935 -12.814325248673452 1 0 0 I I #
point $-1 56.230964079714347 30.811966730504935 -12.814325248673452 #
point $-1 56.230964079714347 -30.811966730504935 -12.814325248673452 #
straight-curve $-1 -56.230964079714347 0 12.814325248673452 0 -1 0 I I #
point $-1 -56.230964079714347 30.811966730504935 12.814325248673452 #
point $-1 -56.230964079714347 -30.811966730504935 12.814325248673452 #
straight-curve $-1 56.230964079714347 -30.811966730504935 0 0 0 -1 I I #
straight-curve $-1 56.230964079714347 30.811966730504935 0 0 0 -1 I I #
face $-1 $297 $180 $13 $-1 $298 reversed single #
plane-surface $-1 0 0 12.814325248673452 0 0 1 1 0 0 forward_v I I I I #
coedge $-1 $299 $300 $238 $301 forward $166 $-1 #
coedge $-1 $168 $167 $237 $301 reversed $58 $-1 #
edge $-1 $302 -7.7039057004747278 $181 7.7039057004747278 $167 $303 forward 7 unknown #
edge $-1 $185 -7.7039057004747278 $304 7.7039057004747278 $168 $305 forward 7 unknown #
straight-curve $-1 -30.60231358236744 -46.21977813145439 0 0 0 -1 I I #
coedge $-1 $306 $170 $175 $248 forward $180 $-1 #
straight-curve $-1 -36.178639267380859 -38.515872430979663 -12.814325248673452 0 1 0 I I #
coedge $-1 $172 $307 $174 $247 forward $184 $-1 #
straight-curve $-1 -36.178639267380859 -38.515872430979663 12.814325248673452 0 -1 0 I I #
coedge $-1 $175 $174 $308 $309 forward $101 $-1 #
edge $-1 $310 -56.230964079714347 $177 -36.178639267380859 $174 $311 forward 7 unknown #
edge $-1 $176 36.178639267380859 $312 56.230964079714347 $175 $313 forward 7 unknown #
point $-1 -36.178639267380859 -30.811966730504935 -12.814325248673452 #
point $-1 -36.178639267380859 -30.811966730504935 12.814325248673452 #
coedge $-1 $179 $252 $299 $314 forward $180 $-1 #
coedge $-1 $251 $315 $316 $317 forward $180 $-1 #
point $-1 -30.60231358236744 -46.21977813145439 -12.814325248673452 #
coedge $-1 $255 $183 $300 $318 forward $184 $-1 #
coedge $-1 $319 $254 $320 $321 forward $184 $-1 #
point $-1 -30.60231358236744 -46.21977813145439 12.814325248673452 #
face $-1 $322 $323 $14 $-1 $324 reversed single #
loop $-1 $-1 $325 $189 #
plane-surface $-1 -36.178639267380859 -38.515872430979663 0 1 0 0 0 0 -1 forward_v I I I I #
coedge $-1 $326 $327 $328 $329 forward $190 $-1 #
coedge $-1 $192 $330 $331 $332 forward $66 $-1 #
coedge $-1 $333 $194 $192 $263 reversed $266 $-1 #
edge $-1 $334 -30.811966730504935 $196 23.636900894652818 $262 $335 forward 7 unknown #
edge $-1 $198 3.5389967245518683 $267 36.30764381162561 $200 $336 forward 7 unknown #
coedge $-1 $194 $337 $271 $338 reversed $266 $-1 #
loop $-1 $-1 $194 $339 #
vertex $-1 $338 $340 #
straight-curve $-1 56.230964079714347 -3.4723951081736031 31.09977663395415 0 -0.82903756765294845 0.55919291073839883 I I #
point $-1 56.230964079714354 23.636900894652818 12.814325248673452 #
point $-1 23.462316992640609 30.811966730504935 7.9746821419699998 #
coedge $-1 $341 $200 $265 $338 forward $117 $-1 #
coedge $-1 $201 $341 $342 $343 reversed $117 $-1 #
coedge $-1 $344 $203 $345 $346 forward $66 $-1 #
coedge $-1 $342 $347 $203 $275 reversed $348 $-1 #
edge $-1 $276 -30.811966730504935 $349 30.811966730504935 $274 $350 forward 7 unknown #
vertex $-1 $204 $351 #
straight-curve $-1 0 30.811966730504935 12.814325248673452 -1 0 0 I I #
face $-1 $352 $353 $15 $-1 $354 reversed single #
loop $-1 $-1 $285 $207 #
plane-surface $-1 0 30.811966730504935 0 0 -1 0 0 0 -1 forward_v I I I I #
coedge $-1 $213 $355 $282 $356 forward $208 $-1 #
coedge $-1 $357 $283 $281 $356 reversed $210 $-1 #
coedge $-1 $282 $358 $211 $284 reversed $210 $-1 #
edge $-1 $288 52.969240216932725 $359 61.623933461009862 $211 $360 forward 7 unknown #
coedge $-1 $361 $362 $212 $286 forward $279 $-1 #
edge $-1 $289 55.020430871344004 $359 59.86007397804746 $285 $363 forward 7 unknown #
coedge $-1 $364 $213 $362 $365 forward $208 $-1 #
vertex $-1 $356 $366 #
vertex $-1 $365 $367 #
straight-curve $-1 23.462316992640609 21.305661889752905 12.814325248673455 0 1 0 I I #
vertex $-1 $215 $368 #
point $-1 41.346640536177482 25.04701679298255 7.1663502709362223 #
straight-curve $-1 -56.230964079714347 30.811966730504935 0 0 0 -1 I I #
point $-1 -56.230964079714347 -30.811966730504935 -12.814325248673452 #
straight-curve $-1 -56.230964079714347 0 -12.814325248673452 0 1 0 I I #
point $-1 -56.230964079714347 30.811966730504935 -12.814325248673452 #
face $-1 $369 $370 $13 $-1 $371 reversed single #
plane-surface $-1 0 0 -12.814325248673452 0 0 1 1 0 0 forward_v I I I I #
coedge $-1 $372 $237 $251 $314 reversed $166 $-1 #
coedge $-1 $237 $372 $254 $318 reversed $166 $-1 #
edge $-1 $304 -12.814325248673452 $302 12.814325248673452 $237 $373 forward 7 unknown #
vertex $-1 $239 $374 #
straight-curve $-1 -30.60231358236744 -38.515872430979663 -12.814325248673452 0 -1 0 I I #
vertex $-1 $318 $375 #
straight-curve $-1 -30.60231358236744 -38.515872430979663 12.814325248673452 0 1 0 I I #
coedge $-1 $315 $242 $376 $377 forward $180 $-1 #
coedge $-1 $244 $319 $378 $379 forward $184 $-1 #
coedge $-1 $378 $376 $246 $309 reversed $370 $-1 #
edge $-1 $310 -12.814325248673452 $312 12.814325248673452 $308 $380 forward 7 unknown #
vertex $-1 $379 $381 #
straight-curve $-1 0 -30.811966730504935 12.814325248673452 1 0 0 I I #
vertex $-1 $377 $382 #
straight-curve $-1 0 -30.811966730504935 -12.814325248673452 -1 0 0 I I #
edge $-1 $383 -56.230964079714347 $302 30.60231358236744 $299 $313 forward 7 unknown #
coedge $-1 $252 $306 $384 $385 forward $180 $-1 #
coedge $-1 $386 $387 $252 $317 reversed $388 $-1 #
edge $-1 $389 -30.811966730504935 $383 30.811966730504935 $316 $390 forward 7 unknown #
edge $-1 $304 -30.60231358236744 $391 56.230964079714347 $300 $311 forward 7 unknown #
coedge $-1 $307 $255 $392 $393 forward $184 $-1 #
coedge $-1 $387 $386 $255 $321 reversed $388 $-1 #
edge $-1 $391 -30.811966730504935 $394 30.811966730504935 $320 $395 forward 7 unknown #
face $-1 $396 $397 $14 $-1 $398 reversed single #
loop $-1 $-1 $399 $257 #
plane-surface $-1 -30.60231358236744 -38.515872430979663 0 -1 0 0 0 0 1 forward_v I I I I #
coedge $-1 $400 $401 $402 $403 reversed $258 $-1 #
coedge $-1 $404 $260 $405 $406 reversed $190 $-1 #
coedge $-1 $260 $404 $407 $408 reversed $190 $-1 #
coedge $-1 $401 $400 $260 $329 reversed $258 $-1 #
edge $-1 $409 -12.814325248673452 $410 12.814325248673452 $328 $411 forward 7 unknown #
coedge $-1 $261 $407 $412 $413 forward $66 $-1 #
coedge $-1 $414 $415 $261 $332 reversed $416 $-1 #
edge $-1 $417 -30.60231358236744 $334 56.230964079714347 $331 $418 forward 7 unknown #
coedge $-1 $337 $262 $415 $419 forward $266 $-1 #
vertex $-1 $263 $420 #
straight-curve $-1 56.230964079714347 0 12.814325248673452 0 1 0 I I #
straight-curve $-1 19.923320268088741 30.811966730504935 7.9746821419700034 1 0 0 I I #
coedge $-1 $265 $333 $421 $422 reversed $266 $-1 #
edge $-1 $267 -7.9746821419699998 $423 12.814325248673452 $265 $424 forward 7 unknown #
face $-1 $-1 $266 $14 $-1 $425 reversed single #
point $-1 56.230964079714354 30.811966730504935 7.9746821419699998 #
coedge $-1 $272 $271 $426 $427 reversed $117 $-1 #
coedge $-1 $428 $274 $272 $343 forward $348 $-1 #
edge $-1 $276 -12.814325248673452 $429 12.814325248673452 $272 $430 forward 7 unknown #
coedge $-1 $407 $273 $401 $431 forward $66 $-1 #
coedge $-1 $432 $402 $273 $346 reversed $397 $-1 #
edge $-1 $349 -56.230964079714347 $433 -36.178639267380859 $345 $418 forward 7 unknown #
coedge $-1 $274 $428 $432 $434 reversed $348 $-1 #
loop $-1 $-1 $342 $435 #
vertex $-1 $275 $436 #
straight-curve $-1 -56.230964079714347 0 12.814325248673452 0 -1 0 I I #
point $-1 -56.230964079714347 30.811966730504935 12.814325248673452 #
face $-1 $437 $438 $15 $-1 $439 reversed single #
loop $-1 $-1 $440 $278 #
plane-surface $-1 -33.390476424874151 -46.21977813145439 0 0 1 0 0 0 1 forward_v I I I I #
coedge $-1 $281 $441 $442 $443 forward $208 $-1 #
edge $-1 $444 -36.30764381162561 $288 -3.5389967245518683 $281 $445 forward 7 unknown #
coedge $-1 $358 $282 $446 $447 reversed $210 $-1 #
coedge $-1 $283 $357 $361 $448 reversed $210 $-1 #
vertex $-1 $448 $449 #
straight-curve $-1 23.462316992640609 -20.276589175217822 42.434348865181519 0 0.82903756765294845 -0.55919291073839883 I I #
coedge $-1 $450 $285 $358 $448 forward $279 $-1 #
coedge $-1 $285 $451 $287 $365 reversed $279 $-1 #
straight-curve $-1 23.462316992640609 30.811966730504935 67.83475612001746 0 0 -1 I I #
coedge $-1 $452 $287 $453 $454 forward $208 $-1 #
edge $-1 $289 -23.462316992640609 $455 56.230964079714347 $362 $456 forward 7 unknown #
point $-1 23.462316992640609 23.636900894652818 12.814325248673452 #
point $-1 23.462316992640609 30.811966730504935 12.814325248673452 #
point $-1 39.846640536177482 24.208227426874952 5.9227939194567991 #
face $-1 $457 $458 $13 $-1 $459 reversed single #
loop $-1 $-1 $460 $297 #
plane-surface $-1 -56.230964079714347 0 0 1 0 0 0 0 -1 forward_v I I I I #
coedge $-1 $300 $299 $387 $461 reversed $166 $-1 #
straight-curve $-1 -30.60231358236744 -30.811966730504935 0 0 0 -1 I I #
point $-1 -30.60231358236744 -30.811966730504935 -12.814325248673452 #
point $-1 -30.60231358236744 -30.811966730504935 12.814325248673452 #
coedge $-1 $308 $460 $306 $377 reversed $370 $-1 #
edge $-1 $312 -30.811966730504935 $462 30.811966730504935 $376 $463 forward 7 unknown #
coedge $-1 $460 $308 $307 $379 reversed $370 $-1 #
edge $-1 $464 -30.811966730504935 $310 30.811966730504935 $378 $465 forward 7 unknown #
straight-curve $-1 -56.230964079714347 -30.811966730504935 0 0 0 -1 I I #
point $-1 -56.230964079714347 -30.811966730504935 12.814325248673452 #
point $-1 -56.230964079714347 -30.811966730504935 -12.814325248673452 #
vertex $-1 $461 $466 #
coedge $-1 $467 $468 $315 $385 reversed $458 $-1 #
edge $-1 $462 -56.230964079714347 $389 56.230964079714347 $384 $469 forward 7 unknown #
coedge $-1 $320 $316 $468 $470 reversed $388 $-1 #
coedge $-1 $316 $320 $372 $461 forward $388 $-1 #
loop $-1 $-1 $387 $457 #
vertex $-1 $317 $471 #
straight-curve $-1 56.230964079714347 0 -12.814325248673452 0 -1 0 I I #
vertex $-1 $321 $472 #
coedge $-1 $468 $467 $319 $393 reversed $458 $-1 #
edge $-1 $394 -56.230964079714347 $464 56.230964079714347 $392 $473 forward 7 unknown #
vertex $-1 $321 $474 #
straight-curve $-1 56.230964079714347 0 12.814325248673452 0 1 0 I I #
face $-1 $475 $416 $14 $-1 $398 reversed single #
loop $-1 $-1 $402 $322 #
plane-surface $-1 0 -30.811966730504935 0 0 1 0 0 0 1 forward_v I I I I #
coedge $-1 $476 $412 $404 $477 forward $323 $-1 #
coedge $-1 $328 $325 $478 $479 reversed $258 $-1 #
coedge $-1 $325 $328 $344 $431 reversed $258 $-1 #
coedge $-1 $345 $480 $325 $403 forward $397 $-1 #
edge $-1 $481 -12.814325248673452 $433 12.814325248673452 $402 $482 forward 7 unknown #
coedge $-1 $327 $326 $399 $477 reversed $190 $-1 #
coedge $-1 $478 $483 $326 $406 forward $484 $-1 #
edge $-1 $485 -2.7881628425067113 $410 2.7881628425067078 $326 $486 forward 7 unknown #
coedge $-1 $330 $344 $327 $408 forward $66 $-1 #
edge $-1 $409 -2.7881628425067078 $487 2.7881628425067113 $327 $488 forward 7 unknown #
vertex $-1 $431 $489 #
vertex $-1 $479 $490 #
straight-curve $-1 -36.178639267380859 -46.21977813145439 0 0 0 -1 I I #
coedge $-1 $399 $491 $330 $413 reversed $323 $-1 #
edge $-1 $487 -7.7039057004747278 $417 7.7039057004747278 $412 $492 forward 7 unknown #
coedge $-1 $493 $331 $491 $494 forward $416 $-1 #
coedge $-1 $331 $493 $333 $419 reversed $416 $-1 #
loop $-1 $-1 $414 $396 #
vertex $-1 $332 $495 #
straight-curve $-1 0 -30.811966730504935 12.814325248673452 1 0 0 I I #
edge $-1 $334 -12.814325248673452 $496 12.814325248673452 $333 $497 forward 7 unknown #
point $-1 56.230964079714347 -30.811966730504935 12.814325248673452 #
coedge $-1 $498 $426 $337 $422 forward $484 $-1 #
edge $-1 $423 -30.811966730504935 $496 30.811966730504935 $337 $499 forward 7 unknown #
vertex $-1 $422 $500 #
straight-curve $-1 56.230964079714347 30.811966730504935 0 0 0 -1 I I #
plane-surface $-1 56.230964079714347 0 0 -1 0 0 0 0 1 forward_v I I I I #
coedge $-1 $421 $501 $341 $427 forward $484 $-1 #
edge $-1 $429 -56.230964079714347 $423 56.230964079714347 $341 $502 forward 7 unknown #
coedge $-1 $347 $342 $501 $503 reversed $348 $-1 #
vertex $-1 $427 $504 #
straight-curve $-1 -56.230964079714347 30.811966730504935 0 0 0 -1 I I #
edge $-1 $433 -7.7039057004747278 $409 7.7039057004747278 $401 $505 forward 7 unknown #
coedge $-1 $480 $345 $347 $434 forward $397 $-1 #
vertex $-1 $431 $506 #
edge $-1 $349 -12.814325248673452 $507 12.814325248673452 $347 $508 forward 7 unknown #
face $-1 $339 $348 $14 $-1 $509 reversed single #
point $-1 -56.230964079714347 -30.811966730504935 12.814325248673452 #
face $-1 $510 $511 $15 $-1 $512 reversed single #
loop $-1 $-1 $513 $352 #
plane-surface $-1 -36.178639267380859 -38.515872430979663 0 1 0 0 0 0 -1 forward_v I I I I #
coedge $-1 $514 $515 $516 $517 forward $353 $-1 #
coedge $-1 $355 $518 $519 $520 forward $208 $-1 #
coedge $-1 $521 $446 $355 $443 reversed $522 $-1 #
edge $-1 $523 -30.811966730504935 $444 23.636900894652818 $442 $524 forward 7 unknown #
vertex $-1 $447 $525 #
straight-curve $-1 19.923320268088741 23.636900894652822 12.814325248673452 -1 0 0 I I #
coedge $-1 $442 $526 $357 $447 forward $522 $-1 #
edge $-1 $527 -41.354412847344747 $444 -32.699719603267617 $446 $528 forward 7 unknown #
edge $-1 $359 3.5389967245518683 $527 36.30764381162561 $361 $529 forward 7 unknown #
point $-1 23.462316992640609 30.811966730504935 7.9746821419699998 #
coedge $-1 $530 $361 $526 $531 forward $279 $-1 #
coedge $-1 $362 $530 $532 $533 reversed $279 $-1 #
coedge $-1 $534 $364 $535 $536 forward $208 $-1 #
coedge $-1 $532 $537 $364 $454 reversed $538 $-1 #
edge $-1 $455 -30.811966730504935 $539 30.811966730504935 $453 $540 forward 7 unknown #
vertex $-1 $365 $541 #
straight-curve $-1 0 30.811966730504935 12.814325248673452 -1 0 0 I I #
face $-1 $-1 $388 $13 $-1 $542 reversed single #
loop $-1 $-1 $468 $369 #
plane-surface $-1 0 30.811966730504935 0 0 -1 0 0 0 -1 forward_v I I I I #
coedge $-1 $376 $378 $467 $543 forward $370 $-1 #
edge $-1 $391 -12.814325248673452 $383 12.814325248673452 $387 $544 forward 7 unknown #
vertex $-1 $385 $545 #
straight-curve $-1 -56.230964079714347 0 -12.814325248673452 0 1 0 I I #
vertex $-1 $393 $546 #
straight-curve $-1 -56.230964079714347 0 12.814325248673452 0 -1 0 I I #
point $-1 56.230964079714347 -30.811966730504935 -12.814325248673452 #
coedge $-1 $392 $384 $460 $543 reversed $458 $-1 #
coedge $-1 $384 $392 $386 $470 forward $458 $-1 #
straight-curve $-1 0 30.811966730504935 -12.814325248673452 1 0 0 I I #
edge $-1 $394 -12.814325248673452 $389 12.814325248673452 $386 $547 forward 7 unknown #
point $-1 56.230964079714347 30.811966730504935 -12.814325248673452 #
point $-1 56.230964079714347 -30.811966730504935 12.814325248673452 #
straight-curve $-1 0 30.811966730504935 12.814325248673452 -1 0 0 I I #
point $-1 56.230964079714347 30.811966730504935 12.814325248673452 #
face $-1 $435 $484 $14 $-1 $548 reversed single #
coedge $-1 $491 $399 $483 $549 reversed $323 $-1 #
edge $-1 $487 -12.814325248673452 $485 12.814325248673452 $399 $550 forward 7 unknown #
coedge $-1 $551 $405 $400 $479 forward $484 $-1 #
edge $-1 $410 -7.7039057004747278 $481 7.7039057004747278 $400 $552 forward 7 unknown #
coedge $-1 $402 $432 $551 $553 reversed $397 $-1 #
vertex $-1 $553 $554 #
straight-curve $-1 -36.178639267380859 -30.811966730504935 0 0 0 1 I I #
coedge $-1 $405 $498 $476 $549 forward $484 $-1 #
loop $-1 $-1 $421 $475 #
vertex $-1 $477 $555 #
straight-curve $-1 -33.390476424874151 -46.21977813145439 -12.814325248673452 -1 0 0 I I #
vertex $-1 $413 $556 #
straight-curve $-1 -33.390476424874151 -46.21977813145439 12.814325248673452 1 0 0 I I #
point $-1 -36.178639267380859 -46.21977813145439 12.814325248673452 #
point $-1 -36.178639267380859 -46.21977813145439 -12.814325248673452 #
coedge $-1 $412 $476 $414 $494 reversed $323 $-1 #
straight-curve $-1 -30.60231358236744 -38.515872430979663 12.814325248673452 0 1 0 I I #
coedge $-1 $415 $414 $498 $557 reversed $416 $-1 #
edge $-1 $417 -12.814325248673452 $558 12.814325248673452 $414 $559 forward 7 unknown #
point $-1 -30.60231358236744 -30.811966730504935 12.814325248673452 #
vertex $-1 $419 $560 #
straight-curve $-1 56.230964079714347 -30.811966730504935 0 0 0 -1 I I #
coedge $-1 $483 $421 $493 $557 forward $484 $-1 #
straight-curve $-1 56.230964079714347 0 -12.814325248673452 0 -1 0 I I #
point $-1 56.230964079714347 30.811966730504935 -12.814325248673452 #
coedge $-1 $426 $551 $428 $503 forward $484 $-1 #
straight-curve $-1 0 30.811966730504935 -12.814325248673452 1 0 0 I I #
edge $-1 $507 -30.811966730504935 $429 30.811966730504935 $428 $561 forward 7 unknown #
point $-1 -56.230964079714347 30.811966730504935 -12.814325248673452 #
straight-curve $-1 -36.178639267380859 -38.515872430979663 12.814325248673452 0 -1 0 I I #
point $-1 -36.178639267380859 -30.811966730504935 12.814325248673452 #
vertex $-1 $503 $562 #
straight-curve $-1 -56.230964079714347 -30.811966730504935 0 0 0 -1 I I #
plane-surface $-1 -56.230964079714347 0 0 1 0 0 0 0 -1 forward_v I I I I #
face $-1 $563 $564 $15 $-1 $565 reversed single #
loop $-1 $-1 $566 $437 #
plane-surface $-1 -30.60231358236744 -38.515872430979663 0 -1 0 0 0 0 1 forward_v I I I I #
coedge $-1 $567 $568 $569 $570 reversed $438 $-1 #
coedge $-1 $571 $440 $572 $573 reversed $353 $-1 #
coedge $-1 $440 $571 $574 $575 reversed $353 $-1 #
coedge $-1 $568 $567 $440 $517 reversed $438 $-1 #
edge $-1 $576 -12.814325248673452 $577 12.814325248673452 $516 $578 forward 7 unknown #
coedge $-1 $441 $574 $579 $580 forward $208 $-1 #
coedge $-1 $581 $582 $441 $520 reversed $583 $-1 #
edge $-1 $584 -30.60231358236744 $523 56.230964079714347 $519 $585 forward 7 unknown #
coedge $-1 $586 $442 $582 $587 forward $522 $-1 #
loop $-1 $-1 $446 $588 #
vertex $-1 $443 $589 #
straight-curve $-1 56.230964079714347 0 12.814325248673452 0 1 0 I I #
point $-1 56.230964079714354 23.636900894652818 12.814325248673452 #
coedge $-1 $446 $586 $450 $531 reversed $522 $-1 #
vertex $-1 $531 $590 #
straight-curve $-1 56.230964079714347 -3.4723951081736031 31.09977663395415 0 -0.82903756765294845 0.55919291073839883 I I #
straight-curve $-1 19.923320268088741 30.811966730504935 7.9746821419700034 1 0 0 I I #
coedge $-1 $451 $450 $591 $592 reversed $279 $-1 #
edge $-1 $527 -7.9746821419699998 $593 12.814325248673452 $526 $594 forward 7 unknown #
coedge $-1 $595 $453 $451 $533 forward $538 $-1 #
edge $-1 $455 -12.814325248673452 $596 12.814325248673452 $451 $597 forward 7 unknown #
coedge $-1 $574 $452 $568 $598 forward $208 $-1 #
coedge $-1 $599 $569 $452 $536 reversed $564 $-1 #
edge $-1 $539 -56.230964079714347 $600 -36.178639267380859 $535 $585 forward 7 unknown #
coedge $-1 $453 $595 $599 $601 reversed $538 $-1 #
loop $-1 $-1 $532 $602 #
vertex $-1 $454 $603 #
straight-curve $-1 -56.230964079714347 0 12.814325248673452 0 -1 0 I I #
point $-1 -56.230964079714347 30.811966730504935 12.814325248673452 #
plane-surface $-1 56.230964079714347 0 0 -1 0 0 0 0 1 forward_v I I I I #
edge $-1 $464 -12.814325248673452 $462 12.814325248673452 $467 $604 forward 7 unknown #
straight-curve $-1 56.230964079714347 -30.811966730504935 0 0 0 -1 I I #
point $-1 -56.230964079714347 30.811966730504935 -12.814325248673452 #
point $-1 -56.230964079714347 30.811966730504935 12.814325248673452 #
straight-curve $-1 56.230964079714347 30.811966730504935 0 0 0 -1 I I #
plane-surface $-1 0 0 -12.814325248673452 0 0 1 1 0 0 forward_v I I I I #
edge $-1 $558 -7.7039057004747278 $485 7.7039057004747278 $476 $605 forward 7 unknown #
straight-curve $-1 -30.60231358236744 -46.21977813145439 0 0 0 -1 I I #
coedge $-1 $501 $478 $480 $553 forward $484 $-1 #
straight-curve $-1 -36.178639267380859 -38.515872430979663 -12.814325248673452 0 1 0 I I #
edge $-1 $481 36.178639267380859 $507 56.230964079714347 $480 $606 forward 7 unknown #
point $-1 -36.178639267380859 -30.811966730504935 -12.814325248673452 #
point $-1 -30.60231358236744 -46.21977813145439 -12.814325248673452 #
point $-1 -30.60231358236744 -46.21977813145439 12.814325248673452 #
edge $-1 $496 -56.230964079714347 $558 30.60231358236744 $493 $606 forward 7 unknown #
vertex $-1 $549 $607 #
straight-curve $-1 -30.60231358236744 -30.811966730504935 0 0 0 -1 I I #
point $-1 56.230964079714347 -30.811966730504935 -12.814325248673452 #
straight-curve $-1 -56.230964079714347 0 -12.814325248673452 0 1 0 I I #
point $-1 -56.230964079714347 -30.811966730504935 -12.814325248673452 #
face $-1 $608 $583 $15 $-1 $565 reversed single #
loop $-1 $-1 $569 $510 #
plane-surface $-1 0 -30.811966730504935 0 0 1 0 0 0 1 forward_v I I I I #
coedge $-1 $609 $579 $571 $610 forward $511 $-1 #
coedge $-1 $516 $513 $611 $612 reversed $438 $-1 #
coedge $-1 $513 $516 $534 $598 reversed $438 $-1 #
coedge $-1 $535 $613 $513 $570 forward $564 $-1 #
edge $-1 $614 -12.814325248673452 $600 12.814325248673452 $569 $615 forward 7 unknown #
coedge $-1 $515 $514 $566 $610 reversed $353 $-1 #
coedge $-1 $611 $616 $514 $573 forward $617 $-1 #
edge $-1 $618 -2.7881628425067113 $577 2.7881628425067078 $514 $619 forward 7 unknown #
coedge $-1 $518 $534 $515 $575 forward $208 $-1 #
edge $-1 $576 -2.7881628425067078 $620 2.7881628425067113 $515 $621 forward 7 unknown #
vertex $-1 $598 $622 #
vertex $-1 $612 $623 #
straight-curve $-1 -36.178639267380859 -46.21977813145439 0 0 0 -1 I I #
coedge $-1 $566 $624 $518 $580 reversed $511 $-1 #
edge $-1 $620 -7.7039057004747278 $584 7.7039057004747278 $579 $625 forward 7 unknown #
coedge $-1 $626 $519 $624 $627 forward $583 $-1 #
coedge $-1 $519 $626 $521 $587 reversed $583 $-1 #
loop $-1 $-1 $581 $563 #
vertex $-1 $520 $628 #
straight-curve $-1 0 -30.811966730504935 12.814325248673452 1 0 0 I I #
coedge $-1 $526 $521 $629 $630 reversed $522 $-1 #
edge $-1 $523 -12.814325248673452 $631 12.814325248673452 $521 $632 forward 7 unknown #
face $-1 $-1 $522 $15 $-1 $633 reversed single #
point $-1 56.230964079714347 -30.811966730504935 12.814325248673452 #
point $-1 56.230964079714354 30.811966730504935 7.9746821419699998 #
coedge $-1 $629 $634 $530 $592 forward $617 $-1 #
edge $-1 $596 -56.230964079714347 $593 56.230964079714347 $530 $635 forward 7 unknown #
vertex $-1 $630 $636 #
straight-curve $-1 56.230964079714347 30.811966730504935 0 0 0 -1 I I #
coedge $-1 $537 $532 $634 $637 reversed $538 $-1 #
vertex $-1 $592 $638 #
straight-curve $-1 -56.230964079714347 30.811966730504935 0 0 0 -1 I I #
edge $-1 $600 -7.7039057004747278 $576 7.7039057004747278 $568 $639 forward 7 unknown #
coedge $-1 $613 $535 $537 $601 forward $564 $-1 #
vertex $-1 $598 $640 #
edge $-1 $539 -12.814325248673452 $641 12.814325248673452 $537 $642 forward 7 unknown #
face $-1 $588 $538 $15 $-1 $643 reversed single #
point $-1 -56.230964079714347 -30.811966730504935 12.814325248673452 #
straight-curve $-1 -56.230964079714347 30.811966730504935 0 0 0 -1 I I #
straight-curve $-1 -30.60231358236744 -38.515872430979663 -12.814325248673452 0 -1 0 I I #
straight-curve $-1 0 -30.811966730504935 -12.814325248673452 -1 0 0 I I #
point $-1 -30.60231358236744 -30.811966730504935 -12.814325248673452 #
face $-1 $602 $617 $15 $-1 $644 reversed single #
coedge $-1 $624 $566 $616 $645 reversed $511 $-1 #
edge $-1 $620 -12.814325248673452 $618 12.814325248673452 $566 $646 forward 7 unknown #
coedge $-1 $647 $572 $567 $612 forward $617 $-1 #
edge $-1 $577 -7.7039057004747278 $614 7.7039057004747278 $567 $648 forward 7 unknown #
coedge $-1 $569 $599 $647 $649 reversed $564 $-1 #
vertex $-1 $649 $650 #
straight-curve $-1 -36.178639267380859 -30.811966730504935 0 0 0 1 I I #
coedge $-1 $572 $651 $609 $645 forward $617 $-1 #
loop $-1 $-1 $629 $608 #
vertex $-1 $610 $652 #
straight-curve $-1 -33.390476424874151 -46.21977813145439 -12.814325248673452 -1 0 0 I I #
vertex $-1 $580 $653 #
straight-curve $-1 -33.390476424874151 -46.21977813145439 12.814325248673452 1 0 0 I I #
point $-1 -36.178639267380859 -46.21977813145439 12.814325248673452 #
point $-1 -36.178639267380859 -46.21977813145439 -12.814325248673452 #
coedge $-1 $579 $609 $581 $627 reversed $511 $-1 #
straight-curve $-1 -30.60231358236744 -38.515872430979663 12.814325248673452 0 1 0 I I #
coedge $-1 $582 $581 $651 $654 reversed $583 $-1 #
edge $-1 $584 -12.814325248673452 $655 12.814325248673452 $581 $656 forward 7 unknown #
point $-1 -30.60231358236744 -30.811966730504935 12.814325248673452 #
coedge $-1 $651 $591 $586 $630 forward $617 $-1 #
edge $-1 $593 -30.811966730504935 $631 30.811966730504935 $586 $657 forward 7 unknown #
vertex $-1 $587 $658 #
straight-curve $-1 56.230964079714347 -30.811966730504935 0 0 0 -1 I I #
plane-surface $-1 56.230964079714347 0 0 -1 0 0 0 0 1 forward_v I I I I #
coedge $-1 $591 $647 $595 $637 forward $617 $-1 #
straight-curve $-1 0 30.811966730504935 -12.814325248673452 1 0 0 I I #
point $-1 56.230964079714347 30.811966730504935 -12.814325248673452 #
edge $-1 $641 -30.811966730504935 $596 30.811966730504935 $595 $659 forward 7 unknown #
point $-1 -56.230964079714347 30.811966730504935 -12.814325248673452 #
straight-curve $-1 -36.178639267380859 -38.515872430979663 12.814325248673452 0 -1 0 I I #
point $-1 -36.178639267380859 -30.811966730504935 12.814325248673452 #
vertex $-1 $637 $660 #
straight-curve $-1 -56.230964079714347 -30.811966730504935 0 0 0 -1 I I #
plane-surface $-1 -56.230964079714347 0 0 1 0 0 0 0 -1 forward_v I I I I #
plane-surface $-1 0 0 -12.814325248673452 0 0 1 1 0 0 forward_v I I I I #
edge $-1 $655 -7.7039057004747278 $618 7.7039057004747278 $609 $661 forward 7 unknown #
straight-curve $-1 -30.60231358236744 -46.21977813145439 0 0 0 -1 I I #
coedge $-1 $634 $611 $613 $649 forward $617 $-1 #
straight-curve $-1 -36.178639267380859 -38.515872430979663 -12.814325248673452 0 1 0 I I #
edge $-1 $614 36.178639267380859 $641 56.230964079714347 $613 $662 forward 7 unknown #
point $-1 -36.178639267380859 -30.811966730504935 -12.814325248673452 #
coedge $-1 $616 $629 $626 $654 forward $617 $-1 #
point $-1 -30.60231358236744 -46.21977813145439 -12.814325248673452 #
point $-1 -30.60231358236744 -46.21977813145439 12.814325248673452 #
edge $-1 $631 -56.230964079714347 $655 30.60231358236744 $626 $662 forward 7 unknown #
vertex $-1 $645 $663 #
straight-curve $-1 -30.60231358236744 -30.811966730504935 0 0 0 -1 I I #
straight-curve $-1 56.230964079714347 0 -12.814325248673452 0 -1 0 I I #
point $-1 56.230964079714347 -30.811966730504935 -12.814325248673452 #
straight-curve $-1 -56.230964079714347 0 -12.814325248673452 0 1 0 I I #
point $-1 -56.230964079714347 -30.811966730504935 -12.814325248673452 #
straight-curve $-1 -30.60231358236744 -38.515872430979663 -12.814325248673452 0 -1 0 I I #
straight-curve $-1 0 -30.811966730504935 -12.814325248673452 -1 0 0 I I #
point $-1 -30.60231358236744 -30.811966730504935 -12.814325248673452 #
End-of-ACIS-data 