500 0 18 0           
7 Unknown 11 ACIS 5.0 NT 24 Fri Mar 26 15:51:48 1999 
-1 9.9999999999999995e-007 1e-010 
body $-1 $18 $-1 $19 #
body $-1 $20 $-1 $21 #
body $-1 $22 $-1 $23 #
body $-1 $24 $-1 $25 #
body $-1 $26 $-1 $27 #
body $-1 $28 $-1 $29 #
body $-1 $30 $-1 $31 #
body $-1 $32 $-1 $33 #
body $-1 $34 $-1 $35 #
body $-1 $36 $-1 $37 #
body $-1 $38 $-1 $39 #
body $-1 $40 $-1 $41 #
body $-1 $42 $-1 $43 #
body $-1 $44 $-1 $45 #
body $-1 $46 $-1 $47 #
body $-1 $48 $-1 $49 #
body $-1 $50 $-1 $51 #
body $-1 $52 $-1 $53 #
lump $-1 $-1 $54 $0 #
transform $-1 1 0 0 0 1 0 0 0 1 40.83742790002136 21.971351288730936 7.4460666114069163 1 rotate no_reflect no_shear #
lump $-1 $-1 $55 $1 #
transform $-1 1 0 0 0 1 0 0 0 1 40.83742790002136 21.971351288730936 7.4460666114069163 1 rotate no_reflect no_shear #
lump $-1 $-1 $56 $2 #
transform $-1 1 0 0 0 1 0 0 0 1 40.83742790002136 21.971351288730936 7.4460666114069163 1 rotate no_reflect no_shear #
lump $-1 $-1 $57 $3 #
transform $-1 1 0 0 0 1 0 0 0 1 40.83742790002136 21.971351288730936 7.4460666114069163 1 rotate no_reflect no_shear #
lump $-1 $-1 $58 $4 #
transform $-1 1 0 0 0 1 0 0 0 1 40.83742790002136 21.971351288730936 7.4460666114069163 1 rotate no_reflect no_shear #
lump $-1 $-1 $59 $5 #
transform $-1 1 0 0 0 1 0 0 0 1 40.83742790002136 21.971351288730936 7.4460666114069163 1 rotate no_reflect no_shear #
lump $-1 $-1 $60 $6 #
transform $-1 1 0 0 0 1 0 0 0 1 40.83742790002136 21.971351288730936 7.4460666114069163 1 rotate no_reflect no_shear #
lump $-1 $-1 $61 $7 #
transform $-1 1 0 0 0 1 0 0 0 1 40.83742790002136 21.971351288730936 7.4460666114069163 1 rotate no_reflect no_shear #
lump $-1 $-1 $62 $8 #
transform $-1 1 0 0 0 1 0 0 0 1 40.83742790002136 21.971351288730936 7.4460666114069163 1 rotate no_reflect no_shear #
lump $-1 $-1 $63 $9 #
transform $-1 1 0 0 0 1 0 0 0 1 40.83742790002136 21.971351288730936 7.4460666114069163 1 rotate no_reflect no_shear #
lump $-1 $-1 $64 $10 #
transform $-1 1 0 0 0 1 0 0 0 1 40.83742790002136 21.971351288730936 7.4460666114069163 1 rotate no_reflect no_shear #
lump $-1 $-1 $65 $11 #
transform $-1 1 0 0 0 1 0 0 0 1 40.83742790002136 21.971351288730936 7.4460666114069163 1 rotate no_reflect no_shear #
lump $-1 $-1 $66 $12 #
transform $-1 1 0 0 0 1 0 0 0 1 40.83742790002136 21.971351288730936 7.4460666114069163 1 rotate no_reflect no_shear #
lump $-1 $-1 $67 $13 #
transform $-1 1 0 0 0 1 0 0 0 1 40.83742790002136 21.971351288730936 7.4460666114069163 1 rotate no_reflect no_shear #
lump $-1 $-1 $68 $14 #
transform $-1 1 0 0 0 1 0 0 0 1 40.83742790002136 21.971351288730936 7.4460666114069163 1 rotate no_reflect no_shear #
lump $-1 $-1 $69 $15 #
transform $-1 1 0 0 0 1 0 0 0 1 40.83742790002136 21.971351288730936 7.4460666114069163 1 rotate no_reflect no_shear #
lump $-1 $-1 $70 $16 #
transform $-1 1 0 0 0 1 0 0 0 1 40.83742790002136 21.971351288730936 7.4460666114069163 1 rotate no_reflect no_shear #
lump $-1 $-1 $71 $17 #
transform $-1 1 0 0 0 1 0 0 0 1 40.83742790002136 21.971351288730936 7.4460666114069163 1 rotate no_reflect no_shear #
shell $-1 $-1 $-1 $72 $-1 $18 #
shell $-1 $-1 $-1 $73 $-1 $20 #
shell $-1 $-1 $-1 $74 $-1 $22 #
shell $-1 $-1 $-1 $75 $-1 $24 #
shell $-1 $-1 $-1 $76 $-1 $26 #
shell $-1 $-1 $-1 $77 $-1 $28 #
shell $-1 $-1 $-1 $78 $-1 $30 #
shell $-1 $-1 $-1 $79 $-1 $32 #
shell $-1 $-1 $-1 $80 $-1 $34 #
shell $-1 $-1 $-1 $81 $-1 $36 #
shell $-1 $-1 $-1 $82 $-1 $38 #
shell $-1 $-1 $-1 $83 $-1 $40 #
shell $-1 $-1 $-1 $84 $-1 $42 #
shell $-1 $-1 $-1 $85 $-1 $44 #
shell $-1 $-1 $-1 $86 $-1 $46 #
shell $-1 $-1 $-1 $87 $-1 $48 #
shell $-1 $-1 $-1 $88 $-1 $50 #
shell $-1 $-1 $-1 $89 $-1 $52 #
face $-1 $90 $91 $54 $-1 $92 forward single #
face $-1 $93 $94 $55 $-1 $95 reversed single #
face $-1 $96 $97 $56 $-1 $98 reversed single #
face $-1 $99 $100 $57 $-1 $101 forward single #
face $-1 $102 $103 $58 $-1 $104 forward single #
face $-1 $105 $106 $59 $-1 $107 forward single #
face $-1 $108 $109 $60 $-1 $110 reversed single #
face $-1 $111 $112 $61 $-1 $113 forward single #
face $-1 $114 $115 $62 $-1 $116 forward single #
face $-1 $117 $118 $63 $-1 $119 forward single #
face $-1 $120 $121 $64 $-1 $122 reversed single #
face $-1 $123 $124 $65 $-1 $125 forward single #
face $-1 $126 $127 $66 $-1 $128 forward single #
face $-1 $129 $130 $67 $-1 $131 forward single #
face $-1 $132 $133 $68 $-1 $134 reversed single #
face $-1 $135 $136 $69 $-1 $137 forward single #
face $-1 $138 $139 $70 $-1 $140 forward single #
face $-1 $141 $142 $71 $-1 $143 forward single #
face $-1 $144 $145 $54 $-1 $146 reversed single #
loop $-1 $-1 $147 $72 #
plane-surface $-1 0 0 7.4460666114069163 0 0 1 1 0 0 forward_v I I I I #
face $-1 $148 $149 $55 $-1 $150 reversed single #
loop $-1 $-1 $151 $73 #
plane-surface $-1 -30.265408582949796 -17.230174553141318 0 1 0 0 0 0 -1 forward_v I I I I #
face $-1 $152 $153 $56 $-1 $154 reversed single #
loop $-1 $-1 $155 $74 #
plane-surface $-1 -92.237080729301766 -12.488997817551702 66.432760088361036 0 1 0 -0.62932039886446345 0 0.77714595512881146 forward_v I I I I #
face $-1 $156 $157 $57 $-1 $158 forward single #
loop $-1 $159 $160 $75 #
cone-surface $-1 -37.752528928511751 -11.182884348423361 4.8141984619535041 0.62932039886446345 0 -0.77714595512881146 0.38857297756440573 0 0.31466019943223172 1 I I 0 1 0.5 forward I I I I #
face $-1 $161 $162 $58 $-1 $163 forward single #
loop $-1 $164 $165 $76 #
cone-surface $-1 -37.752528928511751 -9.2237141447308488 4.8141984619535041 0.62932039886446345 0 -0.77714595512881146 0.38857297756440573 0 0.31466019943223172 1 I I 0 1 0.5 forward I I I I #
face $-1 $166 $167 $59 $-1 $168 forward single #
loop $-1 $169 $170 $77 #
cone-surface $-1 -37.752528928511751 -7.2645439410383368 4.8141984619535041 0.62932039886446345 0 -0.77714595512881146 0.38857297756440573 0 0.31466019943223172 1 I I 0 1 0.5 forward I I I I #
face $-1 $171 $172 $60 $-1 $173 reversed single #
loop $-1 $-1 $174 $78 #
plane-surface $-1 -92.237080729301766 15.440783943089228 66.432760088361036 0 1 0 -0.62932039886446345 0 0.77714595512881146 forward_v I I I I #
face $-1 $175 $176 $61 $-1 $177 forward single #
loop $-1 $178 $179 $79 #
cone-surface $-1 -37.752528928511751 16.746897412217571 4.8141984619535041 0.62932039886446345 0 -0.77714595512881146 0.38857297756440573 0 0.31466019943223172 1 I I 0 1 0.5 forward I I I I #
face $-1 $180 $181 $62 $-1 $182 forward single #
loop $-1 $183 $184 $80 #
cone-surface $-1 -37.752528928511751 18.706067615910079 4.8141984619535041 0.62932039886446345 0 -0.77714595512881146 0.38857297756440573 0 0.31466019943223172 1 I I 0 1 0.5 forward I I I I #
face $-1 $185 $186 $63 $-1 $187 forward single #
loop $-1 $188 $189 $81 #
cone-surface $-1 -37.752528928511751 20.665237819602588 4.8141984619535041 0.62932039886446345 0 -0.77714595512881146 0.38857297756440573 0 0.31466019943223172 1 I I 0 1 0.5 forward I I I I #
face $-1 $190 $191 $64 $-1 $192 reversed single #
loop $-1 $-1 $193 $82 #
plane-surface $-1 28.763796908569624 -5.958430471909999 117.83241291764145 0 -1 0 -0.62932039886446345 0 -0.77714595512881146 forward_v I I I I #
face $-1 $194 $195 $65 $-1 $196 forward single #
loop $-1 $197 $198 $83 #
cone-surface $-1 37.752528928511758 -11.182884348423361 4.8141984619534952 -0.62932039886446345 0 -0.77714595512881146 0.38857297756440573 0 -0.31466019943223172 1 I I 0 1 0.5 forward I I I I #
face $-1 $199 $200 $66 $-1 $201 forward single #
loop $-1 $202 $203 $84 #
cone-surface $-1 37.752528928511758 -9.2237141447308488 4.8141984619534952 -0.62932039886446345 0 -0.77714595512881146 0.38857297756440573 0 -0.31466019943223172 1 I I 0 1 0.5 forward I I I I #
face $-1 $204 $205 $67 $-1 $206 forward single #
loop $-1 $207 $208 $85 #
cone-surface $-1 37.752528928511758 -7.2645439410383368 4.8141984619534952 -0.62932039886446345 0 -0.77714595512881146 0.38857297756440573 0 -0.31466019943223172 1 I I 0 1 0.5 forward I I I I #
face $-1 $209 $210 $68 $-1 $211 reversed single #
loop $-1 $-1 $212 $86 #
plane-surface $-1 28.763796908569624 15.440783943089228 117.83241291764145 0 1 0 0.62932039886446345 0 0.77714595512881146 forward_v I I I I #
face $-1 $213 $214 $69 $-1 $215 forward single #
loop $-1 $216 $217 $87 #
cone-surface $-1 37.752528928511758 16.746897412217571 4.8141984619534952 -0.62932039886446345 0 -0.77714595512881146 0.38857297756440573 0 -0.31466019943223172 1 I I 0 1 0.5 forward I I I I #
face $-1 $218 $219 $70 $-1 $220 forward single #
loop $-1 $221 $222 $88 #
cone-surface $-1 37.752528928511758 18.706067615910079 4.8141984619534952 -0.62932039886446345 0 -0.77714595512881146 0.38857297756440573 0 -0.31466019943223172 1 I I 0 1 0.5 forward I I I I #
face $-1 $223 $224 $71 $-1 $225 forward single #
loop $-1 $226 $227 $89 #
cone-surface $-1 37.752528928511758 20.665237819602588 4.8141984619534952 -0.62932039886446345 0 -0.77714595512881146 0.38857297756440573 0 -0.31466019943223172 1 I I 0 1 0.5 forward I I I I #
face $-1 $228 $229 $54 $-1 $230 reversed single #
loop $-1 $-1 $231 $90 #
plane-surface $-1 0 0 -7.4460666114069163 0 0 1 1 0 0 forward_v I I I I #
coedge $-1 $232 $233 $234 $235 forward $91 $-1 #
face $-1 $236 $237 $55 $-1 $238 reversed single #
loop $-1 $-1 $239 $93 #
plane-surface $-1 -28.105351630078662 -12.4889978175517 0 0 -1 0 0 0 -1 forward_v I I I I #
coedge $-1 $240 $241 $242 $243 forward $94 $-1 #
face $-1 $244 $245 $56 $-1 $246 reversed single #
loop $-1 $-1 $247 $96 #
plane-surface $-1 -40.837427900021346 -9.2237141447308506 2.9594762676288866 -0.62932039886446345 0 0.77714595512881146 0.77714595512881146 0 0.62932039886446345 forward_v I I I I #
coedge $-1 $248 $249 $250 $251 reversed $97 $-1 #
face $-1 $-1 $252 $57 $-1 $253 forward single #
loop $-1 $254 $255 $99 #
cone-surface $-1 -37.280538629363406 -11.182884348423361 4.2313389956068956 0.62932039886446345 0 -0.77714595512881146 0.19428648878220287 0 0.15733009971611586 1 I I -0.70710678118654746 0.70710678118654746 0.25 forward I I I I #
loop $-1 $-1 $256 $75 #
coedge $-1 $160 $160 $257 $258 reversed $100 $-1 #
face $-1 $-1 $259 $58 $-1 $260 forward single #
loop $-1 $261 $262 $102 #
cone-surface $-1 -37.280538629363406 -9.2237141447308488 4.2313389956068956 0.62932039886446345 0 -0.77714595512881146 0.19428648878220287 0 0.15733009971611586 1 I I -0.70710678118654746 0.70710678118654746 0.25 forward I I I I #
loop $-1 $-1 $263 $76 #
coedge $-1 $165 $165 $264 $265 reversed $103 $-1 #
face $-1 $-1 $266 $59 $-1 $267 forward single #
loop $-1 $268 $269 $105 #
cone-surface $-1 -37.280538629363406 -7.2645439410383368 4.2313389956068956 0.62932039886446345 0 -0.77714595512881146 0.19428648878220287 0 0.15733009971611586 1 I I -0.70710678118654746 0.70710678118654746 0.25 forward I I I I #
loop $-1 $-1 $270 $77 #
coedge $-1 $170 $170 $271 $272 reversed $106 $-1 #
face $-1 $273 $274 $60 $-1 $275 forward single #
loop $-1 $-1 $276 $108 #
plane-surface $-1 -40.837427900021346 18.706067615910079 2.9594762676288866 -0.62932039886446345 0 0.77714595512881146 0.77714595512881146 0 0.62932039886446345 forward_v I I I I #
coedge $-1 $277 $278 $279 $280 reversed $109 $-1 #
face $-1 $-1 $281 $61 $-1 $282 forward single #
loop $-1 $283 $284 $111 #
cone-surface $-1 -37.280538629363406 16.746897412217571 4.2313389956068956 0.62932039886446345 0 -0.77714595512881146 0.19428648878220287 0 0.15733009971611586 1 I I -0.70710678118654746 0.70710678118654746 0.25 forward I I I I #
loop $-1 $-1 $285 $79 #
coedge $-1 $179 $179 $286 $287 reversed $112 $-1 #
face $-1 $-1 $288 $62 $-1 $289 forward single #
loop $-1 $290 $291 $114 #
cone-surface $-1 -37.280538629363406 18.706067615910079 4.2313389956068956 0.62932039886446345 0 -0.77714595512881146 0.19428648878220287 0 0.15733009971611586 1 I I -0.70710678118654746 0.70710678118654746 0.25 forward I I I I #
loop $-1 $-1 $292 $80 #
coedge $-1 $184 $184 $293 $294 reversed $115 $-1 #
face $-1 $-1 $295 $63 $-1 $296 forward single #
loop $-1 $297 $298 $117 #
cone-surface $-1 -37.280538629363406 20.665237819602588 4.2313389956068956 0.62932039886446345 0 -0.77714595512881146 0.19428648878220287 0 0.15733009971611586 1 I I -0.70710678118654746 0.70710678118654746 0.25 forward I I I I #
loop $-1 $-1 $299 $81 #
coedge $-1 $189 $189 $300 $301 reversed $118 $-1 #
face $-1 $302 $303 $64 $-1 $304 reversed single #
loop $-1 $-1 $305 $120 #
plane-surface $-1 -22.635855920710796 -9.2237141447308506 54.3591290969093 0.62932039886446345 0 0.77714595512881146 0.77714595512881146 0 -0.62932039886446345 forward_v I I I I #
coedge $-1 $306 $307 $308 $309 reversed $121 $-1 #
face $-1 $-1 $310 $65 $-1 $311 forward single #
loop $-1 $312 $313 $123 #
cone-surface $-1 37.280538629363413 -11.182884348423361 4.2313389956068868 -0.62932039886446345 0 -0.77714595512881146 0.19428648878220287 0 -0.15733009971611586 1 I I -0.70710678118654746 0.70710678118654746 0.25 forward I I I I #
loop $-1 $-1 $314 $83 #
coedge $-1 $198 $198 $315 $316 reversed $124 $-1 #
face $-1 $-1 $317 $66 $-1 $318 forward single #
loop $-1 $319 $320 $126 #
cone-surface $-1 37.280538629363413 -9.2237141447308488 4.2313389956068868 -0.62932039886446345 0 -0.77714595512881146 0.19428648878220287 0 -0.15733009971611586 1 I I -0.70710678118654746 0.70710678118654746 0.25 forward I I I I #
loop $-1 $-1 $321 $84 #
coedge $-1 $203 $203 $322 $323 reversed $127 $-1 #
face $-1 $-1 $324 $67 $-1 $325 forward single #
loop $-1 $326 $327 $129 #
cone-surface $-1 37.280538629363413 -7.2645439410383368 4.2313389956068868 -0.62932039886446345 0 -0.77714595512881146 0.19428648878220287 0 -0.15733009971611586 1 I I -0.70710678118654746 0.70710678118654746 0.25 forward I I I I #
loop $-1 $-1 $328 $85 #
coedge $-1 $208 $208 $329 $330 reversed $130 $-1 #
face $-1 $331 $332 $68 $-1 $333 reversed single #
loop $-1 $-1 $334 $132 #
plane-surface $-1 -22.635855920710796 18.706067615910079 54.3591290969093 0.62932039886446345 0 0.77714595512881146 0.77714595512881146 0 -0.62932039886446345 forward_v I I I I #
coedge $-1 $335 $336 $337 $338 reversed $133 $-1 #
face $-1 $-1 $339 $69 $-1 $340 forward single #
loop $-1 $341 $342 $135 #
cone-surface $-1 37.280538629363413 16.746897412217571 4.2313389956068868 -0.62932039886446345 0 -0.77714595512881146 0.19428648878220287 0 -0.15733009971611586 1 I I -0.70710678118654746 0.70710678118654746 0.25 forward I I I I #
loop $-1 $-1 $343 $87 #
coedge $-1 $217 $217 $344 $345 reversed $136 $-1 #
face $-1 $-1 $346 $70 $-1 $347 forward single #
loop $-1 $348 $349 $138 #
cone-surface $-1 37.280538629363413 18.706067615910079 4.2313389956068868 -0.62932039886446345 0 -0.77714595512881146 0.19428648878220287 0 -0.15733009971611586 1 I I -0.70710678118654746 0.70710678118654746 0.25 forward I I I I #
loop $-1 $-1 $350 $88 #
coedge $-1 $222 $222 $351 $352 reversed $139 $-1 #
face $-1 $-1 $353 $71 $-1 $354 forward single #
loop $-1 $355 $356 $141 #
cone-surface $-1 37.280538629363413 20.665237819602588 4.2313389956068868 -0.62932039886446345 0 -0.77714595512881146 0.19428648878220287 0 -0.15733009971611586 1 I I -0.70710678118654746 0.70710678118654746 0.25 forward I I I I #
loop $-1 $-1 $357 $89 #
coedge $-1 $227 $227 $358 $359 reversed $142 $-1 #
face $-1 $360 $361 $54 $-1 $362 reversed single #
loop $-1 $-1 $363 $144 #
plane-surface $-1 0 -21.971351288730936 0 0 1 0 0 0 1 forward_v I I I I #
coedge $-1 $364 $365 $366 $367 forward $145 $-1 #
coedge $-1 $368 $147 $369 $370 forward $91 $-1 #
coedge $-1 $147 $368 $371 $372 forward $91 $-1 #
coedge $-1 $373 $374 $147 $235 reversed $375 $-1 #
edge $-1 $376 -21.971351288730936 $377 21.971351288730936 $234 $378 forward 7 unknown #
face $-1 $379 $380 $55 $-1 $381 forward single #
loop $-1 $-1 $382 $148 #
plane-surface $-1 -25.945294677207528 -17.230174553141318 0 -1 0 0 0 0 1 forward_v I I I I #
coedge $-1 $383 $384 $385 $386 forward $149 $-1 #
coedge $-1 $387 $151 $388 $389 reversed $94 $-1 #
coedge $-1 $151 $387 $390 $391 reversed $94 $-1 #
coedge $-1 $384 $383 $151 $243 reversed $149 $-1 #
edge $-1 $392 -7.4460666114069163 $393 7.4460666114069163 $242 $394 forward 7 unknown #
face $-1 $395 $396 $56 $-1 $397 reversed single #
loop $-1 $-1 $398 $152 #
plane-surface $-1 -92.237080729301766 -5.958430471909999 66.432760088361036 0 -1 0 0.62932039886446345 0 -0.77714595512881146 forward_v I I I I #
coedge $-1 $399 $400 $401 $402 reversed $153 $-1 #
coedge $-1 $249 $155 $403 $404 reversed $97 $-1 #
coedge $-1 $155 $248 $399 $405 reversed $97 $-1 #
coedge $-1 $401 $406 $155 $251 forward $407 $-1 #
edge $-1 $408 5.2811124646295227 $409 10.821590008784298 $250 $410 forward 7 unknown #
loop $-1 $-1 $257 $156 #
plane-surface $-1 -40.837427900021346 -9.2237141447308506 2.9594762676288866 -0.62932039886446345 0 0.77714595512881146 0.77714595512881146 0 0.62932039886446345 forward_v I I I I #
loop $-1 $-1 $411 $99 #
coedge $-1 $255 $255 $256 $412 reversed $157 $-1 #
coedge $-1 $256 $256 $255 $412 forward $159 $-1 #
coedge $-1 $257 $257 $160 $258 forward $252 $-1 #
edge $-1 $413 0 $413 6.2831853071796004 $257 $414 forward 7 unknown #
loop $-1 $-1 $264 $161 #
plane-surface $-1 -40.837427900021346 -9.2237141447308506 2.9594762676288866 -0.62932039886446345 0 0.77714595512881146 0.77714595512881146 0 0.62932039886446345 forward_v I I I I #
loop $-1 $-1 $415 $102 #
coedge $-1 $262 $262 $263 $416 reversed $162 $-1 #
coedge $-1 $263 $263 $262 $416 forward $164 $-1 #
coedge $-1 $264 $264 $165 $265 forward $259 $-1 #
edge $-1 $417 0 $417 6.2831853071796004 $264 $418 forward 7 unknown #
loop $-1 $-1 $271 $166 #
plane-surface $-1 -40.837427900021346 -9.2237141447308506 2.9594762676288866 -0.62932039886446345 0 0.77714595512881146 0.77714595512881146 0 0.62932039886446345 forward_v I I I I #
loop $-1 $-1 $419 $105 #
coedge $-1 $269 $269 $270 $420 reversed $167 $-1 #
coedge $-1 $270 $270 $269 $420 forward $169 $-1 #
coedge $-1 $271 $271 $170 $272 forward $266 $-1 #
edge $-1 $421 0 $421 6.2831853071796004 $271 $422 forward 7 unknown #
face $-1 $423 $424 $60 $-1 $425 reversed single #
loop $-1 $-1 $279 $171 #
plane-surface $-1 0 0 7.4460666114069163 0 0 1 1 0 0 forward_v I I I I #
coedge $-1 $426 $427 $428 $429 reversed $172 $-1 #
coedge $-1 $278 $174 $430 $431 reversed $109 $-1 #
coedge $-1 $174 $277 $426 $432 reversed $109 $-1 #
coedge $-1 $428 $433 $174 $280 forward $274 $-1 #
edge $-1 $434 5.2811124646295227 $435 10.821590008784298 $279 $436 forward 7 unknown #
loop $-1 $-1 $286 $175 #
plane-surface $-1 -40.837427900021346 18.706067615910079 2.9594762676288866 -0.62932039886446345 0 0.77714595512881146 0.77714595512881146 0 0.62932039886446345 forward_v I I I I #
loop $-1 $-1 $437 $111 #
coedge $-1 $284 $284 $285 $438 reversed $176 $-1 #
coedge $-1 $285 $285 $284 $438 forward $178 $-1 #
coedge $-1 $286 $286 $179 $287 forward $281 $-1 #
edge $-1 $439 0 $439 6.2831853071796004 $286 $440 forward 7 unknown #
loop $-1 $-1 $293 $180 #
plane-surface $-1 -40.837427900021346 18.706067615910079 2.9594762676288866 -0.62932039886446345 0 0.77714595512881146 0.77714595512881146 0 0.62932039886446345 forward_v I I I I #
loop $-1 $-1 $441 $114 #
coedge $-1 $291 $291 $292 $442 reversed $181 $-1 #
coedge $-1 $292 $292 $291 $442 forward $183 $-1 #
coedge $-1 $293 $293 $184 $294 forward $288 $-1 #
edge $-1 $443 0 $443 6.2831853071796004 $293 $444 forward 7 unknown #
loop $-1 $-1 $300 $185 #
plane-surface $-1 -40.837427900021346 18.706067615910079 2.9594762676288866 -0.62932039886446345 0 0.77714595512881146 0.77714595512881146 0 0.62932039886446345 forward_v I I I I #
loop $-1 $-1 $445 $117 #
coedge $-1 $298 $298 $299 $446 reversed $186 $-1 #
coedge $-1 $299 $299 $298 $446 forward $188 $-1 #
coedge $-1 $300 $300 $189 $301 forward $295 $-1 #
edge $-1 $447 0 $447 6.2831853071796004 $300 $448 forward 7 unknown #
face $-1 $449 $450 $64 $-1 $451 reversed single #
loop $-1 $-1 $452 $190 #
plane-surface $-1 28.763796908569624 -12.488997817551702 117.83241291764145 0 1 0 0.62932039886446345 0 0.77714595512881146 forward_v I I I I #
coedge $-1 $453 $454 $455 $456 reversed $191 $-1 #
coedge $-1 $307 $193 $457 $458 reversed $121 $-1 #
coedge $-1 $193 $306 $453 $459 reversed $121 $-1 #
coedge $-1 $455 $460 $193 $309 forward $461 $-1 #
edge $-1 $462 -26.455529445736548 $463 -20.915051901581759 $308 $464 forward 7 unknown #
loop $-1 $-1 $315 $194 #
plane-surface $-1 -22.635855920710796 -9.2237141447308506 54.3591290969093 0.62932039886446345 0 0.77714595512881146 0.77714595512881146 0 -0.62932039886446345 forward_v I I I I #
loop $-1 $-1 $465 $123 #
coedge $-1 $313 $313 $314 $466 reversed $195 $-1 #
coedge $-1 $314 $314 $313 $466 forward $197 $-1 #
coedge $-1 $315 $315 $198 $316 forward $310 $-1 #
edge $-1 $467 0 $467 6.2831853071796004 $315 $468 forward 7 unknown #
loop $-1 $-1 $322 $199 #
plane-surface $-1 -22.635855920710796 -9.2237141447308506 54.3591290969093 0.62932039886446345 0 0.77714595512881146 0.77714595512881146 0 -0.62932039886446345 forward_v I I I I #
loop $-1 $-1 $469 $126 #
coedge $-1 $320 $320 $321 $470 reversed $200 $-1 #
coedge $-1 $321 $321 $320 $470 forward $202 $-1 #
coedge $-1 $322 $322 $203 $323 forward $317 $-1 #
edge $-1 $471 0 $471 6.2831853071796004 $322 $472 forward 7 unknown #
loop $-1 $-1 $329 $204 #
plane-surface $-1 -22.635855920710796 -9.2237141447308506 54.3591290969093 0.62932039886446345 0 0.77714595512881146 0.77714595512881146 0 -0.62932039886446345 forward_v I I I I #
loop $-1 $-1 $473 $129 #
coedge $-1 $327 $327 $328 $474 reversed $205 $-1 #
coedge $-1 $328 $328 $327 $474 forward $207 $-1 #
coedge $-1 $329 $329 $208 $330 forward $324 $-1 #
edge $-1 $475 0 $475 6.2831853071796004 $329 $476 forward 7 unknown #
face $-1 $477 $478 $68 $-1 $479 forward single #
loop $-1 $-1 $337 $209 #
plane-surface $-1 40.83742790002136 0 0 -1 0 0 0 0 1 forward_v I I I I #
coedge $-1 $480 $481 $482 $483 reversed $210 $-1 #
coedge $-1 $336 $212 $484 $485 reversed $133 $-1 #
coedge $-1 $212 $335 $480 $486 reversed $133 $-1 #
coedge $-1 $482 $487 $212 $338 forward $332 $-1 #
edge $-1 $488 51.470139847413805 $489 55.956730191191852 $337 $490 forward 7 unknown #
loop $-1 $-1 $344 $213 #
plane-surface $-1 -22.635855920710796 18.706067615910079 54.3591290969093 0.62932039886446345 0 0.77714595512881146 0.77714595512881146 0 -0.62932039886446345 forward_v I I I I #
loop $-1 $-1 $491 $135 #
coedge $-1 $342 $342 $343 $492 reversed $214 $-1 #
coedge $-1 $343 $343 $342 $492 forward $216 $-1 #
coedge $-1 $344 $344 $217 $345 forward $339 $-1 #
edge $-1 $493 0 $493 6.2831853071796004 $344 $494 forward 7 unknown #
loop $-1 $-1 $351 $218 #
plane-surface $-1 -22.635855920710796 18.706067615910079 54.3591290969093 0.62932039886446345 0 0.77714595512881146 0.77714595512881146 0 -0.62932039886446345 forward_v I I I I #
loop $-1 $-1 $495 $138 #
coedge $-1 $349 $349 $350 $496 reversed $219 $-1 #
coedge $-1 $350 $350 $349 $496 forward $221 $-1 #
coedge $-1 $351 $351 $222 $352 forward $346 $-1 #
edge $-1 $497 0 $497 6.2831853071796004 $351 $498 forward 7 unknown #
loop $-1 $-1 $358 $223 #
plane-surface $-1 -22.635855920710796 18.706067615910079 54.3591290969093 0.62932039886446345 0 0.77714595512881146 0.77714595512881146 0 -0.62932039886446345 forward_v I I I I #
loop $-1 $-1 $499 $141 #
coedge $-1 $356 $356 $357 $500 reversed $224 $-1 #
coedge $-1 $357 $357 $356 $500 forward $226 $-1 #
coedge $-1 $358 $358 $227 $359 forward $353 $-1 #
edge $-1 $501 0 $501 6.2831853071796004 $358 $502 forward 7 unknown #
face $-1 $503 $504 $54 $-1 $505 reversed single #
loop $-1 $-1 $506 $228 #
plane-surface $-1 -40.83742790002136 0 0 1 0 0 0 0 -1 forward_v I I I I #
coedge $-1 $507 $371 $508 $509 forward $229 $-1 #
coedge $-1 $510 $231 $507 $511 forward $145 $-1 #
coedge $-1 $231 $510 $512 $513 forward $145 $-1 #
coedge $-1 $374 $373 $231 $367 reversed $375 $-1 #
edge $-1 $514 -21.971351288730936 $515 21.971351288730936 $366 $516 forward 7 unknown #
coedge $-1 $233 $232 $517 $518 forward $91 $-1 #
coedge $-1 $519 $520 $232 $370 reversed $504 $-1 #
edge $-1 $377 -40.83742790002136 $521 40.83742790002136 $369 $522 forward 7 unknown #
coedge $-1 $363 $523 $233 $372 reversed $229 $-1 #
edge $-1 $524 -40.83742790002136 $376 40.83742790002136 $371 $525 forward 7 unknown #
coedge $-1 $366 $234 $523 $526 forward $375 $-1 #
coedge $-1 $234 $366 $519 $527 reversed $375 $-1 #
loop $-1 $-1 $373 $503 #
vertex $-1 $235 $528 #
vertex $-1 $235 $529 #
straight-curve $-1 40.83742790002136 0 7.4460666114069163 0 1 0 I I #
face $-1 $530 $531 $55 $-1 $532 reversed single #
loop $-1 $-1 $533 $236 #
plane-surface $-1 0 0 7.4460666114069163 0 0 1 1 0 0 forward_v I I I I #
coedge $-1 $534 $535 $536 $537 reversed $237 $-1 #
coedge $-1 $242 $239 $538 $539 reversed $149 $-1 #
coedge $-1 $239 $242 $540 $541 reversed $149 $-1 #
coedge $-1 $535 $534 $239 $386 reversed $237 $-1 #
edge $-1 $542 -7.4460666114069163 $543 7.4460666114069163 $385 $544 forward 7 unknown #
coedge $-1 $241 $240 $545 $546 reversed $94 $-1 #
coedge $-1 $538 $547 $240 $389 forward $531 $-1 #
edge $-1 $548 -13.356264012160278 $393 -3.8739105409810417 $388 $549 forward 7 unknown #
coedge $-1 $550 $540 $241 $391 forward $380 $-1 #
edge $-1 $392 3.8739105409810417 $551 13.356264012160278 $390 $552 forward 7 unknown #
vertex $-1 $391 $553 #
vertex $-1 $389 $554 #
straight-curve $-1 -30.265408582949796 -12.4889978175517 0 0 0 -1 I I #
face $-1 $-1 $407 $56 $-1 $555 forward single #
loop $-1 $-1 $556 $244 #
plane-surface $-1 -40.83742790002136 0 0 1 0 0 0 0 -1 forward_v I I I I #
coedge $-1 $557 $558 $559 $560 reversed $245 $-1 #
coedge $-1 $561 $247 $249 $405 forward $153 $-1 #
coedge $-1 $247 $561 $557 $562 forward $153 $-1 #
coedge $-1 $559 $250 $247 $402 forward $407 $-1 #
edge $-1 $409 -7.8771407451862769 $563 -1.3465733995445737 $401 $564 forward 7 unknown #
coedge $-1 $565 $566 $248 $404 forward $396 $-1 #
edge $-1 $567 -30.256903776551642 $408 -25.770313432773602 $403 $568 forward 7 unknown #
edge $-1 $409 -7.1292625376097227 $567 1.8310242626372826e-014 $249 $569 forward 7 unknown #
coedge $-1 $250 $559 $565 $570 forward $407 $-1 #
loop $-1 $-1 $559 $395 #
vertex $-1 $404 $571 #
vertex $-1 $251 $572 #
straight-curve $-1 -46.118540364650883 -12.488997817551702 7.4460666114069163 1 0 0 I I #
coedge $-1 $411 $411 $-1 $573 reversed $254 $-1 #
edge $-1 $574 0 $574 6.2831853071796004 $255 $575 forward 7 unknown #
vertex $-1 $258 $576 #
ellipse-curve $-1 -38.067189127943969 -11.182884348423361 5.2027714395178952 -0.62932039886446345 0 0.77714595512881146 0.38857297756440573 0 0.31466019943223172 1 I I #
coedge $-1 $415 $415 $-1 $577 reversed $261 $-1 #
edge $-1 $578 0 $578 6.2831853071796004 $262 $579 forward 7 unknown #
vertex $-1 $265 $580 #
ellipse-curve $-1 -38.067189127943969 -9.2237141447308488 5.2027714395178952 -0.62932039886446345 0 0.77714595512881146 0.38857297756440573 0 0.31466019943223172 1 I I #
coedge $-1 $419 $419 $-1 $581 reversed $268 $-1 #
edge $-1 $582 0 $582 6.2831853071796004 $269 $583 forward 7 unknown #
vertex $-1 $272 $584 #
ellipse-curve $-1 -38.067189127943969 -7.2645439410383368 5.2027714395178952 -0.62932039886446345 0 0.77714595512881146 0.38857297756440573 0 0.31466019943223172 1 I I #
face $-1 $-1 $585 $60 $-1 $586 reversed single #
loop $-1 $-1 $587 $273 #
plane-surface $-1 0 21.971351288730936 0 0 -1 0 0 0 -1 forward_v I I I I #
coedge $-1 $588 $276 $278 $432 forward $172 $-1 #
coedge $-1 $276 $588 $587 $589 reversed $172 $-1 #
coedge $-1 $590 $279 $276 $429 forward $274 $-1 #
edge $-1 $435 6.0877501351341881 $591 12.61831748077589 $428 $592 forward 7 unknown #
coedge $-1 $593 $594 $277 $431 forward $585 $-1 #
edge $-1 $595 -30.256903776551642 $434 -25.770313432773602 $430 $596 forward 7 unknown #
edge $-1 $435 -7.1292625376097227 $595 1.8310242626372826e-014 $278 $597 forward 7 unknown #
coedge $-1 $279 $590 $593 $598 forward $274 $-1 #
vertex $-1 $431 $599 #
vertex $-1 $280 $600 #
straight-curve $-1 -46.118540364650883 15.440783943089228 7.4460666114069163 1 0 0 I I #
coedge $-1 $437 $437 $-1 $601 reversed $283 $-1 #
edge $-1 $602 0 $602 6.2831853071796004 $284 $603 forward 7 unknown #
vertex $-1 $287 $604 #
ellipse-curve $-1 -38.067189127943969 16.746897412217571 5.2027714395178952 -0.62932039886446345 0 0.77714595512881146 0.38857297756440573 0 0.31466019943223172 1 I I #
coedge $-1 $441 $441 $-1 $605 reversed $290 $-1 #
edge $-1 $606 0 $606 6.2831853071796004 $291 $607 forward 7 unknown #
vertex $-1 $294 $608 #
ellipse-curve $-1 -38.067189127943969 18.706067615910079 5.2027714395178952 -0.62932039886446345 0 0.77714595512881146 0.38857297756440573 0 0.31466019943223172 1 I I #
coedge $-1 $445 $445 $-1 $609 reversed $297 $-1 #
edge $-1 $610 0 $610 6.2831853071796004 $298 $611 forward 7 unknown #
vertex $-1 $301 $612 #
ellipse-curve $-1 -38.067189127943969 20.665237819602588 5.2027714395178952 -0.62932039886446345 0 0.77714595512881146 0.38857297756440573 0 0.31466019943223172 1 I I #
face $-1 $-1 $461 $64 $-1 $613 forward single #
loop $-1 $-1 $614 $302 #
plane-surface $-1 40.83742790002136 0 0 -1 0 0 0 0 1 forward_v I I I I #
coedge $-1 $615 $616 $617 $618 reversed $303 $-1 #
coedge $-1 $619 $305 $307 $459 forward $191 $-1 #
coedge $-1 $305 $619 $615 $620 forward $191 $-1 #
coedge $-1 $617 $308 $305 $456 forward $461 $-1 #
edge $-1 $463 1.3465733995445737 $621 7.8771407451862769 $455 $622 forward 7 unknown #
coedge $-1 $623 $624 $306 $458 forward $450 $-1 #
edge $-1 $625 -55.956730191191852 $462 -51.470139847413805 $457 $626 forward 7 unknown #
edge $-1 $463 74.545593262432973 $625 81.674855800042735 $307 $627 forward 7 unknown #
coedge $-1 $308 $617 $623 $628 forward $461 $-1 #
loop $-1 $-1 $617 $449 #
vertex $-1 $458 $629 #
vertex $-1 $309 $630 #
straight-curve $-1 14.381898454284812 -5.958430471909999 7.4460666114069127 -1 0 0 I I #
coedge $-1 $465 $465 $-1 $631 reversed $312 $-1 #
edge $-1 $632 0 $632 6.2831853071796004 $313 $633 forward 7 unknown #
vertex $-1 $316 $634 #
ellipse-curve $-1 38.067189127943976 -11.182884348423361 5.2027714395178846 0.62932039886446345 0 0.77714595512881146 0.38857297756440573 0 -0.31466019943223172 1 I I #
coedge $-1 $469 $469 $-1 $635 reversed $319 $-1 #
edge $-1 $636 0 $636 6.2831853071796004 $320 $637 forward 7 unknown #
vertex $-1 $323 $638 #
ellipse-curve $-1 38.067189127943976 -9.2237141447308488 5.2027714395178846 0.62932039886446345 0 0.77714595512881146 0.38857297756440573 0 -0.31466019943223172 1 I I #
coedge $-1 $473 $473 $-1 $639 reversed $326 $-1 #
edge $-1 $640 0 $640 6.2831853071796004 $327 $641 forward 7 unknown #
vertex $-1 $330 $642 #
ellipse-curve $-1 38.067189127943976 -7.2645439410383368 5.2027714395178846 0.62932039886446345 0 0.77714595512881146 0.38857297756440573 0 -0.31466019943223172 1 I I #
face $-1 $-1 $643 $68 $-1 $644 reversed single #
loop $-1 $-1 $484 $331 #
plane-surface $-1 0 0 7.4460666114069163 0 0 1 1 0 0 forward_v I I I I #
coedge $-1 $645 $334 $336 $486 forward $210 $-1 #
coedge $-1 $334 $645 $646 $647 reversed $210 $-1 #
coedge $-1 $648 $337 $334 $483 forward $332 $-1 #
edge $-1 $489 6.0877501351341881 $649 12.618317480775897 $482 $650 forward 7 unknown #
coedge $-1 $651 $652 $335 $485 forward $478 $-1 #
edge $-1 $653 20.915051901581759 $488 26.455529445736548 $484 $654 forward 7 unknown #
edge $-1 $489 -81.674855800042735 $653 -74.545593262432973 $336 $655 forward 7 unknown #
coedge $-1 $337 $648 $651 $656 reversed $332 $-1 #
vertex $-1 $656 $657 #
vertex $-1 $338 $658 #
straight-curve $-1 40.83742790002136 15.440783943089228 58.916206458820724 0 0 -1 I I #
coedge $-1 $491 $491 $-1 $659 reversed $341 $-1 #
edge $-1 $660 0 $660 6.2831853071796004 $342 $661 forward 7 unknown #
vertex $-1 $345 $662 #
ellipse-curve $-1 38.067189127943976 16.746897412217571 5.2027714395178846 0.62932039886446345 0 0.77714595512881146 0.38857297756440573 0 -0.31466019943223172 1 I I #
coedge $-1 $495 $495 $-1 $663 reversed $348 $-1 #
edge $-1 $664 0 $664 6.2831853071796004 $349 $665 forward 7 unknown #
vertex $-1 $352 $666 #
ellipse-curve $-1 38.067189127943976 18.706067615910079 5.2027714395178846 0.62932039886446345 0 0.77714595512881146 0.38857297756440573 0 -0.31466019943223172 1 I I #
coedge $-1 $499 $499 $-1 $667 reversed $355 $-1 #
edge $-1 $668 0 $668 6.2831853071796004 $356 $669 forward 7 unknown #
vertex $-1 $359 $670 #
ellipse-curve $-1 38.067189127943976 20.665237819602588 5.2027714395178846 0.62932039886446345 0 0.77714595512881146 0.38857297756440573 0 -0.31466019943223172 1 I I #
face $-1 $-1 $375 $54 $-1 $671 reversed single #
loop $-1 $-1 $519 $360 #
plane-surface $-1 0 21.971351288730936 0 0 -1 0 0 0 -1 forward_v I I I I #
coedge $-1 $672 $517 $520 $673 forward $361 $-1 #
coedge $-1 $523 $363 $364 $511 reversed $229 $-1 #
coedge $-1 $517 $672 $363 $509 reversed $361 $-1 #
edge $-1 $524 -7.4460666114069163 $674 7.4460666114069163 $508 $675 forward 7 unknown #
coedge $-1 $365 $364 $672 $676 forward $145 $-1 #
edge $-1 $515 -40.83742790002136 $674 40.83742790002136 $507 $677 forward 7 unknown #
coedge $-1 $520 $519 $365 $513 reversed $504 $-1 #
edge $-1 $678 -40.83742790002136 $514 40.83742790002136 $512 $679 forward 7 unknown #
vertex $-1 $367 $680 #
vertex $-1 $526 $681 #
straight-curve $-1 40.83742790002136 0 -7.4460666114069163 0 -1 0 I I #
coedge $-1 $506 $508 $368 $518 reversed $361 $-1 #
edge $-1 $521 -21.971351288730936 $524 21.971351288730936 $517 $682 forward 7 unknown #
coedge $-1 $512 $369 $374 $527 forward $504 $-1 #
coedge $-1 $369 $512 $506 $673 reversed $504 $-1 #
vertex $-1 $370 $683 #
straight-curve $-1 0 21.971351288730936 7.4460666114069163 -1 0 0 I I #
coedge $-1 $371 $507 $373 $526 reversed $229 $-1 #
vertex $-1 $518 $684 #
straight-curve $-1 0 -21.971351288730936 7.4460666114069163 1 0 0 I I #
edge $-1 $376 -7.4460666114069163 $515 7.4460666114069163 $373 $685 forward 7 unknown #
edge $-1 $377 -7.4460666114069163 $514 7.4460666114069163 $374 $686 forward 7 unknown #
point $-1 40.83742790002136 -21.971351288730936 7.4460666114069163 #
point $-1 40.83742790002136 21.971351288730936 7.4460666114069163 #
face $-1 $-1 $687 $55 $-1 $688 reversed single #
loop $-1 $-1 $689 $379 #
plane-surface $-1 0 0 -7.4460666114069163 0 0 1 1 0 0 forward_v I I I I #
coedge $-1 $540 $550 $535 $690 forward $380 $-1 #
coedge $-1 $385 $382 $689 $691 reversed $237 $-1 #
coedge $-1 $382 $385 $533 $690 reversed $237 $-1 #
coedge $-1 $692 $693 $382 $537 forward $687 $-1 #
edge $-1 $694 -7.4460666114069163 $695 7.4460666114069163 $536 $696 forward 7 unknown #
coedge $-1 $689 $388 $383 $539 forward $531 $-1 #
edge $-1 $393 -16.212732767910467 $543 -11.892618862168197 $538 $697 forward 7 unknown #
coedge $-1 $390 $533 $384 $541 forward $380 $-1 #
edge $-1 $542 11.892618862168197 $392 16.212732767910467 $540 $698 forward 7 unknown #
vertex $-1 $541 $699 #
vertex $-1 $539 $700 #
straight-curve $-1 -25.945294677207528 -12.4889978175517 0 0 0 -1 I I #
coedge $-1 $693 $692 $387 $546 forward $687 $-1 #
edge $-1 $551 -7.4460666114069163 $548 7.4460666114069163 $545 $701 forward 7 unknown #
coedge $-1 $388 $689 $693 $702 forward $531 $-1 #
vertex $-1 $389 $703 #
straight-curve $-1 -30.265408582949796 -8.6150872765706588 -7.4460666114069163 0 1 0 I I #
coedge $-1 $533 $390 $692 $704 forward $380 $-1 #
vertex $-1 $704 $705 #
straight-curve $-1 -30.265408582949796 -8.6150872765706588 7.4460666114069163 0 -1 0 I I #
point $-1 -30.265408582949796 -12.4889978175517 7.4460666114069163 #
point $-1 -30.265408582949796 -12.4889978175517 -7.4460666114069163 #
plane-surface $-1 0 0 7.4460666114069163 0 0 1 1 0 0 forward_v I I I I #
coedge $-1 $566 $565 $558 $706 forward $396 $-1 #
coedge $-1 $558 $398 $400 $562 reversed $245 $-1 #
coedge $-1 $398 $557 $556 $706 reversed $245 $-1 #
coedge $-1 $406 $401 $398 $560 forward $407 $-1 #
edge $-1 $563 -10.821590008784298 $707 -5.2811124646295227 $559 $708 forward 7 unknown #
coedge $-1 $400 $399 $566 $709 reversed $153 $-1 #
edge $-1 $710 -1.8310242626372826e-014 $563 7.1292625376097227 $557 $711 forward 7 unknown #
vertex $-1 $402 $712 #
straight-curve $-1 -35.296950355866585 -4.6118570723654253 7.4460666114069154 0 1 0 I I #
coedge $-1 $556 $403 $406 $570 reversed $396 $-1 #
coedge $-1 $403 $556 $561 $709 forward $396 $-1 #
vertex $-1 $404 $713 #
straight-curve $-1 -40.83742790002136 -12.488997817551702 33.216380044180518 0 0 1 I I #
straight-curve $-1 -40.837427900021346 -12.488997817551702 2.9594762676288866 -0.77714595512881146 0 -0.62932039886446345 I I #
edge $-1 $707 5.958430471909999 $408 12.488997817551702 $565 $714 forward 7 unknown #
point $-1 -40.83742790002136 -12.488997817551702 7.4460666114069163 #
point $-1 -35.296950355866585 -12.488997817551702 7.4460666114069163 #
edge $-1 $715 1 $715 0 $411 $-1 forward 7 unknown #
vertex $-1 $412 $716 #
ellipse-curve $-1 -37.437868729079518 -11.182884348423361 4.4256254843890988 -0.62932039886446345 0 0.77714595512881146 0.38857297756440573 0 0.31466019943223172 1 I I #
point $-1 -37.678616150379582 -11.182884348423361 5.5174316389501419 #
edge $-1 $717 1 $717 0 $415 $-1 forward 7 unknown #
vertex $-1 $416 $718 #
ellipse-curve $-1 -37.437868729079518 -9.2237141447308488 4.4256254843890988 -0.62932039886446345 0 0.77714595512881146 0.38857297756440573 0 0.31466019943223172 1 I I #
point $-1 -37.678616150379582 -9.2237141447308488 5.5174316389501419 #
edge $-1 $719 1 $719 0 $419 $-1 forward 7 unknown #
vertex $-1 $420 $720 #
ellipse-curve $-1 -37.437868729079518 -7.2645439410383368 4.4256254843890988 -0.62932039886446345 0 0.77714595512881146 0.38857297756440573 0 0.31466019943223172 1 I I #
point $-1 -37.678616150379582 -7.2645439410383368 5.5174316389501419 #
loop $-1 $-1 $430 $423 #
plane-surface $-1 -40.83742790002136 0 0 1 0 0 0 0 -1 forward_v I I I I #
coedge $-1 $721 $722 $427 $589 forward $424 $-1 #
coedge $-1 $427 $426 $594 $723 reversed $172 $-1 #
edge $-1 $591 7.8078290249862476 $724 14.937091562595988 $587 $725 forward 7 unknown #
coedge $-1 $433 $428 $722 $726 forward $274 $-1 #
vertex $-1 $726 $727 #
straight-curve $-1 -35.296950355866585 9.3530338079550397 7.4460666114069154 0 1 0 I I #
coedge $-1 $728 $430 $433 $598 reversed $585 $-1 #
coedge $-1 $430 $728 $588 $723 forward $585 $-1 #
vertex $-1 $431 $729 #
straight-curve $-1 -40.83742790002136 15.440783943089228 33.216380044180518 0 0 1 I I #
straight-curve $-1 -40.837427900021346 15.440783943089228 2.9594762676288866 -0.77714595512881146 0 -0.62932039886446345 I I #
edge $-1 $730 -21.971351288730936 $434 -15.440783943089228 $593 $731 forward 7 unknown #
point $-1 -40.83742790002136 15.440783943089228 7.4460666114069163 #
point $-1 -35.296950355866585 15.440783943089228 7.4460666114069163 #
edge $-1 $732 1 $732 0 $437 $-1 forward 7 unknown #
vertex $-1 $438 $733 #
ellipse-curve $-1 -37.437868729079518 16.746897412217571 4.4256254843890988 -0.62932039886446345 0 0.77714595512881146 0.38857297756440573 0 0.31466019943223172 1 I I #
point $-1 -37.678616150379582 16.746897412217571 5.5174316389501419 #
edge $-1 $734 1 $734 0 $441 $-1 forward 7 unknown #
vertex $-1 $442 $735 #
ellipse-curve $-1 -37.437868729079518 18.706067615910079 4.4256254843890988 -0.62932039886446345 0 0.77714595512881146 0.38857297756440573 0 0.31466019943223172 1 I I #
point $-1 -37.678616150379582 18.706067615910079 5.5174316389501419 #
edge $-1 $736 1 $736 0 $445 $-1 forward 7 unknown #
vertex $-1 $446 $737 #
ellipse-curve $-1 -37.437868729079518 20.665237819602588 4.4256254843890988 -0.62932039886446345 0 0.77714595512881146 0.38857297756440573 0 0.31466019943223172 1 I I #
point $-1 -37.678616150379582 20.665237819602588 5.5174316389501419 #
plane-surface $-1 0 0 7.4460666114069163 0 0 1 1 0 0 forward_v I I I I #
coedge $-1 $624 $623 $616 $738 forward $450 $-1 #
coedge $-1 $616 $452 $454 $620 reversed $303 $-1 #
coedge $-1 $452 $615 $614 $738 reversed $303 $-1 #
coedge $-1 $460 $455 $452 $618 forward $461 $-1 #
edge $-1 $621 20.915051901581759 $739 26.455529445736548 $617 $740 forward 7 unknown #
coedge $-1 $454 $453 $624 $741 reversed $191 $-1 #
edge $-1 $742 -81.674855800042735 $621 -74.545593262432973 $615 $743 forward 7 unknown #
vertex $-1 $456 $744 #
straight-curve $-1 35.296950355866571 -4.6118570723654253 7.4460666114069198 0 -1 0 I I #
coedge $-1 $614 $457 $460 $628 reversed $450 $-1 #
coedge $-1 $457 $614 $619 $741 forward $450 $-1 #
vertex $-1 $458 $745 #
straight-curve $-1 40.83742790002136 -5.958430471909999 58.916206458820724 0 0 1 I I #
straight-curve $-1 -22.635855920710796 -5.958430471909999 54.3591290969093 0.77714595512881146 0 -0.62932039886446345 I I #
edge $-1 $739 -12.488997817551702 $462 -5.958430471909999 $623 $746 forward 7 unknown #
point $-1 40.83742790002136 -5.958430471909999 7.4460666114069163 #
point $-1 35.296950355866571 -5.958430471909999 7.4460666114069198 #
edge $-1 $747 1 $747 0 $465 $-1 forward 7 unknown #
vertex $-1 $466 $748 #
ellipse-curve $-1 37.437868729079526 -11.182884348423361 4.4256254843890899 0.62932039886446345 0 0.77714595512881146 0.38857297756440573 0 -0.31466019943223172 1 I I #
point $-1 38.455762105508398 -11.182884348423361 4.888111240085669 #
edge $-1 $749 1 $749 0 $469 $-1 forward 7 unknown #
vertex $-1 $470 $750 #
ellipse-curve $-1 37.437868729079526 -9.2237141447308488 4.4256254843890899 0.62932039886446345 0 0.77714595512881146 0.38857297756440573 0 -0.31466019943223172 1 I I #
point $-1 38.455762105508398 -9.2237141447308488 4.888111240085669 #
edge $-1 $751 1 $751 0 $473 $-1 forward 7 unknown #
vertex $-1 $474 $752 #
ellipse-curve $-1 37.437868729079526 -7.2645439410383368 4.4256254843890899 0.62932039886446345 0 0.77714595512881146 0.38857297756440573 0 -0.31466019943223172 1 I I #
point $-1 38.455762105508398 -7.2645439410383368 4.888111240085669 #
loop $-1 $-1 $646 $477 #
plane-surface $-1 0 21.971351288730936 0 0 -1 0 0 0 -1 forward_v I I I I #
coedge $-1 $481 $480 $652 $753 reversed $210 $-1 #
coedge $-1 $754 $755 $481 $647 forward $643 $-1 #
edge $-1 $649 -55.774519462617342 $756 -48.645256925007587 $646 $757 forward 7 unknown #
coedge $-1 $487 $482 $755 $758 reversed $332 $-1 #
vertex $-1 $483 $759 #
straight-curve $-1 40.837427900021353 9.3530338079550397 2.9594762676288724 0 1 0 I I #
coedge $-1 $760 $484 $487 $656 forward $478 $-1 #
coedge $-1 $484 $760 $645 $753 forward $478 $-1 #
vertex $-1 $485 $761 #
straight-curve $-1 14.381898454284812 15.440783943089228 7.4460666114069127 1 0 0 I I #
straight-curve $-1 -22.635855920710796 15.440783943089228 54.3591290969093 -0.77714595512881146 0 0.62932039886446345 I I #
edge $-1 $488 15.440783943089228 $762 21.971351288730936 $487 $763 forward 7 unknown #
point $-1 40.83742790002136 15.440783943089228 7.4460666114069163 #
point $-1 40.83742790002136 15.440783943089228 2.9594762676288724 #
edge $-1 $764 1 $764 0 $491 $-1 forward 7 unknown #
vertex $-1 $492 $765 #
ellipse-curve $-1 37.437868729079526 16.746897412217571 4.4256254843890899 0.62932039886446345 0 0.77714595512881146 0.38857297756440573 0 -0.31466019943223172 1 I I #
point $-1 38.455762105508398 16.746897412217571 4.888111240085669 #
edge $-1 $766 1 $766 0 $495 $-1 forward 7 unknown #
vertex $-1 $496 $767 #
ellipse-curve $-1 37.437868729079526 18.706067615910079 4.4256254843890899 0.62932039886446345 0 0.77714595512881146 0.38857297756440573 0 -0.31466019943223172 1 I I #
point $-1 38.455762105508398 18.706067615910079 4.888111240085669 #
edge $-1 $768 1 $768 0 $499 $-1 forward 7 unknown #
vertex $-1 $500 $769 #
ellipse-curve $-1 37.437868729079526 20.665237819602588 4.4256254843890899 0.62932039886446345 0 0.77714595512881146 0.38857297756440573 0 -0.31466019943223172 1 I I #
point $-1 38.455762105508398 20.665237819602588 4.888111240085669 #
plane-surface $-1 40.83742790002136 0 0 -1 0 0 0 0 1 forward_v I I I I #
coedge $-1 $508 $506 $510 $676 reversed $361 $-1 #
edge $-1 $521 -7.4460666114069163 $678 7.4460666114069163 $520 $770 forward 7 unknown #
vertex $-1 $676 $771 #
straight-curve $-1 -40.83742790002136 -21.971351288730936 0 0 0 -1 I I #
edge $-1 $674 -21.971351288730936 $678 21.971351288730936 $672 $772 forward 7 unknown #
straight-curve $-1 0 -21.971351288730936 -7.4460666114069163 -1 0 0 I I #
vertex $-1 $513 $773 #
straight-curve $-1 0 21.971351288730936 -7.4460666114069163 1 0 0 I I #
point $-1 40.83742790002136 21.971351288730936 -7.4460666114069163 #
point $-1 40.83742790002136 -21.971351288730936 -7.4460666114069163 #
straight-curve $-1 -40.83742790002136 0 7.4460666114069163 0 -1 0 I I #
point $-1 -40.83742790002136 21.971351288730936 7.4460666114069163 #
point $-1 -40.83742790002136 -21.971351288730936 7.4460666114069163 #
straight-curve $-1 40.83742790002136 -21.971351288730936 0 0 0 -1 I I #
straight-curve $-1 40.83742790002136 21.971351288730936 0 0 0 -1 I I #
loop $-1 $-1 $536 $530 #
plane-surface $-1 0 -21.971351288730936 0 0 1 0 0 0 1 forward_v I I I I #
coedge $-1 $547 $538 $534 $691 forward $531 $-1 #
edge $-1 $695 -13.356264012160278 $542 -3.8739105409810417 $533 $774 forward 7 unknown #
edge $-1 $543 3.8739105409810417 $694 13.356264012160278 $689 $775 forward 7 unknown #
coedge $-1 $545 $536 $550 $704 reversed $687 $-1 #
coedge $-1 $536 $545 $547 $702 reversed $687 $-1 #
vertex $-1 $702 $776 #
vertex $-1 $537 $777 #
straight-curve $-1 -25.945294677207528 -21.971351288730936 0 0 0 1 I I #
straight-curve $-1 -14.052675815039331 -12.4889978175517 -7.4460666114069163 1 0 0 I I #
straight-curve $-1 -14.052675815039331 -12.4889978175517 7.4460666114069163 -1 0 0 I I #
point $-1 -25.945294677207528 -12.4889978175517 7.4460666114069163 #
point $-1 -25.945294677207528 -12.4889978175517 -7.4460666114069163 #
straight-curve $-1 -30.265408582949796 -21.971351288730936 0 0 0 -1 I I #
edge $-1 $694 25.945294677207528 $548 30.265408582949796 $693 $778 forward 7 unknown #
point $-1 -30.265408582949796 -21.971351288730936 -7.4460666114069163 #
edge $-1 $551 -30.265408582949796 $695 -25.945294677207528 $692 $779 forward 7 unknown #
point $-1 -30.265408582949796 -21.971351288730936 7.4460666114069163 #
edge $-1 $707 25.770313432773602 $710 30.256903776551642 $556 $780 forward 7 unknown #
vertex $-1 $570 $781 #
straight-curve $-1 -46.118540364650883 -5.958430471909999 7.4460666114069163 -1 0 0 I I #
edge $-1 $710 1.3465733995445737 $567 7.8771407451862769 $566 $782 forward 7 unknown #
vertex $-1 $709 $783 #
straight-curve $-1 -40.837427900021346 -5.958430471909999 2.9594762676288866 0.77714595512881146 0 0.62932039886446345 I I #
point $-1 -35.296950355866585 -5.958430471909999 7.4460666114069163 #
point $-1 -40.83742790002136 -12.488997817551702 2.9594762676288751 #
straight-curve $-1 -40.83742790002136 0 7.4460666114069163 0 -1 0 I I #
vertex $-1 $573 $784 #
point $-1 -37.049295751515118 -11.182884348423361 4.7402856838213303 #
vertex $-1 $577 $785 #
point $-1 -37.049295751515118 -9.2237141447308488 4.7402856838213303 #
vertex $-1 $581 $786 #
point $-1 -37.049295751515118 -7.2645439410383368 4.7402856838213303 #
coedge $-1 $722 $587 $728 $787 reversed $424 $-1 #
coedge $-1 $587 $721 $590 $726 reversed $424 $-1 #
edge $-1 $724 -12.61831748077589 $595 -6.0877501351341881 $594 $788 forward 7 unknown #
vertex $-1 $589 $789 #
straight-curve $-1 -29.229127610761189 21.971351288730936 12.359692687676795 -0.77714595512881146 0 -0.62932039886446345 I I #
edge $-1 $591 35.296950355866585 $730 40.83742790002136 $722 $790 forward 7 unknown #
point $-1 -35.296950355866585 21.971351288730929 7.4460666114069163 #
coedge $-1 $594 $593 $721 $787 forward $585 $-1 #
point $-1 -40.83742790002136 15.440783943089228 2.9594762676288751 #
vertex $-1 $726 $791 #
straight-curve $-1 -40.83742790002136 0 7.4460666114069163 0 -1 0 I I #
vertex $-1 $601 $792 #
point $-1 -37.049295751515118 16.746897412217571 4.7402856838213303 #
vertex $-1 $605 $793 #
point $-1 -37.049295751515118 18.706067615910079 4.7402856838213303 #
vertex $-1 $609 $794 #
point $-1 -37.049295751515118 20.665237819602588 4.7402856838213303 #
edge $-1 $739 51.470139847413805 $742 55.956730191191852 $614 $795 forward 7 unknown #
vertex $-1 $628 $796 #
straight-curve $-1 14.381898454284812 -12.488997817551702 7.4460666114069127 1 0 0 I I #
edge $-1 $742 -7.8771407451862769 $625 -1.3465733995445737 $624 $797 forward 7 unknown #
vertex $-1 $741 $798 #
straight-curve $-1 -22.635855920710796 -12.488997817551702 54.3591290969093 -0.77714595512881146 0 0.62932039886446345 I I #
point $-1 35.296950355866571 -12.488997817551702 7.4460666114069198 #
point $-1 40.83742790002136 -5.958430471909999 2.9594762676288724 #
straight-curve $-1 40.83742790002136 0 7.4460666114069163 0 1 0 I I #
vertex $-1 $631 $799 #
point $-1 37.826441706643934 -11.182884348423361 4.1109652849568583 #
vertex $-1 $635 $800 #
point $-1 37.826441706643934 -9.2237141447308488 4.1109652849568583 #
vertex $-1 $639 $801 #
point $-1 37.826441706643934 -7.2645439410383368 4.1109652849568583 #
edge $-1 $756 -12.61831748077589 $653 -6.0877501351341881 $652 $802 forward 7 unknown #
coedge $-1 $755 $646 $760 $803 reversed $643 $-1 #
coedge $-1 $646 $754 $648 $758 forward $643 $-1 #
vertex $-1 $647 $804 #
straight-curve $-1 -2.50751429960488 21.971351288730936 38.059519102316997 -0.77714595512881146 0 0.62932039886446345 I I #
edge $-1 $762 -7.4460666114069163 $649 -2.9594762676288688 $648 $805 forward 7 unknown #
point $-1 40.83742790002136 21.971351288730936 2.9594762676288688 #
coedge $-1 $652 $651 $754 $803 forward $478 $-1 #
point $-1 35.296950355866571 15.440783943089228 7.4460666114069198 #
vertex $-1 $656 $806 #
straight-curve $-1 40.83742790002136 0 7.4460666114069163 0 1 0 I I #
vertex $-1 $659 $807 #
point $-1 37.826441706643934 16.746897412217571 4.1109652849568583 #
vertex $-1 $663 $808 #
point $-1 37.826441706643934 18.706067615910079 4.1109652849568583 #
vertex $-1 $667 $809 #
point $-1 37.826441706643934 20.665237819602588 4.1109652849568583 #
straight-curve $-1 -40.83742790002136 21.971351288730936 0 0 0 -1 I I #
point $-1 -40.83742790002136 -21.971351288730936 -7.4460666114069163 #
straight-curve $-1 -40.83742790002136 0 -7.4460666114069163 0 1 0 I I #
point $-1 -40.83742790002136 21.971351288730936 -7.4460666114069163 #
straight-curve $-1 -25.945294677207528 -8.6150872765706588 7.4460666114069163 0 1 0 I I #
straight-curve $-1 -25.945294677207528 -8.6150872765706588 -7.4460666114069163 0 -1 0 I I #
point $-1 -25.945294677207528 -21.971351288730936 -7.4460666114069163 #
point $-1 -25.945294677207528 -21.971351288730936 7.4460666114069163 #
straight-curve $-1 0 -21.971351288730936 -7.4460666114069163 -1 0 0 I I #
straight-curve $-1 0 -21.971351288730936 7.4460666114069163 1 0 0 I I #
straight-curve $-1 -40.83742790002136 -5.958430471909999 33.216380044180518 0 0 -1 I I #
point $-1 -40.83742790002136 -5.958430471909999 7.4460666114069163 #
straight-curve $-1 -40.83742790002136 -4.6118570723654253 2.9594762676288742 0 -1 0 I I #
point $-1 -40.83742790002136 -5.958430471909999 2.9594762676288751 #
point $-1 -37.123208529647293 -11.182884348423361 4.0370525068246925 #
point $-1 -37.123208529647293 -9.2237141447308488 4.0370525068246925 #
point $-1 -37.123208529647293 -7.2645439410383368 4.0370525068246925 #
edge $-1 $730 -7.4460666114069163 $724 -2.9594762676288751 $721 $810 forward 7 unknown #
straight-curve $-1 -40.83742790002136 9.3530338079550397 2.9594762676288742 0 -1 0 I I #
point $-1 -40.83742790002136 21.971351288730929 2.9594762676288751 #
straight-curve $-1 0 21.971351288730936 7.4460666114069163 -1 0 0 I I #
point $-1 -40.83742790002136 21.971351288730936 7.4460666114069163 #
point $-1 -37.123208529647293 16.746897412217571 4.0370525068246925 #
point $-1 -37.123208529647293 18.706067615910079 4.0370525068246925 #
point $-1 -37.123208529647293 20.665237819602588 4.0370525068246925 #
straight-curve $-1 40.83742790002136 -12.488997817551702 58.916206458820724 0 0 -1 I I #
point $-1 40.83742790002136 -12.488997817551702 7.4460666114069163 #
straight-curve $-1 40.837427900021353 -4.6118570723654253 2.9594762676288724 0 1 0 I I #
point $-1 40.83742790002136 -12.488997817551702 2.9594762676288724 #
point $-1 37.1232085296473 -11.182884348423361 4.0370525068246836 #
point $-1 37.1232085296473 -9.2237141447308488 4.0370525068246836 #
point $-1 37.1232085296473 -7.2645439410383368 4.0370525068246836 #
straight-curve $-1 35.296950355866571 9.3530338079550397 7.4460666114069198 0 -1 0 I I #
edge $-1 $762 -40.83742790002136 $756 -35.296950355866571 $754 $811 forward 7 unknown #
point $-1 35.296950355866571 21.971351288730929 7.4460666114069198 #
straight-curve $-1 40.83742790002136 21.971351288730936 0 0 0 -1 I I #
point $-1 40.83742790002136 21.971351288730936 7.4460666114069163 #
point $-1 37.1232085296473 16.746897412217571 4.0370525068246836 #
point $-1 37.1232085296473 18.706067615910079 4.0370525068246836 #
point $-1 37.1232085296473 20.665237819602588 4.0370525068246836 #
straight-curve $-1 -40.83742790002136 21.971351288730936 0 0 0 -1 I I #
straight-curve $-1 0 21.971351288730936 7.4460666114069163 -1 0 0 I I #
End-of-ACIS-data 