500 0 8 0           
7 Unknown 11 ACIS 5.0 NT 24 Fri Mar 26 19:19:27 1999 
-1 9.9999999999999995e-007 1e-010 
body $-1 $8 $-1 $9 #
body $-1 $10 $-1 $11 #
body $-1 $12 $-1 $13 #
body $-1 $14 $-1 $15 #
body $-1 $16 $-1 $17 #
body $-1 $18 $-1 $19 #
body $-1 $20 $-1 $21 #
body $-1 $22 $-1 $23 #
lump $-1 $-1 $24 $0 #
transform $-1 1 0 0 0 1 0 0 0 1 45.363933225501263 24.366829637605978 11.924851426823388 1 rotate no_reflect no_shear #
lump $-1 $-1 $25 $1 #
transform $-1 1 0 0 0 1 0 0 0 1 45.363933225501263 24.366829637605978 11.924851426823388 1 rotate no_reflect no_shear #
lump $-1 $-1 $26 $2 #
transform $-1 1 0 0 0 1 0 0 0 1 45.363933225501263 24.366829637605978 11.924851426823388 1 rotate no_reflect no_shear #
lump $-1 $-1 $27 $3 #
transform $-1 1 0 0 0 1 0 0 0 1 45.363933225501263 24.366829637605978 11.924851426823388 1 rotate no_reflect no_shear #
lump $-1 $-1 $28 $4 #
transform $-1 1 0 0 0 1 0 0 0 1 45.363933225501263 24.366829637605978 11.924851426823388 1 rotate no_reflect no_shear #
lump $-1 $-1 $29 $5 #
transform $-1 1 0 0 0 1 0 0 0 1 45.363933225501263 24.366829637605978 11.924851426823388 1 rotate no_reflect no_shear #
lump $-1 $-1 $30 $6 #
transform $-1 1 0 0 0 1 0 0 0 1 45.363933225501263 24.366829637605978 11.924851426823388 1 rotate no_reflect no_shear #
lump $-1 $-1 $31 $7 #
transform $-1 1 0 0 0 1 0 0 0 1 45.363933225501263 24.366829637605978 11.924851426823388 1 rotate no_reflect no_shear #
shell $-1 $-1 $-1 $32 $-1 $8 #
shell $-1 $-1 $-1 $33 $-1 $10 #
shell $-1 $-1 $-1 $34 $-1 $12 #
shell $-1 $-1 $-1 $35 $-1 $14 #
shell $-1 $-1 $-1 $36 $-1 $16 #
shell $-1 $-1 $-1 $37 $-1 $18 #
shell $-1 $-1 $-1 $38 $-1 $20 #
shell $-1 $-1 $-1 $39 $-1 $22 #
face $-1 $40 $41 $24 $-1 $42 forward single #
face $-1 $43 $44 $25 $-1 $45 reversed single #
face $-1 $46 $47 $26 $-1 $48 reversed single #
face $-1 $49 $50 $27 $-1 $51 forward single #
face $-1 $52 $53 $28 $-1 $54 forward single #
face $-1 $55 $56 $29 $-1 $57 forward single #
face $-1 $58 $59 $30 $-1 $60 reversed single #
face $-1 $61 $62 $31 $-1 $63 forward single #
face $-1 $64 $65 $24 $-1 $66 reversed single #
loop $-1 $-1 $67 $32 #
plane-surface $-1 0 0 11.924851426823388 0 0 1 1 0 0 forward_v I I I I #
face $-1 $68 $69 $25 $-1 $70 reversed single #
loop $-1 $-1 $71 $33 #
plane-surface $-1 0 -18.958645485276055 8.9248514268233876 0 0 1 1 0 0 forward_v I I I I #
face $-1 $72 $73 $26 $-1 $74 reversed single #
loop $-1 $-1 $75 $34 #
plane-surface $-1 63.221037811656608 1.3617042858194246 134.75906089736091 0 -1 0 -0.79863551827123203 0 -0.60181501223851219 forward_v I I I I #
face $-1 $76 $77 $27 $-1 $78 forward single #
loop $-1 $79 $80 $35 #
cone-surface $-1 43.219699566008238 -3.550894626398847 9.3959785085267242 -0.79863551827123203 0 -0.60181501223851219 0.3009075061192561 0 -0.39931775913561601 1 I I 0 1 0.5 forward I I I I #
face $-1 $81 $82 $28 $-1 $83 forward single #
loop $-1 $84 $85 $36 #
cone-surface $-1 43.219699566008238 -1.7086700343169952 9.3959785085267242 -0.79863551827123203 0 -0.60181501223851219 0.3009075061192561 0 -0.39931775913561601 1 I I 0 1 0.5 forward I I I I #
face $-1 $86 $87 $29 $-1 $88 forward single #
loop $-1 $89 $90 $37 #
cone-surface $-1 43.219699566008238 0.1335545577648567 9.3959785085267242 -0.79863551827123203 0 -0.60181501223851219 0.3009075061192561 0 -0.39931775913561601 1 I I 0 1 0.5 forward I I I I #
face $-1 $91 $92 $30 $-1 $93 reversed single #
loop $-1 $-1 $94 $38 #
plane-surface $-1 -96.0983129513221 14.264941817067122 83.521739829077092 0 1 0 -0.55919291073839883 0 0.82903756765294845 forward_v I I I I #
face $-1 $95 $96 $31 $-1 $97 forward single #
loop $-1 $98 $99 $39 #
cone-surface $-1 -42.20371830401448 19.315885727336546 9.4079494565207078 0.55919291073839883 0 -0.82903756765294845 1.2435563514794228 0 0.83878936610759824 1 I I 0 1 1.5 forward I I I I #
face $-1 $100 $101 $24 $-1 $102 reversed single #
loop $-1 $-1 $103 $40 #
plane-surface $-1 0 0 -11.924851426823388 0 0 1 1 0 0 forward_v I I I I #
coedge $-1 $104 $105 $106 $107 forward $41 $-1 #
face $-1 $108 $109 $25 $-1 $110 reversed single #
loop $-1 $-1 $111 $43 #
plane-surface $-1 0 -13.550461332946131 10.424851426823388 0 -1 0 0 0 -1 forward_v I I I I #
coedge $-1 $112 $113 $114 $115 reversed $44 $-1 #
face $-1 $116 $117 $26 $-1 $118 reversed single #
loop $-1 $-1 $119 $46 #
plane-surface $-1 -9.2374588330829184 -1.7086700343169952 80.157668838776715 0.79863551827123203 0 0.60181501223851219 0.60181501223851219 0 -0.79863551827123203 forward_v I I I I #
coedge $-1 $120 $121 $122 $123 reversed $47 $-1 #
face $-1 $-1 $124 $27 $-1 $125 forward single #
loop $-1 $126 $127 $49 #
cone-surface $-1 42.467945831830598 -3.550894626398847 8.8294914535635414 -0.79863551827123203 0 -0.60181501223851219 0.15045375305962805 0 -0.19965887956780801 1 I I -0.70710678118654746 0.70710678118654746 0.25 forward I I I I #
loop $-1 $-1 $128 $35 #
coedge $-1 $80 $80 $129 $130 reversed $50 $-1 #
face $-1 $-1 $131 $28 $-1 $132 forward single #
loop $-1 $133 $134 $52 #
cone-surface $-1 42.467945831830598 -1.7086700343169952 8.8294914535635414 -0.79863551827123203 0 -0.60181501223851219 0.15045375305962805 0 -0.19965887956780801 1 I I -0.70710678118654746 0.70710678118654746 0.25 forward I I I I #
loop $-1 $-1 $135 $36 #
coedge $-1 $85 $85 $136 $137 reversed $53 $-1 #
face $-1 $-1 $138 $29 $-1 $139 forward single #
loop $-1 $140 $141 $55 #
cone-surface $-1 42.467945831830598 0.1335545577648567 8.8294914535635414 -0.79863551827123203 0 -0.60181501223851219 0.15045375305962805 0 -0.19965887956780801 1 I I -0.70710678118654746 0.70710678118654746 0.25 forward I I I I #
loop $-1 $-1 $142 $37 #
coedge $-1 $90 $90 $143 $144 reversed $56 $-1 #
face $-1 $145 $146 $30 $-1 $147 forward single #
loop $-1 $-1 $148 $58 #
plane-surface $-1 -45.363933225501277 19.315885727336546 8.304930108196416 -0.55919291073839883 0 0.82903756765294845 0.82903756765294845 0 0.55919291073839883 forward_v I I I I #
coedge $-1 $149 $150 $151 $152 reversed $59 $-1 #
face $-1 $-1 $153 $31 $-1 $154 forward single #
loop $-1 $155 $156 $61 #
cone-surface $-1 -41.307485676773865 19.315885727336546 8.0792299697918004 0.55919291073839883 0 -0.82903756765294845 0.62177817573971139 0 0.41939468305379912 1 I I -0.70710678118654757 0.70710678118654757 0.75 forward I I I I #
loop $-1 $-1 $157 $39 #
coedge $-1 $99 $99 $158 $159 reversed $62 $-1 #
face $-1 $160 $161 $24 $-1 $162 reversed single #
loop $-1 $-1 $163 $64 #
plane-surface $-1 0 -24.366829637605978 0 0 1 0 0 0 1 forward_v I I I I #
coedge $-1 $164 $165 $166 $167 forward $65 $-1 #
coedge $-1 $168 $67 $169 $170 forward $41 $-1 #
coedge $-1 $67 $168 $171 $172 forward $41 $-1 #
coedge $-1 $173 $174 $67 $107 reversed $175 $-1 #
edge $-1 $176 -24.366829637605978 $177 24.366829637605978 $106 $178 forward 7 unknown #
face $-1 $179 $180 $25 $-1 $181 reversed single #
loop $-1 $-1 $182 $68 #
plane-surface $-1 -45.363933225501263 0 0 1 0 0 0 0 -1 forward_v I I I I #
coedge $-1 $183 $184 $185 $186 reversed $69 $-1 #
coedge $-1 $187 $71 $188 $189 reversed $44 $-1 #
coedge $-1 $71 $187 $183 $190 forward $44 $-1 #
coedge $-1 $185 $191 $71 $115 forward $192 $-1 #
edge $-1 $193 -14.887506894967951 $194 -4.0711385903081041 $114 $195 forward 7 unknown #
face $-1 $196 $197 $26 $-1 $198 reversed single #
loop $-1 $-1 $199 $72 #
plane-surface $-1 63.221037811656608 -4.7790443544534149 134.75906089736091 0 1 0 0.79863551827123203 0 0.60181501223851219 forward_v I I I I #
coedge $-1 $200 $201 $202 $203 reversed $73 $-1 #
coedge $-1 $121 $75 $204 $205 reversed $47 $-1 #
coedge $-1 $75 $120 $200 $206 reversed $47 $-1 #
coedge $-1 $202 $207 $75 $123 forward $208 $-1 #
edge $-1 $209 -13.753414319672959 $210 -10.569136709906584 $122 $211 forward 7 unknown #
loop $-1 $-1 $129 $76 #
plane-surface $-1 -9.2374588330829184 -1.7086700343169952 80.157668838776715 0.79863551827123203 0 0.60181501223851219 0.60181501223851219 0 -0.79863551827123203 forward_v I I I I #
loop $-1 $-1 $212 $49 #
coedge $-1 $127 $127 $128 $213 reversed $77 $-1 #
coedge $-1 $128 $128 $127 $213 forward $79 $-1 #
coedge $-1 $129 $129 $80 $130 forward $124 $-1 #
edge $-1 $214 0 $214 6.2831853071796004 $129 $215 forward 7 unknown #
loop $-1 $-1 $136 $81 #
plane-surface $-1 -9.2374588330829184 -1.7086700343169952 80.157668838776715 0.79863551827123203 0 0.60181501223851219 0.60181501223851219 0 -0.79863551827123203 forward_v I I I I #
loop $-1 $-1 $216 $52 #
coedge $-1 $134 $134 $135 $217 reversed $82 $-1 #
coedge $-1 $135 $135 $134 $217 forward $84 $-1 #
coedge $-1 $136 $136 $85 $137 forward $131 $-1 #
edge $-1 $218 0 $218 6.2831853071796004 $136 $219 forward 7 unknown #
loop $-1 $-1 $143 $86 #
plane-surface $-1 -9.2374588330829184 -1.7086700343169952 80.157668838776715 0.79863551827123203 0 0.60181501223851219 0.60181501223851219 0 -0.79863551827123203 forward_v I I I I #
loop $-1 $-1 $220 $55 #
coedge $-1 $141 $141 $142 $221 reversed $87 $-1 #
coedge $-1 $142 $142 $141 $221 forward $89 $-1 #
coedge $-1 $143 $143 $90 $144 forward $138 $-1 #
edge $-1 $222 0 $222 6.2831853071796004 $143 $223 forward 7 unknown #
face $-1 $224 $225 $30 $-1 $226 reversed single #
loop $-1 $-1 $151 $91 #
plane-surface $-1 0 0 11.924851426823388 0 0 1 1 0 0 forward_v I I I I #
coedge $-1 $227 $228 $229 $230 reversed $92 $-1 #
coedge $-1 $150 $94 $231 $232 reversed $59 $-1 #
coedge $-1 $94 $149 $227 $233 reversed $59 $-1 #
coedge $-1 $229 $234 $94 $152 forward $146 $-1 #
edge $-1 $235 2.6852232501597868 $236 8.0519772047597229 $151 $237 forward 7 unknown #
loop $-1 $-1 $158 $95 #
plane-surface $-1 -45.363933225501277 19.315885727336546 8.304930108196416 -0.55919291073839883 0 0.82903756765294845 0.82903756765294845 0 0.55919291073839883 forward_v I I I I #
loop $-1 $-1 $238 $61 #
coedge $-1 $156 $156 $157 $239 reversed $96 $-1 #
coedge $-1 $157 $157 $156 $239 forward $98 $-1 #
coedge $-1 $158 $158 $99 $159 forward $153 $-1 #
edge $-1 $240 0 $240 6.2831853071796004 $158 $241 forward 7 unknown #
face $-1 $242 $243 $24 $-1 $244 reversed single #
loop $-1 $-1 $245 $100 #
plane-surface $-1 -45.363933225501263 0 0 1 0 0 0 0 -1 forward_v I I I I #
coedge $-1 $246 $171 $247 $248 forward $101 $-1 #
coedge $-1 $249 $103 $246 $250 forward $65 $-1 #
coedge $-1 $103 $249 $251 $252 forward $65 $-1 #
coedge $-1 $174 $173 $103 $167 reversed $175 $-1 #
edge $-1 $253 -24.366829637605978 $254 24.366829637605978 $166 $255 forward 7 unknown #
coedge $-1 $105 $104 $256 $257 forward $41 $-1 #
coedge $-1 $258 $259 $104 $170 reversed $243 $-1 #
edge $-1 $177 -45.363933225501263 $260 45.363933225501263 $169 $261 forward 7 unknown #
coedge $-1 $163 $262 $105 $172 reversed $101 $-1 #
edge $-1 $263 -45.363933225501263 $176 45.363933225501263 $171 $264 forward 7 unknown #
coedge $-1 $166 $106 $262 $265 forward $175 $-1 #
coedge $-1 $106 $166 $258 $266 reversed $175 $-1 #
loop $-1 $-1 $173 $242 #
vertex $-1 $107 $267 #
vertex $-1 $107 $268 #
straight-curve $-1 45.363933225501263 0 11.924851426823388 0 1 0 I I #
face $-1 $269 $270 $25 $-1 $271 forward single #
loop $-1 $-1 $188 $108 #
plane-surface $-1 0 -24.366829637605978 0 0 1 0 0 0 1 forward_v I I I I #
coedge $-1 $272 $273 $274 $275 forward $109 $-1 #
coedge $-1 $274 $111 $113 $190 reversed $69 $-1 #
coedge $-1 $111 $274 $276 $277 reversed $69 $-1 #
coedge $-1 $278 $114 $111 $186 forward $192 $-1 #
edge $-1 $194 3.7124257134116938 $279 6.7124257134116938 $185 $280 forward 7 unknown #
coedge $-1 $113 $112 $272 $281 reversed $44 $-1 #
coedge $-1 $282 $283 $112 $189 forward $180 $-1 #
edge $-1 $284 -45.363933225501263 $193 45.363933225501263 $188 $285 forward 7 unknown #
edge $-1 $286 -45.363933225501263 $194 45.363933225501263 $183 $287 forward 7 unknown #
coedge $-1 $114 $278 $282 $288 forward $192 $-1 #
loop $-1 $-1 $185 $269 #
vertex $-1 $189 $289 #
vertex $-1 $115 $290 #
straight-curve $-1 45.363933225501263 -9.4793227426380273 8.9248514268233876 0 1 0 I I #
face $-1 $-1 $208 $26 $-1 $291 forward single #
loop $-1 $-1 $292 $116 #
plane-surface $-1 45.363933225501263 0 0 -1 0 0 0 0 1 forward_v I I I I #
coedge $-1 $293 $294 $295 $296 reversed $117 $-1 #
coedge $-1 $297 $119 $121 $206 forward $73 $-1 #
coedge $-1 $119 $297 $293 $298 forward $73 $-1 #
coedge $-1 $295 $122 $119 $203 forward $208 $-1 #
edge $-1 $210 -2.2160393029779222 $299 3.9247093372949173 $202 $300 forward 7 unknown #
coedge $-1 $301 $302 $120 $205 forward $197 $-1 #
edge $-1 $303 -59.680358254643266 $209 -55.454679021857068 $204 $304 forward 7 unknown #
edge $-1 $210 85.436742858185966 $303 90.727866451002527 $121 $305 forward 7 unknown #
coedge $-1 $122 $295 $301 $306 forward $208 $-1 #
loop $-1 $-1 $295 $196 #
vertex $-1 $205 $307 #
vertex $-1 $123 $308 #
straight-curve $-1 31.610518905828304 1.3617042858194246 11.924851426823388 -1 0 0 I I #
coedge $-1 $212 $212 $-1 $309 reversed $126 $-1 #
edge $-1 $310 0 $310 6.2831853071796004 $127 $311 forward 7 unknown #
vertex $-1 $130 $312 #
ellipse-curve $-1 43.771794420618079 -3.550894626398847 9.8120118104302829 0.79863551827123203 0 0.60181501223851219 0.3009075061192561 0 -0.39931775913561601 1 I I #
coedge $-1 $216 $216 $-1 $313 reversed $133 $-1 #
edge $-1 $314 0 $314 6.2831853071796004 $134 $315 forward 7 unknown #
vertex $-1 $137 $316 #
ellipse-curve $-1 43.771794420618079 -1.7086700343169952 9.8120118104302829 0.79863551827123203 0 0.60181501223851219 0.3009075061192561 0 -0.39931775913561601 1 I I #
coedge $-1 $220 $220 $-1 $317 reversed $140 $-1 #
edge $-1 $318 0 $318 6.2831853071796004 $141 $319 forward 7 unknown #
vertex $-1 $144 $320 #
ellipse-curve $-1 43.771794420618079 0.1335545577648567 9.8120118104302829 0.79863551827123203 0 0.60181501223851219 0.3009075061192561 0 -0.39931775913561601 1 I I #
face $-1 $-1 $321 $30 $-1 $322 reversed single #
loop $-1 $-1 $323 $145 #
plane-surface $-1 0 24.366829637605978 0 0 -1 0 0 0 -1 forward_v I I I I #
coedge $-1 $324 $148 $150 $233 forward $92 $-1 #
coedge $-1 $148 $324 $323 $325 reversed $92 $-1 #
coedge $-1 $326 $151 $148 $230 forward $146 $-1 #
edge $-1 $236 4.6069989533988487 $327 14.708886773937698 $229 $328 forward 7 unknown #
coedge $-1 $329 $330 $149 $232 forward $321 $-1 #
edge $-1 $331 -33.455939806342123 $235 -29.836018487715158 $231 $332 forward 7 unknown #
edge $-1 $236 -6.4734749835203838 $331 -1.6747963185031944e-014 $150 $333 forward 7 unknown #
coedge $-1 $151 $326 $329 $334 forward $146 $-1 #
vertex $-1 $232 $335 #
vertex $-1 $152 $336 #
straight-curve $-1 -48.04915647566105 14.264941817067122 11.924851426823388 1 0 0 I I #
coedge $-1 $238 $238 $-1 $337 reversed $155 $-1 #
edge $-1 $338 0 $338 6.2831853071796004 $156 $339 forward 7 unknown #
vertex $-1 $159 $340 #
ellipse-curve $-1 -42.680556248201292 19.315885727336546 10.114890767509907 -0.55919291073839883 0 0.82903756765294845 1.2435563514794228 0 0.83878936610759824 1 I I #
face $-1 $-1 $175 $24 $-1 $341 reversed single #
loop $-1 $-1 $258 $160 #
plane-surface $-1 0 24.366829637605978 0 0 -1 0 0 0 -1 forward_v I I I I #
coedge $-1 $342 $256 $259 $343 forward $161 $-1 #
coedge $-1 $262 $163 $164 $250 reversed $101 $-1 #
coedge $-1 $256 $342 $163 $248 reversed $161 $-1 #
edge $-1 $263 -11.924851426823388 $344 11.924851426823388 $247 $345 forward 7 unknown #
coedge $-1 $165 $164 $342 $346 forward $65 $-1 #
edge $-1 $254 -45.363933225501263 $344 45.363933225501263 $246 $347 forward 7 unknown #
coedge $-1 $259 $258 $165 $252 reversed $243 $-1 #
edge $-1 $348 -45.363933225501263 $253 45.363933225501263 $251 $349 forward 7 unknown #
vertex $-1 $167 $350 #
vertex $-1 $265 $351 #
straight-curve $-1 45.363933225501263 0 -11.924851426823388 0 -1 0 I I #
coedge $-1 $245 $247 $168 $257 reversed $161 $-1 #
edge $-1 $260 -24.366829637605978 $263 24.366829637605978 $256 $352 forward 7 unknown #
coedge $-1 $251 $169 $174 $266 forward $243 $-1 #
coedge $-1 $169 $251 $245 $343 reversed $243 $-1 #
vertex $-1 $170 $353 #
straight-curve $-1 0 24.366829637605978 11.924851426823388 -1 0 0 I I #
coedge $-1 $171 $246 $173 $265 reversed $101 $-1 #
vertex $-1 $257 $354 #
straight-curve $-1 0 -24.366829637605978 11.924851426823388 1 0 0 I I #
edge $-1 $176 -11.924851426823388 $254 11.924851426823388 $173 $355 forward 7 unknown #
edge $-1 $177 -11.924851426823388 $253 11.924851426823388 $174 $356 forward 7 unknown #
point $-1 45.363933225501263 -24.366829637605978 11.924851426823388 #
point $-1 45.363933225501263 24.366829637605978 11.924851426823388 #
face $-1 $-1 $192 $25 $-1 $357 reversed single #
loop $-1 $-1 $276 $179 #
plane-surface $-1 0 0 11.924851426823388 0 0 1 1 0 0 forward_v I I I I #
coedge $-1 $358 $182 $187 $281 forward $109 $-1 #
coedge $-1 $182 $358 $359 $360 reversed $109 $-1 #
coedge $-1 $184 $183 $182 $275 reversed $69 $-1 #
edge $-1 $361 -6.7124257134116938 $286 -3.7124257134116938 $182 $362 forward 7 unknown #
coedge $-1 $359 $363 $184 $277 forward $270 $-1 #
edge $-1 $279 -45.363933225501263 $361 45.363933225501263 $276 $364 forward 7 unknown #
coedge $-1 $191 $185 $363 $365 reversed $192 $-1 #
vertex $-1 $186 $366 #
straight-curve $-1 45.363933225501263 -13.550461332946131 5.2124257134116938 0 0 1 I I #
edge $-1 $286 4.0711385903081041 $284 14.887506894967951 $272 $367 forward 7 unknown #
coedge $-1 $368 $188 $191 $288 reversed $180 $-1 #
coedge $-1 $188 $368 $358 $369 forward $180 $-1 #
vertex $-1 $189 $370 #
straight-curve $-1 0 -24.366829637605978 8.9248514268233876 1 0 0 I I #
vertex $-1 $281 $371 #
straight-curve $-1 0 -13.550461332946131 8.9248514268233876 1 0 0 I I #
edge $-1 $372 -11.924851426823388 $193 -8.9248514268233876 $191 $373 forward 7 unknown #
point $-1 45.363933225501263 -24.366829637605978 8.9248514268233876 #
point $-1 45.363933225501263 -13.550461332946131 8.9248514268233876 #
plane-surface $-1 0 0 11.924851426823388 0 0 1 1 0 0 forward_v I I I I #
coedge $-1 $302 $301 $294 $374 forward $197 $-1 #
coedge $-1 $294 $199 $201 $298 reversed $117 $-1 #
coedge $-1 $199 $293 $292 $374 reversed $117 $-1 #
coedge $-1 $207 $202 $199 $296 forward $208 $-1 #
edge $-1 $299 10.569136709906584 $375 13.753414319672959 $295 $376 forward 7 unknown #
coedge $-1 $201 $200 $302 $377 reversed $73 $-1 #
edge $-1 $378 -90.727866451002527 $299 -85.436742858185966 $293 $379 forward 7 unknown #
vertex $-1 $203 $380 #
straight-curve $-1 42.17965561573488 -0.85433501715849758 11.924851426823395 0 -1 0 I I #
coedge $-1 $292 $204 $207 $306 reversed $197 $-1 #
coedge $-1 $204 $292 $297 $377 forward $197 $-1 #
vertex $-1 $205 $381 #
straight-curve $-1 45.363933225501263 1.3617042858194246 67.379530448680455 0 0 1 I I #
straight-curve $-1 -9.2374588330829184 1.3617042858194246 80.157668838776715 0.60181501223851219 0 -0.79863551827123203 I I #
edge $-1 $375 -4.7790443544534149 $209 1.3617042858194246 $301 $382 forward 7 unknown #
point $-1 45.363933225501263 1.3617042858194246 11.924851426823388 #
point $-1 42.179655615734887 1.3617042858194246 11.924851426823381 #
edge $-1 $383 1 $383 0 $212 $-1 forward 7 unknown #
vertex $-1 $213 $384 #
ellipse-curve $-1 42.667604711398404 -3.550894626398847 8.9799452066231691 0.79863551827123203 0 0.60181501223851219 0.3009075061192561 0 -0.39931775913561601 1 I I #
point $-1 44.072701926737331 -3.550894626398847 9.4126940512946611 #
edge $-1 $385 1 $385 0 $216 $-1 forward 7 unknown #
vertex $-1 $217 $386 #
ellipse-curve $-1 42.667604711398404 -1.7086700343169952 8.9799452066231691 0.79863551827123203 0 0.60181501223851219 0.3009075061192561 0 -0.39931775913561601 1 I I #
point $-1 44.072701926737331 -1.7086700343169952 9.4126940512946611 #
edge $-1 $387 1 $387 0 $220 $-1 forward 7 unknown #
vertex $-1 $221 $388 #
ellipse-curve $-1 42.667604711398404 0.1335545577648567 8.9799452066231691 0.79863551827123203 0 0.60181501223851219 0.3009075061192561 0 -0.39931775913561601 1 I I #
point $-1 44.072701926737331 0.1335545577648567 9.4126940512946611 #
loop $-1 $-1 $231 $224 #
plane-surface $-1 -45.363933225501263 0 0 1 0 0 0 0 -1 forward_v I I I I #
coedge $-1 $389 $390 $228 $325 forward $225 $-1 #
coedge $-1 $228 $227 $330 $391 reversed $92 $-1 #
edge $-1 $327 10.008698426359132 $392 16.482173409879501 $323 $393 forward 7 unknown #
coedge $-1 $234 $229 $390 $394 forward $146 $-1 #
vertex $-1 $394 $395 #
straight-curve $-1 -39.997179270901327 9.6579428636682731 11.924851426823388 0 1 0 I I #
coedge $-1 $396 $231 $234 $334 reversed $321 $-1 #
coedge $-1 $231 $396 $324 $391 forward $321 $-1 #
vertex $-1 $232 $397 #
straight-curve $-1 -45.363933225501263 14.264941817067122 41.760869914538546 0 0 1 I I #
straight-curve $-1 -45.363933225501277 14.264941817067122 8.304930108196416 -0.82903756765294845 0 -0.55919291073839883 I I #
edge $-1 $398 -24.366829637605978 $235 -14.264941817067122 $329 $399 forward 7 unknown #
point $-1 -45.363933225501263 14.264941817067122 11.924851426823388 #
point $-1 -39.997179270901327 14.264941817067122 11.924851426823388 #
edge $-1 $400 1 $400 0 $238 $-1 forward 7 unknown #
vertex $-1 $239 $401 #
ellipse-curve $-1 -41.726880359827668 19.315885727336546 8.701008145531512 -0.55919291073839883 0 0.82903756765294845 1.2435563514794228 0 0.83878936610759824 1 I I #
point $-1 -41.436999896721865 19.315885727336546 10.9536801336175 #
plane-surface $-1 45.363933225501263 0 0 -1 0 0 0 0 1 forward_v I I I I #
coedge $-1 $247 $245 $249 $346 reversed $161 $-1 #
edge $-1 $260 -11.924851426823388 $348 11.924851426823388 $259 $402 forward 7 unknown #
vertex $-1 $346 $403 #
straight-curve $-1 -45.363933225501263 -24.366829637605978 0 0 0 -1 I I #
edge $-1 $344 -24.366829637605978 $348 24.366829637605978 $342 $404 forward 7 unknown #
straight-curve $-1 0 -24.366829637605978 -11.924851426823388 -1 0 0 I I #
vertex $-1 $252 $405 #
straight-curve $-1 0 24.366829637605978 -11.924851426823388 1 0 0 I I #
point $-1 45.363933225501263 24.366829637605978 -11.924851426823388 #
point $-1 45.363933225501263 -24.366829637605978 -11.924851426823388 #
straight-curve $-1 -45.363933225501263 0 11.924851426823388 0 -1 0 I I #
point $-1 -45.363933225501263 24.366829637605978 11.924851426823388 #
point $-1 -45.363933225501263 -24.366829637605978 11.924851426823388 #
straight-curve $-1 45.363933225501263 -24.366829637605978 0 0 0 -1 I I #
straight-curve $-1 45.363933225501263 24.366829637605978 0 0 0 -1 I I #
plane-surface $-1 45.363933225501263 0 0 -1 0 0 0 0 1 forward_v I I I I #
coedge $-1 $273 $272 $283 $369 reversed $109 $-1 #
coedge $-1 $406 $276 $273 $360 forward $270 $-1 #
edge $-1 $361 13.550461332946131 $407 24.366829637605978 $273 $408 forward 7 unknown #
vertex $-1 $360 $409 #
straight-curve $-1 -45.363933225501263 -13.550461332946131 5.2124257134116938 0 0 -1 I I #
coedge $-1 $276 $406 $278 $365 forward $270 $-1 #
straight-curve $-1 0 -13.550461332946131 11.924851426823388 -1 0 0 I I #
edge $-1 $372 -24.366829637605978 $279 -13.550461332946131 $278 $410 forward 7 unknown #
point $-1 45.363933225501263 -13.550461332946131 11.924851426823388 #
straight-curve $-1 -45.363933225501263 -9.4793227426380273 8.9248514268233876 0 -1 0 I I #
coedge $-1 $283 $282 $406 $411 reversed $180 $-1 #
edge $-1 $407 -11.924851426823388 $284 -8.9248514268233876 $358 $412 forward 7 unknown #
point $-1 -45.363933225501263 -24.366829637605978 8.9248514268233876 #
point $-1 -45.363933225501263 -13.550461332946131 8.9248514268233876 #
vertex $-1 $365 $413 #
straight-curve $-1 45.363933225501263 -24.366829637605978 0 0 0 -1 I I #
edge $-1 $375 55.454679021857068 $378 59.680358254643266 $292 $414 forward 7 unknown #
vertex $-1 $306 $415 #
straight-curve $-1 31.610518905828304 -4.7790443544534149 11.924851426823388 1 0 0 I I #
edge $-1 $378 -3.9247093372949173 $303 2.2160393029779222 $302 $416 forward 7 unknown #
vertex $-1 $377 $417 #
straight-curve $-1 -9.2374588330829184 -4.7790443544534149 80.157668838776715 -0.60181501223851219 0 0.79863551827123203 I I #
point $-1 42.179655615734887 -4.7790443544534149 11.924851426823381 #
point $-1 45.36393322550127 1.3617042858194246 7.6991721940371889 #
straight-curve $-1 45.363933225501263 0 11.924851426823388 0 1 0 I I #
vertex $-1 $309 $418 #
point $-1 42.968512217517663 -3.550894626398847 8.5806274474875526 #
vertex $-1 $313 $419 #
point $-1 42.968512217517663 -1.7086700343169952 8.5806274474875526 #
vertex $-1 $317 $420 #
point $-1 42.968512217517663 0.1335545577648567 8.5806274474875526 #
coedge $-1 $390 $323 $396 $421 reversed $225 $-1 #
coedge $-1 $323 $389 $326 $394 reversed $225 $-1 #
edge $-1 $392 -14.708886773937698 $331 -4.6069989533988487 $330 $422 forward 7 unknown #
vertex $-1 $325 $423 #
straight-curve $-1 -31.699592272140659 24.366829637605978 17.521644632561983 -0.82903756765294845 0 -0.55919291073839883 I I #
edge $-1 $327 39.997179270901327 $398 45.363933225501263 $390 $424 forward 7 unknown #
point $-1 -39.997179270901327 24.366829637605971 11.924851426823388 #
coedge $-1 $330 $329 $389 $421 forward $321 $-1 #
point $-1 -45.363933225501263 14.264941817067122 8.3049301081964249 #
vertex $-1 $394 $425 #
straight-curve $-1 -45.363933225501263 0 11.924851426823388 0 -1 0 I I #
vertex $-1 $337 $426 #
point $-1 -40.483324008348241 19.315885727336546 9.5397975116391098 #
straight-curve $-1 -45.363933225501263 24.366829637605978 0 0 0 -1 I I #
point $-1 -45.363933225501263 -24.366829637605978 -11.924851426823388 #
straight-curve $-1 -45.363933225501263 0 -11.924851426823388 0 1 0 I I #
point $-1 -45.363933225501263 24.366829637605978 -11.924851426823388 #
coedge $-1 $363 $359 $368 $411 forward $270 $-1 #
vertex $-1 $360 $427 #
straight-curve $-1 -45.363933225501263 0 11.924851426823388 0 -1 0 I I #
point $-1 -45.363933225501263 -13.550461332946131 11.924851426823388 #
straight-curve $-1 45.363933225501263 0 11.924851426823388 0 1 0 I I #
edge $-1 $407 -45.363933225501263 $372 45.363933225501263 $368 $428 forward 7 unknown #
straight-curve $-1 -45.363933225501263 -24.366829637605978 0 0 0 -1 I I #
point $-1 45.363933225501263 -24.366829637605978 11.924851426823388 #
straight-curve $-1 45.363933225501263 -4.7790443544534149 67.379530448680455 0 0 -1 I I #
point $-1 45.363933225501263 -4.7790443544534149 11.924851426823388 #
straight-curve $-1 45.363933225501263 -0.85433501715849758 7.699172194037196 0 1 0 I I #
point $-1 45.36393322550127 -4.7790443544534149 7.6991721940371889 #
point $-1 42.268286952262791 -3.550894626398847 8.6790377005039137 #
point $-1 42.268286952262791 -1.7086700343169952 8.6790377005039137 #
point $-1 42.268286952262791 0.1335545577648567 8.6790377005039137 #
edge $-1 $398 -11.924851426823388 $392 -8.3049301081964249 $389 $429 forward 7 unknown #
straight-curve $-1 -45.363933225501263 9.6579428636682731 8.3049301081964266 0 -1 0 I I #
point $-1 -45.363933225501263 24.366829637605971 8.3049301081964249 #
straight-curve $-1 0 24.366829637605978 11.924851426823388 -1 0 0 I I #
point $-1 -45.363933225501263 24.366829637605978 11.924851426823388 #
point $-1 -40.888090993720063 19.315885727336546 7.4574517940520888 #
point $-1 -45.363933225501263 -24.366829637605978 11.924851426823388 #
straight-curve $-1 0 -24.366829637605978 11.924851426823388 1 0 0 I I #
straight-curve $-1 -45.363933225501263 24.366829637605978 0 0 0 -1 I I #
End-of-ACIS-data 