500 0 7 0           
7 Unknown 11 ACIS 5.0 NT 24 Fri Mar 26 03:16:09 1999 
-1 9.9999999999999995e-007 1e-010 
body $-1 $7 $-1 $8 #
body $-1 $9 $-1 $10 #
body $-1 $11 $-1 $12 #
body $-1 $13 $-1 $14 #
body $-1 $15 $-1 $16 #
body $-1 $17 $-1 $18 #
body $-1 $19 $-1 $20 #
lump $-1 $-1 $21 $0 #
transform $-1 1 0 0 0 1 0 0 0 1 50.630207220679338 27.005970511843909 10.609117533482111 1 rotate no_reflect no_shear #
lump $-1 $-1 $22 $1 #
transform $-1 1 0 0 0 1 0 0 0 1 50.630207220679338 27.005970511843909 10.609117533482111 1 rotate no_reflect no_shear #
lump $-1 $-1 $23 $2 #
transform $-1 1 0 0 0 1 0 0 0 1 50.630207220679338 27.005970511843909 10.609117533482111 1 rotate no_reflect no_shear #
lump $-1 $-1 $24 $3 #
transform $-1 1 0 0 0 1 0 0 0 1 50.630207220679338 27.005970511843909 10.609117533482111 1 rotate no_reflect no_shear #
lump $-1 $-1 $25 $4 #
transform $-1 1 0 0 0 1 0 0 0 1 50.630207220679338 27.005970511843909 10.609117533482111 1 rotate no_reflect no_shear #
lump $-1 $-1 $26 $5 #
transform $-1 1 0 0 0 1 0 0 0 1 50.630207220679338 27.005970511843909 10.609117533482111 1 rotate no_reflect no_shear #
lump $-1 $-1 $27 $6 #
transform $-1 1 0 0 0 1 0 0 0 1 50.630207220679338 27.005970511843909 10.609117533482111 1 rotate no_reflect no_shear #
shell $-1 $-1 $-1 $28 $-1 $7 #
shell $-1 $-1 $-1 $29 $-1 $9 #
shell $-1 $-1 $-1 $30 $-1 $11 #
shell $-1 $-1 $-1 $31 $-1 $13 #
shell $-1 $-1 $-1 $32 $-1 $15 #
shell $-1 $-1 $-1 $33 $-1 $17 #
shell $-1 $-1 $-1 $34 $-1 $19 #
face $-1 $35 $36 $21 $-1 $37 reversed single #
face $-1 $38 $39 $22 $-1 $40 forward single #
face $-1 $41 $42 $23 $-1 $43 forward single #
face $-1 $44 $45 $24 $-1 $46 reversed single #
face $-1 $47 $48 $25 $-1 $49 forward single #
face $-1 $50 $51 $26 $-1 $52 forward single #
face $-1 $53 $54 $27 $-1 $55 forward single #
face $-1 $56 $57 $21 $-1 $58 reversed single #
loop $-1 $-1 $59 $28 #
plane-surface $-1 0 27.005970511843909 0 0 -1 0 0 0 -1 forward_v I I I I #
face $-1 $60 $61 $22 $-1 $62 reversed single #
loop $-1 $-1 $63 $29 #
plane-surface $-1 0 -27.005970511843909 0 0 1 0 0 0 1 forward_v I I I I #
face $-1 $64 $65 $23 $-1 $66 reversed single #
loop $-1 $-1 $67 $30 #
plane-surface $-1 0 27.005970511843909 0 0 -1 0 0 0 -1 forward_v I I I I #
face $-1 $68 $69 $24 $-1 $70 reversed single #
loop $-1 $-1 $71 $31 #
plane-surface $-1 85.274356530625582 3.2822818416060446 142.41873859706698 0 -1 0 -0.85716730853699208 0 -0.51503806187062418 forward_v I I I I #
face $-1 $72 $73 $25 $-1 $74 forward single #
loop $-1 $75 $76 $32 #
cone-surface $-1 48.056411998213541 -3.0839443014609529 6.7813667812725669 -0.85716730853699208 0 -0.51503806187062418 0.25751903093531209 0 -0.42858365426849604 1 I I 0 1 0.5 forward I I I I #
face $-1 $77 $78 $26 $-1 $79 forward single #
loop $-1 $80 $81 $33 #
cone-surface $-1 48.056411998213541 -0.69660949781082948 6.7813667812725669 -0.85716730853699208 0 -0.51503806187062418 0.25751903093531209 0 -0.42858365426849604 1 I I 0 1 0.5 forward I I I I #
face $-1 $82 $83 $27 $-1 $84 forward single #
loop $-1 $85 $86 $34 #
cone-surface $-1 48.056411998213541 1.6907253058392939 6.7813667812725669 -0.85716730853699208 0 -0.51503806187062418 0.25751903093531209 0 -0.42858365426849604 1 I I 0 1 0.5 forward I I I I #
face $-1 $87 $88 $21 $-1 $89 forward single #
loop $-1 $-1 $90 $35 #
plane-surface $-1 0 -27.005970511843909 0 0 1 0 0 0 1 forward_v I I I I #
coedge $-1 $91 $92 $93 $94 reversed $36 $-1 #
face $-1 $95 $96 $22 $-1 $97 reversed single #
loop $-1 $-1 $98 $38 #
plane-surface $-1 0 0 -10.609117533482111 0 0 1 1 0 0 forward_v I I I I #
coedge $-1 $99 $100 $101 $102 forward $39 $-1 #
face $-1 $103 $104 $23 $-1 $105 reversed single #
loop $-1 $-1 $106 $41 #
plane-surface $-1 0 0 -10.609117533482111 0 0 1 1 0 0 forward_v I I I I #
coedge $-1 $107 $108 $109 $110 forward $42 $-1 #
face $-1 $111 $112 $24 $-1 $113 reversed single #
loop $-1 $-1 $114 $44 #
plane-surface $-1 -1.5227603774142011 -0.69660949781082948 90.265770998973437 0.85716730853699208 0 0.51503806187062418 0.51503806187062418 0 -0.85716730853699208 forward_v I I I I #
coedge $-1 $115 $116 $117 $118 reversed $45 $-1 #
face $-1 $-1 $119 $25 $-1 $120 forward single #
loop $-1 $121 $122 $47 #
cone-surface $-1 47.413536516810794 -3.0839443014609529 6.3950882348695988 -0.85716730853699208 0 -0.51503806187062418 0.12875951546765604 0 -0.21429182713424802 1 I I -0.70710678118654746 0.70710678118654746 0.25 forward I I I I #
loop $-1 $-1 $123 $32 #
coedge $-1 $76 $76 $124 $125 reversed $48 $-1 #
face $-1 $-1 $126 $26 $-1 $127 forward single #
loop $-1 $128 $129 $50 #
cone-surface $-1 47.413536516810794 -0.69660949781082948 6.3950882348695988 -0.85716730853699208 0 -0.51503806187062418 0.12875951546765604 0 -0.21429182713424802 1 I I -0.70710678118654746 0.70710678118654746 0.25 forward I I I I #
loop $-1 $-1 $130 $33 #
coedge $-1 $81 $81 $131 $132 reversed $51 $-1 #
face $-1 $-1 $133 $27 $-1 $134 forward single #
loop $-1 $135 $136 $53 #
cone-surface $-1 47.413536516810794 1.6907253058392939 6.3950882348695988 -0.85716730853699208 0 -0.51503806187062418 0.12875951546765604 0 -0.21429182713424802 1 I I -0.70710678118654746 0.70710678118654746 0.25 forward I I I I #
loop $-1 $-1 $137 $34 #
coedge $-1 $86 $86 $138 $139 reversed $54 $-1 #
face $-1 $140 $141 $21 $-1 $142 reversed single #
loop $-1 $-1 $143 $56 #
plane-surface $-1 0 0 10.609117533482111 0 0 1 1 0 0 forward_v I I I I #
coedge $-1 $144 $145 $146 $147 reversed $57 $-1 #
coedge $-1 $148 $59 $149 $150 reversed $36 $-1 #
coedge $-1 $59 $148 $151 $152 forward $36 $-1 #
coedge $-1 $153 $154 $59 $94 forward $141 $-1 #
edge $-1 $155 -50.630207220679338 $156 50.630207220679338 $59 $157 forward 7 unknown #
face $-1 $158 $159 $22 $-1 $160 reversed single #
loop $-1 $-1 $161 $60 #
plane-surface $-1 -30.911972153715116 -37.240707644191787 0 0 1 0 0 0 1 forward_v I I I I #
coedge $-1 $162 $163 $100 $164 forward $61 $-1 #
coedge $-1 $165 $63 $166 $167 reversed $39 $-1 #
coedge $-1 $63 $165 $98 $164 reversed $39 $-1 #
coedge $-1 $168 $169 $63 $102 reversed $159 $-1 #
edge $-1 $170 -10.609117533482111 $171 10.609117533482111 $101 $172 forward 7 unknown #
face $-1 $173 $174 $23 $-1 $175 reversed single #
loop $-1 $-1 $176 $64 #
plane-surface $-1 -32.411972153715112 32.12333907801785 0 1 0 0 0 0 -1 forward_v I I I I #
coedge $-1 $177 $178 $108 $179 forward $65 $-1 #
coedge $-1 $180 $67 $181 $182 reversed $42 $-1 #
coedge $-1 $67 $180 $106 $179 reversed $42 $-1 #
coedge $-1 $183 $184 $67 $110 reversed $185 $-1 #
edge $-1 $186 -10.609117533482111 $187 10.609117533482111 $109 $188 forward 7 unknown #
face $-1 $189 $190 $24 $-1 $191 forward single #
loop $-1 $-1 $192 $68 #
plane-surface $-1 85.274356530625582 -4.6755008372277036 142.41873859706698 0 1 0 0.85716730853699208 0 0.51503806187062418 forward_v I I I I #
coedge $-1 $193 $194 $195 $196 reversed $69 $-1 #
coedge $-1 $116 $71 $197 $198 reversed $45 $-1 #
coedge $-1 $71 $115 $193 $199 reversed $45 $-1 #
coedge $-1 $195 $200 $71 $118 forward $190 $-1 #
edge $-1 $201 -7.9930289553665475 $202 -3.7026058189719464 $117 $203 forward 7 unknown #
loop $-1 $-1 $124 $72 #
plane-surface $-1 -1.5227603774142011 -0.69660949781082948 90.265770998973437 0.85716730853699208 0 0.51503806187062418 0.51503806187062418 0 -0.85716730853699208 forward_v I I I I #
loop $-1 $-1 $204 $47 #
coedge $-1 $122 $122 $123 $205 reversed $73 $-1 #
coedge $-1 $123 $123 $122 $205 forward $75 $-1 #
coedge $-1 $124 $124 $76 $125 forward $119 $-1 #
edge $-1 $206 0 $206 6.2831853071796004 $124 $207 forward 7 unknown #
loop $-1 $-1 $131 $77 #
plane-surface $-1 -1.5227603774142011 -0.69660949781082948 90.265770998973437 0.85716730853699208 0 0.51503806187062418 0.51503806187062418 0 -0.85716730853699208 forward_v I I I I #
loop $-1 $-1 $208 $50 #
coedge $-1 $129 $129 $130 $209 reversed $78 $-1 #
coedge $-1 $130 $130 $129 $209 forward $80 $-1 #
coedge $-1 $131 $131 $81 $132 forward $126 $-1 #
edge $-1 $210 0 $210 6.2831853071796004 $131 $211 forward 7 unknown #
loop $-1 $-1 $138 $82 #
plane-surface $-1 -1.5227603774142011 -0.69660949781082948 90.265770998973437 0.85716730853699208 0 0.51503806187062418 0.51503806187062418 0 -0.85716730853699208 forward_v I I I I #
loop $-1 $-1 $212 $53 #
coedge $-1 $136 $136 $137 $213 reversed $83 $-1 #
coedge $-1 $137 $137 $136 $213 forward $85 $-1 #
coedge $-1 $138 $138 $86 $139 forward $133 $-1 #
edge $-1 $214 0 $214 6.2831853071796004 $138 $215 forward 7 unknown #
face $-1 $216 $217 $21 $-1 $218 reversed single #
loop $-1 $-1 $153 $87 #
plane-surface $-1 0 0 -10.609117533482111 0 0 1 1 0 0 forward_v I I I I #
coedge $-1 $219 $220 $221 $222 forward $88 $-1 #
coedge $-1 $223 $90 $224 $225 reversed $57 $-1 #
coedge $-1 $90 $223 $226 $227 forward $57 $-1 #
coedge $-1 $154 $153 $90 $147 forward $141 $-1 #
edge $-1 $228 -50.630207220679338 $229 50.630207220679338 $90 $230 forward 7 unknown #
coedge $-1 $92 $91 $219 $231 reversed $36 $-1 #
coedge $-1 $232 $233 $91 $150 forward $217 $-1 #
edge $-1 $234 -10.609117533482111 $155 10.609117533482111 $91 $235 forward 7 unknown #
coedge $-1 $221 $236 $92 $152 reversed $237 $-1 #
edge $-1 $238 -10.609117533482111 $156 10.609117533482111 $151 $239 forward 7 unknown #
coedge $-1 $146 $93 $236 $240 forward $141 $-1 #
coedge $-1 $93 $146 $232 $241 forward $141 $-1 #
vertex $-1 $94 $242 #
vertex $-1 $240 $243 #
straight-curve $-1 0 27.005970511843909 -10.609117533482111 1 0 0 I I #
face $-1 $244 $245 $22 $-1 $246 reversed single #
loop $-1 $-1 $101 $95 #
plane-surface $-1 -32.411972153715112 -32.12333907801785 0 1 0 0 0 0 -1 forward_v I I I I #
coedge $-1 $247 $248 $249 $250 forward $96 $-1 #
coedge $-1 $251 $98 $252 $253 forward $61 $-1 #
coedge $-1 $98 $251 $168 $254 forward $61 $-1 #
edge $-1 $170 -32.411972153715112 $255 -29.411972153715116 $98 $256 forward 7 unknown #
coedge $-1 $100 $99 $257 $258 forward $39 $-1 #
coedge $-1 $259 $260 $99 $167 forward $261 $-1 #
edge $-1 $262 29.411972153715116 $171 32.411972153715112 $166 $263 forward 7 unknown #
coedge $-1 $249 $101 $163 $254 reversed $159 $-1 #
coedge $-1 $101 $249 $259 $264 reversed $159 $-1 #
vertex $-1 $164 $265 #
vertex $-1 $264 $266 #
straight-curve $-1 -32.411972153715112 -27.005970511843909 0 0 0 1 I I #
face $-1 $267 $185 $23 $-1 $268 reversed single #
loop $-1 $-1 $269 $103 #
plane-surface $-1 -30.911972153715116 37.240707644191787 0 0 -1 0 0 0 -1 forward_v I I I I #
coedge $-1 $270 $271 $272 $273 forward $104 $-1 #
coedge $-1 $274 $106 $270 $275 forward $65 $-1 #
coedge $-1 $106 $274 $183 $276 forward $65 $-1 #
edge $-1 $186 29.411972153715116 $277 32.411972153715112 $106 $278 forward 7 unknown #
coedge $-1 $108 $107 $279 $280 forward $42 $-1 #
coedge $-1 $281 $282 $107 $182 forward $283 $-1 #
edge $-1 $284 -32.411972153715112 $187 -29.411972153715116 $181 $285 forward 7 unknown #
coedge $-1 $286 $109 $178 $276 reversed $185 $-1 #
coedge $-1 $109 $286 $281 $287 reversed $185 $-1 #
loop $-1 $-1 $109 $173 #
vertex $-1 $179 $288 #
vertex $-1 $287 $289 #
straight-curve $-1 -29.411972153715116 27.005970511843909 0 0 0 1 I I #
face $-1 $-1 $290 $24 $-1 $291 reversed single #
loop $-1 $-1 $117 $111 #
plane-surface $-1 0 0 10.609117533482111 0 0 1 1 0 0 forward_v I I I I #
coedge $-1 $292 $293 $294 $295 reversed $112 $-1 #
coedge $-1 $296 $114 $116 $199 forward $69 $-1 #
coedge $-1 $114 $296 $292 $297 forward $69 $-1 #
coedge $-1 $294 $117 $114 $196 forward $190 $-1 #
edge $-1 $202 -3.6305865905114594 $298 4.3271960883222889 $195 $299 forward 7 unknown #
coedge $-1 $300 $301 $115 $198 forward $290 $-1 #
edge $-1 $302 -67.740715207599834 $201 -60.600251765051375 $197 $303 forward 7 unknown #
edge $-1 $202 92.930111393829094 $302 101.26041444135869 $116 $304 forward 7 unknown #
coedge $-1 $117 $294 $300 $305 forward $190 $-1 #
vertex $-1 $118 $306 #
vertex $-1 $118 $307 #
straight-curve $-1 42.637178265312791 3.2822818416060446 10.609117533482106 -1 0 0 I I #
coedge $-1 $204 $204 $-1 $308 reversed $121 $-1 #
edge $-1 $309 0 $309 6.2831853071796004 $122 $310 forward 7 unknown #
vertex $-1 $125 $311 #
ellipse-curve $-1 48.484995652482034 -3.0839443014609529 7.0388858122078792 0.85716730853699208 0 0.51503806187062418 0.25751903093531209 0 -0.42858365426849604 1 I I #
coedge $-1 $208 $208 $-1 $312 reversed $128 $-1 #
edge $-1 $313 0 $313 6.2831853071796004 $129 $314 forward 7 unknown #
vertex $-1 $132 $315 #
ellipse-curve $-1 48.484995652482034 -0.69660949781082948 7.0388858122078792 0.85716730853699208 0 0.51503806187062418 0.25751903093531209 0 -0.42858365426849604 1 I I #
coedge $-1 $212 $212 $-1 $316 reversed $135 $-1 #
edge $-1 $317 0 $317 6.2831853071796004 $136 $318 forward 7 unknown #
vertex $-1 $139 $319 #
ellipse-curve $-1 48.484995652482034 1.6907253058392939 7.0388858122078792 0.85716730853699208 0 0.51503806187062418 0.25751903093531209 0 -0.42858365426849604 1 I I #
face $-1 $-1 $237 $21 $-1 $320 reversed single #
loop $-1 $-1 $149 $140 #
plane-surface $-1 -50.630207220679338 0 0 1 0 0 0 0 -1 forward_v I I I I #
coedge $-1 $321 $143 $148 $231 forward $88 $-1 #
coedge $-1 $143 $321 $223 $322 forward $88 $-1 #
coedge $-1 $224 $151 $143 $222 reversed $237 $-1 #
edge $-1 $323 -27.005970511843909 $238 27.005970511843909 $221 $324 forward 7 unknown #
coedge $-1 $145 $144 $220 $322 reversed $57 $-1 #
coedge $-1 $236 $221 $144 $225 forward $237 $-1 #
edge $-1 $323 -10.609117533482111 $228 10.609117533482111 $224 $325 forward 7 unknown #
coedge $-1 $233 $232 $145 $227 reversed $217 $-1 #
edge $-1 $326 -10.609117533482111 $229 10.609117533482111 $226 $327 forward 7 unknown #
vertex $-1 $225 $328 #
vertex $-1 $241 $329 #
straight-curve $-1 0 -27.005970511843909 -10.609117533482111 -1 0 0 I I #
edge $-1 $238 -50.630207220679338 $234 50.630207220679338 $148 $330 forward 7 unknown #
coedge $-1 $226 $149 $154 $241 reversed $217 $-1 #
coedge $-1 $149 $226 $321 $331 reversed $217 $-1 #
vertex $-1 $231 $332 #
straight-curve $-1 -50.630207220679338 27.005970511843909 0 0 0 -1 I I #
coedge $-1 $151 $224 $153 $240 reversed $237 $-1 #
loop $-1 $-1 $224 $216 #
vertex $-1 $222 $333 #
straight-curve $-1 50.630207220679338 27.005970511843909 0 0 0 -1 I I #
edge $-1 $156 -27.005970511843909 $228 27.005970511843909 $236 $334 forward 7 unknown #
edge $-1 $229 -27.005970511843909 $155 27.005970511843909 $232 $335 forward 7 unknown #
point $-1 -50.630207220679338 27.005970511843909 -10.609117533482111 #
point $-1 50.630207220679338 27.005970511843909 -10.609117533482111 #
face $-1 $-1 $261 $22 $-1 $336 forward single #
loop $-1 $-1 $337 $158 #
plane-surface $-1 -29.411972153715116 -32.12333907801785 0 -1 0 0 0 0 1 forward_v I I I I #
coedge $-1 $338 $161 $251 $339 reversed $96 $-1 #
coedge $-1 $161 $338 $340 $341 reversed $96 $-1 #
coedge $-1 $169 $168 $161 $250 reversed $159 $-1 #
edge $-1 $342 -10.609117533482111 $343 10.609117533482111 $249 $344 forward 7 unknown #
coedge $-1 $163 $162 $247 $339 forward $61 $-1 #
coedge $-1 $257 $337 $162 $253 reversed $245 $-1 #
edge $-1 $255 -5.1173685661739405 $345 5.117368566173937 $252 $346 forward 7 unknown #
edge $-1 $343 -5.117368566173937 $170 5.1173685661739405 $168 $347 forward 7 unknown #
vertex $-1 $253 $348 #
straight-curve $-1 0 -27.005970511843909 -10.609117533482111 1 0 0 I I #
coedge $-1 $349 $252 $165 $258 reversed $245 $-1 #
edge $-1 $262 -10.609117533482111 $255 10.609117533482111 $257 $350 forward 7 unknown #
coedge $-1 $340 $166 $169 $264 forward $261 $-1 #
coedge $-1 $166 $340 $349 $351 forward $261 $-1 #
loop $-1 $-1 $166 $244 #
vertex $-1 $167 $352 #
straight-curve $-1 0 -27.005970511843909 10.609117533482111 -1 0 0 I I #
edge $-1 $171 -5.1173685661739405 $342 5.117368566173937 $169 $353 forward 7 unknown #
point $-1 -32.411972153715112 -27.005970511843909 -10.609117533482111 #
point $-1 -32.411972153715112 -27.005970511843909 10.609117533482111 #
face $-1 $-1 $283 $23 $-1 $354 forward single #
plane-surface $-1 -29.411972153715116 32.12333907801785 0 -1 0 0 0 0 1 forward_v I I I I #
coedge $-1 $355 $356 $286 $357 forward $174 $-1 #
coedge $-1 $279 $176 $177 $275 reversed $104 $-1 #
coedge $-1 $176 $279 $282 $358 reversed $104 $-1 #
coedge $-1 $356 $355 $176 $273 reversed $174 $-1 #
edge $-1 $359 -10.609117533482111 $360 10.609117533482111 $272 $361 forward 7 unknown #
coedge $-1 $178 $177 $355 $362 forward $65 $-1 #
edge $-1 $277 -5.1173685661739405 $360 5.117368566173937 $270 $363 forward 7 unknown #
edge $-1 $364 -5.117368566173937 $186 5.1173685661739405 $183 $365 forward 7 unknown #
vertex $-1 $275 $366 #
straight-curve $-1 0 27.005970511843909 -10.609117533482111 -1 0 0 I I #
coedge $-1 $271 $270 $180 $280 reversed $104 $-1 #
edge $-1 $284 -10.609117533482111 $277 10.609117533482111 $279 $367 forward 7 unknown #
coedge $-1 $368 $181 $184 $287 forward $283 $-1 #
coedge $-1 $181 $368 $271 $358 forward $283 $-1 #
loop $-1 $-1 $181 $267 #
vertex $-1 $182 $369 #
straight-curve $-1 0 27.005970511843909 10.609117533482111 1 0 0 I I #
coedge $-1 $184 $183 $269 $357 reversed $185 $-1 #
edge $-1 $187 -5.1173685661739405 $370 5.117368566173937 $184 $371 forward 7 unknown #
point $-1 -29.411972153715116 27.005970511843909 -10.609117533482111 #
point $-1 -29.411972153715116 27.005970511843909 10.609117533482111 #
loop $-1 $-1 $197 $189 #
plane-surface $-1 50.630207220679338 0 0 -1 0 0 0 0 1 forward_v I I I I #
coedge $-1 $293 $192 $194 $297 reversed $112 $-1 #
coedge $-1 $192 $292 $372 $373 reversed $112 $-1 #
coedge $-1 $200 $195 $192 $295 forward $190 $-1 #
edge $-1 $298 3.7026058189719464 $374 7.9930289553665475 $294 $375 forward 7 unknown #
coedge $-1 $194 $193 $301 $376 reversed $69 $-1 #
edge $-1 $377 -101.26041444135869 $298 -92.930111393829094 $292 $378 forward 7 unknown #
vertex $-1 $196 $379 #
straight-curve $-1 46.33978408428473 -0.34830474890541474 10.609117533482106 0 -1 0 I I #
coedge $-1 $372 $197 $200 $305 reversed $290 $-1 #
coedge $-1 $197 $372 $296 $376 forward $290 $-1 #
vertex $-1 $198 $380 #
straight-curve $-1 50.630207220679338 3.2822818416060446 71.209369298533488 0 0 1 I I #
straight-curve $-1 -1.5227603774142011 3.2822818416060446 90.265770998973437 0.51503806187062418 0 -0.85716730853699208 I I #
edge $-1 $374 -4.6755008372277036 $201 3.2822818416060446 $300 $381 forward 7 unknown #
point $-1 50.630207220679338 3.2822818416060446 10.609117533482111 #
point $-1 46.339784084284737 3.2822818416060446 10.609117533482106 #
edge $-1 $382 1 $382 0 $204 $-1 forward 7 unknown #
vertex $-1 $205 $383 #
ellipse-curve $-1 47.627828343945041 -3.0839443014609529 6.5238477503372545 0.85716730853699208 0 0.51503806187062418 0.25751903093531209 0 -0.42858365426849604 1 I I #
point $-1 48.742514683417347 -3.0839443014609529 6.6103021579393832 #
edge $-1 $384 1 $384 0 $208 $-1 forward 7 unknown #
vertex $-1 $209 $385 #
ellipse-curve $-1 47.627828343945041 -0.69660949781082948 6.5238477503372545 0.85716730853699208 0 0.51503806187062418 0.25751903093531209 0 -0.42858365426849604 1 I I #
point $-1 48.742514683417347 -0.69660949781082948 6.6103021579393832 #
edge $-1 $386 1 $386 0 $212 $-1 forward 7 unknown #
vertex $-1 $213 $387 #
ellipse-curve $-1 47.627828343945041 1.6907253058392939 6.5238477503372545 0.85716730853699208 0 0.51503806187062418 0.25751903093531209 0 -0.42858365426849604 1 I I #
point $-1 48.742514683417347 1.6907253058392939 6.6103021579393832 #
plane-surface $-1 50.630207220679338 0 0 -1 0 0 0 0 1 forward_v I I I I #
coedge $-1 $220 $219 $233 $331 forward $88 $-1 #
edge $-1 $326 -50.630207220679338 $323 50.630207220679338 $223 $388 forward 7 unknown #
vertex $-1 $222 $389 #
straight-curve $-1 50.630207220679338 0 10.609117533482111 0 1 0 I I #
straight-curve $-1 50.630207220679338 -27.005970511843909 0 0 0 -1 I I #
vertex $-1 $331 $390 #
straight-curve $-1 -50.630207220679338 -27.005970511843909 0 0 0 -1 I I #
point $-1 50.630207220679338 -27.005970511843909 -10.609117533482111 #
point $-1 -50.630207220679338 -27.005970511843909 -10.609117533482111 #
straight-curve $-1 0 27.005970511843909 10.609117533482111 -1 0 0 I I #
edge $-1 $234 -27.005970511843909 $326 27.005970511843909 $233 $391 forward 7 unknown #
point $-1 -50.630207220679338 27.005970511843909 10.609117533482111 #
point $-1 50.630207220679338 27.005970511843909 10.609117533482111 #
straight-curve $-1 50.630207220679338 0 -10.609117533482111 0 -1 0 I I #
straight-curve $-1 -50.630207220679338 0 -10.609117533482111 0 1 0 I I #
plane-surface $-1 0 0 10.609117533482111 0 0 1 1 0 0 forward_v I I I I #
coedge $-1 $252 $349 $338 $392 forward $245 $-1 #
coedge $-1 $248 $247 $337 $392 reversed $96 $-1 #
edge $-1 $345 -1.5 $343 1.4999999999999964 $247 $393 forward 7 unknown #
coedge $-1 $260 $259 $248 $341 forward $261 $-1 #
edge $-1 $342 -1.4999999999999964 $394 1.5 $248 $395 forward 7 unknown #
vertex $-1 $264 $396 #
vertex $-1 $254 $397 #
straight-curve $-1 -32.411972153715112 -37.240707644191787 0 0 0 -1 I I #
vertex $-1 $392 $398 #
straight-curve $-1 -29.411972153715116 -32.12333907801785 -10.609117533482111 0 -1 0 I I #
straight-curve $-1 -32.411972153715112 -32.12333907801785 -10.609117533482111 0 1 0 I I #
point $-1 -29.411972153715116 -27.005970511843909 -10.609117533482111 #
coedge $-1 $337 $257 $260 $351 reversed $245 $-1 #
straight-curve $-1 -29.411972153715116 -27.005970511843909 0 0 0 -1 I I #
edge $-1 $394 -5.117368566173937 $262 5.1173685661739405 $349 $399 forward 7 unknown #
point $-1 -29.411972153715116 -27.005970511843909 10.609117533482111 #
straight-curve $-1 -32.411972153715112 -32.12333907801785 10.609117533482111 0 -1 0 I I #
plane-surface $-1 0 0 10.609117533482111 0 0 1 1 0 0 forward_v I I I I #
coedge $-1 $272 $269 $274 $362 reversed $174 $-1 #
coedge $-1 $269 $272 $368 $400 reversed $174 $-1 #
edge $-1 $370 -10.609117533482111 $364 10.609117533482111 $286 $401 forward 7 unknown #
edge $-1 $359 -5.117368566173937 $284 5.1173685661739405 $271 $402 forward 7 unknown #
vertex $-1 $400 $403 #
vertex $-1 $362 $404 #
straight-curve $-1 -32.411972153715112 37.240707644191787 0 0 0 -1 I I #
edge $-1 $360 -1.4999999999999964 $364 1.5 $355 $405 forward 7 unknown #
straight-curve $-1 -32.411972153715112 32.12333907801785 -10.609117533482111 0 1 0 I I #
vertex $-1 $276 $406 #
straight-curve $-1 -29.411972153715116 32.12333907801785 -10.609117533482111 0 -1 0 I I #
point $-1 -32.411972153715112 27.005970511843909 -10.609117533482111 #
straight-curve $-1 -32.411972153715112 27.005970511843909 0 0 0 -1 I I #
coedge $-1 $282 $281 $356 $400 forward $283 $-1 #
point $-1 -32.411972153715112 27.005970511843909 10.609117533482111 #
vertex $-1 $287 $407 #
straight-curve $-1 -29.411972153715116 32.12333907801785 10.609117533482111 0 1 0 I I #
coedge $-1 $301 $300 $293 $373 forward $290 $-1 #
edge $-1 $374 60.600251765051375 $377 67.740715207599834 $372 $408 forward 7 unknown #
vertex $-1 $305 $409 #
straight-curve $-1 42.637178265312791 -4.6755008372277036 10.609117533482106 1 0 0 I I #
edge $-1 $377 -4.3271960883222889 $302 3.6305865905114594 $301 $410 forward 7 unknown #
vertex $-1 $376 $411 #
straight-curve $-1 -1.5227603774142011 -4.6755008372277036 90.265770998973437 -0.51503806187062418 0 0.85716730853699208 I I #
point $-1 46.339784084284737 -4.6755008372277036 10.609117533482106 #
point $-1 50.630207220679338 3.2822818416060446 3.4686540909336543 #
straight-curve $-1 50.630207220679338 0 10.609117533482111 0 1 0 I I #
vertex $-1 $308 $412 #
point $-1 47.885347374880354 -3.0839443014609529 6.0952640960687585 #
vertex $-1 $312 $413 #
point $-1 47.885347374880354 -0.69660949781082948 6.0952640960687585 #
vertex $-1 $316 $414 #
point $-1 47.885347374880354 1.6907253058392939 6.0952640960687585 #
straight-curve $-1 0 -27.005970511843909 10.609117533482111 1 0 0 I I #
point $-1 50.630207220679338 -27.005970511843909 10.609117533482111 #
point $-1 -50.630207220679338 -27.005970511843909 10.609117533482111 #
straight-curve $-1 -50.630207220679338 0 10.609117533482111 0 -1 0 I I #
edge $-1 $394 -10.609117533482111 $345 10.609117533482111 $337 $415 forward 7 unknown #
straight-curve $-1 -30.911972153715116 -37.240707644191787 -10.609117533482111 -1 0 0 I I #
vertex $-1 $351 $416 #
straight-curve $-1 -30.911972153715116 -37.240707644191787 10.609117533482111 1 0 0 I I #
point $-1 -32.411972153715112 -37.240707644191787 10.609117533482111 #
point $-1 -32.411972153715112 -37.240707644191787 -10.609117533482111 #
point $-1 -29.411972153715116 -37.240707644191787 -10.609117533482111 #
straight-curve $-1 -29.411972153715116 -32.12333907801785 10.609117533482111 0 1 0 I I #
edge $-1 $370 -1.5 $359 1.4999999999999964 $356 $417 forward 7 unknown #
straight-curve $-1 -29.411972153715116 37.240707644191787 0 0 0 -1 I I #
straight-curve $-1 -32.411972153715112 32.12333907801785 10.609117533482111 0 -1 0 I I #
point $-1 -32.411972153715112 37.240707644191787 10.609117533482111 #
point $-1 -32.411972153715112 37.240707644191787 -10.609117533482111 #
straight-curve $-1 -30.911972153715116 37.240707644191787 -10.609117533482111 1 0 0 I I #
point $-1 -29.411972153715116 37.240707644191787 -10.609117533482111 #
point $-1 -29.411972153715116 37.240707644191787 10.609117533482111 #
straight-curve $-1 50.630207220679338 -4.6755008372277036 71.209369298533488 0 0 -1 I I #
point $-1 50.630207220679338 -4.6755008372277036 10.609117533482111 #
straight-curve $-1 50.630207220679338 -0.34830474890541474 3.4686540909336543 0 1 0 I I #
point $-1 50.630207220679338 -4.6755008372277036 3.4686540909336543 #
point $-1 47.199244689676547 -3.0839443014609529 6.266328719401943 #
point $-1 47.199244689676547 -0.69660949781082948 6.266328719401943 #
point $-1 47.199244689676547 1.6907253058392939 6.266328719401943 #
straight-curve $-1 -29.411972153715116 -37.240707644191787 0 0 0 -1 I I #
point $-1 -29.411972153715116 -37.240707644191787 10.609117533482111 #
straight-curve $-1 -30.911972153715116 37.240707644191787 10.609117533482111 -1 0 0 I I #
End-of-ACIS-data 