500 0 4 0           
7 Unknown 11 ACIS 5.0 NT 24 Fri Mar 26 18:35:53 1999 
-1 9.9999999999999995e-007 1e-010 
body $-1 $4 $-1 $5 #
body $-1 $6 $-1 $7 #
body $-1 $8 $-1 $9 #
body $-1 $10 $-1 $11 #
lump $-1 $-1 $12 $0 #
transform $-1 1 0 0 0 1 0 0 0 1 68.888821069978945 37.241422393002111 15.409836157514567 1 rotate no_reflect no_shear #
lump $-1 $-1 $13 $1 #
transform $-1 1 0 0 0 1 0 0 0 1 68.888821069978945 37.241422393002111 15.409836157514567 1 rotate no_reflect no_shear #
lump $-1 $-1 $14 $2 #
transform $-1 1 0 0 0 1 0 0 0 1 68.888821069978945 37.241422393002111 15.409836157514567 1 rotate no_reflect no_shear #
lump $-1 $-1 $15 $3 #
transform $-1 1 0 0 0 1 0 0 0 1 68.888821069978945 37.241422393002111 15.409836157514567 1 rotate no_reflect no_shear #
shell $-1 $-1 $-1 $16 $-1 $4 #
shell $-1 $-1 $-1 $17 $-1 $6 #
shell $-1 $-1 $-1 $18 $-1 $8 #
shell $-1 $-1 $-1 $19 $-1 $10 #
face $-1 $20 $21 $12 $-1 $22 forward single #
face $-1 $23 $24 $13 $-1 $25 reversed single #
face $-1 $26 $27 $14 $-1 $28 forward single #
face $-1 $29 $30 $15 $-1 $31 reversed single #
face $-1 $32 $33 $12 $-1 $34 reversed single #
loop $-1 $-1 $35 $16 #
plane-surface $-1 0 0 15.409836157514567 0 0 1 1 0 0 forward_v I I I I #
face $-1 $36 $37 $13 $-1 $38 forward single #
loop $-1 $-1 $39 $17 #
plane-surface $-1 0 -27.899822356878555 -6.9302292396397434 0 0 1 1 0 0 forward_v I I I I #
face $-1 $40 $41 $14 $-1 $42 forward single #
loop $-1 $-1 $43 $18 #
plane-surface $-1 50.852467544805769 52.536626662657625 163.82265654534979 1 0 0 0 -0.55919291073839883 -0.82903756765294845 forward_v I I I I #
face $-1 $44 $45 $15 $-1 $46 reversed single #
loop $-1 $47 $48 $19 #
cone-surface $-1 59.870644307392354 29.755309997848251 8.7798891401689332 0 -0.55919291073839883 -0.82903756765294845 3 0 0 1 I I 0 1 3 forward I I I I #
face $-1 $49 $50 $12 $-1 $51 reversed single #
loop $-1 $-1 $52 $20 #
plane-surface $-1 0 0 -15.409836157514567 0 0 1 1 0 0 forward_v I I I I #
coedge $-1 $53 $54 $55 $56 forward $21 $-1 #
face $-1 $57 $58 $13 $-1 $59 forward single #
loop $-1 $-1 $60 $23 #
plane-surface $-1 0 -27.899822356878555 -11.25826421866152 0 0 1 1 0 0 forward_v I I I I #
coedge $-1 $61 $62 $63 $64 reversed $24 $-1 #
face $-1 $65 $66 $14 $-1 $67 reversed single #
loop $-1 $-1 $68 $26 #
plane-surface $-1 59.870644307392354 -24.507654080258902 49.599815228680725 0 0.55919291073839883 0.82903756765294845 1 0 0 forward_v I I I I #
coedge $-1 $69 $70 $71 $72 reversed $27 $-1 #
face $-1 $73 $74 $15 $-1 $75 forward single #
loop $-1 $76 $77 $29 #
cone-surface $-1 59.870644307392354 26.960582709881791 4.6365356237418585 0 -0.55919291073839883 -0.82903756765294845 1.5 0 0 1 I I -0.70710678118654757 0.70710678118654757 1.5 forward I I I I #
loop $-1 $-1 $78 $19 #
coedge $-1 $48 $48 $79 $80 reversed $30 $-1 #
face $-1 $81 $82 $12 $-1 $83 reversed single #
loop $-1 $-1 $84 $32 #
plane-surface $-1 0 -37.241422393002111 0 0 1 0 0 0 1 forward_v I I I I #
coedge $-1 $85 $86 $87 $88 forward $33 $-1 #
coedge $-1 $89 $35 $90 $91 forward $21 $-1 #
coedge $-1 $35 $89 $92 $93 forward $21 $-1 #
coedge $-1 $94 $95 $35 $56 reversed $96 $-1 #
edge $-1 $97 -37.241422393002111 $98 37.241422393002111 $55 $99 forward 7 unknown #
face $-1 $100 $101 $13 $-1 $102 reversed single #
loop $-1 $-1 $103 $36 #
plane-surface $-1 0 -18.558222320755 -9.0942467291506315 0 -1 0 0 0 -1 forward_v I I I I #
coedge $-1 $104 $105 $106 $107 reversed $37 $-1 #
coedge $-1 $108 $39 $109 $110 reversed $24 $-1 #
coedge $-1 $39 $108 $111 $112 reversed $24 $-1 #
coedge $-1 $113 $114 $39 $64 forward $101 $-1 #
edge $-1 $115 -23.291511214562831 $116 -4.6083111423157224 $63 $117 forward 7 unknown #
face $-1 $118 $119 $14 $-1 $120 reversed single #
loop $-1 $-1 $121 $40 #
plane-surface $-1 0 37.241422393002111 0 0 -1 0 0 0 -1 forward_v I I I I #
coedge $-1 $122 $123 $124 $125 reversed $41 $-1 #
coedge $-1 $70 $43 $123 $126 forward $27 $-1 #
coedge $-1 $43 $69 $121 $127 reversed $27 $-1 #
coedge $-1 $128 $124 $43 $72 forward $129 $-1 #
edge $-1 $130 -0.087239884916627375 $131 10.973109061673298 $71 $132 forward 7 unknown #
face $-1 $133 $134 $15 $-1 $135 forward single #
loop $-1 $-1 $136 $44 #
plane-surface $-1 50.852467544805769 52.536626662657625 163.82265654534979 1 0 0 0 -0.55919291073839883 -0.82903756765294845 forward_v I I I I #
loop $-1 $-1 $137 $29 #
coedge $-1 $77 $77 $78 $138 forward $45 $-1 #
coedge $-1 $78 $78 $77 $138 reversed $47 $-1 #
coedge $-1 $79 $79 $48 $80 forward $134 $-1 #
edge $-1 $139 -8.0839144779726731e-017 $139 6.2831853071796004 $79 $140 forward 7 unknown #
face $-1 $141 $142 $12 $-1 $143 reversed single #
loop $-1 $-1 $144 $49 #
plane-surface $-1 -68.888821069978945 0 0 1 0 0 0 0 -1 forward_v I I I I #
coedge $-1 $145 $92 $146 $147 forward $50 $-1 #
coedge $-1 $148 $52 $145 $149 forward $33 $-1 #
coedge $-1 $52 $148 $150 $151 forward $33 $-1 #
coedge $-1 $95 $94 $52 $88 reversed $96 $-1 #
edge $-1 $152 -37.241422393002111 $153 37.241422393002111 $87 $154 forward 7 unknown #
coedge $-1 $54 $53 $155 $156 forward $21 $-1 #
coedge $-1 $157 $158 $53 $91 reversed $142 $-1 #
edge $-1 $98 -68.888821069978945 $159 68.888821069978945 $90 $160 forward 7 unknown #
coedge $-1 $84 $161 $54 $93 reversed $50 $-1 #
edge $-1 $162 -68.888821069978945 $97 68.888821069978945 $92 $163 forward 7 unknown #
coedge $-1 $87 $55 $161 $164 forward $96 $-1 #
coedge $-1 $55 $87 $157 $165 reversed $96 $-1 #
loop $-1 $-1 $94 $141 #
vertex $-1 $56 $166 #
vertex $-1 $56 $167 #
straight-curve $-1 68.888821069978945 0 15.409836157514567 0 1 0 I I #
face $-1 $168 $169 $13 $-1 $170 reversed single #
loop $-1 $-1 $63 $57 #
plane-surface $-1 68.888821069978945 0 0 -1 0 0 0 0 1 forward_v I I I I #
coedge $-1 $111 $171 $113 $172 reversed $58 $-1 #
coedge $-1 $173 $60 $171 $174 reversed $37 $-1 #
coedge $-1 $60 $173 $175 $176 reversed $37 $-1 #
coedge $-1 $177 $113 $60 $107 forward $101 $-1 #
edge $-1 $178 4.6083111423157224 $179 23.291511214562831 $106 $180 forward 7 unknown #
coedge $-1 $62 $61 $181 $182 reversed $24 $-1 #
coedge $-1 $183 $184 $61 $110 forward $185 $-1 #
edge $-1 $186 -68.888821069978945 $115 68.888821069978945 $109 $187 forward 7 unknown #
coedge $-1 $188 $103 $62 $112 forward $58 $-1 #
edge $-1 $116 -68.888821069978945 $189 68.888821069978945 $111 $190 forward 7 unknown #
coedge $-1 $106 $63 $103 $172 forward $101 $-1 #
coedge $-1 $63 $191 $183 $192 forward $101 $-1 #
vertex $-1 $110 $193 #
vertex $-1 $64 $194 #
straight-curve $-1 68.888821069978945 -13.949911178439278 -6.9302292396397434 0 1 0 I I #
face $-1 $195 $196 $14 $-1 $197 forward single #
loop $-1 $-1 $198 $65 #
plane-surface $-1 0 -27.899822356878555 -6.9302292396397434 0 0 1 1 0 0 forward_v I I I I #
coedge $-1 $199 $200 $70 $127 forward $66 $-1 #
coedge $-1 $201 $68 $202 $203 reversed $41 $-1 #
coedge $-1 $68 $201 $69 $126 reversed $41 $-1 #
coedge $-1 $71 $204 $68 $125 forward $129 $-1 #
edge $-1 $205 -38.953498916282769 $130 -20.917145391109592 $124 $206 forward 7 unknown #
edge $-1 $130 61.141653291024788 $207 74.482844786004193 $69 $208 forward 7 unknown #
edge $-1 $131 66.501492115160332 $207 73.961791819956233 $121 $209 forward 7 unknown #
coedge $-1 $210 $71 $200 $211 forward $129 $-1 #
loop $-1 $-1 $71 $212 #
vertex $-1 $125 $213 #
vertex $-1 $211 $214 #
straight-curve $-1 50.852467544805769 26.268313331328812 15.409836157514562 0 1 0 I I #
face $-1 $215 $216 $15 $-1 $217 reversed single #
loop $-1 $218 $79 $73 #
plane-surface $-1 59.870644307392354 -24.507654080258902 49.599815228680725 0 0.55919291073839883 0.82903756765294845 1 0 0 forward_v I I I I #
coedge $-1 $219 $220 $221 $222 reversed $74 $-1 #
coedge $-1 $137 $137 $-1 $223 forward $76 $-1 #
edge $-1 $224 0 $224 6.2831853071796004 $77 $225 forward 7 unknown #
vertex $-1 $80 $226 #
ellipse-curve $-1 59.870644307392354 31.711247919707141 11.679686305116624 0 -0.55919291073839883 -0.82903756765294845 3 0 0 1 I I #
face $-1 $-1 $96 $12 $-1 $227 reversed single #
loop $-1 $-1 $157 $81 #
plane-surface $-1 0 37.241422393002111 0 0 -1 0 0 0 -1 forward_v I I I I #
coedge $-1 $228 $155 $158 $229 forward $82 $-1 #
coedge $-1 $161 $84 $85 $149 reversed $50 $-1 #
coedge $-1 $155 $228 $84 $147 reversed $82 $-1 #
edge $-1 $162 -15.409836157514567 $230 15.409836157514567 $146 $231 forward 7 unknown #
coedge $-1 $86 $85 $228 $232 forward $33 $-1 #
edge $-1 $153 -68.888821069978945 $230 68.888821069978945 $145 $233 forward 7 unknown #
coedge $-1 $158 $157 $86 $151 reversed $142 $-1 #
edge $-1 $234 -68.888821069978945 $152 68.888821069978945 $150 $235 forward 7 unknown #
vertex $-1 $88 $236 #
vertex $-1 $164 $237 #
straight-curve $-1 68.888821069978945 0 -15.409836157514567 0 -1 0 I I #
coedge $-1 $144 $146 $89 $156 reversed $82 $-1 #
edge $-1 $159 -37.241422393002111 $162 37.241422393002111 $155 $238 forward 7 unknown #
coedge $-1 $150 $90 $95 $165 forward $142 $-1 #
coedge $-1 $90 $150 $144 $229 reversed $142 $-1 #
vertex $-1 $91 $239 #
straight-curve $-1 0 37.241422393002111 15.409836157514567 -1 0 0 I I #
coedge $-1 $92 $145 $94 $164 reversed $50 $-1 #
vertex $-1 $156 $240 #
straight-curve $-1 0 -37.241422393002111 15.409836157514567 1 0 0 I I #
edge $-1 $97 -15.409836157514567 $153 15.409836157514567 $94 $241 forward 7 unknown #
edge $-1 $98 -15.409836157514567 $152 15.409836157514567 $95 $242 forward 7 unknown #
point $-1 68.888821069978945 -37.241422393002111 15.409836157514567 #
point $-1 68.888821069978945 37.241422393002111 15.409836157514567 #
face $-1 $243 $244 $13 $-1 $245 forward single #
loop $-1 $-1 $175 $100 #
plane-surface $-1 0 -37.241422393002111 0 0 1 0 0 0 1 forward_v I I I I #
coedge $-1 $103 $188 $104 $174 forward $58 $-1 #
edge $-1 $116 2.3831058750644276 $178 6.7111408540862039 $113 $246 forward 7 unknown #
coedge $-1 $105 $104 $247 $248 reversed $37 $-1 #
edge $-1 $249 -68.888821069978945 $178 68.888821069978945 $171 $250 forward 7 unknown #
coedge $-1 $251 $252 $105 $176 forward $169 $-1 #
edge $-1 $179 -68.888821069978945 $253 68.888821069978945 $175 $254 forward 7 unknown #
coedge $-1 $255 $106 $252 $256 forward $101 $-1 #
vertex $-1 $107 $257 #
vertex $-1 $256 $258 #
straight-curve $-1 68.888821069978945 -13.949911178439278 -11.25826421866152 0 -1 0 I I #
coedge $-1 $259 $260 $108 $182 forward $261 $-1 #
edge $-1 $189 4.6083111423157224 $186 23.291511214562831 $181 $262 forward 7 unknown #
coedge $-1 $263 $109 $114 $192 reversed $185 $-1 #
coedge $-1 $109 $263 $259 $264 forward $185 $-1 #
loop $-1 $-1 $109 $265 #
vertex $-1 $182 $266 #
straight-curve $-1 0 -37.241422393002111 -6.9302292396397434 1 0 0 I I #
coedge $-1 $171 $111 $260 $267 reversed $58 $-1 #
vertex $-1 $182 $268 #
straight-curve $-1 0 -18.558222320755 -6.9302292396397434 -1 0 0 I I #
coedge $-1 $114 $269 $270 $271 reversed $101 $-1 #
edge $-1 $272 -15.409836157514567 $115 6.9302292396397434 $114 $273 forward 7 unknown #
point $-1 68.888821069978945 -37.241422393002111 -6.9302292396397434 #
point $-1 68.888821069978945 -18.558222320755 -6.9302292396397434 #
face $-1 $274 $275 $14 $-1 $276 forward single #
loop $-1 $-1 $277 $118 #
plane-surface $-1 0 -27.899822356878555 -11.25826421866152 0 0 1 1 0 0 forward_v I I I I #
coedge $-1 $278 $279 $280 $281 reversed $119 $-1 #
coedge $-1 $282 $121 $201 $283 forward $66 $-1 #
coedge $-1 $121 $284 $128 $211 reversed $66 $-1 #
coedge $-1 $123 $122 $199 $283 reversed $41 $-1 #
coedge $-1 $285 $286 $122 $203 forward $287 $-1 #
edge $-1 $288 -50.45602929730898 $205 -37.114837802329582 $202 $289 forward 7 unknown #
coedge $-1 $124 $290 $285 $291 forward $129 $-1 #
vertex $-1 $203 $292 #
straight-curve $-1 29.935322153696177 26.181073446412185 15.409836157514569 -1 0 0 I I #
vertex $-1 $283 $293 #
straight-curve $-1 50.852467544805769 -24.507654080258902 49.599815228680725 0 0.82903756765294845 -0.55919291073839883 I I #
straight-curve $-1 50.852467544805769 37.241422393002111 81.911328272674893 0 0 -1 I I #
coedge $-1 $290 $128 $294 $295 forward $129 $-1 #
edge $-1 $131 -50.852467544805769 $296 68.888821069978945 $200 $297 forward 7 unknown #
face $-1 $298 $129 $14 $-1 $299 forward single #
point $-1 50.852467544805769 26.181073446412185 15.409836157514569 #
point $-1 50.852467544805769 37.241422393002111 15.409836157514567 #
face $-1 $300 $301 $15 $-1 $302 reversed single #
loop $-1 $-1 $303 $133 #
plane-surface $-1 0 37.241422393002111 0 0 -1 0 0 0 -1 forward_v I I I I #
loop $-1 $-1 $304 $73 #
coedge $-1 $220 $136 $305 $306 forward $74 $-1 #
coedge $-1 $136 $219 $303 $307 reversed $74 $-1 #
coedge $-1 $308 $309 $136 $222 forward $310 $-1 #
edge $-1 $311 -0.087239884916627375 $312 10.973109061673298 $221 $313 forward 7 unknown #
edge $-1 $314 1 $314 0 $137 $-1 forward 7 unknown #
vertex $-1 $138 $315 #
ellipse-curve $-1 59.870644307392354 27.799372075989389 5.8800919752212817 0 0.55919291073839883 0.82903756765294845 3 0 0 1 I I #
point $-1 62.870644307392354 31.711247919707116 11.679686305116586 #
plane-surface $-1 68.888821069978945 0 0 -1 0 0 0 0 1 forward_v I I I I #
coedge $-1 $146 $144 $148 $232 reversed $82 $-1 #
edge $-1 $159 -15.409836157514567 $234 15.409836157514567 $158 $316 forward 7 unknown #
vertex $-1 $232 $317 #
straight-curve $-1 -68.888821069978945 -37.241422393002111 0 0 0 -1 I I #
edge $-1 $230 -37.241422393002111 $234 37.241422393002111 $228 $318 forward 7 unknown #
straight-curve $-1 0 -37.241422393002111 -15.409836157514567 -1 0 0 I I #
vertex $-1 $151 $319 #
straight-curve $-1 0 37.241422393002111 -15.409836157514567 1 0 0 I I #
point $-1 68.888821069978945 37.241422393002111 -15.409836157514567 #
point $-1 68.888821069978945 -37.241422393002111 -15.409836157514567 #
straight-curve $-1 -68.888821069978945 0 15.409836157514567 0 -1 0 I I #
point $-1 -68.888821069978945 37.241422393002111 15.409836157514567 #
point $-1 -68.888821069978945 -37.241422393002111 15.409836157514567 #
straight-curve $-1 68.888821069978945 -37.241422393002111 0 0 0 -1 I I #
straight-curve $-1 68.888821069978945 37.241422393002111 0 0 0 -1 I I #
face $-1 $265 $320 $13 $-1 $321 reversed single #
loop $-1 $-1 $270 $168 #
plane-surface $-1 0 0 15.409836157514567 0 0 1 1 0 0 forward_v I I I I #
straight-curve $-1 68.888821069978945 -18.558222320755 -4.5471233645753157 0 0 -1 I I #
coedge $-1 $260 $322 $173 $248 forward $261 $-1 #
edge $-1 $253 -23.291511214562831 $249 -4.6083111423157224 $247 $323 forward 7 unknown #
vertex $-1 $248 $324 #
straight-curve $-1 0 -18.558222320755 -11.25826421866152 1 0 0 I I #
coedge $-1 $325 $175 $322 $326 forward $169 $-1 #
coedge $-1 $175 $325 $177 $256 reversed $169 $-1 #
vertex $-1 $326 $327 #
straight-curve $-1 0 -37.241422393002111 -11.25826421866152 -1 0 0 I I #
coedge $-1 $269 $177 $328 $329 reversed $101 $-1 #
edge $-1 $179 11.25826421866152 $330 15.409836157514567 $177 $273 forward 7 unknown #
point $-1 68.888821069978945 -18.558222320755 -11.25826421866152 #
point $-1 68.888821069978945 -37.241422393002111 -11.25826421866152 #
coedge $-1 $331 $181 $184 $264 reversed $261 $-1 #
coedge $-1 $181 $247 $188 $267 forward $261 $-1 #
loop $-1 $-1 $181 $332 #
straight-curve $-1 -68.888821069978945 -13.949911178439278 -6.9302292396397434 0 -1 0 I I #
coedge $-1 $184 $183 $333 $334 reversed $185 $-1 #
edge $-1 $335 -15.409836157514567 $186 6.9302292396397434 $259 $336 forward 7 unknown #
face $-1 $332 $185 $13 $-1 $170 reversed single #
point $-1 -68.888821069978945 -37.241422393002111 -6.9302292396397434 #
edge $-1 $249 -6.7111408540862039 $189 -2.3831058750644276 $260 $337 forward 7 unknown #
point $-1 -68.888821069978945 -18.558222320755 -6.9302292396397434 #
coedge $-1 $191 $255 $338 $339 reversed $101 $-1 #
coedge $-1 $340 $333 $191 $271 forward $244 $-1 #
edge $-1 $272 -37.241422393002111 $341 37.241422393002111 $191 $342 forward 7 unknown #
vertex $-1 $271 $343 #
straight-curve $-1 68.888821069978945 -37.241422393002111 0 0 0 -1 I I #
face $-1 $344 $287 $14 $-1 $345 reversed single #
loop $-1 $-1 $346 $195 #
plane-surface $-1 0 -18.558222320755 -9.0942467291506315 0 -1 0 0 0 -1 forward_v I I I I #
coedge $-1 $347 $348 $349 $350 reversed $196 $-1 #
coedge $-1 $351 $198 $352 $353 reversed $119 $-1 #
coedge $-1 $198 $351 $354 $355 reversed $119 $-1 #
coedge $-1 $356 $357 $198 $281 forward $287 $-1 #
edge $-1 $358 -23.291511214562831 $359 -4.6083111423157224 $280 $360 forward 7 unknown #
coedge $-1 $361 $199 $286 $362 forward $66 $-1 #
edge $-1 $207 20.917145391109592 $288 38.953498916282769 $199 $363 forward 7 unknown #
coedge $-1 $200 $361 $364 $365 reversed $66 $-1 #
coedge $-1 $357 $202 $204 $291 reversed $287 $-1 #
coedge $-1 $202 $366 $282 $362 reversed $287 $-1 #
loop $-1 $-1 $202 $274 #
vertex $-1 $362 $367 #
straight-curve $-1 68.888821069978945 -4.588521409064831 36.164190339782806 0 -0.82903756765294845 0.55919291073839883 I I #
coedge $-1 $204 $210 $368 $369 forward $129 $-1 #
edge $-1 $370 -37.241422393002111 $205 26.181073446412189 $285 $371 forward 7 unknown #
point $-1 68.888821069978945 26.181073446412189 15.409836157514567 #
point $-1 50.852467544805769 37.241422393002111 7.949536452718668 #
coedge $-1 $364 $372 $210 $295 reversed $373 $-1 #
edge $-1 $296 -37.241422393002111 $374 37.241422393002111 $294 $375 forward 7 unknown #
vertex $-1 $211 $376 #
straight-curve $-1 0 37.241422393002111 15.409836157514567 -1 0 0 I I #
face $-1 $377 $378 $14 $-1 $379 reversed single #
plane-surface $-1 0 0 15.409836157514567 0 0 1 1 0 0 forward_v I I I I #
face $-1 $380 $381 $15 $-1 $382 forward single #
loop $-1 $-1 $383 $215 #
plane-surface $-1 0 -27.899822356878555 -6.9302292396397434 0 0 1 1 0 0 forward_v I I I I #
coedge $-1 $384 $385 $220 $307 forward $216 $-1 #
coedge $-1 $386 $305 $309 $387 reversed $218 $-1 #
coedge $-1 $304 $388 $219 $306 reversed $218 $-1 #
edge $-1 $311 61.141653291024788 $389 74.482844786004193 $219 $390 forward 7 unknown #
edge $-1 $312 66.501492115160332 $389 73.961791819956233 $303 $391 forward 7 unknown #
coedge $-1 $392 $221 $385 $393 forward $310 $-1 #
coedge $-1 $221 $394 $304 $387 forward $310 $-1 #
loop $-1 $-1 $221 $395 #
vertex $-1 $387 $396 #
vertex $-1 $393 $397 #
straight-curve $-1 50.852467544805769 26.268313331328812 15.409836157514562 0 1 0 I I #
vertex $-1 $223 $398 #
point $-1 62.870644307392354 27.799372075989389 5.8800919752212817 #
straight-curve $-1 -68.888821069978945 37.241422393002111 0 0 0 -1 I I #
point $-1 -68.888821069978945 -37.241422393002111 -15.409836157514567 #
straight-curve $-1 -68.888821069978945 0 -15.409836157514567 0 1 0 I I #
point $-1 -68.888821069978945 37.241422393002111 -15.409836157514567 #
loop $-1 $-1 $328 $243 #
plane-surface $-1 0 0 -15.409836157514567 0 0 1 1 0 0 forward_v I I I I #
coedge $-1 $247 $399 $251 $326 reversed $261 $-1 #
straight-curve $-1 -68.888821069978945 -13.949911178439278 -11.25826421866152 0 1 0 I I #
point $-1 -68.888821069978945 -18.558222320755 -11.25826421866152 #
coedge $-1 $252 $251 $400 $401 reversed $169 $-1 #
edge $-1 $253 11.25826421866152 $402 15.409836157514567 $322 $336 forward 7 unknown #
point $-1 -68.888821069978945 -37.241422393002111 -11.25826421866152 #
coedge $-1 $400 $403 $255 $329 forward $320 $-1 #
edge $-1 $404 -37.241422393002111 $330 37.241422393002111 $255 $405 forward 7 unknown #
vertex $-1 $256 $406 #
coedge $-1 $407 $259 $408 $409 reversed $261 $-1 #
face $-1 $410 $261 $13 $-1 $411 reversed single #
coedge $-1 $270 $408 $263 $334 forward $244 $-1 #
edge $-1 $335 -68.888821069978945 $272 68.888821069978945 $263 $412 forward 7 unknown #
vertex $-1 $409 $413 #
straight-curve $-1 -68.888821069978945 -37.241422393002111 0 0 0 -1 I I #
straight-curve $-1 -68.888821069978945 -18.558222320755 -4.5471233645753157 0 0 1 I I #
coedge $-1 $414 $415 $269 $339 forward $416 $-1 #
edge $-1 $341 -15.409836157514567 $404 15.409836157514567 $269 $417 forward 7 unknown #
coedge $-1 $408 $270 $415 $418 forward $244 $-1 #
vertex $-1 $271 $419 #
straight-curve $-1 68.888821069978945 0 15.409836157514567 0 1 0 I I #
point $-1 68.888821069978945 -37.241422393002111 15.409836157514567 #
face $-1 $212 $420 $14 $-1 $421 reversed single #
plane-surface $-1 68.888821069978945 0 0 -1 0 0 0 0 1 forward_v I I I I #
coedge $-1 $354 $422 $356 $423 reversed $275 $-1 #
coedge $-1 $424 $277 $422 $425 reversed $196 $-1 #
coedge $-1 $277 $424 $426 $427 reversed $196 $-1 #
coedge $-1 $428 $356 $277 $350 forward $287 $-1 #
edge $-1 $429 4.6083111423157224 $430 23.291511214562831 $349 $431 forward 7 unknown #
coedge $-1 $279 $278 $432 $433 reversed $119 $-1 #
coedge $-1 $434 $435 $278 $353 forward $436 $-1 #
edge $-1 $437 -68.888821069978945 $358 68.888821069978945 $352 $438 forward 7 unknown #
coedge $-1 $439 $346 $279 $355 forward $275 $-1 #
edge $-1 $359 -68.888821069978945 $440 68.888821069978945 $354 $441 forward 7 unknown #
coedge $-1 $349 $280 $346 $423 forward $287 $-1 #
coedge $-1 $280 $285 $434 $442 forward $287 $-1 #
vertex $-1 $353 $443 #
vertex $-1 $281 $444 #
straight-curve $-1 68.888821069978945 -13.949911178439278 -6.9302292396397434 0 1 0 I I #
coedge $-1 $284 $282 $445 $446 reversed $66 $-1 #
edge $-1 $288 -7.9495364527186654 $447 15.409836157514567 $286 $448 forward 7 unknown #
straight-curve $-1 29.935322153696177 37.241422393002111 7.9495364527186645 1 0 0 I I #
coedge $-1 $449 $294 $284 $365 forward $373 $-1 #
edge $-1 $296 -15.409836157514567 $450 15.409836157514567 $284 $451 forward 7 unknown #
coedge $-1 $286 $428 $452 $453 reversed $287 $-1 #
point $-1 68.888821069978945 37.241422393002111 7.9495364527186654 #
coedge $-1 $435 $434 $290 $369 reversed $436 $-1 #
edge $-1 $374 -68.888821069978945 $370 68.888821069978945 $368 $454 forward 7 unknown #
vertex $-1 $291 $455 #
straight-curve $-1 68.888821069978945 0 15.409836157514567 0 1 0 I I #
coedge $-1 $294 $432 $435 $456 reversed $373 $-1 #
loop $-1 $-1 $432 $457 #
vertex $-1 $295 $458 #
straight-curve $-1 -68.888821069978945 0 15.409836157514567 0 -1 0 I I #
point $-1 -68.888821069978945 37.241422393002111 15.409836157514567 #
face $-1 $457 $436 $14 $-1 $421 reversed single #
loop $-1 $-1 $452 $298 #
plane-surface $-1 0 0 -15.409836157514567 0 0 1 1 0 0 forward_v I I I I #
face $-1 $459 $460 $15 $-1 $461 forward single #
loop $-1 $-1 $462 $300 #
plane-surface $-1 0 -27.899822356878555 -11.25826421866152 0 0 1 1 0 0 forward_v I I I I #
coedge $-1 $463 $464 $465 $466 reversed $301 $-1 #
coedge $-1 $467 $303 $388 $468 forward $216 $-1 #
coedge $-1 $303 $469 $308 $393 reversed $216 $-1 #
coedge $-1 $388 $304 $470 $471 reversed $218 $-1 #
edge $-1 $472 -38.953498916282769 $311 -20.917145391109592 $309 $473 forward 7 unknown #
coedge $-1 $305 $386 $384 $468 reversed $218 $-1 #
vertex $-1 $468 $474 #
straight-curve $-1 50.852467544805769 -24.507654080258902 49.599815228680725 0 0.82903756765294845 -0.55919291073839883 I I #
straight-curve $-1 50.852467544805769 37.241422393002111 81.911328272674893 0 0 -1 I I #
coedge $-1 $475 $308 $476 $477 forward $310 $-1 #
edge $-1 $312 -50.852467544805769 $478 68.888821069978945 $385 $479 forward 7 unknown #
coedge $-1 $309 $475 $480 $481 forward $310 $-1 #
face $-1 $482 $310 $15 $-1 $483 forward single #
point $-1 50.852467544805769 26.181073446412185 15.409836157514569 #
point $-1 50.852467544805769 37.241422393002111 15.409836157514567 #
point $-1 59.870644307392354 26.121793343774193 3.3929792722624357 #
coedge $-1 $322 $407 $484 $485 reversed $261 $-1 #
coedge $-1 $484 $328 $325 $401 forward $320 $-1 #
edge $-1 $330 -68.888821069978945 $402 68.888821069978945 $325 $486 forward 7 unknown #
vertex $-1 $485 $487 #
coedge $-1 $328 $484 $414 $488 forward $320 $-1 #
vertex $-1 $329 $489 #
straight-curve $-1 68.888821069978945 0 -15.409836157514567 0 -1 0 I I #
point $-1 68.888821069978945 -37.241422393002111 -15.409836157514567 #
coedge $-1 $399 $331 $490 $491 forward $261 $-1 #
coedge $-1 $333 $340 $331 $409 forward $244 $-1 #
edge $-1 $492 -37.241422393002111 $335 37.241422393002111 $331 $493 forward 7 unknown #
face $-1 $-1 $416 $13 $-1 $494 reversed single #
plane-surface $-1 -68.888821069978945 0 0 1 0 0 0 0 -1 forward_v I I I I #
straight-curve $-1 0 -37.241422393002111 15.409836157514567 1 0 0 I I #
point $-1 -68.888821069978945 -37.241422393002111 15.409836157514567 #
coedge $-1 $490 $338 $403 $488 reversed $416 $-1 #
coedge $-1 $338 $490 $340 $418 reversed $416 $-1 #
loop $-1 $-1 $338 $410 #
straight-curve $-1 68.888821069978945 37.241422393002111 0 0 0 -1 I I #
edge $-1 $341 -68.888821069978945 $492 68.888821069978945 $415 $495 forward 7 unknown #
point $-1 68.888821069978945 37.241422393002111 15.409836157514567 #
loop $-1 $-1 $426 $344 #
plane-surface $-1 0 -37.241422393002111 0 0 1 0 0 0 1 forward_v I I I I #
coedge $-1 $346 $439 $347 $425 forward $275 $-1 #
edge $-1 $359 2.3831058750644276 $429 6.7111408540862039 $356 $496 forward 7 unknown #
coedge $-1 $348 $347 $497 $498 reversed $196 $-1 #
edge $-1 $499 -68.888821069978945 $429 68.888821069978945 $422 $500 forward 7 unknown #
coedge $-1 $501 $502 $348 $427 forward $420 $-1 #
edge $-1 $430 -68.888821069978945 $503 68.888821069978945 $426 $504 forward 7 unknown #
coedge $-1 $366 $349 $502 $505 forward $287 $-1 #
vertex $-1 $350 $506 #
vertex $-1 $505 $507 #
straight-curve $-1 68.888821069978945 -13.949911178439278 -11.25826421866152 0 -1 0 I I #
coedge $-1 $372 $508 $351 $433 forward $373 $-1 #
edge $-1 $440 4.6083111423157224 $437 23.291511214562831 $432 $509 forward 7 unknown #
coedge $-1 $368 $352 $357 $442 reversed $436 $-1 #
coedge $-1 $352 $368 $372 $456 forward $436 $-1 #
loop $-1 $-1 $352 $377 #
vertex $-1 $433 $510 #
straight-curve $-1 0 -37.241422393002111 -6.9302292396397434 1 0 0 I I #
coedge $-1 $422 $354 $508 $511 reversed $275 $-1 #
vertex $-1 $433 $512 #
straight-curve $-1 0 -18.558222320755 -6.9302292396397434 -1 0 0 I I #
edge $-1 $370 -15.409836157514567 $358 6.9302292396397434 $357 $513 forward 7 unknown #
point $-1 68.888821069978945 -37.241422393002111 -6.9302292396397434 #
point $-1 68.888821069978945 -18.558222320755 -6.9302292396397434 #
coedge $-1 $452 $514 $361 $446 forward $378 $-1 #
edge $-1 $450 -68.888821069978945 $447 68.888821069978945 $361 $515 forward 7 unknown #
vertex $-1 $453 $516 #
straight-curve $-1 68.888821069978945 37.241422393002111 0 0 0 -1 I I #
coedge $-1 $517 $364 $514 $518 reversed $373 $-1 #
vertex $-1 $446 $519 #
straight-curve $-1 -68.888821069978945 37.241422393002111 0 0 0 -1 I I #
coedge $-1 $520 $445 $366 $453 forward $378 $-1 #
edge $-1 $447 -37.241422393002111 $521 37.241422393002111 $366 $522 forward 7 unknown #
straight-curve $-1 0 -37.241422393002111 15.409836157514567 1 0 0 I I #
point $-1 68.888821069978945 -37.241422393002111 15.409836157514567 #
edge $-1 $374 -15.409836157514567 $437 6.9302292396397434 $372 $523 forward 7 unknown #
face $-1 $-1 $373 $14 $-1 $524 reversed single #
point $-1 -68.888821069978945 -37.241422393002111 15.409836157514567 #
face $-1 $525 $526 $15 $-1 $527 reversed single #
loop $-1 $-1 $528 $380 #
plane-surface $-1 0 -18.558222320755 -9.0942467291506315 0 -1 0 0 0 -1 forward_v I I I I #
coedge $-1 $529 $530 $531 $532 reversed $381 $-1 #
coedge $-1 $533 $383 $534 $535 reversed $301 $-1 #
coedge $-1 $383 $533 $536 $537 reversed $301 $-1 #
coedge $-1 $538 $539 $383 $466 forward $526 $-1 #
edge $-1 $540 -23.291511214562831 $541 -4.6083111423157224 $465 $542 forward 7 unknown #
coedge $-1 $543 $384 $544 $545 forward $216 $-1 #
edge $-1 $389 20.917145391109592 $546 38.953498916282769 $384 $547 forward 7 unknown #
coedge $-1 $385 $543 $548 $549 reversed $216 $-1 #
coedge $-1 $480 $544 $386 $471 forward $526 $-1 #
edge $-1 $546 -50.45602929730898 $472 -37.114837802329582 $470 $550 forward 7 unknown #
vertex $-1 $471 $551 #
straight-curve $-1 29.935322153696177 26.181073446412185 15.409836157514569 -1 0 0 I I #
point $-1 50.852467544805769 37.241422393002111 7.949536452718668 #
coedge $-1 $394 $392 $552 $553 forward $310 $-1 #
coedge $-1 $548 $554 $392 $477 reversed $555 $-1 #
edge $-1 $478 -37.241422393002111 $556 37.241422393002111 $476 $557 forward 7 unknown #
vertex $-1 $393 $558 #
straight-curve $-1 0 37.241422393002111 15.409836157514567 -1 0 0 I I #
coedge $-1 $539 $470 $394 $481 reversed $526 $-1 #
edge $-1 $559 -37.241422393002111 $472 26.181073446412189 $480 $560 forward 7 unknown #
face $-1 $561 $562 $15 $-1 $563 reversed single #
plane-surface $-1 0 0 15.409836157514567 0 0 1 1 0 0 forward_v I I I I #
coedge $-1 $403 $400 $399 $485 forward $320 $-1 #
edge $-1 $402 -37.241422393002111 $564 37.241422393002111 $399 $565 forward 7 unknown #
straight-curve $-1 0 -37.241422393002111 -15.409836157514567 -1 0 0 I I #
point $-1 -68.888821069978945 -37.241422393002111 -15.409836157514567 #
edge $-1 $564 -68.888821069978945 $404 68.888821069978945 $414 $566 forward 7 unknown #
point $-1 68.888821069978945 37.241422393002111 -15.409836157514567 #
coedge $-1 $415 $414 $407 $491 reversed $416 $-1 #
edge $-1 $492 -15.409836157514567 $564 15.409836157514567 $490 $567 forward 7 unknown #
vertex $-1 $418 $568 #
straight-curve $-1 -68.888821069978945 0 15.409836157514567 0 -1 0 I I #
plane-surface $-1 0 37.241422393002111 0 0 -1 0 0 0 -1 forward_v I I I I #
straight-curve $-1 0 37.241422393002111 15.409836157514567 -1 0 0 I I #
straight-curve $-1 68.888821069978945 -18.558222320755 -4.5471233645753157 0 0 -1 I I #
coedge $-1 $508 $517 $424 $498 forward $373 $-1 #
edge $-1 $503 -23.291511214562831 $499 -4.6083111423157224 $497 $569 forward 7 unknown #
vertex $-1 $498 $570 #
straight-curve $-1 0 -18.558222320755 -11.25826421866152 1 0 0 I I #
coedge $-1 $571 $426 $517 $572 forward $420 $-1 #
coedge $-1 $426 $571 $428 $505 reversed $420 $-1 #
vertex $-1 $572 $573 #
straight-curve $-1 0 -37.241422393002111 -11.25826421866152 -1 0 0 I I #
edge $-1 $430 11.25826421866152 $521 15.409836157514567 $428 $513 forward 7 unknown #
point $-1 68.888821069978945 -18.558222320755 -11.25826421866152 #
point $-1 68.888821069978945 -37.241422393002111 -11.25826421866152 #
coedge $-1 $432 $497 $439 $511 forward $373 $-1 #
straight-curve $-1 -68.888821069978945 -13.949911178439278 -6.9302292396397434 0 -1 0 I I #
point $-1 -68.888821069978945 -37.241422393002111 -6.9302292396397434 #
edge $-1 $499 -6.7111408540862039 $440 -2.3831058750644276 $508 $574 forward 7 unknown #
point $-1 -68.888821069978945 -18.558222320755 -6.9302292396397434 #
straight-curve $-1 68.888821069978945 -37.241422393002111 0 0 0 -1 I I #
coedge $-1 $445 $520 $449 $518 forward $378 $-1 #
straight-curve $-1 0 37.241422393002111 -15.409836157514567 1 0 0 I I #
point $-1 68.888821069978945 37.241422393002111 -15.409836157514567 #
coedge $-1 $497 $449 $501 $572 reversed $373 $-1 #
edge $-1 $575 -37.241422393002111 $450 37.241422393002111 $449 $576 forward 7 unknown #
point $-1 -68.888821069978945 37.241422393002111 -15.409836157514567 #
coedge $-1 $514 $452 $571 $577 forward $378 $-1 #
vertex $-1 $505 $578 #
straight-curve $-1 68.888821069978945 0 -15.409836157514567 0 -1 0 I I #
straight-curve $-1 -68.888821069978945 -37.241422393002111 0 0 0 -1 I I #
plane-surface $-1 -68.888821069978945 0 0 1 0 0 0 0 -1 forward_v I I I I #
face $-1 $395 $579 $15 $-1 $580 reversed single #
loop $-1 $-1 $470 $459 #
plane-surface $-1 68.888821069978945 0 0 -1 0 0 0 0 1 forward_v I I I I #
coedge $-1 $536 $581 $538 $582 reversed $460 $-1 #
coedge $-1 $583 $462 $581 $584 reversed $381 $-1 #
coedge $-1 $462 $583 $585 $586 reversed $381 $-1 #
coedge $-1 $587 $538 $462 $532 forward $526 $-1 #
edge $-1 $588 4.6083111423157224 $589 23.291511214562831 $531 $590 forward 7 unknown #
coedge $-1 $464 $463 $591 $592 reversed $301 $-1 #
coedge $-1 $593 $594 $463 $535 forward $595 $-1 #
edge $-1 $596 -68.888821069978945 $540 68.888821069978945 $534 $597 forward 7 unknown #
coedge $-1 $598 $528 $464 $537 forward $460 $-1 #
edge $-1 $541 -68.888821069978945 $599 68.888821069978945 $536 $600 forward 7 unknown #
coedge $-1 $531 $465 $528 $582 forward $526 $-1 #
coedge $-1 $465 $480 $593 $601 forward $526 $-1 #
vertex $-1 $535 $602 #
vertex $-1 $466 $603 #
straight-curve $-1 68.888821069978945 -13.949911178439278 -6.9302292396397434 0 1 0 I I #
coedge $-1 $469 $467 $604 $605 reversed $216 $-1 #
coedge $-1 $470 $606 $467 $545 reversed $526 $-1 #
edge $-1 $546 -7.9495364527186654 $607 15.409836157514567 $544 $608 forward 7 unknown #
vertex $-1 $545 $609 #
straight-curve $-1 29.935322153696177 37.241422393002111 7.9495364527186645 1 0 0 I I #
coedge $-1 $610 $476 $469 $549 forward $555 $-1 #
edge $-1 $478 -15.409836157514567 $611 15.409836157514567 $469 $612 forward 7 unknown #
straight-curve $-1 68.888821069978945 -4.588521409064831 36.164190339782806 0 -0.82903756765294845 0.55919291073839883 I I #
point $-1 68.888821069978945 26.181073446412189 15.409836157514567 #
coedge $-1 $594 $593 $475 $553 reversed $595 $-1 #
edge $-1 $556 -68.888821069978945 $559 68.888821069978945 $552 $613 forward 7 unknown #
coedge $-1 $476 $591 $594 $614 reversed $555 $-1 #
loop $-1 $-1 $591 $615 #
vertex $-1 $477 $616 #
straight-curve $-1 -68.888821069978945 0 15.409836157514567 0 -1 0 I I #
point $-1 -68.888821069978945 37.241422393002111 15.409836157514567 #
vertex $-1 $481 $617 #
straight-curve $-1 68.888821069978945 0 15.409836157514567 0 1 0 I I #
face $-1 $615 $595 $15 $-1 $580 reversed single #
loop $-1 $-1 $618 $482 #
plane-surface $-1 0 0 -15.409836157514567 0 0 1 1 0 0 forward_v I I I I #
vertex $-1 $488 $619 #
straight-curve $-1 -68.888821069978945 0 -15.409836157514567 0 1 0 I I #
straight-curve $-1 0 37.241422393002111 -15.409836157514567 1 0 0 I I #
straight-curve $-1 -68.888821069978945 37.241422393002111 0 0 0 -1 I I #
point $-1 -68.888821069978945 37.241422393002111 15.409836157514567 #
straight-curve $-1 -68.888821069978945 -13.949911178439278 -11.25826421866152 0 1 0 I I #
point $-1 -68.888821069978945 -18.558222320755 -11.25826421866152 #
coedge $-1 $502 $501 $520 $577 reversed $420 $-1 #
edge $-1 $503 11.25826421866152 $575 15.409836157514567 $517 $523 forward 7 unknown #
point $-1 -68.888821069978945 -37.241422393002111 -11.25826421866152 #
straight-curve $-1 -68.888821069978945 -18.558222320755 -4.5471233645753157 0 0 1 I I #
vertex $-1 $518 $620 #
straight-curve $-1 -68.888821069978945 0 -15.409836157514567 0 1 0 I I #
edge $-1 $521 -68.888821069978945 $575 68.888821069978945 $571 $621 forward 7 unknown #
point $-1 68.888821069978945 -37.241422393002111 -15.409836157514567 #
loop $-1 $-1 $585 $525 #
plane-surface $-1 0 -37.241422393002111 0 0 1 0 0 0 1 forward_v I I I I #
coedge $-1 $528 $598 $529 $584 forward $460 $-1 #
edge $-1 $541 2.3831058750644276 $588 6.7111408540862039 $538 $622 forward 7 unknown #
coedge $-1 $530 $529 $623 $624 reversed $381 $-1 #
edge $-1 $625 -68.888821069978945 $588 68.888821069978945 $581 $626 forward 7 unknown #
coedge $-1 $627 $628 $530 $586 forward $579 $-1 #
edge $-1 $589 -68.888821069978945 $629 68.888821069978945 $585 $630 forward 7 unknown #
coedge $-1 $606 $531 $628 $631 forward $526 $-1 #
vertex $-1 $532 $632 #
vertex $-1 $631 $633 #
straight-curve $-1 68.888821069978945 -13.949911178439278 -11.25826421866152 0 -1 0 I I #
coedge $-1 $554 $634 $533 $592 forward $555 $-1 #
edge $-1 $599 4.6083111423157224 $596 23.291511214562831 $591 $635 forward 7 unknown #
coedge $-1 $552 $534 $539 $601 reversed $595 $-1 #
coedge $-1 $534 $552 $554 $614 forward $595 $-1 #
loop $-1 $-1 $534 $561 #
vertex $-1 $592 $636 #
straight-curve $-1 0 -37.241422393002111 -6.9302292396397434 1 0 0 I I #
coedge $-1 $581 $536 $634 $637 reversed $460 $-1 #
vertex $-1 $592 $638 #
straight-curve $-1 0 -18.558222320755 -6.9302292396397434 -1 0 0 I I #
edge $-1 $559 -15.409836157514567 $540 6.9302292396397434 $539 $639 forward 7 unknown #
point $-1 68.888821069978945 -37.241422393002111 -6.9302292396397434 #
point $-1 68.888821069978945 -18.558222320755 -6.9302292396397434 #
coedge $-1 $618 $640 $543 $605 forward $562 $-1 #
edge $-1 $611 -68.888821069978945 $607 68.888821069978945 $543 $641 forward 7 unknown #
coedge $-1 $544 $587 $618 $642 reversed $526 $-1 #
vertex $-1 $642 $643 #
straight-curve $-1 68.888821069978945 37.241422393002111 0 0 0 -1 I I #
point $-1 68.888821069978945 37.241422393002111 7.9495364527186654 #
coedge $-1 $644 $548 $640 $645 reversed $555 $-1 #
vertex $-1 $605 $646 #
straight-curve $-1 -68.888821069978945 37.241422393002111 0 0 0 -1 I I #
straight-curve $-1 0 -37.241422393002111 15.409836157514567 1 0 0 I I #
edge $-1 $556 -15.409836157514567 $596 6.9302292396397434 $554 $647 forward 7 unknown #
face $-1 $-1 $555 $15 $-1 $648 reversed single #
point $-1 -68.888821069978945 -37.241422393002111 15.409836157514567 #
point $-1 68.888821069978945 -37.241422393002111 15.409836157514567 #
coedge $-1 $649 $604 $606 $642 forward $562 $-1 #
point $-1 -68.888821069978945 37.241422393002111 -15.409836157514567 #
point $-1 -68.888821069978945 -37.241422393002111 -15.409836157514567 #
straight-curve $-1 0 -37.241422393002111 -15.409836157514567 -1 0 0 I I #
straight-curve $-1 68.888821069978945 -18.558222320755 -4.5471233645753157 0 0 -1 I I #
coedge $-1 $634 $644 $583 $624 forward $555 $-1 #
edge $-1 $629 -23.291511214562831 $625 -4.6083111423157224 $623 $650 forward 7 unknown #
vertex $-1 $624 $651 #
straight-curve $-1 0 -18.558222320755 -11.25826421866152 1 0 0 I I #
coedge $-1 $652 $585 $644 $653 forward $579 $-1 #
coedge $-1 $585 $652 $587 $631 reversed $579 $-1 #
vertex $-1 $653 $654 #
straight-curve $-1 0 -37.241422393002111 -11.25826421866152 -1 0 0 I I #
edge $-1 $589 11.25826421866152 $655 15.409836157514567 $587 $639 forward 7 unknown #
point $-1 68.888821069978945 -18.558222320755 -11.25826421866152 #
point $-1 68.888821069978945 -37.241422393002111 -11.25826421866152 #
coedge $-1 $591 $623 $598 $637 forward $555 $-1 #
straight-curve $-1 -68.888821069978945 -13.949911178439278 -6.9302292396397434 0 -1 0 I I #
point $-1 -68.888821069978945 -37.241422393002111 -6.9302292396397434 #
edge $-1 $625 -6.7111408540862039 $599 -2.3831058750644276 $634 $656 forward 7 unknown #
point $-1 -68.888821069978945 -18.558222320755 -6.9302292396397434 #
straight-curve $-1 68.888821069978945 -37.241422393002111 0 0 0 -1 I I #
coedge $-1 $604 $649 $610 $645 forward $562 $-1 #
straight-curve $-1 0 37.241422393002111 -15.409836157514567 1 0 0 I I #
edge $-1 $607 -37.241422393002111 $655 37.241422393002111 $606 $657 forward 7 unknown #
point $-1 68.888821069978945 37.241422393002111 -15.409836157514567 #
coedge $-1 $623 $610 $627 $653 reversed $555 $-1 #
edge $-1 $658 -37.241422393002111 $611 37.241422393002111 $610 $659 forward 7 unknown #
point $-1 -68.888821069978945 37.241422393002111 -15.409836157514567 #
straight-curve $-1 -68.888821069978945 -37.241422393002111 0 0 0 -1 I I #
plane-surface $-1 -68.888821069978945 0 0 1 0 0 0 0 -1 forward_v I I I I #
coedge $-1 $640 $618 $652 $660 forward $562 $-1 #
straight-curve $-1 -68.888821069978945 -13.949911178439278 -11.25826421866152 0 1 0 I I #
point $-1 -68.888821069978945 -18.558222320755 -11.25826421866152 #
coedge $-1 $628 $627 $649 $660 reversed $579 $-1 #
edge $-1 $629 11.25826421866152 $658 15.409836157514567 $644 $647 forward 7 unknown #
point $-1 -68.888821069978945 -37.241422393002111 -11.25826421866152 #
vertex $-1 $631 $661 #
straight-curve $-1 -68.888821069978945 -18.558222320755 -4.5471233645753157 0 0 1 I I #
straight-curve $-1 68.888821069978945 0 -15.409836157514567 0 -1 0 I I #
vertex $-1 $645 $662 #
straight-curve $-1 -68.888821069978945 0 -15.409836157514567 0 1 0 I I #
edge $-1 $655 -68.888821069978945 $658 68.888821069978945 $652 $663 forward 7 unknown #
point $-1 68.888821069978945 -37.241422393002111 -15.409836157514567 #
point $-1 -68.888821069978945 -37.241422393002111 -15.409836157514567 #
straight-curve $-1 0 -37.241422393002111 -15.409836157514567 -1 0 0 I I #
End-of-ACIS-data 