500 0 11 0           
7 Unknown 11 ACIS 5.0 NT 24 Thu Mar 25 15:17:50 1999 
-1 9.9999999999999995e-007 1e-010 
body $-1 $11 $-1 $12 #
body $-1 $13 $-1 $14 #
body $-1 $15 $-1 $16 #
body $-1 $17 $-1 $18 #
body $-1 $19 $-1 $20 #
body $-1 $21 $-1 $22 #
body $-1 $23 $-1 $24 #
body $-1 $25 $-1 $26 #
body $-1 $27 $-1 $28 #
body $-1 $29 $-1 $30 #
body $-1 $31 $-1 $32 #
lump $-1 $-1 $33 $0 #
transform $-1 1 0 0 0 1 0 0 0 1 56.51539658803064 24.387151662245568 7.0664464300166863 1 rotate no_reflect no_shear #
lump $-1 $-1 $34 $1 #
transform $-1 1 0 0 0 1 0 0 0 1 56.51539658803064 24.387151662245568 7.0664464300166863 1 rotate no_reflect no_shear #
lump $-1 $-1 $35 $2 #
transform $-1 1 0 0 0 1 0 0 0 1 56.51539658803064 24.387151662245568 7.0664464300166863 1 rotate no_reflect no_shear #
lump $-1 $-1 $36 $3 #
transform $-1 1 0 0 0 1 0 0 0 1 56.51539658803064 24.387151662245568 7.0664464300166863 1 rotate no_reflect no_shear #
lump $-1 $-1 $37 $4 #
transform $-1 1 0 0 0 1 0 0 0 1 56.51539658803064 24.387151662245568 7.0664464300166863 1 rotate no_reflect no_shear #
lump $-1 $-1 $38 $5 #
transform $-1 1 0 0 0 1 0 0 0 1 56.51539658803064 24.387151662245568 7.0664464300166863 1 rotate no_reflect no_shear #
lump $-1 $-1 $39 $6 #
transform $-1 1 0 0 0 1 0 0 0 1 56.51539658803064 24.387151662245568 7.0664464300166863 1 rotate no_reflect no_shear #
lump $-1 $-1 $40 $7 #
transform $-1 1 0 0 0 1 0 0 0 1 56.51539658803064 24.387151662245568 7.0664464300166863 1 rotate no_reflect no_shear #
lump $-1 $-1 $41 $8 #
transform $-1 1 0 0 0 1 0 0 0 1 56.51539658803064 24.387151662245568 7.0664464300166863 1 rotate no_reflect no_shear #
lump $-1 $-1 $42 $9 #
transform $-1 1 0 0 0 1 0 0 0 1 56.51539658803064 24.387151662245568 7.0664464300166863 1 rotate no_reflect no_shear #
lump $-1 $-1 $43 $10 #
transform $-1 1 0 0 0 1 0 0 0 1 56.51539658803064 24.387151662245568 7.0664464300166863 1 rotate no_reflect no_shear #
shell $-1 $-1 $-1 $44 $-1 $11 #
shell $-1 $-1 $-1 $45 $-1 $13 #
shell $-1 $-1 $-1 $46 $-1 $15 #
shell $-1 $-1 $-1 $47 $-1 $17 #
shell $-1 $-1 $-1 $48 $-1 $19 #
shell $-1 $-1 $-1 $49 $-1 $21 #
shell $-1 $-1 $-1 $50 $-1 $23 #
shell $-1 $-1 $-1 $51 $-1 $25 #
shell $-1 $-1 $-1 $52 $-1 $27 #
shell $-1 $-1 $-1 $53 $-1 $29 #
shell $-1 $-1 $-1 $54 $-1 $31 #
face $-1 $55 $56 $33 $-1 $57 forward single #
face $-1 $58 $59 $34 $-1 $60 forward single #
face $-1 $61 $62 $35 $-1 $63 forward single #
face $-1 $64 $65 $36 $-1 $66 reversed single #
face $-1 $67 $68 $37 $-1 $69 forward single #
face $-1 $70 $71 $38 $-1 $72 forward single #
face $-1 $73 $74 $39 $-1 $75 forward single #
face $-1 $76 $77 $40 $-1 $78 reversed single #
face $-1 $79 $80 $41 $-1 $81 forward single #
face $-1 $82 $83 $42 $-1 $84 forward single #
face $-1 $85 $86 $43 $-1 $87 forward single #
face $-1 $88 $89 $33 $-1 $90 reversed single #
loop $-1 $-1 $91 $44 #
plane-surface $-1 0 0 7.0664464300166863 0 0 1 1 0 0 forward_v I I I I #
face $-1 $92 $93 $34 $-1 $94 reversed single #
loop $-1 $-1 $95 $45 #
plane-surface $-1 0 -22.027540398318479 -3.4489658640086329 0 0 1 1 0 0 forward_v I I I I #
face $-1 $96 $97 $35 $-1 $98 reversed single #
loop $-1 $-1 $99 $46 #
plane-surface $-1 0 19.886340491883008 0.88087930657345836 0 0 1 1 0 0 forward_v I I I I #
face $-1 $100 $101 $36 $-1 $102 reversed single #
loop $-1 $-1 $103 $47 #
plane-surface $-1 39.80655671177891 6.4701650216037407 159.14985993680062 0 1 0 0.62932039886446345 0 0.77714595512881146 forward_v I I I I #
face $-1 $104 $105 $37 $-1 $106 forward single #
loop $-1 $107 $108 $48 #
cone-surface $-1 51.863645136759061 8.2532378815870864 3.1306926752295725 -0.62932039886446345 0 -0.77714595512881146 0.38857297756440573 0 -0.31466019943223172 1 I I 0 1 0.5 forward I I I I #
face $-1 $109 $110 $38 $-1 $111 forward single #
loop $-1 $112 $113 $49 #
cone-surface $-1 51.863645136759061 10.927847171562103 3.1306926752295725 -0.62932039886446345 0 -0.77714595512881146 0.38857297756440573 0 -0.31466019943223172 1 I I 0 1 0.5 forward I I I I #
face $-1 $114 $115 $39 $-1 $116 forward single #
loop $-1 $117 $118 $50 #
cone-surface $-1 51.863645136759061 13.60245646153712 3.1306926752295725 -0.62932039886446345 0 -0.77714595512881146 0.38857297756440573 0 -0.31466019943223172 1 I I 0 1 0.5 forward I I I I #
face $-1 $119 $120 $40 $-1 $121 reversed single #
loop $-1 $-1 $122 $51 #
plane-surface $-1 -150.22217189929813 -7.9565735586415514 65.472116464878169 0 -1 0 0.82903758062907751 0 -0.55919289150049634 forward_v I I I I #
face $-1 $123 $124 $41 $-1 $125 forward single #
loop $-1 $126 $127 $52 #
cone-surface $-1 -54.481940707674568 -14.370202132528229 4.3866769693390424 0.82903758062907751 0 -0.55919289150049634 0.27959644575024817 0 0.41451879031453875 1 I I 0 1 0.5 forward I I I I #
face $-1 $128 $129 $42 $-1 $130 forward single #
loop $-1 $131 $132 $53 #
cone-surface $-1 -54.481940707674568 -11.965091417320725 4.3866769693390424 0.82903758062907751 0 -0.55919289150049634 0.27959644575024817 0 0.41451879031453875 1 I I 0 1 0.5 forward I I I I #
face $-1 $133 $134 $43 $-1 $135 forward single #
loop $-1 $136 $137 $54 #
cone-surface $-1 -54.481940707674568 -9.5599807021132204 4.3866769693390424 0.82903758062907751 0 -0.55919289150049634 0.27959644575024817 0 0.41451879031453875 1 I I 0 1 0.5 forward I I I I #
face $-1 $138 $139 $33 $-1 $140 reversed single #
loop $-1 $-1 $141 $55 #
plane-surface $-1 0 0 -7.0664464300166863 0 0 1 1 0 0 forward_v I I I I #
coedge $-1 $142 $143 $144 $145 forward $56 $-1 #
face $-1 $146 $147 $34 $-1 $148 reversed single #
loop $-1 $-1 $149 $58 #
plane-surface $-1 0 -19.66792913439139 -5.2577061470126596 0 -1 0 0 0 -1 forward_v I I I I #
coedge $-1 $150 $151 $152 $153 reversed $59 $-1 #
face $-1 $154 $155 $35 $-1 $156 reversed single #
loop $-1 $-1 $157 $61 #
plane-surface $-1 0 19.886340491883008 -2.5081769282882078 0 0 1 1 0 0 forward_v I I I I #
coedge $-1 $158 $159 $160 $161 reversed $62 $-1 #
face $-1 $162 $163 $36 $-1 $164 reversed single #
loop $-1 $-1 $165 $64 #
plane-surface $-1 -31.326027133746649 10.927847171562096 71.308436215023335 0.62932039886446345 0 0.77714595512881146 0.77714595512881146 0 -0.62932039886446345 forward_v I I I I #
coedge $-1 $166 $167 $168 $169 reversed $65 $-1 #
face $-1 $-1 $170 $37 $-1 $171 forward single #
loop $-1 $172 $173 $67 #
cone-surface $-1 51.309151004381491 8.2532378815870864 2.4459494619197208 -0.62932039886446345 0 -0.77714595512881146 0.19428648878220287 0 -0.15733009971611586 1 I I -0.70710678118654746 0.70710678118654746 0.25 forward I I I I #
loop $-1 $-1 $174 $48 #
coedge $-1 $108 $108 $175 $176 reversed $68 $-1 #
face $-1 $-1 $177 $38 $-1 $178 forward single #
loop $-1 $179 $180 $70 #
cone-surface $-1 51.309151004381491 10.927847171562103 2.4459494619197208 -0.62932039886446345 0 -0.77714595512881146 0.19428648878220287 0 -0.15733009971611586 1 I I -0.70710678118654746 0.70710678118654746 0.25 forward I I I I #
loop $-1 $-1 $181 $49 #
coedge $-1 $113 $113 $182 $183 reversed $71 $-1 #
face $-1 $-1 $184 $39 $-1 $185 forward single #
loop $-1 $186 $187 $73 #
cone-surface $-1 51.309151004381491 13.60245646153712 2.4459494619197208 -0.62932039886446345 0 -0.77714595512881146 0.19428648878220287 0 -0.15733009971611586 1 I I -0.70710678118654746 0.70710678118654746 0.25 forward I I I I #
loop $-1 $-1 $188 $50 #
coedge $-1 $118 $118 $189 $190 reversed $74 $-1 #
face $-1 $191 $192 $40 $-1 $193 reversed single #
loop $-1 $-1 $194 $76 #
plane-surface $-1 -56.51539658803064 -11.965091417320725 2.2661004001618892 -0.82903758062907751 0 0.55919289150049634 0.55919289150049634 0 0.82903758062907751 forward_v I I I I #
coedge $-1 $195 $196 $197 $198 reversed $77 $-1 #
face $-1 $-1 $199 $41 $-1 $200 forward single #
loop $-1 $201 $202 $79 #
cone-surface $-1 -53.860162522202756 -14.370202132528229 3.9672823007136699 0.82903758062907751 0 -0.55919289150049634 0.13979822287512408 0 0.20725939515726938 1 I I -0.70710678118654746 0.70710678118654746 0.25 forward I I I I #
loop $-1 $-1 $203 $52 #
coedge $-1 $127 $127 $204 $205 reversed $80 $-1 #
face $-1 $-1 $206 $42 $-1 $207 forward single #
loop $-1 $208 $209 $82 #
cone-surface $-1 -53.860162522202756 -11.965091417320725 3.9672823007136699 0.82903758062907751 0 -0.55919289150049634 0.13979822287512408 0 0.20725939515726938 1 I I -0.70710678118654746 0.70710678118654746 0.25 forward I I I I #
loop $-1 $-1 $210 $53 #
coedge $-1 $132 $132 $211 $212 reversed $83 $-1 #
face $-1 $-1 $213 $43 $-1 $214 forward single #
loop $-1 $215 $216 $85 #
cone-surface $-1 -53.860162522202756 -9.5599807021132204 3.9672823007136699 0.82903758062907751 0 -0.55919289150049634 0.13979822287512408 0 0.20725939515726938 1 I I -0.70710678118654746 0.70710678118654746 0.25 forward I I I I #
loop $-1 $-1 $217 $54 #
coedge $-1 $137 $137 $218 $219 reversed $86 $-1 #
face $-1 $220 $221 $33 $-1 $222 reversed single #
loop $-1 $-1 $223 $88 #
plane-surface $-1 0 -24.387151662245568 0 0 1 0 0 0 1 forward_v I I I I #
coedge $-1 $224 $225 $226 $227 forward $89 $-1 #
coedge $-1 $228 $91 $229 $230 forward $56 $-1 #
coedge $-1 $91 $228 $231 $232 forward $56 $-1 #
coedge $-1 $233 $234 $91 $145 reversed $235 $-1 #
edge $-1 $236 -24.387151662245568 $237 24.387151662245568 $144 $238 forward 7 unknown #
face $-1 $239 $240 $34 $-1 $241 reversed single #
loop $-1 $-1 $242 $92 #
plane-surface $-1 0 0 -7.0664464300166863 0 0 1 1 0 0 forward_v I I I I #
coedge $-1 $243 $244 $245 $246 reversed $93 $-1 #
coedge $-1 $247 $95 $244 $248 forward $59 $-1 #
coedge $-1 $95 $247 $249 $250 reversed $59 $-1 #
coedge $-1 $251 $245 $95 $153 forward $240 $-1 #
edge $-1 $252 8.6541589352321502 $253 13.373381463086329 $152 $254 forward 7 unknown #
face $-1 $255 $256 $35 $-1 $257 reversed single #
loop $-1 $-1 $258 $96 #
plane-surface $-1 0 15.385529321520451 -0.81364881085737473 0 1 0 0 0 1 forward_v I I I I #
coedge $-1 $259 $260 $261 $262 reversed $97 $-1 #
coedge $-1 $263 $99 $264 $265 reversed $62 $-1 #
coedge $-1 $99 $263 $266 $267 forward $62 $-1 #
coedge $-1 $268 $269 $99 $161 forward $256 $-1 #
edge $-1 $270 -14.443981416304061 $271 -5.4423590755789473 $160 $272 forward 7 unknown #
face $-1 $273 $274 $36 $-1 $275 forward single #
loop $-1 $-1 $276 $100 #
plane-surface $-1 56.51539658803064 0 0 -1 0 0 0 0 1 forward_v I I I I #
coedge $-1 $277 $278 $279 $280 reversed $101 $-1 #
coedge $-1 $167 $103 $281 $282 reversed $65 $-1 #
coedge $-1 $103 $166 $277 $283 reversed $65 $-1 #
coedge $-1 $279 $284 $103 $169 forward $163 $-1 #
edge $-1 $285 72.508483538383629 $286 79.399077598902537 $168 $287 forward 7 unknown #
loop $-1 $-1 $175 $104 #
plane-surface $-1 -31.326027133746649 10.927847171562096 71.308436215023335 0.62932039886446345 0 0.77714595512881146 0.77714595512881146 0 -0.62932039886446345 forward_v I I I I #
loop $-1 $-1 $288 $67 #
coedge $-1 $173 $173 $174 $289 reversed $105 $-1 #
coedge $-1 $174 $174 $173 $289 forward $107 $-1 #
coedge $-1 $175 $175 $108 $176 forward $170 $-1 #
edge $-1 $290 0 $290 6.2831853071796004 $175 $291 forward 7 unknown #
loop $-1 $-1 $182 $109 #
plane-surface $-1 -31.326027133746649 10.927847171562096 71.308436215023335 0.62932039886446345 0 0.77714595512881146 0.77714595512881146 0 -0.62932039886446345 forward_v I I I I #
loop $-1 $-1 $292 $70 #
coedge $-1 $180 $180 $181 $293 reversed $110 $-1 #
coedge $-1 $181 $181 $180 $293 forward $112 $-1 #
coedge $-1 $182 $182 $113 $183 forward $177 $-1 #
edge $-1 $294 0 $294 6.2831853071796004 $182 $295 forward 7 unknown #
loop $-1 $-1 $189 $114 #
plane-surface $-1 -31.326027133746649 10.927847171562096 71.308436215023335 0.62932039886446345 0 0.77714595512881146 0.77714595512881146 0 -0.62932039886446345 forward_v I I I I #
loop $-1 $-1 $296 $73 #
coedge $-1 $187 $187 $188 $297 reversed $115 $-1 #
coedge $-1 $188 $188 $187 $297 forward $117 $-1 #
coedge $-1 $189 $189 $118 $190 forward $184 $-1 #
edge $-1 $298 0 $298 6.2831853071796004 $189 $299 forward 7 unknown #
face $-1 $300 $301 $40 $-1 $302 reversed single #
loop $-1 $-1 $303 $119 #
plane-surface $-1 -150.22217189929813 -15.973609275999898 65.472116464878169 0 1 0 -0.82903758062907751 0 0.55919289150049634 forward_v I I I I #
coedge $-1 $304 $305 $306 $307 reversed $120 $-1 #
coedge $-1 $196 $122 $308 $309 reversed $77 $-1 #
coedge $-1 $122 $195 $304 $310 reversed $77 $-1 #
coedge $-1 $306 $311 $122 $198 forward $301 $-1 #
edge $-1 $312 25.669611802422398 $313 30.469957832277196 $197 $314 forward 7 unknown #
loop $-1 $-1 $204 $123 #
plane-surface $-1 -56.51539658803064 -11.965091417320725 2.2661004001618892 -0.82903758062907751 0 0.55919289150049634 0.55919289150049634 0 0.82903758062907751 forward_v I I I I #
loop $-1 $-1 $315 $79 #
coedge $-1 $202 $202 $203 $316 reversed $124 $-1 #
coedge $-1 $203 $203 $202 $316 forward $126 $-1 #
coedge $-1 $204 $204 $127 $205 forward $199 $-1 #
edge $-1 $317 0 $317 6.2831853071796004 $204 $318 forward 7 unknown #
loop $-1 $-1 $211 $128 #
plane-surface $-1 -56.51539658803064 -11.965091417320725 2.2661004001618892 -0.82903758062907751 0 0.55919289150049634 0.55919289150049634 0 0.82903758062907751 forward_v I I I I #
loop $-1 $-1 $319 $82 #
coedge $-1 $209 $209 $210 $320 reversed $129 $-1 #
coedge $-1 $210 $210 $209 $320 forward $131 $-1 #
coedge $-1 $211 $211 $132 $212 forward $206 $-1 #
edge $-1 $321 0 $321 6.2831853071796004 $211 $322 forward 7 unknown #
loop $-1 $-1 $218 $133 #
plane-surface $-1 -56.51539658803064 -11.965091417320725 2.2661004001618892 -0.82903758062907751 0 0.55919289150049634 0.55919289150049634 0 0.82903758062907751 forward_v I I I I #
loop $-1 $-1 $323 $85 #
coedge $-1 $216 $216 $217 $324 reversed $134 $-1 #
coedge $-1 $217 $217 $216 $324 forward $136 $-1 #
coedge $-1 $218 $218 $137 $219 forward $213 $-1 #
edge $-1 $325 0 $325 6.2831853071796004 $218 $326 forward 7 unknown #
face $-1 $327 $328 $33 $-1 $329 reversed single #
loop $-1 $-1 $330 $138 #
plane-surface $-1 -56.51539658803064 0 0 1 0 0 0 0 -1 forward_v I I I I #
coedge $-1 $331 $231 $332 $333 forward $139 $-1 #
coedge $-1 $334 $141 $331 $335 forward $89 $-1 #
coedge $-1 $141 $334 $336 $337 forward $89 $-1 #
coedge $-1 $234 $233 $141 $227 reversed $235 $-1 #
edge $-1 $338 -24.387151662245568 $339 24.387151662245568 $226 $340 forward 7 unknown #
coedge $-1 $143 $142 $341 $342 forward $56 $-1 #
coedge $-1 $343 $344 $142 $230 reversed $328 $-1 #
edge $-1 $237 -56.51539658803064 $345 56.51539658803064 $229 $346 forward 7 unknown #
coedge $-1 $223 $347 $143 $232 reversed $139 $-1 #
edge $-1 $348 -56.51539658803064 $236 56.51539658803064 $231 $349 forward 7 unknown #
coedge $-1 $226 $144 $347 $350 forward $235 $-1 #
coedge $-1 $144 $226 $343 $351 reversed $235 $-1 #
loop $-1 $-1 $233 $327 #
vertex $-1 $145 $352 #
vertex $-1 $145 $353 #
straight-curve $-1 56.51539658803064 0 7.0664464300166863 0 1 0 I I #
face $-1 $354 $355 $34 $-1 $356 reversed single #
loop $-1 $-1 $245 $146 #
plane-surface $-1 56.51539658803064 0 0 -1 0 0 0 0 1 forward_v I I I I #
coedge $-1 $357 $358 $243 $359 forward $147 $-1 #
coedge $-1 $360 $149 $242 $359 reversed $93 $-1 #
coedge $-1 $149 $360 $150 $248 reversed $93 $-1 #
coedge $-1 $152 $361 $149 $246 forward $240 $-1 #
edge $-1 $362 -4.4375933565103569 $252 -0.82011279050230312 $245 $363 forward 7 unknown #
coedge $-1 $151 $150 $364 $365 reversed $59 $-1 #
edge $-1 $252 -56.51539658803064 $366 56.51539658803064 $244 $367 forward 7 unknown #
coedge $-1 $368 $369 $151 $250 forward $355 $-1 #
edge $-1 $253 -56.51539658803064 $370 56.51539658803064 $249 $371 forward 7 unknown #
coedge $-1 $361 $152 $369 $372 forward $240 $-1 #
vertex $-1 $153 $373 #
vertex $-1 $372 $374 #
straight-curve $-1 56.51539658803064 -11.013770199159239 -3.4489658640086329 0 -1 0 I I #
face $-1 $375 $376 $35 $-1 $377 reversed single #
loop $-1 $-1 $160 $154 #
plane-surface $-1 56.51539658803064 0 0 -1 0 0 0 0 1 forward_v I I I I #
coedge $-1 $378 $266 $379 $380 reversed $155 $-1 #
coedge $-1 $381 $157 $378 $382 forward $97 $-1 #
coedge $-1 $157 $381 $383 $384 reversed $97 $-1 #
coedge $-1 $269 $268 $157 $262 forward $256 $-1 #
edge $-1 $385 5.4423590755789473 $386 14.443981416304061 $261 $387 forward 7 unknown #
coedge $-1 $159 $158 $388 $389 reversed $62 $-1 #
coedge $-1 $390 $391 $158 $265 forward $392 $-1 #
edge $-1 $393 -56.51539658803064 $270 56.51539658803064 $264 $394 forward 7 unknown #
coedge $-1 $258 $395 $159 $267 reversed $155 $-1 #
edge $-1 $396 -56.51539658803064 $271 56.51539658803064 $266 $397 forward 7 unknown #
coedge $-1 $261 $160 $395 $398 forward $256 $-1 #
coedge $-1 $160 $261 $390 $399 reversed $256 $-1 #
vertex $-1 $399 $400 #
vertex $-1 $161 $401 #
straight-curve $-1 56.51539658803064 9.9431702459415039 0.88087930657345836 0 -1 0 I I #
face $-1 $-1 $402 $36 $-1 $403 forward single #
loop $-1 $-1 $404 $162 #
plane-surface $-1 0 0 7.0664464300166863 0 0 1 1 0 0 forward_v I I I I #
coedge $-1 $284 $279 $405 $406 forward $163 $-1 #
coedge $-1 $407 $165 $167 $283 forward $101 $-1 #
coedge $-1 $165 $407 $408 $409 forward $101 $-1 #
coedge $-1 $276 $168 $165 $280 forward $163 $-1 #
edge $-1 $286 1.0062414358226928 $410 9.9216057357394032 $279 $411 forward 7 unknown #
coedge $-1 $412 $413 $166 $282 forward $274 $-1 #
edge $-1 $414 28.10294339492097 $285 36.612118232141185 $281 $415 forward 7 unknown #
edge $-1 $286 -113.03079317606128 $414 -102.08153096725286 $167 $416 forward 7 unknown #
coedge $-1 $168 $276 $412 $417 reversed $163 $-1 #
vertex $-1 $417 $418 #
vertex $-1 $169 $419 #
straight-curve $-1 56.51539658803064 6.4701650216037407 79.574929968400312 0 0 -1 I I #
coedge $-1 $288 $288 $-1 $420 reversed $172 $-1 #
edge $-1 $421 0 $421 6.2831853071796004 $173 $422 forward 7 unknown #
vertex $-1 $176 $423 #
ellipse-curve $-1 52.260809169420526 8.2532378815870864 3.6211493997572353 0.62932039886446345 0 0.77714595512881146 0.38857297756440573 0 -0.31466019943223172 1 I I #
coedge $-1 $292 $292 $-1 $424 reversed $179 $-1 #
edge $-1 $425 0 $425 6.2831853071796004 $180 $426 forward 7 unknown #
vertex $-1 $183 $427 #
ellipse-curve $-1 52.260809169420526 10.927847171562103 3.6211493997572353 0.62932039886446345 0 0.77714595512881146 0.38857297756440573 0 -0.31466019943223172 1 I I #
coedge $-1 $296 $296 $-1 $428 reversed $186 $-1 #
edge $-1 $429 0 $429 6.2831853071796004 $187 $430 forward 7 unknown #
vertex $-1 $190 $431 #
ellipse-curve $-1 52.260809169420526 13.60245646153712 3.6211493997572353 0.62932039886446345 0 0.77714595512881146 0.38857297756440573 0 -0.31466019943223172 1 I I #
face $-1 $-1 $432 $40 $-1 $433 forward single #
loop $-1 $-1 $197 $191 #
plane-surface $-1 -56.51539658803064 0 0 1 0 0 0 0 -1 forward_v I I I I #
coedge $-1 $434 $435 $436 $437 reversed $192 $-1 #
coedge $-1 $438 $194 $196 $310 forward $120 $-1 #
coedge $-1 $194 $438 $434 $439 forward $120 $-1 #
coedge $-1 $436 $197 $194 $307 forward $301 $-1 #
edge $-1 $313 1.974027849981189 $440 9.9910635673395358 $306 $441 forward 7 unknown #
coedge $-1 $442 $443 $195 $309 forward $432 $-1 #
edge $-1 $444 -21.833563541701501 $312 -18.595689361618426 $308 $445 forward 7 unknown #
edge $-1 $313 0 $444 5.7902634838486726 $196 $446 forward 7 unknown #
coedge $-1 $197 $436 $442 $447 reversed $301 $-1 #
vertex $-1 $447 $448 #
vertex $-1 $198 $449 #
straight-curve $-1 -56.51539658803064 -7.9565735586415514 32.736058232439085 0 0 -1 I I #
coedge $-1 $315 $315 $-1 $450 reversed $201 $-1 #
edge $-1 $451 0 $451 6.2831853071796004 $202 $452 forward 7 unknown #
vertex $-1 $205 $453 #
ellipse-curve $-1 -54.896459497989099 -14.370202132528229 4.6662734150892877 -0.82903758062907751 0 0.55919289150049634 0.27959644575024817 0 0.41451879031453875 1 I I #
coedge $-1 $319 $319 $-1 $454 reversed $208 $-1 #
edge $-1 $455 0 $455 6.2831853071796004 $209 $456 forward 7 unknown #
vertex $-1 $212 $457 #
ellipse-curve $-1 -54.896459497989099 -11.965091417320725 4.6662734150892877 -0.82903758062907751 0 0.55919289150049634 0.27959644575024817 0 0.41451879031453875 1 I I #
coedge $-1 $323 $323 $-1 $458 reversed $215 $-1 #
edge $-1 $459 0 $459 6.2831853071796004 $216 $460 forward 7 unknown #
vertex $-1 $219 $461 #
ellipse-curve $-1 -54.896459497989099 -9.5599807021132204 4.6662734150892877 -0.82903758062907751 0 0.55919289150049634 0.27959644575024817 0 0.41451879031453875 1 I I #
face $-1 $-1 $235 $33 $-1 $462 reversed single #
loop $-1 $-1 $343 $220 #
plane-surface $-1 0 24.387151662245568 0 0 -1 0 0 0 -1 forward_v I I I I #
coedge $-1 $463 $341 $344 $464 forward $221 $-1 #
coedge $-1 $347 $223 $224 $335 reversed $139 $-1 #
coedge $-1 $341 $463 $223 $333 reversed $221 $-1 #
edge $-1 $348 -7.0664464300166863 $465 7.0664464300166863 $332 $466 forward 7 unknown #
coedge $-1 $225 $224 $463 $467 forward $89 $-1 #
edge $-1 $339 -56.51539658803064 $465 56.51539658803064 $331 $468 forward 7 unknown #
coedge $-1 $344 $343 $225 $337 reversed $328 $-1 #
edge $-1 $469 -56.51539658803064 $338 56.51539658803064 $336 $470 forward 7 unknown #
vertex $-1 $227 $471 #
vertex $-1 $350 $472 #
straight-curve $-1 56.51539658803064 0 -7.0664464300166863 0 -1 0 I I #
coedge $-1 $330 $332 $228 $342 reversed $221 $-1 #
edge $-1 $345 -24.387151662245568 $348 24.387151662245568 $341 $473 forward 7 unknown #
coedge $-1 $336 $229 $234 $351 forward $328 $-1 #
coedge $-1 $229 $336 $330 $464 reversed $328 $-1 #
vertex $-1 $230 $474 #
straight-curve $-1 0 24.387151662245568 7.0664464300166863 -1 0 0 I I #
coedge $-1 $231 $331 $233 $350 reversed $139 $-1 #
vertex $-1 $342 $475 #
straight-curve $-1 0 -24.387151662245568 7.0664464300166863 1 0 0 I I #
edge $-1 $236 -7.0664464300166863 $339 7.0664464300166863 $233 $476 forward 7 unknown #
edge $-1 $237 -7.0664464300166863 $338 7.0664464300166863 $234 $477 forward 7 unknown #
point $-1 56.51539658803064 -24.387151662245568 7.0664464300166863 #
point $-1 56.51539658803064 24.387151662245568 7.0664464300166863 #
face $-1 $-1 $478 $34 $-1 $479 reversed single #
loop $-1 $-1 $249 $239 #
plane-surface $-1 0 -24.387151662245568 0 0 1 0 0 0 1 forward_v I I I I #
coedge $-1 $480 $242 $361 $481 forward $147 $-1 #
coedge $-1 $242 $480 $482 $483 forward $147 $-1 #
edge $-1 $484 -56.51539658803064 $362 56.51539658803064 $242 $485 forward 7 unknown #
coedge $-1 $244 $243 $486 $487 reversed $93 $-1 #
coedge $-1 $245 $251 $357 $481 reversed $240 $-1 #
vertex $-1 $481 $488 #
straight-curve $-1 56.51539658803064 -19.66792913439139 -2.6288530735063298 0 0 1 I I #
coedge $-1 $486 $489 $247 $365 forward $478 $-1 #
edge $-1 $370 -13.373381463086329 $366 -8.6541589352321502 $364 $490 forward 7 unknown #
vertex $-1 $365 $491 #
straight-curve $-1 0 -19.66792913439139 -3.4489658640086329 -1 0 0 I I #
coedge $-1 $492 $249 $489 $493 forward $355 $-1 #
coedge $-1 $249 $492 $251 $372 reversed $355 $-1 #
vertex $-1 $493 $494 #
straight-curve $-1 0 -24.387151662245568 -3.4489658640086329 -1 0 0 I I #
edge $-1 $253 3.4489658640086329 $495 7.0664464300166863 $251 $496 forward 7 unknown #
point $-1 56.51539658803064 -19.66792913439139 -3.4489658640086329 #
point $-1 56.51539658803064 -24.387151662245568 -3.4489658640086329 #
face $-1 $-1 $392 $35 $-1 $497 reversed single #
loop $-1 $-1 $388 $255 #
plane-surface $-1 -56.51539658803064 0 0 1 0 0 0 0 -1 forward_v I I I I #
coedge $-1 $395 $258 $259 $382 reversed $155 $-1 #
coedge $-1 $388 $498 $258 $380 forward $376 $-1 #
edge $-1 $499 -2.1013525228595205 $396 1.2877037120021457 $379 $500 forward 7 unknown #
coedge $-1 $260 $259 $498 $501 reversed $97 $-1 #
edge $-1 $385 -56.51539658803064 $499 56.51539658803064 $378 $502 forward 7 unknown #
coedge $-1 $391 $390 $260 $384 forward $392 $-1 #
edge $-1 $386 -56.51539658803064 $503 56.51539658803064 $383 $504 forward 7 unknown #
vertex $-1 $262 $505 #
vertex $-1 $384 $506 #
straight-curve $-1 56.51539658803064 9.9431702459415039 -2.5081769282882078 0 1 0 I I #
coedge $-1 $507 $379 $263 $389 forward $376 $-1 #
edge $-1 $396 5.4423590755789473 $393 14.443981416304061 $388 $508 forward 7 unknown #
coedge $-1 $383 $264 $269 $399 forward $392 $-1 #
coedge $-1 $264 $383 $507 $509 reversed $392 $-1 #
loop $-1 $-1 $264 $375 #
vertex $-1 $509 $510 #
straight-curve $-1 0 24.387151662245568 0.88087930657345836 1 0 0 I I #
coedge $-1 $266 $378 $268 $398 reversed $155 $-1 #
vertex $-1 $389 $511 #
straight-curve $-1 0 15.385529321520451 0.88087930657345836 1 0 0 I I #
edge $-1 $271 -1.2877037120021457 $385 2.1013525228595205 $268 $512 forward 7 unknown #
edge $-1 $270 -0.88087930657345836 $386 2.5081769282882078 $269 $513 forward 7 unknown #
point $-1 56.51539658803064 24.387151662245564 0.88087930657345836 #
point $-1 56.51539658803064 15.385529321520451 0.88087930657345836 #
loop $-1 $-1 $408 $273 #
plane-surface $-1 0 15.385529321520451 -0.81364881085737473 0 1 0 0 0 1 forward_v I I I I #
coedge $-1 $413 $412 $514 $515 forward $274 $-1 #
coedge $-1 $408 $514 $276 $406 reversed $402 $-1 #
edge $-1 $410 -79.399077598902522 $516 -72.508483538383629 $276 $517 forward 7 unknown #
coedge $-1 $278 $277 $413 $518 reversed $101 $-1 #
coedge $-1 $514 $405 $278 $409 reversed $402 $-1 #
edge $-1 $519 102.08153096725286 $410 113.03079317606128 $408 $520 forward 7 unknown #
vertex $-1 $406 $521 #
straight-curve $-1 56.51539658803064 5.463923585781048 0.17585236949778249 0 1 0 I I #
coedge $-1 $404 $281 $284 $417 forward $274 $-1 #
coedge $-1 $281 $404 $407 $518 forward $274 $-1 #
vertex $-1 $282 $522 #
straight-curve $-1 19.903278355889455 6.4701650216037407 7.0664464300166827 1 0 0 I I #
straight-curve $-1 -31.326027133746649 6.4701650216037407 71.308436215023335 -0.77714595512881146 0 0.62932039886446345 I I #
edge $-1 $285 6.4701650216037407 $516 15.385529321520451 $284 $523 forward 7 unknown #
point $-1 56.51539658803064 6.4701650216037407 7.0664464300166863 #
point $-1 56.51539658803064 6.4701650216037407 0.17585236949777538 #
edge $-1 $524 1 $524 0 $288 $-1 forward 7 unknown #
vertex $-1 $289 $525 #
ellipse-curve $-1 51.466481104097603 8.2532378815870864 2.6402359507019235 0.62932039886446345 0 0.77714595512881146 0.38857297756440573 0 -0.31466019943223172 1 I I #
point $-1 52.649382146984927 8.2532378815870864 3.3064892003249899 #
edge $-1 $526 1 $526 0 $292 $-1 forward 7 unknown #
vertex $-1 $293 $527 #
ellipse-curve $-1 51.466481104097603 10.927847171562103 2.6402359507019235 0.62932039886446345 0 0.77714595512881146 0.38857297756440573 0 -0.31466019943223172 1 I I #
point $-1 52.649382146984927 10.927847171562103 3.3064892003249899 #
edge $-1 $528 1 $528 0 $296 $-1 forward 7 unknown #
vertex $-1 $297 $529 #
ellipse-curve $-1 51.466481104097603 13.60245646153712 2.6402359507019235 0.62932039886446345 0 0.77714595512881146 0.38857297756440573 0 -0.31466019943223172 1 I I #
point $-1 52.649382146984927 13.60245646153712 3.3064892003249899 #
loop $-1 $-1 $308 $300 #
plane-surface $-1 0 0 7.0664464300166863 0 0 1 1 0 0 forward_v I I I I #
coedge $-1 $435 $303 $305 $439 reversed $192 $-1 #
coedge $-1 $303 $434 $530 $531 reversed $192 $-1 #
coedge $-1 $311 $306 $303 $437 forward $301 $-1 #
edge $-1 $440 -30.469957832277196 $532 -25.669611802422398 $436 $533 forward 7 unknown #
coedge $-1 $305 $304 $443 $534 reversed $120 $-1 #
edge $-1 $535 -5.7902634838486726 $440 0 $434 $536 forward 7 unknown #
vertex $-1 $307 $537 #
straight-curve $-1 -56.51539658803064 -5.9825457086603624 2.2661004001618932 0 -1 0 I I #
coedge $-1 $530 $308 $311 $447 forward $432 $-1 #
coedge $-1 $308 $530 $438 $534 forward $432 $-1 #
vertex $-1 $309 $538 #
straight-curve $-1 -75.111085949649066 -7.9565735586415514 7.0664464300166863 -1 0 0 I I #
straight-curve $-1 -56.51539658803064 -7.9565735586415514 2.2661004001618892 0.55919289150049634 0 0.82903758062907751 I I #
edge $-1 $312 7.9565735586415514 $532 15.973609275999898 $311 $539 forward 7 unknown #
point $-1 -56.51539658803064 -7.9565735586415514 7.0664464300166863 #
point $-1 -56.51539658803064 -7.9565735586415514 2.2661004001618892 #
edge $-1 $540 1 $540 0 $315 $-1 forward 7 unknown #
vertex $-1 $316 $541 #
ellipse-curve $-1 -54.067421917360029 -14.370202132528229 4.1070805235887944 -0.82903758062907751 0 0.55919289150049634 0.27959644575024817 0 0.41451879031453875 1 I I #
point $-1 -54.616863052238855 -14.370202132528229 5.0807922054038297 #
edge $-1 $542 1 $542 0 $319 $-1 forward 7 unknown #
vertex $-1 $320 $543 #
ellipse-curve $-1 -54.067421917360029 -11.965091417320725 4.1070805235887944 -0.82903758062907751 0 0.55919289150049634 0.27959644575024817 0 0.41451879031453875 1 I I #
point $-1 -54.616863052238855 -11.965091417320725 5.0807922054038297 #
edge $-1 $544 1 $544 0 $323 $-1 forward 7 unknown #
vertex $-1 $324 $545 #
ellipse-curve $-1 -54.067421917360029 -9.5599807021132204 4.1070805235887944 -0.82903758062907751 0 0.55919289150049634 0.27959644575024817 0 0.41451879031453875 1 I I #
point $-1 -54.616863052238855 -9.5599807021132204 5.0807922054038297 #
plane-surface $-1 56.51539658803064 0 0 -1 0 0 0 0 1 forward_v I I I I #
coedge $-1 $332 $330 $334 $467 reversed $221 $-1 #
edge $-1 $345 -7.0664464300166863 $469 7.0664464300166863 $344 $546 forward 7 unknown #
vertex $-1 $467 $547 #
straight-curve $-1 -56.51539658803064 -24.387151662245568 0 0 0 -1 I I #
edge $-1 $465 -24.387151662245568 $469 24.387151662245568 $463 $548 forward 7 unknown #
straight-curve $-1 0 -24.387151662245568 -7.0664464300166863 -1 0 0 I I #
vertex $-1 $337 $549 #
straight-curve $-1 0 24.387151662245568 -7.0664464300166863 1 0 0 I I #
point $-1 56.51539658803064 24.387151662245568 -7.0664464300166863 #
point $-1 56.51539658803064 -24.387151662245568 -7.0664464300166863 #
straight-curve $-1 -56.51539658803064 0 7.0664464300166863 0 -1 0 I I #
point $-1 -56.51539658803064 24.387151662245568 7.0664464300166863 #
point $-1 -56.51539658803064 -24.387151662245568 7.0664464300166863 #
straight-curve $-1 56.51539658803064 -24.387151662245568 0 0 0 -1 I I #
straight-curve $-1 56.51539658803064 24.387151662245568 0 0 0 -1 I I #
loop $-1 $-1 $486 $354 #
plane-surface $-1 -56.51539658803064 0 0 1 0 0 0 0 -1 forward_v I I I I #
coedge $-1 $358 $357 $492 $550 forward $147 $-1 #
edge $-1 $362 19.66792913439139 $495 24.387151662245568 $361 $551 forward 7 unknown #
coedge $-1 $489 $486 $358 $483 reversed $478 $-1 #
edge $-1 $552 -24.387151662245568 $484 -19.66792913439139 $482 $553 forward 7 unknown #
vertex $-1 $487 $554 #
straight-curve $-1 0 -19.66792913439139 -7.0664464300166863 1 0 0 I I #
coedge $-1 $482 $364 $360 $487 forward $478 $-1 #
edge $-1 $366 0.82011279050230312 $484 4.4375933565103569 $486 $555 forward 7 unknown #
point $-1 56.51539658803064 -19.66792913439139 -7.0664464300166863 #
coedge $-1 $364 $482 $368 $493 reversed $478 $-1 #
straight-curve $-1 -56.51539658803064 -11.013770199159239 -3.4489658640086329 0 1 0 I I #
point $-1 -56.51539658803064 -19.66792913439139 -3.4489658640086329 #
coedge $-1 $369 $368 $480 $550 reversed $355 $-1 #
edge $-1 $370 3.4489658640086329 $552 7.0664464300166863 $489 $556 forward 7 unknown #
point $-1 -56.51539658803064 -24.387151662245568 -3.4489658640086329 #
vertex $-1 $372 $557 #
straight-curve $-1 56.51539658803064 -24.387151662245568 0 0 0 -1 I I #
plane-surface $-1 0 24.387151662245568 0 0 -1 0 0 0 -1 forward_v I I I I #
coedge $-1 $379 $507 $381 $501 forward $376 $-1 #
vertex $-1 $501 $558 #
straight-curve $-1 -56.51539658803064 15.385529321520451 -0.40682440542868736 0 0 1 I I #
edge $-1 $503 -14.443981416304061 $499 -5.4423590755789473 $498 $559 forward 7 unknown #
straight-curve $-1 0 15.385529321520451 -2.5081769282882078 -1 0 0 I I #
vertex $-1 $384 $560 #
straight-curve $-1 0 24.387151662245568 -2.5081769282882078 -1 0 0 I I #
point $-1 56.51539658803064 15.385529321520451 -2.5081769282882078 #
point $-1 56.51539658803064 24.387151662245564 -2.5081769282882078 #
coedge $-1 $498 $388 $391 $509 forward $376 $-1 #
straight-curve $-1 -56.51539658803064 9.9431702459415039 0.88087930657345836 0 1 0 I I #
edge $-1 $393 -0.88087930657345836 $503 2.5081769282882078 $391 $561 forward 7 unknown #
point $-1 -56.51539658803064 24.387151662245564 0.88087930657345836 #
point $-1 -56.51539658803064 15.385529321520451 0.88087930657345836 #
straight-curve $-1 56.51539658803064 15.385529321520451 -0.40682440542868736 0 0 -1 I I #
straight-curve $-1 56.51539658803064 24.387151662245568 0 0 0 -1 I I #
coedge $-1 $405 $408 $404 $515 reversed $402 $-1 #
edge $-1 $516 -36.612118232141185 $519 -28.10294339492097 $404 $562 forward 7 unknown #
vertex $-1 $406 $563 #
straight-curve $-1 56.51539658803064 15.385529321520451 79.574929968400312 0 0 1 I I #
edge $-1 $519 -9.9216057357394032 $414 -1.0062414358226928 $413 $564 forward 7 unknown #
vertex $-1 $518 $565 #
straight-curve $-1 -31.326027133746649 15.385529321520451 71.308436215023335 0.77714595512881146 0 -0.62932039886446345 I I #
point $-1 56.51539658803064 15.385529321520451 0.1758523694977826 #
point $-1 48.006221750810425 6.4701650216037407 7.0664464300166827 #
straight-curve $-1 56.51539658803064 0 7.0664464300166863 0 1 0 I I #
vertex $-1 $420 $566 #
point $-1 51.855054081662011 8.2532378815870864 2.325575751269692 #
vertex $-1 $424 $567 #
point $-1 51.855054081662011 10.927847171562103 2.325575751269692 #
vertex $-1 $428 $568 #
point $-1 51.855054081662011 13.60245646153712 2.325575751269692 #
coedge $-1 $443 $442 $435 $531 forward $432 $-1 #
edge $-1 $532 18.595689361618426 $535 21.833563541701501 $530 $569 forward 7 unknown #
vertex $-1 $531 $570 #
straight-curve $-1 -56.51539658803064 -15.973609275999898 32.736058232439085 0 0 1 I I #
edge $-1 $535 -9.9910635673395358 $444 -1.974027849981189 $443 $571 forward 7 unknown #
vertex $-1 $534 $572 #
straight-curve $-1 -56.51539658803064 -15.973609275999898 2.2661004001618892 -0.55919289150049634 0 -0.82903758062907751 I I #
point $-1 -56.51539658803064 -15.973609275999898 2.2661004001618892 #
point $-1 -53.277522407947565 -7.9565735586415514 7.0664464300166863 #
straight-curve $-1 -56.51539658803064 0 7.0664464300166863 0 -1 0 I I #
vertex $-1 $450 $573 #
point $-1 -53.787825471609779 -14.370202132528229 4.5215993139033328 #
vertex $-1 $454 $574 #
point $-1 -53.787825471609779 -11.965091417320725 4.5215993139033328 #
vertex $-1 $458 $575 #
point $-1 -53.787825471609779 -9.5599807021132204 4.5215993139033328 #
straight-curve $-1 -56.51539658803064 24.387151662245568 0 0 0 -1 I I #
point $-1 -56.51539658803064 -24.387151662245568 -7.0664464300166863 #
straight-curve $-1 -56.51539658803064 0 -7.0664464300166863 0 1 0 I I #
point $-1 -56.51539658803064 24.387151662245568 -7.0664464300166863 #
edge $-1 $495 -56.51539658803064 $552 56.51539658803064 $492 $576 forward 7 unknown #
straight-curve $-1 56.51539658803064 0 -7.0664464300166863 0 -1 0 I I #
vertex $-1 $483 $577 #
straight-curve $-1 -56.51539658803064 0 -7.0664464300166863 0 1 0 I I #
point $-1 -56.51539658803064 -19.66792913439139 -7.0664464300166863 #
straight-curve $-1 -56.51539658803064 -19.66792913439139 -2.6288530735063298 0 0 -1 I I #
straight-curve $-1 -56.51539658803064 -24.387151662245568 0 0 0 -1 I I #
point $-1 56.51539658803064 -24.387151662245568 -7.0664464300166863 #
point $-1 -56.51539658803064 15.385529321520451 -2.5081769282882078 #
straight-curve $-1 -56.51539658803064 9.9431702459415039 -2.5081769282882078 0 -1 0 I I #
point $-1 -56.51539658803064 24.387151662245564 -2.5081769282882078 #
straight-curve $-1 -56.51539658803064 24.387151662245568 0 0 0 -1 I I #
straight-curve $-1 19.903278355889455 15.385529321520451 7.0664464300166827 -1 0 0 I I #
point $-1 56.51539658803064 15.385529321520451 7.0664464300166863 #
straight-curve $-1 48.006221750810418 5.463923585781048 7.0664464300166898 0 -1 0 I I #
point $-1 48.006221750810425 15.385529321520451 7.0664464300166827 #
point $-1 51.151820904665378 8.2532378815870864 2.2516629731375182 #
point $-1 51.151820904665378 10.927847171562103 2.2516629731375182 #
point $-1 51.151820904665378 13.60245646153712 2.2516629731375182 #
straight-curve $-1 -75.111085949649066 -15.973609275999898 7.0664464300166863 1 0 0 I I #
point $-1 -56.51539658803064 -15.973609275999898 7.0664464300166863 #
straight-curve $-1 -53.277522407947572 -5.9825457086603624 7.0664464300166845 0 1 0 I I #
point $-1 -53.277522407947565 -15.973609275999898 7.0664464300166863 #
point $-1 -53.652903127045484 -14.370202132528229 3.8274840778385459 #
point $-1 -53.652903127045484 -11.965091417320725 3.8274840778385459 #
point $-1 -53.652903127045484 -9.5599807021132204 3.8274840778385459 #
straight-curve $-1 0 -24.387151662245568 -7.0664464300166863 -1 0 0 I I #
point $-1 -56.51539658803064 -24.387151662245568 -7.0664464300166863 #
End-of-ACIS-data 