500 0 7 0           
7 Unknown 11 ACIS 5.0 NT 24 Fri Mar 26 18:51:31 1999 
-1 9.9999999999999995e-007 1e-010 
body $-1 $7 $-1 $8 #
body $-1 $9 $-1 $10 #
body $-1 $11 $-1 $12 #
body $-1 $13 $-1 $14 #
body $-1 $15 $-1 $16 #
body $-1 $17 $-1 $18 #
body $-1 $19 $-1 $20 #
lump $-1 $-1 $21 $0 #
transform $-1 1 0 0 0 1 0 0 0 1 53.729667043061617 26.778090780767908 8.3373541107026643 1 rotate no_reflect no_shear #
lump $-1 $-1 $22 $1 #
transform $-1 1 0 0 0 1 0 0 0 1 53.729667043061617 26.778090780767908 8.3373541107026643 1 rotate no_reflect no_shear #
lump $-1 $-1 $23 $2 #
transform $-1 1 0 0 0 1 0 0 0 1 53.729667043061617 26.778090780767908 8.3373541107026643 1 rotate no_reflect no_shear #
lump $-1 $-1 $24 $3 #
transform $-1 1 0 0 0 1 0 0 0 1 53.729667043061617 26.778090780767908 8.3373541107026643 1 rotate no_reflect no_shear #
lump $-1 $-1 $25 $4 #
transform $-1 1 0 0 0 1 0 0 0 1 53.729667043061617 26.778090780767908 8.3373541107026643 1 rotate no_reflect no_shear #
lump $-1 $-1 $26 $5 #
transform $-1 1 0 0 0 1 0 0 0 1 53.729667043061617 26.778090780767908 8.3373541107026643 1 rotate no_reflect no_shear #
lump $-1 $-1 $27 $6 #
transform $-1 1 0 0 0 1 0 0 0 1 53.729667043061617 26.778090780767908 8.3373541107026643 1 rotate no_reflect no_shear #
shell $-1 $-1 $-1 $28 $-1 $7 #
shell $-1 $-1 $-1 $29 $-1 $9 #
shell $-1 $-1 $-1 $30 $-1 $11 #
shell $-1 $-1 $-1 $31 $-1 $13 #
shell $-1 $-1 $-1 $32 $-1 $15 #
shell $-1 $-1 $-1 $33 $-1 $17 #
shell $-1 $-1 $-1 $34 $-1 $19 #
face $-1 $35 $36 $21 $-1 $37 forward single #
face $-1 $38 $39 $22 $-1 $40 forward single #
face $-1 $41 $42 $23 $-1 $43 reversed single #
face $-1 $44 $45 $24 $-1 $46 forward single #
face $-1 $47 $48 $25 $-1 $49 reversed single #
face $-1 $50 $51 $26 $-1 $52 forward single #
face $-1 $53 $54 $27 $-1 $55 forward single #
face $-1 $56 $57 $21 $-1 $58 reversed single #
loop $-1 $-1 $59 $28 #
plane-surface $-1 0 0 8.3373541107026643 0 0 1 1 0 0 forward_v I I I I #
face $-1 $60 $61 $22 $-1 $62 reversed single #
loop $-1 $-1 $63 $29 #
plane-surface $-1 0 -26.778090780767908 0 0 1 0 0 0 1 forward_v I I I I #
face $-1 $64 $65 $23 $-1 $66 reversed single #
loop $-1 $-1 $67 $30 #
plane-surface $-1 64.330591501010673 22.756718756264288 155.16473527906291 0 -1 0 -0.75470958851134928 0 -0.65605901945558964 forward_v I I I I #
face $-1 $68 $69 $24 $-1 $70 forward single #
loop $-1 $71 $72 $31 #
cone-surface $-1 50.872463336073224 16.136650307308354 5.2705214223548378 -0.75470958851134928 0 -0.65605901945558964 0.98408852918338452 0 -1.132064382767024 1 I I 0 1 1.5 forward I I I I #
face $-1 $73 $74 $25 $-1 $75 reversed single #
loop $-1 $-1 $76 $32 #
plane-surface $-1 -129.71489175877252 -9.5078014816735692 77.422384588219288 0 1 0 -0.70710678939079041 0 0.70710677298230451 forward_v I I I I #
face $-1 $77 $78 $26 $-1 $79 forward single #
loop $-1 $80 $81 $33 #
cone-surface $-1 -48.170486289732622 -5.7708026335879481 2.7781733262553598 0.70710678939079041 0 -0.70710677298230451 1.0606601594734568 0 1.0606601840861856 1 I I 0 1 1.5 forward I I I I #
face $-1 $82 $83 $27 $-1 $84 forward single #
loop $-1 $85 $86 $34 #
cone-surface $-1 -48.170486289732622 -0.16530436145951555 2.7781733262553598 0.70710678939079041 0 -0.70710677298230451 1.0606601594734568 0 1.0606601840861856 1 I I 0 1 1.5 forward I I I I #
face $-1 $87 $88 $21 $-1 $89 reversed single #
loop $-1 $-1 $90 $35 #
plane-surface $-1 0 0 -8.3373541107026643 0 0 1 1 0 0 forward_v I I I I #
coedge $-1 $91 $92 $93 $94 forward $36 $-1 #
face $-1 $95 $96 $22 $-1 $97 forward single #
loop $-1 $-1 $98 $38 #
plane-surface $-1 -53.729667043061617 0 0 1 0 0 0 0 -1 forward_v I I I I #
coedge $-1 $99 $100 $101 $102 forward $39 $-1 #
face $-1 $103 $104 $23 $-1 $105 reversed single #
loop $-1 $-1 $106 $41 #
plane-surface $-1 -16.769998308831006 16.136650307308354 84.665069927170279 0.75470958851134928 0 0.65605901945558964 0.65605901945558964 0 -0.75470958851134928 forward_v I I I I #
coedge $-1 $107 $108 $109 $110 reversed $42 $-1 #
face $-1 $-1 $111 $24 $-1 $112 forward single #
loop $-1 $113 $114 $44 #
cone-surface $-1 49.523725416622234 16.136650307308354 4.0980814661023413 -0.75470958851134928 0 -0.65605901945558964 0.49204426459169226 0 -0.56603219138351202 1 I I -0.70710678118654757 0.70710678118654757 0.75 forward I I I I #
loop $-1 $-1 $115 $31 #
coedge $-1 $72 $72 $116 $117 reversed $45 $-1 #
face $-1 $118 $119 $25 $-1 $120 reversed single #
loop $-1 $-1 $121 $47 #
plane-surface $-1 -53.729667043061596 -2.96805349752373 1.437161635753327 -0.70710678939079041 0 0.70710677298230451 0.70710677298230451 0 0.70710678939079041 forward_v I I I I #
coedge $-1 $122 $123 $124 $125 reversed $48 $-1 #
face $-1 $-1 $126 $26 $-1 $127 forward single #
loop $-1 $128 $129 $50 #
cone-surface $-1 -45.531071601775366 -5.7708026335879481 0.13875869954599018 0.70710678939079041 0 -0.70710677298230451 0.53033007973672841 0 0.53033009204309278 1 I I -0.70710678118654757 0.70710678118654757 0.75 forward I I I I #
loop $-1 $-1 $130 $33 #
coedge $-1 $81 $81 $131 $132 reversed $51 $-1 #
face $-1 $-1 $133 $27 $-1 $134 forward single #
loop $-1 $135 $136 $53 #
cone-surface $-1 -45.531071601775366 -0.16530436145951555 0.13875869954599018 0.70710678939079041 0 -0.70710677298230451 0.53033007973672841 0 0.53033009204309278 1 I I -0.70710678118654757 0.70710678118654757 0.75 forward I I I I #
loop $-1 $-1 $137 $34 #
coedge $-1 $86 $86 $138 $139 reversed $54 $-1 #
face $-1 $140 $141 $21 $-1 $142 reversed single #
loop $-1 $-1 $143 $56 #
plane-surface $-1 0 -26.778090780767908 0 0 1 0 0 0 1 forward_v I I I I #
coedge $-1 $144 $145 $146 $147 forward $57 $-1 #
coedge $-1 $148 $59 $149 $150 forward $36 $-1 #
coedge $-1 $59 $148 $151 $152 forward $36 $-1 #
coedge $-1 $153 $154 $59 $94 reversed $155 $-1 #
edge $-1 $156 -26.778090780767908 $157 26.778090780767908 $93 $158 forward 7 unknown #
face $-1 $159 $160 $22 $-1 $161 reversed single #
loop $-1 $-1 $162 $60 #
plane-surface $-1 0 -29.848573903716538 3.2158223976866633 0 0 1 1 0 0 forward_v I I I I #
coedge $-1 $163 $164 $100 $165 forward $61 $-1 #
coedge $-1 $166 $63 $167 $168 reversed $39 $-1 #
coedge $-1 $63 $166 $98 $165 reversed $39 $-1 #
coedge $-1 $169 $162 $63 $102 reversed $96 $-1 #
edge $-1 $170 -53.729667043061617 $171 53.729667043061617 $101 $172 forward 7 unknown #
face $-1 $173 $174 $23 $-1 $175 reversed single #
loop $-1 $-1 $176 $64 #
plane-surface $-1 64.330591501010673 9.5165818583524207 155.16473527906291 0 1 0 0.75470958851134928 0 0.65605901945558964 forward_v I I I I #
coedge $-1 $177 $178 $179 $180 reversed $65 $-1 #
coedge $-1 $108 $67 $181 $182 reversed $42 $-1 #
coedge $-1 $67 $107 $177 $183 reversed $42 $-1 #
coedge $-1 $179 $184 $67 $110 forward $185 $-1 #
edge $-1 $186 -21.564371292556281 $187 -17.41537533471444 $109 $188 forward 7 unknown #
loop $-1 $-1 $116 $68 #
plane-surface $-1 -16.769998308831006 16.136650307308354 84.665069927170279 0.75470958851134928 0 0.65605901945558964 0.65605901945558964 0 -0.75470958851134928 forward_v I I I I #
loop $-1 $-1 $189 $44 #
coedge $-1 $114 $114 $115 $190 reversed $69 $-1 #
coedge $-1 $115 $115 $114 $190 forward $71 $-1 #
coedge $-1 $116 $116 $72 $117 forward $111 $-1 #
edge $-1 $191 0 $191 6.2831853071796004 $116 $192 forward 7 unknown #
face $-1 $193 $194 $25 $-1 $195 forward single #
loop $-1 $-1 $196 $73 #
plane-surface $-1 -129.71489175877252 3.5716944866261091 77.422384588219288 0 -1 0 0.70710678939079041 0 -0.70710677298230451 forward_v I I I I #
coedge $-1 $197 $198 $199 $200 reversed $74 $-1 #
coedge $-1 $123 $76 $201 $202 reversed $48 $-1 #
coedge $-1 $76 $122 $197 $203 reversed $48 $-1 #
coedge $-1 $199 $204 $76 $125 forward $194 $-1 #
edge $-1 $205 11.127778836324644 $206 18.027971151154325 $124 $207 forward 7 unknown #
loop $-1 $-1 $131 $77 #
plane-surface $-1 -53.729667043061596 -2.96805349752373 1.437161635753327 -0.70710678939079041 0 0.70710677298230451 0.70710677298230451 0 0.70710678939079041 forward_v I I I I #
loop $-1 $-1 $208 $50 #
coedge $-1 $129 $129 $130 $209 reversed $78 $-1 #
coedge $-1 $130 $130 $129 $209 forward $80 $-1 #
coedge $-1 $131 $131 $81 $132 forward $126 $-1 #
edge $-1 $210 0 $210 6.2831853071796004 $131 $211 forward 7 unknown #
loop $-1 $-1 $138 $82 #
plane-surface $-1 -53.729667043061596 -2.96805349752373 1.437161635753327 -0.70710678939079041 0 0.70710677298230451 0.70710677298230451 0 0.70710678939079041 forward_v I I I I #
loop $-1 $-1 $212 $53 #
coedge $-1 $136 $136 $137 $213 reversed $83 $-1 #
coedge $-1 $137 $137 $136 $213 forward $85 $-1 #
coedge $-1 $138 $138 $86 $139 forward $133 $-1 #
edge $-1 $214 0 $214 6.2831853071796004 $138 $215 forward 7 unknown #
face $-1 $216 $217 $21 $-1 $218 reversed single #
loop $-1 $-1 $219 $87 #
plane-surface $-1 -53.729667043061617 0 0 1 0 0 0 0 -1 forward_v I I I I #
coedge $-1 $220 $151 $221 $222 forward $88 $-1 #
coedge $-1 $223 $90 $220 $224 forward $57 $-1 #
coedge $-1 $90 $223 $225 $226 forward $57 $-1 #
coedge $-1 $154 $153 $90 $147 reversed $155 $-1 #
edge $-1 $227 -26.778090780767908 $228 26.778090780767908 $146 $229 forward 7 unknown #
coedge $-1 $92 $91 $230 $231 forward $36 $-1 #
coedge $-1 $232 $233 $91 $150 reversed $217 $-1 #
edge $-1 $157 -53.729667043061617 $234 53.729667043061617 $149 $235 forward 7 unknown #
coedge $-1 $143 $236 $92 $152 reversed $88 $-1 #
edge $-1 $237 -53.729667043061617 $156 53.729667043061617 $151 $238 forward 7 unknown #
coedge $-1 $146 $93 $236 $239 forward $155 $-1 #
coedge $-1 $93 $146 $232 $240 reversed $155 $-1 #
loop $-1 $-1 $153 $216 #
vertex $-1 $94 $241 #
vertex $-1 $94 $242 #
straight-curve $-1 53.729667043061617 0 8.3373541107026643 0 1 0 I I #
face $-1 $243 $244 $22 $-1 $245 reversed single #
loop $-1 $-1 $246 $95 #
plane-surface $-1 0 -29.848573903716538 -0.14217183860556126 0 0 1 1 0 0 forward_v I I I I #
coedge $-1 $101 $247 $248 $249 forward $96 $-1 #
coedge $-1 $250 $98 $251 $252 reversed $61 $-1 #
coedge $-1 $98 $250 $169 $253 reversed $61 $-1 #
edge $-1 $170 -3.2158223976866633 $254 0.14217183860556126 $98 $255 forward 7 unknown #
coedge $-1 $100 $99 $256 $257 forward $39 $-1 #
coedge $-1 $248 $258 $99 $168 forward $259 $-1 #
edge $-1 $260 -0.14217183860556126 $171 3.2158223976866633 $167 $261 forward 7 unknown #
coedge $-1 $247 $101 $164 $253 forward $96 $-1 #
vertex $-1 $165 $262 #
vertex $-1 $249 $263 #
straight-curve $-1 0 -26.778090780767908 3.2158223976866633 1 0 0 I I #
face $-1 $-1 $185 $23 $-1 $264 forward single #
loop $-1 $-1 $265 $103 #
plane-surface $-1 53.729667043061617 0 0 -1 0 0 0 0 1 forward_v I I I I #
coedge $-1 $266 $267 $268 $269 reversed $104 $-1 #
coedge $-1 $270 $106 $108 $183 forward $65 $-1 #
coedge $-1 $106 $270 $266 $271 forward $65 $-1 #
coedge $-1 $268 $109 $106 $180 forward $185 $-1 #
edge $-1 $187 -14.688393602610111 $272 -1.4482567046982435 $179 $273 forward 7 unknown #
coedge $-1 $274 $275 $107 $182 forward $174 $-1 #
edge $-1 $276 -74.017887522202827 $186 -69.245013528828792 $181 $277 forward 7 unknown #
edge $-1 $187 101.13521409874046 $276 107.45933408612323 $108 $278 forward 7 unknown #
coedge $-1 $109 $268 $274 $279 forward $185 $-1 #
loop $-1 $-1 $268 $173 #
vertex $-1 $182 $280 #
vertex $-1 $110 $281 #
straight-curve $-1 32.165295750505337 22.756718756264288 8.3373541107026625 -1 0 0 I I #
coedge $-1 $189 $189 $-1 $282 reversed $113 $-1 #
edge $-1 $283 0 $283 6.2831853071796004 $114 $284 forward 7 unknown #
vertex $-1 $117 $285 #
ellipse-curve $-1 51.655169064140701 16.136650307308354 5.9509171140156418 0.75470958851134928 0 0.65605901945558964 0.98408852918338452 0 -1.132064382767024 1 I I #
face $-1 $-1 $286 $25 $-1 $287 reversed single #
loop $-1 $-1 $124 $118 #
plane-surface $-1 0 0 8.3373541107026643 0 0 1 1 0 0 forward_v I I I I #
coedge $-1 $288 $289 $290 $291 reversed $119 $-1 #
coedge $-1 $292 $121 $123 $203 forward $74 $-1 #
coedge $-1 $121 $292 $288 $293 forward $74 $-1 #
coedge $-1 $290 $124 $121 $200 forward $194 $-1 #
edge $-1 $206 -8.0237747329117042 $294 5.0557212353879741 $199 $295 forward 7 unknown #
coedge $-1 $296 $297 $122 $202 forward $286 $-1 #
edge $-1 $298 -37.274030658356338 $205 -30.373838183406981 $201 $299 forward 7 unknown #
edge $-1 $206 -9.7583456678364211 $298 3.0145775206728491e-014 $123 $300 forward 7 unknown #
coedge $-1 $124 $290 $296 $301 forward $194 $-1 #
vertex $-1 $125 $302 #
vertex $-1 $125 $303 #
straight-curve $-1 -64.857445879386262 -9.5078014816735692 8.3373541107026625 1 0 0 I I #
coedge $-1 $208 $208 $-1 $304 reversed $128 $-1 #
edge $-1 $305 0 $305 6.2831853071796004 $129 $306 forward 7 unknown #
vertex $-1 $132 $307 #
ellipse-curve $-1 -50.279570885646777 -5.7708026335879481 4.8872578732279868 -0.70710678939079041 0 0.70710677298230451 1.0606601594734568 0 1.0606601840861856 1 I I #
coedge $-1 $212 $212 $-1 $308 reversed $135 $-1 #
edge $-1 $309 0 $309 6.2831853071796004 $136 $310 forward 7 unknown #
vertex $-1 $139 $311 #
ellipse-curve $-1 -50.279570885646777 -0.16530436145951555 4.8872578732279868 -0.70710678939079041 0 0.70710677298230451 1.0606601594734568 0 1.0606601840861856 1 I I #
face $-1 $-1 $155 $21 $-1 $312 reversed single #
loop $-1 $-1 $232 $140 #
plane-surface $-1 0 26.778090780767908 0 0 -1 0 0 0 -1 forward_v I I I I #
coedge $-1 $313 $230 $233 $314 forward $141 $-1 #
coedge $-1 $236 $143 $144 $224 reversed $88 $-1 #
coedge $-1 $230 $313 $143 $222 reversed $141 $-1 #
edge $-1 $237 -8.3373541107026643 $315 8.3373541107026643 $221 $316 forward 7 unknown #
coedge $-1 $145 $144 $313 $317 forward $57 $-1 #
edge $-1 $228 -53.729667043061617 $315 53.729667043061617 $220 $318 forward 7 unknown #
coedge $-1 $233 $232 $145 $226 reversed $217 $-1 #
edge $-1 $319 -53.729667043061617 $227 53.729667043061617 $225 $320 forward 7 unknown #
vertex $-1 $147 $321 #
vertex $-1 $239 $322 #
straight-curve $-1 53.729667043061617 0 -8.3373541107026643 0 -1 0 I I #
coedge $-1 $219 $221 $148 $231 reversed $141 $-1 #
edge $-1 $234 -26.778090780767908 $237 26.778090780767908 $230 $323 forward 7 unknown #
coedge $-1 $225 $149 $154 $240 forward $217 $-1 #
coedge $-1 $149 $225 $219 $314 reversed $217 $-1 #
vertex $-1 $150 $324 #
straight-curve $-1 0 26.778090780767908 8.3373541107026643 -1 0 0 I I #
coedge $-1 $151 $220 $153 $239 reversed $88 $-1 #
vertex $-1 $231 $325 #
straight-curve $-1 0 -26.778090780767908 8.3373541107026643 1 0 0 I I #
edge $-1 $156 -8.3373541107026643 $228 8.3373541107026643 $153 $326 forward 7 unknown #
edge $-1 $157 -8.3373541107026643 $227 8.3373541107026643 $154 $327 forward 7 unknown #
point $-1 53.729667043061617 -26.778090780767908 8.3373541107026643 #
point $-1 53.729667043061617 26.778090780767908 8.3373541107026643 #
face $-1 $-1 $259 $22 $-1 $328 reversed single #
loop $-1 $-1 $329 $159 #
plane-surface $-1 0 -32.919057026665172 1.536825279540551 0 1 0 0 0 1 forward_v I I I I #
coedge $-1 $330 $256 $258 $331 forward $160 $-1 #
coedge $-1 $162 $169 $332 $333 forward $96 $-1 #
coedge $-1 $334 $167 $162 $249 reversed $259 $-1 #
edge $-1 $335 -3.0704831229486338 $171 3.0704831229486302 $248 $336 forward 7 unknown #
coedge $-1 $164 $163 $329 $337 reversed $61 $-1 #
coedge $-1 $256 $330 $163 $252 forward $160 $-1 #
edge $-1 $338 -3.0704831229486338 $254 3.0704831229486302 $163 $339 forward 7 unknown #
edge $-1 $170 -3.0704831229486302 $340 3.0704831229486338 $164 $341 forward 7 unknown #
vertex $-1 $165 $342 #
straight-curve $-1 -53.729667043061617 -26.778090780767908 0 0 0 -1 I I #
coedge $-1 $246 $251 $166 $257 reversed $160 $-1 #
edge $-1 $260 -53.729667043061617 $254 53.729667043061617 $256 $343 forward 7 unknown #
coedge $-1 $167 $334 $246 $331 reversed $259 $-1 #
loop $-1 $-1 $167 $243 #
vertex $-1 $168 $344 #
straight-curve $-1 53.729667043061617 -26.778090780767908 0 0 0 1 I I #
point $-1 -53.729667043061617 -26.778090780767908 3.2158223976866633 #
point $-1 53.729667043061617 -26.778090780767908 3.2158223976866633 #
plane-surface $-1 0 0 8.3373541107026643 0 0 1 1 0 0 forward_v I I I I #
coedge $-1 $275 $274 $267 $345 forward $174 $-1 #
coedge $-1 $267 $176 $178 $271 reversed $104 $-1 #
coedge $-1 $176 $266 $265 $345 reversed $104 $-1 #
coedge $-1 $184 $179 $176 $269 forward $185 $-1 #
edge $-1 $272 17.41537533471444 $346 21.564371292556281 $268 $347 forward 7 unknown #
coedge $-1 $178 $177 $275 $348 reversed $65 $-1 #
edge $-1 $349 -107.45933408612323 $272 -101.13521409874046 $266 $350 forward 7 unknown #
vertex $-1 $180 $351 #
straight-curve $-1 49.580671085219777 8.0683251536541771 8.3373541107026625 0 -1 0 I I #
coedge $-1 $265 $181 $184 $279 reversed $174 $-1 #
coedge $-1 $181 $265 $270 $348 forward $174 $-1 #
vertex $-1 $182 $352 #
straight-curve $-1 53.729667043061617 22.756718756264288 77.582367639531455 0 0 1 I I #
straight-curve $-1 -16.769998308831006 22.756718756264288 84.665069927170279 0.65605901945558964 0 -0.75470958851134928 I I #
edge $-1 $346 9.5165818583524207 $186 22.756718756264288 $274 $353 forward 7 unknown #
point $-1 53.729667043061617 22.756718756264288 8.3373541107026643 #
point $-1 49.580671085219777 22.756718756264288 8.3373541107026625 #
edge $-1 $354 1 $354 0 $189 $-1 forward 7 unknown #
vertex $-1 $190 $355 #
ellipse-curve $-1 50.089757608005748 16.136650307308354 4.5901257306940337 0.75470958851134928 0 0.65605901945558964 0.98408852918338452 0 -1.132064382767024 1 I I #
point $-1 52.639257593324082 16.136650307308354 4.8188527312486187 #
loop $-1 $-1 $201 $193 #
plane-surface $-1 -53.729667043061617 0 0 1 0 0 0 0 -1 forward_v I I I I #
coedge $-1 $289 $196 $198 $293 reversed $119 $-1 #
coedge $-1 $196 $288 $356 $357 reversed $119 $-1 #
coedge $-1 $204 $199 $196 $291 forward $194 $-1 #
edge $-1 $294 -18.027971151154325 $358 -11.127778836324644 $290 $359 forward 7 unknown #
coedge $-1 $198 $197 $297 $360 reversed $74 $-1 #
edge $-1 $361 -3.0145775206728491e-014 $294 9.7583456678364211 $288 $362 forward 7 unknown #
vertex $-1 $200 $363 #
straight-curve $-1 -46.829474728231936 -1.484026748761865 8.3373541107026625 0 1 0 I I #
coedge $-1 $356 $201 $204 $301 reversed $286 $-1 #
coedge $-1 $201 $356 $292 $360 forward $286 $-1 #
vertex $-1 $202 $364 #
straight-curve $-1 -53.729667043061617 -9.5078014816735692 38.711192294109644 0 0 1 I I #
straight-curve $-1 -53.729667043061596 -9.5078014816735692 1.437161635753327 -0.70710677298230451 0 -0.70710678939079041 I I #
edge $-1 $358 -3.5716944866261091 $205 9.5078014816735692 $296 $365 forward 7 unknown #
point $-1 -53.729667043061617 -9.5078014816735692 8.3373541107026643 #
point $-1 -46.829474728231936 -9.5078014816735692 8.3373541107026643 #
edge $-1 $366 1 $366 0 $208 $-1 forward 7 unknown #
vertex $-1 $209 $367 #
ellipse-curve $-1 -46.061401693818461 -5.7708026335879481 0.66908877928271859 -0.70710678939079041 0 0.70710677298230451 1.0606601594734568 0 1.0606601840861856 1 I I #
point $-1 -49.218910726173334 -5.7708026335879481 5.9479180573141868 #
edge $-1 $368 1 $368 0 $212 $-1 forward 7 unknown #
vertex $-1 $213 $369 #
ellipse-curve $-1 -46.061401693818461 -0.16530436145951555 0.66908877928271859 -0.70710678939079041 0 0.70710677298230451 1.0606601594734568 0 1.0606601840861856 1 I I #
point $-1 -49.218910726173334 -0.16530436145951555 5.9479180573141868 #
plane-surface $-1 53.729667043061617 0 0 -1 0 0 0 0 1 forward_v I I I I #
coedge $-1 $221 $219 $223 $317 reversed $141 $-1 #
edge $-1 $234 -8.3373541107026643 $319 8.3373541107026643 $233 $370 forward 7 unknown #
vertex $-1 $317 $371 #
straight-curve $-1 -53.729667043061617 -26.778090780767908 0 0 0 -1 I I #
edge $-1 $315 -26.778090780767908 $319 26.778090780767908 $313 $372 forward 7 unknown #
straight-curve $-1 0 -26.778090780767908 -8.3373541107026643 -1 0 0 I I #
vertex $-1 $226 $373 #
straight-curve $-1 0 26.778090780767908 -8.3373541107026643 1 0 0 I I #
point $-1 53.729667043061617 26.778090780767908 -8.3373541107026643 #
point $-1 53.729667043061617 -26.778090780767908 -8.3373541107026643 #
straight-curve $-1 -53.729667043061617 0 8.3373541107026643 0 -1 0 I I #
point $-1 -53.729667043061617 26.778090780767908 8.3373541107026643 #
point $-1 -53.729667043061617 -26.778090780767908 8.3373541107026643 #
straight-curve $-1 53.729667043061617 -26.778090780767908 0 0 0 -1 I I #
straight-curve $-1 53.729667043061617 26.778090780767908 0 0 0 -1 I I #
plane-surface $-1 53.729667043061617 0 0 -1 0 0 0 0 1 forward_v I I I I #
coedge $-1 $374 $332 $250 $337 forward $244 $-1 #
coedge $-1 $251 $246 $374 $375 forward $160 $-1 #
edge $-1 $260 -3.0704831229486302 $376 3.0704831229486338 $258 $377 forward 7 unknown #
coedge $-1 $329 $378 $247 $333 reversed $244 $-1 #
edge $-1 $340 -53.729667043061617 $335 53.729667043061617 $332 $379 forward 7 unknown #
coedge $-1 $258 $248 $378 $380 forward $259 $-1 #
vertex $-1 $249 $381 #
straight-curve $-1 53.729667043061617 -29.848573903716538 3.2158223976866633 0 1 0 I I #
edge $-1 $340 -1.6789971181461123 $338 1.6789971181461123 $250 $382 forward 7 unknown #
vertex $-1 $252 $383 #
straight-curve $-1 -53.729667043061617 -29.848573903716538 -0.14217183860556126 0 1 0 I I #
vertex $-1 $253 $384 #
straight-curve $-1 -53.729667043061617 -29.848573903716538 3.2158223976866633 0 -1 0 I I #
point $-1 -53.729667043061617 -26.778090780767908 -0.14217183860556126 #
straight-curve $-1 0 -26.778090780767908 -0.14217183860556126 -1 0 0 I I #
point $-1 53.729667043061617 -26.778090780767908 -0.14217183860556126 #
edge $-1 $346 69.245013528828792 $349 74.017887522202827 $265 $385 forward 7 unknown #
vertex $-1 $279 $386 #
straight-curve $-1 32.165295750505337 9.5165818583524207 8.3373541107026625 1 0 0 I I #
edge $-1 $349 1.4482567046982435 $276 14.688393602610111 $275 $387 forward 7 unknown #
vertex $-1 $348 $388 #
straight-curve $-1 -16.769998308831006 9.5165818583524207 84.665069927170279 -0.65605901945558964 0 0.75470958851134928 I I #
point $-1 49.580671085219777 9.5165818583524207 8.3373541107026625 #
point $-1 53.72966704306161 22.756718756264288 3.5644801173286282 #
straight-curve $-1 53.729667043061617 0 8.3373541107026643 0 1 0 I I #
vertex $-1 $282 $389 #
point $-1 51.073846137189129 16.136650307308354 3.4580613479270097 #
coedge $-1 $297 $296 $289 $357 forward $286 $-1 #
edge $-1 $358 30.373838183406981 $361 37.274030658356338 $356 $390 forward 7 unknown #
vertex $-1 $301 $391 #
straight-curve $-1 -64.857445879386262 3.5716944866261091 8.3373541107026625 -1 0 0 I I #
edge $-1 $361 -5.0557212353879741 $298 8.0237747329117042 $297 $392 forward 7 unknown #
vertex $-1 $360 $393 #
straight-curve $-1 -53.729667043061596 3.5716944866261091 1.437161635753327 0.70710677298230451 0 0.70710678939079041 I I #
point $-1 -46.829474728231936 3.5716944866261091 8.3373541107026643 #
point $-1 -53.729667043061617 -9.5078014816735692 1.4371616357533057 #
straight-curve $-1 -53.729667043061617 0 8.3373541107026643 0 -1 0 I I #
vertex $-1 $304 $394 #
point $-1 -45.000741534345003 -5.7708026335879481 1.729748963368904 #
vertex $-1 $308 $395 #
point $-1 -45.000741534345003 -0.16530436145951555 1.729748963368904 #
straight-curve $-1 -53.729667043061617 26.778090780767908 0 0 0 -1 I I #
point $-1 -53.729667043061617 -26.778090780767908 -8.3373541107026643 #
straight-curve $-1 -53.729667043061617 0 -8.3373541107026643 0 1 0 I I #
point $-1 -53.729667043061617 26.778090780767908 -8.3373541107026643 #
coedge $-1 $378 $329 $330 $375 reversed $244 $-1 #
edge $-1 $376 -53.729667043061617 $338 53.729667043061617 $374 $396 forward 7 unknown #
vertex $-1 $380 $397 #
straight-curve $-1 53.729667043061617 -29.848573903716538 -0.14217183860556126 0 -1 0 I I #
coedge $-1 $332 $374 $334 $380 reversed $244 $-1 #
straight-curve $-1 0 -32.919057026665172 3.2158223976866633 1 0 0 I I #
edge $-1 $335 -1.6789971181461123 $376 1.6789971181461123 $334 $398 forward 7 unknown #
point $-1 53.729667043061617 -32.919057026665172 3.2158223976866633 #
straight-curve $-1 -53.729667043061617 -32.919057026665172 1.536825279540551 0 0 -1 I I #
point $-1 -53.729667043061617 -32.919057026665172 -0.14217183860556126 #
point $-1 -53.729667043061617 -32.919057026665172 3.2158223976866633 #
straight-curve $-1 53.729667043061617 9.5165818583524207 77.582367639531455 0 0 -1 I I #
point $-1 53.729667043061617 9.5165818583524207 8.3373541107026643 #
straight-curve $-1 53.729667043061625 8.0683251536541771 3.564480117328614 0 1 0 I I #
point $-1 53.72966704306161 9.5165818583524207 3.5644801173286282 #
point $-1 48.957693225238721 16.136650307308354 3.6060372015106488 #
straight-curve $-1 -53.729667043061617 3.5716944866261091 38.711192294109644 0 0 -1 I I #
point $-1 -53.729667043061617 3.5716944866261091 8.3373541107026643 #
straight-curve $-1 -53.729667043061617 -1.484026748761865 1.437161635753311 0 -1 0 I I #
point $-1 -53.729667043061617 3.5716944866261091 1.4371616357533057 #
point $-1 -45.000741509732272 -5.7708026335879481 -0.39157138019073823 #
point $-1 -45.000741509732272 -0.16530436145951555 -0.39157138019073823 #
straight-curve $-1 0 -32.919057026665172 -0.14217183860556126 -1 0 0 I I #
point $-1 53.729667043061617 -32.919057026665172 -0.14217183860556126 #
straight-curve $-1 53.729667043061617 -32.919057026665172 1.536825279540551 0 0 -1 I I #
End-of-ACIS-data 