500 0 5 0           
7 Unknown 11 ACIS 5.0 NT 24 Fri Mar 26 02:15:13 1999 
-1 9.9999999999999995e-007 1e-010 
body $-1 $5 $-1 $6 #
body $-1 $7 $-1 $8 #
body $-1 $9 $-1 $10 #
body $-1 $11 $-1 $12 #
body $-1 $13 $-1 $14 #
lump $-1 $-1 $15 $0 #
transform $-1 1 0 0 0 1 0 0 0 1 67.084566789757986 37.076164150999517 11.656016411898902 1 rotate no_reflect no_shear #
lump $-1 $-1 $16 $1 #
transform $-1 1 0 0 0 1 0 0 0 1 67.084566789757986 37.076164150999517 11.656016411898902 1 rotate no_reflect no_shear #
lump $-1 $-1 $17 $2 #
transform $-1 1 0 0 0 1 0 0 0 1 67.084566789757986 37.076164150999517 11.656016411898902 1 rotate no_reflect no_shear #
lump $-1 $-1 $18 $3 #
transform $-1 1 0 0 0 1 0 0 0 1 67.084566789757986 37.076164150999517 11.656016411898902 1 rotate no_reflect no_shear #
lump $-1 $-1 $19 $4 #
transform $-1 1 0 0 0 1 0 0 0 1 67.084566789757986 37.076164150999517 11.656016411898902 1 rotate no_reflect no_shear #
shell $-1 $-1 $-1 $20 $-1 $5 #
shell $-1 $-1 $-1 $21 $-1 $7 #
shell $-1 $-1 $-1 $22 $-1 $9 #
shell $-1 $-1 $-1 $23 $-1 $11 #
shell $-1 $-1 $-1 $24 $-1 $13 #
face $-1 $25 $26 $15 $-1 $27 forward single #
face $-1 $28 $29 $16 $-1 $30 forward single #
face $-1 $31 $32 $17 $-1 $33 reversed single #
face $-1 $34 $35 $18 $-1 $36 forward single #
face $-1 $37 $38 $19 $-1 $39 forward single #
face $-1 $40 $41 $15 $-1 $42 reversed single #
loop $-1 $-1 $43 $20 #
plane-surface $-1 0 0 11.656016411898902 0 0 1 1 0 0 forward_v I I I I #
face $-1 $44 $45 $16 $-1 $46 reversed single #
loop $-1 $-1 $47 $21 #
plane-surface $-1 0 -32.436481251158689 -7.9504369275777602 0 0 1 1 0 0 forward_v I I I I #
face $-1 $48 $49 $17 $-1 $50 reversed single #
loop $-1 $-1 $51 $22 #
plane-surface $-1 28.09170073047968 58.600483295730228 157.89689526433818 1 0 0 0 -0.6018150307709319 -0.79863550430605224 forward_v I I I I #
face $-1 $52 $53 $18 $-1 $54 forward single #
loop $-1 $55 $56 $23 #
cone-surface $-1 39.232519604559187 32.230480069288639 7.3326672370106767 0 -0.6018150307709319 -0.79863550430605224 1 0 0 1 I I 0 1 1 forward I I I I #
face $-1 $57 $58 $19 $-1 $59 forward single #
loop $-1 $60 $61 $24 #
cone-surface $-1 55.943747915678472 32.230480069288639 7.3326672370106767 0 -0.6018150307709319 -0.79863550430605224 1 0 0 1 I I 0 1 1 forward I I I I #
face $-1 $62 $63 $15 $-1 $64 reversed single #
loop $-1 $-1 $65 $25 #
plane-surface $-1 0 0 -11.656016411898902 0 0 1 1 0 0 forward_v I I I I #
coedge $-1 $66 $67 $68 $69 forward $26 $-1 #
face $-1 $70 $71 $16 $-1 $72 reversed single #
loop $-1 $-1 $73 $28 #
plane-surface $-1 0 -27.796798351317861 -9.803226669738331 0 -1 0 0 0 -1 forward_v I I I I #
coedge $-1 $74 $75 $76 $77 reversed $29 $-1 #
face $-1 $78 $79 $17 $-1 $80 reversed single #
loop $-1 $-1 $81 $31 #
plane-surface $-1 47.588133760118836 -22.144517957935449 50.744661605755354 0 0.6018150307709319 0.79863550430605224 1 0 0 forward_v I I I I #
coedge $-1 $82 $83 $84 $85 reversed $32 $-1 #
face $-1 $-1 $86 $18 $-1 $87 forward single #
loop $-1 $88 $89 $34 #
cone-surface $-1 39.232519604559187 30.758037947125928 5.3786705824430872 0 -0.6018150307709319 -0.79863550430605224 0.5 0 0 1 I I -0.70710678118654746 0.70710678118654746 0.5 forward I I I I #
loop $-1 $-1 $90 $23 #
coedge $-1 $56 $56 $91 $92 reversed $35 $-1 #
face $-1 $-1 $93 $19 $-1 $94 forward single #
loop $-1 $95 $96 $37 #
cone-surface $-1 55.943747915678472 30.758037947125928 5.3786705824430872 0 -0.6018150307709319 -0.79863550430605224 0.5 0 0 1 I I -0.70710678118654746 0.70710678118654746 0.5 forward I I I I #
loop $-1 $-1 $97 $24 #
coedge $-1 $61 $61 $98 $99 reversed $38 $-1 #
face $-1 $100 $101 $15 $-1 $102 reversed single #
loop $-1 $-1 $103 $40 #
plane-surface $-1 0 -37.076164150999517 0 0 1 0 0 0 1 forward_v I I I I #
coedge $-1 $104 $105 $106 $107 forward $41 $-1 #
coedge $-1 $108 $43 $109 $110 forward $26 $-1 #
coedge $-1 $43 $108 $111 $112 forward $26 $-1 #
coedge $-1 $113 $114 $43 $69 reversed $115 $-1 #
edge $-1 $116 -37.076164150999517 $117 37.076164150999517 $68 $118 forward 7 unknown #
face $-1 $119 $120 $16 $-1 $121 reversed single #
loop $-1 $-1 $122 $44 #
plane-surface $-1 0 0 -11.656016411898902 0 0 1 1 0 0 forward_v I I I I #
coedge $-1 $123 $124 $125 $126 reversed $45 $-1 #
coedge $-1 $127 $47 $124 $128 forward $29 $-1 #
coedge $-1 $47 $127 $129 $130 reversed $29 $-1 #
coedge $-1 $131 $125 $47 $77 forward $120 $-1 #
edge $-1 $132 11.578557725738516 $133 20.857923525420173 $76 $134 forward 7 unknown #
face $-1 $135 $136 $17 $-1 $137 forward single #
loop $-1 $-1 $138 $48 #
plane-surface $-1 67.084566789757986 0 0 -1 0 0 0 0 1 forward_v I I I I #
coedge $-1 $139 $140 $141 $142 reversed $49 $-1 #
coedge $-1 $83 $51 $143 $144 reversed $32 $-1 #
coedge $-1 $51 $82 $139 $145 reversed $32 $-1 #
coedge $-1 $141 $146 $51 $85 forward $136 $-1 #
edge $-1 $147 -7.775922503134403 $148 -0.42762355326713219 $84 $149 forward 7 unknown #
loop $-1 $-1 $91 $52 #
plane-surface $-1 47.588133760118836 -22.144517957935449 50.744661605755354 0 0.6018150307709319 0.79863550430605224 1 0 0 forward_v I I I I #
loop $-1 $-1 $150 $34 #
coedge $-1 $89 $89 $90 $151 reversed $53 $-1 #
coedge $-1 $90 $90 $89 $151 forward $55 $-1 #
coedge $-1 $91 $91 $56 $92 forward $86 $-1 #
edge $-1 $152 4.9350636463124897e-015 $152 6.2831853071796058 $91 $153 forward 7 unknown #
loop $-1 $-1 $98 $57 #
plane-surface $-1 47.588133760118836 -22.144517957935449 50.744661605755354 0 0.6018150307709319 0.79863550430605224 1 0 0 forward_v I I I I #
loop $-1 $-1 $154 $37 #
coedge $-1 $96 $96 $97 $155 reversed $58 $-1 #
coedge $-1 $97 $97 $96 $155 forward $60 $-1 #
coedge $-1 $98 $98 $61 $99 forward $93 $-1 #
edge $-1 $156 4.9350636463124897e-015 $156 6.2831853071796058 $98 $157 forward 7 unknown #
face $-1 $158 $159 $15 $-1 $160 reversed single #
loop $-1 $-1 $161 $62 #
plane-surface $-1 -67.084566789757986 0 0 1 0 0 0 0 -1 forward_v I I I I #
coedge $-1 $162 $111 $163 $164 forward $63 $-1 #
coedge $-1 $165 $65 $162 $166 forward $41 $-1 #
coedge $-1 $65 $165 $167 $168 forward $41 $-1 #
coedge $-1 $114 $113 $65 $107 reversed $115 $-1 #
edge $-1 $169 -37.076164150999517 $170 37.076164150999517 $106 $171 forward 7 unknown #
coedge $-1 $67 $66 $172 $173 forward $26 $-1 #
coedge $-1 $174 $175 $66 $110 reversed $159 $-1 #
edge $-1 $117 -67.084566789757986 $176 67.084566789757986 $109 $177 forward 7 unknown #
coedge $-1 $103 $178 $67 $112 reversed $63 $-1 #
edge $-1 $179 -67.084566789757986 $116 67.084566789757986 $111 $180 forward 7 unknown #
coedge $-1 $106 $68 $178 $181 forward $115 $-1 #
coedge $-1 $68 $106 $174 $182 reversed $115 $-1 #
loop $-1 $-1 $113 $158 #
vertex $-1 $69 $183 #
vertex $-1 $69 $184 #
straight-curve $-1 67.084566789757986 0 11.656016411898902 0 1 0 I I #
face $-1 $185 $186 $16 $-1 $187 reversed single #
loop $-1 $-1 $125 $70 #
plane-surface $-1 67.084566789757986 0 0 -1 0 0 0 0 1 forward_v I I I I #
coedge $-1 $188 $189 $123 $190 forward $71 $-1 #
coedge $-1 $191 $73 $122 $190 reversed $45 $-1 #
coedge $-1 $73 $191 $74 $128 reversed $45 $-1 #
coedge $-1 $76 $192 $73 $126 forward $120 $-1 #
edge $-1 $193 -6.7544030770297363 $132 -3.0488235927085947 $125 $194 forward 7 unknown #
coedge $-1 $75 $74 $195 $196 reversed $29 $-1 #
edge $-1 $132 -67.084566789757986 $197 67.084566789757986 $124 $198 forward 7 unknown #
coedge $-1 $199 $200 $75 $130 forward $186 $-1 #
edge $-1 $133 -67.084566789757986 $201 67.084566789757986 $129 $202 forward 7 unknown #
coedge $-1 $192 $76 $200 $203 forward $120 $-1 #
vertex $-1 $77 $204 #
vertex $-1 $203 $205 #
straight-curve $-1 67.084566789757986 -16.218240625579345 -7.9504369275777602 0 -1 0 I I #
face $-1 $-1 $206 $17 $-1 $207 reversed single #
loop $-1 $-1 $141 $78 #
plane-surface $-1 0 0 11.656016411898902 0 0 1 1 0 0 forward_v I I I I #
coedge $-1 $208 $209 $140 $210 forward $79 $-1 #
coedge $-1 $211 $81 $83 $145 forward $49 $-1 #
coedge $-1 $81 $211 $138 $210 reversed $49 $-1 #
coedge $-1 $212 $84 $81 $142 forward $136 $-1 #
edge $-1 $148 4.2976338504202616 $213 43.290499909698568 $141 $214 forward 7 unknown #
coedge $-1 $215 $216 $82 $144 forward $206 $-1 #
edge $-1 $217 -72.829771765217544 $147 -67.292431220270188 $143 $218 forward 7 unknown #
edge $-1 $148 64.951261093933553 $217 74.152328301999063 $83 $219 forward 7 unknown #
coedge $-1 $84 $212 $215 $220 forward $136 $-1 #
vertex $-1 $144 $221 #
vertex $-1 $85 $222 #
straight-curve $-1 28.09170073047968 29.300241647865114 11.656016411898904 0 -1 0 I I #
coedge $-1 $150 $150 $-1 $223 reversed $88 $-1 #
edge $-1 $224 0 $224 6.2831853071796004 $89 $225 forward 7 unknown #
vertex $-1 $92 $226 #
ellipse-curve $-1 39.232519604559187 33.402014676065875 8.8873461394252296 0 0.6018150307709319 0.79863550430605224 1 0 0 1 I I #
coedge $-1 $154 $154 $-1 $227 reversed $95 $-1 #
edge $-1 $228 0 $228 6.2831853071796004 $96 $229 forward 7 unknown #
vertex $-1 $99 $230 #
ellipse-curve $-1 55.943747915678472 33.402014676065875 8.8873461394252296 0 0.6018150307709319 0.79863550430605224 1 0 0 1 I I #
face $-1 $-1 $115 $15 $-1 $231 reversed single #
loop $-1 $-1 $174 $100 #
plane-surface $-1 0 37.076164150999517 0 0 -1 0 0 0 -1 forward_v I I I I #
coedge $-1 $232 $172 $175 $233 forward $101 $-1 #
coedge $-1 $178 $103 $104 $166 reversed $63 $-1 #
coedge $-1 $172 $232 $103 $164 reversed $101 $-1 #
edge $-1 $179 -11.656016411898902 $234 11.656016411898902 $163 $235 forward 7 unknown #
coedge $-1 $105 $104 $232 $236 forward $41 $-1 #
edge $-1 $170 -67.084566789757986 $234 67.084566789757986 $162 $237 forward 7 unknown #
coedge $-1 $175 $174 $105 $168 reversed $159 $-1 #
edge $-1 $238 -67.084566789757986 $169 67.084566789757986 $167 $239 forward 7 unknown #
vertex $-1 $107 $240 #
vertex $-1 $181 $241 #
straight-curve $-1 67.084566789757986 0 -11.656016411898902 0 -1 0 I I #
coedge $-1 $161 $163 $108 $173 reversed $101 $-1 #
edge $-1 $176 -37.076164150999517 $179 37.076164150999517 $172 $242 forward 7 unknown #
coedge $-1 $167 $109 $114 $182 forward $159 $-1 #
coedge $-1 $109 $167 $161 $233 reversed $159 $-1 #
vertex $-1 $110 $243 #
straight-curve $-1 0 37.076164150999517 11.656016411898902 -1 0 0 I I #
coedge $-1 $111 $162 $113 $181 reversed $63 $-1 #
vertex $-1 $173 $244 #
straight-curve $-1 0 -37.076164150999517 11.656016411898902 1 0 0 I I #
edge $-1 $116 -11.656016411898902 $170 11.656016411898902 $113 $245 forward 7 unknown #
edge $-1 $117 -11.656016411898902 $169 11.656016411898902 $114 $246 forward 7 unknown #
point $-1 67.084566789757986 -37.076164150999517 11.656016411898902 #
point $-1 67.084566789757986 37.076164150999517 11.656016411898902 #
face $-1 $-1 $247 $16 $-1 $248 reversed single #
loop $-1 $-1 $129 $119 #
plane-surface $-1 0 -37.076164150999517 0 0 1 0 0 0 1 forward_v I I I I #
coedge $-1 $249 $122 $192 $250 forward $71 $-1 #
coedge $-1 $122 $249 $251 $252 forward $71 $-1 #
edge $-1 $253 -67.084566789757986 $193 67.084566789757986 $122 $254 forward 7 unknown #
coedge $-1 $124 $123 $255 $256 reversed $45 $-1 #
coedge $-1 $125 $131 $188 $250 reversed $120 $-1 #
vertex $-1 $250 $257 #
straight-curve $-1 67.084566789757986 -27.796798351317861 -4.9016133348691655 0 0 1 I I #
coedge $-1 $255 $258 $127 $196 forward $247 $-1 #
edge $-1 $201 -20.857923525420173 $197 -11.578557725738516 $195 $259 forward 7 unknown #
vertex $-1 $196 $260 #
straight-curve $-1 0 -27.796798351317861 -7.9504369275777602 -1 0 0 I I #
coedge $-1 $261 $129 $258 $262 forward $186 $-1 #
coedge $-1 $129 $261 $131 $203 reversed $186 $-1 #
vertex $-1 $262 $263 #
straight-curve $-1 0 -37.076164150999517 -7.9504369275777602 -1 0 0 I I #
edge $-1 $133 7.9504369275777602 $264 11.656016411898902 $131 $265 forward 7 unknown #
point $-1 67.084566789757986 -27.796798351317861 -7.9504369275777602 #
point $-1 67.084566789757986 -37.076164150999517 -7.9504369275777602 #
loop $-1 $-1 $143 $135 #
plane-surface $-1 0 37.076164150999517 0 0 -1 0 0 0 -1 forward_v I I I I #
coedge $-1 $209 $138 $266 $267 reversed $79 $-1 #
coedge $-1 $138 $208 $212 $268 reversed $79 $-1 #
edge $-1 $213 40.839111917594366 $269 50.040179125659883 $138 $270 forward 7 unknown #
coedge $-1 $140 $139 $216 $271 reversed $49 $-1 #
coedge $-1 $146 $141 $209 $268 forward $136 $-1 #
vertex $-1 $268 $272 #
straight-curve $-1 23.794066880059418 29.727865201132236 11.656016411898904 1 0 0 I I #
coedge $-1 $266 $143 $146 $220 reversed $206 $-1 #
coedge $-1 $143 $266 $211 $271 forward $206 $-1 #
vertex $-1 $144 $273 #
straight-curve $-1 28.09170073047968 37.076164150999517 78.948447632169092 0 0 1 I I #
straight-curve $-1 28.09170073047968 -22.144517957935449 50.744661605755354 0 0.79863550430605224 -0.6018150307709319 I I #
edge $-1 $274 -67.084566789757986 $147 -28.09170073047968 $215 $275 forward 7 unknown #
point $-1 28.09170073047968 37.076164150999517 11.656016411898902 #
point $-1 28.09170073047968 29.727865201132246 11.656016411898904 #
edge $-1 $276 1 $276 0 $150 $-1 forward 7 unknown #
vertex $-1 $151 $277 #
ellipse-curve $-1 39.232519604559187 31.058945462511392 5.7779883345961132 0 0.6018150307709319 0.79863550430605224 1 0 0 1 I I #
point $-1 40.232519604559187 33.402014676065889 8.8873461394252402 #
edge $-1 $278 1 $278 0 $154 $-1 forward 7 unknown #
vertex $-1 $155 $279 #
ellipse-curve $-1 55.943747915678472 31.058945462511392 5.7779883345961132 0 0.6018150307709319 0.79863550430605224 1 0 0 1 I I #
point $-1 56.943747915678472 33.402014676065889 8.8873461394252402 #
plane-surface $-1 67.084566789757986 0 0 -1 0 0 0 0 1 forward_v I I I I #
coedge $-1 $163 $161 $165 $236 reversed $101 $-1 #
edge $-1 $176 -11.656016411898902 $238 11.656016411898902 $175 $280 forward 7 unknown #
vertex $-1 $236 $281 #
straight-curve $-1 -67.084566789757986 -37.076164150999517 0 0 0 -1 I I #
edge $-1 $234 -37.076164150999517 $238 37.076164150999517 $232 $282 forward 7 unknown #
straight-curve $-1 0 -37.076164150999517 -11.656016411898902 -1 0 0 I I #
vertex $-1 $168 $283 #
straight-curve $-1 0 37.076164150999517 -11.656016411898902 1 0 0 I I #
point $-1 67.084566789757986 37.076164150999517 -11.656016411898902 #
point $-1 67.084566789757986 -37.076164150999517 -11.656016411898902 #
straight-curve $-1 -67.084566789757986 0 11.656016411898902 0 -1 0 I I #
point $-1 -67.084566789757986 37.076164150999517 11.656016411898902 #
point $-1 -67.084566789757986 -37.076164150999517 11.656016411898902 #
straight-curve $-1 67.084566789757986 -37.076164150999517 0 0 0 -1 I I #
straight-curve $-1 67.084566789757986 37.076164150999517 0 0 0 -1 I I #
loop $-1 $-1 $255 $185 #
plane-surface $-1 -67.084566789757986 0 0 1 0 0 0 0 -1 forward_v I I I I #
coedge $-1 $189 $188 $261 $284 forward $71 $-1 #
edge $-1 $193 27.796798351317861 $264 37.076164150999517 $192 $285 forward 7 unknown #
coedge $-1 $258 $255 $189 $252 reversed $247 $-1 #
edge $-1 $286 -37.076164150999517 $253 -27.796798351317861 $251 $287 forward 7 unknown #
vertex $-1 $256 $288 #
straight-curve $-1 0 -27.796798351317861 -11.656016411898902 1 0 0 I I #
coedge $-1 $251 $195 $191 $256 forward $247 $-1 #
edge $-1 $197 3.0488235927085947 $253 6.7544030770297363 $255 $289 forward 7 unknown #
point $-1 67.084566789757986 -27.796798351317861 -11.656016411898902 #
coedge $-1 $195 $251 $199 $262 reversed $247 $-1 #
straight-curve $-1 -67.084566789757986 -16.218240625579345 -7.9504369275777602 0 1 0 I I #
point $-1 -67.084566789757986 -27.796798351317861 -7.9504369275777602 #
coedge $-1 $200 $199 $249 $284 reversed $186 $-1 #
edge $-1 $201 7.9504369275777602 $286 11.656016411898902 $258 $290 forward 7 unknown #
point $-1 -67.084566789757986 -37.076164150999517 -7.9504369275777602 #
vertex $-1 $203 $291 #
straight-curve $-1 67.084566789757986 -37.076164150999517 0 0 0 -1 I I #
coedge $-1 $216 $215 $208 $267 forward $206 $-1 #
edge $-1 $274 -11.656016411898902 $269 -6.1186758669515413 $208 $292 forward 7 unknown #
edge $-1 $213 29.727865201132246 $274 37.076164150999517 $209 $293 forward 7 unknown #
vertex $-1 $210 $294 #
straight-curve $-1 67.084566789757986 -2.8876995405870343 36.233607807243487 0 0.79863550430605224 -0.6018150307709319 I I #
edge $-1 $269 -43.290499909698568 $217 -4.2976338504202616 $216 $295 forward 7 unknown #
point $-1 67.084566789757986 29.727865201132246 11.656016411898904 #
point $-1 28.09170073047968 37.076164150999524 6.1186758669515413 #
vertex $-1 $268 $296 #
straight-curve $-1 0 37.076164150999517 11.656016411898902 -1 0 0 I I #
vertex $-1 $223 $297 #
point $-1 40.232519604559187 31.058945462511392 5.7779883345961132 #
vertex $-1 $227 $298 #
point $-1 56.943747915678472 31.058945462511392 5.7779883345961132 #
straight-curve $-1 -67.084566789757986 37.076164150999517 0 0 0 -1 I I #
point $-1 -67.084566789757986 -37.076164150999517 -11.656016411898902 #
straight-curve $-1 -67.084566789757986 0 -11.656016411898902 0 1 0 I I #
point $-1 -67.084566789757986 37.076164150999517 -11.656016411898902 #
edge $-1 $264 -67.084566789757986 $286 67.084566789757986 $261 $299 forward 7 unknown #
straight-curve $-1 67.084566789757986 0 -11.656016411898902 0 -1 0 I I #
vertex $-1 $252 $300 #
straight-curve $-1 -67.084566789757986 0 -11.656016411898902 0 1 0 I I #
point $-1 -67.084566789757986 -27.796798351317861 -11.656016411898902 #
straight-curve $-1 -67.084566789757986 -27.796798351317861 -4.9016133348691655 0 0 -1 I I #
straight-curve $-1 -67.084566789757986 -37.076164150999517 0 0 0 -1 I I #
point $-1 67.084566789757986 -37.076164150999517 -11.656016411898902 #
straight-curve $-1 67.084566789757986 37.076164150999517 0 0 0 -1 I I #
straight-curve $-1 67.084566789757986 0 11.656016411898902 0 1 0 I I #
point $-1 67.084566789757986 37.076164150999524 6.1186758669515413 #
straight-curve $-1 23.794066880059418 37.076164150999517 6.118675866951552 -1 0 0 I I #
point $-1 67.084566789757986 37.076164150999517 11.656016411898902 #
point $-1 39.232519604559187 30.457130431740463 4.9793528302900611 #
point $-1 55.943747915678472 30.457130431740463 4.9793528302900611 #
straight-curve $-1 0 -37.076164150999517 -11.656016411898902 -1 0 0 I I #
point $-1 -67.084566789757986 -37.076164150999517 -11.656016411898902 #
End-of-ACIS-data 