500 0 9 0           
7 Unknown 11 ACIS 5.0 NT 24 Thu Mar 25 16:33:25 1999 
-1 9.9999999999999995e-007 1e-010 
body $-1 $9 $-1 $10 #
body $-1 $11 $-1 $12 #
body $-1 $13 $-1 $14 #
body $-1 $15 $-1 $16 #
body $-1 $17 $-1 $18 #
body $-1 $19 $-1 $20 #
body $-1 $21 $-1 $22 #
body $-1 $23 $-1 $24 #
body $-1 $25 $-1 $26 #
lump $-1 $-1 $27 $0 #
transform $-1 1 0 0 0 1 0 0 0 1 66.791589098788421 31.518242966432876 11.672147926281818 1 rotate no_reflect no_shear #
lump $-1 $-1 $28 $1 #
transform $-1 1 0 0 0 1 0 0 0 1 66.791589098788421 31.518242966432876 11.672147926281818 1 rotate no_reflect no_shear #
lump $-1 $-1 $29 $2 #
transform $-1 1 0 0 0 1 0 0 0 1 66.791589098788421 31.518242966432876 11.672147926281818 1 rotate no_reflect no_shear #
lump $-1 $-1 $30 $3 #
transform $-1 1 0 0 0 1 0 0 0 1 66.791589098788421 31.518242966432876 11.672147926281818 1 rotate no_reflect no_shear #
lump $-1 $-1 $31 $4 #
transform $-1 1 0 0 0 1 0 0 0 1 66.791589098788421 31.518242966432876 11.672147926281818 1 rotate no_reflect no_shear #
lump $-1 $-1 $32 $5 #
transform $-1 1 0 0 0 1 0 0 0 1 66.791589098788421 31.518242966432876 11.672147926281818 1 rotate no_reflect no_shear #
lump $-1 $-1 $33 $6 #
transform $-1 1 0 0 0 1 0 0 0 1 66.791589098788421 31.518242966432876 11.672147926281818 1 rotate no_reflect no_shear #
lump $-1 $-1 $34 $7 #
transform $-1 1 0 0 0 1 0 0 0 1 66.791589098788421 31.518242966432876 11.672147926281818 1 rotate no_reflect no_shear #
lump $-1 $-1 $35 $8 #
transform $-1 1 0 0 0 1 0 0 0 1 66.791589098788421 31.518242966432876 11.672147926281818 1 rotate no_reflect no_shear #
shell $-1 $-1 $-1 $36 $-1 $9 #
shell $-1 $-1 $-1 $37 $-1 $11 #
shell $-1 $-1 $-1 $38 $-1 $13 #
shell $-1 $-1 $-1 $39 $-1 $15 #
shell $-1 $-1 $-1 $40 $-1 $17 #
shell $-1 $-1 $-1 $41 $-1 $19 #
shell $-1 $-1 $-1 $42 $-1 $21 #
shell $-1 $-1 $-1 $43 $-1 $23 #
shell $-1 $-1 $-1 $44 $-1 $25 #
face $-1 $45 $46 $27 $-1 $47 forward single #
face $-1 $48 $49 $28 $-1 $50 forward single #
face $-1 $51 $52 $29 $-1 $53 forward single #
face $-1 $54 $55 $30 $-1 $56 reversed single #
face $-1 $57 $58 $31 $-1 $59 forward single #
face $-1 $60 $61 $32 $-1 $62 forward single #
face $-1 $63 $64 $33 $-1 $65 reversed single #
face $-1 $66 $67 $34 $-1 $68 forward single #
face $-1 $69 $70 $35 $-1 $71 forward single #
face $-1 $72 $73 $27 $-1 $74 reversed single #
loop $-1 $-1 $75 $36 #
plane-surface $-1 0 0 11.672147926281818 0 0 1 1 0 0 forward_v I I I I #
face $-1 $76 $77 $28 $-1 $78 reversed single #
loop $-1 $-1 $79 $37 #
plane-surface $-1 0 -25.842740740732992 2.6578367308567641 0 0 1 1 0 0 forward_v I I I I #
face $-1 $80 $81 $29 $-1 $82 reversed single #
loop $-1 $-1 $83 $38 #
plane-surface $-1 0 25.842740740732996 2.6578367308567641 0 0 1 1 0 0 forward_v I I I I #
face $-1 $84 $85 $30 $-1 $86 reversed single #
loop $-1 $-1 $87 $39 #
plane-surface $-1 -157.89509864462255 9.7570628662692407 105.68825526038005 0 -1 0 0.68199836817093118 0 -0.7313536940579346 forward_v I I I I #
face $-1 $88 $89 $31 $-1 $90 forward single #
loop $-1 $91 $92 $40 #
cone-surface $-1 -64.477193731841055 4.6313076984026473 9.4662493269033749 0.68199836817093118 0 -0.7313536940579346 0.3656768470289673 0 0.34099918408546559 1 I I 0 1 0.5 forward I I I I #
face $-1 $93 $94 $32 $-1 $95 forward single #
loop $-1 $96 $97 $41 #
cone-surface $-1 -64.477193731841055 7.7067607991226019 9.4662493269033749 0.68199836817093118 0 -0.7313536940579346 0.3656768470289673 0 0.34099918408546559 1 I I 0 1 0.5 forward I I I I #
face $-1 $98 $99 $33 $-1 $100 reversed single #
loop $-1 $-1 $101 $42 #
plane-surface $-1 112.49430122282456 -20.167238515033109 191.2439147008543 0 1 0 0.85716730853699208 0 0.51503806187062418 forward_v I I I I #
face $-1 $102 $103 $34 $-1 $104 forward single #
loop $-1 $105 $106 $43 #
cone-surface $-1 65.241863336104274 -17.85395325197949 9.5487350232165049 -0.85716730853699208 0 -0.51503806187062418 0.25751903093531209 0 -0.42858365426849604 1 I I 0 1 0.5 forward I I I I #
face $-1 $107 $108 $35 $-1 $109 forward single #
loop $-1 $110 $111 $44 #
cone-surface $-1 65.241863336104274 -14.384025357399061 9.5487350232165049 -0.85716730853699208 0 -0.51503806187062418 0.25751903093531209 0 -0.42858365426849604 1 I I 0 1 0.5 forward I I I I #
face $-1 $112 $113 $27 $-1 $114 reversed single #
loop $-1 $-1 $115 $45 #
plane-surface $-1 0 0 -11.672147926281818 0 0 1 1 0 0 forward_v I I I I #
coedge $-1 $116 $117 $118 $119 forward $46 $-1 #
face $-1 $120 $121 $28 $-1 $122 reversed single #
loop $-1 $-1 $123 $48 #
plane-surface $-1 0 -25.842740740732992 -3.9628754425939361 0 0 1 1 0 0 forward_v I I I I #
coedge $-1 $124 $125 $126 $127 reversed $49 $-1 #
face $-1 $128 $129 $29 $-1 $130 reversed single #
loop $-1 $-1 $131 $51 #
plane-surface $-1 0 25.842740740732996 -3.9628754425939361 0 0 1 1 0 0 forward_v I I I I #
coedge $-1 $132 $133 $134 $135 reversed $52 $-1 #
face $-1 $136 $137 $30 $-1 $138 reversed single #
loop $-1 $-1 $139 $54 #
plane-surface $-1 -66.791589098788435 6.1690342487626246 7.9917044215828668 -0.68199836817093118 0 0.7313536940579346 0.7313536940579346 0 0.68199836817093118 forward_v I I I I #
coedge $-1 $140 $141 $142 $143 reversed $55 $-1 #
face $-1 $-1 $144 $31 $-1 $145 forward single #
loop $-1 $146 $147 $57 #
cone-surface $-1 -63.965694955712863 4.6313076984026473 8.9177340563599241 0.68199836817093118 0 -0.7313536940579346 0.18283842351448365 0 0.17049959204273279 1 I I -0.70710678118654746 0.70710678118654746 0.25 forward I I I I #
loop $-1 $-1 $148 $40 #
coedge $-1 $92 $92 $149 $150 reversed $58 $-1 #
face $-1 $-1 $151 $32 $-1 $152 forward single #
loop $-1 $153 $154 $60 #
cone-surface $-1 -63.965694955712863 7.7067607991226019 8.9177340563599241 0.68199836817093118 0 -0.7313536940579346 0.18283842351448365 0 0.17049959204273279 1 I I -0.70710678118654746 0.70710678118654746 0.25 forward I I I I #
loop $-1 $-1 $155 $41 #
coedge $-1 $97 $97 $156 $157 reversed $61 $-1 #
face $-1 $158 $159 $33 $-1 $160 reversed single #
loop $-1 $-1 $161 $63 #
plane-surface $-1 -2.008832098609787 -16.118989304689276 122.44349350345611 0.85716730853699208 0 0.51503806187062418 0.51503806187062418 0 -0.85716730853699208 forward_v I I I I #
coedge $-1 $162 $163 $164 $165 reversed $64 $-1 #
face $-1 $-1 $166 $34 $-1 $167 forward single #
loop $-1 $168 $169 $66 #
cone-surface $-1 64.598987854701534 -17.85395325197949 9.1624564768135368 -0.85716730853699208 0 -0.51503806187062418 0.12875951546765604 0 -0.21429182713424802 1 I I -0.70710678118654746 0.70710678118654746 0.25 forward I I I I #
loop $-1 $-1 $170 $43 #
coedge $-1 $106 $106 $171 $172 reversed $67 $-1 #
face $-1 $-1 $173 $35 $-1 $174 forward single #
loop $-1 $175 $176 $69 #
cone-surface $-1 64.598987854701534 -14.384025357399061 9.1624564768135368 -0.85716730853699208 0 -0.51503806187062418 0.12875951546765604 0 -0.21429182713424802 1 I I -0.70710678118654746 0.70710678118654746 0.25 forward I I I I #
loop $-1 $-1 $177 $44 #
coedge $-1 $111 $111 $178 $179 reversed $70 $-1 #
face $-1 $180 $181 $27 $-1 $182 reversed single #
loop $-1 $-1 $183 $72 #
plane-surface $-1 0 -31.518242966432876 0 0 1 0 0 0 1 forward_v I I I I #
coedge $-1 $184 $185 $186 $187 forward $73 $-1 #
coedge $-1 $188 $75 $189 $190 forward $46 $-1 #
coedge $-1 $75 $188 $191 $192 forward $46 $-1 #
coedge $-1 $193 $194 $75 $119 reversed $195 $-1 #
edge $-1 $196 -31.518242966432876 $197 31.518242966432876 $118 $198 forward 7 unknown #
face $-1 $199 $200 $28 $-1 $201 reversed single #
loop $-1 $-1 $202 $76 #
plane-surface $-1 0 -20.167238515033109 -0.652519355868586 0 -1 0 0 0 -1 forward_v I I I I #
coedge $-1 $203 $204 $205 $206 reversed $77 $-1 #
coedge $-1 $207 $79 $208 $209 forward $49 $-1 #
coedge $-1 $79 $207 $210 $211 reversed $49 $-1 #
coedge $-1 $212 $213 $79 $127 forward $214 $-1 #
edge $-1 $215 7.2458681446666127 $216 18.59687259606638 $126 $217 forward 7 unknown #
face $-1 $218 $219 $29 $-1 $220 reversed single #
loop $-1 $-1 $221 $80 #
plane-surface $-1 0 20.167238515033112 -0.652519355868586 0 1 0 0 0 1 forward_v I I I I #
coedge $-1 $222 $223 $224 $225 reversed $81 $-1 #
coedge $-1 $226 $83 $227 $228 reversed $52 $-1 #
coedge $-1 $83 $226 $229 $230 forward $52 $-1 #
coedge $-1 $231 $232 $83 $135 forward $219 $-1 #
edge $-1 $233 -18.596872596066383 $234 -7.2458681446666144 $134 $235 forward 7 unknown #
face $-1 $236 $237 $30 $-1 $238 reversed single #
loop $-1 $-1 $239 $84 #
plane-surface $-1 -157.89509864462255 2.5810056312560086 105.68825526038005 0 1 0 -0.68199836817093118 0 0.7313536940579346 forward_v I I I I #
coedge $-1 $240 $241 $242 $243 reversed $85 $-1 #
coedge $-1 $141 $87 $244 $245 reversed $55 $-1 #
coedge $-1 $87 $140 $240 $246 reversed $55 $-1 #
coedge $-1 $242 $247 $87 $143 forward $237 $-1 #
edge $-1 $248 41.171979703908207 $249 44.852423208607142 $142 $250 forward 7 unknown #
loop $-1 $-1 $149 $88 #
plane-surface $-1 -66.791589098788435 6.1690342487626246 7.9917044215828668 -0.68199836817093118 0 0.7313536940579346 0.7313536940579346 0 0.68199836817093118 forward_v I I I I #
loop $-1 $-1 $251 $57 #
coedge $-1 $147 $147 $148 $252 reversed $89 $-1 #
coedge $-1 $148 $148 $147 $252 forward $91 $-1 #
coedge $-1 $149 $149 $92 $150 forward $144 $-1 #
edge $-1 $253 0 $253 6.2831853071796004 $149 $254 forward 7 unknown #
loop $-1 $-1 $156 $93 #
plane-surface $-1 -66.791589098788435 6.1690342487626246 7.9917044215828668 -0.68199836817093118 0 0.7313536940579346 0.7313536940579346 0 0.68199836817093118 forward_v I I I I #
loop $-1 $-1 $255 $60 #
coedge $-1 $154 $154 $155 $256 reversed $94 $-1 #
coedge $-1 $155 $155 $154 $256 forward $96 $-1 #
coedge $-1 $156 $156 $97 $157 forward $151 $-1 #
edge $-1 $257 0 $257 6.2831853071796004 $156 $258 forward 7 unknown #
face $-1 $259 $260 $33 $-1 $261 forward single #
loop $-1 $-1 $262 $98 #
plane-surface $-1 112.49430122282456 -12.070740094345442 191.2439147008543 0 -1 0 -0.85716730853699208 0 -0.51503806187062418 forward_v I I I I #
coedge $-1 $263 $264 $265 $266 reversed $99 $-1 #
coedge $-1 $163 $101 $267 $268 reversed $64 $-1 #
coedge $-1 $101 $162 $263 $269 reversed $64 $-1 #
coedge $-1 $265 $270 $101 $165 forward $271 $-1 #
edge $-1 $272 83.949809424145329 $273 87.681597168405403 $164 $274 forward 7 unknown #
loop $-1 $-1 $171 $102 #
plane-surface $-1 -2.008832098609787 -16.118989304689276 122.44349350345611 0.85716730853699208 0 0.51503806187062418 0.51503806187062418 0 -0.85716730853699208 forward_v I I I I #
loop $-1 $-1 $275 $66 #
coedge $-1 $169 $169 $170 $276 reversed $103 $-1 #
coedge $-1 $170 $170 $169 $276 forward $105 $-1 #
coedge $-1 $171 $171 $106 $172 forward $166 $-1 #
edge $-1 $277 0 $277 6.2831853071796004 $171 $278 forward 7 unknown #
loop $-1 $-1 $178 $107 #
plane-surface $-1 -2.008832098609787 -16.118989304689276 122.44349350345611 0.85716730853699208 0 0.51503806187062418 0.51503806187062418 0 -0.85716730853699208 forward_v I I I I #
loop $-1 $-1 $279 $69 #
coedge $-1 $176 $176 $177 $280 reversed $108 $-1 #
coedge $-1 $177 $177 $176 $280 forward $110 $-1 #
coedge $-1 $178 $178 $111 $179 forward $173 $-1 #
edge $-1 $281 0 $281 6.2831853071796004 $178 $282 forward 7 unknown #
face $-1 $283 $284 $27 $-1 $285 reversed single #
loop $-1 $-1 $286 $112 #
plane-surface $-1 -66.791589098788421 0 0 1 0 0 0 0 -1 forward_v I I I I #
coedge $-1 $287 $191 $288 $289 forward $113 $-1 #
coedge $-1 $290 $115 $287 $291 forward $73 $-1 #
coedge $-1 $115 $290 $292 $293 forward $73 $-1 #
coedge $-1 $194 $193 $115 $187 reversed $195 $-1 #
edge $-1 $294 -31.518242966432876 $295 31.518242966432876 $186 $296 forward 7 unknown #
coedge $-1 $117 $116 $297 $298 forward $46 $-1 #
coedge $-1 $299 $300 $116 $190 reversed $284 $-1 #
edge $-1 $197 -66.791589098788421 $301 66.791589098788421 $189 $302 forward 7 unknown #
coedge $-1 $183 $303 $117 $192 reversed $113 $-1 #
edge $-1 $304 -66.791589098788421 $196 66.791589098788421 $191 $305 forward 7 unknown #
coedge $-1 $186 $118 $303 $306 forward $195 $-1 #
coedge $-1 $118 $186 $299 $307 reversed $195 $-1 #
loop $-1 $-1 $193 $283 #
vertex $-1 $119 $308 #
vertex $-1 $119 $309 #
straight-curve $-1 66.791589098788421 0 11.672147926281818 0 1 0 I I #
face $-1 $310 $311 $28 $-1 $312 reversed single #
loop $-1 $-1 $313 $120 #
plane-surface $-1 -66.791589098788421 0 0 1 0 0 0 0 -1 forward_v I I I I #
coedge $-1 $314 $208 $213 $315 reversed $121 $-1 #
coedge $-1 $316 $123 $317 $318 reversed $77 $-1 #
coedge $-1 $123 $316 $314 $319 forward $77 $-1 #
coedge $-1 $213 $212 $123 $206 forward $214 $-1 #
edge $-1 $320 -18.59687259606638 $321 -7.2458681446666127 $205 $322 forward 7 unknown #
coedge $-1 $125 $124 $313 $323 reversed $49 $-1 #
coedge $-1 $202 $324 $124 $209 reversed $121 $-1 #
edge $-1 $215 -66.791589098788421 $325 66.791589098788421 $208 $326 forward 7 unknown #
coedge $-1 $327 $328 $125 $211 forward $311 $-1 #
edge $-1 $216 -66.791589098788421 $329 66.791589098788421 $210 $330 forward 7 unknown #
coedge $-1 $205 $126 $328 $331 forward $214 $-1 #
coedge $-1 $126 $205 $202 $315 forward $214 $-1 #
loop $-1 $-1 $126 $310 #
vertex $-1 $127 $332 #
vertex $-1 $331 $333 #
straight-curve $-1 66.791589098788421 -12.921370370366496 2.6578367308567641 0 -1 0 I I #
face $-1 $334 $335 $29 $-1 $336 reversed single #
loop $-1 $-1 $134 $128 #
plane-surface $-1 66.791589098788421 0 0 -1 0 0 0 0 1 forward_v I I I I #
coedge $-1 $337 $229 $338 $339 reversed $129 $-1 #
coedge $-1 $340 $131 $337 $341 forward $81 $-1 #
coedge $-1 $131 $340 $342 $343 reversed $81 $-1 #
coedge $-1 $232 $231 $131 $225 forward $219 $-1 #
edge $-1 $344 7.2458681446666144 $345 18.596872596066383 $224 $346 forward 7 unknown #
coedge $-1 $133 $132 $347 $348 reversed $52 $-1 #
coedge $-1 $349 $350 $132 $228 forward $351 $-1 #
edge $-1 $352 -66.791589098788421 $233 66.791589098788421 $227 $353 forward 7 unknown #
coedge $-1 $221 $354 $133 $230 reversed $129 $-1 #
edge $-1 $355 -66.791589098788421 $234 66.791589098788421 $229 $356 forward 7 unknown #
coedge $-1 $224 $134 $354 $357 forward $219 $-1 #
coedge $-1 $134 $224 $349 $358 reversed $219 $-1 #
vertex $-1 $358 $359 #
vertex $-1 $135 $360 #
straight-curve $-1 66.791589098788421 12.921370370366498 2.6578367308567641 0 -1 0 I I #
face $-1 $-1 $361 $30 $-1 $362 forward single #
loop $-1 $-1 $142 $136 #
plane-surface $-1 -66.791589098788421 0 0 1 0 0 0 0 -1 forward_v I I I I #
coedge $-1 $363 $364 $365 $366 reversed $137 $-1 #
coedge $-1 $367 $139 $141 $246 forward $85 $-1 #
coedge $-1 $139 $367 $363 $368 forward $85 $-1 #
coedge $-1 $365 $142 $139 $243 forward $237 $-1 #
edge $-1 $249 -6.6725457418879284 $369 0.50351149312530374 $242 $370 forward 7 unknown #
coedge $-1 $371 $372 $140 $245 forward $361 $-1 #
edge $-1 $373 -16.10275258924662 $248 -12.155960223522854 $244 $374 forward 7 unknown #
edge $-1 $249 1.9479204584885432e-014 $373 5.3965576407017295 $141 $375 forward 7 unknown #
coedge $-1 $142 $365 $371 $376 reversed $237 $-1 #
vertex $-1 $376 $377 #
vertex $-1 $143 $378 #
straight-curve $-1 -66.791589098788421 9.7570628662692407 52.844127630190023 0 0 -1 I I #
coedge $-1 $251 $251 $-1 $379 reversed $146 $-1 #
edge $-1 $380 0 $380 6.2831853071796004 $147 $381 forward 7 unknown #
vertex $-1 $150 $382 #
ellipse-curve $-1 -64.818192915926531 4.6313076984026473 9.831926173932354 -0.68199836817093118 0 0.7313536940579346 0.3656768470289673 0 0.34099918408546559 1 I I #
coedge $-1 $255 $255 $-1 $383 reversed $153 $-1 #
edge $-1 $384 0 $384 6.2831853071796004 $154 $385 forward 7 unknown #
vertex $-1 $157 $386 #
ellipse-curve $-1 -64.818192915926531 7.7067607991226019 9.831926173932354 -0.68199836817093118 0 0.7313536940579346 0.3656768470289673 0 0.34099918408546559 1 I I #
face $-1 $-1 $271 $33 $-1 $387 reversed single #
loop $-1 $-1 $388 $158 #
plane-surface $-1 0 0 11.672147926281818 0 0 1 1 0 0 forward_v I I I I #
coedge $-1 $389 $390 $391 $392 reversed $159 $-1 #
coedge $-1 $393 $161 $163 $269 forward $99 $-1 #
coedge $-1 $161 $393 $389 $394 forward $99 $-1 #
coedge $-1 $391 $164 $161 $266 forward $271 $-1 #
edge $-1 $273 -12.107743862688471 $395 -4.0112454420008046 $265 $396 forward 7 unknown #
coedge $-1 $397 $398 $162 $268 forward $260 $-1 #
edge $-1 $399 8.3021542705448468 $272 10.544438487376141 $267 $400 forward 7 unknown #
edge $-1 $273 -133.5831781975769 $399 -129.22955002359828 $163 $401 forward 7 unknown #
coedge $-1 $164 $391 $397 $402 reversed $271 $-1 #
loop $-1 $-1 $391 $259 #
vertex $-1 $402 $403 #
vertex $-1 $165 $404 #
straight-curve $-1 66.791589098788421 -20.167238515033109 95.621957350427152 0 0 -1 I I #
coedge $-1 $275 $275 $-1 $405 reversed $168 $-1 #
edge $-1 $406 0 $406 6.2831853071796004 $169 $407 forward 7 unknown #
vertex $-1 $172 $408 #
ellipse-curve $-1 65.670446990372753 -17.85395325197949 9.8062540541518093 0.85716730853699208 0 0.51503806187062418 0.25751903093531209 0 -0.42858365426849604 1 I I #
coedge $-1 $279 $279 $-1 $409 reversed $175 $-1 #
edge $-1 $410 0 $410 6.2831853071796004 $176 $411 forward 7 unknown #
vertex $-1 $179 $412 #
ellipse-curve $-1 65.670446990372753 -14.384025357399061 9.8062540541518093 0.85716730853699208 0 0.51503806187062418 0.25751903093531209 0 -0.42858365426849604 1 I I #
face $-1 $-1 $195 $27 $-1 $413 reversed single #
loop $-1 $-1 $299 $180 #
plane-surface $-1 0 31.518242966432876 0 0 -1 0 0 0 -1 forward_v I I I I #
coedge $-1 $414 $297 $300 $415 forward $181 $-1 #
coedge $-1 $303 $183 $184 $291 reversed $113 $-1 #
coedge $-1 $297 $414 $183 $289 reversed $181 $-1 #
edge $-1 $304 -11.672147926281818 $416 11.672147926281818 $288 $417 forward 7 unknown #
coedge $-1 $185 $184 $414 $418 forward $73 $-1 #
edge $-1 $295 -66.791589098788421 $416 66.791589098788421 $287 $419 forward 7 unknown #
coedge $-1 $300 $299 $185 $293 reversed $284 $-1 #
edge $-1 $420 -66.791589098788421 $294 66.791589098788421 $292 $421 forward 7 unknown #
vertex $-1 $187 $422 #
vertex $-1 $306 $423 #
straight-curve $-1 66.791589098788421 0 -11.672147926281818 0 -1 0 I I #
coedge $-1 $286 $288 $188 $298 reversed $181 $-1 #
edge $-1 $301 -31.518242966432876 $304 31.518242966432876 $297 $424 forward 7 unknown #
coedge $-1 $292 $189 $194 $307 forward $284 $-1 #
coedge $-1 $189 $292 $286 $415 reversed $284 $-1 #
vertex $-1 $190 $425 #
straight-curve $-1 0 31.518242966432876 11.672147926281818 -1 0 0 I I #
coedge $-1 $191 $287 $193 $306 reversed $113 $-1 #
vertex $-1 $298 $426 #
straight-curve $-1 0 -31.518242966432876 11.672147926281818 1 0 0 I I #
edge $-1 $196 -11.672147926281818 $295 11.672147926281818 $193 $427 forward 7 unknown #
edge $-1 $197 -11.672147926281818 $294 11.672147926281818 $194 $428 forward 7 unknown #
point $-1 66.791589098788421 -31.518242966432876 11.672147926281818 #
point $-1 66.791589098788421 31.518242966432876 11.672147926281818 #
face $-1 $-1 $214 $28 $-1 $429 reversed single #
loop $-1 $-1 $210 $199 #
plane-surface $-1 0 -31.518242966432876 0 0 1 0 0 0 1 forward_v I I I I #
coedge $-1 $430 $431 $207 $323 forward $200 $-1 #
coedge $-1 $324 $202 $204 $319 reversed $121 $-1 #
edge $-1 $321 -3.6366157646596431 $215 2.9840964087910571 $213 $432 forward 7 unknown #
coedge $-1 $204 $203 $433 $434 reversed $77 $-1 #
coedge $-1 $328 $327 $203 $318 forward $311 $-1 #
edge $-1 $435 -66.791589098788421 $320 66.791589098788421 $317 $436 forward 7 unknown #
edge $-1 $437 -66.791589098788421 $321 66.791589098788421 $314 $438 forward 7 unknown #
vertex $-1 $318 $439 #
vertex $-1 $206 $440 #
straight-curve $-1 66.791589098788421 -12.921370370366496 -3.9628754425939361 0 1 0 I I #
edge $-1 $329 -18.59687259606638 $325 -7.2458681446666127 $313 $441 forward 7 unknown #
coedge $-1 $208 $314 $430 $442 reversed $121 $-1 #
vertex $-1 $323 $443 #
straight-curve $-1 0 -20.167238515033109 2.6578367308567641 -1 0 0 I I #
coedge $-1 $317 $210 $431 $444 forward $311 $-1 #
coedge $-1 $210 $317 $212 $331 reversed $311 $-1 #
vertex $-1 $444 $445 #
straight-curve $-1 0 -31.518242966432876 2.6578367308567641 -1 0 0 I I #
edge $-1 $216 -2.6578367308567641 $320 3.9628754425939361 $212 $446 forward 7 unknown #
point $-1 66.791589098788421 -20.167238515033109 2.6578367308567641 #
point $-1 66.791589098788421 -31.518242966432876 2.6578367308567641 #
face $-1 $-1 $351 $29 $-1 $447 reversed single #
loop $-1 $-1 $347 $218 #
plane-surface $-1 -66.791589098788421 0 0 1 0 0 0 0 -1 forward_v I I I I #
coedge $-1 $354 $221 $222 $341 reversed $129 $-1 #
coedge $-1 $347 $448 $221 $339 forward $335 $-1 #
edge $-1 $449 -3.6366157646596431 $355 2.9840964087910571 $338 $450 forward 7 unknown #
coedge $-1 $223 $222 $448 $451 reversed $81 $-1 #
edge $-1 $344 -66.791589098788421 $449 66.791589098788421 $337 $452 forward 7 unknown #
coedge $-1 $350 $349 $223 $343 forward $351 $-1 #
edge $-1 $345 -66.791589098788421 $453 66.791589098788421 $342 $454 forward 7 unknown #
vertex $-1 $225 $455 #
vertex $-1 $343 $456 #
straight-curve $-1 66.791589098788421 12.921370370366498 -3.9628754425939361 0 1 0 I I #
coedge $-1 $457 $338 $226 $348 forward $335 $-1 #
edge $-1 $355 7.2458681446666144 $352 18.596872596066383 $347 $458 forward 7 unknown #
coedge $-1 $342 $227 $232 $358 forward $351 $-1 #
coedge $-1 $227 $342 $457 $459 reversed $351 $-1 #
loop $-1 $-1 $227 $334 #
vertex $-1 $459 $460 #
straight-curve $-1 0 31.518242966432876 2.6578367308567641 1 0 0 I I #
coedge $-1 $229 $337 $231 $357 reversed $129 $-1 #
vertex $-1 $348 $461 #
straight-curve $-1 0 20.167238515033112 2.6578367308567641 1 0 0 I I #
edge $-1 $234 -2.9840964087910571 $344 3.6366157646596431 $231 $462 forward 7 unknown #
edge $-1 $233 -2.6578367308567641 $345 3.9628754425939361 $232 $463 forward 7 unknown #
point $-1 66.791589098788421 31.518242966432879 2.6578367308567641 #
point $-1 66.791589098788421 20.167238515033112 2.6578367308567641 #
loop $-1 $-1 $244 $236 #
plane-surface $-1 0 0 11.672147926281818 0 0 1 1 0 0 forward_v I I I I #
coedge $-1 $364 $239 $241 $368 reversed $137 $-1 #
coedge $-1 $239 $363 $464 $465 reversed $137 $-1 #
coedge $-1 $247 $242 $239 $366 forward $237 $-1 #
edge $-1 $369 -44.852423208607142 $466 -41.171979703908207 $365 $467 forward 7 unknown #
coedge $-1 $241 $240 $372 $468 reversed $85 $-1 #
edge $-1 $469 -5.3965576407017295 $369 -1.9479204584885432e-014 $363 $470 forward 7 unknown #
vertex $-1 $243 $471 #
straight-curve $-1 -66.791589098788421 3.0845171243813123 7.9917044215828721 0 -1 0 I I #
coedge $-1 $464 $244 $247 $376 forward $361 $-1 #
coedge $-1 $244 $464 $367 $468 forward $361 $-1 #
vertex $-1 $245 $472 #
straight-curve $-1 -78.947549322311275 9.7570628662692407 11.672147926281816 -1 0 0 I I #
straight-curve $-1 -66.791589098788435 9.7570628662692407 7.9917044215828668 0.7313536940579346 0 0.68199836817093118 I I #
edge $-1 $248 -9.7570628662692407 $466 -2.5810056312560086 $247 $473 forward 7 unknown #
point $-1 -66.791589098788421 9.7570628662692407 11.672147926281818 #
point $-1 -66.791589098788421 9.7570628662692407 7.9917044215828801 #
edge $-1 $474 1 $474 0 $251 $-1 forward 7 unknown #
vertex $-1 $252 $475 #
ellipse-curve $-1 -64.136194547755593 4.6313076984026473 9.1005724798744083 -0.68199836817093118 0 0.7313536940579346 0.3656768470289673 0 0.34099918408546559 1 I I #
point $-1 -64.452516068897566 4.6313076984026473 10.172925358017809 #
edge $-1 $476 1 $476 0 $255 $-1 forward 7 unknown #
vertex $-1 $256 $477 #
ellipse-curve $-1 -64.136194547755593 7.7067607991226019 9.1005724798744083 -0.68199836817093118 0 0.7313536940579346 0.3656768470289673 0 0.34099918408546559 1 I I #
point $-1 -64.452516068897566 7.7067607991226019 10.172925358017809 #
plane-surface $-1 66.791589098788421 0 0 -1 0 0 0 0 1 forward_v I I I I #
coedge $-1 $398 $397 $390 $478 forward $260 $-1 #
coedge $-1 $390 $262 $264 $394 reversed $159 $-1 #
coedge $-1 $262 $389 $388 $478 reversed $159 $-1 #
coedge $-1 $270 $265 $262 $392 forward $271 $-1 #
edge $-1 $395 -87.681597168405403 $479 -83.949809424145329 $391 $480 forward 7 unknown #
coedge $-1 $264 $263 $398 $481 reversed $99 $-1 #
edge $-1 $482 129.22955002359828 $395 133.5831781975769 $389 $483 forward 7 unknown #
vertex $-1 $266 $484 #
straight-curve $-1 66.791589098788421 -8.0594946523446378 7.9403601820217418 0 1 0 I I #
coedge $-1 $388 $267 $270 $402 forward $260 $-1 #
coedge $-1 $267 $388 $393 $481 forward $260 $-1 #
vertex $-1 $268 $485 #
straight-curve $-1 56.24715061141228 -20.167238515033109 11.672147926281824 1 0 0 I I #
straight-curve $-1 -2.008832098609787 -20.167238515033109 122.44349350345611 -0.51503806187062418 0 0.85716730853699208 I I #
edge $-1 $272 -20.167238515033109 $479 -12.070740094345442 $270 $486 forward 7 unknown #
point $-1 66.791589098788421 -20.167238515033109 11.672147926281818 #
point $-1 66.791589098788421 -20.167238515033109 7.9403601820217489 #
edge $-1 $487 1 $487 0 $275 $-1 forward 7 unknown #
vertex $-1 $276 $488 #
ellipse-curve $-1 64.81327968183578 -17.85395325197949 9.2912159922811934 0.85716730853699208 0 0.51503806187062418 0.25751903093531209 0 -0.42858365426849604 1 I I #
point $-1 65.92796602130808 -17.85395325197949 9.3776703998833213 #
edge $-1 $489 1 $489 0 $279 $-1 forward 7 unknown #
vertex $-1 $280 $490 #
ellipse-curve $-1 64.81327968183578 -14.384025357399061 9.2912159922811934 0.85716730853699208 0 0.51503806187062418 0.25751903093531209 0 -0.42858365426849604 1 I I #
point $-1 65.92796602130808 -14.384025357399061 9.3776703998833213 #
plane-surface $-1 66.791589098788421 0 0 -1 0 0 0 0 1 forward_v I I I I #
coedge $-1 $288 $286 $290 $418 reversed $181 $-1 #
edge $-1 $301 -11.672147926281818 $420 11.672147926281818 $300 $491 forward 7 unknown #
vertex $-1 $418 $492 #
straight-curve $-1 -66.791589098788421 -31.518242966432876 0 0 0 -1 I I #
edge $-1 $416 -31.518242966432876 $420 31.518242966432876 $414 $493 forward 7 unknown #
straight-curve $-1 0 -31.518242966432876 -11.672147926281818 -1 0 0 I I #
vertex $-1 $293 $494 #
straight-curve $-1 0 31.518242966432876 -11.672147926281818 1 0 0 I I #
point $-1 66.791589098788421 31.518242966432876 -11.672147926281818 #
point $-1 66.791589098788421 -31.518242966432876 -11.672147926281818 #
straight-curve $-1 -66.791589098788421 0 11.672147926281818 0 -1 0 I I #
point $-1 -66.791589098788421 31.518242966432876 11.672147926281818 #
point $-1 -66.791589098788421 -31.518242966432876 11.672147926281818 #
straight-curve $-1 66.791589098788421 -31.518242966432876 0 0 0 -1 I I #
straight-curve $-1 66.791589098788421 31.518242966432876 0 0 0 -1 I I #
plane-surface $-1 66.791589098788421 0 0 -1 0 0 0 0 1 forward_v I I I I #
coedge $-1 $433 $313 $324 $442 forward $200 $-1 #
coedge $-1 $313 $433 $327 $444 reversed $200 $-1 #
straight-curve $-1 66.791589098788421 -20.167238515033109 -0.326259677934293 0 0 1 I I #
coedge $-1 $431 $430 $316 $434 forward $200 $-1 #
edge $-1 $437 7.2458681446666127 $435 18.59687259606638 $433 $495 forward 7 unknown #
vertex $-1 $318 $496 #
straight-curve $-1 0 -31.518242966432876 -3.9628754425939361 1 0 0 I I #
vertex $-1 $434 $497 #
straight-curve $-1 0 -20.167238515033109 -3.9628754425939361 1 0 0 I I #
point $-1 66.791589098788421 -31.518242966432876 -3.9628754425939361 #
point $-1 66.791589098788421 -20.167238515033109 -3.9628754425939361 #
straight-curve $-1 -66.791589098788421 -12.921370370366496 2.6578367308567641 0 1 0 I I #
edge $-1 $325 -2.9840964087910571 $437 3.6366157646596431 $430 $498 forward 7 unknown #
point $-1 -66.791589098788421 -20.167238515033109 2.6578367308567641 #
edge $-1 $329 -2.6578367308567641 $435 3.9628754425939361 $431 $499 forward 7 unknown #
point $-1 -66.791589098788421 -31.518242966432876 2.6578367308567641 #
straight-curve $-1 66.791589098788421 -31.518242966432876 0 0 0 -1 I I #
plane-surface $-1 0 31.518242966432876 0 0 -1 0 0 0 -1 forward_v I I I I #
coedge $-1 $338 $457 $340 $451 forward $335 $-1 #
vertex $-1 $451 $500 #
straight-curve $-1 -66.791589098788421 20.167238515033112 -0.326259677934293 0 0 1 I I #
edge $-1 $453 -18.596872596066383 $449 -7.2458681446666144 $448 $501 forward 7 unknown #
straight-curve $-1 0 20.167238515033112 -3.9628754425939361 -1 0 0 I I #
vertex $-1 $343 $502 #
straight-curve $-1 0 31.518242966432876 -3.9628754425939361 -1 0 0 I I #
point $-1 66.791589098788421 20.167238515033112 -3.9628754425939361 #
point $-1 66.791589098788421 31.518242966432879 -3.9628754425939361 #
coedge $-1 $448 $347 $350 $459 forward $335 $-1 #
straight-curve $-1 -66.791589098788421 12.921370370366498 2.6578367308567641 0 1 0 I I #
edge $-1 $352 -2.6578367308567641 $453 3.9628754425939361 $350 $503 forward 7 unknown #
point $-1 -66.791589098788421 31.518242966432879 2.6578367308567641 #
point $-1 -66.791589098788421 20.167238515033112 2.6578367308567641 #
straight-curve $-1 66.791589098788421 20.167238515033112 -0.326259677934293 0 0 -1 I I #
straight-curve $-1 66.791589098788421 31.518242966432876 0 0 0 -1 I I #
coedge $-1 $372 $371 $364 $465 forward $361 $-1 #
edge $-1 $466 12.155960223522854 $469 16.10275258924662 $464 $504 forward 7 unknown #
vertex $-1 $465 $505 #
straight-curve $-1 -66.791589098788421 2.5810056312560086 52.844127630190023 0 0 1 I I #
edge $-1 $469 -0.50351149312530374 $373 6.6725457418879284 $372 $506 forward 7 unknown #
vertex $-1 $468 $507 #
straight-curve $-1 -66.791589098788435 2.5810056312560086 7.9917044215828668 -0.7313536940579346 0 -0.68199836817093118 I I #
point $-1 -66.791589098788421 2.5810056312560086 7.9917044215828801 #
point $-1 -62.844796733064655 9.7570628662692407 11.672147926281818 #
straight-curve $-1 -66.791589098788421 0 11.672147926281818 0 -1 0 I I #
vertex $-1 $379 $508 #
point $-1 -63.770517700726629 4.6313076984026473 9.4415716639598735 #
vertex $-1 $383 $509 #
point $-1 -63.770517700726629 7.7067607991226019 9.4415716639598735 #
edge $-1 $479 -10.544438487376141 $482 -8.3021542705448468 $388 $510 forward 7 unknown #
vertex $-1 $392 $511 #
straight-curve $-1 66.791589098788421 -12.070740094345442 95.621957350427152 0 0 1 I I #
edge $-1 $482 4.0112454420008046 $399 12.107743862688471 $398 $512 forward 7 unknown #
vertex $-1 $481 $513 #
straight-curve $-1 -2.008832098609787 -12.070740094345442 122.44349350345611 0.51503806187062418 0 -0.85716730853699208 I I #
point $-1 66.791589098788421 -12.070740094345442 7.9403601820217489 #
point $-1 64.549304881957127 -20.167238515033109 11.672147926281824 #
straight-curve $-1 66.791589098788421 0 11.672147926281818 0 1 0 I I #
vertex $-1 $405 $514 #
point $-1 65.070798712771094 -17.85395325197949 8.8626323380126966 #
vertex $-1 $409 $515 #
point $-1 65.070798712771094 -14.384025357399061 8.8626323380126966 #
straight-curve $-1 -66.791589098788421 31.518242966432876 0 0 0 -1 I I #
point $-1 -66.791589098788421 -31.518242966432876 -11.672147926281818 #
straight-curve $-1 -66.791589098788421 0 -11.672147926281818 0 1 0 I I #
point $-1 -66.791589098788421 31.518242966432876 -11.672147926281818 #
straight-curve $-1 -66.791589098788421 -12.921370370366496 -3.9628754425939361 0 -1 0 I I #
point $-1 -66.791589098788421 -31.518242966432876 -3.9628754425939361 #
point $-1 -66.791589098788421 -20.167238515033109 -3.9628754425939361 #
straight-curve $-1 -66.791589098788421 -20.167238515033109 -0.326259677934293 0 0 -1 I I #
straight-curve $-1 -66.791589098788421 -31.518242966432876 0 0 0 -1 I I #
point $-1 -66.791589098788421 20.167238515033112 -3.9628754425939361 #
straight-curve $-1 -66.791589098788421 12.921370370366498 -3.9628754425939361 0 -1 0 I I #
point $-1 -66.791589098788421 31.518242966432879 -3.9628754425939361 #
straight-curve $-1 -66.791589098788421 31.518242966432876 0 0 0 -1 I I #
straight-curve $-1 -78.947549322311275 2.5810056312560086 11.672147926281816 1 0 0 I I #
point $-1 -66.791589098788421 2.5810056312560086 11.672147926281818 #
straight-curve $-1 -62.844796733064648 3.0845171243813123 11.672147926281816 0 1 0 I I #
point $-1 -62.844796733064655 2.5810056312560086 11.672147926281818 #
point $-1 -63.795195363670132 4.6313076984026473 8.7348956328454399 #
point $-1 -63.795195363670132 7.7067607991226019 8.7348956328454399 #
straight-curve $-1 56.24715061141228 -12.070740094345442 11.672147926281824 -1 0 0 I I #
point $-1 66.791589098788421 -12.070740094345442 11.672147926281818 #
straight-curve $-1 64.549304881957127 -8.0594946523446378 11.672147926281824 0 -1 0 I I #
point $-1 64.549304881957127 -12.070740094345442 11.672147926281824 #
point $-1 64.384696027567287 -17.85395325197949 9.0336969613458802 #
point $-1 64.384696027567287 -14.384025357399061 9.0336969613458802 #
End-of-ACIS-data 