500 0 10 0           
7 Unknown 11 ACIS 5.0 NT 24 Thu Mar 25 20:01:18 1999 
-1 9.9999999999999995e-007 1e-010 
body $-1 $10 $-1 $11 #
body $-1 $12 $-1 $13 #
body $-1 $14 $-1 $15 #
body $-1 $16 $-1 $17 #
body $-1 $18 $-1 $19 #
body $-1 $20 $-1 $21 #
body $-1 $22 $-1 $23 #
body $-1 $24 $-1 $25 #
body $-1 $26 $-1 $27 #
body $-1 $28 $-1 $29 #
lump $-1 $-1 $30 $0 #
transform $-1 1 0 0 0 1 0 0 0 1 62.241889706106754 43.311176707936035 13.051908422646065 1 rotate no_reflect no_shear #
lump $-1 $-1 $31 $1 #
transform $-1 1 0 0 0 1 0 0 0 1 62.241889706106754 43.311176707936035 13.051908422646065 1 rotate no_reflect no_shear #
lump $-1 $-1 $32 $2 #
transform $-1 1 0 0 0 1 0 0 0 1 62.241889706106754 43.311176707936035 13.051908422646065 1 rotate no_reflect no_shear #
lump $-1 $-1 $33 $3 #
transform $-1 1 0 0 0 1 0 0 0 1 62.241889706106754 43.311176707936035 13.051908422646065 1 rotate no_reflect no_shear #
lump $-1 $-1 $34 $4 #
transform $-1 1 0 0 0 1 0 0 0 1 62.241889706106754 43.311176707936035 13.051908422646065 1 rotate no_reflect no_shear #
lump $-1 $-1 $35 $5 #
transform $-1 1 0 0 0 1 0 0 0 1 62.241889706106754 43.311176707936035 13.051908422646065 1 rotate no_reflect no_shear #
lump $-1 $-1 $36 $6 #
transform $-1 1 0 0 0 1 0 0 0 1 62.241889706106754 43.311176707936035 13.051908422646065 1 rotate no_reflect no_shear #
lump $-1 $-1 $37 $7 #
transform $-1 1 0 0 0 1 0 0 0 1 62.241889706106754 43.311176707936035 13.051908422646065 1 rotate no_reflect no_shear #
lump $-1 $-1 $38 $8 #
transform $-1 1 0 0 0 1 0 0 0 1 62.241889706106754 43.311176707936035 13.051908422646065 1 rotate no_reflect no_shear #
lump $-1 $-1 $39 $9 #
transform $-1 1 0 0 0 1 0 0 0 1 62.241889706106754 43.311176707936035 13.051908422646065 1 rotate no_reflect no_shear #
shell $-1 $-1 $-1 $40 $-1 $10 #
shell $-1 $-1 $-1 $41 $-1 $12 #
shell $-1 $-1 $-1 $42 $-1 $14 #
shell $-1 $-1 $-1 $43 $-1 $16 #
shell $-1 $-1 $-1 $44 $-1 $18 #
shell $-1 $-1 $-1 $45 $-1 $20 #
shell $-1 $-1 $-1 $46 $-1 $22 #
shell $-1 $-1 $-1 $47 $-1 $24 #
shell $-1 $-1 $-1 $48 $-1 $26 #
shell $-1 $-1 $-1 $49 $-1 $28 #
face $-1 $50 $51 $30 $-1 $52 forward single #
face $-1 $53 $54 $31 $-1 $55 forward single #
face $-1 $56 $57 $32 $-1 $58 reversed single #
face $-1 $59 $60 $33 $-1 $61 forward single #
face $-1 $62 $63 $34 $-1 $64 reversed single #
face $-1 $65 $66 $35 $-1 $67 forward single #
face $-1 $68 $69 $36 $-1 $70 reversed single #
face $-1 $71 $72 $37 $-1 $73 forward single #
face $-1 $74 $75 $38 $-1 $76 reversed single #
face $-1 $77 $78 $39 $-1 $79 forward single #
face $-1 $80 $81 $30 $-1 $82 reversed single #
loop $-1 $-1 $83 $40 #
plane-surface $-1 0 0 13.051908422646065 0 0 1 1 0 0 forward_v I I I I #
face $-1 $84 $85 $31 $-1 $86 forward single #
loop $-1 $-1 $87 $41 #
plane-surface $-1 0 -43.311176707936035 0 0 1 0 0 0 1 forward_v I I I I #
face $-1 $88 $89 $32 $-1 $90 reversed single #
loop $-1 $-1 $91 $42 #
plane-surface $-1 -135.41162032902491 -26.26860619959254 109.36253297521992 0 1 0 -0.5877852598018023 0 0.80901698891910034 forward_v I I I I #
face $-1 $92 $93 $33 $-1 $94 forward single #
loop $-1 $95 $96 $43 #
cone-surface $-1 -58.233007389249359 -18.779668168579633 9.5013887268770265 0.5877852598018023 0 -0.80901698891910034 0.80901698891910034 0 0.5877852598018023 1 I I 0 1 1 forward I I I I #
face $-1 $97 $98 $34 $-1 $99 reversed single #
loop $-1 $-1 $100 $44 #
plane-surface $-1 -135.41162032902491 10.972076795900136 109.36253297521992 0 1 0 -0.5877852598018023 0 0.80901698891910034 forward_v I I I I #
face $-1 $101 $102 $35 $-1 $103 forward single #
loop $-1 $104 $105 $45 #
cone-surface $-1 -58.233007389249359 18.461014826913043 9.5013887268770265 0.5877852598018023 0 -0.80901698891910034 0.80901698891910034 0 0.5877852598018023 1 I I 0 1 1 forward I I I I #
face $-1 $106 $107 $36 $-1 $108 reversed single #
loop $-1 $-1 $109 $46 #
plane-surface $-1 34.702127939686456 -11.290730137566726 182.53226359813806 0 -1 0 -0.5877852598018023 0 -0.80901698891910034 forward_v I I I I #
face $-1 $110 $111 $37 $-1 $112 forward single #
loop $-1 $113 $114 $47 #
cone-surface $-1 58.233007389249359 -18.779668168579633 9.5013887268770159 -0.5877852598018023 0 -0.80901698891910034 0.80901698891910034 0 -0.5877852598018023 1 I I 0 1 1 forward I I I I #
face $-1 $115 $116 $38 $-1 $117 reversed single #
loop $-1 $-1 $118 $48 #
plane-surface $-1 34.702127939686456 25.94995285792595 182.53226359813806 0 -1 0 -0.5877852598018023 0 -0.80901698891910034 forward_v I I I I #
face $-1 $119 $120 $39 $-1 $121 forward single #
loop $-1 $122 $123 $49 #
cone-surface $-1 58.233007389249359 18.461014826913043 9.5013887268770159 -0.5877852598018023 0 -0.80901698891910034 0.80901698891910034 0 -0.5877852598018023 1 I I 0 1 1 forward I I I I #
face $-1 $124 $125 $30 $-1 $126 reversed single #
loop $-1 $-1 $127 $50 #
plane-surface $-1 0 0 -13.051908422646065 0 0 1 1 0 0 forward_v I I I I #
coedge $-1 $128 $129 $130 $131 forward $51 $-1 #
face $-1 $132 $133 $31 $-1 $134 reversed single #
loop $-1 $-1 $135 $53 #
plane-surface $-1 0 0 13.051908422646065 0 0 1 1 0 0 forward_v I I I I #
coedge $-1 $136 $137 $138 $139 forward $54 $-1 #
face $-1 $140 $141 $32 $-1 $142 reversed single #
loop $-1 $-1 $143 $56 #
plane-surface $-1 -62.241889706106747 -18.779668168579633 8.6530405858814561 -0.5877852598018023 0 0.80901698891910034 0.80901698891910034 0 0.5877852598018023 forward_v I I I I #
coedge $-1 $144 $145 $146 $147 reversed $57 $-1 #
face $-1 $-1 $148 $33 $-1 $149 forward single #
loop $-1 $150 $151 $59 #
cone-surface $-1 -56.957493463933126 -18.779668168579633 7.7457944550307438 0.5877852598018023 0 -0.80901698891910034 0.40450849445955017 0 0.29389262990090115 1 I I -0.70710678118654746 0.70710678118654746 0.5 forward I I I I #
loop $-1 $-1 $152 $43 #
coedge $-1 $96 $96 $153 $154 reversed $60 $-1 #
face $-1 $155 $156 $34 $-1 $157 reversed single #
loop $-1 $-1 $158 $62 #
plane-surface $-1 -62.241889706106747 18.461014826913043 8.6530405858814561 -0.5877852598018023 0 0.80901698891910034 0.80901698891910034 0 0.5877852598018023 forward_v I I I I #
coedge $-1 $159 $160 $161 $162 reversed $63 $-1 #
face $-1 $-1 $163 $35 $-1 $164 forward single #
loop $-1 $165 $166 $65 #
cone-surface $-1 -56.957493463933126 18.461014826913043 7.7457944550307438 0.5877852598018023 0 -0.80901698891910034 0.40450849445955017 0 0.29389262990090115 1 I I -0.70710678118654746 0.70710678118654746 0.5 forward I I I I #
loop $-1 $-1 $167 $45 #
coedge $-1 $105 $105 $168 $169 reversed $66 $-1 #
face $-1 $170 $171 $36 $-1 $172 reversed single #
loop $-1 $-1 $173 $68 #
plane-surface $-1 -38.467602683231711 -18.779668168579633 81.822771208799594 0.5877852598018023 0 0.80901698891910034 0.80901698891910034 0 -0.5877852598018023 forward_v I I I I #
coedge $-1 $174 $175 $176 $177 reversed $69 $-1 #
face $-1 $-1 $178 $37 $-1 $179 forward single #
loop $-1 $180 $181 $71 #
cone-surface $-1 56.957493463933126 -18.779668168579633 7.7457944550307332 -0.5877852598018023 0 -0.80901698891910034 0.40450849445955017 0 -0.29389262990090115 1 I I -0.70710678118654746 0.70710678118654746 0.5 forward I I I I #
loop $-1 $-1 $182 $47 #
coedge $-1 $114 $114 $183 $184 reversed $72 $-1 #
face $-1 $185 $186 $38 $-1 $187 reversed single #
loop $-1 $-1 $188 $74 #
plane-surface $-1 -38.467602683231711 18.461014826913043 81.822771208799594 0.5877852598018023 0 0.80901698891910034 0.80901698891910034 0 -0.5877852598018023 forward_v I I I I #
coedge $-1 $189 $190 $191 $192 reversed $75 $-1 #
face $-1 $-1 $193 $39 $-1 $194 forward single #
loop $-1 $195 $196 $77 #
cone-surface $-1 56.957493463933126 18.461014826913043 7.7457944550307332 -0.5877852598018023 0 -0.80901698891910034 0.40450849445955017 0 -0.29389262990090115 1 I I -0.70710678118654746 0.70710678118654746 0.5 forward I I I I #
loop $-1 $-1 $197 $49 #
coedge $-1 $123 $123 $198 $199 reversed $78 $-1 #
face $-1 $200 $201 $30 $-1 $202 reversed single #
loop $-1 $-1 $203 $80 #
plane-surface $-1 0 -43.311176707936035 0 0 1 0 0 0 1 forward_v I I I I #
coedge $-1 $204 $205 $206 $207 forward $81 $-1 #
coedge $-1 $208 $83 $209 $210 forward $51 $-1 #
coedge $-1 $83 $208 $211 $212 forward $51 $-1 #
coedge $-1 $213 $214 $83 $131 reversed $215 $-1 #
edge $-1 $216 -43.311176707936035 $217 43.311176707936035 $130 $218 forward 7 unknown #
face $-1 $219 $220 $31 $-1 $221 reversed single #
loop $-1 $-1 $222 $84 #
plane-surface $-1 -62.241889706106754 0 0 1 0 0 0 0 -1 forward_v I I I I #
coedge $-1 $223 $224 $225 $226 forward $85 $-1 #
coedge $-1 $225 $87 $222 $227 reversed $54 $-1 #
coedge $-1 $87 $225 $228 $229 reversed $54 $-1 #
coedge $-1 $230 $231 $87 $139 reversed $220 $-1 #
edge $-1 $232 -62.241889706106754 $233 62.241889706106754 $138 $234 forward 7 unknown #
face $-1 $235 $236 $32 $-1 $237 forward single #
loop $-1 $-1 $238 $88 #
plane-surface $-1 -135.41162032902491 -11.290730137566726 109.36253297521992 0 -1 0 0.5877852598018023 0 -0.80901698891910034 forward_v I I I I #
coedge $-1 $239 $240 $241 $242 reversed $89 $-1 #
coedge $-1 $145 $91 $243 $244 reversed $57 $-1 #
coedge $-1 $91 $144 $239 $245 reversed $57 $-1 #
coedge $-1 $241 $246 $91 $147 forward $236 $-1 #
edge $-1 $247 5.4639204584057026 $248 11.518442501289826 $146 $249 forward 7 unknown #
loop $-1 $-1 $153 $92 #
plane-surface $-1 -62.241889706106747 -18.779668168579633 8.6530405858814561 -0.5877852598018023 0 0.80901698891910034 0.80901698891910034 0 0.5877852598018023 forward_v I I I I #
loop $-1 $-1 $250 $59 #
coedge $-1 $151 $151 $152 $251 reversed $93 $-1 #
coedge $-1 $152 $152 $151 $251 forward $95 $-1 #
coedge $-1 $153 $153 $96 $154 forward $148 $-1 #
edge $-1 $252 0 $252 6.2831853071796004 $153 $253 forward 7 unknown #
face $-1 $254 $255 $34 $-1 $256 forward single #
loop $-1 $-1 $257 $97 #
plane-surface $-1 -135.41162032902491 25.94995285792595 109.36253297521992 0 -1 0 0.5877852598018023 0 -0.80901698891910034 forward_v I I I I #
coedge $-1 $258 $259 $260 $261 reversed $98 $-1 #
coedge $-1 $160 $100 $262 $263 reversed $63 $-1 #
coedge $-1 $100 $159 $258 $264 reversed $63 $-1 #
coedge $-1 $260 $265 $100 $162 forward $255 $-1 #
edge $-1 $266 5.4639204584057026 $267 11.518442501289826 $161 $268 forward 7 unknown #
loop $-1 $-1 $168 $101 #
plane-surface $-1 -62.241889706106747 18.461014826913043 8.6530405858814561 -0.5877852598018023 0 0.80901698891910034 0.80901698891910034 0 0.5877852598018023 forward_v I I I I #
loop $-1 $-1 $269 $65 #
coedge $-1 $166 $166 $167 $270 reversed $102 $-1 #
coedge $-1 $167 $167 $166 $270 forward $104 $-1 #
coedge $-1 $168 $168 $105 $169 forward $163 $-1 #
edge $-1 $271 0 $271 6.2831853071796004 $168 $272 forward 7 unknown #
face $-1 $273 $274 $36 $-1 $275 reversed single #
loop $-1 $-1 $276 $106 #
plane-surface $-1 34.702127939686456 -26.26860619959254 182.53226359813806 0 1 0 0.5877852598018023 0 0.80901698891910034 forward_v I I I I #
coedge $-1 $277 $278 $279 $280 reversed $107 $-1 #
coedge $-1 $175 $109 $281 $282 reversed $69 $-1 #
coedge $-1 $109 $174 $277 $283 reversed $69 $-1 #
coedge $-1 $279 $284 $109 $177 forward $285 $-1 #
edge $-1 $286 -44.890825736263523 $287 -38.836303693379364 $176 $288 forward 7 unknown #
loop $-1 $-1 $183 $110 #
plane-surface $-1 -38.467602683231711 -18.779668168579633 81.822771208799594 0.5877852598018023 0 0.80901698891910034 0.80901698891910034 0 -0.5877852598018023 forward_v I I I I #
loop $-1 $-1 $289 $71 #
coedge $-1 $181 $181 $182 $290 reversed $111 $-1 #
coedge $-1 $182 $182 $181 $290 forward $113 $-1 #
coedge $-1 $183 $183 $114 $184 forward $178 $-1 #
edge $-1 $291 0 $291 6.2831853071796004 $183 $292 forward 7 unknown #
face $-1 $293 $294 $38 $-1 $295 reversed single #
loop $-1 $-1 $296 $115 #
plane-surface $-1 34.702127939686456 10.972076795900136 182.53226359813806 0 1 0 0.5877852598018023 0 0.80901698891910034 forward_v I I I I #
coedge $-1 $297 $298 $299 $300 reversed $116 $-1 #
coedge $-1 $190 $118 $301 $302 reversed $75 $-1 #
coedge $-1 $118 $189 $297 $303 reversed $75 $-1 #
coedge $-1 $299 $304 $118 $192 forward $305 $-1 #
edge $-1 $306 -44.890825736263523 $307 -38.836303693379364 $191 $308 forward 7 unknown #
loop $-1 $-1 $198 $119 #
plane-surface $-1 -38.467602683231711 18.461014826913043 81.822771208799594 0.5877852598018023 0 0.80901698891910034 0.80901698891910034 0 -0.5877852598018023 forward_v I I I I #
loop $-1 $-1 $309 $77 #
coedge $-1 $196 $196 $197 $310 reversed $120 $-1 #
coedge $-1 $197 $197 $196 $310 forward $122 $-1 #
coedge $-1 $198 $198 $123 $199 forward $193 $-1 #
edge $-1 $311 0 $311 6.2831853071796004 $198 $312 forward 7 unknown #
face $-1 $313 $314 $30 $-1 $315 reversed single #
loop $-1 $-1 $316 $124 #
plane-surface $-1 -62.241889706106754 0 0 1 0 0 0 0 -1 forward_v I I I I #
coedge $-1 $317 $211 $318 $319 forward $125 $-1 #
coedge $-1 $320 $127 $317 $321 forward $81 $-1 #
coedge $-1 $127 $320 $322 $323 forward $81 $-1 #
coedge $-1 $214 $213 $127 $207 reversed $215 $-1 #
edge $-1 $324 -43.311176707936035 $325 43.311176707936035 $206 $326 forward 7 unknown #
coedge $-1 $129 $128 $327 $328 forward $51 $-1 #
coedge $-1 $329 $330 $128 $210 reversed $314 $-1 #
edge $-1 $217 -62.241889706106754 $331 62.241889706106754 $209 $332 forward 7 unknown #
coedge $-1 $203 $333 $129 $212 reversed $125 $-1 #
edge $-1 $334 -62.241889706106754 $216 62.241889706106754 $211 $335 forward 7 unknown #
coedge $-1 $206 $130 $333 $336 forward $215 $-1 #
coedge $-1 $130 $206 $329 $337 reversed $215 $-1 #
loop $-1 $-1 $213 $313 #
vertex $-1 $131 $338 #
vertex $-1 $131 $339 #
straight-curve $-1 62.241889706106754 0 13.051908422646065 0 1 0 I I #
face $-1 $340 $341 $31 $-1 $342 reversed single #
loop $-1 $-1 $230 $132 #
plane-surface $-1 0 -49.381670420379393 6.1209773964390237 0 0 1 1 0 0 forward_v I I I I #
coedge $-1 $343 $344 $136 $227 forward $133 $-1 #
coedge $-1 $345 $135 $344 $346 forward $85 $-1 #
coedge $-1 $135 $345 $347 $348 forward $85 $-1 #
coedge $-1 $137 $136 $135 $226 reversed $54 $-1 #
edge $-1 $349 -62.241889706106754 $350 62.241889706106754 $135 $351 forward 7 unknown #
edge $-1 $350 -13.051908422646065 $233 -6.1209773964390237 $222 $352 forward 7 unknown #
coedge $-1 $347 $353 $137 $229 forward $354 $-1 #
edge $-1 $232 6.1209773964390237 $349 13.051908422646065 $228 $355 forward 7 unknown #
coedge $-1 $356 $138 $353 $357 forward $220 $-1 #
coedge $-1 $138 $356 $343 $358 forward $220 $-1 #
vertex $-1 $229 $359 #
vertex $-1 $227 $360 #
straight-curve $-1 0 -43.311176707936035 6.1209773964390237 -1 0 0 I I #
face $-1 $-1 $361 $32 $-1 $362 reversed single #
loop $-1 $-1 $146 $140 #
plane-surface $-1 0 0 13.051908422646065 0 0 1 1 0 0 forward_v I I I I #
coedge $-1 $363 $364 $365 $366 reversed $141 $-1 #
coedge $-1 $367 $143 $145 $245 forward $89 $-1 #
coedge $-1 $143 $367 $363 $368 forward $89 $-1 #
coedge $-1 $365 $146 $143 $242 forward $236 $-1 #
edge $-1 $248 -16.878772115302723 $369 -1.9008960532769095 $241 $370 forward 7 unknown #
coedge $-1 $371 $372 $144 $244 forward $361 $-1 #
edge $-1 $373 -46.028225901728511 $247 -41.629358064963895 $243 $374 forward 7 unknown #
edge $-1 $248 -7.4838008667449056 $373 8.8807605448725156e-015 $145 $375 forward 7 unknown #
coedge $-1 $146 $365 $371 $376 forward $236 $-1 #
vertex $-1 $244 $377 #
vertex $-1 $147 $378 #
straight-curve $-1 -67.705810164512457 -26.26860619959254 13.051908422646065 1 0 0 I I #
coedge $-1 $250 $250 $-1 $379 reversed $150 $-1 #
edge $-1 $380 0 $380 6.2831853071796004 $151 $381 forward 7 unknown #
vertex $-1 $154 $382 #
ellipse-curve $-1 -59.214628684664689 -18.779668168579633 10.852474504263757 -0.5877852598018023 0 0.80901698891910034 0.80901698891910034 0 0.5877852598018023 1 I I #
face $-1 $-1 $383 $34 $-1 $384 reversed single #
loop $-1 $-1 $161 $155 #
plane-surface $-1 0 0 13.051908422646065 0 0 1 1 0 0 forward_v I I I I #
coedge $-1 $385 $386 $387 $388 reversed $156 $-1 #
coedge $-1 $389 $158 $160 $264 forward $98 $-1 #
coedge $-1 $158 $389 $385 $390 forward $98 $-1 #
coedge $-1 $387 $161 $158 $261 forward $255 $-1 #
edge $-1 $267 1.7415693824436147 $391 16.719445444469429 $260 $392 forward 7 unknown #
coedge $-1 $393 $394 $159 $263 forward $383 $-1 #
edge $-1 $395 -46.028225901728511 $266 -41.629358064963895 $262 $396 forward 7 unknown #
edge $-1 $267 -7.4838008667449056 $395 8.8807605448725156e-015 $160 $397 forward 7 unknown #
coedge $-1 $161 $387 $393 $398 forward $255 $-1 #
vertex $-1 $162 $399 #
vertex $-1 $162 $400 #
straight-curve $-1 -67.705810164512457 10.972076795900136 13.051908422646065 1 0 0 I I #
coedge $-1 $269 $269 $-1 $401 reversed $165 $-1 #
edge $-1 $402 0 $402 6.2831853071796004 $166 $403 forward 7 unknown #
vertex $-1 $169 $404 #
ellipse-curve $-1 -59.214628684664689 18.461014826913043 10.852474504263757 -0.5877852598018023 0 0.80901698891910034 0.80901698891910034 0 0.5877852598018023 1 I I #
face $-1 $-1 $285 $36 $-1 $405 forward single #
loop $-1 $-1 $406 $170 #
plane-surface $-1 62.241889706106754 0 0 -1 0 0 0 0 1 forward_v I I I I #
coedge $-1 $407 $408 $409 $410 reversed $171 $-1 #
coedge $-1 $411 $173 $175 $283 forward $107 $-1 #
coedge $-1 $173 $411 $407 $412 forward $107 $-1 #
coedge $-1 $409 $176 $173 $280 forward $285 $-1 #
edge $-1 $287 1.9008960532769095 $413 16.878772115302723 $279 $414 forward 7 unknown #
coedge $-1 $415 $416 $174 $282 forward $274 $-1 #
edge $-1 $417 -82.613091213187602 $286 -78.214223376422964 $281 $418 forward 7 unknown #
edge $-1 $287 116.99997854546854 $417 124.48377941221349 $175 $419 forward 7 unknown #
coedge $-1 $176 $409 $415 $420 forward $285 $-1 #
loop $-1 $-1 $409 $273 #
vertex $-1 $282 $421 #
vertex $-1 $177 $422 #
straight-curve $-1 17.351063969843228 -11.290730137566726 13.051908422646065 -1 0 0 I I #
coedge $-1 $289 $289 $-1 $423 reversed $180 $-1 #
edge $-1 $424 0 $424 6.2831853071796004 $181 $425 forward 7 unknown #
vertex $-1 $184 $426 #
ellipse-curve $-1 59.214628684664696 -18.779668168579633 10.852474504263748 0.5877852598018023 0 0.80901698891910034 0.80901698891910034 0 -0.5877852598018023 1 I I #
face $-1 $-1 $305 $38 $-1 $427 forward single #
loop $-1 $-1 $428 $185 #
plane-surface $-1 62.241889706106754 0 0 -1 0 0 0 0 1 forward_v I I I I #
coedge $-1 $429 $430 $431 $432 reversed $186 $-1 #
coedge $-1 $433 $188 $190 $303 forward $116 $-1 #
coedge $-1 $188 $433 $429 $434 forward $116 $-1 #
coedge $-1 $431 $191 $188 $300 forward $305 $-1 #
edge $-1 $307 -16.719445444469429 $435 -1.7415693824436147 $299 $436 forward 7 unknown #
coedge $-1 $437 $438 $189 $302 forward $294 $-1 #
edge $-1 $439 -82.613091213187602 $306 -78.214223376422964 $301 $440 forward 7 unknown #
edge $-1 $307 116.99997854546854 $439 124.48377941221349 $190 $441 forward 7 unknown #
coedge $-1 $191 $431 $437 $442 forward $305 $-1 #
loop $-1 $-1 $431 $293 #
vertex $-1 $302 $443 #
vertex $-1 $192 $444 #
straight-curve $-1 17.351063969843228 25.94995285792595 13.051908422646065 -1 0 0 I I #
coedge $-1 $309 $309 $-1 $445 reversed $195 $-1 #
edge $-1 $446 0 $446 6.2831853071796004 $196 $447 forward 7 unknown #
vertex $-1 $199 $448 #
ellipse-curve $-1 59.214628684664696 18.461014826913043 10.852474504263748 0.5877852598018023 0 0.80901698891910034 0.80901698891910034 0 -0.5877852598018023 1 I I #
face $-1 $-1 $215 $30 $-1 $449 reversed single #
loop $-1 $-1 $329 $200 #
plane-surface $-1 0 43.311176707936035 0 0 -1 0 0 0 -1 forward_v I I I I #
coedge $-1 $450 $327 $330 $451 forward $201 $-1 #
coedge $-1 $333 $203 $204 $321 reversed $125 $-1 #
coedge $-1 $327 $450 $203 $319 reversed $201 $-1 #
edge $-1 $334 -13.051908422646065 $452 13.051908422646065 $318 $453 forward 7 unknown #
coedge $-1 $205 $204 $450 $454 forward $81 $-1 #
edge $-1 $325 -62.241889706106754 $452 62.241889706106754 $317 $455 forward 7 unknown #
coedge $-1 $330 $329 $205 $323 reversed $314 $-1 #
edge $-1 $456 -62.241889706106754 $324 62.241889706106754 $322 $457 forward 7 unknown #
vertex $-1 $207 $458 #
vertex $-1 $336 $459 #
straight-curve $-1 62.241889706106754 0 -13.051908422646065 0 -1 0 I I #
coedge $-1 $316 $318 $208 $328 reversed $201 $-1 #
edge $-1 $331 -43.311176707936035 $334 43.311176707936035 $327 $460 forward 7 unknown #
coedge $-1 $322 $209 $214 $337 forward $314 $-1 #
coedge $-1 $209 $322 $316 $451 reversed $314 $-1 #
vertex $-1 $210 $461 #
straight-curve $-1 0 43.311176707936035 13.051908422646065 -1 0 0 I I #
coedge $-1 $211 $317 $213 $336 reversed $125 $-1 #
vertex $-1 $328 $462 #
straight-curve $-1 0 -43.311176707936035 13.051908422646065 1 0 0 I I #
edge $-1 $216 -13.051908422646065 $325 13.051908422646065 $213 $463 forward 7 unknown #
edge $-1 $217 -13.051908422646065 $324 13.051908422646065 $214 $464 forward 7 unknown #
point $-1 62.241889706106754 -43.311176707936035 13.051908422646065 #
point $-1 62.241889706106754 43.311176707936035 13.051908422646065 #
face $-1 $-1 $354 $31 $-1 $465 reversed single #
loop $-1 $-1 $466 $219 #
plane-surface $-1 0 -55.452164132822745 9.5864429095425443 0 1 0 0 0 1 forward_v I I I I #
coedge $-1 $467 $222 $231 $358 reversed $133 $-1 #
coedge $-1 $222 $467 $223 $346 reversed $133 $-1 #
coedge $-1 $224 $223 $468 $469 forward $85 $-1 #
edge $-1 $350 43.311176707936035 $470 55.452164132822745 $344 $471 forward 7 unknown #
coedge $-1 $472 $228 $224 $348 reversed $354 $-1 #
edge $-1 $473 -55.452164132822745 $349 -43.311176707936035 $347 $474 forward 7 unknown #
vertex $-1 $229 $475 #
vertex $-1 $346 $476 #
straight-curve $-1 0 -43.311176707936035 13.051908422646065 -1 0 0 I I #
straight-curve $-1 -62.241889706106754 -43.311176707936035 0 0 0 -1 I I #
coedge $-1 $228 $472 $230 $357 reversed $354 $-1 #
loop $-1 $-1 $228 $340 #
straight-curve $-1 62.241889706106754 -43.311176707936035 0 0 0 1 I I #
coedge $-1 $231 $230 $477 $478 forward $220 $-1 #
edge $-1 $232 -6.0704937124433513 $479 6.0704937124433513 $353 $480 forward 7 unknown #
edge $-1 $481 -6.0704937124433513 $233 6.0704937124433513 $343 $482 forward 7 unknown #
point $-1 62.241889706106754 -43.311176707936042 6.1209773964390237 #
point $-1 -62.241889706106754 -43.311176707936042 6.1209773964390237 #
loop $-1 $-1 $243 $235 #
plane-surface $-1 -62.241889706106754 0 0 1 0 0 0 0 -1 forward_v I I I I #
coedge $-1 $364 $238 $240 $368 reversed $141 $-1 #
coedge $-1 $238 $363 $483 $484 reversed $141 $-1 #
coedge $-1 $246 $241 $238 $366 forward $236 $-1 #
edge $-1 $369 -11.518442501289826 $485 -5.4639204584057026 $365 $486 forward 7 unknown #
coedge $-1 $240 $239 $372 $487 reversed $89 $-1 #
edge $-1 $488 -8.8807605448725156e-015 $369 7.4838008667449056 $363 $489 forward 7 unknown #
vertex $-1 $242 $490 #
straight-curve $-1 -56.187367663222624 -9.3898340842898165 13.051908422646065 0 1 0 I I #
coedge $-1 $483 $243 $246 $376 reversed $361 $-1 #
coedge $-1 $243 $483 $367 $487 forward $361 $-1 #
vertex $-1 $244 $491 #
straight-curve $-1 -62.241889706106754 -26.26860619959254 54.68126648760996 0 0 1 I I #
straight-curve $-1 -62.241889706106747 -26.26860619959254 8.6530405858814561 -0.80901698891910034 0 -0.5877852598018023 I I #
edge $-1 $485 11.290730137566726 $247 26.26860619959254 $371 $492 forward 7 unknown #
point $-1 -62.241889706106754 -26.26860619959254 13.051908422646065 #
point $-1 -56.187367663222631 -26.26860619959254 13.051908422646065 #
edge $-1 $493 1 $493 0 $250 $-1 forward 7 unknown #
vertex $-1 $251 $494 #
ellipse-curve $-1 -57.251386093834029 -18.779668168579633 8.1503029494902943 -0.5877852598018023 0 0.80901698891910034 0.80901698891910034 0 0.5877852598018023 1 I I #
point $-1 -58.405611695745598 -18.779668168579633 11.44025976406556 #
loop $-1 $-1 $262 $254 #
plane-surface $-1 -62.241889706106754 0 0 1 0 0 0 0 -1 forward_v I I I I #
coedge $-1 $386 $257 $259 $390 reversed $156 $-1 #
coedge $-1 $257 $385 $495 $496 reversed $156 $-1 #
coedge $-1 $265 $260 $257 $388 forward $255 $-1 #
edge $-1 $391 -11.518442501289826 $497 -5.4639204584057026 $387 $498 forward 7 unknown #
coedge $-1 $259 $258 $394 $499 reversed $98 $-1 #
edge $-1 $500 -8.8807605448725156e-015 $391 7.4838008667449056 $385 $501 forward 7 unknown #
vertex $-1 $261 $502 #
straight-curve $-1 -56.187367663222624 9.2305074134565217 13.051908422646065 0 1 0 I I #
coedge $-1 $495 $262 $265 $398 reversed $383 $-1 #
coedge $-1 $262 $495 $389 $499 forward $383 $-1 #
vertex $-1 $263 $503 #
straight-curve $-1 -62.241889706106754 10.972076795900136 54.68126648760996 0 0 1 I I #
straight-curve $-1 -62.241889706106747 10.972076795900136 8.6530405858814561 -0.80901698891910034 0 -0.5877852598018023 I I #
edge $-1 $497 -25.94995285792595 $266 -10.972076795900136 $393 $504 forward 7 unknown #
point $-1 -62.241889706106754 10.972076795900136 13.051908422646065 #
point $-1 -56.187367663222631 10.972076795900136 13.051908422646065 #
edge $-1 $505 1 $505 0 $269 $-1 forward 7 unknown #
vertex $-1 $270 $506 #
ellipse-curve $-1 -57.251386093834029 18.461014826913043 8.1503029494902943 -0.5877852598018023 0 0.80901698891910034 0.80901698891910034 0 0.5877852598018023 1 I I #
point $-1 -58.405611695745598 18.461014826913043 11.44025976406556 #
plane-surface $-1 0 0 13.051908422646065 0 0 1 1 0 0 forward_v I I I I #
coedge $-1 $416 $415 $408 $507 forward $274 $-1 #
coedge $-1 $408 $276 $278 $412 reversed $171 $-1 #
coedge $-1 $276 $407 $406 $507 reversed $171 $-1 #
coedge $-1 $284 $279 $276 $410 forward $285 $-1 #
edge $-1 $413 38.836303693379364 $508 44.890825736263523 $409 $509 forward 7 unknown #
coedge $-1 $278 $277 $416 $510 reversed $107 $-1 #
edge $-1 $511 -124.48377941221349 $413 -116.99997854546854 $407 $512 forward 7 unknown #
vertex $-1 $280 $513 #
straight-curve $-1 56.187367663222595 -9.3898340842898165 13.051908422646065 0 -1 0 I I #
coedge $-1 $406 $281 $284 $420 reversed $274 $-1 #
coedge $-1 $281 $406 $411 $510 forward $274 $-1 #
vertex $-1 $282 $514 #
straight-curve $-1 62.241889706106754 -11.290730137566726 91.266131799069029 0 0 1 I I #
straight-curve $-1 -38.467602683231711 -11.290730137566726 81.822771208799594 0.80901698891910034 0 -0.5877852598018023 I I #
edge $-1 $508 -26.26860619959254 $286 -11.290730137566726 $415 $515 forward 7 unknown #
point $-1 62.241889706106754 -11.290730137566726 13.051908422646065 #
point $-1 56.187367663222595 -11.290730137566726 13.051908422646065 #
edge $-1 $516 1 $516 0 $289 $-1 forward 7 unknown #
vertex $-1 $290 $517 #
ellipse-curve $-1 57.251386093834029 -18.779668168579633 8.1503029494902837 0.5877852598018023 0 0.80901698891910034 0.80901698891910034 0 -0.5877852598018023 1 I I #
point $-1 60.023645673583793 -18.779668168579633 10.264689244461945 #
plane-surface $-1 0 0 13.051908422646065 0 0 1 1 0 0 forward_v I I I I #
coedge $-1 $438 $437 $430 $518 forward $294 $-1 #
coedge $-1 $430 $296 $298 $434 reversed $186 $-1 #
coedge $-1 $296 $429 $428 $518 reversed $186 $-1 #
coedge $-1 $304 $299 $296 $432 forward $305 $-1 #
edge $-1 $435 38.836303693379364 $519 44.890825736263523 $431 $520 forward 7 unknown #
coedge $-1 $298 $297 $438 $521 reversed $116 $-1 #
edge $-1 $522 -124.48377941221349 $435 -116.99997854546854 $429 $523 forward 7 unknown #
vertex $-1 $300 $524 #
straight-curve $-1 56.187367663222595 9.2305074134565217 13.051908422646065 0 -1 0 I I #
coedge $-1 $428 $301 $304 $442 reversed $294 $-1 #
coedge $-1 $301 $428 $433 $521 forward $294 $-1 #
vertex $-1 $302 $525 #
straight-curve $-1 62.241889706106754 25.94995285792595 91.266131799069029 0 0 1 I I #
straight-curve $-1 -38.467602683231711 25.94995285792595 81.822771208799594 0.80901698891910034 0 -0.5877852598018023 I I #
edge $-1 $519 10.972076795900136 $306 25.94995285792595 $437 $526 forward 7 unknown #
point $-1 62.241889706106754 25.94995285792595 13.051908422646065 #
point $-1 56.187367663222595 25.94995285792595 13.051908422646065 #
edge $-1 $527 1 $527 0 $309 $-1 forward 7 unknown #
vertex $-1 $310 $528 #
ellipse-curve $-1 57.251386093834029 18.461014826913043 8.1503029494902837 0.5877852598018023 0 0.80901698891910034 0.80901698891910034 0 -0.5877852598018023 1 I I #
point $-1 60.023645673583793 18.461014826913043 10.264689244461945 #
plane-surface $-1 62.241889706106754 0 0 -1 0 0 0 0 1 forward_v I I I I #
coedge $-1 $318 $316 $320 $454 reversed $201 $-1 #
edge $-1 $331 -13.051908422646065 $456 13.051908422646065 $330 $529 forward 7 unknown #
vertex $-1 $454 $530 #
straight-curve $-1 -62.241889706106754 -43.311176707936035 0 0 0 -1 I I #
edge $-1 $452 -43.311176707936035 $456 43.311176707936035 $450 $531 forward 7 unknown #
straight-curve $-1 0 -43.311176707936035 -13.051908422646065 -1 0 0 I I #
vertex $-1 $323 $532 #
straight-curve $-1 0 43.311176707936035 -13.051908422646065 1 0 0 I I #
point $-1 62.241889706106754 43.311176707936035 -13.051908422646065 #
point $-1 62.241889706106754 -43.311176707936035 -13.051908422646065 #
straight-curve $-1 -62.241889706106754 0 13.051908422646065 0 -1 0 I I #
point $-1 -62.241889706106754 43.311176707936035 13.051908422646065 #
point $-1 -62.241889706106754 -43.311176707936035 13.051908422646065 #
straight-curve $-1 62.241889706106754 -43.311176707936035 0 0 0 -1 I I #
straight-curve $-1 62.241889706106754 43.311176707936035 0 0 0 -1 I I #
plane-surface $-1 62.241889706106754 0 0 -1 0 0 0 0 1 forward_v I I I I #
coedge $-1 $477 $468 $467 $533 forward $341 $-1 #
coedge $-1 $344 $343 $466 $533 reversed $133 $-1 #
coedge $-1 $466 $534 $345 $469 reversed $341 $-1 #
edge $-1 $470 -62.241889706106754 $473 62.241889706106754 $468 $535 forward 7 unknown #
vertex $-1 $346 $536 #
straight-curve $-1 -62.241889706106754 0 13.051908422646065 0 -1 0 I I #
coedge $-1 $353 $347 $534 $537 forward $354 $-1 #
vertex $-1 $348 $538 #
straight-curve $-1 62.241889706106754 0 13.051908422646065 0 1 0 I I #
point $-1 62.241889706106754 -43.311176707936035 13.051908422646065 #
point $-1 -62.241889706106754 -43.311176707936035 13.051908422646065 #
coedge $-1 $534 $466 $356 $478 reversed $341 $-1 #
edge $-1 $479 -62.241889706106754 $481 62.241889706106754 $477 $539 forward 7 unknown #
vertex $-1 $537 $540 #
straight-curve $-1 62.241889706106754 -49.381670420379393 6.1209773964390237 0 -1 0 I I #
vertex $-1 $358 $541 #
straight-curve $-1 -62.241889706106754 -49.381670420379393 6.1209773964390237 0 1 0 I I #
coedge $-1 $372 $371 $364 $484 forward $361 $-1 #
edge $-1 $485 41.629358064963895 $488 46.028225901728511 $483 $542 forward 7 unknown #
vertex $-1 $376 $543 #
straight-curve $-1 -67.705810164512457 -11.290730137566726 13.051908422646065 -1 0 0 I I #
edge $-1 $488 1.9008960532769095 $373 16.878772115302723 $372 $544 forward 7 unknown #
vertex $-1 $487 $545 #
straight-curve $-1 -62.241889706106747 -11.290730137566726 8.6530405858814561 0.80901698891910034 0 0.5877852598018023 I I #
point $-1 -56.187367663222631 -11.290730137566726 13.051908422646065 #
point $-1 -62.241889706106754 -26.26860619959254 8.6530405858814508 #
straight-curve $-1 -62.241889706106754 0 13.051908422646065 0 -1 0 I I #
vertex $-1 $379 $546 #
point $-1 -56.442369104914924 -18.779668168579633 8.738088209292096 #
coedge $-1 $394 $393 $386 $496 forward $383 $-1 #
edge $-1 $497 41.629358064963895 $500 46.028225901728511 $495 $547 forward 7 unknown #
vertex $-1 $398 $548 #
straight-curve $-1 -67.705810164512457 25.94995285792595 13.051908422646065 -1 0 0 I I #
edge $-1 $500 -16.719445444469429 $395 -1.7415693824436147 $394 $549 forward 7 unknown #
vertex $-1 $499 $550 #
straight-curve $-1 -62.241889706106747 25.94995285792595 8.6530405858814561 0.80901698891910034 0 0.5877852598018023 I I #
point $-1 -56.187367663222631 25.94995285792595 13.051908422646065 #
point $-1 -62.241889706106754 10.972076795900136 8.6530405858814508 #
straight-curve $-1 -62.241889706106754 0 13.051908422646065 0 -1 0 I I #
vertex $-1 $401 $551 #
point $-1 -56.442369104914924 18.461014826913043 8.738088209292096 #
edge $-1 $508 78.214223376422964 $511 82.613091213187602 $406 $552 forward 7 unknown #
vertex $-1 $420 $553 #
straight-curve $-1 17.351063969843228 -26.26860619959254 13.051908422646065 1 0 0 I I #
edge $-1 $511 -16.878772115302723 $417 -1.9008960532769095 $416 $554 forward 7 unknown #
vertex $-1 $510 $555 #
straight-curve $-1 -38.467602683231711 -26.26860619959254 81.822771208799594 -0.80901698891910034 0 0.5877852598018023 I I #
point $-1 56.187367663222595 -26.26860619959254 13.051908422646065 #
point $-1 62.241889706106754 -11.290730137566726 8.6530405858814277 #
straight-curve $-1 62.241889706106754 0 13.051908422646065 0 1 0 I I #
vertex $-1 $423 $556 #
point $-1 58.060403082753126 -18.779668168579633 7.5625176896884811 #
edge $-1 $519 78.214223376422964 $522 82.613091213187602 $428 $557 forward 7 unknown #
vertex $-1 $442 $558 #
straight-curve $-1 17.351063969843228 10.972076795900136 13.051908422646065 1 0 0 I I #
edge $-1 $522 1.7415693824436147 $439 16.719445444469429 $438 $559 forward 7 unknown #
vertex $-1 $521 $560 #
straight-curve $-1 -38.467602683231711 10.972076795900136 81.822771208799594 -0.80901698891910034 0 0.5877852598018023 I I #
point $-1 56.187367663222595 10.972076795900136 13.051908422646065 #
point $-1 62.241889706106754 25.94995285792595 8.6530405858814277 #
straight-curve $-1 62.241889706106754 0 13.051908422646065 0 1 0 I I #
vertex $-1 $445 $561 #
point $-1 58.060403082753126 18.461014826913043 7.5625176896884811 #
straight-curve $-1 -62.241889706106754 43.311176707936035 0 0 0 -1 I I #
point $-1 -62.241889706106754 -43.311176707936035 -13.051908422646065 #
straight-curve $-1 -62.241889706106754 0 -13.051908422646065 0 1 0 I I #
point $-1 -62.241889706106754 43.311176707936035 -13.051908422646065 #
edge $-1 $470 -3.4654655131035206 $481 3.4654655131035206 $467 $562 forward 7 unknown #
coedge $-1 $468 $477 $472 $537 reversed $341 $-1 #
straight-curve $-1 0 -55.452164132822745 13.051908422646065 1 0 0 I I #
point $-1 -62.241889706106754 -55.452164132822745 13.051908422646065 #
edge $-1 $473 -3.4654655131035206 $479 3.4654655131035206 $472 $563 forward 7 unknown #
point $-1 62.241889706106754 -55.452164132822745 13.051908422646065 #
straight-curve $-1 0 -55.452164132822745 6.1209773964390237 -1 0 0 I I #
point $-1 62.241889706106754 -55.452164132822745 6.1209773964390237 #
point $-1 -62.241889706106754 -55.452164132822745 6.1209773964390237 #
straight-curve $-1 -62.241889706106754 -11.290730137566726 54.68126648760996 0 0 -1 I I #
point $-1 -62.241889706106754 -11.290730137566726 13.051908422646065 #
straight-curve $-1 -62.241889706106754 -9.3898340842898165 8.653040585881449 0 -1 0 I I #
point $-1 -62.241889706106754 -11.290730137566726 8.6530405858814508 #
point $-1 -56.663600834032223 -18.779668168579633 7.3412859605711933 #
straight-curve $-1 -62.241889706106754 25.94995285792595 54.68126648760996 0 0 -1 I I #
point $-1 -62.241889706106754 25.94995285792595 13.051908422646065 #
straight-curve $-1 -62.241889706106754 9.2305074134565217 8.653040585881449 0 -1 0 I I #
point $-1 -62.241889706106754 25.94995285792595 8.6530405858814508 #
point $-1 -56.663600834032223 18.461014826913043 7.3412859605711933 #
straight-curve $-1 62.241889706106754 -26.26860619959254 91.266131799069029 0 0 -1 I I #
point $-1 62.241889706106754 -26.26860619959254 13.051908422646065 #
straight-curve $-1 62.241889706106747 -9.3898340842898165 8.6530405858814348 0 1 0 I I #
point $-1 62.241889706106754 -26.26860619959254 8.6530405858814277 #
point $-1 56.663600834032223 -18.779668168579633 7.3412859605711827 #
straight-curve $-1 62.241889706106754 10.972076795900136 91.266131799069029 0 0 -1 I I #
point $-1 62.241889706106754 10.972076795900136 13.051908422646065 #
straight-curve $-1 62.241889706106747 9.2305074134565217 8.6530405858814348 0 1 0 I I #
point $-1 62.241889706106754 10.972076795900136 8.6530405858814277 #
point $-1 56.663600834032223 18.461014826913043 7.3412859605711827 #
straight-curve $-1 -62.241889706106754 -55.452164132822745 9.5864429095425443 0 0 -1 I I #
straight-curve $-1 62.241889706106754 -55.452164132822745 9.5864429095425443 0 0 -1 I I #
End-of-ACIS-data 