500 0 5 0           
7 Unknown 11 ACIS 5.0 NT 24 Thu Mar 25 19:36:15 1999 
-1 9.9999999999999995e-007 1e-010 
body $-1 $5 $-1 $6 #
body $-1 $7 $-1 $8 #
body $-1 $9 $-1 $10 #
body $-1 $11 $-1 $12 #
body $-1 $13 $-1 $14 #
lump $-1 $-1 $15 $0 #
transform $-1 1 0 0 0 1 0 0 0 1 75.119479964598526 40.606976920955361 14.252036420232399 1 rotate no_reflect no_shear #
lump $-1 $-1 $16 $1 #
transform $-1 1 0 0 0 1 0 0 0 1 75.119479964598526 40.606976920955361 14.252036420232399 1 rotate no_reflect no_shear #
lump $-1 $-1 $17 $2 #
transform $-1 1 0 0 0 1 0 0 0 1 75.119479964598526 40.606976920955361 14.252036420232399 1 rotate no_reflect no_shear #
lump $-1 $-1 $18 $3 #
transform $-1 1 0 0 0 1 0 0 0 1 75.119479964598526 40.606976920955361 14.252036420232399 1 rotate no_reflect no_shear #
lump $-1 $-1 $19 $4 #
transform $-1 1 0 0 0 1 0 0 0 1 75.119479964598526 40.606976920955361 14.252036420232399 1 rotate no_reflect no_shear #
shell $-1 $-1 $-1 $20 $-1 $5 #
shell $-1 $-1 $-1 $21 $-1 $7 #
shell $-1 $-1 $-1 $22 $-1 $9 #
shell $-1 $-1 $-1 $23 $-1 $11 #
shell $-1 $-1 $-1 $24 $-1 $13 #
face $-1 $25 $26 $15 $-1 $27 forward single #
face $-1 $28 $29 $16 $-1 $30 reversed single #
face $-1 $31 $32 $17 $-1 $33 forward single #
face $-1 $34 $35 $18 $-1 $36 forward single #
face $-1 $37 $38 $19 $-1 $39 forward single #
face $-1 $40 $41 $15 $-1 $42 reversed single #
loop $-1 $-1 $43 $20 #
plane-surface $-1 0 0 14.252036420232399 0 0 1 1 0 0 forward_v I I I I #
face $-1 $44 $45 $16 $-1 $46 reversed single #
loop $-1 $-1 $47 $21 #
plane-surface $-1 35.638889133737734 -148.67984159731685 113.65050427577791 -1 0 0 0 -0.71933980857756763 0.69465836192734942 forward_v I I I I #
face $-1 $48 $49 $17 $-1 $50 forward single #
loop $-1 $51 $52 $22 #
cone-surface $-1 3.4704109774691716 -37.652610344755132 11.231561823457108 0 0.71933980857756763 -0.69465836192734942 1 0 0 1 I I 0 1 1 forward I I I I #
face $-1 $53 $54 $18 $-1 $55 forward single #
loop $-1 $56 $57 $23 #
cone-surface $-1 15.533590286069881 -37.652610344755132 11.231561823457108 0 0.71933980857756763 -0.69465836192734942 1 0 0 1 I I 0 1 1 forward I I I I #
face $-1 $58 $59 $19 $-1 $60 forward single #
loop $-1 $61 $62 $24 #
cone-surface $-1 27.59676959467059 -37.652610344755132 11.231561823457108 0 0.71933980857756763 -0.69465836192734942 1 0 0 1 I I 0 1 1 forward I I I I #
face $-1 $63 $64 $15 $-1 $65 reversed single #
loop $-1 $-1 $66 $25 #
plane-surface $-1 0 0 -14.252036420232399 0 0 1 1 0 0 forward_v I I I I #
coedge $-1 $67 $68 $69 $70 forward $26 $-1 #
face $-1 $71 $72 $16 $-1 $73 reversed single #
loop $-1 $-1 $74 $28 #
plane-surface $-1 15.533590286069881 -40.60697692095539 9.2857544736931885 0 -0.71933980857756763 0.69465836192734942 1 0 0 forward_v I I I I #
coedge $-1 $75 $76 $77 $78 reversed $29 $-1 #
face $-1 $-1 $79 $17 $-1 $80 forward single #
loop $-1 $81 $82 $31 #
cone-surface $-1 3.4704109774691716 -36.736515171500407 10.346899018987754 0 0.71933980857756763 -0.69465836192734942 0.5 0 0 1 I I -0.70710678118654746 0.70710678118654746 0.5 forward I I I I #
loop $-1 $-1 $83 $22 #
coedge $-1 $52 $52 $84 $85 reversed $32 $-1 #
face $-1 $-1 $86 $18 $-1 $87 forward single #
loop $-1 $88 $89 $34 #
cone-surface $-1 15.533590286069881 -36.736515171500407 10.346899018987754 0 0.71933980857756763 -0.69465836192734942 0.5 0 0 1 I I -0.70710678118654746 0.70710678118654746 0.5 forward I I I I #
loop $-1 $-1 $90 $23 #
coedge $-1 $57 $57 $91 $92 reversed $35 $-1 #
face $-1 $-1 $93 $19 $-1 $94 forward single #
loop $-1 $95 $96 $37 #
cone-surface $-1 27.59676959467059 -36.736515171500407 10.346899018987754 0 0.71933980857756763 -0.69465836192734942 0.5 0 0 1 I I -0.70710678118654746 0.70710678118654746 0.5 forward I I I I #
loop $-1 $-1 $97 $24 #
coedge $-1 $62 $62 $98 $99 reversed $38 $-1 #
face $-1 $100 $101 $15 $-1 $102 reversed single #
loop $-1 $-1 $103 $40 #
plane-surface $-1 0 -40.606976920955361 0 0 1 0 0 0 1 forward_v I I I I #
coedge $-1 $104 $105 $106 $107 forward $41 $-1 #
coedge $-1 $108 $43 $109 $110 forward $26 $-1 #
coedge $-1 $43 $108 $111 $112 forward $26 $-1 #
coedge $-1 $113 $114 $43 $70 reversed $115 $-1 #
edge $-1 $116 -40.606976920955361 $117 40.606976920955361 $69 $118 forward 7 unknown #
face $-1 $119 $120 $16 $-1 $121 reversed single #
loop $-1 $-1 $122 $44 #
plane-surface $-1 -4.5717085615979727 -148.67984159731685 113.65050427577791 1 0 0 0 0.71933980857756763 -0.69465836192734942 forward_v I I I I #
coedge $-1 $123 $124 $125 $126 reversed $45 $-1 #
coedge $-1 $76 $47 $127 $128 reversed $29 $-1 #
coedge $-1 $47 $75 $123 $129 reversed $29 $-1 #
coedge $-1 $125 $130 $47 $78 forward $131 $-1 #
edge $-1 $132 33.732943877703065 $133 38.528826492171589 $77 $134 forward 7 unknown #
loop $-1 $-1 $84 $48 #
plane-surface $-1 15.533590286069881 -40.60697692095539 9.2857544736931885 0 -0.71933980857756763 0.69465836192734942 1 0 0 forward_v I I I I #
loop $-1 $-1 $135 $31 #
coedge $-1 $82 $82 $83 $136 reversed $49 $-1 #
coedge $-1 $83 $83 $82 $136 forward $51 $-1 #
coedge $-1 $84 $84 $52 $85 forward $79 $-1 #
edge $-1 $137 -5.261166787608898e-016 $137 6.2831853071795996 $84 $138 forward 7 unknown #
loop $-1 $-1 $91 $53 #
plane-surface $-1 15.533590286069881 -40.60697692095539 9.2857544736931885 0 -0.71933980857756763 0.69465836192734942 1 0 0 forward_v I I I I #
loop $-1 $-1 $139 $34 #
coedge $-1 $89 $89 $90 $140 reversed $54 $-1 #
coedge $-1 $90 $90 $89 $140 forward $56 $-1 #
coedge $-1 $91 $91 $57 $92 forward $86 $-1 #
edge $-1 $141 -5.261166787608898e-016 $141 6.2831853071795996 $91 $142 forward 7 unknown #
loop $-1 $-1 $98 $58 #
plane-surface $-1 15.533590286069881 -40.60697692095539 9.2857544736931885 0 -0.71933980857756763 0.69465836192734942 1 0 0 forward_v I I I I #
loop $-1 $-1 $143 $37 #
coedge $-1 $96 $96 $97 $144 reversed $59 $-1 #
coedge $-1 $97 $97 $96 $144 forward $61 $-1 #
coedge $-1 $98 $98 $62 $99 forward $93 $-1 #
edge $-1 $145 -5.261166787608898e-016 $145 6.2831853071795996 $98 $146 forward 7 unknown #
face $-1 $147 $148 $15 $-1 $149 reversed single #
loop $-1 $-1 $150 $63 #
plane-surface $-1 -75.119479964598526 0 0 1 0 0 0 0 -1 forward_v I I I I #
coedge $-1 $151 $111 $152 $153 forward $64 $-1 #
coedge $-1 $154 $66 $151 $155 forward $41 $-1 #
coedge $-1 $66 $154 $156 $157 forward $41 $-1 #
coedge $-1 $114 $113 $66 $107 reversed $115 $-1 #
edge $-1 $158 -40.606976920955361 $159 40.606976920955361 $106 $160 forward 7 unknown #
coedge $-1 $68 $67 $161 $162 forward $26 $-1 #
coedge $-1 $163 $164 $67 $110 reversed $148 $-1 #
edge $-1 $117 -75.119479964598526 $165 75.119479964598526 $109 $166 forward 7 unknown #
coedge $-1 $103 $167 $68 $112 reversed $64 $-1 #
edge $-1 $168 -75.119479964598526 $116 75.119479964598526 $111 $169 forward 7 unknown #
coedge $-1 $106 $69 $167 $170 forward $115 $-1 #
coedge $-1 $69 $106 $163 $171 reversed $115 $-1 #
loop $-1 $-1 $113 $147 #
vertex $-1 $70 $172 #
vertex $-1 $70 $173 #
straight-curve $-1 75.119479964598526 0 14.252036420232399 0 1 0 I I #
face $-1 $-1 $131 $16 $-1 $174 forward single #
loop $-1 $-1 $175 $71 #
plane-surface $-1 0 -40.606976920955361 0 0 1 0 0 0 1 forward_v I I I I #
coedge $-1 $176 $177 $178 $179 reversed $72 $-1 #
coedge $-1 $180 $74 $76 $129 forward $45 $-1 #
coedge $-1 $74 $180 $176 $181 forward $45 $-1 #
coedge $-1 $178 $77 $74 $126 forward $131 $-1 #
edge $-1 $133 -27.872093990702794 $182 12.338503704632913 $125 $183 forward 7 unknown #
coedge $-1 $184 $185 $75 $128 forward $120 $-1 #
edge $-1 $186 -47.539497664195736 $132 -42.573215717656552 $127 $187 forward 7 unknown #
edge $-1 $133 -6.9039442657283239 $186 -4.1466049326033243e-014 $76 $188 forward 7 unknown #
coedge $-1 $77 $178 $184 $189 forward $131 $-1 #
loop $-1 $-1 $178 $119 #
vertex $-1 $128 $190 #
vertex $-1 $78 $191 #
straight-curve $-1 35.638889133737734 -74.339920798658426 14.2520364202324 0 1 0 I I #
coedge $-1 $135 $135 $-1 $192 reversed $81 $-1 #
edge $-1 $193 0 $193 6.2831853071796004 $82 $194 forward 7 unknown #
vertex $-1 $85 $195 #
ellipse-curve $-1 3.4704109774691716 -38.209035613721099 11.768895446962809 0 -0.71933980857756763 0.69465836192734942 1 0 0 1 I I #
coedge $-1 $139 $139 $-1 $196 reversed $88 $-1 #
edge $-1 $197 0 $197 6.2831853071796004 $89 $198 forward 7 unknown #
vertex $-1 $92 $199 #
ellipse-curve $-1 15.533590286069881 -38.209035613721099 11.768895446962809 0 -0.71933980857756763 0.69465836192734942 1 0 0 1 I I #
coedge $-1 $143 $143 $-1 $200 reversed $95 $-1 #
edge $-1 $201 0 $201 6.2831853071796004 $96 $202 forward 7 unknown #
vertex $-1 $99 $203 #
ellipse-curve $-1 27.59676959467059 -38.209035613721099 11.768895446962809 0 -0.71933980857756763 0.69465836192734942 1 0 0 1 I I #
face $-1 $-1 $115 $15 $-1 $204 reversed single #
loop $-1 $-1 $163 $100 #
plane-surface $-1 0 40.606976920955361 0 0 -1 0 0 0 -1 forward_v I I I I #
coedge $-1 $205 $161 $164 $206 forward $101 $-1 #
coedge $-1 $167 $103 $104 $155 reversed $64 $-1 #
coedge $-1 $161 $205 $103 $153 reversed $101 $-1 #
edge $-1 $168 -14.252036420232399 $207 14.252036420232399 $152 $208 forward 7 unknown #
coedge $-1 $105 $104 $205 $209 forward $41 $-1 #
edge $-1 $159 -75.119479964598526 $207 75.119479964598526 $151 $210 forward 7 unknown #
coedge $-1 $164 $163 $105 $157 reversed $148 $-1 #
edge $-1 $211 -75.119479964598526 $158 75.119479964598526 $156 $212 forward 7 unknown #
vertex $-1 $107 $213 #
vertex $-1 $170 $214 #
straight-curve $-1 75.119479964598526 0 -14.252036420232399 0 -1 0 I I #
coedge $-1 $150 $152 $108 $162 reversed $101 $-1 #
edge $-1 $165 -40.606976920955361 $168 40.606976920955361 $161 $215 forward 7 unknown #
coedge $-1 $156 $109 $114 $171 forward $148 $-1 #
coedge $-1 $109 $156 $150 $206 reversed $148 $-1 #
vertex $-1 $110 $216 #
straight-curve $-1 0 40.606976920955361 14.252036420232399 -1 0 0 I I #
coedge $-1 $111 $151 $113 $170 reversed $64 $-1 #
vertex $-1 $162 $217 #
straight-curve $-1 0 -40.606976920955361 14.252036420232399 1 0 0 I I #
edge $-1 $116 -14.252036420232399 $159 14.252036420232399 $113 $218 forward 7 unknown #
edge $-1 $117 -14.252036420232399 $158 14.252036420232399 $114 $219 forward 7 unknown #
point $-1 75.119479964598526 -40.606976920955361 14.252036420232399 #
point $-1 75.119479964598526 40.606976920955361 14.252036420232399 #
plane-surface $-1 0 0 14.252036420232399 0 0 1 1 0 0 forward_v I I I I #
coedge $-1 $185 $184 $177 $220 forward $120 $-1 #
coedge $-1 $177 $122 $124 $181 reversed $72 $-1 #
coedge $-1 $122 $176 $175 $220 reversed $72 $-1 #
coedge $-1 $130 $125 $122 $179 forward $131 $-1 #
edge $-1 $182 -38.528826492171589 $221 -33.732943877703065 $178 $222 forward 7 unknown #
coedge $-1 $124 $123 $185 $223 reversed $45 $-1 #
edge $-1 $224 4.1466049326033243e-014 $182 6.9039442657283239 $176 $225 forward 7 unknown #
vertex $-1 $126 $226 #
straight-curve $-1 7.7667951430349405 -35.811094306486837 14.2520364202324 -1 0 0 I I #
coedge $-1 $175 $127 $130 $189 reversed $120 $-1 #
coedge $-1 $127 $175 $180 $223 forward $120 $-1 #
vertex $-1 $128 $227 #
straight-curve $-1 35.638889133737734 -40.606976920955361 56.825252137888953 0 0 1 I I #
straight-curve $-1 35.638889133737734 -40.60697692095539 9.2857544736931885 0 -0.69465836192734942 -0.71933980857756763 I I #
edge $-1 $221 -4.5717085615979727 $132 35.638889133737734 $184 $228 forward 7 unknown #
point $-1 35.638889133737734 -40.606976920955361 14.252036420232399 #
point $-1 35.638889133737734 -35.811094306486837 14.252036420232399 #
edge $-1 $229 1 $229 0 $135 $-1 forward 7 unknown #
vertex $-1 $136 $230 #
ellipse-curve $-1 3.4704109774691716 -37.096185075789194 10.694228199951429 0 -0.71933980857756763 0.69465836192734942 1 0 0 1 I I #
point $-1 4.4704109774691716 -38.209035613721078 11.768895446962787 #
edge $-1 $231 1 $231 0 $139 $-1 forward 7 unknown #
vertex $-1 $140 $232 #
ellipse-curve $-1 15.533590286069881 -37.096185075789194 10.694228199951429 0 -0.71933980857756763 0.69465836192734942 1 0 0 1 I I #
point $-1 16.533590286069881 -38.209035613721078 11.768895446962787 #
edge $-1 $233 1 $233 0 $143 $-1 forward 7 unknown #
vertex $-1 $144 $234 #
ellipse-curve $-1 27.59676959467059 -37.096185075789194 10.694228199951429 0 -0.71933980857756763 0.69465836192734942 1 0 0 1 I I #
point $-1 28.59676959467059 -38.209035613721078 11.768895446962787 #
plane-surface $-1 75.119479964598526 0 0 -1 0 0 0 0 1 forward_v I I I I #
coedge $-1 $152 $150 $154 $209 reversed $101 $-1 #
edge $-1 $165 -14.252036420232399 $211 14.252036420232399 $164 $235 forward 7 unknown #
vertex $-1 $209 $236 #
straight-curve $-1 -75.119479964598526 -40.606976920955361 0 0 0 -1 I I #
edge $-1 $207 -40.606976920955361 $211 40.606976920955361 $205 $237 forward 7 unknown #
straight-curve $-1 0 -40.606976920955361 -14.252036420232399 -1 0 0 I I #
vertex $-1 $157 $238 #
straight-curve $-1 0 40.606976920955361 -14.252036420232399 1 0 0 I I #
point $-1 75.119479964598526 40.606976920955361 -14.252036420232399 #
point $-1 75.119479964598526 -40.606976920955361 -14.252036420232399 #
straight-curve $-1 -75.119479964598526 0 14.252036420232399 0 -1 0 I I #
point $-1 -75.119479964598526 40.606976920955361 14.252036420232399 #
point $-1 -75.119479964598526 -40.606976920955361 14.252036420232399 #
straight-curve $-1 75.119479964598526 -40.606976920955361 0 0 0 -1 I I #
straight-curve $-1 75.119479964598526 40.606976920955361 0 0 0 -1 I I #
edge $-1 $221 42.573215717656552 $224 47.539497664195736 $175 $239 forward 7 unknown #
vertex $-1 $189 $240 #
straight-curve $-1 -4.5717085615979727 -74.339920798658426 14.2520364202324 0 -1 0 I I #
edge $-1 $224 -12.338503704632913 $186 27.872093990702794 $185 $241 forward 7 unknown #
vertex $-1 $223 $242 #
straight-curve $-1 -4.5717085615979727 -40.60697692095539 9.2857544736931885 0 0.69465836192734942 0.71933980857756763 I I #
point $-1 -4.5717085615979727 -35.811094306486837 14.252036420232399 #
point $-1 35.638889133737734 -40.606976920955361 9.2857544736932187 #
straight-curve $-1 0 -40.606976920955361 14.252036420232399 1 0 0 I I #
vertex $-1 $192 $243 #
point $-1 4.4704109774691716 -37.096185075789194 10.694228199951429 #
vertex $-1 $196 $244 #
point $-1 16.533590286069881 -37.096185075789194 10.694228199951429 #
vertex $-1 $200 $245 #
point $-1 28.59676959467059 -37.096185075789194 10.694228199951429 #
straight-curve $-1 -75.119479964598526 40.606976920955361 0 0 0 -1 I I #
point $-1 -75.119479964598526 -40.606976920955361 -14.252036420232399 #
straight-curve $-1 -75.119479964598526 0 -14.252036420232399 0 1 0 I I #
point $-1 -75.119479964598526 40.606976920955361 -14.252036420232399 #
straight-curve $-1 -4.5717085615979727 -40.606976920955361 56.825252137888953 0 0 -1 I I #
point $-1 -4.5717085615979727 -40.606976920955361 14.252036420232399 #
straight-curve $-1 7.7667951430349405 -40.606976920955361 9.2857544736932169 1 0 0 I I #
point $-1 -4.5717085615979727 -40.606976920955361 9.2857544736932187 #
point $-1 3.4704109774691716 -36.376845267211621 9.9995698380240796 #
point $-1 15.533590286069881 -36.376845267211621 9.9995698380240796 #
point $-1 27.59676959467059 -36.376845267211621 9.9995698380240796 #
End-of-ACIS-data 