500 0 5 0           
7 Unknown 11 ACIS 5.0 NT 24 Fri Mar 26 17:40:35 1999 
-1 9.9999999999999995e-007 1e-010 
body $-1 $5 $-1 $6 #
body $-1 $7 $-1 $8 #
body $-1 $9 $-1 $10 #
body $-1 $11 $-1 $12 #
body $-1 $13 $-1 $14 #
lump $-1 $-1 $15 $0 #
transform $-1 1 0 0 0 1 0 0 0 1 60.122684408093505 24.210907948997281 6.8945708536908645 1 rotate no_reflect no_shear #
lump $-1 $-1 $16 $1 #
transform $-1 1 0 0 0 1 0 0 0 1 60.122684408093505 24.210907948997281 6.8945708536908645 1 rotate no_reflect no_shear #
lump $-1 $-1 $17 $2 #
transform $-1 1 0 0 0 1 0 0 0 1 60.122684408093505 24.210907948997281 6.8945708536908645 1 rotate no_reflect no_shear #
lump $-1 $-1 $18 $3 #
transform $-1 1 0 0 0 1 0 0 0 1 60.122684408093505 24.210907948997281 6.8945708536908645 1 rotate no_reflect no_shear #
lump $-1 $-1 $19 $4 #
transform $-1 1 0 0 0 1 0 0 0 1 60.122684408093505 24.210907948997281 6.8945708536908645 1 rotate no_reflect no_shear #
shell $-1 $-1 $-1 $20 $-1 $5 #
shell $-1 $-1 $-1 $21 $-1 $7 #
shell $-1 $-1 $-1 $22 $-1 $9 #
shell $-1 $-1 $-1 $23 $-1 $11 #
shell $-1 $-1 $-1 $24 $-1 $13 #
face $-1 $25 $26 $15 $-1 $27 forward single #
face $-1 $28 $29 $16 $-1 $30 forward single #
face $-1 $31 $32 $17 $-1 $33 reversed single #
face $-1 $34 $35 $18 $-1 $36 forward single #
face $-1 $37 $38 $19 $-1 $39 reversed single #
face $-1 $40 $41 $15 $-1 $42 reversed single #
loop $-1 $-1 $43 $20 #
plane-surface $-1 0 0 6.8945708536908645 0 0 1 1 0 0 forward_v I I I I #
face $-1 $44 $45 $16 $-1 $46 forward single #
loop $-1 $-1 $47 $21 #
plane-surface $-1 36.470306233986321 49.091278828396334 130.61676989416156 1 0 0 0 -0.54463904215088732 -0.83867056331134215 forward_v I I I I #
face $-1 $48 $49 $17 $-1 $50 reversed single #
loop $-1 $51 $52 $22 #
cone-surface $-1 48.296495321039913 20.955960959816323 4.2795396172323805 0 -0.54463904215088732 -0.83867056331134215 1 0 0 1 I I 0 1 1 forward I I I I #
face $-1 $53 $54 $18 $-1 $55 forward single #
loop $-1 $-1 $56 $23 #
plane-surface $-1 48.296495321039913 -24.210907948997274 3.3981072636195506 0 -0.54463904215088732 0.83867056331134215 1 0 0 forward_v I I I I #
face $-1 $57 $58 $19 $-1 $59 reversed single #
loop $-1 $60 $61 $24 #
cone-surface $-1 48.296495321039913 -20.955960959816323 4.2795396172323787 0 0.54463904215088732 -0.83867056331134215 1 0 0 1 I I 0 1 1 forward I I I I #
face $-1 $62 $63 $15 $-1 $64 reversed single #
loop $-1 $-1 $65 $25 #
plane-surface $-1 0 0 -6.8945708536908645 0 0 1 1 0 0 forward_v I I I I #
coedge $-1 $66 $67 $68 $69 forward $26 $-1 #
face $-1 $70 $71 $16 $-1 $72 forward single #
loop $-1 $-1 $73 $28 #
plane-surface $-1 48.296495321039913 -16.399043666731934 29.770518693509914 0 0.54463904215088732 0.83867056331134215 1 0 0 forward_v I I I I #
coedge $-1 $74 $75 $76 $77 reversed $29 $-1 #
face $-1 $78 $79 $17 $-1 $80 forward single #
loop $-1 $81 $82 $31 #
cone-surface $-1 48.296495321039913 20.120735289215993 2.9934048941538771 0 -0.54463904215088732 -0.83867056331134215 0.5 0 0 1 I I -0.70710678118654746 0.70710678118654746 0.5 forward I I I I #
loop $-1 $-1 $83 $22 #
coedge $-1 $52 $52 $84 $85 reversed $32 $-1 #
face $-1 $86 $87 $18 $-1 $88 forward single #
loop $-1 $-1 $89 $34 #
plane-surface $-1 36.470306233986321 -89.701230444125542 104.2443584642712 1 0 0 0 0.54463904215088732 -0.83867056331134215 forward_v I I I I #
coedge $-1 $90 $91 $92 $93 reversed $35 $-1 #
face $-1 $94 $95 $19 $-1 $96 forward single #
loop $-1 $97 $98 $37 #
cone-surface $-1 48.296495321039913 -20.120735289215993 2.9934048941538753 0 0.54463904215088732 -0.83867056331134215 0.5 0 0 1 I I -0.70710678118654746 0.70710678118654746 0.5 forward I I I I #
loop $-1 $-1 $99 $24 #
coedge $-1 $61 $61 $100 $101 reversed $38 $-1 #
face $-1 $102 $103 $15 $-1 $104 reversed single #
loop $-1 $-1 $105 $40 #
plane-surface $-1 0 -24.210907948997281 0 0 1 0 0 0 1 forward_v I I I I #
coedge $-1 $106 $107 $108 $109 forward $41 $-1 #
coedge $-1 $110 $43 $111 $112 forward $26 $-1 #
coedge $-1 $43 $110 $113 $114 forward $26 $-1 #
coedge $-1 $115 $116 $43 $69 reversed $117 $-1 #
edge $-1 $118 -24.210907948997281 $119 24.210907948997281 $68 $120 forward 7 unknown #
face $-1 $121 $122 $16 $-1 $123 reversed single #
loop $-1 $-1 $124 $44 #
plane-surface $-1 0 0 6.8945708536908645 0 0 1 1 0 0 forward_v I I I I #
coedge $-1 $125 $126 $124 $127 reversed $45 $-1 #
coedge $-1 $75 $47 $126 $128 forward $29 $-1 #
coedge $-1 $47 $74 $129 $130 reversed $29 $-1 #
coedge $-1 $131 $124 $47 $77 forward $71 $-1 #
edge $-1 $132 -5.718813144513053 $133 -0.33473146520088548 $76 $134 forward 7 unknown #
face $-1 $135 $136 $17 $-1 $137 forward single #
loop $-1 $-1 $138 $48 #
plane-surface $-1 36.470306233986321 49.091278828396334 130.61676989416156 1 0 0 0 -0.54463904215088732 -0.83867056331134215 forward_v I I I I #
loop $-1 $-1 $139 $31 #
coedge $-1 $82 $82 $83 $140 forward $49 $-1 #
coedge $-1 $83 $83 $82 $140 reversed $51 $-1 #
coedge $-1 $84 $84 $52 $85 forward $136 $-1 #
edge $-1 $141 8.1320024813685592e-016 $141 6.2831853071796013 $84 $142 forward 7 unknown #
face $-1 $143 $144 $18 $-1 $145 reversed single #
loop $-1 $-1 $146 $53 #
plane-surface $-1 0 0 6.8945708536908645 0 0 1 1 0 0 forward_v I I I I #
coedge $-1 $147 $148 $146 $149 reversed $54 $-1 #
coedge $-1 $150 $56 $148 $151 reversed $35 $-1 #
coedge $-1 $56 $150 $152 $153 reversed $35 $-1 #
coedge $-1 $154 $146 $56 $93 forward $87 $-1 #
edge $-1 $155 12.322058573466364 $156 35.974436747573549 $92 $157 forward 7 unknown #
face $-1 $158 $159 $19 $-1 $160 forward single #
loop $-1 $161 $100 $57 #
plane-surface $-1 48.296495321039913 -24.210907948997274 3.3981072636195506 0 -0.54463904215088732 0.83867056331134215 1 0 0 forward_v I I I I #
loop $-1 $-1 $162 $37 #
coedge $-1 $98 $98 $99 $163 forward $58 $-1 #
coedge $-1 $99 $99 $98 $163 reversed $60 $-1 #
coedge $-1 $100 $100 $61 $101 forward $95 $-1 #
edge $-1 $164 -2.418683218822825e-015 $164 6.2831853071795978 $100 $165 forward 7 unknown #
face $-1 $166 $167 $15 $-1 $168 reversed single #
loop $-1 $-1 $169 $62 #
plane-surface $-1 -60.122684408093505 0 0 1 0 0 0 0 -1 forward_v I I I I #
coedge $-1 $170 $113 $171 $172 forward $63 $-1 #
coedge $-1 $173 $65 $170 $174 forward $41 $-1 #
coedge $-1 $65 $173 $175 $176 forward $41 $-1 #
coedge $-1 $116 $115 $65 $109 reversed $117 $-1 #
edge $-1 $177 -24.210907948997281 $178 24.210907948997281 $108 $179 forward 7 unknown #
coedge $-1 $67 $66 $180 $181 forward $26 $-1 #
coedge $-1 $182 $183 $66 $112 reversed $167 $-1 #
edge $-1 $119 -60.122684408093505 $184 60.122684408093505 $111 $185 forward 7 unknown #
coedge $-1 $105 $186 $67 $114 reversed $63 $-1 #
edge $-1 $187 -60.122684408093505 $118 60.122684408093505 $113 $188 forward 7 unknown #
coedge $-1 $108 $68 $186 $189 forward $117 $-1 #
coedge $-1 $68 $108 $182 $190 reversed $117 $-1 #
loop $-1 $-1 $115 $166 #
vertex $-1 $69 $191 #
vertex $-1 $69 $192 #
straight-curve $-1 60.122684408093505 0 6.8945708536908645 0 1 0 I I #
face $-1 $193 $194 $16 $-1 $195 reversed single #
loop $-1 $-1 $129 $70 #
plane-surface $-1 0 24.210907948997281 0 0 -1 0 0 0 -1 forward_v I I I I #
coedge $-1 $76 $196 $73 $127 forward $71 $-1 #
coedge $-1 $197 $73 $198 $199 reversed $45 $-1 #
coedge $-1 $73 $197 $74 $128 reversed $45 $-1 #
edge $-1 $200 -35.974436747573549 $132 -12.322058573466364 $124 $201 forward 7 unknown #
edge $-1 $132 42.002034502479667 $202 48.421815897994577 $74 $203 forward 7 unknown #
coedge $-1 $204 $205 $75 $130 forward $122 $-1 #
edge $-1 $133 58.413814093389917 $202 61.910277683461246 $129 $206 forward 7 unknown #
coedge $-1 $207 $76 $205 $208 forward $71 $-1 #
vertex $-1 $127 $209 #
vertex $-1 $208 $210 #
straight-curve $-1 36.470306233986321 24.545639414198167 6.8945708536908654 0 1 0 I I #
face $-1 $211 $212 $17 $-1 $213 forward single #
loop $-1 $214 $84 $78 #
plane-surface $-1 48.296495321039913 -16.399043666731934 29.770518693509914 0 0.54463904215088732 0.83867056331134215 1 0 0 forward_v I I I I #
coedge $-1 $215 $216 $217 $218 reversed $79 $-1 #
coedge $-1 $139 $139 $-1 $219 forward $81 $-1 #
edge $-1 $220 0 $220 6.2831853071796004 $82 $221 forward 7 unknown #
vertex $-1 $85 $222 #
ellipse-curve $-1 48.296495321039913 21.518867109341201 5.1463390586551991 0 -0.54463904215088732 -0.83867056331134215 1 0 0 1 I I #
face $-1 $223 $224 $18 $-1 $225 reversed single #
loop $-1 $-1 $152 $86 #
plane-surface $-1 60.122684408093505 0 0 -1 0 0 0 0 1 forward_v I I I I #
coedge $-1 $92 $226 $89 $149 forward $87 $-1 #
coedge $-1 $148 $89 $227 $228 reversed $54 $-1 #
coedge $-1 $89 $147 $90 $151 forward $54 $-1 #
edge $-1 $229 20.63970727306549 $155 26.02378895237764 $146 $230 forward 7 unknown #
coedge $-1 $91 $90 $231 $232 reversed $35 $-1 #
edge $-1 $233 -8.3777959833898778e-015 $155 6.4197813955148852 $148 $234 forward 7 unknown #
coedge $-1 $235 $236 $91 $153 forward $144 $-1 #
edge $-1 $156 2.8073355658255519 $237 9.2271169613404442 $152 $238 forward 7 unknown #
coedge $-1 $239 $92 $236 $240 forward $87 $-1 #
vertex $-1 $93 $241 #
vertex $-1 $240 $242 #
straight-curve $-1 24.148247660519957 -18.826826269685135 6.8945708536908636 1 0 0 I I #
face $-1 $243 $244 $19 $-1 $245 forward single #
loop $-1 $-1 $246 $94 #
plane-surface $-1 36.470306233986321 -89.701230444125542 104.2443584642712 1 0 0 0 0.54463904215088732 -0.83867056331134215 forward_v I I I I #
loop $-1 $-1 $247 $57 #
coedge $-1 $162 $162 $-1 $248 forward $97 $-1 #
edge $-1 $249 0 $249 6.2831853071796004 $98 $250 forward 7 unknown #
vertex $-1 $101 $251 #
ellipse-curve $-1 48.296495321039913 -21.518867109341208 5.1463390586552054 0 0.54463904215088732 -0.83867056331134215 1 0 0 1 I I #
face $-1 $-1 $117 $15 $-1 $252 reversed single #
loop $-1 $-1 $182 $102 #
plane-surface $-1 0 24.210907948997281 0 0 -1 0 0 0 -1 forward_v I I I I #
coedge $-1 $253 $180 $183 $254 forward $103 $-1 #
coedge $-1 $186 $105 $106 $174 reversed $63 $-1 #
coedge $-1 $180 $253 $105 $172 reversed $103 $-1 #
edge $-1 $187 -6.8945708536908645 $255 6.8945708536908645 $171 $256 forward 7 unknown #
coedge $-1 $107 $106 $253 $257 forward $41 $-1 #
edge $-1 $178 -60.122684408093505 $255 60.122684408093505 $170 $258 forward 7 unknown #
coedge $-1 $183 $182 $107 $176 reversed $167 $-1 #
edge $-1 $259 -60.122684408093505 $177 60.122684408093505 $175 $260 forward 7 unknown #
vertex $-1 $109 $261 #
vertex $-1 $189 $262 #
straight-curve $-1 60.122684408093505 0 -6.8945708536908645 0 -1 0 I I #
coedge $-1 $169 $171 $110 $181 reversed $103 $-1 #
edge $-1 $184 -24.210907948997281 $187 24.210907948997281 $180 $263 forward 7 unknown #
coedge $-1 $175 $111 $116 $190 forward $167 $-1 #
coedge $-1 $111 $175 $169 $254 reversed $167 $-1 #
vertex $-1 $112 $264 #
straight-curve $-1 0 24.210907948997281 6.8945708536908645 -1 0 0 I I #
coedge $-1 $113 $170 $115 $189 reversed $63 $-1 #
vertex $-1 $181 $265 #
straight-curve $-1 0 -24.210907948997281 6.8945708536908645 1 0 0 I I #
edge $-1 $118 -6.8945708536908645 $178 6.8945708536908645 $115 $266 forward 7 unknown #
edge $-1 $119 -6.8945708536908645 $177 6.8945708536908645 $116 $267 forward 7 unknown #
point $-1 60.122684408093505 -24.210907948997281 6.8945708536908645 #
point $-1 60.122684408093505 24.210907948997281 6.8945708536908645 #
face $-1 $268 $269 $16 $-1 $270 reversed single #
loop $-1 $-1 $271 $121 #
plane-surface $-1 0 0 -6.8945708536908645 0 0 1 1 0 0 forward_v I I I I #
coedge $-1 $124 $272 $273 $274 forward $71 $-1 #
coedge $-1 $126 $125 $204 $275 reversed $45 $-1 #
coedge $-1 $273 $276 $125 $199 forward $277 $-1 #
edge $-1 $278 -33.438024910337731 $200 -27.018243514822817 $198 $279 forward 7 unknown #
vertex $-1 $199 $280 #
straight-curve $-1 24.148247660519957 18.826826269685121 6.8945708536908654 -1 0 0 I I #
vertex $-1 $275 $281 #
straight-curve $-1 36.470306233986321 -16.399043666731934 29.770518693509914 0 0.83867056331134215 -0.54463904215088732 I I #
coedge $-1 $282 $129 $197 $275 forward $122 $-1 #
coedge $-1 $129 $283 $131 $208 reversed $122 $-1 #
straight-curve $-1 36.470306233986321 24.210907948997281 65.308384947080782 0 0 -1 I I #
coedge $-1 $272 $131 $284 $285 forward $71 $-1 #
edge $-1 $133 -36.470306233986321 $286 60.122684408093505 $205 $287 forward 7 unknown #
point $-1 36.470306233986321 18.826826269685114 6.8945708536908654 #
point $-1 36.470306233986321 24.210907948997281 6.8945708536908645 #
face $-1 $288 $289 $17 $-1 $290 reversed single #
loop $-1 $-1 $291 $135 #
plane-surface $-1 0 0 6.8945708536908645 0 0 1 1 0 0 forward_v I I I I #
loop $-1 $-1 $292 $78 #
coedge $-1 $216 $138 $293 $294 forward $79 $-1 #
coedge $-1 $138 $215 $295 $296 reversed $79 $-1 #
coedge $-1 $297 $291 $138 $218 forward $212 $-1 #
edge $-1 $298 -5.718813144513053 $299 -0.33473146520088548 $217 $300 forward 7 unknown #
edge $-1 $301 1 $301 0 $139 $-1 forward 7 unknown #
vertex $-1 $140 $302 #
ellipse-curve $-1 48.296495321039913 20.393054810291439 3.4127401758095481 0 0.54463904215088732 0.83867056331134215 1 0 0 1 I I #
point $-1 49.296495321039913 21.518867109341208 5.1463390586552116 #
face $-1 $303 $304 $18 $-1 $305 reversed single #
loop $-1 $306 $307 $143 #
cone-surface $-1 48.296495321039913 20.955960959816323 4.2795396172323805 0 -0.54463904215088732 -0.83867056331134215 1 0 0 1 I I 0 1 1 forward I I I I #
coedge $-1 $146 $308 $309 $310 forward $87 $-1 #
coedge $-1 $309 $231 $147 $228 forward $311 $-1 #
edge $-1 $233 -48.724071968516057 $229 -45.227608378444735 $227 $312 forward 7 unknown #
vertex $-1 $228 $313 #
straight-curve $-1 36.470306233986321 -44.850615222062771 6.8945708536908654 0 1 0 I I #
coedge $-1 $227 $314 $150 $232 forward $311 $-1 #
edge $-1 $237 -35.974436747573549 $233 -12.322058573466364 $231 $315 forward 7 unknown #
vertex $-1 $232 $316 #
straight-curve $-1 36.470306233986321 -24.210907948997274 3.3981072636195506 0 0.83867056331134215 0.54463904215088732 I I #
coedge $-1 $317 $152 $314 $318 forward $144 $-1 #
coedge $-1 $152 $319 $154 $240 reversed $144 $-1 #
vertex $-1 $318 $320 #
straight-curve $-1 60.122684408093505 -16.47239656929025 8.4235554072582115 0 -0.83867056331134215 -0.54463904215088732 I I #
coedge $-1 $321 $154 $322 $323 forward $87 $-1 #
edge $-1 $156 -18.826826269685132 $324 18.826826269685114 $236 $325 forward 7 unknown #
point $-1 36.470306233986321 -18.826826269685132 6.8945708536908645 #
point $-1 60.122684408093505 -18.826826269685132 6.8945708536908645 #
face $-1 $326 $327 $19 $-1 $328 reversed single #
loop $-1 $-1 $329 $158 #
plane-surface $-1 0 0 6.8945708536908645 0 0 1 1 0 0 forward_v I I I I #
coedge $-1 $330 $331 $329 $332 reversed $159 $-1 #
coedge $-1 $333 $334 $335 $336 reversed $161 $-1 #
edge $-1 $337 1 $337 0 $162 $-1 forward 7 unknown #
vertex $-1 $163 $338 #
ellipse-curve $-1 48.296495321039913 -20.393054810291439 3.4127401758095464 0 -0.54463904215088732 0.83867056331134215 1 0 0 1 I I #
point $-1 49.296495321039913 -21.518867109341208 5.1463390586552098 #
plane-surface $-1 60.122684408093505 0 0 -1 0 0 0 0 1 forward_v I I I I #
coedge $-1 $171 $169 $173 $257 reversed $103 $-1 #
edge $-1 $184 -6.8945708536908645 $259 6.8945708536908645 $183 $339 forward 7 unknown #
vertex $-1 $257 $340 #
straight-curve $-1 -60.122684408093505 -24.210907948997281 0 0 0 -1 I I #
edge $-1 $255 -24.210907948997281 $259 24.210907948997281 $253 $341 forward 7 unknown #
straight-curve $-1 0 -24.210907948997281 -6.8945708536908645 -1 0 0 I I #
vertex $-1 $176 $342 #
straight-curve $-1 0 24.210907948997281 -6.8945708536908645 1 0 0 I I #
point $-1 60.122684408093505 24.210907948997281 -6.8945708536908645 #
point $-1 60.122684408093505 -24.210907948997281 -6.8945708536908645 #
straight-curve $-1 -60.122684408093505 0 6.8945708536908645 0 -1 0 I I #
point $-1 -60.122684408093505 24.210907948997281 6.8945708536908645 #
point $-1 -60.122684408093505 -24.210907948997281 6.8945708536908645 #
straight-curve $-1 60.122684408093505 -24.210907948997281 0 0 0 -1 I I #
straight-curve $-1 60.122684408093505 24.210907948997281 0 0 0 -1 I I #
face $-1 $343 $344 $16 $-1 $345 reversed single #
loop $-1 $-1 $346 $193 #
plane-surface $-1 0 -24.210907948997281 0 0 1 0 0 0 1 forward_v I I I I #
coedge $-1 $347 $348 $349 $350 forward $194 $-1 #
coedge $-1 $196 $207 $351 $352 forward $71 $-1 #
coedge $-1 $353 $198 $196 $274 reversed $277 $-1 #
edge $-1 $354 -24.210907948997281 $200 18.826826269685114 $273 $355 forward 7 unknown #
edge $-1 $202 12.322058573466364 $278 35.974436747573549 $204 $356 forward 7 unknown #
coedge $-1 $198 $349 $282 $357 reversed $277 $-1 #
loop $-1 $-1 $198 $343 #
vertex $-1 $357 $358 #
straight-curve $-1 60.122684408093505 -3.8325792385743549 21.609761122203391 0 -0.83867056331134215 0.54463904215088732 I I #
point $-1 60.122684408093505 18.826826269685114 6.8945708536908654 #
point $-1 36.470306233986321 24.210907948997281 3.39810726361954 #
coedge $-1 $359 $204 $276 $357 forward $122 $-1 #
coedge $-1 $205 $359 $360 $361 reversed $122 $-1 #
coedge $-1 $360 $362 $207 $285 reversed $344 $-1 #
edge $-1 $286 -24.210907948997281 $363 24.210907948997281 $284 $364 forward 7 unknown #
vertex $-1 $208 $365 #
straight-curve $-1 0 24.210907948997281 6.8945708536908645 -1 0 0 I I #
face $-1 $366 $367 $17 $-1 $368 reversed single #
loop $-1 $-1 $295 $211 #
plane-surface $-1 0 24.210907948997281 0 0 -1 0 0 0 -1 forward_v I I I I #
coedge $-1 $217 $369 $292 $370 forward $212 $-1 #
coedge $-1 $371 $293 $291 $370 reversed $214 $-1 #
coedge $-1 $292 $372 $215 $294 reversed $214 $-1 #
edge $-1 $298 42.002034502479667 $373 48.421815897994577 $215 $374 forward 7 unknown #
coedge $-1 $375 $376 $216 $296 forward $289 $-1 #
edge $-1 $299 58.413814093389917 $373 61.910277683461246 $295 $377 forward 7 unknown #
coedge $-1 $378 $217 $376 $379 forward $212 $-1 #
vertex $-1 $370 $380 #
vertex $-1 $379 $381 #
straight-curve $-1 36.470306233986321 24.545639414198167 6.8945708536908654 0 1 0 I I #
vertex $-1 $219 $382 #
point $-1 49.296495321039913 20.393054810291439 3.4127401758095481 #
face $-1 $383 $384 $18 $-1 $385 forward single #
loop $-1 $386 $387 $223 #
cone-surface $-1 48.296495321039913 20.120735289215993 2.9934048941538771 0 -0.54463904215088732 -0.83867056331134215 0.5 0 0 1 I I -0.70710678118654746 0.70710678118654746 0.5 forward I I I I #
loop $-1 $-1 $388 $143 #
coedge $-1 $307 $307 $389 $390 reversed $224 $-1 #
coedge $-1 $226 $391 $392 $393 forward $87 $-1 #
coedge $-1 $394 $227 $226 $310 reversed $311 $-1 #
edge $-1 $395 -60.122684408093505 $229 36.470306233986321 $309 $396 forward 7 unknown #
loop $-1 $-1 $227 $397 #
straight-curve $-1 36.470306233986321 -24.210907948997281 52.122179232135601 0 0 1 I I #
point $-1 36.470306233986321 -24.210907948997281 6.8945708536908645 #
coedge $-1 $231 $398 $235 $318 reversed $311 $-1 #
straight-curve $-1 24.148247660519957 -24.210907948997281 3.3981072636195466 -1 0 0 I I #
point $-1 36.470306233986321 -24.210907948997281 3.3981072636195462 #
coedge $-1 $399 $235 $400 $401 reversed $144 $-1 #
edge $-1 $237 -3.3981072636195462 $402 6.8945708536908645 $235 $403 forward 7 unknown #
coedge $-1 $236 $399 $404 $405 forward $144 $-1 #
point $-1 60.122684408093505 -24.210907948997281 3.3981072636195462 #
coedge $-1 $391 $239 $406 $407 forward $87 $-1 #
coedge $-1 $404 $408 $239 $323 reversed $409 $-1 #
edge $-1 $324 -35.974436747573549 $410 -12.322058573466364 $239 $411 forward 7 unknown #
vertex $-1 $405 $412 #
straight-curve $-1 60.122684408093505 0 6.8945708536908645 0 1 0 I I #
face $-1 $413 $414 $19 $-1 $415 reversed single #
loop $-1 $-1 $416 $243 #
plane-surface $-1 60.122684408093505 0 0 -1 0 0 0 0 1 forward_v I I I I #
coedge $-1 $335 $417 $246 $332 forward $244 $-1 #
coedge $-1 $331 $246 $418 $419 reversed $159 $-1 #
coedge $-1 $246 $330 $333 $420 forward $159 $-1 #
edge $-1 $421 20.63970727306549 $422 26.02378895237764 $329 $423 forward 7 unknown #
coedge $-1 $424 $247 $331 $420 reversed $161 $-1 #
coedge $-1 $247 $424 $416 $425 reversed $161 $-1 #
coedge $-1 $426 $329 $247 $336 forward $244 $-1 #
edge $-1 $422 12.322058573466364 $427 35.974436747573549 $335 $428 forward 7 unknown #
vertex $-1 $248 $429 #
point $-1 49.296495321039913 -20.393054810291439 3.4127401758095464 #
straight-curve $-1 -60.122684408093505 24.210907948997281 0 0 0 -1 I I #
point $-1 -60.122684408093505 -24.210907948997281 -6.8945708536908645 #
straight-curve $-1 -60.122684408093505 0 -6.8945708536908645 0 1 0 I I #
point $-1 -60.122684408093505 24.210907948997281 -6.8945708536908645 #
face $-1 $-1 $277 $16 $-1 $430 reversed single #
loop $-1 $-1 $360 $268 #
plane-surface $-1 -60.122684408093505 0 0 1 0 0 0 0 -1 forward_v I I I I #
coedge $-1 $431 $351 $362 $432 forward $269 $-1 #
coedge $-1 $433 $271 $431 $434 forward $194 $-1 #
coedge $-1 $271 $433 $359 $435 forward $194 $-1 #
coedge $-1 $276 $353 $271 $350 reversed $277 $-1 #
edge $-1 $436 -24.210907948997281 $437 24.210907948997281 $349 $438 forward 7 unknown #
coedge $-1 $346 $439 $272 $352 reversed $269 $-1 #
edge $-1 $363 -60.122684408093505 $354 60.122684408093505 $351 $440 forward 7 unknown #
coedge $-1 $349 $273 $439 $441 forward $277 $-1 #
vertex $-1 $274 $442 #
straight-curve $-1 60.122684408093505 0 6.8945708536908645 0 1 0 I I #
straight-curve $-1 24.148247660519957 24.210907948997278 3.39810726361954 1 0 0 I I #
edge $-1 $278 -3.39810726361954 $436 6.8945708536908645 $276 $443 forward 7 unknown #
point $-1 60.122684408093505 24.210907948997281 3.39810726361954 #
coedge $-1 $283 $282 $348 $435 reversed $122 $-1 #
coedge $-1 $444 $284 $283 $361 forward $344 $-1 #
edge $-1 $286 -6.8945708536908645 $445 6.8945708536908645 $283 $446 forward 7 unknown #
coedge $-1 $284 $444 $346 $432 reversed $344 $-1 #
vertex $-1 $285 $447 #
straight-curve $-1 -60.122684408093505 0 6.8945708536908645 0 -1 0 I I #
point $-1 -60.122684408093505 24.210907948997281 6.8945708536908645 #
face $-1 $448 $449 $17 $-1 $450 reversed single #
loop $-1 $-1 $451 $288 #
plane-surface $-1 0 0 -6.8945708536908645 0 0 1 1 0 0 forward_v I I I I #
coedge $-1 $291 $452 $453 $454 forward $212 $-1 #
edge $-1 $455 -35.974436747573549 $298 -12.322058573466364 $291 $456 forward 7 unknown #
coedge $-1 $372 $292 $457 $458 reversed $214 $-1 #
coedge $-1 $293 $371 $375 $459 reversed $214 $-1 #
vertex $-1 $459 $460 #
straight-curve $-1 36.470306233986321 -16.399043666731934 29.770518693509914 0 0.83867056331134215 -0.54463904215088732 I I #
coedge $-1 $461 $295 $372 $459 forward $289 $-1 #
coedge $-1 $295 $462 $297 $379 reversed $289 $-1 #
straight-curve $-1 36.470306233986321 24.210907948997281 65.308384947080782 0 0 -1 I I #
coedge $-1 $452 $297 $463 $464 forward $212 $-1 #
edge $-1 $299 -36.470306233986321 $465 60.122684408093505 $376 $466 forward 7 unknown #
point $-1 36.470306233986321 18.826826269685114 6.8945708536908654 #
point $-1 36.470306233986321 24.210907948997281 6.8945708536908645 #
point $-1 48.296495321039913 19.848415768140548 2.5740696124982061 #
face $-1 $467 $468 $18 $-1 $469 forward single #
loop $-1 $-1 $406 $303 #
plane-surface $-1 36.470306233986321 49.091278828396334 130.61676989416156 1 0 0 0 -0.54463904215088732 -0.83867056331134215 forward_v I I I I #
loop $-1 $-1 $470 $223 #
coedge $-1 $387 $387 $388 $471 forward $304 $-1 #
coedge $-1 $388 $388 $387 $471 reversed $306 $-1 #
coedge $-1 $389 $389 $307 $390 forward $468 $-1 #
edge $-1 $472 8.1320024813685592e-016 $472 6.2831853071796013 $389 $473 forward 7 unknown #
coedge $-1 $308 $321 $474 $475 forward $87 $-1 #
coedge $-1 $476 $477 $308 $393 reversed $478 $-1 #
edge $-1 $479 -24.210907948997281 $395 24.210907948997281 $392 $480 forward 7 unknown #
coedge $-1 $398 $309 $477 $481 forward $311 $-1 #
vertex $-1 $393 $482 #
straight-curve $-1 0 -24.210907948997281 6.8945708536908645 1 0 0 I I #
face $-1 $483 $311 $18 $-1 $484 reversed single #
coedge $-1 $314 $394 $485 $486 reversed $311 $-1 #
coedge $-1 $319 $317 $487 $488 reversed $144 $-1 #
coedge $-1 $485 $489 $317 $401 forward $490 $-1 #
edge $-1 $491 -24.210907948997281 $402 24.210907948997281 $317 $492 forward 7 unknown #
vertex $-1 $318 $493 #
straight-curve $-1 60.122684408093505 -24.210907948997281 0 0 0 -1 I I #
coedge $-1 $494 $322 $319 $405 reversed $409 $-1 #
edge $-1 $495 -33.438024910337731 $324 -27.018243514822817 $319 $496 forward 7 unknown #
coedge $-1 $497 $498 $321 $407 reversed $384 $-1 #
edge $-1 $410 -5.718813144513053 $499 -0.33473146520088548 $321 $500 forward 7 unknown #
coedge $-1 $322 $494 $497 $501 reversed $409 $-1 #
loop $-1 $-1 $322 $383 #
vertex $-1 $323 $502 #
straight-curve $-1 24.148247660519957 18.826826269685121 6.8945708536908654 -1 0 0 I I #
point $-1 60.122684408093505 18.826826269685114 6.8945708536908654 #
face $-1 $503 $504 $19 $-1 $505 reversed single #
loop $-1 $506 $507 $326 #
cone-surface $-1 48.296495321039913 20.955960959816323 4.2795396172323805 0 -0.54463904215088732 -0.83867056331134215 1 0 0 1 I I 0 1 1 forward I I I I #
coedge $-1 $508 $509 $334 $425 forward $327 $-1 #
coedge $-1 $329 $510 $511 $512 forward $244 $-1 #
coedge $-1 $511 $513 $330 $419 forward $514 $-1 #
edge $-1 $515 -48.724071968516057 $421 -45.227608378444735 $418 $516 forward 7 unknown #
edge $-1 $515 -8.3777959833898778e-015 $422 6.4197813955148852 $331 $517 forward 7 unknown #
vertex $-1 $419 $518 #
vertex $-1 $336 $519 #
straight-curve $-1 36.470306233986321 -44.850615222062771 6.8945708536908654 0 1 0 I I #
coedge $-1 $334 $333 $513 $520 reversed $161 $-1 #
edge $-1 $427 2.8073355658255519 $521 9.2271169613404442 $416 $522 forward 7 unknown #
coedge $-1 $523 $335 $509 $524 forward $244 $-1 #
vertex $-1 $524 $525 #
straight-curve $-1 24.148247660519957 -18.826826269685135 6.8945708536908636 1 0 0 I I #
point $-1 48.296495321039913 -19.848415768140548 2.5740696124982043 #
plane-surface $-1 60.122684408093505 0 0 -1 0 0 0 0 1 forward_v I I I I #
coedge $-1 $439 $346 $347 $434 reversed $269 $-1 #
edge $-1 $363 -6.8945708536908645 $526 6.8945708536908645 $362 $527 forward 7 unknown #
coedge $-1 $348 $347 $444 $528 forward $194 $-1 #
edge $-1 $437 -60.122684408093505 $526 60.122684408093505 $431 $529 forward 7 unknown #
edge $-1 $445 -60.122684408093505 $436 60.122684408093505 $359 $530 forward 7 unknown #
vertex $-1 $350 $531 #
vertex $-1 $441 $532 #
straight-curve $-1 60.122684408093505 0 -6.8945708536908645 0 -1 0 I I #
coedge $-1 $351 $431 $353 $441 reversed $269 $-1 #
straight-curve $-1 0 -24.210907948997281 6.8945708536908645 1 0 0 I I #
edge $-1 $354 -6.8945708536908645 $437 6.8945708536908645 $353 $533 forward 7 unknown #
point $-1 60.122684408093505 -24.210907948997281 6.8945708536908645 #
straight-curve $-1 60.122684408093505 24.210907948997281 0 0 0 -1 I I #
coedge $-1 $362 $360 $433 $528 reversed $344 $-1 #
vertex $-1 $435 $534 #
straight-curve $-1 -60.122684408093505 24.210907948997281 0 0 0 -1 I I #
point $-1 -60.122684408093505 -24.210907948997281 6.8945708536908645 #
face $-1 $535 $536 $17 $-1 $537 reversed single #
loop $-1 $-1 $538 $366 #
plane-surface $-1 0 -24.210907948997281 0 0 1 0 0 0 1 forward_v I I I I #
coedge $-1 $539 $540 $541 $542 forward $367 $-1 #
coedge $-1 $369 $378 $543 $544 forward $212 $-1 #
coedge $-1 $545 $457 $369 $454 reversed $546 $-1 #
edge $-1 $547 -24.210907948997281 $455 18.826826269685114 $453 $548 forward 7 unknown #
vertex $-1 $458 $549 #
straight-curve $-1 24.148247660519957 18.826826269685121 6.8945708536908654 -1 0 0 I I #
coedge $-1 $453 $550 $371 $458 forward $546 $-1 #
edge $-1 $551 -33.438024910337731 $455 -27.018243514822817 $457 $552 forward 7 unknown #
edge $-1 $373 12.322058573466364 $551 35.974436747573549 $375 $553 forward 7 unknown #
point $-1 36.470306233986321 24.210907948997281 3.39810726361954 #
coedge $-1 $554 $375 $550 $555 forward $289 $-1 #
coedge $-1 $376 $554 $556 $557 reversed $289 $-1 #
coedge $-1 $556 $558 $378 $464 reversed $536 $-1 #
edge $-1 $465 -24.210907948997281 $559 24.210907948997281 $463 $560 forward 7 unknown #
vertex $-1 $379 $561 #
straight-curve $-1 0 24.210907948997281 6.8945708536908645 -1 0 0 I I #
face $-1 $562 $563 $18 $-1 $564 reversed single #
loop $-1 $409 $389 $383 #
plane-surface $-1 48.296495321039913 -16.399043666731934 29.770518693509914 0 0.54463904215088732 0.83867056331134215 1 0 0 forward_v I I I I #
coedge $-1 $470 $470 $-1 $565 forward $386 $-1 #
edge $-1 $566 0 $566 6.2831853071796004 $387 $567 forward 7 unknown #
vertex $-1 $390 $568 #
ellipse-curve $-1 48.296495321039913 21.518867109341201 5.1463390586551991 0 -0.54463904215088732 -0.83867056331134215 1 0 0 1 I I #
coedge $-1 $569 $570 $391 $475 reversed $563 $-1 #
edge $-1 $499 -36.470306233986321 $479 60.122684408093505 $474 $571 forward 7 unknown #
coedge $-1 $572 $392 $570 $573 forward $478 $-1 #
coedge $-1 $392 $572 $394 $481 reversed $478 $-1 #
loop $-1 $-1 $476 $483 #
vertex $-1 $475 $574 #
straight-curve $-1 -60.122684408093505 0 6.8945708536908645 0 -1 0 I I #
edge $-1 $395 -6.8945708536908645 $575 6.8945708536908645 $477 $576 forward 7 unknown #
point $-1 -60.122684408093505 -24.210907948997281 6.8945708536908645 #
face $-1 $-1 $478 $18 $-1 $577 reversed single #
plane-surface $-1 0 -24.210907948997281 0 0 1 0 0 0 1 forward_v I I I I #
coedge $-1 $578 $400 $398 $486 forward $490 $-1 #
edge $-1 $402 -60.122684408093505 $575 60.122684408093505 $398 $579 forward 7 unknown #
coedge $-1 $580 $581 $399 $488 forward $563 $-1 #
edge $-1 $495 -3.39810726361954 $491 6.8945708536908645 $399 $582 forward 7 unknown #
coedge $-1 $400 $578 $580 $583 forward $490 $-1 #
loop $-1 $-1 $400 $562 #
vertex $-1 $401 $584 #
straight-curve $-1 60.122684408093505 0 -6.8945708536908645 0 -1 0 I I #
point $-1 60.122684408093505 -24.210907948997281 -6.8945708536908645 #
coedge $-1 $408 $404 $581 $585 reversed $409 $-1 #
vertex $-1 $488 $586 #
straight-curve $-1 60.122684408093505 -3.8325792385743549 21.609761122203391 0 -0.83867056331134215 0.54463904215088732 I I #
coedge $-1 $498 $406 $408 $501 forward $384 $-1 #
coedge $-1 $406 $497 $569 $587 reversed $384 $-1 #
vertex $-1 $475 $588 #
straight-curve $-1 36.470306233986321 24.545639414198167 6.8945708536908654 0 1 0 I I #
edge $-1 $410 42.002034502479667 $589 48.421815897994577 $497 $590 forward 7 unknown #
point $-1 36.470306233986321 18.826826269685114 6.8945708536908654 #
face $-1 $591 $592 $19 $-1 $593 forward single #
loop $-1 $594 $595 $413 #
cone-surface $-1 48.296495321039913 20.120735289215993 2.9934048941538771 0 -0.54463904215088732 -0.83867056331134215 0.5 0 0 1 I I -0.70710678118654746 0.70710678118654746 0.5 forward I I I I #
loop $-1 $-1 $596 $326 #
coedge $-1 $507 $507 $597 $598 reversed $414 $-1 #
coedge $-1 $599 $416 $600 $601 forward $327 $-1 #
coedge $-1 $416 $602 $426 $524 reversed $327 $-1 #
coedge $-1 $417 $603 $604 $605 forward $244 $-1 #
coedge $-1 $606 $418 $417 $512 reversed $514 $-1 #
edge $-1 $607 -60.122684408093505 $421 36.470306233986321 $511 $608 forward 7 unknown #
coedge $-1 $418 $600 $424 $520 forward $514 $-1 #
loop $-1 $-1 $418 $609 #
vertex $-1 $520 $610 #
straight-curve $-1 36.470306233986321 -24.210907948997281 52.122179232135601 0 0 1 I I #
straight-curve $-1 36.470306233986321 -24.210907948997274 3.3981072636195506 0 0.83867056331134215 0.54463904215088732 I I #
point $-1 36.470306233986321 -24.210907948997281 6.8945708536908645 #
point $-1 36.470306233986321 -18.826826269685132 6.8945708536908645 #
edge $-1 $521 -35.974436747573549 $515 -12.322058573466364 $513 $611 forward 7 unknown #
vertex $-1 $601 $612 #
straight-curve $-1 60.122684408093505 -16.47239656929025 8.4235554072582115 0 -0.83867056331134215 -0.54463904215088732 I I #
coedge $-1 $613 $426 $614 $615 forward $244 $-1 #
edge $-1 $427 -18.826826269685132 $616 18.826826269685114 $509 $617 forward 7 unknown #
point $-1 60.122684408093505 -18.826826269685132 6.8945708536908645 #
vertex $-1 $528 $618 #
straight-curve $-1 -60.122684408093505 -24.210907948997281 0 0 0 -1 I I #
edge $-1 $526 -24.210907948997281 $445 24.210907948997281 $444 $619 forward 7 unknown #
straight-curve $-1 0 -24.210907948997281 -6.8945708536908645 -1 0 0 I I #
straight-curve $-1 0 24.210907948997281 -6.8945708536908645 1 0 0 I I #
point $-1 60.122684408093505 24.210907948997281 -6.8945708536908645 #
point $-1 60.122684408093505 -24.210907948997281 -6.8945708536908645 #
straight-curve $-1 60.122684408093505 -24.210907948997281 0 0 0 -1 I I #
point $-1 -60.122684408093505 24.210907948997281 -6.8945708536908645 #
face $-1 $-1 $546 $17 $-1 $620 reversed single #
loop $-1 $-1 $556 $448 #
plane-surface $-1 -60.122684408093505 0 0 1 0 0 0 0 -1 forward_v I I I I #
coedge $-1 $621 $543 $558 $622 forward $449 $-1 #
coedge $-1 $623 $451 $621 $624 forward $367 $-1 #
coedge $-1 $451 $623 $554 $625 forward $367 $-1 #
coedge $-1 $550 $545 $451 $542 reversed $546 $-1 #
edge $-1 $626 -24.210907948997281 $627 24.210907948997281 $541 $628 forward 7 unknown #
coedge $-1 $538 $629 $452 $544 reversed $449 $-1 #
edge $-1 $559 -60.122684408093505 $547 60.122684408093505 $543 $630 forward 7 unknown #
coedge $-1 $541 $453 $629 $631 forward $546 $-1 #
loop $-1 $-1 $457 $535 #
vertex $-1 $454 $632 #
straight-curve $-1 60.122684408093505 0 6.8945708536908645 0 1 0 I I #
point $-1 60.122684408093505 18.826826269685114 6.8945708536908654 #
coedge $-1 $457 $541 $461 $555 reversed $546 $-1 #
vertex $-1 $555 $633 #
straight-curve $-1 60.122684408093505 -3.8325792385743549 21.609761122203391 0 -0.83867056331134215 0.54463904215088732 I I #
straight-curve $-1 24.148247660519957 24.210907948997278 3.39810726361954 1 0 0 I I #
coedge $-1 $462 $461 $540 $625 reversed $289 $-1 #
edge $-1 $551 -3.39810726361954 $626 6.8945708536908645 $550 $634 forward 7 unknown #
coedge $-1 $635 $463 $462 $557 forward $536 $-1 #
edge $-1 $465 -6.8945708536908645 $636 6.8945708536908645 $462 $637 forward 7 unknown #
coedge $-1 $463 $635 $538 $622 reversed $536 $-1 #
vertex $-1 $464 $638 #
straight-curve $-1 -60.122684408093505 0 6.8945708536908645 0 -1 0 I I #
point $-1 -60.122684408093505 24.210907948997281 6.8945708536908645 #
face $-1 $397 $490 $18 $-1 $639 reversed single #
loop $-1 $-1 $569 $467 #
plane-surface $-1 0 24.210907948997281 0 0 -1 0 0 0 -1 forward_v I I I I #
edge $-1 $640 1 $640 0 $470 $-1 forward 7 unknown #
vertex $-1 $471 $641 #
ellipse-curve $-1 48.296495321039913 20.393054810291439 3.4127401758095481 0 0.54463904215088732 0.83867056331134215 1 0 0 1 I I #
point $-1 49.296495321039913 21.518867109341208 5.1463390586552116 #
coedge $-1 $581 $474 $498 $587 forward $563 $-1 #
coedge $-1 $474 $580 $476 $573 reversed $563 $-1 #
straight-curve $-1 0 24.210907948997281 6.8945708536908645 -1 0 0 I I #
coedge $-1 $477 $476 $578 $642 reversed $478 $-1 #
edge $-1 $479 -6.8945708536908645 $643 6.8945708536908645 $570 $644 forward 7 unknown #
point $-1 -60.122684408093505 24.210907948997281 6.8945708536908645 #
vertex $-1 $642 $645 #
straight-curve $-1 -60.122684408093505 -24.210907948997281 0 0 0 -1 I I #
plane-surface $-1 -60.122684408093505 0 0 1 0 0 0 0 -1 forward_v I I I I #
coedge $-1 $489 $485 $572 $642 forward $490 $-1 #
straight-curve $-1 0 -24.210907948997281 -6.8945708536908645 -1 0 0 I I #
coedge $-1 $570 $487 $489 $583 reversed $563 $-1 #
coedge $-1 $487 $569 $494 $585 forward $563 $-1 #
straight-curve $-1 60.122684408093505 24.210907948997281 0 0 0 -1 I I #
edge $-1 $643 -60.122684408093505 $491 60.122684408093505 $580 $646 forward 7 unknown #
point $-1 60.122684408093505 24.210907948997281 -6.8945708536908645 #
edge $-1 $589 12.322058573466364 $495 35.974436747573549 $581 $647 forward 7 unknown #
point $-1 60.122684408093505 24.210907948997281 3.39810726361954 #
edge $-1 $499 58.413814093389917 $589 61.910277683461246 $569 $648 forward 7 unknown #
point $-1 36.470306233986321 24.210907948997281 6.8945708536908645 #
vertex $-1 $585 $649 #
straight-curve $-1 36.470306233986321 -16.399043666731934 29.770518693509914 0 0.83867056331134215 -0.54463904215088732 I I #
face $-1 $650 $651 $19 $-1 $652 forward single #
loop $-1 $-1 $653 $503 #
plane-surface $-1 36.470306233986321 49.091278828396334 130.61676989416156 1 0 0 0 -0.54463904215088732 -0.83867056331134215 forward_v I I I I #
loop $-1 $-1 $654 $413 #
coedge $-1 $595 $595 $596 $655 forward $504 $-1 #
coedge $-1 $596 $596 $595 $655 reversed $506 $-1 #
coedge $-1 $597 $597 $507 $598 forward $651 $-1 #
edge $-1 $656 8.1320024813685592e-016 $656 6.2831853071796013 $597 $657 forward 7 unknown #
coedge $-1 $658 $508 $659 $660 reversed $327 $-1 #
coedge $-1 $513 $661 $508 $601 reversed $514 $-1 #
edge $-1 $521 -3.3981072636195462 $662 6.8945708536908645 $508 $663 forward 7 unknown #
coedge $-1 $509 $658 $664 $665 forward $327 $-1 #
coedge $-1 $510 $613 $666 $667 forward $244 $-1 #
coedge $-1 $668 $669 $510 $605 reversed $670 $-1 #
edge $-1 $671 -24.210907948997281 $607 24.210907948997281 $604 $672 forward 7 unknown #
coedge $-1 $661 $511 $669 $673 forward $514 $-1 #
vertex $-1 $605 $674 #
straight-curve $-1 0 -24.210907948997281 6.8945708536908645 1 0 0 I I #
face $-1 $675 $514 $19 $-1 $676 reversed single #
point $-1 36.470306233986321 -24.210907948997281 3.3981072636195462 #
straight-curve $-1 24.148247660519957 -24.210907948997281 3.3981072636195466 -1 0 0 I I #
point $-1 60.122684408093505 -24.210907948997281 3.3981072636195462 #
coedge $-1 $603 $523 $653 $677 forward $244 $-1 #
coedge $-1 $664 $678 $523 $615 reversed $679 $-1 #
edge $-1 $616 -35.974436747573549 $680 -12.322058573466364 $523 $681 forward 7 unknown #
vertex $-1 $665 $682 #
straight-curve $-1 60.122684408093505 0 6.8945708536908645 0 1 0 I I #
point $-1 -60.122684408093505 -24.210907948997281 -6.8945708536908645 #
straight-curve $-1 -60.122684408093505 0 -6.8945708536908645 0 1 0 I I #
plane-surface $-1 60.122684408093505 0 0 -1 0 0 0 0 1 forward_v I I I I #
coedge $-1 $629 $538 $539 $624 reversed $449 $-1 #
edge $-1 $559 -6.8945708536908645 $683 6.8945708536908645 $558 $684 forward 7 unknown #
coedge $-1 $540 $539 $635 $685 forward $367 $-1 #
edge $-1 $627 -60.122684408093505 $683 60.122684408093505 $621 $686 forward 7 unknown #
edge $-1 $636 -60.122684408093505 $626 60.122684408093505 $554 $687 forward 7 unknown #
vertex $-1 $542 $688 #
vertex $-1 $631 $689 #
straight-curve $-1 60.122684408093505 0 -6.8945708536908645 0 -1 0 I I #
coedge $-1 $543 $621 $545 $631 reversed $449 $-1 #
straight-curve $-1 0 -24.210907948997281 6.8945708536908645 1 0 0 I I #
edge $-1 $547 -6.8945708536908645 $627 6.8945708536908645 $545 $690 forward 7 unknown #
point $-1 60.122684408093505 -24.210907948997281 6.8945708536908645 #
point $-1 60.122684408093505 24.210907948997281 3.39810726361954 #
straight-curve $-1 60.122684408093505 24.210907948997281 0 0 0 -1 I I #
coedge $-1 $558 $556 $623 $685 reversed $536 $-1 #
vertex $-1 $625 $691 #
straight-curve $-1 -60.122684408093505 24.210907948997281 0 0 0 -1 I I #
point $-1 -60.122684408093505 -24.210907948997281 6.8945708536908645 #
plane-surface $-1 0 0 -6.8945708536908645 0 0 1 1 0 0 forward_v I I I I #
vertex $-1 $565 $692 #
point $-1 49.296495321039913 20.393054810291439 3.4127401758095481 #
edge $-1 $575 -24.210907948997281 $643 24.210907948997281 $572 $693 forward 7 unknown #
vertex $-1 $583 $694 #
straight-curve $-1 -60.122684408093505 24.210907948997281 0 0 0 -1 I I #
point $-1 -60.122684408093505 -24.210907948997281 -6.8945708536908645 #
straight-curve $-1 0 24.210907948997281 -6.8945708536908645 1 0 0 I I #
straight-curve $-1 24.148247660519957 24.210907948997278 3.39810726361954 1 0 0 I I #
straight-curve $-1 36.470306233986321 24.210907948997281 65.308384947080782 0 0 -1 I I #
point $-1 36.470306233986321 24.210907948997281 3.39810726361954 #
face $-1 $695 $696 $19 $-1 $697 reversed single #
loop $-1 $679 $597 $591 #
plane-surface $-1 48.296495321039913 -16.399043666731934 29.770518693509914 0 0.54463904215088732 0.83867056331134215 1 0 0 forward_v I I I I #
coedge $-1 $698 $699 $613 $677 reversed $592 $-1 #
coedge $-1 $654 $654 $-1 $700 forward $594 $-1 #
edge $-1 $701 0 $701 6.2831853071796004 $595 $702 forward 7 unknown #
vertex $-1 $598 $703 #
ellipse-curve $-1 48.296495321039913 21.518867109341201 5.1463390586551991 0 -0.54463904215088732 -0.83867056331134215 1 0 0 1 I I #
coedge $-1 $602 $599 $704 $705 reversed $327 $-1 #
coedge $-1 $706 $707 $599 $660 forward $708 $-1 #
edge $-1 $709 -24.210907948997281 $662 24.210907948997281 $599 $710 forward 7 unknown #
coedge $-1 $600 $606 $706 $711 reversed $514 $-1 #
vertex $-1 $601 $712 #
straight-curve $-1 60.122684408093505 -24.210907948997281 0 0 0 -1 I I #
coedge $-1 $713 $614 $602 $665 reversed $679 $-1 #
edge $-1 $714 -33.438024910337731 $616 -27.018243514822817 $602 $715 forward 7 unknown #
coedge $-1 $716 $717 $603 $667 reversed $696 $-1 #
edge $-1 $718 -36.470306233986321 $671 60.122684408093505 $666 $719 forward 7 unknown #
coedge $-1 $720 $604 $717 $721 forward $670 $-1 #
coedge $-1 $604 $720 $606 $673 reversed $670 $-1 #
loop $-1 $-1 $668 $675 #
vertex $-1 $667 $722 #
straight-curve $-1 -60.122684408093505 0 6.8945708536908645 0 -1 0 I I #
edge $-1 $607 -6.8945708536908645 $723 6.8945708536908645 $669 $724 forward 7 unknown #
point $-1 -60.122684408093505 -24.210907948997281 6.8945708536908645 #
face $-1 $-1 $670 $19 $-1 $725 reversed single #
plane-surface $-1 0 -24.210907948997281 0 0 1 0 0 0 1 forward_v I I I I #
edge $-1 $680 -5.718813144513053 $718 -0.33473146520088548 $613 $726 forward 7 unknown #
coedge $-1 $614 $713 $698 $727 reversed $679 $-1 #
loop $-1 $-1 $614 $591 #
vertex $-1 $615 $728 #
straight-curve $-1 24.148247660519957 18.826826269685121 6.8945708536908654 -1 0 0 I I #
point $-1 60.122684408093505 18.826826269685114 6.8945708536908654 #
vertex $-1 $685 $729 #
straight-curve $-1 -60.122684408093505 -24.210907948997281 0 0 0 -1 I I #
edge $-1 $683 -24.210907948997281 $636 24.210907948997281 $635 $730 forward 7 unknown #
straight-curve $-1 0 -24.210907948997281 -6.8945708536908645 -1 0 0 I I #
straight-curve $-1 0 24.210907948997281 -6.8945708536908645 1 0 0 I I #
point $-1 60.122684408093505 24.210907948997281 -6.8945708536908645 #
point $-1 60.122684408093505 -24.210907948997281 -6.8945708536908645 #
straight-curve $-1 60.122684408093505 -24.210907948997281 0 0 0 -1 I I #
point $-1 -60.122684408093505 24.210907948997281 -6.8945708536908645 #
point $-1 48.296495321039913 19.848415768140548 2.5740696124982061 #
straight-curve $-1 -60.122684408093505 0 -6.8945708536908645 0 1 0 I I #
point $-1 -60.122684408093505 24.210907948997281 -6.8945708536908645 #
face $-1 $609 $708 $19 $-1 $731 reversed single #
loop $-1 $-1 $716 $650 #
plane-surface $-1 0 24.210907948997281 0 0 -1 0 0 0 -1 forward_v I I I I #
coedge $-1 $699 $653 $678 $727 forward $592 $-1 #
coedge $-1 $653 $698 $716 $732 reversed $592 $-1 #
edge $-1 $733 1 $733 0 $654 $-1 forward 7 unknown #
vertex $-1 $655 $734 #
ellipse-curve $-1 48.296495321039913 20.393054810291439 3.4127401758095481 0 0.54463904215088732 0.83867056331134215 1 0 0 1 I I #
point $-1 49.296495321039913 21.518867109341208 5.1463390586552116 #
coedge $-1 $735 $736 $658 $705 forward $696 $-1 #
edge $-1 $714 -3.39810726361954 $709 6.8945708536908645 $658 $737 forward 7 unknown #
coedge $-1 $738 $659 $661 $711 forward $708 $-1 #
coedge $-1 $659 $738 $735 $739 forward $708 $-1 #
loop $-1 $-1 $659 $695 #
vertex $-1 $660 $740 #
straight-curve $-1 60.122684408093505 0 -6.8945708536908645 0 -1 0 I I #
edge $-1 $662 -60.122684408093505 $723 60.122684408093505 $661 $741 forward 7 unknown #
point $-1 60.122684408093505 -24.210907948997281 -6.8945708536908645 #
coedge $-1 $678 $664 $736 $742 reversed $679 $-1 #
vertex $-1 $705 $743 #
straight-curve $-1 60.122684408093505 -3.8325792385743549 21.609761122203391 0 -0.83867056331134215 0.54463904215088732 I I #
coedge $-1 $736 $666 $699 $732 forward $696 $-1 #
coedge $-1 $666 $735 $668 $721 reversed $696 $-1 #
vertex $-1 $667 $744 #
straight-curve $-1 0 24.210907948997281 6.8945708536908645 -1 0 0 I I #
coedge $-1 $669 $668 $738 $745 reversed $670 $-1 #
edge $-1 $671 -6.8945708536908645 $746 6.8945708536908645 $717 $747 forward 7 unknown #
point $-1 -60.122684408093505 24.210907948997281 6.8945708536908645 #
vertex $-1 $745 $748 #
straight-curve $-1 -60.122684408093505 -24.210907948997281 0 0 0 -1 I I #
plane-surface $-1 -60.122684408093505 0 0 1 0 0 0 0 -1 forward_v I I I I #
straight-curve $-1 36.470306233986321 24.545639414198167 6.8945708536908654 0 1 0 I I #
edge $-1 $680 42.002034502479667 $749 48.421815897994577 $698 $750 forward 7 unknown #
point $-1 36.470306233986321 18.826826269685114 6.8945708536908654 #
point $-1 -60.122684408093505 -24.210907948997281 -6.8945708536908645 #
straight-curve $-1 -60.122684408093505 0 -6.8945708536908645 0 1 0 I I #
plane-surface $-1 0 0 -6.8945708536908645 0 0 1 1 0 0 forward_v I I I I #
edge $-1 $718 58.413814093389917 $749 61.910277683461246 $716 $751 forward 7 unknown #
vertex $-1 $700 $752 #
point $-1 49.296495321039913 20.393054810291439 3.4127401758095481 #
coedge $-1 $717 $704 $707 $739 reversed $696 $-1 #
coedge $-1 $704 $716 $713 $742 forward $696 $-1 #
straight-curve $-1 60.122684408093505 24.210907948997281 0 0 0 -1 I I #
coedge $-1 $707 $706 $720 $745 forward $708 $-1 #
edge $-1 $746 -60.122684408093505 $709 60.122684408093505 $735 $753 forward 7 unknown #
point $-1 60.122684408093505 24.210907948997281 -6.8945708536908645 #
straight-curve $-1 0 -24.210907948997281 -6.8945708536908645 -1 0 0 I I #
edge $-1 $749 12.322058573466364 $714 35.974436747573549 $736 $754 forward 7 unknown #
point $-1 60.122684408093505 24.210907948997281 3.39810726361954 #
point $-1 36.470306233986321 24.210907948997281 6.8945708536908645 #
edge $-1 $723 -24.210907948997281 $746 24.210907948997281 $720 $755 forward 7 unknown #
vertex $-1 $739 $756 #
straight-curve $-1 -60.122684408093505 24.210907948997281 0 0 0 -1 I I #
point $-1 -60.122684408093505 -24.210907948997281 -6.8945708536908645 #
vertex $-1 $742 $757 #
straight-curve $-1 36.470306233986321 -16.399043666731934 29.770518693509914 0 0.83867056331134215 -0.54463904215088732 I I #
straight-curve $-1 36.470306233986321 24.210907948997281 65.308384947080782 0 0 -1 I I #
point $-1 48.296495321039913 19.848415768140548 2.5740696124982061 #
straight-curve $-1 0 24.210907948997281 -6.8945708536908645 1 0 0 I I #
straight-curve $-1 24.148247660519957 24.210907948997278 3.39810726361954 1 0 0 I I #
straight-curve $-1 -60.122684408093505 0 -6.8945708536908645 0 1 0 I I #
point $-1 -60.122684408093505 24.210907948997281 -6.8945708536908645 #
point $-1 36.470306233986321 24.210907948997281 3.39810726361954 #
End-of-ACIS-data 