500 0 15 0           
7 Unknown 11 ACIS 5.0 NT 24 Thu Mar 25 20:58:12 1999 
-1 9.9999999999999995e-007 1e-010 
body $-1 $15 $-1 $16 #
body $-1 $17 $-1 $18 #
body $-1 $19 $-1 $20 #
body $-1 $21 $-1 $22 #
body $-1 $23 $-1 $24 #
body $-1 $25 $-1 $26 #
body $-1 $27 $-1 $28 #
body $-1 $29 $-1 $30 #
body $-1 $31 $-1 $32 #
body $-1 $33 $-1 $34 #
body $-1 $35 $-1 $36 #
body $-1 $37 $-1 $38 #
body $-1 $39 $-1 $40 #
body $-1 $41 $-1 $42 #
body $-1 $43 $-1 $44 #
lump $-1 $-1 $45 $0 #
transform $-1 1 0 0 0 1 0 0 0 1 73.874324777977847 35.893313016992593 9.5220741008579211 1 rotate no_reflect no_shear #
lump $-1 $-1 $46 $1 #
transform $-1 1 0 0 0 1 0 0 0 1 73.874324777977847 35.893313016992593 9.5220741008579211 1 rotate no_reflect no_shear #
lump $-1 $-1 $47 $2 #
transform $-1 1 0 0 0 1 0 0 0 1 73.874324777977847 35.893313016992593 9.5220741008579211 1 rotate no_reflect no_shear #
lump $-1 $-1 $48 $3 #
transform $-1 1 0 0 0 1 0 0 0 1 73.874324777977847 35.893313016992593 9.5220741008579211 1 rotate no_reflect no_shear #
lump $-1 $-1 $49 $4 #
transform $-1 1 0 0 0 1 0 0 0 1 73.874324777977847 35.893313016992593 9.5220741008579211 1 rotate no_reflect no_shear #
lump $-1 $-1 $50 $5 #
transform $-1 1 0 0 0 1 0 0 0 1 73.874324777977847 35.893313016992593 9.5220741008579211 1 rotate no_reflect no_shear #
lump $-1 $-1 $51 $6 #
transform $-1 1 0 0 0 1 0 0 0 1 73.874324777977847 35.893313016992593 9.5220741008579211 1 rotate no_reflect no_shear #
lump $-1 $-1 $52 $7 #
transform $-1 1 0 0 0 1 0 0 0 1 73.874324777977847 35.893313016992593 9.5220741008579211 1 rotate no_reflect no_shear #
lump $-1 $-1 $53 $8 #
transform $-1 1 0 0 0 1 0 0 0 1 73.874324777977847 35.893313016992593 9.5220741008579211 1 rotate no_reflect no_shear #
lump $-1 $-1 $54 $9 #
transform $-1 1 0 0 0 1 0 0 0 1 73.874324777977847 35.893313016992593 9.5220741008579211 1 rotate no_reflect no_shear #
lump $-1 $-1 $55 $10 #
transform $-1 1 0 0 0 1 0 0 0 1 73.874324777977847 35.893313016992593 9.5220741008579211 1 rotate no_reflect no_shear #
lump $-1 $-1 $56 $11 #
transform $-1 1 0 0 0 1 0 0 0 1 73.874324777977847 35.893313016992593 9.5220741008579211 1 rotate no_reflect no_shear #
lump $-1 $-1 $57 $12 #
transform $-1 1 0 0 0 1 0 0 0 1 73.874324777977847 35.893313016992593 9.5220741008579211 1 rotate no_reflect no_shear #
lump $-1 $-1 $58 $13 #
transform $-1 1 0 0 0 1 0 0 0 1 73.874324777977847 35.893313016992593 9.5220741008579211 1 rotate no_reflect no_shear #
lump $-1 $-1 $59 $14 #
transform $-1 1 0 0 0 1 0 0 0 1 73.874324777977847 35.893313016992593 9.5220741008579211 1 rotate no_reflect no_shear #
shell $-1 $-1 $-1 $60 $-1 $15 #
shell $-1 $-1 $-1 $61 $-1 $17 #
shell $-1 $-1 $-1 $62 $-1 $19 #
shell $-1 $-1 $-1 $63 $-1 $21 #
shell $-1 $-1 $-1 $64 $-1 $23 #
shell $-1 $-1 $-1 $65 $-1 $25 #
shell $-1 $-1 $-1 $66 $-1 $27 #
shell $-1 $-1 $-1 $67 $-1 $29 #
shell $-1 $-1 $-1 $68 $-1 $31 #
shell $-1 $-1 $-1 $69 $-1 $33 #
shell $-1 $-1 $-1 $70 $-1 $35 #
shell $-1 $-1 $-1 $71 $-1 $37 #
shell $-1 $-1 $-1 $72 $-1 $39 #
shell $-1 $-1 $-1 $73 $-1 $41 #
shell $-1 $-1 $-1 $74 $-1 $43 #
face $-1 $75 $76 $45 $-1 $77 forward single #
face $-1 $78 $79 $46 $-1 $80 forward single #
face $-1 $81 $82 $47 $-1 $83 forward single #
face $-1 $84 $85 $48 $-1 $86 reversed single #
face $-1 $87 $88 $49 $-1 $89 forward single #
face $-1 $90 $91 $50 $-1 $92 forward single #
face $-1 $93 $94 $51 $-1 $95 reversed single #
face $-1 $96 $97 $52 $-1 $98 forward single #
face $-1 $99 $100 $53 $-1 $101 forward single #
face $-1 $102 $103 $54 $-1 $104 reversed single #
face $-1 $105 $106 $55 $-1 $107 forward single #
face $-1 $108 $109 $56 $-1 $110 forward single #
face $-1 $111 $112 $57 $-1 $113 reversed single #
face $-1 $114 $115 $58 $-1 $116 forward single #
face $-1 $117 $118 $59 $-1 $119 forward single #
face $-1 $120 $121 $45 $-1 $122 reversed single #
loop $-1 $-1 $123 $60 #
plane-surface $-1 0 0 9.5220741008579211 0 0 1 1 0 0 forward_v I I I I #
face $-1 $124 $125 $46 $-1 $126 reversed single #
loop $-1 $-1 $127 $61 #
plane-surface $-1 0 -35.893313016992593 0 0 1 0 0 0 1 forward_v I I I I #
face $-1 $128 $129 $47 $-1 $130 reversed single #
loop $-1 $-1 $131 $62 #
plane-surface $-1 0 35.893313016992593 0 0 -1 0 0 0 -1 forward_v I I I I #
face $-1 $132 $133 $48 $-1 $134 reversed single #
loop $-1 $-1 $135 $63 #
plane-surface $-1 -194.90293430443893 -24.621053738902514 87.044697275520875 0 1 0 -0.81915205242281985 0 0.57357642473473569 forward_v I I I I #
face $-1 $136 $137 $49 $-1 $138 forward single #
loop $-1 $139 $140 $64 #
cone-surface $-1 -69.782387525183026 -22.010131953649051 4.8161758455351311 0.81915205242281985 0 -0.57357642473473569 0.57357642473473569 0 0.81915205242281985 1 I I 0 1 1 forward I I I I #
face $-1 $141 $142 $50 $-1 $143 forward single #
loop $-1 $144 $145 $65 #
cone-surface $-1 -69.782387525183026 -18.093749275768861 4.8161758455351311 0.81915205242281985 0 -0.57357642473473569 0.57357642473473569 0 0.81915205242281985 1 I I 0 1 1 forward I I I I #
face $-1 $146 $147 $51 $-1 $148 reversed single #
loop $-1 $-1 $149 $66 #
plane-surface $-1 -194.90293430443893 -11.247861015968674 87.044697275520875 0 1 0 -0.81915205242281985 0 0.57357642473473569 forward_v I I I I #
face $-1 $150 $151 $52 $-1 $152 forward single #
loop $-1 $153 $154 $67 #
cone-surface $-1 -69.782387525183026 -8.636939230715214 4.8161758455351311 0.81915205242281985 0 -0.57357642473473569 0.57357642473473569 0 0.81915205242281985 1 I I 0 1 1 forward I I I I #
face $-1 $155 $156 $53 $-1 $157 forward single #
loop $-1 $158 $159 $68 #
cone-surface $-1 -69.782387525183026 -4.7205565528350206 4.8161758455351311 0.81915205242281985 0 -0.57357642473473569 0.57357642473473569 0 0.81915205242281985 1 I I 0 1 1 forward I I I I #
face $-1 $160 $161 $54 $-1 $162 reversed single #
loop $-1 $-1 $163 $69 #
plane-surface $-1 -194.90293430443893 2.1253317069651638 87.044697275520875 0 1 0 -0.81915205242281985 0 0.57357642473473569 forward_v I I I I #
face $-1 $164 $165 $55 $-1 $166 forward single #
loop $-1 $167 $168 $70 #
cone-surface $-1 -69.782387525183026 4.7362534922186228 4.8161758455351311 0.81915205242281985 0 -0.57357642473473569 0.57357642473473569 0 0.81915205242281985 1 I I 0 1 1 forward I I I I #
face $-1 $169 $170 $56 $-1 $171 forward single #
loop $-1 $172 $173 $71 #
cone-surface $-1 -69.782387525183026 8.6526361700988161 4.8161758455351311 0.81915205242281985 0 -0.57357642473473569 0.57357642473473569 0 0.81915205242281985 1 I I 0 1 1 forward I I I I #
face $-1 $174 $175 $57 $-1 $176 reversed single #
loop $-1 $-1 $177 $72 #
plane-surface $-1 -194.90293430443893 15.498524429899 87.044697275520875 0 1 0 -0.81915205242281985 0 0.57357642473473569 forward_v I I I I #
face $-1 $178 $179 $58 $-1 $180 forward single #
loop $-1 $181 $182 $73 #
cone-surface $-1 -69.782387525183026 18.10944621515246 4.8161758455351311 0.81915205242281985 0 -0.57357642473473569 0.57357642473473569 0 0.81915205242281985 1 I I 0 1 1 forward I I I I #
face $-1 $183 $184 $59 $-1 $185 forward single #
loop $-1 $186 $187 $74 #
cone-surface $-1 -69.782387525183026 22.025828893032653 4.8161758455351311 0.81915205242281985 0 -0.57357642473473569 0.57357642473473569 0 0.81915205242281985 1 I I 0 1 1 forward I I I I #
face $-1 $188 $189 $45 $-1 $190 reversed single #
loop $-1 $-1 $191 $75 #
plane-surface $-1 0 0 -9.5220741008579211 0 0 1 1 0 0 forward_v I I I I #
coedge $-1 $192 $193 $194 $195 forward $76 $-1 #
face $-1 $196 $197 $46 $-1 $198 reversed single #
loop $-1 $-1 $199 $78 #
plane-surface $-1 0 0 -9.5220741008579211 0 0 1 1 0 0 forward_v I I I I #
coedge $-1 $200 $201 $202 $203 forward $79 $-1 #
face $-1 $204 $205 $47 $-1 $206 forward single #
loop $-1 $-1 $207 $81 #
plane-surface $-1 -73.874324777977847 0 0 1 0 0 0 0 -1 forward_v I I I I #
coedge $-1 $208 $209 $210 $211 forward $82 $-1 #
face $-1 $212 $213 $48 $-1 $214 reversed single #
loop $-1 $-1 $215 $84 #
plane-surface $-1 -73.874324777977876 -20.051940614708958 2.2995551038304143 -0.81915205242281985 0 0.57357642473473569 0.57357642473473569 0 0.81915205242281985 forward_v I I I I #
coedge $-1 $216 $217 $218 $219 reversed $85 $-1 #
face $-1 $-1 $220 $49 $-1 $221 forward single #
loop $-1 $222 $223 $87 #
cone-surface $-1 -67.809505293148419 -22.010131953649051 3.434748876358718 0.81915205242281985 0 -0.57357642473473569 0.28678821236736785 0 0.40957602621140993 1 I I -0.70710678118654746 0.70710678118654746 0.5 forward I I I I #
loop $-1 $-1 $224 $64 #
coedge $-1 $140 $140 $225 $226 reversed $88 $-1 #
face $-1 $-1 $227 $50 $-1 $228 forward single #
loop $-1 $229 $230 $90 #
cone-surface $-1 -67.809505293148419 -18.093749275768861 3.434748876358718 0.81915205242281985 0 -0.57357642473473569 0.28678821236736785 0 0.40957602621140993 1 I I -0.70710678118654746 0.70710678118654746 0.5 forward I I I I #
loop $-1 $-1 $231 $65 #
coedge $-1 $145 $145 $232 $233 reversed $91 $-1 #
face $-1 $234 $235 $51 $-1 $236 reversed single #
loop $-1 $-1 $237 $93 #
plane-surface $-1 -73.874324777977876 -6.6787478917751173 2.2995551038304143 -0.81915205242281985 0 0.57357642473473569 0.57357642473473569 0 0.81915205242281985 forward_v I I I I #
coedge $-1 $238 $239 $240 $241 reversed $94 $-1 #
face $-1 $-1 $242 $52 $-1 $243 forward single #
loop $-1 $244 $245 $96 #
cone-surface $-1 -67.809505293148419 -8.636939230715214 3.434748876358718 0.81915205242281985 0 -0.57357642473473569 0.28678821236736785 0 0.40957602621140993 1 I I -0.70710678118654746 0.70710678118654746 0.5 forward I I I I #
loop $-1 $-1 $246 $67 #
coedge $-1 $154 $154 $247 $248 reversed $97 $-1 #
face $-1 $-1 $249 $53 $-1 $250 forward single #
loop $-1 $251 $252 $99 #
cone-surface $-1 -67.809505293148419 -4.7205565528350206 3.434748876358718 0.81915205242281985 0 -0.57357642473473569 0.28678821236736785 0 0.40957602621140993 1 I I -0.70710678118654746 0.70710678118654746 0.5 forward I I I I #
loop $-1 $-1 $253 $68 #
coedge $-1 $159 $159 $254 $255 reversed $100 $-1 #
face $-1 $256 $257 $54 $-1 $258 reversed single #
loop $-1 $-1 $259 $102 #
plane-surface $-1 -73.874324777977876 6.6944448311587195 2.2995551038304143 -0.81915205242281985 0 0.57357642473473569 0.57357642473473569 0 0.81915205242281985 forward_v I I I I #
coedge $-1 $260 $261 $262 $263 reversed $103 $-1 #
face $-1 $-1 $264 $55 $-1 $265 forward single #
loop $-1 $266 $267 $105 #
cone-surface $-1 -67.809505293148419 4.7362534922186228 3.434748876358718 0.81915205242281985 0 -0.57357642473473569 0.28678821236736785 0 0.40957602621140993 1 I I -0.70710678118654746 0.70710678118654746 0.5 forward I I I I #
loop $-1 $-1 $268 $70 #
coedge $-1 $168 $168 $269 $270 reversed $106 $-1 #
face $-1 $-1 $271 $56 $-1 $272 forward single #
loop $-1 $273 $274 $108 #
cone-surface $-1 -67.809505293148419 8.6526361700988161 3.434748876358718 0.81915205242281985 0 -0.57357642473473569 0.28678821236736785 0 0.40957602621140993 1 I I -0.70710678118654746 0.70710678118654746 0.5 forward I I I I #
loop $-1 $-1 $275 $71 #
coedge $-1 $173 $173 $276 $277 reversed $109 $-1 #
face $-1 $278 $279 $57 $-1 $280 reversed single #
loop $-1 $-1 $281 $111 #
plane-surface $-1 -73.874324777977876 20.067637554092556 2.2995551038304143 -0.81915205242281985 0 0.57357642473473569 0.57357642473473569 0 0.81915205242281985 forward_v I I I I #
coedge $-1 $282 $283 $284 $285 reversed $112 $-1 #
face $-1 $-1 $286 $58 $-1 $287 forward single #
loop $-1 $288 $289 $114 #
cone-surface $-1 -67.809505293148419 18.10944621515246 3.434748876358718 0.81915205242281985 0 -0.57357642473473569 0.28678821236736785 0 0.40957602621140993 1 I I -0.70710678118654746 0.70710678118654746 0.5 forward I I I I #
loop $-1 $-1 $290 $73 #
coedge $-1 $182 $182 $291 $292 reversed $115 $-1 #
face $-1 $-1 $293 $59 $-1 $294 forward single #
loop $-1 $295 $296 $117 #
cone-surface $-1 -67.809505293148419 22.025828893032653 3.434748876358718 0.81915205242281985 0 -0.57357642473473569 0.28678821236736785 0 0.40957602621140993 1 I I -0.70710678118654746 0.70710678118654746 0.5 forward I I I I #
loop $-1 $-1 $297 $74 #
coedge $-1 $187 $187 $298 $299 reversed $118 $-1 #
face $-1 $300 $301 $45 $-1 $302 reversed single #
loop $-1 $-1 $303 $120 #
plane-surface $-1 0 -35.893313016992593 0 0 1 0 0 0 1 forward_v I I I I #
coedge $-1 $304 $305 $306 $307 forward $121 $-1 #
coedge $-1 $308 $123 $309 $310 forward $76 $-1 #
coedge $-1 $123 $308 $311 $312 forward $76 $-1 #
coedge $-1 $313 $314 $123 $195 reversed $315 $-1 #
edge $-1 $316 -35.893313016992593 $317 35.893313016992593 $194 $318 forward 7 unknown #
face $-1 $319 $320 $46 $-1 $321 forward single #
loop $-1 $-1 $322 $124 #
plane-surface $-1 73.874324777977847 0 0 -1 0 0 0 0 1 forward_v I I I I #
coedge $-1 $323 $324 $325 $326 forward $125 $-1 #
coedge $-1 $325 $127 $322 $327 reversed $79 $-1 #
coedge $-1 $127 $325 $328 $329 reversed $79 $-1 #
coedge $-1 $330 $331 $127 $203 reversed $320 $-1 #
edge $-1 $332 -73.874324777977847 $333 73.874324777977847 $202 $334 forward 7 unknown #
face $-1 $335 $336 $47 $-1 $337 reversed single #
loop $-1 $-1 $338 $128 #
plane-surface $-1 0 40.466776802555046 -5.6199620182290566 0 0 1 1 0 0 forward_v I I I I #
coedge $-1 $339 $340 $208 $341 forward $129 $-1 #
coedge $-1 $342 $131 $207 $341 reversed $82 $-1 #
coedge $-1 $131 $342 $343 $344 reversed $82 $-1 #
coedge $-1 $338 $345 $131 $211 reversed $205 $-1 #
edge $-1 $346 -73.874324777977847 $347 73.874324777977847 $210 $348 forward 7 unknown #
face $-1 $349 $350 $48 $-1 $351 reversed single #
loop $-1 $-1 $352 $132 #
plane-surface $-1 -194.90293430443893 -15.482827490515401 87.044697275520875 0 -1 0 0.81915205242281985 0 -0.57357642473473569 forward_v I I I I #
coedge $-1 $353 $354 $355 $356 reversed $133 $-1 #
coedge $-1 $217 $135 $357 $358 reversed $85 $-1 #
coedge $-1 $135 $216 $353 $359 reversed $85 $-1 #
coedge $-1 $355 $360 $135 $219 forward $361 $-1 #
edge $-1 $362 23.577142374241618 $363 28.63440446818484 $218 $364 forward 7 unknown #
loop $-1 $-1 $225 $136 #
plane-surface $-1 -73.874324777977876 -20.051940614708958 2.2995551038304143 -0.81915205242281985 0 0.57357642473473569 0.57357642473473569 0 0.81915205242281985 forward_v I I I I #
loop $-1 $-1 $365 $87 #
coedge $-1 $223 $223 $224 $366 reversed $137 $-1 #
coedge $-1 $224 $224 $223 $366 forward $139 $-1 #
coedge $-1 $225 $225 $140 $226 forward $220 $-1 #
edge $-1 $367 0 $367 6.2831853071796004 $225 $368 forward 7 unknown #
loop $-1 $-1 $232 $141 #
plane-surface $-1 -73.874324777977876 -20.051940614708958 2.2995551038304143 -0.81915205242281985 0 0.57357642473473569 0.57357642473473569 0 0.81915205242281985 forward_v I I I I #
loop $-1 $-1 $369 $90 #
coedge $-1 $230 $230 $231 $370 reversed $142 $-1 #
coedge $-1 $231 $231 $230 $370 forward $144 $-1 #
coedge $-1 $232 $232 $145 $233 forward $227 $-1 #
edge $-1 $371 0 $371 6.2831853071796004 $232 $372 forward 7 unknown #
face $-1 $373 $374 $51 $-1 $375 forward single #
loop $-1 $-1 $376 $146 #
plane-surface $-1 -194.90293430443893 -2.1096347675815617 87.044697275520875 0 -1 0 0.81915205242281985 0 -0.57357642473473569 forward_v I I I I #
coedge $-1 $377 $378 $379 $380 reversed $147 $-1 #
coedge $-1 $239 $149 $381 $382 reversed $94 $-1 #
coedge $-1 $149 $238 $377 $383 reversed $94 $-1 #
coedge $-1 $379 $384 $149 $241 forward $374 $-1 #
edge $-1 $385 23.577142374241618 $386 28.63440446818484 $240 $387 forward 7 unknown #
loop $-1 $-1 $247 $150 #
plane-surface $-1 -73.874324777977876 -6.6787478917751173 2.2995551038304143 -0.81915205242281985 0 0.57357642473473569 0.57357642473473569 0 0.81915205242281985 forward_v I I I I #
loop $-1 $-1 $388 $96 #
coedge $-1 $245 $245 $246 $389 reversed $151 $-1 #
coedge $-1 $246 $246 $245 $389 forward $153 $-1 #
coedge $-1 $247 $247 $154 $248 forward $242 $-1 #
edge $-1 $390 0 $390 6.2831853071796004 $247 $391 forward 7 unknown #
loop $-1 $-1 $254 $155 #
plane-surface $-1 -73.874324777977876 -6.6787478917751173 2.2995551038304143 -0.81915205242281985 0 0.57357642473473569 0.57357642473473569 0 0.81915205242281985 forward_v I I I I #
loop $-1 $-1 $392 $99 #
coedge $-1 $252 $252 $253 $393 reversed $156 $-1 #
coedge $-1 $253 $253 $252 $393 forward $158 $-1 #
coedge $-1 $254 $254 $159 $255 forward $249 $-1 #
edge $-1 $394 0 $394 6.2831853071796004 $254 $395 forward 7 unknown #
face $-1 $396 $397 $54 $-1 $398 forward single #
loop $-1 $-1 $399 $160 #
plane-surface $-1 -194.90293430443893 11.263557955352276 87.044697275520875 0 -1 0 0.81915205242281985 0 -0.57357642473473569 forward_v I I I I #
coedge $-1 $400 $401 $402 $403 reversed $161 $-1 #
coedge $-1 $261 $163 $404 $405 reversed $103 $-1 #
coedge $-1 $163 $260 $400 $406 reversed $103 $-1 #
coedge $-1 $402 $407 $163 $263 forward $397 $-1 #
edge $-1 $408 23.577142374241618 $409 28.63440446818484 $262 $410 forward 7 unknown #
loop $-1 $-1 $269 $164 #
plane-surface $-1 -73.874324777977876 6.6944448311587195 2.2995551038304143 -0.81915205242281985 0 0.57357642473473569 0.57357642473473569 0 0.81915205242281985 forward_v I I I I #
loop $-1 $-1 $411 $105 #
coedge $-1 $267 $267 $268 $412 reversed $165 $-1 #
coedge $-1 $268 $268 $267 $412 forward $167 $-1 #
coedge $-1 $269 $269 $168 $270 forward $264 $-1 #
edge $-1 $413 0 $413 6.2831853071796004 $269 $414 forward 7 unknown #
loop $-1 $-1 $276 $169 #
plane-surface $-1 -73.874324777977876 6.6944448311587195 2.2995551038304143 -0.81915205242281985 0 0.57357642473473569 0.57357642473473569 0 0.81915205242281985 forward_v I I I I #
loop $-1 $-1 $415 $108 #
coedge $-1 $274 $274 $275 $416 reversed $170 $-1 #
coedge $-1 $275 $275 $274 $416 forward $172 $-1 #
coedge $-1 $276 $276 $173 $277 forward $271 $-1 #
edge $-1 $417 0 $417 6.2831853071796004 $276 $418 forward 7 unknown #
face $-1 $419 $420 $57 $-1 $421 forward single #
loop $-1 $-1 $422 $174 #
plane-surface $-1 -194.90293430443893 24.636750678286113 87.044697275520875 0 -1 0 0.81915205242281985 0 -0.57357642473473569 forward_v I I I I #
coedge $-1 $423 $424 $425 $426 reversed $175 $-1 #
coedge $-1 $283 $177 $427 $428 reversed $112 $-1 #
coedge $-1 $177 $282 $423 $429 reversed $112 $-1 #
coedge $-1 $425 $430 $177 $285 forward $420 $-1 #
edge $-1 $431 23.577142374241618 $432 28.63440446818484 $284 $433 forward 7 unknown #
loop $-1 $-1 $291 $178 #
plane-surface $-1 -73.874324777977876 20.067637554092556 2.2995551038304143 -0.81915205242281985 0 0.57357642473473569 0.57357642473473569 0 0.81915205242281985 forward_v I I I I #
loop $-1 $-1 $434 $114 #
coedge $-1 $289 $289 $290 $435 reversed $179 $-1 #
coedge $-1 $290 $290 $289 $435 forward $181 $-1 #
coedge $-1 $291 $291 $182 $292 forward $286 $-1 #
edge $-1 $436 0 $436 6.2831853071796004 $291 $437 forward 7 unknown #
loop $-1 $-1 $298 $183 #
plane-surface $-1 -73.874324777977876 20.067637554092556 2.2995551038304143 -0.81915205242281985 0 0.57357642473473569 0.57357642473473569 0 0.81915205242281985 forward_v I I I I #
loop $-1 $-1 $438 $117 #
coedge $-1 $296 $296 $297 $439 reversed $184 $-1 #
coedge $-1 $297 $297 $296 $439 forward $186 $-1 #
coedge $-1 $298 $298 $187 $299 forward $293 $-1 #
edge $-1 $440 0 $440 6.2831853071796004 $298 $441 forward 7 unknown #
face $-1 $442 $443 $45 $-1 $444 reversed single #
loop $-1 $-1 $445 $188 #
plane-surface $-1 -73.874324777977847 0 0 1 0 0 0 0 -1 forward_v I I I I #
coedge $-1 $311 $446 $313 $447 reversed $189 $-1 #
coedge $-1 $448 $191 $446 $449 forward $121 $-1 #
coedge $-1 $191 $448 $450 $451 forward $121 $-1 #
coedge $-1 $314 $313 $191 $307 reversed $315 $-1 #
edge $-1 $452 -35.893313016992593 $453 35.893313016992593 $306 $454 forward 7 unknown #
coedge $-1 $193 $192 $455 $456 forward $76 $-1 #
coedge $-1 $457 $458 $192 $310 reversed $443 $-1 #
edge $-1 $317 -73.874324777977847 $459 73.874324777977847 $309 $460 forward 7 unknown #
coedge $-1 $461 $303 $193 $312 reversed $189 $-1 #
edge $-1 $462 -73.874324777977847 $316 73.874324777977847 $311 $463 forward 7 unknown #
coedge $-1 $306 $194 $303 $447 forward $315 $-1 #
coedge $-1 $194 $306 $457 $464 reversed $315 $-1 #
loop $-1 $-1 $313 $442 #
vertex $-1 $195 $465 #
vertex $-1 $195 $466 #
straight-curve $-1 73.874324777977847 0 9.5220741008579211 0 1 0 I I #
face $-1 $467 $468 $46 $-1 $469 reversed single #
loop $-1 $-1 $331 $196 #
plane-surface $-1 0 -40.466776802555046 -5.6199620182290566 0 0 1 1 0 0 forward_v I I I I #
coedge $-1 $470 $471 $200 $327 forward $197 $-1 #
coedge $-1 $472 $199 $471 $473 forward $125 $-1 #
coedge $-1 $199 $472 $474 $475 forward $125 $-1 #
coedge $-1 $201 $200 $199 $326 reversed $79 $-1 #
edge $-1 $476 -73.874324777977847 $477 73.874324777977847 $199 $478 forward 7 unknown #
edge $-1 $477 -9.5220741008579211 $333 -5.6199620182290566 $322 $479 forward 7 unknown #
coedge $-1 $474 $480 $201 $329 forward $481 $-1 #
edge $-1 $332 5.6199620182290566 $476 9.5220741008579211 $328 $482 forward 7 unknown #
coedge $-1 $483 $202 $480 $484 forward $320 $-1 #
coedge $-1 $202 $483 $470 $485 forward $320 $-1 #
vertex $-1 $329 $486 #
vertex $-1 $485 $487 #
straight-curve $-1 0 -35.893313016992593 -5.6199620182290566 1 0 0 I I #
face $-1 $488 $489 $47 $-1 $490 reversed single #
loop $-1 $-1 $491 $204 #
plane-surface $-1 0 45.040240588117499 -7.5710180595434888 0 -1 0 0 0 -1 forward_v I I I I #
coedge $-1 $492 $210 $493 $494 forward $205 $-1 #
coedge $-1 $495 $207 $345 $496 reversed $129 $-1 #
coedge $-1 $207 $495 $497 $498 reversed $129 $-1 #
edge $-1 $499 -9.5220741008579211 $347 -5.6199620182290566 $207 $500 forward 7 unknown #
coedge $-1 $209 $208 $501 $502 reversed $82 $-1 #
coedge $-1 $503 $493 $209 $344 forward $504 $-1 #
edge $-1 $346 5.6199620182290566 $505 9.5220741008579211 $343 $506 forward 7 unknown #
coedge $-1 $210 $492 $339 $496 forward $205 $-1 #
vertex $-1 $344 $507 #
vertex $-1 $496 $508 #
straight-curve $-1 0 35.893313016992593 -5.6199620182290566 -1 0 0 I I #
face $-1 $-1 $361 $48 $-1 $509 forward single #
loop $-1 $-1 $510 $212 #
plane-surface $-1 -73.874324777977847 0 0 1 0 0 0 0 -1 forward_v I I I I #
coedge $-1 $511 $512 $513 $514 reversed $213 $-1 #
coedge $-1 $515 $215 $217 $359 forward $133 $-1 #
coedge $-1 $215 $515 $511 $516 forward $133 $-1 #
coedge $-1 $513 $218 $215 $356 forward $361 $-1 #
edge $-1 $363 -14.595083431548035 $517 -5.4568571831609223 $355 $518 forward 7 unknown #
coedge $-1 $519 $520 $216 $358 forward $350 $-1 #
edge $-1 $521 -41.22279353392998 $362 -34.000274536902516 $357 $522 forward 7 unknown #
edge $-1 $363 -8.8170675708683603 $521 -4.9405691961323804e-014 $217 $523 forward 7 unknown #
coedge $-1 $218 $513 $519 $524 forward $361 $-1 #
loop $-1 $-1 $513 $349 #
vertex $-1 $358 $525 #
vertex $-1 $219 $526 #
straight-curve $-1 -97.451467152219465 -24.621053738902514 9.5220741008579211 1 0 0 I I #
coedge $-1 $365 $365 $-1 $527 reversed $222 $-1 #
edge $-1 $528 0 $528 6.2831853071796004 $223 $529 forward 7 unknown #
vertex $-1 $226 $530 #
ellipse-curve $-1 -71.345693731006236 -22.010131953649051 5.9108146023441854 -0.81915205242281985 0 0.57357642473473569 0.57357642473473569 0 0.81915205242281985 1 I I #
coedge $-1 $369 $369 $-1 $531 reversed $229 $-1 #
edge $-1 $532 0 $532 6.2831853071796004 $230 $533 forward 7 unknown #
vertex $-1 $233 $534 #
ellipse-curve $-1 -71.345693731006236 -18.093749275768861 5.9108146023441854 -0.81915205242281985 0 0.57357642473473569 0.57357642473473569 0 0.81915205242281985 1 I I #
face $-1 $-1 $535 $51 $-1 $536 reversed single #
loop $-1 $-1 $240 $234 #
plane-surface $-1 0 0 9.5220741008579211 0 0 1 1 0 0 forward_v I I I I #
coedge $-1 $537 $538 $539 $540 reversed $235 $-1 #
coedge $-1 $541 $237 $239 $383 forward $147 $-1 #
coedge $-1 $237 $541 $537 $542 forward $147 $-1 #
coedge $-1 $539 $240 $237 $380 forward $374 $-1 #
edge $-1 $386 -7.9084870700811152 $543 1.229739178305997 $379 $544 forward 7 unknown #
coedge $-1 $545 $546 $238 $382 forward $535 $-1 #
edge $-1 $547 -41.22279353392998 $385 -34.000274536902516 $381 $548 forward 7 unknown #
edge $-1 $386 -8.8170675708683603 $547 -4.9405691961323804e-014 $239 $549 forward 7 unknown #
coedge $-1 $240 $539 $545 $550 forward $374 $-1 #
vertex $-1 $241 $551 #
vertex $-1 $241 $552 #
straight-curve $-1 -97.451467152219465 -11.247861015968674 9.5220741008579211 1 0 0 I I #
coedge $-1 $388 $388 $-1 $553 reversed $244 $-1 #
edge $-1 $554 0 $554 6.2831853071796004 $245 $555 forward 7 unknown #
vertex $-1 $248 $556 #
ellipse-curve $-1 -71.345693731006236 -8.636939230715214 5.9108146023441854 -0.81915205242281985 0 0.57357642473473569 0.57357642473473569 0 0.81915205242281985 1 I I #
coedge $-1 $392 $392 $-1 $557 reversed $251 $-1 #
edge $-1 $558 0 $558 6.2831853071796004 $252 $559 forward 7 unknown #
vertex $-1 $255 $560 #
ellipse-curve $-1 -71.345693731006236 -4.7205565528350206 5.9108146023441854 -0.81915205242281985 0 0.57357642473473569 0.57357642473473569 0 0.81915205242281985 1 I I #
face $-1 $-1 $561 $54 $-1 $562 reversed single #
loop $-1 $-1 $262 $256 #
plane-surface $-1 0 0 9.5220741008579211 0 0 1 1 0 0 forward_v I I I I #
coedge $-1 $563 $564 $565 $566 reversed $257 $-1 #
coedge $-1 $567 $259 $261 $406 forward $161 $-1 #
coedge $-1 $259 $567 $563 $568 forward $161 $-1 #
coedge $-1 $565 $262 $259 $403 forward $397 $-1 #
edge $-1 $409 -1.2218907086141959 $569 7.9163355397729163 $402 $570 forward 7 unknown #
coedge $-1 $571 $572 $260 $405 forward $561 $-1 #
edge $-1 $573 -41.22279353392998 $408 -34.000274536902516 $404 $574 forward 7 unknown #
edge $-1 $409 -8.8170675708683603 $573 -4.9405691961323804e-014 $261 $575 forward 7 unknown #
coedge $-1 $262 $565 $571 $576 forward $397 $-1 #
vertex $-1 $263 $577 #
vertex $-1 $263 $578 #
straight-curve $-1 -97.451467152219465 2.1253317069651638 9.5220741008579211 1 0 0 I I #
coedge $-1 $411 $411 $-1 $579 reversed $266 $-1 #
edge $-1 $580 0 $580 6.2831853071796004 $267 $581 forward 7 unknown #
vertex $-1 $270 $582 #
ellipse-curve $-1 -71.345693731006236 4.7362534922186228 5.9108146023441854 -0.81915205242281985 0 0.57357642473473569 0.57357642473473569 0 0.81915205242281985 1 I I #
coedge $-1 $415 $415 $-1 $583 reversed $273 $-1 #
edge $-1 $584 0 $584 6.2831853071796004 $274 $585 forward 7 unknown #
vertex $-1 $277 $586 #
ellipse-curve $-1 -71.345693731006236 8.6526361700988161 5.9108146023441854 -0.81915205242281985 0 0.57357642473473569 0.57357642473473569 0 0.81915205242281985 1 I I #
face $-1 $-1 $587 $57 $-1 $588 reversed single #
loop $-1 $-1 $284 $278 #
plane-surface $-1 0 0 9.5220741008579211 0 0 1 1 0 0 forward_v I I I I #
coedge $-1 $589 $590 $591 $592 reversed $279 $-1 #
coedge $-1 $593 $281 $283 $429 forward $175 $-1 #
coedge $-1 $281 $593 $589 $594 forward $175 $-1 #
coedge $-1 $591 $284 $281 $426 forward $420 $-1 #
edge $-1 $432 5.4647056528527216 $595 14.602931901239835 $425 $596 forward 7 unknown #
coedge $-1 $597 $598 $282 $428 forward $587 $-1 #
edge $-1 $599 -41.22279353392998 $431 -34.000274536902516 $427 $600 forward 7 unknown #
edge $-1 $432 -8.8170675708683603 $599 -4.9405691961323804e-014 $283 $601 forward 7 unknown #
coedge $-1 $284 $591 $597 $602 forward $420 $-1 #
vertex $-1 $285 $603 #
vertex $-1 $285 $604 #
straight-curve $-1 -97.451467152219465 15.498524429899 9.5220741008579211 1 0 0 I I #
coedge $-1 $434 $434 $-1 $605 reversed $288 $-1 #
edge $-1 $606 0 $606 6.2831853071796004 $289 $607 forward 7 unknown #
vertex $-1 $292 $608 #
ellipse-curve $-1 -71.345693731006236 18.10944621515246 5.9108146023441854 -0.81915205242281985 0 0.57357642473473569 0.57357642473473569 0 0.81915205242281985 1 I I #
coedge $-1 $438 $438 $-1 $609 reversed $295 $-1 #
edge $-1 $610 0 $610 6.2831853071796004 $296 $611 forward 7 unknown #
vertex $-1 $299 $612 #
ellipse-curve $-1 -71.345693731006236 22.025828893032653 5.9108146023441854 -0.81915205242281985 0 0.57357642473473569 0.57357642473473569 0 0.81915205242281985 1 I I #
face $-1 $-1 $315 $45 $-1 $613 reversed single #
loop $-1 $-1 $458 $300 #
plane-surface $-1 0 35.893313016992593 0 0 -1 0 0 0 -1 forward_v I I I I #
coedge $-1 $614 $455 $458 $615 forward $301 $-1 #
coedge $-1 $303 $461 $304 $449 reversed $189 $-1 #
edge $-1 $316 -9.5220741008579211 $453 9.5220741008579211 $313 $616 forward 7 unknown #
coedge $-1 $305 $304 $614 $617 forward $121 $-1 #
edge $-1 $453 -73.874324777977847 $618 73.874324777977847 $446 $619 forward 7 unknown #
coedge $-1 $458 $457 $305 $451 reversed $443 $-1 #
edge $-1 $620 -73.874324777977847 $452 73.874324777977847 $450 $621 forward 7 unknown #
vertex $-1 $307 $622 #
vertex $-1 $447 $623 #
straight-curve $-1 73.874324777977847 0 -9.5220741008579211 0 -1 0 I I #
coedge $-1 $445 $624 $308 $456 reversed $301 $-1 #
edge $-1 $459 -35.893313016992593 $462 35.893313016992593 $455 $625 forward 7 unknown #
coedge $-1 $450 $309 $314 $464 forward $443 $-1 #
coedge $-1 $309 $450 $445 $615 reversed $443 $-1 #
vertex $-1 $310 $626 #
straight-curve $-1 0 35.893313016992593 9.5220741008579211 -1 0 0 I I #
coedge $-1 $446 $311 $624 $627 forward $189 $-1 #
vertex $-1 $456 $628 #
straight-curve $-1 0 -35.893313016992593 9.5220741008579211 1 0 0 I I #
edge $-1 $317 -9.5220741008579211 $452 9.5220741008579211 $314 $629 forward 7 unknown #
point $-1 73.874324777977847 -35.893313016992593 9.5220741008579211 #
point $-1 73.874324777977847 35.893313016992593 9.5220741008579211 #
face $-1 $-1 $481 $46 $-1 $630 reversed single #
loop $-1 $-1 $631 $319 #
plane-surface $-1 0 -45.040240588117499 -7.5710180595434888 0 1 0 0 0 1 forward_v I I I I #
coedge $-1 $632 $322 $331 $485 reversed $197 $-1 #
coedge $-1 $322 $632 $323 $473 reversed $197 $-1 #
coedge $-1 $324 $323 $633 $634 forward $125 $-1 #
edge $-1 $477 35.893313016992593 $635 45.040240588117499 $471 $636 forward 7 unknown #
coedge $-1 $637 $328 $324 $475 reversed $481 $-1 #
edge $-1 $638 -45.040240588117499 $476 -35.893313016992593 $474 $639 forward 7 unknown #
vertex $-1 $329 $640 #
vertex $-1 $473 $641 #
straight-curve $-1 0 -35.893313016992593 -9.5220741008579211 1 0 0 I I #
straight-curve $-1 73.874324777977847 -35.893313016992593 0 0 0 1 I I #
coedge $-1 $328 $637 $330 $484 reversed $481 $-1 #
loop $-1 $-1 $328 $467 #
straight-curve $-1 -73.874324777977847 -35.893313016992593 0 0 0 -1 I I #
coedge $-1 $331 $330 $642 $643 forward $320 $-1 #
edge $-1 $332 -4.5734637855624527 $644 4.5734637855624527 $480 $645 forward 7 unknown #
edge $-1 $646 -4.5734637855624527 $333 4.5734637855624527 $470 $647 forward 7 unknown #
point $-1 -73.874324777977847 -35.893313016992593 -5.6199620182290566 #
point $-1 73.874324777977847 -35.893313016992593 -5.6199620182290566 #
face $-1 $-1 $504 $47 $-1 $648 reversed single #
loop $-1 $-1 $501 $335 #
plane-surface $-1 0 0 -9.5220741008579211 0 0 1 1 0 0 forward_v I I I I #
coedge $-1 $649 $650 $651 $652 forward $336 $-1 #
coedge $-1 $345 $338 $650 $653 forward $205 $-1 #
coedge $-1 $343 $651 $338 $494 reversed $504 $-1 #
edge $-1 $346 -4.5734637855624527 $654 4.5734637855624527 $493 $655 forward 7 unknown #
coedge $-1 $340 $339 $656 $657 forward $129 $-1 #
edge $-1 $658 -4.5734637855624527 $347 4.5734637855624527 $339 $659 forward 7 unknown #
coedge $-1 $660 $501 $340 $498 forward $489 $-1 #
edge $-1 $499 -4.5734637855624527 $661 4.5734637855624527 $340 $662 forward 7 unknown #
vertex $-1 $498 $663 #
straight-curve $-1 -73.874324777977847 35.893313016992593 0 0 0 1 I I #
coedge $-1 $497 $664 $342 $502 forward $489 $-1 #
edge $-1 $505 -73.874324777977847 $499 73.874324777977847 $501 $665 forward 7 unknown #
coedge $-1 $651 $343 $664 $666 reversed $504 $-1 #
loop $-1 $-1 $343 $488 #
vertex $-1 $344 $667 #
straight-curve $-1 73.874324777977847 35.893313016992593 0 0 0 -1 I I #
point $-1 73.874324777977847 35.893313016992593 -5.6199620182290566 #
point $-1 -73.874324777977847 35.893313016992593 -5.6199620182290566 #
plane-surface $-1 0 0 9.5220741008579211 0 0 1 1 0 0 forward_v I I I I #
coedge $-1 $520 $519 $512 $668 forward $350 $-1 #
coedge $-1 $512 $352 $354 $516 reversed $213 $-1 #
coedge $-1 $352 $511 $510 $668 reversed $213 $-1 #
coedge $-1 $360 $355 $352 $514 forward $361 $-1 #
edge $-1 $517 -28.63440446818484 $669 -23.577142374241618 $513 $670 forward 7 unknown #
coedge $-1 $354 $353 $520 $671 reversed $133 $-1 #
edge $-1 $672 4.9405691961323804e-014 $517 8.8170675708683603 $511 $673 forward 7 unknown #
vertex $-1 $356 $674 #
straight-curve $-1 -68.817062684034624 -10.025970307354479 9.5220741008579228 0 1 0 I I #
coedge $-1 $510 $357 $360 $524 reversed $350 $-1 #
coedge $-1 $357 $510 $515 $671 forward $350 $-1 #
vertex $-1 $358 $675 #
straight-curve $-1 -73.874324777977847 -24.621053738902514 43.522348637760437 0 0 1 I I #
straight-curve $-1 -73.874324777977876 -24.621053738902514 2.2995551038304143 -0.57357642473473569 0 -0.81915205242281985 I I #
edge $-1 $669 15.482827490515401 $362 24.621053738902514 $519 $676 forward 7 unknown #
point $-1 -73.874324777977847 -24.621053738902514 9.5220741008579211 #
point $-1 -68.817062684034624 -24.621053738902514 9.5220741008579211 #
edge $-1 $677 1 $677 0 $365 $-1 forward 7 unknown #
vertex $-1 $366 $678 #
ellipse-curve $-1 -68.21908131935983 -22.010131953649051 3.7215370887260857 -0.81915205242281985 0 0.57357642473473569 0.57357642473473569 0 0.81915205242281985 1 I I #
point $-1 -70.772117306271483 -22.010131953649051 6.7299666547669954 #
edge $-1 $679 1 $679 0 $369 $-1 forward 7 unknown #
vertex $-1 $370 $680 #
ellipse-curve $-1 -68.21908131935983 -18.093749275768861 3.7215370887260857 -0.81915205242281985 0 0.57357642473473569 0.57357642473473569 0 0.81915205242281985 1 I I #
point $-1 -70.772117306271483 -18.093749275768861 6.7299666547669954 #
loop $-1 $-1 $381 $373 #
plane-surface $-1 -73.874324777977847 0 0 1 0 0 0 0 -1 forward_v I I I I #
coedge $-1 $538 $376 $378 $542 reversed $235 $-1 #
coedge $-1 $376 $537 $681 $682 reversed $235 $-1 #
coedge $-1 $384 $379 $376 $540 forward $374 $-1 #
edge $-1 $543 -28.63440446818484 $683 -23.577142374241618 $539 $684 forward 7 unknown #
coedge $-1 $378 $377 $546 $685 reversed $147 $-1 #
edge $-1 $686 4.9405691961323804e-014 $543 8.8170675708683603 $537 $687 forward 7 unknown #
vertex $-1 $380 $688 #
straight-curve $-1 -68.817062684034624 -3.3393739458875586 9.5220741008579228 0 1 0 I I #
coedge $-1 $681 $381 $384 $550 reversed $535 $-1 #
coedge $-1 $381 $681 $541 $685 forward $535 $-1 #
vertex $-1 $382 $689 #
straight-curve $-1 -73.874324777977847 -11.247861015968674 43.522348637760437 0 0 1 I I #
straight-curve $-1 -73.874324777977876 -11.247861015968674 2.2995551038304143 -0.57357642473473569 0 -0.81915205242281985 I I #
edge $-1 $683 2.1096347675815617 $385 11.247861015968674 $545 $690 forward 7 unknown #
point $-1 -73.874324777977847 -11.247861015968674 9.5220741008579211 #
point $-1 -68.817062684034624 -11.247861015968674 9.5220741008579211 #
edge $-1 $691 1 $691 0 $388 $-1 forward 7 unknown #
vertex $-1 $389 $692 #
ellipse-curve $-1 -68.21908131935983 -8.636939230715214 3.7215370887260857 -0.81915205242281985 0 0.57357642473473569 0.57357642473473569 0 0.81915205242281985 1 I I #
point $-1 -70.772117306271483 -8.636939230715214 6.7299666547669954 #
edge $-1 $693 1 $693 0 $392 $-1 forward 7 unknown #
vertex $-1 $393 $694 #
ellipse-curve $-1 -68.21908131935983 -4.7205565528350206 3.7215370887260857 -0.81915205242281985 0 0.57357642473473569 0.57357642473473569 0 0.81915205242281985 1 I I #
point $-1 -70.772117306271483 -4.7205565528350206 6.7299666547669954 #
loop $-1 $-1 $404 $396 #
plane-surface $-1 -73.874324777977847 0 0 1 0 0 0 0 -1 forward_v I I I I #
coedge $-1 $564 $399 $401 $568 reversed $257 $-1 #
coedge $-1 $399 $563 $695 $696 reversed $257 $-1 #
coedge $-1 $407 $402 $399 $566 forward $397 $-1 #
edge $-1 $569 -28.63440446818484 $697 -23.577142374241618 $565 $698 forward 7 unknown #
coedge $-1 $401 $400 $572 $699 reversed $161 $-1 #
edge $-1 $700 4.9405691961323804e-014 $569 8.8170675708683603 $563 $701 forward 7 unknown #
vertex $-1 $403 $702 #
straight-curve $-1 -68.817062684034624 3.3472224155793597 9.5220741008579228 0 1 0 I I #
coedge $-1 $695 $404 $407 $576 reversed $561 $-1 #
coedge $-1 $404 $695 $567 $699 forward $561 $-1 #
vertex $-1 $405 $703 #
straight-curve $-1 -73.874324777977847 2.1253317069651638 43.522348637760437 0 0 1 I I #
straight-curve $-1 -73.874324777977876 2.1253317069651638 2.2995551038304143 -0.57357642473473569 0 -0.81915205242281985 I I #
edge $-1 $697 -11.263557955352276 $408 -2.1253317069651638 $571 $704 forward 7 unknown #
point $-1 -73.874324777977847 2.1253317069651638 9.5220741008579211 #
point $-1 -68.817062684034624 2.1253317069651638 9.5220741008579211 #
edge $-1 $705 1 $705 0 $411 $-1 forward 7 unknown #
vertex $-1 $412 $706 #
ellipse-curve $-1 -68.21908131935983 4.7362534922186228 3.7215370887260857 -0.81915205242281985 0 0.57357642473473569 0.57357642473473569 0 0.81915205242281985 1 I I #
point $-1 -70.772117306271483 4.7362534922186228 6.7299666547669954 #
edge $-1 $707 1 $707 0 $415 $-1 forward 7 unknown #
vertex $-1 $416 $708 #
ellipse-curve $-1 -68.21908131935983 8.6526361700988161 3.7215370887260857 -0.81915205242281985 0 0.57357642473473569 0.57357642473473569 0 0.81915205242281985 1 I I #
point $-1 -70.772117306271483 8.6526361700988161 6.7299666547669954 #
loop $-1 $-1 $427 $419 #
plane-surface $-1 -73.874324777977847 0 0 1 0 0 0 0 -1 forward_v I I I I #
coedge $-1 $590 $422 $424 $594 reversed $279 $-1 #
coedge $-1 $422 $589 $709 $710 reversed $279 $-1 #
coedge $-1 $430 $425 $422 $592 forward $420 $-1 #
edge $-1 $595 -28.63440446818484 $711 -23.577142374241618 $591 $712 forward 7 unknown #
coedge $-1 $424 $423 $598 $713 reversed $175 $-1 #
edge $-1 $714 4.9405691961323804e-014 $595 8.8170675708683603 $589 $715 forward 7 unknown #
vertex $-1 $426 $716 #
straight-curve $-1 -68.817062684034624 10.033818777046278 9.5220741008579228 0 1 0 I I #
coedge $-1 $709 $427 $430 $602 reversed $587 $-1 #
coedge $-1 $427 $709 $593 $713 forward $587 $-1 #
vertex $-1 $428 $717 #
straight-curve $-1 -73.874324777977847 15.498524429899 43.522348637760437 0 0 1 I I #
straight-curve $-1 -73.874324777977876 15.498524429899 2.2995551038304143 -0.57357642473473569 0 -0.81915205242281985 I I #
edge $-1 $711 -24.636750678286113 $431 -15.498524429899 $597 $718 forward 7 unknown #
point $-1 -73.874324777977847 15.498524429899 9.5220741008579211 #
point $-1 -68.817062684034624 15.498524429899 9.5220741008579211 #
edge $-1 $719 1 $719 0 $434 $-1 forward 7 unknown #
vertex $-1 $435 $720 #
ellipse-curve $-1 -68.21908131935983 18.10944621515246 3.7215370887260857 -0.81915205242281985 0 0.57357642473473569 0.57357642473473569 0 0.81915205242281985 1 I I #
point $-1 -70.772117306271483 18.10944621515246 6.7299666547669954 #
edge $-1 $721 1 $721 0 $438 $-1 forward 7 unknown #
vertex $-1 $439 $722 #
ellipse-curve $-1 -68.21908131935983 22.025828893032653 3.7215370887260857 -0.81915205242281985 0 0.57357642473473569 0.57357642473473569 0 0.81915205242281985 1 I I #
point $-1 -70.772117306271483 22.025828893032653 6.7299666547669954 #
plane-surface $-1 73.874324777977847 0 0 -1 0 0 0 0 1 forward_v I I I I #
coedge $-1 $624 $445 $448 $617 reversed $301 $-1 #
edge $-1 $459 -9.5220741008579211 $620 9.5220741008579211 $458 $723 forward 7 unknown #
straight-curve $-1 73.874324777977847 -35.893313016992593 0 0 0 -1 I I #
edge $-1 $618 -35.893313016992593 $620 35.893313016992593 $614 $724 forward 7 unknown #
vertex $-1 $617 $725 #
straight-curve $-1 0 -35.893313016992593 -9.5220741008579211 -1 0 0 I I #
vertex $-1 $451 $726 #
straight-curve $-1 0 35.893313016992593 -9.5220741008579211 1 0 0 I I #
point $-1 73.874324777977847 35.893313016992593 -9.5220741008579211 #
point $-1 73.874324777977847 -35.893313016992593 -9.5220741008579211 #
coedge $-1 $455 $614 $461 $627 reversed $301 $-1 #
straight-curve $-1 -73.874324777977847 0 9.5220741008579211 0 -1 0 I I #
point $-1 -73.874324777977847 35.893313016992593 9.5220741008579211 #
edge $-1 $462 -9.5220741008579211 $618 9.5220741008579211 $624 $727 forward 7 unknown #
point $-1 -73.874324777977847 -35.893313016992593 9.5220741008579211 #
straight-curve $-1 73.874324777977847 35.893313016992593 0 0 0 -1 I I #
plane-surface $-1 -73.874324777977847 0 0 1 0 0 0 0 -1 forward_v I I I I #
coedge $-1 $633 $642 $637 $728 forward $468 $-1 #
coedge $-1 $471 $470 $729 $730 forward $197 $-1 #
coedge $-1 $729 $631 $472 $634 reversed $468 $-1 #
edge $-1 $635 -73.874324777977847 $638 73.874324777977847 $633 $731 forward 7 unknown #
vertex $-1 $730 $732 #
straight-curve $-1 73.874324777977847 0 -9.5220741008579211 0 -1 0 I I #
coedge $-1 $480 $474 $631 $728 reversed $481 $-1 #
vertex $-1 $475 $733 #
straight-curve $-1 -73.874324777977847 0 -9.5220741008579211 0 1 0 I I #
point $-1 -73.874324777977847 -35.893313016992593 -9.5220741008579211 #
point $-1 73.874324777977847 -35.893313016992593 -9.5220741008579211 #
coedge $-1 $631 $729 $483 $643 reversed $468 $-1 #
edge $-1 $644 -73.874324777977847 $646 73.874324777977847 $642 $734 forward 7 unknown #
vertex $-1 $484 $735 #
straight-curve $-1 -73.874324777977847 -40.466776802555046 -5.6199620182290566 0 -1 0 I I #
vertex $-1 $485 $736 #
straight-curve $-1 73.874324777977847 -40.466776802555046 -5.6199620182290566 0 1 0 I I #
plane-surface $-1 73.874324777977847 0 0 -1 0 0 0 0 1 forward_v I I I I #
coedge $-1 $656 $491 $660 $737 reversed $336 $-1 #
coedge $-1 $491 $656 $492 $653 reversed $336 $-1 #
coedge $-1 $493 $503 $491 $652 reversed $504 $-1 #
edge $-1 $654 -1.9510560413144322 $738 1.9510560413144322 $651 $739 forward 7 unknown #
edge $-1 $654 -73.874324777977847 $658 73.874324777977847 $650 $740 forward 7 unknown #
vertex $-1 $494 $741 #
straight-curve $-1 73.874324777977847 40.466776802555046 -5.6199620182290566 0 1 0 I I #
coedge $-1 $650 $649 $495 $657 reversed $336 $-1 #
edge $-1 $658 -1.9510560413144322 $661 1.9510560413144322 $656 $742 forward 7 unknown #
vertex $-1 $653 $743 #
straight-curve $-1 -73.874324777977847 40.466776802555046 -5.6199620182290566 0 -1 0 I I #
coedge $-1 $664 $497 $649 $737 forward $489 $-1 #
vertex $-1 $737 $744 #
straight-curve $-1 -73.874324777977847 40.466776802555046 -9.5220741008579211 0 1 0 I I #
point $-1 -73.874324777977847 35.893313016992593 -9.5220741008579211 #
coedge $-1 $501 $660 $503 $666 forward $489 $-1 #
straight-curve $-1 0 35.893313016992593 -9.5220741008579211 -1 0 0 I I #
edge $-1 $738 -45.040240588117499 $505 -35.893313016992593 $503 $745 forward 7 unknown #
point $-1 73.874324777977847 35.893313016992593 -9.5220741008579211 #
edge $-1 $669 34.000274536902516 $672 41.22279353392998 $510 $746 forward 7 unknown #
vertex $-1 $524 $747 #
straight-curve $-1 -97.451467152219465 -15.482827490515401 9.5220741008579211 -1 0 0 I I #
edge $-1 $672 5.4568571831609223 $521 14.595083431548035 $520 $748 forward 7 unknown #
vertex $-1 $671 $749 #
straight-curve $-1 -73.874324777977876 -15.482827490515401 2.2995551038304143 0.57357642473473569 0 0.81915205242281985 I I #
point $-1 -68.817062684034624 -15.482827490515401 9.5220741008579211 #
point $-1 -73.874324777977847 -24.621053738902514 2.2995551038304547 #
straight-curve $-1 -73.874324777977847 0 9.5220741008579211 0 -1 0 I I #
vertex $-1 $527 $750 #
point $-1 -67.645504894625091 -22.010131953649051 4.5406891411489054 #
vertex $-1 $531 $751 #
point $-1 -67.645504894625091 -18.093749275768861 4.5406891411489054 #
coedge $-1 $546 $545 $538 $682 forward $535 $-1 #
edge $-1 $683 34.000274536902516 $686 41.22279353392998 $681 $752 forward 7 unknown #
vertex $-1 $550 $753 #
straight-curve $-1 -97.451467152219465 -2.1096347675815617 9.5220741008579211 -1 0 0 I I #
edge $-1 $686 -1.229739178305997 $547 7.9084870700811152 $546 $754 forward 7 unknown #
vertex $-1 $685 $755 #
straight-curve $-1 -73.874324777977876 -2.1096347675815617 2.2995551038304143 0.57357642473473569 0 0.81915205242281985 I I #
point $-1 -68.817062684034624 -2.1096347675815617 9.5220741008579211 #
point $-1 -73.874324777977847 -11.247861015968674 2.2995551038304547 #
straight-curve $-1 -73.874324777977847 0 9.5220741008579211 0 -1 0 I I #
vertex $-1 $553 $756 #
point $-1 -67.645504894625091 -8.636939230715214 4.5406891411489054 #
vertex $-1 $557 $757 #
point $-1 -67.645504894625091 -4.7205565528350206 4.5406891411489054 #
coedge $-1 $572 $571 $564 $696 forward $561 $-1 #
edge $-1 $697 34.000274536902516 $700 41.22279353392998 $695 $758 forward 7 unknown #
vertex $-1 $576 $759 #
straight-curve $-1 -97.451467152219465 11.263557955352276 9.5220741008579211 -1 0 0 I I #
edge $-1 $700 -7.9163355397729163 $573 1.2218907086141959 $572 $760 forward 7 unknown #
vertex $-1 $699 $761 #
straight-curve $-1 -73.874324777977876 11.263557955352276 2.2995551038304143 0.57357642473473569 0 0.81915205242281985 I I #
point $-1 -68.817062684034624 11.263557955352276 9.5220741008579211 #
point $-1 -73.874324777977847 2.1253317069651638 2.2995551038304547 #
straight-curve $-1 -73.874324777977847 0 9.5220741008579211 0 -1 0 I I #
vertex $-1 $579 $762 #
point $-1 -67.645504894625091 4.7362534922186228 4.5406891411489054 #
vertex $-1 $583 $763 #
point $-1 -67.645504894625091 8.6526361700988161 4.5406891411489054 #
coedge $-1 $598 $597 $590 $710 forward $587 $-1 #
edge $-1 $711 34.000274536902516 $714 41.22279353392998 $709 $764 forward 7 unknown #
vertex $-1 $602 $765 #
straight-curve $-1 -97.451467152219465 24.636750678286113 9.5220741008579211 -1 0 0 I I #
edge $-1 $714 -14.602931901239835 $599 -5.4647056528527216 $598 $766 forward 7 unknown #
vertex $-1 $713 $767 #
straight-curve $-1 -73.874324777977876 24.636750678286113 2.2995551038304143 0.57357642473473569 0 0.81915205242281985 I I #
point $-1 -68.817062684034624 24.636750678286113 9.5220741008579211 #
point $-1 -73.874324777977847 15.498524429899 2.2995551038304547 #
straight-curve $-1 -73.874324777977847 0 9.5220741008579211 0 -1 0 I I #
vertex $-1 $605 $768 #
point $-1 -67.645504894625091 18.10944621515246 4.5406891411489054 #
vertex $-1 $609 $769 #
point $-1 -67.645504894625091 22.025828893032653 4.5406891411489054 #
straight-curve $-1 -73.874324777977847 35.893313016992593 0 0 0 -1 I I #
straight-curve $-1 -73.874324777977847 0 -9.5220741008579211 0 1 0 I I #
point $-1 -73.874324777977847 -35.893313016992593 -9.5220741008579211 #
point $-1 -73.874324777977847 35.893313016992593 -9.5220741008579211 #
straight-curve $-1 -73.874324777977847 -35.893313016992593 0 0 0 -1 I I #
edge $-1 $644 -1.9510560413144322 $638 1.9510560413144322 $637 $770 forward 7 unknown #
coedge $-1 $642 $633 $632 $730 reversed $468 $-1 #
edge $-1 $646 -1.9510560413144322 $635 1.9510560413144322 $632 $771 forward 7 unknown #
straight-curve $-1 0 -45.040240588117499 -9.5220741008579211 -1 0 0 I I #
point $-1 73.874324777977847 -45.040240588117499 -9.5220741008579211 #
point $-1 -73.874324777977847 -45.040240588117499 -9.5220741008579211 #
straight-curve $-1 0 -45.040240588117499 -5.6199620182290566 1 0 0 I I #
point $-1 -73.874324777977847 -45.040240588117499 -5.6199620182290566 #
point $-1 73.874324777977847 -45.040240588117499 -5.6199620182290566 #
edge $-1 $661 -73.874324777977847 $738 73.874324777977847 $649 $772 forward 7 unknown #
vertex $-1 $666 $773 #
straight-curve $-1 73.874324777977847 45.040240588117499 -7.5710180595434888 0 0 -1 I I #
straight-curve $-1 0 45.040240588117499 -5.6199620182290566 -1 0 0 I I #
point $-1 73.874324777977847 45.040240588117499 -5.6199620182290566 #
straight-curve $-1 -73.874324777977847 45.040240588117499 -7.5710180595434888 0 0 -1 I I #
point $-1 -73.874324777977847 45.040240588117499 -5.6199620182290566 #
point $-1 -73.874324777977847 45.040240588117499 -9.5220741008579211 #
straight-curve $-1 73.874324777977847 0 -9.5220741008579211 0 -1 0 I I #
straight-curve $-1 -73.874324777977847 -15.482827490515401 43.522348637760437 0 0 -1 I I #
point $-1 -73.874324777977847 -15.482827490515401 9.5220741008579211 #
straight-curve $-1 -73.874324777977847 -10.025970307354479 2.2995551038304565 0 -1 0 I I #
point $-1 -73.874324777977847 -15.482827490515401 2.2995551038304547 #
point $-1 -67.399929266937008 -22.010131953649051 3.1479606639913502 #
point $-1 -67.399929266937008 -18.093749275768861 3.1479606639913502 #
straight-curve $-1 -73.874324777977847 -2.1096347675815617 43.522348637760437 0 0 -1 I I #
point $-1 -73.874324777977847 -2.1096347675815617 9.5220741008579211 #
straight-curve $-1 -73.874324777977847 -3.3393739458875586 2.2995551038304565 0 -1 0 I I #
point $-1 -73.874324777977847 -2.1096347675815617 2.2995551038304547 #
point $-1 -67.399929266937008 -8.636939230715214 3.1479606639913502 #
point $-1 -67.399929266937008 -4.7205565528350206 3.1479606639913502 #
straight-curve $-1 -73.874324777977847 11.263557955352276 43.522348637760437 0 0 -1 I I #
point $-1 -73.874324777977847 11.263557955352276 9.5220741008579211 #
straight-curve $-1 -73.874324777977847 3.3472224155793597 2.2995551038304565 0 -1 0 I I #
point $-1 -73.874324777977847 11.263557955352276 2.2995551038304547 #
point $-1 -67.399929266937008 4.7362534922186228 3.1479606639913502 #
point $-1 -67.399929266937008 8.6526361700988161 3.1479606639913502 #
straight-curve $-1 -73.874324777977847 24.636750678286113 43.522348637760437 0 0 -1 I I #
point $-1 -73.874324777977847 24.636750678286113 9.5220741008579211 #
straight-curve $-1 -73.874324777977847 10.033818777046278 2.2995551038304565 0 -1 0 I I #
point $-1 -73.874324777977847 24.636750678286113 2.2995551038304547 #
point $-1 -67.399929266937008 18.10944621515246 3.1479606639913502 #
point $-1 -67.399929266937008 22.025828893032653 3.1479606639913502 #
straight-curve $-1 -73.874324777977847 -45.040240588117499 -7.5710180595434888 0 0 -1 I I #
straight-curve $-1 73.874324777977847 -45.040240588117499 -7.5710180595434888 0 0 -1 I I #
straight-curve $-1 0 45.040240588117499 -9.5220741008579211 1 0 0 I I #
point $-1 73.874324777977847 45.040240588117499 -9.5220741008579211 #
End-of-ACIS-data 