500 0 5 0           
7 Unknown 11 ACIS 5.0 NT 24 Thu Mar 25 21:28:06 1999 
-1 9.9999999999999995e-007 1e-010 
body $-1 $5 $-1 $6 #
body $-1 $7 $-1 $8 #
body $-1 $9 $-1 $10 #
body $-1 $11 $-1 $12 #
body $-1 $13 $-1 $14 #
lump $-1 $-1 $15 $0 #
transform $-1 1 0 0 0 1 0 0 0 1 56.591082491531111 23.443149956718472 5.3546423908526286 1 rotate no_reflect no_shear #
lump $-1 $-1 $16 $1 #
transform $-1 1 0 0 0 1 0 0 0 1 56.591082491531111 23.443149956718472 5.3546423908526286 1 rotate no_reflect no_shear #
lump $-1 $-1 $17 $2 #
transform $-1 1 0 0 0 1 0 0 0 1 56.591082491531111 23.443149956718472 5.3546423908526286 1 rotate no_reflect no_shear #
lump $-1 $-1 $18 $3 #
transform $-1 1 0 0 0 1 0 0 0 1 56.591082491531111 23.443149956718472 5.3546423908526286 1 rotate no_reflect no_shear #
lump $-1 $-1 $19 $4 #
transform $-1 1 0 0 0 1 0 0 0 1 56.591082491531111 23.443149956718472 5.3546423908526286 1 rotate no_reflect no_shear #
shell $-1 $-1 $-1 $20 $-1 $5 #
shell $-1 $-1 $-1 $21 $-1 $7 #
shell $-1 $-1 $-1 $22 $-1 $9 #
shell $-1 $-1 $-1 $23 $-1 $11 #
shell $-1 $-1 $-1 $24 $-1 $13 #
face $-1 $25 $26 $15 $-1 $27 forward single #
face $-1 $28 $29 $16 $-1 $30 forward single #
face $-1 $31 $32 $17 $-1 $33 forward single #
face $-1 $34 $35 $18 $-1 $36 reversed single #
face $-1 $37 $38 $19 $-1 $39 forward single #
face $-1 $40 $41 $15 $-1 $42 reversed single #
loop $-1 $-1 $43 $20 #
plane-surface $-1 0 0 5.3546423908526286 0 0 1 1 0 0 forward_v I I I I #
face $-1 $44 $45 $16 $-1 $46 forward single #
loop $-1 $-1 $47 $21 #
plane-surface $-1 0 -23.443149956718472 0 0 1 0 0 0 1 forward_v I I I I #
face $-1 $48 $49 $17 $-1 $50 reversed single #
loop $-1 $-1 $51 $22 #
plane-surface $-1 0 23.443149956718472 0 0 -1 0 0 0 -1 forward_v I I I I #
face $-1 $52 $53 $18 $-1 $54 reversed single #
loop $-1 $-1 $55 $23 #
plane-surface $-1 -118.23450841646982 -6.2966608191813549 95.291767648035432 0 1 0 -0.54463904215088732 0 0.83867056331134215 forward_v I I I I #
face $-1 $56 $57 $19 $-1 $58 forward single #
loop $-1 $59 $60 $24 #
cone-surface $-1 -51.801061240441868 -2.8220661944509331 1.3966240373150098 0.54463904215088732 0 -0.83867056331134215 1.2580058449670133 0 0.81695856322633098 1 I I 0 1 1.5 forward I I I I #
face $-1 $61 $62 $15 $-1 $63 reversed single #
loop $-1 $-1 $64 $25 #
plane-surface $-1 0 0 -5.3546423908526286 0 0 1 1 0 0 forward_v I I I I #
coedge $-1 $65 $66 $67 $68 forward $26 $-1 #
face $-1 $69 $70 $16 $-1 $71 reversed single #
loop $-1 $-1 $72 $28 #
plane-surface $-1 0 0 5.3546423908526286 0 0 1 1 0 0 forward_v I I I I #
coedge $-1 $73 $74 $75 $76 forward $29 $-1 #
face $-1 $77 $78 $17 $-1 $79 reversed single #
loop $-1 $-1 $80 $31 #
plane-surface $-1 56.591082491531111 0 0 -1 0 0 0 0 1 forward_v I I I I #
coedge $-1 $81 $82 $83 $84 forward $32 $-1 #
face $-1 $85 $86 $18 $-1 $87 reversed single #
loop $-1 $-1 $88 $34 #
plane-surface $-1 -56.591082491531111 -2.8220661944509331 0.36921758489337719 -0.54463904215088732 0 0.83867056331134215 0.83867056331134215 0 0.54463904215088732 forward_v I I I I #
coedge $-1 $89 $90 $91 $92 reversed $35 $-1 #
face $-1 $-1 $93 $19 $-1 $94 forward single #
loop $-1 $95 $96 $37 #
cone-surface $-1 -50.441001130453273 -2.8220661944509331 -0.69768483572648243 0.54463904215088732 0 -0.83867056331134215 0.62900292248350664 0 0.40847928161316549 1 I I -0.70710678118654757 0.70710678118654757 0.75 forward I I I I #
loop $-1 $-1 $97 $24 #
coedge $-1 $60 $60 $98 $99 reversed $38 $-1 #
face $-1 $100 $101 $15 $-1 $102 reversed single #
loop $-1 $-1 $103 $40 #
plane-surface $-1 0 -23.443149956718472 0 0 1 0 0 0 1 forward_v I I I I #
coedge $-1 $104 $105 $106 $107 forward $41 $-1 #
coedge $-1 $108 $43 $109 $110 forward $26 $-1 #
coedge $-1 $43 $108 $111 $112 forward $26 $-1 #
coedge $-1 $113 $114 $43 $68 reversed $115 $-1 #
edge $-1 $116 -23.443149956718472 $117 23.443149956718472 $67 $118 forward 7 unknown #
face $-1 $119 $120 $16 $-1 $121 reversed single #
loop $-1 $-1 $122 $44 #
plane-surface $-1 -56.591082491531111 0 0 1 0 0 0 0 -1 forward_v I I I I #
coedge $-1 $123 $124 $125 $126 forward $45 $-1 #
coedge $-1 $125 $47 $122 $127 reversed $29 $-1 #
coedge $-1 $47 $125 $128 $129 reversed $29 $-1 #
coedge $-1 $130 $131 $47 $76 reversed $120 $-1 #
edge $-1 $132 -56.591082491531111 $133 56.591082491531111 $75 $134 forward 7 unknown #
face $-1 $135 $136 $17 $-1 $137 reversed single #
loop $-1 $-1 $138 $48 #
plane-surface $-1 0 25.517351177220512 2.3546423908526286 0 0 1 1 0 0 forward_v I I I I #
coedge $-1 $139 $140 $81 $141 forward $49 $-1 #
coedge $-1 $142 $51 $80 $141 reversed $32 $-1 #
coedge $-1 $51 $142 $143 $144 reversed $32 $-1 #
coedge $-1 $145 $138 $51 $84 reversed $78 $-1 #
edge $-1 $146 -56.591082491531111 $147 56.591082491531111 $83 $148 forward 7 unknown #
face $-1 $149 $150 $18 $-1 $151 reversed single #
loop $-1 $-1 $152 $52 #
plane-surface $-1 -118.23450841646982 0.6525284302794887 95.291767648035432 0 -1 0 0.54463904215088732 0 -0.83867056331134215 forward_v I I I I #
coedge $-1 $153 $154 $155 $156 reversed $53 $-1 #
coedge $-1 $90 $55 $157 $158 reversed $35 $-1 #
coedge $-1 $55 $89 $153 $159 reversed $35 $-1 #
coedge $-1 $155 $160 $55 $92 forward $161 $-1 #
edge $-1 $162 2.5261717167038 $163 10.203052562131404 $91 $164 forward 7 unknown #
loop $-1 $-1 $98 $56 #
plane-surface $-1 -56.591082491531111 -2.8220661944509331 0.36921758489337719 -0.54463904215088732 0 0.83867056331134215 0.83867056331134215 0 0.54463904215088732 forward_v I I I I #
loop $-1 $-1 $165 $37 #
coedge $-1 $96 $96 $97 $166 reversed $57 $-1 #
coedge $-1 $97 $97 $96 $166 forward $59 $-1 #
coedge $-1 $98 $98 $60 $99 forward $93 $-1 #
edge $-1 $167 0 $167 6.2831853071796004 $98 $168 forward 7 unknown #
face $-1 $169 $170 $15 $-1 $171 reversed single #
loop $-1 $-1 $172 $61 #
plane-surface $-1 -56.591082491531111 0 0 1 0 0 0 0 -1 forward_v I I I I #
coedge $-1 $173 $111 $174 $175 forward $62 $-1 #
coedge $-1 $176 $64 $173 $177 forward $41 $-1 #
coedge $-1 $64 $176 $178 $179 forward $41 $-1 #
coedge $-1 $114 $113 $64 $107 reversed $115 $-1 #
edge $-1 $180 -23.443149956718472 $181 23.443149956718472 $106 $182 forward 7 unknown #
coedge $-1 $66 $65 $183 $184 forward $26 $-1 #
coedge $-1 $185 $186 $65 $110 reversed $170 $-1 #
edge $-1 $117 -56.591082491531111 $187 56.591082491531111 $109 $188 forward 7 unknown #
coedge $-1 $103 $189 $66 $112 reversed $62 $-1 #
edge $-1 $190 -56.591082491531111 $116 56.591082491531111 $111 $191 forward 7 unknown #
coedge $-1 $106 $67 $189 $192 forward $115 $-1 #
coedge $-1 $67 $106 $185 $193 reversed $115 $-1 #
loop $-1 $-1 $113 $169 #
vertex $-1 $68 $194 #
vertex $-1 $68 $195 #
straight-curve $-1 56.591082491531111 0 5.3546423908526286 0 1 0 I I #
face $-1 $196 $197 $16 $-1 $198 reversed single #
loop $-1 $-1 $130 $69 #
plane-surface $-1 0 -25.517351177220512 2.3546423908526286 0 0 1 1 0 0 forward_v I I I I #
coedge $-1 $199 $200 $73 $127 forward $70 $-1 #
coedge $-1 $201 $72 $200 $202 forward $45 $-1 #
coedge $-1 $72 $201 $203 $204 forward $45 $-1 #
coedge $-1 $74 $73 $72 $126 reversed $29 $-1 #
edge $-1 $205 -56.591082491531111 $206 56.591082491531111 $72 $207 forward 7 unknown #
edge $-1 $206 -5.3546423908526286 $133 -2.3546423908526286 $122 $208 forward 7 unknown #
coedge $-1 $203 $209 $74 $129 forward $210 $-1 #
edge $-1 $132 2.3546423908526286 $205 5.3546423908526286 $128 $211 forward 7 unknown #
coedge $-1 $212 $75 $209 $213 forward $120 $-1 #
coedge $-1 $75 $212 $199 $214 forward $120 $-1 #
vertex $-1 $129 $215 #
vertex $-1 $127 $216 #
straight-curve $-1 0 -23.443149956718472 2.3546423908526286 -1 0 0 I I #
face $-1 $217 $218 $17 $-1 $219 forward single #
loop $-1 $-1 $220 $77 #
plane-surface $-1 0 27.591552397722552 3.8546423908526286 0 -1 0 0 0 -1 forward_v I I I I #
coedge $-1 $83 $221 $139 $222 forward $78 $-1 #
coedge $-1 $223 $80 $138 $222 reversed $49 $-1 #
coedge $-1 $80 $223 $224 $225 reversed $49 $-1 #
edge $-1 $226 -5.3546423908526286 $147 -2.3546423908526286 $80 $227 forward 7 unknown #
coedge $-1 $82 $81 $228 $229 reversed $32 $-1 #
coedge $-1 $230 $231 $82 $144 forward $232 $-1 #
edge $-1 $146 2.3546423908526286 $233 5.3546423908526286 $143 $234 forward 7 unknown #
coedge $-1 $221 $83 $231 $235 forward $78 $-1 #
vertex $-1 $144 $236 #
vertex $-1 $141 $237 #
straight-curve $-1 0 23.443149956718472 2.3546423908526286 1 0 0 I I #
face $-1 $-1 $161 $18 $-1 $238 forward single #
loop $-1 $-1 $239 $85 #
plane-surface $-1 -56.591082491531111 0 0 1 0 0 0 0 -1 forward_v I I I I #
coedge $-1 $240 $241 $242 $243 reversed $86 $-1 #
coedge $-1 $244 $88 $90 $159 forward $53 $-1 #
coedge $-1 $88 $244 $240 $245 forward $53 $-1 #
coedge $-1 $242 $91 $88 $156 forward $161 $-1 #
edge $-1 $163 -4.8856277219558883 $246 2.0635615275049553 $155 $247 forward 7 unknown #
coedge $-1 $248 $249 $89 $158 forward $150 $-1 #
edge $-1 $250 -47.276666239124339 $162 -42.291241433165084 $157 $251 forward 7 unknown #
edge $-1 $163 -9.1536309741417412 $250 0 $90 $252 forward 7 unknown #
coedge $-1 $91 $242 $248 $253 forward $161 $-1 #
loop $-1 $-1 $242 $149 #
vertex $-1 $158 $254 #
vertex $-1 $92 $255 #
straight-curve $-1 -59.117254208234911 -6.2966608191813549 5.3546423908526322 1 0 0 I I #
coedge $-1 $165 $165 $-1 $256 reversed $95 $-1 #
edge $-1 $257 0 $257 6.2831853071796004 $96 $258 forward 7 unknown #
vertex $-1 $99 $259 #
ellipse-curve $-1 -52.752642068817309 -2.8220661944509331 2.8619299878730051 -0.54463904215088732 0 0.83867056331134215 1.2580058449670133 0 0.81695856322633098 1 I I #
face $-1 $-1 $115 $15 $-1 $260 reversed single #
loop $-1 $-1 $185 $100 #
plane-surface $-1 0 23.443149956718472 0 0 -1 0 0 0 -1 forward_v I I I I #
coedge $-1 $261 $183 $186 $262 forward $101 $-1 #
coedge $-1 $189 $103 $104 $177 reversed $62 $-1 #
coedge $-1 $183 $261 $103 $175 reversed $101 $-1 #
edge $-1 $190 -5.3546423908526286 $263 5.3546423908526286 $174 $264 forward 7 unknown #
coedge $-1 $105 $104 $261 $265 forward $41 $-1 #
edge $-1 $181 -56.591082491531111 $263 56.591082491531111 $173 $266 forward 7 unknown #
coedge $-1 $186 $185 $105 $179 reversed $170 $-1 #
edge $-1 $267 -56.591082491531111 $180 56.591082491531111 $178 $268 forward 7 unknown #
vertex $-1 $107 $269 #
vertex $-1 $192 $270 #
straight-curve $-1 56.591082491531111 0 -5.3546423908526286 0 -1 0 I I #
coedge $-1 $172 $174 $108 $184 reversed $101 $-1 #
edge $-1 $187 -23.443149956718472 $190 23.443149956718472 $183 $271 forward 7 unknown #
coedge $-1 $178 $109 $114 $193 forward $170 $-1 #
coedge $-1 $109 $178 $172 $262 reversed $170 $-1 #
vertex $-1 $110 $272 #
straight-curve $-1 0 23.443149956718472 5.3546423908526286 -1 0 0 I I #
coedge $-1 $111 $173 $113 $192 reversed $62 $-1 #
vertex $-1 $184 $273 #
straight-curve $-1 0 -23.443149956718472 5.3546423908526286 1 0 0 I I #
edge $-1 $116 -5.3546423908526286 $181 5.3546423908526286 $113 $274 forward 7 unknown #
edge $-1 $117 -5.3546423908526286 $180 5.3546423908526286 $114 $275 forward 7 unknown #
point $-1 56.591082491531111 -23.443149956718472 5.3546423908526286 #
point $-1 56.591082491531111 23.443149956718472 5.3546423908526286 #
face $-1 $-1 $210 $16 $-1 $276 reversed single #
loop $-1 $-1 $277 $119 #
plane-surface $-1 0 -27.591552397722552 3.8546423908526286 0 1 0 0 0 1 forward_v I I I I #
coedge $-1 $278 $122 $131 $214 reversed $70 $-1 #
coedge $-1 $122 $278 $123 $202 reversed $70 $-1 #
coedge $-1 $124 $123 $279 $280 forward $45 $-1 #
edge $-1 $206 23.443149956718472 $281 27.591552397722552 $200 $282 forward 7 unknown #
coedge $-1 $283 $128 $124 $204 reversed $210 $-1 #
edge $-1 $284 -27.591552397722552 $205 -23.443149956718472 $203 $285 forward 7 unknown #
vertex $-1 $129 $286 #
vertex $-1 $202 $287 #
straight-curve $-1 0 -23.443149956718472 5.3546423908526286 -1 0 0 I I #
straight-curve $-1 -56.591082491531111 -23.443149956718472 0 0 0 -1 I I #
coedge $-1 $128 $283 $130 $213 reversed $210 $-1 #
loop $-1 $-1 $128 $196 #
straight-curve $-1 56.591082491531111 -23.443149956718472 0 0 0 1 I I #
coedge $-1 $131 $130 $288 $289 forward $120 $-1 #
edge $-1 $132 -2.0742012205020401 $290 2.0742012205020401 $209 $291 forward 7 unknown #
edge $-1 $292 -2.0742012205020401 $133 2.0742012205020401 $199 $293 forward 7 unknown #
point $-1 56.591082491531111 -23.443149956718472 2.3546423908526286 #
point $-1 -56.591082491531111 -23.443149956718472 2.3546423908526286 #
face $-1 $-1 $232 $17 $-1 $294 reversed single #
loop $-1 $-1 $228 $135 #
plane-surface $-1 0 0 5.3546423908526286 0 0 1 1 0 0 forward_v I I I I #
coedge $-1 $295 $296 $223 $297 forward $136 $-1 #
coedge $-1 $138 $145 $295 $298 forward $78 $-1 #
edge $-1 $299 -2.0742012205020401 $147 2.0742012205020401 $139 $300 forward 7 unknown #
coedge $-1 $140 $139 $220 $297 reversed $49 $-1 #
coedge $-1 $301 $228 $140 $225 forward $218 $-1 #
edge $-1 $226 23.443149956718472 $302 27.591552397722552 $140 $303 forward 7 unknown #
vertex $-1 $225 $304 #
straight-curve $-1 56.591082491531111 23.443149956718472 0 0 0 -1 I I #
coedge $-1 $224 $305 $142 $229 forward $218 $-1 #
edge $-1 $233 -56.591082491531111 $226 56.591082491531111 $228 $306 forward 7 unknown #
coedge $-1 $307 $143 $305 $308 reversed $232 $-1 #
coedge $-1 $143 $307 $145 $235 reversed $232 $-1 #
loop $-1 $-1 $143 $217 #
vertex $-1 $144 $309 #
straight-curve $-1 -56.591082491531111 23.443149956718472 0 0 0 1 I I #
edge $-1 $146 -2.0742012205020401 $310 2.0742012205020401 $231 $311 forward 7 unknown #
point $-1 -56.591082491531111 23.443149956718472 2.3546423908526286 #
point $-1 56.591082491531111 23.443149956718472 2.3546423908526286 #
plane-surface $-1 0 0 5.3546423908526286 0 0 1 1 0 0 forward_v I I I I #
coedge $-1 $249 $248 $241 $312 forward $150 $-1 #
coedge $-1 $241 $152 $154 $245 reversed $86 $-1 #
coedge $-1 $152 $240 $239 $312 reversed $86 $-1 #
coedge $-1 $160 $155 $152 $243 forward $161 $-1 #
edge $-1 $246 -10.203052562131404 $313 -2.5261717167038 $242 $314 forward 7 unknown #
coedge $-1 $154 $153 $249 $315 reversed $53 $-1 #
edge $-1 $316 0 $246 9.1536309741417412 $240 $317 forward 7 unknown #
vertex $-1 $156 $318 #
straight-curve $-1 -48.914201646103507 -1.4110330972254665 5.3546423908526286 0 1 0 I I #
coedge $-1 $239 $157 $160 $253 reversed $150 $-1 #
coedge $-1 $157 $239 $244 $315 forward $150 $-1 #
vertex $-1 $158 $319 #
straight-curve $-1 -56.591082491531111 -6.2966608191813549 47.645883824017716 0 0 1 I I #
straight-curve $-1 -56.591082491531111 -6.2966608191813549 0.36921758489337719 -0.83867056331134215 0 -0.54463904215088732 I I #
edge $-1 $313 -0.6525284302794887 $162 6.2966608191813549 $248 $320 forward 7 unknown #
point $-1 -56.591082491531111 -6.2966608191813549 5.3546423908526286 #
point $-1 -48.914201646103507 -6.2966608191813549 5.3546423908526286 #
edge $-1 $321 1 $321 0 $165 $-1 forward 7 unknown #
vertex $-1 $166 $322 #
ellipse-curve $-1 -50.849480412066441 -2.8220661944509331 -0.068681913242975789 -0.54463904215088732 0 0.83867056331134215 1.2580058449670133 0 0.81695856322633098 1 I I #
point $-1 -51.494636223850286 -2.8220661944509331 3.6788885510993268 #
plane-surface $-1 56.591082491531111 0 0 -1 0 0 0 0 1 forward_v I I I I #
coedge $-1 $174 $172 $176 $265 reversed $101 $-1 #
edge $-1 $187 -5.3546423908526286 $267 5.3546423908526286 $186 $323 forward 7 unknown #
vertex $-1 $265 $324 #
straight-curve $-1 -56.591082491531111 -23.443149956718472 0 0 0 -1 I I #
edge $-1 $263 -23.443149956718472 $267 23.443149956718472 $261 $325 forward 7 unknown #
straight-curve $-1 0 -23.443149956718472 -5.3546423908526286 -1 0 0 I I #
vertex $-1 $179 $326 #
straight-curve $-1 0 23.443149956718472 -5.3546423908526286 1 0 0 I I #
point $-1 56.591082491531111 23.443149956718472 -5.3546423908526286 #
point $-1 56.591082491531111 -23.443149956718472 -5.3546423908526286 #
straight-curve $-1 -56.591082491531111 0 5.3546423908526286 0 -1 0 I I #
point $-1 -56.591082491531111 23.443149956718472 5.3546423908526286 #
point $-1 -56.591082491531111 -23.443149956718472 5.3546423908526286 #
straight-curve $-1 56.591082491531111 -23.443149956718472 0 0 0 -1 I I #
straight-curve $-1 56.591082491531111 23.443149956718472 0 0 0 -1 I I #
plane-surface $-1 56.591082491531111 0 0 -1 0 0 0 0 1 forward_v I I I I #
coedge $-1 $288 $279 $278 $327 forward $197 $-1 #
coedge $-1 $200 $199 $277 $327 reversed $70 $-1 #
coedge $-1 $277 $328 $201 $280 reversed $197 $-1 #
edge $-1 $281 -56.591082491531111 $284 56.591082491531111 $279 $329 forward 7 unknown #
vertex $-1 $202 $330 #
straight-curve $-1 -56.591082491531111 0 5.3546423908526286 0 -1 0 I I #
coedge $-1 $209 $203 $328 $331 forward $210 $-1 #
vertex $-1 $204 $332 #
straight-curve $-1 56.591082491531111 0 5.3546423908526286 0 1 0 I I #
point $-1 56.591082491531111 -23.443149956718472 5.3546423908526286 #
point $-1 -56.591082491531111 -23.443149956718472 5.3546423908526286 #
coedge $-1 $328 $277 $212 $289 reversed $197 $-1 #
edge $-1 $290 -56.591082491531111 $292 56.591082491531111 $288 $333 forward 7 unknown #
vertex $-1 $331 $334 #
straight-curve $-1 56.591082491531111 -25.517351177220512 2.3546423908526286 0 -1 0 I I #
vertex $-1 $214 $335 #
straight-curve $-1 -56.591082491531111 -25.517351177220512 2.3546423908526286 0 1 0 I I #
plane-surface $-1 -56.591082491531111 0 0 1 0 0 0 0 -1 forward_v I I I I #
coedge $-1 $336 $220 $221 $298 reversed $136 $-1 #
coedge $-1 $220 $336 $301 $337 reversed $136 $-1 #
edge $-1 $302 -1.5 $299 1.5 $223 $338 forward 7 unknown #
edge $-1 $310 -56.591082491531111 $299 56.591082491531111 $295 $339 forward 7 unknown #
vertex $-1 $222 $340 #
straight-curve $-1 56.591082491531111 25.517351177220512 2.3546423908526286 0 -1 0 I I #
coedge $-1 $305 $224 $296 $337 forward $218 $-1 #
vertex $-1 $225 $341 #
straight-curve $-1 56.591082491531111 0 5.3546423908526286 0 1 0 I I #
point $-1 56.591082491531111 23.443149956718472 5.3546423908526286 #
coedge $-1 $228 $301 $230 $308 forward $218 $-1 #
straight-curve $-1 0 23.443149956718472 5.3546423908526286 1 0 0 I I #
coedge $-1 $231 $230 $336 $342 forward $232 $-1 #
edge $-1 $343 -27.591552397722552 $233 -23.443149956718472 $230 $344 forward 7 unknown #
point $-1 -56.591082491531111 23.443149956718472 5.3546423908526286 #
vertex $-1 $298 $345 #
straight-curve $-1 -56.591082491531111 25.517351177220512 2.3546423908526286 0 1 0 I I #
edge $-1 $313 42.291241433165084 $316 47.276666239124339 $239 $346 forward 7 unknown #
vertex $-1 $253 $347 #
straight-curve $-1 -59.117254208234911 0.6525284302794887 5.3546423908526322 -1 0 0 I I #
edge $-1 $316 -2.0635615275049553 $250 4.8856277219558883 $249 $348 forward 7 unknown #
vertex $-1 $315 $349 #
straight-curve $-1 -56.591082491531111 0.6525284302794887 0.36921758489337719 0.83867056331134215 0 0.54463904215088732 I I #
point $-1 -48.914201646103507 0.6525284302794887 5.3546423908526286 #
point $-1 -56.591082491531111 -6.2966608191813549 0.36921758489337719 #
straight-curve $-1 -56.591082491531111 0 5.3546423908526286 0 -1 0 I I #
vertex $-1 $256 $350 #
point $-1 -49.591474567099425 -2.8220661944509331 0.7482766499833553 #
straight-curve $-1 -56.591082491531111 23.443149956718472 0 0 0 -1 I I #
point $-1 -56.591082491531111 -23.443149956718472 -5.3546423908526286 #
straight-curve $-1 -56.591082491531111 0 -5.3546423908526286 0 1 0 I I #
point $-1 -56.591082491531111 23.443149956718472 -5.3546423908526286 #
edge $-1 $281 -1.5 $292 1.5 $278 $351 forward 7 unknown #
coedge $-1 $279 $288 $283 $331 reversed $197 $-1 #
straight-curve $-1 0 -27.591552397722552 5.3546423908526286 1 0 0 I I #
point $-1 -56.591082491531111 -27.591552397722552 5.3546423908526286 #
edge $-1 $284 -1.5 $290 1.5 $283 $352 forward 7 unknown #
point $-1 56.591082491531111 -27.591552397722552 5.3546423908526286 #
straight-curve $-1 0 -27.591552397722552 2.3546423908526286 -1 0 0 I I #
point $-1 56.591082491531111 -27.591552397722552 2.3546423908526286 #
point $-1 -56.591082491531111 -27.591552397722552 2.3546423908526286 #
coedge $-1 $296 $295 $307 $342 reversed $136 $-1 #
edge $-1 $302 -56.591082491531111 $343 56.591082491531111 $296 $353 forward 7 unknown #
straight-curve $-1 56.591082491531111 27.591552397722552 3.8546423908526286 0 0 -1 I I #
straight-curve $-1 0 27.591552397722552 2.3546423908526286 1 0 0 I I #
point $-1 56.591082491531111 27.591552397722552 2.3546423908526286 #
point $-1 56.591082491531111 27.591552397722552 5.3546423908526286 #
edge $-1 $343 -1.5 $310 1.5 $336 $354 forward 7 unknown #
vertex $-1 $337 $355 #
straight-curve $-1 -56.591082491531111 0 5.3546423908526286 0 -1 0 I I #
point $-1 -56.591082491531111 27.591552397722552 2.3546423908526286 #
straight-curve $-1 -56.591082491531111 0.6525284302794887 47.645883824017716 0 0 -1 I I #
point $-1 -56.591082491531111 0.6525284302794887 5.3546423908526286 #
straight-curve $-1 -56.591082491531111 -1.4110330972254665 0.36921758489337531 0 -1 0 I I #
point $-1 -56.591082491531111 0.6525284302794887 0.36921758489337719 #
point $-1 -50.032521848840105 -2.8220661944509331 -1.3266877582099892 #
straight-curve $-1 -56.591082491531111 -27.591552397722552 3.8546423908526286 0 0 -1 I I #
straight-curve $-1 56.591082491531111 -27.591552397722552 3.8546423908526286 0 0 -1 I I #
straight-curve $-1 0 27.591552397722552 5.3546423908526286 -1 0 0 I I #
straight-curve $-1 -56.591082491531111 27.591552397722552 3.8546423908526286 0 0 -1 I I #
point $-1 -56.591082491531111 27.591552397722552 5.3546423908526286 #
End-of-ACIS-data 