500 0 9 0           
7 Unknown 11 ACIS 5.0 NT 24 Fri Mar 26 14:38:07 1999 
-1 9.9999999999999995e-007 1e-010 
body $-1 $9 $-1 $10 #
body $-1 $11 $-1 $12 #
body $-1 $13 $-1 $14 #
body $-1 $15 $-1 $16 #
body $-1 $17 $-1 $18 #
body $-1 $19 $-1 $20 #
body $-1 $21 $-1 $22 #
body $-1 $23 $-1 $24 #
body $-1 $25 $-1 $26 #
lump $-1 $-1 $27 $0 #
transform $-1 1 0 0 0 1 0 0 0 1 66.392406994842375 30.966981225753791 13.254741205708244 1 rotate no_reflect no_shear #
lump $-1 $-1 $28 $1 #
transform $-1 1 0 0 0 1 0 0 0 1 66.392406994842375 30.966981225753791 13.254741205708244 1 rotate no_reflect no_shear #
lump $-1 $-1 $29 $2 #
transform $-1 1 0 0 0 1 0 0 0 1 66.392406994842375 30.966981225753791 13.254741205708244 1 rotate no_reflect no_shear #
lump $-1 $-1 $30 $3 #
transform $-1 1 0 0 0 1 0 0 0 1 66.392406994842375 30.966981225753791 13.254741205708244 1 rotate no_reflect no_shear #
lump $-1 $-1 $31 $4 #
transform $-1 1 0 0 0 1 0 0 0 1 66.392406994842375 30.966981225753791 13.254741205708244 1 rotate no_reflect no_shear #
lump $-1 $-1 $32 $5 #
transform $-1 1 0 0 0 1 0 0 0 1 66.392406994842375 30.966981225753791 13.254741205708244 1 rotate no_reflect no_shear #
lump $-1 $-1 $33 $6 #
transform $-1 1 0 0 0 1 0 0 0 1 66.392406994842375 30.966981225753791 13.254741205708244 1 rotate no_reflect no_shear #
lump $-1 $-1 $34 $7 #
transform $-1 1 0 0 0 1 0 0 0 1 66.392406994842375 30.966981225753791 13.254741205708244 1 rotate no_reflect no_shear #
lump $-1 $-1 $35 $8 #
transform $-1 1 0 0 0 1 0 0 0 1 66.392406994842375 30.966981225753791 13.254741205708244 1 rotate no_reflect no_shear #
shell $-1 $-1 $-1 $36 $-1 $9 #
shell $-1 $-1 $-1 $37 $-1 $11 #
shell $-1 $-1 $-1 $38 $-1 $13 #
shell $-1 $-1 $-1 $39 $-1 $15 #
shell $-1 $-1 $-1 $40 $-1 $17 #
shell $-1 $-1 $-1 $41 $-1 $19 #
shell $-1 $-1 $-1 $42 $-1 $21 #
shell $-1 $-1 $-1 $43 $-1 $23 #
shell $-1 $-1 $-1 $44 $-1 $25 #
face $-1 $45 $46 $27 $-1 $47 forward single #
face $-1 $48 $49 $28 $-1 $50 forward single #
face $-1 $51 $52 $29 $-1 $53 forward single #
face $-1 $54 $55 $30 $-1 $56 reversed single #
face $-1 $57 $58 $31 $-1 $59 forward single #
face $-1 $60 $61 $32 $-1 $62 forward single #
face $-1 $63 $64 $33 $-1 $65 reversed single #
face $-1 $66 $67 $34 $-1 $68 forward single #
face $-1 $69 $70 $35 $-1 $71 forward single #
face $-1 $72 $73 $27 $-1 $74 reversed single #
loop $-1 $-1 $75 $36 #
plane-surface $-1 0 0 13.254741205708244 0 0 1 1 0 0 forward_v I I I I #
face $-1 $76 $77 $28 $-1 $78 reversed single #
loop $-1 $-1 $79 $37 #
plane-surface $-1 0 -30.966981225753791 0 0 1 0 0 0 1 forward_v I I I I #
face $-1 $80 $81 $29 $-1 $82 reversed single #
loop $-1 $-1 $83 $38 #
plane-surface $-1 0 30.966981225753791 0 0 -1 0 0 0 -1 forward_v I I I I #
face $-1 $84 $85 $30 $-1 $86 reversed single #
loop $-1 $-1 $87 $39 #
plane-surface $-1 30.561134420333602 2.7060423236542803 193.54506964265229 0 -1 0 -0.55919291073839883 0 -0.82903756765294845 forward_v I I I I #
face $-1 $88 $89 $31 $-1 $90 forward single #
loop $-1 $91 $92 $40 #
cone-surface $-1 63.113888188203369 -4.7418875065483412 10.817423716350735 -0.55919291073839883 0 -0.82903756765294845 0.41451878382647422 0 -0.27959645536919941 1 I I 0 1 0.5 forward I I I I #
face $-1 $93 $94 $32 $-1 $95 forward single #
loop $-1 $96 $97 $41 #
cone-surface $-1 63.113888188203369 -0.27312960842676759 10.817423716350735 -0.55919291073839883 0 -0.82903756765294845 0.41451878382647422 0 -0.27959645536919941 1 I I 0 1 0.5 forward I I I I #
face $-1 $98 $99 $33 $-1 $100 reversed single #
loop $-1 $-1 $101 $42 #
plane-surface $-1 -140.64473363159107 -7.7210594386293891 119.29274300590363 0 1 0 -0.55919291073839883 0 0.82903756765294845 forward_v I I I I #
face $-1 $102 $103 $34 $-1 $104 forward single #
loop $-1 $105 $106 $43 #
cone-surface $-1 -63.113888188203404 -4.7418875065483412 10.817423716350728 0.55919291073839883 0 -0.82903756765294845 0.41451878382647422 0 0.27959645536919941 1 I I 0 1 0.5 forward I I I I #
face $-1 $107 $108 $35 $-1 $109 forward single #
loop $-1 $110 $111 $44 #
cone-surface $-1 -63.113888188203404 -0.27312960842676759 10.817423716350728 0.55919291073839883 0 -0.82903756765294845 0.41451878382647422 0 0.27959645536919941 1 I I 0 1 0.5 forward I I I I #
face $-1 $112 $113 $27 $-1 $114 reversed single #
loop $-1 $-1 $115 $45 #
plane-surface $-1 0 0 -13.254741205708244 0 0 1 1 0 0 forward_v I I I I #
coedge $-1 $116 $117 $118 $119 forward $46 $-1 #
face $-1 $120 $121 $28 $-1 $122 forward single #
loop $-1 $-1 $123 $48 #
plane-surface $-1 -66.392406994842375 0 0 1 0 0 0 0 -1 forward_v I I I I #
coedge $-1 $124 $125 $126 $127 forward $49 $-1 #
face $-1 $128 $129 $29 $-1 $130 forward single #
loop $-1 $-1 $131 $51 #
plane-surface $-1 66.392406994842375 0 0 -1 0 0 0 0 1 forward_v I I I I #
coedge $-1 $132 $133 $134 $135 forward $52 $-1 #
face $-1 $136 $137 $30 $-1 $138 reversed single #
loop $-1 $-1 $139 $54 #
plane-surface $-1 -43.691192216415075 -2.5075085574875544 83.461470431394844 0.55919291073839883 0 0.82903756765294845 0.82903756765294845 0 -0.55919291073839883 forward_v I I I I #
coedge $-1 $140 $141 $142 $143 reversed $55 $-1 #
face $-1 $-1 $144 $31 $-1 $145 forward single #
loop $-1 $146 $147 $57 #
cone-surface $-1 62.694493505149566 -4.7418875065483412 10.195645540611023 -0.55919291073839883 0 -0.82903756765294845 0.20725939191323711 0 -0.13979822768459971 1 I I -0.70710678118654746 0.70710678118654746 0.25 forward I I I I #
loop $-1 $-1 $148 $40 #
coedge $-1 $92 $92 $149 $150 reversed $58 $-1 #
face $-1 $-1 $151 $32 $-1 $152 forward single #
loop $-1 $153 $154 $60 #
cone-surface $-1 62.694493505149566 -0.27312960842676759 10.195645540611023 -0.55919291073839883 0 -0.82903756765294845 0.20725939191323711 0 -0.13979822768459971 1 I I -0.70710678118654746 0.70710678118654746 0.25 forward I I I I #
loop $-1 $-1 $155 $41 #
coedge $-1 $97 $97 $156 $157 reversed $61 $-1 #
face $-1 $158 $159 $33 $-1 $160 reversed single #
loop $-1 $-1 $161 $63 #
plane-surface $-1 -66.392406994842389 -2.5075085574875544 9.2091437946461809 -0.55919291073839883 0 0.82903756765294845 0.82903756765294845 0 0.55919291073839883 forward_v I I I I #
coedge $-1 $162 $163 $164 $165 reversed $64 $-1 #
face $-1 $-1 $166 $34 $-1 $167 forward single #
loop $-1 $168 $169 $66 #
cone-surface $-1 -62.694493505149602 -4.7418875065483412 10.195645540611016 0.55919291073839883 0 -0.82903756765294845 0.20725939191323711 0 0.13979822768459971 1 I I -0.70710678118654746 0.70710678118654746 0.25 forward I I I I #
loop $-1 $-1 $170 $43 #
coedge $-1 $106 $106 $171 $172 reversed $67 $-1 #
face $-1 $-1 $173 $35 $-1 $174 forward single #
loop $-1 $175 $176 $69 #
cone-surface $-1 -62.694493505149602 -0.27312960842676759 10.195645540611016 0.55919291073839883 0 -0.82903756765294845 0.20725939191323711 0 0.13979822768459971 1 I I -0.70710678118654746 0.70710678118654746 0.25 forward I I I I #
loop $-1 $-1 $177 $44 #
coedge $-1 $111 $111 $178 $179 reversed $70 $-1 #
face $-1 $180 $181 $27 $-1 $182 reversed single #
loop $-1 $-1 $183 $72 #
plane-surface $-1 0 -30.966981225753791 0 0 1 0 0 0 1 forward_v I I I I #
coedge $-1 $184 $185 $186 $187 forward $73 $-1 #
coedge $-1 $188 $75 $189 $190 forward $46 $-1 #
coedge $-1 $75 $188 $191 $192 forward $46 $-1 #
coedge $-1 $193 $194 $75 $119 reversed $195 $-1 #
edge $-1 $196 -30.966981225753791 $197 30.966981225753791 $118 $198 forward 7 unknown #
face $-1 $199 $200 $28 $-1 $201 reversed single #
loop $-1 $-1 $202 $76 #
plane-surface $-1 0 -36.871641382563709 -0.87005116531447646 0 0 1 1 0 0 forward_v I I I I #
coedge $-1 $203 $204 $125 $205 forward $77 $-1 #
coedge $-1 $206 $79 $207 $208 reversed $49 $-1 #
coedge $-1 $79 $206 $123 $205 reversed $49 $-1 #
coedge $-1 $209 $202 $79 $127 reversed $121 $-1 #
edge $-1 $210 -66.392406994842375 $211 66.392406994842375 $126 $212 forward 7 unknown #
face $-1 $213 $214 $29 $-1 $215 reversed single #
loop $-1 $-1 $216 $80 #
plane-surface $-1 0 36.871641382563716 -0.87005116531447646 0 0 1 1 0 0 forward_v I I I I #
coedge $-1 $217 $218 $133 $219 forward $81 $-1 #
coedge $-1 $220 $83 $221 $222 reversed $52 $-1 #
coedge $-1 $83 $220 $131 $219 reversed $52 $-1 #
coedge $-1 $216 $223 $83 $135 reversed $129 $-1 #
edge $-1 $224 -66.392406994842375 $225 66.392406994842375 $134 $226 forward 7 unknown #
face $-1 $227 $228 $30 $-1 $229 forward single #
loop $-1 $-1 $230 $84 #
plane-surface $-1 30.561134420333602 -7.7210594386293891 193.54506964265229 0 1 0 0.55919291073839883 0 0.82903756765294845 forward_v I I I I #
coedge $-1 $231 $232 $233 $234 reversed $85 $-1 #
coedge $-1 $141 $87 $235 $236 reversed $55 $-1 #
coedge $-1 $87 $140 $231 $237 reversed $55 $-1 #
coedge $-1 $233 $238 $87 $143 forward $228 $-1 #
edge $-1 $239 -51.111839784675574 $240 -45.113995082136036 $142 $241 forward 7 unknown #
loop $-1 $-1 $149 $88 #
plane-surface $-1 -43.691192216415075 -2.5075085574875544 83.461470431394844 0.55919291073839883 0 0.82903756765294845 0.82903756765294845 0 -0.55919291073839883 forward_v I I I I #
loop $-1 $-1 $242 $57 #
coedge $-1 $147 $147 $148 $243 reversed $89 $-1 #
coedge $-1 $148 $148 $147 $243 forward $91 $-1 #
coedge $-1 $149 $149 $92 $150 forward $144 $-1 #
edge $-1 $244 0 $244 6.2831853071796004 $149 $245 forward 7 unknown #
loop $-1 $-1 $156 $93 #
plane-surface $-1 -43.691192216415075 -2.5075085574875544 83.461470431394844 0.55919291073839883 0 0.82903756765294845 0.82903756765294845 0 -0.55919291073839883 forward_v I I I I #
loop $-1 $-1 $246 $60 #
coedge $-1 $154 $154 $155 $247 reversed $94 $-1 #
coedge $-1 $155 $155 $154 $247 forward $96 $-1 #
coedge $-1 $156 $156 $97 $157 forward $151 $-1 #
edge $-1 $248 0 $248 6.2831853071796004 $156 $249 forward 7 unknown #
face $-1 $250 $251 $33 $-1 $252 reversed single #
loop $-1 $-1 $253 $98 #
plane-surface $-1 -140.64473363159107 2.7060423236542803 119.29274300590363 0 -1 0 0.55919291073839883 0 -0.82903756765294845 forward_v I I I I #
coedge $-1 $254 $255 $256 $257 reversed $99 $-1 #
coedge $-1 $163 $101 $258 $259 reversed $64 $-1 #
coedge $-1 $101 $162 $254 $260 reversed $64 $-1 #
coedge $-1 $256 $261 $101 $165 forward $262 $-1 #
edge $-1 $263 3.9299598209531581 $264 9.9278045234926608 $164 $265 forward 7 unknown #
loop $-1 $-1 $171 $102 #
plane-surface $-1 -66.392406994842389 -2.5075085574875544 9.2091437946461809 -0.55919291073839883 0 0.82903756765294845 0.82903756765294845 0 0.55919291073839883 forward_v I I I I #
loop $-1 $-1 $266 $66 #
coedge $-1 $169 $169 $170 $267 reversed $103 $-1 #
coedge $-1 $170 $170 $169 $267 forward $105 $-1 #
coedge $-1 $171 $171 $106 $172 forward $166 $-1 #
edge $-1 $268 0 $268 6.2831853071796004 $171 $269 forward 7 unknown #
loop $-1 $-1 $178 $107 #
plane-surface $-1 -66.392406994842389 -2.5075085574875544 9.2091437946461809 -0.55919291073839883 0 0.82903756765294845 0.82903756765294845 0 0.55919291073839883 forward_v I I I I #
loop $-1 $-1 $270 $69 #
coedge $-1 $176 $176 $177 $271 reversed $108 $-1 #
coedge $-1 $177 $177 $176 $271 forward $110 $-1 #
coedge $-1 $178 $178 $111 $179 forward $173 $-1 #
edge $-1 $272 0 $272 6.2831853071796004 $178 $273 forward 7 unknown #
face $-1 $274 $275 $27 $-1 $276 reversed single #
loop $-1 $-1 $277 $112 #
plane-surface $-1 -66.392406994842375 0 0 1 0 0 0 0 -1 forward_v I I I I #
coedge $-1 $278 $191 $279 $280 forward $113 $-1 #
coedge $-1 $281 $115 $278 $282 forward $73 $-1 #
coedge $-1 $115 $281 $283 $284 forward $73 $-1 #
coedge $-1 $194 $193 $115 $187 reversed $195 $-1 #
edge $-1 $285 -30.966981225753791 $286 30.966981225753791 $186 $287 forward 7 unknown #
coedge $-1 $117 $116 $288 $289 forward $46 $-1 #
coedge $-1 $290 $291 $116 $190 reversed $275 $-1 #
edge $-1 $197 -66.392406994842375 $292 66.392406994842375 $189 $293 forward 7 unknown #
coedge $-1 $183 $294 $117 $192 reversed $113 $-1 #
edge $-1 $295 -66.392406994842375 $196 66.392406994842375 $191 $296 forward 7 unknown #
coedge $-1 $186 $118 $294 $297 forward $195 $-1 #
coedge $-1 $118 $186 $290 $298 reversed $195 $-1 #
loop $-1 $-1 $193 $274 #
vertex $-1 $119 $299 #
vertex $-1 $119 $300 #
straight-curve $-1 66.392406994842375 0 13.254741205708244 0 1 0 I I #
face $-1 $301 $302 $28 $-1 $303 reversed single #
loop $-1 $-1 $304 $120 #
plane-surface $-1 0 -36.871641382563709 -7.6124253670572006 0 0 1 1 0 0 forward_v I I I I #
coedge $-1 $126 $305 $306 $307 forward $121 $-1 #
coedge $-1 $308 $123 $309 $310 reversed $77 $-1 #
coedge $-1 $123 $308 $209 $311 reversed $77 $-1 #
edge $-1 $210 0.87005116531447646 $312 7.6124253670572006 $123 $313 forward 7 unknown #
coedge $-1 $125 $124 $314 $315 forward $49 $-1 #
coedge $-1 $306 $316 $124 $208 forward $317 $-1 #
edge $-1 $318 -7.6124253670572006 $211 -0.87005116531447646 $207 $319 forward 7 unknown #
coedge $-1 $305 $126 $204 $311 forward $121 $-1 #
vertex $-1 $205 $320 #
vertex $-1 $307 $321 #
straight-curve $-1 0 -30.966981225753791 -0.87005116531447646 1 0 0 I I #
face $-1 $322 $323 $29 $-1 $324 reversed single #
loop $-1 $-1 $325 $128 #
plane-surface $-1 0 36.871641382563716 -7.6124253670572006 0 0 1 1 0 0 forward_v I I I I #
coedge $-1 $326 $134 $218 $327 forward $129 $-1 #
coedge $-1 $328 $131 $325 $329 reversed $81 $-1 #
coedge $-1 $131 $328 $216 $327 reversed $81 $-1 #
edge $-1 $224 0.87005116531447646 $330 7.6124253670572006 $131 $331 forward 7 unknown #
coedge $-1 $133 $132 $332 $333 forward $52 $-1 #
coedge $-1 $334 $335 $132 $222 forward $336 $-1 #
edge $-1 $337 -7.6124253670572006 $225 -0.87005116531447646 $221 $338 forward 7 unknown #
coedge $-1 $134 $326 $334 $339 forward $129 $-1 #
vertex $-1 $219 $340 #
vertex $-1 $339 $341 #
straight-curve $-1 0 30.966981225753791 -0.87005116531447646 -1 0 0 I I #
face $-1 $-1 $342 $30 $-1 $343 reversed single #
loop $-1 $-1 $142 $136 #
plane-surface $-1 0 0 13.254741205708244 0 0 1 1 0 0 forward_v I I I I #
coedge $-1 $344 $345 $346 $347 reversed $137 $-1 #
coedge $-1 $348 $139 $141 $237 forward $85 $-1 #
coedge $-1 $139 $348 $344 $349 forward $85 $-1 #
coedge $-1 $346 $142 $139 $234 forward $228 $-1 #
edge $-1 $240 -3.9597966023980575 $350 6.4673051598856119 $233 $351 forward 7 unknown #
coedge $-1 $352 $353 $140 $236 forward $342 $-1 #
edge $-1 $354 -87.56339102667998 $239 -83.517793615617904 $235 $355 forward 7 unknown #
edge $-1 $240 125.55010601436371 $354 132.78481398968475 $141 $356 forward 7 unknown #
coedge $-1 $142 $346 $352 $357 forward $228 $-1 #
vertex $-1 $236 $358 #
vertex $-1 $143 $359 #
straight-curve $-1 15.280567210166801 2.7060423236542803 13.254741205708243 -1 0 0 I I #
coedge $-1 $242 $242 $-1 $360 reversed $146 $-1 #
edge $-1 $361 0 $361 6.2831853071796004 $147 $362 forward 7 unknown #
vertex $-1 $150 $363 #
ellipse-curve $-1 63.393484643572577 -4.7418875065483412 11.231942500177221 0.55919291073839883 0 0.82903756765294845 0.41451878382647422 0 -0.27959645536919941 1 I I #
coedge $-1 $246 $246 $-1 $364 reversed $153 $-1 #
edge $-1 $365 0 $365 6.2831853071796004 $154 $366 forward 7 unknown #
vertex $-1 $157 $367 #
ellipse-curve $-1 63.393484643572577 -0.27312960842676759 11.231942500177221 0.55919291073839883 0 0.82903756765294845 0.41451878382647422 0 -0.27959645536919941 1 I I #
face $-1 $-1 $262 $33 $-1 $368 forward single #
loop $-1 $-1 $369 $158 #
plane-surface $-1 -66.392406994842375 0 0 1 0 0 0 0 -1 forward_v I I I I #
coedge $-1 $370 $371 $372 $373 reversed $159 $-1 #
coedge $-1 $374 $161 $163 $260 forward $99 $-1 #
coedge $-1 $161 $374 $370 $375 forward $99 $-1 #
coedge $-1 $372 $164 $161 $257 forward $262 $-1 #
edge $-1 $264 -6.4673051598856119 $376 3.9597966023980575 $256 $377 forward 7 unknown #
coedge $-1 $378 $379 $162 $259 forward $251 $-1 #
edge $-1 $380 -50.437227708305628 $263 -46.391630297243573 $258 $381 forward 7 unknown #
edge $-1 $264 -7.2347079753210091 $380 -1.6747963185031944e-014 $163 $382 forward 7 unknown #
coedge $-1 $164 $372 $378 $383 forward $262 $-1 #
loop $-1 $-1 $372 $250 #
vertex $-1 $259 $384 #
vertex $-1 $165 $385 #
straight-curve $-1 -70.322366815795533 -7.7210594386293891 13.254741205708243 1 0 0 I I #
coedge $-1 $266 $266 $-1 $386 reversed $168 $-1 #
edge $-1 $387 0 $387 6.2831853071796004 $169 $388 forward 7 unknown #
vertex $-1 $172 $389 #
ellipse-curve $-1 -63.39348464357262 -4.7418875065483412 11.231942500177222 -0.55919291073839883 0 0.82903756765294845 0.41451878382647422 0 0.27959645536919941 1 I I #
coedge $-1 $270 $270 $-1 $390 reversed $175 $-1 #
edge $-1 $391 0 $391 6.2831853071796004 $176 $392 forward 7 unknown #
vertex $-1 $179 $393 #
ellipse-curve $-1 -63.39348464357262 -0.27312960842676759 11.231942500177222 -0.55919291073839883 0 0.82903756765294845 0.41451878382647422 0 0.27959645536919941 1 I I #
face $-1 $-1 $195 $27 $-1 $394 reversed single #
loop $-1 $-1 $291 $180 #
plane-surface $-1 0 30.966981225753791 0 0 -1 0 0 0 -1 forward_v I I I I #
coedge $-1 $395 $288 $291 $396 forward $181 $-1 #
coedge $-1 $294 $183 $184 $282 reversed $113 $-1 #
coedge $-1 $288 $395 $183 $280 reversed $181 $-1 #
edge $-1 $295 -13.254741205708244 $397 13.254741205708244 $279 $398 forward 7 unknown #
coedge $-1 $185 $184 $395 $399 forward $73 $-1 #
edge $-1 $286 -66.392406994842375 $397 66.392406994842375 $278 $400 forward 7 unknown #
coedge $-1 $291 $290 $185 $284 reversed $275 $-1 #
edge $-1 $401 -66.392406994842375 $285 66.392406994842375 $283 $402 forward 7 unknown #
vertex $-1 $187 $403 #
vertex $-1 $297 $404 #
straight-curve $-1 66.392406994842375 0 -13.254741205708244 0 -1 0 I I #
coedge $-1 $277 $279 $188 $289 reversed $181 $-1 #
edge $-1 $292 -30.966981225753791 $295 30.966981225753791 $288 $405 forward 7 unknown #
coedge $-1 $283 $189 $194 $298 forward $275 $-1 #
coedge $-1 $189 $283 $277 $396 reversed $275 $-1 #
vertex $-1 $190 $406 #
straight-curve $-1 0 30.966981225753791 13.254741205708244 -1 0 0 I I #
coedge $-1 $191 $278 $193 $297 reversed $113 $-1 #
vertex $-1 $289 $407 #
straight-curve $-1 0 -30.966981225753791 13.254741205708244 1 0 0 I I #
edge $-1 $196 -13.254741205708244 $286 13.254741205708244 $193 $408 forward 7 unknown #
edge $-1 $197 -13.254741205708244 $285 13.254741205708244 $194 $409 forward 7 unknown #
point $-1 66.392406994842375 -30.966981225753791 13.254741205708244 #
point $-1 66.392406994842375 30.966981225753791 13.254741205708244 #
face $-1 $-1 $317 $28 $-1 $410 reversed single #
loop $-1 $-1 $411 $199 #
plane-surface $-1 0 -42.776301539373627 -4.2412382661858388 0 1 0 0 0 1 forward_v I I I I #
coedge $-1 $412 $314 $316 $413 forward $200 $-1 #
coedge $-1 $202 $209 $414 $415 forward $121 $-1 #
coedge $-1 $416 $207 $202 $307 reversed $317 $-1 #
edge $-1 $417 -5.9046601568099177 $211 5.9046601568099177 $306 $418 forward 7 unknown #
coedge $-1 $204 $203 $411 $419 reversed $77 $-1 #
coedge $-1 $314 $412 $203 $310 forward $200 $-1 #
edge $-1 $420 -5.9046601568099177 $312 5.9046601568099177 $203 $421 forward 7 unknown #
edge $-1 $210 -5.9046601568099177 $422 5.9046601568099177 $204 $423 forward 7 unknown #
vertex $-1 $205 $424 #
straight-curve $-1 -66.392406994842375 -30.966981225753791 0 0 0 -1 I I #
coedge $-1 $304 $309 $206 $315 reversed $200 $-1 #
edge $-1 $318 -66.392406994842375 $312 66.392406994842375 $314 $425 forward 7 unknown #
coedge $-1 $207 $416 $304 $413 reversed $317 $-1 #
loop $-1 $-1 $207 $301 #
vertex $-1 $208 $426 #
straight-curve $-1 66.392406994842375 -30.966981225753791 0 0 0 1 I I #
point $-1 -66.392406994842375 -30.966981225753791 -0.87005116531447646 #
point $-1 66.392406994842375 -30.966981225753791 -0.87005116531447646 #
face $-1 $-1 $336 $29 $-1 $427 reversed single #
loop $-1 $-1 $428 $213 #
plane-surface $-1 0 42.776301539373634 -4.2412382661858388 0 -1 0 0 0 -1 forward_v I I I I #
coedge $-1 $332 $429 $217 $329 forward $214 $-1 #
coedge $-1 $223 $216 $430 $431 forward $129 $-1 #
edge $-1 $224 -5.9046601568099177 $432 5.9046601568099177 $218 $433 forward 7 unknown #
coedge $-1 $218 $217 $428 $434 reversed $81 $-1 #
edge $-1 $435 -5.9046601568099177 $330 5.9046601568099177 $217 $436 forward 7 unknown #
vertex $-1 $219 $437 #
straight-curve $-1 66.392406994842375 30.966981225753791 0 0 0 -1 I I #
coedge $-1 $438 $325 $220 $333 reversed $214 $-1 #
edge $-1 $337 -66.392406994842375 $330 66.392406994842375 $332 $439 forward 7 unknown #
coedge $-1 $440 $221 $223 $339 reversed $336 $-1 #
coedge $-1 $221 $440 $438 $441 reversed $336 $-1 #
loop $-1 $-1 $221 $322 #
vertex $-1 $222 $442 #
straight-curve $-1 -66.392406994842375 30.966981225753791 0 0 0 1 I I #
edge $-1 $443 -5.9046601568099177 $225 5.9046601568099177 $334 $444 forward 7 unknown #
point $-1 66.392406994842375 30.966981225753798 -0.87005116531447646 #
point $-1 -66.392406994842375 30.966981225753798 -0.87005116531447646 #
loop $-1 $-1 $235 $227 #
plane-surface $-1 66.392406994842375 0 0 -1 0 0 0 0 1 forward_v I I I I #
coedge $-1 $345 $230 $232 $349 reversed $137 $-1 #
coedge $-1 $230 $344 $445 $446 reversed $137 $-1 #
coedge $-1 $238 $233 $230 $347 forward $228 $-1 #
edge $-1 $350 45.113995082136036 $447 51.111839784675574 $346 $448 forward 7 unknown #
coedge $-1 $232 $231 $353 $449 reversed $85 $-1 #
edge $-1 $450 -132.78481398968475 $350 -125.55010601436371 $344 $451 forward 7 unknown #
vertex $-1 $234 $452 #
straight-curve $-1 60.39456229230283 -1.2537542787437772 13.254741205708243 0 -1 0 I I #
coedge $-1 $445 $235 $238 $357 reversed $342 $-1 #
coedge $-1 $235 $445 $348 $449 forward $342 $-1 #
vertex $-1 $236 $453 #
straight-curve $-1 66.392406994842375 2.7060423236542803 96.772534821326147 0 0 1 I I #
straight-curve $-1 -43.691192216415075 2.7060423236542803 83.461470431394844 0.82903756765294845 0 -0.55919291073839883 I I #
edge $-1 $447 -7.7210594386293891 $239 2.7060423236542803 $352 $454 forward 7 unknown #
point $-1 66.392406994842375 2.7060423236542803 13.254741205708244 #
point $-1 60.394562292302837 2.7060423236542803 13.254741205708243 #
edge $-1 $455 1 $455 0 $242 $-1 forward 7 unknown #
vertex $-1 $243 $456 #
ellipse-curve $-1 62.834291732834167 -4.7418875065483412 10.40290493252426 0.55919291073839883 0 0.82903756765294845 0.41451878382647422 0 -0.27959645536919941 1 I I #
point $-1 63.808003427399036 -4.7418875065483412 10.95234604480801 #
edge $-1 $457 1 $457 0 $246 $-1 forward 7 unknown #
vertex $-1 $247 $458 #
ellipse-curve $-1 62.834291732834167 -0.27312960842676759 10.40290493252426 0.55919291073839883 0 0.82903756765294845 0.41451878382647422 0 -0.27959645536919941 1 I I #
point $-1 63.808003427399036 -0.27312960842676759 10.95234604480801 #
plane-surface $-1 0 0 13.254741205708244 0 0 1 1 0 0 forward_v I I I I #
coedge $-1 $379 $378 $371 $459 forward $251 $-1 #
coedge $-1 $371 $253 $255 $375 reversed $159 $-1 #
coedge $-1 $253 $370 $369 $459 reversed $159 $-1 #
coedge $-1 $261 $256 $253 $373 forward $262 $-1 #
edge $-1 $376 -9.9278045234926608 $460 -3.9299598209531581 $372 $461 forward 7 unknown #
coedge $-1 $255 $254 $379 $462 reversed $99 $-1 #
edge $-1 $463 1.6747963185031944e-014 $376 7.2347079753210091 $370 $464 forward 7 unknown #
vertex $-1 $257 $465 #
straight-curve $-1 -60.394562292302865 -1.2537542787437772 13.254741205708244 0 1 0 I I #
coedge $-1 $369 $258 $261 $383 reversed $251 $-1 #
coedge $-1 $258 $369 $374 $462 forward $251 $-1 #
vertex $-1 $259 $466 #
straight-curve $-1 -66.392406994842375 -7.7210594386293891 59.646371502951816 0 0 1 I I #
straight-curve $-1 -66.392406994842389 -7.7210594386293891 9.2091437946461809 -0.82903756765294845 0 -0.55919291073839883 I I #
edge $-1 $460 -2.7060423236542803 $263 7.7210594386293891 $378 $467 forward 7 unknown #
point $-1 -66.392406994842375 -7.7210594386293891 13.254741205708244 #
point $-1 -60.394562292302872 -7.7210594386293891 13.254741205708244 #
edge $-1 $468 1 $468 0 $266 $-1 forward 7 unknown #
vertex $-1 $267 $469 #
ellipse-curve $-1 -62.834291732834203 -4.7418875065483412 10.402904932524253 -0.55919291073839883 0 0.82903756765294845 0.41451878382647422 0 0.27959645536919941 1 I I #
point $-1 -62.978965859746125 -4.7418875065483412 11.511538955546401 #
edge $-1 $470 1 $470 0 $270 $-1 forward 7 unknown #
vertex $-1 $271 $471 #
ellipse-curve $-1 -62.834291732834203 -0.27312960842676759 10.402904932524253 -0.55919291073839883 0 0.82903756765294845 0.41451878382647422 0 0.27959645536919941 1 I I #
point $-1 -62.978965859746125 -0.27312960842676759 11.511538955546401 #
plane-surface $-1 66.392406994842375 0 0 -1 0 0 0 0 1 forward_v I I I I #
coedge $-1 $279 $277 $281 $399 reversed $181 $-1 #
edge $-1 $292 -13.254741205708244 $401 13.254741205708244 $291 $472 forward 7 unknown #
vertex $-1 $399 $473 #
straight-curve $-1 -66.392406994842375 -30.966981225753791 0 0 0 -1 I I #
edge $-1 $397 -30.966981225753791 $401 30.966981225753791 $395 $474 forward 7 unknown #
straight-curve $-1 0 -30.966981225753791 -13.254741205708244 -1 0 0 I I #
vertex $-1 $284 $475 #
straight-curve $-1 0 30.966981225753791 -13.254741205708244 1 0 0 I I #
point $-1 66.392406994842375 30.966981225753791 -13.254741205708244 #
point $-1 66.392406994842375 -30.966981225753791 -13.254741205708244 #
straight-curve $-1 -66.392406994842375 0 13.254741205708244 0 -1 0 I I #
point $-1 -66.392406994842375 30.966981225753791 13.254741205708244 #
point $-1 -66.392406994842375 -30.966981225753791 13.254741205708244 #
straight-curve $-1 66.392406994842375 -30.966981225753791 0 0 0 -1 I I #
straight-curve $-1 66.392406994842375 30.966981225753791 0 0 0 -1 I I #
plane-surface $-1 66.392406994842375 0 0 -1 0 0 0 0 1 forward_v I I I I #
coedge $-1 $476 $414 $308 $419 forward $302 $-1 #
coedge $-1 $309 $304 $476 $477 forward $200 $-1 #
edge $-1 $318 -5.9046601568099177 $478 5.9046601568099177 $316 $479 forward 7 unknown #
coedge $-1 $411 $480 $305 $415 reversed $302 $-1 #
edge $-1 $422 -66.392406994842375 $417 66.392406994842375 $414 $481 forward 7 unknown #
coedge $-1 $316 $306 $480 $482 forward $317 $-1 #
vertex $-1 $307 $483 #
straight-curve $-1 66.392406994842375 -36.871641382563709 -0.87005116531447646 0 1 0 I I #
edge $-1 $422 -3.3711871008713623 $420 3.3711871008713619 $308 $484 forward 7 unknown #
vertex $-1 $310 $485 #
straight-curve $-1 -66.392406994842375 -36.871641382563709 -7.6124253670572006 0 1 0 I I #
vertex $-1 $311 $486 #
straight-curve $-1 -66.392406994842375 -36.871641382563709 -0.87005116531447646 0 -1 0 I I #
point $-1 -66.392406994842375 -30.966981225753791 -7.6124253670572006 #
straight-curve $-1 0 -30.966981225753791 -7.6124253670572006 -1 0 0 I I #
point $-1 66.392406994842375 -30.966981225753791 -7.6124253670572006 #
plane-surface $-1 -66.392406994842375 0 0 1 0 0 0 0 -1 forward_v I I I I #
coedge $-1 $487 $430 $328 $434 forward $323 $-1 #
coedge $-1 $325 $438 $487 $488 forward $214 $-1 #
coedge $-1 $428 $489 $326 $431 reversed $323 $-1 #
edge $-1 $432 -66.392406994842375 $443 66.392406994842375 $430 $490 forward 7 unknown #
vertex $-1 $327 $491 #
straight-curve $-1 66.392406994842375 36.871641382563716 -0.87005116531447646 0 1 0 I I #
edge $-1 $432 -3.3711871008713623 $435 3.3711871008713619 $328 $492 forward 7 unknown #
vertex $-1 $329 $493 #
straight-curve $-1 66.392406994842375 36.871641382563716 -7.6124253670572006 0 -1 0 I I #
point $-1 66.392406994842375 30.966981225753798 -7.6124253670572006 #
coedge $-1 $429 $332 $335 $441 forward $214 $-1 #
straight-curve $-1 0 30.966981225753791 -7.6124253670572006 1 0 0 I I #
coedge $-1 $335 $334 $489 $494 forward $336 $-1 #
edge $-1 $337 -5.9046601568099177 $495 5.9046601568099177 $335 $496 forward 7 unknown #
point $-1 -66.392406994842375 30.966981225753798 -7.6124253670572006 #
vertex $-1 $431 $497 #
straight-curve $-1 -66.392406994842375 36.871641382563716 -0.87005116531447646 0 -1 0 I I #
coedge $-1 $353 $352 $345 $446 forward $342 $-1 #
edge $-1 $447 83.517793615617904 $450 87.56339102667998 $445 $498 forward 7 unknown #
vertex $-1 $357 $499 #
straight-curve $-1 15.280567210166801 -7.7210594386293891 13.254741205708243 1 0 0 I I #
edge $-1 $450 -6.4673051598856119 $354 3.9597966023980575 $353 $500 forward 7 unknown #
vertex $-1 $449 $501 #
straight-curve $-1 -43.691192216415075 -7.7210594386293891 83.461470431394844 -0.82903756765294845 0 0.55919291073839883 I I #
point $-1 60.394562292302837 -7.7210594386293891 13.254741205708243 #
point $-1 66.392406994842375 2.7060423236542803 9.2091437946461667 #
straight-curve $-1 66.392406994842375 0 13.254741205708244 0 1 0 I I #
vertex $-1 $360 $502 #
point $-1 63.24881051666064 -4.7418875065483412 10.123308477155062 #
vertex $-1 $364 $503 #
point $-1 63.24881051666064 -0.27312960842676759 10.123308477155062 #
edge $-1 $460 46.391630297243573 $463 50.437227708305628 $369 $504 forward 7 unknown #
vertex $-1 $383 $505 #
straight-curve $-1 -70.322366815795533 2.7060423236542803 13.254741205708243 -1 0 0 I I #
edge $-1 $463 -3.9597966023980575 $380 6.4673051598856119 $379 $506 forward 7 unknown #
vertex $-1 $462 $507 #
straight-curve $-1 -66.392406994842389 2.7060423236542803 9.2091437946461809 0.82903756765294845 0 0.55919291073839883 I I #
point $-1 -60.394562292302872 2.7060423236542803 13.254741205708244 #
point $-1 -66.392406994842375 -7.7210594386293891 9.2091437946461898 #
straight-curve $-1 -66.392406994842375 0 13.254741205708244 0 -1 0 I I #
vertex $-1 $386 $508 #
point $-1 -62.419772949007729 -4.7418875065483412 10.682501387893453 #
vertex $-1 $390 $509 #
point $-1 -62.419772949007729 -0.27312960842676759 10.682501387893453 #
straight-curve $-1 -66.392406994842375 30.966981225753791 0 0 0 -1 I I #
point $-1 -66.392406994842375 -30.966981225753791 -13.254741205708244 #
straight-curve $-1 -66.392406994842375 0 -13.254741205708244 0 1 0 I I #
point $-1 -66.392406994842375 30.966981225753791 -13.254741205708244 #
coedge $-1 $480 $411 $412 $477 reversed $302 $-1 #
edge $-1 $478 -66.392406994842375 $420 66.392406994842375 $476 $510 forward 7 unknown #
vertex $-1 $482 $511 #
straight-curve $-1 66.392406994842375 -36.871641382563709 -7.6124253670572006 0 -1 0 I I #
coedge $-1 $414 $476 $416 $482 reversed $302 $-1 #
straight-curve $-1 0 -42.776301539373627 -0.87005116531447646 1 0 0 I I #
edge $-1 $417 -3.3711871008713623 $478 3.3711871008713619 $416 $512 forward 7 unknown #
point $-1 66.392406994842375 -42.776301539373627 -0.87005116531447646 #
straight-curve $-1 -66.392406994842375 -42.776301539373627 -4.2412382661858388 0 0 -1 I I #
point $-1 -66.392406994842375 -42.776301539373627 -7.6124253670572006 #
point $-1 -66.392406994842375 -42.776301539373627 -0.87005116531447646 #
coedge $-1 $489 $428 $429 $488 reversed $323 $-1 #
edge $-1 $495 -66.392406994842375 $435 66.392406994842375 $487 $513 forward 7 unknown #
coedge $-1 $430 $487 $440 $494 reversed $323 $-1 #
straight-curve $-1 0 42.776301539373634 -0.87005116531447646 -1 0 0 I I #
point $-1 66.392406994842375 42.776301539373634 -0.87005116531447646 #
straight-curve $-1 66.392406994842375 42.776301539373634 -4.2412382661858388 0 0 -1 I I #
point $-1 66.392406994842375 42.776301539373634 -7.6124253670572006 #
edge $-1 $443 -3.3711871008713623 $495 3.3711871008713619 $489 $514 forward 7 unknown #
vertex $-1 $488 $515 #
straight-curve $-1 -66.392406994842375 36.871641382563716 -7.6124253670572006 0 1 0 I I #
point $-1 -66.392406994842375 42.776301539373634 -0.87005116531447646 #
straight-curve $-1 66.392406994842375 -7.7210594386293891 96.772534821326147 0 0 -1 I I #
point $-1 66.392406994842375 -7.7210594386293891 13.254741205708244 #
straight-curve $-1 66.392406994842375 -1.2537542787437772 9.2091437946461667 0 1 0 I I #
point $-1 66.392406994842375 -7.7210594386293891 9.2091437946461667 #
point $-1 62.554695277464965 -4.7418875065483412 9.9883861486977867 #
point $-1 62.554695277464965 -0.27312960842676759 9.9883861486977867 #
straight-curve $-1 -66.392406994842375 2.7060423236542803 59.646371502951816 0 0 -1 I I #
point $-1 -66.392406994842375 2.7060423236542803 13.254741205708244 #
straight-curve $-1 -66.392406994842375 -1.2537542787437772 9.2091437946461916 0 -1 0 I I #
point $-1 -66.392406994842375 2.7060423236542803 9.2091437946461898 #
point $-1 -62.554695277465001 -4.7418875065483412 9.9883861486977796 #
point $-1 -62.554695277465001 -0.27312960842676759 9.9883861486977796 #
straight-curve $-1 0 -42.776301539373627 -7.6124253670572006 -1 0 0 I I #
point $-1 66.392406994842375 -42.776301539373627 -7.6124253670572006 #
straight-curve $-1 66.392406994842375 -42.776301539373627 -4.2412382661858388 0 0 -1 I I #
straight-curve $-1 0 42.776301539373634 -7.6124253670572006 1 0 0 I I #
straight-curve $-1 -66.392406994842375 42.776301539373634 -4.2412382661858388 0 0 -1 I I #
point $-1 -66.392406994842375 42.776301539373634 -7.6124253670572006 #
End-of-ACIS-data 