500 0 13 0           
7 Unknown 11 ACIS 5.0 NT 24 Fri Mar 26 16:52:50 1999 
-1 9.9999999999999995e-007 1e-010 
body $-1 $13 $-1 $14 #
body $-1 $15 $-1 $16 #
body $-1 $17 $-1 $18 #
body $-1 $19 $-1 $20 #
body $-1 $21 $-1 $22 #
body $-1 $23 $-1 $24 #
body $-1 $25 $-1 $26 #
body $-1 $27 $-1 $28 #
body $-1 $29 $-1 $30 #
body $-1 $31 $-1 $32 #
body $-1 $33 $-1 $34 #
body $-1 $35 $-1 $36 #
body $-1 $37 $-1 $38 #
lump $-1 $-1 $39 $0 #
transform $-1 1 0 0 0 1 0 0 0 1 52.748191778313547 27.604946056511082 10.993031391570669 1 rotate no_reflect no_shear #
lump $-1 $-1 $40 $1 #
transform $-1 1 0 0 0 1 0 0 0 1 52.748191778313547 27.604946056511082 10.993031391570669 1 rotate no_reflect no_shear #
lump $-1 $-1 $41 $2 #
transform $-1 1 0 0 0 1 0 0 0 1 52.748191778313547 27.604946056511082 10.993031391570669 1 rotate no_reflect no_shear #
lump $-1 $-1 $42 $3 #
transform $-1 1 0 0 0 1 0 0 0 1 52.748191778313547 27.604946056511082 10.993031391570669 1 rotate no_reflect no_shear #
lump $-1 $-1 $43 $4 #
transform $-1 1 0 0 0 1 0 0 0 1 52.748191778313547 27.604946056511082 10.993031391570669 1 rotate no_reflect no_shear #
lump $-1 $-1 $44 $5 #
transform $-1 1 0 0 0 1 0 0 0 1 52.748191778313547 27.604946056511082 10.993031391570669 1 rotate no_reflect no_shear #
lump $-1 $-1 $45 $6 #
transform $-1 1 0 0 0 1 0 0 0 1 52.748191778313547 27.604946056511082 10.993031391570669 1 rotate no_reflect no_shear #
lump $-1 $-1 $46 $7 #
transform $-1 1 0 0 0 1 0 0 0 1 52.748191778313547 27.604946056511082 10.993031391570669 1 rotate no_reflect no_shear #
lump $-1 $-1 $47 $8 #
transform $-1 1 0 0 0 1 0 0 0 1 52.748191778313547 27.604946056511082 10.993031391570669 1 rotate no_reflect no_shear #
lump $-1 $-1 $48 $9 #
transform $-1 1 0 0 0 1 0 0 0 1 52.748191778313547 27.604946056511082 10.993031391570669 1 rotate no_reflect no_shear #
lump $-1 $-1 $49 $10 #
transform $-1 1 0 0 0 1 0 0 0 1 52.748191778313547 27.604946056511082 10.993031391570669 1 rotate no_reflect no_shear #
lump $-1 $-1 $50 $11 #
transform $-1 1 0 0 0 1 0 0 0 1 52.748191778313547 27.604946056511082 10.993031391570669 1 rotate no_reflect no_shear #
lump $-1 $-1 $51 $12 #
transform $-1 1 0 0 0 1 0 0 0 1 52.748191778313547 27.604946056511082 10.993031391570669 1 rotate no_reflect no_shear #
shell $-1 $-1 $-1 $52 $-1 $13 #
shell $-1 $-1 $-1 $53 $-1 $15 #
shell $-1 $-1 $-1 $54 $-1 $17 #
shell $-1 $-1 $-1 $55 $-1 $19 #
shell $-1 $-1 $-1 $56 $-1 $21 #
shell $-1 $-1 $-1 $57 $-1 $23 #
shell $-1 $-1 $-1 $58 $-1 $25 #
shell $-1 $-1 $-1 $59 $-1 $27 #
shell $-1 $-1 $-1 $60 $-1 $29 #
shell $-1 $-1 $-1 $61 $-1 $31 #
shell $-1 $-1 $-1 $62 $-1 $33 #
shell $-1 $-1 $-1 $63 $-1 $35 #
shell $-1 $-1 $-1 $64 $-1 $37 #
face $-1 $65 $66 $39 $-1 $67 forward single #
face $-1 $68 $69 $40 $-1 $70 reversed single #
face $-1 $71 $72 $41 $-1 $73 reversed single #
face $-1 $74 $75 $42 $-1 $76 forward single #
face $-1 $77 $78 $43 $-1 $79 forward single #
face $-1 $80 $81 $44 $-1 $82 reversed single #
face $-1 $83 $84 $45 $-1 $85 forward single #
face $-1 $86 $87 $46 $-1 $88 reversed single #
face $-1 $89 $90 $47 $-1 $91 forward single #
face $-1 $92 $93 $48 $-1 $94 reversed single #
face $-1 $95 $96 $49 $-1 $97 forward single #
face $-1 $98 $99 $50 $-1 $100 reversed single #
face $-1 $101 $102 $51 $-1 $103 forward single #
face $-1 $104 $105 $39 $-1 $106 reversed single #
loop $-1 $-1 $107 $52 #
plane-surface $-1 0 0 10.993031391570669 0 0 1 1 0 0 forward_v I I I I #
face $-1 $108 $109 $40 $-1 $110 reversed single #
loop $-1 $-1 $111 $53 #
plane-surface $-1 0 -22.621134313886735 7.9930313915706694 0 0 1 1 0 0 forward_v I I I I #
face $-1 $112 $113 $41 $-1 $114 reversed single #
loop $-1 $-1 $115 $54 #
plane-surface $-1 -117.69825173481414 15.789602520508424 83.813595656993456 0 1 0 -0.61566148304635926 0 0.78801074757464917 forward_v I I I I #
face $-1 $116 $117 $42 $-1 $118 forward single #
loop $-1 $119 $120 $55 #
cone-surface $-1 -45.4628904615575 19.165414959366331 4.9590013636796355 0.61566148304635926 0 -0.78801074757464917 1.1820161213619738 0 0.92349222456953894 1 I I 0 1 1.5 forward I I I I #
face $-1 $121 $122 $43 $-1 $123 forward single #
loop $-1 $124 $125 $56 #
cone-surface $-1 -45.4628904615575 24.229133617653183 4.9590013636796355 0.61566148304635926 0 -0.78801074757464917 1.1820161213619738 0 0.92349222456953894 1 I I 0 1 1.5 forward I I I I #
face $-1 $126 $127 $44 $-1 $128 reversed single #
loop $-1 $-1 $129 $57 #
plane-surface $-1 44.939960942959594 -6.326755414319023 153.59935412815682 0 -1 0 -0.66913061440640931 0 -0.74314481823134659 forward_v I I I I #
face $-1 $130 $131 $45 $-1 $132 forward single #
loop $-1 $133 $134 $58 #
cone-surface $-1 47.89248728448095 -9.8792678416396704 6.3453865585579887 -0.66913061440640931 0 -0.74314481823134659 1.1147172273470198 0 -1.003695921609614 1 I I 0 1 1.5 forward I I I I #
face $-1 $135 $136 $46 $-1 $137 reversed single #
loop $-1 $-1 $138 $59 #
plane-surface $-1 44.939960942959594 4.9838117426243445 153.59935412815682 0 -1 0 -0.66913061440640931 0 -0.74314481823134659 forward_v I I I I #
face $-1 $139 $140 $47 $-1 $141 forward single #
loop $-1 $142 $143 $60 #
cone-surface $-1 47.89248728448095 1.431299315303697 6.3453865585579887 -0.66913061440640931 0 -0.74314481823134659 1.1147172273470198 0 -1.003695921609614 1 I I 0 1 1.5 forward I I I I #
face $-1 $144 $145 $48 $-1 $146 reversed single #
loop $-1 $-1 $147 $61 #
plane-surface $-1 44.939960942959594 16.294378899567715 153.59935412815682 0 -1 0 -0.66913061440640931 0 -0.74314481823134659 forward_v I I I I #
face $-1 $148 $149 $49 $-1 $150 forward single #
loop $-1 $151 $152 $62 #
cone-surface $-1 47.89248728448095 12.741866472247068 6.3453865585579887 -0.66913061440640931 0 -0.74314481823134659 1.1147172273470198 0 -1.003695921609614 1 I I 0 1 1.5 forward I I I I #
face $-1 $153 $154 $50 $-1 $155 reversed single #
loop $-1 $-1 $156 $63 #
plane-surface $-1 -25.650899003940516 24.052433629190432 75.200263345902755 0.66913061440640931 0 0.74314481823134659 0.74314481823134659 0 -0.66913061440640931 forward_v I I I I #
face $-1 $157 $158 $51 $-1 $159 forward single #
loop $-1 $160 $161 $64 #
cone-surface $-1 47.89248728448095 24.052433629190432 6.3453865585579887 -0.66913061440640931 0 -0.74314481823134659 1.1147172273470198 0 -1.003695921609614 1 I I 0 1 1.5 forward I I I I #
face $-1 $162 $163 $39 $-1 $164 reversed single #
loop $-1 $-1 $165 $65 #
plane-surface $-1 0 0 -10.993031391570669 0 0 1 1 0 0 forward_v I I I I #
coedge $-1 $166 $167 $168 $169 forward $66 $-1 #
face $-1 $170 $171 $40 $-1 $172 reversed single #
loop $-1 $-1 $173 $68 #
plane-surface $-1 0 -17.637322571262388 9.4930313915706694 0 -1 0 0 0 -1 forward_v I I I I #
coedge $-1 $174 $175 $176 $177 reversed $69 $-1 #
face $-1 $178 $179 $41 $-1 $180 forward single #
loop $-1 $-1 $181 $71 #
plane-surface $-1 -52.748191778313554 21.697274288509753 0.68131158411381421 -0.61566148304635926 0 0.78801074757464917 0.78801074757464917 0 0.61566148304635926 forward_v I I I I #
coedge $-1 $182 $183 $184 $185 reversed $72 $-1 #
face $-1 $-1 $186 $42 $-1 $187 forward single #
loop $-1 $188 $189 $74 #
cone-surface $-1 -44.315042639780835 19.165414959366331 3.4898231788360494 0.61566148304635926 0 -0.78801074757464917 0.59100806068098688 0 0.46174611228476947 1 I I -0.70710678118654724 0.70710678118654768 0.75 forward I I I I #
loop $-1 $-1 $190 $55 #
coedge $-1 $120 $120 $191 $192 reversed $75 $-1 #
face $-1 $-1 $193 $43 $-1 $194 forward single #
loop $-1 $195 $196 $77 #
cone-surface $-1 -44.315042639780835 24.229133617653183 3.4898231788360494 0.61566148304635926 0 -0.78801074757464917 0.59100806068098688 0 0.46174611228476947 1 I I -0.70710678118654724 0.70710678118654768 0.75 forward I I I I #
loop $-1 $-1 $197 $56 #
coedge $-1 $125 $125 $198 $199 reversed $78 $-1 #
face $-1 $200 $201 $44 $-1 $202 reversed single #
loop $-1 $-1 $203 $80 #
plane-surface $-1 -25.650899003940516 -9.8792678416396704 75.200263345902755 0.66913061440640931 0 0.74314481823134659 0.74314481823134659 0 -0.66913061440640931 forward_v I I I I #
coedge $-1 $204 $205 $206 $207 reversed $81 $-1 #
face $-1 $-1 $208 $45 $-1 $209 forward single #
loop $-1 $210 $211 $83 #
cone-surface $-1 46.079803321925546 -9.8792678416396704 4.3321971081558086 -0.66913061440640931 0 -0.74314481823134659 0.55735861367350992 0 -0.50184796080480698 1 I I -0.70710678118654757 0.70710678118654757 0.75 forward I I I I #
loop $-1 $-1 $212 $58 #
coedge $-1 $134 $134 $213 $214 reversed $84 $-1 #
face $-1 $215 $216 $46 $-1 $217 reversed single #
loop $-1 $-1 $218 $86 #
plane-surface $-1 -25.650899003940516 1.431299315303697 75.200263345902755 0.66913061440640931 0 0.74314481823134659 0.74314481823134659 0 -0.66913061440640931 forward_v I I I I #
coedge $-1 $219 $220 $221 $222 reversed $87 $-1 #
face $-1 $-1 $223 $47 $-1 $224 forward single #
loop $-1 $225 $226 $89 #
cone-surface $-1 46.079803321925546 1.431299315303697 4.3321971081558086 -0.66913061440640931 0 -0.74314481823134659 0.55735861367350992 0 -0.50184796080480698 1 I I -0.70710678118654757 0.70710678118654757 0.75 forward I I I I #
loop $-1 $-1 $227 $60 #
coedge $-1 $143 $143 $228 $229 reversed $90 $-1 #
face $-1 $230 $231 $48 $-1 $232 reversed single #
loop $-1 $-1 $233 $92 #
plane-surface $-1 -25.650899003940516 12.741866472247068 75.200263345902755 0.66913061440640931 0 0.74314481823134659 0.74314481823134659 0 -0.66913061440640931 forward_v I I I I #
coedge $-1 $234 $235 $236 $237 reversed $93 $-1 #
face $-1 $-1 $238 $49 $-1 $239 forward single #
loop $-1 $240 $241 $95 #
cone-surface $-1 46.079803321925546 12.741866472247068 4.3321971081558086 -0.66913061440640931 0 -0.74314481823134659 0.55735861367350992 0 -0.50184796080480698 1 I I -0.70710678118654757 0.70710678118654757 0.75 forward I I I I #
loop $-1 $-1 $242 $62 #
coedge $-1 $152 $152 $243 $244 reversed $96 $-1 #
face $-1 $245 $246 $50 $-1 $247 reversed single #
loop $-1 $-1 $248 $98 #
plane-surface $-1 44.939960942959594 20.499921201869785 153.59935412815682 0 1 0 0.66913061440640931 0 0.74314481823134659 forward_v I I I I #
coedge $-1 $249 $250 $251 $252 reversed $99 $-1 #
face $-1 $-1 $253 $51 $-1 $254 forward single #
loop $-1 $255 $256 $101 #
cone-surface $-1 46.079803321925546 24.052433629190432 4.3321971081558086 -0.66913061440640931 0 -0.74314481823134659 0.55735861367350992 0 -0.50184796080480698 1 I I -0.70710678118654757 0.70710678118654757 0.75 forward I I I I #
loop $-1 $-1 $257 $64 #
coedge $-1 $161 $161 $258 $259 reversed $102 $-1 #
face $-1 $260 $261 $39 $-1 $262 reversed single #
loop $-1 $-1 $263 $104 #
plane-surface $-1 0 -27.604946056511082 0 0 1 0 0 0 1 forward_v I I I I #
coedge $-1 $264 $265 $266 $267 forward $105 $-1 #
coedge $-1 $268 $107 $269 $270 forward $66 $-1 #
coedge $-1 $107 $268 $271 $272 forward $66 $-1 #
coedge $-1 $273 $274 $107 $169 reversed $275 $-1 #
edge $-1 $276 -27.604946056511082 $277 27.604946056511082 $168 $278 forward 7 unknown #
face $-1 $279 $280 $40 $-1 $281 reversed single #
loop $-1 $-1 $282 $108 #
plane-surface $-1 -52.748191778313547 0 0 1 0 0 0 0 -1 forward_v I I I I #
coedge $-1 $283 $284 $285 $286 reversed $109 $-1 #
coedge $-1 $287 $111 $288 $289 reversed $69 $-1 #
coedge $-1 $111 $287 $283 $290 forward $69 $-1 #
coedge $-1 $285 $291 $111 $177 forward $292 $-1 #
edge $-1 $293 -16.294378899567715 $294 -6.3267554143190203 $176 $295 forward 7 unknown #
face $-1 $296 $297 $41 $-1 $298 reversed single #
loop $-1 $-1 $184 $112 #
plane-surface $-1 0 0 10.993031391570669 0 0 1 1 0 0 forward_v I I I I #
coedge $-1 $299 $300 $301 $302 reversed $113 $-1 #
coedge $-1 $183 $115 $303 $304 reversed $72 $-1 #
coedge $-1 $115 $182 $299 $305 reversed $72 $-1 #
coedge $-1 $301 $306 $115 $185 forward $179 $-1 #
edge $-1 $307 6.1009340890935206 $308 19.299333303621808 $184 $309 forward 7 unknown #
loop $-1 $-1 $191 $116 #
plane-surface $-1 -52.748191778313554 21.697274288509753 0.68131158411381421 -0.61566148304635926 0 0.78801074757464917 0.78801074757464917 0 0.61566148304635926 forward_v I I I I #
loop $-1 $-1 $310 $74 #
coedge $-1 $189 $189 $190 $311 reversed $117 $-1 #
coedge $-1 $190 $190 $189 $311 forward $119 $-1 #
coedge $-1 $191 $191 $120 $192 forward $186 $-1 #
edge $-1 $312 0 $312 6.2831853071796004 $191 $313 forward 7 unknown #
loop $-1 $-1 $198 $121 #
plane-surface $-1 -52.748191778313554 21.697274288509753 0.68131158411381421 -0.61566148304635926 0 0.78801074757464917 0.78801074757464917 0 0.61566148304635926 forward_v I I I I #
loop $-1 $-1 $314 $77 #
coedge $-1 $196 $196 $197 $315 reversed $122 $-1 #
coedge $-1 $197 $197 $196 $315 forward $124 $-1 #
coedge $-1 $198 $198 $125 $199 forward $193 $-1 #
edge $-1 $316 0 $316 6.2831853071796004 $198 $317 forward 7 unknown #
face $-1 $318 $319 $44 $-1 $320 reversed single #
loop $-1 $-1 $321 $126 #
plane-surface $-1 44.939960942959594 -13.431780268960317 153.59935412815682 0 1 0 0.66913061440640931 0 0.74314481823134659 forward_v I I I I #
coedge $-1 $322 $323 $324 $325 reversed $127 $-1 #
coedge $-1 $205 $129 $326 $327 reversed $81 $-1 #
coedge $-1 $129 $204 $322 $328 reversed $81 $-1 #
coedge $-1 $324 $329 $129 $207 forward $330 $-1 #
edge $-1 $331 -30.27821130683375 $332 -23.188474322669759 $206 $333 forward 7 unknown #
loop $-1 $-1 $213 $130 #
plane-surface $-1 -25.650899003940516 -9.8792678416396704 75.200263345902755 0.66913061440640931 0 0.74314481823134659 0.74314481823134659 0 -0.66913061440640931 forward_v I I I I #
loop $-1 $-1 $334 $83 #
coedge $-1 $211 $211 $212 $335 reversed $131 $-1 #
coedge $-1 $212 $212 $211 $335 forward $133 $-1 #
coedge $-1 $213 $213 $134 $214 forward $208 $-1 #
edge $-1 $336 0 $336 6.2831853071796004 $213 $337 forward 7 unknown #
face $-1 $338 $339 $46 $-1 $340 reversed single #
loop $-1 $-1 $341 $135 #
plane-surface $-1 44.939960942959594 -2.1212131120169504 153.59935412815682 0 1 0 0.66913061440640931 0 0.74314481823134659 forward_v I I I I #
coedge $-1 $342 $343 $344 $345 reversed $136 $-1 #
coedge $-1 $220 $138 $346 $347 reversed $87 $-1 #
coedge $-1 $138 $219 $342 $348 reversed $87 $-1 #
coedge $-1 $344 $349 $138 $222 forward $350 $-1 #
edge $-1 $351 -30.27821130683375 $352 -23.188474322669759 $221 $353 forward 7 unknown #
loop $-1 $-1 $228 $139 #
plane-surface $-1 -25.650899003940516 1.431299315303697 75.200263345902755 0.66913061440640931 0 0.74314481823134659 0.74314481823134659 0 -0.66913061440640931 forward_v I I I I #
loop $-1 $-1 $354 $89 #
coedge $-1 $226 $226 $227 $355 reversed $140 $-1 #
coedge $-1 $227 $227 $226 $355 forward $142 $-1 #
coedge $-1 $228 $228 $143 $229 forward $223 $-1 #
edge $-1 $356 0 $356 6.2831853071796004 $228 $357 forward 7 unknown #
face $-1 $358 $359 $48 $-1 $360 reversed single #
loop $-1 $-1 $361 $144 #
plane-surface $-1 44.939960942959594 9.1893540449264215 153.59935412815682 0 1 0 0.66913061440640931 0 0.74314481823134659 forward_v I I I I #
coedge $-1 $362 $363 $364 $365 reversed $145 $-1 #
coedge $-1 $235 $147 $366 $367 reversed $93 $-1 #
coedge $-1 $147 $234 $362 $368 reversed $93 $-1 #
coedge $-1 $364 $369 $147 $237 forward $370 $-1 #
edge $-1 $371 -30.27821130683375 $372 -23.188474322669759 $236 $373 forward 7 unknown #
loop $-1 $-1 $243 $148 #
plane-surface $-1 -25.650899003940516 12.741866472247068 75.200263345902755 0.66913061440640931 0 0.74314481823134659 0.74314481823134659 0 -0.66913061440640931 forward_v I I I I #
loop $-1 $-1 $374 $95 #
coedge $-1 $241 $241 $242 $375 reversed $149 $-1 #
coedge $-1 $242 $242 $241 $375 forward $151 $-1 #
coedge $-1 $243 $243 $152 $244 forward $238 $-1 #
edge $-1 $376 0 $376 6.2831853071796004 $243 $377 forward 7 unknown #
face $-1 $378 $379 $50 $-1 $380 forward single #
loop $-1 $-1 $381 $153 #
plane-surface $-1 52.748191778313547 0 0 -1 0 0 0 0 1 forward_v I I I I #
coedge $-1 $382 $383 $384 $385 reversed $154 $-1 #
coedge $-1 $386 $156 $387 $388 reversed $99 $-1 #
coedge $-1 $156 $386 $382 $389 forward $99 $-1 #
coedge $-1 $384 $390 $156 $252 forward $379 $-1 #
edge $-1 $391 -15.578729241915863 $392 -8.4737043872745694 $251 $393 forward 7 unknown #
loop $-1 $-1 $258 $157 #
plane-surface $-1 -25.650899003940516 24.052433629190432 75.200263345902755 0.66913061440640931 0 0.74314481823134659 0.74314481823134659 0 -0.66913061440640931 forward_v I I I I #
loop $-1 $-1 $394 $101 #
coedge $-1 $256 $256 $257 $395 reversed $158 $-1 #
coedge $-1 $257 $257 $256 $395 forward $160 $-1 #
coedge $-1 $258 $258 $161 $259 forward $253 $-1 #
edge $-1 $396 0 $396 6.2831853071796004 $258 $397 forward 7 unknown #
face $-1 $398 $399 $39 $-1 $400 reversed single #
loop $-1 $-1 $401 $162 #
plane-surface $-1 -52.748191778313547 0 0 1 0 0 0 0 -1 forward_v I I I I #
coedge $-1 $402 $271 $403 $404 forward $163 $-1 #
coedge $-1 $405 $165 $402 $406 forward $105 $-1 #
coedge $-1 $165 $405 $407 $408 forward $105 $-1 #
coedge $-1 $274 $273 $165 $267 reversed $275 $-1 #
edge $-1 $409 -27.604946056511082 $410 27.604946056511082 $266 $411 forward 7 unknown #
coedge $-1 $167 $166 $412 $413 forward $66 $-1 #
coedge $-1 $414 $415 $166 $270 reversed $399 $-1 #
edge $-1 $277 -52.748191778313547 $416 52.748191778313547 $269 $417 forward 7 unknown #
coedge $-1 $263 $418 $167 $272 reversed $163 $-1 #
edge $-1 $419 -52.748191778313547 $276 52.748191778313547 $271 $420 forward 7 unknown #
coedge $-1 $266 $168 $418 $421 forward $275 $-1 #
coedge $-1 $168 $266 $414 $422 reversed $275 $-1 #
loop $-1 $-1 $273 $398 #
vertex $-1 $169 $423 #
vertex $-1 $169 $424 #
straight-curve $-1 52.748191778313547 0 10.993031391570669 0 1 0 I I #
face $-1 $425 $426 $40 $-1 $427 forward single #
loop $-1 $-1 $288 $170 #
plane-surface $-1 0 -27.604946056511082 0 0 1 0 0 0 1 forward_v I I I I #
coedge $-1 $428 $429 $430 $431 forward $171 $-1 #
coedge $-1 $430 $173 $175 $290 reversed $109 $-1 #
coedge $-1 $173 $430 $432 $433 reversed $109 $-1 #
coedge $-1 $434 $176 $173 $286 forward $292 $-1 #
edge $-1 $294 3.2465156957853347 $435 6.2465156957853347 $285 $436 forward 7 unknown #
coedge $-1 $175 $174 $428 $437 reversed $69 $-1 #
coedge $-1 $438 $439 $174 $289 forward $280 $-1 #
edge $-1 $440 -52.748191778313547 $293 52.748191778313547 $288 $441 forward 7 unknown #
edge $-1 $442 -52.748191778313547 $294 52.748191778313547 $283 $443 forward 7 unknown #
coedge $-1 $176 $434 $438 $444 forward $292 $-1 #
loop $-1 $-1 $285 $425 #
vertex $-1 $289 $445 #
vertex $-1 $177 $446 #
straight-curve $-1 52.748191778313547 -11.310567156943367 7.9930313915706694 0 1 0 I I #
face $-1 $-1 $447 $41 $-1 $448 reversed single #
loop $-1 $-1 $449 $178 #
plane-surface $-1 0 27.604946056511082 0 0 -1 0 0 0 -1 forward_v I I I I #
coedge $-1 $450 $181 $183 $305 forward $113 $-1 #
coedge $-1 $181 $450 $449 $451 reversed $113 $-1 #
coedge $-1 $452 $184 $181 $302 forward $179 $-1 #
edge $-1 $308 4.9409653762535477 $453 16.756308912256205 $301 $454 forward 7 unknown #
coedge $-1 $455 $456 $182 $304 forward $447 $-1 #
edge $-1 $457 -41.225486244382907 $307 -30.913766436926061 $303 $458 forward 7 unknown #
edge $-1 $308 -16.749009141246511 $457 -9.0167608931652224e-015 $183 $459 forward 7 unknown #
coedge $-1 $184 $452 $455 $460 forward $179 $-1 #
vertex $-1 $304 $461 #
vertex $-1 $185 $462 #
straight-curve $-1 -58.849125867407068 15.789602520508424 10.993031391570668 1 0 0 I I #
coedge $-1 $310 $310 $-1 $463 reversed $188 $-1 #
edge $-1 $464 0 $464 6.2831853071796004 $189 $465 forward 7 unknown #
vertex $-1 $192 $466 #
ellipse-curve $-1 -46.1489921710494 19.165414959366331 5.8371714878422454 -0.61566148304635926 0 0.78801074757464917 1.1820161213619738 0 0.92349222456953894 1 I I #
coedge $-1 $314 $314 $-1 $467 reversed $195 $-1 #
edge $-1 $468 0 $468 6.2831853071796004 $196 $469 forward 7 unknown #
vertex $-1 $199 $470 #
ellipse-curve $-1 -46.1489921710494 24.229133617653183 5.8371714878422454 -0.61566148304635926 0 0.78801074757464917 1.1820161213619738 0 0.92349222456953894 1 I I #
face $-1 $-1 $330 $44 $-1 $471 forward single #
loop $-1 $-1 $472 $200 #
plane-surface $-1 52.748191778313547 0 0 -1 0 0 0 0 1 forward_v I I I I #
coedge $-1 $473 $474 $475 $476 reversed $201 $-1 #
coedge $-1 $477 $203 $205 $328 forward $127 $-1 #
coedge $-1 $203 $477 $473 $478 forward $127 $-1 #
coedge $-1 $475 $206 $203 $325 forward $330 $-1 #
edge $-1 $332 1.3871214934991878 $479 8.4921463481404817 $324 $480 forward 7 unknown #
coedge $-1 $481 $482 $204 $327 forward $319 $-1 #
edge $-1 $483 -72.190273665075765 $331 -65.806645672507742 $326 $484 forward 7 unknown #
edge $-1 $332 95.956201333413503 $483 105.49638355662711 $205 $485 forward 7 unknown #
coedge $-1 $206 $475 $481 $486 forward $330 $-1 #
loop $-1 $-1 $475 $318 #
vertex $-1 $327 $487 #
vertex $-1 $207 $488 #
straight-curve $-1 22.469980471479797 -6.326755414319023 10.993031391570668 -1 0 0 I I #
coedge $-1 $334 $334 $-1 $489 reversed $210 $-1 #
edge $-1 $490 0 $490 6.2831853071796004 $211 $491 forward 7 unknown #
vertex $-1 $214 $492 #
ellipse-curve $-1 49.203323286231551 -9.8792678416396704 7.8012173952866659 0.66913061440640931 0 0.74314481823134659 1.1147172273470198 0 -1.003695921609614 1 I I #
face $-1 $-1 $350 $46 $-1 $493 forward single #
loop $-1 $-1 $494 $215 #
plane-surface $-1 52.748191778313547 0 0 -1 0 0 0 0 1 forward_v I I I I #
coedge $-1 $495 $496 $497 $498 reversed $216 $-1 #
coedge $-1 $499 $218 $220 $348 forward $136 $-1 #
coedge $-1 $218 $499 $495 $500 forward $136 $-1 #
coedge $-1 $497 $221 $218 $345 forward $350 $-1 #
edge $-1 $352 -4.2681620849724959 $501 2.8368627696687989 $344 $502 forward 7 unknown #
coedge $-1 $503 $504 $219 $347 forward $339 $-1 #
edge $-1 $505 -72.190273665075765 $351 -65.806645672507742 $346 $506 forward 7 unknown #
edge $-1 $352 95.956201333413503 $505 105.49638355662711 $220 $507 forward 7 unknown #
coedge $-1 $221 $497 $503 $508 forward $350 $-1 #
loop $-1 $-1 $497 $338 #
vertex $-1 $347 $509 #
vertex $-1 $222 $510 #
straight-curve $-1 22.469980471479797 4.9838117426243445 10.993031391570668 -1 0 0 I I #
coedge $-1 $354 $354 $-1 $511 reversed $225 $-1 #
edge $-1 $512 0 $512 6.2831853071796004 $226 $513 forward 7 unknown #
vertex $-1 $229 $514 #
ellipse-curve $-1 49.203323286231551 1.431299315303697 7.8012173952866659 0.66913061440640931 0 0.74314481823134659 1.1147172273470198 0 -1.003695921609614 1 I I #
face $-1 $-1 $370 $48 $-1 $515 forward single #
loop $-1 $-1 $516 $230 #
plane-surface $-1 52.748191778313547 0 0 -1 0 0 0 0 1 forward_v I I I I #
coedge $-1 $517 $518 $519 $520 reversed $231 $-1 #
coedge $-1 $521 $233 $235 $368 forward $145 $-1 #
coedge $-1 $233 $521 $517 $522 forward $145 $-1 #
coedge $-1 $519 $236 $233 $365 forward $370 $-1 #
edge $-1 $372 -9.9234456634441806 $523 -2.8184208088028875 $364 $524 forward 7 unknown #
coedge $-1 $525 $526 $234 $367 forward $359 $-1 #
edge $-1 $527 -72.190273665075765 $371 -65.806645672507742 $366 $528 forward 7 unknown #
edge $-1 $372 95.956201333413503 $527 105.49638355662711 $235 $529 forward 7 unknown #
coedge $-1 $236 $519 $525 $530 forward $370 $-1 #
loop $-1 $-1 $519 $358 #
vertex $-1 $367 $531 #
vertex $-1 $237 $532 #
straight-curve $-1 22.469980471479797 16.294378899567715 10.993031391570668 -1 0 0 I I #
coedge $-1 $374 $374 $-1 $533 reversed $240 $-1 #
edge $-1 $534 0 $534 6.2831853071796004 $241 $535 forward 7 unknown #
vertex $-1 $244 $536 #
ellipse-curve $-1 49.203323286231551 12.741866472247068 7.8012173952866659 0.66913061440640931 0 0.74314481823134659 1.1147172273470198 0 -1.003695921609614 1 I I #
face $-1 $-1 $537 $50 $-1 $538 reversed single #
loop $-1 $-1 $384 $245 #
plane-surface $-1 0 0 10.993031391570669 0 0 1 1 0 0 forward_v I I I I #
coedge $-1 $539 $540 $383 $541 forward $246 $-1 #
coedge $-1 $383 $248 $250 $389 reversed $154 $-1 #
coedge $-1 $248 $382 $381 $541 reversed $154 $-1 #
coedge $-1 $542 $251 $248 $385 forward $379 $-1 #
edge $-1 $392 23.188474322669759 $543 30.27821130683375 $384 $544 forward 7 unknown #
coedge $-1 $250 $249 $539 $545 reversed $99 $-1 #
coedge $-1 $546 $547 $249 $388 forward $537 $-1 #
edge $-1 $548 -70.80581800966624 $391 -61.265635786452648 $387 $549 forward 7 unknown #
edge $-1 $550 -105.49638355662711 $392 -95.956201333413503 $382 $551 forward 7 unknown #
coedge $-1 $251 $542 $546 $552 forward $379 $-1 #
vertex $-1 $388 $553 #
vertex $-1 $252 $554 #
straight-curve $-1 45.658454794149563 12.026216814595216 10.993031391570661 0 -1 0 I I #
coedge $-1 $394 $394 $-1 $555 reversed $255 $-1 #
edge $-1 $556 0 $556 6.2831853071796004 $256 $557 forward 7 unknown #
vertex $-1 $259 $558 #
ellipse-curve $-1 49.203323286231551 24.052433629190432 7.8012173952866659 0.66913061440640931 0 0.74314481823134659 1.1147172273470198 0 -1.003695921609614 1 I I #
face $-1 $-1 $275 $39 $-1 $559 reversed single #
loop $-1 $-1 $414 $260 #
plane-surface $-1 0 27.604946056511082 0 0 -1 0 0 0 -1 forward_v I I I I #
coedge $-1 $560 $412 $415 $561 forward $261 $-1 #
coedge $-1 $418 $263 $264 $406 reversed $163 $-1 #
coedge $-1 $412 $560 $263 $404 reversed $261 $-1 #
edge $-1 $419 -10.993031391570669 $562 10.993031391570669 $403 $563 forward 7 unknown #
coedge $-1 $265 $264 $560 $564 forward $105 $-1 #
edge $-1 $410 -52.748191778313547 $562 52.748191778313547 $402 $565 forward 7 unknown #
coedge $-1 $415 $414 $265 $408 reversed $399 $-1 #
edge $-1 $566 -52.748191778313547 $409 52.748191778313547 $407 $567 forward 7 unknown #
vertex $-1 $267 $568 #
vertex $-1 $421 $569 #
straight-curve $-1 52.748191778313547 0 -10.993031391570669 0 -1 0 I I #
coedge $-1 $401 $403 $268 $413 reversed $261 $-1 #
edge $-1 $416 -27.604946056511082 $419 27.604946056511082 $412 $570 forward 7 unknown #
coedge $-1 $407 $269 $274 $422 forward $399 $-1 #
coedge $-1 $269 $407 $401 $561 reversed $399 $-1 #
vertex $-1 $270 $571 #
straight-curve $-1 0 27.604946056511082 10.993031391570669 -1 0 0 I I #
coedge $-1 $271 $402 $273 $421 reversed $163 $-1 #
vertex $-1 $413 $572 #
straight-curve $-1 0 -27.604946056511082 10.993031391570669 1 0 0 I I #
edge $-1 $276 -10.993031391570669 $410 10.993031391570669 $273 $573 forward 7 unknown #
edge $-1 $277 -10.993031391570669 $409 10.993031391570669 $274 $574 forward 7 unknown #
point $-1 52.748191778313547 -27.604946056511082 10.993031391570669 #
point $-1 52.748191778313547 27.604946056511082 10.993031391570669 #
face $-1 $-1 $292 $40 $-1 $575 reversed single #
loop $-1 $-1 $432 $279 #
plane-surface $-1 0 0 10.993031391570669 0 0 1 1 0 0 forward_v I I I I #
coedge $-1 $576 $282 $287 $437 forward $171 $-1 #
coedge $-1 $282 $576 $577 $578 reversed $171 $-1 #
coedge $-1 $284 $283 $282 $431 reversed $109 $-1 #
edge $-1 $579 -6.2465156957853347 $442 -3.2465156957853347 $282 $580 forward 7 unknown #
coedge $-1 $577 $581 $284 $433 forward $426 $-1 #
edge $-1 $435 -52.748191778313547 $579 52.748191778313547 $432 $582 forward 7 unknown #
coedge $-1 $291 $285 $581 $583 reversed $292 $-1 #
vertex $-1 $286 $584 #
straight-curve $-1 52.748191778313547 -17.637322571262388 4.7465156957853347 0 0 1 I I #
edge $-1 $442 6.3267554143190203 $440 16.294378899567715 $428 $585 forward 7 unknown #
coedge $-1 $586 $288 $291 $444 reversed $280 $-1 #
coedge $-1 $288 $586 $576 $587 forward $280 $-1 #
vertex $-1 $289 $588 #
straight-curve $-1 0 -27.604946056511082 7.9930313915706694 1 0 0 I I #
vertex $-1 $437 $589 #
straight-curve $-1 0 -17.637322571262388 7.9930313915706694 1 0 0 I I #
edge $-1 $590 -10.993031391570669 $293 -7.9930313915706694 $291 $591 forward 7 unknown #
point $-1 52.748191778313547 -27.604946056511082 7.9930313915706694 #
point $-1 52.748191778313547 -17.637322571262388 7.9930313915706694 #
loop $-1 $-1 $303 $296 #
plane-surface $-1 -52.748191778313547 0 0 1 0 0 0 0 -1 forward_v I I I I #
coedge $-1 $592 $593 $300 $451 forward $297 $-1 #
coedge $-1 $300 $299 $456 $594 reversed $113 $-1 #
edge $-1 $453 3.8243332268273162 $595 20.573342368073817 $449 $596 forward 7 unknown #
coedge $-1 $306 $301 $593 $597 forward $179 $-1 #
vertex $-1 $597 $598 #
straight-curve $-1 -39.54979256378526 10.848637144254877 10.993031391570668 0 1 0 I I #
coedge $-1 $599 $303 $306 $460 reversed $447 $-1 #
coedge $-1 $303 $599 $450 $594 forward $447 $-1 #
vertex $-1 $304 $600 #
straight-curve $-1 -52.748191778313547 15.789602520508424 41.906797828496728 0 0 1 I I #
straight-curve $-1 -52.748191778313554 15.789602520508424 0.68131158411381421 -0.78801074757464917 0 -0.61566148304635926 I I #
edge $-1 $601 -27.604946056511082 $307 -15.789602520508424 $455 $602 forward 7 unknown #
point $-1 -52.748191778313547 15.789602520508424 10.993031391570669 #
point $-1 -39.54979256378526 15.789602520508424 10.993031391570669 #
edge $-1 $603 1 $603 0 $310 $-1 forward 7 unknown #
vertex $-1 $311 $604 #
ellipse-curve $-1 -44.776788752065606 19.165414959366331 4.0808312395170363 -0.61566148304635926 0 0.78801074757464917 1.1820161213619738 0 0.92349222456953894 1 I I #
point $-1 -44.966976049687418 19.165414959366331 6.7606637124117732 #
edge $-1 $605 1 $605 0 $314 $-1 forward 7 unknown #
vertex $-1 $315 $606 #
ellipse-curve $-1 -44.776788752065606 24.229133617653183 4.0808312395170363 -0.61566148304635926 0 0.78801074757464917 1.1820161213619738 0 0.92349222456953894 1 I I #
point $-1 -44.966976049687418 24.229133617653183 6.7606637124117732 #
plane-surface $-1 0 0 10.993031391570669 0 0 1 1 0 0 forward_v I I I I #
coedge $-1 $482 $481 $474 $607 forward $319 $-1 #
coedge $-1 $474 $321 $323 $478 reversed $201 $-1 #
coedge $-1 $321 $473 $472 $607 reversed $201 $-1 #
coedge $-1 $329 $324 $321 $476 forward $330 $-1 #
edge $-1 $479 23.188474322669759 $608 30.27821130683375 $475 $609 forward 7 unknown #
coedge $-1 $323 $322 $482 $610 reversed $127 $-1 #
edge $-1 $611 -105.49638355662711 $479 -95.956201333413503 $473 $612 forward 7 unknown #
vertex $-1 $325 $613 #
straight-curve $-1 45.658454794149563 -4.9396339208198352 10.993031391570661 0 -1 0 I I #
coedge $-1 $472 $326 $329 $486 reversed $319 $-1 #
coedge $-1 $326 $472 $477 $610 forward $319 $-1 #
vertex $-1 $327 $614 #
straight-curve $-1 52.748191778313547 -6.326755414319023 76.799677064078409 0 0 1 I I #
straight-curve $-1 -25.650899003940516 -6.326755414319023 75.200263345902755 0.74314481823134659 0 -0.66913061440640931 I I #
edge $-1 $608 -13.431780268960317 $331 -6.326755414319023 $481 $615 forward 7 unknown #
point $-1 52.748191778313547 -6.326755414319023 10.993031391570669 #
point $-1 45.658454794149556 -6.326755414319023 10.993031391570668 #
edge $-1 $616 1 $616 0 $334 $-1 forward 7 unknown #
vertex $-1 $335 $617 #
ellipse-curve $-1 46.581651282730355 -9.8792678416396704 4.8895557218293186 0.66913061440640931 0 0.74314481823134659 1.1147172273470198 0 -1.003695921609614 1 I I #
point $-1 50.318040513578566 -9.8792678416396704 6.7975214736770466 #
plane-surface $-1 0 0 10.993031391570669 0 0 1 1 0 0 forward_v I I I I #
coedge $-1 $504 $503 $496 $618 forward $339 $-1 #
coedge $-1 $496 $341 $343 $500 reversed $216 $-1 #
coedge $-1 $341 $495 $494 $618 reversed $216 $-1 #
coedge $-1 $349 $344 $341 $498 forward $350 $-1 #
edge $-1 $501 23.188474322669759 $619 30.27821130683375 $497 $620 forward 7 unknown #
coedge $-1 $343 $342 $504 $621 reversed $136 $-1 #
edge $-1 $622 -105.49638355662711 $501 -95.956201333413503 $495 $623 forward 7 unknown #
vertex $-1 $345 $624 #
straight-curve $-1 45.658454794149563 0.71564965765184851 10.993031391570661 0 -1 0 I I #
coedge $-1 $494 $346 $349 $508 reversed $339 $-1 #
coedge $-1 $346 $494 $499 $621 forward $339 $-1 #
vertex $-1 $347 $625 #
straight-curve $-1 52.748191778313547 4.9838117426243445 76.799677064078409 0 0 1 I I #
straight-curve $-1 -25.650899003940516 4.9838117426243445 75.200263345902755 0.74314481823134659 0 -0.66913061440640931 I I #
edge $-1 $619 -2.1212131120169504 $351 4.9838117426243445 $503 $626 forward 7 unknown #
point $-1 52.748191778313547 4.9838117426243445 10.993031391570669 #
point $-1 45.658454794149556 4.9838117426243445 10.993031391570668 #
edge $-1 $627 1 $627 0 $354 $-1 forward 7 unknown #
vertex $-1 $355 $628 #
ellipse-curve $-1 46.581651282730355 1.431299315303697 4.8895557218293186 0.66913061440640931 0 0.74314481823134659 1.1147172273470198 0 -1.003695921609614 1 I I #
point $-1 50.318040513578566 1.431299315303697 6.7975214736770466 #
plane-surface $-1 0 0 10.993031391570669 0 0 1 1 0 0 forward_v I I I I #
coedge $-1 $526 $525 $518 $629 forward $359 $-1 #
coedge $-1 $518 $361 $363 $522 reversed $231 $-1 #
coedge $-1 $361 $517 $516 $629 reversed $231 $-1 #
coedge $-1 $369 $364 $361 $520 forward $370 $-1 #
edge $-1 $523 23.188474322669759 $630 30.27821130683375 $519 $631 forward 7 unknown #
coedge $-1 $363 $362 $526 $632 reversed $145 $-1 #
edge $-1 $633 -105.49638355662711 $523 -95.956201333413503 $517 $634 forward 7 unknown #
vertex $-1 $365 $635 #
straight-curve $-1 45.658454794149563 6.370933236123534 10.993031391570661 0 -1 0 I I #
coedge $-1 $516 $366 $369 $530 reversed $359 $-1 #
coedge $-1 $366 $516 $521 $632 forward $359 $-1 #
vertex $-1 $367 $636 #
straight-curve $-1 52.748191778313547 16.294378899567715 76.799677064078409 0 0 1 I I #
straight-curve $-1 -25.650899003940516 16.294378899567715 75.200263345902755 0.74314481823134659 0 -0.66913061440640931 I I #
edge $-1 $630 9.1893540449264215 $371 16.294378899567715 $525 $637 forward 7 unknown #
point $-1 52.748191778313547 16.294378899567715 10.993031391570669 #
point $-1 45.658454794149556 16.294378899567715 10.993031391570668 #
edge $-1 $638 1 $638 0 $374 $-1 forward 7 unknown #
vertex $-1 $375 $639 #
ellipse-curve $-1 46.581651282730355 12.741866472247068 4.8895557218293186 0.66913061440640931 0 0.74314481823134659 1.1147172273470198 0 -1.003695921609614 1 I I #
point $-1 50.318040513578566 12.741866472247068 6.7975214736770466 #
loop $-1 $-1 $387 $378 #
plane-surface $-1 0 27.604946056511082 0 0 -1 0 0 0 -1 forward_v I I I I #
coedge $-1 $640 $381 $386 $545 forward $246 $-1 #
coedge $-1 $381 $640 $542 $641 reversed $246 $-1 #
edge $-1 $543 65.806645672507742 $550 72.190273665075765 $381 $642 forward 7 unknown #
coedge $-1 $390 $384 $540 $641 forward $379 $-1 #
vertex $-1 $641 $643 #
straight-curve $-1 22.469980471479797 20.499921201869785 10.993031391570668 1 0 0 I I #
edge $-1 $550 8.4737043872745694 $548 15.578729241915863 $539 $644 forward 7 unknown #
coedge $-1 $547 $387 $390 $552 reversed $537 $-1 #
coedge $-1 $387 $546 $640 $645 forward $537 $-1 #
vertex $-1 $388 $646 #
straight-curve $-1 0.12921502379831651 27.604946056511082 51.987743907359025 -0.74314481823134659 0 0.66913061440640931 I I #
vertex $-1 $545 $647 #
straight-curve $-1 -25.650899003940516 20.499921201869785 75.200263345902755 -0.74314481823134659 0 0.66913061440640931 I I #
edge $-1 $648 -52.748191778313547 $391 -45.658454794149556 $546 $649 forward 7 unknown #
point $-1 45.658454794149556 27.604946056511078 10.993031391570668 #
point $-1 45.658454794149556 20.499921201869785 10.993031391570668 #
edge $-1 $650 1 $650 0 $394 $-1 forward 7 unknown #
vertex $-1 $395 $651 #
ellipse-curve $-1 46.581651282730355 24.052433629190432 4.8895557218293186 0.66913061440640931 0 0.74314481823134659 1.1147172273470198 0 -1.003695921609614 1 I I #
point $-1 50.318040513578566 24.052433629190432 6.7975214736770466 #
plane-surface $-1 52.748191778313547 0 0 -1 0 0 0 0 1 forward_v I I I I #
coedge $-1 $403 $401 $405 $564 reversed $261 $-1 #
edge $-1 $416 -10.993031391570669 $566 10.993031391570669 $415 $652 forward 7 unknown #
vertex $-1 $564 $653 #
straight-curve $-1 -52.748191778313547 -27.604946056511082 0 0 0 -1 I I #
edge $-1 $562 -27.604946056511082 $566 27.604946056511082 $560 $654 forward 7 unknown #
straight-curve $-1 0 -27.604946056511082 -10.993031391570669 -1 0 0 I I #
vertex $-1 $408 $655 #
straight-curve $-1 0 27.604946056511082 -10.993031391570669 1 0 0 I I #
point $-1 52.748191778313547 27.604946056511082 -10.993031391570669 #
point $-1 52.748191778313547 -27.604946056511082 -10.993031391570669 #
straight-curve $-1 -52.748191778313547 0 10.993031391570669 0 -1 0 I I #
point $-1 -52.748191778313547 27.604946056511082 10.993031391570669 #
point $-1 -52.748191778313547 -27.604946056511082 10.993031391570669 #
straight-curve $-1 52.748191778313547 -27.604946056511082 0 0 0 -1 I I #
straight-curve $-1 52.748191778313547 27.604946056511082 0 0 0 -1 I I #
plane-surface $-1 52.748191778313547 0 0 -1 0 0 0 0 1 forward_v I I I I #
coedge $-1 $429 $428 $439 $587 reversed $171 $-1 #
coedge $-1 $656 $432 $429 $578 forward $426 $-1 #
edge $-1 $579 17.637322571262388 $657 27.604946056511082 $429 $658 forward 7 unknown #
vertex $-1 $578 $659 #
straight-curve $-1 -52.748191778313547 -17.637322571262388 4.7465156957853347 0 0 -1 I I #
coedge $-1 $432 $656 $434 $583 forward $426 $-1 #
straight-curve $-1 0 -17.637322571262388 10.993031391570669 -1 0 0 I I #
edge $-1 $590 -27.604946056511082 $435 -17.637322571262388 $434 $660 forward 7 unknown #
point $-1 52.748191778313547 -17.637322571262388 10.993031391570669 #
straight-curve $-1 -52.748191778313547 -11.310567156943367 7.9930313915706694 0 -1 0 I I #
coedge $-1 $439 $438 $656 $661 reversed $280 $-1 #
edge $-1 $657 -10.993031391570669 $440 -7.9930313915706694 $576 $662 forward 7 unknown #
point $-1 -52.748191778313547 -27.604946056511082 7.9930313915706694 #
point $-1 -52.748191778313547 -17.637322571262388 7.9930313915706694 #
vertex $-1 $583 $663 #
straight-curve $-1 52.748191778313547 -27.604946056511082 0 0 0 -1 I I #
coedge $-1 $593 $449 $599 $664 reversed $297 $-1 #
coedge $-1 $449 $592 $452 $597 reversed $297 $-1 #
edge $-1 $595 -16.756308912256205 $457 -4.9409653762535477 $456 $665 forward 7 unknown #
vertex $-1 $451 $666 #
straight-curve $-1 -36.536176878738495 27.604946056511082 13.347526057662641 -0.78801074757464917 0 -0.61566148304635926 I I #
edge $-1 $453 39.54979256378526 $601 52.748191778313547 $593 $667 forward 7 unknown #
point $-1 -39.54979256378526 27.604946056511082 10.993031391570669 #
coedge $-1 $456 $455 $592 $664 forward $447 $-1 #
point $-1 -52.748191778313547 15.789602520508424 0.68131158411381976 #
vertex $-1 $597 $668 #
straight-curve $-1 -52.748191778313547 0 10.993031391570669 0 -1 0 I I #
vertex $-1 $463 $669 #
point $-1 -43.594772630703631 19.165414959366331 5.0043234640865757 #
vertex $-1 $467 $670 #
point $-1 -43.594772630703631 24.229133617653183 5.0043234640865757 #
edge $-1 $608 65.806645672507742 $611 72.190273665075765 $472 $671 forward 7 unknown #
vertex $-1 $486 $672 #
straight-curve $-1 22.469980471479797 -13.431780268960317 10.993031391570668 1 0 0 I I #
edge $-1 $611 -8.4921463481404817 $483 -1.3871214934991878 $482 $673 forward 7 unknown #
vertex $-1 $610 $674 #
straight-curve $-1 -25.650899003940516 -13.431780268960317 75.200263345902755 -0.74314481823134659 0 0.66913061440640931 I I #
point $-1 45.658454794149556 -13.431780268960317 10.993031391570668 #
point $-1 52.748191778313547 -6.326755414319023 4.6094033990026446 #
straight-curve $-1 52.748191778313547 0 10.993031391570669 0 1 0 I I #
vertex $-1 $489 $675 #
point $-1 47.69636851007737 -9.8792678416396704 3.8858598002197047 #
edge $-1 $619 65.806645672507742 $622 72.190273665075765 $494 $676 forward 7 unknown #
vertex $-1 $508 $677 #
straight-curve $-1 22.469980471479797 -2.1212131120169504 10.993031391570668 1 0 0 I I #
edge $-1 $622 -2.8368627696687989 $505 4.2681620849724959 $504 $678 forward 7 unknown #
vertex $-1 $621 $679 #
straight-curve $-1 -25.650899003940516 -2.1212131120169504 75.200263345902755 -0.74314481823134659 0 0.66913061440640931 I I #
point $-1 45.658454794149556 -2.1212131120169504 10.993031391570668 #
point $-1 52.748191778313547 4.9838117426243445 4.6094033990026446 #
straight-curve $-1 52.748191778313547 0 10.993031391570669 0 1 0 I I #
vertex $-1 $511 $680 #
point $-1 47.69636851007737 1.431299315303697 3.8858598002197047 #
edge $-1 $630 65.806645672507742 $633 72.190273665075765 $516 $681 forward 7 unknown #
vertex $-1 $530 $682 #
straight-curve $-1 22.469980471479797 9.1893540449264215 10.993031391570668 1 0 0 I I #
edge $-1 $633 2.8184208088028875 $527 9.9234456634441806 $526 $683 forward 7 unknown #
vertex $-1 $632 $684 #
straight-curve $-1 -25.650899003940516 9.1893540449264215 75.200263345902755 -0.74314481823134659 0 0.66913061440640931 I I #
point $-1 45.658454794149556 9.1893540449264215 10.993031391570668 #
point $-1 52.748191778313547 16.294378899567715 4.6094033990026446 #
straight-curve $-1 52.748191778313547 0 10.993031391570669 0 1 0 I I #
vertex $-1 $533 $685 #
point $-1 47.69636851007737 12.741866472247068 3.8858598002197047 #
coedge $-1 $540 $539 $547 $645 reversed $246 $-1 #
edge $-1 $543 20.499921201869785 $648 27.604946056511082 $540 $686 forward 7 unknown #
straight-curve $-1 52.748191778313547 20.499921201869785 76.799677064078409 0 0 -1 I I #
point $-1 52.748191778313547 20.499921201869785 10.993031391570669 #
straight-curve $-1 52.74819177831354 12.026216814595216 4.6094033990026588 0 1 0 I I #
edge $-1 $648 -10.993031391570669 $548 -4.6094033990026446 $640 $687 forward 7 unknown #
point $-1 52.748191778313547 27.604946056511078 4.6094033990026446 #
point $-1 52.748191778313547 20.499921201869785 4.6094033990026446 #
vertex $-1 $641 $688 #
straight-curve $-1 0 27.604946056511082 10.993031391570669 -1 0 0 I I #
vertex $-1 $555 $689 #
point $-1 47.69636851007737 24.052433629190432 3.8858598002197047 #
straight-curve $-1 -52.748191778313547 27.604946056511082 0 0 0 -1 I I #
point $-1 -52.748191778313547 -27.604946056511082 -10.993031391570669 #
straight-curve $-1 -52.748191778313547 0 -10.993031391570669 0 1 0 I I #
point $-1 -52.748191778313547 27.604946056511082 -10.993031391570669 #
coedge $-1 $581 $577 $586 $661 forward $426 $-1 #
vertex $-1 $578 $690 #
straight-curve $-1 -52.748191778313547 0 10.993031391570669 0 -1 0 I I #
point $-1 -52.748191778313547 -17.637322571262388 10.993031391570669 #
straight-curve $-1 52.748191778313547 0 10.993031391570669 0 1 0 I I #
edge $-1 $657 -52.748191778313547 $590 52.748191778313547 $586 $691 forward 7 unknown #
straight-curve $-1 -52.748191778313547 -27.604946056511082 0 0 0 -1 I I #
point $-1 52.748191778313547 -27.604946056511082 10.993031391570669 #
edge $-1 $601 -10.993031391570669 $595 -0.68131158411381976 $592 $692 forward 7 unknown #
straight-curve $-1 -52.748191778313547 10.848637144254877 0.6813115841138202 0 -1 0 I I #
point $-1 -52.748191778313547 27.604946056511082 0.68131158411381976 #
straight-curve $-1 0 27.604946056511082 10.993031391570669 -1 0 0 I I #
point $-1 -52.748191778313547 27.604946056511082 10.993031391570669 #
point $-1 -43.853296527496063 19.165414959366331 2.8988151181550621 #
point $-1 -43.853296527496063 24.229133617653183 2.8988151181550621 #
straight-curve $-1 52.748191778313547 -13.431780268960317 76.799677064078409 0 0 -1 I I #
point $-1 52.748191778313547 -13.431780268960317 10.993031391570669 #
straight-curve $-1 52.74819177831354 -4.9396339208198352 4.6094033990026588 0 1 0 I I #
point $-1 52.748191778313547 -13.431780268960317 4.6094033990026446 #
point $-1 45.577955361120736 -9.8792678416396704 3.7748384944822986 #
straight-curve $-1 52.748191778313547 -2.1212131120169504 76.799677064078409 0 0 -1 I I #
point $-1 52.748191778313547 -2.1212131120169504 10.993031391570669 #
straight-curve $-1 52.74819177831354 0.71564965765184851 4.6094033990026588 0 1 0 I I #
point $-1 52.748191778313547 -2.1212131120169504 4.6094033990026446 #
point $-1 45.577955361120736 1.431299315303697 3.7748384944822986 #
straight-curve $-1 52.748191778313547 9.1893540449264215 76.799677064078409 0 0 -1 I I #
point $-1 52.748191778313547 9.1893540449264215 10.993031391570669 #
straight-curve $-1 52.74819177831354 6.370933236123534 4.6094033990026588 0 1 0 I I #
point $-1 52.748191778313547 9.1893540449264215 4.6094033990026446 #
point $-1 45.577955361120736 12.741866472247068 3.7748384944822986 #
straight-curve $-1 52.748191778313547 0 10.993031391570669 0 1 0 I I #
straight-curve $-1 52.748191778313547 27.604946056511082 0 0 0 -1 I I #
point $-1 52.748191778313547 27.604946056511082 10.993031391570669 #
point $-1 45.577955361120736 24.052433629190432 3.7748384944822986 #
point $-1 -52.748191778313547 -27.604946056511082 10.993031391570669 #
straight-curve $-1 0 -27.604946056511082 10.993031391570669 1 0 0 I I #
straight-curve $-1 -52.748191778313547 27.604946056511082 0 0 0 -1 I I #
End-of-ACIS-data 