500 0 6 0           
7 Unknown 11 ACIS 5.0 NT 24 Thu Mar 25 16:53:15 1999 
-1 9.9999999999999995e-007 1e-010 
body $-1 $6 $-1 $7 #
body $-1 $8 $-1 $9 #
body $-1 $10 $-1 $11 #
body $-1 $12 $-1 $13 #
body $-1 $14 $-1 $15 #
body $-1 $16 $-1 $17 #
lump $-1 $-1 $18 $0 #
transform $-1 1 0 0 0 1 0 0 0 1 79.454329050569171 47.080696990226627 20.444117715846389 1 rotate no_reflect no_shear #
lump $-1 $-1 $19 $1 #
transform $-1 1 0 0 0 1 0 0 0 1 79.454329050569171 47.080696990226627 20.444117715846389 1 rotate no_reflect no_shear #
lump $-1 $-1 $20 $2 #
transform $-1 1 0 0 0 1 0 0 0 1 79.454329050569171 47.080696990226627 20.444117715846389 1 rotate no_reflect no_shear #
lump $-1 $-1 $21 $3 #
transform $-1 1 0 0 0 1 0 0 0 1 79.454329050569171 47.080696990226627 20.444117715846389 1 rotate no_reflect no_shear #
lump $-1 $-1 $22 $4 #
transform $-1 1 0 0 0 1 0 0 0 1 79.454329050569171 47.080696990226627 20.444117715846389 1 rotate no_reflect no_shear #
lump $-1 $-1 $23 $5 #
transform $-1 1 0 0 0 1 0 0 0 1 79.454329050569171 47.080696990226627 20.444117715846389 1 rotate no_reflect no_shear #
shell $-1 $-1 $-1 $24 $-1 $6 #
shell $-1 $-1 $-1 $25 $-1 $8 #
shell $-1 $-1 $-1 $26 $-1 $10 #
shell $-1 $-1 $-1 $27 $-1 $12 #
shell $-1 $-1 $-1 $28 $-1 $14 #
shell $-1 $-1 $-1 $29 $-1 $16 #
face $-1 $30 $31 $18 $-1 $32 forward single #
face $-1 $33 $34 $19 $-1 $35 reversed single #
face $-1 $36 $37 $20 $-1 $38 reversed single #
face $-1 $39 $40 $21 $-1 $41 forward single #
face $-1 $42 $43 $22 $-1 $44 forward single #
face $-1 $45 $46 $23 $-1 $47 forward single #
face $-1 $48 $49 $18 $-1 $50 reversed single #
loop $-1 $-1 $51 $24 #
plane-surface $-1 0 0 20.444117715846389 0 0 1 1 0 0 forward_v I I I I #
face $-1 $52 $53 $19 $-1 $54 reversed single #
loop $-1 $-1 $55 $25 #
plane-surface $-1 0 -35.765123972523746 10.096088602274847 0 0 1 1 0 0 forward_v I I I I #
face $-1 $56 $57 $20 $-1 $58 reversed single #
loop $-1 $-1 $59 $26 #
plane-surface $-1 -8.212716680866663 61.094462099085277 199.71841213716499 1 0 0 0 -0.57357644374324357 -0.81915203911291934 forward_v I I I I #
face $-1 $60 $61 $21 $-1 $62 forward single #
loop $-1 $63 $64 $27 #
cone-surface $-1 0.51676001078075728 42.823971028211702 16.914421966246714 0 -0.57357644374324357 -0.81915203911291934 1.5 0 0 1 I I 0 1 1.5 forward I I I I #
face $-1 $65 $66 $22 $-1 $67 forward single #
loop $-1 $68 $69 $28 #
cone-surface $-1 13.610975048251888 42.823971028211702 16.914421966246714 0 -0.57357644374324357 -0.81915203911291934 1.5 0 0 1 I I 0 1 1.5 forward I I I I #
face $-1 $70 $71 $23 $-1 $72 forward single #
loop $-1 $73 $74 $29 #
cone-surface $-1 26.705190085723018 42.823971028211702 16.914421966246714 0 -0.57357644374324357 -0.81915203911291934 1.5 0 0 1 I I 0 1 1.5 forward I I I I #
face $-1 $75 $76 $18 $-1 $77 reversed single #
loop $-1 $-1 $78 $30 #
plane-surface $-1 0 0 -20.444117715846389 0 0 1 1 0 0 forward_v I I I I #
coedge $-1 $79 $80 $81 $82 forward $31 $-1 #
face $-1 $83 $84 $19 $-1 $85 reversed single #
loop $-1 $-1 $86 $33 #
plane-surface $-1 0 -24.449550954820864 15.270103159060618 0 -1 0 0 0 -1 forward_v I I I I #
coedge $-1 $87 $88 $89 $90 reversed $34 $-1 #
face $-1 $91 $92 $20 $-1 $93 reversed single #
loop $-1 $-1 $94 $36 #
plane-surface $-1 13.610975048251888 -30.05180089457663 69.548060820919801 0 0.57357644374324357 0.81915203911291934 1 0 0 forward_v I I I I #
coedge $-1 $95 $96 $97 $98 reversed $37 $-1 #
face $-1 $-1 $99 $21 $-1 $100 forward single #
loop $-1 $101 $102 $39 #
cone-surface $-1 0.51676001078075728 41.639463114908139 15.222769383383067 0 -0.57357644374324357 -0.81915203911291934 0.75 0 0 1 I I -0.70710678118654835 0.70710678118654668 0.75 forward I I I I #
loop $-1 $-1 $103 $27 #
coedge $-1 $64 $64 $104 $105 reversed $40 $-1 #
face $-1 $-1 $106 $22 $-1 $107 forward single #
loop $-1 $108 $109 $42 #
cone-surface $-1 13.610975048251888 41.639463114908139 15.222769383383067 0 -0.57357644374324357 -0.81915203911291934 0.75 0 0 1 I I -0.70710678118654835 0.70710678118654668 0.75 forward I I I I #
loop $-1 $-1 $110 $28 #
coedge $-1 $69 $69 $111 $112 reversed $43 $-1 #
face $-1 $-1 $113 $23 $-1 $114 forward single #
loop $-1 $115 $116 $45 #
cone-surface $-1 26.705190085723018 41.639463114908139 15.222769383383067 0 -0.57357644374324357 -0.81915203911291934 0.75 0 0 1 I I -0.70710678118654835 0.70710678118654668 0.75 forward I I I I #
loop $-1 $-1 $117 $29 #
coedge $-1 $74 $74 $118 $119 reversed $46 $-1 #
face $-1 $120 $121 $18 $-1 $122 reversed single #
loop $-1 $-1 $123 $48 #
plane-surface $-1 0 -47.080696990226627 0 0 1 0 0 0 1 forward_v I I I I #
coedge $-1 $124 $125 $126 $127 forward $49 $-1 #
coedge $-1 $128 $51 $129 $130 forward $31 $-1 #
coedge $-1 $51 $128 $131 $132 forward $31 $-1 #
coedge $-1 $133 $134 $51 $82 reversed $135 $-1 #
edge $-1 $136 -47.080696990226627 $137 47.080696990226627 $81 $138 forward 7 unknown #
face $-1 $139 $140 $19 $-1 $141 reversed single #
loop $-1 $-1 $142 $52 #
plane-surface $-1 -79.454329050569171 0 0 1 0 0 0 0 -1 forward_v I I I I #
coedge $-1 $143 $144 $145 $146 reversed $53 $-1 #
coedge $-1 $147 $55 $148 $149 reversed $34 $-1 #
coedge $-1 $55 $147 $143 $150 forward $34 $-1 #
coedge $-1 $145 $151 $55 $90 forward $152 $-1 #
edge $-1 $153 -29.198135003964754 $154 -6.5669889685589915 $89 $155 forward 7 unknown #
face $-1 $156 $157 $20 $-1 $158 forward single #
loop $-1 $-1 $159 $56 #
plane-surface $-1 35.434666777370438 61.094462099085277 199.71841213716499 -1 0 0 0 0.57357644374324357 0.81915203911291934 forward_v I I I I #
coedge $-1 $160 $161 $162 $163 reversed $57 $-1 #
coedge $-1 $96 $59 $164 $165 reversed $37 $-1 #
coedge $-1 $59 $95 $160 $166 reversed $37 $-1 #
coedge $-1 $162 $167 $59 $98 forward $157 $-1 #
edge $-1 $168 -16.533465940683989 $169 -9.528665177646424 $97 $170 forward 7 unknown #
loop $-1 $-1 $104 $60 #
plane-surface $-1 13.610975048251888 -30.05180089457663 69.548060820919801 0 0.57357644374324357 0.81915203911291934 1 0 0 forward_v I I I I #
loop $-1 $-1 $171 $39 #
coedge $-1 $102 $102 $103 $172 reversed $61 $-1 #
coedge $-1 $103 $103 $102 $172 forward $63 $-1 #
coedge $-1 $104 $104 $64 $105 forward $99 $-1 #
edge $-1 $173 0 $173 6.2831853071796004 $104 $174 forward 7 unknown #
loop $-1 $-1 $111 $65 #
plane-surface $-1 13.610975048251888 -30.05180089457663 69.548060820919801 0 0.57357644374324357 0.81915203911291934 1 0 0 forward_v I I I I #
loop $-1 $-1 $175 $42 #
coedge $-1 $109 $109 $110 $176 reversed $66 $-1 #
coedge $-1 $110 $110 $109 $176 forward $68 $-1 #
coedge $-1 $111 $111 $69 $112 forward $106 $-1 #
edge $-1 $177 0 $177 6.2831853071796004 $111 $178 forward 7 unknown #
loop $-1 $-1 $118 $70 #
plane-surface $-1 13.610975048251888 -30.05180089457663 69.548060820919801 0 0.57357644374324357 0.81915203911291934 1 0 0 forward_v I I I I #
loop $-1 $-1 $179 $45 #
coedge $-1 $116 $116 $117 $180 reversed $71 $-1 #
coedge $-1 $117 $117 $116 $180 forward $73 $-1 #
coedge $-1 $118 $118 $74 $119 forward $113 $-1 #
edge $-1 $181 0 $181 6.2831853071796004 $118 $182 forward 7 unknown #
face $-1 $183 $184 $18 $-1 $185 reversed single #
loop $-1 $-1 $186 $75 #
plane-surface $-1 -79.454329050569171 0 0 1 0 0 0 0 -1 forward_v I I I I #
coedge $-1 $187 $131 $188 $189 forward $76 $-1 #
coedge $-1 $190 $78 $187 $191 forward $49 $-1 #
coedge $-1 $78 $190 $192 $193 forward $49 $-1 #
coedge $-1 $134 $133 $78 $127 reversed $135 $-1 #
edge $-1 $194 -47.080696990226627 $195 47.080696990226627 $126 $196 forward 7 unknown #
coedge $-1 $80 $79 $197 $198 forward $31 $-1 #
coedge $-1 $199 $200 $79 $130 reversed $184 $-1 #
edge $-1 $137 -79.454329050569171 $201 79.454329050569171 $129 $202 forward 7 unknown #
coedge $-1 $123 $203 $80 $132 reversed $76 $-1 #
edge $-1 $204 -79.454329050569171 $136 79.454329050569171 $131 $205 forward 7 unknown #
coedge $-1 $126 $81 $203 $206 forward $135 $-1 #
coedge $-1 $81 $126 $199 $207 reversed $135 $-1 #
loop $-1 $-1 $133 $183 #
vertex $-1 $82 $208 #
vertex $-1 $82 $209 #
straight-curve $-1 79.454329050569171 0 20.444117715846389 0 1 0 I I #
face $-1 $210 $211 $19 $-1 $212 forward single #
loop $-1 $-1 $148 $83 #
plane-surface $-1 0 -47.080696990226627 0 0 1 0 0 0 1 forward_v I I I I #
coedge $-1 $213 $214 $215 $216 forward $84 $-1 #
coedge $-1 $215 $86 $88 $150 reversed $53 $-1 #
coedge $-1 $86 $215 $217 $218 reversed $53 $-1 #
coedge $-1 $219 $89 $86 $146 forward $152 $-1 #
edge $-1 $154 2.4610370227445379 $220 12.80906613631608 $145 $221 forward 7 unknown #
coedge $-1 $88 $87 $213 $222 reversed $34 $-1 #
coedge $-1 $223 $224 $87 $149 forward $140 $-1 #
edge $-1 $225 -79.454329050569171 $153 79.454329050569171 $148 $226 forward 7 unknown #
edge $-1 $227 -79.454329050569171 $154 79.454329050569171 $143 $228 forward 7 unknown #
coedge $-1 $89 $219 $223 $229 forward $152 $-1 #
loop $-1 $-1 $145 $210 #
vertex $-1 $149 $230 #
vertex $-1 $90 $231 #
straight-curve $-1 79.454329050569171 -17.882561986261873 10.096088602274847 0 1 0 I I #
face $-1 $-1 $232 $20 $-1 $233 reversed single #
loop $-1 $-1 $97 $91 #
plane-surface $-1 0 0 20.444117715846389 0 0 1 1 0 0 forward_v I I I I #
coedge $-1 $234 $235 $236 $237 reversed $92 $-1 #
coedge $-1 $238 $94 $96 $166 forward $57 $-1 #
coedge $-1 $94 $238 $234 $239 forward $57 $-1 #
coedge $-1 $236 $97 $94 $163 forward $157 $-1 #
edge $-1 $169 -15.018204204992607 $240 28.629179253244494 $162 $241 forward 7 unknown #
coedge $-1 $242 $243 $95 $165 forward $232 $-1 #
edge $-1 $244 -84.319902744877538 $168 -79.415088352736106 $164 $245 forward 7 unknown #
edge $-1 $169 85.610111155566145 $244 94.161393980453255 $96 $246 forward 7 unknown #
coedge $-1 $97 $236 $242 $247 forward $157 $-1 #
vertex $-1 $165 $248 #
vertex $-1 $98 $249 #
straight-curve $-1 -8.212716680866663 30.547231049542638 20.444117715846389 0 -1 0 I I #
coedge $-1 $171 $171 $-1 $250 reversed $101 $-1 #
edge $-1 $251 0 $251 6.2831853071796004 $102 $252 forward 7 unknown #
vertex $-1 $105 $253 #
ellipse-curve $-1 0.51676001078075728 43.578296608707831 17.991710519775673 0 0.57357644374324357 0.81915203911291934 1.5 0 0 1 I I #
coedge $-1 $175 $175 $-1 $254 reversed $108 $-1 #
edge $-1 $255 0 $255 6.2831853071796004 $109 $256 forward 7 unknown #
vertex $-1 $112 $257 #
ellipse-curve $-1 13.610975048251888 43.578296608707831 17.991710519775673 0 0.57357644374324357 0.81915203911291934 1.5 0 0 1 I I #
coedge $-1 $179 $179 $-1 $258 reversed $115 $-1 #
edge $-1 $259 0 $259 6.2831853071796004 $116 $260 forward 7 unknown #
vertex $-1 $119 $261 #
ellipse-curve $-1 26.705190085723018 43.578296608707831 17.991710519775673 0 0.57357644374324357 0.81915203911291934 1.5 0 0 1 I I #
face $-1 $-1 $135 $18 $-1 $262 reversed single #
loop $-1 $-1 $199 $120 #
plane-surface $-1 0 47.080696990226627 0 0 -1 0 0 0 -1 forward_v I I I I #
coedge $-1 $263 $197 $200 $264 forward $121 $-1 #
coedge $-1 $203 $123 $124 $191 reversed $76 $-1 #
coedge $-1 $197 $263 $123 $189 reversed $121 $-1 #
edge $-1 $204 -20.444117715846389 $265 20.444117715846389 $188 $266 forward 7 unknown #
coedge $-1 $125 $124 $263 $267 forward $49 $-1 #
edge $-1 $195 -79.454329050569171 $265 79.454329050569171 $187 $268 forward 7 unknown #
coedge $-1 $200 $199 $125 $193 reversed $184 $-1 #
edge $-1 $269 -79.454329050569171 $194 79.454329050569171 $192 $270 forward 7 unknown #
vertex $-1 $127 $271 #
vertex $-1 $206 $272 #
straight-curve $-1 79.454329050569171 0 -20.444117715846389 0 -1 0 I I #
coedge $-1 $186 $188 $128 $198 reversed $121 $-1 #
edge $-1 $201 -47.080696990226627 $204 47.080696990226627 $197 $273 forward 7 unknown #
coedge $-1 $192 $129 $134 $207 forward $184 $-1 #
coedge $-1 $129 $192 $186 $264 reversed $184 $-1 #
vertex $-1 $130 $274 #
straight-curve $-1 0 47.080696990226627 20.444117715846389 -1 0 0 I I #
coedge $-1 $131 $187 $133 $206 reversed $76 $-1 #
vertex $-1 $198 $275 #
straight-curve $-1 0 -47.080696990226627 20.444117715846389 1 0 0 I I #
edge $-1 $136 -20.444117715846389 $195 20.444117715846389 $133 $276 forward 7 unknown #
edge $-1 $137 -20.444117715846389 $194 20.444117715846389 $134 $277 forward 7 unknown #
point $-1 79.454329050569171 -47.080696990226627 20.444117715846389 #
point $-1 79.454329050569171 47.080696990226627 20.444117715846389 #
face $-1 $-1 $152 $19 $-1 $278 reversed single #
loop $-1 $-1 $217 $139 #
plane-surface $-1 0 0 20.444117715846389 0 0 1 1 0 0 forward_v I I I I #
coedge $-1 $279 $142 $147 $222 forward $84 $-1 #
coedge $-1 $142 $279 $280 $281 reversed $84 $-1 #
coedge $-1 $144 $143 $142 $216 reversed $53 $-1 #
edge $-1 $282 -12.80906613631608 $227 -2.4610370227445379 $142 $283 forward 7 unknown #
coedge $-1 $280 $284 $144 $218 forward $211 $-1 #
edge $-1 $220 -79.454329050569171 $282 79.454329050569171 $217 $285 forward 7 unknown #
coedge $-1 $151 $145 $284 $286 reversed $152 $-1 #
vertex $-1 $146 $287 #
straight-curve $-1 79.454329050569171 -24.449550954820864 7.6350515795303089 0 0 1 I I #
edge $-1 $227 6.5669889685589915 $225 29.198135003964754 $213 $288 forward 7 unknown #
coedge $-1 $289 $148 $151 $229 reversed $140 $-1 #
coedge $-1 $148 $289 $279 $290 forward $140 $-1 #
vertex $-1 $149 $291 #
straight-curve $-1 0 -47.080696990226627 10.096088602274847 1 0 0 I I #
vertex $-1 $222 $292 #
straight-curve $-1 0 -24.449550954820864 10.096088602274847 1 0 0 I I #
edge $-1 $293 -20.444117715846389 $153 -10.096088602274847 $151 $294 forward 7 unknown #
point $-1 79.454329050569171 -47.080696990226627 10.096088602274847 #
point $-1 79.454329050569171 -24.449550954820864 10.096088602274847 #
loop $-1 $-1 $164 $156 #
plane-surface $-1 0 47.080696990226627 0 0 -1 0 0 0 -1 forward_v I I I I #
coedge $-1 $235 $159 $161 $239 reversed $92 $-1 #
coedge $-1 $159 $234 $295 $296 reversed $92 $-1 #
coedge $-1 $167 $162 $159 $237 forward $157 $-1 #
edge $-1 $240 9.528665177646424 $297 16.533465940683989 $236 $298 forward 7 unknown #
coedge $-1 $161 $160 $243 $299 reversed $57 $-1 #
edge $-1 $300 -94.161393980453255 $240 -85.610111155566145 $234 $301 forward 7 unknown #
vertex $-1 $163 $302 #
straight-curve $-1 6.8054875241259438 40.075896227189048 20.444117715846396 1 0 0 I I #
coedge $-1 $295 $164 $167 $247 reversed $232 $-1 #
coedge $-1 $164 $295 $238 $299 forward $232 $-1 #
vertex $-1 $165 $303 #
straight-curve $-1 -8.212716680866663 47.080696990226627 99.859206068582495 0 0 1 I I #
straight-curve $-1 -8.212716680866663 -30.05180089457663 69.548060820919801 0 0.81915203911291934 -0.57357644374324357 I I #
edge $-1 $297 -35.434666777370438 $168 8.212716680866663 $242 $304 forward 7 unknown #
point $-1 -8.212716680866663 47.080696990226627 20.444117715846389 #
point $-1 -8.212716680866663 40.075896227189062 20.444117715846389 #
edge $-1 $305 1 $305 0 $171 $-1 forward 7 unknown #
vertex $-1 $172 $306 #
ellipse-curve $-1 0.51676001078075728 42.069645447715573 15.837133412717755 0 0.57357644374324357 0.81915203911291934 1.5 0 0 1 I I #
point $-1 2.0167600107807573 43.578296608707831 17.991710519775673 #
edge $-1 $307 1 $307 0 $175 $-1 forward 7 unknown #
vertex $-1 $176 $308 #
ellipse-curve $-1 13.610975048251888 42.069645447715573 15.837133412717755 0 0.57357644374324357 0.81915203911291934 1.5 0 0 1 I I #
point $-1 15.110975048251888 43.578296608707831 17.991710519775673 #
edge $-1 $309 1 $309 0 $179 $-1 forward 7 unknown #
vertex $-1 $180 $310 #
ellipse-curve $-1 26.705190085723018 42.069645447715573 15.837133412717755 0 0.57357644374324357 0.81915203911291934 1.5 0 0 1 I I #
point $-1 28.205190085723018 43.578296608707831 17.991710519775673 #
plane-surface $-1 79.454329050569171 0 0 -1 0 0 0 0 1 forward_v I I I I #
coedge $-1 $188 $186 $190 $267 reversed $121 $-1 #
edge $-1 $201 -20.444117715846389 $269 20.444117715846389 $200 $311 forward 7 unknown #
vertex $-1 $267 $312 #
straight-curve $-1 -79.454329050569171 -47.080696990226627 0 0 0 -1 I I #
edge $-1 $265 -47.080696990226627 $269 47.080696990226627 $263 $313 forward 7 unknown #
straight-curve $-1 0 -47.080696990226627 -20.444117715846389 -1 0 0 I I #
vertex $-1 $193 $314 #
straight-curve $-1 0 47.080696990226627 -20.444117715846389 1 0 0 I I #
point $-1 79.454329050569171 47.080696990226627 -20.444117715846389 #
point $-1 79.454329050569171 -47.080696990226627 -20.444117715846389 #
straight-curve $-1 -79.454329050569171 0 20.444117715846389 0 -1 0 I I #
point $-1 -79.454329050569171 47.080696990226627 20.444117715846389 #
point $-1 -79.454329050569171 -47.080696990226627 20.444117715846389 #
straight-curve $-1 79.454329050569171 -47.080696990226627 0 0 0 -1 I I #
straight-curve $-1 79.454329050569171 47.080696990226627 0 0 0 -1 I I #
plane-surface $-1 79.454329050569171 0 0 -1 0 0 0 0 1 forward_v I I I I #
coedge $-1 $214 $213 $224 $290 reversed $84 $-1 #
coedge $-1 $315 $217 $214 $281 forward $211 $-1 #
edge $-1 $282 24.449550954820864 $316 47.080696990226627 $214 $317 forward 7 unknown #
vertex $-1 $281 $318 #
straight-curve $-1 -79.454329050569171 -24.449550954820864 7.6350515795303089 0 0 -1 I I #
coedge $-1 $217 $315 $219 $286 forward $211 $-1 #
straight-curve $-1 0 -24.449550954820864 20.444117715846389 -1 0 0 I I #
edge $-1 $293 -47.080696990226627 $220 -24.449550954820864 $219 $319 forward 7 unknown #
point $-1 79.454329050569171 -24.449550954820864 20.444117715846389 #
straight-curve $-1 -79.454329050569171 -17.882561986261873 10.096088602274847 0 -1 0 I I #
coedge $-1 $224 $223 $315 $320 reversed $140 $-1 #
edge $-1 $316 -20.444117715846389 $225 -10.096088602274847 $279 $321 forward 7 unknown #
point $-1 -79.454329050569171 -47.080696990226627 10.096088602274847 #
point $-1 -79.454329050569171 -24.449550954820864 10.096088602274847 #
vertex $-1 $286 $322 #
straight-curve $-1 79.454329050569171 -47.080696990226627 0 0 0 -1 I I #
coedge $-1 $243 $242 $235 $296 forward $232 $-1 #
edge $-1 $297 79.415088352736106 $300 84.319902744877538 $295 $323 forward 7 unknown #
vertex $-1 $247 $324 #
straight-curve $-1 35.434666777370438 30.547231049542638 20.444117715846389 0 1 0 I I #
edge $-1 $300 -28.629179253244494 $244 15.018204204992607 $243 $325 forward 7 unknown #
vertex $-1 $299 $326 #
straight-curve $-1 35.434666777370438 -30.05180089457663 69.548060820919801 0 -0.81915203911291934 0.57357644374324357 I I #
point $-1 35.434666777370438 40.075896227189062 20.444117715846389 #
point $-1 -8.212716680866663 47.080696990226627 15.539303323704964 #
straight-curve $-1 0 47.080696990226627 20.444117715846389 -1 0 0 I I #
vertex $-1 $250 $327 #
point $-1 2.0167600107807573 42.069645447715573 15.837133412717755 #
vertex $-1 $254 $328 #
point $-1 15.110975048251888 42.069645447715573 15.837133412717755 #
vertex $-1 $258 $329 #
point $-1 28.205190085723018 42.069645447715573 15.837133412717755 #
straight-curve $-1 -79.454329050569171 47.080696990226627 0 0 0 -1 I I #
point $-1 -79.454329050569171 -47.080696990226627 -20.444117715846389 #
straight-curve $-1 -79.454329050569171 0 -20.444117715846389 0 1 0 I I #
point $-1 -79.454329050569171 47.080696990226627 -20.444117715846389 #
coedge $-1 $284 $280 $289 $320 forward $211 $-1 #
vertex $-1 $281 $330 #
straight-curve $-1 -79.454329050569171 0 20.444117715846389 0 -1 0 I I #
point $-1 -79.454329050569171 -24.449550954820864 20.444117715846389 #
straight-curve $-1 79.454329050569171 0 20.444117715846389 0 1 0 I I #
edge $-1 $316 -79.454329050569171 $293 79.454329050569171 $289 $331 forward 7 unknown #
straight-curve $-1 -79.454329050569171 -47.080696990226627 0 0 0 -1 I I #
point $-1 79.454329050569171 -47.080696990226627 20.444117715846389 #
straight-curve $-1 35.434666777370438 47.080696990226627 99.859206068582495 0 0 -1 I I #
point $-1 35.434666777370438 47.080696990226627 20.444117715846389 #
straight-curve $-1 6.8054875241259438 47.080696990226635 15.539303323704949 -1 0 0 I I #
point $-1 35.434666777370438 47.080696990226627 15.539303323704964 #
point $-1 0.51676001078075728 41.209280782100706 14.608405354048379 #
point $-1 13.610975048251888 41.209280782100706 14.608405354048379 #
point $-1 26.705190085723018 41.209280782100706 14.608405354048379 #
point $-1 -79.454329050569171 -47.080696990226627 20.444117715846389 #
straight-curve $-1 0 -47.080696990226627 20.444117715846389 1 0 0 I I #
End-of-ACIS-data 