500 0 5 0           
7 Unknown 11 ACIS 5.0 NT 24 Fri Mar 26 19:15:40 1999 
-1 9.9999999999999995e-007 1e-010 
body $-1 $5 $-1 $6 #
body $-1 $7 $-1 $8 #
body $-1 $9 $-1 $10 #
body $-1 $11 $-1 $12 #
body $-1 $13 $-1 $14 #
lump $-1 $-1 $15 $0 #
transform $-1 1 0 0 0 1 0 0 0 1 55.384990997039708 30.5563155078672 12.25367281217312 1 rotate no_reflect no_shear #
lump $-1 $-1 $16 $1 #
transform $-1 1 0 0 0 1 0 0 0 1 55.384990997039708 30.5563155078672 12.25367281217312 1 rotate no_reflect no_shear #
lump $-1 $-1 $17 $2 #
transform $-1 1 0 0 0 1 0 0 0 1 55.384990997039708 30.5563155078672 12.25367281217312 1 rotate no_reflect no_shear #
lump $-1 $-1 $18 $3 #
transform $-1 1 0 0 0 1 0 0 0 1 55.384990997039708 30.5563155078672 12.25367281217312 1 rotate no_reflect no_shear #
lump $-1 $-1 $19 $4 #
transform $-1 1 0 0 0 1 0 0 0 1 55.384990997039708 30.5563155078672 12.25367281217312 1 rotate no_reflect no_shear #
shell $-1 $-1 $-1 $20 $-1 $5 #
shell $-1 $-1 $-1 $21 $-1 $7 #
shell $-1 $-1 $-1 $22 $-1 $9 #
shell $-1 $-1 $-1 $23 $-1 $11 #
shell $-1 $-1 $-1 $24 $-1 $13 #
face $-1 $25 $26 $15 $-1 $27 forward single #
face $-1 $28 $29 $16 $-1 $30 forward single #
face $-1 $31 $32 $17 $-1 $33 forward single #
face $-1 $34 $35 $18 $-1 $36 reversed single #
face $-1 $37 $38 $19 $-1 $39 forward single #
face $-1 $40 $41 $15 $-1 $42 reversed single #
loop $-1 $-1 $43 $20 #
plane-surface $-1 0 0 12.25367281217312 0 0 1 1 0 0 forward_v I I I I #
face $-1 $44 $45 $16 $-1 $46 reversed single #
loop $-1 $-1 $47 $21 #
plane-surface $-1 -55.384990997039708 0 0 1 0 0 0 0 -1 forward_v I I I I #
face $-1 $48 $49 $17 $-1 $50 reversed single #
loop $-1 $-1 $51 $22 #
plane-surface $-1 55.384990997039708 0 0 -1 0 0 0 0 1 forward_v I I I I #
face $-1 $52 $53 $18 $-1 $54 reversed single #
loop $-1 $-1 $55 $23 #
plane-surface $-1 7.9627652988535651 46.224121423224659 130.24731868658588 1 0 0 0 -0.5877852598018023 -0.80901698891910034 forward_v I I I I #
face $-1 $56 $57 $19 $-1 $58 forward single #
loop $-1 $59 $60 $24 #
cone-surface $-1 15.131596435022743 23.524828882528723 5.9486606873436942 0 -0.5877852598018023 -0.80901698891910034 2 0 0 1 I I 0 1 2 forward I I I I #
face $-1 $61 $62 $15 $-1 $63 reversed single #
loop $-1 $-1 $64 $25 #
plane-surface $-1 0 0 -12.25367281217312 0 0 1 1 0 0 forward_v I I I I #
coedge $-1 $65 $66 $67 $68 forward $26 $-1 #
face $-1 $69 $70 $16 $-1 $71 forward single #
loop $-1 $-1 $72 $28 #
plane-surface $-1 0 30.5563155078672 0 0 -1 0 0 0 -1 forward_v I I I I #
coedge $-1 $73 $74 $75 $76 forward $29 $-1 #
face $-1 $77 $78 $17 $-1 $79 forward single #
loop $-1 $-1 $80 $31 #
plane-surface $-1 0 30.5563155078672 0 0 -1 0 0 0 -1 forward_v I I I I #
coedge $-1 $81 $82 $83 $84 forward $32 $-1 #
face $-1 $85 $86 $18 $-1 $87 reversed single #
loop $-1 $-1 $88 $34 #
plane-surface $-1 15.131596435022743 -18.884841221406276 40.632521391112789 0 0.5877852598018023 0.80901698891910034 1 0 0 forward_v I I I I #
coedge $-1 $89 $90 $91 $92 reversed $35 $-1 #
face $-1 $-1 $93 $19 $-1 $94 forward single #
loop $-1 $95 $96 $37 #
cone-surface $-1 15.131596435022743 21.096068689320159 2.6057591335028913 0 -0.5877852598018023 -0.80901698891910034 1 0 0 1 I I -0.70710678118654746 0.70710678118654746 1 forward I I I I #
loop $-1 $-1 $97 $24 #
coedge $-1 $60 $60 $98 $99 reversed $38 $-1 #
face $-1 $100 $101 $15 $-1 $102 reversed single #
loop $-1 $-1 $103 $40 #
plane-surface $-1 0 -30.5563155078672 0 0 1 0 0 0 1 forward_v I I I I #
coedge $-1 $104 $105 $106 $107 forward $41 $-1 #
coedge $-1 $108 $43 $109 $110 forward $26 $-1 #
coedge $-1 $43 $108 $111 $112 forward $26 $-1 #
coedge $-1 $113 $114 $43 $68 reversed $115 $-1 #
edge $-1 $116 -30.5563155078672 $117 30.5563155078672 $67 $118 forward 7 unknown #
face $-1 $119 $120 $16 $-1 $121 reversed single #
loop $-1 $-1 $75 $44 #
plane-surface $-1 -62.516496190528706 0 -6.1120648348081144 0 0 1 1 0 0 forward_v I I I I #
coedge $-1 $122 $123 $74 $124 forward $45 $-1 #
coedge $-1 $125 $47 $126 $127 reversed $29 $-1 #
coedge $-1 $47 $125 $72 $124 reversed $29 $-1 #
coedge $-1 $128 $129 $47 $76 reversed $70 $-1 #
edge $-1 $130 -30.5563155078672 $131 30.5563155078672 $75 $132 forward 7 unknown #
face $-1 $133 $134 $17 $-1 $135 reversed single #
loop $-1 $-1 $136 $48 #
plane-surface $-1 62.516496190528713 0 -6.1120648348081144 0 0 1 1 0 0 forward_v I I I I #
coedge $-1 $137 $138 $81 $139 forward $49 $-1 #
coedge $-1 $140 $51 $80 $139 reversed $32 $-1 #
coedge $-1 $51 $140 $141 $142 reversed $32 $-1 #
coedge $-1 $143 $144 $51 $84 reversed $78 $-1 #
edge $-1 $145 -30.5563155078672 $146 30.5563155078672 $83 $147 forward 7 unknown #
face $-1 $148 $149 $18 $-1 $150 reversed single #
loop $-1 $-1 $151 $52 #
plane-surface $-1 22.300427571191921 46.224121423224659 130.24731868658588 -1 0 0 0 0.5877852598018023 0.80901698891910034 forward_v I I I I #
coedge $-1 $152 $153 $154 $155 reversed $53 $-1 #
coedge $-1 $90 $55 $156 $157 reversed $35 $-1 #
coedge $-1 $55 $89 $152 $158 reversed $35 $-1 #
coedge $-1 $154 $159 $55 $92 forward $160 $-1 #
edge $-1 $161 -7.4442547962548709 $162 2.9367685876086043 $91 $163 forward 7 unknown #
loop $-1 $-1 $98 $56 #
plane-surface $-1 15.131596435022743 -18.884841221406276 40.632521391112789 0 0.5877852598018023 0.80901698891910034 1 0 0 forward_v I I I I #
loop $-1 $-1 $164 $37 #
coedge $-1 $96 $96 $97 $165 reversed $57 $-1 #
coedge $-1 $97 $97 $96 $165 forward $59 $-1 #
coedge $-1 $98 $98 $60 $99 forward $93 $-1 #
edge $-1 $166 5.2782961409183908e-016 $166 6.2831853071796013 $98 $167 forward 7 unknown #
face $-1 $168 $169 $15 $-1 $170 reversed single #
loop $-1 $-1 $171 $61 #
plane-surface $-1 -55.384990997039708 0 0 1 0 0 0 0 -1 forward_v I I I I #
coedge $-1 $172 $111 $173 $174 forward $62 $-1 #
coedge $-1 $175 $64 $172 $176 forward $41 $-1 #
coedge $-1 $64 $175 $177 $178 forward $41 $-1 #
coedge $-1 $114 $113 $64 $107 reversed $115 $-1 #
edge $-1 $179 -30.5563155078672 $180 30.5563155078672 $106 $181 forward 7 unknown #
coedge $-1 $66 $65 $182 $183 forward $26 $-1 #
coedge $-1 $184 $185 $65 $110 reversed $169 $-1 #
edge $-1 $117 -55.384990997039708 $186 55.384990997039708 $109 $187 forward 7 unknown #
coedge $-1 $103 $188 $66 $112 reversed $62 $-1 #
edge $-1 $189 -55.384990997039708 $116 55.384990997039708 $111 $190 forward 7 unknown #
coedge $-1 $106 $67 $188 $191 forward $115 $-1 #
coedge $-1 $67 $106 $184 $192 reversed $115 $-1 #
loop $-1 $-1 $113 $168 #
vertex $-1 $68 $193 #
vertex $-1 $68 $194 #
straight-curve $-1 55.384990997039708 0 12.25367281217312 0 1 0 I I #
face $-1 $195 $196 $16 $-1 $197 reversed single #
loop $-1 $-1 $198 $69 #
plane-surface $-1 -69.648001384017704 0 -9.1828688234906171 1 0 0 0 0 -1 forward_v I I I I #
coedge $-1 $199 $72 $200 $201 reversed $45 $-1 #
coedge $-1 $72 $199 $128 $202 reversed $45 $-1 #
edge $-1 $130 6.1120648348081144 $203 12.25367281217312 $72 $204 forward 7 unknown #
coedge $-1 $74 $73 $205 $206 reversed $29 $-1 #
coedge $-1 $207 $208 $73 $127 forward $209 $-1 #
edge $-1 $210 -12.25367281217312 $131 -6.1120648348081144 $126 $211 forward 7 unknown #
coedge $-1 $212 $75 $123 $202 forward $70 $-1 #
coedge $-1 $75 $212 $207 $213 forward $70 $-1 #
vertex $-1 $124 $214 #
vertex $-1 $213 $215 #
straight-curve $-1 -55.384990997039708 0 -6.1120648348081144 0 -1 0 I I #
face $-1 $216 $217 $17 $-1 $218 reversed single #
loop $-1 $-1 $219 $77 #
plane-surface $-1 69.648001384017704 0 -9.1828688234906171 -1 0 0 0 0 1 forward_v I I I I #
coedge $-1 $144 $143 $220 $221 forward $78 $-1 #
coedge $-1 $222 $80 $144 $223 reversed $49 $-1 #
coedge $-1 $80 $222 $224 $225 reversed $49 $-1 #
edge $-1 $226 -12.25367281217312 $146 -6.1120648348081144 $80 $227 forward 7 unknown #
coedge $-1 $82 $81 $228 $229 reversed $32 $-1 #
coedge $-1 $230 $231 $82 $142 forward $232 $-1 #
edge $-1 $145 6.1120648348081144 $233 12.25367281217312 $141 $234 forward 7 unknown #
coedge $-1 $136 $83 $231 $235 forward $78 $-1 #
coedge $-1 $83 $136 $137 $223 forward $78 $-1 #
vertex $-1 $142 $236 #
vertex $-1 $223 $237 #
straight-curve $-1 55.384990997039708 0 -6.1120648348081144 0 1 0 I I #
face $-1 $-1 $160 $18 $-1 $238 forward single #
loop $-1 $-1 $239 $85 #
plane-surface $-1 0 30.5563155078672 0 0 -1 0 0 0 -1 forward_v I I I I #
coedge $-1 $240 $241 $242 $243 reversed $86 $-1 #
coedge $-1 $244 $88 $90 $158 forward $53 $-1 #
coedge $-1 $88 $244 $240 $245 forward $53 $-1 #
coedge $-1 $242 $91 $88 $155 forward $160 $-1 #
edge $-1 $162 0.3969670813421935 $246 14.73462935368055 $154 $247 forward 7 unknown #
coedge $-1 $248 $249 $89 $157 forward $149 $-1 #
edge $-1 $250 -60.412241650935286 $161 -52.869986531119821 $156 $251 forward 7 unknown #
edge $-1 $162 48.280980350730204 $250 61.112631015734408 $90 $252 forward 7 unknown #
coedge $-1 $91 $242 $248 $253 forward $160 $-1 #
loop $-1 $-1 $242 $148 #
vertex $-1 $157 $254 #
vertex $-1 $92 $255 #
straight-curve $-1 7.9627652988535651 23.11206071161233 12.253672812173122 0 -1 0 I I #
coedge $-1 $164 $164 $-1 $256 reversed $95 $-1 #
edge $-1 $257 0 $257 6.2831853071796004 $96 $258 forward 7 unknown #
vertex $-1 $99 $259 #
ellipse-curve $-1 15.131596435022743 25.365803815935472 8.4825452522653784 0 0.5877852598018023 0.80901698891910034 2 0 0 1 I I #
face $-1 $-1 $115 $15 $-1 $260 reversed single #
loop $-1 $-1 $184 $100 #
plane-surface $-1 0 30.5563155078672 0 0 -1 0 0 0 -1 forward_v I I I I #
coedge $-1 $261 $182 $185 $262 forward $101 $-1 #
coedge $-1 $188 $103 $104 $176 reversed $62 $-1 #
coedge $-1 $182 $261 $103 $174 reversed $101 $-1 #
edge $-1 $189 -12.25367281217312 $263 12.25367281217312 $173 $264 forward 7 unknown #
coedge $-1 $105 $104 $261 $265 forward $41 $-1 #
edge $-1 $180 -55.384990997039708 $263 55.384990997039708 $172 $266 forward 7 unknown #
coedge $-1 $185 $184 $105 $178 reversed $169 $-1 #
edge $-1 $267 -55.384990997039708 $179 55.384990997039708 $177 $268 forward 7 unknown #
vertex $-1 $107 $269 #
vertex $-1 $191 $270 #
straight-curve $-1 55.384990997039708 0 -12.25367281217312 0 -1 0 I I #
coedge $-1 $171 $173 $108 $183 reversed $101 $-1 #
edge $-1 $186 -30.5563155078672 $189 30.5563155078672 $182 $271 forward 7 unknown #
coedge $-1 $177 $109 $114 $192 forward $169 $-1 #
coedge $-1 $109 $177 $171 $262 reversed $169 $-1 #
vertex $-1 $110 $272 #
straight-curve $-1 0 30.5563155078672 12.25367281217312 -1 0 0 I I #
coedge $-1 $111 $172 $113 $191 reversed $62 $-1 #
vertex $-1 $183 $273 #
straight-curve $-1 0 -30.5563155078672 12.25367281217312 1 0 0 I I #
edge $-1 $116 -12.25367281217312 $180 12.25367281217312 $113 $274 forward 7 unknown #
edge $-1 $117 -12.25367281217312 $179 12.25367281217312 $114 $275 forward 7 unknown #
point $-1 55.384990997039708 -30.5563155078672 12.25367281217312 #
point $-1 55.384990997039708 30.5563155078672 12.25367281217312 #
face $-1 $-1 $209 $16 $-1 $276 reversed single #
loop $-1 $-1 $205 $119 #
plane-surface $-1 0 0 -12.25367281217312 0 0 1 1 0 0 forward_v I I I I #
coedge $-1 $277 $278 $199 $279 forward $120 $-1 #
coedge $-1 $123 $122 $198 $279 reversed $45 $-1 #
coedge $-1 $205 $280 $122 $201 forward $196 $-1 #
edge $-1 $281 -69.648001384017704 $203 -55.384990997039708 $122 $282 forward 7 unknown #
edge $-1 $130 -7.1315051934889979 $283 7.1315051934889979 $123 $284 forward 7 unknown #
vertex $-1 $124 $285 #
straight-curve $-1 -55.384990997039708 30.5563155078672 0 0 0 -1 I I #
coedge $-1 $286 $200 $125 $206 forward $196 $-1 #
edge $-1 $203 -30.5563155078672 $210 30.5563155078672 $205 $287 forward 7 unknown #
coedge $-1 $288 $126 $129 $213 reversed $209 $-1 #
coedge $-1 $126 $288 $286 $289 reversed $209 $-1 #
loop $-1 $-1 $126 $195 #
vertex $-1 $289 $290 #
straight-curve $-1 -55.384990997039708 -30.5563155078672 0 0 0 1 I I #
coedge $-1 $129 $128 $278 $291 forward $70 $-1 #
edge $-1 $292 -7.1315051934889979 $131 7.1315051934889979 $207 $293 forward 7 unknown #
point $-1 -55.384990997039708 30.5563155078672 -6.1120648348081144 #
point $-1 -55.384990997039708 -30.5563155078672 -6.1120648348081144 #
face $-1 $-1 $232 $17 $-1 $294 reversed single #
loop $-1 $-1 $228 $133 #
plane-surface $-1 0 0 -12.25367281217312 0 0 1 1 0 0 forward_v I I I I #
coedge $-1 $295 $220 $296 $297 forward $134 $-1 #
coedge $-1 $219 $298 $136 $221 reversed $134 $-1 #
edge $-1 $299 -30.5563155078672 $300 30.5563155078672 $220 $301 forward 7 unknown #
coedge $-1 $138 $137 $298 $302 forward $49 $-1 #
edge $-1 $300 -7.1315051934889908 $146 7.1315051934889979 $137 $303 forward 7 unknown #
coedge $-1 $304 $228 $138 $225 forward $217 $-1 #
edge $-1 $226 -7.131505193489005 $305 7.1315051934889908 $138 $306 forward 7 unknown #
vertex $-1 $225 $307 #
straight-curve $-1 55.384990997039708 30.5563155078672 0 0 0 1 I I #
coedge $-1 $224 $308 $140 $229 forward $217 $-1 #
edge $-1 $233 -30.5563155078672 $226 30.5563155078672 $228 $309 forward 7 unknown #
coedge $-1 $296 $141 $308 $310 reversed $232 $-1 #
coedge $-1 $141 $296 $143 $235 reversed $232 $-1 #
loop $-1 $-1 $141 $216 #
vertex $-1 $142 $311 #
straight-curve $-1 55.384990997039708 -30.5563155078672 0 0 0 -1 I I #
edge $-1 $145 -7.1315051934889979 $299 7.1315051934889908 $231 $312 forward 7 unknown #
point $-1 55.384990997039715 -30.5563155078672 -6.1120648348081144 #
point $-1 55.384990997039715 30.5563155078672 -6.1120648348081144 #
plane-surface $-1 0 0 12.25367281217312 0 0 1 1 0 0 forward_v I I I I #
coedge $-1 $249 $248 $241 $313 forward $149 $-1 #
coedge $-1 $241 $151 $153 $245 reversed $86 $-1 #
coedge $-1 $151 $240 $239 $313 reversed $86 $-1 #
coedge $-1 $159 $154 $151 $243 forward $160 $-1 #
edge $-1 $246 -2.9367685876086043 $314 7.4442547962548709 $242 $315 forward 7 unknown #
coedge $-1 $153 $152 $249 $316 reversed $53 $-1 #
edge $-1 $317 -61.112631015734408 $246 -48.280980350730204 $240 $318 forward 7 unknown #
vertex $-1 $155 $319 #
straight-curve $-1 7.5657982175113716 20.175292124003725 12.253672812173122 1 0 0 I I #
coedge $-1 $239 $156 $159 $253 reversed $149 $-1 #
coedge $-1 $156 $239 $244 $316 forward $149 $-1 #
vertex $-1 $157 $320 #
straight-curve $-1 7.9627652988535651 30.5563155078672 65.123659343292942 0 0 1 I I #
straight-curve $-1 7.9627652988535651 -18.884841221406276 40.632521391112789 0 0.80901698891910034 -0.5877852598018023 I I #
edge $-1 $314 -22.300427571191921 $161 -7.9627652988535651 $248 $321 forward 7 unknown #
point $-1 7.9627652988535651 30.5563155078672 12.25367281217312 #
point $-1 7.9627652988535651 20.175292124003725 12.253672812173122 #
edge $-1 $322 1 $322 0 $164 $-1 forward 7 unknown #
vertex $-1 $165 $323 #
ellipse-curve $-1 15.131596435022743 21.683853949121961 3.4147761224219915 0 0.5877852598018023 0.80901698891910034 2 0 0 1 I I #
point $-1 17.131596435022743 25.365803815935486 8.4825452522653961 #
plane-surface $-1 55.384990997039708 0 0 -1 0 0 0 0 1 forward_v I I I I #
coedge $-1 $173 $171 $175 $265 reversed $101 $-1 #
edge $-1 $186 -12.25367281217312 $267 12.25367281217312 $185 $324 forward 7 unknown #
vertex $-1 $265 $325 #
straight-curve $-1 -55.384990997039708 -30.5563155078672 0 0 0 -1 I I #
edge $-1 $263 -30.5563155078672 $267 30.5563155078672 $261 $326 forward 7 unknown #
straight-curve $-1 0 -30.5563155078672 -12.25367281217312 -1 0 0 I I #
vertex $-1 $178 $327 #
straight-curve $-1 0 30.5563155078672 -12.25367281217312 1 0 0 I I #
point $-1 55.384990997039708 30.5563155078672 -12.25367281217312 #
point $-1 55.384990997039708 -30.5563155078672 -12.25367281217312 #
straight-curve $-1 -55.384990997039708 0 12.25367281217312 0 -1 0 I I #
point $-1 -55.384990997039708 30.5563155078672 12.25367281217312 #
point $-1 -55.384990997039708 -30.5563155078672 12.25367281217312 #
straight-curve $-1 55.384990997039708 -30.5563155078672 0 0 0 -1 I I #
straight-curve $-1 55.384990997039708 30.5563155078672 0 0 0 -1 I I #
plane-surface $-1 0 -30.5563155078672 0 0 1 0 0 0 1 forward_v I I I I #
coedge $-1 $328 $198 $280 $329 reversed $120 $-1 #
coedge $-1 $198 $328 $212 $291 reversed $120 $-1 #
edge $-1 $283 -3.0708039886825027 $281 3.0708039886825027 $199 $330 forward 7 unknown #
coedge $-1 $200 $286 $277 $329 forward $196 $-1 #
vertex $-1 $201 $331 #
straight-curve $-1 0 30.5563155078672 -12.25367281217312 1 0 0 I I #
vertex $-1 $202 $332 #
straight-curve $-1 -62.516496190528706 30.5563155078672 -6.1120648348081144 -1 0 0 I I #
point $-1 -55.384990997039708 30.5563155078672 -12.25367281217312 #
coedge $-1 $280 $205 $208 $289 forward $196 $-1 #
straight-curve $-1 -55.384990997039708 0 -12.25367281217312 0 -1 0 I I #
coedge $-1 $208 $207 $328 $333 forward $209 $-1 #
edge $-1 $210 -7.1315051934889979 $334 7.1315051934889979 $208 $335 forward 7 unknown #
point $-1 -55.384990997039708 -30.5563155078672 -12.25367281217312 #
edge $-1 $283 -30.5563155078672 $292 30.5563155078672 $278 $336 forward 7 unknown #
vertex $-1 $291 $337 #
straight-curve $-1 -62.516496190528706 -30.5563155078672 -6.1120648348081144 1 0 0 I I #
plane-surface $-1 0 -30.5563155078672 0 0 1 0 0 0 1 forward_v I I I I #
coedge $-1 $298 $219 $304 $338 reversed $134 $-1 #
coedge $-1 $231 $230 $219 $297 reversed $232 $-1 #
edge $-1 $299 -3.0708039886825027 $339 3.0708039886825027 $219 $340 forward 7 unknown #
coedge $-1 $220 $295 $222 $302 reversed $134 $-1 #
vertex $-1 $221 $341 #
vertex $-1 $221 $342 #
straight-curve $-1 69.648001384017704 0 -6.1120648348081144 0 1 0 I I #
edge $-1 $300 -3.0708039886825027 $305 3.0708039886825027 $298 $343 forward 7 unknown #
straight-curve $-1 62.516496190528713 30.5563155078672 -6.1120648348081144 -1 0 0 I I #
coedge $-1 $308 $224 $295 $338 forward $217 $-1 #
vertex $-1 $338 $344 #
straight-curve $-1 62.516496190528713 30.5563155078672 -12.25367281217312 1 0 0 I I #
point $-1 55.384990997039708 30.5563155078672 -12.25367281217312 #
coedge $-1 $228 $304 $230 $310 forward $217 $-1 #
straight-curve $-1 55.384990997039708 0 -12.25367281217312 0 1 0 I I #
edge $-1 $339 -7.1315051934889908 $233 7.131505193489005 $230 $345 forward 7 unknown #
point $-1 55.384990997039708 -30.5563155078672 -12.25367281217312 #
straight-curve $-1 62.516496190528713 -30.5563155078672 -6.1120648348081144 1 0 0 I I #
edge $-1 $314 52.869986531119821 $317 60.412241650935286 $239 $346 forward 7 unknown #
vertex $-1 $253 $347 #
straight-curve $-1 22.300427571191921 23.11206071161233 12.253672812173122 0 1 0 I I #
edge $-1 $317 -14.73462935368055 $250 -0.3969670813421935 $249 $348 forward 7 unknown #
vertex $-1 $316 $349 #
straight-curve $-1 22.300427571191921 -18.884841221406276 40.632521391112789 0 -0.80901698891910034 0.5877852598018023 I I #
point $-1 22.300427571191921 20.175292124003725 12.253672812173122 #
point $-1 7.9627652988535651 30.556315507867197 4.7114176923576565 #
straight-curve $-1 0 30.5563155078672 12.25367281217312 -1 0 0 I I #
vertex $-1 $256 $350 #
point $-1 17.131596435022743 21.683853949121961 3.4147761224219915 #
straight-curve $-1 -55.384990997039708 30.5563155078672 0 0 0 -1 I I #
point $-1 -55.384990997039708 -30.5563155078672 -12.25367281217312 #
straight-curve $-1 -55.384990997039708 0 -12.25367281217312 0 1 0 I I #
point $-1 -55.384990997039708 30.5563155078672 -12.25367281217312 #
coedge $-1 $278 $277 $288 $333 reversed $120 $-1 #
edge $-1 $334 -30.5563155078672 $281 30.5563155078672 $277 $351 forward 7 unknown #
straight-curve $-1 -69.648001384017704 30.5563155078672 -9.1828688234906171 0 0 -1 I I #
point $-1 -69.648001384017704 30.5563155078672 -12.25367281217312 #
point $-1 -69.648001384017704 30.5563155078672 -6.1120648348081144 #
edge $-1 $292 -3.0708039886825027 $334 3.0708039886825027 $328 $352 forward 7 unknown #
vertex $-1 $329 $353 #
straight-curve $-1 -62.516496190528706 -30.5563155078672 -12.25367281217312 -1 0 0 I I #
straight-curve $-1 -69.648001384017704 0 -6.1120648348081144 0 -1 0 I I #
point $-1 -69.648001384017704 -30.5563155078672 -6.1120648348081144 #
edge $-1 $305 -30.5563155078672 $339 30.5563155078672 $295 $354 forward 7 unknown #
vertex $-1 $297 $355 #
straight-curve $-1 69.648001384017704 -30.5563155078672 -9.1828688234906171 0 0 -1 I I #
point $-1 69.648001384017704 -30.5563155078672 -6.1120648348081144 #
point $-1 69.648001384017704 30.5563155078672 -6.1120648348081144 #
straight-curve $-1 69.648001384017704 30.5563155078672 -9.1828688234906171 0 0 -1 I I #
point $-1 69.648001384017704 30.5563155078672 -12.25367281217312 #
straight-curve $-1 62.516496190528713 -30.5563155078672 -12.25367281217312 -1 0 0 I I #
straight-curve $-1 22.300427571191921 30.5563155078672 65.123659343292942 0 0 -1 I I #
point $-1 22.300427571191921 30.5563155078672 12.25367281217312 #
straight-curve $-1 7.5657982175113716 30.5563155078672 4.7114176923576601 -1 0 0 I I #
point $-1 22.300427571191921 30.556315507867197 4.7114176923576565 #
point $-1 15.131596435022743 20.508283429518357 1.796742144583791 #
straight-curve $-1 -69.648001384017704 0 -12.25367281217312 0 1 0 I I #
straight-curve $-1 -69.648001384017704 -30.5563155078672 -9.1828688234906171 0 0 -1 I I #
point $-1 -69.648001384017704 -30.5563155078672 -12.25367281217312 #
straight-curve $-1 69.648001384017704 0 -12.25367281217312 0 -1 0 I I #
point $-1 69.648001384017704 -30.5563155078672 -12.25367281217312 #
End-of-ACIS-data 