500 0 8 0           
7 Unknown 11 ACIS 5.0 NT 24 Thu Mar 25 22:19:05 1999 
-1 9.9999999999999995e-007 1e-010 
body $-1 $8 $-1 $9 #
body $-1 $10 $-1 $11 #
body $-1 $12 $-1 $13 #
body $-1 $14 $-1 $15 #
body $-1 $16 $-1 $17 #
body $-1 $18 $-1 $19 #
body $-1 $20 $-1 $21 #
body $-1 $22 $-1 $23 #
lump $-1 $-1 $24 $0 #
transform $-1 1 0 0 0 1 0 0 0 1 55.594958342234563 29.217426698709559 12.62251327088023 1 rotate no_reflect no_shear #
lump $-1 $-1 $25 $1 #
transform $-1 1 0 0 0 1 0 0 0 1 55.594958342234563 29.217426698709559 12.62251327088023 1 rotate no_reflect no_shear #
lump $-1 $-1 $26 $2 #
transform $-1 1 0 0 0 1 0 0 0 1 55.594958342234563 29.217426698709559 12.62251327088023 1 rotate no_reflect no_shear #
lump $-1 $-1 $27 $3 #
transform $-1 1 0 0 0 1 0 0 0 1 55.594958342234563 29.217426698709559 12.62251327088023 1 rotate no_reflect no_shear #
lump $-1 $-1 $28 $4 #
transform $-1 1 0 0 0 1 0 0 0 1 55.594958342234563 29.217426698709559 12.62251327088023 1 rotate no_reflect no_shear #
lump $-1 $-1 $29 $5 #
transform $-1 1 0 0 0 1 0 0 0 1 55.594958342234563 29.217426698709559 12.62251327088023 1 rotate no_reflect no_shear #
lump $-1 $-1 $30 $6 #
transform $-1 1 0 0 0 1 0 0 0 1 55.594958342234563 29.217426698709559 12.62251327088023 1 rotate no_reflect no_shear #
lump $-1 $-1 $31 $7 #
transform $-1 1 0 0 0 1 0 0 0 1 55.594958342234563 29.217426698709559 12.62251327088023 1 rotate no_reflect no_shear #
shell $-1 $-1 $-1 $32 $-1 $8 #
shell $-1 $-1 $-1 $33 $-1 $10 #
shell $-1 $-1 $-1 $34 $-1 $12 #
shell $-1 $-1 $-1 $35 $-1 $14 #
shell $-1 $-1 $-1 $36 $-1 $16 #
shell $-1 $-1 $-1 $37 $-1 $18 #
shell $-1 $-1 $-1 $38 $-1 $20 #
shell $-1 $-1 $-1 $39 $-1 $22 #
face $-1 $40 $41 $24 $-1 $42 forward single #
face $-1 $43 $44 $25 $-1 $45 reversed single #
face $-1 $46 $47 $26 $-1 $48 reversed single #
face $-1 $49 $50 $27 $-1 $51 forward single #
face $-1 $52 $53 $28 $-1 $54 forward single #
face $-1 $55 $56 $29 $-1 $57 reversed single #
face $-1 $58 $59 $30 $-1 $60 forward single #
face $-1 $61 $62 $31 $-1 $63 forward single #
face $-1 $64 $65 $24 $-1 $66 reversed single #
loop $-1 $-1 $67 $32 #
plane-surface $-1 0 0 12.62251327088023 0 0 1 1 0 0 forward_v I I I I #
face $-1 $68 $69 $25 $-1 $70 reversed single #
loop $-1 $-1 $71 $33 #
plane-surface $-1 -48.02251358770922 0 7.8888492926328944 0 0 1 1 0 0 forward_v I I I I #
face $-1 $72 $73 $26 $-1 $74 reversed single #
loop $-1 $-1 $75 $34 #
plane-surface $-1 -31.144103852322733 -18.057362444799537 37.97008765990779 0 0.5877852598018023 0.80901698891910034 1 0 0 forward_v I I I I #
face $-1 $76 $77 $27 $-1 $78 forward single #
loop $-1 $79 $80 $35 #
cone-surface $-1 -35.132374558406084 22.246228747248558 7.0522128490581846 0 -0.5877852598018023 -0.80901698891910034 1.5 0 0 1 I I 0 1 1.5 forward I I I I #
face $-1 $81 $82 $28 $-1 $83 forward single #
loop $-1 $84 $85 $36 #
cone-surface $-1 -27.155833146239384 22.246228747248558 7.0522128490581846 0 -0.5877852598018023 -0.80901698891910034 1.5 0 0 1 I I 0 1 1.5 forward I I I I #
face $-1 $86 $87 $29 $-1 $88 reversed single #
loop $-1 $-1 $89 $37 #
plane-surface $-1 -21.838138871461588 -94.573220764430985 93.577473768460408 -1 0 0 0 -0.5877852598018023 0.80901698891910034 forward_v I I I I #
face $-1 $90 $91 $30 $-1 $92 forward single #
loop $-1 $93 $94 $38 #
cone-surface $-1 -35.132374558406084 -22.246228747248551 7.052212849058181 0 0.5877852598018023 -0.80901698891910034 1.5 0 0 1 I I 0 1 1.5 forward I I I I #
face $-1 $95 $96 $31 $-1 $97 forward single #
loop $-1 $98 $99 $39 #
cone-surface $-1 -27.155833146239384 -22.246228747248551 7.052212849058181 0 0.5877852598018023 -0.80901698891910034 1.5 0 0 1 I I 0 1 1.5 forward I I I I #
face $-1 $100 $101 $24 $-1 $102 reversed single #
loop $-1 $-1 $103 $40 #
plane-surface $-1 0 0 -12.62251327088023 0 0 1 1 0 0 forward_v I I I I #
coedge $-1 $104 $105 $106 $107 forward $41 $-1 #
face $-1 $108 $109 $25 $-1 $110 reversed single #
loop $-1 $-1 $111 $43 #
plane-surface $-1 -40.450068833183877 0 10.255681281756562 -1 0 0 0 0 1 forward_v I I I I #
coedge $-1 $112 $113 $111 $114 forward $44 $-1 #
face $-1 $115 $116 $26 $-1 $117 forward single #
loop $-1 $-1 $118 $46 #
plane-surface $-1 -21.838138871461588 47.298431620921903 127.92461925414264 -1 0 0 0 0.5877852598018023 0.80901698891910034 forward_v I I I I #
coedge $-1 $119 $120 $121 $122 reversed $47 $-1 #
face $-1 $-1 $123 $27 $-1 $124 forward single #
loop $-1 $125 $126 $49 #
cone-surface $-1 -35.132374558406084 21.027615204759293 5.3749352338741367 0 -0.5877852598018023 -0.80901698891910034 0.75 0 0 1 I I -0.70710678118654757 0.70710678118654757 0.75 forward I I I I #
loop $-1 $-1 $127 $35 #
coedge $-1 $80 $80 $128 $129 reversed $50 $-1 #
face $-1 $-1 $130 $28 $-1 $131 forward single #
loop $-1 $132 $133 $52 #
cone-surface $-1 -27.155833146239384 21.027615204759293 5.3749352338741367 0 -0.5877852598018023 -0.80901698891910034 0.75 0 0 1 I I -0.70710678118654757 0.70710678118654757 0.75 forward I I I I #
loop $-1 $-1 $134 $36 #
coedge $-1 $85 $85 $135 $136 reversed $53 $-1 #
face $-1 $137 $138 $29 $-1 $139 forward single #
loop $-1 $-1 $140 $55 #
plane-surface $-1 -31.144103852322733 -29.217426698709545 3.6229421742255568 0 -0.5877852598018023 0.80901698891910034 1 0 0 forward_v I I I I #
coedge $-1 $141 $142 $143 $144 reversed $56 $-1 #
face $-1 $-1 $145 $30 $-1 $146 forward single #
loop $-1 $147 $148 $58 #
cone-surface $-1 -35.132374558406084 -21.027615204759286 5.3749352338741332 0 0.5877852598018023 -0.80901698891910034 0.75 0 0 1 I I -0.70710678118654757 0.70710678118654757 0.75 forward I I I I #
loop $-1 $-1 $149 $38 #
coedge $-1 $94 $94 $150 $151 reversed $59 $-1 #
face $-1 $-1 $152 $31 $-1 $153 forward single #
loop $-1 $154 $155 $61 #
cone-surface $-1 -27.155833146239384 -21.027615204759286 5.3749352338741332 0 0.5877852598018023 -0.80901698891910034 0.75 0 0 1 I I -0.70710678118654757 0.70710678118654757 0.75 forward I I I I #
loop $-1 $-1 $156 $39 #
coedge $-1 $99 $99 $157 $158 reversed $62 $-1 #
face $-1 $159 $160 $24 $-1 $161 reversed single #
loop $-1 $-1 $162 $64 #
plane-surface $-1 0 -29.217426698709559 0 0 1 0 0 0 1 forward_v I I I I #
coedge $-1 $163 $164 $165 $166 forward $65 $-1 #
coedge $-1 $167 $67 $168 $169 forward $41 $-1 #
coedge $-1 $67 $167 $170 $171 forward $41 $-1 #
coedge $-1 $172 $173 $67 $107 reversed $174 $-1 #
edge $-1 $175 -29.217426698709559 $176 29.217426698709559 $106 $177 forward 7 unknown #
face $-1 $178 $179 $25 $-1 $180 reversed single #
loop $-1 $-1 $181 $68 #
plane-surface $-1 0 29.217426698709559 0 0 -1 0 0 0 -1 forward_v I I I I #
coedge $-1 $182 $183 $71 $114 reversed $69 $-1 #
coedge $-1 $184 $71 $185 $186 reversed $44 $-1 #
coedge $-1 $71 $184 $187 $188 reversed $44 $-1 #
edge $-1 $189 -29.217426698709559 $190 29.217426698709559 $111 $191 forward 7 unknown #
face $-1 $192 $193 $26 $-1 $194 reversed single #
loop $-1 $-1 $121 $72 #
plane-surface $-1 0 0 12.62251327088023 0 0 1 1 0 0 forward_v I I I I #
coedge $-1 $195 $196 $197 $198 reversed $73 $-1 #
coedge $-1 $199 $75 $200 $201 reversed $47 $-1 #
coedge $-1 $75 $199 $195 $202 forward $47 $-1 #
coedge $-1 $197 $203 $75 $122 forward $116 $-1 #
edge $-1 $204 -24.878016907022513 $205 -6.2660869453002217 $121 $206 forward 7 unknown #
loop $-1 $-1 $128 $76 #
plane-surface $-1 -31.144103852322733 -18.057362444799537 37.97008765990779 0 0.5877852598018023 0.80901698891910034 1 0 0 forward_v I I I I #
loop $-1 $-1 $207 $49 #
coedge $-1 $126 $126 $127 $208 reversed $77 $-1 #
coedge $-1 $127 $127 $126 $208 forward $79 $-1 #
coedge $-1 $128 $128 $80 $129 forward $123 $-1 #
edge $-1 $209 -1.6440034286118562e-016 $209 6.2831853071796004 $128 $210 forward 7 unknown #
loop $-1 $-1 $135 $81 #
plane-surface $-1 -31.144103852322733 -18.057362444799537 37.97008765990779 0 0.5877852598018023 0.80901698891910034 1 0 0 forward_v I I I I #
loop $-1 $-1 $211 $52 #
coedge $-1 $133 $133 $134 $212 reversed $82 $-1 #
coedge $-1 $134 $134 $133 $212 forward $84 $-1 #
coedge $-1 $135 $135 $85 $136 forward $130 $-1 #
edge $-1 $213 -1.6440034286118562e-016 $213 6.2831853071796004 $135 $214 forward 7 unknown #
face $-1 $215 $216 $29 $-1 $217 forward single #
loop $-1 $-1 $218 $86 #
plane-surface $-1 -40.450068833183877 0 10.255681281756562 -1 0 0 0 0 1 forward_v I I I I #
coedge $-1 $219 $220 $221 $222 reversed $87 $-1 #
coedge $-1 $142 $89 $223 $224 reversed $56 $-1 #
coedge $-1 $89 $141 $219 $225 reversed $56 $-1 #
coedge $-1 $221 $226 $89 $144 forward $216 $-1 #
edge $-1 $227 18.069183683505933 $228 30.456030391152161 $143 $229 forward 7 unknown #
loop $-1 $-1 $150 $90 #
plane-surface $-1 -31.144103852322733 -29.217426698709545 3.6229421742255568 0 -0.5877852598018023 0.80901698891910034 1 0 0 forward_v I I I I #
loop $-1 $-1 $230 $58 #
coedge $-1 $148 $148 $149 $231 reversed $91 $-1 #
coedge $-1 $149 $149 $148 $231 forward $93 $-1 #
coedge $-1 $150 $150 $94 $151 forward $145 $-1 #
edge $-1 $232 -7.6952412240624221e-018 $232 6.2831853071796004 $150 $233 forward 7 unknown #
loop $-1 $-1 $157 $95 #
plane-surface $-1 -31.144103852322733 -29.217426698709545 3.6229421742255568 0 -0.5877852598018023 0.80901698891910034 1 0 0 forward_v I I I I #
loop $-1 $-1 $234 $61 #
coedge $-1 $155 $155 $156 $235 reversed $96 $-1 #
coedge $-1 $156 $156 $155 $235 forward $98 $-1 #
coedge $-1 $157 $157 $99 $158 forward $152 $-1 #
edge $-1 $236 -7.6952412240624221e-018 $236 6.2831853071796004 $157 $237 forward 7 unknown #
face $-1 $238 $239 $24 $-1 $240 reversed single #
loop $-1 $-1 $241 $100 #
plane-surface $-1 -55.594958342234563 0 0 1 0 0 0 0 -1 forward_v I I I I #
coedge $-1 $242 $170 $243 $244 forward $101 $-1 #
coedge $-1 $245 $103 $242 $246 forward $65 $-1 #
coedge $-1 $103 $245 $247 $248 forward $65 $-1 #
coedge $-1 $173 $172 $103 $166 reversed $174 $-1 #
edge $-1 $249 -29.217426698709559 $250 29.217426698709559 $165 $251 forward 7 unknown #
coedge $-1 $105 $104 $252 $253 forward $41 $-1 #
coedge $-1 $254 $255 $104 $169 reversed $239 $-1 #
edge $-1 $176 -55.594958342234563 $256 55.594958342234563 $168 $257 forward 7 unknown #
coedge $-1 $162 $258 $105 $171 reversed $101 $-1 #
edge $-1 $259 -55.594958342234563 $175 55.594958342234563 $170 $260 forward 7 unknown #
coedge $-1 $165 $106 $258 $261 forward $174 $-1 #
coedge $-1 $106 $165 $254 $262 reversed $174 $-1 #
loop $-1 $-1 $172 $238 #
vertex $-1 $107 $263 #
vertex $-1 $107 $264 #
straight-curve $-1 55.594958342234563 0 12.62251327088023 0 1 0 I I #
face $-1 $265 $266 $25 $-1 $267 forward single #
loop $-1 $-1 $268 $108 #
plane-surface $-1 -55.594958342234563 0 0 1 0 0 0 0 -1 forward_v I I I I #
coedge $-1 $187 $269 $182 $270 forward $109 $-1 #
coedge $-1 $271 $111 $181 $270 reversed $69 $-1 #
coedge $-1 $111 $271 $272 $273 reversed $69 $-1 #
coedge $-1 $113 $112 $268 $274 reversed $44 $-1 #
coedge $-1 $272 $275 $112 $186 forward $276 $-1 #
edge $-1 $277 -31.583701548379953 $190 -16.438812039329267 $185 $278 forward 7 unknown #
coedge $-1 $279 $181 $113 $188 forward $109 $-1 #
edge $-1 $189 16.438812039329267 $280 31.583701548379953 $187 $281 forward 7 unknown #
vertex $-1 $188 $282 #
vertex $-1 $186 $283 #
straight-curve $-1 -40.450068833183877 0 7.8888492926328944 0 -1 0 I I #
face $-1 $-1 $284 $26 $-1 $285 forward single #
loop $-1 $-1 $286 $115 #
plane-surface $-1 0 29.217426698709559 0 0 -1 0 0 0 -1 forward_v I I I I #
coedge $-1 $196 $118 $120 $202 reversed $73 $-1 #
coedge $-1 $118 $195 $286 $287 reversed $73 $-1 #
coedge $-1 $288 $121 $118 $198 forward $116 $-1 #
edge $-1 $205 -6.8186358193976204 $289 5.5682108882486077 $197 $290 forward 7 unknown #
coedge $-1 $120 $119 $291 $292 reversed $47 $-1 #
coedge $-1 $293 $294 $119 $201 forward $284 $-1 #
edge $-1 $295 -42.985437124345687 $204 -27.674452463571299 $200 $296 forward 7 unknown #
edge $-1 $297 -58.434853397419147 $205 -43.123868736644752 $195 $298 forward 7 unknown #
coedge $-1 $121 $288 $293 $299 forward $116 $-1 #
vertex $-1 $201 $300 #
vertex $-1 $122 $301 #
straight-curve $-1 -15.572051926161366 16.830579991063338 12.62251327088023 1 0 0 I I #
coedge $-1 $207 $207 $-1 $302 reversed $125 $-1 #
edge $-1 $303 0 $303 6.2831853071796004 $126 $304 forward 7 unknown #
vertex $-1 $129 $305 #
ellipse-curve $-1 -35.132374558406084 23.024003344886452 8.1227277225528827 0 0.5877852598018023 0.80901698891910034 1.5 0 0 1 I I #
coedge $-1 $211 $211 $-1 $306 reversed $132 $-1 #
edge $-1 $307 0 $307 6.2831853071796004 $133 $308 forward 7 unknown #
vertex $-1 $136 $309 #
ellipse-curve $-1 -27.155833146239384 23.024003344886452 8.1227277225528827 0 0.5877852598018023 0.80901698891910034 1.5 0 0 1 I I #
face $-1 $-1 $310 $29 $-1 $311 reversed single #
loop $-1 $-1 $221 $137 #
plane-surface $-1 0 0 12.62251327088023 0 0 1 1 0 0 forward_v I I I I #
coedge $-1 $312 $313 $220 $314 reversed $138 $-1 #
coedge $-1 $315 $140 $142 $225 forward $87 $-1 #
coedge $-1 $140 $315 $218 $314 forward $87 $-1 #
coedge $-1 $316 $143 $140 $222 forward $216 $-1 #
edge $-1 $228 6.2660869453002217 $317 24.878016907022513 $221 $318 forward 7 unknown #
coedge $-1 $319 $320 $141 $224 forward $310 $-1 #
edge $-1 $321 -43.165794710004654 $227 -34.16622361334997 $223 $322 forward 7 unknown #
edge $-1 $228 -15.31098466077437 $321 1.7500491998158137e-014 $142 $323 forward 7 unknown #
coedge $-1 $143 $316 $319 $324 forward $216 $-1 #
vertex $-1 $224 $325 #
vertex $-1 $144 $326 #
straight-curve $-1 -21.838138871461588 -47.286610382215493 12.622513270880233 0 1 0 I I #
coedge $-1 $230 $230 $-1 $327 reversed $147 $-1 #
edge $-1 $328 0 $328 6.2831853071796004 $148 $329 forward 7 unknown #
vertex $-1 $151 $330 #
ellipse-curve $-1 -35.132374558406084 -23.024003344886449 8.1227277225528844 0 -0.5877852598018023 0.80901698891910034 1.5 0 0 1 I I #
coedge $-1 $234 $234 $-1 $331 reversed $154 $-1 #
edge $-1 $332 0 $332 6.2831853071796004 $155 $333 forward 7 unknown #
vertex $-1 $158 $334 #
ellipse-curve $-1 -27.155833146239384 -23.024003344886449 8.1227277225528844 0 -0.5877852598018023 0.80901698891910034 1.5 0 0 1 I I #
face $-1 $-1 $174 $24 $-1 $335 reversed single #
loop $-1 $-1 $254 $159 #
plane-surface $-1 0 29.217426698709559 0 0 -1 0 0 0 -1 forward_v I I I I #
coedge $-1 $336 $252 $255 $337 forward $160 $-1 #
coedge $-1 $258 $162 $163 $246 reversed $101 $-1 #
coedge $-1 $252 $336 $162 $244 reversed $160 $-1 #
edge $-1 $259 -12.62251327088023 $338 12.62251327088023 $243 $339 forward 7 unknown #
coedge $-1 $164 $163 $336 $340 forward $65 $-1 #
edge $-1 $250 -55.594958342234563 $338 55.594958342234563 $242 $341 forward 7 unknown #
coedge $-1 $255 $254 $164 $248 reversed $239 $-1 #
edge $-1 $342 -55.594958342234563 $249 55.594958342234563 $247 $343 forward 7 unknown #
vertex $-1 $166 $344 #
vertex $-1 $261 $345 #
straight-curve $-1 55.594958342234563 0 -12.62251327088023 0 -1 0 I I #
coedge $-1 $241 $243 $167 $253 reversed $160 $-1 #
edge $-1 $256 -29.217426698709559 $259 29.217426698709559 $252 $346 forward 7 unknown #
coedge $-1 $247 $168 $173 $262 forward $239 $-1 #
coedge $-1 $168 $247 $241 $337 reversed $239 $-1 #
vertex $-1 $169 $347 #
straight-curve $-1 0 29.217426698709559 12.62251327088023 -1 0 0 I I #
coedge $-1 $170 $242 $172 $261 reversed $101 $-1 #
vertex $-1 $253 $348 #
straight-curve $-1 0 -29.217426698709559 12.62251327088023 1 0 0 I I #
edge $-1 $175 -12.62251327088023 $250 12.62251327088023 $172 $349 forward 7 unknown #
edge $-1 $176 -12.62251327088023 $249 12.62251327088023 $173 $350 forward 7 unknown #
point $-1 55.594958342234563 -29.217426698709559 12.62251327088023 #
point $-1 55.594958342234563 29.217426698709559 12.62251327088023 #
face $-1 $-1 $276 $25 $-1 $351 reversed single #
loop $-1 $-1 $352 $178 #
plane-surface $-1 0 0 12.62251327088023 0 0 1 1 0 0 forward_v I I I I #
coedge $-1 $353 $354 $184 $274 forward $179 $-1 #
coedge $-1 $181 $279 $355 $356 reversed $109 $-1 #
edge $-1 $357 -7.4946726300019488 $189 -2.7610086517546133 $181 $358 forward 7 unknown #
coedge $-1 $183 $182 $352 $359 reversed $69 $-1 #
coedge $-1 $360 $185 $183 $273 forward $276 $-1 #
edge $-1 $190 2.7610086517546133 $361 7.4946726300019488 $272 $362 forward 7 unknown #
edge $-1 $280 -29.217426698709559 $277 29.217426698709559 $268 $363 forward 7 unknown #
coedge $-1 $185 $360 $353 $364 forward $276 $-1 #
loop $-1 $-1 $272 $265 #
vertex $-1 $274 $365 #
straight-curve $-1 -24.01125679385461 -29.217426698709559 7.8888492926328944 1 0 0 I I #
coedge $-1 $269 $187 $354 $366 reversed $109 $-1 #
vertex $-1 $274 $367 #
straight-curve $-1 -24.01125679385461 29.217426698709559 7.8888492926328944 -1 0 0 I I #
point $-1 -40.450068833183877 29.217426698709559 7.8888492926328944 #
point $-1 -40.450068833183877 -29.217426698709559 7.8888492926328944 #
loop $-1 $-1 $200 $192 #
plane-surface $-1 -40.450068833183877 0 10.255681281756562 -1 0 0 0 0 1 forward_v I I I I #
coedge $-1 $291 $368 $196 $287 forward $193 $-1 #
edge $-1 $289 51.339796356191087 $297 60.339367452845771 $286 $369 forward 7 unknown #
coedge $-1 $203 $197 $368 $370 forward $116 $-1 #
vertex $-1 $370 $371 #
straight-curve $-1 -21.838138871461588 23.649215810460952 12.622513270880233 0 1 0 I I #
coedge $-1 $372 $286 $199 $292 forward $193 $-1 #
edge $-1 $297 6.2660869453002217 $295 24.878016907022513 $291 $373 forward 7 unknown #
coedge $-1 $294 $200 $203 $299 reversed $284 $-1 #
coedge $-1 $200 $293 $372 $374 reversed $284 $-1 #
vertex $-1 $374 $375 #
straight-curve $-1 -40.450068833183877 -5.5585222109999002 28.889148502053118 0 -0.80901698891910034 0.5877852598018023 I I #
vertex $-1 $292 $376 #
straight-curve $-1 -21.838138871461588 -18.057362444799537 37.97008765990779 0 -0.80901698891910034 0.5877852598018023 I I #
edge $-1 $377 -29.217426698709559 $204 -16.830579991063331 $203 $378 forward 7 unknown #
point $-1 -40.450068833183877 16.830579991063331 12.62251327088023 #
point $-1 -21.838138871461588 16.830579991063331 12.62251327088023 #
edge $-1 $379 1 $379 0 $207 $-1 forward 7 unknown #
vertex $-1 $208 $380 #
ellipse-curve $-1 -35.132374558406084 21.468454149610643 5.9816979755634616 0 0.5877852598018023 0.80901698891910034 1.5 0 0 1 I I #
point $-1 -33.632374558406084 23.02400334488647 8.1227277225529075 #
edge $-1 $381 1 $381 0 $211 $-1 forward 7 unknown #
vertex $-1 $212 $382 #
ellipse-curve $-1 -27.155833146239384 21.468454149610643 5.9816979755634616 0 0.5877852598018023 0.80901698891910034 1.5 0 0 1 I I #
point $-1 -25.655833146239384 23.02400334488647 8.1227277225529075 #
loop $-1 $-1 $223 $215 #
plane-surface $-1 0 -29.217426698709559 0 0 1 0 0 0 1 forward_v I I I I #
coedge $-1 $313 $218 $383 $384 reversed $138 $-1 #
coedge $-1 $218 $312 $316 $385 reversed $138 $-1 #
edge $-1 $386 -1.7500491998158137e-014 $317 15.31098466077437 $218 $387 forward 7 unknown #
coedge $-1 $220 $219 $320 $388 reversed $87 $-1 #
coedge $-1 $226 $221 $313 $385 forward $216 $-1 #
vertex $-1 $385 $389 #
straight-curve $-1 -15.572051926161366 -16.830579991063331 12.62251327088023 -1 0 0 I I #
coedge $-1 $383 $223 $226 $324 reversed $310 $-1 #
coedge $-1 $223 $383 $315 $388 forward $310 $-1 #
vertex $-1 $224 $390 #
straight-curve $-1 -21.838138871461588 -29.217426698709559 46.788736884230204 0 0 1 I I #
straight-curve $-1 -21.838138871461588 -29.217426698709545 3.6229421742255568 0 -0.80901698891910034 -0.5877852598018023 I I #
edge $-1 $391 -40.450068833183877 $227 -21.838138871461588 $319 $392 forward 7 unknown #
point $-1 -21.838138871461588 -29.217426698709559 12.62251327088023 #
point $-1 -21.838138871461588 -16.830579991063331 12.62251327088023 #
edge $-1 $393 1 $393 0 $230 $-1 forward 7 unknown #
vertex $-1 $231 $394 #
ellipse-curve $-1 -35.132374558406084 -21.468454149610636 5.9816979755634581 0 -0.5877852598018023 0.80901698891910034 1.5 0 0 1 I I #
point $-1 -33.632374558406084 -23.024003344886463 8.122727722552904 #
edge $-1 $395 1 $395 0 $234 $-1 forward 7 unknown #
vertex $-1 $235 $396 #
ellipse-curve $-1 -27.155833146239384 -21.468454149610636 5.9816979755634581 0 -0.5877852598018023 0.80901698891910034 1.5 0 0 1 I I #
point $-1 -25.655833146239384 -23.024003344886463 8.122727722552904 #
plane-surface $-1 55.594958342234563 0 0 -1 0 0 0 0 1 forward_v I I I I #
coedge $-1 $243 $241 $245 $340 reversed $160 $-1 #
edge $-1 $256 -12.62251327088023 $342 12.62251327088023 $255 $397 forward 7 unknown #
vertex $-1 $340 $398 #
straight-curve $-1 -55.594958342234563 -29.217426698709559 0 0 0 -1 I I #
edge $-1 $338 -29.217426698709559 $342 29.217426698709559 $336 $399 forward 7 unknown #
straight-curve $-1 0 -29.217426698709559 -12.62251327088023 -1 0 0 I I #
vertex $-1 $248 $400 #
straight-curve $-1 0 29.217426698709559 -12.62251327088023 1 0 0 I I #
point $-1 55.594958342234563 29.217426698709559 -12.62251327088023 #
point $-1 55.594958342234563 -29.217426698709559 -12.62251327088023 #
straight-curve $-1 -55.594958342234563 0 12.62251327088023 0 -1 0 I I #
point $-1 -55.594958342234563 29.217426698709559 12.62251327088023 #
point $-1 -55.594958342234563 -29.217426698709559 12.62251327088023 #
straight-curve $-1 55.594958342234563 -29.217426698709559 0 0 0 -1 I I #
straight-curve $-1 55.594958342234563 29.217426698709559 0 0 0 -1 I I #
plane-surface $-1 0 -29.217426698709559 0 0 1 0 0 0 1 forward_v I I I I #
coedge $-1 $355 $401 $271 $359 forward $266 $-1 #
coedge $-1 $402 $268 $275 $364 reversed $179 $-1 #
coedge $-1 $268 $402 $279 $366 forward $179 $-1 #
coedge $-1 $403 $352 $269 $356 forward $266 $-1 #
edge $-1 $357 40.450068833183877 $404 55.594958342234563 $269 $405 forward 7 unknown #
vertex $-1 $356 $406 #
straight-curve $-1 -40.450068833183877 29.217426698709559 5.1278406408782811 0 0 -1 I I #
edge $-1 $361 -29.217426698709559 $357 29.217426698709559 $352 $407 forward 7 unknown #
coedge $-1 $275 $272 $401 $408 reversed $276 $-1 #
vertex $-1 $273 $409 #
straight-curve $-1 -40.450068833183877 -29.217426698709559 5.1278406408782811 0 0 1 I I #
straight-curve $-1 -55.594958342234563 0 7.8888492926328944 0 -1 0 I I #
edge $-1 $410 -12.62251327088023 $277 -7.8888492926328944 $353 $411 forward 7 unknown #
point $-1 -55.594958342234563 -29.217426698709559 7.8888492926328944 #
edge $-1 $404 -12.62251327088023 $280 -7.8888492926328944 $279 $412 forward 7 unknown #
point $-1 -55.594958342234563 29.217426698709559 7.8888492926328944 #
coedge $-1 $286 $372 $288 $370 reversed $193 $-1 #
straight-curve $-1 -21.838138871461588 29.217426698709559 63.962309627071321 0 0 -1 I I #
edge $-1 $289 21.838138871461588 $377 40.450068833183877 $368 $413 forward 7 unknown #
point $-1 -21.838138871461588 29.217426698709559 12.62251327088023 #
coedge $-1 $368 $291 $294 $374 forward $193 $-1 #
straight-curve $-1 -15.572051926161366 29.217426698709556 3.6229421742255496 -1 0 0 I I #
edge $-1 $295 -60.339367452845771 $377 -51.339796356191087 $372 $414 forward 7 unknown #
point $-1 -40.450068833183877 29.217426698709559 3.6229421742255496 #
point $-1 -21.838138871461588 29.217426698709559 3.6229421742255496 #
vertex $-1 $299 $415 #
straight-curve $-1 -40.450068833183877 0 12.62251327088023 0 -1 0 I I #
vertex $-1 $302 $416 #
point $-1 -33.632374558406084 21.468454149610643 5.9816979755634616 #
vertex $-1 $306 $417 #
point $-1 -25.655833146239384 21.468454149610643 5.9816979755634616 #
coedge $-1 $320 $319 $312 $384 forward $310 $-1 #
edge $-1 $391 34.16622361334997 $386 43.165794710004654 $383 $418 forward 7 unknown #
edge $-1 $317 16.830579991063331 $391 29.217426698709559 $316 $419 forward 7 unknown #
vertex $-1 $384 $420 #
straight-curve $-1 -40.450068833183877 -29.217426698709545 3.6229421742255568 0 0.80901698891910034 0.5877852598018023 I I #
edge $-1 $386 -24.878016907022513 $321 -6.2660869453002217 $320 $421 forward 7 unknown #
point $-1 -40.450068833183877 -16.830579991063331 12.62251327088023 #
point $-1 -21.838138871461588 -29.217426698709559 3.6229421742255465 #
vertex $-1 $324 $422 #
straight-curve $-1 0 -29.217426698709559 12.62251327088023 1 0 0 I I #
vertex $-1 $327 $423 #
point $-1 -33.632374558406084 -21.468454149610636 5.9816979755634581 #
vertex $-1 $331 $424 #
point $-1 -25.655833146239384 -21.468454149610636 5.9816979755634581 #
straight-curve $-1 -55.594958342234563 29.217426698709559 0 0 0 -1 I I #
point $-1 -55.594958342234563 -29.217426698709559 -12.62251327088023 #
straight-curve $-1 -55.594958342234563 0 -12.62251327088023 0 1 0 I I #
point $-1 -55.594958342234563 29.217426698709559 -12.62251327088023 #
coedge $-1 $352 $403 $360 $408 forward $266 $-1 #
coedge $-1 $354 $353 $403 $425 reversed $179 $-1 #
coedge $-1 $401 $355 $402 $425 forward $266 $-1 #
vertex $-1 $356 $426 #
straight-curve $-1 0 29.217426698709559 12.62251327088023 -1 0 0 I I #
point $-1 -40.450068833183877 29.217426698709559 12.62251327088023 #
straight-curve $-1 -40.450068833183877 0 12.62251327088023 0 1 0 I I #
edge $-1 $410 -55.594958342234563 $361 -40.450068833183877 $360 $427 forward 7 unknown #
point $-1 -40.450068833183877 -29.217426698709559 12.62251327088023 #
vertex $-1 $425 $428 #
straight-curve $-1 -55.594958342234563 -29.217426698709559 0 0 0 -1 I I #
straight-curve $-1 -55.594958342234563 29.217426698709559 0 0 0 -1 I I #
straight-curve $-1 0 29.217426698709559 12.62251327088023 -1 0 0 I I #
straight-curve $-1 -40.450068833183877 29.217426698709559 63.962309627071321 0 0 1 I I #
point $-1 -40.450068833183877 29.217426698709559 12.62251327088023 #
point $-1 -35.132374558406084 20.586776259907943 4.7681724921848119 #
point $-1 -27.155833146239384 20.586776259907943 4.7681724921848119 #
straight-curve $-1 -40.450068833183877 -29.217426698709559 46.788736884230204 0 0 -1 I I #
straight-curve $-1 -40.450068833183877 0 12.62251327088023 0 -1 0 I I #
point $-1 -40.450068833183877 -29.217426698709559 3.6229421742255465 #
straight-curve $-1 -15.572051926161366 -29.217426698709559 3.6229421742255465 1 0 0 I I #
point $-1 -40.450068833183877 -29.217426698709559 12.62251327088023 #
point $-1 -35.132374558406084 -20.586776259907936 4.7681724921848083 #
point $-1 -27.155833146239384 -20.586776259907936 4.7681724921848083 #
edge $-1 $404 -29.217426698709559 $410 29.217426698709559 $402 $429 forward 7 unknown #
point $-1 -55.594958342234563 29.217426698709559 12.62251327088023 #
straight-curve $-1 0 -29.217426698709559 12.62251327088023 1 0 0 I I #
point $-1 -55.594958342234563 -29.217426698709559 12.62251327088023 #
straight-curve $-1 -55.594958342234563 0 12.62251327088023 0 -1 0 I I #
End-of-ACIS-data 