500 0 6 0           
7 Unknown 11 ACIS 5.0 NT 24 Thu Mar 25 15:21:40 1999 
-1 9.9999999999999995e-007 1e-010 
body $-1 $6 $-1 $7 #
body $-1 $8 $-1 $9 #
body $-1 $10 $-1 $11 #
body $-1 $12 $-1 $13 #
body $-1 $14 $-1 $15 #
body $-1 $16 $-1 $17 #
lump $-1 $-1 $18 $0 #
transform $-1 1 0 0 0 1 0 0 0 1 68.371227149266034 46.385684622304254 12.770184100141742 1 rotate no_reflect no_shear #
lump $-1 $-1 $19 $1 #
transform $-1 1 0 0 0 1 0 0 0 1 68.371227149266034 46.385684622304254 12.770184100141742 1 rotate no_reflect no_shear #
lump $-1 $-1 $20 $2 #
transform $-1 1 0 0 0 1 0 0 0 1 68.371227149266034 46.385684622304254 12.770184100141742 1 rotate no_reflect no_shear #
lump $-1 $-1 $21 $3 #
transform $-1 1 0 0 0 1 0 0 0 1 68.371227149266034 46.385684622304254 12.770184100141742 1 rotate no_reflect no_shear #
lump $-1 $-1 $22 $4 #
transform $-1 1 0 0 0 1 0 0 0 1 68.371227149266034 46.385684622304254 12.770184100141742 1 rotate no_reflect no_shear #
lump $-1 $-1 $23 $5 #
transform $-1 1 0 0 0 1 0 0 0 1 68.371227149266034 46.385684622304254 12.770184100141742 1 rotate no_reflect no_shear #
shell $-1 $-1 $-1 $24 $-1 $6 #
shell $-1 $-1 $-1 $25 $-1 $8 #
shell $-1 $-1 $-1 $26 $-1 $10 #
shell $-1 $-1 $-1 $27 $-1 $12 #
shell $-1 $-1 $-1 $28 $-1 $14 #
shell $-1 $-1 $-1 $29 $-1 $16 #
face $-1 $30 $31 $18 $-1 $32 forward single #
face $-1 $33 $34 $19 $-1 $35 reversed single #
face $-1 $36 $37 $20 $-1 $38 reversed single #
face $-1 $39 $40 $21 $-1 $41 forward single #
face $-1 $42 $43 $22 $-1 $44 reversed single #
face $-1 $45 $46 $23 $-1 $47 forward single #
face $-1 $48 $49 $18 $-1 $50 reversed single #
loop $-1 $-1 $51 $24 #
plane-surface $-1 0 0 12.770184100141742 0 0 1 1 0 0 forward_v I I I I #
face $-1 $52 $53 $19 $-1 $54 reversed single #
loop $-1 $-1 $55 $25 #
plane-surface $-1 0 -38.88734133836352 8.4202853356737695 0 0 1 1 0 0 forward_v I I I I #
face $-1 $56 $57 $20 $-1 $58 reversed single #
loop $-1 $-1 $59 $26 #
plane-surface $-1 -68.371227149266048 -22.8653988776211 6.0352884417544743 -0.85716730853699208 0 0.51503806187062418 0.51503806187062418 0 0.85716730853699208 forward_v I I I I #
face $-1 $60 $61 $21 $-1 $62 forward single #
loop $-1 $63 $64 $27 #
cone-surface $-1 -64.92481149789451 -22.8653988776211 8.5476822370817178 0.85716730853699208 0 -0.51503806187062418 0.77255709280593621 0 1.2857509628054882 1 I I 0 1 1.5 forward I I I I #
face $-1 $65 $66 $22 $-1 $67 reversed single #
loop $-1 $-1 $68 $28 #
plane-surface $-1 78.49211551456311 -14.519817255089094 195.92767819983939 0 -1 0 -0.74314483375859142 0 -0.66913059716165679 forward_v I I I I #
face $-1 $69 $70 $23 $-1 $71 forward single #
loop $-1 $72 $73 $29 #
cone-surface $-1 60.985017330664846 -22.95440765475594 5.1769848505499336 -0.74314483375859142 0 -0.66913059716165679 2.0073917914849702 0 -2.2294345012757741 1 I I 0 1 3 forward I I I I #
face $-1 $74 $75 $18 $-1 $76 reversed single #
loop $-1 $-1 $77 $30 #
plane-surface $-1 0 0 -12.770184100141742 0 0 1 1 0 0 forward_v I I I I #
coedge $-1 $78 $79 $80 $81 forward $31 $-1 #
face $-1 $82 $83 $19 $-1 $84 reversed single #
loop $-1 $-1 $85 $33 #
plane-surface $-1 0 -31.388998054422782 10.595234717907756 0 -1 0 0 0 -1 forward_v I I I I #
coedge $-1 $86 $87 $88 $89 reversed $34 $-1 #
face $-1 $90 $91 $20 $-1 $92 forward single #
loop $-1 $-1 $93 $36 #
plane-surface $-1 -185.58238866308142 -14.341799700819422 76.462857079102832 0 -1 0 0.85716730853699208 0 -0.51503806187062418 forward_v I I I I #
coedge $-1 $94 $95 $96 $97 reversed $37 $-1 #
face $-1 $-1 $98 $21 $-1 $99 forward single #
loop $-1 $100 $101 $39 #
cone-surface $-1 -62.858887082591686 -22.8653988776211 7.3063496568123565 0.85716730853699208 0 -0.51503806187062418 0.3862785464029681 0 0.64287548140274409 1 I I -0.70710678118654757 0.70710678118654757 0.75 forward I I I I #
loop $-1 $-1 $102 $27 #
coedge $-1 $64 $64 $103 $104 reversed $40 $-1 #
face $-1 $105 $106 $22 $-1 $107 forward single #
loop $-1 $-1 $108 $42 #
plane-surface $-1 -23.127332952861281 -22.954407654755936 104.42911809771206 0.74314483375859142 0 0.66913059716165679 0.66913059716165679 0 -0.74314483375859142 forward_v I I I I #
coedge $-1 $109 $110 $111 $112 reversed $43 $-1 #
face $-1 $-1 $113 $23 $-1 $114 forward single #
loop $-1 $115 $116 $45 #
cone-surface $-1 56.968333905791795 -22.95440765475594 1.5603469401426562 -0.74314483375859142 0 -0.66913059716165679 1.0036958957424851 0 -1.1147172506378871 1 I I -0.70710678118654757 0.70710678118654757 1.5 forward I I I I #
loop $-1 $-1 $117 $29 #
coedge $-1 $73 $73 $118 $119 reversed $46 $-1 #
face $-1 $120 $121 $18 $-1 $122 reversed single #
loop $-1 $-1 $123 $48 #
plane-surface $-1 0 -46.385684622304254 0 0 1 0 0 0 1 forward_v I I I I #
coedge $-1 $124 $125 $126 $127 forward $49 $-1 #
coedge $-1 $128 $51 $129 $130 forward $31 $-1 #
coedge $-1 $51 $128 $131 $132 forward $31 $-1 #
coedge $-1 $133 $134 $51 $81 reversed $135 $-1 #
edge $-1 $136 -46.385684622304254 $137 46.385684622304254 $80 $138 forward 7 unknown #
face $-1 $139 $140 $19 $-1 $141 reversed single #
loop $-1 $-1 $142 $52 #
plane-surface $-1 -68.371227149266034 0 0 1 0 0 0 0 -1 forward_v I I I I #
coedge $-1 $143 $144 $145 $146 reversed $53 $-1 #
coedge $-1 $147 $55 $148 $149 reversed $34 $-1 #
coedge $-1 $55 $147 $143 $150 forward $34 $-1 #
coedge $-1 $145 $151 $55 $89 forward $152 $-1 #
edge $-1 $153 -26.942013953122494 $154 -11.945327385241022 $88 $155 forward 7 unknown #
face $-1 $156 $157 $20 $-1 $158 reversed single #
loop $-1 $-1 $96 $56 #
plane-surface $-1 0 0 12.770184100141742 0 0 1 1 0 0 forward_v I I I I #
coedge $-1 $159 $160 $161 $162 reversed $57 $-1 #
coedge $-1 $163 $59 $164 $165 reversed $37 $-1 #
coedge $-1 $59 $163 $159 $166 forward $37 $-1 #
coedge $-1 $161 $167 $59 $97 forward $91 $-1 #
edge $-1 $168 -19.956298615612234 $169 -2.909100262008872 $96 $170 forward 7 unknown #
loop $-1 $-1 $103 $60 #
plane-surface $-1 -68.371227149266048 -22.8653988776211 6.0352884417544743 -0.85716730853699208 0 0.51503806187062418 0.51503806187062418 0 0.85716730853699208 forward_v I I I I #
loop $-1 $-1 $171 $39 #
coedge $-1 $101 $101 $102 $172 reversed $61 $-1 #
coedge $-1 $102 $102 $101 $172 forward $63 $-1 #
coedge $-1 $103 $103 $64 $104 forward $98 $-1 #
edge $-1 $173 0 $173 6.2831853071796004 $103 $174 forward 7 unknown #
face $-1 $175 $176 $22 $-1 $177 forward single #
loop $-1 $-1 $178 $65 #
plane-surface $-1 0 -31.388998054422782 10.595234717907756 0 -1 0 0 0 -1 forward_v I I I I #
coedge $-1 $179 $180 $181 $182 reversed $66 $-1 #
coedge $-1 $110 $68 $183 $184 reversed $43 $-1 #
coedge $-1 $68 $109 $179 $185 reversed $43 $-1 #
coedge $-1 $181 $186 $68 $112 forward $176 $-1 #
edge $-1 $187 -29.125169391984478 $188 -20.156682103252486 $111 $189 forward 7 unknown #
loop $-1 $-1 $118 $69 #
plane-surface $-1 -23.127332952861281 -22.954407654755936 104.42911809771206 0.74314483375859142 0 0.66913059716165679 0.66913059716165679 0 -0.74314483375859142 forward_v I I I I #
loop $-1 $-1 $190 $45 #
coedge $-1 $116 $116 $117 $191 reversed $70 $-1 #
coedge $-1 $117 $117 $116 $191 forward $72 $-1 #
coedge $-1 $118 $118 $73 $119 forward $113 $-1 #
edge $-1 $192 0 $192 6.2831853071796004 $118 $193 forward 7 unknown #
face $-1 $194 $195 $18 $-1 $196 reversed single #
loop $-1 $-1 $197 $74 #
plane-surface $-1 -68.371227149266034 0 0 1 0 0 0 0 -1 forward_v I I I I #
coedge $-1 $198 $131 $199 $200 forward $75 $-1 #
coedge $-1 $201 $77 $198 $202 forward $49 $-1 #
coedge $-1 $77 $201 $203 $204 forward $49 $-1 #
coedge $-1 $134 $133 $77 $127 reversed $135 $-1 #
edge $-1 $205 -46.385684622304254 $206 46.385684622304254 $126 $207 forward 7 unknown #
coedge $-1 $79 $78 $208 $209 forward $31 $-1 #
coedge $-1 $210 $211 $78 $130 reversed $195 $-1 #
edge $-1 $137 -68.371227149266034 $212 68.371227149266034 $129 $213 forward 7 unknown #
coedge $-1 $123 $214 $79 $132 reversed $75 $-1 #
edge $-1 $215 -68.371227149266034 $136 68.371227149266034 $131 $216 forward 7 unknown #
coedge $-1 $126 $80 $214 $217 forward $135 $-1 #
coedge $-1 $80 $126 $210 $218 reversed $135 $-1 #
loop $-1 $-1 $133 $194 #
vertex $-1 $81 $219 #
vertex $-1 $81 $220 #
straight-curve $-1 68.371227149266034 0 12.770184100141742 0 1 0 I I #
face $-1 $221 $222 $19 $-1 $223 forward single #
loop $-1 $-1 $148 $82 #
plane-surface $-1 0 -46.385684622304254 0 0 1 0 0 0 1 forward_v I I I I #
coedge $-1 $224 $225 $226 $227 forward $83 $-1 #
coedge $-1 $226 $85 $87 $150 reversed $53 $-1 #
coedge $-1 $85 $226 $228 $229 reversed $53 $-1 #
coedge $-1 $230 $88 $85 $146 forward $152 $-1 #
edge $-1 $154 3.1226679767198915 $231 7.4725667411878645 $145 $232 forward 7 unknown #
coedge $-1 $87 $86 $224 $233 reversed $34 $-1 #
coedge $-1 $234 $235 $86 $149 forward $140 $-1 #
edge $-1 $236 -68.371227149266034 $153 68.371227149266034 $148 $237 forward 7 unknown #
edge $-1 $238 -68.371227149266034 $154 68.371227149266034 $143 $239 forward 7 unknown #
coedge $-1 $88 $230 $234 $240 forward $152 $-1 #
loop $-1 $-1 $145 $221 #
vertex $-1 $149 $241 #
vertex $-1 $89 $242 #
straight-curve $-1 68.371227149266034 -19.44367066918176 8.4202853356737695 0 1 0 I I #
face $-1 $-1 $243 $20 $-1 $244 forward single #
loop $-1 $-1 $245 $90 #
plane-surface $-1 -68.371227149266034 0 0 1 0 0 0 0 -1 forward_v I I I I #
coedge $-1 $160 $93 $95 $166 reversed $57 $-1 #
coedge $-1 $93 $159 $245 $246 reversed $57 $-1 #
coedge $-1 $247 $96 $93 $162 forward $91 $-1 #
edge $-1 $169 -28.466700617217555 $248 -24.419967182274675 $161 $249 forward 7 unknown #
coedge $-1 $95 $94 $250 $251 reversed $37 $-1 #
coedge $-1 $252 $253 $94 $165 forward $243 $-1 #
edge $-1 $254 -19.561210597638858 $168 -11.704056467621557 $164 $255 forward 7 unknown #
edge $-1 $256 2.787470371894754e-014 $169 7.8571541300173307 $159 $257 forward 7 unknown #
coedge $-1 $96 $247 $252 $258 forward $91 $-1 #
vertex $-1 $165 $259 #
vertex $-1 $97 $260 #
straight-curve $-1 -64.32449371432314 -11.43269943881055 12.770184100141742 0 1 0 I I #
coedge $-1 $171 $171 $-1 $261 reversed $100 $-1 #
edge $-1 $262 0 $262 6.2831853071796004 $101 $263 forward 7 unknown #
vertex $-1 $104 $264 #
ellipse-curve $-1 -66.347860431794601 -22.8653988776211 9.4027362709481146 -0.85716730853699208 0 0.51503806187062418 0.77255709280593621 0 1.2857509628054882 1 I I #
face $-1 $-1 $265 $22 $-1 $266 reversed single #
loop $-1 $-1 $181 $105 #
plane-surface $-1 0 0 12.770184100141742 0 0 1 1 0 0 forward_v I I I I #
coedge $-1 $267 $268 $180 $269 reversed $106 $-1 #
coedge $-1 $270 $108 $110 $185 forward $66 $-1 #
coedge $-1 $108 $270 $178 $269 forward $66 $-1 #
coedge $-1 $271 $111 $108 $182 forward $176 $-1 #
edge $-1 $188 3.0426134277111263 $272 19.911794227044815 $181 $273 forward 7 unknown #
coedge $-1 $274 $275 $109 $184 forward $265 $-1 #
edge $-1 $276 -95.154169469632009 $187 -85.193654999777948 $183 $277 forward 7 unknown #
edge $-1 $188 123.33926017353633 $276 136.74245429853201 $110 $278 forward 7 unknown #
coedge $-1 $111 $271 $274 $279 forward $176 $-1 #
vertex $-1 $184 $280 #
vertex $-1 $112 $281 #
straight-curve $-1 39.246057757281555 -14.519817255089094 12.770184100141748 -1 0 0 I I #
coedge $-1 $190 $190 $-1 $282 reversed $115 $-1 #
edge $-1 $283 0 $283 6.2831853071796004 $116 $284 forward 7 unknown #
vertex $-1 $119 $285 #
ellipse-curve $-1 63.886983504900023 -22.95440765475594 7.7899268652147367 0.74314483375859142 0 0.66913059716165679 2.0073917914849702 0 -2.2294345012757741 1 I I #
face $-1 $-1 $135 $18 $-1 $286 reversed single #
loop $-1 $-1 $210 $120 #
plane-surface $-1 0 46.385684622304254 0 0 -1 0 0 0 -1 forward_v I I I I #
coedge $-1 $287 $208 $211 $288 forward $121 $-1 #
coedge $-1 $214 $123 $124 $202 reversed $75 $-1 #
coedge $-1 $208 $287 $123 $200 reversed $121 $-1 #
edge $-1 $215 -12.770184100141742 $289 12.770184100141742 $199 $290 forward 7 unknown #
coedge $-1 $125 $124 $287 $291 forward $49 $-1 #
edge $-1 $206 -68.371227149266034 $289 68.371227149266034 $198 $292 forward 7 unknown #
coedge $-1 $211 $210 $125 $204 reversed $195 $-1 #
edge $-1 $293 -68.371227149266034 $205 68.371227149266034 $203 $294 forward 7 unknown #
vertex $-1 $127 $295 #
vertex $-1 $217 $296 #
straight-curve $-1 68.371227149266034 0 -12.770184100141742 0 -1 0 I I #
coedge $-1 $197 $199 $128 $209 reversed $121 $-1 #
edge $-1 $212 -46.385684622304254 $215 46.385684622304254 $208 $297 forward 7 unknown #
coedge $-1 $203 $129 $134 $218 forward $195 $-1 #
coedge $-1 $129 $203 $197 $288 reversed $195 $-1 #
vertex $-1 $130 $298 #
straight-curve $-1 0 46.385684622304254 12.770184100141742 -1 0 0 I I #
coedge $-1 $131 $198 $133 $217 reversed $75 $-1 #
vertex $-1 $209 $299 #
straight-curve $-1 0 -46.385684622304254 12.770184100141742 1 0 0 I I #
edge $-1 $136 -12.770184100141742 $206 12.770184100141742 $133 $300 forward 7 unknown #
edge $-1 $137 -12.770184100141742 $205 12.770184100141742 $134 $301 forward 7 unknown #
point $-1 68.371227149266034 -46.385684622304254 12.770184100141742 #
point $-1 68.371227149266034 46.385684622304254 12.770184100141742 #
face $-1 $-1 $152 $19 $-1 $302 reversed single #
loop $-1 $-1 $228 $139 #
plane-surface $-1 0 0 12.770184100141742 0 0 1 1 0 0 forward_v I I I I #
coedge $-1 $303 $142 $147 $233 forward $83 $-1 #
coedge $-1 $142 $303 $304 $305 reversed $83 $-1 #
coedge $-1 $144 $143 $142 $227 reversed $53 $-1 #
edge $-1 $306 -7.4725667411878645 $238 -3.1226679767198915 $142 $307 forward 7 unknown #
coedge $-1 $304 $308 $144 $229 forward $222 $-1 #
edge $-1 $231 -68.371227149266034 $306 68.371227149266034 $228 $309 forward 7 unknown #
coedge $-1 $151 $145 $308 $310 reversed $152 $-1 #
vertex $-1 $146 $311 #
straight-curve $-1 68.371227149266034 -31.388998054422782 5.297617358953878 0 0 1 I I #
edge $-1 $238 11.945327385241022 $236 26.942013953122494 $224 $312 forward 7 unknown #
coedge $-1 $313 $148 $151 $240 reversed $140 $-1 #
coedge $-1 $148 $313 $303 $314 forward $140 $-1 #
vertex $-1 $149 $315 #
straight-curve $-1 0 -46.385684622304254 8.4202853356737695 1 0 0 I I #
vertex $-1 $233 $316 #
straight-curve $-1 0 -31.388998054422782 8.4202853356737695 1 0 0 I I #
edge $-1 $317 -12.770184100141742 $153 -8.4202853356737695 $151 $318 forward 7 unknown #
point $-1 68.371227149266034 -46.385684622304254 8.4202853356737695 #
point $-1 68.371227149266034 -31.388998054422782 8.4202853356737695 #
loop $-1 $-1 $164 $156 #
plane-surface $-1 0 -31.388998054422782 10.595234717907756 0 -1 0 0 0 -1 forward_v I I I I #
coedge $-1 $250 $319 $160 $246 forward $157 $-1 #
edge $-1 $248 25.461244439409676 $256 32.196140097796921 $245 $320 forward 7 unknown #
coedge $-1 $167 $161 $319 $321 forward $91 $-1 #
vertex $-1 $321 $322 #
straight-curve $-1 -92.791194331540709 -14.341799700819422 12.770184100141741 -1 0 0 I I #
coedge $-1 $323 $245 $163 $251 forward $157 $-1 #
edge $-1 $256 2.909100262008872 $254 19.956298615612226 $250 $324 forward 7 unknown #
coedge $-1 $253 $164 $167 $258 reversed $243 $-1 #
coedge $-1 $164 $252 $323 $325 reversed $243 $-1 #
vertex $-1 $325 $326 #
straight-curve $-1 -58.296459155214997 -31.388998054422782 22.802518681457883 0.51503806187062429 0 0.85716730853699219 I I #
vertex $-1 $251 $327 #
straight-curve $-1 -68.371227149266048 -14.341799700819422 6.0352884417544743 0.51503806187062418 0 0.85716730853699208 I I #
edge $-1 $328 -68.371227149266034 $168 -64.324493714323154 $167 $329 forward 7 unknown #
point $-1 -64.324493714323154 -31.388998054422782 12.770184100141742 #
point $-1 -64.324493714323154 -14.341799700819422 12.770184100141742 #
edge $-1 $330 1 $330 0 $171 $-1 forward 7 unknown #
vertex $-1 $172 $331 #
ellipse-curve $-1 -63.501762563994433 -22.8653988776211 7.6926282032153246 -0.85716730853699208 0 0.51503806187062418 0.77255709280593621 0 1.2857509628054882 1 I I #
point $-1 -65.575303338988647 -22.8653988776211 10.688487233753598 #
loop $-1 $-1 $183 $175 #
plane-surface $-1 68.371227149266034 0 0 -1 0 0 0 0 1 forward_v I I I I #
coedge $-1 $268 $178 $332 $333 reversed $106 $-1 #
coedge $-1 $178 $267 $271 $334 reversed $106 $-1 #
edge $-1 $335 -136.74245429853201 $272 -123.33926017353633 $178 $336 forward 7 unknown #
coedge $-1 $180 $179 $275 $337 reversed $66 $-1 #
coedge $-1 $186 $181 $268 $334 forward $176 $-1 #
vertex $-1 $334 $338 #
straight-curve $-1 59.402739860534034 -11.477203827377968 12.770184100141748 0 -1 0 I I #
coedge $-1 $332 $183 $186 $279 reversed $265 $-1 #
coedge $-1 $183 $332 $270 $337 forward $265 $-1 #
vertex $-1 $184 $339 #
straight-curve $-1 68.371227149266034 -14.519817255089094 97.963839099919696 0 0 1 I I #
straight-curve $-1 -23.127332952861281 -14.519817255089094 104.42911809771206 0.66913059716165679 0 -0.74314483375859142 I I #
edge $-1 $340 -31.388998054422782 $187 -14.519817255089094 $274 $341 forward 7 unknown #
point $-1 68.371227149266034 -14.519817255089094 12.770184100141742 #
point $-1 59.402739860534041 -14.519817255089094 12.770184100141748 #
edge $-1 $342 1 $342 0 $190 $-1 forward 7 unknown #
vertex $-1 $191 $343 #
ellipse-curve $-1 58.083051156429683 -22.95440765475594 2.5640428358851413 0.74314483375859142 0 0.66913059716165679 2.0073917914849702 0 -2.2294345012757741 1 I I #
point $-1 65.894375296384993 -22.95440765475594 5.560492363938951 #
plane-surface $-1 68.371227149266034 0 0 -1 0 0 0 0 1 forward_v I I I I #
coedge $-1 $199 $197 $201 $291 reversed $121 $-1 #
edge $-1 $212 -12.770184100141742 $293 12.770184100141742 $211 $344 forward 7 unknown #
vertex $-1 $291 $345 #
straight-curve $-1 -68.371227149266034 -46.385684622304254 0 0 0 -1 I I #
edge $-1 $289 -46.385684622304254 $293 46.385684622304254 $287 $346 forward 7 unknown #
straight-curve $-1 0 -46.385684622304254 -12.770184100141742 -1 0 0 I I #
vertex $-1 $204 $347 #
straight-curve $-1 0 46.385684622304254 -12.770184100141742 1 0 0 I I #
point $-1 68.371227149266034 46.385684622304254 -12.770184100141742 #
point $-1 68.371227149266034 -46.385684622304254 -12.770184100141742 #
straight-curve $-1 -68.371227149266034 0 12.770184100141742 0 -1 0 I I #
point $-1 -68.371227149266034 46.385684622304254 12.770184100141742 #
point $-1 -68.371227149266034 -46.385684622304254 12.770184100141742 #
straight-curve $-1 68.371227149266034 -46.385684622304254 0 0 0 -1 I I #
straight-curve $-1 68.371227149266034 46.385684622304254 0 0 0 -1 I I #
plane-surface $-1 68.371227149266034 0 0 -1 0 0 0 0 1 forward_v I I I I #
coedge $-1 $225 $224 $235 $314 reversed $83 $-1 #
coedge $-1 $348 $228 $225 $305 forward $222 $-1 #
edge $-1 $306 31.388998054422782 $349 46.385684622304254 $225 $350 forward 7 unknown #
vertex $-1 $305 $351 #
straight-curve $-1 -68.371227149266034 -31.388998054422782 5.297617358953878 0 0 -1 I I #
coedge $-1 $228 $348 $230 $310 forward $222 $-1 #
straight-curve $-1 0 -31.388998054422782 12.770184100141742 -1 0 0 I I #
edge $-1 $317 -46.385684622304254 $231 -31.388998054422782 $230 $352 forward 7 unknown #
point $-1 68.371227149266034 -31.388998054422782 12.770184100141742 #
straight-curve $-1 -68.371227149266034 -19.44367066918176 8.4202853356737695 0 -1 0 I I #
coedge $-1 $235 $234 $348 $353 reversed $140 $-1 #
edge $-1 $349 -12.770184100141742 $236 -8.4202853356737695 $303 $354 forward 7 unknown #
point $-1 -68.371227149266034 -46.385684622304254 8.4202853356737695 #
point $-1 -68.371227149266034 -31.388998054422782 8.4202853356737695 #
vertex $-1 $310 $355 #
straight-curve $-1 68.371227149266034 -46.385684622304254 0 0 0 -1 I I #
coedge $-1 $245 $323 $247 $321 reversed $157 $-1 #
straight-curve $-1 -68.371227149266034 -14.341799700819422 38.231428539551416 0 0 -1 I I #
edge $-1 $248 14.341799700819422 $328 31.388998054422782 $319 $356 forward 7 unknown #
point $-1 -68.371227149266034 -14.341799700819422 12.770184100141742 #
coedge $-1 $319 $250 $253 $325 forward $157 $-1 #
straight-curve $-1 -68.371227149266034 -11.43269943881055 6.0352884417545072 0 -1 0 I I #
edge $-1 $254 -32.196140097796921 $328 -25.461244439409676 $323 $357 forward 7 unknown #
point $-1 -68.371227149266034 -31.388998054422778 6.0352884417544983 #
point $-1 -68.371227149266034 -14.341799700819422 6.0352884417544983 #
vertex $-1 $325 $358 #
straight-curve $-1 0 -31.388998054422782 12.770184100141742 1 0 0 I I #
vertex $-1 $261 $359 #
point $-1 -62.729205471188493 -22.8653988776211 8.9783791660208134 #
coedge $-1 $275 $274 $267 $333 forward $265 $-1 #
edge $-1 $340 85.193654999777948 $335 95.154169469632009 $332 $360 forward 7 unknown #
edge $-1 $272 59.402739860534034 $340 68.371227149266034 $271 $361 forward 7 unknown #
vertex $-1 $333 $362 #
straight-curve $-1 -23.127332952861281 -31.388998054422778 104.42911809771206 -0.66913059716165679 0 0.74314483375859142 I I #
edge $-1 $335 -19.911794227044808 $276 -3.0426134277111263 $275 $363 forward 7 unknown #
point $-1 59.402739860534034 -31.388998054422782 12.770184100141742 #
point $-1 68.371227149266019 -14.519817255089094 2.8096696302876865 #
vertex $-1 $279 $364 #
straight-curve $-1 68.371227149266034 0 12.770184100141742 0 1 0 I I #
vertex $-1 $282 $365 #
point $-1 60.090442947914653 -22.95440765475594 0.33460833460936712 #
straight-curve $-1 -68.371227149266034 46.385684622304254 0 0 0 -1 I I #
point $-1 -68.371227149266034 -46.385684622304254 -12.770184100141742 #
straight-curve $-1 -68.371227149266034 0 -12.770184100141742 0 1 0 I I #
point $-1 -68.371227149266034 46.385684622304254 -12.770184100141742 #
coedge $-1 $308 $304 $313 $353 forward $222 $-1 #
vertex $-1 $305 $366 #
straight-curve $-1 -68.371227149266034 0 12.770184100141742 0 -1 0 I I #
point $-1 -68.371227149266034 -31.388998054422782 12.770184100141742 #
straight-curve $-1 68.371227149266034 0 12.770184100141742 0 1 0 I I #
edge $-1 $349 -68.371227149266034 $317 68.371227149266034 $313 $367 forward 7 unknown #
straight-curve $-1 -68.371227149266034 -46.385684622304254 0 0 0 -1 I I #
point $-1 68.371227149266034 -46.385684622304254 12.770184100141742 #
straight-curve $-1 -68.371227149266034 0 12.770184100141742 0 -1 0 I I #
straight-curve $-1 -68.371227149266034 -31.388998054422778 38.231428539551416 0 0 1 I I #
point $-1 -68.371227149266034 -31.388998054422782 12.770184100141742 #
point $-1 -62.216011601188939 -22.8653988776211 6.9200711104093884 #
straight-curve $-1 68.371227149266034 -31.388998054422778 97.963839099919696 0 0 -1 I I #
straight-curve $-1 0 -31.388998054422782 12.770184100141742 1 0 0 I I #
point $-1 68.371227149266019 -31.388998054422778 2.8096696302876865 #
straight-curve $-1 68.371227149266034 -11.477203827377968 2.8096696302876651 0 1 0 I I #
point $-1 68.371227149266034 -31.388998054422782 12.770184100141742 #
point $-1 55.853616655153907 -22.95440765475594 0.5566510444001711 #
point $-1 -68.371227149266034 -46.385684622304254 12.770184100141742 #
straight-curve $-1 0 -46.385684622304254 12.770184100141742 1 0 0 I I #
End-of-ACIS-data 