500 0 4 0           
7 Unknown 11 ACIS 5.0 NT 24 Fri Mar 26 15:09:35 1999 
-1 9.9999999999999995e-007 1e-010 
body $-1 $4 $-1 $5 #
body $-1 $6 $-1 $7 #
body $-1 $8 $-1 $9 #
body $-1 $10 $-1 $11 #
lump $-1 $-1 $12 $0 #
transform $-1 1 0 0 0 1 0 0 0 1 61.769463179418317 34.647038014266883 14.800091283477084 1 rotate no_reflect no_shear #
lump $-1 $-1 $13 $1 #
transform $-1 1 0 0 0 1 0 0 0 1 61.769463179418317 34.647038014266883 14.800091283477084 1 rotate no_reflect no_shear #
lump $-1 $-1 $14 $2 #
transform $-1 1 0 0 0 1 0 0 0 1 61.769463179418317 34.647038014266883 14.800091283477084 1 rotate no_reflect no_shear #
lump $-1 $-1 $15 $3 #
transform $-1 1 0 0 0 1 0 0 0 1 61.769463179418317 34.647038014266883 14.800091283477084 1 rotate no_reflect no_shear #
shell $-1 $-1 $-1 $16 $-1 $4 #
shell $-1 $-1 $-1 $17 $-1 $6 #
shell $-1 $-1 $-1 $18 $-1 $8 #
shell $-1 $-1 $-1 $19 $-1 $10 #
face $-1 $20 $21 $12 $-1 $22 forward single #
face $-1 $23 $24 $13 $-1 $25 reversed single #
face $-1 $26 $27 $14 $-1 $28 reversed single #
face $-1 $29 $30 $15 $-1 $31 forward single #
face $-1 $32 $33 $12 $-1 $34 reversed single #
loop $-1 $-1 $35 $16 #
plane-surface $-1 0 0 14.800091283477084 0 0 1 1 0 0 forward_v I I I I #
face $-1 $36 $37 $13 $-1 $38 reversed single #
loop $-1 $-1 $39 $17 #
plane-surface $-1 -40.050518089351925 -27.5506094677996 0 1 0 0 0 0 -1 forward_v I I I I #
face $-1 $40 $41 $14 $-1 $42 reversed single #
loop $-1 $-1 $43 $18 #
plane-surface $-1 -34.943189101198449 84.741974272565372 138.27013715188104 -1 0 0 0 0.7660444514056185 0.64278759981090561 forward_v I I I I #
face $-1 $44 $45 $15 $-1 $46 forward single #
loop $-1 $47 $48 $19 #
cone-surface $-1 -48.356326140308383 27.848715338636239 7.7608242195366195 0 -0.7660444514056185 -0.64278759981090561 2.5 0 0 1 I I 0 1 2.5 forward I I I I #
face $-1 $49 $50 $12 $-1 $51 reversed single #
loop $-1 $-1 $52 $20 #
plane-surface $-1 0 0 -14.800091283477084 0 0 1 1 0 0 forward_v I I I I #
coedge $-1 $53 $54 $55 $56 forward $21 $-1 #
face $-1 $57 $58 $13 $-1 $59 reversed single #
loop $-1 $-1 $60 $23 #
plane-surface $-1 -37.067780493334666 -20.454180921332316 0 0 -1 0 0 0 -1 forward_v I I I I #
coedge $-1 $61 $62 $63 $64 forward $24 $-1 #
face $-1 $65 $66 $14 $-1 $67 reversed single #
loop $-1 $-1 $68 $26 #
plane-surface $-1 -48.356326140308383 -9.894334797228737 58.860847194468221 0 0.7660444514056185 0.64278759981090561 1 0 0 forward_v I I I I #
coedge $-1 $69 $70 $71 $72 reversed $27 $-1 #
face $-1 $-1 $73 $15 $-1 $74 forward single #
loop $-1 $75 $76 $29 #
cone-surface $-1 -48.356326140308383 23.877841971321303 4.4288659288056387 0 -0.7660444514056185 -0.64278759981090561 1.25 0 0 1 I I -0.70710678118654746 0.70710678118654746 1.25 forward I I I I #
loop $-1 $-1 $77 $19 #
coedge $-1 $48 $48 $78 $79 reversed $30 $-1 #
face $-1 $80 $81 $12 $-1 $82 reversed single #
loop $-1 $-1 $83 $32 #
plane-surface $-1 0 -34.647038014266883 0 0 1 0 0 0 1 forward_v I I I I #
coedge $-1 $84 $85 $86 $87 forward $33 $-1 #
coedge $-1 $88 $35 $89 $90 forward $21 $-1 #
coedge $-1 $35 $88 $91 $92 forward $21 $-1 #
coedge $-1 $93 $94 $35 $56 reversed $95 $-1 #
edge $-1 $96 -34.647038014266883 $97 34.647038014266883 $55 $98 forward 7 unknown #
face $-1 $99 $100 $13 $-1 $101 forward single #
loop $-1 $-1 $102 $36 #
plane-surface $-1 -34.085042897317408 -27.5506094677996 0 -1 0 0 0 0 1 forward_v I I I I #
coedge $-1 $103 $104 $105 $106 forward $37 $-1 #
coedge $-1 $107 $39 $108 $109 reversed $24 $-1 #
coedge $-1 $39 $107 $110 $111 reversed $24 $-1 #
coedge $-1 $104 $103 $39 $64 reversed $37 $-1 #
edge $-1 $112 -14.800091283477084 $113 14.800091283477084 $63 $114 forward 7 unknown #
face $-1 $115 $116 $14 $-1 $117 reversed single #
loop $-1 $-1 $71 $40 #
plane-surface $-1 0 34.647038014266883 0 0 -1 0 0 0 -1 forward_v I I I I #
coedge $-1 $118 $119 $120 $121 reversed $41 $-1 #
coedge $-1 $70 $43 $122 $123 reversed $27 $-1 #
coedge $-1 $43 $69 $118 $124 reversed $27 $-1 #
coedge $-1 $120 $125 $43 $72 forward $66 $-1 #
edge $-1 $126 54.334977292463435 $127 63.356563838409656 $71 $128 forward 7 unknown #
loop $-1 $-1 $78 $44 #
plane-surface $-1 -48.356326140308383 -9.894334797228737 58.860847194468221 0 0.7660444514056185 0.64278759981090561 1 0 0 forward_v I I I I #
loop $-1 $-1 $129 $29 #
coedge $-1 $76 $76 $77 $130 reversed $45 $-1 #
coedge $-1 $77 $77 $76 $130 forward $47 $-1 #
coedge $-1 $78 $78 $48 $79 forward $73 $-1 #
edge $-1 $131 -1.9399027808245752e-016 $131 6.2831853071796004 $78 $132 forward 7 unknown #
face $-1 $133 $134 $12 $-1 $135 reversed single #
loop $-1 $-1 $136 $49 #
plane-surface $-1 -61.769463179418317 0 0 1 0 0 0 0 -1 forward_v I I I I #
coedge $-1 $137 $91 $138 $139 forward $50 $-1 #
coedge $-1 $140 $52 $137 $141 forward $33 $-1 #
coedge $-1 $52 $140 $142 $143 forward $33 $-1 #
coedge $-1 $94 $93 $52 $87 reversed $95 $-1 #
edge $-1 $144 -34.647038014266883 $145 34.647038014266883 $86 $146 forward 7 unknown #
coedge $-1 $54 $53 $147 $148 forward $21 $-1 #
coedge $-1 $149 $150 $53 $90 reversed $134 $-1 #
edge $-1 $97 -61.769463179418317 $151 61.769463179418317 $89 $152 forward 7 unknown #
coedge $-1 $83 $153 $54 $92 reversed $50 $-1 #
edge $-1 $154 -61.769463179418317 $96 61.769463179418317 $91 $155 forward 7 unknown #
coedge $-1 $86 $55 $153 $156 forward $95 $-1 #
coedge $-1 $55 $86 $149 $157 reversed $95 $-1 #
loop $-1 $-1 $93 $133 #
vertex $-1 $56 $158 #
vertex $-1 $56 $159 #
straight-curve $-1 61.769463179418317 0 14.800091283477084 0 1 0 I I #
face $-1 $160 $161 $13 $-1 $162 reversed single #
loop $-1 $-1 $163 $57 #
plane-surface $-1 0 0 14.800091283477084 0 0 1 1 0 0 forward_v I I I I #
coedge $-1 $164 $165 $166 $167 reversed $58 $-1 #
coedge $-1 $63 $60 $168 $169 reversed $37 $-1 #
coedge $-1 $60 $63 $170 $171 reversed $37 $-1 #
coedge $-1 $165 $164 $60 $106 reversed $58 $-1 #
edge $-1 $172 -14.800091283477084 $173 14.800091283477084 $105 $174 forward 7 unknown #
coedge $-1 $62 $61 $175 $176 reversed $24 $-1 #
coedge $-1 $168 $177 $61 $109 forward $161 $-1 #
edge $-1 $178 -20.871733280367081 $113 -6.6788761874325164 $108 $179 forward 7 unknown #
coedge $-1 $180 $170 $62 $111 forward $100 $-1 #
edge $-1 $112 6.6788761874325164 $181 20.871733280367081 $110 $182 forward 7 unknown #
vertex $-1 $111 $183 #
vertex $-1 $109 $184 #
straight-curve $-1 -40.050518089351925 -20.454180921332316 0 0 0 -1 I I #
face $-1 $-1 $185 $14 $-1 $186 forward single #
loop $-1 $-1 $187 $65 #
plane-surface $-1 -61.769463179418317 0 0 1 0 0 0 0 -1 forward_v I I I I #
coedge $-1 $188 $68 $70 $124 forward $41 $-1 #
coedge $-1 $68 $188 $187 $189 reversed $41 $-1 #
coedge $-1 $190 $71 $68 $121 forward $66 $-1 #
edge $-1 $127 10.765026031044258 $191 37.591300109264125 $120 $192 forward 7 unknown #
coedge $-1 $193 $194 $69 $123 forward $185 $-1 #
edge $-1 $195 -15.293958867161251 $126 -7.723949122015803 $122 $196 forward 7 unknown #
edge $-1 $127 -69.294076028533766 $195 -57.517231317508873 $70 $197 forward 7 unknown #
coedge $-1 $71 $190 $193 $198 reversed $66 $-1 #
vertex $-1 $198 $199 #
vertex $-1 $72 $200 #
straight-curve $-1 -34.943189101198449 34.647038014266883 69.135068575940522 0 0 -1 I I #
coedge $-1 $129 $129 $-1 $201 reversed $75 $-1 #
edge $-1 $202 0 $202 6.2831853071796004 $76 $203 forward 7 unknown #
vertex $-1 $79 $204 #
ellipse-curve $-1 -48.356326140308383 30.862033141694162 10.289298010503975 0 0.7660444514056185 0.64278759981090561 2.5 0 0 1 I I #
face $-1 $-1 $95 $12 $-1 $205 reversed single #
loop $-1 $-1 $149 $80 #
plane-surface $-1 0 34.647038014266883 0 0 -1 0 0 0 -1 forward_v I I I I #
coedge $-1 $206 $147 $150 $207 forward $81 $-1 #
coedge $-1 $153 $83 $84 $141 reversed $50 $-1 #
coedge $-1 $147 $206 $83 $139 reversed $81 $-1 #
edge $-1 $154 -14.800091283477084 $208 14.800091283477084 $138 $209 forward 7 unknown #
coedge $-1 $85 $84 $206 $210 forward $33 $-1 #
edge $-1 $145 -61.769463179418317 $208 61.769463179418317 $137 $211 forward 7 unknown #
coedge $-1 $150 $149 $85 $143 reversed $134 $-1 #
edge $-1 $212 -61.769463179418317 $144 61.769463179418317 $142 $213 forward 7 unknown #
vertex $-1 $87 $214 #
vertex $-1 $156 $215 #
straight-curve $-1 61.769463179418317 0 -14.800091283477084 0 -1 0 I I #
coedge $-1 $136 $138 $88 $148 reversed $81 $-1 #
edge $-1 $151 -34.647038014266883 $154 34.647038014266883 $147 $216 forward 7 unknown #
coedge $-1 $142 $89 $94 $157 forward $134 $-1 #
coedge $-1 $89 $142 $136 $207 reversed $134 $-1 #
vertex $-1 $90 $217 #
straight-curve $-1 0 34.647038014266883 14.800091283477084 -1 0 0 I I #
coedge $-1 $91 $137 $93 $156 reversed $50 $-1 #
vertex $-1 $148 $218 #
straight-curve $-1 0 -34.647038014266883 14.800091283477084 1 0 0 I I #
edge $-1 $96 -14.800091283477084 $145 14.800091283477084 $93 $219 forward 7 unknown #
edge $-1 $97 -14.800091283477084 $144 14.800091283477084 $94 $220 forward 7 unknown #
point $-1 61.769463179418317 -34.647038014266883 14.800091283477084 #
point $-1 61.769463179418317 34.647038014266883 14.800091283477084 #
face $-1 $-1 $221 $13 $-1 $222 reversed single #
loop $-1 $-1 $223 $99 #
plane-surface $-1 0 0 -14.800091283477084 0 0 1 1 0 0 forward_v I I I I #
coedge $-1 $170 $180 $165 $224 forward $100 $-1 #
coedge $-1 $105 $102 $223 $225 reversed $58 $-1 #
coedge $-1 $102 $105 $163 $224 reversed $58 $-1 #
coedge $-1 $226 $227 $102 $167 forward $221 $-1 #
edge $-1 $228 -14.800091283477084 $229 14.800091283477084 $166 $230 forward 7 unknown #
coedge $-1 $223 $108 $103 $169 forward $161 $-1 #
edge $-1 $113 -21.516627842684592 $173 -15.551152650650074 $168 $231 forward 7 unknown #
coedge $-1 $110 $163 $104 $171 forward $100 $-1 #
edge $-1 $172 15.551152650650074 $112 21.516627842684592 $170 $232 forward 7 unknown #
vertex $-1 $171 $233 #
vertex $-1 $169 $234 #
straight-curve $-1 -34.085042897317408 -20.454180921332316 0 0 0 -1 I I #
coedge $-1 $227 $226 $107 $176 forward $221 $-1 #
edge $-1 $181 -14.800091283477084 $178 14.800091283477084 $175 $235 forward 7 unknown #
coedge $-1 $108 $223 $227 $236 forward $161 $-1 #
vertex $-1 $109 $237 #
straight-curve $-1 -40.050518089351925 -13.7753047338998 -14.800091283477084 0 1 0 I I #
coedge $-1 $163 $110 $226 $238 forward $100 $-1 #
vertex $-1 $238 $239 #
straight-curve $-1 -40.050518089351925 -13.7753047338998 14.800091283477084 0 -1 0 I I #
point $-1 -40.050518089351925 -20.454180921332316 14.800091283477084 #
point $-1 -40.050518089351925 -20.454180921332316 -14.800091283477084 #
loop $-1 $-1 $122 $115 #
plane-surface $-1 0 0 14.800091283477084 0 0 1 1 0 0 forward_v I I I I #
coedge $-1 $240 $241 $119 $189 forward $116 $-1 #
coedge $-1 $119 $118 $194 $242 reversed $41 $-1 #
edge $-1 $191 -43.569085471337488 $243 -31.792240760312595 $187 $244 forward 7 unknown #
coedge $-1 $125 $120 $241 $245 reversed $66 $-1 #
vertex $-1 $189 $246 #
straight-curve $-1 -24.178163070154191 34.647038014266883 5.7785047375308629 -1 0 0 I I #
coedge $-1 $247 $122 $125 $198 forward $185 $-1 #
coedge $-1 $122 $247 $188 $242 forward $185 $-1 #
vertex $-1 $123 $248 #
straight-curve $-1 -34.943189101198449 42.370987136282686 14.800091283477087 0 1 0 I I #
straight-curve $-1 -34.943189101198449 -9.894334797228737 58.860847194468221 0 -0.64278759981090561 0.7660444514056185 I I #
edge $-1 $126 34.943189101198449 $249 61.769463179418317 $125 $250 forward 7 unknown #
point $-1 -34.943189101198449 34.647038014266883 14.800091283477084 #
point $-1 -34.943189101198449 34.647038014266883 5.7785047375308665 #
edge $-1 $251 1 $251 0 $129 $-1 forward 7 unknown #
vertex $-1 $130 $252 #
ellipse-curve $-1 -48.356326140308383 24.835397535578327 5.232350428569271 0 0.7660444514056185 0.64278759981090561 2.5 0 0 1 I I #
point $-1 -45.856326140308383 30.862033141694155 10.28929801050397 #
plane-surface $-1 61.769463179418317 0 0 -1 0 0 0 0 1 forward_v I I I I #
coedge $-1 $138 $136 $140 $210 reversed $81 $-1 #
edge $-1 $151 -14.800091283477084 $212 14.800091283477084 $150 $253 forward 7 unknown #
vertex $-1 $210 $254 #
straight-curve $-1 -61.769463179418317 -34.647038014266883 0 0 0 -1 I I #
edge $-1 $208 -34.647038014266883 $212 34.647038014266883 $206 $255 forward 7 unknown #
straight-curve $-1 0 -34.647038014266883 -14.800091283477084 -1 0 0 I I #
vertex $-1 $143 $256 #
straight-curve $-1 0 34.647038014266883 -14.800091283477084 1 0 0 I I #
point $-1 61.769463179418317 34.647038014266883 -14.800091283477084 #
point $-1 61.769463179418317 -34.647038014266883 -14.800091283477084 #
straight-curve $-1 -61.769463179418317 0 14.800091283477084 0 -1 0 I I #
point $-1 -61.769463179418317 34.647038014266883 14.800091283477084 #
point $-1 -61.769463179418317 -34.647038014266883 14.800091283477084 #
straight-curve $-1 61.769463179418317 -34.647038014266883 0 0 0 -1 I I #
straight-curve $-1 61.769463179418317 34.647038014266883 0 0 0 -1 I I #
loop $-1 $-1 $166 $160 #
plane-surface $-1 0 -34.647038014266883 0 0 1 0 0 0 1 forward_v I I I I #
coedge $-1 $177 $168 $164 $225 forward $161 $-1 #
edge $-1 $229 -20.871733280367081 $172 -6.6788761874325164 $163 $257 forward 7 unknown #
edge $-1 $173 6.6788761874325164 $228 20.871733280367081 $223 $258 forward 7 unknown #
coedge $-1 $175 $166 $180 $238 reversed $221 $-1 #
coedge $-1 $166 $175 $177 $236 reversed $221 $-1 #
vertex $-1 $236 $259 #
vertex $-1 $167 $260 #
straight-curve $-1 -34.085042897317408 -34.647038014266883 0 0 0 1 I I #
straight-curve $-1 -18.533890246667333 -20.454180921332316 -14.800091283477084 1 0 0 I I #
straight-curve $-1 -18.533890246667333 -20.454180921332316 14.800091283477084 -1 0 0 I I #
point $-1 -34.085042897317408 -20.454180921332316 14.800091283477084 #
point $-1 -34.085042897317408 -20.454180921332316 -14.800091283477084 #
straight-curve $-1 -40.050518089351925 -34.647038014266883 0 0 0 -1 I I #
edge $-1 $228 34.085042897317408 $178 40.050518089351925 $227 $261 forward 7 unknown #
point $-1 -40.050518089351925 -34.647038014266883 -14.800091283477084 #
edge $-1 $181 -40.050518089351925 $229 -34.085042897317408 $226 $262 forward 7 unknown #
point $-1 -40.050518089351925 -34.647038014266883 14.800091283477084 #
coedge $-1 $241 $187 $247 $263 reversed $116 $-1 #
coedge $-1 $187 $240 $190 $245 forward $116 $-1 #
edge $-1 $243 -37.591300109264125 $195 -10.765026031044258 $194 $264 forward 7 unknown #
vertex $-1 $189 $265 #
straight-curve $-1 -61.769463179418317 6.6413701381896626 39.154360915666089 0 -0.64278759981090572 0.76604445140561861 I I #
edge $-1 $249 -14.800091283477084 $191 -5.778504737530862 $190 $266 forward 7 unknown #
point $-1 -61.769463179418317 34.647038014266883 5.778504737530862 #
coedge $-1 $194 $193 $240 $263 forward $185 $-1 #
point $-1 -34.943189101198449 27.077028269121435 14.800091283477087 #
vertex $-1 $198 $267 #
straight-curve $-1 0 34.647038014266883 14.800091283477084 -1 0 0 I I #
vertex $-1 $201 $268 #
point $-1 -45.856326140308383 24.835397535578327 5.232350428569271 #
straight-curve $-1 -61.769463179418317 34.647038014266883 0 0 0 -1 I I #
point $-1 -61.769463179418317 -34.647038014266883 -14.800091283477084 #
straight-curve $-1 -61.769463179418317 0 -14.800091283477084 0 1 0 I I #
point $-1 -61.769463179418317 34.647038014266883 -14.800091283477084 #
straight-curve $-1 -34.085042897317408 -13.7753047338998 14.800091283477084 0 1 0 I I #
straight-curve $-1 -34.085042897317408 -13.7753047338998 -14.800091283477084 0 -1 0 I I #
point $-1 -34.085042897317408 -34.647038014266883 -14.800091283477084 #
point $-1 -34.085042897317408 -34.647038014266883 14.800091283477084 #
straight-curve $-1 0 -34.647038014266883 -14.800091283477084 -1 0 0 I I #
straight-curve $-1 0 -34.647038014266883 14.800091283477084 1 0 0 I I #
edge $-1 $249 -34.647038014266883 $243 -27.077028269121435 $240 $269 forward 7 unknown #
straight-curve $-1 -24.178163070154191 27.077028269121438 14.800091283477084 1 0 0 I I #
point $-1 -61.769463179418317 27.077028269121435 14.800091283477087 #
straight-curve $-1 -61.769463179418317 34.647038014266883 0 0 0 -1 I I #
point $-1 -61.769463179418317 34.647038014266883 14.800091283477084 #
point $-1 -48.356326140308383 22.920286407064278 3.6253814290420068 #
straight-curve $-1 -61.769463179418317 0 14.800091283477084 0 -1 0 I I #
End-of-ACIS-data 