500 0 6 0           
7 Unknown 11 ACIS 5.0 NT 24 Thu Mar 25 16:52:41 1999 
-1 9.9999999999999995e-007 1e-010 
body $-1 $6 $-1 $7 #
body $-1 $8 $-1 $9 #
body $-1 $10 $-1 $11 #
body $-1 $12 $-1 $13 #
body $-1 $14 $-1 $15 #
body $-1 $16 $-1 $17 #
lump $-1 $-1 $18 $0 #
transform $-1 1 0 0 0 1 0 0 0 1 49.046906949064606 25.842617239729318 11.747992122548904 1 rotate no_reflect no_shear #
lump $-1 $-1 $19 $1 #
transform $-1 1 0 0 0 1 0 0 0 1 49.046906949064606 25.842617239729318 11.747992122548904 1 rotate no_reflect no_shear #
lump $-1 $-1 $20 $2 #
transform $-1 1 0 0 0 1 0 0 0 1 49.046906949064606 25.842617239729318 11.747992122548904 1 rotate no_reflect no_shear #
lump $-1 $-1 $21 $3 #
transform $-1 1 0 0 0 1 0 0 0 1 49.046906949064606 25.842617239729318 11.747992122548904 1 rotate no_reflect no_shear #
lump $-1 $-1 $22 $4 #
transform $-1 1 0 0 0 1 0 0 0 1 49.046906949064606 25.842617239729318 11.747992122548904 1 rotate no_reflect no_shear #
lump $-1 $-1 $23 $5 #
transform $-1 1 0 0 0 1 0 0 0 1 49.046906949064606 25.842617239729318 11.747992122548904 1 rotate no_reflect no_shear #
shell $-1 $-1 $-1 $24 $-1 $6 #
shell $-1 $-1 $-1 $25 $-1 $8 #
shell $-1 $-1 $-1 $26 $-1 $10 #
shell $-1 $-1 $-1 $27 $-1 $12 #
shell $-1 $-1 $-1 $28 $-1 $14 #
shell $-1 $-1 $-1 $29 $-1 $16 #
face $-1 $30 $31 $18 $-1 $32 forward single #
face $-1 $33 $34 $19 $-1 $35 forward single #
face $-1 $36 $37 $20 $-1 $38 reversed single #
face $-1 $39 $40 $21 $-1 $41 forward single #
face $-1 $42 $43 $22 $-1 $44 reversed single #
face $-1 $45 $46 $23 $-1 $47 forward single #
face $-1 $48 $49 $18 $-1 $50 reversed single #
loop $-1 $-1 $51 $24 #
plane-surface $-1 0 0 11.747992122548904 0 0 1 1 0 0 forward_v I I I I #
face $-1 $52 $53 $19 $-1 $54 reversed single #
loop $-1 $-1 $55 $25 #
plane-surface $-1 0 -18.318474118795031 -7.9424701648732379 0 0 1 1 0 0 forward_v I I I I #
face $-1 $56 $57 $20 $-1 $58 reversed single #
loop $-1 $-1 $59 $26 #
plane-surface $-1 -10.681888548253113 56.805061111232547 108.54023199899926 1 0 0 0 -0.69465837861970381 -0.71933979245794832 forward_v I I I I #
face $-1 $60 $61 $21 $-1 $62 forward single #
loop $-1 $63 $64 $27 #
cone-surface $-1 -5.3409442741265565 19.999883012385528 6.0474946379450172 0 -0.69465837861970381 -0.71933979245794832 1.5 0 0 1 I I 0 1 1.5 forward I I I I #
face $-1 $65 $66 $22 $-1 $67 reversed single #
loop $-1 $-1 $68 $28 #
plane-surface $-1 -5.3409442741265565 -11.336628603864852 37.977448268110379 0 0.69465837861970381 0.71933979245794832 1 0 0 forward_v I I I I #
face $-1 $69 $70 $23 $-1 $71 forward single #
loop $-1 $72 $73 $29 #
cone-surface $-1 5.3409442741265565 19.999883012385528 6.0474946379450172 0 -0.69465837861970381 -0.71933979245794832 1.5 0 0 1 I I 0 1 1.5 forward I I I I #
face $-1 $74 $75 $18 $-1 $76 reversed single #
loop $-1 $-1 $77 $30 #
plane-surface $-1 0 0 -11.747992122548904 0 0 1 1 0 0 forward_v I I I I #
coedge $-1 $78 $79 $80 $81 forward $31 $-1 #
face $-1 $82 $83 $19 $-1 $84 reversed single #
loop $-1 $-1 $85 $33 #
plane-surface $-1 0 -10.794330997860744 -9.8452311437110716 0 -1 0 0 0 -1 forward_v I I I I #
coedge $-1 $86 $87 $88 $89 reversed $34 $-1 #
face $-1 $90 $91 $20 $-1 $92 reversed single #
loop $-1 $-1 $93 $36 #
plane-surface $-1 -5.3409442741265565 -11.336628603864852 37.977448268110379 0 0.69465837861970381 0.71933979245794832 1 0 0 forward_v I I I I #
coedge $-1 $94 $95 $96 $97 reversed $37 $-1 #
face $-1 $-1 $98 $21 $-1 $99 forward single #
loop $-1 $100 $101 $39 #
cone-surface $-1 -5.3409442741265565 18.645079754715592 4.6445548272568971 0 -0.69465837861970381 -0.71933979245794832 0.75 0 0 1 I I -0.70710678118654757 0.70710678118654757 0.75 forward I I I I #
loop $-1 $-1 $102 $27 #
coedge $-1 $64 $64 $103 $104 reversed $40 $-1 #
face $-1 $105 $106 $22 $-1 $107 forward single #
loop $-1 $-1 $108 $42 #
plane-surface $-1 10.681888548253113 56.805061111232547 108.54023199899926 -1 0 0 0 0.69465837861970381 0.71933979245794832 forward_v I I I I #
coedge $-1 $109 $110 $111 $112 reversed $43 $-1 #
face $-1 $-1 $113 $23 $-1 $114 forward single #
loop $-1 $115 $116 $45 #
cone-surface $-1 5.3409442741265565 18.645079754715592 4.6445548272568971 0 -0.69465837861970381 -0.71933979245794832 0.75 0 0 1 I I -0.70710678118654757 0.70710678118654757 0.75 forward I I I I #
loop $-1 $-1 $117 $29 #
coedge $-1 $73 $73 $118 $119 reversed $46 $-1 #
face $-1 $120 $121 $18 $-1 $122 reversed single #
loop $-1 $-1 $123 $48 #
plane-surface $-1 0 -25.842617239729318 0 0 1 0 0 0 1 forward_v I I I I #
coedge $-1 $124 $125 $126 $127 forward $49 $-1 #
coedge $-1 $128 $51 $129 $130 forward $31 $-1 #
coedge $-1 $51 $128 $131 $132 forward $31 $-1 #
coedge $-1 $133 $134 $51 $81 reversed $135 $-1 #
edge $-1 $136 -25.842617239729318 $137 25.842617239729318 $80 $138 forward 7 unknown #
face $-1 $139 $140 $19 $-1 $141 reversed single #
loop $-1 $-1 $142 $52 #
plane-surface $-1 0 0 -11.747992122548904 0 0 1 1 0 0 forward_v I I I I #
coedge $-1 $143 $144 $145 $146 reversed $53 $-1 #
coedge $-1 $147 $55 $144 $148 forward $34 $-1 #
coedge $-1 $55 $147 $149 $150 reversed $34 $-1 #
coedge $-1 $151 $145 $55 $89 forward $140 $-1 #
edge $-1 $152 1.6350939384632284 $153 16.683380180331802 $88 $154 forward 7 unknown #
face $-1 $155 $156 $20 $-1 $157 reversed single #
loop $-1 $-1 $158 $56 #
plane-surface $-1 0 56.805061111232547 108.54023199899926 -1 0 0 0 0.69465837861970381 0.71933979245794832 forward_v I I I I #
coedge $-1 $159 $160 $161 $162 reversed $57 $-1 #
coedge $-1 $95 $59 $163 $164 reversed $37 $-1 #
coedge $-1 $59 $94 $159 $165 reversed $37 $-1 #
coedge $-1 $161 $166 $59 $97 forward $167 $-1 #
edge $-1 $168 2.5599133158869556 $169 12.577762823164246 $96 $170 forward 7 unknown #
loop $-1 $-1 $103 $60 #
plane-surface $-1 -5.3409442741265565 -11.336628603864852 37.977448268110379 0 0.69465837861970381 0.71933979245794832 1 0 0 forward_v I I I I #
loop $-1 $-1 $171 $39 #
coedge $-1 $101 $101 $102 $172 reversed $61 $-1 #
coedge $-1 $102 $102 $101 $172 forward $63 $-1 #
coedge $-1 $103 $103 $64 $104 forward $98 $-1 #
edge $-1 $173 -2.3594839419206514e-016 $173 6.2831853071796004 $103 $174 forward 7 unknown #
face $-1 $175 $176 $22 $-1 $177 forward single #
loop $-1 $-1 $178 $65 #
plane-surface $-1 0 0 11.747992122548904 0 0 1 1 0 0 forward_v I I I I #
coedge $-1 $179 $180 $181 $182 reversed $66 $-1 #
coedge $-1 $183 $68 $184 $185 reversed $43 $-1 #
coedge $-1 $68 $183 $178 $186 reversed $43 $-1 #
coedge $-1 $187 $188 $68 $112 forward $176 $-1 #
edge $-1 $189 -51.685234479458643 $190 -37.758784681586619 $111 $191 forward 7 unknown #
loop $-1 $-1 $118 $69 #
plane-surface $-1 -5.3409442741265565 -11.336628603864852 37.977448268110379 0 0.69465837861970381 0.71933979245794832 1 0 0 forward_v I I I I #
loop $-1 $-1 $192 $45 #
coedge $-1 $116 $116 $117 $193 reversed $70 $-1 #
coedge $-1 $117 $117 $116 $193 forward $72 $-1 #
coedge $-1 $118 $118 $73 $119 forward $113 $-1 #
edge $-1 $194 -2.3594839419206514e-016 $194 6.2831853071796004 $118 $195 forward 7 unknown #
face $-1 $196 $197 $18 $-1 $198 reversed single #
loop $-1 $-1 $199 $74 #
plane-surface $-1 -49.046906949064606 0 0 1 0 0 0 0 -1 forward_v I I I I #
coedge $-1 $200 $131 $201 $202 forward $75 $-1 #
coedge $-1 $203 $77 $200 $204 forward $49 $-1 #
coedge $-1 $77 $203 $205 $206 forward $49 $-1 #
coedge $-1 $134 $133 $77 $127 reversed $135 $-1 #
edge $-1 $207 -25.842617239729318 $208 25.842617239729318 $126 $209 forward 7 unknown #
coedge $-1 $79 $78 $210 $211 forward $31 $-1 #
coedge $-1 $212 $213 $78 $130 reversed $197 $-1 #
edge $-1 $137 -49.046906949064606 $214 49.046906949064606 $129 $215 forward 7 unknown #
coedge $-1 $123 $216 $79 $132 reversed $75 $-1 #
edge $-1 $217 -49.046906949064606 $136 49.046906949064606 $131 $218 forward 7 unknown #
coedge $-1 $126 $80 $216 $219 forward $135 $-1 #
coedge $-1 $80 $126 $212 $220 reversed $135 $-1 #
loop $-1 $-1 $133 $196 #
vertex $-1 $81 $221 #
vertex $-1 $81 $222 #
straight-curve $-1 49.046906949064606 0 11.747992122548904 0 1 0 I I #
face $-1 $223 $224 $19 $-1 $225 reversed single #
loop $-1 $-1 $145 $82 #
plane-surface $-1 49.046906949064606 0 0 -1 0 0 0 0 1 forward_v I I I I #
coedge $-1 $226 $227 $143 $228 forward $83 $-1 #
coedge $-1 $229 $85 $142 $228 reversed $53 $-1 #
coedge $-1 $85 $229 $86 $148 reversed $53 $-1 #
coedge $-1 $88 $230 $85 $146 forward $140 $-1 #
edge $-1 $231 -6.8253765506933686 $152 -3.0198545930177021 $145 $232 forward 7 unknown #
coedge $-1 $87 $86 $233 $234 reversed $34 $-1 #
edge $-1 $152 -49.046906949064606 $235 49.046906949064606 $144 $236 forward 7 unknown #
coedge $-1 $237 $238 $87 $150 forward $224 $-1 #
edge $-1 $153 -49.046906949064606 $239 49.046906949064606 $149 $240 forward 7 unknown #
coedge $-1 $230 $88 $238 $241 forward $140 $-1 #
vertex $-1 $89 $242 #
vertex $-1 $241 $243 #
straight-curve $-1 49.046906949064606 -9.1592370593975154 -7.9424701648732379 0 -1 0 I I #
face $-1 $-1 $167 $20 $-1 $244 forward single #
loop $-1 $-1 $245 $90 #
plane-surface $-1 0 25.842617239729318 0 0 -1 0 0 0 -1 forward_v I I I I #
coedge $-1 $246 $247 $248 $249 reversed $91 $-1 #
coedge $-1 $250 $93 $95 $165 forward $57 $-1 #
coedge $-1 $93 $250 $246 $251 forward $57 $-1 #
coedge $-1 $248 $96 $93 $162 forward $167 $-1 #
edge $-1 $169 -8.0114164111898347 $252 2.6704721370632782 $161 $253 forward 7 unknown #
coedge $-1 $254 $255 $94 $164 forward $156 $-1 #
edge $-1 $256 -52.196248913469205 $168 -42.522123876950729 $163 $257 forward 7 unknown #
edge $-1 $169 37.758784681586619 $256 51.685234479458643 $95 $258 forward 7 unknown #
coedge $-1 $96 $248 $254 $259 forward $167 $-1 #
loop $-1 $-1 $248 $155 #
vertex $-1 $164 $260 #
vertex $-1 $97 $261 #
straight-curve $-1 -10.681888548253113 28.402530555616273 11.747992122548901 0 -1 0 I I #
coedge $-1 $171 $171 $-1 $262 reversed $100 $-1 #
edge $-1 $263 0 $263 6.2831853071796004 $101 $264 forward 7 unknown #
vertex $-1 $104 $265 #
ellipse-curve $-1 -5.3409442741265565 20.833692486090676 6.9109296042896649 0 0.69465837861970381 0.71933979245794832 1.5 0 0 1 I I #
face $-1 $-1 $266 $22 $-1 $267 reversed single #
loop $-1 $-1 $187 $105 #
plane-surface $-1 0 56.805061111232547 108.54023199899926 -1 0 0 0 0.69465837861970381 0.71933979245794832 forward_v I I I I #
coedge $-1 $181 $268 $110 $186 forward $106 $-1 #
coedge $-1 $180 $108 $183 $269 reversed $66 $-1 #
coedge $-1 $108 $179 $270 $271 reversed $66 $-1 #
coedge $-1 $272 $178 $108 $182 forward $106 $-1 #
edge $-1 $273 -12.577762823164246 $274 -2.5599133158869556 $181 $275 forward 7 unknown #
coedge $-1 $110 $109 $179 $269 forward $43 $-1 #
coedge $-1 $276 $270 $109 $185 forward $266 $-1 #
edge $-1 $277 -13.352360685316391 $189 -2.6704721370632782 $184 $278 forward 7 unknown #
edge $-1 $190 2.6704721370632782 $273 13.352360685316391 $178 $279 forward 7 unknown #
coedge $-1 $188 $111 $268 $280 reversed $176 $-1 #
coedge $-1 $111 $187 $276 $281 reversed $176 $-1 #
vertex $-1 $185 $282 #
vertex $-1 $186 $283 #
straight-curve $-1 0 -11.336628603864852 37.977448268110379 0 -0.71933979245794832 0.69465837861970381 I I #
coedge $-1 $192 $192 $-1 $284 reversed $115 $-1 #
edge $-1 $285 0 $285 6.2831853071796004 $116 $286 forward 7 unknown #
vertex $-1 $119 $287 #
ellipse-curve $-1 5.3409442741265565 20.833692486090676 6.9109296042896649 0 0.69465837861970381 0.71933979245794832 1.5 0 0 1 I I #
face $-1 $-1 $135 $18 $-1 $288 reversed single #
loop $-1 $-1 $212 $120 #
plane-surface $-1 0 25.842617239729318 0 0 -1 0 0 0 -1 forward_v I I I I #
coedge $-1 $289 $210 $213 $290 forward $121 $-1 #
coedge $-1 $216 $123 $124 $204 reversed $75 $-1 #
coedge $-1 $210 $289 $123 $202 reversed $121 $-1 #
edge $-1 $217 -11.747992122548904 $291 11.747992122548904 $201 $292 forward 7 unknown #
coedge $-1 $125 $124 $289 $293 forward $49 $-1 #
edge $-1 $208 -49.046906949064606 $291 49.046906949064606 $200 $294 forward 7 unknown #
coedge $-1 $213 $212 $125 $206 reversed $197 $-1 #
edge $-1 $295 -49.046906949064606 $207 49.046906949064606 $205 $296 forward 7 unknown #
vertex $-1 $127 $297 #
vertex $-1 $219 $298 #
straight-curve $-1 49.046906949064606 0 -11.747992122548904 0 -1 0 I I #
coedge $-1 $199 $201 $128 $211 reversed $121 $-1 #
edge $-1 $214 -25.842617239729318 $217 25.842617239729318 $210 $299 forward 7 unknown #
coedge $-1 $205 $129 $134 $220 forward $197 $-1 #
coedge $-1 $129 $205 $199 $290 reversed $197 $-1 #
vertex $-1 $130 $300 #
straight-curve $-1 0 25.842617239729318 11.747992122548904 -1 0 0 I I #
coedge $-1 $131 $200 $133 $219 reversed $75 $-1 #
vertex $-1 $211 $301 #
straight-curve $-1 0 -25.842617239729318 11.747992122548904 1 0 0 I I #
edge $-1 $136 -11.747992122548904 $208 11.747992122548904 $133 $302 forward 7 unknown #
edge $-1 $137 -11.747992122548904 $207 11.747992122548904 $134 $303 forward 7 unknown #
point $-1 49.046906949064606 -25.842617239729318 11.747992122548904 #
point $-1 49.046906949064606 25.842617239729318 11.747992122548904 #
face $-1 $-1 $304 $19 $-1 $305 reversed single #
loop $-1 $-1 $149 $139 #
plane-surface $-1 0 -25.842617239729318 0 0 1 0 0 0 1 forward_v I I I I #
coedge $-1 $306 $142 $230 $307 forward $83 $-1 #
coedge $-1 $142 $306 $308 $309 forward $83 $-1 #
edge $-1 $310 -49.046906949064606 $231 49.046906949064606 $142 $311 forward 7 unknown #
coedge $-1 $144 $143 $312 $313 reversed $53 $-1 #
coedge $-1 $145 $151 $226 $307 reversed $140 $-1 #
vertex $-1 $307 $314 #
straight-curve $-1 49.046906949064606 -10.794330997860744 -4.9226155718555358 0 0 1 I I #
coedge $-1 $312 $315 $147 $234 forward $304 $-1 #
edge $-1 $239 -16.683380180331802 $235 -1.6350939384632284 $233 $316 forward 7 unknown #
vertex $-1 $234 $317 #
straight-curve $-1 0 -10.794330997860744 -7.9424701648732379 -1 0 0 I I #
coedge $-1 $318 $149 $315 $319 forward $224 $-1 #
coedge $-1 $149 $318 $151 $241 reversed $224 $-1 #
vertex $-1 $319 $320 #
straight-curve $-1 0 -25.842617239729318 -7.9424701648732379 -1 0 0 I I #
edge $-1 $153 7.9424701648732379 $321 11.747992122548904 $151 $322 forward 7 unknown #
point $-1 49.046906949064606 -10.794330997860744 -7.9424701648732379 #
point $-1 49.046906949064606 -25.842617239729318 -7.9424701648732379 #
plane-surface $-1 0 0 11.747992122548904 0 0 1 1 0 0 forward_v I I I I #
coedge $-1 $255 $254 $247 $323 forward $156 $-1 #
coedge $-1 $247 $158 $160 $251 reversed $91 $-1 #
coedge $-1 $158 $246 $245 $323 reversed $91 $-1 #
coedge $-1 $166 $161 $158 $249 forward $167 $-1 #
edge $-1 $252 -12.577762823164246 $324 -2.5599133158869556 $248 $325 forward 7 unknown #
coedge $-1 $160 $159 $255 $326 reversed $57 $-1 #
edge $-1 $327 -51.685234479458643 $252 -37.758784681586619 $246 $328 forward 7 unknown #
vertex $-1 $162 $329 #
straight-curve $-1 -2.6704721370632782 15.824767732452031 11.747992122548904 1 0 0 I I #
coedge $-1 $245 $163 $166 $259 reversed $156 $-1 #
coedge $-1 $163 $245 $250 $326 forward $156 $-1 #
vertex $-1 $164 $330 #
straight-curve $-1 -10.681888548253113 25.842617239729318 54.27011599949963 0 0 1 I I #
straight-curve $-1 -10.681888548253113 -11.336628603864852 37.977448268110379 0 0.71933979245794832 -0.69465837861970381 I I #
edge $-1 $324 0 $168 10.681888548253113 $254 $331 forward 7 unknown #
point $-1 -10.681888548253113 25.842617239729318 11.747992122548904 #
point $-1 -10.681888548253113 15.824767732452028 11.747992122548904 #
edge $-1 $332 1 $332 0 $171 $-1 forward 7 unknown #
vertex $-1 $172 $333 #
ellipse-curve $-1 -5.3409442741265565 19.166073538680369 5.184059671600358 0 0.69465837861970381 0.71933979245794832 1.5 0 0 1 I I #
point $-1 -3.8409442741265565 20.833692486090687 6.9109296042896764 #
loop $-1 $-1 $184 $175 #
plane-surface $-1 0 25.842617239729318 0 0 -1 0 0 0 -1 forward_v I I I I #
coedge $-1 $178 $272 $187 $280 forward $106 $-1 #
edge $-1 $277 -51.685234479458643 $273 -37.758784681586619 $179 $334 forward 7 unknown #
coedge $-1 $184 $335 $180 $271 forward $266 $-1 #
edge $-1 $274 42.522123876950729 $277 52.196248913469205 $270 $336 forward 7 unknown #
coedge $-1 $268 $181 $335 $337 forward $106 $-1 #
vertex $-1 $182 $338 #
vertex $-1 $337 $339 #
straight-curve $-1 10.681888548253113 28.402530555616273 11.747992122548901 0 1 0 I I #
coedge $-1 $335 $184 $188 $281 forward $266 $-1 #
vertex $-1 $271 $340 #
straight-curve $-1 -2.6704721370632782 25.842617239729314 2.0738670860304289 -1 0 0 I I #
straight-curve $-1 -2.6704721370632782 15.824767732452031 11.747992122548904 1 0 0 I I #
edge $-1 $341 2.5599133158869556 $190 12.577762823164246 $268 $342 forward 7 unknown #
edge $-1 $189 -52.196248913469205 $341 -42.522123876950729 $276 $343 forward 7 unknown #
point $-1 0 25.842617239729321 2.0738670860304254 #
point $-1 0 15.824767732452028 11.747992122548904 #
edge $-1 $344 1 $344 0 $192 $-1 forward 7 unknown #
vertex $-1 $193 $345 #
ellipse-curve $-1 5.3409442741265565 19.166073538680369 5.184059671600358 0 0.69465837861970381 0.71933979245794832 1.5 0 0 1 I I #
point $-1 6.8409442741265565 20.833692486090687 6.9109296042896764 #
plane-surface $-1 49.046906949064606 0 0 -1 0 0 0 0 1 forward_v I I I I #
coedge $-1 $201 $199 $203 $293 reversed $121 $-1 #
edge $-1 $214 -11.747992122548904 $295 11.747992122548904 $213 $346 forward 7 unknown #
vertex $-1 $293 $347 #
straight-curve $-1 -49.046906949064606 -25.842617239729318 0 0 0 -1 I I #
edge $-1 $291 -25.842617239729318 $295 25.842617239729318 $289 $348 forward 7 unknown #
straight-curve $-1 0 -25.842617239729318 -11.747992122548904 -1 0 0 I I #
vertex $-1 $206 $349 #
straight-curve $-1 0 25.842617239729318 -11.747992122548904 1 0 0 I I #
point $-1 49.046906949064606 25.842617239729318 -11.747992122548904 #
point $-1 49.046906949064606 -25.842617239729318 -11.747992122548904 #
straight-curve $-1 -49.046906949064606 0 11.747992122548904 0 -1 0 I I #
point $-1 -49.046906949064606 25.842617239729318 11.747992122548904 #
point $-1 -49.046906949064606 -25.842617239729318 11.747992122548904 #
straight-curve $-1 49.046906949064606 -25.842617239729318 0 0 0 -1 I I #
straight-curve $-1 49.046906949064606 25.842617239729318 0 0 0 -1 I I #
loop $-1 $-1 $312 $223 #
plane-surface $-1 -49.046906949064606 0 0 1 0 0 0 0 -1 forward_v I I I I #
coedge $-1 $227 $226 $318 $350 forward $83 $-1 #
edge $-1 $231 10.794330997860744 $321 25.842617239729318 $230 $351 forward 7 unknown #
coedge $-1 $315 $312 $227 $309 reversed $304 $-1 #
edge $-1 $352 -25.842617239729318 $310 -10.794330997860744 $308 $353 forward 7 unknown #
vertex $-1 $313 $354 #
straight-curve $-1 0 -10.794330997860744 -11.747992122548904 1 0 0 I I #
coedge $-1 $308 $233 $229 $313 forward $304 $-1 #
edge $-1 $235 3.0198545930177021 $310 6.8253765506933686 $312 $355 forward 7 unknown #
point $-1 49.046906949064606 -10.794330997860744 -11.747992122548904 #
coedge $-1 $233 $308 $237 $319 reversed $304 $-1 #
straight-curve $-1 -49.046906949064606 -9.1592370593975154 -7.9424701648732379 0 1 0 I I #
point $-1 -49.046906949064606 -10.794330997860744 -7.9424701648732379 #
coedge $-1 $238 $237 $306 $350 reversed $224 $-1 #
edge $-1 $239 7.9424701648732379 $352 11.747992122548904 $315 $356 forward 7 unknown #
point $-1 -49.046906949064606 -25.842617239729318 -7.9424701648732379 #
vertex $-1 $241 $357 #
straight-curve $-1 49.046906949064606 -25.842617239729318 0 0 0 -1 I I #
edge $-1 $324 42.522123876950729 $327 52.196248913469205 $245 $358 forward 7 unknown #
vertex $-1 $259 $359 #
straight-curve $-1 0 28.402530555616273 11.747992122548901 0 1 0 I I #
edge $-1 $327 -2.6704721370632782 $256 8.0114164111898347 $255 $360 forward 7 unknown #
vertex $-1 $326 $361 #
straight-curve $-1 0 -11.336628603864852 37.977448268110379 0 -0.71933979245794832 0.69465837861970381 I I #
point $-1 0 15.824767732452028 11.747992122548904 #
point $-1 -10.681888548253113 25.842617239729321 2.0738670860304254 #
straight-curve $-1 0 25.842617239729318 11.747992122548904 -1 0 0 I I #
vertex $-1 $262 $362 #
point $-1 -3.8409442741265565 19.166073538680369 5.184059671600358 #
straight-curve $-1 10.681888548253113 -11.336628603864852 37.977448268110379 0 -0.71933979245794832 0.69465837861970381 I I #
coedge $-1 $270 $276 $272 $337 reversed $266 $-1 #
straight-curve $-1 10.681888548253113 25.842617239729318 54.27011599949963 0 0 -1 I I #
edge $-1 $274 -10.681888548253113 $341 0 $335 $363 forward 7 unknown #
point $-1 10.681888548253113 15.824767732452028 11.747992122548904 #
point $-1 10.681888548253113 25.842617239729318 11.747992122548904 #
point $-1 10.681888548253113 25.842617239729321 2.0738670860304254 #
vertex $-1 $281 $364 #
straight-curve $-1 0 28.402530555616273 11.747992122548901 0 -1 0 I I #
straight-curve $-1 0 25.842617239729318 54.27011599949963 0 0 1 I I #
vertex $-1 $284 $365 #
point $-1 6.8409442741265565 19.166073538680369 5.184059671600358 #
straight-curve $-1 -49.046906949064606 25.842617239729318 0 0 0 -1 I I #
point $-1 -49.046906949064606 -25.842617239729318 -11.747992122548904 #
straight-curve $-1 -49.046906949064606 0 -11.747992122548904 0 1 0 I I #
point $-1 -49.046906949064606 25.842617239729318 -11.747992122548904 #
edge $-1 $321 -49.046906949064606 $352 49.046906949064606 $318 $366 forward 7 unknown #
straight-curve $-1 49.046906949064606 0 -11.747992122548904 0 -1 0 I I #
vertex $-1 $309 $367 #
straight-curve $-1 -49.046906949064606 0 -11.747992122548904 0 1 0 I I #
point $-1 -49.046906949064606 -10.794330997860744 -11.747992122548904 #
straight-curve $-1 -49.046906949064606 -10.794330997860744 -4.9226155718555358 0 0 -1 I I #
straight-curve $-1 -49.046906949064606 -25.842617239729318 0 0 0 -1 I I #
point $-1 49.046906949064606 -25.842617239729318 -11.747992122548904 #
straight-curve $-1 0 25.842617239729318 54.27011599949963 0 0 -1 I I #
point $-1 0 25.842617239729318 11.747992122548904 #
straight-curve $-1 -2.6704721370632782 25.842617239729314 2.0738670860304289 -1 0 0 I I #
point $-1 0 25.842617239729321 2.0738670860304254 #
point $-1 -5.3409442741265565 18.124085970750816 4.1050499829134361 #
straight-curve $-1 0 25.842617239729318 11.747992122548904 -1 0 0 I I #
point $-1 0 25.842617239729318 11.747992122548904 #
point $-1 5.3409442741265565 18.124085970750816 4.1050499829134361 #
straight-curve $-1 0 -25.842617239729318 -11.747992122548904 -1 0 0 I I #
point $-1 -49.046906949064606 -25.842617239729318 -11.747992122548904 #
End-of-ACIS-data 