500 0 5 0           
7 Unknown 11 ACIS 5.0 NT 24 Thu Mar 25 17:29:05 1999 
-1 9.9999999999999995e-007 1e-010 
body $-1 $5 $-1 $6 #
body $-1 $7 $-1 $8 #
body $-1 $9 $-1 $10 #
body $-1 $11 $-1 $12 #
body $-1 $13 $-1 $14 #
lump $-1 $-1 $15 $0 #
transform $-1 1 0 0 0 1 0 0 0 1 52.234260078737755 31.004517287984925 13.494492133986199 1 rotate no_reflect no_shear #
lump $-1 $-1 $16 $1 #
transform $-1 1 0 0 0 1 0 0 0 1 52.234260078737755 31.004517287984925 13.494492133986199 1 rotate no_reflect no_shear #
lump $-1 $-1 $17 $2 #
transform $-1 1 0 0 0 1 0 0 0 1 52.234260078737755 31.004517287984925 13.494492133986199 1 rotate no_reflect no_shear #
lump $-1 $-1 $18 $3 #
transform $-1 1 0 0 0 1 0 0 0 1 52.234260078737755 31.004517287984925 13.494492133986199 1 rotate no_reflect no_shear #
lump $-1 $-1 $19 $4 #
transform $-1 1 0 0 0 1 0 0 0 1 52.234260078737755 31.004517287984925 13.494492133986199 1 rotate no_reflect no_shear #
shell $-1 $-1 $-1 $20 $-1 $5 #
shell $-1 $-1 $-1 $21 $-1 $7 #
shell $-1 $-1 $-1 $22 $-1 $9 #
shell $-1 $-1 $-1 $23 $-1 $11 #
shell $-1 $-1 $-1 $24 $-1 $13 #
face $-1 $25 $26 $15 $-1 $27 forward single #
face $-1 $28 $29 $16 $-1 $30 reversed single #
face $-1 $31 $32 $17 $-1 $33 reversed single #
face $-1 $34 $35 $18 $-1 $36 reversed single #
face $-1 $37 $38 $19 $-1 $39 forward single #
face $-1 $40 $41 $15 $-1 $42 reversed single #
loop $-1 $-1 $43 $20 #
plane-surface $-1 0 0 13.494492133986199 0 0 1 1 0 0 forward_v I I I I #
face $-1 $44 $45 $16 $-1 $46 reversed single #
loop $-1 $-1 $47 $21 #
plane-surface $-1 0 -25.913399210519341 9.6139659466117564 0 0 1 1 0 0 forward_v I I I I #
face $-1 $48 $49 $17 $-1 $50 reversed single #
loop $-1 $-1 $51 $22 #
plane-surface $-1 0 25.913399210519344 9.6139659466117564 0 0 1 1 0 0 forward_v I I I I #
face $-1 $52 $53 $18 $-1 $54 reversed single #
loop $-1 $-1 $55 $23 #
plane-surface $-1 59.966417846604777 9.4797991913338819 151.78102390791454 0 -1 0 -0.74314483375859142 0 -0.66913059716165679 forward_v I I I I #
face $-1 $56 $57 $19 $-1 $58 forward single #
loop $-1 $59 $60 $24 #
cone-surface $-1 45.204551093783913 4.4768168026072814 6.2893584881958802 -0.74314483375859142 0 -0.66913059716165679 1.3382611943233136 0 -1.4862896675171828 1 I I 0 1 2 forward I I I I #
face $-1 $61 $62 $15 $-1 $63 reversed single #
loop $-1 $-1 $64 $25 #
plane-surface $-1 0 0 -13.494492133986199 0 0 1 1 0 0 forward_v I I I I #
coedge $-1 $65 $66 $67 $68 forward $26 $-1 #
face $-1 $69 $70 $16 $-1 $71 reversed single #
loop $-1 $-1 $72 $28 #
plane-surface $-1 0 -20.822281133053757 11.554229040298978 0 -1 0 0 0 -1 forward_v I I I I #
coedge $-1 $73 $74 $75 $76 reversed $29 $-1 #
face $-1 $77 $78 $17 $-1 $79 forward single #
loop $-1 $-1 $80 $31 #
plane-surface $-1 0 20.82228113305376 11.554229040298978 0 1 0 0 0 1 forward_v I I I I #
coedge $-1 $81 $82 $83 $84 reversed $32 $-1 #
face $-1 $85 $86 $18 $-1 $87 reversed single #
loop $-1 $-1 $88 $34 #
plane-surface $-1 -17.668823198828413 4.4768168026072814 81.877940630348377 0.74314483375859142 0 0.66913059716165679 0.66913059716165679 0 -0.74314483375859142 forward_v I I I I #
coedge $-1 $89 $90 $91 $92 reversed $35 $-1 #
face $-1 $-1 $93 $19 $-1 $94 forward single #
loop $-1 $95 $96 $37 #
cone-surface $-1 41.596872885500794 4.4768168026072814 3.0409905197794274 -0.74314483375859142 0 -0.66913059716165679 0.66913059716165679 0 -0.74314483375859142 1 I I -0.70710678118654746 0.70710678118654746 1 forward I I I I #
loop $-1 $-1 $97 $24 #
coedge $-1 $60 $60 $98 $99 reversed $38 $-1 #
face $-1 $100 $101 $15 $-1 $102 reversed single #
loop $-1 $-1 $103 $40 #
plane-surface $-1 0 -31.004517287984925 0 0 1 0 0 0 1 forward_v I I I I #
coedge $-1 $104 $105 $106 $107 forward $41 $-1 #
coedge $-1 $108 $43 $109 $110 forward $26 $-1 #
coedge $-1 $43 $108 $111 $112 forward $26 $-1 #
coedge $-1 $113 $114 $43 $68 reversed $115 $-1 #
edge $-1 $116 -31.004517287984925 $117 31.004517287984925 $67 $118 forward 7 unknown #
face $-1 $119 $120 $16 $-1 $121 reversed single #
loop $-1 $-1 $122 $44 #
plane-surface $-1 -52.234260078737755 0 0 1 0 0 0 0 -1 forward_v I I I I #
coedge $-1 $123 $124 $125 $126 reversed $45 $-1 #
coedge $-1 $127 $47 $128 $129 reversed $29 $-1 #
coedge $-1 $47 $127 $123 $130 forward $29 $-1 #
coedge $-1 $125 $131 $47 $76 forward $132 $-1 #
edge $-1 $133 -18.047817682725253 $134 -7.8655815277940864 $75 $135 forward 7 unknown #
face $-1 $136 $137 $17 $-1 $138 reversed single #
loop $-1 $-1 $139 $48 #
plane-surface $-1 0 0 13.494492133986199 0 0 1 1 0 0 forward_v I I I I #
coedge $-1 $140 $141 $142 $143 reversed $49 $-1 #
coedge $-1 $144 $51 $140 $145 forward $32 $-1 #
coedge $-1 $51 $144 $146 $147 reversed $32 $-1 #
coedge $-1 $148 $149 $51 $84 forward $137 $-1 #
edge $-1 $150 7.8655815277940881 $151 18.047817682725256 $83 $152 forward 7 unknown #
face $-1 $153 $154 $18 $-1 $155 forward single #
loop $-1 $-1 $156 $52 #
plane-surface $-1 59.966417846604777 -0.52616558611931907 151.78102390791454 0 1 0 0.74314483375859142 0 0.66913059716165679 forward_v I I I I #
coedge $-1 $157 $158 $159 $160 reversed $53 $-1 #
coedge $-1 $90 $55 $161 $162 reversed $35 $-1 #
coedge $-1 $55 $89 $157 $163 reversed $35 $-1 #
coedge $-1 $159 $164 $55 $92 forward $154 $-1 #
edge $-1 $165 -22.251051155435366 $166 -13.920699934576749 $91 $167 forward 7 unknown #
loop $-1 $-1 $98 $56 #
plane-surface $-1 -17.668823198828413 4.4768168026072814 81.877940630348377 0.74314483375859142 0 0.66913059716165679 0.66913059716165679 0 -0.74314483375859142 forward_v I I I I #
loop $-1 $-1 $168 $37 #
coedge $-1 $96 $96 $97 $169 reversed $57 $-1 #
coedge $-1 $97 $97 $96 $169 forward $59 $-1 #
coedge $-1 $98 $98 $60 $99 forward $93 $-1 #
edge $-1 $170 0 $170 6.2831853071796004 $98 $171 forward 7 unknown #
face $-1 $172 $173 $15 $-1 $174 reversed single #
loop $-1 $-1 $175 $61 #
plane-surface $-1 -52.234260078737755 0 0 1 0 0 0 0 -1 forward_v I I I I #
coedge $-1 $176 $111 $177 $178 forward $62 $-1 #
coedge $-1 $179 $64 $176 $180 forward $41 $-1 #
coedge $-1 $64 $179 $181 $182 forward $41 $-1 #
coedge $-1 $114 $113 $64 $107 reversed $115 $-1 #
edge $-1 $183 -31.004517287984925 $184 31.004517287984925 $106 $185 forward 7 unknown #
coedge $-1 $66 $65 $186 $187 forward $26 $-1 #
coedge $-1 $188 $189 $65 $110 reversed $173 $-1 #
edge $-1 $117 -52.234260078737755 $190 52.234260078737755 $109 $191 forward 7 unknown #
coedge $-1 $103 $192 $66 $112 reversed $62 $-1 #
edge $-1 $193 -52.234260078737755 $116 52.234260078737755 $111 $194 forward 7 unknown #
coedge $-1 $106 $67 $192 $195 forward $115 $-1 #
coedge $-1 $67 $106 $188 $196 reversed $115 $-1 #
loop $-1 $-1 $113 $172 #
vertex $-1 $68 $197 #
vertex $-1 $68 $198 #
straight-curve $-1 52.234260078737755 0 13.494492133986199 0 1 0 I I #
face $-1 $199 $200 $16 $-1 $201 forward single #
loop $-1 $-1 $128 $69 #
plane-surface $-1 0 -31.004517287984925 0 0 1 0 0 0 1 forward_v I I I I #
coedge $-1 $202 $203 $204 $205 forward $70 $-1 #
coedge $-1 $204 $72 $74 $130 reversed $45 $-1 #
coedge $-1 $72 $204 $206 $207 reversed $45 $-1 #
coedge $-1 $208 $75 $72 $126 forward $132 $-1 #
edge $-1 $134 3.8368514264622675 $209 7.7173776138367103 $125 $210 forward 7 unknown #
coedge $-1 $74 $73 $202 $211 reversed $29 $-1 #
coedge $-1 $212 $213 $73 $129 forward $120 $-1 #
edge $-1 $214 -52.234260078737755 $133 52.234260078737755 $128 $215 forward 7 unknown #
edge $-1 $216 -52.234260078737755 $134 52.234260078737755 $123 $217 forward 7 unknown #
coedge $-1 $75 $208 $212 $218 forward $132 $-1 #
loop $-1 $-1 $125 $199 #
vertex $-1 $129 $219 #
vertex $-1 $76 $220 #
straight-curve $-1 52.234260078737755 -12.95669960525967 9.6139659466117564 0 1 0 I I #
face $-1 $221 $222 $17 $-1 $223 reversed single #
loop $-1 $-1 $149 $77 #
plane-surface $-1 52.234260078737755 0 0 -1 0 0 0 0 1 forward_v I I I I #
coedge $-1 $224 $225 $141 $226 forward $78 $-1 #
coedge $-1 $227 $80 $81 $145 reversed $49 $-1 #
coedge $-1 $80 $227 $139 $226 reversed $49 $-1 #
coedge $-1 $228 $229 $80 $143 forward $222 $-1 #
edge $-1 $230 3.8368514264622675 $231 7.7173776138367103 $142 $232 forward 7 unknown #
coedge $-1 $82 $81 $229 $233 reversed $32 $-1 #
edge $-1 $150 -52.234260078737755 $230 52.234260078737755 $140 $234 forward 7 unknown #
coedge $-1 $235 $236 $82 $147 forward $237 $-1 #
edge $-1 $151 -52.234260078737755 $238 52.234260078737755 $146 $239 forward 7 unknown #
coedge $-1 $240 $83 $236 $241 reversed $137 $-1 #
coedge $-1 $83 $240 $227 $242 forward $137 $-1 #
vertex $-1 $84 $243 #
vertex $-1 $147 $244 #
straight-curve $-1 52.234260078737755 12.956699605259672 9.6139659466117564 0 1 0 I I #
face $-1 $-1 $245 $18 $-1 $246 reversed single #
loop $-1 $-1 $91 $85 #
plane-surface $-1 0 0 13.494492133986199 0 0 1 1 0 0 forward_v I I I I #
coedge $-1 $247 $248 $249 $250 reversed $86 $-1 #
coedge $-1 $251 $88 $90 $163 forward $53 $-1 #
coedge $-1 $88 $251 $247 $252 forward $53 $-1 #
coedge $-1 $249 $91 $88 $160 forward $154 $-1 #
edge $-1 $166 -7.2413907900302412 $253 2.7645739874229598 $159 $254 forward 7 unknown #
coedge $-1 $255 $256 $89 $162 forward $245 $-1 #
edge $-1 $257 -71.647812369042086 $165 -62.396019819971073 $161 $258 forward 7 unknown #
edge $-1 $166 92.019005434647681 $257 104.4685201574755 $90 $259 forward 7 unknown #
coedge $-1 $91 $249 $255 $260 forward $154 $-1 #
vertex $-1 $162 $261 #
vertex $-1 $92 $262 #
straight-curve $-1 29.983208923302389 9.4797991913338819 13.494492133986199 -1 0 0 I I #
coedge $-1 $168 $168 $-1 $263 reversed $95 $-1 #
edge $-1 $264 0 $264 6.2831853071796004 $96 $265 forward 7 unknown #
vertex $-1 $99 $266 #
ellipse-curve $-1 48.069084468308446 4.4768168026072814 8.868595859450684 0.74314483375859142 0 0.66913059716165679 1.3382611943233136 0 -1.4862896675171828 1 I I #
face $-1 $-1 $115 $15 $-1 $267 reversed single #
loop $-1 $-1 $188 $100 #
plane-surface $-1 0 31.004517287984925 0 0 -1 0 0 0 -1 forward_v I I I I #
coedge $-1 $268 $186 $189 $269 forward $101 $-1 #
coedge $-1 $192 $103 $104 $180 reversed $62 $-1 #
coedge $-1 $186 $268 $103 $178 reversed $101 $-1 #
edge $-1 $193 -13.494492133986199 $270 13.494492133986199 $177 $271 forward 7 unknown #
coedge $-1 $105 $104 $268 $272 forward $41 $-1 #
edge $-1 $184 -52.234260078737755 $270 52.234260078737755 $176 $273 forward 7 unknown #
coedge $-1 $189 $188 $105 $182 reversed $173 $-1 #
edge $-1 $274 -52.234260078737755 $183 52.234260078737755 $181 $275 forward 7 unknown #
vertex $-1 $107 $276 #
vertex $-1 $195 $277 #
straight-curve $-1 52.234260078737755 0 -13.494492133986199 0 -1 0 I I #
coedge $-1 $175 $177 $108 $187 reversed $101 $-1 #
edge $-1 $190 -31.004517287984925 $193 31.004517287984925 $186 $278 forward 7 unknown #
coedge $-1 $181 $109 $114 $196 forward $173 $-1 #
coedge $-1 $109 $181 $175 $269 reversed $173 $-1 #
vertex $-1 $110 $279 #
straight-curve $-1 0 31.004517287984925 13.494492133986199 -1 0 0 I I #
coedge $-1 $111 $176 $113 $195 reversed $62 $-1 #
vertex $-1 $187 $280 #
straight-curve $-1 0 -31.004517287984925 13.494492133986199 1 0 0 I I #
edge $-1 $116 -13.494492133986199 $184 13.494492133986199 $113 $281 forward 7 unknown #
edge $-1 $117 -13.494492133986199 $183 13.494492133986199 $114 $282 forward 7 unknown #
point $-1 52.234260078737755 -31.004517287984925 13.494492133986199 #
point $-1 52.234260078737755 31.004517287984925 13.494492133986199 #
face $-1 $-1 $132 $16 $-1 $283 reversed single #
loop $-1 $-1 $206 $119 #
plane-surface $-1 0 0 13.494492133986199 0 0 1 1 0 0 forward_v I I I I #
coedge $-1 $284 $122 $127 $211 forward $70 $-1 #
coedge $-1 $122 $284 $285 $286 reversed $70 $-1 #
coedge $-1 $124 $123 $122 $205 reversed $45 $-1 #
edge $-1 $287 -7.7173776138367103 $216 -3.8368514264622675 $122 $288 forward 7 unknown #
coedge $-1 $285 $289 $124 $207 forward $200 $-1 #
edge $-1 $209 -52.234260078737755 $287 52.234260078737755 $206 $290 forward 7 unknown #
coedge $-1 $131 $125 $289 $291 reversed $132 $-1 #
vertex $-1 $126 $292 #
straight-curve $-1 52.234260078737755 -20.822281133053757 5.7771145201494889 0 0 1 I I #
edge $-1 $216 7.8655815277940864 $214 18.047817682725253 $202 $293 forward 7 unknown #
coedge $-1 $294 $128 $131 $218 reversed $120 $-1 #
coedge $-1 $128 $294 $284 $295 forward $120 $-1 #
vertex $-1 $129 $296 #
straight-curve $-1 0 -31.004517287984925 9.6139659466117564 1 0 0 I I #
vertex $-1 $211 $297 #
straight-curve $-1 0 -20.822281133053757 9.6139659466117564 1 0 0 I I #
edge $-1 $298 -13.494492133986199 $133 -9.6139659466117564 $131 $299 forward 7 unknown #
point $-1 52.234260078737755 -31.004517287984925 9.6139659466117564 #
point $-1 52.234260078737755 -20.822281133053757 9.6139659466117564 #
face $-1 $-1 $237 $17 $-1 $300 reversed single #
loop $-1 $-1 $142 $136 #
plane-surface $-1 -52.234260078737755 0 0 1 0 0 0 0 -1 forward_v I I I I #
coedge $-1 $301 $139 $240 $302 forward $78 $-1 #
coedge $-1 $139 $301 $228 $303 forward $78 $-1 #
edge $-1 $231 -52.234260078737755 $304 52.234260078737755 $139 $305 forward 7 unknown #
coedge $-1 $141 $140 $149 $242 reversed $49 $-1 #
coedge $-1 $306 $142 $225 $303 reversed $222 $-1 #
coedge $-1 $142 $306 $144 $233 forward $222 $-1 #
vertex $-1 $233 $307 #
vertex $-1 $143 $308 #
straight-curve $-1 -52.234260078737755 20.82228113305376 5.7771145201494889 0 0 1 I I #
edge $-1 $238 -18.047817682725256 $230 -7.8655815277940881 $229 $309 forward 7 unknown #
straight-curve $-1 0 20.82228113305376 9.6139659466117564 -1 0 0 I I #
coedge $-1 $310 $146 $306 $311 reversed $237 $-1 #
coedge $-1 $146 $310 $148 $241 forward $237 $-1 #
loop $-1 $-1 $146 $221 #
vertex $-1 $147 $312 #
straight-curve $-1 0 31.004517287984925 9.6139659466117564 -1 0 0 I I #
coedge $-1 $149 $148 $224 $302 reversed $137 $-1 #
edge $-1 $313 -13.494492133986199 $151 -9.6139659466117564 $148 $314 forward 7 unknown #
edge $-1 $304 -7.7173776138367103 $150 -3.8368514264622675 $149 $315 forward 7 unknown #
point $-1 52.234260078737755 20.82228113305376 9.6139659466117564 #
point $-1 52.234260078737755 31.004517287984928 9.6139659466117564 #
loop $-1 $-1 $161 $153 #
plane-surface $-1 52.234260078737755 0 0 -1 0 0 0 0 1 forward_v I I I I #
coedge $-1 $248 $156 $158 $252 reversed $86 $-1 #
coedge $-1 $156 $247 $316 $317 reversed $86 $-1 #
coedge $-1 $164 $159 $156 $250 forward $154 $-1 #
edge $-1 $253 13.920699934576749 $318 22.251051155435366 $249 $319 forward 7 unknown #
coedge $-1 $158 $157 $256 $320 reversed $53 $-1 #
edge $-1 $321 -104.4685201574755 $253 -92.019005434647681 $247 $322 forward 7 unknown #
vertex $-1 $160 $323 #
straight-curve $-1 43.903908857879138 2.2384084013036407 13.494492133986199 0 -1 0 I I #
coedge $-1 $316 $161 $164 $260 reversed $245 $-1 #
coedge $-1 $161 $316 $251 $320 forward $245 $-1 #
vertex $-1 $162 $324 #
straight-curve $-1 52.234260078737755 9.4797991913338819 75.890511953957272 0 0 1 I I #
straight-curve $-1 -17.668823198828413 9.4797991913338819 81.877940630348377 0.66913059716165679 0 -0.74314483375859142 I I #
edge $-1 $318 -0.52616558611931907 $165 9.4797991913338819 $255 $325 forward 7 unknown #
point $-1 52.234260078737755 9.4797991913338819 13.494492133986199 #
point $-1 43.903908857879138 9.4797991913338819 13.494492133986199 #
edge $-1 $326 1 $326 0 $168 $-1 forward 7 unknown #
vertex $-1 $169 $327 #
ellipse-curve $-1 42.340017719259386 4.4768168026072814 3.7101211169410844 0.74314483375859142 0 0.66913059716165679 1.3382611943233136 0 -1.4862896675171828 1 I I #
point $-1 49.407345662631755 4.4768168026072814 7.3823061919334938 #
plane-surface $-1 52.234260078737755 0 0 -1 0 0 0 0 1 forward_v I I I I #
coedge $-1 $177 $175 $179 $272 reversed $101 $-1 #
edge $-1 $190 -13.494492133986199 $274 13.494492133986199 $189 $328 forward 7 unknown #
vertex $-1 $272 $329 #
straight-curve $-1 -52.234260078737755 -31.004517287984925 0 0 0 -1 I I #
edge $-1 $270 -31.004517287984925 $274 31.004517287984925 $268 $330 forward 7 unknown #
straight-curve $-1 0 -31.004517287984925 -13.494492133986199 -1 0 0 I I #
vertex $-1 $182 $331 #
straight-curve $-1 0 31.004517287984925 -13.494492133986199 1 0 0 I I #
point $-1 52.234260078737755 31.004517287984925 -13.494492133986199 #
point $-1 52.234260078737755 -31.004517287984925 -13.494492133986199 #
straight-curve $-1 -52.234260078737755 0 13.494492133986199 0 -1 0 I I #
point $-1 -52.234260078737755 31.004517287984925 13.494492133986199 #
point $-1 -52.234260078737755 -31.004517287984925 13.494492133986199 #
straight-curve $-1 52.234260078737755 -31.004517287984925 0 0 0 -1 I I #
straight-curve $-1 52.234260078737755 31.004517287984925 0 0 0 -1 I I #
plane-surface $-1 52.234260078737755 0 0 -1 0 0 0 0 1 forward_v I I I I #
coedge $-1 $203 $202 $213 $295 reversed $70 $-1 #
coedge $-1 $332 $206 $203 $286 forward $200 $-1 #
edge $-1 $287 20.822281133053757 $333 31.004517287984925 $203 $334 forward 7 unknown #
vertex $-1 $286 $335 #
straight-curve $-1 -52.234260078737755 -20.822281133053757 5.7771145201494889 0 0 -1 I I #
coedge $-1 $206 $332 $208 $291 forward $200 $-1 #
straight-curve $-1 0 -20.822281133053757 13.494492133986199 -1 0 0 I I #
edge $-1 $298 -31.004517287984925 $209 -20.822281133053757 $208 $336 forward 7 unknown #
point $-1 52.234260078737755 -20.822281133053757 13.494492133986199 #
straight-curve $-1 -52.234260078737755 -12.95669960525967 9.6139659466117564 0 -1 0 I I #
coedge $-1 $213 $212 $332 $337 reversed $120 $-1 #
edge $-1 $333 -13.494492133986199 $214 -9.6139659466117564 $284 $338 forward 7 unknown #
point $-1 -52.234260078737755 -31.004517287984925 9.6139659466117564 #
point $-1 -52.234260078737755 -20.822281133053757 9.6139659466117564 #
vertex $-1 $291 $339 #
straight-curve $-1 52.234260078737755 -31.004517287984925 0 0 0 -1 I I #
plane-surface $-1 0 31.004517287984925 0 0 -1 0 0 0 -1 forward_v I I I I #
coedge $-1 $225 $224 $310 $340 forward $78 $-1 #
edge $-1 $304 20.82228113305376 $313 31.004517287984925 $240 $341 forward 7 unknown #
edge $-1 $342 -31.004517287984925 $231 -20.82228113305376 $228 $343 forward 7 unknown #
vertex $-1 $302 $344 #
straight-curve $-1 0 20.82228113305376 13.494492133986199 1 0 0 I I #
coedge $-1 $229 $228 $235 $311 forward $222 $-1 #
point $-1 -52.234260078737755 20.82228113305376 9.6139659466117564 #
point $-1 -52.234260078737755 20.82228113305376 13.494492133986199 #
straight-curve $-1 -52.234260078737755 12.956699605259672 9.6139659466117564 0 -1 0 I I #
coedge $-1 $236 $235 $301 $340 reversed $237 $-1 #
edge $-1 $342 -13.494492133986199 $238 -9.6139659466117564 $235 $345 forward 7 unknown #
point $-1 -52.234260078737755 31.004517287984928 9.6139659466117564 #
vertex $-1 $302 $346 #
straight-curve $-1 52.234260078737755 31.004517287984925 0 0 0 -1 I I #
straight-curve $-1 52.234260078737755 20.82228113305376 5.7771145201494889 0 0 -1 I I #
coedge $-1 $256 $255 $248 $317 forward $245 $-1 #
edge $-1 $318 62.396019819971073 $321 71.647812369042086 $316 $347 forward 7 unknown #
vertex $-1 $260 $348 #
straight-curve $-1 29.983208923302389 -0.52616558611931907 13.494492133986199 1 0 0 I I #
edge $-1 $321 -2.7645739874229598 $257 7.2413907900302412 $256 $349 forward 7 unknown #
vertex $-1 $320 $350 #
straight-curve $-1 -17.668823198828413 -0.52616558611931907 81.877940630348377 -0.66913059716165679 0 0.74314483375859142 I I #
point $-1 43.903908857879138 -0.52616558611931907 13.494492133986199 #
point $-1 52.234260078737755 9.4797991913338819 4.2426995849151865 #
straight-curve $-1 52.234260078737755 0 13.494492133986199 0 1 0 I I #
vertex $-1 $263 $351 #
point $-1 43.678278913582702 4.4768168026072814 2.2238314494239013 #
straight-curve $-1 -52.234260078737755 31.004517287984925 0 0 0 -1 I I #
point $-1 -52.234260078737755 -31.004517287984925 -13.494492133986199 #
straight-curve $-1 -52.234260078737755 0 -13.494492133986199 0 1 0 I I #
point $-1 -52.234260078737755 31.004517287984925 -13.494492133986199 #
coedge $-1 $289 $285 $294 $337 forward $200 $-1 #
vertex $-1 $286 $352 #
straight-curve $-1 -52.234260078737755 0 13.494492133986199 0 -1 0 I I #
point $-1 -52.234260078737755 -20.822281133053757 13.494492133986199 #
straight-curve $-1 52.234260078737755 0 13.494492133986199 0 1 0 I I #
edge $-1 $333 -52.234260078737755 $298 52.234260078737755 $294 $353 forward 7 unknown #
straight-curve $-1 -52.234260078737755 -31.004517287984925 0 0 0 -1 I I #
point $-1 52.234260078737755 -31.004517287984925 13.494492133986199 #
edge $-1 $313 -52.234260078737755 $342 52.234260078737755 $310 $354 forward 7 unknown #
straight-curve $-1 52.234260078737755 0 13.494492133986199 0 1 0 I I #
vertex $-1 $340 $355 #
straight-curve $-1 -52.234260078737755 0 13.494492133986199 0 -1 0 I I #
point $-1 52.234260078737755 20.82228113305376 13.494492133986199 #
straight-curve $-1 -52.234260078737755 31.004517287984925 0 0 0 -1 I I #
point $-1 52.234260078737755 31.004517287984925 13.494492133986199 #
straight-curve $-1 52.234260078737755 -0.52616558611931907 75.890511953957272 0 0 -1 I I #
point $-1 52.234260078737755 -0.52616558611931907 13.494492133986199 #
straight-curve $-1 52.234260078737762 2.2384084013036407 4.2426995849151723 0 1 0 I I #
point $-1 52.234260078737755 -0.52616558611931907 4.2426995849151865 #
point $-1 40.853728051742202 4.4768168026072814 2.3718599226177703 #
point $-1 -52.234260078737755 -31.004517287984925 13.494492133986199 #
straight-curve $-1 0 -31.004517287984925 13.494492133986199 1 0 0 I I #
straight-curve $-1 0 31.004517287984925 13.494492133986199 -1 0 0 I I #
point $-1 -52.234260078737755 31.004517287984925 13.494492133986199 #
End-of-ACIS-data 