500 0 12 0           
7 Unknown 11 ACIS 5.0 NT 24 Fri Mar 26 17:40:42 1999 
-1 9.9999999999999995e-007 1e-010 
body $-1 $12 $-1 $13 #
body $-1 $14 $-1 $15 #
body $-1 $16 $-1 $17 #
body $-1 $18 $-1 $19 #
body $-1 $20 $-1 $21 #
body $-1 $22 $-1 $23 #
body $-1 $24 $-1 $25 #
body $-1 $26 $-1 $27 #
body $-1 $28 $-1 $29 #
body $-1 $30 $-1 $31 #
body $-1 $32 $-1 $33 #
body $-1 $34 $-1 $35 #
lump $-1 $-1 $36 $0 #
transform $-1 1 0 0 0 1 0 0 0 1 40.861842707602158 27.746571674546864 7.6560282748216366 1 rotate no_reflect no_shear #
lump $-1 $-1 $37 $1 #
transform $-1 1 0 0 0 1 0 0 0 1 40.861842707602158 27.746571674546864 7.6560282748216366 1 rotate no_reflect no_shear #
lump $-1 $-1 $38 $2 #
transform $-1 1 0 0 0 1 0 0 0 1 40.861842707602158 27.746571674546864 7.6560282748216366 1 rotate no_reflect no_shear #
lump $-1 $-1 $39 $3 #
transform $-1 1 0 0 0 1 0 0 0 1 40.861842707602158 27.746571674546864 7.6560282748216366 1 rotate no_reflect no_shear #
lump $-1 $-1 $40 $4 #
transform $-1 1 0 0 0 1 0 0 0 1 40.861842707602158 27.746571674546864 7.6560282748216366 1 rotate no_reflect no_shear #
lump $-1 $-1 $41 $5 #
transform $-1 1 0 0 0 1 0 0 0 1 40.861842707602158 27.746571674546864 7.6560282748216366 1 rotate no_reflect no_shear #
lump $-1 $-1 $42 $6 #
transform $-1 1 0 0 0 1 0 0 0 1 40.861842707602158 27.746571674546864 7.6560282748216366 1 rotate no_reflect no_shear #
lump $-1 $-1 $43 $7 #
transform $-1 1 0 0 0 1 0 0 0 1 40.861842707602158 27.746571674546864 7.6560282748216366 1 rotate no_reflect no_shear #
lump $-1 $-1 $44 $8 #
transform $-1 1 0 0 0 1 0 0 0 1 40.861842707602158 27.746571674546864 7.6560282748216366 1 rotate no_reflect no_shear #
lump $-1 $-1 $45 $9 #
transform $-1 1 0 0 0 1 0 0 0 1 40.861842707602158 27.746571674546864 7.6560282748216366 1 rotate no_reflect no_shear #
lump $-1 $-1 $46 $10 #
transform $-1 1 0 0 0 1 0 0 0 1 40.861842707602158 27.746571674546864 7.6560282748216366 1 rotate no_reflect no_shear #
lump $-1 $-1 $47 $11 #
transform $-1 1 0 0 0 1 0 0 0 1 40.861842707602158 27.746571674546864 7.6560282748216366 1 rotate no_reflect no_shear #
shell $-1 $-1 $-1 $48 $-1 $12 #
shell $-1 $-1 $-1 $49 $-1 $14 #
shell $-1 $-1 $-1 $50 $-1 $16 #
shell $-1 $-1 $-1 $51 $-1 $18 #
shell $-1 $-1 $-1 $52 $-1 $20 #
shell $-1 $-1 $-1 $53 $-1 $22 #
shell $-1 $-1 $-1 $54 $-1 $24 #
shell $-1 $-1 $-1 $55 $-1 $26 #
shell $-1 $-1 $-1 $56 $-1 $28 #
shell $-1 $-1 $-1 $57 $-1 $30 #
shell $-1 $-1 $-1 $58 $-1 $32 #
shell $-1 $-1 $-1 $59 $-1 $34 #
face $-1 $60 $61 $36 $-1 $62 forward single #
face $-1 $63 $64 $37 $-1 $65 reversed single #
face $-1 $66 $67 $38 $-1 $68 reversed single #
face $-1 $69 $70 $39 $-1 $71 forward single #
face $-1 $72 $73 $40 $-1 $74 forward single #
face $-1 $75 $76 $41 $-1 $77 forward single #
face $-1 $78 $79 $42 $-1 $80 reversed single #
face $-1 $81 $82 $43 $-1 $83 forward single #
face $-1 $84 $85 $44 $-1 $86 forward single #
face $-1 $87 $88 $45 $-1 $89 reversed single #
face $-1 $90 $91 $46 $-1 $92 forward single #
face $-1 $93 $94 $47 $-1 $95 forward single #
face $-1 $96 $97 $36 $-1 $98 reversed single #
loop $-1 $-1 $99 $48 #
plane-surface $-1 0 0 7.6560282748216366 0 0 1 1 0 0 forward_v I I I I #
face $-1 $100 $101 $37 $-1 $102 reversed single #
loop $-1 $-1 $103 $49 #
plane-surface $-1 -36.050355930851509 0 4.1922520132499068 0 0 1 1 0 0 forward_v I I I I #
face $-1 $104 $105 $38 $-1 $106 reversed single #
loop $-1 $-1 $107 $50 #
plane-surface $-1 -24.517838258810514 -12.838543708699355 40.051264086429576 0 0.68199836817093118 0.7313536940579346 1 0 0 forward_v I I I I #
face $-1 $108 $109 $39 $-1 $110 forward single #
loop $-1 $111 $112 $51 #
cone-surface $-1 -28.550456795984722 24.48283303186323 4.5648527292179004 0 -0.68199836817093118 -0.7313536940579346 0.5 0 0 1 I I 0 1 0.5 forward I I I I #
face $-1 $113 $114 $40 $-1 $115 forward single #
loop $-1 $116 $117 $52 #
cone-surface $-1 -24.517838258810514 24.48283303186323 4.5648527292179004 0 -0.68199836817093118 -0.7313536940579346 0.5 0 0 1 I I 0 1 0.5 forward I I I I #
face $-1 $118 $119 $41 $-1 $120 forward single #
loop $-1 $121 $122 $53 #
cone-surface $-1 -20.485219721636305 24.48283303186323 4.5648527292179004 0 -0.68199836817093118 -0.7313536940579346 0.5 0 0 1 I I 0 1 0.5 forward I I I I #
face $-1 $123 $124 $42 $-1 $125 reversed single #
loop $-1 $-1 $126 $54 #
plane-surface $-1 2.1674601485266685 -88.479106286568282 56.83954232186926 -1 0 0 0 -0.74314483375859142 0.66913059716165679 forward_v I I I I #
face $-1 $127 $128 $43 $-1 $129 forward single #
loop $-1 $130 $131 $55 #
cone-surface $-1 -9.1839642217844464 -23.962432220737501 3.7282454433448722 0 0.74314483375859142 -0.66913059716165679 1 0 0 1 I I 0 1 1 forward I I I I #
face $-1 $132 $133 $44 $-1 $134 forward single #
loop $-1 $135 $136 $56 #
cone-surface $-1 -2.3731095995977824 -23.962432220737501 3.7282454433448722 0 0.74314483375859142 -0.66913059716165679 1 0 0 1 I I 0 1 1 forward I I I I #
face $-1 $137 $138 $45 $-1 $139 reversed single #
loop $-1 $-1 $140 $57 #
plane-surface $-1 38.217816079378181 -88.479106286568282 56.83954232186926 -1 0 0 0 -0.74314483375859142 0.66913059716165679 forward_v I I I I #
face $-1 $141 $142 $46 $-1 $143 forward single #
loop $-1 $144 $145 $58 #
cone-surface $-1 26.866391709067067 -23.962432220737501 3.7282454433448722 0 0.74314483375859142 -0.66913059716165679 1 0 0 1 I I 0 1 1 forward I I I I #
face $-1 $146 $147 $47 $-1 $148 forward single #
loop $-1 $149 $150 $59 #
cone-surface $-1 33.67724633125372 -23.962432220737501 3.7282454433448722 0 0.74314483375859142 -0.66913059716165679 1 0 0 1 I I 0 1 1 forward I I I I #
face $-1 $151 $152 $36 $-1 $153 reversed single #
loop $-1 $-1 $154 $60 #
plane-surface $-1 0 0 -7.6560282748216366 0 0 1 1 0 0 forward_v I I I I #
coedge $-1 $155 $156 $157 $158 forward $61 $-1 #
face $-1 $159 $160 $37 $-1 $161 reversed single #
loop $-1 $-1 $162 $63 #
plane-surface $-1 -31.238869154100861 0 5.9241401440357713 -1 0 0 0 0 1 forward_v I I I I #
coedge $-1 $163 $164 $165 $166 forward $64 $-1 #
face $-1 $167 $168 $38 $-1 $169 forward single #
loop $-1 $-1 $170 $66 #
plane-surface $-1 -17.796807363520166 42.896876385384523 99.820183306867818 -1 0 0 0 0.68199836817093118 0.7313536940579346 forward_v I I I I #
coedge $-1 $171 $172 $173 $174 reversed $67 $-1 #
face $-1 $-1 $175 $39 $-1 $176 forward single #
loop $-1 $177 $178 $69 #
cone-surface $-1 -28.550456795984722 23.97133425573503 4.0163374586744496 0 -0.68199836817093118 -0.7313536940579346 0.25 0 0 1 I I -0.70710678118654746 0.70710678118654746 0.25 forward I I I I #
loop $-1 $-1 $179 $51 #
coedge $-1 $112 $112 $180 $181 reversed $70 $-1 #
face $-1 $-1 $182 $40 $-1 $183 forward single #
loop $-1 $184 $185 $72 #
cone-surface $-1 -24.517838258810514 23.97133425573503 4.0163374586744496 0 -0.68199836817093118 -0.7313536940579346 0.25 0 0 1 I I -0.70710678118654746 0.70710678118654746 0.25 forward I I I I #
loop $-1 $-1 $186 $52 #
coedge $-1 $117 $117 $187 $188 reversed $73 $-1 #
face $-1 $-1 $189 $41 $-1 $190 forward single #
loop $-1 $191 $192 $75 #
cone-surface $-1 -20.485219721636305 23.97133425573503 4.0163374586744496 0 -0.68199836817093118 -0.7313536940579346 0.25 0 0 1 I I -0.70710678118654746 0.70710678118654746 0.25 forward I I I I #
loop $-1 $-1 $193 $53 #
coedge $-1 $122 $122 $194 $195 reversed $76 $-1 #
face $-1 $196 $197 $42 $-1 $198 reversed single #
loop $-1 $-1 $199 $78 #
plane-surface $-1 -5.7785369106911091 -27.74657167454685 2.1557238977422131 0 -0.74314483375859142 0.66913059716165679 1 0 0 forward_v I I I I #
coedge $-1 $200 $201 $202 $203 reversed $79 $-1 #
face $-1 $-1 $204 $43 $-1 $205 forward single #
loop $-1 $206 $207 $81 #
cone-surface $-1 -9.1839642217844464 -22.282968441414575 2.2160495018269906 0 0.74314483375859142 -0.66913059716165679 0.5 0 0 1 I I -0.70710678118654746 0.70710678118654746 0.5 forward I I I I #
loop $-1 $-1 $208 $55 #
coedge $-1 $131 $131 $209 $210 reversed $82 $-1 #
face $-1 $-1 $211 $44 $-1 $212 forward single #
loop $-1 $213 $214 $84 #
cone-surface $-1 -2.3731095995977824 -22.282968441414575 2.2160495018269906 0 0.74314483375859142 -0.66913059716165679 0.5 0 0 1 I I -0.70710678118654746 0.70710678118654746 0.5 forward I I I I #
loop $-1 $-1 $215 $56 #
coedge $-1 $136 $136 $216 $217 reversed $85 $-1 #
face $-1 $218 $219 $45 $-1 $220 reversed single #
loop $-1 $-1 $221 $87 #
plane-surface $-1 30.2718190201604 -27.74657167454685 2.1557238977422131 0 -0.74314483375859142 0.66913059716165679 1 0 0 forward_v I I I I #
coedge $-1 $222 $223 $224 $225 reversed $88 $-1 #
face $-1 $-1 $226 $46 $-1 $227 forward single #
loop $-1 $228 $229 $90 #
cone-surface $-1 26.866391709067067 -22.282968441414575 2.2160495018269906 0 0.74314483375859142 -0.66913059716165679 0.5 0 0 1 I I -0.70710678118654746 0.70710678118654746 0.5 forward I I I I #
loop $-1 $-1 $230 $58 #
coedge $-1 $145 $145 $231 $232 reversed $91 $-1 #
face $-1 $-1 $233 $47 $-1 $234 forward single #
loop $-1 $235 $236 $93 #
cone-surface $-1 33.67724633125372 -22.282968441414575 2.2160495018269906 0 0.74314483375859142 -0.66913059716165679 0.5 0 0 1 I I -0.70710678118654746 0.70710678118654746 0.5 forward I I I I #
loop $-1 $-1 $237 $59 #
coedge $-1 $150 $150 $238 $239 reversed $94 $-1 #
face $-1 $240 $241 $36 $-1 $242 reversed single #
loop $-1 $-1 $243 $96 #
plane-surface $-1 0 -27.746571674546864 0 0 1 0 0 0 1 forward_v I I I I #
coedge $-1 $244 $245 $246 $247 forward $97 $-1 #
coedge $-1 $248 $99 $249 $250 forward $61 $-1 #
coedge $-1 $99 $248 $251 $252 forward $61 $-1 #
coedge $-1 $253 $254 $99 $158 reversed $255 $-1 #
edge $-1 $256 -27.746571674546864 $257 27.746571674546864 $157 $258 forward 7 unknown #
face $-1 $259 $260 $37 $-1 $261 reversed single #
loop $-1 $-1 $262 $100 #
plane-surface $-1 0 27.746571674546864 0 0 -1 0 0 0 -1 forward_v I I I I #
coedge $-1 $165 $263 $264 $265 reversed $101 $-1 #
coedge $-1 $266 $103 $267 $268 reversed $64 $-1 #
coedge $-1 $103 $266 $269 $270 reversed $64 $-1 #
coedge $-1 $271 $162 $103 $166 reversed $101 $-1 #
edge $-1 $272 -27.746571674546864 $273 27.746571674546864 $165 $274 forward 7 unknown #
face $-1 $275 $276 $38 $-1 $277 reversed single #
loop $-1 $-1 $173 $104 #
plane-surface $-1 0 0 7.6560282748216366 0 0 1 1 0 0 forward_v I I I I #
coedge $-1 $278 $279 $280 $281 reversed $105 $-1 #
coedge $-1 $282 $107 $283 $284 reversed $67 $-1 #
coedge $-1 $107 $282 $278 $285 forward $67 $-1 #
coedge $-1 $280 $286 $107 $174 forward $168 $-1 #
edge $-1 $287 -18.979950024695604 $288 -5.5378882341149094 $173 $289 forward 7 unknown #
loop $-1 $-1 $180 $108 #
plane-surface $-1 -24.517838258810514 -12.838543708699355 40.051264086429576 0 0.68199836817093118 0.7313536940579346 1 0 0 forward_v I I I I #
loop $-1 $-1 $290 $69 #
coedge $-1 $178 $178 $179 $291 reversed $109 $-1 #
coedge $-1 $179 $179 $178 $291 forward $111 $-1 #
coedge $-1 $180 $180 $112 $181 forward $175 $-1 #
edge $-1 $292 5.4198094824388973e-016 $292 6.2831853071796013 $180 $293 forward 7 unknown #
loop $-1 $-1 $187 $113 #
plane-surface $-1 -24.517838258810514 -12.838543708699355 40.051264086429576 0 0.68199836817093118 0.7313536940579346 1 0 0 forward_v I I I I #
loop $-1 $-1 $294 $72 #
coedge $-1 $185 $185 $186 $295 reversed $114 $-1 #
coedge $-1 $186 $186 $185 $295 forward $116 $-1 #
coedge $-1 $187 $187 $117 $188 forward $182 $-1 #
edge $-1 $296 5.4198094824388973e-016 $296 6.2831853071796013 $187 $297 forward 7 unknown #
loop $-1 $-1 $194 $118 #
plane-surface $-1 -24.517838258810514 -12.838543708699355 40.051264086429576 0 0.68199836817093118 0.7313536940579346 1 0 0 forward_v I I I I #
loop $-1 $-1 $298 $75 #
coedge $-1 $192 $192 $193 $299 reversed $119 $-1 #
coedge $-1 $193 $193 $192 $299 forward $121 $-1 #
coedge $-1 $194 $194 $122 $195 forward $189 $-1 #
edge $-1 $300 5.4198094824388973e-016 $300 6.2831853071796013 $194 $301 forward 7 unknown #
face $-1 $302 $303 $42 $-1 $304 reversed single #
loop $-1 $-1 $305 $123 #
plane-surface $-1 -13.724533969908887 -88.479106286568282 56.83954232186926 1 0 0 0 0.74314483375859142 -0.66913059716165679 forward_v I I I I #
coedge $-1 $306 $307 $308 $309 reversed $124 $-1 #
coedge $-1 $201 $126 $310 $311 reversed $79 $-1 #
coedge $-1 $126 $200 $306 $312 reversed $79 $-1 #
coedge $-1 $308 $313 $126 $203 forward $314 $-1 #
edge $-1 $315 16.492981468737277 $316 21.44547765146875 $202 $317 forward 7 unknown #
loop $-1 $-1 $209 $127 #
plane-surface $-1 -5.7785369106911091 -27.74657167454685 2.1557238977422131 0 -0.74314483375859142 0.66913059716165679 1 0 0 forward_v I I I I #
loop $-1 $-1 $318 $81 #
coedge $-1 $207 $207 $208 $319 reversed $128 $-1 #
coedge $-1 $208 $208 $207 $319 forward $130 $-1 #
coedge $-1 $209 $209 $131 $210 forward $204 $-1 #
edge $-1 $320 -7.9418762654422365e-016 $320 6.2831853071795996 $209 $321 forward 7 unknown #
loop $-1 $-1 $216 $132 #
plane-surface $-1 -5.7785369106911091 -27.74657167454685 2.1557238977422131 0 -0.74314483375859142 0.66913059716165679 1 0 0 forward_v I I I I #
loop $-1 $-1 $322 $84 #
coedge $-1 $214 $214 $215 $323 reversed $133 $-1 #
coedge $-1 $215 $215 $214 $323 forward $135 $-1 #
coedge $-1 $216 $216 $136 $217 forward $211 $-1 #
edge $-1 $324 -7.9418762654422365e-016 $324 6.2831853071795996 $216 $325 forward 7 unknown #
face $-1 $326 $327 $45 $-1 $328 reversed single #
loop $-1 $-1 $329 $137 #
plane-surface $-1 22.325821960942623 -88.479106286568282 56.83954232186926 1 0 0 0 0.74314483375859142 -0.66913059716165679 forward_v I I I I #
coedge $-1 $330 $331 $332 $333 reversed $138 $-1 #
coedge $-1 $223 $140 $334 $335 reversed $88 $-1 #
coedge $-1 $140 $222 $330 $336 reversed $88 $-1 #
coedge $-1 $332 $337 $140 $225 forward $338 $-1 #
edge $-1 $339 16.492981468737277 $340 21.44547765146875 $224 $341 forward 7 unknown #
loop $-1 $-1 $231 $141 #
plane-surface $-1 30.2718190201604 -27.74657167454685 2.1557238977422131 0 -0.74314483375859142 0.66913059716165679 1 0 0 forward_v I I I I #
loop $-1 $-1 $342 $90 #
coedge $-1 $229 $229 $230 $343 reversed $142 $-1 #
coedge $-1 $230 $230 $229 $343 forward $144 $-1 #
coedge $-1 $231 $231 $145 $232 forward $226 $-1 #
edge $-1 $344 -7.9418762654422365e-016 $344 6.2831853071795996 $231 $345 forward 7 unknown #
loop $-1 $-1 $238 $146 #
plane-surface $-1 30.2718190201604 -27.74657167454685 2.1557238977422131 0 -0.74314483375859142 0.66913059716165679 1 0 0 forward_v I I I I #
loop $-1 $-1 $346 $93 #
coedge $-1 $236 $236 $237 $347 reversed $147 $-1 #
coedge $-1 $237 $237 $236 $347 forward $149 $-1 #
coedge $-1 $238 $238 $150 $239 forward $233 $-1 #
edge $-1 $348 -7.9418762654422365e-016 $348 6.2831853071795996 $238 $349 forward 7 unknown #
face $-1 $350 $351 $36 $-1 $352 reversed single #
loop $-1 $-1 $353 $151 #
plane-surface $-1 -40.861842707602158 0 0 1 0 0 0 0 -1 forward_v I I I I #
coedge $-1 $354 $251 $355 $356 forward $152 $-1 #
coedge $-1 $357 $154 $354 $358 forward $97 $-1 #
coedge $-1 $154 $357 $359 $360 forward $97 $-1 #
coedge $-1 $254 $253 $154 $247 reversed $255 $-1 #
edge $-1 $361 -27.746571674546864 $362 27.746571674546864 $246 $363 forward 7 unknown #
coedge $-1 $156 $155 $364 $365 forward $61 $-1 #
coedge $-1 $366 $367 $155 $250 reversed $351 $-1 #
edge $-1 $257 -40.861842707602158 $368 40.861842707602158 $249 $369 forward 7 unknown #
coedge $-1 $243 $370 $156 $252 reversed $152 $-1 #
edge $-1 $371 -40.861842707602158 $256 40.861842707602158 $251 $372 forward 7 unknown #
coedge $-1 $246 $157 $370 $373 forward $255 $-1 #
coedge $-1 $157 $246 $366 $374 reversed $255 $-1 #
loop $-1 $-1 $253 $350 #
vertex $-1 $158 $375 #
vertex $-1 $158 $376 #
straight-curve $-1 40.861842707602158 0 7.6560282748216366 0 1 0 I I #
face $-1 $377 $378 $37 $-1 $379 forward single #
loop $-1 $-1 $380 $159 #
plane-surface $-1 -40.861842707602158 0 0 1 0 0 0 0 -1 forward_v I I I I #
coedge $-1 $269 $381 $271 $382 forward $160 $-1 #
coedge $-1 $162 $271 $383 $384 reversed $101 $-1 #
coedge $-1 $385 $267 $162 $265 forward $386 $-1 #
edge $-1 $273 1.2301819412320212 $387 4.6939582028037501 $264 $388 forward 7 unknown #
coedge $-1 $164 $163 $380 $389 reversed $64 $-1 #
coedge $-1 $264 $390 $163 $268 forward $386 $-1 #
edge $-1 $391 -22.836664742176403 $273 -13.213691188675107 $267 $392 forward 7 unknown #
coedge $-1 $393 $262 $164 $270 forward $160 $-1 #
edge $-1 $272 13.213691188675107 $394 22.836664742176403 $269 $395 forward 7 unknown #
coedge $-1 $263 $165 $262 $382 reversed $101 $-1 #
vertex $-1 $270 $396 #
vertex $-1 $268 $397 #
straight-curve $-1 -31.238869154100861 0 4.1922520132499068 0 -1 0 I I #
face $-1 $-1 $398 $38 $-1 $399 forward single #
loop $-1 $-1 $400 $167 #
plane-surface $-1 0 27.746571674546864 0 0 -1 0 0 0 -1 forward_v I I I I #
coedge $-1 $279 $170 $172 $285 reversed $105 $-1 #
coedge $-1 $170 $278 $400 $401 reversed $105 $-1 #
coedge $-1 $402 $173 $170 $281 forward $168 $-1 #
edge $-1 $288 0.4526545646582143 $403 6.2981334818546024 $280 $404 forward 7 unknown #
coedge $-1 $172 $171 $405 $406 reversed $67 $-1 #
coedge $-1 $407 $408 $171 $284 forward $398 $-1 #
edge $-1 $409 -39.161063745713136 $287 -31.168379816323792 $283 $410 forward 7 unknown #
edge $-1 $411 -55.493143349093742 $288 -47.500459419704399 $278 $412 forward 7 unknown #
coedge $-1 $173 $402 $407 $413 forward $168 $-1 #
vertex $-1 $284 $414 #
vertex $-1 $174 $415 #
straight-curve $-1 -12.258919129405257 21.901092757350472 7.6560282748216366 1 0 0 I I #
coedge $-1 $290 $290 $-1 $416 reversed $177 $-1 #
edge $-1 $417 0 $417 6.2831853071796004 $178 $418 forward 7 unknown #
vertex $-1 $181 $419 #
ellipse-curve $-1 -28.550456795984722 24.823832215948677 4.9305295762468493 0 0.68199836817093118 0.7313536940579346 0.5 0 0 1 I I #
coedge $-1 $294 $294 $-1 $420 reversed $184 $-1 #
edge $-1 $421 0 $421 6.2831853071796004 $185 $422 forward 7 unknown #
vertex $-1 $188 $423 #
ellipse-curve $-1 -24.517838258810514 24.823832215948677 4.9305295762468493 0 0.68199836817093118 0.7313536940579346 0.5 0 0 1 I I #
coedge $-1 $298 $298 $-1 $424 reversed $191 $-1 #
edge $-1 $425 0 $425 6.2831853071796004 $192 $426 forward 7 unknown #
vertex $-1 $195 $427 #
ellipse-curve $-1 -20.485219721636305 24.823832215948677 4.9305295762468493 0 0.68199836817093118 0.7313536940579346 0.5 0 0 1 I I #
face $-1 $-1 $314 $42 $-1 $428 forward single #
loop $-1 $-1 $429 $196 #
plane-surface $-1 0 -27.746571674546864 0 0 1 0 0 0 1 forward_v I I I I #
coedge $-1 $430 $431 $432 $433 reversed $197 $-1 #
coedge $-1 $434 $199 $201 $312 forward $124 $-1 #
coedge $-1 $199 $434 $430 $435 forward $124 $-1 #
coedge $-1 $432 $202 $199 $309 forward $314 $-1 #
edge $-1 $316 -5.056728603872223 $436 10.835265514563332 $308 $437 forward 7 unknown #
coedge $-1 $438 $439 $200 $311 forward $303 $-1 #
edge $-1 $440 -26.264047263192431 $315 -20.763742886112993 $310 $441 forward 7 unknown #
edge $-1 $316 -7.4013895101182676 $440 2.1389731374768986e-014 $201 $442 forward 7 unknown #
coedge $-1 $202 $432 $438 $443 forward $314 $-1 #
loop $-1 $-1 $432 $302 #
vertex $-1 $311 $444 #
vertex $-1 $203 $445 #
straight-curve $-1 2.1674601485266685 -44.239553143284141 7.6560282748216366 0 1 0 I I #
coedge $-1 $318 $318 $-1 $446 reversed $206 $-1 #
edge $-1 $447 0 $447 6.2831853071796004 $207 $448 forward 7 unknown #
vertex $-1 $210 $449 #
ellipse-curve $-1 -9.1839642217844464 -25.270323583181124 4.9058760862819195 0 -0.74314483375859142 0.66913059716165679 1 0 0 1 I I #
coedge $-1 $322 $322 $-1 $450 reversed $213 $-1 #
edge $-1 $451 0 $451 6.2831853071796004 $214 $452 forward 7 unknown #
vertex $-1 $217 $453 #
ellipse-curve $-1 -2.3731095995977824 -25.270323583181124 4.9058760862819195 0 -0.74314483375859142 0.66913059716165679 1 0 0 1 I I #
face $-1 $-1 $338 $45 $-1 $454 forward single #
loop $-1 $-1 $455 $218 #
plane-surface $-1 0 -27.746571674546864 0 0 1 0 0 0 1 forward_v I I I I #
coedge $-1 $456 $457 $458 $459 reversed $219 $-1 #
coedge $-1 $460 $221 $223 $336 forward $138 $-1 #
coedge $-1 $221 $460 $456 $461 forward $138 $-1 #
coedge $-1 $458 $224 $221 $333 forward $338 $-1 #
edge $-1 $340 -23.081906569297981 $462 -7.1899124508624226 $332 $463 forward 7 unknown #
coedge $-1 $464 $465 $222 $335 forward $327 $-1 #
edge $-1 $466 -26.264047263192431 $339 -20.763742886112993 $334 $467 forward 7 unknown #
edge $-1 $340 -7.4013895101182676 $466 2.1389731374768986e-014 $223 $468 forward 7 unknown #
coedge $-1 $224 $458 $464 $469 forward $338 $-1 #
loop $-1 $-1 $458 $326 #
vertex $-1 $335 $470 #
vertex $-1 $225 $471 #
straight-curve $-1 38.217816079378181 -44.239553143284141 7.6560282748216366 0 1 0 I I #
coedge $-1 $342 $342 $-1 $472 reversed $228 $-1 #
edge $-1 $473 0 $473 6.2831853071796004 $229 $474 forward 7 unknown #
vertex $-1 $232 $475 #
ellipse-curve $-1 26.866391709067067 -25.270323583181124 4.9058760862819195 0 -0.74314483375859142 0.66913059716165679 1 0 0 1 I I #
coedge $-1 $346 $346 $-1 $476 reversed $235 $-1 #
edge $-1 $477 0 $477 6.2831853071796004 $236 $478 forward 7 unknown #
vertex $-1 $239 $479 #
ellipse-curve $-1 33.67724633125372 -25.270323583181124 4.9058760862819195 0 -0.74314483375859142 0.66913059716165679 1 0 0 1 I I #
face $-1 $-1 $255 $36 $-1 $480 reversed single #
loop $-1 $-1 $366 $240 #
plane-surface $-1 0 27.746571674546864 0 0 -1 0 0 0 -1 forward_v I I I I #
coedge $-1 $481 $364 $367 $482 forward $241 $-1 #
coedge $-1 $370 $243 $244 $358 reversed $152 $-1 #
coedge $-1 $364 $481 $243 $356 reversed $241 $-1 #
edge $-1 $371 -7.6560282748216366 $483 7.6560282748216366 $355 $484 forward 7 unknown #
coedge $-1 $245 $244 $481 $485 forward $97 $-1 #
edge $-1 $362 -40.861842707602158 $483 40.861842707602158 $354 $486 forward 7 unknown #
coedge $-1 $367 $366 $245 $360 reversed $351 $-1 #
edge $-1 $487 -40.861842707602158 $361 40.861842707602158 $359 $488 forward 7 unknown #
vertex $-1 $247 $489 #
vertex $-1 $373 $490 #
straight-curve $-1 40.861842707602158 0 -7.6560282748216366 0 -1 0 I I #
coedge $-1 $353 $355 $248 $365 reversed $241 $-1 #
edge $-1 $368 -27.746571674546864 $371 27.746571674546864 $364 $491 forward 7 unknown #
coedge $-1 $359 $249 $254 $374 forward $351 $-1 #
coedge $-1 $249 $359 $353 $482 reversed $351 $-1 #
vertex $-1 $250 $492 #
straight-curve $-1 0 27.746571674546864 7.6560282748216366 -1 0 0 I I #
coedge $-1 $251 $354 $253 $373 reversed $152 $-1 #
vertex $-1 $365 $493 #
straight-curve $-1 0 -27.746571674546864 7.6560282748216366 1 0 0 I I #
edge $-1 $256 -7.6560282748216366 $362 7.6560282748216366 $253 $494 forward 7 unknown #
edge $-1 $257 -7.6560282748216366 $361 7.6560282748216366 $254 $495 forward 7 unknown #
point $-1 40.861842707602158 -27.746571674546864 7.6560282748216366 #
point $-1 40.861842707602158 27.746571674546864 7.6560282748216366 #
face $-1 $-1 $386 $37 $-1 $496 reversed single #
loop $-1 $-1 $383 $259 #
plane-surface $-1 0 0 7.6560282748216366 0 0 1 1 0 0 forward_v I I I I #
coedge $-1 $497 $498 $266 $389 forward $260 $-1 #
coedge $-1 $262 $393 $499 $500 reversed $160 $-1 #
edge $-1 $501 -4.6939582028037501 $272 -1.2301819412320212 $262 $502 forward 7 unknown #
coedge $-1 $499 $503 $263 $384 forward $378 $-1 #
edge $-1 $387 -27.746571674546864 $501 27.746571674546864 $383 $504 forward 7 unknown #
coedge $-1 $390 $264 $503 $505 reversed $386 $-1 #
loop $-1 $-1 $264 $377 #
vertex $-1 $265 $506 #
straight-curve $-1 -31.238869154100861 -27.746571674546864 2.9620700720178856 0 0 1 I I #
edge $-1 $394 -27.746571674546864 $391 27.746571674546864 $380 $507 forward 7 unknown #
coedge $-1 $267 $385 $497 $508 forward $386 $-1 #
vertex $-1 $389 $509 #
straight-curve $-1 -18.025177965425755 -27.746571674546864 4.1922520132499068 1 0 0 I I #
coedge $-1 $381 $269 $498 $510 reversed $160 $-1 #
vertex $-1 $389 $511 #
straight-curve $-1 -18.025177965425755 27.746571674546864 4.1922520132499068 -1 0 0 I I #
point $-1 -31.238869154100861 27.746571674546864 4.1922520132499068 #
point $-1 -31.238869154100861 -27.746571674546864 4.1922520132499068 #
loop $-1 $-1 $283 $275 #
plane-surface $-1 -31.238869154100861 0 5.9241401440357713 -1 0 0 0 0 1 forward_v I I I I #
coedge $-1 $405 $512 $279 $401 forward $276 $-1 #
edge $-1 $403 42.254063378612273 $411 47.705060775761829 $400 $513 forward 7 unknown #
coedge $-1 $286 $280 $512 $514 forward $168 $-1 #
vertex $-1 $514 $515 #
straight-curve $-1 -17.796807363520166 21.448438192692262 7.6560282748216366 0 1 0 I I #
coedge $-1 $516 $400 $282 $406 forward $276 $-1 #
edge $-1 $411 5.5378882341149094 $409 18.979950024695604 $405 $517 forward 7 unknown #
coedge $-1 $408 $283 $286 $413 reversed $398 $-1 #
coedge $-1 $283 $407 $516 $518 reversed $398 $-1 #
vertex $-1 $518 $519 #
straight-curve $-1 -31.238869154100861 -0.89401695911869705 28.91281244808625 0 -0.7313536940579346 0.68199836817093118 I I #
vertex $-1 $406 $520 #
straight-curve $-1 -17.796807363520166 -12.838543708699355 40.051264086429576 0 -0.7313536940579346 0.68199836817093118 I I #
edge $-1 $521 -27.746571674546864 $287 -21.901092757350476 $286 $522 forward 7 unknown #
point $-1 -31.238869154100861 21.901092757350476 7.6560282748216366 #
point $-1 -17.796807363520166 21.901092757350476 7.6560282748216366 #
edge $-1 $523 1 $523 0 $290 $-1 forward 7 unknown #
vertex $-1 $291 $524 #
ellipse-curve $-1 -28.550456795984722 24.141833847777765 4.1991758821889329 0 0.68199836817093118 0.7313536940579346 0.5 0 0 1 I I #
point $-1 -28.050456795984722 24.823832215948695 4.9305295762468679 #
edge $-1 $525 1 $525 0 $294 $-1 forward 7 unknown #
vertex $-1 $295 $526 #
ellipse-curve $-1 -24.517838258810514 24.141833847777765 4.1991758821889329 0 0.68199836817093118 0.7313536940579346 0.5 0 0 1 I I #
point $-1 -24.017838258810514 24.823832215948695 4.9305295762468679 #
edge $-1 $527 1 $527 0 $298 $-1 forward 7 unknown #
vertex $-1 $299 $528 #
ellipse-curve $-1 -20.485219721636305 24.141833847777765 4.1991758821889329 0 0.68199836817093118 0.7313536940579346 0.5 0 0 1 I I #
point $-1 -19.985219721636305 24.823832215948695 4.9305295762468679 #
plane-surface $-1 0 0 7.6560282748216366 0 0 1 1 0 0 forward_v I I I I #
coedge $-1 $439 $438 $431 $529 forward $303 $-1 #
coedge $-1 $431 $305 $307 $435 reversed $197 $-1 #
coedge $-1 $305 $430 $429 $529 reversed $197 $-1 #
coedge $-1 $313 $308 $305 $433 forward $314 $-1 #
edge $-1 $436 -21.44547765146875 $530 -16.492981468737277 $432 $531 forward 7 unknown #
coedge $-1 $307 $306 $439 $532 reversed $124 $-1 #
edge $-1 $533 -2.1389731374768986e-014 $436 7.4013895101182676 $430 $534 forward 7 unknown #
vertex $-1 $309 $535 #
straight-curve $-1 -2.8892684553455545 -22.794075491815391 7.6560282748216366 -1 0 0 I I #
coedge $-1 $429 $310 $313 $443 reversed $303 $-1 #
coedge $-1 $310 $429 $434 $532 forward $303 $-1 #
vertex $-1 $311 $536 #
straight-curve $-1 2.1674601485266685 -27.746571674546864 28.41977116093463 0 0 1 I I #
straight-curve $-1 2.1674601485266685 -27.74657167454685 2.1557238977422131 0 -0.66913059716165679 -0.74314483375859142 I I #
edge $-1 $530 -13.724533969908887 $315 2.1674601485266685 $438 $537 forward 7 unknown #
point $-1 2.1674601485266685 -27.746571674546864 7.6560282748216366 #
point $-1 2.1674601485266685 -22.794075491815391 7.6560282748216366 #
edge $-1 $538 1 $538 0 $318 $-1 forward 7 unknown #
vertex $-1 $319 $539 #
ellipse-curve $-1 -9.1839642217844464 -22.654540858293871 2.5506148004078191 0 -0.74314483375859142 0.66913059716165679 1 0 0 1 I I #
point $-1 -8.1839642217844464 -25.270323583181131 4.9058760862819248 #
edge $-1 $540 1 $540 0 $322 $-1 forward 7 unknown #
vertex $-1 $323 $541 #
ellipse-curve $-1 -2.3731095995977824 -22.654540858293871 2.5506148004078191 0 -0.74314483375859142 0.66913059716165679 1 0 0 1 I I #
point $-1 -1.3731095995977824 -25.270323583181131 4.9058760862819248 #
plane-surface $-1 0 0 7.6560282748216366 0 0 1 1 0 0 forward_v I I I I #
coedge $-1 $465 $464 $457 $542 forward $327 $-1 #
coedge $-1 $457 $329 $331 $461 reversed $219 $-1 #
coedge $-1 $329 $456 $455 $542 reversed $219 $-1 #
coedge $-1 $337 $332 $329 $459 forward $338 $-1 #
edge $-1 $462 -21.44547765146875 $543 -16.492981468737277 $458 $544 forward 7 unknown #
coedge $-1 $331 $330 $465 $545 reversed $138 $-1 #
edge $-1 $546 -2.1389731374768986e-014 $462 7.4013895101182676 $456 $547 forward 7 unknown #
vertex $-1 $333 $548 #
straight-curve $-1 15.1359095100802 -22.794075491815391 7.6560282748216366 -1 0 0 I I #
coedge $-1 $455 $334 $337 $469 reversed $327 $-1 #
coedge $-1 $334 $455 $460 $545 forward $327 $-1 #
vertex $-1 $335 $549 #
straight-curve $-1 38.217816079378181 -27.746571674546864 28.41977116093463 0 0 1 I I #
straight-curve $-1 38.217816079378181 -27.74657167454685 2.1557238977422131 0 -0.66913059716165679 -0.74314483375859142 I I #
edge $-1 $543 22.325821960942623 $339 38.217816079378181 $464 $550 forward 7 unknown #
point $-1 38.217816079378181 -27.746571674546864 7.6560282748216366 #
point $-1 38.217816079378181 -22.794075491815391 7.6560282748216366 #
edge $-1 $551 1 $551 0 $342 $-1 forward 7 unknown #
vertex $-1 $343 $552 #
ellipse-curve $-1 26.866391709067067 -22.654540858293871 2.5506148004078191 0 -0.74314483375859142 0.66913059716165679 1 0 0 1 I I #
point $-1 27.866391709067067 -25.270323583181131 4.9058760862819248 #
edge $-1 $553 1 $553 0 $346 $-1 forward 7 unknown #
vertex $-1 $347 $554 #
ellipse-curve $-1 33.67724633125372 -22.654540858293871 2.5506148004078191 0 -0.74314483375859142 0.66913059716165679 1 0 0 1 I I #
point $-1 34.67724633125372 -25.270323583181131 4.9058760862819248 #
plane-surface $-1 40.861842707602158 0 0 -1 0 0 0 0 1 forward_v I I I I #
coedge $-1 $355 $353 $357 $485 reversed $241 $-1 #
edge $-1 $368 -7.6560282748216366 $487 7.6560282748216366 $367 $555 forward 7 unknown #
vertex $-1 $485 $556 #
straight-curve $-1 -40.861842707602158 -27.746571674546864 0 0 0 -1 I I #
edge $-1 $483 -27.746571674546864 $487 27.746571674546864 $481 $557 forward 7 unknown #
straight-curve $-1 0 -27.746571674546864 -7.6560282748216366 -1 0 0 I I #
vertex $-1 $360 $558 #
straight-curve $-1 0 27.746571674546864 -7.6560282748216366 1 0 0 I I #
point $-1 40.861842707602158 27.746571674546864 -7.6560282748216366 #
point $-1 40.861842707602158 -27.746571674546864 -7.6560282748216366 #
straight-curve $-1 -40.861842707602158 0 7.6560282748216366 0 -1 0 I I #
point $-1 -40.861842707602158 27.746571674546864 7.6560282748216366 #
point $-1 -40.861842707602158 -27.746571674546864 7.6560282748216366 #
straight-curve $-1 40.861842707602158 -27.746571674546864 0 0 0 -1 I I #
straight-curve $-1 40.861842707602158 27.746571674546864 0 0 0 -1 I I #
plane-surface $-1 0 -27.746571674546864 0 0 1 0 0 0 1 forward_v I I I I #
coedge $-1 $559 $380 $390 $508 reversed $260 $-1 #
coedge $-1 $380 $559 $393 $510 forward $260 $-1 #
coedge $-1 $560 $383 $381 $500 forward $378 $-1 #
edge $-1 $501 31.238869154100861 $561 40.861842707602158 $381 $562 forward 7 unknown #
vertex $-1 $500 $563 #
straight-curve $-1 -31.238869154100861 27.746571674546864 2.9620700720178856 0 0 -1 I I #
coedge $-1 $383 $560 $385 $505 forward $378 $-1 #
straight-curve $-1 -31.238869154100861 0 7.6560282748216366 0 1 0 I I #
edge $-1 $564 -40.861842707602158 $387 -31.238869154100861 $385 $565 forward 7 unknown #
point $-1 -31.238869154100861 -27.746571674546864 7.6560282748216357 #
straight-curve $-1 -40.861842707602158 0 4.1922520132499068 0 -1 0 I I #
edge $-1 $564 -7.6560282748216366 $391 -4.1922520132499068 $497 $566 forward 7 unknown #
point $-1 -40.861842707602158 -27.746571674546864 4.1922520132499068 #
edge $-1 $561 -7.6560282748216366 $394 -4.1922520132499068 $393 $567 forward 7 unknown #
point $-1 -40.861842707602158 27.746571674546864 4.1922520132499068 #
coedge $-1 $400 $516 $402 $514 reversed $276 $-1 #
straight-curve $-1 -17.796807363520166 27.746571674546864 49.910091653433909 0 0 -1 I I #
edge $-1 $403 17.796807363520166 $521 31.238869154100861 $512 $568 forward 7 unknown #
point $-1 -17.796807363520166 27.746571674546864 7.6560282748216366 #
coedge $-1 $512 $405 $408 $518 forward $276 $-1 #
straight-curve $-1 -12.258919129405257 27.746571674546864 2.2050308776720797 -1 0 0 I I #
edge $-1 $409 -47.705060775761829 $521 -42.254063378612273 $516 $569 forward 7 unknown #
point $-1 -31.238869154100861 27.746571674546864 2.2050308776720797 #
point $-1 -17.796807363520166 27.746571674546864 2.2050308776720797 #
vertex $-1 $413 $570 #
straight-curve $-1 -31.238869154100861 0 7.6560282748216366 0 -1 0 I I #
vertex $-1 $416 $571 #
point $-1 -28.050456795984722 24.141833847777765 4.1991758821889329 #
vertex $-1 $420 $572 #
point $-1 -24.017838258810514 24.141833847777765 4.1991758821889329 #
vertex $-1 $424 $573 #
point $-1 -19.985219721636305 24.141833847777765 4.1991758821889329 #
edge $-1 $530 20.763742886112993 $533 26.264047263192431 $429 $574 forward 7 unknown #
vertex $-1 $443 $575 #
straight-curve $-1 -13.724533969908887 -44.239553143284141 7.6560282748216366 0 -1 0 I I #
edge $-1 $533 -10.835265514563332 $440 5.056728603872223 $439 $576 forward 7 unknown #
vertex $-1 $532 $577 #
straight-curve $-1 -13.724533969908887 -27.74657167454685 2.1557238977422131 0 0.66913059716165679 0.74314483375859142 I I #
point $-1 -13.724533969908887 -22.794075491815391 7.6560282748216366 #
point $-1 2.1674601485266685 -27.746571674546864 2.1557238977421971 #
straight-curve $-1 0 -27.746571674546864 7.6560282748216366 1 0 0 I I #
vertex $-1 $446 $578 #
point $-1 -8.1839642217844464 -22.654540858293871 2.5506148004078191 #
vertex $-1 $450 $579 #
point $-1 -1.3731095995977824 -22.654540858293871 2.5506148004078191 #
edge $-1 $543 20.763742886112993 $546 26.264047263192431 $455 $580 forward 7 unknown #
vertex $-1 $469 $581 #
straight-curve $-1 22.325821960942623 -44.239553143284141 7.6560282748216366 0 -1 0 I I #
edge $-1 $546 7.1899124508624226 $466 23.081906569297981 $465 $582 forward 7 unknown #
vertex $-1 $545 $583 #
straight-curve $-1 22.325821960942623 -27.74657167454685 2.1557238977422131 0 0.66913059716165679 0.74314483375859142 I I #
point $-1 22.325821960942623 -22.794075491815391 7.6560282748216366 #
point $-1 38.217816079378181 -27.746571674546864 2.1557238977421971 #
straight-curve $-1 0 -27.746571674546864 7.6560282748216366 1 0 0 I I #
vertex $-1 $472 $584 #
point $-1 27.866391709067067 -22.654540858293871 2.5506148004078191 #
vertex $-1 $476 $585 #
point $-1 34.67724633125372 -22.654540858293871 2.5506148004078191 #
straight-curve $-1 -40.861842707602158 27.746571674546864 0 0 0 -1 I I #
point $-1 -40.861842707602158 -27.746571674546864 -7.6560282748216366 #
straight-curve $-1 -40.861842707602158 0 -7.6560282748216366 0 1 0 I I #
point $-1 -40.861842707602158 27.746571674546864 -7.6560282748216366 #
coedge $-1 $498 $497 $560 $586 reversed $260 $-1 #
coedge $-1 $503 $499 $559 $586 forward $378 $-1 #
vertex $-1 $500 $587 #
straight-curve $-1 0 27.746571674546864 7.6560282748216366 -1 0 0 I I #
point $-1 -31.238869154100861 27.746571674546864 7.6560282748216357 #
vertex $-1 $586 $588 #
straight-curve $-1 0 -27.746571674546864 7.6560282748216366 1 0 0 I I #
straight-curve $-1 -40.861842707602158 -27.746571674546864 0 0 0 -1 I I #
straight-curve $-1 -40.861842707602158 27.746571674546864 0 0 0 -1 I I #
straight-curve $-1 0 27.746571674546864 7.6560282748216366 -1 0 0 I I #
straight-curve $-1 -31.238869154100861 27.746571674546864 49.910091653433909 0 0 1 I I #
point $-1 -31.238869154100861 27.746571674546864 7.6560282748216357 #
point $-1 -28.550456795984722 23.800834663692296 3.8334990351599658 #
point $-1 -24.517838258810514 23.800834663692296 3.8334990351599658 #
point $-1 -20.485219721636305 23.800834663692296 3.8334990351599658 #
straight-curve $-1 -13.724533969908887 -27.746571674546864 28.41977116093463 0 0 -1 I I #
point $-1 -13.724533969908887 -27.746571674546864 7.6560282748216366 #
straight-curve $-1 -2.8892684553455545 -27.746571674546864 2.1557238977421989 1 0 0 I I #
point $-1 -13.724533969908887 -27.746571674546864 2.1557238977421971 #
point $-1 -9.1839642217844464 -21.911396024535279 1.8814842032461621 #
point $-1 -2.3731095995977824 -21.911396024535279 1.8814842032461621 #
straight-curve $-1 22.325821960942623 -27.746571674546864 28.41977116093463 0 0 -1 I I #
point $-1 22.325821960942623 -27.746571674546864 7.6560282748216366 #
straight-curve $-1 15.1359095100802 -27.746571674546864 2.1557238977421989 1 0 0 I I #
point $-1 22.325821960942623 -27.746571674546864 2.1557238977421971 #
point $-1 26.866391709067067 -21.911396024535279 1.8814842032461621 #
point $-1 33.67724633125372 -21.911396024535279 1.8814842032461621 #
edge $-1 $561 -27.746571674546864 $564 27.746571674546864 $559 $589 forward 7 unknown #
point $-1 -40.861842707602158 27.746571674546864 7.6560282748216366 #
point $-1 -40.861842707602158 -27.746571674546864 7.6560282748216366 #
straight-curve $-1 -40.861842707602158 0 7.6560282748216366 0 -1 0 I I #
End-of-ACIS-data 