500 0 5 0           
7 Unknown 11 ACIS 5.0 NT 24 Thu Mar 25 15:42:00 1999 
-1 9.9999999999999995e-007 1e-010 
body $-1 $5 $-1 $6 #
body $-1 $7 $-1 $8 #
body $-1 $9 $-1 $10 #
body $-1 $11 $-1 $12 #
body $-1 $13 $-1 $14 #
lump $-1 $-1 $15 $0 #
transform $-1 1 0 0 0 1 0 0 0 1 44.083376567888422 30.235596941640196 7.8766465972940729 1 rotate no_reflect no_shear #
lump $-1 $-1 $16 $1 #
transform $-1 1 0 0 0 1 0 0 0 1 44.083376567888422 30.235596941640196 7.8766465972940729 1 rotate no_reflect no_shear #
lump $-1 $-1 $17 $2 #
transform $-1 1 0 0 0 1 0 0 0 1 44.083376567888422 30.235596941640196 7.8766465972940729 1 rotate no_reflect no_shear #
lump $-1 $-1 $18 $3 #
transform $-1 1 0 0 0 1 0 0 0 1 44.083376567888422 30.235596941640196 7.8766465972940729 1 rotate no_reflect no_shear #
lump $-1 $-1 $19 $4 #
transform $-1 1 0 0 0 1 0 0 0 1 44.083376567888422 30.235596941640196 7.8766465972940729 1 rotate no_reflect no_shear #
shell $-1 $-1 $-1 $20 $-1 $5 #
shell $-1 $-1 $-1 $21 $-1 $7 #
shell $-1 $-1 $-1 $22 $-1 $9 #
shell $-1 $-1 $-1 $23 $-1 $11 #
shell $-1 $-1 $-1 $24 $-1 $13 #
face $-1 $25 $26 $15 $-1 $27 forward single #
face $-1 $28 $29 $16 $-1 $30 reversed single #
face $-1 $31 $32 $17 $-1 $33 forward single #
face $-1 $34 $35 $18 $-1 $36 reversed single #
face $-1 $37 $38 $19 $-1 $39 reversed single #
face $-1 $40 $41 $15 $-1 $42 reversed single #
loop $-1 $-1 $43 $20 #
plane-surface $-1 0 0 7.8766465972940729 0 0 1 1 0 0 forward_v I I I I #
face $-1 $44 $45 $16 $-1 $46 reversed single #
loop $-1 $-1 $47 $21 #
plane-surface $-1 -48.143230559616725 -19.028202908980482 0 0 1 0 0 0 1 forward_v I I I I #
face $-1 $48 $49 $17 $-1 $50 forward single #
loop $-1 $-1 $51 $22 #
plane-surface $-1 39.749276248756729 -30.235596941640203 0.40972344378035075 0 -0.51503808176128008 0.85716729658548041 1 0 0 forward_v I I I I #
face $-1 $52 $53 $18 $-1 $54 reversed single #
loop $-1 $55 $56 $23 #
cone-surface $-1 37.891804683414563 -23.764554512914739 3.7146013722444682 0 0.51503808176128008 -0.85716729658548041 0.5 0 0 1 I I 0 1 0.5 forward I I I I #
face $-1 $57 $58 $19 $-1 $59 reversed single #
loop $-1 $60 $61 $24 #
cone-surface $-1 41.606747814098895 -23.764554512914739 3.7146013722444682 0 0.51503808176128008 -0.85716729658548041 0.5 0 0 1 I I 0 1 0.5 forward I I I I #
face $-1 $62 $63 $15 $-1 $64 reversed single #
loop $-1 $-1 $65 $25 #
plane-surface $-1 0 0 -7.8766465972940729 0 0 1 1 0 0 forward_v I I I I #
coedge $-1 $66 $67 $68 $69 forward $26 $-1 #
face $-1 $70 $71 $16 $-1 $72 reversed single #
loop $-1 $-1 $73 $28 #
plane-surface $-1 -52.203084551345029 -17.047466793466597 0 1 0 0 0 0 -1 forward_v I I I I #
coedge $-1 $74 $75 $76 $77 forward $29 $-1 #
face $-1 $78 $79 $17 $-1 $80 forward single #
loop $-1 $-1 $81 $31 #
plane-surface $-1 35.415175929625015 -75.644832351811033 75.983380877893609 1 0 0 0 0.51503808176128008 -0.85716729658548041 forward_v I I I I #
coedge $-1 $82 $83 $84 $85 reversed $32 $-1 #
face $-1 $86 $87 $18 $-1 $88 forward single #
loop $-1 $89 $90 $34 #
cone-surface $-1 37.891804683414563 -23.378275951593778 3.071725899805358 0 0.51503808176128008 -0.85716729658548041 0.25 0 0 1 I I -0.70710678118654746 0.70710678118654746 0.25 forward I I I I #
loop $-1 $-1 $91 $23 #
coedge $-1 $56 $56 $92 $93 reversed $35 $-1 #
face $-1 $94 $95 $19 $-1 $96 reversed single #
loop $-1 $97 $98 $37 #
cone-surface $-1 41.606747814098895 -23.378275951593778 3.071725899805358 0 0.51503808176128008 -0.85716729658548041 0.25 0 0 1 I I -0.70710678118654746 0.70710678118654746 0.25 forward I I I I #
loop $-1 $-1 $99 $24 #
coedge $-1 $61 $61 $100 $101 reversed $38 $-1 #
face $-1 $102 $103 $15 $-1 $104 reversed single #
loop $-1 $-1 $105 $40 #
plane-surface $-1 0 -30.235596941640196 0 0 1 0 0 0 1 forward_v I I I I #
coedge $-1 $106 $107 $108 $109 forward $41 $-1 #
coedge $-1 $110 $43 $111 $112 forward $26 $-1 #
coedge $-1 $43 $110 $113 $114 forward $26 $-1 #
coedge $-1 $115 $116 $43 $69 reversed $117 $-1 #
edge $-1 $118 -30.235596941640196 $119 30.235596941640196 $68 $120 forward 7 unknown #
face $-1 $121 $122 $16 $-1 $123 reversed single #
loop $-1 $-1 $124 $44 #
plane-surface $-1 -48.143230559616725 -15.066730677952712 0 0 -1 0 0 0 -1 forward_v I I I I #
coedge $-1 $125 $126 $127 $128 forward $45 $-1 #
coedge $-1 $129 $47 $130 $131 reversed $29 $-1 #
coedge $-1 $47 $129 $132 $133 reversed $29 $-1 #
coedge $-1 $126 $125 $47 $77 reversed $45 $-1 #
edge $-1 $134 -7.8766465972940729 $135 7.8766465972940729 $76 $136 forward 7 unknown #
face $-1 $137 $138 $17 $-1 $139 reversed single #
loop $-1 $-1 $140 $48 #
plane-surface $-1 0 0 7.8766465972940729 0 0 1 1 0 0 forward_v I I I I #
coedge $-1 $141 $142 $140 $143 reversed $49 $-1 #
coedge $-1 $144 $51 $142 $145 reversed $32 $-1 #
coedge $-1 $51 $144 $146 $147 reversed $32 $-1 #
coedge $-1 $148 $140 $51 $85 forward $79 $-1 #
edge $-1 $149 15.54053780524665 $150 24.208738443510079 $84 $151 forward 7 unknown #
face $-1 $152 $153 $18 $-1 $154 forward single #
loop $-1 $155 $92 $52 #
plane-surface $-1 39.749276248756729 -30.235596941640203 0.40972344378035075 0 -0.51503808176128008 0.85716729658548041 1 0 0 forward_v I I I I #
loop $-1 $-1 $156 $34 #
coedge $-1 $90 $90 $91 $157 forward $53 $-1 #
coedge $-1 $91 $91 $90 $157 reversed $55 $-1 #
coedge $-1 $92 $92 $56 $93 forward $87 $-1 #
edge $-1 $158 1.2285913935065173e-015 $158 6.2831853071796013 $92 $159 forward 7 unknown #
face $-1 $160 $161 $19 $-1 $162 reversed single #
loop $-1 $163 $164 $57 #
cone-surface $-1 37.891804683414563 -23.764554512914739 3.7146013722444682 0 0.51503808176128008 -0.85716729658548041 0.5 0 0 1 I I 0 1 0.5 forward I I I I #
loop $-1 $-1 $165 $37 #
coedge $-1 $98 $98 $99 $166 forward $58 $-1 #
coedge $-1 $99 $99 $98 $166 reversed $60 $-1 #
coedge $-1 $100 $100 $61 $101 forward $167 $-1 #
edge $-1 $168 1.2285913935065173e-015 $168 6.2831853071796013 $100 $169 forward 7 unknown #
face $-1 $170 $171 $15 $-1 $172 reversed single #
loop $-1 $-1 $173 $62 #
plane-surface $-1 -44.083376567888422 0 0 1 0 0 0 0 -1 forward_v I I I I #
coedge $-1 $174 $113 $175 $176 forward $63 $-1 #
coedge $-1 $177 $65 $174 $178 forward $41 $-1 #
coedge $-1 $65 $177 $179 $180 forward $41 $-1 #
coedge $-1 $116 $115 $65 $109 reversed $117 $-1 #
edge $-1 $181 -30.235596941640196 $182 30.235596941640196 $108 $183 forward 7 unknown #
coedge $-1 $67 $66 $184 $185 forward $26 $-1 #
coedge $-1 $186 $187 $66 $112 reversed $171 $-1 #
edge $-1 $119 -44.083376567888422 $188 44.083376567888422 $111 $189 forward 7 unknown #
coedge $-1 $105 $190 $67 $114 reversed $63 $-1 #
edge $-1 $191 -44.083376567888422 $118 44.083376567888422 $113 $192 forward 7 unknown #
coedge $-1 $108 $68 $190 $193 forward $117 $-1 #
coedge $-1 $68 $108 $186 $194 reversed $117 $-1 #
loop $-1 $-1 $115 $170 #
vertex $-1 $69 $195 #
vertex $-1 $69 $196 #
straight-curve $-1 44.083376567888422 0 7.8766465972940729 0 1 0 I I #
face $-1 $197 $198 $16 $-1 $123 reversed single #
loop $-1 $-1 $199 $70 #
plane-surface $-1 -44.083376567888422 0 0 1 0 0 0 0 -1 forward_v I I I I #
coedge $-1 $200 $201 $199 $202 reversed $71 $-1 #
coedge $-1 $76 $73 $203 $204 reversed $45 $-1 #
coedge $-1 $73 $76 $205 $206 reversed $45 $-1 #
coedge $-1 $201 $200 $73 $128 reversed $71 $-1 #
edge $-1 $207 -7.8766465972940729 $208 7.8766465972940729 $127 $209 forward 7 unknown #
coedge $-1 $75 $74 $210 $211 reversed $29 $-1 #
coedge $-1 $203 $212 $74 $131 forward $213 $-1 #
edge $-1 $214 -4.0598539917283034 $135 4.0598539917283034 $74 $215 forward 7 unknown #
coedge $-1 $216 $205 $75 $133 forward $217 $-1 #
edge $-1 $134 -4.0598539917283034 $218 4.0598539917283034 $75 $219 forward 7 unknown #
vertex $-1 $206 $220 #
vertex $-1 $204 $221 #
straight-curve $-1 -52.203084551345029 -19.028202908980482 0 0 0 -1 I I #
face $-1 $222 $223 $17 $-1 $224 reversed single #
loop $-1 $-1 $146 $78 #
plane-surface $-1 44.083376567888422 0 0 -1 0 0 0 0 1 forward_v I I I I #
coedge $-1 $84 $225 $81 $143 forward $79 $-1 #
coedge $-1 $142 $81 $226 $227 reversed $49 $-1 #
coedge $-1 $81 $141 $82 $145 forward $49 $-1 #
edge $-1 $228 7.5868192342653202 $149 20.013866009954945 $140 $229 forward 7 unknown #
coedge $-1 $83 $82 $230 $231 reversed $32 $-1 #
edge $-1 $232 8.2919974363804304e-015 $149 14.497807866903788 $142 $233 forward 7 unknown #
coedge $-1 $234 $235 $83 $147 forward $138 $-1 #
edge $-1 $150 -1.6448370096154421 $236 12.852970857288337 $146 $237 forward 7 unknown #
coedge $-1 $238 $84 $235 $239 forward $79 $-1 #
vertex $-1 $85 $240 #
vertex $-1 $239 $241 #
straight-curve $-1 19.874638124378365 -17.808550165950574 7.8766465972940729 1 0 0 I I #
face $-1 $242 $243 $18 $-1 $244 forward single #
loop $-1 $-1 $245 $86 #
plane-surface $-1 35.415175929625015 -75.644832351811033 75.983380877893609 1 0 0 0 0.51503808176128008 -0.85716729658548041 forward_v I I I I #
loop $-1 $-1 $246 $52 #
coedge $-1 $156 $156 $-1 $247 forward $89 $-1 #
edge $-1 $248 0 $248 6.2831853071796004 $90 $249 forward 7 unknown #
vertex $-1 $93 $250 #
ellipse-curve $-1 37.891804683414563 -24.022073553795384 4.1431850205372154 0 0.51503808176128008 -0.85716729658548041 0.5 0 0 1 I I #
face $-1 $251 $167 $19 $-1 $252 forward single #
loop $-1 $253 $254 $94 #
cone-surface $-1 37.891804683414563 -23.378275951593778 3.071725899805358 0 0.51503808176128008 -0.85716729658548041 0.25 0 0 1 I I -0.70710678118654746 0.70710678118654746 0.25 forward I I I I #
loop $-1 $-1 $255 $57 #
coedge $-1 $164 $164 $256 $257 reversed $95 $-1 #
coedge $-1 $165 $165 $-1 $258 forward $97 $-1 #
edge $-1 $259 0 $259 6.2831853071796004 $98 $260 forward 7 unknown #
loop $-1 $261 $100 $160 #
vertex $-1 $101 $262 #
ellipse-curve $-1 41.606747814098895 -24.022073553795384 4.1431850205372154 0 0.51503808176128008 -0.85716729658548041 0.5 0 0 1 I I #
face $-1 $-1 $117 $15 $-1 $263 reversed single #
loop $-1 $-1 $186 $102 #
plane-surface $-1 0 30.235596941640196 0 0 -1 0 0 0 -1 forward_v I I I I #
coedge $-1 $264 $184 $187 $265 forward $103 $-1 #
coedge $-1 $190 $105 $106 $178 reversed $63 $-1 #
coedge $-1 $184 $264 $105 $176 reversed $103 $-1 #
edge $-1 $191 -7.8766465972940729 $266 7.8766465972940729 $175 $267 forward 7 unknown #
coedge $-1 $107 $106 $264 $268 forward $41 $-1 #
edge $-1 $182 -44.083376567888422 $266 44.083376567888422 $174 $269 forward 7 unknown #
coedge $-1 $187 $186 $107 $180 reversed $171 $-1 #
edge $-1 $270 -44.083376567888422 $181 44.083376567888422 $179 $271 forward 7 unknown #
vertex $-1 $109 $272 #
vertex $-1 $193 $273 #
straight-curve $-1 44.083376567888422 0 -7.8766465972940729 0 -1 0 I I #
coedge $-1 $173 $175 $110 $185 reversed $103 $-1 #
edge $-1 $188 -30.235596941640196 $191 30.235596941640196 $184 $274 forward 7 unknown #
coedge $-1 $179 $111 $116 $194 forward $171 $-1 #
coedge $-1 $111 $179 $173 $265 reversed $171 $-1 #
vertex $-1 $112 $275 #
straight-curve $-1 0 30.235596941640196 7.8766465972940729 -1 0 0 I I #
coedge $-1 $113 $174 $115 $193 reversed $63 $-1 #
vertex $-1 $185 $276 #
straight-curve $-1 0 -30.235596941640196 7.8766465972940729 1 0 0 I I #
edge $-1 $118 -7.8766465972940729 $182 7.8766465972940729 $115 $277 forward 7 unknown #
edge $-1 $119 -7.8766465972940729 $181 7.8766465972940729 $116 $278 forward 7 unknown #
point $-1 44.083376567888422 -30.235596941640196 7.8766465972940729 #
point $-1 44.083376567888422 30.235596941640196 7.8766465972940729 #
face $-1 $279 $217 $16 $-1 $280 forward single #
loop $-1 $-1 $210 $121 #
coedge $-1 $281 $282 $124 $202 forward $122 $-1 #
coedge $-1 $127 $124 $283 $284 reversed $71 $-1 #
coedge $-1 $124 $127 $285 $286 reversed $71 $-1 #
edge $-1 $287 -7.8766465972940729 $288 7.8766465972940729 $199 $289 forward 7 unknown #
coedge $-1 $283 $130 $125 $204 forward $213 $-1 #
edge $-1 $135 -1.980736115513885 $208 1.980736115513885 $125 $290 forward 7 unknown #
coedge $-1 $132 $285 $126 $206 forward $217 $-1 #
edge $-1 $207 -1.980736115513885 $134 1.980736115513885 $126 $291 forward 7 unknown #
vertex $-1 $286 $292 #
vertex $-1 $284 $293 #
straight-curve $-1 -52.203084551345029 -15.066730677952712 0 0 0 -1 I I #
coedge $-1 $294 $295 $129 $211 forward $198 $-1 #
edge $-1 $218 -7.8766465972940729 $214 7.8766465972940729 $210 $296 forward 7 unknown #
coedge $-1 $130 $297 $294 $298 forward $213 $-1 #
loop $-1 $-1 $299 $279 #
vertex $-1 $131 $300 #
straight-curve $-1 -48.143230559616725 -19.028202908980482 -7.8766465972940729 -1 0 0 I I #
coedge $-1 $301 $132 $295 $302 forward $217 $-1 #
loop $-1 $-1 $303 $197 #
vertex $-1 $302 $304 #
straight-curve $-1 -48.143230559616725 -19.028202908980482 7.8766465972940729 1 0 0 I I #
point $-1 -52.203084551345029 -19.028202908980482 7.8766465972940729 #
point $-1 -52.203084551345029 -19.028202908980482 -7.8766465972940729 #
face $-1 $305 $306 $17 $-1 $307 reversed single #
loop $-1 $-1 $308 $137 #
plane-surface $-1 -48.143230559616725 -19.028202908980482 0 0 1 0 0 0 1 forward_v I I I I #
coedge $-1 $140 $309 $310 $311 forward $79 $-1 #
coedge $-1 $310 $230 $141 $227 forward $312 $-1 #
edge $-1 $232 -37.581966995166447 $228 -30.115043841652732 $226 $313 forward 7 unknown #
vertex $-1 $227 $314 #
straight-curve $-1 35.415175929625015 -37.822416175905516 7.8766465972940694 0 1 0 I I #
coedge $-1 $226 $315 $144 $231 forward $312 $-1 #
edge $-1 $236 -24.208738443510079 $232 -15.54053780524665 $230 $316 forward 7 unknown #
vertex $-1 $231 $317 #
straight-curve $-1 35.415175929625015 -30.235596941640203 0.40972344378035075 0 0.85716729658548041 0.51503808176128008 I I #
coedge $-1 $318 $146 $315 $319 forward $138 $-1 #
coedge $-1 $146 $320 $148 $239 reversed $138 $-1 #
vertex $-1 $319 $321 #
straight-curve $-1 44.083376567888422 -19.218450658806386 7.0294928990517764 0 -0.85716729658548041 -0.51503808176128008 I I #
coedge $-1 $322 $148 $323 $324 forward $79 $-1 #
edge $-1 $150 -17.808550165950571 $325 30.235596941640196 $235 $326 forward 7 unknown #
point $-1 35.415175929625015 -17.808550165950571 7.8766465972940729 #
point $-1 44.083376567888443 -17.808550165950571 7.8766465972940729 #
face $-1 $327 $328 $18 $-1 $329 reversed single #
loop $-1 $-1 $330 $152 #
plane-surface $-1 0 0 7.8766465972940729 0 0 1 1 0 0 forward_v I I I I #
coedge $-1 $331 $332 $330 $333 reversed $153 $-1 #
coedge $-1 $334 $335 $336 $337 reversed $155 $-1 #
edge $-1 $338 1 $338 0 $156 $-1 forward 7 unknown #
vertex $-1 $157 $339 #
ellipse-curve $-1 37.891804683414563 -23.507035472034097 3.2860177239517281 0 -0.51503808176128008 0.85716729658548041 0.5 0 0 1 I I #
point $-1 38.391804683414563 -24.02207355379538 4.1431850205372083 #
face $-1 $340 $341 $19 $-1 $342 forward single #
plane-surface $-1 39.749276248756729 -30.235596941640203 0.40972344378035075 0 -0.51503808176128008 0.85716729658548041 1 0 0 forward_v I I I I #
loop $-1 $-1 $343 $94 #
coedge $-1 $254 $254 $255 $344 forward $161 $-1 #
coedge $-1 $255 $255 $254 $344 reversed $163 $-1 #
coedge $-1 $256 $256 $164 $257 forward $261 $-1 #
edge $-1 $345 1.2285913935065173e-015 $345 6.2831853071796013 $256 $346 forward 7 unknown #
edge $-1 $347 1 $347 0 $165 $-1 forward 7 unknown #
vertex $-1 $166 $348 #
ellipse-curve $-1 41.606747814098895 -23.507035472034097 3.2860177239517281 0 -0.51503808176128008 0.85716729658548041 0.5 0 0 1 I I #
loop $-1 $349 $256 $160 #
point $-1 42.106747814098895 -24.02207355379538 4.1431850205372083 #
plane-surface $-1 44.083376567888422 0 0 -1 0 0 0 0 1 forward_v I I I I #
coedge $-1 $175 $173 $177 $268 reversed $103 $-1 #
edge $-1 $188 -7.8766465972940729 $270 7.8766465972940729 $187 $350 forward 7 unknown #
vertex $-1 $268 $351 #
straight-curve $-1 -44.083376567888422 -30.235596941640196 0 0 0 -1 I I #
edge $-1 $266 -30.235596941640196 $270 30.235596941640196 $264 $352 forward 7 unknown #
straight-curve $-1 0 -30.235596941640196 -7.8766465972940729 -1 0 0 I I #
vertex $-1 $180 $353 #
straight-curve $-1 0 30.235596941640196 -7.8766465972940729 1 0 0 I I #
point $-1 44.083376567888422 30.235596941640196 -7.8766465972940729 #
point $-1 44.083376567888422 -30.235596941640196 -7.8766465972940729 #
straight-curve $-1 -44.083376567888422 0 7.8766465972940729 0 -1 0 I I #
point $-1 -44.083376567888422 30.235596941640196 7.8766465972940729 #
point $-1 -44.083376567888422 -30.235596941640196 7.8766465972940729 #
straight-curve $-1 44.083376567888422 -30.235596941640196 0 0 0 -1 I I #
straight-curve $-1 44.083376567888422 30.235596941640196 0 0 0 -1 I I #
face $-1 $354 $213 $16 $-1 $355 reversed single #
plane-surface $-1 0 0 7.8766465972940729 0 0 1 1 0 0 forward_v I I I I #
coedge $-1 $356 $199 $357 $358 reversed $122 $-1 #
coedge $-1 $199 $356 $359 $360 reversed $122 $-1 #
coedge $-1 $359 $203 $200 $284 forward $213 $-1 #
edge $-1 $208 -4.0598539917283034 $287 4.0598539917283034 $200 $361 forward 7 unknown #
coedge $-1 $205 $357 $201 $286 forward $217 $-1 #
edge $-1 $288 -4.0598539917283034 $207 4.0598539917283034 $201 $362 forward 7 unknown #
vertex $-1 $360 $363 #
vertex $-1 $286 $364 #
straight-curve $-1 -44.083376567888422 -15.066730677952712 0 0 0 1 I I #
straight-curve $-1 -52.203084551345029 -17.047466793466597 -7.8766465972940729 0 1 0 I I #
straight-curve $-1 -52.203084551345029 -17.047466793466597 7.8766465972940729 0 -1 0 I I #
point $-1 -52.203084551345029 -15.066730677952712 7.8766465972940729 #
point $-1 -52.203084551345029 -15.066730677952712 -7.8766465972940729 #
coedge $-1 $365 $210 $212 $298 reversed $198 $-1 #
coedge $-1 $210 $365 $216 $302 reversed $198 $-1 #
straight-curve $-1 -44.083376567888422 -19.028202908980482 0 0 0 -1 I I #
coedge $-1 $212 $299 $366 $367 forward $213 $-1 #
edge $-1 $368 -30.235596941640196 $214 -19.028202908980482 $294 $369 forward 7 unknown #
coedge $-1 $297 $370 $371 $372 forward $213 $-1 #
point $-1 -44.083376567888422 -19.028202908980482 -7.8766465972940729 #
coedge $-1 $303 $216 $373 $374 forward $217 $-1 #
edge $-1 $218 19.028202908980482 $375 30.235596941640196 $295 $376 forward 7 unknown #
coedge $-1 $377 $301 $378 $379 forward $217 $-1 #
point $-1 -44.083376567888422 -19.028202908980482 7.8766465972940729 #
face $-1 $380 $381 $17 $-1 $382 reversed single #
loop $-1 $-1 $383 $222 #
plane-surface $-1 -52.203084551345029 -17.047466793466597 0 1 0 0 0 0 -1 forward_v I I I I #
coedge $-1 $384 $385 $386 $387 forward $223 $-1 #
coedge $-1 $225 $388 $389 $390 forward $79 $-1 #
coedge $-1 $391 $226 $225 $311 reversed $312 $-1 #
edge $-1 $392 -44.083376567888422 $228 35.415175929625015 $310 $393 forward 7 unknown #
loop $-1 $-1 $226 $394 #
straight-curve $-1 35.415175929625015 -30.235596941640196 37.991690438946804 0 0 1 I I #
point $-1 35.415175929625015 -30.235596941640196 7.8766465972940729 #
coedge $-1 $230 $395 $234 $319 reversed $312 $-1 #
straight-curve $-1 19.874638124378365 -30.235596941640196 0.40972344378035513 -1 0 0 I I #
point $-1 35.415175929625015 -30.235596941640196 0.40972344378035502 #
coedge $-1 $320 $234 $396 $397 reversed $138 $-1 #
edge $-1 $236 -0.40972344378035502 $398 7.8766465972940729 $234 $399 forward 7 unknown #
coedge $-1 $235 $318 $400 $401 reversed $138 $-1 #
point $-1 44.083376567888443 -30.235596941640196 0.40972344378035502 #
coedge $-1 $402 $238 $403 $404 forward $79 $-1 #
coedge $-1 $400 $405 $238 $324 reversed $406 $-1 #
edge $-1 $325 -44.083376567888422 $407 44.083376567888422 $323 $408 forward 7 unknown #
vertex $-1 $239 $409 #
straight-curve $-1 44.083376567888422 0 7.8766465972940729 0 1 0 I I #
face $-1 $410 $411 $18 $-1 $412 reversed single #
loop $-1 $-1 $413 $242 #
plane-surface $-1 44.083376567888422 0 0 -1 0 0 0 0 1 forward_v I I I I #
coedge $-1 $336 $414 $245 $333 forward $243 $-1 #
coedge $-1 $332 $245 $415 $416 reversed $153 $-1 #
coedge $-1 $245 $331 $334 $417 forward $153 $-1 #
edge $-1 $418 7.5868192342653202 $419 20.013866009954945 $330 $420 forward 7 unknown #
coedge $-1 $421 $246 $332 $417 reversed $155 $-1 #
coedge $-1 $246 $421 $413 $422 reversed $155 $-1 #
coedge $-1 $423 $330 $246 $337 forward $243 $-1 #
edge $-1 $419 15.54053780524665 $424 24.208738443510079 $336 $425 forward 7 unknown #
vertex $-1 $247 $426 #
point $-1 38.391804683414563 -23.507035472034097 3.2860177239517281 #
face $-1 $427 $428 $19 $-1 $429 forward single #
loop $-1 $-1 $430 $251 #
plane-surface $-1 35.415175929625015 -75.644832351811033 75.983380877893609 1 0 0 0 0.51503808176128008 -0.85716729658548041 forward_v I I I I #
coedge $-1 $343 $343 $-1 $431 forward $253 $-1 #
edge $-1 $432 0 $432 6.2831853071796004 $254 $433 forward 7 unknown #
vertex $-1 $257 $434 #
ellipse-curve $-1 37.891804683414563 -24.022073553795384 4.1431850205372154 0 0.51503808176128008 -0.85716729658548041 0.5 0 0 1 I I #
vertex $-1 $258 $435 #
point $-1 42.106747814098895 -23.507035472034097 3.2860177239517281 #
loop $-1 $-1 $436 $160 #
straight-curve $-1 -44.083376567888422 30.235596941640196 0 0 0 -1 I I #
point $-1 -44.083376567888422 -30.235596941640196 -7.8766465972940729 #
straight-curve $-1 -44.083376567888422 0 -7.8766465972940729 0 1 0 I I #
point $-1 -44.083376567888422 30.235596941640196 -7.8766465972940729 #
face $-1 $437 $438 $16 $-1 $439 reversed single #
plane-surface $-1 0 0 -7.8766465972940729 0 0 1 1 0 0 forward_v I I I I #
coedge $-1 $282 $281 $440 $441 forward $122 $-1 #
coedge $-1 $285 $377 $281 $358 forward $217 $-1 #
edge $-1 $442 -30.235596941640196 $288 15.066730677952712 $281 $376 forward 7 unknown #
coedge $-1 $370 $283 $282 $360 forward $213 $-1 #
edge $-1 $287 -15.066730677952712 $443 30.235596941640196 $282 $369 forward 7 unknown #
straight-curve $-1 -48.143230559616725 -15.066730677952712 -7.8766465972940729 1 0 0 I I #
straight-curve $-1 -48.143230559616725 -15.066730677952712 7.8766465972940729 -1 0 0 I I #
point $-1 -44.083376567888422 -15.066730677952712 -7.8766465972940729 #
point $-1 -44.083376567888422 -15.066730677952712 7.8766465972940729 #
coedge $-1 $295 $294 $444 $445 reversed $198 $-1 #
coedge $-1 $446 $444 $297 $367 reversed $438 $-1 #
edge $-1 $447 -44.083376567888422 $368 44.083376567888422 $366 $448 forward 7 unknown #
vertex $-1 $298 $449 #
straight-curve $-1 -44.083376567888422 0 -7.8766465972940729 0 1 0 I I #
coedge $-1 $299 $359 $450 $451 forward $213 $-1 #
coedge $-1 $452 $453 $299 $372 reversed $454 $-1 #
edge $-1 $455 -30.235596941640196 $447 30.235596941640196 $371 $456 forward 7 unknown #
coedge $-1 $444 $446 $301 $374 reversed $438 $-1 #
edge $-1 $375 -44.083376567888422 $457 44.083376567888422 $373 $458 forward 7 unknown #
vertex $-1 $302 $459 #
straight-curve $-1 -44.083376567888422 0 7.8766465972940729 0 -1 0 I I #
coedge $-1 $357 $303 $460 $461 forward $217 $-1 #
coedge $-1 $453 $452 $303 $379 reversed $454 $-1 #
edge $-1 $457 -30.235596941640196 $462 30.235596941640196 $378 $463 forward 7 unknown #
face $-1 $464 $465 $17 $-1 $466 reversed single #
loop $-1 $-1 $467 $305 #
plane-surface $-1 -48.143230559616725 -15.066730677952712 0 0 -1 0 0 0 -1 forward_v I I I I #
coedge $-1 $468 $469 $470 $471 forward $306 $-1 #
coedge $-1 $472 $308 $473 $474 reversed $223 $-1 #
coedge $-1 $308 $472 $388 $475 reversed $223 $-1 #
coedge $-1 $469 $468 $308 $387 reversed $306 $-1 #
edge $-1 $476 -7.8766465972940729 $477 7.8766465972940729 $386 $478 forward 7 unknown #
coedge $-1 $309 $479 $385 $475 forward $79 $-1 #
coedge $-1 $480 $481 $309 $390 reversed $482 $-1 #
edge $-1 $483 19.028202908980482 $392 30.235596941640196 $389 $484 forward 7 unknown #
coedge $-1 $395 $310 $481 $485 forward $312 $-1 #
vertex $-1 $390 $486 #
straight-curve $-1 0 -30.235596941640196 7.8766465972940729 1 0 0 I I #
face $-1 $487 $312 $17 $-1 $488 reversed single #
coedge $-1 $315 $391 $489 $490 reversed $312 $-1 #
coedge $-1 $489 $491 $318 $397 forward $492 $-1 #
edge $-1 $493 -30.235596941640196 $398 30.235596941640196 $318 $494 forward 7 unknown #
vertex $-1 $319 $495 #
straight-curve $-1 44.083376567888422 -30.235596941640196 0 0 0 -1 I I #
coedge $-1 $496 $323 $320 $401 forward $406 $-1 #
edge $-1 $325 -7.8766465972940729 $493 7.8766465972940729 $320 $497 forward 7 unknown #
coedge $-1 $479 $322 $498 $499 forward $79 $-1 #
coedge $-1 $500 $501 $322 $404 reversed $465 $-1 #
edge $-1 $407 -30.235596941640196 $502 15.066730677952712 $403 $484 forward 7 unknown #
coedge $-1 $323 $496 $500 $503 reversed $406 $-1 #
loop $-1 $-1 $400 $487 #
vertex $-1 $324 $504 #
straight-curve $-1 0 30.235596941640196 7.8766465972940729 -1 0 0 I I #
point $-1 44.083376567888422 30.235596941640196 7.8766465972940729 #
face $-1 $505 $506 $18 $-1 $507 reversed single #
loop $-1 $-1 $508 $327 #
plane-surface $-1 -48.143230559616725 -19.028202908980482 0 0 1 0 0 0 1 forward_v I I I I #
coedge $-1 $509 $510 $335 $422 forward $328 $-1 #
coedge $-1 $330 $511 $512 $513 forward $243 $-1 #
coedge $-1 $512 $514 $331 $416 forward $515 $-1 #
edge $-1 $516 -37.581966995166447 $418 -30.115043841652732 $415 $517 forward 7 unknown #
edge $-1 $516 8.2919974363804304e-015 $419 14.497807866903788 $332 $518 forward 7 unknown #
vertex $-1 $416 $519 #
vertex $-1 $337 $520 #
straight-curve $-1 35.415175929625015 -37.822416175905516 7.8766465972940694 0 1 0 I I #
coedge $-1 $335 $334 $514 $521 reversed $155 $-1 #
edge $-1 $424 -1.6448370096154421 $522 12.852970857288337 $413 $523 forward 7 unknown #
coedge $-1 $524 $336 $510 $525 forward $243 $-1 #
vertex $-1 $525 $526 #
straight-curve $-1 19.874638124378365 -17.808550165950574 7.8766465972940729 1 0 0 I I #
point $-1 37.891804683414563 -23.249516431153459 2.857434075658988 #
face $-1 $527 $528 $19 $-1 $529 reversed single #
loop $-1 $-1 $530 $340 #
plane-surface $-1 0 0 7.8766465972940729 0 0 1 1 0 0 forward_v I I I I #
coedge $-1 $531 $532 $530 $533 reversed $341 $-1 #
edge $-1 $534 1 $534 0 $343 $-1 forward 7 unknown #
vertex $-1 $344 $535 #
ellipse-curve $-1 37.891804683414563 -23.507035472034097 3.2860177239517281 0 -0.51503808176128008 0.85716729658548041 0.5 0 0 1 I I #
point $-1 38.391804683414563 -24.02207355379538 4.1431850205372083 #
point $-1 41.606747814098895 -23.249516431153459 2.857434075658988 #
coedge $-1 $536 $537 $538 $539 reversed $349 $-1 #
face $-1 $540 $541 $16 $-1 $542 reversed single #
loop $-1 $-1 $444 $354 #
plane-surface $-1 0 -30.235596941640196 0 0 1 0 0 0 1 forward_v I I I I #
coedge $-1 $460 $450 $356 $441 reversed $541 $-1 #
edge $-1 $442 -7.8766465972940729 $443 7.8766465972940729 $440 $543 forward 7 unknown #
vertex $-1 $461 $544 #
vertex $-1 $451 $545 #
coedge $-1 $366 $373 $365 $445 forward $438 $-1 #
edge $-1 $375 -7.8766465972940729 $368 7.8766465972940729 $365 $546 forward 7 unknown #
coedge $-1 $373 $366 $453 $547 reversed $438 $-1 #
vertex $-1 $547 $548 #
straight-curve $-1 0 -30.235596941640196 -7.8766465972940729 -1 0 0 I I #
point $-1 -44.083376567888422 -30.235596941640196 -7.8766465972940729 #
coedge $-1 $440 $549 $370 $451 reversed $541 $-1 #
edge $-1 $443 -44.083376567888422 $455 44.083376567888422 $450 $550 forward 7 unknown #
coedge $-1 $378 $371 $549 $551 reversed $454 $-1 #
coedge $-1 $371 $378 $446 $547 forward $454 $-1 #
loop $-1 $-1 $453 $540 #
vertex $-1 $372 $552 #
straight-curve $-1 44.083376567888422 0 -7.8766465972940729 0 -1 0 I I #
vertex $-1 $379 $553 #
straight-curve $-1 0 -30.235596941640196 7.8766465972940729 1 0 0 I I #
point $-1 -44.083376567888422 -30.235596941640196 7.8766465972940729 #
coedge $-1 $549 $440 $377 $461 reversed $541 $-1 #
edge $-1 $462 -44.083376567888422 $442 44.083376567888422 $460 $554 forward 7 unknown #
vertex $-1 $379 $555 #
straight-curve $-1 44.083376567888422 0 7.8766465972940729 0 1 0 I I #
face $-1 $556 $482 $17 $-1 $466 reversed single #
loop $-1 $-1 $501 $380 #
plane-surface $-1 -44.083376567888422 0 0 1 0 0 0 0 -1 forward_v I I I I #
coedge $-1 $557 $498 $501 $558 reversed $381 $-1 #
coedge $-1 $386 $383 $559 $560 reversed $306 $-1 #
coedge $-1 $383 $386 $479 $561 reversed $306 $-1 #
coedge $-1 $498 $557 $383 $471 reversed $381 $-1 #
edge $-1 $562 -7.8766465972940729 $563 7.8766465972940729 $470 $564 forward 7 unknown #
coedge $-1 $385 $384 $480 $565 reversed $223 $-1 #
coedge $-1 $559 $566 $384 $474 forward $492 $-1 #
edge $-1 $567 -4.0598539917283034 $477 4.0598539917283034 $384 $568 forward 7 unknown #
edge $-1 $476 -4.0598539917283034 $483 4.0598539917283034 $385 $569 forward 7 unknown #
vertex $-1 $561 $570 #
vertex $-1 $560 $571 #
straight-curve $-1 -52.203084551345029 -19.028202908980482 0 0 0 -1 I I #
coedge $-1 $388 $402 $469 $561 forward $79 $-1 #
coedge $-1 $572 $389 $472 $565 forward $482 $-1 #
coedge $-1 $389 $572 $391 $485 reversed $482 $-1 #
loop $-1 $-1 $480 $464 #
vertex $-1 $390 $573 #
straight-curve $-1 -44.083376567888422 0 7.8766465972940729 0 -1 0 I I #
edge $-1 $392 -7.8766465972940729 $574 7.8766465972940729 $481 $575 forward 7 unknown #
point $-1 -44.083376567888422 -30.235596941640196 7.8766465972940729 #
face $-1 $-1 $406 $17 $-1 $576 reversed single #
plane-surface $-1 0 -30.235596941640196 0 0 1 0 0 0 1 forward_v I I I I #
coedge $-1 $566 $396 $395 $490 forward $492 $-1 #
edge $-1 $398 -44.083376567888422 $574 44.083376567888422 $395 $577 forward 7 unknown #
coedge $-1 $396 $578 $496 $579 forward $492 $-1 #
loop $-1 $-1 $396 $556 #
vertex $-1 $397 $580 #
straight-curve $-1 44.083376567888422 0 -7.8766465972940729 0 -1 0 I I #
point $-1 44.083376567888422 -30.235596941640196 -7.8766465972940729 #
coedge $-1 $405 $400 $491 $579 reversed $406 $-1 #
straight-curve $-1 44.083376567888422 30.235596941640196 0 0 0 -1 I I #
coedge $-1 $467 $470 $402 $499 reversed $381 $-1 #
edge $-1 $502 -4.0598539917283034 $562 4.0598539917283034 $498 $581 forward 7 unknown #
coedge $-1 $582 $403 $405 $503 forward $465 $-1 #
coedge $-1 $403 $582 $467 $558 forward $465 $-1 #
vertex $-1 $499 $583 #
edge $-1 $407 -7.8766465972940729 $584 7.8766465972940729 $405 $585 forward 7 unknown #
point $-1 -44.083376567888422 30.235596941640196 7.8766465972940729 #
face $-1 $586 $587 $18 $-1 $588 reversed single #
loop $-1 $-1 $589 $410 #
plane-surface $-1 -52.203084551345029 -17.047466793466597 0 1 0 0 0 0 -1 forward_v I I I I #
coedge $-1 $590 $591 $592 $593 forward $411 $-1 #
coedge $-1 $594 $413 $595 $596 forward $328 $-1 #
coedge $-1 $413 $597 $423 $525 reversed $328 $-1 #
coedge $-1 $414 $598 $599 $600 forward $243 $-1 #
coedge $-1 $601 $415 $414 $513 reversed $515 $-1 #
edge $-1 $602 -44.083376567888422 $418 35.415175929625015 $512 $603 forward 7 unknown #
coedge $-1 $415 $595 $421 $521 forward $515 $-1 #
loop $-1 $-1 $415 $604 #
vertex $-1 $521 $605 #
straight-curve $-1 35.415175929625015 -30.235596941640196 37.991690438946804 0 0 1 I I #
straight-curve $-1 35.415175929625015 -30.235596941640203 0.40972344378035075 0 0.85716729658548041 0.51503808176128008 I I #
point $-1 35.415175929625015 -30.235596941640196 7.8766465972940729 #
point $-1 35.415175929625015 -17.808550165950571 7.8766465972940729 #
edge $-1 $522 -24.208738443510079 $516 -15.54053780524665 $514 $606 forward 7 unknown #
vertex $-1 $596 $607 #
straight-curve $-1 44.083376567888422 -19.218450658806386 7.0294928990517764 0 -0.85716729658548041 -0.51503808176128008 I I #
coedge $-1 $608 $423 $609 $610 forward $243 $-1 #
edge $-1 $424 -17.808550165950571 $611 30.235596941640196 $510 $612 forward 7 unknown #
point $-1 44.083376567888443 -17.808550165950571 7.8766465972940729 #
face $-1 $613 $614 $19 $-1 $615 reversed single #
loop $-1 $-1 $616 $427 #
plane-surface $-1 44.083376567888422 0 0 -1 0 0 0 0 1 forward_v I I I I #
coedge $-1 $538 $617 $430 $533 forward $428 $-1 #
coedge $-1 $532 $430 $618 $619 reversed $341 $-1 #
coedge $-1 $430 $531 $536 $620 forward $341 $-1 #
edge $-1 $621 7.5868192342653202 $622 20.013866009954945 $530 $623 forward 7 unknown #
vertex $-1 $431 $624 #
point $-1 38.391804683414563 -23.507035472034097 3.2860177239517281 #
coedge $-1 $625 $436 $532 $620 reversed $349 $-1 #
coedge $-1 $436 $625 $616 $626 reversed $349 $-1 #
coedge $-1 $627 $530 $436 $539 forward $428 $-1 #
edge $-1 $622 15.54053780524665 $628 24.208738443510079 $538 $629 forward 7 unknown #
face $-1 $-1 $454 $16 $-1 $630 reversed single #
loop $-1 $-1 $549 $437 #
plane-surface $-1 0 30.235596941640196 0 0 -1 0 0 0 -1 forward_v I I I I #
straight-curve $-1 -44.083376567888422 30.235596941640196 0 0 0 -1 I I #
point $-1 -44.083376567888422 30.235596941640196 7.8766465972940729 #
point $-1 -44.083376567888422 30.235596941640196 -7.8766465972940729 #
straight-curve $-1 -44.083376567888422 -30.235596941640196 0 0 0 -1 I I #
edge $-1 $457 -7.8766465972940729 $447 7.8766465972940729 $453 $631 forward 7 unknown #
point $-1 44.083376567888422 -30.235596941640196 -7.8766465972940729 #
coedge $-1 $450 $460 $452 $551 forward $541 $-1 #
straight-curve $-1 0 30.235596941640196 -7.8766465972940729 1 0 0 I I #
edge $-1 $462 -7.8766465972940729 $455 7.8766465972940729 $452 $632 forward 7 unknown #
point $-1 44.083376567888422 30.235596941640196 -7.8766465972940729 #
point $-1 44.083376567888422 -30.235596941640196 7.8766465972940729 #
straight-curve $-1 0 30.235596941640196 7.8766465972940729 -1 0 0 I I #
point $-1 44.083376567888422 30.235596941640196 7.8766465972940729 #
face $-1 $394 $492 $17 $-1 $633 reversed single #
coedge $-1 $470 $467 $634 $635 reversed $381 $-1 #
edge $-1 $636 -7.8766465972940729 $502 7.8766465972940729 $501 $637 forward 7 unknown #
coedge $-1 $634 $473 $468 $560 forward $492 $-1 #
edge $-1 $477 -1.980736115513885 $563 1.980736115513885 $468 $638 forward 7 unknown #
edge $-1 $562 -1.980736115513885 $476 1.980736115513885 $469 $639 forward 7 unknown #
vertex $-1 $499 $640 #
vertex $-1 $635 $641 #
straight-curve $-1 -52.203084551345029 -15.066730677952712 0 0 0 -1 I I #
edge $-1 $483 -7.8766465972940729 $567 7.8766465972940729 $480 $642 forward 7 unknown #
coedge $-1 $473 $489 $572 $643 forward $492 $-1 #
vertex $-1 $474 $644 #
straight-curve $-1 -48.143230559616725 -19.028202908980482 -7.8766465972940729 -1 0 0 I I #
straight-curve $-1 -48.143230559616725 -19.028202908980482 7.8766465972940729 1 0 0 I I #
point $-1 -52.203084551345029 -19.028202908980482 7.8766465972940729 #
point $-1 -52.203084551345029 -19.028202908980482 -7.8766465972940729 #
coedge $-1 $481 $480 $566 $643 reversed $482 $-1 #
point $-1 -44.083376567888422 -19.028202908980482 7.8766465972940729 #
vertex $-1 $643 $645 #
straight-curve $-1 -44.083376567888422 -30.235596941640196 0 0 0 -1 I I #
plane-surface $-1 0 30.235596941640196 0 0 -1 0 0 0 -1 forward_v I I I I #
straight-curve $-1 0 -30.235596941640196 -7.8766465972940729 -1 0 0 I I #
coedge $-1 $491 $634 $582 $646 forward $492 $-1 #
edge $-1 $584 -44.083376567888422 $493 44.083376567888422 $496 $647 forward 7 unknown #
point $-1 44.083376567888422 30.235596941640196 -7.8766465972940729 #
straight-curve $-1 -48.143230559616725 -15.066730677952712 7.8766465972940729 -1 0 0 I I #
coedge $-1 $501 $500 $578 $646 reversed $465 $-1 #
point $-1 -44.083376567888422 -15.066730677952712 7.8766465972940729 #
vertex $-1 $579 $648 #
straight-curve $-1 -44.083376567888422 30.235596941640196 0 0 0 -1 I I #
face $-1 $649 $650 $18 $-1 $651 reversed single #
loop $-1 $-1 $652 $505 #
plane-surface $-1 -48.143230559616725 -15.066730677952712 0 0 -1 0 0 0 -1 forward_v I I I I #
coedge $-1 $653 $654 $655 $656 forward $506 $-1 #
coedge $-1 $657 $508 $658 $659 reversed $411 $-1 #
coedge $-1 $508 $657 $598 $660 reversed $411 $-1 #
coedge $-1 $654 $653 $508 $593 reversed $506 $-1 #
edge $-1 $661 -7.8766465972940729 $662 7.8766465972940729 $592 $663 forward 7 unknown #
coedge $-1 $597 $509 $664 $665 reversed $328 $-1 #
coedge $-1 $514 $666 $509 $596 reversed $515 $-1 #
edge $-1 $522 -0.40972344378035502 $667 7.8766465972940729 $509 $668 forward 7 unknown #
coedge $-1 $510 $594 $669 $670 reversed $328 $-1 #
coedge $-1 $511 $671 $591 $660 forward $243 $-1 #
coedge $-1 $672 $673 $511 $600 reversed $674 $-1 #
edge $-1 $675 19.028202908980482 $602 30.235596941640196 $599 $676 forward 7 unknown #
coedge $-1 $666 $512 $673 $677 forward $515 $-1 #
vertex $-1 $600 $678 #
straight-curve $-1 0 -30.235596941640196 7.8766465972940729 1 0 0 I I #
face $-1 $679 $515 $18 $-1 $680 reversed single #
point $-1 35.415175929625015 -30.235596941640196 0.40972344378035502 #
straight-curve $-1 19.874638124378365 -30.235596941640196 0.40972344378035513 -1 0 0 I I #
point $-1 44.083376567888443 -30.235596941640196 0.40972344378035502 #
coedge $-1 $681 $524 $682 $683 forward $243 $-1 #
coedge $-1 $669 $684 $524 $610 reversed $685 $-1 #
edge $-1 $611 -44.083376567888422 $686 44.083376567888422 $609 $687 forward 7 unknown #
vertex $-1 $525 $688 #
straight-curve $-1 44.083376567888422 0 7.8766465972940729 0 1 0 I I #
face $-1 $689 $690 $19 $-1 $691 reversed single #
loop $-1 $-1 $692 $527 #
plane-surface $-1 -48.143230559616725 -19.028202908980482 0 0 1 0 0 0 1 forward_v I I I I #
coedge $-1 $693 $694 $537 $626 forward $528 $-1 #
coedge $-1 $530 $695 $696 $697 forward $428 $-1 #
coedge $-1 $696 $698 $531 $619 forward $699 $-1 #
edge $-1 $700 -37.581966995166447 $621 -30.115043841652732 $618 $701 forward 7 unknown #
edge $-1 $700 8.2919974363804304e-015 $622 14.497807866903788 $532 $702 forward 7 unknown #
vertex $-1 $619 $703 #
vertex $-1 $539 $704 #
straight-curve $-1 35.415175929625015 -37.822416175905516 7.8766465972940694 0 1 0 I I #
point $-1 37.891804683414563 -23.249516431153459 2.857434075658988 #
coedge $-1 $537 $536 $698 $705 reversed $349 $-1 #
edge $-1 $628 -1.6448370096154421 $706 12.852970857288337 $616 $707 forward 7 unknown #
coedge $-1 $708 $538 $694 $709 forward $428 $-1 #
vertex $-1 $709 $710 #
straight-curve $-1 19.874638124378365 -17.808550165950574 7.8766465972940729 1 0 0 I I #
plane-surface $-1 44.083376567888422 0 0 -1 0 0 0 0 1 forward_v I I I I #
straight-curve $-1 44.083376567888422 -30.235596941640196 0 0 0 -1 I I #
straight-curve $-1 44.083376567888422 30.235596941640196 0 0 0 -1 I I #
plane-surface $-1 0 0 -7.8766465972940729 0 0 1 1 0 0 forward_v I I I I #
coedge $-1 $578 $559 $557 $635 forward $492 $-1 #
edge $-1 $563 -4.0598539917283034 $636 4.0598539917283034 $557 $711 forward 7 unknown #
vertex $-1 $646 $712 #
straight-curve $-1 -44.083376567888422 -15.066730677952712 0 0 0 1 I I #
straight-curve $-1 -52.203084551345029 -17.047466793466597 -7.8766465972940729 0 1 0 I I #
straight-curve $-1 -52.203084551345029 -17.047466793466597 7.8766465972940729 0 -1 0 I I #
point $-1 -52.203084551345029 -15.066730677952712 7.8766465972940729 #
point $-1 -52.203084551345029 -15.066730677952712 -7.8766465972940729 #
straight-curve $-1 -44.083376567888422 -19.028202908980482 0 0 0 -1 I I #
edge $-1 $574 -30.235596941640196 $567 -19.028202908980482 $572 $713 forward 7 unknown #
point $-1 -44.083376567888422 -19.028202908980482 -7.8766465972940729 #
point $-1 -44.083376567888422 -30.235596941640196 -7.8766465972940729 #
edge $-1 $636 -15.066730677952712 $584 30.235596941640196 $582 $713 forward 7 unknown #
straight-curve $-1 0 30.235596941640196 -7.8766465972940729 1 0 0 I I #
point $-1 -44.083376567888422 30.235596941640196 -7.8766465972940729 #
face $-1 $714 $674 $18 $-1 $651 reversed single #
loop $-1 $-1 $715 $586 #
plane-surface $-1 -44.083376567888422 0 0 1 0 0 0 0 -1 forward_v I I I I #
coedge $-1 $716 $717 $715 $718 reversed $587 $-1 #
coedge $-1 $592 $589 $719 $720 reversed $506 $-1 #
coedge $-1 $589 $592 $671 $721 reversed $506 $-1 #
coedge $-1 $717 $716 $589 $656 reversed $587 $-1 #
edge $-1 $722 -7.8766465972940729 $723 7.8766465972940729 $655 $724 forward 7 unknown #
coedge $-1 $591 $590 $672 $725 reversed $411 $-1 #
coedge $-1 $719 $726 $590 $659 forward $727 $-1 #
edge $-1 $728 -4.0598539917283034 $662 4.0598539917283034 $590 $729 forward 7 unknown #
edge $-1 $661 -4.0598539917283034 $675 4.0598539917283034 $591 $730 forward 7 unknown #
vertex $-1 $721 $731 #
vertex $-1 $720 $732 #
straight-curve $-1 -52.203084551345029 -19.028202908980482 0 0 0 -1 I I #
coedge $-1 $733 $734 $594 $665 forward $727 $-1 #
edge $-1 $735 -30.235596941640196 $667 30.235596941640196 $594 $736 forward 7 unknown #
coedge $-1 $595 $601 $733 $737 reversed $515 $-1 #
vertex $-1 $596 $738 #
straight-curve $-1 44.083376567888422 -30.235596941640196 0 0 0 -1 I I #
coedge $-1 $739 $609 $597 $670 forward $685 $-1 #
edge $-1 $611 -7.8766465972940729 $735 7.8766465972940729 $597 $740 forward 7 unknown #
coedge $-1 $598 $681 $654 $721 forward $243 $-1 #
coedge $-1 $741 $599 $657 $725 forward $674 $-1 #
coedge $-1 $599 $741 $601 $677 reversed $674 $-1 #
loop $-1 $-1 $672 $649 #
vertex $-1 $600 $742 #
straight-curve $-1 -44.083376567888422 0 7.8766465972940729 0 -1 0 I I #
edge $-1 $602 -7.8766465972940729 $743 7.8766465972940729 $673 $744 forward 7 unknown #
point $-1 -44.083376567888422 -30.235596941640196 7.8766465972940729 #
face $-1 $-1 $685 $18 $-1 $745 reversed single #
plane-surface $-1 0 -30.235596941640196 0 0 1 0 0 0 1 forward_v I I I I #
coedge $-1 $671 $608 $717 $746 forward $243 $-1 #
coedge $-1 $747 $715 $608 $683 reversed $650 $-1 #
edge $-1 $686 -30.235596941640196 $748 15.066730677952712 $682 $676 forward 7 unknown #
coedge $-1 $609 $739 $747 $749 reversed $685 $-1 #
loop $-1 $-1 $669 $679 #
vertex $-1 $610 $750 #
straight-curve $-1 0 30.235596941640196 7.8766465972940729 -1 0 0 I I #
point $-1 44.083376567888422 30.235596941640196 7.8766465972940729 #
face $-1 $751 $752 $19 $-1 $753 reversed single #
loop $-1 $-1 $754 $613 #
plane-surface $-1 -52.203084551345029 -17.047466793466597 0 1 0 0 0 0 -1 forward_v I I I I #
coedge $-1 $755 $756 $757 $758 forward $614 $-1 #
coedge $-1 $759 $616 $760 $761 forward $528 $-1 #
coedge $-1 $616 $762 $627 $709 reversed $528 $-1 #
coedge $-1 $617 $763 $764 $765 forward $428 $-1 #
coedge $-1 $766 $618 $617 $697 reversed $699 $-1 #
edge $-1 $767 -44.083376567888422 $621 35.415175929625015 $696 $768 forward 7 unknown #
coedge $-1 $618 $760 $625 $705 forward $699 $-1 #
loop $-1 $-1 $618 $769 #
vertex $-1 $705 $770 #
straight-curve $-1 35.415175929625015 -30.235596941640196 37.991690438946804 0 0 1 I I #
straight-curve $-1 35.415175929625015 -30.235596941640203 0.40972344378035075 0 0.85716729658548041 0.51503808176128008 I I #
point $-1 35.415175929625015 -30.235596941640196 7.8766465972940729 #
point $-1 35.415175929625015 -17.808550165950571 7.8766465972940729 #
edge $-1 $706 -24.208738443510079 $700 -15.54053780524665 $698 $771 forward 7 unknown #
vertex $-1 $761 $772 #
straight-curve $-1 44.083376567888422 -19.218450658806386 7.0294928990517764 0 -0.85716729658548041 -0.51503808176128008 I I #
coedge $-1 $773 $627 $774 $775 forward $428 $-1 #
edge $-1 $628 -17.808550165950571 $776 30.235596941640196 $694 $777 forward 7 unknown #
point $-1 44.083376567888443 -17.808550165950571 7.8766465972940729 #
straight-curve $-1 -48.143230559616725 -15.066730677952712 -7.8766465972940729 1 0 0 I I #
point $-1 -44.083376567888422 -15.066730677952712 -7.8766465972940729 #
straight-curve $-1 -44.083376567888422 0 -7.8766465972940729 0 1 0 I I #
face $-1 $604 $727 $18 $-1 $778 reversed single #
coedge $-1 $682 $779 $652 $718 forward $650 $-1 #
coedge $-1 $655 $652 $780 $781 reversed $587 $-1 #
coedge $-1 $652 $655 $681 $746 reversed $587 $-1 #
edge $-1 $782 -7.8766465972940729 $748 7.8766465972940729 $715 $783 forward 7 unknown #
coedge $-1 $780 $658 $653 $720 forward $727 $-1 #
edge $-1 $662 -1.980736115513885 $723 1.980736115513885 $653 $784 forward 7 unknown #
edge $-1 $722 -1.980736115513885 $661 1.980736115513885 $654 $785 forward 7 unknown #
vertex $-1 $746 $786 #
vertex $-1 $781 $787 #
straight-curve $-1 -52.203084551345029 -15.066730677952712 0 0 0 -1 I I #
edge $-1 $675 -7.8766465972940729 $728 7.8766465972940729 $672 $788 forward 7 unknown #
coedge $-1 $658 $733 $741 $789 forward $727 $-1 #
loop $-1 $-1 $664 $714 #
vertex $-1 $659 $790 #
straight-curve $-1 -48.143230559616725 -19.028202908980482 -7.8766465972940729 -1 0 0 I I #
straight-curve $-1 -48.143230559616725 -19.028202908980482 7.8766465972940729 1 0 0 I I #
point $-1 -52.203084551345029 -19.028202908980482 7.8766465972940729 #
point $-1 -52.203084551345029 -19.028202908980482 -7.8766465972940729 #
coedge $-1 $726 $664 $666 $737 forward $727 $-1 #
coedge $-1 $664 $791 $739 $792 forward $727 $-1 #
vertex $-1 $665 $793 #
straight-curve $-1 44.083376567888422 0 -7.8766465972940729 0 -1 0 I I #
edge $-1 $667 -44.083376567888422 $743 44.083376567888422 $666 $794 forward 7 unknown #
point $-1 44.083376567888422 -30.235596941640196 -7.8766465972940729 #
coedge $-1 $684 $669 $734 $792 reversed $685 $-1 #
straight-curve $-1 44.083376567888422 30.235596941640196 0 0 0 -1 I I #
coedge $-1 $673 $672 $726 $789 reversed $674 $-1 #
point $-1 -44.083376567888422 -19.028202908980482 7.8766465972940729 #
vertex $-1 $789 $795 #
straight-curve $-1 -44.083376567888422 -30.235596941640196 0 0 0 -1 I I #
plane-surface $-1 0 30.235596941640196 0 0 -1 0 0 0 -1 forward_v I I I I #
edge $-1 $748 -4.0598539917283034 $722 4.0598539917283034 $717 $796 forward 7 unknown #
coedge $-1 $779 $682 $684 $749 forward $650 $-1 #
vertex $-1 $746 $797 #
edge $-1 $686 -7.8766465972940729 $798 7.8766465972940729 $684 $799 forward 7 unknown #
point $-1 -44.083376567888422 30.235596941640196 7.8766465972940729 #
face $-1 $800 $801 $19 $-1 $802 reversed single #
loop $-1 $-1 $803 $689 #
plane-surface $-1 -48.143230559616725 -15.066730677952712 0 0 -1 0 0 0 -1 forward_v I I I I #
coedge $-1 $804 $805 $806 $807 forward $690 $-1 #
coedge $-1 $808 $692 $809 $810 reversed $614 $-1 #
coedge $-1 $692 $808 $763 $811 reversed $614 $-1 #
coedge $-1 $805 $804 $692 $758 reversed $690 $-1 #
edge $-1 $812 -7.8766465972940729 $813 7.8766465972940729 $757 $814 forward 7 unknown #
coedge $-1 $762 $693 $815 $816 reversed $528 $-1 #
coedge $-1 $698 $817 $693 $761 reversed $699 $-1 #
edge $-1 $706 -0.40972344378035502 $818 7.8766465972940729 $693 $819 forward 7 unknown #
coedge $-1 $694 $759 $820 $821 reversed $528 $-1 #
coedge $-1 $695 $822 $756 $811 forward $428 $-1 #
coedge $-1 $823 $824 $695 $765 reversed $825 $-1 #
edge $-1 $826 19.028202908980482 $767 30.235596941640196 $764 $827 forward 7 unknown #
coedge $-1 $817 $696 $824 $828 forward $699 $-1 #
vertex $-1 $765 $829 #
straight-curve $-1 0 -30.235596941640196 7.8766465972940729 1 0 0 I I #
face $-1 $830 $699 $19 $-1 $831 reversed single #
point $-1 35.415175929625015 -30.235596941640196 0.40972344378035502 #
straight-curve $-1 19.874638124378365 -30.235596941640196 0.40972344378035513 -1 0 0 I I #
point $-1 44.083376567888443 -30.235596941640196 0.40972344378035502 #
coedge $-1 $832 $708 $833 $834 forward $428 $-1 #
coedge $-1 $820 $835 $708 $775 reversed $836 $-1 #
edge $-1 $776 -44.083376567888422 $837 44.083376567888422 $774 $838 forward 7 unknown #
vertex $-1 $709 $839 #
straight-curve $-1 44.083376567888422 0 7.8766465972940729 0 1 0 I I #
plane-surface $-1 0 0 -7.8766465972940729 0 0 1 1 0 0 forward_v I I I I #
coedge $-1 $715 $747 $791 $840 reversed $650 $-1 #
coedge $-1 $791 $719 $716 $781 forward $727 $-1 #
edge $-1 $723 -4.0598539917283034 $782 4.0598539917283034 $716 $841 forward 7 unknown #
vertex $-1 $840 $842 #
straight-curve $-1 -44.083376567888422 -15.066730677952712 0 0 0 1 I I #
straight-curve $-1 -52.203084551345029 -17.047466793466597 -7.8766465972940729 0 1 0 I I #
straight-curve $-1 -52.203084551345029 -17.047466793466597 7.8766465972940729 0 -1 0 I I #
point $-1 -52.203084551345029 -15.066730677952712 7.8766465972940729 #
point $-1 -52.203084551345029 -15.066730677952712 -7.8766465972940729 #
straight-curve $-1 -44.083376567888422 -19.028202908980482 0 0 0 -1 I I #
edge $-1 $743 -30.235596941640196 $728 -19.028202908980482 $741 $843 forward 7 unknown #
point $-1 -44.083376567888422 -19.028202908980482 -7.8766465972940729 #
coedge $-1 $734 $780 $779 $840 forward $727 $-1 #
edge $-1 $798 -44.083376567888422 $735 44.083376567888422 $739 $844 forward 7 unknown #
point $-1 44.083376567888422 30.235596941640196 -7.8766465972940729 #
straight-curve $-1 0 -30.235596941640196 -7.8766465972940729 -1 0 0 I I #
point $-1 -44.083376567888422 -30.235596941640196 -7.8766465972940729 #
straight-curve $-1 -48.143230559616725 -15.066730677952712 7.8766465972940729 -1 0 0 I I #
point $-1 -44.083376567888422 -15.066730677952712 7.8766465972940729 #
vertex $-1 $792 $845 #
straight-curve $-1 -44.083376567888422 30.235596941640196 0 0 0 -1 I I #
face $-1 $846 $825 $19 $-1 $802 reversed single #
loop $-1 $-1 $847 $751 #
plane-surface $-1 -44.083376567888422 0 0 1 0 0 0 0 -1 forward_v I I I I #
coedge $-1 $848 $849 $847 $850 reversed $752 $-1 #
coedge $-1 $757 $754 $851 $852 reversed $690 $-1 #
coedge $-1 $754 $757 $822 $853 reversed $690 $-1 #
coedge $-1 $849 $848 $754 $807 reversed $752 $-1 #
edge $-1 $854 -7.8766465972940729 $855 7.8766465972940729 $806 $856 forward 7 unknown #
coedge $-1 $756 $755 $823 $857 reversed $614 $-1 #
coedge $-1 $851 $858 $755 $810 forward $859 $-1 #
edge $-1 $860 -4.0598539917283034 $813 4.0598539917283034 $755 $861 forward 7 unknown #
edge $-1 $812 -4.0598539917283034 $826 4.0598539917283034 $756 $862 forward 7 unknown #
vertex $-1 $853 $863 #
vertex $-1 $852 $864 #
straight-curve $-1 -52.203084551345029 -19.028202908980482 0 0 0 -1 I I #
coedge $-1 $865 $866 $759 $816 forward $859 $-1 #
edge $-1 $867 -30.235596941640196 $818 30.235596941640196 $759 $868 forward 7 unknown #
coedge $-1 $760 $766 $865 $869 reversed $699 $-1 #
vertex $-1 $761 $870 #
straight-curve $-1 44.083376567888422 -30.235596941640196 0 0 0 -1 I I #
coedge $-1 $871 $774 $762 $821 forward $836 $-1 #
edge $-1 $776 -7.8766465972940729 $867 7.8766465972940729 $762 $872 forward 7 unknown #
coedge $-1 $763 $832 $805 $853 forward $428 $-1 #
coedge $-1 $873 $764 $808 $857 forward $825 $-1 #
coedge $-1 $764 $873 $766 $828 reversed $825 $-1 #
loop $-1 $-1 $823 $800 #
vertex $-1 $765 $874 #
straight-curve $-1 -44.083376567888422 0 7.8766465972940729 0 -1 0 I I #
edge $-1 $767 -7.8766465972940729 $875 7.8766465972940729 $824 $876 forward 7 unknown #
point $-1 -44.083376567888422 -30.235596941640196 7.8766465972940729 #
face $-1 $-1 $836 $19 $-1 $877 reversed single #
plane-surface $-1 0 -30.235596941640196 0 0 1 0 0 0 1 forward_v I I I I #
coedge $-1 $822 $773 $849 $878 forward $428 $-1 #
coedge $-1 $879 $847 $773 $834 reversed $801 $-1 #
edge $-1 $837 -30.235596941640196 $880 15.066730677952712 $833 $827 forward 7 unknown #
coedge $-1 $774 $871 $879 $881 reversed $836 $-1 #
loop $-1 $-1 $820 $830 #
vertex $-1 $775 $882 #
straight-curve $-1 0 30.235596941640196 7.8766465972940729 -1 0 0 I I #
point $-1 44.083376567888422 30.235596941640196 7.8766465972940729 #
edge $-1 $782 -15.066730677952712 $798 30.235596941640196 $779 $843 forward 7 unknown #
straight-curve $-1 -48.143230559616725 -15.066730677952712 -7.8766465972940729 1 0 0 I I #
point $-1 -44.083376567888422 -15.066730677952712 -7.8766465972940729 #
straight-curve $-1 -44.083376567888422 0 -7.8766465972940729 0 1 0 I I #
straight-curve $-1 0 30.235596941640196 -7.8766465972940729 1 0 0 I I #
point $-1 -44.083376567888422 30.235596941640196 -7.8766465972940729 #
face $-1 $769 $859 $19 $-1 $883 reversed single #
coedge $-1 $833 $884 $803 $850 forward $801 $-1 #
coedge $-1 $806 $803 $885 $886 reversed $752 $-1 #
coedge $-1 $803 $806 $832 $878 reversed $752 $-1 #
edge $-1 $887 -7.8766465972940729 $880 7.8766465972940729 $847 $888 forward 7 unknown #
coedge $-1 $885 $809 $804 $852 forward $859 $-1 #
edge $-1 $813 -1.980736115513885 $855 1.980736115513885 $804 $889 forward 7 unknown #
edge $-1 $854 -1.980736115513885 $812 1.980736115513885 $805 $890 forward 7 unknown #
vertex $-1 $878 $891 #
vertex $-1 $886 $892 #
straight-curve $-1 -52.203084551345029 -15.066730677952712 0 0 0 -1 I I #
edge $-1 $826 -7.8766465972940729 $860 7.8766465972940729 $823 $893 forward 7 unknown #
coedge $-1 $809 $865 $873 $894 forward $859 $-1 #
loop $-1 $-1 $815 $846 #
vertex $-1 $810 $895 #
straight-curve $-1 -48.143230559616725 -19.028202908980482 -7.8766465972940729 -1 0 0 I I #
straight-curve $-1 -48.143230559616725 -19.028202908980482 7.8766465972940729 1 0 0 I I #
point $-1 -52.203084551345029 -19.028202908980482 7.8766465972940729 #
point $-1 -52.203084551345029 -19.028202908980482 -7.8766465972940729 #
coedge $-1 $858 $815 $817 $869 forward $859 $-1 #
coedge $-1 $815 $896 $871 $897 forward $859 $-1 #
vertex $-1 $816 $898 #
straight-curve $-1 44.083376567888422 0 -7.8766465972940729 0 -1 0 I I #
edge $-1 $818 -44.083376567888422 $875 44.083376567888422 $817 $899 forward 7 unknown #
point $-1 44.083376567888422 -30.235596941640196 -7.8766465972940729 #
coedge $-1 $835 $820 $866 $897 reversed $836 $-1 #
straight-curve $-1 44.083376567888422 30.235596941640196 0 0 0 -1 I I #
coedge $-1 $824 $823 $858 $894 reversed $825 $-1 #
point $-1 -44.083376567888422 -19.028202908980482 7.8766465972940729 #
vertex $-1 $894 $900 #
straight-curve $-1 -44.083376567888422 -30.235596941640196 0 0 0 -1 I I #
plane-surface $-1 0 30.235596941640196 0 0 -1 0 0 0 -1 forward_v I I I I #
edge $-1 $880 -4.0598539917283034 $854 4.0598539917283034 $849 $901 forward 7 unknown #
coedge $-1 $884 $833 $835 $881 forward $801 $-1 #
vertex $-1 $878 $902 #
edge $-1 $837 -7.8766465972940729 $903 7.8766465972940729 $835 $904 forward 7 unknown #
point $-1 -44.083376567888422 30.235596941640196 7.8766465972940729 #
plane-surface $-1 0 0 -7.8766465972940729 0 0 1 1 0 0 forward_v I I I I #
coedge $-1 $847 $879 $896 $905 reversed $801 $-1 #
coedge $-1 $896 $851 $848 $886 forward $859 $-1 #
edge $-1 $855 -4.0598539917283034 $887 4.0598539917283034 $848 $906 forward 7 unknown #
vertex $-1 $905 $907 #
straight-curve $-1 -44.083376567888422 -15.066730677952712 0 0 0 1 I I #
straight-curve $-1 -52.203084551345029 -17.047466793466597 -7.8766465972940729 0 1 0 I I #
straight-curve $-1 -52.203084551345029 -17.047466793466597 7.8766465972940729 0 -1 0 I I #
point $-1 -52.203084551345029 -15.066730677952712 7.8766465972940729 #
point $-1 -52.203084551345029 -15.066730677952712 -7.8766465972940729 #
straight-curve $-1 -44.083376567888422 -19.028202908980482 0 0 0 -1 I I #
edge $-1 $875 -30.235596941640196 $860 -19.028202908980482 $873 $908 forward 7 unknown #
point $-1 -44.083376567888422 -19.028202908980482 -7.8766465972940729 #
coedge $-1 $866 $885 $884 $905 forward $859 $-1 #
edge $-1 $903 -44.083376567888422 $867 44.083376567888422 $871 $909 forward 7 unknown #
point $-1 44.083376567888422 30.235596941640196 -7.8766465972940729 #
straight-curve $-1 0 -30.235596941640196 -7.8766465972940729 -1 0 0 I I #
point $-1 -44.083376567888422 -30.235596941640196 -7.8766465972940729 #
straight-curve $-1 -48.143230559616725 -15.066730677952712 7.8766465972940729 -1 0 0 I I #
point $-1 -44.083376567888422 -15.066730677952712 7.8766465972940729 #
vertex $-1 $897 $910 #
straight-curve $-1 -44.083376567888422 30.235596941640196 0 0 0 -1 I I #
edge $-1 $887 -15.066730677952712 $903 30.235596941640196 $884 $908 forward 7 unknown #
straight-curve $-1 -48.143230559616725 -15.066730677952712 -7.8766465972940729 1 0 0 I I #
point $-1 -44.083376567888422 -15.066730677952712 -7.8766465972940729 #
straight-curve $-1 -44.083376567888422 0 -7.8766465972940729 0 1 0 I I #
straight-curve $-1 0 30.235596941640196 -7.8766465972940729 1 0 0 I I #
point $-1 -44.083376567888422 30.235596941640196 -7.8766465972940729 #
End-of-ACIS-data 