500 0 7 0           
7 Unknown 11 ACIS 5.0 NT 24 Fri Mar 26 02:55:05 1999 
-1 9.9999999999999995e-007 1e-010 
body $-1 $7 $-1 $8 #
body $-1 $9 $-1 $10 #
body $-1 $11 $-1 $12 #
body $-1 $13 $-1 $14 #
body $-1 $15 $-1 $16 #
body $-1 $17 $-1 $18 #
body $-1 $19 $-1 $20 #
lump $-1 $-1 $21 $0 #
transform $-1 1 0 0 0 1 0 0 0 1 70.370799890133355 34.286409593981446 9.4913094120342869 1 rotate no_reflect no_shear #
lump $-1 $-1 $22 $1 #
transform $-1 1 0 0 0 1 0 0 0 1 70.370799890133355 34.286409593981446 9.4913094120342869 1 rotate no_reflect no_shear #
lump $-1 $-1 $23 $2 #
transform $-1 1 0 0 0 1 0 0 0 1 70.370799890133355 34.286409593981446 9.4913094120342869 1 rotate no_reflect no_shear #
lump $-1 $-1 $24 $3 #
transform $-1 1 0 0 0 1 0 0 0 1 70.370799890133355 34.286409593981446 9.4913094120342869 1 rotate no_reflect no_shear #
lump $-1 $-1 $25 $4 #
transform $-1 1 0 0 0 1 0 0 0 1 70.370799890133355 34.286409593981446 9.4913094120342869 1 rotate no_reflect no_shear #
lump $-1 $-1 $26 $5 #
transform $-1 1 0 0 0 1 0 0 0 1 70.370799890133355 34.286409593981446 9.4913094120342869 1 rotate no_reflect no_shear #
lump $-1 $-1 $27 $6 #
transform $-1 1 0 0 0 1 0 0 0 1 70.370799890133355 34.286409593981446 9.4913094120342869 1 rotate no_reflect no_shear #
shell $-1 $-1 $-1 $28 $-1 $7 #
shell $-1 $-1 $-1 $29 $-1 $9 #
shell $-1 $-1 $-1 $30 $-1 $11 #
shell $-1 $-1 $-1 $31 $-1 $13 #
shell $-1 $-1 $-1 $32 $-1 $15 #
shell $-1 $-1 $-1 $33 $-1 $17 #
shell $-1 $-1 $-1 $34 $-1 $19 #
face $-1 $35 $36 $21 $-1 $37 forward single #
face $-1 $38 $39 $22 $-1 $40 forward single #
face $-1 $41 $42 $23 $-1 $43 forward single #
face $-1 $44 $45 $24 $-1 $46 reversed single #
face $-1 $47 $48 $25 $-1 $49 forward single #
face $-1 $50 $51 $26 $-1 $52 forward single #
face $-1 $53 $54 $27 $-1 $55 forward single #
face $-1 $56 $57 $21 $-1 $58 reversed single #
loop $-1 $-1 $59 $28 #
plane-surface $-1 0 0 9.4913094120342869 0 0 1 1 0 0 forward_v I I I I #
face $-1 $60 $61 $22 $-1 $62 reversed single #
loop $-1 $-1 $63 $29 #
plane-surface $-1 0 -31.048748332304932 0.1616283342941216 0 0 1 1 0 0 forward_v I I I I #
face $-1 $64 $65 $23 $-1 $66 reversed single #
loop $-1 $-1 $67 $30 #
plane-surface $-1 0 30.746021125675966 -3.811470252611223 0 0 1 1 0 0 forward_v I I I I #
face $-1 $68 $69 $24 $-1 $70 reversed single #
loop $-1 $-1 $71 $31 #
plane-surface $-1 125.23329813913958 -15.199657335207341 195.80642297139016 0 1 0 0.87461971476443456 0 0.48480960649040278 forward_v I I I I #
face $-1 $72 $73 $25 $-1 $74 forward single #
loop $-1 $75 $76 $32 #
cone-surface $-1 67.410234616347097 -12.849610242019583 6.1138349352806811 -0.87461971476443456 0 -0.48480960649040278 0.48480960649040278 0 -0.87461971476443456 1 I I 0 1 1 forward I I I I #
face $-1 $77 $78 $26 $-1 $79 forward single #
loop $-1 $80 $81 $33 #
cone-surface $-1 67.410234616347097 -9.3245396022379445 6.1138349352806811 -0.87461971476443456 0 -0.48480960649040278 0.48480960649040278 0 -0.87461971476443456 1 I I 0 1 1 forward I I I I #
face $-1 $82 $83 $27 $-1 $84 forward single #
loop $-1 $85 $86 $34 #
cone-surface $-1 67.410234616347097 -5.7994689624563058 6.1138349352806811 -0.87461971476443456 0 -0.48480960649040278 0.48480960649040278 0 -0.87461971476443456 1 I I 0 1 1 forward I I I I #
face $-1 $87 $88 $21 $-1 $89 reversed single #
loop $-1 $-1 $90 $35 #
plane-surface $-1 0 0 -9.4913094120342869 0 0 1 1 0 0 forward_v I I I I #
coedge $-1 $91 $92 $93 $94 forward $36 $-1 #
face $-1 $95 $96 $22 $-1 $97 reversed single #
loop $-1 $-1 $98 $38 #
plane-surface $-1 0 -31.048748332304932 -4.7240772796706079 0 0 1 1 0 0 forward_v I I I I #
coedge $-1 $99 $100 $101 $102 reversed $39 $-1 #
face $-1 $103 $104 $23 $-1 $105 reversed single #
loop $-1 $-1 $106 $41 #
plane-surface $-1 0 27.20563265737049 -6.6513898323227547 0 1 0 0 0 1 forward_v I I I I #
coedge $-1 $107 $108 $109 $110 reversed $42 $-1 #
face $-1 $111 $112 $24 $-1 $113 reversed single #
loop $-1 $-1 $114 $44 #
plane-surface $-1 2.1379202838325 -9.3245396022379445 127.57354336508931 0.87461971476443456 0 0.48480960649040278 0.48480960649040278 0 -0.87461971476443456 forward_v I I I I #
coedge $-1 $115 $116 $117 $118 reversed $45 $-1 #
face $-1 $-1 $119 $25 $-1 $120 forward single #
loop $-1 $121 $122 $47 #
cone-surface $-1 65.401774954269172 -12.849610242019583 5.0005276064079247 -0.87461971476443456 0 -0.48480960649040278 0.24240480324520139 0 -0.43730985738221728 1 I I -0.70710678118654746 0.70710678118654746 0.5 forward I I I I #
loop $-1 $-1 $123 $32 #
coedge $-1 $76 $76 $124 $125 reversed $48 $-1 #
face $-1 $-1 $126 $26 $-1 $127 forward single #
loop $-1 $128 $129 $50 #
cone-surface $-1 65.401774954269172 -9.3245396022379445 5.0005276064079247 -0.87461971476443456 0 -0.48480960649040278 0.24240480324520139 0 -0.43730985738221728 1 I I -0.70710678118654746 0.70710678118654746 0.5 forward I I I I #
loop $-1 $-1 $130 $33 #
coedge $-1 $81 $81 $131 $132 reversed $51 $-1 #
face $-1 $-1 $133 $27 $-1 $134 forward single #
loop $-1 $135 $136 $53 #
cone-surface $-1 65.401774954269172 -5.7994689624563058 5.0005276064079247 -0.87461971476443456 0 -0.48480960649040278 0.24240480324520139 0 -0.43730985738221728 1 I I -0.70710678118654746 0.70710678118654746 0.5 forward I I I I #
loop $-1 $-1 $137 $34 #
coedge $-1 $86 $86 $138 $139 reversed $54 $-1 #
face $-1 $140 $141 $21 $-1 $142 reversed single #
loop $-1 $-1 $143 $56 #
plane-surface $-1 0 -34.286409593981446 0 0 1 0 0 0 1 forward_v I I I I #
coedge $-1 $144 $145 $146 $147 forward $57 $-1 #
coedge $-1 $148 $59 $149 $150 forward $36 $-1 #
coedge $-1 $59 $148 $151 $152 forward $36 $-1 #
coedge $-1 $153 $154 $59 $94 reversed $155 $-1 #
edge $-1 $156 -34.286409593981446 $157 34.286409593981446 $93 $158 forward 7 unknown #
face $-1 $159 $160 $22 $-1 $161 reversed single #
loop $-1 $-1 $162 $60 #
plane-surface $-1 0 -27.811087070628417 -2.2812244726882431 0 -1 0 0 0 -1 forward_v I I I I #
coedge $-1 $163 $164 $165 $166 reversed $61 $-1 #
coedge $-1 $167 $63 $168 $169 forward $39 $-1 #
coedge $-1 $63 $167 $170 $171 reversed $39 $-1 #
coedge $-1 $172 $173 $63 $102 forward $174 $-1 #
edge $-1 $175 12.286712904475952 $176 18.76203542782898 $101 $177 forward 7 unknown #
face $-1 $178 $179 $23 $-1 $180 reversed single #
loop $-1 $-1 $109 $64 #
plane-surface $-1 70.370799890133355 0 0 -1 0 0 0 0 1 forward_v I I I I #
coedge $-1 $181 $182 $183 $184 reversed $65 $-1 #
coedge $-1 $185 $67 $186 $187 reversed $42 $-1 #
coedge $-1 $67 $185 $182 $188 forward $42 $-1 #
coedge $-1 $189 $190 $67 $110 forward $104 $-1 #
edge $-1 $191 -18.913399031143463 $192 -11.832622094532507 $109 $193 forward 7 unknown #
face $-1 $194 $195 $24 $-1 $196 forward single #
loop $-1 $-1 $197 $68 #
plane-surface $-1 125.23329813913958 -3.4494218692685479 195.80642297139016 0 -1 0 -0.87461971476443456 0 -0.48480960649040278 forward_v I I I I #
coedge $-1 $198 $199 $200 $201 reversed $69 $-1 #
coedge $-1 $116 $71 $202 $203 reversed $45 $-1 #
coedge $-1 $71 $115 $198 $204 reversed $45 $-1 #
coedge $-1 $200 $205 $71 $118 forward $206 $-1 #
edge $-1 $207 88.411902073660798 $208 93.425045975912852 $117 $209 forward 7 unknown #
loop $-1 $-1 $124 $72 #
plane-surface $-1 2.1379202838325 -9.3245396022379445 127.57354336508931 0.87461971476443456 0 0.48480960649040278 0.48480960649040278 0 -0.87461971476443456 forward_v I I I I #
loop $-1 $-1 $210 $47 #
coedge $-1 $122 $122 $123 $211 reversed $73 $-1 #
coedge $-1 $123 $123 $122 $211 forward $75 $-1 #
coedge $-1 $124 $124 $76 $125 forward $119 $-1 #
edge $-1 $212 0 $212 6.2831853071796004 $124 $213 forward 7 unknown #
loop $-1 $-1 $131 $77 #
plane-surface $-1 2.1379202838325 -9.3245396022379445 127.57354336508931 0.87461971476443456 0 0.48480960649040278 0.48480960649040278 0 -0.87461971476443456 forward_v I I I I #
loop $-1 $-1 $214 $50 #
coedge $-1 $129 $129 $130 $215 reversed $78 $-1 #
coedge $-1 $130 $130 $129 $215 forward $80 $-1 #
coedge $-1 $131 $131 $81 $132 forward $126 $-1 #
edge $-1 $216 0 $216 6.2831853071796004 $131 $217 forward 7 unknown #
loop $-1 $-1 $138 $82 #
plane-surface $-1 2.1379202838325 -9.3245396022379445 127.57354336508931 0.87461971476443456 0 0.48480960649040278 0.48480960649040278 0 -0.87461971476443456 forward_v I I I I #
loop $-1 $-1 $218 $53 #
coedge $-1 $136 $136 $137 $219 reversed $83 $-1 #
coedge $-1 $137 $137 $136 $219 forward $85 $-1 #
coedge $-1 $138 $138 $86 $139 forward $133 $-1 #
edge $-1 $220 0 $220 6.2831853071796004 $138 $221 forward 7 unknown #
face $-1 $222 $223 $21 $-1 $224 reversed single #
loop $-1 $-1 $225 $87 #
plane-surface $-1 -70.370799890133355 0 0 1 0 0 0 0 -1 forward_v I I I I #
coedge $-1 $226 $151 $227 $228 forward $88 $-1 #
coedge $-1 $229 $90 $226 $230 forward $57 $-1 #
coedge $-1 $90 $229 $231 $232 forward $57 $-1 #
coedge $-1 $154 $153 $90 $147 reversed $155 $-1 #
edge $-1 $233 -34.286409593981446 $234 34.286409593981446 $146 $235 forward 7 unknown #
coedge $-1 $92 $91 $236 $237 forward $36 $-1 #
coedge $-1 $238 $239 $91 $150 reversed $223 $-1 #
edge $-1 $157 -70.370799890133355 $240 70.370799890133355 $149 $241 forward 7 unknown #
coedge $-1 $143 $242 $92 $152 reversed $88 $-1 #
edge $-1 $243 -70.370799890133355 $156 70.370799890133355 $151 $244 forward 7 unknown #
coedge $-1 $146 $93 $242 $245 forward $155 $-1 #
coedge $-1 $93 $146 $238 $246 reversed $155 $-1 #
loop $-1 $-1 $153 $222 #
vertex $-1 $94 $247 #
vertex $-1 $94 $248 #
straight-curve $-1 70.370799890133355 0 9.4913094120342869 0 1 0 I I #
face $-1 $249 $250 $22 $-1 $251 reversed single #
loop $-1 $-1 $252 $95 #
plane-surface $-1 -70.370799890133355 0 0 1 0 0 0 0 -1 forward_v I I I I #
coedge $-1 $253 $168 $173 $254 reversed $96 $-1 #
coedge $-1 $255 $98 $256 $257 reversed $61 $-1 #
coedge $-1 $98 $255 $253 $258 forward $61 $-1 #
coedge $-1 $173 $172 $98 $166 forward $174 $-1 #
edge $-1 $259 -18.76203542782898 $260 -12.286712904475952 $165 $261 forward 7 unknown #
coedge $-1 $100 $99 $252 $262 reversed $39 $-1 #
coedge $-1 $162 $263 $99 $169 reversed $96 $-1 #
edge $-1 $175 -70.370799890133355 $264 70.370799890133355 $168 $265 forward 7 unknown #
coedge $-1 $266 $267 $100 $171 forward $250 $-1 #
edge $-1 $176 -70.370799890133355 $268 70.370799890133355 $170 $269 forward 7 unknown #
coedge $-1 $165 $101 $267 $270 forward $174 $-1 #
coedge $-1 $101 $165 $162 $254 forward $174 $-1 #
loop $-1 $-1 $101 $249 #
vertex $-1 $102 $271 #
vertex $-1 $270 $272 #
straight-curve $-1 70.370799890133355 -15.524374166152466 0.1616283342941216 0 -1 0 I I #
face $-1 $273 $274 $23 $-1 $275 reversed single #
loop $-1 $-1 $276 $103 #
plane-surface $-1 0 0 -9.4913094120342869 0 0 1 1 0 0 forward_v I I I I #
coedge $-1 $277 $106 $276 $278 reversed $65 $-1 #
coedge $-1 $106 $277 $108 $188 reversed $65 $-1 #
coedge $-1 $279 $280 $106 $184 forward $274 $-1 #
edge $-1 $281 -6.1656144958729096 $282 -0.48577533644984561 $183 $283 forward 7 unknown #
coedge $-1 $108 $107 $279 $284 reversed $42 $-1 #
coedge $-1 $285 $286 $107 $187 forward $287 $-1 #
edge $-1 $288 -70.370799890133355 $191 70.370799890133355 $186 $289 forward 7 unknown #
edge $-1 $282 -70.370799890133355 $192 70.370799890133355 $182 $290 forward 7 unknown #
coedge $-1 $291 $109 $277 $292 forward $104 $-1 #
coedge $-1 $109 $291 $285 $293 reversed $104 $-1 #
vertex $-1 $293 $294 #
vertex $-1 $110 $295 #
straight-curve $-1 70.370799890133355 15.373010562837983 -3.811470252611223 0 -1 0 I I #
face $-1 $-1 $206 $24 $-1 $296 reversed single #
loop $-1 $-1 $297 $111 #
plane-surface $-1 0 0 9.4913094120342869 0 0 1 1 0 0 forward_v I I I I #
coedge $-1 $298 $299 $300 $301 reversed $112 $-1 #
coedge $-1 $302 $114 $116 $204 forward $69 $-1 #
coedge $-1 $114 $302 $298 $303 forward $69 $-1 #
coedge $-1 $300 $117 $114 $201 forward $206 $-1 #
edge $-1 $208 -10.537387534088369 $304 1.2128479318504244 $200 $305 forward 7 unknown #
coedge $-1 $306 $307 $115 $203 forward $195 $-1 #
edge $-1 $308 4.9753198823824363 $207 7.7541508205635665 $202 $309 forward 7 unknown #
edge $-1 $208 -140.74159978026671 $308 -135.00980135676303 $116 $310 forward 7 unknown #
coedge $-1 $117 $300 $306 $311 reversed $206 $-1 #
loop $-1 $-1 $300 $194 #
vertex $-1 $311 $312 #
vertex $-1 $118 $313 #
straight-curve $-1 70.370799890133355 -15.199657335207341 97.903211485695081 0 0 -1 I I #
coedge $-1 $210 $210 $-1 $314 reversed $121 $-1 #
edge $-1 $315 0 $315 6.2831853071796004 $122 $316 forward 7 unknown #
vertex $-1 $125 $317 #
ellipse-curve $-1 68.981384421042804 -12.849610242019583 6.9847374609082351 0.87461971476443456 0 0.48480960649040278 0.48480960649040278 0 -0.87461971476443456 1 I I #
coedge $-1 $214 $214 $-1 $318 reversed $128 $-1 #
edge $-1 $319 0 $319 6.2831853071796004 $129 $320 forward 7 unknown #
vertex $-1 $132 $321 #
ellipse-curve $-1 68.981384421042804 -9.3245396022379445 6.9847374609082351 0.87461971476443456 0 0.48480960649040278 0.48480960649040278 0 -0.87461971476443456 1 I I #
coedge $-1 $218 $218 $-1 $322 reversed $135 $-1 #
edge $-1 $323 0 $323 6.2831853071796004 $136 $324 forward 7 unknown #
vertex $-1 $139 $325 #
ellipse-curve $-1 68.981384421042804 -5.7994689624563058 6.9847374609082351 0.87461971476443456 0 0.48480960649040278 0.48480960649040278 0 -0.87461971476443456 1 I I #
face $-1 $-1 $155 $21 $-1 $326 reversed single #
loop $-1 $-1 $238 $140 #
plane-surface $-1 0 34.286409593981446 0 0 -1 0 0 0 -1 forward_v I I I I #
coedge $-1 $327 $236 $239 $328 forward $141 $-1 #
coedge $-1 $242 $143 $144 $230 reversed $88 $-1 #
coedge $-1 $236 $327 $143 $228 reversed $141 $-1 #
edge $-1 $243 -9.4913094120342869 $329 9.4913094120342869 $227 $330 forward 7 unknown #
coedge $-1 $145 $144 $327 $331 forward $57 $-1 #
edge $-1 $234 -70.370799890133355 $329 70.370799890133355 $226 $332 forward 7 unknown #
coedge $-1 $239 $238 $145 $232 reversed $223 $-1 #
edge $-1 $333 -70.370799890133355 $233 70.370799890133355 $231 $334 forward 7 unknown #
vertex $-1 $147 $335 #
vertex $-1 $245 $336 #
straight-curve $-1 70.370799890133355 0 -9.4913094120342869 0 -1 0 I I #
coedge $-1 $225 $227 $148 $237 reversed $141 $-1 #
edge $-1 $240 -34.286409593981446 $243 34.286409593981446 $236 $337 forward 7 unknown #
coedge $-1 $231 $149 $154 $246 forward $223 $-1 #
coedge $-1 $149 $231 $225 $328 reversed $223 $-1 #
vertex $-1 $150 $338 #
straight-curve $-1 0 34.286409593981446 9.4913094120342869 -1 0 0 I I #
coedge $-1 $151 $226 $153 $245 reversed $88 $-1 #
vertex $-1 $237 $339 #
straight-curve $-1 0 -34.286409593981446 9.4913094120342869 1 0 0 I I #
edge $-1 $156 -9.4913094120342869 $234 9.4913094120342869 $153 $340 forward 7 unknown #
edge $-1 $157 -9.4913094120342869 $233 9.4913094120342869 $154 $341 forward 7 unknown #
point $-1 70.370799890133355 -34.286409593981446 9.4913094120342869 #
point $-1 70.370799890133355 34.286409593981446 9.4913094120342869 #
face $-1 $-1 $174 $22 $-1 $342 reversed single #
loop $-1 $-1 $170 $159 #
plane-surface $-1 0 -34.286409593981446 0 0 1 0 0 0 1 forward_v I I I I #
coedge $-1 $343 $344 $167 $262 forward $160 $-1 #
coedge $-1 $263 $162 $164 $258 reversed $96 $-1 #
edge $-1 $260 -3.5834650433264863 $175 1.3022405706382432 $173 $345 forward 7 unknown #
coedge $-1 $164 $163 $346 $347 reversed $61 $-1 #
coedge $-1 $267 $266 $163 $257 forward $250 $-1 #
edge $-1 $348 -70.370799890133355 $259 70.370799890133355 $256 $349 forward 7 unknown #
edge $-1 $350 -70.370799890133355 $260 70.370799890133355 $253 $351 forward 7 unknown #
vertex $-1 $257 $352 #
vertex $-1 $166 $353 #
straight-curve $-1 70.370799890133355 -15.524374166152466 -4.7240772796706079 0 1 0 I I #
edge $-1 $268 -18.76203542782898 $264 -12.286712904475952 $252 $354 forward 7 unknown #
coedge $-1 $168 $253 $343 $355 reversed $96 $-1 #
vertex $-1 $262 $356 #
straight-curve $-1 0 -27.811087070628417 0.1616283342941216 -1 0 0 I I #
coedge $-1 $256 $170 $344 $357 forward $250 $-1 #
coedge $-1 $170 $256 $172 $270 reversed $250 $-1 #
vertex $-1 $357 $358 #
straight-curve $-1 0 -34.286409593981446 0.1616283342941216 -1 0 0 I I #
edge $-1 $176 -0.1616283342941216 $259 4.7240772796706079 $172 $359 forward 7 unknown #
point $-1 70.370799890133355 -27.811087070628417 0.1616283342941216 #
point $-1 70.370799890133355 -34.286409593981446 0.1616283342941216 #
face $-1 $-1 $287 $23 $-1 $360 reversed single #
loop $-1 $-1 $279 $178 #
plane-surface $-1 -70.370799890133355 0 0 1 0 0 0 0 -1 forward_v I I I I #
coedge $-1 $361 $362 $181 $278 forward $179 $-1 #
coedge $-1 $182 $181 $189 $292 reversed $65 $-1 #
edge $-1 $363 -70.370799890133355 $281 70.370799890133355 $276 $364 forward 7 unknown #
coedge $-1 $365 $183 $185 $284 forward $274 $-1 #
coedge $-1 $183 $365 $361 $366 reversed $274 $-1 #
vertex $-1 $366 $367 #
vertex $-1 $284 $368 #
straight-curve $-1 -70.370799890133355 27.20563265737049 -3.3256949161613774 0 0 1 I I #
edge $-1 $282 11.832622094532507 $288 18.913399031143463 $279 $369 forward 7 unknown #
coedge $-1 $370 $186 $190 $293 forward $287 $-1 #
coedge $-1 $186 $370 $365 $371 reversed $287 $-1 #
loop $-1 $-1 $186 $273 #
vertex $-1 $371 $372 #
straight-curve $-1 0 34.286409593981446 -3.811470252611223 1 0 0 I I #
straight-curve $-1 0 27.20563265737049 -3.811470252611223 1 0 0 I I #
coedge $-1 $190 $189 $362 $373 reversed $104 $-1 #
edge $-1 $192 0.48577533644984561 $363 6.1656144958729096 $189 $374 forward 7 unknown #
edge $-1 $191 3.811470252611223 $375 9.4913094120342869 $190 $376 forward 7 unknown #
point $-1 70.370799890133355 34.286409593981446 -3.811470252611223 #
point $-1 70.370799890133355 27.20563265737049 -3.811470252611223 #
plane-surface $-1 70.370799890133355 0 0 -1 0 0 0 0 1 forward_v I I I I #
coedge $-1 $307 $306 $299 $377 forward $195 $-1 #
coedge $-1 $299 $197 $199 $303 reversed $112 $-1 #
coedge $-1 $197 $298 $297 $377 reversed $112 $-1 #
coedge $-1 $205 $200 $197 $301 forward $206 $-1 #
edge $-1 $304 -93.425045975912852 $378 -88.411902073660798 $300 $379 forward 7 unknown #
coedge $-1 $199 $198 $307 $380 reversed $69 $-1 #
edge $-1 $381 135.00980135676303 $304 140.74159978026671 $298 $382 forward 7 unknown #
vertex $-1 $201 $383 #
straight-curve $-1 70.370799890133355 -4.6622698011189723 4.4781655097822508 0 1 0 I I #
coedge $-1 $297 $202 $205 $311 forward $195 $-1 #
coedge $-1 $202 $297 $302 $380 forward $195 $-1 #
vertex $-1 $203 $384 #
straight-curve $-1 62.616649069569789 -15.199657335207341 9.4913094120342834 1 0 0 I I #
straight-curve $-1 2.1379202838325 -15.199657335207341 127.57354336508931 -0.48480960649040278 0 0.87461971476443456 I I #
edge $-1 $207 -15.199657335207341 $378 -3.4494218692685479 $205 $385 forward 7 unknown #
point $-1 70.370799890133355 -15.199657335207341 9.4913094120342869 #
point $-1 70.370799890133355 -15.199657335207341 4.4781655097822295 #
edge $-1 $386 1 $386 0 $210 $-1 forward 7 unknown #
vertex $-1 $211 $387 #
ellipse-curve $-1 65.839084811651389 -12.849610242019583 5.2429324096531262 0.87461971476443456 0 0.48480960649040278 0.48480960649040278 0 -0.87461971476443456 1 I I #
point $-1 69.466194027533206 -12.849610242019583 6.1101177461438017 #
edge $-1 $388 1 $388 0 $214 $-1 forward 7 unknown #
vertex $-1 $215 $389 #
ellipse-curve $-1 65.839084811651389 -9.3245396022379445 5.2429324096531262 0.87461971476443456 0 0.48480960649040278 0.48480960649040278 0 -0.87461971476443456 1 I I #
point $-1 69.466194027533206 -9.3245396022379445 6.1101177461438017 #
edge $-1 $390 1 $390 0 $218 $-1 forward 7 unknown #
vertex $-1 $219 $391 #
ellipse-curve $-1 65.839084811651389 -5.7994689624563058 5.2429324096531262 0.87461971476443456 0 0.48480960649040278 0.48480960649040278 0 -0.87461971476443456 1 I I #
point $-1 69.466194027533206 -5.7994689624563058 6.1101177461438017 #
plane-surface $-1 70.370799890133355 0 0 -1 0 0 0 0 1 forward_v I I I I #
coedge $-1 $227 $225 $229 $331 reversed $141 $-1 #
edge $-1 $240 -9.4913094120342869 $333 9.4913094120342869 $239 $392 forward 7 unknown #
vertex $-1 $331 $393 #
straight-curve $-1 -70.370799890133355 -34.286409593981446 0 0 0 -1 I I #
edge $-1 $329 -34.286409593981446 $333 34.286409593981446 $327 $394 forward 7 unknown #
straight-curve $-1 0 -34.286409593981446 -9.4913094120342869 -1 0 0 I I #
vertex $-1 $232 $395 #
straight-curve $-1 0 34.286409593981446 -9.4913094120342869 1 0 0 I I #
point $-1 70.370799890133355 34.286409593981446 -9.4913094120342869 #
point $-1 70.370799890133355 -34.286409593981446 -9.4913094120342869 #
straight-curve $-1 -70.370799890133355 0 9.4913094120342869 0 -1 0 I I #
point $-1 -70.370799890133355 34.286409593981446 9.4913094120342869 #
point $-1 -70.370799890133355 -34.286409593981446 9.4913094120342869 #
straight-curve $-1 70.370799890133355 -34.286409593981446 0 0 0 -1 I I #
straight-curve $-1 70.370799890133355 34.286409593981446 0 0 0 -1 I I #
plane-surface $-1 70.370799890133355 0 0 -1 0 0 0 0 1 forward_v I I I I #
coedge $-1 $346 $252 $263 $355 forward $160 $-1 #
coedge $-1 $252 $346 $266 $357 reversed $160 $-1 #
straight-curve $-1 70.370799890133355 -27.811087070628417 -1.1406122363441216 0 0 1 I I #
coedge $-1 $344 $343 $255 $347 forward $160 $-1 #
edge $-1 $350 12.286712904475952 $348 18.76203542782898 $346 $396 forward 7 unknown #
vertex $-1 $257 $397 #
straight-curve $-1 0 -34.286409593981446 -4.7240772796706079 1 0 0 I I #
vertex $-1 $347 $398 #
straight-curve $-1 0 -27.811087070628417 -4.7240772796706079 1 0 0 I I #
point $-1 70.370799890133355 -34.286409593981446 -4.7240772796706079 #
point $-1 70.370799890133355 -27.811087070628417 -4.7240772796706079 #
straight-curve $-1 -70.370799890133355 -15.524374166152466 0.1616283342941216 0 1 0 I I #
edge $-1 $264 -1.3022405706382432 $350 3.5834650433264863 $343 $399 forward 7 unknown #
point $-1 -70.370799890133355 -27.811087070628417 0.1616283342941216 #
edge $-1 $268 -0.1616283342941216 $348 4.7240772796706079 $344 $400 forward 7 unknown #
point $-1 -70.370799890133355 -34.286409593981446 0.1616283342941216 #
straight-curve $-1 70.370799890133355 -34.286409593981446 0 0 0 -1 I I #
plane-surface $-1 0 34.286409593981446 0 0 -1 0 0 0 -1 forward_v I I I I #
coedge $-1 $401 $276 $280 $366 forward $179 $-1 #
coedge $-1 $276 $401 $291 $373 forward $179 $-1 #
vertex $-1 $278 $402 #
straight-curve $-1 0 27.20563265737049 -9.4913094120342869 -1 0 0 I I #
coedge $-1 $280 $279 $286 $371 forward $274 $-1 #
edge $-1 $281 27.20563265737049 $403 34.286409593981446 $280 $404 forward 7 unknown #
point $-1 -70.370799890133355 27.20563265737049 -9.4913094120342869 #
point $-1 -70.370799890133355 27.20563265737049 -3.811470252611223 #
straight-curve $-1 -70.370799890133355 15.373010562837983 -3.811470252611223 0 1 0 I I #
coedge $-1 $286 $285 $401 $405 reversed $287 $-1 #
edge $-1 $288 3.811470252611223 $403 9.4913094120342869 $286 $406 forward 7 unknown #
point $-1 -70.370799890133355 34.286409593981446 -3.811470252611223 #
edge $-1 $375 -34.286409593981446 $363 -27.20563265737049 $291 $407 forward 7 unknown #
straight-curve $-1 70.370799890133355 27.20563265737049 -3.3256949161613774 0 0 -1 I I #
vertex $-1 $373 $408 #
straight-curve $-1 70.370799890133355 34.286409593981446 0 0 0 -1 I I #
edge $-1 $378 -7.7541508205635665 $381 -4.9753198823824363 $297 $409 forward 7 unknown #
vertex $-1 $377 $410 #
straight-curve $-1 70.370799890133355 -3.4494218692685479 97.903211485695081 0 0 1 I I #
edge $-1 $381 -1.2128479318504244 $308 10.537387534088369 $307 $411 forward 7 unknown #
vertex $-1 $380 $412 #
straight-curve $-1 2.1379202838325 -3.4494218692685479 127.57354336508931 0.48480960649040278 0 -0.87461971476443456 I I #
point $-1 70.370799890133355 -3.4494218692685479 4.4781655097822295 #
point $-1 67.591968951952225 -15.199657335207341 9.4913094120342691 #
straight-curve $-1 70.370799890133355 0 9.4913094120342869 0 1 0 I I #
vertex $-1 $314 $413 #
point $-1 66.323894418141791 -12.849610242019583 4.3683126948886919 #
vertex $-1 $318 $414 #
point $-1 66.323894418141791 -9.3245396022379445 4.3683126948886919 #
vertex $-1 $322 $415 #
point $-1 66.323894418141791 -5.7994689624563058 4.3683126948886919 #
straight-curve $-1 -70.370799890133355 34.286409593981446 0 0 0 -1 I I #
point $-1 -70.370799890133355 -34.286409593981446 -9.4913094120342869 #
straight-curve $-1 -70.370799890133355 0 -9.4913094120342869 0 1 0 I I #
point $-1 -70.370799890133355 34.286409593981446 -9.4913094120342869 #
straight-curve $-1 -70.370799890133355 -15.524374166152466 -4.7240772796706079 0 -1 0 I I #
point $-1 -70.370799890133355 -34.286409593981446 -4.7240772796706079 #
point $-1 -70.370799890133355 -27.811087070628417 -4.7240772796706079 #
straight-curve $-1 -70.370799890133355 -27.811087070628417 -1.1406122363441216 0 0 -1 I I #
straight-curve $-1 -70.370799890133355 -34.286409593981446 0 0 0 -1 I I #
coedge $-1 $362 $361 $370 $405 forward $179 $-1 #
point $-1 70.370799890133355 27.20563265737049 -9.4913094120342869 #
vertex $-1 $405 $416 #
straight-curve $-1 -70.370799890133355 0 -9.4913094120342869 0 1 0 I I #
edge $-1 $403 -70.370799890133355 $375 70.370799890133355 $370 $417 forward 7 unknown #
straight-curve $-1 -70.370799890133355 34.286409593981446 0 0 0 -1 I I #
straight-curve $-1 70.370799890133355 0 -9.4913094120342869 0 -1 0 I I #
point $-1 70.370799890133355 34.286409593981446 -9.4913094120342869 #
straight-curve $-1 62.616649069569789 -3.4494218692685479 9.4913094120342834 -1 0 0 I I #
point $-1 70.370799890133355 -3.4494218692685479 9.4913094120342869 #
straight-curve $-1 67.591968951952225 -4.6622698011189723 9.4913094120342834 0 -1 0 I I #
point $-1 67.591968951952225 -3.4494218692685479 9.4913094120342691 #
point $-1 64.964465096886954 -12.849610242019583 4.7581228031627232 #
point $-1 64.964465096886954 -9.3245396022379445 4.7581228031627232 #
point $-1 64.964465096886954 -5.7994689624563058 4.7581228031627232 #
point $-1 -70.370799890133355 34.286409593981446 -9.4913094120342869 #
straight-curve $-1 0 34.286409593981446 -9.4913094120342869 1 0 0 I I #
End-of-ACIS-data 