500 0 18 0           
7 Unknown 11 ACIS 5.0 NT 24 Fri Mar 26 19:08:05 1999 
-1 9.9999999999999995e-007 1e-010 
body $-1 $18 $-1 $19 #
body $-1 $20 $-1 $21 #
body $-1 $22 $-1 $23 #
body $-1 $24 $-1 $25 #
body $-1 $26 $-1 $27 #
body $-1 $28 $-1 $29 #
body $-1 $30 $-1 $31 #
body $-1 $32 $-1 $33 #
body $-1 $34 $-1 $35 #
body $-1 $36 $-1 $37 #
body $-1 $38 $-1 $39 #
body $-1 $40 $-1 $41 #
body $-1 $42 $-1 $43 #
body $-1 $44 $-1 $45 #
body $-1 $46 $-1 $47 #
body $-1 $48 $-1 $49 #
body $-1 $50 $-1 $51 #
body $-1 $52 $-1 $53 #
lump $-1 $-1 $54 $0 #
transform $-1 1 0 0 0 1 0 0 0 1 63.726310007019258 43.669063150932629 18.720776909313205 1 rotate no_reflect no_shear #
lump $-1 $-1 $55 $1 #
transform $-1 1 0 0 0 1 0 0 0 1 63.726310007019258 43.669063150932629 18.720776909313205 1 rotate no_reflect no_shear #
lump $-1 $-1 $56 $2 #
transform $-1 1 0 0 0 1 0 0 0 1 63.726310007019258 43.669063150932629 18.720776909313205 1 rotate no_reflect no_shear #
lump $-1 $-1 $57 $3 #
transform $-1 1 0 0 0 1 0 0 0 1 63.726310007019258 43.669063150932629 18.720776909313205 1 rotate no_reflect no_shear #
lump $-1 $-1 $58 $4 #
transform $-1 1 0 0 0 1 0 0 0 1 63.726310007019258 43.669063150932629 18.720776909313205 1 rotate no_reflect no_shear #
lump $-1 $-1 $59 $5 #
transform $-1 1 0 0 0 1 0 0 0 1 63.726310007019258 43.669063150932629 18.720776909313205 1 rotate no_reflect no_shear #
lump $-1 $-1 $60 $6 #
transform $-1 1 0 0 0 1 0 0 0 1 63.726310007019258 43.669063150932629 18.720776909313205 1 rotate no_reflect no_shear #
lump $-1 $-1 $61 $7 #
transform $-1 1 0 0 0 1 0 0 0 1 63.726310007019258 43.669063150932629 18.720776909313205 1 rotate no_reflect no_shear #
lump $-1 $-1 $62 $8 #
transform $-1 1 0 0 0 1 0 0 0 1 63.726310007019258 43.669063150932629 18.720776909313205 1 rotate no_reflect no_shear #
lump $-1 $-1 $63 $9 #
transform $-1 1 0 0 0 1 0 0 0 1 63.726310007019258 43.669063150932629 18.720776909313205 1 rotate no_reflect no_shear #
lump $-1 $-1 $64 $10 #
transform $-1 1 0 0 0 1 0 0 0 1 63.726310007019258 43.669063150932629 18.720776909313205 1 rotate no_reflect no_shear #
lump $-1 $-1 $65 $11 #
transform $-1 1 0 0 0 1 0 0 0 1 63.726310007019258 43.669063150932629 18.720776909313205 1 rotate no_reflect no_shear #
lump $-1 $-1 $66 $12 #
transform $-1 1 0 0 0 1 0 0 0 1 63.726310007019258 43.669063150932629 18.720776909313205 1 rotate no_reflect no_shear #
lump $-1 $-1 $67 $13 #
transform $-1 1 0 0 0 1 0 0 0 1 63.726310007019258 43.669063150932629 18.720776909313205 1 rotate no_reflect no_shear #
lump $-1 $-1 $68 $14 #
transform $-1 1 0 0 0 1 0 0 0 1 63.726310007019258 43.669063150932629 18.720776909313205 1 rotate no_reflect no_shear #
lump $-1 $-1 $69 $15 #
transform $-1 1 0 0 0 1 0 0 0 1 63.726310007019258 43.669063150932629 18.720776909313205 1 rotate no_reflect no_shear #
lump $-1 $-1 $70 $16 #
transform $-1 1 0 0 0 1 0 0 0 1 63.726310007019258 43.669063150932629 18.720776909313205 1 rotate no_reflect no_shear #
lump $-1 $-1 $71 $17 #
transform $-1 1 0 0 0 1 0 0 0 1 63.726310007019258 43.669063150932629 18.720776909313205 1 rotate no_reflect no_shear #
shell $-1 $-1 $-1 $72 $-1 $18 #
shell $-1 $-1 $-1 $73 $-1 $20 #
shell $-1 $-1 $-1 $74 $-1 $22 #
shell $-1 $-1 $-1 $75 $-1 $24 #
shell $-1 $-1 $-1 $76 $-1 $26 #
shell $-1 $-1 $-1 $77 $-1 $28 #
shell $-1 $-1 $-1 $78 $-1 $30 #
shell $-1 $-1 $-1 $79 $-1 $32 #
shell $-1 $-1 $-1 $80 $-1 $34 #
shell $-1 $-1 $-1 $81 $-1 $36 #
shell $-1 $-1 $-1 $82 $-1 $38 #
shell $-1 $-1 $-1 $83 $-1 $40 #
shell $-1 $-1 $-1 $84 $-1 $42 #
shell $-1 $-1 $-1 $85 $-1 $44 #
shell $-1 $-1 $-1 $86 $-1 $46 #
shell $-1 $-1 $-1 $87 $-1 $48 #
shell $-1 $-1 $-1 $88 $-1 $50 #
shell $-1 $-1 $-1 $89 $-1 $52 #
face $-1 $90 $91 $54 $-1 $92 forward single #
face $-1 $93 $94 $55 $-1 $95 reversed single #
face $-1 $96 $97 $56 $-1 $98 reversed single #
face $-1 $99 $100 $57 $-1 $101 forward single #
face $-1 $102 $103 $58 $-1 $104 forward single #
face $-1 $105 $106 $59 $-1 $107 forward single #
face $-1 $108 $109 $60 $-1 $110 reversed single #
face $-1 $111 $112 $61 $-1 $113 forward single #
face $-1 $114 $115 $62 $-1 $116 forward single #
face $-1 $117 $118 $63 $-1 $119 forward single #
face $-1 $120 $121 $64 $-1 $122 reversed single #
face $-1 $123 $124 $65 $-1 $125 forward single #
face $-1 $126 $127 $66 $-1 $128 forward single #
face $-1 $129 $130 $67 $-1 $131 forward single #
face $-1 $132 $133 $68 $-1 $134 reversed single #
face $-1 $135 $136 $69 $-1 $137 forward single #
face $-1 $138 $139 $70 $-1 $140 forward single #
face $-1 $141 $142 $71 $-1 $143 forward single #
face $-1 $144 $145 $54 $-1 $146 reversed single #
loop $-1 $-1 $147 $72 #
plane-surface $-1 0 0 18.720776909313205 0 0 1 1 0 0 forward_v I I I I #
face $-1 $148 $149 $55 $-1 $150 reversed single #
loop $-1 $-1 $151 $73 #
plane-surface $-1 -49.347951193055373 -41.148639940524745 0 -1 0 0 0 0 1 forward_v I I I I #
face $-1 $152 $153 $56 $-1 $154 reversed single #
loop $-1 $-1 $155 $74 #
plane-surface $-1 -49.34795119305538 105.4728613922359 143.62973925202849 1 0 0 0 -0.84804810408105047 -0.52991925155115449 forward_v I I I I #
face $-1 $156 $157 $57 $-1 $158 forward single #
loop $-1 $159 $160 $75 #
cone-surface $-1 -45.003735184890154 36.047428940457522 8.8693479509497433 0 -0.84804810408105047 -0.52991925155115449 1.5 0 0 1 I I 0 1 1.5 forward I I I I #
face $-1 $161 $162 $58 $-1 $163 forward single #
loop $-1 $164 $165 $76 #
cone-surface $-1 -38.487411172642311 36.047428940457522 8.8693479509497433 0 -0.84804810408105047 -0.52991925155115449 1.5 0 0 1 I I 0 1 1.5 forward I I I I #
face $-1 $166 $167 $59 $-1 $168 forward single #
loop $-1 $169 $170 $77 #
cone-surface $-1 -31.971087160394475 36.047428940457522 8.8693479509497433 0 -0.84804810408105047 -0.52991925155115449 1.5 0 0 1 I I 0 1 1.5 forward I I I I #
face $-1 $171 $172 $60 $-1 $173 reversed single #
loop $-1 $-1 $174 $78 #
plane-surface $-1 42.005229966193113 105.4728613922359 143.62973925202849 1 0 0 0 -0.84804810408105047 -0.52991925155115449 forward_v I I I I #
face $-1 $175 $176 $61 $-1 $177 forward single #
loop $-1 $178 $179 $79 #
cone-surface $-1 46.349445974358339 36.047428940457522 8.8693479509497433 0 -0.84804810408105047 -0.52991925155115449 1.5 0 0 1 I I 0 1 1.5 forward I I I I #
face $-1 $180 $181 $62 $-1 $182 forward single #
loop $-1 $183 $184 $80 #
cone-surface $-1 52.865769986606175 36.047428940457522 8.8693479509497433 0 -0.84804810408105047 -0.52991925155115449 1.5 0 0 1 I I 0 1 1.5 forward I I I I #
face $-1 $185 $186 $63 $-1 $187 forward single #
loop $-1 $188 $189 $81 #
cone-surface $-1 59.38209399885401 36.047428940457522 8.8693479509497433 0 -0.84804810408105047 -0.52991925155115449 1.5 0 0 1 I I 0 1 1.5 forward I I I I #
face $-1 $190 $191 $64 $-1 $192 reversed single #
loop $-1 $-1 $193 $82 #
plane-surface $-1 -38.487411172642311 -43.669063150932644 2.0232098216673506 0 -0.84804810408105047 0.52991925155115449 1 0 0 forward_v I I I I #
face $-1 $194 $195 $65 $-1 $196 forward single #
loop $-1 $197 $198 $83 #
cone-surface $-1 -45.003735184890154 -36.047428940457522 8.8693479509497362 0 0.84804810408105047 -0.52991925155115449 1.5 0 0 1 I I 0 1 1.5 forward I I I I #
face $-1 $199 $200 $66 $-1 $201 forward single #
loop $-1 $202 $203 $84 #
cone-surface $-1 -38.487411172642311 -36.047428940457522 8.8693479509497362 0 0.84804810408105047 -0.52991925155115449 1.5 0 0 1 I I 0 1 1.5 forward I I I I #
face $-1 $204 $205 $67 $-1 $206 forward single #
loop $-1 $207 $208 $85 #
cone-surface $-1 -31.971087160394475 -36.047428940457522 8.8693479509497362 0 0.84804810408105047 -0.52991925155115449 1.5 0 0 1 I I 0 1 1.5 forward I I I I #
face $-1 $209 $210 $68 $-1 $211 reversed single #
loop $-1 $-1 $212 $86 #
plane-surface $-1 42.005229966193113 -151.75501591400055 69.562806827740332 1 0 0 0 0.84804810408105047 -0.52991925155115449 forward_v I I I I #
face $-1 $213 $214 $69 $-1 $215 forward single #
loop $-1 $216 $217 $87 #
cone-surface $-1 46.349445974358339 -36.047428940457522 8.8693479509497362 0 0.84804810408105047 -0.52991925155115449 1.5 0 0 1 I I 0 1 1.5 forward I I I I #
face $-1 $218 $219 $70 $-1 $220 forward single #
loop $-1 $221 $222 $88 #
cone-surface $-1 52.865769986606175 -36.047428940457522 8.8693479509497362 0 0.84804810408105047 -0.52991925155115449 1.5 0 0 1 I I 0 1 1.5 forward I I I I #
face $-1 $223 $224 $71 $-1 $225 forward single #
loop $-1 $226 $227 $89 #
cone-surface $-1 59.38209399885401 -36.047428940457522 8.8693479509497362 0 0.84804810408105047 -0.52991925155115449 1.5 0 0 1 I I 0 1 1.5 forward I I I I #
face $-1 $228 $229 $54 $-1 $230 reversed single #
loop $-1 $-1 $231 $90 #
plane-surface $-1 0 0 -18.720776909313205 0 0 1 1 0 0 forward_v I I I I #
coedge $-1 $232 $233 $234 $235 forward $91 $-1 #
face $-1 $236 $237 $55 $-1 $238 forward single #
loop $-1 $-1 $239 $93 #
plane-surface $-1 -56.537130600037315 -38.628216730116861 0 0 -1 0 0 0 -1 forward_v I I I I #
coedge $-1 $240 $241 $242 $243 reversed $94 $-1 #
face $-1 $244 $245 $56 $-1 $246 reversed single #
loop $-1 $-1 $247 $96 #
plane-surface $-1 -38.487411172642311 -2.6130913708320094 76.090142245955505 0 0.84804810408105047 0.52991925155115449 1 0 0 forward_v I I I I #
coedge $-1 $248 $249 $250 $251 reversed $97 $-1 #
face $-1 $-1 $252 $57 $-1 $253 forward single #
loop $-1 $254 $255 $99 #
cone-surface $-1 -45.003735184890154 33.006657440580923 6.9692630977458414 0 -0.84804810408105047 -0.52991925155115449 0.75 0 0 1 I I -0.70710678118654757 0.70710678118654757 0.75 forward I I I I #
loop $-1 $-1 $256 $75 #
coedge $-1 $160 $160 $257 $258 reversed $100 $-1 #
face $-1 $-1 $259 $58 $-1 $260 forward single #
loop $-1 $261 $262 $102 #
cone-surface $-1 -38.487411172642311 33.006657440580923 6.9692630977458414 0 -0.84804810408105047 -0.52991925155115449 0.75 0 0 1 I I -0.70710678118654757 0.70710678118654757 0.75 forward I I I I #
loop $-1 $-1 $263 $76 #
coedge $-1 $165 $165 $264 $265 reversed $103 $-1 #
face $-1 $-1 $266 $59 $-1 $267 forward single #
loop $-1 $268 $269 $105 #
cone-surface $-1 -31.971087160394475 33.006657440580923 6.9692630977458414 0 -0.84804810408105047 -0.52991925155115449 0.75 0 0 1 I I -0.70710678118654757 0.70710678118654757 0.75 forward I I I I #
loop $-1 $-1 $270 $77 #
coedge $-1 $170 $170 $271 $272 reversed $106 $-1 #
face $-1 $273 $274 $60 $-1 $275 forward single #
loop $-1 $-1 $276 $108 #
plane-surface $-1 52.865769986606175 -2.6130913708320094 76.090142245955505 0 0.84804810408105047 0.52991925155115449 1 0 0 forward_v I I I I #
coedge $-1 $277 $278 $279 $280 reversed $109 $-1 #
face $-1 $-1 $281 $61 $-1 $282 forward single #
loop $-1 $283 $284 $111 #
cone-surface $-1 46.349445974358339 33.006657440580923 6.9692630977458414 0 -0.84804810408105047 -0.52991925155115449 0.75 0 0 1 I I -0.70710678118654757 0.70710678118654757 0.75 forward I I I I #
loop $-1 $-1 $285 $79 #
coedge $-1 $179 $179 $286 $287 reversed $112 $-1 #
face $-1 $-1 $288 $62 $-1 $289 forward single #
loop $-1 $290 $291 $114 #
cone-surface $-1 52.865769986606175 33.006657440580923 6.9692630977458414 0 -0.84804810408105047 -0.52991925155115449 0.75 0 0 1 I I -0.70710678118654757 0.70710678118654757 0.75 forward I I I I #
loop $-1 $-1 $292 $80 #
coedge $-1 $184 $184 $293 $294 reversed $115 $-1 #
face $-1 $-1 $295 $63 $-1 $296 forward single #
loop $-1 $297 $298 $117 #
cone-surface $-1 59.38209399885401 33.006657440580923 6.9692630977458414 0 -0.84804810408105047 -0.52991925155115449 0.75 0 0 1 I I -0.70710678118654757 0.70710678118654757 0.75 forward I I I I #
loop $-1 $-1 $299 $81 #
coedge $-1 $189 $189 $300 $301 reversed $118 $-1 #
face $-1 $302 $303 $64 $-1 $304 forward single #
loop $-1 $-1 $305 $120 #
plane-surface $-1 -27.626871152229246 -151.75501591400055 69.562806827740332 -1 0 0 0 -0.84804810408105047 0.52991925155115449 forward_v I I I I #
coedge $-1 $306 $307 $308 $309 reversed $121 $-1 #
face $-1 $-1 $310 $65 $-1 $311 forward single #
loop $-1 $312 $313 $123 #
cone-surface $-1 -45.003735184890154 -33.006657440580923 6.9692630977458343 0 0.84804810408105047 -0.52991925155115449 0.75 0 0 1 I I -0.70710678118654757 0.70710678118654757 0.75 forward I I I I #
loop $-1 $-1 $314 $83 #
coedge $-1 $198 $198 $315 $316 reversed $124 $-1 #
face $-1 $-1 $317 $66 $-1 $318 forward single #
loop $-1 $319 $320 $126 #
cone-surface $-1 -38.487411172642311 -33.006657440580923 6.9692630977458343 0 0.84804810408105047 -0.52991925155115449 0.75 0 0 1 I I -0.70710678118654757 0.70710678118654757 0.75 forward I I I I #
loop $-1 $-1 $321 $84 #
coedge $-1 $203 $203 $322 $323 reversed $127 $-1 #
face $-1 $-1 $324 $67 $-1 $325 forward single #
loop $-1 $326 $327 $129 #
cone-surface $-1 -31.971087160394475 -33.006657440580923 6.9692630977458343 0 0.84804810408105047 -0.52991925155115449 0.75 0 0 1 I I -0.70710678118654757 0.70710678118654757 0.75 forward I I I I #
loop $-1 $-1 $328 $85 #
coedge $-1 $208 $208 $329 $330 reversed $130 $-1 #
face $-1 $331 $332 $68 $-1 $333 reversed single #
loop $-1 $-1 $334 $132 #
plane-surface $-1 52.865769986606175 -43.669063150932644 2.0232098216673506 0 -0.84804810408105047 0.52991925155115449 1 0 0 forward_v I I I I #
coedge $-1 $335 $336 $337 $338 reversed $133 $-1 #
face $-1 $-1 $339 $69 $-1 $340 forward single #
loop $-1 $341 $342 $135 #
cone-surface $-1 46.349445974358339 -33.006657440580923 6.9692630977458343 0 0.84804810408105047 -0.52991925155115449 0.75 0 0 1 I I -0.70710678118654757 0.70710678118654757 0.75 forward I I I I #
loop $-1 $-1 $343 $87 #
coedge $-1 $217 $217 $344 $345 reversed $136 $-1 #
face $-1 $-1 $346 $70 $-1 $347 forward single #
loop $-1 $348 $349 $138 #
cone-surface $-1 52.865769986606175 -33.006657440580923 6.9692630977458343 0 0.84804810408105047 -0.52991925155115449 0.75 0 0 1 I I -0.70710678118654757 0.70710678118654757 0.75 forward I I I I #
loop $-1 $-1 $350 $88 #
coedge $-1 $222 $222 $351 $352 reversed $139 $-1 #
face $-1 $-1 $353 $71 $-1 $354 forward single #
loop $-1 $355 $356 $141 #
cone-surface $-1 59.38209399885401 -33.006657440580923 6.9692630977458343 0 0.84804810408105047 -0.52991925155115449 0.75 0 0 1 I I -0.70710678118654757 0.70710678118654757 0.75 forward I I I I #
loop $-1 $-1 $357 $89 #
coedge $-1 $227 $227 $358 $359 reversed $142 $-1 #
face $-1 $360 $361 $54 $-1 $362 reversed single #
loop $-1 $-1 $363 $144 #
plane-surface $-1 0 -43.669063150932629 0 0 1 0 0 0 1 forward_v I I I I #
coedge $-1 $364 $365 $366 $367 forward $145 $-1 #
coedge $-1 $368 $147 $369 $370 forward $91 $-1 #
coedge $-1 $147 $368 $371 $372 forward $91 $-1 #
coedge $-1 $373 $374 $147 $235 reversed $375 $-1 #
edge $-1 $376 -43.669063150932629 $377 43.669063150932629 $234 $378 forward 7 unknown #
face $-1 $379 $380 $55 $-1 $381 reversed single #
loop $-1 $-1 $382 $148 #
plane-surface $-1 0 0 18.720776909313205 0 0 1 1 0 0 forward_v I I I I #
coedge $-1 $383 $384 $385 $386 forward $149 $-1 #
coedge $-1 $385 $151 $387 $388 reversed $94 $-1 #
coedge $-1 $151 $385 $382 $389 reversed $94 $-1 #
coedge $-1 $390 $391 $151 $243 forward $392 $-1 #
edge $-1 $393 -18.720776909313205 $394 18.720776909313205 $242 $395 forward 7 unknown #
face $-1 $396 $397 $56 $-1 $398 reversed single #
loop $-1 $-1 $399 $152 #
plane-surface $-1 -27.626871152229246 105.4728613922359 143.62973925202849 -1 0 0 0 0.84804810408105047 0.52991925155115449 forward_v I I I I #
coedge $-1 $400 $401 $402 $403 reversed $153 $-1 #
coedge $-1 $249 $155 $404 $405 reversed $97 $-1 #
coedge $-1 $155 $248 $400 $406 reversed $97 $-1 #
coedge $-1 $402 $407 $155 $251 forward $408 $-1 #
edge $-1 $409 9.06736754518532 $410 19.501165122503906 $250 $411 forward 7 unknown #
loop $-1 $-1 $257 $156 #
plane-surface $-1 -38.487411172642311 -2.6130913708320094 76.090142245955505 0 0.84804810408105047 0.52991925155115449 1 0 0 forward_v I I I I #
loop $-1 $-1 $412 $99 #
coedge $-1 $255 $255 $256 $413 reversed $157 $-1 #
coedge $-1 $256 $256 $255 $413 forward $159 $-1 #
coedge $-1 $257 $257 $160 $258 forward $252 $-1 #
edge $-1 $414 -1.004290699883193e-015 $414 6.2831853071795996 $257 $415 forward 7 unknown #
loop $-1 $-1 $264 $161 #
plane-surface $-1 -38.487411172642311 -2.6130913708320094 76.090142245955505 0 0.84804810408105047 0.52991925155115449 1 0 0 forward_v I I I I #
loop $-1 $-1 $416 $102 #
coedge $-1 $262 $262 $263 $417 reversed $162 $-1 #
coedge $-1 $263 $263 $262 $417 forward $164 $-1 #
coedge $-1 $264 $264 $165 $265 forward $259 $-1 #
edge $-1 $418 -1.004290699883193e-015 $418 6.2831853071795996 $264 $419 forward 7 unknown #
loop $-1 $-1 $271 $166 #
plane-surface $-1 -38.487411172642311 -2.6130913708320094 76.090142245955505 0 0.84804810408105047 0.52991925155115449 1 0 0 forward_v I I I I #
loop $-1 $-1 $420 $105 #
coedge $-1 $269 $269 $270 $421 reversed $167 $-1 #
coedge $-1 $270 $270 $269 $421 forward $169 $-1 #
coedge $-1 $271 $271 $170 $272 forward $266 $-1 #
edge $-1 $422 -1.004290699883193e-015 $422 6.2831853071795996 $271 $423 forward 7 unknown #
face $-1 $424 $425 $60 $-1 $426 reversed single #
loop $-1 $-1 $279 $171 #
plane-surface $-1 0 0 18.720776909313205 0 0 1 1 0 0 forward_v I I I I #
coedge $-1 $427 $428 $429 $430 reversed $172 $-1 #
coedge $-1 $278 $174 $431 $432 reversed $109 $-1 #
coedge $-1 $174 $277 $427 $433 reversed $109 $-1 #
coedge $-1 $429 $434 $174 $280 forward $274 $-1 #
edge $-1 $435 9.06736754518532 $436 19.501165122503906 $279 $437 forward 7 unknown #
loop $-1 $-1 $286 $175 #
plane-surface $-1 52.865769986606175 -2.6130913708320094 76.090142245955505 0 0.84804810408105047 0.52991925155115449 1 0 0 forward_v I I I I #
loop $-1 $-1 $438 $111 #
coedge $-1 $284 $284 $285 $439 reversed $176 $-1 #
coedge $-1 $285 $285 $284 $439 forward $178 $-1 #
coedge $-1 $286 $286 $179 $287 forward $281 $-1 #
edge $-1 $440 -1.004290699883193e-015 $440 6.2831853071795996 $286 $441 forward 7 unknown #
loop $-1 $-1 $293 $180 #
plane-surface $-1 52.865769986606175 -2.6130913708320094 76.090142245955505 0 0.84804810408105047 0.52991925155115449 1 0 0 forward_v I I I I #
loop $-1 $-1 $442 $114 #
coedge $-1 $291 $291 $292 $443 reversed $181 $-1 #
coedge $-1 $292 $292 $291 $443 forward $183 $-1 #
coedge $-1 $293 $293 $184 $294 forward $288 $-1 #
edge $-1 $444 -1.004290699883193e-015 $444 6.2831853071795996 $293 $445 forward 7 unknown #
loop $-1 $-1 $300 $185 #
plane-surface $-1 52.865769986606175 -2.6130913708320094 76.090142245955505 0 0.84804810408105047 0.52991925155115449 1 0 0 forward_v I I I I #
loop $-1 $-1 $446 $117 #
coedge $-1 $298 $298 $299 $447 reversed $186 $-1 #
coedge $-1 $299 $299 $298 $447 forward $188 $-1 #
coedge $-1 $300 $300 $189 $301 forward $295 $-1 #
edge $-1 $448 -1.004290699883193e-015 $448 6.2831853071795996 $300 $449 forward 7 unknown #
face $-1 $450 $451 $64 $-1 $452 forward single #
loop $-1 $-1 $453 $190 #
plane-surface $-1 0 0 18.720776909313205 0 0 1 1 0 0 forward_v I I I I #
coedge $-1 $454 $455 $456 $457 reversed $191 $-1 #
coedge $-1 $458 $193 $459 $460 reversed $121 $-1 #
coedge $-1 $193 $458 $454 $461 forward $121 $-1 #
coedge $-1 $456 $462 $193 $309 forward $463 $-1 #
edge $-1 $464 -30.104245606734217 $465 -8.3831655659080901 $308 $466 forward 7 unknown #
loop $-1 $-1 $315 $194 #
plane-surface $-1 -38.487411172642311 -43.669063150932644 2.0232098216673506 0 -0.84804810408105047 0.52991925155115449 1 0 0 forward_v I I I I #
loop $-1 $-1 $467 $123 #
coedge $-1 $313 $313 $314 $468 reversed $195 $-1 #
coedge $-1 $314 $314 $313 $468 forward $197 $-1 #
coedge $-1 $315 $315 $198 $316 forward $310 $-1 #
edge $-1 $469 -1.0498363612714471e-018 $469 6.2831853071796004 $315 $470 forward 7 unknown #
loop $-1 $-1 $322 $199 #
plane-surface $-1 -38.487411172642311 -43.669063150932644 2.0232098216673506 0 -0.84804810408105047 0.52991925155115449 1 0 0 forward_v I I I I #
loop $-1 $-1 $471 $126 #
coedge $-1 $320 $320 $321 $472 reversed $200 $-1 #
coedge $-1 $321 $321 $320 $472 forward $202 $-1 #
coedge $-1 $322 $322 $203 $323 forward $317 $-1 #
edge $-1 $473 -1.0498363612714471e-018 $473 6.2831853071796004 $322 $474 forward 7 unknown #
loop $-1 $-1 $329 $204 #
plane-surface $-1 -38.487411172642311 -43.669063150932644 2.0232098216673506 0 -0.84804810408105047 0.52991925155115449 1 0 0 forward_v I I I I #
loop $-1 $-1 $475 $129 #
coedge $-1 $327 $327 $328 $476 reversed $205 $-1 #
coedge $-1 $328 $328 $327 $476 forward $207 $-1 #
coedge $-1 $329 $329 $208 $330 forward $324 $-1 #
edge $-1 $477 -1.0498363612714471e-018 $477 6.2831853071796004 $329 $478 forward 7 unknown #
face $-1 $479 $480 $68 $-1 $481 forward single #
loop $-1 $-1 $337 $209 #
plane-surface $-1 0 -43.669063150932629 0 0 1 0 0 0 1 forward_v I I I I #
coedge $-1 $482 $483 $484 $485 reversed $210 $-1 #
coedge $-1 $336 $212 $486 $487 reversed $133 $-1 #
coedge $-1 $212 $335 $482 $488 reversed $133 $-1 #
coedge $-1 $484 $489 $212 $338 forward $332 $-1 #
edge $-1 $490 16.060626504556961 $491 32.758193592202794 $337 $492 forward 7 unknown #
loop $-1 $-1 $344 $213 #
plane-surface $-1 52.865769986606175 -43.669063150932644 2.0232098216673506 0 -0.84804810408105047 0.52991925155115449 1 0 0 forward_v I I I I #
loop $-1 $-1 $493 $135 #
coedge $-1 $342 $342 $343 $494 reversed $214 $-1 #
coedge $-1 $343 $343 $342 $494 forward $216 $-1 #
coedge $-1 $344 $344 $217 $345 forward $339 $-1 #
edge $-1 $495 -1.0498363612714471e-018 $495 6.2831853071796004 $344 $496 forward 7 unknown #
loop $-1 $-1 $351 $218 #
plane-surface $-1 52.865769986606175 -43.669063150932644 2.0232098216673506 0 -0.84804810408105047 0.52991925155115449 1 0 0 forward_v I I I I #
loop $-1 $-1 $497 $138 #
coedge $-1 $349 $349 $350 $498 reversed $219 $-1 #
coedge $-1 $350 $350 $349 $498 forward $221 $-1 #
coedge $-1 $351 $351 $222 $352 forward $346 $-1 #
edge $-1 $499 -1.0498363612714471e-018 $499 6.2831853071796004 $351 $500 forward 7 unknown #
loop $-1 $-1 $358 $223 #
plane-surface $-1 52.865769986606175 -43.669063150932644 2.0232098216673506 0 -0.84804810408105047 0.52991925155115449 1 0 0 forward_v I I I I #
loop $-1 $-1 $501 $141 #
coedge $-1 $356 $356 $357 $502 reversed $224 $-1 #
coedge $-1 $357 $357 $356 $502 forward $226 $-1 #
coedge $-1 $358 $358 $227 $359 forward $353 $-1 #
edge $-1 $503 -1.0498363612714471e-018 $503 6.2831853071796004 $358 $504 forward 7 unknown #
face $-1 $505 $506 $54 $-1 $507 reversed single #
loop $-1 $-1 $508 $228 #
plane-surface $-1 -63.726310007019258 0 0 1 0 0 0 0 -1 forward_v I I I I #
coedge $-1 $509 $371 $510 $511 forward $229 $-1 #
coedge $-1 $512 $231 $509 $513 forward $145 $-1 #
coedge $-1 $231 $512 $514 $515 forward $145 $-1 #
coedge $-1 $374 $373 $231 $367 reversed $375 $-1 #
edge $-1 $516 -43.669063150932629 $517 43.669063150932629 $366 $518 forward 7 unknown #
coedge $-1 $233 $232 $519 $520 forward $91 $-1 #
coedge $-1 $521 $522 $232 $370 reversed $506 $-1 #
edge $-1 $377 -63.726310007019258 $523 63.726310007019258 $369 $524 forward 7 unknown #
coedge $-1 $363 $525 $233 $372 reversed $229 $-1 #
edge $-1 $526 -63.726310007019258 $376 63.726310007019258 $371 $527 forward 7 unknown #
coedge $-1 $366 $234 $525 $528 forward $375 $-1 #
coedge $-1 $234 $366 $521 $529 reversed $375 $-1 #
loop $-1 $-1 $373 $505 #
vertex $-1 $235 $530 #
vertex $-1 $235 $531 #
straight-curve $-1 63.726310007019258 0 18.720776909313205 0 1 0 I I #
face $-1 $532 $533 $55 $-1 $534 reversed single #
loop $-1 $-1 $535 $236 #
plane-surface $-1 -63.726310007019258 0 0 1 0 0 0 0 -1 forward_v I I I I #
coedge $-1 $536 $537 $241 $389 forward $237 $-1 #
coedge $-1 $538 $239 $539 $540 reversed $149 $-1 #
coedge $-1 $239 $538 $536 $541 reversed $149 $-1 #
coedge $-1 $241 $240 $239 $386 reversed $94 $-1 #
edge $-1 $542 -18.720776909313205 $543 18.720776909313205 $385 $544 forward 7 unknown #
coedge $-1 $545 $539 $240 $388 forward $533 $-1 #
edge $-1 $543 18.053896759854489 $393 23.094743180670257 $387 $546 forward 7 unknown #
edge $-1 $394 -23.094743180670257 $542 -18.053896759854489 $382 $547 forward 7 unknown #
coedge $-1 $548 $242 $537 $549 reversed $392 $-1 #
coedge $-1 $242 $548 $545 $550 reversed $392 $-1 #
loop $-1 $-1 $242 $532 #
vertex $-1 $550 $551 #
vertex $-1 $243 $552 #
straight-curve $-1 -49.347951193055373 -43.669063150932629 0 0 0 1 I I #
face $-1 $-1 $408 $56 $-1 $553 forward single #
loop $-1 $-1 $554 $244 #
plane-surface $-1 0 43.669063150932629 0 0 -1 0 0 0 -1 forward_v I I I I #
coedge $-1 $555 $556 $557 $558 reversed $245 $-1 #
coedge $-1 $559 $247 $249 $406 forward $153 $-1 #
coedge $-1 $247 $559 $555 $560 forward $153 $-1 #
coedge $-1 $557 $250 $247 $403 forward $408 $-1 #
edge $-1 $410 -30.104245606734224 $561 -8.3831655659080901 $402 $562 forward 7 unknown #
coedge $-1 $563 $564 $248 $405 forward $397 $-1 #
edge $-1 $565 -69.791659804346892 $409 -53.094092716701041 $404 $566 forward 7 unknown #
edge $-1 $410 67.648715987412132 $565 87.338126301865245 $249 $567 forward 7 unknown #
coedge $-1 $250 $557 $563 $568 forward $408 $-1 #
loop $-1 $-1 $557 $396 #
vertex $-1 $405 $569 #
vertex $-1 $251 $570 #
straight-curve $-1 -49.34795119305538 52.736430696117949 18.720776909313201 0 -1 0 I I #
coedge $-1 $412 $412 $-1 $571 reversed $254 $-1 #
edge $-1 $572 0 $572 6.2831853071796004 $255 $573 forward 7 unknown #
vertex $-1 $258 $574 #
ellipse-curve $-1 -45.003735184890154 38.452164362273336 10.371993365490278 0 0.84804810408105047 0.52991925155115449 1.5 0 0 1 I I #
coedge $-1 $416 $416 $-1 $575 reversed $261 $-1 #
edge $-1 $576 0 $576 6.2831853071796004 $262 $577 forward 7 unknown #
vertex $-1 $265 $578 #
ellipse-curve $-1 -38.487411172642311 38.452164362273336 10.371993365490278 0 0.84804810408105047 0.52991925155115449 1.5 0 0 1 I I #
coedge $-1 $420 $420 $-1 $579 reversed $268 $-1 #
edge $-1 $580 0 $580 6.2831853071796004 $269 $581 forward 7 unknown #
vertex $-1 $272 $582 #
ellipse-curve $-1 -31.971087160394475 38.452164362273336 10.371993365490278 0 0.84804810408105047 0.52991925155115449 1.5 0 0 1 I I #
face $-1 $-1 $583 $60 $-1 $584 reversed single #
loop $-1 $-1 $585 $273 #
plane-surface $-1 63.726310007019258 0 0 -1 0 0 0 0 1 forward_v I I I I #
coedge $-1 $586 $276 $278 $433 forward $172 $-1 #
coedge $-1 $276 $586 $585 $587 reversed $172 $-1 #
coedge $-1 $588 $279 $276 $430 forward $274 $-1 #
edge $-1 $436 15.572344972890026 $589 37.293425013716146 $429 $590 forward 7 unknown #
coedge $-1 $591 $592 $277 $432 forward $583 $-1 #
edge $-1 $593 -69.791659804346892 $435 -53.094092716701041 $431 $594 forward 7 unknown #
edge $-1 $436 67.648715987412132 $593 87.338126301865245 $278 $595 forward 7 unknown #
coedge $-1 $279 $588 $591 $596 forward $274 $-1 #
vertex $-1 $432 $597 #
vertex $-1 $280 $598 #
straight-curve $-1 42.005229966193113 52.736430696117949 18.720776909313201 0 -1 0 I I #
coedge $-1 $438 $438 $-1 $599 reversed $283 $-1 #
edge $-1 $600 0 $600 6.2831853071796004 $284 $601 forward 7 unknown #
vertex $-1 $287 $602 #
ellipse-curve $-1 46.349445974358339 38.452164362273336 10.371993365490278 0 0.84804810408105047 0.52991925155115449 1.5 0 0 1 I I #
coedge $-1 $442 $442 $-1 $603 reversed $290 $-1 #
edge $-1 $604 0 $604 6.2831853071796004 $291 $605 forward 7 unknown #
vertex $-1 $294 $606 #
ellipse-curve $-1 52.865769986606175 38.452164362273336 10.371993365490278 0 0.84804810408105047 0.52991925155115449 1.5 0 0 1 I I #
coedge $-1 $446 $446 $-1 $607 reversed $297 $-1 #
edge $-1 $608 0 $608 6.2831853071796004 $298 $609 forward 7 unknown #
vertex $-1 $301 $610 #
ellipse-curve $-1 59.38209399885401 38.452164362273336 10.371993365490278 0 0.84804810408105047 0.52991925155115449 1.5 0 0 1 I I #
face $-1 $-1 $463 $64 $-1 $611 reversed single #
loop $-1 $-1 $459 $302 #
plane-surface $-1 -49.347951193055373 -41.148639940524745 0 -1 0 0 0 0 1 forward_v I I I I #
coedge $-1 $612 $613 $455 $614 forward $303 $-1 #
coedge $-1 $455 $305 $307 $461 reversed $191 $-1 #
coedge $-1 $305 $454 $453 $614 reversed $191 $-1 #
coedge $-1 $615 $308 $305 $457 forward $463 $-1 #
edge $-1 $465 -32.758193592202794 $616 -16.060626504556961 $456 $617 forward 7 unknown #
coedge $-1 $307 $306 $612 $618 reversed $121 $-1 #
coedge $-1 $619 $620 $306 $460 forward $451 $-1 #
edge $-1 $621 -19.879489550538953 $464 -0.1900792360858484 $459 $622 forward 7 unknown #
edge $-1 $623 -19.689410314453127 $465 -2.6737665129848107e-014 $454 $624 forward 7 unknown #
coedge $-1 $308 $615 $619 $625 forward $463 $-1 #
loop $-1 $-1 $456 $450 #
vertex $-1 $460 $626 #
vertex $-1 $309 $627 #
straight-curve $-1 -19.243705586321155 -43.669063150932629 2.0232098216673684 1 0 0 I I #
coedge $-1 $467 $467 $-1 $628 reversed $312 $-1 #
edge $-1 $629 0 $629 6.2831853071796004 $313 $630 forward 7 unknown #
vertex $-1 $316 $631 #
ellipse-curve $-1 -45.003735184890154 -38.452164362273351 10.371993365490281 0 -0.84804810408105047 0.52991925155115449 1.5 0 0 1 I I #
coedge $-1 $471 $471 $-1 $632 reversed $319 $-1 #
edge $-1 $633 0 $633 6.2831853071796004 $320 $634 forward 7 unknown #
vertex $-1 $323 $635 #
ellipse-curve $-1 -38.487411172642311 -38.452164362273351 10.371993365490281 0 -0.84804810408105047 0.52991925155115449 1.5 0 0 1 I I #
coedge $-1 $475 $475 $-1 $636 reversed $326 $-1 #
edge $-1 $637 0 $637 6.2831853071796004 $327 $638 forward 7 unknown #
vertex $-1 $330 $639 #
ellipse-curve $-1 -31.971087160394475 -38.452164362273351 10.371993365490281 0 -0.84804810408105047 0.52991925155115449 1.5 0 0 1 I I #
face $-1 $-1 $640 $68 $-1 $641 reversed single #
loop $-1 $-1 $486 $331 #
plane-surface $-1 0 0 18.720776909313205 0 0 1 1 0 0 forward_v I I I I #
coedge $-1 $642 $334 $336 $488 forward $210 $-1 #
coedge $-1 $334 $642 $643 $644 reversed $210 $-1 #
coedge $-1 $645 $337 $334 $485 forward $332 $-1 #
edge $-1 $491 15.572344972890026 $646 37.293425013716146 $484 $647 forward 7 unknown #
coedge $-1 $648 $649 $335 $487 forward $480 $-1 #
edge $-1 $650 -42.642242383386218 $490 -32.208444806067646 $486 $651 forward 7 unknown #
edge $-1 $491 2.6737665129848107e-014 $650 19.689410314453127 $336 $652 forward 7 unknown #
coedge $-1 $337 $645 $648 $653 reversed $332 $-1 #
vertex $-1 $653 $654 #
vertex $-1 $338 $655 #
straight-curve $-1 42.005229966193113 -43.669063150932629 34.781403413870166 0 0 -1 I I #
coedge $-1 $493 $493 $-1 $656 reversed $341 $-1 #
edge $-1 $657 0 $657 6.2831853071796004 $342 $658 forward 7 unknown #
vertex $-1 $345 $659 #
ellipse-curve $-1 46.349445974358339 -38.452164362273351 10.371993365490281 0 -0.84804810408105047 0.52991925155115449 1.5 0 0 1 I I #
coedge $-1 $497 $497 $-1 $660 reversed $348 $-1 #
edge $-1 $661 0 $661 6.2831853071796004 $349 $662 forward 7 unknown #
vertex $-1 $352 $663 #
ellipse-curve $-1 52.865769986606175 -38.452164362273351 10.371993365490281 0 -0.84804810408105047 0.52991925155115449 1.5 0 0 1 I I #
coedge $-1 $501 $501 $-1 $664 reversed $355 $-1 #
edge $-1 $665 0 $665 6.2831853071796004 $356 $666 forward 7 unknown #
vertex $-1 $359 $667 #
ellipse-curve $-1 59.38209399885401 -38.452164362273351 10.371993365490281 0 -0.84804810408105047 0.52991925155115449 1.5 0 0 1 I I #
face $-1 $-1 $375 $54 $-1 $668 reversed single #
loop $-1 $-1 $521 $360 #
plane-surface $-1 0 43.669063150932629 0 0 -1 0 0 0 -1 forward_v I I I I #
coedge $-1 $669 $519 $522 $670 forward $361 $-1 #
coedge $-1 $525 $363 $364 $513 reversed $229 $-1 #
coedge $-1 $519 $669 $363 $511 reversed $361 $-1 #
edge $-1 $526 -18.720776909313205 $671 18.720776909313205 $510 $672 forward 7 unknown #
coedge $-1 $365 $364 $669 $673 forward $145 $-1 #
edge $-1 $517 -63.726310007019258 $671 63.726310007019258 $509 $674 forward 7 unknown #
coedge $-1 $522 $521 $365 $515 reversed $506 $-1 #
edge $-1 $675 -63.726310007019258 $516 63.726310007019258 $514 $676 forward 7 unknown #
vertex $-1 $367 $677 #
vertex $-1 $528 $678 #
straight-curve $-1 63.726310007019258 0 -18.720776909313205 0 -1 0 I I #
coedge $-1 $508 $510 $368 $520 reversed $361 $-1 #
edge $-1 $523 -43.669063150932629 $526 43.669063150932629 $519 $679 forward 7 unknown #
coedge $-1 $514 $369 $374 $529 forward $506 $-1 #
coedge $-1 $369 $514 $508 $670 reversed $506 $-1 #
vertex $-1 $370 $680 #
straight-curve $-1 0 43.669063150932629 18.720776909313205 -1 0 0 I I #
coedge $-1 $371 $509 $373 $528 reversed $229 $-1 #
vertex $-1 $520 $681 #
straight-curve $-1 0 -43.669063150932629 18.720776909313205 1 0 0 I I #
edge $-1 $376 -18.720776909313205 $517 18.720776909313205 $373 $682 forward 7 unknown #
edge $-1 $377 -18.720776909313205 $516 18.720776909313205 $374 $683 forward 7 unknown #
point $-1 63.726310007019258 -43.669063150932629 18.720776909313205 #
point $-1 63.726310007019258 43.669063150932629 18.720776909313205 #
face $-1 $-1 $392 $55 $-1 $684 reversed single #
loop $-1 $-1 $387 $379 #
plane-surface $-1 0 0 -18.720776909313205 0 0 1 1 0 0 forward_v I I I I #
coedge $-1 $685 $686 $538 $687 forward $380 $-1 #
coedge $-1 $688 $382 $384 $541 forward $237 $-1 #
coedge $-1 $382 $688 $390 $549 forward $237 $-1 #
coedge $-1 $384 $383 $535 $687 reversed $149 $-1 #
coedge $-1 $387 $689 $383 $540 forward $533 $-1 #
edge $-1 $690 -35.4577447070006 $543 -21.079385893036715 $539 $691 forward 7 unknown #
edge $-1 $542 21.079385893036715 $692 35.4577447070006 $536 $693 forward 7 unknown #
vertex $-1 $541 $694 #
vertex $-1 $540 $695 #
straight-curve $-1 -49.347951193055373 -38.628216730116861 0 0 0 -1 I I #
coedge $-1 $689 $387 $391 $550 forward $533 $-1 #
straight-curve $-1 -49.347951193055373 -20.574319970262373 -18.720776909313205 0 -1 0 I I #
straight-curve $-1 -49.347951193055373 -20.574319970262373 18.720776909313205 0 1 0 I I #
coedge $-1 $391 $390 $696 $697 forward $392 $-1 #
edge $-1 $698 -63.726310007019258 $394 -49.347951193055373 $390 $699 forward 7 unknown #
edge $-1 $393 49.347951193055373 $700 63.726310007019258 $391 $701 forward 7 unknown #
point $-1 -49.347951193055373 -43.669063150932629 -18.720776909313205 #
point $-1 -49.347951193055373 -43.669063150932629 18.720776909313205 #
plane-surface $-1 0 0 18.720776909313205 0 0 1 1 0 0 forward_v I I I I #
coedge $-1 $564 $563 $556 $702 forward $397 $-1 #
coedge $-1 $556 $399 $401 $560 reversed $245 $-1 #
coedge $-1 $399 $555 $554 $702 reversed $245 $-1 #
coedge $-1 $407 $402 $399 $558 forward $408 $-1 #
edge $-1 $561 -19.501165122503906 $703 -9.06736754518532 $557 $704 forward 7 unknown #
coedge $-1 $401 $400 $564 $705 reversed $153 $-1 #
edge $-1 $706 -87.338126301865245 $561 -67.648715987412132 $555 $707 forward 7 unknown #
vertex $-1 $403 $708 #
straight-curve $-1 -19.243705586321155 33.235265573614036 18.720776909313209 1 0 0 I I #
coedge $-1 $554 $404 $407 $568 reversed $397 $-1 #
coedge $-1 $404 $554 $559 $705 forward $397 $-1 #
vertex $-1 $405 $709 #
straight-curve $-1 -49.34795119305538 43.669063150932629 71.814869626014243 0 0 1 I I #
straight-curve $-1 -49.34795119305538 -2.6130913708320094 76.090142245955505 0 0.52991925155115449 -0.84804810408105047 I I #
edge $-1 $703 27.626871152229246 $409 49.34795119305538 $563 $710 forward 7 unknown #
point $-1 -49.34795119305538 43.669063150932629 18.720776909313205 #
point $-1 -49.34795119305538 33.235265573614043 18.720776909313201 #
edge $-1 $711 1 $711 0 $412 $-1 forward 7 unknown #
vertex $-1 $413 $712 #
ellipse-curve $-1 -45.003735184890154 33.642693518641714 7.3667025364092069 0 0.84804810408105047 0.52991925155115449 1.5 0 0 1 I I #
point $-1 -43.503735184890154 38.452164362273336 10.37199336549028 #
edge $-1 $713 1 $713 0 $416 $-1 forward 7 unknown #
vertex $-1 $417 $714 #
ellipse-curve $-1 -38.487411172642311 33.642693518641714 7.3667025364092069 0 0.84804810408105047 0.52991925155115449 1.5 0 0 1 I I #
point $-1 -36.987411172642311 38.452164362273336 10.37199336549028 #
edge $-1 $715 1 $715 0 $420 $-1 forward 7 unknown #
vertex $-1 $421 $716 #
ellipse-curve $-1 -31.971087160394475 33.642693518641714 7.3667025364092069 0 0.84804810408105047 0.52991925155115449 1.5 0 0 1 I I #
point $-1 -30.471087160394475 38.452164362273336 10.37199336549028 #
loop $-1 $-1 $431 $424 #
plane-surface $-1 0 43.669063150932629 0 0 -1 0 0 0 -1 forward_v I I I I #
coedge $-1 $717 $718 $428 $587 forward $425 $-1 #
coedge $-1 $428 $427 $592 $719 reversed $172 $-1 #
edge $-1 $589 34.692301840209083 $720 54.38171215466221 $585 $721 forward 7 unknown #
coedge $-1 $434 $429 $718 $722 forward $274 $-1 #
vertex $-1 $722 $723 #
straight-curve $-1 26.432884993303087 33.235265573614036 18.720776909313209 1 0 0 I I #
coedge $-1 $724 $431 $434 $596 reversed $583 $-1 #
coedge $-1 $431 $724 $586 $719 forward $583 $-1 #
vertex $-1 $432 $725 #
straight-curve $-1 42.005229966193113 43.669063150932629 71.814869626014243 0 0 1 I I #
straight-curve $-1 42.005229966193113 -2.6130913708320094 76.090142245955505 0 0.52991925155115449 -0.84804810408105047 I I #
edge $-1 $726 -63.726310007019258 $435 -42.005229966193113 $591 $727 forward 7 unknown #
point $-1 42.005229966193113 43.669063150932629 18.720776909313205 #
point $-1 42.005229966193113 33.235265573614043 18.720776909313201 #
edge $-1 $728 1 $728 0 $438 $-1 forward 7 unknown #
vertex $-1 $439 $729 #
ellipse-curve $-1 46.349445974358339 33.642693518641714 7.3667025364092069 0 0.84804810408105047 0.52991925155115449 1.5 0 0 1 I I #
point $-1 47.849445974358339 38.452164362273336 10.37199336549028 #
edge $-1 $730 1 $730 0 $442 $-1 forward 7 unknown #
vertex $-1 $443 $731 #
ellipse-curve $-1 52.865769986606175 33.642693518641714 7.3667025364092069 0 0.84804810408105047 0.52991925155115449 1.5 0 0 1 I I #
point $-1 54.365769986606175 38.452164362273336 10.37199336549028 #
edge $-1 $732 1 $732 0 $446 $-1 forward 7 unknown #
vertex $-1 $447 $733 #
ellipse-curve $-1 59.38209399885401 33.642693518641714 7.3667025364092069 0 0.84804810408105047 0.52991925155115449 1.5 0 0 1 I I #
point $-1 60.88209399885401 38.452164362273336 10.37199336549028 #
plane-surface $-1 0 -43.669063150932629 0 0 1 0 0 0 1 forward_v I I I I #
coedge $-1 $734 $453 $458 $618 forward $303 $-1 #
coedge $-1 $453 $734 $615 $735 forward $303 $-1 #
edge $-1 $616 32.208444806067646 $623 42.642242383386218 $453 $736 forward 7 unknown #
coedge $-1 $462 $456 $613 $735 reversed $463 $-1 #
vertex $-1 $457 $737 #
straight-curve $-1 -27.626871152229246 -43.669063150932629 34.781403413870166 0 0 1 I I #
edge $-1 $623 8.3831655659080901 $621 30.104245606734224 $612 $738 forward 7 unknown #
coedge $-1 $620 $459 $462 $625 reversed $451 $-1 #
coedge $-1 $459 $619 $734 $739 reversed $451 $-1 #
vertex $-1 $618 $740 #
straight-curve $-1 -49.347951193055373 -43.769789797454656 1.8620134858795945 0 -0.52991925155115449 -0.84804810408105047 I I #
vertex $-1 $618 $741 #
straight-curve $-1 -27.626871152229246 -43.669063150932644 2.0232098216673506 0 -0.52991925155115449 -0.84804810408105047 I I #
edge $-1 $742 -18.720776909313205 $464 -2.0232098216673733 $462 $743 forward 7 unknown #
point $-1 -49.347951193055373 -43.669063150932629 2.0232098216673733 #
point $-1 -27.626871152229246 -43.669063150932629 2.0232098216673733 #
edge $-1 $744 1 $744 0 $467 $-1 forward 7 unknown #
vertex $-1 $468 $745 #
ellipse-curve $-1 -45.003735184890154 -33.642693518641714 7.3667025364091998 0 -0.84804810408105047 0.52991925155115449 1.5 0 0 1 I I #
point $-1 -43.503735184890154 -38.452164362273336 10.371993365490273 #
edge $-1 $746 1 $746 0 $471 $-1 forward 7 unknown #
vertex $-1 $472 $747 #
ellipse-curve $-1 -38.487411172642311 -33.642693518641714 7.3667025364091998 0 -0.84804810408105047 0.52991925155115449 1.5 0 0 1 I I #
point $-1 -36.987411172642311 -38.452164362273336 10.371993365490273 #
edge $-1 $748 1 $748 0 $475 $-1 forward 7 unknown #
vertex $-1 $476 $749 #
ellipse-curve $-1 -31.971087160394475 -33.642693518641714 7.3667025364091998 0 -0.84804810408105047 0.52991925155115449 1.5 0 0 1 I I #
point $-1 -30.471087160394475 -38.452164362273336 10.371993365490273 #
loop $-1 $-1 $643 $479 #
plane-surface $-1 63.726310007019258 0 0 -1 0 0 0 0 1 forward_v I I I I #
coedge $-1 $483 $482 $649 $750 reversed $210 $-1 #
coedge $-1 $751 $752 $483 $644 forward $640 $-1 #
edge $-1 $646 -10.71264900372956 $753 8.9767613107235427 $643 $754 forward 7 unknown #
coedge $-1 $489 $484 $752 $755 reversed $332 $-1 #
vertex $-1 $485 $756 #
straight-curve $-1 26.432884993303087 -43.669063150932629 2.0232098216673684 1 0 0 I I #
coedge $-1 $757 $486 $489 $653 forward $480 $-1 #
coedge $-1 $486 $757 $642 $750 forward $480 $-1 #
vertex $-1 $487 $758 #
straight-curve $-1 42.005229966193113 -75.877507957000276 18.720776909313205 0 -1 0 I I #
straight-curve $-1 42.005229966193113 -43.669063150932644 2.0232098216673506 0 0.52991925155115449 0.84804810408105047 I I #
edge $-1 $490 42.005229966193113 $759 63.726310007019258 $489 $760 forward 7 unknown #
point $-1 42.005229966193113 -43.669063150932629 18.720776909313205 #
point $-1 42.005229966193113 -43.669063150932629 2.0232098216673733 #
edge $-1 $761 1 $761 0 $493 $-1 forward 7 unknown #
vertex $-1 $494 $762 #
ellipse-curve $-1 46.349445974358339 -33.642693518641714 7.3667025364091998 0 -0.84804810408105047 0.52991925155115449 1.5 0 0 1 I I #
point $-1 47.849445974358339 -38.452164362273336 10.371993365490273 #
edge $-1 $763 1 $763 0 $497 $-1 forward 7 unknown #
vertex $-1 $498 $764 #
ellipse-curve $-1 52.865769986606175 -33.642693518641714 7.3667025364091998 0 -0.84804810408105047 0.52991925155115449 1.5 0 0 1 I I #
point $-1 54.365769986606175 -38.452164362273336 10.371993365490273 #
edge $-1 $765 1 $765 0 $501 $-1 forward 7 unknown #
vertex $-1 $502 $766 #
ellipse-curve $-1 59.38209399885401 -33.642693518641714 7.3667025364091998 0 -0.84804810408105047 0.52991925155115449 1.5 0 0 1 I I #
point $-1 60.88209399885401 -38.452164362273336 10.371993365490273 #
plane-surface $-1 63.726310007019258 0 0 -1 0 0 0 0 1 forward_v I I I I #
coedge $-1 $510 $508 $512 $673 reversed $361 $-1 #
edge $-1 $523 -18.720776909313205 $675 18.720776909313205 $522 $767 forward 7 unknown #
vertex $-1 $673 $768 #
straight-curve $-1 -63.726310007019258 -43.669063150932629 0 0 0 -1 I I #
edge $-1 $671 -43.669063150932629 $675 43.669063150932629 $669 $769 forward 7 unknown #
straight-curve $-1 0 -43.669063150932629 -18.720776909313205 -1 0 0 I I #
vertex $-1 $515 $770 #
straight-curve $-1 0 43.669063150932629 -18.720776909313205 1 0 0 I I #
point $-1 63.726310007019258 43.669063150932629 -18.720776909313205 #
point $-1 63.726310007019258 -43.669063150932629 -18.720776909313205 #
straight-curve $-1 -63.726310007019258 0 18.720776909313205 0 -1 0 I I #
point $-1 -63.726310007019258 43.669063150932629 18.720776909313205 #
point $-1 -63.726310007019258 -43.669063150932629 18.720776909313205 #
straight-curve $-1 63.726310007019258 -43.669063150932629 0 0 0 -1 I I #
straight-curve $-1 63.726310007019258 43.669063150932629 0 0 0 -1 I I #
plane-surface $-1 0 -43.669063150932629 0 0 1 0 0 0 1 forward_v I I I I #
coedge $-1 $696 $535 $689 $771 reversed $380 $-1 #
coedge $-1 $535 $696 $688 $772 reversed $380 $-1 #
edge $-1 $692 -18.720776909313205 $690 18.720776909313205 $535 $773 forward 7 unknown #
coedge $-1 $537 $536 $686 $772 forward $237 $-1 #
coedge $-1 $539 $545 $685 $771 forward $533 $-1 #
vertex $-1 $540 $774 #
straight-curve $-1 -28.268565300018658 -38.628216730116861 -18.720776909313205 1 0 0 I I #
vertex $-1 $772 $775 #
straight-curve $-1 -28.268565300018658 -38.628216730116861 18.720776909313205 -1 0 0 I I #
point $-1 -49.347951193055373 -38.628216730116861 18.720776909313205 #
point $-1 -49.347951193055373 -38.628216730116861 -18.720776909313205 #
coedge $-1 $686 $685 $548 $697 reversed $380 $-1 #
edge $-1 $698 -18.720776909313205 $700 18.720776909313205 $696 $776 forward 7 unknown #
vertex $-1 $772 $777 #
straight-curve $-1 0 -43.669063150932629 18.720776909313205 1 0 0 I I #
vertex $-1 $771 $778 #
straight-curve $-1 0 -43.669063150932629 -18.720776909313205 -1 0 0 I I #
edge $-1 $703 53.094092716701041 $706 69.791659804346892 $554 $779 forward 7 unknown #
vertex $-1 $568 $780 #
straight-curve $-1 -27.626871152229246 52.736430696117949 18.720776909313201 0 1 0 I I #
edge $-1 $706 8.3831655659080901 $565 30.104245606734224 $564 $781 forward 7 unknown #
vertex $-1 $705 $782 #
straight-curve $-1 -27.626871152229246 -2.6130913708320094 76.090142245955505 0 -0.52991925155115449 0.84804810408105047 I I #
point $-1 -27.626871152229246 33.235265573614043 18.720776909313201 #
point $-1 -49.34795119305538 43.669063150932629 2.0232098216673506 #
straight-curve $-1 0 43.669063150932629 18.720776909313205 -1 0 0 I I #
vertex $-1 $571 $783 #
point $-1 -43.503735184890154 33.642693518641714 7.3667025364092069 #
vertex $-1 $575 $784 #
point $-1 -36.987411172642311 33.642693518641714 7.3667025364092069 #
vertex $-1 $579 $785 #
point $-1 -30.471087160394475 33.642693518641714 7.3667025364092069 #
coedge $-1 $718 $585 $724 $786 reversed $425 $-1 #
coedge $-1 $585 $717 $588 $722 reversed $425 $-1 #
edge $-1 $720 -37.293425013716146 $593 -15.572344972890026 $592 $787 forward 7 unknown #
vertex $-1 $587 $788 #
straight-curve $-1 63.726310007019258 14.851146947863707 48.141517711110055 0 0.52991925155115449 -0.84804810408105047 I I #
edge $-1 $589 33.235265573614043 $726 43.669063150932629 $718 $789 forward 7 unknown #
point $-1 63.726310007019237 33.235265573614043 18.720776909313201 #
coedge $-1 $592 $591 $717 $786 forward $583 $-1 #
point $-1 42.005229966193113 43.669063150932629 2.0232098216673506 #
vertex $-1 $722 $790 #
straight-curve $-1 0 43.669063150932629 18.720776909313205 -1 0 0 I I #
vertex $-1 $599 $791 #
point $-1 47.849445974358339 33.642693518641714 7.3667025364092069 #
vertex $-1 $603 $792 #
point $-1 54.365769986606175 33.642693518641714 7.3667025364092069 #
vertex $-1 $607 $793 #
point $-1 60.88209399885401 33.642693518641714 7.3667025364092069 #
coedge $-1 $613 $612 $620 $739 forward $303 $-1 #
edge $-1 $742 -49.347951193055373 $616 -27.626871152229246 $615 $794 forward 7 unknown #
straight-curve $-1 -27.626871152229246 -75.877507957000276 18.720776909313205 0 1 0 I I #
point $-1 -27.626871152229246 -43.669063150932629 18.720776909313205 #
straight-curve $-1 -19.243705586321155 -33.235265573614065 18.720776909313205 -1 0 0 I I #
edge $-1 $621 -42.642242383386218 $742 -32.208444806067646 $734 $795 forward 7 unknown #
point $-1 -49.34795119305538 -33.235265573614058 18.720776909313205 #
point $-1 -27.626871152229246 -33.235265573614058 18.720776909313205 #
vertex $-1 $735 $796 #
straight-curve $-1 -49.347951193055373 -43.669063150932629 0 0 0 -1 I I #
vertex $-1 $628 $797 #
point $-1 -43.503735184890154 -33.642693518641714 7.3667025364091998 #
vertex $-1 $632 $798 #
point $-1 -36.987411172642311 -33.642693518641714 7.3667025364091998 #
vertex $-1 $636 $799 #
point $-1 -30.471087160394475 -33.642693518641714 7.3667025364091998 #
edge $-1 $753 -37.293425013716146 $650 -15.572344972890026 $649 $800 forward 7 unknown #
coedge $-1 $752 $643 $757 $801 reversed $640 $-1 #
coedge $-1 $643 $751 $645 $755 forward $640 $-1 #
vertex $-1 $644 $802 #
straight-curve $-1 63.726310007019258 -37.992224208746038 11.108051498965979 0 0.52991925155115449 0.84804810408105047 I I #
edge $-1 $759 -18.720776909313205 $646 -2.0232098216673733 $752 $803 forward 7 unknown #
point $-1 63.726310007019237 -43.669063150932629 2.0232098216673733 #
coedge $-1 $649 $648 $751 $801 forward $480 $-1 #
point $-1 42.005229966193113 -33.235265573614058 18.720776909313205 #
vertex $-1 $801 $804 #
straight-curve $-1 0 -43.669063150932629 18.720776909313205 1 0 0 I I #
vertex $-1 $656 $805 #
point $-1 47.849445974358339 -33.642693518641714 7.3667025364091998 #
vertex $-1 $660 $806 #
point $-1 54.365769986606175 -33.642693518641714 7.3667025364091998 #
vertex $-1 $664 $807 #
point $-1 60.88209399885401 -33.642693518641714 7.3667025364091998 #
straight-curve $-1 -63.726310007019258 43.669063150932629 0 0 0 -1 I I #
point $-1 -63.726310007019258 -43.669063150932629 -18.720776909313205 #
straight-curve $-1 -63.726310007019258 0 -18.720776909313205 0 1 0 I I #
point $-1 -63.726310007019258 43.669063150932629 -18.720776909313205 #
edge $-1 $700 -43.669063150932629 $690 -38.628216730116861 $685 $808 forward 7 unknown #
edge $-1 $692 38.628216730116861 $698 43.669063150932629 $686 $809 forward 7 unknown #
straight-curve $-1 -63.726310007019258 -38.628216730116861 0 0 0 -1 I I #
point $-1 -63.726310007019258 -38.628216730116861 -18.720776909313205 #
point $-1 -63.726310007019258 -38.628216730116861 18.720776909313205 #
straight-curve $-1 -63.726310007019258 -43.669063150932629 0 0 0 -1 I I #
point $-1 -63.726310007019258 -43.669063150932629 18.720776909313205 #
point $-1 -63.726310007019258 -43.669063150932629 -18.720776909313205 #
straight-curve $-1 -27.626871152229246 43.669063150932629 71.814869626014243 0 0 -1 I I #
point $-1 -27.626871152229246 43.669063150932629 18.720776909313205 #
straight-curve $-1 -19.243705586321155 43.669063150932629 2.0232098216673435 -1 0 0 I I #
point $-1 -27.626871152229246 43.669063150932629 2.0232098216673506 #
point $-1 -45.003735184890154 32.370621362520133 6.5718236590824759 #
point $-1 -38.487411172642311 32.370621362520133 6.5718236590824759 #
point $-1 -31.971087160394475 32.370621362520133 6.5718236590824759 #
edge $-1 $726 -18.720776909313205 $720 -2.0232098216673506 $717 $810 forward 7 unknown #
straight-curve $-1 26.432884993303087 43.669063150932629 2.0232098216673435 -1 0 0 I I #
point $-1 63.726310007019237 43.669063150932629 2.0232098216673506 #
straight-curve $-1 63.726310007019258 0 18.720776909313205 0 1 0 I I #
point $-1 63.726310007019258 43.669063150932629 18.720776909313205 #
point $-1 46.349445974358339 32.370621362520133 6.5718236590824759 #
point $-1 52.865769986606175 32.370621362520133 6.5718236590824759 #
point $-1 59.38209399885401 32.370621362520133 6.5718236590824759 #
straight-curve $-1 0 -43.669063150932629 18.720776909313205 1 0 0 I I #
straight-curve $-1 -49.34795119305538 -75.877507957000276 18.720776909313205 0 -1 0 I I #
point $-1 -49.347951193055373 -43.669063150932629 18.720776909313205 #
point $-1 -45.003735184890154 -32.370621362520133 6.5718236590824688 #
point $-1 -38.487411172642311 -32.370621362520133 6.5718236590824688 #
point $-1 -31.971087160394475 -32.370621362520133 6.5718236590824688 #
straight-curve $-1 26.432884993303087 -33.235265573614065 18.720776909313205 -1 0 0 I I #
edge $-1 $759 -43.669063150932629 $753 -33.235265573614058 $751 $811 forward 7 unknown #
point $-1 63.726310007019237 -33.235265573614058 18.720776909313205 #
straight-curve $-1 63.726310007019258 -43.669063150932629 0 0 0 -1 I I #
point $-1 63.726310007019258 -43.669063150932629 18.720776909313205 #
point $-1 46.349445974358339 -32.370621362520133 6.5718236590824688 #
point $-1 52.865769986606175 -32.370621362520133 6.5718236590824688 #
point $-1 59.38209399885401 -32.370621362520133 6.5718236590824688 #
straight-curve $-1 -63.726310007019258 0 -18.720776909313205 0 1 0 I I #
straight-curve $-1 -63.726310007019258 0 18.720776909313205 0 -1 0 I I #
straight-curve $-1 63.726310007019258 43.669063150932629 0 0 0 -1 I I #
straight-curve $-1 63.726310007019258 0 18.720776909313205 0 1 0 I I #
End-of-ACIS-data 