500 0 10 0           
7 Unknown 11 ACIS 5.0 NT 24 Thu Mar 25 23:47:12 1999 
-1 9.9999999999999995e-007 1e-010 
body $-1 $10 $-1 $11 #
body $-1 $12 $-1 $13 #
body $-1 $14 $-1 $15 #
body $-1 $16 $-1 $17 #
body $-1 $18 $-1 $19 #
body $-1 $20 $-1 $21 #
body $-1 $22 $-1 $23 #
body $-1 $24 $-1 $25 #
body $-1 $26 $-1 $27 #
body $-1 $28 $-1 $29 #
lump $-1 $-1 $30 $0 #
transform $-1 1 0 0 0 1 0 0 0 1 79.91943113498337 54.017750089291575 16.98112852396514 1 rotate no_reflect no_shear #
lump $-1 $-1 $31 $1 #
transform $-1 1 0 0 0 1 0 0 0 1 79.91943113498337 54.017750089291575 16.98112852396514 1 rotate no_reflect no_shear #
lump $-1 $-1 $32 $2 #
transform $-1 1 0 0 0 1 0 0 0 1 79.91943113498337 54.017750089291575 16.98112852396514 1 rotate no_reflect no_shear #
lump $-1 $-1 $33 $3 #
transform $-1 1 0 0 0 1 0 0 0 1 79.91943113498337 54.017750089291575 16.98112852396514 1 rotate no_reflect no_shear #
lump $-1 $-1 $34 $4 #
transform $-1 1 0 0 0 1 0 0 0 1 79.91943113498337 54.017750089291575 16.98112852396514 1 rotate no_reflect no_shear #
lump $-1 $-1 $35 $5 #
transform $-1 1 0 0 0 1 0 0 0 1 79.91943113498337 54.017750089291575 16.98112852396514 1 rotate no_reflect no_shear #
lump $-1 $-1 $36 $6 #
transform $-1 1 0 0 0 1 0 0 0 1 79.91943113498337 54.017750089291575 16.98112852396514 1 rotate no_reflect no_shear #
lump $-1 $-1 $37 $7 #
transform $-1 1 0 0 0 1 0 0 0 1 79.91943113498337 54.017750089291575 16.98112852396514 1 rotate no_reflect no_shear #
lump $-1 $-1 $38 $8 #
transform $-1 1 0 0 0 1 0 0 0 1 79.91943113498337 54.017750089291575 16.98112852396514 1 rotate no_reflect no_shear #
lump $-1 $-1 $39 $9 #
transform $-1 1 0 0 0 1 0 0 0 1 79.91943113498337 54.017750089291575 16.98112852396514 1 rotate no_reflect no_shear #
shell $-1 $-1 $-1 $40 $-1 $10 #
shell $-1 $-1 $-1 $41 $-1 $12 #
shell $-1 $-1 $-1 $42 $-1 $14 #
shell $-1 $-1 $-1 $43 $-1 $16 #
shell $-1 $-1 $-1 $44 $-1 $18 #
shell $-1 $-1 $-1 $45 $-1 $20 #
shell $-1 $-1 $-1 $46 $-1 $22 #
shell $-1 $-1 $-1 $47 $-1 $24 #
shell $-1 $-1 $-1 $48 $-1 $26 #
shell $-1 $-1 $-1 $49 $-1 $28 #
face $-1 $50 $51 $30 $-1 $52 forward single #
face $-1 $53 $54 $31 $-1 $55 forward single #
face $-1 $56 $57 $32 $-1 $58 forward single #
face $-1 $59 $60 $33 $-1 $61 reversed single #
face $-1 $62 $63 $34 $-1 $64 forward single #
face $-1 $65 $66 $35 $-1 $67 forward single #
face $-1 $68 $69 $36 $-1 $70 reversed single #
face $-1 $71 $72 $37 $-1 $73 forward single #
face $-1 $74 $75 $38 $-1 $76 reversed single #
face $-1 $77 $78 $39 $-1 $79 forward single #
face $-1 $80 $81 $30 $-1 $82 reversed single #
loop $-1 $-1 $83 $40 #
plane-surface $-1 0 0 16.98112852396514 0 0 1 1 0 0 forward_v I I I I #
face $-1 $84 $85 $31 $-1 $86 reversed single #
loop $-1 $-1 $87 $41 #
plane-surface $-1 -72.101478558192724 0 12.092507049528679 0 0 1 1 0 0 forward_v I I I I #
face $-1 $88 $89 $32 $-1 $90 reversed single #
loop $-1 $-1 $91 $42 #
plane-surface $-1 72.101478558192724 0 12.092507049528679 0 0 1 1 0 0 forward_v I I I I #
face $-1 $92 $93 $33 $-1 $94 reversed single #
loop $-1 $-1 $95 $43 #
plane-surface $-1 30.747485152785373 -178.23587770898541 114.46516476481895 1 0 0 0 0.77714596973225614 -0.62932038083071107 forward_v I I I I #
face $-1 $96 $97 $34 $-1 $98 forward single #
loop $-1 $99 $100 $44 #
cone-surface $-1 40.329211103818722 -52.371656454026223 15.113559616335156 0 0.77714596973225614 -0.62932038083071107 0.25 0 0 1 I I 0 1 0.25 forward I I I I #
face $-1 $101 $102 $35 $-1 $103 forward single #
loop $-1 $104 $105 $45 #
cone-surface $-1 54.70180003036873 -52.371656454026223 15.113559616335156 0 0.77714596973225614 -0.62932038083071107 0.25 0 0 1 I I 0 1 0.25 forward I I I I #
face $-1 $106 $107 $36 $-1 $108 reversed single #
loop $-1 $-1 $109 $46 #
plane-surface $-1 -1.0658141036401503e-014 60.566122224222234 203.61423484922682 -1 0 0 0 0.5877852598018023 0.80901698891910034 forward_v I I I I #
face $-1 $110 $111 $37 $-1 $112 forward single #
loop $-1 $113 $114 $47 #
cone-surface $-1 -8.8534778962117571 48.868272381551989 12.657673340923946 0 -0.5877852598018023 -0.80901698891910034 2 0 0 1 I I 0 1 2 forward I I I I #
face $-1 $115 $116 $38 $-1 $117 reversed single #
loop $-1 $-1 $118 $48 #
plane-surface $-1 -8.8534778962117571 -33.384804961554657 74.301879783323528 0 0.5877852598018023 0.80901698891910034 1 0 0 forward_v I I I I #
face $-1 $119 $120 $39 $-1 $121 forward single #
loop $-1 $122 $123 $49 #
cone-surface $-1 8.8534778962117429 48.868272381551989 12.657673340923946 0 -0.5877852598018023 -0.80901698891910034 2 0 0 1 I I 0 1 2 forward I I I I #
face $-1 $124 $125 $30 $-1 $126 reversed single #
loop $-1 $-1 $127 $50 #
plane-surface $-1 0 0 -16.98112852396514 0 0 1 1 0 0 forward_v I I I I #
coedge $-1 $128 $129 $130 $131 forward $51 $-1 #
face $-1 $132 $133 $31 $-1 $134 reversed single #
loop $-1 $-1 $135 $53 #
plane-surface $-1 -72.101478558192724 0 6.2873004239678192 0 0 1 1 0 0 forward_v I I I I #
coedge $-1 $136 $137 $138 $139 forward $54 $-1 #
face $-1 $140 $141 $32 $-1 $142 reversed single #
loop $-1 $-1 $143 $56 #
plane-surface $-1 72.101478558192724 0 6.2873004239678192 0 0 1 1 0 0 forward_v I I I I #
coedge $-1 $144 $145 $146 $147 reversed $57 $-1 #
face $-1 $148 $149 $33 $-1 $150 reversed single #
loop $-1 $-1 $151 $59 #
plane-surface $-1 47.515505567093726 -54.017750089291582 13.875311089535913 0 -0.77714596973225614 0.62932038083071107 1 0 0 forward_v I I I I #
coedge $-1 $152 $153 $154 $155 reversed $60 $-1 #
face $-1 $-1 $156 $34 $-1 $157 forward single #
loop $-1 $158 $159 $62 #
cone-surface $-1 40.329211103818722 -51.88594022294356 14.720234378315961 0 0.77714596973225614 -0.62932038083071107 0.125 0 0 1 I I -0.70710678118654746 0.70710678118654746 0.125 forward I I I I #
loop $-1 $-1 $160 $44 #
coedge $-1 $100 $100 $161 $162 reversed $63 $-1 #
face $-1 $-1 $163 $35 $-1 $164 forward single #
loop $-1 $165 $166 $65 #
cone-surface $-1 54.70180003036873 -51.88594022294356 14.720234378315961 0 0.77714596973225614 -0.62932038083071107 0.125 0 0 1 I I -0.70710678118654746 0.70710678118654746 0.125 forward I I I I #
loop $-1 $-1 $167 $45 #
coedge $-1 $105 $105 $168 $169 reversed $66 $-1 #
face $-1 $170 $171 $36 $-1 $172 reversed single #
loop $-1 $-1 $173 $68 #
plane-surface $-1 -8.8534778962117571 -33.384804961554657 74.301879783323528 0 0.5877852598018023 0.80901698891910034 1 0 0 forward_v I I I I #
coedge $-1 $174 $175 $176 $177 reversed $69 $-1 #
face $-1 $-1 $178 $37 $-1 $179 forward single #
loop $-1 $180 $181 $71 #
cone-surface $-1 -8.8534778962117571 47.384664858825836 10.615662809427526 0 -0.5877852598018023 -0.80901698891910034 1 0 0 1 I I -0.70710678118654691 0.70710678118654813 1 forward I I I I #
loop $-1 $-1 $182 $47 #
coedge $-1 $114 $114 $183 $184 reversed $72 $-1 #
face $-1 $185 $186 $38 $-1 $187 reversed single #
loop $-1 $-1 $188 $74 #
plane-surface $-1 17.706955792423489 60.566122224222234 203.61423484922682 -1 0 0 0 0.5877852598018023 0.80901698891910034 forward_v I I I I #
coedge $-1 $189 $190 $191 $192 reversed $75 $-1 #
face $-1 $-1 $193 $39 $-1 $194 forward single #
loop $-1 $195 $196 $77 #
cone-surface $-1 8.8534778962117429 47.384664858825836 10.615662809427526 0 -0.5877852598018023 -0.80901698891910034 1 0 0 1 I I -0.70710678118654691 0.70710678118654813 1 forward I I I I #
loop $-1 $-1 $197 $49 #
coedge $-1 $123 $123 $198 $199 reversed $78 $-1 #
face $-1 $200 $201 $30 $-1 $202 reversed single #
loop $-1 $-1 $203 $80 #
plane-surface $-1 0 -54.017750089291575 0 0 1 0 0 0 1 forward_v I I I I #
coedge $-1 $204 $205 $206 $207 forward $81 $-1 #
coedge $-1 $208 $83 $209 $210 forward $51 $-1 #
coedge $-1 $83 $208 $211 $212 forward $51 $-1 #
coedge $-1 $213 $214 $83 $131 reversed $215 $-1 #
edge $-1 $216 -54.017750089291575 $217 54.017750089291575 $130 $218 forward 7 unknown #
face $-1 $219 $220 $31 $-1 $221 reversed single #
loop $-1 $-1 $222 $84 #
plane-surface $-1 -64.283525981402079 0 9.1899037367482492 -1 0 0 0 0 1 forward_v I I I I #
coedge $-1 $223 $224 $225 $226 forward $85 $-1 #
coedge $-1 $227 $87 $228 $229 reversed $54 $-1 #
coedge $-1 $87 $227 $230 $231 reversed $54 $-1 #
coedge $-1 $222 $232 $87 $139 reversed $133 $-1 #
edge $-1 $233 -54.017750089291575 $234 54.017750089291575 $138 $235 forward 7 unknown #
face $-1 $236 $237 $32 $-1 $238 reversed single #
loop $-1 $-1 $239 $88 #
plane-surface $-1 64.283525981402079 0 9.1899037367482492 1 0 0 0 0 -1 forward_v I I I I #
coedge $-1 $240 $241 $242 $243 reversed $89 $-1 #
coedge $-1 $244 $91 $245 $246 reversed $57 $-1 #
coedge $-1 $91 $244 $247 $248 reversed $57 $-1 #
coedge $-1 $249 $250 $91 $147 forward $251 $-1 #
edge $-1 $252 -54.017750089291575 $253 54.017750089291575 $146 $254 forward 7 unknown #
face $-1 $255 $256 $33 $-1 $257 forward single #
loop $-1 $-1 $258 $92 #
plane-surface $-1 64.283525981402079 -178.23587770898541 114.46516476481895 -1 0 0 0 -0.77714596973225614 0.62932038083071107 forward_v I I I I #
coedge $-1 $259 $260 $261 $262 reversed $93 $-1 #
coedge $-1 $153 $95 $263 $264 reversed $60 $-1 #
coedge $-1 $95 $152 $259 $265 reversed $60 $-1 #
coedge $-1 $261 $266 $95 $155 forward $267 $-1 #
edge $-1 $268 40.251453858444336 $269 43.357271292873556 $154 $270 forward 7 unknown #
loop $-1 $-1 $161 $96 #
plane-surface $-1 47.515505567093726 -54.017750089291582 13.875311089535913 0 -0.77714596973225614 0.62932038083071107 1 0 0 forward_v I I I I #
loop $-1 $-1 $271 $62 #
coedge $-1 $159 $159 $160 $272 reversed $97 $-1 #
coedge $-1 $160 $160 $159 $272 forward $99 $-1 #
coedge $-1 $161 $161 $100 $162 forward $156 $-1 #
edge $-1 $273 2.1847855902742248e-014 $273 6.2831853071796226 $161 $274 forward 7 unknown #
loop $-1 $-1 $168 $101 #
plane-surface $-1 47.515505567093726 -54.017750089291582 13.875311089535913 0 -0.77714596973225614 0.62932038083071107 1 0 0 forward_v I I I I #
loop $-1 $-1 $275 $65 #
coedge $-1 $166 $166 $167 $276 reversed $102 $-1 #
coedge $-1 $167 $167 $166 $276 forward $104 $-1 #
coedge $-1 $168 $168 $105 $169 forward $163 $-1 #
edge $-1 $277 2.1847855902742248e-014 $277 6.2831853071796226 $168 $278 forward 7 unknown #
face $-1 $279 $280 $36 $-1 $281 reversed single #
loop $-1 $-1 $282 $106 #
plane-surface $-1 -17.706955792423503 60.566122224222234 203.61423484922682 1 0 0 0 -0.5877852598018023 -0.80901698891910034 forward_v I I I I #
coedge $-1 $283 $284 $285 $286 reversed $107 $-1 #
coedge $-1 $175 $109 $287 $288 reversed $69 $-1 #
coedge $-1 $109 $174 $283 $289 reversed $69 $-1 #
coedge $-1 $285 $290 $109 $177 forward $280 $-1 #
edge $-1 $291 84.825988900648269 $292 91.006912181576013 $176 $293 forward 7 unknown #
loop $-1 $-1 $183 $110 #
plane-surface $-1 -8.8534778962117571 -33.384804961554657 74.301879783323528 0 0.5877852598018023 0.80901698891910034 1 0 0 forward_v I I I I #
loop $-1 $-1 $294 $71 #
coedge $-1 $181 $181 $182 $295 reversed $111 $-1 #
coedge $-1 $182 $182 $181 $295 forward $113 $-1 #
coedge $-1 $183 $183 $114 $184 forward $178 $-1 #
edge $-1 $296 2.5814337612787292e-016 $296 6.2831853071796004 $183 $297 forward 7 unknown #
face $-1 $298 $299 $38 $-1 $300 forward single #
loop $-1 $-1 $301 $115 #
plane-surface $-1 0 54.017750089291575 0 0 -1 0 0 0 -1 forward_v I I I I #
coedge $-1 $302 $303 $304 $305 reversed $116 $-1 #
coedge $-1 $306 $118 $307 $308 reversed $75 $-1 #
coedge $-1 $118 $306 $309 $310 reversed $75 $-1 #
coedge $-1 $311 $312 $118 $192 forward $299 $-1 #
edge $-1 $313 -108.03550017858311 $314 -97.519885542360498 $191 $315 forward 7 unknown #
loop $-1 $-1 $198 $119 #
plane-surface $-1 -8.8534778962117571 -33.384804961554657 74.301879783323528 0 0.5877852598018023 0.80901698891910034 1 0 0 forward_v I I I I #
loop $-1 $-1 $316 $77 #
coedge $-1 $196 $196 $197 $317 reversed $120 $-1 #
coedge $-1 $197 $197 $196 $317 forward $122 $-1 #
coedge $-1 $198 $198 $123 $199 forward $193 $-1 #
edge $-1 $318 2.5814337612787292e-016 $318 6.2831853071796004 $198 $319 forward 7 unknown #
face $-1 $320 $321 $30 $-1 $322 reversed single #
loop $-1 $-1 $323 $124 #
plane-surface $-1 -79.91943113498337 0 0 1 0 0 0 0 -1 forward_v I I I I #
coedge $-1 $324 $211 $325 $326 forward $125 $-1 #
coedge $-1 $327 $127 $324 $328 forward $81 $-1 #
coedge $-1 $127 $327 $329 $330 forward $81 $-1 #
coedge $-1 $214 $213 $127 $207 reversed $215 $-1 #
edge $-1 $331 -54.017750089291575 $332 54.017750089291575 $206 $333 forward 7 unknown #
coedge $-1 $129 $128 $334 $335 forward $51 $-1 #
coedge $-1 $336 $337 $128 $210 reversed $321 $-1 #
edge $-1 $217 -79.91943113498337 $338 79.91943113498337 $209 $339 forward 7 unknown #
coedge $-1 $203 $340 $129 $212 reversed $125 $-1 #
edge $-1 $341 -79.91943113498337 $216 79.91943113498337 $211 $342 forward 7 unknown #
coedge $-1 $206 $130 $340 $343 forward $215 $-1 #
coedge $-1 $130 $206 $336 $344 reversed $215 $-1 #
loop $-1 $-1 $213 $320 #
vertex $-1 $131 $345 #
vertex $-1 $131 $346 #
straight-curve $-1 79.91943113498337 0 16.98112852396514 0 1 0 I I #
face $-1 $347 $348 $31 $-1 $349 reversed single #
loop $-1 $-1 $350 $132 #
plane-surface $-1 0 -54.017750089291575 0 0 1 0 0 0 1 forward_v I I I I #
coedge $-1 $225 $138 $351 $352 reversed $133 $-1 #
coedge $-1 $353 $135 $350 $354 reversed $85 $-1 #
coedge $-1 $135 $353 $355 $356 reversed $85 $-1 #
coedge $-1 $232 $222 $135 $226 reversed $133 $-1 #
edge $-1 $357 -54.017750089291575 $358 54.017750089291575 $225 $359 forward 7 unknown #
coedge $-1 $137 $136 $360 $361 reversed $54 $-1 #
coedge $-1 $362 $363 $136 $229 forward $364 $-1 #
edge $-1 $365 -43.868691855887008 $234 -28.232786702305717 $228 $366 forward 7 unknown #
coedge $-1 $367 $351 $137 $231 forward $220 $-1 #
edge $-1 $233 28.232786702305717 $368 43.868691855887008 $230 $369 forward 7 unknown #
coedge $-1 $138 $225 $362 $370 reversed $133 $-1 #
vertex $-1 $231 $371 #
vertex $-1 $229 $372 #
straight-curve $-1 -64.283525981402079 0 12.092507049528679 0 1 0 I I #
face $-1 $373 $374 $32 $-1 $375 reversed single #
loop $-1 $-1 $247 $140 #
plane-surface $-1 0 -54.017750089291575 0 0 1 0 0 0 1 forward_v I I I I #
coedge $-1 $376 $377 $378 $379 reversed $141 $-1 #
coedge $-1 $380 $143 $381 $382 reversed $89 $-1 #
coedge $-1 $143 $380 $383 $384 reversed $89 $-1 #
coedge $-1 $250 $249 $143 $243 forward $251 $-1 #
edge $-1 $385 -54.017750089291575 $386 54.017750089291575 $242 $387 forward 7 unknown #
coedge $-1 $145 $144 $377 $388 forward $57 $-1 #
coedge $-1 $389 $378 $144 $246 forward $374 $-1 #
edge $-1 $390 28.232786702305717 $252 43.868691855887008 $245 $391 forward 7 unknown #
coedge $-1 $392 $393 $145 $248 forward $237 $-1 #
edge $-1 $253 -43.868691855887008 $394 -28.232786702305717 $247 $395 forward 7 unknown #
coedge $-1 $242 $146 $393 $396 forward $251 $-1 #
coedge $-1 $146 $242 $389 $397 reversed $251 $-1 #
loop $-1 $-1 $146 $373 #
vertex $-1 $397 $398 #
vertex $-1 $396 $399 #
straight-curve $-1 79.91943113498337 0 12.092507049528679 0 -1 0 I I #
face $-1 $-1 $267 $33 $-1 $400 reversed single #
loop $-1 $-1 $401 $148 #
plane-surface $-1 0 0 16.98112852396514 0 0 1 1 0 0 forward_v I I I I #
coedge $-1 $402 $403 $404 $405 reversed $149 $-1 #
coedge $-1 $406 $151 $153 $265 forward $93 $-1 #
coedge $-1 $151 $406 $402 $407 forward $93 $-1 #
coedge $-1 $404 $154 $151 $262 forward $267 $-1 #
edge $-1 $269 6.98973236923851 $408 40.525773197855216 $261 $409 forward 7 unknown #
coedge $-1 $410 $411 $152 $264 forward $256 $-1 #
edge $-1 $412 -37.615230065999548 $268 -35.100188765201132 $263 $413 forward 7 unknown #
edge $-1 $269 1.1374033043381581e-014 $412 3.9964402511142798 $153 $414 forward 7 unknown #
coedge $-1 $154 $404 $410 $415 reversed $267 $-1 #
loop $-1 $-1 $404 $255 #
vertex $-1 $415 $416 #
vertex $-1 $155 $417 #
straight-curve $-1 30.747485152785373 -54.017750089291575 57.232582382409475 0 0 -1 I I #
coedge $-1 $271 $271 $-1 $418 reversed $158 $-1 #
edge $-1 $419 0 $419 6.2831853071796004 $159 $420 forward 7 unknown #
vertex $-1 $162 $421 #
ellipse-curve $-1 40.329211103818722 -52.760229438892374 15.428219806750528 0 -0.77714596973225614 0.62932038083071107 0.25 0 0 1 I I #
coedge $-1 $275 $275 $-1 $422 reversed $165 $-1 #
edge $-1 $423 0 $423 6.2831853071796004 $166 $424 forward 7 unknown #
vertex $-1 $169 $425 #
ellipse-curve $-1 54.70180003036873 -52.760229438892374 15.428219806750528 0 -0.77714596973225614 0.62932038083071107 0.25 0 0 1 I I #
face $-1 $-1 $426 $36 $-1 $427 forward single #
loop $-1 $-1 $176 $170 #
plane-surface $-1 0 54.017750089291575 0 0 -1 0 0 0 -1 forward_v I I I I #
coedge $-1 $428 $429 $430 $431 reversed $171 $-1 #
coedge $-1 $432 $173 $175 $289 forward $107 $-1 #
coedge $-1 $173 $432 $428 $433 forward $107 $-1 #
coedge $-1 $430 $176 $173 $286 forward $280 $-1 #
edge $-1 $292 -4.4267389481058679 $434 13.280216844317625 $285 $435 forward 7 unknown #
coedge $-1 $436 $437 $174 $288 forward $426 $-1 #
edge $-1 $438 15.227378087550026 $291 23.734688977180458 $287 $439 forward 7 unknown #
edge $-1 $292 -108.03550017858311 $438 -97.519885542360498 $175 $440 forward 7 unknown #
coedge $-1 $176 $430 $436 $441 reversed $280 $-1 #
vertex $-1 $441 $442 #
vertex $-1 $177 $443 #
straight-curve $-1 -1.0658141036401503e-014 54.017750089291575 101.80711742461341 0 0 -1 I I #
coedge $-1 $294 $294 $-1 $444 reversed $180 $-1 #
edge $-1 $445 0 $445 6.2831853071796004 $181 $446 forward 7 unknown #
vertex $-1 $184 $447 #
ellipse-curve $-1 -8.8534778962117571 49.764094644476351 13.890666883501273 0 0.5877852598018023 0.80901698891910034 2 0 0 1 I I #
face $-1 $-1 $448 $38 $-1 $449 forward single #
loop $-1 $-1 $312 $185 #
plane-surface $-1 -1.0658141036401503e-014 60.566122224222234 203.61423484922682 -1 0 0 0 0.5877852598018023 0.80901698891910034 forward_v I I I I #
coedge $-1 $307 $450 $303 $451 forward $186 $-1 #
coedge $-1 $303 $188 $306 $452 reversed $116 $-1 #
coedge $-1 $188 $302 $301 $451 reversed $116 $-1 #
coedge $-1 $453 $309 $188 $305 forward $448 $-1 #
edge $-1 $454 15.227378087550026 $455 23.734688977180458 $304 $456 forward 7 unknown #
coedge $-1 $190 $189 $302 $452 forward $75 $-1 #
coedge $-1 $457 $301 $189 $308 forward $186 $-1 #
edge $-1 $458 -22.133694740529368 $313 -4.4267389481058679 $307 $459 forward 7 unknown #
coedge $-1 $304 $460 $190 $310 forward $448 $-1 #
edge $-1 $314 4.4267389481058679 $454 22.133694740529368 $309 $461 forward 7 unknown #
coedge $-1 $312 $191 $460 $462 reversed $299 $-1 #
coedge $-1 $191 $311 $457 $463 reversed $299 $-1 #
vertex $-1 $308 $464 #
vertex $-1 $310 $465 #
straight-curve $-1 -1.0658141036401503e-014 -33.384804961554657 74.301879783323528 0 -0.80901698891910034 0.5877852598018023 I I #
coedge $-1 $316 $316 $-1 $466 reversed $195 $-1 #
edge $-1 $467 0 $467 6.2831853071796004 $196 $468 forward 7 unknown #
vertex $-1 $199 $469 #
ellipse-curve $-1 8.8534778962117429 49.764094644476351 13.890666883501273 0 0.5877852598018023 0.80901698891910034 2 0 0 1 I I #
face $-1 $-1 $215 $30 $-1 $470 reversed single #
loop $-1 $-1 $336 $200 #
plane-surface $-1 0 54.017750089291575 0 0 -1 0 0 0 -1 forward_v I I I I #
coedge $-1 $471 $334 $337 $472 forward $201 $-1 #
coedge $-1 $340 $203 $204 $328 reversed $125 $-1 #
coedge $-1 $334 $471 $203 $326 reversed $201 $-1 #
edge $-1 $341 -16.98112852396514 $473 16.98112852396514 $325 $474 forward 7 unknown #
coedge $-1 $205 $204 $471 $475 forward $81 $-1 #
edge $-1 $332 -79.91943113498337 $473 79.91943113498337 $324 $476 forward 7 unknown #
coedge $-1 $337 $336 $205 $330 reversed $321 $-1 #
edge $-1 $477 -79.91943113498337 $331 79.91943113498337 $329 $478 forward 7 unknown #
vertex $-1 $207 $479 #
vertex $-1 $343 $480 #
straight-curve $-1 79.91943113498337 0 -16.98112852396514 0 -1 0 I I #
coedge $-1 $323 $325 $208 $335 reversed $201 $-1 #
edge $-1 $338 -54.017750089291575 $341 54.017750089291575 $334 $481 forward 7 unknown #
coedge $-1 $329 $209 $214 $344 forward $321 $-1 #
coedge $-1 $209 $329 $323 $472 reversed $321 $-1 #
vertex $-1 $210 $482 #
straight-curve $-1 0 54.017750089291575 16.98112852396514 -1 0 0 I I #
coedge $-1 $211 $324 $213 $343 reversed $125 $-1 #
vertex $-1 $335 $483 #
straight-curve $-1 0 -54.017750089291575 16.98112852396514 1 0 0 I I #
edge $-1 $216 -16.98112852396514 $332 16.98112852396514 $213 $484 forward 7 unknown #
edge $-1 $217 -16.98112852396514 $331 16.98112852396514 $214 $485 forward 7 unknown #
point $-1 79.91943113498337 -54.017750089291575 16.98112852396514 #
point $-1 79.91943113498337 54.017750089291575 16.98112852396514 #
face $-1 $-1 $364 $31 $-1 $486 reversed single #
loop $-1 $-1 $487 $219 #
plane-surface $-1 -79.91943113498337 0 0 1 0 0 0 0 -1 forward_v I I I I #
coedge $-1 $351 $367 $223 $354 forward $220 $-1 #
coedge $-1 $230 $350 $222 $352 forward $220 $-1 #
edge $-1 $358 1.6923485555936946 $233 7.4975551811545547 $351 $488 forward 7 unknown #
coedge $-1 $224 $223 $487 $489 reversed $85 $-1 #
edge $-1 $490 -43.868691855887008 $358 -28.232786702305717 $350 $491 forward 7 unknown #
coedge $-1 $363 $362 $224 $356 forward $364 $-1 #
edge $-1 $357 28.232786702305717 $492 43.868691855887008 $355 $493 forward 7 unknown #
vertex $-1 $356 $494 #
vertex $-1 $354 $495 #
straight-curve $-1 -64.283525981402079 0 6.2873004239678192 0 -1 0 I I #
coedge $-1 $496 $497 $227 $361 forward $348 $-1 #
edge $-1 $368 -54.017750089291575 $365 54.017750089291575 $360 $498 forward 7 unknown #
coedge $-1 $355 $228 $232 $370 forward $364 $-1 #
coedge $-1 $228 $355 $496 $499 reversed $364 $-1 #
loop $-1 $-1 $355 $347 #
vertex $-1 $499 $500 #
straight-curve $-1 -36.050739279096362 54.017750089291575 12.092507049528679 1 0 0 I I #
coedge $-1 $350 $230 $497 $501 forward $220 $-1 #
vertex $-1 $501 $502 #
straight-curve $-1 -36.050739279096362 -54.017750089291575 12.092507049528679 -1 0 0 I I #
edge $-1 $234 -7.4975551811545547 $357 -1.6923485555936946 $362 $503 forward 7 unknown #
point $-1 -64.283525981402079 -54.017750089291575 12.092507049528679 #
point $-1 -64.283525981402079 54.017750089291575 12.092507049528679 #
face $-1 $-1 $251 $32 $-1 $504 reversed single #
loop $-1 $-1 $245 $236 #
plane-surface $-1 0 54.017750089291575 0 0 -1 0 0 0 -1 forward_v I I I I #
coedge $-1 $505 $239 $380 $506 reversed $141 $-1 #
coedge $-1 $239 $505 $244 $388 reversed $141 $-1 #
coedge $-1 $245 $383 $239 $379 forward $374 $-1 #
edge $-1 $507 1.6923485555936946 $390 7.4975551811545547 $378 $508 forward 7 unknown #
coedge $-1 $241 $240 $376 $506 forward $89 $-1 #
coedge $-1 $393 $392 $240 $382 forward $237 $-1 #
edge $-1 $509 28.232786702305717 $385 43.868691855887008 $381 $510 forward 7 unknown #
coedge $-1 $378 $389 $241 $384 forward $374 $-1 #
edge $-1 $386 -43.868691855887008 $507 -28.232786702305717 $383 $511 forward 7 unknown #
vertex $-1 $243 $512 #
vertex $-1 $243 $513 #
straight-curve $-1 79.91943113498337 0 6.2873004239678192 0 1 0 I I #
edge $-1 $390 -54.017750089291575 $394 54.017750089291575 $377 $514 forward 7 unknown #
coedge $-1 $383 $245 $250 $397 forward $374 $-1 #
vertex $-1 $246 $515 #
straight-curve $-1 36.050739279096362 54.017750089291575 12.092507049528679 1 0 0 I I #
coedge $-1 $381 $247 $505 $516 forward $237 $-1 #
coedge $-1 $247 $381 $249 $396 reversed $237 $-1 #
vertex $-1 $248 $517 #
straight-curve $-1 36.050739279096362 -54.017750089291575 12.092507049528679 -1 0 0 I I #
edge $-1 $253 -12.092507049528679 $385 -6.2873004239678192 $249 $518 forward 7 unknown #
edge $-1 $252 -12.092507049528679 $386 -6.2873004239678192 $250 $519 forward 7 unknown #
point $-1 79.91943113498337 54.017750089291575 12.092507049528679 #
point $-1 79.91943113498337 -54.017750089291575 12.092507049528679 #
plane-surface $-1 0 -54.017750089291575 0 0 1 0 0 0 1 forward_v I I I I #
coedge $-1 $411 $410 $403 $520 forward $256 $-1 #
coedge $-1 $403 $258 $260 $407 reversed $149 $-1 #
coedge $-1 $258 $402 $401 $520 reversed $149 $-1 #
coedge $-1 $266 $261 $258 $405 forward $267 $-1 #
edge $-1 $408 -43.357271292873556 $521 -40.251453858444336 $404 $522 forward 7 unknown #
coedge $-1 $260 $259 $411 $523 reversed $93 $-1 #
edge $-1 $524 -3.9964402511142798 $408 -1.1374033043381581e-014 $402 $525 forward 7 unknown #
vertex $-1 $262 $526 #
straight-curve $-1 23.757752783546863 -54.017750089291575 13.875311089535929 1 0 0 I I #
coedge $-1 $401 $263 $266 $415 forward $256 $-1 #
coedge $-1 $263 $401 $406 $523 forward $256 $-1 #
vertex $-1 $264 $527 #
straight-curve $-1 30.747485152785373 -89.117938854492706 16.98112852396514 0 -1 0 I I #
straight-curve $-1 30.747485152785373 -54.017750089291582 13.875311089535913 0 0.62932038083071107 0.77714596973225614 I I #
edge $-1 $268 30.747485152785373 $521 64.283525981402079 $266 $528 forward 7 unknown #
point $-1 30.747485152785373 -54.017750089291575 16.98112852396514 #
point $-1 30.747485152785373 -54.017750089291575 13.875311089535922 #
edge $-1 $529 1 $529 0 $271 $-1 forward 7 unknown #
vertex $-1 $272 $530 #
ellipse-curve $-1 40.329211103818722 -51.983083469160093 14.798899425919799 0 -0.77714596973225614 0.62932038083071107 0.25 0 0 1 I I #
point $-1 40.579211103818722 -52.760229438892345 15.428219806750512 #
edge $-1 $531 1 $531 0 $275 $-1 forward 7 unknown #
vertex $-1 $276 $532 #
ellipse-curve $-1 54.70180003036873 -51.983083469160093 14.798899425919799 0 -0.77714596973225614 0.62932038083071107 0.25 0 0 1 I I #
point $-1 54.95180003036873 -52.760229438892345 15.428219806750512 #
loop $-1 $-1 $287 $279 #
plane-surface $-1 0 0 16.98112852396514 0 0 1 1 0 0 forward_v I I I I #
coedge $-1 $429 $282 $284 $433 reversed $171 $-1 #
coedge $-1 $282 $428 $533 $534 reversed $171 $-1 #
coedge $-1 $290 $285 $282 $431 forward $280 $-1 #
edge $-1 $434 -91.006912181576013 $535 -84.825988900648269 $430 $536 forward 7 unknown #
coedge $-1 $284 $283 $437 $537 reversed $107 $-1 #
edge $-1 $538 97.519885542360498 $434 108.03550017858311 $428 $539 forward 7 unknown #
vertex $-1 $286 $540 #
straight-curve $-1 -4.4267389481058785 54.017750089291582 10.8002052430374 -1 0 0 I I #
coedge $-1 $533 $287 $290 $441 forward $426 $-1 #
coedge $-1 $287 $533 $432 $537 forward $426 $-1 #
vertex $-1 $288 $541 #
straight-curve $-1 -1.0658141036401503e-014 30.283061112111117 16.98112852396514 0 1 0 I I #
straight-curve $-1 -1.0658141036401503e-014 -33.384804961554657 74.301879783323528 0 -0.80901698891910034 0.5877852598018023 I I #
edge $-1 $291 1.0658141036401503e-014 $535 17.706955792423503 $290 $542 forward 7 unknown #
point $-1 -1.0658141036401503e-014 54.017750089291575 16.98112852396514 #
point $-1 -1.0658141036401503e-014 54.017750089291575 10.800205243037396 #
edge $-1 $543 1 $543 0 $294 $-1 forward 7 unknown #
vertex $-1 $295 $544 #
ellipse-curve $-1 -8.8534778962117571 47.972450118627641 11.424679798346627 0 0.5877852598018023 0.80901698891910034 2 0 0 1 I I #
point $-1 -6.8534778962117571 49.764094644476344 13.890666883501263 #
loop $-1 $-1 $304 $298 #
plane-surface $-1 0 0 16.98112852396514 0 0 1 1 0 0 forward_v I I I I #
coedge $-1 $301 $457 $453 $545 reversed $186 $-1 #
edge $-1 $455 84.825988900648269 $458 91.006912181576013 $301 $546 forward 7 unknown #
edge $-1 $458 -108.03550017858311 $454 -97.519885542360498 $302 $547 forward 7 unknown #
coedge $-1 $460 $304 $450 $545 forward $448 $-1 #
vertex $-1 $305 $548 #
vertex $-1 $545 $549 #
straight-curve $-1 17.706955792423489 30.283061112111117 16.98112852396514 0 1 0 I I #
coedge $-1 $450 $307 $312 $463 forward $186 $-1 #
vertex $-1 $451 $550 #
straight-curve $-1 -4.4267389481058785 54.017750089291582 10.8002052430374 -1 0 0 I I #
coedge $-1 $309 $453 $311 $462 forward $448 $-1 #
straight-curve $-1 -4.4267389481058785 45.510439199661135 16.98112852396514 1 0 0 I I #
edge $-1 $551 -23.734688977180458 $314 -15.227378087550026 $460 $552 forward 7 unknown #
edge $-1 $313 -91.006912181576013 $551 -84.825988900648269 $457 $553 forward 7 unknown #
point $-1 -1.0658141036401503e-014 54.017750089291575 10.800205243037396 #
point $-1 -1.0658141036401503e-014 45.510439199661143 16.98112852396514 #
edge $-1 $554 1 $554 0 $316 $-1 forward 7 unknown #
vertex $-1 $317 $555 #
ellipse-curve $-1 8.8534778962117429 47.972450118627641 11.424679798346627 0 0.5877852598018023 0.80901698891910034 2 0 0 1 I I #
point $-1 10.853477896211743 49.764094644476344 13.890666883501263 #
plane-surface $-1 79.91943113498337 0 0 -1 0 0 0 0 1 forward_v I I I I #
coedge $-1 $325 $323 $327 $475 reversed $201 $-1 #
edge $-1 $338 -16.98112852396514 $477 16.98112852396514 $337 $556 forward 7 unknown #
vertex $-1 $475 $557 #
straight-curve $-1 -79.91943113498337 -54.017750089291575 0 0 0 -1 I I #
edge $-1 $473 -54.017750089291575 $477 54.017750089291575 $471 $558 forward 7 unknown #
straight-curve $-1 0 -54.017750089291575 -16.98112852396514 -1 0 0 I I #
vertex $-1 $330 $559 #
straight-curve $-1 0 54.017750089291575 -16.98112852396514 1 0 0 I I #
point $-1 79.91943113498337 54.017750089291575 -16.98112852396514 #
point $-1 79.91943113498337 -54.017750089291575 -16.98112852396514 #
straight-curve $-1 -79.91943113498337 0 16.98112852396514 0 -1 0 I I #
point $-1 -79.91943113498337 54.017750089291575 16.98112852396514 #
point $-1 -79.91943113498337 -54.017750089291575 16.98112852396514 #
straight-curve $-1 79.91943113498337 -54.017750089291575 0 0 0 -1 I I #
straight-curve $-1 79.91943113498337 54.017750089291575 0 0 0 -1 I I #
plane-surface $-1 0 54.017750089291575 0 0 -1 0 0 0 -1 forward_v I I I I #
coedge $-1 $497 $496 $353 $489 forward $348 $-1 #
straight-curve $-1 -64.283525981402079 -54.017750089291575 4.5949518683741246 0 0 1 I I #
edge $-1 $492 -54.017750089291575 $490 54.017750089291575 $487 $560 forward 7 unknown #
vertex $-1 $354 $561 #
straight-curve $-1 -36.050739279096362 -54.017750089291575 6.2873004239678192 1 0 0 I I #
vertex $-1 $356 $562 #
straight-curve $-1 -36.050739279096362 54.017750089291575 6.2873004239678192 -1 0 0 I I #
point $-1 -64.283525981402079 54.017750089291575 6.2873004239678192 #
point $-1 -64.283525981402079 -54.017750089291575 6.2873004239678192 #
coedge $-1 $487 $360 $363 $499 forward $348 $-1 #
coedge $-1 $360 $487 $367 $501 reversed $348 $-1 #
straight-curve $-1 -79.91943113498337 0 12.092507049528679 0 1 0 I I #
edge $-1 $365 -12.092507049528679 $492 -6.2873004239678192 $363 $563 forward 7 unknown #
point $-1 -79.91943113498337 54.017750089291575 12.092507049528679 #
edge $-1 $368 -12.092507049528679 $490 -6.2873004239678192 $497 $564 forward 7 unknown #
point $-1 -79.91943113498337 -54.017750089291575 12.092507049528679 #
straight-curve $-1 -64.283525981402079 54.017750089291575 4.5949518683741246 0 0 -1 I I #
plane-surface $-1 79.91943113498337 0 0 -1 0 0 0 0 1 forward_v I I I I #
coedge $-1 $377 $376 $392 $516 reversed $141 $-1 #
edge $-1 $509 -54.017750089291575 $507 54.017750089291575 $376 $565 forward 7 unknown #
vertex $-1 $384 $566 #
straight-curve $-1 64.283525981402079 54.017750089291575 4.5949518683741246 0 0 1 I I #
vertex $-1 $382 $567 #
straight-curve $-1 36.050739279096362 -54.017750089291575 6.2873004239678192 1 0 0 I I #
straight-curve $-1 36.050739279096362 54.017750089291575 6.2873004239678192 -1 0 0 I I #
point $-1 79.91943113498337 -54.017750089291575 6.2873004239678192 #
point $-1 79.91943113498337 54.017750089291575 6.2873004239678192 #
straight-curve $-1 64.283525981402079 0 12.092507049528679 0 -1 0 I I #
point $-1 64.283525981402079 54.017750089291575 12.092507049528679 #
edge $-1 $394 -7.4975551811545547 $509 -1.6923485555936946 $392 $568 forward 7 unknown #
point $-1 64.283525981402079 -54.017750089291575 12.092507049528679 #
straight-curve $-1 79.91943113498337 -54.017750089291575 0 0 0 -1 I I #
straight-curve $-1 79.91943113498337 54.017750089291575 0 0 0 -1 I I #
edge $-1 $521 35.100188765201132 $524 37.615230065999548 $401 $569 forward 7 unknown #
vertex $-1 $520 $570 #
straight-curve $-1 64.283525981402079 -54.017750089291575 57.232582382409475 0 0 1 I I #
edge $-1 $524 -40.525773197855216 $412 -6.98973236923851 $411 $571 forward 7 unknown #
vertex $-1 $523 $572 #
straight-curve $-1 64.283525981402079 -54.017750089291582 13.875311089535913 0 -0.62932038083071107 -0.77714596973225614 I I #
point $-1 64.283525981402079 -54.017750089291575 13.875311089535922 #
point $-1 30.747485152785373 -51.502708788493159 16.98112852396514 #
straight-curve $-1 0 -54.017750089291575 16.98112852396514 1 0 0 I I #
vertex $-1 $418 $573 #
point $-1 40.579211103818722 -51.983083469160093 14.798899425919799 #
vertex $-1 $422 $574 #
point $-1 54.95180003036873 -51.983083469160093 14.798899425919799 #
coedge $-1 $437 $436 $429 $534 forward $426 $-1 #
edge $-1 $535 -23.734688977180458 $538 -15.227378087550026 $533 $575 forward 7 unknown #
vertex $-1 $534 $576 #
straight-curve $-1 -17.706955792423503 54.017750089291575 101.80711742461341 0 0 1 I I #
edge $-1 $538 -13.280216844317625 $438 4.4267389481058679 $437 $577 forward 7 unknown #
vertex $-1 $537 $578 #
straight-curve $-1 -17.706955792423503 -33.384804961554657 74.301879783323528 0 0.80901698891910034 -0.5877852598018023 I I #
point $-1 -17.706955792423503 54.017750089291575 10.800205243037396 #
point $-1 -1.0658141036401503e-014 45.510439199661143 16.98112852396514 #
straight-curve $-1 0 54.017750089291575 16.98112852396514 -1 0 0 I I #
vertex $-1 $444 $579 #
point $-1 -6.8534778962117571 47.972450118627641 11.424679798346627 #
edge $-1 $455 -17.706955792423489 $551 1.0658141036401503e-014 $450 $580 forward 7 unknown #
straight-curve $-1 17.706955792423489 54.017750089291575 101.80711742461341 0 0 -1 I I #
straight-curve $-1 17.706955792423489 -33.384804961554657 74.301879783323528 0 -0.80901698891910034 0.5877852598018023 I I #
point $-1 17.706955792423489 45.510439199661143 16.98112852396514 #
point $-1 17.706955792423489 54.017750089291575 16.98112852396514 #
point $-1 17.706955792423489 54.017750089291575 10.800205243037396 #
vertex $-1 $462 $581 #
straight-curve $-1 -1.0658141036401503e-014 30.283061112111117 16.98112852396514 0 -1 0 I I #
straight-curve $-1 -1.0658141036401503e-014 54.017750089291575 101.80711742461341 0 0 1 I I #
vertex $-1 $466 $582 #
point $-1 10.853477896211743 47.972450118627641 11.424679798346627 #
straight-curve $-1 -79.91943113498337 54.017750089291575 0 0 0 -1 I I #
point $-1 -79.91943113498337 -54.017750089291575 -16.98112852396514 #
straight-curve $-1 -79.91943113498337 0 -16.98112852396514 0 1 0 I I #
point $-1 -79.91943113498337 54.017750089291575 -16.98112852396514 #
straight-curve $-1 -79.91943113498337 0 6.2873004239678192 0 -1 0 I I #
point $-1 -79.91943113498337 -54.017750089291575 6.2873004239678192 #
point $-1 -79.91943113498337 54.017750089291575 6.2873004239678192 #
straight-curve $-1 -79.91943113498337 54.017750089291575 0 0 0 -1 I I #
straight-curve $-1 -79.91943113498337 -54.017750089291575 0 0 0 -1 I I #
straight-curve $-1 64.283525981402079 0 6.2873004239678192 0 1 0 I I #
point $-1 64.283525981402079 54.017750089291575 6.2873004239678192 #
point $-1 64.283525981402079 -54.017750089291575 6.2873004239678192 #
straight-curve $-1 64.283525981402079 -54.017750089291575 4.5949518683741246 0 0 -1 I I #
straight-curve $-1 64.283525981402079 -89.117938854492706 16.98112852396514 0 1 0 I I #
point $-1 64.283525981402079 -54.017750089291575 16.98112852396514 #
straight-curve $-1 23.757752783546863 -51.502708788493159 16.98112852396514 -1 0 0 I I #
point $-1 64.283525981402079 -51.502708788493159 16.98112852396514 #
point $-1 40.329211103818722 -51.788796976727028 14.641569330712123 #
point $-1 54.70180003036873 -51.788796976727028 14.641569330712123 #
straight-curve $-1 -17.706955792423503 30.283061112111117 16.98112852396514 0 -1 0 I I #
point $-1 -17.706955792423503 54.017750089291575 16.98112852396514 #
straight-curve $-1 -4.4267389481058785 45.510439199661135 16.98112852396514 1 0 0 I I #
point $-1 -17.706955792423503 45.510439199661143 16.98112852396514 #
point $-1 -8.8534778962117571 46.796879599024031 9.8066458205084253 #
straight-curve $-1 0 54.017750089291575 16.98112852396514 -1 0 0 I I #
point $-1 -1.0658141036401503e-014 54.017750089291575 16.98112852396514 #
point $-1 8.8534778962117429 46.796879599024031 9.8066458205084253 #
End-of-ACIS-data 