500 0 5 0           
7 Unknown 11 ACIS 5.0 NT 24 Fri Mar 26 18:36:31 1999 
-1 9.9999999999999995e-007 1e-010 
body $-1 $5 $-1 $6 #
body $-1 $7 $-1 $8 #
body $-1 $9 $-1 $10 #
body $-1 $11 $-1 $12 #
body $-1 $13 $-1 $14 #
lump $-1 $-1 $15 $0 #
transform $-1 1 0 0 0 1 0 0 0 1 54.226508377330852 36.129546889900631 11.725260219953102 1 rotate no_reflect no_shear #
lump $-1 $-1 $16 $1 #
transform $-1 1 0 0 0 1 0 0 0 1 54.226508377330852 36.129546889900631 11.725260219953102 1 rotate no_reflect no_shear #
lump $-1 $-1 $17 $2 #
transform $-1 1 0 0 0 1 0 0 0 1 54.226508377330852 36.129546889900631 11.725260219953102 1 rotate no_reflect no_shear #
lump $-1 $-1 $18 $3 #
transform $-1 1 0 0 0 1 0 0 0 1 54.226508377330852 36.129546889900631 11.725260219953102 1 rotate no_reflect no_shear #
lump $-1 $-1 $19 $4 #
transform $-1 1 0 0 0 1 0 0 0 1 54.226508377330852 36.129546889900631 11.725260219953102 1 rotate no_reflect no_shear #
shell $-1 $-1 $-1 $20 $-1 $5 #
shell $-1 $-1 $-1 $21 $-1 $7 #
shell $-1 $-1 $-1 $22 $-1 $9 #
shell $-1 $-1 $-1 $23 $-1 $11 #
shell $-1 $-1 $-1 $24 $-1 $13 #
face $-1 $25 $26 $15 $-1 $27 forward single #
face $-1 $28 $29 $16 $-1 $30 forward single #
face $-1 $31 $32 $17 $-1 $33 reversed single #
face $-1 $34 $35 $18 $-1 $36 forward single #
face $-1 $37 $38 $19 $-1 $39 reversed single #
face $-1 $40 $41 $15 $-1 $42 reversed single #
loop $-1 $-1 $43 $20 #
plane-surface $-1 0 0 11.725260219953102 0 0 1 1 0 0 forward_v I I I I #
face $-1 $44 $45 $16 $-1 $46 forward single #
loop $-1 $-1 $47 $21 #
plane-surface $-1 -28.554517232148733 -104.38124265199866 92.837597945118816 -1 0 0 0 -0.62932039886446345 0.77714595512881146 forward_v I I I I #
face $-1 $48 $49 $17 $-1 $50 reversed single #
loop $-1 $51 $52 $22 #
cone-surface $-1 -41.390512804739792 -32.972829821129245 8.6595082230423976 0 0.62932039886446345 -0.77714595512881146 1 0 0 1 I I 0 1 1 forward I I I I #
face $-1 $53 $54 $18 $-1 $55 forward single #
loop $-1 $-1 $56 $23 #
plane-surface $-1 -28.554517232148733 48.225380199752657 138.311719664208 -1 0 0 0 0.62932039886446345 0.77714595512881146 forward_v I I I I #
face $-1 $57 $58 $19 $-1 $59 reversed single #
loop $-1 $60 $61 $24 #
cone-surface $-1 -41.390512804739792 32.972829821129245 8.6595082230423976 0 -0.62932039886446345 -0.77714595512881146 1 0 0 1 I I 0 1 1 forward I I I I #
face $-1 $62 $63 $15 $-1 $64 reversed single #
loop $-1 $-1 $65 $25 #
plane-surface $-1 0 0 -11.725260219953102 0 0 1 1 0 0 forward_v I I I I #
coedge $-1 $66 $67 $68 $69 forward $26 $-1 #
face $-1 $70 $71 $16 $-1 $72 forward single #
loop $-1 $-1 $73 $28 #
plane-surface $-1 -41.390512804739792 -36.12954688990061 8.5537746527162426 0 -0.62932039886446345 0.77714595512881146 1 0 0 forward_v I I I I #
coedge $-1 $74 $75 $76 $77 reversed $29 $-1 #
face $-1 $78 $79 $17 $-1 $80 forward single #
loop $-1 $81 $82 $31 #
cone-surface $-1 -41.390512804739792 -31.459681767150055 6.7909260321857143 0 0.62932039886446345 -0.77714595512881146 0.5 0 0 1 I I -0.70710678118654691 0.70710678118654813 0.5 forward I I I I #
loop $-1 $-1 $83 $22 #
coedge $-1 $52 $52 $84 $85 reversed $32 $-1 #
face $-1 $86 $87 $18 $-1 $88 reversed single #
loop $-1 $-1 $89 $34 #
plane-surface $-1 -41.390512804739792 -20.026315562345395 54.027896371805426 0 0.62932039886446345 0.77714595512881146 1 0 0 forward_v I I I I #
coedge $-1 $90 $91 $92 $93 reversed $35 $-1 #
face $-1 $94 $95 $19 $-1 $96 forward single #
loop $-1 $97 $98 $37 #
cone-surface $-1 -41.390512804739792 31.459681767150052 6.7909260321857143 0 -0.62932039886446345 -0.77714595512881146 0.5 0 0 1 I I -0.70710678118654691 0.70710678118654813 0.5 forward I I I I #
loop $-1 $-1 $99 $24 #
coedge $-1 $61 $61 $100 $101 reversed $38 $-1 #
face $-1 $102 $103 $15 $-1 $104 reversed single #
loop $-1 $-1 $105 $40 #
plane-surface $-1 0 -36.129546889900631 0 0 1 0 0 0 1 forward_v I I I I #
coedge $-1 $106 $107 $108 $109 forward $41 $-1 #
coedge $-1 $110 $43 $111 $112 forward $26 $-1 #
coedge $-1 $43 $110 $113 $114 forward $26 $-1 #
coedge $-1 $115 $116 $43 $69 reversed $117 $-1 #
edge $-1 $118 -36.129546889900631 $119 36.129546889900631 $68 $120 forward 7 unknown #
face $-1 $121 $122 $16 $-1 $123 reversed single #
loop $-1 $-1 $124 $44 #
plane-surface $-1 0 0 11.725260219953102 0 0 1 1 0 0 forward_v I I I I #
coedge $-1 $125 $126 $124 $127 reversed $45 $-1 #
coedge $-1 $75 $47 $126 $128 forward $29 $-1 #
coedge $-1 $47 $74 $129 $130 reversed $29 $-1 #
coedge $-1 $131 $124 $47 $77 forward $71 $-1 #
edge $-1 $132 -19.977532864547584 $133 -16.0610744360987 $76 $134 forward 7 unknown #
face $-1 $135 $136 $17 $-1 $137 forward single #
loop $-1 $-1 $138 $48 #
plane-surface $-1 -28.554517232148733 -104.38124265199866 92.837597945118816 -1 0 0 0 -0.62932039886446345 0.77714595512881146 forward_v I I I I #
loop $-1 $-1 $139 $31 #
coedge $-1 $82 $82 $83 $140 forward $49 $-1 #
coedge $-1 $83 $83 $82 $140 reversed $51 $-1 #
coedge $-1 $84 $84 $52 $85 forward $136 $-1 #
edge $-1 $141 9.8282990856958618e-016 $141 6.2831853071796013 $84 $142 forward 7 unknown #
face $-1 $143 $144 $18 $-1 $145 forward single #
loop $-1 $-1 $146 $53 #
plane-surface $-1 0 36.129546889900631 0 0 -1 0 0 0 -1 forward_v I I I I #
coedge $-1 $147 $148 $146 $149 reversed $54 $-1 #
coedge $-1 $91 $56 $148 $150 forward $35 $-1 #
coedge $-1 $56 $90 $151 $152 reversed $35 $-1 #
coedge $-1 $153 $146 $56 $93 forward $87 $-1 #
edge $-1 $154 -60.602085179387785 $155 -57.4305996121509 $92 $156 forward 7 unknown #
face $-1 $157 $158 $19 $-1 $159 forward single #
loop $-1 $-1 $160 $57 #
plane-surface $-1 -28.554517232148733 48.225380199752657 138.311719664208 -1 0 0 0 0.62932039886446345 0.77714595512881146 forward_v I I I I #
loop $-1 $-1 $161 $37 #
coedge $-1 $98 $98 $99 $162 forward $58 $-1 #
coedge $-1 $99 $99 $98 $162 reversed $60 $-1 #
coedge $-1 $100 $100 $61 $101 forward $158 $-1 #
edge $-1 $163 2.026015291910969e-016 $163 6.2831853071796004 $100 $164 forward 7 unknown #
face $-1 $165 $166 $15 $-1 $167 reversed single #
loop $-1 $-1 $168 $62 #
plane-surface $-1 -54.226508377330852 0 0 1 0 0 0 0 -1 forward_v I I I I #
coedge $-1 $169 $113 $170 $171 forward $63 $-1 #
coedge $-1 $172 $65 $169 $173 forward $41 $-1 #
coedge $-1 $65 $172 $174 $175 forward $41 $-1 #
coedge $-1 $116 $115 $65 $109 reversed $117 $-1 #
edge $-1 $176 -36.129546889900631 $177 36.129546889900631 $108 $178 forward 7 unknown #
coedge $-1 $67 $66 $179 $180 forward $26 $-1 #
coedge $-1 $181 $182 $66 $112 reversed $166 $-1 #
edge $-1 $119 -54.226508377330852 $183 54.226508377330852 $111 $184 forward 7 unknown #
coedge $-1 $105 $185 $67 $114 reversed $63 $-1 #
edge $-1 $186 -54.226508377330852 $118 54.226508377330852 $113 $187 forward 7 unknown #
coedge $-1 $108 $68 $185 $188 forward $117 $-1 #
coedge $-1 $68 $108 $181 $189 reversed $117 $-1 #
loop $-1 $-1 $115 $165 #
vertex $-1 $69 $190 #
vertex $-1 $69 $191 #
straight-curve $-1 54.226508377330852 0 11.725260219953102 0 1 0 I I #
face $-1 $192 $193 $16 $-1 $194 reversed single #
loop $-1 $-1 $129 $70 #
plane-surface $-1 0 -36.129546889900631 0 0 1 0 0 0 1 forward_v I I I I #
coedge $-1 $76 $195 $73 $127 forward $71 $-1 #
coedge $-1 $196 $73 $197 $198 reversed $45 $-1 #
coedge $-1 $73 $196 $74 $128 reversed $45 $-1 #
edge $-1 $199 -33.531251974960952 $132 -7.8592608297788367 $124 $200 forward 7 unknown #
edge $-1 $132 -5.0395403882655643 $201 2.7744838338233485e-014 $74 $202 forward 7 unknown #
coedge $-1 $203 $204 $75 $130 forward $122 $-1 #
edge $-1 $133 34.693538752606308 $201 37.865024319843187 $129 $205 forward 7 unknown #
coedge $-1 $206 $76 $204 $207 forward $71 $-1 #
vertex $-1 $127 $208 #
vertex $-1 $207 $209 #
straight-curve $-1 -28.554517232148733 -52.190621325999331 11.7252602199531 0 -1 0 I I #
face $-1 $210 $211 $17 $-1 $212 forward single #
loop $-1 $213 $84 $78 #
plane-surface $-1 -41.390512804739792 -36.12954688990061 8.5537746527162426 0 -0.62932039886446345 0.77714595512881146 1 0 0 forward_v I I I I #
coedge $-1 $214 $215 $216 $217 reversed $79 $-1 #
coedge $-1 $139 $139 $-1 $218 forward $81 $-1 #
edge $-1 $219 0 $219 6.2831853071796004 $82 $220 forward 7 unknown #
vertex $-1 $85 $221 #
ellipse-curve $-1 -41.390512804739792 -34.171317675676192 10.139517436334661 0 0.62932039886446345 -0.77714595512881146 1 0 0 1 I I #
face $-1 $222 $223 $18 $-1 $224 reversed single #
loop $-1 $-1 $151 $86 #
plane-surface $-1 0 0 11.725260219953102 0 0 1 1 0 0 forward_v I I I I #
coedge $-1 $92 $225 $89 $149 forward $87 $-1 #
coedge $-1 $226 $89 $227 $228 reversed $54 $-1 #
coedge $-1 $89 $226 $90 $150 reversed $54 $-1 #
edge $-1 $229 -33.531251974960952 $154 -7.8592608297788367 $146 $230 forward 7 unknown #
edge $-1 $154 -72.259093779801276 $231 -67.219553391535669 $90 $232 forward 7 unknown #
coedge $-1 $233 $234 $91 $152 forward $144 $-1 #
edge $-1 $155 -12.016856790024303 $231 -8.1003983615754045 $151 $235 forward 7 unknown #
coedge $-1 $236 $92 $234 $237 reversed $87 $-1 #
vertex $-1 $149 $238 #
vertex $-1 $152 $239 #
straight-curve $-1 -28.554517232148733 36.129546889900631 69.155859832103999 0 0 1 I I #
face $-1 $240 $241 $19 $-1 $242 reversed single #
loop $-1 $243 $100 $94 #
plane-surface $-1 -41.390512804739792 -20.026315562345395 54.027896371805426 0 0.62932039886446345 0.77714595512881146 1 0 0 forward_v I I I I #
coedge $-1 $244 $245 $246 $247 reversed $95 $-1 #
coedge $-1 $161 $161 $-1 $248 forward $97 $-1 #
edge $-1 $249 0 $249 6.2831853071796004 $98 $250 forward 7 unknown #
vertex $-1 $101 $251 #
ellipse-curve $-1 -41.390512804739792 34.171317675676185 10.13951743633465 0 -0.62932039886446345 -0.77714595512881146 1 0 0 1 I I #
face $-1 $-1 $117 $15 $-1 $252 reversed single #
loop $-1 $-1 $181 $102 #
plane-surface $-1 0 36.129546889900631 0 0 -1 0 0 0 -1 forward_v I I I I #
coedge $-1 $253 $179 $182 $254 forward $103 $-1 #
coedge $-1 $185 $105 $106 $173 reversed $63 $-1 #
coedge $-1 $179 $253 $105 $171 reversed $103 $-1 #
edge $-1 $186 -11.725260219953102 $255 11.725260219953102 $170 $256 forward 7 unknown #
coedge $-1 $107 $106 $253 $257 forward $41 $-1 #
edge $-1 $177 -54.226508377330852 $255 54.226508377330852 $169 $258 forward 7 unknown #
coedge $-1 $182 $181 $107 $175 reversed $166 $-1 #
edge $-1 $259 -54.226508377330852 $176 54.226508377330852 $174 $260 forward 7 unknown #
vertex $-1 $109 $261 #
vertex $-1 $188 $262 #
straight-curve $-1 54.226508377330852 0 -11.725260219953102 0 -1 0 I I #
coedge $-1 $168 $170 $110 $180 reversed $103 $-1 #
edge $-1 $183 -36.129546889900631 $186 36.129546889900631 $179 $263 forward 7 unknown #
coedge $-1 $174 $111 $116 $189 forward $166 $-1 #
coedge $-1 $111 $174 $168 $254 reversed $166 $-1 #
vertex $-1 $112 $264 #
straight-curve $-1 0 36.129546889900631 11.725260219953102 -1 0 0 I I #
coedge $-1 $113 $169 $115 $188 reversed $63 $-1 #
vertex $-1 $180 $265 #
straight-curve $-1 0 -36.129546889900631 11.725260219953102 1 0 0 I I #
edge $-1 $118 -11.725260219953102 $177 11.725260219953102 $115 $266 forward 7 unknown #
edge $-1 $119 -11.725260219953102 $176 11.725260219953102 $116 $267 forward 7 unknown #
point $-1 54.226508377330852 -36.129546889900631 11.725260219953102 #
point $-1 54.226508377330852 36.129546889900631 11.725260219953102 #
face $-1 $268 $269 $16 $-1 $270 reversed single #
loop $-1 $-1 $271 $121 #
plane-surface $-1 0 0 -11.725260219953102 0 0 1 1 0 0 forward_v I I I I #
coedge $-1 $124 $272 $273 $274 forward $71 $-1 #
coedge $-1 $126 $125 $203 $275 reversed $45 $-1 #
coedge $-1 $273 $276 $125 $198 forward $269 $-1 #
edge $-1 $277 -11.347433174939461 $199 -6.307892786673869 $197 $278 forward 7 unknown #
vertex $-1 $198 $279 #
straight-curve $-1 -20.695256402369896 -32.213088461451747 11.725260219953102 1 0 0 I I #
vertex $-1 $275 $280 #
straight-curve $-1 -28.554517232148733 -36.12954688990061 8.5537746527162426 0 -0.77714595512881146 -0.62932039886446345 I I #
coedge $-1 $281 $129 $196 $275 forward $122 $-1 #
coedge $-1 $129 $282 $131 $207 reversed $122 $-1 #
straight-curve $-1 -28.554517232148733 -36.129546889900631 46.418798972559408 0 0 -1 I I #
coedge $-1 $272 $131 $283 $284 forward $71 $-1 #
edge $-1 $133 -28.554517232148733 $285 54.226508377330852 $204 $286 forward 7 unknown #
point $-1 -28.554517232148733 -32.213088461451747 11.725260219953102 #
point $-1 -28.554517232148733 -36.129546889900631 11.725260219953102 #
face $-1 $287 $288 $17 $-1 $289 reversed single #
loop $-1 $-1 $290 $135 #
plane-surface $-1 0 0 11.725260219953102 0 0 1 1 0 0 forward_v I I I I #
loop $-1 $-1 $291 $78 #
coedge $-1 $215 $138 $292 $293 forward $79 $-1 #
coedge $-1 $138 $214 $294 $295 reversed $79 $-1 #
coedge $-1 $296 $290 $138 $217 forward $211 $-1 #
edge $-1 $297 -19.977532864547584 $298 -16.0610744360987 $216 $299 forward 7 unknown #
edge $-1 $300 1 $300 0 $139 $-1 forward 7 unknown #
vertex $-1 $140 $301 #
ellipse-curve $-1 -41.390512804739792 -31.774341966582288 7.1794990097501206 0 -0.62932039886446345 0.77714595512881146 1 0 0 1 I I #
point $-1 -40.390512804739792 -34.171317675676207 10.139517436334677 #
face $-1 $302 $303 $18 $-1 $304 reversed single #
loop $-1 $305 $306 $143 #
cone-surface $-1 -41.390512804739792 -32.972829821129245 8.6595082230423976 0 0.62932039886446345 -0.77714595512881146 1 0 0 1 I I 0 1 1 forward I I I I #
coedge $-1 $146 $307 $308 $309 reversed $87 $-1 #
coedge $-1 $148 $147 $233 $310 reversed $54 $-1 #
coedge $-1 $308 $311 $147 $228 forward $312 $-1 #
edge $-1 $313 42.437439676574485 $229 47.476980064840092 $227 $314 forward 7 unknown #
vertex $-1 $309 $315 #
straight-curve $-1 -20.695256402369896 36.129546889900631 8.5537746527162177 1 0 0 I I #
vertex $-1 $310 $316 #
straight-curve $-1 -28.554517232148733 -20.026315562345395 54.027896371805426 0 -0.77714595512881146 0.62932039886446345 I I #
coedge $-1 $317 $151 $226 $310 forward $144 $-1 #
coedge $-1 $151 $318 $153 $237 forward $144 $-1 #
straight-curve $-1 -28.554517232148733 24.112690099876328 11.7252602199531 0 -1 0 I I #
coedge $-1 $307 $153 $319 $320 forward $87 $-1 #
edge $-1 $321 -54.226508377330852 $155 28.554517232148733 $153 $322 forward 7 unknown #
point $-1 -28.554517232148733 36.129546889900624 8.5537746527162142 #
point $-1 -28.554517232148733 36.129546889900631 11.725260219953102 #
face $-1 $323 $324 $19 $-1 $325 forward single #
loop $-1 $-1 $326 $157 #
plane-surface $-1 0 36.129546889900631 0 0 -1 0 0 0 -1 forward_v I I I I #
loop $-1 $-1 $327 $94 #
coedge $-1 $245 $160 $328 $329 forward $95 $-1 #
coedge $-1 $160 $244 $330 $331 reversed $95 $-1 #
coedge $-1 $332 $326 $160 $247 forward $241 $-1 #
edge $-1 $333 -60.602085179387785 $334 -57.4305996121509 $246 $335 forward 7 unknown #
edge $-1 $336 1 $336 0 $161 $-1 forward 7 unknown #
vertex $-1 $162 $337 #
ellipse-curve $-1 -41.390512804739792 31.774341966582284 7.1794990097501206 0 0.62932039886446345 0.77714595512881146 1 0 0 1 I I #
point $-1 -40.390512804739792 34.171317675676207 10.139517436334677 #
plane-surface $-1 54.226508377330852 0 0 -1 0 0 0 0 1 forward_v I I I I #
coedge $-1 $170 $168 $172 $257 reversed $103 $-1 #
edge $-1 $183 -11.725260219953102 $259 11.725260219953102 $182 $338 forward 7 unknown #
vertex $-1 $257 $339 #
straight-curve $-1 -54.226508377330852 -36.129546889900631 0 0 0 -1 I I #
edge $-1 $255 -36.129546889900631 $259 36.129546889900631 $253 $340 forward 7 unknown #
straight-curve $-1 0 -36.129546889900631 -11.725260219953102 -1 0 0 I I #
vertex $-1 $175 $341 #
straight-curve $-1 0 36.129546889900631 -11.725260219953102 1 0 0 I I #
point $-1 54.226508377330852 36.129546889900631 -11.725260219953102 #
point $-1 54.226508377330852 -36.129546889900631 -11.725260219953102 #
straight-curve $-1 -54.226508377330852 0 11.725260219953102 0 -1 0 I I #
point $-1 -54.226508377330852 36.129546889900631 11.725260219953102 #
point $-1 -54.226508377330852 -36.129546889900631 11.725260219953102 #
straight-curve $-1 54.226508377330852 -36.129546889900631 0 0 0 -1 I I #
straight-curve $-1 54.226508377330852 36.129546889900631 0 0 0 -1 I I #
face $-1 $342 $343 $16 $-1 $344 reversed single #
loop $-1 $-1 $197 $192 #
plane-surface $-1 -54.226508377330852 0 0 1 0 0 0 0 -1 forward_v I I I I #
coedge $-1 $345 $346 $347 $348 forward $193 $-1 #
coedge $-1 $195 $206 $349 $350 forward $71 $-1 #
coedge $-1 $351 $197 $195 $274 reversed $269 $-1 #
edge $-1 $352 -36.129546889900631 $199 32.213088461451747 $273 $353 forward 7 unknown #
edge $-1 $201 7.8592608297788367 $277 33.531251974960952 $203 $354 forward 7 unknown #
coedge $-1 $197 $355 $281 $356 reversed $269 $-1 #
vertex $-1 $356 $357 #
straight-curve $-1 -54.226508377330852 -27.310935096901943 15.694945824456973 0 0.77714595512881146 0.62932039886446345 I I #
point $-1 -54.226508377330852 -32.213088461451747 11.725260219953102 #
point $-1 -28.554517232148733 -36.129546889900631 8.5537746527162248 #
coedge $-1 $358 $203 $276 $356 forward $122 $-1 #
coedge $-1 $204 $358 $359 $360 reversed $122 $-1 #
coedge $-1 $359 $361 $206 $284 reversed $362 $-1 #
edge $-1 $285 -36.129546889900631 $363 36.129546889900631 $283 $364 forward 7 unknown #
vertex $-1 $284 $365 #
straight-curve $-1 0 -36.129546889900631 11.725260219953102 1 0 0 I I #
face $-1 $366 $367 $17 $-1 $368 reversed single #
loop $-1 $-1 $294 $210 #
plane-surface $-1 0 -36.129546889900631 0 0 1 0 0 0 1 forward_v I I I I #
coedge $-1 $216 $369 $291 $370 forward $211 $-1 #
coedge $-1 $371 $292 $290 $370 reversed $213 $-1 #
coedge $-1 $291 $372 $214 $293 reversed $213 $-1 #
edge $-1 $297 -5.0395403882655643 $373 2.7744838338233485e-014 $214 $374 forward 7 unknown #
coedge $-1 $375 $376 $215 $295 forward $288 $-1 #
edge $-1 $298 34.693538752606308 $373 37.865024319843187 $294 $377 forward 7 unknown #
coedge $-1 $378 $216 $376 $379 forward $211 $-1 #
vertex $-1 $370 $380 #
vertex $-1 $379 $381 #
straight-curve $-1 -28.554517232148733 -52.190621325999331 11.7252602199531 0 -1 0 I I #
vertex $-1 $218 $382 #
point $-1 -40.390512804739792 -31.774341966582288 7.1794990097501206 #
face $-1 $383 $384 $18 $-1 $385 forward single #
loop $-1 $386 $387 $222 #
cone-surface $-1 -41.390512804739792 -31.459681767150055 6.7909260321857143 0 0.62932039886446345 -0.77714595512881146 0.5 0 0 1 I I -0.70710678118654691 0.70710678118654813 0.5 forward I I I I #
loop $-1 $-1 $388 $143 #
coedge $-1 $306 $306 $389 $390 reversed $223 $-1 #
coedge $-1 $225 $236 $391 $392 reversed $87 $-1 #
coedge $-1 $393 $227 $225 $309 forward $312 $-1 #
edge $-1 $229 -8.553774652716216 $394 11.725260219953102 $225 $395 forward 7 unknown #
edge $-1 $231 7.8592608297788367 $313 33.531251974960952 $233 $396 forward 7 unknown #
coedge $-1 $227 $397 $317 $398 reversed $312 $-1 #
loop $-1 $-1 $227 $399 #
vertex $-1 $398 $400 #
straight-curve $-1 -54.226508377330852 -0.76699612922106297 38.432006684001564 0 0.77714595512881146 -0.62932039886446345 I I #
point $-1 -54.226508377330852 36.129546889900631 8.553774652716216 #
point $-1 -28.554517232148733 32.213088461451733 11.7252602199531 #
coedge $-1 $401 $233 $311 $398 forward $144 $-1 #
coedge $-1 $234 $402 $403 $404 forward $144 $-1 #
coedge $-1 $403 $405 $236 $320 reversed $406 $-1 #
edge $-1 $321 -11.725260219953102 $407 11.725260219953102 $319 $408 forward 7 unknown #
vertex $-1 $404 $409 #
straight-curve $-1 0 36.129546889900631 11.725260219953102 -1 0 0 I I #
face $-1 $410 $411 $19 $-1 $412 reversed single #
loop $-1 $-1 $330 $240 #
plane-surface $-1 0 0 11.725260219953102 0 0 1 1 0 0 forward_v I I I I #
coedge $-1 $246 $413 $327 $414 forward $241 $-1 #
coedge $-1 $415 $328 $326 $414 reversed $243 $-1 #
coedge $-1 $327 $416 $244 $329 reversed $243 $-1 #
edge $-1 $333 -72.259093779801276 $417 -67.219553391535669 $244 $418 forward 7 unknown #
coedge $-1 $419 $420 $245 $331 forward $324 $-1 #
edge $-1 $334 -12.016856790024303 $417 -8.1003983615754045 $330 $421 forward 7 unknown #
coedge $-1 $422 $246 $420 $423 reversed $241 $-1 #
vertex $-1 $414 $424 #
vertex $-1 $331 $425 #
straight-curve $-1 -28.554517232148733 36.129546889900631 69.155859832103999 0 0 1 I I #
vertex $-1 $248 $426 #
point $-1 -40.390512804739792 31.774341966582284 7.1794990097501206 #
straight-curve $-1 -54.226508377330852 36.129546889900631 0 0 0 -1 I I #
point $-1 -54.226508377330852 -36.129546889900631 -11.725260219953102 #
straight-curve $-1 -54.226508377330852 0 -11.725260219953102 0 1 0 I I #
point $-1 -54.226508377330852 36.129546889900631 -11.725260219953102 #
face $-1 $-1 $362 $16 $-1 $427 reversed single #
loop $-1 $-1 $428 $268 #
plane-surface $-1 0 36.129546889900631 0 0 -1 0 0 0 -1 forward_v I I I I #
coedge $-1 $429 $271 $358 $430 forward $193 $-1 #
coedge $-1 $271 $429 $431 $432 forward $193 $-1 #
coedge $-1 $361 $359 $271 $348 reversed $362 $-1 #
edge $-1 $433 -36.129546889900631 $434 36.129546889900631 $347 $435 forward 7 unknown #
coedge $-1 $428 $436 $272 $350 reversed $343 $-1 #
edge $-1 $363 -54.226508377330852 $352 54.226508377330852 $349 $437 forward 7 unknown #
coedge $-1 $355 $273 $436 $438 forward $269 $-1 #
vertex $-1 $350 $439 #
straight-curve $-1 -54.226508377330852 0 11.725260219953102 0 -1 0 I I #
straight-curve $-1 -20.695256402369896 -36.129546889900631 8.5537746527162266 -1 0 0 I I #
coedge $-1 $276 $351 $429 $440 reversed $269 $-1 #
edge $-1 $277 -8.5537746527162248 $441 11.725260219953102 $276 $442 forward 7 unknown #
point $-1 -54.226508377330852 -36.129546889900631 8.5537746527162248 #
coedge $-1 $282 $281 $345 $430 reversed $122 $-1 #
coedge $-1 $347 $283 $282 $360 forward $362 $-1 #
edge $-1 $285 -11.725260219953102 $434 11.725260219953102 $359 $443 forward 7 unknown #
coedge $-1 $283 $347 $428 $444 reversed $362 $-1 #
loop $-1 $-1 $359 $342 #
vertex $-1 $284 $445 #
straight-curve $-1 54.226508377330852 0 11.725260219953102 0 1 0 I I #
point $-1 54.226508377330852 -36.129546889900631 11.725260219953102 #
face $-1 $446 $447 $17 $-1 $448 reversed single #
loop $-1 $-1 $449 $287 #
plane-surface $-1 0 0 -11.725260219953102 0 0 1 1 0 0 forward_v I I I I #
coedge $-1 $290 $450 $451 $452 forward $211 $-1 #
edge $-1 $453 -33.531251974960952 $297 -7.8592608297788367 $290 $454 forward 7 unknown #
coedge $-1 $372 $291 $455 $456 reversed $213 $-1 #
coedge $-1 $292 $371 $375 $457 reversed $213 $-1 #
vertex $-1 $457 $458 #
straight-curve $-1 -28.554517232148733 -36.12954688990061 8.5537746527162426 0 -0.77714595512881146 -0.62932039886446345 I I #
coedge $-1 $459 $294 $372 $457 forward $288 $-1 #
coedge $-1 $294 $460 $296 $379 reversed $288 $-1 #
straight-curve $-1 -28.554517232148733 -36.129546889900631 46.418798972559408 0 0 -1 I I #
coedge $-1 $450 $296 $461 $462 forward $211 $-1 #
edge $-1 $298 -28.554517232148733 $463 54.226508377330852 $376 $464 forward 7 unknown #
point $-1 -28.554517232148733 -32.213088461451747 11.725260219953102 #
point $-1 -28.554517232148733 -36.129546889900631 11.725260219953102 #
point $-1 -41.390512804739792 -31.145021567717823 6.4023530546213081 #
face $-1 $465 $466 $18 $-1 $467 forward single #
loop $-1 $-1 $468 $302 #
plane-surface $-1 -28.554517232148733 -104.38124265199866 92.837597945118816 -1 0 0 0 -0.62932039886446345 0.77714595512881146 forward_v I I I I #
loop $-1 $-1 $469 $222 #
coedge $-1 $387 $387 $388 $470 forward $303 $-1 #
coedge $-1 $388 $388 $387 $470 reversed $305 $-1 #
coedge $-1 $389 $389 $306 $390 forward $466 $-1 #
edge $-1 $471 9.8282990856958618e-016 $471 6.2831853071796013 $389 $472 forward 7 unknown #
coedge $-1 $473 $474 $307 $392 forward $475 $-1 #
edge $-1 $394 -54.226508377330852 $407 54.226508377330852 $307 $476 forward 7 unknown #
coedge $-1 $477 $308 $474 $478 reversed $312 $-1 #
vertex $-1 $392 $479 #
straight-curve $-1 -54.226508377330852 36.129546889900631 0 0 0 -1 I I #
straight-curve $-1 -20.695256402369896 32.21308846145174 11.7252602199531 -1 0 0 I I #
coedge $-1 $311 $477 $480 $481 forward $312 $-1 #
edge $-1 $313 -32.213088461451733 $482 32.213088461451747 $311 $483 forward 7 unknown #
face $-1 $484 $312 $18 $-1 $485 reversed single #
point $-1 -54.226508377330852 32.213088461451733 11.7252602199531 #
coedge $-1 $486 $317 $487 $488 forward $144 $-1 #
coedge $-1 $318 $486 $489 $490 forward $144 $-1 #
coedge $-1 $491 $319 $318 $404 reversed $406 $-1 #
edge $-1 $492 -36.129546889900631 $321 36.129546889900631 $403 $493 forward 7 unknown #
coedge $-1 $319 $491 $473 $494 reversed $406 $-1 #
loop $-1 $-1 $491 $484 #
vertex $-1 $494 $495 #
straight-curve $-1 54.226508377330852 36.129546889900631 0 0 0 -1 I I #
point $-1 54.226508377330852 36.129546889900631 11.725260219953102 #
face $-1 $496 $497 $19 $-1 $498 reversed single #
loop $-1 $499 $500 $323 #
cone-surface $-1 -41.390512804739792 -32.972829821129245 8.6595082230423976 0 0.62932039886446345 -0.77714595512881146 1 0 0 1 I I 0 1 1 forward I I I I #
coedge $-1 $326 $501 $502 $503 reversed $241 $-1 #
edge $-1 $504 -33.531251974960952 $333 -7.8592608297788367 $326 $505 forward 7 unknown #
coedge $-1 $416 $327 $506 $507 reversed $243 $-1 #
coedge $-1 $328 $415 $419 $508 reversed $243 $-1 #
vertex $-1 $508 $509 #
straight-curve $-1 -28.554517232148733 -20.026315562345395 54.027896371805426 0 -0.77714595512881146 0.62932039886446345 I I #
coedge $-1 $510 $330 $416 $508 forward $324 $-1 #
coedge $-1 $330 $511 $332 $423 forward $324 $-1 #
straight-curve $-1 -28.554517232148733 24.112690099876328 11.7252602199531 0 -1 0 I I #
coedge $-1 $501 $332 $512 $513 forward $241 $-1 #
edge $-1 $514 -54.226508377330852 $334 28.554517232148733 $332 $515 forward 7 unknown #
point $-1 -28.554517232148733 36.129546889900624 8.5537746527162142 #
point $-1 -28.554517232148733 36.129546889900631 11.725260219953102 #
point $-1 -41.390512804739792 31.145021567717819 6.4023530546213081 #
plane-surface $-1 54.226508377330852 0 0 -1 0 0 0 0 1 forward_v I I I I #
coedge $-1 $431 $349 $361 $444 forward $343 $-1 #
coedge $-1 $346 $345 $355 $440 forward $193 $-1 #
edge $-1 $434 -54.226508377330852 $441 54.226508377330852 $358 $516 forward 7 unknown #
coedge $-1 $436 $428 $346 $432 reversed $343 $-1 #
edge $-1 $517 -54.226508377330852 $433 54.226508377330852 $431 $518 forward 7 unknown #
vertex $-1 $348 $519 #
vertex $-1 $360 $520 #
straight-curve $-1 54.226508377330852 0 -11.725260219953102 0 -1 0 I I #
coedge $-1 $349 $431 $351 $438 reversed $343 $-1 #
straight-curve $-1 0 36.129546889900631 11.725260219953102 -1 0 0 I I #
edge $-1 $352 -11.725260219953102 $517 11.725260219953102 $436 $521 forward 7 unknown #
point $-1 -54.226508377330852 36.129546889900631 11.725260219953102 #
edge $-1 $441 -36.129546889900631 $517 36.129546889900631 $355 $522 forward 7 unknown #
vertex $-1 $440 $523 #
straight-curve $-1 -54.226508377330852 -36.129546889900631 0 0 0 -1 I I #
straight-curve $-1 54.226508377330852 -36.129546889900631 0 0 0 -1 I I #
edge $-1 $363 -11.725260219953102 $433 11.725260219953102 $361 $524 forward 7 unknown #
point $-1 54.226508377330852 36.129546889900631 11.725260219953102 #
face $-1 $525 $526 $17 $-1 $527 reversed single #
loop $-1 $-1 $455 $366 #
plane-surface $-1 -54.226508377330852 0 0 1 0 0 0 0 -1 forward_v I I I I #
coedge $-1 $528 $529 $530 $531 forward $367 $-1 #
coedge $-1 $369 $378 $532 $533 forward $211 $-1 #
coedge $-1 $534 $455 $369 $452 reversed $447 $-1 #
edge $-1 $535 -36.129546889900631 $453 32.213088461451747 $451 $536 forward 7 unknown #
vertex $-1 $456 $537 #
straight-curve $-1 -20.695256402369896 -32.213088461451747 11.725260219953102 1 0 0 I I #
coedge $-1 $451 $538 $371 $456 forward $447 $-1 #
edge $-1 $539 -11.347433174939461 $453 -6.307892786673869 $455 $540 forward 7 unknown #
edge $-1 $373 7.8592608297788367 $539 33.531251974960952 $375 $541 forward 7 unknown #
point $-1 -28.554517232148733 -36.129546889900631 8.5537746527162248 #
coedge $-1 $542 $375 $538 $543 forward $288 $-1 #
coedge $-1 $376 $542 $544 $545 reversed $288 $-1 #
coedge $-1 $544 $546 $378 $462 reversed $547 $-1 #
edge $-1 $463 -36.129546889900631 $548 36.129546889900631 $461 $549 forward 7 unknown #
vertex $-1 $462 $550 #
straight-curve $-1 0 -36.129546889900631 11.725260219953102 1 0 0 I I #
face $-1 $551 $552 $18 $-1 $553 reversed single #
loop $-1 $554 $389 $383 #
plane-surface $-1 -41.390512804739792 -36.12954688990061 8.5537746527162426 0 -0.62932039886446345 0.77714595512881146 1 0 0 forward_v I I I I #
coedge $-1 $555 $556 $486 $557 reversed $384 $-1 #
coedge $-1 $469 $469 $-1 $558 forward $386 $-1 #
edge $-1 $559 0 $559 6.2831853071796004 $387 $560 forward 7 unknown #
vertex $-1 $390 $561 #
ellipse-curve $-1 -41.390512804739792 -34.171317675676192 10.139517436334661 0 0.62932039886446345 -0.77714595512881146 1 0 0 1 I I #
coedge $-1 $562 $391 $405 $494 forward $475 $-1 #
coedge $-1 $391 $562 $393 $478 forward $475 $-1 #
loop $-1 $-1 $473 $551 #
straight-curve $-1 0 36.129546889900631 -11.725260219953102 1 0 0 I I #
coedge $-1 $397 $393 $563 $564 reversed $312 $-1 #
edge $-1 $565 -36.129546889900631 $394 36.129546889900631 $393 $566 forward 7 unknown #
point $-1 -54.226508377330852 36.129546889900631 -11.725260219953102 #
coedge $-1 $567 $487 $397 $481 reversed $554 $-1 #
edge $-1 $568 -11.347433174939461 $482 -6.307892786673869 $397 $569 forward 7 unknown #
vertex $-1 $481 $570 #
straight-curve $-1 -54.226508377330852 0 11.725260219953102 0 -1 0 I I #
face $-1 $-1 $406 $18 $-1 $571 reversed single #
plane-surface $-1 -54.226508377330852 0 0 1 0 0 0 0 -1 forward_v I I I I #
coedge $-1 $402 $401 $468 $557 forward $144 $-1 #
coedge $-1 $480 $572 $401 $488 reversed $554 $-1 #
edge $-1 $482 -33.531251974960952 $573 -7.8592608297788367 $401 $574 forward 7 unknown #
coedge $-1 $575 $576 $402 $490 reversed $552 $-1 #
edge $-1 $577 -28.554517232148733 $492 54.226508377330852 $489 $578 forward 7 unknown #
coedge $-1 $405 $403 $576 $579 forward $406 $-1 #
vertex $-1 $404 $580 #
straight-curve $-1 54.226508377330852 0 11.725260219953102 0 1 0 I I #
edge $-1 $407 -36.129546889900631 $581 36.129546889900631 $405 $582 forward 7 unknown #
point $-1 54.226508377330852 36.129546889900631 -11.725260219953102 #
face $-1 $583 $584 $19 $-1 $585 forward single #
loop $-1 $586 $587 $410 #
cone-surface $-1 -41.390512804739792 -31.459681767150055 6.7909260321857143 0 0.62932039886446345 -0.77714595512881146 0.5 0 0 1 I I -0.70710678118654691 0.70710678118654813 0.5 forward I I I I #
loop $-1 $-1 $588 $323 #
coedge $-1 $500 $500 $589 $590 reversed $411 $-1 #
coedge $-1 $413 $422 $591 $592 reversed $241 $-1 #
coedge $-1 $593 $506 $413 $503 forward $594 $-1 #
edge $-1 $504 -8.553774652716216 $595 11.725260219953102 $413 $596 forward 7 unknown #
vertex $-1 $503 $597 #
straight-curve $-1 -20.695256402369896 36.129546889900631 8.5537746527162177 1 0 0 I I #
coedge $-1 $502 $598 $415 $507 forward $594 $-1 #
edge $-1 $599 42.437439676574485 $504 47.476980064840092 $506 $600 forward 7 unknown #
edge $-1 $417 7.8592608297788367 $599 33.531251974960952 $419 $601 forward 7 unknown #
point $-1 -28.554517232148733 32.213088461451733 11.7252602199531 #
coedge $-1 $602 $419 $598 $603 forward $324 $-1 #
coedge $-1 $420 $604 $605 $606 forward $324 $-1 #
coedge $-1 $605 $607 $422 $513 reversed $608 $-1 #
edge $-1 $514 -11.725260219953102 $609 11.725260219953102 $512 $610 forward 7 unknown #
vertex $-1 $606 $611 #
straight-curve $-1 0 36.129546889900631 11.725260219953102 -1 0 0 I I #
straight-curve $-1 0 -36.129546889900631 -11.725260219953102 -1 0 0 I I #
vertex $-1 $432 $612 #
straight-curve $-1 0 36.129546889900631 -11.725260219953102 1 0 0 I I #
point $-1 54.226508377330852 36.129546889900631 -11.725260219953102 #
point $-1 54.226508377330852 -36.129546889900631 -11.725260219953102 #
straight-curve $-1 -54.226508377330852 36.129546889900631 0 0 0 -1 I I #
straight-curve $-1 -54.226508377330852 0 -11.725260219953102 0 1 0 I I #
point $-1 -54.226508377330852 -36.129546889900631 -11.725260219953102 #
straight-curve $-1 54.226508377330852 36.129546889900631 0 0 0 -1 I I #
face $-1 $-1 $547 $17 $-1 $613 reversed single #
loop $-1 $-1 $614 $446 #
plane-surface $-1 0 36.129546889900631 0 0 -1 0 0 0 -1 forward_v I I I I #
coedge $-1 $615 $449 $542 $616 forward $367 $-1 #
coedge $-1 $449 $615 $617 $618 forward $367 $-1 #
coedge $-1 $546 $544 $449 $531 reversed $547 $-1 #
edge $-1 $619 -36.129546889900631 $620 36.129546889900631 $530 $621 forward 7 unknown #
coedge $-1 $614 $622 $450 $533 reversed $526 $-1 #
edge $-1 $548 -54.226508377330852 $535 54.226508377330852 $532 $623 forward 7 unknown #
coedge $-1 $624 $451 $622 $625 forward $447 $-1 #
vertex $-1 $533 $626 #
straight-curve $-1 -54.226508377330852 0 11.725260219953102 0 -1 0 I I #
point $-1 -54.226508377330852 -32.213088461451747 11.725260219953102 #
coedge $-1 $455 $624 $459 $543 reversed $447 $-1 #
vertex $-1 $543 $627 #
straight-curve $-1 -54.226508377330852 -27.310935096901943 15.694945824456973 0 0.77714595512881146 0.62932039886446345 I I #
straight-curve $-1 -20.695256402369896 -36.129546889900631 8.5537746527162266 -1 0 0 I I #
coedge $-1 $460 $459 $528 $616 reversed $288 $-1 #
edge $-1 $539 -8.5537746527162248 $628 11.725260219953102 $538 $629 forward 7 unknown #
coedge $-1 $530 $461 $460 $545 forward $547 $-1 #
edge $-1 $463 -11.725260219953102 $620 11.725260219953102 $544 $630 forward 7 unknown #
coedge $-1 $461 $530 $614 $631 reversed $547 $-1 #
loop $-1 $-1 $544 $525 #
vertex $-1 $462 $632 #
straight-curve $-1 54.226508377330852 0 11.725260219953102 0 1 0 I I #
point $-1 54.226508377330852 -36.129546889900631 11.725260219953102 #
face $-1 $399 $475 $18 $-1 $633 reversed single #
loop $-1 $-1 $575 $465 #
plane-surface $-1 0 -36.129546889900631 0 0 1 0 0 0 1 forward_v I I I I #
loop $-1 $-1 $487 $383 #
coedge $-1 $556 $468 $572 $634 forward $384 $-1 #
coedge $-1 $468 $555 $575 $635 reversed $384 $-1 #
edge $-1 $573 -19.977532864547584 $577 -16.0610744360987 $486 $636 forward 7 unknown #
edge $-1 $637 1 $637 0 $469 $-1 forward 7 unknown #
vertex $-1 $470 $638 #
ellipse-curve $-1 -41.390512804739792 -31.774341966582288 7.1794990097501206 0 -0.62932039886446345 0.77714595512881146 1 0 0 1 I I #
point $-1 -40.390512804739792 -34.171317675676207 10.139517436334677 #
coedge $-1 $474 $473 $639 $640 forward $475 $-1 #
coedge $-1 $639 $641 $477 $564 forward $552 $-1 #
edge $-1 $568 -8.5537746527162248 $565 11.725260219953102 $477 $642 forward 7 unknown #
vertex $-1 $478 $643 #
straight-curve $-1 -54.226508377330852 0 -11.725260219953102 0 1 0 I I #
coedge $-1 $572 $480 $641 $644 reversed $554 $-1 #
vertex $-1 $564 $645 #
straight-curve $-1 -54.226508377330852 -27.310935096901943 15.694945824456973 0 0.77714595512881146 0.62932039886446345 I I #
point $-1 -54.226508377330852 -32.213088461451747 11.725260219953102 #
plane-surface $-1 54.226508377330852 0 0 -1 0 0 0 0 1 forward_v I I I I #
coedge $-1 $487 $567 $555 $634 reversed $554 $-1 #
vertex $-1 $488 $646 #
straight-curve $-1 -20.695256402369896 -32.213088461451747 11.725260219953102 1 0 0 I I #
coedge $-1 $641 $489 $556 $635 forward $552 $-1 #
coedge $-1 $489 $639 $491 $579 reversed $552 $-1 #
vertex $-1 $490 $647 #
straight-curve $-1 0 -36.129546889900631 11.725260219953102 1 0 0 I I #
edge $-1 $492 -11.725260219953102 $581 11.725260219953102 $491 $648 forward 7 unknown #
point $-1 54.226508377330852 -36.129546889900631 11.725260219953102 #
vertex $-1 $579 $649 #
straight-curve $-1 54.226508377330852 0 -11.725260219953102 0 -1 0 I I #
face $-1 $650 $651 $19 $-1 $652 forward single #
loop $-1 $-1 $653 $496 #
plane-surface $-1 -28.554517232148733 -104.38124265199866 92.837597945118816 -1 0 0 0 -0.62932039886446345 0.77714595512881146 forward_v I I I I #
loop $-1 $-1 $654 $410 #
coedge $-1 $587 $587 $588 $655 forward $497 $-1 #
coedge $-1 $588 $588 $587 $655 reversed $499 $-1 #
coedge $-1 $589 $589 $500 $590 forward $651 $-1 #
edge $-1 $656 9.8282990856958618e-016 $656 6.2831853071796013 $589 $657 forward 7 unknown #
coedge $-1 $658 $659 $501 $592 forward $660 $-1 #
edge $-1 $595 -54.226508377330852 $609 54.226508377330852 $501 $661 forward 7 unknown #
coedge $-1 $662 $502 $659 $663 reversed $594 $-1 #
loop $-1 $-1 $506 $664 #
vertex $-1 $592 $665 #
straight-curve $-1 -54.226508377330852 36.129546889900631 0 0 0 -1 I I #
point $-1 -54.226508377330852 36.129546889900631 8.553774652716216 #
coedge $-1 $506 $666 $510 $603 reversed $594 $-1 #
vertex $-1 $603 $667 #
straight-curve $-1 -54.226508377330852 -0.76699612922106297 38.432006684001564 0 0.77714595512881146 -0.62932039886446345 I I #
straight-curve $-1 -20.695256402369896 32.21308846145174 11.7252602199531 -1 0 0 I I #
coedge $-1 $668 $510 $669 $670 forward $324 $-1 #
edge $-1 $599 -32.213088461451733 $671 32.213088461451747 $598 $672 forward 7 unknown #
coedge $-1 $511 $668 $673 $674 forward $324 $-1 #
coedge $-1 $675 $512 $511 $606 reversed $608 $-1 #
edge $-1 $676 -36.129546889900631 $514 36.129546889900631 $605 $677 forward 7 unknown #
coedge $-1 $512 $675 $658 $678 reversed $608 $-1 #
loop $-1 $-1 $675 $679 #
vertex $-1 $678 $680 #
straight-curve $-1 54.226508377330852 36.129546889900631 0 0 0 -1 I I #
point $-1 54.226508377330852 36.129546889900631 11.725260219953102 #
point $-1 -54.226508377330852 36.129546889900631 -11.725260219953102 #
plane-surface $-1 54.226508377330852 0 0 -1 0 0 0 0 1 forward_v I I I I #
coedge $-1 $617 $532 $546 $631 forward $526 $-1 #
coedge $-1 $529 $528 $624 $681 forward $367 $-1 #
edge $-1 $620 -54.226508377330852 $628 54.226508377330852 $542 $682 forward 7 unknown #
coedge $-1 $622 $614 $529 $618 reversed $526 $-1 #
edge $-1 $683 -54.226508377330852 $619 54.226508377330852 $617 $684 forward 7 unknown #
vertex $-1 $531 $685 #
vertex $-1 $545 $686 #
straight-curve $-1 54.226508377330852 0 -11.725260219953102 0 -1 0 I I #
coedge $-1 $532 $617 $534 $625 reversed $526 $-1 #
straight-curve $-1 0 36.129546889900631 11.725260219953102 -1 0 0 I I #
coedge $-1 $538 $534 $615 $681 reversed $447 $-1 #
edge $-1 $535 -11.725260219953102 $683 11.725260219953102 $622 $687 forward 7 unknown #
point $-1 -54.226508377330852 36.129546889900631 11.725260219953102 #
point $-1 -54.226508377330852 -36.129546889900631 8.5537746527162248 #
vertex $-1 $681 $688 #
straight-curve $-1 -54.226508377330852 -36.129546889900631 0 0 0 -1 I I #
straight-curve $-1 54.226508377330852 -36.129546889900631 0 0 0 -1 I I #
edge $-1 $548 -11.725260219953102 $619 11.725260219953102 $546 $689 forward 7 unknown #
point $-1 54.226508377330852 36.129546889900631 11.725260219953102 #
plane-surface $-1 0 0 -11.725260219953102 0 0 1 1 0 0 forward_v I I I I #
edge $-1 $573 -5.0395403882655643 $690 2.7744838338233485e-014 $555 $691 forward 7 unknown #
edge $-1 $577 34.693538752606308 $690 37.865024319843187 $575 $692 forward 7 unknown #
straight-curve $-1 -28.554517232148733 -52.190621325999331 11.7252602199531 0 -1 0 I I #
vertex $-1 $558 $693 #
point $-1 -40.390512804739792 -31.774341966582288 7.1794990097501206 #
coedge $-1 $576 $563 $562 $640 reversed $552 $-1 #
edge $-1 $581 -54.226508377330852 $565 54.226508377330852 $639 $694 forward 7 unknown #
coedge $-1 $563 $575 $567 $644 forward $552 $-1 #
straight-curve $-1 -54.226508377330852 -36.129546889900631 0 0 0 -1 I I #
point $-1 -54.226508377330852 -36.129546889900631 -11.725260219953102 #
edge $-1 $690 7.8592608297788367 $568 33.531251974960952 $641 $695 forward 7 unknown #
point $-1 -54.226508377330852 -36.129546889900631 8.5537746527162248 #
point $-1 -28.554517232148733 -32.213088461451747 11.725260219953102 #
point $-1 -28.554517232148733 -36.129546889900631 11.725260219953102 #
straight-curve $-1 54.226508377330852 -36.129546889900631 0 0 0 -1 I I #
point $-1 54.226508377330852 -36.129546889900631 -11.725260219953102 #
face $-1 $696 $697 $19 $-1 $698 reversed single #
loop $-1 $699 $589 $583 #
plane-surface $-1 -41.390512804739792 -36.12954688990061 8.5537746527162426 0 -0.62932039886446345 0.77714595512881146 1 0 0 forward_v I I I I #
coedge $-1 $700 $701 $668 $702 reversed $584 $-1 #
coedge $-1 $654 $654 $-1 $703 forward $586 $-1 #
edge $-1 $704 0 $704 6.2831853071796004 $587 $705 forward 7 unknown #
vertex $-1 $590 $706 #
ellipse-curve $-1 -41.390512804739792 -34.171317675676192 10.139517436334661 0 0.62932039886446345 -0.77714595512881146 1 0 0 1 I I #
coedge $-1 $707 $591 $607 $678 forward $660 $-1 #
coedge $-1 $591 $707 $593 $663 forward $660 $-1 #
loop $-1 $-1 $658 $696 #
straight-curve $-1 0 36.129546889900631 -11.725260219953102 1 0 0 I I #
coedge $-1 $666 $593 $708 $709 reversed $594 $-1 #
edge $-1 $710 -36.129546889900631 $595 36.129546889900631 $593 $711 forward 7 unknown #
face $-1 $679 $594 $19 $-1 $712 reversed single #
point $-1 -54.226508377330852 36.129546889900631 -11.725260219953102 #
coedge $-1 $598 $662 $713 $714 forward $594 $-1 #
point $-1 -54.226508377330852 32.213088461451733 11.7252602199531 #
coedge $-1 $604 $602 $653 $702 forward $324 $-1 #
coedge $-1 $713 $715 $602 $670 reversed $699 $-1 #
edge $-1 $671 -33.531251974960952 $716 -7.8592608297788367 $602 $717 forward 7 unknown #
vertex $-1 $714 $718 #
straight-curve $-1 -54.226508377330852 0 11.725260219953102 0 -1 0 I I #
coedge $-1 $719 $720 $604 $674 reversed $697 $-1 #
edge $-1 $721 -28.554517232148733 $676 54.226508377330852 $673 $722 forward 7 unknown #
coedge $-1 $607 $605 $720 $723 forward $608 $-1 #
vertex $-1 $606 $724 #
straight-curve $-1 54.226508377330852 0 11.725260219953102 0 1 0 I I #
edge $-1 $609 -36.129546889900631 $725 36.129546889900631 $607 $726 forward 7 unknown #
face $-1 $-1 $608 $19 $-1 $727 reversed single #
point $-1 54.226508377330852 36.129546889900631 -11.725260219953102 #
edge $-1 $628 -36.129546889900631 $683 36.129546889900631 $624 $728 forward 7 unknown #
straight-curve $-1 0 -36.129546889900631 -11.725260219953102 -1 0 0 I I #
vertex $-1 $618 $729 #
straight-curve $-1 0 36.129546889900631 -11.725260219953102 1 0 0 I I #
point $-1 54.226508377330852 36.129546889900631 -11.725260219953102 #
point $-1 54.226508377330852 -36.129546889900631 -11.725260219953102 #
straight-curve $-1 -54.226508377330852 36.129546889900631 0 0 0 -1 I I #
point $-1 -54.226508377330852 -36.129546889900631 -11.725260219953102 #
straight-curve $-1 54.226508377330852 36.129546889900631 0 0 0 -1 I I #
vertex $-1 $644 $730 #
straight-curve $-1 -28.554517232148733 -36.12954688990061 8.5537746527162426 0 -0.77714595512881146 -0.62932039886446345 I I #
straight-curve $-1 -28.554517232148733 -36.129546889900631 46.418798972559408 0 0 -1 I I #
point $-1 -41.390512804739792 -31.145021567717823 6.4023530546213081 #
straight-curve $-1 0 -36.129546889900631 -11.725260219953102 -1 0 0 I I #
straight-curve $-1 -20.695256402369896 -36.129546889900631 8.5537746527162266 -1 0 0 I I #
face $-1 $664 $660 $19 $-1 $731 reversed single #
loop $-1 $-1 $719 $650 #
plane-surface $-1 0 -36.129546889900631 0 0 1 0 0 0 1 forward_v I I I I #
loop $-1 $-1 $669 $583 #
coedge $-1 $701 $653 $715 $732 forward $584 $-1 #
coedge $-1 $653 $700 $719 $733 reversed $584 $-1 #
edge $-1 $716 -19.977532864547584 $721 -16.0610744360987 $668 $734 forward 7 unknown #
edge $-1 $735 1 $735 0 $654 $-1 forward 7 unknown #
vertex $-1 $655 $736 #
ellipse-curve $-1 -41.390512804739792 -31.774341966582288 7.1794990097501206 0 -0.62932039886446345 0.77714595512881146 1 0 0 1 I I #
point $-1 -40.390512804739792 -34.171317675676207 10.139517436334677 #
coedge $-1 $659 $658 $737 $738 forward $660 $-1 #
coedge $-1 $737 $739 $662 $709 forward $697 $-1 #
edge $-1 $740 -8.5537746527162248 $710 11.725260219953102 $662 $741 forward 7 unknown #
vertex $-1 $663 $742 #
straight-curve $-1 -54.226508377330852 0 -11.725260219953102 0 1 0 I I #
plane-surface $-1 -54.226508377330852 0 0 1 0 0 0 0 -1 forward_v I I I I #
coedge $-1 $743 $669 $666 $714 reversed $699 $-1 #
edge $-1 $740 -11.347433174939461 $671 -6.307892786673869 $666 $744 forward 7 unknown #
coedge $-1 $669 $743 $700 $732 reversed $699 $-1 #
vertex $-1 $670 $745 #
straight-curve $-1 -20.695256402369896 -32.213088461451747 11.725260219953102 1 0 0 I I #
point $-1 -54.226508377330852 -32.213088461451747 11.725260219953102 #
coedge $-1 $739 $673 $701 $733 forward $697 $-1 #
coedge $-1 $673 $737 $675 $723 reversed $697 $-1 #
vertex $-1 $674 $746 #
straight-curve $-1 0 -36.129546889900631 11.725260219953102 1 0 0 I I #
edge $-1 $676 -11.725260219953102 $725 11.725260219953102 $675 $747 forward 7 unknown #
point $-1 54.226508377330852 -36.129546889900631 11.725260219953102 #
vertex $-1 $723 $748 #
straight-curve $-1 54.226508377330852 0 -11.725260219953102 0 -1 0 I I #
plane-surface $-1 54.226508377330852 0 0 -1 0 0 0 0 1 forward_v I I I I #
straight-curve $-1 -54.226508377330852 0 -11.725260219953102 0 1 0 I I #
point $-1 -54.226508377330852 36.129546889900631 -11.725260219953102 #
point $-1 -28.554517232148733 -36.129546889900631 8.5537746527162248 #
plane-surface $-1 0 0 -11.725260219953102 0 0 1 1 0 0 forward_v I I I I #
edge $-1 $716 -5.0395403882655643 $749 2.7744838338233485e-014 $700 $750 forward 7 unknown #
edge $-1 $721 34.693538752606308 $749 37.865024319843187 $719 $751 forward 7 unknown #
straight-curve $-1 -28.554517232148733 -52.190621325999331 11.7252602199531 0 -1 0 I I #
vertex $-1 $703 $752 #
point $-1 -40.390512804739792 -31.774341966582288 7.1794990097501206 #
coedge $-1 $720 $708 $707 $738 reversed $697 $-1 #
edge $-1 $725 -54.226508377330852 $710 54.226508377330852 $737 $753 forward 7 unknown #
coedge $-1 $708 $719 $743 $754 forward $697 $-1 #
vertex $-1 $709 $755 #
straight-curve $-1 -54.226508377330852 -36.129546889900631 0 0 0 -1 I I #
point $-1 -54.226508377330852 -36.129546889900631 -11.725260219953102 #
coedge $-1 $715 $713 $739 $754 reversed $699 $-1 #
straight-curve $-1 -54.226508377330852 -27.310935096901943 15.694945824456973 0 0.77714595512881146 0.62932039886446345 I I #
point $-1 -28.554517232148733 -32.213088461451747 11.725260219953102 #
point $-1 -28.554517232148733 -36.129546889900631 11.725260219953102 #
straight-curve $-1 54.226508377330852 -36.129546889900631 0 0 0 -1 I I #
point $-1 54.226508377330852 -36.129546889900631 -11.725260219953102 #
vertex $-1 $754 $756 #
straight-curve $-1 -28.554517232148733 -36.12954688990061 8.5537746527162426 0 -0.77714595512881146 -0.62932039886446345 I I #
straight-curve $-1 -28.554517232148733 -36.129546889900631 46.418798972559408 0 0 -1 I I #
point $-1 -41.390512804739792 -31.145021567717823 6.4023530546213081 #
straight-curve $-1 0 -36.129546889900631 -11.725260219953102 -1 0 0 I I #
edge $-1 $749 7.8592608297788367 $740 33.531251974960952 $739 $757 forward 7 unknown #
point $-1 -54.226508377330852 -36.129546889900631 8.5537746527162248 #
point $-1 -28.554517232148733 -36.129546889900631 8.5537746527162248 #
straight-curve $-1 -20.695256402369896 -36.129546889900631 8.5537746527162266 -1 0 0 I I #
End-of-ACIS-data 