500 0 7 0           
7 Unknown 11 ACIS 5.0 NT 24 Thu Mar 25 21:15:56 1999 
-1 9.9999999999999995e-007 1e-010 
body $-1 $7 $-1 $8 #
body $-1 $9 $-1 $10 #
body $-1 $11 $-1 $12 #
body $-1 $13 $-1 $14 #
body $-1 $15 $-1 $16 #
body $-1 $17 $-1 $18 #
body $-1 $19 $-1 $20 #
lump $-1 $-1 $21 $0 #
transform $-1 1 0 0 0 1 0 0 0 1 72.420422986541325 37.952483274034556 8.2917031544590163 1 rotate no_reflect no_shear #
lump $-1 $-1 $22 $1 #
transform $-1 1 0 0 0 1 0 0 0 1 72.420422986541325 37.952483274034556 8.2917031544590163 1 rotate no_reflect no_shear #
lump $-1 $-1 $23 $2 #
transform $-1 1 0 0 0 1 0 0 0 1 72.420422986541325 37.952483274034556 8.2917031544590163 1 rotate no_reflect no_shear #
lump $-1 $-1 $24 $3 #
transform $-1 1 0 0 0 1 0 0 0 1 72.420422986541325 37.952483274034556 8.2917031544590163 1 rotate no_reflect no_shear #
lump $-1 $-1 $25 $4 #
transform $-1 1 0 0 0 1 0 0 0 1 72.420422986541325 37.952483274034556 8.2917031544590163 1 rotate no_reflect no_shear #
lump $-1 $-1 $26 $5 #
transform $-1 1 0 0 0 1 0 0 0 1 72.420422986541325 37.952483274034556 8.2917031544590163 1 rotate no_reflect no_shear #
lump $-1 $-1 $27 $6 #
transform $-1 1 0 0 0 1 0 0 0 1 72.420422986541325 37.952483274034556 8.2917031544590163 1 rotate no_reflect no_shear #
shell $-1 $-1 $-1 $28 $-1 $7 #
shell $-1 $-1 $-1 $29 $-1 $9 #
shell $-1 $-1 $-1 $30 $-1 $11 #
shell $-1 $-1 $-1 $31 $-1 $13 #
shell $-1 $-1 $-1 $32 $-1 $15 #
shell $-1 $-1 $-1 $33 $-1 $17 #
shell $-1 $-1 $-1 $34 $-1 $19 #
face $-1 $35 $36 $21 $-1 $37 forward single #
face $-1 $38 $39 $22 $-1 $40 forward single #
face $-1 $41 $42 $23 $-1 $43 reversed single #
face $-1 $44 $45 $24 $-1 $46 forward single #
face $-1 $47 $48 $25 $-1 $49 forward single #
face $-1 $50 $51 $26 $-1 $52 reversed single #
face $-1 $53 $54 $27 $-1 $55 forward single #
face $-1 $56 $57 $21 $-1 $58 reversed single #
loop $-1 $-1 $59 $28 #
plane-surface $-1 0 0 8.2917031544590163 0 0 1 1 0 0 forward_v I I I I #
face $-1 $60 $61 $22 $-1 $62 reversed single #
loop $-1 $-1 $63 $29 #
plane-surface $-1 -69.315729654186256 0 1.3440300272372965 0 0 1 1 0 0 forward_v I I I I #
face $-1 $64 $65 $23 $-1 $66 reversed single #
loop $-1 $-1 $67 $30 #
plane-surface $-1 -13.242783282098209 118.08543218931263 146.7294099878093 1 0 0 0 -0.83867057594974714 -0.54463902268945019 forward_v I I I I #
face $-1 $68 $69 $24 $-1 $70 forward single #
loop $-1 $71 $72 $31 #
cone-surface $-1 -7.4166948008425635 35.89772882079361 5.7696991960461883 0 -0.83867057594974714 -0.54463902268945019 1 0 0 1 I I 0 1 1 forward I I I I #
face $-1 $73 $74 $25 $-1 $75 forward single #
loop $-1 $76 $77 $32 #
cone-surface $-1 1.3224379210409012 35.89772882079361 5.7696991960461883 0 -0.83867057594974714 -0.54463902268945019 1 0 0 1 I I 0 1 1 forward I I I I #
face $-1 $78 $79 $26 $-1 $80 reversed single #
loop $-1 $-1 $81 $33 #
plane-surface $-1 -35.278201810240141 -156.59915952754275 86.122280793737005 -1 0 0 0 -0.81915205242281985 0.57357642473473569 forward_v I I I I #
face $-1 $82 $83 $27 $-1 $84 forward single #
loop $-1 $85 $86 $34 #
cone-surface $-1 -50.744619066035668 -34.8761226721791 4.8004617749990395 0 0.81915205242281985 -0.57357642473473569 1 0 0 1 I I 0 1 1 forward I I I I #
face $-1 $87 $88 $21 $-1 $89 reversed single #
loop $-1 $-1 $90 $35 #
plane-surface $-1 0 0 -8.2917031544590163 0 0 1 1 0 0 forward_v I I I I #
coedge $-1 $91 $92 $93 $94 forward $36 $-1 #
face $-1 $95 $96 $22 $-1 $97 reversed single #
loop $-1 $-1 $98 $38 #
plane-surface $-1 -69.315729654186256 0 -2.4806246502468929 0 0 1 1 0 0 forward_v I I I I #
coedge $-1 $99 $100 $101 $102 forward $39 $-1 #
face $-1 $103 $104 $23 $-1 $105 reversed single #
loop $-1 $-1 $106 $41 #
plane-surface $-1 -3.0471284399008312 -3.3883235239812137 67.843433191516382 0 0.83867057594974714 0.54463902268945019 1 0 0 forward_v I I I I #
coedge $-1 $107 $108 $109 $110 reversed $42 $-1 #
face $-1 $-1 $111 $24 $-1 $112 forward single #
loop $-1 $113 $114 $44 #
cone-surface $-1 -7.4166948008425635 34.75737026368234 5.0291417139176513 0 -0.83867057594974714 -0.54463902268945019 0.5 0 0 1 I I -0.70710678118654746 0.70710678118654746 0.5 forward I I I I #
loop $-1 $-1 $115 $31 #
coedge $-1 $72 $72 $116 $117 reversed $45 $-1 #
face $-1 $-1 $118 $25 $-1 $119 forward single #
loop $-1 $120 $121 $47 #
cone-surface $-1 1.3224379210409012 34.75737026368234 5.0291417139176513 0 -0.83867057594974714 -0.54463902268945019 0.5 0 0 1 I I -0.70710678118654746 0.70710678118654746 0.5 forward I I I I #
loop $-1 $-1 $122 $32 #
coedge $-1 $77 $77 $123 $124 reversed $48 $-1 #
face $-1 $125 $126 $26 $-1 $127 reversed single #
loop $-1 $-1 $128 $50 #
plane-surface $-1 -50.744619066035668 -37.952483274034577 3.044986204941722 0 -0.81915205242281985 0.57357642473473569 1 0 0 forward_v I I I I #
coedge $-1 $129 $130 $131 $132 reversed $51 $-1 #
face $-1 $-1 $133 $27 $-1 $134 forward single #
loop $-1 $135 $136 $53 #
cone-surface $-1 -50.744619066035668 -33.227081368123415 3.6457906579303501 0 0.81915205242281985 -0.57357642473473569 0.5 0 0 1 I I -0.70710678118654724 0.70710678118654791 0.5 forward I I I I #
loop $-1 $-1 $137 $34 #
coedge $-1 $86 $86 $138 $139 reversed $54 $-1 #
face $-1 $140 $141 $21 $-1 $142 reversed single #
loop $-1 $-1 $143 $56 #
plane-surface $-1 0 -37.952483274034556 0 0 1 0 0 0 1 forward_v I I I I #
coedge $-1 $144 $145 $146 $147 forward $57 $-1 #
coedge $-1 $148 $59 $149 $150 forward $36 $-1 #
coedge $-1 $59 $148 $151 $152 forward $36 $-1 #
coedge $-1 $153 $154 $59 $94 reversed $155 $-1 #
edge $-1 $156 -37.952483274034556 $157 37.952483274034556 $93 $158 forward 7 unknown #
face $-1 $159 $160 $22 $-1 $161 reversed single #
loop $-1 $-1 $162 $60 #
plane-surface $-1 -66.211036321831187 0 -0.56829731150479823 -1 0 0 0 0 1 forward_v I I I I #
coedge $-1 $163 $164 $165 $166 forward $61 $-1 #
coedge $-1 $167 $63 $168 $169 reversed $39 $-1 #
coedge $-1 $63 $167 $170 $171 reversed $39 $-1 #
coedge $-1 $162 $172 $63 $102 reversed $96 $-1 #
edge $-1 $173 -37.952483274034556 $174 37.952483274034556 $101 $175 forward 7 unknown #
face $-1 $176 $177 $23 $-1 $178 forward single #
loop $-1 $-1 $179 $64 #
plane-surface $-1 7.1485264022965467 118.08543218931263 146.7294099878093 -1 0 0 0 0.83867057594974714 0.54463902268945019 forward_v I I I I #
coedge $-1 $180 $181 $182 $183 reversed $65 $-1 #
coedge $-1 $108 $67 $184 $185 reversed $42 $-1 #
coedge $-1 $67 $107 $180 $186 reversed $42 $-1 #
coedge $-1 $182 $187 $67 $110 forward $177 $-1 #
edge $-1 $188 21.090232820621758 $189 23.757695188830866 $109 $190 forward 7 unknown #
loop $-1 $-1 $116 $68 #
plane-surface $-1 -3.0471284399008312 -3.3883235239812137 67.843433191516382 0 0.83867057594974714 0.54463902268945019 1 0 0 forward_v I I I I #
loop $-1 $-1 $191 $44 #
coedge $-1 $114 $114 $115 $192 reversed $69 $-1 #
coedge $-1 $115 $115 $114 $192 forward $71 $-1 #
coedge $-1 $116 $116 $72 $117 forward $111 $-1 #
edge $-1 $193 4.0153404896891827e-015 $193 6.2831853071796049 $116 $194 forward 7 unknown #
loop $-1 $-1 $123 $73 #
plane-surface $-1 -3.0471284399008312 -3.3883235239812137 67.843433191516382 0 0.83867057594974714 0.54463902268945019 1 0 0 forward_v I I I I #
loop $-1 $-1 $195 $47 #
coedge $-1 $121 $121 $122 $196 reversed $74 $-1 #
coedge $-1 $122 $122 $121 $196 forward $76 $-1 #
coedge $-1 $123 $123 $77 $124 forward $118 $-1 #
edge $-1 $197 4.0153404896891827e-015 $197 6.2831853071796049 $123 $198 forward 7 unknown #
face $-1 $199 $200 $26 $-1 $201 reversed single #
loop $-1 $-1 $202 $78 #
plane-surface $-1 -66.211036321831187 -156.59915952754275 86.122280793737005 1 0 0 0 0.81915205242281985 -0.57357642473473569 forward_v I I I I #
coedge $-1 $203 $204 $205 $206 reversed $79 $-1 #
coedge $-1 $130 $81 $207 $208 reversed $51 $-1 #
coedge $-1 $81 $129 $203 $209 reversed $51 $-1 #
coedge $-1 $205 $210 $81 $132 forward $211 $-1 #
edge $-1 $212 40.347096489736821 $213 44.020887137759146 $131 $214 forward 7 unknown #
loop $-1 $-1 $138 $82 #
plane-surface $-1 -50.744619066035668 -37.952483274034577 3.044986204941722 0 -0.81915205242281985 0.57357642473473569 1 0 0 forward_v I I I I #
loop $-1 $-1 $215 $53 #
coedge $-1 $136 $136 $137 $216 reversed $83 $-1 #
coedge $-1 $137 $137 $136 $216 forward $85 $-1 #
coedge $-1 $138 $138 $86 $139 forward $133 $-1 #
edge $-1 $217 -1.4188712209975554e-016 $217 6.2831853071796004 $138 $218 forward 7 unknown #
face $-1 $219 $220 $21 $-1 $221 reversed single #
loop $-1 $-1 $222 $87 #
plane-surface $-1 -72.420422986541325 0 0 1 0 0 0 0 -1 forward_v I I I I #
coedge $-1 $223 $151 $224 $225 forward $88 $-1 #
coedge $-1 $226 $90 $223 $227 forward $57 $-1 #
coedge $-1 $90 $226 $228 $229 forward $57 $-1 #
coedge $-1 $154 $153 $90 $147 reversed $155 $-1 #
edge $-1 $230 -37.952483274034556 $231 37.952483274034556 $146 $232 forward 7 unknown #
coedge $-1 $92 $91 $233 $234 forward $36 $-1 #
coedge $-1 $235 $236 $91 $150 reversed $220 $-1 #
edge $-1 $157 -72.420422986541325 $237 72.420422986541325 $149 $238 forward 7 unknown #
coedge $-1 $143 $239 $92 $152 reversed $88 $-1 #
edge $-1 $240 -72.420422986541325 $156 72.420422986541325 $151 $241 forward 7 unknown #
coedge $-1 $146 $93 $239 $242 forward $155 $-1 #
coedge $-1 $93 $146 $235 $243 reversed $155 $-1 #
loop $-1 $-1 $153 $219 #
vertex $-1 $94 $244 #
vertex $-1 $94 $245 #
straight-curve $-1 72.420422986541325 0 8.2917031544590163 0 1 0 I I #
face $-1 $246 $247 $22 $-1 $248 reversed single #
loop $-1 $-1 $249 $95 #
plane-surface $-1 0 -37.952483274034556 0 0 1 0 0 0 1 forward_v I I I I #
coedge $-1 $165 $101 $250 $251 reversed $96 $-1 #
coedge $-1 $252 $98 $249 $253 reversed $61 $-1 #
coedge $-1 $98 $252 $254 $255 reversed $61 $-1 #
coedge $-1 $172 $162 $98 $166 reversed $96 $-1 #
edge $-1 $256 -37.952483274034556 $257 37.952483274034556 $165 $258 forward 7 unknown #
coedge $-1 $100 $99 $259 $260 reversed $39 $-1 #
coedge $-1 $261 $262 $99 $169 forward $263 $-1 #
edge $-1 $264 -37.762558159448197 $174 -31.553171494738059 $168 $265 forward 7 unknown #
coedge $-1 $266 $250 $100 $171 forward $160 $-1 #
edge $-1 $173 31.553171494738059 $267 37.762558159448197 $170 $268 forward 7 unknown #
coedge $-1 $101 $165 $261 $269 reversed $96 $-1 #
vertex $-1 $171 $270 #
vertex $-1 $169 $271 #
straight-curve $-1 -66.211036321831187 0 1.3440300272372965 0 1 0 I I #
face $-1 $-1 $272 $23 $-1 $273 reversed single #
loop $-1 $-1 $109 $103 #
plane-surface $-1 0 0 8.2917031544590163 0 0 1 1 0 0 forward_v I I I I #
coedge $-1 $274 $275 $276 $277 reversed $104 $-1 #
coedge $-1 $278 $106 $108 $186 forward $65 $-1 #
coedge $-1 $106 $278 $274 $279 forward $65 $-1 #
coedge $-1 $276 $109 $106 $183 forward $177 $-1 #
edge $-1 $189 -11.719219062147793 $280 8.6720906222469623 $182 $281 forward 7 unknown #
coedge $-1 $282 $283 $107 $185 forward $272 $-1 #
edge $-1 $284 -69.180533814703679 $188 -65.073001839445638 $184 $285 forward 7 unknown #
edge $-1 $189 71.007296243365147 $284 75.904966548069112 $108 $286 forward 7 unknown #
coedge $-1 $109 $276 $282 $287 forward $177 $-1 #
vertex $-1 $185 $288 #
vertex $-1 $110 $289 #
straight-curve $-1 -13.242783282098209 59.042716094656313 8.2917031544590145 0 -1 0 I I #
coedge $-1 $191 $191 $-1 $290 reversed $113 $-1 #
edge $-1 $291 0 $291 6.2831853071796004 $114 $292 forward 7 unknown #
vertex $-1 $117 $293 #
ellipse-curve $-1 -7.4166948008425635 36.618752089929998 6.2379371668299948 0 0.83867057594974714 0.54463902268945019 1 0 0 1 I I #
coedge $-1 $195 $195 $-1 $294 reversed $120 $-1 #
edge $-1 $295 0 $295 6.2831853071796004 $121 $296 forward 7 unknown #
vertex $-1 $124 $297 #
ellipse-curve $-1 1.3224379210409012 36.618752089929998 6.2379371668299948 0 0.83867057594974714 0.54463902268945019 1 0 0 1 I I #
face $-1 $-1 $211 $26 $-1 $298 forward single #
loop $-1 $-1 $299 $125 #
plane-surface $-1 0 -37.952483274034556 0 0 1 0 0 0 1 forward_v I I I I #
coedge $-1 $300 $301 $302 $303 reversed $126 $-1 #
coedge $-1 $304 $128 $130 $209 forward $79 $-1 #
coedge $-1 $128 $304 $300 $305 forward $79 $-1 #
coedge $-1 $302 $131 $128 $206 forward $211 $-1 #
edge $-1 $213 9.905892277222307 $306 40.838726788813354 $205 $307 forward 7 unknown #
coedge $-1 $308 $309 $129 $208 forward $200 $-1 #
edge $-1 $310 -40.016154191926752 $212 -34.769437242409488 $207 $311 forward 7 unknown #
edge $-1 $213 -6.4050586627952537 $310 -3.7327101411773479e-014 $130 $312 forward 7 unknown #
coedge $-1 $131 $302 $308 $313 forward $211 $-1 #
loop $-1 $-1 $302 $199 #
vertex $-1 $208 $314 #
vertex $-1 $132 $315 #
straight-curve $-1 -35.278201810240141 -78.299579763771376 8.2917031544590145 0 1 0 I I #
coedge $-1 $215 $215 $-1 $316 reversed $135 $-1 #
edge $-1 $317 0 $317 6.2831853071796004 $136 $318 forward 7 unknown #
vertex $-1 $139 $319 #
ellipse-curve $-1 -50.744619066035668 -36.115587950023397 5.6683446797003754 0 -0.81915205242281985 0.57357642473473569 1 0 0 1 I I #
face $-1 $-1 $155 $21 $-1 $320 reversed single #
loop $-1 $-1 $235 $140 #
plane-surface $-1 0 37.952483274034556 0 0 -1 0 0 0 -1 forward_v I I I I #
coedge $-1 $321 $233 $236 $322 forward $141 $-1 #
coedge $-1 $239 $143 $144 $227 reversed $88 $-1 #
coedge $-1 $233 $321 $143 $225 reversed $141 $-1 #
edge $-1 $240 -8.2917031544590163 $323 8.2917031544590163 $224 $324 forward 7 unknown #
coedge $-1 $145 $144 $321 $325 forward $57 $-1 #
edge $-1 $231 -72.420422986541325 $323 72.420422986541325 $223 $326 forward 7 unknown #
coedge $-1 $236 $235 $145 $229 reversed $220 $-1 #
edge $-1 $327 -72.420422986541325 $230 72.420422986541325 $228 $328 forward 7 unknown #
vertex $-1 $147 $329 #
vertex $-1 $242 $330 #
straight-curve $-1 72.420422986541325 0 -8.2917031544590163 0 -1 0 I I #
coedge $-1 $222 $224 $148 $234 reversed $141 $-1 #
edge $-1 $237 -37.952483274034556 $240 37.952483274034556 $233 $331 forward 7 unknown #
coedge $-1 $228 $149 $154 $243 forward $220 $-1 #
coedge $-1 $149 $228 $222 $322 reversed $220 $-1 #
vertex $-1 $150 $332 #
straight-curve $-1 0 37.952483274034556 8.2917031544590163 -1 0 0 I I #
coedge $-1 $151 $223 $153 $242 reversed $88 $-1 #
vertex $-1 $234 $333 #
straight-curve $-1 0 -37.952483274034556 8.2917031544590163 1 0 0 I I #
edge $-1 $156 -8.2917031544590163 $231 8.2917031544590163 $153 $334 forward 7 unknown #
edge $-1 $157 -8.2917031544590163 $230 8.2917031544590163 $154 $335 forward 7 unknown #
point $-1 72.420422986541325 -37.952483274034556 8.2917031544590163 #
point $-1 72.420422986541325 37.952483274034556 8.2917031544590163 #
face $-1 $-1 $263 $22 $-1 $336 reversed single #
loop $-1 $-1 $337 $159 #
plane-surface $-1 -72.420422986541325 0 0 1 0 0 0 0 -1 forward_v I I I I #
coedge $-1 $250 $266 $163 $253 forward $160 $-1 #
coedge $-1 $170 $249 $162 $251 forward $160 $-1 #
edge $-1 $257 -2.1964759944944938 $173 1.6281786829896956 $250 $338 forward 7 unknown #
coedge $-1 $164 $163 $337 $339 reversed $61 $-1 #
edge $-1 $340 -37.762558159448197 $257 -31.553171494738059 $249 $341 forward 7 unknown #
coedge $-1 $262 $261 $164 $255 forward $263 $-1 #
edge $-1 $256 31.553171494738059 $342 37.762558159448197 $254 $343 forward 7 unknown #
vertex $-1 $255 $344 #
vertex $-1 $253 $345 #
straight-curve $-1 -66.211036321831187 0 -2.4806246502468929 0 -1 0 I I #
coedge $-1 $346 $347 $167 $260 forward $247 $-1 #
edge $-1 $267 -37.952483274034556 $264 37.952483274034556 $259 $348 forward 7 unknown #
coedge $-1 $254 $168 $172 $269 forward $263 $-1 #
coedge $-1 $168 $254 $346 $349 reversed $263 $-1 #
loop $-1 $-1 $254 $246 #
vertex $-1 $349 $350 #
straight-curve $-1 -34.657864827093128 37.952483274034556 1.3440300272372965 1 0 0 I I #
coedge $-1 $249 $170 $347 $351 forward $160 $-1 #
vertex $-1 $351 $352 #
straight-curve $-1 -34.657864827093128 -37.952483274034556 1.3440300272372965 -1 0 0 I I #
edge $-1 $174 -1.6281786829896956 $256 2.1964759944944938 $261 $353 forward 7 unknown #
point $-1 -66.211036321831187 -37.952483274034556 1.3440300272372965 #
point $-1 -66.211036321831187 37.952483274034556 1.3440300272372965 #
loop $-1 $-1 $184 $176 #
plane-surface $-1 0 37.952483274034556 0 0 -1 0 0 0 -1 forward_v I I I I #
coedge $-1 $275 $179 $181 $279 reversed $104 $-1 #
coedge $-1 $179 $274 $354 $355 reversed $104 $-1 #
coedge $-1 $187 $182 $179 $277 forward $177 $-1 #
edge $-1 $280 -23.757695188830866 $356 -21.090232820621758 $276 $357 forward 7 unknown #
coedge $-1 $181 $180 $283 $358 reversed $65 $-1 #
edge $-1 $359 -75.904966548069112 $280 -71.007296243365147 $274 $360 forward 7 unknown #
vertex $-1 $183 $361 #
straight-curve $-1 -1.5235642199504156 35.285020905825448 8.2917031544590145 1 0 0 I I #
coedge $-1 $354 $184 $187 $287 reversed $272 $-1 #
coedge $-1 $184 $354 $278 $358 forward $272 $-1 #
vertex $-1 $185 $362 #
straight-curve $-1 -13.242783282098209 37.952483274034556 73.364704993904652 0 0 1 I I #
straight-curve $-1 -13.242783282098209 -3.3883235239812137 67.843433191516382 0 0.54463902268945019 -0.83867057594974714 I I #
edge $-1 $356 -7.1485264022965467 $188 13.242783282098209 $282 $363 forward 7 unknown #
point $-1 -13.242783282098209 37.952483274034556 8.2917031544590163 #
point $-1 -13.242783282098209 35.285020905825448 8.2917031544590145 #
edge $-1 $364 1 $364 0 $191 $-1 forward 7 unknown #
vertex $-1 $192 $365 #
ellipse-curve $-1 -7.4166948008425635 35.176705551657214 5.3014612252623765 0 0.83867057594974714 0.54463902268945019 1 0 0 1 I I #
point $-1 -6.4166948008425635 36.618752089930013 6.2379371668299992 #
edge $-1 $366 1 $366 0 $195 $-1 forward 7 unknown #
vertex $-1 $196 $367 #
ellipse-curve $-1 1.3224379210409012 35.176705551657214 5.3014612252623765 0 0.83867057594974714 0.54463902268945019 1 0 0 1 I I #
point $-1 2.3224379210409012 36.618752089930013 6.2379371668299992 #
plane-surface $-1 0 0 8.2917031544590163 0 0 1 1 0 0 forward_v I I I I #
coedge $-1 $309 $308 $301 $368 forward $200 $-1 #
coedge $-1 $301 $202 $204 $305 reversed $126 $-1 #
coedge $-1 $202 $300 $299 $368 reversed $126 $-1 #
coedge $-1 $210 $205 $202 $303 forward $211 $-1 #
edge $-1 $306 -44.020887137759146 $369 -40.347096489736821 $302 $370 forward 7 unknown #
coedge $-1 $204 $203 $309 $371 reversed $79 $-1 #
edge $-1 $372 3.7327101411773479e-014 $306 6.4050586627952537 $300 $373 forward 7 unknown #
vertex $-1 $206 $374 #
straight-curve $-1 -25.372309533017834 -34.27869262601223 8.2917031544590163 -1 0 0 I I #
coedge $-1 $299 $207 $210 $313 reversed $200 $-1 #
coedge $-1 $207 $299 $304 $371 forward $200 $-1 #
vertex $-1 $208 $375 #
straight-curve $-1 -35.278201810240141 -37.952483274034556 43.061140396868502 0 0 1 I I #
straight-curve $-1 -35.278201810240141 -37.952483274034577 3.044986204941722 0 -0.57357642473473569 -0.81915205242281985 I I #
edge $-1 $369 -66.211036321831187 $212 -35.278201810240141 $308 $376 forward 7 unknown #
point $-1 -35.278201810240141 -37.952483274034556 8.2917031544590163 #
point $-1 -35.278201810240141 -34.27869262601223 8.2917031544590163 #
edge $-1 $377 1 $377 0 $215 $-1 forward 7 unknown #
vertex $-1 $216 $378 #
ellipse-curve $-1 -50.744619066035668 -33.636657394334826 3.9325788702977182 0 -0.81915205242281985 0.57357642473473569 1 0 0 1 I I #
point $-1 -49.744619066035668 -36.115587950023375 5.6683446797003603 #
plane-surface $-1 72.420422986541325 0 0 -1 0 0 0 0 1 forward_v I I I I #
coedge $-1 $224 $222 $226 $325 reversed $141 $-1 #
edge $-1 $237 -8.2917031544590163 $327 8.2917031544590163 $236 $379 forward 7 unknown #
vertex $-1 $325 $380 #
straight-curve $-1 -72.420422986541325 -37.952483274034556 0 0 0 -1 I I #
edge $-1 $323 -37.952483274034556 $327 37.952483274034556 $321 $381 forward 7 unknown #
straight-curve $-1 0 -37.952483274034556 -8.2917031544590163 -1 0 0 I I #
vertex $-1 $229 $382 #
straight-curve $-1 0 37.952483274034556 -8.2917031544590163 1 0 0 I I #
point $-1 72.420422986541325 37.952483274034556 -8.2917031544590163 #
point $-1 72.420422986541325 -37.952483274034556 -8.2917031544590163 #
straight-curve $-1 -72.420422986541325 0 8.2917031544590163 0 -1 0 I I #
point $-1 -72.420422986541325 37.952483274034556 8.2917031544590163 #
point $-1 -72.420422986541325 -37.952483274034556 8.2917031544590163 #
straight-curve $-1 72.420422986541325 -37.952483274034556 0 0 0 -1 I I #
straight-curve $-1 72.420422986541325 37.952483274034556 0 0 0 -1 I I #
plane-surface $-1 0 37.952483274034556 0 0 -1 0 0 0 -1 forward_v I I I I #
coedge $-1 $347 $346 $252 $339 forward $247 $-1 #
straight-curve $-1 -66.211036321831187 -37.952483274034556 -0.28414865575239912 0 0 1 I I #
edge $-1 $342 -37.952483274034556 $340 37.952483274034556 $337 $383 forward 7 unknown #
vertex $-1 $253 $384 #
straight-curve $-1 -34.657864827093128 -37.952483274034556 -2.4806246502468929 1 0 0 I I #
vertex $-1 $255 $385 #
straight-curve $-1 -34.657864827093128 37.952483274034556 -2.4806246502468929 -1 0 0 I I #
point $-1 -66.211036321831187 37.952483274034556 -2.4806246502468929 #
point $-1 -66.211036321831187 -37.952483274034556 -2.4806246502468929 #
coedge $-1 $337 $259 $262 $349 forward $247 $-1 #
coedge $-1 $259 $337 $266 $351 reversed $247 $-1 #
straight-curve $-1 -72.420422986541325 0 1.3440300272372965 0 1 0 I I #
edge $-1 $264 -1.3440300272372965 $342 2.4806246502468929 $262 $386 forward 7 unknown #
point $-1 -72.420422986541325 37.952483274034556 1.3440300272372965 #
edge $-1 $267 -1.3440300272372965 $340 2.4806246502468929 $347 $387 forward 7 unknown #
point $-1 -72.420422986541325 -37.952483274034556 1.3440300272372965 #
straight-curve $-1 -66.211036321831187 37.952483274034556 -0.28414865575239912 0 0 -1 I I #
coedge $-1 $283 $282 $275 $355 forward $272 $-1 #
edge $-1 $356 65.073001839445638 $359 69.180533814703679 $354 $388 forward 7 unknown #
vertex $-1 $287 $389 #
straight-curve $-1 7.1485264022965467 59.042716094656313 8.2917031544590145 0 1 0 I I #
edge $-1 $359 -8.6720906222469623 $284 11.719219062147793 $283 $390 forward 7 unknown #
vertex $-1 $358 $391 #
straight-curve $-1 7.1485264022965467 -3.3883235239812137 67.843433191516382 0 -0.54463902268945019 0.83867057594974714 I I #
point $-1 7.1485264022965467 35.285020905825448 8.2917031544590145 #
point $-1 -13.242783282098209 37.952483274034556 4.1841711792009733 #
straight-curve $-1 0 37.952483274034556 8.2917031544590163 -1 0 0 I I #
vertex $-1 $290 $392 #
point $-1 -6.4166948008425635 35.176705551657214 5.3014612252623765 #
vertex $-1 $294 $393 #
point $-1 2.3224379210409012 35.176705551657214 5.3014612252623765 #
edge $-1 $369 34.769437242409488 $372 40.016154191926752 $299 $394 forward 7 unknown #
vertex $-1 $313 $395 #
straight-curve $-1 -66.211036321831187 -78.299579763771376 8.2917031544590145 0 -1 0 I I #
edge $-1 $372 -40.838726788813354 $310 -9.905892277222307 $309 $396 forward 7 unknown #
vertex $-1 $371 $397 #
straight-curve $-1 -66.211036321831187 -37.952483274034577 3.044986204941722 0 0.57357642473473569 0.81915205242281985 I I #
point $-1 -66.211036321831187 -34.27869262601223 8.2917031544590163 #
point $-1 -35.278201810240141 -37.952483274034556 3.0449862049417526 #
straight-curve $-1 0 -37.952483274034556 8.2917031544590163 1 0 0 I I #
vertex $-1 $316 $398 #
point $-1 -49.744619066035668 -33.636657394334826 3.9325788702977182 #
straight-curve $-1 -72.420422986541325 37.952483274034556 0 0 0 -1 I I #
point $-1 -72.420422986541325 -37.952483274034556 -8.2917031544590163 #
straight-curve $-1 -72.420422986541325 0 -8.2917031544590163 0 1 0 I I #
point $-1 -72.420422986541325 37.952483274034556 -8.2917031544590163 #
straight-curve $-1 -72.420422986541325 0 -2.4806246502468929 0 -1 0 I I #
point $-1 -72.420422986541325 -37.952483274034556 -2.4806246502468929 #
point $-1 -72.420422986541325 37.952483274034556 -2.4806246502468929 #
straight-curve $-1 -72.420422986541325 37.952483274034556 0 0 0 -1 I I #
straight-curve $-1 -72.420422986541325 -37.952483274034556 0 0 0 -1 I I #
straight-curve $-1 7.1485264022965467 37.952483274034556 73.364704993904652 0 0 -1 I I #
point $-1 7.1485264022965467 37.952483274034556 8.2917031544590163 #
straight-curve $-1 -1.5235642199504156 37.952483274034556 4.1841711792009697 -1 0 0 I I #
point $-1 7.1485264022965467 37.952483274034556 4.1841711792009733 #
point $-1 -7.4166948008425635 34.338034975707465 4.7568222025729261 #
point $-1 1.3224379210409012 34.338034975707465 4.7568222025729261 #
straight-curve $-1 -66.211036321831187 -37.952483274034556 43.061140396868502 0 0 -1 I I #
point $-1 -66.211036321831187 -37.952483274034556 8.2917031544590163 #
straight-curve $-1 -25.372309533017834 -37.952483274034556 3.0449862049417469 1 0 0 I I #
point $-1 -66.211036321831187 -37.952483274034556 3.0449862049417526 #
point $-1 -50.744619066035668 -32.817505341912003 3.3590024455629819 #
End-of-ACIS-data 