500 0 5 0           
7 Unknown 11 ACIS 5.0 NT 24 Fri Mar 26 19:10:37 1999 
-1 9.9999999999999995e-007 1e-010 
body $-1 $5 $-1 $6 #
body $-1 $7 $-1 $8 #
body $-1 $9 $-1 $10 #
body $-1 $11 $-1 $12 #
body $-1 $13 $-1 $14 #
lump $-1 $-1 $15 $0 #
transform $-1 1 0 0 0 1 0 0 0 1 67.41416669209876 40.547459987728196 14.336949268221691 1 rotate no_reflect no_shear #
lump $-1 $-1 $16 $1 #
transform $-1 1 0 0 0 1 0 0 0 1 67.41416669209876 40.547459987728196 14.336949268221691 1 rotate no_reflect no_shear #
lump $-1 $-1 $17 $2 #
transform $-1 1 0 0 0 1 0 0 0 1 67.41416669209876 40.547459987728196 14.336949268221691 1 rotate no_reflect no_shear #
lump $-1 $-1 $18 $3 #
transform $-1 1 0 0 0 1 0 0 0 1 67.41416669209876 40.547459987728196 14.336949268221691 1 rotate no_reflect no_shear #
lump $-1 $-1 $19 $4 #
transform $-1 1 0 0 0 1 0 0 0 1 67.41416669209876 40.547459987728196 14.336949268221691 1 rotate no_reflect no_shear #
shell $-1 $-1 $-1 $20 $-1 $5 #
shell $-1 $-1 $-1 $21 $-1 $7 #
shell $-1 $-1 $-1 $22 $-1 $9 #
shell $-1 $-1 $-1 $23 $-1 $11 #
shell $-1 $-1 $-1 $24 $-1 $13 #
face $-1 $25 $26 $15 $-1 $27 forward single #
face $-1 $28 $29 $16 $-1 $30 reversed single #
face $-1 $31 $32 $17 $-1 $33 reversed single #
face $-1 $34 $35 $18 $-1 $36 forward single #
face $-1 $37 $38 $19 $-1 $39 forward single #
face $-1 $40 $41 $15 $-1 $42 reversed single #
loop $-1 $-1 $43 $20 #
plane-surface $-1 0 0 14.336949268221691 0 0 1 1 0 0 forward_v I I I I #
face $-1 $44 $45 $16 $-1 $46 reversed single #
loop $-1 $-1 $47 $21 #
plane-surface $-1 -65.744111402878644 -27.892633425970111 0 0 -1 0 0 0 -1 forward_v I I I I #
face $-1 $48 $49 $17 $-1 $50 reversed single #
loop $-1 $-1 $51 $22 #
plane-surface $-1 -179.19192200118459 16.732374041790145 85.540762338914334 0 1 0 -0.82903758062907751 0 0.55919289150049634 forward_v I I I I #
face $-1 $52 $53 $18 $-1 $54 forward single #
loop $-1 $55 $56 $23 #
cone-surface $-1 -65.351451257143353 18.696756809207457 11.803439079114428 0.82903758062907751 0 -0.55919289150049634 0.27959644575024817 0 0.41451879031453875 1 I I 0 1 0.5 forward I I I I #
face $-1 $57 $58 $19 $-1 $59 forward single #
loop $-1 $60 $61 $24 #
cone-surface $-1 -65.351451257143353 21.643330960333422 11.803439079114428 0.82903758062907751 0 -0.55919289150049634 0.27959644575024817 0 0.41451879031453875 1 I I 0 1 0.5 forward I I I I #
face $-1 $62 $63 $15 $-1 $64 reversed single #
loop $-1 $-1 $65 $25 #
plane-surface $-1 0 0 -14.336949268221691 0 0 1 1 0 0 forward_v I I I I #
coedge $-1 $66 $67 $68 $69 forward $26 $-1 #
face $-1 $70 $71 $16 $-1 $72 forward single #
loop $-1 $-1 $73 $28 #
plane-surface $-1 -64.074056113658528 -34.220046706849153 0 -1 0 0 0 0 1 forward_v I I I I #
coedge $-1 $74 $75 $76 $77 forward $29 $-1 #
face $-1 $78 $79 $17 $-1 $80 reversed single #
loop $-1 $-1 $81 $31 #
plane-surface $-1 -67.414166692098803 20.170043884770443 10.14571673761202 -0.82903758062907751 0 0.55919289150049634 0.55919289150049634 0 0.82903758062907751 forward_v I I I I #
coedge $-1 $82 $83 $84 $85 reversed $32 $-1 #
face $-1 $-1 $86 $18 $-1 $87 forward single #
loop $-1 $88 $89 $34 #
cone-surface $-1 -64.494987401988013 18.696756809207457 11.225746932436877 0.82903758062907751 0 -0.55919289150049634 0.13979822287512408 0 0.20725939515726938 1 I I -0.70710678118654746 0.70710678118654746 0.25 forward I I I I #
loop $-1 $-1 $90 $23 #
coedge $-1 $56 $56 $91 $92 reversed $35 $-1 #
face $-1 $-1 $93 $19 $-1 $94 forward single #
loop $-1 $95 $96 $37 #
cone-surface $-1 -64.494987401988013 21.643330960333422 11.225746932436877 0.82903758062907751 0 -0.55919289150049634 0.13979822287512408 0 0.20725939515726938 1 I I -0.70710678118654746 0.70710678118654746 0.25 forward I I I I #
loop $-1 $-1 $97 $24 #
coedge $-1 $61 $61 $98 $99 reversed $38 $-1 #
face $-1 $100 $101 $15 $-1 $102 reversed single #
loop $-1 $-1 $103 $40 #
plane-surface $-1 0 -40.547459987728196 0 0 1 0 0 0 1 forward_v I I I I #
coedge $-1 $104 $105 $106 $107 forward $41 $-1 #
coedge $-1 $108 $43 $109 $110 forward $26 $-1 #
coedge $-1 $43 $108 $111 $112 forward $26 $-1 #
coedge $-1 $113 $114 $43 $69 reversed $115 $-1 #
edge $-1 $116 -40.547459987728196 $117 40.547459987728196 $68 $118 forward 7 unknown #
face $-1 $119 $120 $16 $-1 $121 reversed single #
loop $-1 $-1 $122 $44 #
plane-surface $-1 0 0 14.336949268221691 0 0 1 1 0 0 forward_v I I I I #
coedge $-1 $123 $124 $125 $126 reversed $45 $-1 #
coedge $-1 $127 $47 $128 $129 reversed $29 $-1 #
coedge $-1 $47 $127 $130 $131 reversed $29 $-1 #
coedge $-1 $124 $123 $47 $77 reversed $45 $-1 #
edge $-1 $132 -14.336949268221691 $133 14.336949268221691 $76 $134 forward 7 unknown #
face $-1 $135 $136 $17 $-1 $137 reversed single #
loop $-1 $-1 $138 $48 #
plane-surface $-1 -179.19192200118459 23.607713727750742 85.540762338914334 0 -1 0 0.82903758062907751 0 -0.55919289150049634 forward_v I I I I #
coedge $-1 $139 $140 $141 $142 reversed $49 $-1 #
coedge $-1 $83 $51 $143 $144 reversed $32 $-1 #
coedge $-1 $51 $82 $139 $145 reversed $32 $-1 #
coedge $-1 $141 $146 $51 $85 forward $147 $-1 #
edge $-1 $148 22.181794308493537 $149 25.008816258408174 $84 $150 forward 7 unknown #
loop $-1 $-1 $91 $52 #
plane-surface $-1 -67.414166692098803 20.170043884770443 10.14571673761202 -0.82903758062907751 0 0.55919289150049634 0.55919289150049634 0 0.82903758062907751 forward_v I I I I #
loop $-1 $-1 $151 $34 #
coedge $-1 $89 $89 $90 $152 reversed $53 $-1 #
coedge $-1 $90 $90 $89 $152 forward $55 $-1 #
coedge $-1 $91 $91 $56 $92 forward $86 $-1 #
edge $-1 $153 0 $153 6.2831853071796004 $91 $154 forward 7 unknown #
loop $-1 $-1 $98 $57 #
plane-surface $-1 -67.414166692098803 20.170043884770443 10.14571673761202 -0.82903758062907751 0 0.55919289150049634 0.55919289150049634 0 0.82903758062907751 forward_v I I I I #
loop $-1 $-1 $155 $37 #
coedge $-1 $96 $96 $97 $156 reversed $58 $-1 #
coedge $-1 $97 $97 $96 $156 forward $60 $-1 #
coedge $-1 $98 $98 $61 $99 forward $93 $-1 #
edge $-1 $157 0 $157 6.2831853071796004 $98 $158 forward 7 unknown #
face $-1 $159 $160 $15 $-1 $161 reversed single #
loop $-1 $-1 $162 $62 #
plane-surface $-1 -67.41416669209876 0 0 1 0 0 0 0 -1 forward_v I I I I #
coedge $-1 $163 $111 $164 $165 forward $63 $-1 #
coedge $-1 $166 $65 $163 $167 forward $41 $-1 #
coedge $-1 $65 $166 $168 $169 forward $41 $-1 #
coedge $-1 $114 $113 $65 $107 reversed $115 $-1 #
edge $-1 $170 -40.547459987728196 $171 40.547459987728196 $106 $172 forward 7 unknown #
coedge $-1 $67 $66 $173 $174 forward $26 $-1 #
coedge $-1 $175 $176 $66 $110 reversed $160 $-1 #
edge $-1 $117 -67.41416669209876 $177 67.41416669209876 $109 $178 forward 7 unknown #
coedge $-1 $103 $179 $67 $112 reversed $63 $-1 #
edge $-1 $180 -67.41416669209876 $116 67.41416669209876 $111 $181 forward 7 unknown #
coedge $-1 $106 $68 $179 $182 forward $115 $-1 #
coedge $-1 $68 $106 $175 $183 reversed $115 $-1 #
loop $-1 $-1 $113 $159 #
vertex $-1 $69 $184 #
vertex $-1 $69 $185 #
straight-curve $-1 67.41416669209876 0 14.336949268221691 0 1 0 I I #
face $-1 $186 $187 $16 $-1 $188 reversed single #
loop $-1 $-1 $189 $70 #
plane-surface $-1 -67.41416669209876 0 0 1 0 0 0 0 -1 forward_v I I I I #
coedge $-1 $130 $190 $124 $191 forward $71 $-1 #
coedge $-1 $76 $73 $192 $193 reversed $45 $-1 #
coedge $-1 $73 $76 $122 $191 reversed $45 $-1 #
coedge $-1 $194 $195 $73 $126 forward $196 $-1 #
edge $-1 $197 -14.336949268221691 $198 14.336949268221691 $125 $199 forward 7 unknown #
coedge $-1 $75 $74 $189 $200 reversed $29 $-1 #
coedge $-1 $192 $201 $74 $129 forward $187 $-1 #
edge $-1 $202 -34.542110990659438 $133 -31.202000412219206 $128 $203 forward 7 unknown #
coedge $-1 $204 $122 $75 $131 forward $71 $-1 #
edge $-1 $132 31.202000412219206 $205 34.542110990659438 $130 $206 forward 7 unknown #
vertex $-1 $131 $207 #
vertex $-1 $129 $208 #
straight-curve $-1 -64.074056113658528 -27.892633425970111 0 0 0 -1 I I #
face $-1 $-1 $147 $17 $-1 $209 forward single #
loop $-1 $-1 $210 $78 #
plane-surface $-1 -67.41416669209876 0 0 1 0 0 0 0 -1 forward_v I I I I #
coedge $-1 $211 $212 $213 $214 reversed $79 $-1 #
coedge $-1 $215 $81 $83 $145 forward $49 $-1 #
coedge $-1 $81 $215 $211 $216 forward $49 $-1 #
coedge $-1 $213 $84 $81 $142 forward $147 $-1 #
edge $-1 $149 6.6473520994049231 $217 13.52269178536552 $141 $218 forward 7 unknown #
coedge $-1 $219 $220 $82 $144 forward $136 $-1 #
edge $-1 $221 -32.624664431845083 $148 -28.433431901235476 $143 $222 forward 7 unknown #
edge $-1 $149 -5.0555398555386892 $221 -7.685582356959255e-014 $83 $223 forward 7 unknown #
coedge $-1 $84 $213 $219 $224 forward $147 $-1 #
loop $-1 $-1 $213 $135 #
vertex $-1 $144 $225 #
vertex $-1 $85 $226 #
straight-curve $-1 -89.595961000592297 16.732374041790145 14.336949268221694 1 0 0 I I #
coedge $-1 $151 $151 $-1 $227 reversed $88 $-1 #
edge $-1 $228 0 $228 6.2831853071796004 $89 $229 forward 7 unknown #
vertex $-1 $92 $230 #
ellipse-curve $-1 -66.000655717141456 18.696756809207457 12.241333002916875 -0.82903758062907751 0 0.55919289150049634 0.27959644575024817 0 0.41451879031453875 1 I I #
coedge $-1 $155 $155 $-1 $231 reversed $95 $-1 #
edge $-1 $232 0 $232 6.2831853071796004 $96 $233 forward 7 unknown #
vertex $-1 $99 $234 #
ellipse-curve $-1 -66.000655717141456 21.643330960333422 12.241333002916875 -0.82903758062907751 0 0.55919289150049634 0.27959644575024817 0 0.41451879031453875 1 I I #
face $-1 $-1 $115 $15 $-1 $235 reversed single #
loop $-1 $-1 $175 $100 #
plane-surface $-1 0 40.547459987728196 0 0 -1 0 0 0 -1 forward_v I I I I #
coedge $-1 $236 $173 $176 $237 forward $101 $-1 #
coedge $-1 $179 $103 $104 $167 reversed $63 $-1 #
coedge $-1 $173 $236 $103 $165 reversed $101 $-1 #
edge $-1 $180 -14.336949268221691 $238 14.336949268221691 $164 $239 forward 7 unknown #
coedge $-1 $105 $104 $236 $240 forward $41 $-1 #
edge $-1 $171 -67.41416669209876 $238 67.41416669209876 $163 $241 forward 7 unknown #
coedge $-1 $176 $175 $105 $169 reversed $160 $-1 #
edge $-1 $242 -67.41416669209876 $170 67.41416669209876 $168 $243 forward 7 unknown #
vertex $-1 $107 $244 #
vertex $-1 $182 $245 #
straight-curve $-1 67.41416669209876 0 -14.336949268221691 0 -1 0 I I #
coedge $-1 $162 $164 $108 $174 reversed $101 $-1 #
edge $-1 $177 -40.547459987728196 $180 40.547459987728196 $173 $246 forward 7 unknown #
coedge $-1 $168 $109 $114 $183 forward $160 $-1 #
coedge $-1 $109 $168 $162 $237 reversed $160 $-1 #
vertex $-1 $110 $247 #
straight-curve $-1 0 40.547459987728196 14.336949268221691 -1 0 0 I I #
coedge $-1 $111 $163 $113 $182 reversed $63 $-1 #
vertex $-1 $174 $248 #
straight-curve $-1 0 -40.547459987728196 14.336949268221691 1 0 0 I I #
edge $-1 $116 -14.336949268221691 $171 14.336949268221691 $113 $249 forward 7 unknown #
edge $-1 $117 -14.336949268221691 $170 14.336949268221691 $114 $250 forward 7 unknown #
point $-1 67.41416669209876 -40.547459987728196 14.336949268221691 #
point $-1 67.41416669209876 40.547459987728196 14.336949268221691 #
face $-1 $-1 $196 $16 $-1 $251 reversed single #
loop $-1 $-1 $192 $119 #
plane-surface $-1 0 0 -14.336949268221691 0 0 1 1 0 0 forward_v I I I I #
coedge $-1 $252 $253 $127 $200 forward $120 $-1 #
coedge $-1 $122 $204 $194 $254 forward $71 $-1 #
edge $-1 $198 -23.437436634303619 $132 -10.782610072545534 $122 $255 forward 7 unknown #
coedge $-1 $256 $128 $123 $193 forward $187 $-1 #
edge $-1 $133 10.782610072545534 $197 23.437436634303619 $192 $257 forward 7 unknown #
coedge $-1 $258 $125 $190 $254 reversed $196 $-1 #
coedge $-1 $125 $258 $256 $259 reversed $196 $-1 #
loop $-1 $-1 $125 $186 #
vertex $-1 $259 $260 #
vertex $-1 $126 $261 #
straight-curve $-1 -64.074056113658528 -40.547459987728196 0 0 0 1 I I #
edge $-1 $205 -14.336949268221691 $202 14.336949268221691 $189 $262 forward 7 unknown #
coedge $-1 $128 $256 $252 $263 forward $187 $-1 #
vertex $-1 $129 $264 #
straight-curve $-1 -32.872055701439322 -27.892633425970111 -14.336949268221691 1 0 0 I I #
coedge $-1 $190 $130 $253 $265 forward $71 $-1 #
vertex $-1 $265 $266 #
straight-curve $-1 -32.872055701439322 -27.892633425970111 14.336949268221691 -1 0 0 I I #
point $-1 -64.074056113658528 -27.892633425970111 14.336949268221691 #
point $-1 -64.074056113658528 -27.892633425970111 -14.336949268221691 #
plane-surface $-1 0 0 14.336949268221691 0 0 1 1 0 0 forward_v I I I I #
coedge $-1 $220 $219 $212 $267 forward $136 $-1 #
coedge $-1 $212 $138 $140 $216 reversed $79 $-1 #
coedge $-1 $138 $211 $210 $267 reversed $79 $-1 #
coedge $-1 $146 $141 $138 $214 forward $147 $-1 #
edge $-1 $217 -25.008816258408174 $268 -22.181794308493537 $213 $269 forward 7 unknown #
coedge $-1 $140 $139 $220 $270 reversed $49 $-1 #
edge $-1 $271 7.685582356959255e-014 $217 5.0555398555386892 $211 $272 forward 7 unknown #
vertex $-1 $142 $273 #
straight-curve $-1 -64.587144742184122 10.085021942385222 14.336949268221691 0 1 0 I I #
coedge $-1 $210 $143 $146 $224 reversed $136 $-1 #
coedge $-1 $143 $210 $215 $270 forward $136 $-1 #
vertex $-1 $144 $274 #
straight-curve $-1 -67.41416669209876 16.732374041790145 42.770381169457167 0 0 1 I I #
straight-curve $-1 -67.414166692098803 16.732374041790145 10.14571673761202 -0.55919289150049634 0 -0.82903758062907751 I I #
edge $-1 $268 -23.607713727750742 $148 -16.732374041790145 $219 $275 forward 7 unknown #
point $-1 -67.41416669209876 16.732374041790145 14.336949268221691 #
point $-1 -64.587144742184122 16.732374041790145 14.336949268221691 #
edge $-1 $276 1 $276 0 $151 $-1 forward 7 unknown #
vertex $-1 $152 $277 #
ellipse-curve $-1 -64.702246797145278 18.696756809207457 11.365545155312001 -0.82903758062907751 0 0.55919289150049634 0.27959644575024817 0 0.41451879031453875 1 I I #
point $-1 -65.721059271391169 18.696756809207457 12.655851793231392 #
edge $-1 $278 1 $278 0 $155 $-1 forward 7 unknown #
vertex $-1 $156 $279 #
ellipse-curve $-1 -64.702246797145278 21.643330960333422 11.365545155312001 -0.82903758062907751 0 0.55919289150049634 0.27959644575024817 0 0.41451879031453875 1 I I #
point $-1 -65.721059271391169 21.643330960333422 12.655851793231392 #
plane-surface $-1 67.41416669209876 0 0 -1 0 0 0 0 1 forward_v I I I I #
coedge $-1 $164 $162 $166 $240 reversed $101 $-1 #
edge $-1 $177 -14.336949268221691 $242 14.336949268221691 $176 $280 forward 7 unknown #
vertex $-1 $240 $281 #
straight-curve $-1 -67.41416669209876 -40.547459987728196 0 0 0 -1 I I #
edge $-1 $238 -40.547459987728196 $242 40.547459987728196 $236 $282 forward 7 unknown #
straight-curve $-1 0 -40.547459987728196 -14.336949268221691 -1 0 0 I I #
vertex $-1 $169 $283 #
straight-curve $-1 0 40.547459987728196 -14.336949268221691 1 0 0 I I #
point $-1 67.41416669209876 40.547459987728196 -14.336949268221691 #
point $-1 67.41416669209876 -40.547459987728196 -14.336949268221691 #
straight-curve $-1 -67.41416669209876 0 14.336949268221691 0 -1 0 I I #
point $-1 -67.41416669209876 40.547459987728196 14.336949268221691 #
point $-1 -67.41416669209876 -40.547459987728196 14.336949268221691 #
straight-curve $-1 67.41416669209876 -40.547459987728196 0 0 0 -1 I I #
straight-curve $-1 67.41416669209876 40.547459987728196 0 0 0 -1 I I #
plane-surface $-1 0 -40.547459987728196 0 0 1 0 0 0 1 forward_v I I I I #
coedge $-1 $284 $189 $201 $263 reversed $120 $-1 #
coedge $-1 $189 $284 $204 $265 reversed $120 $-1 #
edge $-1 $285 -67.41416669209876 $198 -64.074056113658528 $194 $286 forward 7 unknown #
straight-curve $-1 -64.074056113658528 -17.110023353424577 14.336949268221691 0 1 0 I I #
coedge $-1 $201 $192 $195 $259 forward $187 $-1 #
straight-curve $-1 -64.074056113658528 -17.110023353424577 -14.336949268221691 0 -1 0 I I #
coedge $-1 $195 $194 $284 $287 forward $196 $-1 #
edge $-1 $197 64.074056113658528 $288 67.41416669209876 $195 $289 forward 7 unknown #
point $-1 -64.074056113658528 -40.547459987728196 -14.336949268221691 #
point $-1 -64.074056113658528 -40.547459987728196 14.336949268221691 #
straight-curve $-1 -67.41416669209876 -27.892633425970111 0 0 0 -1 I I #
edge $-1 $288 -40.547459987728196 $202 -27.892633425970111 $252 $290 forward 7 unknown #
point $-1 -67.41416669209876 -27.892633425970111 -14.336949268221691 #
edge $-1 $205 27.892633425970111 $285 40.547459987728196 $253 $291 forward 7 unknown #
point $-1 -67.41416669209876 -27.892633425970111 14.336949268221691 #
edge $-1 $268 28.433431901235476 $271 32.624664431845083 $210 $292 forward 7 unknown #
vertex $-1 $224 $293 #
straight-curve $-1 -89.595961000592297 23.607713727750742 14.336949268221694 -1 0 0 I I #
edge $-1 $271 -13.52269178536552 $221 -6.6473520994049231 $220 $294 forward 7 unknown #
vertex $-1 $270 $295 #
straight-curve $-1 -67.414166692098803 23.607713727750742 10.14571673761202 0.55919289150049634 0 0.82903758062907751 I I #
point $-1 -64.587144742184122 23.607713727750742 14.336949268221691 #
point $-1 -67.41416669209876 16.732374041790145 10.145716737612084 #
straight-curve $-1 -67.41416669209876 0 14.336949268221691 0 -1 0 I I #
vertex $-1 $227 $296 #
point $-1 -64.422650351395035 18.696756809207457 11.780063945626541 #
vertex $-1 $231 $297 #
point $-1 -64.422650351395035 21.643330960333422 11.780063945626541 #
straight-curve $-1 -67.41416669209876 40.547459987728196 0 0 0 -1 I I #
point $-1 -67.41416669209876 -40.547459987728196 -14.336949268221691 #
straight-curve $-1 -67.41416669209876 0 -14.336949268221691 0 1 0 I I #
point $-1 -67.41416669209876 40.547459987728196 -14.336949268221691 #
coedge $-1 $253 $252 $258 $287 reversed $120 $-1 #
vertex $-1 $265 $298 #
straight-curve $-1 0 -40.547459987728196 14.336949268221691 1 0 0 I I #
edge $-1 $285 -14.336949268221691 $288 14.336949268221691 $284 $299 forward 7 unknown #
vertex $-1 $263 $300 #
straight-curve $-1 0 -40.547459987728196 -14.336949268221691 -1 0 0 I I #
straight-curve $-1 -67.41416669209876 0 -14.336949268221691 0 1 0 I I #
straight-curve $-1 -67.41416669209876 0 14.336949268221691 0 -1 0 I I #
straight-curve $-1 -67.41416669209876 23.607713727750742 42.770381169457167 0 0 -1 I I #
point $-1 -67.41416669209876 23.607713727750742 14.336949268221691 #
straight-curve $-1 -67.41416669209876 10.085021942385222 10.145716737612068 0 -1 0 I I #
point $-1 -67.41416669209876 23.607713727750742 10.145716737612084 #
point $-1 -64.287728006830747 18.696756809207457 11.085948709561753 #
point $-1 -64.287728006830747 21.643330960333422 11.085948709561753 #
point $-1 -67.41416669209876 -40.547459987728196 14.336949268221691 #
straight-curve $-1 -67.41416669209876 -40.547459987728196 0 0 0 -1 I I #
point $-1 -67.41416669209876 -40.547459987728196 -14.336949268221691 #
End-of-ACIS-data 