500 0 13 0           
7 Unknown 11 ACIS 5.0 NT 24 Thu Mar 25 23:23:29 1999 
-1 9.9999999999999995e-007 1e-010 
body $-1 $13 $-1 $14 #
body $-1 $15 $-1 $16 #
body $-1 $17 $-1 $18 #
body $-1 $19 $-1 $20 #
body $-1 $21 $-1 $22 #
body $-1 $23 $-1 $24 #
body $-1 $25 $-1 $26 #
body $-1 $27 $-1 $28 #
body $-1 $29 $-1 $30 #
body $-1 $31 $-1 $32 #
body $-1 $33 $-1 $34 #
body $-1 $35 $-1 $36 #
body $-1 $37 $-1 $38 #
lump $-1 $-1 $39 $0 #
transform $-1 1 0 0 0 1 0 0 0 1 76.262092959379856 31.76093788171567 12.553261830875927 1 rotate no_reflect no_shear #
lump $-1 $-1 $40 $1 #
transform $-1 1 0 0 0 1 0 0 0 1 76.262092959379856 31.76093788171567 12.553261830875927 1 rotate no_reflect no_shear #
lump $-1 $-1 $41 $2 #
transform $-1 1 0 0 0 1 0 0 0 1 76.262092959379856 31.76093788171567 12.553261830875927 1 rotate no_reflect no_shear #
lump $-1 $-1 $42 $3 #
transform $-1 1 0 0 0 1 0 0 0 1 76.262092959379856 31.76093788171567 12.553261830875927 1 rotate no_reflect no_shear #
lump $-1 $-1 $43 $4 #
transform $-1 1 0 0 0 1 0 0 0 1 76.262092959379856 31.76093788171567 12.553261830875927 1 rotate no_reflect no_shear #
lump $-1 $-1 $44 $5 #
transform $-1 1 0 0 0 1 0 0 0 1 76.262092959379856 31.76093788171567 12.553261830875927 1 rotate no_reflect no_shear #
lump $-1 $-1 $45 $6 #
transform $-1 1 0 0 0 1 0 0 0 1 76.262092959379856 31.76093788171567 12.553261830875927 1 rotate no_reflect no_shear #
lump $-1 $-1 $46 $7 #
transform $-1 1 0 0 0 1 0 0 0 1 76.262092959379856 31.76093788171567 12.553261830875927 1 rotate no_reflect no_shear #
lump $-1 $-1 $47 $8 #
transform $-1 1 0 0 0 1 0 0 0 1 76.262092959379856 31.76093788171567 12.553261830875927 1 rotate no_reflect no_shear #
lump $-1 $-1 $48 $9 #
transform $-1 1 0 0 0 1 0 0 0 1 76.262092959379856 31.76093788171567 12.553261830875927 1 rotate no_reflect no_shear #
lump $-1 $-1 $49 $10 #
transform $-1 1 0 0 0 1 0 0 0 1 76.262092959379856 31.76093788171567 12.553261830875927 1 rotate no_reflect no_shear #
lump $-1 $-1 $50 $11 #
transform $-1 1 0 0 0 1 0 0 0 1 76.262092959379856 31.76093788171567 12.553261830875927 1 rotate no_reflect no_shear #
lump $-1 $-1 $51 $12 #
transform $-1 1 0 0 0 1 0 0 0 1 76.262092959379856 31.76093788171567 12.553261830875927 1 rotate no_reflect no_shear #
shell $-1 $-1 $-1 $52 $-1 $13 #
shell $-1 $-1 $-1 $53 $-1 $15 #
shell $-1 $-1 $-1 $54 $-1 $17 #
shell $-1 $-1 $-1 $55 $-1 $19 #
shell $-1 $-1 $-1 $56 $-1 $21 #
shell $-1 $-1 $-1 $57 $-1 $23 #
shell $-1 $-1 $-1 $58 $-1 $25 #
shell $-1 $-1 $-1 $59 $-1 $27 #
shell $-1 $-1 $-1 $60 $-1 $29 #
shell $-1 $-1 $-1 $61 $-1 $31 #
shell $-1 $-1 $-1 $62 $-1 $33 #
shell $-1 $-1 $-1 $63 $-1 $35 #
shell $-1 $-1 $-1 $64 $-1 $37 #
face $-1 $65 $66 $39 $-1 $67 forward single #
face $-1 $68 $69 $40 $-1 $70 reversed single #
face $-1 $71 $72 $41 $-1 $73 forward single #
face $-1 $74 $75 $42 $-1 $76 forward single #
face $-1 $77 $78 $43 $-1 $79 reversed single #
face $-1 $80 $81 $44 $-1 $82 forward single #
face $-1 $83 $84 $45 $-1 $85 forward single #
face $-1 $86 $87 $46 $-1 $88 reversed single #
face $-1 $89 $90 $47 $-1 $91 forward single #
face $-1 $92 $93 $48 $-1 $94 forward single #
face $-1 $95 $96 $49 $-1 $97 reversed single #
face $-1 $98 $99 $50 $-1 $100 forward single #
face $-1 $101 $102 $51 $-1 $103 forward single #
face $-1 $104 $105 $39 $-1 $106 reversed single #
loop $-1 $-1 $107 $52 #
plane-surface $-1 0 0 12.553261830875927 0 0 1 1 0 0 forward_v I I I I #
face $-1 $108 $109 $40 $-1 $110 reversed single #
loop $-1 $-1 $111 $53 #
plane-surface $-1 -52.315856244303859 58.716837801031907 169.97476331919623 1 0 0 0 -0.52991927123019833 -0.84804809178421925 forward_v I I I I #
face $-1 $112 $113 $41 $-1 $114 forward single #
loop $-1 $115 $116 $54 #
cone-surface $-1 -46.019360154476757 25.912534928721882 7.555343087821031 0 -0.52991927123019833 -0.84804809178421925 2 0 0 1 I I 0 1 2 forward I I I I #
face $-1 $117 $118 $42 $-1 $119 forward single #
loop $-1 $120 $121 $55 #
cone-surface $-1 -36.574616019736112 25.912534928721882 7.555343087821031 0 -0.52991927123019833 -0.84804809178421925 2 0 0 1 I I 0 1 2 forward I I I I #
face $-1 $122 $123 $43 $-1 $124 reversed single #
loop $-1 $-1 $125 $56 #
plane-surface $-1 23.946236715076004 58.716837801031907 169.97476331919623 1 0 0 0 -0.52991927123019833 -0.84804809178421925 forward_v I I I I #
face $-1 $126 $127 $44 $-1 $128 forward single #
loop $-1 $129 $130 $57 #
cone-surface $-1 30.242732804903099 25.912534928721882 7.555343087821031 0 -0.52991927123019833 -0.84804809178421925 2 0 0 1 I I 0 1 2 forward I I I I #
face $-1 $131 $132 $45 $-1 $133 forward single #
loop $-1 $134 $135 $58 #
cone-surface $-1 39.687476939643744 25.912534928721882 7.555343087821031 0 -0.52991927123019833 -0.84804809178421925 2 0 0 1 I I 0 1 2 forward I I I I #
face $-1 $136 $137 $46 $-1 $138 reversed single #
loop $-1 $-1 $139 $59 #
plane-surface $-1 -30.27811992990901 -112.58644332876409 136.31329720746348 -1 0 0 0 -0.52991927123019833 0.84804809178421925 forward_v I I I I #
face $-1 $140 $141 $47 $-1 $142 forward single #
loop $-1 $143 $144 $60 #
cone-surface $-1 -46.019360154476757 -25.912534928721879 7.5553430878210275 0 0.52991927123019833 -0.84804809178421925 2 0 0 1 I I 0 1 2 forward I I I I #
face $-1 $145 $146 $48 $-1 $147 forward single #
loop $-1 $148 $149 $61 #
cone-surface $-1 -36.574616019736112 -25.912534928721879 7.5553430878210275 0 0.52991927123019833 -0.84804809178421925 2 0 0 1 I I 0 1 2 forward I I I I #
face $-1 $150 $151 $49 $-1 $152 reversed single #
loop $-1 $-1 $153 $62 #
plane-surface $-1 45.983973029470853 -112.58644332876409 136.31329720746348 -1 0 0 0 -0.52991927123019833 0.84804809178421925 forward_v I I I I #
face $-1 $154 $155 $50 $-1 $156 forward single #
loop $-1 $157 $158 $63 #
cone-surface $-1 30.242732804903099 -25.912534928721879 7.5553430878210275 0 0.52991927123019833 -0.84804809178421925 2 0 0 1 I I 0 1 2 forward I I I I #
face $-1 $159 $160 $51 $-1 $161 forward single #
loop $-1 $162 $163 $64 #
cone-surface $-1 39.687476939643744 -25.912534928721879 7.5553430878210275 0 0.52991927123019833 -0.84804809178421925 2 0 0 1 I I 0 1 2 forward I I I I #
face $-1 $164 $165 $39 $-1 $166 reversed single #
loop $-1 $-1 $167 $65 #
plane-surface $-1 0 0 -12.553261830875927 0 0 1 1 0 0 forward_v I I I I #
coedge $-1 $168 $169 $170 $171 forward $66 $-1 #
face $-1 $172 $173 $40 $-1 $174 reversed single #
loop $-1 $-1 $175 $68 #
plane-surface $-1 -41.296988087106435 -22.108667646016521 40.626918499850575 0 0.52991927123019833 0.84804809178421925 1 0 0 forward_v I I I I #
coedge $-1 $176 $177 $178 $179 reversed $69 $-1 #
face $-1 $-1 $180 $41 $-1 $181 forward single #
loop $-1 $182 $183 $71 #
cone-surface $-1 -46.019360154476757 24.005394818882948 4.5032809743609707 0 -0.52991927123019833 -0.84804809178421925 1 0 0 1 I I -0.70710678118654746 0.70710678118654746 1 forward I I I I #
loop $-1 $-1 $184 $54 #
coedge $-1 $116 $116 $185 $186 reversed $72 $-1 #
face $-1 $-1 $187 $42 $-1 $188 forward single #
loop $-1 $189 $190 $74 #
cone-surface $-1 -36.574616019736112 24.005394818882948 4.5032809743609707 0 -0.52991927123019833 -0.84804809178421925 1 0 0 1 I I -0.70710678118654746 0.70710678118654746 1 forward I I I I #
loop $-1 $-1 $191 $55 #
coedge $-1 $121 $121 $192 $193 reversed $75 $-1 #
face $-1 $194 $195 $43 $-1 $196 reversed single #
loop $-1 $-1 $197 $77 #
plane-surface $-1 34.965104872273429 -22.108667646016521 40.626918499850575 0 0.52991927123019833 0.84804809178421925 1 0 0 forward_v I I I I #
coedge $-1 $198 $199 $200 $201 reversed $78 $-1 #
face $-1 $-1 $202 $44 $-1 $203 forward single #
loop $-1 $204 $205 $80 #
cone-surface $-1 30.242732804903099 24.005394818882948 4.5032809743609707 0 -0.52991927123019833 -0.84804809178421925 1 0 0 1 I I -0.70710678118654746 0.70710678118654746 1 forward I I I I #
loop $-1 $-1 $206 $57 #
coedge $-1 $130 $130 $207 $208 reversed $81 $-1 #
face $-1 $-1 $209 $45 $-1 $210 forward single #
loop $-1 $211 $212 $83 #
cone-surface $-1 39.687476939643744 24.005394818882948 4.5032809743609707 0 -0.52991927123019833 -0.84804809178421925 1 0 0 1 I I -0.70710678118654746 0.70710678118654746 1 forward I I I I #
loop $-1 $-1 $213 $58 #
coedge $-1 $135 $135 $214 $215 reversed $84 $-1 #
face $-1 $216 $217 $46 $-1 $218 reversed single #
loop $-1 $-1 $219 $86 #
plane-surface $-1 -41.296988087106435 -31.760937881715662 6.965452388117825 0 -0.52991927123019833 0.84804809178421925 1 0 0 forward_v I I I I #
coedge $-1 $220 $221 $222 $223 reversed $87 $-1 #
face $-1 $-1 $224 $47 $-1 $225 forward single #
loop $-1 $226 $227 $89 #
cone-surface $-1 -46.019360154476757 -24.005394818882944 4.5032809743609672 0 0.52991927123019833 -0.84804809178421925 1 0 0 1 I I -0.70710678118654746 0.70710678118654746 1 forward I I I I #
loop $-1 $-1 $228 $60 #
coedge $-1 $144 $144 $229 $230 reversed $90 $-1 #
face $-1 $-1 $231 $48 $-1 $232 forward single #
loop $-1 $233 $234 $92 #
cone-surface $-1 -36.574616019736112 -24.005394818882944 4.5032809743609672 0 0.52991927123019833 -0.84804809178421925 1 0 0 1 I I -0.70710678118654746 0.70710678118654746 1 forward I I I I #
loop $-1 $-1 $235 $61 #
coedge $-1 $149 $149 $236 $237 reversed $93 $-1 #
face $-1 $238 $239 $49 $-1 $240 reversed single #
loop $-1 $-1 $241 $95 #
plane-surface $-1 34.965104872273429 -31.760937881715662 6.965452388117825 0 -0.52991927123019833 0.84804809178421925 1 0 0 forward_v I I I I #
coedge $-1 $242 $243 $244 $245 reversed $96 $-1 #
face $-1 $-1 $246 $50 $-1 $247 forward single #
loop $-1 $248 $249 $98 #
cone-surface $-1 30.242732804903099 -24.005394818882944 4.5032809743609672 0 0.52991927123019833 -0.84804809178421925 1 0 0 1 I I -0.70710678118654746 0.70710678118654746 1 forward I I I I #
loop $-1 $-1 $250 $63 #
coedge $-1 $158 $158 $251 $252 reversed $99 $-1 #
face $-1 $-1 $253 $51 $-1 $254 forward single #
loop $-1 $255 $256 $101 #
cone-surface $-1 39.687476939643744 -24.005394818882944 4.5032809743609672 0 0.52991927123019833 -0.84804809178421925 1 0 0 1 I I -0.70710678118654746 0.70710678118654746 1 forward I I I I #
loop $-1 $-1 $257 $64 #
coedge $-1 $163 $163 $258 $259 reversed $102 $-1 #
face $-1 $260 $261 $39 $-1 $262 reversed single #
loop $-1 $-1 $263 $104 #
plane-surface $-1 0 -31.76093788171567 0 0 1 0 0 0 1 forward_v I I I I #
coedge $-1 $264 $265 $266 $267 forward $105 $-1 #
coedge $-1 $268 $107 $269 $270 forward $66 $-1 #
coedge $-1 $107 $268 $271 $272 forward $66 $-1 #
coedge $-1 $273 $274 $107 $171 reversed $275 $-1 #
edge $-1 $276 -31.76093788171567 $277 31.76093788171567 $170 $278 forward 7 unknown #
face $-1 $279 $280 $40 $-1 $281 reversed single #
loop $-1 $-1 $282 $108 #
plane-surface $-1 -30.27811992990901 58.716837801031907 169.97476331919623 -1 0 0 0 0.52991927123019833 0.84804809178421925 forward_v I I I I #
coedge $-1 $283 $284 $285 $286 reversed $109 $-1 #
coedge $-1 $177 $111 $287 $288 reversed $69 $-1 #
coedge $-1 $111 $176 $283 $289 reversed $69 $-1 #
coedge $-1 $285 $290 $111 $179 forward $291 $-1 #
edge $-1 $292 -2.4025189811997159 $293 6.5398452475703586 $178 $294 forward 7 unknown #
loop $-1 $-1 $185 $112 #
plane-surface $-1 -41.296988087106435 -22.108667646016521 40.626918499850575 0 0.52991927123019833 0.84804809178421925 1 0 0 forward_v I I I I #
loop $-1 $-1 $295 $71 #
coedge $-1 $183 $183 $184 $296 reversed $113 $-1 #
coedge $-1 $184 $184 $183 $296 forward $115 $-1 #
coedge $-1 $185 $185 $116 $186 forward $180 $-1 #
edge $-1 $297 2.817679702666988e-016 $297 6.2831853071796004 $185 $298 forward 7 unknown #
loop $-1 $-1 $192 $117 #
plane-surface $-1 -41.296988087106435 -22.108667646016521 40.626918499850575 0 0.52991927123019833 0.84804809178421925 1 0 0 forward_v I I I I #
loop $-1 $-1 $299 $74 #
coedge $-1 $190 $190 $191 $300 reversed $118 $-1 #
coedge $-1 $191 $191 $190 $300 forward $120 $-1 #
coedge $-1 $192 $192 $121 $193 forward $187 $-1 #
edge $-1 $301 2.817679702666988e-016 $301 6.2831853071796004 $192 $302 forward 7 unknown #
face $-1 $303 $304 $43 $-1 $305 forward single #
loop $-1 $-1 $306 $122 #
plane-surface $-1 45.983973029470853 58.716837801031907 169.97476331919623 -1 0 0 0 0.52991927123019833 0.84804809178421925 forward_v I I I I #
coedge $-1 $307 $308 $309 $310 reversed $123 $-1 #
coedge $-1 $199 $125 $311 $312 reversed $78 $-1 #
coedge $-1 $125 $198 $307 $313 reversed $78 $-1 #
coedge $-1 $309 $314 $125 $201 forward $304 $-1 #
edge $-1 $315 -2.4025189811997159 $316 6.5398452475703586 $200 $317 forward 7 unknown #
loop $-1 $-1 $207 $126 #
plane-surface $-1 34.965104872273429 -22.108667646016521 40.626918499850575 0 0.52991927123019833 0.84804809178421925 1 0 0 forward_v I I I I #
loop $-1 $-1 $318 $80 #
coedge $-1 $205 $205 $206 $319 reversed $127 $-1 #
coedge $-1 $206 $206 $205 $319 forward $129 $-1 #
coedge $-1 $207 $207 $130 $208 forward $202 $-1 #
edge $-1 $320 2.817679702666988e-016 $320 6.2831853071796004 $207 $321 forward 7 unknown #
loop $-1 $-1 $214 $131 #
plane-surface $-1 34.965104872273429 -22.108667646016521 40.626918499850575 0 0.52991927123019833 0.84804809178421925 1 0 0 forward_v I I I I #
loop $-1 $-1 $322 $83 #
coedge $-1 $212 $212 $213 $323 reversed $132 $-1 #
coedge $-1 $213 $213 $212 $323 forward $134 $-1 #
coedge $-1 $214 $214 $135 $215 forward $209 $-1 #
edge $-1 $324 2.817679702666988e-016 $324 6.2831853071796004 $214 $325 forward 7 unknown #
face $-1 $326 $327 $46 $-1 $328 reversed single #
loop $-1 $-1 $329 $136 #
plane-surface $-1 -52.315856244303859 -112.58644332876409 136.31329720746348 1 0 0 0 0.52991927123019833 -0.84804809178421925 forward_v I I I I #
coedge $-1 $330 $331 $332 $333 reversed $137 $-1 #
coedge $-1 $221 $139 $334 $335 reversed $87 $-1 #
coedge $-1 $139 $220 $330 $336 reversed $87 $-1 #
coedge $-1 $332 $337 $139 $223 forward $338 $-1 #
edge $-1 $339 24.532283782666376 $340 33.474648011436493 $222 $341 forward 7 unknown #
loop $-1 $-1 $229 $140 #
plane-surface $-1 -41.296988087106435 -31.760937881715662 6.965452388117825 0 -0.52991927123019833 0.84804809178421925 1 0 0 forward_v I I I I #
loop $-1 $-1 $342 $89 #
coedge $-1 $227 $227 $228 $343 reversed $141 $-1 #
coedge $-1 $228 $228 $227 $343 forward $143 $-1 #
coedge $-1 $229 $229 $144 $230 forward $224 $-1 #
edge $-1 $344 -4.7066286088987959e-016 $344 6.2831853071795996 $229 $345 forward 7 unknown #
loop $-1 $-1 $236 $145 #
plane-surface $-1 -41.296988087106435 -31.760937881715662 6.965452388117825 0 -0.52991927123019833 0.84804809178421925 1 0 0 forward_v I I I I #
loop $-1 $-1 $346 $92 #
coedge $-1 $234 $234 $235 $347 reversed $146 $-1 #
coedge $-1 $235 $235 $234 $347 forward $148 $-1 #
coedge $-1 $236 $236 $149 $237 forward $231 $-1 #
edge $-1 $348 -4.7066286088987959e-016 $348 6.2831853071795996 $236 $349 forward 7 unknown #
face $-1 $350 $351 $49 $-1 $352 reversed single #
loop $-1 $-1 $353 $150 #
plane-surface $-1 23.946236715076004 -112.58644332876409 136.31329720746348 1 0 0 0 0.52991927123019833 -0.84804809178421925 forward_v I I I I #
coedge $-1 $354 $355 $356 $357 reversed $151 $-1 #
coedge $-1 $243 $153 $358 $359 reversed $96 $-1 #
coedge $-1 $153 $242 $354 $360 reversed $96 $-1 #
coedge $-1 $356 $361 $153 $245 forward $362 $-1 #
edge $-1 $363 24.532283782666376 $364 33.474648011436493 $244 $365 forward 7 unknown #
loop $-1 $-1 $251 $154 #
plane-surface $-1 34.965104872273429 -31.760937881715662 6.965452388117825 0 -0.52991927123019833 0.84804809178421925 1 0 0 forward_v I I I I #
loop $-1 $-1 $366 $98 #
coedge $-1 $249 $249 $250 $367 reversed $155 $-1 #
coedge $-1 $250 $250 $249 $367 forward $157 $-1 #
coedge $-1 $251 $251 $158 $252 forward $246 $-1 #
edge $-1 $368 -4.7066286088987959e-016 $368 6.2831853071795996 $251 $369 forward 7 unknown #
loop $-1 $-1 $258 $159 #
plane-surface $-1 34.965104872273429 -31.760937881715662 6.965452388117825 0 -0.52991927123019833 0.84804809178421925 1 0 0 forward_v I I I I #
loop $-1 $-1 $370 $101 #
coedge $-1 $256 $256 $257 $371 reversed $160 $-1 #
coedge $-1 $257 $257 $256 $371 forward $162 $-1 #
coedge $-1 $258 $258 $163 $259 forward $253 $-1 #
edge $-1 $372 -4.7066286088987959e-016 $372 6.2831853071795996 $258 $373 forward 7 unknown #
face $-1 $374 $375 $39 $-1 $376 reversed single #
loop $-1 $-1 $377 $164 #
plane-surface $-1 -76.262092959379856 0 0 1 0 0 0 0 -1 forward_v I I I I #
coedge $-1 $378 $271 $379 $380 forward $165 $-1 #
coedge $-1 $381 $167 $378 $382 forward $105 $-1 #
coedge $-1 $167 $381 $383 $384 forward $105 $-1 #
coedge $-1 $274 $273 $167 $267 reversed $275 $-1 #
edge $-1 $385 -31.76093788171567 $386 31.76093788171567 $266 $387 forward 7 unknown #
coedge $-1 $169 $168 $388 $389 forward $66 $-1 #
coedge $-1 $390 $391 $168 $270 reversed $375 $-1 #
edge $-1 $277 -76.262092959379856 $392 76.262092959379856 $269 $393 forward 7 unknown #
coedge $-1 $263 $394 $169 $272 reversed $165 $-1 #
edge $-1 $395 -76.262092959379856 $276 76.262092959379856 $271 $396 forward 7 unknown #
coedge $-1 $266 $170 $394 $397 forward $275 $-1 #
coedge $-1 $170 $266 $390 $398 reversed $275 $-1 #
loop $-1 $-1 $273 $374 #
vertex $-1 $171 $399 #
vertex $-1 $171 $400 #
straight-curve $-1 76.262092959379856 0 12.553261830875927 0 1 0 I I #
face $-1 $-1 $291 $40 $-1 $401 forward single #
loop $-1 $-1 $402 $172 #
plane-surface $-1 0 31.76093788171567 0 0 -1 0 0 0 -1 forward_v I I I I #
coedge $-1 $403 $404 $405 $406 reversed $173 $-1 #
coedge $-1 $407 $175 $177 $289 forward $109 $-1 #
coedge $-1 $175 $407 $403 $408 forward $109 $-1 #
coedge $-1 $405 $178 $175 $286 forward $291 $-1 #
edge $-1 $293 -31.667362200750642 $409 -9.6296258863557931 $285 $410 forward 7 unknown #
coedge $-1 $411 $412 $176 $288 forward $280 $-1 #
edge $-1 $413 -78.021929271480275 $292 -72.434119828722189 $287 $414 forward 7 unknown #
edge $-1 $293 52.977232935503835 $413 63.521875763431339 $177 $415 forward 7 unknown #
coedge $-1 $178 $405 $411 $416 forward $291 $-1 #
loop $-1 $-1 $405 $279 #
vertex $-1 $288 $417 #
vertex $-1 $179 $418 #
straight-curve $-1 -52.315856244303859 29.358418900515954 12.553261830875925 0 -1 0 I I #
coedge $-1 $295 $295 $-1 $419 reversed $182 $-1 #
edge $-1 $420 0 $420 6.2831853071796004 $183 $421 forward 7 unknown #
vertex $-1 $186 $422 #
ellipse-curve $-1 -46.019360154476757 27.289755767330625 9.7593571094968858 0 0.52991927123019833 0.84804809178421925 2 0 0 1 I I #
coedge $-1 $299 $299 $-1 $423 reversed $189 $-1 #
edge $-1 $424 0 $424 6.2831853071796004 $190 $425 forward 7 unknown #
vertex $-1 $193 $426 #
ellipse-curve $-1 -36.574616019736112 27.289755767330625 9.7593571094968858 0 0.52991927123019833 0.84804809178421925 2 0 0 1 I I #
face $-1 $-1 $427 $43 $-1 $428 reversed single #
loop $-1 $-1 $200 $194 #
plane-surface $-1 0 0 12.553261830875927 0 0 1 1 0 0 forward_v I I I I #
coedge $-1 $429 $430 $431 $432 reversed $195 $-1 #
coedge $-1 $433 $197 $199 $313 forward $123 $-1 #
coedge $-1 $197 $433 $429 $434 forward $123 $-1 #
coedge $-1 $431 $200 $197 $310 forward $304 $-1 #
edge $-1 $316 6.4636842789392901 $435 28.501420593334139 $309 $436 forward 7 unknown #
coedge $-1 $437 $438 $198 $312 forward $427 $-1 #
edge $-1 $439 -78.021929271480275 $315 -72.434119828722189 $311 $440 forward 7 unknown #
edge $-1 $316 52.977232935503835 $439 63.521875763431339 $199 $441 forward 7 unknown #
coedge $-1 $200 $431 $437 $442 forward $304 $-1 #
vertex $-1 $201 $443 #
vertex $-1 $201 $444 #
straight-curve $-1 23.946236715076004 29.358418900515954 12.553261830875925 0 -1 0 I I #
coedge $-1 $318 $318 $-1 $445 reversed $204 $-1 #
edge $-1 $446 0 $446 6.2831853071796004 $205 $447 forward 7 unknown #
vertex $-1 $208 $448 #
ellipse-curve $-1 30.242732804903099 27.289755767330625 9.7593571094968858 0 0.52991927123019833 0.84804809178421925 2 0 0 1 I I #
coedge $-1 $322 $322 $-1 $449 reversed $211 $-1 #
edge $-1 $450 0 $450 6.2831853071796004 $212 $451 forward 7 unknown #
vertex $-1 $215 $452 #
ellipse-curve $-1 39.687476939643744 27.289755767330625 9.7593571094968858 0 0.52991927123019833 0.84804809178421925 2 0 0 1 I I #
face $-1 $-1 $338 $46 $-1 $453 forward single #
loop $-1 $-1 $454 $216 #
plane-surface $-1 0 -31.76093788171567 0 0 1 0 0 0 1 forward_v I I I I #
coedge $-1 $455 $456 $457 $458 reversed $217 $-1 #
coedge $-1 $459 $219 $221 $336 forward $137 $-1 #
coedge $-1 $219 $459 $455 $460 forward $137 $-1 #
coedge $-1 $457 $222 $219 $333 forward $338 $-1 #
edge $-1 $340 9.6296258863557931 $461 31.667362200750642 $332 $462 forward 7 unknown #
coedge $-1 $463 $464 $220 $335 forward $327 $-1 #
edge $-1 $465 -61.191196215613921 $339 -55.603386772855814 $334 $466 forward 7 unknown #
edge $-1 $340 -10.544642827927547 $465 8.3790584163743152e-015 $221 $467 forward 7 unknown #
coedge $-1 $222 $457 $463 $468 forward $338 $-1 #
loop $-1 $-1 $457 $326 #
vertex $-1 $335 $469 #
vertex $-1 $223 $470 #
straight-curve $-1 -30.27811992990901 -56.293221664382045 12.553261830875925 0 1 0 I I #
coedge $-1 $342 $342 $-1 $471 reversed $226 $-1 #
edge $-1 $472 0 $472 6.2831853071796004 $227 $473 forward 7 unknown #
vertex $-1 $230 $474 #
ellipse-curve $-1 -46.019360154476757 -27.289755767330615 9.7593571094968716 0 -0.52991927123019833 0.84804809178421925 2 0 0 1 I I #
coedge $-1 $346 $346 $-1 $475 reversed $233 $-1 #
edge $-1 $476 0 $476 6.2831853071796004 $234 $477 forward 7 unknown #
vertex $-1 $237 $478 #
ellipse-curve $-1 -36.574616019736112 -27.289755767330615 9.7593571094968716 0 -0.52991927123019833 0.84804809178421925 2 0 0 1 I I #
face $-1 $-1 $362 $49 $-1 $479 forward single #
loop $-1 $-1 $480 $238 #
plane-surface $-1 0 -31.76093788171567 0 0 1 0 0 0 1 forward_v I I I I #
coedge $-1 $481 $482 $483 $484 reversed $239 $-1 #
coedge $-1 $485 $241 $243 $360 forward $151 $-1 #
coedge $-1 $241 $485 $481 $486 forward $151 $-1 #
coedge $-1 $483 $244 $241 $357 forward $362 $-1 #
edge $-1 $364 -28.501420593334139 $487 -6.4636842789392901 $356 $488 forward 7 unknown #
coedge $-1 $489 $490 $242 $359 forward $351 $-1 #
edge $-1 $491 -61.191196215613921 $363 -55.603386772855814 $358 $492 forward 7 unknown #
edge $-1 $364 -10.544642827927547 $491 8.3790584163743152e-015 $243 $493 forward 7 unknown #
coedge $-1 $244 $483 $489 $494 forward $362 $-1 #
loop $-1 $-1 $483 $350 #
vertex $-1 $359 $495 #
vertex $-1 $245 $496 #
straight-curve $-1 45.983973029470853 -56.293221664382045 12.553261830875925 0 1 0 I I #
coedge $-1 $366 $366 $-1 $497 reversed $248 $-1 #
edge $-1 $498 0 $498 6.2831853071796004 $249 $499 forward 7 unknown #
vertex $-1 $252 $500 #
ellipse-curve $-1 30.242732804903099 -27.289755767330615 9.7593571094968716 0 -0.52991927123019833 0.84804809178421925 2 0 0 1 I I #
coedge $-1 $370 $370 $-1 $501 reversed $255 $-1 #
edge $-1 $502 0 $502 6.2831853071796004 $256 $503 forward 7 unknown #
vertex $-1 $259 $504 #
ellipse-curve $-1 39.687476939643744 -27.289755767330615 9.7593571094968716 0 -0.52991927123019833 0.84804809178421925 2 0 0 1 I I #
face $-1 $-1 $275 $39 $-1 $505 reversed single #
loop $-1 $-1 $390 $260 #
plane-surface $-1 0 31.76093788171567 0 0 -1 0 0 0 -1 forward_v I I I I #
coedge $-1 $506 $388 $391 $507 forward $261 $-1 #
coedge $-1 $394 $263 $264 $382 reversed $165 $-1 #
coedge $-1 $388 $506 $263 $380 reversed $261 $-1 #
edge $-1 $395 -12.553261830875927 $508 12.553261830875927 $379 $509 forward 7 unknown #
coedge $-1 $265 $264 $506 $510 forward $105 $-1 #
edge $-1 $386 -76.262092959379856 $508 76.262092959379856 $378 $511 forward 7 unknown #
coedge $-1 $391 $390 $265 $384 reversed $375 $-1 #
edge $-1 $512 -76.262092959379856 $385 76.262092959379856 $383 $513 forward 7 unknown #
vertex $-1 $267 $514 #
vertex $-1 $397 $515 #
straight-curve $-1 76.262092959379856 0 -12.553261830875927 0 -1 0 I I #
coedge $-1 $377 $379 $268 $389 reversed $261 $-1 #
edge $-1 $392 -31.76093788171567 $395 31.76093788171567 $388 $516 forward 7 unknown #
coedge $-1 $383 $269 $274 $398 forward $375 $-1 #
coedge $-1 $269 $383 $377 $507 reversed $375 $-1 #
vertex $-1 $270 $517 #
straight-curve $-1 0 31.76093788171567 12.553261830875927 -1 0 0 I I #
coedge $-1 $271 $378 $273 $397 reversed $165 $-1 #
vertex $-1 $389 $518 #
straight-curve $-1 0 -31.76093788171567 12.553261830875927 1 0 0 I I #
edge $-1 $276 -12.553261830875927 $386 12.553261830875927 $273 $519 forward 7 unknown #
edge $-1 $277 -12.553261830875927 $385 12.553261830875927 $274 $520 forward 7 unknown #
point $-1 76.262092959379856 -31.76093788171567 12.553261830875927 #
point $-1 76.262092959379856 31.76093788171567 12.553261830875927 #
plane-surface $-1 0 0 12.553261830875927 0 0 1 1 0 0 forward_v I I I I #
coedge $-1 $412 $411 $404 $521 forward $280 $-1 #
coedge $-1 $404 $282 $284 $408 reversed $173 $-1 #
coedge $-1 $282 $403 $402 $521 reversed $173 $-1 #
coedge $-1 $290 $285 $282 $406 forward $291 $-1 #
edge $-1 $409 -6.5398452475703586 $522 2.4025189811997159 $405 $523 forward 7 unknown #
coedge $-1 $284 $283 $412 $524 reversed $109 $-1 #
edge $-1 $525 -63.521875763431339 $409 -52.977232935503835 $403 $526 forward 7 unknown #
vertex $-1 $286 $527 #
straight-curve $-1 -20.648494043553217 22.818573652945592 12.553261830875925 1 0 0 I I #
coedge $-1 $402 $287 $290 $416 reversed $280 $-1 #
coedge $-1 $287 $402 $407 $524 forward $280 $-1 #
vertex $-1 $288 $528 #
straight-curve $-1 -52.315856244303859 31.76093788171567 84.987381659598114 0 0 1 I I #
straight-curve $-1 -52.315856244303859 -22.108667646016521 40.626918499850575 0 0.84804809178421925 -0.52991927123019833 I I #
edge $-1 $522 30.27811992990901 $292 52.315856244303859 $411 $529 forward 7 unknown #
point $-1 -52.315856244303859 31.76093788171567 12.553261830875927 #
point $-1 -52.315856244303859 22.818573652945595 12.553261830875925 #
edge $-1 $530 1 $530 0 $295 $-1 forward 7 unknown #
vertex $-1 $296 $531 #
ellipse-curve $-1 -46.019360154476757 24.535314090113147 5.3513290661451904 0 0.52991927123019833 0.84804809178421925 2 0 0 1 I I #
point $-1 -44.019360154476757 27.289755767330618 9.7593571094968734 #
edge $-1 $532 1 $532 0 $299 $-1 forward 7 unknown #
vertex $-1 $300 $533 #
ellipse-curve $-1 -36.574616019736112 24.535314090113147 5.3513290661451904 0 0.52991927123019833 0.84804809178421925 2 0 0 1 I I #
point $-1 -34.574616019736112 27.289755767330618 9.7593571094968734 #
loop $-1 $-1 $311 $303 #
plane-surface $-1 0 31.76093788171567 0 0 -1 0 0 0 -1 forward_v I I I I #
coedge $-1 $430 $306 $308 $434 reversed $195 $-1 #
coedge $-1 $306 $429 $534 $535 reversed $195 $-1 #
coedge $-1 $314 $309 $306 $432 forward $304 $-1 #
edge $-1 $435 -6.5398452475703586 $536 2.4025189811997159 $431 $537 forward 7 unknown #
coedge $-1 $308 $307 $438 $538 reversed $123 $-1 #
edge $-1 $539 -63.521875763431339 $435 -52.977232935503835 $429 $540 forward 7 unknown #
vertex $-1 $310 $541 #
straight-curve $-1 17.482552436136714 22.818573652945592 12.553261830875925 1 0 0 I I #
coedge $-1 $534 $311 $314 $442 reversed $427 $-1 #
coedge $-1 $311 $534 $433 $538 forward $427 $-1 #
vertex $-1 $312 $542 #
straight-curve $-1 23.946236715076004 31.76093788171567 84.987381659598114 0 0 1 I I #
straight-curve $-1 23.946236715076004 -22.108667646016521 40.626918499850575 0 0.84804809178421925 -0.52991927123019833 I I #
edge $-1 $536 -45.983973029470853 $315 -23.946236715076004 $437 $543 forward 7 unknown #
point $-1 23.946236715076004 31.76093788171567 12.553261830875927 #
point $-1 23.946236715076004 22.818573652945595 12.553261830875925 #
edge $-1 $544 1 $544 0 $318 $-1 forward 7 unknown #
vertex $-1 $319 $545 #
ellipse-curve $-1 30.242732804903099 24.535314090113147 5.3513290661451904 0 0.52991927123019833 0.84804809178421925 2 0 0 1 I I #
point $-1 32.242732804903099 27.289755767330618 9.7593571094968734 #
edge $-1 $546 1 $546 0 $322 $-1 forward 7 unknown #
vertex $-1 $323 $547 #
ellipse-curve $-1 39.687476939643744 24.535314090113147 5.3513290661451904 0 0.52991927123019833 0.84804809178421925 2 0 0 1 I I #
point $-1 41.687476939643744 27.289755767330618 9.7593571094968734 #
plane-surface $-1 0 0 12.553261830875927 0 0 1 1 0 0 forward_v I I I I #
coedge $-1 $464 $463 $456 $548 forward $327 $-1 #
coedge $-1 $456 $329 $331 $460 reversed $217 $-1 #
coedge $-1 $329 $455 $454 $548 reversed $217 $-1 #
coedge $-1 $337 $332 $329 $458 forward $338 $-1 #
edge $-1 $461 -33.474648011436493 $549 -24.532283782666376 $457 $550 forward 7 unknown #
coedge $-1 $331 $330 $464 $551 reversed $137 $-1 #
edge $-1 $552 -8.3790584163743152e-015 $461 10.544642827927547 $455 $553 forward 7 unknown #
vertex $-1 $333 $554 #
straight-curve $-1 -20.648494043553217 -22.818573652945556 12.553261830875927 -1 0 0 I I #
coedge $-1 $454 $334 $337 $468 reversed $327 $-1 #
coedge $-1 $334 $454 $459 $551 forward $327 $-1 #
vertex $-1 $335 $555 #
straight-curve $-1 -30.27811992990901 -31.76093788171567 68.156648603731739 0 0 1 I I #
straight-curve $-1 -30.27811992990901 -31.760937881715662 6.965452388117825 0 -0.84804809178421925 -0.52991927123019833 I I #
edge $-1 $549 -52.315856244303859 $339 -30.27811992990901 $463 $556 forward 7 unknown #
point $-1 -30.27811992990901 -31.76093788171567 12.553261830875927 #
point $-1 -30.27811992990901 -22.818573652945553 12.553261830875927 #
edge $-1 $557 1 $557 0 $342 $-1 forward 7 unknown #
vertex $-1 $343 $558 #
ellipse-curve $-1 -46.019360154476757 -24.535314090113143 5.3513290661451869 0 -0.52991927123019833 0.84804809178421925 2 0 0 1 I I #
point $-1 -44.019360154476757 -27.289755767330615 9.7593571094968699 #
edge $-1 $559 1 $559 0 $346 $-1 forward 7 unknown #
vertex $-1 $347 $560 #
ellipse-curve $-1 -36.574616019736112 -24.535314090113143 5.3513290661451869 0 -0.52991927123019833 0.84804809178421925 2 0 0 1 I I #
point $-1 -34.574616019736112 -27.289755767330615 9.7593571094968699 #
plane-surface $-1 0 0 12.553261830875927 0 0 1 1 0 0 forward_v I I I I #
coedge $-1 $490 $489 $482 $561 forward $351 $-1 #
coedge $-1 $482 $353 $355 $486 reversed $239 $-1 #
coedge $-1 $353 $481 $480 $561 reversed $239 $-1 #
coedge $-1 $361 $356 $353 $484 forward $362 $-1 #
edge $-1 $487 -33.474648011436493 $562 -24.532283782666376 $483 $563 forward 7 unknown #
coedge $-1 $355 $354 $490 $564 reversed $151 $-1 #
edge $-1 $565 -8.3790584163743152e-015 $487 10.544642827927547 $481 $566 forward 7 unknown #
vertex $-1 $357 $567 #
straight-curve $-1 17.482552436136714 -22.818573652945556 12.553261830875927 -1 0 0 I I #
coedge $-1 $480 $358 $361 $494 reversed $351 $-1 #
coedge $-1 $358 $480 $485 $564 forward $351 $-1 #
vertex $-1 $359 $568 #
straight-curve $-1 45.983973029470853 -31.76093788171567 68.156648603731739 0 0 1 I I #
straight-curve $-1 45.983973029470853 -31.760937881715662 6.965452388117825 0 -0.84804809178421925 -0.52991927123019833 I I #
edge $-1 $562 23.946236715076004 $363 45.983973029470853 $489 $569 forward 7 unknown #
point $-1 45.983973029470853 -31.76093788171567 12.553261830875927 #
point $-1 45.983973029470853 -22.818573652945553 12.553261830875927 #
edge $-1 $570 1 $570 0 $366 $-1 forward 7 unknown #
vertex $-1 $367 $571 #
ellipse-curve $-1 30.242732804903099 -24.535314090113143 5.3513290661451869 0 -0.52991927123019833 0.84804809178421925 2 0 0 1 I I #
point $-1 32.242732804903099 -27.289755767330615 9.7593571094968699 #
edge $-1 $572 1 $572 0 $370 $-1 forward 7 unknown #
vertex $-1 $371 $573 #
ellipse-curve $-1 39.687476939643744 -24.535314090113143 5.3513290661451869 0 -0.52991927123019833 0.84804809178421925 2 0 0 1 I I #
point $-1 41.687476939643744 -27.289755767330615 9.7593571094968699 #
plane-surface $-1 76.262092959379856 0 0 -1 0 0 0 0 1 forward_v I I I I #
coedge $-1 $379 $377 $381 $510 reversed $261 $-1 #
edge $-1 $392 -12.553261830875927 $512 12.553261830875927 $391 $574 forward 7 unknown #
vertex $-1 $510 $575 #
straight-curve $-1 -76.262092959379856 -31.76093788171567 0 0 0 -1 I I #
edge $-1 $508 -31.76093788171567 $512 31.76093788171567 $506 $576 forward 7 unknown #
straight-curve $-1 0 -31.76093788171567 -12.553261830875927 -1 0 0 I I #
vertex $-1 $384 $577 #
straight-curve $-1 0 31.76093788171567 -12.553261830875927 1 0 0 I I #
point $-1 76.262092959379856 31.76093788171567 -12.553261830875927 #
point $-1 76.262092959379856 -31.76093788171567 -12.553261830875927 #
straight-curve $-1 -76.262092959379856 0 12.553261830875927 0 -1 0 I I #
point $-1 -76.262092959379856 31.76093788171567 12.553261830875927 #
point $-1 -76.262092959379856 -31.76093788171567 12.553261830875927 #
straight-curve $-1 76.262092959379856 -31.76093788171567 0 0 0 -1 I I #
straight-curve $-1 76.262092959379856 31.76093788171567 0 0 0 -1 I I #
edge $-1 $522 72.434119828722189 $525 78.021929271480275 $402 $578 forward 7 unknown #
vertex $-1 $416 $579 #
straight-curve $-1 -30.27811992990901 29.358418900515954 12.553261830875925 0 1 0 I I #
edge $-1 $525 9.6296258863557931 $413 31.667362200750642 $412 $580 forward 7 unknown #
vertex $-1 $524 $581 #
straight-curve $-1 -30.27811992990901 -22.108667646016521 40.626918499850575 0 -0.84804809178421925 0.52991927123019833 I I #
point $-1 -30.27811992990901 22.818573652945595 12.553261830875925 #
point $-1 -52.315856244303859 31.76093788171567 6.9654523881178392 #
straight-curve $-1 0 31.76093788171567 12.553261830875927 -1 0 0 I I #
vertex $-1 $419 $582 #
point $-1 -44.019360154476757 24.535314090113147 5.3513290661451904 #
vertex $-1 $423 $583 #
point $-1 -34.574616019736112 24.535314090113147 5.3513290661451904 #
coedge $-1 $438 $437 $430 $535 forward $427 $-1 #
edge $-1 $536 72.434119828722189 $539 78.021929271480275 $534 $584 forward 7 unknown #
vertex $-1 $442 $585 #
straight-curve $-1 45.983973029470853 29.358418900515954 12.553261830875925 0 1 0 I I #
edge $-1 $539 -28.501420593334139 $439 -6.4636842789392901 $438 $586 forward 7 unknown #
vertex $-1 $538 $587 #
straight-curve $-1 45.983973029470853 -22.108667646016521 40.626918499850575 0 -0.84804809178421925 0.52991927123019833 I I #
point $-1 45.983973029470853 22.818573652945595 12.553261830875925 #
point $-1 23.946236715076004 31.76093788171567 6.9654523881178392 #
straight-curve $-1 0 31.76093788171567 12.553261830875927 -1 0 0 I I #
vertex $-1 $445 $588 #
point $-1 32.242732804903099 24.535314090113147 5.3513290661451904 #
vertex $-1 $449 $589 #
point $-1 41.687476939643744 24.535314090113147 5.3513290661451904 #
edge $-1 $549 55.603386772855814 $552 61.191196215613921 $454 $590 forward 7 unknown #
vertex $-1 $468 $591 #
straight-curve $-1 -52.315856244303859 -56.293221664382045 12.553261830875925 0 -1 0 I I #
edge $-1 $552 -31.667362200750642 $465 -9.6296258863557931 $464 $592 forward 7 unknown #
vertex $-1 $551 $593 #
straight-curve $-1 -52.315856244303859 -31.760937881715662 6.965452388117825 0 0.84804809178421925 0.52991927123019833 I I #
point $-1 -52.315856244303859 -22.818573652945553 12.553261830875927 #
point $-1 -30.27811992990901 -31.76093788171567 6.9654523881178205 #
straight-curve $-1 0 -31.76093788171567 12.553261830875927 1 0 0 I I #
vertex $-1 $471 $594 #
point $-1 -44.019360154476757 -24.535314090113143 5.3513290661451869 #
vertex $-1 $475 $595 #
point $-1 -34.574616019736112 -24.535314090113143 5.3513290661451869 #
edge $-1 $562 55.603386772855814 $565 61.191196215613921 $480 $596 forward 7 unknown #
vertex $-1 $494 $597 #
straight-curve $-1 23.946236715076004 -56.293221664382045 12.553261830875925 0 -1 0 I I #
edge $-1 $565 6.4636842789392901 $491 28.501420593334139 $490 $598 forward 7 unknown #
vertex $-1 $564 $599 #
straight-curve $-1 23.946236715076004 -31.760937881715662 6.965452388117825 0 0.84804809178421925 0.52991927123019833 I I #
point $-1 23.946236715076004 -22.818573652945553 12.553261830875927 #
point $-1 45.983973029470853 -31.76093788171567 6.9654523881178205 #
straight-curve $-1 0 -31.76093788171567 12.553261830875927 1 0 0 I I #
vertex $-1 $497 $600 #
point $-1 32.242732804903099 -24.535314090113143 5.3513290661451869 #
vertex $-1 $501 $601 #
point $-1 41.687476939643744 -24.535314090113143 5.3513290661451869 #
straight-curve $-1 -76.262092959379856 31.76093788171567 0 0 0 -1 I I #
point $-1 -76.262092959379856 -31.76093788171567 -12.553261830875927 #
straight-curve $-1 -76.262092959379856 0 -12.553261830875927 0 1 0 I I #
point $-1 -76.262092959379856 31.76093788171567 -12.553261830875927 #
straight-curve $-1 -30.27811992990901 31.76093788171567 84.987381659598114 0 0 -1 I I #
point $-1 -30.27811992990901 31.76093788171567 12.553261830875927 #
straight-curve $-1 -20.648494043553217 31.760937881715673 6.9654523881178463 -1 0 0 I I #
point $-1 -30.27811992990901 31.76093788171567 6.9654523881178392 #
point $-1 -46.019360154476757 23.475475547652749 3.6552328825767515 #
point $-1 -36.574616019736112 23.475475547652749 3.6552328825767515 #
straight-curve $-1 45.983973029470853 31.76093788171567 84.987381659598114 0 0 -1 I I #
point $-1 45.983973029470853 31.76093788171567 12.553261830875927 #
straight-curve $-1 17.482552436136714 31.760937881715673 6.9654523881178463 -1 0 0 I I #
point $-1 45.983973029470853 31.76093788171567 6.9654523881178392 #
point $-1 30.242732804903099 23.475475547652749 3.6552328825767515 #
point $-1 39.687476939643744 23.475475547652749 3.6552328825767515 #
straight-curve $-1 -52.315856244303859 -31.76093788171567 68.156648603731739 0 0 -1 I I #
point $-1 -52.315856244303859 -31.76093788171567 12.553261830875927 #
straight-curve $-1 -20.648494043553217 -31.76093788171567 6.9654523881178214 1 0 0 I I #
point $-1 -52.315856244303859 -31.76093788171567 6.9654523881178205 #
point $-1 -46.019360154476757 -23.475475547652746 3.6552328825767479 #
point $-1 -36.574616019736112 -23.475475547652746 3.6552328825767479 #
straight-curve $-1 23.946236715076004 -31.76093788171567 68.156648603731739 0 0 -1 I I #
point $-1 23.946236715076004 -31.76093788171567 12.553261830875927 #
straight-curve $-1 17.482552436136714 -31.76093788171567 6.9654523881178214 1 0 0 I I #
point $-1 23.946236715076004 -31.76093788171567 6.9654523881178205 #
point $-1 30.242732804903099 -23.475475547652746 3.6552328825767479 #
point $-1 39.687476939643744 -23.475475547652746 3.6552328825767479 #
End-of-ACIS-data 