500 0 8 0           
7 Unknown 11 ACIS 5.0 NT 24 Fri Mar 26 18:19:30 1999 
-1 9.9999999999999995e-007 1e-010 
body $-1 $8 $-1 $9 #
body $-1 $10 $-1 $11 #
body $-1 $12 $-1 $13 #
body $-1 $14 $-1 $15 #
body $-1 $16 $-1 $17 #
body $-1 $18 $-1 $19 #
body $-1 $20 $-1 $21 #
body $-1 $22 $-1 $23 #
lump $-1 $-1 $24 $0 #
transform $-1 1 0 0 0 1 0 0 0 1 46.493118076113163 23.691242506334238 10.748074754414857 1 rotate no_reflect no_shear #
lump $-1 $-1 $25 $1 #
transform $-1 1 0 0 0 1 0 0 0 1 46.493118076113163 23.691242506334238 10.748074754414857 1 rotate no_reflect no_shear #
lump $-1 $-1 $26 $2 #
transform $-1 1 0 0 0 1 0 0 0 1 46.493118076113163 23.691242506334238 10.748074754414857 1 rotate no_reflect no_shear #
lump $-1 $-1 $27 $3 #
transform $-1 1 0 0 0 1 0 0 0 1 46.493118076113163 23.691242506334238 10.748074754414857 1 rotate no_reflect no_shear #
lump $-1 $-1 $28 $4 #
transform $-1 1 0 0 0 1 0 0 0 1 46.493118076113163 23.691242506334238 10.748074754414857 1 rotate no_reflect no_shear #
lump $-1 $-1 $29 $5 #
transform $-1 1 0 0 0 1 0 0 0 1 46.493118076113163 23.691242506334238 10.748074754414857 1 rotate no_reflect no_shear #
lump $-1 $-1 $30 $6 #
transform $-1 1 0 0 0 1 0 0 0 1 46.493118076113163 23.691242506334238 10.748074754414857 1 rotate no_reflect no_shear #
lump $-1 $-1 $31 $7 #
transform $-1 1 0 0 0 1 0 0 0 1 46.493118076113163 23.691242506334238 10.748074754414857 1 rotate no_reflect no_shear #
shell $-1 $-1 $-1 $32 $-1 $8 #
shell $-1 $-1 $-1 $33 $-1 $10 #
shell $-1 $-1 $-1 $34 $-1 $12 #
shell $-1 $-1 $-1 $35 $-1 $14 #
shell $-1 $-1 $-1 $36 $-1 $16 #
shell $-1 $-1 $-1 $37 $-1 $18 #
shell $-1 $-1 $-1 $38 $-1 $20 #
shell $-1 $-1 $-1 $39 $-1 $22 #
face $-1 $40 $41 $24 $-1 $42 forward single #
face $-1 $43 $44 $25 $-1 $45 forward single #
face $-1 $46 $47 $26 $-1 $48 reversed single #
face $-1 $49 $50 $27 $-1 $51 forward single #
face $-1 $52 $53 $28 $-1 $54 forward single #
face $-1 $55 $56 $29 $-1 $57 reversed single #
face $-1 $58 $59 $30 $-1 $60 forward single #
face $-1 $61 $62 $31 $-1 $63 forward single #
face $-1 $64 $65 $24 $-1 $66 reversed single #
loop $-1 $-1 $67 $32 #
plane-surface $-1 0 0 10.748074754414857 0 0 1 1 0 0 forward_v I I I I #
face $-1 $68 $69 $25 $-1 $70 reversed single #
loop $-1 $-1 $71 $33 #
plane-surface $-1 0 -17.870149903944778 9.397850759996059 0 0 1 1 0 0 forward_v I I I I #
face $-1 $72 $73 $26 $-1 $74 reversed single #
loop $-1 $-1 $75 $34 #
plane-surface $-1 -105.01125330033742 7.3372331333629202 77.633876932146194 0 1 0 -0.62932039886446345 0 0.77714595512881146 forward_v I I I I #
face $-1 $76 $77 $27 $-1 $78 forward single #
loop $-1 $79 $80 $35 #
cone-surface $-1 -42.306399931448688 10.248506031745418 6.9895750653605209 0.62932039886446345 0 -0.77714595512881146 0.77714595512881146 0 0.62932039886446345 1 I I 0 1 1 forward I I I I #
face $-1 $81 $82 $28 $-1 $83 forward single #
loop $-1 $84 $85 $36 #
cone-surface $-1 -42.306399931448688 14.615415379319156 6.9895750653605209 0.62932039886446345 0 -0.77714595512881146 0.77714595512881146 0 0.62932039886446345 1 I I 0 1 1 forward I I I I #
face $-1 $86 $87 $29 $-1 $88 reversed single #
loop $-1 $-1 $89 $37 #
plane-surface $-1 46.493119601876501 11.746793523828476 133.21176339985351 0 -1 0 -0.70710678939079041 0 -0.70710677298230451 forward_v I I I I #
face $-1 $90 $91 $30 $-1 $92 forward single #
loop $-1 $93 $94 $38 #
cone-surface $-1 41.503420846249362 5.3343075231212786 5.7583774305933613 -0.70710678939079041 0 -0.70710677298230451 0.70710677298230451 0 -0.70710678939079041 1 I I 0 1 1 forward I I I I #
face $-1 $95 $96 $31 $-1 $97 forward single #
loop $-1 $98 $99 $39 #
cone-surface $-1 41.503420846249362 9.1817991235455985 5.7583774305933613 -0.70710678939079041 0 -0.70710677298230451 0.70710677298230451 0 -0.70710678939079041 1 I I 0 1 1 forward I I I I #
face $-1 $100 $101 $24 $-1 $102 reversed single #
loop $-1 $-1 $103 $40 #
plane-surface $-1 0 0 -10.748074754414857 0 0 1 1 0 0 forward_v I I I I #
coedge $-1 $104 $105 $106 $107 forward $41 $-1 #
face $-1 $108 $109 $25 $-1 $110 reversed single #
loop $-1 $-1 $111 $43 #
plane-surface $-1 0 -17.870149903944778 6.397850759996059 0 0 1 1 0 0 forward_v I I I I #
coedge $-1 $112 $113 $114 $115 reversed $44 $-1 #
face $-1 $116 $117 $26 $-1 $118 reversed single #
loop $-1 $-1 $119 $46 #
plane-surface $-1 -46.493118076113156 12.431960705532287 5.3699996237910455 -0.62932039886446345 0 0.77714595512881146 0.77714595512881146 0 0.62932039886446345 forward_v I I I I #
coedge $-1 $120 $121 $122 $123 reversed $47 $-1 #
face $-1 $-1 $124 $27 $-1 $125 forward single #
loop $-1 $126 $127 $49 #
cone-surface $-1 -41.125706362297031 10.248506031745418 5.53153996405368 0.62932039886446345 0 -0.77714595512881146 0.38857297756440573 0 0.31466019943223172 1 I I -0.70710678118654746 0.70710678118654746 0.5 forward I I I I #
loop $-1 $-1 $128 $35 #
coedge $-1 $80 $80 $129 $130 reversed $50 $-1 #
face $-1 $-1 $131 $28 $-1 $132 forward single #
loop $-1 $133 $134 $52 #
cone-surface $-1 -41.125706362297031 14.615415379319156 5.53153996405368 0.62932039886446345 0 -0.77714595512881146 0.38857297756440573 0 0.31466019943223172 1 I I -0.70710678118654746 0.70710678118654746 0.5 forward I I I I #
loop $-1 $-1 $135 $36 #
coedge $-1 $85 $85 $136 $137 reversed $53 $-1 #
face $-1 $138 $139 $29 $-1 $140 reversed single #
loop $-1 $-1 $141 $55 #
plane-surface $-1 -19.258079301258107 7.2580533233334386 67.460566022482254 0.70710678939079041 0 0.70710677298230451 0.70710677298230451 0 -0.70710678939079041 forward_v I I I I #
coedge $-1 $142 $143 $144 $145 reversed $56 $-1 #
face $-1 $-1 $146 $30 $-1 $147 forward single #
loop $-1 $148 $149 $58 #
cone-surface $-1 40.679523934351693 5.3343075231212786 4.934480537814304 -0.70710678939079041 0 -0.70710677298230451 0.35355338649115226 0 -0.35355339469539521 1 I I -0.70710678118654746 0.70710678118654746 0.5 forward I I I I #
loop $-1 $-1 $150 $38 #
coedge $-1 $94 $94 $151 $152 reversed $59 $-1 #
face $-1 $-1 $153 $31 $-1 $154 forward single #
loop $-1 $155 $156 $61 #
cone-surface $-1 40.679523934351693 9.1817991235455985 4.934480537814304 -0.70710678939079041 0 -0.70710677298230451 0.35355338649115226 0 -0.35355339469539521 1 I I -0.70710678118654746 0.70710678118654746 0.5 forward I I I I #
loop $-1 $-1 $157 $39 #
coedge $-1 $99 $99 $158 $159 reversed $62 $-1 #
face $-1 $160 $161 $24 $-1 $162 reversed single #
loop $-1 $-1 $163 $64 #
plane-surface $-1 0 -23.691242506334238 0 0 1 0 0 0 1 forward_v I I I I #
coedge $-1 $164 $165 $166 $167 forward $65 $-1 #
coedge $-1 $168 $67 $169 $170 forward $41 $-1 #
coedge $-1 $67 $168 $171 $172 forward $41 $-1 #
coedge $-1 $173 $174 $67 $107 reversed $175 $-1 #
edge $-1 $176 -23.691242506334238 $177 23.691242506334238 $106 $178 forward 7 unknown #
face $-1 $179 $180 $25 $-1 $181 reversed single #
loop $-1 $-1 $182 $68 #
plane-surface $-1 0 -12.049057301555321 7.897850759996059 0 -1 0 0 0 -1 forward_v I I I I #
coedge $-1 $183 $184 $185 $186 reversed $69 $-1 #
coedge $-1 $187 $71 $188 $189 forward $44 $-1 #
coedge $-1 $71 $187 $190 $191 reversed $44 $-1 #
coedge $-1 $192 $193 $71 $115 forward $194 $-1 #
edge $-1 $195 3.1139823495829315 $196 14.756167554361845 $114 $197 forward 7 unknown #
face $-1 $198 $199 $26 $-1 $200 reversed single #
loop $-1 $-1 $201 $72 #
plane-surface $-1 -105.01125330033742 17.526688277701652 77.633876932146194 0 -1 0 0.62932039886446345 0 -0.77714595512881146 forward_v I I I I #
coedge $-1 $202 $203 $204 $205 reversed $73 $-1 #
coedge $-1 $121 $75 $206 $207 reversed $47 $-1 #
coedge $-1 $75 $120 $202 $208 reversed $47 $-1 #
coedge $-1 $204 $209 $75 $123 forward $210 $-1 #
edge $-1 $211 6.0125085740555448 $212 12.653878123945667 $122 $213 forward 7 unknown #
loop $-1 $-1 $129 $76 #
plane-surface $-1 -46.493118076113156 12.431960705532287 5.3699996237910455 -0.62932039886446345 0 0.77714595512881146 0.77714595512881146 0 0.62932039886446345 forward_v I I I I #
loop $-1 $-1 $214 $49 #
coedge $-1 $127 $127 $128 $215 reversed $77 $-1 #
coedge $-1 $128 $128 $127 $215 forward $79 $-1 #
coedge $-1 $129 $129 $80 $130 forward $124 $-1 #
edge $-1 $216 0 $216 6.2831853071796004 $129 $217 forward 7 unknown #
loop $-1 $-1 $136 $81 #
plane-surface $-1 -46.493118076113156 12.431960705532287 5.3699996237910455 -0.62932039886446345 0 0.77714595512881146 0.77714595512881146 0 0.62932039886446345 forward_v I I I I #
loop $-1 $-1 $218 $52 #
coedge $-1 $134 $134 $135 $219 reversed $82 $-1 #
coedge $-1 $135 $135 $134 $219 forward $84 $-1 #
coedge $-1 $136 $136 $85 $137 forward $131 $-1 #
edge $-1 $220 0 $220 6.2831853071796004 $136 $221 forward 7 unknown #
face $-1 $222 $223 $29 $-1 $224 forward single #
loop $-1 $-1 $225 $86 #
plane-surface $-1 46.493119601876501 2.7693131228384011 133.21176339985351 0 1 0 0.70710678939079041 0 0.70710677298230451 forward_v I I I I #
coedge $-1 $226 $227 $228 $229 reversed $87 $-1 #
coedge $-1 $143 $89 $230 $231 reversed $56 $-1 #
coedge $-1 $89 $142 $226 $232 reversed $56 $-1 #
coedge $-1 $228 $233 $89 $145 forward $223 $-1 #
edge $-1 $234 -23.246558275174912 $235 -14.207850849851837 $144 $236 forward 7 unknown #
loop $-1 $-1 $151 $90 #
plane-surface $-1 -19.258079301258107 7.2580533233334386 67.460566022482254 0.70710678939079041 0 0.70710677298230451 0.70710677298230451 0 -0.70710678939079041 forward_v I I I I #
loop $-1 $-1 $237 $58 #
coedge $-1 $149 $149 $150 $238 reversed $91 $-1 #
coedge $-1 $150 $150 $149 $238 forward $93 $-1 #
coedge $-1 $151 $151 $94 $152 forward $146 $-1 #
edge $-1 $239 0 $239 6.2831853071796004 $151 $240 forward 7 unknown #
loop $-1 $-1 $158 $95 #
plane-surface $-1 -19.258079301258107 7.2580533233334386 67.460566022482254 0.70710678939079041 0 0.70710677298230451 0.70710677298230451 0 -0.70710678939079041 forward_v I I I I #
loop $-1 $-1 $241 $61 #
coedge $-1 $156 $156 $157 $242 reversed $96 $-1 #
coedge $-1 $157 $157 $156 $242 forward $98 $-1 #
coedge $-1 $158 $158 $99 $159 forward $153 $-1 #
edge $-1 $243 0 $243 6.2831853071796004 $158 $244 forward 7 unknown #
face $-1 $245 $246 $24 $-1 $247 reversed single #
loop $-1 $-1 $248 $100 #
plane-surface $-1 -46.493118076113163 0 0 1 0 0 0 0 -1 forward_v I I I I #
coedge $-1 $249 $171 $250 $251 forward $101 $-1 #
coedge $-1 $252 $103 $249 $253 forward $65 $-1 #
coedge $-1 $103 $252 $254 $255 forward $65 $-1 #
coedge $-1 $174 $173 $103 $167 reversed $175 $-1 #
edge $-1 $256 -23.691242506334238 $257 23.691242506334238 $166 $258 forward 7 unknown #
coedge $-1 $105 $104 $259 $260 forward $41 $-1 #
coedge $-1 $261 $262 $104 $170 reversed $246 $-1 #
edge $-1 $177 -46.493118076113163 $263 46.493118076113163 $169 $264 forward 7 unknown #
coedge $-1 $163 $265 $105 $172 reversed $101 $-1 #
edge $-1 $266 -46.493118076113163 $176 46.493118076113163 $171 $267 forward 7 unknown #
coedge $-1 $166 $106 $265 $268 forward $175 $-1 #
coedge $-1 $106 $166 $261 $269 reversed $175 $-1 #
loop $-1 $-1 $173 $245 #
vertex $-1 $107 $270 #
vertex $-1 $107 $271 #
straight-curve $-1 46.493118076113163 0 10.748074754414857 0 1 0 I I #
face $-1 $272 $273 $25 $-1 $274 reversed single #
loop $-1 $-1 $275 $108 #
plane-surface $-1 -46.493118076113163 0 0 1 0 0 0 0 -1 forward_v I I I I #
coedge $-1 $276 $188 $193 $277 reversed $109 $-1 #
coedge $-1 $278 $111 $279 $280 reversed $69 $-1 #
coedge $-1 $111 $278 $276 $281 forward $69 $-1 #
coedge $-1 $193 $192 $111 $186 forward $194 $-1 #
edge $-1 $282 -14.756167554361845 $283 -3.1139823495829315 $185 $284 forward 7 unknown #
coedge $-1 $113 $112 $275 $285 reversed $44 $-1 #
coedge $-1 $182 $286 $112 $189 reversed $109 $-1 #
edge $-1 $195 -46.493118076113163 $287 46.493118076113163 $188 $288 forward 7 unknown #
coedge $-1 $289 $290 $113 $191 forward $273 $-1 #
edge $-1 $196 -46.493118076113163 $291 46.493118076113163 $190 $292 forward 7 unknown #
coedge $-1 $185 $114 $290 $293 forward $194 $-1 #
coedge $-1 $114 $185 $182 $277 forward $194 $-1 #
loop $-1 $-1 $114 $272 #
vertex $-1 $115 $294 #
vertex $-1 $293 $295 #
straight-curve $-1 46.493118076113163 -8.9350749519723891 9.397850759996059 0 -1 0 I I #
face $-1 $-1 $210 $26 $-1 $296 forward single #
loop $-1 $-1 $297 $116 #
plane-surface $-1 -46.493118076113163 0 0 1 0 0 0 0 -1 forward_v I I I I #
coedge $-1 $298 $299 $300 $301 reversed $117 $-1 #
coedge $-1 $302 $119 $121 $208 forward $73 $-1 #
coedge $-1 $119 $302 $298 $303 forward $73 $-1 #
coedge $-1 $300 $122 $119 $205 forward $210 $-1 #
edge $-1 $212 1.1212527805967767 $304 11.310707924935508 $204 $305 forward 7 unknown #
coedge $-1 $306 $307 $120 $207 forward $199 $-1 #
edge $-1 $308 -33.446938842282059 $211 -28.068863711658238 $206 $309 forward 7 unknown #
edge $-1 $212 -8.5458458685399847 $308 8.8756469145121664e-015 $121 $310 forward 7 unknown #
coedge $-1 $122 $300 $306 $311 forward $210 $-1 #
loop $-1 $-1 $300 $198 #
vertex $-1 $207 $312 #
vertex $-1 $123 $313 #
straight-curve $-1 -52.505626650168708 7.3372331333629202 10.748074754414858 1 0 0 I I #
coedge $-1 $214 $214 $-1 $314 reversed $126 $-1 #
edge $-1 $315 0 $315 6.2831853071796004 $127 $316 forward 7 unknown #
vertex $-1 $130 $317 #
ellipse-curve $-1 -43.172433301168105 10.248506031745418 8.0590371891029466 -0.62932039886446345 0 0.77714595512881146 0.77714595512881146 0 0.62932039886446345 1 I I #
coedge $-1 $218 $218 $-1 $318 reversed $133 $-1 #
edge $-1 $319 0 $319 6.2831853071796004 $134 $320 forward 7 unknown #
vertex $-1 $137 $321 #
ellipse-curve $-1 -43.172433301168105 14.615415379319156 8.0590371891029466 -0.62932039886446345 0 0.77714595512881146 0.77714595512881146 0 0.62932039886446345 1 I I #
face $-1 $-1 $322 $29 $-1 $323 reversed single #
loop $-1 $-1 $144 $138 #
plane-surface $-1 0 0 10.748074754414857 0 0 1 1 0 0 forward_v I I I I #
coedge $-1 $324 $325 $326 $327 reversed $139 $-1 #
coedge $-1 $328 $141 $143 $232 forward $87 $-1 #
coedge $-1 $141 $328 $324 $329 forward $87 $-1 #
coedge $-1 $326 $144 $141 $229 forward $223 $-1 #
edge $-1 $235 -8.1177668621617567 $330 0.85971353882831814 $228 $331 forward 7 unknown #
coedge $-1 $332 $333 $142 $231 forward $322 $-1 #
edge $-1 $334 -64.896514580579108 $234 -55.857806945511896 $230 $335 forward 7 unknown #
edge $-1 $235 80.203573376700561 $334 92.986236152226368 $143 $336 forward 7 unknown #
coedge $-1 $144 $326 $332 $337 forward $223 $-1 #
vertex $-1 $231 $338 #
vertex $-1 $145 $339 #
straight-curve $-1 23.24655980093825 11.746793523828476 10.748074754414858 -1 0 0 I I #
coedge $-1 $237 $237 $-1 $340 reversed $148 $-1 #
edge $-1 $341 0 $341 6.2831853071796004 $149 $342 forward 7 unknown #
vertex $-1 $152 $343 #
ellipse-curve $-1 41.973764363451622 5.3343075231212786 6.2287209368812491 0.70710678939079041 0 0.70710677298230451 0.70710677298230451 0 -0.70710678939079041 1 I I #
coedge $-1 $241 $241 $-1 $344 reversed $155 $-1 #
edge $-1 $345 0 $345 6.2831853071796004 $156 $346 forward 7 unknown #
vertex $-1 $159 $347 #
ellipse-curve $-1 41.973764363451622 9.1817991235455985 6.2287209368812491 0.70710678939079041 0 0.70710677298230451 0.70710677298230451 0 -0.70710678939079041 1 I I #
face $-1 $-1 $175 $24 $-1 $348 reversed single #
loop $-1 $-1 $261 $160 #
plane-surface $-1 0 23.691242506334238 0 0 -1 0 0 0 -1 forward_v I I I I #
coedge $-1 $349 $259 $262 $350 forward $161 $-1 #
coedge $-1 $265 $163 $164 $253 reversed $101 $-1 #
coedge $-1 $259 $349 $163 $251 reversed $161 $-1 #
edge $-1 $266 -10.748074754414857 $351 10.748074754414857 $250 $352 forward 7 unknown #
coedge $-1 $165 $164 $349 $353 forward $65 $-1 #
edge $-1 $257 -46.493118076113163 $351 46.493118076113163 $249 $354 forward 7 unknown #
coedge $-1 $262 $261 $165 $255 reversed $246 $-1 #
edge $-1 $355 -46.493118076113163 $256 46.493118076113163 $254 $356 forward 7 unknown #
vertex $-1 $167 $357 #
vertex $-1 $268 $358 #
straight-curve $-1 46.493118076113163 0 -10.748074754414857 0 -1 0 I I #
coedge $-1 $248 $250 $168 $260 reversed $161 $-1 #
edge $-1 $263 -23.691242506334238 $266 23.691242506334238 $259 $359 forward 7 unknown #
coedge $-1 $254 $169 $174 $269 forward $246 $-1 #
coedge $-1 $169 $254 $248 $350 reversed $246 $-1 #
vertex $-1 $170 $360 #
straight-curve $-1 0 23.691242506334238 10.748074754414857 -1 0 0 I I #
coedge $-1 $171 $249 $173 $268 reversed $101 $-1 #
vertex $-1 $260 $361 #
straight-curve $-1 0 -23.691242506334238 10.748074754414857 1 0 0 I I #
edge $-1 $176 -10.748074754414857 $257 10.748074754414857 $173 $362 forward 7 unknown #
edge $-1 $177 -10.748074754414857 $256 10.748074754414857 $174 $363 forward 7 unknown #
point $-1 46.493118076113163 -23.691242506334238 10.748074754414857 #
point $-1 46.493118076113163 23.691242506334238 10.748074754414857 #
face $-1 $-1 $194 $25 $-1 $364 reversed single #
loop $-1 $-1 $190 $179 #
plane-surface $-1 0 -23.691242506334238 0 0 1 0 0 0 1 forward_v I I I I #
coedge $-1 $365 $366 $187 $285 forward $180 $-1 #
coedge $-1 $286 $182 $184 $281 reversed $109 $-1 #
edge $-1 $283 2.4489253799980295 $195 5.4489253799980295 $193 $367 forward 7 unknown #
coedge $-1 $184 $183 $368 $369 reversed $69 $-1 #
coedge $-1 $290 $289 $183 $280 forward $273 $-1 #
edge $-1 $370 -46.493118076113163 $282 46.493118076113163 $279 $371 forward 7 unknown #
edge $-1 $372 -46.493118076113163 $283 46.493118076113163 $276 $373 forward 7 unknown #
vertex $-1 $280 $374 #
vertex $-1 $186 $375 #
straight-curve $-1 46.493118076113163 -8.9350749519723891 6.397850759996059 0 1 0 I I #
edge $-1 $291 -14.756167554361845 $287 -3.1139823495829315 $275 $376 forward 7 unknown #
coedge $-1 $188 $276 $365 $377 reversed $109 $-1 #
vertex $-1 $285 $378 #
straight-curve $-1 0 -12.049057301555321 9.397850759996059 -1 0 0 I I #
coedge $-1 $279 $190 $366 $379 forward $273 $-1 #
coedge $-1 $190 $279 $192 $293 reversed $273 $-1 #
vertex $-1 $379 $380 #
straight-curve $-1 0 -23.691242506334238 9.397850759996059 -1 0 0 I I #
edge $-1 $196 -9.397850759996059 $282 -6.397850759996059 $192 $381 forward 7 unknown #
point $-1 46.493118076113163 -12.049057301555321 9.397850759996059 #
point $-1 46.493118076113163 -23.691242506334234 9.397850759996059 #
plane-surface $-1 0 0 10.748074754414857 0 0 1 1 0 0 forward_v I I I I #
coedge $-1 $307 $306 $299 $382 forward $199 $-1 #
coedge $-1 $299 $201 $203 $303 reversed $117 $-1 #
coedge $-1 $201 $298 $297 $382 reversed $117 $-1 #
coedge $-1 $209 $204 $201 $301 forward $210 $-1 #
edge $-1 $304 -12.653878123945667 $383 -6.0125085740555448 $300 $384 forward 7 unknown #
coedge $-1 $203 $202 $307 $385 reversed $73 $-1 #
edge $-1 $386 -8.8756469145121664e-015 $304 8.5458458685399847 $298 $387 forward 7 unknown #
vertex $-1 $205 $388 #
straight-curve $-1 -39.851748526223041 6.2159803527661435 10.748074754414857 0 1 0 I I #
coedge $-1 $297 $206 $209 $311 reversed $199 $-1 #
coedge $-1 $206 $297 $302 $385 forward $199 $-1 #
vertex $-1 $207 $389 #
straight-curve $-1 -46.493118076113163 7.3372331333629202 38.816938466073097 0 0 1 I I #
straight-curve $-1 -46.493118076113156 7.3372331333629202 5.3699996237910455 -0.77714595512881146 0 -0.62932039886446345 I I #
edge $-1 $383 -17.526688277701652 $211 -7.3372331333629202 $306 $390 forward 7 unknown #
point $-1 -46.493118076113163 7.3372331333629202 10.748074754414857 #
point $-1 -39.851748526223041 7.3372331333629202 10.748074754414857 #
edge $-1 $391 1 $391 0 $214 $-1 forward 7 unknown #
vertex $-1 $215 $392 #
ellipse-curve $-1 -41.440366561729263 10.248506031745418 5.9201129416180853 -0.62932039886446345 0 0.77714595512881146 0.77714595512881146 0 0.62932039886446345 1 I I #
point $-1 -42.395287346039296 10.248506031745418 8.6883575879674186 #
edge $-1 $393 1 $393 0 $218 $-1 forward 7 unknown #
vertex $-1 $219 $394 #
ellipse-curve $-1 -41.440366561729263 14.615415379319156 5.9201129416180853 -0.62932039886446345 0 0.77714595512881146 0.77714595512881146 0 0.62932039886446345 1 I I #
point $-1 -42.395287346039296 14.615415379319156 8.6883575879674186 #
loop $-1 $-1 $230 $222 #
plane-surface $-1 46.493118076113163 0 0 -1 0 0 0 0 1 forward_v I I I I #
coedge $-1 $325 $225 $227 $329 reversed $139 $-1 #
coedge $-1 $225 $324 $395 $396 reversed $139 $-1 #
coedge $-1 $233 $228 $225 $327 forward $223 $-1 #
edge $-1 $330 14.207850849851837 $397 23.246558275174912 $326 $398 forward 7 unknown #
coedge $-1 $227 $226 $333 $399 reversed $87 $-1 #
edge $-1 $400 -92.986236152226368 $330 -80.203573376700561 $324 $401 forward 7 unknown #
vertex $-1 $229 $402 #
straight-curve $-1 37.454410650790088 3.6290266616667193 10.748074754414851 0 -1 0 I I #
coedge $-1 $395 $230 $233 $337 reversed $322 $-1 #
coedge $-1 $230 $395 $328 $399 forward $322 $-1 #
vertex $-1 $231 $403 #
straight-curve $-1 46.493118076113163 11.746793523828476 66.605881699926755 0 0 1 I I #
straight-curve $-1 -19.258079301258107 11.746793523828476 67.460566022482254 0.70710677298230451 0 -0.70710678939079041 I I #
edge $-1 $397 2.7693131228384011 $234 11.746793523828476 $332 $404 forward 7 unknown #
point $-1 46.493118076113163 11.746793523828476 10.748074754414857 #
point $-1 37.454410650790088 11.746793523828476 10.748074754414858 #
edge $-1 $405 1 $405 0 $237 $-1 forward 7 unknown #
vertex $-1 $238 $406 #
ellipse-curve $-1 41.033077329047089 5.3343075231212786 5.2880339243054566 0.70710678939079041 0 0.70710677298230451 0.70710677298230451 0 -0.70710678939079041 1 I I #
point $-1 42.680871136433943 5.3343075231212786 5.5216141474904772 #
edge $-1 $407 1 $407 0 $241 $-1 forward 7 unknown #
vertex $-1 $242 $408 #
ellipse-curve $-1 41.033077329047089 9.1817991235455985 5.2880339243054566 0.70710678939079041 0 0.70710677298230451 0.70710677298230451 0 -0.70710678939079041 1 I I #
point $-1 42.680871136433943 9.1817991235455985 5.5216141474904772 #
plane-surface $-1 46.493118076113163 0 0 -1 0 0 0 0 1 forward_v I I I I #
coedge $-1 $250 $248 $252 $353 reversed $161 $-1 #
edge $-1 $263 -10.748074754414857 $355 10.748074754414857 $262 $409 forward 7 unknown #
vertex $-1 $353 $410 #
straight-curve $-1 -46.493118076113163 -23.691242506334238 0 0 0 -1 I I #
edge $-1 $351 -23.691242506334238 $355 23.691242506334238 $349 $411 forward 7 unknown #
straight-curve $-1 0 -23.691242506334238 -10.748074754414857 -1 0 0 I I #
vertex $-1 $255 $412 #
straight-curve $-1 0 23.691242506334238 -10.748074754414857 1 0 0 I I #
point $-1 46.493118076113163 23.691242506334238 -10.748074754414857 #
point $-1 46.493118076113163 -23.691242506334238 -10.748074754414857 #
straight-curve $-1 -46.493118076113163 0 10.748074754414857 0 -1 0 I I #
point $-1 -46.493118076113163 23.691242506334238 10.748074754414857 #
point $-1 -46.493118076113163 -23.691242506334238 10.748074754414857 #
straight-curve $-1 46.493118076113163 -23.691242506334238 0 0 0 -1 I I #
straight-curve $-1 46.493118076113163 23.691242506334238 0 0 0 -1 I I #
plane-surface $-1 46.493118076113163 0 0 -1 0 0 0 0 1 forward_v I I I I #
coedge $-1 $368 $275 $286 $377 forward $180 $-1 #
coedge $-1 $275 $368 $289 $379 reversed $180 $-1 #
straight-curve $-1 46.493118076113163 -12.049057301555321 3.9489253799980295 0 0 1 I I #
coedge $-1 $366 $365 $278 $369 forward $180 $-1 #
edge $-1 $372 3.1139823495829315 $370 14.756167554361845 $368 $413 forward 7 unknown #
vertex $-1 $280 $414 #
straight-curve $-1 0 -23.691242506334238 6.397850759996059 1 0 0 I I #
vertex $-1 $369 $415 #
straight-curve $-1 0 -12.049057301555321 6.397850759996059 1 0 0 I I #
point $-1 46.493118076113163 -23.691242506334234 6.397850759996059 #
point $-1 46.493118076113163 -12.049057301555321 6.397850759996059 #
straight-curve $-1 -46.493118076113163 -8.9350749519723891 9.397850759996059 0 1 0 I I #
edge $-1 $287 -5.4489253799980295 $372 -2.4489253799980295 $365 $416 forward 7 unknown #
point $-1 -46.493118076113163 -12.049057301555321 9.397850759996059 #
edge $-1 $291 -9.397850759996059 $370 -6.397850759996059 $366 $417 forward 7 unknown #
point $-1 -46.493118076113163 -23.691242506334234 9.397850759996059 #
straight-curve $-1 46.493118076113163 -23.691242506334238 0 0 0 -1 I I #
edge $-1 $383 28.068863711658238 $386 33.446938842282059 $297 $418 forward 7 unknown #
vertex $-1 $311 $419 #
straight-curve $-1 -52.505626650168708 17.526688277701652 10.748074754414858 -1 0 0 I I #
edge $-1 $386 -11.310707924935508 $308 -1.1212527805967767 $307 $420 forward 7 unknown #
vertex $-1 $385 $421 #
straight-curve $-1 -46.493118076113156 17.526688277701652 5.3699996237910455 0.77714595512881146 0 0.62932039886446345 I I #
point $-1 -39.851748526223041 17.526688277701652 10.748074754414857 #
point $-1 -46.493118076113163 7.3372331333629202 5.3699996237910401 #
straight-curve $-1 -46.493118076113163 0 10.748074754414857 0 -1 0 I I #
vertex $-1 $314 $422 #
point $-1 -40.663220606600454 10.248506031745418 6.5494333404825493 #
vertex $-1 $318 $423 #
point $-1 -40.663220606600454 14.615415379319156 6.5494333404825493 #
coedge $-1 $333 $332 $325 $396 forward $322 $-1 #
edge $-1 $397 55.857806945511896 $400 64.896514580579108 $395 $424 forward 7 unknown #
vertex $-1 $337 $425 #
straight-curve $-1 23.24655980093825 2.7693131228384011 10.748074754414858 1 0 0 I I #
edge $-1 $400 -0.85971353882831814 $334 8.1177668621617567 $333 $426 forward 7 unknown #
vertex $-1 $399 $427 #
straight-curve $-1 -19.258079301258107 2.7693131228384011 67.460566022482254 -0.70710677298230451 0 0.70710678939079041 I I #
point $-1 37.454410650790088 2.7693131228384011 10.748074754414858 #
point $-1 46.493118076113163 11.746793523828476 1.7093671193476467 #
straight-curve $-1 46.493118076113163 0 10.748074754414857 0 1 0 I I #
vertex $-1 $340 $428 #
point $-1 41.740184102029389 5.3343075231212786 4.5809271349146661 #
vertex $-1 $344 $429 #
point $-1 41.740184102029389 9.1817991235455985 4.5809271349146661 #
straight-curve $-1 -46.493118076113163 23.691242506334238 0 0 0 -1 I I #
point $-1 -46.493118076113163 -23.691242506334238 -10.748074754414857 #
straight-curve $-1 -46.493118076113163 0 -10.748074754414857 0 1 0 I I #
point $-1 -46.493118076113163 23.691242506334238 -10.748074754414857 #
straight-curve $-1 -46.493118076113163 -8.9350749519723891 6.397850759996059 0 -1 0 I I #
point $-1 -46.493118076113163 -23.691242506334234 6.397850759996059 #
point $-1 -46.493118076113163 -12.049057301555321 6.397850759996059 #
straight-curve $-1 -46.493118076113163 -12.049057301555321 3.9489253799980295 0 0 -1 I I #
straight-curve $-1 -46.493118076113163 -23.691242506334238 0 0 0 -1 I I #
straight-curve $-1 -46.493118076113163 17.526688277701652 38.816938466073097 0 0 -1 I I #
point $-1 -46.493118076113163 17.526688277701652 10.748074754414857 #
straight-curve $-1 -46.493118076113163 6.2159803527661435 5.3699996237910401 0 -1 0 I I #
point $-1 -46.493118076113163 17.526688277701652 5.3699996237910401 #
point $-1 -40.811046162864798 10.248506031745418 5.1429669864892746 #
point $-1 -40.811046162864798 14.615415379319156 5.1429669864892746 #
straight-curve $-1 46.493118076113163 2.7693131228384011 66.605881699926755 0 0 -1 I I #
point $-1 46.493118076113163 2.7693131228384011 10.748074754414857 #
straight-curve $-1 46.493118076113163 3.6290266616667193 1.7093671193476467 0 1 0 I I #
point $-1 46.493118076113163 2.7693131228384011 1.7093671193476467 #
point $-1 40.325970539656296 5.3343075231212786 4.5809271513231513 #
point $-1 40.325970539656296 9.1817991235455985 4.5809271513231513 #
End-of-ACIS-data 