500 0 8 0           
7 Unknown 11 ACIS 5.0 NT 24 Thu Mar 25 18:10:04 1999 
-1 9.9999999999999995e-007 1e-010 
body $-1 $8 $-1 $9 #
body $-1 $10 $-1 $11 #
body $-1 $12 $-1 $13 #
body $-1 $14 $-1 $15 #
body $-1 $16 $-1 $17 #
body $-1 $18 $-1 $19 #
body $-1 $20 $-1 $21 #
body $-1 $22 $-1 $23 #
lump $-1 $-1 $24 $0 #
transform $-1 1 0 0 0 1 0 0 0 1 50.865810113834044 22.643644898448532 8.8641020878444561 1 rotate no_reflect no_shear #
lump $-1 $-1 $25 $1 #
transform $-1 1 0 0 0 1 0 0 0 1 50.865810113834044 22.643644898448532 8.8641020878444561 1 rotate no_reflect no_shear #
lump $-1 $-1 $26 $2 #
transform $-1 1 0 0 0 1 0 0 0 1 50.865810113834044 22.643644898448532 8.8641020878444561 1 rotate no_reflect no_shear #
lump $-1 $-1 $27 $3 #
transform $-1 1 0 0 0 1 0 0 0 1 50.865810113834044 22.643644898448532 8.8641020878444561 1 rotate no_reflect no_shear #
lump $-1 $-1 $28 $4 #
transform $-1 1 0 0 0 1 0 0 0 1 50.865810113834044 22.643644898448532 8.8641020878444561 1 rotate no_reflect no_shear #
lump $-1 $-1 $29 $5 #
transform $-1 1 0 0 0 1 0 0 0 1 50.865810113834044 22.643644898448532 8.8641020878444561 1 rotate no_reflect no_shear #
lump $-1 $-1 $30 $6 #
transform $-1 1 0 0 0 1 0 0 0 1 50.865810113834044 22.643644898448532 8.8641020878444561 1 rotate no_reflect no_shear #
lump $-1 $-1 $31 $7 #
transform $-1 1 0 0 0 1 0 0 0 1 50.865810113834044 22.643644898448532 8.8641020878444561 1 rotate no_reflect no_shear #
shell $-1 $-1 $-1 $32 $-1 $8 #
shell $-1 $-1 $-1 $33 $-1 $10 #
shell $-1 $-1 $-1 $34 $-1 $12 #
shell $-1 $-1 $-1 $35 $-1 $14 #
shell $-1 $-1 $-1 $36 $-1 $16 #
shell $-1 $-1 $-1 $37 $-1 $18 #
shell $-1 $-1 $-1 $38 $-1 $20 #
shell $-1 $-1 $-1 $39 $-1 $22 #
face $-1 $40 $41 $24 $-1 $42 reversed single #
face $-1 $43 $44 $25 $-1 $45 forward single #
face $-1 $46 $47 $26 $-1 $48 forward single #
face $-1 $49 $50 $27 $-1 $51 reversed single #
face $-1 $52 $53 $28 $-1 $54 forward single #
face $-1 $55 $56 $29 $-1 $57 forward single #
face $-1 $58 $59 $30 $-1 $60 reversed single #
face $-1 $61 $62 $31 $-1 $63 forward single #
face $-1 $64 $65 $24 $-1 $66 forward single #
loop $-1 $-1 $67 $32 #
plane-surface $-1 0 -22.643644898448532 0 0 1 0 0 0 1 forward_v I I I I #
face $-1 $68 $69 $25 $-1 $70 forward single #
loop $-1 $-1 $71 $33 #
plane-surface $-1 0 -22.643644898448532 0 0 1 0 0 0 1 forward_v I I I I #
face $-1 $72 $73 $26 $-1 $74 forward single #
loop $-1 $-1 $75 $34 #
plane-surface $-1 0 22.643644898448532 0 0 -1 0 0 0 -1 forward_v I I I I #
face $-1 $76 $77 $27 $-1 $78 reversed single #
loop $-1 $-1 $79 $35 #
plane-surface $-1 45.844812844484622 13.131070454915257 146.21489027961317 0 -1 0 -0.68199836817093118 0 -0.7313536940579346 forward_v I I I I #
face $-1 $80 $81 $28 $-1 $82 forward single #
loop $-1 $83 $84 $36 #
cone-surface $-1 47.076176691259349 8.1723444040180908 5.2825217153706108 -0.68199836817093118 0 -0.7313536940579346 0.18283842351448365 0 -0.17049959204273279 1 I I 0 1 0.25 forward I I I I #
face $-1 $85 $86 $29 $-1 $87 forward single #
loop $-1 $88 $89 $37 #
cone-surface $-1 47.076176691259349 11.147580034556388 5.2825217153706108 -0.68199836817093118 0 -0.7313536940579346 0.18283842351448365 0 -0.17049959204273279 1 I I 0 1 0.25 forward I I I I #
face $-1 $90 $91 $30 $-1 $92 reversed single #
loop $-1 $-1 $93 $38 #
plane-surface $-1 -125.26760797982659 5.5095683105765012 70.681326142027146 0 1 0 -0.73135370988377701 0 0.68199835119979291 forward_v I I I I #
face $-1 $94 $95 $31 $-1 $96 forward single #
loop $-1 $97 $98 $39 #
cone-surface $-1 -45.266908336259881 9.320319382745879 3.1498376591856236 0.73135370988377701 0 -0.68199835119979291 1.0229975267996894 0 1.0970305648256655 1 I I 0 1 1.5 forward I I I I #
face $-1 $99 $100 $24 $-1 $101 reversed single #
loop $-1 $-1 $102 $40 #
plane-surface $-1 0 0 8.8641020878444561 0 0 1 1 0 0 forward_v I I I I #
coedge $-1 $103 $104 $105 $106 reversed $41 $-1 #
face $-1 $107 $108 $25 $-1 $109 reversed single #
loop $-1 $-1 $110 $43 #
plane-surface $-1 0 0 8.8641020878444561 0 0 1 1 0 0 forward_v I I I I #
coedge $-1 $111 $112 $113 $114 forward $44 $-1 #
face $-1 $115 $116 $26 $-1 $117 reversed single #
loop $-1 $-1 $118 $46 #
plane-surface $-1 0 0 8.8641020878444561 0 0 1 1 0 0 forward_v I I I I #
coedge $-1 $119 $120 $121 $122 forward $47 $-1 #
face $-1 $123 $124 $27 $-1 $125 reversed single #
loop $-1 $-1 $126 $49 #
plane-surface $-1 -23.535986142169904 9.659962219287241 71.81309402360921 0.68199836817093118 0 0.7313536940579346 0.7313536940579346 0 -0.68199836817093118 forward_v I I I I #
coedge $-1 $127 $128 $129 $130 reversed $50 $-1 #
face $-1 $-1 $131 $28 $-1 $132 forward single #
loop $-1 $133 $134 $52 #
cone-surface $-1 46.649927711152515 8.1723444040180908 4.825425656584402 -0.68199836817093118 0 -0.7313536940579346 0.091419211757241825 0 -0.085249796021366397 1 I I -0.70710678118654746 0.70710678118654746 0.125 forward I I I I #
loop $-1 $-1 $135 $36 #
coedge $-1 $84 $84 $136 $137 reversed $53 $-1 #
face $-1 $-1 $138 $29 $-1 $139 forward single #
loop $-1 $140 $141 $55 #
cone-surface $-1 46.649927711152515 11.147580034556388 4.825425656584402 -0.68199836817093118 0 -0.7313536940579346 0.091419211757241825 0 -0.085249796021366397 1 I I -0.70710678118654746 0.70710678118654746 0.125 forward I I I I #
loop $-1 $-1 $142 $37 #
coedge $-1 $89 $89 $143 $144 reversed $56 $-1 #
face $-1 $145 $146 $30 $-1 $147 reversed single #
loop $-1 $-1 $148 $58 #
plane-surface $-1 -50.865810113834044 9.320319382745879 1.3005288818740155 -0.73135370988377701 0 0.68199835119979291 0.68199835119979291 0 0.73135370988377701 forward_v I I I I #
coedge $-1 $149 $150 $151 $152 reversed $59 $-1 #
face $-1 $-1 $153 $31 $-1 $154 forward single #
loop $-1 $155 $156 $61 #
cone-surface $-1 -42.646064250429617 9.320319382745879 0.70586107011216903 0.73135370988377701 0 -0.68199835119979291 0.51149876339984468 0 0.54851528241283276 1 I I -0.70710678118654757 0.70710678118654757 0.75 forward I I I I #
loop $-1 $-1 $157 $39 #
coedge $-1 $98 $98 $158 $159 reversed $62 $-1 #
face $-1 $160 $161 $24 $-1 $162 reversed single #
loop $-1 $-1 $163 $64 #
plane-surface $-1 0 0 -8.8641020878444561 0 0 1 1 0 0 forward_v I I I I #
coedge $-1 $164 $165 $166 $167 forward $65 $-1 #
coedge $-1 $168 $67 $169 $170 reversed $41 $-1 #
coedge $-1 $67 $168 $171 $172 forward $41 $-1 #
coedge $-1 $173 $163 $67 $106 forward $100 $-1 #
edge $-1 $174 -50.865810113834044 $175 50.865810113834044 $67 $176 forward 7 unknown #
face $-1 $177 $178 $25 $-1 $179 reversed single #
loop $-1 $-1 $180 $68 #
plane-surface $-1 -50.865810113834044 0 0 1 0 0 0 0 -1 forward_v I I I I #
coedge $-1 $181 $182 $112 $183 forward $69 $-1 #
coedge $-1 $184 $71 $185 $186 reversed $44 $-1 #
coedge $-1 $71 $184 $110 $183 reversed $44 $-1 #
coedge $-1 $187 $188 $71 $114 reversed $189 $-1 #
edge $-1 $190 -8.8641020878444561 $191 8.8641020878444561 $113 $192 forward 7 unknown #
face $-1 $193 $194 $26 $-1 $195 reversed single #
loop $-1 $-1 $196 $72 #
plane-surface $-1 -49.365810113834044 32.156219341981803 0 0 -1 0 0 0 -1 forward_v I I I I #
coedge $-1 $197 $198 $119 $199 forward $73 $-1 #
coedge $-1 $200 $75 $118 $199 reversed $47 $-1 #
coedge $-1 $75 $200 $201 $202 reversed $47 $-1 #
coedge $-1 $203 $204 $75 $122 reversed $194 $-1 #
edge $-1 $205 -8.8641020878444561 $206 8.8641020878444561 $121 $207 forward 7 unknown #
face $-1 $208 $209 $27 $-1 $210 forward single #
loop $-1 $-1 $211 $76 #
plane-surface $-1 45.844812844484622 6.1888539836592251 146.21489027961317 0 1 0 0.68199836817093118 0 0.7313536940579346 forward_v I I I I #
coedge $-1 $212 $213 $214 $215 reversed $77 $-1 #
coedge $-1 $128 $79 $216 $217 reversed $50 $-1 #
coedge $-1 $79 $127 $212 $218 reversed $50 $-1 #
coedge $-1 $214 $219 $79 $130 forward $209 $-1 #
edge $-1 $220 -27.943403691591733 $221 -21.046135214613294 $129 $222 forward 7 unknown #
loop $-1 $-1 $136 $80 #
plane-surface $-1 -23.535986142169904 9.659962219287241 71.81309402360921 0.68199836817093118 0 0.7313536940579346 0.7313536940579346 0 -0.68199836817093118 forward_v I I I I #
loop $-1 $-1 $223 $52 #
coedge $-1 $134 $134 $135 $224 reversed $81 $-1 #
coedge $-1 $135 $135 $134 $224 forward $83 $-1 #
coedge $-1 $136 $136 $84 $137 forward $131 $-1 #
edge $-1 $225 0 $225 6.2831853071796004 $136 $226 forward 7 unknown #
loop $-1 $-1 $143 $85 #
plane-surface $-1 -23.535986142169904 9.659962219287241 71.81309402360921 0.68199836817093118 0 0.7313536940579346 0.7313536940579346 0 -0.68199836817093118 forward_v I I I I #
loop $-1 $-1 $227 $55 #
coedge $-1 $141 $141 $142 $228 reversed $86 $-1 #
coedge $-1 $142 $142 $141 $228 forward $88 $-1 #
coedge $-1 $143 $143 $89 $144 forward $138 $-1 #
edge $-1 $229 0 $229 6.2831853071796004 $143 $230 forward 7 unknown #
face $-1 $231 $232 $30 $-1 $233 reversed single #
loop $-1 $-1 $234 $90 #
plane-surface $-1 -125.26760797982659 13.131070454915257 70.681326142027146 0 -1 0 0.73135370988377701 0 -0.68199835119979291 forward_v I I I I #
coedge $-1 $235 $236 $237 $238 reversed $91 $-1 #
coedge $-1 $150 $93 $239 $240 reversed $59 $-1 #
coedge $-1 $93 $149 $235 $241 reversed $59 $-1 #
coedge $-1 $237 $242 $93 $152 forward $243 $-1 #
edge $-1 $244 11.767993876079252 $245 18.821139824392702 $151 $246 forward 7 unknown #
loop $-1 $-1 $158 $94 #
plane-surface $-1 -50.865810113834044 9.320319382745879 1.3005288818740155 -0.73135370988377701 0 0.68199835119979291 0.68199835119979291 0 0.73135370988377701 forward_v I I I I #
loop $-1 $-1 $247 $61 #
coedge $-1 $156 $156 $157 $248 reversed $95 $-1 #
coedge $-1 $157 $157 $156 $248 forward $97 $-1 #
coedge $-1 $158 $158 $98 $159 forward $153 $-1 #
edge $-1 $249 0 $249 6.2831853071796004 $158 $250 forward 7 unknown #
face $-1 $251 $252 $24 $-1 $253 reversed single #
loop $-1 $-1 $254 $99 #
plane-surface $-1 -50.865810113834044 0 0 1 0 0 0 0 -1 forward_v I I I I #
coedge $-1 $105 $255 $256 $257 forward $100 $-1 #
coedge $-1 $258 $102 $259 $260 forward $65 $-1 #
coedge $-1 $102 $258 $168 $261 forward $65 $-1 #
coedge $-1 $169 $262 $102 $167 reversed $263 $-1 #
edge $-1 $264 -22.643644898448532 $265 22.643644898448532 $166 $266 forward 7 unknown #
coedge $-1 $104 $103 $165 $261 reversed $41 $-1 #
coedge $-1 $256 $166 $103 $170 forward $263 $-1 #
edge $-1 $264 -8.8641020878444561 $174 8.8641020878444561 $169 $267 forward 7 unknown #
coedge $-1 $268 $269 $104 $172 reversed $161 $-1 #
edge $-1 $270 -8.8641020878444561 $175 8.8641020878444561 $171 $271 forward 7 unknown #
coedge $-1 $255 $105 $269 $272 forward $100 $-1 #
vertex $-1 $170 $273 #
vertex $-1 $272 $274 #
straight-curve $-1 0 -22.643644898448532 -8.8641020878444561 -1 0 0 I I #
face $-1 $275 $189 $25 $-1 $276 reversed single #
loop $-1 $-1 $277 $107 #
plane-surface $-1 -49.365810113834044 -32.156219341981803 0 0 1 0 0 0 1 forward_v I I I I #
coedge $-1 $278 $279 $184 $280 forward $108 $-1 #
coedge $-1 $281 $110 $279 $282 forward $69 $-1 #
coedge $-1 $110 $281 $187 $283 forward $69 $-1 #
edge $-1 $190 47.865810113834044 $284 50.865810113834044 $110 $285 forward 7 unknown #
coedge $-1 $112 $111 $180 $280 reversed $44 $-1 #
coedge $-1 $286 $287 $111 $186 forward $288 $-1 #
edge $-1 $289 -50.865810113834044 $191 -47.865810113834044 $185 $290 forward 7 unknown #
coedge $-1 $291 $113 $182 $283 reversed $189 $-1 #
coedge $-1 $113 $291 $286 $292 reversed $189 $-1 #
loop $-1 $-1 $291 $177 #
vertex $-1 $183 $293 #
vertex $-1 $292 $294 #
straight-curve $-1 -47.865810113834044 -22.643644898448532 0 0 0 -1 I I #
face $-1 $295 $296 $26 $-1 $297 reversed single #
loop $-1 $-1 $121 $115 #
plane-surface $-1 -47.865810113834044 27.399932120215166 0 -1 0 0 0 0 1 forward_v I I I I #
coedge $-1 $298 $299 $300 $301 forward $116 $-1 #
coedge $-1 $302 $118 $204 $303 forward $73 $-1 #
coedge $-1 $118 $302 $304 $305 forward $73 $-1 #
edge $-1 $306 -50.865810113834044 $206 -47.865810113834044 $118 $307 forward 7 unknown #
coedge $-1 $120 $119 $308 $309 reversed $47 $-1 #
coedge $-1 $310 $311 $120 $202 forward $296 $-1 #
edge $-1 $205 47.865810113834044 $312 50.865810113834044 $201 $313 forward 7 unknown #
coedge $-1 $300 $121 $311 $314 reversed $194 $-1 #
coedge $-1 $121 $300 $197 $303 reversed $194 $-1 #
vertex $-1 $202 $315 #
vertex $-1 $303 $316 #
straight-curve $-1 -47.865810113834044 22.643644898448532 0 0 0 1 I I #
face $-1 $-1 $317 $27 $-1 $318 reversed single #
loop $-1 $-1 $129 $123 #
plane-surface $-1 0 0 8.8641020878444561 0 0 1 1 0 0 forward_v I I I I #
coedge $-1 $319 $320 $321 $322 reversed $124 $-1 #
coedge $-1 $323 $126 $128 $218 forward $77 $-1 #
coedge $-1 $126 $323 $319 $324 forward $77 $-1 #
coedge $-1 $321 $129 $126 $215 forward $209 $-1 #
edge $-1 $221 -8.3010893452716363 $325 -1.3588728740156046 $214 $326 forward 7 unknown #
coedge $-1 $327 $328 $127 $217 forward $317 $-1 #
edge $-1 $329 -70.675150102851902 $220 -64.243343051962128 $216 $330 forward 7 unknown #
edge $-1 $221 92.30079553502344 $329 101.73162022766809 $128 $331 forward 7 unknown #
coedge $-1 $129 $321 $327 $332 forward $209 $-1 #
vertex $-1 $130 $333 #
vertex $-1 $130 $334 #
straight-curve $-1 22.922406422242311 13.131070454915257 8.8641020878444579 -1 0 0 I I #
coedge $-1 $223 $223 $-1 $335 reversed $133 $-1 #
edge $-1 $336 0 $336 6.2831853071796004 $134 $337 forward 7 unknown #
vertex $-1 $137 $338 #
ellipse-curve $-1 47.417175875344817 8.1723444040180908 5.6481985623995783 0.68199836817093118 0 0.7313536940579346 0.18283842351448365 0 -0.17049959204273279 1 I I #
coedge $-1 $227 $227 $-1 $339 reversed $140 $-1 #
edge $-1 $340 0 $340 6.2831853071796004 $141 $341 forward 7 unknown #
vertex $-1 $144 $342 #
ellipse-curve $-1 47.417175875344817 11.147580034556388 5.6481985623995783 0.68199836817093118 0 0.7313536940579346 0.18283842351448365 0 -0.17049959204273279 1 I I #
face $-1 $-1 $243 $30 $-1 $343 forward single #
loop $-1 $-1 $344 $145 #
plane-surface $-1 -50.865810113834044 0 0 1 0 0 0 0 -1 forward_v I I I I #
coedge $-1 $345 $346 $347 $348 reversed $146 $-1 #
coedge $-1 $349 $148 $150 $241 forward $91 $-1 #
coedge $-1 $148 $349 $345 $350 forward $91 $-1 #
coedge $-1 $347 $151 $148 $238 forward $243 $-1 #
edge $-1 $245 0.8494086192035617 $351 8.4709107635423173 $237 $352 forward 7 unknown #
coedge $-1 $353 $354 $149 $240 forward $232 $-1 #
edge $-1 $355 -34.040134189139557 $244 -26.476560983169115 $239 $356 forward 7 unknown #
edge $-1 $245 -10.341881231685289 $355 0 $150 $357 forward 7 unknown #
coedge $-1 $151 $347 $353 $358 forward $243 $-1 #
loop $-1 $-1 $347 $231 #
vertex $-1 $240 $359 #
vertex $-1 $152 $360 #
straight-curve $-1 -62.633803989913297 5.5095683105765012 8.8641020878444579 1 0 0 I I #
coedge $-1 $247 $247 $-1 $361 reversed $155 $-1 #
edge $-1 $362 0 $362 6.2831853071796004 $156 $363 forward 7 unknown #
vertex $-1 $159 $364 #
ellipse-curve $-1 -47.339237139677316 9.320319382745879 5.0823154848592367 -0.73135370988377701 0 0.68199835119979291 1.0229975267996894 0 1.0970305648256655 1 I I #
face $-1 $-1 $263 $24 $-1 $365 reversed single #
loop $-1 $-1 $259 $160 #
plane-surface $-1 0 22.643644898448532 0 0 -1 0 0 0 -1 forward_v I I I I #
coedge $-1 $269 $268 $366 $367 forward $161 $-1 #
coedge $-1 $163 $173 $368 $369 forward $100 $-1 #
coedge $-1 $262 $169 $163 $257 reversed $263 $-1 #
edge $-1 $370 -22.643644898448532 $174 22.643644898448532 $256 $371 forward 7 unknown #
coedge $-1 $165 $164 $268 $372 forward $65 $-1 #
coedge $-1 $373 $366 $164 $260 reversed $252 $-1 #
edge $-1 $265 -50.865810113834044 $374 50.865810113834044 $259 $375 forward 7 unknown #
edge $-1 $270 -50.865810113834044 $264 50.865810113834044 $168 $376 forward 7 unknown #
coedge $-1 $166 $256 $373 $377 reversed $263 $-1 #
loop $-1 $-1 $169 $251 #
vertex $-1 $167 $378 #
vertex $-1 $167 $379 #
straight-curve $-1 50.865810113834044 0 8.8641020878444561 0 1 0 I I #
straight-curve $-1 50.865810113834044 -22.643644898448532 0 0 0 -1 I I #
coedge $-1 $254 $171 $258 $372 reversed $161 $-1 #
coedge $-1 $171 $254 $173 $272 reversed $161 $-1 #
vertex $-1 $372 $380 #
straight-curve $-1 -50.865810113834044 -22.643644898448532 0 0 0 -1 I I #
edge $-1 $175 -22.643644898448532 $381 22.643644898448532 $269 $382 forward 7 unknown #
point $-1 50.865810113834044 -22.643644898448532 -8.8641020878444561 #
point $-1 -50.865810113834044 -22.643644898448532 -8.8641020878444561 #
face $-1 $-1 $288 $25 $-1 $383 reversed single #
plane-surface $-1 -47.865810113834044 -27.399932120215169 0 -1 0 0 0 0 1 forward_v I I I I #
coedge $-1 $384 $385 $386 $387 forward $178 $-1 #
coedge $-1 $386 $180 $287 $388 reversed $108 $-1 #
coedge $-1 $180 $386 $181 $282 reversed $108 $-1 #
edge $-1 $284 -8.8641020878444561 $289 8.8641020878444561 $180 $389 forward 7 unknown #
coedge $-1 $182 $181 $385 $390 forward $69 $-1 #
edge $-1 $284 22.643644898448532 $391 32.156219341981803 $279 $392 forward 7 unknown #
edge $-1 $393 -4.7562872217666339 $190 4.7562872217666374 $187 $394 forward 7 unknown #
vertex $-1 $282 $395 #
straight-curve $-1 0 -22.643644898448532 8.8641020878444561 -1 0 0 I I #
coedge $-1 $396 $185 $188 $292 forward $288 $-1 #
coedge $-1 $185 $396 $278 $388 forward $288 $-1 #
loop $-1 $-1 $185 $275 #
vertex $-1 $280 $397 #
straight-curve $-1 0 -22.643644898448532 -8.8641020878444561 1 0 0 I I #
coedge $-1 $188 $187 $398 $399 forward $189 $-1 #
edge $-1 $191 -4.7562872217666374 $400 4.7562872217666339 $188 $401 forward 7 unknown #
point $-1 -47.865810113834044 -22.643644898448532 8.8641020878444561 #
point $-1 -47.865810113834044 -22.643644898448532 -8.8641020878444561 #
face $-1 $-1 $402 $26 $-1 $403 reversed single #
loop $-1 $-1 $201 $193 #
plane-surface $-1 0 0 -8.8641020878444561 0 0 1 1 0 0 forward_v I I I I #
coedge $-1 $404 $196 $405 $406 reversed $116 $-1 #
coedge $-1 $196 $404 $302 $407 reversed $116 $-1 #
coedge $-1 $204 $203 $196 $301 reversed $194 $-1 #
edge $-1 $408 -8.8641020878444561 $409 8.8641020878444561 $300 $410 forward 7 unknown #
coedge $-1 $198 $197 $299 $407 forward $73 $-1 #
edge $-1 $206 -4.7562872217666374 $408 4.7562872217666374 $204 $411 forward 7 unknown #
coedge $-1 $412 $308 $198 $305 reversed $402 $-1 #
edge $-1 $413 -32.156219341981803 $306 -22.643644898448532 $304 $414 forward 7 unknown #
vertex $-1 $309 $415 #
straight-curve $-1 0 22.643644898448532 8.8641020878444561 1 0 0 I I #
coedge $-1 $304 $416 $200 $309 forward $402 $-1 #
edge $-1 $312 -8.8641020878444561 $306 8.8641020878444561 $308 $417 forward 7 unknown #
coedge $-1 $405 $201 $416 $418 forward $296 $-1 #
coedge $-1 $201 $405 $203 $314 forward $296 $-1 #
vertex $-1 $418 $419 #
straight-curve $-1 0 22.643644898448532 -8.8641020878444561 -1 0 0 I I #
edge $-1 $409 -4.7562872217666374 $205 4.7562872217666374 $203 $420 forward 7 unknown #
point $-1 -47.865810113834044 22.643644898448528 -8.8641020878444561 #
point $-1 -47.865810113834044 22.643644898448528 8.8641020878444561 #
loop $-1 $-1 $216 $208 #
plane-surface $-1 50.865810113834044 0 0 -1 0 0 0 0 1 forward_v I I I I #
coedge $-1 $320 $211 $213 $324 reversed $124 $-1 #
coedge $-1 $211 $319 $421 $422 reversed $124 $-1 #
coedge $-1 $219 $214 $211 $322 forward $209 $-1 #
edge $-1 $325 21.046135214613294 $423 27.943403691591733 $321 $424 forward 7 unknown #
coedge $-1 $213 $212 $328 $425 reversed $77 $-1 #
edge $-1 $426 -101.73162022766809 $325 -92.30079553502344 $319 $427 forward 7 unknown #
vertex $-1 $215 $428 #
straight-curve $-1 43.968541636855605 4.8299811096436205 8.8641020878444579 0 -1 0 I I #
coedge $-1 $421 $216 $219 $332 reversed $317 $-1 #
coedge $-1 $216 $421 $323 $425 forward $317 $-1 #
vertex $-1 $217 $429 #
straight-curve $-1 50.865810113834044 13.131070454915257 73.107445139806586 0 0 1 I I #
straight-curve $-1 -23.535986142169904 13.131070454915257 71.81309402360921 0.7313536940579346 0 -0.68199836817093118 I I #
edge $-1 $423 6.1888539836592251 $220 13.131070454915257 $327 $430 forward 7 unknown #
point $-1 50.865810113834044 13.131070454915257 8.8641020878444561 #
point $-1 43.968541636855605 13.131070454915257 8.8641020878444508 #
edge $-1 $431 1 $431 0 $223 $-1 forward 7 unknown #
vertex $-1 $224 $432 #
ellipse-curve $-1 46.73517750717388 8.1723444040180908 4.9168448683416441 0.68199836817093118 0 0.7313536940579346 0.18283842351448365 0 -0.17049959204273279 1 I I #
point $-1 47.600014298859293 8.1723444040180908 5.4776989703568457 #
edge $-1 $433 1 $433 0 $227 $-1 forward 7 unknown #
vertex $-1 $228 $434 #
ellipse-curve $-1 46.73517750717388 11.147580034556388 4.9168448683416441 0.68199836817093118 0 0.7313536940579346 0.18283842351448365 0 -0.17049959204273279 1 I I #
point $-1 47.600014298859293 11.147580034556388 5.4776989703568457 #
plane-surface $-1 0 0 8.8641020878444561 0 0 1 1 0 0 forward_v I I I I #
coedge $-1 $354 $353 $346 $435 forward $232 $-1 #
coedge $-1 $346 $234 $236 $350 reversed $146 $-1 #
coedge $-1 $234 $345 $344 $435 reversed $146 $-1 #
coedge $-1 $242 $237 $234 $348 forward $243 $-1 #
edge $-1 $351 -18.821139824392702 $436 -11.767993876079252 $347 $437 forward 7 unknown #
coedge $-1 $236 $235 $354 $438 reversed $91 $-1 #
edge $-1 $439 0 $351 10.341881231685289 $345 $440 forward 7 unknown #
vertex $-1 $238 $441 #
straight-curve $-1 -43.812664165520602 4.6601596913729395 8.8641020878444561 0 1 0 I I #
coedge $-1 $344 $239 $242 $358 reversed $232 $-1 #
coedge $-1 $239 $344 $349 $438 forward $232 $-1 #
vertex $-1 $240 $442 #
straight-curve $-1 -50.865810113834044 5.5095683105765012 35.340663071013573 0 0 1 I I #
straight-curve $-1 -50.865810113834044 5.5095683105765012 1.3005288818740155 -0.68199835119979291 0 -0.73135370988377701 I I #
edge $-1 $436 -13.131070454915257 $244 -5.5095683105765012 $353 $443 forward 7 unknown #
point $-1 -50.865810113834044 5.5095683105765012 8.8641020878444561 #
point $-1 -43.812664165520594 5.5095683105765012 8.8641020878444579 #
edge $-1 $444 1 $444 0 $247 $-1 forward 7 unknown #
vertex $-1 $248 $445 #
ellipse-curve $-1 -43.194579532842454 9.320319382745879 1.2173598335120137 -0.73135370988377701 0 0.68199835119979291 1.0229975267996894 0 1.0970305648256655 1 I I #
point $-1 -46.316239612877631 9.320319382745879 6.1793460496848995 #
plane-surface $-1 50.865810113834044 0 0 -1 0 0 0 0 1 forward_v I I I I #
coedge $-1 $259 $368 $254 $367 reversed $252 $-1 #
edge $-1 $374 -8.8641020878444561 $381 8.8641020878444561 $366 $446 forward 7 unknown #
coedge $-1 $366 $373 $255 $369 reversed $252 $-1 #
edge $-1 $381 -50.865810113834044 $370 50.865810113834044 $368 $447 forward 7 unknown #
vertex $-1 $257 $448 #
straight-curve $-1 50.865810113834044 0 -8.8641020878444561 0 -1 0 I I #
edge $-1 $374 -22.643644898448532 $270 22.643644898448532 $268 $449 forward 7 unknown #
coedge $-1 $368 $259 $262 $377 forward $252 $-1 #
vertex $-1 $260 $450 #
straight-curve $-1 0 22.643644898448532 8.8641020878444561 -1 0 0 I I #
straight-curve $-1 0 -22.643644898448532 8.8641020878444561 1 0 0 I I #
edge $-1 $265 -8.8641020878444561 $370 8.8641020878444561 $262 $451 forward 7 unknown #
point $-1 50.865810113834044 -22.643644898448532 8.8641020878444561 #
point $-1 50.865810113834044 22.643644898448532 8.8641020878444561 #
point $-1 -50.865810113834044 -22.643644898448532 8.8641020878444561 #
vertex $-1 $369 $452 #
straight-curve $-1 -50.865810113834044 0 -8.8641020878444561 0 1 0 I I #
plane-surface $-1 0 0 -8.8641020878444561 0 0 1 1 0 0 forward_v I I I I #
coedge $-1 $398 $277 $396 $453 reversed $178 $-1 #
coedge $-1 $277 $398 $281 $390 reversed $178 $-1 #
coedge $-1 $279 $278 $277 $387 reversed $108 $-1 #
edge $-1 $391 -8.8641020878444561 $454 8.8641020878444561 $386 $455 forward 7 unknown #
edge $-1 $454 -32.156219341981803 $289 -22.643644898448532 $278 $456 forward 7 unknown #
straight-curve $-1 -50.865810113834044 -22.643644898448532 0 0 0 -1 I I #
edge $-1 $391 -1.5 $393 1.5 $385 $457 forward 7 unknown #
vertex $-1 $282 $458 #
straight-curve $-1 -50.865810113834044 0 8.8641020878444561 0 -1 0 I I #
vertex $-1 $283 $459 #
straight-curve $-1 -47.865810113834044 -27.399932120215169 8.8641020878444561 0 1 0 I I #
point $-1 -50.865810113834044 -22.643644898448532 8.8641020878444561 #
coedge $-1 $287 $286 $384 $453 forward $288 $-1 #
point $-1 -50.865810113834044 -22.643644898448532 -8.8641020878444561 #
coedge $-1 $385 $384 $291 $399 reversed $178 $-1 #
edge $-1 $393 -8.8641020878444561 $400 8.8641020878444561 $291 $460 forward 7 unknown #
vertex $-1 $399 $461 #
straight-curve $-1 -47.865810113834044 -27.399932120215169 -8.8641020878444561 0 -1 0 I I #
loop $-1 $-1 $308 $295 #
plane-surface $-1 -50.865810113834044 0 0 1 0 0 0 0 -1 forward_v I I I I #
coedge $-1 $299 $298 $412 $462 reversed $116 $-1 #
coedge $-1 $311 $310 $298 $406 forward $296 $-1 #
edge $-1 $463 -1.5 $409 1.5 $298 $464 forward 7 unknown #
edge $-1 $408 -1.5 $413 1.5 $299 $465 forward 7 unknown #
vertex $-1 $303 $466 #
vertex $-1 $314 $467 #
straight-curve $-1 -47.865810113834044 32.156219341981803 0 0 0 -1 I I #
straight-curve $-1 -47.865810113834044 27.399932120215166 8.8641020878444561 0 1 0 I I #
coedge $-1 $416 $304 $404 $462 forward $402 $-1 #
vertex $-1 $407 $468 #
straight-curve $-1 -50.865810113834044 0 8.8641020878444561 0 -1 0 I I #
point $-1 -50.865810113834044 22.643644898448532 8.8641020878444561 #
coedge $-1 $308 $412 $310 $418 reversed $402 $-1 #
straight-curve $-1 -50.865810113834044 22.643644898448532 0 0 0 1 I I #
edge $-1 $312 -4.7562872217666339 $463 4.7562872217666374 $416 $469 forward 7 unknown #
point $-1 -50.865810113834044 22.643644898448532 -8.8641020878444561 #
straight-curve $-1 -47.865810113834044 27.399932120215166 -8.8641020878444561 0 -1 0 I I #
coedge $-1 $328 $327 $320 $422 forward $317 $-1 #
edge $-1 $423 64.243343051962128 $426 70.675150102851902 $421 $470 forward 7 unknown #
vertex $-1 $332 $471 #
straight-curve $-1 22.922406422242311 6.1888539836592251 8.8641020878444579 1 0 0 I I #
edge $-1 $426 1.3588728740156046 $329 8.3010893452716363 $328 $472 forward 7 unknown #
vertex $-1 $425 $473 #
straight-curve $-1 -23.535986142169904 6.1888539836592251 71.81309402360921 -0.7313536940579346 0 0.68199836817093118 I I #
point $-1 43.968541636855605 6.1888539836592251 8.8641020878444508 #
point $-1 50.865810113834044 13.131070454915257 2.4322950369546845 #
straight-curve $-1 50.865810113834044 0 8.8641020878444561 0 1 0 I I #
vertex $-1 $335 $474 #
point $-1 46.918015930688362 8.1723444040180908 4.7463452762989107 #
vertex $-1 $339 $475 #
point $-1 46.918015930688362 11.147580034556388 4.7463452762989107 #
edge $-1 $436 26.476560983169115 $439 34.040134189139557 $344 $476 forward 7 unknown #
vertex $-1 $358 $477 #
straight-curve $-1 -62.633803989913297 13.131070454915257 8.8641020878444579 -1 0 0 I I #
edge $-1 $439 -8.4709107635423173 $355 -0.8494086192035617 $354 $478 forward 7 unknown #
vertex $-1 $438 $479 #
straight-curve $-1 -50.865810113834044 13.131070454915257 1.3005288818740155 0.68199835119979291 0 0.73135370988377701 I I #
point $-1 -43.812664165520594 13.131070454915257 8.8641020878444579 #
point $-1 -50.865810113834044 5.5095683105765012 1.3005288818740155 #
straight-curve $-1 -50.865810113834044 0 8.8641020878444561 0 -1 0 I I #
vertex $-1 $361 $480 #
point $-1 -42.171582006042762 9.320319382745879 2.3143903983376792 #
straight-curve $-1 -50.865810113834044 22.643644898448532 0 0 0 -1 I I #
straight-curve $-1 0 22.643644898448532 -8.8641020878444561 1 0 0 I I #
point $-1 50.865810113834044 22.643644898448532 -8.8641020878444561 #
straight-curve $-1 -50.865810113834044 0 8.8641020878444561 0 -1 0 I I #
point $-1 -50.865810113834044 22.643644898448532 8.8641020878444561 #
straight-curve $-1 50.865810113834044 22.643644898448532 0 0 0 -1 I I #
point $-1 -50.865810113834044 22.643644898448532 -8.8641020878444561 #
edge $-1 $400 -1.5 $454 1.5 $384 $481 forward 7 unknown #
vertex $-1 $388 $482 #
straight-curve $-1 -50.865810113834044 -32.156219341981803 0 0 0 -1 I I #
straight-curve $-1 -50.865810113834044 0 -8.8641020878444561 0 1 0 I I #
straight-curve $-1 -49.365810113834044 -32.156219341981803 8.8641020878444561 1 0 0 I I #
point $-1 -50.865810113834044 -32.156219341981803 8.8641020878444561 #
point $-1 -47.865810113834044 -32.156219341981803 8.8641020878444561 #
straight-curve $-1 -47.865810113834044 -32.156219341981803 0 0 0 -1 I I #
point $-1 -47.865810113834044 -32.156219341981803 -8.8641020878444561 #
edge $-1 $413 -8.8641020878444561 $463 8.8641020878444561 $404 $483 forward 7 unknown #
vertex $-1 $406 $484 #
straight-curve $-1 -49.365810113834044 32.156219341981803 -8.8641020878444561 1 0 0 I I #
straight-curve $-1 -49.365810113834044 32.156219341981803 8.8641020878444561 -1 0 0 I I #
point $-1 -47.865810113834044 32.156219341981803 8.8641020878444561 #
point $-1 -47.865810113834044 32.156219341981803 -8.8641020878444561 #
point $-1 -50.865810113834044 32.156219341981803 8.8641020878444561 #
straight-curve $-1 -50.865810113834044 27.399932120215166 -8.8641020878444561 0 1 0 I I #
straight-curve $-1 50.865810113834044 6.1888539836592251 73.107445139806586 0 0 -1 I I #
point $-1 50.865810113834044 6.1888539836592251 8.8641020878444561 #
straight-curve $-1 50.865810113834044 4.8299811096436205 2.4322950369546916 0 1 0 I I #
point $-1 50.865810113834044 6.1888539836592251 2.4322950369546845 #
point $-1 46.564677915131149 8.1723444040180908 4.7340064448271599 #
point $-1 46.564677915131149 11.147580034556388 4.7340064448271599 #
straight-curve $-1 -50.865810113834044 13.131070454915257 35.340663071013573 0 0 -1 I I #
point $-1 -50.865810113834044 13.131070454915257 8.8641020878444561 #
straight-curve $-1 -50.865810113834044 4.6601596913729395 1.3005288818740148 0 -1 0 I I #
point $-1 -50.865810113834044 13.131070454915257 1.3005288818740155 #
point $-1 -42.097548968016781 9.320319382745879 0.19436230671232435 #
straight-curve $-1 -49.365810113834044 -32.156219341981803 -8.8641020878444561 -1 0 0 I I #
point $-1 -50.865810113834044 -32.156219341981803 -8.8641020878444561 #
straight-curve $-1 -50.865810113834044 32.156219341981803 0 0 0 -1 I I #
point $-1 -50.865810113834044 32.156219341981803 -8.8641020878444561 #
End-of-ACIS-data 