600 0 7 0           
108 GICL ACIS Healer - Source: /gicl/data5/repository/Drexel/CICIRELLO-THESISDATA/Part10003.smdg.delta.sat - 6 0 18 ACIS 6.0.3 Solaris 24 Fri Apr 12 10:14:45 2002 
1 9.999999999999999547e-07 1.000000000000000036e-10 
body $-1 $7 $-1 $-1 #
body $-1 $8 $-1 $-1 #
body $-1 $9 $-1 $-1 #
body $-1 $10 $-1 $-1 #
body $-1 $11 $-1 $-1 #
body $-1 $12 $-1 $-1 #
body $-1 $13 $-1 $-1 #
lump $-1 $-1 $14 $0 #
lump $-1 $-1 $15 $1 #
lump $-1 $-1 $16 $2 #
lump $-1 $-1 $17 $3 #
lump $-1 $-1 $18 $4 #
lump $-1 $-1 $19 $5 #
lump $-1 $-1 $20 $6 #
shell $-1 $-1 $-1 $21 $-1 $7 #
shell $-1 $-1 $-1 $22 $-1 $8 #
shell $-1 $-1 $-1 $23 $-1 $9 #
shell $-1 $-1 $-1 $24 $-1 $10 #
shell $-1 $-1 $-1 $25 $-1 $11 #
shell $-1 $-1 $-1 $26 $-1 $12 #
shell $-1 $-1 $-1 $27 $-1 $13 #
face $-1 $28 $29 $14 $-1 $30 forward single #
face $-1 $31 $32 $15 $-1 $33 forward single #
face $-1 $34 $35 $16 $-1 $36 reversed single #
face $-1 $37 $38 $17 $-1 $39 forward single #
face $-1 $40 $41 $18 $-1 $42 forward single #
face $-1 $43 $44 $19 $-1 $45 reversed single #
face $-1 $46 $47 $20 $-1 $48 forward single #
face $-1 $49 $50 $14 $-1 $51 reversed single #
loop $-1 $-1 $52 $21 #
plane-surface $-1 52.59437849055451863 34.3096981105074903 27.64775093016467977 0 0 1 1 0 0 forward_v I I I I #
face $-1 $53 $54 $15 $-1 $55 reversed single #
loop $-1 $-1 $56 $22 #
plane-surface $-1 7.700076247246173011 34.3096981105074903 21.73629235335499033 0 0 1 1 0 0 forward_v I I I I #
face $-1 $57 $58 $16 $-1 $59 reversed single #
loop $-1 $-1 $60 $23 #
plane-surface $-1 34.15855377576445306 -86.16558617288069399 83.84157826961317994 1 0 0 0 0.8191520524228198541 -0.5735764247347356903 forward_v I I I I #
face $-1 $61 $62 $17 $-1 $63 forward single #
loop $-1 $64 $65 $24 #
cone-surface $-1 41.42489767664677203 2.830853191509838496 24.61047694202367353 0 0.8191520524228198541 -0.5735764247347356903 1 0 0 1 I I 0 1 1 forward I I I I #
face $-1 $66 $67 $18 $-1 $68 forward single #
loop $-1 $69 $70 $25 #
cone-surface $-1 52.32441352797025047 2.830853191509838496 24.61047694202367353 0 0.8191520524228198541 -0.5735764247347356903 1 0 0 1 I I 0 1 1 forward I I I I #
face $-1 $71 $72 $19 $-1 $73 reversed single #
loop $-1 $-1 $74 $26 #
plane-surface $-1 59.23754668323857686 113.385420749751205 138.4555622837156079 1 0 0 0 -0.8090170025587177793 -0.5877852410284793994 forward_v I I I I #
face $-1 $75 $76 $20 $-1 $77 forward single #
loop $-1 $78 $79 $27 #
cone-surface $-1 67.8819639672043138 63.82414550573678724 22.62112952983338232 0 -0.8090170025587177793 -0.5877852410284793994 1.5 0 0 1 I I 0 1 1.5 forward I I I I #
face $-1 $80 $81 $14 $-1 $82 reversed single #
loop $-1 $-1 $83 $28 #
plane-surface $-1 52.59437849055451863 34.3096981105074903 0 0 0 1 1 0 0 forward_v I I I I #
coedge $-1 $84 $85 $86 $87 forward $29 $-1 #
face $-1 $88 $89 $15 $-1 $90 reversed single #
loop $-1 $-1 $91 $31 #
plane-surface $-1 7.700076247246173011 34.3096981105074903 16.37861773922288222 0 0 1 1 0 0 forward_v I I I I #
coedge $-1 $92 $93 $94 $95 forward $32 $-1 #
face $-1 $96 $97 $16 $-1 $98 reversed single #
loop $-1 $-1 $99 $34 #
plane-surface $-1 46.8746556023085077 -7.105427357601001859e-15 23.50778711809768851 0 -0.8191520524228198541 0.5735764247347356903 1 0 0 forward_v I I I I #
coedge $-1 $100 $101 $102 $103 reversed $35 $-1 #
face $-1 $-1 $104 $17 $-1 $105 forward single #
loop $-1 $106 $107 $37 #
cone-surface $-1 41.42489767664677203 4.621865518415013696 23.35639664754879874 0 0.8191520524228198541 -0.5735764247347356903 0.5 0 0 1 I I -0.7071067811865474617 0.7071067811865474617 0.5 forward I I I I #
loop $-1 $-1 $108 $24 #
coedge $-1 $65 $65 $109 $110 reversed $38 $-1 #
face $-1 $-1 $111 $18 $-1 $112 forward single #
loop $-1 $113 $114 $40 #
cone-surface $-1 52.32441352797025047 4.621865518415013696 23.35639664754879874 0 0.8191520524228198541 -0.5735764247347356903 0.5 0 0 1 I I -0.7071067811865474617 0.7071067811865474617 0.5 forward I I I I #
loop $-1 $-1 $115 $25 #
coedge $-1 $70 $70 $116 $117 reversed $41 $-1 #
face $-1 $118 $119 $19 $-1 $120 reversed single #
loop $-1 $-1 $121 $43 #
plane-surface $-1 67.8819639672043138 28.28592787401696995 76.62716340808829329 0 0.8090170025587177793 0.5877852410284793994 1 0 0 forward_v I I I I #
coedge $-1 $122 $123 $124 $125 reversed $44 $-1 #
face $-1 $-1 $126 $20 $-1 $127 forward single #
loop $-1 $128 $129 $46 #
cone-surface $-1 67.8819639672043138 60.79605365203298106 20.42109208382620267 0 -0.8090170025587177793 -0.5877852410284793994 0.75 0 0 1 I I -0.7071067811865475727 0.7071067811865475727 0.75 forward I I I I #
loop $-1 $-1 $130 $27 #
coedge $-1 $79 $79 $131 $132 reversed $47 $-1 #
face $-1 $133 $134 $14 $-1 $135 reversed single #
loop $-1 $-1 $136 $49 #
plane-surface $-1 52.59437849055451863 0 13.82387546508233989 0 1 0 0 0 1 forward_v I I I I #
coedge $-1 $137 $138 $139 $140 forward $50 $-1 #
coedge $-1 $141 $52 $142 $143 forward $29 $-1 #
coedge $-1 $52 $141 $144 $145 forward $29 $-1 #
coedge $-1 $146 $147 $52 $87 reversed $148 $-1 #
edge $-1 $149 -34.3096981105074903 $150 34.3096981105074903 $86 $151 forward 7 unknown #
face $-1 $152 $153 $15 $-1 $154 reversed single #
loop $-1 $-1 $155 $53 #
plane-surface $-1 15.40015249449234602 34.3096981105074903 19.05745504628893627 -1 0 0 0 0 1 forward_v I I I I #
coedge $-1 $156 $157 $158 $159 forward $54 $-1 #
coedge $-1 $160 $56 $161 $162 reversed $32 $-1 #
coedge $-1 $56 $160 $163 $164 reversed $32 $-1 #
coedge $-1 $155 $165 $56 $95 reversed $89 $-1 #
edge $-1 $166 -34.3096981105074903 $167 34.3096981105074903 $94 $168 forward 7 unknown #
face $-1 $169 $170 $16 $-1 $171 forward single #
loop $-1 $-1 $172 $57 #
plane-surface $-1 59.59075742885256233 -86.16558617288069399 83.84157826961317994 -1 0 0 0 -0.8191520524228198541 0.5735764247347356903 forward_v I I I I #
coedge $-1 $173 $174 $175 $176 reversed $58 $-1 #
coedge $-1 $101 $60 $177 $178 reversed $35 $-1 #
coedge $-1 $60 $100 $173 $179 reversed $35 $-1 #
coedge $-1 $175 $180 $60 $103 forward $181 $-1 #
edge $-1 $182 21.18497593718307925 $183 25.32493974925005631 $102 $184 forward 7 unknown #
loop $-1 $-1 $109 $61 #
plane-surface $-1 46.8746556023085077 -7.105427357601001859e-15 23.50778711809768851 0 -0.8191520524228198541 0.5735764247347356903 1 0 0 forward_v I I I I #
loop $-1 $-1 $185 $37 #
coedge $-1 $107 $107 $108 $186 reversed $62 $-1 #
coedge $-1 $108 $108 $107 $186 forward $64 $-1 #
coedge $-1 $109 $109 $65 $110 forward $104 $-1 #
edge $-1 $187 1.165292918325106023e-15 $187 6.28318530717958712 $109 $188 forward 7 unknown #
loop $-1 $-1 $116 $66 #
plane-surface $-1 46.8746556023085077 -7.105427357601001859e-15 23.50778711809768851 0 -0.8191520524228198541 0.5735764247347356903 1 0 0 forward_v I I I I #
loop $-1 $-1 $189 $40 #
coedge $-1 $114 $114 $115 $190 reversed $67 $-1 #
coedge $-1 $115 $115 $114 $190 forward $69 $-1 #
coedge $-1 $116 $116 $70 $117 forward $111 $-1 #
edge $-1 $191 1.165292918325106023e-15 $191 6.28318530717958712 $116 $192 forward 7 unknown #
face $-1 $193 $194 $19 $-1 $195 reversed single #
loop $-1 $-1 $196 $71 #
plane-surface $-1 76.52638125117005075 113.385420749751205 138.4555622837156079 -1 0 0 0 0.8090170025587177793 0.5877852410284793994 forward_v I I I I #
coedge $-1 $197 $198 $199 $200 reversed $72 $-1 #
coedge $-1 $123 $74 $201 $202 reversed $44 $-1 #
coedge $-1 $74 $122 $197 $203 reversed $44 $-1 #
coedge $-1 $199 $204 $74 $125 forward $205 $-1 #
edge $-1 $206 5.228163209114356391 $207 9.976006436101208408 $124 $208 forward 7 unknown #
loop $-1 $-1 $131 $75 #
plane-surface $-1 67.8819639672043138 28.28592787401696995 76.62716340808829329 0 0.8090170025587177793 0.5877852410284793994 1 0 0 forward_v I I I I #
loop $-1 $-1 $209 $46 #
coedge $-1 $129 $129 $130 $210 reversed $76 $-1 #
coedge $-1 $130 $130 $129 $210 forward $78 $-1 #
coedge $-1 $131 $131 $79 $132 forward $126 $-1 #
edge $-1 $211 1.916137180915024343e-15 $211 6.283185307179588008 $131 $212 forward 7 unknown #
face $-1 $213 $214 $14 $-1 $215 reversed single #
loop $-1 $-1 $216 $80 #
plane-surface $-1 0 34.3096981105074903 13.82387546508233989 1 0 0 0 0 -1 forward_v I I I I #
coedge $-1 $217 $144 $218 $219 forward $81 $-1 #
coedge $-1 $220 $83 $217 $221 forward $50 $-1 #
coedge $-1 $83 $220 $222 $223 forward $50 $-1 #
coedge $-1 $147 $146 $83 $140 reversed $148 $-1 #
edge $-1 $224 -34.3096981105074903 $225 34.3096981105074903 $139 $226 forward 7 unknown #
coedge $-1 $85 $84 $227 $228 forward $29 $-1 #
coedge $-1 $229 $230 $84 $143 reversed $214 $-1 #
edge $-1 $150 -52.59437849055451863 $231 52.59437849055451863 $142 $232 forward 7 unknown #
coedge $-1 $136 $233 $85 $145 reversed $81 $-1 #
edge $-1 $234 -52.59437849055451863 $149 52.59437849055451863 $144 $235 forward 7 unknown #
coedge $-1 $139 $86 $233 $236 forward $148 $-1 #
coedge $-1 $86 $139 $229 $237 reversed $148 $-1 #
loop $-1 $-1 $146 $213 #
vertex $-1 $87 $238 #
vertex $-1 $87 $239 #
straight-curve $-1 105.1887569811090373 34.3096981105074903 27.64775093016467977 0 1 0 I I #
face $-1 $240 $241 $15 $-1 $242 reversed single #
loop $-1 $-1 $243 $88 #
plane-surface $-1 52.59437849055451863 0 13.82387546508233989 0 1 0 0 0 1 forward_v I I I I #
coedge $-1 $158 $94 $244 $245 reversed $89 $-1 #
coedge $-1 $246 $91 $243 $247 reversed $54 $-1 #
coedge $-1 $91 $246 $248 $249 reversed $54 $-1 #
coedge $-1 $165 $155 $91 $159 reversed $89 $-1 #
edge $-1 $250 -34.3096981105074903 $251 34.3096981105074903 $158 $252 forward 7 unknown #
coedge $-1 $93 $92 $253 $254 reversed $32 $-1 #
coedge $-1 $255 $256 $92 $162 forward $257 $-1 #
edge $-1 $258 -30.14722736890034582 $167 -14.7470748744079998 $161 $259 forward 7 unknown #
coedge $-1 $260 $244 $93 $164 forward $153 $-1 #
edge $-1 $166 14.7470748744079998 $261 30.14722736890034582 $163 $262 forward 7 unknown #
coedge $-1 $94 $158 $255 $263 reversed $89 $-1 #
vertex $-1 $164 $264 #
vertex $-1 $162 $265 #
straight-curve $-1 15.40015249449234602 34.3096981105074903 21.73629235335499033 0 1 0 I I #
face $-1 $-1 $181 $16 $-1 $266 reversed single #
loop $-1 $-1 $267 $96 #
plane-surface $-1 52.59437849055451863 34.3096981105074903 27.64775093016467977 0 0 1 1 0 0 forward_v I I I I #
coedge $-1 $268 $269 $270 $271 reversed $97 $-1 #
coedge $-1 $272 $99 $101 $179 forward $58 $-1 #
coedge $-1 $99 $272 $268 $273 forward $58 $-1 #
coedge $-1 $270 $102 $99 $176 forward $181 $-1 #
edge $-1 $183 -15.5759632706670601 $274 9.856240382421049162 $175 $275 forward 7 unknown #
coedge $-1 $276 $277 $100 $178 forward $170 $-1 #
edge $-1 $278 -28.82677781281873663 $182 -25.9279440311866054 $177 $279 forward 7 unknown #
edge $-1 $183 1.57163564266253914e-14 $278 5.053962569979712605 $101 $280 forward 7 unknown #
coedge $-1 $102 $270 $276 $281 reversed $181 $-1 #
loop $-1 $-1 $270 $169 #
vertex $-1 $281 $282 #
vertex $-1 $103 $283 #
straight-curve $-1 34.15855377576445306 0 48.83272686734775903 0 0 -1 I I #
coedge $-1 $185 $185 $-1 $284 reversed $106 $-1 #
edge $-1 $285 0 $285 6.283185307179586232 $107 $286 forward 7 unknown #
vertex $-1 $110 $287 #
ellipse-curve $-1 41.42489767664677203 1.449416890816067394 25.57776902413118947 0 -0.8191520524228198541 0.5735764247347356903 1 0 0 1 I I #
coedge $-1 $189 $189 $-1 $288 reversed $113 $-1 #
edge $-1 $289 0 $289 6.283185307179586232 $114 $290 forward 7 unknown #
vertex $-1 $117 $291 #
ellipse-curve $-1 52.32441352797025047 1.449416890816067394 25.57776902413118947 0 -0.8191520524228198541 0.5735764247347356903 1 0 0 1 I I #
face $-1 $-1 $205 $19 $-1 $292 forward single #
loop $-1 $-1 $293 $118 #
plane-surface $-1 52.59437849055451863 68.6193962210149806 13.82387546508233989 0 -1 0 0 0 -1 forward_v I I I I #
coedge $-1 $294 $295 $296 $297 reversed $119 $-1 #
coedge $-1 $298 $121 $123 $203 forward $72 $-1 #
coedge $-1 $121 $298 $294 $299 forward $72 $-1 #
coedge $-1 $296 $124 $121 $200 forward $205 $-1 #
edge $-1 $207 -1.000624545640839358 $300 16.28821002229063453 $199 $301 forward 7 unknown #
coedge $-1 $302 $303 $122 $202 forward $194 $-1 #
edge $-1 $304 -55.02681371442523073 $206 -48.4919679442343039 $201 $305 forward 7 unknown #
edge $-1 $207 60.54188270829169483 $304 68.61939622101496639 $123 $306 forward 7 unknown #
coedge $-1 $124 $296 $302 $307 forward $205 $-1 #
loop $-1 $-1 $296 $193 #
vertex $-1 $202 $308 #
vertex $-1 $125 $309 #
straight-curve $-1 59.23754668323857686 73.84755943012933699 27.64775093016467622 0 -1 0 I I #
coedge $-1 $209 $209 $-1 $310 reversed $128 $-1 #
edge $-1 $311 0 $311 6.283185307179586232 $129 $312 forward 7 unknown #
vertex $-1 $132 $313 #
ellipse-curve $-1 67.8819639672043138 66.24547460752155814 24.38032804506920925 0 0.8090170025587177793 0.5877852410284793994 1.5 0 0 1 I I #
face $-1 $-1 $148 $14 $-1 $314 reversed single #
loop $-1 $-1 $229 $133 #
plane-surface $-1 52.59437849055451863 68.6193962210149806 13.82387546508233989 0 -1 0 0 0 -1 forward_v I I I I #
coedge $-1 $315 $227 $230 $316 forward $134 $-1 #
coedge $-1 $233 $136 $137 $221 reversed $81 $-1 #
coedge $-1 $227 $315 $136 $219 reversed $134 $-1 #
edge $-1 $234 -13.82387546508233989 $317 13.82387546508233989 $218 $318 forward 7 unknown #
coedge $-1 $138 $137 $315 $319 forward $50 $-1 #
edge $-1 $225 -52.59437849055451863 $317 52.59437849055451863 $217 $320 forward 7 unknown #
coedge $-1 $230 $229 $138 $223 reversed $214 $-1 #
edge $-1 $321 -52.59437849055451863 $224 52.59437849055451863 $222 $322 forward 7 unknown #
vertex $-1 $140 $323 #
vertex $-1 $236 $324 #
straight-curve $-1 105.1887569811090373 34.3096981105074903 0 0 -1 0 I I #
coedge $-1 $216 $218 $141 $228 reversed $134 $-1 #
edge $-1 $231 -34.3096981105074903 $234 34.3096981105074903 $227 $325 forward 7 unknown #
coedge $-1 $222 $142 $147 $237 forward $214 $-1 #
coedge $-1 $142 $222 $216 $316 reversed $214 $-1 #
vertex $-1 $143 $326 #
straight-curve $-1 52.59437849055451863 68.6193962210149806 27.64775093016467977 -1 0 0 I I #
coedge $-1 $144 $217 $146 $236 reversed $81 $-1 #
vertex $-1 $228 $327 #
straight-curve $-1 52.59437849055451863 0 27.64775093016467977 1 0 0 I I #
edge $-1 $149 -13.82387546508233989 $225 13.82387546508233989 $146 $328 forward 7 unknown #
edge $-1 $150 -13.82387546508233989 $224 13.82387546508233989 $147 $329 forward 7 unknown #
point $-1 105.1887569811090373 0 27.64775093016467977 #
point $-1 105.1887569811090373 68.6193962210149806 27.64775093016467977 #
face $-1 $-1 $257 $15 $-1 $330 reversed single #
loop $-1 $-1 $331 $152 #
plane-surface $-1 0 34.3096981105074903 13.82387546508233989 1 0 0 0 0 -1 forward_v I I I I #
coedge $-1 $244 $260 $156 $247 forward $153 $-1 #
coedge $-1 $163 $243 $155 $245 forward $153 $-1 #
edge $-1 $251 -0.06204751646275497023 $166 5.295627097669353134 $244 $332 forward 7 unknown #
coedge $-1 $157 $156 $331 $333 reversed $54 $-1 #
edge $-1 $334 -30.14722736890034582 $251 -14.7470748744079998 $243 $335 forward 7 unknown #
coedge $-1 $256 $255 $157 $249 forward $257 $-1 #
edge $-1 $250 14.7470748744079998 $336 30.14722736890034582 $248 $337 forward 7 unknown #
vertex $-1 $249 $338 #
vertex $-1 $247 $339 #
straight-curve $-1 15.40015249449234602 34.3096981105074903 16.37861773922288222 0 -1 0 I I #
coedge $-1 $340 $341 $160 $254 forward $241 $-1 #
edge $-1 $261 -34.3096981105074903 $258 34.3096981105074903 $253 $342 forward 7 unknown #
coedge $-1 $248 $161 $165 $263 forward $257 $-1 #
coedge $-1 $161 $248 $340 $343 reversed $257 $-1 #
loop $-1 $-1 $248 $240 #
vertex $-1 $343 $344 #
straight-curve $-1 30.14722736890034582 68.6193962210149806 21.73629235335499033 1 0 0 I I #
coedge $-1 $243 $163 $341 $345 forward $153 $-1 #
vertex $-1 $345 $346 #
straight-curve $-1 30.14722736890034582 0 21.73629235335499033 -1 0 0 I I #
edge $-1 $167 -5.295627097669353134 $250 0.06204751646275497023 $255 $347 forward 7 unknown #
point $-1 15.40015249449234602 0 21.73629235335499033 #
point $-1 15.40015249449234602 68.6193962210149806 21.73629235335499033 #
plane-surface $-1 52.59437849055451863 0 13.82387546508233989 0 1 0 0 0 1 forward_v I I I I #
coedge $-1 $277 $276 $269 $348 forward $170 $-1 #
coedge $-1 $269 $172 $174 $273 reversed $97 $-1 #
coedge $-1 $172 $268 $267 $348 reversed $97 $-1 #
coedge $-1 $180 $175 $172 $271 forward $181 $-1 #
edge $-1 $274 -25.32493974925005631 $349 -21.18497593718307925 $270 $350 forward 7 unknown #
coedge $-1 $174 $173 $277 $351 reversed $58 $-1 #
edge $-1 $352 -5.053962569979712605 $274 -1.57163564266253914e-14 $268 $353 forward 7 unknown #
vertex $-1 $176 $354 #
straight-curve $-1 49.73451704643151317 0 23.50778711809770272 1 0 0 I I #
coedge $-1 $267 $177 $180 $281 forward $170 $-1 #
coedge $-1 $177 $267 $272 $351 forward $170 $-1 #
vertex $-1 $178 $355 #
straight-curve $-1 34.15855377576445306 -25.9279440311866054 27.64775093016467622 0 -1 0 I I #
straight-curve $-1 34.15855377576445306 -7.105427357601001859e-15 23.50778711809768851 0 0.5735764247347356903 0.8191520524228198541 I I #
edge $-1 $182 -18.43582471479006557 $349 6.996378938298043693 $180 $356 forward 7 unknown #
point $-1 34.15855377576445306 0 27.64775093016467977 #
point $-1 34.15855377576445306 0 23.50778711809770272 #
edge $-1 $357 1 $357 0 $185 $-1 forward 7 unknown #
vertex $-1 $186 $358 #
ellipse-curve $-1 41.42489767664677203 4.212289492203602492 23.64318485991616825 0 -0.8191520524228198541 0.5735764247347356903 1 0 0 1 I I #
point $-1 42.42489767664677203 1.449416890816074499 25.57776902413118592 #
edge $-1 $359 1 $359 0 $189 $-1 forward 7 unknown #
vertex $-1 $190 $360 #
ellipse-curve $-1 52.32441352797025047 4.212289492203602492 23.64318485991616825 0 -0.8191520524228198541 0.5735764247347356903 1 0 0 1 I I #
point $-1 53.32441352797025047 1.449416890816074499 25.57776902413118592 #
plane-surface $-1 52.59437849055451863 34.3096981105074903 27.64775093016467977 0 0 1 1 0 0 forward_v I I I I #
coedge $-1 $303 $302 $295 $361 forward $194 $-1 #
coedge $-1 $295 $196 $198 $299 reversed $119 $-1 #
coedge $-1 $196 $294 $293 $361 reversed $119 $-1 #
coedge $-1 $204 $199 $196 $297 forward $205 $-1 #
edge $-1 $300 -9.976006436101208408 $362 -5.228163209114356391 $296 $363 forward 7 unknown #
coedge $-1 $198 $197 $303 $364 reversed $72 $-1 #
edge $-1 $365 -68.61939622101496639 $300 -60.54188270829169483 $294 $366 forward 7 unknown #
vertex $-1 $200 $367 #
straight-curve $-1 60.23817122887941622 63.87155299402813569 27.64775093016468333 1 0 0 I I #
coedge $-1 $293 $201 $204 $307 reversed $194 $-1 #
coedge $-1 $201 $293 $298 $364 forward $194 $-1 #
vertex $-1 $202 $368 #
straight-curve $-1 59.23754668323857686 68.6193962210149806 76.13971887439898012 0 0 1 I I #
straight-curve $-1 59.23754668323857686 28.28592787401696995 76.62716340808829329 0 0.5877852410284793994 -0.8090170025587177793 I I #
edge $-1 $362 -23.93200276061553211 $206 -6.643168192684058226 $302 $369 forward 7 unknown #
point $-1 59.23754668323857686 68.6193962210149806 27.64775093016467977 #
point $-1 59.23754668323857686 63.87155299402812858 27.64775093016467622 #
edge $-1 $370 1 $370 0 $209 $-1 forward 7 unknown #
vertex $-1 $210 $371 #
ellipse-curve $-1 67.8819639672043138 61.40281640395201634 20.86193101459756249 0 0.8090170025587177793 0.5877852410284793994 1.5 0 0 1 I I #
point $-1 69.3819639672043138 66.24547460752155814 24.3803280450692057 #
plane-surface $-1 105.1887569811090373 34.3096981105074903 13.82387546508233989 -1 0 0 0 0 1 forward_v I I I I #
coedge $-1 $218 $216 $220 $319 reversed $134 $-1 #
edge $-1 $231 -13.82387546508233989 $321 13.82387546508233989 $230 $372 forward 7 unknown #
vertex $-1 $319 $373 #
straight-curve $-1 0 0 13.82387546508233989 0 0 -1 I I #
edge $-1 $317 -34.3096981105074903 $321 34.3096981105074903 $315 $374 forward 7 unknown #
straight-curve $-1 52.59437849055451863 0 0 -1 0 0 I I #
vertex $-1 $223 $375 #
straight-curve $-1 52.59437849055451863 68.6193962210149806 0 1 0 0 I I #
point $-1 105.1887569811090373 68.6193962210149806 0 #
point $-1 105.1887569811090373 0 0 #
straight-curve $-1 0 34.3096981105074903 27.64775093016467977 0 -1 0 I I #
point $-1 0 68.6193962210149806 27.64775093016467977 #
point $-1 0 0 27.64775093016467977 #
straight-curve $-1 105.1887569811090373 0 13.82387546508233989 0 0 -1 I I #
straight-curve $-1 105.1887569811090373 68.6193962210149806 13.82387546508233989 0 0 -1 I I #
plane-surface $-1 52.59437849055451863 68.6193962210149806 13.82387546508233989 0 -1 0 0 0 -1 forward_v I I I I #
coedge $-1 $341 $340 $246 $333 forward $241 $-1 #
straight-curve $-1 15.40015249449234602 0 16.44066525568563719 0 0 1 I I #
edge $-1 $336 -34.3096981105074903 $334 34.3096981105074903 $331 $376 forward 7 unknown #
vertex $-1 $247 $377 #
straight-curve $-1 30.14722736890034582 0 16.37861773922288222 1 0 0 I I #
vertex $-1 $249 $378 #
straight-curve $-1 30.14722736890034582 68.6193962210149806 16.37861773922288222 -1 0 0 I I #
point $-1 15.40015249449234602 68.6193962210149806 16.37861773922288222 #
point $-1 15.40015249449234602 0 16.37861773922288222 #
coedge $-1 $331 $253 $256 $343 forward $241 $-1 #
coedge $-1 $253 $331 $260 $345 reversed $241 $-1 #
straight-curve $-1 0 34.3096981105074903 21.73629235335499033 0 1 0 I I #
edge $-1 $258 -7.912416888272650439 $336 -2.554742274140542335 $256 $379 forward 7 unknown #
point $-1 0 68.6193962210149806 21.73629235335499033 #
edge $-1 $261 -7.912416888272650439 $334 -2.554742274140542335 $341 $380 forward 7 unknown #
point $-1 0 0 21.73629235335499033 #
straight-curve $-1 15.40015249449234602 68.6193962210149806 16.44066525568563719 0 0 -1 I I #
edge $-1 $349 25.9279440311866054 $352 28.82677781281873663 $267 $381 forward 7 unknown #
vertex $-1 $348 $382 #
straight-curve $-1 59.59075742885256233 0 48.83272686734775903 0 0 1 I I #
edge $-1 $352 -9.856240382421049162 $278 15.5759632706670601 $277 $383 forward 7 unknown #
vertex $-1 $351 $384 #
straight-curve $-1 59.59075742885256233 -7.105427357601001859e-15 23.50778711809768851 0 -0.5735764247347356903 -0.8191520524228198541 I I #
point $-1 59.59075742885256233 0 23.50778711809770272 #
point $-1 34.15855377576445306 2.898833781632131235 27.64775093016467977 #
straight-curve $-1 52.59437849055451863 0 27.64775093016467977 1 0 0 I I #
vertex $-1 $284 $385 #
point $-1 42.42489767664677203 4.212289492203602492 23.64318485991616825 #
vertex $-1 $288 $386 #
point $-1 53.32441352797025047 4.212289492203602492 23.64318485991616825 #
edge $-1 $362 48.4919679442343039 $365 55.02681371442523073 $293 $387 forward 7 unknown #
vertex $-1 $307 $388 #
straight-curve $-1 76.52638125117005075 73.84755943012933699 27.64775093016467622 0 1 0 I I #
edge $-1 $365 -16.28821002229063453 $304 1.000624545640839358 $303 $389 forward 7 unknown #
vertex $-1 $364 $390 #
straight-curve $-1 76.52638125117005075 28.28592787401696995 76.62716340808829329 0 -0.5877852410284793994 0.8090170025587177793 I I #
point $-1 76.52638125117005075 63.87155299402812858 27.64775093016467622 #
point $-1 59.23754668323857686 68.6193962210149806 21.11290515997374939 #
straight-curve $-1 52.59437849055451863 68.6193962210149806 27.64775093016467977 -1 0 0 I I #
vertex $-1 $310 $391 #
point $-1 69.3819639672043138 61.40281640395201634 20.86193101459756249 #
straight-curve $-1 0 68.6193962210149806 13.82387546508233989 0 0 -1 I I #
point $-1 0 0 0 #
straight-curve $-1 0 34.3096981105074903 0 0 1 0 I I #
point $-1 0 68.6193962210149806 0 #
straight-curve $-1 0 34.3096981105074903 16.37861773922288222 0 -1 0 I I #
point $-1 0 0 16.37861773922288222 #
point $-1 0 68.6193962210149806 16.37861773922288222 #
straight-curve $-1 0 68.6193962210149806 13.82387546508233989 0 0 -1 I I #
straight-curve $-1 0 0 13.82387546508233989 0 0 -1 I I #
straight-curve $-1 59.59075742885256233 -25.9279440311866054 27.64775093016467622 0 1 0 I I #
point $-1 59.59075742885256233 0 27.64775093016467977 #
straight-curve $-1 49.73451704643151317 2.898833781632131235 27.64775093016467977 -1 0 0 I I #
point $-1 59.59075742885256233 2.898833781632131235 27.64775093016467977 #
point $-1 41.42489767664677203 5.0314415446264249 23.06960843518142923 #
point $-1 52.32441352797025047 5.0314415446264249 23.06960843518142923 #
straight-curve $-1 76.52638125117005075 68.6193962210149806 76.13971887439898012 0 0 -1 I I #
point $-1 76.52638125117005075 68.6193962210149806 27.64775093016467977 #
straight-curve $-1 60.23817122887941622 68.6193962210149806 21.1129051599737565 -1 0 0 I I #
point $-1 76.52638125117005075 68.6193962210149806 21.11290515997374939 #
point $-1 67.8819639672043138 60.18929090011394578 19.98025315305484284 #
End-of-ACIS-data 