500 0 14 0           
7 Unknown 11 ACIS 5.0 NT 24 Fri Mar 26 15:48:47 1999 
-1 9.9999999999999995e-007 1e-010 
body $-1 $14 $-1 $15 #
body $-1 $16 $-1 $17 #
body $-1 $18 $-1 $19 #
body $-1 $20 $-1 $21 #
body $-1 $22 $-1 $23 #
body $-1 $24 $-1 $25 #
body $-1 $26 $-1 $27 #
body $-1 $28 $-1 $29 #
body $-1 $30 $-1 $31 #
body $-1 $32 $-1 $33 #
body $-1 $34 $-1 $35 #
body $-1 $36 $-1 $37 #
body $-1 $38 $-1 $39 #
body $-1 $40 $-1 $41 #
lump $-1 $-1 $42 $0 #
transform $-1 1 0 0 0 1 0 0 0 1 63.917966246528522 37.332719303443611 9.2486978428795386 1 rotate no_reflect no_shear #
lump $-1 $-1 $43 $1 #
transform $-1 1 0 0 0 1 0 0 0 1 63.917966246528522 37.332719303443611 9.2486978428795386 1 rotate no_reflect no_shear #
lump $-1 $-1 $44 $2 #
transform $-1 1 0 0 0 1 0 0 0 1 63.917966246528522 37.332719303443611 9.2486978428795386 1 rotate no_reflect no_shear #
lump $-1 $-1 $45 $3 #
transform $-1 1 0 0 0 1 0 0 0 1 63.917966246528522 37.332719303443611 9.2486978428795386 1 rotate no_reflect no_shear #
lump $-1 $-1 $46 $4 #
transform $-1 1 0 0 0 1 0 0 0 1 63.917966246528522 37.332719303443611 9.2486978428795386 1 rotate no_reflect no_shear #
lump $-1 $-1 $47 $5 #
transform $-1 1 0 0 0 1 0 0 0 1 63.917966246528522 37.332719303443611 9.2486978428795386 1 rotate no_reflect no_shear #
lump $-1 $-1 $48 $6 #
transform $-1 1 0 0 0 1 0 0 0 1 63.917966246528522 37.332719303443611 9.2486978428795386 1 rotate no_reflect no_shear #
lump $-1 $-1 $49 $7 #
transform $-1 1 0 0 0 1 0 0 0 1 63.917966246528522 37.332719303443611 9.2486978428795386 1 rotate no_reflect no_shear #
lump $-1 $-1 $50 $8 #
transform $-1 1 0 0 0 1 0 0 0 1 63.917966246528522 37.332719303443611 9.2486978428795386 1 rotate no_reflect no_shear #
lump $-1 $-1 $51 $9 #
transform $-1 1 0 0 0 1 0 0 0 1 63.917966246528522 37.332719303443611 9.2486978428795386 1 rotate no_reflect no_shear #
lump $-1 $-1 $52 $10 #
transform $-1 1 0 0 0 1 0 0 0 1 63.917966246528522 37.332719303443611 9.2486978428795386 1 rotate no_reflect no_shear #
lump $-1 $-1 $53 $11 #
transform $-1 1 0 0 0 1 0 0 0 1 63.917966246528522 37.332719303443611 9.2486978428795386 1 rotate no_reflect no_shear #
lump $-1 $-1 $54 $12 #
transform $-1 1 0 0 0 1 0 0 0 1 63.917966246528522 37.332719303443611 9.2486978428795386 1 rotate no_reflect no_shear #
lump $-1 $-1 $55 $13 #
transform $-1 1 0 0 0 1 0 0 0 1 63.917966246528522 37.332719303443611 9.2486978428795386 1 rotate no_reflect no_shear #
shell $-1 $-1 $-1 $56 $-1 $14 #
shell $-1 $-1 $-1 $57 $-1 $16 #
shell $-1 $-1 $-1 $58 $-1 $18 #
shell $-1 $-1 $-1 $59 $-1 $20 #
shell $-1 $-1 $-1 $60 $-1 $22 #
shell $-1 $-1 $-1 $61 $-1 $24 #
shell $-1 $-1 $-1 $62 $-1 $26 #
shell $-1 $-1 $-1 $63 $-1 $28 #
shell $-1 $-1 $-1 $64 $-1 $30 #
shell $-1 $-1 $-1 $65 $-1 $32 #
shell $-1 $-1 $-1 $66 $-1 $34 #
shell $-1 $-1 $-1 $67 $-1 $36 #
shell $-1 $-1 $-1 $68 $-1 $38 #
shell $-1 $-1 $-1 $69 $-1 $40 #
face $-1 $70 $71 $42 $-1 $72 forward single #
face $-1 $73 $74 $43 $-1 $75 forward single #
face $-1 $76 $77 $44 $-1 $78 reversed single #
face $-1 $79 $80 $45 $-1 $81 forward single #
face $-1 $82 $83 $46 $-1 $84 forward single #
face $-1 $85 $86 $47 $-1 $87 reversed single #
face $-1 $88 $89 $48 $-1 $90 forward single #
face $-1 $91 $92 $49 $-1 $93 forward single #
face $-1 $94 $95 $50 $-1 $96 reversed single #
face $-1 $97 $98 $51 $-1 $99 forward single #
face $-1 $100 $101 $52 $-1 $102 forward single #
face $-1 $103 $104 $53 $-1 $105 reversed single #
face $-1 $106 $107 $54 $-1 $108 forward single #
face $-1 $109 $110 $55 $-1 $111 forward single #
face $-1 $112 $113 $42 $-1 $114 reversed single #
loop $-1 $-1 $115 $56 #
plane-surface $-1 0 0 9.2486978428795386 0 0 1 1 0 0 forward_v I I I I #
face $-1 $116 $117 $43 $-1 $118 reversed single #
loop $-1 $-1 $119 $57 #
plane-surface $-1 0 -37.332719303443611 0 0 1 0 0 0 1 forward_v I I I I #
face $-1 $120 $121 $44 $-1 $122 reversed single #
loop $-1 $-1 $123 $58 #
plane-surface $-1 -173.49474843591884 -21.019656003150168 71.753816491394474 0 1 0 -0.85716730853699208 0 0.51503806187062418 forward_v I I I I #
face $-1 $124 $125 $45 $-1 $126 forward single #
loop $-1 $127 $128 $59 #
cone-surface $-1 -62.138012054440537 -18.211651773995747 7.1136362013856376 0.85716730853699208 0 -0.51503806187062418 0.25751903093531209 0 0.42858365426849604 1 I I 0 1 0.5 forward I I I I #
face $-1 $129 $130 $46 $-1 $131 forward single #
loop $-1 $132 $133 $60 #
cone-surface $-1 -62.138012054440537 -13.999645430264117 7.1136362013856376 0.85716730853699208 0 -0.51503806187062418 0.25751903093531209 0 0.42858365426849604 1 I I 0 1 0.5 forward I I I I #
face $-1 $134 $135 $47 $-1 $136 reversed single #
loop $-1 $-1 $137 $61 #
plane-surface $-1 -173.49474843591884 12.454826187473847 71.753816491394474 0 1 0 -0.85716730853699208 0 0.51503806187062418 forward_v I I I I #
face $-1 $138 $139 $48 $-1 $140 forward single #
loop $-1 $141 $142 $62 #
cone-surface $-1 -62.138012054440537 15.262830416628269 7.1136362013856376 0.85716730853699208 0 -0.51503806187062418 0.25751903093531209 0 0.42858365426849604 1 I I 0 1 0.5 forward I I I I #
face $-1 $143 $144 $49 $-1 $145 forward single #
loop $-1 $146 $147 $63 #
cone-surface $-1 -62.138012054440537 19.474836760359899 7.1136362013856376 0.85716730853699208 0 -0.51503806187062418 0.25751903093531209 0 0.42858365426849604 1 I I 0 1 0.5 forward I I I I #
face $-1 $148 $149 $50 $-1 $150 reversed single #
loop $-1 $-1 $151 $64 #
plane-surface $-1 107.65437752727081 -11.191641201109695 181.33059868078476 0 -1 0 -0.85716730853699208 0 -0.51503806187062418 forward_v I I I I #
face $-1 $152 $153 $51 $-1 $154 forward single #
loop $-1 $155 $156 $65 #
cone-surface $-1 62.138012054440537 -18.211651773995747 7.113636201385634 -0.85716730853699208 0 -0.51503806187062418 0.25751903093531209 0 -0.42858365426849604 1 I I 0 1 0.5 forward I I I I #
face $-1 $157 $158 $52 $-1 $159 forward single #
loop $-1 $160 $161 $66 #
cone-surface $-1 62.138012054440537 -13.999645430264117 7.113636201385634 -0.85716730853699208 0 -0.51503806187062418 0.25751903093531209 0 -0.42858365426849604 1 I I 0 1 0.5 forward I I I I #
face $-1 $162 $163 $53 $-1 $164 reversed single #
loop $-1 $-1 $165 $67 #
plane-surface $-1 107.65437752727081 22.28284098951432 181.33059868078476 0 -1 0 -0.85716730853699208 0 -0.51503806187062418 forward_v I I I I #
face $-1 $166 $167 $54 $-1 $168 forward single #
loop $-1 $169 $170 $68 #
cone-surface $-1 62.138012054440537 15.262830416628269 7.113636201385634 -0.85716730853699208 0 -0.51503806187062418 0.25751903093531209 0 -0.42858365426849604 1 I I 0 1 0.5 forward I I I I #
face $-1 $171 $172 $55 $-1 $173 forward single #
loop $-1 $174 $175 $69 #
cone-surface $-1 62.138012054440537 19.474836760359899 7.113636201385634 -0.85716730853699208 0 -0.51503806187062418 0.25751903093531209 0 -0.42858365426849604 1 I I 0 1 0.5 forward I I I I #
face $-1 $176 $177 $42 $-1 $178 reversed single #
loop $-1 $-1 $179 $70 #
plane-surface $-1 0 0 -9.2486978428795386 0 0 1 1 0 0 forward_v I I I I #
coedge $-1 $180 $181 $182 $183 forward $71 $-1 #
face $-1 $184 $185 $43 $-1 $186 forward single #
loop $-1 $-1 $187 $73 #
plane-surface $-1 -63.917966246528522 0 0 1 0 0 0 0 -1 forward_v I I I I #
coedge $-1 $188 $189 $190 $191 forward $74 $-1 #
face $-1 $192 $193 $44 $-1 $194 reversed single #
loop $-1 $-1 $195 $76 #
plane-surface $-1 -63.917966246528508 -16.105648602129932 5.9134455827464194 -0.85716730853699208 0 0.51503806187062418 0.51503806187062418 0 0.85716730853699208 forward_v I I I I #
coedge $-1 $196 $197 $198 $199 reversed $77 $-1 #
face $-1 $-1 $200 $45 $-1 $201 forward single #
loop $-1 $202 $203 $79 #
cone-surface $-1 -61.145776869509504 -18.211651773995747 6.517441174490644 0.85716730853699208 0 -0.51503806187062418 0.12875951546765604 0 0.21429182713424802 1 I I -0.70710678118654746 0.70710678118654746 0.25 forward I I I I #
loop $-1 $-1 $204 $59 #
coedge $-1 $128 $128 $205 $206 reversed $80 $-1 #
face $-1 $-1 $207 $46 $-1 $208 forward single #
loop $-1 $209 $210 $82 #
cone-surface $-1 -61.145776869509504 -13.999645430264117 6.517441174490644 0.85716730853699208 0 -0.51503806187062418 0.12875951546765604 0 0.21429182713424802 1 I I -0.70710678118654746 0.70710678118654746 0.25 forward I I I I #
loop $-1 $-1 $211 $60 #
coedge $-1 $133 $133 $212 $213 reversed $83 $-1 #
face $-1 $214 $215 $47 $-1 $216 reversed single #
loop $-1 $-1 $217 $85 #
plane-surface $-1 -63.917966246528508 17.368833588494084 5.9134455827464194 -0.85716730853699208 0 0.51503806187062418 0.51503806187062418 0 0.85716730853699208 forward_v I I I I #
coedge $-1 $218 $219 $220 $221 reversed $86 $-1 #
face $-1 $-1 $222 $48 $-1 $223 forward single #
loop $-1 $224 $225 $88 #
cone-surface $-1 -61.145776869509504 15.262830416628269 6.517441174490644 0.85716730853699208 0 -0.51503806187062418 0.12875951546765604 0 0.21429182713424802 1 I I -0.70710678118654746 0.70710678118654746 0.25 forward I I I I #
loop $-1 $-1 $226 $62 #
coedge $-1 $142 $142 $227 $228 reversed $89 $-1 #
face $-1 $-1 $229 $49 $-1 $230 forward single #
loop $-1 $231 $232 $91 #
cone-surface $-1 -61.145776869509504 19.474836760359899 6.517441174490644 0.85716730853699208 0 -0.51503806187062418 0.12875951546765604 0 0.21429182713424802 1 I I -0.70710678118654746 0.70710678118654746 0.25 forward I I I I #
loop $-1 $-1 $233 $63 #
coedge $-1 $147 $147 $234 $235 reversed $92 $-1 #
face $-1 $236 $237 $50 $-1 $238 reversed single #
loop $-1 $-1 $239 $94 #
plane-surface $-1 -1.9224046621195185 -16.105648602129932 115.49022777213671 0.85716730853699208 0 0.51503806187062418 0.51503806187062418 0 -0.85716730853699208 forward_v I I I I #
coedge $-1 $240 $241 $242 $243 reversed $95 $-1 #
face $-1 $-1 $244 $51 $-1 $245 forward single #
loop $-1 $246 $247 $97 #
cone-surface $-1 61.145776869509504 -18.211651773995747 6.5174411744906404 -0.85716730853699208 0 -0.51503806187062418 0.12875951546765604 0 -0.21429182713424802 1 I I -0.70710678118654746 0.70710678118654746 0.25 forward I I I I #
loop $-1 $-1 $248 $65 #
coedge $-1 $156 $156 $249 $250 reversed $98 $-1 #
face $-1 $-1 $251 $52 $-1 $252 forward single #
loop $-1 $253 $254 $100 #
cone-surface $-1 61.145776869509504 -13.999645430264117 6.5174411744906404 -0.85716730853699208 0 -0.51503806187062418 0.12875951546765604 0 -0.21429182713424802 1 I I -0.70710678118654746 0.70710678118654746 0.25 forward I I I I #
loop $-1 $-1 $255 $66 #
coedge $-1 $161 $161 $256 $257 reversed $101 $-1 #
face $-1 $258 $259 $53 $-1 $260 reversed single #
loop $-1 $-1 $261 $103 #
plane-surface $-1 -1.9224046621195185 17.368833588494084 115.49022777213671 0.85716730853699208 0 0.51503806187062418 0.51503806187062418 0 -0.85716730853699208 forward_v I I I I #
coedge $-1 $262 $263 $264 $265 reversed $104 $-1 #
face $-1 $-1 $266 $54 $-1 $267 forward single #
loop $-1 $268 $269 $106 #
cone-surface $-1 61.145776869509504 15.262830416628269 6.5174411744906404 -0.85716730853699208 0 -0.51503806187062418 0.12875951546765604 0 -0.21429182713424802 1 I I -0.70710678118654746 0.70710678118654746 0.25 forward I I I I #
loop $-1 $-1 $270 $68 #
coedge $-1 $170 $170 $271 $272 reversed $107 $-1 #
face $-1 $-1 $273 $55 $-1 $274 forward single #
loop $-1 $275 $276 $109 #
cone-surface $-1 61.145776869509504 19.474836760359899 6.5174411744906404 -0.85716730853699208 0 -0.51503806187062418 0.12875951546765604 0 -0.21429182713424802 1 I I -0.70710678118654746 0.70710678118654746 0.25 forward I I I I #
loop $-1 $-1 $277 $69 #
coedge $-1 $175 $175 $278 $279 reversed $110 $-1 #
face $-1 $280 $281 $42 $-1 $282 reversed single #
loop $-1 $-1 $283 $112 #
plane-surface $-1 0 -37.332719303443611 0 0 1 0 0 0 1 forward_v I I I I #
coedge $-1 $284 $285 $286 $287 forward $113 $-1 #
coedge $-1 $288 $115 $289 $290 forward $71 $-1 #
coedge $-1 $115 $288 $291 $292 forward $71 $-1 #
coedge $-1 $293 $294 $115 $183 reversed $295 $-1 #
edge $-1 $296 -37.332719303443611 $297 37.332719303443611 $182 $298 forward 7 unknown #
face $-1 $299 $300 $43 $-1 $301 reversed single #
loop $-1 $-1 $302 $116 #
plane-surface $-1 0 -41.190956416263205 -3.1971978958015699 0 0 1 1 0 0 forward_v I I I I #
coedge $-1 $303 $304 $189 $305 forward $117 $-1 #
coedge $-1 $306 $119 $307 $308 reversed $74 $-1 #
coedge $-1 $119 $306 $187 $305 reversed $74 $-1 #
coedge $-1 $309 $302 $119 $191 reversed $185 $-1 #
edge $-1 $310 -63.917966246528522 $311 63.917966246528522 $190 $312 forward 7 unknown #
face $-1 $313 $314 $44 $-1 $315 forward single #
loop $-1 $-1 $316 $120 #
plane-surface $-1 -173.49474843591884 -11.191641201109695 71.753816491394474 0 -1 0 0.85716730853699208 0 -0.51503806187062418 forward_v I I I I #
coedge $-1 $317 $318 $319 $320 reversed $121 $-1 #
coedge $-1 $197 $123 $321 $322 reversed $77 $-1 #
coedge $-1 $123 $196 $317 $323 reversed $77 $-1 #
coedge $-1 $319 $324 $123 $199 forward $314 $-1 #
edge $-1 $325 22.829407971430896 $326 24.8334296400133 $198 $327 forward 7 unknown #
loop $-1 $-1 $205 $124 #
plane-surface $-1 -63.917966246528508 -16.105648602129932 5.9134455827464194 -0.85716730853699208 0 0.51503806187062418 0.51503806187062418 0 0.85716730853699208 forward_v I I I I #
loop $-1 $-1 $328 $79 #
coedge $-1 $203 $203 $204 $329 reversed $125 $-1 #
coedge $-1 $204 $204 $203 $329 forward $127 $-1 #
coedge $-1 $205 $205 $128 $206 forward $200 $-1 #
edge $-1 $330 0 $330 6.2831853071796004 $205 $331 forward 7 unknown #
loop $-1 $-1 $212 $129 #
plane-surface $-1 -63.917966246528508 -16.105648602129932 5.9134455827464194 -0.85716730853699208 0 0.51503806187062418 0.51503806187062418 0 0.85716730853699208 forward_v I I I I #
loop $-1 $-1 $332 $82 #
coedge $-1 $210 $210 $211 $333 reversed $130 $-1 #
coedge $-1 $211 $211 $210 $333 forward $132 $-1 #
coedge $-1 $212 $212 $133 $213 forward $207 $-1 #
edge $-1 $334 0 $334 6.2831853071796004 $212 $335 forward 7 unknown #
face $-1 $336 $337 $47 $-1 $338 forward single #
loop $-1 $-1 $339 $134 #
plane-surface $-1 -173.49474843591884 22.28284098951432 71.753816491394474 0 -1 0 0.85716730853699208 0 -0.51503806187062418 forward_v I I I I #
coedge $-1 $340 $341 $342 $343 reversed $135 $-1 #
coedge $-1 $219 $137 $344 $345 reversed $86 $-1 #
coedge $-1 $137 $218 $340 $346 reversed $86 $-1 #
coedge $-1 $342 $347 $137 $221 forward $337 $-1 #
edge $-1 $348 22.829407971430896 $349 24.8334296400133 $220 $350 forward 7 unknown #
loop $-1 $-1 $227 $138 #
plane-surface $-1 -63.917966246528508 17.368833588494084 5.9134455827464194 -0.85716730853699208 0 0.51503806187062418 0.51503806187062418 0 0.85716730853699208 forward_v I I I I #
loop $-1 $-1 $351 $88 #
coedge $-1 $225 $225 $226 $352 reversed $139 $-1 #
coedge $-1 $226 $226 $225 $352 forward $141 $-1 #
coedge $-1 $227 $227 $142 $228 forward $222 $-1 #
edge $-1 $353 0 $353 6.2831853071796004 $227 $354 forward 7 unknown #
loop $-1 $-1 $234 $143 #
plane-surface $-1 -63.917966246528508 17.368833588494084 5.9134455827464194 -0.85716730853699208 0 0.51503806187062418 0.51503806187062418 0 0.85716730853699208 forward_v I I I I #
loop $-1 $-1 $355 $91 #
coedge $-1 $232 $232 $233 $356 reversed $144 $-1 #
coedge $-1 $233 $233 $232 $356 forward $146 $-1 #
coedge $-1 $234 $234 $147 $235 forward $229 $-1 #
edge $-1 $357 0 $357 6.2831853071796004 $234 $358 forward 7 unknown #
face $-1 $359 $360 $50 $-1 $361 reversed single #
loop $-1 $-1 $362 $148 #
plane-surface $-1 107.65437752727081 -21.019656003150168 181.33059868078476 0 1 0 0.85716730853699208 0 0.51503806187062418 forward_v I I I I #
coedge $-1 $363 $364 $365 $366 reversed $149 $-1 #
coedge $-1 $241 $151 $367 $368 reversed $95 $-1 #
coedge $-1 $151 $240 $363 $369 reversed $95 $-1 #
coedge $-1 $365 $370 $151 $243 forward $371 $-1 #
edge $-1 $372 -10.090777482893117 $373 -8.0867558143107203 $242 $374 forward 7 unknown #
loop $-1 $-1 $249 $152 #
plane-surface $-1 -1.9224046621195185 -16.105648602129932 115.49022777213671 0.85716730853699208 0 0.51503806187062418 0.51503806187062418 0 -0.85716730853699208 forward_v I I I I #
loop $-1 $-1 $375 $97 #
coedge $-1 $247 $247 $248 $376 reversed $153 $-1 #
coedge $-1 $248 $248 $247 $376 forward $155 $-1 #
coedge $-1 $249 $249 $156 $250 forward $244 $-1 #
edge $-1 $377 0 $377 6.2831853071796004 $249 $378 forward 7 unknown #
loop $-1 $-1 $256 $157 #
plane-surface $-1 -1.9224046621195185 -16.105648602129932 115.49022777213671 0.85716730853699208 0 0.51503806187062418 0.51503806187062418 0 -0.85716730853699208 forward_v I I I I #
loop $-1 $-1 $379 $100 #
coedge $-1 $254 $254 $255 $380 reversed $158 $-1 #
coedge $-1 $255 $255 $254 $380 forward $160 $-1 #
coedge $-1 $256 $256 $161 $257 forward $251 $-1 #
edge $-1 $381 0 $381 6.2831853071796004 $256 $382 forward 7 unknown #
face $-1 $383 $384 $53 $-1 $385 reversed single #
loop $-1 $-1 $386 $162 #
plane-surface $-1 107.65437752727081 12.454826187473847 181.33059868078476 0 1 0 0.85716730853699208 0 0.51503806187062418 forward_v I I I I #
coedge $-1 $387 $388 $389 $390 reversed $163 $-1 #
coedge $-1 $263 $165 $391 $392 reversed $104 $-1 #
coedge $-1 $165 $262 $387 $393 reversed $104 $-1 #
coedge $-1 $389 $394 $165 $265 forward $395 $-1 #
edge $-1 $396 -10.090777482893117 $397 -8.0867558143107203 $264 $398 forward 7 unknown #
loop $-1 $-1 $271 $166 #
plane-surface $-1 -1.9224046621195185 17.368833588494084 115.49022777213671 0.85716730853699208 0 0.51503806187062418 0.51503806187062418 0 -0.85716730853699208 forward_v I I I I #
loop $-1 $-1 $399 $106 #
coedge $-1 $269 $269 $270 $400 reversed $167 $-1 #
coedge $-1 $270 $270 $269 $400 forward $169 $-1 #
coedge $-1 $271 $271 $170 $272 forward $266 $-1 #
edge $-1 $401 0 $401 6.2831853071796004 $271 $402 forward 7 unknown #
loop $-1 $-1 $278 $171 #
plane-surface $-1 -1.9224046621195185 17.368833588494084 115.49022777213671 0.85716730853699208 0 0.51503806187062418 0.51503806187062418 0 -0.85716730853699208 forward_v I I I I #
loop $-1 $-1 $403 $109 #
coedge $-1 $276 $276 $277 $404 reversed $172 $-1 #
coedge $-1 $277 $277 $276 $404 forward $174 $-1 #
coedge $-1 $278 $278 $175 $279 forward $273 $-1 #
edge $-1 $405 0 $405 6.2831853071796004 $278 $406 forward 7 unknown #
face $-1 $407 $408 $42 $-1 $409 reversed single #
loop $-1 $-1 $410 $176 #
plane-surface $-1 -63.917966246528522 0 0 1 0 0 0 0 -1 forward_v I I I I #
coedge $-1 $411 $291 $412 $413 forward $177 $-1 #
coedge $-1 $414 $179 $411 $415 forward $113 $-1 #
coedge $-1 $179 $414 $416 $417 forward $113 $-1 #
coedge $-1 $294 $293 $179 $287 reversed $295 $-1 #
edge $-1 $418 -37.332719303443611 $419 37.332719303443611 $286 $420 forward 7 unknown #
coedge $-1 $181 $180 $421 $422 forward $71 $-1 #
coedge $-1 $423 $424 $180 $290 reversed $408 $-1 #
edge $-1 $297 -63.917966246528522 $425 63.917966246528522 $289 $426 forward 7 unknown #
coedge $-1 $283 $427 $181 $292 reversed $177 $-1 #
edge $-1 $428 -63.917966246528522 $296 63.917966246528522 $291 $429 forward 7 unknown #
coedge $-1 $286 $182 $427 $430 forward $295 $-1 #
coedge $-1 $182 $286 $423 $431 reversed $295 $-1 #
loop $-1 $-1 $293 $407 #
vertex $-1 $183 $432 #
vertex $-1 $183 $433 #
straight-curve $-1 63.917966246528522 0 9.2486978428795386 0 1 0 I I #
face $-1 $434 $435 $43 $-1 $436 reversed single #
loop $-1 $-1 $437 $184 #
plane-surface $-1 0 -41.190956416263205 -8.1881132984128726 0 0 1 1 0 0 forward_v I I I I #
coedge $-1 $190 $438 $439 $440 forward $185 $-1 #
coedge $-1 $441 $187 $442 $443 reversed $117 $-1 #
coedge $-1 $187 $441 $309 $444 reversed $117 $-1 #
edge $-1 $310 3.1971978958015699 $445 8.1881132984128726 $187 $446 forward 7 unknown #
coedge $-1 $189 $188 $447 $448 forward $74 $-1 #
coedge $-1 $439 $449 $188 $308 forward $450 $-1 #
edge $-1 $451 -8.1881132984128726 $311 -3.1971978958015699 $307 $452 forward 7 unknown #
coedge $-1 $438 $190 $304 $444 forward $185 $-1 #
vertex $-1 $305 $453 #
vertex $-1 $440 $454 #
straight-curve $-1 0 -37.332719303443611 -3.1971978958015699 1 0 0 I I #
face $-1 $-1 $455 $44 $-1 $456 reversed single #
loop $-1 $-1 $198 $192 #
plane-surface $-1 0 0 9.2486978428795386 0 0 1 1 0 0 forward_v I I I I #
coedge $-1 $457 $458 $459 $460 reversed $193 $-1 #
coedge $-1 $461 $195 $197 $323 forward $121 $-1 #
coedge $-1 $195 $461 $457 $462 forward $121 $-1 #
coedge $-1 $459 $198 $195 $320 forward $314 $-1 #
edge $-1 $326 -12.966831702085202 $463 -3.1388169000447288 $319 $464 forward 7 unknown #
coedge $-1 $465 $466 $196 $322 forward $455 $-1 #
edge $-1 $467 -29.963462662950842 $325 -26.6282104028177 $321 $468 forward 7 unknown #
edge $-1 $326 -3.8910166392436349 $467 2.787470371894754e-014 $197 $469 forward 7 unknown #
coedge $-1 $198 $459 $465 $470 forward $314 $-1 #
vertex $-1 $322 $471 #
vertex $-1 $199 $472 #
straight-curve $-1 -86.747374217959418 -21.019656003150168 9.2486978428795368 1 0 0 I I #
coedge $-1 $328 $328 $-1 $473 reversed $202 $-1 #
edge $-1 $474 0 $474 6.2831853071796004 $203 $475 forward 7 unknown #
vertex $-1 $206 $476 #
ellipse-curve $-1 -62.915955412237317 -18.211651773995747 7.5810717128129701 -0.85716730853699208 0 0.51503806187062418 0.25751903093531209 0 0.42858365426849604 1 I I #
coedge $-1 $332 $332 $-1 $477 reversed $209 $-1 #
edge $-1 $478 0 $478 6.2831853071796004 $210 $479 forward 7 unknown #
vertex $-1 $213 $480 #
ellipse-curve $-1 -62.915955412237317 -13.999645430264117 7.5810717128129701 -0.85716730853699208 0 0.51503806187062418 0.25751903093531209 0 0.42858365426849604 1 I I #
face $-1 $-1 $481 $47 $-1 $482 reversed single #
loop $-1 $-1 $220 $214 #
plane-surface $-1 0 0 9.2486978428795386 0 0 1 1 0 0 forward_v I I I I #
coedge $-1 $483 $484 $485 $486 reversed $215 $-1 #
coedge $-1 $487 $217 $219 $346 forward $135 $-1 #
coedge $-1 $217 $487 $483 $488 forward $135 $-1 #
coedge $-1 $485 $220 $217 $343 forward $337 $-1 #
edge $-1 $349 3.7704093932268048 $489 13.598424195267278 $342 $490 forward 7 unknown #
coedge $-1 $491 $492 $218 $345 forward $481 $-1 #
edge $-1 $493 -29.963462662950842 $348 -26.6282104028177 $344 $494 forward 7 unknown #
edge $-1 $349 -3.8910166392436349 $493 2.787470371894754e-014 $219 $495 forward 7 unknown #
coedge $-1 $220 $485 $491 $496 forward $337 $-1 #
vertex $-1 $221 $497 #
vertex $-1 $221 $498 #
straight-curve $-1 -86.747374217959418 12.454826187473847 9.2486978428795368 1 0 0 I I #
coedge $-1 $351 $351 $-1 $499 reversed $224 $-1 #
edge $-1 $500 0 $500 6.2831853071796004 $225 $501 forward 7 unknown #
vertex $-1 $228 $502 #
ellipse-curve $-1 -62.915955412237317 15.262830416628269 7.5810717128129701 -0.85716730853699208 0 0.51503806187062418 0.25751903093531209 0 0.42858365426849604 1 I I #
coedge $-1 $355 $355 $-1 $503 reversed $231 $-1 #
edge $-1 $504 0 $504 6.2831853071796004 $232 $505 forward 7 unknown #
vertex $-1 $235 $506 #
ellipse-curve $-1 -62.915955412237317 19.474836760359899 7.5810717128129701 -0.85716730853699208 0 0.51503806187062418 0.25751903093531209 0 0.42858365426849604 1 I I #
face $-1 $-1 $371 $50 $-1 $507 forward single #
loop $-1 $-1 $508 $236 #
plane-surface $-1 63.917966246528522 0 0 -1 0 0 0 0 1 forward_v I I I I #
coedge $-1 $509 $510 $511 $512 reversed $237 $-1 #
coedge $-1 $513 $239 $241 $369 forward $149 $-1 #
coedge $-1 $239 $513 $509 $514 forward $149 $-1 #
coedge $-1 $511 $242 $239 $366 forward $371 $-1 #
edge $-1 $373 3.1388169000447288 $515 12.966831702085202 $365 $516 forward 7 unknown #
coedge $-1 $517 $518 $240 $368 forward $360 $-1 #
edge $-1 $519 -84.751853757645975 $372 -81.416601497512843 $367 $520 forward 7 unknown #
edge $-1 $373 123.94491585381338 $519 127.83593249305703 $241 $521 forward 7 unknown #
coedge $-1 $242 $511 $517 $522 forward $371 $-1 #
loop $-1 $-1 $511 $359 #
vertex $-1 $368 $523 #
vertex $-1 $243 $524 #
straight-curve $-1 53.827188763635405 -11.191641201109695 9.2486978428795368 -1 0 0 I I #
coedge $-1 $375 $375 $-1 $525 reversed $246 $-1 #
edge $-1 $526 0 $526 6.2831853071796004 $247 $527 forward 7 unknown #
vertex $-1 $250 $528 #
ellipse-curve $-1 62.915955412237324 -18.211651773995747 7.5810717128129728 0.85716730853699208 0 0.51503806187062418 0.25751903093531209 0 -0.42858365426849604 1 I I #
coedge $-1 $379 $379 $-1 $529 reversed $253 $-1 #
edge $-1 $530 0 $530 6.2831853071796004 $254 $531 forward 7 unknown #
vertex $-1 $257 $532 #
ellipse-curve $-1 62.915955412237324 -13.999645430264117 7.5810717128129728 0.85716730853699208 0 0.51503806187062418 0.25751903093531209 0 -0.42858365426849604 1 I I #
face $-1 $-1 $395 $53 $-1 $533 forward single #
loop $-1 $-1 $534 $258 #
plane-surface $-1 63.917966246528522 0 0 -1 0 0 0 0 1 forward_v I I I I #
coedge $-1 $535 $536 $537 $538 reversed $259 $-1 #
coedge $-1 $539 $261 $263 $393 forward $163 $-1 #
coedge $-1 $261 $539 $535 $540 forward $163 $-1 #
coedge $-1 $537 $264 $261 $390 forward $395 $-1 #
edge $-1 $397 -13.598424195267278 $541 -3.7704093932268048 $389 $542 forward 7 unknown #
coedge $-1 $543 $544 $262 $392 forward $384 $-1 #
edge $-1 $545 -84.751853757645975 $396 -81.416601497512843 $391 $546 forward 7 unknown #
edge $-1 $397 123.94491585381338 $545 127.83593249305703 $263 $547 forward 7 unknown #
coedge $-1 $264 $537 $543 $548 forward $395 $-1 #
loop $-1 $-1 $537 $383 #
vertex $-1 $392 $549 #
vertex $-1 $265 $550 #
straight-curve $-1 53.827188763635405 22.28284098951432 9.2486978428795368 -1 0 0 I I #
coedge $-1 $399 $399 $-1 $551 reversed $268 $-1 #
edge $-1 $552 0 $552 6.2831853071796004 $269 $553 forward 7 unknown #
vertex $-1 $272 $554 #
ellipse-curve $-1 62.915955412237324 15.262830416628269 7.5810717128129728 0.85716730853699208 0 0.51503806187062418 0.25751903093531209 0 -0.42858365426849604 1 I I #
coedge $-1 $403 $403 $-1 $555 reversed $275 $-1 #
edge $-1 $556 0 $556 6.2831853071796004 $276 $557 forward 7 unknown #
vertex $-1 $279 $558 #
ellipse-curve $-1 62.915955412237324 19.474836760359899 7.5810717128129728 0.85716730853699208 0 0.51503806187062418 0.25751903093531209 0 -0.42858365426849604 1 I I #
face $-1 $-1 $295 $42 $-1 $559 reversed single #
loop $-1 $-1 $423 $280 #
plane-surface $-1 0 37.332719303443611 0 0 -1 0 0 0 -1 forward_v I I I I #
coedge $-1 $560 $421 $424 $561 forward $281 $-1 #
coedge $-1 $427 $283 $284 $415 reversed $177 $-1 #
coedge $-1 $421 $560 $283 $413 reversed $281 $-1 #
edge $-1 $428 -9.2486978428795386 $562 9.2486978428795386 $412 $563 forward 7 unknown #
coedge $-1 $285 $284 $560 $564 forward $113 $-1 #
edge $-1 $419 -63.917966246528522 $562 63.917966246528522 $411 $565 forward 7 unknown #
coedge $-1 $424 $423 $285 $417 reversed $408 $-1 #
edge $-1 $566 -63.917966246528522 $418 63.917966246528522 $416 $567 forward 7 unknown #
vertex $-1 $287 $568 #
vertex $-1 $430 $569 #
straight-curve $-1 63.917966246528522 0 -9.2486978428795386 0 -1 0 I I #
coedge $-1 $410 $412 $288 $422 reversed $281 $-1 #
edge $-1 $425 -37.332719303443611 $428 37.332719303443611 $421 $570 forward 7 unknown #
coedge $-1 $416 $289 $294 $431 forward $408 $-1 #
coedge $-1 $289 $416 $410 $561 reversed $408 $-1 #
vertex $-1 $290 $571 #
straight-curve $-1 0 37.332719303443611 9.2486978428795386 -1 0 0 I I #
coedge $-1 $291 $411 $293 $430 reversed $177 $-1 #
vertex $-1 $422 $572 #
straight-curve $-1 0 -37.332719303443611 9.2486978428795386 1 0 0 I I #
edge $-1 $296 -9.2486978428795386 $419 9.2486978428795386 $293 $573 forward 7 unknown #
edge $-1 $297 -9.2486978428795386 $418 9.2486978428795386 $294 $574 forward 7 unknown #
point $-1 63.917966246528522 -37.332719303443611 9.2486978428795386 #
point $-1 63.917966246528522 37.332719303443611 9.2486978428795386 #
face $-1 $-1 $450 $43 $-1 $575 reversed single #
loop $-1 $-1 $576 $299 #
plane-surface $-1 0 -45.0491935290828 -5.6926555971072217 0 1 0 0 0 1 forward_v I I I I #
coedge $-1 $577 $447 $449 $578 forward $300 $-1 #
coedge $-1 $302 $309 $579 $580 forward $185 $-1 #
coedge $-1 $581 $307 $302 $440 reversed $450 $-1 #
edge $-1 $582 -3.8582371128195945 $311 3.8582371128195945 $439 $583 forward 7 unknown #
coedge $-1 $304 $303 $576 $584 reversed $117 $-1 #
coedge $-1 $447 $577 $303 $443 forward $300 $-1 #
edge $-1 $585 -3.8582371128195945 $445 3.8582371128195945 $303 $586 forward 7 unknown #
edge $-1 $310 -3.8582371128195945 $587 3.8582371128195945 $304 $588 forward 7 unknown #
vertex $-1 $305 $589 #
straight-curve $-1 -63.917966246528522 -37.332719303443611 0 0 0 -1 I I #
coedge $-1 $437 $442 $306 $448 reversed $300 $-1 #
edge $-1 $451 -63.917966246528522 $445 63.917966246528522 $447 $590 forward 7 unknown #
coedge $-1 $307 $581 $437 $578 reversed $450 $-1 #
loop $-1 $-1 $307 $434 #
vertex $-1 $308 $591 #
straight-curve $-1 63.917966246528522 -37.332719303443611 0 0 0 1 I I #
point $-1 -63.917966246528522 -37.332719303443611 -3.1971978958015699 #
point $-1 63.917966246528522 -37.332719303443611 -3.1971978958015699 #
loop $-1 $-1 $321 $313 #
plane-surface $-1 -63.917966246528522 0 0 1 0 0 0 0 -1 forward_v I I I I #
coedge $-1 $458 $316 $318 $462 reversed $193 $-1 #
coedge $-1 $316 $457 $592 $593 reversed $193 $-1 #
coedge $-1 $324 $319 $316 $460 forward $314 $-1 #
edge $-1 $463 -24.8334296400133 $594 -22.829407971430896 $459 $595 forward 7 unknown #
coedge $-1 $318 $317 $466 $596 reversed $121 $-1 #
edge $-1 $597 -2.787470371894754e-014 $463 3.8910166392436349 $457 $598 forward 7 unknown #
vertex $-1 $320 $599 #
straight-curve $-1 -61.913944577946111 -8.0528243010649661 9.2486978428795368 0 1 0 I I #
coedge $-1 $592 $321 $324 $470 reversed $455 $-1 #
coedge $-1 $321 $592 $461 $596 forward $455 $-1 #
vertex $-1 $322 $600 #
straight-curve $-1 -63.917966246528522 -21.019656003150168 35.876908245697237 0 0 1 I I #
straight-curve $-1 -63.917966246528508 -21.019656003150168 5.9134455827464194 -0.51503806187062418 0 -0.85716730853699208 I I #
edge $-1 $594 11.191641201109695 $325 21.019656003150168 $465 $601 forward 7 unknown #
point $-1 -63.917966246528522 -21.019656003150168 9.2486978428795386 #
point $-1 -61.913944577946118 -21.019656003150168 9.2486978428795386 #
edge $-1 $602 1 $602 0 $328 $-1 forward 7 unknown #
vertex $-1 $329 $603 #
ellipse-curve $-1 -61.360068696643751 -18.211651773995747 6.6462006899582997 -0.85716730853699208 0 0.51503806187062418 0.25751903093531209 0 0.42858365426849604 1 I I #
point $-1 -62.658436381302018 -18.211651773995747 8.0096553670814714 #
edge $-1 $604 1 $604 0 $332 $-1 forward 7 unknown #
vertex $-1 $333 $605 #
ellipse-curve $-1 -61.360068696643751 -13.999645430264117 6.6462006899582997 -0.85716730853699208 0 0.51503806187062418 0.25751903093531209 0 0.42858365426849604 1 I I #
point $-1 -62.658436381302018 -13.999645430264117 8.0096553670814714 #
loop $-1 $-1 $344 $336 #
plane-surface $-1 -63.917966246528522 0 0 1 0 0 0 0 -1 forward_v I I I I #
coedge $-1 $484 $339 $341 $488 reversed $215 $-1 #
coedge $-1 $339 $483 $606 $607 reversed $215 $-1 #
coedge $-1 $347 $342 $339 $486 forward $337 $-1 #
edge $-1 $489 -24.8334296400133 $608 -22.829407971430896 $485 $609 forward 7 unknown #
coedge $-1 $341 $340 $492 $610 reversed $135 $-1 #
edge $-1 $611 -2.787470371894754e-014 $489 3.8910166392436349 $483 $612 forward 7 unknown #
vertex $-1 $343 $613 #
straight-curve $-1 -61.913944577946111 8.684416794247042 9.2486978428795368 0 1 0 I I #
coedge $-1 $606 $344 $347 $496 reversed $481 $-1 #
coedge $-1 $344 $606 $487 $610 forward $481 $-1 #
vertex $-1 $345 $614 #
straight-curve $-1 -63.917966246528522 12.454826187473847 35.876908245697237 0 0 1 I I #
straight-curve $-1 -63.917966246528508 12.454826187473847 5.9134455827464194 -0.51503806187062418 0 -0.85716730853699208 I I #
edge $-1 $608 -22.28284098951432 $348 -12.454826187473847 $491 $615 forward 7 unknown #
point $-1 -63.917966246528522 12.454826187473847 9.2486978428795386 #
point $-1 -61.913944577946118 12.454826187473847 9.2486978428795386 #
edge $-1 $616 1 $616 0 $351 $-1 forward 7 unknown #
vertex $-1 $352 $617 #
ellipse-curve $-1 -61.360068696643751 15.262830416628269 6.6462006899582997 -0.85716730853699208 0 0.51503806187062418 0.25751903093531209 0 0.42858365426849604 1 I I #
point $-1 -62.658436381302018 15.262830416628269 8.0096553670814714 #
edge $-1 $618 1 $618 0 $355 $-1 forward 7 unknown #
vertex $-1 $356 $619 #
ellipse-curve $-1 -61.360068696643751 19.474836760359899 6.6462006899582997 -0.85716730853699208 0 0.51503806187062418 0.25751903093531209 0 0.42858365426849604 1 I I #
point $-1 -62.658436381302018 19.474836760359899 8.0096553670814714 #
plane-surface $-1 0 0 9.2486978428795386 0 0 1 1 0 0 forward_v I I I I #
coedge $-1 $518 $517 $510 $620 forward $360 $-1 #
coedge $-1 $510 $362 $364 $514 reversed $237 $-1 #
coedge $-1 $362 $509 $508 $620 reversed $237 $-1 #
coedge $-1 $370 $365 $362 $512 forward $371 $-1 #
edge $-1 $515 8.0867558143107203 $621 10.090777482893117 $511 $622 forward 7 unknown #
coedge $-1 $364 $363 $518 $623 reversed $149 $-1 #
edge $-1 $624 -127.83593249305703 $515 -123.94491585381338 $509 $625 forward 7 unknown #
vertex $-1 $366 $626 #
straight-curve $-1 61.913944577946111 -8.0528243010649661 9.2486978428795368 0 -1 0 I I #
coedge $-1 $508 $367 $370 $522 reversed $360 $-1 #
coedge $-1 $367 $508 $513 $623 forward $360 $-1 #
vertex $-1 $368 $627 #
straight-curve $-1 63.917966246528522 -11.191641201109695 90.66529934039238 0 0 1 I I #
straight-curve $-1 -1.9224046621195185 -11.191641201109695 115.49022777213671 0.51503806187062418 0 -0.85716730853699208 I I #
edge $-1 $621 -21.019656003150168 $372 -11.191641201109695 $517 $628 forward 7 unknown #
point $-1 63.917966246528522 -11.191641201109695 9.2486978428795386 #
point $-1 61.913944577946125 -11.191641201109695 9.2486978428795368 #
edge $-1 $629 1 $629 0 $375 $-1 forward 7 unknown #
vertex $-1 $376 $630 #
ellipse-curve $-1 61.360068696643751 -18.211651773995747 6.6462006899582962 0.85716730853699208 0 0.51503806187062418 0.25751903093531209 0 -0.42858365426849604 1 I I #
point $-1 63.173474443172637 -18.211651773995747 7.152488058544475 #
edge $-1 $631 1 $631 0 $379 $-1 forward 7 unknown #
vertex $-1 $380 $632 #
ellipse-curve $-1 61.360068696643751 -13.999645430264117 6.6462006899582962 0.85716730853699208 0 0.51503806187062418 0.25751903093531209 0 -0.42858365426849604 1 I I #
point $-1 63.173474443172637 -13.999645430264117 7.152488058544475 #
plane-surface $-1 0 0 9.2486978428795386 0 0 1 1 0 0 forward_v I I I I #
coedge $-1 $544 $543 $536 $633 forward $384 $-1 #
coedge $-1 $536 $386 $388 $540 reversed $259 $-1 #
coedge $-1 $386 $535 $534 $633 reversed $259 $-1 #
coedge $-1 $394 $389 $386 $538 forward $395 $-1 #
edge $-1 $541 8.0867558143107203 $634 10.090777482893117 $537 $635 forward 7 unknown #
coedge $-1 $388 $387 $544 $636 reversed $163 $-1 #
edge $-1 $637 -127.83593249305703 $541 -123.94491585381338 $535 $638 forward 7 unknown #
vertex $-1 $390 $639 #
straight-curve $-1 61.913944577946111 8.684416794247042 9.2486978428795368 0 -1 0 I I #
coedge $-1 $534 $391 $394 $548 reversed $384 $-1 #
coedge $-1 $391 $534 $539 $636 forward $384 $-1 #
vertex $-1 $392 $640 #
straight-curve $-1 63.917966246528522 22.28284098951432 90.66529934039238 0 0 1 I I #
straight-curve $-1 -1.9224046621195185 22.28284098951432 115.49022777213671 0.51503806187062418 0 -0.85716730853699208 I I #
edge $-1 $634 12.454826187473847 $396 22.28284098951432 $543 $641 forward 7 unknown #
point $-1 63.917966246528522 22.28284098951432 9.2486978428795386 #
point $-1 61.913944577946125 22.28284098951432 9.2486978428795368 #
edge $-1 $642 1 $642 0 $399 $-1 forward 7 unknown #
vertex $-1 $400 $643 #
ellipse-curve $-1 61.360068696643751 15.262830416628269 6.6462006899582962 0.85716730853699208 0 0.51503806187062418 0.25751903093531209 0 -0.42858365426849604 1 I I #
point $-1 63.173474443172637 15.262830416628269 7.152488058544475 #
edge $-1 $644 1 $644 0 $403 $-1 forward 7 unknown #
vertex $-1 $404 $645 #
ellipse-curve $-1 61.360068696643751 19.474836760359899 6.6462006899582962 0.85716730853699208 0 0.51503806187062418 0.25751903093531209 0 -0.42858365426849604 1 I I #
point $-1 63.173474443172637 19.474836760359899 7.152488058544475 #
plane-surface $-1 63.917966246528522 0 0 -1 0 0 0 0 1 forward_v I I I I #
coedge $-1 $412 $410 $414 $564 reversed $281 $-1 #
edge $-1 $425 -9.2486978428795386 $566 9.2486978428795386 $424 $646 forward 7 unknown #
vertex $-1 $564 $647 #
straight-curve $-1 -63.917966246528522 -37.332719303443611 0 0 0 -1 I I #
edge $-1 $562 -37.332719303443611 $566 37.332719303443611 $560 $648 forward 7 unknown #
straight-curve $-1 0 -37.332719303443611 -9.2486978428795386 -1 0 0 I I #
vertex $-1 $417 $649 #
straight-curve $-1 0 37.332719303443611 -9.2486978428795386 1 0 0 I I #
point $-1 63.917966246528522 37.332719303443611 -9.2486978428795386 #
point $-1 63.917966246528522 -37.332719303443611 -9.2486978428795386 #
straight-curve $-1 -63.917966246528522 0 9.2486978428795386 0 -1 0 I I #
point $-1 -63.917966246528522 37.332719303443611 9.2486978428795386 #
point $-1 -63.917966246528522 -37.332719303443611 9.2486978428795386 #
straight-curve $-1 63.917966246528522 -37.332719303443611 0 0 0 -1 I I #
straight-curve $-1 63.917966246528522 37.332719303443611 0 0 0 -1 I I #
plane-surface $-1 63.917966246528522 0 0 -1 0 0 0 0 1 forward_v I I I I #
coedge $-1 $650 $579 $441 $584 forward $435 $-1 #
coedge $-1 $442 $437 $650 $651 forward $300 $-1 #
edge $-1 $451 -3.8582371128195945 $652 3.8582371128195945 $449 $653 forward 7 unknown #
coedge $-1 $576 $654 $438 $580 reversed $435 $-1 #
edge $-1 $587 -63.917966246528522 $582 63.917966246528522 $579 $655 forward 7 unknown #
coedge $-1 $449 $439 $654 $656 forward $450 $-1 #
vertex $-1 $440 $657 #
straight-curve $-1 63.917966246528522 -41.190956416263205 -3.1971978958015699 0 1 0 I I #
edge $-1 $587 -2.4954577013056518 $585 2.4954577013056509 $441 $658 forward 7 unknown #
vertex $-1 $443 $659 #
straight-curve $-1 -63.917966246528522 -41.190956416263205 -8.1881132984128726 0 1 0 I I #
vertex $-1 $444 $660 #
straight-curve $-1 -63.917966246528522 -41.190956416263205 -3.1971978958015699 0 -1 0 I I #
point $-1 -63.917966246528522 -37.332719303443611 -8.1881132984128726 #
straight-curve $-1 0 -37.332719303443611 -8.1881132984128726 -1 0 0 I I #
point $-1 63.917966246528522 -37.332719303443611 -8.1881132984128726 #
coedge $-1 $466 $465 $458 $593 forward $455 $-1 #
edge $-1 $594 26.6282104028177 $597 29.963462662950842 $592 $661 forward 7 unknown #
vertex $-1 $470 $662 #
straight-curve $-1 -86.747374217959418 -11.191641201109695 9.2486978428795368 -1 0 0 I I #
edge $-1 $597 3.1388169000447288 $467 12.966831702085202 $466 $663 forward 7 unknown #
vertex $-1 $596 $664 #
straight-curve $-1 -63.917966246528508 -11.191641201109695 5.9134455827464194 0.51503806187062418 0 0.85716730853699208 I I #
point $-1 -61.913944577946118 -11.191641201109695 9.2486978428795386 #
point $-1 -63.917966246528522 -21.019656003150168 5.9134455827463954 #
straight-curve $-1 -63.917966246528522 0 9.2486978428795386 0 -1 0 I I #
vertex $-1 $473 $665 #
point $-1 -61.102549665708437 -18.211651773995747 7.0747843442267957 #
vertex $-1 $477 $666 #
point $-1 -61.102549665708437 -13.999645430264117 7.0747843442267957 #
coedge $-1 $492 $491 $484 $607 forward $481 $-1 #
edge $-1 $608 26.6282104028177 $611 29.963462662950842 $606 $667 forward 7 unknown #
vertex $-1 $496 $668 #
straight-curve $-1 -86.747374217959418 22.28284098951432 9.2486978428795368 -1 0 0 I I #
edge $-1 $611 -13.598424195267278 $493 -3.7704093932268048 $492 $669 forward 7 unknown #
vertex $-1 $610 $670 #
straight-curve $-1 -63.917966246528508 22.28284098951432 5.9134455827464194 0.51503806187062418 0 0.85716730853699208 I I #
point $-1 -61.913944577946118 22.28284098951432 9.2486978428795386 #
point $-1 -63.917966246528522 12.454826187473847 5.9134455827463954 #
straight-curve $-1 -63.917966246528522 0 9.2486978428795386 0 -1 0 I I #
vertex $-1 $499 $671 #
point $-1 -61.102549665708437 15.262830416628269 7.0747843442267957 #
vertex $-1 $503 $672 #
point $-1 -61.102549665708437 19.474836760359899 7.0747843442267957 #
edge $-1 $621 81.416601497512843 $624 84.751853757645975 $508 $673 forward 7 unknown #
vertex $-1 $522 $674 #
straight-curve $-1 53.827188763635405 -21.019656003150168 9.2486978428795368 1 0 0 I I #
edge $-1 $624 -12.966831702085202 $519 -3.1388169000447288 $518 $675 forward 7 unknown #
vertex $-1 $623 $676 #
straight-curve $-1 -1.9224046621195185 -21.019656003150168 115.49022777213671 -0.51503806187062418 0 0.85716730853699208 I I #
point $-1 61.913944577946125 -21.019656003150168 9.2486978428795368 #
point $-1 63.917966246528522 -11.191641201109695 5.9134455827464052 #
straight-curve $-1 63.917966246528522 0 9.2486978428795386 0 1 0 I I #
vertex $-1 $525 $677 #
point $-1 61.617587727579064 -18.211651773995747 6.2176170356898002 #
vertex $-1 $529 $678 #
point $-1 61.617587727579064 -13.999645430264117 6.2176170356898002 #
edge $-1 $634 81.416601497512843 $637 84.751853757645975 $534 $679 forward 7 unknown #
vertex $-1 $548 $680 #
straight-curve $-1 53.827188763635405 12.454826187473847 9.2486978428795368 1 0 0 I I #
edge $-1 $637 3.7704093932268048 $545 13.598424195267278 $544 $681 forward 7 unknown #
vertex $-1 $636 $682 #
straight-curve $-1 -1.9224046621195185 12.454826187473847 115.49022777213671 -0.51503806187062418 0 0.85716730853699208 I I #
point $-1 61.913944577946125 12.454826187473847 9.2486978428795368 #
point $-1 63.917966246528522 22.28284098951432 5.9134455827464052 #
straight-curve $-1 63.917966246528522 0 9.2486978428795386 0 1 0 I I #
vertex $-1 $551 $683 #
point $-1 61.617587727579064 15.262830416628269 6.2176170356898002 #
vertex $-1 $555 $684 #
point $-1 61.617587727579064 19.474836760359899 6.2176170356898002 #
straight-curve $-1 -63.917966246528522 37.332719303443611 0 0 0 -1 I I #
point $-1 -63.917966246528522 -37.332719303443611 -9.2486978428795386 #
straight-curve $-1 -63.917966246528522 0 -9.2486978428795386 0 1 0 I I #
point $-1 -63.917966246528522 37.332719303443611 -9.2486978428795386 #
coedge $-1 $654 $576 $577 $651 reversed $435 $-1 #
edge $-1 $652 -63.917966246528522 $585 63.917966246528522 $650 $685 forward 7 unknown #
vertex $-1 $656 $686 #
straight-curve $-1 63.917966246528522 -41.190956416263205 -8.1881132984128726 0 -1 0 I I #
coedge $-1 $579 $650 $581 $656 reversed $435 $-1 #
straight-curve $-1 0 -45.0491935290828 -3.1971978958015699 1 0 0 I I #
edge $-1 $582 -2.4954577013056518 $652 2.4954577013056509 $581 $687 forward 7 unknown #
point $-1 63.917966246528522 -45.0491935290828 -3.1971978958015699 #
straight-curve $-1 -63.917966246528522 -45.0491935290828 -5.6926555971072217 0 0 -1 I I #
point $-1 -63.917966246528522 -45.0491935290828 -8.1881132984128726 #
point $-1 -63.917966246528522 -45.0491935290828 -3.1971978958015699 #
straight-curve $-1 -63.917966246528522 -11.191641201109695 35.876908245697237 0 0 -1 I I #
point $-1 -63.917966246528522 -11.191641201109695 9.2486978428795386 #
straight-curve $-1 -63.917966246528522 -8.0528243010649661 5.9134455827463945 0 -1 0 I I #
point $-1 -63.917966246528522 -11.191641201109695 5.9134455827463954 #
point $-1 -60.931485042375257 -18.211651773995747 6.3886816590229882 #
point $-1 -60.931485042375257 -13.999645430264117 6.3886816590229882 #
straight-curve $-1 -63.917966246528522 22.28284098951432 35.876908245697237 0 0 -1 I I #
point $-1 -63.917966246528522 22.28284098951432 9.2486978428795386 #
straight-curve $-1 -63.917966246528522 8.684416794247042 5.9134455827463945 0 -1 0 I I #
point $-1 -63.917966246528522 22.28284098951432 5.9134455827463954 #
point $-1 -60.931485042375257 15.262830416628269 6.3886816590229882 #
point $-1 -60.931485042375257 19.474836760359899 6.3886816590229882 #
straight-curve $-1 63.917966246528522 -21.019656003150168 90.66529934039238 0 0 -1 I I #
point $-1 63.917966246528522 -21.019656003150168 9.2486978428795386 #
straight-curve $-1 63.917966246528522 -8.0528243010649661 5.9134455827464052 0 1 0 I I #
point $-1 63.917966246528522 -21.019656003150168 5.9134455827464052 #
point $-1 60.931485042375257 -18.211651773995747 6.3886816590229847 #
point $-1 60.931485042375257 -13.999645430264117 6.3886816590229847 #
straight-curve $-1 63.917966246528522 12.454826187473847 90.66529934039238 0 0 -1 I I #
point $-1 63.917966246528522 12.454826187473847 9.2486978428795386 #
straight-curve $-1 63.917966246528522 8.684416794247042 5.9134455827464052 0 1 0 I I #
point $-1 63.917966246528522 12.454826187473847 5.9134455827464052 #
point $-1 60.931485042375257 15.262830416628269 6.3886816590229847 #
point $-1 60.931485042375257 19.474836760359899 6.3886816590229847 #
straight-curve $-1 0 -45.0491935290828 -8.1881132984128726 -1 0 0 I I #
point $-1 63.917966246528522 -45.0491935290828 -8.1881132984128726 #
straight-curve $-1 63.917966246528522 -45.0491935290828 -5.6926555971072217 0 0 -1 I I #
End-of-ACIS-data 