500 0 7 0           
7 Unknown 11 ACIS 5.0 NT 24 Thu Mar 25 21:16:31 1999 
-1 9.9999999999999995e-007 1e-010 
body $-1 $7 $-1 $8 #
body $-1 $9 $-1 $10 #
body $-1 $11 $-1 $12 #
body $-1 $13 $-1 $14 #
body $-1 $15 $-1 $16 #
body $-1 $17 $-1 $18 #
body $-1 $19 $-1 $20 #
lump $-1 $-1 $21 $0 #
transform $-1 1 0 0 0 1 0 0 0 1 52.530899990844446 30.653953234502318 13.744649992877941 1 rotate no_reflect no_shear #
lump $-1 $-1 $22 $1 #
transform $-1 1 0 0 0 1 0 0 0 1 52.530899990844446 30.653953234502318 13.744649992877941 1 rotate no_reflect no_shear #
lump $-1 $-1 $23 $2 #
transform $-1 1 0 0 0 1 0 0 0 1 52.530899990844446 30.653953234502318 13.744649992877941 1 rotate no_reflect no_shear #
lump $-1 $-1 $24 $3 #
transform $-1 1 0 0 0 1 0 0 0 1 52.530899990844446 30.653953234502318 13.744649992877941 1 rotate no_reflect no_shear #
lump $-1 $-1 $25 $4 #
transform $-1 1 0 0 0 1 0 0 0 1 52.530899990844446 30.653953234502318 13.744649992877941 1 rotate no_reflect no_shear #
lump $-1 $-1 $26 $5 #
transform $-1 1 0 0 0 1 0 0 0 1 52.530899990844446 30.653953234502318 13.744649992877941 1 rotate no_reflect no_shear #
lump $-1 $-1 $27 $6 #
transform $-1 1 0 0 0 1 0 0 0 1 52.530899990844446 30.653953234502318 13.744649992877941 1 rotate no_reflect no_shear #
shell $-1 $-1 $-1 $28 $-1 $7 #
shell $-1 $-1 $-1 $29 $-1 $9 #
shell $-1 $-1 $-1 $30 $-1 $11 #
shell $-1 $-1 $-1 $31 $-1 $13 #
shell $-1 $-1 $-1 $32 $-1 $15 #
shell $-1 $-1 $-1 $33 $-1 $17 #
shell $-1 $-1 $-1 $34 $-1 $19 #
face $-1 $35 $36 $21 $-1 $37 forward single #
face $-1 $38 $39 $22 $-1 $40 reversed single #
face $-1 $41 $42 $23 $-1 $43 reversed single #
face $-1 $44 $45 $24 $-1 $46 forward single #
face $-1 $47 $48 $25 $-1 $49 forward single #
face $-1 $50 $51 $26 $-1 $52 reversed single #
face $-1 $53 $54 $27 $-1 $55 forward single #
face $-1 $56 $57 $21 $-1 $58 reversed single #
loop $-1 $-1 $59 $28 #
plane-surface $-1 0 0 13.744649992877941 0 0 1 1 0 0 forward_v I I I I #
face $-1 $60 $61 $22 $-1 $62 reversed single #
loop $-1 $-1 $63 $29 #
plane-surface $-1 0 -23.59710504302361 6.2619596836353377 0 0 1 1 0 0 forward_v I I I I #
face $-1 $64 $65 $23 $-1 $66 reversed single #
loop $-1 $-1 $67 $30 #
plane-surface $-1 -24.306435530139566 25.718647027048064 79.678902234143507 0.68199836817093118 0 0.7313536940579346 0.7313536940579346 0 -0.68199836817093118 forward_v I I I I #
face $-1 $68 $69 $24 $-1 $70 forward single #
loop $-1 $71 $72 $31 #
cone-surface $-1 48.941632544210599 23.603515795281957 10.324388651886141 -0.68199836817093118 0 -0.7313536940579346 0.7313536940579346 0 -0.68199836817093118 1 I I 0 1 1 forward I I I I #
face $-1 $73 $74 $25 $-1 $75 forward single #
loop $-1 $76 $77 $32 #
cone-surface $-1 48.941632544210599 27.833778258814171 10.324388651886141 -0.68199836817093118 0 -0.7313536940579346 0.7313536940579346 0 -0.68199836817093118 1 I I 0 1 1 forward I I I I #
face $-1 $78 $79 $26 $-1 $80 reversed single #
loop $-1 $-1 $81 $33 #
plane-surface $-1 -52.530899990844446 -12.16913485431725 3.5381564813120718 -0.6560590369687036 0 0.75470957328743171 0.75470957328743171 0 0.6560590369687036 forward_v I I I I #
face $-1 $82 $83 $27 $-1 $84 forward single #
loop $-1 $85 $86 $34 #
cone-surface $-1 -45.155577121414446 -12.16913485431725 6.9104334027717478 0.6560590369687036 0 -0.75470957328743171 1.1320643599311475 0 0.9840885554530554 1 I I 0 1 1.5 forward I I I I #
face $-1 $87 $88 $21 $-1 $89 reversed single #
loop $-1 $-1 $90 $35 #
plane-surface $-1 0 0 -13.744649992877941 0 0 1 1 0 0 forward_v I I I I #
coedge $-1 $91 $92 $93 $94 forward $36 $-1 #
face $-1 $95 $96 $22 $-1 $97 reversed single #
loop $-1 $-1 $98 $38 #
plane-surface $-1 0 -16.540256851544903 10.003304838256641 0 -1 0 0 0 -1 forward_v I I I I #
coedge $-1 $99 $100 $101 $102 reversed $39 $-1 #
face $-1 $103 $104 $23 $-1 $105 reversed single #
loop $-1 $-1 $106 $41 #
plane-surface $-1 47.345540614473023 20.783340819593811 156.51623775512752 0 1 0 0.68199836817093118 0 0.7313536940579346 forward_v I I I I #
coedge $-1 $107 $108 $109 $110 reversed $42 $-1 #
face $-1 $-1 $111 $24 $-1 $112 forward single #
loop $-1 $113 $114 $44 #
cone-surface $-1 48.077119948600753 23.603515795281957 9.3973124155388899 -0.68199836817093118 0 -0.7313536940579346 0.3656768470289673 0 -0.34099918408546559 1 I I -0.70710678118654746 0.70710678118654746 0.5 forward I I I I #
loop $-1 $-1 $115 $31 #
coedge $-1 $72 $72 $116 $117 reversed $45 $-1 #
face $-1 $-1 $118 $25 $-1 $119 forward single #
loop $-1 $120 $121 $47 #
cone-surface $-1 48.077119948600753 27.833778258814171 9.3973124155388899 -0.68199836817093118 0 -0.7313536940579346 0.3656768470289673 0 -0.34099918408546559 1 I I -0.70710678118654746 0.70710678118654746 0.5 forward I I I I #
loop $-1 $-1 $122 $32 #
coedge $-1 $77 $77 $123 $124 reversed $48 $-1 #
face $-1 $125 $126 $26 $-1 $127 forward single #
loop $-1 $-1 $128 $50 #
plane-surface $-1 -121.45764330902982 -7.7980128570895948 82.829302714302003 0 -1 0 0.6560590369687036 0 -0.75470957328743171 forward_v I I I I #
coedge $-1 $129 $130 $131 $132 reversed $51 $-1 #
face $-1 $-1 $133 $27 $-1 $134 forward single #
loop $-1 $135 $136 $53 #
cone-surface $-1 -43.158823691024907 -12.16913485431725 4.6134313884829101 0.6560590369687036 0 -0.75470957328743171 0.56603217996557376 0 0.4920442777265277 1 I I -0.70710678118654757 0.70710678118654757 0.75 forward I I I I #
loop $-1 $-1 $137 $34 #
coedge $-1 $86 $86 $138 $139 reversed $54 $-1 #
face $-1 $140 $141 $21 $-1 $142 reversed single #
loop $-1 $-1 $143 $56 #
plane-surface $-1 0 -30.653953234502318 0 0 1 0 0 0 1 forward_v I I I I #
coedge $-1 $144 $145 $146 $147 forward $57 $-1 #
coedge $-1 $148 $59 $149 $150 forward $36 $-1 #
coedge $-1 $59 $148 $151 $152 forward $36 $-1 #
coedge $-1 $153 $154 $59 $94 reversed $155 $-1 #
edge $-1 $156 -30.653953234502318 $157 30.653953234502318 $93 $158 forward 7 unknown #
face $-1 $159 $160 $22 $-1 $161 reversed single #
loop $-1 $-1 $162 $60 #
plane-surface $-1 -52.530899990844446 0 0 1 0 0 0 0 -1 forward_v I I I I #
coedge $-1 $163 $164 $165 $166 reversed $61 $-1 #
coedge $-1 $167 $63 $168 $169 reversed $39 $-1 #
coedge $-1 $63 $167 $170 $171 forward $39 $-1 #
coedge $-1 $172 $173 $63 $102 forward $174 $-1 #
edge $-1 $175 -18.855400712990512 $176 -4.7417043300330981 $101 $177 forward 7 unknown #
face $-1 $178 $179 $23 $-1 $180 forward single #
loop $-1 $-1 $181 $64 #
plane-surface $-1 0 30.653953234502318 0 0 -1 0 0 0 -1 forward_v I I I I #
coedge $-1 $182 $183 $184 $185 reversed $65 $-1 #
coedge $-1 $186 $67 $181 $187 reversed $42 $-1 #
coedge $-1 $67 $186 $182 $188 forward $42 $-1 #
coedge $-1 $184 $189 $67 $110 forward $179 $-1 #
edge $-1 $190 -17.794629720978286 $191 -7.9240173060697785 $109 $192 forward 7 unknown #
loop $-1 $-1 $116 $68 #
plane-surface $-1 -24.306435530139566 25.718647027048064 79.678902234143507 0.68199836817093118 0 0.7313536940579346 0.7313536940579346 0 -0.68199836817093118 forward_v I I I I #
loop $-1 $-1 $193 $44 #
coedge $-1 $114 $114 $115 $194 reversed $69 $-1 #
coedge $-1 $115 $115 $114 $194 forward $71 $-1 #
coedge $-1 $116 $116 $72 $117 forward $111 $-1 #
edge $-1 $195 0 $195 6.2831853071796004 $116 $196 forward 7 unknown #
loop $-1 $-1 $123 $73 #
plane-surface $-1 -24.306435530139566 25.718647027048064 79.678902234143507 0.68199836817093118 0 0.7313536940579346 0.7313536940579346 0 -0.68199836817093118 forward_v I I I I #
loop $-1 $-1 $197 $47 #
coedge $-1 $121 $121 $122 $198 reversed $74 $-1 #
coedge $-1 $122 $122 $121 $198 forward $76 $-1 #
coedge $-1 $123 $123 $77 $124 forward $118 $-1 #
edge $-1 $199 0 $199 6.2831853071796004 $123 $200 forward 7 unknown #
face $-1 $201 $202 $26 $-1 $203 forward single #
loop $-1 $-1 $204 $78 #
plane-surface $-1 0 -16.540256851544903 10.003304838256641 0 -1 0 0 0 -1 forward_v I I I I #
coedge $-1 $205 $206 $207 $208 reversed $79 $-1 #
coedge $-1 $209 $81 $204 $210 reversed $51 $-1 #
coedge $-1 $81 $209 $205 $211 forward $51 $-1 #
coedge $-1 $207 $212 $81 $132 forward $202 $-1 #
edge $-1 $213 -10.455689424386279 $214 -1.71344542993097 $131 $215 forward 7 unknown #
loop $-1 $-1 $138 $82 #
plane-surface $-1 -52.530899990844446 -12.16913485431725 3.5381564813120718 -0.6560590369687036 0 0.75470957328743171 0.75470957328743171 0 0.6560590369687036 forward_v I I I I #
loop $-1 $-1 $216 $53 #
coedge $-1 $136 $136 $137 $217 reversed $83 $-1 #
coedge $-1 $137 $137 $136 $217 forward $85 $-1 #
coedge $-1 $138 $138 $86 $139 forward $133 $-1 #
edge $-1 $218 0 $218 6.2831853071796004 $138 $219 forward 7 unknown #
face $-1 $220 $221 $21 $-1 $222 reversed single #
loop $-1 $-1 $223 $87 #
plane-surface $-1 -52.530899990844446 0 0 1 0 0 0 0 -1 forward_v I I I I #
coedge $-1 $224 $151 $225 $226 forward $88 $-1 #
coedge $-1 $227 $90 $224 $228 forward $57 $-1 #
coedge $-1 $90 $227 $229 $230 forward $57 $-1 #
coedge $-1 $154 $153 $90 $147 reversed $155 $-1 #
edge $-1 $231 -30.653953234502318 $232 30.653953234502318 $146 $233 forward 7 unknown #
coedge $-1 $92 $91 $234 $235 forward $36 $-1 #
coedge $-1 $236 $237 $91 $150 reversed $221 $-1 #
edge $-1 $157 -52.530899990844446 $238 52.530899990844446 $149 $239 forward 7 unknown #
coedge $-1 $143 $240 $92 $152 reversed $88 $-1 #
edge $-1 $241 -52.530899990844446 $156 52.530899990844446 $151 $242 forward 7 unknown #
coedge $-1 $146 $93 $240 $243 forward $155 $-1 #
coedge $-1 $93 $146 $236 $244 reversed $155 $-1 #
loop $-1 $-1 $153 $220 #
vertex $-1 $94 $245 #
vertex $-1 $94 $246 #
straight-curve $-1 52.530899990844446 0 13.744649992877941 0 1 0 I I #
face $-1 $247 $248 $22 $-1 $249 forward single #
loop $-1 $-1 $168 $95 #
plane-surface $-1 0 -30.653953234502318 0 0 1 0 0 0 1 forward_v I I I I #
coedge $-1 $250 $251 $164 $252 forward $96 $-1 #
coedge $-1 $170 $98 $172 $253 reversed $61 $-1 #
coedge $-1 $98 $170 $162 $252 reversed $61 $-1 #
coedge $-1 $254 $255 $98 $166 forward $248 $-1 #
edge $-1 $256 -52.530899990844446 $257 52.530899990844446 $165 $258 forward 7 unknown #
coedge $-1 $100 $99 $250 $259 reversed $39 $-1 #
coedge $-1 $260 $261 $99 $169 forward $160 $-1 #
edge $-1 $262 -52.530899990844446 $175 52.530899990844446 $168 $263 forward 7 unknown #
coedge $-1 $164 $163 $100 $171 reversed $61 $-1 #
edge $-1 $264 -52.530899990844446 $176 52.530899990844446 $170 $265 forward 7 unknown #
coedge $-1 $266 $101 $163 $253 forward $174 $-1 #
coedge $-1 $101 $266 $260 $267 forward $174 $-1 #
loop $-1 $-1 $172 $247 #
vertex $-1 $169 $268 #
vertex $-1 $102 $269 #
straight-curve $-1 52.530899990844446 -11.798552521511805 6.2619596836353377 0 1 0 I I #
face $-1 $-1 $270 $23 $-1 $271 reversed single #
loop $-1 $-1 $109 $103 #
plane-surface $-1 0 0 13.744649992877941 0 0 1 1 0 0 forward_v I I I I #
coedge $-1 $272 $273 $107 $187 forward $104 $-1 #
coedge $-1 $183 $106 $108 $188 reversed $65 $-1 #
coedge $-1 $106 $182 $274 $275 reversed $65 $-1 #
coedge $-1 $276 $109 $106 $185 forward $179 $-1 #
edge $-1 $191 22.726621613389021 $277 28.858129683607935 $184 $278 forward 7 unknown #
coedge $-1 $108 $107 $279 $280 reversed $42 $-1 #
edge $-1 $281 -69.003058623846073 $190 -60.619279174810835 $181 $282 forward 7 unknown #
edge $-1 $283 -105.06179998168889 $191 -96.678020532653647 $182 $284 forward 7 unknown #
coedge $-1 $109 $276 $272 $285 forward $179 $-1 #
vertex $-1 $110 $286 #
vertex $-1 $110 $287 #
straight-curve $-1 46.399391920625533 12.859323513524032 13.744649992877939 0 -1 0 I I #
coedge $-1 $193 $193 $-1 $288 reversed $113 $-1 #
edge $-1 $289 0 $289 6.2831853071796004 $114 $290 forward 7 unknown #
vertex $-1 $117 $291 #
ellipse-curve $-1 49.46514595573499 23.603515795281957 10.885788041204433 0.68199836817093118 0 0.7313536940579346 0.7313536940579346 0 -0.68199836817093118 1 I I #
coedge $-1 $197 $197 $-1 $292 reversed $120 $-1 #
edge $-1 $293 0 $293 6.2831853071796004 $121 $294 forward 7 unknown #
vertex $-1 $124 $295 #
ellipse-curve $-1 49.46514595573499 27.833778258814171 10.885788041204433 0.68199836817093118 0 0.7313536940579346 0.7313536940579346 0 -0.68199836817093118 1 I I #
face $-1 $-1 $296 $26 $-1 $297 reversed single #
loop $-1 $-1 $207 $125 #
plane-surface $-1 0 0 13.744649992877941 0 0 1 1 0 0 forward_v I I I I #
coedge $-1 $298 $299 $129 $210 forward $126 $-1 #
coedge $-1 $206 $128 $130 $211 reversed $79 $-1 #
coedge $-1 $128 $205 $300 $301 reversed $79 $-1 #
coedge $-1 $302 $131 $128 $208 forward $202 $-1 #
edge $-1 $214 -19.939149097204428 $303 -8.1979216636704635 $207 $304 forward 7 unknown #
coedge $-1 $130 $129 $305 $306 reversed $51 $-1 #
edge $-1 $307 -21.943546060705906 $213 -6.3862670104475772 $204 $308 forward 7 unknown #
edge $-1 $309 0 $214 15.557279050258332 $205 $310 forward 7 unknown #
coedge $-1 $131 $302 $298 $311 forward $202 $-1 #
vertex $-1 $132 $312 #
vertex $-1 $132 $313 #
straight-curve $-1 -40.789672557310482 -6.0845674271586248 13.744649992877942 0 1 0 I I #
coedge $-1 $216 $216 $-1 $314 reversed $135 $-1 #
edge $-1 $315 0 $315 6.2831853071796004 $136 $316 forward 7 unknown #
vertex $-1 $139 $317 #
ellipse-curve $-1 -46.660286274077457 -12.16913485431725 8.6414032370950107 -0.6560590369687036 0 0.75470957328743171 1.1320643599311475 0 0.9840885554530554 1 I I #
face $-1 $-1 $155 $21 $-1 $318 reversed single #
loop $-1 $-1 $236 $140 #
plane-surface $-1 0 30.653953234502318 0 0 -1 0 0 0 -1 forward_v I I I I #
coedge $-1 $319 $234 $237 $320 forward $141 $-1 #
coedge $-1 $240 $143 $144 $228 reversed $88 $-1 #
coedge $-1 $234 $319 $143 $226 reversed $141 $-1 #
edge $-1 $241 -13.744649992877941 $321 13.744649992877941 $225 $322 forward 7 unknown #
coedge $-1 $145 $144 $319 $323 forward $57 $-1 #
edge $-1 $232 -52.530899990844446 $321 52.530899990844446 $224 $324 forward 7 unknown #
coedge $-1 $237 $236 $145 $230 reversed $221 $-1 #
edge $-1 $325 -52.530899990844446 $231 52.530899990844446 $229 $326 forward 7 unknown #
vertex $-1 $147 $327 #
vertex $-1 $243 $328 #
straight-curve $-1 52.530899990844446 0 -13.744649992877941 0 -1 0 I I #
coedge $-1 $223 $225 $148 $235 reversed $141 $-1 #
edge $-1 $238 -30.653953234502318 $241 30.653953234502318 $234 $329 forward 7 unknown #
coedge $-1 $229 $149 $154 $244 forward $221 $-1 #
coedge $-1 $149 $229 $223 $320 reversed $221 $-1 #
vertex $-1 $150 $330 #
straight-curve $-1 0 30.653953234502318 13.744649992877941 -1 0 0 I I #
coedge $-1 $151 $224 $153 $243 reversed $88 $-1 #
vertex $-1 $235 $331 #
straight-curve $-1 0 -30.653953234502318 13.744649992877941 1 0 0 I I #
edge $-1 $156 -13.744649992877941 $232 13.744649992877941 $153 $332 forward 7 unknown #
edge $-1 $157 -13.744649992877941 $231 13.744649992877941 $154 $333 forward 7 unknown #
point $-1 52.530899990844446 -30.653953234502318 13.744649992877941 #
point $-1 52.530899990844446 30.653953234502318 13.744649992877941 #
face $-1 $-1 $174 $22 $-1 $334 reversed single #
loop $-1 $-1 $165 $159 #
plane-surface $-1 0 0 13.744649992877941 0 0 1 1 0 0 forward_v I I I I #
coedge $-1 $335 $162 $167 $259 forward $96 $-1 #
coedge $-1 $162 $335 $254 $336 reversed $96 $-1 #
edge $-1 $257 -8.7429975737496228 $264 -1.2603072645070172 $162 $337 forward 7 unknown #
edge $-1 $176 1.2603072645070172 $256 8.7429975737496228 $172 $338 forward 7 unknown #
coedge $-1 $339 $165 $251 $336 forward $248 $-1 #
coedge $-1 $165 $339 $266 $340 forward $248 $-1 #
vertex $-1 $253 $341 #
vertex $-1 $336 $342 #
straight-curve $-1 0 -16.540256851544903 13.744649992877941 -1 0 0 I I #
edge $-1 $264 4.7417043300330981 $262 18.855400712990512 $250 $343 forward 7 unknown #
coedge $-1 $344 $168 $173 $267 reversed $160 $-1 #
coedge $-1 $168 $344 $335 $345 forward $160 $-1 #
vertex $-1 $169 $346 #
straight-curve $-1 0 -30.653953234502318 6.2619596836353377 1 0 0 I I #
vertex $-1 $259 $347 #
straight-curve $-1 0 -16.540256851544903 6.2619596836353377 1 0 0 I I #
coedge $-1 $173 $172 $255 $340 reversed $174 $-1 #
edge $-1 $348 -13.744649992877941 $175 -6.2619596836353377 $173 $349 forward 7 unknown #
point $-1 52.530899990844446 -30.653953234502318 6.2619596836353377 #
point $-1 52.530899990844446 -16.540256851544903 6.2619596836353377 #
loop $-1 $-1 $279 $178 #
plane-surface $-1 52.530899990844446 0 0 -1 0 0 0 0 1 forward_v I I I I #
coedge $-1 $273 $181 $189 $285 reversed $104 $-1 #
coedge $-1 $181 $272 $350 $351 forward $104 $-1 #
coedge $-1 $279 $352 $183 $275 forward $270 $-1 #
edge $-1 $277 64.513468884685821 $283 70.231192788032843 $274 $353 forward 7 unknown #
coedge $-1 $189 $184 $352 $354 forward $179 $-1 #
vertex $-1 $354 $355 #
straight-curve $-1 23.672770307236512 20.783340819593811 13.744649992877939 1 0 0 I I #
coedge $-1 $350 $274 $186 $280 forward $270 $-1 #
edge $-1 $283 7.9240173060697785 $281 17.794629720978286 $279 $356 forward 7 unknown #
vertex $-1 $280 $357 #
straight-curve $-1 2.0652581649984043 30.653953234502318 55.086899469797039 -0.7313536940579346 0 0.68199836817093118 I I #
vertex $-1 $280 $358 #
straight-curve $-1 -24.306435530139566 20.783340819593811 79.678902234143507 -0.7313536940579346 0 0.68199836817093118 I I #
edge $-1 $359 -52.530899990844446 $190 -46.399391920625533 $272 $360 forward 7 unknown #
point $-1 46.399391920625533 30.653953234502318 13.744649992877939 #
point $-1 46.399391920625533 20.783340819593811 13.744649992877939 #
edge $-1 $361 1 $361 0 $193 $-1 forward 7 unknown #
vertex $-1 $194 $362 #
ellipse-curve $-1 48.418119132686222 23.603515795281957 9.7629892625678565 0.68199836817093118 0 0.7313536940579346 0.7313536940579346 0 -0.68199836817093118 1 I I #
point $-1 50.196499649792912 23.603515795281957 10.203789673033492 #
edge $-1 $363 1 $363 0 $197 $-1 forward 7 unknown #
vertex $-1 $198 $364 #
ellipse-curve $-1 48.418119132686222 27.833778258814171 9.7629892625678565 0.68199836817093118 0 0.7313536940579346 0.7313536940579346 0 -0.68199836817093118 1 I I #
point $-1 50.196499649792912 27.833778258814171 10.203789673033492 #
loop $-1 $-1 $365 $201 #
plane-surface $-1 -52.530899990844446 0 0 1 0 0 0 0 -1 forward_v I I I I #
coedge $-1 $299 $204 $212 $311 reversed $126 $-1 #
coedge $-1 $204 $298 $365 $366 reversed $126 $-1 #
coedge $-1 $305 $367 $206 $301 forward $296 $-1 #
edge $-1 $303 27.670001364273062 $309 37.876494875838929 $300 $368 forward 7 unknown #
coedge $-1 $212 $207 $367 $369 forward $202 $-1 #
vertex $-1 $369 $370 #
straight-curve $-1 -60.72882165451491 -7.7980128570895948 13.744649992877939 -1 0 0 I I #
coedge $-1 $365 $300 $209 $306 forward $296 $-1 #
edge $-1 $309 1.71344542993097 $307 10.455689424386279 $305 $371 forward 7 unknown #
vertex $-1 $366 $372 #
straight-curve $-1 -35.969895706955988 -16.540256851544903 17.934418177577179 0.75470957328743171 0 0.6560590369687036 I I #
vertex $-1 $306 $373 #
straight-curve $-1 -52.530899990844446 -7.7980128570895948 3.5381564813120718 0.75470957328743171 0 0.6560590369687036 I I #
edge $-1 $374 -52.530899990844446 $213 -40.789672557310482 $212 $375 forward 7 unknown #
point $-1 -40.789672557310482 -16.540256851544903 13.744649992877941 #
point $-1 -40.789672557310482 -7.7980128570895948 13.744649992877941 #
edge $-1 $376 1 $376 0 $216 $-1 forward 7 unknown #
vertex $-1 $217 $377 #
ellipse-curve $-1 -43.650867968751434 -12.16913485431725 5.179463568448484 -0.6560590369687036 0 0.75470957328743171 1.1320643599311475 0 0.9840885554530554 1 I I #
point $-1 -45.528221914146314 -12.16913485431725 9.6254917925480665 #
plane-surface $-1 52.530899990844446 0 0 -1 0 0 0 0 1 forward_v I I I I #
coedge $-1 $225 $223 $227 $323 reversed $141 $-1 #
edge $-1 $238 -13.744649992877941 $325 13.744649992877941 $237 $378 forward 7 unknown #
vertex $-1 $323 $379 #
straight-curve $-1 -52.530899990844446 -30.653953234502318 0 0 0 -1 I I #
edge $-1 $321 -30.653953234502318 $325 30.653953234502318 $319 $380 forward 7 unknown #
straight-curve $-1 0 -30.653953234502318 -13.744649992877941 -1 0 0 I I #
vertex $-1 $230 $381 #
straight-curve $-1 0 30.653953234502318 -13.744649992877941 1 0 0 I I #
point $-1 52.530899990844446 30.653953234502318 -13.744649992877941 #
point $-1 52.530899990844446 -30.653953234502318 -13.744649992877941 #
straight-curve $-1 -52.530899990844446 0 13.744649992877941 0 -1 0 I I #
point $-1 -52.530899990844446 30.653953234502318 13.744649992877941 #
point $-1 -52.530899990844446 -30.653953234502318 13.744649992877941 #
straight-curve $-1 52.530899990844446 -30.653953234502318 0 0 0 -1 I I #
straight-curve $-1 52.530899990844446 30.653953234502318 0 0 0 -1 I I #
plane-surface $-1 52.530899990844446 0 0 -1 0 0 0 0 1 forward_v I I I I #
coedge $-1 $251 $250 $261 $345 reversed $96 $-1 #
edge $-1 $257 16.540256851544903 $382 30.653953234502318 $251 $383 forward 7 unknown #
straight-curve $-1 -52.530899990844446 -16.540256851544903 5.0016524191283205 0 0 -1 I I #
straight-curve $-1 52.530899990844446 -16.540256851544903 5.0016524191283205 0 0 1 I I #
coedge $-1 $255 $254 $344 $384 forward $248 $-1 #
edge $-1 $348 -30.653953234502318 $256 -16.540256851544903 $266 $385 forward 7 unknown #
point $-1 52.530899990844446 -16.540256851544903 13.744649992877944 #
point $-1 -52.530899990844446 -16.540256851544903 13.744649992877944 #
straight-curve $-1 -52.530899990844446 -11.798552521511805 6.2619596836353377 0 -1 0 I I #
coedge $-1 $261 $260 $339 $384 reversed $160 $-1 #
edge $-1 $382 -13.744649992877941 $262 -6.2619596836353377 $335 $386 forward 7 unknown #
point $-1 -52.530899990844446 -30.653953234502318 6.2619596836353377 #
point $-1 -52.530899990844446 -16.540256851544903 6.2619596836353377 #
vertex $-1 $340 $387 #
straight-curve $-1 52.530899990844446 -30.653953234502318 0 0 0 -1 I I #
coedge $-1 $352 $279 $273 $351 reversed $270 $-1 #
edge $-1 $359 -13.744649992877941 $281 -8.0269260895309174 $350 $388 forward 7 unknown #
coedge $-1 $274 $350 $276 $354 reversed $270 $-1 #
straight-curve $-1 52.530899990844446 20.783340819593811 78.25811887756376 0 0 -1 I I #
edge $-1 $277 20.783340819593811 $359 30.653953234502318 $352 $389 forward 7 unknown #
point $-1 52.530899990844446 20.783340819593811 13.744649992877941 #
straight-curve $-1 52.530899990844446 12.859323513524032 8.0269260895309174 0 1 0 I I #
point $-1 52.530899990844446 30.653953234502318 8.0269260895309174 #
point $-1 52.530899990844446 20.783340819593811 8.0269260895309174 #
vertex $-1 $354 $390 #
straight-curve $-1 0 30.653953234502318 13.744649992877941 -1 0 0 I I #
vertex $-1 $288 $391 #
point $-1 49.149472826744152 23.603515795281957 9.0809908943969262 #
vertex $-1 $292 $392 #
point $-1 49.149472826744152 27.833778258814171 9.0809908943969262 #
coedge $-1 $367 $305 $299 $366 forward $296 $-1 #
edge $-1 $307 -37.876494875838929 $374 -27.670001364273055 $365 $393 forward 7 unknown #
coedge $-1 $300 $365 $302 $369 reversed $296 $-1 #
straight-curve $-1 -52.530899990844446 -7.7980128570895948 41.414651357151001 0 0 -1 I I #
edge $-1 $303 7.7980128570895948 $374 16.540256851544903 $367 $394 forward 7 unknown #
point $-1 -52.530899990844446 -7.7980128570895948 13.744649992877941 #
straight-curve $-1 -52.530899990844446 -6.0845674271586248 3.5381564813120727 0 -1 0 I I #
point $-1 -52.530899990844446 -16.540256851544903 3.5381564813120718 #
point $-1 -52.530899990844446 -7.7980128570895948 3.5381564813120718 #
vertex $-1 $366 $395 #
straight-curve $-1 0 -16.540256851544903 13.744649992877941 1 0 0 I I #
vertex $-1 $314 $396 #
point $-1 -42.518803608820285 -12.16913485431725 6.1635521239015389 #
straight-curve $-1 -52.530899990844446 30.653953234502318 0 0 0 -1 I I #
point $-1 -52.530899990844446 -30.653953234502318 -13.744649992877941 #
straight-curve $-1 -52.530899990844446 0 -13.744649992877941 0 1 0 I I #
point $-1 -52.530899990844446 30.653953234502318 -13.744649992877941 #
vertex $-1 $336 $397 #
straight-curve $-1 -52.530899990844446 0 13.744649992877941 0 -1 0 I I #
edge $-1 $382 -52.530899990844446 $348 52.530899990844446 $344 $398 forward 7 unknown #
straight-curve $-1 52.530899990844446 0 13.744649992877941 0 1 0 I I #
straight-curve $-1 -52.530899990844446 -30.653953234502318 0 0 0 -1 I I #
point $-1 52.530899990844446 -30.653953234502318 13.744649992877941 #
straight-curve $-1 52.530899990844446 30.653953234502318 0 0 0 -1 I I #
straight-curve $-1 52.530899990844446 0 13.744649992877941 0 1 0 I I #
point $-1 52.530899990844446 30.653953234502318 13.744649992877941 #
point $-1 47.736120764515285 23.603515795281957 9.0316355685099232 #
point $-1 47.736120764515285 27.833778258814171 9.0316355685099232 #
straight-curve $-1 -52.530899990844446 -16.540256851544903 41.414651357151001 0 0 1 I I #
straight-curve $-1 -52.530899990844446 0 13.744649992877941 0 -1 0 I I #
point $-1 -52.530899990844446 -16.540256851544903 13.744649992877944 #
point $-1 -42.666779413298379 -12.16913485431725 4.0473992085173363 #
point $-1 -52.530899990844446 -30.653953234502318 13.744649992877941 #
straight-curve $-1 0 -30.653953234502318 13.744649992877941 1 0 0 I I #
End-of-ACIS-data 