500 0 8 0           
7 Unknown 11 ACIS 5.0 NT 24 Thu Mar 25 15:43:19 1999 
-1 9.9999999999999995e-007 1e-010 
body $-1 $8 $-1 $9 #
body $-1 $10 $-1 $11 #
body $-1 $12 $-1 $13 #
body $-1 $14 $-1 $15 #
body $-1 $16 $-1 $17 #
body $-1 $18 $-1 $19 #
body $-1 $20 $-1 $21 #
body $-1 $22 $-1 $23 #
lump $-1 $-1 $24 $0 #
transform $-1 1 0 0 0 1 0 0 0 1 68.140507217627487 40.49771659621701 13.920773372900499 1 rotate no_reflect no_shear #
lump $-1 $-1 $25 $1 #
transform $-1 1 0 0 0 1 0 0 0 1 68.140507217627487 40.49771659621701 13.920773372900499 1 rotate no_reflect no_shear #
lump $-1 $-1 $26 $2 #
transform $-1 1 0 0 0 1 0 0 0 1 68.140507217627487 40.49771659621701 13.920773372900499 1 rotate no_reflect no_shear #
lump $-1 $-1 $27 $3 #
transform $-1 1 0 0 0 1 0 0 0 1 68.140507217627487 40.49771659621701 13.920773372900499 1 rotate no_reflect no_shear #
lump $-1 $-1 $28 $4 #
transform $-1 1 0 0 0 1 0 0 0 1 68.140507217627487 40.49771659621701 13.920773372900499 1 rotate no_reflect no_shear #
lump $-1 $-1 $29 $5 #
transform $-1 1 0 0 0 1 0 0 0 1 68.140507217627487 40.49771659621701 13.920773372900499 1 rotate no_reflect no_shear #
lump $-1 $-1 $30 $6 #
transform $-1 1 0 0 0 1 0 0 0 1 68.140507217627487 40.49771659621701 13.920773372900499 1 rotate no_reflect no_shear #
lump $-1 $-1 $31 $7 #
transform $-1 1 0 0 0 1 0 0 0 1 68.140507217627487 40.49771659621701 13.920773372900499 1 rotate no_reflect no_shear #
shell $-1 $-1 $-1 $32 $-1 $8 #
shell $-1 $-1 $-1 $33 $-1 $10 #
shell $-1 $-1 $-1 $34 $-1 $12 #
shell $-1 $-1 $-1 $35 $-1 $14 #
shell $-1 $-1 $-1 $36 $-1 $16 #
shell $-1 $-1 $-1 $37 $-1 $18 #
shell $-1 $-1 $-1 $38 $-1 $20 #
shell $-1 $-1 $-1 $39 $-1 $22 #
face $-1 $40 $41 $24 $-1 $42 forward single #
face $-1 $43 $44 $25 $-1 $45 forward single #
face $-1 $46 $47 $26 $-1 $48 forward single #
face $-1 $49 $50 $27 $-1 $51 reversed single #
face $-1 $52 $53 $28 $-1 $54 forward single #
face $-1 $55 $56 $29 $-1 $57 reversed single #
face $-1 $58 $59 $30 $-1 $60 forward single #
face $-1 $61 $62 $31 $-1 $63 forward single #
face $-1 $64 $65 $24 $-1 $66 reversed single #
loop $-1 $-1 $67 $32 #
plane-surface $-1 0 0 13.920773372900499 0 0 1 1 0 0 forward_v I I I I #
face $-1 $68 $69 $25 $-1 $70 reversed single #
loop $-1 $-1 $71 $33 #
plane-surface $-1 -68.140507217627487 0 0 1 0 0 0 0 -1 forward_v I I I I #
face $-1 $72 $73 $26 $-1 $74 forward single #
loop $-1 $-1 $75 $34 #
plane-surface $-1 68.140507217627487 0 0 -1 0 0 0 0 1 forward_v I I I I #
face $-1 $76 $77 $27 $-1 $78 reversed single #
loop $-1 $-1 $79 $35 #
plane-surface $-1 50.61945062420709 -122.5136794920638 112.15171680396108 -1 0 0 0 -0.6018150307709319 0.79863550430605224 forward_v I I I I #
face $-1 $80 $81 $28 $-1 $82 forward single #
loop $-1 $83 $84 $36 #
cone-surface $-1 37.933459639956894 -28.75954585268941 2.3802599764216072 0 0.6018150307709319 -0.79863550430605224 4 0 0 1 I I 0 1 4 forward I I I I #
face $-1 $85 $86 $29 $-1 $87 reversed single #
loop $-1 $-1 $88 $37 #
plane-surface $-1 -50.61945062420709 113.14953317388108 148.98513600410092 1 0 0 0 -0.84804810408105047 -0.52991925155115449 forward_v I I I I #
face $-1 $89 $90 $30 $-1 $91 forward single #
loop $-1 $92 $93 $38 #
cone-surface $-1 -44.973934925451083 37.682593809014449 10.381351756670467 0 -0.84804810408105047 -0.52991925155115449 1 0 0 1 I I 0 1 1 forward I I I I #
face $-1 $94 $95 $31 $-1 $96 forward single #
loop $-1 $97 $98 $39 #
cone-surface $-1 -36.505661377317075 37.682593809014449 10.381351756670467 0 -0.84804810408105047 -0.52991925155115449 1 0 0 1 I I 0 1 1 forward I I I I #
face $-1 $99 $100 $24 $-1 $101 reversed single #
loop $-1 $-1 $102 $40 #
plane-surface $-1 0 0 -13.920773372900499 0 0 1 1 0 0 forward_v I I I I #
coedge $-1 $103 $104 $105 $106 forward $41 $-1 #
face $-1 $107 $108 $25 $-1 $109 reversed single #
loop $-1 $-1 $110 $43 #
plane-surface $-1 0 40.49771659621701 0 0 -1 0 0 0 -1 forward_v I I I I #
coedge $-1 $111 $112 $113 $114 forward $44 $-1 #
face $-1 $115 $116 $26 $-1 $117 reversed single #
loop $-1 $-1 $118 $46 #
plane-surface $-1 0 0 13.920773372900499 0 0 1 1 0 0 forward_v I I I I #
coedge $-1 $119 $120 $121 $122 forward $47 $-1 #
face $-1 $123 $124 $27 $-1 $125 reversed single #
loop $-1 $-1 $126 $49 #
plane-surface $-1 37.933459639956894 -40.497716596217018 3.3128601131208342 0 -0.6018150307709319 0.79863550430605224 1 0 0 forward_v I I I I #
coedge $-1 $127 $128 $129 $130 reversed $50 $-1 #
face $-1 $-1 $131 $28 $-1 $132 forward single #
loop $-1 $133 $134 $52 #
cone-surface $-1 37.933459639956894 -22.856333087707974 -5.4535677987795665 0 0.6018150307709319 -0.79863550430605224 2 0 0 1 I I -0.70710678118654746 0.70710678118654746 2 forward I I I I #
loop $-1 $-1 $135 $36 #
coedge $-1 $84 $84 $136 $137 reversed $53 $-1 #
face $-1 $138 $139 $29 $-1 $140 reversed single #
loop $-1 $-1 $141 $55 #
plane-surface $-1 -40.739798151384079 -2.4233227401791737 76.767202833938526 0 0.84804810408105047 0.52991925155115449 1 0 0 forward_v I I I I #
coedge $-1 $142 $143 $144 $145 reversed $56 $-1 #
face $-1 $-1 $146 $30 $-1 $147 forward single #
loop $-1 $148 $149 $58 #
cone-surface $-1 -44.973934925451083 36.268563467801634 9.4977675631793588 0 -0.84804810408105047 -0.52991925155115449 0.5 0 0 1 I I -0.70710678118654746 0.70710678118654746 0.5 forward I I I I #
loop $-1 $-1 $150 $38 #
coedge $-1 $93 $93 $151 $152 reversed $59 $-1 #
face $-1 $-1 $153 $31 $-1 $154 forward single #
loop $-1 $155 $156 $61 #
cone-surface $-1 -36.505661377317075 36.268563467801634 9.4977675631793588 0 -0.84804810408105047 -0.52991925155115449 0.5 0 0 1 I I -0.70710678118654746 0.70710678118654746 0.5 forward I I I I #
loop $-1 $-1 $157 $39 #
coedge $-1 $98 $98 $158 $159 reversed $62 $-1 #
face $-1 $160 $161 $24 $-1 $162 reversed single #
loop $-1 $-1 $163 $64 #
plane-surface $-1 0 -40.49771659621701 0 0 1 0 0 0 1 forward_v I I I I #
coedge $-1 $164 $165 $166 $167 forward $65 $-1 #
coedge $-1 $168 $67 $169 $170 forward $41 $-1 #
coedge $-1 $67 $168 $171 $172 forward $41 $-1 #
coedge $-1 $173 $174 $67 $106 reversed $175 $-1 #
edge $-1 $176 -40.49771659621701 $177 40.49771659621701 $105 $178 forward 7 unknown #
face $-1 $179 $180 $25 $-1 $181 reversed single #
loop $-1 $-1 $113 $68 #
plane-surface $-1 -76.901035514337678 0 8.2699598521952282 0 0 1 1 0 0 forward_v I I I I #
coedge $-1 $182 $183 $111 $184 forward $69 $-1 #
coedge $-1 $185 $71 $110 $184 reversed $44 $-1 #
coedge $-1 $71 $185 $186 $187 reversed $44 $-1 #
coedge $-1 $188 $189 $71 $114 reversed $108 $-1 #
edge $-1 $190 -40.49771659621701 $191 40.49771659621701 $113 $192 forward 7 unknown #
face $-1 $193 $194 $26 $-1 $195 reversed single #
loop $-1 $-1 $196 $72 #
plane-surface $-1 0 -40.49771659621701 0 0 1 0 0 0 1 forward_v I I I I #
coedge $-1 $197 $198 $199 $200 forward $73 $-1 #
coedge $-1 $199 $75 $196 $201 reversed $47 $-1 #
coedge $-1 $75 $199 $202 $203 reversed $47 $-1 #
coedge $-1 $204 $205 $75 $122 reversed $194 $-1 #
edge $-1 $206 -40.49771659621701 $207 40.49771659621701 $121 $208 forward 7 unknown #
face $-1 $209 $210 $27 $-1 $211 reversed single #
loop $-1 $-1 $212 $76 #
plane-surface $-1 25.247468655706697 -122.5136794920638 112.15171680396108 1 0 0 0 0.6018150307709319 -0.79863550430605224 forward_v I I I I #
coedge $-1 $213 $214 $215 $216 reversed $77 $-1 #
coedge $-1 $128 $79 $217 $218 reversed $50 $-1 #
coedge $-1 $79 $127 $213 $219 reversed $50 $-1 #
coedge $-1 $215 $220 $79 $130 forward $221 $-1 #
edge $-1 $222 20.75912314981489 $223 34.836299229990956 $129 $224 forward 7 unknown #
loop $-1 $-1 $136 $80 #
plane-surface $-1 37.933459639956894 -40.497716596217018 3.3128601131208342 0 -0.6018150307709319 0.79863550430605224 1 0 0 forward_v I I I I #
loop $-1 $-1 $225 $52 #
coedge $-1 $134 $134 $135 $226 reversed $81 $-1 #
coedge $-1 $135 $135 $134 $226 forward $83 $-1 #
coedge $-1 $136 $136 $84 $137 forward $131 $-1 #
edge $-1 $227 -3.49623394298107e-016 $227 6.2831853071796004 $136 $228 forward 7 unknown #
face $-1 $229 $230 $29 $-1 $231 reversed single #
loop $-1 $-1 $232 $85 #
plane-surface $-1 -30.860145678561068 113.14953317388108 148.98513600410092 -1 0 0 0 0.84804810408105047 0.52991925155115449 forward_v I I I I #
coedge $-1 $233 $234 $235 $236 reversed $86 $-1 #
coedge $-1 $143 $88 $237 $238 reversed $56 $-1 #
coedge $-1 $88 $142 $233 $239 reversed $56 $-1 #
coedge $-1 $235 $240 $88 $145 forward $241 $-1 #
edge $-1 $242 16.07704999072353 $243 19.727282986784118 $144 $244 forward 7 unknown #
loop $-1 $-1 $151 $89 #
plane-surface $-1 -40.739798151384079 -2.4233227401791737 76.767202833938526 0 0.84804810408105047 0.52991925155115449 1 0 0 forward_v I I I I #
loop $-1 $-1 $245 $58 #
coedge $-1 $149 $149 $150 $246 reversed $90 $-1 #
coedge $-1 $150 $150 $149 $246 forward $92 $-1 #
coedge $-1 $151 $151 $93 $152 forward $146 $-1 #
edge $-1 $247 -7.5558015672525479e-016 $247 6.2831853071795996 $151 $248 forward 7 unknown #
loop $-1 $-1 $158 $94 #
plane-surface $-1 -40.739798151384079 -2.4233227401791737 76.767202833938526 0 0.84804810408105047 0.52991925155115449 1 0 0 forward_v I I I I #
loop $-1 $-1 $249 $61 #
coedge $-1 $156 $156 $157 $250 reversed $95 $-1 #
coedge $-1 $157 $157 $156 $250 forward $97 $-1 #
coedge $-1 $158 $158 $98 $159 forward $153 $-1 #
edge $-1 $251 -7.5558015672525479e-016 $251 6.2831853071795996 $158 $252 forward 7 unknown #
face $-1 $253 $254 $24 $-1 $255 reversed single #
loop $-1 $-1 $256 $99 #
plane-surface $-1 -68.140507217627487 0 0 1 0 0 0 0 -1 forward_v I I I I #
coedge $-1 $257 $171 $258 $259 forward $100 $-1 #
coedge $-1 $260 $102 $257 $261 forward $65 $-1 #
coedge $-1 $102 $260 $262 $263 forward $65 $-1 #
coedge $-1 $174 $173 $102 $167 reversed $175 $-1 #
edge $-1 $264 -40.49771659621701 $265 40.49771659621701 $166 $266 forward 7 unknown #
coedge $-1 $104 $103 $267 $268 forward $41 $-1 #
coedge $-1 $269 $270 $103 $170 reversed $254 $-1 #
edge $-1 $177 -68.140507217627487 $271 68.140507217627487 $169 $272 forward 7 unknown #
coedge $-1 $163 $273 $104 $172 reversed $100 $-1 #
edge $-1 $274 -68.140507217627487 $176 68.140507217627487 $171 $275 forward 7 unknown #
coedge $-1 $166 $105 $273 $276 forward $175 $-1 #
coedge $-1 $105 $166 $269 $277 reversed $175 $-1 #
loop $-1 $-1 $173 $253 #
vertex $-1 $106 $278 #
vertex $-1 $106 $279 #
straight-curve $-1 68.140507217627487 0 13.920773372900499 0 1 0 I I #
face $-1 $280 $281 $25 $-1 $282 forward single #
loop $-1 $-1 $283 $107 #
plane-surface $-1 -85.66156381104787 0 11.095366612547863 1 0 0 0 0 -1 forward_v I I I I #
coedge $-1 $284 $110 $189 $285 reversed $69 $-1 #
coedge $-1 $110 $284 $286 $287 reversed $69 $-1 #
edge $-1 $288 -13.920773372900499 $191 -8.2699598521952282 $110 $289 forward 7 unknown #
coedge $-1 $112 $111 $290 $291 reversed $44 $-1 #
coedge $-1 $292 $293 $112 $187 forward $294 $-1 #
edge $-1 $190 8.2699598521952282 $295 13.920773372900499 $186 $296 forward 7 unknown #
coedge $-1 $297 $113 $293 $298 forward $108 $-1 #
coedge $-1 $113 $297 $182 $285 forward $108 $-1 #
vertex $-1 $187 $299 #
vertex $-1 $184 $300 #
straight-curve $-1 -68.140507217627487 0 8.2699598521952282 0 1 0 I I #
face $-1 $301 $302 $26 $-1 $303 reversed single #
loop $-1 $-1 $304 $115 #
plane-surface $-1 76.901035514337678 0 8.2699598521952282 0 0 1 1 0 0 forward_v I I I I #
coedge $-1 $305 $306 $119 $201 forward $116 $-1 #
coedge $-1 $307 $118 $306 $308 forward $73 $-1 #
coedge $-1 $118 $307 $309 $310 forward $73 $-1 #
coedge $-1 $120 $119 $118 $200 reversed $47 $-1 #
edge $-1 $311 -40.49771659621701 $312 40.49771659621701 $118 $313 forward 7 unknown #
edge $-1 $312 -13.920773372900499 $207 -8.2699598521952282 $196 $314 forward 7 unknown #
coedge $-1 $309 $315 $120 $203 forward $316 $-1 #
edge $-1 $206 8.2699598521952282 $311 13.920773372900499 $202 $317 forward 7 unknown #
coedge $-1 $304 $121 $315 $318 forward $194 $-1 #
coedge $-1 $121 $304 $305 $319 forward $194 $-1 #
vertex $-1 $203 $320 #
vertex $-1 $201 $321 #
straight-curve $-1 68.140507217627487 0 8.2699598521952282 0 -1 0 I I #
face $-1 $-1 $221 $27 $-1 $322 forward single #
loop $-1 $-1 $323 $123 #
plane-surface $-1 0 -40.49771659621701 0 0 1 0 0 0 1 forward_v I I I I #
coedge $-1 $324 $325 $326 $327 reversed $124 $-1 #
coedge $-1 $328 $126 $128 $219 forward $77 $-1 #
coedge $-1 $126 $328 $324 $329 forward $77 $-1 #
coedge $-1 $326 $129 $126 $216 forward $221 $-1 #
edge $-1 $223 -31.652720804228643 $330 -6.2807388357282505 $215 $331 forward 7 unknown #
coedge $-1 $332 $333 $127 $218 forward $210 $-1 #
edge $-1 $334 -52.762998288859698 $222 -42.155085029080041 $217 $335 forward 7 unknown #
edge $-1 $223 -17.626534262846189 $334 -8.8817612989391469e-015 $128 $336 forward 7 unknown #
coedge $-1 $129 $326 $332 $337 forward $221 $-1 #
loop $-1 $-1 $326 $209 #
vertex $-1 $218 $338 #
vertex $-1 $130 $339 #
straight-curve $-1 50.61945062420709 -61.256839746031901 13.920773372900499 0 1 0 I I #
coedge $-1 $225 $225 $-1 $340 reversed $133 $-1 #
edge $-1 $341 0 $341 6.2831853071796004 $134 $342 forward 7 unknown #
vertex $-1 $137 $343 #
ellipse-curve $-1 37.933459639956894 -33.459128556128981 8.6168167430106699 0 -0.6018150307709319 0.79863550430605224 4 0 0 1 I I #
face $-1 $-1 $241 $29 $-1 $344 forward single #
loop $-1 $-1 $345 $138 #
plane-surface $-1 0 40.49771659621701 0 0 -1 0 0 0 -1 forward_v I I I I #
coedge $-1 $346 $347 $348 $349 reversed $139 $-1 #
coedge $-1 $350 $141 $143 $239 forward $86 $-1 #
coedge $-1 $141 $350 $346 $351 forward $86 $-1 #
coedge $-1 $348 $144 $141 $236 forward $241 $-1 #
edge $-1 $243 -30.249551548515051 $352 -10.490246602869028 $235 $353 forward 7 unknown #
coedge $-1 $354 $355 $142 $238 forward $230 $-1 #
edge $-1 $356 -66.413388726179022 $242 -60.571794629149963 $237 $357 forward 7 unknown #
edge $-1 $243 74.107151656377752 $356 80.995433192434049 $143 $358 forward 7 unknown #
coedge $-1 $144 $348 $354 $359 forward $241 $-1 #
loop $-1 $-1 $348 $229 #
vertex $-1 $238 $360 #
vertex $-1 $145 $361 #
straight-curve $-1 -50.61945062420709 56.574766586940541 13.920773372900499 0 -1 0 I I #
coedge $-1 $245 $245 $-1 $362 reversed $148 $-1 #
edge $-1 $363 0 $363 6.2831853071796004 $149 $364 forward 7 unknown #
vertex $-1 $152 $365 #
ellipse-curve $-1 -44.973934925451083 38.672600098186713 10.999976324385983 0 0.84804810408105047 0.52991925155115449 1 0 0 1 I I #
coedge $-1 $249 $249 $-1 $366 reversed $155 $-1 #
edge $-1 $367 0 $367 6.2831853071796004 $156 $368 forward 7 unknown #
vertex $-1 $159 $369 #
ellipse-curve $-1 -36.505661377317075 38.672600098186713 10.999976324385983 0 0.84804810408105047 0.52991925155115449 1 0 0 1 I I #
face $-1 $-1 $175 $24 $-1 $370 reversed single #
loop $-1 $-1 $269 $160 #
plane-surface $-1 0 40.49771659621701 0 0 -1 0 0 0 -1 forward_v I I I I #
coedge $-1 $371 $267 $270 $372 forward $161 $-1 #
coedge $-1 $273 $163 $164 $261 reversed $100 $-1 #
coedge $-1 $267 $371 $163 $259 reversed $161 $-1 #
edge $-1 $274 -13.920773372900499 $373 13.920773372900499 $258 $374 forward 7 unknown #
coedge $-1 $165 $164 $371 $375 forward $65 $-1 #
edge $-1 $265 -68.140507217627487 $373 68.140507217627487 $257 $376 forward 7 unknown #
coedge $-1 $270 $269 $165 $263 reversed $254 $-1 #
edge $-1 $377 -68.140507217627487 $264 68.140507217627487 $262 $378 forward 7 unknown #
vertex $-1 $167 $379 #
vertex $-1 $276 $380 #
straight-curve $-1 68.140507217627487 0 -13.920773372900499 0 -1 0 I I #
coedge $-1 $256 $258 $168 $268 reversed $161 $-1 #
edge $-1 $271 -40.49771659621701 $274 40.49771659621701 $267 $381 forward 7 unknown #
coedge $-1 $262 $169 $174 $277 forward $254 $-1 #
coedge $-1 $169 $262 $256 $372 reversed $254 $-1 #
vertex $-1 $170 $382 #
straight-curve $-1 0 40.49771659621701 13.920773372900499 -1 0 0 I I #
coedge $-1 $171 $257 $173 $276 reversed $100 $-1 #
vertex $-1 $268 $383 #
straight-curve $-1 0 -40.49771659621701 13.920773372900499 1 0 0 I I #
edge $-1 $176 -13.920773372900499 $265 13.920773372900499 $173 $384 forward 7 unknown #
edge $-1 $177 -13.920773372900499 $264 13.920773372900499 $174 $385 forward 7 unknown #
point $-1 68.140507217627487 -40.49771659621701 13.920773372900499 #
point $-1 68.140507217627487 40.49771659621701 13.920773372900499 #
face $-1 $-1 $294 $25 $-1 $386 reversed single #
loop $-1 $-1 $290 $179 #
plane-surface $-1 0 0 13.920773372900499 0 0 1 1 0 0 forward_v I I I I #
coedge $-1 $387 $388 $284 $389 forward $180 $-1 #
coedge $-1 $183 $182 $283 $389 reversed $69 $-1 #
edge $-1 $390 -8.7605282967101914 $191 8.7605282967101914 $182 $391 forward 7 unknown #
coedge $-1 $392 $290 $183 $287 forward $281 $-1 #
edge $-1 $288 68.140507217627487 $393 85.66156381104787 $183 $394 forward 7 unknown #
vertex $-1 $287 $395 #
straight-curve $-1 -68.140507217627487 40.49771659621701 0 0 0 -1 I I #
coedge $-1 $286 $396 $185 $291 forward $281 $-1 #
edge $-1 $295 -40.49771659621701 $288 40.49771659621701 $290 $397 forward 7 unknown #
coedge $-1 $398 $186 $396 $399 reversed $294 $-1 #
coedge $-1 $186 $398 $188 $298 reversed $294 $-1 #
loop $-1 $-1 $186 $280 #
vertex $-1 $187 $400 #
straight-curve $-1 -68.140507217627487 -40.49771659621701 0 0 0 1 I I #
coedge $-1 $189 $188 $387 $401 forward $108 $-1 #
edge $-1 $190 -8.7605282967101914 $402 8.7605282967101914 $293 $403 forward 7 unknown #
point $-1 -68.140507217627487 -40.49771659621701 8.2699598521952282 #
point $-1 -68.140507217627487 40.49771659621701 8.2699598521952282 #
face $-1 $-1 $316 $26 $-1 $404 reversed single #
loop $-1 $-1 $405 $193 #
plane-surface $-1 85.66156381104787 0 11.095366612547863 -1 0 0 0 0 1 forward_v I I I I #
coedge $-1 $205 $204 $406 $407 forward $194 $-1 #
coedge $-1 $408 $196 $205 $319 reversed $116 $-1 #
coedge $-1 $196 $408 $197 $308 reversed $116 $-1 #
coedge $-1 $198 $197 $409 $410 forward $73 $-1 #
edge $-1 $312 -8.7605282967101914 $411 8.7605282967101914 $306 $412 forward 7 unknown #
coedge $-1 $413 $202 $198 $310 reversed $316 $-1 #
edge $-1 $414 -85.66156381104787 $311 -68.140507217627487 $309 $415 forward 7 unknown #
vertex $-1 $203 $416 #
vertex $-1 $308 $417 #
straight-curve $-1 68.140507217627487 0 13.920773372900499 0 -1 0 I I #
straight-curve $-1 68.140507217627487 -40.49771659621701 0 0 0 -1 I I #
coedge $-1 $202 $413 $204 $318 reversed $316 $-1 #
loop $-1 $-1 $202 $301 #
straight-curve $-1 68.140507217627487 40.49771659621701 0 0 0 1 I I #
edge $-1 $206 -8.7605282967101914 $418 8.7605282967101914 $315 $419 forward 7 unknown #
edge $-1 $420 -8.7605282967101914 $207 8.7605282967101914 $305 $421 forward 7 unknown #
point $-1 68.140507217627487 40.49771659621701 8.2699598521952282 #
point $-1 68.140507217627487 -40.49771659621701 8.2699598521952282 #
plane-surface $-1 0 0 13.920773372900499 0 0 1 1 0 0 forward_v I I I I #
coedge $-1 $333 $332 $325 $422 forward $210 $-1 #
coedge $-1 $325 $212 $214 $329 reversed $124 $-1 #
coedge $-1 $212 $324 $323 $422 reversed $124 $-1 #
coedge $-1 $220 $215 $212 $327 forward $221 $-1 #
edge $-1 $330 -34.836299229990956 $423 -20.75912314981489 $326 $424 forward 7 unknown #
coedge $-1 $214 $213 $333 $425 reversed $77 $-1 #
edge $-1 $426 8.8817612989391469e-015 $330 17.626534262846189 $324 $427 forward 7 unknown #
vertex $-1 $216 $428 #
straight-curve $-1 18.966729819978447 -26.420540516040948 13.920773372900499 -1 0 0 I I #
coedge $-1 $323 $217 $220 $337 reversed $210 $-1 #
coedge $-1 $217 $323 $328 $425 forward $210 $-1 #
vertex $-1 $218 $429 #
straight-curve $-1 50.61945062420709 -40.49771659621701 56.07585840198054 0 0 1 I I #
straight-curve $-1 50.61945062420709 -40.497716596217018 3.3128601131208342 0 -0.79863550430605224 -0.6018150307709319 I I #
edge $-1 $423 -51.653566858630981 $222 -26.281584890130588 $332 $430 forward 7 unknown #
point $-1 50.61945062420709 -40.49771659621701 13.920773372900499 #
point $-1 50.61945062420709 -26.420540516040944 13.920773372900499 #
edge $-1 $431 1 $431 0 $225 $-1 forward 7 unknown #
vertex $-1 $226 $432 #
ellipse-curve $-1 37.933459639956894 -24.059963149249839 -3.8562967901674621 0 -0.6018150307709319 0.79863550430605224 4 0 0 1 I I #
point $-1 41.933459639956894 -33.459128556128988 8.616816743010677 #
plane-surface $-1 0 0 13.920773372900499 0 0 1 1 0 0 forward_v I I I I #
coedge $-1 $355 $354 $347 $433 forward $230 $-1 #
coedge $-1 $347 $232 $234 $351 reversed $139 $-1 #
coedge $-1 $232 $346 $345 $433 reversed $139 $-1 #
coedge $-1 $240 $235 $232 $349 forward $241 $-1 #
edge $-1 $352 -19.727282986784118 $434 -16.07704999072353 $348 $435 forward 7 unknown #
coedge $-1 $234 $233 $355 $436 reversed $86 $-1 #
edge $-1 $437 -80.995433192434049 $352 -74.107151656377752 $346 $438 forward 7 unknown #
vertex $-1 $236 $439 #
straight-curve $-1 -20.36989907569204 36.847483600156416 13.920773372900499 1 0 0 I I #
coedge $-1 $345 $237 $240 $359 reversed $230 $-1 #
coedge $-1 $237 $345 $350 $436 forward $230 $-1 #
vertex $-1 $238 $440 #
straight-curve $-1 -50.61945062420709 40.49771659621701 74.492568002050461 0 0 1 I I #
straight-curve $-1 -50.61945062420709 -2.4233227401791737 76.767202833938526 0 0.52991925155115449 -0.84804810408105047 I I #
edge $-1 $434 30.860145678561068 $242 50.61945062420709 $354 $441 forward 7 unknown #
point $-1 -50.61945062420709 40.49771659621701 13.920773372900499 #
point $-1 -50.61945062420709 36.847483600156423 13.920773372900491 #
edge $-1 $442 1 $442 0 $245 $-1 forward 7 unknown #
vertex $-1 $246 $443 #
ellipse-curve $-1 -44.973934925451083 36.692587519842156 9.7627271889549352 0 0.84804810408105047 0.52991925155115449 1 0 0 1 I I #
point $-1 -43.973934925451083 38.672600098186734 10.999976324385997 #
edge $-1 $444 1 $444 0 $249 $-1 forward 7 unknown #
vertex $-1 $250 $445 #
ellipse-curve $-1 -36.505661377317075 36.692587519842156 9.7627271889549352 0 0.84804810408105047 0.52991925155115449 1 0 0 1 I I #
point $-1 -35.505661377317075 38.672600098186734 10.999976324385997 #
plane-surface $-1 68.140507217627487 0 0 -1 0 0 0 0 1 forward_v I I I I #
coedge $-1 $258 $256 $260 $375 reversed $161 $-1 #
edge $-1 $271 -13.920773372900499 $377 13.920773372900499 $270 $446 forward 7 unknown #
vertex $-1 $375 $447 #
straight-curve $-1 -68.140507217627487 -40.49771659621701 0 0 0 -1 I I #
edge $-1 $373 -40.49771659621701 $377 40.49771659621701 $371 $448 forward 7 unknown #
straight-curve $-1 0 -40.49771659621701 -13.920773372900499 -1 0 0 I I #
vertex $-1 $263 $449 #
straight-curve $-1 0 40.49771659621701 -13.920773372900499 1 0 0 I I #
point $-1 68.140507217627487 40.49771659621701 -13.920773372900499 #
point $-1 68.140507217627487 -40.49771659621701 -13.920773372900499 #
straight-curve $-1 -68.140507217627487 0 13.920773372900499 0 -1 0 I I #
point $-1 -68.140507217627487 40.49771659621701 13.920773372900499 #
point $-1 -68.140507217627487 -40.49771659621701 13.920773372900499 #
straight-curve $-1 68.140507217627487 -40.49771659621701 0 0 0 -1 I I #
straight-curve $-1 68.140507217627487 40.49771659621701 0 0 0 -1 I I #
plane-surface $-1 0 -40.49771659621701 0 0 1 0 0 0 1 forward_v I I I I #
coedge $-1 $450 $283 $297 $401 reversed $180 $-1 #
coedge $-1 $283 $450 $392 $451 reversed $180 $-1 #
edge $-1 $393 -2.8254067603526352 $390 2.8254067603526352 $284 $452 forward 7 unknown #
vertex $-1 $285 $453 #
straight-curve $-1 -76.901035514337678 40.49771659621701 8.2699598521952282 1 0 0 I I #
coedge $-1 $396 $286 $388 $451 forward $281 $-1 #
vertex $-1 $287 $454 #
straight-curve $-1 0 40.49771659621701 13.920773372900499 -1 0 0 I I #
point $-1 -68.140507217627487 40.49771659621701 13.920773372900499 #
coedge $-1 $290 $392 $292 $399 forward $281 $-1 #
straight-curve $-1 -68.140507217627487 0 13.920773372900499 0 1 0 I I #
coedge $-1 $293 $292 $450 $455 forward $294 $-1 #
edge $-1 $456 -85.66156381104787 $295 -68.140507217627487 $292 $457 forward 7 unknown #
point $-1 -68.140507217627487 -40.49771659621701 13.920773372900499 #
edge $-1 $402 -40.49771659621701 $390 40.49771659621701 $387 $458 forward 7 unknown #
vertex $-1 $401 $459 #
straight-curve $-1 -76.901035514337678 -40.49771659621701 8.2699598521952282 -1 0 0 I I #
plane-surface $-1 0 40.49771659621701 0 0 -1 0 0 0 -1 forward_v I I I I #
coedge $-1 $406 $409 $408 $460 forward $302 $-1 #
coedge $-1 $461 $405 $304 $407 reversed $302 $-1 #
edge $-1 $418 -40.49771659621701 $420 40.49771659621701 $406 $462 forward 7 unknown #
coedge $-1 $306 $305 $405 $460 reversed $116 $-1 #
coedge $-1 $405 $461 $307 $410 reversed $302 $-1 #
edge $-1 $411 -40.49771659621701 $414 40.49771659621701 $409 $463 forward 7 unknown #
vertex $-1 $410 $464 #
straight-curve $-1 76.901035514337678 -40.49771659621701 13.920773372900499 1 0 0 I I #
coedge $-1 $315 $309 $461 $465 forward $316 $-1 #
vertex $-1 $410 $466 #
straight-curve $-1 0 40.49771659621701 13.920773372900499 -1 0 0 I I #
point $-1 68.140507217627487 40.49771659621701 13.920773372900499 #
point $-1 68.140507217627487 -40.49771659621701 13.920773372900499 #
vertex $-1 $407 $467 #
straight-curve $-1 76.901035514337678 40.49771659621701 8.2699598521952282 1 0 0 I I #
vertex $-1 $460 $468 #
straight-curve $-1 76.901035514337678 -40.49771659621701 8.2699598521952282 -1 0 0 I I #
edge $-1 $423 42.155085029080041 $426 52.762998288859698 $323 $469 forward 7 unknown #
vertex $-1 $337 $470 #
straight-curve $-1 25.247468655706697 -61.256839746031901 13.920773372900499 0 -1 0 I I #
edge $-1 $426 6.2807388357282505 $334 31.652720804228643 $333 $471 forward 7 unknown #
vertex $-1 $425 $472 #
straight-curve $-1 25.247468655706697 -40.497716596217018 3.3128601131208342 0 0.79863550430605224 0.6018150307709319 I I #
point $-1 25.247468655706697 -26.420540516040944 13.920773372900499 #
point $-1 50.61945062420709 -40.49771659621701 3.3128601131208395 #
straight-curve $-1 76.901035514337678 -40.49771659621701 13.920773372900499 1 0 0 I I #
vertex $-1 $340 $473 #
point $-1 41.933459639956894 -24.059963149249839 -3.8562967901674621 #
edge $-1 $434 60.571794629149963 $437 66.413388726179022 $345 $474 forward 7 unknown #
vertex $-1 $359 $475 #
straight-curve $-1 -30.860145678561068 56.574766586940541 13.920773372900499 0 1 0 I I #
edge $-1 $437 10.490246602869028 $356 30.249551548515051 $355 $476 forward 7 unknown #
vertex $-1 $436 $477 #
straight-curve $-1 -30.860145678561068 -2.4233227401791737 76.767202833938526 0 -0.52991925155115449 0.84804810408105047 I I #
point $-1 -30.860145678561068 36.847483600156423 13.920773372900491 #
point $-1 -50.61945062420709 40.49771659621701 8.0791792758714394 #
straight-curve $-1 0 40.49771659621701 13.920773372900499 -1 0 0 I I #
vertex $-1 $362 $478 #
point $-1 -43.973934925451083 36.692587519842156 9.7627271889549352 #
vertex $-1 $366 $479 #
point $-1 -35.505661377317075 36.692587519842156 9.7627271889549352 #
straight-curve $-1 -68.140507217627487 40.49771659621701 0 0 0 -1 I I #
point $-1 -68.140507217627487 -40.49771659621701 -13.920773372900499 #
straight-curve $-1 -68.140507217627487 0 -13.920773372900499 0 1 0 I I #
point $-1 -68.140507217627487 40.49771659621701 -13.920773372900499 #
coedge $-1 $388 $387 $398 $455 reversed $180 $-1 #
edge $-1 $393 -40.49771659621701 $456 40.49771659621701 $388 $480 forward 7 unknown #
straight-curve $-1 -85.66156381104787 40.49771659621701 11.095366612547863 0 0 -1 I I #
point $-1 -85.66156381104787 40.49771659621701 8.2699598521952282 #
point $-1 -85.66156381104787 40.49771659621701 13.920773372900499 #
edge $-1 $456 -2.8254067603526352 $402 2.8254067603526352 $450 $481 forward 7 unknown #
vertex $-1 $451 $482 #
straight-curve $-1 0 -40.49771659621701 13.920773372900499 1 0 0 I I #
straight-curve $-1 -85.66156381104787 0 8.2699598521952282 0 1 0 I I #
point $-1 -85.66156381104787 -40.49771659621701 8.2699598521952282 #
edge $-1 $411 -2.8254067603526352 $420 2.8254067603526352 $405 $483 forward 7 unknown #
coedge $-1 $409 $406 $413 $465 reversed $302 $-1 #
straight-curve $-1 85.66156381104787 0 8.2699598521952282 0 -1 0 I I #
straight-curve $-1 85.66156381104787 0 13.920773372900499 0 1 0 I I #
point $-1 85.66156381104787 -40.49771659621701 13.920773372900499 #
edge $-1 $414 -2.8254067603526352 $418 2.8254067603526352 $461 $484 forward 7 unknown #
point $-1 85.66156381104787 40.49771659621701 13.920773372900499 #
point $-1 85.66156381104787 40.49771659621701 8.2699598521952282 #
point $-1 85.66156381104787 -40.49771659621701 8.2699598521952282 #
straight-curve $-1 25.247468655706697 -40.49771659621701 56.07585840198054 0 0 -1 I I #
point $-1 25.247468655706697 -40.49771659621701 13.920773372900499 #
straight-curve $-1 18.966729819978447 -40.49771659621701 3.3128601131208422 1 0 0 I I #
point $-1 25.247468655706697 -40.49771659621701 3.3128601131208395 #
point $-1 37.933459639956894 -21.652703026166108 -7.0508388073916706 #
straight-curve $-1 -30.860145678561068 40.49771659621701 74.492568002050461 0 0 -1 I I #
point $-1 -30.860145678561068 40.49771659621701 13.920773372900499 #
straight-curve $-1 -20.36989907569204 40.49771659621701 8.0791792758714607 -1 0 0 I I #
point $-1 -30.860145678561068 40.49771659621701 8.0791792758714394 #
point $-1 -44.973934925451083 35.844539415761112 9.2328079374037824 #
point $-1 -36.505661377317075 35.844539415761112 9.2328079374037824 #
straight-curve $-1 -85.66156381104787 0 13.920773372900499 0 -1 0 I I #
straight-curve $-1 -85.66156381104787 -40.49771659621701 11.095366612547863 0 0 -1 I I #
point $-1 -85.66156381104787 -40.49771659621701 13.920773372900499 #
straight-curve $-1 85.66156381104787 -40.49771659621701 11.095366612547863 0 0 -1 I I #
straight-curve $-1 85.66156381104787 40.49771659621701 11.095366612547863 0 0 -1 I I #
End-of-ACIS-data 