500 0 20 0           
7 Unknown 11 ACIS 5.0 NT 24 Thu Mar 25 17:25:08 1999 
-1 9.9999999999999995e-007 1e-010 
body $-1 $20 $-1 $21 #
body $-1 $22 $-1 $23 #
body $-1 $24 $-1 $25 #
body $-1 $26 $-1 $27 #
body $-1 $28 $-1 $29 #
body $-1 $30 $-1 $31 #
body $-1 $32 $-1 $33 #
body $-1 $34 $-1 $35 #
body $-1 $36 $-1 $37 #
body $-1 $38 $-1 $39 #
body $-1 $40 $-1 $41 #
body $-1 $42 $-1 $43 #
body $-1 $44 $-1 $45 #
body $-1 $46 $-1 $47 #
body $-1 $48 $-1 $49 #
body $-1 $50 $-1 $51 #
body $-1 $52 $-1 $53 #
body $-1 $54 $-1 $55 #
body $-1 $56 $-1 $57 #
body $-1 $58 $-1 $59 #
lump $-1 $-1 $60 $0 #
transform $-1 1 0 0 0 1 0 0 0 1 53.39640491958373 32.54154572468164 10.389817287590391 1 rotate no_reflect no_shear #
lump $-1 $-1 $61 $1 #
transform $-1 1 0 0 0 1 0 0 0 1 53.39640491958373 32.54154572468164 10.389817287590391 1 rotate no_reflect no_shear #
lump $-1 $-1 $62 $2 #
transform $-1 1 0 0 0 1 0 0 0 1 53.39640491958373 32.54154572468164 10.389817287590391 1 rotate no_reflect no_shear #
lump $-1 $-1 $63 $3 #
transform $-1 1 0 0 0 1 0 0 0 1 53.39640491958373 32.54154572468164 10.389817287590391 1 rotate no_reflect no_shear #
lump $-1 $-1 $64 $4 #
transform $-1 1 0 0 0 1 0 0 0 1 53.39640491958373 32.54154572468164 10.389817287590391 1 rotate no_reflect no_shear #
lump $-1 $-1 $65 $5 #
transform $-1 1 0 0 0 1 0 0 0 1 53.39640491958373 32.54154572468164 10.389817287590391 1 rotate no_reflect no_shear #
lump $-1 $-1 $66 $6 #
transform $-1 1 0 0 0 1 0 0 0 1 53.39640491958373 32.54154572468164 10.389817287590391 1 rotate no_reflect no_shear #
lump $-1 $-1 $67 $7 #
transform $-1 1 0 0 0 1 0 0 0 1 53.39640491958373 32.54154572468164 10.389817287590391 1 rotate no_reflect no_shear #
lump $-1 $-1 $68 $8 #
transform $-1 1 0 0 0 1 0 0 0 1 53.39640491958373 32.54154572468164 10.389817287590391 1 rotate no_reflect no_shear #
lump $-1 $-1 $69 $9 #
transform $-1 1 0 0 0 1 0 0 0 1 53.39640491958373 32.54154572468164 10.389817287590391 1 rotate no_reflect no_shear #
lump $-1 $-1 $70 $10 #
transform $-1 1 0 0 0 1 0 0 0 1 53.39640491958373 32.54154572468164 10.389817287590391 1 rotate no_reflect no_shear #
lump $-1 $-1 $71 $11 #
transform $-1 1 0 0 0 1 0 0 0 1 53.39640491958373 32.54154572468164 10.389817287590391 1 rotate no_reflect no_shear #
lump $-1 $-1 $72 $12 #
transform $-1 1 0 0 0 1 0 0 0 1 53.39640491958373 32.54154572468164 10.389817287590391 1 rotate no_reflect no_shear #
lump $-1 $-1 $73 $13 #
transform $-1 1 0 0 0 1 0 0 0 1 53.39640491958373 32.54154572468164 10.389817287590391 1 rotate no_reflect no_shear #
lump $-1 $-1 $74 $14 #
transform $-1 1 0 0 0 1 0 0 0 1 53.39640491958373 32.54154572468164 10.389817287590391 1 rotate no_reflect no_shear #
lump $-1 $-1 $75 $15 #
transform $-1 1 0 0 0 1 0 0 0 1 53.39640491958373 32.54154572468164 10.389817287590391 1 rotate no_reflect no_shear #
lump $-1 $-1 $76 $16 #
transform $-1 1 0 0 0 1 0 0 0 1 53.39640491958373 32.54154572468164 10.389817287590391 1 rotate no_reflect no_shear #
lump $-1 $-1 $77 $17 #
transform $-1 1 0 0 0 1 0 0 0 1 53.39640491958373 32.54154572468164 10.389817287590391 1 rotate no_reflect no_shear #
lump $-1 $-1 $78 $18 #
transform $-1 1 0 0 0 1 0 0 0 1 53.39640491958373 32.54154572468164 10.389817287590391 1 rotate no_reflect no_shear #
lump $-1 $-1 $79 $19 #
transform $-1 1 0 0 0 1 0 0 0 1 53.39640491958373 32.54154572468164 10.389817287590391 1 rotate no_reflect no_shear #
shell $-1 $-1 $-1 $80 $-1 $20 #
shell $-1 $-1 $-1 $81 $-1 $22 #
shell $-1 $-1 $-1 $82 $-1 $24 #
shell $-1 $-1 $-1 $83 $-1 $26 #
shell $-1 $-1 $-1 $84 $-1 $28 #
shell $-1 $-1 $-1 $85 $-1 $30 #
shell $-1 $-1 $-1 $86 $-1 $32 #
shell $-1 $-1 $-1 $87 $-1 $34 #
shell $-1 $-1 $-1 $88 $-1 $36 #
shell $-1 $-1 $-1 $89 $-1 $38 #
shell $-1 $-1 $-1 $90 $-1 $40 #
shell $-1 $-1 $-1 $91 $-1 $42 #
shell $-1 $-1 $-1 $92 $-1 $44 #
shell $-1 $-1 $-1 $93 $-1 $46 #
shell $-1 $-1 $-1 $94 $-1 $48 #
shell $-1 $-1 $-1 $95 $-1 $50 #
shell $-1 $-1 $-1 $96 $-1 $52 #
shell $-1 $-1 $-1 $97 $-1 $54 #
shell $-1 $-1 $-1 $98 $-1 $56 #
shell $-1 $-1 $-1 $99 $-1 $58 #
face $-1 $100 $101 $60 $-1 $102 forward single #
face $-1 $103 $104 $61 $-1 $105 reversed single #
face $-1 $106 $107 $62 $-1 $108 reversed single #
face $-1 $109 $110 $63 $-1 $111 forward single #
face $-1 $112 $113 $64 $-1 $114 forward single #
face $-1 $115 $116 $65 $-1 $117 reversed single #
face $-1 $118 $119 $66 $-1 $120 forward single #
face $-1 $121 $122 $67 $-1 $123 forward single #
face $-1 $124 $125 $68 $-1 $126 reversed single #
face $-1 $127 $128 $69 $-1 $129 forward single #
face $-1 $130 $131 $70 $-1 $132 forward single #
face $-1 $133 $134 $71 $-1 $135 reversed single #
face $-1 $136 $137 $72 $-1 $138 forward single #
face $-1 $139 $140 $73 $-1 $141 forward single #
face $-1 $142 $143 $74 $-1 $144 reversed single #
face $-1 $145 $146 $75 $-1 $147 forward single #
face $-1 $148 $149 $76 $-1 $150 forward single #
face $-1 $151 $152 $77 $-1 $153 reversed single #
face $-1 $154 $155 $78 $-1 $156 forward single #
face $-1 $157 $158 $79 $-1 $159 forward single #
face $-1 $160 $161 $60 $-1 $162 reversed single #
loop $-1 $-1 $163 $80 #
plane-surface $-1 0 0 10.389817287590391 0 0 1 1 0 0 forward_v I I I I #
face $-1 $164 $165 $61 $-1 $166 reversed single #
loop $-1 $-1 $167 $81 #
plane-surface $-1 -47.827834473231448 0 7.3898172875903914 0 0 1 1 0 0 forward_v I I I I #
face $-1 $168 $169 $62 $-1 $170 reversed single #
loop $-1 $-1 $171 $82 #
plane-surface $-1 -37.830717096880974 82.690968184225952 117.35496651453772 1 0 0 0 -0.81915205242281985 -0.57357642473473569 forward_v I I I I #
face $-1 $172 $173 $63 $-1 $174 forward single #
loop $-1 $175 $176 $83 #
cone-surface $-1 -33.435716757867446 28.70277960519951 5.7645714111921373 0 -0.81915205242281985 -0.57357642473473569 1 0 0 1 I I 0 1 1 forward I I I I #
face $-1 $177 $178 $64 $-1 $179 forward single #
loop $-1 $180 $181 $84 #
cone-surface $-1 -26.843216249347158 28.70277960519951 5.7645714111921373 0 -0.81915205242281985 -0.57357642473473569 1 0 0 1 I I 0 1 1 forward I I I I #
face $-1 $182 $183 $65 $-1 $184 reversed single #
loop $-1 $-1 $185 $85 #
plane-surface $-1 -14.025359130241249 82.690968184225952 117.35496651453772 1 0 0 0 -0.81915205242281985 -0.57357642473473569 forward_v I I I I #
face $-1 $186 $187 $66 $-1 $188 forward single #
loop $-1 $189 $190 $86 #
cone-surface $-1 -9.6303587912277209 28.70277960519951 5.7645714111921373 0 -0.81915205242281985 -0.57357642473473569 1 0 0 1 I I 0 1 1 forward I I I I #
face $-1 $191 $192 $67 $-1 $193 forward single #
loop $-1 $194 $195 $87 #
cone-surface $-1 -3.0378582827074325 28.70277960519951 5.7645714111921373 0 -0.81915205242281985 -0.57357642473473569 1 0 0 1 I I 0 1 1 forward I I I I #
face $-1 $196 $197 $68 $-1 $198 reversed single #
loop $-1 $-1 $199 $88 #
plane-surface $-1 9.7799988363984696 82.690968184225952 117.35496651453772 1 0 0 0 -0.81915205242281985 -0.57357642473473569 forward_v I I I I #
face $-1 $200 $201 $69 $-1 $202 forward single #
loop $-1 $203 $204 $89 #
cone-surface $-1 14.174999175411997 28.70277960519951 5.7645714111921373 0 -0.81915205242281985 -0.57357642473473569 1 0 0 1 I I 0 1 1 forward I I I I #
face $-1 $205 $206 $70 $-1 $207 forward single #
loop $-1 $208 $209 $90 #
cone-surface $-1 20.767499683932286 28.70277960519951 5.7645714111921373 0 -0.81915205242281985 -0.57357642473473569 1 0 0 1 I I 0 1 1 forward I I I I #
face $-1 $210 $211 $71 $-1 $212 reversed single #
loop $-1 $-1 $213 $91 #
plane-surface $-1 33.585356803038188 82.690968184225952 117.35496651453772 1 0 0 0 -0.81915205242281985 -0.57357642473473569 forward_v I I I I #
face $-1 $214 $215 $72 $-1 $216 forward single #
loop $-1 $217 $218 $92 #
cone-surface $-1 37.980357142051716 28.70277960519951 5.7645714111921373 0 -0.81915205242281985 -0.57357642473473569 1 0 0 1 I I 0 1 1 forward I I I I #
face $-1 $219 $220 $73 $-1 $221 forward single #
loop $-1 $222 $223 $93 #
cone-surface $-1 44.572857650572004 28.70277960519951 5.7645714111921373 0 -0.81915205242281985 -0.57357642473473569 1 0 0 1 I I 0 1 1 forward I I I I #
face $-1 $224 $225 $74 $-1 $226 reversed single #
loop $-1 $-1 $227 $94 #
plane-surface $-1 -26.246638747735791 -98.289765408951297 90.667755409115628 -1 0 0 0 -0.61566148304635926 0.78801074757464917 forward_v I I I I #
face $-1 $228 $229 $75 $-1 $230 forward single #
loop $-1 $231 $232 $95 #
cone-surface $-1 -37.684228232838201 -29.163914308100974 7.3035578696487153 0 0.61566148304635926 -0.78801074757464917 1.5 0 0 1 I I 0 1 1.5 forward I I I I #
face $-1 $233 $234 $76 $-1 $235 forward single #
loop $-1 $236 $237 $96 #
cone-surface $-1 -30.821674541776758 -29.163914308100974 7.3035578696487153 0 0.61566148304635926 -0.78801074757464917 1.5 0 0 1 I I 0 1 1.5 forward I I I I #
face $-1 $238 $239 $77 $-1 $240 reversed single #
loop $-1 $-1 $241 $97 #
plane-surface $-1 21.581195725495657 -98.289765408951297 90.667755409115628 -1 0 0 0 -0.61566148304635926 0.78801074757464917 forward_v I I I I #
face $-1 $242 $243 $78 $-1 $244 forward single #
loop $-1 $245 $246 $98 #
cone-surface $-1 10.143606240393247 -29.163914308100974 7.3035578696487153 0 0.61566148304635926 -0.78801074757464917 1.5 0 0 1 I I 0 1 1.5 forward I I I I #
face $-1 $247 $248 $79 $-1 $249 forward single #
loop $-1 $250 $251 $99 #
cone-surface $-1 17.00615993145469 -29.163914308100974 7.3035578696487153 0 0.61566148304635926 -0.78801074757464917 1.5 0 0 1 I I 0 1 1.5 forward I I I I #
face $-1 $252 $253 $60 $-1 $254 reversed single #
loop $-1 $-1 $255 $100 #
plane-surface $-1 0 0 -10.389817287590391 0 0 1 1 0 0 forward_v I I I I #
coedge $-1 $256 $257 $258 $259 forward $101 $-1 #
face $-1 $260 $261 $61 $-1 $262 reversed single #
loop $-1 $-1 $263 $103 #
plane-surface $-1 -42.259264026879165 0 8.8898172875903914 -1 0 0 0 0 1 forward_v I I I I #
coedge $-1 $264 $265 $266 $267 forward $104 $-1 #
face $-1 $268 $269 $62 $-1 $270 reversed single #
loop $-1 $-1 $271 $106 #
plane-surface $-1 -30.139466503607302 -4.7885811795279807 56.101128459611544 0 0.81915205242281985 0.57357642473473569 1 0 0 forward_v I I I I #
coedge $-1 $272 $273 $274 $275 reversed $107 $-1 #
face $-1 $-1 $276 $63 $-1 $277 forward single #
loop $-1 $278 $279 $109 #
cone-surface $-1 -33.435716757867446 27.115799062584898 4.6533557057999513 0 -0.81915205242281985 -0.57357642473473569 0.5 0 0 1 I I -0.70710678118654746 0.70710678118654746 0.5 forward I I I I #
loop $-1 $-1 $280 $83 #
coedge $-1 $176 $176 $281 $282 reversed $110 $-1 #
face $-1 $-1 $283 $64 $-1 $284 forward single #
loop $-1 $285 $286 $112 #
cone-surface $-1 -26.843216249347158 27.115799062584898 4.6533557057999513 0 -0.81915205242281985 -0.57357642473473569 0.5 0 0 1 I I -0.70710678118654746 0.70710678118654746 0.5 forward I I I I #
loop $-1 $-1 $287 $84 #
coedge $-1 $181 $181 $288 $289 reversed $113 $-1 #
face $-1 $290 $291 $65 $-1 $292 reversed single #
loop $-1 $-1 $293 $115 #
plane-surface $-1 -6.3341085369675767 -4.7885811795279807 56.101128459611544 0 0.81915205242281985 0.57357642473473569 1 0 0 forward_v I I I I #
coedge $-1 $294 $295 $296 $297 reversed $116 $-1 #
face $-1 $-1 $298 $66 $-1 $299 forward single #
loop $-1 $300 $301 $118 #
cone-surface $-1 -9.6303587912277209 27.115799062584898 4.6533557057999513 0 -0.81915205242281985 -0.57357642473473569 0.5 0 0 1 I I -0.70710678118654746 0.70710678118654746 0.5 forward I I I I #
loop $-1 $-1 $302 $86 #
coedge $-1 $190 $190 $303 $304 reversed $119 $-1 #
face $-1 $-1 $305 $67 $-1 $306 forward single #
loop $-1 $307 $308 $121 #
cone-surface $-1 -3.0378582827074325 27.115799062584898 4.6533557057999513 0 -0.81915205242281985 -0.57357642473473569 0.5 0 0 1 I I -0.70710678118654746 0.70710678118654746 0.5 forward I I I I #
loop $-1 $-1 $309 $87 #
coedge $-1 $195 $195 $310 $311 reversed $122 $-1 #
face $-1 $312 $313 $68 $-1 $314 reversed single #
loop $-1 $-1 $315 $124 #
plane-surface $-1 17.471249429672142 -4.7885811795279807 56.101128459611544 0 0.81915205242281985 0.57357642473473569 1 0 0 forward_v I I I I #
coedge $-1 $316 $317 $318 $319 reversed $125 $-1 #
face $-1 $-1 $320 $69 $-1 $321 forward single #
loop $-1 $322 $323 $127 #
cone-surface $-1 14.174999175411997 27.115799062584898 4.6533557057999513 0 -0.81915205242281985 -0.57357642473473569 0.5 0 0 1 I I -0.70710678118654746 0.70710678118654746 0.5 forward I I I I #
loop $-1 $-1 $324 $89 #
coedge $-1 $204 $204 $325 $326 reversed $128 $-1 #
face $-1 $-1 $327 $70 $-1 $328 forward single #
loop $-1 $329 $330 $130 #
cone-surface $-1 20.767499683932286 27.115799062584898 4.6533557057999513 0 -0.81915205242281985 -0.57357642473473569 0.5 0 0 1 I I -0.70710678118654746 0.70710678118654746 0.5 forward I I I I #
loop $-1 $-1 $331 $90 #
coedge $-1 $209 $209 $332 $333 reversed $131 $-1 #
face $-1 $334 $335 $71 $-1 $336 reversed single #
loop $-1 $-1 $337 $133 #
plane-surface $-1 41.27660739631186 -4.7885811795279807 56.101128459611544 0 0.81915205242281985 0.57357642473473569 1 0 0 forward_v I I I I #
coedge $-1 $338 $339 $340 $341 reversed $134 $-1 #
face $-1 $-1 $342 $72 $-1 $343 forward single #
loop $-1 $344 $345 $136 #
cone-surface $-1 37.980357142051716 27.115799062584898 4.6533557057999513 0 -0.81915205242281985 -0.57357642473473569 0.5 0 0 1 I I -0.70710678118654746 0.70710678118654746 0.5 forward I I I I #
loop $-1 $-1 $346 $92 #
coedge $-1 $218 $218 $347 $348 reversed $137 $-1 #
face $-1 $-1 $349 $73 $-1 $350 forward single #
loop $-1 $351 $352 $139 #
cone-surface $-1 44.572857650572004 27.115799062584898 4.6533557057999513 0 -0.81915205242281985 -0.57357642473473569 0.5 0 0 1 I I -0.70710678118654746 0.70710678118654746 0.5 forward I I I I #
loop $-1 $-1 $353 $93 #
coedge $-1 $223 $223 $354 $355 reversed $140 $-1 #
face $-1 $356 $357 $74 $-1 $358 forward single #
loop $-1 $-1 $359 $142 #
plane-surface $-1 -34.252951387307476 -32.541545724681626 6.5138734921559234 0 -0.61566148304635926 0.78801074757464917 1 0 0 forward_v I I I I #
coedge $-1 $360 $361 $362 $363 reversed $143 $-1 #
face $-1 $-1 $364 $75 $-1 $365 forward single #
loop $-1 $366 $367 $145 #
cone-surface $-1 -37.684228232838201 -27.805027643049776 5.5642622887432847 0 0.61566148304635926 -0.78801074757464917 0.75 0 0 1 I I -0.70710678118654757 0.70710678118654757 0.75 forward I I I I #
loop $-1 $-1 $368 $95 #
coedge $-1 $232 $232 $369 $370 reversed $146 $-1 #
face $-1 $-1 $371 $76 $-1 $372 forward single #
loop $-1 $373 $374 $148 #
cone-surface $-1 -30.821674541776758 -27.805027643049776 5.5642622887432847 0 0.61566148304635926 -0.78801074757464917 0.75 0 0 1 I I -0.70710678118654757 0.70710678118654757 0.75 forward I I I I #
loop $-1 $-1 $375 $96 #
coedge $-1 $237 $237 $376 $377 reversed $149 $-1 #
face $-1 $378 $379 $77 $-1 $380 reversed single #
loop $-1 $-1 $381 $151 #
plane-surface $-1 13.574883085923972 -32.541545724681626 6.5138734921559234 0 -0.61566148304635926 0.78801074757464917 1 0 0 forward_v I I I I #
coedge $-1 $382 $383 $384 $385 reversed $152 $-1 #
face $-1 $-1 $386 $78 $-1 $387 forward single #
loop $-1 $388 $389 $154 #
cone-surface $-1 10.143606240393247 -27.805027643049776 5.5642622887432847 0 0.61566148304635926 -0.78801074757464917 0.75 0 0 1 I I -0.70710678118654757 0.70710678118654757 0.75 forward I I I I #
loop $-1 $-1 $390 $98 #
coedge $-1 $246 $246 $391 $392 reversed $155 $-1 #
face $-1 $-1 $393 $79 $-1 $394 forward single #
loop $-1 $395 $396 $157 #
cone-surface $-1 17.00615993145469 -27.805027643049776 5.5642622887432847 0 0.61566148304635926 -0.78801074757464917 0.75 0 0 1 I I -0.70710678118654757 0.70710678118654757 0.75 forward I I I I #
loop $-1 $-1 $397 $99 #
coedge $-1 $251 $251 $398 $399 reversed $158 $-1 #
face $-1 $400 $401 $60 $-1 $402 reversed single #
loop $-1 $-1 $403 $160 #
plane-surface $-1 0 -32.54154572468164 0 0 1 0 0 0 1 forward_v I I I I #
coedge $-1 $404 $405 $406 $407 forward $161 $-1 #
coedge $-1 $408 $163 $409 $410 forward $101 $-1 #
coedge $-1 $163 $408 $411 $412 forward $101 $-1 #
coedge $-1 $413 $414 $163 $259 reversed $415 $-1 #
edge $-1 $416 -32.54154572468164 $417 32.54154572468164 $258 $418 forward 7 unknown #
face $-1 $419 $420 $61 $-1 $421 reversed single #
loop $-1 $-1 $422 $164 #
plane-surface $-1 0 32.54154572468164 0 0 -1 0 0 0 -1 forward_v I I I I #
coedge $-1 $266 $423 $424 $425 reversed $165 $-1 #
coedge $-1 $426 $167 $427 $428 reversed $104 $-1 #
coedge $-1 $167 $426 $429 $430 reversed $104 $-1 #
coedge $-1 $431 $263 $167 $267 reversed $165 $-1 #
edge $-1 $432 -32.54154572468164 $433 32.54154572468164 $266 $434 forward 7 unknown #
face $-1 $435 $436 $62 $-1 $437 forward single #
loop $-1 $-1 $438 $168 #
plane-surface $-1 -22.44821591033363 82.690968184225952 117.35496651453772 -1 0 0 0 0.81915205242281985 0.57357642473473569 forward_v I I I I #
coedge $-1 $439 $440 $441 $442 reversed $169 $-1 #
coedge $-1 $273 $171 $443 $444 reversed $107 $-1 #
coedge $-1 $171 $272 $439 $445 reversed $107 $-1 #
coedge $-1 $441 $446 $171 $275 forward $436 $-1 #
edge $-1 $447 8.8039383674313356 $448 14.126661573589168 $274 $449 forward 7 unknown #
loop $-1 $-1 $281 $172 #
plane-surface $-1 -30.139466503607302 -4.7885811795279807 56.101128459611544 0 0.81915205242281985 0.57357642473473569 1 0 0 forward_v I I I I #
loop $-1 $-1 $450 $109 #
coedge $-1 $279 $279 $280 $451 reversed $173 $-1 #
coedge $-1 $280 $280 $279 $451 forward $175 $-1 #
coedge $-1 $281 $281 $176 $282 forward $276 $-1 #
edge $-1 $452 5.7962686500984556e-016 $452 6.2831853071796013 $281 $453 forward 7 unknown #
loop $-1 $-1 $288 $177 #
plane-surface $-1 -30.139466503607302 -4.7885811795279807 56.101128459611544 0 0.81915205242281985 0.57357642473473569 1 0 0 forward_v I I I I #
loop $-1 $-1 $454 $112 #
coedge $-1 $286 $286 $287 $455 reversed $178 $-1 #
coedge $-1 $287 $287 $286 $455 forward $180 $-1 #
coedge $-1 $288 $288 $181 $289 forward $283 $-1 #
edge $-1 $456 5.7962686500984556e-016 $456 6.2831853071796013 $288 $457 forward 7 unknown #
face $-1 $458 $459 $65 $-1 $460 forward single #
loop $-1 $-1 $461 $182 #
plane-surface $-1 1.3571420563060954 82.690968184225952 117.35496651453772 -1 0 0 0 0.81915205242281985 0.57357642473473569 forward_v I I I I #
coedge $-1 $462 $463 $464 $465 reversed $183 $-1 #
coedge $-1 $295 $185 $466 $467 reversed $116 $-1 #
coedge $-1 $185 $294 $462 $468 reversed $116 $-1 #
coedge $-1 $464 $469 $185 $297 forward $459 $-1 #
edge $-1 $470 8.8039383674313356 $471 14.126661573589168 $296 $472 forward 7 unknown #
loop $-1 $-1 $303 $186 #
plane-surface $-1 -6.3341085369675767 -4.7885811795279807 56.101128459611544 0 0.81915205242281985 0.57357642473473569 1 0 0 forward_v I I I I #
loop $-1 $-1 $473 $118 #
coedge $-1 $301 $301 $302 $474 reversed $187 $-1 #
coedge $-1 $302 $302 $301 $474 forward $189 $-1 #
coedge $-1 $303 $303 $190 $304 forward $298 $-1 #
edge $-1 $475 5.7962686500984556e-016 $475 6.2831853071796013 $303 $476 forward 7 unknown #
loop $-1 $-1 $310 $191 #
plane-surface $-1 -6.3341085369675767 -4.7885811795279807 56.101128459611544 0 0.81915205242281985 0.57357642473473569 1 0 0 forward_v I I I I #
loop $-1 $-1 $477 $121 #
coedge $-1 $308 $308 $309 $478 reversed $192 $-1 #
coedge $-1 $309 $309 $308 $478 forward $194 $-1 #
coedge $-1 $310 $310 $195 $311 forward $305 $-1 #
edge $-1 $479 5.7962686500984556e-016 $479 6.2831853071796013 $310 $480 forward 7 unknown #
face $-1 $481 $482 $68 $-1 $483 forward single #
loop $-1 $-1 $484 $196 #
plane-surface $-1 25.162500022945814 82.690968184225952 117.35496651453772 -1 0 0 0 0.81915205242281985 0.57357642473473569 forward_v I I I I #
coedge $-1 $485 $486 $487 $488 reversed $197 $-1 #
coedge $-1 $317 $199 $489 $490 reversed $125 $-1 #
coedge $-1 $199 $316 $485 $491 reversed $125 $-1 #
coedge $-1 $487 $492 $199 $319 forward $482 $-1 #
edge $-1 $493 8.8039383674313356 $494 14.126661573589168 $318 $495 forward 7 unknown #
loop $-1 $-1 $325 $200 #
plane-surface $-1 17.471249429672142 -4.7885811795279807 56.101128459611544 0 0.81915205242281985 0.57357642473473569 1 0 0 forward_v I I I I #
loop $-1 $-1 $496 $127 #
coedge $-1 $323 $323 $324 $497 reversed $201 $-1 #
coedge $-1 $324 $324 $323 $497 forward $203 $-1 #
coedge $-1 $325 $325 $204 $326 forward $320 $-1 #
edge $-1 $498 5.7962686500984556e-016 $498 6.2831853071796013 $325 $499 forward 7 unknown #
loop $-1 $-1 $332 $205 #
plane-surface $-1 17.471249429672142 -4.7885811795279807 56.101128459611544 0 0.81915205242281985 0.57357642473473569 1 0 0 forward_v I I I I #
loop $-1 $-1 $500 $130 #
coedge $-1 $330 $330 $331 $501 reversed $206 $-1 #
coedge $-1 $331 $331 $330 $501 forward $208 $-1 #
coedge $-1 $332 $332 $209 $333 forward $327 $-1 #
edge $-1 $502 5.7962686500984556e-016 $502 6.2831853071796013 $332 $503 forward 7 unknown #
face $-1 $504 $505 $71 $-1 $506 forward single #
loop $-1 $-1 $507 $210 #
plane-surface $-1 48.967857989585532 82.690968184225952 117.35496651453772 -1 0 0 0 0.81915205242281985 0.57357642473473569 forward_v I I I I #
coedge $-1 $508 $509 $510 $511 reversed $211 $-1 #
coedge $-1 $339 $213 $512 $513 reversed $134 $-1 #
coedge $-1 $213 $338 $508 $514 reversed $134 $-1 #
coedge $-1 $510 $515 $213 $341 forward $505 $-1 #
edge $-1 $516 8.8039383674313356 $517 14.126661573589168 $340 $518 forward 7 unknown #
loop $-1 $-1 $347 $214 #
plane-surface $-1 41.27660739631186 -4.7885811795279807 56.101128459611544 0 0.81915205242281985 0.57357642473473569 1 0 0 forward_v I I I I #
loop $-1 $-1 $519 $136 #
coedge $-1 $345 $345 $346 $520 reversed $215 $-1 #
coedge $-1 $346 $346 $345 $520 forward $217 $-1 #
coedge $-1 $347 $347 $218 $348 forward $342 $-1 #
edge $-1 $521 5.7962686500984556e-016 $521 6.2831853071796013 $347 $522 forward 7 unknown #
loop $-1 $-1 $354 $219 #
plane-surface $-1 41.27660739631186 -4.7885811795279807 56.101128459611544 0 0.81915205242281985 0.57357642473473569 1 0 0 forward_v I I I I #
loop $-1 $-1 $523 $139 #
coedge $-1 $352 $352 $353 $524 reversed $220 $-1 #
coedge $-1 $353 $353 $352 $524 forward $222 $-1 #
coedge $-1 $354 $354 $223 $355 forward $349 $-1 #
edge $-1 $525 5.7962686500984556e-016 $525 6.2831853071796013 $354 $526 forward 7 unknown #
face $-1 $527 $528 $74 $-1 $529 forward single #
loop $-1 $-1 $530 $224 #
plane-surface $-1 -42.259264026879165 0 8.8898172875903914 -1 0 0 0 0 1 forward_v I I I I #
coedge $-1 $531 $532 $533 $534 reversed $225 $-1 #
coedge $-1 $361 $227 $535 $536 reversed $143 $-1 #
coedge $-1 $227 $360 $531 $537 reversed $143 $-1 #
coedge $-1 $533 $538 $227 $363 forward $528 $-1 #
edge $-1 $539 16.603336979794008 $540 21.564318707422501 $362 $541 forward 7 unknown #
loop $-1 $-1 $369 $228 #
plane-surface $-1 -34.252951387307476 -32.541545724681626 6.5138734921559234 0 -0.61566148304635926 0.78801074757464917 1 0 0 forward_v I I I I #
loop $-1 $-1 $542 $145 #
coedge $-1 $367 $367 $368 $543 reversed $229 $-1 #
coedge $-1 $368 $368 $367 $543 forward $231 $-1 #
coedge $-1 $369 $369 $232 $370 forward $364 $-1 #
edge $-1 $544 1.7790639125821621e-015 $544 6.2831853071796022 $369 $545 forward 7 unknown #
loop $-1 $-1 $376 $233 #
plane-surface $-1 -34.252951387307476 -32.541545724681626 6.5138734921559234 0 -0.61566148304635926 0.78801074757464917 1 0 0 forward_v I I I I #
loop $-1 $-1 $546 $148 #
coedge $-1 $374 $374 $375 $547 reversed $234 $-1 #
coedge $-1 $375 $375 $374 $547 forward $236 $-1 #
coedge $-1 $376 $376 $237 $377 forward $371 $-1 #
edge $-1 $548 1.7790639125821621e-015 $548 6.2831853071796022 $376 $549 forward 7 unknown #
face $-1 $550 $551 $77 $-1 $552 reversed single #
loop $-1 $-1 $553 $238 #
plane-surface $-1 5.568570446352286 -98.289765408951297 90.667755409115628 1 0 0 0 0.61566148304635926 -0.78801074757464917 forward_v I I I I #
coedge $-1 $554 $555 $556 $557 reversed $239 $-1 #
coedge $-1 $383 $241 $558 $559 reversed $152 $-1 #
coedge $-1 $241 $382 $554 $560 reversed $152 $-1 #
coedge $-1 $556 $561 $241 $385 forward $562 $-1 #
edge $-1 $563 16.603336979794008 $564 21.564318707422501 $384 $565 forward 7 unknown #
loop $-1 $-1 $391 $242 #
plane-surface $-1 13.574883085923972 -32.541545724681626 6.5138734921559234 0 -0.61566148304635926 0.78801074757464917 1 0 0 forward_v I I I I #
loop $-1 $-1 $566 $154 #
coedge $-1 $389 $389 $390 $567 reversed $243 $-1 #
coedge $-1 $390 $390 $389 $567 forward $245 $-1 #
coedge $-1 $391 $391 $246 $392 forward $386 $-1 #
edge $-1 $568 1.7790639125821621e-015 $568 6.2831853071796022 $391 $569 forward 7 unknown #
loop $-1 $-1 $398 $247 #
plane-surface $-1 13.574883085923972 -32.541545724681626 6.5138734921559234 0 -0.61566148304635926 0.78801074757464917 1 0 0 forward_v I I I I #
loop $-1 $-1 $570 $157 #
coedge $-1 $396 $396 $397 $571 reversed $248 $-1 #
coedge $-1 $397 $397 $396 $571 forward $250 $-1 #
coedge $-1 $398 $398 $251 $399 forward $393 $-1 #
edge $-1 $572 1.7790639125821621e-015 $572 6.2831853071796022 $398 $573 forward 7 unknown #
face $-1 $574 $575 $60 $-1 $576 reversed single #
loop $-1 $-1 $577 $252 #
plane-surface $-1 -53.39640491958373 0 0 1 0 0 0 0 -1 forward_v I I I I #
coedge $-1 $578 $411 $579 $580 forward $253 $-1 #
coedge $-1 $581 $255 $578 $582 forward $161 $-1 #
coedge $-1 $255 $581 $583 $584 forward $161 $-1 #
coedge $-1 $414 $413 $255 $407 reversed $415 $-1 #
edge $-1 $585 -32.54154572468164 $586 32.54154572468164 $406 $587 forward 7 unknown #
coedge $-1 $257 $256 $588 $589 forward $101 $-1 #
coedge $-1 $590 $591 $256 $410 reversed $575 $-1 #
edge $-1 $417 -53.39640491958373 $592 53.39640491958373 $409 $593 forward 7 unknown #
coedge $-1 $403 $594 $257 $412 reversed $253 $-1 #
edge $-1 $595 -53.39640491958373 $416 53.39640491958373 $411 $596 forward 7 unknown #
coedge $-1 $406 $258 $594 $597 forward $415 $-1 #
coedge $-1 $258 $406 $590 $598 reversed $415 $-1 #
loop $-1 $-1 $413 $574 #
vertex $-1 $259 $599 #
vertex $-1 $259 $600 #
straight-curve $-1 53.39640491958373 0 10.389817287590391 0 1 0 I I #
face $-1 $601 $602 $61 $-1 $603 forward single #
loop $-1 $-1 $604 $260 #
plane-surface $-1 -53.39640491958373 0 0 1 0 0 0 0 -1 forward_v I I I I #
coedge $-1 $429 $605 $431 $606 forward $261 $-1 #
coedge $-1 $263 $431 $607 $608 reversed $165 $-1 #
coedge $-1 $609 $427 $263 $425 forward $610 $-1 #
edge $-1 $433 2.9449086437951957 $611 5.9449086437951957 $424 $612 forward 7 unknown #
coedge $-1 $265 $264 $604 $613 reversed $104 $-1 #
coedge $-1 $424 $614 $264 $428 forward $610 $-1 #
edge $-1 $615 -29.482487682968006 $433 -18.345346790263442 $427 $616 forward 7 unknown #
coedge $-1 $617 $422 $265 $430 forward $261 $-1 #
edge $-1 $432 18.345346790263442 $618 29.482487682968006 $429 $619 forward 7 unknown #
coedge $-1 $423 $266 $422 $606 reversed $165 $-1 #
vertex $-1 $430 $620 #
vertex $-1 $428 $621 #
straight-curve $-1 -42.259264026879165 0 7.3898172875903914 0 -1 0 I I #
face $-1 $-1 $622 $62 $-1 $623 reversed single #
loop $-1 $-1 $274 $268 #
plane-surface $-1 0 0 10.389817287590391 0 0 1 1 0 0 forward_v I I I I #
coedge $-1 $624 $625 $626 $627 reversed $269 $-1 #
coedge $-1 $628 $271 $273 $445 forward $169 $-1 #
coedge $-1 $271 $628 $624 $629 forward $169 $-1 #
coedge $-1 $626 $274 $271 $442 forward $436 $-1 #
edge $-1 $448 -22.760983845077323 $630 -7.378482658529979 $441 $631 forward 7 unknown #
coedge $-1 $632 $633 $272 $444 forward $622 $-1 #
edge $-1 $634 -55.8893027364253 $447 -48.287665969678471 $443 $635 forward 7 unknown #
edge $-1 $448 55.803206543669205 $634 65.083091449363266 $273 $636 forward 7 unknown #
coedge $-1 $274 $626 $632 $637 forward $436 $-1 #
vertex $-1 $444 $638 #
vertex $-1 $275 $639 #
straight-curve $-1 -37.830717096880974 41.345484092112976 10.38981728759039 0 -1 0 I I #
coedge $-1 $450 $450 $-1 $640 reversed $278 $-1 #
edge $-1 $641 0 $641 6.2831853071796004 $279 $642 forward 7 unknown #
vertex $-1 $282 $643 #
ellipse-curve $-1 -33.435716757867446 29.880184121602728 6.5889989042169663 0 0.81915205242281985 0.57357642473473569 1 0 0 1 I I #
coedge $-1 $454 $454 $-1 $644 reversed $285 $-1 #
edge $-1 $645 0 $645 6.2831853071796004 $286 $646 forward 7 unknown #
vertex $-1 $289 $647 #
ellipse-curve $-1 -26.843216249347158 29.880184121602728 6.5889989042169663 0 0.81915205242281985 0.57357642473473569 1 0 0 1 I I #
face $-1 $-1 $648 $65 $-1 $649 reversed single #
loop $-1 $-1 $296 $290 #
plane-surface $-1 0 0 10.389817287590391 0 0 1 1 0 0 forward_v I I I I #
coedge $-1 $650 $651 $652 $653 reversed $291 $-1 #
coedge $-1 $654 $293 $295 $468 forward $183 $-1 #
coedge $-1 $293 $654 $650 $655 forward $183 $-1 #
coedge $-1 $652 $296 $293 $465 forward $459 $-1 #
edge $-1 $471 -10.85830486175746 $656 4.5241963247898838 $464 $657 forward 7 unknown #
coedge $-1 $658 $659 $294 $467 forward $648 $-1 #
edge $-1 $660 -55.8893027364253 $470 -48.287665969678471 $466 $661 forward 7 unknown #
edge $-1 $471 55.803206543669205 $660 65.083091449363266 $295 $662 forward 7 unknown #
coedge $-1 $296 $652 $658 $663 forward $459 $-1 #
vertex $-1 $297 $664 #
vertex $-1 $297 $665 #
straight-curve $-1 -14.025359130241249 41.345484092112976 10.38981728759039 0 -1 0 I I #
coedge $-1 $473 $473 $-1 $666 reversed $300 $-1 #
edge $-1 $667 0 $667 6.2831853071796004 $301 $668 forward 7 unknown #
vertex $-1 $304 $669 #
ellipse-curve $-1 -9.6303587912277209 29.880184121602728 6.5889989042169663 0 0.81915205242281985 0.57357642473473569 1 0 0 1 I I #
coedge $-1 $477 $477 $-1 $670 reversed $307 $-1 #
edge $-1 $671 0 $671 6.2831853071796004 $308 $672 forward 7 unknown #
vertex $-1 $311 $673 #
ellipse-curve $-1 -3.0378582827074325 29.880184121602728 6.5889989042169663 0 0.81915205242281985 0.57357642473473569 1 0 0 1 I I #
face $-1 $-1 $674 $68 $-1 $675 reversed single #
loop $-1 $-1 $318 $312 #
plane-surface $-1 0 0 10.389817287590391 0 0 1 1 0 0 forward_v I I I I #
coedge $-1 $676 $677 $678 $679 reversed $313 $-1 #
coedge $-1 $680 $315 $317 $491 forward $197 $-1 #
coedge $-1 $315 $680 $676 $681 forward $197 $-1 #
coedge $-1 $678 $318 $315 $488 forward $482 $-1 #
edge $-1 $494 1.0443741215623987 $682 16.426875308109743 $487 $683 forward 7 unknown #
coedge $-1 $684 $685 $316 $490 forward $674 $-1 #
edge $-1 $686 -55.8893027364253 $493 -48.287665969678471 $489 $687 forward 7 unknown #
edge $-1 $494 55.803206543669205 $686 65.083091449363266 $317 $688 forward 7 unknown #
coedge $-1 $318 $678 $684 $689 forward $482 $-1 #
vertex $-1 $319 $690 #
vertex $-1 $319 $691 #
straight-curve $-1 9.7799988363984696 41.345484092112976 10.38981728759039 0 -1 0 I I #
coedge $-1 $496 $496 $-1 $692 reversed $322 $-1 #
edge $-1 $693 0 $693 6.2831853071796004 $323 $694 forward 7 unknown #
vertex $-1 $326 $695 #
ellipse-curve $-1 14.174999175411997 29.880184121602728 6.5889989042169663 0 0.81915205242281985 0.57357642473473569 1 0 0 1 I I #
coedge $-1 $500 $500 $-1 $696 reversed $329 $-1 #
edge $-1 $697 0 $697 6.2831853071796004 $330 $698 forward 7 unknown #
vertex $-1 $333 $699 #
ellipse-curve $-1 20.767499683932286 29.880184121602728 6.5889989042169663 0 0.81915205242281985 0.57357642473473569 1 0 0 1 I I #
face $-1 $-1 $700 $71 $-1 $701 reversed single #
loop $-1 $-1 $340 $334 #
plane-surface $-1 0 0 10.389817287590391 0 0 1 1 0 0 forward_v I I I I #
coedge $-1 $702 $703 $704 $705 reversed $335 $-1 #
coedge $-1 $706 $337 $339 $514 forward $211 $-1 #
coedge $-1 $337 $706 $702 $707 forward $211 $-1 #
coedge $-1 $704 $340 $337 $511 forward $505 $-1 #
edge $-1 $517 12.947053104882258 $708 28.329554291429602 $510 $709 forward 7 unknown #
coedge $-1 $710 $711 $338 $513 forward $700 $-1 #
edge $-1 $712 -55.8893027364253 $516 -48.287665969678471 $512 $713 forward 7 unknown #
edge $-1 $517 55.803206543669205 $712 65.083091449363266 $339 $714 forward 7 unknown #
coedge $-1 $340 $704 $710 $715 forward $505 $-1 #
vertex $-1 $341 $716 #
vertex $-1 $341 $717 #
straight-curve $-1 33.585356803038188 41.345484092112976 10.38981728759039 0 -1 0 I I #
coedge $-1 $519 $519 $-1 $718 reversed $344 $-1 #
edge $-1 $719 0 $719 6.2831853071796004 $345 $720 forward 7 unknown #
vertex $-1 $348 $721 #
ellipse-curve $-1 37.980357142051716 29.880184121602728 6.5889989042169663 0 0.81915205242281985 0.57357642473473569 1 0 0 1 I I #
coedge $-1 $523 $523 $-1 $722 reversed $351 $-1 #
edge $-1 $723 0 $723 6.2831853071796004 $352 $724 forward 7 unknown #
vertex $-1 $355 $725 #
ellipse-curve $-1 44.572857650572004 29.880184121602728 6.5889989042169663 0 0.81915205242281985 0.57357642473473569 1 0 0 1 I I #
face $-1 $-1 $726 $74 $-1 $727 reversed single #
loop $-1 $-1 $533 $356 #
plane-surface $-1 0 0 10.389817287590391 0 0 1 1 0 0 forward_v I I I I #
coedge $-1 $728 $729 $532 $730 reversed $357 $-1 #
coedge $-1 $731 $359 $361 $537 forward $225 $-1 #
coedge $-1 $359 $731 $530 $730 forward $225 $-1 #
coedge $-1 $732 $362 $359 $534 forward $528 $-1 #
edge $-1 $540 9.1201630540820524 $733 25.132788333225427 $533 $734 forward 7 unknown #
coedge $-1 $735 $736 $360 $536 forward $726 $-1 #
edge $-1 $737 -38.820004212401905 $539 -34.944060416967424 $535 $738 forward 7 unknown #
edge $-1 $540 -6.2955762251942113 $737 1.830693040787162e-014 $361 $739 forward 7 unknown #
coedge $-1 $362 $732 $735 $740 forward $528 $-1 #
vertex $-1 $536 $741 #
vertex $-1 $363 $742 #
straight-curve $-1 -26.246638747735791 -49.144882704475648 10.38981728759039 0 1 0 I I #
coedge $-1 $542 $542 $-1 $743 reversed $366 $-1 #
edge $-1 $744 0 $744 6.2831853071796004 $367 $745 forward 7 unknown #
vertex $-1 $370 $746 #
ellipse-curve $-1 -37.684228232838201 -30.061054860867397 8.4518453898731494 0 -0.61566148304635926 0.78801074757464917 1.5 0 0 1 I I #
coedge $-1 $546 $546 $-1 $747 reversed $373 $-1 #
edge $-1 $748 0 $748 6.2831853071796004 $374 $749 forward 7 unknown #
vertex $-1 $377 $750 #
ellipse-curve $-1 -30.821674541776758 -30.061054860867397 8.4518453898731494 0 -0.61566148304635926 0.78801074757464917 1.5 0 0 1 I I #
face $-1 $-1 $562 $77 $-1 $751 forward single #
loop $-1 $-1 $752 $378 #
plane-surface $-1 0 -32.54154572468164 0 0 1 0 0 0 1 forward_v I I I I #
coedge $-1 $753 $754 $755 $756 reversed $379 $-1 #
coedge $-1 $757 $381 $383 $560 forward $239 $-1 #
coedge $-1 $381 $757 $753 $758 forward $239 $-1 #
coedge $-1 $755 $384 $381 $557 forward $562 $-1 #
edge $-1 $564 -14.793754182533672 $759 1.2188710966096998 $556 $760 forward 7 unknown #
coedge $-1 $761 $762 $382 $559 forward $551 $-1 #
edge $-1 $763 -38.820004212401905 $563 -34.944060416967424 $558 $764 forward 7 unknown #
edge $-1 $564 -6.2955762251942113 $763 1.830693040787162e-014 $383 $765 forward 7 unknown #
coedge $-1 $384 $755 $761 $766 forward $562 $-1 #
loop $-1 $-1 $755 $550 #
vertex $-1 $559 $767 #
vertex $-1 $385 $768 #
straight-curve $-1 21.581195725495657 -49.144882704475648 10.38981728759039 0 1 0 I I #
coedge $-1 $566 $566 $-1 $769 reversed $388 $-1 #
edge $-1 $770 0 $770 6.2831853071796004 $389 $771 forward 7 unknown #
vertex $-1 $392 $772 #
ellipse-curve $-1 10.143606240393247 -30.061054860867397 8.4518453898731494 0 -0.61566148304635926 0.78801074757464917 1.5 0 0 1 I I #
coedge $-1 $570 $570 $-1 $773 reversed $395 $-1 #
edge $-1 $774 0 $774 6.2831853071796004 $396 $775 forward 7 unknown #
vertex $-1 $399 $776 #
ellipse-curve $-1 17.00615993145469 -30.061054860867397 8.4518453898731494 0 -0.61566148304635926 0.78801074757464917 1.5 0 0 1 I I #
face $-1 $-1 $415 $60 $-1 $777 reversed single #
loop $-1 $-1 $590 $400 #
plane-surface $-1 0 32.54154572468164 0 0 -1 0 0 0 -1 forward_v I I I I #
coedge $-1 $778 $588 $591 $779 forward $401 $-1 #
coedge $-1 $594 $403 $404 $582 reversed $253 $-1 #
coedge $-1 $588 $778 $403 $580 reversed $401 $-1 #
edge $-1 $595 -10.389817287590391 $780 10.389817287590391 $579 $781 forward 7 unknown #
coedge $-1 $405 $404 $778 $782 forward $161 $-1 #
edge $-1 $586 -53.39640491958373 $780 53.39640491958373 $578 $783 forward 7 unknown #
coedge $-1 $591 $590 $405 $584 reversed $575 $-1 #
edge $-1 $784 -53.39640491958373 $585 53.39640491958373 $583 $785 forward 7 unknown #
vertex $-1 $407 $786 #
vertex $-1 $597 $787 #
straight-curve $-1 53.39640491958373 0 -10.389817287590391 0 -1 0 I I #
coedge $-1 $577 $579 $408 $589 reversed $401 $-1 #
edge $-1 $592 -32.54154572468164 $595 32.54154572468164 $588 $788 forward 7 unknown #
coedge $-1 $583 $409 $414 $598 forward $575 $-1 #
coedge $-1 $409 $583 $577 $779 reversed $575 $-1 #
vertex $-1 $410 $789 #
straight-curve $-1 0 32.54154572468164 10.389817287590391 -1 0 0 I I #
coedge $-1 $411 $578 $413 $597 reversed $253 $-1 #
vertex $-1 $589 $790 #
straight-curve $-1 0 -32.54154572468164 10.389817287590391 1 0 0 I I #
edge $-1 $416 -10.389817287590391 $586 10.389817287590391 $413 $791 forward 7 unknown #
edge $-1 $417 -10.389817287590391 $585 10.389817287590391 $414 $792 forward 7 unknown #
point $-1 53.39640491958373 -32.54154572468164 10.389817287590391 #
point $-1 53.39640491958373 32.54154572468164 10.389817287590391 #
face $-1 $-1 $610 $61 $-1 $793 reversed single #
loop $-1 $-1 $607 $419 #
plane-surface $-1 0 0 10.389817287590391 0 0 1 1 0 0 forward_v I I I I #
coedge $-1 $794 $795 $426 $613 forward $420 $-1 #
coedge $-1 $422 $617 $796 $797 reversed $261 $-1 #
edge $-1 $798 -5.9449086437951957 $432 -2.9449086437951957 $422 $799 forward 7 unknown #
coedge $-1 $796 $800 $423 $608 forward $602 $-1 #
edge $-1 $611 -32.54154572468164 $798 32.54154572468164 $607 $801 forward 7 unknown #
coedge $-1 $614 $424 $800 $802 reversed $610 $-1 #
loop $-1 $-1 $424 $601 #
vertex $-1 $425 $803 #
straight-curve $-1 -42.259264026879165 -32.54154572468164 4.4449086437951957 0 0 1 I I #
edge $-1 $618 -32.54154572468164 $615 32.54154572468164 $604 $804 forward 7 unknown #
coedge $-1 $427 $609 $794 $805 forward $610 $-1 #
vertex $-1 $613 $806 #
straight-curve $-1 -23.913917236615724 -32.54154572468164 7.3898172875903914 1 0 0 I I #
coedge $-1 $605 $429 $795 $807 reversed $261 $-1 #
vertex $-1 $613 $808 #
straight-curve $-1 -23.913917236615724 32.54154572468164 7.3898172875903914 -1 0 0 I I #
point $-1 -42.259264026879165 32.54154572468164 7.3898172875903914 #
point $-1 -42.259264026879165 -32.54154572468164 7.3898172875903914 #
loop $-1 $-1 $443 $435 #
plane-surface $-1 0 32.54154572468164 0 0 -1 0 0 0 -1 forward_v I I I I #
coedge $-1 $625 $438 $440 $629 reversed $269 $-1 #
coedge $-1 $438 $624 $809 $810 reversed $269 $-1 #
coedge $-1 $446 $441 $438 $627 forward $436 $-1 #
edge $-1 $630 -14.126661573589168 $811 -8.8039383674313356 $626 $812 forward 7 unknown #
coedge $-1 $440 $439 $633 $813 reversed $169 $-1 #
edge $-1 $814 -65.083091449363266 $630 -55.803206543669205 $624 $815 forward 7 unknown #
vertex $-1 $442 $816 #
straight-curve $-1 -15.069733251803651 27.218822518523808 10.389817287590393 1 0 0 I I #
coedge $-1 $809 $443 $446 $637 reversed $622 $-1 #
coedge $-1 $443 $809 $628 $813 forward $622 $-1 #
vertex $-1 $444 $817 #
straight-curve $-1 -37.830717096880974 32.54154572468164 58.677483257268861 0 0 1 I I #
straight-curve $-1 -37.830717096880974 -4.7885811795279807 56.101128459611544 0 0.57357642473473569 -0.81915205242281985 I I #
edge $-1 $811 22.44821591033363 $447 37.830717096880974 $632 $818 forward 7 unknown #
point $-1 -37.830717096880974 32.54154572468164 10.389817287590391 #
point $-1 -37.830717096880974 27.218822518523808 10.38981728759039 #
edge $-1 $819 1 $819 0 $450 $-1 forward 7 unknown #
vertex $-1 $451 $820 #
ellipse-curve $-1 -33.435716757867446 27.525375088796309 4.940143918167319 0 0.81915205242281985 0.57357642473473569 1 0 0 1 I I #
point $-1 -32.435716757867446 29.880184121602714 6.5889989042169557 #
edge $-1 $821 1 $821 0 $454 $-1 forward 7 unknown #
vertex $-1 $455 $822 #
ellipse-curve $-1 -26.843216249347158 27.525375088796309 4.940143918167319 0 0.81915205242281985 0.57357642473473569 1 0 0 1 I I #
point $-1 -25.843216249347158 29.880184121602714 6.5889989042169557 #
loop $-1 $-1 $466 $458 #
plane-surface $-1 0 32.54154572468164 0 0 -1 0 0 0 -1 forward_v I I I I #
coedge $-1 $651 $461 $463 $655 reversed $291 $-1 #
coedge $-1 $461 $650 $823 $824 reversed $291 $-1 #
coedge $-1 $469 $464 $461 $653 forward $459 $-1 #
edge $-1 $656 -14.126661573589168 $825 -8.8039383674313356 $652 $826 forward 7 unknown #
coedge $-1 $463 $462 $659 $827 reversed $183 $-1 #
edge $-1 $828 -65.083091449363266 $656 -55.803206543669205 $650 $829 forward 7 unknown #
vertex $-1 $465 $830 #
straight-curve $-1 -3.1670542684837883 27.218822518523808 10.389817287590393 1 0 0 I I #
coedge $-1 $823 $466 $469 $663 reversed $648 $-1 #
coedge $-1 $466 $823 $654 $827 forward $648 $-1 #
vertex $-1 $467 $831 #
straight-curve $-1 -14.025359130241249 32.54154572468164 58.677483257268861 0 0 1 I I #
straight-curve $-1 -14.025359130241249 -4.7885811795279807 56.101128459611544 0 0.57357642473473569 -0.81915205242281985 I I #
edge $-1 $825 -1.3571420563060954 $470 14.025359130241249 $658 $832 forward 7 unknown #
point $-1 -14.025359130241249 32.54154572468164 10.389817287590391 #
point $-1 -14.025359130241249 27.218822518523808 10.38981728759039 #
edge $-1 $833 1 $833 0 $473 $-1 forward 7 unknown #
vertex $-1 $474 $834 #
ellipse-curve $-1 -9.6303587912277209 27.525375088796309 4.940143918167319 0 0.81915205242281985 0.57357642473473569 1 0 0 1 I I #
point $-1 -8.6303587912277209 29.880184121602714 6.5889989042169557 #
edge $-1 $835 1 $835 0 $477 $-1 forward 7 unknown #
vertex $-1 $478 $836 #
ellipse-curve $-1 -3.0378582827074325 27.525375088796309 4.940143918167319 0 0.81915205242281985 0.57357642473473569 1 0 0 1 I I #
point $-1 -2.0378582827074325 29.880184121602714 6.5889989042169557 #
loop $-1 $-1 $489 $481 #
plane-surface $-1 0 32.54154572468164 0 0 -1 0 0 0 -1 forward_v I I I I #
coedge $-1 $677 $484 $486 $681 reversed $313 $-1 #
coedge $-1 $484 $676 $837 $838 reversed $313 $-1 #
coedge $-1 $492 $487 $484 $679 forward $482 $-1 #
edge $-1 $682 -14.126661573589168 $839 -8.8039383674313356 $678 $840 forward 7 unknown #
coedge $-1 $486 $485 $685 $841 reversed $197 $-1 #
edge $-1 $842 -65.083091449363266 $682 -55.803206543669205 $676 $843 forward 7 unknown #
vertex $-1 $488 $844 #
straight-curve $-1 8.7356247148360708 27.218822518523808 10.389817287590393 1 0 0 I I #
coedge $-1 $837 $489 $492 $689 reversed $674 $-1 #
coedge $-1 $489 $837 $680 $841 forward $674 $-1 #
vertex $-1 $490 $845 #
straight-curve $-1 9.7799988363984696 32.54154572468164 58.677483257268861 0 0 1 I I #
straight-curve $-1 9.7799988363984696 -4.7885811795279807 56.101128459611544 0 0.57357642473473569 -0.81915205242281985 I I #
edge $-1 $839 -25.162500022945814 $493 -9.7799988363984696 $684 $846 forward 7 unknown #
point $-1 9.7799988363984696 32.54154572468164 10.389817287590391 #
point $-1 9.7799988363984696 27.218822518523808 10.38981728759039 #
edge $-1 $847 1 $847 0 $496 $-1 forward 7 unknown #
vertex $-1 $497 $848 #
ellipse-curve $-1 14.174999175411997 27.525375088796309 4.940143918167319 0 0.81915205242281985 0.57357642473473569 1 0 0 1 I I #
point $-1 15.174999175411997 29.880184121602714 6.5889989042169557 #
edge $-1 $849 1 $849 0 $500 $-1 forward 7 unknown #
vertex $-1 $501 $850 #
ellipse-curve $-1 20.767499683932286 27.525375088796309 4.940143918167319 0 0.81915205242281985 0.57357642473473569 1 0 0 1 I I #
point $-1 21.767499683932286 29.880184121602714 6.5889989042169557 #
loop $-1 $-1 $512 $504 #
plane-surface $-1 0 32.54154572468164 0 0 -1 0 0 0 -1 forward_v I I I I #
coedge $-1 $703 $507 $509 $707 reversed $335 $-1 #
coedge $-1 $507 $702 $851 $852 reversed $335 $-1 #
coedge $-1 $515 $510 $507 $705 forward $505 $-1 #
edge $-1 $708 -14.126661573589168 $853 -8.8039383674313356 $704 $854 forward 7 unknown #
coedge $-1 $509 $508 $711 $855 reversed $211 $-1 #
edge $-1 $856 -65.083091449363266 $708 -55.803206543669205 $702 $857 forward 7 unknown #
vertex $-1 $511 $858 #
straight-curve $-1 20.63830369815593 27.218822518523808 10.389817287590393 1 0 0 I I #
coedge $-1 $851 $512 $515 $715 reversed $700 $-1 #
coedge $-1 $512 $851 $706 $855 forward $700 $-1 #
vertex $-1 $513 $859 #
straight-curve $-1 33.585356803038188 32.54154572468164 58.677483257268861 0 0 1 I I #
straight-curve $-1 33.585356803038188 -4.7885811795279807 56.101128459611544 0 0.57357642473473569 -0.81915205242281985 I I #
edge $-1 $853 -48.967857989585532 $516 -33.585356803038188 $710 $860 forward 7 unknown #
point $-1 33.585356803038188 32.54154572468164 10.389817287590391 #
point $-1 33.585356803038188 27.218822518523808 10.38981728759039 #
edge $-1 $861 1 $861 0 $519 $-1 forward 7 unknown #
vertex $-1 $520 $862 #
ellipse-curve $-1 37.980357142051716 27.525375088796309 4.940143918167319 0 0.81915205242281985 0.57357642473473569 1 0 0 1 I I #
point $-1 38.980357142051716 29.880184121602714 6.5889989042169557 #
edge $-1 $863 1 $863 0 $523 $-1 forward 7 unknown #
vertex $-1 $524 $864 #
ellipse-curve $-1 44.572857650572004 27.525375088796309 4.940143918167319 0 0.81915205242281985 0.57357642473473569 1 0 0 1 I I #
point $-1 45.572857650572004 29.880184121602714 6.5889989042169557 #
loop $-1 $-1 $535 $527 #
plane-surface $-1 0 -32.54154572468164 0 0 1 0 0 0 1 forward_v I I I I #
coedge $-1 $729 $530 $865 $866 reversed $357 $-1 #
coedge $-1 $530 $728 $732 $867 reversed $357 $-1 #
edge $-1 $868 -1.830693040787162e-014 $733 6.2955762251942113 $530 $869 forward 7 unknown #
coedge $-1 $532 $531 $736 $870 reversed $225 $-1 #
coedge $-1 $538 $533 $729 $867 forward $528 $-1 #
vertex $-1 $867 $871 #
straight-curve $-1 -17.126475693653738 -27.580563997053147 10.389817287590391 -1 0 0 I I #
coedge $-1 $865 $535 $538 $740 reversed $726 $-1 #
coedge $-1 $535 $865 $731 $870 forward $726 $-1 #
vertex $-1 $536 $872 #
straight-curve $-1 -26.246638747735791 -32.54154572468164 45.333877704557814 0 0 1 I I #
straight-curve $-1 -26.246638747735791 -32.541545724681626 6.5138734921559234 0 -0.78801074757464917 -0.61566148304635926 I I #
edge $-1 $873 -42.259264026879165 $539 -26.246638747735791 $735 $874 forward 7 unknown #
point $-1 -26.246638747735791 -32.54154572468164 10.389817287590391 #
point $-1 -26.246638747735791 -27.580563997053147 10.389817287590391 #
edge $-1 $875 1 $875 0 $542 $-1 forward 7 unknown #
vertex $-1 $543 $876 #
ellipse-curve $-1 -37.684228232838201 -28.266773755334544 6.1552703494242715 0 -0.61566148304635926 0.78801074757464917 1.5 0 0 1 I I #
point $-1 -36.184228232838201 -30.061054860867401 8.4518453898731583 #
edge $-1 $877 1 $877 0 $546 $-1 forward 7 unknown #
vertex $-1 $547 $878 #
ellipse-curve $-1 -30.821674541776758 -28.266773755334544 6.1552703494242715 0 -0.61566148304635926 0.78801074757464917 1.5 0 0 1 I I #
point $-1 -29.321674541776758 -30.061054860867401 8.4518453898731583 #
plane-surface $-1 0 0 10.389817287590391 0 0 1 1 0 0 forward_v I I I I #
coedge $-1 $762 $761 $754 $879 forward $551 $-1 #
coedge $-1 $754 $553 $555 $758 reversed $379 $-1 #
coedge $-1 $553 $753 $752 $879 reversed $379 $-1 #
coedge $-1 $561 $556 $553 $756 forward $562 $-1 #
edge $-1 $759 -21.564318707422501 $880 -16.603336979794008 $755 $881 forward 7 unknown #
coedge $-1 $555 $554 $762 $882 reversed $239 $-1 #
edge $-1 $883 -1.830693040787162e-014 $759 6.2955762251942113 $753 $884 forward 7 unknown #
vertex $-1 $557 $885 #
straight-curve $-1 6.7874415429619859 -27.580563997053147 10.389817287590391 -1 0 0 I I #
coedge $-1 $752 $558 $561 $766 reversed $551 $-1 #
coedge $-1 $558 $752 $757 $882 forward $551 $-1 #
vertex $-1 $559 $886 #
straight-curve $-1 21.581195725495657 -32.54154572468164 45.333877704557814 0 0 1 I I #
straight-curve $-1 21.581195725495657 -32.541545724681626 6.5138734921559234 0 -0.78801074757464917 -0.61566148304635926 I I #
edge $-1 $880 5.568570446352286 $563 21.581195725495657 $761 $887 forward 7 unknown #
point $-1 21.581195725495657 -32.54154572468164 10.389817287590391 #
point $-1 21.581195725495657 -27.580563997053147 10.389817287590391 #
edge $-1 $888 1 $888 0 $566 $-1 forward 7 unknown #
vertex $-1 $567 $889 #
ellipse-curve $-1 10.143606240393247 -28.266773755334544 6.1552703494242715 0 -0.61566148304635926 0.78801074757464917 1.5 0 0 1 I I #
point $-1 11.643606240393247 -30.061054860867401 8.4518453898731583 #
edge $-1 $890 1 $890 0 $570 $-1 forward 7 unknown #
vertex $-1 $571 $891 #
ellipse-curve $-1 17.00615993145469 -28.266773755334544 6.1552703494242715 0 -0.61566148304635926 0.78801074757464917 1.5 0 0 1 I I #
point $-1 18.50615993145469 -30.061054860867401 8.4518453898731583 #
plane-surface $-1 53.39640491958373 0 0 -1 0 0 0 0 1 forward_v I I I I #
coedge $-1 $579 $577 $581 $782 reversed $401 $-1 #
edge $-1 $592 -10.389817287590391 $784 10.389817287590391 $591 $892 forward 7 unknown #
vertex $-1 $782 $893 #
straight-curve $-1 -53.39640491958373 -32.54154572468164 0 0 0 -1 I I #
edge $-1 $780 -32.54154572468164 $784 32.54154572468164 $778 $894 forward 7 unknown #
straight-curve $-1 0 -32.54154572468164 -10.389817287590391 -1 0 0 I I #
vertex $-1 $584 $895 #
straight-curve $-1 0 32.54154572468164 -10.389817287590391 1 0 0 I I #
point $-1 53.39640491958373 32.54154572468164 -10.389817287590391 #
point $-1 53.39640491958373 -32.54154572468164 -10.389817287590391 #
straight-curve $-1 -53.39640491958373 0 10.389817287590391 0 -1 0 I I #
point $-1 -53.39640491958373 32.54154572468164 10.389817287590391 #
point $-1 -53.39640491958373 -32.54154572468164 10.389817287590391 #
straight-curve $-1 53.39640491958373 -32.54154572468164 0 0 0 -1 I I #
straight-curve $-1 53.39640491958373 32.54154572468164 0 0 0 -1 I I #
plane-surface $-1 0 -32.54154572468164 0 0 1 0 0 0 1 forward_v I I I I #
coedge $-1 $896 $604 $614 $805 reversed $420 $-1 #
coedge $-1 $604 $896 $617 $807 forward $420 $-1 #
coedge $-1 $897 $607 $605 $797 forward $602 $-1 #
edge $-1 $798 42.259264026879165 $898 53.39640491958373 $605 $899 forward 7 unknown #
vertex $-1 $797 $900 #
straight-curve $-1 -42.259264026879165 32.54154572468164 4.4449086437951957 0 0 -1 I I #
coedge $-1 $607 $897 $609 $802 forward $602 $-1 #
straight-curve $-1 -42.259264026879165 0 10.389817287590391 0 1 0 I I #
edge $-1 $901 -53.39640491958373 $611 -42.259264026879165 $609 $902 forward 7 unknown #
point $-1 -42.259264026879165 -32.54154572468164 10.389817287590391 #
straight-curve $-1 -53.39640491958373 0 7.3898172875903914 0 -1 0 I I #
edge $-1 $901 -10.389817287590391 $615 -7.3898172875903914 $794 $903 forward 7 unknown #
point $-1 -53.39640491958373 -32.54154572468164 7.3898172875903914 #
edge $-1 $898 -10.389817287590391 $618 -7.3898172875903914 $617 $904 forward 7 unknown #
point $-1 -53.39640491958373 32.54154572468164 7.3898172875903914 #
coedge $-1 $633 $632 $625 $810 forward $622 $-1 #
edge $-1 $811 48.287665969678471 $814 55.8893027364253 $809 $905 forward 7 unknown #
vertex $-1 $637 $906 #
straight-curve $-1 -22.44821591033363 41.345484092112976 10.38981728759039 0 1 0 I I #
edge $-1 $814 7.378482658529979 $634 22.760983845077323 $633 $907 forward 7 unknown #
vertex $-1 $813 $908 #
straight-curve $-1 -22.44821591033363 -4.7885811795279807 56.101128459611544 0 -0.57357642473473569 0.81915205242281985 I I #
point $-1 -22.44821591033363 27.218822518523808 10.38981728759039 #
point $-1 -37.830717096880974 32.54154572468164 2.7881805208435608 #
straight-curve $-1 0 32.54154572468164 10.389817287590391 -1 0 0 I I #
vertex $-1 $640 $909 #
point $-1 -32.435716757867446 27.525375088796309 4.940143918167319 #
vertex $-1 $644 $910 #
point $-1 -25.843216249347158 27.525375088796309 4.940143918167319 #
coedge $-1 $659 $658 $651 $824 forward $648 $-1 #
edge $-1 $825 48.287665969678471 $828 55.8893027364253 $823 $911 forward 7 unknown #
vertex $-1 $663 $912 #
straight-curve $-1 1.3571420563060954 41.345484092112976 10.38981728759039 0 1 0 I I #
edge $-1 $828 -4.5241963247898838 $660 10.85830486175746 $659 $913 forward 7 unknown #
vertex $-1 $827 $914 #
straight-curve $-1 1.3571420563060954 -4.7885811795279807 56.101128459611544 0 -0.57357642473473569 0.81915205242281985 I I #
point $-1 1.3571420563060954 27.218822518523808 10.38981728759039 #
point $-1 -14.025359130241249 32.54154572468164 2.7881805208435608 #
straight-curve $-1 0 32.54154572468164 10.389817287590391 -1 0 0 I I #
vertex $-1 $666 $915 #
point $-1 -8.6303587912277209 27.525375088796309 4.940143918167319 #
vertex $-1 $670 $916 #
point $-1 -2.0378582827074325 27.525375088796309 4.940143918167319 #
coedge $-1 $685 $684 $677 $838 forward $674 $-1 #
edge $-1 $839 48.287665969678471 $842 55.8893027364253 $837 $917 forward 7 unknown #
vertex $-1 $689 $918 #
straight-curve $-1 25.162500022945814 41.345484092112976 10.38981728759039 0 1 0 I I #
edge $-1 $842 -16.426875308109743 $686 -1.0443741215623987 $685 $919 forward 7 unknown #
vertex $-1 $841 $920 #
straight-curve $-1 25.162500022945814 -4.7885811795279807 56.101128459611544 0 -0.57357642473473569 0.81915205242281985 I I #
point $-1 25.162500022945814 27.218822518523808 10.38981728759039 #
point $-1 9.7799988363984696 32.54154572468164 2.7881805208435608 #
straight-curve $-1 0 32.54154572468164 10.389817287590391 -1 0 0 I I #
vertex $-1 $692 $921 #
point $-1 15.174999175411997 27.525375088796309 4.940143918167319 #
vertex $-1 $696 $922 #
point $-1 21.767499683932286 27.525375088796309 4.940143918167319 #
coedge $-1 $711 $710 $703 $852 forward $700 $-1 #
edge $-1 $853 48.287665969678471 $856 55.8893027364253 $851 $923 forward 7 unknown #
vertex $-1 $715 $924 #
straight-curve $-1 48.967857989585532 41.345484092112976 10.38981728759039 0 1 0 I I #
edge $-1 $856 -28.329554291429602 $712 -12.947053104882258 $711 $925 forward 7 unknown #
vertex $-1 $855 $926 #
straight-curve $-1 48.967857989585532 -4.7885811795279807 56.101128459611544 0 -0.57357642473473569 0.81915205242281985 I I #
point $-1 48.967857989585532 27.218822518523808 10.38981728759039 #
point $-1 33.585356803038188 32.54154572468164 2.7881805208435608 #
straight-curve $-1 0 32.54154572468164 10.389817287590391 -1 0 0 I I #
vertex $-1 $718 $927 #
point $-1 38.980357142051716 27.525375088796309 4.940143918167319 #
vertex $-1 $722 $928 #
point $-1 45.572857650572004 27.525375088796309 4.940143918167319 #
coedge $-1 $736 $735 $728 $866 forward $726 $-1 #
edge $-1 $873 34.944060416967424 $868 38.820004212401905 $865 $929 forward 7 unknown #
edge $-1 $733 27.580563997053147 $873 32.54154572468164 $732 $930 forward 7 unknown #
vertex $-1 $866 $931 #
straight-curve $-1 -42.259264026879165 -32.541545724681626 6.5138734921559234 0 0.78801074757464917 0.61566148304635926 I I #
edge $-1 $868 -25.132788333225427 $737 -9.1201630540820524 $736 $932 forward 7 unknown #
point $-1 -42.259264026879165 -27.580563997053147 10.389817287590391 #
point $-1 -26.246638747735791 -32.54154572468164 6.5138734921559118 #
vertex $-1 $740 $933 #
straight-curve $-1 0 -32.54154572468164 10.389817287590391 1 0 0 I I #
vertex $-1 $743 $934 #
point $-1 -36.184228232838201 -28.266773755334544 6.1552703494242715 #
vertex $-1 $747 $935 #
point $-1 -29.321674541776758 -28.266773755334544 6.1552703494242715 #
edge $-1 $880 34.944060416967424 $883 38.820004212401905 $752 $936 forward 7 unknown #
vertex $-1 $766 $937 #
straight-curve $-1 5.568570446352286 -49.144882704475648 10.38981728759039 0 -1 0 I I #
edge $-1 $883 -1.2188710966096998 $763 14.793754182533672 $762 $938 forward 7 unknown #
vertex $-1 $882 $939 #
straight-curve $-1 5.568570446352286 -32.541545724681626 6.5138734921559234 0 0.78801074757464917 0.61566148304635926 I I #
point $-1 5.568570446352286 -27.580563997053147 10.389817287590391 #
point $-1 21.581195725495657 -32.54154572468164 6.5138734921559118 #
straight-curve $-1 0 -32.54154572468164 10.389817287590391 1 0 0 I I #
vertex $-1 $769 $940 #
point $-1 11.643606240393247 -28.266773755334544 6.1552703494242715 #
vertex $-1 $773 $941 #
point $-1 18.50615993145469 -28.266773755334544 6.1552703494242715 #
straight-curve $-1 -53.39640491958373 32.54154572468164 0 0 0 -1 I I #
point $-1 -53.39640491958373 -32.54154572468164 -10.389817287590391 #
straight-curve $-1 -53.39640491958373 0 -10.389817287590391 0 1 0 I I #
point $-1 -53.39640491958373 32.54154572468164 -10.389817287590391 #
coedge $-1 $795 $794 $897 $942 reversed $420 $-1 #
coedge $-1 $800 $796 $896 $942 forward $602 $-1 #
vertex $-1 $797 $943 #
straight-curve $-1 0 32.54154572468164 10.389817287590391 -1 0 0 I I #
point $-1 -42.259264026879165 32.54154572468164 10.389817287590391 #
vertex $-1 $942 $944 #
straight-curve $-1 0 -32.54154572468164 10.389817287590391 1 0 0 I I #
straight-curve $-1 -53.39640491958373 -32.54154572468164 0 0 0 -1 I I #
straight-curve $-1 -53.39640491958373 32.54154572468164 0 0 0 -1 I I #
straight-curve $-1 -22.44821591033363 32.54154572468164 58.677483257268861 0 0 -1 I I #
point $-1 -22.44821591033363 32.54154572468164 10.389817287590391 #
straight-curve $-1 -15.069733251803651 32.54154572468164 2.7881805208435537 -1 0 0 I I #
point $-1 -22.44821591033363 32.54154572468164 2.7881805208435608 #
point $-1 -33.435716757867446 26.706223036373487 4.3665674934325835 #
point $-1 -26.843216249347158 26.706223036373487 4.3665674934325835 #
straight-curve $-1 1.3571420563060954 32.54154572468164 58.677483257268861 0 0 -1 I I #
point $-1 1.3571420563060954 32.54154572468164 10.389817287590391 #
straight-curve $-1 -3.1670542684837883 32.54154572468164 2.7881805208435537 -1 0 0 I I #
point $-1 1.3571420563060954 32.54154572468164 2.7881805208435608 #
point $-1 -9.6303587912277209 26.706223036373487 4.3665674934325835 #
point $-1 -3.0378582827074325 26.706223036373487 4.3665674934325835 #
straight-curve $-1 25.162500022945814 32.54154572468164 58.677483257268861 0 0 -1 I I #
point $-1 25.162500022945814 32.54154572468164 10.389817287590391 #
straight-curve $-1 8.7356247148360708 32.54154572468164 2.7881805208435537 -1 0 0 I I #
point $-1 25.162500022945814 32.54154572468164 2.7881805208435608 #
point $-1 14.174999175411997 26.706223036373487 4.3665674934325835 #
point $-1 20.767499683932286 26.706223036373487 4.3665674934325835 #
straight-curve $-1 48.967857989585532 32.54154572468164 58.677483257268861 0 0 -1 I I #
point $-1 48.967857989585532 32.54154572468164 10.389817287590391 #
straight-curve $-1 20.63830369815593 32.54154572468164 2.7881805208435537 -1 0 0 I I #
point $-1 48.967857989585532 32.54154572468164 2.7881805208435608 #
point $-1 37.980357142051716 26.706223036373487 4.3665674934325835 #
point $-1 44.572857650572004 26.706223036373487 4.3665674934325835 #
straight-curve $-1 -42.259264026879165 -32.54154572468164 45.333877704557814 0 0 -1 I I #
straight-curve $-1 -42.259264026879165 0 10.389817287590391 0 -1 0 I I #
point $-1 -42.259264026879165 -32.54154572468164 6.5138734921559118 #
straight-curve $-1 -17.126475693653738 -32.54154572468164 6.5138734921559127 1 0 0 I I #
point $-1 -42.259264026879165 -32.54154572468164 10.389817287590391 #
point $-1 -37.684228232838201 -27.343281530765008 4.9732542280622978 #
point $-1 -30.821674541776758 -27.343281530765008 4.9732542280622978 #
straight-curve $-1 5.568570446352286 -32.54154572468164 45.333877704557814 0 0 -1 I I #
point $-1 5.568570446352286 -32.54154572468164 10.389817287590391 #
straight-curve $-1 6.7874415429619859 -32.54154572468164 6.5138734921559127 1 0 0 I I #
point $-1 5.568570446352286 -32.54154572468164 6.5138734921559118 #
point $-1 10.143606240393247 -27.343281530765008 4.9732542280622978 #
point $-1 17.00615993145469 -27.343281530765008 4.9732542280622978 #
edge $-1 $898 -32.54154572468164 $901 32.54154572468164 $896 $945 forward 7 unknown #
point $-1 -53.39640491958373 32.54154572468164 10.389817287590391 #
point $-1 -53.39640491958373 -32.54154572468164 10.389817287590391 #
straight-curve $-1 -53.39640491958373 0 10.389817287590391 0 -1 0 I I #
End-of-ACIS-data 