500 0 8 0           
7 Unknown 11 ACIS 5.0 NT 24 Thu Mar 25 23:52:31 1999 
-1 9.9999999999999995e-007 1e-010 
body $-1 $8 $-1 $9 #
body $-1 $10 $-1 $11 #
body $-1 $12 $-1 $13 #
body $-1 $14 $-1 $15 #
body $-1 $16 $-1 $17 #
body $-1 $18 $-1 $19 #
body $-1 $20 $-1 $21 #
body $-1 $22 $-1 $23 #
lump $-1 $-1 $24 $0 #
transform $-1 1 0 0 0 1 0 0 0 1 74.883877071443834 36.769818773561461 10.208065658111328 1 rotate no_reflect no_shear #
lump $-1 $-1 $25 $1 #
transform $-1 1 0 0 0 1 0 0 0 1 74.883877071443834 36.769818773561461 10.208065658111328 1 rotate no_reflect no_shear #
lump $-1 $-1 $26 $2 #
transform $-1 1 0 0 0 1 0 0 0 1 74.883877071443834 36.769818773561461 10.208065658111328 1 rotate no_reflect no_shear #
lump $-1 $-1 $27 $3 #
transform $-1 1 0 0 0 1 0 0 0 1 74.883877071443834 36.769818773561461 10.208065658111328 1 rotate no_reflect no_shear #
lump $-1 $-1 $28 $4 #
transform $-1 1 0 0 0 1 0 0 0 1 74.883877071443834 36.769818773561461 10.208065658111328 1 rotate no_reflect no_shear #
lump $-1 $-1 $29 $5 #
transform $-1 1 0 0 0 1 0 0 0 1 74.883877071443834 36.769818773561461 10.208065658111328 1 rotate no_reflect no_shear #
lump $-1 $-1 $30 $6 #
transform $-1 1 0 0 0 1 0 0 0 1 74.883877071443834 36.769818773561461 10.208065658111328 1 rotate no_reflect no_shear #
lump $-1 $-1 $31 $7 #
transform $-1 1 0 0 0 1 0 0 0 1 74.883877071443834 36.769818773561461 10.208065658111328 1 rotate no_reflect no_shear #
shell $-1 $-1 $-1 $32 $-1 $8 #
shell $-1 $-1 $-1 $33 $-1 $10 #
shell $-1 $-1 $-1 $34 $-1 $12 #
shell $-1 $-1 $-1 $35 $-1 $14 #
shell $-1 $-1 $-1 $36 $-1 $16 #
shell $-1 $-1 $-1 $37 $-1 $18 #
shell $-1 $-1 $-1 $38 $-1 $20 #
shell $-1 $-1 $-1 $39 $-1 $22 #
face $-1 $40 $41 $24 $-1 $42 forward single #
face $-1 $43 $44 $25 $-1 $45 forward single #
face $-1 $46 $47 $26 $-1 $48 reversed single #
face $-1 $49 $50 $27 $-1 $51 forward single #
face $-1 $52 $53 $28 $-1 $54 reversed single #
face $-1 $55 $56 $29 $-1 $57 forward single #
face $-1 $58 $59 $30 $-1 $60 forward single #
face $-1 $61 $62 $31 $-1 $63 forward single #
face $-1 $64 $65 $24 $-1 $66 reversed single #
loop $-1 $-1 $67 $32 #
plane-surface $-1 0 0 10.208065658111328 0 0 1 1 0 0 forward_v I I I I #
face $-1 $68 $69 $25 $-1 $70 reversed single #
loop $-1 $-1 $71 $33 #
plane-surface $-1 0 -36.769818773561461 0 0 1 0 0 0 1 forward_v I I I I #
face $-1 $72 $73 $26 $-1 $74 reversed single #
loop $-1 $-1 $75 $34 #
plane-surface $-1 74.883879528905908 27.034752685902067 216.12376494619187 0 1 0 0.70710678939079041 0 0.70710677298230451 forward_v I I I I #
face $-1 $76 $77 $27 $-1 $78 forward single #
loop $-1 $79 $80 $35 #
cone-surface $-1 71.330528186273341 31.902285729731766 6.654716718767598 -0.70710678939079041 0 -0.70710677298230451 0.70710677298230451 0 -0.70710678939079041 1 I I 0 1 1 forward I I I I #
face $-1 $81 $82 $28 $-1 $83 reversed single #
loop $-1 $-1 $84 $36 #
plane-surface $-1 -152.01997387489172 22.114922085435353 130.73156056466888 0 1 0 -0.51503808176128008 0 0.85716729658548041 forward_v I I I I #
face $-1 $85 $86 $29 $-1 $87 forward single #
loop $-1 $88 $89 $37 #
cone-surface $-1 -67.380042844582007 25.045901423060577 4.668391279610244 0.51503808176128008 0 -0.85716729658548041 0.85716729658548041 0 0.51503808176128008 1 I I 0 1 1 forward I I I I #
face $-1 $90 $91 $30 $-1 $92 forward single #
loop $-1 $93 $94 $38 #
cone-surface $-1 -67.380042844582007 29.442370429498403 4.668391279610244 0.51503808176128008 0 -0.85716729658548041 0.85716729658548041 0 0.51503808176128008 1 I I 0 1 1 forward I I I I #
face $-1 $95 $96 $31 $-1 $97 forward single #
loop $-1 $98 $99 $39 #
cone-surface $-1 -67.380042844582007 33.838839435936229 4.668391279610244 0.51503808176128008 0 -0.85716729658548041 0.85716729658548041 0 0.51503808176128008 1 I I 0 1 1 forward I I I I #
face $-1 $100 $101 $24 $-1 $102 reversed single #
loop $-1 $-1 $103 $40 #
plane-surface $-1 0 0 -10.208065658111328 0 0 1 1 0 0 forward_v I I I I #
coedge $-1 $104 $105 $106 $107 forward $41 $-1 #
face $-1 $108 $109 $25 $-1 $110 reversed single #
loop $-1 $-1 $111 $43 #
plane-surface $-1 0 0 -10.208065658111328 0 0 1 1 0 0 forward_v I I I I #
coedge $-1 $112 $113 $114 $115 forward $44 $-1 #
face $-1 $116 $117 $26 $-1 $118 reversed single #
loop $-1 $-1 $119 $46 #
plane-surface $-1 -31.017916257340644 31.902285729731766 110.22197161740741 0.70710678939079041 0 0.70710677298230451 0.70710677298230451 0 -0.70710678939079041 forward_v I I I I #
coedge $-1 $120 $121 $122 $123 reversed $47 $-1 #
face $-1 $-1 $124 $27 $-1 $125 forward single #
loop $-1 $126 $127 $49 #
cone-surface $-1 70.367570751568138 31.902285729731766 5.6917593064079259 -0.70710678939079041 0 -0.70710677298230451 0.35355338649115226 0 -0.35355339469539521 1 I I -0.70710678118654746 0.70710678118654746 0.5 forward I I I I #
loop $-1 $-1 $128 $35 #
coedge $-1 $80 $80 $129 $130 reversed $50 $-1 #
face $-1 $131 $132 $28 $-1 $133 reversed single #
loop $-1 $-1 $134 $52 #
plane-surface $-1 -74.883877071443848 29.442370429498403 2.3555396303309806 -0.51503808176128008 0 0.85716729658548041 0.85716729658548041 0 0.51503808176128008 forward_v I I I I #
coedge $-1 $135 $136 $137 $138 reversed $53 $-1 #
face $-1 $-1 $139 $29 $-1 $140 forward single #
loop $-1 $141 $142 $55 #
cone-surface $-1 -66.153088434863548 25.045901423060577 2.6263962667065819 0.51503808176128008 0 -0.85716729658548041 0.4285836482927402 0 0.25751904088064004 1 I I -0.70710678118654746 0.70710678118654746 0.5 forward I I I I #
loop $-1 $-1 $143 $37 #
coedge $-1 $89 $89 $144 $145 reversed $56 $-1 #
face $-1 $-1 $146 $30 $-1 $147 forward single #
loop $-1 $148 $149 $58 #
cone-surface $-1 -66.153088434863548 29.442370429498403 2.6263962667065819 0.51503808176128008 0 -0.85716729658548041 0.4285836482927402 0 0.25751904088064004 1 I I -0.70710678118654746 0.70710678118654746 0.5 forward I I I I #
loop $-1 $-1 $150 $38 #
coedge $-1 $94 $94 $151 $152 reversed $59 $-1 #
face $-1 $-1 $153 $31 $-1 $154 forward single #
loop $-1 $155 $156 $61 #
cone-surface $-1 -66.153088434863548 33.838839435936229 2.6263962667065819 0.51503808176128008 0 -0.85716729658548041 0.4285836482927402 0 0.25751904088064004 1 I I -0.70710678118654746 0.70710678118654746 0.5 forward I I I I #
loop $-1 $-1 $157 $39 #
coedge $-1 $99 $99 $158 $159 reversed $62 $-1 #
face $-1 $160 $161 $24 $-1 $162 reversed single #
loop $-1 $-1 $163 $64 #
plane-surface $-1 0 -36.769818773561461 0 0 1 0 0 0 1 forward_v I I I I #
coedge $-1 $164 $165 $166 $167 forward $65 $-1 #
coedge $-1 $168 $67 $169 $170 forward $41 $-1 #
coedge $-1 $67 $168 $171 $172 forward $41 $-1 #
coedge $-1 $173 $174 $67 $107 reversed $175 $-1 #
edge $-1 $176 -36.769818773561461 $177 36.769818773561461 $106 $178 forward 7 unknown #
face $-1 $179 $180 $25 $-1 $181 reversed single #
loop $-1 $-1 $182 $68 #
plane-surface $-1 -69.948327946316056 -50.076273954262156 0 0 1 0 0 0 1 forward_v I I I I #
coedge $-1 $183 $184 $113 $185 forward $69 $-1 #
coedge $-1 $186 $71 $187 $188 reversed $44 $-1 #
coedge $-1 $71 $186 $111 $185 reversed $44 $-1 #
coedge $-1 $189 $190 $71 $115 reversed $180 $-1 #
edge $-1 $191 -10.208065658111328 $192 10.208065658111328 $114 $193 forward 7 unknown #
face $-1 $194 $195 $26 $-1 $196 forward single #
loop $-1 $-1 $197 $72 #
plane-surface $-1 0 36.769818773561461 0 0 -1 0 0 0 -1 forward_v I I I I #
coedge $-1 $198 $199 $200 $201 reversed $73 $-1 #
coedge $-1 $121 $75 $202 $203 reversed $47 $-1 #
coedge $-1 $75 $120 $198 $204 reversed $47 $-1 #
coedge $-1 $200 $205 $75 $123 forward $206 $-1 #
edge $-1 $207 97.853816814984611 $208 103.7417066419351 $122 $209 forward 7 unknown #
loop $-1 $-1 $129 $76 #
plane-surface $-1 -31.017916257340644 31.902285729731766 110.22197161740741 0.70710678939079041 0 0.70710677298230451 0.70710677298230451 0 -0.70710678939079041 forward_v I I I I #
loop $-1 $-1 $210 $49 #
coedge $-1 $127 $127 $128 $211 reversed $77 $-1 #
coedge $-1 $128 $128 $127 $211 forward $79 $-1 #
coedge $-1 $129 $129 $80 $130 forward $124 $-1 #
edge $-1 $212 0 $212 6.2831853071796004 $129 $213 forward 7 unknown #
face $-1 $214 $215 $28 $-1 $216 reversed single #
loop $-1 $-1 $217 $81 #
plane-surface $-1 0 36.769818773561461 0 0 -1 0 0 0 -1 forward_v I I I I #
coedge $-1 $218 $219 $220 $221 reversed $82 $-1 #
coedge $-1 $136 $84 $222 $223 reversed $53 $-1 #
coedge $-1 $84 $135 $218 $224 reversed $53 $-1 #
coedge $-1 $220 $225 $84 $138 forward $226 $-1 #
edge $-1 $227 1.1261098660020252 $228 14.194907582050092 $137 $229 forward 7 unknown #
loop $-1 $-1 $144 $85 #
plane-surface $-1 -74.883877071443848 29.442370429498403 2.3555396303309806 -0.51503808176128008 0 0.85716729658548041 0.85716729658548041 0 0.51503808176128008 forward_v I I I I #
loop $-1 $-1 $230 $55 #
coedge $-1 $142 $142 $143 $231 reversed $86 $-1 #
coedge $-1 $143 $143 $142 $231 forward $88 $-1 #
coedge $-1 $144 $144 $89 $145 forward $139 $-1 #
edge $-1 $232 0 $232 6.2831853071796004 $144 $233 forward 7 unknown #
loop $-1 $-1 $151 $90 #
plane-surface $-1 -74.883877071443848 29.442370429498403 2.3555396303309806 -0.51503808176128008 0 0.85716729658548041 0.85716729658548041 0 0.51503808176128008 forward_v I I I I #
loop $-1 $-1 $234 $58 #
coedge $-1 $149 $149 $150 $235 reversed $91 $-1 #
coedge $-1 $150 $150 $149 $235 forward $93 $-1 #
coedge $-1 $151 $151 $94 $152 forward $146 $-1 #
edge $-1 $236 0 $236 6.2831853071796004 $151 $237 forward 7 unknown #
loop $-1 $-1 $158 $95 #
plane-surface $-1 -74.883877071443848 29.442370429498403 2.3555396303309806 -0.51503808176128008 0 0.85716729658548041 0.85716729658548041 0 0.51503808176128008 forward_v I I I I #
loop $-1 $-1 $238 $61 #
coedge $-1 $156 $156 $157 $239 reversed $96 $-1 #
coedge $-1 $157 $157 $156 $239 forward $98 $-1 #
coedge $-1 $158 $158 $99 $159 forward $153 $-1 #
edge $-1 $240 0 $240 6.2831853071796004 $158 $241 forward 7 unknown #
face $-1 $242 $243 $24 $-1 $244 reversed single #
loop $-1 $-1 $245 $100 #
plane-surface $-1 -74.883877071443834 0 0 1 0 0 0 0 -1 forward_v I I I I #
coedge $-1 $246 $171 $247 $248 forward $101 $-1 #
coedge $-1 $249 $103 $246 $250 forward $65 $-1 #
coedge $-1 $103 $249 $251 $252 forward $65 $-1 #
coedge $-1 $174 $173 $103 $167 reversed $175 $-1 #
edge $-1 $253 -36.769818773561461 $254 36.769818773561461 $166 $255 forward 7 unknown #
coedge $-1 $105 $104 $256 $257 forward $41 $-1 #
coedge $-1 $258 $259 $104 $170 reversed $243 $-1 #
edge $-1 $177 -74.883877071443834 $260 74.883877071443834 $169 $261 forward 7 unknown #
coedge $-1 $163 $262 $105 $172 reversed $101 $-1 #
edge $-1 $263 -74.883877071443834 $176 74.883877071443834 $171 $264 forward 7 unknown #
coedge $-1 $166 $106 $262 $265 forward $175 $-1 #
coedge $-1 $106 $166 $258 $266 reversed $175 $-1 #
loop $-1 $-1 $173 $242 #
vertex $-1 $107 $267 #
vertex $-1 $107 $268 #
straight-curve $-1 74.883877071443834 0 10.208065658111328 0 1 0 I I #
face $-1 $269 $270 $25 $-1 $271 reversed single #
loop $-1 $-1 $114 $108 #
plane-surface $-1 -71.602422755475942 -43.423046363911808 0 1 0 0 0 0 -1 forward_v I I I I #
coedge $-1 $272 $273 $274 $275 forward $109 $-1 #
coedge $-1 $276 $111 $277 $278 forward $69 $-1 #
coedge $-1 $111 $276 $189 $279 forward $69 $-1 #
edge $-1 $191 -71.602422755475942 $280 -68.294233137156169 $111 $281 forward 7 unknown #
coedge $-1 $113 $112 $282 $283 forward $44 $-1 #
coedge $-1 $284 $285 $112 $188 forward $286 $-1 #
edge $-1 $287 68.294233137156169 $192 71.602422755475942 $187 $288 forward 7 unknown #
coedge $-1 $274 $114 $184 $279 reversed $180 $-1 #
coedge $-1 $114 $274 $284 $289 reversed $180 $-1 #
vertex $-1 $185 $290 #
vertex $-1 $289 $291 #
straight-curve $-1 -71.602422755475942 -36.769818773561461 0 0 0 1 I I #
face $-1 $-1 $206 $26 $-1 $292 reversed single #
loop $-1 $-1 $293 $116 #
plane-surface $-1 0 0 10.208065658111328 0 0 1 1 0 0 forward_v I I I I #
coedge $-1 $294 $295 $199 $296 forward $117 $-1 #
coedge $-1 $297 $119 $121 $204 forward $73 $-1 #
coedge $-1 $119 $297 $197 $296 reversed $73 $-1 #
coedge $-1 $298 $122 $119 $201 forward $206 $-1 #
edge $-1 $208 11.083609821036184 $299 20.818675908695578 $200 $300 forward 7 unknown #
coedge $-1 $301 $293 $120 $203 forward $195 $-1 #
edge $-1 $302 31.554047616669493 $207 37.44193730699088 $202 $303 forward 7 unknown #
edge $-1 $208 -149.76775414288775 $302 -141.44102059246714 $121 $304 forward 7 unknown #
coedge $-1 $122 $298 $301 $305 reversed $206 $-1 #
loop $-1 $-1 $200 $194 #
vertex $-1 $305 $306 #
vertex $-1 $123 $307 #
straight-curve $-1 74.883877071443834 27.034752685902067 108.06188247309593 0 0 -1 I I #
coedge $-1 $210 $210 $-1 $308 reversed $126 $-1 #
edge $-1 $309 0 $309 6.2831853071796004 $127 $310 forward 7 unknown #
vertex $-1 $130 $311 #
ellipse-curve $-1 71.939932226283133 31.902285729731766 7.2641207446361005 0.70710678939079041 0 0.70710677298230451 0.70710677298230451 0 -0.70710678939079041 1 I I #
face $-1 $-1 $226 $28 $-1 $312 forward single #
loop $-1 $-1 $313 $131 #
plane-surface $-1 -74.883877071443834 0 0 1 0 0 0 0 -1 forward_v I I I I #
coedge $-1 $314 $315 $219 $316 forward $132 $-1 #
coedge $-1 $317 $134 $136 $224 forward $82 $-1 #
coedge $-1 $134 $317 $217 $316 reversed $82 $-1 #
coedge $-1 $318 $137 $134 $221 forward $226 $-1 #
edge $-1 $228 7.3937368706861513 $319 22.048633558812252 $220 $320 forward 7 unknown #
coedge $-1 $321 $313 $135 $223 forward $215 $-1 #
edge $-1 $322 -63.010240652003453 $227 -55.157714624223111 $222 $323 forward 7 unknown #
edge $-1 $228 -15.24649595021595 $322 -1.6526814159067847e-014 $136 $324 forward 7 unknown #
coedge $-1 $137 $318 $321 $325 forward $226 $-1 #
loop $-1 $-1 $220 $214 #
vertex $-1 $223 $326 #
vertex $-1 $138 $327 #
straight-curve $-1 -76.009986937445859 22.114922085435353 10.20806565811133 1 0 0 I I #
coedge $-1 $230 $230 $-1 $328 reversed $141 $-1 #
edge $-1 $329 0 $329 6.2831853071796004 $142 $330 forward 7 unknown #
vertex $-1 $145 $331 #
ellipse-curve $-1 -68.349478213419815 25.045901423060577 6.281802644221151 -0.51503808176128008 0 0.85716729658548041 0.85716729658548041 0 0.51503808176128008 1 I I #
coedge $-1 $234 $234 $-1 $332 reversed $148 $-1 #
edge $-1 $333 0 $333 6.2831853071796004 $149 $334 forward 7 unknown #
vertex $-1 $152 $335 #
ellipse-curve $-1 -68.349478213419815 29.442370429498403 6.281802644221151 -0.51503808176128008 0 0.85716729658548041 0.85716729658548041 0 0.51503808176128008 1 I I #
coedge $-1 $238 $238 $-1 $336 reversed $155 $-1 #
edge $-1 $337 0 $337 6.2831853071796004 $156 $338 forward 7 unknown #
vertex $-1 $159 $339 #
ellipse-curve $-1 -68.349478213419815 33.838839435936229 6.281802644221151 -0.51503808176128008 0 0.85716729658548041 0.85716729658548041 0 0.51503808176128008 1 I I #
face $-1 $-1 $175 $24 $-1 $340 reversed single #
loop $-1 $-1 $258 $160 #
plane-surface $-1 0 36.769818773561461 0 0 -1 0 0 0 -1 forward_v I I I I #
coedge $-1 $341 $256 $259 $342 forward $161 $-1 #
coedge $-1 $262 $163 $164 $250 reversed $101 $-1 #
coedge $-1 $256 $341 $163 $248 reversed $161 $-1 #
edge $-1 $263 -10.208065658111328 $343 10.208065658111328 $247 $344 forward 7 unknown #
coedge $-1 $165 $164 $341 $345 forward $65 $-1 #
edge $-1 $254 -74.883877071443834 $343 74.883877071443834 $246 $346 forward 7 unknown #
coedge $-1 $259 $258 $165 $252 reversed $243 $-1 #
edge $-1 $347 -74.883877071443834 $253 74.883877071443834 $251 $348 forward 7 unknown #
vertex $-1 $167 $349 #
vertex $-1 $265 $350 #
straight-curve $-1 74.883877071443834 0 -10.208065658111328 0 -1 0 I I #
coedge $-1 $245 $247 $168 $257 reversed $161 $-1 #
edge $-1 $260 -36.769818773561461 $263 36.769818773561461 $256 $351 forward 7 unknown #
coedge $-1 $251 $169 $174 $266 forward $243 $-1 #
coedge $-1 $169 $251 $245 $342 reversed $243 $-1 #
vertex $-1 $170 $352 #
straight-curve $-1 0 36.769818773561461 10.208065658111328 -1 0 0 I I #
coedge $-1 $171 $246 $173 $265 reversed $101 $-1 #
vertex $-1 $257 $353 #
straight-curve $-1 0 -36.769818773561461 10.208065658111328 1 0 0 I I #
edge $-1 $176 -10.208065658111328 $254 10.208065658111328 $173 $354 forward 7 unknown #
edge $-1 $177 -10.208065658111328 $253 10.208065658111328 $174 $355 forward 7 unknown #
point $-1 74.883877071443834 -36.769818773561461 10.208065658111328 #
point $-1 74.883877071443834 36.769818773561461 10.208065658111328 #
face $-1 $-1 $286 $25 $-1 $356 forward single #
loop $-1 $-1 $357 $179 #
plane-surface $-1 -68.294233137156169 -43.423046363911808 0 -1 0 0 0 0 1 forward_v I I I I #
coedge $-1 $358 $182 $276 $359 reversed $109 $-1 #
coedge $-1 $182 $358 $360 $361 reversed $109 $-1 #
coedge $-1 $190 $189 $182 $275 reversed $180 $-1 #
edge $-1 $362 -10.208065658111328 $363 10.208065658111328 $274 $364 forward 7 unknown #
coedge $-1 $184 $183 $272 $359 forward $69 $-1 #
coedge $-1 $282 $357 $183 $278 reversed $270 $-1 #
edge $-1 $280 -6.6532275903503475 $365 6.6532275903503475 $277 $366 forward 7 unknown #
edge $-1 $363 -6.6532275903503475 $191 6.6532275903503475 $189 $367 forward 7 unknown #
vertex $-1 $278 $368 #
straight-curve $-1 0 -36.769818773561461 -10.208065658111328 1 0 0 I I #
coedge $-1 $369 $277 $186 $283 reversed $270 $-1 #
edge $-1 $287 -10.208065658111328 $280 10.208065658111328 $282 $370 forward 7 unknown #
coedge $-1 $360 $187 $190 $289 forward $286 $-1 #
coedge $-1 $187 $360 $369 $371 forward $286 $-1 #
loop $-1 $-1 $187 $269 #
vertex $-1 $188 $372 #
straight-curve $-1 0 -36.769818773561461 10.208065658111328 -1 0 0 I I #
edge $-1 $192 -6.6532275903503475 $362 6.6532275903503475 $190 $373 forward 7 unknown #
point $-1 -71.602422755475942 -36.769818773561461 -10.208065658111328 #
point $-1 -71.602422755475942 -36.769818773561461 10.208065658111328 #
plane-surface $-1 74.883877071443834 0 0 -1 0 0 0 0 1 forward_v I I I I #
coedge $-1 $202 $374 $297 $375 forward $195 $-1 #
coedge $-1 $295 $197 $374 $376 reversed $117 $-1 #
coedge $-1 $197 $294 $298 $377 forward $117 $-1 #
edge $-1 $299 -99.831912572852062 $378 -91.505179022431463 $197 $379 forward 7 unknown #
coedge $-1 $199 $198 $293 $375 reversed $73 $-1 #
coedge $-1 $205 $200 $295 $377 reversed $206 $-1 #
vertex $-1 $201 $380 #
straight-curve $-1 74.88387707144382 15.951142864865883 4.32017583116086 0 1 0 I I #
coedge $-1 $374 $202 $205 $305 forward $195 $-1 #
vertex $-1 $203 $381 #
straight-curve $-1 37.441939764452954 27.034752685902067 10.208065658111323 1 0 0 I I #
straight-curve $-1 -31.017916257340644 27.034752685902067 110.22197161740741 -0.70710677298230451 0 0.70710678939079041 I I #
edge $-1 $207 27.034752685902067 $382 36.769818773561461 $205 $383 forward 7 unknown #
point $-1 74.883877071443834 27.034752685902067 10.208065658111328 #
point $-1 74.883877071443834 27.034752685902067 4.3201758311608387 #
edge $-1 $384 1 $384 0 $210 $-1 forward 7 unknown #
vertex $-1 $211 $385 #
ellipse-curve $-1 70.721124146263534 31.902285729731766 6.0453126928990786 0.70710678939079041 0 0.70710677298230451 0.70710677298230451 0 -0.70710678939079041 1 I I #
point $-1 72.647038999265448 31.902285729731766 6.5570139552453277 #
plane-surface $-1 0 0 10.208065658111328 0 0 1 1 0 0 forward_v I I I I #
coedge $-1 $222 $386 $317 $387 forward $215 $-1 #
coedge $-1 $315 $217 $386 $388 reversed $132 $-1 #
coedge $-1 $217 $314 $318 $389 reversed $132 $-1 #
edge $-1 $319 16.240912977009362 $390 31.487408927225292 $217 $391 forward 7 unknown #
coedge $-1 $219 $218 $313 $387 reversed $82 $-1 #
coedge $-1 $225 $220 $315 $389 forward $226 $-1 #
vertex $-1 $389 $392 #
straight-curve $-1 -61.815079355395767 14.721185214749202 10.208065658111328 0 1 0 I I #
coedge $-1 $386 $222 $225 $325 reversed $215 $-1 #
vertex $-1 $223 $393 #
straight-curve $-1 -74.883877071443834 22.114922085435353 65.365780282334441 0 0 1 I I #
straight-curve $-1 -74.883877071443848 22.114922085435353 2.3555396303309806 -0.85716729658548041 0 -0.51503808176128008 I I #
edge $-1 $394 -36.769818773561461 $227 -22.114922085435353 $321 $395 forward 7 unknown #
point $-1 -74.883877071443834 22.114922085435353 10.208065658111328 #
point $-1 -61.815079355395767 22.114922085435353 10.208065658111328 #
edge $-1 $396 1 $396 0 $230 $-1 forward 7 unknown #
vertex $-1 $231 $397 #
ellipse-curve $-1 -66.410607475744186 25.045901423060577 3.054979914999322 -0.51503808176128008 0 0.85716729658548041 0.85716729658548041 0 0.51503808176128008 1 I I #
point $-1 -67.492310916834342 25.045901423060577 6.7968407259824462 #
edge $-1 $398 1 $398 0 $234 $-1 forward 7 unknown #
vertex $-1 $235 $399 #
ellipse-curve $-1 -66.410607475744186 29.442370429498403 3.054979914999322 -0.51503808176128008 0 0.85716729658548041 0.85716729658548041 0 0.51503808176128008 1 I I #
point $-1 -67.492310916834342 29.442370429498403 6.7968407259824462 #
edge $-1 $400 1 $400 0 $238 $-1 forward 7 unknown #
vertex $-1 $239 $401 #
ellipse-curve $-1 -66.410607475744186 33.838839435936229 3.054979914999322 -0.51503808176128008 0 0.85716729658548041 0.85716729658548041 0 0.51503808176128008 1 I I #
point $-1 -67.492310916834342 33.838839435936229 6.7968407259824462 #
plane-surface $-1 74.883877071443834 0 0 -1 0 0 0 0 1 forward_v I I I I #
coedge $-1 $247 $245 $249 $345 reversed $161 $-1 #
edge $-1 $260 -10.208065658111328 $347 10.208065658111328 $259 $402 forward 7 unknown #
vertex $-1 $345 $403 #
straight-curve $-1 -74.883877071443834 -36.769818773561461 0 0 0 -1 I I #
edge $-1 $343 -36.769818773561461 $347 36.769818773561461 $341 $404 forward 7 unknown #
straight-curve $-1 0 -36.769818773561461 -10.208065658111328 -1 0 0 I I #
vertex $-1 $252 $405 #
straight-curve $-1 0 36.769818773561461 -10.208065658111328 1 0 0 I I #
point $-1 74.883877071443834 36.769818773561461 -10.208065658111328 #
point $-1 74.883877071443834 -36.769818773561461 -10.208065658111328 #
straight-curve $-1 -74.883877071443834 0 10.208065658111328 0 -1 0 I I #
point $-1 -74.883877071443834 36.769818773561461 10.208065658111328 #
point $-1 -74.883877071443834 -36.769818773561461 10.208065658111328 #
straight-curve $-1 74.883877071443834 -36.769818773561461 0 0 0 -1 I I #
straight-curve $-1 74.883877071443834 36.769818773561461 0 0 0 -1 I I #
plane-surface $-1 0 0 10.208065658111328 0 0 1 1 0 0 forward_v I I I I #
coedge $-1 $277 $369 $358 $406 forward $270 $-1 #
coedge $-1 $273 $272 $357 $406 reversed $109 $-1 #
edge $-1 $365 -1.6540948091598864 $363 1.6540948091598864 $272 $407 forward 7 unknown #
coedge $-1 $285 $284 $273 $361 forward $286 $-1 #
edge $-1 $362 -1.6540948091598864 $408 1.6540948091598864 $273 $409 forward 7 unknown #
vertex $-1 $289 $410 #
vertex $-1 $279 $411 #
straight-curve $-1 -71.602422755475942 -50.076273954262156 0 0 0 -1 I I #
vertex $-1 $406 $412 #
straight-curve $-1 -68.294233137156169 -43.423046363911808 -10.208065658111328 0 -1 0 I I #
straight-curve $-1 -71.602422755475942 -43.423046363911808 -10.208065658111328 0 1 0 I I #
point $-1 -68.294233137156169 -36.769818773561461 -10.208065658111328 #
coedge $-1 $357 $282 $285 $371 reversed $270 $-1 #
straight-curve $-1 -68.294233137156169 -36.769818773561461 0 0 0 -1 I I #
edge $-1 $408 -6.6532275903503475 $287 6.6532275903503475 $369 $413 forward 7 unknown #
point $-1 -68.294233137156169 -36.769818773561461 10.208065658111328 #
straight-curve $-1 -71.602422755475942 -43.423046363911808 10.208065658111328 0 -1 0 I I #
coedge $-1 $293 $301 $294 $376 forward $195 $-1 #
edge $-1 $378 -20.818675908695585 $302 -11.083609821036184 $293 $414 forward 7 unknown #
edge $-1 $382 -74.883877071443834 $378 -68.995987381122447 $294 $415 forward 7 unknown #
edge $-1 $382 -10.208065658111328 $299 -4.3201758311608529 $298 $416 forward 7 unknown #
vertex $-1 $375 $417 #
straight-curve $-1 4.2920555314028732 36.769818773561461 74.911999009292344 -0.70710677298230462 0 0.70710678939079052 I I #
point $-1 74.883877071443834 36.769818773561461 4.3201758311608529 #
point $-1 68.995987381122447 27.034752685902067 10.208065658111323 #
vertex $-1 $305 $418 #
straight-curve $-1 74.883877071443834 0 10.208065658111328 0 1 0 I I #
vertex $-1 $308 $419 #
point $-1 71.428230919245834 31.902285729731766 5.3382059035082881 #
coedge $-1 $313 $321 $314 $388 forward $215 $-1 #
edge $-1 $390 -22.048633558812252 $322 -7.3937368706861513 $313 $420 forward 7 unknown #
edge $-1 $394 -10.208065658111328 $390 -2.355539630330989 $314 $421 forward 7 unknown #
edge $-1 $319 61.815079355395767 $394 74.883877071443834 $315 $422 forward 7 unknown #
vertex $-1 $387 $423 #
straight-curve $-1 -47.893899884812605 36.769818773561461 18.572754323842108 -0.85716729658548041 0 -0.51503808176128008 I I #
point $-1 -61.815079355395767 36.769818773561454 10.208065658111328 #
point $-1 -74.883877071443834 22.114922085435353 2.355539630330989 #
vertex $-1 $389 $424 #
straight-curve $-1 -74.883877071443834 0 10.208065658111328 0 -1 0 I I #
vertex $-1 $328 $425 #
point $-1 -65.553440179158713 25.045901423060577 3.5700179967606021 #
vertex $-1 $332 $426 #
point $-1 -65.553440179158713 29.442370429498403 3.5700179967606021 #
vertex $-1 $336 $427 #
point $-1 -65.553440179158713 33.838839435936229 3.5700179967606021 #
straight-curve $-1 -74.883877071443834 36.769818773561461 0 0 0 -1 I I #
point $-1 -74.883877071443834 -36.769818773561461 -10.208065658111328 #
straight-curve $-1 -74.883877071443834 0 -10.208065658111328 0 1 0 I I #
point $-1 -74.883877071443834 36.769818773561461 -10.208065658111328 #
edge $-1 $408 -10.208065658111328 $365 10.208065658111328 $357 $428 forward 7 unknown #
straight-curve $-1 -69.948327946316056 -50.076273954262156 -10.208065658111328 -1 0 0 I I #
vertex $-1 $371 $429 #
straight-curve $-1 -69.948327946316056 -50.076273954262156 10.208065658111328 1 0 0 I I #
point $-1 -71.602422755475942 -50.076273954262156 10.208065658111328 #
point $-1 -71.602422755475942 -50.076273954262156 -10.208065658111328 #
point $-1 -68.294233137156169 -50.076273954262156 -10.208065658111328 #
straight-curve $-1 -68.294233137156169 -43.423046363911808 10.208065658111328 0 1 0 I I #
straight-curve $-1 68.995987381122461 15.951142864865883 10.208065658111323 0 -1 0 I I #
straight-curve $-1 0 36.769818773561461 10.208065658111328 -1 0 0 I I #
straight-curve $-1 74.883877071443834 36.769818773561461 0 0 0 -1 I I #
point $-1 68.995987381122447 36.769818773561468 10.208065658111323 #
point $-1 74.883877071443834 36.769818773561461 10.208065658111328 #
point $-1 70.014017356872742 31.902285729731766 5.3382059199167733 #
straight-curve $-1 -74.883877071443834 14.721185214749202 2.3555396303309828 0 -1 0 I I #
straight-curve $-1 -74.883877071443834 36.769818773561461 0 0 0 -1 I I #
straight-curve $-1 0 36.769818773561461 10.208065658111328 -1 0 0 I I #
point $-1 -74.883877071443834 36.769818773561454 2.355539630330989 #
point $-1 -74.883877071443834 36.769818773561461 10.208065658111328 #
point $-1 -65.89556939398291 25.045901423060577 2.1978126184138418 #
point $-1 -65.89556939398291 29.442370429498403 2.1978126184138418 #
point $-1 -65.89556939398291 33.838839435936229 2.1978126184138418 #
straight-curve $-1 -68.294233137156169 -50.076273954262156 0 0 0 -1 I I #
point $-1 -68.294233137156169 -50.076273954262156 10.208065658111328 #
End-of-ACIS-data 