500 0 9 0           
7 Unknown 11 ACIS 5.0 NT 24 Thu Mar 25 22:04:24 1999 
-1 9.9999999999999995e-007 1e-010 
body $-1 $9 $-1 $10 #
body $-1 $11 $-1 $12 #
body $-1 $13 $-1 $14 #
body $-1 $15 $-1 $16 #
body $-1 $17 $-1 $18 #
body $-1 $19 $-1 $20 #
body $-1 $21 $-1 $22 #
body $-1 $23 $-1 $24 #
body $-1 $25 $-1 $26 #
lump $-1 $-1 $27 $0 #
transform $-1 1 0 0 0 1 0 0 0 1 50.928067873165077 26.213181820577582 13.050671802367455 1 rotate no_reflect no_shear #
lump $-1 $-1 $28 $1 #
transform $-1 1 0 0 0 1 0 0 0 1 50.928067873165077 26.213181820577582 13.050671802367455 1 rotate no_reflect no_shear #
lump $-1 $-1 $29 $2 #
transform $-1 1 0 0 0 1 0 0 0 1 50.928067873165077 26.213181820577582 13.050671802367455 1 rotate no_reflect no_shear #
lump $-1 $-1 $30 $3 #
transform $-1 1 0 0 0 1 0 0 0 1 50.928067873165077 26.213181820577582 13.050671802367455 1 rotate no_reflect no_shear #
lump $-1 $-1 $31 $4 #
transform $-1 1 0 0 0 1 0 0 0 1 50.928067873165077 26.213181820577582 13.050671802367455 1 rotate no_reflect no_shear #
lump $-1 $-1 $32 $5 #
transform $-1 1 0 0 0 1 0 0 0 1 50.928067873165077 26.213181820577582 13.050671802367455 1 rotate no_reflect no_shear #
lump $-1 $-1 $33 $6 #
transform $-1 1 0 0 0 1 0 0 0 1 50.928067873165077 26.213181820577582 13.050671802367455 1 rotate no_reflect no_shear #
lump $-1 $-1 $34 $7 #
transform $-1 1 0 0 0 1 0 0 0 1 50.928067873165077 26.213181820577582 13.050671802367455 1 rotate no_reflect no_shear #
lump $-1 $-1 $35 $8 #
transform $-1 1 0 0 0 1 0 0 0 1 50.928067873165077 26.213181820577582 13.050671802367455 1 rotate no_reflect no_shear #
shell $-1 $-1 $-1 $36 $-1 $9 #
shell $-1 $-1 $-1 $37 $-1 $11 #
shell $-1 $-1 $-1 $38 $-1 $13 #
shell $-1 $-1 $-1 $39 $-1 $15 #
shell $-1 $-1 $-1 $40 $-1 $17 #
shell $-1 $-1 $-1 $41 $-1 $19 #
shell $-1 $-1 $-1 $42 $-1 $21 #
shell $-1 $-1 $-1 $43 $-1 $23 #
shell $-1 $-1 $-1 $44 $-1 $25 #
face $-1 $45 $46 $27 $-1 $47 forward single #
face $-1 $48 $49 $28 $-1 $50 forward single #
face $-1 $51 $52 $29 $-1 $53 forward single #
face $-1 $54 $55 $30 $-1 $56 reversed single #
face $-1 $57 $58 $31 $-1 $59 forward single #
face $-1 $60 $61 $32 $-1 $62 forward single #
face $-1 $63 $64 $33 $-1 $65 reversed single #
face $-1 $66 $67 $34 $-1 $68 forward single #
face $-1 $69 $70 $35 $-1 $71 forward single #
face $-1 $72 $73 $27 $-1 $74 reversed single #
loop $-1 $-1 $75 $36 #
plane-surface $-1 0 0 13.050671802367455 0 0 1 1 0 0 forward_v I I I I #
face $-1 $76 $77 $28 $-1 $78 reversed single #
loop $-1 $-1 $79 $37 #
plane-surface $-1 -50.928067873165077 0 0 1 0 0 0 0 -1 forward_v I I I I #
face $-1 $80 $81 $29 $-1 $82 reversed single #
loop $-1 $-1 $83 $38 #
plane-surface $-1 50.928067873165077 0 0 -1 0 0 0 0 1 forward_v I I I I #
face $-1 $84 $85 $30 $-1 $86 reversed single #
loop $-1 $-1 $87 $39 #
plane-surface $-1 10.008581629668384 51.524120460892924 121.6125273952626 1 0 0 0 -0.64278761758704617 -0.76604443648966558 forward_v I I I I #
face $-1 $88 $89 $31 $-1 $90 forward single #
loop $-1 $91 $92 $40 #
cone-surface $-1 14.898594405292158 23.133334886267601 10.045023146512824 0 -0.64278761758704617 -0.76604443648966558 1 0 0 1 I I 0 1 1 forward I I I I #
face $-1 $93 $94 $32 $-1 $95 forward single #
loop $-1 $96 $97 $41 #
cone-surface $-1 22.233613568727804 23.133334886267601 10.045023146512824 0 -0.64278761758704617 -0.76604443648966558 1 0 0 1 I I 0 1 1 forward I I I I #
face $-1 $98 $99 $33 $-1 $100 reversed single #
loop $-1 $-1 $101 $42 #
plane-surface $-1 27.123626344351578 -91.68504465358393 87.913510011612331 -1 0 0 0 -0.64278761758704617 0.76604443648966558 forward_v I I I I #
face $-1 $102 $103 $34 $-1 $104 forward single #
loop $-1 $105 $106 $43 #
cone-surface $-1 14.898594405292158 -23.133334886267601 10.04502314651282 0 0.64278761758704617 -0.76604443648966558 1 0 0 1 I I 0 1 1 forward I I I I #
face $-1 $107 $108 $35 $-1 $109 forward single #
loop $-1 $110 $111 $44 #
cone-surface $-1 22.233613568727804 -23.133334886267601 10.04502314651282 0 0.64278761758704617 -0.76604443648966558 1 0 0 1 I I 0 1 1 forward I I I I #
face $-1 $112 $113 $27 $-1 $114 reversed single #
loop $-1 $-1 $115 $45 #
plane-surface $-1 0 0 -13.050671802367455 0 0 1 1 0 0 forward_v I I I I #
coedge $-1 $116 $117 $118 $119 forward $46 $-1 #
face $-1 $120 $121 $28 $-1 $122 forward single #
loop $-1 $-1 $123 $48 #
plane-surface $-1 0 26.213181820577582 0 0 -1 0 0 0 -1 forward_v I I I I #
coedge $-1 $124 $125 $126 $127 forward $49 $-1 #
face $-1 $128 $129 $29 $-1 $130 forward single #
loop $-1 $-1 $131 $51 #
plane-surface $-1 0 26.213181820577582 0 0 -1 0 0 0 -1 forward_v I I I I #
coedge $-1 $132 $133 $134 $135 forward $52 $-1 #
face $-1 $136 $137 $30 $-1 $138 reversed single #
loop $-1 $-1 $139 $54 #
plane-surface $-1 18.566103987009981 -13.947742372113403 43.58620128445024 0 0.64278761758704617 0.76604443648966558 1 0 0 forward_v I I I I #
coedge $-1 $140 $141 $142 $143 reversed $55 $-1 #
face $-1 $-1 $144 $31 $-1 $145 forward single #
loop $-1 $146 $147 $57 #
cone-surface $-1 14.898594405292158 21.617143139592507 8.2380962231971022 0 -0.64278761758704617 -0.76604443648966558 0.5 0 0 1 I I -0.70710678118654746 0.70710678118654746 0.5 forward I I I I #
loop $-1 $-1 $148 $40 #
coedge $-1 $92 $92 $149 $150 reversed $58 $-1 #
face $-1 $-1 $151 $32 $-1 $152 forward single #
loop $-1 $153 $154 $60 #
cone-surface $-1 22.233613568727804 21.617143139592507 8.2380962231971022 0 -0.64278761758704617 -0.76604443648966558 0.5 0 0 1 I I -0.70710678118654746 0.70710678118654746 0.5 forward I I I I #
loop $-1 $-1 $155 $41 #
coedge $-1 $97 $97 $156 $157 reversed $61 $-1 #
face $-1 $158 $159 $33 $-1 $160 reversed single #
loop $-1 $-1 $161 $63 #
plane-surface $-1 18.566103987009981 -26.213181820577603 9.8871839007999682 0 -0.64278761758704617 0.76604443648966558 1 0 0 forward_v I I I I #
coedge $-1 $162 $163 $164 $165 reversed $64 $-1 #
face $-1 $-1 $166 $34 $-1 $167 forward single #
loop $-1 $168 $169 $66 #
cone-surface $-1 14.898594405292158 -21.617143139592507 8.2380962231970987 0 0.64278761758704617 -0.76604443648966558 0.5 0 0 1 I I -0.70710678118654746 0.70710678118654746 0.5 forward I I I I #
loop $-1 $-1 $170 $43 #
coedge $-1 $106 $106 $171 $172 reversed $67 $-1 #
face $-1 $-1 $173 $35 $-1 $174 forward single #
loop $-1 $175 $176 $69 #
cone-surface $-1 22.233613568727804 -21.617143139592507 8.2380962231970987 0 0.64278761758704617 -0.76604443648966558 0.5 0 0 1 I I -0.70710678118654746 0.70710678118654746 0.5 forward I I I I #
loop $-1 $-1 $177 $44 #
coedge $-1 $111 $111 $178 $179 reversed $70 $-1 #
face $-1 $180 $181 $27 $-1 $182 reversed single #
loop $-1 $-1 $183 $72 #
plane-surface $-1 0 -26.213181820577582 0 0 1 0 0 0 1 forward_v I I I I #
coedge $-1 $184 $185 $186 $187 forward $73 $-1 #
coedge $-1 $188 $75 $189 $190 forward $46 $-1 #
coedge $-1 $75 $188 $191 $192 forward $46 $-1 #
coedge $-1 $193 $194 $75 $119 reversed $195 $-1 #
edge $-1 $196 -26.213181820577582 $197 26.213181820577582 $118 $198 forward 7 unknown #
face $-1 $199 $200 $28 $-1 $201 reversed single #
loop $-1 $-1 $126 $76 #
plane-surface $-1 -56.125522711826846 0 -8.7707588089936284 0 0 1 1 0 0 forward_v I I I I #
coedge $-1 $202 $203 $125 $204 forward $77 $-1 #
coedge $-1 $205 $79 $206 $207 reversed $49 $-1 #
coedge $-1 $79 $205 $123 $204 reversed $49 $-1 #
coedge $-1 $208 $209 $79 $127 reversed $121 $-1 #
edge $-1 $210 -26.213181820577582 $211 26.213181820577582 $126 $212 forward 7 unknown #
face $-1 $213 $214 $29 $-1 $215 reversed single #
loop $-1 $-1 $216 $80 #
plane-surface $-1 56.125522711826846 0 -8.7707588089936284 0 0 1 1 0 0 forward_v I I I I #
coedge $-1 $217 $218 $132 $219 forward $81 $-1 #
coedge $-1 $220 $83 $131 $219 reversed $52 $-1 #
coedge $-1 $83 $220 $221 $222 reversed $52 $-1 #
coedge $-1 $223 $224 $83 $135 reversed $129 $-1 #
edge $-1 $225 -26.213181820577582 $226 26.213181820577582 $134 $227 forward 7 unknown #
face $-1 $228 $229 $30 $-1 $230 reversed single #
loop $-1 $-1 $231 $84 #
plane-surface $-1 27.123626344351578 51.524120460892924 121.6125273952626 -1 0 0 0 0.64278761758704617 0.76604443648966558 forward_v I I I I #
coedge $-1 $232 $233 $234 $235 reversed $85 $-1 #
coedge $-1 $141 $87 $236 $237 reversed $55 $-1 #
coedge $-1 $87 $140 $232 $238 reversed $55 $-1 #
coedge $-1 $234 $239 $87 $143 forward $240 $-1 #
edge $-1 $241 -0.45112159013111963 $242 3.3189764027256778 $142 $243 forward 7 unknown #
loop $-1 $-1 $149 $88 #
plane-surface $-1 18.566103987009981 -13.947742372113403 43.58620128445024 0 0.64278761758704617 0.76604443648966558 1 0 0 forward_v I I I I #
loop $-1 $-1 $244 $57 #
coedge $-1 $147 $147 $148 $245 reversed $89 $-1 #
coedge $-1 $148 $148 $147 $245 forward $91 $-1 #
coedge $-1 $149 $149 $92 $150 forward $144 $-1 #
edge $-1 $246 -2.4555087403448582e-015 $246 6.2831853071795978 $149 $247 forward 7 unknown #
loop $-1 $-1 $156 $93 #
plane-surface $-1 18.566103987009981 -13.947742372113403 43.58620128445024 0 0.64278761758704617 0.76604443648966558 1 0 0 forward_v I I I I #
loop $-1 $-1 $248 $60 #
coedge $-1 $154 $154 $155 $249 reversed $94 $-1 #
coedge $-1 $155 $155 $154 $249 forward $96 $-1 #
coedge $-1 $156 $156 $97 $157 forward $151 $-1 #
edge $-1 $250 -2.4555087403448582e-015 $250 6.2831853071795978 $156 $251 forward 7 unknown #
face $-1 $252 $253 $33 $-1 $254 forward single #
loop $-1 $-1 $255 $98 #
plane-surface $-1 10.008581629668384 -91.68504465358393 87.913510011612331 1 0 0 0 0.64278761758704617 -0.76604443648966558 forward_v I I I I #
coedge $-1 $256 $257 $258 $259 reversed $99 $-1 #
coedge $-1 $163 $101 $260 $261 reversed $64 $-1 #
coedge $-1 $101 $162 $256 $262 reversed $64 $-1 #
coedge $-1 $258 $263 $101 $165 forward $253 $-1 #
edge $-1 $264 19.629340506214383 $265 23.399438499071184 $164 $266 forward 7 unknown #
loop $-1 $-1 $171 $102 #
plane-surface $-1 18.566103987009981 -26.213181820577603 9.8871839007999682 0 -0.64278761758704617 0.76604443648966558 1 0 0 forward_v I I I I #
loop $-1 $-1 $267 $66 #
coedge $-1 $169 $169 $170 $268 reversed $103 $-1 #
coedge $-1 $170 $170 $169 $268 forward $105 $-1 #
coedge $-1 $171 $171 $106 $172 forward $166 $-1 #
edge $-1 $269 1.3136885595623172e-015 $269 6.2831853071796013 $171 $270 forward 7 unknown #
loop $-1 $-1 $178 $107 #
plane-surface $-1 18.566103987009981 -26.213181820577603 9.8871839007999682 0 -0.64278761758704617 0.76604443648966558 1 0 0 forward_v I I I I #
loop $-1 $-1 $271 $69 #
coedge $-1 $176 $176 $177 $272 reversed $108 $-1 #
coedge $-1 $177 $177 $176 $272 forward $110 $-1 #
coedge $-1 $178 $178 $111 $179 forward $173 $-1 #
edge $-1 $273 1.3136885595623172e-015 $273 6.2831853071796013 $178 $274 forward 7 unknown #
face $-1 $275 $276 $27 $-1 $277 reversed single #
loop $-1 $-1 $278 $112 #
plane-surface $-1 -50.928067873165077 0 0 1 0 0 0 0 -1 forward_v I I I I #
coedge $-1 $279 $191 $278 $280 forward $113 $-1 #
coedge $-1 $281 $115 $279 $282 forward $73 $-1 #
coedge $-1 $115 $281 $283 $284 forward $73 $-1 #
coedge $-1 $194 $193 $115 $187 reversed $195 $-1 #
edge $-1 $285 -26.213181820577582 $286 26.213181820577582 $186 $287 forward 7 unknown #
coedge $-1 $117 $116 $288 $289 forward $46 $-1 #
coedge $-1 $290 $291 $116 $190 reversed $276 $-1 #
edge $-1 $197 -50.928067873165077 $292 50.928067873165077 $189 $293 forward 7 unknown #
coedge $-1 $183 $294 $117 $192 reversed $113 $-1 #
edge $-1 $295 -50.928067873165077 $196 50.928067873165077 $191 $296 forward 7 unknown #
coedge $-1 $186 $118 $294 $297 forward $195 $-1 #
coedge $-1 $118 $186 $290 $298 reversed $195 $-1 #
loop $-1 $-1 $194 $275 #
vertex $-1 $119 $299 #
vertex $-1 $119 $300 #
straight-curve $-1 50.928067873165077 0 13.050671802367455 0 1 0 I I #
face $-1 $301 $302 $28 $-1 $303 reversed single #
loop $-1 $-1 $304 $120 #
plane-surface $-1 -61.322977550488616 0 -10.910715305680542 1 0 0 0 0 -1 forward_v I I I I #
coedge $-1 $305 $123 $306 $307 reversed $77 $-1 #
coedge $-1 $123 $305 $208 $308 reversed $77 $-1 #
edge $-1 $210 8.7707588089936284 $309 13.050671802367455 $123 $310 forward 7 unknown #
coedge $-1 $125 $124 $311 $312 reversed $49 $-1 #
coedge $-1 $313 $314 $124 $207 forward $315 $-1 #
edge $-1 $316 -13.050671802367455 $211 -8.7707588089936284 $206 $317 forward 7 unknown #
coedge $-1 $318 $126 $203 $308 forward $121 $-1 #
coedge $-1 $126 $318 $313 $319 forward $121 $-1 #
vertex $-1 $204 $320 #
vertex $-1 $319 $321 #
straight-curve $-1 -50.928067873165077 0 -8.7707588089936284 0 -1 0 I I #
face $-1 $322 $323 $29 $-1 $324 reversed single #
loop $-1 $-1 $325 $128 #
plane-surface $-1 61.322977550488616 0 -10.910715305680542 -1 0 0 0 0 1 forward_v I I I I #
coedge $-1 $224 $223 $326 $327 forward $129 $-1 #
coedge $-1 $328 $131 $224 $329 reversed $81 $-1 #
coedge $-1 $131 $328 $330 $331 reversed $81 $-1 #
edge $-1 $332 -13.050671802367455 $226 -8.7707588089936284 $131 $333 forward 7 unknown #
coedge $-1 $133 $132 $334 $335 reversed $52 $-1 #
coedge $-1 $336 $337 $133 $222 forward $338 $-1 #
edge $-1 $225 8.7707588089936284 $339 13.050671802367455 $221 $340 forward 7 unknown #
coedge $-1 $216 $134 $337 $341 forward $129 $-1 #
coedge $-1 $134 $216 $217 $329 forward $129 $-1 #
vertex $-1 $222 $342 #
vertex $-1 $329 $343 #
straight-curve $-1 50.928067873165077 0 -8.7707588089936284 0 1 0 I I #
face $-1 $-1 $240 $30 $-1 $344 forward single #
loop $-1 $-1 $345 $136 #
plane-surface $-1 0 26.213181820577582 0 0 -1 0 0 0 -1 forward_v I I I I #
coedge $-1 $346 $347 $348 $349 reversed $137 $-1 #
coedge $-1 $350 $139 $141 $238 forward $85 $-1 #
coedge $-1 $139 $350 $346 $351 forward $85 $-1 #
coedge $-1 $348 $142 $139 $235 forward $240 $-1 #
edge $-1 $242 0.72552963616339383 $352 17.840574350846587 $234 $353 forward 7 unknown #
coedge $-1 $354 $355 $140 $237 forward $229 $-1 #
edge $-1 $356 -50.919079796831312 $241 -47.755591895263848 $236 $357 forward 7 unknown #
edge $-1 $242 47.50485019719234 $356 52.426363641155142 $141 $358 forward 7 unknown #
coedge $-1 $142 $348 $354 $359 forward $240 $-1 #
loop $-1 $-1 $348 $228 #
vertex $-1 $237 $360 #
vertex $-1 $143 $361 #
straight-curve $-1 10.008581629668384 25.762060230446462 13.050671802367454 0 -1 0 I I #
coedge $-1 $244 $244 $-1 $362 reversed $146 $-1 #
edge $-1 $363 0 $363 6.2831853071796004 $147 $364 forward 7 unknown #
vertex $-1 $150 $365 #
ellipse-curve $-1 14.898594405292158 24.328132824149183 11.468927851583723 0 0.64278761758704617 0.76604443648966558 1 0 0 1 I I #
coedge $-1 $248 $248 $-1 $366 reversed $153 $-1 #
edge $-1 $367 0 $367 6.2831853071796004 $154 $368 forward 7 unknown #
vertex $-1 $157 $369 #
ellipse-curve $-1 22.233613568727804 24.328132824149183 11.468927851583723 0 0.64278761758704617 0.76604443648966558 1 0 0 1 I I #
face $-1 $-1 $370 $33 $-1 $371 reversed single #
loop $-1 $-1 $164 $158 #
plane-surface $-1 0 0 13.050671802367455 0 0 1 1 0 0 forward_v I I I I #
coedge $-1 $372 $373 $374 $375 reversed $159 $-1 #
coedge $-1 $376 $161 $163 $262 forward $99 $-1 #
coedge $-1 $161 $376 $372 $377 forward $99 $-1 #
coedge $-1 $374 $164 $161 $259 forward $253 $-1 #
edge $-1 $265 -17.840574350846587 $378 -0.72552963616339383 $258 $379 forward 7 unknown #
coedge $-1 $380 $381 $162 $261 forward $370 $-1 #
edge $-1 $382 -34.069571105006176 $264 -30.906083203438712 $260 $383 forward 7 unknown #
edge $-1 $265 -4.9215134439628336 $382 -2.7747421096340558e-014 $163 $384 forward 7 unknown #
coedge $-1 $164 $374 $380 $385 forward $253 $-1 #
vertex $-1 $261 $386 #
vertex $-1 $165 $387 #
straight-curve $-1 27.123626344351578 -45.842522326791965 13.050671802367454 0 1 0 I I #
coedge $-1 $267 $267 $-1 $388 reversed $168 $-1 #
edge $-1 $389 0 $389 6.2831853071796004 $169 $390 forward 7 unknown #
vertex $-1 $172 $391 #
ellipse-curve $-1 14.898594405292158 -24.328132824149183 11.468927851583722 0 -0.64278761758704617 0.76604443648966558 1 0 0 1 I I #
coedge $-1 $271 $271 $-1 $392 reversed $175 $-1 #
edge $-1 $393 0 $393 6.2831853071796004 $176 $394 forward 7 unknown #
vertex $-1 $179 $395 #
ellipse-curve $-1 22.233613568727804 -24.328132824149183 11.468927851583722 0 -0.64278761758704617 0.76604443648966558 1 0 0 1 I I #
face $-1 $-1 $195 $27 $-1 $396 reversed single #
loop $-1 $-1 $290 $180 #
plane-surface $-1 0 26.213181820577582 0 0 -1 0 0 0 -1 forward_v I I I I #
coedge $-1 $288 $397 $183 $280 reversed $181 $-1 #
coedge $-1 $294 $183 $184 $282 reversed $113 $-1 #
edge $-1 $295 -13.050671802367455 $398 13.050671802367455 $278 $399 forward 7 unknown #
coedge $-1 $185 $184 $397 $400 forward $73 $-1 #
edge $-1 $286 -50.928067873165077 $398 50.928067873165077 $279 $401 forward 7 unknown #
coedge $-1 $291 $290 $185 $284 reversed $276 $-1 #
edge $-1 $402 -50.928067873165077 $285 50.928067873165077 $283 $403 forward 7 unknown #
vertex $-1 $187 $404 #
vertex $-1 $297 $405 #
straight-curve $-1 50.928067873165077 0 -13.050671802367455 0 -1 0 I I #
coedge $-1 $406 $278 $188 $289 reversed $181 $-1 #
edge $-1 $292 -26.213181820577582 $295 26.213181820577582 $288 $407 forward 7 unknown #
coedge $-1 $283 $189 $194 $298 forward $276 $-1 #
coedge $-1 $189 $283 $406 $408 reversed $276 $-1 #
vertex $-1 $190 $409 #
straight-curve $-1 0 26.213181820577582 13.050671802367455 -1 0 0 I I #
coedge $-1 $191 $279 $193 $297 reversed $113 $-1 #
vertex $-1 $289 $410 #
straight-curve $-1 0 -26.213181820577582 13.050671802367455 1 0 0 I I #
edge $-1 $196 -13.050671802367455 $286 13.050671802367455 $193 $411 forward 7 unknown #
edge $-1 $197 -13.050671802367455 $285 13.050671802367455 $194 $412 forward 7 unknown #
point $-1 50.928067873165077 -26.213181820577582 13.050671802367455 #
point $-1 50.928067873165077 26.213181820577582 13.050671802367455 #
face $-1 $-1 $315 $28 $-1 $413 reversed single #
loop $-1 $-1 $311 $199 #
plane-surface $-1 0 0 -13.050671802367455 0 0 1 1 0 0 forward_v I I I I #
coedge $-1 $414 $415 $305 $416 forward $200 $-1 #
coedge $-1 $203 $202 $304 $416 reversed $77 $-1 #
coedge $-1 $311 $417 $202 $307 forward $302 $-1 #
edge $-1 $418 -61.322977550488616 $309 -50.928067873165077 $202 $419 forward 7 unknown #
edge $-1 $210 -5.1974548386617698 $420 5.1974548386617698 $203 $421 forward 7 unknown #
vertex $-1 $204 $422 #
straight-curve $-1 -50.928067873165077 26.213181820577582 0 0 0 -1 I I #
coedge $-1 $423 $306 $205 $312 forward $302 $-1 #
edge $-1 $309 -26.213181820577582 $316 26.213181820577582 $311 $424 forward 7 unknown #
coedge $-1 $425 $206 $209 $319 reversed $315 $-1 #
coedge $-1 $206 $425 $423 $426 reversed $315 $-1 #
loop $-1 $-1 $206 $301 #
vertex $-1 $426 $427 #
straight-curve $-1 -50.928067873165077 -26.213181820577582 0 0 0 1 I I #
coedge $-1 $209 $208 $415 $428 forward $121 $-1 #
edge $-1 $429 -5.1974548386617698 $211 5.1974548386617698 $313 $430 forward 7 unknown #
point $-1 -50.928067873165077 26.213181820577582 -8.7707588089936284 #
point $-1 -50.928067873165077 -26.213181820577582 -8.7707588089936284 #
face $-1 $-1 $338 $29 $-1 $431 reversed single #
loop $-1 $-1 $334 $213 #
plane-surface $-1 0 0 -13.050671802367455 0 0 1 1 0 0 forward_v I I I I #
coedge $-1 $432 $326 $433 $434 forward $214 $-1 #
coedge $-1 $325 $435 $216 $327 reversed $214 $-1 #
edge $-1 $436 -26.213181820577582 $437 26.213181820577582 $326 $438 forward 7 unknown #
coedge $-1 $218 $217 $435 $439 forward $81 $-1 #
edge $-1 $437 -5.1974548386617698 $226 5.1974548386617698 $217 $440 forward 7 unknown #
coedge $-1 $441 $334 $218 $331 forward $323 $-1 #
edge $-1 $332 -5.1974548386617698 $442 5.1974548386617698 $218 $443 forward 7 unknown #
vertex $-1 $331 $444 #
straight-curve $-1 50.928067873165077 26.213181820577582 0 0 0 1 I I #
coedge $-1 $330 $445 $220 $335 forward $323 $-1 #
edge $-1 $339 -26.213181820577582 $332 26.213181820577582 $334 $446 forward 7 unknown #
coedge $-1 $433 $221 $445 $447 reversed $338 $-1 #
coedge $-1 $221 $433 $223 $341 reversed $338 $-1 #
loop $-1 $-1 $221 $322 #
vertex $-1 $222 $448 #
straight-curve $-1 50.928067873165077 -26.213181820577582 0 0 0 -1 I I #
edge $-1 $225 -5.1974548386617698 $436 5.1974548386617698 $337 $449 forward 7 unknown #
point $-1 50.928067873165077 -26.213181820577582 -8.7707588089936284 #
point $-1 50.928067873165077 26.213181820577582 -8.7707588089936284 #
plane-surface $-1 0 0 13.050671802367455 0 0 1 1 0 0 forward_v I I I I #
coedge $-1 $355 $354 $347 $450 forward $229 $-1 #
coedge $-1 $347 $231 $233 $351 reversed $137 $-1 #
coedge $-1 $231 $346 $345 $450 reversed $137 $-1 #
coedge $-1 $239 $234 $231 $349 forward $240 $-1 #
edge $-1 $352 -3.3189764027256778 $451 0.45112159013111963 $348 $452 forward 7 unknown #
coedge $-1 $233 $232 $355 $453 reversed $85 $-1 #
edge $-1 $454 -52.426363641155142 $352 -47.50485019719234 $346 $455 forward 7 unknown #
vertex $-1 $235 $456 #
straight-curve $-1 9.2830519935049907 22.443083827720777 13.050671802367457 1 0 0 I I #
coedge $-1 $345 $236 $239 $359 reversed $229 $-1 #
coedge $-1 $236 $345 $350 $453 forward $229 $-1 #
vertex $-1 $237 $457 #
straight-curve $-1 10.008581629668384 26.213181820577582 60.806263697631302 0 0 1 I I #
straight-curve $-1 10.008581629668384 -13.947742372113403 43.58620128445024 0 0.76604443648966558 -0.64278761758704617 I I #
edge $-1 $451 -27.123626344351578 $241 -10.008581629668384 $354 $458 forward 7 unknown #
point $-1 10.008581629668384 26.213181820577582 13.050671802367455 #
point $-1 10.008581629668384 22.443083827720784 13.050671802367457 #
edge $-1 $459 1 $459 0 $244 $-1 forward 7 unknown #
vertex $-1 $245 $460 #
ellipse-curve $-1 14.898594405292158 21.93853694838603 8.6211184414419346 0 0.64278761758704617 0.76604443648966558 1 0 0 1 I I #
point $-1 15.898594405292158 24.328132824149172 11.468927851583715 #
edge $-1 $461 1 $461 0 $248 $-1 forward 7 unknown #
vertex $-1 $249 $462 #
ellipse-curve $-1 22.233613568727804 21.93853694838603 8.6211184414419346 0 0.64278761758704617 0.76604443648966558 1 0 0 1 I I #
point $-1 23.233613568727804 24.328132824149172 11.468927851583715 #
loop $-1 $-1 $260 $252 #
plane-surface $-1 0 -26.213181820577582 0 0 1 0 0 0 1 forward_v I I I I #
coedge $-1 $373 $255 $257 $377 reversed $159 $-1 #
coedge $-1 $255 $372 $463 $464 reversed $159 $-1 #
coedge $-1 $263 $258 $255 $375 forward $253 $-1 #
edge $-1 $378 -23.399438499071184 $465 -19.629340506214383 $374 $466 forward 7 unknown #
coedge $-1 $257 $256 $381 $467 reversed $99 $-1 #
edge $-1 $468 2.7747421096340558e-014 $378 4.9215134439628336 $372 $469 forward 7 unknown #
vertex $-1 $259 $470 #
straight-curve $-1 9.2830519935049907 -22.443083827720777 13.050671802367455 -1 0 0 I I #
coedge $-1 $463 $260 $263 $385 reversed $370 $-1 #
coedge $-1 $260 $463 $376 $467 forward $370 $-1 #
vertex $-1 $261 $471 #
straight-curve $-1 27.123626344351578 -26.213181820577582 43.956755005806166 0 0 1 I I #
straight-curve $-1 27.123626344351578 -26.213181820577603 9.8871839007999682 0 -0.76604443648966558 -0.64278761758704617 I I #
edge $-1 $465 10.008581629668384 $264 27.123626344351578 $380 $472 forward 7 unknown #
point $-1 27.123626344351578 -26.213181820577582 13.050671802367455 #
point $-1 27.123626344351578 -22.44308382772078 13.050671802367455 #
edge $-1 $473 1 $473 0 $267 $-1 forward 7 unknown #
vertex $-1 $268 $474 #
ellipse-curve $-1 14.898594405292158 -21.93853694838603 8.6211184414419311 0 -0.64278761758704617 0.76604443648966558 1 0 0 1 I I #
point $-1 15.898594405292158 -24.328132824149172 11.468927851583711 #
edge $-1 $475 1 $475 0 $271 $-1 forward 7 unknown #
vertex $-1 $272 $476 #
ellipse-curve $-1 22.233613568727804 -21.93853694838603 8.6211184414419311 0 -0.64278761758704617 0.76604443648966558 1 0 0 1 I I #
point $-1 23.233613568727804 -24.328132824149172 11.468927851583711 #
plane-surface $-1 50.928067873165077 0 0 -1 0 0 0 0 1 forward_v I I I I #
coedge $-1 $278 $406 $281 $400 reversed $181 $-1 #
vertex $-1 $400 $477 #
straight-curve $-1 -50.928067873165077 -26.213181820577582 0 0 0 -1 I I #
edge $-1 $398 -26.213181820577582 $402 26.213181820577582 $397 $478 forward 7 unknown #
straight-curve $-1 0 -26.213181820577582 -13.050671802367455 -1 0 0 I I #
vertex $-1 $284 $479 #
straight-curve $-1 0 26.213181820577582 -13.050671802367455 1 0 0 I I #
point $-1 50.928067873165077 26.213181820577582 -13.050671802367455 #
point $-1 50.928067873165077 -26.213181820577582 -13.050671802367455 #
coedge $-1 $397 $288 $291 $408 forward $181 $-1 #
straight-curve $-1 -50.928067873165077 0 13.050671802367455 0 -1 0 I I #
edge $-1 $292 -13.050671802367455 $402 13.050671802367455 $291 $480 forward 7 unknown #
point $-1 -50.928067873165077 26.213181820577582 13.050671802367455 #
point $-1 -50.928067873165077 -26.213181820577582 13.050671802367455 #
straight-curve $-1 50.928067873165077 -26.213181820577582 0 0 0 -1 I I #
straight-curve $-1 50.928067873165077 26.213181820577582 0 0 0 -1 I I #
plane-surface $-1 0 -26.213181820577582 0 0 1 0 0 0 1 forward_v I I I I #
coedge $-1 $481 $304 $417 $482 reversed $200 $-1 #
coedge $-1 $304 $481 $318 $428 reversed $200 $-1 #
edge $-1 $420 -2.1399564966869136 $418 2.1399564966869136 $305 $483 forward 7 unknown #
coedge $-1 $306 $423 $414 $482 forward $302 $-1 #
vertex $-1 $307 $484 #
straight-curve $-1 0 26.213181820577582 -13.050671802367455 1 0 0 I I #
vertex $-1 $308 $485 #
straight-curve $-1 -56.125522711826846 26.213181820577582 -8.7707588089936284 -1 0 0 I I #
point $-1 -50.928067873165077 26.213181820577582 -13.050671802367455 #
coedge $-1 $417 $311 $314 $426 forward $302 $-1 #
straight-curve $-1 -50.928067873165077 0 -13.050671802367455 0 -1 0 I I #
coedge $-1 $314 $313 $481 $486 forward $315 $-1 #
edge $-1 $316 -5.1974548386617698 $487 5.1974548386617698 $314 $488 forward 7 unknown #
point $-1 -50.928067873165077 -26.213181820577582 -13.050671802367455 #
edge $-1 $420 -26.213181820577582 $429 26.213181820577582 $415 $489 forward 7 unknown #
vertex $-1 $428 $490 #
straight-curve $-1 -56.125522711826846 -26.213181820577582 -8.7707588089936284 1 0 0 I I #
plane-surface $-1 0 -26.213181820577582 0 0 1 0 0 0 1 forward_v I I I I #
coedge $-1 $435 $325 $441 $491 reversed $214 $-1 #
coedge $-1 $337 $336 $325 $434 reversed $338 $-1 #
edge $-1 $436 -2.1399564966869136 $492 2.1399564966869136 $325 $493 forward 7 unknown #
coedge $-1 $326 $432 $328 $439 reversed $214 $-1 #
vertex $-1 $327 $494 #
vertex $-1 $327 $495 #
straight-curve $-1 61.322977550488616 0 -8.7707588089936284 0 1 0 I I #
edge $-1 $437 -2.1399564966869136 $442 2.1399564966869136 $435 $496 forward 7 unknown #
straight-curve $-1 56.125522711826846 26.213181820577582 -8.7707588089936284 -1 0 0 I I #
coedge $-1 $445 $330 $432 $491 forward $323 $-1 #
vertex $-1 $491 $497 #
straight-curve $-1 56.125522711826846 26.213181820577582 -13.050671802367455 1 0 0 I I #
point $-1 50.928067873165077 26.213181820577582 -13.050671802367455 #
coedge $-1 $334 $441 $336 $447 forward $323 $-1 #
straight-curve $-1 50.928067873165077 0 -13.050671802367455 0 1 0 I I #
edge $-1 $492 -5.1974548386617698 $339 5.1974548386617698 $336 $498 forward 7 unknown #
point $-1 50.928067873165077 -26.213181820577582 -13.050671802367455 #
straight-curve $-1 56.125522711826846 -26.213181820577582 -8.7707588089936284 1 0 0 I I #
edge $-1 $451 47.755591895263848 $454 50.919079796831312 $345 $499 forward 7 unknown #
vertex $-1 $359 $500 #
straight-curve $-1 27.123626344351578 25.762060230446462 13.050671802367454 0 1 0 I I #
edge $-1 $454 -17.840574350846587 $356 -0.72552963616339383 $355 $501 forward 7 unknown #
vertex $-1 $453 $502 #
straight-curve $-1 27.123626344351578 -13.947742372113403 43.58620128445024 0 -0.76604443648966558 0.64278761758704617 I I #
point $-1 27.123626344351578 22.443083827720784 13.050671802367457 #
point $-1 10.008581629668384 26.213181820577582 9.8871839007999895 #
straight-curve $-1 0 26.213181820577582 13.050671802367455 -1 0 0 I I #
vertex $-1 $362 $503 #
point $-1 15.898594405292158 21.93853694838603 8.6211184414419346 #
vertex $-1 $366 $504 #
point $-1 23.233613568727804 21.93853694838603 8.6211184414419346 #
coedge $-1 $381 $380 $373 $464 forward $370 $-1 #
edge $-1 $465 30.906083203438712 $468 34.069571105006176 $463 $505 forward 7 unknown #
vertex $-1 $385 $506 #
straight-curve $-1 10.008581629668384 -45.842522326791965 13.050671802367454 0 -1 0 I I #
edge $-1 $468 0.72552963616339383 $382 17.840574350846587 $381 $507 forward 7 unknown #
vertex $-1 $467 $508 #
straight-curve $-1 10.008581629668384 -26.213181820577603 9.8871839007999682 0 0.76604443648966558 0.64278761758704617 I I #
point $-1 10.008581629668384 -22.44308382772078 13.050671802367455 #
point $-1 27.123626344351578 -26.213181820577582 9.887183900799986 #
straight-curve $-1 0 -26.213181820577582 13.050671802367455 1 0 0 I I #
vertex $-1 $388 $509 #
point $-1 15.898594405292158 -21.93853694838603 8.6211184414419311 #
vertex $-1 $392 $510 #
point $-1 23.233613568727804 -21.93853694838603 8.6211184414419311 #
point $-1 -50.928067873165077 -26.213181820577582 -13.050671802367455 #
straight-curve $-1 -50.928067873165077 0 -13.050671802367455 0 1 0 I I #
point $-1 -50.928067873165077 26.213181820577582 -13.050671802367455 #
straight-curve $-1 -50.928067873165077 26.213181820577582 0 0 0 -1 I I #
coedge $-1 $415 $414 $425 $486 reversed $200 $-1 #
edge $-1 $487 -26.213181820577582 $418 26.213181820577582 $414 $511 forward 7 unknown #
straight-curve $-1 -61.322977550488616 26.213181820577582 -10.910715305680542 0 0 -1 I I #
point $-1 -61.322977550488616 26.213181820577582 -13.050671802367455 #
point $-1 -61.322977550488616 26.213181820577582 -8.7707588089936284 #
edge $-1 $429 -2.1399564966869136 $487 2.1399564966869136 $481 $512 forward 7 unknown #
vertex $-1 $482 $513 #
straight-curve $-1 -56.125522711826846 -26.213181820577582 -13.050671802367455 -1 0 0 I I #
straight-curve $-1 -61.322977550488616 0 -8.7707588089936284 0 -1 0 I I #
point $-1 -61.322977550488616 -26.213181820577582 -8.7707588089936284 #
edge $-1 $442 -26.213181820577582 $492 26.213181820577582 $432 $514 forward 7 unknown #
vertex $-1 $434 $515 #
straight-curve $-1 61.322977550488616 -26.213181820577582 -10.910715305680542 0 0 -1 I I #
point $-1 61.322977550488616 -26.213181820577582 -8.7707588089936284 #
point $-1 61.322977550488616 26.213181820577582 -8.7707588089936284 #
straight-curve $-1 61.322977550488616 26.213181820577582 -10.910715305680542 0 0 -1 I I #
point $-1 61.322977550488616 26.213181820577582 -13.050671802367455 #
straight-curve $-1 56.125522711826846 -26.213181820577582 -13.050671802367455 -1 0 0 I I #
straight-curve $-1 27.123626344351578 26.213181820577582 60.806263697631302 0 0 -1 I I #
point $-1 27.123626344351578 26.213181820577582 13.050671802367455 #
straight-curve $-1 9.2830519935049907 26.213181820577582 9.8871839007999913 -1 0 0 I I #
point $-1 27.123626344351578 26.213181820577582 9.8871839007999895 #
point $-1 14.898594405292158 21.295749330798984 7.8550740049522698 #
point $-1 22.233613568727804 21.295749330798984 7.8550740049522698 #
straight-curve $-1 10.008581629668384 -26.213181820577582 43.956755005806166 0 0 -1 I I #
point $-1 10.008581629668384 -26.213181820577582 13.050671802367455 #
straight-curve $-1 9.2830519935049907 -26.213181820577582 9.8871839007999842 1 0 0 I I #
point $-1 10.008581629668384 -26.213181820577582 9.887183900799986 #
point $-1 14.898594405292158 -21.295749330798984 7.8550740049522663 #
point $-1 22.233613568727804 -21.295749330798984 7.8550740049522663 #
straight-curve $-1 -61.322977550488616 0 -13.050671802367455 0 1 0 I I #
straight-curve $-1 -61.322977550488616 -26.213181820577582 -10.910715305680542 0 0 -1 I I #
point $-1 -61.322977550488616 -26.213181820577582 -13.050671802367455 #
straight-curve $-1 61.322977550488616 0 -13.050671802367455 0 -1 0 I I #
point $-1 61.322977550488616 -26.213181820577582 -13.050671802367455 #
End-of-ACIS-data 