500 0 17 0           
7 Unknown 11 ACIS 5.0 NT 24 Thu Mar 25 23:20:30 1999 
-1 9.9999999999999995e-007 1e-010 
body $-1 $17 $-1 $18 #
body $-1 $19 $-1 $20 #
body $-1 $21 $-1 $22 #
body $-1 $23 $-1 $24 #
body $-1 $25 $-1 $26 #
body $-1 $27 $-1 $28 #
body $-1 $29 $-1 $30 #
body $-1 $31 $-1 $32 #
body $-1 $33 $-1 $34 #
body $-1 $35 $-1 $36 #
body $-1 $37 $-1 $38 #
body $-1 $39 $-1 $40 #
body $-1 $41 $-1 $42 #
body $-1 $43 $-1 $44 #
body $-1 $45 $-1 $46 #
body $-1 $47 $-1 $48 #
body $-1 $49 $-1 $50 #
lump $-1 $-1 $51 $0 #
transform $-1 1 0 0 0 1 0 0 0 1 78.602252265999326 35.632845113523786 8.5489684309047487 1 rotate no_reflect no_shear #
lump $-1 $-1 $52 $1 #
transform $-1 1 0 0 0 1 0 0 0 1 78.602252265999326 35.632845113523786 8.5489684309047487 1 rotate no_reflect no_shear #
lump $-1 $-1 $53 $2 #
transform $-1 1 0 0 0 1 0 0 0 1 78.602252265999326 35.632845113523786 8.5489684309047487 1 rotate no_reflect no_shear #
lump $-1 $-1 $54 $3 #
transform $-1 1 0 0 0 1 0 0 0 1 78.602252265999326 35.632845113523786 8.5489684309047487 1 rotate no_reflect no_shear #
lump $-1 $-1 $55 $4 #
transform $-1 1 0 0 0 1 0 0 0 1 78.602252265999326 35.632845113523786 8.5489684309047487 1 rotate no_reflect no_shear #
lump $-1 $-1 $56 $5 #
transform $-1 1 0 0 0 1 0 0 0 1 78.602252265999326 35.632845113523786 8.5489684309047487 1 rotate no_reflect no_shear #
lump $-1 $-1 $57 $6 #
transform $-1 1 0 0 0 1 0 0 0 1 78.602252265999326 35.632845113523786 8.5489684309047487 1 rotate no_reflect no_shear #
lump $-1 $-1 $58 $7 #
transform $-1 1 0 0 0 1 0 0 0 1 78.602252265999326 35.632845113523786 8.5489684309047487 1 rotate no_reflect no_shear #
lump $-1 $-1 $59 $8 #
transform $-1 1 0 0 0 1 0 0 0 1 78.602252265999326 35.632845113523786 8.5489684309047487 1 rotate no_reflect no_shear #
lump $-1 $-1 $60 $9 #
transform $-1 1 0 0 0 1 0 0 0 1 78.602252265999326 35.632845113523786 8.5489684309047487 1 rotate no_reflect no_shear #
lump $-1 $-1 $61 $10 #
transform $-1 1 0 0 0 1 0 0 0 1 78.602252265999326 35.632845113523786 8.5489684309047487 1 rotate no_reflect no_shear #
lump $-1 $-1 $62 $11 #
transform $-1 1 0 0 0 1 0 0 0 1 78.602252265999326 35.632845113523786 8.5489684309047487 1 rotate no_reflect no_shear #
lump $-1 $-1 $63 $12 #
transform $-1 1 0 0 0 1 0 0 0 1 78.602252265999326 35.632845113523786 8.5489684309047487 1 rotate no_reflect no_shear #
lump $-1 $-1 $64 $13 #
transform $-1 1 0 0 0 1 0 0 0 1 78.602252265999326 35.632845113523786 8.5489684309047487 1 rotate no_reflect no_shear #
lump $-1 $-1 $65 $14 #
transform $-1 1 0 0 0 1 0 0 0 1 78.602252265999326 35.632845113523786 8.5489684309047487 1 rotate no_reflect no_shear #
lump $-1 $-1 $66 $15 #
transform $-1 1 0 0 0 1 0 0 0 1 78.602252265999326 35.632845113523786 8.5489684309047487 1 rotate no_reflect no_shear #
lump $-1 $-1 $67 $16 #
transform $-1 1 0 0 0 1 0 0 0 1 78.602252265999326 35.632845113523786 8.5489684309047487 1 rotate no_reflect no_shear #
shell $-1 $-1 $-1 $68 $-1 $17 #
shell $-1 $-1 $-1 $69 $-1 $19 #
shell $-1 $-1 $-1 $70 $-1 $21 #
shell $-1 $-1 $-1 $71 $-1 $23 #
shell $-1 $-1 $-1 $72 $-1 $25 #
shell $-1 $-1 $-1 $73 $-1 $27 #
shell $-1 $-1 $-1 $74 $-1 $29 #
shell $-1 $-1 $-1 $75 $-1 $31 #
shell $-1 $-1 $-1 $76 $-1 $33 #
shell $-1 $-1 $-1 $77 $-1 $35 #
shell $-1 $-1 $-1 $78 $-1 $37 #
shell $-1 $-1 $-1 $79 $-1 $39 #
shell $-1 $-1 $-1 $80 $-1 $41 #
shell $-1 $-1 $-1 $81 $-1 $43 #
shell $-1 $-1 $-1 $82 $-1 $45 #
shell $-1 $-1 $-1 $83 $-1 $47 #
shell $-1 $-1 $-1 $84 $-1 $49 #
face $-1 $85 $86 $51 $-1 $87 forward single #
face $-1 $88 $89 $52 $-1 $90 reversed single #
face $-1 $91 $92 $53 $-1 $93 reversed single #
face $-1 $94 $95 $54 $-1 $96 reversed single #
face $-1 $97 $98 $55 $-1 $99 forward single #
face $-1 $100 $101 $56 $-1 $102 reversed single #
face $-1 $103 $104 $57 $-1 $105 forward single #
face $-1 $106 $107 $58 $-1 $108 forward single #
face $-1 $109 $110 $59 $-1 $111 reversed single #
face $-1 $112 $113 $60 $-1 $114 forward single #
face $-1 $115 $116 $61 $-1 $117 forward single #
face $-1 $118 $119 $62 $-1 $120 reversed single #
face $-1 $121 $122 $63 $-1 $123 forward single #
face $-1 $124 $125 $64 $-1 $126 forward single #
face $-1 $127 $128 $65 $-1 $129 reversed single #
face $-1 $130 $131 $66 $-1 $132 forward single #
face $-1 $133 $134 $67 $-1 $135 forward single #
face $-1 $136 $137 $51 $-1 $138 reversed single #
loop $-1 $-1 $139 $68 #
plane-surface $-1 0 0 8.5489684309047487 0 0 1 1 0 0 forward_v I I I I #
face $-1 $140 $141 $52 $-1 $142 reversed single #
loop $-1 $-1 $143 $69 #
plane-surface $-1 -77.014273618130986 -25.381205614870161 0 0 -1 0 0 0 -1 forward_v I I I I #
face $-1 $144 $145 $53 $-1 $146 reversed single #
loop $-1 $-1 $147 $70 #
plane-surface $-1 -77.014273618130986 25.381205614870165 0 0 1 0 0 0 1 forward_v I I I I #
face $-1 $148 $149 $54 $-1 $150 reversed single #
loop $-1 $-1 $151 $71 #
plane-surface $-1 39.996662470758864 22.098668053317422 219.22786213392706 0 -1 0 -0.57357644374324357 0 -0.81915203911291934 forward_v I I I I #
face $-1 $152 $153 $55 $-1 $154 forward single #
loop $-1 $155 $156 $72 #
cone-surface $-1 72.101790400234748 15.184902986801063 3.5611562192195025 -0.57357644374324357 0 -0.81915203911291934 0.81915203911291934 0 -0.57357644374324357 1 I I 0 1 1 forward I I I I #
face $-1 $157 $158 $56 $-1 $159 reversed single #
loop $-1 $-1 $160 $73 #
plane-surface $-1 -189.76262474339086 -20.585200377427746 112.48093192140885 0 1 0 -0.70710678939079041 0 0.70710677298230451 forward_v I I I I #
face $-1 $161 $162 $57 $-1 $163 forward single #
loop $-1 $164 $165 $74 #
cone-surface $-1 -74.424049100569107 -18.329601071715555 4.3707651946942523 0.70710678939079041 0 -0.70710677298230451 0.35355338649115226 0 0.35355339469539521 1 I I 0 1 0.5 forward I I I I #
face $-1 $166 $167 $58 $-1 $168 forward single #
loop $-1 $169 $170 $75 #
cone-surface $-1 -74.424049100569107 -14.946202113147272 4.3707651946942523 0.70710678939079041 0 -0.70710677298230451 0.35355338649115226 0 0.35355339469539521 1 I I 0 1 0.5 forward I I I I #
face $-1 $171 $172 $59 $-1 $173 reversed single #
loop $-1 $-1 $174 $76 #
plane-surface $-1 -189.76262474339086 -9.4932659824734724 112.48093192140885 0 1 0 -0.70710678939079041 0 0.70710677298230451 forward_v I I I I #
face $-1 $175 $176 $60 $-1 $177 forward single #
loop $-1 $178 $179 $77 #
cone-surface $-1 -74.424049100569107 -7.2376666767612789 4.3707651946942523 0.70710678939079041 0 -0.70710677298230451 0.35355338649115226 0 0.35355339469539521 1 I I 0 1 0.5 forward I I I I #
face $-1 $180 $181 $61 $-1 $182 forward single #
loop $-1 $183 $184 $78 #
cone-surface $-1 -74.424049100569107 -3.8542677181930003 4.3707651946942523 0.70710678939079041 0 -0.70710677298230451 0.35355338649115226 0 0.35355339469539521 1 I I 0 1 0.5 forward I I I I #
face $-1 $185 $186 $62 $-1 $187 reversed single #
loop $-1 $-1 $188 $79 #
plane-surface $-1 -189.76262474339086 1.5986684124807997 112.48093192140885 0 1 0 -0.70710678939079041 0 0.70710677298230451 forward_v I I I I #
face $-1 $189 $190 $63 $-1 $191 forward single #
loop $-1 $192 $193 $80 #
cone-surface $-1 -74.424049100569107 3.8542677181929932 4.3707651946942523 0.70710678939079041 0 -0.70710677298230451 0.35355338649115226 0 0.35355339469539521 1 I I 0 1 0.5 forward I I I I #
face $-1 $194 $195 $64 $-1 $196 forward single #
loop $-1 $197 $198 $81 #
cone-surface $-1 -74.424049100569107 7.2376666767612718 4.3707651946942523 0.70710678939079041 0 -0.70710677298230451 0.35355338649115226 0 0.35355339469539521 1 I I 0 1 0.5 forward I I I I #
face $-1 $199 $200 $65 $-1 $201 reversed single #
loop $-1 $-1 $202 $82 #
plane-surface $-1 -189.76262474339086 12.690602807435072 112.48093192140885 0 1 0 -0.70710678939079041 0 0.70710677298230451 forward_v I I I I #
face $-1 $203 $204 $66 $-1 $205 forward single #
loop $-1 $206 $207 $83 #
cone-surface $-1 -74.424049100569107 14.946202113147265 4.3707651946942523 0.70710678939079041 0 -0.70710677298230451 0.35355338649115226 0 0.35355339469539521 1 I I 0 1 0.5 forward I I I I #
face $-1 $208 $209 $67 $-1 $210 forward single #
loop $-1 $211 $212 $84 #
cone-surface $-1 -74.424049100569107 18.329601071715544 4.3707651946942523 0.70710678939079041 0 -0.70710677298230451 0.35355338649115226 0 0.35355339469539521 1 I I 0 1 0.5 forward I I I I #
face $-1 $213 $214 $51 $-1 $215 reversed single #
loop $-1 $-1 $216 $85 #
plane-surface $-1 0 0 -8.5489684309047487 0 0 1 1 0 0 forward_v I I I I #
coedge $-1 $217 $218 $219 $220 forward $86 $-1 #
face $-1 $221 $222 $52 $-1 $223 forward single #
loop $-1 $-1 $224 $88 #
plane-surface $-1 -75.426294970262646 -30.507025364196974 0 -1 0 0 0 0 1 forward_v I I I I #
coedge $-1 $225 $226 $227 $228 forward $89 $-1 #
face $-1 $229 $230 $53 $-1 $231 reversed single #
loop $-1 $-1 $232 $91 #
plane-surface $-1 -75.426294970262646 30.507025364196977 0 -1 0 0 0 0 1 forward_v I I I I #
coedge $-1 $233 $234 $235 $236 reversed $92 $-1 #
face $-1 $237 $238 $54 $-1 $239 reversed single #
loop $-1 $-1 $240 $94 #
plane-surface $-1 -50.172138179123536 15.184902986801063 90.4534716888042 0.57357644374324357 0 0.81915203911291934 0.81915203911291934 0 -0.57357644374324357 forward_v I I I I #
coedge $-1 $241 $242 $243 $244 reversed $95 $-1 #
face $-1 $-1 $245 $55 $-1 $246 forward single #
loop $-1 $247 $248 $97 #
cone-surface $-1 71.215860122995778 15.184902986801063 2.2959166839692831 -0.57357644374324357 0 -0.81915203911291934 0.40957601955645967 0 -0.28678822187162178 1 I I -0.70710678118654746 0.70710678118654746 0.5 forward I I I I #
loop $-1 $-1 $249 $72 #
coedge $-1 $156 $156 $250 $251 reversed $98 $-1 #
face $-1 $252 $253 $56 $-1 $254 reversed single #
loop $-1 $-1 $255 $100 #
plane-surface $-1 -78.602252265999326 -16.637901592431412 1.320562023505218 -0.70710678939079041 0 0.70710677298230451 0.70710677298230451 0 0.70710678939079041 forward_v I I I I #
coedge $-1 $256 $257 $258 $259 reversed $101 $-1 #
face $-1 $-1 $260 $57 $-1 $261 forward single #
loop $-1 $262 $263 $103 #
cone-surface $-1 -73.683272357622997 -18.329601071715555 3.6299884689379489 0.70710678939079041 0 -0.70710677298230451 0.17677669324557613 0 0.1767766973476976 1 I I -0.70710678118654691 0.70710678118654813 0.25 forward I I I I #
loop $-1 $-1 $264 $74 #
coedge $-1 $165 $165 $265 $266 reversed $104 $-1 #
face $-1 $-1 $267 $58 $-1 $268 forward single #
loop $-1 $269 $270 $106 #
cone-surface $-1 -73.683272357622997 -14.946202113147272 3.6299884689379489 0.70710678939079041 0 -0.70710677298230451 0.17677669324557613 0 0.1767766973476976 1 I I -0.70710678118654691 0.70710678118654813 0.25 forward I I I I #
loop $-1 $-1 $271 $75 #
coedge $-1 $170 $170 $272 $273 reversed $107 $-1 #
face $-1 $274 $275 $59 $-1 $276 reversed single #
loop $-1 $-1 $277 $109 #
plane-surface $-1 -78.602252265999326 -5.5459671974771396 1.320562023505218 -0.70710678939079041 0 0.70710677298230451 0.70710677298230451 0 0.70710678939079041 forward_v I I I I #
coedge $-1 $278 $279 $280 $281 reversed $110 $-1 #
face $-1 $-1 $282 $60 $-1 $283 forward single #
loop $-1 $284 $285 $112 #
cone-surface $-1 -73.683272357622997 -7.2376666767612789 3.6299884689379489 0.70710678939079041 0 -0.70710677298230451 0.17677669324557613 0 0.1767766973476976 1 I I -0.70710678118654691 0.70710678118654813 0.25 forward I I I I #
loop $-1 $-1 $286 $77 #
coedge $-1 $179 $179 $287 $288 reversed $113 $-1 #
face $-1 $-1 $289 $61 $-1 $290 forward single #
loop $-1 $291 $292 $115 #
cone-surface $-1 -73.683272357622997 -3.8542677181930003 3.6299884689379489 0.70710678939079041 0 -0.70710677298230451 0.17677669324557613 0 0.1767766973476976 1 I I -0.70710678118654691 0.70710678118654813 0.25 forward I I I I #
loop $-1 $-1 $293 $78 #
coedge $-1 $184 $184 $294 $295 reversed $116 $-1 #
face $-1 $296 $297 $62 $-1 $298 reversed single #
loop $-1 $-1 $299 $118 #
plane-surface $-1 -78.602252265999326 5.5459671974771325 1.320562023505218 -0.70710678939079041 0 0.70710677298230451 0.70710677298230451 0 0.70710678939079041 forward_v I I I I #
coedge $-1 $300 $301 $302 $303 reversed $119 $-1 #
face $-1 $-1 $304 $63 $-1 $305 forward single #
loop $-1 $306 $307 $121 #
cone-surface $-1 -73.683272357622997 3.8542677181929932 3.6299884689379489 0.70710678939079041 0 -0.70710677298230451 0.17677669324557613 0 0.1767766973476976 1 I I -0.70710678118654691 0.70710678118654813 0.25 forward I I I I #
loop $-1 $-1 $308 $80 #
coedge $-1 $193 $193 $309 $310 reversed $122 $-1 #
face $-1 $-1 $311 $64 $-1 $312 forward single #
loop $-1 $313 $314 $124 #
cone-surface $-1 -73.683272357622997 7.2376666767612718 3.6299884689379489 0.70710678939079041 0 -0.70710677298230451 0.17677669324557613 0 0.1767766973476976 1 I I -0.70710678118654691 0.70710678118654813 0.25 forward I I I I #
loop $-1 $-1 $315 $81 #
coedge $-1 $198 $198 $316 $317 reversed $125 $-1 #
face $-1 $318 $319 $65 $-1 $320 reversed single #
loop $-1 $-1 $321 $127 #
plane-surface $-1 -78.602252265999326 16.637901592431405 1.320562023505218 -0.70710678939079041 0 0.70710677298230451 0.70710677298230451 0 0.70710678939079041 forward_v I I I I #
coedge $-1 $322 $323 $324 $325 reversed $128 $-1 #
face $-1 $-1 $326 $66 $-1 $327 forward single #
loop $-1 $328 $329 $130 #
cone-surface $-1 -73.683272357622997 14.946202113147265 3.6299884689379489 0.70710678939079041 0 -0.70710677298230451 0.17677669324557613 0 0.1767766973476976 1 I I -0.70710678118654691 0.70710678118654813 0.25 forward I I I I #
loop $-1 $-1 $330 $83 #
coedge $-1 $207 $207 $331 $332 reversed $131 $-1 #
face $-1 $-1 $333 $67 $-1 $334 forward single #
loop $-1 $335 $336 $133 #
cone-surface $-1 -73.683272357622997 18.329601071715544 3.6299884689379489 0.70710678939079041 0 -0.70710677298230451 0.17677669324557613 0 0.1767766973476976 1 I I -0.70710678118654691 0.70710678118654813 0.25 forward I I I I #
loop $-1 $-1 $337 $84 #
coedge $-1 $212 $212 $338 $339 reversed $134 $-1 #
face $-1 $340 $341 $51 $-1 $342 reversed single #
loop $-1 $-1 $343 $136 #
plane-surface $-1 0 -35.632845113523786 0 0 1 0 0 0 1 forward_v I I I I #
coedge $-1 $344 $345 $346 $347 forward $137 $-1 #
coedge $-1 $348 $139 $349 $350 forward $86 $-1 #
coedge $-1 $139 $348 $351 $352 forward $86 $-1 #
coedge $-1 $353 $354 $139 $220 reversed $355 $-1 #
edge $-1 $356 -35.632845113523786 $357 35.632845113523786 $219 $358 forward 7 unknown #
face $-1 $359 $360 $52 $-1 $361 reversed single #
loop $-1 $-1 $362 $140 #
plane-surface $-1 0 0 8.5489684309047487 0 0 1 1 0 0 forward_v I I I I #
coedge $-1 $363 $364 $365 $366 reversed $141 $-1 #
coedge $-1 $367 $143 $368 $369 reversed $89 $-1 #
coedge $-1 $143 $367 $370 $371 reversed $89 $-1 #
coedge $-1 $364 $363 $143 $228 reversed $141 $-1 #
edge $-1 $372 -8.5489684309047487 $373 8.5489684309047487 $227 $374 forward 7 unknown #
face $-1 $375 $376 $53 $-1 $377 reversed single #
loop $-1 $-1 $378 $144 #
plane-surface $-1 0 0 -8.5489684309047487 0 0 1 1 0 0 forward_v I I I I #
coedge $-1 $379 $380 $381 $382 forward $145 $-1 #
coedge $-1 $381 $147 $383 $384 reversed $92 $-1 #
coedge $-1 $147 $381 $385 $386 reversed $92 $-1 #
coedge $-1 $387 $388 $147 $236 forward $376 $-1 #
edge $-1 $389 -8.5489684309047487 $390 8.5489684309047487 $235 $391 forward 7 unknown #
face $-1 $392 $393 $54 $-1 $394 reversed single #
loop $-1 $-1 $395 $148 #
plane-surface $-1 39.996662470758864 8.2711379202847048 219.22786213392706 0 1 0 0.57357644374324357 0 0.81915203911291934 forward_v I I I I #
coedge $-1 $396 $397 $398 $399 reversed $149 $-1 #
coedge $-1 $242 $151 $400 $401 reversed $95 $-1 #
coedge $-1 $151 $241 $396 $402 reversed $95 $-1 #
coedge $-1 $398 $403 $151 $244 forward $404 $-1 #
edge $-1 $405 -58.603921030619894 $406 -46.801281409825386 $243 $407 forward 7 unknown #
loop $-1 $-1 $250 $152 #
plane-surface $-1 -50.172138179123536 15.184902986801063 90.4534716888042 0.57357644374324357 0 0.81915203911291934 0.81915203911291934 0 -0.57357644374324357 forward_v I I I I #
loop $-1 $-1 $408 $97 #
coedge $-1 $248 $248 $249 $409 reversed $153 $-1 #
coedge $-1 $249 $249 $248 $409 forward $155 $-1 #
coedge $-1 $250 $250 $156 $251 forward $245 $-1 #
edge $-1 $410 0 $410 6.2831853071796004 $250 $411 forward 7 unknown #
face $-1 $412 $413 $56 $-1 $414 forward single #
loop $-1 $-1 $415 $157 #
plane-surface $-1 -189.76262474339086 -12.690602807435079 112.48093192140885 0 -1 0 0.70710678939079041 0 -0.70710677298230451 forward_v I I I I #
coedge $-1 $416 $417 $418 $419 reversed $158 $-1 #
coedge $-1 $257 $160 $420 $421 reversed $101 $-1 #
coedge $-1 $160 $256 $416 $422 reversed $101 $-1 #
coedge $-1 $418 $423 $160 $259 forward $413 $-1 #
edge $-1 $424 16.279060105696104 $425 23.507466345359717 $258 $426 forward 7 unknown #
loop $-1 $-1 $265 $161 #
plane-surface $-1 -78.602252265999326 -16.637901592431412 1.320562023505218 -0.70710678939079041 0 0.70710677298230451 0.70710677298230451 0 0.70710678939079041 forward_v I I I I #
loop $-1 $-1 $427 $103 #
coedge $-1 $263 $263 $264 $428 reversed $162 $-1 #
coedge $-1 $264 $264 $263 $428 forward $164 $-1 #
coedge $-1 $265 $265 $165 $266 forward $260 $-1 #
edge $-1 $429 0 $429 6.2831853071796004 $265 $430 forward 7 unknown #
loop $-1 $-1 $272 $166 #
plane-surface $-1 -78.602252265999326 -16.637901592431412 1.320562023505218 -0.70710678939079041 0 0.70710677298230451 0.70710677298230451 0 0.70710678939079041 forward_v I I I I #
loop $-1 $-1 $431 $106 #
coedge $-1 $270 $270 $271 $432 reversed $167 $-1 #
coedge $-1 $271 $271 $270 $432 forward $169 $-1 #
coedge $-1 $272 $272 $170 $273 forward $267 $-1 #
edge $-1 $433 0 $433 6.2831853071796004 $272 $434 forward 7 unknown #
face $-1 $435 $436 $59 $-1 $437 forward single #
loop $-1 $-1 $438 $171 #
plane-surface $-1 -189.76262474339086 -1.5986684124808068 112.48093192140885 0 -1 0 0.70710678939079041 0 -0.70710677298230451 forward_v I I I I #
coedge $-1 $439 $440 $441 $442 reversed $172 $-1 #
coedge $-1 $279 $174 $443 $444 reversed $110 $-1 #
coedge $-1 $174 $278 $439 $445 reversed $110 $-1 #
coedge $-1 $441 $446 $174 $281 forward $436 $-1 #
edge $-1 $447 16.279060105696104 $448 23.507466345359717 $280 $449 forward 7 unknown #
loop $-1 $-1 $287 $175 #
plane-surface $-1 -78.602252265999326 -5.5459671974771396 1.320562023505218 -0.70710678939079041 0 0.70710677298230451 0.70710677298230451 0 0.70710678939079041 forward_v I I I I #
loop $-1 $-1 $450 $112 #
coedge $-1 $285 $285 $286 $451 reversed $176 $-1 #
coedge $-1 $286 $286 $285 $451 forward $178 $-1 #
coedge $-1 $287 $287 $179 $288 forward $282 $-1 #
edge $-1 $452 0 $452 6.2831853071796004 $287 $453 forward 7 unknown #
loop $-1 $-1 $294 $180 #
plane-surface $-1 -78.602252265999326 -5.5459671974771396 1.320562023505218 -0.70710678939079041 0 0.70710677298230451 0.70710677298230451 0 0.70710678939079041 forward_v I I I I #
loop $-1 $-1 $454 $115 #
coedge $-1 $292 $292 $293 $455 reversed $181 $-1 #
coedge $-1 $293 $293 $292 $455 forward $183 $-1 #
coedge $-1 $294 $294 $184 $295 forward $289 $-1 #
edge $-1 $456 0 $456 6.2831853071796004 $294 $457 forward 7 unknown #
face $-1 $458 $459 $62 $-1 $460 forward single #
loop $-1 $-1 $461 $185 #
plane-surface $-1 -189.76262474339086 9.4932659824734653 112.48093192140885 0 -1 0 0.70710678939079041 0 -0.70710677298230451 forward_v I I I I #
coedge $-1 $462 $463 $464 $465 reversed $186 $-1 #
coedge $-1 $301 $188 $466 $467 reversed $119 $-1 #
coedge $-1 $188 $300 $462 $468 reversed $119 $-1 #
coedge $-1 $464 $469 $188 $303 forward $459 $-1 #
edge $-1 $470 16.279060105696104 $471 23.507466345359717 $302 $472 forward 7 unknown #
loop $-1 $-1 $309 $189 #
plane-surface $-1 -78.602252265999326 5.5459671974771325 1.320562023505218 -0.70710678939079041 0 0.70710677298230451 0.70710677298230451 0 0.70710678939079041 forward_v I I I I #
loop $-1 $-1 $473 $121 #
coedge $-1 $307 $307 $308 $474 reversed $190 $-1 #
coedge $-1 $308 $308 $307 $474 forward $192 $-1 #
coedge $-1 $309 $309 $193 $310 forward $304 $-1 #
edge $-1 $475 0 $475 6.2831853071796004 $309 $476 forward 7 unknown #
loop $-1 $-1 $316 $194 #
plane-surface $-1 -78.602252265999326 5.5459671974771325 1.320562023505218 -0.70710678939079041 0 0.70710677298230451 0.70710677298230451 0 0.70710678939079041 forward_v I I I I #
loop $-1 $-1 $477 $124 #
coedge $-1 $314 $314 $315 $478 reversed $195 $-1 #
coedge $-1 $315 $315 $314 $478 forward $197 $-1 #
coedge $-1 $316 $316 $198 $317 forward $311 $-1 #
edge $-1 $479 0 $479 6.2831853071796004 $316 $480 forward 7 unknown #
face $-1 $481 $482 $65 $-1 $483 forward single #
loop $-1 $-1 $484 $199 #
plane-surface $-1 -189.76262474339086 20.585200377427739 112.48093192140885 0 -1 0 0.70710678939079041 0 -0.70710677298230451 forward_v I I I I #
coedge $-1 $485 $486 $487 $488 reversed $200 $-1 #
coedge $-1 $323 $202 $489 $490 reversed $128 $-1 #
coedge $-1 $202 $322 $485 $491 reversed $128 $-1 #
coedge $-1 $487 $492 $202 $325 forward $482 $-1 #
edge $-1 $493 16.279060105696104 $494 23.507466345359717 $324 $495 forward 7 unknown #
loop $-1 $-1 $331 $203 #
plane-surface $-1 -78.602252265999326 16.637901592431405 1.320562023505218 -0.70710678939079041 0 0.70710677298230451 0.70710677298230451 0 0.70710678939079041 forward_v I I I I #
loop $-1 $-1 $496 $130 #
coedge $-1 $329 $329 $330 $497 reversed $204 $-1 #
coedge $-1 $330 $330 $329 $497 forward $206 $-1 #
coedge $-1 $331 $331 $207 $332 forward $326 $-1 #
edge $-1 $498 0 $498 6.2831853071796004 $331 $499 forward 7 unknown #
loop $-1 $-1 $338 $208 #
plane-surface $-1 -78.602252265999326 16.637901592431405 1.320562023505218 -0.70710678939079041 0 0.70710677298230451 0.70710677298230451 0 0.70710678939079041 forward_v I I I I #
loop $-1 $-1 $500 $133 #
coedge $-1 $336 $336 $337 $501 reversed $209 $-1 #
coedge $-1 $337 $337 $336 $501 forward $211 $-1 #
coedge $-1 $338 $338 $212 $339 forward $333 $-1 #
edge $-1 $502 0 $502 6.2831853071796004 $338 $503 forward 7 unknown #
face $-1 $504 $505 $51 $-1 $506 reversed single #
loop $-1 $-1 $507 $213 #
plane-surface $-1 -78.602252265999326 0 0 1 0 0 0 0 -1 forward_v I I I I #
coedge $-1 $508 $351 $509 $510 forward $214 $-1 #
coedge $-1 $511 $216 $508 $512 forward $137 $-1 #
coedge $-1 $216 $511 $513 $514 forward $137 $-1 #
coedge $-1 $354 $353 $216 $347 reversed $355 $-1 #
edge $-1 $515 -35.632845113523786 $516 35.632845113523786 $346 $517 forward 7 unknown #
coedge $-1 $218 $217 $518 $519 forward $86 $-1 #
coedge $-1 $520 $521 $217 $350 reversed $505 $-1 #
edge $-1 $357 -78.602252265999326 $522 78.602252265999326 $349 $523 forward 7 unknown #
coedge $-1 $343 $524 $218 $352 reversed $214 $-1 #
edge $-1 $525 -78.602252265999326 $356 78.602252265999326 $351 $526 forward 7 unknown #
coedge $-1 $346 $219 $524 $527 forward $355 $-1 #
coedge $-1 $219 $346 $520 $528 reversed $355 $-1 #
loop $-1 $-1 $353 $504 #
vertex $-1 $220 $529 #
vertex $-1 $220 $530 #
straight-curve $-1 78.602252265999326 0 8.5489684309047487 0 1 0 I I #
face $-1 $531 $532 $52 $-1 $533 reversed single #
loop $-1 $-1 $534 $221 #
plane-surface $-1 -78.602252265999326 0 0 1 0 0 0 0 -1 forward_v I I I I #
coedge $-1 $370 $535 $364 $536 forward $222 $-1 #
coedge $-1 $227 $224 $537 $538 reversed $141 $-1 #
coedge $-1 $224 $227 $362 $536 reversed $141 $-1 #
coedge $-1 $539 $540 $224 $366 forward $541 $-1 #
edge $-1 $542 -8.5489684309047487 $543 8.5489684309047487 $365 $544 forward 7 unknown #
coedge $-1 $226 $225 $534 $545 reversed $89 $-1 #
coedge $-1 $537 $546 $225 $369 forward $532 $-1 #
edge $-1 $547 -40.095115456933833 $373 -36.919158161197153 $368 $548 forward 7 unknown #
coedge $-1 $549 $362 $226 $371 forward $222 $-1 #
edge $-1 $372 36.919158161197153 $550 40.095115456933833 $370 $551 forward 7 unknown #
vertex $-1 $371 $552 #
vertex $-1 $369 $553 #
straight-curve $-1 -75.426294970262646 -25.381205614870161 0 0 0 -1 I I #
face $-1 $554 $555 $53 $-1 $556 forward single #
loop $-1 $-1 $235 $229 #
plane-surface $-1 -78.602252265999326 0 0 1 0 0 0 0 -1 forward_v I I I I #
coedge $-1 $383 $557 $379 $558 forward $230 $-1 #
coedge $-1 $559 $232 $378 $558 reversed $145 $-1 #
coedge $-1 $232 $559 $560 $561 reversed $145 $-1 #
coedge $-1 $234 $233 $232 $382 reversed $92 $-1 #
edge $-1 $562 -8.5489684309047487 $563 8.5489684309047487 $232 $564 forward 7 unknown #
coedge $-1 $565 $378 $233 $384 forward $230 $-1 #
edge $-1 $563 36.919158161197153 $389 40.095115456933833 $383 $566 forward 7 unknown #
coedge $-1 $560 $567 $234 $386 forward $555 $-1 #
edge $-1 $390 -40.095115456933833 $562 -36.919158161197153 $385 $568 forward 7 unknown #
coedge $-1 $569 $235 $567 $570 reversed $376 $-1 #
coedge $-1 $235 $569 $565 $571 reversed $376 $-1 #
vertex $-1 $571 $572 #
vertex $-1 $236 $573 #
straight-curve $-1 -78.602252265999326 25.381205614870165 0 0 0 1 I I #
face $-1 $-1 $404 $54 $-1 $574 forward single #
loop $-1 $-1 $575 $237 #
plane-surface $-1 78.602252265999326 0 0 -1 0 0 0 0 1 forward_v I I I I #
coedge $-1 $576 $577 $578 $579 reversed $238 $-1 #
coedge $-1 $580 $240 $242 $402 forward $149 $-1 #
coedge $-1 $240 $580 $576 $581 forward $149 $-1 #
coedge $-1 $578 $243 $240 $399 forward $404 $-1 #
edge $-1 $406 -14.50621655991689 $582 -0.67868642688417324 $398 $583 forward 7 unknown #
coedge $-1 $584 $585 $241 $401 forward $393 $-1 #
edge $-1 $586 -109.32926002804173 $405 -101.06496263605878 $400 $587 forward 7 unknown #
edge $-1 $406 142.79614191157975 $586 157.20450453199862 $242 $588 forward 7 unknown #
coedge $-1 $243 $578 $584 $589 forward $404 $-1 #
loop $-1 $-1 $578 $392 #
vertex $-1 $401 $590 #
vertex $-1 $244 $591 #
straight-curve $-1 19.998331235379432 22.098668053317422 8.5489684309047504 -1 0 0 I I #
coedge $-1 $408 $408 $-1 $592 reversed $247 $-1 #
edge $-1 $593 0 $593 6.2831853071796004 $248 $594 forward 7 unknown #
vertex $-1 $251 $595 #
ellipse-curve $-1 72.7009324556021 15.184902986801063 4.4168197349132736 0.57357644374324357 0 0.81915203911291934 0.81915203911291934 0 -0.57357644374324357 1 I I #
face $-1 $-1 $596 $56 $-1 $597 reversed single #
loop $-1 $-1 $258 $252 #
plane-surface $-1 0 0 8.5489684309047487 0 0 1 1 0 0 forward_v I I I I #
coedge $-1 $598 $599 $600 $601 reversed $253 $-1 #
coedge $-1 $602 $255 $257 $422 forward $158 $-1 #
coedge $-1 $255 $602 $598 $603 forward $158 $-1 #
coedge $-1 $600 $258 $255 $419 forward $413 $-1 #
edge $-1 $425 -12.26624958121204 $604 -4.3716520112193731 $418 $605 forward 7 unknown #
coedge $-1 $606 $607 $256 $421 forward $596 $-1 #
edge $-1 $608 -54.919903937199209 $424 -47.691497529799676 $420 $609 forward 7 unknown #
edge $-1 $425 -10.222510257081796 $608 0 $257 $610 forward 7 unknown #
coedge $-1 $258 $600 $606 $611 forward $413 $-1 #
vertex $-1 $259 $612 #
vertex $-1 $259 $613 #
straight-curve $-1 -94.881312371695429 -20.585200377427746 8.5489684309047504 1 0 0 I I #
coedge $-1 $427 $427 $-1 $614 reversed $262 $-1 #
edge $-1 $615 0 $615 6.2831853071796004 $263 $616 forward 7 unknown #
vertex $-1 $266 $617 #
ellipse-curve $-1 -74.988049146167512 -18.329601071715555 4.9347652272049833 -0.70710678939079041 0 0.70710677298230451 0.35355338649115226 0 0.35355339469539521 1 I I #
coedge $-1 $431 $431 $-1 $618 reversed $269 $-1 #
edge $-1 $619 0 $619 6.2831853071796004 $270 $620 forward 7 unknown #
vertex $-1 $273 $621 #
ellipse-curve $-1 -74.988049146167512 -14.946202113147272 4.9347652272049833 -0.70710678939079041 0 0.70710677298230451 0.35355338649115226 0 0.35355339469539521 1 I I #
face $-1 $-1 $622 $59 $-1 $623 reversed single #
loop $-1 $-1 $280 $274 #
plane-surface $-1 0 0 8.5489684309047487 0 0 1 1 0 0 forward_v I I I I #
coedge $-1 $624 $625 $626 $627 reversed $275 $-1 #
coedge $-1 $628 $277 $279 $445 forward $172 $-1 #
coedge $-1 $277 $628 $624 $629 forward $172 $-1 #
coedge $-1 $626 $280 $277 $442 forward $436 $-1 #
edge $-1 $448 -6.7202823837349026 $630 1.174315186257763 $441 $631 forward 7 unknown #
coedge $-1 $632 $633 $278 $444 forward $622 $-1 #
edge $-1 $634 -54.919903937199209 $447 -47.691497529799676 $443 $635 forward 7 unknown #
edge $-1 $448 -10.222510257081796 $634 0 $279 $636 forward 7 unknown #
coedge $-1 $280 $626 $632 $637 forward $436 $-1 #
vertex $-1 $281 $638 #
vertex $-1 $281 $639 #
straight-curve $-1 -94.881312371695429 -9.4932659824734724 8.5489684309047504 1 0 0 I I #
coedge $-1 $450 $450 $-1 $640 reversed $284 $-1 #
edge $-1 $641 0 $641 6.2831853071796004 $285 $642 forward 7 unknown #
vertex $-1 $288 $643 #
ellipse-curve $-1 -74.988049146167512 -7.2376666767612789 4.9347652272049833 -0.70710678939079041 0 0.70710677298230451 0.35355338649115226 0 0.35355339469539521 1 I I #
coedge $-1 $454 $454 $-1 $644 reversed $291 $-1 #
edge $-1 $645 0 $645 6.2831853071796004 $292 $646 forward 7 unknown #
vertex $-1 $295 $647 #
ellipse-curve $-1 -74.988049146167512 -3.8542677181930003 4.9347652272049833 -0.70710678939079041 0 0.70710677298230451 0.35355338649115226 0 0.35355339469539521 1 I I #
face $-1 $-1 $648 $62 $-1 $649 reversed single #
loop $-1 $-1 $302 $296 #
plane-surface $-1 0 0 8.5489684309047487 0 0 1 1 0 0 forward_v I I I I #
coedge $-1 $650 $651 $652 $653 reversed $297 $-1 #
coedge $-1 $654 $299 $301 $468 forward $186 $-1 #
coedge $-1 $299 $654 $650 $655 forward $186 $-1 #
coedge $-1 $652 $302 $299 $465 forward $459 $-1 #
edge $-1 $471 -1.1743151862577665 $656 6.7202823837348991 $464 $657 forward 7 unknown #
coedge $-1 $658 $659 $300 $467 forward $648 $-1 #
edge $-1 $660 -54.919903937199209 $470 -47.691497529799676 $466 $661 forward 7 unknown #
edge $-1 $471 -10.222510257081796 $660 0 $301 $662 forward 7 unknown #
coedge $-1 $302 $652 $658 $663 forward $459 $-1 #
vertex $-1 $303 $664 #
vertex $-1 $303 $665 #
straight-curve $-1 -94.881312371695429 1.5986684124807997 8.5489684309047504 1 0 0 I I #
coedge $-1 $473 $473 $-1 $666 reversed $306 $-1 #
edge $-1 $667 0 $667 6.2831853071796004 $307 $668 forward 7 unknown #
vertex $-1 $310 $669 #
ellipse-curve $-1 -74.988049146167512 3.8542677181929932 4.9347652272049833 -0.70710678939079041 0 0.70710677298230451 0.35355338649115226 0 0.35355339469539521 1 I I #
coedge $-1 $477 $477 $-1 $670 reversed $313 $-1 #
edge $-1 $671 0 $671 6.2831853071796004 $314 $672 forward 7 unknown #
vertex $-1 $317 $673 #
ellipse-curve $-1 -74.988049146167512 7.2376666767612718 4.9347652272049833 -0.70710678939079041 0 0.70710677298230451 0.35355338649115226 0 0.35355339469539521 1 I I #
face $-1 $-1 $674 $65 $-1 $675 reversed single #
loop $-1 $-1 $324 $318 #
plane-surface $-1 0 0 8.5489684309047487 0 0 1 1 0 0 forward_v I I I I #
coedge $-1 $676 $677 $678 $679 reversed $319 $-1 #
coedge $-1 $680 $321 $323 $491 forward $200 $-1 #
coedge $-1 $321 $680 $676 $681 forward $200 $-1 #
coedge $-1 $678 $324 $321 $488 forward $482 $-1 #
edge $-1 $494 4.3716520112193695 $682 12.266249581212037 $487 $683 forward 7 unknown #
coedge $-1 $684 $685 $322 $490 forward $674 $-1 #
edge $-1 $686 -54.919903937199209 $493 -47.691497529799676 $489 $687 forward 7 unknown #
edge $-1 $494 -10.222510257081796 $686 0 $323 $688 forward 7 unknown #
coedge $-1 $324 $678 $684 $689 forward $482 $-1 #
vertex $-1 $325 $690 #
vertex $-1 $325 $691 #
straight-curve $-1 -94.881312371695429 12.690602807435072 8.5489684309047504 1 0 0 I I #
coedge $-1 $496 $496 $-1 $692 reversed $328 $-1 #
edge $-1 $693 0 $693 6.2831853071796004 $329 $694 forward 7 unknown #
vertex $-1 $332 $695 #
ellipse-curve $-1 -74.988049146167512 14.946202113147265 4.9347652272049833 -0.70710678939079041 0 0.70710677298230451 0.35355338649115226 0 0.35355339469539521 1 I I #
coedge $-1 $500 $500 $-1 $696 reversed $335 $-1 #
edge $-1 $697 0 $697 6.2831853071796004 $336 $698 forward 7 unknown #
vertex $-1 $339 $699 #
ellipse-curve $-1 -74.988049146167512 18.329601071715544 4.9347652272049833 -0.70710678939079041 0 0.70710677298230451 0.35355338649115226 0 0.35355339469539521 1 I I #
face $-1 $-1 $355 $51 $-1 $700 reversed single #
loop $-1 $-1 $520 $340 #
plane-surface $-1 0 35.632845113523786 0 0 -1 0 0 0 -1 forward_v I I I I #
coedge $-1 $701 $518 $521 $702 forward $341 $-1 #
coedge $-1 $524 $343 $344 $512 reversed $214 $-1 #
coedge $-1 $518 $701 $343 $510 reversed $341 $-1 #
edge $-1 $525 -8.5489684309047487 $703 8.5489684309047487 $509 $704 forward 7 unknown #
coedge $-1 $345 $344 $701 $705 forward $137 $-1 #
edge $-1 $516 -78.602252265999326 $703 78.602252265999326 $508 $706 forward 7 unknown #
coedge $-1 $521 $520 $345 $514 reversed $505 $-1 #
edge $-1 $707 -78.602252265999326 $515 78.602252265999326 $513 $708 forward 7 unknown #
vertex $-1 $347 $709 #
vertex $-1 $527 $710 #
straight-curve $-1 78.602252265999326 0 -8.5489684309047487 0 -1 0 I I #
coedge $-1 $507 $509 $348 $519 reversed $341 $-1 #
edge $-1 $522 -35.632845113523786 $525 35.632845113523786 $518 $711 forward 7 unknown #
coedge $-1 $513 $349 $354 $528 forward $505 $-1 #
coedge $-1 $349 $513 $507 $702 reversed $505 $-1 #
vertex $-1 $350 $712 #
straight-curve $-1 0 35.632845113523786 8.5489684309047487 -1 0 0 I I #
coedge $-1 $351 $508 $353 $527 reversed $214 $-1 #
vertex $-1 $519 $713 #
straight-curve $-1 0 -35.632845113523786 8.5489684309047487 1 0 0 I I #
edge $-1 $356 -8.5489684309047487 $516 8.5489684309047487 $353 $714 forward 7 unknown #
edge $-1 $357 -8.5489684309047487 $515 8.5489684309047487 $354 $715 forward 7 unknown #
point $-1 78.602252265999326 -35.632845113523786 8.5489684309047487 #
point $-1 78.602252265999326 35.632845113523786 8.5489684309047487 #
face $-1 $-1 $541 $52 $-1 $716 reversed single #
loop $-1 $-1 $537 $359 #
plane-surface $-1 0 0 -8.5489684309047487 0 0 1 1 0 0 forward_v I I I I #
coedge $-1 $717 $718 $367 $545 forward $360 $-1 #
coedge $-1 $362 $549 $539 $719 forward $222 $-1 #
edge $-1 $543 -20.379332431425297 $372 -10.127692932771675 $362 $720 forward 7 unknown #
coedge $-1 $721 $368 $363 $538 forward $532 $-1 #
edge $-1 $373 10.127692932771675 $542 20.379332431425297 $537 $722 forward 7 unknown #
coedge $-1 $723 $365 $535 $719 reversed $541 $-1 #
coedge $-1 $365 $723 $721 $724 reversed $541 $-1 #
loop $-1 $-1 $365 $531 #
vertex $-1 $724 $725 #
vertex $-1 $366 $726 #
straight-curve $-1 -75.426294970262646 -35.632845113523786 0 0 0 1 I I #
edge $-1 $550 -8.5489684309047487 $547 8.5489684309047487 $534 $727 forward 7 unknown #
coedge $-1 $368 $721 $717 $728 forward $532 $-1 #
vertex $-1 $369 $729 #
straight-curve $-1 -38.507136809065493 -25.381205614870161 -8.5489684309047487 1 0 0 I I #
coedge $-1 $535 $370 $718 $730 forward $222 $-1 #
vertex $-1 $730 $731 #
straight-curve $-1 -38.507136809065493 -25.381205614870161 8.5489684309047487 -1 0 0 I I #
point $-1 -75.426294970262646 -25.381205614870161 8.5489684309047487 #
point $-1 -75.426294970262646 -25.381205614870161 -8.5489684309047487 #
face $-1 $-1 $732 $53 $-1 $733 reversed single #
loop $-1 $-1 $560 $375 #
plane-surface $-1 0 0 8.5489684309047487 0 0 1 1 0 0 forward_v I I I I #
coedge $-1 $378 $565 $734 $735 forward $230 $-1 #
edge $-1 $736 -20.379332431425297 $563 -10.127692932771676 $378 $737 forward 7 unknown #
coedge $-1 $380 $379 $738 $739 reversed $145 $-1 #
coedge $-1 $740 $385 $380 $561 forward $555 $-1 #
edge $-1 $562 10.127692932771676 $741 20.379332431425297 $560 $742 forward 7 unknown #
vertex $-1 $386 $743 #
vertex $-1 $384 $744 #
straight-curve $-1 -75.426294970262646 25.381205614870165 0 0 0 -1 I I #
coedge $-1 $557 $383 $388 $571 forward $230 $-1 #
straight-curve $-1 -38.507136809065493 25.381205614870165 -8.5489684309047487 -1 0 0 I I #
coedge $-1 $385 $740 $387 $570 forward $555 $-1 #
straight-curve $-1 -38.507136809065493 25.381205614870165 8.5489684309047487 1 0 0 I I #
coedge $-1 $388 $387 $745 $746 forward $376 $-1 #
edge $-1 $747 -35.632845113523786 $390 -25.381205614870165 $387 $748 forward 7 unknown #
edge $-1 $389 25.381205614870165 $749 35.632845113523786 $388 $750 forward 7 unknown #
point $-1 -78.602252265999326 25.381205614870165 -8.5489684309047487 #
point $-1 -78.602252265999326 25.381205614870165 8.5489684309047487 #
plane-surface $-1 0 0 8.5489684309047487 0 0 1 1 0 0 forward_v I I I I #
coedge $-1 $585 $584 $577 $751 forward $393 $-1 #
coedge $-1 $577 $395 $397 $581 reversed $238 $-1 #
coedge $-1 $395 $576 $575 $751 reversed $238 $-1 #
coedge $-1 $403 $398 $395 $579 forward $404 $-1 #
edge $-1 $582 46.801281409825386 $752 58.603921030619894 $578 $753 forward 7 unknown #
coedge $-1 $397 $396 $585 $754 reversed $149 $-1 #
edge $-1 $755 -157.20450453199862 $582 -142.79614191157975 $576 $756 forward 7 unknown #
vertex $-1 $399 $757 #
straight-curve $-1 66.799612645204803 7.5924514934005316 8.5489684309047647 0 -1 0 I I #
coedge $-1 $575 $400 $403 $589 reversed $393 $-1 #
coedge $-1 $400 $575 $580 $754 forward $393 $-1 #
vertex $-1 $401 $758 #
straight-curve $-1 78.602252265999326 22.098668053317422 109.61393106696353 0 0 1 I I #
straight-curve $-1 -50.172138179123536 22.098668053317422 90.4534716888042 0.81915203911291934 0 -0.57357644374324357 I I #
edge $-1 $752 8.2711379202847048 $405 22.098668053317422 $584 $759 forward 7 unknown #
point $-1 78.602252265999326 22.098668053317422 8.5489684309047487 #
point $-1 66.799612645204817 22.098668053317422 8.5489684309047504 #
edge $-1 $760 1 $760 0 $408 $-1 forward 7 unknown #
vertex $-1 $409 $761 #
ellipse-curve $-1 71.502648344867396 15.184902986801063 2.7054927035257426 0.57357644374324357 0 0.81915203911291934 0.81915203911291934 0 -0.57357644374324357 1 I I #
point $-1 73.520084494715007 15.184902986801063 3.8432432911700198 #
loop $-1 $-1 $420 $412 #
plane-surface $-1 -78.602252265999326 0 0 1 0 0 0 0 -1 forward_v I I I I #
coedge $-1 $599 $415 $417 $603 reversed $253 $-1 #
coedge $-1 $415 $598 $762 $763 reversed $253 $-1 #
coedge $-1 $423 $418 $415 $601 forward $413 $-1 #
edge $-1 $604 -23.507466345359717 $764 -16.279060105696104 $600 $765 forward 7 unknown #
coedge $-1 $417 $416 $607 $766 reversed $158 $-1 #
edge $-1 $767 0 $604 10.222510257081796 $598 $768 forward 7 unknown #
vertex $-1 $419 $769 #
straight-curve $-1 -71.373846026335713 -8.3189507962157059 8.5489684309047469 0 1 0 I I #
coedge $-1 $762 $420 $423 $611 reversed $596 $-1 #
coedge $-1 $420 $762 $602 $766 forward $596 $-1 #
vertex $-1 $421 $770 #
straight-curve $-1 -78.602252265999326 -20.585200377427746 56.240465960704427 0 0 1 I I #
straight-curve $-1 -78.602252265999326 -20.585200377427746 1.320562023505218 -0.70710677298230451 0 -0.70710678939079041 I I #
edge $-1 $764 12.690602807435079 $424 20.585200377427746 $606 $771 forward 7 unknown #
point $-1 -78.602252265999326 -20.585200377427746 8.5489684309047487 #
point $-1 -71.373846026335713 -20.585200377427746 8.5489684309047487 #
edge $-1 $772 1 $772 0 $427 $-1 forward 7 unknown #
vertex $-1 $428 $773 #
ellipse-curve $-1 -73.860049054970688 -18.329601071715555 3.8067651621835252 -0.70710678939079041 0 0.70710677298230451 0.35355338649115226 0 0.35355339469539521 1 I I #
point $-1 -74.634495759676355 -18.329601071715555 5.288318621900375 #
edge $-1 $774 1 $774 0 $431 $-1 forward 7 unknown #
vertex $-1 $432 $775 #
ellipse-curve $-1 -73.860049054970688 -14.946202113147272 3.8067651621835252 -0.70710678939079041 0 0.70710677298230451 0.35355338649115226 0 0.35355339469539521 1 I I #
point $-1 -74.634495759676355 -14.946202113147272 5.288318621900375 #
loop $-1 $-1 $443 $435 #
plane-surface $-1 -78.602252265999326 0 0 1 0 0 0 0 -1 forward_v I I I I #
coedge $-1 $625 $438 $440 $629 reversed $275 $-1 #
coedge $-1 $438 $624 $776 $777 reversed $275 $-1 #
coedge $-1 $446 $441 $438 $627 forward $436 $-1 #
edge $-1 $630 -23.507466345359717 $778 -16.279060105696104 $626 $779 forward 7 unknown #
coedge $-1 $440 $439 $633 $780 reversed $172 $-1 #
edge $-1 $781 0 $630 10.222510257081796 $624 $782 forward 7 unknown #
vertex $-1 $442 $783 #
straight-curve $-1 -71.373846026335713 -2.7729835987385698 8.5489684309047469 0 1 0 I I #
coedge $-1 $776 $443 $446 $637 reversed $622 $-1 #
coedge $-1 $443 $776 $628 $780 forward $622 $-1 #
vertex $-1 $444 $784 #
straight-curve $-1 -78.602252265999326 -9.4932659824734724 56.240465960704427 0 0 1 I I #
straight-curve $-1 -78.602252265999326 -9.4932659824734724 1.320562023505218 -0.70710677298230451 0 -0.70710678939079041 I I #
edge $-1 $778 1.5986684124808068 $447 9.4932659824734724 $632 $785 forward 7 unknown #
point $-1 -78.602252265999326 -9.4932659824734724 8.5489684309047487 #
point $-1 -71.373846026335713 -9.4932659824734724 8.5489684309047487 #
edge $-1 $786 1 $786 0 $450 $-1 forward 7 unknown #
vertex $-1 $451 $787 #
ellipse-curve $-1 -73.860049054970688 -7.2376666767612789 3.8067651621835252 -0.70710678939079041 0 0.70710677298230451 0.35355338649115226 0 0.35355339469539521 1 I I #
point $-1 -74.634495759676355 -7.2376666767612789 5.288318621900375 #
edge $-1 $788 1 $788 0 $454 $-1 forward 7 unknown #
vertex $-1 $455 $789 #
ellipse-curve $-1 -73.860049054970688 -3.8542677181930003 3.8067651621835252 -0.70710678939079041 0 0.70710677298230451 0.35355338649115226 0 0.35355339469539521 1 I I #
point $-1 -74.634495759676355 -3.8542677181930003 5.288318621900375 #
loop $-1 $-1 $466 $458 #
plane-surface $-1 -78.602252265999326 0 0 1 0 0 0 0 -1 forward_v I I I I #
coedge $-1 $651 $461 $463 $655 reversed $297 $-1 #
coedge $-1 $461 $650 $790 $791 reversed $297 $-1 #
coedge $-1 $469 $464 $461 $653 forward $459 $-1 #
edge $-1 $656 -23.507466345359717 $792 -16.279060105696104 $652 $793 forward 7 unknown #
coedge $-1 $463 $462 $659 $794 reversed $186 $-1 #
edge $-1 $795 0 $656 10.222510257081796 $650 $796 forward 7 unknown #
vertex $-1 $465 $797 #
straight-curve $-1 -71.373846026335713 2.7729835987385663 8.5489684309047469 0 1 0 I I #
coedge $-1 $790 $466 $469 $663 reversed $648 $-1 #
coedge $-1 $466 $790 $654 $794 forward $648 $-1 #
vertex $-1 $467 $798 #
straight-curve $-1 -78.602252265999326 1.5986684124807997 56.240465960704427 0 0 1 I I #
straight-curve $-1 -78.602252265999326 1.5986684124807997 1.320562023505218 -0.70710677298230451 0 -0.70710678939079041 I I #
edge $-1 $792 -9.4932659824734653 $470 -1.5986684124807997 $658 $799 forward 7 unknown #
point $-1 -78.602252265999326 1.5986684124807997 8.5489684309047487 #
point $-1 -71.373846026335713 1.5986684124807997 8.5489684309047487 #
edge $-1 $800 1 $800 0 $473 $-1 forward 7 unknown #
vertex $-1 $474 $801 #
ellipse-curve $-1 -73.860049054970688 3.8542677181929932 3.8067651621835252 -0.70710678939079041 0 0.70710677298230451 0.35355338649115226 0 0.35355339469539521 1 I I #
point $-1 -74.634495759676355 3.8542677181929932 5.288318621900375 #
edge $-1 $802 1 $802 0 $477 $-1 forward 7 unknown #
vertex $-1 $478 $803 #
ellipse-curve $-1 -73.860049054970688 7.2376666767612718 3.8067651621835252 -0.70710678939079041 0 0.70710677298230451 0.35355338649115226 0 0.35355339469539521 1 I I #
point $-1 -74.634495759676355 7.2376666767612718 5.288318621900375 #
loop $-1 $-1 $489 $481 #
plane-surface $-1 -78.602252265999326 0 0 1 0 0 0 0 -1 forward_v I I I I #
coedge $-1 $677 $484 $486 $681 reversed $319 $-1 #
coedge $-1 $484 $676 $804 $805 reversed $319 $-1 #
coedge $-1 $492 $487 $484 $679 forward $482 $-1 #
edge $-1 $682 -23.507466345359717 $806 -16.279060105696104 $678 $807 forward 7 unknown #
coedge $-1 $486 $485 $685 $808 reversed $200 $-1 #
edge $-1 $809 0 $682 10.222510257081796 $676 $810 forward 7 unknown #
vertex $-1 $488 $811 #
straight-curve $-1 -71.373846026335713 8.3189507962157023 8.5489684309047469 0 1 0 I I #
coedge $-1 $804 $489 $492 $689 reversed $674 $-1 #
coedge $-1 $489 $804 $680 $808 forward $674 $-1 #
vertex $-1 $490 $812 #
straight-curve $-1 -78.602252265999326 12.690602807435072 56.240465960704427 0 0 1 I I #
straight-curve $-1 -78.602252265999326 12.690602807435072 1.320562023505218 -0.70710677298230451 0 -0.70710678939079041 I I #
edge $-1 $806 -20.585200377427739 $493 -12.690602807435072 $684 $813 forward 7 unknown #
point $-1 -78.602252265999326 12.690602807435072 8.5489684309047487 #
point $-1 -71.373846026335713 12.690602807435072 8.5489684309047487 #
edge $-1 $814 1 $814 0 $496 $-1 forward 7 unknown #
vertex $-1 $497 $815 #
ellipse-curve $-1 -73.860049054970688 14.946202113147265 3.8067651621835252 -0.70710678939079041 0 0.70710677298230451 0.35355338649115226 0 0.35355339469539521 1 I I #
point $-1 -74.634495759676355 14.946202113147265 5.288318621900375 #
edge $-1 $816 1 $816 0 $500 $-1 forward 7 unknown #
vertex $-1 $501 $817 #
ellipse-curve $-1 -73.860049054970688 18.329601071715544 3.8067651621835252 -0.70710678939079041 0 0.70710677298230451 0.35355338649115226 0 0.35355339469539521 1 I I #
point $-1 -74.634495759676355 18.329601071715544 5.288318621900375 #
plane-surface $-1 78.602252265999326 0 0 -1 0 0 0 0 1 forward_v I I I I #
coedge $-1 $509 $507 $511 $705 reversed $341 $-1 #
edge $-1 $522 -8.5489684309047487 $707 8.5489684309047487 $521 $818 forward 7 unknown #
vertex $-1 $705 $819 #
straight-curve $-1 -78.602252265999326 -35.632845113523786 0 0 0 -1 I I #
edge $-1 $703 -35.632845113523786 $707 35.632845113523786 $701 $820 forward 7 unknown #
straight-curve $-1 0 -35.632845113523786 -8.5489684309047487 -1 0 0 I I #
vertex $-1 $514 $821 #
straight-curve $-1 0 35.632845113523786 -8.5489684309047487 1 0 0 I I #
point $-1 78.602252265999326 35.632845113523786 -8.5489684309047487 #
point $-1 78.602252265999326 -35.632845113523786 -8.5489684309047487 #
straight-curve $-1 -78.602252265999326 0 8.5489684309047487 0 -1 0 I I #
point $-1 -78.602252265999326 35.632845113523786 8.5489684309047487 #
point $-1 -78.602252265999326 -35.632845113523786 8.5489684309047487 #
straight-curve $-1 78.602252265999326 -35.632845113523786 0 0 0 -1 I I #
straight-curve $-1 78.602252265999326 35.632845113523786 0 0 0 -1 I I #
plane-surface $-1 0 -35.632845113523786 0 0 1 0 0 0 1 forward_v I I I I #
coedge $-1 $822 $534 $546 $728 reversed $360 $-1 #
coedge $-1 $534 $822 $549 $730 reversed $360 $-1 #
edge $-1 $823 -78.602252265999326 $543 -75.426294970262646 $539 $824 forward 7 unknown #
straight-curve $-1 -75.426294970262646 -15.253512682098487 8.5489684309047487 0 1 0 I I #
coedge $-1 $546 $537 $540 $724 forward $532 $-1 #
straight-curve $-1 -75.426294970262646 -15.253512682098487 -8.5489684309047487 0 -1 0 I I #
coedge $-1 $540 $539 $822 $825 forward $541 $-1 #
edge $-1 $542 75.426294970262646 $826 78.602252265999326 $540 $827 forward 7 unknown #
point $-1 -75.426294970262646 -35.632845113523786 -8.5489684309047487 #
point $-1 -75.426294970262646 -35.632845113523786 8.5489684309047487 #
straight-curve $-1 -78.602252265999326 -25.381205614870161 0 0 0 -1 I I #
edge $-1 $826 -35.632845113523786 $547 -25.381205614870161 $717 $828 forward 7 unknown #
point $-1 -78.602252265999326 -25.381205614870161 -8.5489684309047487 #
edge $-1 $550 25.381205614870161 $823 35.632845113523786 $718 $829 forward 7 unknown #
point $-1 -78.602252265999326 -25.381205614870161 8.5489684309047487 #
loop $-1 $-1 $738 $554 #
plane-surface $-1 0 35.632845113523786 0 0 -1 0 0 0 -1 forward_v I I I I #
coedge $-1 $745 $738 $557 $735 reversed $732 $-1 #
edge $-1 $749 -78.602252265999326 $736 -75.426294970262646 $734 $830 forward 7 unknown #
vertex $-1 $558 $831 #
straight-curve $-1 -75.426294970262646 15.253512682098489 -8.5489684309047487 0 -1 0 I I #
coedge $-1 $734 $832 $559 $739 forward $732 $-1 #
edge $-1 $741 -8.5489684309047487 $736 8.5489684309047487 $738 $833 forward 7 unknown #
coedge $-1 $567 $560 $832 $834 forward $555 $-1 #
vertex $-1 $834 $835 #
straight-curve $-1 -75.426294970262646 15.253512682098489 8.5489684309047487 0 1 0 I I #
point $-1 -75.426294970262646 25.381205614870165 8.5489684309047487 #
point $-1 -75.426294970262646 25.381205614870165 -8.5489684309047487 #
coedge $-1 $832 $734 $569 $746 reversed $732 $-1 #
edge $-1 $747 -8.5489684309047487 $749 8.5489684309047487 $745 $836 forward 7 unknown #
vertex $-1 $834 $837 #
straight-curve $-1 -78.602252265999326 0 8.5489684309047487 0 -1 0 I I #
vertex $-1 $735 $838 #
straight-curve $-1 -78.602252265999326 0 -8.5489684309047487 0 1 0 I I #
edge $-1 $752 101.06496263605878 $755 109.32926002804173 $575 $839 forward 7 unknown #
vertex $-1 $589 $840 #
straight-curve $-1 19.998331235379432 8.2711379202847048 8.5489684309047504 1 0 0 I I #
edge $-1 $755 0.67868642688417324 $586 14.50621655991689 $585 $841 forward 7 unknown #
vertex $-1 $754 $842 #
straight-curve $-1 -50.172138179123536 8.2711379202847048 90.4534716888042 -0.81915203911291934 0 0.57357644374324357 I I #
point $-1 66.799612645204817 8.2711379202847048 8.5489684309047504 #
point $-1 78.602252265999326 22.098668053317422 0.28467103892180035 #
straight-curve $-1 78.602252265999326 0 8.5489684309047487 0 1 0 I I #
vertex $-1 $592 $843 #
point $-1 72.321800383980317 15.184902986801063 2.131916259782499 #
coedge $-1 $607 $606 $599 $763 forward $596 $-1 #
edge $-1 $764 47.691497529799676 $767 54.919903937199209 $762 $844 forward 7 unknown #
vertex $-1 $611 $845 #
straight-curve $-1 -94.881312371695429 -12.690602807435079 8.5489684309047504 -1 0 0 I I #
edge $-1 $767 4.3716520112193731 $608 12.26624958121204 $607 $846 forward 7 unknown #
vertex $-1 $766 $847 #
straight-curve $-1 -78.602252265999326 -12.690602807435079 1.320562023505218 0.70710677298230451 0 0.70710678939079041 I I #
point $-1 -71.373846026335713 -12.690602807435079 8.5489684309047487 #
point $-1 -78.602252265999326 -20.585200377427746 1.320562023505218 #
straight-curve $-1 -78.602252265999326 0 8.5489684309047487 0 -1 0 I I #
vertex $-1 $614 $848 #
point $-1 -73.506495668479545 -18.329601071715555 4.16031855687892 #
vertex $-1 $618 $849 #
point $-1 -73.506495668479545 -14.946202113147272 4.16031855687892 #
coedge $-1 $633 $632 $625 $777 forward $622 $-1 #
edge $-1 $778 47.691497529799676 $781 54.919903937199209 $776 $850 forward 7 unknown #
vertex $-1 $637 $851 #
straight-curve $-1 -94.881312371695429 -1.5986684124808068 8.5489684309047504 -1 0 0 I I #
edge $-1 $781 -1.174315186257763 $634 6.7202823837349026 $633 $852 forward 7 unknown #
vertex $-1 $780 $853 #
straight-curve $-1 -78.602252265999326 -1.5986684124808068 1.320562023505218 0.70710677298230451 0 0.70710678939079041 I I #
point $-1 -71.373846026335713 -1.5986684124808068 8.5489684309047487 #
point $-1 -78.602252265999326 -9.4932659824734724 1.320562023505218 #
straight-curve $-1 -78.602252265999326 0 8.5489684309047487 0 -1 0 I I #
vertex $-1 $640 $854 #
point $-1 -73.506495668479545 -7.2376666767612789 4.16031855687892 #
vertex $-1 $644 $855 #
point $-1 -73.506495668479545 -3.8542677181930003 4.16031855687892 #
coedge $-1 $659 $658 $651 $791 forward $648 $-1 #
edge $-1 $792 47.691497529799676 $795 54.919903937199209 $790 $856 forward 7 unknown #
vertex $-1 $663 $857 #
straight-curve $-1 -94.881312371695429 9.4932659824734653 8.5489684309047504 -1 0 0 I I #
edge $-1 $795 -6.7202823837348991 $660 1.1743151862577665 $659 $858 forward 7 unknown #
vertex $-1 $794 $859 #
straight-curve $-1 -78.602252265999326 9.4932659824734653 1.320562023505218 0.70710677298230451 0 0.70710678939079041 I I #
point $-1 -71.373846026335713 9.4932659824734653 8.5489684309047487 #
point $-1 -78.602252265999326 1.5986684124807997 1.320562023505218 #
straight-curve $-1 -78.602252265999326 0 8.5489684309047487 0 -1 0 I I #
vertex $-1 $666 $860 #
point $-1 -73.506495668479545 3.8542677181929932 4.16031855687892 #
vertex $-1 $670 $861 #
point $-1 -73.506495668479545 7.2376666767612718 4.16031855687892 #
coedge $-1 $685 $684 $677 $805 forward $674 $-1 #
edge $-1 $806 47.691497529799676 $809 54.919903937199209 $804 $862 forward 7 unknown #
vertex $-1 $689 $863 #
straight-curve $-1 -94.881312371695429 20.585200377427739 8.5489684309047504 -1 0 0 I I #
edge $-1 $809 -12.266249581212037 $686 -4.3716520112193695 $685 $864 forward 7 unknown #
vertex $-1 $808 $865 #
straight-curve $-1 -78.602252265999326 20.585200377427739 1.320562023505218 0.70710677298230451 0 0.70710678939079041 I I #
point $-1 -71.373846026335713 20.585200377427739 8.5489684309047487 #
point $-1 -78.602252265999326 12.690602807435072 1.320562023505218 #
straight-curve $-1 -78.602252265999326 0 8.5489684309047487 0 -1 0 I I #
vertex $-1 $692 $866 #
point $-1 -73.506495668479545 14.946202113147265 4.16031855687892 #
vertex $-1 $696 $867 #
point $-1 -73.506495668479545 18.329601071715544 4.16031855687892 #
straight-curve $-1 -78.602252265999326 35.632845113523786 0 0 0 -1 I I #
point $-1 -78.602252265999326 -35.632845113523786 -8.5489684309047487 #
straight-curve $-1 -78.602252265999326 0 -8.5489684309047487 0 1 0 I I #
point $-1 -78.602252265999326 35.632845113523786 -8.5489684309047487 #
coedge $-1 $718 $717 $723 $825 reversed $360 $-1 #
vertex $-1 $730 $868 #
straight-curve $-1 0 -35.632845113523786 8.5489684309047487 1 0 0 I I #
edge $-1 $823 -8.5489684309047487 $826 8.5489684309047487 $822 $869 forward 7 unknown #
vertex $-1 $728 $870 #
straight-curve $-1 0 -35.632845113523786 -8.5489684309047487 -1 0 0 I I #
straight-curve $-1 -78.602252265999326 0 -8.5489684309047487 0 1 0 I I #
straight-curve $-1 -78.602252265999326 0 8.5489684309047487 0 -1 0 I I #
straight-curve $-1 0 35.632845113523786 -8.5489684309047487 1 0 0 I I #
point $-1 -75.426294970262646 35.632845113523786 -8.5489684309047487 #
coedge $-1 $738 $745 $740 $834 reversed $732 $-1 #
straight-curve $-1 -75.426294970262646 35.632845113523786 0 0 0 -1 I I #
edge $-1 $741 75.426294970262646 $747 78.602252265999326 $832 $871 forward 7 unknown #
point $-1 -75.426294970262646 35.632845113523786 8.5489684309047487 #
straight-curve $-1 -78.602252265999326 35.632845113523786 0 0 0 -1 I I #
point $-1 -78.602252265999326 35.632845113523786 8.5489684309047487 #
point $-1 -78.602252265999326 35.632845113523786 -8.5489684309047487 #
straight-curve $-1 78.602252265999326 8.2711379202847048 109.61393106696353 0 0 -1 I I #
point $-1 78.602252265999326 8.2711379202847048 8.5489684309047487 #
straight-curve $-1 78.60225226599934 7.5924514934005316 0.28467103892180035 0 1 0 I I #
point $-1 78.602252265999326 8.2711379202847048 0.28467103892180035 #
point $-1 70.929071901124161 15.184902986801063 1.8863406644128233 #
straight-curve $-1 -78.602252265999326 -12.690602807435079 56.240465960704427 0 0 -1 I I #
point $-1 -78.602252265999326 -12.690602807435079 8.5489684309047487 #
straight-curve $-1 -78.602252265999326 -8.3189507962157059 1.3205620235052145 0 -1 0 I I #
point $-1 -78.602252265999326 -12.690602807435079 1.320562023505218 #
point $-1 -73.506495660275306 -18.329601071715555 3.4532117756923726 #
point $-1 -73.506495660275306 -14.946202113147272 3.4532117756923726 #
straight-curve $-1 -78.602252265999326 -1.5986684124808068 56.240465960704427 0 0 -1 I I #
point $-1 -78.602252265999326 -1.5986684124808068 8.5489684309047487 #
straight-curve $-1 -78.602252265999326 -2.7729835987385698 1.3205620235052145 0 -1 0 I I #
point $-1 -78.602252265999326 -1.5986684124808068 1.320562023505218 #
point $-1 -73.506495660275306 -7.2376666767612789 3.4532117756923726 #
point $-1 -73.506495660275306 -3.8542677181930003 3.4532117756923726 #
straight-curve $-1 -78.602252265999326 9.4932659824734653 56.240465960704427 0 0 -1 I I #
point $-1 -78.602252265999326 9.4932659824734653 8.5489684309047487 #
straight-curve $-1 -78.602252265999326 2.7729835987385663 1.3205620235052145 0 -1 0 I I #
point $-1 -78.602252265999326 9.4932659824734653 1.320562023505218 #
point $-1 -73.506495660275306 3.8542677181929932 3.4532117756923726 #
point $-1 -73.506495660275306 7.2376666767612718 3.4532117756923726 #
straight-curve $-1 -78.602252265999326 20.585200377427739 56.240465960704427 0 0 -1 I I #
point $-1 -78.602252265999326 20.585200377427739 8.5489684309047487 #
straight-curve $-1 -78.602252265999326 8.3189507962157023 1.3205620235052145 0 -1 0 I I #
point $-1 -78.602252265999326 20.585200377427739 1.320562023505218 #
point $-1 -73.506495660275306 14.946202113147265 3.4532117756923726 #
point $-1 -73.506495660275306 18.329601071715544 3.4532117756923726 #
point $-1 -78.602252265999326 -35.632845113523786 8.5489684309047487 #
straight-curve $-1 -78.602252265999326 -35.632845113523786 0 0 0 -1 I I #
point $-1 -78.602252265999326 -35.632845113523786 -8.5489684309047487 #
straight-curve $-1 0 35.632845113523786 8.5489684309047487 -1 0 0 I I #
End-of-ACIS-data 