500 0 3 0           
7 Unknown 11 ACIS 5.0 NT 24 Fri Mar 26 00:32:59 1999 
-1 9.9999999999999995e-007 1e-010 
body $-1 $3 $-1 $4 #
body $-1 $5 $-1 $6 #
body $-1 $7 $-1 $8 #
lump $-1 $-1 $9 $0 #
transform $-1 1 0 0 0 1 0 0 0 1 42.535477767265846 28.284074139593855 9.6688253321888684 1 rotate no_reflect no_shear #
lump $-1 $-1 $10 $1 #
transform $-1 1 0 0 0 1 0 0 0 1 42.535477767265846 28.284074139593855 9.6688253321888684 1 rotate no_reflect no_shear #
lump $-1 $-1 $11 $2 #
transform $-1 1 0 0 0 1 0 0 0 1 42.535477767265846 28.284074139593855 9.6688253321888684 1 rotate no_reflect no_shear #
shell $-1 $-1 $-1 $12 $-1 $3 #
shell $-1 $-1 $-1 $13 $-1 $5 #
shell $-1 $-1 $-1 $14 $-1 $7 #
face $-1 $15 $16 $9 $-1 $17 forward single #
face $-1 $18 $19 $10 $-1 $20 forward single #
face $-1 $21 $22 $11 $-1 $23 reversed single #
face $-1 $24 $25 $9 $-1 $26 reversed single #
loop $-1 $-1 $27 $12 #
plane-surface $-1 0 0 9.6688253321888684 0 0 1 1 0 0 forward_v I I I I #
face $-1 $28 $29 $10 $-1 $30 forward single #
loop $-1 $-1 $31 $13 #
plane-surface $-1 5.0507079276417919 -88.438324378023253 61.433184918091619 -1 0 0 0 -0.70710678939079041 0.70710677298230451 forward_v I I I I #
face $-1 $32 $33 $11 $-1 $34 reversed single #
loop $-1 $35 $36 $14 #
cone-surface $-1 -1.2707440235058414 -22.765702438813403 4.1504535647745575 0 0.70710678939079041 -0.70710677298230451 2 0 0 1 I I 0 1 2 forward I I I I #
face $-1 $37 $38 $9 $-1 $39 reversed single #
loop $-1 $-1 $40 $15 #
plane-surface $-1 0 0 -9.6688253321888684 0 0 1 1 0 0 forward_v I I I I #
coedge $-1 $41 $42 $43 $44 forward $16 $-1 #
face $-1 $45 $46 $10 $-1 $47 forward single #
loop $-1 $-1 $48 $18 #
plane-surface $-1 -1.2707440235058414 -28.284074139593855 1.2789360755477972 0 -0.70710678939079041 0.70710677298230451 1 0 0 forward_v I I I I #
coedge $-1 $49 $50 $51 $52 reversed $19 $-1 #
face $-1 $53 $54 $11 $-1 $55 forward single #
loop $-1 $56 $57 $21 #
cone-surface $-1 -1.2707440235058414 -20.735168479618572 2.119919652698476 0 0.70710678939079041 -0.70710677298230451 1 0 0 1 I I -0.70710678118654746 0.70710678118654746 1 forward I I I I #
loop $-1 $-1 $58 $14 #
coedge $-1 $36 $36 $59 $60 reversed $22 $-1 #
face $-1 $61 $62 $9 $-1 $63 reversed single #
loop $-1 $-1 $64 $24 #
plane-surface $-1 0 -28.284074139593855 0 0 1 0 0 0 1 forward_v I I I I #
coedge $-1 $65 $66 $67 $68 forward $25 $-1 #
coedge $-1 $69 $27 $70 $71 forward $16 $-1 #
coedge $-1 $27 $69 $72 $73 forward $16 $-1 #
coedge $-1 $74 $75 $27 $44 reversed $76 $-1 #
edge $-1 $77 -28.284074139593855 $78 28.284074139593855 $43 $79 forward 7 unknown #
face $-1 $80 $81 $10 $-1 $82 forward single #
loop $-1 $-1 $83 $28 #
plane-surface $-1 -7.5921959746534746 -88.438324378023253 61.433184918091619 1 0 0 0 0.70710678939079041 -0.70710677298230451 forward_v I I I I #
coedge $-1 $84 $85 $86 $87 reversed $29 $-1 #
coedge $-1 $50 $31 $85 $88 forward $19 $-1 #
coedge $-1 $31 $49 $89 $90 reversed $19 $-1 #
coedge $-1 $91 $86 $31 $52 forward $81 $-1 #
edge $-1 $92 -24.3249771113706 $93 -15.935088049417772 $51 $94 forward 7 unknown #
face $-1 $95 $96 $11 $-1 $97 forward single #
loop $-1 $-1 $98 $32 #
plane-surface $-1 5.0507079276417919 -88.438324378023253 61.433184918091619 -1 0 0 0 -0.70710678939079041 0.70710677298230451 forward_v I I I I #
loop $-1 $-1 $99 $21 #
coedge $-1 $57 $57 $58 $100 forward $33 $-1 #
coedge $-1 $58 $58 $57 $100 reversed $35 $-1 #
coedge $-1 $59 $59 $36 $60 forward $96 $-1 #
edge $-1 $101 6.2803696161301545e-016 $101 6.2831853071796013 $59 $102 forward 7 unknown #
face $-1 $103 $104 $9 $-1 $105 reversed single #
loop $-1 $-1 $106 $37 #
plane-surface $-1 -42.535477767265846 0 0 1 0 0 0 0 -1 forward_v I I I I #
coedge $-1 $107 $72 $108 $109 forward $38 $-1 #
coedge $-1 $110 $40 $107 $111 forward $25 $-1 #
coedge $-1 $40 $110 $112 $113 forward $25 $-1 #
coedge $-1 $75 $74 $40 $68 reversed $76 $-1 #
edge $-1 $114 -28.284074139593855 $115 28.284074139593855 $67 $116 forward 7 unknown #
coedge $-1 $42 $41 $117 $118 forward $16 $-1 #
coedge $-1 $119 $120 $41 $71 reversed $104 $-1 #
edge $-1 $78 -42.535477767265846 $121 42.535477767265846 $70 $122 forward 7 unknown #
coedge $-1 $64 $123 $42 $73 reversed $38 $-1 #
edge $-1 $124 -42.535477767265846 $77 42.535477767265846 $72 $125 forward 7 unknown #
coedge $-1 $67 $43 $123 $126 forward $76 $-1 #
coedge $-1 $43 $67 $119 $127 reversed $76 $-1 #
loop $-1 $-1 $74 $103 #
vertex $-1 $44 $128 #
vertex $-1 $44 $129 #
straight-curve $-1 42.535477767265846 0 9.6688253321888684 0 1 0 I I #
face $-1 $130 $131 $10 $-1 $132 reversed single #
loop $-1 $-1 $133 $45 #
plane-surface $-1 0 0 9.6688253321888684 0 0 1 1 0 0 forward_v I I I I #
coedge $-1 $134 $135 $133 $136 reversed $46 $-1 #
coedge $-1 $137 $48 $135 $138 reversed $29 $-1 #
coedge $-1 $48 $137 $49 $88 reversed $29 $-1 #
coedge $-1 $51 $133 $48 $87 forward $81 $-1 #
edge $-1 $139 -6.9568239629005539 $92 5.6860799393947126 $86 $140 forward 7 unknown #
edge $-1 $92 -11.865095035884755 $141 0 $49 $142 forward 7 unknown #
coedge $-1 $143 $144 $50 $90 forward $145 $-1 #
edge $-1 $93 21.04776712685694 $141 29.437656383498013 $89 $146 forward 7 unknown #
coedge $-1 $147 $51 $144 $148 forward $81 $-1 #
vertex $-1 $87 $149 #
vertex $-1 $148 $150 #
straight-curve $-1 5.0507079276417919 -44.219162189011627 9.6688253321888666 0 -1 0 I I #
face $-1 $151 $152 $11 $-1 $153 forward single #
loop $-1 $154 $59 $53 #
plane-surface $-1 -1.2707440235058414 -28.284074139593855 1.2789360755477972 0 -0.70710678939079041 0.70710677298230451 1 0 0 forward_v I I I I #
coedge $-1 $155 $156 $157 $158 reversed $54 $-1 #
coedge $-1 $99 $99 $-1 $159 forward $56 $-1 #
edge $-1 $160 0 $160 6.2831853071796004 $57 $161 forward 7 unknown #
vertex $-1 $60 $162 #
ellipse-curve $-1 -1.2707440235058414 -24.089129608617441 5.4738807038683328 0 0.70710678939079041 -0.70710677298230451 2 0 0 1 I I #
face $-1 $-1 $76 $9 $-1 $163 reversed single #
loop $-1 $-1 $119 $61 #
plane-surface $-1 0 28.284074139593855 0 0 -1 0 0 0 -1 forward_v I I I I #
coedge $-1 $164 $117 $120 $165 forward $62 $-1 #
coedge $-1 $123 $64 $65 $111 reversed $38 $-1 #
coedge $-1 $117 $164 $64 $109 reversed $62 $-1 #
edge $-1 $124 -9.6688253321888684 $166 9.6688253321888684 $108 $167 forward 7 unknown #
coedge $-1 $66 $65 $164 $168 forward $25 $-1 #
edge $-1 $115 -42.535477767265846 $166 42.535477767265846 $107 $169 forward 7 unknown #
coedge $-1 $120 $119 $66 $113 reversed $104 $-1 #
edge $-1 $170 -42.535477767265846 $114 42.535477767265846 $112 $171 forward 7 unknown #
vertex $-1 $68 $172 #
vertex $-1 $126 $173 #
straight-curve $-1 42.535477767265846 0 -9.6688253321888684 0 -1 0 I I #
coedge $-1 $106 $108 $69 $118 reversed $62 $-1 #
edge $-1 $121 -28.284074139593855 $124 28.284074139593855 $117 $174 forward 7 unknown #
coedge $-1 $112 $70 $75 $127 forward $104 $-1 #
coedge $-1 $70 $112 $106 $165 reversed $104 $-1 #
vertex $-1 $71 $175 #
straight-curve $-1 0 28.284074139593855 9.6688253321888684 -1 0 0 I I #
coedge $-1 $72 $107 $74 $126 reversed $38 $-1 #
vertex $-1 $118 $176 #
straight-curve $-1 0 -28.284074139593855 9.6688253321888684 1 0 0 I I #
edge $-1 $77 -9.6688253321888684 $115 9.6688253321888684 $74 $177 forward 7 unknown #
edge $-1 $78 -9.6688253321888684 $114 9.6688253321888684 $75 $178 forward 7 unknown #
point $-1 42.535477767265846 -28.284074139593855 9.6688253321888684 #
point $-1 42.535477767265846 28.284074139593855 9.6688253321888684 #
face $-1 $179 $145 $10 $-1 $180 reversed single #
loop $-1 $-1 $181 $80 #
plane-surface $-1 0 0 -9.6688253321888684 0 0 1 1 0 0 forward_v I I I I #
coedge $-1 $86 $182 $83 $136 forward $81 $-1 #
coedge $-1 $135 $83 $183 $184 reversed $46 $-1 #
coedge $-1 $83 $134 $84 $138 forward $46 $-1 #
edge $-1 $185 15.935088049417772 $139 24.3249771113706 $133 $186 forward 7 unknown #
coedge $-1 $85 $84 $143 $187 reversed $29 $-1 #
edge $-1 $188 0 $139 11.865095035884755 $135 $189 forward 7 unknown #
vertex $-1 $87 $190 #
straight-curve $-1 -0.63537201175292068 -19.89418507764103 9.6688253321888684 1 0 0 I I #
vertex $-1 $187 $191 #
straight-curve $-1 5.0507079276417919 -28.284074139593855 1.2789360755477972 0 -0.70710677298230451 -0.70710678939079041 I I #
coedge $-1 $183 $89 $137 $187 forward $145 $-1 #
coedge $-1 $89 $192 $91 $148 reversed $145 $-1 #
loop $-1 $-1 $183 $130 #
straight-curve $-1 5.0507079276417919 -28.284074139593855 30.71659245904581 0 0 -1 I I #
coedge $-1 $193 $91 $194 $195 forward $81 $-1 #
edge $-1 $93 5.0507079276417919 $196 42.535477767265846 $144 $197 forward 7 unknown #
point $-1 5.0507079276417919 -19.894185077641026 9.6688253321888684 #
point $-1 5.0507079276417919 -28.284074139593855 9.6688253321888684 #
face $-1 $198 $199 $11 $-1 $200 forward single #
loop $-1 $-1 $201 $95 #
plane-surface $-1 -7.5921959746534746 -88.438324378023253 61.433184918091619 1 0 0 0 0.70710678939079041 -0.70710677298230451 forward_v I I I I #
loop $-1 $-1 $202 $53 #
coedge $-1 $156 $98 $203 $204 forward $54 $-1 #
coedge $-1 $98 $155 $205 $206 reversed $54 $-1 #
coedge $-1 $207 $208 $98 $158 forward $199 $-1 #
edge $-1 $209 -24.3249771113706 $210 -15.935088049417772 $157 $211 forward 7 unknown #
edge $-1 $212 1 $212 0 $99 $-1 forward 7 unknown #
vertex $-1 $100 $213 #
ellipse-curve $-1 -1.2707440235058414 -21.442275269009361 2.8270264256807804 0 -0.70710678939079041 0.70710677298230451 2 0 0 1 I I #
point $-1 0.72925597649415863 -24.089129608617444 5.4738807038683346 #
plane-surface $-1 42.535477767265846 0 0 -1 0 0 0 0 1 forward_v I I I I #
coedge $-1 $108 $106 $110 $168 reversed $62 $-1 #
edge $-1 $121 -9.6688253321888684 $170 9.6688253321888684 $120 $214 forward 7 unknown #
vertex $-1 $168 $215 #
straight-curve $-1 -42.535477767265846 -28.284074139593855 0 0 0 -1 I I #
edge $-1 $166 -28.284074139593855 $170 28.284074139593855 $164 $216 forward 7 unknown #
straight-curve $-1 0 -28.284074139593855 -9.6688253321888684 -1 0 0 I I #
vertex $-1 $113 $217 #
straight-curve $-1 0 28.284074139593855 -9.6688253321888684 1 0 0 I I #
point $-1 42.535477767265846 28.284074139593855 -9.6688253321888684 #
point $-1 42.535477767265846 -28.284074139593855 -9.6688253321888684 #
straight-curve $-1 -42.535477767265846 0 9.6688253321888684 0 -1 0 I I #
point $-1 -42.535477767265846 28.284074139593855 9.6688253321888684 #
point $-1 -42.535477767265846 -28.284074139593855 9.6688253321888684 #
straight-curve $-1 42.535477767265846 -28.284074139593855 0 0 0 -1 I I #
straight-curve $-1 42.535477767265846 28.284074139593855 0 0 0 -1 I I #
face $-1 $218 $219 $10 $-1 $220 reversed single #
plane-surface $-1 0 -28.284074139593855 0 0 1 0 0 0 1 forward_v I I I I #
coedge $-1 $221 $222 $223 $224 forward $131 $-1 #
coedge $-1 $133 $225 $226 $227 forward $81 $-1 #
coedge $-1 $226 $143 $134 $184 forward $145 $-1 #
edge $-1 $188 -29.437656383498013 $185 -21.04776712685694 $183 $228 forward 7 unknown #
vertex $-1 $184 $229 #
straight-curve $-1 -7.5921959746534746 -44.219162189011627 9.6688253321888666 0 1 0 I I #
edge $-1 $141 -5.6860799393947126 $188 6.9568239629005539 $143 $230 forward 7 unknown #
vertex $-1 $187 $231 #
straight-curve $-1 -7.5921959746534746 -28.284074139593855 1.2789360755477972 0 0.70710677298230451 0.70710678939079041 I I #
point $-1 -7.5921959746534746 -19.894185077641026 9.6688253321888684 #
point $-1 5.0507079276417919 -28.284074139593855 1.2789360755477972 #
coedge $-1 $144 $232 $233 $234 reversed $145 $-1 #
coedge $-1 $225 $147 $235 $236 forward $81 $-1 #
coedge $-1 $233 $237 $147 $195 reversed $238 $-1 #
edge $-1 $196 -28.284074139593855 $239 28.284074139593855 $194 $240 forward 7 unknown #
vertex $-1 $195 $241 #
straight-curve $-1 0 -28.284074139593855 9.6688253321888684 1 0 0 I I #
face $-1 $242 $243 $11 $-1 $244 reversed single #
loop $-1 $-1 $245 $151 #
plane-surface $-1 0 0 9.6688253321888684 0 0 1 1 0 0 forward_v I I I I #
coedge $-1 $246 $247 $245 $248 reversed $152 $-1 #
coedge $-1 $249 $203 $208 $250 reversed $154 $-1 #
coedge $-1 $202 $251 $155 $204 reversed $154 $-1 #
edge $-1 $209 -11.865095035884755 $252 0 $155 $253 forward 7 unknown #
coedge $-1 $254 $255 $156 $206 forward $256 $-1 #
edge $-1 $210 21.04776712685694 $252 29.437656383498013 $205 $257 forward 7 unknown #
coedge $-1 $258 $157 $255 $259 forward $199 $-1 #
coedge $-1 $157 $245 $202 $250 forward $199 $-1 #
vertex $-1 $250 $260 #
vertex $-1 $259 $261 #
straight-curve $-1 5.0507079276417919 -44.219162189011627 9.6688253321888666 0 -1 0 I I #
vertex $-1 $159 $262 #
point $-1 0.72925597649415863 -21.442275269009361 2.8270264256807804 #
straight-curve $-1 -42.535477767265846 28.284074139593855 0 0 0 -1 I I #
point $-1 -42.535477767265846 -28.284074139593855 -9.6688253321888684 #
straight-curve $-1 -42.535477767265846 0 -9.6688253321888684 0 1 0 I I #
point $-1 -42.535477767265846 28.284074139593855 -9.6688253321888684 #
face $-1 $263 $264 $10 $-1 $265 reversed single #
loop $-1 $-1 $266 $179 #
plane-surface $-1 -42.535477767265846 0 0 1 0 0 0 0 -1 forward_v I I I I #
coedge $-1 $267 $181 $232 $268 forward $131 $-1 #
coedge $-1 $181 $267 $269 $270 forward $131 $-1 #
coedge $-1 $237 $233 $181 $224 reversed $238 $-1 #
edge $-1 $271 -28.284074139593855 $272 28.284074139593855 $223 $273 forward 7 unknown #
coedge $-1 $182 $193 $274 $275 forward $81 $-1 #
coedge $-1 $276 $183 $182 $227 reversed $145 $-1 #
edge $-1 $277 -42.535477767265846 $185 -7.5921959746534746 $226 $197 forward 7 unknown #
straight-curve $-1 -7.5921959746534746 -28.284074139593855 30.71659245904581 0 0 1 I I #
point $-1 -7.5921959746534746 -28.284074139593855 9.6688253321888684 #
straight-curve $-1 -0.63537201175292068 -28.284074139593855 1.2789360755477954 -1 0 0 I I #
point $-1 -7.5921959746534746 -28.284074139593855 1.2789360755477972 #
coedge $-1 $192 $276 $221 $268 reversed $145 $-1 #
coedge $-1 $223 $194 $192 $234 forward $238 $-1 #
edge $-1 $196 -9.6688253321888684 $272 9.6688253321888684 $233 $278 forward 7 unknown #
coedge $-1 $279 $280 $193 $236 reversed $264 $-1 #
edge $-1 $239 -42.535477767265846 $281 42.535477767265846 $235 $282 forward 7 unknown #
coedge $-1 $194 $223 $279 $283 reversed $238 $-1 #
loop $-1 $-1 $233 $263 #
vertex $-1 $195 $284 #
straight-curve $-1 42.535477767265846 0 9.6688253321888684 0 1 0 I I #
point $-1 42.535477767265846 -28.284074139593855 9.6688253321888684 #
face $-1 $285 $256 $11 $-1 $286 reversed single #
loop $-1 $-1 $287 $198 #
plane-surface $-1 0 0 -9.6688253321888684 0 0 1 1 0 0 forward_v I I I I #
coedge $-1 $208 $288 $201 $248 forward $199 $-1 #
coedge $-1 $247 $201 $289 $290 reversed $152 $-1 #
coedge $-1 $201 $246 $249 $291 forward $152 $-1 #
edge $-1 $292 15.935088049417772 $293 24.3249771113706 $245 $294 forward 7 unknown #
coedge $-1 $251 $202 $247 $291 reversed $154 $-1 #
edge $-1 $293 -6.9568239629005539 $209 5.6860799393947126 $208 $295 forward 7 unknown #
coedge $-1 $203 $249 $254 $296 reversed $154 $-1 #
vertex $-1 $296 $297 #
straight-curve $-1 5.0507079276417919 -28.284074139593855 1.2789360755477972 0 -0.70710677298230451 -0.70710678939079041 I I #
coedge $-1 $289 $205 $251 $296 forward $256 $-1 #
coedge $-1 $205 $298 $207 $259 reversed $256 $-1 #
loop $-1 $-1 $289 $242 #
straight-curve $-1 5.0507079276417919 -28.284074139593855 30.71659245904581 0 0 -1 I I #
coedge $-1 $299 $207 $300 $301 forward $199 $-1 #
edge $-1 $210 5.0507079276417919 $302 42.535477767265846 $255 $303 forward 7 unknown #
point $-1 5.0507079276417919 -19.894185077641026 9.6688253321888684 #
point $-1 5.0507079276417919 -28.284074139593855 9.6688253321888684 #
point $-1 -1.2707440235058414 -20.028061690227783 1.4128128797161716 #
face $-1 $-1 $238 $10 $-1 $304 reversed single #
loop $-1 $-1 $279 $218 #
plane-surface $-1 0 28.284074139593855 0 0 -1 0 0 0 -1 forward_v I I I I #
coedge $-1 $305 $274 $280 $306 forward $219 $-1 #
coedge $-1 $222 $221 $305 $307 forward $131 $-1 #
edge $-1 $272 -42.535477767265846 $308 42.535477767265846 $232 $309 forward 7 unknown #
coedge $-1 $280 $279 $222 $270 reversed $264 $-1 #
edge $-1 $310 -42.535477767265846 $271 42.535477767265846 $269 $311 forward 7 unknown #
vertex $-1 $224 $312 #
vertex $-1 $234 $313 #
straight-curve $-1 42.535477767265846 0 -9.6688253321888684 0 -1 0 I I #
coedge $-1 $266 $314 $225 $275 reversed $219 $-1 #
edge $-1 $281 -28.284074139593855 $277 28.284074139593855 $274 $315 forward 7 unknown #
coedge $-1 $232 $226 $314 $316 forward $145 $-1 #
vertex $-1 $275 $317 #
straight-curve $-1 42.535477767265846 -28.284074139593855 0 0 0 -1 I I #
coedge $-1 $269 $235 $237 $283 forward $264 $-1 #
coedge $-1 $235 $269 $266 $306 reversed $264 $-1 #
vertex $-1 $236 $318 #
straight-curve $-1 0 28.284074139593855 9.6688253321888684 -1 0 0 I I #
edge $-1 $239 -9.6688253321888684 $271 9.6688253321888684 $237 $319 forward 7 unknown #
point $-1 42.535477767265846 28.284074139593855 9.6688253321888684 #
face $-1 $320 $321 $11 $-1 $322 reversed single #
plane-surface $-1 0 -28.284074139593855 0 0 1 0 0 0 1 forward_v I I I I #
coedge $-1 $323 $324 $325 $326 forward $243 $-1 #
coedge $-1 $245 $327 $328 $329 forward $199 $-1 #
coedge $-1 $328 $254 $246 $290 forward $256 $-1 #
edge $-1 $330 -29.437656383498013 $292 -21.04776712685694 $289 $331 forward 7 unknown #
edge $-1 $330 0 $293 11.865095035884755 $247 $332 forward 7 unknown #
vertex $-1 $290 $333 #
vertex $-1 $250 $334 #
straight-curve $-1 -7.5921959746534746 -44.219162189011627 9.6688253321888666 0 1 0 I I #
straight-curve $-1 -0.63537201175292068 -19.89418507764103 9.6688253321888684 1 0 0 I I #
edge $-1 $252 -5.6860799393947126 $330 6.9568239629005539 $254 $335 forward 7 unknown #
point $-1 5.0507079276417919 -28.284074139593855 1.2789360755477972 #
coedge $-1 $255 $336 $337 $338 reversed $256 $-1 #
coedge $-1 $327 $258 $339 $340 forward $199 $-1 #
coedge $-1 $337 $341 $258 $301 reversed $342 $-1 #
edge $-1 $302 -28.284074139593855 $343 28.284074139593855 $300 $344 forward 7 unknown #
vertex $-1 $301 $345 #
straight-curve $-1 0 -28.284074139593855 9.6688253321888684 1 0 0 I I #
plane-surface $-1 42.535477767265846 0 0 -1 0 0 0 0 1 forward_v I I I I #
coedge $-1 $314 $266 $267 $307 reversed $219 $-1 #
edge $-1 $281 -9.6688253321888684 $310 9.6688253321888684 $280 $346 forward 7 unknown #
edge $-1 $308 -28.284074139593855 $310 28.284074139593855 $305 $347 forward 7 unknown #
vertex $-1 $307 $348 #
straight-curve $-1 0 -28.284074139593855 -9.6688253321888684 -1 0 0 I I #
vertex $-1 $270 $349 #
straight-curve $-1 0 28.284074139593855 -9.6688253321888684 1 0 0 I I #
point $-1 42.535477767265846 28.284074139593855 -9.6688253321888684 #
point $-1 42.535477767265846 -28.284074139593855 -9.6688253321888684 #
coedge $-1 $274 $305 $276 $316 reversed $219 $-1 #
straight-curve $-1 -42.535477767265846 0 9.6688253321888684 0 -1 0 I I #
edge $-1 $277 -9.6688253321888684 $308 9.6688253321888684 $314 $350 forward 7 unknown #
point $-1 -42.535477767265846 -28.284074139593855 9.6688253321888684 #
point $-1 -42.535477767265846 28.284074139593855 9.6688253321888684 #
straight-curve $-1 42.535477767265846 28.284074139593855 0 0 0 -1 I I #
face $-1 $351 $352 $11 $-1 $353 reversed single #
loop $-1 $-1 $354 $285 #
plane-surface $-1 -42.535477767265846 0 0 1 0 0 0 0 -1 forward_v I I I I #
coedge $-1 $355 $287 $336 $356 forward $243 $-1 #
coedge $-1 $287 $355 $357 $358 forward $243 $-1 #
coedge $-1 $341 $337 $287 $326 reversed $342 $-1 #
edge $-1 $359 -28.284074139593855 $360 28.284074139593855 $325 $361 forward 7 unknown #
coedge $-1 $288 $299 $362 $363 forward $199 $-1 #
coedge $-1 $364 $289 $288 $329 reversed $256 $-1 #
edge $-1 $365 -42.535477767265846 $292 -7.5921959746534746 $328 $303 forward 7 unknown #
vertex $-1 $296 $366 #
straight-curve $-1 -7.5921959746534746 -28.284074139593855 30.71659245904581 0 0 1 I I #
straight-curve $-1 -7.5921959746534746 -28.284074139593855 1.2789360755477972 0 0.70710677298230451 0.70710678939079041 I I #
point $-1 -7.5921959746534746 -28.284074139593855 9.6688253321888684 #
point $-1 -7.5921959746534746 -19.894185077641026 9.6688253321888684 #
straight-curve $-1 -0.63537201175292068 -28.284074139593855 1.2789360755477954 -1 0 0 I I #
coedge $-1 $298 $364 $323 $356 reversed $256 $-1 #
coedge $-1 $325 $300 $298 $338 forward $342 $-1 #
edge $-1 $302 -9.6688253321888684 $360 9.6688253321888684 $337 $367 forward 7 unknown #
coedge $-1 $368 $369 $299 $340 reversed $352 $-1 #
edge $-1 $343 -42.535477767265846 $370 42.535477767265846 $339 $371 forward 7 unknown #
coedge $-1 $300 $325 $368 $372 reversed $342 $-1 #
loop $-1 $-1 $337 $351 #
vertex $-1 $301 $373 #
straight-curve $-1 42.535477767265846 0 9.6688253321888684 0 1 0 I I #
point $-1 42.535477767265846 -28.284074139593855 9.6688253321888684 #
straight-curve $-1 -42.535477767265846 28.284074139593855 0 0 0 -1 I I #
straight-curve $-1 -42.535477767265846 0 -9.6688253321888684 0 1 0 I I #
point $-1 -42.535477767265846 -28.284074139593855 -9.6688253321888684 #
point $-1 -42.535477767265846 28.284074139593855 -9.6688253321888684 #
straight-curve $-1 -42.535477767265846 -28.284074139593855 0 0 0 -1 I I #
face $-1 $-1 $342 $11 $-1 $374 reversed single #
loop $-1 $-1 $368 $320 #
plane-surface $-1 0 28.284074139593855 0 0 -1 0 0 0 -1 forward_v I I I I #
coedge $-1 $375 $362 $369 $376 forward $321 $-1 #
coedge $-1 $324 $323 $375 $377 forward $243 $-1 #
edge $-1 $360 -42.535477767265846 $378 42.535477767265846 $336 $379 forward 7 unknown #
coedge $-1 $369 $368 $324 $358 reversed $352 $-1 #
edge $-1 $380 -42.535477767265846 $359 42.535477767265846 $357 $381 forward 7 unknown #
vertex $-1 $326 $382 #
vertex $-1 $338 $383 #
straight-curve $-1 42.535477767265846 0 -9.6688253321888684 0 -1 0 I I #
coedge $-1 $354 $384 $327 $363 reversed $321 $-1 #
edge $-1 $370 -28.284074139593855 $365 28.284074139593855 $362 $385 forward 7 unknown #
coedge $-1 $336 $328 $384 $386 forward $256 $-1 #
vertex $-1 $363 $387 #
point $-1 -7.5921959746534746 -28.284074139593855 1.2789360755477972 #
straight-curve $-1 42.535477767265846 -28.284074139593855 0 0 0 -1 I I #
coedge $-1 $357 $339 $341 $372 forward $352 $-1 #
coedge $-1 $339 $357 $354 $376 reversed $352 $-1 #
vertex $-1 $340 $388 #
straight-curve $-1 0 28.284074139593855 9.6688253321888684 -1 0 0 I I #
edge $-1 $343 -9.6688253321888684 $359 9.6688253321888684 $341 $389 forward 7 unknown #
point $-1 42.535477767265846 28.284074139593855 9.6688253321888684 #
plane-surface $-1 42.535477767265846 0 0 -1 0 0 0 0 1 forward_v I I I I #
coedge $-1 $384 $354 $355 $377 reversed $321 $-1 #
edge $-1 $370 -9.6688253321888684 $380 9.6688253321888684 $369 $390 forward 7 unknown #
edge $-1 $378 -28.284074139593855 $380 28.284074139593855 $375 $391 forward 7 unknown #
vertex $-1 $377 $392 #
straight-curve $-1 0 -28.284074139593855 -9.6688253321888684 -1 0 0 I I #
vertex $-1 $358 $393 #
straight-curve $-1 0 28.284074139593855 -9.6688253321888684 1 0 0 I I #
point $-1 42.535477767265846 28.284074139593855 -9.6688253321888684 #
point $-1 42.535477767265846 -28.284074139593855 -9.6688253321888684 #
coedge $-1 $362 $375 $364 $386 reversed $321 $-1 #
straight-curve $-1 -42.535477767265846 0 9.6688253321888684 0 -1 0 I I #
edge $-1 $365 -9.6688253321888684 $378 9.6688253321888684 $384 $394 forward 7 unknown #
point $-1 -42.535477767265846 -28.284074139593855 9.6688253321888684 #
point $-1 -42.535477767265846 28.284074139593855 9.6688253321888684 #
straight-curve $-1 42.535477767265846 28.284074139593855 0 0 0 -1 I I #
straight-curve $-1 -42.535477767265846 28.284074139593855 0 0 0 -1 I I #
straight-curve $-1 -42.535477767265846 0 -9.6688253321888684 0 1 0 I I #
point $-1 -42.535477767265846 -28.284074139593855 -9.6688253321888684 #
point $-1 -42.535477767265846 28.284074139593855 -9.6688253321888684 #
straight-curve $-1 -42.535477767265846 -28.284074139593855 0 0 0 -1 I I #
End-of-ACIS-data 