500 0 8 0           
7 Unknown 11 ACIS 5.0 NT 24 Thu Mar 25 22:06:45 1999 
-1 9.9999999999999995e-007 1e-010 
body $-1 $8 $-1 $9 #
body $-1 $10 $-1 $11 #
body $-1 $12 $-1 $13 #
body $-1 $14 $-1 $15 #
body $-1 $16 $-1 $17 #
body $-1 $18 $-1 $19 #
body $-1 $20 $-1 $21 #
body $-1 $22 $-1 $23 #
lump $-1 $-1 $24 $0 #
transform $-1 1 0 0 0 1 0 0 0 1 72.671895504623564 47.39386589545893 21.724346067385618 1 rotate no_reflect no_shear #
lump $-1 $-1 $25 $1 #
transform $-1 1 0 0 0 1 0 0 0 1 72.671895504623564 47.39386589545893 21.724346067385618 1 rotate no_reflect no_shear #
lump $-1 $-1 $26 $2 #
transform $-1 1 0 0 0 1 0 0 0 1 72.671895504623564 47.39386589545893 21.724346067385618 1 rotate no_reflect no_shear #
lump $-1 $-1 $27 $3 #
transform $-1 1 0 0 0 1 0 0 0 1 72.671895504623564 47.39386589545893 21.724346067385618 1 rotate no_reflect no_shear #
lump $-1 $-1 $28 $4 #
transform $-1 1 0 0 0 1 0 0 0 1 72.671895504623564 47.39386589545893 21.724346067385618 1 rotate no_reflect no_shear #
lump $-1 $-1 $29 $5 #
transform $-1 1 0 0 0 1 0 0 0 1 72.671895504623564 47.39386589545893 21.724346067385618 1 rotate no_reflect no_shear #
lump $-1 $-1 $30 $6 #
transform $-1 1 0 0 0 1 0 0 0 1 72.671895504623564 47.39386589545893 21.724346067385618 1 rotate no_reflect no_shear #
lump $-1 $-1 $31 $7 #
transform $-1 1 0 0 0 1 0 0 0 1 72.671895504623564 47.39386589545893 21.724346067385618 1 rotate no_reflect no_shear #
shell $-1 $-1 $-1 $32 $-1 $8 #
shell $-1 $-1 $-1 $33 $-1 $10 #
shell $-1 $-1 $-1 $34 $-1 $12 #
shell $-1 $-1 $-1 $35 $-1 $14 #
shell $-1 $-1 $-1 $36 $-1 $16 #
shell $-1 $-1 $-1 $37 $-1 $18 #
shell $-1 $-1 $-1 $38 $-1 $20 #
shell $-1 $-1 $-1 $39 $-1 $22 #
face $-1 $40 $41 $24 $-1 $42 forward single #
face $-1 $43 $44 $25 $-1 $45 reversed single #
face $-1 $46 $47 $26 $-1 $48 reversed single #
face $-1 $49 $50 $27 $-1 $51 reversed single #
face $-1 $52 $53 $28 $-1 $54 forward single #
face $-1 $55 $56 $29 $-1 $57 forward single #
face $-1 $58 $59 $30 $-1 $60 reversed single #
face $-1 $61 $62 $31 $-1 $63 forward single #
face $-1 $64 $65 $24 $-1 $66 reversed single #
loop $-1 $-1 $67 $32 #
plane-surface $-1 0 0 21.724346067385618 0 0 1 1 0 0 forward_v I I I I #
face $-1 $68 $69 $25 $-1 $70 reversed single #
loop $-1 $-1 $71 $33 #
plane-surface $-1 -62.876527290616664 -39.108911642655393 0 0 1 0 0 0 1 forward_v I I I I #
face $-1 $72 $73 $26 $-1 $74 reversed single #
loop $-1 $-1 $75 $34 #
plane-surface $-1 62.876527290616679 -39.108911642655393 0 0 1 0 0 0 1 forward_v I I I I #
face $-1 $76 $77 $27 $-1 $78 reversed single #
loop $-1 $-1 $79 $35 #
plane-surface $-1 -31.904745987793021 -173.26528231604246 73.346763173326423 -1 0 0 0 -0.86602541151947299 0.49999998660252726 forward_v I I I I #
face $-1 $80 $81 $28 $-1 $82 forward single #
loop $-1 $83 $84 $36 #
cone-surface $-1 -47.030755336947834 -36.128983913545504 8.2040712539400822 0 0.86602541151947299 -0.49999998660252726 3 0 0 1 I I 0 1 3 forward I I I I #
face $-1 $85 $86 $29 $-1 $87 forward single #
loop $-1 $88 $89 $37 #
cone-surface $-1 -37.955149727454945 -36.128983913545504 8.2040712539400822 0 0.86602541151947299 -0.49999998660252726 3 0 0 1 I I 0 1 3 forward I I I I #
face $-1 $90 $91 $30 $-1 $92 reversed single #
loop $-1 $-1 $93 $38 #
plane-surface $-1 35.676655860347068 80.173560786345092 176.35163174240159 1 0 0 0 -0.69465837861970381 -0.71933979245794832 forward_v I I I I #
face $-1 $94 $95 $31 $-1 $96 forward single #
loop $-1 $97 $98 $39 #
cone-surface $-1 44.378907468478417 38.095618857508917 12.665973865625347 0 -0.69465837861970381 -0.71933979245794832 1.5 0 0 1 I I 0 1 1.5 forward I I I I #
face $-1 $99 $100 $24 $-1 $101 reversed single #
loop $-1 $-1 $102 $40 #
plane-surface $-1 0 0 -21.724346067385618 0 0 1 1 0 0 forward_v I I I I #
coedge $-1 $103 $104 $105 $106 forward $41 $-1 #
face $-1 $107 $108 $25 $-1 $109 reversed single #
loop $-1 $-1 $110 $43 #
plane-surface $-1 -62.876527290616664 -26.69990576464307 0 0 -1 0 0 0 -1 forward_v I I I I #
coedge $-1 $111 $112 $113 $114 reversed $44 $-1 #
face $-1 $115 $116 $26 $-1 $117 reversed single #
loop $-1 $-1 $118 $46 #
plane-surface $-1 53.081159076609779 -32.904408703649231 0 1 0 0 0 0 -1 forward_v I I I I #
coedge $-1 $119 $120 $121 $122 forward $47 $-1 #
face $-1 $123 $124 $27 $-1 $125 reversed single #
loop $-1 $-1 $126 $49 #
plane-surface $-1 -42.492952532201393 -47.393865895458944 0.67486961594234174 0 -0.86602541151947299 0.49999998660252726 1 0 0 forward_v I I I I #
coedge $-1 $127 $128 $129 $130 reversed $50 $-1 #
face $-1 $-1 $131 $28 $-1 $132 forward single #
loop $-1 $133 $134 $52 #
cone-surface $-1 -47.030755336947834 -29.641524045032369 4.4585346863123974 0 0.86602541151947299 -0.49999998660252726 1.5 0 0 1 I I -0.70710678118654757 0.70710678118654757 1.5 forward I I I I #
loop $-1 $-1 $135 $36 #
coedge $-1 $84 $84 $136 $137 reversed $53 $-1 #
face $-1 $-1 $138 $29 $-1 $139 forward single #
loop $-1 $140 $141 $55 #
cone-surface $-1 -37.955149727454945 -29.641524045032369 4.4585346863123974 0 0.86602541151947299 -0.49999998660252726 1.5 0 0 1 I I -0.70710678118654757 0.70710678118654757 1.5 forward I I I I #
loop $-1 $-1 $142 $37 #
coedge $-1 $89 $89 $143 $144 reversed $56 $-1 #
face $-1 $145 $146 $30 $-1 $147 reversed single #
loop $-1 $-1 $148 $58 #
plane-surface $-1 44.378907468478417 -20.790721418579608 71.800059282758355 0 0.69465837861970381 0.71933979245794832 1 0 0 forward_v I I I I #
coedge $-1 $149 $150 $151 $152 reversed $59 $-1 #
face $-1 $-1 $153 $31 $-1 $154 forward single #
loop $-1 $155 $156 $61 #
cone-surface $-1 44.378907468478417 36.441212771650612 10.95278625129442 0 -0.69465837861970381 -0.71933979245794832 0.75 0 0 1 I I -0.70710678118654757 0.70710678118654757 0.75 forward I I I I #
loop $-1 $-1 $157 $39 #
coedge $-1 $98 $98 $158 $159 reversed $62 $-1 #
face $-1 $160 $161 $24 $-1 $162 reversed single #
loop $-1 $-1 $163 $64 #
plane-surface $-1 0 -47.39386589545893 0 0 1 0 0 0 1 forward_v I I I I #
coedge $-1 $164 $165 $166 $167 forward $65 $-1 #
coedge $-1 $168 $67 $169 $170 forward $41 $-1 #
coedge $-1 $67 $168 $171 $172 forward $41 $-1 #
coedge $-1 $173 $174 $67 $106 reversed $175 $-1 #
edge $-1 $176 -47.39386589545893 $177 47.39386589545893 $105 $178 forward 7 unknown #
face $-1 $179 $180 $25 $-1 $181 reversed single #
loop $-1 $-1 $182 $68 #
plane-surface $-1 -53.081159076609765 -32.904408703649231 0 -1 0 0 0 0 1 forward_v I I I I #
coedge $-1 $183 $184 $185 $186 forward $69 $-1 #
coedge $-1 $187 $71 $188 $189 reversed $44 $-1 #
coedge $-1 $71 $187 $190 $191 reversed $44 $-1 #
coedge $-1 $192 $193 $71 $114 forward $194 $-1 #
edge $-1 $195 -21.724346067385618 $196 21.724346067385618 $113 $197 forward 7 unknown #
face $-1 $198 $199 $26 $-1 $200 reversed single #
loop $-1 $-1 $201 $72 #
plane-surface $-1 62.876527290616679 -26.69990576464307 0 0 -1 0 0 0 -1 forward_v I I I I #
coedge $-1 $202 $203 $204 $205 forward $73 $-1 #
coedge $-1 $206 $75 $207 $208 reversed $47 $-1 #
coedge $-1 $75 $206 $209 $210 reversed $47 $-1 #
coedge $-1 $203 $202 $75 $122 reversed $73 $-1 #
edge $-1 $211 -21.724346067385618 $212 21.724346067385618 $121 $213 forward 7 unknown #
face $-1 $214 $215 $27 $-1 $216 forward single #
loop $-1 $-1 $217 $76 #
plane-surface $-1 0 -47.39386589545893 0 0 1 0 0 0 1 forward_v I I I I #
coedge $-1 $218 $219 $220 $221 reversed $77 $-1 #
coedge $-1 $128 $79 $222 $223 reversed $50 $-1 #
coedge $-1 $79 $127 $218 $224 reversed $50 $-1 #
coedge $-1 $220 $225 $79 $130 forward $215 $-1 #
edge $-1 $226 39.238775262562299 $227 51.391695723921288 $129 $228 forward 7 unknown #
loop $-1 $-1 $136 $80 #
plane-surface $-1 -42.492952532201393 -47.393865895458944 0.67486961594234174 0 -0.86602541151947299 0.49999998660252726 1 0 0 forward_v I I I I #
loop $-1 $-1 $229 $52 #
coedge $-1 $134 $134 $135 $230 reversed $81 $-1 #
coedge $-1 $135 $135 $134 $230 forward $83 $-1 #
coedge $-1 $136 $136 $84 $137 forward $131 $-1 #
edge $-1 $231 9.8876331219401083e-016 $231 6.2831853071796013 $136 $232 forward 7 unknown #
loop $-1 $-1 $143 $85 #
plane-surface $-1 -42.492952532201393 -47.393865895458944 0.67486961594234174 0 -0.86602541151947299 0.49999998660252726 1 0 0 forward_v I I I I #
loop $-1 $-1 $233 $55 #
coedge $-1 $141 $141 $142 $234 reversed $86 $-1 #
coedge $-1 $142 $142 $141 $234 forward $88 $-1 #
coedge $-1 $143 $143 $89 $144 forward $138 $-1 #
edge $-1 $235 9.8876331219401083e-016 $235 6.2831853071796013 $143 $236 forward 7 unknown #
face $-1 $237 $238 $30 $-1 $239 reversed single #
loop $-1 $-1 $240 $90 #
plane-surface $-1 53.081159076609765 80.173560786345092 176.35163174240159 -1 0 0 0 0.69465837861970381 0.71933979245794832 forward_v I I I I #
coedge $-1 $241 $242 $243 $244 reversed $91 $-1 #
coedge $-1 $150 $93 $245 $246 reversed $59 $-1 #
coedge $-1 $93 $149 $241 $247 reversed $59 $-1 #
coedge $-1 $243 $248 $93 $152 forward $249 $-1 #
edge $-1 $250 -7.3070855022863839 $251 9.0225839698265915 $151 $252 forward 7 unknown #
loop $-1 $-1 $158 $94 #
plane-surface $-1 44.378907468478417 -20.790721418579608 71.800059282758355 0 0.69465837861970381 0.71933979245794832 1 0 0 forward_v I I I I #
loop $-1 $-1 $253 $61 #
coedge $-1 $156 $156 $157 $254 reversed $95 $-1 #
coedge $-1 $157 $157 $156 $254 forward $97 $-1 #
coedge $-1 $158 $158 $98 $159 forward $153 $-1 #
edge $-1 $255 2.584836985889289e-015 $255 6.2831853071796031 $158 $256 forward 7 unknown #
face $-1 $257 $258 $24 $-1 $259 reversed single #
loop $-1 $-1 $260 $99 #
plane-surface $-1 -72.671895504623564 0 0 1 0 0 0 0 -1 forward_v I I I I #
coedge $-1 $261 $171 $262 $263 forward $100 $-1 #
coedge $-1 $264 $102 $261 $265 forward $65 $-1 #
coedge $-1 $102 $264 $266 $267 forward $65 $-1 #
coedge $-1 $174 $173 $102 $167 reversed $175 $-1 #
edge $-1 $268 -47.39386589545893 $269 47.39386589545893 $166 $270 forward 7 unknown #
coedge $-1 $104 $103 $271 $272 forward $41 $-1 #
coedge $-1 $273 $274 $103 $170 reversed $258 $-1 #
edge $-1 $177 -72.671895504623564 $275 72.671895504623564 $169 $276 forward 7 unknown #
coedge $-1 $163 $277 $104 $172 reversed $100 $-1 #
edge $-1 $278 -72.671895504623564 $176 72.671895504623564 $171 $279 forward 7 unknown #
coedge $-1 $166 $105 $277 $280 forward $175 $-1 #
coedge $-1 $105 $166 $273 $281 reversed $175 $-1 #
loop $-1 $-1 $173 $257 #
vertex $-1 $106 $282 #
vertex $-1 $106 $283 #
straight-curve $-1 72.671895504623564 0 21.724346067385618 0 1 0 I I #
face $-1 $284 $285 $25 $-1 $286 forward single #
loop $-1 $-1 $287 $107 #
plane-surface $-1 0 0 -21.724346067385618 0 0 1 1 0 0 forward_v I I I I #
coedge $-1 $288 $289 $187 $290 forward $108 $-1 #
coedge $-1 $291 $110 $287 $292 reversed $69 $-1 #
coedge $-1 $110 $291 $293 $294 reversed $69 $-1 #
coedge $-1 $289 $288 $110 $186 reversed $108 $-1 #
edge $-1 $295 -21.724346067385618 $296 21.724346067385618 $185 $297 forward 7 unknown #
coedge $-1 $112 $111 $182 $290 reversed $44 $-1 #
coedge $-1 $298 $299 $111 $189 forward $180 $-1 #
edge $-1 $300 21.642895431301433 $195 41.233631859315231 $188 $301 forward 7 unknown #
coedge $-1 $302 $303 $112 $191 forward $285 $-1 #
edge $-1 $196 -41.233631859315231 $304 -21.642895431301433 $190 $305 forward 7 unknown #
coedge $-1 $306 $113 $303 $307 reversed $194 $-1 #
coedge $-1 $113 $306 $298 $308 reversed $194 $-1 #
loop $-1 $-1 $306 $284 #
vertex $-1 $308 $309 #
vertex $-1 $114 $310 #
straight-curve $-1 -72.671895504623564 -39.108911642655393 0 0 0 1 I I #
face $-1 $311 $312 $26 $-1 $313 forward single #
loop $-1 $-1 $207 $115 #
plane-surface $-1 0 0 -21.724346067385618 0 0 1 1 0 0 forward_v I I I I #
coedge $-1 $314 $315 $316 $317 reversed $116 $-1 #
coedge $-1 $121 $118 $318 $319 reversed $73 $-1 #
coedge $-1 $118 $121 $320 $321 reversed $73 $-1 #
coedge $-1 $315 $314 $118 $205 reversed $116 $-1 #
edge $-1 $322 -21.724346067385618 $323 21.724346067385618 $204 $324 forward 7 unknown #
coedge $-1 $120 $119 $325 $326 reversed $47 $-1 #
coedge $-1 $318 $327 $119 $208 forward $199 $-1 #
edge $-1 $328 -41.233631859315238 $212 -21.64289543130144 $207 $329 forward 7 unknown #
coedge $-1 $330 $320 $120 $210 forward $312 $-1 #
edge $-1 $211 21.64289543130144 $331 41.233631859315238 $209 $332 forward 7 unknown #
vertex $-1 $210 $333 #
vertex $-1 $208 $334 #
straight-curve $-1 53.081159076609779 -39.108911642655393 0 0 0 -1 I I #
face $-1 $-1 $335 $27 $-1 $336 forward single #
loop $-1 $-1 $337 $123 #
plane-surface $-1 0 0 21.724346067385618 0 0 1 1 0 0 forward_v I I I I #
coedge $-1 $338 $339 $340 $341 forward $124 $-1 #
coedge $-1 $342 $126 $128 $224 forward $77 $-1 #
coedge $-1 $126 $342 $343 $344 reversed $77 $-1 #
coedge $-1 $337 $129 $126 $221 forward $215 $-1 #
edge $-1 $227 10.658269721692324 $345 31.834682810509069 $220 $346 forward 7 unknown #
coedge $-1 $339 $338 $127 $223 forward $124 $-1 #
edge $-1 $347 -35.998511970720848 $226 -14.949035519277594 $222 $348 forward 7 unknown #
edge $-1 $227 -24.3058415739917 $347 -2.8450313176714033e-014 $128 $349 forward 7 unknown #
coedge $-1 $129 $337 $339 $350 forward $215 $-1 #
vertex $-1 $130 $351 #
vertex $-1 $130 $352 #
straight-curve $-1 -31.904745987793021 -86.632641158021229 21.724346067385618 0 1 0 I I #
coedge $-1 $229 $229 $-1 $353 reversed $133 $-1 #
edge $-1 $354 0 $354 6.2831853071796004 $134 $355 forward 7 unknown #
vertex $-1 $137 $356 #
ellipse-curve $-1 -47.030755336947834 -41.317405664779443 11.199607841663983 0 -0.86602541151947299 0.49999998660252726 3 0 0 1 I I #
coedge $-1 $233 $233 $-1 $357 reversed $140 $-1 #
edge $-1 $358 0 $358 6.2831853071796004 $141 $359 forward 7 unknown #
vertex $-1 $144 $360 #
ellipse-curve $-1 -37.955149727454945 -41.317405664779443 11.199607841663983 0 -0.86602541151947299 0.49999998660252726 3 0 0 1 I I #
face $-1 $-1 $249 $30 $-1 $361 forward single #
loop $-1 $-1 $362 $145 #
plane-surface $-1 0 47.39386589545893 0 0 -1 0 0 0 -1 forward_v I I I I #
coedge $-1 $363 $364 $365 $366 reversed $146 $-1 #
coedge $-1 $367 $148 $150 $247 forward $91 $-1 #
coedge $-1 $148 $367 $363 $368 forward $91 $-1 #
coedge $-1 $365 $151 $148 $244 forward $249 $-1 #
edge $-1 $251 13.48720212610786 $369 30.891705342370557 $243 $370 forward 7 unknown #
coedge $-1 $371 $372 $149 $246 forward $238 $-1 #
edge $-1 $373 -82.220848667360812 $250 -66.451469803815172 $245 $374 forward 7 unknown #
edge $-1 $251 72.086819588750799 $373 94.787731790917874 $150 $375 forward 7 unknown #
coedge $-1 $151 $365 $371 $376 forward $249 $-1 #
loop $-1 $-1 $365 $237 #
vertex $-1 $246 $377 #
vertex $-1 $152 $378 #
straight-curve $-1 35.676655860347068 40.086780393172546 21.724346067385625 0 -1 0 I I #
coedge $-1 $253 $253 $-1 $379 reversed $155 $-1 #
edge $-1 $380 0 $380 6.2831853071796004 $156 $381 forward 7 unknown #
vertex $-1 $159 $382 #
ellipse-curve $-1 44.378907468478417 39.229031159402439 13.83965663561281 0 0.69465837861970381 0.71933979245794832 1.5 0 0 1 I I #
face $-1 $-1 $175 $24 $-1 $383 reversed single #
loop $-1 $-1 $273 $160 #
plane-surface $-1 0 47.39386589545893 0 0 -1 0 0 0 -1 forward_v I I I I #
coedge $-1 $384 $271 $274 $385 forward $161 $-1 #
coedge $-1 $277 $163 $164 $265 reversed $100 $-1 #
coedge $-1 $271 $384 $163 $263 reversed $161 $-1 #
edge $-1 $278 -21.724346067385618 $386 21.724346067385618 $262 $387 forward 7 unknown #
coedge $-1 $165 $164 $384 $388 forward $65 $-1 #
edge $-1 $269 -72.671895504623564 $386 72.671895504623564 $261 $389 forward 7 unknown #
coedge $-1 $274 $273 $165 $267 reversed $258 $-1 #
edge $-1 $390 -72.671895504623564 $268 72.671895504623564 $266 $391 forward 7 unknown #
vertex $-1 $167 $392 #
vertex $-1 $280 $393 #
straight-curve $-1 72.671895504623564 0 -21.724346067385618 0 -1 0 I I #
coedge $-1 $260 $262 $168 $272 reversed $161 $-1 #
edge $-1 $275 -47.39386589545893 $278 47.39386589545893 $271 $394 forward 7 unknown #
coedge $-1 $266 $169 $174 $281 forward $258 $-1 #
coedge $-1 $169 $266 $260 $385 reversed $258 $-1 #
vertex $-1 $170 $395 #
straight-curve $-1 0 47.39386589545893 21.724346067385618 -1 0 0 I I #
coedge $-1 $171 $261 $173 $280 reversed $100 $-1 #
vertex $-1 $272 $396 #
straight-curve $-1 0 -47.39386589545893 21.724346067385618 1 0 0 I I #
edge $-1 $176 -21.724346067385618 $269 21.724346067385618 $173 $397 forward 7 unknown #
edge $-1 $177 -21.724346067385618 $268 21.724346067385618 $174 $398 forward 7 unknown #
point $-1 72.671895504623564 -47.39386589545893 21.724346067385618 #
point $-1 72.671895504623564 47.39386589545893 21.724346067385618 #
face $-1 $-1 $194 $25 $-1 $399 reversed single #
loop $-1 $-1 $293 $179 #
plane-surface $-1 0 0 21.724346067385618 0 0 1 1 0 0 forward_v I I I I #
coedge $-1 $299 $298 $183 $292 forward $180 $-1 #
coedge $-1 $185 $182 $299 $400 reversed $108 $-1 #
coedge $-1 $182 $185 $302 $401 reversed $108 $-1 #
edge $-1 $304 -21.724346067385618 $300 21.724346067385618 $182 $402 forward 7 unknown #
coedge $-1 $184 $183 $306 $403 reversed $69 $-1 #
edge $-1 $404 -41.233631859315231 $296 -21.642895431301433 $287 $405 forward 7 unknown #
coedge $-1 $303 $302 $184 $294 forward $285 $-1 #
edge $-1 $295 21.642895431301433 $406 41.233631859315231 $293 $407 forward 7 unknown #
vertex $-1 $294 $408 #
vertex $-1 $292 $409 #
straight-curve $-1 -53.081159076609765 -26.69990576464307 0 0 0 -1 I I #
coedge $-1 $287 $188 $193 $308 forward $180 $-1 #
coedge $-1 $188 $287 $288 $400 forward $180 $-1 #
vertex $-1 $189 $410 #
straight-curve $-1 -31.438263645308332 -39.108911642655393 -21.724346067385618 -1 0 0 I I #
coedge $-1 $293 $190 $289 $401 forward $285 $-1 #
coedge $-1 $190 $293 $192 $307 forward $285 $-1 #
vertex $-1 $191 $411 #
straight-curve $-1 -31.438263645308332 -39.108911642655393 21.724346067385618 1 0 0 I I #
coedge $-1 $193 $192 $291 $403 forward $194 $-1 #
edge $-1 $406 26.69990576464307 $196 39.108911642655393 $192 $412 forward 7 unknown #
edge $-1 $195 -39.108911642655393 $404 -26.69990576464307 $193 $413 forward 7 unknown #
point $-1 -72.671895504623564 -39.108911642655393 -21.724346067385618 #
point $-1 -72.671895504623564 -39.108911642655393 21.724346067385618 #
face $-1 $-1 $414 $26 $-1 $415 reversed single #
loop $-1 $-1 $209 $198 #
plane-surface $-1 0 0 21.724346067385618 0 0 1 1 0 0 forward_v I I I I #
coedge $-1 $204 $201 $416 $417 reversed $116 $-1 #
coedge $-1 $201 $204 $418 $419 reversed $116 $-1 #
coedge $-1 $420 $421 $201 $317 forward $414 $-1 #
edge $-1 $422 -21.724346067385618 $423 21.724346067385618 $316 $424 forward 7 unknown #
coedge $-1 $416 $207 $202 $319 forward $199 $-1 #
edge $-1 $212 -22.656707290830777 $323 -10.247701412818454 $318 $425 forward 7 unknown #
coedge $-1 $209 $418 $203 $321 forward $312 $-1 #
edge $-1 $322 10.247701412818454 $211 22.656707290830777 $320 $426 forward 7 unknown #
vertex $-1 $321 $427 #
vertex $-1 $319 $428 #
straight-curve $-1 53.081159076609779 -26.69990576464307 0 0 0 -1 I I #
coedge $-1 $421 $420 $206 $326 forward $414 $-1 #
edge $-1 $331 -21.724346067385618 $328 21.724346067385618 $325 $429 forward 7 unknown #
coedge $-1 $207 $416 $421 $430 forward $199 $-1 #
vertex $-1 $326 $431 #
straight-curve $-1 31.438263645308339 -39.108911642655393 -21.724346067385618 -1 0 0 I I #
coedge $-1 $418 $209 $420 $432 forward $312 $-1 #
vertex $-1 $432 $433 #
straight-curve $-1 31.438263645308339 -39.108911642655393 21.724346067385618 1 0 0 I I #
point $-1 53.081159076609779 -39.108911642655393 21.724346067385618 #
point $-1 53.081159076609779 -39.108911642655393 -21.724346067385618 #
loop $-1 $-1 $343 $214 #
plane-surface $-1 -53.081159076609765 -32.904408703649231 0 -1 0 0 0 0 1 forward_v I I I I #
coedge $-1 $225 $220 $434 $435 forward $215 $-1 #
coedge $-1 $222 $217 $342 $436 forward $124 $-1 #
coedge $-1 $217 $222 $225 $350 reversed $124 $-1 #
coedge $-1 $434 $343 $217 $341 reversed $335 $-1 #
edge $-1 $437 14.949035519277594 $438 35.998511970720848 $217 $439 forward 7 unknown #
coedge $-1 $219 $218 $338 $436 reversed $77 $-1 #
coedge $-1 $340 $434 $219 $344 forward $335 $-1 #
edge $-1 $345 -20.97570449153455 $438 3.3301370824571217 $343 $440 forward 7 unknown #
vertex $-1 $435 $441 #
straight-curve $-1 -21.246476266100697 -35.240945434099942 21.724346067385618 -1 0 0 I I #
vertex $-1 $223 $442 #
straight-curve $-1 -31.904745987793021 -47.39386589545893 36.673381586663211 0 0 1 I I #
straight-curve $-1 -31.904745987793021 -47.393865895458944 0.67486961594234174 0 -0.49999998660252726 -0.86602541151947299 I I #
edge $-1 $437 -53.081159076609765 $226 -31.904745987793021 $339 $443 forward 7 unknown #
point $-1 -31.904745987793021 -47.39386589545893 21.724346067385618 #
point $-1 -31.904745987793021 -35.240945434099942 21.724346067385618 #
edge $-1 $444 1 $444 0 $229 $-1 forward 7 unknown #
vertex $-1 $230 $445 #
ellipse-curve $-1 -47.030755336947834 -30.940562162311579 5.2085346662161882 0 -0.86602541151947299 0.49999998660252726 3 0 0 1 I I #
point $-1 -44.030755336947834 -41.317405664779422 11.199607841663974 #
edge $-1 $446 1 $446 0 $233 $-1 forward 7 unknown #
vertex $-1 $234 $447 #
ellipse-curve $-1 -37.955149727454945 -30.940562162311579 5.2085346662161882 0 -0.86602541151947299 0.49999998660252726 3 0 0 1 I I #
point $-1 -34.955149727454945 -41.317405664779422 11.199607841663974 #
plane-surface $-1 0 0 21.724346067385618 0 0 1 1 0 0 forward_v I I I I #
coedge $-1 $372 $371 $364 $448 forward $238 $-1 #
coedge $-1 $364 $240 $242 $368 reversed $146 $-1 #
coedge $-1 $240 $363 $362 $448 reversed $146 $-1 #
coedge $-1 $248 $243 $240 $366 forward $249 $-1 #
edge $-1 $369 -9.0225839698265915 $449 7.3070855022863839 $365 $450 forward 7 unknown #
coedge $-1 $242 $241 $372 $451 reversed $91 $-1 #
edge $-1 $452 -94.787731790917874 $369 -72.086819588750799 $363 $453 forward 7 unknown #
vertex $-1 $244 $454 #
straight-curve $-1 22.189453734239208 31.064196423345962 21.724346067385618 1 0 0 I I #
coedge $-1 $362 $245 $248 $376 reversed $238 $-1 #
coedge $-1 $245 $362 $367 $451 forward $238 $-1 #
vertex $-1 $246 $455 #
straight-curve $-1 35.676655860347068 47.39386589545893 88.175815871200797 0 0 1 I I #
straight-curve $-1 35.676655860347068 -20.790721418579608 71.800059282758355 0 0.71933979245794832 -0.69465837861970381 I I #
edge $-1 $449 -53.081159076609765 $250 -35.676655860347068 $371 $456 forward 7 unknown #
point $-1 35.676655860347068 47.39386589545893 21.724346067385618 #
point $-1 35.676655860347068 31.064196423345955 21.724346067385618 #
edge $-1 $457 1 $457 0 $253 $-1 forward 7 unknown #
vertex $-1 $254 $458 #
ellipse-curve $-1 44.378907468478417 36.962206555615388 11.492291095637881 0 0.69465837861970381 0.71933979245794832 1.5 0 0 1 I I #
point $-1 45.878907468478417 39.229031159402446 13.839656635612812 #
plane-surface $-1 72.671895504623564 0 0 -1 0 0 0 0 1 forward_v I I I I #
coedge $-1 $262 $260 $264 $388 reversed $161 $-1 #
edge $-1 $275 -21.724346067385618 $390 21.724346067385618 $274 $459 forward 7 unknown #
vertex $-1 $388 $460 #
straight-curve $-1 -72.671895504623564 -47.39386589545893 0 0 0 -1 I I #
edge $-1 $386 -47.39386589545893 $390 47.39386589545893 $384 $461 forward 7 unknown #
straight-curve $-1 0 -47.39386589545893 -21.724346067385618 -1 0 0 I I #
vertex $-1 $267 $462 #
straight-curve $-1 0 47.39386589545893 -21.724346067385618 1 0 0 I I #
point $-1 72.671895504623564 47.39386589545893 -21.724346067385618 #
point $-1 72.671895504623564 -47.39386589545893 -21.724346067385618 #
straight-curve $-1 -72.671895504623564 0 21.724346067385618 0 -1 0 I I #
point $-1 -72.671895504623564 47.39386589545893 21.724346067385618 #
point $-1 -72.671895504623564 -47.39386589545893 21.724346067385618 #
straight-curve $-1 72.671895504623564 -47.39386589545893 0 0 0 -1 I I #
straight-curve $-1 72.671895504623564 47.39386589545893 0 0 0 -1 I I #
plane-surface $-1 -72.671895504623564 0 0 1 0 0 0 0 -1 forward_v I I I I #
edge $-1 $296 10.247701412818454 $300 22.656707290830777 $299 $463 forward 7 unknown #
edge $-1 $304 -22.656707290830777 $295 -10.247701412818454 $302 $464 forward 7 unknown #
straight-curve $-1 -53.081159076609765 -39.108911642655393 0 0 0 -1 I I #
edge $-1 $406 -21.724346067385618 $404 21.724346067385618 $306 $465 forward 7 unknown #
vertex $-1 $403 $466 #
straight-curve $-1 -31.438263645308332 -26.69990576464307 -21.724346067385618 1 0 0 I I #
vertex $-1 $307 $467 #
straight-curve $-1 -31.438263645308332 -26.69990576464307 21.724346067385618 -1 0 0 I I #
point $-1 -53.081159076609765 -26.69990576464307 21.724346067385618 #
point $-1 -53.081159076609765 -26.69990576464307 -21.724346067385618 #
point $-1 -53.081159076609765 -39.108911642655393 -21.724346067385618 #
point $-1 -53.081159076609765 -39.108911642655393 21.724346067385618 #
straight-curve $-1 -72.671895504623564 0 21.724346067385618 0 -1 0 I I #
straight-curve $-1 -72.671895504623564 0 -21.724346067385618 0 1 0 I I #
loop $-1 $-1 $325 $311 #
plane-surface $-1 72.671895504623564 0 0 -1 0 0 0 0 1 forward_v I I I I #
coedge $-1 $327 $318 $314 $417 forward $199 $-1 #
edge $-1 $323 21.64289543130144 $422 41.233631859315238 $416 $468 forward 7 unknown #
coedge $-1 $320 $330 $315 $419 forward $312 $-1 #
edge $-1 $423 -41.233631859315238 $322 -21.64289543130144 $418 $469 forward 7 unknown #
coedge $-1 $325 $316 $330 $432 reversed $414 $-1 #
coedge $-1 $316 $325 $327 $430 reversed $414 $-1 #
vertex $-1 $430 $470 #
vertex $-1 $317 $471 #
straight-curve $-1 72.671895504623564 -26.69990576464307 0 0 0 1 I I #
straight-curve $-1 53.081159076609779 -16.452204351824616 -21.724346067385618 0 1 0 I I #
straight-curve $-1 53.081159076609779 -16.452204351824616 21.724346067385618 0 -1 0 I I #
point $-1 53.081159076609779 -26.69990576464307 21.724346067385618 #
point $-1 53.081159076609779 -26.69990576464307 -21.724346067385618 #
straight-curve $-1 72.671895504623564 -39.108911642655393 0 0 0 -1 I I #
edge $-1 $422 26.69990576464307 $328 39.108911642655393 $421 $472 forward 7 unknown #
point $-1 72.671895504623578 -39.108911642655393 -21.724346067385618 #
edge $-1 $331 -39.108911642655393 $423 -26.69990576464307 $420 $473 forward 7 unknown #
point $-1 72.671895504623578 -39.108911642655393 21.724346067385618 #
coedge $-1 $343 $340 $337 $435 reversed $335 $-1 #
edge $-1 $345 -51.391695723921288 $437 -39.238775262562299 $337 $474 forward 7 unknown #
edge $-1 $438 -31.834682810509069 $347 -10.658269721692324 $338 $475 forward 7 unknown #
vertex $-1 $350 $476 #
vertex $-1 $341 $477 #
straight-curve $-1 -53.081159076609765 -47.39386589545893 36.673381586663211 0 0 -1 I I #
straight-curve $-1 -53.081159076609765 -45.728797398845785 3.5588529531935493 0 -0.49999998660252726 -0.86602541151947299 I I #
point $-1 -53.081159076609765 -35.240945434099942 21.724346067385618 #
point $-1 -31.904745987793021 -47.39386589545893 0.67486961594236639 #
straight-curve $-1 0 -47.39386589545893 21.724346067385618 1 0 0 I I #
vertex $-1 $353 $478 #
point $-1 -44.030755336947834 -30.940562162311579 5.2085346662161882 #
vertex $-1 $357 $479 #
point $-1 -34.955149727454945 -30.940562162311579 5.2085346662161882 #
edge $-1 $449 66.451469803815172 $452 82.220848667360812 $362 $480 forward 7 unknown #
vertex $-1 $376 $481 #
straight-curve $-1 53.081159076609765 40.086780393172546 21.724346067385625 0 1 0 I I #
edge $-1 $452 -30.891705342370557 $373 -13.48720212610786 $372 $482 forward 7 unknown #
vertex $-1 $451 $483 #
straight-curve $-1 53.081159076609765 -20.790721418579608 71.800059282758355 0 -0.71933979245794832 0.69465837861970381 I I #
point $-1 53.081159076609765 31.064196423345955 21.724346067385618 #
point $-1 35.676655860347068 47.39386589545893 5.9549672038399848 #
straight-curve $-1 0 47.39386589545893 21.724346067385618 -1 0 0 I I #
vertex $-1 $379 $484 #
point $-1 45.878907468478417 36.962206555615388 11.492291095637881 #
straight-curve $-1 -72.671895504623564 47.39386589545893 0 0 0 -1 I I #
point $-1 -72.671895504623564 -47.39386589545893 -21.724346067385618 #
straight-curve $-1 -72.671895504623564 0 -21.724346067385618 0 1 0 I I #
point $-1 -72.671895504623564 47.39386589545893 -21.724346067385618 #
straight-curve $-1 -53.081159076609765 -16.452204351824616 -21.724346067385618 0 -1 0 I I #
straight-curve $-1 -53.081159076609765 -16.452204351824616 21.724346067385618 0 1 0 I I #
straight-curve $-1 -72.671895504623564 -26.69990576464307 0 0 0 -1 I I #
point $-1 -72.671895504623564 -26.69990576464307 -21.724346067385618 #
point $-1 -72.671895504623564 -26.69990576464307 21.724346067385618 #
straight-curve $-1 31.438263645308339 -26.69990576464307 -21.724346067385618 1 0 0 I I #
straight-curve $-1 31.438263645308339 -26.69990576464307 21.724346067385618 -1 0 0 I I #
point $-1 72.671895504623578 -26.69990576464307 -21.724346067385618 #
point $-1 72.671895504623578 -26.69990576464307 21.724346067385618 #
straight-curve $-1 72.671895504623564 0 -21.724346067385618 0 -1 0 I I #
straight-curve $-1 72.671895504623564 0 21.724346067385618 0 1 0 I I #
straight-curve $-1 -53.081159076609765 -86.632641158021229 21.724346067385618 0 -1 0 I I #
straight-curve $-1 -21.246476266100697 -47.39386589545893 0.67486961594236872 1 0 0 I I #
point $-1 -53.081159076609765 -47.39386589545893 21.724346067385618 #
point $-1 -53.081159076609765 -47.39386589545893 0.67486961594236639 #
point $-1 -47.030755336947834 -28.34248592775316 3.7085347064086065 #
point $-1 -37.955149727454945 -28.34248592775316 3.7085347064086065 #
straight-curve $-1 53.081159076609765 47.39386589545893 88.175815871200797 0 0 -1 I I #
point $-1 53.081159076609765 47.39386589545893 21.724346067385618 #
straight-curve $-1 22.189453734239208 47.39386589545893 5.9549672038399919 -1 0 0 I I #
point $-1 53.081159076609765 47.39386589545893 5.9549672038399848 #
point $-1 44.378907468478417 35.920218987685836 10.413281406950958 #
End-of-ACIS-data 