500 0 21 0           
7 Unknown 11 ACIS 5.0 NT 24 Thu Mar 25 19:50:54 1999 
-1 9.9999999999999995e-007 1e-010 
body $-1 $21 $-1 $22 #
body $-1 $23 $-1 $24 #
body $-1 $25 $-1 $26 #
body $-1 $27 $-1 $28 #
body $-1 $29 $-1 $30 #
body $-1 $31 $-1 $32 #
body $-1 $33 $-1 $34 #
body $-1 $35 $-1 $36 #
body $-1 $37 $-1 $38 #
body $-1 $39 $-1 $40 #
body $-1 $41 $-1 $42 #
body $-1 $43 $-1 $44 #
body $-1 $45 $-1 $46 #
body $-1 $47 $-1 $48 #
body $-1 $49 $-1 $50 #
body $-1 $51 $-1 $52 #
body $-1 $53 $-1 $54 #
body $-1 $55 $-1 $56 #
body $-1 $57 $-1 $58 #
body $-1 $59 $-1 $60 #
body $-1 $61 $-1 $62 #
lump $-1 $-1 $63 $0 #
transform $-1 1 0 0 0 1 0 0 0 1 46.534623249000518 20.013850263950459 6.5475775035705475 1 rotate no_reflect no_shear #
lump $-1 $-1 $64 $1 #
transform $-1 1 0 0 0 1 0 0 0 1 46.534623249000518 2.817872179992873 11.410553055670057 1 rotate no_reflect no_shear #
lump $-1 $-1 $65 $2 #
transform $-1 1 0 0 0 1 0 0 0 1 46.534623249000518 37.209828347908044 11.410553055670057 1 rotate no_reflect no_shear #
lump $-1 $-1 $66 $3 #
transform $-1 0.82903756765294845 0 0.55919291073839883 0 1 0 -0.55919291073839883 0 0.82903756765294845 -52.043662849446733 8.5588276610752878 85.995646391398523 1 rotate no_reflect no_shear #
lump $-1 $-1 $67 $4 #
transform $-1 0.82903756765294845 0 0.55919291073839883 0 -1 0 0.55919291073839883 0 -0.82903756765294845 3.854926288924871 6.8049776804215618 9.9301528697058892 1 rotate no_reflect no_shear #
lump $-1 $-1 $68 $5 #
transform $-1 0.82903756765294845 0 0.55919291073839883 0 -1 0 0.55919291073839883 0 -0.82903756765294845 3.854926288924871 8.558827661075286 9.9301528697058892 1 rotate no_reflect no_shear #
lump $-1 $-1 $69 $6 #
transform $-1 0.82903756765294845 0 0.55919291073839883 0 -1 0 0.55919291073839883 0 -0.82903756765294845 3.854926288924871 10.31267764172901 9.9301528697058892 1 rotate no_reflect no_shear #
lump $-1 $-1 $70 $7 #
transform $-1 0.82903756765294845 0 0.55919291073839883 0 1 0 -0.55919291073839883 0 0.82903756765294845 -52.043662849446733 20.013850263950463 85.995646391398523 1 rotate no_reflect no_shear #
lump $-1 $-1 $71 $8 #
transform $-1 0.82903756765294845 0 0.55919291073839883 0 -1 0 0.55919291073839883 0 -0.82903756765294845 3.854926288924871 18.260000283296737 9.9301528697058892 1 rotate no_reflect no_shear #
lump $-1 $-1 $72 $9 #
transform $-1 0.82903756765294845 0 0.55919291073839883 0 -1 0 0.55919291073839883 0 -0.82903756765294845 3.854926288924871 20.013850263950459 9.9301528697058892 1 rotate no_reflect no_shear #
lump $-1 $-1 $73 $10 #
transform $-1 0.82903756765294845 0 0.55919291073839883 0 -1 0 0.55919291073839883 0 -0.82903756765294845 3.854926288924871 21.767700244604185 9.9301528697058892 1 rotate no_reflect no_shear #
lump $-1 $-1 $74 $11 #
transform $-1 0.82903756765294845 0 0.55919291073839883 0 1 0 -0.55919291073839883 0 0.82903756765294845 -52.043662849446733 31.468872866825638 85.995646391398523 1 rotate no_reflect no_shear #
lump $-1 $-1 $75 $12 #
transform $-1 0.82903756765294845 0 0.55919291073839883 0 -1 0 0.55919291073839883 0 -0.82903756765294845 3.854926288924871 29.715022886171912 9.9301528697058892 1 rotate no_reflect no_shear #
lump $-1 $-1 $76 $13 #
transform $-1 0.82903756765294845 0 0.55919291073839883 0 -1 0 0.55919291073839883 0 -0.82903756765294845 3.854926288924871 31.468872866825635 9.9301528697058892 1 rotate no_reflect no_shear #
lump $-1 $-1 $77 $14 #
transform $-1 0.82903756765294845 0 0.55919291073839883 0 -1 0 0.55919291073839883 0 -0.82903756765294845 3.854926288924871 33.222722847479361 9.9301528697058892 1 rotate no_reflect no_shear #
lump $-1 $-1 $78 $15 #
transform $-1 0.80901698891910034 0 -0.5877852598018023 0 1 0 0.5877852598018023 0 0.80901698891910034 72.479376167604244 12.378782365964549 137.52932303922114 1 rotate no_reflect no_shear #
lump $-1 $-1 $79 $16 #
transform $-1 0.80901698891910034 0 -0.5877852598018023 0 -1 0 -0.5877852598018023 0 -0.80901698891910034 87.77991486755711 10.877073391470084 8.3038318591866584 1 rotate no_reflect no_shear #
lump $-1 $-1 $80 $17 #
transform $-1 0.80901698891910034 0 -0.5877852598018023 0 -1 0 -0.5877852598018023 0 -0.80901698891910034 87.77991486755711 13.880491340459013 8.3038318591866584 1 rotate no_reflect no_shear #
lump $-1 $-1 $81 $18 #
transform $-1 0.80901698891910034 0 -0.5877852598018023 0 1 0 0.5877852598018023 0 0.80901698891910034 72.479376167604244 26.756888269929263 137.52932303922114 1 rotate no_reflect no_shear #
lump $-1 $-1 $82 $19 #
transform $-1 0.80901698891910034 0 -0.5877852598018023 0 -1 0 -0.5877852598018023 0 -0.80901698891910034 87.77991486755711 25.2551792954348 8.3038318591866584 1 rotate no_reflect no_shear #
lump $-1 $-1 $83 $20 #
transform $-1 0.80901698891910034 0 -0.5877852598018023 0 -1 0 -0.5877852598018023 0 -0.80901698891910034 87.77991486755711 28.258597244423726 8.3038318591866584 1 rotate no_reflect no_shear #
shell $-1 $-1 $-1 $84 $-1 $21 #
shell $-1 $-1 $-1 $85 $-1 $23 #
shell $-1 $-1 $-1 $86 $-1 $25 #
shell $-1 $-1 $-1 $87 $-1 $27 #
shell $-1 $-1 $-1 $88 $-1 $29 #
shell $-1 $-1 $-1 $89 $-1 $31 #
shell $-1 $-1 $-1 $90 $-1 $33 #
shell $-1 $-1 $-1 $91 $-1 $35 #
shell $-1 $-1 $-1 $92 $-1 $37 #
shell $-1 $-1 $-1 $93 $-1 $39 #
shell $-1 $-1 $-1 $94 $-1 $41 #
shell $-1 $-1 $-1 $95 $-1 $43 #
shell $-1 $-1 $-1 $96 $-1 $45 #
shell $-1 $-1 $-1 $97 $-1 $47 #
shell $-1 $-1 $-1 $98 $-1 $49 #
shell $-1 $-1 $-1 $99 $-1 $51 #
shell $-1 $-1 $-1 $100 $-1 $53 #
shell $-1 $-1 $-1 $101 $-1 $55 #
shell $-1 $-1 $-1 $102 $-1 $57 #
shell $-1 $-1 $-1 $103 $-1 $59 #
shell $-1 $-1 $-1 $104 $-1 $61 #
face $-1 $105 $106 $63 $-1 $107 forward single #
face $-1 $108 $109 $64 $-1 $110 forward single #
face $-1 $111 $112 $65 $-1 $113 forward single #
face $-1 $114 $115 $66 $-1 $116 forward single #
face $-1 $117 $118 $67 $-1 $119 forward single #
face $-1 $120 $121 $68 $-1 $122 forward single #
face $-1 $123 $124 $69 $-1 $125 forward single #
face $-1 $126 $127 $70 $-1 $128 forward single #
face $-1 $129 $130 $71 $-1 $131 forward single #
face $-1 $132 $133 $72 $-1 $134 forward single #
face $-1 $135 $136 $73 $-1 $137 forward single #
face $-1 $138 $139 $74 $-1 $140 forward single #
face $-1 $141 $142 $75 $-1 $143 forward single #
face $-1 $144 $145 $76 $-1 $146 forward single #
face $-1 $147 $148 $77 $-1 $149 forward single #
face $-1 $150 $151 $78 $-1 $152 forward single #
face $-1 $153 $154 $79 $-1 $155 forward single #
face $-1 $156 $157 $80 $-1 $158 forward single #
face $-1 $159 $160 $81 $-1 $161 forward single #
face $-1 $162 $163 $82 $-1 $164 forward single #
face $-1 $165 $166 $83 $-1 $167 forward single #
face $-1 $168 $169 $63 $-1 $170 reversed single #
loop $-1 $-1 $171 $84 #
plane-surface $-1 0 0 6.5475775035705475 0 0 1 1 0 0 forward_v I I I I #
face $-1 $172 $173 $64 $-1 $174 reversed single #
loop $-1 $-1 $175 $85 #
plane-surface $-1 0 0 1.6846019514710378 0 0 1 1 0 0 forward_v I I I I #
face $-1 $176 $177 $65 $-1 $178 reversed single #
loop $-1 $-1 $179 $86 #
plane-surface $-1 0 0 1.6846019514710378 0 0 1 1 0 0 forward_v I I I I #
face $-1 $180 $181 $66 $-1 $182 reversed single #
loop $-1 $-1 $183 $87 #
plane-surface $-1 0 0 93.069246498001036 0 0 1 1 0 0 forward_v I I I I #
face $-1 $184 $185 $67 $-1 $186 forward single #
loop $-1 $187 $188 $88 #
cone-surface $-1 0 0 -0.75 0 0 1 0.5 0 0 1 I I 0 1 0.5 forward I I I I #
face $-1 $189 $190 $68 $-1 $191 forward single #
loop $-1 $192 $193 $89 #
cone-surface $-1 0 0 -0.75 0 0 1 0.5 0 0 1 I I 0 1 0.5 forward I I I I #
face $-1 $194 $195 $69 $-1 $196 forward single #
loop $-1 $197 $198 $90 #
cone-surface $-1 0 0 -0.75 0 0 1 0.5 0 0 1 I I 0 1 0.5 forward I I I I #
face $-1 $199 $200 $70 $-1 $201 reversed single #
loop $-1 $-1 $202 $91 #
plane-surface $-1 0 0 93.069246498001036 0 0 1 1 0 0 forward_v I I I I #
face $-1 $203 $204 $71 $-1 $205 forward single #
loop $-1 $206 $207 $92 #
cone-surface $-1 0 0 -0.75 0 0 1 0.5 0 0 1 I I 0 1 0.5 forward I I I I #
face $-1 $208 $209 $72 $-1 $210 forward single #
loop $-1 $211 $212 $93 #
cone-surface $-1 0 0 -0.75 0 0 1 0.5 0 0 1 I I 0 1 0.5 forward I I I I #
face $-1 $213 $214 $73 $-1 $215 forward single #
loop $-1 $216 $217 $94 #
cone-surface $-1 0 0 -0.75 0 0 1 0.5 0 0 1 I I 0 1 0.5 forward I I I I #
face $-1 $218 $219 $74 $-1 $220 reversed single #
loop $-1 $-1 $221 $95 #
plane-surface $-1 0 0 93.069246498001036 0 0 1 1 0 0 forward_v I I I I #
face $-1 $222 $223 $75 $-1 $224 forward single #
loop $-1 $225 $226 $96 #
cone-surface $-1 0 0 -0.75 0 0 1 0.5 0 0 1 I I 0 1 0.5 forward I I I I #
face $-1 $227 $228 $76 $-1 $229 forward single #
loop $-1 $230 $231 $97 #
cone-surface $-1 0 0 -0.75 0 0 1 0.5 0 0 1 I I 0 1 0.5 forward I I I I #
face $-1 $232 $233 $77 $-1 $234 forward single #
loop $-1 $235 $236 $98 #
cone-surface $-1 0 0 -0.75 0 0 1 0.5 0 0 1 I I 0 1 0.5 forward I I I I #
face $-1 $237 $238 $78 $-1 $239 reversed single #
loop $-1 $-1 $240 $99 #
plane-surface $-1 0 0 93.069246498001036 0 0 1 1 0 0 forward_v I I I I #
face $-1 $241 $242 $79 $-1 $243 forward single #
loop $-1 $244 $245 $100 #
cone-surface $-1 0 0 -1.491470076601459 0 0 1 1 0 0 1 I I 0 1 1 forward I I I I #
face $-1 $246 $247 $80 $-1 $248 forward single #
loop $-1 $249 $250 $101 #
cone-surface $-1 0 0 -1.491470076601459 0 0 1 1 0 0 1 I I 0 1 1 forward I I I I #
face $-1 $251 $252 $81 $-1 $253 reversed single #
loop $-1 $-1 $254 $102 #
plane-surface $-1 0 0 93.069246498001036 0 0 1 1 0 0 forward_v I I I I #
face $-1 $255 $256 $82 $-1 $257 forward single #
loop $-1 $258 $259 $103 #
cone-surface $-1 0 0 -1.491470076601459 0 0 1 1 0 0 1 I I 0 1 1 forward I I I I #
face $-1 $260 $261 $83 $-1 $262 forward single #
loop $-1 $263 $264 $104 #
cone-surface $-1 0 0 -1.491470076601459 0 0 1 1 0 0 1 I I 0 1 1 forward I I I I #
face $-1 $265 $266 $63 $-1 $267 reversed single #
loop $-1 $-1 $268 $105 #
plane-surface $-1 0 0 -6.5475775035705475 0 0 1 1 0 0 forward_v I I I I #
coedge $-1 $269 $270 $271 $272 forward $106 $-1 #
face $-1 $273 $274 $64 $-1 $275 reversed single #
loop $-1 $-1 $276 $108 #
plane-surface $-1 0 0 -1.6846019514710378 0 0 1 1 0 0 forward_v I I I I #
coedge $-1 $277 $278 $279 $280 forward $109 $-1 #
face $-1 $281 $282 $65 $-1 $283 reversed single #
loop $-1 $-1 $284 $111 #
plane-surface $-1 0 0 -1.6846019514710378 0 0 1 1 0 0 forward_v I I I I #
coedge $-1 $285 $286 $287 $288 forward $112 $-1 #
face $-1 $289 $290 $66 $-1 $291 reversed single #
loop $-1 $-1 $292 $114 #
plane-surface $-1 0 0 -93.069246498001036 0 0 1 1 0 0 forward_v I I I I #
coedge $-1 $293 $294 $295 $296 forward $115 $-1 #
face $-1 $-1 $297 $67 $-1 $298 forward single #
loop $-1 $-1 $299 $117 #
plane-surface $-1 0 0 -1.25 0 0 -1 -1 0 0 forward_v I I I I #
loop $-1 $-1 $300 $88 #
coedge $-1 $188 $188 $299 $301 reversed $118 $-1 #
face $-1 $-1 $302 $68 $-1 $303 forward single #
loop $-1 $-1 $304 $120 #
plane-surface $-1 0 0 -1.25 0 0 -1 -1 0 0 forward_v I I I I #
loop $-1 $-1 $305 $89 #
coedge $-1 $193 $193 $304 $306 reversed $121 $-1 #
face $-1 $-1 $307 $69 $-1 $308 forward single #
loop $-1 $-1 $309 $123 #
plane-surface $-1 0 0 -1.25 0 0 -1 -1 0 0 forward_v I I I I #
loop $-1 $-1 $310 $90 #
coedge $-1 $198 $198 $309 $311 reversed $124 $-1 #
face $-1 $312 $313 $70 $-1 $314 reversed single #
loop $-1 $-1 $315 $126 #
plane-surface $-1 0 0 -93.069246498001036 0 0 1 1 0 0 forward_v I I I I #
coedge $-1 $316 $317 $318 $319 forward $127 $-1 #
face $-1 $-1 $320 $71 $-1 $321 forward single #
loop $-1 $-1 $322 $129 #
plane-surface $-1 0 0 -1.25 0 0 -1 -1 0 0 forward_v I I I I #
loop $-1 $-1 $323 $92 #
coedge $-1 $207 $207 $322 $324 reversed $130 $-1 #
face $-1 $-1 $325 $72 $-1 $326 forward single #
loop $-1 $-1 $327 $132 #
plane-surface $-1 0 0 -1.25 0 0 -1 -1 0 0 forward_v I I I I #
loop $-1 $-1 $328 $93 #
coedge $-1 $212 $212 $327 $329 reversed $133 $-1 #
face $-1 $-1 $330 $73 $-1 $331 forward single #
loop $-1 $-1 $332 $135 #
plane-surface $-1 0 0 -1.25 0 0 -1 -1 0 0 forward_v I I I I #
loop $-1 $-1 $333 $94 #
coedge $-1 $217 $217 $332 $334 reversed $136 $-1 #
face $-1 $335 $336 $74 $-1 $337 reversed single #
loop $-1 $-1 $338 $138 #
plane-surface $-1 0 0 -93.069246498001036 0 0 1 1 0 0 forward_v I I I I #
coedge $-1 $339 $340 $341 $342 forward $139 $-1 #
face $-1 $-1 $343 $75 $-1 $344 forward single #
loop $-1 $-1 $345 $141 #
plane-surface $-1 0 0 -1.25 0 0 -1 -1 0 0 forward_v I I I I #
loop $-1 $-1 $346 $96 #
coedge $-1 $226 $226 $345 $347 reversed $142 $-1 #
face $-1 $-1 $348 $76 $-1 $349 forward single #
loop $-1 $-1 $350 $144 #
plane-surface $-1 0 0 -1.25 0 0 -1 -1 0 0 forward_v I I I I #
loop $-1 $-1 $351 $97 #
coedge $-1 $231 $231 $350 $352 reversed $145 $-1 #
face $-1 $-1 $353 $77 $-1 $354 forward single #
loop $-1 $-1 $355 $147 #
plane-surface $-1 0 0 -1.25 0 0 -1 -1 0 0 forward_v I I I I #
loop $-1 $-1 $356 $98 #
coedge $-1 $236 $236 $355 $357 reversed $148 $-1 #
face $-1 $358 $359 $78 $-1 $360 reversed single #
loop $-1 $-1 $361 $150 #
plane-surface $-1 0 0 -93.069246498001036 0 0 1 1 0 0 forward_v I I I I #
coedge $-1 $362 $363 $364 $365 forward $151 $-1 #
face $-1 $-1 $366 $79 $-1 $367 forward single #
loop $-1 $-1 $368 $153 #
plane-surface $-1 0 0 -2.4829401532029176 0 0 -1 -1 0 0 forward_v I I I I #
loop $-1 $-1 $369 $100 #
coedge $-1 $245 $245 $368 $370 reversed $154 $-1 #
face $-1 $-1 $371 $80 $-1 $372 forward single #
loop $-1 $-1 $373 $156 #
plane-surface $-1 0 0 -2.4829401532029176 0 0 -1 -1 0 0 forward_v I I I I #
loop $-1 $-1 $374 $101 #
coedge $-1 $250 $250 $373 $375 reversed $157 $-1 #
face $-1 $376 $377 $81 $-1 $378 reversed single #
loop $-1 $-1 $379 $159 #
plane-surface $-1 0 0 -93.069246498001036 0 0 1 1 0 0 forward_v I I I I #
coedge $-1 $380 $381 $382 $383 forward $160 $-1 #
face $-1 $-1 $384 $82 $-1 $385 forward single #
loop $-1 $-1 $386 $162 #
plane-surface $-1 0 0 -2.4829401532029176 0 0 -1 -1 0 0 forward_v I I I I #
loop $-1 $-1 $387 $103 #
coedge $-1 $259 $259 $386 $388 reversed $163 $-1 #
face $-1 $-1 $389 $83 $-1 $390 forward single #
loop $-1 $-1 $391 $165 #
plane-surface $-1 0 0 -2.4829401532029176 0 0 -1 -1 0 0 forward_v I I I I #
loop $-1 $-1 $392 $104 #
coedge $-1 $264 $264 $391 $393 reversed $166 $-1 #
face $-1 $394 $395 $63 $-1 $396 reversed single #
loop $-1 $-1 $397 $168 #
plane-surface $-1 0 -20.013850263950459 0 0 1 0 0 0 1 forward_v I I I I #
coedge $-1 $398 $399 $400 $401 forward $169 $-1 #
coedge $-1 $402 $171 $403 $404 forward $106 $-1 #
coedge $-1 $171 $402 $405 $406 forward $106 $-1 #
coedge $-1 $407 $408 $171 $272 reversed $409 $-1 #
edge $-1 $410 -20.013850263950459 $411 20.013850263950459 $271 $412 forward 7 unknown #
face $-1 $413 $414 $64 $-1 $415 reversed single #
loop $-1 $-1 $416 $172 #
plane-surface $-1 0 -2.817872179992873 0 0 1 0 0 0 1 forward_v I I I I #
coedge $-1 $417 $418 $419 $420 forward $173 $-1 #
coedge $-1 $421 $175 $422 $423 forward $109 $-1 #
coedge $-1 $175 $421 $424 $425 forward $109 $-1 #
coedge $-1 $426 $427 $175 $280 reversed $428 $-1 #
edge $-1 $429 -2.817872179992873 $430 2.817872179992873 $279 $431 forward 7 unknown #
face $-1 $432 $433 $65 $-1 $434 reversed single #
loop $-1 $-1 $435 $176 #
plane-surface $-1 0 -2.8178721799928717 0 0 1 0 0 0 1 forward_v I I I I #
coedge $-1 $436 $437 $438 $439 forward $177 $-1 #
coedge $-1 $440 $179 $441 $442 forward $112 $-1 #
coedge $-1 $179 $440 $443 $444 forward $112 $-1 #
coedge $-1 $445 $446 $179 $288 reversed $447 $-1 #
edge $-1 $448 -2.8178721799928717 $449 2.8178721799928717 $287 $450 forward 7 unknown #
face $-1 $451 $452 $66 $-1 $453 reversed single #
loop $-1 $-1 $454 $180 #
plane-surface $-1 0 -2.9230833010895414 0 0 1 0 0 0 1 forward_v I I I I #
coedge $-1 $455 $456 $457 $458 forward $181 $-1 #
coedge $-1 $459 $183 $460 $461 forward $115 $-1 #
coedge $-1 $183 $459 $462 $463 forward $115 $-1 #
coedge $-1 $464 $465 $183 $296 reversed $466 $-1 #
edge $-1 $467 -2.9230833010895414 $468 2.9230833010895414 $295 $469 forward 7 unknown #
loop $-1 $470 $471 $184 #
cone-surface $-1 0 0 0 0 0 1 0.25 0 0 1 I I -0.70710678118654746 0.70710678118654746 0.25 forward I I I I #
coedge $-1 $299 $299 $188 $301 forward $185 $-1 #
coedge $-1 $300 $300 $471 $472 forward $187 $-1 #
edge $-1 $473 0 $473 6.2831853071796004 $299 $474 forward 7 unknown #
loop $-1 $475 $476 $189 #
cone-surface $-1 0 0 0 0 0 1 0.25 0 0 1 I I -0.70710678118654746 0.70710678118654746 0.25 forward I I I I #
coedge $-1 $304 $304 $193 $306 forward $190 $-1 #
coedge $-1 $305 $305 $476 $477 forward $192 $-1 #
edge $-1 $478 0 $478 6.2831853071796004 $304 $479 forward 7 unknown #
loop $-1 $480 $481 $194 #
cone-surface $-1 0 0 0 0 0 1 0.25 0 0 1 I I -0.70710678118654746 0.70710678118654746 0.25 forward I I I I #
coedge $-1 $309 $309 $198 $311 forward $195 $-1 #
coedge $-1 $310 $310 $481 $482 forward $197 $-1 #
edge $-1 $483 0 $483 6.2831853071796004 $309 $484 forward 7 unknown #
face $-1 $485 $486 $70 $-1 $487 reversed single #
loop $-1 $-1 $488 $199 #
plane-surface $-1 0 -2.9230833010895414 0 0 1 0 0 0 1 forward_v I I I I #
coedge $-1 $489 $490 $491 $492 forward $200 $-1 #
coedge $-1 $493 $202 $494 $495 forward $127 $-1 #
coedge $-1 $202 $493 $496 $497 forward $127 $-1 #
coedge $-1 $498 $499 $202 $319 reversed $500 $-1 #
edge $-1 $501 -2.9230833010895414 $502 2.9230833010895414 $318 $503 forward 7 unknown #
loop $-1 $504 $505 $203 #
cone-surface $-1 0 0 0 0 0 1 0.25 0 0 1 I I -0.70710678118654746 0.70710678118654746 0.25 forward I I I I #
coedge $-1 $322 $322 $207 $324 forward $204 $-1 #
coedge $-1 $323 $323 $505 $506 forward $206 $-1 #
edge $-1 $507 0 $507 6.2831853071796004 $322 $508 forward 7 unknown #
loop $-1 $509 $510 $208 #
cone-surface $-1 0 0 0 0 0 1 0.25 0 0 1 I I -0.70710678118654746 0.70710678118654746 0.25 forward I I I I #
coedge $-1 $327 $327 $212 $329 forward $209 $-1 #
coedge $-1 $328 $328 $510 $511 forward $211 $-1 #
edge $-1 $512 0 $512 6.2831853071796004 $327 $513 forward 7 unknown #
loop $-1 $514 $515 $213 #
cone-surface $-1 0 0 0 0 0 1 0.25 0 0 1 I I -0.70710678118654746 0.70710678118654746 0.25 forward I I I I #
coedge $-1 $332 $332 $217 $334 forward $214 $-1 #
coedge $-1 $333 $333 $515 $516 forward $216 $-1 #
edge $-1 $517 0 $517 6.2831853071796004 $332 $518 forward 7 unknown #
face $-1 $519 $520 $74 $-1 $521 reversed single #
loop $-1 $-1 $522 $218 #
plane-surface $-1 0 -2.9230833010895414 0 0 1 0 0 0 1 forward_v I I I I #
coedge $-1 $523 $524 $525 $526 forward $219 $-1 #
coedge $-1 $527 $221 $528 $529 forward $139 $-1 #
coedge $-1 $221 $527 $530 $531 forward $139 $-1 #
coedge $-1 $532 $533 $221 $342 reversed $534 $-1 #
edge $-1 $535 -2.9230833010895414 $536 2.9230833010895414 $341 $537 forward 7 unknown #
loop $-1 $538 $539 $222 #
cone-surface $-1 0 0 0 0 0 1 0.25 0 0 1 I I -0.70710678118654746 0.70710678118654746 0.25 forward I I I I #
coedge $-1 $345 $345 $226 $347 forward $223 $-1 #
coedge $-1 $346 $346 $539 $540 forward $225 $-1 #
edge $-1 $541 0 $541 6.2831853071796004 $345 $542 forward 7 unknown #
loop $-1 $543 $544 $227 #
cone-surface $-1 0 0 0 0 0 1 0.25 0 0 1 I I -0.70710678118654746 0.70710678118654746 0.25 forward I I I I #
coedge $-1 $350 $350 $231 $352 forward $228 $-1 #
coedge $-1 $351 $351 $544 $545 forward $230 $-1 #
edge $-1 $546 0 $546 6.2831853071796004 $350 $547 forward 7 unknown #
loop $-1 $548 $549 $232 #
cone-surface $-1 0 0 0 0 0 1 0.25 0 0 1 I I -0.70710678118654746 0.70710678118654746 0.25 forward I I I I #
coedge $-1 $355 $355 $236 $357 forward $233 $-1 #
coedge $-1 $356 $356 $549 $550 forward $235 $-1 #
edge $-1 $551 0 $551 6.2831853071796004 $355 $552 forward 7 unknown #
face $-1 $553 $554 $78 $-1 $555 reversed single #
loop $-1 $-1 $556 $237 #
plane-surface $-1 0 -3.5039876071537517 0 0 1 0 0 0 1 forward_v I I I I #
coedge $-1 $557 $558 $559 $560 forward $238 $-1 #
coedge $-1 $561 $240 $562 $563 forward $151 $-1 #
coedge $-1 $240 $561 $564 $565 forward $151 $-1 #
coedge $-1 $566 $567 $240 $365 reversed $568 $-1 #
edge $-1 $569 -3.5039876071537517 $570 3.5039876071537517 $364 $571 forward 7 unknown #
loop $-1 $572 $573 $241 #
cone-surface $-1 0 0 0 0 0 1 0.5 0 0 1 I I -0.70710678118654746 0.70710678118654746 0.5 forward I I I I #
coedge $-1 $368 $368 $245 $370 forward $242 $-1 #
coedge $-1 $369 $369 $573 $574 forward $244 $-1 #
edge $-1 $575 0 $575 6.2831853071796004 $368 $576 forward 7 unknown #
loop $-1 $577 $578 $246 #
cone-surface $-1 0 0 0 0 0 1 0.5 0 0 1 I I -0.70710678118654746 0.70710678118654746 0.5 forward I I I I #
coedge $-1 $373 $373 $250 $375 forward $247 $-1 #
coedge $-1 $374 $374 $578 $579 forward $249 $-1 #
edge $-1 $580 0 $580 6.2831853071796004 $373 $581 forward 7 unknown #
face $-1 $582 $583 $81 $-1 $584 reversed single #
loop $-1 $-1 $585 $251 #
plane-surface $-1 0 -3.5039876071537517 0 0 1 0 0 0 1 forward_v I I I I #
coedge $-1 $586 $587 $588 $589 forward $252 $-1 #
coedge $-1 $590 $254 $591 $592 forward $160 $-1 #
coedge $-1 $254 $590 $593 $594 forward $160 $-1 #
coedge $-1 $595 $596 $254 $383 reversed $597 $-1 #
edge $-1 $598 -3.5039876071537517 $599 3.5039876071537517 $382 $600 forward 7 unknown #
loop $-1 $601 $602 $255 #
cone-surface $-1 0 0 0 0 0 1 0.5 0 0 1 I I -0.70710678118654746 0.70710678118654746 0.5 forward I I I I #
coedge $-1 $386 $386 $259 $388 forward $256 $-1 #
coedge $-1 $387 $387 $602 $603 forward $258 $-1 #
edge $-1 $604 0 $604 6.2831853071796004 $386 $605 forward 7 unknown #
loop $-1 $606 $607 $260 #
cone-surface $-1 0 0 0 0 0 1 0.5 0 0 1 I I -0.70710678118654746 0.70710678118654746 0.5 forward I I I I #
coedge $-1 $391 $391 $264 $393 forward $261 $-1 #
coedge $-1 $392 $392 $607 $608 forward $263 $-1 #
edge $-1 $609 0 $609 6.2831853071796004 $391 $610 forward 7 unknown #
face $-1 $611 $612 $63 $-1 $613 reversed single #
loop $-1 $-1 $614 $265 #
plane-surface $-1 -46.534623249000518 0 0 1 0 0 0 0 -1 forward_v I I I I #
coedge $-1 $615 $405 $616 $617 forward $266 $-1 #
coedge $-1 $618 $268 $615 $619 forward $169 $-1 #
coedge $-1 $268 $618 $620 $621 forward $169 $-1 #
coedge $-1 $408 $407 $268 $401 reversed $409 $-1 #
edge $-1 $622 -20.013850263950459 $623 20.013850263950459 $400 $624 forward 7 unknown #
coedge $-1 $270 $269 $625 $626 forward $106 $-1 #
coedge $-1 $627 $628 $269 $404 reversed $612 $-1 #
edge $-1 $411 -46.534623249000518 $629 46.534623249000518 $403 $630 forward 7 unknown #
coedge $-1 $397 $631 $270 $406 reversed $266 $-1 #
edge $-1 $632 -46.534623249000518 $410 46.534623249000518 $405 $633 forward 7 unknown #
coedge $-1 $400 $271 $631 $634 forward $409 $-1 #
coedge $-1 $271 $400 $627 $635 reversed $409 $-1 #
loop $-1 $-1 $407 $611 #
vertex $-1 $272 $636 #
vertex $-1 $272 $637 #
straight-curve $-1 46.534623249000518 0 6.5475775035705475 0 1 0 I I #
face $-1 $638 $639 $64 $-1 $640 reversed single #
loop $-1 $-1 $641 $273 #
plane-surface $-1 -46.534623249000518 0 0 1 0 0 0 0 -1 forward_v I I I I #
coedge $-1 $642 $424 $643 $644 forward $274 $-1 #
coedge $-1 $645 $276 $642 $646 forward $173 $-1 #
coedge $-1 $276 $645 $647 $648 forward $173 $-1 #
coedge $-1 $427 $426 $276 $420 reversed $428 $-1 #
edge $-1 $649 -2.817872179992873 $650 2.817872179992873 $419 $651 forward 7 unknown #
coedge $-1 $278 $277 $652 $653 forward $109 $-1 #
coedge $-1 $654 $655 $277 $423 reversed $639 $-1 #
edge $-1 $430 -46.534623249000518 $656 46.534623249000518 $422 $657 forward 7 unknown #
coedge $-1 $416 $658 $278 $425 reversed $274 $-1 #
edge $-1 $659 -46.534623249000518 $429 46.534623249000518 $424 $660 forward 7 unknown #
coedge $-1 $419 $279 $658 $661 forward $428 $-1 #
coedge $-1 $279 $419 $654 $662 reversed $428 $-1 #
loop $-1 $-1 $426 $638 #
vertex $-1 $280 $663 #
vertex $-1 $280 $664 #
straight-curve $-1 46.534623249000518 0 1.6846019514710378 0 1 0 I I #
face $-1 $665 $666 $65 $-1 $667 reversed single #
loop $-1 $-1 $668 $281 #
plane-surface $-1 -46.534623249000518 0 0 1 0 0 0 0 -1 forward_v I I I I #
coedge $-1 $669 $443 $670 $671 forward $282 $-1 #
coedge $-1 $672 $284 $669 $673 forward $177 $-1 #
coedge $-1 $284 $672 $674 $675 forward $177 $-1 #
coedge $-1 $446 $445 $284 $439 reversed $447 $-1 #
edge $-1 $676 -2.8178721799928717 $677 2.8178721799928717 $438 $678 forward 7 unknown #
coedge $-1 $286 $285 $679 $680 forward $112 $-1 #
coedge $-1 $681 $682 $285 $442 reversed $666 $-1 #
edge $-1 $449 -46.534623249000518 $683 46.534623249000518 $441 $684 forward 7 unknown #
coedge $-1 $435 $685 $286 $444 reversed $282 $-1 #
edge $-1 $686 -46.534623249000518 $448 46.534623249000518 $443 $687 forward 7 unknown #
coedge $-1 $438 $287 $685 $688 forward $447 $-1 #
coedge $-1 $287 $438 $681 $689 reversed $447 $-1 #
loop $-1 $-1 $445 $665 #
vertex $-1 $288 $690 #
vertex $-1 $288 $691 #
straight-curve $-1 46.534623249000518 0 1.6846019514710378 0 1 0 I I #
face $-1 $692 $693 $66 $-1 $694 reversed single #
loop $-1 $-1 $695 $289 #
plane-surface $-1 -186.13849299600207 0 0 1 0 0 0 0 -1 forward_v I I I I #
coedge $-1 $696 $462 $697 $698 forward $290 $-1 #
coedge $-1 $699 $292 $696 $700 forward $181 $-1 #
coedge $-1 $292 $699 $701 $702 forward $181 $-1 #
coedge $-1 $465 $464 $292 $458 reversed $466 $-1 #
edge $-1 $703 -2.9230833010895414 $704 2.9230833010895414 $457 $705 forward 7 unknown #
coedge $-1 $294 $293 $706 $707 forward $115 $-1 #
coedge $-1 $708 $709 $293 $461 reversed $693 $-1 #
edge $-1 $468 -186.13849299600207 $710 186.13849299600207 $460 $711 forward 7 unknown #
coedge $-1 $454 $712 $294 $463 reversed $290 $-1 #
edge $-1 $713 -186.13849299600207 $467 186.13849299600207 $462 $714 forward 7 unknown #
coedge $-1 $457 $295 $712 $715 forward $466 $-1 #
coedge $-1 $295 $457 $708 $716 reversed $466 $-1 #
loop $-1 $-1 $464 $692 #
vertex $-1 $296 $717 #
vertex $-1 $296 $718 #
straight-curve $-1 186.13849299600207 0 93.069246498001036 0 1 0 I I #
loop $-1 $-1 $719 $184 #
coedge $-1 $471 $471 $300 $472 reversed $297 $-1 #
edge $-1 $720 0 $720 6.2831853071796004 $471 $721 forward 7 unknown #
vertex $-1 $301 $722 #
ellipse-curve $-1 0 0 -1.25 0 0 -1 0.5 0 0 1 I I #
loop $-1 $-1 $723 $189 #
coedge $-1 $476 $476 $305 $477 reversed $302 $-1 #
edge $-1 $724 0 $724 6.2831853071796004 $476 $725 forward 7 unknown #
vertex $-1 $306 $726 #
ellipse-curve $-1 0 0 -1.25 0 0 -1 0.5 0 0 1 I I #
loop $-1 $-1 $727 $194 #
coedge $-1 $481 $481 $310 $482 reversed $307 $-1 #
edge $-1 $728 0 $728 6.2831853071796004 $481 $729 forward 7 unknown #
vertex $-1 $311 $730 #
ellipse-curve $-1 0 0 -1.25 0 0 -1 0.5 0 0 1 I I #
face $-1 $731 $732 $70 $-1 $733 reversed single #
loop $-1 $-1 $734 $312 #
plane-surface $-1 -186.13849299600207 0 0 1 0 0 0 0 -1 forward_v I I I I #
coedge $-1 $735 $496 $736 $737 forward $313 $-1 #
coedge $-1 $738 $315 $735 $739 forward $200 $-1 #
coedge $-1 $315 $738 $740 $741 forward $200 $-1 #
coedge $-1 $499 $498 $315 $492 reversed $500 $-1 #
edge $-1 $742 -2.9230833010895414 $743 2.9230833010895414 $491 $744 forward 7 unknown #
coedge $-1 $317 $316 $745 $746 forward $127 $-1 #
coedge $-1 $747 $748 $316 $495 reversed $732 $-1 #
edge $-1 $502 -186.13849299600207 $749 186.13849299600207 $494 $750 forward 7 unknown #
coedge $-1 $488 $751 $317 $497 reversed $313 $-1 #
edge $-1 $752 -186.13849299600207 $501 186.13849299600207 $496 $753 forward 7 unknown #
coedge $-1 $491 $318 $751 $754 forward $500 $-1 #
coedge $-1 $318 $491 $747 $755 reversed $500 $-1 #
loop $-1 $-1 $498 $731 #
vertex $-1 $319 $756 #
vertex $-1 $319 $757 #
straight-curve $-1 186.13849299600207 0 93.069246498001036 0 1 0 I I #
loop $-1 $-1 $758 $203 #
coedge $-1 $505 $505 $323 $506 reversed $320 $-1 #
edge $-1 $759 0 $759 6.2831853071796004 $505 $760 forward 7 unknown #
vertex $-1 $324 $761 #
ellipse-curve $-1 0 0 -1.25 0 0 -1 0.5 0 0 1 I I #
loop $-1 $-1 $762 $208 #
coedge $-1 $510 $510 $328 $511 reversed $325 $-1 #
edge $-1 $763 0 $763 6.2831853071796004 $510 $764 forward 7 unknown #
vertex $-1 $329 $765 #
ellipse-curve $-1 0 0 -1.25 0 0 -1 0.5 0 0 1 I I #
loop $-1 $-1 $766 $213 #
coedge $-1 $515 $515 $333 $516 reversed $330 $-1 #
edge $-1 $767 0 $767 6.2831853071796004 $515 $768 forward 7 unknown #
vertex $-1 $334 $769 #
ellipse-curve $-1 0 0 -1.25 0 0 -1 0.5 0 0 1 I I #
face $-1 $770 $771 $74 $-1 $772 reversed single #
loop $-1 $-1 $773 $335 #
plane-surface $-1 -186.13849299600207 0 0 1 0 0 0 0 -1 forward_v I I I I #
coedge $-1 $774 $530 $775 $776 forward $336 $-1 #
coedge $-1 $777 $338 $774 $778 forward $219 $-1 #
coedge $-1 $338 $777 $779 $780 forward $219 $-1 #
coedge $-1 $533 $532 $338 $526 reversed $534 $-1 #
edge $-1 $781 -2.9230833010895414 $782 2.9230833010895414 $525 $783 forward 7 unknown #
coedge $-1 $340 $339 $784 $785 forward $139 $-1 #
coedge $-1 $786 $787 $339 $529 reversed $771 $-1 #
edge $-1 $536 -186.13849299600207 $788 186.13849299600207 $528 $789 forward 7 unknown #
coedge $-1 $522 $790 $340 $531 reversed $336 $-1 #
edge $-1 $791 -186.13849299600207 $535 186.13849299600207 $530 $792 forward 7 unknown #
coedge $-1 $525 $341 $790 $793 forward $534 $-1 #
coedge $-1 $341 $525 $786 $794 reversed $534 $-1 #
loop $-1 $-1 $532 $770 #
vertex $-1 $342 $795 #
vertex $-1 $342 $796 #
straight-curve $-1 186.13849299600207 0 93.069246498001036 0 1 0 I I #
loop $-1 $-1 $797 $222 #
coedge $-1 $539 $539 $346 $540 reversed $343 $-1 #
edge $-1 $798 0 $798 6.2831853071796004 $539 $799 forward 7 unknown #
vertex $-1 $347 $800 #
ellipse-curve $-1 0 0 -1.25 0 0 -1 0.5 0 0 1 I I #
loop $-1 $-1 $801 $227 #
coedge $-1 $544 $544 $351 $545 reversed $348 $-1 #
edge $-1 $802 0 $802 6.2831853071796004 $544 $803 forward 7 unknown #
vertex $-1 $352 $804 #
ellipse-curve $-1 0 0 -1.25 0 0 -1 0.5 0 0 1 I I #
loop $-1 $-1 $805 $232 #
coedge $-1 $549 $549 $356 $550 reversed $353 $-1 #
edge $-1 $806 0 $806 6.2831853071796004 $549 $807 forward 7 unknown #
vertex $-1 $357 $808 #
ellipse-curve $-1 0 0 -1.25 0 0 -1 0.5 0 0 1 I I #
face $-1 $809 $810 $78 $-1 $811 reversed single #
loop $-1 $-1 $812 $358 #
plane-surface $-1 -186.13849299600207 0 0 1 0 0 0 0 -1 forward_v I I I I #
coedge $-1 $813 $564 $814 $815 forward $359 $-1 #
coedge $-1 $816 $361 $813 $817 forward $238 $-1 #
coedge $-1 $361 $816 $818 $819 forward $238 $-1 #
coedge $-1 $567 $566 $361 $560 reversed $568 $-1 #
edge $-1 $820 -3.5039876071537517 $821 3.5039876071537517 $559 $822 forward 7 unknown #
coedge $-1 $363 $362 $823 $824 forward $151 $-1 #
coedge $-1 $825 $826 $362 $563 reversed $810 $-1 #
edge $-1 $570 -186.13849299600207 $827 186.13849299600207 $562 $828 forward 7 unknown #
coedge $-1 $556 $829 $363 $565 reversed $359 $-1 #
edge $-1 $830 -186.13849299600207 $569 186.13849299600207 $564 $831 forward 7 unknown #
coedge $-1 $559 $364 $829 $832 forward $568 $-1 #
coedge $-1 $364 $559 $825 $833 reversed $568 $-1 #
loop $-1 $-1 $566 $809 #
vertex $-1 $365 $834 #
vertex $-1 $365 $835 #
straight-curve $-1 186.13849299600207 0 93.069246498001036 0 1 0 I I #
loop $-1 $-1 $836 $241 #
coedge $-1 $573 $573 $369 $574 reversed $366 $-1 #
edge $-1 $837 0 $837 6.2831853071796004 $573 $838 forward 7 unknown #
vertex $-1 $370 $839 #
ellipse-curve $-1 0 0 -2.4829401532029176 0 0 -1 1 0 0 1 I I #
loop $-1 $-1 $840 $246 #
coedge $-1 $578 $578 $374 $579 reversed $371 $-1 #
edge $-1 $841 0 $841 6.2831853071796004 $578 $842 forward 7 unknown #
vertex $-1 $375 $843 #
ellipse-curve $-1 0 0 -2.4829401532029176 0 0 -1 1 0 0 1 I I #
face $-1 $844 $845 $81 $-1 $846 reversed single #
loop $-1 $-1 $847 $376 #
plane-surface $-1 -186.13849299600207 0 0 1 0 0 0 0 -1 forward_v I I I I #
coedge $-1 $848 $593 $849 $850 forward $377 $-1 #
coedge $-1 $851 $379 $848 $852 forward $252 $-1 #
coedge $-1 $379 $851 $853 $854 forward $252 $-1 #
coedge $-1 $596 $595 $379 $589 reversed $597 $-1 #
edge $-1 $855 -3.5039876071537517 $856 3.5039876071537517 $588 $857 forward 7 unknown #
coedge $-1 $381 $380 $858 $859 forward $160 $-1 #
coedge $-1 $860 $861 $380 $592 reversed $845 $-1 #
edge $-1 $599 -186.13849299600207 $862 186.13849299600207 $591 $863 forward 7 unknown #
coedge $-1 $585 $864 $381 $594 reversed $377 $-1 #
edge $-1 $865 -186.13849299600207 $598 186.13849299600207 $593 $866 forward 7 unknown #
coedge $-1 $588 $382 $864 $867 forward $597 $-1 #
coedge $-1 $382 $588 $860 $868 reversed $597 $-1 #
loop $-1 $-1 $595 $844 #
vertex $-1 $383 $869 #
vertex $-1 $383 $870 #
straight-curve $-1 186.13849299600207 0 93.069246498001036 0 1 0 I I #
loop $-1 $-1 $871 $255 #
coedge $-1 $602 $602 $387 $603 reversed $384 $-1 #
edge $-1 $872 0 $872 6.2831853071796004 $602 $873 forward 7 unknown #
vertex $-1 $388 $874 #
ellipse-curve $-1 0 0 -2.4829401532029176 0 0 -1 1 0 0 1 I I #
loop $-1 $-1 $875 $260 #
coedge $-1 $607 $607 $392 $608 reversed $389 $-1 #
edge $-1 $876 0 $876 6.2831853071796004 $607 $877 forward 7 unknown #
vertex $-1 $393 $878 #
ellipse-curve $-1 0 0 -2.4829401532029176 0 0 -1 1 0 0 1 I I #
face $-1 $-1 $409 $63 $-1 $879 reversed single #
loop $-1 $-1 $627 $394 #
plane-surface $-1 0 20.013850263950459 0 0 -1 0 0 0 -1 forward_v I I I I #
coedge $-1 $880 $625 $628 $881 forward $395 $-1 #
coedge $-1 $631 $397 $398 $619 reversed $266 $-1 #
coedge $-1 $625 $880 $397 $617 reversed $395 $-1 #
edge $-1 $632 -6.5475775035705475 $882 6.5475775035705475 $616 $883 forward 7 unknown #
coedge $-1 $399 $398 $880 $884 forward $169 $-1 #
edge $-1 $623 -46.534623249000518 $882 46.534623249000518 $615 $885 forward 7 unknown #
coedge $-1 $628 $627 $399 $621 reversed $612 $-1 #
edge $-1 $886 -46.534623249000518 $622 46.534623249000518 $620 $887 forward 7 unknown #
vertex $-1 $401 $888 #
vertex $-1 $634 $889 #
straight-curve $-1 46.534623249000518 0 -6.5475775035705475 0 -1 0 I I #
coedge $-1 $614 $616 $402 $626 reversed $395 $-1 #
edge $-1 $629 -20.013850263950459 $632 20.013850263950459 $625 $890 forward 7 unknown #
coedge $-1 $620 $403 $408 $635 forward $612 $-1 #
coedge $-1 $403 $620 $614 $881 reversed $612 $-1 #
vertex $-1 $404 $891 #
straight-curve $-1 0 20.013850263950459 6.5475775035705475 -1 0 0 I I #
coedge $-1 $405 $615 $407 $634 reversed $266 $-1 #
vertex $-1 $626 $892 #
straight-curve $-1 0 -20.013850263950459 6.5475775035705475 1 0 0 I I #
edge $-1 $410 -6.5475775035705475 $623 6.5475775035705475 $407 $893 forward 7 unknown #
edge $-1 $411 -6.5475775035705475 $622 6.5475775035705475 $408 $894 forward 7 unknown #
point $-1 46.534623249000518 -20.013850263950459 6.5475775035705475 #
point $-1 46.534623249000518 20.013850263950459 6.5475775035705475 #
face $-1 $-1 $428 $64 $-1 $895 reversed single #
loop $-1 $-1 $654 $413 #
plane-surface $-1 0 2.817872179992873 0 0 -1 0 0 0 -1 forward_v I I I I #
coedge $-1 $896 $652 $655 $897 forward $414 $-1 #
coedge $-1 $658 $416 $417 $646 reversed $274 $-1 #
coedge $-1 $652 $896 $416 $644 reversed $414 $-1 #
edge $-1 $659 -1.6846019514710378 $898 1.6846019514710378 $643 $899 forward 7 unknown #
coedge $-1 $418 $417 $896 $900 forward $173 $-1 #
edge $-1 $650 -46.534623249000518 $898 46.534623249000518 $642 $901 forward 7 unknown #
coedge $-1 $655 $654 $418 $648 reversed $639 $-1 #
edge $-1 $902 -46.534623249000518 $649 46.534623249000518 $647 $903 forward 7 unknown #
vertex $-1 $420 $904 #
vertex $-1 $661 $905 #
straight-curve $-1 46.534623249000518 0 -1.6846019514710378 0 -1 0 I I #
coedge $-1 $641 $643 $421 $653 reversed $414 $-1 #
edge $-1 $656 -2.817872179992873 $659 2.817872179992873 $652 $906 forward 7 unknown #
coedge $-1 $647 $422 $427 $662 forward $639 $-1 #
coedge $-1 $422 $647 $641 $897 reversed $639 $-1 #
vertex $-1 $423 $907 #
straight-curve $-1 0 2.817872179992873 1.6846019514710378 -1 0 0 I I #
coedge $-1 $424 $642 $426 $661 reversed $274 $-1 #
vertex $-1 $653 $908 #
straight-curve $-1 0 -2.817872179992873 1.6846019514710378 1 0 0 I I #
edge $-1 $429 -1.6846019514710378 $650 1.6846019514710378 $426 $909 forward 7 unknown #
edge $-1 $430 -1.6846019514710378 $649 1.6846019514710378 $427 $910 forward 7 unknown #
point $-1 46.534623249000518 -2.817872179992873 1.6846019514710378 #
point $-1 46.534623249000518 2.817872179992873 1.6846019514710378 #
face $-1 $-1 $447 $65 $-1 $911 reversed single #
loop $-1 $-1 $681 $432 #
plane-surface $-1 0 2.8178721799928717 0 0 -1 0 0 0 -1 forward_v I I I I #
coedge $-1 $912 $679 $682 $913 forward $433 $-1 #
coedge $-1 $685 $435 $436 $673 reversed $282 $-1 #
coedge $-1 $679 $912 $435 $671 reversed $433 $-1 #
edge $-1 $686 -1.6846019514710378 $914 1.6846019514710378 $670 $915 forward 7 unknown #
coedge $-1 $437 $436 $912 $916 forward $177 $-1 #
edge $-1 $677 -46.534623249000518 $914 46.534623249000518 $669 $917 forward 7 unknown #
coedge $-1 $682 $681 $437 $675 reversed $666 $-1 #
edge $-1 $918 -46.534623249000518 $676 46.534623249000518 $674 $919 forward 7 unknown #
vertex $-1 $439 $920 #
vertex $-1 $688 $921 #
straight-curve $-1 46.534623249000518 0 -1.6846019514710378 0 -1 0 I I #
coedge $-1 $668 $670 $440 $680 reversed $433 $-1 #
edge $-1 $683 -2.8178721799928717 $686 2.8178721799928717 $679 $922 forward 7 unknown #
coedge $-1 $674 $441 $446 $689 forward $666 $-1 #
coedge $-1 $441 $674 $668 $913 reversed $666 $-1 #
vertex $-1 $442 $923 #
straight-curve $-1 0 2.8178721799928717 1.6846019514710378 -1 0 0 I I #
coedge $-1 $443 $669 $445 $688 reversed $282 $-1 #
vertex $-1 $680 $924 #
straight-curve $-1 0 -2.8178721799928717 1.6846019514710378 1 0 0 I I #
edge $-1 $448 -1.6846019514710378 $677 1.6846019514710378 $445 $925 forward 7 unknown #
edge $-1 $449 -1.6846019514710378 $676 1.6846019514710378 $446 $926 forward 7 unknown #
point $-1 46.534623249000518 -2.8178721799928717 1.6846019514710378 #
point $-1 46.534623249000518 2.8178721799928717 1.6846019514710378 #
face $-1 $-1 $466 $66 $-1 $927 reversed single #
loop $-1 $-1 $708 $451 #
plane-surface $-1 0 2.9230833010895414 0 0 -1 0 0 0 -1 forward_v I I I I #
coedge $-1 $928 $706 $709 $929 forward $452 $-1 #
coedge $-1 $712 $454 $455 $700 reversed $290 $-1 #
coedge $-1 $706 $928 $454 $698 reversed $452 $-1 #
edge $-1 $713 -93.069246498001036 $930 93.069246498001036 $697 $931 forward 7 unknown #
coedge $-1 $456 $455 $928 $932 forward $181 $-1 #
edge $-1 $704 -186.13849299600207 $930 186.13849299600207 $696 $933 forward 7 unknown #
coedge $-1 $709 $708 $456 $702 reversed $693 $-1 #
edge $-1 $934 -186.13849299600207 $703 186.13849299600207 $701 $935 forward 7 unknown #
vertex $-1 $458 $936 #
vertex $-1 $715 $937 #
straight-curve $-1 186.13849299600207 0 -93.069246498001036 0 -1 0 I I #
coedge $-1 $695 $697 $459 $707 reversed $452 $-1 #
edge $-1 $710 -2.9230833010895414 $713 2.9230833010895414 $706 $938 forward 7 unknown #
coedge $-1 $701 $460 $465 $716 forward $693 $-1 #
coedge $-1 $460 $701 $695 $929 reversed $693 $-1 #
vertex $-1 $461 $939 #
straight-curve $-1 0 2.9230833010895414 93.069246498001036 -1 0 0 I I #
coedge $-1 $462 $696 $464 $715 reversed $290 $-1 #
vertex $-1 $707 $940 #
straight-curve $-1 0 -2.9230833010895414 93.069246498001036 1 0 0 I I #
edge $-1 $467 -93.069246498001036 $704 93.069246498001036 $464 $941 forward 7 unknown #
edge $-1 $468 -93.069246498001036 $703 93.069246498001036 $465 $942 forward 7 unknown #
point $-1 186.13849299600207 -2.9230833010895414 93.069246498001036 #
point $-1 186.13849299600207 2.9230833010895414 93.069246498001036 #
coedge $-1 $719 $719 $-1 $943 reversed $470 $-1 #
vertex $-1 $472 $944 #
ellipse-curve $-1 0 0 -0.25 0 0 -1 0.5 0 0 1 I I #
point $-1 0.5 0 -1.25 #
coedge $-1 $723 $723 $-1 $945 reversed $475 $-1 #
vertex $-1 $477 $946 #
ellipse-curve $-1 0 0 -0.25 0 0 -1 0.5 0 0 1 I I #
point $-1 0.5 0 -1.25 #
coedge $-1 $727 $727 $-1 $947 reversed $480 $-1 #
vertex $-1 $482 $948 #
ellipse-curve $-1 0 0 -0.25 0 0 -1 0.5 0 0 1 I I #
point $-1 0.5 0 -1.25 #
face $-1 $-1 $500 $70 $-1 $949 reversed single #
loop $-1 $-1 $747 $485 #
plane-surface $-1 0 2.9230833010895414 0 0 -1 0 0 0 -1 forward_v I I I I #
coedge $-1 $950 $745 $748 $951 forward $486 $-1 #
coedge $-1 $751 $488 $489 $739 reversed $313 $-1 #
coedge $-1 $745 $950 $488 $737 reversed $486 $-1 #
edge $-1 $752 -93.069246498001036 $952 93.069246498001036 $736 $953 forward 7 unknown #
coedge $-1 $490 $489 $950 $954 forward $200 $-1 #
edge $-1 $743 -186.13849299600207 $952 186.13849299600207 $735 $955 forward 7 unknown #
coedge $-1 $748 $747 $490 $741 reversed $732 $-1 #
edge $-1 $956 -186.13849299600207 $742 186.13849299600207 $740 $957 forward 7 unknown #
vertex $-1 $492 $958 #
vertex $-1 $754 $959 #
straight-curve $-1 186.13849299600207 0 -93.069246498001036 0 -1 0 I I #
coedge $-1 $734 $736 $493 $746 reversed $486 $-1 #
edge $-1 $749 -2.9230833010895414 $752 2.9230833010895414 $745 $960 forward 7 unknown #
coedge $-1 $740 $494 $499 $755 forward $732 $-1 #
coedge $-1 $494 $740 $734 $951 reversed $732 $-1 #
vertex $-1 $495 $961 #
straight-curve $-1 0 2.9230833010895414 93.069246498001036 -1 0 0 I I #
coedge $-1 $496 $735 $498 $754 reversed $313 $-1 #
vertex $-1 $746 $962 #
straight-curve $-1 0 -2.9230833010895414 93.069246498001036 1 0 0 I I #
edge $-1 $501 -93.069246498001036 $743 93.069246498001036 $498 $963 forward 7 unknown #
edge $-1 $502 -93.069246498001036 $742 93.069246498001036 $499 $964 forward 7 unknown #
point $-1 186.13849299600207 -2.9230833010895414 93.069246498001036 #
point $-1 186.13849299600207 2.9230833010895414 93.069246498001036 #
coedge $-1 $758 $758 $-1 $965 reversed $504 $-1 #
vertex $-1 $506 $966 #
ellipse-curve $-1 0 0 -0.25 0 0 -1 0.5 0 0 1 I I #
point $-1 0.5 0 -1.25 #
coedge $-1 $762 $762 $-1 $967 reversed $509 $-1 #
vertex $-1 $511 $968 #
ellipse-curve $-1 0 0 -0.25 0 0 -1 0.5 0 0 1 I I #
point $-1 0.5 0 -1.25 #
coedge $-1 $766 $766 $-1 $969 reversed $514 $-1 #
vertex $-1 $516 $970 #
ellipse-curve $-1 0 0 -0.25 0 0 -1 0.5 0 0 1 I I #
point $-1 0.5 0 -1.25 #
face $-1 $-1 $534 $74 $-1 $971 reversed single #
loop $-1 $-1 $786 $519 #
plane-surface $-1 0 2.9230833010895414 0 0 -1 0 0 0 -1 forward_v I I I I #
coedge $-1 $972 $784 $787 $973 forward $520 $-1 #
coedge $-1 $790 $522 $523 $778 reversed $336 $-1 #
coedge $-1 $784 $972 $522 $776 reversed $520 $-1 #
edge $-1 $791 -93.069246498001036 $974 93.069246498001036 $775 $975 forward 7 unknown #
coedge $-1 $524 $523 $972 $976 forward $219 $-1 #
edge $-1 $782 -186.13849299600207 $974 186.13849299600207 $774 $977 forward 7 unknown #
coedge $-1 $787 $786 $524 $780 reversed $771 $-1 #
edge $-1 $978 -186.13849299600207 $781 186.13849299600207 $779 $979 forward 7 unknown #
vertex $-1 $526 $980 #
vertex $-1 $793 $981 #
straight-curve $-1 186.13849299600207 0 -93.069246498001036 0 -1 0 I I #
coedge $-1 $773 $775 $527 $785 reversed $520 $-1 #
edge $-1 $788 -2.9230833010895414 $791 2.9230833010895414 $784 $982 forward 7 unknown #
coedge $-1 $779 $528 $533 $794 forward $771 $-1 #
coedge $-1 $528 $779 $773 $973 reversed $771 $-1 #
vertex $-1 $529 $983 #
straight-curve $-1 0 2.9230833010895414 93.069246498001036 -1 0 0 I I #
coedge $-1 $530 $774 $532 $793 reversed $336 $-1 #
vertex $-1 $785 $984 #
straight-curve $-1 0 -2.9230833010895414 93.069246498001036 1 0 0 I I #
edge $-1 $535 -93.069246498001036 $782 93.069246498001036 $532 $985 forward 7 unknown #
edge $-1 $536 -93.069246498001036 $781 93.069246498001036 $533 $986 forward 7 unknown #
point $-1 186.13849299600207 -2.9230833010895414 93.069246498001036 #
point $-1 186.13849299600207 2.9230833010895414 93.069246498001036 #
coedge $-1 $797 $797 $-1 $987 reversed $538 $-1 #
vertex $-1 $540 $988 #
ellipse-curve $-1 0 0 -0.25 0 0 -1 0.5 0 0 1 I I #
point $-1 0.5 0 -1.25 #
coedge $-1 $801 $801 $-1 $989 reversed $543 $-1 #
vertex $-1 $545 $990 #
ellipse-curve $-1 0 0 -0.25 0 0 -1 0.5 0 0 1 I I #
point $-1 0.5 0 -1.25 #
coedge $-1 $805 $805 $-1 $991 reversed $548 $-1 #
vertex $-1 $550 $992 #
ellipse-curve $-1 0 0 -0.25 0 0 -1 0.5 0 0 1 I I #
point $-1 0.5 0 -1.25 #
face $-1 $-1 $568 $78 $-1 $993 reversed single #
loop $-1 $-1 $825 $553 #
plane-surface $-1 0 3.5039876071537517 0 0 -1 0 0 0 -1 forward_v I I I I #
coedge $-1 $994 $823 $826 $995 forward $554 $-1 #
coedge $-1 $829 $556 $557 $817 reversed $359 $-1 #
coedge $-1 $823 $994 $556 $815 reversed $554 $-1 #
edge $-1 $830 -93.069246498001036 $996 93.069246498001036 $814 $997 forward 7 unknown #
coedge $-1 $558 $557 $994 $998 forward $238 $-1 #
edge $-1 $821 -186.13849299600207 $996 186.13849299600207 $813 $999 forward 7 unknown #
coedge $-1 $826 $825 $558 $819 reversed $810 $-1 #
edge $-1 $1000 -186.13849299600207 $820 186.13849299600207 $818 $1001 forward 7 unknown #
vertex $-1 $560 $1002 #
vertex $-1 $832 $1003 #
straight-curve $-1 186.13849299600207 0 -93.069246498001036 0 -1 0 I I #
coedge $-1 $812 $814 $561 $824 reversed $554 $-1 #
edge $-1 $827 -3.5039876071537517 $830 3.5039876071537517 $823 $1004 forward 7 unknown #
coedge $-1 $818 $562 $567 $833 forward $810 $-1 #
coedge $-1 $562 $818 $812 $995 reversed $810 $-1 #
vertex $-1 $563 $1005 #
straight-curve $-1 0 3.5039876071537517 93.069246498001036 -1 0 0 I I #
coedge $-1 $564 $813 $566 $832 reversed $359 $-1 #
vertex $-1 $824 $1006 #
straight-curve $-1 0 -3.5039876071537517 93.069246498001036 1 0 0 I I #
edge $-1 $569 -93.069246498001036 $821 93.069246498001036 $566 $1007 forward 7 unknown #
edge $-1 $570 -93.069246498001036 $820 93.069246498001036 $567 $1008 forward 7 unknown #
point $-1 186.13849299600207 -3.5039876071537517 93.069246498001036 #
point $-1 186.13849299600207 3.5039876071537517 93.069246498001036 #
coedge $-1 $836 $836 $-1 $1009 reversed $572 $-1 #
vertex $-1 $574 $1010 #
ellipse-curve $-1 0 0 -0.5 0 0 -1 1 0 0 1 I I #
point $-1 1 0 -2.4829401532029176 #
coedge $-1 $840 $840 $-1 $1011 reversed $577 $-1 #
vertex $-1 $579 $1012 #
ellipse-curve $-1 0 0 -0.5 0 0 -1 1 0 0 1 I I #
point $-1 1 0 -2.4829401532029176 #
face $-1 $-1 $597 $81 $-1 $1013 reversed single #
loop $-1 $-1 $860 $582 #
plane-surface $-1 0 3.5039876071537517 0 0 -1 0 0 0 -1 forward_v I I I I #
coedge $-1 $1014 $858 $861 $1015 forward $583 $-1 #
coedge $-1 $864 $585 $586 $852 reversed $377 $-1 #
coedge $-1 $858 $1014 $585 $850 reversed $583 $-1 #
edge $-1 $865 -93.069246498001036 $1016 93.069246498001036 $849 $1017 forward 7 unknown #
coedge $-1 $587 $586 $1014 $1018 forward $252 $-1 #
edge $-1 $856 -186.13849299600207 $1016 186.13849299600207 $848 $1019 forward 7 unknown #
coedge $-1 $861 $860 $587 $854 reversed $845 $-1 #
edge $-1 $1020 -186.13849299600207 $855 186.13849299600207 $853 $1021 forward 7 unknown #
vertex $-1 $589 $1022 #
vertex $-1 $867 $1023 #
straight-curve $-1 186.13849299600207 0 -93.069246498001036 0 -1 0 I I #
coedge $-1 $847 $849 $590 $859 reversed $583 $-1 #
edge $-1 $862 -3.5039876071537517 $865 3.5039876071537517 $858 $1024 forward 7 unknown #
coedge $-1 $853 $591 $596 $868 forward $845 $-1 #
coedge $-1 $591 $853 $847 $1015 reversed $845 $-1 #
vertex $-1 $592 $1025 #
straight-curve $-1 0 3.5039876071537517 93.069246498001036 -1 0 0 I I #
coedge $-1 $593 $848 $595 $867 reversed $377 $-1 #
vertex $-1 $859 $1026 #
straight-curve $-1 0 -3.5039876071537517 93.069246498001036 1 0 0 I I #
edge $-1 $598 -93.069246498001036 $856 93.069246498001036 $595 $1027 forward 7 unknown #
edge $-1 $599 -93.069246498001036 $855 93.069246498001036 $596 $1028 forward 7 unknown #
point $-1 186.13849299600207 -3.5039876071537517 93.069246498001036 #
point $-1 186.13849299600207 3.5039876071537517 93.069246498001036 #
coedge $-1 $871 $871 $-1 $1029 reversed $601 $-1 #
vertex $-1 $603 $1030 #
ellipse-curve $-1 0 0 -0.5 0 0 -1 1 0 0 1 I I #
point $-1 1 0 -2.4829401532029176 #
coedge $-1 $875 $875 $-1 $1031 reversed $606 $-1 #
vertex $-1 $608 $1032 #
ellipse-curve $-1 0 0 -0.5 0 0 -1 1 0 0 1 I I #
point $-1 1 0 -2.4829401532029176 #
plane-surface $-1 46.534623249000518 0 0 -1 0 0 0 0 1 forward_v I I I I #
coedge $-1 $616 $614 $618 $884 reversed $395 $-1 #
edge $-1 $629 -6.5475775035705475 $886 6.5475775035705475 $628 $1033 forward 7 unknown #
vertex $-1 $884 $1034 #
straight-curve $-1 -46.534623249000518 -20.013850263950459 0 0 0 -1 I I #
edge $-1 $882 -20.013850263950459 $886 20.013850263950459 $880 $1035 forward 7 unknown #
straight-curve $-1 0 -20.013850263950459 -6.5475775035705475 -1 0 0 I I #
vertex $-1 $621 $1036 #
straight-curve $-1 0 20.013850263950459 -6.5475775035705475 1 0 0 I I #
point $-1 46.534623249000518 20.013850263950459 -6.5475775035705475 #
point $-1 46.534623249000518 -20.013850263950459 -6.5475775035705475 #
straight-curve $-1 -46.534623249000518 0 6.5475775035705475 0 -1 0 I I #
point $-1 -46.534623249000518 20.013850263950459 6.5475775035705475 #
point $-1 -46.534623249000518 -20.013850263950459 6.5475775035705475 #
straight-curve $-1 46.534623249000518 -20.013850263950459 0 0 0 -1 I I #
straight-curve $-1 46.534623249000518 20.013850263950459 0 0 0 -1 I I #
plane-surface $-1 46.534623249000518 0 0 -1 0 0 0 0 1 forward_v I I I I #
coedge $-1 $643 $641 $645 $900 reversed $414 $-1 #
edge $-1 $656 -1.6846019514710378 $902 1.6846019514710378 $655 $1037 forward 7 unknown #
vertex $-1 $900 $1038 #
straight-curve $-1 -46.534623249000518 -2.817872179992873 0 0 0 -1 I I #
edge $-1 $898 -2.817872179992873 $902 2.817872179992873 $896 $1039 forward 7 unknown #
straight-curve $-1 0 -2.817872179992873 -1.6846019514710378 -1 0 0 I I #
vertex $-1 $648 $1040 #
straight-curve $-1 0 2.817872179992873 -1.6846019514710378 1 0 0 I I #
point $-1 46.534623249000518 2.817872179992873 -1.6846019514710378 #
point $-1 46.534623249000518 -2.817872179992873 -1.6846019514710378 #
straight-curve $-1 -46.534623249000518 0 1.6846019514710378 0 -1 0 I I #
point $-1 -46.534623249000518 2.817872179992873 1.6846019514710378 #
point $-1 -46.534623249000518 -2.817872179992873 1.6846019514710378 #
straight-curve $-1 46.534623249000518 -2.817872179992873 0 0 0 -1 I I #
straight-curve $-1 46.534623249000518 2.817872179992873 0 0 0 -1 I I #
plane-surface $-1 46.534623249000518 0 0 -1 0 0 0 0 1 forward_v I I I I #
coedge $-1 $670 $668 $672 $916 reversed $433 $-1 #
edge $-1 $683 -1.6846019514710378 $918 1.6846019514710378 $682 $1041 forward 7 unknown #
vertex $-1 $916 $1042 #
straight-curve $-1 -46.534623249000518 -2.8178721799928717 0 0 0 -1 I I #
edge $-1 $914 -2.8178721799928717 $918 2.8178721799928717 $912 $1043 forward 7 unknown #
straight-curve $-1 0 -2.8178721799928717 -1.6846019514710378 -1 0 0 I I #
vertex $-1 $675 $1044 #
straight-curve $-1 0 2.8178721799928717 -1.6846019514710378 1 0 0 I I #
point $-1 46.534623249000518 2.8178721799928717 -1.6846019514710378 #
point $-1 46.534623249000518 -2.8178721799928717 -1.6846019514710378 #
straight-curve $-1 -46.534623249000518 0 1.6846019514710378 0 -1 0 I I #
point $-1 -46.534623249000518 2.8178721799928717 1.6846019514710378 #
point $-1 -46.534623249000518 -2.8178721799928717 1.6846019514710378 #
straight-curve $-1 46.534623249000518 -2.8178721799928717 0 0 0 -1 I I #
straight-curve $-1 46.534623249000518 2.8178721799928717 0 0 0 -1 I I #
plane-surface $-1 186.13849299600207 0 0 -1 0 0 0 0 1 forward_v I I I I #
coedge $-1 $697 $695 $699 $932 reversed $452 $-1 #
edge $-1 $710 -93.069246498001036 $934 93.069246498001036 $709 $1045 forward 7 unknown #
vertex $-1 $932 $1046 #
straight-curve $-1 -186.13849299600207 -2.9230833010895414 0 0 0 -1 I I #
edge $-1 $930 -2.9230833010895414 $934 2.9230833010895414 $928 $1047 forward 7 unknown #
straight-curve $-1 0 -2.9230833010895414 -93.069246498001036 -1 0 0 I I #
vertex $-1 $702 $1048 #
straight-curve $-1 0 2.9230833010895414 -93.069246498001036 1 0 0 I I #
point $-1 186.13849299600207 2.9230833010895414 -93.069246498001036 #
point $-1 186.13849299600207 -2.9230833010895414 -93.069246498001036 #
straight-curve $-1 -186.13849299600207 0 93.069246498001036 0 -1 0 I I #
point $-1 -186.13849299600207 2.9230833010895414 93.069246498001036 #
point $-1 -186.13849299600207 -2.9230833010895414 93.069246498001036 #
straight-curve $-1 186.13849299600207 -2.9230833010895414 0 0 0 -1 I I #
straight-curve $-1 186.13849299600207 2.9230833010895414 0 0 0 -1 I I #
edge $-1 $1049 1 $1049 0 $719 $-1 forward 7 unknown #
point $-1 0.5 0 -0.25 #
edge $-1 $1050 1 $1050 0 $723 $-1 forward 7 unknown #
point $-1 0.5 0 -0.25 #
edge $-1 $1051 1 $1051 0 $727 $-1 forward 7 unknown #
point $-1 0.5 0 -0.25 #
plane-surface $-1 186.13849299600207 0 0 -1 0 0 0 0 1 forward_v I I I I #
coedge $-1 $736 $734 $738 $954 reversed $486 $-1 #
edge $-1 $749 -93.069246498001036 $956 93.069246498001036 $748 $1052 forward 7 unknown #
vertex $-1 $954 $1053 #
straight-curve $-1 -186.13849299600207 -2.9230833010895414 0 0 0 -1 I I #
edge $-1 $952 -2.9230833010895414 $956 2.9230833010895414 $950 $1054 forward 7 unknown #
straight-curve $-1 0 -2.9230833010895414 -93.069246498001036 -1 0 0 I I #
vertex $-1 $741 $1055 #
straight-curve $-1 0 2.9230833010895414 -93.069246498001036 1 0 0 I I #
point $-1 186.13849299600207 2.9230833010895414 -93.069246498001036 #
point $-1 186.13849299600207 -2.9230833010895414 -93.069246498001036 #
straight-curve $-1 -186.13849299600207 0 93.069246498001036 0 -1 0 I I #
point $-1 -186.13849299600207 2.9230833010895414 93.069246498001036 #
point $-1 -186.13849299600207 -2.9230833010895414 93.069246498001036 #
straight-curve $-1 186.13849299600207 -2.9230833010895414 0 0 0 -1 I I #
straight-curve $-1 186.13849299600207 2.9230833010895414 0 0 0 -1 I I #
edge $-1 $1056 1 $1056 0 $758 $-1 forward 7 unknown #
point $-1 0.5 0 -0.25 #
edge $-1 $1057 1 $1057 0 $762 $-1 forward 7 unknown #
point $-1 0.5 0 -0.25 #
edge $-1 $1058 1 $1058 0 $766 $-1 forward 7 unknown #
point $-1 0.5 0 -0.25 #
plane-surface $-1 186.13849299600207 0 0 -1 0 0 0 0 1 forward_v I I I I #
coedge $-1 $775 $773 $777 $976 reversed $520 $-1 #
edge $-1 $788 -93.069246498001036 $978 93.069246498001036 $787 $1059 forward 7 unknown #
vertex $-1 $976 $1060 #
straight-curve $-1 -186.13849299600207 -2.9230833010895414 0 0 0 -1 I I #
edge $-1 $974 -2.9230833010895414 $978 2.9230833010895414 $972 $1061 forward 7 unknown #
straight-curve $-1 0 -2.9230833010895414 -93.069246498001036 -1 0 0 I I #
vertex $-1 $780 $1062 #
straight-curve $-1 0 2.9230833010895414 -93.069246498001036 1 0 0 I I #
point $-1 186.13849299600207 2.9230833010895414 -93.069246498001036 #
point $-1 186.13849299600207 -2.9230833010895414 -93.069246498001036 #
straight-curve $-1 -186.13849299600207 0 93.069246498001036 0 -1 0 I I #
point $-1 -186.13849299600207 2.9230833010895414 93.069246498001036 #
point $-1 -186.13849299600207 -2.9230833010895414 93.069246498001036 #
straight-curve $-1 186.13849299600207 -2.9230833010895414 0 0 0 -1 I I #
straight-curve $-1 186.13849299600207 2.9230833010895414 0 0 0 -1 I I #
edge $-1 $1063 1 $1063 0 $797 $-1 forward 7 unknown #
point $-1 0.5 0 -0.25 #
edge $-1 $1064 1 $1064 0 $801 $-1 forward 7 unknown #
point $-1 0.5 0 -0.25 #
edge $-1 $1065 1 $1065 0 $805 $-1 forward 7 unknown #
point $-1 0.5 0 -0.25 #
plane-surface $-1 186.13849299600207 0 0 -1 0 0 0 0 1 forward_v I I I I #
coedge $-1 $814 $812 $816 $998 reversed $554 $-1 #
edge $-1 $827 -93.069246498001036 $1000 93.069246498001036 $826 $1066 forward 7 unknown #
vertex $-1 $998 $1067 #
straight-curve $-1 -186.13849299600207 -3.5039876071537517 0 0 0 -1 I I #
edge $-1 $996 -3.5039876071537517 $1000 3.5039876071537517 $994 $1068 forward 7 unknown #
straight-curve $-1 0 -3.5039876071537517 -93.069246498001036 -1 0 0 I I #
vertex $-1 $819 $1069 #
straight-curve $-1 0 3.5039876071537517 -93.069246498001036 1 0 0 I I #
point $-1 186.13849299600207 3.5039876071537517 -93.069246498001036 #
point $-1 186.13849299600207 -3.5039876071537517 -93.069246498001036 #
straight-curve $-1 -186.13849299600207 0 93.069246498001036 0 -1 0 I I #
point $-1 -186.13849299600207 3.5039876071537517 93.069246498001036 #
point $-1 -186.13849299600207 -3.5039876071537517 93.069246498001036 #
straight-curve $-1 186.13849299600207 -3.5039876071537517 0 0 0 -1 I I #
straight-curve $-1 186.13849299600207 3.5039876071537517 0 0 0 -1 I I #
edge $-1 $1070 1 $1070 0 $836 $-1 forward 7 unknown #
point $-1 1 0 -0.5 #
edge $-1 $1071 1 $1071 0 $840 $-1 forward 7 unknown #
point $-1 1 0 -0.5 #
plane-surface $-1 186.13849299600207 0 0 -1 0 0 0 0 1 forward_v I I I I #
coedge $-1 $849 $847 $851 $1018 reversed $583 $-1 #
edge $-1 $862 -93.069246498001036 $1020 93.069246498001036 $861 $1072 forward 7 unknown #
vertex $-1 $1018 $1073 #
straight-curve $-1 -186.13849299600207 -3.5039876071537517 0 0 0 -1 I I #
edge $-1 $1016 -3.5039876071537517 $1020 3.5039876071537517 $1014 $1074 forward 7 unknown #
straight-curve $-1 0 -3.5039876071537517 -93.069246498001036 -1 0 0 I I #
vertex $-1 $854 $1075 #
straight-curve $-1 0 3.5039876071537517 -93.069246498001036 1 0 0 I I #
point $-1 186.13849299600207 3.5039876071537517 -93.069246498001036 #
point $-1 186.13849299600207 -3.5039876071537517 -93.069246498001036 #
straight-curve $-1 -186.13849299600207 0 93.069246498001036 0 -1 0 I I #
point $-1 -186.13849299600207 3.5039876071537517 93.069246498001036 #
point $-1 -186.13849299600207 -3.5039876071537517 93.069246498001036 #
straight-curve $-1 186.13849299600207 -3.5039876071537517 0 0 0 -1 I I #
straight-curve $-1 186.13849299600207 3.5039876071537517 0 0 0 -1 I I #
edge $-1 $1076 1 $1076 0 $871 $-1 forward 7 unknown #
point $-1 1 0 -0.5 #
edge $-1 $1077 1 $1077 0 $875 $-1 forward 7 unknown #
point $-1 1 0 -0.5 #
straight-curve $-1 -46.534623249000518 20.013850263950459 0 0 0 -1 I I #
point $-1 -46.534623249000518 -20.013850263950459 -6.5475775035705475 #
straight-curve $-1 -46.534623249000518 0 -6.5475775035705475 0 1 0 I I #
point $-1 -46.534623249000518 20.013850263950459 -6.5475775035705475 #
straight-curve $-1 -46.534623249000518 2.817872179992873 0 0 0 -1 I I #
point $-1 -46.534623249000518 -2.817872179992873 -1.6846019514710378 #
straight-curve $-1 -46.534623249000518 0 -1.6846019514710378 0 1 0 I I #
point $-1 -46.534623249000518 2.817872179992873 -1.6846019514710378 #
straight-curve $-1 -46.534623249000518 2.8178721799928717 0 0 0 -1 I I #
point $-1 -46.534623249000518 -2.8178721799928717 -1.6846019514710378 #
straight-curve $-1 -46.534623249000518 0 -1.6846019514710378 0 1 0 I I #
point $-1 -46.534623249000518 2.8178721799928717 -1.6846019514710378 #
straight-curve $-1 -186.13849299600207 2.9230833010895414 0 0 0 -1 I I #
point $-1 -186.13849299600207 -2.9230833010895414 -93.069246498001036 #
straight-curve $-1 -186.13849299600207 0 -93.069246498001036 0 1 0 I I #
point $-1 -186.13849299600207 2.9230833010895414 -93.069246498001036 #
vertex $-1 $943 $1078 #
vertex $-1 $945 $1079 #
vertex $-1 $947 $1080 #
straight-curve $-1 -186.13849299600207 2.9230833010895414 0 0 0 -1 I I #
point $-1 -186.13849299600207 -2.9230833010895414 -93.069246498001036 #
straight-curve $-1 -186.13849299600207 0 -93.069246498001036 0 1 0 I I #
point $-1 -186.13849299600207 2.9230833010895414 -93.069246498001036 #
vertex $-1 $965 $1081 #
vertex $-1 $967 $1082 #
vertex $-1 $969 $1083 #
straight-curve $-1 -186.13849299600207 2.9230833010895414 0 0 0 -1 I I #
point $-1 -186.13849299600207 -2.9230833010895414 -93.069246498001036 #
straight-curve $-1 -186.13849299600207 0 -93.069246498001036 0 1 0 I I #
point $-1 -186.13849299600207 2.9230833010895414 -93.069246498001036 #
vertex $-1 $987 $1084 #
vertex $-1 $989 $1085 #
vertex $-1 $991 $1086 #
straight-curve $-1 -186.13849299600207 3.5039876071537517 0 0 0 -1 I I #
point $-1 -186.13849299600207 -3.5039876071537517 -93.069246498001036 #
straight-curve $-1 -186.13849299600207 0 -93.069246498001036 0 1 0 I I #
point $-1 -186.13849299600207 3.5039876071537517 -93.069246498001036 #
vertex $-1 $1009 $1087 #
vertex $-1 $1011 $1088 #
straight-curve $-1 -186.13849299600207 3.5039876071537517 0 0 0 -1 I I #
point $-1 -186.13849299600207 -3.5039876071537517 -93.069246498001036 #
straight-curve $-1 -186.13849299600207 0 -93.069246498001036 0 1 0 I I #
point $-1 -186.13849299600207 3.5039876071537517 -93.069246498001036 #
vertex $-1 $1029 $1089 #
vertex $-1 $1031 $1090 #
point $-1 0 0 0.25 #
point $-1 0 0 0.25 #
point $-1 0 0 0.25 #
point $-1 0 0 0.25 #
point $-1 0 0 0.25 #
point $-1 0 0 0.25 #
point $-1 0 0 0.25 #
point $-1 0 0 0.25 #
point $-1 0 0 0.25 #
point $-1 0 0 0.5 #
point $-1 0 0 0.5 #
point $-1 0 0 0.5 #
point $-1 0 0 0.5 #
End-of-ACIS-data 