500 0 8 0           
7 Unknown 11 ACIS 5.0 NT 24 Thu Mar 25 23:11:10 1999 
-1 9.9999999999999995e-007 1e-010 
body $-1 $8 $-1 $9 #
body $-1 $10 $-1 $11 #
body $-1 $12 $-1 $13 #
body $-1 $14 $-1 $15 #
body $-1 $16 $-1 $17 #
body $-1 $18 $-1 $19 #
body $-1 $20 $-1 $21 #
body $-1 $22 $-1 $23 #
lump $-1 $-1 $24 $0 #
transform $-1 1 0 0 0 1 0 0 0 1 70.739463484603419 36.356548013513972 13.017545953518782 1 rotate no_reflect no_shear #
lump $-1 $-1 $25 $1 #
transform $-1 1 0 0 0 1 0 0 0 1 70.739463484603419 36.356548013513972 13.017545953518782 1 rotate no_reflect no_shear #
lump $-1 $-1 $26 $2 #
transform $-1 1 0 0 0 1 0 0 0 1 70.739463484603419 36.356548013513972 13.017545953518782 1 rotate no_reflect no_shear #
lump $-1 $-1 $27 $3 #
transform $-1 1 0 0 0 1 0 0 0 1 70.739463484603419 36.356548013513972 13.017545953518782 1 rotate no_reflect no_shear #
lump $-1 $-1 $28 $4 #
transform $-1 1 0 0 0 1 0 0 0 1 70.739463484603419 36.356548013513972 13.017545953518782 1 rotate no_reflect no_shear #
lump $-1 $-1 $29 $5 #
transform $-1 1 0 0 0 1 0 0 0 1 70.739463484603419 36.356548013513972 13.017545953518782 1 rotate no_reflect no_shear #
lump $-1 $-1 $30 $6 #
transform $-1 1 0 0 0 1 0 0 0 1 70.739463484603419 36.356548013513972 13.017545953518782 1 rotate no_reflect no_shear #
lump $-1 $-1 $31 $7 #
transform $-1 1 0 0 0 1 0 0 0 1 70.739463484603419 36.356548013513972 13.017545953518782 1 rotate no_reflect no_shear #
shell $-1 $-1 $-1 $32 $-1 $8 #
shell $-1 $-1 $-1 $33 $-1 $10 #
shell $-1 $-1 $-1 $34 $-1 $12 #
shell $-1 $-1 $-1 $35 $-1 $14 #
shell $-1 $-1 $-1 $36 $-1 $16 #
shell $-1 $-1 $-1 $37 $-1 $18 #
shell $-1 $-1 $-1 $38 $-1 $20 #
shell $-1 $-1 $-1 $39 $-1 $22 #
face $-1 $40 $41 $24 $-1 $42 reversed single #
face $-1 $43 $44 $25 $-1 $45 forward single #
face $-1 $46 $47 $26 $-1 $48 forward single #
face $-1 $49 $50 $27 $-1 $51 reversed single #
face $-1 $52 $53 $28 $-1 $54 forward single #
face $-1 $55 $56 $29 $-1 $57 forward single #
face $-1 $58 $59 $30 $-1 $60 reversed single #
face $-1 $61 $62 $31 $-1 $63 forward single #
face $-1 $64 $65 $24 $-1 $66 forward single #
loop $-1 $-1 $67 $32 #
plane-surface $-1 0 -36.356548013513972 0 0 1 0 0 0 1 forward_v I I I I #
face $-1 $68 $69 $25 $-1 $70 forward single #
loop $-1 $-1 $71 $33 #
plane-surface $-1 0 -36.356548013513972 0 0 1 0 0 0 1 forward_v I I I I #
face $-1 $72 $73 $26 $-1 $74 forward single #
loop $-1 $-1 $75 $34 #
plane-surface $-1 0 36.356548013513972 0 0 -1 0 0 0 -1 forward_v I I I I #
face $-1 $76 $77 $27 $-1 $78 reversed single #
loop $-1 $-1 $79 $35 #
plane-surface $-1 105.48323977970304 -9.7329563187153543 200.750121035257 0 -1 0 -0.81915205242281985 0 -0.57357642473473569 forward_v I I I I #
face $-1 $80 $81 $28 $-1 $82 forward single #
loop $-1 $83 $84 $36 #
cone-surface $-1 66.598567881649359 -16.592753385316787 7.7455775578225738 -0.81915205242281985 0 -0.57357642473473569 0.57357642473473569 0 -0.81915205242281985 1 I I 0 1 1 forward I I I I #
face $-1 $85 $86 $29 $-1 $87 forward single #
loop $-1 $88 $89 $37 #
cone-surface $-1 66.598567881649359 -12.476875145355926 7.7455775578225738 -0.81915205242281985 0 -0.57357642473473569 0.57357642473473569 0 -0.81915205242281985 1 I I 0 1 1 forward I I I I #
face $-1 $90 $91 $30 $-1 $92 reversed single #
loop $-1 $-1 $93 $38 #
plane-surface $-1 -192.01057452950008 -7.2790832818653648 77.055404165945063 0 1 0 -0.85716730853699208 0 0.51503806187062418 forward_v I I I I #
face $-1 $94 $95 $31 $-1 $96 forward single #
loop $-1 $97 $98 $39 #
cone-surface $-1 -67.330321368049965 -4.2648746723021915 8.1483533532560521 0.85716730853699208 0 -0.51503806187062418 0.77255709280593621 0 1.2857509628054882 1 I I 0 1 1.5 forward I I I I #
face $-1 $99 $100 $24 $-1 $101 reversed single #
loop $-1 $-1 $102 $40 #
plane-surface $-1 0 0 13.017545953518782 0 0 1 1 0 0 forward_v I I I I #
coedge $-1 $103 $104 $105 $106 reversed $41 $-1 #
face $-1 $107 $108 $25 $-1 $109 reversed single #
loop $-1 $-1 $110 $43 #
plane-surface $-1 0 0 13.017545953518782 0 0 1 1 0 0 forward_v I I I I #
coedge $-1 $111 $112 $113 $114 forward $44 $-1 #
face $-1 $115 $116 $26 $-1 $117 reversed single #
loop $-1 $-1 $118 $46 #
plane-surface $-1 0 0 13.017545953518782 0 0 1 1 0 0 forward_v I I I I #
coedge $-1 $119 $120 $121 $122 forward $47 $-1 #
face $-1 $123 $124 $27 $-1 $125 reversed single #
loop $-1 $-1 $126 $49 #
plane-surface $-1 -10.409513621700981 -14.534814265336358 119.60114392895257 0.81915205242281985 0 0.57357642473473569 0.57357642473473569 0 -0.81915205242281985 forward_v I I I I #
coedge $-1 $127 $128 $129 $130 reversed $50 $-1 #
face $-1 $-1 $131 $28 $-1 $132 forward single #
loop $-1 $133 $134 $52 #
cone-surface $-1 65.307266555930738 -16.592753385316787 6.8413986627441208 -0.81915205242281985 0 -0.57357642473473569 0.28678821236736785 0 -0.40957602621140993 1 I I -0.70710678118654746 0.70710678118654746 0.5 forward I I I I #
loop $-1 $-1 $135 $36 #
coedge $-1 $84 $84 $136 $137 reversed $53 $-1 #
face $-1 $-1 $138 $29 $-1 $139 forward single #
loop $-1 $140 $141 $55 #
cone-surface $-1 65.307266555930738 -12.476875145355926 6.8413986627441208 -0.81915205242281985 0 -0.57357642473473569 0.28678821236736785 0 -0.40957602621140993 1 I I -0.70710678118654746 0.70710678118654746 0.5 forward I I I I #
loop $-1 $-1 $142 $37 #
coedge $-1 $89 $89 $143 $144 reversed $56 $-1 #
face $-1 $145 $146 $30 $-1 $147 reversed single #
loop $-1 $-1 $148 $58 #
plane-surface $-1 -70.739463484603391 -4.2648746723021844 4.1883718241891899 -0.85716730853699208 0 0.51503806187062418 0.51503806187062418 0 0.85716730853699208 forward_v I I I I #
coedge $-1 $149 $150 $151 $152 reversed $59 $-1 #
face $-1 $-1 $153 $31 $-1 $154 forward single #
loop $-1 $155 $156 $61 #
cone-surface $-1 -65.930855195118127 -4.2648746723021915 7.3074692712551457 0.85716730853699208 0 -0.51503806187062418 0.3862785464029681 0 0.64287548140274409 1 I I -0.70710678118654757 0.70710678118654757 0.75 forward I I I I #
loop $-1 $-1 $157 $39 #
coedge $-1 $98 $98 $158 $159 reversed $62 $-1 #
face $-1 $160 $161 $24 $-1 $162 reversed single #
loop $-1 $-1 $163 $64 #
plane-surface $-1 0 0 -13.017545953518782 0 0 1 1 0 0 forward_v I I I I #
coedge $-1 $164 $165 $166 $167 forward $65 $-1 #
coedge $-1 $168 $67 $169 $170 reversed $41 $-1 #
coedge $-1 $67 $168 $171 $172 forward $41 $-1 #
coedge $-1 $173 $163 $67 $106 forward $100 $-1 #
edge $-1 $174 -70.739463484603419 $175 70.739463484603419 $67 $176 forward 7 unknown #
face $-1 $177 $178 $25 $-1 $179 reversed single #
loop $-1 $-1 $180 $68 #
plane-surface $-1 -70.739463484603419 0 0 1 0 0 0 0 -1 forward_v I I I I #
coedge $-1 $181 $182 $112 $183 forward $69 $-1 #
coedge $-1 $184 $71 $185 $186 reversed $44 $-1 #
coedge $-1 $71 $184 $110 $183 reversed $44 $-1 #
coedge $-1 $187 $188 $71 $114 reversed $189 $-1 #
edge $-1 $190 -13.017545953518782 $191 13.017545953518782 $113 $192 forward 7 unknown #
face $-1 $193 $194 $26 $-1 $195 reversed single #
loop $-1 $-1 $196 $72 #
plane-surface $-1 -67.641703098466067 50.197679103460281 0 0 -1 0 0 0 -1 forward_v I I I I #
coedge $-1 $197 $198 $119 $199 forward $73 $-1 #
coedge $-1 $200 $75 $118 $199 reversed $47 $-1 #
coedge $-1 $75 $200 $201 $202 reversed $47 $-1 #
coedge $-1 $203 $204 $75 $122 reversed $194 $-1 #
edge $-1 $205 -13.017545953518782 $206 13.017545953518782 $121 $207 forward 7 unknown #
face $-1 $208 $209 $27 $-1 $210 forward single #
loop $-1 $-1 $211 $76 #
plane-surface $-1 105.48323977970304 -19.336672211957364 200.750121035257 0 1 0 0.81915205242281985 0 0.57357642473473569 forward_v I I I I #
coedge $-1 $212 $213 $214 $215 reversed $77 $-1 #
coedge $-1 $128 $79 $216 $217 reversed $50 $-1 #
coedge $-1 $79 $127 $212 $218 reversed $50 $-1 #
coedge $-1 $214 $219 $79 $130 forward $209 $-1 #
edge $-1 $220 -17.997843594751899 $221 -11.479502987858254 $129 $222 forward 7 unknown #
loop $-1 $-1 $136 $80 #
plane-surface $-1 -10.409513621700981 -14.534814265336358 119.60114392895257 0.81915205242281985 0 0.57357642473473569 0.57357642473473569 0 -0.81915205242281985 forward_v I I I I #
loop $-1 $-1 $223 $52 #
coedge $-1 $134 $134 $135 $224 reversed $81 $-1 #
coedge $-1 $135 $135 $134 $224 forward $83 $-1 #
coedge $-1 $136 $136 $84 $137 forward $131 $-1 #
edge $-1 $225 0 $225 6.2831853071796004 $136 $226 forward 7 unknown #
loop $-1 $-1 $143 $85 #
plane-surface $-1 -10.409513621700981 -14.534814265336358 119.60114392895257 0.81915205242281985 0 0.57357642473473569 0.57357642473473569 0 -0.81915205242281985 forward_v I I I I #
loop $-1 $-1 $227 $55 #
coedge $-1 $141 $141 $142 $228 reversed $86 $-1 #
coedge $-1 $142 $142 $141 $228 forward $88 $-1 #
coedge $-1 $143 $143 $89 $144 forward $138 $-1 #
edge $-1 $229 0 $229 6.2831853071796004 $143 $230 forward 7 unknown #
face $-1 $231 $232 $30 $-1 $233 reversed single #
loop $-1 $-1 $234 $90 #
plane-surface $-1 -192.01057452950008 -1.250666062739004 77.055404165945063 0 -1 0 0.85716730853699208 0 -0.51503806187062418 forward_v I I I I #
coedge $-1 $235 $236 $237 $238 reversed $91 $-1 #
coedge $-1 $150 $93 $239 $240 reversed $59 $-1 #
coedge $-1 $93 $149 $235 $241 reversed $59 $-1 #
coedge $-1 $237 $242 $93 $152 forward $243 $-1 #
edge $-1 $244 25.265823780146619 $245 30.570926630195345 $151 $246 forward 7 unknown #
loop $-1 $-1 $158 $94 #
plane-surface $-1 -70.739463484603391 -4.2648746723021844 4.1883718241891899 -0.85716730853699208 0 0.51503806187062418 0.51503806187062418 0 0.85716730853699208 forward_v I I I I #
loop $-1 $-1 $247 $61 #
coedge $-1 $156 $156 $157 $248 reversed $95 $-1 #
coedge $-1 $157 $157 $156 $248 forward $97 $-1 #
coedge $-1 $158 $158 $98 $159 forward $153 $-1 #
edge $-1 $249 0 $249 6.2831853071796004 $158 $250 forward 7 unknown #
face $-1 $251 $252 $24 $-1 $253 reversed single #
loop $-1 $-1 $254 $99 #
plane-surface $-1 -70.739463484603419 0 0 1 0 0 0 0 -1 forward_v I I I I #
coedge $-1 $105 $255 $256 $257 forward $100 $-1 #
coedge $-1 $258 $102 $259 $260 forward $65 $-1 #
coedge $-1 $102 $258 $168 $261 forward $65 $-1 #
coedge $-1 $169 $262 $102 $167 reversed $263 $-1 #
edge $-1 $264 -36.356548013513972 $265 36.356548013513972 $166 $266 forward 7 unknown #
coedge $-1 $104 $103 $165 $261 reversed $41 $-1 #
coedge $-1 $256 $166 $103 $170 forward $263 $-1 #
edge $-1 $264 -13.017545953518782 $174 13.017545953518782 $169 $267 forward 7 unknown #
coedge $-1 $268 $269 $104 $172 reversed $161 $-1 #
edge $-1 $270 -13.017545953518782 $175 13.017545953518782 $171 $271 forward 7 unknown #
coedge $-1 $255 $105 $269 $272 forward $100 $-1 #
vertex $-1 $170 $273 #
vertex $-1 $272 $274 #
straight-curve $-1 0 -36.356548013513972 -13.017545953518782 -1 0 0 I I #
face $-1 $275 $189 $25 $-1 $276 reversed single #
loop $-1 $-1 $277 $107 #
plane-surface $-1 -67.641703098466067 -50.197679103460274 0 0 1 0 0 0 1 forward_v I I I I #
coedge $-1 $278 $279 $184 $280 forward $108 $-1 #
coedge $-1 $281 $110 $279 $282 forward $69 $-1 #
coedge $-1 $110 $281 $187 $283 forward $69 $-1 #
edge $-1 $190 64.543942712328715 $284 70.739463484603419 $110 $285 forward 7 unknown #
coedge $-1 $112 $111 $180 $280 reversed $44 $-1 #
coedge $-1 $286 $287 $111 $186 forward $288 $-1 #
edge $-1 $289 -70.739463484603419 $191 -64.543942712328715 $185 $290 forward 7 unknown #
coedge $-1 $291 $113 $182 $283 reversed $189 $-1 #
coedge $-1 $113 $291 $286 $292 reversed $189 $-1 #
loop $-1 $-1 $291 $177 #
vertex $-1 $183 $293 #
vertex $-1 $292 $294 #
straight-curve $-1 -64.543942712328715 -36.356548013513972 0 0 0 -1 I I #
face $-1 $295 $296 $26 $-1 $297 reversed single #
loop $-1 $-1 $121 $115 #
plane-surface $-1 -64.543942712328715 43.27711355848713 0 -1 0 0 0 0 1 forward_v I I I I #
coedge $-1 $298 $299 $300 $301 forward $116 $-1 #
coedge $-1 $302 $118 $204 $303 forward $73 $-1 #
coedge $-1 $118 $302 $304 $305 forward $73 $-1 #
edge $-1 $306 -70.739463484603419 $206 -64.543942712328715 $118 $307 forward 7 unknown #
coedge $-1 $120 $119 $308 $309 reversed $47 $-1 #
coedge $-1 $310 $311 $120 $202 forward $296 $-1 #
edge $-1 $205 64.543942712328715 $312 70.739463484603419 $201 $313 forward 7 unknown #
coedge $-1 $300 $121 $311 $314 reversed $194 $-1 #
coedge $-1 $121 $300 $197 $303 reversed $194 $-1 #
vertex $-1 $202 $315 #
vertex $-1 $303 $316 #
straight-curve $-1 -64.543942712328715 36.356548013513972 0 0 0 1 I I #
face $-1 $-1 $317 $27 $-1 $318 reversed single #
loop $-1 $-1 $129 $123 #
plane-surface $-1 0 0 13.017545953518782 0 0 1 1 0 0 forward_v I I I I #
coedge $-1 $319 $320 $321 $322 reversed $124 $-1 #
coedge $-1 $323 $126 $128 $218 forward $77 $-1 #
coedge $-1 $126 $323 $319 $324 forward $77 $-1 #
coedge $-1 $321 $129 $126 $215 forward $209 $-1 #
edge $-1 $221 2.4655491860471752 $325 12.069265079289185 $214 $326 forward 7 unknown #
coedge $-1 $327 $328 $127 $217 forward $317 $-1 #
edge $-1 $329 -96.66666999007991 $220 -87.357514564109721 $216 $330 forward 7 unknown #
edge $-1 $221 130.11454669519497 $329 141.47892696920681 $128 $331 forward 7 unknown #
coedge $-1 $129 $321 $327 $332 forward $209 $-1 #
vertex $-1 $130 $333 #
vertex $-1 $130 $334 #
straight-curve $-1 52.74161988985152 -9.7329563187153543 13.017545953518777 -1 0 0 I I #
coedge $-1 $223 $223 $-1 $335 reversed $133 $-1 #
edge $-1 $336 0 $336 6.2831853071796004 $134 $337 forward 7 unknown #
vertex $-1 $137 $338 #
ellipse-curve $-1 67.480293181156597 -16.592753385316787 8.3629682405336787 0.81915205242281985 0 0.57357642473473569 0.57357642473473569 0 -0.81915205242281985 1 I I #
coedge $-1 $227 $227 $-1 $339 reversed $140 $-1 #
edge $-1 $340 0 $340 6.2831853071796004 $141 $341 forward 7 unknown #
vertex $-1 $144 $342 #
ellipse-curve $-1 67.480293181156597 -12.476875145355926 8.3629682405336787 0.81915205242281985 0 0.57357642473473569 0.57357642473473569 0 -0.81915205242281985 1 I I #
face $-1 $-1 $243 $30 $-1 $343 forward single #
loop $-1 $-1 $344 $145 #
plane-surface $-1 -70.739463484603419 0 0 1 0 0 0 0 -1 forward_v I I I I #
coedge $-1 $345 $346 $347 $348 reversed $146 $-1 #
coedge $-1 $349 $148 $150 $241 forward $91 $-1 #
coedge $-1 $148 $349 $345 $350 forward $91 $-1 #
coedge $-1 $347 $151 $148 $238 forward $243 $-1 #
edge $-1 $245 -5.1466459457142726 $351 0.88177127341208816 $237 $352 forward 7 unknown #
coedge $-1 $353 $354 $149 $240 forward $232 $-1 #
edge $-1 $355 -34.339330258783392 $244 -25.510156129453748 $239 $356 forward 7 unknown #
edge $-1 $245 -10.300409314955296 $355 5.4988089932380084e-014 $150 $357 forward 7 unknown #
coedge $-1 $151 $347 $353 $358 forward $243 $-1 #
loop $-1 $-1 $347 $231 #
vertex $-1 $240 $359 #
vertex $-1 $152 $360 #
straight-curve $-1 -96.005287264750038 -7.2790832818653648 13.017545953518784 1 0 0 I I #
coedge $-1 $247 $247 $-1 $361 reversed $155 $-1 #
edge $-1 $362 0 $362 6.2831853071796004 $156 $363 forward 7 unknown #
vertex $-1 $159 $364 #
ellipse-curve $-1 -68.086912059579049 -4.2648746723021915 8.6029588888539799 -0.85716730853699208 0 0.51503806187062418 0.77255709280593621 0 1.2857509628054882 1 I I #
face $-1 $-1 $263 $24 $-1 $365 reversed single #
loop $-1 $-1 $259 $160 #
plane-surface $-1 0 36.356548013513972 0 0 -1 0 0 0 -1 forward_v I I I I #
coedge $-1 $269 $268 $366 $367 forward $161 $-1 #
coedge $-1 $163 $173 $368 $369 forward $100 $-1 #
coedge $-1 $262 $169 $163 $257 reversed $263 $-1 #
edge $-1 $370 -36.356548013513972 $174 36.356548013513972 $256 $371 forward 7 unknown #
coedge $-1 $165 $164 $268 $372 forward $65 $-1 #
coedge $-1 $373 $366 $164 $260 reversed $252 $-1 #
edge $-1 $265 -70.739463484603419 $374 70.739463484603419 $259 $375 forward 7 unknown #
edge $-1 $270 -70.739463484603419 $264 70.739463484603419 $168 $376 forward 7 unknown #
coedge $-1 $166 $256 $373 $377 reversed $263 $-1 #
loop $-1 $-1 $169 $251 #
vertex $-1 $167 $378 #
vertex $-1 $167 $379 #
straight-curve $-1 70.739463484603419 0 13.017545953518782 0 1 0 I I #
straight-curve $-1 70.739463484603419 -36.356548013513972 0 0 0 -1 I I #
coedge $-1 $254 $171 $258 $372 reversed $161 $-1 #
coedge $-1 $171 $254 $173 $272 reversed $161 $-1 #
vertex $-1 $372 $380 #
straight-curve $-1 -70.739463484603419 -36.356548013513972 0 0 0 -1 I I #
edge $-1 $175 -36.356548013513972 $381 36.356548013513972 $269 $382 forward 7 unknown #
point $-1 70.739463484603419 -36.356548013513972 -13.017545953518782 #
point $-1 -70.739463484603419 -36.356548013513972 -13.017545953518782 #
face $-1 $-1 $288 $25 $-1 $383 reversed single #
plane-surface $-1 -64.543942712328715 -43.277113558487123 0 -1 0 0 0 0 1 forward_v I I I I #
coedge $-1 $384 $385 $386 $387 forward $178 $-1 #
coedge $-1 $386 $180 $287 $388 reversed $108 $-1 #
coedge $-1 $180 $386 $181 $282 reversed $108 $-1 #
edge $-1 $284 -13.017545953518782 $289 13.017545953518782 $180 $389 forward 7 unknown #
coedge $-1 $182 $181 $385 $390 forward $69 $-1 #
edge $-1 $284 36.356548013513972 $391 50.197679103460274 $279 $392 forward 7 unknown #
edge $-1 $393 -6.9205655449731509 $190 6.9205655449731509 $187 $394 forward 7 unknown #
vertex $-1 $282 $395 #
straight-curve $-1 0 -36.356548013513972 13.017545953518782 -1 0 0 I I #
coedge $-1 $396 $185 $188 $292 forward $288 $-1 #
coedge $-1 $185 $396 $278 $388 forward $288 $-1 #
loop $-1 $-1 $185 $275 #
vertex $-1 $280 $397 #
straight-curve $-1 0 -36.356548013513972 -13.017545953518782 1 0 0 I I #
coedge $-1 $188 $187 $398 $399 forward $189 $-1 #
edge $-1 $191 -6.9205655449731509 $400 6.9205655449731509 $188 $401 forward 7 unknown #
point $-1 -64.543942712328715 -36.356548013513972 13.017545953518782 #
point $-1 -64.543942712328715 -36.356548013513972 -13.017545953518782 #
face $-1 $-1 $402 $26 $-1 $403 reversed single #
loop $-1 $-1 $201 $193 #
plane-surface $-1 0 0 -13.017545953518782 0 0 1 1 0 0 forward_v I I I I #
coedge $-1 $404 $196 $405 $406 reversed $116 $-1 #
coedge $-1 $196 $404 $302 $407 reversed $116 $-1 #
coedge $-1 $204 $203 $196 $301 reversed $194 $-1 #
edge $-1 $408 -13.017545953518782 $409 13.017545953518782 $300 $410 forward 7 unknown #
coedge $-1 $198 $197 $299 $407 forward $73 $-1 #
edge $-1 $206 -6.9205655449731509 $408 6.9205655449731509 $204 $411 forward 7 unknown #
coedge $-1 $412 $308 $198 $305 reversed $402 $-1 #
edge $-1 $413 -50.197679103460281 $306 -36.356548013513972 $304 $414 forward 7 unknown #
vertex $-1 $309 $415 #
straight-curve $-1 0 36.356548013513972 13.017545953518782 1 0 0 I I #
coedge $-1 $304 $416 $200 $309 forward $402 $-1 #
edge $-1 $312 -13.017545953518782 $306 13.017545953518782 $308 $417 forward 7 unknown #
coedge $-1 $405 $201 $416 $418 forward $296 $-1 #
coedge $-1 $201 $405 $203 $314 forward $296 $-1 #
vertex $-1 $418 $419 #
straight-curve $-1 0 36.356548013513972 -13.017545953518782 -1 0 0 I I #
edge $-1 $409 -6.9205655449731509 $205 6.9205655449731509 $203 $420 forward 7 unknown #
point $-1 -64.543942712328715 36.356548013513979 -13.017545953518782 #
point $-1 -64.543942712328715 36.356548013513979 13.017545953518782 #
loop $-1 $-1 $216 $208 #
plane-surface $-1 70.739463484603419 0 0 -1 0 0 0 0 1 forward_v I I I I #
coedge $-1 $320 $211 $213 $324 reversed $124 $-1 #
coedge $-1 $211 $319 $421 $422 reversed $124 $-1 #
coedge $-1 $219 $214 $211 $322 forward $209 $-1 #
edge $-1 $325 11.479502987858254 $423 17.997843594751899 $321 $424 forward 7 unknown #
coedge $-1 $213 $212 $328 $425 reversed $77 $-1 #
edge $-1 $426 -141.47892696920681 $325 -130.11454669519497 $319 $427 forward 7 unknown #
vertex $-1 $215 $428 #
straight-curve $-1 64.221122877709774 -7.2674071326681791 13.017545953518791 0 -1 0 I I #
coedge $-1 $421 $216 $219 $332 reversed $317 $-1 #
coedge $-1 $216 $421 $323 $425 forward $317 $-1 #
vertex $-1 $217 $429 #
straight-curve $-1 70.739463484603419 -9.7329563187153543 100.3750605176285 0 0 1 I I #
straight-curve $-1 -10.409513621700981 -9.7329563187153543 119.60114392895257 0.57357642473473569 0 -0.81915205242281985 I I #
edge $-1 $423 -19.336672211957364 $220 -9.7329563187153543 $327 $430 forward 7 unknown #
point $-1 70.739463484603419 -9.7329563187153543 13.017545953518782 #
point $-1 64.221122877709774 -9.7329563187153543 13.017545953518777 #
edge $-1 $431 1 $431 0 $223 $-1 forward 7 unknown #
vertex $-1 $224 $432 #
ellipse-curve $-1 65.716842582142149 -16.592753385316787 7.1281868751114885 0.81915205242281985 0 0.57357642473473569 0.57357642473473569 0 -0.81915205242281985 1 I I #
point $-1 68.053869605891308 -16.592753385316787 7.5438161881108385 #
edge $-1 $433 1 $433 0 $227 $-1 forward 7 unknown #
vertex $-1 $228 $434 #
ellipse-curve $-1 65.716842582142149 -12.476875145355926 7.1281868751114885 0.81915205242281985 0 0.57357642473473569 0.57357642473473569 0 -0.81915205242281985 1 I I #
point $-1 68.053869605891308 -12.476875145355926 7.5438161881108385 #
plane-surface $-1 0 0 13.017545953518782 0 0 1 1 0 0 forward_v I I I I #
coedge $-1 $354 $353 $346 $435 forward $232 $-1 #
coedge $-1 $346 $234 $236 $350 reversed $146 $-1 #
coedge $-1 $234 $345 $344 $435 reversed $146 $-1 #
coedge $-1 $242 $237 $234 $348 forward $243 $-1 #
edge $-1 $351 -30.570926630195345 $436 -25.265823780146619 $347 $437 forward 7 unknown #
coedge $-1 $236 $235 $354 $438 reversed $91 $-1 #
edge $-1 $439 -5.4988089932380084e-014 $351 10.300409314955296 $345 $440 forward 7 unknown #
vertex $-1 $238 $441 #
straight-curve $-1 -65.434360634554693 -2.1324373361510922 13.017545953518781 0 1 0 I I #
coedge $-1 $344 $239 $242 $358 reversed $232 $-1 #
coedge $-1 $239 $344 $349 $438 forward $232 $-1 #
vertex $-1 $240 $442 #
straight-curve $-1 -70.739463484603419 -7.2790832818653648 38.527702082972532 0 0 1 I I #
straight-curve $-1 -70.739463484603391 -7.2790832818653648 4.1883718241891899 -0.51503806187062418 0 -0.85716730853699208 I I #
edge $-1 $436 1.250666062739004 $244 7.2790832818653648 $353 $443 forward 7 unknown #
point $-1 -70.739463484603419 -7.2790832818653648 13.017545953518782 #
point $-1 -65.434360634554693 -7.2790832818653648 13.017545953518782 #
edge $-1 $444 1 $444 0 $247 $-1 forward 7 unknown #
vertex $-1 $248 $445 #
ellipse-curve $-1 -66.573730676520867 -4.2648746723021915 7.6937478176581138 -0.85716730853699208 0 0.51503806187062418 0.77255709280593621 0 1.2857509628054882 1 I I #
point $-1 -67.314354966773138 -4.2648746723021915 9.8887098516594794 #
plane-surface $-1 70.739463484603419 0 0 -1 0 0 0 0 1 forward_v I I I I #
coedge $-1 $259 $368 $254 $367 reversed $252 $-1 #
edge $-1 $374 -13.017545953518782 $381 13.017545953518782 $366 $446 forward 7 unknown #
coedge $-1 $366 $373 $255 $369 reversed $252 $-1 #
edge $-1 $381 -70.739463484603419 $370 70.739463484603419 $368 $447 forward 7 unknown #
vertex $-1 $257 $448 #
straight-curve $-1 70.739463484603419 0 -13.017545953518782 0 -1 0 I I #
edge $-1 $374 -36.356548013513972 $270 36.356548013513972 $268 $449 forward 7 unknown #
coedge $-1 $368 $259 $262 $377 forward $252 $-1 #
vertex $-1 $260 $450 #
straight-curve $-1 0 36.356548013513972 13.017545953518782 -1 0 0 I I #
straight-curve $-1 0 -36.356548013513972 13.017545953518782 1 0 0 I I #
edge $-1 $265 -13.017545953518782 $370 13.017545953518782 $262 $451 forward 7 unknown #
point $-1 70.739463484603419 -36.356548013513972 13.017545953518782 #
point $-1 70.739463484603419 36.356548013513972 13.017545953518782 #
point $-1 -70.739463484603419 -36.356548013513972 13.017545953518782 #
vertex $-1 $369 $452 #
straight-curve $-1 -70.739463484603419 0 -13.017545953518782 0 1 0 I I #
plane-surface $-1 0 0 -13.017545953518782 0 0 1 1 0 0 forward_v I I I I #
coedge $-1 $398 $277 $396 $453 reversed $178 $-1 #
coedge $-1 $277 $398 $281 $390 reversed $178 $-1 #
coedge $-1 $279 $278 $277 $387 reversed $108 $-1 #
edge $-1 $391 -13.017545953518782 $454 13.017545953518782 $386 $455 forward 7 unknown #
edge $-1 $454 -50.197679103460274 $289 -36.356548013513972 $278 $456 forward 7 unknown #
straight-curve $-1 -70.739463484603419 -36.356548013513972 0 0 0 -1 I I #
edge $-1 $391 -3.0977603861373524 $393 3.0977603861373524 $385 $457 forward 7 unknown #
vertex $-1 $282 $458 #
straight-curve $-1 -70.739463484603419 0 13.017545953518782 0 -1 0 I I #
vertex $-1 $283 $459 #
straight-curve $-1 -64.543942712328715 -43.277113558487123 13.017545953518782 0 1 0 I I #
point $-1 -70.739463484603419 -36.356548013513972 13.017545953518782 #
coedge $-1 $287 $286 $384 $453 forward $288 $-1 #
point $-1 -70.739463484603419 -36.356548013513972 -13.017545953518782 #
coedge $-1 $385 $384 $291 $399 reversed $178 $-1 #
edge $-1 $393 -13.017545953518782 $400 13.017545953518782 $291 $460 forward 7 unknown #
vertex $-1 $399 $461 #
straight-curve $-1 -64.543942712328715 -43.277113558487123 -13.017545953518782 0 -1 0 I I #
loop $-1 $-1 $308 $295 #
plane-surface $-1 -70.739463484603419 0 0 1 0 0 0 0 -1 forward_v I I I I #
coedge $-1 $299 $298 $412 $462 reversed $116 $-1 #
coedge $-1 $311 $310 $298 $406 forward $296 $-1 #
edge $-1 $463 -3.0977603861373524 $409 3.0977603861373524 $298 $464 forward 7 unknown #
edge $-1 $408 -3.0977603861373524 $413 3.0977603861373524 $299 $465 forward 7 unknown #
vertex $-1 $303 $466 #
vertex $-1 $314 $467 #
straight-curve $-1 -64.543942712328715 50.197679103460281 0 0 0 -1 I I #
straight-curve $-1 -64.543942712328715 43.27711355848713 13.017545953518782 0 1 0 I I #
coedge $-1 $416 $304 $404 $462 forward $402 $-1 #
vertex $-1 $407 $468 #
straight-curve $-1 -70.739463484603419 0 13.017545953518782 0 -1 0 I I #
point $-1 -70.739463484603419 36.356548013513972 13.017545953518782 #
coedge $-1 $308 $412 $310 $418 reversed $402 $-1 #
straight-curve $-1 -70.739463484603419 36.356548013513972 0 0 0 1 I I #
edge $-1 $312 -6.920565544973158 $463 6.9205655449731509 $416 $469 forward 7 unknown #
point $-1 -70.739463484603419 36.356548013513972 -13.017545953518782 #
straight-curve $-1 -64.543942712328715 43.27711355848713 -13.017545953518782 0 -1 0 I I #
coedge $-1 $328 $327 $320 $422 forward $317 $-1 #
edge $-1 $423 87.357514564109721 $426 96.66666999007991 $421 $470 forward 7 unknown #
vertex $-1 $332 $471 #
straight-curve $-1 52.74161988985152 -19.336672211957364 13.017545953518777 1 0 0 I I #
edge $-1 $426 -12.069265079289185 $329 -2.4655491860471752 $328 $472 forward 7 unknown #
vertex $-1 $425 $473 #
straight-curve $-1 -10.409513621700981 -19.336672211957364 119.60114392895257 -0.57357642473473569 0 0.81915205242281985 I I #
point $-1 64.221122877709774 -19.336672211957364 13.017545953518777 #
point $-1 70.739463484603419 -9.7329563187153543 3.7083905275485876 #
straight-curve $-1 70.739463484603419 0 13.017545953518782 0 1 0 I I #
vertex $-1 $335 $474 #
point $-1 66.290419006876888 -16.592753385316787 6.3090348226886688 #
vertex $-1 $339 $475 #
point $-1 66.290419006876888 -12.476875145355926 6.3090348226886688 #
edge $-1 $436 25.510156129453748 $439 34.339330258783392 $344 $476 forward 7 unknown #
vertex $-1 $358 $477 #
straight-curve $-1 -96.005287264750038 -1.250666062739004 13.017545953518784 -1 0 0 I I #
edge $-1 $439 -0.88177127341208816 $355 5.1466459457142726 $354 $478 forward 7 unknown #
vertex $-1 $438 $479 #
straight-curve $-1 -70.739463484603391 -1.250666062739004 4.1883718241891899 0.51503806187062418 0 0.85716730853699208 I I #
point $-1 -65.434360634554693 -1.250666062739004 13.017545953518782 #
point $-1 -70.739463484603419 -7.2790832818653648 4.1883718241891428 #
straight-curve $-1 -70.739463484603419 0 13.017545953518782 0 -1 0 I I #
vertex $-1 $361 $480 #
point $-1 -65.801173583714942 -4.2648746723021915 8.9794987804636026 #
straight-curve $-1 -70.739463484603419 36.356548013513972 0 0 0 -1 I I #
straight-curve $-1 0 36.356548013513972 -13.017545953518782 1 0 0 I I #
point $-1 70.739463484603419 36.356548013513972 -13.017545953518782 #
straight-curve $-1 -70.739463484603419 0 13.017545953518782 0 -1 0 I I #
point $-1 -70.739463484603419 36.356548013513972 13.017545953518782 #
straight-curve $-1 70.739463484603419 36.356548013513972 0 0 0 -1 I I #
point $-1 -70.739463484603419 36.356548013513972 -13.017545953518782 #
edge $-1 $400 -3.0977603861373524 $454 3.0977603861373524 $384 $481 forward 7 unknown #
vertex $-1 $388 $482 #
straight-curve $-1 -70.739463484603419 -50.197679103460274 0 0 0 -1 I I #
straight-curve $-1 -70.739463484603419 0 -13.017545953518782 0 1 0 I I #
straight-curve $-1 -67.641703098466067 -50.197679103460274 13.017545953518782 1 0 0 I I #
point $-1 -70.739463484603419 -50.197679103460274 13.017545953518782 #
point $-1 -64.543942712328715 -50.197679103460274 13.017545953518782 #
straight-curve $-1 -64.543942712328715 -50.197679103460274 0 0 0 -1 I I #
point $-1 -64.543942712328715 -50.197679103460274 -13.017545953518782 #
edge $-1 $413 -13.017545953518782 $463 13.017545953518782 $404 $483 forward 7 unknown #
vertex $-1 $406 $484 #
straight-curve $-1 -67.641703098466067 50.197679103460281 -13.017545953518782 1 0 0 I I #
straight-curve $-1 -67.641703098466067 50.197679103460281 13.017545953518782 -1 0 0 I I #
point $-1 -64.543942712328715 50.197679103460281 13.017545953518782 #
point $-1 -64.543942712328715 50.197679103460281 -13.017545953518782 #
point $-1 -70.739463484603419 50.197679103460281 13.017545953518782 #
straight-curve $-1 -70.739463484603419 43.27711355848713 -13.017545953518782 0 1 0 I I #
straight-curve $-1 70.739463484603419 -19.336672211957364 100.3750605176285 0 0 -1 I I #
point $-1 70.739463484603419 -19.336672211957364 13.017545953518782 #
straight-curve $-1 70.739463484603419 -7.2674071326681791 3.7083905275485805 0 1 0 I I #
point $-1 70.739463484603419 -19.336672211957364 3.7083905275485876 #
point $-1 64.897690529719327 -16.592753385316787 6.5546104503767531 #
point $-1 64.897690529719327 -12.476875145355926 6.5546104503767531 #
straight-curve $-1 -70.739463484603419 -1.250666062739004 38.527702082972532 0 0 -1 I I #
point $-1 -70.739463484603419 -1.250666062739004 13.017545953518782 #
straight-curve $-1 -70.739463484603419 -2.1324373361510922 4.1883718241891321 0 -1 0 I I #
point $-1 -70.739463484603419 -1.250666062739004 4.1883718241891428 #
point $-1 -65.287979713715387 -4.2648746723021915 6.9211907248521776 #
straight-curve $-1 -67.641703098466067 -50.197679103460274 -13.017545953518782 -1 0 0 I I #
point $-1 -70.739463484603419 -50.197679103460274 -13.017545953518782 #
straight-curve $-1 -70.739463484603419 50.197679103460281 0 0 0 -1 I I #
point $-1 -70.739463484603419 50.197679103460281 -13.017545953518782 #
End-of-ACIS-data 