500 0 15 0           
7 Unknown 11 ACIS 5.0 NT 24 Thu Mar 25 17:03:00 1999 
-1 9.9999999999999995e-007 1e-010 
body $-1 $15 $-1 $16 #
body $-1 $17 $-1 $18 #
body $-1 $19 $-1 $20 #
body $-1 $21 $-1 $22 #
body $-1 $23 $-1 $24 #
body $-1 $25 $-1 $26 #
body $-1 $27 $-1 $28 #
body $-1 $29 $-1 $30 #
body $-1 $31 $-1 $32 #
body $-1 $33 $-1 $34 #
body $-1 $35 $-1 $36 #
body $-1 $37 $-1 $38 #
body $-1 $39 $-1 $40 #
body $-1 $41 $-1 $42 #
body $-1 $43 $-1 $44 #
lump $-1 $-1 $45 $0 #
transform $-1 1 0 0 0 1 0 0 0 1 66.847743156224254 31.615124696117793 7.8875235107972461 1 rotate no_reflect no_shear #
lump $-1 $-1 $46 $1 #
transform $-1 1 0 0 0 1 0 0 0 1 66.847743156224254 31.615124696117793 7.8875235107972461 1 rotate no_reflect no_shear #
lump $-1 $-1 $47 $2 #
transform $-1 1 0 0 0 1 0 0 0 1 66.847743156224254 31.615124696117793 7.8875235107972461 1 rotate no_reflect no_shear #
lump $-1 $-1 $48 $3 #
transform $-1 1 0 0 0 1 0 0 0 1 66.847743156224254 31.615124696117793 7.8875235107972461 1 rotate no_reflect no_shear #
lump $-1 $-1 $49 $4 #
transform $-1 1 0 0 0 1 0 0 0 1 66.847743156224254 31.615124696117793 7.8875235107972461 1 rotate no_reflect no_shear #
lump $-1 $-1 $50 $5 #
transform $-1 1 0 0 0 1 0 0 0 1 66.847743156224254 31.615124696117793 7.8875235107972461 1 rotate no_reflect no_shear #
lump $-1 $-1 $51 $6 #
transform $-1 1 0 0 0 1 0 0 0 1 66.847743156224254 31.615124696117793 7.8875235107972461 1 rotate no_reflect no_shear #
lump $-1 $-1 $52 $7 #
transform $-1 1 0 0 0 1 0 0 0 1 66.847743156224254 31.615124696117793 7.8875235107972461 1 rotate no_reflect no_shear #
lump $-1 $-1 $53 $8 #
transform $-1 1 0 0 0 1 0 0 0 1 66.847743156224254 31.615124696117793 7.8875235107972461 1 rotate no_reflect no_shear #
lump $-1 $-1 $54 $9 #
transform $-1 1 0 0 0 1 0 0 0 1 66.847743156224254 31.615124696117793 7.8875235107972461 1 rotate no_reflect no_shear #
lump $-1 $-1 $55 $10 #
transform $-1 1 0 0 0 1 0 0 0 1 66.847743156224254 31.615124696117793 7.8875235107972461 1 rotate no_reflect no_shear #
lump $-1 $-1 $56 $11 #
transform $-1 1 0 0 0 1 0 0 0 1 66.847743156224254 31.615124696117793 7.8875235107972461 1 rotate no_reflect no_shear #
lump $-1 $-1 $57 $12 #
transform $-1 1 0 0 0 1 0 0 0 1 66.847743156224254 31.615124696117793 7.8875235107972461 1 rotate no_reflect no_shear #
lump $-1 $-1 $58 $13 #
transform $-1 1 0 0 0 1 0 0 0 1 66.847743156224254 31.615124696117793 7.8875235107972461 1 rotate no_reflect no_shear #
lump $-1 $-1 $59 $14 #
transform $-1 1 0 0 0 1 0 0 0 1 66.847743156224254 31.615124696117793 7.8875235107972461 1 rotate no_reflect no_shear #
shell $-1 $-1 $-1 $60 $-1 $15 #
shell $-1 $-1 $-1 $61 $-1 $17 #
shell $-1 $-1 $-1 $62 $-1 $19 #
shell $-1 $-1 $-1 $63 $-1 $21 #
shell $-1 $-1 $-1 $64 $-1 $23 #
shell $-1 $-1 $-1 $65 $-1 $25 #
shell $-1 $-1 $-1 $66 $-1 $27 #
shell $-1 $-1 $-1 $67 $-1 $29 #
shell $-1 $-1 $-1 $68 $-1 $31 #
shell $-1 $-1 $-1 $69 $-1 $33 #
shell $-1 $-1 $-1 $70 $-1 $35 #
shell $-1 $-1 $-1 $71 $-1 $37 #
shell $-1 $-1 $-1 $72 $-1 $39 #
shell $-1 $-1 $-1 $73 $-1 $41 #
shell $-1 $-1 $-1 $74 $-1 $43 #
face $-1 $75 $76 $45 $-1 $77 forward single #
face $-1 $78 $79 $46 $-1 $80 reversed single #
face $-1 $81 $82 $47 $-1 $83 reversed single #
face $-1 $84 $85 $48 $-1 $86 reversed single #
face $-1 $87 $88 $49 $-1 $89 forward single #
face $-1 $90 $91 $50 $-1 $92 forward single #
face $-1 $93 $94 $51 $-1 $95 reversed single #
face $-1 $96 $97 $52 $-1 $98 forward single #
face $-1 $99 $100 $53 $-1 $101 forward single #
face $-1 $102 $103 $54 $-1 $104 reversed single #
face $-1 $105 $106 $55 $-1 $107 forward single #
face $-1 $108 $109 $56 $-1 $110 forward single #
face $-1 $111 $112 $57 $-1 $113 reversed single #
face $-1 $114 $115 $58 $-1 $116 forward single #
face $-1 $117 $118 $59 $-1 $119 forward single #
face $-1 $120 $121 $45 $-1 $122 reversed single #
loop $-1 $-1 $123 $60 #
plane-surface $-1 0 0 7.8875235107972461 0 0 1 1 0 0 forward_v I I I I #
face $-1 $124 $125 $46 $-1 $126 reversed single #
loop $-1 $-1 $127 $61 #
plane-surface $-1 -62.836458306858724 0 4.8875235107972461 0 0 1 1 0 0 forward_v I I I I #
face $-1 $128 $129 $47 $-1 $130 reversed single #
loop $-1 $-1 $131 $62 #
plane-surface $-1 62.836458306858731 0 4.8875235107972461 0 0 1 1 0 0 forward_v I I I I #
face $-1 $132 $133 $48 $-1 $134 reversed single #
loop $-1 $-1 $135 $63 #
plane-surface $-1 -51.745399476140904 -20.805127462110534 39.289613867193765 0 0.55919291073839883 0.82903756765294845 1 0 0 forward_v I I I I #
face $-1 $136 $137 $49 $-1 $138 forward single #
loop $-1 $139 $140 $64 #
cone-surface $-1 -54.779588325291883 27.852387496573865 4.6785447743281123 0 -0.55919291073839883 -0.82903756765294845 1.5 0 0 1 I I 0 1 1.5 forward I I I I #
face $-1 $141 $142 $50 $-1 $143 forward single #
loop $-1 $144 $145 $65 #
cone-surface $-1 -48.711210626989931 27.852387496573865 4.6785447743281123 0 -0.55919291073839883 -0.82903756765294845 1.5 0 0 1 I I 0 1 1.5 forward I I I I #
face $-1 $146 $147 $51 $-1 $148 reversed single #
loop $-1 $-1 $149 $66 #
plane-surface $-1 -24.328240473399251 53.956440681533309 150.12819464584413 1 0 0 0 -0.55919291073839883 -0.82903756765294845 forward_v I I I I #
face $-1 $150 $151 $52 $-1 $152 forward single #
loop $-1 $153 $154 $67 #
cone-surface $-1 -20.282655341197952 27.852387496573865 4.6785447743281123 0 -0.55919291073839883 -0.82903756765294845 1.5 0 0 1 I I 0 1 1.5 forward I I I I #
face $-1 $155 $156 $53 $-1 $157 forward single #
loop $-1 $158 $159 $68 #
cone-surface $-1 -14.214277642895993 27.852387496573865 4.6785447743281123 0 -0.55919291073839883 -0.82903756765294845 1.5 0 0 1 I I 0 1 1.5 forward I I I I #
face $-1 $160 $161 $54 $-1 $162 reversed single #
loop $-1 $-1 $163 $69 #
plane-surface $-1 10.168692510694679 53.956440681533309 150.12819464584413 1 0 0 0 -0.55919291073839883 -0.82903756765294845 forward_v I I I I #
face $-1 $164 $165 $55 $-1 $166 forward single #
loop $-1 $167 $168 $70 #
cone-surface $-1 14.214277642895979 27.852387496573865 4.6785447743281123 0 -0.55919291073839883 -0.82903756765294845 1.5 0 0 1 I I 0 1 1.5 forward I I I I #
face $-1 $169 $170 $56 $-1 $171 forward single #
loop $-1 $172 $173 $71 #
cone-surface $-1 20.282655341197938 27.852387496573865 4.6785447743281123 0 -0.55919291073839883 -0.82903756765294845 1.5 0 0 1 I I 0 1 1.5 forward I I I I #
face $-1 $174 $175 $57 $-1 $176 reversed single #
loop $-1 $-1 $177 $72 #
plane-surface $-1 44.665625494788621 53.956440681533309 150.12819464584413 1 0 0 0 -0.55919291073839883 -0.82903756765294845 forward_v I I I I #
face $-1 $178 $179 $58 $-1 $180 forward single #
loop $-1 $181 $182 $73 #
cone-surface $-1 48.711210626989924 27.852387496573865 4.6785447743281123 0 -0.55919291073839883 -0.82903756765294845 1.5 0 0 1 I I 0 1 1.5 forward I I I I #
face $-1 $183 $184 $59 $-1 $185 forward single #
loop $-1 $186 $187 $74 #
cone-surface $-1 54.779588325291883 27.852387496573865 4.6785447743281123 0 -0.55919291073839883 -0.82903756765294845 1.5 0 0 1 I I 0 1 1.5 forward I I I I #
face $-1 $188 $189 $45 $-1 $190 reversed single #
loop $-1 $-1 $191 $75 #
plane-surface $-1 0 0 -7.8875235107972461 0 0 1 1 0 0 forward_v I I I I #
coedge $-1 $192 $193 $194 $195 forward $76 $-1 #
face $-1 $196 $197 $46 $-1 $198 reversed single #
loop $-1 $-1 $199 $78 #
plane-surface $-1 -58.825173457493193 0 6.3875235107972461 -1 0 0 0 0 1 forward_v I I I I #
coedge $-1 $200 $201 $202 $203 forward $79 $-1 #
face $-1 $204 $205 $47 $-1 $206 forward single #
loop $-1 $-1 $207 $81 #
plane-surface $-1 58.8251734574932 0 6.3875235107972461 1 0 0 0 0 -1 forward_v I I I I #
coedge $-1 $208 $209 $210 $211 reversed $82 $-1 #
face $-1 $212 $213 $48 $-1 $214 reversed single #
loop $-1 $-1 $215 $84 #
plane-surface $-1 -44.665625494788621 53.956440681533309 150.12819464584413 -1 0 0 0 0.55919291073839883 0.82903756765294845 forward_v I I I I #
coedge $-1 $216 $217 $218 $219 reversed $85 $-1 #
face $-1 $-1 $220 $49 $-1 $221 forward single #
loop $-1 $222 $223 $87 #
cone-surface $-1 -54.779588325291883 26.602625387213163 2.8256962861005466 0 -0.55919291073839883 -0.82903756765294845 0.75 0 0 1 I I -0.70710678118654768 0.70710678118654735 0.75 forward I I I I #
loop $-1 $-1 $224 $64 #
coedge $-1 $140 $140 $225 $226 reversed $88 $-1 #
face $-1 $-1 $227 $50 $-1 $228 forward single #
loop $-1 $229 $230 $90 #
cone-surface $-1 -48.711210626989931 26.602625387213163 2.8256962861005466 0 -0.55919291073839883 -0.82903756765294845 0.75 0 0 1 I I -0.70710678118654768 0.70710678118654735 0.75 forward I I I I #
loop $-1 $-1 $231 $65 #
coedge $-1 $145 $145 $232 $233 reversed $91 $-1 #
face $-1 $234 $235 $51 $-1 $236 reversed single #
loop $-1 $-1 $237 $93 #
plane-surface $-1 -17.248466492046973 -20.805127462110534 39.289613867193765 0 0.55919291073839883 0.82903756765294845 1 0 0 forward_v I I I I #
coedge $-1 $238 $239 $240 $241 reversed $94 $-1 #
face $-1 $-1 $242 $52 $-1 $243 forward single #
loop $-1 $244 $245 $96 #
cone-surface $-1 -20.282655341197952 26.602625387213163 2.8256962861005466 0 -0.55919291073839883 -0.82903756765294845 0.75 0 0 1 I I -0.70710678118654768 0.70710678118654735 0.75 forward I I I I #
loop $-1 $-1 $246 $67 #
coedge $-1 $154 $154 $247 $248 reversed $97 $-1 #
face $-1 $-1 $249 $53 $-1 $250 forward single #
loop $-1 $251 $252 $99 #
cone-surface $-1 -14.214277642895993 26.602625387213163 2.8256962861005466 0 -0.55919291073839883 -0.82903756765294845 0.75 0 0 1 I I -0.70710678118654768 0.70710678118654735 0.75 forward I I I I #
loop $-1 $-1 $253 $68 #
coedge $-1 $159 $159 $254 $255 reversed $100 $-1 #
face $-1 $256 $257 $54 $-1 $258 reversed single #
loop $-1 $-1 $259 $102 #
plane-surface $-1 17.248466492046958 -20.805127462110534 39.289613867193765 0 0.55919291073839883 0.82903756765294845 1 0 0 forward_v I I I I #
coedge $-1 $260 $261 $262 $263 reversed $103 $-1 #
face $-1 $-1 $264 $55 $-1 $265 forward single #
loop $-1 $266 $267 $105 #
cone-surface $-1 14.214277642895979 26.602625387213163 2.8256962861005466 0 -0.55919291073839883 -0.82903756765294845 0.75 0 0 1 I I -0.70710678118654768 0.70710678118654735 0.75 forward I I I I #
loop $-1 $-1 $268 $70 #
coedge $-1 $168 $168 $269 $270 reversed $106 $-1 #
face $-1 $-1 $271 $56 $-1 $272 forward single #
loop $-1 $273 $274 $108 #
cone-surface $-1 20.282655341197938 26.602625387213163 2.8256962861005466 0 -0.55919291073839883 -0.82903756765294845 0.75 0 0 1 I I -0.70710678118654768 0.70710678118654735 0.75 forward I I I I #
loop $-1 $-1 $275 $71 #
coedge $-1 $173 $173 $276 $277 reversed $109 $-1 #
face $-1 $278 $279 $57 $-1 $280 forward single #
loop $-1 $-1 $281 $111 #
plane-surface $-1 51.745399476140904 -20.805127462110534 39.289613867193765 0 0.55919291073839883 0.82903756765294845 1 0 0 forward_v I I I I #
coedge $-1 $282 $283 $284 $285 reversed $112 $-1 #
face $-1 $-1 $286 $58 $-1 $287 forward single #
loop $-1 $288 $289 $114 #
cone-surface $-1 48.711210626989924 26.602625387213163 2.8256962861005466 0 -0.55919291073839883 -0.82903756765294845 0.75 0 0 1 I I -0.70710678118654768 0.70710678118654735 0.75 forward I I I I #
loop $-1 $-1 $290 $73 #
coedge $-1 $182 $182 $291 $292 reversed $115 $-1 #
face $-1 $-1 $293 $59 $-1 $294 forward single #
loop $-1 $295 $296 $117 #
cone-surface $-1 54.779588325291883 26.602625387213163 2.8256962861005466 0 -0.55919291073839883 -0.82903756765294845 0.75 0 0 1 I I -0.70710678118654768 0.70710678118654735 0.75 forward I I I I #
loop $-1 $-1 $297 $74 #
coedge $-1 $187 $187 $298 $299 reversed $118 $-1 #
face $-1 $300 $301 $45 $-1 $302 reversed single #
loop $-1 $-1 $303 $120 #
plane-surface $-1 0 -31.615124696117793 0 0 1 0 0 0 1 forward_v I I I I #
coedge $-1 $304 $305 $306 $307 forward $121 $-1 #
coedge $-1 $308 $123 $309 $310 forward $76 $-1 #
coedge $-1 $123 $308 $311 $312 forward $76 $-1 #
coedge $-1 $313 $314 $123 $195 reversed $315 $-1 #
edge $-1 $316 -31.615124696117793 $317 31.615124696117793 $194 $318 forward 7 unknown #
face $-1 $319 $320 $46 $-1 $321 reversed single #
loop $-1 $-1 $322 $124 #
plane-surface $-1 0 31.615124696117793 0 0 -1 0 0 0 -1 forward_v I I I I #
coedge $-1 $202 $323 $324 $325 reversed $125 $-1 #
coedge $-1 $326 $127 $327 $328 reversed $79 $-1 #
coedge $-1 $127 $326 $329 $330 reversed $79 $-1 #
coedge $-1 $331 $199 $127 $203 reversed $125 $-1 #
edge $-1 $332 -31.615124696117793 $333 31.615124696117793 $202 $334 forward 7 unknown #
face $-1 $335 $336 $47 $-1 $337 reversed single #
loop $-1 $-1 $338 $128 #
plane-surface $-1 0 0 7.8875235107972461 0 0 1 1 0 0 forward_v I I I I #
coedge $-1 $339 $340 $341 $342 reversed $129 $-1 #
coedge $-1 $343 $131 $344 $345 reversed $82 $-1 #
coedge $-1 $131 $343 $346 $347 reversed $82 $-1 #
coedge $-1 $348 $349 $131 $211 forward $350 $-1 #
edge $-1 $351 -31.615124696117793 $352 31.615124696117793 $210 $353 forward 7 unknown #
face $-1 $354 $355 $48 $-1 $356 forward single #
loop $-1 $-1 $357 $132 #
plane-surface $-1 0 31.615124696117793 0 0 -1 0 0 0 -1 forward_v I I I I #
coedge $-1 $358 $359 $360 $361 reversed $133 $-1 #
coedge $-1 $362 $135 $363 $364 reversed $85 $-1 #
coedge $-1 $135 $362 $358 $365 forward $85 $-1 #
coedge $-1 $360 $366 $135 $219 forward $355 $-1 #
edge $-1 $367 -32.952473719422734 $368 -18.792925756718169 $218 $369 forward 7 unknown #
loop $-1 $-1 $225 $136 #
plane-surface $-1 -51.745399476140904 -20.805127462110534 39.289613867193765 0 0.55919291073839883 0.82903756765294845 1 0 0 forward_v I I I I #
loop $-1 $-1 $370 $87 #
coedge $-1 $223 $223 $224 $371 reversed $137 $-1 #
coedge $-1 $224 $224 $223 $371 forward $139 $-1 #
coedge $-1 $225 $225 $140 $226 forward $220 $-1 #
edge $-1 $372 2.3872112314412347e-016 $372 6.2831853071796004 $225 $373 forward 7 unknown #
loop $-1 $-1 $232 $141 #
plane-surface $-1 -51.745399476140904 -20.805127462110534 39.289613867193765 0 0.55919291073839883 0.82903756765294845 1 0 0 forward_v I I I I #
loop $-1 $-1 $374 $90 #
coedge $-1 $230 $230 $231 $375 reversed $142 $-1 #
coedge $-1 $231 $231 $230 $375 forward $144 $-1 #
coedge $-1 $232 $232 $145 $233 forward $227 $-1 #
edge $-1 $376 2.3872112314412347e-016 $376 6.2831853071796004 $232 $377 forward 7 unknown #
face $-1 $378 $379 $51 $-1 $380 forward single #
loop $-1 $-1 $381 $146 #
plane-surface $-1 -10.168692510694694 53.956440681533309 150.12819464584413 -1 0 0 0 0.55919291073839883 0.82903756765294845 forward_v I I I I #
coedge $-1 $382 $383 $384 $385 reversed $147 $-1 #
coedge $-1 $239 $149 $386 $387 reversed $94 $-1 #
coedge $-1 $149 $238 $382 $388 reversed $94 $-1 #
coedge $-1 $384 $389 $149 $241 forward $379 $-1 #
edge $-1 $390 -4.6369043553511382 $391 1.2278351911229635 $240 $392 forward 7 unknown #
loop $-1 $-1 $247 $150 #
plane-surface $-1 -17.248466492046973 -20.805127462110534 39.289613867193765 0 0.55919291073839883 0.82903756765294845 1 0 0 forward_v I I I I #
loop $-1 $-1 $393 $96 #
coedge $-1 $245 $245 $246 $394 reversed $151 $-1 #
coedge $-1 $246 $246 $245 $394 forward $153 $-1 #
coedge $-1 $247 $247 $154 $248 forward $242 $-1 #
edge $-1 $395 2.3872112314412347e-016 $395 6.2831853071796004 $247 $396 forward 7 unknown #
loop $-1 $-1 $254 $155 #
plane-surface $-1 -17.248466492046973 -20.805127462110534 39.289613867193765 0 0.55919291073839883 0.82903756765294845 1 0 0 forward_v I I I I #
loop $-1 $-1 $397 $99 #
coedge $-1 $252 $252 $253 $398 reversed $156 $-1 #
coedge $-1 $253 $253 $252 $398 forward $158 $-1 #
coedge $-1 $254 $254 $159 $255 forward $249 $-1 #
edge $-1 $399 2.3872112314412347e-016 $399 6.2831853071796004 $254 $400 forward 7 unknown #
face $-1 $401 $402 $54 $-1 $403 forward single #
loop $-1 $-1 $404 $160 #
plane-surface $-1 24.328240473399237 53.956440681533309 150.12819464584413 -1 0 0 0 0.55919291073839883 0.82903756765294845 forward_v I I I I #
coedge $-1 $405 $406 $407 $408 reversed $161 $-1 #
coedge $-1 $261 $163 $409 $410 reversed $103 $-1 #
coedge $-1 $163 $260 $405 $411 reversed $103 $-1 #
coedge $-1 $407 $412 $163 $263 forward $402 $-1 #
edge $-1 $413 -4.6369043553511382 $414 1.2278351911229635 $262 $415 forward 7 unknown #
loop $-1 $-1 $269 $164 #
plane-surface $-1 17.248466492046958 -20.805127462110534 39.289613867193765 0 0.55919291073839883 0.82903756765294845 1 0 0 forward_v I I I I #
loop $-1 $-1 $416 $105 #
coedge $-1 $267 $267 $268 $417 reversed $165 $-1 #
coedge $-1 $268 $268 $267 $417 forward $167 $-1 #
coedge $-1 $269 $269 $168 $270 forward $264 $-1 #
edge $-1 $418 2.3872112314412347e-016 $418 6.2831853071796004 $269 $419 forward 7 unknown #
loop $-1 $-1 $276 $169 #
plane-surface $-1 17.248466492046958 -20.805127462110534 39.289613867193765 0 0.55919291073839883 0.82903756765294845 1 0 0 forward_v I I I I #
loop $-1 $-1 $420 $108 #
coedge $-1 $274 $274 $275 $421 reversed $170 $-1 #
coedge $-1 $275 $275 $274 $421 forward $172 $-1 #
coedge $-1 $276 $276 $173 $277 forward $271 $-1 #
edge $-1 $422 2.3872112314412347e-016 $422 6.2831853071796004 $276 $423 forward 7 unknown #
face $-1 $424 $425 $57 $-1 $426 forward single #
loop $-1 $-1 $284 $174 #
plane-surface $-1 0 0 7.8875235107972461 0 0 1 1 0 0 forward_v I I I I #
coedge $-1 $427 $428 $429 $430 reversed $175 $-1 #
coedge $-1 $283 $177 $431 $432 reversed $112 $-1 #
coedge $-1 $177 $282 $427 $433 reversed $112 $-1 #
coedge $-1 $429 $434 $177 $285 forward $279 $-1 #
edge $-1 $435 -4.6369043553511382 $436 1.2278351911229635 $284 $437 forward 7 unknown #
loop $-1 $-1 $291 $178 #
plane-surface $-1 51.745399476140904 -20.805127462110534 39.289613867193765 0 0.55919291073839883 0.82903756765294845 1 0 0 forward_v I I I I #
loop $-1 $-1 $438 $114 #
coedge $-1 $289 $289 $290 $439 reversed $179 $-1 #
coedge $-1 $290 $290 $289 $439 forward $181 $-1 #
coedge $-1 $291 $291 $182 $292 forward $286 $-1 #
edge $-1 $440 2.3872112314412347e-016 $440 6.2831853071796004 $291 $441 forward 7 unknown #
loop $-1 $-1 $298 $183 #
plane-surface $-1 51.745399476140904 -20.805127462110534 39.289613867193765 0 0.55919291073839883 0.82903756765294845 1 0 0 forward_v I I I I #
loop $-1 $-1 $442 $117 #
coedge $-1 $296 $296 $297 $443 reversed $184 $-1 #
coedge $-1 $297 $297 $296 $443 forward $186 $-1 #
coedge $-1 $298 $298 $187 $299 forward $293 $-1 #
edge $-1 $444 2.3872112314412347e-016 $444 6.2831853071796004 $298 $445 forward 7 unknown #
face $-1 $446 $447 $45 $-1 $448 reversed single #
loop $-1 $-1 $449 $188 #
plane-surface $-1 -66.847743156224254 0 0 1 0 0 0 0 -1 forward_v I I I I #
coedge $-1 $450 $311 $451 $452 forward $189 $-1 #
coedge $-1 $453 $191 $450 $454 forward $121 $-1 #
coedge $-1 $191 $453 $455 $456 forward $121 $-1 #
coedge $-1 $314 $313 $191 $307 reversed $315 $-1 #
edge $-1 $457 -31.615124696117793 $458 31.615124696117793 $306 $459 forward 7 unknown #
coedge $-1 $193 $192 $460 $461 forward $76 $-1 #
coedge $-1 $462 $463 $192 $310 reversed $447 $-1 #
edge $-1 $317 -66.847743156224254 $464 66.847743156224254 $309 $465 forward 7 unknown #
coedge $-1 $303 $466 $193 $312 reversed $189 $-1 #
edge $-1 $467 -66.847743156224254 $316 66.847743156224254 $311 $468 forward 7 unknown #
coedge $-1 $306 $194 $466 $469 forward $315 $-1 #
coedge $-1 $194 $306 $462 $470 reversed $315 $-1 #
loop $-1 $-1 $313 $446 #
vertex $-1 $195 $471 #
vertex $-1 $195 $472 #
straight-curve $-1 66.847743156224254 0 7.8875235107972461 0 1 0 I I #
face $-1 $473 $474 $46 $-1 $475 forward single #
loop $-1 $-1 $476 $196 #
plane-surface $-1 -66.847743156224254 0 0 1 0 0 0 0 -1 forward_v I I I I #
coedge $-1 $329 $477 $331 $478 forward $197 $-1 #
coedge $-1 $199 $331 $479 $480 reversed $125 $-1 #
coedge $-1 $481 $327 $199 $325 forward $482 $-1 #
edge $-1 $333 1.6937617553986231 $483 4.6937617553986231 $324 $484 forward 7 unknown #
coedge $-1 $201 $200 $476 $485 reversed $79 $-1 #
coedge $-1 $324 $486 $200 $328 forward $482 $-1 #
edge $-1 $487 -35.429514002794889 $333 -27.406944304063831 $327 $488 forward 7 unknown #
coedge $-1 $489 $322 $201 $330 forward $197 $-1 #
edge $-1 $332 27.406944304063831 $490 35.429514002794889 $329 $491 forward 7 unknown #
coedge $-1 $323 $202 $322 $478 reversed $125 $-1 #
vertex $-1 $330 $492 #
vertex $-1 $328 $493 #
straight-curve $-1 -58.825173457493193 0 4.8875235107972461 0 -1 0 I I #
face $-1 $494 $495 $47 $-1 $496 reversed single #
loop $-1 $-1 $497 $204 #
plane-surface $-1 0 -31.615124696117793 0 0 1 0 0 0 1 forward_v I I I I #
coedge $-1 $498 $499 $340 $500 forward $205 $-1 #
coedge $-1 $501 $207 $343 $502 reversed $129 $-1 #
coedge $-1 $207 $501 $338 $500 reversed $129 $-1 #
coedge $-1 $503 $346 $207 $342 forward $495 $-1 #
edge $-1 $504 1.6937617553986231 $505 4.6937617553986231 $341 $506 forward 7 unknown #
coedge $-1 $209 $208 $339 $502 forward $82 $-1 #
coedge $-1 $507 $497 $208 $345 forward $336 $-1 #
edge $-1 $508 27.406944304063835 $351 35.429514002794889 $344 $509 forward 7 unknown #
coedge $-1 $341 $510 $209 $347 forward $495 $-1 #
edge $-1 $352 -35.429514002794889 $504 -27.406944304063835 $346 $511 forward 7 unknown #
coedge $-1 $512 $210 $510 $513 reversed $350 $-1 #
coedge $-1 $210 $512 $507 $514 forward $350 $-1 #
loop $-1 $-1 $210 $494 #
vertex $-1 $345 $515 #
vertex $-1 $211 $516 #
straight-curve $-1 66.847743156224254 0 4.8875235107972461 0 1 0 I I #
face $-1 $-1 $517 $48 $-1 $518 forward single #
loop $-1 $-1 $360 $212 #
plane-surface $-1 0 0 7.8875235107972461 0 0 1 1 0 0 forward_v I I I I #
coedge $-1 $519 $520 $359 $521 forward $213 $-1 #
coedge $-1 $359 $215 $217 $365 reversed $133 $-1 #
coedge $-1 $215 $358 $357 $521 reversed $133 $-1 #
coedge $-1 $522 $218 $215 $361 forward $355 $-1 #
edge $-1 $368 -1.2278351911229635 $523 4.6369043553511382 $360 $524 forward 7 unknown #
coedge $-1 $217 $216 $519 $525 reversed $85 $-1 #
coedge $-1 $526 $527 $216 $364 forward $517 $-1 #
edge $-1 $528 -45.406825421401166 $367 -38.332671275314041 $363 $529 forward 7 unknown #
edge $-1 $530 -63.230249392235599 $368 -56.156095246148467 $358 $531 forward 7 unknown #
coedge $-1 $218 $522 $526 $532 forward $355 $-1 #
vertex $-1 $364 $533 #
vertex $-1 $219 $534 #
straight-curve $-1 -25.872699738070452 25.750385149643687 7.8875235107972479 1 0 0 I I #
coedge $-1 $370 $370 $-1 $535 reversed $222 $-1 #
edge $-1 $536 0 $536 6.2831853071796004 $223 $537 forward 7 unknown #
vertex $-1 $226 $538 #
ellipse-curve $-1 -54.779588325291883 28.682754922880754 5.9096150868159461 0 0.55919291073839883 0.82903756765294845 1.5 0 0 1 I I #
coedge $-1 $374 $374 $-1 $539 reversed $229 $-1 #
edge $-1 $540 0 $540 6.2831853071796004 $230 $541 forward 7 unknown #
vertex $-1 $233 $542 #
ellipse-curve $-1 -48.711210626989931 28.682754922880754 5.9096150868159461 0 0.55919291073839883 0.82903756765294845 1.5 0 0 1 I I #
face $-1 $-1 $543 $51 $-1 $544 reversed single #
loop $-1 $-1 $240 $234 #
plane-surface $-1 0 0 7.8875235107972461 0 0 1 1 0 0 forward_v I I I I #
coedge $-1 $545 $546 $547 $548 reversed $235 $-1 #
coedge $-1 $549 $237 $239 $388 forward $147 $-1 #
coedge $-1 $237 $549 $545 $550 forward $147 $-1 #
coedge $-1 $547 $240 $237 $385 forward $379 $-1 #
edge $-1 $391 -15.704007227375765 $551 -1.5444592646712074 $384 $552 forward 7 unknown #
coedge $-1 $553 $554 $238 $387 forward $543 $-1 #
edge $-1 $555 -71.132390660087395 $390 -67.176573812124815 $386 $556 forward 7 unknown #
edge $-1 $391 56.156095246148467 $555 63.230249392235599 $239 $557 forward 7 unknown #
coedge $-1 $240 $547 $553 $558 forward $379 $-1 #
vertex $-1 $387 $559 #
vertex $-1 $241 $560 #
straight-curve $-1 -24.328240473399251 26.978220340766654 7.8875235107972514 0 -1 0 I I #
coedge $-1 $393 $393 $-1 $561 reversed $244 $-1 #
edge $-1 $562 0 $562 6.2831853071796004 $245 $563 forward 7 unknown #
vertex $-1 $248 $564 #
ellipse-curve $-1 -20.282655341197952 28.682754922880754 5.9096150868159461 0 0.55919291073839883 0.82903756765294845 1.5 0 0 1 I I #
coedge $-1 $397 $397 $-1 $565 reversed $251 $-1 #
edge $-1 $566 0 $566 6.2831853071796004 $252 $567 forward 7 unknown #
vertex $-1 $255 $568 #
ellipse-curve $-1 -14.214277642895993 28.682754922880754 5.9096150868159461 0 0.55919291073839883 0.82903756765294845 1.5 0 0 1 I I #
face $-1 $-1 $569 $54 $-1 $570 reversed single #
loop $-1 $-1 $262 $256 #
plane-surface $-1 0 0 7.8875235107972461 0 0 1 1 0 0 forward_v I I I I #
coedge $-1 $571 $572 $573 $574 reversed $257 $-1 #
coedge $-1 $575 $259 $261 $411 forward $161 $-1 #
coedge $-1 $259 $575 $571 $576 forward $161 $-1 #
coedge $-1 $573 $262 $259 $408 forward $402 $-1 #
edge $-1 $414 1.5444592646712003 $577 15.704007227375758 $407 $578 forward 7 unknown #
coedge $-1 $579 $580 $260 $410 forward $569 $-1 #
edge $-1 $581 -71.132390660087395 $413 -67.176573812124815 $409 $582 forward 7 unknown #
edge $-1 $414 56.156095246148467 $581 63.230249392235599 $261 $583 forward 7 unknown #
coedge $-1 $262 $573 $579 $584 forward $402 $-1 #
vertex $-1 $263 $585 #
vertex $-1 $263 $586 #
straight-curve $-1 10.168692510694679 26.978220340766654 7.8875235107972514 0 -1 0 I I #
coedge $-1 $416 $416 $-1 $587 reversed $266 $-1 #
edge $-1 $588 0 $588 6.2831853071796004 $267 $589 forward 7 unknown #
vertex $-1 $270 $590 #
ellipse-curve $-1 14.214277642895979 28.682754922880754 5.9096150868159461 0 0.55919291073839883 0.82903756765294845 1.5 0 0 1 I I #
coedge $-1 $420 $420 $-1 $591 reversed $273 $-1 #
edge $-1 $592 0 $592 6.2831853071796004 $274 $593 forward 7 unknown #
vertex $-1 $277 $594 #
ellipse-curve $-1 20.282655341197938 28.682754922880754 5.9096150868159461 0 0.55919291073839883 0.82903756765294845 1.5 0 0 1 I I #
face $-1 $-1 $595 $57 $-1 $596 reversed single #
loop $-1 $-1 $597 $278 #
plane-surface $-1 58.8251734574932 0 6.3875235107972461 1 0 0 0 0 -1 forward_v I I I I #
coedge $-1 $598 $281 $283 $433 forward $175 $-1 #
coedge $-1 $281 $598 $597 $599 forward $175 $-1 #
coedge $-1 $600 $284 $281 $430 forward $279 $-1 #
edge $-1 $436 18.792925756718169 $601 32.952473719422734 $429 $602 forward 7 unknown #
coedge $-1 $603 $604 $282 $432 forward $595 $-1 #
edge $-1 $605 -71.132390660087395 $435 -67.176573812124815 $431 $606 forward 7 unknown #
edge $-1 $436 56.156095246148467 $605 63.230249392235599 $283 $607 forward 7 unknown #
coedge $-1 $284 $600 $603 $608 forward $279 $-1 #
vertex $-1 $432 $609 #
vertex $-1 $285 $610 #
straight-curve $-1 44.665625494788621 26.978220340766654 7.8875235107972514 0 -1 0 I I #
coedge $-1 $438 $438 $-1 $611 reversed $288 $-1 #
edge $-1 $612 0 $612 6.2831853071796004 $289 $613 forward 7 unknown #
vertex $-1 $292 $614 #
ellipse-curve $-1 48.711210626989924 28.682754922880754 5.9096150868159461 0 0.55919291073839883 0.82903756765294845 1.5 0 0 1 I I #
coedge $-1 $442 $442 $-1 $615 reversed $295 $-1 #
edge $-1 $616 0 $616 6.2831853071796004 $296 $617 forward 7 unknown #
vertex $-1 $299 $618 #
ellipse-curve $-1 54.779588325291883 28.682754922880754 5.9096150868159461 0 0.55919291073839883 0.82903756765294845 1.5 0 0 1 I I #
face $-1 $-1 $315 $45 $-1 $619 reversed single #
loop $-1 $-1 $462 $300 #
plane-surface $-1 0 31.615124696117793 0 0 -1 0 0 0 -1 forward_v I I I I #
coedge $-1 $620 $460 $463 $621 forward $301 $-1 #
coedge $-1 $466 $303 $304 $454 reversed $189 $-1 #
coedge $-1 $460 $620 $303 $452 reversed $301 $-1 #
edge $-1 $467 -7.8875235107972461 $622 7.8875235107972461 $451 $623 forward 7 unknown #
coedge $-1 $305 $304 $620 $624 forward $121 $-1 #
edge $-1 $458 -66.847743156224254 $622 66.847743156224254 $450 $625 forward 7 unknown #
coedge $-1 $463 $462 $305 $456 reversed $447 $-1 #
edge $-1 $626 -66.847743156224254 $457 66.847743156224254 $455 $627 forward 7 unknown #
vertex $-1 $307 $628 #
vertex $-1 $469 $629 #
straight-curve $-1 66.847743156224254 0 -7.8875235107972461 0 -1 0 I I #
coedge $-1 $449 $451 $308 $461 reversed $301 $-1 #
edge $-1 $464 -31.615124696117793 $467 31.615124696117793 $460 $630 forward 7 unknown #
coedge $-1 $455 $309 $314 $470 forward $447 $-1 #
coedge $-1 $309 $455 $449 $621 reversed $447 $-1 #
vertex $-1 $310 $631 #
straight-curve $-1 0 31.615124696117793 7.8875235107972461 -1 0 0 I I #
coedge $-1 $311 $450 $313 $469 reversed $189 $-1 #
vertex $-1 $461 $632 #
straight-curve $-1 0 -31.615124696117793 7.8875235107972461 1 0 0 I I #
edge $-1 $316 -7.8875235107972461 $458 7.8875235107972461 $313 $633 forward 7 unknown #
edge $-1 $317 -7.8875235107972461 $457 7.8875235107972461 $314 $634 forward 7 unknown #
point $-1 66.847743156224254 -31.615124696117793 7.8875235107972461 #
point $-1 66.847743156224254 31.615124696117793 7.8875235107972461 #
face $-1 $-1 $482 $46 $-1 $635 reversed single #
loop $-1 $-1 $479 $319 #
plane-surface $-1 0 0 7.8875235107972461 0 0 1 1 0 0 forward_v I I I I #
coedge $-1 $636 $637 $326 $485 forward $320 $-1 #
coedge $-1 $322 $489 $638 $639 reversed $197 $-1 #
edge $-1 $640 -4.6937617553986231 $332 -1.6937617553986231 $322 $641 forward 7 unknown #
coedge $-1 $638 $642 $323 $480 forward $474 $-1 #
edge $-1 $483 -31.615124696117793 $640 31.615124696117793 $479 $643 forward 7 unknown #
coedge $-1 $486 $324 $642 $644 reversed $482 $-1 #
loop $-1 $-1 $324 $473 #
vertex $-1 $325 $645 #
straight-curve $-1 -58.825173457493193 -31.615124696117793 3.1937617553986231 0 0 1 I I #
edge $-1 $490 -31.615124696117793 $487 31.615124696117793 $476 $646 forward 7 unknown #
coedge $-1 $327 $481 $636 $647 forward $482 $-1 #
vertex $-1 $485 $648 #
straight-curve $-1 -31.418229153429362 -31.615124696117793 4.8875235107972461 1 0 0 I I #
coedge $-1 $477 $329 $637 $649 reversed $197 $-1 #
vertex $-1 $485 $650 #
straight-curve $-1 -31.418229153429362 31.615124696117793 4.8875235107972461 -1 0 0 I I #
point $-1 -58.825173457493193 31.615124696117793 4.8875235107972461 #
point $-1 -58.825173457493193 -31.615124696117793 4.8875235107972461 #
face $-1 $-1 $350 $47 $-1 $651 reversed single #
loop $-1 $-1 $341 $335 #
plane-surface $-1 0 31.615124696117793 0 0 -1 0 0 0 -1 forward_v I I I I #
coedge $-1 $344 $652 $501 $653 forward $336 $-1 #
coedge $-1 $654 $338 $652 $655 forward $205 $-1 #
coedge $-1 $338 $654 $503 $656 forward $205 $-1 #
edge $-1 $505 -31.615124696117793 $657 31.615124696117793 $338 $658 forward 7 unknown #
coedge $-1 $340 $339 $497 $653 reversed $129 $-1 #
edge $-1 $508 -31.615124696117793 $504 31.615124696117793 $339 $659 forward 7 unknown #
coedge $-1 $510 $341 $499 $656 reversed $495 $-1 #
vertex $-1 $347 $660 #
vertex $-1 $342 $661 #
straight-curve $-1 58.8251734574932 31.615124696117793 3.1937617553986231 0 0 1 I I #
coedge $-1 $652 $344 $349 $514 reversed $336 $-1 #
vertex $-1 $345 $662 #
straight-curve $-1 31.418229153429365 -31.615124696117793 4.8875235107972461 1 0 0 I I #
coedge $-1 $346 $503 $348 $513 forward $495 $-1 #
straight-curve $-1 31.418229153429365 31.615124696117793 4.8875235107972461 -1 0 0 I I #
coedge $-1 $349 $348 $654 $663 reversed $350 $-1 #
edge $-1 $664 -7.8875235107972461 $352 -4.8875235107972461 $348 $665 forward 7 unknown #
edge $-1 $666 -7.8875235107972461 $351 -4.8875235107972461 $349 $667 forward 7 unknown #
point $-1 66.847743156224254 -31.615124696117793 4.8875235107972461 #
point $-1 66.847743156224254 31.615124696117793 4.8875235107972461 #
loop $-1 $-1 $363 $354 #
plane-surface $-1 -58.825173457493193 0 6.3875235107972461 -1 0 0 0 0 1 forward_v I I I I #
coedge $-1 $668 $357 $362 $525 forward $213 $-1 #
coedge $-1 $357 $668 $522 $669 reversed $213 $-1 #
edge $-1 $523 67.176573812124815 $530 71.132390660087395 $357 $670 forward 7 unknown #
coedge $-1 $366 $360 $520 $669 forward $355 $-1 #
vertex $-1 $669 $671 #
straight-curve $-1 -44.665625494788621 26.978220340766654 7.8875235107972514 0 1 0 I I #
edge $-1 $530 18.792925756718169 $528 32.952473719422734 $519 $672 forward 7 unknown #
coedge $-1 $527 $363 $366 $532 reversed $517 $-1 #
coedge $-1 $363 $526 $668 $673 reversed $517 $-1 #
vertex $-1 $673 $674 #
straight-curve $-1 -58.825173457493193 -6.0288394060827057 29.322881537618311 0 -0.82903756765294845 0.55919291073839883 I I #
vertex $-1 $525 $675 #
straight-curve $-1 -44.665625494788621 -20.805127462110534 39.289613867193765 0 -0.82903756765294845 0.55919291073839883 I I #
edge $-1 $676 -31.615124696117793 $367 -25.750385149643691 $366 $677 forward 7 unknown #
point $-1 -58.825173457493186 25.750385149643691 7.8875235107972443 #
point $-1 -44.665625494788621 25.750385149643691 7.8875235107972443 #
edge $-1 $678 1 $678 0 $370 $-1 forward 7 unknown #
vertex $-1 $371 $679 #
ellipse-curve $-1 -54.779588325291883 27.022020070266962 3.4474744618402573 0 0.55919291073839883 0.82903756765294845 1.5 0 0 1 I I #
point $-1 -53.279588325291883 28.682754922880768 5.9096150868159665 #
edge $-1 $680 1 $680 0 $374 $-1 forward 7 unknown #
vertex $-1 $375 $681 #
ellipse-curve $-1 -48.711210626989931 27.022020070266962 3.4474744618402573 0 0.55919291073839883 0.82903756765294845 1.5 0 0 1 I I #
point $-1 -47.211210626989931 28.682754922880768 5.9096150868159665 #
loop $-1 $-1 $386 $378 #
plane-surface $-1 0 31.615124696117793 0 0 -1 0 0 0 -1 forward_v I I I I #
coedge $-1 $546 $381 $383 $550 reversed $235 $-1 #
coedge $-1 $381 $545 $682 $683 reversed $235 $-1 #
coedge $-1 $389 $384 $381 $548 forward $379 $-1 #
edge $-1 $551 -1.2278351911229635 $684 4.6369043553511382 $547 $685 forward 7 unknown #
coedge $-1 $383 $382 $554 $686 reversed $147 $-1 #
edge $-1 $687 -63.230249392235599 $551 -56.156095246148467 $545 $688 forward 7 unknown #
vertex $-1 $385 $689 #
straight-curve $-1 -8.6242332460234863 25.750385149643687 7.8875235107972479 1 0 0 I I #
coedge $-1 $682 $386 $389 $558 reversed $543 $-1 #
coedge $-1 $386 $682 $549 $686 forward $543 $-1 #
vertex $-1 $387 $690 #
straight-curve $-1 -24.328240473399251 31.615124696117793 75.064097322922066 0 0 1 I I #
straight-curve $-1 -24.328240473399251 -20.805127462110534 39.289613867193765 0 0.82903756765294845 -0.55919291073839883 I I #
edge $-1 $684 10.168692510694694 $390 24.328240473399251 $553 $691 forward 7 unknown #
point $-1 -24.328240473399251 31.615124696117793 7.8875235107972461 #
point $-1 -24.328240473399251 25.750385149643691 7.8875235107972443 #
edge $-1 $692 1 $692 0 $393 $-1 forward 7 unknown #
vertex $-1 $394 $693 #
ellipse-curve $-1 -20.282655341197952 27.022020070266962 3.4474744618402573 0 0.55919291073839883 0.82903756765294845 1.5 0 0 1 I I #
point $-1 -18.782655341197952 28.682754922880768 5.9096150868159665 #
edge $-1 $694 1 $694 0 $397 $-1 forward 7 unknown #
vertex $-1 $398 $695 #
ellipse-curve $-1 -14.214277642895993 27.022020070266962 3.4474744618402573 0 0.55919291073839883 0.82903756765294845 1.5 0 0 1 I I #
point $-1 -12.714277642895993 28.682754922880768 5.9096150868159665 #
loop $-1 $-1 $409 $401 #
plane-surface $-1 0 31.615124696117793 0 0 -1 0 0 0 -1 forward_v I I I I #
coedge $-1 $572 $404 $406 $576 reversed $257 $-1 #
coedge $-1 $404 $571 $696 $697 reversed $257 $-1 #
coedge $-1 $412 $407 $404 $574 forward $402 $-1 #
edge $-1 $577 -1.2278351911229635 $698 4.6369043553511382 $573 $699 forward 7 unknown #
coedge $-1 $406 $405 $580 $700 reversed $161 $-1 #
edge $-1 $701 -63.230249392235599 $577 -56.156095246148467 $571 $702 forward 7 unknown #
vertex $-1 $408 $703 #
straight-curve $-1 8.6242332460234792 25.750385149643687 7.8875235107972479 1 0 0 I I #
coedge $-1 $696 $409 $412 $584 reversed $569 $-1 #
coedge $-1 $409 $696 $575 $700 forward $569 $-1 #
vertex $-1 $410 $704 #
straight-curve $-1 10.168692510694679 31.615124696117793 75.064097322922066 0 0 1 I I #
straight-curve $-1 10.168692510694679 -20.805127462110534 39.289613867193765 0 0.82903756765294845 -0.55919291073839883 I I #
edge $-1 $698 -24.328240473399237 $413 -10.168692510694679 $579 $705 forward 7 unknown #
point $-1 10.168692510694679 31.615124696117793 7.8875235107972461 #
point $-1 10.168692510694679 25.750385149643691 7.8875235107972443 #
edge $-1 $706 1 $706 0 $416 $-1 forward 7 unknown #
vertex $-1 $417 $707 #
ellipse-curve $-1 14.214277642895979 27.022020070266962 3.4474744618402573 0 0.55919291073839883 0.82903756765294845 1.5 0 0 1 I I #
point $-1 15.714277642895979 28.682754922880768 5.9096150868159665 #
edge $-1 $708 1 $708 0 $420 $-1 forward 7 unknown #
vertex $-1 $421 $709 #
ellipse-curve $-1 20.282655341197938 27.022020070266962 3.4474744618402573 0 0.55919291073839883 0.82903756765294845 1.5 0 0 1 I I #
point $-1 21.782655341197938 28.682754922880768 5.9096150868159665 #
loop $-1 $-1 $431 $424 #
plane-surface $-1 0 31.615124696117793 0 0 -1 0 0 0 -1 forward_v I I I I #
coedge $-1 $710 $711 $428 $599 reversed $425 $-1 #
coedge $-1 $428 $427 $604 $712 reversed $175 $-1 #
edge $-1 $713 -63.230249392235599 $601 -56.156095246148467 $597 $714 forward 7 unknown #
coedge $-1 $434 $429 $711 $715 forward $279 $-1 #
vertex $-1 $715 $716 #
straight-curve $-1 25.872699738070452 25.750385149643687 7.8875235107972479 1 0 0 I I #
coedge $-1 $717 $431 $434 $608 reversed $595 $-1 #
coedge $-1 $431 $717 $598 $712 forward $595 $-1 #
vertex $-1 $432 $718 #
straight-curve $-1 44.665625494788621 31.615124696117793 75.064097322922066 0 0 1 I I #
straight-curve $-1 44.665625494788621 -20.805127462110534 39.289613867193765 0 0.82903756765294845 -0.55919291073839883 I I #
edge $-1 $719 -58.8251734574932 $435 -44.665625494788621 $603 $720 forward 7 unknown #
point $-1 44.665625494788621 31.615124696117793 7.8875235107972461 #
point $-1 44.665625494788621 25.750385149643691 7.8875235107972443 #
edge $-1 $721 1 $721 0 $438 $-1 forward 7 unknown #
vertex $-1 $439 $722 #
ellipse-curve $-1 48.711210626989924 27.022020070266962 3.4474744618402573 0 0.55919291073839883 0.82903756765294845 1.5 0 0 1 I I #
point $-1 50.211210626989924 28.682754922880768 5.9096150868159665 #
edge $-1 $723 1 $723 0 $442 $-1 forward 7 unknown #
vertex $-1 $443 $724 #
ellipse-curve $-1 54.779588325291883 27.022020070266962 3.4474744618402573 0 0.55919291073839883 0.82903756765294845 1.5 0 0 1 I I #
point $-1 56.279588325291883 28.682754922880768 5.9096150868159665 #
plane-surface $-1 66.847743156224254 0 0 -1 0 0 0 0 1 forward_v I I I I #
coedge $-1 $451 $449 $453 $624 reversed $301 $-1 #
edge $-1 $464 -7.8875235107972461 $626 7.8875235107972461 $463 $725 forward 7 unknown #
vertex $-1 $624 $726 #
straight-curve $-1 -66.847743156224254 -31.615124696117793 0 0 0 -1 I I #
edge $-1 $622 -31.615124696117793 $626 31.615124696117793 $620 $727 forward 7 unknown #
straight-curve $-1 0 -31.615124696117793 -7.8875235107972461 -1 0 0 I I #
vertex $-1 $456 $728 #
straight-curve $-1 0 31.615124696117793 -7.8875235107972461 1 0 0 I I #
point $-1 66.847743156224254 31.615124696117793 -7.8875235107972461 #
point $-1 66.847743156224254 -31.615124696117793 -7.8875235107972461 #
straight-curve $-1 -66.847743156224254 0 7.8875235107972461 0 -1 0 I I #
point $-1 -66.847743156224254 31.615124696117793 7.8875235107972461 #
point $-1 -66.847743156224254 -31.615124696117793 7.8875235107972461 #
straight-curve $-1 66.847743156224254 -31.615124696117793 0 0 0 -1 I I #
straight-curve $-1 66.847743156224254 31.615124696117793 0 0 0 -1 I I #
plane-surface $-1 0 -31.615124696117793 0 0 1 0 0 0 1 forward_v I I I I #
coedge $-1 $729 $476 $486 $647 reversed $320 $-1 #
coedge $-1 $476 $729 $489 $649 forward $320 $-1 #
coedge $-1 $730 $479 $477 $639 forward $474 $-1 #
edge $-1 $640 58.825173457493193 $731 66.847743156224254 $477 $732 forward 7 unknown #
vertex $-1 $639 $733 #
straight-curve $-1 -58.825173457493193 31.615124696117793 3.1937617553986231 0 0 -1 I I #
coedge $-1 $479 $730 $481 $644 forward $474 $-1 #
straight-curve $-1 -58.825173457493193 0 7.8875235107972461 0 1 0 I I #
edge $-1 $734 -66.847743156224254 $483 -58.825173457493193 $481 $735 forward 7 unknown #
point $-1 -58.825173457493193 -31.615124696117793 7.8875235107972461 #
straight-curve $-1 -66.847743156224254 0 4.8875235107972461 0 -1 0 I I #
edge $-1 $734 -7.8875235107972461 $487 -4.8875235107972461 $636 $736 forward 7 unknown #
point $-1 -66.847743156224254 -31.615124696117793 4.8875235107972461 #
edge $-1 $731 -7.8875235107972461 $490 -4.8875235107972461 $489 $737 forward 7 unknown #
point $-1 -66.847743156224254 31.615124696117793 4.8875235107972461 #
plane-surface $-1 66.847743156224254 0 0 -1 0 0 0 0 1 forward_v I I I I #
coedge $-1 $497 $507 $498 $655 reversed $336 $-1 #
edge $-1 $657 -4.6937617553986231 $508 -1.6937617553986231 $497 $738 forward 7 unknown #
coedge $-1 $499 $498 $512 $663 forward $205 $-1 #
edge $-1 $657 58.8251734574932 $666 66.847743156224254 $652 $739 forward 7 unknown #
edge $-1 $664 -66.847743156224254 $505 -58.8251734574932 $503 $740 forward 7 unknown #
vertex $-1 $655 $741 #
straight-curve $-1 58.8251734574932 0 7.8875235107972461 0 -1 0 I I #
straight-curve $-1 58.8251734574932 0 4.8875235107972461 0 1 0 I I #
point $-1 58.8251734574932 31.615124696117793 4.8875235107972461 #
point $-1 58.8251734574932 31.615124696117793 7.8875235107972461 #
point $-1 58.8251734574932 -31.615124696117793 4.8875235107972461 #
edge $-1 $666 -31.615124696117793 $664 31.615124696117793 $512 $742 forward 7 unknown #
vertex $-1 $663 $743 #
straight-curve $-1 66.847743156224254 31.615124696117793 0 0 0 -1 I I #
vertex $-1 $663 $744 #
straight-curve $-1 66.847743156224254 -31.615124696117793 0 0 0 -1 I I #
coedge $-1 $520 $519 $527 $673 forward $213 $-1 #
edge $-1 $523 44.665625494788621 $676 58.825173457493193 $520 $745 forward 7 unknown #
straight-curve $-1 -44.665625494788621 31.615124696117793 75.064097322922066 0 0 -1 I I #
point $-1 -44.665625494788621 31.615124696117793 7.8875235107972461 #
straight-curve $-1 -25.872699738070452 31.615124696117796 3.9317066628346637 -1 0 0 I I #
edge $-1 $528 -71.132390660087395 $676 -67.176573812124815 $668 $746 forward 7 unknown #
point $-1 -58.825173457493186 31.615124696117789 3.9317066628346637 #
point $-1 -44.665625494788621 31.615124696117789 3.9317066628346637 #
vertex $-1 $532 $747 #
straight-curve $-1 -58.825173457493193 0 7.8875235107972461 0 -1 0 I I #
vertex $-1 $535 $748 #
point $-1 -53.279588325291883 27.022020070266962 3.4474744618402573 #
vertex $-1 $539 $749 #
point $-1 -47.211210626989931 27.022020070266962 3.4474744618402573 #
coedge $-1 $554 $553 $546 $683 forward $543 $-1 #
edge $-1 $684 67.176573812124815 $687 71.132390660087395 $682 $750 forward 7 unknown #
vertex $-1 $558 $751 #
straight-curve $-1 -10.168692510694694 26.978220340766654 7.8875235107972514 0 1 0 I I #
edge $-1 $687 1.5444592646712074 $555 15.704007227375765 $554 $752 forward 7 unknown #
vertex $-1 $686 $753 #
straight-curve $-1 -10.168692510694694 -20.805127462110534 39.289613867193765 0 -0.82903756765294845 0.55919291073839883 I I #
point $-1 -10.168692510694694 25.750385149643691 7.8875235107972443 #
point $-1 -24.328240473399251 31.615124696117789 3.9317066628346637 #
straight-curve $-1 0 31.615124696117793 7.8875235107972461 -1 0 0 I I #
vertex $-1 $561 $754 #
point $-1 -18.782655341197952 27.022020070266962 3.4474744618402573 #
vertex $-1 $565 $755 #
point $-1 -12.714277642895993 27.022020070266962 3.4474744618402573 #
coedge $-1 $580 $579 $572 $697 forward $569 $-1 #
edge $-1 $698 67.176573812124815 $701 71.132390660087395 $696 $756 forward 7 unknown #
vertex $-1 $584 $757 #
straight-curve $-1 24.328240473399237 26.978220340766654 7.8875235107972514 0 1 0 I I #
edge $-1 $701 -15.704007227375758 $581 -1.5444592646712003 $580 $758 forward 7 unknown #
vertex $-1 $700 $759 #
straight-curve $-1 24.328240473399237 -20.805127462110534 39.289613867193765 0 -0.82903756765294845 0.55919291073839883 I I #
point $-1 24.328240473399237 25.750385149643691 7.8875235107972443 #
point $-1 10.168692510694679 31.615124696117789 3.9317066628346637 #
straight-curve $-1 0 31.615124696117793 7.8875235107972461 -1 0 0 I I #
vertex $-1 $587 $760 #
point $-1 15.714277642895979 27.022020070266962 3.4474744618402573 #
vertex $-1 $591 $761 #
point $-1 21.782655341197938 27.022020070266962 3.4474744618402573 #
coedge $-1 $711 $597 $717 $762 reversed $425 $-1 #
coedge $-1 $597 $710 $600 $715 reversed $425 $-1 #
edge $-1 $713 -32.952473719422734 $605 -18.792925756718169 $604 $763 forward 7 unknown #
vertex $-1 $762 $764 #
straight-curve $-1 58.825173457493186 -20.805127462110534 39.289613867193765 0 -0.82903756765294845 0.55919291073839883 I I #
edge $-1 $601 25.750385149643691 $719 31.615124696117793 $600 $765 forward 7 unknown #
point $-1 58.825173457493186 25.750385149643691 7.8875235107972443 #
coedge $-1 $604 $603 $710 $762 forward $595 $-1 #
point $-1 44.665625494788621 31.615124696117789 3.9317066628346637 #
vertex $-1 $608 $766 #
straight-curve $-1 0 31.615124696117793 7.8875235107972461 -1 0 0 I I #
vertex $-1 $611 $767 #
point $-1 50.211210626989924 27.022020070266962 3.4474744618402573 #
vertex $-1 $615 $768 #
point $-1 56.279588325291883 27.022020070266962 3.4474744618402573 #
straight-curve $-1 -66.847743156224254 31.615124696117793 0 0 0 -1 I I #
point $-1 -66.847743156224254 -31.615124696117793 -7.8875235107972461 #
straight-curve $-1 -66.847743156224254 0 -7.8875235107972461 0 1 0 I I #
point $-1 -66.847743156224254 31.615124696117793 -7.8875235107972461 #
coedge $-1 $637 $636 $730 $769 reversed $320 $-1 #
coedge $-1 $642 $638 $729 $769 forward $474 $-1 #
vertex $-1 $639 $770 #
straight-curve $-1 0 31.615124696117793 7.8875235107972461 -1 0 0 I I #
point $-1 -58.825173457493193 31.615124696117793 7.8875235107972461 #
vertex $-1 $769 $771 #
straight-curve $-1 0 -31.615124696117793 7.8875235107972461 1 0 0 I I #
straight-curve $-1 -66.847743156224254 -31.615124696117793 0 0 0 -1 I I #
straight-curve $-1 -66.847743156224254 31.615124696117793 0 0 0 -1 I I #
straight-curve $-1 58.8251734574932 -31.615124696117793 3.1937617553986231 0 0 -1 I I #
straight-curve $-1 0 -31.615124696117793 7.8875235107972461 1 0 0 I I #
straight-curve $-1 0 31.615124696117793 7.8875235107972461 -1 0 0 I I #
point $-1 58.8251734574932 -31.615124696117793 7.8875235107972461 #
straight-curve $-1 66.847743156224254 0 7.8875235107972461 0 1 0 I I #
point $-1 66.847743156224254 31.615124696117793 7.8875235107972461 #
point $-1 66.847743156224254 -31.615124696117793 7.8875235107972461 #
straight-curve $-1 0 31.615124696117793 7.8875235107972461 -1 0 0 I I #
straight-curve $-1 -58.825173457493186 31.615124696117793 75.064097322922066 0 0 1 I I #
point $-1 -58.825173457493193 31.615124696117793 7.8875235107972461 #
point $-1 -54.779588325291883 26.183230704159364 2.2039181103608358 #
point $-1 -48.711210626989931 26.183230704159364 2.2039181103608358 #
straight-curve $-1 -10.168692510694694 31.615124696117793 75.064097322922066 0 0 -1 I I #
point $-1 -10.168692510694694 31.615124696117793 7.8875235107972461 #
straight-curve $-1 -8.6242332460234863 31.615124696117796 3.9317066628346637 -1 0 0 I I #
point $-1 -10.168692510694694 31.615124696117789 3.9317066628346637 #
point $-1 -20.282655341197952 26.183230704159364 2.2039181103608358 #
point $-1 -14.214277642895993 26.183230704159364 2.2039181103608358 #
straight-curve $-1 24.328240473399237 31.615124696117793 75.064097322922066 0 0 -1 I I #
point $-1 24.328240473399237 31.615124696117793 7.8875235107972461 #
straight-curve $-1 8.6242332460234792 31.615124696117796 3.9317066628346637 -1 0 0 I I #
point $-1 24.328240473399237 31.615124696117789 3.9317066628346637 #
point $-1 14.214277642895979 26.183230704159364 2.2039181103608358 #
point $-1 20.282655341197938 26.183230704159364 2.2039181103608358 #
edge $-1 $719 67.176573812124815 $713 71.132390660087395 $717 $772 forward 7 unknown #
straight-curve $-1 25.872699738070452 31.615124696117796 3.9317066628346637 -1 0 0 I I #
point $-1 58.825173457493186 31.615124696117789 3.9317066628346637 #
straight-curve $-1 58.8251734574932 0 7.8875235107972461 0 1 0 I I #
point $-1 58.8251734574932 31.615124696117793 7.8875235107972461 #
point $-1 48.711210626989924 26.183230704159364 2.2039181103608358 #
point $-1 54.779588325291883 26.183230704159364 2.2039181103608358 #
edge $-1 $731 -31.615124696117793 $734 31.615124696117793 $729 $773 forward 7 unknown #
point $-1 -66.847743156224254 31.615124696117793 7.8875235107972461 #
point $-1 -66.847743156224254 -31.615124696117793 7.8875235107972461 #
straight-curve $-1 58.825173457493186 31.615124696117793 75.064097322922066 0 0 -1 I I #
straight-curve $-1 -66.847743156224254 0 7.8875235107972461 0 -1 0 I I #
End-of-ACIS-data 