500 0 9 0           
7 Unknown 11 ACIS 5.0 NT 24 Thu Mar 25 23:54:53 1999 
-1 9.9999999999999995e-007 1e-010 
body $-1 $9 $-1 $10 #
body $-1 $11 $-1 $12 #
body $-1 $13 $-1 $14 #
body $-1 $15 $-1 $16 #
body $-1 $17 $-1 $18 #
body $-1 $19 $-1 $20 #
body $-1 $21 $-1 $22 #
body $-1 $23 $-1 $24 #
body $-1 $25 $-1 $26 #
lump $-1 $-1 $27 $0 #
transform $-1 1 0 0 0 1 0 0 0 1 45.569017609179966 27.389528733459809 5.6880478873698328 1 rotate no_reflect no_shear #
lump $-1 $-1 $28 $1 #
transform $-1 1 0 0 0 1 0 0 0 1 45.569017609179966 27.389528733459809 5.6880478873698328 1 rotate no_reflect no_shear #
lump $-1 $-1 $29 $2 #
transform $-1 1 0 0 0 1 0 0 0 1 45.569017609179966 27.389528733459809 5.6880478873698328 1 rotate no_reflect no_shear #
lump $-1 $-1 $30 $3 #
transform $-1 1 0 0 0 1 0 0 0 1 45.569017609179966 27.389528733459809 5.6880478873698328 1 rotate no_reflect no_shear #
lump $-1 $-1 $31 $4 #
transform $-1 1 0 0 0 1 0 0 0 1 45.569017609179966 27.389528733459809 5.6880478873698328 1 rotate no_reflect no_shear #
lump $-1 $-1 $32 $5 #
transform $-1 1 0 0 0 1 0 0 0 1 45.569017609179966 27.389528733459809 5.6880478873698328 1 rotate no_reflect no_shear #
lump $-1 $-1 $33 $6 #
transform $-1 1 0 0 0 1 0 0 0 1 45.569017609179966 27.389528733459809 5.6880478873698328 1 rotate no_reflect no_shear #
lump $-1 $-1 $34 $7 #
transform $-1 1 0 0 0 1 0 0 0 1 45.569017609179966 27.389528733459809 5.6880478873698328 1 rotate no_reflect no_shear #
lump $-1 $-1 $35 $8 #
transform $-1 1 0 0 0 1 0 0 0 1 45.569017609179966 27.389528733459809 5.6880478873698328 1 rotate no_reflect no_shear #
shell $-1 $-1 $-1 $36 $-1 $9 #
shell $-1 $-1 $-1 $37 $-1 $11 #
shell $-1 $-1 $-1 $38 $-1 $13 #
shell $-1 $-1 $-1 $39 $-1 $15 #
shell $-1 $-1 $-1 $40 $-1 $17 #
shell $-1 $-1 $-1 $41 $-1 $19 #
shell $-1 $-1 $-1 $42 $-1 $21 #
shell $-1 $-1 $-1 $43 $-1 $23 #
shell $-1 $-1 $-1 $44 $-1 $25 #
face $-1 $45 $46 $27 $-1 $47 forward single #
face $-1 $48 $49 $28 $-1 $50 forward single #
face $-1 $51 $52 $29 $-1 $53 reversed single #
face $-1 $54 $55 $30 $-1 $56 forward single #
face $-1 $57 $58 $31 $-1 $59 forward single #
face $-1 $60 $61 $32 $-1 $62 forward single #
face $-1 $63 $64 $33 $-1 $65 reversed single #
face $-1 $66 $67 $34 $-1 $68 forward single #
face $-1 $69 $70 $35 $-1 $71 forward single #
face $-1 $72 $73 $27 $-1 $74 reversed single #
loop $-1 $-1 $75 $36 #
plane-surface $-1 0 0 5.6880478873698328 0 0 1 1 0 0 forward_v I I I I #
face $-1 $76 $77 $28 $-1 $78 reversed single #
loop $-1 $-1 $79 $37 #
plane-surface $-1 0 -27.389528733459809 0 0 1 0 0 0 1 forward_v I I I I #
face $-1 $80 $81 $29 $-1 $82 reversed single #
loop $-1 $-1 $83 $38 #
plane-surface $-1 -96.532760801913355 -10.08000567586919 77.132587446331755 0 1 0 -0.55919291073839883 0 0.82903756765294845 forward_v I I I I #
face $-1 $84 $85 $30 $-1 $86 forward single #
loop $-1 $87 $88 $39 #
cone-surface $-1 -42.207716889313566 -7.842049745444946 3.1679648540649774 0.55919291073839883 0 -0.82903756765294845 0.41451878382647422 0 0.27959645536919941 1 I I 0 1 0.5 forward I I I I #
face $-1 $89 $90 $31 $-1 $91 forward single #
loop $-1 $92 $93 $40 #
cone-surface $-1 -42.207716889313566 -4.4851158498085759 3.1679648540649774 0.55919291073839883 0 -0.82903756765294845 0.41451878382647422 0 0.27959645536919941 1 I I 0 1 0.5 forward I I I I #
face $-1 $94 $95 $32 $-1 $96 forward single #
loop $-1 $97 $98 $41 #
cone-surface $-1 -42.207716889313566 -1.1281819541722093 3.1679648540649774 0.55919291073839883 0 -0.82903756765294845 0.41451878382647422 0 0.27959645536919941 1 I I 0 1 0.5 forward I I I I #
face $-1 $99 $100 $33 $-1 $101 reversed single #
loop $-1 $-1 $102 $42 #
plane-surface $-1 18.771562478350504 16.68490948748876 126.42109734479314 0 1 0 0.54463904215088732 0 0.83867056331134215 forward_v I I I I #
face $-1 $103 $104 $34 $-1 $105 forward single #
loop $-1 $106 $107 $43 #
cone-surface $-1 40.256217979884518 19.743372129194771 1.1674778164873838 -0.54463904215088732 0 -0.83867056331134215 1.2580058449670133 0 -0.81695856322633098 1 I I 0 1 1.5 forward I I I I #
face $-1 $108 $109 $35 $-1 $110 forward single #
loop $-1 $111 $112 $44 #
cone-surface $-1 40.256217979884518 24.331066091753794 1.1674778164873838 -0.54463904215088732 0 -0.83867056331134215 1.2580058449670133 0 -0.81695856322633098 1 I I 0 1 1.5 forward I I I I #
face $-1 $113 $114 $27 $-1 $115 reversed single #
loop $-1 $-1 $116 $45 #
plane-surface $-1 0 0 -5.6880478873698328 0 0 1 1 0 0 forward_v I I I I #
coedge $-1 $117 $118 $119 $120 forward $46 $-1 #
face $-1 $121 $122 $28 $-1 $123 reversed single #
loop $-1 $-1 $124 $48 #
plane-surface $-1 0 0 -5.6880478873698328 0 0 1 1 0 0 forward_v I I I I #
coedge $-1 $125 $126 $127 $128 forward $49 $-1 #
face $-1 $129 $130 $29 $-1 $131 reversed single #
loop $-1 $-1 $132 $51 #
plane-surface $-1 -45.569017609179959 -4.4851158498085759 1.5757324082338897 -0.55919291073839883 0 0.82903756765294845 0.82903756765294845 0 0.55919291073839883 forward_v I I I I #
coedge $-1 $133 $134 $135 $136 reversed $52 $-1 #
face $-1 $-1 $137 $30 $-1 $138 forward single #
loop $-1 $139 $140 $54 #
cone-surface $-1 -41.754997093907569 -7.842049745444946 2.4967801684148592 0.55919291073839883 0 -0.82903756765294845 0.20725939191323711 0 0.13979822768459971 1 I I -0.70710678118654746 0.70710678118654746 0.25 forward I I I I #
loop $-1 $-1 $141 $39 #
coedge $-1 $88 $88 $142 $143 reversed $55 $-1 #
face $-1 $-1 $144 $31 $-1 $145 forward single #
loop $-1 $146 $147 $57 #
cone-surface $-1 -41.754997093907569 -4.4851158498085759 2.4967801684148592 0.55919291073839883 0 -0.82903756765294845 0.20725939191323711 0 0.13979822768459971 1 I I -0.70710678118654746 0.70710678118654746 0.25 forward I I I I #
loop $-1 $-1 $148 $40 #
coedge $-1 $93 $93 $149 $150 reversed $58 $-1 #
face $-1 $-1 $151 $32 $-1 $152 forward single #
loop $-1 $153 $154 $60 #
cone-surface $-1 -41.754997093907569 -1.1281819541722093 2.4967801684148592 0.55919291073839883 0 -0.82903756765294845 0.20725939191323711 0 0.13979822768459971 1 I I -0.70710678118654746 0.70710678118654746 0.25 forward I I I I #
loop $-1 $-1 $155 $41 #
coedge $-1 $98 $98 $156 $157 reversed $61 $-1 #
face $-1 $158 $159 $33 $-1 $160 reversed single #
loop $-1 $-1 $161 $63 #
plane-surface $-1 -30.865769726490882 22.037219110474286 49.986310009122278 0.54463904215088732 0 0.83867056331134215 0.83867056331134215 0 -0.54463904215088732 forward_v I I I I #
coedge $-1 $162 $163 $164 $165 reversed $64 $-1 #
face $-1 $-1 $166 $34 $-1 $167 forward single #
loop $-1 $168 $169 $66 #
cone-surface $-1 38.645662472553013 19.743372129194771 -1.3125601353340874 -0.54463904215088732 0 -0.83867056331134215 0.62900292248350664 0 -0.40847928161316549 1 I I -0.70710678118654757 0.70710678118654757 0.75 forward I I I I #
loop $-1 $-1 $170 $43 #
coedge $-1 $107 $107 $171 $172 reversed $67 $-1 #
face $-1 $-1 $173 $35 $-1 $174 forward single #
loop $-1 $175 $176 $69 #
cone-surface $-1 38.645662472553013 24.331066091753794 -1.3125601353340874 -0.54463904215088732 0 -0.83867056331134215 0.62900292248350664 0 -0.40847928161316549 1 I I -0.70710678118654757 0.70710678118654757 0.75 forward I I I I #
loop $-1 $-1 $177 $44 #
coedge $-1 $112 $112 $178 $179 reversed $70 $-1 #
face $-1 $180 $181 $27 $-1 $182 reversed single #
loop $-1 $-1 $183 $72 #
plane-surface $-1 0 -27.389528733459809 0 0 1 0 0 0 1 forward_v I I I I #
coedge $-1 $184 $185 $186 $187 forward $73 $-1 #
coedge $-1 $188 $75 $189 $190 forward $46 $-1 #
coedge $-1 $75 $188 $191 $192 forward $46 $-1 #
coedge $-1 $193 $194 $75 $120 reversed $195 $-1 #
edge $-1 $196 -27.389528733459809 $197 27.389528733459809 $119 $198 forward 7 unknown #
face $-1 $199 $200 $28 $-1 $201 reversed single #
loop $-1 $-1 $202 $76 #
plane-surface $-1 -35.692921834440298 -31.991572099538946 0 0 1 0 0 0 1 forward_v I I I I #
coedge $-1 $203 $204 $126 $205 forward $77 $-1 #
coedge $-1 $206 $79 $207 $208 reversed $49 $-1 #
coedge $-1 $79 $206 $124 $205 reversed $49 $-1 #
coedge $-1 $209 $210 $79 $128 reversed $200 $-1 #
edge $-1 $211 -5.6880478873698328 $212 5.6880478873698328 $127 $213 forward 7 unknown #
face $-1 $214 $215 $29 $-1 $216 reversed single #
loop $-1 $-1 $217 $80 #
plane-surface $-1 -96.532760801913355 1.109773976252038 77.132587446331755 0 -1 0 0.55919291073839883 0 -0.82903756765294845 forward_v I I I I #
coedge $-1 $218 $219 $220 $221 reversed $81 $-1 #
coedge $-1 $134 $83 $222 $223 reversed $52 $-1 #
coedge $-1 $83 $133 $218 $224 reversed $52 $-1 #
coedge $-1 $220 $225 $83 $136 forward $226 $-1 #
edge $-1 $227 2.6973627917767118 $228 8.7941210960667178 $135 $229 forward 7 unknown #
loop $-1 $-1 $142 $84 #
plane-surface $-1 -45.569017609179959 -4.4851158498085759 1.5757324082338897 -0.55919291073839883 0 0.82903756765294845 0.82903756765294845 0 0.55919291073839883 forward_v I I I I #
loop $-1 $-1 $230 $54 #
coedge $-1 $140 $140 $141 $231 reversed $85 $-1 #
coedge $-1 $141 $141 $140 $231 forward $87 $-1 #
coedge $-1 $142 $142 $88 $143 forward $137 $-1 #
edge $-1 $232 0 $232 6.2831853071796004 $142 $233 forward 7 unknown #
loop $-1 $-1 $149 $89 #
plane-surface $-1 -45.569017609179959 -4.4851158498085759 1.5757324082338897 -0.55919291073839883 0 0.82903756765294845 0.82903756765294845 0 0.55919291073839883 forward_v I I I I #
loop $-1 $-1 $234 $57 #
coedge $-1 $147 $147 $148 $235 reversed $90 $-1 #
coedge $-1 $148 $148 $147 $235 forward $92 $-1 #
coedge $-1 $149 $149 $93 $150 forward $144 $-1 #
edge $-1 $236 0 $236 6.2831853071796004 $149 $237 forward 7 unknown #
loop $-1 $-1 $156 $94 #
plane-surface $-1 -45.569017609179959 -4.4851158498085759 1.5757324082338897 -0.55919291073839883 0 0.82903756765294845 0.82903756765294845 0 0.55919291073839883 forward_v I I I I #
loop $-1 $-1 $238 $60 #
coedge $-1 $154 $154 $155 $239 reversed $95 $-1 #
coedge $-1 $155 $155 $154 $239 forward $97 $-1 #
coedge $-1 $156 $156 $98 $157 forward $151 $-1 #
edge $-1 $240 0 $240 6.2831853071796004 $156 $241 forward 7 unknown #
face $-1 $242 $243 $33 $-1 $244 forward single #
loop $-1 $-1 $245 $99 #
plane-surface $-1 0 27.389528733459809 0 0 -1 0 0 0 -1 forward_v I I I I #
coedge $-1 $246 $247 $248 $249 reversed $100 $-1 #
coedge $-1 $163 $102 $250 $251 reversed $64 $-1 #
coedge $-1 $102 $162 $246 $252 reversed $64 $-1 #
coedge $-1 $248 $253 $102 $165 forward $254 $-1 #
edge $-1 $255 57.522500785026736 $256 62.86157086811567 $164 $257 forward 7 unknown #
loop $-1 $-1 $171 $103 #
plane-surface $-1 -30.865769726490882 22.037219110474286 49.986310009122278 0.54463904215088732 0 0.83867056331134215 0.83867056331134215 0 -0.54463904215088732 forward_v I I I I #
loop $-1 $-1 $258 $66 #
coedge $-1 $169 $169 $170 $259 reversed $104 $-1 #
coedge $-1 $170 $170 $169 $259 forward $106 $-1 #
coedge $-1 $171 $171 $107 $172 forward $166 $-1 #
edge $-1 $260 0 $260 6.2831853071796004 $171 $261 forward 7 unknown #
loop $-1 $-1 $178 $108 #
plane-surface $-1 -30.865769726490882 22.037219110474286 49.986310009122278 0.54463904215088732 0 0.83867056331134215 0.83867056331134215 0 -0.54463904215088732 forward_v I I I I #
loop $-1 $-1 $262 $69 #
coedge $-1 $176 $176 $177 $263 reversed $109 $-1 #
coedge $-1 $177 $177 $176 $263 forward $111 $-1 #
coedge $-1 $178 $178 $112 $179 forward $173 $-1 #
edge $-1 $264 0 $264 6.2831853071796004 $178 $265 forward 7 unknown #
face $-1 $266 $267 $27 $-1 $268 reversed single #
loop $-1 $-1 $269 $113 #
plane-surface $-1 -45.569017609179966 0 0 1 0 0 0 0 -1 forward_v I I I I #
coedge $-1 $270 $191 $271 $272 forward $114 $-1 #
coedge $-1 $273 $116 $270 $274 forward $73 $-1 #
coedge $-1 $116 $273 $275 $276 forward $73 $-1 #
coedge $-1 $194 $193 $116 $187 reversed $195 $-1 #
edge $-1 $277 -27.389528733459809 $278 27.389528733459809 $186 $279 forward 7 unknown #
coedge $-1 $118 $117 $280 $281 forward $46 $-1 #
coedge $-1 $282 $283 $117 $190 reversed $267 $-1 #
edge $-1 $197 -45.569017609179966 $284 45.569017609179966 $189 $285 forward 7 unknown #
coedge $-1 $183 $286 $118 $192 reversed $114 $-1 #
edge $-1 $287 -45.569017609179966 $196 45.569017609179966 $191 $288 forward 7 unknown #
coedge $-1 $186 $119 $286 $289 forward $195 $-1 #
coedge $-1 $119 $186 $282 $290 reversed $195 $-1 #
loop $-1 $-1 $193 $266 #
vertex $-1 $120 $291 #
vertex $-1 $120 $292 #
straight-curve $-1 45.569017609179966 0 5.6880478873698328 0 1 0 I I #
face $-1 $293 $294 $28 $-1 $295 reversed single #
loop $-1 $-1 $127 $121 #
plane-surface $-1 -37.192921834440298 -29.690550416499377 0 1 0 0 0 0 -1 forward_v I I I I #
coedge $-1 $296 $297 $298 $299 forward $122 $-1 #
coedge $-1 $300 $124 $301 $302 forward $77 $-1 #
coedge $-1 $124 $300 $209 $303 forward $77 $-1 #
edge $-1 $211 -37.192921834440298 $304 -34.192921834440298 $124 $305 forward 7 unknown #
coedge $-1 $126 $125 $306 $307 forward $49 $-1 #
coedge $-1 $308 $309 $125 $208 forward $310 $-1 #
edge $-1 $311 34.192921834440298 $212 37.192921834440298 $207 $312 forward 7 unknown #
coedge $-1 $298 $127 $204 $303 reversed $200 $-1 #
coedge $-1 $127 $298 $308 $313 reversed $200 $-1 #
vertex $-1 $205 $314 #
vertex $-1 $313 $315 #
straight-curve $-1 -37.192921834440298 -27.389528733459809 0 0 0 1 I I #
face $-1 $-1 $226 $29 $-1 $316 forward single #
loop $-1 $-1 $317 $129 #
plane-surface $-1 -45.569017609179966 0 0 1 0 0 0 0 -1 forward_v I I I I #
coedge $-1 $318 $319 $320 $321 reversed $130 $-1 #
coedge $-1 $322 $132 $134 $224 forward $81 $-1 #
coedge $-1 $132 $322 $318 $323 forward $81 $-1 #
coedge $-1 $320 $135 $132 $221 forward $226 $-1 #
edge $-1 $228 -7.8374477509649019 $324 3.352331901156326 $220 $325 forward 7 unknown #
coedge $-1 $326 $327 $133 $223 forward $215 $-1 #
edge $-1 $328 -36.990561314931995 $227 -32.878245835796044 $222 $329 forward 7 unknown #
edge $-1 $228 -7.3540193378090963 $328 8.6223131303995443e-015 $134 $330 forward 7 unknown #
coedge $-1 $135 $320 $326 $331 forward $226 $-1 #
loop $-1 $-1 $320 $214 #
vertex $-1 $223 $332 #
vertex $-1 $136 $333 #
straight-curve $-1 -48.266380400956677 -10.08000567586919 5.6880478873698337 1 0 0 I I #
coedge $-1 $230 $230 $-1 $334 reversed $139 $-1 #
edge $-1 $335 0 $335 6.2831853071796004 $140 $336 forward 7 unknown #
vertex $-1 $143 $337 #
ellipse-curve $-1 -42.520638457034963 -7.842049745444946 3.6318901478018581 -0.55919291073839883 0 0.82903756765294845 0.41451878382647422 0 0.27959645536919941 1 I I #
coedge $-1 $234 $234 $-1 $338 reversed $146 $-1 #
edge $-1 $339 0 $339 6.2831853071796004 $147 $340 forward 7 unknown #
vertex $-1 $150 $341 #
ellipse-curve $-1 -42.520638457034963 -4.4851158498085759 3.6318901478018581 -0.55919291073839883 0 0.82903756765294845 0.41451878382647422 0 0.27959645536919941 1 I I #
coedge $-1 $238 $238 $-1 $342 reversed $153 $-1 #
edge $-1 $343 0 $343 6.2831853071796004 $154 $344 forward 7 unknown #
vertex $-1 $157 $345 #
ellipse-curve $-1 -42.520638457034963 -1.1281819541722093 3.6318901478018581 -0.55919291073839883 0 0.82903756765294845 0.41451878382647422 0 0.27959645536919941 1 I I #
face $-1 $-1 $254 $33 $-1 $346 reversed single #
loop $-1 $-1 $347 $158 #
plane-surface $-1 0 0 5.6880478873698328 0 0 1 1 0 0 forward_v I I I I #
coedge $-1 $348 $349 $247 $350 forward $159 $-1 #
coedge $-1 $351 $161 $163 $252 forward $100 $-1 #
coedge $-1 $161 $351 $245 $350 reversed $100 $-1 #
coedge $-1 $352 $164 $161 $249 forward $254 $-1 #
edge $-1 $256 5.6662999322516168 $353 16.370919178222664 $248 $354 forward 7 unknown #
coedge $-1 $355 $347 $162 $251 forward $243 $-1 #
edge $-1 $356 27.961789562850534 $255 36.183236370004714 $250 $357 forward 7 unknown #
edge $-1 $256 -91.138035218359917 $356 -81.335083777339662 $163 $358 forward 7 unknown #
coedge $-1 $164 $352 $355 $359 reversed $254 $-1 #
loop $-1 $-1 $248 $242 #
vertex $-1 $359 $360 #
vertex $-1 $165 $361 #
straight-curve $-1 45.569017609179966 16.68490948748876 63.21054867239657 0 0 -1 I I #
coedge $-1 $258 $258 $-1 $362 reversed $168 $-1 #
edge $-1 $363 0 $363 6.2831853071796004 $169 $364 forward 7 unknown #
vertex $-1 $172 $365 #
ellipse-curve $-1 41.458294205602868 19.743372129194771 3.0185128458253736 0.54463904215088732 0 0.83867056331134215 1.2580058449670133 0 -0.81695856322633098 1 I I #
coedge $-1 $262 $262 $-1 $366 reversed $175 $-1 #
edge $-1 $367 0 $367 6.2831853071796004 $176 $368 forward 7 unknown #
vertex $-1 $179 $369 #
ellipse-curve $-1 41.458294205602868 24.331066091753794 3.0185128458253736 0.54463904215088732 0 0.83867056331134215 1.2580058449670133 0 -0.81695856322633098 1 I I #
face $-1 $-1 $195 $27 $-1 $370 reversed single #
loop $-1 $-1 $282 $180 #
plane-surface $-1 0 27.389528733459809 0 0 -1 0 0 0 -1 forward_v I I I I #
coedge $-1 $371 $280 $283 $372 forward $181 $-1 #
coedge $-1 $286 $183 $184 $274 reversed $114 $-1 #
coedge $-1 $280 $371 $183 $272 reversed $181 $-1 #
edge $-1 $287 -5.6880478873698328 $373 5.6880478873698328 $271 $374 forward 7 unknown #
coedge $-1 $185 $184 $371 $375 forward $73 $-1 #
edge $-1 $278 -45.569017609179966 $373 45.569017609179966 $270 $376 forward 7 unknown #
coedge $-1 $283 $282 $185 $276 reversed $267 $-1 #
edge $-1 $377 -45.569017609179966 $277 45.569017609179966 $275 $378 forward 7 unknown #
vertex $-1 $187 $379 #
vertex $-1 $289 $380 #
straight-curve $-1 45.569017609179966 0 -5.6880478873698328 0 -1 0 I I #
coedge $-1 $269 $271 $188 $281 reversed $181 $-1 #
edge $-1 $284 -27.389528733459809 $287 27.389528733459809 $280 $381 forward 7 unknown #
coedge $-1 $275 $189 $194 $290 forward $267 $-1 #
coedge $-1 $189 $275 $269 $372 reversed $267 $-1 #
vertex $-1 $190 $382 #
straight-curve $-1 0 27.389528733459809 5.6880478873698328 -1 0 0 I I #
coedge $-1 $191 $270 $193 $289 reversed $114 $-1 #
vertex $-1 $281 $383 #
straight-curve $-1 0 -27.389528733459809 5.6880478873698328 1 0 0 I I #
edge $-1 $196 -5.6880478873698328 $278 5.6880478873698328 $193 $384 forward 7 unknown #
edge $-1 $197 -5.6880478873698328 $277 5.6880478873698328 $194 $385 forward 7 unknown #
point $-1 45.569017609179966 -27.389528733459809 5.6880478873698328 #
point $-1 45.569017609179966 27.389528733459809 5.6880478873698328 #
face $-1 $-1 $310 $28 $-1 $386 forward single #
loop $-1 $-1 $387 $199 #
plane-surface $-1 -34.192921834440298 -29.690550416499377 0 -1 0 0 0 0 1 forward_v I I I I #
coedge $-1 $388 $202 $300 $389 reversed $122 $-1 #
coedge $-1 $202 $388 $390 $391 reversed $122 $-1 #
coedge $-1 $210 $209 $202 $299 reversed $200 $-1 #
edge $-1 $392 -5.6880478873698328 $393 5.6880478873698328 $298 $394 forward 7 unknown #
coedge $-1 $204 $203 $296 $389 forward $77 $-1 #
coedge $-1 $306 $387 $203 $302 reversed $294 $-1 #
edge $-1 $304 -2.3010216830395684 $395 2.3010216830395684 $301 $396 forward 7 unknown #
edge $-1 $393 -2.3010216830395684 $211 2.3010216830395684 $209 $397 forward 7 unknown #
vertex $-1 $302 $398 #
straight-curve $-1 0 -27.389528733459809 -5.6880478873698328 1 0 0 I I #
coedge $-1 $399 $301 $206 $307 reversed $294 $-1 #
edge $-1 $311 -5.6880478873698328 $304 5.6880478873698328 $306 $400 forward 7 unknown #
coedge $-1 $390 $207 $210 $313 forward $310 $-1 #
coedge $-1 $207 $390 $399 $401 forward $310 $-1 #
loop $-1 $-1 $207 $293 #
vertex $-1 $208 $402 #
straight-curve $-1 0 -27.389528733459809 5.6880478873698328 -1 0 0 I I #
edge $-1 $212 -2.3010216830395684 $392 2.3010216830395684 $210 $403 forward 7 unknown #
point $-1 -37.192921834440298 -27.389528733459809 -5.6880478873698328 #
point $-1 -37.192921834440298 -27.389528733459809 5.6880478873698328 #
plane-surface $-1 0 0 5.6880478873698328 0 0 1 1 0 0 forward_v I I I I #
coedge $-1 $327 $326 $319 $404 forward $215 $-1 #
coedge $-1 $319 $217 $219 $323 reversed $130 $-1 #
coedge $-1 $217 $318 $317 $404 reversed $130 $-1 #
coedge $-1 $225 $220 $217 $321 forward $226 $-1 #
edge $-1 $324 -8.7941210960667178 $405 -2.6973627917767118 $320 $406 forward 7 unknown #
coedge $-1 $219 $218 $327 $407 reversed $81 $-1 #
edge $-1 $408 -8.6223131303995443e-015 $324 7.3540193378090963 $318 $409 forward 7 unknown #
vertex $-1 $221 $410 #
straight-curve $-1 -39.47225930488996 -2.242557924904288 5.6880478873698328 0 1 0 I I #
coedge $-1 $317 $222 $225 $331 reversed $215 $-1 #
coedge $-1 $222 $317 $322 $407 forward $215 $-1 #
vertex $-1 $223 $411 #
straight-curve $-1 -45.569017609179966 -10.08000567586919 38.566293723165877 0 0 1 I I #
straight-curve $-1 -45.569017609179959 -10.08000567586919 1.5757324082338897 -0.82903756765294845 0 -0.55919291073839883 I I #
edge $-1 $405 -1.109773976252038 $227 10.08000567586919 $326 $412 forward 7 unknown #
point $-1 -45.569017609179966 -10.08000567586919 5.6880478873698328 #
point $-1 -39.47225930488996 -10.08000567586919 5.6880478873698328 #
edge $-1 $413 1 $413 0 $230 $-1 forward 7 unknown #
vertex $-1 $231 $414 #
ellipse-curve $-1 -41.89479532159217 -7.842049745444946 2.7040395603280962 -0.55919291073839883 0 0.82903756765294845 0.41451878382647422 0 0.27959645536919941 1 I I #
point $-1 -42.106119673208482 -7.842049745444946 3.9114866031710576 #
edge $-1 $415 1 $415 0 $234 $-1 forward 7 unknown #
vertex $-1 $235 $416 #
ellipse-curve $-1 -41.89479532159217 -4.4851158498085759 2.7040395603280962 -0.55919291073839883 0 0.82903756765294845 0.41451878382647422 0 0.27959645536919941 1 I I #
point $-1 -42.106119673208482 -4.4851158498085759 3.9114866031710576 #
edge $-1 $417 1 $417 0 $238 $-1 forward 7 unknown #
vertex $-1 $239 $418 #
ellipse-curve $-1 -41.89479532159217 -1.1281819541722093 2.7040395603280962 -0.55919291073839883 0 0.82903756765294845 0.41451878382647422 0 0.27959645536919941 1 I I #
point $-1 -42.106119673208482 -1.1281819541722093 3.9114866031710576 #
plane-surface $-1 45.569017609179966 0 0 -1 0 0 0 0 1 forward_v I I I I #
coedge $-1 $250 $419 $351 $420 forward $243 $-1 #
coedge $-1 $349 $245 $419 $421 reversed $159 $-1 #
coedge $-1 $245 $348 $352 $422 forward $159 $-1 #
edge $-1 $353 -64.582680974569925 $423 -54.779729533549684 $245 $424 forward 7 unknown #
coedge $-1 $247 $246 $347 $420 reversed $100 $-1 #
coedge $-1 $253 $248 $349 $422 reversed $254 $-1 #
vertex $-1 $249 $425 #
straight-curve $-1 45.569017609179966 11.018609555237143 0.34897780428090641 0 1 0 I I #
coedge $-1 $419 $250 $253 $359 forward $243 $-1 #
vertex $-1 $251 $426 #
straight-curve $-1 9.3857812391752518 16.68490948748876 5.6880478873698337 1 0 0 I I #
straight-curve $-1 -30.865769726490882 16.68490948748876 49.986310009122278 -0.83867056331134215 0 0.54463904215088732 I I #
edge $-1 $255 16.68490948748876 $427 27.389528733459809 $253 $428 forward 7 unknown #
point $-1 45.569017609179966 16.68490948748876 5.6880478873698328 #
point $-1 45.569017609179966 16.68490948748876 0.34897780428089931 #
edge $-1 $429 1 $429 0 $258 $-1 forward 7 unknown #
vertex $-1 $259 $430 #
ellipse-curve $-1 39.054141754166181 19.743372129194771 -0.6835572128505808 0.54463904215088732 0 0.83867056331134215 1.2580058449670133 0 -0.81695856322633098 1 I I #
point $-1 42.716300050569863 19.743372129194771 2.2015542825990178 #
edge $-1 $431 1 $431 0 $262 $-1 forward 7 unknown #
vertex $-1 $263 $432 #
ellipse-curve $-1 39.054141754166181 24.331066091753794 -0.6835572128505808 0.54463904215088732 0 0.83867056331134215 1.2580058449670133 0 -0.81695856322633098 1 I I #
point $-1 42.716300050569863 24.331066091753794 2.2015542825990178 #
plane-surface $-1 45.569017609179966 0 0 -1 0 0 0 0 1 forward_v I I I I #
coedge $-1 $271 $269 $273 $375 reversed $181 $-1 #
edge $-1 $284 -5.6880478873698328 $377 5.6880478873698328 $283 $433 forward 7 unknown #
vertex $-1 $375 $434 #
straight-curve $-1 -45.569017609179966 -27.389528733459809 0 0 0 -1 I I #
edge $-1 $373 -27.389528733459809 $377 27.389528733459809 $371 $435 forward 7 unknown #
straight-curve $-1 0 -27.389528733459809 -5.6880478873698328 -1 0 0 I I #
vertex $-1 $276 $436 #
straight-curve $-1 0 27.389528733459809 -5.6880478873698328 1 0 0 I I #
point $-1 45.569017609179966 27.389528733459809 -5.6880478873698328 #
point $-1 45.569017609179966 -27.389528733459809 -5.6880478873698328 #
straight-curve $-1 -45.569017609179966 0 5.6880478873698328 0 -1 0 I I #
point $-1 -45.569017609179966 27.389528733459809 5.6880478873698328 #
point $-1 -45.569017609179966 -27.389528733459809 5.6880478873698328 #
straight-curve $-1 45.569017609179966 -27.389528733459809 0 0 0 -1 I I #
straight-curve $-1 45.569017609179966 27.389528733459809 0 0 0 -1 I I #
plane-surface $-1 0 0 5.6880478873698328 0 0 1 1 0 0 forward_v I I I I #
coedge $-1 $301 $399 $388 $437 forward $294 $-1 #
coedge $-1 $297 $296 $387 $437 reversed $122 $-1 #
edge $-1 $395 -1.5 $393 1.5 $296 $438 forward 7 unknown #
coedge $-1 $309 $308 $297 $391 forward $310 $-1 #
edge $-1 $392 -1.5 $439 1.5 $297 $440 forward 7 unknown #
vertex $-1 $313 $441 #
vertex $-1 $303 $442 #
straight-curve $-1 -37.192921834440298 -31.991572099538946 0 0 0 -1 I I #
vertex $-1 $437 $443 #
straight-curve $-1 -34.192921834440298 -29.690550416499377 -5.6880478873698328 0 -1 0 I I #
straight-curve $-1 -37.192921834440298 -29.690550416499377 -5.6880478873698328 0 1 0 I I #
point $-1 -34.192921834440298 -27.389528733459809 -5.6880478873698328 #
coedge $-1 $387 $306 $309 $401 reversed $294 $-1 #
straight-curve $-1 -34.192921834440298 -27.389528733459809 0 0 0 -1 I I #
edge $-1 $439 -2.3010216830395684 $311 2.3010216830395684 $399 $444 forward 7 unknown #
point $-1 -34.192921834440298 -27.389528733459809 5.6880478873698328 #
straight-curve $-1 -37.192921834440298 -29.690550416499377 5.6880478873698328 0 -1 0 I I #
edge $-1 $405 32.878245835796044 $408 36.990561314931995 $317 $445 forward 7 unknown #
vertex $-1 $331 $446 #
straight-curve $-1 -48.266380400956677 1.109773976252038 5.6880478873698337 -1 0 0 I I #
edge $-1 $408 -3.352331901156326 $328 7.8374477509649019 $327 $447 forward 7 unknown #
vertex $-1 $407 $448 #
straight-curve $-1 -45.569017609179959 1.109773976252038 1.5757324082338897 0.82903756765294845 0 0.55919291073839883 I I #
point $-1 -39.47225930488996 1.109773976252038 5.6880478873698328 #
point $-1 -45.569017609179966 -10.08000567586919 1.5757324082338848 #
straight-curve $-1 -45.569017609179966 0 5.6880478873698328 0 -1 0 I I #
vertex $-1 $334 $449 #
point $-1 -41.480276537765697 -7.842049745444946 2.9836360156972956 #
vertex $-1 $338 $450 #
point $-1 -41.480276537765697 -4.4851158498085759 2.9836360156972956 #
vertex $-1 $342 $451 #
point $-1 -41.480276537765697 -1.1281819541722093 2.9836360156972956 #
coedge $-1 $347 $355 $348 $421 forward $243 $-1 #
edge $-1 $423 -16.370919178222671 $356 -5.6662999322516168 $347 $452 forward 7 unknown #
edge $-1 $427 -45.569017609179966 $423 -37.347570802025785 $348 $453 forward 7 unknown #
edge $-1 $427 -5.6880478873698328 $353 -0.34897780428090558 $352 $454 forward 7 unknown #
vertex $-1 $420 $455 #
straight-curve $-1 -8.5945758239193033 27.389528733459809 35.523227309807005 -0.83867056331134215 0 0.54463904215088732 I I #
point $-1 45.569017609179966 27.389528733459809 0.34897780428090558 #
point $-1 37.347570802025785 16.68490948748876 5.6880478873698266 #
vertex $-1 $359 $456 #
straight-curve $-1 45.569017609179966 0 5.6880478873698328 0 1 0 I I #
vertex $-1 $362 $457 #
point $-1 40.312147599133191 19.743372129194771 -1.5005157760769117 #
vertex $-1 $366 $458 #
point $-1 40.312147599133191 24.331066091753794 -1.5005157760769117 #
straight-curve $-1 -45.569017609179966 27.389528733459809 0 0 0 -1 I I #
point $-1 -45.569017609179966 -27.389528733459809 -5.6880478873698328 #
straight-curve $-1 -45.569017609179966 0 -5.6880478873698328 0 1 0 I I #
point $-1 -45.569017609179966 27.389528733459809 -5.6880478873698328 #
edge $-1 $439 -5.6880478873698328 $395 5.6880478873698328 $387 $459 forward 7 unknown #
straight-curve $-1 -35.692921834440298 -31.991572099538946 -5.6880478873698328 -1 0 0 I I #
vertex $-1 $401 $460 #
straight-curve $-1 -35.692921834440298 -31.991572099538946 5.6880478873698328 1 0 0 I I #
point $-1 -37.192921834440298 -31.991572099538946 5.6880478873698328 #
point $-1 -37.192921834440298 -31.991572099538946 -5.6880478873698328 #
point $-1 -34.192921834440298 -31.991572099538946 -5.6880478873698328 #
straight-curve $-1 -34.192921834440298 -29.690550416499377 5.6880478873698328 0 1 0 I I #
straight-curve $-1 -45.569017609179966 1.109773976252038 38.566293723165877 0 0 -1 I I #
point $-1 -45.569017609179966 1.109773976252038 5.6880478873698328 #
straight-curve $-1 -45.569017609179966 -2.242557924904288 1.5757324082338855 0 -1 0 I I #
point $-1 -45.569017609179966 1.109773976252038 1.5757324082338848 #
point $-1 -41.615198866222968 -7.842049745444946 2.2895207765016221 #
point $-1 -41.615198866222968 -4.4851158498085759 2.2895207765016221 #
point $-1 -41.615198866222968 -1.1281819541722093 2.2895207765016221 #
straight-curve $-1 37.347570802025771 11.018609555237143 5.6880478873698301 0 -1 0 I I #
straight-curve $-1 0 27.389528733459809 5.6880478873698328 -1 0 0 I I #
straight-curve $-1 45.569017609179966 27.389528733459809 0 0 0 -1 I I #
point $-1 37.347570802025785 27.389528733459812 5.6880478873698266 #
point $-1 45.569017609179966 27.389528733459809 5.6880478873698328 #
point $-1 38.237183190939845 19.743372129194771 -1.9415630578175942 #
point $-1 38.237183190939845 24.331066091753794 -1.9415630578175942 #
straight-curve $-1 -34.192921834440298 -31.991572099538946 0 0 0 -1 I I #
point $-1 -34.192921834440298 -31.991572099538946 5.6880478873698328 #
End-of-ACIS-data 