500 0 10 0           
7 Unknown 11 ACIS 5.0 NT 24 Thu Mar 25 18:19:27 1999 
-1 9.9999999999999995e-007 1e-010 
body $-1 $10 $-1 $11 #
body $-1 $12 $-1 $13 #
body $-1 $14 $-1 $15 #
body $-1 $16 $-1 $17 #
body $-1 $18 $-1 $19 #
body $-1 $20 $-1 $21 #
body $-1 $22 $-1 $23 #
body $-1 $24 $-1 $25 #
body $-1 $26 $-1 $27 #
body $-1 $28 $-1 $29 #
lump $-1 $-1 $30 $0 #
transform $-1 1 0 0 0 1 0 0 0 1 63.671376689962457 44.048809374424017 20.061586407613738 1 rotate no_reflect no_shear #
lump $-1 $-1 $31 $1 #
transform $-1 1 0 0 0 1 0 0 0 1 63.671376689962457 44.048809374424017 20.061586407613738 1 rotate no_reflect no_shear #
lump $-1 $-1 $32 $2 #
transform $-1 1 0 0 0 1 0 0 0 1 63.671376689962457 44.048809374424017 20.061586407613738 1 rotate no_reflect no_shear #
lump $-1 $-1 $33 $3 #
transform $-1 1 0 0 0 1 0 0 0 1 63.671376689962457 44.048809374424017 20.061586407613738 1 rotate no_reflect no_shear #
lump $-1 $-1 $34 $4 #
transform $-1 1 0 0 0 1 0 0 0 1 63.671376689962457 44.048809374424017 20.061586407613738 1 rotate no_reflect no_shear #
lump $-1 $-1 $35 $5 #
transform $-1 1 0 0 0 1 0 0 0 1 63.671376689962457 44.048809374424017 20.061586407613738 1 rotate no_reflect no_shear #
lump $-1 $-1 $36 $6 #
transform $-1 1 0 0 0 1 0 0 0 1 63.671376689962457 44.048809374424017 20.061586407613738 1 rotate no_reflect no_shear #
lump $-1 $-1 $37 $7 #
transform $-1 1 0 0 0 1 0 0 0 1 63.671376689962457 44.048809374424017 20.061586407613738 1 rotate no_reflect no_shear #
lump $-1 $-1 $38 $8 #
transform $-1 1 0 0 0 1 0 0 0 1 63.671376689962457 44.048809374424017 20.061586407613738 1 rotate no_reflect no_shear #
lump $-1 $-1 $39 $9 #
transform $-1 1 0 0 0 1 0 0 0 1 63.671376689962457 44.048809374424017 20.061586407613738 1 rotate no_reflect no_shear #
shell $-1 $-1 $-1 $40 $-1 $10 #
shell $-1 $-1 $-1 $41 $-1 $12 #
shell $-1 $-1 $-1 $42 $-1 $14 #
shell $-1 $-1 $-1 $43 $-1 $16 #
shell $-1 $-1 $-1 $44 $-1 $18 #
shell $-1 $-1 $-1 $45 $-1 $20 #
shell $-1 $-1 $-1 $46 $-1 $22 #
shell $-1 $-1 $-1 $47 $-1 $24 #
shell $-1 $-1 $-1 $48 $-1 $26 #
shell $-1 $-1 $-1 $49 $-1 $28 #
face $-1 $50 $51 $30 $-1 $52 forward single #
face $-1 $53 $54 $31 $-1 $55 reversed single #
face $-1 $56 $57 $32 $-1 $58 reversed single #
face $-1 $59 $60 $33 $-1 $61 reversed single #
face $-1 $62 $63 $34 $-1 $64 forward single #
face $-1 $65 $66 $35 $-1 $67 forward single #
face $-1 $68 $69 $36 $-1 $70 reversed single #
face $-1 $71 $72 $37 $-1 $73 forward single #
face $-1 $74 $75 $38 $-1 $76 forward single #
face $-1 $77 $78 $39 $-1 $79 forward single #
face $-1 $80 $81 $30 $-1 $82 reversed single #
loop $-1 $-1 $83 $40 #
plane-surface $-1 0 0 20.061586407613738 0 0 1 1 0 0 forward_v I I I I #
face $-1 $84 $85 $31 $-1 $86 reversed single #
loop $-1 $-1 $87 $41 #
plane-surface $-1 -54.777267939318328 0 14.094968036180322 0 0 1 1 0 0 forward_v I I I I #
face $-1 $88 $89 $32 $-1 $90 reversed single #
loop $-1 $-1 $91 $42 #
plane-surface $-1 54.777267939318321 0 14.094968036180322 0 0 1 1 0 0 forward_v I I I I #
face $-1 $92 $93 $33 $-1 $94 reversed single #
loop $-1 $-1 $95 $43 #
plane-surface $-1 -35.296019637363152 -27.223660876711897 64.384322424827289 0 0.5877852598018023 0.80901698891910034 1 0 0 forward_v I I I I #
face $-1 $96 $97 $34 $-1 $98 forward single #
loop $-1 $99 $100 $44 #
cone-surface $-1 -39.833365159353598 37.609236756619659 14.534374677207904 0 -0.5877852598018023 -0.80901698891910034 2.5 0 0 1 I I 0 1 2.5 forward I I I I #
face $-1 $101 $102 $35 $-1 $103 forward single #
loop $-1 $104 $105 $45 #
cone-surface $-1 -30.758674115372699 37.609236756619659 14.534374677207904 0 -0.5877852598018023 -0.80901698891910034 2.5 0 0 1 I I 0 1 2.5 forward I I I I #
face $-1 $106 $107 $36 $-1 $108 reversed single #
loop $-1 $-1 $109 $46 #
plane-surface $-1 42.642516343834338 -118.89900275372003 111.76855115000097 -1 0 0 0 -0.5877852598018023 0.80901698891910034 forward_v I I I I #
face $-1 $110 $111 $37 $-1 $112 forward single #
loop $-1 $113 $114 $47 #
cone-surface $-1 25.656491556020583 -35.181168624849406 12.916765071898133 0 0.5877852598018023 -0.80901698891910034 1 0 0 1 I I 0 1 1 forward I I I I #
face $-1 $115 $116 $38 $-1 $117 forward single #
loop $-1 $118 $119 $48 #
cone-surface $-1 32.02625085145074 -35.181168624849406 12.916765071898133 0 0.5877852598018023 -0.80901698891910034 1 0 0 1 I I 0 1 1 forward I I I I #
face $-1 $120 $121 $39 $-1 $122 forward single #
loop $-1 $123 $124 $49 #
cone-surface $-1 38.396010146880897 -35.181168624849406 12.916765071898133 0 0.5877852598018023 -0.80901698891910034 1 0 0 1 I I 0 1 1 forward I I I I #
face $-1 $125 $126 $30 $-1 $127 reversed single #
loop $-1 $-1 $128 $50 #
plane-surface $-1 0 0 -20.061586407613738 0 0 1 1 0 0 forward_v I I I I #
coedge $-1 $129 $130 $131 $132 forward $51 $-1 #
face $-1 $133 $134 $31 $-1 $135 reversed single #
loop $-1 $-1 $136 $53 #
plane-surface $-1 -45.883159188674199 0 17.078277221897032 -1 0 0 0 0 1 forward_v I I I I #
coedge $-1 $137 $138 $139 $140 forward $54 $-1 #
face $-1 $141 $142 $32 $-1 $143 forward single #
loop $-1 $-1 $144 $56 #
plane-surface $-1 45.883159188674192 0 17.078277221897032 1 0 0 0 0 -1 forward_v I I I I #
coedge $-1 $145 $146 $147 $148 reversed $57 $-1 #
face $-1 $149 $150 $33 $-1 $151 reversed single #
loop $-1 $-1 $152 $59 #
plane-surface $-1 -24.708880086052105 47.626532502584105 167.40677332492172 -1 0 0 0 0.5877852598018023 0.80901698891910034 forward_v I I I I #
coedge $-1 $153 $154 $155 $156 reversed $60 $-1 #
face $-1 $-1 $157 $34 $-1 $158 forward single #
loop $-1 $159 $160 $62 #
cone-surface $-1 -39.833365159353598 35.568662025067972 11.725764564152321 0 -0.5877852598018023 -0.80901698891910034 1.25 0 0 1 I I -0.70710678118654746 0.70710678118654746 1.25 forward I I I I #
loop $-1 $-1 $161 $44 #
coedge $-1 $100 $100 $162 $163 reversed $63 $-1 #
face $-1 $-1 $164 $35 $-1 $165 forward single #
loop $-1 $166 $167 $65 #
cone-surface $-1 -30.758674115372699 35.568662025067972 11.725764564152321 0 -0.5877852598018023 -0.80901698891910034 1.25 0 0 1 I I -0.70710678118654746 0.70710678118654746 1.25 forward I I I I #
loop $-1 $-1 $168 $45 #
coedge $-1 $105 $105 $169 $170 reversed $66 $-1 #
face $-1 $171 $172 $36 $-1 $173 reversed single #
loop $-1 $-1 $174 $68 #
plane-surface $-1 32.02625085145074 -44.048809374424025 8.7461002499065472 0 -0.5877852598018023 0.80901698891910034 1 0 0 forward_v I I I I #
coedge $-1 $175 $176 $177 $178 reversed $69 $-1 #
face $-1 $-1 $179 $37 $-1 $180 forward single #
loop $-1 $181 $182 $71 #
cone-surface $-1 25.656491556020583 -33.806850377776883 11.025178320576572 0 0.5877852598018023 -0.80901698891910034 0.5 0 0 1 I I -0.70710678118654624 0.70710678118654879 0.5 forward I I I I #
loop $-1 $-1 $183 $47 #
coedge $-1 $114 $114 $184 $185 reversed $72 $-1 #
face $-1 $-1 $186 $38 $-1 $187 forward single #
loop $-1 $188 $189 $74 #
cone-surface $-1 32.02625085145074 -33.806850377776883 11.025178320576572 0 0.5877852598018023 -0.80901698891910034 0.5 0 0 1 I I -0.70710678118654624 0.70710678118654879 0.5 forward I I I I #
loop $-1 $-1 $190 $48 #
coedge $-1 $119 $119 $191 $192 reversed $75 $-1 #
face $-1 $-1 $193 $39 $-1 $194 forward single #
loop $-1 $195 $196 $77 #
cone-surface $-1 38.396010146880897 -33.806850377776883 11.025178320576572 0 0.5877852598018023 -0.80901698891910034 0.5 0 0 1 I I -0.70710678118654624 0.70710678118654879 0.5 forward I I I I #
loop $-1 $-1 $197 $49 #
coedge $-1 $124 $124 $198 $199 reversed $78 $-1 #
face $-1 $200 $201 $30 $-1 $202 reversed single #
loop $-1 $-1 $203 $80 #
plane-surface $-1 0 -44.048809374424017 0 0 1 0 0 0 1 forward_v I I I I #
coedge $-1 $204 $205 $206 $207 forward $81 $-1 #
coedge $-1 $208 $83 $209 $210 forward $51 $-1 #
coedge $-1 $83 $208 $211 $212 forward $51 $-1 #
coedge $-1 $213 $214 $83 $132 reversed $215 $-1 #
edge $-1 $216 -44.048809374424017 $217 44.048809374424017 $131 $218 forward 7 unknown #
face $-1 $219 $220 $31 $-1 $221 reversed single #
loop $-1 $-1 $222 $84 #
plane-surface $-1 0 44.048809374424017 0 0 -1 0 0 0 -1 forward_v I I I I #
coedge $-1 $139 $223 $224 $225 reversed $85 $-1 #
coedge $-1 $226 $87 $227 $228 reversed $54 $-1 #
coedge $-1 $87 $226 $229 $230 reversed $54 $-1 #
coedge $-1 $231 $136 $87 $140 reversed $85 $-1 #
edge $-1 $232 -44.048809374424017 $233 44.048809374424017 $139 $234 forward 7 unknown #
face $-1 $235 $236 $32 $-1 $237 reversed single #
loop $-1 $-1 $238 $88 #
plane-surface $-1 0 0 20.061586407613738 0 0 1 1 0 0 forward_v I I I I #
coedge $-1 $239 $240 $241 $242 reversed $89 $-1 #
coedge $-1 $243 $91 $244 $245 reversed $57 $-1 #
coedge $-1 $91 $243 $246 $247 reversed $57 $-1 #
coedge $-1 $248 $249 $91 $148 forward $250 $-1 #
edge $-1 $251 -44.048809374424017 $252 44.048809374424017 $147 $253 forward 7 unknown #
face $-1 $254 $255 $33 $-1 $256 forward single #
loop $-1 $-1 $257 $92 #
plane-surface $-1 0 44.048809374424017 0 0 -1 0 0 0 -1 forward_v I I I I #
coedge $-1 $258 $259 $260 $261 reversed $93 $-1 #
coedge $-1 $262 $95 $263 $264 reversed $60 $-1 #
coedge $-1 $95 $262 $258 $265 forward $60 $-1 #
coedge $-1 $260 $266 $95 $156 forward $255 $-1 #
edge $-1 $267 -28.235149369992623 $268 -7.0608702673705288 $155 $269 forward 7 unknown #
loop $-1 $-1 $162 $96 #
plane-surface $-1 -35.296019637363152 -27.223660876711897 64.384322424827289 0 0.5877852598018023 0.80901698891910034 1 0 0 forward_v I I I I #
loop $-1 $-1 $270 $62 #
coedge $-1 $160 $160 $161 $271 reversed $97 $-1 #
coedge $-1 $161 $161 $160 $271 forward $99 $-1 #
coedge $-1 $162 $162 $100 $163 forward $157 $-1 #
edge $-1 $272 -2.0928498774296069e-015 $272 6.2831853071795987 $162 $273 forward 7 unknown #
loop $-1 $-1 $169 $101 #
plane-surface $-1 -35.296019637363152 -27.223660876711897 64.384322424827289 0 0.5877852598018023 0.80901698891910034 1 0 0 forward_v I I I I #
loop $-1 $-1 $274 $65 #
coedge $-1 $167 $167 $168 $275 reversed $102 $-1 #
coedge $-1 $168 $168 $167 $275 forward $104 $-1 #
coedge $-1 $169 $169 $105 $170 forward $164 $-1 #
edge $-1 $276 -2.0928498774296069e-015 $276 6.2831853071795987 $169 $277 forward 7 unknown #
face $-1 $278 $279 $36 $-1 $280 forward single #
loop $-1 $-1 $281 $106 #
plane-surface $-1 21.409985359067143 -118.89900275372003 111.76855115000097 1 0 0 0 0.5877852598018023 -0.80901698891910034 forward_v I I I I #
coedge $-1 $282 $283 $284 $285 reversed $107 $-1 #
coedge $-1 $176 $109 $286 $287 reversed $69 $-1 #
coedge $-1 $109 $175 $282 $288 reversed $69 $-1 #
coedge $-1 $284 $289 $109 $178 forward $279 $-1 #
edge $-1 $290 15.400692002435996 $291 30.975122267241964 $177 $292 forward 7 unknown #
loop $-1 $-1 $184 $110 #
plane-surface $-1 32.02625085145074 -44.048809374424025 8.7461002499065472 0 -0.5877852598018023 0.80901698891910034 1 0 0 forward_v I I I I #
loop $-1 $-1 $293 $71 #
coedge $-1 $182 $182 $183 $294 reversed $111 $-1 #
coedge $-1 $183 $183 $182 $294 forward $113 $-1 #
coedge $-1 $184 $184 $114 $185 forward $179 $-1 #
edge $-1 $295 -3.1323490990427538e-015 $295 6.2831853071795969 $184 $296 forward 7 unknown #
loop $-1 $-1 $191 $115 #
plane-surface $-1 32.02625085145074 -44.048809374424025 8.7461002499065472 0 -0.5877852598018023 0.80901698891910034 1 0 0 forward_v I I I I #
loop $-1 $-1 $297 $74 #
coedge $-1 $189 $189 $190 $298 reversed $116 $-1 #
coedge $-1 $190 $190 $189 $298 forward $118 $-1 #
coedge $-1 $191 $191 $119 $192 forward $186 $-1 #
edge $-1 $299 -3.1323490990427538e-015 $299 6.2831853071795969 $191 $300 forward 7 unknown #
loop $-1 $-1 $198 $120 #
plane-surface $-1 32.02625085145074 -44.048809374424025 8.7461002499065472 0 -0.5877852598018023 0.80901698891910034 1 0 0 forward_v I I I I #
loop $-1 $-1 $301 $77 #
coedge $-1 $196 $196 $197 $302 reversed $121 $-1 #
coedge $-1 $197 $197 $196 $302 forward $123 $-1 #
coedge $-1 $198 $198 $124 $199 forward $193 $-1 #
edge $-1 $303 -3.1323490990427538e-015 $303 6.2831853071795969 $198 $304 forward 7 unknown #
face $-1 $305 $306 $30 $-1 $307 reversed single #
loop $-1 $-1 $308 $125 #
plane-surface $-1 -63.671376689962457 0 0 1 0 0 0 0 -1 forward_v I I I I #
coedge $-1 $309 $211 $310 $311 forward $126 $-1 #
coedge $-1 $312 $128 $309 $313 forward $81 $-1 #
coedge $-1 $128 $312 $314 $315 forward $81 $-1 #
coedge $-1 $214 $213 $128 $207 reversed $215 $-1 #
edge $-1 $316 -44.048809374424017 $317 44.048809374424017 $206 $318 forward 7 unknown #
coedge $-1 $130 $129 $319 $320 forward $51 $-1 #
coedge $-1 $321 $322 $129 $210 reversed $306 $-1 #
edge $-1 $217 -63.671376689962457 $323 63.671376689962457 $209 $324 forward 7 unknown #
coedge $-1 $203 $325 $130 $212 reversed $126 $-1 #
edge $-1 $326 -63.671376689962457 $216 63.671376689962457 $211 $327 forward 7 unknown #
coedge $-1 $206 $131 $325 $328 forward $215 $-1 #
coedge $-1 $131 $206 $321 $329 reversed $215 $-1 #
loop $-1 $-1 $213 $305 #
vertex $-1 $132 $330 #
vertex $-1 $132 $331 #
straight-curve $-1 63.671376689962457 0 20.061586407613738 0 1 0 I I #
face $-1 $332 $333 $31 $-1 $334 forward single #
loop $-1 $-1 $335 $133 #
plane-surface $-1 -63.671376689962457 0 0 1 0 0 0 0 -1 forward_v I I I I #
coedge $-1 $229 $336 $231 $337 forward $134 $-1 #
coedge $-1 $136 $231 $338 $339 reversed $85 $-1 #
coedge $-1 $340 $227 $136 $225 forward $341 $-1 #
edge $-1 $233 5.5558294252318063 $342 11.522447796665226 $224 $343 forward 7 unknown #
coedge $-1 $138 $137 $335 $344 reversed $54 $-1 #
coedge $-1 $224 $345 $137 $228 forward $341 $-1 #
edge $-1 $346 -36.28274272030329 $233 -18.494525219015035 $227 $347 forward 7 unknown #
coedge $-1 $348 $222 $138 $230 forward $134 $-1 #
edge $-1 $232 18.494525219015035 $349 36.28274272030329 $229 $350 forward 7 unknown #
coedge $-1 $223 $139 $222 $337 reversed $85 $-1 #
vertex $-1 $230 $351 #
vertex $-1 $228 $352 #
straight-curve $-1 -45.883159188674199 0 14.094968036180322 0 -1 0 I I #
face $-1 $353 $354 $32 $-1 $355 reversed single #
loop $-1 $-1 $356 $141 #
plane-surface $-1 0 -44.048809374424017 0 0 1 0 0 0 1 forward_v I I I I #
coedge $-1 $357 $358 $240 $359 forward $142 $-1 #
coedge $-1 $360 $144 $243 $361 reversed $89 $-1 #
coedge $-1 $144 $360 $238 $359 reversed $89 $-1 #
coedge $-1 $362 $246 $144 $242 forward $354 $-1 #
edge $-1 $363 5.5558294252318063 $364 11.522447796665226 $241 $365 forward 7 unknown #
coedge $-1 $146 $145 $239 $361 forward $57 $-1 #
coedge $-1 $366 $356 $145 $245 forward $236 $-1 #
edge $-1 $367 18.494525219015031 $251 36.28274272030329 $244 $368 forward 7 unknown #
coedge $-1 $241 $369 $146 $247 forward $354 $-1 #
edge $-1 $252 -36.28274272030329 $363 -18.494525219015031 $246 $370 forward 7 unknown #
coedge $-1 $371 $147 $369 $372 reversed $250 $-1 #
coedge $-1 $147 $371 $366 $373 forward $250 $-1 #
loop $-1 $-1 $147 $353 #
vertex $-1 $245 $374 #
vertex $-1 $148 $375 #
straight-curve $-1 63.671376689962457 0 14.094968036180322 0 1 0 I I #
face $-1 $-1 $376 $33 $-1 $377 forward single #
loop $-1 $-1 $260 $149 #
plane-surface $-1 0 0 20.061586407613738 0 0 1 1 0 0 forward_v I I I I #
coedge $-1 $378 $379 $259 $380 forward $150 $-1 #
coedge $-1 $259 $152 $154 $265 reversed $93 $-1 #
coedge $-1 $152 $258 $257 $380 reversed $93 $-1 #
coedge $-1 $381 $155 $152 $261 forward $255 $-1 #
edge $-1 $268 9.9680842011221351 $382 20.235543123131965 $260 $383 forward 7 unknown #
coedge $-1 $154 $153 $378 $384 reversed $60 $-1 #
coedge $-1 $385 $386 $153 $264 forward $376 $-1 #
edge $-1 $387 -63.182518639031855 $267 -50.491241369653594 $263 $388 forward 7 unknown #
edge $-1 $389 -88.097618748848035 $268 -75.406341479469759 $258 $390 forward 7 unknown #
coedge $-1 $155 $381 $385 $391 forward $255 $-1 #
vertex $-1 $264 $392 #
vertex $-1 $156 $393 #
straight-curve $-1 -17.648009818681576 33.781350452414188 20.061586407613738 1 0 0 I I #
coedge $-1 $270 $270 $-1 $394 reversed $159 $-1 #
edge $-1 $395 0 $395 6.2831853071796004 $160 $396 forward 7 unknown #
vertex $-1 $163 $397 #
ellipse-curve $-1 -39.833365159353598 38.915079913419099 16.331713554114621 0 0.5877852598018023 0.80901698891910034 2.5 0 0 1 I I #
coedge $-1 $274 $274 $-1 $398 reversed $166 $-1 #
edge $-1 $399 0 $399 6.2831853071796004 $167 $400 forward 7 unknown #
vertex $-1 $170 $401 #
ellipse-curve $-1 -30.758674115372699 38.915079913419099 16.331713554114621 0 0.5877852598018023 0.80901698891910034 2.5 0 0 1 I I #
face $-1 $-1 $402 $36 $-1 $403 reversed single #
loop $-1 $-1 $177 $171 #
plane-surface $-1 0 0 20.061586407613738 0 0 1 1 0 0 forward_v I I I I #
coedge $-1 $404 $405 $406 $407 reversed $172 $-1 #
coedge $-1 $408 $174 $176 $288 forward $107 $-1 #
coedge $-1 $174 $408 $404 $409 forward $107 $-1 #
coedge $-1 $406 $177 $174 $285 forward $279 $-1 #
edge $-1 $291 -26.629390918108967 $410 -5.3968599333417728 $284 $411 forward 7 unknown #
coedge $-1 $412 $413 $175 $287 forward $402 $-1 #
edge $-1 $414 -47.138175325093933 $290 -35.822689167386748 $286 $415 forward 7 unknown #
edge $-1 $291 -19.251054647955456 $414 -8.8807605448725156e-015 $176 $416 forward 7 unknown #
coedge $-1 $177 $406 $412 $417 forward $279 $-1 #
vertex $-1 $287 $418 #
vertex $-1 $178 $419 #
straight-curve $-1 42.642516343834338 -59.449501376860013 20.061586407613738 0 1 0 I I #
coedge $-1 $293 $293 $-1 $420 reversed $181 $-1 #
edge $-1 $421 0 $421 6.2831853071796004 $182 $422 forward 7 unknown #
vertex $-1 $185 $423 #
ellipse-curve $-1 25.656491556020583 -36.261594242021033 14.403843328760146 0 -0.5877852598018023 0.80901698891910034 1 0 0 1 I I #
coedge $-1 $297 $297 $-1 $424 reversed $188 $-1 #
edge $-1 $425 0 $425 6.2831853071796004 $189 $426 forward 7 unknown #
vertex $-1 $192 $427 #
ellipse-curve $-1 32.02625085145074 -36.261594242021033 14.403843328760146 0 -0.5877852598018023 0.80901698891910034 1 0 0 1 I I #
coedge $-1 $301 $301 $-1 $428 reversed $195 $-1 #
edge $-1 $429 0 $429 6.2831853071796004 $196 $430 forward 7 unknown #
vertex $-1 $199 $431 #
ellipse-curve $-1 38.396010146880897 -36.261594242021033 14.403843328760146 0 -0.5877852598018023 0.80901698891910034 1 0 0 1 I I #
face $-1 $-1 $215 $30 $-1 $432 reversed single #
loop $-1 $-1 $321 $200 #
plane-surface $-1 0 44.048809374424017 0 0 -1 0 0 0 -1 forward_v I I I I #
coedge $-1 $433 $319 $322 $434 forward $201 $-1 #
coedge $-1 $325 $203 $204 $313 reversed $126 $-1 #
coedge $-1 $319 $433 $203 $311 reversed $201 $-1 #
edge $-1 $326 -20.061586407613738 $435 20.061586407613738 $310 $436 forward 7 unknown #
coedge $-1 $205 $204 $433 $437 forward $81 $-1 #
edge $-1 $317 -63.671376689962457 $435 63.671376689962457 $309 $438 forward 7 unknown #
coedge $-1 $322 $321 $205 $315 reversed $306 $-1 #
edge $-1 $439 -63.671376689962457 $316 63.671376689962457 $314 $440 forward 7 unknown #
vertex $-1 $207 $441 #
vertex $-1 $328 $442 #
straight-curve $-1 63.671376689962457 0 -20.061586407613738 0 -1 0 I I #
coedge $-1 $308 $310 $208 $320 reversed $201 $-1 #
edge $-1 $323 -44.048809374424017 $326 44.048809374424017 $319 $443 forward 7 unknown #
coedge $-1 $314 $209 $214 $329 forward $306 $-1 #
coedge $-1 $209 $314 $308 $434 reversed $306 $-1 #
vertex $-1 $210 $444 #
straight-curve $-1 0 44.048809374424017 20.061586407613738 -1 0 0 I I #
coedge $-1 $211 $309 $213 $328 reversed $126 $-1 #
vertex $-1 $320 $445 #
straight-curve $-1 0 -44.048809374424017 20.061586407613738 1 0 0 I I #
edge $-1 $216 -20.061586407613738 $317 20.061586407613738 $213 $446 forward 7 unknown #
edge $-1 $217 -20.061586407613738 $316 20.061586407613738 $214 $447 forward 7 unknown #
point $-1 63.671376689962457 -44.048809374424017 20.061586407613738 #
point $-1 63.671376689962457 44.048809374424017 20.061586407613738 #
face $-1 $-1 $341 $31 $-1 $448 reversed single #
loop $-1 $-1 $338 $219 #
plane-surface $-1 0 0 20.061586407613738 0 0 1 1 0 0 forward_v I I I I #
coedge $-1 $449 $450 $226 $344 forward $220 $-1 #
coedge $-1 $222 $348 $451 $452 reversed $134 $-1 #
edge $-1 $453 -11.522447796665226 $232 -5.5558294252318063 $222 $454 forward 7 unknown #
coedge $-1 $451 $455 $223 $339 forward $333 $-1 #
edge $-1 $342 -44.048809374424017 $453 44.048809374424017 $338 $456 forward 7 unknown #
coedge $-1 $345 $224 $455 $457 reversed $341 $-1 #
loop $-1 $-1 $224 $332 #
vertex $-1 $225 $458 #
straight-curve $-1 -45.883159188674199 -44.048809374424017 8.5391386109485161 0 0 1 I I #
edge $-1 $349 -44.048809374424017 $346 44.048809374424017 $335 $459 forward 7 unknown #
coedge $-1 $227 $340 $449 $460 forward $341 $-1 #
vertex $-1 $344 $461 #
straight-curve $-1 -27.388633969659164 -44.048809374424017 14.094968036180322 1 0 0 I I #
coedge $-1 $336 $229 $450 $462 reversed $134 $-1 #
vertex $-1 $344 $463 #
straight-curve $-1 -27.388633969659164 44.048809374424017 14.094968036180322 -1 0 0 I I #
point $-1 -45.883159188674199 44.048809374424017 14.094968036180322 #
point $-1 -45.883159188674199 -44.048809374424017 14.094968036180322 #
face $-1 $-1 $250 $32 $-1 $464 reversed single #
loop $-1 $-1 $241 $235 #
plane-surface $-1 0 44.048809374424017 0 0 -1 0 0 0 -1 forward_v I I I I #
coedge $-1 $244 $465 $360 $466 forward $236 $-1 #
coedge $-1 $467 $238 $465 $468 forward $142 $-1 #
coedge $-1 $238 $467 $362 $469 forward $142 $-1 #
edge $-1 $364 -44.048809374424017 $470 44.048809374424017 $238 $471 forward 7 unknown #
coedge $-1 $240 $239 $356 $466 reversed $89 $-1 #
edge $-1 $367 -44.048809374424017 $363 44.048809374424017 $239 $472 forward 7 unknown #
coedge $-1 $369 $241 $358 $469 reversed $354 $-1 #
vertex $-1 $247 $473 #
vertex $-1 $242 $474 #
straight-curve $-1 45.883159188674192 44.048809374424017 8.5391386109485161 0 0 1 I I #
coedge $-1 $465 $244 $249 $373 reversed $236 $-1 #
vertex $-1 $245 $475 #
straight-curve $-1 27.388633969659161 -44.048809374424017 14.094968036180322 1 0 0 I I #
coedge $-1 $246 $362 $248 $372 forward $354 $-1 #
straight-curve $-1 27.388633969659161 44.048809374424017 14.094968036180322 -1 0 0 I I #
coedge $-1 $249 $248 $467 $476 reversed $250 $-1 #
edge $-1 $477 -20.061586407613738 $252 -14.094968036180322 $248 $478 forward 7 unknown #
edge $-1 $479 -20.061586407613738 $251 -14.094968036180322 $249 $480 forward 7 unknown #
point $-1 63.67137668996245 -44.048809374424017 14.094968036180322 #
point $-1 63.67137668996245 44.048809374424017 14.094968036180322 #
loop $-1 $-1 $263 $254 #
plane-surface $-1 -45.883159188674199 0 17.078277221897032 -1 0 0 0 0 1 forward_v I I I I #
coedge $-1 $481 $257 $262 $384 forward $150 $-1 #
coedge $-1 $257 $481 $381 $482 reversed $150 $-1 #
edge $-1 $382 63.641800254847119 $389 71.101545961845346 $257 $483 forward 7 unknown #
coedge $-1 $266 $260 $379 $482 forward $255 $-1 #
vertex $-1 $482 $484 #
straight-curve $-1 -24.708880086052105 23.813266251292053 20.061586407613746 0 1 0 I I #
edge $-1 $389 7.0608702673705288 $387 28.235149369992623 $378 $485 forward 7 unknown #
coedge $-1 $386 $263 $266 $391 reversed $376 $-1 #
coedge $-1 $263 $385 $481 $486 reversed $376 $-1 #
vertex $-1 $486 $487 #
straight-curve $-1 -45.883159188674199 -7.066921607250471 49.739593833791083 0 -0.80901698891910034 0.5877852598018023 I I #
vertex $-1 $384 $488 #
straight-curve $-1 -24.708880086052105 -27.223660876711897 64.384322424827289 0 -0.80901698891910034 0.5877852598018023 I I #
edge $-1 $489 -44.048809374424017 $267 -33.781350452414188 $266 $490 forward 7 unknown #
point $-1 -45.883159188674199 33.781350452414188 20.061586407613738 #
point $-1 -24.708880086052105 33.781350452414188 20.061586407613738 #
edge $-1 $491 1 $491 0 $270 $-1 forward 7 unknown #
vertex $-1 $271 $492 #
ellipse-curve $-1 -39.833365159353598 36.303393599820225 12.737035800301197 0 0.5877852598018023 0.80901698891910034 2.5 0 0 1 I I #
point $-1 -37.333365159353598 38.915079913419085 16.331713554114611 #
edge $-1 $493 1 $493 0 $274 $-1 forward 7 unknown #
vertex $-1 $275 $494 #
ellipse-curve $-1 -30.758674115372699 36.303393599820225 12.737035800301197 0 0.5877852598018023 0.80901698891910034 2.5 0 0 1 I I #
point $-1 -28.258674115372699 38.915079913419085 16.331713554114611 #
loop $-1 $-1 $286 $278 #
plane-surface $-1 0 -44.048809374424017 0 0 1 0 0 0 1 forward_v I I I I #
coedge $-1 $405 $281 $283 $409 reversed $172 $-1 #
coedge $-1 $281 $404 $495 $496 reversed $172 $-1 #
coedge $-1 $289 $284 $281 $407 forward $279 $-1 #
edge $-1 $410 -30.975122267241964 $497 -15.400692002435996 $406 $498 forward 7 unknown #
coedge $-1 $283 $282 $413 $499 reversed $107 $-1 #
edge $-1 $500 8.8807605448725156e-015 $410 19.251054647955456 $404 $501 forward 7 unknown #
vertex $-1 $285 $502 #
straight-curve $-1 16.01312542572537 -28.474379109618045 20.061586407613738 -1 0 0 I I #
coedge $-1 $495 $286 $289 $417 reversed $402 $-1 #
coedge $-1 $286 $495 $408 $499 forward $402 $-1 #
vertex $-1 $287 $503 #
straight-curve $-1 42.642516343834338 -44.048809374424017 55.884275575000487 0 0 1 I I #
straight-curve $-1 42.642516343834338 -44.048809374424025 8.7461002499065472 0 -0.80901698891910034 -0.5877852598018023 I I #
edge $-1 $497 21.409985359067143 $290 42.642516343834338 $412 $504 forward 7 unknown #
point $-1 42.642516343834338 -44.048809374424017 20.061586407613738 #
point $-1 42.642516343834338 -28.474379109618049 20.061586407613738 #
edge $-1 $505 1 $505 0 $293 $-1 forward 7 unknown #
vertex $-1 $294 $506 #
ellipse-curve $-1 25.656491556020583 -34.100743007677785 11.429686815036124 0 -0.5877852598018023 0.80901698891910034 1 0 0 1 I I #
point $-1 26.656491556020583 -36.261594242021033 14.403843328760141 #
edge $-1 $507 1 $507 0 $297 $-1 forward 7 unknown #
vertex $-1 $298 $508 #
ellipse-curve $-1 32.02625085145074 -34.100743007677785 11.429686815036124 0 -0.5877852598018023 0.80901698891910034 1 0 0 1 I I #
point $-1 33.02625085145074 -36.261594242021033 14.403843328760141 #
edge $-1 $509 1 $509 0 $301 $-1 forward 7 unknown #
vertex $-1 $302 $510 #
ellipse-curve $-1 38.396010146880897 -34.100743007677785 11.429686815036124 0 -0.5877852598018023 0.80901698891910034 1 0 0 1 I I #
point $-1 39.396010146880897 -36.261594242021033 14.403843328760141 #
plane-surface $-1 63.671376689962457 0 0 -1 0 0 0 0 1 forward_v I I I I #
coedge $-1 $310 $308 $312 $437 reversed $201 $-1 #
edge $-1 $323 -20.061586407613738 $439 20.061586407613738 $322 $511 forward 7 unknown #
vertex $-1 $437 $512 #
straight-curve $-1 -63.671376689962457 -44.048809374424017 0 0 0 -1 I I #
edge $-1 $435 -44.048809374424017 $439 44.048809374424017 $433 $513 forward 7 unknown #
straight-curve $-1 0 -44.048809374424017 -20.061586407613738 -1 0 0 I I #
vertex $-1 $315 $514 #
straight-curve $-1 0 44.048809374424017 -20.061586407613738 1 0 0 I I #
point $-1 63.671376689962457 44.048809374424017 -20.061586407613738 #
point $-1 63.671376689962457 -44.048809374424017 -20.061586407613738 #
straight-curve $-1 -63.671376689962457 0 20.061586407613738 0 -1 0 I I #
point $-1 -63.671376689962457 44.048809374424017 20.061586407613738 #
point $-1 -63.671376689962457 -44.048809374424017 20.061586407613738 #
straight-curve $-1 63.671376689962457 -44.048809374424017 0 0 0 -1 I I #
straight-curve $-1 63.671376689962457 44.048809374424017 0 0 0 -1 I I #
plane-surface $-1 0 -44.048809374424017 0 0 1 0 0 0 1 forward_v I I I I #
coedge $-1 $515 $335 $345 $460 reversed $220 $-1 #
coedge $-1 $335 $515 $348 $462 forward $220 $-1 #
coedge $-1 $516 $338 $336 $452 forward $333 $-1 #
edge $-1 $453 45.883159188674199 $517 63.671376689962457 $336 $518 forward 7 unknown #
vertex $-1 $452 $519 #
straight-curve $-1 -45.883159188674199 44.048809374424017 8.5391386109485161 0 0 -1 I I #
coedge $-1 $338 $516 $340 $457 forward $333 $-1 #
straight-curve $-1 -45.883159188674199 0 20.061586407613738 0 1 0 I I #
edge $-1 $520 -63.671376689962457 $342 -45.883159188674199 $340 $521 forward 7 unknown #
point $-1 -45.883159188674199 -44.048809374424017 20.061586407613742 #
straight-curve $-1 -63.671376689962457 0 14.094968036180322 0 -1 0 I I #
edge $-1 $520 -20.061586407613738 $346 -14.094968036180322 $449 $522 forward 7 unknown #
point $-1 -63.671376689962457 -44.048809374424017 14.094968036180322 #
edge $-1 $517 -20.061586407613738 $349 -14.094968036180322 $348 $523 forward 7 unknown #
point $-1 -63.671376689962457 44.048809374424017 14.094968036180322 #
plane-surface $-1 63.671376689962457 0 0 -1 0 0 0 0 1 forward_v I I I I #
coedge $-1 $356 $366 $357 $468 reversed $236 $-1 #
edge $-1 $470 -11.522447796665226 $367 -5.5558294252318063 $356 $524 forward 7 unknown #
coedge $-1 $358 $357 $371 $476 forward $142 $-1 #
edge $-1 $470 45.883159188674192 $479 63.671376689962457 $465 $525 forward 7 unknown #
edge $-1 $477 -63.671376689962457 $364 -45.883159188674192 $362 $526 forward 7 unknown #
vertex $-1 $468 $527 #
straight-curve $-1 45.883159188674192 0 20.061586407613738 0 -1 0 I I #
straight-curve $-1 45.883159188674192 0 14.094968036180322 0 1 0 I I #
point $-1 45.883159188674192 44.048809374424017 14.094968036180322 #
point $-1 45.883159188674192 44.048809374424017 20.061586407613742 #
point $-1 45.883159188674192 -44.048809374424017 14.094968036180322 #
edge $-1 $479 -44.048809374424017 $477 44.048809374424017 $371 $528 forward 7 unknown #
vertex $-1 $476 $529 #
straight-curve $-1 63.671376689962457 44.048809374424017 0 0 0 -1 I I #
vertex $-1 $476 $530 #
straight-curve $-1 63.671376689962457 -44.048809374424017 0 0 0 -1 I I #
coedge $-1 $379 $378 $386 $486 forward $150 $-1 #
edge $-1 $382 24.708880086052105 $489 45.883159188674199 $379 $531 forward 7 unknown #
straight-curve $-1 -24.708880086052105 44.048809374424017 83.703386662460858 0 0 -1 I I #
point $-1 -24.708880086052105 44.048809374424017 20.061586407613738 #
straight-curve $-1 -17.648009818681576 44.048809374424025 12.601840700615508 -1 0 0 I I #
edge $-1 $387 -71.101545961845346 $489 -63.641800254847112 $481 $532 forward 7 unknown #
point $-1 -45.883159188674199 44.048809374424017 12.601840700615519 #
point $-1 -24.708880086052105 44.048809374424017 12.601840700615519 #
vertex $-1 $391 $533 #
straight-curve $-1 -45.883159188674199 0 20.061586407613738 0 -1 0 I I #
vertex $-1 $394 $534 #
point $-1 -37.333365159353598 36.303393599820225 12.737035800301197 #
vertex $-1 $398 $535 #
point $-1 -28.258674115372699 36.303393599820225 12.737035800301197 #
coedge $-1 $413 $412 $405 $496 forward $402 $-1 #
edge $-1 $497 35.822689167386748 $500 47.138175325093933 $495 $536 forward 7 unknown #
vertex $-1 $417 $537 #
straight-curve $-1 21.409985359067143 -59.449501376860013 20.061586407613738 0 -1 0 I I #
edge $-1 $500 5.3968599333417728 $414 26.629390918108967 $413 $538 forward 7 unknown #
vertex $-1 $499 $539 #
straight-curve $-1 21.409985359067143 -44.048809374424025 8.7461002499065472 0 0.80901698891910034 0.5877852598018023 I I #
point $-1 21.409985359067143 -28.474379109618049 20.061586407613738 #
point $-1 42.642516343834338 -44.048809374424017 8.7461002499065525 #
straight-curve $-1 0 -44.048809374424017 20.061586407613738 1 0 0 I I #
vertex $-1 $420 $540 #
point $-1 26.656491556020583 -34.100743007677785 11.429686815036124 #
vertex $-1 $424 $541 #
point $-1 33.02625085145074 -34.100743007677785 11.429686815036124 #
vertex $-1 $428 $542 #
point $-1 39.396010146880897 -34.100743007677785 11.429686815036124 #
straight-curve $-1 -63.671376689962457 44.048809374424017 0 0 0 -1 I I #
point $-1 -63.671376689962457 -44.048809374424017 -20.061586407613738 #
straight-curve $-1 -63.671376689962457 0 -20.061586407613738 0 1 0 I I #
point $-1 -63.671376689962457 44.048809374424017 -20.061586407613738 #
coedge $-1 $450 $449 $516 $543 reversed $220 $-1 #
coedge $-1 $455 $451 $515 $543 forward $333 $-1 #
vertex $-1 $452 $544 #
straight-curve $-1 0 44.048809374424017 20.061586407613738 -1 0 0 I I #
point $-1 -45.883159188674199 44.048809374424017 20.061586407613742 #
vertex $-1 $543 $545 #
straight-curve $-1 0 -44.048809374424017 20.061586407613738 1 0 0 I I #
straight-curve $-1 -63.671376689962457 -44.048809374424017 0 0 0 -1 I I #
straight-curve $-1 -63.671376689962457 44.048809374424017 0 0 0 -1 I I #
straight-curve $-1 45.883159188674192 -44.048809374424017 8.5391386109485161 0 0 -1 I I #
straight-curve $-1 0 -44.048809374424017 20.061586407613738 1 0 0 I I #
straight-curve $-1 0 44.048809374424017 20.061586407613738 -1 0 0 I I #
point $-1 45.883159188674192 -44.048809374424017 20.061586407613742 #
straight-curve $-1 63.671376689962457 0 20.061586407613738 0 1 0 I I #
point $-1 63.671376689962457 44.048809374424017 20.061586407613738 #
point $-1 63.671376689962457 -44.048809374424017 20.061586407613738 #
straight-curve $-1 0 44.048809374424017 20.061586407613738 -1 0 0 I I #
straight-curve $-1 -45.883159188674199 44.048809374424017 83.703386662460858 0 0 1 I I #
point $-1 -45.883159188674199 44.048809374424017 20.061586407613742 #
point $-1 -39.833365159353598 34.833930450315719 10.714493328003446 #
point $-1 -30.758674115372699 34.833930450315719 10.714493328003446 #
straight-curve $-1 21.409985359067143 -44.048809374424017 55.884275575000487 0 0 -1 I I #
point $-1 21.409985359067143 -44.048809374424017 20.061586407613738 #
straight-curve $-1 16.01312542572537 -44.048809374424017 8.7461002499065543 1 0 0 I I #
point $-1 21.409985359067143 -44.048809374424017 8.7461002499065525 #
point $-1 25.656491556020583 -33.51295774787598 10.62066982611702 #
point $-1 32.02625085145074 -33.51295774787598 10.62066982611702 #
point $-1 38.396010146880897 -33.51295774787598 10.62066982611702 #
edge $-1 $517 -44.048809374424017 $520 44.048809374424017 $515 $546 forward 7 unknown #
point $-1 -63.671376689962457 44.048809374424017 20.061586407613738 #
point $-1 -63.671376689962457 -44.048809374424017 20.061586407613738 #
straight-curve $-1 -63.671376689962457 0 20.061586407613738 0 -1 0 I I #
End-of-ACIS-data 