500 0 8 0           
7 Unknown 11 ACIS 5.0 NT 24 Thu Mar 25 20:57:21 1999 
-1 9.9999999999999995e-007 1e-010 
body $-1 $8 $-1 $9 #
body $-1 $10 $-1 $11 #
body $-1 $12 $-1 $13 #
body $-1 $14 $-1 $15 #
body $-1 $16 $-1 $17 #
body $-1 $18 $-1 $19 #
body $-1 $20 $-1 $21 #
body $-1 $22 $-1 $23 #
lump $-1 $-1 $24 $0 #
transform $-1 1 0 0 0 1 0 0 0 1 60.576799829096345 31.769589282603594 14.132314016639606 1 rotate no_reflect no_shear #
lump $-1 $-1 $25 $1 #
transform $-1 1 0 0 0 1 0 0 0 1 60.576799829096345 31.769589282603594 14.132314016639606 1 rotate no_reflect no_shear #
lump $-1 $-1 $26 $2 #
transform $-1 1 0 0 0 1 0 0 0 1 60.576799829096345 31.769589282603594 14.132314016639606 1 rotate no_reflect no_shear #
lump $-1 $-1 $27 $3 #
transform $-1 1 0 0 0 1 0 0 0 1 60.576799829096345 31.769589282603594 14.132314016639606 1 rotate no_reflect no_shear #
lump $-1 $-1 $28 $4 #
transform $-1 1 0 0 0 1 0 0 0 1 60.576799829096345 31.769589282603594 14.132314016639606 1 rotate no_reflect no_shear #
lump $-1 $-1 $29 $5 #
transform $-1 1 0 0 0 1 0 0 0 1 60.576799829096345 31.769589282603594 14.132314016639606 1 rotate no_reflect no_shear #
lump $-1 $-1 $30 $6 #
transform $-1 1 0 0 0 1 0 0 0 1 60.576799829096345 31.769589282603594 14.132314016639606 1 rotate no_reflect no_shear #
lump $-1 $-1 $31 $7 #
transform $-1 1 0 0 0 1 0 0 0 1 60.576799829096345 31.769589282603594 14.132314016639606 1 rotate no_reflect no_shear #
shell $-1 $-1 $-1 $32 $-1 $8 #
shell $-1 $-1 $-1 $33 $-1 $10 #
shell $-1 $-1 $-1 $34 $-1 $12 #
shell $-1 $-1 $-1 $35 $-1 $14 #
shell $-1 $-1 $-1 $36 $-1 $16 #
shell $-1 $-1 $-1 $37 $-1 $18 #
shell $-1 $-1 $-1 $38 $-1 $20 #
shell $-1 $-1 $-1 $39 $-1 $22 #
face $-1 $40 $41 $24 $-1 $42 forward single #
face $-1 $43 $44 $25 $-1 $45 reversed single #
face $-1 $46 $47 $26 $-1 $48 reversed single #
face $-1 $49 $50 $27 $-1 $51 forward single #
face $-1 $52 $53 $28 $-1 $54 reversed single #
face $-1 $55 $56 $29 $-1 $57 forward single #
face $-1 $58 $59 $30 $-1 $60 forward single #
face $-1 $61 $62 $31 $-1 $63 forward single #
face $-1 $64 $65 $24 $-1 $66 reversed single #
loop $-1 $-1 $67 $32 #
plane-surface $-1 0 0 14.132314016639606 0 0 1 1 0 0 forward_v I I I I #
face $-1 $68 $69 $25 $-1 $70 reversed single #
loop $-1 $-1 $71 $33 #
plane-surface $-1 -54.394353448161837 0 10.555221637379816 0 0 1 1 0 0 forward_v I I I I #
face $-1 $72 $73 $26 $-1 $74 reversed single #
loop $-1 $-1 $75 $34 #
plane-surface $-1 45.975467572272649 70.223692863059796 132.9975283975495 1 0 0 0 -0.69465837861970381 -0.71933979245794832 forward_v I I I I #
face $-1 $76 $77 $27 $-1 $78 forward single #
loop $-1 $79 $80 $35 #
cone-surface $-1 53.276133700684497 24.090410357737316 6.6295407955873777 0 -0.69465837861970381 -0.71933979245794832 2 0 0 1 I I 0 1 2 forward I I I I #
face $-1 $81 $82 $28 $-1 $83 reversed single #
loop $-1 $-1 $84 $36 #
plane-surface $-1 47.599811419711429 -31.76958928260359 6.6582564805475926 0 -0.7660444514056185 0.64278759981090561 1 0 0 forward_v I I I I #
face $-1 $85 $86 $29 $-1 $87 forward single #
loop $-1 $88 $89 $37 #
cone-surface $-1 39.813618374080477 -27.150119500259176 9.1502876468662819 0 0.7660444514056185 -0.64278759981090561 1 0 0 1 I I 0 1 1 forward I I I I #
face $-1 $90 $91 $30 $-1 $92 forward single #
loop $-1 $93 $94 $38 #
cone-surface $-1 47.599811419711429 -27.150119500259176 9.1502876468662819 0 0.7660444514056185 -0.64278759981090561 1 0 0 1 I I 0 1 1 forward I I I I #
face $-1 $95 $96 $31 $-1 $97 forward single #
loop $-1 $98 $99 $39 #
cone-surface $-1 55.386004465342381 -27.150119500259176 9.1502876468662819 0 0.7660444514056185 -0.64278759981090561 1 0 0 1 I I 0 1 1 forward I I I I #
face $-1 $100 $101 $24 $-1 $102 reversed single #
loop $-1 $-1 $103 $40 #
plane-surface $-1 0 0 -14.132314016639606 0 0 1 1 0 0 forward_v I I I I #
coedge $-1 $104 $105 $106 $107 forward $41 $-1 #
face $-1 $108 $109 $25 $-1 $110 reversed single #
loop $-1 $-1 $111 $43 #
plane-surface $-1 -48.21190706722733 0 12.343767827009712 -1 0 0 0 0 1 forward_v I I I I #
coedge $-1 $112 $113 $114 $115 forward $44 $-1 #
face $-1 $116 $117 $26 $-1 $118 forward single #
loop $-1 $-1 $119 $46 #
plane-surface $-1 53.276133700684497 -13.936670239441042 45.846923163891816 0 0.69465837861970381 0.71933979245794832 1 0 0 forward_v I I I I #
coedge $-1 $120 $121 $122 $123 reversed $47 $-1 #
face $-1 $-1 $124 $27 $-1 $125 forward single #
loop $-1 $126 $127 $49 #
cone-surface $-1 53.276133700684497 22.148983607077913 4.6191345889184259 0 -0.69465837861970381 -0.71933979245794832 1 0 0 1 I I -0.70710678118654746 0.70710678118654746 1 forward I I I I #
loop $-1 $-1 $128 $35 #
coedge $-1 $80 $80 $129 $130 reversed $50 $-1 #
face $-1 $131 $132 $28 $-1 $133 forward single #
loop $-1 $-1 $134 $52 #
plane-surface $-1 34.622823010326513 -124.57863206857975 84.534288013288631 1 0 0 0 0.7660444514056185 -0.64278759981090561 forward_v I I I I #
coedge $-1 $135 $136 $137 $138 reversed $53 $-1 #
face $-1 $-1 $139 $29 $-1 $140 forward single #
loop $-1 $141 $142 $55 #
cone-surface $-1 39.813618374080477 -25.283366871080819 7.5838962452335092 0 0.7660444514056185 -0.64278759981090561 0.5 0 0 1 I I -0.70710678118654746 0.70710678118654746 0.5 forward I I I I #
loop $-1 $-1 $143 $37 #
coedge $-1 $89 $89 $144 $145 reversed $56 $-1 #
face $-1 $-1 $146 $30 $-1 $147 forward single #
loop $-1 $148 $149 $58 #
cone-surface $-1 47.599811419711429 -25.283366871080819 7.5838962452335092 0 0.7660444514056185 -0.64278759981090561 0.5 0 0 1 I I -0.70710678118654746 0.70710678118654746 0.5 forward I I I I #
loop $-1 $-1 $150 $38 #
coedge $-1 $94 $94 $151 $152 reversed $59 $-1 #
face $-1 $-1 $153 $31 $-1 $154 forward single #
loop $-1 $155 $156 $61 #
cone-surface $-1 55.386004465342381 -25.283366871080819 7.5838962452335092 0 0.7660444514056185 -0.64278759981090561 0.5 0 0 1 I I -0.70710678118654746 0.70710678118654746 0.5 forward I I I I #
loop $-1 $-1 $157 $39 #
coedge $-1 $99 $99 $158 $159 reversed $62 $-1 #
face $-1 $160 $161 $24 $-1 $162 reversed single #
loop $-1 $-1 $163 $64 #
plane-surface $-1 0 -31.769589282603594 0 0 1 0 0 0 1 forward_v I I I I #
coedge $-1 $164 $165 $166 $167 forward $65 $-1 #
coedge $-1 $168 $67 $169 $170 forward $41 $-1 #
coedge $-1 $67 $168 $171 $172 forward $41 $-1 #
coedge $-1 $173 $174 $67 $107 reversed $175 $-1 #
edge $-1 $176 -31.769589282603594 $177 31.769589282603594 $106 $178 forward 7 unknown #
face $-1 $179 $180 $25 $-1 $181 reversed single #
loop $-1 $-1 $182 $68 #
plane-surface $-1 0 31.769589282603594 0 0 -1 0 0 0 -1 forward_v I I I I #
coedge $-1 $114 $183 $184 $185 reversed $69 $-1 #
coedge $-1 $186 $71 $187 $188 reversed $44 $-1 #
coedge $-1 $71 $186 $189 $190 reversed $44 $-1 #
coedge $-1 $191 $111 $71 $115 reversed $69 $-1 #
edge $-1 $192 -31.769589282603594 $193 31.769589282603594 $114 $194 forward 7 unknown #
face $-1 $195 $196 $26 $-1 $197 reversed single #
loop $-1 $-1 $122 $72 #
plane-surface $-1 0 0 14.132314016639606 0 0 1 1 0 0 forward_v I I I I #
coedge $-1 $198 $199 $200 $201 reversed $73 $-1 #
coedge $-1 $121 $75 $202 $203 reversed $47 $-1 #
coedge $-1 $75 $120 $198 $204 reversed $47 $-1 #
coedge $-1 $200 $205 $75 $123 forward $117 $-1 #
edge $-1 $206 3.3422571489263042 $207 16.207078254579464 $122 $208 forward 7 unknown #
loop $-1 $-1 $129 $76 #
plane-surface $-1 53.276133700684497 -13.936670239441042 45.846923163891816 0 0.69465837861970381 0.71933979245794832 1 0 0 forward_v I I I I #
loop $-1 $-1 $209 $49 #
coedge $-1 $127 $127 $128 $210 reversed $77 $-1 #
coedge $-1 $128 $128 $127 $210 forward $79 $-1 #
coedge $-1 $129 $129 $80 $130 forward $124 $-1 #
edge $-1 $211 -3.9617628703221696e-016 $211 6.2831853071796004 $129 $212 forward 7 unknown #
face $-1 $213 $214 $28 $-1 $215 reversed single #
loop $-1 $-1 $137 $81 #
plane-surface $-1 0 0 14.132314016639606 0 0 1 1 0 0 forward_v I I I I #
coedge $-1 $216 $217 $218 $219 reversed $82 $-1 #
coedge $-1 $220 $84 $221 $222 reversed $53 $-1 #
coedge $-1 $84 $220 $216 $223 forward $53 $-1 #
coedge $-1 $218 $224 $84 $138 forward $132 $-1 #
edge $-1 $225 -36.77689411924063 $226 -10.822917300470799 $137 $227 forward 7 unknown #
loop $-1 $-1 $144 $85 #
plane-surface $-1 47.599811419711429 -31.76958928260359 6.6582564805475926 0 -0.7660444514056185 0.64278759981090561 1 0 0 forward_v I I I I #
loop $-1 $-1 $228 $55 #
coedge $-1 $142 $142 $143 $229 reversed $86 $-1 #
coedge $-1 $143 $143 $142 $229 forward $88 $-1 #
coedge $-1 $144 $144 $89 $145 forward $139 $-1 #
edge $-1 $230 -4.5672805968230933e-015 $230 6.283185307179596 $144 $231 forward 7 unknown #
loop $-1 $-1 $151 $90 #
plane-surface $-1 47.599811419711429 -31.76958928260359 6.6582564805475926 0 -0.7660444514056185 0.64278759981090561 1 0 0 forward_v I I I I #
loop $-1 $-1 $232 $58 #
coedge $-1 $149 $149 $150 $233 reversed $91 $-1 #
coedge $-1 $150 $150 $149 $233 forward $93 $-1 #
coedge $-1 $151 $151 $94 $152 forward $146 $-1 #
edge $-1 $234 -4.5672805968230933e-015 $234 6.283185307179596 $151 $235 forward 7 unknown #
loop $-1 $-1 $158 $95 #
plane-surface $-1 47.599811419711429 -31.76958928260359 6.6582564805475926 0 -0.7660444514056185 0.64278759981090561 1 0 0 forward_v I I I I #
loop $-1 $-1 $236 $61 #
coedge $-1 $156 $156 $157 $237 reversed $96 $-1 #
coedge $-1 $157 $157 $156 $237 forward $98 $-1 #
coedge $-1 $158 $158 $99 $159 forward $153 $-1 #
edge $-1 $238 -4.5672805968230933e-015 $238 6.283185307179596 $158 $239 forward 7 unknown #
face $-1 $240 $241 $24 $-1 $242 reversed single #
loop $-1 $-1 $243 $100 #
plane-surface $-1 -60.576799829096345 0 0 1 0 0 0 0 -1 forward_v I I I I #
coedge $-1 $244 $171 $245 $246 forward $101 $-1 #
coedge $-1 $247 $103 $244 $248 forward $65 $-1 #
coedge $-1 $103 $247 $249 $250 forward $65 $-1 #
coedge $-1 $174 $173 $103 $167 reversed $175 $-1 #
edge $-1 $251 -31.769589282603594 $252 31.769589282603594 $166 $253 forward 7 unknown #
coedge $-1 $105 $104 $254 $255 forward $41 $-1 #
coedge $-1 $256 $257 $104 $170 reversed $241 $-1 #
edge $-1 $177 -60.576799829096345 $258 60.576799829096345 $169 $259 forward 7 unknown #
coedge $-1 $163 $260 $105 $172 reversed $101 $-1 #
edge $-1 $261 -60.576799829096345 $176 60.576799829096345 $171 $262 forward 7 unknown #
coedge $-1 $166 $106 $260 $263 forward $175 $-1 #
coedge $-1 $106 $166 $256 $264 reversed $175 $-1 #
loop $-1 $-1 $173 $240 #
vertex $-1 $107 $265 #
vertex $-1 $107 $266 #
straight-curve $-1 60.576799829096345 0 14.132314016639606 0 1 0 I I #
face $-1 $267 $268 $25 $-1 $269 forward single #
loop $-1 $-1 $270 $108 #
plane-surface $-1 -60.576799829096345 0 0 1 0 0 0 0 -1 forward_v I I I I #
coedge $-1 $189 $271 $191 $272 forward $109 $-1 #
coedge $-1 $111 $191 $273 $274 reversed $69 $-1 #
coedge $-1 $275 $187 $111 $185 forward $276 $-1 #
edge $-1 $193 4.38333772387496 $277 7.960430103134752 $184 $278 forward 7 unknown #
coedge $-1 $113 $112 $270 $279 reversed $44 $-1 #
coedge $-1 $184 $280 $112 $188 forward $276 $-1 #
edge $-1 $281 -33.379623105015426 $193 -21.014730343146411 $187 $282 forward 7 unknown #
coedge $-1 $283 $182 $113 $190 forward $109 $-1 #
edge $-1 $192 21.014730343146411 $284 33.379623105015426 $189 $285 forward 7 unknown #
coedge $-1 $183 $114 $182 $272 reversed $69 $-1 #
vertex $-1 $190 $286 #
vertex $-1 $188 $287 #
straight-curve $-1 -48.21190706722733 0 10.555221637379816 0 -1 0 I I #
face $-1 $-1 $288 $26 $-1 $289 reversed single #
loop $-1 $-1 $290 $116 #
plane-surface $-1 60.576799829096345 0 0 -1 0 0 0 0 1 forward_v I I I I #
coedge $-1 $291 $119 $121 $204 forward $73 $-1 #
coedge $-1 $119 $291 $290 $292 reversed $73 $-1 #
coedge $-1 $293 $122 $119 $201 forward $117 $-1 #
edge $-1 $207 19.3374007219304 $294 33.938732978754096 $200 $295 forward 7 unknown #
coedge $-1 $296 $297 $120 $203 forward $288 $-1 #
edge $-1 $298 -64.789863795817581 $206 -52.366450182135146 $202 $299 forward 7 unknown #
edge $-1 $207 45.654972463255376 $298 63.539178565207152 $121 $300 forward 7 unknown #
coedge $-1 $122 $293 $296 $301 forward $117 $-1 #
vertex $-1 $203 $302 #
vertex $-1 $123 $303 #
straight-curve $-1 45.975467572272649 35.111846431529898 14.132314016639604 0 -1 0 I I #
coedge $-1 $209 $209 $-1 $304 reversed $126 $-1 #
edge $-1 $305 0 $305 6.2831853071796004 $127 $306 forward 7 unknown #
vertex $-1 $130 $307 #
ellipse-curve $-1 53.276133700684497 25.337178729777019 7.9206072097983879 0 0.69465837861970381 0.71933979245794832 2 0 0 1 I I #
face $-1 $-1 $308 $28 $-1 $309 reversed single #
loop $-1 $-1 $310 $131 #
plane-surface $-1 0 -31.769589282603594 0 0 1 0 0 0 1 forward_v I I I I #
coedge $-1 $217 $134 $136 $223 reversed $82 $-1 #
coedge $-1 $134 $216 $311 $312 reversed $82 $-1 #
coedge $-1 $313 $137 $134 $219 forward $132 $-1 #
edge $-1 $226 -36.791205509424024 $314 -30.519726751686282 $218 $315 forward 7 unknown #
coedge $-1 $136 $135 $310 $316 reversed $53 $-1 #
coedge $-1 $317 $318 $135 $222 forward $308 $-1 #
edge $-1 $319 -7.6602888044920308 $225 2.0964002784689315 $221 $320 forward 7 unknown #
edge $-1 $321 -5.6855610497590068e-015 $226 9.7566890829609587 $216 $322 forward 7 unknown #
coedge $-1 $137 $313 $317 $323 forward $132 $-1 #
vertex $-1 $222 $324 #
vertex $-1 $138 $325 #
straight-curve $-1 23.799905709855715 -25.498110524865851 14.132314016639606 -1 0 0 I I #
coedge $-1 $228 $228 $-1 $326 reversed $141 $-1 #
edge $-1 $327 0 $327 6.2831853071796004 $142 $328 forward 7 unknown #
vertex $-1 $145 $329 #
ellipse-curve $-1 39.813618374080477 -28.63384990373472 10.395285248593598 0 -0.7660444514056185 0.64278759981090561 1 0 0 1 I I #
coedge $-1 $232 $232 $-1 $330 reversed $148 $-1 #
edge $-1 $331 0 $331 6.2831853071796004 $149 $332 forward 7 unknown #
vertex $-1 $152 $333 #
ellipse-curve $-1 47.599811419711429 -28.63384990373472 10.395285248593598 0 -0.7660444514056185 0.64278759981090561 1 0 0 1 I I #
coedge $-1 $236 $236 $-1 $334 reversed $155 $-1 #
edge $-1 $335 0 $335 6.2831853071796004 $156 $336 forward 7 unknown #
vertex $-1 $159 $337 #
ellipse-curve $-1 55.386004465342381 -28.63384990373472 10.395285248593598 0 -0.7660444514056185 0.64278759981090561 1 0 0 1 I I #
face $-1 $-1 $175 $24 $-1 $338 reversed single #
loop $-1 $-1 $256 $160 #
plane-surface $-1 0 31.769589282603594 0 0 -1 0 0 0 -1 forward_v I I I I #
coedge $-1 $339 $254 $257 $340 forward $161 $-1 #
coedge $-1 $260 $163 $164 $248 reversed $101 $-1 #
coedge $-1 $254 $339 $163 $246 reversed $161 $-1 #
edge $-1 $261 -14.132314016639606 $341 14.132314016639606 $245 $342 forward 7 unknown #
coedge $-1 $165 $164 $339 $343 forward $65 $-1 #
edge $-1 $252 -60.576799829096345 $341 60.576799829096345 $244 $344 forward 7 unknown #
coedge $-1 $257 $256 $165 $250 reversed $241 $-1 #
edge $-1 $345 -60.576799829096345 $251 60.576799829096345 $249 $346 forward 7 unknown #
vertex $-1 $167 $347 #
vertex $-1 $263 $348 #
straight-curve $-1 60.576799829096345 0 -14.132314016639606 0 -1 0 I I #
coedge $-1 $243 $245 $168 $255 reversed $161 $-1 #
edge $-1 $258 -31.769589282603594 $261 31.769589282603594 $254 $349 forward 7 unknown #
coedge $-1 $249 $169 $174 $264 forward $241 $-1 #
coedge $-1 $169 $249 $243 $340 reversed $241 $-1 #
vertex $-1 $170 $350 #
straight-curve $-1 0 31.769589282603594 14.132314016639606 -1 0 0 I I #
coedge $-1 $171 $244 $173 $263 reversed $101 $-1 #
vertex $-1 $255 $351 #
straight-curve $-1 0 -31.769589282603594 14.132314016639606 1 0 0 I I #
edge $-1 $176 -14.132314016639606 $252 14.132314016639606 $173 $352 forward 7 unknown #
edge $-1 $177 -14.132314016639606 $251 14.132314016639606 $174 $353 forward 7 unknown #
point $-1 60.576799829096345 -31.769589282603594 14.132314016639606 #
point $-1 60.576799829096345 31.769589282603594 14.132314016639606 #
face $-1 $-1 $276 $25 $-1 $354 reversed single #
loop $-1 $-1 $273 $179 #
plane-surface $-1 0 0 14.132314016639606 0 0 1 1 0 0 forward_v I I I I #
coedge $-1 $355 $356 $186 $279 forward $180 $-1 #
coedge $-1 $182 $283 $357 $358 reversed $109 $-1 #
edge $-1 $359 -7.960430103134752 $192 -4.38333772387496 $182 $360 forward 7 unknown #
coedge $-1 $357 $361 $183 $274 forward $268 $-1 #
edge $-1 $277 -31.769589282603594 $359 31.769589282603594 $273 $362 forward 7 unknown #
coedge $-1 $280 $184 $361 $363 reversed $276 $-1 #
loop $-1 $-1 $184 $267 #
vertex $-1 $185 $364 #
straight-curve $-1 -48.21190706722733 -31.769589282603594 6.171883913504856 0 0 1 I I #
edge $-1 $284 -31.769589282603594 $281 31.769589282603594 $270 $365 forward 7 unknown #
coedge $-1 $187 $275 $355 $366 forward $276 $-1 #
vertex $-1 $279 $367 #
straight-curve $-1 -27.197176724080919 -31.769589282603594 10.555221637379816 1 0 0 I I #
coedge $-1 $271 $189 $356 $368 reversed $109 $-1 #
vertex $-1 $279 $369 #
straight-curve $-1 -27.197176724080919 31.769589282603594 10.555221637379816 -1 0 0 I I #
point $-1 -48.21190706722733 31.769589282603594 10.555221637379816 #
point $-1 -48.21190706722733 -31.769589282603594 10.555221637379816 #
loop $-1 $-1 $202 $195 #
plane-surface $-1 0 31.769589282603594 0 0 -1 0 0 0 -1 forward_v I I I I #
coedge $-1 $370 $371 $199 $292 forward $196 $-1 #
coedge $-1 $199 $198 $297 $372 reversed $73 $-1 #
edge $-1 $294 24.718397069592577 $373 42.602603171544345 $290 $374 forward 7 unknown #
coedge $-1 $205 $200 $371 $375 forward $117 $-1 #
vertex $-1 $375 $376 #
straight-curve $-1 26.638066850342248 18.90476817695043 14.132314016639604 1 0 0 I I #
coedge $-1 $377 $202 $205 $301 reversed $288 $-1 #
coedge $-1 $202 $377 $291 $372 forward $288 $-1 #
vertex $-1 $203 $378 #
straight-curve $-1 45.975467572272649 31.769589282603594 66.498764198774751 0 0 1 I I #
straight-curve $-1 45.975467572272649 -13.936670239441042 45.846923163891816 0 0.71933979245794832 -0.69465837861970381 I I #
edge $-1 $379 -60.576799829096345 $206 -45.975467572272649 $296 $380 forward 7 unknown #
point $-1 45.975467572272649 31.769589282603594 14.132314016639606 #
point $-1 45.975467572272649 18.904768176950434 14.132314016639608 #
edge $-1 $381 1 $381 0 $209 $-1 forward 7 unknown #
vertex $-1 $210 $382 #
ellipse-curve $-1 53.276133700684497 22.843641985697616 5.3384743813763738 0 0.69465837861970381 0.71933979245794832 2 0 0 1 I I #
point $-1 55.276133700684497 25.337178729777012 7.9206072097983817 #
loop $-1 $-1 $221 $213 #
plane-surface $-1 60.576799829096345 0 0 -1 0 0 0 0 1 forward_v I I I I #
coedge $-1 $383 $311 $220 $316 forward $214 $-1 #
coedge $-1 $310 $384 $217 $312 forward $214 $-1 #
edge $-1 $314 28.134829990004711 $321 35.60888752609673 $311 $385 forward 7 unknown #
coedge $-1 $224 $218 $384 $386 forward $132 $-1 #
vertex $-1 $386 $387 #
straight-curve $-1 34.622823010326513 -62.289316034289875 14.132314016639604 0 -1 0 I I #
edge $-1 $321 10.822917300470799 $319 36.77689411924063 $310 $388 forward 7 unknown #
coedge $-1 $318 $221 $224 $323 reversed $308 $-1 #
coedge $-1 $221 $317 $383 $389 forward $308 $-1 #
vertex $-1 $316 $390 #
straight-curve $-1 60.576799829096345 -26.845650628105808 12.526378215393285 0 0.64278759981090572 0.76604445140561861 I I #
vertex $-1 $316 $391 #
straight-curve $-1 34.622823010326513 -31.76958928260359 6.6582564805475926 0 0.64278759981090561 0.7660444514056185 I I #
edge $-1 $392 -31.769589282603594 $225 -25.498110524865851 $317 $393 forward 7 unknown #
point $-1 60.576799829096345 -25.498110524865851 14.132314016639604 #
point $-1 34.622823010326513 -25.498110524865851 14.132314016639604 #
edge $-1 $394 1 $394 0 $228 $-1 forward 7 unknown #
vertex $-1 $229 $395 #
ellipse-curve $-1 39.813618374080477 -25.666389096783629 7.9052900451389618 0 -0.7660444514056185 0.64278759981090561 1 0 0 1 I I #
point $-1 40.813618374080477 -28.633849903734728 10.395285248593598 #
edge $-1 $396 1 $396 0 $232 $-1 forward 7 unknown #
vertex $-1 $233 $397 #
ellipse-curve $-1 47.599811419711429 -25.666389096783629 7.9052900451389618 0 -0.7660444514056185 0.64278759981090561 1 0 0 1 I I #
point $-1 48.599811419711429 -28.633849903734728 10.395285248593598 #
edge $-1 $398 1 $398 0 $236 $-1 forward 7 unknown #
vertex $-1 $237 $399 #
ellipse-curve $-1 55.386004465342381 -25.666389096783629 7.9052900451389618 0 -0.7660444514056185 0.64278759981090561 1 0 0 1 I I #
point $-1 56.386004465342381 -28.633849903734728 10.395285248593598 #
plane-surface $-1 60.576799829096345 0 0 -1 0 0 0 0 1 forward_v I I I I #
coedge $-1 $245 $243 $247 $343 reversed $161 $-1 #
edge $-1 $258 -14.132314016639606 $345 14.132314016639606 $257 $400 forward 7 unknown #
vertex $-1 $343 $401 #
straight-curve $-1 -60.576799829096345 -31.769589282603594 0 0 0 -1 I I #
edge $-1 $341 -31.769589282603594 $345 31.769589282603594 $339 $402 forward 7 unknown #
straight-curve $-1 0 -31.769589282603594 -14.132314016639606 -1 0 0 I I #
vertex $-1 $250 $403 #
straight-curve $-1 0 31.769589282603594 -14.132314016639606 1 0 0 I I #
point $-1 60.576799829096345 31.769589282603594 -14.132314016639606 #
point $-1 60.576799829096345 -31.769589282603594 -14.132314016639606 #
straight-curve $-1 -60.576799829096345 0 14.132314016639606 0 -1 0 I I #
point $-1 -60.576799829096345 31.769589282603594 14.132314016639606 #
point $-1 -60.576799829096345 -31.769589282603594 14.132314016639606 #
straight-curve $-1 60.576799829096345 -31.769589282603594 0 0 0 -1 I I #
straight-curve $-1 60.576799829096345 31.769589282603594 0 0 0 -1 I I #
plane-surface $-1 0 -31.769589282603594 0 0 1 0 0 0 1 forward_v I I I I #
coedge $-1 $404 $270 $280 $366 reversed $180 $-1 #
coedge $-1 $270 $404 $283 $368 forward $180 $-1 #
coedge $-1 $405 $273 $271 $358 forward $268 $-1 #
edge $-1 $359 48.21190706722733 $406 60.576799829096345 $271 $407 forward 7 unknown #
vertex $-1 $358 $408 #
straight-curve $-1 -48.21190706722733 31.769589282603594 6.171883913504856 0 0 -1 I I #
coedge $-1 $273 $405 $275 $363 forward $268 $-1 #
straight-curve $-1 -48.21190706722733 0 14.132314016639606 0 1 0 I I #
edge $-1 $409 -60.576799829096345 $277 -48.21190706722733 $275 $410 forward 7 unknown #
point $-1 -48.21190706722733 -31.769589282603594 14.132314016639608 #
straight-curve $-1 -60.576799829096345 0 10.555221637379816 0 -1 0 I I #
edge $-1 $409 -14.132314016639606 $281 -10.555221637379816 $355 $411 forward 7 unknown #
point $-1 -60.576799829096345 -31.769589282603594 10.555221637379816 #
edge $-1 $406 -14.132314016639606 $284 -10.555221637379816 $283 $412 forward 7 unknown #
point $-1 -60.576799829096345 31.769589282603594 10.555221637379816 #
coedge $-1 $371 $290 $377 $413 reversed $196 $-1 #
coedge $-1 $290 $370 $293 $375 reversed $196 $-1 #
edge $-1 $373 -33.938732978754096 $298 -19.3374007219304 $297 $414 forward 7 unknown #
vertex $-1 $292 $415 #
straight-curve $-1 60.576799829096345 1.1238415590165491 31.303155647080821 0 0.71933979245794832 -0.69465837861970381 I I #
edge $-1 $294 18.904768176950434 $379 31.769589282603594 $371 $416 forward 7 unknown #
point $-1 60.576799829096345 18.904768176950434 14.132314016639608 #
coedge $-1 $297 $296 $370 $413 forward $288 $-1 #
point $-1 45.975467572272649 31.76958928260359 1.7089004029571768 #
vertex $-1 $375 $417 #
straight-curve $-1 0 31.769589282603594 14.132314016639606 -1 0 0 I I #
vertex $-1 $304 $418 #
point $-1 55.276133700684497 22.843641985697616 5.3384743813763738 #
coedge $-1 $384 $310 $318 $389 reversed $214 $-1 #
coedge $-1 $311 $383 $313 $386 reversed $214 $-1 #
straight-curve $-1 34.622823010326513 -31.76958928260359 42.267144006644315 0 0 -1 I I #
edge $-1 $314 34.622823010326513 $392 60.576799829096345 $384 $419 forward 7 unknown #
point $-1 34.622823010326513 -31.769589282603594 14.132314016639606 #
straight-curve $-1 23.799905709855715 -31.769589282603594 6.6582564805475881 1 0 0 I I #
edge $-1 $392 -14.132314016639606 $319 -6.6582564805475881 $318 $420 forward 7 unknown #
point $-1 60.576799829096345 -31.769589282603594 6.6582564805475881 #
point $-1 34.622823010326513 -31.769589282603594 6.6582564805475881 #
vertex $-1 $323 $421 #
straight-curve $-1 60.576799829096345 0 14.132314016639606 0 1 0 I I #
vertex $-1 $326 $422 #
point $-1 40.813618374080477 -25.666389096783629 7.9052900451389618 #
vertex $-1 $330 $423 #
point $-1 48.599811419711429 -25.666389096783629 7.9052900451389618 #
vertex $-1 $334 $424 #
point $-1 56.386004465342381 -25.666389096783629 7.9052900451389618 #
straight-curve $-1 -60.576799829096345 31.769589282603594 0 0 0 -1 I I #
point $-1 -60.576799829096345 -31.769589282603594 -14.132314016639606 #
straight-curve $-1 -60.576799829096345 0 -14.132314016639606 0 1 0 I I #
point $-1 -60.576799829096345 31.769589282603594 -14.132314016639606 #
coedge $-1 $356 $355 $405 $425 reversed $180 $-1 #
coedge $-1 $361 $357 $404 $425 forward $268 $-1 #
vertex $-1 $358 $426 #
straight-curve $-1 0 31.769589282603594 14.132314016639606 -1 0 0 I I #
point $-1 -48.21190706722733 31.769589282603594 14.132314016639608 #
vertex $-1 $425 $427 #
straight-curve $-1 0 -31.769589282603594 14.132314016639606 1 0 0 I I #
straight-curve $-1 -60.576799829096345 -31.769589282603594 0 0 0 -1 I I #
straight-curve $-1 -60.576799829096345 31.769589282603594 0 0 0 -1 I I #
edge $-1 $379 -14.132314016639606 $373 -1.7089004029571768 $370 $428 forward 7 unknown #
straight-curve $-1 26.638066850342248 31.76958928260359 1.7089004029571804 -1 0 0 I I #
point $-1 60.576799829096345 31.76958928260359 1.7089004029571768 #
straight-curve $-1 60.576799829096345 0 14.132314016639606 0 1 0 I I #
point $-1 60.576799829096345 31.769589282603594 14.132314016639606 #
point $-1 53.276133700684497 21.45432522845821 3.8997947964604776 #
straight-curve $-1 0 -31.769589282603594 14.132314016639606 1 0 0 I I #
straight-curve $-1 60.576799829096345 -31.769589282603594 0 0 0 -1 I I #
point $-1 60.576799829096345 -31.769589282603594 14.132314016639606 #
point $-1 39.813618374080477 -24.900344645378009 7.2625024453280567 #
point $-1 47.599811419711429 -24.900344645378009 7.2625024453280567 #
point $-1 55.386004465342381 -24.900344645378009 7.2625024453280567 #
edge $-1 $406 -31.769589282603594 $409 31.769589282603594 $404 $429 forward 7 unknown #
point $-1 -60.576799829096345 31.769589282603594 14.132314016639606 #
point $-1 -60.576799829096345 -31.769589282603594 14.132314016639606 #
straight-curve $-1 60.576799829096345 31.769589282603594 0 0 0 -1 I I #
straight-curve $-1 -60.576799829096345 0 14.132314016639606 0 -1 0 I I #
End-of-ACIS-data 