500 0 5 0           
7 Unknown 11 ACIS 5.0 NT 24 Fri Mar 26 17:14:47 1999 
-1 9.9999999999999995e-007 1e-010 
body $-1 $5 $-1 $6 #
body $-1 $7 $-1 $8 #
body $-1 $9 $-1 $10 #
body $-1 $11 $-1 $12 #
body $-1 $13 $-1 $14 #
lump $-1 $-1 $15 $0 #
transform $-1 1 0 0 0 1 0 0 0 1 43.844111453596604 26.26686038700441 9.9157057270134903 1 rotate no_reflect no_shear #
lump $-1 $-1 $16 $1 #
transform $-1 1 0 0 0 1 0 0 0 1 43.844111453596604 26.26686038700441 9.9157057270134903 1 rotate no_reflect no_shear #
lump $-1 $-1 $17 $2 #
transform $-1 1 0 0 0 1 0 0 0 1 43.844111453596604 26.26686038700441 9.9157057270134903 1 rotate no_reflect no_shear #
lump $-1 $-1 $18 $3 #
transform $-1 1 0 0 0 1 0 0 0 1 43.844111453596604 26.26686038700441 9.9157057270134903 1 rotate no_reflect no_shear #
lump $-1 $-1 $19 $4 #
transform $-1 1 0 0 0 1 0 0 0 1 43.844111453596604 26.26686038700441 9.9157057270134903 1 rotate no_reflect no_shear #
shell $-1 $-1 $-1 $20 $-1 $5 #
shell $-1 $-1 $-1 $21 $-1 $7 #
shell $-1 $-1 $-1 $22 $-1 $9 #
shell $-1 $-1 $-1 $23 $-1 $11 #
shell $-1 $-1 $-1 $24 $-1 $13 #
face $-1 $25 $26 $15 $-1 $27 forward single #
face $-1 $28 $29 $16 $-1 $30 forward single #
face $-1 $31 $32 $17 $-1 $33 reversed single #
face $-1 $34 $35 $18 $-1 $36 forward single #
face $-1 $37 $38 $19 $-1 $39 forward single #
face $-1 $40 $41 $15 $-1 $42 reversed single #
loop $-1 $-1 $43 $20 #
plane-surface $-1 0 0 9.9157057270134903 0 0 1 1 0 0 forward_v I I I I #
face $-1 $44 $45 $16 $-1 $46 reversed single #
loop $-1 $-1 $47 $21 #
plane-surface $-1 -43.844111453596604 0 0 1 0 0 0 0 -1 forward_v I I I I #
face $-1 $48 $49 $17 $-1 $50 reversed single #
loop $-1 $-1 $51 $22 #
plane-surface $-1 1.332018612117551 -19.391796080756041 77.537654516280227 0.87461971476443456 0 0.48480960649040278 0.48480960649040278 0 -0.87461971476443456 forward_v I I I I #
face $-1 $52 $53 $18 $-1 $54 forward single #
loop $-1 $55 $56 $23 #
cone-surface $-1 39.243446302219411 -22.338252212005344 4.2232747840788862 -0.87461971476443456 0 -0.48480960649040278 0.72721440973560414 0 -1.311929572146652 1 I I 0 1 1.5 forward I I I I #
face $-1 $57 $58 $19 $-1 $59 forward single #
loop $-1 $60 $61 $24 #
cone-surface $-1 39.243446302219411 -16.445339949506739 4.2232747840788862 -0.87461971476443456 0 -0.48480960649040278 0.72721440973560414 0 -1.311929572146652 1 I I 0 1 1.5 forward I I I I #
face $-1 $62 $63 $15 $-1 $64 reversed single #
loop $-1 $-1 $65 $25 #
plane-surface $-1 0 0 -9.9157057270134903 0 0 1 1 0 0 forward_v I I I I #
coedge $-1 $66 $67 $68 $69 forward $26 $-1 #
face $-1 $70 $71 $16 $-1 $72 forward single #
loop $-1 $-1 $73 $28 #
plane-surface $-1 0 26.26686038700441 0 0 -1 0 0 0 -1 forward_v I I I I #
coedge $-1 $74 $75 $76 $77 forward $29 $-1 #
face $-1 $78 $79 $17 $-1 $80 forward single #
loop $-1 $-1 $81 $31 #
plane-surface $-1 78.025867119407025 -12.516731774507672 120.04974735775929 0 -1 0 -0.87461971476443456 0 -0.48480960649040278 forward_v I I I I #
coedge $-1 $82 $83 $84 $85 reversed $32 $-1 #
face $-1 $-1 $86 $18 $-1 $87 forward single #
loop $-1 $88 $89 $34 #
cone-surface $-1 36.501134335293706 -22.338252212005344 2.7031864952878504 -0.87461971476443456 0 -0.48480960649040278 0.36360720486780207 0 -0.65596478607332598 1 I I -0.70710678118654757 0.70710678118654757 0.75 forward I I I I #
loop $-1 $-1 $90 $23 #
coedge $-1 $56 $56 $91 $92 reversed $35 $-1 #
face $-1 $-1 $93 $19 $-1 $94 forward single #
loop $-1 $95 $96 $37 #
cone-surface $-1 36.501134335293706 -16.445339949506739 2.7031864952878504 -0.87461971476443456 0 -0.48480960649040278 0.36360720486780207 0 -0.65596478607332598 1 I I -0.70710678118654757 0.70710678118654757 0.75 forward I I I I #
loop $-1 $-1 $97 $24 #
coedge $-1 $61 $61 $98 $99 reversed $38 $-1 #
face $-1 $100 $101 $15 $-1 $102 reversed single #
loop $-1 $-1 $103 $40 #
plane-surface $-1 0 -26.26686038700441 0 0 1 0 0 0 1 forward_v I I I I #
coedge $-1 $104 $105 $106 $107 forward $41 $-1 #
coedge $-1 $108 $43 $109 $110 forward $26 $-1 #
coedge $-1 $43 $108 $111 $112 forward $26 $-1 #
coedge $-1 $113 $114 $43 $69 reversed $115 $-1 #
edge $-1 $116 -26.26686038700441 $117 26.26686038700441 $68 $118 forward 7 unknown #
face $-1 $119 $120 $16 $-1 $121 reversed single #
loop $-1 $-1 $76 $44 #
plane-surface $-1 -47.806241900089901 0 -6.1728120274029354 0 0 1 1 0 0 forward_v I I I I #
coedge $-1 $122 $123 $75 $124 forward $45 $-1 #
coedge $-1 $125 $47 $126 $127 reversed $29 $-1 #
coedge $-1 $47 $125 $73 $124 reversed $29 $-1 #
coedge $-1 $128 $129 $47 $77 reversed $71 $-1 #
edge $-1 $130 -26.26686038700441 $131 26.26686038700441 $76 $132 forward 7 unknown #
face $-1 $133 $134 $17 $-1 $135 reversed single #
loop $-1 $-1 $136 $48 #
plane-surface $-1 0 0 9.9157057270134903 0 0 1 1 0 0 forward_v I I I I #
coedge $-1 $137 $138 $139 $140 reversed $49 $-1 #
coedge $-1 $141 $51 $142 $143 reversed $32 $-1 #
coedge $-1 $51 $141 $137 $144 forward $32 $-1 #
coedge $-1 $139 $145 $51 $85 forward $146 $-1 #
edge $-1 $147 -16.570962346626388 $148 -2.8208337341296517 $84 $149 forward 7 unknown #
loop $-1 $-1 $91 $52 #
plane-surface $-1 1.332018612117551 -19.391796080756041 77.537654516280227 0.87461971476443456 0 0.48480960649040278 0.48480960649040278 0 -0.87461971476443456 forward_v I I I I #
loop $-1 $-1 $150 $34 #
coedge $-1 $89 $89 $90 $151 reversed $53 $-1 #
coedge $-1 $90 $90 $89 $151 forward $55 $-1 #
coedge $-1 $91 $91 $56 $92 forward $86 $-1 #
edge $-1 $152 0 $152 6.2831853071796004 $91 $153 forward 7 unknown #
loop $-1 $-1 $98 $57 #
plane-surface $-1 1.332018612117551 -19.391796080756041 77.537654516280227 0.87461971476443456 0 0.48480960649040278 0.48480960649040278 0 -0.87461971476443456 forward_v I I I I #
loop $-1 $-1 $154 $37 #
coedge $-1 $96 $96 $97 $155 reversed $58 $-1 #
coedge $-1 $97 $97 $96 $155 forward $60 $-1 #
coedge $-1 $98 $98 $61 $99 forward $93 $-1 #
edge $-1 $156 0 $156 6.2831853071796004 $98 $157 forward 7 unknown #
face $-1 $158 $159 $15 $-1 $160 reversed single #
loop $-1 $-1 $161 $62 #
plane-surface $-1 -43.844111453596604 0 0 1 0 0 0 0 -1 forward_v I I I I #
coedge $-1 $162 $111 $163 $164 forward $63 $-1 #
coedge $-1 $165 $65 $162 $166 forward $41 $-1 #
coedge $-1 $65 $165 $167 $168 forward $41 $-1 #
coedge $-1 $114 $113 $65 $107 reversed $115 $-1 #
edge $-1 $169 -26.26686038700441 $170 26.26686038700441 $106 $171 forward 7 unknown #
coedge $-1 $67 $66 $172 $173 forward $26 $-1 #
coedge $-1 $174 $175 $66 $110 reversed $159 $-1 #
edge $-1 $117 -43.844111453596604 $176 43.844111453596604 $109 $177 forward 7 unknown #
coedge $-1 $103 $178 $67 $112 reversed $63 $-1 #
edge $-1 $179 -43.844111453596604 $116 43.844111453596604 $111 $180 forward 7 unknown #
coedge $-1 $106 $68 $178 $181 forward $115 $-1 #
coedge $-1 $68 $106 $174 $182 reversed $115 $-1 #
loop $-1 $-1 $113 $158 #
vertex $-1 $69 $183 #
vertex $-1 $69 $184 #
straight-curve $-1 43.844111453596604 0 9.9157057270134903 0 1 0 I I #
face $-1 $185 $186 $16 $-1 $187 reversed single #
loop $-1 $-1 $188 $70 #
plane-surface $-1 -51.768372346583199 0 -8.0442588772082129 1 0 0 0 0 -1 forward_v I I I I #
coedge $-1 $189 $73 $190 $191 reversed $45 $-1 #
coedge $-1 $73 $189 $128 $192 reversed $45 $-1 #
edge $-1 $130 6.1728120274029354 $193 9.9157057270134903 $73 $194 forward 7 unknown #
coedge $-1 $75 $74 $195 $196 reversed $29 $-1 #
coedge $-1 $197 $198 $74 $127 forward $199 $-1 #
edge $-1 $200 -9.9157057270134903 $131 -6.1728120274029354 $126 $201 forward 7 unknown #
coedge $-1 $202 $76 $123 $192 forward $71 $-1 #
coedge $-1 $76 $202 $197 $203 forward $71 $-1 #
vertex $-1 $124 $204 #
vertex $-1 $203 $205 #
straight-curve $-1 -43.844111453596604 0 -6.1728120274029354 0 -1 0 I I #
face $-1 $-1 $146 $17 $-1 $206 reversed single #
loop $-1 $-1 $142 $78 #
plane-surface $-1 0 -26.26686038700441 0 0 1 0 0 0 1 forward_v I I I I #
coedge $-1 $207 $208 $138 $209 forward $79 $-1 #
coedge $-1 $138 $81 $83 $144 reversed $49 $-1 #
coedge $-1 $81 $137 $136 $209 reversed $49 $-1 #
coedge $-1 $210 $84 $81 $140 forward $146 $-1 #
edge $-1 $148 -59.18106766988889 $211 -50.109167951866155 $139 $212 forward 7 unknown #
coedge $-1 $83 $82 $207 $213 reversed $32 $-1 #
coedge $-1 $214 $215 $82 $143 forward $134 $-1 #
edge $-1 $216 43.730736623004006 $147 54.103129978516364 $142 $217 forward 7 unknown #
edge $-1 $218 77.315829551680849 $148 87.688222907193207 $137 $219 forward 7 unknown #
coedge $-1 $84 $210 $214 $220 forward $146 $-1 #
loop $-1 $-1 $139 $133 #
vertex $-1 $143 $221 #
vertex $-1 $85 $222 #
straight-curve $-1 43.844111453596604 -9.6958980403780206 0.84380600899075375 0 1 0 I I #
coedge $-1 $150 $150 $-1 $223 reversed $88 $-1 #
edge $-1 $224 0 $224 6.2831853071796004 $89 $225 forward 7 unknown #
vertex $-1 $92 $226 #
ellipse-curve $-1 41.329793483071796 -22.338252212005344 5.3797558680021247 0.87461971476443456 0 0.48480960649040278 0.72721440973560414 0 -1.311929572146652 1 I I #
coedge $-1 $154 $154 $-1 $227 reversed $95 $-1 #
edge $-1 $228 0 $228 6.2831853071796004 $96 $229 forward 7 unknown #
vertex $-1 $99 $230 #
ellipse-curve $-1 41.329793483071796 -16.445339949506739 5.3797558680021247 0.87461971476443456 0 0.48480960649040278 0.72721440973560414 0 -1.311929572146652 1 I I #
face $-1 $-1 $115 $15 $-1 $231 reversed single #
loop $-1 $-1 $174 $100 #
plane-surface $-1 0 26.26686038700441 0 0 -1 0 0 0 -1 forward_v I I I I #
coedge $-1 $232 $172 $175 $233 forward $101 $-1 #
coedge $-1 $178 $103 $104 $166 reversed $63 $-1 #
coedge $-1 $172 $232 $103 $164 reversed $101 $-1 #
edge $-1 $179 -9.9157057270134903 $234 9.9157057270134903 $163 $235 forward 7 unknown #
coedge $-1 $105 $104 $232 $236 forward $41 $-1 #
edge $-1 $170 -43.844111453596604 $234 43.844111453596604 $162 $237 forward 7 unknown #
coedge $-1 $175 $174 $105 $168 reversed $159 $-1 #
edge $-1 $238 -43.844111453596604 $169 43.844111453596604 $167 $239 forward 7 unknown #
vertex $-1 $107 $240 #
vertex $-1 $181 $241 #
straight-curve $-1 43.844111453596604 0 -9.9157057270134903 0 -1 0 I I #
coedge $-1 $161 $163 $108 $173 reversed $101 $-1 #
edge $-1 $176 -26.26686038700441 $179 26.26686038700441 $172 $242 forward 7 unknown #
coedge $-1 $167 $109 $114 $182 forward $159 $-1 #
coedge $-1 $109 $167 $161 $233 reversed $159 $-1 #
vertex $-1 $110 $243 #
straight-curve $-1 0 26.26686038700441 9.9157057270134903 -1 0 0 I I #
coedge $-1 $111 $162 $113 $181 reversed $63 $-1 #
vertex $-1 $173 $244 #
straight-curve $-1 0 -26.26686038700441 9.9157057270134903 1 0 0 I I #
edge $-1 $116 -9.9157057270134903 $170 9.9157057270134903 $113 $245 forward 7 unknown #
edge $-1 $117 -9.9157057270134903 $169 9.9157057270134903 $114 $246 forward 7 unknown #
point $-1 43.844111453596604 -26.26686038700441 9.9157057270134903 #
point $-1 43.844111453596604 26.26686038700441 9.9157057270134903 #
face $-1 $-1 $199 $16 $-1 $247 reversed single #
loop $-1 $-1 $195 $119 #
plane-surface $-1 0 0 -9.9157057270134903 0 0 1 1 0 0 forward_v I I I I #
coedge $-1 $248 $249 $189 $250 forward $120 $-1 #
coedge $-1 $123 $122 $188 $250 reversed $45 $-1 #
coedge $-1 $195 $251 $122 $191 forward $186 $-1 #
edge $-1 $252 -51.768372346583199 $193 -43.844111453596604 $122 $253 forward 7 unknown #
edge $-1 $130 -3.9621304464932976 $254 3.9621304464932976 $123 $255 forward 7 unknown #
vertex $-1 $124 $256 #
straight-curve $-1 -43.844111453596604 26.26686038700441 0 0 0 -1 I I #
coedge $-1 $257 $190 $125 $196 forward $186 $-1 #
edge $-1 $193 -26.26686038700441 $200 26.26686038700441 $195 $258 forward 7 unknown #
coedge $-1 $259 $126 $129 $203 reversed $199 $-1 #
coedge $-1 $126 $259 $257 $260 reversed $199 $-1 #
loop $-1 $-1 $126 $185 #
vertex $-1 $260 $261 #
straight-curve $-1 -43.844111453596604 -26.26686038700441 0 0 0 1 I I #
coedge $-1 $129 $128 $249 $262 forward $71 $-1 #
edge $-1 $263 -3.9621304464932976 $131 3.9621304464932976 $197 $264 forward 7 unknown #
point $-1 -43.844111453596604 26.26686038700441 -6.1728120274029354 #
point $-1 -43.844111453596604 -26.26686038700441 -6.1728120274029354 #
plane-surface $-1 43.844111453596604 0 0 -1 0 0 0 0 1 forward_v I I I I #
coedge $-1 $265 $136 $141 $213 forward $79 $-1 #
coedge $-1 $136 $265 $210 $266 forward $79 $-1 #
edge $-1 $211 -4.8311778938930914 $218 0.19745804715652326 $136 $267 forward 7 unknown #
coedge $-1 $145 $139 $208 $266 reversed $146 $-1 #
vertex $-1 $209 $268 #
straight-curve $-1 43.844111453596604 -12.516731774507672 60.024873678879644 0 0 1 I I #
edge $-1 $218 2.8208337341296517 $216 16.570962346626388 $207 $269 forward 7 unknown #
coedge $-1 $215 $142 $145 $220 reversed $134 $-1 #
coedge $-1 $142 $214 $265 $270 reversed $134 $-1 #
vertex $-1 $270 $271 #
straight-curve $-1 17.614394298812979 -26.26686038700441 48.163470118663867 0.48480960649040278 0 -0.87461971476443456 I I #
vertex $-1 $213 $272 #
straight-curve $-1 1.332018612117551 -12.516731774507672 77.537654516280227 0.48480960649040278 0 -0.87461971476443456 I I #
edge $-1 $273 -9.9157057270134903 $147 -0.84380600899075819 $145 $274 forward 7 unknown #
point $-1 43.844111453596604 -26.26686038700441 0.84380600899075819 #
point $-1 43.844111453596604 -12.516731774507672 0.84380600899075375 #
edge $-1 $275 1 $275 0 $150 $-1 forward 7 unknown #
vertex $-1 $151 $276 #
ellipse-curve $-1 37.157099121367033 -22.338252212005344 3.0667937001556522 0.87461971476443456 0 0.48480960649040278 0.72721440973560414 0 -1.311929572146652 1 I I #
point $-1 42.057007892807391 -22.338252212005344 4.0678262958554683 #
edge $-1 $277 1 $277 0 $154 $-1 forward 7 unknown #
vertex $-1 $155 $278 #
ellipse-curve $-1 37.157099121367033 -16.445339949506739 3.0667937001556522 0.87461971476443456 0 0.48480960649040278 0.72721440973560414 0 -1.311929572146652 1 I I #
point $-1 42.057007892807391 -16.445339949506739 4.0678262958554683 #
plane-surface $-1 43.844111453596604 0 0 -1 0 0 0 0 1 forward_v I I I I #
coedge $-1 $163 $161 $165 $236 reversed $101 $-1 #
edge $-1 $176 -9.9157057270134903 $238 9.9157057270134903 $175 $279 forward 7 unknown #
vertex $-1 $236 $280 #
straight-curve $-1 -43.844111453596604 -26.26686038700441 0 0 0 -1 I I #
edge $-1 $234 -26.26686038700441 $238 26.26686038700441 $232 $281 forward 7 unknown #
straight-curve $-1 0 -26.26686038700441 -9.9157057270134903 -1 0 0 I I #
vertex $-1 $168 $282 #
straight-curve $-1 0 26.26686038700441 -9.9157057270134903 1 0 0 I I #
point $-1 43.844111453596604 26.26686038700441 -9.9157057270134903 #
point $-1 43.844111453596604 -26.26686038700441 -9.9157057270134903 #
straight-curve $-1 -43.844111453596604 0 9.9157057270134903 0 -1 0 I I #
point $-1 -43.844111453596604 26.26686038700441 9.9157057270134903 #
point $-1 -43.844111453596604 -26.26686038700441 9.9157057270134903 #
straight-curve $-1 43.844111453596604 -26.26686038700441 0 0 0 -1 I I #
straight-curve $-1 43.844111453596604 26.26686038700441 0 0 0 -1 I I #
plane-surface $-1 0 -26.26686038700441 0 0 1 0 0 0 1 forward_v I I I I #
coedge $-1 $283 $188 $251 $284 reversed $120 $-1 #
coedge $-1 $188 $283 $202 $262 reversed $120 $-1 #
edge $-1 $254 -1.8714468498052774 $252 1.8714468498052774 $189 $285 forward 7 unknown #
coedge $-1 $190 $257 $248 $284 forward $186 $-1 #
vertex $-1 $191 $286 #
straight-curve $-1 0 26.26686038700441 -9.9157057270134903 1 0 0 I I #
vertex $-1 $192 $287 #
straight-curve $-1 -47.806241900089901 26.26686038700441 -6.1728120274029354 -1 0 0 I I #
point $-1 -43.844111453596604 26.26686038700441 -9.9157057270134903 #
coedge $-1 $251 $195 $198 $260 forward $186 $-1 #
straight-curve $-1 -43.844111453596604 0 -9.9157057270134903 0 -1 0 I I #
coedge $-1 $198 $197 $283 $288 forward $199 $-1 #
edge $-1 $200 -3.9621304464932976 $289 3.9621304464932976 $198 $290 forward 7 unknown #
point $-1 -43.844111453596604 -26.26686038700441 -9.9157057270134903 #
edge $-1 $254 -26.26686038700441 $263 26.26686038700441 $249 $291 forward 7 unknown #
vertex $-1 $262 $292 #
straight-curve $-1 -47.806241900089901 -26.26686038700441 -6.1728120274029354 1 0 0 I I #
coedge $-1 $208 $207 $215 $270 forward $79 $-1 #
edge $-1 $273 -26.26686038700441 $211 -12.516731774507672 $210 $293 forward 7 unknown #
straight-curve $-1 39.012933559703512 -12.516731774507672 9.9157057270134885 -1 0 0 I I #
point $-1 43.844111453596604 -12.516731774507672 9.9157057270134903 #
straight-curve $-1 38.815475512546996 -9.6958980403780206 9.9157057270134956 0 -1 0 I I #
edge $-1 $216 38.815475512546989 $273 43.844111453596604 $215 $294 forward 7 unknown #
point $-1 38.815475512546989 -26.26686038700441 9.9157057270134885 #
point $-1 38.815475512546989 -12.516731774507672 9.9157057270134885 #
vertex $-1 $266 $295 #
straight-curve $-1 43.844111453596604 -26.26686038700441 0 0 0 -1 I I #
vertex $-1 $223 $296 #
point $-1 37.884313531102634 -22.338252212005344 1.7548641280090005 #
vertex $-1 $227 $297 #
point $-1 37.884313531102634 -16.445339949506739 1.7548641280090005 #
straight-curve $-1 -43.844111453596604 26.26686038700441 0 0 0 -1 I I #
point $-1 -43.844111453596604 -26.26686038700441 -9.9157057270134903 #
straight-curve $-1 -43.844111453596604 0 -9.9157057270134903 0 1 0 I I #
point $-1 -43.844111453596604 26.26686038700441 -9.9157057270134903 #
coedge $-1 $249 $248 $259 $288 reversed $120 $-1 #
edge $-1 $289 -26.26686038700441 $252 26.26686038700441 $248 $298 forward 7 unknown #
straight-curve $-1 -51.768372346583199 26.26686038700441 -8.0442588772082129 0 0 -1 I I #
point $-1 -51.768372346583199 26.26686038700441 -9.9157057270134903 #
point $-1 -51.768372346583199 26.26686038700441 -6.1728120274029354 #
edge $-1 $263 -1.8714468498052774 $289 1.8714468498052774 $283 $299 forward 7 unknown #
vertex $-1 $284 $300 #
straight-curve $-1 -47.806241900089901 -26.26686038700441 -9.9157057270134903 -1 0 0 I I #
straight-curve $-1 -51.768372346583199 0 -6.1728120274029354 0 -1 0 I I #
point $-1 -51.768372346583199 -26.26686038700441 -6.1728120274029354 #
straight-curve $-1 43.844111453596604 0 9.9157057270134903 0 1 0 I I #
straight-curve $-1 0 -26.26686038700441 9.9157057270134903 1 0 0 I I #
point $-1 43.844111453596604 -26.26686038700441 9.9157057270134903 #
point $-1 35.84516954922038 -22.338252212005344 2.3395792904200485 #
point $-1 35.84516954922038 -16.445339949506739 2.3395792904200485 #
straight-curve $-1 -51.768372346583199 0 -9.9157057270134903 0 1 0 I I #
straight-curve $-1 -51.768372346583199 -26.26686038700441 -8.0442588772082129 0 0 -1 I I #
point $-1 -51.768372346583199 -26.26686038700441 -9.9157057270134903 #
End-of-ACIS-data 