500 0 8 0           
7 Unknown 11 ACIS 5.0 NT 24 Fri Mar 26 03:24:33 1999 
-1 9.9999999999999995e-007 1e-010 
body $-1 $8 $-1 $9 #
body $-1 $10 $-1 $11 #
body $-1 $12 $-1 $13 #
body $-1 $14 $-1 $15 #
body $-1 $16 $-1 $17 #
body $-1 $18 $-1 $19 #
body $-1 $20 $-1 $21 #
body $-1 $22 $-1 $23 #
lump $-1 $-1 $24 $0 #
transform $-1 1 0 0 0 1 0 0 0 1 70.104678487502667 41.758785521620098 18.305964750805856 1 rotate no_reflect no_shear #
lump $-1 $-1 $25 $1 #
transform $-1 1 0 0 0 1 0 0 0 1 70.104678487502667 41.758785521620098 18.305964750805856 1 rotate no_reflect no_shear #
lump $-1 $-1 $26 $2 #
transform $-1 1 0 0 0 1 0 0 0 1 70.104678487502667 41.758785521620098 18.305964750805856 1 rotate no_reflect no_shear #
lump $-1 $-1 $27 $3 #
transform $-1 1 0 0 0 1 0 0 0 1 70.104678487502667 41.758785521620098 18.305964750805856 1 rotate no_reflect no_shear #
lump $-1 $-1 $28 $4 #
transform $-1 1 0 0 0 1 0 0 0 1 70.104678487502667 41.758785521620098 18.305964750805856 1 rotate no_reflect no_shear #
lump $-1 $-1 $29 $5 #
transform $-1 1 0 0 0 1 0 0 0 1 70.104678487502667 41.758785521620098 18.305964750805856 1 rotate no_reflect no_shear #
lump $-1 $-1 $30 $6 #
transform $-1 1 0 0 0 1 0 0 0 1 70.104678487502667 41.758785521620098 18.305964750805856 1 rotate no_reflect no_shear #
lump $-1 $-1 $31 $7 #
transform $-1 1 0 0 0 1 0 0 0 1 70.104678487502667 41.758785521620098 18.305964750805856 1 rotate no_reflect no_shear #
shell $-1 $-1 $-1 $32 $-1 $8 #
shell $-1 $-1 $-1 $33 $-1 $10 #
shell $-1 $-1 $-1 $34 $-1 $12 #
shell $-1 $-1 $-1 $35 $-1 $14 #
shell $-1 $-1 $-1 $36 $-1 $16 #
shell $-1 $-1 $-1 $37 $-1 $18 #
shell $-1 $-1 $-1 $38 $-1 $20 #
shell $-1 $-1 $-1 $39 $-1 $22 #
face $-1 $40 $41 $24 $-1 $42 reversed single #
face $-1 $43 $44 $25 $-1 $45 forward single #
face $-1 $46 $47 $26 $-1 $48 reversed single #
face $-1 $49 $50 $27 $-1 $51 forward single #
face $-1 $52 $53 $28 $-1 $54 forward single #
face $-1 $55 $56 $29 $-1 $57 reversed single #
face $-1 $58 $59 $30 $-1 $60 forward single #
face $-1 $61 $62 $31 $-1 $63 forward single #
face $-1 $64 $65 $24 $-1 $66 forward single #
loop $-1 $-1 $67 $32 #
plane-surface $-1 -70.104678487502667 0 0 1 0 0 0 0 -1 forward_v I I I I #
face $-1 $68 $69 $25 $-1 $70 reversed single #
loop $-1 $-1 $71 $33 #
plane-surface $-1 -70.104678487502667 0 0 1 0 0 0 0 -1 forward_v I I I I #
face $-1 $72 $73 $26 $-1 $74 reversed single #
loop $-1 $-1 $75 $34 #
plane-surface $-1 48.539472447300554 -161.94166267158778 81.164484630518189 -1 0 0 0 -0.85716730853699208 0.51503806187062418 forward_v I I I I #
face $-1 $76 $77 $27 $-1 $78 forward single #
loop $-1 $79 $80 $35 #
cone-surface $-1 31.014781251933954 -35.173427431543018 11.360432973309539 0 0.85716730853699208 -0.51503806187062418 2.5 0 0 1 I I 0 1 2.5 forward I I I I #
face $-1 $81 $82 $28 $-1 $83 forward single #
loop $-1 $84 $85 $36 #
cone-surface $-1 41.529595969153917 -35.173427431543018 11.360432973309539 0 0.85716730853699208 -0.51503806187062418 2.5 0 0 1 I I 0 1 2.5 forward I I I I #
face $-1 $86 $87 $29 $-1 $88 reversed single #
loop $-1 $-1 $89 $37 #
plane-surface $-1 33.701498165615142 121.42486719208406 154.16274598861105 1 0 0 0 -0.86602541151947299 -0.49999998660252726 forward_v I I I I #
face $-1 $90 $91 $30 $-1 $92 forward single #
loop $-1 $93 $94 $38 #
cone-surface $-1 44.102406829011585 37.858649745260955 13.862142244888721 0 -0.86602541151947299 -0.49999998660252726 1.5 0 0 1 I I 0 1 1.5 forward I I I I #
face $-1 $95 $96 $31 $-1 $97 forward single #
loop $-1 $98 $99 $39 #
cone-surface $-1 59.703769824106246 37.858649745260955 13.862142244888721 0 -0.86602541151947299 -0.49999998660252726 1.5 0 0 1 I I 0 1 1.5 forward I I I I #
face $-1 $100 $101 $24 $-1 $102 reversed single #
loop $-1 $-1 $103 $40 #
plane-surface $-1 0 0 18.305964750805856 0 0 1 1 0 0 forward_v I I I I #
coedge $-1 $104 $105 $106 $107 reversed $41 $-1 #
face $-1 $108 $109 $25 $-1 $110 reversed single #
loop $-1 $-1 $111 $43 #
plane-surface $-1 0 0 -18.305964750805856 0 0 1 1 0 0 forward_v I I I I #
coedge $-1 $112 $113 $114 $115 forward $44 $-1 #
face $-1 $116 $117 $26 $-1 $118 reversed single #
loop $-1 $-1 $119 $46 #
plane-surface $-1 36.272188610543935 -41.758785521620112 8.9513291579849579 0 -0.85716730853699208 0.51503806187062418 1 0 0 forward_v I I I I #
coedge $-1 $120 $121 $122 $123 reversed $47 $-1 #
face $-1 $-1 $124 $27 $-1 $125 forward single #
loop $-1 $126 $127 $49 #
cone-surface $-1 31.014781251933954 -30.327026175493636 8.4484214148853987 0 0.85716730853699208 -0.51503806187062418 1.25 0 0 1 I I -0.70710678118654724 0.70710678118654768 1.25 forward I I I I #
loop $-1 $-1 $128 $35 #
coedge $-1 $80 $80 $129 $130 reversed $50 $-1 #
face $-1 $-1 $131 $28 $-1 $132 forward single #
loop $-1 $133 $134 $52 #
cone-surface $-1 41.529595969153917 -30.327026175493636 8.4484214148853987 0 0.85716730853699208 -0.51503806187062418 1.25 0 0 1 I I -0.70710678118654724 0.70710678118654768 1.25 forward I I I I #
loop $-1 $-1 $135 $36 #
coedge $-1 $85 $85 $136 $137 reversed $53 $-1 #
face $-1 $138 $139 $29 $-1 $140 reversed single #
loop $-1 $-1 $141 $55 #
plane-surface $-1 51.903088326558901 1.1189243735998389e-006 84.058069379559427 0 0.86602541151947299 0.49999998660252726 1 0 0 forward_v I I I I #
coedge $-1 $142 $143 $144 $145 reversed $56 $-1 #
face $-1 $-1 $146 $30 $-1 $147 forward single #
loop $-1 $148 $149 $58 #
cone-surface $-1 44.102406829011585 35.207390136138798 12.331436850557353 0 -0.86602541151947299 -0.49999998660252726 0.75 0 0 1 I I -0.70710678118654757 0.70710678118654757 0.75 forward I I I I #
loop $-1 $-1 $150 $38 #
coedge $-1 $94 $94 $151 $152 reversed $59 $-1 #
face $-1 $-1 $153 $31 $-1 $154 forward single #
loop $-1 $155 $156 $61 #
cone-surface $-1 59.703769824106246 35.207390136138798 12.331436850557353 0 -0.86602541151947299 -0.49999998660252726 0.75 0 0 1 I I -0.70710678118654757 0.70710678118654757 0.75 forward I I I I #
loop $-1 $-1 $157 $39 #
coedge $-1 $99 $99 $158 $159 reversed $62 $-1 #
face $-1 $160 $161 $24 $-1 $162 reversed single #
loop $-1 $-1 $163 $64 #
plane-surface $-1 0 0 -18.305964750805856 0 0 1 1 0 0 forward_v I I I I #
coedge $-1 $164 $165 $166 $167 forward $65 $-1 #
coedge $-1 $168 $67 $169 $170 reversed $41 $-1 #
coedge $-1 $67 $168 $171 $172 forward $41 $-1 #
coedge $-1 $173 $174 $67 $107 forward $101 $-1 #
edge $-1 $175 -41.758785521620098 $176 41.758785521620098 $67 $177 forward 7 unknown #
face $-1 $178 $179 $25 $-1 $180 reversed single #
loop $-1 $-1 $181 $68 #
plane-surface $-1 -78.502891081174397 -26.478456795485734 0 0 1 0 0 0 1 forward_v I I I I #
coedge $-1 $182 $183 $113 $184 forward $69 $-1 #
coedge $-1 $185 $71 $186 $187 reversed $44 $-1 #
coedge $-1 $71 $185 $111 $184 reversed $44 $-1 #
coedge $-1 $188 $189 $71 $115 reversed $190 $-1 #
edge $-1 $191 -18.305964750805856 $192 18.305964750805856 $114 $193 forward 7 unknown #
face $-1 $194 $195 $26 $-1 $196 forward single #
loop $-1 $-1 $197 $72 #
plane-surface $-1 24.004904773787317 -161.94166267158778 81.164484630518189 1 0 0 0 0.85716730853699208 -0.51503806187062418 forward_v I I I I #
coedge $-1 $198 $199 $200 $201 reversed $73 $-1 #
coedge $-1 $121 $75 $202 $203 reversed $47 $-1 #
coedge $-1 $75 $120 $198 $204 reversed $47 $-1 #
coedge $-1 $200 $205 $75 $123 forward $195 $-1 #
edge $-1 $206 39.212045814173791 $207 44.832877753571644 $122 $208 forward 7 unknown #
loop $-1 $-1 $129 $76 #
plane-surface $-1 36.272188610543935 -41.758785521620112 8.9513291579849579 0 -0.85716730853699208 0.51503806187062418 1 0 0 forward_v I I I I #
loop $-1 $-1 $209 $49 #
coedge $-1 $127 $127 $128 $210 reversed $77 $-1 #
coedge $-1 $128 $128 $127 $210 forward $79 $-1 #
coedge $-1 $129 $129 $80 $130 forward $124 $-1 #
edge $-1 $211 -1.1761759404291711e-016 $211 6.2831853071796004 $129 $212 forward 7 unknown #
loop $-1 $-1 $136 $81 #
plane-surface $-1 36.272188610543935 -41.758785521620112 8.9513291579849579 0 -0.85716730853699208 0.51503806187062418 1 0 0 forward_v I I I I #
loop $-1 $-1 $213 $52 #
coedge $-1 $134 $134 $135 $214 reversed $82 $-1 #
coedge $-1 $135 $135 $134 $214 forward $84 $-1 #
coedge $-1 $136 $136 $85 $137 forward $131 $-1 #
edge $-1 $215 -1.1761759404291711e-016 $215 6.2831853071796004 $136 $216 forward 7 unknown #
face $-1 $217 $218 $29 $-1 $219 forward single #
loop $-1 $-1 $220 $86 #
plane-surface $-1 0 41.758785521620098 0 0 -1 0 0 0 -1 forward_v I I I I #
coedge $-1 $221 $222 $223 $224 reversed $87 $-1 #
coedge $-1 $143 $89 $225 $226 reversed $56 $-1 #
coedge $-1 $89 $142 $221 $227 reversed $56 $-1 #
coedge $-1 $223 $228 $89 $145 forward $218 $-1 #
edge $-1 $229 18.953648074421935 $230 22.750438526175117 $144 $231 forward 7 unknown #
loop $-1 $-1 $151 $90 #
plane-surface $-1 51.903088326558901 1.1189243735998389e-006 84.058069379559427 0 0.86602541151947299 0.49999998660252726 1 0 0 forward_v I I I I #
loop $-1 $-1 $232 $58 #
coedge $-1 $149 $149 $150 $233 reversed $91 $-1 #
coedge $-1 $150 $150 $149 $233 forward $93 $-1 #
coedge $-1 $151 $151 $94 $152 forward $146 $-1 #
edge $-1 $234 3.1731550527444483e-016 $234 6.2831853071796004 $151 $235 forward 7 unknown #
loop $-1 $-1 $158 $95 #
plane-surface $-1 51.903088326558901 1.1189243735998389e-006 84.058069379559427 0 0.86602541151947299 0.49999998660252726 1 0 0 forward_v I I I I #
loop $-1 $-1 $236 $61 #
coedge $-1 $156 $156 $157 $237 reversed $96 $-1 #
coedge $-1 $157 $157 $156 $237 forward $98 $-1 #
coedge $-1 $158 $158 $99 $159 forward $153 $-1 #
edge $-1 $238 3.1731550527444483e-016 $238 6.2831853071796004 $158 $239 forward 7 unknown #
face $-1 $240 $241 $24 $-1 $242 reversed single #
loop $-1 $-1 $169 $100 #
plane-surface $-1 0 -41.758785521620098 0 0 1 0 0 0 1 forward_v I I I I #
coedge $-1 $174 $173 $243 $244 forward $101 $-1 #
coedge $-1 $245 $103 $246 $247 forward $65 $-1 #
coedge $-1 $103 $245 $248 $249 forward $65 $-1 #
coedge $-1 $250 $251 $103 $167 reversed $252 $-1 #
edge $-1 $253 -41.758785521620098 $254 41.758785521620098 $166 $255 forward 7 unknown #
coedge $-1 $105 $104 $245 $256 reversed $41 $-1 #
coedge $-1 $257 $248 $104 $170 forward $161 $-1 #
edge $-1 $258 -18.305964750805856 $175 18.305964750805856 $104 $259 forward 7 unknown #
coedge $-1 $246 $260 $105 $172 reversed $241 $-1 #
edge $-1 $261 -18.305964750805856 $176 18.305964750805856 $171 $262 forward 7 unknown #
coedge $-1 $163 $106 $260 $263 forward $101 $-1 #
coedge $-1 $106 $163 $257 $264 forward $101 $-1 #
vertex $-1 $107 $265 #
vertex $-1 $263 $266 #
straight-curve $-1 -70.104678487502667 0 -18.305964750805856 0 1 0 I I #
face $-1 $267 $190 $25 $-1 $268 reversed single #
loop $-1 $-1 $269 $108 #
plane-surface $-1 -86.901103674846127 -21.767130420168467 0 1 0 0 0 0 -1 forward_v I I I I #
coedge $-1 $270 $271 $272 $273 forward $109 $-1 #
coedge $-1 $274 $111 $270 $275 forward $69 $-1 #
coedge $-1 $111 $274 $188 $276 forward $69 $-1 #
edge $-1 $191 17.0558040448512 $277 26.478456795485734 $111 $278 forward 7 unknown #
coedge $-1 $113 $112 $279 $280 forward $44 $-1 #
coedge $-1 $281 $282 $112 $187 forward $283 $-1 #
edge $-1 $284 -26.478456795485734 $192 -17.0558040448512 $186 $285 forward 7 unknown #
coedge $-1 $286 $114 $183 $276 reversed $190 $-1 #
coedge $-1 $114 $286 $281 $287 reversed $190 $-1 #
loop $-1 $-1 $114 $178 #
vertex $-1 $184 $288 #
vertex $-1 $287 $289 #
straight-curve $-1 -70.104678487502667 -17.0558040448512 0 0 0 1 I I #
face $-1 $-1 $290 $26 $-1 $291 reversed single #
loop $-1 $-1 $122 $116 #
plane-surface $-1 0 0 18.305964750805856 0 0 1 1 0 0 forward_v I I I I #
coedge $-1 $292 $293 $294 $295 reversed $117 $-1 #
coedge $-1 $296 $119 $121 $204 forward $73 $-1 #
coedge $-1 $119 $296 $292 $297 forward $73 $-1 #
coedge $-1 $294 $122 $119 $201 forward $195 $-1 #
edge $-1 $207 -30.403378142028586 $298 -5.868810468515349 $200 $299 forward 7 unknown #
coedge $-1 $300 $301 $120 $203 forward $290 $-1 #
edge $-1 $302 -31.630913157274115 $206 -22.276277564453238 $202 $303 forward 7 unknown #
edge $-1 $207 -10.913430201610621 $302 -2.7113386213432547e-014 $121 $304 forward 7 unknown #
coedge $-1 $122 $294 $300 $305 forward $195 $-1 #
vertex $-1 $123 $306 #
vertex $-1 $123 $307 #
straight-curve $-1 48.539472447300554 -80.970831335793889 18.305964750805856 0 1 0 I I #
coedge $-1 $209 $209 $-1 $308 reversed $126 $-1 #
edge $-1 $309 0 $309 6.2831853071796004 $127 $310 forward 7 unknown #
vertex $-1 $130 $311 #
ellipse-curve $-1 31.014781251933954 -38.948369551921175 13.628646954395409 0 -0.85716730853699208 0.51503806187062418 2.5 0 0 1 I I #
coedge $-1 $213 $213 $-1 $312 reversed $133 $-1 #
edge $-1 $313 0 $313 6.2831853071796004 $134 $314 forward 7 unknown #
vertex $-1 $137 $315 #
ellipse-curve $-1 41.529595969153917 -38.948369551921175 13.628646954395409 0 -0.85716730853699208 0.51503806187062418 2.5 0 0 1 I I #
face $-1 $-1 $316 $29 $-1 $317 reversed single #
loop $-1 $-1 $223 $138 #
plane-surface $-1 0 0 18.305964750805856 0 0 1 1 0 0 forward_v I I I I #
coedge $-1 $225 $318 $319 $320 forward $139 $-1 #
coedge $-1 $319 $141 $143 $227 forward $87 $-1 #
coedge $-1 $141 $319 $321 $322 reversed $87 $-1 #
coedge $-1 $323 $144 $141 $224 forward $218 $-1 #
edge $-1 $230 7.7499540023356914 $324 44.153134324223217 $223 $325 forward 7 unknown #
coedge $-1 $326 $220 $142 $226 forward $139 $-1 #
edge $-1 $327 -65.351642446575028 $229 -58.775408243499669 $225 $328 forward 7 unknown #
edge $-1 $230 75.923989936264249 $327 83.51757104324021 $143 $329 forward 7 unknown #
coedge $-1 $144 $323 $326 $330 forward $218 $-1 #
vertex $-1 $226 $331 #
vertex $-1 $145 $332 #
straight-curve $-1 33.701498165615142 60.712433596042032 18.305964750805856 0 -1 0 I I #
coedge $-1 $232 $232 $-1 $333 reversed $148 $-1 #
edge $-1 $334 0 $334 6.2831853071796004 $149 $335 forward 7 unknown #
vertex $-1 $152 $336 #
ellipse-curve $-1 44.102406829011585 39.8603902957435 15.017847649268191 0 0.86602541151947299 0.49999998660252726 1.5 0 0 1 I I #
coedge $-1 $236 $236 $-1 $337 reversed $155 $-1 #
edge $-1 $338 0 $338 6.2831853071796004 $156 $339 forward 7 unknown #
vertex $-1 $159 $340 #
ellipse-curve $-1 59.703769824106246 39.8603902957435 15.017847649268191 0 0.86602541151947299 0.49999998660252726 1.5 0 0 1 I I #
face $-1 $-1 $252 $24 $-1 $341 reversed single #
loop $-1 $-1 $342 $160 #
plane-surface $-1 0 41.758785521620098 0 0 -1 0 0 0 -1 forward_v I I I I #
coedge $-1 $251 $250 $163 $244 reversed $252 $-1 #
edge $-1 $343 -41.758785521620098 $344 41.758785521620098 $243 $345 forward 7 unknown #
coedge $-1 $165 $164 $168 $256 forward $65 $-1 #
coedge $-1 $342 $171 $164 $247 reversed $241 $-1 #
edge $-1 $254 -70.104678487502667 $261 70.104678487502667 $246 $346 forward 7 unknown #
coedge $-1 $169 $347 $165 $249 reversed $161 $-1 #
edge $-1 $258 -70.104678487502667 $253 70.104678487502667 $248 $348 forward 7 unknown #
coedge $-1 $243 $166 $347 $349 forward $252 $-1 #
coedge $-1 $166 $243 $342 $350 reversed $252 $-1 #
loop $-1 $-1 $250 $240 #
vertex $-1 $167 $351 #
vertex $-1 $167 $352 #
straight-curve $-1 70.104678487502667 0 18.305964750805856 0 1 0 I I #
edge $-1 $261 -41.758785521620098 $258 41.758785521620098 $168 $353 forward 7 unknown #
coedge $-1 $347 $169 $174 $264 reversed $161 $-1 #
vertex $-1 $256 $354 #
straight-curve $-1 -70.104678487502667 -41.758785521620098 0 0 0 -1 I I #
coedge $-1 $171 $342 $173 $263 reversed $241 $-1 #
vertex $-1 $247 $355 #
straight-curve $-1 -70.104678487502667 41.758785521620098 0 0 0 -1 I I #
edge $-1 $176 -70.104678487502667 $343 70.104678487502667 $260 $356 forward 7 unknown #
edge $-1 $344 -70.104678487502667 $175 70.104678487502667 $257 $357 forward 7 unknown #
point $-1 -70.104678487502667 -41.758785521620098 -18.305964750805856 #
point $-1 -70.104678487502667 41.758785521620098 -18.305964750805856 #
face $-1 $-1 $283 $25 $-1 $358 forward single #
plane-surface $-1 -78.502891081174397 -17.0558040448512 0 0 -1 0 0 0 -1 forward_v I I I I #
coedge $-1 $359 $360 $286 $361 forward $179 $-1 #
coedge $-1 $279 $181 $182 $275 reversed $109 $-1 #
coedge $-1 $181 $279 $282 $362 reversed $109 $-1 #
coedge $-1 $360 $359 $181 $273 reversed $179 $-1 #
edge $-1 $363 -18.305964750805856 $364 18.305964750805856 $272 $365 forward 7 unknown #
coedge $-1 $183 $182 $359 $366 forward $69 $-1 #
edge $-1 $277 -8.3982125936717296 $364 8.3982125936717296 $270 $367 forward 7 unknown #
edge $-1 $368 -8.3982125936717296 $191 8.3982125936717296 $188 $369 forward 7 unknown #
vertex $-1 $275 $370 #
straight-curve $-1 -70.104678487502667 0 -18.305964750805856 0 -1 0 I I #
coedge $-1 $271 $270 $185 $280 reversed $109 $-1 #
edge $-1 $284 -18.305964750805856 $277 18.305964750805856 $279 $371 forward 7 unknown #
coedge $-1 $372 $186 $189 $287 forward $283 $-1 #
coedge $-1 $186 $372 $271 $362 forward $283 $-1 #
loop $-1 $-1 $186 $267 #
vertex $-1 $187 $373 #
straight-curve $-1 -70.104678487502667 0 18.305964750805856 0 1 0 I I #
coedge $-1 $189 $188 $269 $361 reversed $190 $-1 #
edge $-1 $192 -8.3982125936717296 $374 8.3982125936717296 $189 $375 forward 7 unknown #
point $-1 -70.104678487502667 -17.0558040448512 -18.305964750805856 #
point $-1 -70.104678487502667 -17.0558040448512 18.305964750805856 #
loop $-1 $-1 $202 $194 #
plane-surface $-1 0 -41.758785521620098 0 0 1 0 0 0 1 forward_v I I I I #
coedge $-1 $293 $197 $199 $297 reversed $117 $-1 #
coedge $-1 $197 $292 $376 $377 reversed $117 $-1 #
coedge $-1 $205 $200 $197 $295 forward $195 $-1 #
edge $-1 $298 -44.832877753571644 $378 -39.212045814173791 $294 $379 forward 7 unknown #
coedge $-1 $199 $198 $301 $380 reversed $73 $-1 #
edge $-1 $381 2.7113386213432547e-014 $298 10.913430201610621 $292 $382 forward 7 unknown #
vertex $-1 $201 $383 #
straight-curve $-1 18.136094305271968 -36.137953582222238 18.305964750805856 -1 0 0 I I #
coedge $-1 $376 $202 $205 $305 reversed $290 $-1 #
coedge $-1 $202 $376 $296 $380 forward $290 $-1 #
vertex $-1 $203 $384 #
straight-curve $-1 48.539472447300554 -41.758785521620098 40.582242315259094 0 0 1 I I #
straight-curve $-1 48.539472447300554 -41.758785521620112 8.9513291579849579 0 -0.51503806187062418 -0.85716730853699208 I I #
edge $-1 $378 24.004904773787317 $206 48.539472447300554 $300 $385 forward 7 unknown #
point $-1 48.539472447300554 -41.758785521620098 18.305964750805856 #
point $-1 48.539472447300554 -36.137953582222245 18.305964750805856 #
edge $-1 $386 1 $386 0 $209 $-1 forward 7 unknown #
vertex $-1 $210 $387 #
ellipse-curve $-1 31.014781251933954 -31.398485311164876 9.09221899222368 0 -0.85716730853699208 0.51503806187062418 2.5 0 0 1 I I #
point $-1 33.514781251933954 -38.948369551921161 13.6286469543954 #
edge $-1 $388 1 $388 0 $213 $-1 forward 7 unknown #
vertex $-1 $214 $389 #
ellipse-curve $-1 41.529595969153917 -31.398485311164876 9.09221899222368 0 -0.85716730853699208 0.51503806187062418 2.5 0 0 1 I I #
point $-1 44.029595969153917 -38.948369551921161 13.6286469543954 #
loop $-1 $-1 $321 $217 #
plane-surface $-1 70.104678487502667 0 0 -1 0 0 0 0 1 forward_v I I I I #
coedge $-1 $220 $326 $390 $391 forward $139 $-1 #
coedge $-1 $222 $221 $220 $320 reversed $87 $-1 #
edge $-1 $392 -44.153134324223217 $327 -7.7499540023356914 $220 $393 forward 7 unknown #
coedge $-1 $390 $394 $222 $322 forward $316 $-1 #
edge $-1 $324 39.525778153012652 $392 47.119359259988613 $321 $395 forward 7 unknown #
coedge $-1 $228 $223 $394 $396 forward $218 $-1 #
vertex $-1 $396 $397 #
straight-curve $-1 25.951544163279451 37.961995069866916 18.305964750805856 1 0 0 I I #
coedge $-1 $318 $225 $228 $330 reversed $139 $-1 #
vertex $-1 $226 $398 #
straight-curve $-1 33.701498165615142 41.758785521620098 77.081372994305525 0 0 1 I I #
straight-curve $-1 33.701498165615142 1.1189243735998389e-006 84.058069379559427 0 0.49999998660252726 -0.86602541151947299 I I #
edge $-1 $399 -70.104678487502667 $229 -33.701498165615142 $326 $400 forward 7 unknown #
point $-1 33.701498165615142 41.758785521620098 18.305964750805856 #
point $-1 33.701498165615142 37.961995069866916 18.305964750805856 #
edge $-1 $401 1 $401 0 $232 $-1 forward 7 unknown #
vertex $-1 $233 $402 #
ellipse-curve $-1 44.102406829011585 35.856909194778403 12.706436840509248 0 0.86602541151947299 0.49999998660252726 1.5 0 0 1 I I #
point $-1 45.602406829011585 39.860390295743507 15.017847649268194 #
edge $-1 $403 1 $403 0 $236 $-1 forward 7 unknown #
vertex $-1 $237 $404 #
ellipse-curve $-1 59.703769824106246 35.856909194778403 12.706436840509248 0 0.86602541151947299 0.49999998660252726 1.5 0 0 1 I I #
point $-1 61.203769824106246 39.860390295743507 15.017847649268194 #
plane-surface $-1 70.104678487502667 0 0 -1 0 0 0 0 1 forward_v I I I I #
coedge $-1 $260 $246 $251 $350 forward $241 $-1 #
vertex $-1 $244 $405 #
vertex $-1 $349 $406 #
straight-curve $-1 70.104678487502667 0 -18.305964750805856 0 -1 0 I I #
straight-curve $-1 0 41.758785521620098 18.305964750805856 -1 0 0 I I #
coedge $-1 $248 $257 $250 $349 reversed $161 $-1 #
straight-curve $-1 0 -41.758785521620098 18.305964750805856 1 0 0 I I #
edge $-1 $253 -18.305964750805856 $344 18.305964750805856 $250 $407 forward 7 unknown #
edge $-1 $254 -18.305964750805856 $343 18.305964750805856 $251 $408 forward 7 unknown #
point $-1 70.104678487502667 -41.758785521620098 18.305964750805856 #
point $-1 70.104678487502667 41.758785521620098 18.305964750805856 #
straight-curve $-1 -70.104678487502667 0 18.305964750805856 0 -1 0 I I #
point $-1 -70.104678487502667 -41.758785521620098 18.305964750805856 #
point $-1 -70.104678487502667 41.758785521620098 18.305964750805856 #
straight-curve $-1 0 41.758785521620098 -18.305964750805856 1 0 0 I I #
straight-curve $-1 0 -41.758785521620098 -18.305964750805856 -1 0 0 I I #
plane-surface $-1 0 0 18.305964750805856 0 0 1 1 0 0 forward_v I I I I #
coedge $-1 $272 $269 $274 $366 reversed $179 $-1 #
coedge $-1 $269 $272 $372 $409 reversed $179 $-1 #
edge $-1 $374 -18.305964750805856 $368 18.305964750805856 $286 $410 forward 7 unknown #
edge $-1 $363 -8.3982125936717296 $284 8.3982125936717296 $271 $411 forward 7 unknown #
vertex $-1 $409 $412 #
vertex $-1 $366 $413 #
straight-curve $-1 -86.901103674846127 -26.478456795485734 0 0 0 -1 I I #
edge $-1 $364 -4.7113263753172667 $368 4.7113263753172667 $359 $414 forward 7 unknown #
straight-curve $-1 -78.502891081174397 -26.478456795485734 -18.305964750805856 -1 0 0 I I #
vertex $-1 $276 $415 #
straight-curve $-1 -78.502891081174397 -17.0558040448512 -18.305964750805856 1 0 0 I I #
point $-1 -70.104678487502667 -26.478456795485734 -18.305964750805856 #
straight-curve $-1 -70.104678487502667 -26.478456795485734 0 0 0 -1 I I #
coedge $-1 $282 $281 $360 $409 forward $283 $-1 #
point $-1 -70.104678487502667 -26.478456795485734 18.305964750805856 #
vertex $-1 $287 $416 #
straight-curve $-1 -78.502891081174397 -17.0558040448512 18.305964750805856 -1 0 0 I I #
coedge $-1 $301 $300 $293 $377 forward $290 $-1 #
edge $-1 $378 22.276277564453238 $381 31.630913157274115 $376 $417 forward 7 unknown #
vertex $-1 $305 $418 #
straight-curve $-1 24.004904773787317 -80.970831335793889 18.305964750805856 0 -1 0 I I #
edge $-1 $381 5.868810468515349 $302 30.403378142028586 $301 $419 forward 7 unknown #
vertex $-1 $380 $420 #
straight-curve $-1 24.004904773787317 -41.758785521620112 8.9513291579849579 0 0.51503806187062418 0.85716730853699208 I I #
point $-1 24.004904773787317 -36.137953582222245 18.305964750805856 #
point $-1 48.539472447300554 -41.758785521620098 8.951329157984981 #
straight-curve $-1 0 -41.758785521620098 18.305964750805856 1 0 0 I I #
vertex $-1 $308 $421 #
point $-1 33.514781251933954 -31.398485311164876 9.09221899222368 #
vertex $-1 $312 $422 #
point $-1 44.029595969153917 -31.398485311164876 9.09221899222368 #
coedge $-1 $394 $321 $318 $391 reversed $316 $-1 #
edge $-1 $399 -18.305964750805856 $392 -11.729730547730497 $390 $423 forward 7 unknown #
vertex $-1 $322 $424 #
straight-curve $-1 25.951544163279451 41.758785521620098 11.729730547730497 -1 0 0 I I #
coedge $-1 $321 $390 $323 $396 reversed $316 $-1 #
straight-curve $-1 70.104678487502667 18.199106522906121 52.536293041396029 0 0.49999998660252726 -0.86602541151947299 I I #
edge $-1 $324 37.961995069866916 $399 41.758785521620098 $394 $425 forward 7 unknown #
point $-1 70.104678487502667 37.961995069866916 18.305964750805856 #
point $-1 33.701498165615142 41.758785521620098 11.729730547730497 #
vertex $-1 $396 $426 #
straight-curve $-1 0 41.758785521620098 18.305964750805856 -1 0 0 I I #
vertex $-1 $333 $427 #
point $-1 45.602406829011585 35.856909194778403 12.706436840509248 #
vertex $-1 $337 $428 #
point $-1 61.203769824106246 35.856909194778403 12.706436840509248 #
point $-1 70.104678487502667 41.758785521620098 -18.305964750805856 #
point $-1 70.104678487502667 -41.758785521620098 -18.305964750805856 #
straight-curve $-1 70.104678487502667 -41.758785521620098 0 0 0 -1 I I #
straight-curve $-1 70.104678487502667 41.758785521620098 0 0 0 -1 I I #
edge $-1 $374 -4.7113263753172667 $363 4.7113263753172667 $360 $429 forward 7 unknown #
straight-curve $-1 -86.901103674846127 -17.0558040448512 0 0 0 -1 I I #
straight-curve $-1 -78.502891081174397 -26.478456795485734 18.305964750805856 1 0 0 I I #
point $-1 -86.901103674846127 -26.478456795485734 18.305964750805856 #
point $-1 -86.901103674846127 -26.478456795485734 -18.305964750805856 #
straight-curve $-1 -86.901103674846127 -21.767130420168467 -18.305964750805856 0 1 0 I I #
point $-1 -86.901103674846127 -17.0558040448512 -18.305964750805856 #
point $-1 -86.901103674846127 -17.0558040448512 18.305964750805856 #
straight-curve $-1 24.004904773787317 -41.758785521620098 40.582242315259094 0 0 -1 I I #
point $-1 24.004904773787317 -41.758785521620098 18.305964750805856 #
straight-curve $-1 18.136094305271968 -41.758785521620098 8.951329157984981 1 0 0 I I #
point $-1 24.004904773787317 -41.758785521620098 8.951329157984981 #
point $-1 31.014781251933954 -29.255567039822395 7.8046238375471182 #
point $-1 41.529595969153917 -29.255567039822395 7.8046238375471182 #
straight-curve $-1 70.104678487502667 41.758785521620098 0 0 0 -1 I I #
point $-1 70.104678487502667 41.758785521620098 11.729730547730497 #
straight-curve $-1 70.104678487502667 0 18.305964750805856 0 1 0 I I #
point $-1 70.104678487502667 41.758785521620098 18.305964750805856 #
point $-1 44.102406829011585 34.557871077499193 11.956436860605457 #
point $-1 59.703769824106246 34.557871077499193 11.956436860605457 #
straight-curve $-1 -86.901103674846127 -21.767130420168467 18.305964750805856 0 -1 0 I I #
End-of-ACIS-data 