500 0 9 0           
7 Unknown 11 ACIS 5.0 NT 24 Fri Mar 26 02:58:57 1999 
-1 9.9999999999999995e-007 1e-010 
body $-1 $9 $-1 $10 #
body $-1 $11 $-1 $12 #
body $-1 $13 $-1 $14 #
body $-1 $15 $-1 $16 #
body $-1 $17 $-1 $18 #
body $-1 $19 $-1 $20 #
body $-1 $21 $-1 $22 #
body $-1 $23 $-1 $24 #
body $-1 $25 $-1 $26 #
lump $-1 $-1 $27 $0 #
transform $-1 1 0 0 0 1 0 0 0 1 64.225592822046565 29.079589071562328 10.354772465260016 1 rotate no_reflect no_shear #
lump $-1 $-1 $28 $1 #
transform $-1 1 0 0 0 1 0 0 0 1 64.225592822046565 29.079589071562328 10.354772465260016 1 rotate no_reflect no_shear #
lump $-1 $-1 $29 $2 #
transform $-1 1 0 0 0 1 0 0 0 1 64.225592822046565 29.079589071562328 10.354772465260016 1 rotate no_reflect no_shear #
lump $-1 $-1 $30 $3 #
transform $-1 1 0 0 0 1 0 0 0 1 64.225592822046565 29.079589071562328 10.354772465260016 1 rotate no_reflect no_shear #
lump $-1 $-1 $31 $4 #
transform $-1 1 0 0 0 1 0 0 0 1 64.225592822046565 29.079589071562328 10.354772465260016 1 rotate no_reflect no_shear #
lump $-1 $-1 $32 $5 #
transform $-1 1 0 0 0 1 0 0 0 1 64.225592822046565 29.079589071562328 10.354772465260016 1 rotate no_reflect no_shear #
lump $-1 $-1 $33 $6 #
transform $-1 1 0 0 0 1 0 0 0 1 64.225592822046565 29.079589071562328 10.354772465260016 1 rotate no_reflect no_shear #
lump $-1 $-1 $34 $7 #
transform $-1 1 0 0 0 1 0 0 0 1 64.225592822046565 29.079589071562328 10.354772465260016 1 rotate no_reflect no_shear #
lump $-1 $-1 $35 $8 #
transform $-1 1 0 0 0 1 0 0 0 1 64.225592822046565 29.079589071562328 10.354772465260016 1 rotate no_reflect no_shear #
shell $-1 $-1 $-1 $36 $-1 $9 #
shell $-1 $-1 $-1 $37 $-1 $11 #
shell $-1 $-1 $-1 $38 $-1 $13 #
shell $-1 $-1 $-1 $39 $-1 $15 #
shell $-1 $-1 $-1 $40 $-1 $17 #
shell $-1 $-1 $-1 $41 $-1 $19 #
shell $-1 $-1 $-1 $42 $-1 $21 #
shell $-1 $-1 $-1 $43 $-1 $23 #
shell $-1 $-1 $-1 $44 $-1 $25 #
face $-1 $45 $46 $27 $-1 $47 forward single #
face $-1 $48 $49 $28 $-1 $50 forward single #
face $-1 $51 $52 $29 $-1 $53 forward single #
face $-1 $54 $55 $30 $-1 $56 reversed single #
face $-1 $57 $58 $31 $-1 $59 forward single #
face $-1 $60 $61 $32 $-1 $62 forward single #
face $-1 $63 $64 $33 $-1 $65 reversed single #
face $-1 $66 $67 $34 $-1 $68 forward single #
face $-1 $69 $70 $35 $-1 $71 forward single #
face $-1 $72 $73 $27 $-1 $74 reversed single #
loop $-1 $-1 $75 $36 #
plane-surface $-1 0 0 10.354772465260016 0 0 1 1 0 0 forward_v I I I I #
face $-1 $76 $77 $28 $-1 $78 forward single #
loop $-1 $-1 $79 $37 #
plane-surface $-1 0 -29.079589071562328 0 0 1 0 0 0 1 forward_v I I I I #
face $-1 $80 $81 $29 $-1 $82 reversed single #
loop $-1 $-1 $83 $38 #
plane-surface $-1 0 23.268882745618082 -6.5620569840271408 0 0 1 1 0 0 forward_v I I I I #
face $-1 $84 $85 $30 $-1 $86 reversed single #
loop $-1 $-1 $87 $39 #
plane-surface $-1 83.213964984986319 -0.12785939320093931 182.64803866285166 0 -1 0 -0.77714596973225614 0 -0.62932038083071107 forward_v I I I I #
face $-1 $88 $89 $31 $-1 $90 forward single #
loop $-1 $91 $92 $40 #
cone-surface $-1 60.311657595274049 -5.3928322153205457 5.7448160734399876 -0.77714596973225614 0 -0.62932038083071107 0.31466019041535553 0 -0.38857298486612807 1 I I 0 1 0.5 forward I I I I #
face $-1 $93 $94 $32 $-1 $95 forward single #
loop $-1 $96 $97 $41 #
cone-surface $-1 60.311657595274049 -2.2338485220487811 5.7448160734399876 -0.77714596973225614 0 -0.62932038083071107 0.31466019041535553 0 -0.38857298486612807 1 I I 0 1 0.5 forward I I I I #
face $-1 $98 $99 $33 $-1 $100 reversed single #
loop $-1 $-1 $101 $42 #
plane-surface $-1 -164.05091405268337 -7.4988213441683875 82.822717432214858 0 1 0 -0.77714596973225614 0 0.62932038083071107 forward_v I I I I #
face $-1 $102 $103 $34 $-1 $104 forward single #
loop $-1 $105 $106 $43 #
cone-surface $-1 -60.311657595274042 -5.3928322153205457 5.7448160734399858 0.77714596973225614 0 -0.62932038083071107 0.31466019041535553 0 0.38857298486612807 1 I I 0 1 0.5 forward I I I I #
face $-1 $107 $108 $35 $-1 $109 forward single #
loop $-1 $110 $111 $44 #
cone-surface $-1 -60.311657595274042 -2.2338485220487811 5.7448160734399858 0.77714596973225614 0 -0.62932038083071107 0.31466019041535553 0 0.38857298486612807 1 I I 0 1 0.5 forward I I I I #
face $-1 $112 $113 $27 $-1 $114 reversed single #
loop $-1 $-1 $115 $45 #
plane-surface $-1 0 0 -10.354772465260016 0 0 1 1 0 0 forward_v I I I I #
coedge $-1 $116 $117 $118 $119 forward $46 $-1 #
face $-1 $120 $121 $28 $-1 $122 reversed single #
loop $-1 $-1 $123 $48 #
plane-surface $-1 0 0 10.354772465260016 0 0 1 1 0 0 forward_v I I I I #
coedge $-1 $124 $125 $126 $127 forward $49 $-1 #
face $-1 $128 $129 $29 $-1 $130 reversed single #
loop $-1 $-1 $131 $51 #
plane-surface $-1 0 17.458176419673837 -8.4584147246435784 0 1 0 0 0 1 forward_v I I I I #
coedge $-1 $132 $133 $134 $135 reversed $52 $-1 #
face $-1 $136 $137 $30 $-1 $138 reversed single #
loop $-1 $-1 $139 $54 #
plane-surface $-1 -16.611356245650498 -3.8133403686846634 101.81108959515461 0.77714596973225614 0 0.62932038083071107 0.62932038083071107 0 -0.77714596973225614 forward_v I I I I #
coedge $-1 $140 $141 $142 $143 reversed $55 $-1 #
face $-1 $-1 $144 $31 $-1 $145 forward single #
loop $-1 $146 $147 $57 #
cone-surface $-1 59.591978732224163 -5.3928322153205457 5.1620316367833787 -0.77714596973225614 0 -0.62932038083071107 0.15733009520767777 0 -0.19428649243306403 1 I I -0.70710678118654746 0.70710678118654746 0.25 forward I I I I #
loop $-1 $-1 $148 $40 #
coedge $-1 $92 $92 $149 $150 reversed $58 $-1 #
face $-1 $-1 $151 $32 $-1 $152 forward single #
loop $-1 $153 $154 $60 #
cone-surface $-1 59.591978732224163 -2.2338485220487811 5.1620316367833787 -0.77714596973225614 0 -0.62932038083071107 0.15733009520767777 0 -0.19428649243306403 1 I I -0.70710678118654746 0.70710678118654746 0.25 forward I I I I #
loop $-1 $-1 $155 $41 #
coedge $-1 $97 $97 $156 $157 reversed $61 $-1 #
face $-1 $158 $159 $33 $-1 $160 reversed single #
loop $-1 $-1 $161 $63 #
plane-surface $-1 -64.225592822046551 -3.8133403686846634 1.9857683645178099 -0.77714596973225614 0 0.62932038083071107 0.62932038083071107 0 0.77714596973225614 forward_v I I I I #
coedge $-1 $162 $163 $164 $165 reversed $64 $-1 #
face $-1 $-1 $166 $34 $-1 $167 forward single #
loop $-1 $168 $169 $66 #
cone-surface $-1 -59.591978732224156 -5.3928322153205457 5.162031636783377 0.77714596973225614 0 -0.62932038083071107 0.15733009520767777 0 0.19428649243306403 1 I I -0.70710678118654746 0.70710678118654746 0.25 forward I I I I #
loop $-1 $-1 $170 $43 #
coedge $-1 $106 $106 $171 $172 reversed $67 $-1 #
face $-1 $-1 $173 $35 $-1 $174 forward single #
loop $-1 $175 $176 $69 #
cone-surface $-1 -59.591978732224156 -2.2338485220487811 5.162031636783377 0.77714596973225614 0 -0.62932038083071107 0.15733009520767777 0 0.19428649243306403 1 I I -0.70710678118654746 0.70710678118654746 0.25 forward I I I I #
loop $-1 $-1 $177 $44 #
coedge $-1 $111 $111 $178 $179 reversed $70 $-1 #
face $-1 $180 $181 $27 $-1 $182 reversed single #
loop $-1 $-1 $183 $72 #
plane-surface $-1 0 -29.079589071562328 0 0 1 0 0 0 1 forward_v I I I I #
coedge $-1 $184 $185 $186 $187 forward $73 $-1 #
coedge $-1 $188 $75 $189 $190 forward $46 $-1 #
coedge $-1 $75 $188 $191 $192 forward $46 $-1 #
coedge $-1 $193 $194 $75 $119 reversed $195 $-1 #
edge $-1 $196 -29.079589071562328 $197 29.079589071562328 $118 $198 forward 7 unknown #
face $-1 $199 $200 $28 $-1 $201 reversed single #
loop $-1 $-1 $202 $76 #
plane-surface $-1 -64.225592822046565 0 0 1 0 0 0 0 -1 forward_v I I I I #
coedge $-1 $203 $204 $205 $206 forward $77 $-1 #
coedge $-1 $205 $79 $202 $207 reversed $49 $-1 #
coedge $-1 $79 $205 $208 $209 reversed $49 $-1 #
coedge $-1 $210 $211 $79 $127 reversed $200 $-1 #
edge $-1 $212 -64.225592822046565 $213 64.225592822046565 $126 $214 forward 7 unknown #
face $-1 $215 $216 $29 $-1 $217 reversed single #
loop $-1 $-1 $134 $80 #
plane-surface $-1 64.225592822046565 0 0 -1 0 0 0 0 1 forward_v I I I I #
coedge $-1 $218 $219 $220 $221 reversed $81 $-1 #
coedge $-1 $222 $83 $223 $224 reversed $52 $-1 #
coedge $-1 $83 $222 $219 $225 forward $52 $-1 #
coedge $-1 $226 $227 $83 $135 forward $129 $-1 #
edge $-1 $228 -17.445147698753289 $229 -5.8237350468647957 $134 $230 forward 7 unknown #
face $-1 $231 $232 $30 $-1 $233 forward single #
loop $-1 $-1 $234 $84 #
plane-surface $-1 83.213964984986319 -7.4988213441683875 182.64803866285166 0 1 0 0.77714596973225614 0 0.62932038083071107 forward_v I I I I #
coedge $-1 $235 $236 $237 $238 reversed $85 $-1 #
coedge $-1 $141 $87 $239 $240 reversed $55 $-1 #
coedge $-1 $87 $140 $235 $241 reversed $55 $-1 #
coedge $-1 $237 $242 $87 $143 forward $232 $-1 #
edge $-1 $243 -22.618610329553405 $244 -15.841524617241973 $142 $245 forward 7 unknown #
loop $-1 $-1 $149 $88 #
plane-surface $-1 -16.611356245650498 -3.8133403686846634 101.81108959515461 0.77714596973225614 0 0.62932038083071107 0.62932038083071107 0 -0.77714596973225614 forward_v I I I I #
loop $-1 $-1 $246 $57 #
coedge $-1 $147 $147 $148 $247 reversed $89 $-1 #
coedge $-1 $148 $148 $147 $247 forward $91 $-1 #
coedge $-1 $149 $149 $92 $150 forward $144 $-1 #
edge $-1 $248 0 $248 6.2831853071796004 $149 $249 forward 7 unknown #
loop $-1 $-1 $156 $93 #
plane-surface $-1 -16.611356245650498 -3.8133403686846634 101.81108959515461 0.77714596973225614 0 0.62932038083071107 0.62932038083071107 0 -0.77714596973225614 forward_v I I I I #
loop $-1 $-1 $250 $60 #
coedge $-1 $154 $154 $155 $251 reversed $94 $-1 #
coedge $-1 $155 $155 $154 $251 forward $96 $-1 #
coedge $-1 $156 $156 $97 $157 forward $151 $-1 #
edge $-1 $252 0 $252 6.2831853071796004 $156 $253 forward 7 unknown #
face $-1 $254 $255 $33 $-1 $256 reversed single #
loop $-1 $-1 $257 $98 #
plane-surface $-1 -164.05091405268337 -0.12785939320093931 82.822717432214858 0 -1 0 0.77714596973225614 0 -0.62932038083071107 forward_v I I I I #
coedge $-1 $258 $259 $260 $261 reversed $99 $-1 #
coedge $-1 $163 $101 $262 $263 reversed $64 $-1 #
coedge $-1 $101 $162 $258 $264 reversed $64 $-1 #
coedge $-1 $260 $265 $101 $165 forward $266 $-1 #
edge $-1 $267 17.799864204295119 $268 24.576949916606544 $164 $269 forward 7 unknown #
loop $-1 $-1 $171 $102 #
plane-surface $-1 -64.225592822046551 -3.8133403686846634 1.9857683645178099 -0.77714596973225614 0 0.62932038083071107 0.62932038083071107 0 0.77714596973225614 forward_v I I I I #
loop $-1 $-1 $270 $66 #
coedge $-1 $169 $169 $170 $271 reversed $103 $-1 #
coedge $-1 $170 $170 $169 $271 forward $105 $-1 #
coedge $-1 $171 $171 $106 $172 forward $166 $-1 #
edge $-1 $272 0 $272 6.2831853071796004 $171 $273 forward 7 unknown #
loop $-1 $-1 $178 $107 #
plane-surface $-1 -64.225592822046551 -3.8133403686846634 1.9857683645178099 -0.77714596973225614 0 0.62932038083071107 0.62932038083071107 0 0.77714596973225614 forward_v I I I I #
loop $-1 $-1 $274 $69 #
coedge $-1 $176 $176 $177 $275 reversed $108 $-1 #
coedge $-1 $177 $177 $176 $275 forward $110 $-1 #
coedge $-1 $178 $178 $111 $179 forward $173 $-1 #
edge $-1 $276 0 $276 6.2831853071796004 $178 $277 forward 7 unknown #
face $-1 $278 $279 $27 $-1 $280 reversed single #
loop $-1 $-1 $281 $112 #
plane-surface $-1 -64.225592822046565 0 0 1 0 0 0 0 -1 forward_v I I I I #
coedge $-1 $282 $191 $283 $284 forward $113 $-1 #
coedge $-1 $285 $115 $282 $286 forward $73 $-1 #
coedge $-1 $115 $285 $287 $288 forward $73 $-1 #
coedge $-1 $194 $193 $115 $187 reversed $195 $-1 #
edge $-1 $289 -29.079589071562328 $290 29.079589071562328 $186 $291 forward 7 unknown #
coedge $-1 $117 $116 $292 $293 forward $46 $-1 #
coedge $-1 $294 $295 $116 $190 reversed $279 $-1 #
edge $-1 $197 -64.225592822046565 $296 64.225592822046565 $189 $297 forward 7 unknown #
coedge $-1 $183 $298 $117 $192 reversed $113 $-1 #
edge $-1 $299 -64.225592822046565 $196 64.225592822046565 $191 $300 forward 7 unknown #
coedge $-1 $186 $118 $298 $301 forward $195 $-1 #
coedge $-1 $118 $186 $294 $302 reversed $195 $-1 #
loop $-1 $-1 $193 $278 #
vertex $-1 $119 $303 #
vertex $-1 $119 $304 #
straight-curve $-1 64.225592822046565 0 10.354772465260016 0 1 0 I I #
face $-1 $305 $306 $28 $-1 $307 reversed single #
loop $-1 $-1 $210 $120 #
plane-surface $-1 0 -33.275457144505019 7.3547724652600159 0 0 1 1 0 0 forward_v I I I I #
coedge $-1 $308 $309 $124 $207 forward $121 $-1 #
coedge $-1 $310 $123 $309 $311 forward $77 $-1 #
coedge $-1 $123 $310 $312 $313 forward $77 $-1 #
coedge $-1 $125 $124 $123 $206 reversed $49 $-1 #
edge $-1 $314 -64.225592822046565 $315 64.225592822046565 $123 $316 forward 7 unknown #
edge $-1 $315 -10.354772465260016 $213 -7.3547724652600159 $202 $317 forward 7 unknown #
coedge $-1 $312 $318 $125 $209 forward $319 $-1 #
edge $-1 $212 7.3547724652600159 $314 10.354772465260016 $208 $320 forward 7 unknown #
coedge $-1 $321 $126 $318 $322 forward $200 $-1 #
coedge $-1 $126 $321 $308 $323 forward $200 $-1 #
vertex $-1 $209 $324 #
vertex $-1 $207 $325 #
straight-curve $-1 0 -29.079589071562328 7.3547724652600159 -1 0 0 I I #
face $-1 $326 $327 $29 $-1 $328 reversed single #
loop $-1 $-1 $329 $128 #
plane-surface $-1 0 0 -10.354772465260016 0 0 1 1 0 0 forward_v I I I I #
coedge $-1 $330 $131 $329 $331 reversed $81 $-1 #
coedge $-1 $131 $330 $133 $225 reversed $81 $-1 #
coedge $-1 $332 $333 $131 $221 forward $327 $-1 #
edge $-1 $334 -6.1255651029382268 $335 -2.3328496217053516 $220 $336 forward 7 unknown #
coedge $-1 $133 $132 $332 $337 reversed $52 $-1 #
coedge $-1 $338 $339 $132 $224 forward $340 $-1 #
edge $-1 $341 -64.225592822046565 $228 64.225592822046565 $223 $342 forward 7 unknown #
edge $-1 $335 -64.225592822046565 $229 64.225592822046565 $219 $343 forward 7 unknown #
coedge $-1 $344 $134 $330 $345 forward $129 $-1 #
coedge $-1 $134 $344 $338 $346 reversed $129 $-1 #
vertex $-1 $346 $347 #
vertex $-1 $135 $348 #
straight-curve $-1 64.225592822046565 11.634441372809041 -6.5620569840271408 0 -1 0 I I #
face $-1 $-1 $349 $30 $-1 $350 reversed single #
loop $-1 $-1 $142 $136 #
plane-surface $-1 0 0 10.354772465260016 0 0 1 1 0 0 forward_v I I I I #
coedge $-1 $351 $352 $353 $354 reversed $137 $-1 #
coedge $-1 $355 $139 $141 $241 forward $85 $-1 #
coedge $-1 $139 $355 $351 $356 forward $85 $-1 #
coedge $-1 $353 $142 $139 $238 forward $232 $-1 #
edge $-1 $244 -1.7788107911413924 $357 5.5921511598260558 $237 $358 forward 7 unknown #
coedge $-1 $359 $360 $140 $240 forward $349 $-1 #
edge $-1 $361 -89.338250966908035 $243 -80.969246866165818 $239 $362 forward 7 unknown #
edge $-1 $244 117.6822896751344 $361 128.45118564409313 $141 $363 forward 7 unknown #
coedge $-1 $142 $353 $359 $364 forward $232 $-1 #
vertex $-1 $240 $365 #
vertex $-1 $143 $366 #
straight-curve $-1 41.606982492493159 -0.12785939320093931 10.354772465260012 -1 0 0 I I #
coedge $-1 $246 $246 $-1 $367 reversed $146 $-1 #
edge $-1 $368 0 $368 6.2831853071796004 $147 $369 forward 7 unknown #
vertex $-1 $150 $370 #
ellipse-curve $-1 60.837049965890856 -5.3928322153205457 6.1702704148889067 0.77714596973225614 0 0.62932038083071107 0.31466019041535553 0 -0.38857298486612807 1 I I #
coedge $-1 $250 $250 $-1 $371 reversed $153 $-1 #
edge $-1 $372 0 $372 6.2831853071796004 $154 $373 forward 7 unknown #
vertex $-1 $157 $374 #
ellipse-curve $-1 60.837049965890856 -2.2338485220487811 6.1702704148889067 0.77714596973225614 0 0.62932038083071107 0.31466019041535553 0 -0.38857298486612807 1 I I #
face $-1 $-1 $266 $33 $-1 $375 forward single #
loop $-1 $-1 $376 $158 #
plane-surface $-1 -64.225592822046565 0 0 1 0 0 0 0 -1 forward_v I I I I #
coedge $-1 $377 $378 $379 $380 reversed $159 $-1 #
coedge $-1 $381 $161 $163 $264 forward $99 $-1 #
coedge $-1 $161 $381 $377 $382 forward $99 $-1 #
coedge $-1 $379 $164 $161 $261 forward $266 $-1 #
edge $-1 $268 -5.5921511598260558 $383 1.7788107911413924 $260 $384 forward 7 unknown #
coedge $-1 $385 $386 $162 $263 forward $255 $-1 #
edge $-1 $387 -39.425590351589634 $267 -31.056586250847413 $262 $388 forward 7 unknown #
edge $-1 $268 -10.768895968958716 $387 2.2575505016944882e-014 $163 $389 forward 7 unknown #
coedge $-1 $164 $379 $385 $390 forward $266 $-1 #
loop $-1 $-1 $379 $254 #
vertex $-1 $263 $391 #
vertex $-1 $165 $392 #
straight-curve $-1 -82.025457026341684 -7.4988213441683875 10.354772465260019 1 0 0 I I #
coedge $-1 $270 $270 $-1 $393 reversed $168 $-1 #
edge $-1 $394 0 $394 6.2831853071796004 $169 $395 forward 7 unknown #
vertex $-1 $172 $396 #
ellipse-curve $-1 -60.837049965890849 -5.3928322153205457 6.1702704148889067 -0.77714596973225614 0 0.62932038083071107 0.31466019041535553 0 0.38857298486612807 1 I I #
coedge $-1 $274 $274 $-1 $397 reversed $175 $-1 #
edge $-1 $398 0 $398 6.2831853071796004 $176 $399 forward 7 unknown #
vertex $-1 $179 $400 #
ellipse-curve $-1 -60.837049965890849 -2.2338485220487811 6.1702704148889067 -0.77714596973225614 0 0.62932038083071107 0.31466019041535553 0 0.38857298486612807 1 I I #
face $-1 $-1 $195 $27 $-1 $401 reversed single #
loop $-1 $-1 $294 $180 #
plane-surface $-1 0 29.079589071562328 0 0 -1 0 0 0 -1 forward_v I I I I #
coedge $-1 $402 $292 $295 $403 forward $181 $-1 #
coedge $-1 $298 $183 $184 $286 reversed $113 $-1 #
coedge $-1 $292 $402 $183 $284 reversed $181 $-1 #
edge $-1 $299 -10.354772465260016 $404 10.354772465260016 $283 $405 forward 7 unknown #
coedge $-1 $185 $184 $402 $406 forward $73 $-1 #
edge $-1 $290 -64.225592822046565 $404 64.225592822046565 $282 $407 forward 7 unknown #
coedge $-1 $295 $294 $185 $288 reversed $279 $-1 #
edge $-1 $408 -64.225592822046565 $289 64.225592822046565 $287 $409 forward 7 unknown #
vertex $-1 $187 $410 #
vertex $-1 $301 $411 #
straight-curve $-1 64.225592822046565 0 -10.354772465260016 0 -1 0 I I #
coedge $-1 $281 $283 $188 $293 reversed $181 $-1 #
edge $-1 $296 -29.079589071562328 $299 29.079589071562328 $292 $412 forward 7 unknown #
coedge $-1 $287 $189 $194 $302 forward $279 $-1 #
coedge $-1 $189 $287 $281 $403 reversed $279 $-1 #
vertex $-1 $190 $413 #
straight-curve $-1 0 29.079589071562328 10.354772465260016 -1 0 0 I I #
coedge $-1 $191 $282 $193 $301 reversed $113 $-1 #
vertex $-1 $293 $414 #
straight-curve $-1 0 -29.079589071562328 10.354772465260016 1 0 0 I I #
edge $-1 $196 -10.354772465260016 $290 10.354772465260016 $193 $415 forward 7 unknown #
edge $-1 $197 -10.354772465260016 $289 10.354772465260016 $194 $416 forward 7 unknown #
point $-1 64.225592822046565 -29.079589071562328 10.354772465260016 #
point $-1 64.225592822046565 29.079589071562328 10.354772465260016 #
face $-1 $-1 $319 $28 $-1 $417 reversed single #
loop $-1 $-1 $418 $199 #
plane-surface $-1 0 -37.471325217447706 8.8547724652600159 0 1 0 0 0 1 forward_v I I I I #
coedge $-1 $419 $202 $211 $323 reversed $121 $-1 #
coedge $-1 $202 $419 $203 $311 reversed $121 $-1 #
coedge $-1 $204 $203 $420 $421 forward $77 $-1 #
edge $-1 $315 29.079589071562328 $422 37.471325217447706 $309 $423 forward 7 unknown #
coedge $-1 $424 $208 $204 $313 reversed $319 $-1 #
edge $-1 $425 -37.471325217447706 $314 -29.079589071562328 $312 $426 forward 7 unknown #
vertex $-1 $209 $427 #
vertex $-1 $311 $428 #
straight-curve $-1 0 -29.079589071562328 10.354772465260016 -1 0 0 I I #
straight-curve $-1 -64.225592822046565 -29.079589071562328 0 0 0 -1 I I #
coedge $-1 $208 $424 $210 $322 reversed $319 $-1 #
loop $-1 $-1 $208 $305 #
straight-curve $-1 64.225592822046565 -29.079589071562328 0 0 0 1 I I #
coedge $-1 $211 $210 $429 $430 forward $200 $-1 #
edge $-1 $212 -4.1958680729426909 $431 4.1958680729426874 $318 $432 forward 7 unknown #
edge $-1 $433 -4.1958680729426874 $213 4.1958680729426909 $308 $434 forward 7 unknown #
point $-1 64.225592822046565 -29.079589071562328 7.3547724652600159 #
point $-1 -64.225592822046565 -29.079589071562328 7.3547724652600159 #
face $-1 $-1 $340 $29 $-1 $435 reversed single #
loop $-1 $-1 $332 $215 #
plane-surface $-1 -64.225592822046565 0 0 1 0 0 0 0 -1 forward_v I I I I #
coedge $-1 $436 $437 $218 $331 forward $216 $-1 #
coedge $-1 $219 $218 $226 $345 reversed $81 $-1 #
edge $-1 $438 -64.225592822046565 $334 64.225592822046565 $329 $439 forward 7 unknown #
coedge $-1 $440 $220 $222 $337 forward $327 $-1 #
coedge $-1 $220 $440 $436 $441 reversed $327 $-1 #
vertex $-1 $441 $442 #
vertex $-1 $337 $443 #
straight-curve $-1 -64.225592822046565 17.458176419673837 -4.2292073623217892 0 0 1 I I #
edge $-1 $335 5.8237350468647957 $341 17.445147698753289 $332 $444 forward 7 unknown #
coedge $-1 $445 $223 $227 $346 forward $340 $-1 #
coedge $-1 $223 $445 $440 $446 reversed $340 $-1 #
loop $-1 $-1 $223 $326 #
vertex $-1 $446 $447 #
straight-curve $-1 0 29.079589071562328 -6.5620569840271408 1 0 0 I I #
straight-curve $-1 0 17.458176419673837 -6.5620569840271408 1 0 0 I I #
coedge $-1 $227 $226 $437 $448 reversed $129 $-1 #
edge $-1 $229 2.3328496217053516 $438 6.1255651029382268 $226 $449 forward 7 unknown #
edge $-1 $228 6.5620569840271408 $450 10.354772465260016 $227 $451 forward 7 unknown #
point $-1 64.225592822046565 29.079589071562328 -6.5620569840271408 #
point $-1 64.225592822046565 17.458176419673837 -6.5620569840271408 #
loop $-1 $-1 $239 $231 #
plane-surface $-1 64.225592822046565 0 0 -1 0 0 0 0 1 forward_v I I I I #
coedge $-1 $352 $234 $236 $356 reversed $137 $-1 #
coedge $-1 $234 $351 $452 $453 reversed $137 $-1 #
coedge $-1 $242 $237 $234 $354 forward $232 $-1 #
edge $-1 $357 15.841524617241973 $454 22.618610329553405 $353 $455 forward 7 unknown #
coedge $-1 $236 $235 $360 $456 reversed $85 $-1 #
edge $-1 $457 -128.45118564409313 $357 -117.6822896751344 $351 $458 forward 7 unknown #
vertex $-1 $238 $459 #
straight-curve $-1 57.448507109735147 -1.9066701843423317 10.354772465260012 0 -1 0 I I #
coedge $-1 $452 $239 $242 $364 reversed $349 $-1 #
coedge $-1 $239 $452 $355 $456 forward $349 $-1 #
vertex $-1 $240 $460 #
straight-curve $-1 64.225592822046565 -0.12785939320093931 91.324019331425831 0 0 1 I I #
straight-curve $-1 -16.611356245650498 -0.12785939320093931 101.81108959515461 0.62932038083071107 0 -0.77714596973225614 I I #
edge $-1 $454 -7.4988213441683875 $243 -0.12785939320093931 $359 $461 forward 7 unknown #
point $-1 64.225592822046565 -0.12785939320093931 10.354772465260016 #
point $-1 57.448507109735132 -0.12785939320093931 10.354772465260012 #
edge $-1 $462 1 $462 0 $246 $-1 forward 7 unknown #
vertex $-1 $247 $463 #
ellipse-curve $-1 59.786265224657228 -5.3928322153205457 5.3193617319910569 0.77714596973225614 0 0.62932038083071107 0.31466019041535553 0 -0.38857298486612807 1 I I #
point $-1 61.151710156306223 -5.3928322153205457 5.7816974300227901 #
edge $-1 $464 1 $464 0 $250 $-1 forward 7 unknown #
vertex $-1 $251 $465 #
ellipse-curve $-1 59.786265224657228 -2.2338485220487811 5.3193617319910569 0.77714596973225614 0 0.62932038083071107 0.31466019041535553 0 -0.38857298486612807 1 I I #
point $-1 61.151710156306223 -2.2338485220487811 5.7816974300227901 #
plane-surface $-1 0 0 10.354772465260016 0 0 1 1 0 0 forward_v I I I I #
coedge $-1 $386 $385 $378 $466 forward $255 $-1 #
coedge $-1 $378 $257 $259 $382 reversed $159 $-1 #
coedge $-1 $257 $377 $376 $466 reversed $159 $-1 #
coedge $-1 $265 $260 $257 $380 forward $266 $-1 #
edge $-1 $383 -24.576949916606544 $467 -17.799864204295119 $379 $468 forward 7 unknown #
coedge $-1 $259 $258 $386 $469 reversed $99 $-1 #
edge $-1 $470 -2.2575505016944882e-014 $383 10.768895968958716 $377 $471 forward 7 unknown #
vertex $-1 $261 $472 #
straight-curve $-1 -57.448507109735139 -1.9066701843423317 10.354772465260016 0 1 0 I I #
coedge $-1 $376 $262 $265 $390 reversed $255 $-1 #
coedge $-1 $262 $376 $381 $469 forward $255 $-1 #
vertex $-1 $263 $473 #
straight-curve $-1 -64.225592822046565 -7.4988213441683875 41.411358716107429 0 0 1 I I #
straight-curve $-1 -64.225592822046551 -7.4988213441683875 1.9857683645178099 -0.62932038083071107 0 -0.77714596973225614 I I #
edge $-1 $467 0.12785939320093931 $267 7.4988213441683875 $385 $474 forward 7 unknown #
point $-1 -64.225592822046565 -7.4988213441683875 10.354772465260016 #
point $-1 -57.448507109735139 -7.4988213441683875 10.354772465260016 #
edge $-1 $475 1 $475 0 $270 $-1 forward 7 unknown #
vertex $-1 $271 $476 #
ellipse-curve $-1 -59.786265224657221 -5.3928322153205457 5.3193617319910551 -0.77714596973225614 0 0.62932038083071107 0.31466019041535553 0 0.38857298486612807 1 I I #
point $-1 -60.52238977547551 -5.3928322153205457 6.5588433997550446 #
edge $-1 $477 1 $477 0 $274 $-1 forward 7 unknown #
vertex $-1 $275 $478 #
ellipse-curve $-1 -59.786265224657221 -2.2338485220487811 5.3193617319910551 -0.77714596973225614 0 0.62932038083071107 0.31466019041535553 0 0.38857298486612807 1 I I #
point $-1 -60.52238977547551 -2.2338485220487811 6.5588433997550446 #
plane-surface $-1 64.225592822046565 0 0 -1 0 0 0 0 1 forward_v I I I I #
coedge $-1 $283 $281 $285 $406 reversed $181 $-1 #
edge $-1 $296 -10.354772465260016 $408 10.354772465260016 $295 $479 forward 7 unknown #
vertex $-1 $406 $480 #
straight-curve $-1 -64.225592822046565 -29.079589071562328 0 0 0 -1 I I #
edge $-1 $404 -29.079589071562328 $408 29.079589071562328 $402 $481 forward 7 unknown #
straight-curve $-1 0 -29.079589071562328 -10.354772465260016 -1 0 0 I I #
vertex $-1 $288 $482 #
straight-curve $-1 0 29.079589071562328 -10.354772465260016 1 0 0 I I #
point $-1 64.225592822046565 29.079589071562328 -10.354772465260016 #
point $-1 64.225592822046565 -29.079589071562328 -10.354772465260016 #
straight-curve $-1 -64.225592822046565 0 10.354772465260016 0 -1 0 I I #
point $-1 -64.225592822046565 29.079589071562328 10.354772465260016 #
point $-1 -64.225592822046565 -29.079589071562328 10.354772465260016 #
straight-curve $-1 64.225592822046565 -29.079589071562328 0 0 0 -1 I I #
straight-curve $-1 64.225592822046565 29.079589071562328 0 0 0 -1 I I #
plane-surface $-1 64.225592822046565 0 0 -1 0 0 0 0 1 forward_v I I I I #
coedge $-1 $429 $420 $419 $483 forward $306 $-1 #
coedge $-1 $309 $308 $418 $483 reversed $121 $-1 #
coedge $-1 $418 $484 $310 $421 reversed $306 $-1 #
edge $-1 $422 -64.225592822046565 $425 64.225592822046565 $420 $485 forward 7 unknown #
vertex $-1 $311 $486 #
straight-curve $-1 -64.225592822046565 0 10.354772465260016 0 -1 0 I I #
coedge $-1 $318 $312 $484 $487 forward $319 $-1 #
vertex $-1 $313 $488 #
straight-curve $-1 64.225592822046565 0 10.354772465260016 0 1 0 I I #
point $-1 64.225592822046565 -29.079589071562328 10.354772465260016 #
point $-1 -64.225592822046565 -29.079589071562328 10.354772465260016 #
coedge $-1 $484 $418 $321 $430 reversed $306 $-1 #
edge $-1 $431 -64.225592822046565 $433 64.225592822046565 $429 $489 forward 7 unknown #
vertex $-1 $487 $490 #
straight-curve $-1 64.225592822046565 -33.275457144505019 7.3547724652600159 0 -1 0 I I #
vertex $-1 $323 $491 #
straight-curve $-1 -64.225592822046565 -33.275457144505019 7.3547724652600159 0 1 0 I I #
plane-surface $-1 0 29.079589071562328 0 0 -1 0 0 0 -1 forward_v I I I I #
coedge $-1 $492 $329 $333 $441 forward $216 $-1 #
coedge $-1 $329 $492 $344 $448 forward $216 $-1 #
vertex $-1 $331 $493 #
straight-curve $-1 0 17.458176419673837 -10.354772465260016 -1 0 0 I I #
coedge $-1 $333 $332 $339 $446 forward $327 $-1 #
edge $-1 $334 17.458176419673837 $494 29.079589071562328 $333 $495 forward 7 unknown #
point $-1 -64.225592822046565 17.458176419673837 -10.354772465260016 #
point $-1 -64.225592822046565 17.458176419673837 -6.5620569840271408 #
straight-curve $-1 -64.225592822046565 11.634441372809041 -6.5620569840271408 0 1 0 I I #
coedge $-1 $339 $338 $492 $496 reversed $340 $-1 #
edge $-1 $341 6.5620569840271408 $494 10.354772465260016 $339 $497 forward 7 unknown #
point $-1 -64.225592822046565 29.079589071562328 -6.5620569840271408 #
edge $-1 $450 -29.079589071562328 $438 -17.458176419673837 $344 $498 forward 7 unknown #
straight-curve $-1 64.225592822046565 17.458176419673837 -4.2292073623217892 0 0 -1 I I #
vertex $-1 $448 $499 #
straight-curve $-1 64.225592822046565 29.079589071562328 0 0 0 -1 I I #
coedge $-1 $360 $359 $352 $453 forward $349 $-1 #
edge $-1 $454 80.969246866165818 $457 89.338250966908035 $452 $500 forward 7 unknown #
vertex $-1 $364 $501 #
straight-curve $-1 41.606982492493159 -7.4988213441683875 10.354772465260012 1 0 0 I I #
edge $-1 $457 -5.5921511598260558 $361 1.7788107911413924 $360 $502 forward 7 unknown #
vertex $-1 $456 $503 #
straight-curve $-1 -16.611356245650498 -7.4988213441683875 101.81108959515461 -0.62932038083071107 0 0.77714596973225614 I I #
point $-1 57.448507109735132 -7.4988213441683875 10.354772465260012 #
point $-1 64.225592822046551 -0.12785939320093931 1.9857683645177957 #
straight-curve $-1 64.225592822046565 0 10.354772465260016 0 1 0 I I #
vertex $-1 $367 $504 #
point $-1 60.100925415072581 -5.3928322153205457 4.9307887471249288 #
vertex $-1 $371 $505 #
point $-1 60.100925415072581 -2.2338485220487811 4.9307887471249288 #
edge $-1 $467 31.056586250847413 $470 39.425590351589634 $376 $506 forward 7 unknown #
vertex $-1 $390 $507 #
straight-curve $-1 -82.025457026341684 -0.12785939320093931 10.354772465260019 -1 0 0 I I #
edge $-1 $470 -1.7788107911413924 $387 5.5921511598260558 $386 $508 forward 7 unknown #
vertex $-1 $469 $509 #
straight-curve $-1 -64.225592822046551 -0.12785939320093931 1.9857683645178099 0.62932038083071107 0 0.77714596973225614 I I #
point $-1 -57.448507109735139 -0.12785939320093931 10.354772465260016 #
point $-1 -64.225592822046565 -7.4988213441683875 1.9857683645177924 #
straight-curve $-1 -64.225592822046565 0 10.354772465260016 0 -1 0 I I #
vertex $-1 $393 $510 #
point $-1 -59.471605034241861 -5.3928322153205457 5.7079347168571832 #
vertex $-1 $397 $511 #
point $-1 -59.471605034241861 -2.2338485220487811 5.7079347168571832 #
straight-curve $-1 -64.225592822046565 29.079589071562328 0 0 0 -1 I I #
point $-1 -64.225592822046565 -29.079589071562328 -10.354772465260016 #
straight-curve $-1 -64.225592822046565 0 -10.354772465260016 0 1 0 I I #
point $-1 -64.225592822046565 29.079589071562328 -10.354772465260016 #
edge $-1 $422 -1.5 $433 1.5 $419 $512 forward 7 unknown #
coedge $-1 $420 $429 $424 $487 reversed $306 $-1 #
straight-curve $-1 0 -37.471325217447706 10.354772465260016 1 0 0 I I #
point $-1 -64.225592822046565 -37.471325217447706 10.354772465260016 #
edge $-1 $425 -1.5 $431 1.5 $424 $513 forward 7 unknown #
point $-1 64.225592822046565 -37.471325217447706 10.354772465260016 #
straight-curve $-1 0 -37.471325217447706 7.3547724652600159 -1 0 0 I I #
point $-1 64.225592822046565 -37.471325217447706 7.3547724652600159 #
point $-1 -64.225592822046565 -37.471325217447706 7.3547724652600159 #
coedge $-1 $437 $436 $445 $496 forward $216 $-1 #
point $-1 64.225592822046565 17.458176419673837 -10.354772465260016 #
vertex $-1 $496 $514 #
straight-curve $-1 -64.225592822046565 0 -10.354772465260016 0 1 0 I I #
edge $-1 $494 -64.225592822046565 $450 64.225592822046565 $445 $515 forward 7 unknown #
straight-curve $-1 -64.225592822046565 29.079589071562328 0 0 0 -1 I I #
straight-curve $-1 64.225592822046565 0 -10.354772465260016 0 -1 0 I I #
point $-1 64.225592822046565 29.079589071562328 -10.354772465260016 #
straight-curve $-1 64.225592822046565 -7.4988213441683875 91.324019331425831 0 0 -1 I I #
point $-1 64.225592822046565 -7.4988213441683875 10.354772465260016 #
straight-curve $-1 64.225592822046565 -1.9066701843423317 1.9857683645177886 0 1 0 I I #
point $-1 64.225592822046551 -7.4988213441683875 1.9857683645177957 #
point $-1 59.397692239791098 -5.3928322153205457 5.0047015415757006 #
point $-1 59.397692239791098 -2.2338485220487811 5.0047015415757006 #
straight-curve $-1 -64.225592822046565 -0.12785939320093931 41.411358716107429 0 0 -1 I I #
point $-1 -64.225592822046565 -0.12785939320093931 10.354772465260016 #
straight-curve $-1 -64.225592822046565 -1.9066701843423317 1.9857683645177984 0 -1 0 I I #
point $-1 -64.225592822046565 -0.12785939320093931 1.9857683645177924 #
point $-1 -59.397692239791091 -5.3928322153205457 5.0047015415756988 #
point $-1 -59.397692239791091 -2.2338485220487811 5.0047015415756988 #
straight-curve $-1 -64.225592822046565 -37.471325217447706 8.8547724652600159 0 0 -1 I I #
straight-curve $-1 64.225592822046565 -37.471325217447706 8.8547724652600159 0 0 -1 I I #
point $-1 -64.225592822046565 29.079589071562328 -10.354772465260016 #
straight-curve $-1 0 29.079589071562328 -10.354772465260016 1 0 0 I I #
End-of-ACIS-data 