500 0 8 0           
7 Unknown 11 ACIS 5.0 NT 24 Fri Mar 26 03:27:16 1999 
-1 9.9999999999999995e-007 1e-010 
body $-1 $8 $-1 $9 #
body $-1 $10 $-1 $11 #
body $-1 $12 $-1 $13 #
body $-1 $14 $-1 $15 #
body $-1 $16 $-1 $17 #
body $-1 $18 $-1 $19 #
body $-1 $20 $-1 $21 #
body $-1 $22 $-1 $23 #
lump $-1 $-1 $24 $0 #
transform $-1 1 0 0 0 1 0 0 0 1 59.506210516678365 35.721886718502354 12.858004111230937 1 rotate no_reflect no_shear #
lump $-1 $-1 $25 $1 #
transform $-1 1 0 0 0 1 0 0 0 1 59.506210516678365 35.721886718502354 12.858004111230937 1 rotate no_reflect no_shear #
lump $-1 $-1 $26 $2 #
transform $-1 1 0 0 0 1 0 0 0 1 59.506210516678365 35.721886718502354 12.858004111230937 1 rotate no_reflect no_shear #
lump $-1 $-1 $27 $3 #
transform $-1 1 0 0 0 1 0 0 0 1 59.506210516678365 35.721886718502354 12.858004111230937 1 rotate no_reflect no_shear #
lump $-1 $-1 $28 $4 #
transform $-1 1 0 0 0 1 0 0 0 1 59.506210516678365 35.721886718502354 12.858004111230937 1 rotate no_reflect no_shear #
lump $-1 $-1 $29 $5 #
transform $-1 1 0 0 0 1 0 0 0 1 59.506210516678365 35.721886718502354 12.858004111230937 1 rotate no_reflect no_shear #
lump $-1 $-1 $30 $6 #
transform $-1 1 0 0 0 1 0 0 0 1 59.506210516678365 35.721886718502354 12.858004111230937 1 rotate no_reflect no_shear #
lump $-1 $-1 $31 $7 #
transform $-1 1 0 0 0 1 0 0 0 1 59.506210516678365 35.721886718502354 12.858004111230937 1 rotate no_reflect no_shear #
shell $-1 $-1 $-1 $32 $-1 $8 #
shell $-1 $-1 $-1 $33 $-1 $10 #
shell $-1 $-1 $-1 $34 $-1 $12 #
shell $-1 $-1 $-1 $35 $-1 $14 #
shell $-1 $-1 $-1 $36 $-1 $16 #
shell $-1 $-1 $-1 $37 $-1 $18 #
shell $-1 $-1 $-1 $38 $-1 $20 #
shell $-1 $-1 $-1 $39 $-1 $22 #
face $-1 $40 $41 $24 $-1 $42 forward single #
face $-1 $43 $44 $25 $-1 $45 forward single #
face $-1 $46 $47 $26 $-1 $48 reversed single #
face $-1 $49 $50 $27 $-1 $51 forward single #
face $-1 $52 $53 $28 $-1 $54 forward single #
face $-1 $55 $56 $29 $-1 $57 reversed single #
face $-1 $58 $59 $30 $-1 $60 forward single #
face $-1 $61 $62 $31 $-1 $63 forward single #
face $-1 $64 $65 $24 $-1 $66 reversed single #
loop $-1 $-1 $67 $32 #
plane-surface $-1 0 0 12.858004111230937 0 0 1 1 0 0 forward_v I I I I #
face $-1 $68 $69 $25 $-1 $70 reversed single #
loop $-1 $-1 $71 $33 #
plane-surface $-1 -59.506210516678365 0 0 1 0 0 0 0 -1 forward_v I I I I #
face $-1 $72 $73 $26 $-1 $74 reversed single #
loop $-1 $-1 $75 $34 #
plane-surface $-1 36.858104459088842 92.232691534229645 132.41466503163059 1 0 0 0 -0.81915205242281985 -0.57357642473473569 forward_v I I I I #
face $-1 $76 $77 $27 $-1 $78 forward single #
loop $-1 $79 $80 $35 #
cone-surface $-1 43.328991904114432 31.039066801771451 7.7366189346673275 0 -0.81915205242281985 -0.57357642473473569 2 0 0 1 I I 0 1 2 forward I I I I #
face $-1 $81 $82 $28 $-1 $83 forward single #
loop $-1 $84 $85 $36 #
cone-surface $-1 53.035323071652797 31.039066801771451 7.7366189346673275 0 -0.81915205242281985 -0.57357642473473569 2 0 0 1 I I 0 1 2 forward I I I I #
face $-1 $86 $87 $29 $-1 $88 reversed single #
loop $-1 $-1 $89 $37 #
plane-surface $-1 -29.445278482962941 -115.35674112654661 91.566604371444015 -1 0 0 0 -0.66913061440640931 0.74314481823134659 forward_v I I I I #
face $-1 $90 $91 $30 $-1 $92 forward single #
loop $-1 $93 $94 $38 #
cone-surface $-1 -43.922088021823384 -28.676648304703932 6.1698254812239623 0 0.66913061440640931 -0.74314481823134659 2 0 0 1 I I 0 1 2 forward I I I I #
face $-1 $95 $96 $31 $-1 $97 forward single #
loop $-1 $98 $99 $39 #
cone-surface $-1 -35.236002298507117 -28.676648304703932 6.1698254812239623 0 0.66913061440640931 -0.74314481823134659 2 0 0 1 I I 0 1 2 forward I I I I #
face $-1 $100 $101 $24 $-1 $102 reversed single #
loop $-1 $-1 $103 $40 #
plane-surface $-1 0 0 -12.858004111230937 0 0 1 1 0 0 forward_v I I I I #
coedge $-1 $104 $105 $106 $107 forward $41 $-1 #
face $-1 $108 $109 $25 $-1 $110 forward single #
loop $-1 $-1 $111 $43 #
plane-surface $-1 0 35.721886718502354 0 0 -1 0 0 0 -1 forward_v I I I I #
coedge $-1 $112 $113 $114 $115 forward $44 $-1 #
face $-1 $116 $117 $26 $-1 $118 reversed single #
loop $-1 $-1 $119 $46 #
plane-surface $-1 48.1821574878836 -5.2565774190533006 64.151946076292774 0 0.81915205242281985 0.57357642473473569 1 0 0 forward_v I I I I #
coedge $-1 $120 $121 $122 $123 reversed $47 $-1 #
face $-1 $-1 $124 $27 $-1 $125 forward single #
loop $-1 $126 $127 $49 #
cone-surface $-1 43.328991904114432 28.068125029195983 5.6563431727147311 0 -0.81915205242281985 -0.57357642473473569 1 0 0 1 I I -0.70710678118654746 0.70710678118654746 1 forward I I I I #
loop $-1 $-1 $128 $35 #
coedge $-1 $80 $80 $129 $130 reversed $50 $-1 #
face $-1 $-1 $131 $28 $-1 $132 forward single #
loop $-1 $133 $134 $52 #
cone-surface $-1 53.035323071652797 28.068125029195983 5.6563431727147311 0 -0.81915205242281985 -0.57357642473473569 1 0 0 1 I I -0.70710678118654746 0.70710678118654746 1 forward I I I I #
loop $-1 $-1 $135 $36 #
coedge $-1 $85 $85 $136 $137 reversed $53 $-1 #
face $-1 $138 $139 $29 $-1 $140 reversed single #
loop $-1 $-1 $141 $55 #
plane-surface $-1 -39.579045160165251 -35.721886718502347 3.1231403753376412 0 -0.66913061440640931 0.74314481823134659 1 0 0 forward_v I I I I #
coedge $-1 $142 $143 $144 $145 reversed $56 $-1 #
face $-1 $-1 $146 $30 $-1 $147 forward single #
loop $-1 $148 $149 $58 #
cone-surface $-1 -43.922088021823384 -26.368109906394178 3.605933900932289 0 0.66913061440640931 -0.74314481823134659 1 0 0 1 I I -0.70710678118654746 0.70710678118654746 1 forward I I I I #
loop $-1 $-1 $150 $38 #
coedge $-1 $94 $94 $151 $152 reversed $59 $-1 #
face $-1 $-1 $153 $31 $-1 $154 forward single #
loop $-1 $155 $156 $61 #
cone-surface $-1 -35.236002298507117 -26.368109906394178 3.605933900932289 0 0.66913061440640931 -0.74314481823134659 1 0 0 1 I I -0.70710678118654746 0.70710678118654746 1 forward I I I I #
loop $-1 $-1 $157 $39 #
coedge $-1 $99 $99 $158 $159 reversed $62 $-1 #
face $-1 $160 $161 $24 $-1 $162 reversed single #
loop $-1 $-1 $163 $64 #
plane-surface $-1 0 -35.721886718502354 0 0 1 0 0 0 1 forward_v I I I I #
coedge $-1 $164 $165 $166 $167 forward $65 $-1 #
coedge $-1 $168 $67 $169 $170 forward $41 $-1 #
coedge $-1 $67 $168 $171 $172 forward $41 $-1 #
coedge $-1 $173 $174 $67 $107 reversed $175 $-1 #
edge $-1 $176 -35.721886718502354 $177 35.721886718502354 $106 $178 forward 7 unknown #
face $-1 $179 $180 $25 $-1 $181 reversed single #
loop $-1 $-1 $114 $68 #
plane-surface $-1 -64.402909856333764 0 -7.9572315856667046 0 0 1 1 0 0 forward_v I I I I #
coedge $-1 $182 $183 $113 $184 forward $69 $-1 #
coedge $-1 $185 $71 $186 $187 reversed $44 $-1 #
coedge $-1 $71 $185 $111 $184 reversed $44 $-1 #
coedge $-1 $188 $189 $71 $115 reversed $109 $-1 #
edge $-1 $190 -35.721886718502354 $191 35.721886718502354 $114 $192 forward 7 unknown #
face $-1 $193 $194 $26 $-1 $195 reversed single #
loop $-1 $-1 $196 $72 #
plane-surface $-1 59.506210516678365 0 0 -1 0 0 0 0 1 forward_v I I I I #
coedge $-1 $197 $198 $199 $200 reversed $73 $-1 #
coedge $-1 $121 $75 $201 $202 reversed $47 $-1 #
coedge $-1 $75 $120 $197 $203 reversed $47 $-1 #
coedge $-1 $199 $204 $75 $123 forward $205 $-1 #
edge $-1 $206 10.394459048612468 $207 15.456519441769004 $122 $208 forward 7 unknown #
loop $-1 $-1 $129 $76 #
plane-surface $-1 48.1821574878836 -5.2565774190533006 64.151946076292774 0 0.81915205242281985 0.57357642473473569 1 0 0 forward_v I I I I #
loop $-1 $-1 $209 $49 #
coedge $-1 $127 $127 $128 $210 reversed $77 $-1 #
coedge $-1 $128 $128 $127 $210 forward $79 $-1 #
coedge $-1 $129 $129 $80 $130 forward $124 $-1 #
edge $-1 $211 -2.8981343250492278e-016 $211 6.2831853071796004 $129 $212 forward 7 unknown #
loop $-1 $-1 $136 $81 #
plane-surface $-1 48.1821574878836 -5.2565774190533006 64.151946076292774 0 0.81915205242281985 0.57357642473473569 1 0 0 forward_v I I I I #
loop $-1 $-1 $213 $52 #
coedge $-1 $134 $134 $135 $214 reversed $82 $-1 #
coedge $-1 $135 $135 $134 $214 forward $84 $-1 #
coedge $-1 $136 $136 $85 $137 forward $131 $-1 #
edge $-1 $215 -2.8981343250492278e-016 $215 6.2831853071796004 $136 $216 forward 7 unknown #
face $-1 $217 $218 $29 $-1 $219 forward single #
loop $-1 $-1 $220 $86 #
plane-surface $-1 -49.71281183736756 -115.35674112654661 91.566604371444015 1 0 0 0 0.66913061440640931 -0.74314481823134659 forward_v I I I I #
coedge $-1 $221 $222 $223 $224 reversed $87 $-1 #
coedge $-1 $143 $89 $225 $226 reversed $56 $-1 #
coedge $-1 $89 $142 $221 $227 reversed $56 $-1 #
coedge $-1 $223 $228 $89 $145 forward $218 $-1 #
edge $-1 $229 21.95648384477095 $230 32.7681451045611 $144 $231 forward 7 unknown #
loop $-1 $-1 $151 $90 #
plane-surface $-1 -39.579045160165251 -35.721886718502347 3.1231403753376412 0 -0.66913061440640931 0.74314481823134659 1 0 0 forward_v I I I I #
loop $-1 $-1 $232 $58 #
coedge $-1 $149 $149 $150 $233 reversed $91 $-1 #
coedge $-1 $150 $150 $149 $233 forward $93 $-1 #
coedge $-1 $151 $151 $94 $152 forward $146 $-1 #
edge $-1 $234 -1.022936694691879e-015 $234 6.2831853071795996 $151 $235 forward 7 unknown #
loop $-1 $-1 $158 $95 #
plane-surface $-1 -39.579045160165251 -35.721886718502347 3.1231403753376412 0 -0.66913061440640931 0.74314481823134659 1 0 0 forward_v I I I I #
loop $-1 $-1 $236 $61 #
coedge $-1 $156 $156 $157 $237 reversed $96 $-1 #
coedge $-1 $157 $157 $156 $237 forward $98 $-1 #
coedge $-1 $158 $158 $99 $159 forward $153 $-1 #
edge $-1 $238 -1.022936694691879e-015 $238 6.2831853071795996 $158 $239 forward 7 unknown #
face $-1 $240 $241 $24 $-1 $242 reversed single #
loop $-1 $-1 $243 $100 #
plane-surface $-1 -59.506210516678365 0 0 1 0 0 0 0 -1 forward_v I I I I #
coedge $-1 $244 $171 $245 $246 forward $101 $-1 #
coedge $-1 $247 $103 $244 $248 forward $65 $-1 #
coedge $-1 $103 $247 $249 $250 forward $65 $-1 #
coedge $-1 $174 $173 $103 $167 reversed $175 $-1 #
edge $-1 $251 -35.721886718502354 $252 35.721886718502354 $166 $253 forward 7 unknown #
coedge $-1 $105 $104 $254 $255 forward $41 $-1 #
coedge $-1 $256 $257 $104 $170 reversed $241 $-1 #
edge $-1 $177 -59.506210516678365 $258 59.506210516678365 $169 $259 forward 7 unknown #
coedge $-1 $163 $260 $105 $172 reversed $101 $-1 #
edge $-1 $261 -59.506210516678365 $176 59.506210516678365 $171 $262 forward 7 unknown #
coedge $-1 $166 $106 $260 $263 forward $175 $-1 #
coedge $-1 $106 $166 $256 $264 reversed $175 $-1 #
loop $-1 $-1 $173 $240 #
vertex $-1 $107 $265 #
vertex $-1 $107 $266 #
straight-curve $-1 59.506210516678365 0 12.858004111230937 0 1 0 I I #
face $-1 $267 $268 $25 $-1 $269 reversed single #
loop $-1 $-1 $270 $108 #
plane-surface $-1 -69.299609195989163 0 -10.407617848448821 1 0 0 0 0 -1 forward_v I I I I #
coedge $-1 $271 $111 $272 $273 reversed $69 $-1 #
coedge $-1 $111 $271 $188 $274 reversed $69 $-1 #
edge $-1 $190 7.9572315856667046 $275 12.858004111230937 $111 $276 forward 7 unknown #
coedge $-1 $113 $112 $277 $278 reversed $44 $-1 #
coedge $-1 $279 $280 $112 $187 forward $281 $-1 #
edge $-1 $282 -12.858004111230937 $191 -7.9572315856667046 $186 $283 forward 7 unknown #
coedge $-1 $284 $114 $183 $274 forward $109 $-1 #
coedge $-1 $114 $284 $279 $285 forward $109 $-1 #
vertex $-1 $184 $286 #
vertex $-1 $285 $287 #
straight-curve $-1 -59.506210516678365 0 -7.9572315856667046 0 -1 0 I I #
face $-1 $-1 $205 $26 $-1 $288 forward single #
loop $-1 $-1 $289 $116 #
plane-surface $-1 0 35.721886718502354 0 0 -1 0 0 0 -1 forward_v I I I I #
coedge $-1 $290 $291 $198 $292 forward $117 $-1 #
coedge $-1 $293 $119 $121 $203 forward $73 $-1 #
coedge $-1 $119 $293 $196 $292 reversed $73 $-1 #
coedge $-1 $294 $122 $119 $200 forward $205 $-1 #
edge $-1 $207 12.767025715147042 $295 35.415131772736558 $199 $296 forward 7 unknown #
coedge $-1 $297 $289 $120 $202 forward $194 $-1 #
edge $-1 $298 -60.578700083275891 $206 -53.349328404584355 $201 $299 forward 7 unknown #
edge $-1 $207 62.618340286579127 $298 71.443773437004751 $121 $300 forward 7 unknown #
coedge $-1 $122 $294 $297 $301 forward $205 $-1 #
loop $-1 $-1 $199 $193 #
vertex $-1 $202 $302 #
vertex $-1 $123 $303 #
straight-curve $-1 36.858104459088842 46.116345767114822 12.85800411123094 0 -1 0 I I #
coedge $-1 $209 $209 $-1 $304 reversed $126 $-1 #
edge $-1 $305 0 $305 6.2831853071796004 $127 $306 forward 7 unknown #
vertex $-1 $130 $307 #
ellipse-curve $-1 43.328991904114432 33.190856521924083 9.2433182718851779 0 0.81915205242281985 0.57357642473473569 2 0 0 1 I I #
coedge $-1 $213 $213 $-1 $308 reversed $133 $-1 #
edge $-1 $309 0 $309 6.2831853071796004 $134 $310 forward 7 unknown #
vertex $-1 $137 $311 #
ellipse-curve $-1 53.035323071652797 33.190856521924083 9.2433182718851779 0 0.81915205242281985 0.57357642473473569 2 0 0 1 I I #
face $-1 $-1 $312 $29 $-1 $313 reversed single #
loop $-1 $-1 $144 $138 #
plane-surface $-1 0 0 12.858004111230937 0 0 1 1 0 0 forward_v I I I I #
coedge $-1 $314 $315 $316 $317 reversed $139 $-1 #
coedge $-1 $318 $141 $143 $227 forward $87 $-1 #
coedge $-1 $141 $318 $314 $319 forward $87 $-1 #
coedge $-1 $316 $144 $141 $224 forward $218 $-1 #
edge $-1 $230 9.6557559028803155 $320 29.923289257284935 $223 $321 forward 7 unknown #
coedge $-1 $322 $323 $142 $226 forward $312 $-1 #
edge $-1 $324 -42.660161810384373 $229 -32.925298074491067 $225 $325 forward 7 unknown #
edge $-1 $230 -14.548525394446589 $324 9.4405131238556439e-015 $143 $326 forward 7 unknown #
coedge $-1 $144 $316 $322 $327 forward $218 $-1 #
vertex $-1 $226 $328 #
vertex $-1 $145 $329 #
straight-curve $-1 -29.445278482962941 -57.678370563273305 12.85800411123094 0 1 0 I I #
coedge $-1 $232 $232 $-1 $330 reversed $148 $-1 #
edge $-1 $331 0 $331 6.2831853071796004 $149 $332 forward 7 unknown #
vertex $-1 $152 $333 #
ellipse-curve $-1 -43.922088021823384 -30.316056088607276 7.9905722432842881 0 -0.66913061440640931 0.74314481823134659 2 0 0 1 I I #
coedge $-1 $236 $236 $-1 $334 reversed $155 $-1 #
edge $-1 $335 0 $335 6.2831853071796004 $156 $336 forward 7 unknown #
vertex $-1 $159 $337 #
ellipse-curve $-1 -35.236002298507117 -30.316056088607276 7.9905722432842881 0 -0.66913061440640931 0.74314481823134659 2 0 0 1 I I #
face $-1 $-1 $175 $24 $-1 $338 reversed single #
loop $-1 $-1 $256 $160 #
plane-surface $-1 0 35.721886718502354 0 0 -1 0 0 0 -1 forward_v I I I I #
coedge $-1 $339 $254 $257 $340 forward $161 $-1 #
coedge $-1 $260 $163 $164 $248 reversed $101 $-1 #
coedge $-1 $254 $339 $163 $246 reversed $161 $-1 #
edge $-1 $261 -12.858004111230937 $341 12.858004111230937 $245 $342 forward 7 unknown #
coedge $-1 $165 $164 $339 $343 forward $65 $-1 #
edge $-1 $252 -59.506210516678365 $341 59.506210516678365 $244 $344 forward 7 unknown #
coedge $-1 $257 $256 $165 $250 reversed $241 $-1 #
edge $-1 $345 -59.506210516678365 $251 59.506210516678365 $249 $346 forward 7 unknown #
vertex $-1 $167 $347 #
vertex $-1 $263 $348 #
straight-curve $-1 59.506210516678365 0 -12.858004111230937 0 -1 0 I I #
coedge $-1 $243 $245 $168 $255 reversed $161 $-1 #
edge $-1 $258 -35.721886718502354 $261 35.721886718502354 $254 $349 forward 7 unknown #
coedge $-1 $249 $169 $174 $264 forward $241 $-1 #
coedge $-1 $169 $249 $243 $340 reversed $241 $-1 #
vertex $-1 $170 $350 #
straight-curve $-1 0 35.721886718502354 12.858004111230937 -1 0 0 I I #
coedge $-1 $171 $244 $173 $263 reversed $101 $-1 #
vertex $-1 $255 $351 #
straight-curve $-1 0 -35.721886718502354 12.858004111230937 1 0 0 I I #
edge $-1 $176 -12.858004111230937 $252 12.858004111230937 $173 $352 forward 7 unknown #
edge $-1 $177 -12.858004111230937 $251 12.858004111230937 $174 $353 forward 7 unknown #
point $-1 59.506210516678365 -35.721886718502354 12.858004111230937 #
point $-1 59.506210516678365 35.721886718502354 12.858004111230937 #
face $-1 $-1 $281 $25 $-1 $354 reversed single #
loop $-1 $-1 $277 $179 #
plane-surface $-1 0 0 -12.858004111230937 0 0 1 1 0 0 forward_v I I I I #
coedge $-1 $355 $356 $271 $357 forward $180 $-1 #
coedge $-1 $183 $182 $270 $357 reversed $69 $-1 #
coedge $-1 $277 $358 $182 $273 forward $268 $-1 #
edge $-1 $359 -69.299609195989163 $275 -59.506210516678365 $182 $360 forward 7 unknown #
edge $-1 $190 -4.8966993396554059 $361 4.8966993396553988 $183 $362 forward 7 unknown #
vertex $-1 $184 $363 #
straight-curve $-1 -59.506210516678365 35.721886718502354 0 0 0 -1 I I #
coedge $-1 $364 $272 $185 $278 forward $268 $-1 #
edge $-1 $275 -35.721886718502354 $282 35.721886718502354 $277 $365 forward 7 unknown #
coedge $-1 $366 $186 $189 $285 reversed $281 $-1 #
coedge $-1 $186 $366 $364 $367 reversed $281 $-1 #
loop $-1 $-1 $186 $267 #
vertex $-1 $367 $368 #
straight-curve $-1 -59.506210516678365 -35.721886718502354 0 0 0 1 I I #
coedge $-1 $189 $188 $356 $369 forward $109 $-1 #
edge $-1 $370 -4.8966993396553988 $191 4.8966993396554059 $279 $371 forward 7 unknown #
point $-1 -59.506210516678358 35.721886718502354 -7.9572315856667046 #
point $-1 -59.506210516678358 -35.721886718502354 -7.9572315856667046 #
plane-surface $-1 0 0 12.858004111230937 0 0 1 1 0 0 forward_v I I I I #
coedge $-1 $201 $372 $293 $373 forward $194 $-1 #
coedge $-1 $291 $196 $372 $374 reversed $117 $-1 #
coedge $-1 $196 $290 $294 $375 reversed $117 $-1 #
edge $-1 $295 34.835716697741518 $376 43.661149848167135 $196 $377 forward 7 unknown #
coedge $-1 $198 $197 $289 $373 reversed $73 $-1 #
coedge $-1 $204 $199 $291 $375 forward $205 $-1 #
vertex $-1 $375 $378 #
straight-curve $-1 24.0910787439418 30.659826325345822 12.858004111230933 1 0 0 I I #
coedge $-1 $372 $201 $204 $301 reversed $194 $-1 #
vertex $-1 $202 $379 #
straight-curve $-1 36.858104459088842 35.721886718502354 66.207332515815295 0 0 1 I I #
straight-curve $-1 36.858104459088842 -5.2565774190533006 64.151946076292774 0 0.57357642473473569 -0.81915205242281985 I I #
edge $-1 $380 -59.506210516678365 $206 -36.858104459088842 $297 $381 forward 7 unknown #
point $-1 36.858104459088842 35.721886718502354 12.858004111230937 #
point $-1 36.858104459088842 30.659826325345819 12.85800411123094 #
edge $-1 $382 1 $382 0 $209 $-1 forward 7 unknown #
vertex $-1 $210 $383 #
ellipse-curve $-1 43.328991904114432 28.887277081618802 6.2299195974494666 0 0.81915205242281985 0.57357642473473569 2 0 0 1 I I #
point $-1 45.328991904114432 33.190856521924097 9.2433182718851885 #
edge $-1 $384 1 $384 0 $213 $-1 forward 7 unknown #
vertex $-1 $214 $385 #
ellipse-curve $-1 53.035323071652797 28.887277081618802 6.2299195974494666 0 0.81915205242281985 0.57357642473473569 2 0 0 1 I I #
point $-1 55.035323071652797 33.190856521924097 9.2433182718851885 #
loop $-1 $-1 $225 $217 #
plane-surface $-1 0 -35.721886718502354 0 0 1 0 0 0 1 forward_v I I I I #
coedge $-1 $315 $220 $222 $319 reversed $139 $-1 #
coedge $-1 $220 $314 $386 $387 reversed $139 $-1 #
coedge $-1 $228 $223 $220 $317 forward $218 $-1 #
edge $-1 $320 -32.7681451045611 $388 -21.95648384477095 $316 $389 forward 7 unknown #
coedge $-1 $222 $221 $323 $390 reversed $87 $-1 #
edge $-1 $391 -9.4405131238556439e-015 $320 14.548525394446589 $314 $392 forward 7 unknown #
vertex $-1 $224 $393 #
straight-curve $-1 -19.789522580082625 -24.910225458712205 12.858004111230937 -1 0 0 I I #
coedge $-1 $386 $225 $228 $327 reversed $312 $-1 #
coedge $-1 $225 $386 $318 $390 forward $312 $-1 #
vertex $-1 $226 $394 #
straight-curve $-1 -29.445278482962941 -35.721886718502354 45.783302185722007 0 0 1 I I #
straight-curve $-1 -29.445278482962941 -35.721886718502347 3.1231403753376412 0 -0.74314481823134659 -0.66913061440640931 I I #
edge $-1 $388 -49.71281183736756 $229 -29.445278482962941 $322 $395 forward 7 unknown #
point $-1 -29.445278482962941 -35.721886718502354 12.858004111230937 #
point $-1 -29.445278482962941 -24.910225458712205 12.858004111230937 #
edge $-1 $396 1 $396 0 $232 $-1 forward 7 unknown #
vertex $-1 $233 $397 #
ellipse-curve $-1 -43.922088021823384 -27.037240520800587 4.3490787191636358 0 -0.66913061440640931 0.74314481823134659 2 0 0 1 I I #
point $-1 -41.922088021823384 -30.316056088607279 7.9905722432842889 #
edge $-1 $398 1 $398 0 $236 $-1 forward 7 unknown #
vertex $-1 $237 $399 #
ellipse-curve $-1 -35.236002298507117 -27.037240520800587 4.3490787191636358 0 -0.66913061440640931 0.74314481823134659 2 0 0 1 I I #
point $-1 -33.236002298507117 -30.316056088607279 7.9905722432842889 #
plane-surface $-1 59.506210516678365 0 0 -1 0 0 0 0 1 forward_v I I I I #
coedge $-1 $245 $243 $247 $343 reversed $161 $-1 #
edge $-1 $258 -12.858004111230937 $345 12.858004111230937 $257 $400 forward 7 unknown #
vertex $-1 $343 $401 #
straight-curve $-1 -59.506210516678365 -35.721886718502354 0 0 0 -1 I I #
edge $-1 $341 -35.721886718502354 $345 35.721886718502354 $339 $402 forward 7 unknown #
straight-curve $-1 0 -35.721886718502354 -12.858004111230937 -1 0 0 I I #
vertex $-1 $250 $403 #
straight-curve $-1 0 35.721886718502354 -12.858004111230937 1 0 0 I I #
point $-1 59.506210516678365 35.721886718502354 -12.858004111230937 #
point $-1 59.506210516678365 -35.721886718502354 -12.858004111230937 #
straight-curve $-1 -59.506210516678365 0 12.858004111230937 0 -1 0 I I #
point $-1 -59.506210516678365 35.721886718502354 12.858004111230937 #
point $-1 -59.506210516678365 -35.721886718502354 12.858004111230937 #
straight-curve $-1 59.506210516678365 -35.721886718502354 0 0 0 -1 I I #
straight-curve $-1 59.506210516678365 35.721886718502354 0 0 0 -1 I I #
plane-surface $-1 0 -35.721886718502354 0 0 1 0 0 0 1 forward_v I I I I #
coedge $-1 $404 $270 $358 $405 reversed $180 $-1 #
coedge $-1 $270 $404 $284 $369 reversed $180 $-1 #
edge $-1 $361 -2.450386262782116 $359 2.450386262782116 $271 $406 forward 7 unknown #
coedge $-1 $272 $364 $355 $405 forward $268 $-1 #
vertex $-1 $273 $407 #
straight-curve $-1 0 35.721886718502354 -12.858004111230937 1 0 0 I I #
vertex $-1 $274 $408 #
straight-curve $-1 -64.402909856333764 35.721886718502354 -7.9572315856667046 -1 0 0 I I #
point $-1 -59.506210516678365 35.721886718502354 -12.858004111230937 #
coedge $-1 $358 $277 $280 $367 forward $268 $-1 #
straight-curve $-1 -59.506210516678365 0 -12.858004111230937 0 -1 0 I I #
coedge $-1 $280 $279 $404 $409 forward $281 $-1 #
edge $-1 $282 -4.8966993396553988 $410 4.8966993396553988 $280 $411 forward 7 unknown #
point $-1 -59.506210516678365 -35.721886718502354 -12.858004111230937 #
edge $-1 $361 -35.721886718502354 $370 35.721886718502354 $356 $412 forward 7 unknown #
vertex $-1 $369 $413 #
straight-curve $-1 -64.402909856333764 -35.721886718502354 -7.9572315856667046 1 0 0 I I #
coedge $-1 $289 $297 $290 $374 forward $194 $-1 #
edge $-1 $376 -35.415131772736558 $298 -12.767025715147042 $289 $414 forward 7 unknown #
edge $-1 $380 -12.858004111230937 $376 -5.6286324325394048 $290 $415 forward 7 unknown #
edge $-1 $295 30.659826325345819 $380 35.721886718502354 $291 $416 forward 7 unknown #
vertex $-1 $292 $417 #
straight-curve $-1 59.506210516678365 10.678880488783109 41.393752941805801 0 0.57357642473473569 -0.81915205242281985 I I #
point $-1 59.506210516678358 30.659826325345819 12.85800411123094 #
point $-1 36.858104459088842 35.721886718502354 5.6286324325394048 #
vertex $-1 $375 $418 #
straight-curve $-1 0 35.721886718502354 12.858004111230937 -1 0 0 I I #
vertex $-1 $304 $419 #
point $-1 45.328991904114432 28.887277081618802 6.2299195974494666 #
vertex $-1 $308 $420 #
point $-1 55.035323071652797 28.887277081618802 6.2299195974494666 #
coedge $-1 $323 $322 $315 $387 forward $312 $-1 #
edge $-1 $388 32.925298074491067 $391 42.660161810384373 $386 $421 forward 7 unknown #
vertex $-1 $327 $422 #
straight-curve $-1 -49.71281183736756 -57.678370563273305 12.85800411123094 0 -1 0 I I #
edge $-1 $391 -29.923289257284935 $324 -9.6557559028803155 $323 $423 forward 7 unknown #
vertex $-1 $390 $424 #
straight-curve $-1 -49.71281183736756 -35.721886718502347 3.1231403753376412 0 0.74314481823134659 0.66913061440640931 I I #
point $-1 -49.71281183736756 -24.910225458712205 12.858004111230937 #
point $-1 -29.445278482962941 -35.721886718502354 3.123140375337635 #
straight-curve $-1 0 -35.721886718502354 12.858004111230937 1 0 0 I I #
vertex $-1 $330 $425 #
point $-1 -41.922088021823384 -27.037240520800587 4.3490787191636358 #
vertex $-1 $334 $426 #
point $-1 -33.236002298507117 -27.037240520800587 4.3490787191636358 #
straight-curve $-1 -59.506210516678365 35.721886718502354 0 0 0 -1 I I #
point $-1 -59.506210516678365 -35.721886718502354 -12.858004111230937 #
straight-curve $-1 -59.506210516678365 0 -12.858004111230937 0 1 0 I I #
point $-1 -59.506210516678365 35.721886718502354 -12.858004111230937 #
coedge $-1 $356 $355 $366 $409 reversed $180 $-1 #
edge $-1 $410 -35.721886718502354 $359 35.721886718502354 $355 $427 forward 7 unknown #
straight-curve $-1 -69.299609195989163 35.721886718502354 -10.407617848448821 0 0 -1 I I #
point $-1 -69.299609195989163 35.721886718502354 -12.858004111230937 #
point $-1 -69.299609195989163 35.721886718502354 -7.9572315856667046 #
edge $-1 $370 -2.450386262782116 $410 2.450386262782116 $404 $428 forward 7 unknown #
vertex $-1 $405 $429 #
straight-curve $-1 -64.402909856333764 -35.721886718502354 -12.858004111230937 -1 0 0 I I #
straight-curve $-1 -69.299609195989163 0 -7.9572315856667046 0 -1 0 I I #
point $-1 -69.299609195989163 -35.721886718502354 -7.9572315856667046 #
straight-curve $-1 24.0910787439418 35.721886718502354 5.6286324325394048 -1 0 0 I I #
straight-curve $-1 59.506210516678365 35.721886718502354 0 0 0 -1 I I #
straight-curve $-1 59.506210516678365 0 12.858004111230937 0 1 0 I I #
point $-1 59.506210516678358 35.721886718502354 5.6286324325394048 #
point $-1 59.506210516678365 35.721886718502354 12.858004111230937 #
point $-1 43.328991904114432 27.248972976773164 5.0827667479799956 #
point $-1 53.035323071652797 27.248972976773164 5.0827667479799956 #
straight-curve $-1 -49.71281183736756 -35.721886718502354 45.783302185722007 0 0 -1 I I #
point $-1 -49.71281183736756 -35.721886718502354 12.858004111230937 #
straight-curve $-1 -19.789522580082625 -35.721886718502354 3.1231403753376288 1 0 0 I I #
point $-1 -49.71281183736756 -35.721886718502354 3.123140375337635 #
point $-1 -43.922088021823384 -25.698979291987769 2.8627890827009423 #
point $-1 -35.236002298507117 -25.698979291987769 2.8627890827009423 #
straight-curve $-1 -69.299609195989163 0 -12.858004111230937 0 1 0 I I #
straight-curve $-1 -69.299609195989163 -35.721886718502354 -10.407617848448821 0 0 -1 I I #
point $-1 -69.299609195989163 -35.721886718502354 -12.858004111230937 #
End-of-ACIS-data 