500 0 12 0           
7 Unknown 11 ACIS 5.0 NT 24 Fri Mar 26 20:03:42 1999 
-1 9.9999999999999995e-007 1e-010 
body $-1 $12 $-1 $13 #
body $-1 $14 $-1 $15 #
body $-1 $16 $-1 $17 #
body $-1 $18 $-1 $19 #
body $-1 $20 $-1 $21 #
body $-1 $22 $-1 $23 #
body $-1 $24 $-1 $25 #
body $-1 $26 $-1 $27 #
body $-1 $28 $-1 $29 #
body $-1 $30 $-1 $31 #
body $-1 $32 $-1 $33 #
body $-1 $34 $-1 $35 #
lump $-1 $-1 $36 $0 #
transform $-1 1 0 0 0 1 0 0 0 1 66.370433668019658 37.101977830861834 14.268867886323788 1 rotate no_reflect no_shear #
lump $-1 $-1 $37 $1 #
transform $-1 1 0 0 0 1 0 0 0 1 66.370433668019658 37.101977830861834 14.268867886323788 1 rotate no_reflect no_shear #
lump $-1 $-1 $38 $2 #
transform $-1 1 0 0 0 1 0 0 0 1 66.370433668019658 37.101977830861834 14.268867886323788 1 rotate no_reflect no_shear #
lump $-1 $-1 $39 $3 #
transform $-1 1 0 0 0 1 0 0 0 1 66.370433668019658 37.101977830861834 14.268867886323788 1 rotate no_reflect no_shear #
lump $-1 $-1 $40 $4 #
transform $-1 1 0 0 0 1 0 0 0 1 66.370433668019658 37.101977830861834 14.268867886323788 1 rotate no_reflect no_shear #
lump $-1 $-1 $41 $5 #
transform $-1 1 0 0 0 1 0 0 0 1 66.370433668019658 37.101977830861834 14.268867886323788 1 rotate no_reflect no_shear #
lump $-1 $-1 $42 $6 #
transform $-1 1 0 0 0 1 0 0 0 1 66.370433668019658 37.101977830861834 14.268867886323788 1 rotate no_reflect no_shear #
lump $-1 $-1 $43 $7 #
transform $-1 1 0 0 0 1 0 0 0 1 66.370433668019658 37.101977830861834 14.268867886323788 1 rotate no_reflect no_shear #
lump $-1 $-1 $44 $8 #
transform $-1 1 0 0 0 1 0 0 0 1 66.370433668019658 37.101977830861834 14.268867886323788 1 rotate no_reflect no_shear #
lump $-1 $-1 $45 $9 #
transform $-1 1 0 0 0 1 0 0 0 1 66.370433668019658 37.101977830861834 14.268867886323788 1 rotate no_reflect no_shear #
lump $-1 $-1 $46 $10 #
transform $-1 1 0 0 0 1 0 0 0 1 66.370433668019658 37.101977830861834 14.268867886323788 1 rotate no_reflect no_shear #
lump $-1 $-1 $47 $11 #
transform $-1 1 0 0 0 1 0 0 0 1 66.370433668019658 37.101977830861834 14.268867886323788 1 rotate no_reflect no_shear #
shell $-1 $-1 $-1 $48 $-1 $12 #
shell $-1 $-1 $-1 $49 $-1 $14 #
shell $-1 $-1 $-1 $50 $-1 $16 #
shell $-1 $-1 $-1 $51 $-1 $18 #
shell $-1 $-1 $-1 $52 $-1 $20 #
shell $-1 $-1 $-1 $53 $-1 $22 #
shell $-1 $-1 $-1 $54 $-1 $24 #
shell $-1 $-1 $-1 $55 $-1 $26 #
shell $-1 $-1 $-1 $56 $-1 $28 #
shell $-1 $-1 $-1 $57 $-1 $30 #
shell $-1 $-1 $-1 $58 $-1 $32 #
shell $-1 $-1 $-1 $59 $-1 $34 #
face $-1 $60 $61 $36 $-1 $62 forward single #
face $-1 $63 $64 $37 $-1 $65 forward single #
face $-1 $66 $67 $38 $-1 $68 forward single #
face $-1 $69 $70 $39 $-1 $71 reversed single #
face $-1 $72 $73 $40 $-1 $74 forward single #
face $-1 $75 $76 $41 $-1 $77 forward single #
face $-1 $78 $79 $42 $-1 $80 reversed single #
face $-1 $81 $82 $43 $-1 $83 forward single #
face $-1 $84 $85 $44 $-1 $86 forward single #
face $-1 $87 $88 $45 $-1 $89 reversed single #
face $-1 $90 $91 $46 $-1 $92 forward single #
face $-1 $93 $94 $47 $-1 $95 forward single #
face $-1 $96 $97 $36 $-1 $98 reversed single #
loop $-1 $-1 $99 $48 #
plane-surface $-1 0 0 14.268867886323788 0 0 1 1 0 0 forward_v I I I I #
face $-1 $100 $101 $37 $-1 $102 reversed single #
loop $-1 $-1 $103 $49 #
plane-surface $-1 0 -31.240607168163582 -6.9081325669871472 0 0 1 1 0 0 forward_v I I I I #
face $-1 $104 $105 $38 $-1 $106 reversed single #
loop $-1 $-1 $107 $50 #
plane-surface $-1 0 31.240607168163585 -6.9081325669871472 0 0 1 1 0 0 forward_v I I I I #
face $-1 $108 $109 $39 $-1 $110 reversed single #
loop $-1 $-1 $111 $51 #
plane-surface $-1 69.646670303477819 -19.870645210090807 192.04372960994982 0 1 0 0.71933980857756763 0 0.69465836192734942 forward_v I I I I #
face $-1 $112 $113 $40 $-1 $114 forward single #
loop $-1 $115 $116 $52 #
cone-surface $-1 60.541209134560233 -17.436501286047246 8.3051067101880349 -0.71933980857756763 0 -0.69465836192734942 0.69465836192734942 0 -0.71933980857756763 1 I I 0 1 1 forward I I I I #
face $-1 $117 $118 $41 $-1 $119 forward single #
loop $-1 $120 $121 $53 #
cone-surface $-1 60.541209134560233 -13.785285399981905 8.3051067101880349 -0.71933980857756763 0 -0.69465836192734942 0.69465836192734942 0 -0.71933980857756763 1 I I 0 1 1 forward I I I I #
face $-1 $122 $123 $42 $-1 $124 reversed single #
loop $-1 $-1 $125 $54 #
plane-surface $-1 69.646670303477819 11.351141475938341 192.04372960994982 0 1 0 0.71933980857756763 0 0.69465836192734942 forward_v I I I I #
face $-1 $126 $127 $43 $-1 $128 forward single #
loop $-1 $129 $130 $55 #
cone-surface $-1 60.541209134560233 13.785285399981895 8.3051067101880349 -0.71933980857756763 0 -0.69465836192734942 0.69465836192734942 0 -0.71933980857756763 1 I I 0 1 1 forward I I I I #
face $-1 $131 $132 $44 $-1 $133 forward single #
loop $-1 $134 $135 $56 #
cone-surface $-1 60.541209134560233 17.436501286047239 8.3051067101880349 -0.71933980857756763 0 -0.69465836192734942 0.69465836192734942 0 -0.71933980857756763 1 I I 0 1 1 forward I I I I #
face $-1 $136 $137 $45 $-1 $138 reversed single #
loop $-1 $-1 $139 $57 #
plane-surface $-1 -178.94107454642204 -3.2683254945091491 76.791955327456918 0 -1 0 0.84804810408105047 0 -0.52991925155115449 forward_v I I I I #
face $-1 $140 $141 $46 $-1 $142 forward single #
loop $-1 $143 $144 $58 #
cone-surface $-1 -62.663943734301071 -13.462033738456963 9.5698505521249846 0.84804810408105047 0 -0.52991925155115449 0.79487887732673168 0 1.2720721561215758 1 I I 0 1 1.5 forward I I I I #
face $-1 $145 $146 $47 $-1 $147 forward single #
loop $-1 $148 $149 $59 #
cone-surface $-1 -62.663943734301071 -7.345808792088274 9.5698505521249846 0.84804810408105047 0 -0.52991925155115449 0.79487887732673168 0 1.2720721561215758 1 I I 0 1 1.5 forward I I I I #
face $-1 $150 $151 $36 $-1 $152 reversed single #
loop $-1 $-1 $153 $60 #
plane-surface $-1 0 0 -14.268867886323788 0 0 1 1 0 0 forward_v I I I I #
coedge $-1 $154 $155 $156 $157 forward $61 $-1 #
face $-1 $158 $159 $37 $-1 $160 reversed single #
loop $-1 $-1 $161 $63 #
plane-surface $-1 0 -31.240607168163582 -13.540171024433176 0 0 1 1 0 0 forward_v I I I I #
coedge $-1 $162 $163 $164 $165 reversed $64 $-1 #
face $-1 $166 $167 $38 $-1 $168 reversed single #
loop $-1 $-1 $169 $66 #
plane-surface $-1 0 31.240607168163585 -13.540171024433176 0 0 1 1 0 0 forward_v I I I I #
coedge $-1 $170 $171 $172 $173 reversed $67 $-1 #
face $-1 $174 $175 $39 $-1 $176 reversed single #
loop $-1 $-1 $177 $69 #
plane-surface $-1 -25.839119796448998 -15.610893343014574 99.834176145481152 0.71933980857756763 0 0.69465836192734942 0.69465836192734942 0 -0.71933980857756763 forward_v I I I I #
coedge $-1 $178 $179 $180 $181 reversed $70 $-1 #
face $-1 $-1 $182 $40 $-1 $183 forward single #
loop $-1 $184 $185 $72 #
cone-surface $-1 59.142363560273353 -17.436501286047246 6.9542572734733614 -0.71933980857756763 0 -0.69465836192734942 0.34732918096367471 0 -0.35966990428878381 1 I I -0.70710678118654746 0.70710678118654746 0.5 forward I I I I #
loop $-1 $-1 $186 $52 #
coedge $-1 $116 $116 $187 $188 reversed $73 $-1 #
face $-1 $-1 $189 $41 $-1 $190 forward single #
loop $-1 $191 $192 $75 #
cone-surface $-1 59.142363560273353 -13.785285399981905 6.9542572734733614 -0.71933980857756763 0 -0.69465836192734942 0.34732918096367471 0 -0.35966990428878381 1 I I -0.70710678118654746 0.70710678118654746 0.5 forward I I I I #
loop $-1 $-1 $193 $53 #
coedge $-1 $121 $121 $194 $195 reversed $76 $-1 #
face $-1 $196 $197 $42 $-1 $198 reversed single #
loop $-1 $-1 $199 $78 #
plane-surface $-1 -25.839119796448998 15.610893343014574 99.834176145481152 0.71933980857756763 0 0.69465836192734942 0.69465836192734942 0 -0.71933980857756763 forward_v I I I I #
coedge $-1 $200 $201 $202 $203 reversed $79 $-1 #
face $-1 $-1 $204 $43 $-1 $205 forward single #
loop $-1 $206 $207 $81 #
cone-surface $-1 59.142363560273353 13.785285399981895 6.9542572734733614 -0.71933980857756763 0 -0.69465836192734942 0.34732918096367471 0 -0.35966990428878381 1 I I -0.70710678118654746 0.70710678118654746 0.5 forward I I I I #
loop $-1 $-1 $208 $55 #
coedge $-1 $130 $130 $209 $210 reversed $82 $-1 #
face $-1 $-1 $211 $44 $-1 $212 forward single #
loop $-1 $213 $214 $84 #
cone-surface $-1 59.142363560273353 17.436501286047239 6.9542572734733614 -0.71933980857756763 0 -0.69465836192734942 0.34732918096367471 0 -0.35966990428878381 1 I I -0.70710678118654746 0.70710678118654746 0.5 forward I I I I #
loop $-1 $-1 $215 $56 #
coedge $-1 $135 $135 $216 $217 reversed $85 $-1 #
face $-1 $218 $219 $45 $-1 $220 reversed single #
loop $-1 $-1 $221 $87 #
plane-surface $-1 -66.370433668019658 -10.403921265272619 6.4500142584918763 -0.84804810408105047 0 0.52991925155115449 0.52991925155115449 0 0.84804810408105047 forward_v I I I I #
coedge $-1 $222 $223 $224 $225 reversed $88 $-1 #
face $-1 $-1 $226 $46 $-1 $227 forward single #
loop $-1 $228 $229 $90 #
cone-surface $-1 -60.764298640779572 -13.462033738456963 8.3828205931787796 0.84804810408105047 0 -0.52991925155115449 0.39743943866336584 0 0.63603607806078788 1 I I -0.70710678118654757 0.70710678118654757 0.75 forward I I I I #
loop $-1 $-1 $230 $58 #
coedge $-1 $144 $144 $231 $232 reversed $91 $-1 #
face $-1 $-1 $233 $47 $-1 $234 forward single #
loop $-1 $235 $236 $93 #
cone-surface $-1 -60.764298640779572 -7.345808792088274 8.3828205931787796 0.84804810408105047 0 -0.52991925155115449 0.39743943866336584 0 0.63603607806078788 1 I I -0.70710678118654757 0.70710678118654757 0.75 forward I I I I #
loop $-1 $-1 $237 $59 #
coedge $-1 $149 $149 $238 $239 reversed $94 $-1 #
face $-1 $240 $241 $36 $-1 $242 reversed single #
loop $-1 $-1 $243 $96 #
plane-surface $-1 0 -37.101977830861834 0 0 1 0 0 0 1 forward_v I I I I #
coedge $-1 $244 $245 $246 $247 forward $97 $-1 #
coedge $-1 $248 $99 $249 $250 forward $61 $-1 #
coedge $-1 $99 $248 $251 $252 forward $61 $-1 #
coedge $-1 $253 $254 $99 $157 reversed $255 $-1 #
edge $-1 $256 -37.101977830861834 $257 37.101977830861834 $156 $258 forward 7 unknown #
face $-1 $259 $260 $37 $-1 $261 reversed single #
loop $-1 $-1 $262 $100 #
plane-surface $-1 0 -25.379236505465329 -10.224151795710162 0 -1 0 0 0 -1 forward_v I I I I #
coedge $-1 $263 $264 $265 $266 reversed $101 $-1 #
coedge $-1 $267 $103 $268 $269 forward $64 $-1 #
coedge $-1 $103 $267 $270 $271 reversed $64 $-1 #
coedge $-1 $272 $273 $103 $165 forward $274 $-1 #
edge $-1 $275 9.7589329213835381 $276 21.481674246780045 $164 $277 forward 7 unknown #
face $-1 $278 $279 $38 $-1 $280 reversed single #
loop $-1 $-1 $281 $104 #
plane-surface $-1 0 25.379236505465332 -10.224151795710162 0 1 0 0 0 1 forward_v I I I I #
coedge $-1 $282 $283 $284 $285 reversed $105 $-1 #
coedge $-1 $286 $107 $287 $288 reversed $67 $-1 #
coedge $-1 $107 $286 $289 $290 forward $67 $-1 #
coedge $-1 $291 $292 $107 $173 forward $279 $-1 #
edge $-1 $293 -21.481674246780049 $294 -9.7589329213835398 $172 $295 forward 7 unknown #
face $-1 $296 $297 $39 $-1 $298 forward single #
loop $-1 $-1 $299 $108 #
plane-surface $-1 69.646670303477819 -11.351141475938341 192.04372960994982 0 -1 0 -0.71933980857756763 0 -0.69465836192734942 forward_v I I I I #
coedge $-1 $300 $301 $302 $303 reversed $109 $-1 #
coedge $-1 $179 $111 $304 $305 reversed $70 $-1 #
coedge $-1 $111 $178 $300 $306 reversed $70 $-1 #
coedge $-1 $302 $307 $111 $181 forward $308 $-1 #
edge $-1 $309 81.752996918651121 $310 91.673478759420561 $180 $311 forward 7 unknown #
loop $-1 $-1 $187 $112 #
plane-surface $-1 -25.839119796448998 -15.610893343014574 99.834176145481152 0.71933980857756763 0 0.69465836192734942 0.69465836192734942 0 -0.71933980857756763 forward_v I I I I #
loop $-1 $-1 $312 $72 #
coedge $-1 $185 $185 $186 $313 reversed $113 $-1 #
coedge $-1 $186 $186 $185 $313 forward $115 $-1 #
coedge $-1 $187 $187 $116 $188 forward $182 $-1 #
edge $-1 $314 0 $314 6.2831853071796004 $187 $315 forward 7 unknown #
loop $-1 $-1 $194 $117 #
plane-surface $-1 -25.839119796448998 -15.610893343014574 99.834176145481152 0.71933980857756763 0 0.69465836192734942 0.69465836192734942 0 -0.71933980857756763 forward_v I I I I #
loop $-1 $-1 $316 $75 #
coedge $-1 $192 $192 $193 $317 reversed $118 $-1 #
coedge $-1 $193 $193 $192 $317 forward $120 $-1 #
coedge $-1 $194 $194 $121 $195 forward $189 $-1 #
edge $-1 $318 0 $318 6.2831853071796004 $194 $319 forward 7 unknown #
face $-1 $320 $321 $42 $-1 $322 reversed single #
loop $-1 $-1 $323 $122 #
plane-surface $-1 69.646670303477819 19.870645210090807 192.04372960994982 0 -1 0 -0.71933980857756763 0 -0.69465836192734942 forward_v I I I I #
coedge $-1 $324 $325 $326 $327 reversed $123 $-1 #
coedge $-1 $201 $125 $328 $329 reversed $79 $-1 #
coedge $-1 $125 $200 $324 $330 reversed $79 $-1 #
coedge $-1 $326 $331 $125 $203 forward $321 $-1 #
edge $-1 $332 81.752996918651121 $333 91.673478759420561 $202 $334 forward 7 unknown #
loop $-1 $-1 $209 $126 #
plane-surface $-1 -25.839119796448998 15.610893343014574 99.834176145481152 0.71933980857756763 0 0.69465836192734942 0.69465836192734942 0 -0.71933980857756763 forward_v I I I I #
loop $-1 $-1 $335 $81 #
coedge $-1 $207 $207 $208 $336 reversed $127 $-1 #
coedge $-1 $208 $208 $207 $336 forward $129 $-1 #
coedge $-1 $209 $209 $130 $210 forward $204 $-1 #
edge $-1 $337 0 $337 6.2831853071796004 $209 $338 forward 7 unknown #
loop $-1 $-1 $216 $131 #
plane-surface $-1 -25.839119796448998 15.610893343014574 99.834176145481152 0.71933980857756763 0 0.69465836192734942 0.69465836192734942 0 -0.71933980857756763 forward_v I I I I #
loop $-1 $-1 $339 $84 #
coedge $-1 $214 $214 $215 $340 reversed $132 $-1 #
coedge $-1 $215 $215 $214 $340 forward $134 $-1 #
coedge $-1 $216 $216 $135 $217 forward $211 $-1 #
edge $-1 $341 0 $341 6.2831853071796004 $216 $342 forward 7 unknown #
face $-1 $343 $344 $45 $-1 $345 reversed single #
loop $-1 $-1 $346 $136 #
plane-surface $-1 -178.94107454642204 -17.539517036036088 76.791955327456918 0 1 0 -0.84804810408105047 0 0.52991925155115449 forward_v I I I I #
coedge $-1 $347 $348 $349 $350 reversed $137 $-1 #
coedge $-1 $223 $139 $351 $352 reversed $88 $-1 #
coedge $-1 $139 $222 $347 $353 reversed $88 $-1 #
coedge $-1 $349 $354 $139 $225 forward $344 $-1 #
edge $-1 $355 24.127109777404669 $356 31.945963405236583 $224 $357 forward 7 unknown #
loop $-1 $-1 $231 $140 #
plane-surface $-1 -66.370433668019658 -10.403921265272619 6.4500142584918763 -0.84804810408105047 0 0.52991925155115449 0.52991925155115449 0 0.84804810408105047 forward_v I I I I #
loop $-1 $-1 $358 $90 #
coedge $-1 $229 $229 $230 $359 reversed $141 $-1 #
coedge $-1 $230 $230 $229 $359 forward $143 $-1 #
coedge $-1 $231 $231 $144 $232 forward $226 $-1 #
edge $-1 $360 0 $360 6.2831853071796004 $231 $361 forward 7 unknown #
loop $-1 $-1 $238 $145 #
plane-surface $-1 -66.370433668019658 -10.403921265272619 6.4500142584918763 -0.84804810408105047 0 0.52991925155115449 0.52991925155115449 0 0.84804810408105047 forward_v I I I I #
loop $-1 $-1 $362 $93 #
coedge $-1 $236 $236 $237 $363 reversed $146 $-1 #
coedge $-1 $237 $237 $236 $363 forward $148 $-1 #
coedge $-1 $238 $238 $149 $239 forward $233 $-1 #
edge $-1 $364 0 $364 6.2831853071796004 $238 $365 forward 7 unknown #
face $-1 $366 $367 $36 $-1 $368 reversed single #
loop $-1 $-1 $369 $150 #
plane-surface $-1 -66.370433668019658 0 0 1 0 0 0 0 -1 forward_v I I I I #
coedge $-1 $370 $251 $371 $372 forward $151 $-1 #
coedge $-1 $373 $153 $370 $374 forward $97 $-1 #
coedge $-1 $153 $373 $375 $376 forward $97 $-1 #
coedge $-1 $254 $253 $153 $247 reversed $255 $-1 #
edge $-1 $377 -37.101977830861834 $378 37.101977830861834 $246 $379 forward 7 unknown #
coedge $-1 $155 $154 $380 $381 forward $61 $-1 #
coedge $-1 $382 $383 $154 $250 reversed $367 $-1 #
edge $-1 $257 -66.370433668019658 $384 66.370433668019658 $249 $385 forward 7 unknown #
coedge $-1 $243 $386 $155 $252 reversed $151 $-1 #
edge $-1 $387 -66.370433668019658 $256 66.370433668019658 $251 $388 forward 7 unknown #
coedge $-1 $246 $156 $386 $389 forward $255 $-1 #
coedge $-1 $156 $246 $382 $390 reversed $255 $-1 #
loop $-1 $-1 $253 $366 #
vertex $-1 $157 $391 #
vertex $-1 $157 $392 #
straight-curve $-1 66.370433668019658 0 14.268867886323788 0 1 0 I I #
face $-1 $393 $394 $37 $-1 $395 reversed single #
loop $-1 $-1 $396 $158 #
plane-surface $-1 -66.370433668019658 0 0 1 0 0 0 0 -1 forward_v I I I I #
coedge $-1 $397 $268 $273 $398 reversed $159 $-1 #
coedge $-1 $399 $161 $400 $401 reversed $101 $-1 #
coedge $-1 $161 $399 $397 $402 forward $101 $-1 #
coedge $-1 $273 $272 $161 $266 forward $274 $-1 #
edge $-1 $403 -21.481674246780045 $404 -9.7589329213835381 $265 $405 forward 7 unknown #
coedge $-1 $163 $162 $396 $406 reversed $64 $-1 #
coedge $-1 $262 $407 $162 $269 reversed $159 $-1 #
edge $-1 $275 -66.370433668019658 $408 66.370433668019658 $268 $409 forward 7 unknown #
coedge $-1 $410 $411 $163 $271 forward $394 $-1 #
edge $-1 $276 -66.370433668019658 $412 66.370433668019658 $270 $413 forward 7 unknown #
coedge $-1 $265 $164 $411 $414 forward $274 $-1 #
coedge $-1 $164 $265 $262 $398 forward $274 $-1 #
loop $-1 $-1 $164 $393 #
vertex $-1 $165 $415 #
vertex $-1 $414 $416 #
straight-curve $-1 66.370433668019658 -15.620303584081791 -6.9081325669871472 0 -1 0 I I #
face $-1 $417 $418 $38 $-1 $419 reversed single #
loop $-1 $-1 $172 $166 #
plane-surface $-1 66.370433668019658 0 0 -1 0 0 0 0 1 forward_v I I I I #
coedge $-1 $420 $289 $421 $422 reversed $167 $-1 #
coedge $-1 $423 $169 $420 $424 forward $105 $-1 #
coedge $-1 $169 $423 $425 $426 reversed $105 $-1 #
coedge $-1 $292 $291 $169 $285 forward $279 $-1 #
edge $-1 $427 9.7589329213835398 $428 21.481674246780049 $284 $429 forward 7 unknown #
coedge $-1 $171 $170 $430 $431 reversed $67 $-1 #
coedge $-1 $432 $433 $170 $288 forward $434 $-1 #
edge $-1 $435 -66.370433668019658 $293 66.370433668019658 $287 $436 forward 7 unknown #
coedge $-1 $281 $437 $171 $290 reversed $167 $-1 #
edge $-1 $438 -66.370433668019658 $294 66.370433668019658 $289 $439 forward 7 unknown #
coedge $-1 $284 $172 $437 $440 forward $279 $-1 #
coedge $-1 $172 $284 $432 $441 reversed $279 $-1 #
vertex $-1 $441 $442 #
vertex $-1 $173 $443 #
straight-curve $-1 66.370433668019658 15.620303584081793 -6.9081325669871472 0 -1 0 I I #
face $-1 $-1 $308 $39 $-1 $444 reversed single #
loop $-1 $-1 $445 $174 #
plane-surface $-1 0 0 14.268867886323788 0 0 1 1 0 0 forward_v I I I I #
coedge $-1 $446 $447 $448 $449 reversed $175 $-1 #
coedge $-1 $450 $177 $179 $306 forward $109 $-1 #
coedge $-1 $177 $450 $446 $451 forward $109 $-1 #
coedge $-1 $448 $180 $177 $303 forward $308 $-1 #
edge $-1 $310 -12.06519853858352 $452 -3.5456948044310543 $302 $453 forward 7 unknown #
coedge $-1 $454 $455 $178 $305 forward $297 $-1 #
edge $-1 $456 21.967000789358117 $309 31.547098516280748 $304 $457 forward 7 unknown #
edge $-1 $310 -132.74086733603929 $456 -118.94977483361497 $179 $458 forward 7 unknown #
coedge $-1 $180 $448 $454 $459 reversed $308 $-1 #
loop $-1 $-1 $448 $296 #
vertex $-1 $459 $460 #
vertex $-1 $181 $461 #
straight-curve $-1 66.370433668019658 -19.870645210090807 96.021864804974911 0 0 -1 I I #
coedge $-1 $312 $312 $-1 $462 reversed $184 $-1 #
edge $-1 $463 0 $463 6.2831853071796004 $185 $464 forward 7 unknown #
vertex $-1 $188 $465 #
ellipse-curve $-1 61.580384804558356 -17.436501286047246 9.3086269659390553 0.71933980857756763 0 0.69465836192734942 0.69465836192734942 0 -0.71933980857756763 1 I I #
coedge $-1 $316 $316 $-1 $466 reversed $191 $-1 #
edge $-1 $467 0 $467 6.2831853071796004 $192 $468 forward 7 unknown #
vertex $-1 $195 $469 #
ellipse-curve $-1 61.580384804558356 -13.785285399981905 9.3086269659390553 0.71933980857756763 0 0.69465836192734942 0.69465836192734942 0 -0.71933980857756763 1 I I #
face $-1 $-1 $470 $42 $-1 $471 forward single #
loop $-1 $-1 $202 $196 #
plane-surface $-1 66.370433668019658 0 0 -1 0 0 0 0 1 forward_v I I I I #
coedge $-1 $472 $473 $474 $475 reversed $197 $-1 #
coedge $-1 $476 $199 $201 $330 forward $123 $-1 #
coedge $-1 $199 $476 $472 $477 forward $123 $-1 #
coedge $-1 $474 $202 $199 $327 forward $321 $-1 #
edge $-1 $333 3.5456948044310543 $478 12.06519853858352 $326 $479 forward 7 unknown #
coedge $-1 $480 $481 $200 $329 forward $470 $-1 #
edge $-1 $482 21.967000789358117 $332 31.547098516280748 $328 $483 forward 7 unknown #
edge $-1 $333 -132.74086733603929 $482 -118.94977483361497 $201 $484 forward 7 unknown #
coedge $-1 $202 $474 $480 $485 reversed $321 $-1 #
vertex $-1 $485 $486 #
vertex $-1 $203 $487 #
straight-curve $-1 66.370433668019658 11.351141475938341 96.021864804974911 0 0 -1 I I #
coedge $-1 $335 $335 $-1 $488 reversed $206 $-1 #
edge $-1 $489 0 $489 6.2831853071796004 $207 $490 forward 7 unknown #
vertex $-1 $210 $491 #
ellipse-curve $-1 61.580384804558356 13.785285399981895 9.3086269659390553 0.71933980857756763 0 0.69465836192734942 0.69465836192734942 0 -0.71933980857756763 1 I I #
coedge $-1 $339 $339 $-1 $492 reversed $213 $-1 #
edge $-1 $493 0 $493 6.2831853071796004 $214 $494 forward 7 unknown #
vertex $-1 $217 $495 #
ellipse-curve $-1 61.580384804558356 17.436501286047239 9.3086269659390553 0.71933980857756763 0 0.69465836192734942 0.69465836192734942 0 -0.71933980857756763 1 I I #
face $-1 $-1 $496 $45 $-1 $497 forward single #
loop $-1 $-1 $224 $218 #
plane-surface $-1 -66.370433668019658 0 0 1 0 0 0 0 -1 forward_v I I I I #
coedge $-1 $498 $499 $500 $501 reversed $219 $-1 #
coedge $-1 $502 $221 $223 $353 forward $137 $-1 #
coedge $-1 $221 $502 $498 $503 forward $137 $-1 #
coedge $-1 $500 $224 $221 $350 forward $344 $-1 #
edge $-1 $356 -1.9336351381271601 $504 12.337556403399779 $349 $505 forward 7 unknown #
coedge $-1 $506 $507 $222 $352 forward $496 $-1 #
edge $-1 $508 -27.985865441707091 $355 -23.100103605191364 $351 $509 forward 7 unknown #
edge $-1 $356 0 $508 9.2198232508337039 $223 $510 forward 7 unknown #
coedge $-1 $224 $500 $506 $511 reversed $344 $-1 #
vertex $-1 $511 $512 #
vertex $-1 $225 $513 #
straight-curve $-1 -66.370433668019658 -3.2683254945091491 38.395977663728459 0 0 -1 I I #
coedge $-1 $358 $358 $-1 $514 reversed $228 $-1 #
edge $-1 $515 0 $515 6.2831853071796004 $229 $516 forward 7 unknown #
vertex $-1 $232 $517 #
ellipse-curve $-1 -63.927552749761794 -13.462033738456963 10.359441072407829 -0.84804810408105047 0 0.52991925155115449 0.79487887732673168 0 1.2720721561215758 1 I I #
coedge $-1 $362 $362 $-1 $518 reversed $235 $-1 #
edge $-1 $519 0 $519 6.2831853071796004 $236 $520 forward 7 unknown #
vertex $-1 $239 $521 #
ellipse-curve $-1 -63.927552749761794 -7.345808792088274 10.359441072407829 -0.84804810408105047 0 0.52991925155115449 0.79487887732673168 0 1.2720721561215758 1 I I #
face $-1 $-1 $255 $36 $-1 $522 reversed single #
loop $-1 $-1 $382 $240 #
plane-surface $-1 0 37.101977830861834 0 0 -1 0 0 0 -1 forward_v I I I I #
coedge $-1 $523 $380 $383 $524 forward $241 $-1 #
coedge $-1 $386 $243 $244 $374 reversed $151 $-1 #
coedge $-1 $380 $523 $243 $372 reversed $241 $-1 #
edge $-1 $387 -14.268867886323788 $525 14.268867886323788 $371 $526 forward 7 unknown #
coedge $-1 $245 $244 $523 $527 forward $97 $-1 #
edge $-1 $378 -66.370433668019658 $525 66.370433668019658 $370 $528 forward 7 unknown #
coedge $-1 $383 $382 $245 $376 reversed $367 $-1 #
edge $-1 $529 -66.370433668019658 $377 66.370433668019658 $375 $530 forward 7 unknown #
vertex $-1 $247 $531 #
vertex $-1 $389 $532 #
straight-curve $-1 66.370433668019658 0 -14.268867886323788 0 -1 0 I I #
coedge $-1 $369 $371 $248 $381 reversed $241 $-1 #
edge $-1 $384 -37.101977830861834 $387 37.101977830861834 $380 $533 forward 7 unknown #
coedge $-1 $375 $249 $254 $390 forward $367 $-1 #
coedge $-1 $249 $375 $369 $524 reversed $367 $-1 #
vertex $-1 $250 $534 #
straight-curve $-1 0 37.101977830861834 14.268867886323788 -1 0 0 I I #
coedge $-1 $251 $370 $253 $389 reversed $151 $-1 #
vertex $-1 $381 $535 #
straight-curve $-1 0 -37.101977830861834 14.268867886323788 1 0 0 I I #
edge $-1 $256 -14.268867886323788 $378 14.268867886323788 $253 $536 forward 7 unknown #
edge $-1 $257 -14.268867886323788 $377 14.268867886323788 $254 $537 forward 7 unknown #
point $-1 66.370433668019658 -37.101977830861834 14.268867886323788 #
point $-1 66.370433668019658 37.101977830861834 14.268867886323788 #
face $-1 $-1 $274 $37 $-1 $538 reversed single #
loop $-1 $-1 $270 $259 #
plane-surface $-1 0 -37.101977830861834 0 0 1 0 0 0 1 forward_v I I I I #
coedge $-1 $539 $540 $267 $406 forward $260 $-1 #
coedge $-1 $407 $262 $264 $402 reversed $159 $-1 #
edge $-1 $404 -8.4280951265780963 $275 -1.7960566691320663 $273 $541 forward 7 unknown #
coedge $-1 $264 $263 $542 $543 reversed $101 $-1 #
coedge $-1 $411 $410 $263 $401 forward $394 $-1 #
edge $-1 $544 -66.370433668019658 $403 66.370433668019658 $400 $545 forward 7 unknown #
edge $-1 $546 -66.370433668019658 $404 66.370433668019658 $397 $547 forward 7 unknown #
vertex $-1 $401 $548 #
vertex $-1 $266 $549 #
straight-curve $-1 66.370433668019658 -15.620303584081791 -13.540171024433176 0 1 0 I I #
edge $-1 $412 -21.481674246780045 $408 -9.7589329213835381 $396 $550 forward 7 unknown #
coedge $-1 $268 $397 $539 $551 reversed $159 $-1 #
vertex $-1 $406 $552 #
straight-curve $-1 0 -25.379236505465329 -6.9081325669871472 -1 0 0 I I #
coedge $-1 $400 $270 $540 $553 forward $394 $-1 #
coedge $-1 $270 $400 $272 $414 reversed $394 $-1 #
vertex $-1 $553 $554 #
straight-curve $-1 0 -37.101977830861834 -6.9081325669871472 -1 0 0 I I #
edge $-1 $276 6.9081325669871472 $403 13.540171024433176 $272 $555 forward 7 unknown #
point $-1 66.370433668019658 -25.379236505465329 -6.9081325669871472 #
point $-1 66.370433668019658 -37.101977830861834 -6.9081325669871472 #
face $-1 $-1 $434 $38 $-1 $556 reversed single #
loop $-1 $-1 $430 $278 #
plane-surface $-1 -66.370433668019658 0 0 1 0 0 0 0 -1 forward_v I I I I #
coedge $-1 $437 $281 $282 $424 reversed $167 $-1 #
coedge $-1 $430 $557 $281 $422 forward $418 $-1 #
edge $-1 $558 -8.4280951265780963 $438 -1.7960566691320663 $421 $559 forward 7 unknown #
coedge $-1 $283 $282 $557 $560 reversed $105 $-1 #
edge $-1 $427 -66.370433668019658 $558 66.370433668019658 $420 $561 forward 7 unknown #
coedge $-1 $433 $432 $283 $426 forward $434 $-1 #
edge $-1 $428 -66.370433668019658 $562 66.370433668019658 $425 $563 forward 7 unknown #
vertex $-1 $285 $564 #
vertex $-1 $426 $565 #
straight-curve $-1 66.370433668019658 15.620303584081793 -13.540171024433176 0 1 0 I I #
coedge $-1 $566 $421 $286 $431 forward $418 $-1 #
edge $-1 $438 9.7589329213835398 $435 21.481674246780049 $430 $567 forward 7 unknown #
coedge $-1 $425 $287 $292 $441 forward $434 $-1 #
coedge $-1 $287 $425 $566 $568 reversed $434 $-1 #
loop $-1 $-1 $287 $417 #
vertex $-1 $568 $569 #
straight-curve $-1 0 37.101977830861834 -6.9081325669871472 1 0 0 I I #
coedge $-1 $289 $420 $291 $440 reversed $167 $-1 #
vertex $-1 $431 $570 #
straight-curve $-1 0 25.379236505465332 -6.9081325669871472 1 0 0 I I #
edge $-1 $294 1.7960566691320663 $427 8.4280951265780963 $291 $571 forward 7 unknown #
edge $-1 $293 6.9081325669871472 $428 13.540171024433176 $292 $572 forward 7 unknown #
point $-1 66.370433668019658 37.101977830861841 -6.9081325669871472 #
point $-1 66.370433668019658 25.379236505465332 -6.9081325669871472 #
plane-surface $-1 66.370433668019658 0 0 -1 0 0 0 0 1 forward_v I I I I #
coedge $-1 $455 $454 $447 $573 forward $297 $-1 #
coedge $-1 $447 $299 $301 $451 reversed $175 $-1 #
coedge $-1 $299 $446 $445 $573 reversed $175 $-1 #
coedge $-1 $307 $302 $299 $449 forward $308 $-1 #
edge $-1 $452 -91.673478759420561 $574 -81.752996918651121 $448 $575 forward 7 unknown #
coedge $-1 $301 $300 $455 $576 reversed $109 $-1 #
edge $-1 $577 118.94977483361497 $452 132.74086733603929 $446 $578 forward 7 unknown #
vertex $-1 $303 $579 #
straight-curve $-1 66.370433668019658 -7.805446671507287 4.3483860455543493 0 1 0 I I #
coedge $-1 $445 $304 $307 $459 forward $297 $-1 #
coedge $-1 $304 $445 $450 $576 forward $297 $-1 #
vertex $-1 $305 $580 #
straight-curve $-1 34.82333515173891 -19.870645210090807 14.26886788632379 1 0 0 I I #
straight-curve $-1 -25.839119796448998 -19.870645210090807 99.834176145481152 -0.69465836192734942 0 0.71933980857756763 I I #
edge $-1 $309 -19.870645210090807 $574 -11.351141475938341 $307 $581 forward 7 unknown #
point $-1 66.370433668019658 -19.870645210090807 14.268867886323788 #
point $-1 66.370433668019658 -19.870645210090807 4.3483860455543493 #
edge $-1 $582 1 $582 0 $312 $-1 forward 7 unknown #
vertex $-1 $313 $583 #
ellipse-curve $-1 59.502033464562139 -17.436501286047246 7.3015864544370359 0.71933980857756763 0 0.69465836192734942 0.69465836192734942 0 -0.71933980857756763 1 I I #
point $-1 62.275043166485688 -17.436501286047246 8.5892871573614666 #
edge $-1 $584 1 $584 0 $316 $-1 forward 7 unknown #
vertex $-1 $317 $585 #
ellipse-curve $-1 59.502033464562139 -13.785285399981905 7.3015864544370359 0.71933980857756763 0 0.69465836192734942 0.69465836192734942 0 -0.71933980857756763 1 I I #
point $-1 62.275043166485688 -13.785285399981905 8.5892871573614666 #
loop $-1 $-1 $328 $320 #
plane-surface $-1 0 0 14.268867886323788 0 0 1 1 0 0 forward_v I I I I #
coedge $-1 $473 $323 $325 $477 reversed $197 $-1 #
coedge $-1 $323 $472 $586 $587 reversed $197 $-1 #
coedge $-1 $331 $326 $323 $475 forward $321 $-1 #
edge $-1 $478 -91.673478759420561 $588 -81.752996918651121 $474 $589 forward 7 unknown #
coedge $-1 $325 $324 $481 $590 reversed $123 $-1 #
edge $-1 $591 118.94977483361497 $478 132.74086733603929 $472 $592 forward 7 unknown #
vertex $-1 $327 $593 #
straight-curve $-1 66.370433668019658 7.805446671507287 4.3483860455543493 0 1 0 I I #
coedge $-1 $586 $328 $331 $485 forward $470 $-1 #
coedge $-1 $328 $586 $476 $590 forward $470 $-1 #
vertex $-1 $329 $594 #
straight-curve $-1 34.82333515173891 11.351141475938341 14.26886788632379 1 0 0 I I #
straight-curve $-1 -25.839119796448998 11.351141475938341 99.834176145481152 -0.69465836192734942 0 0.71933980857756763 I I #
edge $-1 $332 11.351141475938341 $588 19.870645210090807 $331 $595 forward 7 unknown #
point $-1 66.370433668019658 11.351141475938341 14.268867886323788 #
point $-1 66.370433668019658 11.351141475938341 4.3483860455543493 #
edge $-1 $596 1 $596 0 $335 $-1 forward 7 unknown #
vertex $-1 $336 $597 #
ellipse-curve $-1 59.502033464562139 13.785285399981895 7.3015864544370359 0.71933980857756763 0 0.69465836192734942 0.69465836192734942 0 -0.71933980857756763 1 I I #
point $-1 62.275043166485688 13.785285399981895 8.5892871573614666 #
edge $-1 $598 1 $598 0 $339 $-1 forward 7 unknown #
vertex $-1 $340 $599 #
ellipse-curve $-1 59.502033464562139 17.436501286047239 7.3015864544370359 0.71933980857756763 0 0.69465836192734942 0.69465836192734942 0 -0.71933980857756763 1 I I #
point $-1 62.275043166485688 17.436501286047239 8.5892871573614666 #
loop $-1 $-1 $351 $343 #
plane-surface $-1 0 0 14.268867886323788 0 0 1 1 0 0 forward_v I I I I #
coedge $-1 $499 $346 $348 $503 reversed $219 $-1 #
coedge $-1 $346 $498 $600 $601 reversed $219 $-1 #
coedge $-1 $354 $349 $346 $501 forward $344 $-1 #
edge $-1 $504 -31.945963405236583 $602 -24.127109777404669 $500 $603 forward 7 unknown #
coedge $-1 $348 $347 $507 $604 reversed $137 $-1 #
edge $-1 $605 -9.2198232508337039 $504 0 $498 $606 forward 7 unknown #
vertex $-1 $350 $607 #
straight-curve $-1 -66.370433668019658 -5.2019606326363093 6.4500142584918798 0 -1 0 I I #
coedge $-1 $600 $351 $354 $511 forward $496 $-1 #
coedge $-1 $351 $600 $502 $604 forward $496 $-1 #
vertex $-1 $352 $608 #
straight-curve $-1 -89.470537273211022 -3.2683254945091491 14.26886788632379 -1 0 0 I I #
straight-curve $-1 -66.370433668019658 -3.2683254945091491 6.4500142584918763 0.52991925155115449 0 0.84804810408105047 I I #
edge $-1 $355 3.2683254945091491 $602 17.539517036036088 $354 $609 forward 7 unknown #
point $-1 -66.370433668019658 -3.2683254945091491 14.268867886323788 #
point $-1 -66.370433668019658 -3.2683254945091491 6.4500142584918763 #
edge $-1 $610 1 $610 0 $358 $-1 forward 7 unknown #
vertex $-1 $359 $611 #
ellipse-curve $-1 -61.400334718840362 -13.462033738456963 8.7802600318421451 -0.84804810408105047 0 0.52991925155115449 0.79487887732673168 0 1.2720721561215758 1 I I #
point $-1 -63.132673872435056 -13.462033738456963 11.6315132285294 #
edge $-1 $612 1 $612 0 $362 $-1 forward 7 unknown #
vertex $-1 $363 $613 #
ellipse-curve $-1 -61.400334718840362 -7.345808792088274 8.7802600318421451 -0.84804810408105047 0 0.52991925155115449 0.79487887732673168 0 1.2720721561215758 1 I I #
point $-1 -63.132673872435056 -7.345808792088274 11.6315132285294 #
plane-surface $-1 66.370433668019658 0 0 -1 0 0 0 0 1 forward_v I I I I #
coedge $-1 $371 $369 $373 $527 reversed $241 $-1 #
edge $-1 $384 -14.268867886323788 $529 14.268867886323788 $383 $614 forward 7 unknown #
vertex $-1 $527 $615 #
straight-curve $-1 -66.370433668019658 -37.101977830861834 0 0 0 -1 I I #
edge $-1 $525 -37.101977830861834 $529 37.101977830861834 $523 $616 forward 7 unknown #
straight-curve $-1 0 -37.101977830861834 -14.268867886323788 -1 0 0 I I #
vertex $-1 $376 $617 #
straight-curve $-1 0 37.101977830861834 -14.268867886323788 1 0 0 I I #
point $-1 66.370433668019658 37.101977830861834 -14.268867886323788 #
point $-1 66.370433668019658 -37.101977830861834 -14.268867886323788 #
straight-curve $-1 -66.370433668019658 0 14.268867886323788 0 -1 0 I I #
point $-1 -66.370433668019658 37.101977830861834 14.268867886323788 #
point $-1 -66.370433668019658 -37.101977830861834 14.268867886323788 #
straight-curve $-1 66.370433668019658 -37.101977830861834 0 0 0 -1 I I #
straight-curve $-1 66.370433668019658 37.101977830861834 0 0 0 -1 I I #
plane-surface $-1 66.370433668019658 0 0 -1 0 0 0 0 1 forward_v I I I I #
coedge $-1 $542 $396 $407 $551 forward $260 $-1 #
coedge $-1 $396 $542 $410 $553 reversed $260 $-1 #
straight-curve $-1 66.370433668019658 -25.379236505465329 -5.1120758978550809 0 0 1 I I #
coedge $-1 $540 $539 $399 $543 forward $260 $-1 #
edge $-1 $546 9.7589329213835381 $544 21.481674246780045 $542 $618 forward 7 unknown #
vertex $-1 $401 $619 #
straight-curve $-1 0 -37.101977830861834 -13.540171024433176 1 0 0 I I #
vertex $-1 $543 $620 #
straight-curve $-1 0 -25.379236505465329 -13.540171024433176 1 0 0 I I #
point $-1 66.370433668019658 -37.101977830861834 -13.540171024433176 #
point $-1 66.370433668019658 -25.379236505465329 -13.540171024433176 #
straight-curve $-1 -66.370433668019658 -15.620303584081791 -6.9081325669871472 0 1 0 I I #
edge $-1 $408 1.7960566691320663 $546 8.4280951265780963 $539 $621 forward 7 unknown #
point $-1 -66.370433668019658 -25.379236505465329 -6.9081325669871472 #
edge $-1 $412 6.9081325669871472 $544 13.540171024433176 $540 $622 forward 7 unknown #
point $-1 -66.370433668019658 -37.101977830861834 -6.9081325669871472 #
straight-curve $-1 66.370433668019658 -37.101977830861834 0 0 0 -1 I I #
plane-surface $-1 0 37.101977830861834 0 0 -1 0 0 0 -1 forward_v I I I I #
coedge $-1 $421 $566 $423 $560 forward $418 $-1 #
vertex $-1 $560 $623 #
straight-curve $-1 -66.370433668019658 25.379236505465332 -5.1120758978550809 0 0 1 I I #
edge $-1 $562 -21.481674246780049 $558 -9.7589329213835398 $557 $624 forward 7 unknown #
straight-curve $-1 0 25.379236505465332 -13.540171024433176 -1 0 0 I I #
vertex $-1 $426 $625 #
straight-curve $-1 0 37.101977830861834 -13.540171024433176 -1 0 0 I I #
point $-1 66.370433668019658 25.379236505465332 -13.540171024433176 #
point $-1 66.370433668019658 37.101977830861841 -13.540171024433176 #
coedge $-1 $557 $430 $433 $568 forward $418 $-1 #
straight-curve $-1 -66.370433668019658 15.620303584081793 -6.9081325669871472 0 1 0 I I #
edge $-1 $435 6.9081325669871472 $562 13.540171024433176 $433 $626 forward 7 unknown #
point $-1 -66.370433668019658 37.101977830861841 -6.9081325669871472 #
point $-1 -66.370433668019658 25.379236505465332 -6.9081325669871472 #
straight-curve $-1 66.370433668019658 25.379236505465332 -5.1120758978550809 0 0 -1 I I #
straight-curve $-1 66.370433668019658 37.101977830861834 0 0 0 -1 I I #
edge $-1 $574 -31.547098516280748 $577 -21.967000789358117 $445 $627 forward 7 unknown #
vertex $-1 $573 $628 #
straight-curve $-1 66.370433668019658 -11.351141475938341 96.021864804974911 0 0 1 I I #
edge $-1 $577 3.5456948044310543 $456 12.06519853858352 $455 $629 forward 7 unknown #
vertex $-1 $576 $630 #
straight-curve $-1 -25.839119796448998 -11.351141475938341 99.834176145481152 0.69465836192734942 0 -0.71933980857756763 I I #
point $-1 66.370433668019658 -11.351141475938341 4.3483860455543493 #
point $-1 56.790335941097027 -19.870645210090807 14.26886788632379 #
straight-curve $-1 66.370433668019658 0 14.268867886323788 0 1 0 I I #
vertex $-1 $462 $631 #
point $-1 60.196691826489484 -17.436501286047246 6.5822466458594686 #
vertex $-1 $466 $632 #
point $-1 60.196691826489484 -13.785285399981905 6.5822466458594686 #
coedge $-1 $481 $480 $473 $587 forward $470 $-1 #
edge $-1 $588 -31.547098516280748 $591 -21.967000789358117 $586 $633 forward 7 unknown #
vertex $-1 $587 $634 #
straight-curve $-1 66.370433668019658 19.870645210090807 96.021864804974911 0 0 1 I I #
edge $-1 $591 -12.06519853858352 $482 -3.5456948044310543 $481 $635 forward 7 unknown #
vertex $-1 $590 $636 #
straight-curve $-1 -25.839119796448998 19.870645210090807 99.834176145481152 0.69465836192734942 0 -0.71933980857756763 I I #
point $-1 66.370433668019658 19.870645210090807 4.3483860455543493 #
point $-1 56.790335941097027 11.351141475938341 14.26886788632379 #
straight-curve $-1 66.370433668019658 0 14.268867886323788 0 1 0 I I #
vertex $-1 $488 $637 #
point $-1 60.196691826489484 13.785285399981895 6.5822466458594686 #
vertex $-1 $492 $638 #
point $-1 60.196691826489484 17.436501286047239 6.5822466458594686 #
coedge $-1 $507 $506 $499 $601 forward $496 $-1 #
edge $-1 $602 23.100103605191364 $605 27.985865441707091 $600 $639 forward 7 unknown #
vertex $-1 $601 $640 #
straight-curve $-1 -66.370433668019658 -17.539517036036088 38.395977663728459 0 0 1 I I #
edge $-1 $605 -12.337556403399779 $508 1.9336351381271601 $507 $641 forward 7 unknown #
vertex $-1 $604 $642 #
straight-curve $-1 -66.370433668019658 -17.539517036036088 6.4500142584918763 -0.52991925155115449 0 -0.84804810408105047 I I #
point $-1 -66.370433668019658 -17.539517036036088 6.4500142584918763 #
point $-1 -61.484671831503931 -3.2683254945091491 14.268867886323788 #
straight-curve $-1 -66.370433668019658 0 14.268867886323788 0 -1 0 I I #
vertex $-1 $514 $643 #
point $-1 -60.605455841513631 -13.462033738456963 10.052332187963721 #
vertex $-1 $518 $644 #
point $-1 -60.605455841513631 -7.345808792088274 10.052332187963721 #
straight-curve $-1 -66.370433668019658 37.101977830861834 0 0 0 -1 I I #
point $-1 -66.370433668019658 -37.101977830861834 -14.268867886323788 #
straight-curve $-1 -66.370433668019658 0 -14.268867886323788 0 1 0 I I #
point $-1 -66.370433668019658 37.101977830861834 -14.268867886323788 #
straight-curve $-1 -66.370433668019658 -15.620303584081791 -13.540171024433176 0 -1 0 I I #
point $-1 -66.370433668019658 -37.101977830861834 -13.540171024433176 #
point $-1 -66.370433668019658 -25.379236505465329 -13.540171024433176 #
straight-curve $-1 -66.370433668019658 -25.379236505465329 -5.1120758978550809 0 0 -1 I I #
straight-curve $-1 -66.370433668019658 -37.101977830861834 0 0 0 -1 I I #
point $-1 -66.370433668019658 25.379236505465332 -13.540171024433176 #
straight-curve $-1 -66.370433668019658 15.620303584081793 -13.540171024433176 0 -1 0 I I #
point $-1 -66.370433668019658 37.101977830861841 -13.540171024433176 #
straight-curve $-1 -66.370433668019658 37.101977830861834 0 0 0 -1 I I #
straight-curve $-1 34.82333515173891 -11.351141475938341 14.26886788632379 -1 0 0 I I #
point $-1 66.370433668019658 -11.351141475938341 14.268867886323788 #
straight-curve $-1 56.790335941097027 -7.805446671507287 14.26886788632379 0 -1 0 I I #
point $-1 56.790335941097027 -11.351141475938341 14.26886788632379 #
point $-1 58.782693655984566 -17.436501286047246 6.6069280925096869 #
point $-1 58.782693655984566 -13.785285399981905 6.6069280925096869 #
straight-curve $-1 34.82333515173891 19.870645210090807 14.26886788632379 -1 0 0 I I #
point $-1 66.370433668019658 19.870645210090807 14.268867886323788 #
straight-curve $-1 56.790335941097027 7.805446671507287 14.26886788632379 0 -1 0 I I #
point $-1 56.790335941097027 19.870645210090807 14.26886788632379 #
point $-1 58.782693655984566 13.785285399981895 6.6069280925096869 #
point $-1 58.782693655984566 17.436501286047239 6.6069280925096869 #
straight-curve $-1 -89.470537273211022 -17.539517036036088 14.26886788632379 1 0 0 I I #
point $-1 -66.370433668019658 -17.539517036036088 14.268867886323788 #
straight-curve $-1 -61.484671831503924 -5.2019606326363093 14.268867886323788 0 1 0 I I #
point $-1 -61.484671831503931 -17.539517036036088 14.268867886323788 #
point $-1 -60.128262562718781 -13.462033738456963 7.9853811545154141 #
point $-1 -60.128262562718781 -7.345808792088274 7.9853811545154141 #
End-of-ACIS-data 