500 0 14 0           
7 Unknown 11 ACIS 5.0 NT 24 Thu Mar 25 19:07:30 1999 
-1 9.9999999999999995e-007 1e-010 
body $-1 $14 $-1 $15 #
body $-1 $16 $-1 $17 #
body $-1 $18 $-1 $19 #
body $-1 $20 $-1 $21 #
body $-1 $22 $-1 $23 #
body $-1 $24 $-1 $25 #
body $-1 $26 $-1 $27 #
body $-1 $28 $-1 $29 #
body $-1 $30 $-1 $31 #
body $-1 $32 $-1 $33 #
body $-1 $34 $-1 $35 #
body $-1 $36 $-1 $37 #
body $-1 $38 $-1 $39 #
body $-1 $40 $-1 $41 #
lump $-1 $-1 $42 $0 #
transform $-1 1 0 0 0 1 0 0 0 1 61.765800958281197 27.102909614501137 5.7099156361834851 1 rotate no_reflect no_shear #
lump $-1 $-1 $43 $1 #
transform $-1 1 0 0 0 1 0 0 0 1 61.765800958281197 27.102909614501137 5.7099156361834851 1 rotate no_reflect no_shear #
lump $-1 $-1 $44 $2 #
transform $-1 1 0 0 0 1 0 0 0 1 61.765800958281197 27.102909614501137 5.7099156361834851 1 rotate no_reflect no_shear #
lump $-1 $-1 $45 $3 #
transform $-1 1 0 0 0 1 0 0 0 1 61.765800958281197 27.102909614501137 5.7099156361834851 1 rotate no_reflect no_shear #
lump $-1 $-1 $46 $4 #
transform $-1 1 0 0 0 1 0 0 0 1 61.765800958281197 27.102909614501137 5.7099156361834851 1 rotate no_reflect no_shear #
lump $-1 $-1 $47 $5 #
transform $-1 1 0 0 0 1 0 0 0 1 61.765800958281197 27.102909614501137 5.7099156361834851 1 rotate no_reflect no_shear #
lump $-1 $-1 $48 $6 #
transform $-1 1 0 0 0 1 0 0 0 1 61.765800958281197 27.102909614501137 5.7099156361834851 1 rotate no_reflect no_shear #
lump $-1 $-1 $49 $7 #
transform $-1 1 0 0 0 1 0 0 0 1 61.765800958281197 27.102909614501137 5.7099156361834851 1 rotate no_reflect no_shear #
lump $-1 $-1 $50 $8 #
transform $-1 1 0 0 0 1 0 0 0 1 61.765800958281197 27.102909614501137 5.7099156361834851 1 rotate no_reflect no_shear #
lump $-1 $-1 $51 $9 #
transform $-1 1 0 0 0 1 0 0 0 1 61.765800958281197 27.102909614501137 5.7099156361834851 1 rotate no_reflect no_shear #
lump $-1 $-1 $52 $10 #
transform $-1 1 0 0 0 1 0 0 0 1 61.765800958281197 27.102909614501137 5.7099156361834851 1 rotate no_reflect no_shear #
lump $-1 $-1 $53 $11 #
transform $-1 1 0 0 0 1 0 0 0 1 61.765800958281197 27.102909614501137 5.7099156361834851 1 rotate no_reflect no_shear #
lump $-1 $-1 $54 $12 #
transform $-1 1 0 0 0 1 0 0 0 1 61.765800958281197 27.102909614501137 5.7099156361834851 1 rotate no_reflect no_shear #
lump $-1 $-1 $55 $13 #
transform $-1 1 0 0 0 1 0 0 0 1 61.765800958281197 27.102909614501137 5.7099156361834851 1 rotate no_reflect no_shear #
shell $-1 $-1 $-1 $56 $-1 $14 #
shell $-1 $-1 $-1 $57 $-1 $16 #
shell $-1 $-1 $-1 $58 $-1 $18 #
shell $-1 $-1 $-1 $59 $-1 $20 #
shell $-1 $-1 $-1 $60 $-1 $22 #
shell $-1 $-1 $-1 $61 $-1 $24 #
shell $-1 $-1 $-1 $62 $-1 $26 #
shell $-1 $-1 $-1 $63 $-1 $28 #
shell $-1 $-1 $-1 $64 $-1 $30 #
shell $-1 $-1 $-1 $65 $-1 $32 #
shell $-1 $-1 $-1 $66 $-1 $34 #
shell $-1 $-1 $-1 $67 $-1 $36 #
shell $-1 $-1 $-1 $68 $-1 $38 #
shell $-1 $-1 $-1 $69 $-1 $40 #
face $-1 $70 $71 $42 $-1 $72 forward single #
face $-1 $73 $74 $43 $-1 $75 forward single #
face $-1 $76 $77 $44 $-1 $78 reversed single #
face $-1 $79 $80 $45 $-1 $81 forward single #
face $-1 $82 $83 $46 $-1 $84 forward single #
face $-1 $85 $86 $47 $-1 $87 reversed single #
face $-1 $88 $89 $48 $-1 $90 forward single #
face $-1 $91 $92 $49 $-1 $93 forward single #
face $-1 $94 $95 $50 $-1 $96 reversed single #
face $-1 $97 $98 $51 $-1 $99 forward single #
face $-1 $100 $101 $52 $-1 $102 forward single #
face $-1 $103 $104 $53 $-1 $105 reversed single #
face $-1 $106 $107 $54 $-1 $108 forward single #
face $-1 $109 $110 $55 $-1 $111 forward single #
face $-1 $112 $113 $42 $-1 $114 reversed single #
loop $-1 $-1 $115 $56 #
plane-surface $-1 0 0 5.7099156361834851 0 0 1 1 0 0 forward_v I I I I #
face $-1 $116 $117 $43 $-1 $118 reversed single #
loop $-1 $-1 $119 $57 #
plane-surface $-1 0 -27.102909614501137 0 0 1 0 0 0 1 forward_v I I I I #
face $-1 $120 $121 $44 $-1 $122 reversed single #
loop $-1 $-1 $123 $58 #
plane-surface $-1 104.02957486148432 -14.863985085152262 170.42607978705439 0 -1 0 -0.85716730853699208 0 -0.51503806187062418 forward_v I I I I #
face $-1 $124 $125 $45 $-1 $126 forward single #
loop $-1 $127 $128 $59 #
cone-surface $-1 59.807856069566611 -19.668201611354014 3.0016808977955169 -0.85716730853699208 0 -0.51503806187062418 0.25751903093531209 0 -0.42858365426849604 1 I I 0 1 0.5 forward I I I I #
face $-1 $129 $130 $46 $-1 $131 forward single #
loop $-1 $132 $133 $60 #
cone-surface $-1 59.807856069566611 -16.785671695632963 3.0016808977955169 -0.85716730853699208 0 -0.51503806187062418 0.25751903093531209 0 -0.42858365426849604 1 I I 0 1 0.5 forward I I I I #
face $-1 $134 $135 $47 $-1 $136 reversed single #
loop $-1 $-1 $137 $61 #
plane-surface $-1 104.02957486148432 -2.6907856260682967 170.42607978705439 0 -1 0 -0.85716730853699208 0 -0.51503806187062418 forward_v I I I I #
face $-1 $138 $139 $48 $-1 $140 forward single #
loop $-1 $141 $142 $62 #
cone-surface $-1 59.807856069566611 -7.4950021522700538 3.0016808977955169 -0.85716730853699208 0 -0.51503806187062418 0.25751903093531209 0 -0.42858365426849604 1 I I 0 1 0.5 forward I I I I #
face $-1 $143 $144 $49 $-1 $145 forward single #
loop $-1 $146 $147 $63 #
cone-surface $-1 59.807856069566611 -4.6124722365489994 3.0016808977955169 -0.85716730853699208 0 -0.51503806187062418 0.25751903093531209 0 -0.42858365426849604 1 I I 0 1 0.5 forward I I I I #
face $-1 $148 $149 $50 $-1 $150 reversed single #
loop $-1 $-1 $151 $64 #
plane-surface $-1 104.02957486148432 9.4824138330156664 170.42607978705439 0 -1 0 -0.85716730853699208 0 -0.51503806187062418 forward_v I I I I #
face $-1 $152 $153 $51 $-1 $154 forward single #
loop $-1 $155 $156 $65 #
cone-surface $-1 59.807856069566611 4.6781973068139102 3.0016808977955169 -0.85716730853699208 0 -0.51503806187062418 0.25751903093531209 0 -0.42858365426849604 1 I I 0 1 0.5 forward I I I I #
face $-1 $157 $158 $52 $-1 $159 forward single #
loop $-1 $160 $161 $66 #
cone-surface $-1 59.807856069566611 7.5607272225349647 3.0016808977955169 -0.85716730853699208 0 -0.51503806187062418 0.25751903093531209 0 -0.42858365426849604 1 I I 0 1 0.5 forward I I I I #
face $-1 $162 $163 $53 $-1 $164 reversed single #
loop $-1 $-1 $165 $67 #
plane-surface $-1 104.02957486148432 21.655613292099634 170.42607978705439 0 -1 0 -0.85716730853699208 0 -0.51503806187062418 forward_v I I I I #
face $-1 $166 $167 $54 $-1 $168 forward single #
loop $-1 $169 $170 $68 #
cone-surface $-1 59.807856069566611 16.851396765897874 3.0016808977955169 -0.85716730853699208 0 -0.51503806187062418 0.25751903093531209 0 -0.42858365426849604 1 I I 0 1 0.5 forward I I I I #
face $-1 $171 $172 $55 $-1 $173 forward single #
loop $-1 $174 $175 $69 #
cone-surface $-1 59.807856069566611 19.733926681618932 3.0016808977955169 -0.85716730853699208 0 -0.51503806187062418 0.25751903093531209 0 -0.42858365426849604 1 I I 0 1 0.5 forward I I I I #
face $-1 $176 $177 $42 $-1 $178 reversed single #
loop $-1 $-1 $179 $70 #
plane-surface $-1 0 0 -5.7099156361834851 0 0 1 1 0 0 forward_v I I I I #
coedge $-1 $180 $181 $182 $183 forward $71 $-1 #
face $-1 $184 $185 $43 $-1 $186 forward single #
loop $-1 $-1 $187 $73 #
plane-surface $-1 -61.765800958281197 0 0 1 0 0 0 0 -1 forward_v I I I I #
coedge $-1 $188 $189 $190 $191 forward $74 $-1 #
face $-1 $192 $193 $44 $-1 $194 reversed single #
loop $-1 $-1 $195 $76 #
plane-surface $-1 -1.8576758725986053 -18.226936653493489 106.80260295617461 0.85716730853699208 0 0.51503806187062418 0.51503806187062418 0 -0.85716730853699208 forward_v I I I I #
coedge $-1 $196 $197 $198 $199 reversed $77 $-1 #
face $-1 $-1 $200 $45 $-1 $201 forward single #
loop $-1 $202 $203 $79 #
cone-surface $-1 59.076051474562639 -19.668201611354014 2.5619683509857616 -0.85716730853699208 0 -0.51503806187062418 0.12875951546765604 0 -0.21429182713424802 1 I I -0.70710678118654746 0.70710678118654746 0.25 forward I I I I #
loop $-1 $-1 $204 $59 #
coedge $-1 $128 $128 $205 $206 reversed $80 $-1 #
face $-1 $-1 $207 $46 $-1 $208 forward single #
loop $-1 $209 $210 $82 #
cone-surface $-1 59.076051474562639 -16.785671695632963 2.5619683509857616 -0.85716730853699208 0 -0.51503806187062418 0.12875951546765604 0 -0.21429182713424802 1 I I -0.70710678118654746 0.70710678118654746 0.25 forward I I I I #
loop $-1 $-1 $211 $60 #
coedge $-1 $133 $133 $212 $213 reversed $83 $-1 #
face $-1 $214 $215 $47 $-1 $216 reversed single #
loop $-1 $-1 $217 $85 #
plane-surface $-1 -1.8576758725986053 -6.0537371944095248 106.80260295617461 0.85716730853699208 0 0.51503806187062418 0.51503806187062418 0 -0.85716730853699208 forward_v I I I I #
coedge $-1 $218 $219 $220 $221 reversed $86 $-1 #
face $-1 $-1 $222 $48 $-1 $223 forward single #
loop $-1 $224 $225 $88 #
cone-surface $-1 59.076051474562639 -7.4950021522700538 2.5619683509857616 -0.85716730853699208 0 -0.51503806187062418 0.12875951546765604 0 -0.21429182713424802 1 I I -0.70710678118654746 0.70710678118654746 0.25 forward I I I I #
loop $-1 $-1 $226 $62 #
coedge $-1 $142 $142 $227 $228 reversed $89 $-1 #
face $-1 $-1 $229 $49 $-1 $230 forward single #
loop $-1 $231 $232 $91 #
cone-surface $-1 59.076051474562639 -4.6124722365489994 2.5619683509857616 -0.85716730853699208 0 -0.51503806187062418 0.12875951546765604 0 -0.21429182713424802 1 I I -0.70710678118654746 0.70710678118654746 0.25 forward I I I I #
loop $-1 $-1 $233 $63 #
coedge $-1 $147 $147 $234 $235 reversed $92 $-1 #
face $-1 $236 $237 $50 $-1 $238 reversed single #
loop $-1 $-1 $239 $94 #
plane-surface $-1 -1.8576758725986053 6.1194622646744392 106.80260295617461 0.85716730853699208 0 0.51503806187062418 0.51503806187062418 0 -0.85716730853699208 forward_v I I I I #
coedge $-1 $240 $241 $242 $243 reversed $95 $-1 #
face $-1 $-1 $244 $51 $-1 $245 forward single #
loop $-1 $246 $247 $97 #
cone-surface $-1 59.076051474562639 4.6781973068139102 2.5619683509857616 -0.85716730853699208 0 -0.51503806187062418 0.12875951546765604 0 -0.21429182713424802 1 I I -0.70710678118654746 0.70710678118654746 0.25 forward I I I I #
loop $-1 $-1 $248 $65 #
coedge $-1 $156 $156 $249 $250 reversed $98 $-1 #
face $-1 $-1 $251 $52 $-1 $252 forward single #
loop $-1 $253 $254 $100 #
cone-surface $-1 59.076051474562639 7.5607272225349647 2.5619683509857616 -0.85716730853699208 0 -0.51503806187062418 0.12875951546765604 0 -0.21429182713424802 1 I I -0.70710678118654746 0.70710678118654746 0.25 forward I I I I #
loop $-1 $-1 $255 $66 #
coedge $-1 $161 $161 $256 $257 reversed $101 $-1 #
face $-1 $258 $259 $53 $-1 $260 reversed single #
loop $-1 $-1 $261 $103 #
plane-surface $-1 -1.8576758725986053 18.292661723758407 106.80260295617461 0.85716730853699208 0 0.51503806187062418 0.51503806187062418 0 -0.85716730853699208 forward_v I I I I #
coedge $-1 $262 $263 $264 $265 reversed $104 $-1 #
face $-1 $-1 $266 $54 $-1 $267 forward single #
loop $-1 $268 $269 $106 #
cone-surface $-1 59.076051474562639 16.851396765897874 2.5619683509857616 -0.85716730853699208 0 -0.51503806187062418 0.12875951546765604 0 -0.21429182713424802 1 I I -0.70710678118654746 0.70710678118654746 0.25 forward I I I I #
loop $-1 $-1 $270 $68 #
coedge $-1 $170 $170 $271 $272 reversed $107 $-1 #
face $-1 $-1 $273 $55 $-1 $274 forward single #
loop $-1 $275 $276 $109 #
cone-surface $-1 59.076051474562639 19.733926681618932 2.5619683509857616 -0.85716730853699208 0 -0.51503806187062418 0.12875951546765604 0 -0.21429182713424802 1 I I -0.70710678118654746 0.70710678118654746 0.25 forward I I I I #
loop $-1 $-1 $277 $69 #
coedge $-1 $175 $175 $278 $279 reversed $110 $-1 #
face $-1 $280 $281 $42 $-1 $282 reversed single #
loop $-1 $-1 $283 $112 #
plane-surface $-1 0 -27.102909614501137 0 0 1 0 0 0 1 forward_v I I I I #
coedge $-1 $284 $285 $286 $287 forward $113 $-1 #
coedge $-1 $288 $115 $289 $290 forward $71 $-1 #
coedge $-1 $115 $288 $291 $292 forward $71 $-1 #
coedge $-1 $293 $294 $115 $183 reversed $295 $-1 #
edge $-1 $296 -27.102909614501137 $297 27.102909614501137 $182 $298 forward 7 unknown #
face $-1 $299 $300 $43 $-1 $301 reversed single #
loop $-1 $-1 $302 $116 #
plane-surface $-1 0 -29.859420310834345 -0.34767591674412279 0 0 1 1 0 0 forward_v I I I I #
coedge $-1 $303 $304 $189 $305 forward $117 $-1 #
coedge $-1 $306 $119 $307 $308 reversed $74 $-1 #
coedge $-1 $119 $306 $187 $305 reversed $74 $-1 #
coedge $-1 $309 $302 $119 $191 reversed $185 $-1 #
edge $-1 $310 -61.765800958281197 $311 61.765800958281197 $190 $312 forward 7 unknown #
face $-1 $313 $314 $44 $-1 $315 reversed single #
loop $-1 $-1 $316 $120 #
plane-surface $-1 104.02957486148432 -21.589888221834716 170.42607978705439 0 1 0 0.85716730853699208 0 0.51503806187062418 forward_v I I I I #
coedge $-1 $317 $318 $319 $320 reversed $121 $-1 #
coedge $-1 $197 $123 $321 $322 reversed $77 $-1 #
coedge $-1 $123 $196 $317 $323 reversed $77 $-1 #
coedge $-1 $319 $324 $123 $199 forward $325 $-1 #
edge $-1 $326 -9.7510135275390368 $327 -6.8701492858493012 $198 $328 forward 7 unknown #
loop $-1 $-1 $205 $124 #
plane-surface $-1 -1.8576758725986053 -18.226936653493489 106.80260295617461 0.85716730853699208 0 0.51503806187062418 0.51503806187062418 0 -0.85716730853699208 forward_v I I I I #
loop $-1 $-1 $329 $79 #
coedge $-1 $203 $203 $204 $330 reversed $125 $-1 #
coedge $-1 $204 $204 $203 $330 forward $127 $-1 #
coedge $-1 $205 $205 $128 $206 forward $200 $-1 #
edge $-1 $331 0 $331 6.2831853071796004 $205 $332 forward 7 unknown #
loop $-1 $-1 $212 $129 #
plane-surface $-1 -1.8576758725986053 -18.226936653493489 106.80260295617461 0.85716730853699208 0 0.51503806187062418 0.51503806187062418 0 -0.85716730853699208 forward_v I I I I #
loop $-1 $-1 $333 $82 #
coedge $-1 $210 $210 $211 $334 reversed $130 $-1 #
coedge $-1 $211 $211 $210 $334 forward $132 $-1 #
coedge $-1 $212 $212 $133 $213 forward $207 $-1 #
edge $-1 $335 0 $335 6.2831853071796004 $212 $336 forward 7 unknown #
face $-1 $337 $338 $47 $-1 $339 reversed single #
loop $-1 $-1 $340 $134 #
plane-surface $-1 104.02957486148432 -9.4166887627507521 170.42607978705439 0 1 0 0.85716730853699208 0 0.51503806187062418 forward_v I I I I #
coedge $-1 $341 $342 $343 $344 reversed $135 $-1 #
coedge $-1 $219 $137 $345 $346 reversed $86 $-1 #
coedge $-1 $137 $218 $341 $347 reversed $86 $-1 #
coedge $-1 $343 $348 $137 $221 forward $349 $-1 #
edge $-1 $350 -9.7510135275390368 $351 -6.8701492858493012 $220 $352 forward 7 unknown #
loop $-1 $-1 $227 $138 #
plane-surface $-1 -1.8576758725986053 -6.0537371944095248 106.80260295617461 0.85716730853699208 0 0.51503806187062418 0.51503806187062418 0 -0.85716730853699208 forward_v I I I I #
loop $-1 $-1 $353 $88 #
coedge $-1 $225 $225 $226 $354 reversed $139 $-1 #
coedge $-1 $226 $226 $225 $354 forward $141 $-1 #
coedge $-1 $227 $227 $142 $228 forward $222 $-1 #
edge $-1 $355 0 $355 6.2831853071796004 $227 $356 forward 7 unknown #
loop $-1 $-1 $234 $143 #
plane-surface $-1 -1.8576758725986053 -6.0537371944095248 106.80260295617461 0.85716730853699208 0 0.51503806187062418 0.51503806187062418 0 -0.85716730853699208 forward_v I I I I #
loop $-1 $-1 $357 $91 #
coedge $-1 $232 $232 $233 $358 reversed $144 $-1 #
coedge $-1 $233 $233 $232 $358 forward $146 $-1 #
coedge $-1 $234 $234 $147 $235 forward $229 $-1 #
edge $-1 $359 0 $359 6.2831853071796004 $234 $360 forward 7 unknown #
face $-1 $361 $362 $50 $-1 $363 reversed single #
loop $-1 $-1 $364 $148 #
plane-surface $-1 104.02957486148432 2.7565106963332111 170.42607978705439 0 1 0 0.85716730853699208 0 0.51503806187062418 forward_v I I I I #
coedge $-1 $365 $366 $367 $368 reversed $149 $-1 #
coedge $-1 $241 $151 $369 $370 reversed $95 $-1 #
coedge $-1 $151 $240 $365 $371 reversed $95 $-1 #
coedge $-1 $367 $372 $151 $243 forward $373 $-1 #
edge $-1 $374 -9.7510135275390368 $375 -6.8701492858493012 $242 $376 forward 7 unknown #
loop $-1 $-1 $249 $152 #
plane-surface $-1 -1.8576758725986053 6.1194622646744392 106.80260295617461 0.85716730853699208 0 0.51503806187062418 0.51503806187062418 0 -0.85716730853699208 forward_v I I I I #
loop $-1 $-1 $377 $97 #
coedge $-1 $247 $247 $248 $378 reversed $153 $-1 #
coedge $-1 $248 $248 $247 $378 forward $155 $-1 #
coedge $-1 $249 $249 $156 $250 forward $244 $-1 #
edge $-1 $379 0 $379 6.2831853071796004 $249 $380 forward 7 unknown #
loop $-1 $-1 $256 $157 #
plane-surface $-1 -1.8576758725986053 6.1194622646744392 106.80260295617461 0.85716730853699208 0 0.51503806187062418 0.51503806187062418 0 -0.85716730853699208 forward_v I I I I #
loop $-1 $-1 $381 $100 #
coedge $-1 $254 $254 $255 $382 reversed $158 $-1 #
coedge $-1 $255 $255 $254 $382 forward $160 $-1 #
coedge $-1 $256 $256 $161 $257 forward $251 $-1 #
edge $-1 $383 0 $383 6.2831853071796004 $256 $384 forward 7 unknown #
face $-1 $385 $386 $53 $-1 $387 reversed single #
loop $-1 $-1 $388 $162 #
plane-surface $-1 104.02957486148432 14.92971015541718 170.42607978705439 0 1 0 0.85716730853699208 0 0.51503806187062418 forward_v I I I I #
coedge $-1 $389 $390 $391 $392 reversed $163 $-1 #
coedge $-1 $263 $165 $393 $394 reversed $104 $-1 #
coedge $-1 $165 $262 $389 $395 reversed $104 $-1 #
coedge $-1 $391 $396 $165 $265 forward $397 $-1 #
edge $-1 $398 -9.7510135275390368 $399 -6.8701492858493012 $264 $400 forward 7 unknown #
loop $-1 $-1 $271 $166 #
plane-surface $-1 -1.8576758725986053 18.292661723758407 106.80260295617461 0.85716730853699208 0 0.51503806187062418 0.51503806187062418 0 -0.85716730853699208 forward_v I I I I #
loop $-1 $-1 $401 $106 #
coedge $-1 $269 $269 $270 $402 reversed $167 $-1 #
coedge $-1 $270 $270 $269 $402 forward $169 $-1 #
coedge $-1 $271 $271 $170 $272 forward $266 $-1 #
edge $-1 $403 0 $403 6.2831853071796004 $271 $404 forward 7 unknown #
loop $-1 $-1 $278 $171 #
plane-surface $-1 -1.8576758725986053 18.292661723758407 106.80260295617461 0.85716730853699208 0 0.51503806187062418 0.51503806187062418 0 -0.85716730853699208 forward_v I I I I #
loop $-1 $-1 $405 $109 #
coedge $-1 $276 $276 $277 $406 reversed $172 $-1 #
coedge $-1 $277 $277 $276 $406 forward $174 $-1 #
coedge $-1 $278 $278 $175 $279 forward $273 $-1 #
edge $-1 $407 0 $407 6.2831853071796004 $278 $408 forward 7 unknown #
face $-1 $409 $410 $42 $-1 $411 reversed single #
loop $-1 $-1 $412 $176 #
plane-surface $-1 -61.765800958281197 0 0 1 0 0 0 0 -1 forward_v I I I I #
coedge $-1 $413 $291 $414 $415 forward $177 $-1 #
coedge $-1 $416 $179 $413 $417 forward $113 $-1 #
coedge $-1 $179 $416 $418 $419 forward $113 $-1 #
coedge $-1 $294 $293 $179 $287 reversed $295 $-1 #
edge $-1 $420 -27.102909614501137 $421 27.102909614501137 $286 $422 forward 7 unknown #
coedge $-1 $181 $180 $423 $424 forward $71 $-1 #
coedge $-1 $425 $426 $180 $290 reversed $410 $-1 #
edge $-1 $297 -61.765800958281197 $427 61.765800958281197 $289 $428 forward 7 unknown #
coedge $-1 $283 $429 $181 $292 reversed $177 $-1 #
edge $-1 $430 -61.765800958281197 $296 61.765800958281197 $291 $431 forward 7 unknown #
coedge $-1 $286 $182 $429 $432 forward $295 $-1 #
coedge $-1 $182 $286 $425 $433 reversed $295 $-1 #
loop $-1 $-1 $293 $409 #
vertex $-1 $183 $434 #
vertex $-1 $183 $435 #
straight-curve $-1 61.765800958281197 0 5.7099156361834851 0 1 0 I I #
face $-1 $436 $437 $43 $-1 $438 reversed single #
loop $-1 $-1 $439 $184 #
plane-surface $-1 0 -29.859420310834345 -3.347675916744123 0 0 1 1 0 0 forward_v I I I I #
coedge $-1 $190 $440 $441 $442 forward $185 $-1 #
coedge $-1 $443 $187 $444 $445 reversed $117 $-1 #
coedge $-1 $187 $443 $309 $446 reversed $117 $-1 #
edge $-1 $310 0.34767591674412279 $447 3.347675916744123 $187 $448 forward 7 unknown #
coedge $-1 $189 $188 $449 $450 forward $74 $-1 #
coedge $-1 $441 $451 $188 $308 forward $452 $-1 #
edge $-1 $453 -3.347675916744123 $311 -0.34767591674412279 $307 $454 forward 7 unknown #
coedge $-1 $440 $190 $304 $446 forward $185 $-1 #
vertex $-1 $305 $455 #
vertex $-1 $442 $456 #
straight-curve $-1 0 -27.102909614501137 -0.34767591674412279 1 0 0 I I #
face $-1 $-1 $325 $44 $-1 $457 forward single #
loop $-1 $-1 $458 $192 #
plane-surface $-1 61.765800958281197 0 0 -1 0 0 0 0 1 forward_v I I I I #
coedge $-1 $459 $460 $461 $462 reversed $193 $-1 #
coedge $-1 $463 $195 $197 $323 forward $121 $-1 #
coedge $-1 $195 $463 $459 $464 forward $121 $-1 #
coedge $-1 $461 $198 $195 $320 forward $325 $-1 #
edge $-1 $327 5.7505167584055172 $465 12.476419895087972 $319 $466 forward 7 unknown #
coedge $-1 $467 $468 $196 $322 forward $314 $-1 #
edge $-1 $469 -84.297687671435526 $326 -79.503124257343714 $321 $470 forward 7 unknown #
edge $-1 $327 117.93810416374316 $469 123.53160191656245 $197 $471 forward 7 unknown #
coedge $-1 $198 $461 $467 $472 forward $325 $-1 #
loop $-1 $-1 $461 $313 #
vertex $-1 $322 $473 #
vertex $-1 $199 $474 #
straight-curve $-1 52.01478743074216 -14.863985085152262 5.7099156361834815 -1 0 0 I I #
coedge $-1 $329 $329 $-1 $475 reversed $202 $-1 #
edge $-1 $476 0 $476 6.2831853071796004 $203 $477 forward 7 unknown #
vertex $-1 $206 $478 #
ellipse-curve $-1 60.325368837436301 -19.668201611354014 3.3126339291375961 0.85716730853699208 0 0.51503806187062418 0.25751903093531209 0 -0.42858365426849604 1 I I #
coedge $-1 $333 $333 $-1 $479 reversed $209 $-1 #
edge $-1 $480 0 $480 6.2831853071796004 $210 $481 forward 7 unknown #
vertex $-1 $213 $482 #
ellipse-curve $-1 60.325368837436301 -16.785671695632963 3.3126339291375961 0.85716730853699208 0 0.51503806187062418 0.25751903093531209 0 -0.42858365426849604 1 I I #
face $-1 $-1 $349 $47 $-1 $483 forward single #
loop $-1 $-1 $484 $214 #
plane-surface $-1 61.765800958281197 0 0 -1 0 0 0 0 1 forward_v I I I I #
coedge $-1 $485 $486 $487 $488 reversed $215 $-1 #
coedge $-1 $489 $217 $219 $347 forward $135 $-1 #
coedge $-1 $217 $489 $485 $490 forward $135 $-1 #
coedge $-1 $487 $220 $217 $344 forward $349 $-1 #
edge $-1 $351 -0.33608297113646568 $491 6.3898201655459896 $343 $492 forward 7 unknown #
coedge $-1 $493 $494 $218 $346 forward $338 $-1 #
edge $-1 $495 -84.297687671435526 $350 -79.503124257343714 $345 $496 forward 7 unknown #
edge $-1 $351 117.93810416374316 $495 123.53160191656245 $219 $497 forward 7 unknown #
coedge $-1 $220 $487 $493 $498 forward $349 $-1 #
loop $-1 $-1 $487 $337 #
vertex $-1 $346 $499 #
vertex $-1 $221 $500 #
straight-curve $-1 52.01478743074216 -2.6907856260682967 5.7099156361834815 -1 0 0 I I #
coedge $-1 $353 $353 $-1 $501 reversed $224 $-1 #
edge $-1 $502 0 $502 6.2831853071796004 $225 $503 forward 7 unknown #
vertex $-1 $228 $504 #
ellipse-curve $-1 60.325368837436301 -7.4950021522700538 3.3126339291375961 0.85716730853699208 0 0.51503806187062418 0.25751903093531209 0 -0.42858365426849604 1 I I #
coedge $-1 $357 $357 $-1 $505 reversed $231 $-1 #
edge $-1 $506 0 $506 6.2831853071796004 $232 $507 forward 7 unknown #
vertex $-1 $235 $508 #
ellipse-curve $-1 60.325368837436301 -4.6124722365489994 3.3126339291375961 0.85716730853699208 0 0.51503806187062418 0.25751903093531209 0 -0.42858365426849604 1 I I #
face $-1 $-1 $373 $50 $-1 $509 forward single #
loop $-1 $-1 $510 $236 #
plane-surface $-1 61.765800958281197 0 0 -1 0 0 0 0 1 forward_v I I I I #
coedge $-1 $511 $512 $513 $514 reversed $237 $-1 #
coedge $-1 $515 $239 $241 $371 forward $149 $-1 #
coedge $-1 $239 $515 $511 $516 forward $149 $-1 #
coedge $-1 $513 $242 $239 $368 forward $373 $-1 #
edge $-1 $375 -6.4226827006784468 $517 0.3032204360040085 $367 $518 forward 7 unknown #
coedge $-1 $519 $520 $240 $370 forward $362 $-1 #
edge $-1 $521 -84.297687671435526 $374 -79.503124257343714 $369 $522 forward 7 unknown #
edge $-1 $375 117.93810416374316 $521 123.53160191656245 $241 $523 forward 7 unknown #
coedge $-1 $242 $513 $519 $524 forward $373 $-1 #
loop $-1 $-1 $513 $361 #
vertex $-1 $370 $525 #
vertex $-1 $243 $526 #
straight-curve $-1 52.01478743074216 9.4824138330156664 5.7099156361834815 -1 0 0 I I #
coedge $-1 $377 $377 $-1 $527 reversed $246 $-1 #
edge $-1 $528 0 $528 6.2831853071796004 $247 $529 forward 7 unknown #
vertex $-1 $250 $530 #
ellipse-curve $-1 60.325368837436301 4.6781973068139102 3.3126339291375961 0.85716730853699208 0 0.51503806187062418 0.25751903093531209 0 -0.42858365426849604 1 I I #
coedge $-1 $381 $381 $-1 $531 reversed $253 $-1 #
edge $-1 $532 0 $532 6.2831853071796004 $254 $533 forward 7 unknown #
vertex $-1 $257 $534 #
ellipse-curve $-1 60.325368837436301 7.5607272225349647 3.3126339291375961 0.85716730853699208 0 0.51503806187062418 0.25751903093531209 0 -0.42858365426849604 1 I I #
face $-1 $-1 $397 $53 $-1 $535 forward single #
loop $-1 $-1 $536 $258 #
plane-surface $-1 61.765800958281197 0 0 -1 0 0 0 0 1 forward_v I I I I #
coedge $-1 $537 $538 $539 $540 reversed $259 $-1 #
coedge $-1 $541 $261 $263 $395 forward $163 $-1 #
coedge $-1 $261 $541 $537 $542 forward $163 $-1 #
coedge $-1 $539 $264 $261 $392 forward $397 $-1 #
edge $-1 $399 -12.509282430220431 $543 -5.7833792935379762 $391 $544 forward 7 unknown #
coedge $-1 $545 $546 $262 $394 forward $386 $-1 #
edge $-1 $547 -84.297687671435526 $398 -79.503124257343714 $393 $548 forward 7 unknown #
edge $-1 $399 117.93810416374316 $547 123.53160191656245 $263 $549 forward 7 unknown #
coedge $-1 $264 $539 $545 $550 forward $397 $-1 #
loop $-1 $-1 $539 $385 #
vertex $-1 $394 $551 #
vertex $-1 $265 $552 #
straight-curve $-1 52.01478743074216 21.655613292099634 5.7099156361834815 -1 0 0 I I #
coedge $-1 $401 $401 $-1 $553 reversed $268 $-1 #
edge $-1 $554 0 $554 6.2831853071796004 $269 $555 forward 7 unknown #
vertex $-1 $272 $556 #
ellipse-curve $-1 60.325368837436301 16.851396765897874 3.3126339291375961 0.85716730853699208 0 0.51503806187062418 0.25751903093531209 0 -0.42858365426849604 1 I I #
coedge $-1 $405 $405 $-1 $557 reversed $275 $-1 #
edge $-1 $558 0 $558 6.2831853071796004 $276 $559 forward 7 unknown #
vertex $-1 $279 $560 #
ellipse-curve $-1 60.325368837436301 19.733926681618932 3.3126339291375961 0.85716730853699208 0 0.51503806187062418 0.25751903093531209 0 -0.42858365426849604 1 I I #
face $-1 $-1 $295 $42 $-1 $561 reversed single #
loop $-1 $-1 $425 $280 #
plane-surface $-1 0 27.102909614501137 0 0 -1 0 0 0 -1 forward_v I I I I #
coedge $-1 $562 $423 $426 $563 forward $281 $-1 #
coedge $-1 $429 $283 $284 $417 reversed $177 $-1 #
coedge $-1 $423 $562 $283 $415 reversed $281 $-1 #
edge $-1 $430 -5.7099156361834851 $564 5.7099156361834851 $414 $565 forward 7 unknown #
coedge $-1 $285 $284 $562 $566 forward $113 $-1 #
edge $-1 $421 -61.765800958281197 $564 61.765800958281197 $413 $567 forward 7 unknown #
coedge $-1 $426 $425 $285 $419 reversed $410 $-1 #
edge $-1 $568 -61.765800958281197 $420 61.765800958281197 $418 $569 forward 7 unknown #
vertex $-1 $287 $570 #
vertex $-1 $432 $571 #
straight-curve $-1 61.765800958281197 0 -5.7099156361834851 0 -1 0 I I #
coedge $-1 $412 $414 $288 $424 reversed $281 $-1 #
edge $-1 $427 -27.102909614501137 $430 27.102909614501137 $423 $572 forward 7 unknown #
coedge $-1 $418 $289 $294 $433 forward $410 $-1 #
coedge $-1 $289 $418 $412 $563 reversed $410 $-1 #
vertex $-1 $290 $573 #
straight-curve $-1 0 27.102909614501137 5.7099156361834851 -1 0 0 I I #
coedge $-1 $291 $413 $293 $432 reversed $177 $-1 #
vertex $-1 $424 $574 #
straight-curve $-1 0 -27.102909614501137 5.7099156361834851 1 0 0 I I #
edge $-1 $296 -5.7099156361834851 $421 5.7099156361834851 $293 $575 forward 7 unknown #
edge $-1 $297 -5.7099156361834851 $420 5.7099156361834851 $294 $576 forward 7 unknown #
point $-1 61.765800958281197 -27.102909614501137 5.7099156361834851 #
point $-1 61.765800958281197 27.102909614501137 5.7099156361834851 #
face $-1 $-1 $452 $43 $-1 $577 reversed single #
loop $-1 $-1 $578 $299 #
plane-surface $-1 0 -32.615931007167553 -1.847675916744123 0 1 0 0 0 1 forward_v I I I I #
coedge $-1 $579 $449 $451 $580 forward $300 $-1 #
coedge $-1 $302 $309 $581 $582 forward $185 $-1 #
coedge $-1 $583 $307 $302 $442 reversed $452 $-1 #
edge $-1 $584 -2.7565106963332084 $311 2.7565106963332084 $441 $585 forward 7 unknown #
coedge $-1 $304 $303 $578 $586 reversed $117 $-1 #
coedge $-1 $449 $579 $303 $445 forward $300 $-1 #
edge $-1 $587 -2.7565106963332084 $447 2.7565106963332084 $303 $588 forward 7 unknown #
edge $-1 $310 -2.7565106963332084 $589 2.7565106963332084 $304 $590 forward 7 unknown #
vertex $-1 $305 $591 #
straight-curve $-1 -61.765800958281197 -27.102909614501137 0 0 0 -1 I I #
coedge $-1 $439 $444 $306 $450 reversed $300 $-1 #
edge $-1 $453 -61.765800958281197 $447 61.765800958281197 $449 $592 forward 7 unknown #
coedge $-1 $307 $583 $439 $580 reversed $452 $-1 #
loop $-1 $-1 $307 $436 #
vertex $-1 $308 $593 #
straight-curve $-1 61.765800958281197 -27.102909614501137 0 0 0 1 I I #
point $-1 -61.765800958281197 -27.102909614501137 -0.34767591674412279 #
point $-1 61.765800958281197 -27.102909614501137 -0.34767591674412279 #
plane-surface $-1 0 0 5.7099156361834851 0 0 1 1 0 0 forward_v I I I I #
coedge $-1 $468 $467 $460 $594 forward $314 $-1 #
coedge $-1 $460 $316 $318 $464 reversed $193 $-1 #
coedge $-1 $316 $459 $458 $594 reversed $193 $-1 #
coedge $-1 $324 $319 $316 $462 forward $325 $-1 #
edge $-1 $465 6.8701492858493012 $595 9.7510135275390368 $461 $596 forward 7 unknown #
coedge $-1 $318 $317 $468 $597 reversed $121 $-1 #
edge $-1 $598 -123.53160191656245 $465 -117.93810416374316 $459 $599 forward 7 unknown #
vertex $-1 $320 $600 #
straight-curve $-1 58.884936716591454 -9.1134683267467445 5.7099156361834815 0 -1 0 I I #
coedge $-1 $458 $321 $324 $472 reversed $314 $-1 #
coedge $-1 $321 $458 $463 $597 forward $314 $-1 #
vertex $-1 $322 $601 #
straight-curve $-1 61.765800958281197 -14.863985085152262 85.213039893527196 0 0 1 I I #
straight-curve $-1 -1.8576758725986053 -14.863985085152262 106.80260295617461 0.51503806187062418 0 -0.85716730853699208 I I #
edge $-1 $595 -21.589888221834716 $326 -14.863985085152262 $467 $602 forward 7 unknown #
point $-1 61.765800958281197 -14.863985085152262 5.7099156361834851 #
point $-1 58.884936716591461 -14.863985085152262 5.7099156361834815 #
edge $-1 $603 1 $603 0 $329 $-1 forward 7 unknown #
vertex $-1 $330 $604 #
ellipse-curve $-1 59.290343301696886 -19.668201611354014 2.6907278664534178 0.85716730853699208 0 0.51503806187062418 0.25751903093531209 0 -0.42858365426849604 1 I I #
point $-1 60.58288786837165 -19.668201611354014 2.8840502748691201 #
edge $-1 $605 1 $605 0 $333 $-1 forward 7 unknown #
vertex $-1 $334 $606 #
ellipse-curve $-1 59.290343301696886 -16.785671695632963 2.6907278664534178 0.85716730853699208 0 0.51503806187062418 0.25751903093531209 0 -0.42858365426849604 1 I I #
point $-1 60.58288786837165 -16.785671695632963 2.8840502748691201 #
plane-surface $-1 0 0 5.7099156361834851 0 0 1 1 0 0 forward_v I I I I #
coedge $-1 $494 $493 $486 $607 forward $338 $-1 #
coedge $-1 $486 $340 $342 $490 reversed $215 $-1 #
coedge $-1 $340 $485 $484 $607 reversed $215 $-1 #
coedge $-1 $348 $343 $340 $488 forward $349 $-1 #
edge $-1 $491 6.8701492858493012 $608 9.7510135275390368 $487 $609 forward 7 unknown #
coedge $-1 $342 $341 $494 $610 reversed $135 $-1 #
edge $-1 $611 -123.53160191656245 $491 -117.93810416374316 $485 $612 forward 7 unknown #
vertex $-1 $344 $613 #
straight-curve $-1 58.884936716591454 -3.0268685972047624 5.7099156361834815 0 -1 0 I I #
coedge $-1 $484 $345 $348 $498 reversed $338 $-1 #
coedge $-1 $345 $484 $489 $610 forward $338 $-1 #
vertex $-1 $346 $614 #
straight-curve $-1 61.765800958281197 -2.6907856260682967 85.213039893527196 0 0 1 I I #
straight-curve $-1 -1.8576758725986053 -2.6907856260682967 106.80260295617461 0.51503806187062418 0 -0.85716730853699208 I I #
edge $-1 $608 -9.4166887627507521 $350 -2.6907856260682967 $493 $615 forward 7 unknown #
point $-1 61.765800958281197 -2.6907856260682967 5.7099156361834851 #
point $-1 58.884936716591461 -2.6907856260682967 5.7099156361834815 #
edge $-1 $616 1 $616 0 $353 $-1 forward 7 unknown #
vertex $-1 $354 $617 #
ellipse-curve $-1 59.290343301696886 -7.4950021522700538 2.6907278664534178 0.85716730853699208 0 0.51503806187062418 0.25751903093531209 0 -0.42858365426849604 1 I I #
point $-1 60.58288786837165 -7.4950021522700538 2.8840502748691201 #
edge $-1 $618 1 $618 0 $357 $-1 forward 7 unknown #
vertex $-1 $358 $619 #
ellipse-curve $-1 59.290343301696886 -4.6124722365489994 2.6907278664534178 0.85716730853699208 0 0.51503806187062418 0.25751903093531209 0 -0.42858365426849604 1 I I #
point $-1 60.58288786837165 -4.6124722365489994 2.8840502748691201 #
plane-surface $-1 0 0 5.7099156361834851 0 0 1 1 0 0 forward_v I I I I #
coedge $-1 $520 $519 $512 $620 forward $362 $-1 #
coedge $-1 $512 $364 $366 $516 reversed $237 $-1 #
coedge $-1 $364 $511 $510 $620 reversed $237 $-1 #
coedge $-1 $372 $367 $364 $514 forward $373 $-1 #
edge $-1 $517 6.8701492858493012 $621 9.7510135275390368 $513 $622 forward 7 unknown #
coedge $-1 $366 $365 $520 $623 reversed $149 $-1 #
edge $-1 $624 -123.53160191656245 $517 -117.93810416374316 $511 $625 forward 7 unknown #
vertex $-1 $368 $626 #
straight-curve $-1 58.884936716591454 3.0597311323372196 5.7099156361834815 0 -1 0 I I #
coedge $-1 $510 $369 $372 $524 reversed $362 $-1 #
coedge $-1 $369 $510 $515 $623 forward $362 $-1 #
vertex $-1 $370 $627 #
straight-curve $-1 61.765800958281197 9.4824138330156664 85.213039893527196 0 0 1 I I #
straight-curve $-1 -1.8576758725986053 9.4824138330156664 106.80260295617461 0.51503806187062418 0 -0.85716730853699208 I I #
edge $-1 $621 2.7565106963332111 $374 9.4824138330156664 $519 $628 forward 7 unknown #
point $-1 61.765800958281197 9.4824138330156664 5.7099156361834851 #
point $-1 58.884936716591461 9.4824138330156664 5.7099156361834815 #
edge $-1 $629 1 $629 0 $377 $-1 forward 7 unknown #
vertex $-1 $378 $630 #
ellipse-curve $-1 59.290343301696886 4.6781973068139102 2.6907278664534178 0.85716730853699208 0 0.51503806187062418 0.25751903093531209 0 -0.42858365426849604 1 I I #
point $-1 60.58288786837165 4.6781973068139102 2.8840502748691201 #
edge $-1 $631 1 $631 0 $381 $-1 forward 7 unknown #
vertex $-1 $382 $632 #
ellipse-curve $-1 59.290343301696886 7.5607272225349647 2.6907278664534178 0.85716730853699208 0 0.51503806187062418 0.25751903093531209 0 -0.42858365426849604 1 I I #
point $-1 60.58288786837165 7.5607272225349647 2.8840502748691201 #
plane-surface $-1 0 0 5.7099156361834851 0 0 1 1 0 0 forward_v I I I I #
coedge $-1 $546 $545 $538 $633 forward $386 $-1 #
coedge $-1 $538 $388 $390 $542 reversed $259 $-1 #
coedge $-1 $388 $537 $536 $633 reversed $259 $-1 #
coedge $-1 $396 $391 $388 $540 forward $397 $-1 #
edge $-1 $543 6.8701492858493012 $634 9.7510135275390368 $539 $635 forward 7 unknown #
coedge $-1 $390 $389 $546 $636 reversed $163 $-1 #
edge $-1 $637 -123.53160191656245 $543 -117.93810416374316 $537 $638 forward 7 unknown #
vertex $-1 $392 $639 #
straight-curve $-1 58.884936716591454 9.1463308618792034 5.7099156361834815 0 -1 0 I I #
coedge $-1 $536 $393 $396 $550 reversed $386 $-1 #
coedge $-1 $393 $536 $541 $636 forward $386 $-1 #
vertex $-1 $394 $640 #
straight-curve $-1 61.765800958281197 21.655613292099634 85.213039893527196 0 0 1 I I #
straight-curve $-1 -1.8576758725986053 21.655613292099634 106.80260295617461 0.51503806187062418 0 -0.85716730853699208 I I #
edge $-1 $634 14.92971015541718 $398 21.655613292099634 $545 $641 forward 7 unknown #
point $-1 61.765800958281197 21.655613292099634 5.7099156361834851 #
point $-1 58.884936716591461 21.655613292099634 5.7099156361834815 #
edge $-1 $642 1 $642 0 $401 $-1 forward 7 unknown #
vertex $-1 $402 $643 #
ellipse-curve $-1 59.290343301696886 16.851396765897874 2.6907278664534178 0.85716730853699208 0 0.51503806187062418 0.25751903093531209 0 -0.42858365426849604 1 I I #
point $-1 60.58288786837165 16.851396765897874 2.8840502748691201 #
edge $-1 $644 1 $644 0 $405 $-1 forward 7 unknown #
vertex $-1 $406 $645 #
ellipse-curve $-1 59.290343301696886 19.733926681618932 2.6907278664534178 0.85716730853699208 0 0.51503806187062418 0.25751903093531209 0 -0.42858365426849604 1 I I #
point $-1 60.58288786837165 19.733926681618932 2.8840502748691201 #
plane-surface $-1 61.765800958281197 0 0 -1 0 0 0 0 1 forward_v I I I I #
coedge $-1 $414 $412 $416 $566 reversed $281 $-1 #
edge $-1 $427 -5.7099156361834851 $568 5.7099156361834851 $426 $646 forward 7 unknown #
vertex $-1 $566 $647 #
straight-curve $-1 -61.765800958281197 -27.102909614501137 0 0 0 -1 I I #
edge $-1 $564 -27.102909614501137 $568 27.102909614501137 $562 $648 forward 7 unknown #
straight-curve $-1 0 -27.102909614501137 -5.7099156361834851 -1 0 0 I I #
vertex $-1 $419 $649 #
straight-curve $-1 0 27.102909614501137 -5.7099156361834851 1 0 0 I I #
point $-1 61.765800958281197 27.102909614501137 -5.7099156361834851 #
point $-1 61.765800958281197 -27.102909614501137 -5.7099156361834851 #
straight-curve $-1 -61.765800958281197 0 5.7099156361834851 0 -1 0 I I #
point $-1 -61.765800958281197 27.102909614501137 5.7099156361834851 #
point $-1 -61.765800958281197 -27.102909614501137 5.7099156361834851 #
straight-curve $-1 61.765800958281197 -27.102909614501137 0 0 0 -1 I I #
straight-curve $-1 61.765800958281197 27.102909614501137 0 0 0 -1 I I #
plane-surface $-1 61.765800958281197 0 0 -1 0 0 0 0 1 forward_v I I I I #
coedge $-1 $650 $581 $443 $586 forward $437 $-1 #
coedge $-1 $444 $439 $650 $651 forward $300 $-1 #
edge $-1 $453 -2.7565106963332084 $652 2.7565106963332084 $451 $653 forward 7 unknown #
coedge $-1 $578 $654 $440 $582 reversed $437 $-1 #
edge $-1 $589 -61.765800958281197 $584 61.765800958281197 $581 $655 forward 7 unknown #
coedge $-1 $451 $441 $654 $656 forward $452 $-1 #
vertex $-1 $442 $657 #
straight-curve $-1 61.765800958281197 -29.859420310834345 -0.34767591674412279 0 1 0 I I #
edge $-1 $589 -1.5000000000000002 $587 1.5 $443 $658 forward 7 unknown #
vertex $-1 $445 $659 #
straight-curve $-1 -61.765800958281197 -29.859420310834345 -3.347675916744123 0 1 0 I I #
vertex $-1 $446 $660 #
straight-curve $-1 -61.765800958281197 -29.859420310834345 -0.34767591674412279 0 -1 0 I I #
point $-1 -61.765800958281197 -27.102909614501137 -3.347675916744123 #
straight-curve $-1 0 -27.102909614501137 -3.347675916744123 -1 0 0 I I #
point $-1 61.765800958281197 -27.102909614501137 -3.347675916744123 #
edge $-1 $595 79.503124257343714 $598 84.297687671435526 $458 $661 forward 7 unknown #
vertex $-1 $472 $662 #
straight-curve $-1 52.01478743074216 -21.589888221834716 5.7099156361834815 1 0 0 I I #
edge $-1 $598 -12.476419895087972 $469 -5.7505167584055172 $468 $663 forward 7 unknown #
vertex $-1 $597 $664 #
straight-curve $-1 -1.8576758725986053 -21.589888221834716 106.80260295617461 -0.51503806187062418 0 0.85716730853699208 I I #
point $-1 58.884936716591461 -21.589888221834716 5.7099156361834815 #
point $-1 61.765800958281197 -14.863985085152262 0.91535222209166989 #
straight-curve $-1 61.765800958281197 0 5.7099156361834851 0 1 0 I I #
vertex $-1 $475 $665 #
point $-1 59.547862332632199 -19.668201611354014 2.2621442121849213 #
vertex $-1 $479 $666 #
point $-1 59.547862332632199 -16.785671695632963 2.2621442121849213 #
edge $-1 $608 79.503124257343714 $611 84.297687671435526 $484 $667 forward 7 unknown #
vertex $-1 $498 $668 #
straight-curve $-1 52.01478743074216 -9.4166887627507521 5.7099156361834815 1 0 0 I I #
edge $-1 $611 -6.3898201655459896 $495 0.33608297113646568 $494 $669 forward 7 unknown #
vertex $-1 $610 $670 #
straight-curve $-1 -1.8576758725986053 -9.4166887627507521 106.80260295617461 -0.51503806187062418 0 0.85716730853699208 I I #
point $-1 58.884936716591461 -9.4166887627507521 5.7099156361834815 #
point $-1 61.765800958281197 -2.6907856260682967 0.91535222209166989 #
straight-curve $-1 61.765800958281197 0 5.7099156361834851 0 1 0 I I #
vertex $-1 $501 $671 #
point $-1 59.547862332632199 -7.4950021522700538 2.2621442121849213 #
vertex $-1 $505 $672 #
point $-1 59.547862332632199 -4.6124722365489994 2.2621442121849213 #
edge $-1 $621 79.503124257343714 $624 84.297687671435526 $510 $673 forward 7 unknown #
vertex $-1 $524 $674 #
straight-curve $-1 52.01478743074216 2.7565106963332111 5.7099156361834815 1 0 0 I I #
edge $-1 $624 -0.3032204360040085 $521 6.4226827006784468 $520 $675 forward 7 unknown #
vertex $-1 $623 $676 #
straight-curve $-1 -1.8576758725986053 2.7565106963332111 106.80260295617461 -0.51503806187062418 0 0.85716730853699208 I I #
point $-1 58.884936716591461 2.7565106963332111 5.7099156361834815 #
point $-1 61.765800958281197 9.4824138330156664 0.91535222209166989 #
straight-curve $-1 61.765800958281197 0 5.7099156361834851 0 1 0 I I #
vertex $-1 $527 $677 #
point $-1 59.547862332632199 4.6781973068139102 2.2621442121849213 #
vertex $-1 $531 $678 #
point $-1 59.547862332632199 7.5607272225349647 2.2621442121849213 #
edge $-1 $634 79.503124257343714 $637 84.297687671435526 $536 $679 forward 7 unknown #
vertex $-1 $550 $680 #
straight-curve $-1 52.01478743074216 14.92971015541718 5.7099156361834815 1 0 0 I I #
edge $-1 $637 5.7833792935379762 $547 12.509282430220431 $546 $681 forward 7 unknown #
vertex $-1 $636 $682 #
straight-curve $-1 -1.8576758725986053 14.92971015541718 106.80260295617461 -0.51503806187062418 0 0.85716730853699208 I I #
point $-1 58.884936716591461 14.92971015541718 5.7099156361834815 #
point $-1 61.765800958281197 21.655613292099634 0.91535222209166989 #
straight-curve $-1 61.765800958281197 0 5.7099156361834851 0 1 0 I I #
vertex $-1 $553 $683 #
point $-1 59.547862332632199 16.851396765897874 2.2621442121849213 #
vertex $-1 $557 $684 #
point $-1 59.547862332632199 19.733926681618932 2.2621442121849213 #
straight-curve $-1 -61.765800958281197 27.102909614501137 0 0 0 -1 I I #
point $-1 -61.765800958281197 -27.102909614501137 -5.7099156361834851 #
straight-curve $-1 -61.765800958281197 0 -5.7099156361834851 0 1 0 I I #
point $-1 -61.765800958281197 27.102909614501137 -5.7099156361834851 #
coedge $-1 $654 $578 $579 $651 reversed $437 $-1 #
edge $-1 $652 -61.765800958281197 $587 61.765800958281197 $650 $685 forward 7 unknown #
vertex $-1 $656 $686 #
straight-curve $-1 61.765800958281197 -29.859420310834345 -3.347675916744123 0 -1 0 I I #
coedge $-1 $581 $650 $583 $656 reversed $437 $-1 #
straight-curve $-1 0 -32.615931007167553 -0.34767591674412279 1 0 0 I I #
edge $-1 $584 -1.5000000000000002 $652 1.5 $583 $687 forward 7 unknown #
point $-1 61.765800958281197 -32.615931007167553 -0.34767591674412279 #
straight-curve $-1 -61.765800958281197 -32.615931007167553 -1.847675916744123 0 0 -1 I I #
point $-1 -61.765800958281197 -32.615931007167553 -3.347675916744123 #
point $-1 -61.765800958281197 -32.615931007167553 -0.34767591674412279 #
straight-curve $-1 61.765800958281197 -21.589888221834716 85.213039893527196 0 0 -1 I I #
point $-1 61.765800958281197 -21.589888221834716 5.7099156361834851 #
straight-curve $-1 61.765800958281197 -9.1134683267467445 0.91535222209164857 0 1 0 I I #
point $-1 61.765800958281197 -21.589888221834716 0.91535222209166989 #
point $-1 58.861759647428393 -19.668201611354014 2.4332088355181054 #
point $-1 58.861759647428393 -16.785671695632963 2.4332088355181054 #
straight-curve $-1 61.765800958281197 -9.4166887627507521 85.213039893527196 0 0 -1 I I #
point $-1 61.765800958281197 -9.4166887627507521 5.7099156361834851 #
straight-curve $-1 61.765800958281197 -3.0268685972047624 0.91535222209164857 0 1 0 I I #
point $-1 61.765800958281197 -9.4166887627507521 0.91535222209166989 #
point $-1 58.861759647428393 -7.4950021522700538 2.4332088355181054 #
point $-1 58.861759647428393 -4.6124722365489994 2.4332088355181054 #
straight-curve $-1 61.765800958281197 2.7565106963332111 85.213039893527196 0 0 -1 I I #
point $-1 61.765800958281197 2.7565106963332111 5.7099156361834851 #
straight-curve $-1 61.765800958281197 3.0597311323372196 0.91535222209164857 0 1 0 I I #
point $-1 61.765800958281197 2.7565106963332111 0.91535222209166989 #
point $-1 58.861759647428393 4.6781973068139102 2.4332088355181054 #
point $-1 58.861759647428393 7.5607272225349647 2.4332088355181054 #
straight-curve $-1 61.765800958281197 14.92971015541718 85.213039893527196 0 0 -1 I I #
point $-1 61.765800958281197 14.92971015541718 5.7099156361834851 #
straight-curve $-1 61.765800958281197 9.1463308618792034 0.91535222209164857 0 1 0 I I #
point $-1 61.765800958281197 14.92971015541718 0.91535222209166989 #
point $-1 58.861759647428393 16.851396765897874 2.4332088355181054 #
point $-1 58.861759647428393 19.733926681618932 2.4332088355181054 #
straight-curve $-1 0 -32.615931007167553 -3.347675916744123 -1 0 0 I I #
point $-1 61.765800958281197 -32.615931007167553 -3.347675916744123 #
straight-curve $-1 61.765800958281197 -32.615931007167553 -1.847675916744123 0 0 -1 I I #
End-of-ACIS-data 