500 0 6 0           
7 Unknown 11 ACIS 5.0 NT 24 Thu Mar 25 15:55:03 1999 
-1 9.9999999999999995e-007 1e-010 
body $-1 $6 $-1 $7 #
body $-1 $8 $-1 $9 #
body $-1 $10 $-1 $11 #
body $-1 $12 $-1 $13 #
body $-1 $14 $-1 $15 #
body $-1 $16 $-1 $17 #
lump $-1 $-1 $18 $0 #
transform $-1 1 0 0 0 1 0 0 0 1 42.426831873531299 22.475331594102101 9.8742067027562985 1 rotate no_reflect no_shear #
lump $-1 $-1 $19 $1 #
transform $-1 1 0 0 0 1 0 0 0 1 42.426831873531299 22.475331594102101 9.8742067027562985 1 rotate no_reflect no_shear #
lump $-1 $-1 $20 $2 #
transform $-1 1 0 0 0 1 0 0 0 1 42.426831873531299 22.475331594102101 9.8742067027562985 1 rotate no_reflect no_shear #
lump $-1 $-1 $21 $3 #
transform $-1 1 0 0 0 1 0 0 0 1 42.426831873531299 22.475331594102101 9.8742067027562985 1 rotate no_reflect no_shear #
lump $-1 $-1 $22 $4 #
transform $-1 1 0 0 0 1 0 0 0 1 42.426831873531299 22.475331594102101 9.8742067027562985 1 rotate no_reflect no_shear #
lump $-1 $-1 $23 $5 #
transform $-1 1 0 0 0 1 0 0 0 1 42.426831873531299 22.475331594102101 9.8742067027562985 1 rotate no_reflect no_shear #
shell $-1 $-1 $-1 $24 $-1 $6 #
shell $-1 $-1 $-1 $25 $-1 $8 #
shell $-1 $-1 $-1 $26 $-1 $10 #
shell $-1 $-1 $-1 $27 $-1 $12 #
shell $-1 $-1 $-1 $28 $-1 $14 #
shell $-1 $-1 $-1 $29 $-1 $16 #
face $-1 $30 $31 $18 $-1 $32 forward single #
face $-1 $33 $34 $19 $-1 $35 forward single #
face $-1 $36 $37 $20 $-1 $38 reversed single #
face $-1 $39 $40 $21 $-1 $41 forward single #
face $-1 $42 $43 $22 $-1 $44 reversed single #
face $-1 $45 $46 $23 $-1 $47 forward single #
face $-1 $48 $49 $18 $-1 $50 reversed single #
loop $-1 $-1 $51 $24 #
plane-surface $-1 0 0 9.8742067027562985 0 0 1 1 0 0 forward_v I I I I #
face $-1 $52 $53 $19 $-1 $54 reversed single #
loop $-1 $-1 $55 $25 #
plane-surface $-1 0 -17.568058490275021 -1.9678474060586915 0 0 1 1 0 0 forward_v I I I I #
face $-1 $56 $57 $20 $-1 $58 reversed single #
loop $-1 $-1 $59 $26 #
plane-surface $-1 -96.969716237037971 -2.487842720177488 65.160698260339842 0 1 0 -0.64278761758704617 0 0.76604443648966558 forward_v I I I I #
face $-1 $60 $61 $21 $-1 $62 forward single #
loop $-1 $63 $64 $27 #
cone-surface $-1 -35.639757787144745 1.2097151918247988 3.8272193403827766 0.64278761758704617 0 -0.76604443648966558 1.1490666547344983 0 0.96418142638056925 1 I I 0 1 1.5 forward I I I I #
face $-1 $65 $66 $22 $-1 $67 reversed single #
loop $-1 $-1 $68 $28 #
plane-surface $-1 -96.969716237037971 15.080215770097533 65.160698260339842 0 1 0 -0.64278761758704617 0 0.76604443648966558 forward_v I I I I #
face $-1 $69 $70 $23 $-1 $71 forward single #
loop $-1 $72 $73 $29 #
cone-surface $-1 -35.639757787144745 18.77777368209982 3.8272193403827766 0.64278761758704617 0 -0.76604443648966558 1.1490666547344983 0 0.96418142638056925 1 I I 0 1 1.5 forward I I I I #
face $-1 $74 $75 $18 $-1 $76 reversed single #
loop $-1 $-1 $77 $30 #
plane-surface $-1 0 0 -9.8742067027562985 0 0 1 1 0 0 forward_v I I I I #
coedge $-1 $78 $79 $80 $81 forward $31 $-1 #
face $-1 $82 $83 $19 $-1 $84 reversed single #
loop $-1 $-1 $85 $33 #
plane-surface $-1 0 -17.568058490275021 -7.4886882312339296 0 0 1 1 0 0 forward_v I I I I #
coedge $-1 $86 $87 $88 $89 reversed $34 $-1 #
face $-1 $90 $91 $20 $-1 $92 reversed single #
loop $-1 $-1 $93 $36 #
plane-surface $-1 -42.426831873531299 1.2097151918247988 0.15902123113771438 -0.64278761758704617 0 0.76604443648966558 0.76604443648966558 0 0.64278761758704617 forward_v I I I I #
coedge $-1 $94 $95 $96 $97 reversed $37 $-1 #
face $-1 $-1 $98 $21 $-1 $99 forward single #
loop $-1 $100 $101 $39 #
cone-surface $-1 -34.159646460576681 1.2097151918247988 2.0632913864513025 0.64278761758704617 0 -0.76604443648966558 0.57453332736724916 0 0.48209071319028463 1 I I -0.70710678118654757 0.70710678118654757 0.75 forward I I I I #
loop $-1 $-1 $102 $27 #
coedge $-1 $64 $64 $103 $104 reversed $40 $-1 #
face $-1 $105 $106 $22 $-1 $107 forward single #
loop $-1 $-1 $108 $42 #
plane-surface $-1 -42.426831873531299 18.77777368209982 0.15902123113771438 -0.64278761758704617 0 0.76604443648966558 0.76604443648966558 0 0.64278761758704617 forward_v I I I I #
coedge $-1 $109 $110 $111 $112 reversed $43 $-1 #
face $-1 $-1 $113 $23 $-1 $114 forward single #
loop $-1 $115 $116 $45 #
cone-surface $-1 -34.159646460576681 18.77777368209982 2.0632913864513025 0.64278761758704617 0 -0.76604443648966558 0.57453332736724916 0 0.48209071319028463 1 I I -0.70710678118654757 0.70710678118654757 0.75 forward I I I I #
loop $-1 $-1 $117 $29 #
coedge $-1 $73 $73 $118 $119 reversed $46 $-1 #
face $-1 $120 $121 $18 $-1 $122 reversed single #
loop $-1 $-1 $123 $48 #
plane-surface $-1 0 -22.475331594102101 0 0 1 0 0 0 1 forward_v I I I I #
coedge $-1 $124 $125 $126 $127 forward $49 $-1 #
coedge $-1 $128 $51 $129 $130 forward $31 $-1 #
coedge $-1 $51 $128 $131 $132 forward $31 $-1 #
coedge $-1 $133 $134 $51 $81 reversed $135 $-1 #
edge $-1 $136 -22.475331594102101 $137 22.475331594102101 $80 $138 forward 7 unknown #
face $-1 $139 $140 $19 $-1 $141 reversed single #
loop $-1 $-1 $142 $52 #
plane-surface $-1 0 -12.660785386447939 -4.7282678186463105 0 -1 0 0 0 -1 forward_v I I I I #
coedge $-1 $143 $144 $145 $146 reversed $53 $-1 #
coedge $-1 $147 $55 $148 $149 forward $34 $-1 #
coedge $-1 $55 $147 $150 $151 reversed $34 $-1 #
coedge $-1 $152 $153 $55 $89 forward $154 $-1 #
edge $-1 $155 3.8767561413104286 $156 13.691302348964591 $88 $157 forward 7 unknown #
face $-1 $158 $159 $20 $-1 $160 reversed single #
loop $-1 $-1 $161 $56 #
plane-surface $-1 -96.969716237037971 4.9072731038270856 65.160698260339842 0 -1 0 0.64278761758704617 0 -0.76604443648966558 forward_v I I I I #
coedge $-1 $162 $163 $164 $165 reversed $57 $-1 #
coedge $-1 $95 $59 $166 $167 reversed $37 $-1 #
coedge $-1 $59 $94 $162 $168 reversed $37 $-1 #
coedge $-1 $164 $169 $59 $97 forward $170 $-1 #
edge $-1 $171 6.0580262449876869 $172 17.636133191005225 $96 $173 forward 7 unknown #
loop $-1 $-1 $103 $60 #
plane-surface $-1 -42.426831873531299 1.2097151918247988 0.15902123113771438 -0.64278761758704617 0 0.76604443648966558 0.76604443648966558 0 0.64278761758704617 forward_v I I I I #
loop $-1 $-1 $174 $39 #
coedge $-1 $101 $101 $102 $175 reversed $61 $-1 #
coedge $-1 $102 $102 $101 $175 forward $63 $-1 #
coedge $-1 $103 $103 $64 $104 forward $98 $-1 #
edge $-1 $176 0 $176 6.2831853071796004 $103 $177 forward 7 unknown #
face $-1 $178 $179 $22 $-1 $180 reversed single #
loop $-1 $-1 $111 $65 #
plane-surface $-1 0 0 9.8742067027562985 0 0 1 1 0 0 forward_v I I I I #
coedge $-1 $181 $182 $183 $184 reversed $66 $-1 #
coedge $-1 $110 $68 $185 $186 reversed $43 $-1 #
coedge $-1 $68 $109 $181 $187 reversed $43 $-1 #
coedge $-1 $183 $188 $68 $112 forward $106 $-1 #
edge $-1 $189 6.0580262449876869 $190 17.636133191005225 $111 $191 forward 7 unknown #
loop $-1 $-1 $118 $69 #
plane-surface $-1 -42.426831873531299 18.77777368209982 0.15902123113771438 -0.64278761758704617 0 0.76604443648966558 0.76604443648966558 0 0.64278761758704617 forward_v I I I I #
loop $-1 $-1 $192 $45 #
coedge $-1 $116 $116 $117 $193 reversed $70 $-1 #
coedge $-1 $117 $117 $116 $193 forward $72 $-1 #
coedge $-1 $118 $118 $73 $119 forward $113 $-1 #
edge $-1 $194 0 $194 6.2831853071796004 $118 $195 forward 7 unknown #
face $-1 $196 $197 $18 $-1 $198 reversed single #
loop $-1 $-1 $199 $74 #
plane-surface $-1 -42.426831873531299 0 0 1 0 0 0 0 -1 forward_v I I I I #
coedge $-1 $200 $131 $201 $202 forward $75 $-1 #
coedge $-1 $203 $77 $200 $204 forward $49 $-1 #
coedge $-1 $77 $203 $205 $206 forward $49 $-1 #
coedge $-1 $134 $133 $77 $127 reversed $135 $-1 #
edge $-1 $207 -22.475331594102101 $208 22.475331594102101 $126 $209 forward 7 unknown #
coedge $-1 $79 $78 $210 $211 forward $31 $-1 #
coedge $-1 $212 $213 $78 $130 reversed $197 $-1 #
edge $-1 $137 -42.426831873531299 $214 42.426831873531299 $129 $215 forward 7 unknown #
coedge $-1 $123 $216 $79 $132 reversed $75 $-1 #
edge $-1 $217 -42.426831873531299 $136 42.426831873531299 $131 $218 forward 7 unknown #
coedge $-1 $126 $80 $216 $219 forward $135 $-1 #
coedge $-1 $80 $126 $212 $220 reversed $135 $-1 #
loop $-1 $-1 $133 $196 #
vertex $-1 $81 $221 #
vertex $-1 $81 $222 #
straight-curve $-1 42.426831873531299 0 9.8742067027562985 0 1 0 I I #
face $-1 $223 $224 $19 $-1 $225 reversed single #
loop $-1 $-1 $226 $82 #
plane-surface $-1 -42.426831873531299 0 0 1 0 0 0 0 -1 forward_v I I I I #
coedge $-1 $227 $148 $153 $228 reversed $83 $-1 #
coedge $-1 $229 $85 $230 $231 reversed $53 $-1 #
coedge $-1 $85 $229 $227 $232 forward $53 $-1 #
coedge $-1 $153 $152 $85 $146 forward $154 $-1 #
edge $-1 $233 -13.691302348964591 $234 -3.8767561413104286 $145 $235 forward 7 unknown #
coedge $-1 $87 $86 $226 $236 reversed $34 $-1 #
coedge $-1 $142 $237 $86 $149 reversed $83 $-1 #
edge $-1 $155 -42.426831873531299 $238 42.426831873531299 $148 $239 forward 7 unknown #
coedge $-1 $240 $241 $87 $151 forward $224 $-1 #
edge $-1 $156 -42.426831873531299 $242 42.426831873531299 $150 $243 forward 7 unknown #
coedge $-1 $145 $88 $241 $244 forward $154 $-1 #
coedge $-1 $88 $145 $142 $228 forward $154 $-1 #
loop $-1 $-1 $88 $223 #
vertex $-1 $89 $245 #
vertex $-1 $244 $246 #
straight-curve $-1 42.426831873531299 -8.7840292451375106 -1.9678474060586915 0 -1 0 I I #
face $-1 $-1 $170 $20 $-1 $247 forward single #
loop $-1 $-1 $248 $90 #
plane-surface $-1 -42.426831873531299 0 0 1 0 0 0 0 -1 forward_v I I I I #
coedge $-1 $249 $250 $251 $252 reversed $91 $-1 #
coedge $-1 $253 $93 $95 $168 forward $57 $-1 #
coedge $-1 $93 $253 $249 $254 forward $57 $-1 #
coedge $-1 $251 $96 $93 $165 forward $170 $-1 #
edge $-1 $172 -3.0927003160898874 $255 4.3024155079146862 $164 $256 forward 7 unknown #
coedge $-1 $257 $258 $94 $167 forward $159 $-1 #
edge $-1 $259 -32.421327899032207 $171 -22.706142427413624 $166 $260 forward 7 unknown #
edge $-1 $172 -15.11414533479708 $259 0 $95 $261 forward 7 unknown #
coedge $-1 $96 $251 $257 $262 forward $170 $-1 #
loop $-1 $-1 $251 $158 #
vertex $-1 $167 $263 #
vertex $-1 $97 $264 #
straight-curve $-1 -48.484858118518986 -2.487842720177488 9.8742067027562967 1 0 0 I I #
coedge $-1 $174 $174 $-1 $265 reversed $100 $-1 #
edge $-1 $266 0 $266 6.2831853071796004 $101 $267 forward 7 unknown #
vertex $-1 $104 $268 #
ellipse-curve $-1 -36.637778400522528 1.2097151918247988 5.0166139669470056 -0.64278761758704617 0 0.76604443648966558 1.1490666547344983 0 0.96418142638056925 1 I I #
face $-1 $-1 $269 $22 $-1 $270 reversed single #
loop $-1 $-1 $271 $105 #
plane-surface $-1 0 22.475331594102101 0 0 -1 0 0 0 -1 forward_v I I I I #
coedge $-1 $272 $108 $110 $187 forward $66 $-1 #
coedge $-1 $108 $272 $271 $273 reversed $66 $-1 #
coedge $-1 $274 $111 $108 $184 forward $106 $-1 #
edge $-1 $190 5.6913289290476232 $275 13.086444753052199 $183 $276 forward 7 unknown #
coedge $-1 $277 $278 $109 $186 forward $269 $-1 #
edge $-1 $279 -32.421327899032207 $189 -22.706142427413624 $185 $280 forward 7 unknown #
edge $-1 $190 -15.11414533479708 $279 0 $110 $281 forward 7 unknown #
coedge $-1 $111 $274 $277 $282 forward $106 $-1 #
vertex $-1 $186 $283 #
vertex $-1 $112 $284 #
straight-curve $-1 -48.484858118518986 15.080215770097533 9.8742067027562967 1 0 0 I I #
coedge $-1 $192 $192 $-1 $285 reversed $115 $-1 #
edge $-1 $286 0 $286 6.2831853071796004 $116 $287 forward 7 unknown #
vertex $-1 $119 $288 #
ellipse-curve $-1 -36.637778400522528 18.77777368209982 5.0166139669470056 -0.64278761758704617 0 0.76604443648966558 1.1490666547344983 0 0.96418142638056925 1 I I #
face $-1 $-1 $135 $18 $-1 $289 reversed single #
loop $-1 $-1 $212 $120 #
plane-surface $-1 0 22.475331594102101 0 0 -1 0 0 0 -1 forward_v I I I I #
coedge $-1 $290 $210 $213 $291 forward $121 $-1 #
coedge $-1 $216 $123 $124 $204 reversed $75 $-1 #
coedge $-1 $210 $290 $123 $202 reversed $121 $-1 #
edge $-1 $217 -9.8742067027562985 $292 9.8742067027562985 $201 $293 forward 7 unknown #
coedge $-1 $125 $124 $290 $294 forward $49 $-1 #
edge $-1 $208 -42.426831873531299 $292 42.426831873531299 $200 $295 forward 7 unknown #
coedge $-1 $213 $212 $125 $206 reversed $197 $-1 #
edge $-1 $296 -42.426831873531299 $207 42.426831873531299 $205 $297 forward 7 unknown #
vertex $-1 $127 $298 #
vertex $-1 $219 $299 #
straight-curve $-1 42.426831873531299 0 -9.8742067027562985 0 -1 0 I I #
coedge $-1 $199 $201 $128 $211 reversed $121 $-1 #
edge $-1 $214 -22.475331594102101 $217 22.475331594102101 $210 $300 forward 7 unknown #
coedge $-1 $205 $129 $134 $220 forward $197 $-1 #
coedge $-1 $129 $205 $199 $291 reversed $197 $-1 #
vertex $-1 $130 $301 #
straight-curve $-1 0 22.475331594102101 9.8742067027562985 -1 0 0 I I #
coedge $-1 $131 $200 $133 $219 reversed $75 $-1 #
vertex $-1 $211 $302 #
straight-curve $-1 0 -22.475331594102101 9.8742067027562985 1 0 0 I I #
edge $-1 $136 -9.8742067027562985 $208 9.8742067027562985 $133 $303 forward 7 unknown #
edge $-1 $137 -9.8742067027562985 $207 9.8742067027562985 $134 $304 forward 7 unknown #
point $-1 42.426831873531299 -22.475331594102101 9.8742067027562985 #
point $-1 42.426831873531299 22.475331594102101 9.8742067027562985 #
face $-1 $-1 $154 $19 $-1 $305 reversed single #
loop $-1 $-1 $150 $139 #
plane-surface $-1 0 -22.475331594102101 0 0 1 0 0 0 1 forward_v I I I I #
coedge $-1 $306 $307 $147 $236 forward $140 $-1 #
coedge $-1 $237 $142 $144 $232 reversed $83 $-1 #
edge $-1 $234 -5.1245543219107743 $155 0.3962865032644638 $153 $308 forward 7 unknown #
coedge $-1 $144 $143 $309 $310 reversed $53 $-1 #
coedge $-1 $241 $240 $143 $231 forward $224 $-1 #
edge $-1 $311 -42.426831873531299 $233 42.426831873531299 $230 $312 forward 7 unknown #
edge $-1 $313 -42.426831873531299 $234 42.426831873531299 $227 $314 forward 7 unknown #
vertex $-1 $231 $315 #
vertex $-1 $146 $316 #
straight-curve $-1 42.426831873531299 -8.7840292451375106 -7.4886882312339296 0 1 0 I I #
edge $-1 $242 -13.691302348964591 $238 -3.8767561413104286 $226 $317 forward 7 unknown #
coedge $-1 $148 $227 $306 $318 reversed $83 $-1 #
vertex $-1 $236 $319 #
straight-curve $-1 0 -12.660785386447939 -1.9678474060586915 -1 0 0 I I #
coedge $-1 $230 $150 $307 $320 forward $224 $-1 #
coedge $-1 $150 $230 $152 $244 reversed $224 $-1 #
vertex $-1 $320 $321 #
straight-curve $-1 0 -22.475331594102101 -1.9678474060586915 -1 0 0 I I #
edge $-1 $156 1.9678474060586915 $233 7.4886882312339296 $152 $322 forward 7 unknown #
point $-1 42.426831873531299 -12.660785386447939 -1.9678474060586915 #
point $-1 42.426831873531299 -22.475331594102101 -1.9678474060586915 #
plane-surface $-1 0 0 9.8742067027562985 0 0 1 1 0 0 forward_v I I I I #
coedge $-1 $258 $257 $250 $323 forward $159 $-1 #
coedge $-1 $250 $161 $163 $254 reversed $91 $-1 #
coedge $-1 $161 $249 $248 $323 reversed $91 $-1 #
coedge $-1 $169 $164 $161 $252 forward $170 $-1 #
edge $-1 $255 -17.636133191005225 $324 -6.0580262449876869 $251 $325 forward 7 unknown #
coedge $-1 $163 $162 $258 $326 reversed $57 $-1 #
edge $-1 $327 0 $255 15.11414533479708 $249 $328 forward 7 unknown #
vertex $-1 $165 $329 #
straight-curve $-1 -30.848724927513761 0.6048575959123994 9.8742067027562985 0 1 0 I I #
coedge $-1 $248 $166 $169 $262 reversed $159 $-1 #
coedge $-1 $166 $248 $253 $326 forward $159 $-1 #
vertex $-1 $167 $330 #
straight-curve $-1 -42.426831873531299 -2.487842720177488 32.580349130169921 0 0 1 I I #
straight-curve $-1 -42.426831873531299 -2.487842720177488 0.15902123113771438 -0.76604443648966558 0 -0.64278761758704617 I I #
edge $-1 $324 -4.9072731038270856 $171 2.487842720177488 $257 $331 forward 7 unknown #
point $-1 -42.426831873531299 -2.487842720177488 9.8742067027562985 #
point $-1 -30.848724927513761 -2.487842720177488 9.8742067027562985 #
edge $-1 $332 1 $332 0 $174 $-1 forward 7 unknown #
vertex $-1 $175 $333 #
ellipse-curve $-1 -34.641737173766963 1.2097151918247988 2.6378247138185515 -0.64278761758704617 0 0.76604443648966558 1.1490666547344983 0 0.96418142638056925 1 I I #
point $-1 -35.488711745788031 1.2097151918247988 5.9807953933275719 #
loop $-1 $-1 $185 $178 #
plane-surface $-1 -42.426831873531299 0 0 1 0 0 0 0 -1 forward_v I I I I #
coedge $-1 $334 $335 $182 $273 forward $179 $-1 #
coedge $-1 $182 $181 $278 $336 reversed $66 $-1 #
edge $-1 $275 1.0851654833490676 $337 16.199310818146149 $271 $338 forward 7 unknown #
coedge $-1 $188 $183 $335 $339 forward $106 $-1 #
vertex $-1 $339 $340 #
straight-curve $-1 -30.848724927513761 9.38888684104991 9.8742067027562985 0 1 0 I I #
coedge $-1 $341 $185 $188 $282 reversed $269 $-1 #
coedge $-1 $185 $341 $272 $336 forward $269 $-1 #
vertex $-1 $186 $342 #
straight-curve $-1 -42.426831873531299 15.080215770097533 32.580349130169921 0 0 1 I I #
straight-curve $-1 -42.426831873531299 15.080215770097533 0.15902123113771438 -0.76604443648966558 0 -0.64278761758704617 I I #
edge $-1 $343 -22.475331594102101 $189 -15.080215770097533 $277 $344 forward 7 unknown #
point $-1 -42.426831873531299 15.080215770097533 9.8742067027562985 #
point $-1 -30.848724927513761 15.080215770097533 9.8742067027562985 #
edge $-1 $345 1 $345 0 $192 $-1 forward 7 unknown #
vertex $-1 $193 $346 #
ellipse-curve $-1 -34.641737173766963 18.77777368209982 2.6378247138185515 -0.64278761758704617 0 0.76604443648966558 1.1490666547344983 0 0.96418142638056925 1 I I #
point $-1 -35.488711745788031 18.77777368209982 5.9807953933275719 #
plane-surface $-1 42.426831873531299 0 0 -1 0 0 0 0 1 forward_v I I I I #
coedge $-1 $201 $199 $203 $294 reversed $121 $-1 #
edge $-1 $214 -9.8742067027562985 $296 9.8742067027562985 $213 $347 forward 7 unknown #
vertex $-1 $294 $348 #
straight-curve $-1 -42.426831873531299 -22.475331594102101 0 0 0 -1 I I #
edge $-1 $292 -22.475331594102101 $296 22.475331594102101 $290 $349 forward 7 unknown #
straight-curve $-1 0 -22.475331594102101 -9.8742067027562985 -1 0 0 I I #
vertex $-1 $206 $350 #
straight-curve $-1 0 22.475331594102101 -9.8742067027562985 1 0 0 I I #
point $-1 42.426831873531299 22.475331594102101 -9.8742067027562985 #
point $-1 42.426831873531299 -22.475331594102101 -9.8742067027562985 #
straight-curve $-1 -42.426831873531299 0 9.8742067027562985 0 -1 0 I I #
point $-1 -42.426831873531299 22.475331594102101 9.8742067027562985 #
point $-1 -42.426831873531299 -22.475331594102101 9.8742067027562985 #
straight-curve $-1 42.426831873531299 -22.475331594102101 0 0 0 -1 I I #
straight-curve $-1 42.426831873531299 22.475331594102101 0 0 0 -1 I I #
plane-surface $-1 42.426831873531299 0 0 -1 0 0 0 0 1 forward_v I I I I #
coedge $-1 $309 $226 $237 $318 forward $140 $-1 #
coedge $-1 $226 $309 $240 $320 reversed $140 $-1 #
straight-curve $-1 42.426831873531299 -12.660785386447939 -2.3641339093231553 0 0 1 I I #
coedge $-1 $307 $306 $229 $310 forward $140 $-1 #
edge $-1 $313 3.8767561413104286 $311 13.691302348964591 $309 $351 forward 7 unknown #
vertex $-1 $231 $352 #
straight-curve $-1 0 -22.475331594102101 -7.4886882312339296 1 0 0 I I #
vertex $-1 $310 $353 #
straight-curve $-1 0 -12.660785386447939 -7.4886882312339296 1 0 0 I I #
point $-1 42.426831873531299 -22.475331594102101 -7.4886882312339296 #
point $-1 42.426831873531299 -12.660785386447939 -7.4886882312339296 #
straight-curve $-1 -42.426831873531299 -8.7840292451375106 -1.9678474060586915 0 1 0 I I #
edge $-1 $238 -0.3962865032644638 $313 5.1245543219107743 $306 $354 forward 7 unknown #
point $-1 -42.426831873531299 -12.660785386447939 -1.9678474060586915 #
edge $-1 $242 1.9678474060586915 $311 7.4886882312339296 $307 $355 forward 7 unknown #
point $-1 -42.426831873531299 -22.475331594102101 -1.9678474060586915 #
straight-curve $-1 42.426831873531299 -22.475331594102101 0 0 0 -1 I I #
edge $-1 $324 22.706142427413624 $327 32.421327899032207 $248 $356 forward 7 unknown #
vertex $-1 $262 $357 #
straight-curve $-1 -48.484858118518986 4.9072731038270856 9.8742067027562967 -1 0 0 I I #
edge $-1 $327 -4.3024155079146862 $259 3.0927003160898874 $258 $358 forward 7 unknown #
vertex $-1 $326 $359 #
straight-curve $-1 -42.426831873531299 4.9072731038270856 0.15902123113771438 0.76604443648966558 0 0.64278761758704617 I I #
point $-1 -30.848724927513761 4.9072731038270856 9.8742067027562985 #
point $-1 -42.426831873531299 -2.487842720177488 0.15902123113771438 #
straight-curve $-1 -42.426831873531299 0 9.8742067027562985 0 -1 0 I I #
vertex $-1 $265 $360 #
point $-1 -33.492670519032465 1.2097151918247988 3.602006140199121 #
coedge $-1 $335 $271 $341 $361 reversed $179 $-1 #
coedge $-1 $271 $334 $274 $339 reversed $179 $-1 #
edge $-1 $337 -13.086444753052199 $279 -5.6913289290476232 $278 $362 forward 7 unknown #
vertex $-1 $273 $363 #
straight-curve $-1 -30.017439946323588 22.475331594102101 10.57173763848594 -0.76604443648966558 0 -0.64278761758704617 I I #
edge $-1 $275 30.848724927513761 $343 42.426831873531299 $335 $364 forward 7 unknown #
point $-1 -30.848724927513761 22.475331594102109 9.8742067027562985 #
coedge $-1 $278 $277 $334 $361 forward $269 $-1 #
point $-1 -42.426831873531299 15.080215770097533 0.15902123113771438 #
vertex $-1 $339 $365 #
straight-curve $-1 -42.426831873531299 0 9.8742067027562985 0 -1 0 I I #
vertex $-1 $285 $366 #
point $-1 -33.492670519032465 18.77777368209982 3.602006140199121 #
straight-curve $-1 -42.426831873531299 22.475331594102101 0 0 0 -1 I I #
point $-1 -42.426831873531299 -22.475331594102101 -9.8742067027562985 #
straight-curve $-1 -42.426831873531299 0 -9.8742067027562985 0 1 0 I I #
point $-1 -42.426831873531299 22.475331594102101 -9.8742067027562985 #
straight-curve $-1 -42.426831873531299 -8.7840292451375106 -7.4886882312339296 0 -1 0 I I #
point $-1 -42.426831873531299 -22.475331594102101 -7.4886882312339296 #
point $-1 -42.426831873531299 -12.660785386447939 -7.4886882312339296 #
straight-curve $-1 -42.426831873531299 -12.660785386447939 -2.3641339093231553 0 0 -1 I I #
straight-curve $-1 -42.426831873531299 -22.475331594102101 0 0 0 -1 I I #
straight-curve $-1 -42.426831873531299 4.9072731038270856 32.580349130169921 0 0 -1 I I #
point $-1 -42.426831873531299 4.9072731038270856 9.8742067027562985 #
straight-curve $-1 -42.426831873531299 0.6048575959123994 0.15902123113771266 0 -1 0 I I #
point $-1 -42.426831873531299 4.9072731038270856 0.15902123113771438 #
point $-1 -33.6775557473864 1.2097151918247988 1.4887580590840535 #
edge $-1 $343 -9.8742067027562985 $337 -0.15902123113771438 $334 $367 forward 7 unknown #
straight-curve $-1 -42.426831873531299 9.38888684104991 0.15902123113771266 0 -1 0 I I #
point $-1 -42.426831873531299 22.475331594102109 0.15902123113771438 #
straight-curve $-1 0 22.475331594102101 9.8742067027562985 -1 0 0 I I #
point $-1 -42.426831873531299 22.475331594102101 9.8742067027562985 #
point $-1 -33.6775557473864 18.77777368209982 1.4887580590840535 #
straight-curve $-1 -42.426831873531299 22.475331594102101 0 0 0 -1 I I #
End-of-ACIS-data 