500 0 8 0           
7 Unknown 11 ACIS 5.0 NT 24 Fri Mar 26 20:10:04 1999 
-1 9.9999999999999995e-007 1e-010 
body $-1 $8 $-1 $9 #
body $-1 $10 $-1 $11 #
body $-1 $12 $-1 $13 #
body $-1 $14 $-1 $15 #
body $-1 $16 $-1 $17 #
body $-1 $18 $-1 $19 #
body $-1 $20 $-1 $21 #
body $-1 $22 $-1 $23 #
lump $-1 $-1 $24 $0 #
transform $-1 1 0 0 0 1 0 0 0 1 65.314493240150142 26.493561327030477 9.5818932637828542 1 rotate no_reflect no_shear #
lump $-1 $-1 $25 $1 #
transform $-1 1 0 0 0 1 0 0 0 1 65.314493240150142 26.493561327030477 9.5818932637828542 1 rotate no_reflect no_shear #
lump $-1 $-1 $26 $2 #
transform $-1 1 0 0 0 1 0 0 0 1 65.314493240150142 26.493561327030477 9.5818932637828542 1 rotate no_reflect no_shear #
lump $-1 $-1 $27 $3 #
transform $-1 1 0 0 0 1 0 0 0 1 65.314493240150142 26.493561327030477 9.5818932637828542 1 rotate no_reflect no_shear #
lump $-1 $-1 $28 $4 #
transform $-1 1 0 0 0 1 0 0 0 1 65.314493240150142 26.493561327030477 9.5818932637828542 1 rotate no_reflect no_shear #
lump $-1 $-1 $29 $5 #
transform $-1 1 0 0 0 1 0 0 0 1 65.314493240150142 26.493561327030477 9.5818932637828542 1 rotate no_reflect no_shear #
lump $-1 $-1 $30 $6 #
transform $-1 1 0 0 0 1 0 0 0 1 65.314493240150142 26.493561327030477 9.5818932637828542 1 rotate no_reflect no_shear #
lump $-1 $-1 $31 $7 #
transform $-1 1 0 0 0 1 0 0 0 1 65.314493240150142 26.493561327030477 9.5818932637828542 1 rotate no_reflect no_shear #
shell $-1 $-1 $-1 $32 $-1 $8 #
shell $-1 $-1 $-1 $33 $-1 $10 #
shell $-1 $-1 $-1 $34 $-1 $12 #
shell $-1 $-1 $-1 $35 $-1 $14 #
shell $-1 $-1 $-1 $36 $-1 $16 #
shell $-1 $-1 $-1 $37 $-1 $18 #
shell $-1 $-1 $-1 $38 $-1 $20 #
shell $-1 $-1 $-1 $39 $-1 $22 #
face $-1 $40 $41 $24 $-1 $42 forward single #
face $-1 $43 $44 $25 $-1 $45 reversed single #
face $-1 $46 $47 $26 $-1 $48 reversed single #
face $-1 $49 $50 $27 $-1 $51 reversed single #
face $-1 $52 $53 $28 $-1 $54 forward single #
face $-1 $55 $56 $29 $-1 $57 reversed single #
face $-1 $58 $59 $30 $-1 $60 forward single #
face $-1 $61 $62 $31 $-1 $63 forward single #
face $-1 $64 $65 $24 $-1 $66 reversed single #
loop $-1 $-1 $67 $32 #
plane-surface $-1 0 0 9.5818932637828542 0 0 1 1 0 0 forward_v I I I I #
face $-1 $68 $69 $25 $-1 $70 reversed single #
loop $-1 $-1 $71 $33 #
plane-surface $-1 -63.073853220697131 -23.248160305364998 0 1 0 0 0 0 -1 forward_v I I I I #
face $-1 $72 $73 $26 $-1 $74 reversed single #
loop $-1 $-1 $75 $34 #
plane-surface $-1 -61.515900013462542 20.002759283699518 0 0 1 0 0 0 1 forward_v I I I I #
face $-1 $76 $77 $27 $-1 $78 reversed single #
loop $-1 $-1 $79 $35 #
plane-surface $-1 94.213774026096672 9.3597044281212316 187.40947547181821 0 -1 0 -0.80901700255871778 0 -0.5877852410284794 forward_v I I I I #
face $-1 $80 $81 $28 $-1 $82 forward single #
loop $-1 $83 $84 $36 #
cone-surface $-1 62.940433149887234 6.2955978742842333 6.7627966406388662 -0.80901700255871778 0 -0.5877852410284794 0.5877852410284794 0 -0.80901700255871778 1 I I 0 1 1 forward I I I I #
face $-1 $85 $86 $29 $-1 $87 reversed single #
loop $-1 $-1 $88 $37 #
plane-surface $-1 -132.59339585938417 -6.7471737053704839 116.90284579688171 0 1 0 -0.51503808176128008 0 0.85716729658548041 forward_v I I I I #
face $-1 $89 $90 $30 $-1 $91 forward single #
loop $-1 $92 $93 $38 #
cone-surface $-1 -61.047951391595333 -3.7517512200778 6.5959702668130644 0.51503808176128008 0 -0.85716729658548041 0.4285836482927402 0 0.25751904088064004 1 I I 0 1 0.5 forward I I I I #
face $-1 $94 $95 $31 $-1 $96 forward single #
loop $-1 $97 $98 $39 #
cone-surface $-1 -61.047951391595333 0.74138250786122484 6.5959702668130644 0.51503808176128008 0 -0.85716729658548041 0.4285836482927402 0 0.25751904088064004 1 I I 0 1 0.5 forward I I I I #
face $-1 $99 $100 $24 $-1 $101 reversed single #
loop $-1 $-1 $102 $40 #
plane-surface $-1 0 0 -9.5818932637828542 0 0 1 1 0 0 forward_v I I I I #
coedge $-1 $103 $104 $105 $106 forward $41 $-1 #
face $-1 $107 $108 $25 $-1 $109 reversed single #
loop $-1 $-1 $110 $43 #
plane-surface $-1 -61.515900013462542 -20.002759283699518 0 0 -1 0 0 0 -1 forward_v I I I I #
coedge $-1 $111 $112 $113 $114 forward $44 $-1 #
face $-1 $115 $116 $26 $-1 $117 reversed single #
loop $-1 $-1 $118 $46 #
plane-surface $-1 -63.073853220697131 23.248160305364998 0 1 0 0 0 0 -1 forward_v I I I I #
coedge $-1 $119 $120 $121 $122 forward $47 $-1 #
face $-1 $123 $124 $27 $-1 $125 reversed single #
loop $-1 $-1 $126 $49 #
plane-surface $-1 -11.467297063479137 6.2955978742842333 110.62768516818893 0.80901700255871778 0 0.5877852410284794 0.5877852410284794 0 -0.80901700255871778 forward_v I I I I #
coedge $-1 $127 $128 $129 $130 reversed $50 $-1 #
face $-1 $-1 $131 $28 $-1 $132 forward single #
loop $-1 $133 $134 $52 #
cone-surface $-1 61.845728237644778 6.2955978742842333 5.9674469895655076 -0.80901700255871778 0 -0.5877852410284794 0.2938926205142397 0 -0.40450850127935889 1 I I -0.70710678118654746 0.70710678118654746 0.5 forward I I I I #
loop $-1 $-1 $135 $36 #
coedge $-1 $84 $84 $136 $137 reversed $53 $-1 #
face $-1 $138 $139 $29 $-1 $140 reversed single #
loop $-1 $-1 $141 $55 #
plane-surface $-1 -65.314493240150128 -1.5051843561082876 4.9319505998614375 -0.51503808176128008 0 0.85716729658548041 0.85716729658548041 0 0.51503808176128008 forward_v I I I I #
coedge $-1 $142 $143 $144 $145 reversed $56 $-1 #
face $-1 $-1 $146 $30 $-1 $147 forward single #
loop $-1 $148 $149 $58 #
cone-surface $-1 -60.522052037380149 -3.7517512200778 5.7207267776576032 0.51503808176128008 0 -0.85716729658548041 0.2142918241463701 0 0.12875952044032002 1 I I -0.70710678118654746 0.70710678118654746 0.25 forward I I I I #
loop $-1 $-1 $150 $38 #
coedge $-1 $93 $93 $151 $152 reversed $59 $-1 #
face $-1 $-1 $153 $31 $-1 $154 forward single #
loop $-1 $155 $156 $61 #
cone-surface $-1 -60.522052037380149 0.74138250786122484 5.7207267776576032 0.51503808176128008 0 -0.85716729658548041 0.2142918241463701 0 0.12875952044032002 1 I I -0.70710678118654746 0.70710678118654746 0.25 forward I I I I #
loop $-1 $-1 $157 $39 #
coedge $-1 $98 $98 $158 $159 reversed $62 $-1 #
face $-1 $160 $161 $24 $-1 $162 reversed single #
loop $-1 $-1 $163 $64 #
plane-surface $-1 0 -26.493561327030477 0 0 1 0 0 0 1 forward_v I I I I #
coedge $-1 $164 $165 $166 $167 forward $65 $-1 #
coedge $-1 $168 $67 $169 $170 forward $41 $-1 #
coedge $-1 $67 $168 $171 $172 forward $41 $-1 #
coedge $-1 $173 $174 $67 $106 reversed $175 $-1 #
edge $-1 $176 -26.493561327030477 $177 26.493561327030477 $105 $178 forward 7 unknown #
face $-1 $179 $180 $25 $-1 $181 forward single #
loop $-1 $-1 $182 $68 #
plane-surface $-1 -59.957946806227952 -23.248160305364998 0 -1 0 0 0 0 1 forward_v I I I I #
coedge $-1 $183 $184 $185 $186 forward $69 $-1 #
coedge $-1 $187 $71 $188 $189 reversed $44 $-1 #
coedge $-1 $71 $187 $190 $191 reversed $44 $-1 #
coedge $-1 $184 $183 $71 $114 reversed $69 $-1 #
edge $-1 $192 -9.5818932637828542 $193 9.5818932637828542 $113 $194 forward 7 unknown #
face $-1 $195 $196 $26 $-1 $197 reversed single #
loop $-1 $-1 $198 $72 #
plane-surface $-1 -59.957946806227952 23.248160305364998 0 -1 0 0 0 0 1 forward_v I I I I #
coedge $-1 $199 $200 $201 $202 reversed $73 $-1 #
coedge $-1 $203 $75 $204 $205 reversed $47 $-1 #
coedge $-1 $75 $203 $206 $207 reversed $47 $-1 #
coedge $-1 $200 $199 $75 $122 reversed $73 $-1 #
edge $-1 $208 -9.5818932637828542 $209 9.5818932637828542 $121 $210 forward 7 unknown #
face $-1 $211 $212 $27 $-1 $213 forward single #
loop $-1 $-1 $214 $76 #
plane-surface $-1 94.213774026096672 3.2314913204472351 187.40947547181821 0 1 0 0.80901700255871778 0 0.5877852410284794 forward_v I I I I #
coedge $-1 $215 $216 $217 $218 reversed $77 $-1 #
coedge $-1 $128 $79 $219 $220 reversed $50 $-1 #
coedge $-1 $79 $127 $215 $221 reversed $50 $-1 #
coedge $-1 $217 $222 $79 $130 forward $212 $-1 #
edge $-1 $223 -18.207606227101806 $224 -14.83987886850214 $129 $225 forward 7 unknown #
loop $-1 $-1 $136 $80 #
plane-surface $-1 -11.467297063479137 6.2955978742842333 110.62768516818893 0.80901700255871778 0 0.5877852410284794 0.5877852410284794 0 -0.80901700255871778 forward_v I I I I #
loop $-1 $-1 $226 $52 #
coedge $-1 $134 $134 $135 $227 reversed $81 $-1 #
coedge $-1 $135 $135 $134 $227 forward $83 $-1 #
coedge $-1 $136 $136 $84 $137 forward $131 $-1 #
edge $-1 $228 0 $228 6.2831853071796004 $136 $229 forward 7 unknown #
face $-1 $230 $231 $29 $-1 $232 reversed single #
loop $-1 $-1 $233 $85 #
plane-surface $-1 -132.59339585938417 3.7368049931539087 116.90284579688171 0 -1 0 0.51503808176128008 0 -0.85716729658548041 forward_v I I I I #
coedge $-1 $234 $235 $236 $237 reversed $86 $-1 #
coedge $-1 $143 $88 $238 $239 reversed $56 $-1 #
coedge $-1 $88 $142 $234 $240 reversed $56 $-1 #
coedge $-1 $236 $241 $88 $145 forward $242 $-1 #
edge $-1 $243 0.98220468954194473 $244 8.7210087191018815 $144 $245 forward 7 unknown #
loop $-1 $-1 $151 $89 #
plane-surface $-1 -65.314493240150128 -1.5051843561082876 4.9319505998614375 -0.51503808176128008 0 0.85716729658548041 0.85716729658548041 0 0.51503808176128008 forward_v I I I I #
loop $-1 $-1 $246 $58 #
coedge $-1 $149 $149 $150 $247 reversed $90 $-1 #
coedge $-1 $150 $150 $149 $247 forward $92 $-1 #
coedge $-1 $151 $151 $93 $152 forward $146 $-1 #
edge $-1 $248 0 $248 6.2831853071796004 $151 $249 forward 7 unknown #
loop $-1 $-1 $158 $94 #
plane-surface $-1 -65.314493240150128 -1.5051843561082876 4.9319505998614375 -0.51503808176128008 0 0.85716729658548041 0.85716729658548041 0 0.51503808176128008 forward_v I I I I #
loop $-1 $-1 $250 $61 #
coedge $-1 $156 $156 $157 $251 reversed $95 $-1 #
coedge $-1 $157 $157 $156 $251 forward $97 $-1 #
coedge $-1 $158 $158 $98 $159 forward $153 $-1 #
edge $-1 $252 0 $252 6.2831853071796004 $158 $253 forward 7 unknown #
face $-1 $254 $255 $24 $-1 $256 reversed single #
loop $-1 $-1 $257 $99 #
plane-surface $-1 -65.314493240150142 0 0 1 0 0 0 0 -1 forward_v I I I I #
coedge $-1 $258 $171 $259 $260 forward $100 $-1 #
coedge $-1 $261 $102 $258 $262 forward $65 $-1 #
coedge $-1 $102 $261 $263 $264 forward $65 $-1 #
coedge $-1 $174 $173 $102 $167 reversed $175 $-1 #
edge $-1 $265 -26.493561327030477 $266 26.493561327030477 $166 $267 forward 7 unknown #
coedge $-1 $104 $103 $268 $269 forward $41 $-1 #
coedge $-1 $270 $271 $103 $170 reversed $255 $-1 #
edge $-1 $177 -65.314493240150142 $272 65.314493240150142 $169 $273 forward 7 unknown #
coedge $-1 $163 $274 $104 $172 reversed $100 $-1 #
edge $-1 $275 -65.314493240150142 $176 65.314493240150142 $171 $276 forward 7 unknown #
coedge $-1 $166 $105 $274 $277 forward $175 $-1 #
coedge $-1 $105 $166 $270 $278 reversed $175 $-1 #
loop $-1 $-1 $173 $254 #
vertex $-1 $106 $279 #
vertex $-1 $106 $280 #
straight-curve $-1 65.314493240150142 0 9.5818932637828542 0 1 0 I I #
face $-1 $281 $282 $25 $-1 $283 reversed single #
loop $-1 $-1 $284 $107 #
plane-surface $-1 0 0 9.5818932637828542 0 0 1 1 0 0 forward_v I I I I #
coedge $-1 $285 $286 $287 $288 reversed $108 $-1 #
coedge $-1 $113 $110 $289 $290 reversed $69 $-1 #
coedge $-1 $110 $113 $291 $292 reversed $69 $-1 #
coedge $-1 $286 $285 $110 $186 reversed $108 $-1 #
edge $-1 $293 -9.5818932637828542 $294 9.5818932637828542 $185 $295 forward 7 unknown #
coedge $-1 $112 $111 $296 $297 reversed $44 $-1 #
coedge $-1 $289 $298 $111 $189 forward $282 $-1 #
edge $-1 $299 -14.869481174347978 $193 -8.3786791310170194 $188 $300 forward 7 unknown #
coedge $-1 $301 $291 $112 $191 forward $180 $-1 #
edge $-1 $192 8.3786791310170194 $302 14.869481174347978 $190 $303 forward 7 unknown #
vertex $-1 $191 $304 #
vertex $-1 $189 $305 #
straight-curve $-1 -63.073853220697131 -20.002759283699518 0 0 0 -1 I I #
face $-1 $306 $307 $26 $-1 $308 forward single #
loop $-1 $-1 $309 $115 #
plane-surface $-1 0 0 -9.5818932637828542 0 0 1 1 0 0 forward_v I I I I #
coedge $-1 $310 $311 $203 $312 forward $116 $-1 #
coedge $-1 $121 $118 $313 $314 reversed $73 $-1 #
coedge $-1 $118 $121 $315 $316 reversed $73 $-1 #
coedge $-1 $317 $318 $118 $202 forward $319 $-1 #
edge $-1 $320 -9.5818932637828542 $321 9.5818932637828542 $201 $322 forward 7 unknown #
coedge $-1 $120 $119 $198 $312 reversed $47 $-1 #
coedge $-1 $313 $309 $119 $205 forward $196 $-1 #
edge $-1 $323 29.199996799496681 $209 32.315903213965861 $204 $324 forward 7 unknown #
coedge $-1 $325 $315 $120 $207 forward $307 $-1 #
edge $-1 $208 -32.315903213965861 $326 -29.199996799496681 $206 $327 forward 7 unknown #
vertex $-1 $207 $328 #
vertex $-1 $205 $329 #
straight-curve $-1 -63.073853220697131 20.002759283699518 0 0 0 -1 I I #
face $-1 $-1 $330 $27 $-1 $331 reversed single #
loop $-1 $-1 $129 $123 #
plane-surface $-1 0 0 9.5818932637828542 0 0 1 1 0 0 forward_v I I I I #
coedge $-1 $332 $333 $334 $335 reversed $124 $-1 #
coedge $-1 $336 $126 $128 $221 forward $77 $-1 #
coedge $-1 $126 $336 $332 $337 forward $77 $-1 #
coedge $-1 $334 $129 $126 $218 forward $212 $-1 #
edge $-1 $224 -6.2119054909791149 $338 -0.083692383305118412 $217 $339 forward 7 unknown #
coedge $-1 $340 $341 $127 $220 forward $330 $-1 #
edge $-1 $342 -88.758123657295982 $223 -84.122844472126246 $219 $343 forward 7 unknown #
edge $-1 $224 124.89946637069875 $342 130.62898648030028 $128 $344 forward 7 unknown #
coedge $-1 $129 $334 $340 $345 forward $212 $-1 #
vertex $-1 $130 $346 #
vertex $-1 $130 $347 #
straight-curve $-1 47.106887013048336 9.3597044281212316 9.5818932637828595 -1 0 0 I I #
coedge $-1 $226 $226 $-1 $348 reversed $133 $-1 #
edge $-1 $349 0 $349 6.2831853071796004 $134 $350 forward 7 unknown #
vertex $-1 $137 $351 #
ellipse-curve $-1 63.630629560850331 6.2955978742842333 7.264253671197987 0.80901700255871778 0 0.5877852410284794 0.5877852410284794 0 -0.80901700255871778 1 I I #
face $-1 $-1 $242 $29 $-1 $352 forward single #
loop $-1 $-1 $353 $138 #
plane-surface $-1 -65.314493240150142 0 0 1 0 0 0 0 -1 forward_v I I I I #
coedge $-1 $354 $355 $356 $357 reversed $139 $-1 #
coedge $-1 $358 $141 $143 $240 forward $86 $-1 #
coedge $-1 $141 $358 $354 $359 forward $86 $-1 #
coedge $-1 $356 $144 $141 $237 forward $242 $-1 #
edge $-1 $244 -5.9945815273163401 $360 4.4893971712080525 $236 $361 forward 7 unknown #
coedge $-1 $362 $363 $142 $239 forward $231 $-1 #
edge $-1 $364 -53.519472298579423 $243 -48.869529634658001 $238 $365 forward 7 unknown #
edge $-1 $244 -9.0283472787487256 $364 1.6755537013839907e-014 $143 $366 forward 7 unknown #
coedge $-1 $144 $356 $362 $367 forward $242 $-1 #
loop $-1 $-1 $356 $230 #
vertex $-1 $239 $368 #
vertex $-1 $145 $369 #
straight-curve $-1 -66.296697929692087 -6.7471737053704839 9.5818932637828524 1 0 0 I I #
coedge $-1 $246 $246 $-1 $370 reversed $148 $-1 #
edge $-1 $371 0 $371 6.2831853071796004 $149 $372 forward 7 unknown #
vertex $-1 $152 $373 #
ellipse-curve $-1 -61.445091225370184 -3.7517512200778 7.2569219318221352 -0.51503808176128008 0 0.85716729658548041 0.4285836482927402 0 0.25751904088064004 1 I I #
coedge $-1 $250 $250 $-1 $374 reversed $155 $-1 #
edge $-1 $375 0 $375 6.2831853071796004 $156 $376 forward 7 unknown #
vertex $-1 $159 $377 #
ellipse-curve $-1 -61.445091225370184 0.74138250786122484 7.2569219318221352 -0.51503808176128008 0 0.85716729658548041 0.4285836482927402 0 0.25751904088064004 1 I I #
face $-1 $-1 $175 $24 $-1 $378 reversed single #
loop $-1 $-1 $270 $160 #
plane-surface $-1 0 26.493561327030477 0 0 -1 0 0 0 -1 forward_v I I I I #
coedge $-1 $379 $268 $271 $380 forward $161 $-1 #
coedge $-1 $274 $163 $164 $262 reversed $100 $-1 #
coedge $-1 $268 $379 $163 $260 reversed $161 $-1 #
edge $-1 $275 -9.5818932637828542 $381 9.5818932637828542 $259 $382 forward 7 unknown #
coedge $-1 $165 $164 $379 $383 forward $65 $-1 #
edge $-1 $266 -65.314493240150142 $381 65.314493240150142 $258 $384 forward 7 unknown #
coedge $-1 $271 $270 $165 $264 reversed $255 $-1 #
edge $-1 $385 -65.314493240150142 $265 65.314493240150142 $263 $386 forward 7 unknown #
vertex $-1 $167 $387 #
vertex $-1 $277 $388 #
straight-curve $-1 65.314493240150142 0 -9.5818932637828542 0 -1 0 I I #
coedge $-1 $257 $259 $168 $269 reversed $161 $-1 #
edge $-1 $272 -26.493561327030477 $275 26.493561327030477 $268 $389 forward 7 unknown #
coedge $-1 $263 $169 $174 $278 forward $255 $-1 #
coedge $-1 $169 $263 $257 $380 reversed $255 $-1 #
vertex $-1 $170 $390 #
straight-curve $-1 0 26.493561327030477 9.5818932637828542 -1 0 0 I I #
coedge $-1 $171 $258 $173 $277 reversed $100 $-1 #
vertex $-1 $269 $391 #
straight-curve $-1 0 -26.493561327030477 9.5818932637828542 1 0 0 I I #
edge $-1 $176 -9.5818932637828542 $266 9.5818932637828542 $173 $392 forward 7 unknown #
edge $-1 $177 -9.5818932637828542 $265 9.5818932637828542 $174 $393 forward 7 unknown #
point $-1 65.314493240150142 -26.493561327030477 9.5818932637828542 #
point $-1 65.314493240150142 26.493561327030477 9.5818932637828542 #
face $-1 $-1 $394 $25 $-1 $395 reversed single #
loop $-1 $-1 $396 $179 #
plane-surface $-1 0 0 -9.5818932637828542 0 0 1 1 0 0 forward_v I I I I #
coedge $-1 $291 $301 $286 $397 forward $180 $-1 #
coedge $-1 $185 $182 $396 $398 reversed $108 $-1 #
coedge $-1 $182 $185 $284 $397 reversed $108 $-1 #
coedge $-1 $399 $400 $182 $288 forward $394 $-1 #
edge $-1 $401 -9.5818932637828542 $402 9.5818932637828542 $287 $403 forward 7 unknown #
coedge $-1 $396 $188 $183 $290 forward $282 $-1 #
edge $-1 $193 -32.315903213965861 $294 -29.199996799496681 $289 $404 forward 7 unknown #
coedge $-1 $190 $284 $184 $292 forward $180 $-1 #
edge $-1 $293 29.199996799496681 $192 32.315903213965861 $291 $405 forward 7 unknown #
vertex $-1 $292 $406 #
vertex $-1 $290 $407 #
straight-curve $-1 -59.957946806227952 -20.002759283699518 0 0 0 -1 I I #
coedge $-1 $400 $399 $187 $297 forward $394 $-1 #
edge $-1 $302 -9.5818932637828542 $299 9.5818932637828542 $296 $408 forward 7 unknown #
coedge $-1 $188 $396 $400 $409 forward $282 $-1 #
vertex $-1 $189 $410 #
straight-curve $-1 -63.073853220697131 -11.624080152682499 -9.5818932637828542 0 1 0 I I #
coedge $-1 $284 $190 $399 $411 forward $180 $-1 #
vertex $-1 $411 $412 #
straight-curve $-1 -63.073853220697131 -11.624080152682499 9.5818932637828542 0 -1 0 I I #
point $-1 -63.073853220697131 -20.002759283699518 9.5818932637828542 #
point $-1 -63.073853220697131 -20.002759283699518 -9.5818932637828542 #
face $-1 $-1 $319 $26 $-1 $413 reversed single #
loop $-1 $-1 $325 $195 #
plane-surface $-1 0 0 9.5818932637828542 0 0 1 1 0 0 forward_v I I I I #
coedge $-1 $204 $414 $310 $415 forward $196 $-1 #
coedge $-1 $416 $198 $309 $415 reversed $116 $-1 #
coedge $-1 $198 $416 $325 $417 reversed $116 $-1 #
edge $-1 $326 -9.5818932637828542 $323 9.5818932637828542 $198 $418 forward 7 unknown #
coedge $-1 $414 $204 $199 $314 forward $196 $-1 #
edge $-1 $209 8.3786791310170194 $320 14.869481174347978 $313 $419 forward 7 unknown #
coedge $-1 $206 $420 $200 $316 forward $307 $-1 #
edge $-1 $321 -14.869481174347978 $208 -8.3786791310170194 $315 $421 forward 7 unknown #
coedge $-1 $422 $201 $420 $423 reversed $319 $-1 #
coedge $-1 $201 $422 $414 $424 reversed $319 $-1 #
loop $-1 $-1 $422 $306 #
vertex $-1 $424 $425 #
vertex $-1 $202 $426 #
straight-curve $-1 -63.073853220697131 26.493561327030477 0 0 0 1 I I #
vertex $-1 $205 $427 #
straight-curve $-1 -30.757950006731271 20.002759283699518 -9.5818932637828542 -1 0 0 I I #
coedge $-1 $420 $206 $311 $417 forward $307 $-1 #
vertex $-1 $207 $428 #
straight-curve $-1 -30.757950006731271 20.002759283699518 9.5818932637828542 1 0 0 I I #
point $-1 -63.073853220697131 20.002759283699518 9.5818932637828542 #
point $-1 -63.073853220697131 20.002759283699518 -9.5818932637828542 #
loop $-1 $-1 $219 $211 #
plane-surface $-1 65.314493240150142 0 0 -1 0 0 0 0 1 forward_v I I I I #
coedge $-1 $333 $214 $216 $337 reversed $124 $-1 #
coedge $-1 $214 $332 $429 $430 reversed $124 $-1 #
coedge $-1 $222 $217 $214 $335 forward $212 $-1 #
edge $-1 $338 14.83987886850214 $431 18.207606227101806 $334 $432 forward 7 unknown #
coedge $-1 $216 $215 $341 $433 reversed $77 $-1 #
edge $-1 $434 -130.62898648030028 $338 -124.89946637069875 $332 $435 forward 7 unknown #
vertex $-1 $218 $436 #
straight-curve $-1 61.946765881550476 3.1477989371421167 9.5818932637828595 0 -1 0 I I #
coedge $-1 $429 $219 $222 $345 reversed $330 $-1 #
coedge $-1 $219 $429 $336 $433 forward $330 $-1 #
vertex $-1 $220 $437 #
straight-curve $-1 65.314493240150142 9.3597044281212316 93.704737735909106 0 0 1 I I #
straight-curve $-1 -11.467297063479137 9.3597044281212316 110.62768516818893 0.5877852410284794 0 -0.80901700255871778 I I #
edge $-1 $431 3.2314913204472351 $223 9.3597044281212316 $340 $438 forward 7 unknown #
point $-1 65.314493240150142 9.3597044281212316 9.5818932637828542 #
point $-1 61.946765881550476 9.3597044281212316 9.5818932637828595 #
edge $-1 $439 1 $439 0 $226 $-1 forward 7 unknown #
vertex $-1 $227 $440 #
ellipse-curve $-1 62.250236738924137 6.2955978742842333 6.2613396100797472 0.80901700255871778 0 0.5877852410284794 0.5877852410284794 0 -0.80901700255871778 1 I I #
point $-1 64.218414801878808 6.2955978742842333 6.4552366686392659 #
plane-surface $-1 0 0 9.5818932637828542 0 0 1 1 0 0 forward_v I I I I #
coedge $-1 $363 $362 $355 $441 forward $231 $-1 #
coedge $-1 $355 $233 $235 $359 reversed $139 $-1 #
coedge $-1 $233 $354 $353 $441 reversed $139 $-1 #
coedge $-1 $241 $236 $233 $357 forward $242 $-1 #
edge $-1 $360 -8.7210087191018815 $442 -0.98220468954194473 $356 $443 forward 7 unknown #
coedge $-1 $235 $234 $363 $444 reversed $86 $-1 #
edge $-1 $445 -1.6755537013839907e-014 $360 9.0283472787487256 $354 $446 forward 7 unknown #
vertex $-1 $237 $447 #
straight-curve $-1 -57.575689210590198 -0.7525921780541438 9.5818932637828524 0 1 0 I I #
coedge $-1 $353 $238 $241 $367 reversed $231 $-1 #
coedge $-1 $238 $353 $358 $444 forward $231 $-1 #
vertex $-1 $239 $448 #
straight-curve $-1 -65.314493240150142 -6.7471737053704839 58.451422898440853 0 0 1 I I #
straight-curve $-1 -65.314493240150128 -6.7471737053704839 4.9319505998614375 -0.85716729658548041 0 -0.51503808176128008 I I #
edge $-1 $442 -3.7368049931539087 $243 6.7471737053704839 $362 $449 forward 7 unknown #
point $-1 -65.314493240150142 -6.7471737053704839 9.5818932637828542 #
point $-1 -57.575689210590205 -6.7471737053704839 9.5818932637828542 #
edge $-1 $450 1 $450 0 $246 $-1 forward 7 unknown #
vertex $-1 $247 $451 #
ellipse-curve $-1 -60.650811557820468 -3.7517512200778 5.9350186018039732 -0.51503808176128008 0 0.85716729658548041 0.4285836482927402 0 0.25751904088064004 1 I I #
point $-1 -61.016507577077455 -3.7517512200778 7.5144409727027952 #
edge $-1 $452 1 $452 0 $250 $-1 forward 7 unknown #
vertex $-1 $251 $453 #
ellipse-curve $-1 -60.650811557820468 0.74138250786122484 5.9350186018039732 -0.51503808176128008 0 0.85716729658548041 0.4285836482927402 0 0.25751904088064004 1 I I #
point $-1 -61.016507577077455 0.74138250786122484 7.5144409727027952 #
plane-surface $-1 65.314493240150142 0 0 -1 0 0 0 0 1 forward_v I I I I #
coedge $-1 $259 $257 $261 $383 reversed $161 $-1 #
edge $-1 $272 -9.5818932637828542 $385 9.5818932637828542 $271 $454 forward 7 unknown #
vertex $-1 $383 $455 #
straight-curve $-1 -65.314493240150142 -26.493561327030477 0 0 0 -1 I I #
edge $-1 $381 -26.493561327030477 $385 26.493561327030477 $379 $456 forward 7 unknown #
straight-curve $-1 0 -26.493561327030477 -9.5818932637828542 -1 0 0 I I #
vertex $-1 $264 $457 #
straight-curve $-1 0 26.493561327030477 -9.5818932637828542 1 0 0 I I #
point $-1 65.314493240150142 26.493561327030477 -9.5818932637828542 #
point $-1 65.314493240150142 -26.493561327030477 -9.5818932637828542 #
straight-curve $-1 -65.314493240150142 0 9.5818932637828542 0 -1 0 I I #
point $-1 -65.314493240150142 26.493561327030477 9.5818932637828542 #
point $-1 -65.314493240150142 -26.493561327030477 9.5818932637828542 #
straight-curve $-1 65.314493240150142 -26.493561327030477 0 0 0 -1 I I #
straight-curve $-1 65.314493240150142 26.493561327030477 0 0 0 -1 I I #
loop $-1 $-1 $287 $281 #
plane-surface $-1 0 -26.493561327030477 0 0 1 0 0 0 1 forward_v I I I I #
coedge $-1 $298 $289 $285 $398 forward $282 $-1 #
edge $-1 $402 -14.869481174347978 $293 -8.3786791310170194 $284 $458 forward 7 unknown #
edge $-1 $294 8.3786791310170194 $401 14.869481174347978 $396 $459 forward 7 unknown #
coedge $-1 $296 $287 $301 $411 reversed $394 $-1 #
coedge $-1 $287 $296 $298 $409 reversed $394 $-1 #
vertex $-1 $409 $460 #
vertex $-1 $288 $461 #
straight-curve $-1 -59.957946806227952 -26.493561327030477 0 0 0 1 I I #
straight-curve $-1 -30.757950006731271 -20.002759283699518 -9.5818932637828542 1 0 0 I I #
straight-curve $-1 -30.757950006731271 -20.002759283699518 9.5818932637828542 -1 0 0 I I #
point $-1 -59.957946806227952 -20.002759283699518 9.5818932637828542 #
point $-1 -59.957946806227952 -20.002759283699518 -9.5818932637828542 #
straight-curve $-1 -63.073853220697131 -26.493561327030477 0 0 0 -1 I I #
edge $-1 $401 59.957946806227952 $299 63.073853220697131 $400 $462 forward 7 unknown #
point $-1 -63.073853220697131 -26.493561327030477 -9.5818932637828542 #
edge $-1 $302 -63.073853220697131 $402 -59.957946806227952 $399 $463 forward 7 unknown #
point $-1 -63.073853220697131 -26.493561327030477 9.5818932637828542 #
plane-surface $-1 0 26.493561327030477 0 0 -1 0 0 0 -1 forward_v I I I I #
coedge $-1 $309 $313 $318 $424 forward $196 $-1 #
edge $-1 $464 -14.869481174347978 $323 -8.3786791310170194 $309 $465 forward 7 unknown #
coedge $-1 $311 $310 $422 $466 reversed $116 $-1 #
edge $-1 $326 8.3786791310170194 $467 14.869481174347978 $325 $468 forward 7 unknown #
straight-curve $-1 -59.957946806227952 20.002759283699518 0 0 0 -1 I I #
straight-curve $-1 -63.073853220697131 11.624080152682499 -9.5818932637828542 0 1 0 I I #
coedge $-1 $315 $325 $317 $423 forward $307 $-1 #
straight-curve $-1 -63.073853220697131 11.624080152682499 9.5818932637828542 0 -1 0 I I #
coedge $-1 $318 $317 $416 $466 forward $319 $-1 #
edge $-1 $467 59.957946806227952 $321 63.073853220697131 $317 $469 forward 7 unknown #
edge $-1 $320 -63.073853220697131 $464 -59.957946806227952 $318 $470 forward 7 unknown #
point $-1 -63.073853220697131 26.493561327030477 -9.5818932637828542 #
point $-1 -63.073853220697131 26.493561327030477 9.5818932637828542 #
point $-1 -59.957946806227952 20.002759283699518 -9.5818932637828542 #
point $-1 -59.957946806227952 20.002759283699518 9.5818932637828542 #
coedge $-1 $341 $340 $333 $430 forward $330 $-1 #
edge $-1 $431 84.122844472126246 $434 88.758123657295982 $429 $471 forward 7 unknown #
vertex $-1 $345 $472 #
straight-curve $-1 47.106887013048336 3.2314913204472351 9.5818932637828595 1 0 0 I I #
edge $-1 $434 0.083692383305118412 $342 6.2119054909791149 $341 $473 forward 7 unknown #
vertex $-1 $433 $474 #
straight-curve $-1 -11.467297063479137 3.2314913204472351 110.62768516818893 -0.5877852410284794 0 0.80901700255871778 I I #
point $-1 61.946765881550476 3.2314913204472351 9.5818932637828595 #
point $-1 65.314493240150142 9.3597044281212316 4.9466140786131234 #
straight-curve $-1 65.314493240150142 0 9.5818932637828542 0 1 0 I I #
vertex $-1 $348 $475 #
point $-1 62.838021979952615 6.2955978742842333 5.4523226075210296 #
edge $-1 $442 48.869529634658001 $445 53.519472298579423 $353 $476 forward 7 unknown #
vertex $-1 $367 $477 #
straight-curve $-1 -66.296697929692087 3.7368049931539087 9.5818932637828524 -1 0 0 I I #
edge $-1 $445 -4.4893971712080525 $364 5.9945815273163401 $363 $478 forward 7 unknown #
vertex $-1 $444 $479 #
straight-curve $-1 -65.314493240150128 3.7368049931539087 4.9319505998614375 0.85716729658548041 0 0.51503808176128008 I I #
point $-1 -57.575689210590205 3.7368049931539087 9.5818932637828542 #
point $-1 -65.314493240150142 -6.7471737053704839 4.9319505998614286 #
straight-curve $-1 -65.314493240150142 0 9.5818932637828542 0 -1 0 I I #
vertex $-1 $370 $480 #
point $-1 -60.222227909527732 -3.7517512200778 6.1925376426846137 #
vertex $-1 $374 $481 #
point $-1 -60.222227909527732 0.74138250786122484 6.1925376426846137 #
straight-curve $-1 -65.314493240150142 26.493561327030477 0 0 0 -1 I I #
point $-1 -65.314493240150142 -26.493561327030477 -9.5818932637828542 #
straight-curve $-1 -65.314493240150142 0 -9.5818932637828542 0 1 0 I I #
point $-1 -65.314493240150142 26.493561327030477 -9.5818932637828542 #
straight-curve $-1 -59.957946806227952 -11.624080152682499 9.5818932637828542 0 1 0 I I #
straight-curve $-1 -59.957946806227952 -11.624080152682499 -9.5818932637828542 0 -1 0 I I #
point $-1 -59.957946806227952 -26.493561327030477 -9.5818932637828542 #
point $-1 -59.957946806227952 -26.493561327030477 9.5818932637828542 #
straight-curve $-1 0 -26.493561327030477 -9.5818932637828542 -1 0 0 I I #
straight-curve $-1 0 -26.493561327030477 9.5818932637828542 1 0 0 I I #
vertex $-1 $466 $482 #
straight-curve $-1 -59.957946806227952 11.624080152682499 -9.5818932637828542 0 -1 0 I I #
edge $-1 $467 -9.5818932637828542 $464 9.5818932637828542 $422 $483 forward 7 unknown #
vertex $-1 $423 $484 #
straight-curve $-1 -59.957946806227952 11.624080152682499 9.5818932637828542 0 1 0 I I #
straight-curve $-1 0 26.493561327030477 9.5818932637828542 -1 0 0 I I #
straight-curve $-1 0 26.493561327030477 -9.5818932637828542 1 0 0 I I #
straight-curve $-1 65.314493240150142 3.2314913204472351 93.704737735909106 0 0 -1 I I #
point $-1 65.314493240150142 3.2314913204472351 9.5818932637828542 #
straight-curve $-1 65.314493240150142 3.1477989371421167 4.9466140786131234 0 1 0 I I #
point $-1 65.314493240150142 3.2314913204472351 4.9466140786131234 #
point $-1 61.441219736365419 6.2955978742842333 5.673554369051268 #
straight-curve $-1 -65.314493240150142 3.7368049931539087 58.451422898440853 0 0 -1 I I #
point $-1 -65.314493240150142 3.7368049931539087 9.5818932637828542 #
straight-curve $-1 -65.314493240150142 -0.7525921780541438 4.9319505998614304 0 -1 0 I I #
point $-1 -65.314493240150142 3.7368049931539087 4.9319505998614286 #
point $-1 -60.39329251693983 -3.7517512200778 5.5064349535112331 #
point $-1 -60.39329251693983 0.74138250786122484 5.5064349535112331 #
point $-1 -59.957946806227952 26.493561327030477 -9.5818932637828542 #
straight-curve $-1 -59.957946806227952 26.493561327030477 0 0 0 -1 I I #
point $-1 -59.957946806227952 26.493561327030477 9.5818932637828542 #
End-of-ACIS-data 