500 0 18 0           
7 Unknown 11 ACIS 5.0 NT 24 Thu Mar 25 20:42:27 1999 
-1 9.9999999999999995e-007 1e-010 
body $-1 $18 $-1 $19 #
body $-1 $20 $-1 $21 #
body $-1 $22 $-1 $23 #
body $-1 $24 $-1 $25 #
body $-1 $26 $-1 $27 #
body $-1 $28 $-1 $29 #
body $-1 $30 $-1 $31 #
body $-1 $32 $-1 $33 #
body $-1 $34 $-1 $35 #
body $-1 $36 $-1 $37 #
body $-1 $38 $-1 $39 #
body $-1 $40 $-1 $41 #
body $-1 $42 $-1 $43 #
body $-1 $44 $-1 $45 #
body $-1 $46 $-1 $47 #
body $-1 $48 $-1 $49 #
body $-1 $50 $-1 $51 #
body $-1 $52 $-1 $53 #
lump $-1 $-1 $54 $0 #
transform $-1 1 0 0 0 1 0 0 0 1 54.846644489883118 36.573356795066559 11.23341272599226 1 rotate no_reflect no_shear #
lump $-1 $-1 $55 $1 #
transform $-1 1 0 0 0 1 0 0 0 1 54.846644489883118 36.573356795066559 11.23341272599226 1 rotate no_reflect no_shear #
lump $-1 $-1 $56 $2 #
transform $-1 1 0 0 0 1 0 0 0 1 54.846644489883118 36.573356795066559 11.23341272599226 1 rotate no_reflect no_shear #
lump $-1 $-1 $57 $3 #
transform $-1 1 0 0 0 1 0 0 0 1 54.846644489883118 36.573356795066559 11.23341272599226 1 rotate no_reflect no_shear #
lump $-1 $-1 $58 $4 #
transform $-1 1 0 0 0 1 0 0 0 1 54.846644489883118 36.573356795066559 11.23341272599226 1 rotate no_reflect no_shear #
lump $-1 $-1 $59 $5 #
transform $-1 1 0 0 0 1 0 0 0 1 54.846644489883118 36.573356795066559 11.23341272599226 1 rotate no_reflect no_shear #
lump $-1 $-1 $60 $6 #
transform $-1 1 0 0 0 1 0 0 0 1 54.846644489883118 36.573356795066559 11.23341272599226 1 rotate no_reflect no_shear #
lump $-1 $-1 $61 $7 #
transform $-1 1 0 0 0 1 0 0 0 1 54.846644489883118 36.573356795066559 11.23341272599226 1 rotate no_reflect no_shear #
lump $-1 $-1 $62 $8 #
transform $-1 1 0 0 0 1 0 0 0 1 54.846644489883118 36.573356795066559 11.23341272599226 1 rotate no_reflect no_shear #
lump $-1 $-1 $63 $9 #
transform $-1 1 0 0 0 1 0 0 0 1 54.846644489883118 36.573356795066559 11.23341272599226 1 rotate no_reflect no_shear #
lump $-1 $-1 $64 $10 #
transform $-1 1 0 0 0 1 0 0 0 1 54.846644489883118 36.573356795066559 11.23341272599226 1 rotate no_reflect no_shear #
lump $-1 $-1 $65 $11 #
transform $-1 1 0 0 0 1 0 0 0 1 54.846644489883118 36.573356795066559 11.23341272599226 1 rotate no_reflect no_shear #
lump $-1 $-1 $66 $12 #
transform $-1 1 0 0 0 1 0 0 0 1 54.846644489883118 36.573356795066559 11.23341272599226 1 rotate no_reflect no_shear #
lump $-1 $-1 $67 $13 #
transform $-1 1 0 0 0 1 0 0 0 1 54.846644489883118 36.573356795066559 11.23341272599226 1 rotate no_reflect no_shear #
lump $-1 $-1 $68 $14 #
transform $-1 1 0 0 0 1 0 0 0 1 54.846644489883118 36.573356795066559 11.23341272599226 1 rotate no_reflect no_shear #
lump $-1 $-1 $69 $15 #
transform $-1 1 0 0 0 1 0 0 0 1 54.846644489883118 36.573356795066559 11.23341272599226 1 rotate no_reflect no_shear #
lump $-1 $-1 $70 $16 #
transform $-1 1 0 0 0 1 0 0 0 1 54.846644489883118 36.573356795066559 11.23341272599226 1 rotate no_reflect no_shear #
lump $-1 $-1 $71 $17 #
transform $-1 1 0 0 0 1 0 0 0 1 54.846644489883118 36.573356795066559 11.23341272599226 1 rotate no_reflect no_shear #
shell $-1 $-1 $-1 $72 $-1 $18 #
shell $-1 $-1 $-1 $73 $-1 $20 #
shell $-1 $-1 $-1 $74 $-1 $22 #
shell $-1 $-1 $-1 $75 $-1 $24 #
shell $-1 $-1 $-1 $76 $-1 $26 #
shell $-1 $-1 $-1 $77 $-1 $28 #
shell $-1 $-1 $-1 $78 $-1 $30 #
shell $-1 $-1 $-1 $79 $-1 $32 #
shell $-1 $-1 $-1 $80 $-1 $34 #
shell $-1 $-1 $-1 $81 $-1 $36 #
shell $-1 $-1 $-1 $82 $-1 $38 #
shell $-1 $-1 $-1 $83 $-1 $40 #
shell $-1 $-1 $-1 $84 $-1 $42 #
shell $-1 $-1 $-1 $85 $-1 $44 #
shell $-1 $-1 $-1 $86 $-1 $46 #
shell $-1 $-1 $-1 $87 $-1 $48 #
shell $-1 $-1 $-1 $88 $-1 $50 #
shell $-1 $-1 $-1 $89 $-1 $52 #
face $-1 $90 $91 $54 $-1 $92 reversed single #
face $-1 $93 $94 $55 $-1 $95 forward single #
face $-1 $96 $97 $56 $-1 $98 forward single #
face $-1 $99 $100 $57 $-1 $101 reversed single #
face $-1 $102 $103 $58 $-1 $104 forward single #
face $-1 $105 $106 $59 $-1 $107 forward single #
face $-1 $108 $109 $60 $-1 $110 reversed single #
face $-1 $111 $112 $61 $-1 $113 forward single #
face $-1 $114 $115 $62 $-1 $116 forward single #
face $-1 $117 $118 $63 $-1 $119 reversed single #
face $-1 $120 $121 $64 $-1 $122 forward single #
face $-1 $123 $124 $65 $-1 $125 forward single #
face $-1 $126 $127 $66 $-1 $128 reversed single #
face $-1 $129 $130 $67 $-1 $131 forward single #
face $-1 $132 $133 $68 $-1 $134 forward single #
face $-1 $135 $136 $69 $-1 $137 reversed single #
face $-1 $138 $139 $70 $-1 $140 forward single #
face $-1 $141 $142 $71 $-1 $143 forward single #
face $-1 $144 $145 $54 $-1 $146 forward single #
loop $-1 $-1 $147 $72 #
plane-surface $-1 54.846644489883118 0 0 -1 0 0 0 0 1 forward_v I I I I #
face $-1 $148 $149 $55 $-1 $150 reversed single #
loop $-1 $-1 $151 $73 #
plane-surface $-1 -54.846644489883118 0 0 1 0 0 0 0 -1 forward_v I I I I #
face $-1 $152 $153 $56 $-1 $154 reversed single #
loop $-1 $-1 $155 $74 #
plane-surface $-1 54.846644489883118 0 0 -1 0 0 0 0 1 forward_v I I I I #
face $-1 $156 $157 $57 $-1 $158 reversed single #
loop $-1 $-1 $159 $75 #
plane-surface $-1 -36.687914136656971 41.872521178535308 135.45032804380185 1 0 0 0 -0.5877852598018023 -0.80901698891910034 forward_v I I I I #
face $-1 $160 $161 $58 $-1 $162 forward single #
loop $-1 $163 $164 $76 #
cone-surface $-1 -33.551788631102383 30.928554988788584 6.8276724339834534 0 -0.5877852598018023 -0.80901698891910034 1 0 0 1 I I 0 1 1 forward I I I I #
face $-1 $165 $166 $59 $-1 $167 forward single #
loop $-1 $168 $169 $77 #
cone-surface $-1 -28.847600372770508 30.928554988788584 6.8276724339834534 0 -0.5877852598018023 -0.80901698891910034 1 0 0 1 I I 0 1 1 forward I I I I #
face $-1 $170 $171 $60 $-1 $172 reversed single #
loop $-1 $-1 $173 $78 #
plane-surface $-1 -16.138095226824738 41.872521178535308 135.45032804380185 1 0 0 0 -0.5877852598018023 -0.80901698891910034 forward_v I I I I #
face $-1 $174 $175 $61 $-1 $176 forward single #
loop $-1 $177 $178 $79 #
cone-surface $-1 -13.001969721270157 30.928554988788584 6.8276724339834534 0 -0.5877852598018023 -0.80901698891910034 1 0 0 1 I I 0 1 1 forward I I I I #
face $-1 $179 $180 $62 $-1 $181 forward single #
loop $-1 $182 $183 $80 #
cone-surface $-1 -8.2977814629382749 30.928554988788584 6.8276724339834534 0 -0.5877852598018023 -0.80901698891910034 1 0 0 1 I I 0 1 1 forward I I I I #
face $-1 $184 $185 $63 $-1 $186 reversed single #
loop $-1 $-1 $187 $81 #
plane-surface $-1 4.4117236830074944 41.872521178535308 135.45032804380185 1 0 0 0 -0.5877852598018023 -0.80901698891910034 forward_v I I I I #
face $-1 $188 $189 $64 $-1 $190 forward single #
loop $-1 $191 $192 $82 #
cone-surface $-1 7.5478491885620755 30.928554988788584 6.8276724339834534 0 -0.5877852598018023 -0.80901698891910034 1 0 0 1 I I 0 1 1 forward I I I I #
face $-1 $193 $194 $65 $-1 $195 forward single #
loop $-1 $196 $197 $83 #
cone-surface $-1 12.252037446893951 30.928554988788584 6.8276724339834534 0 -0.5877852598018023 -0.80901698891910034 1 0 0 1 I I 0 1 1 forward I I I I #
face $-1 $198 $199 $66 $-1 $200 reversed single #
loop $-1 $-1 $201 $84 #
plane-surface $-1 24.961542592839734 41.872521178535308 135.45032804380185 1 0 0 0 -0.5877852598018023 -0.80901698891910034 forward_v I I I I #
face $-1 $202 $203 $67 $-1 $204 forward single #
loop $-1 $205 $206 $85 #
cone-surface $-1 28.097668098394308 30.928554988788584 6.8276724339834534 0 -0.5877852598018023 -0.80901698891910034 1 0 0 1 I I 0 1 1 forward I I I I #
face $-1 $207 $208 $68 $-1 $209 forward single #
loop $-1 $210 $211 $86 #
cone-surface $-1 32.801856356726177 30.928554988788584 6.8276724339834534 0 -0.5877852598018023 -0.80901698891910034 1 0 0 1 I I 0 1 1 forward I I I I #
face $-1 $212 $213 $69 $-1 $214 reversed single #
loop $-1 $-1 $215 $87 #
plane-surface $-1 -12.872497621397567 -126.42883959985157 66.397845839419972 -1 0 0 0 -0.81915205242281985 0.57357642473473569 forward_v I I I I #
face $-1 $216 $217 $70 $-1 $218 forward single #
loop $-1 $219 $220 $88 #
cone-surface $-1 -19.877402997817846 -32.809638757022711 6.6221273476947262 0 0.81915205242281985 -0.57357642473473569 1 0 0 1 I I 0 1 1 forward I I I I #
face $-1 $221 $222 $71 $-1 $223 forward single #
loop $-1 $224 $225 $89 #
cone-surface $-1 -15.67445977196568 -32.809638757022711 6.6221273476947262 0 0.81915205242281985 -0.57357642473473569 1 0 0 1 I I 0 1 1 forward I I I I #
face $-1 $226 $227 $54 $-1 $228 reversed single #
loop $-1 $-1 $229 $90 #
plane-surface $-1 0 0 11.23341272599226 0 0 1 1 0 0 forward_v I I I I #
coedge $-1 $230 $231 $232 $233 reversed $91 $-1 #
face $-1 $234 $235 $55 $-1 $236 forward single #
loop $-1 $-1 $237 $93 #
plane-surface $-1 0 36.573356795066559 0 0 -1 0 0 0 -1 forward_v I I I I #
coedge $-1 $238 $239 $240 $241 forward $94 $-1 #
face $-1 $242 $243 $56 $-1 $244 forward single #
loop $-1 $-1 $245 $96 #
plane-surface $-1 0 -36.573356795066559 0 0 1 0 0 0 1 forward_v I I I I #
coedge $-1 $246 $247 $248 $249 forward $97 $-1 #
face $-1 $250 $251 $57 $-1 $252 reversed single #
loop $-1 $-1 $253 $99 #
plane-surface $-1 -31.199694501936449 -22.603577182950772 46.70659368875863 0 0.5877852598018023 0.80901698891910034 1 0 0 forward_v I I I I #
coedge $-1 $254 $255 $256 $257 reversed $100 $-1 #
face $-1 $-1 $258 $58 $-1 $259 forward single #
loop $-1 $260 $261 $102 #
cone-surface $-1 -33.551788631102383 30.16600554875609 5.7781131917441115 0 -0.5877852598018023 -0.80901698891910034 0.5 0 0 1 I I -0.70710678118654746 0.70710678118654746 0.5 forward I I I I #
loop $-1 $-1 $262 $76 #
coedge $-1 $164 $164 $263 $264 reversed $103 $-1 #
face $-1 $-1 $265 $59 $-1 $266 forward single #
loop $-1 $267 $268 $105 #
cone-surface $-1 -28.847600372770508 30.16600554875609 5.7781131917441115 0 -0.5877852598018023 -0.80901698891910034 0.5 0 0 1 I I -0.70710678118654746 0.70710678118654746 0.5 forward I I I I #
loop $-1 $-1 $269 $77 #
coedge $-1 $169 $169 $270 $271 reversed $106 $-1 #
face $-1 $272 $273 $60 $-1 $274 reversed single #
loop $-1 $-1 $275 $108 #
plane-surface $-1 -10.649875592104216 -22.603577182950772 46.70659368875863 0 0.5877852598018023 0.80901698891910034 1 0 0 forward_v I I I I #
coedge $-1 $276 $277 $278 $279 reversed $109 $-1 #
face $-1 $-1 $280 $61 $-1 $281 forward single #
loop $-1 $282 $283 $111 #
cone-surface $-1 -13.001969721270157 30.16600554875609 5.7781131917441115 0 -0.5877852598018023 -0.80901698891910034 0.5 0 0 1 I I -0.70710678118654746 0.70710678118654746 0.5 forward I I I I #
loop $-1 $-1 $284 $79 #
coedge $-1 $178 $178 $285 $286 reversed $112 $-1 #
face $-1 $-1 $287 $62 $-1 $288 forward single #
loop $-1 $289 $290 $114 #
cone-surface $-1 -8.2977814629382749 30.16600554875609 5.7781131917441115 0 -0.5877852598018023 -0.80901698891910034 0.5 0 0 1 I I -0.70710678118654746 0.70710678118654746 0.5 forward I I I I #
loop $-1 $-1 $291 $80 #
coedge $-1 $183 $183 $292 $293 reversed $115 $-1 #
face $-1 $294 $295 $63 $-1 $296 reversed single #
loop $-1 $-1 $297 $117 #
plane-surface $-1 9.8999433177280167 -22.603577182950772 46.70659368875863 0 0.5877852598018023 0.80901698891910034 1 0 0 forward_v I I I I #
coedge $-1 $298 $299 $300 $301 reversed $118 $-1 #
face $-1 $-1 $302 $64 $-1 $303 forward single #
loop $-1 $304 $305 $120 #
cone-surface $-1 7.5478491885620755 30.16600554875609 5.7781131917441115 0 -0.5877852598018023 -0.80901698891910034 0.5 0 0 1 I I -0.70710678118654746 0.70710678118654746 0.5 forward I I I I #
loop $-1 $-1 $306 $82 #
coedge $-1 $192 $192 $307 $308 reversed $121 $-1 #
face $-1 $-1 $309 $65 $-1 $310 forward single #
loop $-1 $311 $312 $123 #
cone-surface $-1 12.252037446893951 30.16600554875609 5.7781131917441115 0 -0.5877852598018023 -0.80901698891910034 0.5 0 0 1 I I -0.70710678118654746 0.70710678118654746 0.5 forward I I I I #
loop $-1 $-1 $313 $83 #
coedge $-1 $197 $197 $314 $315 reversed $124 $-1 #
face $-1 $316 $317 $66 $-1 $318 reversed single #
loop $-1 $-1 $319 $126 #
plane-surface $-1 30.449762227560257 -22.603577182950772 46.70659368875863 0 0.5877852598018023 0.80901698891910034 1 0 0 forward_v I I I I #
coedge $-1 $320 $321 $322 $323 reversed $127 $-1 #
face $-1 $-1 $324 $67 $-1 $325 forward single #
loop $-1 $326 $327 $129 #
cone-surface $-1 28.097668098394308 30.16600554875609 5.7781131917441115 0 -0.5877852598018023 -0.80901698891910034 0.5 0 0 1 I I -0.70710678118654746 0.70710678118654746 0.5 forward I I I I #
loop $-1 $-1 $328 $85 #
coedge $-1 $206 $206 $329 $330 reversed $130 $-1 #
face $-1 $-1 $331 $68 $-1 $332 forward single #
loop $-1 $333 $334 $132 #
cone-surface $-1 32.801856356726177 30.16600554875609 5.7781131917441115 0 -0.5877852598018023 -0.80901698891910034 0.5 0 0 1 I I -0.70710678118654746 0.70710678118654746 0.5 forward I I I I #
loop $-1 $-1 $335 $86 #
coedge $-1 $211 $211 $336 $337 reversed $133 $-1 #
face $-1 $338 $339 $69 $-1 $340 reversed single #
loop $-1 $-1 $341 $135 #
plane-surface $-1 -17.775931384891763 -36.573356795066573 3.4803613290114725 0 -0.81915205242281985 0.57357642473473569 1 0 0 forward_v I I I I #
coedge $-1 $342 $343 $344 $345 reversed $136 $-1 #
face $-1 $-1 $346 $70 $-1 $347 forward single #
loop $-1 $348 $349 $138 #
cone-surface $-1 -19.877402997817846 -31.350717126988922 5.6005794555202186 0 0.81915205242281985 -0.57357642473473569 0.5 0 0 1 I I -0.70710678118654746 0.70710678118654746 0.5 forward I I I I #
loop $-1 $-1 $350 $88 #
coedge $-1 $220 $220 $351 $352 reversed $139 $-1 #
face $-1 $-1 $353 $71 $-1 $354 forward single #
loop $-1 $355 $356 $141 #
cone-surface $-1 -15.67445977196568 -31.350717126988922 5.6005794555202186 0 0.81915205242281985 -0.57357642473473569 0.5 0 0 1 I I -0.70710678118654746 0.70710678118654746 0.5 forward I I I I #
loop $-1 $-1 $357 $89 #
coedge $-1 $225 $225 $358 $359 reversed $142 $-1 #
face $-1 $360 $361 $54 $-1 $362 reversed single #
loop $-1 $-1 $363 $144 #
plane-surface $-1 0 0 -11.23341272599226 0 0 1 1 0 0 forward_v I I I I #
coedge $-1 $364 $365 $230 $366 forward $145 $-1 #
coedge $-1 $367 $147 $229 $366 reversed $91 $-1 #
coedge $-1 $147 $367 $363 $368 reversed $91 $-1 #
coedge $-1 $369 $370 $147 $233 forward $371 $-1 #
edge $-1 $372 -11.23341272599226 $373 11.23341272599226 $147 $374 forward 7 unknown #
face $-1 $375 $376 $55 $-1 $377 reversed single #
loop $-1 $-1 $240 $148 #
plane-surface $-1 -61.720147824992445 0 7.6890840969242378 0 0 1 1 0 0 forward_v I I I I #
coedge $-1 $378 $379 $239 $380 forward $149 $-1 #
coedge $-1 $381 $151 $382 $383 reversed $94 $-1 #
coedge $-1 $151 $381 $237 $380 reversed $94 $-1 #
coedge $-1 $384 $385 $151 $241 reversed $235 $-1 #
edge $-1 $386 -36.573356795066559 $387 36.573356795066559 $240 $388 forward 7 unknown #
face $-1 $389 $390 $56 $-1 $391 reversed single #
loop $-1 $-1 $392 $152 #
plane-surface $-1 61.720147824992438 0 7.6890840969242378 0 0 1 1 0 0 forward_v I I I I #
coedge $-1 $393 $394 $247 $395 forward $153 $-1 #
coedge $-1 $396 $155 $397 $398 reversed $97 $-1 #
coedge $-1 $155 $396 $245 $395 reversed $97 $-1 #
coedge $-1 $399 $400 $155 $249 reversed $243 $-1 #
edge $-1 $401 -36.573356795066559 $402 36.573356795066559 $248 $403 forward 7 unknown #
face $-1 $404 $405 $57 $-1 $406 reversed single #
loop $-1 $-1 $407 $156 #
plane-surface $-1 -25.711474867215927 41.872521178535308 135.45032804380185 -1 0 0 0 0.5877852598018023 0.80901698891910034 forward_v I I I I #
coedge $-1 $408 $409 $410 $411 reversed $157 $-1 #
coedge $-1 $255 $159 $412 $413 reversed $100 $-1 #
coedge $-1 $159 $254 $408 $414 reversed $100 $-1 #
coedge $-1 $410 $415 $159 $257 forward $416 $-1 #
edge $-1 $417 -15.637096205798905 $418 -5.2848062135061085 $256 $419 forward 7 unknown #
loop $-1 $-1 $263 $160 #
plane-surface $-1 -31.199694501936449 -22.603577182950772 46.70659368875863 0 0.5877852598018023 0.80901698891910034 1 0 0 forward_v I I I I #
loop $-1 $-1 $420 $102 #
coedge $-1 $261 $261 $262 $421 reversed $161 $-1 #
coedge $-1 $262 $262 $261 $421 forward $163 $-1 #
coedge $-1 $263 $263 $164 $264 forward $258 $-1 #
edge $-1 $422 5.771430918046817e-018 $422 6.2831853071796004 $263 $423 forward 7 unknown #
loop $-1 $-1 $270 $165 #
plane-surface $-1 -31.199694501936449 -22.603577182950772 46.70659368875863 0 0.5877852598018023 0.80901698891910034 1 0 0 forward_v I I I I #
loop $-1 $-1 $424 $105 #
coedge $-1 $268 $268 $269 $425 reversed $166 $-1 #
coedge $-1 $269 $269 $268 $425 forward $168 $-1 #
coedge $-1 $270 $270 $169 $271 forward $265 $-1 #
edge $-1 $426 5.771430918046817e-018 $426 6.2831853071796004 $270 $427 forward 7 unknown #
face $-1 $428 $429 $60 $-1 $430 forward single #
loop $-1 $-1 $431 $170 #
plane-surface $-1 -5.1616559573836938 41.872521178535308 135.45032804380185 -1 0 0 0 0.5877852598018023 0.80901698891910034 forward_v I I I I #
coedge $-1 $432 $433 $434 $435 reversed $171 $-1 #
coedge $-1 $277 $173 $436 $437 reversed $109 $-1 #
coedge $-1 $173 $276 $432 $438 reversed $109 $-1 #
coedge $-1 $434 $439 $173 $279 forward $429 $-1 #
edge $-1 $440 -15.637096205798905 $441 -5.2848062135061085 $278 $442 forward 7 unknown #
loop $-1 $-1 $285 $174 #
plane-surface $-1 -10.649875592104216 -22.603577182950772 46.70659368875863 0 0.5877852598018023 0.80901698891910034 1 0 0 forward_v I I I I #
loop $-1 $-1 $443 $111 #
coedge $-1 $283 $283 $284 $444 reversed $175 $-1 #
coedge $-1 $284 $284 $283 $444 forward $177 $-1 #
coedge $-1 $285 $285 $178 $286 forward $280 $-1 #
edge $-1 $445 5.771430918046817e-018 $445 6.2831853071796004 $285 $446 forward 7 unknown #
loop $-1 $-1 $292 $179 #
plane-surface $-1 -10.649875592104216 -22.603577182950772 46.70659368875863 0 0.5877852598018023 0.80901698891910034 1 0 0 forward_v I I I I #
loop $-1 $-1 $447 $114 #
coedge $-1 $290 $290 $291 $448 reversed $180 $-1 #
coedge $-1 $291 $291 $290 $448 forward $182 $-1 #
coedge $-1 $292 $292 $183 $293 forward $287 $-1 #
edge $-1 $449 5.771430918046817e-018 $449 6.2831853071796004 $292 $450 forward 7 unknown #
face $-1 $451 $452 $63 $-1 $453 forward single #
loop $-1 $-1 $454 $184 #
plane-surface $-1 15.388162952448539 41.872521178535308 135.45032804380185 -1 0 0 0 0.5877852598018023 0.80901698891910034 forward_v I I I I #
coedge $-1 $455 $456 $457 $458 reversed $185 $-1 #
coedge $-1 $299 $187 $459 $460 reversed $118 $-1 #
coedge $-1 $187 $298 $455 $461 reversed $118 $-1 #
coedge $-1 $457 $462 $187 $301 forward $452 $-1 #
edge $-1 $463 -15.637096205798905 $464 -5.2848062135061085 $300 $465 forward 7 unknown #
loop $-1 $-1 $307 $188 #
plane-surface $-1 9.8999433177280167 -22.603577182950772 46.70659368875863 0 0.5877852598018023 0.80901698891910034 1 0 0 forward_v I I I I #
loop $-1 $-1 $466 $120 #
coedge $-1 $305 $305 $306 $467 reversed $189 $-1 #
coedge $-1 $306 $306 $305 $467 forward $191 $-1 #
coedge $-1 $307 $307 $192 $308 forward $302 $-1 #
edge $-1 $468 5.771430918046817e-018 $468 6.2831853071796004 $307 $469 forward 7 unknown #
loop $-1 $-1 $314 $193 #
plane-surface $-1 9.8999433177280167 -22.603577182950772 46.70659368875863 0 0.5877852598018023 0.80901698891910034 1 0 0 forward_v I I I I #
loop $-1 $-1 $470 $123 #
coedge $-1 $312 $312 $313 $471 reversed $194 $-1 #
coedge $-1 $313 $313 $312 $471 forward $196 $-1 #
coedge $-1 $314 $314 $197 $315 forward $309 $-1 #
edge $-1 $472 5.771430918046817e-018 $472 6.2831853071796004 $314 $473 forward 7 unknown #
face $-1 $474 $475 $66 $-1 $476 forward single #
loop $-1 $-1 $477 $198 #
plane-surface $-1 35.937981862280779 41.872521178535308 135.45032804380185 -1 0 0 0 0.5877852598018023 0.80901698891910034 forward_v I I I I #
coedge $-1 $478 $479 $480 $481 reversed $199 $-1 #
coedge $-1 $321 $201 $482 $483 reversed $127 $-1 #
coedge $-1 $201 $320 $478 $484 reversed $127 $-1 #
coedge $-1 $480 $485 $201 $323 forward $475 $-1 #
edge $-1 $486 -15.637096205798905 $487 -5.2848062135061085 $322 $488 forward 7 unknown #
loop $-1 $-1 $329 $202 #
plane-surface $-1 30.449762227560257 -22.603577182950772 46.70659368875863 0 0.5877852598018023 0.80901698891910034 1 0 0 forward_v I I I I #
loop $-1 $-1 $489 $129 #
coedge $-1 $327 $327 $328 $490 reversed $203 $-1 #
coedge $-1 $328 $328 $327 $490 forward $205 $-1 #
coedge $-1 $329 $329 $206 $330 forward $324 $-1 #
edge $-1 $491 5.771430918046817e-018 $491 6.2831853071796004 $329 $492 forward 7 unknown #
loop $-1 $-1 $336 $207 #
plane-surface $-1 30.449762227560257 -22.603577182950772 46.70659368875863 0 0.5877852598018023 0.80901698891910034 1 0 0 forward_v I I I I #
loop $-1 $-1 $493 $132 #
coedge $-1 $334 $334 $335 $494 reversed $208 $-1 #
coedge $-1 $335 $335 $334 $494 forward $210 $-1 #
coedge $-1 $336 $336 $211 $337 forward $331 $-1 #
edge $-1 $495 5.771430918046817e-018 $495 6.2831853071796004 $336 $496 forward 7 unknown #
face $-1 $497 $498 $69 $-1 $499 forward single #
loop $-1 $-1 $500 $212 #
plane-surface $-1 -22.679365148385958 -126.42883959985157 66.397845839419972 1 0 0 0 0.81915205242281985 -0.57357642473473569 forward_v I I I I #
coedge $-1 $501 $502 $503 $504 reversed $213 $-1 #
coedge $-1 $343 $215 $505 $506 reversed $136 $-1 #
coedge $-1 $215 $342 $501 $507 reversed $136 $-1 #
coedge $-1 $503 $508 $215 $345 forward $498 $-1 #
edge $-1 $509 26.641063004859227 $510 32.069807873302153 $344 $511 forward 7 unknown #
loop $-1 $-1 $351 $216 #
plane-surface $-1 -17.775931384891763 -36.573356795066573 3.4803613290114725 0 -0.81915205242281985 0.57357642473473569 1 0 0 forward_v I I I I #
loop $-1 $-1 $512 $138 #
coedge $-1 $349 $349 $350 $513 reversed $217 $-1 #
coedge $-1 $350 $350 $349 $513 forward $219 $-1 #
coedge $-1 $351 $351 $220 $352 forward $346 $-1 #
edge $-1 $514 -1.0173666079199377e-015 $514 6.2831853071795996 $351 $515 forward 7 unknown #
loop $-1 $-1 $358 $221 #
plane-surface $-1 -17.775931384891763 -36.573356795066573 3.4803613290114725 0 -0.81915205242281985 0.57357642473473569 1 0 0 forward_v I I I I #
loop $-1 $-1 $516 $141 #
coedge $-1 $356 $356 $357 $517 reversed $222 $-1 #
coedge $-1 $357 $357 $356 $517 forward $224 $-1 #
coedge $-1 $358 $358 $225 $359 forward $353 $-1 #
edge $-1 $518 -1.0173666079199377e-015 $518 6.2831853071795996 $358 $519 forward 7 unknown #
face $-1 $520 $521 $54 $-1 $522 reversed single #
loop $-1 $-1 $523 $226 #
plane-surface $-1 0 -36.573356795066559 0 0 1 0 0 0 1 forward_v I I I I #
coedge $-1 $524 $525 $231 $368 forward $227 $-1 #
coedge $-1 $526 $229 $370 $527 forward $145 $-1 #
coedge $-1 $229 $526 $528 $529 forward $145 $-1 #
edge $-1 $530 -36.573356795066559 $372 36.573356795066559 $230 $531 forward 7 unknown #
coedge $-1 $231 $230 $532 $533 forward $91 $-1 #
edge $-1 $373 -36.573356795066559 $534 36.573356795066559 $231 $535 forward 7 unknown #
coedge $-1 $536 $232 $525 $537 reversed $371 $-1 #
coedge $-1 $232 $536 $364 $527 reversed $371 $-1 #
loop $-1 $-1 $232 $520 #
vertex $-1 $366 $538 #
vertex $-1 $368 $539 #
straight-curve $-1 54.846644489883118 36.573356795066559 0 0 0 -1 I I #
face $-1 $540 $541 $55 $-1 $542 reversed single #
loop $-1 $-1 $543 $234 #
plane-surface $-1 -61.720147824992445 0 1.2921377356650465 0 0 1 1 0 0 forward_v I I I I #
coedge $-1 $544 $237 $545 $546 reversed $149 $-1 #
coedge $-1 $237 $544 $384 $547 reversed $149 $-1 #
edge $-1 $386 -7.6890840969242378 $548 -1.2921377356650465 $237 $549 forward 7 unknown #
coedge $-1 $239 $238 $543 $550 forward $94 $-1 #
coedge $-1 $551 $552 $238 $383 forward $553 $-1 #
edge $-1 $554 1.2921377356650465 $387 7.6890840969242378 $382 $555 forward 7 unknown #
coedge $-1 $556 $240 $379 $547 forward $235 $-1 #
coedge $-1 $240 $556 $551 $557 forward $235 $-1 #
vertex $-1 $380 $558 #
vertex $-1 $557 $559 #
straight-curve $-1 -54.846644489883118 0 7.6890840969242378 0 -1 0 I I #
face $-1 $560 $561 $56 $-1 $562 reversed single #
loop $-1 $-1 $563 $242 #
plane-surface $-1 61.720147824992438 0 1.2921377356650465 0 0 1 1 0 0 forward_v I I I I #
coedge $-1 $400 $399 $564 $565 forward $243 $-1 #
coedge $-1 $566 $245 $567 $568 reversed $153 $-1 #
coedge $-1 $245 $566 $399 $569 reversed $153 $-1 #
edge $-1 $401 -7.6890840969242378 $570 -1.2921377356650465 $245 $571 forward 7 unknown #
coedge $-1 $247 $246 $572 $573 forward $97 $-1 #
coedge $-1 $574 $575 $246 $398 forward $576 $-1 #
edge $-1 $577 1.2921377356650465 $402 7.6890840969242378 $397 $578 forward 7 unknown #
coedge $-1 $392 $248 $394 $569 forward $243 $-1 #
coedge $-1 $248 $392 $574 $579 forward $243 $-1 #
vertex $-1 $395 $580 #
vertex $-1 $579 $581 #
straight-curve $-1 54.846644489883118 0 7.6890840969242378 0 1 0 I I #
face $-1 $-1 $416 $57 $-1 $582 forward single #
loop $-1 $-1 $583 $250 #
plane-surface $-1 0 36.573356795066559 0 0 -1 0 0 0 -1 forward_v I I I I #
coedge $-1 $584 $585 $586 $587 reversed $251 $-1 #
coedge $-1 $588 $253 $255 $414 forward $157 $-1 #
coedge $-1 $253 $588 $584 $589 forward $157 $-1 #
coedge $-1 $586 $256 $253 $411 forward $416 $-1 #
edge $-1 $418 -21.088066885688747 $590 -10.111627616247702 $410 $591 forward 7 unknown #
coedge $-1 $592 $593 $254 $413 forward $405 $-1 #
edge $-1 $594 -64.013130384366718 $417 -56.491751295908664 $412 $595 forward 7 unknown #
edge $-1 $418 60.350579350573909 $594 73.146713590133118 $255 $596 forward 7 unknown #
coedge $-1 $256 $586 $592 $597 forward $416 $-1 #
loop $-1 $-1 $586 $404 #
vertex $-1 $413 $598 #
vertex $-1 $257 $599 #
straight-curve $-1 -36.687914136656971 20.936260589267654 11.23341272599226 0 -1 0 I I #
coedge $-1 $420 $420 $-1 $600 reversed $260 $-1 #
edge $-1 $601 0 $601 6.2831853071796004 $261 $602 forward 7 unknown #
vertex $-1 $264 $603 #
ellipse-curve $-1 -33.551788631102383 31.397211798920168 7.4727231817632349 0 0.5877852598018023 0.80901698891910034 1 0 0 1 I I #
coedge $-1 $424 $424 $-1 $604 reversed $267 $-1 #
edge $-1 $605 0 $605 6.2831853071796004 $268 $606 forward 7 unknown #
vertex $-1 $271 $607 #
ellipse-curve $-1 -28.847600372770508 31.397211798920168 7.4727231817632349 0 0.5877852598018023 0.80901698891910034 1 0 0 1 I I #
face $-1 $-1 $608 $60 $-1 $609 reversed single #
loop $-1 $-1 $278 $272 #
plane-surface $-1 0 0 11.23341272599226 0 0 1 1 0 0 forward_v I I I I #
coedge $-1 $610 $611 $612 $613 reversed $273 $-1 #
coedge $-1 $614 $275 $277 $438 forward $171 $-1 #
coedge $-1 $275 $614 $610 $615 forward $171 $-1 #
coedge $-1 $612 $278 $275 $435 forward $429 $-1 #
edge $-1 $441 -10.81315743077263 $616 0.16328183866841428 $434 $617 forward 7 unknown #
coedge $-1 $618 $619 $276 $437 forward $608 $-1 #
edge $-1 $620 -64.013130384366718 $440 -56.491751295908664 $436 $621 forward 7 unknown #
edge $-1 $441 60.350579350573909 $620 73.146713590133118 $277 $622 forward 7 unknown #
coedge $-1 $278 $612 $618 $623 forward $429 $-1 #
vertex $-1 $279 $624 #
vertex $-1 $279 $625 #
straight-curve $-1 -16.138095226824738 20.936260589267654 11.23341272599226 0 -1 0 I I #
coedge $-1 $443 $443 $-1 $626 reversed $282 $-1 #
edge $-1 $627 0 $627 6.2831853071796004 $283 $628 forward 7 unknown #
vertex $-1 $286 $629 #
ellipse-curve $-1 -13.001969721270157 31.397211798920168 7.4727231817632349 0 0.5877852598018023 0.80901698891910034 1 0 0 1 I I #
coedge $-1 $447 $447 $-1 $630 reversed $289 $-1 #
edge $-1 $631 0 $631 6.2831853071796004 $290 $632 forward 7 unknown #
vertex $-1 $293 $633 #
ellipse-curve $-1 -8.2977814629382749 31.397211798920168 7.4727231817632349 0 0.5877852598018023 0.80901698891910034 1 0 0 1 I I #
face $-1 $-1 $634 $63 $-1 $635 reversed single #
loop $-1 $-1 $300 $294 #
plane-surface $-1 0 0 11.23341272599226 0 0 1 1 0 0 forward_v I I I I #
coedge $-1 $636 $637 $638 $639 reversed $295 $-1 #
coedge $-1 $640 $297 $299 $461 forward $185 $-1 #
coedge $-1 $297 $640 $636 $641 forward $185 $-1 #
coedge $-1 $638 $300 $297 $458 forward $452 $-1 #
edge $-1 $464 -0.53824797585651396 $642 10.438191293584531 $457 $643 forward 7 unknown #
coedge $-1 $644 $645 $298 $460 forward $634 $-1 #
edge $-1 $646 -64.013130384366718 $463 -56.491751295908664 $459 $647 forward 7 unknown #
edge $-1 $464 60.350579350573909 $646 73.146713590133118 $299 $648 forward 7 unknown #
coedge $-1 $300 $638 $644 $649 forward $452 $-1 #
vertex $-1 $301 $650 #
vertex $-1 $301 $651 #
straight-curve $-1 4.4117236830074944 20.936260589267654 11.23341272599226 0 -1 0 I I #
coedge $-1 $466 $466 $-1 $652 reversed $304 $-1 #
edge $-1 $653 0 $653 6.2831853071796004 $305 $654 forward 7 unknown #
vertex $-1 $308 $655 #
ellipse-curve $-1 7.5478491885620755 31.397211798920168 7.4727231817632349 0 0.5877852598018023 0.80901698891910034 1 0 0 1 I I #
coedge $-1 $470 $470 $-1 $656 reversed $311 $-1 #
edge $-1 $657 0 $657 6.2831853071796004 $312 $658 forward 7 unknown #
vertex $-1 $315 $659 #
ellipse-curve $-1 12.252037446893951 31.397211798920168 7.4727231817632349 0 0.5877852598018023 0.80901698891910034 1 0 0 1 I I #
face $-1 $-1 $660 $66 $-1 $661 reversed single #
loop $-1 $-1 $322 $316 #
plane-surface $-1 0 0 11.23341272599226 0 0 1 1 0 0 forward_v I I I I #
coedge $-1 $662 $663 $664 $665 reversed $317 $-1 #
coedge $-1 $666 $319 $321 $484 forward $199 $-1 #
coedge $-1 $319 $666 $662 $667 forward $199 $-1 #
coedge $-1 $664 $322 $319 $481 forward $475 $-1 #
edge $-1 $487 9.736661479059606 $668 20.713100748500651 $480 $669 forward 7 unknown #
coedge $-1 $670 $671 $320 $483 forward $660 $-1 #
edge $-1 $672 -64.013130384366718 $486 -56.491751295908664 $482 $673 forward 7 unknown #
edge $-1 $487 60.350579350573909 $672 73.146713590133118 $321 $674 forward 7 unknown #
coedge $-1 $322 $664 $670 $675 forward $475 $-1 #
vertex $-1 $323 $676 #
vertex $-1 $323 $677 #
straight-curve $-1 24.961542592839734 20.936260589267654 11.23341272599226 0 -1 0 I I #
coedge $-1 $489 $489 $-1 $678 reversed $326 $-1 #
edge $-1 $679 0 $679 6.2831853071796004 $327 $680 forward 7 unknown #
vertex $-1 $330 $681 #
ellipse-curve $-1 28.097668098394308 31.397211798920168 7.4727231817632349 0 0.5877852598018023 0.80901698891910034 1 0 0 1 I I #
coedge $-1 $493 $493 $-1 $682 reversed $333 $-1 #
edge $-1 $683 0 $683 6.2831853071796004 $334 $684 forward 7 unknown #
vertex $-1 $337 $685 #
ellipse-curve $-1 32.801856356726177 31.397211798920168 7.4727231817632349 0 0.5877852598018023 0.80901698891910034 1 0 0 1 I I #
face $-1 $-1 $686 $69 $-1 $687 reversed single #
loop $-1 $-1 $344 $338 #
plane-surface $-1 0 0 11.23341272599226 0 0 1 1 0 0 forward_v I I I I #
coedge $-1 $688 $689 $690 $691 reversed $339 $-1 #
coedge $-1 $692 $341 $343 $507 forward $213 $-1 #
coedge $-1 $341 $692 $688 $693 forward $213 $-1 #
coedge $-1 $690 $344 $341 $504 forward $498 $-1 #
edge $-1 $510 3.9845319289516858 $694 13.791399455940077 $503 $695 forward 7 unknown #
coedge $-1 $696 $697 $342 $506 forward $686 $-1 #
edge $-1 $698 -29.718561590698492 $509 -21.965510193717726 $505 $699 forward 7 unknown #
edge $-1 $510 -9.4647280368149698 $698 -2.4884734274515653e-014 $343 $700 forward 7 unknown #
coedge $-1 $344 $690 $696 $701 forward $498 $-1 #
vertex $-1 $506 $702 #
vertex $-1 $345 $703 #
straight-curve $-1 -12.872497621397567 -63.214419799925786 11.23341272599226 0 1 0 I I #
coedge $-1 $512 $512 $-1 $704 reversed $348 $-1 #
edge $-1 $705 0 $705 6.2831853071796004 $349 $706 forward 7 unknown #
vertex $-1 $352 $707 #
ellipse-curve $-1 -19.877402997817846 -33.858984360845099 7.3568870275018714 0 -0.81915205242281985 0.57357642473473569 1 0 0 1 I I #
coedge $-1 $516 $516 $-1 $708 reversed $355 $-1 #
edge $-1 $709 0 $709 6.2831853071796004 $356 $710 forward 7 unknown #
vertex $-1 $359 $711 #
ellipse-curve $-1 -15.67445977196568 -33.858984360845099 7.3568870275018714 0 -0.81915205242281985 0.57357642473473569 1 0 0 1 I I #
face $-1 $-1 $371 $54 $-1 $712 reversed single #
loop $-1 $-1 $713 $360 #
plane-surface $-1 -54.846644489883118 0 0 1 0 0 0 0 -1 forward_v I I I I #
coedge $-1 $714 $528 $713 $715 forward $361 $-1 #
coedge $-1 $716 $363 $714 $717 forward $227 $-1 #
coedge $-1 $363 $716 $369 $537 forward $227 $-1 #
coedge $-1 $365 $364 $718 $719 forward $145 $-1 #
edge $-1 $372 -54.846644489883118 $720 54.846644489883118 $370 $721 forward 7 unknown #
coedge $-1 $523 $532 $365 $529 reversed $361 $-1 #
edge $-1 $722 -54.846644489883118 $530 54.846644489883118 $528 $723 forward 7 unknown #
vertex $-1 $366 $724 #
straight-curve $-1 54.846644489883118 0 11.23341272599226 0 1 0 I I #
coedge $-1 $528 $714 $367 $533 reversed $361 $-1 #
edge $-1 $530 -11.23341272599226 $534 11.23341272599226 $367 $725 forward 7 unknown #
vertex $-1 $533 $726 #
straight-curve $-1 54.846644489883118 0 -11.23341272599226 0 -1 0 I I #
coedge $-1 $370 $369 $727 $728 reversed $371 $-1 #
edge $-1 $729 -54.846644489883118 $373 54.846644489883118 $369 $730 forward 7 unknown #
point $-1 54.846644489883118 36.573356795066559 11.23341272599226 #
point $-1 54.846644489883118 36.573356795066559 -11.23341272599226 #
face $-1 $-1 $553 $55 $-1 $731 reversed single #
loop $-1 $-1 $732 $375 #
plane-surface $-1 -68.593651160101771 0 4.4906109162946422 1 0 0 0 0 -1 forward_v I I I I #
coedge $-1 $733 $545 $381 $550 reversed $376 $-1 #
coedge $-1 $379 $378 $732 $734 reversed $149 $-1 #
coedge $-1 $543 $735 $378 $546 forward $376 $-1 #
edge $-1 $736 -6.8735033351093264 $548 6.8735033351093264 $378 $737 forward 7 unknown #
edge $-1 $386 -6.8735033351093264 $738 6.8735033351093264 $379 $739 forward 7 unknown #
vertex $-1 $380 $740 #
straight-curve $-1 -54.846644489883118 36.573356795066559 0 0 0 -1 I I #
edge $-1 $554 -36.573356795066559 $548 36.573356795066559 $543 $741 forward 7 unknown #
coedge $-1 $742 $382 $385 $557 reversed $553 $-1 #
coedge $-1 $382 $742 $733 $743 reversed $553 $-1 #
loop $-1 $-1 $382 $540 #
vertex $-1 $383 $744 #
straight-curve $-1 -54.846644489883118 -36.573356795066559 0 0 0 1 I I #
coedge $-1 $385 $384 $745 $746 forward $235 $-1 #
edge $-1 $747 -6.8735033351093264 $387 6.8735033351093264 $551 $748 forward 7 unknown #
point $-1 -54.846644489883118 36.573356795066559 7.6890840969242378 #
point $-1 -54.846644489883118 -36.573356795066559 7.6890840969242378 #
face $-1 $-1 $576 $56 $-1 $749 reversed single #
loop $-1 $-1 $750 $389 #
plane-surface $-1 68.593651160101757 0 4.4906109162946422 -1 0 0 0 0 1 forward_v I I I I #
coedge $-1 $567 $751 $752 $753 forward $390 $-1 #
coedge $-1 $750 $754 $392 $565 reversed $561 $-1 #
edge $-1 $755 -36.573356795066559 $756 36.573356795066559 $564 $757 forward 7 unknown #
coedge $-1 $394 $393 $750 $758 reversed $153 $-1 #
coedge $-1 $572 $563 $393 $568 forward $390 $-1 #
edge $-1 $759 -6.8735033351093193 $570 6.8735033351093264 $393 $760 forward 7 unknown #
edge $-1 $401 -6.8735033351093264 $755 6.8735033351093193 $394 $761 forward 7 unknown #
vertex $-1 $395 $762 #
straight-curve $-1 54.846644489883118 -36.573356795066559 0 0 0 -1 I I #
coedge $-1 $751 $567 $396 $573 reversed $390 $-1 #
edge $-1 $577 -36.573356795066559 $570 36.573356795066559 $572 $763 forward 7 unknown #
coedge $-1 $764 $397 $400 $579 reversed $576 $-1 #
coedge $-1 $397 $764 $751 $765 reversed $576 $-1 #
loop $-1 $-1 $397 $560 #
vertex $-1 $398 $766 #
straight-curve $-1 54.846644489883118 36.573356795066559 0 0 0 1 I I #
edge $-1 $756 -6.8735033351093193 $402 6.8735033351093264 $574 $767 forward 7 unknown #
point $-1 54.846644489883111 -36.573356795066559 7.6890840969242378 #
point $-1 54.846644489883111 36.573356795066559 7.6890840969242378 #
plane-surface $-1 0 0 11.23341272599226 0 0 1 1 0 0 forward_v I I I I #
coedge $-1 $593 $592 $585 $768 forward $405 $-1 #
coedge $-1 $585 $407 $409 $589 reversed $251 $-1 #
coedge $-1 $407 $584 $583 $768 reversed $251 $-1 #
coedge $-1 $415 $410 $407 $587 forward $416 $-1 #
edge $-1 $590 5.2848062135061085 $769 15.637096205798905 $586 $770 forward 7 unknown #
coedge $-1 $409 $408 $593 $771 reversed $157 $-1 #
edge $-1 $772 -73.146713590133118 $590 -60.350579350573909 $584 $773 forward 7 unknown #
vertex $-1 $411 $774 #
straight-curve $-1 -15.599847250968224 26.221066802773773 11.23341272599226 1 0 0 I I #
coedge $-1 $583 $412 $415 $597 reversed $405 $-1 #
coedge $-1 $412 $583 $588 $771 forward $405 $-1 #
vertex $-1 $413 $775 #
straight-curve $-1 -36.687914136656971 36.573356795066559 67.725164021900923 0 0 1 I I #
straight-curve $-1 -36.687914136656971 -22.603577182950772 46.70659368875863 0 0.80901698891910034 -0.5877852598018023 I I #
edge $-1 $769 25.711474867215927 $417 36.687914136656971 $592 $776 forward 7 unknown #
point $-1 -36.687914136656971 36.573356795066559 11.23341272599226 #
point $-1 -36.687914136656971 26.221066802773763 11.23341272599226 #
edge $-1 $777 1 $777 0 $420 $-1 forward 7 unknown #
vertex $-1 $421 $778 #
ellipse-curve $-1 -33.551788631102383 30.459898178656992 6.182621686203662 0 0.5877852598018023 0.80901698891910034 1 0 0 1 I I #
point $-1 -32.551788631102383 31.397211798920175 7.4727231817632447 #
edge $-1 $779 1 $779 0 $424 $-1 forward 7 unknown #
vertex $-1 $425 $780 #
ellipse-curve $-1 -28.847600372770508 30.459898178656992 6.182621686203662 0 0.5877852598018023 0.80901698891910034 1 0 0 1 I I #
point $-1 -27.847600372770508 31.397211798920175 7.4727231817632447 #
loop $-1 $-1 $436 $428 #
plane-surface $-1 0 36.573356795066559 0 0 -1 0 0 0 -1 forward_v I I I I #
coedge $-1 $611 $431 $433 $615 reversed $273 $-1 #
coedge $-1 $431 $610 $781 $782 reversed $273 $-1 #
coedge $-1 $439 $434 $431 $613 forward $429 $-1 #
edge $-1 $616 5.2848062135061085 $783 15.637096205798905 $612 $784 forward 7 unknown #
coedge $-1 $433 $432 $619 $785 reversed $171 $-1 #
edge $-1 $786 -73.146713590133118 $616 -60.350579350573909 $610 $787 forward 7 unknown #
vertex $-1 $435 $788 #
straight-curve $-1 -5.324937796052108 26.221066802773773 11.23341272599226 1 0 0 I I #
coedge $-1 $781 $436 $439 $623 reversed $608 $-1 #
coedge $-1 $436 $781 $614 $785 forward $608 $-1 #
vertex $-1 $437 $789 #
straight-curve $-1 -16.138095226824738 36.573356795066559 67.725164021900923 0 0 1 I I #
straight-curve $-1 -16.138095226824738 -22.603577182950772 46.70659368875863 0 0.80901698891910034 -0.5877852598018023 I I #
edge $-1 $783 5.1616559573836938 $440 16.138095226824738 $618 $790 forward 7 unknown #
point $-1 -16.138095226824738 36.573356795066559 11.23341272599226 #
point $-1 -16.138095226824738 26.221066802773763 11.23341272599226 #
edge $-1 $791 1 $791 0 $443 $-1 forward 7 unknown #
vertex $-1 $444 $792 #
ellipse-curve $-1 -13.001969721270157 30.459898178656992 6.182621686203662 0 0.5877852598018023 0.80901698891910034 1 0 0 1 I I #
point $-1 -12.001969721270157 31.397211798920175 7.4727231817632447 #
edge $-1 $793 1 $793 0 $447 $-1 forward 7 unknown #
vertex $-1 $448 $794 #
ellipse-curve $-1 -8.2977814629382749 30.459898178656992 6.182621686203662 0 0.5877852598018023 0.80901698891910034 1 0 0 1 I I #
point $-1 -7.2977814629382749 31.397211798920175 7.4727231817632447 #
loop $-1 $-1 $459 $451 #
plane-surface $-1 0 36.573356795066559 0 0 -1 0 0 0 -1 forward_v I I I I #
coedge $-1 $637 $454 $456 $641 reversed $295 $-1 #
coedge $-1 $454 $636 $795 $796 reversed $295 $-1 #
coedge $-1 $462 $457 $454 $639 forward $452 $-1 #
edge $-1 $642 5.2848062135061085 $797 15.637096205798905 $638 $798 forward 7 unknown #
coedge $-1 $456 $455 $645 $799 reversed $185 $-1 #
edge $-1 $800 -73.146713590133118 $642 -60.350579350573909 $636 $801 forward 7 unknown #
vertex $-1 $458 $802 #
straight-curve $-1 4.9499716588640084 26.221066802773773 11.23341272599226 1 0 0 I I #
coedge $-1 $795 $459 $462 $649 reversed $634 $-1 #
coedge $-1 $459 $795 $640 $799 forward $634 $-1 #
vertex $-1 $460 $803 #
straight-curve $-1 4.4117236830074944 36.573356795066559 67.725164021900923 0 0 1 I I #
straight-curve $-1 4.4117236830074944 -22.603577182950772 46.70659368875863 0 0.80901698891910034 -0.5877852598018023 I I #
edge $-1 $797 -15.388162952448539 $463 -4.4117236830074944 $644 $804 forward 7 unknown #
point $-1 4.4117236830074944 36.573356795066559 11.23341272599226 #
point $-1 4.4117236830074944 26.221066802773763 11.23341272599226 #
edge $-1 $805 1 $805 0 $466 $-1 forward 7 unknown #
vertex $-1 $467 $806 #
ellipse-curve $-1 7.5478491885620755 30.459898178656992 6.182621686203662 0 0.5877852598018023 0.80901698891910034 1 0 0 1 I I #
point $-1 8.5478491885620755 31.397211798920175 7.4727231817632447 #
edge $-1 $807 1 $807 0 $470 $-1 forward 7 unknown #
vertex $-1 $471 $808 #
ellipse-curve $-1 12.252037446893951 30.459898178656992 6.182621686203662 0 0.5877852598018023 0.80901698891910034 1 0 0 1 I I #
point $-1 13.252037446893951 31.397211798920175 7.4727231817632447 #
loop $-1 $-1 $482 $474 #
plane-surface $-1 0 36.573356795066559 0 0 -1 0 0 0 -1 forward_v I I I I #
coedge $-1 $663 $477 $479 $667 reversed $317 $-1 #
coedge $-1 $477 $662 $809 $810 reversed $317 $-1 #
coedge $-1 $485 $480 $477 $665 forward $475 $-1 #
edge $-1 $668 5.2848062135061085 $811 15.637096205798905 $664 $812 forward 7 unknown #
coedge $-1 $479 $478 $671 $813 reversed $199 $-1 #
edge $-1 $814 -73.146713590133118 $668 -60.350579350573909 $662 $815 forward 7 unknown #
vertex $-1 $481 $816 #
straight-curve $-1 15.224881113780128 26.221066802773773 11.23341272599226 1 0 0 I I #
coedge $-1 $809 $482 $485 $675 reversed $660 $-1 #
coedge $-1 $482 $809 $666 $813 forward $660 $-1 #
vertex $-1 $483 $817 #
straight-curve $-1 24.961542592839734 36.573356795066559 67.725164021900923 0 0 1 I I #
straight-curve $-1 24.961542592839734 -22.603577182950772 46.70659368875863 0 0.80901698891910034 -0.5877852598018023 I I #
edge $-1 $811 -35.937981862280779 $486 -24.961542592839734 $670 $818 forward 7 unknown #
point $-1 24.961542592839734 36.573356795066559 11.23341272599226 #
point $-1 24.961542592839734 26.221066802773763 11.23341272599226 #
edge $-1 $819 1 $819 0 $489 $-1 forward 7 unknown #
vertex $-1 $490 $820 #
ellipse-curve $-1 28.097668098394308 30.459898178656992 6.182621686203662 0 0.5877852598018023 0.80901698891910034 1 0 0 1 I I #
point $-1 29.097668098394308 31.397211798920175 7.4727231817632447 #
edge $-1 $821 1 $821 0 $493 $-1 forward 7 unknown #
vertex $-1 $494 $822 #
ellipse-curve $-1 32.801856356726177 30.459898178656992 6.182621686203662 0 0.5877852598018023 0.80901698891910034 1 0 0 1 I I #
point $-1 33.801856356726177 31.397211798920175 7.4727231817632447 #
loop $-1 $-1 $505 $497 #
plane-surface $-1 0 -36.573356795066559 0 0 1 0 0 0 1 forward_v I I I I #
coedge $-1 $689 $500 $502 $693 reversed $339 $-1 #
coedge $-1 $500 $688 $823 $824 reversed $339 $-1 #
coedge $-1 $508 $503 $500 $691 forward $498 $-1 #
edge $-1 $694 -32.069807873302153 $825 -26.641063004859227 $690 $826 forward 7 unknown #
coedge $-1 $502 $501 $697 $827 reversed $213 $-1 #
edge $-1 $828 2.4884734274515653e-014 $694 9.4647280368149698 $688 $829 forward 7 unknown #
vertex $-1 $504 $830 #
straight-curve $-1 -8.8879656924458814 -31.144611926623636 11.23341272599226 -1 0 0 I I #
coedge $-1 $823 $505 $508 $701 reversed $686 $-1 #
coedge $-1 $505 $823 $692 $827 forward $686 $-1 #
vertex $-1 $506 $831 #
straight-curve $-1 -12.872497621397567 -36.573356795066559 33.198922919709986 0 0 1 I I #
straight-curve $-1 -12.872497621397567 -36.573356795066573 3.4803613290114725 0 -0.57357642473473569 -0.81915205242281985 I I #
edge $-1 $825 -22.679365148385958 $509 -12.872497621397567 $696 $832 forward 7 unknown #
point $-1 -12.872497621397567 -36.573356795066559 11.23341272599226 #
point $-1 -12.872497621397567 -31.144611926623629 11.23341272599226 #
edge $-1 $833 1 $833 0 $512 $-1 forward 7 unknown #
vertex $-1 $513 $834 #
ellipse-curve $-1 -19.877402997817846 -31.760293153200333 5.8873676678875864 0 -0.81915205242281985 0.57357642473473569 1 0 0 1 I I #
point $-1 -18.877402997817846 -33.858984360845092 7.3568870275018652 #
edge $-1 $835 1 $835 0 $516 $-1 forward 7 unknown #
vertex $-1 $517 $836 #
ellipse-curve $-1 -15.67445977196568 -31.760293153200333 5.8873676678875864 0 -0.81915205242281985 0.57357642473473569 1 0 0 1 I I #
point $-1 -14.67445977196568 -33.858984360845092 7.3568870275018652 #
plane-surface $-1 0 36.573356795066559 0 0 -1 0 0 0 -1 forward_v I I I I #
coedge $-1 $718 $837 $523 $715 reversed $521 $-1 #
coedge $-1 $532 $523 $524 $717 reversed $361 $-1 #
edge $-1 $722 -11.23341272599226 $838 11.23341272599226 $713 $839 forward 7 unknown #
coedge $-1 $525 $524 $837 $840 forward $227 $-1 #
edge $-1 $534 -54.846644489883118 $838 54.846644489883118 $714 $841 forward 7 unknown #
coedge $-1 $727 $713 $526 $719 reversed $521 $-1 #
edge $-1 $720 -36.573356795066559 $722 36.573356795066559 $718 $842 forward 7 unknown #
vertex $-1 $527 $843 #
straight-curve $-1 0 36.573356795066559 11.23341272599226 -1 0 0 I I #
vertex $-1 $719 $844 #
straight-curve $-1 0 -36.573356795066559 11.23341272599226 1 0 0 I I #
point $-1 54.846644489883118 -36.573356795066559 11.23341272599226 #
straight-curve $-1 54.846644489883118 -36.573356795066559 0 0 0 -1 I I #
point $-1 54.846644489883118 -36.573356795066559 -11.23341272599226 #
coedge $-1 $837 $718 $536 $728 forward $521 $-1 #
edge $-1 $720 -11.23341272599226 $729 11.23341272599226 $536 $845 forward 7 unknown #
vertex $-1 $537 $846 #
straight-curve $-1 0 36.573356795066559 -11.23341272599226 1 0 0 I I #
plane-surface $-1 0 -36.573356795066559 0 0 1 0 0 0 1 forward_v I I I I #
coedge $-1 $847 $745 $544 $734 forward $541 $-1 #
coedge $-1 $735 $543 $552 $743 forward $376 $-1 #
edge $-1 $738 -3.1984731806295956 $736 3.1984731806295956 $544 $848 forward 7 unknown #
coedge $-1 $545 $733 $847 $849 forward $376 $-1 #
vertex $-1 $546 $850 #
straight-curve $-1 -61.720147824992445 36.573356795066559 1.2921377356650465 1 0 0 I I #
vertex $-1 $547 $851 #
straight-curve $-1 -61.720147824992445 36.573356795066559 7.6890840969242378 -1 0 0 I I #
point $-1 -54.846644489883118 36.573356795066559 1.2921377356650465 #
straight-curve $-1 -54.846644489883118 0 1.2921377356650465 0 1 0 I I #
coedge $-1 $552 $551 $852 $853 forward $553 $-1 #
edge $-1 $554 -6.8735033351093264 $854 6.8735033351093264 $552 $855 forward 7 unknown #
point $-1 -54.846644489883118 -36.573356795066559 1.2921377356650465 #
coedge $-1 $732 $852 $556 $746 reversed $541 $-1 #
edge $-1 $738 -36.573356795066559 $747 36.573356795066559 $745 $856 forward 7 unknown #
vertex $-1 $746 $857 #
straight-curve $-1 -61.720147824992445 -36.573356795066559 7.6890840969242378 1 0 0 I I #
plane-surface $-1 0 36.573356795066559 0 0 -1 0 0 0 -1 forward_v I I I I #
coedge $-1 $752 $564 $566 $758 forward $561 $-1 #
coedge $-1 $563 $572 $575 $765 forward $390 $-1 #
coedge $-1 $754 $750 $563 $753 reversed $561 $-1 #
edge $-1 $858 -36.573356795066559 $759 36.573356795066559 $752 $859 forward 7 unknown #
coedge $-1 $564 $752 $764 $860 reversed $561 $-1 #
vertex $-1 $565 $861 #
vertex $-1 $565 $862 #
straight-curve $-1 68.593651160101757 0 7.6890840969242378 0 1 0 I I #
edge $-1 $755 -3.1984731806295956 $759 3.1984731806295956 $750 $863 forward 7 unknown #
vertex $-1 $758 $864 #
straight-curve $-1 61.720147824992438 -36.573356795066559 1.2921377356650465 -1 0 0 I I #
straight-curve $-1 61.720147824992438 -36.573356795066559 7.6890840969242378 1 0 0 I I #
point $-1 54.846644489883111 -36.573356795066559 1.2921377356650465 #
straight-curve $-1 54.846644489883118 0 1.2921377356650465 0 -1 0 I I #
coedge $-1 $575 $574 $754 $860 forward $576 $-1 #
edge $-1 $577 -6.8735033351093264 $858 6.8735033351093193 $575 $865 forward 7 unknown #
point $-1 54.846644489883111 36.573356795066559 1.2921377356650465 #
straight-curve $-1 61.720147824992438 36.573356795066559 7.6890840969242378 -1 0 0 I I #
edge $-1 $769 56.491751295908664 $772 64.013130384366718 $583 $866 forward 7 unknown #
vertex $-1 $597 $867 #
straight-curve $-1 -25.711474867215927 20.936260589267654 11.23341272599226 0 1 0 I I #
edge $-1 $772 10.111627616247702 $594 21.088066885688747 $593 $868 forward 7 unknown #
vertex $-1 $771 $869 #
straight-curve $-1 -25.711474867215927 -22.603577182950772 46.70659368875863 0 -0.80901698891910034 0.5877852598018023 I I #
point $-1 -25.711474867215927 26.221066802773763 11.23341272599226 #
point $-1 -36.687914136656971 36.573356795066559 3.712033637534212 #
straight-curve $-1 0 36.573356795066559 11.23341272599226 -1 0 0 I I #
vertex $-1 $600 $870 #
point $-1 -32.551788631102383 30.459898178656992 6.182621686203662 #
vertex $-1 $604 $871 #
point $-1 -27.847600372770508 30.459898178656992 6.182621686203662 #
coedge $-1 $619 $618 $611 $782 forward $608 $-1 #
edge $-1 $783 56.491751295908664 $786 64.013130384366718 $781 $872 forward 7 unknown #
vertex $-1 $623 $873 #
straight-curve $-1 -5.1616559573836938 20.936260589267654 11.23341272599226 0 1 0 I I #
edge $-1 $786 -0.16328183866841428 $620 10.81315743077263 $619 $874 forward 7 unknown #
vertex $-1 $785 $875 #
straight-curve $-1 -5.1616559573836938 -22.603577182950772 46.70659368875863 0 -0.80901698891910034 0.5877852598018023 I I #
point $-1 -5.1616559573836938 26.221066802773763 11.23341272599226 #
point $-1 -16.138095226824738 36.573356795066559 3.712033637534212 #
straight-curve $-1 0 36.573356795066559 11.23341272599226 -1 0 0 I I #
vertex $-1 $626 $876 #
point $-1 -12.001969721270157 30.459898178656992 6.182621686203662 #
vertex $-1 $630 $877 #
point $-1 -7.2977814629382749 30.459898178656992 6.182621686203662 #
coedge $-1 $645 $644 $637 $796 forward $634 $-1 #
edge $-1 $797 56.491751295908664 $800 64.013130384366718 $795 $878 forward 7 unknown #
vertex $-1 $649 $879 #
straight-curve $-1 15.388162952448539 20.936260589267654 11.23341272599226 0 1 0 I I #
edge $-1 $800 -10.438191293584531 $646 0.53824797585651396 $645 $880 forward 7 unknown #
vertex $-1 $799 $881 #
straight-curve $-1 15.388162952448539 -22.603577182950772 46.70659368875863 0 -0.80901698891910034 0.5877852598018023 I I #
point $-1 15.388162952448539 26.221066802773763 11.23341272599226 #
point $-1 4.4117236830074944 36.573356795066559 3.712033637534212 #
straight-curve $-1 0 36.573356795066559 11.23341272599226 -1 0 0 I I #
vertex $-1 $652 $882 #
point $-1 8.5478491885620755 30.459898178656992 6.182621686203662 #
vertex $-1 $656 $883 #
point $-1 13.252037446893951 30.459898178656992 6.182621686203662 #
coedge $-1 $671 $670 $663 $810 forward $660 $-1 #
edge $-1 $811 56.491751295908664 $814 64.013130384366718 $809 $884 forward 7 unknown #
vertex $-1 $675 $885 #
straight-curve $-1 35.937981862280779 20.936260589267654 11.23341272599226 0 1 0 I I #
edge $-1 $814 -20.713100748500651 $672 -9.736661479059606 $671 $886 forward 7 unknown #
vertex $-1 $813 $887 #
straight-curve $-1 35.937981862280779 -22.603577182950772 46.70659368875863 0 -0.80901698891910034 0.5877852598018023 I I #
point $-1 35.937981862280779 26.221066802773763 11.23341272599226 #
point $-1 24.961542592839734 36.573356795066559 3.712033637534212 #
straight-curve $-1 0 36.573356795066559 11.23341272599226 -1 0 0 I I #
vertex $-1 $678 $888 #
point $-1 29.097668098394308 30.459898178656992 6.182621686203662 #
vertex $-1 $682 $889 #
point $-1 33.801856356726177 30.459898178656992 6.182621686203662 #
coedge $-1 $697 $696 $689 $824 forward $686 $-1 #
edge $-1 $825 21.965510193717726 $828 29.718561590698492 $823 $890 forward 7 unknown #
vertex $-1 $701 $891 #
straight-curve $-1 -22.679365148385958 -63.214419799925786 11.23341272599226 0 -1 0 I I #
edge $-1 $828 -13.791399455940077 $698 -3.9845319289516858 $697 $892 forward 7 unknown #
vertex $-1 $827 $893 #
straight-curve $-1 -22.679365148385958 -36.573356795066573 3.4803613290114725 0 0.57357642473473569 0.81915205242281985 I I #
point $-1 -22.679365148385958 -31.144611926623629 11.23341272599226 #
point $-1 -12.872497621397567 -36.573356795066559 3.480361329011493 #
straight-curve $-1 0 -36.573356795066559 11.23341272599226 1 0 0 I I #
vertex $-1 $704 $894 #
point $-1 -18.877402997817846 -31.760293153200333 5.8873676678875864 #
vertex $-1 $708 $895 #
point $-1 -14.67445977196568 -31.760293153200333 5.8873676678875864 #
coedge $-1 $713 $727 $716 $840 reversed $521 $-1 #
vertex $-1 $840 $896 #
straight-curve $-1 -54.846644489883118 -36.573356795066559 0 0 0 -1 I I #
edge $-1 $838 -36.573356795066559 $729 36.573356795066559 $837 $897 forward 7 unknown #
straight-curve $-1 0 -36.573356795066559 -11.23341272599226 -1 0 0 I I #
straight-curve $-1 -54.846644489883118 0 11.23341272599226 0 -1 0 I I #
point $-1 -54.846644489883118 36.573356795066559 11.23341272599226 #
point $-1 -54.846644489883118 -36.573356795066559 11.23341272599226 #
straight-curve $-1 -54.846644489883118 36.573356795066559 0 0 0 -1 I I #
point $-1 -54.846644489883118 36.573356795066559 -11.23341272599226 #
coedge $-1 $852 $732 $735 $849 reversed $541 $-1 #
straight-curve $-1 -68.593651160101771 36.573356795066559 4.4906109162946422 0 0 -1 I I #
edge $-1 $854 -36.573356795066559 $736 36.573356795066559 $847 $898 forward 7 unknown #
point $-1 -68.593651160101771 36.573356795066559 1.2921377356650465 #
point $-1 -68.593651160101771 36.573356795066559 7.6890840969242378 #
coedge $-1 $745 $847 $742 $853 reversed $541 $-1 #
edge $-1 $747 -3.1984731806295956 $854 3.1984731806295956 $852 $899 forward 7 unknown #
vertex $-1 $849 $900 #
straight-curve $-1 -61.720147824992445 -36.573356795066559 1.2921377356650465 -1 0 0 I I #
straight-curve $-1 -68.593651160101771 0 7.6890840969242378 0 -1 0 I I #
point $-1 -68.593651160101771 -36.573356795066559 7.6890840969242378 #
vertex $-1 $753 $901 #
straight-curve $-1 68.593651160101757 0 1.2921377356650465 0 -1 0 I I #
edge $-1 $756 -3.1984731806295956 $858 3.1984731806295956 $754 $902 forward 7 unknown #
point $-1 68.593651160101757 -36.573356795066559 7.6890840969242378 #
point $-1 68.593651160101757 36.573356795066559 7.6890840969242378 #
straight-curve $-1 68.593651160101757 -36.573356795066559 4.4906109162946422 0 0 -1 I I #
point $-1 68.593651160101757 -36.573356795066559 1.2921377356650465 #
straight-curve $-1 61.720147824992438 36.573356795066559 1.2921377356650465 1 0 0 I I #
straight-curve $-1 -25.711474867215927 36.573356795066559 67.725164021900923 0 0 -1 I I #
point $-1 -25.711474867215927 36.573356795066559 11.23341272599226 #
straight-curve $-1 -15.599847250968224 36.573356795066559 3.712033637534212 -1 0 0 I I #
point $-1 -25.711474867215927 36.573356795066559 3.712033637534212 #
point $-1 -33.551788631102383 29.872112918855187 5.373604697284561 #
point $-1 -28.847600372770508 29.872112918855187 5.373604697284561 #
straight-curve $-1 -5.1616559573836938 36.573356795066559 67.725164021900923 0 0 -1 I I #
point $-1 -5.1616559573836938 36.573356795066559 11.23341272599226 #
straight-curve $-1 -5.324937796052108 36.573356795066559 3.712033637534212 -1 0 0 I I #
point $-1 -5.1616559573836938 36.573356795066559 3.712033637534212 #
point $-1 -13.001969721270157 29.872112918855187 5.373604697284561 #
point $-1 -8.2977814629382749 29.872112918855187 5.373604697284561 #
straight-curve $-1 15.388162952448539 36.573356795066559 67.725164021900923 0 0 -1 I I #
point $-1 15.388162952448539 36.573356795066559 11.23341272599226 #
straight-curve $-1 4.9499716588640084 36.573356795066559 3.712033637534212 -1 0 0 I I #
point $-1 15.388162952448539 36.573356795066559 3.712033637534212 #
point $-1 7.5478491885620755 29.872112918855187 5.373604697284561 #
point $-1 12.252037446893951 29.872112918855187 5.373604697284561 #
straight-curve $-1 35.937981862280779 36.573356795066559 67.725164021900923 0 0 -1 I I #
point $-1 35.937981862280779 36.573356795066559 11.23341272599226 #
straight-curve $-1 15.224881113780128 36.573356795066559 3.712033637534212 -1 0 0 I I #
point $-1 35.937981862280779 36.573356795066559 3.712033637534212 #
point $-1 28.097668098394308 29.872112918855187 5.373604697284561 #
point $-1 32.801856356726177 29.872112918855187 5.373604697284561 #
straight-curve $-1 -22.679365148385958 -36.573356795066559 33.198922919709986 0 0 -1 I I #
point $-1 -22.679365148385958 -36.573356795066559 11.23341272599226 #
straight-curve $-1 -8.8879656924458814 -36.573356795066559 3.4803613290114956 1 0 0 I I #
point $-1 -22.679365148385958 -36.573356795066559 3.480361329011493 #
point $-1 -19.877402997817846 -30.941141100777511 5.3137912431528509 #
point $-1 -15.67445977196568 -30.941141100777511 5.3137912431528509 #
point $-1 -54.846644489883118 -36.573356795066559 -11.23341272599226 #
straight-curve $-1 -54.846644489883118 0 -11.23341272599226 0 1 0 I I #
straight-curve $-1 -68.593651160101771 0 1.2921377356650465 0 1 0 I I #
straight-curve $-1 -68.593651160101771 -36.573356795066559 4.4906109162946422 0 0 -1 I I #
point $-1 -68.593651160101771 -36.573356795066559 1.2921377356650465 #
point $-1 68.593651160101757 36.573356795066559 1.2921377356650465 #
straight-curve $-1 68.593651160101757 36.573356795066559 4.4906109162946422 0 0 -1 I I #
End-of-ACIS-data 