500 0 4 0           
7 Unknown 11 ACIS 5.0 NT 24 Fri Mar 26 03:25:39 1999 
-1 9.9999999999999995e-007 1e-010 
body $-1 $4 $-1 $5 #
body $-1 $6 $-1 $7 #
body $-1 $8 $-1 $9 #
body $-1 $10 $-1 $11 #
lump $-1 $-1 $12 $0 #
transform $-1 1 0 0 0 1 0 0 0 1 71.166722617267368 28.919530676158946 13.961460121863176 1 rotate no_reflect no_shear #
lump $-1 $-1 $13 $1 #
transform $-1 1 0 0 0 1 0 0 0 1 71.166722617267368 28.919530676158946 13.961460121863176 1 rotate no_reflect no_shear #
lump $-1 $-1 $14 $2 #
transform $-1 1 0 0 0 1 0 0 0 1 71.166722617267368 28.919530676158946 13.961460121863176 1 rotate no_reflect no_shear #
lump $-1 $-1 $15 $3 #
transform $-1 1 0 0 0 1 0 0 0 1 71.166722617267368 28.919530676158946 13.961460121863176 1 rotate no_reflect no_shear #
shell $-1 $-1 $-1 $16 $-1 $4 #
shell $-1 $-1 $-1 $17 $-1 $6 #
shell $-1 $-1 $-1 $18 $-1 $8 #
shell $-1 $-1 $-1 $19 $-1 $10 #
face $-1 $20 $21 $12 $-1 $22 forward single #
face $-1 $23 $24 $13 $-1 $25 reversed single #
face $-1 $26 $27 $14 $-1 $28 reversed single #
face $-1 $29 $30 $15 $-1 $31 forward single #
face $-1 $32 $33 $12 $-1 $34 reversed single #
loop $-1 $-1 $35 $16 #
plane-surface $-1 0 0 13.961460121863176 0 0 1 1 0 0 forward_v I I I I #
face $-1 $36 $37 $13 $-1 $38 reversed single #
loop $-1 $-1 $39 $17 #
plane-surface $-1 -65.79636455564544 0 5.7528015986006622 0 0 1 1 0 0 forward_v I I I I #
face $-1 $40 $41 $14 $-1 $42 reversed single #
loop $-1 $-1 $43 $18 #
plane-surface $-1 71.166724952743692 25.875745865479708 205.07038305537003 0 -1 0 -0.70710678939079041 0 -0.70710677298230451 forward_v I I I I #
face $-1 $44 $45 $15 $-1 $46 forward single #
loop $-1 $47 $48 $19 #
cone-surface $-1 64.989424930630079 19.314368100943792 7.7841623423203608 -0.70710678939079041 0 -0.70710677298230451 1.0606601594734568 0 -1.0606601840861856 1 I I 0 1 1.5 forward I I I I #
face $-1 $49 $50 $12 $-1 $51 reversed single #
loop $-1 $-1 $52 $20 #
plane-surface $-1 0 0 -13.961460121863176 0 0 1 1 0 0 forward_v I I I I #
coedge $-1 $53 $54 $55 $56 forward $21 $-1 #
face $-1 $57 $58 $13 $-1 $59 reversed single #
loop $-1 $-1 $60 $23 #
plane-surface $-1 -60.426006494023504 0 9.8571308602319192 -1 0 0 0 0 1 forward_v I I I I #
coedge $-1 $61 $62 $63 $64 forward $24 $-1 #
face $-1 $65 $66 $14 $-1 $67 reversed single #
loop $-1 $-1 $68 $26 #
plane-surface $-1 -29.47822052997806 19.314368100943792 104.4254399081246 0.70710678939079041 0 0.70710677298230451 0.70710677298230451 0 -0.70710678939079041 forward_v I I I I #
coedge $-1 $69 $70 $71 $72 reversed $27 $-1 #
face $-1 $-1 $73 $15 $-1 $74 forward single #
loop $-1 $75 $76 $29 #
cone-surface $-1 63.372279882054698 19.314368100943792 6.1670173312709906 -0.70710678939079041 0 -0.70710677298230451 0.53033007973672841 0 -0.53033009204309278 1 I I -0.70710678118654757 0.70710678118654757 0.75 forward I I I I #
loop $-1 $-1 $77 $19 #
coedge $-1 $48 $48 $78 $79 reversed $30 $-1 #
face $-1 $80 $81 $12 $-1 $82 reversed single #
loop $-1 $-1 $83 $32 #
plane-surface $-1 0 -28.919530676158946 0 0 1 0 0 0 1 forward_v I I I I #
coedge $-1 $84 $85 $86 $87 forward $33 $-1 #
coedge $-1 $88 $35 $89 $90 forward $21 $-1 #
coedge $-1 $35 $88 $91 $92 forward $21 $-1 #
coedge $-1 $93 $94 $35 $56 reversed $95 $-1 #
edge $-1 $96 -28.919530676158946 $97 28.919530676158946 $55 $98 forward 7 unknown #
face $-1 $99 $100 $13 $-1 $101 reversed single #
loop $-1 $-1 $102 $36 #
plane-surface $-1 0 28.919530676158946 0 0 -1 0 0 0 -1 forward_v I I I I #
coedge $-1 $63 $103 $104 $105 reversed $37 $-1 #
coedge $-1 $106 $39 $107 $108 reversed $24 $-1 #
coedge $-1 $39 $106 $109 $110 reversed $24 $-1 #
coedge $-1 $111 $60 $39 $64 reversed $37 $-1 #
edge $-1 $112 -28.919530676158946 $113 28.919530676158946 $63 $114 forward 7 unknown #
face $-1 $115 $116 $14 $-1 $117 forward single #
loop $-1 $-1 $118 $40 #
plane-surface $-1 71.166724952743692 12.752990336407876 205.07038305537003 0 1 0 0.70710678939079041 0 0.70710677298230451 forward_v I I I I #
coedge $-1 $119 $120 $121 $122 reversed $41 $-1 #
coedge $-1 $70 $43 $123 $124 reversed $27 $-1 #
coedge $-1 $43 $69 $119 $125 reversed $27 $-1 #
coedge $-1 $121 $126 $43 $72 forward $116 $-1 #
edge $-1 $127 -35.583360140895522 $128 -25.402394680685561 $71 $129 forward 7 unknown #
loop $-1 $-1 $78 $44 #
plane-surface $-1 -29.47822052997806 19.314368100943792 104.4254399081246 0.70710678939079041 0 0.70710677298230451 0.70710677298230451 0 -0.70710678939079041 forward_v I I I I #
loop $-1 $-1 $130 $29 #
coedge $-1 $76 $76 $77 $131 reversed $45 $-1 #
coedge $-1 $77 $77 $76 $131 forward $47 $-1 #
coedge $-1 $78 $78 $48 $79 forward $73 $-1 #
edge $-1 $132 0 $132 6.2831853071796004 $78 $133 forward 7 unknown #
face $-1 $134 $135 $12 $-1 $136 reversed single #
loop $-1 $-1 $137 $49 #
plane-surface $-1 -71.166722617267368 0 0 1 0 0 0 0 -1 forward_v I I I I #
coedge $-1 $138 $91 $139 $140 forward $50 $-1 #
coedge $-1 $141 $52 $138 $142 forward $33 $-1 #
coedge $-1 $52 $141 $143 $144 forward $33 $-1 #
coedge $-1 $94 $93 $52 $87 reversed $95 $-1 #
edge $-1 $145 -28.919530676158946 $146 28.919530676158946 $86 $147 forward 7 unknown #
coedge $-1 $54 $53 $148 $149 forward $21 $-1 #
coedge $-1 $150 $151 $53 $90 reversed $135 $-1 #
edge $-1 $97 -71.166722617267368 $152 71.166722617267368 $89 $153 forward 7 unknown #
coedge $-1 $83 $154 $54 $92 reversed $50 $-1 #
edge $-1 $155 -71.166722617267368 $96 71.166722617267368 $91 $156 forward 7 unknown #
coedge $-1 $86 $55 $154 $157 forward $95 $-1 #
coedge $-1 $55 $86 $150 $158 reversed $95 $-1 #
loop $-1 $-1 $93 $134 #
vertex $-1 $56 $159 #
vertex $-1 $56 $160 #
straight-curve $-1 71.166722617267368 0 13.961460121863176 0 1 0 I I #
face $-1 $161 $162 $13 $-1 $163 forward single #
loop $-1 $-1 $164 $57 #
plane-surface $-1 -71.166722617267368 0 0 1 0 0 0 0 -1 forward_v I I I I #
coedge $-1 $109 $165 $111 $166 forward $58 $-1 #
coedge $-1 $60 $111 $167 $168 reversed $37 $-1 #
coedge $-1 $169 $107 $60 $105 forward $170 $-1 #
edge $-1 $113 0.8242361684847026 $171 9.0328946917472166 $104 $172 forward 7 unknown #
coedge $-1 $62 $61 $164 $173 reversed $24 $-1 #
coedge $-1 $104 $174 $61 $108 forward $170 $-1 #
edge $-1 $175 -38.268540339444648 $113 -27.527824216200784 $107 $176 forward 7 unknown #
coedge $-1 $177 $102 $62 $110 forward $58 $-1 #
edge $-1 $112 27.527824216200784 $178 38.268540339444648 $109 $179 forward 7 unknown #
coedge $-1 $103 $63 $102 $166 reversed $37 $-1 #
vertex $-1 $110 $180 #
vertex $-1 $108 $181 #
straight-curve $-1 -60.426006494023504 0 5.7528015986006622 0 -1 0 I I #
face $-1 $-1 $182 $14 $-1 $183 reversed single #
loop $-1 $-1 $71 $65 #
plane-surface $-1 0 0 13.961460121863176 0 0 1 1 0 0 forward_v I I I I #
coedge $-1 $184 $185 $186 $187 reversed $66 $-1 #
coedge $-1 $188 $68 $70 $125 forward $41 $-1 #
coedge $-1 $68 $188 $184 $189 forward $41 $-1 #
coedge $-1 $186 $71 $68 $122 forward $116 $-1 #
edge $-1 $128 -16.21856181500781 $190 -3.0958062859359803 $121 $191 forward 7 unknown #
coedge $-1 $192 $193 $69 $124 forward $182 $-1 #
edge $-1 $194 -98.754697102282165 $127 -88.573731405821832 $123 $195 forward 7 unknown #
edge $-1 $128 127.93538563559956 $194 142.33344523453479 $70 $196 forward 7 unknown #
coedge $-1 $71 $186 $192 $197 forward $116 $-1 #
vertex $-1 $124 $198 #
vertex $-1 $72 $199 #
straight-curve $-1 35.583362476371846 25.875745865479708 13.961460121863183 -1 0 0 I I #
coedge $-1 $130 $130 $-1 $200 reversed $75 $-1 #
edge $-1 $201 0 $201 6.2831853071796004 $76 $202 forward 7 unknown #
vertex $-1 $79 $203 #
ellipse-curve $-1 66.076239887162387 19.314368100943792 8.8709772736330113 0.70710678939079041 0 0.70710677298230451 1.0606601594734568 0 -1.0606601840861856 1 I I #
face $-1 $-1 $95 $12 $-1 $204 reversed single #
loop $-1 $-1 $150 $80 #
plane-surface $-1 0 28.919530676158946 0 0 -1 0 0 0 -1 forward_v I I I I #
coedge $-1 $205 $148 $151 $206 forward $81 $-1 #
coedge $-1 $154 $83 $84 $142 reversed $50 $-1 #
coedge $-1 $148 $205 $83 $140 reversed $81 $-1 #
edge $-1 $155 -13.961460121863176 $207 13.961460121863176 $139 $208 forward 7 unknown #
coedge $-1 $85 $84 $205 $209 forward $33 $-1 #
edge $-1 $146 -71.166722617267368 $207 71.166722617267368 $138 $210 forward 7 unknown #
coedge $-1 $151 $150 $85 $144 reversed $135 $-1 #
edge $-1 $211 -71.166722617267368 $145 71.166722617267368 $143 $212 forward 7 unknown #
vertex $-1 $87 $213 #
vertex $-1 $157 $214 #
straight-curve $-1 71.166722617267368 0 -13.961460121863176 0 -1 0 I I #
coedge $-1 $137 $139 $88 $149 reversed $81 $-1 #
edge $-1 $152 -28.919530676158946 $155 28.919530676158946 $148 $215 forward 7 unknown #
coedge $-1 $143 $89 $94 $158 forward $135 $-1 #
coedge $-1 $89 $143 $137 $206 reversed $135 $-1 #
vertex $-1 $90 $216 #
straight-curve $-1 0 28.919530676158946 13.961460121863176 -1 0 0 I I #
coedge $-1 $91 $138 $93 $157 reversed $50 $-1 #
vertex $-1 $149 $217 #
straight-curve $-1 0 -28.919530676158946 13.961460121863176 1 0 0 I I #
edge $-1 $96 -13.961460121863176 $146 13.961460121863176 $93 $218 forward 7 unknown #
edge $-1 $97 -13.961460121863176 $145 13.961460121863176 $94 $219 forward 7 unknown #
point $-1 71.166722617267368 -28.919530676158946 13.961460121863176 #
point $-1 71.166722617267368 28.919530676158946 13.961460121863176 #
face $-1 $-1 $170 $13 $-1 $220 reversed single #
loop $-1 $-1 $167 $99 #
plane-surface $-1 0 0 13.961460121863176 0 0 1 1 0 0 forward_v I I I I #
coedge $-1 $221 $222 $106 $173 forward $100 $-1 #
coedge $-1 $102 $177 $223 $224 reversed $58 $-1 #
edge $-1 $225 -9.0328946917472166 $112 -0.8242361684847026 $102 $226 forward 7 unknown #
coedge $-1 $223 $227 $103 $168 forward $162 $-1 #
edge $-1 $171 -28.919530676158946 $225 28.919530676158946 $167 $228 forward 7 unknown #
coedge $-1 $174 $104 $227 $229 reversed $170 $-1 #
loop $-1 $-1 $104 $161 #
vertex $-1 $105 $230 #
straight-curve $-1 -60.426006494023504 -28.919530676158946 4.9285654301159596 0 0 1 I I #
edge $-1 $178 -28.919530676158946 $175 28.919530676158946 $164 $231 forward 7 unknown #
coedge $-1 $107 $169 $221 $232 forward $170 $-1 #
vertex $-1 $173 $233 #
straight-curve $-1 -32.89818227782272 -28.919530676158946 5.7528015986006622 1 0 0 I I #
coedge $-1 $165 $109 $222 $234 reversed $58 $-1 #
vertex $-1 $173 $235 #
straight-curve $-1 -32.89818227782272 28.919530676158946 5.7528015986006622 -1 0 0 I I #
point $-1 -60.426006494023504 28.919530676158946 5.7528015986006622 #
point $-1 -60.426006494023504 -28.919530676158946 5.7528015986006622 #
loop $-1 $-1 $123 $115 #
plane-surface $-1 71.166722617267368 0 0 -1 0 0 0 0 1 forward_v I I I I #
coedge $-1 $185 $118 $120 $189 reversed $66 $-1 #
coedge $-1 $118 $184 $236 $237 reversed $66 $-1 #
coedge $-1 $126 $121 $118 $187 forward $116 $-1 #
edge $-1 $190 25.402394680685561 $238 35.583360140895522 $186 $239 forward 7 unknown #
coedge $-1 $120 $119 $193 $240 reversed $41 $-1 #
edge $-1 $241 -142.33344523453479 $190 -127.93538563559956 $184 $242 forward 7 unknown #
vertex $-1 $122 $243 #
straight-curve $-1 60.985757157057392 9.657184050471896 13.961460121863169 0 -1 0 I I #
coedge $-1 $236 $123 $126 $197 reversed $182 $-1 #
coedge $-1 $123 $236 $188 $240 forward $182 $-1 #
vertex $-1 $124 $244 #
straight-curve $-1 71.166722617267368 25.875745865479708 102.53519152768501 0 0 1 I I #
straight-curve $-1 -29.47822052997806 25.875745865479708 104.4254399081246 0.70710677298230451 0 -0.70710678939079041 I I #
edge $-1 $238 12.752990336407876 $127 25.875745865479708 $192 $245 forward 7 unknown #
point $-1 71.166722617267368 25.875745865479708 13.961460121863176 #
point $-1 60.985757157057407 25.875745865479708 13.961460121863169 #
edge $-1 $246 1 $246 0 $130 $-1 forward 7 unknown #
vertex $-1 $131 $247 #
ellipse-curve $-1 63.902609974097793 19.314368100943792 6.6973474110077191 0.70710678939079041 0 0.70710677298230451 1.0606601594734568 0 -1.0606601840861856 1 I I #
point $-1 67.13690004663583 19.314368100943792 7.8103170895468157 #
plane-surface $-1 71.166722617267368 0 0 -1 0 0 0 0 1 forward_v I I I I #
coedge $-1 $139 $137 $141 $209 reversed $81 $-1 #
edge $-1 $152 -13.961460121863176 $211 13.961460121863176 $151 $248 forward 7 unknown #
vertex $-1 $209 $249 #
straight-curve $-1 -71.166722617267368 -28.919530676158946 0 0 0 -1 I I #
edge $-1 $207 -28.919530676158946 $211 28.919530676158946 $205 $250 forward 7 unknown #
straight-curve $-1 0 -28.919530676158946 -13.961460121863176 -1 0 0 I I #
vertex $-1 $144 $251 #
straight-curve $-1 0 28.919530676158946 -13.961460121863176 1 0 0 I I #
point $-1 71.166722617267368 28.919530676158946 -13.961460121863176 #
point $-1 71.166722617267368 -28.919530676158946 -13.961460121863176 #
straight-curve $-1 -71.166722617267368 0 13.961460121863176 0 -1 0 I I #
point $-1 -71.166722617267368 28.919530676158946 13.961460121863176 #
point $-1 -71.166722617267368 -28.919530676158946 13.961460121863176 #
straight-curve $-1 71.166722617267368 -28.919530676158946 0 0 0 -1 I I #
straight-curve $-1 71.166722617267368 28.919530676158946 0 0 0 -1 I I #
plane-surface $-1 0 -28.919530676158946 0 0 1 0 0 0 1 forward_v I I I I #
coedge $-1 $252 $164 $174 $232 reversed $100 $-1 #
coedge $-1 $164 $252 $177 $234 forward $100 $-1 #
coedge $-1 $253 $167 $165 $224 forward $162 $-1 #
edge $-1 $225 60.426006494023504 $254 71.166722617267368 $165 $255 forward 7 unknown #
vertex $-1 $224 $256 #
straight-curve $-1 -60.426006494023504 28.919530676158946 4.9285654301159596 0 0 -1 I I #
coedge $-1 $167 $253 $169 $229 forward $162 $-1 #
straight-curve $-1 -60.426006494023504 0 13.961460121863176 0 1 0 I I #
edge $-1 $257 -71.166722617267368 $171 -60.426006494023504 $169 $258 forward 7 unknown #
point $-1 -60.426006494023504 -28.919530676158946 13.961460121863176 #
straight-curve $-1 -71.166722617267368 0 5.7528015986006622 0 -1 0 I I #
edge $-1 $257 -13.961460121863176 $175 -5.7528015986006622 $221 $259 forward 7 unknown #
point $-1 -71.166722617267368 -28.919530676158946 5.7528015986006622 #
edge $-1 $254 -13.961460121863176 $178 -5.7528015986006622 $177 $260 forward 7 unknown #
point $-1 -71.166722617267368 28.919530676158946 5.7528015986006622 #
coedge $-1 $193 $192 $185 $237 forward $182 $-1 #
edge $-1 $238 88.573731405821832 $241 98.754697102282165 $236 $261 forward 7 unknown #
vertex $-1 $197 $262 #
straight-curve $-1 35.583362476371846 12.752990336407876 13.961460121863183 1 0 0 I I #
edge $-1 $241 3.0958062859359803 $194 16.21856181500781 $193 $263 forward 7 unknown #
vertex $-1 $240 $264 #
straight-curve $-1 -29.47822052997806 12.752990336407876 104.4254399081246 -0.70710677298230451 0 0.70710678939079041 I I #
point $-1 60.985757157057407 12.752990336407876 13.961460121863169 #
point $-1 71.166722617267368 25.875745865479708 3.7804944254028499 #
straight-curve $-1 71.166722617267368 0 13.961460121863176 0 1 0 I I #
vertex $-1 $200 $265 #
point $-1 64.963270133571243 19.314368100943792 5.6366872269215333 #
straight-curve $-1 -71.166722617267368 28.919530676158946 0 0 0 -1 I I #
point $-1 -71.166722617267368 -28.919530676158946 -13.961460121863176 #
straight-curve $-1 -71.166722617267368 0 -13.961460121863176 0 1 0 I I #
point $-1 -71.166722617267368 28.919530676158946 -13.961460121863176 #
coedge $-1 $222 $221 $253 $266 reversed $100 $-1 #
coedge $-1 $227 $223 $252 $266 forward $162 $-1 #
vertex $-1 $224 $267 #
straight-curve $-1 0 28.919530676158946 13.961460121863176 -1 0 0 I I #
point $-1 -60.426006494023504 28.919530676158946 13.961460121863176 #
vertex $-1 $266 $268 #
straight-curve $-1 0 -28.919530676158946 13.961460121863176 1 0 0 I I #
straight-curve $-1 -71.166722617267368 -28.919530676158946 0 0 0 -1 I I #
straight-curve $-1 -71.166722617267368 28.919530676158946 0 0 0 -1 I I #
straight-curve $-1 71.166722617267368 12.752990336407876 102.53519152768501 0 0 -1 I I #
point $-1 71.166722617267368 12.752990336407876 13.961460121863176 #
straight-curve $-1 71.166722617267354 9.657184050471896 3.7804944254028499 0 1 0 I I #
point $-1 71.166722617267368 12.752990336407876 3.7804944254028499 #
point $-1 62.841949790011604 19.314368100943792 5.6366872515342621 #
edge $-1 $254 -28.919530676158946 $257 28.919530676158946 $252 $269 forward 7 unknown #
point $-1 -71.166722617267368 28.919530676158946 13.961460121863176 #
point $-1 -71.166722617267368 -28.919530676158946 13.961460121863176 #
straight-curve $-1 -71.166722617267368 0 13.961460121863176 0 -1 0 I I #
End-of-ACIS-data 