500 0 7 0           
7 Unknown 11 ACIS 5.0 NT 24 Fri Mar 26 14:30:22 1999 
-1 9.9999999999999995e-007 1e-010 
body $-1 $7 $-1 $8 #
body $-1 $9 $-1 $10 #
body $-1 $11 $-1 $12 #
body $-1 $13 $-1 $14 #
body $-1 $15 $-1 $16 #
body $-1 $17 $-1 $18 #
body $-1 $19 $-1 $20 #
lump $-1 $-1 $21 $0 #
transform $-1 1 0 0 0 1 0 0 0 1 77.028717917416913 39.773683406731173 16.06472267168386 1 rotate no_reflect no_shear #
lump $-1 $-1 $22 $1 #
transform $-1 1 0 0 0 1 0 0 0 1 77.028717917416913 39.773683406731173 16.06472267168386 1 rotate no_reflect no_shear #
lump $-1 $-1 $23 $2 #
transform $-1 1 0 0 0 1 0 0 0 1 77.028717917416913 39.773683406731173 16.06472267168386 1 rotate no_reflect no_shear #
lump $-1 $-1 $24 $3 #
transform $-1 1 0 0 0 1 0 0 0 1 77.028717917416913 39.773683406731173 16.06472267168386 1 rotate no_reflect no_shear #
lump $-1 $-1 $25 $4 #
transform $-1 1 0 0 0 1 0 0 0 1 77.028717917416913 39.773683406731173 16.06472267168386 1 rotate no_reflect no_shear #
lump $-1 $-1 $26 $5 #
transform $-1 1 0 0 0 1 0 0 0 1 77.028717917416913 39.773683406731173 16.06472267168386 1 rotate no_reflect no_shear #
lump $-1 $-1 $27 $6 #
transform $-1 1 0 0 0 1 0 0 0 1 77.028717917416913 39.773683406731173 16.06472267168386 1 rotate no_reflect no_shear #
shell $-1 $-1 $-1 $28 $-1 $7 #
shell $-1 $-1 $-1 $29 $-1 $9 #
shell $-1 $-1 $-1 $30 $-1 $11 #
shell $-1 $-1 $-1 $31 $-1 $13 #
shell $-1 $-1 $-1 $32 $-1 $15 #
shell $-1 $-1 $-1 $33 $-1 $17 #
shell $-1 $-1 $-1 $34 $-1 $19 #
face $-1 $35 $36 $21 $-1 $37 forward single #
face $-1 $38 $39 $22 $-1 $40 forward single #
face $-1 $41 $42 $23 $-1 $43 reversed single #
face $-1 $44 $45 $24 $-1 $46 forward single #
face $-1 $47 $48 $25 $-1 $49 reversed single #
face $-1 $50 $51 $26 $-1 $52 forward single #
face $-1 $53 $54 $27 $-1 $55 forward single #
face $-1 $56 $57 $21 $-1 $58 reversed single #
loop $-1 $-1 $59 $28 #
plane-surface $-1 0 0 16.06472267168386 0 0 1 1 0 0 forward_v I I I I #
face $-1 $60 $61 $22 $-1 $62 reversed single #
loop $-1 $-1 $63 $29 #
plane-surface $-1 0 -29.612166570971173 -9.7321721907327188 0 0 1 1 0 0 forward_v I I I I #
face $-1 $64 $65 $23 $-1 $66 reversed single #
loop $-1 $-1 $67 $30 #
plane-surface $-1 -209.08171555207176 26.393758060496396 80.444304086613698 0 1 0 -0.85716730853699208 0 0.51503806187062418 forward_v I I I I #
face $-1 $68 $69 $24 $-1 $70 forward single #
loop $-1 $71 $72 $31 #
cone-surface $-1 -71.384432834241039 33.083720733613781 7.8919516975534814 0.85716730853699208 0 -0.51503806187062418 1.0300761237412484 0 1.7143346170739842 1 I I 0 1 2 forward I I I I #
face $-1 $73 $74 $25 $-1 $75 reversed single #
loop $-1 $-1 $76 $32 #
plane-surface $-1 114.86146942257298 -11.472973390602178 219.14620785732745 0 -1 0 -0.81915205242281985 0 -0.57357642473473569 forward_v I I I I #
face $-1 $77 $78 $26 $-1 $79 forward single #
loop $-1 $80 $81 $33 #
cone-surface $-1 71.815255387163319 -17.17131363675146 9.4888180135532973 -0.81915205242281985 0 -0.57357642473473569 0.57357642473473569 0 -0.81915205242281985 1 I I 0 1 1 forward I I I I #
face $-1 $82 $83 $27 $-1 $84 forward single #
loop $-1 $85 $86 $34 #
cone-surface $-1 71.815255387163319 -13.75230948906189 9.4888180135532973 -0.81915205242281985 0 -0.57357642473473569 0.57357642473473569 0 -0.81915205242281985 1 I I 0 1 1 forward I I I I #
face $-1 $87 $88 $21 $-1 $89 reversed single #
loop $-1 $-1 $90 $35 #
plane-surface $-1 0 0 -16.06472267168386 0 0 1 1 0 0 forward_v I I I I #
coedge $-1 $91 $92 $93 $94 forward $36 $-1 #
face $-1 $95 $96 $22 $-1 $97 reversed single #
loop $-1 $-1 $98 $38 #
plane-surface $-1 0 -29.612166570971173 -14.821091175917328 0 0 1 1 0 0 forward_v I I I I #
coedge $-1 $99 $100 $101 $102 reversed $39 $-1 #
face $-1 $103 $104 $23 $-1 $105 forward single #
loop $-1 $-1 $106 $41 #
plane-surface $-1 -77.028717917416884 33.083720733613781 1.0988609174828383 -0.85716730853699208 0 0.51503806187062418 0.51503806187062418 0 0.85716730853699208 forward_v I I I I #
coedge $-1 $107 $108 $109 $110 reversed $42 $-1 #
face $-1 $-1 $111 $24 $-1 $112 forward single #
loop $-1 $113 $114 $44 #
cone-surface $-1 -69.379178766553949 33.083720733613781 6.6870735386529816 0.85716730853699208 0 -0.51503806187062418 0.51503806187062418 0 0.85716730853699208 1 I I -0.70710678118654746 0.70710678118654746 1 forward I I I I #
loop $-1 $-1 $115 $31 #
coedge $-1 $72 $72 $116 $117 reversed $45 $-1 #
face $-1 $118 $119 $25 $-1 $120 reversed single #
loop $-1 $-1 $121 $47 #
plane-surface $-1 -11.334995332528024 -15.461811562906675 130.78249460738252 0.81915205242281985 0 0.57357642473473569 0.57357642473473569 0 -0.81915205242281985 forward_v I I I I #
coedge $-1 $122 $123 $124 $125 reversed $48 $-1 #
face $-1 $-1 $126 $26 $-1 $127 forward single #
loop $-1 $128 $129 $50 #
cone-surface $-1 70.210950329874521 -17.17131363675146 8.3654715527565529 -0.81915205242281985 0 -0.57357642473473569 0.28678821236736785 0 -0.40957602621140993 1 I I -0.70710678118654746 0.70710678118654746 0.5 forward I I I I #
loop $-1 $-1 $130 $33 #
coedge $-1 $81 $81 $131 $132 reversed $51 $-1 #
face $-1 $-1 $133 $27 $-1 $134 forward single #
loop $-1 $135 $136 $53 #
cone-surface $-1 70.210950329874521 -13.75230948906189 8.3654715527565529 -0.81915205242281985 0 -0.57357642473473569 0.28678821236736785 0 -0.40957602621140993 1 I I -0.70710678118654746 0.70710678118654746 0.5 forward I I I I #
loop $-1 $-1 $137 $34 #
coedge $-1 $86 $86 $138 $139 reversed $54 $-1 #
face $-1 $140 $141 $21 $-1 $142 reversed single #
loop $-1 $-1 $143 $56 #
plane-surface $-1 0 -39.773683406731173 0 0 1 0 0 0 1 forward_v I I I I #
coedge $-1 $144 $145 $146 $147 forward $57 $-1 #
coedge $-1 $148 $59 $149 $150 forward $36 $-1 #
coedge $-1 $59 $148 $151 $152 forward $36 $-1 #
coedge $-1 $153 $154 $59 $94 reversed $155 $-1 #
edge $-1 $156 -39.773683406731173 $157 39.773683406731173 $93 $158 forward 7 unknown #
face $-1 $159 $160 $22 $-1 $161 reversed single #
loop $-1 $-1 $162 $60 #
plane-surface $-1 0 -19.450649735211172 -12.276631683325023 0 -1 0 0 0 -1 forward_v I I I I #
coedge $-1 $163 $164 $165 $166 reversed $61 $-1 #
coedge $-1 $167 $63 $168 $169 forward $39 $-1 #
coedge $-1 $63 $167 $170 $171 reversed $39 $-1 #
coedge $-1 $172 $173 $63 $102 forward $174 $-1 #
edge $-1 $175 4.6445664497255859 $176 24.967600121245589 $101 $177 forward 7 unknown #
face $-1 $178 $179 $23 $-1 $180 reversed single #
loop $-1 $-1 $109 $64 #
plane-surface $-1 0 0 16.06472267168386 0 0 1 1 0 0 forward_v I I I I #
coedge $-1 $181 $182 $183 $184 reversed $65 $-1 #
coedge $-1 $108 $67 $185 $186 reversed $42 $-1 #
coedge $-1 $67 $107 $181 $187 reversed $42 $-1 #
coedge $-1 $183 $188 $67 $110 forward $104 $-1 #
edge $-1 $189 27.512139858618966 $190 36.504536506670519 $109 $191 forward 7 unknown #
loop $-1 $-1 $116 $68 #
plane-surface $-1 -77.028717917416884 33.083720733613781 1.0988609174828383 -0.85716730853699208 0 0.51503806187062418 0.51503806187062418 0 0.85716730853699208 forward_v I I I I #
loop $-1 $-1 $192 $44 #
coedge $-1 $114 $114 $115 $193 reversed $69 $-1 #
coedge $-1 $115 $115 $114 $193 forward $71 $-1 #
coedge $-1 $116 $116 $72 $117 forward $111 $-1 #
edge $-1 $194 0 $194 6.2831853071796004 $116 $195 forward 7 unknown #
face $-1 $196 $197 $25 $-1 $198 reversed single #
loop $-1 $-1 $199 $73 #
plane-surface $-1 114.86146942257298 -19.450649735211172 219.14620785732745 0 1 0 0.81915205242281985 0 0.57357642473473569 forward_v I I I I #
coedge $-1 $200 $201 $202 $203 reversed $74 $-1 #
coedge $-1 $123 $76 $204 $205 reversed $48 $-1 #
coedge $-1 $76 $122 $200 $206 reversed $48 $-1 #
coedge $-1 $202 $207 $76 $125 forward $208 $-1 #
edge $-1 $209 -19.597983206130422 $210 -11.560516207777994 $124 $211 forward 7 unknown #
loop $-1 $-1 $131 $77 #
plane-surface $-1 -11.334995332528024 -15.461811562906675 130.78249460738252 0.81915205242281985 0 0.57357642473473569 0.57357642473473569 0 -0.81915205242281985 forward_v I I I I #
loop $-1 $-1 $212 $50 #
coedge $-1 $129 $129 $130 $213 reversed $78 $-1 #
coedge $-1 $130 $130 $129 $213 forward $80 $-1 #
coedge $-1 $131 $131 $81 $132 forward $126 $-1 #
edge $-1 $214 0 $214 6.2831853071796004 $131 $215 forward 7 unknown #
loop $-1 $-1 $138 $82 #
plane-surface $-1 -11.334995332528024 -15.461811562906675 130.78249460738252 0.81915205242281985 0 0.57357642473473569 0.57357642473473569 0 -0.81915205242281985 forward_v I I I I #
loop $-1 $-1 $216 $53 #
coedge $-1 $136 $136 $137 $217 reversed $83 $-1 #
coedge $-1 $137 $137 $136 $217 forward $85 $-1 #
coedge $-1 $138 $138 $86 $139 forward $133 $-1 #
edge $-1 $218 0 $218 6.2831853071796004 $138 $219 forward 7 unknown #
face $-1 $220 $221 $21 $-1 $222 reversed single #
loop $-1 $-1 $223 $87 #
plane-surface $-1 -77.028717917416913 0 0 1 0 0 0 0 -1 forward_v I I I I #
coedge $-1 $224 $151 $225 $226 forward $88 $-1 #
coedge $-1 $227 $90 $224 $228 forward $57 $-1 #
coedge $-1 $90 $227 $229 $230 forward $57 $-1 #
coedge $-1 $154 $153 $90 $147 reversed $155 $-1 #
edge $-1 $231 -39.773683406731173 $232 39.773683406731173 $146 $233 forward 7 unknown #
coedge $-1 $92 $91 $234 $235 forward $36 $-1 #
coedge $-1 $236 $237 $91 $150 reversed $221 $-1 #
edge $-1 $157 -77.028717917416913 $238 77.028717917416913 $149 $239 forward 7 unknown #
coedge $-1 $143 $240 $92 $152 reversed $88 $-1 #
edge $-1 $241 -77.028717917416913 $156 77.028717917416913 $151 $242 forward 7 unknown #
coedge $-1 $146 $93 $240 $243 forward $155 $-1 #
coedge $-1 $93 $146 $236 $244 reversed $155 $-1 #
loop $-1 $-1 $153 $220 #
vertex $-1 $94 $245 #
vertex $-1 $94 $246 #
straight-curve $-1 77.028717917416913 0 16.06472267168386 0 1 0 I I #
face $-1 $247 $248 $22 $-1 $249 reversed single #
loop $-1 $-1 $250 $95 #
plane-surface $-1 -77.028717917416913 0 0 1 0 0 0 0 -1 forward_v I I I I #
coedge $-1 $251 $168 $173 $252 reversed $96 $-1 #
coedge $-1 $253 $98 $254 $255 reversed $61 $-1 #
coedge $-1 $98 $253 $251 $256 forward $61 $-1 #
coedge $-1 $173 $172 $98 $166 forward $174 $-1 #
edge $-1 $257 -24.967600121245589 $258 -4.6445664497255859 $165 $259 forward 7 unknown #
coedge $-1 $100 $99 $250 $260 reversed $39 $-1 #
coedge $-1 $162 $261 $99 $169 reversed $96 $-1 #
edge $-1 $175 -77.028717917416913 $262 77.028717917416913 $168 $263 forward 7 unknown #
coedge $-1 $264 $265 $100 $171 forward $248 $-1 #
edge $-1 $176 -77.028717917416913 $266 77.028717917416913 $170 $267 forward 7 unknown #
coedge $-1 $165 $101 $265 $268 forward $174 $-1 #
coedge $-1 $101 $165 $162 $252 forward $174 $-1 #
loop $-1 $-1 $101 $247 #
vertex $-1 $102 $269 #
vertex $-1 $268 $270 #
straight-curve $-1 77.028717917416913 -14.806083285485586 -9.7321721907327188 0 -1 0 I I #
face $-1 $-1 $271 $23 $-1 $272 reversed single #
loop $-1 $-1 $273 $103 #
plane-surface $-1 0 39.773683406731173 0 0 -1 0 0 0 -1 forward_v I I I I #
coedge $-1 $274 $106 $108 $187 forward $65 $-1 #
coedge $-1 $106 $274 $273 $275 reversed $65 $-1 #
coedge $-1 $276 $109 $106 $184 forward $104 $-1 #
edge $-1 $190 9.8518976936895051 $277 23.231823039924276 $183 $278 forward 7 unknown #
coedge $-1 $279 $280 $107 $186 forward $271 $-1 #
edge $-1 $281 -39.123291125824061 $189 -24.157429371622989 $185 $282 forward 7 unknown #
edge $-1 $190 -17.459673980969558 $281 5.5178419308758838e-014 $108 $283 forward 7 unknown #
coedge $-1 $109 $276 $279 $284 forward $104 $-1 #
vertex $-1 $186 $285 #
vertex $-1 $110 $286 #
straight-curve $-1 -104.54085777603588 26.393758060496396 16.06472267168386 1 0 0 I I #
coedge $-1 $192 $192 $-1 $287 reversed $113 $-1 #
edge $-1 $288 0 $288 6.2831853071796004 $114 $289 forward 7 unknown #
vertex $-1 $117 $290 #
ellipse-curve $-1 -72.532519593391129 33.083720733613781 8.5817917945833457 -0.85716730853699208 0 0.51503806187062418 1.0300761237412484 0 1.7143346170739842 1 I I #
face $-1 $-1 $208 $25 $-1 $291 forward single #
loop $-1 $-1 $292 $118 #
plane-surface $-1 77.028717917416913 0 0 -1 0 0 0 0 1 forward_v I I I I #
coedge $-1 $293 $294 $295 $296 reversed $119 $-1 #
coedge $-1 $297 $121 $123 $206 forward $74 $-1 #
coedge $-1 $121 $297 $293 $298 forward $74 $-1 #
coedge $-1 $295 $124 $121 $203 forward $208 $-1 #
edge $-1 $210 3.7420676091488403 $299 11.719743953757835 $202 $300 forward 7 unknown #
coedge $-1 $301 $302 $122 $205 forward $197 $-1 #
edge $-1 $303 -104.98707407638221 $209 -93.508381256979874 $204 $304 forward 7 unknown #
edge $-1 $210 140.04453946785094 $303 154.05743583483385 $123 $305 forward 7 unknown #
coedge $-1 $124 $295 $301 $306 forward $208 $-1 #
loop $-1 $-1 $295 $196 #
vertex $-1 $205 $307 #
vertex $-1 $125 $308 #
straight-curve $-1 57.43073471128649 -11.472973390602178 16.064722671683853 -1 0 0 I I #
coedge $-1 $212 $212 $-1 $309 reversed $128 $-1 #
edge $-1 $310 0 $310 6.2831853071796004 $129 $311 forward 7 unknown #
vertex $-1 $132 $312 #
ellipse-curve $-1 73.009984418240705 -17.17131363675146 10.325376261982674 0.81915205242281985 0 0.57357642473473569 0.57357642473473569 0 -0.81915205242281985 1 I I #
coedge $-1 $216 $216 $-1 $313 reversed $135 $-1 #
edge $-1 $314 0 $314 6.2831853071796004 $136 $315 forward 7 unknown #
vertex $-1 $139 $316 #
ellipse-curve $-1 73.009984418240705 -13.75230948906189 10.325376261982674 0.81915205242281985 0 0.57357642473473569 0.57357642473473569 0 -0.81915205242281985 1 I I #
face $-1 $-1 $155 $21 $-1 $317 reversed single #
loop $-1 $-1 $236 $140 #
plane-surface $-1 0 39.773683406731173 0 0 -1 0 0 0 -1 forward_v I I I I #
coedge $-1 $318 $234 $237 $319 forward $141 $-1 #
coedge $-1 $240 $143 $144 $228 reversed $88 $-1 #
coedge $-1 $234 $318 $143 $226 reversed $141 $-1 #
edge $-1 $241 -16.06472267168386 $320 16.06472267168386 $225 $321 forward 7 unknown #
coedge $-1 $145 $144 $318 $322 forward $57 $-1 #
edge $-1 $232 -77.028717917416913 $320 77.028717917416913 $224 $323 forward 7 unknown #
coedge $-1 $237 $236 $145 $230 reversed $221 $-1 #
edge $-1 $324 -77.028717917416913 $231 77.028717917416913 $229 $325 forward 7 unknown #
vertex $-1 $147 $326 #
vertex $-1 $243 $327 #
straight-curve $-1 77.028717917416913 0 -16.06472267168386 0 -1 0 I I #
coedge $-1 $223 $225 $148 $235 reversed $141 $-1 #
edge $-1 $238 -39.773683406731173 $241 39.773683406731173 $234 $328 forward 7 unknown #
coedge $-1 $229 $149 $154 $244 forward $221 $-1 #
coedge $-1 $149 $229 $223 $319 reversed $221 $-1 #
vertex $-1 $150 $329 #
straight-curve $-1 0 39.773683406731173 16.06472267168386 -1 0 0 I I #
coedge $-1 $151 $224 $153 $243 reversed $88 $-1 #
vertex $-1 $235 $330 #
straight-curve $-1 0 -39.773683406731173 16.06472267168386 1 0 0 I I #
edge $-1 $156 -16.06472267168386 $232 16.06472267168386 $153 $331 forward 7 unknown #
edge $-1 $157 -16.06472267168386 $231 16.06472267168386 $154 $332 forward 7 unknown #
point $-1 77.028717917416913 -39.773683406731173 16.06472267168386 #
point $-1 77.028717917416913 39.773683406731173 16.06472267168386 #
face $-1 $-1 $174 $22 $-1 $333 reversed single #
loop $-1 $-1 $170 $159 #
plane-surface $-1 0 -39.773683406731173 0 0 1 0 0 0 1 forward_v I I I I #
coedge $-1 $334 $335 $167 $260 forward $160 $-1 #
coedge $-1 $261 $162 $164 $256 reversed $96 $-1 #
edge $-1 $258 -8.6827753342548171 $175 -3.5938563490702071 $173 $336 forward 7 unknown #
coedge $-1 $164 $163 $337 $338 reversed $61 $-1 #
coedge $-1 $265 $264 $163 $255 forward $248 $-1 #
edge $-1 $339 -77.028717917416913 $257 77.028717917416913 $254 $340 forward 7 unknown #
edge $-1 $341 -77.028717917416913 $258 77.028717917416913 $251 $342 forward 7 unknown #
vertex $-1 $255 $343 #
vertex $-1 $166 $344 #
straight-curve $-1 77.028717917416913 -14.806083285485586 -14.821091175917328 0 1 0 I I #
edge $-1 $266 -24.967600121245589 $262 -4.6445664497255859 $250 $345 forward 7 unknown #
coedge $-1 $168 $251 $334 $346 reversed $96 $-1 #
vertex $-1 $260 $347 #
straight-curve $-1 0 -19.450649735211172 -9.7321721907327188 -1 0 0 I I #
coedge $-1 $254 $170 $335 $348 forward $248 $-1 #
coedge $-1 $170 $254 $172 $268 reversed $248 $-1 #
vertex $-1 $348 $349 #
straight-curve $-1 0 -39.773683406731173 -9.7321721907327188 -1 0 0 I I #
edge $-1 $176 9.7321721907327188 $257 14.821091175917328 $172 $350 forward 7 unknown #
point $-1 77.028717917416913 -19.450649735211172 -9.7321721907327188 #
point $-1 77.028717917416913 -39.773683406731173 -9.7321721907327188 #
loop $-1 $-1 $185 $178 #
plane-surface $-1 -77.028717917416913 0 0 1 0 0 0 0 -1 forward_v I I I I #
coedge $-1 $351 $352 $182 $275 forward $179 $-1 #
coedge $-1 $182 $181 $280 $353 reversed $65 $-1 #
edge $-1 $277 1.9057329837655326 $354 19.36540696473514 $273 $355 forward 7 unknown #
coedge $-1 $188 $183 $352 $356 forward $104 $-1 #
vertex $-1 $356 $357 #
straight-curve $-1 -68.036321269365345 16.54186036680689 16.06472267168386 0 1 0 I I #
coedge $-1 $358 $185 $188 $284 reversed $271 $-1 #
coedge $-1 $185 $358 $274 $353 forward $271 $-1 #
vertex $-1 $186 $359 #
straight-curve $-1 -77.028717917416913 26.393758060496396 40.222152043306849 0 0 1 I I #
straight-curve $-1 -77.028717917416884 26.393758060496396 1.0988609174828383 -0.51503806187062418 0 -0.85716730853699208 I I #
edge $-1 $360 -39.773683406731173 $189 -26.393758060496396 $279 $361 forward 7 unknown #
point $-1 -77.028717917416913 26.393758060496396 16.06472267168386 #
point $-1 -68.036321269365359 26.393758060496396 16.06472267168386 #
edge $-1 $362 1 $362 0 $192 $-1 forward 7 unknown #
vertex $-1 $193 $363 #
ellipse-curve $-1 -70.236346075090935 33.083720733613781 7.2021116005236054 -0.85716730853699208 0 0.51503806187062418 1.0300761237412484 0 1.7143346170739842 1 I I #
point $-1 -71.502443469649904 33.083720733613781 10.296126411657342 #
plane-surface $-1 0 0 16.06472267168386 0 0 1 1 0 0 forward_v I I I I #
coedge $-1 $302 $301 $294 $364 forward $197 $-1 #
coedge $-1 $294 $199 $201 $298 reversed $119 $-1 #
coedge $-1 $199 $293 $292 $364 reversed $119 $-1 #
coedge $-1 $207 $202 $199 $296 forward $208 $-1 #
edge $-1 $299 11.560516207777994 $365 19.597983206130422 $295 $366 forward 7 unknown #
coedge $-1 $201 $200 $302 $367 reversed $74 $-1 #
edge $-1 $368 -154.05743583483385 $299 -140.04453946785094 $293 $369 forward 7 unknown #
vertex $-1 $203 $370 #
straight-curve $-1 68.991250919064484 -7.7309057814533375 16.064722671683853 0 -1 0 I I #
coedge $-1 $292 $204 $207 $306 reversed $197 $-1 #
coedge $-1 $204 $292 $297 $367 forward $197 $-1 #
vertex $-1 $205 $371 #
straight-curve $-1 77.028717917416913 -11.472973390602178 109.57310392866373 0 0 1 I I #
straight-curve $-1 -11.334995332528024 -11.472973390602178 130.78249460738252 0.57357642473473569 0 -0.81915205242281985 I I #
edge $-1 $365 -19.450649735211172 $209 -11.472973390602178 $301 $372 forward 7 unknown #
point $-1 77.028717917416913 -11.472973390602178 16.06472267168386 #
point $-1 68.991250919064484 -11.472973390602178 16.064722671683839 #
edge $-1 $373 1 $373 0 $212 $-1 forward 7 unknown #
vertex $-1 $213 $374 #
ellipse-curve $-1 70.620526356085932 -17.17131363675146 8.6522597651239206 0.81915205242281985 0 0.57357642473473569 0.57357642473473569 0 -0.81915205242281985 1 I I #
point $-1 73.583560842975444 -17.17131363675146 9.5062242095598535 #
edge $-1 $375 1 $375 0 $216 $-1 forward 7 unknown #
vertex $-1 $217 $376 #
ellipse-curve $-1 70.620526356085932 -13.75230948906189 8.6522597651239206 0.81915205242281985 0 0.57357642473473569 0.57357642473473569 0 -0.81915205242281985 1 I I #
point $-1 73.583560842975444 -13.75230948906189 9.5062242095598535 #
plane-surface $-1 77.028717917416913 0 0 -1 0 0 0 0 1 forward_v I I I I #
coedge $-1 $225 $223 $227 $322 reversed $141 $-1 #
edge $-1 $238 -16.06472267168386 $324 16.06472267168386 $237 $377 forward 7 unknown #
vertex $-1 $322 $378 #
straight-curve $-1 -77.028717917416913 -39.773683406731173 0 0 0 -1 I I #
edge $-1 $320 -39.773683406731173 $324 39.773683406731173 $318 $379 forward 7 unknown #
straight-curve $-1 0 -39.773683406731173 -16.06472267168386 -1 0 0 I I #
vertex $-1 $230 $380 #
straight-curve $-1 0 39.773683406731173 -16.06472267168386 1 0 0 I I #
point $-1 77.028717917416913 39.773683406731173 -16.06472267168386 #
point $-1 77.028717917416913 -39.773683406731173 -16.06472267168386 #
straight-curve $-1 -77.028717917416913 0 16.06472267168386 0 -1 0 I I #
point $-1 -77.028717917416913 39.773683406731173 16.06472267168386 #
point $-1 -77.028717917416913 -39.773683406731173 16.06472267168386 #
straight-curve $-1 77.028717917416913 -39.773683406731173 0 0 0 -1 I I #
straight-curve $-1 77.028717917416913 39.773683406731173 0 0 0 -1 I I #
plane-surface $-1 77.028717917416913 0 0 -1 0 0 0 0 1 forward_v I I I I #
coedge $-1 $337 $250 $261 $346 forward $160 $-1 #
coedge $-1 $250 $337 $264 $348 reversed $160 $-1 #
straight-curve $-1 77.028717917416913 -19.450649735211172 -6.1383158416625117 0 0 1 I I #
coedge $-1 $335 $334 $253 $338 forward $160 $-1 #
edge $-1 $341 4.6445664497255859 $339 24.967600121245589 $337 $381 forward 7 unknown #
vertex $-1 $255 $382 #
straight-curve $-1 0 -39.773683406731173 -14.821091175917328 1 0 0 I I #
vertex $-1 $338 $383 #
straight-curve $-1 0 -19.450649735211172 -14.821091175917328 1 0 0 I I #
point $-1 77.028717917416913 -39.773683406731173 -14.821091175917328 #
point $-1 77.028717917416913 -19.450649735211172 -14.821091175917328 #
straight-curve $-1 -77.028717917416913 -14.806083285485586 -9.7321721907327188 0 1 0 I I #
edge $-1 $262 3.5938563490702071 $341 8.6827753342548171 $334 $384 forward 7 unknown #
point $-1 -77.028717917416913 -19.450649735211172 -9.7321721907327188 #
edge $-1 $266 9.7321721907327188 $339 14.821091175917328 $335 $385 forward 7 unknown #
point $-1 -77.028717917416913 -39.773683406731173 -9.7321721907327188 #
straight-curve $-1 77.028717917416913 -39.773683406731173 0 0 0 -1 I I #
coedge $-1 $352 $273 $358 $386 reversed $179 $-1 #
coedge $-1 $273 $351 $276 $356 reversed $179 $-1 #
edge $-1 $354 -23.231823039924276 $281 -9.8518976936895051 $280 $387 forward 7 unknown #
vertex $-1 $275 $388 #
straight-curve $-1 -67.054796246963832 39.773683406731173 17.698254684168329 -0.51503806187062429 0 -0.85716730853699219 I I #
edge $-1 $277 68.036321269365359 $360 77.028717917416913 $352 $389 forward 7 unknown #
point $-1 -68.036321269365359 39.773683406731166 16.06472267168386 #
coedge $-1 $280 $279 $351 $386 forward $271 $-1 #
point $-1 -77.028717917416913 26.393758060496396 1.098860917482791 #
vertex $-1 $356 $390 #
straight-curve $-1 -77.028717917416913 0 16.06472267168386 0 -1 0 I I #
vertex $-1 $287 $391 #
point $-1 -69.206269951349697 33.083720733613781 8.9164462175975903 #
edge $-1 $365 93.508381256979874 $368 104.98707407638221 $292 $392 forward 7 unknown #
vertex $-1 $306 $393 #
straight-curve $-1 57.43073471128649 -19.450649735211172 16.064722671683853 1 0 0 I I #
edge $-1 $368 -11.719743953757835 $303 -3.7420676091488403 $302 $394 forward 7 unknown #
vertex $-1 $367 $395 #
straight-curve $-1 -11.334995332528024 -19.450649735211172 130.78249460738252 -0.57357642473473569 0 0.81915205242281985 I I #
point $-1 68.991250919064484 -19.450649735211172 16.064722671683839 #
point $-1 77.028717917416913 -11.472973390602178 4.5860298522815128 #
straight-curve $-1 77.028717917416913 0 16.06472267168386 0 1 0 I I #
vertex $-1 $309 $396 #
point $-1 71.194102780820671 -17.17131363675146 7.8331077127011008 #
vertex $-1 $313 $397 #
point $-1 71.194102780820671 -13.75230948906189 7.8331077127011008 #
straight-curve $-1 -77.028717917416913 39.773683406731173 0 0 0 -1 I I #
point $-1 -77.028717917416913 -39.773683406731173 -16.06472267168386 #
straight-curve $-1 -77.028717917416913 0 -16.06472267168386 0 1 0 I I #
point $-1 -77.028717917416913 39.773683406731173 -16.06472267168386 #
straight-curve $-1 -77.028717917416913 -14.806083285485586 -14.821091175917328 0 -1 0 I I #
point $-1 -77.028717917416913 -39.773683406731173 -14.821091175917328 #
point $-1 -77.028717917416913 -19.450649735211172 -14.821091175917328 #
straight-curve $-1 -77.028717917416913 -19.450649735211172 -6.1383158416625117 0 0 -1 I I #
straight-curve $-1 -77.028717917416913 -39.773683406731173 0 0 0 -1 I I #
edge $-1 $360 -16.06472267168386 $354 -1.098860917482791 $351 $398 forward 7 unknown #
straight-curve $-1 -77.028717917416913 16.54186036680689 1.0988609174827886 0 -1 0 I I #
point $-1 -77.028717917416913 39.773683406731166 1.098860917482791 #
straight-curve $-1 0 39.773683406731173 16.06472267168386 -1 0 0 I I #
point $-1 -77.028717917416913 39.773683406731173 16.06472267168386 #
point $-1 -68.522011458016962 33.083720733613781 6.1720354767823578 #
straight-curve $-1 77.028717917416913 -19.450649735211172 109.57310392866373 0 0 -1 I I #
point $-1 77.028717917416913 -19.450649735211172 16.06472267168386 #
straight-curve $-1 77.028717917416913 -7.7309057814533375 4.5860298522815057 0 1 0 I I #
point $-1 77.028717917416913 -19.450649735211172 4.5860298522815128 #
point $-1 69.80137430366311 -17.17131363675146 8.0786833403891851 #
point $-1 69.80137430366311 -13.75230948906189 8.0786833403891851 #
straight-curve $-1 -77.028717917416913 39.773683406731173 0 0 0 -1 I I #
End-of-ACIS-data 