500 0 9 0           
7 Unknown 11 ACIS 5.0 NT 24 Thu Mar 25 21:07:19 1999 
-1 9.9999999999999995e-007 1e-010 
body $-1 $9 $-1 $10 #
body $-1 $11 $-1 $12 #
body $-1 $13 $-1 $14 #
body $-1 $15 $-1 $16 #
body $-1 $17 $-1 $18 #
body $-1 $19 $-1 $20 #
body $-1 $21 $-1 $22 #
body $-1 $23 $-1 $24 #
body $-1 $25 $-1 $26 #
lump $-1 $-1 $27 $0 #
transform $-1 1 0 0 0 1 0 0 0 1 57.444380016479997 34.785519965971794 15.529011124309177 1 rotate no_reflect no_shear #
lump $-1 $-1 $28 $1 #
transform $-1 1 0 0 0 1 0 0 0 1 57.444380016479997 34.785519965971794 15.529011124309177 1 rotate no_reflect no_shear #
lump $-1 $-1 $29 $2 #
transform $-1 1 0 0 0 1 0 0 0 1 57.444380016479997 34.785519965971794 15.529011124309177 1 rotate no_reflect no_shear #
lump $-1 $-1 $30 $3 #
transform $-1 1 0 0 0 1 0 0 0 1 57.444380016479997 34.785519965971794 15.529011124309177 1 rotate no_reflect no_shear #
lump $-1 $-1 $31 $4 #
transform $-1 1 0 0 0 1 0 0 0 1 57.444380016479997 34.785519965971794 15.529011124309177 1 rotate no_reflect no_shear #
lump $-1 $-1 $32 $5 #
transform $-1 1 0 0 0 1 0 0 0 1 57.444380016479997 34.785519965971794 15.529011124309177 1 rotate no_reflect no_shear #
lump $-1 $-1 $33 $6 #
transform $-1 1 0 0 0 1 0 0 0 1 57.444380016479997 34.785519965971794 15.529011124309177 1 rotate no_reflect no_shear #
lump $-1 $-1 $34 $7 #
transform $-1 1 0 0 0 1 0 0 0 1 57.444380016479997 34.785519965971794 15.529011124309177 1 rotate no_reflect no_shear #
lump $-1 $-1 $35 $8 #
transform $-1 1 0 0 0 1 0 0 0 1 57.444380016479997 34.785519965971794 15.529011124309177 1 rotate no_reflect no_shear #
shell $-1 $-1 $-1 $36 $-1 $9 #
shell $-1 $-1 $-1 $37 $-1 $11 #
shell $-1 $-1 $-1 $38 $-1 $13 #
shell $-1 $-1 $-1 $39 $-1 $15 #
shell $-1 $-1 $-1 $40 $-1 $17 #
shell $-1 $-1 $-1 $41 $-1 $19 #
shell $-1 $-1 $-1 $42 $-1 $21 #
shell $-1 $-1 $-1 $43 $-1 $23 #
shell $-1 $-1 $-1 $44 $-1 $25 #
face $-1 $45 $46 $27 $-1 $47 forward single #
face $-1 $48 $49 $28 $-1 $50 forward single #
face $-1 $51 $52 $29 $-1 $53 forward single #
face $-1 $54 $55 $30 $-1 $56 reversed single #
face $-1 $57 $58 $31 $-1 $59 forward single #
face $-1 $60 $61 $32 $-1 $62 forward single #
face $-1 $63 $64 $33 $-1 $65 reversed single #
face $-1 $66 $67 $34 $-1 $68 forward single #
face $-1 $69 $70 $35 $-1 $71 forward single #
face $-1 $72 $73 $27 $-1 $74 reversed single #
loop $-1 $-1 $75 $36 #
plane-surface $-1 0 0 15.529011124309177 0 0 1 1 0 0 forward_v I I I I #
face $-1 $76 $77 $28 $-1 $78 reversed single #
loop $-1 $-1 $79 $37 #
plane-surface $-1 0 -34.785519965971794 0 0 1 0 0 0 1 forward_v I I I I #
face $-1 $80 $81 $29 $-1 $82 reversed single #
loop $-1 $-1 $83 $38 #
plane-surface $-1 0 34.785519965971794 0 0 -1 0 0 0 -1 forward_v I I I I #
face $-1 $84 $85 $30 $-1 $86 reversed single #
loop $-1 $-1 $87 $39 #
plane-surface $-1 -123.34186642225609 -3.4560075792164895 94.41496124746341 0 1 0 -0.57357644374324357 0 0.81915203911291934 forward_v I I I I #
face $-1 $88 $89 $31 $-1 $90 forward single #
loop $-1 $91 $92 $40 #
cone-surface $-1 -46.285521154310842 -0.61001475954952156 7.5067291402528049 0.57357644374324357 0 -0.81915203911291934 0.40957601955645967 0 0.28678822187162178 1 I I 0 1 0.5 forward I I I I #
face $-1 $93 $94 $32 $-1 $95 forward single #
loop $-1 $96 $97 $41 #
cone-surface $-1 -46.285521154310842 3.6589744699509339 7.5067291402528049 0.57357644374324357 0 -0.81915203911291934 0.40957601955645967 0 0.28678822187162178 1 I I 0 1 0.5 forward I I I I #
face $-1 $98 $99 $33 $-1 $100 reversed single #
loop $-1 $-1 $101 $42 #
plane-surface $-1 29.23050437010204 6.5049672896179089 160.3124476532395 0 -1 0 -0.57357644374324357 0 -0.81915203911291934 forward_v I I I I #
face $-1 $102 $103 $34 $-1 $104 forward single #
loop $-1 $105 $106 $43 #
cone-surface $-1 46.285521154310842 -0.61001475954952156 7.506729140252812 -0.57357644374324357 0 -0.81915203911291934 0.40957601955645967 0 -0.28678822187162178 1 I I 0 1 0.5 forward I I I I #
face $-1 $107 $108 $35 $-1 $109 forward single #
loop $-1 $110 $111 $44 #
cone-surface $-1 46.285521154310842 3.6589744699509339 7.506729140252812 -0.57357644374324357 0 -0.81915203911291934 0.40957601955645967 0 -0.28678822187162178 1 I I 0 1 0.5 forward I I I I #
face $-1 $112 $113 $27 $-1 $114 reversed single #
loop $-1 $-1 $115 $45 #
plane-surface $-1 0 0 -15.529011124309177 0 0 1 1 0 0 forward_v I I I I #
coedge $-1 $116 $117 $118 $119 forward $46 $-1 #
face $-1 $120 $121 $28 $-1 $122 reversed single #
loop $-1 $-1 $123 $48 #
plane-surface $-1 0 0 -15.529011124309177 0 0 1 1 0 0 forward_v I I I I #
coedge $-1 $124 $125 $126 $127 forward $49 $-1 #
face $-1 $128 $129 $29 $-1 $130 forward single #
loop $-1 $-1 $131 $51 #
plane-surface $-1 57.444380016479997 0 0 -1 0 0 0 0 1 forward_v I I I I #
coedge $-1 $132 $133 $134 $135 forward $52 $-1 #
face $-1 $136 $137 $30 $-1 $138 reversed single #
loop $-1 $-1 $139 $54 #
plane-surface $-1 -57.444380016479997 1.5244798552007097 0.30359919530935997 -0.57357644374324357 0 0.81915203911291934 0.81915203911291934 0 0.57357644374324357 forward_v I I I I #
coedge $-1 $140 $141 $142 $143 reversed $55 $-1 #
face $-1 $-1 $144 $31 $-1 $145 forward single #
loop $-1 $146 $147 $57 #
cone-surface $-1 -45.855338821503409 -0.61001475954952156 6.8923651109181154 0.57357644374324357 0 -0.81915203911291934 0.20478800977822983 0 0.14339411093581089 1 I I -0.70710678118654746 0.70710678118654746 0.25 forward I I I I #
loop $-1 $-1 $148 $40 #
coedge $-1 $92 $92 $149 $150 reversed $58 $-1 #
face $-1 $-1 $151 $32 $-1 $152 forward single #
loop $-1 $153 $154 $60 #
cone-surface $-1 -45.855338821503409 3.6589744699509339 6.8923651109181154 0.57357644374324357 0 -0.81915203911291934 0.20478800977822983 0 0.14339411093581089 1 I I -0.70710678118654746 0.70710678118654746 0.25 forward I I I I #
loop $-1 $-1 $155 $41 #
coedge $-1 $97 $97 $156 $157 reversed $61 $-1 #
face $-1 $158 $159 $33 $-1 $160 reversed single #
loop $-1 $-1 $161 $63 #
plane-surface $-1 -36.666982035674053 1.5244798552007097 66.201085601085452 0.57357644374324357 0 0.81915203911291934 0.81915203911291934 0 -0.57357644374324357 forward_v I I I I #
coedge $-1 $162 $163 $164 $165 reversed $64 $-1 #
face $-1 $-1 $166 $34 $-1 $167 forward single #
loop $-1 $168 $169 $66 #
cone-surface $-1 45.855338821503409 -0.61001475954952156 6.8923651109181225 -0.57357644374324357 0 -0.81915203911291934 0.20478800977822983 0 -0.14339411093581089 1 I I -0.70710678118654746 0.70710678118654746 0.25 forward I I I I #
loop $-1 $-1 $170 $43 #
coedge $-1 $106 $106 $171 $172 reversed $67 $-1 #
face $-1 $-1 $173 $35 $-1 $174 forward single #
loop $-1 $175 $176 $69 #
cone-surface $-1 45.855338821503409 3.6589744699509339 6.8923651109181225 -0.57357644374324357 0 -0.81915203911291934 0.20478800977822983 0 -0.14339411093581089 1 I I -0.70710678118654746 0.70710678118654746 0.25 forward I I I I #
loop $-1 $-1 $177 $44 #
coedge $-1 $111 $111 $178 $179 reversed $70 $-1 #
face $-1 $180 $181 $27 $-1 $182 reversed single #
loop $-1 $-1 $183 $72 #
plane-surface $-1 0 -34.785519965971794 0 0 1 0 0 0 1 forward_v I I I I #
coedge $-1 $184 $185 $186 $187 forward $73 $-1 #
coedge $-1 $188 $75 $189 $190 forward $46 $-1 #
coedge $-1 $75 $188 $191 $192 forward $46 $-1 #
coedge $-1 $193 $194 $75 $119 reversed $195 $-1 #
edge $-1 $196 -34.785519965971794 $197 34.785519965971794 $118 $198 forward 7 unknown #
face $-1 $199 $200 $28 $-1 $201 forward single #
loop $-1 $-1 $202 $76 #
plane-surface $-1 57.444380016479997 0 0 -1 0 0 0 0 1 forward_v I I I I #
coedge $-1 $203 $204 $205 $206 forward $77 $-1 #
coedge $-1 $205 $79 $202 $207 reversed $49 $-1 #
coedge $-1 $79 $205 $208 $209 reversed $49 $-1 #
coedge $-1 $210 $211 $79 $127 reversed $200 $-1 #
edge $-1 $212 -57.444380016479997 $213 57.444380016479997 $126 $214 forward 7 unknown #
face $-1 $215 $216 $29 $-1 $217 reversed single #
loop $-1 $-1 $218 $80 #
plane-surface $-1 0 42.576148123822428 1.9578301420623214 0 0 1 1 0 0 forward_v I I I I #
coedge $-1 $219 $220 $133 $221 forward $81 $-1 #
coedge $-1 $222 $83 $223 $224 reversed $52 $-1 #
coedge $-1 $83 $222 $131 $221 reversed $52 $-1 #
coedge $-1 $218 $225 $83 $135 reversed $129 $-1 #
edge $-1 $226 -57.444380016479997 $227 57.444380016479997 $134 $228 forward 7 unknown #
face $-1 $229 $230 $30 $-1 $231 reversed single #
loop $-1 $-1 $232 $84 #
plane-surface $-1 -123.34186642225609 6.5049672896179089 94.41496124746341 0 -1 0 0.57357644374324357 0 -0.81915203911291934 forward_v I I I I #
coedge $-1 $233 $234 $235 $236 reversed $85 $-1 #
coedge $-1 $141 $87 $237 $238 reversed $55 $-1 #
coedge $-1 $87 $140 $233 $239 reversed $55 $-1 #
coedge $-1 $235 $240 $87 $143 forward $241 $-1 #
edge $-1 $242 4.2265531946480479 $243 25.970694475243093 $142 $244 forward 7 unknown #
loop $-1 $-1 $149 $88 #
plane-surface $-1 -57.444380016479997 1.5244798552007097 0.30359919530935997 -0.57357644374324357 0 0.81915203911291934 0.81915203911291934 0 0.57357644374324357 forward_v I I I I #
loop $-1 $-1 $245 $57 #
coedge $-1 $147 $147 $148 $246 reversed $89 $-1 #
coedge $-1 $148 $148 $147 $246 forward $91 $-1 #
coedge $-1 $149 $149 $92 $150 forward $144 $-1 #
edge $-1 $247 0 $247 6.2831853071796004 $149 $248 forward 7 unknown #
loop $-1 $-1 $156 $93 #
plane-surface $-1 -57.444380016479997 1.5244798552007097 0.30359919530935997 -0.57357644374324357 0 0.81915203911291934 0.81915203911291934 0 0.57357644374324357 forward_v I I I I #
loop $-1 $-1 $249 $60 #
coedge $-1 $154 $154 $155 $250 reversed $94 $-1 #
coedge $-1 $155 $155 $154 $250 forward $96 $-1 #
coedge $-1 $156 $156 $97 $157 forward $151 $-1 #
edge $-1 $251 0 $251 6.2831853071796004 $156 $252 forward 7 unknown #
face $-1 $253 $254 $33 $-1 $255 forward single #
loop $-1 $-1 $256 $98 #
plane-surface $-1 29.23050437010204 -3.4560075792164895 160.3124476532395 0 1 0 0.57357644374324357 0 0.81915203911291934 forward_v I I I I #
coedge $-1 $257 $258 $259 $260 reversed $99 $-1 #
coedge $-1 $163 $101 $261 $262 reversed $64 $-1 #
coedge $-1 $101 $162 $257 $263 reversed $64 $-1 #
coedge $-1 $259 $264 $101 $165 forward $254 $-1 #
edge $-1 $265 -42.829127831428977 $266 -21.084986550833932 $164 $267 forward 7 unknown #
loop $-1 $-1 $171 $102 #
plane-surface $-1 -36.666982035674053 1.5244798552007097 66.201085601085452 0.57357644374324357 0 0.81915203911291934 0.81915203911291934 0 -0.57357644374324357 forward_v I I I I #
loop $-1 $-1 $268 $66 #
coedge $-1 $169 $169 $170 $269 reversed $103 $-1 #
coedge $-1 $170 $170 $169 $269 forward $105 $-1 #
coedge $-1 $171 $171 $106 $172 forward $166 $-1 #
edge $-1 $270 0 $270 6.2831853071796004 $171 $271 forward 7 unknown #
loop $-1 $-1 $178 $107 #
plane-surface $-1 -36.666982035674053 1.5244798552007097 66.201085601085452 0.57357644374324357 0 0.81915203911291934 0.81915203911291934 0 -0.57357644374324357 forward_v I I I I #
loop $-1 $-1 $272 $69 #
coedge $-1 $176 $176 $177 $273 reversed $108 $-1 #
coedge $-1 $177 $177 $176 $273 forward $110 $-1 #
coedge $-1 $178 $178 $111 $179 forward $173 $-1 #
edge $-1 $274 0 $274 6.2831853071796004 $178 $275 forward 7 unknown #
face $-1 $276 $277 $27 $-1 $278 reversed single #
loop $-1 $-1 $279 $112 #
plane-surface $-1 -57.444380016479997 0 0 1 0 0 0 0 -1 forward_v I I I I #
coedge $-1 $280 $191 $281 $282 forward $113 $-1 #
coedge $-1 $283 $115 $280 $284 forward $73 $-1 #
coedge $-1 $115 $283 $285 $286 forward $73 $-1 #
coedge $-1 $194 $193 $115 $187 reversed $195 $-1 #
edge $-1 $287 -34.785519965971794 $288 34.785519965971794 $186 $289 forward 7 unknown #
coedge $-1 $117 $116 $290 $291 forward $46 $-1 #
coedge $-1 $292 $293 $116 $190 reversed $277 $-1 #
edge $-1 $197 -57.444380016479997 $294 57.444380016479997 $189 $295 forward 7 unknown #
coedge $-1 $183 $296 $117 $192 reversed $113 $-1 #
edge $-1 $297 -57.444380016479997 $196 57.444380016479997 $191 $298 forward 7 unknown #
coedge $-1 $186 $118 $296 $299 forward $195 $-1 #
coedge $-1 $118 $186 $292 $300 reversed $195 $-1 #
loop $-1 $-1 $193 $276 #
vertex $-1 $119 $301 #
vertex $-1 $119 $302 #
straight-curve $-1 57.444380016479997 0 15.529011124309177 0 1 0 I I #
face $-1 $303 $304 $28 $-1 $305 reversed single #
loop $-1 $-1 $211 $120 #
plane-surface $-1 0 -43.459307019060347 -12.131651917005401 0 0 1 1 0 0 forward_v I I I I #
coedge $-1 $306 $307 $124 $207 forward $121 $-1 #
coedge $-1 $308 $123 $307 $309 forward $77 $-1 #
coedge $-1 $123 $308 $310 $311 forward $77 $-1 #
coedge $-1 $125 $124 $123 $206 reversed $49 $-1 #
edge $-1 $312 -57.444380016479997 $313 57.444380016479997 $123 $314 forward 7 unknown #
edge $-1 $313 -15.529011124309177 $213 -12.131651917005401 $202 $315 forward 7 unknown #
coedge $-1 $310 $316 $125 $209 forward $317 $-1 #
edge $-1 $212 12.131651917005401 $312 15.529011124309177 $208 $318 forward 7 unknown #
coedge $-1 $319 $126 $316 $320 forward $200 $-1 #
coedge $-1 $126 $319 $306 $321 forward $200 $-1 #
vertex $-1 $209 $322 #
vertex $-1 $321 $323 #
straight-curve $-1 0 -34.785519965971794 -12.131651917005401 1 0 0 I I #
face $-1 $324 $325 $29 $-1 $326 reversed single #
loop $-1 $-1 $327 $128 #
plane-surface $-1 0 42.576148123822428 -3.580141188605805 0 0 1 1 0 0 forward_v I I I I #
coedge $-1 $328 $134 $220 $329 forward $129 $-1 #
coedge $-1 $330 $131 $327 $331 reversed $81 $-1 #
coedge $-1 $131 $330 $218 $329 reversed $81 $-1 #
edge $-1 $226 -1.9578301420623214 $332 3.580141188605805 $131 $333 forward 7 unknown #
coedge $-1 $133 $132 $334 $335 forward $52 $-1 #
coedge $-1 $336 $337 $132 $224 forward $338 $-1 #
edge $-1 $339 -3.580141188605805 $227 1.9578301420623214 $223 $340 forward 7 unknown #
coedge $-1 $134 $328 $336 $341 forward $129 $-1 #
vertex $-1 $221 $342 #
vertex $-1 $341 $343 #
straight-curve $-1 0 34.785519965971794 1.9578301420623214 -1 0 0 I I #
face $-1 $-1 $241 $30 $-1 $344 forward single #
loop $-1 $-1 $345 $136 #
plane-surface $-1 -57.444380016479997 0 0 1 0 0 0 0 -1 forward_v I I I I #
coedge $-1 $346 $347 $348 $349 reversed $137 $-1 #
coedge $-1 $350 $139 $141 $239 forward $85 $-1 #
coedge $-1 $139 $350 $346 $351 forward $85 $-1 #
coedge $-1 $348 $142 $139 $236 forward $241 $-1 #
edge $-1 $243 -4.2182475068168443 $352 5.7427273620175541 $235 $353 forward 7 unknown #
coedge $-1 $354 $355 $140 $238 forward $230 $-1 #
edge $-1 $356 -46.903881428422345 $242 -31.678469499422526 $237 $357 forward 7 unknown #
edge $-1 $243 -26.544695297520512 $356 0 $141 $358 forward 7 unknown #
coedge $-1 $142 $348 $354 $359 forward $241 $-1 #
loop $-1 $-1 $348 $229 #
vertex $-1 $238 $360 #
vertex $-1 $143 $361 #
straight-curve $-1 -61.670933211128045 -3.4560075792164895 15.529011124309179 1 0 0 I I #
coedge $-1 $245 $245 $-1 $362 reversed $146 $-1 #
edge $-1 $363 0 $363 6.2831853071796004 $147 $364 forward 7 unknown #
vertex $-1 $150 $365 #
ellipse-curve $-1 -46.572309376182467 -0.61001475954952156 7.9163051598092702 -0.57357644374324357 0 0.81915203911291934 0.40957601955645967 0 0.28678822187162178 1 I I #
coedge $-1 $249 $249 $-1 $366 reversed $153 $-1 #
edge $-1 $367 0 $367 6.2831853071796004 $154 $368 forward 7 unknown #
vertex $-1 $157 $369 #
ellipse-curve $-1 -46.572309376182467 3.6589744699509339 7.9163051598092702 -0.57357644374324357 0 0.81915203911291934 0.40957601955645967 0 0.28678822187162178 1 I I #
face $-1 $-1 $370 $33 $-1 $371 reversed single #
loop $-1 $-1 $164 $158 #
plane-surface $-1 0 0 15.529011124309177 0 0 1 1 0 0 forward_v I I I I #
coedge $-1 $372 $373 $374 $375 reversed $159 $-1 #
coedge $-1 $376 $161 $163 $263 forward $99 $-1 #
coedge $-1 $161 $376 $372 $377 forward $99 $-1 #
coedge $-1 $374 $164 $161 $260 forward $254 $-1 #
edge $-1 $266 -5.7427273620175541 $378 4.2182475068168443 $259 $379 forward 7 unknown #
coedge $-1 $380 $381 $162 $262 forward $370 $-1 #
edge $-1 $382 -79.852624631310391 $265 -64.627212702310572 $261 $383 forward 7 unknown #
edge $-1 $266 88.344064735439488 $382 114.88876003295999 $163 $384 forward 7 unknown #
coedge $-1 $164 $374 $380 $385 forward $254 $-1 #
vertex $-1 $165 $386 #
vertex $-1 $165 $387 #
straight-curve $-1 14.61525218505102 6.5049672896179089 15.529011124309179 -1 0 0 I I #
coedge $-1 $268 $268 $-1 $388 reversed $168 $-1 #
edge $-1 $389 0 $389 6.2831853071796004 $169 $390 forward 7 unknown #
vertex $-1 $172 $391 #
ellipse-curve $-1 46.572309376182467 -0.61001475954952156 7.9163051598092773 0.57357644374324357 0 0.81915203911291934 0.40957601955645967 0 -0.28678822187162178 1 I I #
coedge $-1 $272 $272 $-1 $392 reversed $175 $-1 #
edge $-1 $393 0 $393 6.2831853071796004 $176 $394 forward 7 unknown #
vertex $-1 $179 $395 #
ellipse-curve $-1 46.572309376182467 3.6589744699509339 7.9163051598092773 0.57357644374324357 0 0.81915203911291934 0.40957601955645967 0 -0.28678822187162178 1 I I #
face $-1 $-1 $195 $27 $-1 $396 reversed single #
loop $-1 $-1 $292 $180 #
plane-surface $-1 0 34.785519965971794 0 0 -1 0 0 0 -1 forward_v I I I I #
coedge $-1 $397 $290 $293 $398 forward $181 $-1 #
coedge $-1 $296 $183 $184 $284 reversed $113 $-1 #
coedge $-1 $290 $397 $183 $282 reversed $181 $-1 #
edge $-1 $297 -15.529011124309177 $399 15.529011124309177 $281 $400 forward 7 unknown #
coedge $-1 $185 $184 $397 $401 forward $73 $-1 #
edge $-1 $288 -57.444380016479997 $399 57.444380016479997 $280 $402 forward 7 unknown #
coedge $-1 $293 $292 $185 $286 reversed $277 $-1 #
edge $-1 $403 -57.444380016479997 $287 57.444380016479997 $285 $404 forward 7 unknown #
vertex $-1 $187 $405 #
vertex $-1 $299 $406 #
straight-curve $-1 57.444380016479997 0 -15.529011124309177 0 -1 0 I I #
coedge $-1 $279 $281 $188 $291 reversed $181 $-1 #
edge $-1 $294 -34.785519965971794 $297 34.785519965971794 $290 $407 forward 7 unknown #
coedge $-1 $285 $189 $194 $300 forward $277 $-1 #
coedge $-1 $189 $285 $279 $398 reversed $277 $-1 #
vertex $-1 $190 $408 #
straight-curve $-1 0 34.785519965971794 15.529011124309177 -1 0 0 I I #
coedge $-1 $191 $280 $193 $299 reversed $113 $-1 #
vertex $-1 $291 $409 #
straight-curve $-1 0 -34.785519965971794 15.529011124309177 1 0 0 I I #
edge $-1 $196 -15.529011124309177 $288 15.529011124309177 $193 $410 forward 7 unknown #
edge $-1 $197 -15.529011124309177 $287 15.529011124309177 $194 $411 forward 7 unknown #
point $-1 57.444380016479997 -34.785519965971794 15.529011124309177 #
point $-1 57.444380016479997 34.785519965971794 15.529011124309177 #
face $-1 $-1 $317 $28 $-1 $412 reversed single #
loop $-1 $-1 $413 $199 #
plane-surface $-1 0 -52.133094072148907 -13.830331520657289 0 1 0 0 0 1 forward_v I I I I #
coedge $-1 $414 $202 $211 $321 reversed $121 $-1 #
coedge $-1 $202 $414 $203 $309 reversed $121 $-1 #
coedge $-1 $204 $203 $415 $416 forward $77 $-1 #
edge $-1 $313 34.785519965971794 $417 52.133094072148907 $307 $418 forward 7 unknown #
coedge $-1 $419 $208 $204 $311 reversed $317 $-1 #
edge $-1 $420 -52.133094072148907 $312 -34.785519965971794 $310 $421 forward 7 unknown #
vertex $-1 $209 $422 #
vertex $-1 $309 $423 #
straight-curve $-1 0 -34.785519965971794 -15.529011124309177 1 0 0 I I #
straight-curve $-1 57.444380016479997 -34.785519965971794 0 0 0 1 I I #
coedge $-1 $208 $419 $210 $320 reversed $317 $-1 #
loop $-1 $-1 $208 $303 #
straight-curve $-1 -57.444380016479997 -34.785519965971794 0 0 0 -1 I I #
coedge $-1 $211 $210 $424 $425 forward $200 $-1 #
edge $-1 $212 -8.6737870530885601 $426 8.6737870530885601 $316 $427 forward 7 unknown #
edge $-1 $428 -8.6737870530885601 $213 8.6737870530885601 $306 $429 forward 7 unknown #
point $-1 -57.444380016479997 -34.785519965971787 -12.131651917005401 #
point $-1 57.444380016479997 -34.785519965971787 -12.131651917005401 #
face $-1 $-1 $338 $29 $-1 $430 reversed single #
loop $-1 $-1 $431 $215 #
plane-surface $-1 0 50.366776281673054 -0.81115552327174179 0 -1 0 0 0 -1 forward_v I I I I #
coedge $-1 $334 $432 $219 $331 forward $216 $-1 #
coedge $-1 $225 $218 $433 $434 forward $129 $-1 #
edge $-1 $226 -7.7906281578506267 $435 7.7906281578506267 $220 $436 forward 7 unknown #
coedge $-1 $220 $219 $431 $437 reversed $81 $-1 #
edge $-1 $438 -7.7906281578506267 $332 7.7906281578506267 $219 $439 forward 7 unknown #
vertex $-1 $221 $440 #
straight-curve $-1 57.444380016479997 34.785519965971794 0 0 0 -1 I I #
coedge $-1 $441 $327 $222 $335 reversed $216 $-1 #
edge $-1 $339 -57.444380016479997 $332 57.444380016479997 $334 $442 forward 7 unknown #
coedge $-1 $443 $223 $225 $341 reversed $338 $-1 #
coedge $-1 $223 $443 $441 $444 reversed $338 $-1 #
loop $-1 $-1 $223 $324 #
vertex $-1 $224 $445 #
straight-curve $-1 -57.444380016479997 34.785519965971794 0 0 0 1 I I #
edge $-1 $446 -7.7906281578506267 $227 7.7906281578506267 $336 $447 forward 7 unknown #
point $-1 57.444380016479997 34.785519965971801 1.9578301420623214 #
point $-1 -57.444380016479997 34.785519965971801 1.9578301420623214 #
plane-surface $-1 0 0 15.529011124309177 0 0 1 1 0 0 forward_v I I I I #
coedge $-1 $355 $354 $347 $448 forward $230 $-1 #
coedge $-1 $347 $232 $234 $351 reversed $137 $-1 #
coedge $-1 $232 $346 $345 $448 reversed $137 $-1 #
coedge $-1 $240 $235 $232 $349 forward $241 $-1 #
edge $-1 $352 -25.970694475243093 $449 -4.2265531946480479 $348 $450 forward 7 unknown #
coedge $-1 $234 $233 $355 $451 reversed $85 $-1 #
edge $-1 $452 0 $352 26.544695297520512 $346 $453 forward 7 unknown #
vertex $-1 $236 $454 #
straight-curve $-1 -35.700238735884945 0.76223992760035486 15.529011124309177 0 1 0 I I #
coedge $-1 $345 $237 $240 $359 reversed $230 $-1 #
coedge $-1 $237 $345 $350 $451 forward $230 $-1 #
vertex $-1 $238 $455 #
straight-curve $-1 -57.444380016479997 -3.4560075792164895 47.207480623731705 0 0 1 I I #
straight-curve $-1 -57.444380016479997 -3.4560075792164895 0.30359919530935997 -0.81915203911291934 0 -0.57357644374324357 I I #
edge $-1 $449 -6.5049672896179089 $242 3.4560075792164895 $354 $456 forward 7 unknown #
point $-1 -57.444380016479997 -3.4560075792164895 15.529011124309177 #
point $-1 -35.700238735884952 -3.4560075792164895 15.529011124309177 #
edge $-1 $457 1 $457 0 $245 $-1 forward 7 unknown #
vertex $-1 $246 $458 #
ellipse-curve $-1 -45.998732932439218 -0.61001475954952156 7.097153120696345 -0.57357644374324357 0 0.81915203911291934 0.40957601955645967 0 0.28678822187162178 1 I I #
point $-1 -46.162733356626006 -0.61001475954952156 8.2030933816808869 #
edge $-1 $459 1 $459 0 $249 $-1 forward 7 unknown #
vertex $-1 $250 $460 #
ellipse-curve $-1 -45.998732932439218 3.6589744699509339 7.097153120696345 -0.57357644374324357 0 0.81915203911291934 0.40957601955645967 0 0.28678822187162178 1 I I #
point $-1 -46.162733356626006 3.6589744699509339 8.2030933816808869 #
loop $-1 $-1 $261 $253 #
plane-surface $-1 57.444380016479997 0 0 -1 0 0 0 0 1 forward_v I I I I #
coedge $-1 $373 $256 $258 $377 reversed $159 $-1 #
coedge $-1 $256 $372 $461 $462 reversed $159 $-1 #
coedge $-1 $264 $259 $256 $375 forward $254 $-1 #
edge $-1 $378 21.084986550833932 $463 42.829127831428977 $374 $464 forward 7 unknown #
coedge $-1 $258 $257 $381 $465 reversed $99 $-1 #
edge $-1 $466 -114.88876003295999 $378 -88.344064735439488 $372 $467 forward 7 unknown #
vertex $-1 $260 $468 #
straight-curve $-1 35.700238735884938 0.76223992760035486 15.529011124309179 0 -1 0 I I #
coedge $-1 $461 $261 $264 $385 reversed $370 $-1 #
coedge $-1 $261 $461 $376 $465 forward $370 $-1 #
vertex $-1 $262 $469 #
straight-curve $-1 57.444380016479997 6.5049672896179089 80.156223826619751 0 0 1 I I #
straight-curve $-1 -36.666982035674053 6.5049672896179089 66.201085601085452 0.81915203911291934 0 -0.57357644374324357 I I #
edge $-1 $463 -3.4560075792164895 $265 6.5049672896179089 $380 $470 forward 7 unknown #
point $-1 57.444380016479997 6.5049672896179089 15.529011124309177 #
point $-1 35.700238735884952 6.5049672896179089 15.529011124309179 #
edge $-1 $471 1 $471 0 $268 $-1 forward 7 unknown #
vertex $-1 $269 $472 #
ellipse-curve $-1 45.998732932439218 -0.61001475954952156 7.0971531206963521 0.57357644374324357 0 0.81915203911291934 0.40957601955645967 0 -0.28678822187162178 1 I I #
point $-1 46.981885395738921 -0.61001475954952156 7.62951693793765 #
edge $-1 $473 1 $473 0 $272 $-1 forward 7 unknown #
vertex $-1 $273 $474 #
ellipse-curve $-1 45.998732932439218 3.6589744699509339 7.0971531206963521 0.57357644374324357 0 0.81915203911291934 0.40957601955645967 0 -0.28678822187162178 1 I I #
point $-1 46.981885395738921 3.6589744699509339 7.62951693793765 #
plane-surface $-1 57.444380016479997 0 0 -1 0 0 0 0 1 forward_v I I I I #
coedge $-1 $281 $279 $283 $401 reversed $181 $-1 #
edge $-1 $294 -15.529011124309177 $403 15.529011124309177 $293 $475 forward 7 unknown #
vertex $-1 $401 $476 #
straight-curve $-1 -57.444380016479997 -34.785519965971794 0 0 0 -1 I I #
edge $-1 $399 -34.785519965971794 $403 34.785519965971794 $397 $477 forward 7 unknown #
straight-curve $-1 0 -34.785519965971794 -15.529011124309177 -1 0 0 I I #
vertex $-1 $286 $478 #
straight-curve $-1 0 34.785519965971794 -15.529011124309177 1 0 0 I I #
point $-1 57.444380016479997 34.785519965971794 -15.529011124309177 #
point $-1 57.444380016479997 -34.785519965971794 -15.529011124309177 #
straight-curve $-1 -57.444380016479997 0 15.529011124309177 0 -1 0 I I #
point $-1 -57.444380016479997 34.785519965971794 15.529011124309177 #
point $-1 -57.444380016479997 -34.785519965971794 15.529011124309177 #
straight-curve $-1 57.444380016479997 -34.785519965971794 0 0 0 -1 I I #
straight-curve $-1 57.444380016479997 34.785519965971794 0 0 0 -1 I I #
plane-surface $-1 -57.444380016479997 0 0 1 0 0 0 0 -1 forward_v I I I I #
coedge $-1 $415 $424 $419 $479 forward $304 $-1 #
coedge $-1 $307 $306 $480 $481 forward $121 $-1 #
coedge $-1 $480 $413 $308 $416 reversed $304 $-1 #
edge $-1 $417 -57.444380016479997 $420 57.444380016479997 $415 $482 forward 7 unknown #
vertex $-1 $481 $483 #
straight-curve $-1 57.444380016479997 0 -15.529011124309177 0 -1 0 I I #
coedge $-1 $316 $310 $413 $479 reversed $317 $-1 #
vertex $-1 $311 $484 #
straight-curve $-1 -57.444380016479997 0 -15.529011124309177 0 1 0 I I #
point $-1 -57.444380016479997 -34.785519965971794 -15.529011124309177 #
point $-1 57.444380016479997 -34.785519965971794 -15.529011124309177 #
coedge $-1 $413 $480 $319 $425 reversed $304 $-1 #
edge $-1 $426 -57.444380016479997 $428 57.444380016479997 $424 $485 forward 7 unknown #
vertex $-1 $320 $486 #
straight-curve $-1 -57.444380016479997 -43.459307019060347 -12.131651917005401 0 -1 0 I I #
vertex $-1 $321 $487 #
straight-curve $-1 57.444380016479997 -43.459307019060347 -12.131651917005401 0 1 0 I I #
plane-surface $-1 -57.444380016479997 0 0 1 0 0 0 0 -1 forward_v I I I I #
coedge $-1 $488 $433 $330 $437 forward $325 $-1 #
coedge $-1 $327 $441 $488 $489 forward $216 $-1 #
coedge $-1 $431 $490 $328 $434 reversed $325 $-1 #
edge $-1 $435 -57.444380016479997 $446 57.444380016479997 $433 $491 forward 7 unknown #
vertex $-1 $329 $492 #
straight-curve $-1 57.444380016479997 42.576148123822428 1.9578301420623214 0 1 0 I I #
edge $-1 $435 -2.7689856653340632 $438 2.7689856653340632 $330 $493 forward 7 unknown #
vertex $-1 $331 $494 #
straight-curve $-1 57.444380016479997 42.576148123822428 -3.580141188605805 0 -1 0 I I #
point $-1 57.444380016479997 34.785519965971801 -3.580141188605805 #
coedge $-1 $432 $334 $337 $444 forward $216 $-1 #
straight-curve $-1 0 34.785519965971794 -3.580141188605805 1 0 0 I I #
coedge $-1 $337 $336 $490 $495 forward $338 $-1 #
edge $-1 $339 -7.7906281578506267 $496 7.7906281578506267 $337 $497 forward 7 unknown #
point $-1 -57.444380016479997 34.785519965971801 -3.580141188605805 #
vertex $-1 $434 $498 #
straight-curve $-1 -57.444380016479997 42.576148123822428 1.9578301420623214 0 -1 0 I I #
edge $-1 $449 31.678469499422526 $452 46.903881428422345 $345 $499 forward 7 unknown #
vertex $-1 $359 $500 #
straight-curve $-1 -61.670933211128045 6.5049672896179089 15.529011124309179 -1 0 0 I I #
edge $-1 $452 -5.7427273620175541 $356 4.2182475068168443 $355 $501 forward 7 unknown #
vertex $-1 $451 $502 #
straight-curve $-1 -57.444380016479997 6.5049672896179089 0.30359919530935997 0.81915203911291934 0 0.57357644374324357 I I #
point $-1 -35.700238735884952 6.5049672896179089 15.529011124309177 #
point $-1 -57.444380016479997 -3.4560075792164895 0.30359919530935997 #
straight-curve $-1 -57.444380016479997 0 15.529011124309177 0 -1 0 I I #
vertex $-1 $362 $503 #
point $-1 -45.589156912882757 -0.61001475954952156 7.383941342567967 #
vertex $-1 $366 $504 #
point $-1 -45.589156912882757 3.6589744699509339 7.383941342567967 #
coedge $-1 $381 $380 $373 $462 forward $370 $-1 #
edge $-1 $463 64.627212702310572 $466 79.852624631310391 $461 $505 forward 7 unknown #
vertex $-1 $385 $506 #
straight-curve $-1 14.61525218505102 -3.4560075792164895 15.529011124309179 1 0 0 I I #
edge $-1 $466 -4.2182475068168443 $382 5.7427273620175541 $381 $507 forward 7 unknown #
vertex $-1 $465 $508 #
straight-curve $-1 -36.666982035674053 -3.4560075792164895 66.201085601085452 -0.81915203911291934 0 0.57357644374324357 I I #
point $-1 35.700238735884952 -3.4560075792164895 15.529011124309179 #
point $-1 57.444380016479997 6.5049672896179089 0.30359919530935997 #
straight-curve $-1 57.444380016479997 0 15.529011124309177 0 1 0 I I #
vertex $-1 $388 $509 #
point $-1 46.408308951995679 -0.61001475954952156 6.810364898824731 #
vertex $-1 $392 $510 #
point $-1 46.408308951995679 3.6589744699509339 6.810364898824731 #
straight-curve $-1 -57.444380016479997 34.785519965971794 0 0 0 -1 I I #
point $-1 -57.444380016479997 -34.785519965971794 -15.529011124309177 #
straight-curve $-1 -57.444380016479997 0 -15.529011124309177 0 1 0 I I #
point $-1 -57.444380016479997 34.785519965971794 -15.529011124309177 #
edge $-1 $426 -1.6986796036518879 $420 1.6986796036518879 $419 $511 forward 7 unknown #
coedge $-1 $424 $415 $414 $481 reversed $304 $-1 #
edge $-1 $428 -1.6986796036518879 $417 1.6986796036518879 $414 $512 forward 7 unknown #
straight-curve $-1 0 -52.133094072148907 -15.529011124309177 -1 0 0 I I #
point $-1 57.444380016479997 -52.133094072148907 -15.529011124309177 #
point $-1 -57.444380016479997 -52.133094072148907 -15.529011124309177 #
straight-curve $-1 0 -52.133094072148907 -12.131651917005401 1 0 0 I I #
point $-1 -57.444380016479997 -52.133094072148907 -12.131651917005401 #
point $-1 57.444380016479997 -52.133094072148907 -12.131651917005401 #
coedge $-1 $490 $431 $432 $489 reversed $325 $-1 #
edge $-1 $496 -57.444380016479997 $438 57.444380016479997 $488 $513 forward 7 unknown #
coedge $-1 $433 $488 $443 $495 reversed $325 $-1 #
straight-curve $-1 0 50.366776281673054 1.9578301420623214 -1 0 0 I I #
point $-1 57.444380016479997 50.366776281673054 1.9578301420623214 #
straight-curve $-1 57.444380016479997 50.366776281673054 -0.81115552327174179 0 0 -1 I I #
point $-1 57.444380016479997 50.366776281673054 -3.580141188605805 #
edge $-1 $446 -2.7689856653340632 $496 2.7689856653340632 $490 $514 forward 7 unknown #
vertex $-1 $489 $515 #
straight-curve $-1 -57.444380016479997 42.576148123822428 -3.580141188605805 0 1 0 I I #
point $-1 -57.444380016479997 50.366776281673054 1.9578301420623214 #
straight-curve $-1 -57.444380016479997 6.5049672896179089 47.207480623731705 0 0 -1 I I #
point $-1 -57.444380016479997 6.5049672896179089 15.529011124309177 #
straight-curve $-1 -57.444380016479997 0.76223992760035486 0.3035991953093603 0 -1 0 I I #
point $-1 -57.444380016479997 6.5049672896179089 0.30359919530935997 #
point $-1 -45.7119447105676 -0.61001475954952156 6.6875771011398859 #
point $-1 -45.7119447105676 3.6589744699509339 6.6875771011398859 #
straight-curve $-1 57.444380016479997 -3.4560075792164895 80.156223826619751 0 0 -1 I I #
point $-1 57.444380016479997 -3.4560075792164895 15.529011124309177 #
straight-curve $-1 57.444380016480004 0.76223992760035486 0.30359919530935287 0 1 0 I I #
point $-1 57.444380016479997 -3.4560075792164895 0.30359919530935997 #
point $-1 45.7119447105676 -0.61001475954952156 6.687577101139893 #
point $-1 45.7119447105676 3.6589744699509339 6.687577101139893 #
straight-curve $-1 -57.444380016479997 -52.133094072148907 -13.830331520657289 0 0 -1 I I #
straight-curve $-1 57.444380016479997 -52.133094072148907 -13.830331520657289 0 0 -1 I I #
straight-curve $-1 0 50.366776281673054 -3.580141188605805 1 0 0 I I #
straight-curve $-1 -57.444380016479997 50.366776281673054 -0.81115552327174179 0 0 -1 I I #
point $-1 -57.444380016479997 50.366776281673054 -3.580141188605805 #
End-of-ACIS-data 