500 0 8 0           
7 Unknown 11 ACIS 5.0 NT 24 Thu Mar 25 18:10:16 1999 
-1 9.9999999999999995e-007 1e-010 
body $-1 $8 $-1 $9 #
body $-1 $10 $-1 $11 #
body $-1 $12 $-1 $13 #
body $-1 $14 $-1 $15 #
body $-1 $16 $-1 $17 #
body $-1 $18 $-1 $19 #
body $-1 $20 $-1 $21 #
body $-1 $22 $-1 $23 #
lump $-1 $-1 $24 $0 #
transform $-1 1 0 0 0 1 0 0 0 1 63.834955900753812 42.001285294286689 12.814064419383074 1 rotate no_reflect no_shear #
lump $-1 $-1 $25 $1 #
transform $-1 1 0 0 0 1 0 0 0 1 63.834955900753812 42.001285294286689 12.814064419383074 1 rotate no_reflect no_shear #
lump $-1 $-1 $26 $2 #
transform $-1 1 0 0 0 1 0 0 0 1 63.834955900753812 42.001285294286689 12.814064419383074 1 rotate no_reflect no_shear #
lump $-1 $-1 $27 $3 #
transform $-1 1 0 0 0 1 0 0 0 1 63.834955900753812 42.001285294286689 12.814064419383074 1 rotate no_reflect no_shear #
lump $-1 $-1 $28 $4 #
transform $-1 1 0 0 0 1 0 0 0 1 63.834955900753812 42.001285294286689 12.814064419383074 1 rotate no_reflect no_shear #
lump $-1 $-1 $29 $5 #
transform $-1 1 0 0 0 1 0 0 0 1 63.834955900753812 42.001285294286689 12.814064419383074 1 rotate no_reflect no_shear #
lump $-1 $-1 $30 $6 #
transform $-1 1 0 0 0 1 0 0 0 1 63.834955900753812 42.001285294286689 12.814064419383074 1 rotate no_reflect no_shear #
lump $-1 $-1 $31 $7 #
transform $-1 1 0 0 0 1 0 0 0 1 63.834955900753812 42.001285294286689 12.814064419383074 1 rotate no_reflect no_shear #
shell $-1 $-1 $-1 $32 $-1 $8 #
shell $-1 $-1 $-1 $33 $-1 $10 #
shell $-1 $-1 $-1 $34 $-1 $12 #
shell $-1 $-1 $-1 $35 $-1 $14 #
shell $-1 $-1 $-1 $36 $-1 $16 #
shell $-1 $-1 $-1 $37 $-1 $18 #
shell $-1 $-1 $-1 $38 $-1 $20 #
shell $-1 $-1 $-1 $39 $-1 $22 #
face $-1 $40 $41 $24 $-1 $42 forward single #
face $-1 $43 $44 $25 $-1 $45 forward single #
face $-1 $46 $47 $26 $-1 $48 reversed single #
face $-1 $49 $50 $27 $-1 $51 forward single #
face $-1 $52 $53 $28 $-1 $54 forward single #
face $-1 $55 $56 $29 $-1 $57 reversed single #
face $-1 $58 $59 $30 $-1 $60 forward single #
face $-1 $61 $62 $31 $-1 $63 forward single #
face $-1 $64 $65 $24 $-1 $66 reversed single #
loop $-1 $-1 $67 $32 #
plane-surface $-1 0 0 12.814064419383074 0 0 1 1 0 0 forward_v I I I I #
face $-1 $68 $69 $25 $-1 $70 reversed single #
loop $-1 $-1 $71 $33 #
plane-surface $-1 0 -42.001285294286689 0 0 1 0 0 0 1 forward_v I I I I #
face $-1 $72 $73 $26 $-1 $74 reversed single #
loop $-1 $-1 $75 $34 #
plane-surface $-1 -44.922150591303009 62.362740476713554 154.46934025079813 1 0 0 0 -0.6560590369687036 -0.75470957328743171 forward_v I I I I #
face $-1 $76 $77 $27 $-1 $78 forward single #
loop $-1 $79 $80 $35 #
cone-surface $-1 -40.061800370258474 34.142030702515733 5.3588958534180016 0 -0.6560590369687036 -0.75470957328743171 2 0 0 1 I I 0 1 2 forward I I I I #
face $-1 $81 $82 $28 $-1 $83 forward single #
loop $-1 $84 $85 $36 #
cone-surface $-1 -32.77127503869167 34.142030702515733 5.3588958534180016 0 -0.6560590369687036 -0.75470957328743171 2 0 0 1 I I 0 1 2 forward I I I I #
face $-1 $86 $87 $29 $-1 $88 reversed single #
loop $-1 $-1 $89 $37 #
plane-surface $-1 27.910924817647135 62.362740476713554 154.46934025079813 1 0 0 0 -0.6560590369687036 -0.75470957328743171 forward_v I I I I #
face $-1 $90 $91 $30 $-1 $92 forward single #
loop $-1 $93 $94 $38 #
cone-surface $-1 32.77127503869167 34.142030702515733 5.3588958534180016 0 -0.6560590369687036 -0.75470957328743171 2 0 0 1 I I 0 1 2 forward I I I I #
face $-1 $95 $96 $31 $-1 $97 forward single #
loop $-1 $98 $99 $39 #
cone-surface $-1 40.061800370258482 34.142030702515733 5.3588958534180016 0 -0.6560590369687036 -0.75470957328743171 2 0 0 1 I I 0 1 2 forward I I I I #
face $-1 $100 $101 $24 $-1 $102 reversed single #
loop $-1 $-1 $103 $40 #
plane-surface $-1 0 0 -12.814064419383074 0 0 1 1 0 0 forward_v I I I I #
coedge $-1 $104 $105 $106 $107 forward $41 $-1 #
face $-1 $108 $109 $25 $-1 $110 reversed single #
loop $-1 $-1 $111 $43 #
plane-surface $-1 0 0 -12.814064419383074 0 0 1 1 0 0 forward_v I I I I #
coedge $-1 $112 $113 $114 $115 forward $44 $-1 #
face $-1 $116 $117 $26 $-1 $118 reversed single #
loop $-1 $-1 $119 $46 #
plane-surface $-1 -36.416537704475068 -21.396258909662876 58.115635593438256 0 0.6560590369687036 0.75470957328743171 1 0 0 forward_v I I I I #
coedge $-1 $120 $121 $122 $123 reversed $47 $-1 #
face $-1 $-1 $124 $27 $-1 $125 forward single #
loop $-1 $126 $127 $49 #
cone-surface $-1 -40.061800370258474 31.268741594014259 2.0535549087553999 0 -0.6560590369687036 -0.75470957328743171 1 0 0 1 I I -0.70710678118654746 0.70710678118654746 1 forward I I I I #
loop $-1 $-1 $128 $35 #
coedge $-1 $80 $80 $129 $130 reversed $50 $-1 #
face $-1 $-1 $131 $28 $-1 $132 forward single #
loop $-1 $133 $134 $52 #
cone-surface $-1 -32.77127503869167 31.268741594014259 2.0535549087553999 0 -0.6560590369687036 -0.75470957328743171 1 0 0 1 I I -0.70710678118654746 0.70710678118654746 1 forward I I I I #
loop $-1 $-1 $135 $36 #
coedge $-1 $85 $85 $136 $137 reversed $53 $-1 #
face $-1 $138 $139 $29 $-1 $140 reversed single #
loop $-1 $-1 $141 $55 #
plane-surface $-1 36.416537704475076 -21.396258909662876 58.115635593438256 0 0.6560590369687036 0.75470957328743171 1 0 0 forward_v I I I I #
coedge $-1 $142 $143 $144 $145 reversed $56 $-1 #
face $-1 $-1 $146 $30 $-1 $147 forward single #
loop $-1 $148 $149 $58 #
cone-surface $-1 32.77127503869167 31.268741594014259 2.0535549087553999 0 -0.6560590369687036 -0.75470957328743171 1 0 0 1 I I -0.70710678118654746 0.70710678118654746 1 forward I I I I #
loop $-1 $-1 $150 $38 #
coedge $-1 $94 $94 $151 $152 reversed $59 $-1 #
face $-1 $-1 $153 $31 $-1 $154 forward single #
loop $-1 $155 $156 $61 #
cone-surface $-1 40.061800370258482 31.268741594014259 2.0535549087553999 0 -0.6560590369687036 -0.75470957328743171 1 0 0 1 I I -0.70710678118654746 0.70710678118654746 1 forward I I I I #
loop $-1 $-1 $157 $39 #
coedge $-1 $99 $99 $158 $159 reversed $62 $-1 #
face $-1 $160 $161 $24 $-1 $162 reversed single #
loop $-1 $-1 $163 $64 #
plane-surface $-1 0 -42.001285294286689 0 0 1 0 0 0 1 forward_v I I I I #
coedge $-1 $164 $165 $166 $167 forward $65 $-1 #
coedge $-1 $168 $67 $169 $170 forward $41 $-1 #
coedge $-1 $67 $168 $171 $172 forward $41 $-1 #
coedge $-1 $173 $174 $67 $107 reversed $175 $-1 #
edge $-1 $176 -42.001285294286689 $177 42.001285294286689 $106 $178 forward 7 unknown #
face $-1 $179 $180 $25 $-1 $181 forward single #
loop $-1 $-1 $182 $68 #
plane-surface $-1 63.834955900753812 0 0 -1 0 0 0 0 1 forward_v I I I I #
coedge $-1 $183 $184 $185 $186 forward $69 $-1 #
coedge $-1 $185 $71 $182 $187 reversed $44 $-1 #
coedge $-1 $71 $185 $188 $189 reversed $44 $-1 #
coedge $-1 $190 $191 $71 $115 reversed $180 $-1 #
edge $-1 $192 -63.834955900753812 $193 63.834955900753812 $114 $194 forward 7 unknown #
face $-1 $195 $196 $26 $-1 $197 forward single #
loop $-1 $-1 $198 $72 #
plane-surface $-1 -27.910924817647128 62.362740476713554 154.46934025079813 -1 0 0 0 0.6560590369687036 0.75470957328743171 forward_v I I I I #
coedge $-1 $199 $200 $201 $202 reversed $73 $-1 #
coedge $-1 $121 $75 $203 $204 reversed $47 $-1 #
coedge $-1 $75 $120 $199 $205 reversed $47 $-1 #
coedge $-1 $201 $206 $75 $123 forward $196 $-1 #
edge $-1 $207 -10.819915055929911 $208 0.46413398454647847 $122 $209 forward 7 unknown #
loop $-1 $-1 $129 $76 #
plane-surface $-1 -36.416537704475068 -21.396258909662876 58.115635593438256 0 0.6560590369687036 0.75470957328743171 1 0 0 forward_v I I I I #
loop $-1 $-1 $210 $49 #
coedge $-1 $127 $127 $128 $211 reversed $77 $-1 #
coedge $-1 $128 $128 $127 $211 forward $79 $-1 #
coedge $-1 $129 $129 $80 $130 forward $124 $-1 #
edge $-1 $212 5.9128370458126394e-017 $212 6.2831853071796004 $129 $213 forward 7 unknown #
loop $-1 $-1 $136 $81 #
plane-surface $-1 -36.416537704475068 -21.396258909662876 58.115635593438256 0 0.6560590369687036 0.75470957328743171 1 0 0 forward_v I I I I #
loop $-1 $-1 $214 $52 #
coedge $-1 $134 $134 $135 $215 reversed $82 $-1 #
coedge $-1 $135 $135 $134 $215 forward $84 $-1 #
coedge $-1 $136 $136 $85 $137 forward $131 $-1 #
edge $-1 $216 5.9128370458126394e-017 $216 6.2831853071796004 $136 $217 forward 7 unknown #
face $-1 $218 $219 $29 $-1 $220 forward single #
loop $-1 $-1 $221 $86 #
plane-surface $-1 44.922150591303016 62.362740476713554 154.46934025079813 -1 0 0 0 0.6560590369687036 0.75470957328743171 forward_v I I I I #
coedge $-1 $222 $223 $224 $225 reversed $87 $-1 #
coedge $-1 $143 $89 $226 $227 reversed $56 $-1 #
coedge $-1 $89 $142 $222 $228 reversed $56 $-1 #
coedge $-1 $224 $229 $89 $145 forward $219 $-1 #
edge $-1 $230 -10.819915055929911 $231 0.46413398454647847 $144 $232 forward 7 unknown #
loop $-1 $-1 $151 $90 #
plane-surface $-1 36.416537704475076 -21.396258909662876 58.115635593438256 0 0.6560590369687036 0.75470957328743171 1 0 0 forward_v I I I I #
loop $-1 $-1 $233 $58 #
coedge $-1 $149 $149 $150 $234 reversed $91 $-1 #
coedge $-1 $150 $150 $149 $234 forward $93 $-1 #
coedge $-1 $151 $151 $94 $152 forward $146 $-1 #
edge $-1 $235 5.9128370458126394e-017 $235 6.2831853071796004 $151 $236 forward 7 unknown #
loop $-1 $-1 $158 $95 #
plane-surface $-1 36.416537704475076 -21.396258909662876 58.115635593438256 0 0.6560590369687036 0.75470957328743171 1 0 0 forward_v I I I I #
loop $-1 $-1 $237 $61 #
coedge $-1 $156 $156 $157 $238 reversed $96 $-1 #
coedge $-1 $157 $157 $156 $238 forward $98 $-1 #
coedge $-1 $158 $158 $99 $159 forward $153 $-1 #
edge $-1 $239 5.9128370458126394e-017 $239 6.2831853071796004 $158 $240 forward 7 unknown #
face $-1 $241 $242 $24 $-1 $243 reversed single #
loop $-1 $-1 $244 $100 #
plane-surface $-1 -63.834955900753812 0 0 1 0 0 0 0 -1 forward_v I I I I #
coedge $-1 $245 $171 $246 $247 forward $101 $-1 #
coedge $-1 $248 $103 $245 $249 forward $65 $-1 #
coedge $-1 $103 $248 $250 $251 forward $65 $-1 #
coedge $-1 $174 $173 $103 $167 reversed $175 $-1 #
edge $-1 $252 -42.001285294286689 $253 42.001285294286689 $166 $254 forward 7 unknown #
coedge $-1 $105 $104 $255 $256 forward $41 $-1 #
coedge $-1 $257 $258 $104 $170 reversed $242 $-1 #
edge $-1 $177 -63.834955900753812 $259 63.834955900753812 $169 $260 forward 7 unknown #
coedge $-1 $163 $261 $105 $172 reversed $101 $-1 #
edge $-1 $262 -63.834955900753812 $176 63.834955900753812 $171 $263 forward 7 unknown #
coedge $-1 $166 $106 $261 $264 forward $175 $-1 #
coedge $-1 $106 $166 $257 $265 reversed $175 $-1 #
loop $-1 $-1 $173 $241 #
vertex $-1 $107 $266 #
vertex $-1 $107 $267 #
straight-curve $-1 63.834955900753812 0 12.814064419383074 0 1 0 I I #
face $-1 $268 $269 $25 $-1 $270 reversed single #
loop $-1 $-1 $191 $108 #
plane-surface $-1 0 -46.648312580080216 -9.3549279279370747 0 0 1 1 0 0 forward_v I I I I #
coedge $-1 $271 $272 $112 $187 forward $109 $-1 #
coedge $-1 $273 $111 $272 $274 forward $69 $-1 #
coedge $-1 $111 $273 $275 $276 forward $69 $-1 #
coedge $-1 $113 $112 $111 $186 reversed $44 $-1 #
edge $-1 $277 -63.834955900753812 $278 63.834955900753812 $111 $279 forward 7 unknown #
edge $-1 $278 -12.814064419383074 $193 -9.3549279279370747 $182 $280 forward 7 unknown #
coedge $-1 $275 $281 $113 $189 forward $282 $-1 #
edge $-1 $192 9.3549279279370747 $277 12.814064419383074 $188 $283 forward 7 unknown #
coedge $-1 $284 $114 $281 $285 forward $180 $-1 #
coedge $-1 $114 $284 $271 $286 forward $180 $-1 #
vertex $-1 $189 $287 #
vertex $-1 $286 $288 #
straight-curve $-1 0 -42.001285294286689 -9.3549279279370747 1 0 0 I I #
face $-1 $-1 $289 $26 $-1 $290 reversed single #
loop $-1 $-1 $122 $116 #
plane-surface $-1 0 0 12.814064419383074 0 0 1 1 0 0 forward_v I I I I #
coedge $-1 $291 $292 $293 $294 reversed $117 $-1 #
coedge $-1 $295 $119 $121 $205 forward $73 $-1 #
coedge $-1 $119 $295 $291 $296 forward $73 $-1 #
coedge $-1 $293 $122 $119 $202 forward $196 $-1 #
edge $-1 $208 -26.713881739065474 $297 -9.7026559654095941 $201 $298 forward 7 unknown #
coedge $-1 $299 $300 $120 $204 forward $289 $-1 #
edge $-1 $301 -74.229680095195789 $207 -64.420605706015991 $203 $302 forward 7 unknown #
edge $-1 $208 69.051058854961298 $301 84.002570588573377 $121 $303 forward 7 unknown #
coedge $-1 $122 $293 $299 $304 forward $196 $-1 #
vertex $-1 $204 $305 #
vertex $-1 $123 $306 #
straight-curve $-1 -44.922150591303009 31.181370238356777 12.814064419383072 0 -1 0 I I #
coedge $-1 $210 $210 $-1 $307 reversed $126 $-1 #
edge $-1 $308 0 $308 6.2831853071796004 $127 $309 forward 7 unknown #
vertex $-1 $130 $310 #
ellipse-curve $-1 -40.061800370258474 36.359260774048494 7.9095272247931634 0 0.6560590369687036 0.75470957328743171 2 0 0 1 I I #
coedge $-1 $214 $214 $-1 $311 reversed $133 $-1 #
edge $-1 $312 0 $312 6.2831853071796004 $134 $313 forward 7 unknown #
vertex $-1 $137 $314 #
ellipse-curve $-1 -32.77127503869167 36.359260774048494 7.9095272247931634 0 0.6560590369687036 0.75470957328743171 2 0 0 1 I I #
face $-1 $-1 $315 $29 $-1 $316 reversed single #
loop $-1 $-1 $144 $138 #
plane-surface $-1 0 0 12.814064419383074 0 0 1 1 0 0 forward_v I I I I #
coedge $-1 $317 $318 $319 $320 reversed $139 $-1 #
coedge $-1 $321 $141 $143 $228 forward $87 $-1 #
coedge $-1 $141 $321 $317 $322 forward $87 $-1 #
coedge $-1 $319 $144 $141 $225 forward $219 $-1 #
edge $-1 $231 9.7026559654095976 $323 26.713881739065478 $224 $324 forward 7 unknown #
coedge $-1 $325 $326 $142 $227 forward $315 $-1 #
edge $-1 $327 -74.229680095195789 $230 -64.420605706015991 $226 $328 forward 7 unknown #
edge $-1 $231 69.051058854961298 $327 84.002570588573377 $143 $329 forward 7 unknown #
coedge $-1 $144 $319 $325 $330 forward $219 $-1 #
vertex $-1 $145 $331 #
vertex $-1 $145 $332 #
straight-curve $-1 27.910924817647135 31.181370238356777 12.814064419383072 0 -1 0 I I #
coedge $-1 $233 $233 $-1 $333 reversed $148 $-1 #
edge $-1 $334 0 $334 6.2831853071796004 $149 $335 forward 7 unknown #
vertex $-1 $152 $336 #
ellipse-curve $-1 32.77127503869167 36.359260774048494 7.9095272247931634 0 0.6560590369687036 0.75470957328743171 2 0 0 1 I I #
coedge $-1 $237 $237 $-1 $337 reversed $155 $-1 #
edge $-1 $338 0 $338 6.2831853071796004 $156 $339 forward 7 unknown #
vertex $-1 $159 $340 #
ellipse-curve $-1 40.061800370258482 36.359260774048494 7.9095272247931634 0 0.6560590369687036 0.75470957328743171 2 0 0 1 I I #
face $-1 $-1 $175 $24 $-1 $341 reversed single #
loop $-1 $-1 $257 $160 #
plane-surface $-1 0 42.001285294286689 0 0 -1 0 0 0 -1 forward_v I I I I #
coedge $-1 $342 $255 $258 $343 forward $161 $-1 #
coedge $-1 $261 $163 $164 $249 reversed $101 $-1 #
coedge $-1 $255 $342 $163 $247 reversed $161 $-1 #
edge $-1 $262 -12.814064419383074 $344 12.814064419383074 $246 $345 forward 7 unknown #
coedge $-1 $165 $164 $342 $346 forward $65 $-1 #
edge $-1 $253 -63.834955900753812 $344 63.834955900753812 $245 $347 forward 7 unknown #
coedge $-1 $258 $257 $165 $251 reversed $242 $-1 #
edge $-1 $348 -63.834955900753812 $252 63.834955900753812 $250 $349 forward 7 unknown #
vertex $-1 $167 $350 #
vertex $-1 $264 $351 #
straight-curve $-1 63.834955900753812 0 -12.814064419383074 0 -1 0 I I #
coedge $-1 $244 $246 $168 $256 reversed $161 $-1 #
edge $-1 $259 -42.001285294286689 $262 42.001285294286689 $255 $352 forward 7 unknown #
coedge $-1 $250 $169 $174 $265 forward $242 $-1 #
coedge $-1 $169 $250 $244 $343 reversed $242 $-1 #
vertex $-1 $170 $353 #
straight-curve $-1 0 42.001285294286689 12.814064419383074 -1 0 0 I I #
coedge $-1 $171 $245 $173 $264 reversed $101 $-1 #
vertex $-1 $256 $354 #
straight-curve $-1 0 -42.001285294286689 12.814064419383074 1 0 0 I I #
edge $-1 $176 -12.814064419383074 $253 12.814064419383074 $173 $355 forward 7 unknown #
edge $-1 $177 -12.814064419383074 $252 12.814064419383074 $174 $356 forward 7 unknown #
point $-1 63.834955900753812 -42.001285294286689 12.814064419383074 #
point $-1 63.834955900753812 42.001285294286689 12.814064419383074 #
face $-1 $-1 $282 $25 $-1 $357 reversed single #
loop $-1 $-1 $358 $179 #
plane-surface $-1 0 -51.295339865873743 -11.084496173660074 0 1 0 0 0 1 forward_v I I I I #
coedge $-1 $359 $182 $191 $286 reversed $109 $-1 #
coedge $-1 $182 $359 $183 $274 reversed $109 $-1 #
coedge $-1 $184 $183 $360 $361 forward $69 $-1 #
edge $-1 $278 42.001285294286689 $362 51.295339865873743 $272 $363 forward 7 unknown #
coedge $-1 $364 $188 $184 $276 reversed $282 $-1 #
edge $-1 $365 -51.295339865873743 $277 -42.001285294286689 $275 $366 forward 7 unknown #
vertex $-1 $189 $367 #
vertex $-1 $274 $368 #
straight-curve $-1 0 -42.001285294286689 -12.814064419383074 1 0 0 I I #
straight-curve $-1 63.834955900753812 -42.001285294286689 0 0 0 1 I I #
coedge $-1 $188 $364 $190 $285 reversed $282 $-1 #
loop $-1 $-1 $188 $268 #
straight-curve $-1 -63.834955900753812 -42.001285294286689 0 0 0 -1 I I #
coedge $-1 $191 $190 $369 $370 forward $180 $-1 #
edge $-1 $192 -4.6470272857935271 $371 4.6470272857935271 $281 $372 forward 7 unknown #
edge $-1 $373 -4.6470272857935271 $193 4.6470272857935271 $271 $374 forward 7 unknown #
point $-1 -63.834955900753812 -42.001285294286689 -9.3549279279370747 #
point $-1 63.834955900753812 -42.001285294286689 -9.3549279279370747 #
loop $-1 $-1 $203 $195 #
plane-surface $-1 0 42.001285294286689 0 0 -1 0 0 0 -1 forward_v I I I I #
coedge $-1 $292 $198 $200 $296 reversed $117 $-1 #
coedge $-1 $198 $291 $375 $376 reversed $117 $-1 #
coedge $-1 $206 $201 $198 $294 forward $196 $-1 #
edge $-1 $297 -0.46413398454647847 $377 10.819915055929911 $293 $378 forward 7 unknown #
coedge $-1 $200 $199 $300 $379 reversed $73 $-1 #
edge $-1 $380 -84.002570588573377 $297 -69.051058854961298 $291 $381 forward 7 unknown #
vertex $-1 $202 $382 #
straight-curve $-1 -18.208268852237534 30.717236253810306 12.814064419383076 1 0 0 I I #
coedge $-1 $375 $203 $206 $304 reversed $289 $-1 #
coedge $-1 $203 $375 $295 $379 forward $289 $-1 #
vertex $-1 $204 $383 #
straight-curve $-1 -44.922150591303009 42.001285294286689 77.234670125399063 0 0 1 I I #
straight-curve $-1 -44.922150591303009 -21.396258909662876 58.115635593438256 0 0.75470957328743171 -0.6560590369687036 I I #
edge $-1 $377 27.910924817647128 $207 44.922150591303009 $299 $384 forward 7 unknown #
point $-1 -44.922150591303009 42.001285294286689 12.814064419383074 #
point $-1 -44.922150591303009 30.717236253810299 12.814064419383072 #
edge $-1 $385 1 $385 0 $210 $-1 forward 7 unknown #
vertex $-1 $211 $386 #
ellipse-curve $-1 -40.061800370258474 31.924800630982961 2.8082644820428317 0 0.6560590369687036 0.75470957328743171 2 0 0 1 I I #
point $-1 -38.061800370258474 36.359260774048501 7.9095272247931714 #
edge $-1 $387 1 $387 0 $214 $-1 forward 7 unknown #
vertex $-1 $215 $388 #
ellipse-curve $-1 -32.77127503869167 31.924800630982961 2.8082644820428317 0 0.6560590369687036 0.75470957328743171 2 0 0 1 I I #
point $-1 -30.77127503869167 36.359260774048501 7.9095272247931714 #
loop $-1 $-1 $226 $218 #
plane-surface $-1 0 42.001285294286689 0 0 -1 0 0 0 -1 forward_v I I I I #
coedge $-1 $318 $221 $223 $322 reversed $139 $-1 #
coedge $-1 $221 $317 $389 $390 reversed $139 $-1 #
coedge $-1 $229 $224 $221 $320 forward $219 $-1 #
edge $-1 $323 -0.46413398454647847 $391 10.819915055929911 $319 $392 forward 7 unknown #
coedge $-1 $223 $222 $326 $393 reversed $87 $-1 #
edge $-1 $394 -84.002570588573377 $323 -69.051058854961298 $317 $395 forward 7 unknown #
vertex $-1 $225 $396 #
straight-curve $-1 18.208268852237538 30.717236253810306 12.814064419383076 1 0 0 I I #
coedge $-1 $389 $226 $229 $330 reversed $315 $-1 #
coedge $-1 $226 $389 $321 $393 forward $315 $-1 #
vertex $-1 $227 $397 #
straight-curve $-1 27.910924817647135 42.001285294286689 77.234670125399063 0 0 1 I I #
straight-curve $-1 27.910924817647135 -21.396258909662876 58.115635593438256 0 0.75470957328743171 -0.6560590369687036 I I #
edge $-1 $391 -44.922150591303016 $230 -27.910924817647135 $325 $398 forward 7 unknown #
point $-1 27.910924817647135 42.001285294286689 12.814064419383074 #
point $-1 27.910924817647135 30.717236253810299 12.814064419383072 #
edge $-1 $399 1 $399 0 $233 $-1 forward 7 unknown #
vertex $-1 $234 $400 #
ellipse-curve $-1 32.77127503869167 31.924800630982961 2.8082644820428317 0 0.6560590369687036 0.75470957328743171 2 0 0 1 I I #
point $-1 34.77127503869167 36.359260774048501 7.9095272247931714 #
edge $-1 $401 1 $401 0 $237 $-1 forward 7 unknown #
vertex $-1 $238 $402 #
ellipse-curve $-1 40.061800370258482 31.924800630982961 2.8082644820428317 0 0.6560590369687036 0.75470957328743171 2 0 0 1 I I #
point $-1 42.061800370258482 36.359260774048501 7.9095272247931714 #
plane-surface $-1 63.834955900753812 0 0 -1 0 0 0 0 1 forward_v I I I I #
coedge $-1 $246 $244 $248 $346 reversed $161 $-1 #
edge $-1 $259 -12.814064419383074 $348 12.814064419383074 $258 $403 forward 7 unknown #
vertex $-1 $346 $404 #
straight-curve $-1 -63.834955900753812 -42.001285294286689 0 0 0 -1 I I #
edge $-1 $344 -42.001285294286689 $348 42.001285294286689 $342 $405 forward 7 unknown #
straight-curve $-1 0 -42.001285294286689 -12.814064419383074 -1 0 0 I I #
vertex $-1 $251 $406 #
straight-curve $-1 0 42.001285294286689 -12.814064419383074 1 0 0 I I #
point $-1 63.834955900753812 42.001285294286689 -12.814064419383074 #
point $-1 63.834955900753812 -42.001285294286689 -12.814064419383074 #
straight-curve $-1 -63.834955900753812 0 12.814064419383074 0 -1 0 I I #
point $-1 -63.834955900753812 42.001285294286689 12.814064419383074 #
point $-1 -63.834955900753812 -42.001285294286689 12.814064419383074 #
straight-curve $-1 63.834955900753812 -42.001285294286689 0 0 0 -1 I I #
straight-curve $-1 63.834955900753812 42.001285294286689 0 0 0 -1 I I #
plane-surface $-1 -63.834955900753812 0 0 1 0 0 0 0 -1 forward_v I I I I #
coedge $-1 $360 $369 $364 $407 forward $269 $-1 #
coedge $-1 $272 $271 $408 $409 forward $109 $-1 #
coedge $-1 $408 $358 $273 $361 reversed $269 $-1 #
edge $-1 $362 -63.834955900753812 $365 63.834955900753812 $360 $410 forward 7 unknown #
vertex $-1 $409 $411 #
straight-curve $-1 63.834955900753812 0 -12.814064419383074 0 -1 0 I I #
coedge $-1 $281 $275 $358 $407 reversed $282 $-1 #
vertex $-1 $276 $412 #
straight-curve $-1 -63.834955900753812 0 -12.814064419383074 0 1 0 I I #
point $-1 -63.834955900753812 -42.001285294286689 -12.814064419383074 #
point $-1 63.834955900753812 -42.001285294286689 -12.814064419383074 #
coedge $-1 $358 $408 $284 $370 reversed $269 $-1 #
edge $-1 $371 -63.834955900753812 $373 63.834955900753812 $369 $413 forward 7 unknown #
vertex $-1 $285 $414 #
straight-curve $-1 -63.834955900753812 -46.648312580080216 -9.3549279279370747 0 -1 0 I I #
vertex $-1 $286 $415 #
straight-curve $-1 63.834955900753812 -46.648312580080216 -9.3549279279370747 0 1 0 I I #
coedge $-1 $300 $299 $292 $376 forward $289 $-1 #
edge $-1 $377 64.420605706015991 $380 74.229680095195789 $375 $416 forward 7 unknown #
vertex $-1 $304 $417 #
straight-curve $-1 -27.910924817647128 31.181370238356777 12.814064419383072 0 1 0 I I #
edge $-1 $380 9.7026559654095941 $301 26.713881739065474 $300 $418 forward 7 unknown #
vertex $-1 $379 $419 #
straight-curve $-1 -27.910924817647128 -21.396258909662876 58.115635593438256 0 -0.75470957328743171 0.6560590369687036 I I #
point $-1 -27.910924817647128 30.717236253810299 12.814064419383072 #
point $-1 -44.922150591303009 42.001285294286689 3.0049900302032668 #
straight-curve $-1 0 42.001285294286689 12.814064419383074 -1 0 0 I I #
vertex $-1 $307 $420 #
point $-1 -38.061800370258474 31.924800630982961 2.8082644820428317 #
vertex $-1 $311 $421 #
point $-1 -30.77127503869167 31.924800630982961 2.8082644820428317 #
coedge $-1 $326 $325 $318 $390 forward $315 $-1 #
edge $-1 $391 64.420605706015991 $394 74.229680095195789 $389 $422 forward 7 unknown #
vertex $-1 $330 $423 #
straight-curve $-1 44.922150591303016 31.181370238356777 12.814064419383072 0 1 0 I I #
edge $-1 $394 -26.713881739065478 $327 -9.7026559654095976 $326 $424 forward 7 unknown #
vertex $-1 $393 $425 #
straight-curve $-1 44.922150591303016 -21.396258909662876 58.115635593438256 0 -0.75470957328743171 0.6560590369687036 I I #
point $-1 44.922150591303016 30.717236253810299 12.814064419383072 #
point $-1 27.910924817647135 42.001285294286689 3.0049900302032668 #
straight-curve $-1 0 42.001285294286689 12.814064419383074 -1 0 0 I I #
vertex $-1 $333 $426 #
point $-1 34.77127503869167 31.924800630982961 2.8082644820428317 #
vertex $-1 $337 $427 #
point $-1 42.061800370258482 31.924800630982961 2.8082644820428317 #
straight-curve $-1 -63.834955900753812 42.001285294286689 0 0 0 -1 I I #
point $-1 -63.834955900753812 -42.001285294286689 -12.814064419383074 #
straight-curve $-1 -63.834955900753812 0 -12.814064419383074 0 1 0 I I #
point $-1 -63.834955900753812 42.001285294286689 -12.814064419383074 #
edge $-1 $371 -1.7295682457229997 $365 1.7295682457229997 $364 $428 forward 7 unknown #
coedge $-1 $369 $360 $359 $409 reversed $269 $-1 #
edge $-1 $373 -1.7295682457229997 $362 1.7295682457229997 $359 $429 forward 7 unknown #
straight-curve $-1 0 -51.295339865873743 -12.814064419383074 -1 0 0 I I #
point $-1 63.834955900753812 -51.295339865873743 -12.814064419383074 #
point $-1 -63.834955900753812 -51.295339865873743 -12.814064419383074 #
straight-curve $-1 0 -51.295339865873743 -9.3549279279370747 1 0 0 I I #
point $-1 -63.834955900753812 -51.295339865873743 -9.3549279279370747 #
point $-1 63.834955900753812 -51.295339865873743 -9.3549279279370747 #
straight-curve $-1 -27.910924817647128 42.001285294286689 77.234670125399063 0 0 -1 I I #
point $-1 -27.910924817647128 42.001285294286689 12.814064419383074 #
straight-curve $-1 -18.208268852237534 42.001285294286696 3.0049900302032668 -1 0 0 I I #
point $-1 -27.910924817647128 42.001285294286689 3.0049900302032668 #
point $-1 -40.061800370258474 30.612682557045556 1.2988453354679681 #
point $-1 -32.77127503869167 30.612682557045556 1.2988453354679681 #
straight-curve $-1 44.922150591303016 42.001285294286689 77.234670125399063 0 0 -1 I I #
point $-1 44.922150591303016 42.001285294286689 12.814064419383074 #
straight-curve $-1 18.208268852237538 42.001285294286696 3.0049900302032668 -1 0 0 I I #
point $-1 44.922150591303016 42.001285294286689 3.0049900302032668 #
point $-1 32.77127503869167 30.612682557045556 1.2988453354679681 #
point $-1 40.061800370258482 30.612682557045556 1.2988453354679681 #
straight-curve $-1 -63.834955900753812 -51.295339865873743 -11.084496173660074 0 0 -1 I I #
straight-curve $-1 63.834955900753812 -51.295339865873743 -11.084496173660074 0 0 -1 I I #
End-of-ACIS-data 