500 0 5 0           
7 Unknown 11 ACIS 5.0 NT 24 Thu Mar 25 16:27:00 1999 
-1 9.9999999999999995e-007 1e-010 
body $-1 $5 $-1 $6 #
body $-1 $7 $-1 $8 #
body $-1 $9 $-1 $10 #
body $-1 $11 $-1 $12 #
body $-1 $13 $-1 $14 #
lump $-1 $-1 $15 $0 #
transform $-1 1 0 0 0 1 0 0 0 1 42.851649525437175 22.601508619140233 7.8907662679293331 1 rotate no_reflect no_shear #
lump $-1 $-1 $16 $1 #
transform $-1 1 0 0 0 1 0 0 0 1 42.851649525437175 22.601508619140233 7.8907662679293331 1 rotate no_reflect no_shear #
lump $-1 $-1 $17 $2 #
transform $-1 1 0 0 0 1 0 0 0 1 42.851649525437175 22.601508619140233 7.8907662679293331 1 rotate no_reflect no_shear #
lump $-1 $-1 $18 $3 #
transform $-1 1 0 0 0 1 0 0 0 1 42.851649525437175 22.601508619140233 7.8907662679293331 1 rotate no_reflect no_shear #
lump $-1 $-1 $19 $4 #
transform $-1 1 0 0 0 1 0 0 0 1 42.851649525437175 22.601508619140233 7.8907662679293331 1 rotate no_reflect no_shear #
shell $-1 $-1 $-1 $20 $-1 $5 #
shell $-1 $-1 $-1 $21 $-1 $7 #
shell $-1 $-1 $-1 $22 $-1 $9 #
shell $-1 $-1 $-1 $23 $-1 $11 #
shell $-1 $-1 $-1 $24 $-1 $13 #
face $-1 $25 $26 $15 $-1 $27 forward single #
face $-1 $28 $29 $16 $-1 $30 forward single #
face $-1 $31 $32 $17 $-1 $33 reversed single #
face $-1 $34 $35 $18 $-1 $36 forward single #
face $-1 $37 $38 $19 $-1 $39 forward single #
face $-1 $40 $41 $15 $-1 $42 reversed single #
loop $-1 $-1 $43 $20 #
plane-surface $-1 0 0 7.8907662679293331 0 0 1 1 0 0 forward_v I I I I #
face $-1 $44 $45 $16 $-1 $46 reversed single #
loop $-1 $-1 $47 $21 #
plane-surface $-1 0 -22.601508619140233 0 0 1 0 0 0 1 forward_v I I I I #
face $-1 $48 $49 $17 $-1 $50 reversed single #
loop $-1 $-1 $51 $22 #
plane-surface $-1 7.7899219389373719 47.991625078920933 94.566352442063135 1 0 0 0 -0.68199836817093118 -0.7313536940579346 forward_v I I I I #
face $-1 $52 $53 $18 $-1 $54 forward single #
loop $-1 $55 $56 $23 #
cone-surface $-1 11.687894011704529 18.158189388690101 3.6382197531625335 0 -0.68199836817093118 -0.7313536940579346 1 0 0 1 I I 0 1 1 forward I I I I #
face $-1 $57 $58 $19 $-1 $59 forward single #
loop $-1 $60 $61 $24 #
cone-surface $-1 17.53485212085527 18.158189388690101 3.6382197531625335 0 -0.68199836817093118 -0.7313536940579346 1 0 0 1 I I 0 1 1 forward I I I I #
face $-1 $62 $63 $15 $-1 $64 reversed single #
loop $-1 $-1 $65 $25 #
plane-surface $-1 0 0 -7.8907662679293331 0 0 1 1 0 0 forward_v I I I I #
coedge $-1 $66 $67 $68 $69 forward $26 $-1 #
face $-1 $70 $71 $16 $-1 $72 forward single #
loop $-1 $-1 $73 $28 #
plane-surface $-1 -42.851649525437175 0 0 1 0 0 0 0 -1 forward_v I I I I #
coedge $-1 $74 $75 $76 $77 forward $29 $-1 #
face $-1 $78 $79 $17 $-1 $80 reversed single #
loop $-1 $-1 $81 $31 #
plane-surface $-1 14.611373066279903 -10.457885020640695 31.886928088254287 0 0.68199836817093118 0.7313536940579346 1 0 0 forward_v I I I I #
coedge $-1 $82 $83 $84 $85 reversed $32 $-1 #
face $-1 $-1 $86 $18 $-1 $87 forward single #
loop $-1 $88 $89 $34 #
cone-surface $-1 11.687894011704529 17.037201531634707 2.4361074776591529 0 -0.68199836817093118 -0.7313536940579346 0.5 0 0 1 I I -0.70710678118654746 0.70710678118654746 0.5 forward I I I I #
loop $-1 $-1 $90 $23 #
coedge $-1 $56 $56 $91 $92 reversed $35 $-1 #
face $-1 $-1 $93 $19 $-1 $94 forward single #
loop $-1 $95 $96 $37 #
cone-surface $-1 17.53485212085527 17.037201531634707 2.4361074776591529 0 -0.68199836817093118 -0.7313536940579346 0.5 0 0 1 I I -0.70710678118654746 0.70710678118654746 0.5 forward I I I I #
loop $-1 $-1 $97 $24 #
coedge $-1 $61 $61 $98 $99 reversed $38 $-1 #
face $-1 $100 $101 $15 $-1 $102 reversed single #
loop $-1 $-1 $103 $40 #
plane-surface $-1 0 -22.601508619140233 0 0 1 0 0 0 1 forward_v I I I I #
coedge $-1 $104 $105 $106 $107 forward $41 $-1 #
coedge $-1 $108 $43 $109 $110 forward $26 $-1 #
coedge $-1 $43 $108 $111 $112 forward $26 $-1 #
coedge $-1 $113 $114 $43 $69 reversed $115 $-1 #
edge $-1 $116 -22.601508619140233 $117 22.601508619140233 $68 $118 forward 7 unknown #
face $-1 $119 $120 $16 $-1 $121 reversed single #
loop $-1 $-1 $122 $44 #
plane-surface $-1 0 -25.298916749657746 3.6579278728478726 0 0 1 1 0 0 forward_v I I I I #
coedge $-1 $123 $124 $75 $125 forward $45 $-1 #
coedge $-1 $126 $47 $127 $128 reversed $29 $-1 #
coedge $-1 $47 $126 $73 $125 reversed $29 $-1 #
coedge $-1 $129 $122 $47 $77 reversed $71 $-1 #
edge $-1 $130 -42.851649525437175 $131 42.851649525437175 $76 $132 forward 7 unknown #
face $-1 $133 $134 $17 $-1 $135 forward single #
loop $-1 $-1 $136 $48 #
plane-surface $-1 21.432824193622434 47.991625078920933 94.566352442063135 -1 0 0 0 0.68199836817093118 0.7313536940579346 forward_v I I I I #
coedge $-1 $137 $138 $139 $140 reversed $49 $-1 #
coedge $-1 $83 $51 $141 $142 reversed $32 $-1 #
coedge $-1 $51 $82 $137 $143 reversed $32 $-1 #
coedge $-1 $139 $144 $51 $85 forward $134 $-1 #
edge $-1 $145 1.3943039203202332 $146 8.7209650352806598 $84 $147 forward 7 unknown #
loop $-1 $-1 $91 $52 #
plane-surface $-1 14.611373066279903 -10.457885020640695 31.886928088254287 0 0.68199836817093118 0.7313536940579346 1 0 0 forward_v I I I I #
loop $-1 $-1 $148 $34 #
coedge $-1 $89 $89 $90 $149 reversed $53 $-1 #
coedge $-1 $90 $90 $89 $149 forward $55 $-1 #
coedge $-1 $91 $91 $56 $92 forward $86 $-1 #
edge $-1 $150 -1.896908907319246e-015 $150 6.2831853071795987 $91 $151 forward 7 unknown #
loop $-1 $-1 $98 $57 #
plane-surface $-1 14.611373066279903 -10.457885020640695 31.886928088254287 0 0.68199836817093118 0.7313536940579346 1 0 0 forward_v I I I I #
loop $-1 $-1 $152 $37 #
coedge $-1 $96 $96 $97 $153 reversed $58 $-1 #
coedge $-1 $97 $97 $96 $153 forward $60 $-1 #
coedge $-1 $98 $98 $61 $99 forward $93 $-1 #
edge $-1 $154 -1.896908907319246e-015 $154 6.2831853071795987 $98 $155 forward 7 unknown #
face $-1 $156 $157 $15 $-1 $158 reversed single #
loop $-1 $-1 $159 $62 #
plane-surface $-1 -42.851649525437175 0 0 1 0 0 0 0 -1 forward_v I I I I #
coedge $-1 $160 $111 $161 $162 forward $63 $-1 #
coedge $-1 $163 $65 $160 $164 forward $41 $-1 #
coedge $-1 $65 $163 $165 $166 forward $41 $-1 #
coedge $-1 $114 $113 $65 $107 reversed $115 $-1 #
edge $-1 $167 -22.601508619140233 $168 22.601508619140233 $106 $169 forward 7 unknown #
coedge $-1 $67 $66 $170 $171 forward $26 $-1 #
coedge $-1 $172 $173 $66 $110 reversed $157 $-1 #
edge $-1 $117 -42.851649525437175 $174 42.851649525437175 $109 $175 forward 7 unknown #
coedge $-1 $103 $176 $67 $112 reversed $63 $-1 #
edge $-1 $177 -42.851649525437175 $116 42.851649525437175 $111 $178 forward 7 unknown #
coedge $-1 $106 $68 $176 $179 forward $115 $-1 #
coedge $-1 $68 $106 $172 $180 reversed $115 $-1 #
loop $-1 $-1 $113 $156 #
vertex $-1 $69 $181 #
vertex $-1 $69 $182 #
straight-curve $-1 42.851649525437175 0 7.8907662679293331 0 1 0 I I #
face $-1 $183 $184 $16 $-1 $185 reversed single #
loop $-1 $-1 $186 $70 #
plane-surface $-1 0 -25.298916749657746 -0.68747210268475589 0 0 1 1 0 0 forward_v I I I I #
coedge $-1 $76 $187 $188 $189 forward $71 $-1 #
coedge $-1 $190 $73 $191 $192 reversed $45 $-1 #
coedge $-1 $73 $190 $129 $193 reversed $45 $-1 #
edge $-1 $130 -3.6579278728478726 $194 0.68747210268475589 $73 $195 forward 7 unknown #
coedge $-1 $75 $74 $196 $197 forward $29 $-1 #
coedge $-1 $188 $198 $74 $128 forward $199 $-1 #
edge $-1 $200 -0.68747210268475589 $131 3.6579278728478726 $127 $201 forward 7 unknown #
coedge $-1 $187 $76 $124 $193 forward $71 $-1 #
vertex $-1 $125 $202 #
vertex $-1 $189 $203 #
straight-curve $-1 0 -22.601508619140233 3.6579278728478726 1 0 0 I I #
face $-1 $-1 $204 $17 $-1 $205 reversed single #
loop $-1 $-1 $84 $78 #
plane-surface $-1 0 0 7.8907662679293331 0 0 1 1 0 0 forward_v I I I I #
coedge $-1 $206 $207 $208 $209 reversed $79 $-1 #
coedge $-1 $210 $81 $83 $143 forward $49 $-1 #
coedge $-1 $81 $210 $206 $211 forward $49 $-1 #
coedge $-1 $208 $84 $81 $140 forward $134 $-1 #
edge $-1 $146 0.48423540579742053 $212 14.127137660482482 $139 $213 forward 7 unknown #
coedge $-1 $214 $215 $82 $142 forward $204 $-1 #
edge $-1 $216 -46.224632125687037 $145 -39.392409953102231 $141 $217 forward 7 unknown #
edge $-1 $146 35.185072194059458 $216 45.203017238280481 $83 $218 forward 7 unknown #
coedge $-1 $84 $208 $214 $219 forward $134 $-1 #
vertex $-1 $142 $220 #
vertex $-1 $85 $221 #
straight-curve $-1 7.7899219389373719 23.995812539460466 7.8907662679293367 0 -1 0 I I #
coedge $-1 $148 $148 $-1 $222 reversed $88 $-1 #
edge $-1 $223 0 $223 6.2831853071796004 $89 $224 forward 7 unknown #
vertex $-1 $92 $225 #
ellipse-curve $-1 11.687894011704529 18.938178061660018 4.4746551816369333 0 0.68199836817093118 0.7313536940579346 1 0 0 1 I I #
coedge $-1 $152 $152 $-1 $226 reversed $95 $-1 #
edge $-1 $227 0 $227 6.2831853071796004 $96 $228 forward 7 unknown #
vertex $-1 $99 $229 #
ellipse-curve $-1 17.53485212085527 18.938178061660018 4.4746551816369333 0 0.68199836817093118 0.7313536940579346 1 0 0 1 I I #
face $-1 $-1 $115 $15 $-1 $230 reversed single #
loop $-1 $-1 $172 $100 #
plane-surface $-1 0 22.601508619140233 0 0 -1 0 0 0 -1 forward_v I I I I #
coedge $-1 $231 $170 $173 $232 forward $101 $-1 #
coedge $-1 $176 $103 $104 $164 reversed $63 $-1 #
coedge $-1 $170 $231 $103 $162 reversed $101 $-1 #
edge $-1 $177 -7.8907662679293331 $233 7.8907662679293331 $161 $234 forward 7 unknown #
coedge $-1 $105 $104 $231 $235 forward $41 $-1 #
edge $-1 $168 -42.851649525437175 $233 42.851649525437175 $160 $236 forward 7 unknown #
coedge $-1 $173 $172 $105 $166 reversed $157 $-1 #
edge $-1 $237 -42.851649525437175 $167 42.851649525437175 $165 $238 forward 7 unknown #
vertex $-1 $107 $239 #
vertex $-1 $179 $240 #
straight-curve $-1 42.851649525437175 0 -7.8907662679293331 0 -1 0 I I #
coedge $-1 $159 $161 $108 $171 reversed $101 $-1 #
edge $-1 $174 -22.601508619140233 $177 22.601508619140233 $170 $241 forward 7 unknown #
coedge $-1 $165 $109 $114 $180 forward $157 $-1 #
coedge $-1 $109 $165 $159 $232 reversed $157 $-1 #
vertex $-1 $110 $242 #
straight-curve $-1 0 22.601508619140233 7.8907662679293331 -1 0 0 I I #
coedge $-1 $111 $160 $113 $179 reversed $63 $-1 #
vertex $-1 $171 $243 #
straight-curve $-1 0 -22.601508619140233 7.8907662679293331 1 0 0 I I #
edge $-1 $116 -7.8907662679293331 $168 7.8907662679293331 $113 $244 forward 7 unknown #
edge $-1 $117 -7.8907662679293331 $167 7.8907662679293331 $114 $245 forward 7 unknown #
point $-1 42.851649525437175 -22.601508619140233 7.8907662679293331 #
point $-1 42.851649525437175 22.601508619140233 7.8907662679293331 #
face $-1 $-1 $199 $16 $-1 $246 reversed single #
loop $-1 $-1 $247 $119 #
plane-surface $-1 0 -27.996324880175258 1.4852278850815583 0 1 0 0 0 1 forward_v I I I I #
coedge $-1 $248 $196 $198 $249 forward $120 $-1 #
coedge $-1 $122 $129 $250 $251 forward $71 $-1 #
coedge $-1 $252 $127 $122 $189 reversed $199 $-1 #
edge $-1 $253 -2.6974081305175126 $131 2.6974081305175126 $188 $254 forward 7 unknown #
coedge $-1 $124 $123 $247 $255 reversed $45 $-1 #
coedge $-1 $196 $248 $123 $192 forward $120 $-1 #
edge $-1 $256 -2.6974081305175126 $194 2.6974081305175126 $123 $257 forward 7 unknown #
edge $-1 $130 -2.6974081305175126 $258 2.6974081305175126 $124 $259 forward 7 unknown #
vertex $-1 $125 $260 #
straight-curve $-1 -42.851649525437175 -22.601508619140233 0 0 0 -1 I I #
coedge $-1 $186 $191 $126 $197 reversed $120 $-1 #
edge $-1 $200 -42.851649525437175 $194 42.851649525437175 $196 $261 forward 7 unknown #
coedge $-1 $127 $252 $186 $249 reversed $199 $-1 #
loop $-1 $-1 $127 $183 #
vertex $-1 $128 $262 #
straight-curve $-1 42.851649525437175 -22.601508619140233 0 0 0 1 I I #
point $-1 -42.851649525437175 -22.601508619140233 3.6579278728478726 #
point $-1 42.851649525437175 -22.601508619140233 3.6579278728478726 #
loop $-1 $-1 $141 $133 #
plane-surface $-1 0 22.601508619140233 0 0 -1 0 0 0 -1 forward_v I I I I #
coedge $-1 $207 $136 $138 $211 reversed $79 $-1 #
coedge $-1 $136 $206 $263 $264 reversed $79 $-1 #
coedge $-1 $144 $139 $136 $209 forward $134 $-1 #
edge $-1 $212 -8.7209650352806598 $265 -1.3943039203202332 $208 $266 forward 7 unknown #
coedge $-1 $138 $137 $215 $267 reversed $49 $-1 #
edge $-1 $268 -45.203017238280481 $212 -35.185072194059458 $206 $269 forward 7 unknown #
vertex $-1 $140 $270 #
straight-curve $-1 7.3056865331399514 15.274847504179803 7.8907662679293331 1 0 0 I I #
coedge $-1 $263 $141 $144 $219 reversed $204 $-1 #
coedge $-1 $141 $263 $210 $267 forward $204 $-1 #
vertex $-1 $142 $271 #
straight-curve $-1 7.7899219389373719 22.601508619140233 47.283176221031567 0 0 1 I I #
straight-curve $-1 7.7899219389373719 -10.457885020640695 31.886928088254287 0 0.7313536940579346 -0.68199836817093118 I I #
edge $-1 $265 -21.432824193622434 $145 -7.7899219389373719 $214 $272 forward 7 unknown #
point $-1 7.7899219389373719 22.601508619140233 7.8907662679293331 #
point $-1 7.7899219389373719 15.274847504179807 7.8907662679293296 #
edge $-1 $273 1 $273 0 $148 $-1 forward 7 unknown #
vertex $-1 $149 $274 #
ellipse-curve $-1 11.687894011704529 17.378200715720173 2.8017843246881204 0 0.68199836817093118 0.7313536940579346 1 0 0 1 I I #
point $-1 12.687894011704529 18.938178061660029 4.4746551816369475 #
edge $-1 $275 1 $275 0 $152 $-1 forward 7 unknown #
vertex $-1 $153 $276 #
ellipse-curve $-1 17.53485212085527 17.378200715720173 2.8017843246881204 0 0.68199836817093118 0.7313536940579346 1 0 0 1 I I #
point $-1 18.53485212085527 18.938178061660029 4.4746551816369475 #
plane-surface $-1 42.851649525437175 0 0 -1 0 0 0 0 1 forward_v I I I I #
coedge $-1 $161 $159 $163 $235 reversed $101 $-1 #
edge $-1 $174 -7.8907662679293331 $237 7.8907662679293331 $173 $277 forward 7 unknown #
vertex $-1 $235 $278 #
straight-curve $-1 -42.851649525437175 -22.601508619140233 0 0 0 -1 I I #
edge $-1 $233 -22.601508619140233 $237 22.601508619140233 $231 $279 forward 7 unknown #
straight-curve $-1 0 -22.601508619140233 -7.8907662679293331 -1 0 0 I I #
vertex $-1 $166 $280 #
straight-curve $-1 0 22.601508619140233 -7.8907662679293331 1 0 0 I I #
point $-1 42.851649525437175 22.601508619140233 -7.8907662679293331 #
point $-1 42.851649525437175 -22.601508619140233 -7.8907662679293331 #
straight-curve $-1 -42.851649525437175 0 7.8907662679293331 0 -1 0 I I #
point $-1 -42.851649525437175 22.601508619140233 7.8907662679293331 #
point $-1 -42.851649525437175 -22.601508619140233 7.8907662679293331 #
straight-curve $-1 42.851649525437175 -22.601508619140233 0 0 0 -1 I I #
straight-curve $-1 42.851649525437175 22.601508619140233 0 0 0 -1 I I #
plane-surface $-1 42.851649525437175 0 0 -1 0 0 0 0 1 forward_v I I I I #
coedge $-1 $281 $250 $190 $255 forward $184 $-1 #
coedge $-1 $191 $186 $281 $282 forward $120 $-1 #
edge $-1 $200 -2.6974081305175126 $283 2.6974081305175126 $198 $284 forward 7 unknown #
coedge $-1 $247 $285 $187 $251 reversed $184 $-1 #
edge $-1 $258 -42.851649525437175 $253 42.851649525437175 $250 $286 forward 7 unknown #
coedge $-1 $198 $188 $285 $287 forward $199 $-1 #
vertex $-1 $189 $288 #
straight-curve $-1 42.851649525437175 -25.298916749657746 3.6579278728478726 0 1 0 I I #
edge $-1 $258 -2.1726999877663142 $256 2.1726999877663142 $190 $289 forward 7 unknown #
vertex $-1 $192 $290 #
straight-curve $-1 -42.851649525437175 -25.298916749657746 -0.68747210268475589 0 1 0 I I #
vertex $-1 $193 $291 #
straight-curve $-1 -42.851649525437175 -25.298916749657746 3.6579278728478726 0 -1 0 I I #
point $-1 -42.851649525437175 -22.601508619140233 -0.68747210268475589 #
straight-curve $-1 0 -22.601508619140233 -0.68747210268475589 -1 0 0 I I #
point $-1 42.851649525437175 -22.601508619140233 -0.68747210268475589 #
coedge $-1 $215 $214 $207 $264 forward $204 $-1 #
edge $-1 $265 39.392409953102231 $268 46.224632125687037 $263 $292 forward 7 unknown #
vertex $-1 $219 $293 #
straight-curve $-1 21.432824193622434 23.995812539460466 7.8907662679293367 0 1 0 I I #
edge $-1 $268 -14.127137660482482 $216 -0.48423540579742053 $215 $294 forward 7 unknown #
vertex $-1 $267 $295 #
straight-curve $-1 21.432824193622434 -10.457885020640695 31.886928088254287 0 -0.7313536940579346 0.68199836817093118 I I #
point $-1 21.432824193622434 15.274847504179807 7.8907662679293296 #
point $-1 7.7899219389373719 22.601508619140233 1.0585440953445264 #
straight-curve $-1 0 22.601508619140233 7.8907662679293331 -1 0 0 I I #
vertex $-1 $222 $296 #
point $-1 12.687894011704529 17.378200715720173 2.8017843246881204 #
vertex $-1 $226 $297 #
point $-1 18.53485212085527 17.378200715720173 2.8017843246881204 #
straight-curve $-1 -42.851649525437175 22.601508619140233 0 0 0 -1 I I #
point $-1 -42.851649525437175 -22.601508619140233 -7.8907662679293331 #
straight-curve $-1 -42.851649525437175 0 -7.8907662679293331 0 1 0 I I #
point $-1 -42.851649525437175 22.601508619140233 -7.8907662679293331 #
coedge $-1 $285 $247 $248 $282 reversed $184 $-1 #
edge $-1 $283 -42.851649525437175 $256 42.851649525437175 $281 $298 forward 7 unknown #
vertex $-1 $287 $299 #
straight-curve $-1 42.851649525437175 -25.298916749657746 -0.68747210268475589 0 -1 0 I I #
coedge $-1 $250 $281 $252 $287 reversed $184 $-1 #
straight-curve $-1 0 -27.996324880175258 3.6579278728478726 1 0 0 I I #
edge $-1 $253 -2.1726999877663142 $283 2.1726999877663142 $252 $300 forward 7 unknown #
point $-1 42.851649525437175 -27.996324880175258 3.6579278728478726 #
straight-curve $-1 -42.851649525437175 -27.996324880175258 1.4852278850815583 0 0 -1 I I #
point $-1 -42.851649525437175 -27.996324880175258 -0.68747210268475589 #
point $-1 -42.851649525437175 -27.996324880175258 3.6579278728478726 #
straight-curve $-1 21.432824193622434 22.601508619140233 47.283176221031567 0 0 -1 I I #
point $-1 21.432824193622434 22.601508619140233 7.8907662679293331 #
straight-curve $-1 7.3056865331399514 22.601508619140233 1.0585440953445264 -1 0 0 I I #
point $-1 21.432824193622434 22.601508619140233 1.0585440953445264 #
point $-1 11.687894011704529 16.696202347549242 2.0704306306301854 #
point $-1 17.53485212085527 16.696202347549242 2.0704306306301854 #
straight-curve $-1 0 -27.996324880175258 -0.68747210268475589 -1 0 0 I I #
point $-1 42.851649525437175 -27.996324880175258 -0.68747210268475589 #
straight-curve $-1 42.851649525437175 -27.996324880175258 1.4852278850815583 0 0 -1 I I #
End-of-ACIS-data 