500 0 13 0           
7 Unknown 11 ACIS 5.0 NT 24 Fri Mar 26 18:32:01 1999 
-1 9.9999999999999995e-007 1e-010 
body $-1 $13 $-1 $14 #
body $-1 $15 $-1 $16 #
body $-1 $17 $-1 $18 #
body $-1 $19 $-1 $20 #
body $-1 $21 $-1 $22 #
body $-1 $23 $-1 $24 #
body $-1 $25 $-1 $26 #
body $-1 $27 $-1 $28 #
body $-1 $29 $-1 $30 #
body $-1 $31 $-1 $32 #
body $-1 $33 $-1 $34 #
body $-1 $35 $-1 $36 #
body $-1 $37 $-1 $38 #
lump $-1 $-1 $39 $0 #
transform $-1 1 0 0 0 1 0 0 0 1 75.826288644062629 46.48875577432073 13.472332745805071 1 rotate no_reflect no_shear #
lump $-1 $-1 $40 $1 #
transform $-1 1 0 0 0 1 0 0 0 1 75.826288644062629 46.48875577432073 13.472332745805071 1 rotate no_reflect no_shear #
lump $-1 $-1 $41 $2 #
transform $-1 1 0 0 0 1 0 0 0 1 75.826288644062629 46.48875577432073 13.472332745805071 1 rotate no_reflect no_shear #
lump $-1 $-1 $42 $3 #
transform $-1 1 0 0 0 1 0 0 0 1 75.826288644062629 46.48875577432073 13.472332745805071 1 rotate no_reflect no_shear #
lump $-1 $-1 $43 $4 #
transform $-1 1 0 0 0 1 0 0 0 1 75.826288644062629 46.48875577432073 13.472332745805071 1 rotate no_reflect no_shear #
lump $-1 $-1 $44 $5 #
transform $-1 1 0 0 0 1 0 0 0 1 75.826288644062629 46.48875577432073 13.472332745805071 1 rotate no_reflect no_shear #
lump $-1 $-1 $45 $6 #
transform $-1 1 0 0 0 1 0 0 0 1 75.826288644062629 46.48875577432073 13.472332745805071 1 rotate no_reflect no_shear #
lump $-1 $-1 $46 $7 #
transform $-1 1 0 0 0 1 0 0 0 1 75.826288644062629 46.48875577432073 13.472332745805071 1 rotate no_reflect no_shear #
lump $-1 $-1 $47 $8 #
transform $-1 1 0 0 0 1 0 0 0 1 75.826288644062629 46.48875577432073 13.472332745805071 1 rotate no_reflect no_shear #
lump $-1 $-1 $48 $9 #
transform $-1 1 0 0 0 1 0 0 0 1 75.826288644062629 46.48875577432073 13.472332745805071 1 rotate no_reflect no_shear #
lump $-1 $-1 $49 $10 #
transform $-1 1 0 0 0 1 0 0 0 1 75.826288644062629 46.48875577432073 13.472332745805071 1 rotate no_reflect no_shear #
lump $-1 $-1 $50 $11 #
transform $-1 1 0 0 0 1 0 0 0 1 75.826288644062629 46.48875577432073 13.472332745805071 1 rotate no_reflect no_shear #
lump $-1 $-1 $51 $12 #
transform $-1 1 0 0 0 1 0 0 0 1 75.826288644062629 46.48875577432073 13.472332745805071 1 rotate no_reflect no_shear #
shell $-1 $-1 $-1 $52 $-1 $13 #
shell $-1 $-1 $-1 $53 $-1 $15 #
shell $-1 $-1 $-1 $54 $-1 $17 #
shell $-1 $-1 $-1 $55 $-1 $19 #
shell $-1 $-1 $-1 $56 $-1 $21 #
shell $-1 $-1 $-1 $57 $-1 $23 #
shell $-1 $-1 $-1 $58 $-1 $25 #
shell $-1 $-1 $-1 $59 $-1 $27 #
shell $-1 $-1 $-1 $60 $-1 $29 #
shell $-1 $-1 $-1 $61 $-1 $31 #
shell $-1 $-1 $-1 $62 $-1 $33 #
shell $-1 $-1 $-1 $63 $-1 $35 #
shell $-1 $-1 $-1 $64 $-1 $37 #
face $-1 $65 $66 $39 $-1 $67 forward single #
face $-1 $68 $69 $40 $-1 $70 reversed single #
face $-1 $71 $72 $41 $-1 $73 reversed single #
face $-1 $74 $75 $42 $-1 $76 reversed single #
face $-1 $77 $78 $43 $-1 $79 forward single #
face $-1 $80 $81 $44 $-1 $82 forward single #
face $-1 $83 $84 $45 $-1 $85 forward single #
face $-1 $86 $87 $46 $-1 $88 reversed single #
face $-1 $89 $90 $47 $-1 $91 forward single #
face $-1 $92 $93 $48 $-1 $94 forward single #
face $-1 $95 $96 $49 $-1 $97 reversed single #
face $-1 $98 $99 $50 $-1 $100 forward single #
face $-1 $101 $102 $51 $-1 $103 forward single #
face $-1 $104 $105 $39 $-1 $106 reversed single #
loop $-1 $-1 $107 $52 #
plane-surface $-1 0 0 13.472332745805071 0 0 1 1 0 0 forward_v I I I I #
face $-1 $108 $109 $40 $-1 $110 reversed single #
loop $-1 $-1 $111 $53 #
plane-surface $-1 -72.716925065152424 -36.378597910222602 0 0 -1 0 0 0 -1 forward_v I I I I #
face $-1 $112 $113 $41 $-1 $114 reversed single #
loop $-1 $-1 $115 $54 #
plane-surface $-1 0 39.693292553107391 7.7862986726571872 0 0 1 1 0 0 forward_v I I I I #
face $-1 $116 $117 $42 $-1 $118 reversed single #
loop $-1 $-1 $119 $55 #
plane-surface $-1 60.865680560471702 22.417462576258927 223.03260370846525 0 1 0 0.6560590369687036 0 0.75470957328743171 forward_v I I I I #
face $-1 $120 $121 $43 $-1 $122 forward single #
loop $-1 $123 $124 $56 #
cone-surface $-1 72.647798065663508 24.513535927385952 10.525067232003924 -0.6560590369687036 0 -0.75470957328743171 0.37735478664371586 0 -0.3280295184843518 1 I I 0 1 0.5 forward I I I I #
face $-1 $125 $126 $44 $-1 $127 forward single #
loop $-1 $128 $129 $57 #
cone-surface $-1 72.647798065663508 27.657645954076493 10.525067232003924 -0.6560590369687036 0 -0.75470957328743171 0.37735478664371586 0 -0.3280295184843518 1 I I 0 1 0.5 forward I I I I #
face $-1 $130 $131 $45 $-1 $132 forward single #
loop $-1 $133 $134 $58 #
cone-surface $-1 72.647798065663508 30.801755980767034 10.525067232003924 -0.6560590369687036 0 -0.75470957328743171 0.37735478664371586 0 -0.3280295184843518 1 I I 0 1 0.5 forward I I I I #
face $-1 $135 $136 $46 $-1 $137 reversed single #
loop $-1 $-1 $138 $59 #
plane-surface $-1 -186.73796365716925 -22.048951926061456 107.9603334690773 0 1 0 -0.73135370988377701 0 0.68199835119979291 forward_v I I I I #
face $-1 $139 $140 $47 $-1 $141 forward single #
loop $-1 $142 $143 $60 #
cone-surface $-1 -70.733144952504645 -18.920701519435021 8.1400193456260173 0.73135370988377701 0 -0.68199835119979291 0.68199835119979291 0 0.73135370988377701 1 I I 0 1 1 forward I I I I #
face $-1 $144 $145 $48 $-1 $146 forward single #
loop $-1 $147 $148 $61 #
cone-surface $-1 -70.733144952504645 -14.228325909495368 8.1400193456260173 0.73135370988377701 0 -0.68199835119979291 0.68199835119979291 0 0.73135370988377701 1 I I 0 1 1 forward I I I I #
face $-1 $149 $150 $49 $-1 $151 reversed single #
loop $-1 $-1 $152 $62 #
plane-surface $-1 -186.73796365716925 12.589261694996871 107.9603334690773 0 1 0 -0.73135370988377701 0 0.68199835119979291 forward_v I I I I #
face $-1 $153 $154 $50 $-1 $155 forward single #
loop $-1 $156 $157 $63 #
cone-surface $-1 -70.733144952504645 15.717512101623306 8.1400193456260173 0.73135370988377701 0 -0.68199835119979291 0.68199835119979291 0 0.73135370988377701 1 I I 0 1 1 forward I I I I #
face $-1 $158 $159 $51 $-1 $160 forward single #
loop $-1 $161 $162 $64 #
cone-surface $-1 -70.733144952504645 20.409887711562966 8.1400193456260173 0.73135370988377701 0 -0.68199835119979291 0.68199835119979291 0 0.73135370988377701 1 I I 0 1 1 forward I I I I #
face $-1 $163 $164 $39 $-1 $165 reversed single #
loop $-1 $-1 $166 $65 #
plane-surface $-1 0 0 -13.472332745805071 0 0 1 1 0 0 forward_v I I I I #
coedge $-1 $167 $168 $169 $170 forward $66 $-1 #
face $-1 $171 $172 $40 $-1 $173 forward single #
loop $-1 $-1 $174 $68 #
plane-surface $-1 -69.607561486242219 -41.433676842271666 0 -1 0 0 0 0 1 forward_v I I I I #
coedge $-1 $175 $176 $177 $178 forward $69 $-1 #
face $-1 $179 $180 $41 $-1 $181 reversed single #
loop $-1 $-1 $182 $71 #
plane-surface $-1 0 32.897829331894052 10.629315709231127 0 1 0 0 0 1 forward_v I I I I #
coedge $-1 $183 $184 $185 $186 reversed $72 $-1 #
face $-1 $187 $188 $42 $-1 $189 reversed single #
loop $-1 $-1 $190 $74 #
plane-surface $-1 -38.627363248997653 27.657645954076493 108.57895181540498 0.6560590369687036 0 0.75470957328743171 0.75470957328743171 0 -0.6560590369687036 forward_v I I I I #
coedge $-1 $191 $192 $193 $194 reversed $75 $-1 #
face $-1 $-1 $195 $43 $-1 $196 forward single #
loop $-1 $197 $198 $77 #
cone-surface $-1 71.828294894854821 24.513535927385952 9.5823366948156572 -0.6560590369687036 0 -0.75470957328743171 0.18867739332185793 0 -0.1640147592421759 1 I I -0.70710678118654746 0.70710678118654746 0.25 forward I I I I #
loop $-1 $-1 $199 $56 #
coedge $-1 $124 $124 $200 $201 reversed $78 $-1 #
face $-1 $-1 $202 $44 $-1 $203 forward single #
loop $-1 $204 $205 $80 #
cone-surface $-1 71.828294894854821 27.657645954076493 9.5823366948156572 -0.6560590369687036 0 -0.75470957328743171 0.18867739332185793 0 -0.1640147592421759 1 I I -0.70710678118654746 0.70710678118654746 0.25 forward I I I I #
loop $-1 $-1 $206 $57 #
coedge $-1 $129 $129 $207 $208 reversed $81 $-1 #
face $-1 $-1 $209 $45 $-1 $210 forward single #
loop $-1 $211 $212 $83 #
cone-surface $-1 71.828294894854821 30.801755980767034 9.5823366948156572 -0.6560590369687036 0 -0.75470957328743171 0.18867739332185793 0 -0.1640147592421759 1 I I -0.70710678118654746 0.70710678118654746 0.25 forward I I I I #
loop $-1 $-1 $213 $58 #
coedge $-1 $134 $134 $214 $215 reversed $84 $-1 #
face $-1 $216 $217 $46 $-1 $218 reversed single #
loop $-1 $-1 $219 $86 #
plane-surface $-1 -75.826288644062615 -16.574513714465191 4.5335258033767047 -0.73135370988377701 0 0.68199835119979291 0.68199835119979291 0 0.73135370988377701 forward_v I I I I #
coedge $-1 $220 $221 $222 $223 reversed $87 $-1 #
face $-1 $-1 $224 $47 $-1 $225 forward single #
loop $-1 $226 $227 $89 #
cone-surface $-1 -69.442110467689062 -18.920701519435021 6.9361102410612414 0.73135370988377701 0 -0.68199835119979291 0.34099917559989645 0 0.36567685494188851 1 I I -0.70710678118654746 0.70710678118654746 0.5 forward I I I I #
loop $-1 $-1 $228 $60 #
coedge $-1 $143 $143 $229 $230 reversed $90 $-1 #
face $-1 $-1 $231 $48 $-1 $232 forward single #
loop $-1 $233 $234 $92 #
cone-surface $-1 -69.442110467689062 -14.228325909495368 6.9361102410612414 0.73135370988377701 0 -0.68199835119979291 0.34099917559989645 0 0.36567685494188851 1 I I -0.70710678118654746 0.70710678118654746 0.5 forward I I I I #
loop $-1 $-1 $235 $61 #
coedge $-1 $148 $148 $236 $237 reversed $93 $-1 #
face $-1 $238 $239 $49 $-1 $240 reversed single #
loop $-1 $-1 $241 $95 #
plane-surface $-1 -75.826288644062615 18.063699906593136 4.5335258033767047 -0.73135370988377701 0 0.68199835119979291 0.68199835119979291 0 0.73135370988377701 forward_v I I I I #
coedge $-1 $242 $243 $244 $245 reversed $96 $-1 #
face $-1 $-1 $246 $50 $-1 $247 forward single #
loop $-1 $248 $249 $98 #
cone-surface $-1 -69.442110467689062 15.717512101623306 6.9361102410612414 0.73135370988377701 0 -0.68199835119979291 0.34099917559989645 0 0.36567685494188851 1 I I -0.70710678118654746 0.70710678118654746 0.5 forward I I I I #
loop $-1 $-1 $250 $63 #
coedge $-1 $157 $157 $251 $252 reversed $99 $-1 #
face $-1 $-1 $253 $51 $-1 $254 forward single #
loop $-1 $255 $256 $101 #
cone-surface $-1 -69.442110467689062 20.409887711562966 6.9361102410612414 0.73135370988377701 0 -0.68199835119979291 0.34099917559989645 0 0.36567685494188851 1 I I -0.70710678118654746 0.70710678118654746 0.5 forward I I I I #
loop $-1 $-1 $257 $64 #
coedge $-1 $162 $162 $258 $259 reversed $102 $-1 #
face $-1 $260 $261 $39 $-1 $262 reversed single #
loop $-1 $-1 $263 $104 #
plane-surface $-1 0 -46.48875577432073 0 0 1 0 0 0 1 forward_v I I I I #
coedge $-1 $264 $265 $266 $267 forward $105 $-1 #
coedge $-1 $268 $107 $269 $270 forward $66 $-1 #
coedge $-1 $107 $268 $271 $272 forward $66 $-1 #
coedge $-1 $273 $274 $107 $170 reversed $275 $-1 #
edge $-1 $276 -46.48875577432073 $277 46.48875577432073 $169 $278 forward 7 unknown #
face $-1 $279 $280 $40 $-1 $281 reversed single #
loop $-1 $-1 $282 $108 #
plane-surface $-1 0 0 13.472332745805071 0 0 1 1 0 0 forward_v I I I I #
coedge $-1 $283 $284 $285 $286 reversed $109 $-1 #
coedge $-1 $287 $111 $288 $289 reversed $69 $-1 #
coedge $-1 $111 $287 $290 $291 reversed $69 $-1 #
coedge $-1 $284 $283 $111 $178 reversed $109 $-1 #
edge $-1 $292 -13.472332745805071 $293 13.472332745805071 $177 $294 forward 7 unknown #
face $-1 $295 $296 $41 $-1 $297 reversed single #
loop $-1 $-1 $298 $112 #
plane-surface $-1 0 46.48875577432073 0 0 -1 0 0 0 -1 forward_v I I I I #
coedge $-1 $299 $300 $301 $302 reversed $113 $-1 #
coedge $-1 $303 $115 $299 $304 forward $72 $-1 #
coedge $-1 $115 $303 $298 $305 reversed $72 $-1 #
coedge $-1 $306 $307 $115 $186 forward $308 $-1 #
edge $-1 $309 13.051183055340356 $310 26.642109497767034 $185 $311 forward 7 unknown #
face $-1 $312 $313 $42 $-1 $314 forward single #
loop $-1 $-1 $193 $116 #
plane-surface $-1 75.826288644062629 0 0 -1 0 0 0 0 1 forward_v I I I I #
coedge $-1 $315 $316 $317 $318 reversed $117 $-1 #
coedge $-1 $192 $119 $319 $320 reversed $75 $-1 #
coedge $-1 $119 $191 $315 $321 reversed $75 $-1 #
coedge $-1 $317 $322 $119 $194 forward $188 $-1 #
edge $-1 $323 98.043969108427547 $324 102.43039384829702 $193 $325 forward 7 unknown #
loop $-1 $-1 $200 $120 #
plane-surface $-1 -38.627363248997653 27.657645954076493 108.57895181540498 0.6560590369687036 0 0.75470957328743171 0.75470957328743171 0 -0.6560590369687036 forward_v I I I I #
loop $-1 $-1 $326 $77 #
coedge $-1 $198 $198 $199 $327 reversed $121 $-1 #
coedge $-1 $199 $199 $198 $327 forward $123 $-1 #
coedge $-1 $200 $200 $124 $201 forward $195 $-1 #
edge $-1 $328 0 $328 6.2831853071796004 $200 $329 forward 7 unknown #
loop $-1 $-1 $207 $125 #
plane-surface $-1 -38.627363248997653 27.657645954076493 108.57895181540498 0.6560590369687036 0 0.75470957328743171 0.75470957328743171 0 -0.6560590369687036 forward_v I I I I #
loop $-1 $-1 $330 $80 #
coedge $-1 $205 $205 $206 $331 reversed $126 $-1 #
coedge $-1 $206 $206 $205 $331 forward $128 $-1 #
coedge $-1 $207 $207 $129 $208 forward $202 $-1 #
edge $-1 $332 0 $332 6.2831853071796004 $207 $333 forward 7 unknown #
loop $-1 $-1 $214 $130 #
plane-surface $-1 -38.627363248997653 27.657645954076493 108.57895181540498 0.6560590369687036 0 0.75470957328743171 0.75470957328743171 0 -0.6560590369687036 forward_v I I I I #
loop $-1 $-1 $334 $83 #
coedge $-1 $212 $212 $213 $335 reversed $131 $-1 #
coedge $-1 $213 $213 $212 $335 forward $133 $-1 #
coedge $-1 $214 $214 $134 $215 forward $209 $-1 #
edge $-1 $336 0 $336 6.2831853071796004 $214 $337 forward 7 unknown #
face $-1 $338 $339 $46 $-1 $340 forward single #
loop $-1 $-1 $341 $135 #
plane-surface $-1 -186.73796365716925 -11.100075502868926 107.9603334690773 0 -1 0 0.73135370988377701 0 -0.68199835119979291 forward_v I I I I #
coedge $-1 $342 $343 $344 $345 reversed $136 $-1 #
coedge $-1 $221 $138 $346 $347 reversed $87 $-1 #
coedge $-1 $138 $220 $342 $348 reversed $87 $-1 #
coedge $-1 $344 $349 $138 $223 forward $339 $-1 #
edge $-1 $350 17.542693184521994 $351 25.878265307890587 $222 $352 forward 7 unknown #
loop $-1 $-1 $229 $139 #
plane-surface $-1 -75.826288644062615 -16.574513714465191 4.5335258033767047 -0.73135370988377701 0 0.68199835119979291 0.68199835119979291 0 0.73135370988377701 forward_v I I I I #
loop $-1 $-1 $353 $89 #
coedge $-1 $227 $227 $228 $354 reversed $140 $-1 #
coedge $-1 $228 $228 $227 $354 forward $142 $-1 #
coedge $-1 $229 $229 $143 $230 forward $224 $-1 #
edge $-1 $355 0 $355 6.2831853071796004 $229 $356 forward 7 unknown #
loop $-1 $-1 $236 $144 #
plane-surface $-1 -75.826288644062615 -16.574513714465191 4.5335258033767047 -0.73135370988377701 0 0.68199835119979291 0.68199835119979291 0 0.73135370988377701 forward_v I I I I #
loop $-1 $-1 $357 $92 #
coedge $-1 $234 $234 $235 $358 reversed $145 $-1 #
coedge $-1 $235 $235 $234 $358 forward $147 $-1 #
coedge $-1 $236 $236 $148 $237 forward $231 $-1 #
edge $-1 $359 0 $359 6.2831853071796004 $236 $360 forward 7 unknown #
face $-1 $361 $362 $49 $-1 $363 forward single #
loop $-1 $-1 $364 $149 #
plane-surface $-1 -186.73796365716925 23.538138118189401 107.9603334690773 0 -1 0 0.73135370988377701 0 -0.68199835119979291 forward_v I I I I #
coedge $-1 $365 $366 $367 $368 reversed $150 $-1 #
coedge $-1 $243 $152 $369 $370 reversed $96 $-1 #
coedge $-1 $152 $242 $365 $371 reversed $96 $-1 #
coedge $-1 $367 $372 $152 $245 forward $362 $-1 #
edge $-1 $373 17.542693184521994 $374 25.878265307890587 $244 $375 forward 7 unknown #
loop $-1 $-1 $251 $153 #
plane-surface $-1 -75.826288644062615 18.063699906593136 4.5335258033767047 -0.73135370988377701 0 0.68199835119979291 0.68199835119979291 0 0.73135370988377701 forward_v I I I I #
loop $-1 $-1 $376 $98 #
coedge $-1 $249 $249 $250 $377 reversed $154 $-1 #
coedge $-1 $250 $250 $249 $377 forward $156 $-1 #
coedge $-1 $251 $251 $157 $252 forward $246 $-1 #
edge $-1 $378 0 $378 6.2831853071796004 $251 $379 forward 7 unknown #
loop $-1 $-1 $258 $158 #
plane-surface $-1 -75.826288644062615 18.063699906593136 4.5335258033767047 -0.73135370988377701 0 0.68199835119979291 0.68199835119979291 0 0.73135370988377701 forward_v I I I I #
loop $-1 $-1 $380 $101 #
coedge $-1 $256 $256 $257 $381 reversed $159 $-1 #
coedge $-1 $257 $257 $256 $381 forward $161 $-1 #
coedge $-1 $258 $258 $162 $259 forward $253 $-1 #
edge $-1 $382 0 $382 6.2831853071796004 $258 $383 forward 7 unknown #
face $-1 $384 $385 $39 $-1 $386 reversed single #
loop $-1 $-1 $387 $163 #
plane-surface $-1 -75.826288644062629 0 0 1 0 0 0 0 -1 forward_v I I I I #
coedge $-1 $388 $271 $389 $390 forward $164 $-1 #
coedge $-1 $391 $166 $388 $392 forward $105 $-1 #
coedge $-1 $166 $391 $393 $394 forward $105 $-1 #
coedge $-1 $274 $273 $166 $267 reversed $275 $-1 #
edge $-1 $395 -46.48875577432073 $396 46.48875577432073 $266 $397 forward 7 unknown #
coedge $-1 $168 $167 $398 $399 forward $66 $-1 #
coedge $-1 $400 $401 $167 $270 reversed $385 $-1 #
edge $-1 $277 -75.826288644062629 $402 75.826288644062629 $269 $403 forward 7 unknown #
coedge $-1 $263 $404 $168 $272 reversed $164 $-1 #
edge $-1 $405 -75.826288644062629 $276 75.826288644062629 $271 $406 forward 7 unknown #
coedge $-1 $266 $169 $404 $407 forward $275 $-1 #
coedge $-1 $169 $266 $400 $408 reversed $275 $-1 #
loop $-1 $-1 $273 $384 #
vertex $-1 $170 $409 #
vertex $-1 $170 $410 #
straight-curve $-1 75.826288644062629 0 13.472332745805071 0 1 0 I I #
face $-1 $411 $412 $40 $-1 $413 reversed single #
loop $-1 $-1 $414 $171 #
plane-surface $-1 -75.826288644062629 0 0 1 0 0 0 0 -1 forward_v I I I I #
coedge $-1 $290 $415 $284 $416 forward $172 $-1 #
coedge $-1 $177 $174 $417 $418 reversed $109 $-1 #
coedge $-1 $174 $177 $282 $416 reversed $109 $-1 #
coedge $-1 $419 $420 $174 $286 forward $421 $-1 #
edge $-1 $422 -13.472332745805071 $423 13.472332745805071 $285 $424 forward 7 unknown #
coedge $-1 $176 $175 $414 $425 reversed $69 $-1 #
coedge $-1 $417 $426 $175 $289 forward $412 $-1 #
edge $-1 $427 -39.467826111486417 $293 -33.249098953666007 $288 $428 forward 7 unknown #
coedge $-1 $429 $282 $176 $291 forward $172 $-1 #
edge $-1 $292 33.249098953666007 $430 39.467826111486417 $290 $431 forward 7 unknown #
vertex $-1 $291 $432 #
vertex $-1 $289 $433 #
straight-curve $-1 -69.607561486242219 -36.378597910222602 0 0 0 -1 I I #
face $-1 $434 $435 $41 $-1 $436 forward single #
loop $-1 $-1 $437 $179 #
plane-surface $-1 -75.826288644062629 0 0 1 0 0 0 0 -1 forward_v I I I I #
coedge $-1 $438 $439 $184 $305 forward $180 $-1 #
coedge $-1 $440 $182 $183 $304 reversed $113 $-1 #
coedge $-1 $182 $440 $441 $442 reversed $113 $-1 #
coedge $-1 $443 $437 $182 $302 forward $296 $-1 #
edge $-1 $444 2.4716408180416236 $445 8.1576748911895045 $301 $446 forward 7 unknown #
coedge $-1 $184 $183 $437 $447 reversed $72 $-1 #
edge $-1 $309 -75.826288644062629 $444 75.826288644062629 $299 $448 forward 7 unknown #
edge $-1 $310 -75.826288644062629 $449 75.826288644062629 $298 $450 forward 7 unknown #
coedge $-1 $451 $185 $439 $452 reversed $308 $-1 #
coedge $-1 $185 $451 $440 $453 forward $308 $-1 #
loop $-1 $-1 $185 $434 #
vertex $-1 $186 $454 #
vertex $-1 $305 $455 #
straight-curve $-1 75.826288644062629 19.846646276553695 7.7862986726571872 0 1 0 I I #
face $-1 $-1 $456 $42 $-1 $457 forward single #
loop $-1 $-1 $458 $187 #
plane-surface $-1 0 32.897829331894052 10.629315709231127 0 1 0 0 0 1 forward_v I I I I #
coedge $-1 $459 $190 $192 $321 forward $117 $-1 #
coedge $-1 $190 $459 $458 $460 reversed $117 $-1 #
coedge $-1 $461 $193 $190 $318 forward $188 $-1 #
edge $-1 $324 8.5886395992206808 $462 19.069006354855805 $317 $463 forward 7 unknown #
coedge $-1 $464 $465 $191 $320 forward $456 $-1 #
edge $-1 $466 40.347444030161554 $323 45.393448363826778 $319 $467 forward 7 unknown #
edge $-1 $324 -151.65257728812531 $466 -144.96655592008381 $192 $468 forward 7 unknown #
coedge $-1 $193 $461 $464 $469 reversed $188 $-1 #
vertex $-1 $469 $470 #
vertex $-1 $194 $471 #
straight-curve $-1 75.826288644062629 22.417462576258927 111.51630185423262 0 0 -1 I I #
coedge $-1 $326 $326 $-1 $472 reversed $197 $-1 #
edge $-1 $473 0 $473 6.2831853071796004 $198 $474 forward 7 unknown #
vertex $-1 $201 $475 #
ellipse-curve $-1 73.303286477230017 24.513535927385952 11.279120375870331 0.6560590369687036 0 0.75470957328743171 0.37735478664371586 0 -0.3280295184843518 1 I I #
coedge $-1 $330 $330 $-1 $476 reversed $204 $-1 #
edge $-1 $477 0 $477 6.2831853071796004 $205 $478 forward 7 unknown #
vertex $-1 $208 $479 #
ellipse-curve $-1 73.303286477230017 27.657645954076493 11.279120375870331 0.6560590369687036 0 0.75470957328743171 0.37735478664371586 0 -0.3280295184843518 1 I I #
coedge $-1 $334 $334 $-1 $480 reversed $211 $-1 #
edge $-1 $481 0 $481 6.2831853071796004 $212 $482 forward 7 unknown #
vertex $-1 $215 $483 #
ellipse-curve $-1 73.303286477230017 30.801755980767034 11.279120375870331 0.6560590369687036 0 0.75470957328743171 0.37735478664371586 0 -0.3280295184843518 1 I I #
face $-1 $-1 $484 $46 $-1 $485 reversed single #
loop $-1 $-1 $222 $216 #
plane-surface $-1 0 0 13.472332745805071 0 0 1 1 0 0 forward_v I I I I #
coedge $-1 $486 $487 $488 $489 reversed $217 $-1 #
coedge $-1 $490 $219 $221 $348 forward $136 $-1 #
coedge $-1 $219 $490 $486 $491 forward $136 $-1 #
coedge $-1 $488 $222 $219 $345 forward $339 $-1 #
edge $-1 $351 -13.76169506882886 $492 -2.8128186456363302 $344 $493 forward 7 unknown #
coedge $-1 $494 $495 $220 $347 forward $484 $-1 #
edge $-1 $496 -49.446640931161959 $350 -40.50783398873358 $346 $497 forward 7 unknown #
edge $-1 $351 -12.222276063724173 $496 2.0734513383776317e-014 $221 $498 forward 7 unknown #
coedge $-1 $222 $488 $494 $499 forward $339 $-1 #
vertex $-1 $223 $500 #
vertex $-1 $223 $501 #
straight-curve $-1 -93.368981828584623 -22.048951926061456 13.472332745805069 1 0 0 I I #
coedge $-1 $353 $353 $-1 $502 reversed $226 $-1 #
edge $-1 $503 0 $503 6.2831853071796004 $227 $504 forward 7 unknown #
vertex $-1 $230 $505 #
ellipse-curve $-1 -71.658502582378333 -18.920701519435021 9.0029292745908815 -0.73135370988377701 0 0.68199835119979291 0.68199835119979291 0 0.73135370988377701 1 I I #
coedge $-1 $357 $357 $-1 $506 reversed $233 $-1 #
edge $-1 $507 0 $507 6.2831853071796004 $234 $508 forward 7 unknown #
vertex $-1 $237 $509 #
ellipse-curve $-1 -71.658502582378333 -14.228325909495368 9.0029292745908815 -0.73135370988377701 0 0.68199835119979291 0.68199835119979291 0 0.73135370988377701 1 I I #
face $-1 $-1 $510 $49 $-1 $511 reversed single #
loop $-1 $-1 $244 $238 #
plane-surface $-1 0 0 13.472332745805071 0 0 1 1 0 0 forward_v I I I I #
coedge $-1 $512 $513 $514 $515 reversed $239 $-1 #
coedge $-1 $516 $241 $243 $371 forward $150 $-1 #
coedge $-1 $241 $516 $512 $517 forward $150 $-1 #
coedge $-1 $514 $244 $241 $368 forward $362 $-1 #
edge $-1 $374 3.5574117417003031 $518 14.506288164892833 $367 $519 forward 7 unknown #
coedge $-1 $520 $521 $242 $370 forward $510 $-1 #
edge $-1 $522 -49.446640931161959 $373 -40.50783398873358 $369 $523 forward 7 unknown #
edge $-1 $374 -12.222276063724173 $522 2.0734513383776317e-014 $243 $524 forward 7 unknown #
coedge $-1 $244 $514 $520 $525 forward $362 $-1 #
vertex $-1 $245 $526 #
vertex $-1 $245 $527 #
straight-curve $-1 -93.368981828584623 12.589261694996871 13.472332745805069 1 0 0 I I #
coedge $-1 $376 $376 $-1 $528 reversed $248 $-1 #
edge $-1 $529 0 $529 6.2831853071796004 $249 $530 forward 7 unknown #
vertex $-1 $252 $531 #
ellipse-curve $-1 -71.658502582378333 15.717512101623306 9.0029292745908815 -0.73135370988377701 0 0.68199835119979291 0.68199835119979291 0 0.73135370988377701 1 I I #
coedge $-1 $380 $380 $-1 $532 reversed $255 $-1 #
edge $-1 $533 0 $533 6.2831853071796004 $256 $534 forward 7 unknown #
vertex $-1 $259 $535 #
ellipse-curve $-1 -71.658502582378333 20.409887711562966 9.0029292745908815 -0.73135370988377701 0 0.68199835119979291 0.68199835119979291 0 0.73135370988377701 1 I I #
face $-1 $-1 $275 $39 $-1 $536 reversed single #
loop $-1 $-1 $400 $260 #
plane-surface $-1 0 46.48875577432073 0 0 -1 0 0 0 -1 forward_v I I I I #
coedge $-1 $537 $398 $401 $538 forward $261 $-1 #
coedge $-1 $404 $263 $264 $392 reversed $164 $-1 #
coedge $-1 $398 $537 $263 $390 reversed $261 $-1 #
edge $-1 $405 -13.472332745805071 $539 13.472332745805071 $389 $540 forward 7 unknown #
coedge $-1 $265 $264 $537 $541 forward $105 $-1 #
edge $-1 $396 -75.826288644062629 $539 75.826288644062629 $388 $542 forward 7 unknown #
coedge $-1 $401 $400 $265 $394 reversed $385 $-1 #
edge $-1 $543 -75.826288644062629 $395 75.826288644062629 $393 $544 forward 7 unknown #
vertex $-1 $267 $545 #
vertex $-1 $407 $546 #
straight-curve $-1 75.826288644062629 0 -13.472332745805071 0 -1 0 I I #
coedge $-1 $387 $389 $268 $399 reversed $261 $-1 #
edge $-1 $402 -46.48875577432073 $405 46.48875577432073 $398 $547 forward 7 unknown #
coedge $-1 $393 $269 $274 $408 forward $385 $-1 #
coedge $-1 $269 $393 $387 $538 reversed $385 $-1 #
vertex $-1 $270 $548 #
straight-curve $-1 0 46.48875577432073 13.472332745805071 -1 0 0 I I #
coedge $-1 $271 $388 $273 $407 reversed $164 $-1 #
vertex $-1 $399 $549 #
straight-curve $-1 0 -46.48875577432073 13.472332745805071 1 0 0 I I #
edge $-1 $276 -13.472332745805071 $396 13.472332745805071 $273 $550 forward 7 unknown #
edge $-1 $277 -13.472332745805071 $395 13.472332745805071 $274 $551 forward 7 unknown #
point $-1 75.826288644062629 -46.48875577432073 13.472332745805071 #
point $-1 75.826288644062629 46.48875577432073 13.472332745805071 #
face $-1 $-1 $421 $40 $-1 $552 reversed single #
loop $-1 $-1 $417 $279 #
plane-surface $-1 0 0 -13.472332745805071 0 0 1 1 0 0 forward_v I I I I #
coedge $-1 $553 $554 $287 $425 forward $280 $-1 #
coedge $-1 $282 $429 $419 $555 forward $172 $-1 #
edge $-1 $423 -25.771917353184897 $292 -15.661759489086769 $282 $556 forward 7 unknown #
coedge $-1 $557 $288 $283 $418 forward $412 $-1 #
edge $-1 $293 15.661759489086769 $422 25.771917353184897 $417 $558 forward 7 unknown #
coedge $-1 $559 $285 $415 $555 reversed $421 $-1 #
coedge $-1 $285 $559 $557 $560 reversed $421 $-1 #
loop $-1 $-1 $285 $411 #
vertex $-1 $560 $561 #
vertex $-1 $286 $562 #
straight-curve $-1 -69.607561486242219 -46.48875577432073 0 0 0 1 I I #
edge $-1 $430 -13.472332745805071 $427 13.472332745805071 $414 $563 forward 7 unknown #
coedge $-1 $288 $557 $553 $564 forward $412 $-1 #
vertex $-1 $289 $565 #
straight-curve $-1 -36.358462532576212 -36.378597910222602 -13.472332745805071 1 0 0 I I #
coedge $-1 $415 $290 $554 $566 forward $172 $-1 #
vertex $-1 $566 $567 #
straight-curve $-1 -36.358462532576212 -36.378597910222602 13.472332745805071 -1 0 0 I I #
point $-1 -69.607561486242219 -36.378597910222602 13.472332745805071 #
point $-1 -69.607561486242219 -36.378597910222602 -13.472332745805071 #
face $-1 $-1 $308 $41 $-1 $568 reversed single #
loop $-1 $-1 $441 $295 #
plane-surface $-1 0 0 13.472332745805071 0 0 1 1 0 0 forward_v I I I I #
coedge $-1 $301 $569 $303 $447 forward $296 $-1 #
coedge $-1 $570 $298 $569 $571 reversed $180 $-1 #
coedge $-1 $298 $570 $306 $452 forward $180 $-1 #
coedge $-1 $300 $299 $307 $453 reversed $113 $-1 #
coedge $-1 $572 $573 $300 $442 forward $435 $-1 #
edge $-1 $445 -75.826288644062629 $574 75.826288644062629 $441 $575 forward 7 unknown #
coedge $-1 $569 $301 $573 $576 reversed $296 $-1 #
vertex $-1 $447 $577 #
vertex $-1 $302 $578 #
straight-curve $-1 -75.826288644062629 32.897829331894052 5.3146578546155636 0 0 1 I I #
edge $-1 $449 -26.642109497767034 $444 -13.051183055340356 $437 $579 forward 7 unknown #
straight-curve $-1 0 32.897829331894052 7.7862986726571872 -1 0 0 I I #
vertex $-1 $447 $580 #
straight-curve $-1 0 46.48875577432073 7.7862986726571872 -1 0 0 I I #
coedge $-1 $307 $306 $572 $581 reversed $308 $-1 #
edge $-1 $582 -13.472332745805071 $310 -7.7862986726571872 $306 $583 forward 7 unknown #
edge $-1 $574 -8.1576748911895045 $309 -2.4716408180416236 $307 $584 forward 7 unknown #
point $-1 75.826288644062629 32.897829331894052 7.7862986726571872 #
point $-1 75.826288644062629 46.48875577432073 7.7862986726571872 #
loop $-1 $-1 $319 $312 #
plane-surface $-1 0 0 13.472332745805071 0 0 1 1 0 0 forward_v I I I I #
coedge $-1 $585 $586 $316 $460 forward $313 $-1 #
coedge $-1 $316 $315 $465 $587 reversed $117 $-1 #
edge $-1 $462 -104.94598490306478 $588 -98.259963535023303 $458 $589 forward 7 unknown #
coedge $-1 $322 $317 $586 $590 forward $188 $-1 #
vertex $-1 $590 $591 #
straight-curve $-1 75.826288644062629 13.828822977038246 9.0859080059356216 0 1 0 I I #
coedge $-1 $592 $319 $322 $469 forward $456 $-1 #
coedge $-1 $319 $592 $459 $587 forward $456 $-1 #
vertex $-1 $320 $593 #
straight-curve $-1 30.432840280235851 22.417462576258927 13.472332745805076 1 0 0 I I #
straight-curve $-1 -38.627363248997653 22.417462576258927 108.57895181540498 -0.75470957328743171 0 0.6560590369687036 I I #
edge $-1 $323 22.417462576258927 $594 32.897829331894052 $322 $595 forward 7 unknown #
point $-1 75.826288644062629 22.417462576258927 13.472332745805071 #
point $-1 75.826288644062643 22.417462576258927 9.0859080059356074 #
edge $-1 $596 1 $596 0 $326 $-1 forward 7 unknown #
vertex $-1 $327 $597 #
ellipse-curve $-1 71.992309654096999 24.513535927385952 9.7710140881375143 0.6560590369687036 0 0.75470957328743171 0.37735478664371586 0 -0.3280295184843518 1 I I #
point $-1 73.680641263873738 24.513535927385952 10.951090857385978 #
edge $-1 $598 1 $598 0 $330 $-1 forward 7 unknown #
vertex $-1 $331 $599 #
ellipse-curve $-1 71.992309654096999 27.657645954076493 9.7710140881375143 0.6560590369687036 0 0.75470957328743171 0.37735478664371586 0 -0.3280295184843518 1 I I #
point $-1 73.680641263873738 27.657645954076493 10.951090857385978 #
edge $-1 $600 1 $600 0 $334 $-1 forward 7 unknown #
vertex $-1 $335 $601 #
ellipse-curve $-1 71.992309654096999 30.801755980767034 9.7710140881375143 0.6560590369687036 0 0.75470957328743171 0.37735478664371586 0 -0.3280295184843518 1 I I #
point $-1 73.680641263873738 30.801755980767034 10.951090857385978 #
loop $-1 $-1 $346 $338 #
plane-surface $-1 -75.826288644062629 0 0 1 0 0 0 0 -1 forward_v I I I I #
coedge $-1 $487 $341 $343 $491 reversed $217 $-1 #
coedge $-1 $341 $486 $602 $603 reversed $217 $-1 #
coedge $-1 $349 $344 $341 $489 forward $339 $-1 #
edge $-1 $492 -25.878265307890587 $604 -17.542693184521994 $488 $605 forward 7 unknown #
coedge $-1 $343 $342 $495 $606 reversed $136 $-1 #
edge $-1 $607 -2.0734513383776317e-014 $492 12.222276063724173 $486 $608 forward 7 unknown #
vertex $-1 $345 $609 #
straight-curve $-1 -67.490716520694022 -8.2872568572325953 13.472332745805071 0 1 0 I I #
coedge $-1 $602 $346 $349 $499 reversed $484 $-1 #
coedge $-1 $346 $602 $490 $606 forward $484 $-1 #
vertex $-1 $347 $610 #
straight-curve $-1 -75.826288644062629 -22.048951926061456 53.980166734538649 0 0 1 I I #
straight-curve $-1 -75.826288644062615 -22.048951926061456 4.5335258033767047 -0.68199835119979291 0 -0.73135370988377701 I I #
edge $-1 $604 11.100075502868926 $350 22.048951926061456 $494 $611 forward 7 unknown #
point $-1 -75.826288644062629 -22.048951926061456 13.472332745805071 #
point $-1 -67.490716520694036 -22.048951926061456 13.472332745805071 #
edge $-1 $612 1 $612 0 $353 $-1 forward 7 unknown #
vertex $-1 $354 $613 #
ellipse-curve $-1 -69.807787322630958 -18.920701519435021 7.2771094166611379 -0.73135370988377701 0 0.68199835119979291 0.68199835119979291 0 0.73135370988377701 1 I I #
point $-1 -70.976504231178552 -18.920701519435021 9.7342829844746745 #
edge $-1 $614 1 $614 0 $357 $-1 forward 7 unknown #
vertex $-1 $358 $615 #
ellipse-curve $-1 -69.807787322630958 -14.228325909495368 7.2771094166611379 -0.73135370988377701 0 0.68199835119979291 0.68199835119979291 0 0.73135370988377701 1 I I #
point $-1 -70.976504231178552 -14.228325909495368 9.7342829844746745 #
loop $-1 $-1 $369 $361 #
plane-surface $-1 -75.826288644062629 0 0 1 0 0 0 0 -1 forward_v I I I I #
coedge $-1 $513 $364 $366 $517 reversed $239 $-1 #
coedge $-1 $364 $512 $616 $617 reversed $239 $-1 #
coedge $-1 $372 $367 $364 $515 forward $362 $-1 #
edge $-1 $518 -25.878265307890587 $618 -17.542693184521994 $514 $619 forward 7 unknown #
coedge $-1 $366 $365 $521 $620 reversed $150 $-1 #
edge $-1 $621 -2.0734513383776317e-014 $518 12.222276063724173 $512 $622 forward 7 unknown #
vertex $-1 $368 $623 #
straight-curve $-1 -67.490716520694022 9.0318499532965681 13.472332745805071 0 1 0 I I #
coedge $-1 $616 $369 $372 $525 reversed $510 $-1 #
coedge $-1 $369 $616 $516 $620 forward $510 $-1 #
vertex $-1 $370 $624 #
straight-curve $-1 -75.826288644062629 12.589261694996871 53.980166734538649 0 0 1 I I #
straight-curve $-1 -75.826288644062615 12.589261694996871 4.5335258033767047 -0.68199835119979291 0 -0.73135370988377701 I I #
edge $-1 $618 -23.538138118189401 $373 -12.589261694996871 $520 $625 forward 7 unknown #
point $-1 -75.826288644062629 12.589261694996871 13.472332745805071 #
point $-1 -67.490716520694036 12.589261694996871 13.472332745805071 #
edge $-1 $626 1 $626 0 $376 $-1 forward 7 unknown #
vertex $-1 $377 $627 #
ellipse-curve $-1 -69.807787322630958 15.717512101623306 7.2771094166611379 -0.73135370988377701 0 0.68199835119979291 0.68199835119979291 0 0.73135370988377701 1 I I #
point $-1 -70.976504231178552 15.717512101623306 9.7342829844746745 #
edge $-1 $628 1 $628 0 $380 $-1 forward 7 unknown #
vertex $-1 $381 $629 #
ellipse-curve $-1 -69.807787322630958 20.409887711562966 7.2771094166611379 -0.73135370988377701 0 0.68199835119979291 0.68199835119979291 0 0.73135370988377701 1 I I #
point $-1 -70.976504231178552 20.409887711562966 9.7342829844746745 #
plane-surface $-1 75.826288644062629 0 0 -1 0 0 0 0 1 forward_v I I I I #
coedge $-1 $389 $387 $391 $541 reversed $261 $-1 #
edge $-1 $402 -13.472332745805071 $543 13.472332745805071 $401 $630 forward 7 unknown #
vertex $-1 $541 $631 #
straight-curve $-1 -75.826288644062629 -46.48875577432073 0 0 0 -1 I I #
edge $-1 $539 -46.48875577432073 $543 46.48875577432073 $537 $632 forward 7 unknown #
straight-curve $-1 0 -46.48875577432073 -13.472332745805071 -1 0 0 I I #
vertex $-1 $394 $633 #
straight-curve $-1 0 46.48875577432073 -13.472332745805071 1 0 0 I I #
point $-1 75.826288644062629 46.48875577432073 -13.472332745805071 #
point $-1 75.826288644062629 -46.48875577432073 -13.472332745805071 #
straight-curve $-1 -75.826288644062629 0 13.472332745805071 0 -1 0 I I #
point $-1 -75.826288644062629 46.48875577432073 13.472332745805071 #
point $-1 -75.826288644062629 -46.48875577432073 13.472332745805071 #
straight-curve $-1 75.826288644062629 -46.48875577432073 0 0 0 -1 I I #
straight-curve $-1 75.826288644062629 46.48875577432073 0 0 0 -1 I I #
plane-surface $-1 0 -46.48875577432073 0 0 1 0 0 0 1 forward_v I I I I #
coedge $-1 $634 $414 $426 $564 reversed $280 $-1 #
coedge $-1 $414 $634 $429 $566 reversed $280 $-1 #
edge $-1 $635 -75.826288644062629 $423 -69.607561486242219 $419 $636 forward 7 unknown #
straight-curve $-1 -69.607561486242219 -20.716838421135833 13.472332745805071 0 1 0 I I #
coedge $-1 $426 $417 $420 $560 forward $412 $-1 #
straight-curve $-1 -69.607561486242219 -20.716838421135833 -13.472332745805071 0 -1 0 I I #
coedge $-1 $420 $419 $634 $637 forward $421 $-1 #
edge $-1 $422 69.607561486242219 $638 75.826288644062629 $420 $639 forward 7 unknown #
point $-1 -69.607561486242219 -46.48875577432073 -13.472332745805071 #
point $-1 -69.607561486242219 -46.48875577432073 13.472332745805071 #
straight-curve $-1 -75.826288644062629 -36.378597910222602 0 0 0 -1 I I #
edge $-1 $638 -46.48875577432073 $427 -36.378597910222602 $553 $640 forward 7 unknown #
point $-1 -75.826288644062629 -36.378597910222602 -13.472332745805071 #
edge $-1 $430 36.378597910222602 $635 46.48875577432073 $554 $641 forward 7 unknown #
point $-1 -75.826288644062629 -36.378597910222602 13.472332745805071 #
plane-surface $-1 75.826288644062629 0 0 -1 0 0 0 0 1 forward_v I I I I #
coedge $-1 $437 $443 $438 $571 forward $296 $-1 #
coedge $-1 $439 $438 $642 $643 reversed $180 $-1 #
edge $-1 $644 -13.472332745805071 $449 -7.7862986726571872 $438 $645 forward 7 unknown #
coedge $-1 $642 $441 $451 $581 forward $435 $-1 #
coedge $-1 $441 $642 $443 $576 forward $435 $-1 #
vertex $-1 $581 $646 #
straight-curve $-1 0 32.897829331894052 13.472332745805071 1 0 0 I I #
edge $-1 $644 -46.48875577432073 $445 -32.897829331894052 $443 $647 forward 7 unknown #
point $-1 -75.826288644062629 32.897829331894052 7.7862986726571872 #
point $-1 -75.826288644062629 32.897829331894052 13.472332745805067 #
straight-curve $-1 -75.826288644062629 19.846646276553695 7.7862986726571872 0 -1 0 I I #
point $-1 -75.826288644062629 46.48875577432073 7.7862986726571872 #
edge $-1 $574 32.897829331894052 $582 46.48875577432073 $451 $648 forward 7 unknown #
vertex $-1 $581 $649 #
straight-curve $-1 75.826288644062629 46.48875577432073 0 0 0 -1 I I #
straight-curve $-1 75.826288644062629 32.897829331894052 5.3146578546155636 0 0 -1 I I #
coedge $-1 $586 $458 $592 $650 reversed $313 $-1 #
coedge $-1 $458 $585 $461 $590 reversed $313 $-1 #
edge $-1 $588 -19.069006354855805 $466 -8.5886395992206808 $465 $651 forward 7 unknown #
vertex $-1 $460 $652 #
straight-curve $-1 -3.3774508403586303 32.897829331894052 77.936669795172392 -0.75470957328743171 0 0.6560590369687036 I I #
edge $-1 $462 3.7712501513200438 $594 8.1576748911895045 $461 $653 forward 7 unknown #
point $-1 75.826288644062629 32.897829331894052 9.0859080059356074 #
coedge $-1 $465 $464 $585 $650 forward $456 $-1 #
point $-1 70.780284310397406 22.417462576258927 13.472332745805076 #
vertex $-1 $650 $654 #
straight-curve $-1 75.826288644062629 0 13.472332745805071 0 1 0 I I #
vertex $-1 $472 $655 #
point $-1 72.369664440740706 24.513535927385952 9.4429845696531629 #
vertex $-1 $476 $656 #
point $-1 72.369664440740706 27.657645954076493 9.4429845696531629 #
vertex $-1 $480 $657 #
point $-1 72.369664440740706 30.801755980767034 9.4429845696531629 #
coedge $-1 $495 $494 $487 $603 forward $484 $-1 #
edge $-1 $604 40.50783398873358 $607 49.446640931161959 $602 $658 forward 7 unknown #
vertex $-1 $499 $659 #
straight-curve $-1 -93.368981828584623 -11.100075502868926 13.472332745805069 -1 0 0 I I #
edge $-1 $607 2.8128186456363302 $496 13.76169506882886 $495 $660 forward 7 unknown #
vertex $-1 $606 $661 #
straight-curve $-1 -75.826288644062615 -11.100075502868926 4.5335258033767047 0.68199835119979291 0 0.73135370988377701 I I #
point $-1 -67.490716520694036 -11.100075502868926 13.472332745805071 #
point $-1 -75.826288644062629 -22.048951926061456 4.5335258033766896 #
straight-curve $-1 -75.826288644062629 0 13.472332745805071 0 -1 0 I I #
vertex $-1 $502 $662 #
point $-1 -69.125788971431163 -18.920701519435021 8.008463126544914 #
vertex $-1 $506 $663 #
point $-1 -69.125788971431163 -14.228325909495368 8.008463126544914 #
coedge $-1 $521 $520 $513 $617 forward $510 $-1 #
edge $-1 $618 40.50783398873358 $621 49.446640931161959 $616 $664 forward 7 unknown #
vertex $-1 $525 $665 #
straight-curve $-1 -93.368981828584623 23.538138118189401 13.472332745805069 -1 0 0 I I #
edge $-1 $621 -14.506288164892833 $522 -3.5574117417003031 $521 $666 forward 7 unknown #
vertex $-1 $620 $667 #
straight-curve $-1 -75.826288644062615 23.538138118189401 4.5335258033767047 0.68199835119979291 0 0.73135370988377701 I I #
point $-1 -67.490716520694036 23.538138118189401 13.472332745805071 #
point $-1 -75.826288644062629 12.589261694996871 4.5335258033766896 #
straight-curve $-1 -75.826288644062629 0 13.472332745805071 0 -1 0 I I #
vertex $-1 $528 $668 #
point $-1 -69.125788971431163 15.717512101623306 8.008463126544914 #
vertex $-1 $532 $669 #
point $-1 -69.125788971431163 20.409887711562966 8.008463126544914 #
straight-curve $-1 -75.826288644062629 46.48875577432073 0 0 0 -1 I I #
point $-1 -75.826288644062629 -46.48875577432073 -13.472332745805071 #
straight-curve $-1 -75.826288644062629 0 -13.472332745805071 0 1 0 I I #
point $-1 -75.826288644062629 46.48875577432073 -13.472332745805071 #
coedge $-1 $554 $553 $559 $637 reversed $280 $-1 #
vertex $-1 $566 $670 #
straight-curve $-1 0 -46.48875577432073 13.472332745805071 1 0 0 I I #
edge $-1 $635 -13.472332745805071 $638 13.472332745805071 $634 $671 forward 7 unknown #
vertex $-1 $564 $672 #
straight-curve $-1 0 -46.48875577432073 -13.472332745805071 -1 0 0 I I #
straight-curve $-1 -75.826288644062629 0 -13.472332745805071 0 1 0 I I #
straight-curve $-1 -75.826288644062629 0 13.472332745805071 0 -1 0 I I #
coedge $-1 $573 $572 $570 $643 forward $435 $-1 #
edge $-1 $582 -75.826288644062629 $644 75.826288644062629 $570 $673 forward 7 unknown #
vertex $-1 $643 $674 #
straight-curve $-1 -75.826288644062629 46.48875577432073 0 0 0 -1 I I #
point $-1 75.826288644062629 32.897829331894052 13.472332745805067 #
straight-curve $-1 -75.826288644062629 0 13.472332745805071 0 -1 0 I I #
straight-curve $-1 75.826288644062629 0 13.472332745805071 0 1 0 I I #
point $-1 75.826288644062629 46.48875577432073 13.472332745805071 #
edge $-1 $594 -75.826288644062629 $588 -70.780284310397406 $592 $675 forward 7 unknown #
straight-curve $-1 70.780284310397391 13.828822977038246 13.472332745805076 0 -1 0 I I #
point $-1 70.780284310397406 32.897829331894052 13.472332745805071 #
straight-curve $-1 75.826288644062629 32.897829331894052 5.3146578546155636 0 0 1 I I #
point $-1 75.826288644062629 32.897829331894052 13.472332745805067 #
point $-1 71.664280135612643 24.513535927385952 9.3936593014938001 #
point $-1 71.664280135612643 27.657645954076493 9.3936593014938001 #
point $-1 71.664280135612643 30.801755980767034 9.3936593014938001 #
straight-curve $-1 -75.826288644062629 -11.100075502868926 53.980166734538649 0 0 -1 I I #
point $-1 -75.826288644062629 -11.100075502868926 13.472332745805071 #
straight-curve $-1 -75.826288644062629 -8.2872568572325953 4.5335258033766959 0 -1 0 I I #
point $-1 -75.826288644062629 -11.100075502868926 4.5335258033766896 #
point $-1 -69.076433612747167 -18.920701519435021 6.595111065461345 #
point $-1 -69.076433612747167 -14.228325909495368 6.595111065461345 #
straight-curve $-1 -75.826288644062629 23.538138118189401 53.980166734538649 0 0 -1 I I #
point $-1 -75.826288644062629 23.538138118189401 13.472332745805071 #
straight-curve $-1 -75.826288644062629 9.0318499532965681 4.5335258033766959 0 -1 0 I I #
point $-1 -75.826288644062629 23.538138118189401 4.5335258033766896 #
point $-1 -69.076433612747167 15.717512101623306 6.595111065461345 #
point $-1 -69.076433612747167 20.409887711562966 6.595111065461345 #
point $-1 -75.826288644062629 -46.48875577432073 13.472332745805071 #
straight-curve $-1 -75.826288644062629 -46.48875577432073 0 0 0 -1 I I #
point $-1 -75.826288644062629 -46.48875577432073 -13.472332745805071 #
straight-curve $-1 0 46.48875577432073 13.472332745805071 -1 0 0 I I #
point $-1 -75.826288644062629 46.48875577432073 13.472332745805071 #
straight-curve $-1 0 32.897829331894052 13.472332745805071 -1 0 0 I I #
End-of-ACIS-data 