500 0 7 0           
7 Unknown 11 ACIS 5.0 NT 24 Thu Mar 25 22:57:23 1999 
-1 9.9999999999999995e-007 1e-010 
body $-1 $7 $-1 $8 #
body $-1 $9 $-1 $10 #
body $-1 $11 $-1 $12 #
body $-1 $13 $-1 $14 #
body $-1 $15 $-1 $16 #
body $-1 $17 $-1 $18 #
body $-1 $19 $-1 $20 #
lump $-1 $-1 $21 $0 #
transform $-1 1 0 0 0 1 0 0 0 1 53.182775353251749 30.460273494965854 10.787289214462197 1 rotate no_reflect no_shear #
lump $-1 $-1 $22 $1 #
transform $-1 1 0 0 0 1 0 0 0 1 53.182775353251749 30.460273494965854 10.787289214462197 1 rotate no_reflect no_shear #
lump $-1 $-1 $23 $2 #
transform $-1 1 0 0 0 1 0 0 0 1 53.182775353251749 30.460273494965854 10.787289214462197 1 rotate no_reflect no_shear #
lump $-1 $-1 $24 $3 #
transform $-1 1 0 0 0 1 0 0 0 1 53.182775353251749 30.460273494965854 10.787289214462197 1 rotate no_reflect no_shear #
lump $-1 $-1 $25 $4 #
transform $-1 1 0 0 0 1 0 0 0 1 53.182775353251749 30.460273494965854 10.787289214462197 1 rotate no_reflect no_shear #
lump $-1 $-1 $26 $5 #
transform $-1 1 0 0 0 1 0 0 0 1 53.182775353251749 30.460273494965854 10.787289214462197 1 rotate no_reflect no_shear #
lump $-1 $-1 $27 $6 #
transform $-1 1 0 0 0 1 0 0 0 1 53.182775353251749 30.460273494965854 10.787289214462197 1 rotate no_reflect no_shear #
shell $-1 $-1 $-1 $28 $-1 $7 #
shell $-1 $-1 $-1 $29 $-1 $9 #
shell $-1 $-1 $-1 $30 $-1 $11 #
shell $-1 $-1 $-1 $31 $-1 $13 #
shell $-1 $-1 $-1 $32 $-1 $15 #
shell $-1 $-1 $-1 $33 $-1 $17 #
shell $-1 $-1 $-1 $34 $-1 $19 #
face $-1 $35 $36 $21 $-1 $37 forward single #
face $-1 $38 $39 $22 $-1 $40 forward single #
face $-1 $41 $42 $23 $-1 $43 forward single #
face $-1 $44 $45 $24 $-1 $46 reversed single #
face $-1 $47 $48 $25 $-1 $49 forward single #
face $-1 $50 $51 $26 $-1 $52 reversed single #
face $-1 $53 $54 $27 $-1 $55 forward single #
face $-1 $56 $57 $21 $-1 $58 reversed single #
loop $-1 $-1 $59 $28 #
plane-surface $-1 0 0 10.787289214462197 0 0 1 1 0 0 forward_v I I I I #
face $-1 $60 $61 $22 $-1 $62 reversed single #
loop $-1 $-1 $63 $29 #
plane-surface $-1 0 -25.90978029472787 -1.7232316934765475 0 0 1 1 0 0 forward_v I I I I #
face $-1 $64 $65 $23 $-1 $66 reversed single #
loop $-1 $-1 $67 $30 #
plane-surface $-1 0 25.909780294727874 -1.7232316934765475 0 0 1 1 0 0 forward_v I I I I #
face $-1 $68 $69 $24 $-1 $70 reversed single #
loop $-1 $-1 $71 $31 #
plane-surface $-1 37.459228652699146 9.8680578828830932 150.40189650055561 0 1 0 0.62932039886446345 0 0.77714595512881146 forward_v I I I I #
face $-1 $72 $73 $25 $-1 $74 forward single #
loop $-1 $75 $76 $32 #
cone-surface $-1 45.673161063514847 15.61367248868649 4.1345951774692953 -0.62932039886446345 0 -0.77714595512881146 1.5542919102576229 0 -1.2586407977289269 1 I I 0 1 2 forward I I I I #
face $-1 $77 $78 $26 $-1 $79 reversed single #
loop $-1 $-1 $80 $33 #
plane-surface $-1 -120.12078614930684 21.359287094489886 83.463885704500512 0 -1 0 0.62932039886446345 0 -0.77714595512881146 forward_v I I I I #
face $-1 $81 $82 $27 $-1 $83 forward single #
loop $-1 $84 $85 $34 #
cone-surface $-1 -45.673161063514847 15.61367248868649 4.1345951774693059 0.62932039886446345 0 -0.77714595512881146 1.5542919102576229 0 1.2586407977289269 1 I I 0 1 2 forward I I I I #
face $-1 $86 $87 $21 $-1 $88 reversed single #
loop $-1 $-1 $89 $35 #
plane-surface $-1 0 0 -10.787289214462197 0 0 1 1 0 0 forward_v I I I I #
coedge $-1 $90 $91 $92 $93 forward $36 $-1 #
face $-1 $94 $95 $22 $-1 $96 reversed single #
loop $-1 $-1 $97 $38 #
plane-surface $-1 0 -25.90978029472787 -8.105006083025474 0 0 1 1 0 0 forward_v I I I I #
coedge $-1 $98 $99 $100 $101 reversed $39 $-1 #
face $-1 $102 $103 $23 $-1 $104 reversed single #
loop $-1 $-1 $105 $41 #
plane-surface $-1 0 25.909780294727874 -8.105006083025474 0 0 1 1 0 0 forward_v I I I I #
coedge $-1 $106 $107 $108 $109 reversed $42 $-1 #
face $-1 $110 $111 $24 $-1 $112 reversed single #
loop $-1 $-1 $113 $44 #
plane-surface $-1 -29.47878214335595 15.61367248868649 67.740339003947923 0.62932039886446345 0 0.77714595512881146 0.77714595512881146 0 -0.62932039886446345 forward_v I I I I #
coedge $-1 $114 $115 $116 $117 reversed $45 $-1 #
face $-1 $-1 $118 $25 $-1 $119 forward single #
loop $-1 $120 $121 $47 #
cone-surface $-1 43.699426225717538 15.61367248868649 1.6972356886322775 -0.62932039886446345 0 -0.77714595512881146 0.77714595512881146 0 -0.62932039886446345 1 I I -0.70710678118654746 0.70710678118654746 1 forward I I I I #
loop $-1 $-1 $122 $32 #
coedge $-1 $76 $76 $123 $124 reversed $48 $-1 #
face $-1 $125 $126 $26 $-1 $127 reversed single #
loop $-1 $-1 $128 $50 #
plane-surface $-1 -53.182775353251742 15.61367248868649 0.80232820789282755 -0.62932039886446345 0 0.77714595512881146 0.77714595512881146 0 0.62932039886446345 forward_v I I I I #
coedge $-1 $129 $130 $131 $132 reversed $51 $-1 #
face $-1 $-1 $133 $27 $-1 $134 forward single #
loop $-1 $135 $136 $53 #
cone-surface $-1 -43.699426225717538 15.61367248868649 1.6972356886322881 0.62932039886446345 0 -0.77714595512881146 0.77714595512881146 0 0.62932039886446345 1 I I -0.70710678118654746 0.70710678118654746 1 forward I I I I #
loop $-1 $-1 $137 $34 #
coedge $-1 $85 $85 $138 $139 reversed $54 $-1 #
face $-1 $140 $141 $21 $-1 $142 reversed single #
loop $-1 $-1 $143 $56 #
plane-surface $-1 0 -30.460273494965854 0 0 1 0 0 0 1 forward_v I I I I #
coedge $-1 $144 $145 $146 $147 forward $57 $-1 #
coedge $-1 $148 $59 $149 $150 forward $36 $-1 #
coedge $-1 $59 $148 $151 $152 forward $36 $-1 #
coedge $-1 $153 $154 $59 $93 reversed $155 $-1 #
edge $-1 $156 -30.460273494965854 $157 30.460273494965854 $92 $158 forward 7 unknown #
face $-1 $159 $160 $22 $-1 $161 reversed single #
loop $-1 $-1 $162 $60 #
plane-surface $-1 0 -21.359287094489886 -4.9141188882510107 0 -1 0 0 0 -1 forward_v I I I I #
coedge $-1 $163 $164 $165 $166 reversed $61 $-1 #
coedge $-1 $167 $63 $168 $169 forward $39 $-1 #
coedge $-1 $63 $167 $170 $171 reversed $39 $-1 #
coedge $-1 $172 $173 $63 $101 forward $174 $-1 #
edge $-1 $175 8.4043969471259512 $176 17.505383347601921 $100 $177 forward 7 unknown #
face $-1 $178 $179 $23 $-1 $180 reversed single #
loop $-1 $-1 $181 $64 #
plane-surface $-1 0 21.35928709448989 -4.9141188882510107 0 1 0 0 0 1 forward_v I I I I #
coedge $-1 $182 $183 $184 $185 reversed $65 $-1 #
coedge $-1 $186 $67 $187 $188 reversed $42 $-1 #
coedge $-1 $67 $186 $189 $190 forward $42 $-1 #
coedge $-1 $191 $192 $67 $109 forward $179 $-1 #
edge $-1 $193 -17.505383347601921 $194 -8.404396947125953 $108 $195 forward 7 unknown #
face $-1 $196 $197 $24 $-1 $198 forward single #
loop $-1 $-1 $199 $68 #
plane-surface $-1 37.459228652699146 21.359287094489886 150.40189650055561 0 -1 0 -0.62932039886446345 0 -0.77714595512881146 forward_v I I I I #
coedge $-1 $200 $201 $202 $203 reversed $69 $-1 #
coedge $-1 $115 $71 $204 $205 reversed $45 $-1 #
coedge $-1 $71 $114 $200 $206 reversed $45 $-1 #
coedge $-1 $202 $207 $71 $117 forward $208 $-1 #
edge $-1 $209 64.413659035815613 $210 74.398620042384977 $116 $211 forward 7 unknown #
loop $-1 $-1 $123 $72 #
plane-surface $-1 -29.47878214335595 15.61367248868649 67.740339003947923 0.62932039886446345 0 0.77714595512881146 0.77714595512881146 0 -0.62932039886446345 forward_v I I I I #
loop $-1 $-1 $212 $47 #
coedge $-1 $121 $121 $122 $213 reversed $73 $-1 #
coedge $-1 $122 $122 $121 $213 forward $75 $-1 #
coedge $-1 $123 $123 $76 $124 forward $118 $-1 #
edge $-1 $214 0 $214 6.2831853071796004 $123 $215 forward 7 unknown #
face $-1 $216 $217 $26 $-1 $218 reversed single #
loop $-1 $-1 $219 $77 #
plane-surface $-1 -120.12078614930684 9.8680578828830932 83.463885704500512 0 1 0 -0.62932039886446345 0 0.77714595512881146 forward_v I I I I #
coedge $-1 $220 $221 $222 $223 reversed $78 $-1 #
coedge $-1 $130 $80 $224 $225 reversed $51 $-1 #
coedge $-1 $80 $129 $220 $226 reversed $51 $-1 #
coedge $-1 $222 $227 $80 $132 forward $217 $-1 #
edge $-1 $228 30.944653637788058 $229 40.929614644357436 $131 $230 forward 7 unknown #
loop $-1 $-1 $138 $81 #
plane-surface $-1 -53.182775353251742 15.61367248868649 0.80232820789282755 -0.62932039886446345 0 0.77714595512881146 0.77714595512881146 0 0.62932039886446345 forward_v I I I I #
loop $-1 $-1 $231 $53 #
coedge $-1 $136 $136 $137 $232 reversed $82 $-1 #
coedge $-1 $137 $137 $136 $232 forward $84 $-1 #
coedge $-1 $138 $138 $85 $139 forward $133 $-1 #
edge $-1 $233 0 $233 6.2831853071796004 $138 $234 forward 7 unknown #
face $-1 $235 $236 $21 $-1 $237 reversed single #
loop $-1 $-1 $238 $86 #
plane-surface $-1 -53.182775353251749 0 0 1 0 0 0 0 -1 forward_v I I I I #
coedge $-1 $239 $151 $240 $241 forward $87 $-1 #
coedge $-1 $242 $89 $239 $243 forward $57 $-1 #
coedge $-1 $89 $242 $244 $245 forward $57 $-1 #
coedge $-1 $154 $153 $89 $147 reversed $155 $-1 #
edge $-1 $246 -30.460273494965854 $247 30.460273494965854 $146 $248 forward 7 unknown #
coedge $-1 $91 $90 $249 $250 forward $36 $-1 #
coedge $-1 $251 $252 $90 $150 reversed $236 $-1 #
edge $-1 $157 -53.182775353251749 $253 53.182775353251749 $149 $254 forward 7 unknown #
coedge $-1 $143 $255 $91 $152 reversed $87 $-1 #
edge $-1 $256 -53.182775353251749 $156 53.182775353251749 $151 $257 forward 7 unknown #
coedge $-1 $146 $92 $255 $258 forward $155 $-1 #
coedge $-1 $92 $146 $251 $259 reversed $155 $-1 #
loop $-1 $-1 $153 $235 #
vertex $-1 $93 $260 #
vertex $-1 $93 $261 #
straight-curve $-1 53.182775353251749 0 10.787289214462197 0 1 0 I I #
face $-1 $262 $263 $22 $-1 $264 reversed single #
loop $-1 $-1 $265 $94 #
plane-surface $-1 -53.182775353251749 0 0 1 0 0 0 0 -1 forward_v I I I I #
coedge $-1 $266 $168 $173 $267 reversed $95 $-1 #
coedge $-1 $268 $97 $269 $270 reversed $61 $-1 #
coedge $-1 $97 $268 $266 $271 forward $61 $-1 #
coedge $-1 $173 $172 $97 $166 forward $174 $-1 #
edge $-1 $272 -17.505383347601921 $273 -8.4043969471259512 $165 $274 forward 7 unknown #
coedge $-1 $99 $98 $265 $275 reversed $39 $-1 #
coedge $-1 $162 $276 $98 $169 reversed $95 $-1 #
edge $-1 $175 -53.182775353251749 $277 53.182775353251749 $168 $278 forward 7 unknown #
coedge $-1 $279 $280 $99 $171 forward $263 $-1 #
edge $-1 $176 -53.182775353251749 $281 53.182775353251749 $170 $282 forward 7 unknown #
coedge $-1 $165 $100 $280 $283 forward $174 $-1 #
coedge $-1 $100 $165 $162 $267 forward $174 $-1 #
loop $-1 $-1 $100 $262 #
vertex $-1 $101 $284 #
vertex $-1 $283 $285 #
straight-curve $-1 53.182775353251749 -12.954890147363935 -1.7232316934765475 0 -1 0 I I #
face $-1 $286 $287 $23 $-1 $288 reversed single #
loop $-1 $-1 $108 $102 #
plane-surface $-1 53.182775353251749 0 0 -1 0 0 0 0 1 forward_v I I I I #
coedge $-1 $289 $189 $290 $291 reversed $103 $-1 #
coedge $-1 $292 $105 $289 $293 forward $65 $-1 #
coedge $-1 $105 $292 $294 $295 reversed $65 $-1 #
coedge $-1 $192 $191 $105 $185 forward $179 $-1 #
edge $-1 $296 8.404396947125953 $297 17.505383347601921 $184 $298 forward 7 unknown #
coedge $-1 $107 $106 $299 $300 reversed $42 $-1 #
coedge $-1 $301 $302 $106 $188 forward $303 $-1 #
edge $-1 $304 -53.182775353251749 $193 53.182775353251749 $187 $305 forward 7 unknown #
coedge $-1 $181 $306 $107 $190 reversed $103 $-1 #
edge $-1 $307 -53.182775353251749 $194 53.182775353251749 $189 $308 forward 7 unknown #
coedge $-1 $184 $108 $306 $309 forward $179 $-1 #
coedge $-1 $108 $184 $301 $310 reversed $179 $-1 #
vertex $-1 $310 $311 #
vertex $-1 $109 $312 #
straight-curve $-1 53.182775353251749 12.954890147363937 -1.7232316934765475 0 -1 0 I I #
face $-1 $-1 $208 $24 $-1 $313 reversed single #
loop $-1 $-1 $314 $110 #
plane-surface $-1 0 0 10.787289214462197 0 0 1 1 0 0 forward_v I I I I #
coedge $-1 $315 $316 $317 $318 reversed $111 $-1 #
coedge $-1 $319 $113 $115 $206 forward $69 $-1 #
coedge $-1 $113 $319 $315 $320 forward $69 $-1 #
coedge $-1 $317 $116 $113 $203 forward $208 $-1 #
edge $-1 $210 2.0612216385398483 $321 13.552450850146641 $202 $322 forward 7 unknown #
coedge $-1 $323 $324 $114 $205 forward $197 $-1 #
edge $-1 $325 22.122761325294032 $209 34.45316102690218 $204 $326 forward 7 unknown #
edge $-1 $210 -106.36555070650351 $325 -90.499290809976884 $115 $327 forward 7 unknown #
coedge $-1 $116 $317 $323 $328 reversed $208 $-1 #
loop $-1 $-1 $317 $196 #
vertex $-1 $328 $329 #
vertex $-1 $117 $330 #
straight-curve $-1 53.182775353251749 9.8680578828830932 75.200948250277804 0 0 -1 I I #
coedge $-1 $212 $212 $-1 $331 reversed $120 $-1 #
edge $-1 $332 0 $332 6.2831853071796004 $121 $333 forward 7 unknown #
vertex $-1 $124 $334 #
ellipse-curve $-1 47.017575502447684 15.61367248868649 5.7948087111774989 0.62932039886446345 0 0.77714595512881146 1.5542919102576229 0 -1.2586407977289269 1 I I #
face $-1 $-1 $335 $26 $-1 $336 forward single #
loop $-1 $-1 $131 $125 #
plane-surface $-1 -53.182775353251749 0 0 1 0 0 0 0 -1 forward_v I I I I #
coedge $-1 $337 $338 $339 $340 reversed $126 $-1 #
coedge $-1 $341 $128 $130 $226 forward $78 $-1 #
coedge $-1 $128 $341 $337 $342 forward $78 $-1 #
coedge $-1 $339 $131 $128 $223 forward $217 $-1 #
edge $-1 $229 -13.552450850146641 $343 -2.0612216385398483 $222 $344 forward 7 unknown #
coedge $-1 $345 $346 $129 $225 forward $335 $-1 #
edge $-1 $347 -19.208017423009807 $228 -6.8776177214016698 $224 $348 forward 7 unknown #
edge $-1 $229 -9.1551213131864128e-015 $347 15.866259896526611 $130 $349 forward 7 unknown #
coedge $-1 $131 $339 $345 $350 reversed $217 $-1 #
vertex $-1 $350 $351 #
vertex $-1 $132 $352 #
straight-curve $-1 -53.182775353251749 21.359287094489886 41.731942852250256 0 0 -1 I I #
coedge $-1 $231 $231 $-1 $353 reversed $135 $-1 #
edge $-1 $354 0 $354 6.2831853071796004 $136 $355 forward 7 unknown #
vertex $-1 $139 $356 #
ellipse-curve $-1 -47.017575502447684 15.61367248868649 5.794808711177506 -0.62932039886446345 0 0.77714595512881146 1.5542919102576229 0 1.2586407977289269 1 I I #
face $-1 $-1 $155 $21 $-1 $357 reversed single #
loop $-1 $-1 $251 $140 #
plane-surface $-1 0 30.460273494965854 0 0 -1 0 0 0 -1 forward_v I I I I #
coedge $-1 $358 $249 $252 $359 forward $141 $-1 #
coedge $-1 $255 $143 $144 $243 reversed $87 $-1 #
coedge $-1 $249 $358 $143 $241 reversed $141 $-1 #
edge $-1 $256 -10.787289214462197 $360 10.787289214462197 $240 $361 forward 7 unknown #
coedge $-1 $145 $144 $358 $362 forward $57 $-1 #
edge $-1 $247 -53.182775353251749 $360 53.182775353251749 $239 $363 forward 7 unknown #
coedge $-1 $252 $251 $145 $245 reversed $236 $-1 #
edge $-1 $364 -53.182775353251749 $246 53.182775353251749 $244 $365 forward 7 unknown #
vertex $-1 $147 $366 #
vertex $-1 $258 $367 #
straight-curve $-1 53.182775353251749 0 -10.787289214462197 0 -1 0 I I #
coedge $-1 $238 $240 $148 $250 reversed $141 $-1 #
edge $-1 $253 -30.460273494965854 $256 30.460273494965854 $249 $368 forward 7 unknown #
coedge $-1 $244 $149 $154 $259 forward $236 $-1 #
coedge $-1 $149 $244 $238 $359 reversed $236 $-1 #
vertex $-1 $150 $369 #
straight-curve $-1 0 30.460273494965854 10.787289214462197 -1 0 0 I I #
coedge $-1 $151 $239 $153 $258 reversed $87 $-1 #
vertex $-1 $250 $370 #
straight-curve $-1 0 -30.460273494965854 10.787289214462197 1 0 0 I I #
edge $-1 $156 -10.787289214462197 $247 10.787289214462197 $153 $371 forward 7 unknown #
edge $-1 $157 -10.787289214462197 $246 10.787289214462197 $154 $372 forward 7 unknown #
point $-1 53.182775353251749 -30.460273494965854 10.787289214462197 #
point $-1 53.182775353251749 30.460273494965854 10.787289214462197 #
face $-1 $-1 $174 $22 $-1 $373 reversed single #
loop $-1 $-1 $170 $159 #
plane-surface $-1 0 -30.460273494965854 0 0 1 0 0 0 1 forward_v I I I I #
coedge $-1 $374 $375 $167 $275 forward $160 $-1 #
coedge $-1 $276 $162 $164 $271 reversed $95 $-1 #
edge $-1 $273 -5.6479466388999686 $175 0.73382775064895789 $173 $376 forward 7 unknown #
coedge $-1 $164 $163 $377 $378 reversed $61 $-1 #
coedge $-1 $280 $279 $163 $270 forward $263 $-1 #
edge $-1 $379 -53.182775353251749 $272 53.182775353251749 $269 $380 forward 7 unknown #
edge $-1 $381 -53.182775353251749 $273 53.182775353251749 $266 $382 forward 7 unknown #
vertex $-1 $270 $383 #
vertex $-1 $166 $384 #
straight-curve $-1 53.182775353251749 -12.954890147363935 -8.105006083025474 0 1 0 I I #
edge $-1 $281 -17.505383347601921 $277 -8.4043969471259512 $265 $385 forward 7 unknown #
coedge $-1 $168 $266 $374 $386 reversed $95 $-1 #
vertex $-1 $275 $387 #
straight-curve $-1 0 -21.359287094489886 -1.7232316934765475 -1 0 0 I I #
coedge $-1 $269 $170 $375 $388 forward $263 $-1 #
coedge $-1 $170 $269 $172 $283 reversed $263 $-1 #
vertex $-1 $388 $389 #
straight-curve $-1 0 -30.460273494965854 -1.7232316934765475 -1 0 0 I I #
edge $-1 $176 1.7232316934765475 $272 8.105006083025474 $172 $390 forward 7 unknown #
point $-1 53.182775353251749 -21.359287094489886 -1.7232316934765475 #
point $-1 53.182775353251749 -30.460273494965854 -1.7232316934765475 #
face $-1 $-1 $303 $23 $-1 $391 reversed single #
loop $-1 $-1 $299 $178 #
plane-surface $-1 -53.182775353251749 0 0 1 0 0 0 0 -1 forward_v I I I I #
coedge $-1 $306 $181 $182 $293 reversed $103 $-1 #
coedge $-1 $299 $392 $181 $291 forward $287 $-1 #
edge $-1 $393 -5.6479466388999686 $307 0.73382775064895789 $290 $394 forward 7 unknown #
coedge $-1 $183 $182 $392 $395 reversed $65 $-1 #
edge $-1 $296 -53.182775353251749 $393 53.182775353251749 $289 $396 forward 7 unknown #
coedge $-1 $302 $301 $183 $295 forward $303 $-1 #
edge $-1 $297 -53.182775353251749 $397 53.182775353251749 $294 $398 forward 7 unknown #
vertex $-1 $185 $399 #
vertex $-1 $295 $400 #
straight-curve $-1 53.182775353251749 12.954890147363937 -8.105006083025474 0 1 0 I I #
coedge $-1 $401 $290 $186 $300 forward $287 $-1 #
edge $-1 $307 8.404396947125953 $304 17.505383347601921 $299 $402 forward 7 unknown #
coedge $-1 $294 $187 $192 $310 forward $303 $-1 #
coedge $-1 $187 $294 $401 $403 reversed $303 $-1 #
loop $-1 $-1 $187 $286 #
vertex $-1 $403 $404 #
straight-curve $-1 0 30.460273494965854 -1.7232316934765475 1 0 0 I I #
coedge $-1 $189 $289 $191 $309 reversed $103 $-1 #
vertex $-1 $300 $405 #
straight-curve $-1 0 21.35928709448989 -1.7232316934765475 1 0 0 I I #
edge $-1 $194 -0.73382775064895789 $296 5.6479466388999686 $191 $406 forward 7 unknown #
edge $-1 $193 1.7232316934765475 $297 8.105006083025474 $192 $407 forward 7 unknown #
point $-1 53.182775353251749 30.460273494965858 -1.7232316934765475 #
point $-1 53.182775353251749 21.35928709448989 -1.7232316934765475 #
plane-surface $-1 53.182775353251749 0 0 -1 0 0 0 0 1 forward_v I I I I #
coedge $-1 $324 $323 $316 $408 forward $197 $-1 #
coedge $-1 $316 $199 $201 $320 reversed $111 $-1 #
coedge $-1 $199 $315 $314 $408 reversed $111 $-1 #
coedge $-1 $207 $202 $199 $318 forward $208 $-1 #
edge $-1 $321 -74.398620042384977 $409 -64.413659035815613 $317 $410 forward 7 unknown #
coedge $-1 $201 $200 $324 $411 reversed $69 $-1 #
edge $-1 $412 90.499290809976884 $321 106.36555070650351 $315 $413 forward 7 unknown #
vertex $-1 $203 $414 #
straight-curve $-1 53.182775353251756 7.8068362443432449 0.80232820789282044 0 1 0 I I #
coedge $-1 $314 $204 $207 $328 forward $197 $-1 #
coedge $-1 $204 $314 $319 $411 forward $197 $-1 #
vertex $-1 $205 $415 #
straight-curve $-1 18.729614326349573 9.8680578828830932 10.787289214462191 1 0 0 I I #
straight-curve $-1 -29.47878214335595 9.8680578828830932 67.740339003947923 -0.77714595512881146 0 0.62932039886446345 I I #
edge $-1 $209 9.8680578828830932 $409 21.359287094489886 $207 $416 forward 7 unknown #
point $-1 53.182775353251749 9.8680578828830932 10.787289214462197 #
point $-1 53.182775353251749 9.8680578828830932 0.80232820789282755 #
edge $-1 $417 1 $417 0 $212 $-1 forward 7 unknown #
vertex $-1 $213 $418 #
ellipse-curve $-1 44.328746624582003 15.61367248868649 2.474381643761089 0.62932039886446345 0 0.77714595512881146 1.5542919102576229 0 -1.2586407977289269 1 I I #
point $-1 48.571867412705309 15.61367248868649 4.5361679134485753 #
loop $-1 $-1 $224 $216 #
plane-surface $-1 0 0 10.787289214462197 0 0 1 1 0 0 forward_v I I I I #
coedge $-1 $338 $219 $221 $342 reversed $126 $-1 #
coedge $-1 $219 $337 $419 $420 reversed $126 $-1 #
coedge $-1 $227 $222 $219 $340 forward $217 $-1 #
edge $-1 $343 -40.929614644357436 $421 -30.944653637788058 $339 $422 forward 7 unknown #
coedge $-1 $221 $220 $346 $423 reversed $78 $-1 #
edge $-1 $424 -15.866259896526611 $343 9.1551213131864128e-015 $337 $425 forward 7 unknown #
vertex $-1 $223 $426 #
straight-curve $-1 -53.182775353251749 7.8068362443432449 0.802328207892821 0 -1 0 I I #
coedge $-1 $419 $224 $227 $350 forward $335 $-1 #
coedge $-1 $224 $419 $341 $423 forward $335 $-1 #
vertex $-1 $225 $427 #
straight-curve $-1 -60.060393074653419 21.359287094489886 10.787289214462199 -1 0 0 I I #
straight-curve $-1 -53.182775353251742 21.359287094489886 0.80232820789282755 0.77714595512881146 0 0.62932039886446345 I I #
edge $-1 $228 -21.359287094489886 $421 -9.8680578828830932 $227 $428 forward 7 unknown #
point $-1 -53.182775353251749 21.359287094489886 10.787289214462197 #
point $-1 -53.182775353251749 21.359287094489886 0.80232820789282178 #
edge $-1 $429 1 $429 0 $231 $-1 forward 7 unknown #
vertex $-1 $232 $430 #
ellipse-curve $-1 -44.328746624582003 15.61367248868649 2.4743816437610997 -0.62932039886446345 0 0.77714595512881146 1.5542919102576229 0 1.2586407977289269 1 I I #
point $-1 -45.463283592190066 15.61367248868649 7.0534495089064402 #
plane-surface $-1 53.182775353251749 0 0 -1 0 0 0 0 1 forward_v I I I I #
coedge $-1 $240 $238 $242 $362 reversed $141 $-1 #
edge $-1 $253 -10.787289214462197 $364 10.787289214462197 $252 $431 forward 7 unknown #
vertex $-1 $362 $432 #
straight-curve $-1 -53.182775353251749 -30.460273494965854 0 0 0 -1 I I #
edge $-1 $360 -30.460273494965854 $364 30.460273494965854 $358 $433 forward 7 unknown #
straight-curve $-1 0 -30.460273494965854 -10.787289214462197 -1 0 0 I I #
vertex $-1 $245 $434 #
straight-curve $-1 0 30.460273494965854 -10.787289214462197 1 0 0 I I #
point $-1 53.182775353251749 30.460273494965854 -10.787289214462197 #
point $-1 53.182775353251749 -30.460273494965854 -10.787289214462197 #
straight-curve $-1 -53.182775353251749 0 10.787289214462197 0 -1 0 I I #
point $-1 -53.182775353251749 30.460273494965854 10.787289214462197 #
point $-1 -53.182775353251749 -30.460273494965854 10.787289214462197 #
straight-curve $-1 53.182775353251749 -30.460273494965854 0 0 0 -1 I I #
straight-curve $-1 53.182775353251749 30.460273494965854 0 0 0 -1 I I #
plane-surface $-1 53.182775353251749 0 0 -1 0 0 0 0 1 forward_v I I I I #
coedge $-1 $377 $265 $276 $386 forward $160 $-1 #
coedge $-1 $265 $377 $279 $388 reversed $160 $-1 #
straight-curve $-1 53.182775353251749 -21.359287094489886 -2.4570594441255054 0 0 1 I I #
coedge $-1 $375 $374 $268 $378 forward $160 $-1 #
edge $-1 $381 8.4043969471259512 $379 17.505383347601921 $377 $435 forward 7 unknown #
vertex $-1 $270 $436 #
straight-curve $-1 0 -30.460273494965854 -8.105006083025474 1 0 0 I I #
vertex $-1 $378 $437 #
straight-curve $-1 0 -21.359287094489886 -8.105006083025474 1 0 0 I I #
point $-1 53.182775353251749 -30.460273494965854 -8.105006083025474 #
point $-1 53.182775353251749 -21.359287094489886 -8.105006083025474 #
straight-curve $-1 -53.182775353251749 -12.954890147363935 -1.7232316934765475 0 1 0 I I #
edge $-1 $277 -0.73382775064895789 $381 5.6479466388999686 $374 $438 forward 7 unknown #
point $-1 -53.182775353251749 -21.359287094489886 -1.7232316934765475 #
edge $-1 $281 1.7232316934765475 $379 8.105006083025474 $375 $439 forward 7 unknown #
point $-1 -53.182775353251749 -30.460273494965854 -1.7232316934765475 #
straight-curve $-1 53.182775353251749 -30.460273494965854 0 0 0 -1 I I #
plane-surface $-1 0 30.460273494965854 0 0 -1 0 0 0 -1 forward_v I I I I #
coedge $-1 $290 $401 $292 $395 forward $287 $-1 #
vertex $-1 $395 $440 #
straight-curve $-1 -53.182775353251749 21.35928709448989 -2.4570594441255054 0 0 1 I I #
edge $-1 $397 -17.505383347601921 $393 -8.404396947125953 $392 $441 forward 7 unknown #
straight-curve $-1 0 21.35928709448989 -8.105006083025474 -1 0 0 I I #
vertex $-1 $295 $442 #
straight-curve $-1 0 30.460273494965854 -8.105006083025474 -1 0 0 I I #
point $-1 53.182775353251749 21.35928709448989 -8.105006083025474 #
point $-1 53.182775353251749 30.460273494965858 -8.105006083025474 #
coedge $-1 $392 $299 $302 $403 forward $287 $-1 #
straight-curve $-1 -53.182775353251749 12.954890147363937 -1.7232316934765475 0 1 0 I I #
edge $-1 $304 1.7232316934765475 $397 8.105006083025474 $302 $443 forward 7 unknown #
point $-1 -53.182775353251749 30.460273494965858 -1.7232316934765475 #
point $-1 -53.182775353251749 21.35928709448989 -1.7232316934765475 #
straight-curve $-1 53.182775353251749 21.35928709448989 -2.4570594441255054 0 0 -1 I I #
straight-curve $-1 53.182775353251749 30.460273494965854 0 0 0 -1 I I #
edge $-1 $409 -34.45316102690218 $412 -22.122761325294032 $314 $444 forward 7 unknown #
vertex $-1 $408 $445 #
straight-curve $-1 53.182775353251749 21.359287094489886 75.200948250277804 0 0 1 I I #
edge $-1 $412 -13.552450850146641 $325 -2.0612216385398483 $324 $446 forward 7 unknown #
vertex $-1 $411 $447 #
straight-curve $-1 -29.47878214335595 21.359287094489886 67.740339003947923 0.77714595512881146 0 -0.62932039886446345 I I #
point $-1 53.182775353251749 21.359287094489886 0.80232820789282755 #
point $-1 40.852375651643605 9.8680578828830932 10.787289214462199 #
straight-curve $-1 53.182775353251749 0 10.787289214462197 0 1 0 I I #
vertex $-1 $331 $448 #
point $-1 45.883038534839628 15.61367248868649 1.2157408460321619 #
coedge $-1 $346 $345 $338 $420 forward $335 $-1 #
edge $-1 $421 6.8776177214016698 $424 19.208017423009807 $419 $449 forward 7 unknown #
vertex $-1 $420 $450 #
straight-curve $-1 -53.182775353251749 9.8680578828830932 41.731942852250256 0 0 1 I I #
edge $-1 $424 2.0612216385398483 $347 13.552450850146641 $346 $451 forward 7 unknown #
vertex $-1 $423 $452 #
straight-curve $-1 -53.182775353251742 9.8680578828830932 0.80232820789282755 -0.77714595512881146 0 -0.62932039886446345 I I #
point $-1 -53.182775353251749 9.8680578828830932 0.80232820789282178 #
point $-1 -40.852375651643612 21.359287094489886 10.787289214462197 #
straight-curve $-1 -53.182775353251749 0 10.787289214462197 0 -1 0 I I #
vertex $-1 $353 $453 #
point $-1 -42.774454714324378 15.61367248868649 3.7330224414900264 #
straight-curve $-1 -53.182775353251749 30.460273494965854 0 0 0 -1 I I #
point $-1 -53.182775353251749 -30.460273494965854 -10.787289214462197 #
straight-curve $-1 -53.182775353251749 0 -10.787289214462197 0 1 0 I I #
point $-1 -53.182775353251749 30.460273494965854 -10.787289214462197 #
straight-curve $-1 -53.182775353251749 -12.954890147363935 -8.105006083025474 0 -1 0 I I #
point $-1 -53.182775353251749 -30.460273494965854 -8.105006083025474 #
point $-1 -53.182775353251749 -21.359287094489886 -8.105006083025474 #
straight-curve $-1 -53.182775353251749 -21.359287094489886 -2.4570594441255054 0 0 -1 I I #
straight-curve $-1 -53.182775353251749 -30.460273494965854 0 0 0 -1 I I #
point $-1 -53.182775353251749 21.35928709448989 -8.105006083025474 #
straight-curve $-1 -53.182775353251749 12.954890147363937 -8.105006083025474 0 -1 0 I I #
point $-1 -53.182775353251749 30.460273494965858 -8.105006083025474 #
straight-curve $-1 -53.182775353251749 30.460273494965854 0 0 0 -1 I I #
straight-curve $-1 18.729614326349573 21.359287094489886 10.787289214462191 -1 0 0 I I #
point $-1 53.182775353251749 21.359287094489886 10.787289214462197 #
straight-curve $-1 40.852375651643612 7.8068362443432449 10.787289214462191 0 -1 0 I I #
point $-1 40.852375651643605 21.359287094489886 10.787289214462199 #
point $-1 43.070105826853073 15.61367248868649 0.92008973350346601 #
straight-curve $-1 -60.060393074653419 9.8680578828830932 10.787289214462199 1 0 0 I I #
point $-1 -53.182775353251749 9.8680578828830932 10.787289214462197 #
straight-curve $-1 -40.852375651643605 7.8068362443432449 10.787289214462195 0 1 0 I I #
point $-1 -40.852375651643612 9.8680578828830932 10.787289214462197 #
point $-1 -43.070105826853073 15.61367248868649 0.92008973350347667 #
End-of-ACIS-data 