500 0 5 0           
7 Unknown 11 ACIS 5.0 NT 24 Fri Mar 26 02:11:57 1999 
-1 9.9999999999999995e-007 1e-010 
body $-1 $5 $-1 $6 #
body $-1 $7 $-1 $8 #
body $-1 $9 $-1 $10 #
body $-1 $11 $-1 $12 #
body $-1 $13 $-1 $14 #
lump $-1 $-1 $15 $0 #
transform $-1 1 0 0 0 1 0 0 0 1 65.351115451521338 43.794641064295675 18.26859497016283 1 rotate no_reflect no_shear #
lump $-1 $-1 $16 $1 #
transform $-1 1 0 0 0 1 0 0 0 1 65.351115451521338 43.794641064295675 18.26859497016283 1 rotate no_reflect no_shear #
lump $-1 $-1 $17 $2 #
transform $-1 1 0 0 0 1 0 0 0 1 65.351115451521338 43.794641064295675 18.26859497016283 1 rotate no_reflect no_shear #
lump $-1 $-1 $18 $3 #
transform $-1 1 0 0 0 1 0 0 0 1 65.351115451521338 43.794641064295675 18.26859497016283 1 rotate no_reflect no_shear #
lump $-1 $-1 $19 $4 #
transform $-1 1 0 0 0 1 0 0 0 1 65.351115451521338 43.794641064295675 18.26859497016283 1 rotate no_reflect no_shear #
shell $-1 $-1 $-1 $20 $-1 $5 #
shell $-1 $-1 $-1 $21 $-1 $7 #
shell $-1 $-1 $-1 $22 $-1 $9 #
shell $-1 $-1 $-1 $23 $-1 $11 #
shell $-1 $-1 $-1 $24 $-1 $13 #
face $-1 $25 $26 $15 $-1 $27 reversed single #
face $-1 $28 $29 $16 $-1 $30 reversed single #
face $-1 $31 $32 $17 $-1 $33 forward single #
face $-1 $34 $35 $18 $-1 $36 reversed single #
face $-1 $37 $38 $19 $-1 $39 forward single #
face $-1 $40 $41 $15 $-1 $42 forward single #
loop $-1 $-1 $43 $20 #
plane-surface $-1 65.351115451521338 0 0 -1 0 0 0 0 1 forward_v I I I I #
face $-1 $44 $45 $16 $-1 $46 reversed single #
loop $-1 $-1 $47 $21 #
plane-surface $-1 -45.709613296015732 0 12.881681567617274 -1 0 0 0 0 1 forward_v I I I I #
face $-1 $48 $49 $17 $-1 $50 reversed single #
loop $-1 $-1 $51 $22 #
plane-surface $-1 65.351115451521338 0 0 -1 0 0 0 0 1 forward_v I I I I #
face $-1 $52 $53 $18 $-1 $54 reversed single #
loop $-1 $-1 $55 $23 #
plane-surface $-1 -25.876285822750603 -148.1780849807534 78.87291308024524 -1 0 0 0 -0.79863551827123203 0.60181501223851219 forward_v I I I I #
face $-1 $56 $57 $19 $-1 $58 forward single #
loop $-1 $59 $60 $24 #
cone-surface $-1 -35.792949559383167 -36.066510924286476 8.5439029347964563 0 0.79863551827123203 -0.60181501223851219 1 0 0 1 I I 0 1 1 forward I I I I #
face $-1 $61 $62 $15 $-1 $63 reversed single #
loop $-1 $-1 $64 $25 #
plane-surface $-1 0 0 18.26859497016283 0 0 1 1 0 0 forward_v I I I I #
coedge $-1 $65 $66 $67 $68 reversed $26 $-1 #
face $-1 $69 $70 $16 $-1 $71 reversed single #
loop $-1 $-1 $72 $28 #
plane-surface $-1 -55.530364373768535 0 7.4947681650717186 0 0 1 1 0 0 forward_v I I I I #
coedge $-1 $73 $74 $72 $75 reversed $29 $-1 #
face $-1 $76 $77 $17 $-1 $78 reversed single #
loop $-1 $-1 $79 $31 #
plane-surface $-1 0 0 -18.26859497016283 0 0 1 1 0 0 forward_v I I I I #
coedge $-1 $80 $81 $82 $83 forward $32 $-1 #
face $-1 $84 $85 $18 $-1 $86 reversed single #
loop $-1 $-1 $87 $34 #
plane-surface $-1 -35.792949559383167 -43.794641064295675 0.21434838972976422 0 -0.79863551827123203 0.60181501223851219 1 0 0 forward_v I I I I #
coedge $-1 $88 $89 $90 $91 reversed $35 $-1 #
face $-1 $-1 $92 $19 $-1 $93 forward single #
loop $-1 $94 $95 $37 #
cone-surface $-1 -35.792949559383167 -34.741488147856003 7.54542668352736 0 0.79863551827123203 -0.60181501223851219 0.5 0 0 1 I I -0.70710678118654691 0.70710678118654813 0.5 forward I I I I #
loop $-1 $-1 $96 $24 #
coedge $-1 $60 $60 $97 $98 reversed $38 $-1 #
face $-1 $99 $100 $15 $-1 $101 reversed single #
loop $-1 $-1 $67 $40 #
plane-surface $-1 0 0 -18.26859497016283 0 0 1 1 0 0 forward_v I I I I #
coedge $-1 $102 $103 $104 $105 forward $41 $-1 #
coedge $-1 $104 $43 $106 $107 reversed $26 $-1 #
coedge $-1 $43 $104 $108 $109 forward $26 $-1 #
coedge $-1 $110 $111 $43 $68 forward $62 $-1 #
edge $-1 $112 -43.794641064295675 $113 43.794641064295675 $43 $114 forward 7 unknown #
face $-1 $115 $116 $16 $-1 $117 reversed single #
loop $-1 $-1 $118 $44 #
plane-surface $-1 0 43.794641064295675 0 0 -1 0 0 0 -1 forward_v I I I I #
coedge $-1 $119 $120 $47 $75 forward $45 $-1 #
coedge $-1 $121 $47 $118 $122 reversed $29 $-1 #
coedge $-1 $47 $121 $123 $124 reversed $29 $-1 #
edge $-1 $125 -43.794641064295675 $126 43.794641064295675 $47 $127 forward 7 unknown #
face $-1 $128 $129 $17 $-1 $130 reversed single #
loop $-1 $-1 $82 $48 #
plane-surface $-1 77.393301362216306 -16.53442060993234 0 0 1 0 0 0 1 forward_v I I I I #
coedge $-1 $131 $132 $81 $133 forward $49 $-1 #
coedge $-1 $134 $51 $135 $136 reversed $32 $-1 #
coedge $-1 $51 $134 $79 $133 reversed $32 $-1 #
coedge $-1 $137 $138 $51 $83 reversed $77 $-1 #
edge $-1 $139 -18.26859497016283 $140 18.26859497016283 $82 $141 forward 7 unknown #
face $-1 $142 $143 $18 $-1 $144 forward single #
loop $-1 $-1 $145 $52 #
plane-surface $-1 0 -43.794641064295675 0 0 1 0 0 0 1 forward_v I I I I #
coedge $-1 $146 $147 $148 $149 reversed $53 $-1 #
coedge $-1 $89 $55 $150 $151 reversed $35 $-1 #
coedge $-1 $55 $88 $146 $152 reversed $35 $-1 #
coedge $-1 $148 $153 $55 $91 forward $143 $-1 #
edge $-1 $154 30.294401426081023 $155 43.899251671509717 $90 $156 forward 7 unknown #
loop $-1 $-1 $97 $56 #
plane-surface $-1 -35.792949559383167 -43.794641064295675 0.21434838972976422 0 -0.79863551827123203 0.60181501223851219 1 0 0 forward_v I I I I #
loop $-1 $-1 $157 $37 #
coedge $-1 $95 $95 $96 $158 reversed $57 $-1 #
coedge $-1 $96 $96 $95 $158 forward $59 $-1 #
coedge $-1 $97 $97 $60 $98 forward $92 $-1 #
edge $-1 $159 0 $159 6.2831853071796004 $97 $160 forward 7 unknown #
face $-1 $161 $162 $15 $-1 $163 reversed single #
loop $-1 $-1 $164 $61 #
plane-surface $-1 0 -43.794641064295675 0 0 1 0 0 0 1 forward_v I I I I #
coedge $-1 $165 $64 $166 $167 forward $41 $-1 #
coedge $-1 $64 $165 $168 $169 forward $41 $-1 #
coedge $-1 $66 $65 $64 $105 reversed $26 $-1 #
edge $-1 $170 -43.794641064295675 $171 43.794641064295675 $104 $172 forward 7 unknown #
coedge $-1 $173 $166 $65 $107 forward $174 $-1 #
edge $-1 $171 -18.26859497016283 $112 18.26859497016283 $65 $175 forward 7 unknown #
coedge $-1 $168 $176 $66 $109 reversed $100 $-1 #
edge $-1 $170 -18.26859497016283 $113 18.26859497016283 $66 $177 forward 7 unknown #
coedge $-1 $178 $67 $176 $179 forward $62 $-1 #
coedge $-1 $67 $178 $173 $180 forward $62 $-1 #
vertex $-1 $68 $181 #
vertex $-1 $109 $182 #
straight-curve $-1 65.351115451521338 0 -18.26859497016283 0 -1 0 I I #
face $-1 $183 $184 $16 $-1 $185 forward single #
loop $-1 $-1 $186 $69 #
plane-surface $-1 -65.351115451521338 0 0 1 0 0 0 0 -1 forward_v I I I I #
coedge $-1 $187 $188 $73 $122 forward $70 $-1 #
coedge $-1 $189 $72 $190 $191 reversed $45 $-1 #
coedge $-1 $72 $189 $187 $192 reversed $45 $-1 #
coedge $-1 $74 $73 $193 $194 reversed $29 $-1 #
edge $-1 $195 -11.827754186354193 $125 -1.0539273812630814 $118 $196 forward 7 unknown #
coedge $-1 $197 $190 $74 $124 forward $198 $-1 #
edge $-1 $126 1.0539273812630814 $199 11.827754186354193 $123 $200 forward 7 unknown #
vertex $-1 $192 $201 #
vertex $-1 $191 $202 #
straight-curve $-1 -45.709613296015732 0 7.4947681650717186 0 -1 0 I I #
face $-1 $203 $204 $17 $-1 $205 reversed single #
loop $-1 $-1 $206 $76 #
plane-surface $-1 77.393301362216306 -7.2574511239700161 0 0 -1 0 0 0 -1 forward_v I I I I #
coedge $-1 $207 $79 $208 $209 forward $49 $-1 #
coedge $-1 $79 $207 $137 $210 forward $49 $-1 #
edge $-1 $139 -16.53442060993234 $211 -7.2574511239700161 $79 $212 forward 7 unknown #
coedge $-1 $81 $80 $213 $214 forward $32 $-1 #
coedge $-1 $215 $216 $80 $136 forward $217 $-1 #
edge $-1 $218 7.2574511239700161 $140 16.53442060993234 $135 $219 forward 7 unknown #
coedge $-1 $220 $82 $132 $210 reversed $77 $-1 #
coedge $-1 $82 $220 $215 $221 reversed $77 $-1 #
vertex $-1 $133 $222 #
vertex $-1 $221 $223 #
straight-curve $-1 65.351115451521338 -16.53442060993234 0 0 0 1 I I #
face $-1 $-1 $224 $18 $-1 $225 forward single #
loop $-1 $-1 $90 $84 #
plane-surface $-1 0 0 18.26859497016283 0 0 1 1 0 0 forward_v I I I I #
coedge $-1 $226 $227 $228 $229 forward $85 $-1 #
coedge $-1 $230 $87 $89 $152 forward $53 $-1 #
coedge $-1 $87 $230 $231 $232 forward $53 $-1 #
coedge $-1 $233 $90 $87 $149 forward $143 $-1 #
edge $-1 $155 7.9798110430590192 $234 27.813138516324148 $148 $235 forward 7 unknown #
coedge $-1 $227 $226 $88 $151 forward $85 $-1 #
edge $-1 $236 -39.222108150392856 $154 -21.16786156995979 $150 $237 forward 7 unknown #
edge $-1 $155 -22.606365691716576 $236 0 $89 $238 forward 7 unknown #
coedge $-1 $90 $233 $227 $239 forward $143 $-1 #
vertex $-1 $91 $240 #
vertex $-1 $91 $241 #
straight-curve $-1 -25.876285822750603 -74.089042490376698 18.26859497016283 0 1 0 I I #
coedge $-1 $157 $157 $-1 $242 reversed $94 $-1 #
edge $-1 $243 0 $243 6.2831853071796004 $95 $244 forward 7 unknown #
vertex $-1 $98 $245 #
ellipse-curve $-1 -35.792949559383167 -36.992215941581328 9.2414716799462955 0 -0.79863551827123203 0.60181501223851219 1 0 0 1 I I #
face $-1 $-1 $174 $15 $-1 $246 reversed single #
loop $-1 $-1 $247 $99 #
plane-surface $-1 -65.351115451521338 0 0 1 0 0 0 0 -1 forward_v I I I I #
coedge $-1 $176 $168 $248 $249 forward $100 $-1 #
coedge $-1 $103 $102 $250 $251 forward $41 $-1 #
coedge $-1 $106 $252 $102 $167 reversed $174 $-1 #
edge $-1 $171 -65.351115451521338 $253 65.351115451521338 $166 $254 forward 7 unknown #
coedge $-1 $164 $108 $103 $169 reversed $100 $-1 #
edge $-1 $255 -65.351115451521338 $170 65.351115451521338 $168 $256 forward 7 unknown #
vertex $-1 $105 $257 #
vertex $-1 $105 $258 #
straight-curve $-1 65.351115451521338 0 18.26859497016283 0 1 0 I I #
coedge $-1 $252 $106 $111 $180 reversed $174 $-1 #
loop $-1 $-1 $106 $161 #
straight-curve $-1 65.351115451521338 43.794641064295675 0 0 0 -1 I I #
coedge $-1 $108 $164 $110 $179 reversed $100 $-1 #
straight-curve $-1 65.351115451521338 -43.794641064295675 0 0 0 -1 I I #
coedge $-1 $111 $110 $259 $260 forward $62 $-1 #
edge $-1 $113 -65.351115451521338 $261 65.351115451521338 $176 $262 forward 7 unknown #
edge $-1 $263 -65.351115451521338 $112 65.351115451521338 $173 $264 forward 7 unknown #
point $-1 65.351115451521338 43.794641064295675 -18.26859497016283 #
point $-1 65.351115451521338 -43.794641064295675 -18.26859497016283 #
face $-1 $-1 $198 $16 $-1 $265 reversed single #
loop $-1 $-1 $193 $115 #
plane-surface $-1 0 0 18.26859497016283 0 0 1 1 0 0 forward_v I I I I #
coedge $-1 $266 $267 $189 $268 forward $116 $-1 #
coedge $-1 $269 $118 $120 $192 forward $70 $-1 #
coedge $-1 $118 $269 $270 $271 reversed $70 $-1 #
coedge $-1 $120 $119 $186 $268 reversed $45 $-1 #
coedge $-1 $123 $272 $119 $191 forward $198 $-1 #
edge $-1 $273 -37.58593326463707 $126 -17.944431109131465 $190 $274 forward 7 unknown #
edge $-1 $125 17.944431109131465 $275 37.58593326463707 $187 $276 forward 7 unknown #
coedge $-1 $270 $277 $121 $194 forward $184 $-1 #
edge $-1 $199 -43.794641064295675 $195 43.794641064295675 $193 $278 forward 7 unknown #
vertex $-1 $271 $279 #
straight-curve $-1 -45.709613296015732 43.794641064295675 6.4408407838086372 0 0 -1 I I #
coedge $-1 $272 $123 $277 $280 reversed $198 $-1 #
loop $-1 $-1 $123 $183 #
vertex $-1 $124 $281 #
straight-curve $-1 -45.709613296015732 -43.794641064295675 6.4408407838086372 0 0 1 I I #
point $-1 -45.709613296015732 43.794641064295675 7.4947681650717186 #
point $-1 -45.709613296015732 -43.794641064295675 7.4947681650717186 #
face $-1 $-1 $217 $17 $-1 $282 forward single #
loop $-1 $-1 $283 $128 #
plane-surface $-1 89.435487272911274 -11.895935866951177 0 -1 0 0 0 0 1 forward_v I I I I #
coedge $-1 $208 $284 $285 $286 forward $129 $-1 #
coedge $-1 $132 $131 $287 $288 forward $49 $-1 #
coedge $-1 $213 $206 $131 $209 reversed $129 $-1 #
edge $-1 $211 -12.042185910694968 $289 12.042185910694968 $208 $290 forward 7 unknown #
edge $-1 $291 -12.042185910694968 $139 12.042185910694968 $137 $292 forward 7 unknown #
vertex $-1 $209 $293 #
straight-curve $-1 65.351115451521338 0 -18.26859497016283 0 1 0 I I #
coedge $-1 $284 $208 $134 $214 reversed $129 $-1 #
edge $-1 $218 -18.26859497016283 $211 18.26859497016283 $213 $294 forward 7 unknown #
coedge $-1 $295 $135 $138 $221 forward $217 $-1 #
coedge $-1 $135 $295 $284 $296 forward $217 $-1 #
loop $-1 $-1 $135 $203 #
vertex $-1 $136 $297 #
straight-curve $-1 65.351115451521338 0 18.26859497016283 0 -1 0 I I #
coedge $-1 $138 $137 $283 $298 reversed $77 $-1 #
edge $-1 $140 -12.042185910694968 $299 12.042185910694968 $138 $300 forward 7 unknown #
point $-1 65.351115451521338 -16.53442060993234 -18.26859497016283 #
point $-1 65.351115451521338 -16.53442060993234 18.26859497016283 #
loop $-1 $-1 $231 $142 #
plane-surface $-1 -45.709613296015732 0 12.881681567617274 -1 0 0 0 0 1 forward_v I I I I #
coedge $-1 $150 $145 $230 $301 forward $85 $-1 #
coedge $-1 $145 $150 $153 $239 reversed $85 $-1 #
coedge $-1 $302 $231 $145 $229 reversed $224 $-1 #
edge $-1 $303 21.16786156995979 $304 39.222108150392856 $145 $305 forward 7 unknown #
coedge $-1 $147 $146 $226 $301 reversed $53 $-1 #
coedge $-1 $228 $302 $147 $232 reversed $224 $-1 #
edge $-1 $304 0 $234 22.606365691716576 $231 $306 forward 7 unknown #
coedge $-1 $153 $148 $302 $307 forward $143 $-1 #
vertex $-1 $307 $308 #
straight-curve $-1 -17.896474779691584 -30.189790818866982 18.26859497016283 -1 0 0 I I #
vertex $-1 $151 $309 #
straight-curve $-1 -25.876285822750603 -43.794641064295675 39.43645654012262 0 0 1 I I #
straight-curve $-1 -25.876285822750603 -43.794641064295675 0.21434838972976422 0 -0.60181501223851219 -0.79863551827123203 I I #
edge $-1 $303 -45.709613296015732 $154 -25.876285822750603 $227 $310 forward 7 unknown #
point $-1 -25.876285822750603 -43.794641064295675 18.26859497016283 #
point $-1 -25.876285822750603 -30.189790818866982 18.26859497016283 #
edge $-1 $311 1 $311 0 $157 $-1 forward 7 unknown #
vertex $-1 $158 $312 #
ellipse-curve $-1 -35.792949559383167 -35.140805906991623 7.8463341896466163 0 -0.79863551827123203 0.60181501223851219 1 0 0 1 I I #
point $-1 -34.792949559383167 -36.992215941581328 9.2414716799462955 #
plane-surface $-1 0 43.794641064295675 0 0 -1 0 0 0 -1 forward_v I I I I #
coedge $-1 $259 $250 $252 $313 forward $162 $-1 #
coedge $-1 $250 $259 $164 $249 reversed $162 $-1 #
edge $-1 $255 -18.26859497016283 $261 18.26859497016283 $248 $314 forward 7 unknown #
coedge $-1 $247 $248 $165 $251 reversed $162 $-1 #
edge $-1 $253 -43.794641064295675 $255 43.794641064295675 $250 $315 forward 7 unknown #
coedge $-1 $166 $173 $247 $313 reversed $174 $-1 #
vertex $-1 $167 $316 #
straight-curve $-1 0 43.794641064295675 18.26859497016283 -1 0 0 I I #
vertex $-1 $251 $317 #
straight-curve $-1 0 -43.794641064295675 18.26859497016283 1 0 0 I I #
point $-1 65.351115451521338 -43.794641064295675 18.26859497016283 #
point $-1 65.351115451521338 43.794641064295675 18.26859497016283 #
coedge $-1 $248 $247 $178 $260 reversed $162 $-1 #
edge $-1 $261 -43.794641064295675 $263 43.794641064295675 $259 $318 forward 7 unknown #
vertex $-1 $260 $319 #
straight-curve $-1 0 -43.794641064295675 -18.26859497016283 -1 0 0 I I #
vertex $-1 $180 $320 #
straight-curve $-1 0 43.794641064295675 -18.26859497016283 1 0 0 I I #
plane-surface $-1 0 -43.794641064295675 0 0 1 0 0 0 1 forward_v I I I I #
coedge $-1 $321 $186 $272 $322 reversed $116 $-1 #
coedge $-1 $186 $321 $269 $323 forward $116 $-1 #
edge $-1 $275 -43.794641064295675 $273 43.794641064295675 $186 $324 forward 7 unknown #
coedge $-1 $188 $187 $267 $323 reversed $70 $-1 #
coedge $-1 $325 $193 $188 $271 forward $184 $-1 #
edge $-1 $195 45.709613296015732 $326 65.351115451521338 $188 $327 forward 7 unknown #
coedge $-1 $190 $197 $266 $322 forward $198 $-1 #
vertex $-1 $268 $328 #
straight-curve $-1 -27.765182186884267 -43.794641064295675 7.4947681650717186 1 0 0 I I #
vertex $-1 $268 $329 #
straight-curve $-1 -27.765182186884267 43.794641064295675 7.4947681650717186 -1 0 0 I I #
coedge $-1 $193 $325 $197 $280 forward $184 $-1 #
straight-curve $-1 -45.709613296015732 0 18.26859497016283 0 1 0 I I #
point $-1 -45.709613296015732 43.794641064295675 18.26859497016283 #
edge $-1 $330 -65.351115451521338 $199 -45.709613296015732 $197 $331 forward 7 unknown #
point $-1 -45.709613296015732 -43.794641064295675 18.26859497016283 #
plane-surface $-1 0 0 18.26859497016283 0 0 1 1 0 0 forward_v I I I I #
coedge $-1 $287 $332 $220 $298 forward $204 $-1 #
coedge $-1 $206 $213 $216 $296 reversed $129 $-1 #
coedge $-1 $332 $287 $206 $286 reversed $204 $-1 #
edge $-1 $333 -18.26859497016283 $289 18.26859497016283 $285 $334 forward 7 unknown #
coedge $-1 $285 $283 $207 $288 reversed $204 $-1 #
edge $-1 $289 -4.6384847429811611 $291 4.6384847429811629 $287 $335 forward 7 unknown #
vertex $-1 $288 $336 #
straight-curve $-1 77.393301362216306 -7.2574511239700161 -18.26859497016283 1 0 0 I I #
vertex $-1 $298 $337 #
straight-curve $-1 77.393301362216306 -16.53442060993234 -18.26859497016283 -1 0 0 I I #
point $-1 65.351115451521338 -7.2574511239700161 -18.26859497016283 #
straight-curve $-1 65.351115451521338 -7.2574511239700161 0 0 0 -1 I I #
coedge $-1 $216 $215 $332 $338 forward $217 $-1 #
edge $-1 $333 -12.042185910694968 $218 12.042185910694968 $284 $339 forward 7 unknown #
point $-1 65.351115451521338 -7.2574511239700161 18.26859497016283 #
edge $-1 $299 -18.26859497016283 $291 18.26859497016283 $283 $340 forward 7 unknown #
vertex $-1 $338 $341 #
straight-curve $-1 77.393301362216306 -16.53442060993234 18.26859497016283 1 0 0 I I #
edge $-1 $304 -27.813138516324148 $236 -7.9798110430590192 $226 $342 forward 7 unknown #
coedge $-1 $231 $228 $233 $307 reversed $224 $-1 #
vertex $-1 $239 $343 #
vertex $-1 $229 $344 #
straight-curve $-1 -45.709613296015732 -43.794641064295675 39.43645654012262 0 0 -1 I I #
straight-curve $-1 -45.709613296015732 -43.794641064295675 0.21434838972976422 0 0.60181501223851219 0.79863551827123203 I I #
edge $-1 $234 30.189790818866978 $303 43.794641064295675 $233 $345 forward 7 unknown #
point $-1 -45.709613296015732 -30.189790818866978 18.26859497016283 #
point $-1 -25.876285822750603 -43.794641064295675 0.21434838972976422 #
straight-curve $-1 0 -43.794641064295675 18.26859497016283 1 0 0 I I #
vertex $-1 $242 $346 #
point $-1 -34.792949559383167 -35.140805906991623 7.8463341896466163 #
edge $-1 $253 -18.26859497016283 $263 18.26859497016283 $252 $347 forward 7 unknown #
straight-curve $-1 -65.351115451521338 -43.794641064295675 0 0 0 -1 I I #
straight-curve $-1 -65.351115451521338 0 18.26859497016283 0 -1 0 I I #
point $-1 -65.351115451521338 43.794641064295675 18.26859497016283 #
point $-1 -65.351115451521338 -43.794641064295675 18.26859497016283 #
straight-curve $-1 -65.351115451521338 0 -18.26859497016283 0 1 0 I I #
point $-1 -65.351115451521338 -43.794641064295675 -18.26859497016283 #
point $-1 -65.351115451521338 43.794641064295675 -18.26859497016283 #
coedge $-1 $267 $266 $325 $348 reversed $116 $-1 #
edge $-1 $330 -18.26859497016283 $273 -7.4947681650717186 $266 $349 forward 7 unknown #
edge $-1 $326 -18.26859497016283 $275 -7.4947681650717186 $269 $350 forward 7 unknown #
straight-curve $-1 -65.351115451521338 0 7.4947681650717186 0 -1 0 I I #
coedge $-1 $277 $270 $321 $348 forward $184 $-1 #
vertex $-1 $271 $351 #
straight-curve $-1 0 43.794641064295675 18.26859497016283 -1 0 0 I I #
point $-1 -65.351115451521338 -43.794641064295675 7.4947681650717186 #
point $-1 -65.351115451521338 43.794641064295675 7.4947681650717186 #
vertex $-1 $348 $352 #
straight-curve $-1 0 -43.794641064295675 18.26859497016283 1 0 0 I I #
coedge $-1 $283 $285 $295 $338 reversed $204 $-1 #
vertex $-1 $338 $353 #
straight-curve $-1 89.435487272911274 -7.2574511239700161 0 0 0 -1 I I #
straight-curve $-1 89.435487272911274 -11.895935866951177 -18.26859497016283 0 -1 0 I I #
point $-1 89.435487272911274 -7.2574511239700161 -18.26859497016283 #
point $-1 89.435487272911274 -16.53442060993234 -18.26859497016283 #
edge $-1 $299 -4.6384847429811629 $333 4.6384847429811611 $332 $354 forward 7 unknown #
straight-curve $-1 77.393301362216306 -7.2574511239700161 18.26859497016283 -1 0 0 I I #
straight-curve $-1 89.435487272911274 -16.53442060993234 0 0 0 -1 I I #
point $-1 89.435487272911274 -16.53442060993234 18.26859497016283 #
straight-curve $-1 -17.896474779691584 -43.794641064295675 0.21434838972976106 1 0 0 I I #
point $-1 -45.709613296015732 -43.794641064295675 18.26859497016283 #
point $-1 -45.709613296015732 -43.794641064295675 0.21434838972976422 #
straight-curve $-1 -45.709613296015732 0 18.26859497016283 0 -1 0 I I #
point $-1 -35.792949559383167 -34.342170388720383 7.2445191774081037 #
straight-curve $-1 -65.351115451521338 43.794641064295675 0 0 0 -1 I I #
edge $-1 $326 -43.794641064295675 $330 43.794641064295675 $321 $355 forward 7 unknown #
straight-curve $-1 -65.351115451521338 -43.794641064295675 0 0 0 -1 I I #
straight-curve $-1 -65.351115451521338 43.794641064295675 0 0 0 -1 I I #
point $-1 -65.351115451521338 43.794641064295675 18.26859497016283 #
point $-1 -65.351115451521338 -43.794641064295675 18.26859497016283 #
point $-1 89.435487272911274 -7.2574511239700161 18.26859497016283 #
straight-curve $-1 89.435487272911274 -11.895935866951177 18.26859497016283 0 1 0 I I #
straight-curve $-1 -65.351115451521338 0 18.26859497016283 0 -1 0 I I #
End-of-ACIS-data 