500 0 7 0           
7 Unknown 11 ACIS 5.0 NT 24 Thu Mar 25 18:01:29 1999 
-1 9.9999999999999995e-007 1e-010 
body $-1 $7 $-1 $8 #
body $-1 $9 $-1 $10 #
body $-1 $11 $-1 $12 #
body $-1 $13 $-1 $14 #
body $-1 $15 $-1 $16 #
body $-1 $17 $-1 $18 #
body $-1 $19 $-1 $20 #
lump $-1 $-1 $21 $0 #
transform $-1 1 0 0 0 1 0 0 0 1 75.189062166203797 30.668335055315726 10.150585263890809 1 rotate no_reflect no_shear #
lump $-1 $-1 $22 $1 #
transform $-1 1 0 0 0 1 0 0 0 1 75.189062166203797 30.668335055315726 10.150585263890809 1 rotate no_reflect no_shear #
lump $-1 $-1 $23 $2 #
transform $-1 1 0 0 0 1 0 0 0 1 75.189062166203797 30.668335055315726 10.150585263890809 1 rotate no_reflect no_shear #
lump $-1 $-1 $24 $3 #
transform $-1 1 0 0 0 1 0 0 0 1 75.189062166203797 30.668335055315726 10.150585263890809 1 rotate no_reflect no_shear #
lump $-1 $-1 $25 $4 #
transform $-1 1 0 0 0 1 0 0 0 1 75.189062166203797 30.668335055315726 10.150585263890809 1 rotate no_reflect no_shear #
lump $-1 $-1 $26 $5 #
transform $-1 1 0 0 0 1 0 0 0 1 75.189062166203797 30.668335055315726 10.150585263890809 1 rotate no_reflect no_shear #
lump $-1 $-1 $27 $6 #
transform $-1 1 0 0 0 1 0 0 0 1 75.189062166203797 30.668335055315726 10.150585263890809 1 rotate no_reflect no_shear #
shell $-1 $-1 $-1 $28 $-1 $7 #
shell $-1 $-1 $-1 $29 $-1 $9 #
shell $-1 $-1 $-1 $30 $-1 $11 #
shell $-1 $-1 $-1 $31 $-1 $13 #
shell $-1 $-1 $-1 $32 $-1 $15 #
shell $-1 $-1 $-1 $33 $-1 $17 #
shell $-1 $-1 $-1 $34 $-1 $19 #
face $-1 $35 $36 $21 $-1 $37 forward single #
face $-1 $38 $39 $22 $-1 $40 reversed single #
face $-1 $41 $42 $23 $-1 $43 forward single #
face $-1 $44 $45 $24 $-1 $46 forward single #
face $-1 $47 $48 $25 $-1 $49 reversed single #
face $-1 $50 $51 $26 $-1 $52 forward single #
face $-1 $53 $54 $27 $-1 $55 forward single #
face $-1 $56 $57 $21 $-1 $58 reversed single #
loop $-1 $-1 $59 $28 #
plane-surface $-1 0 0 10.150585263890809 0 0 1 1 0 0 forward_v I I I I #
face $-1 $60 $61 $22 $-1 $62 reversed single #
loop $-1 $-1 $63 $29 #
plane-surface $-1 78.900611819274019 -6.8911174238492876 213.19544968981634 0 -1 0 -0.71933980857756763 0 -0.69465836192734942 forward_v I I I I #
face $-1 $64 $65 $23 $-1 $66 forward single #
loop $-1 $67 $68 $30 #
cone-surface $-1 70.074393533336746 -11.995397822406538 4.8880233043427257 -0.71933980857756763 0 -0.69465836192734942 0.34732918096367471 0 -0.35966990428878381 1 I I 0 1 0.5 forward I I I I #
face $-1 $69 $70 $24 $-1 $71 forward single #
loop $-1 $72 $73 $31 #
cone-surface $-1 70.074393533336746 -8.9328295832721878 4.8880233043427257 -0.71933980857756763 0 -0.69465836192734942 0.34732918096367471 0 -0.35966990428878381 1 I I 0 1 0.5 forward I I I I #
face $-1 $74 $75 $25 $-1 $76 reversed single #
loop $-1 $-1 $77 $32 #
plane-surface $-1 -193.68864248863312 -17.08523988872205 93.268116336225262 0 -1 0 0.78801076186113728 0 -0.61566146476048833 forward_v I I I I #
face $-1 $78 $79 $26 $-1 $80 forward single #
loop $-1 $81 $82 $33 #
cone-surface $-1 -70.915905745076941 -26.787450722003246 4.9683819985872146 0.78801076186113728 0 -0.61566146476048833 0.61566146476048833 0 0.78801076186113728 1 I I 0 1 1 forward I I I I #
face $-1 $83 $84 $27 $-1 $85 forward single #
loop $-1 $86 $87 $34 #
cone-surface $-1 -70.915905745076941 -20.96612422203453 4.9683819985872146 0.78801076186113728 0 -0.61566146476048833 0.61566146476048833 0 0.78801076186113728 1 I I 0 1 1 forward I I I I #
face $-1 $88 $89 $21 $-1 $90 reversed single #
loop $-1 $-1 $91 $35 #
plane-surface $-1 0 0 -10.150585263890809 0 0 1 1 0 0 forward_v I I I I #
coedge $-1 $92 $93 $94 $95 forward $36 $-1 #
face $-1 $96 $97 $22 $-1 $98 reversed single #
loop $-1 $-1 $99 $38 #
plane-surface $-1 -29.27235935225373 -10.464113702839363 108.7340281713588 0.71933980857756763 0 0.69465836192734942 0.69465836192734942 0 -0.71933980857756763 forward_v I I I I #
coedge $-1 $100 $101 $102 $103 reversed $39 $-1 #
face $-1 $-1 $104 $23 $-1 $105 forward single #
loop $-1 $106 $107 $41 #
cone-surface $-1 69.410139738574088 -11.995397822406538 4.2465608863426869 -0.71933980857756763 0 -0.69465836192734942 0.17366459048183736 0 -0.17983495214439191 1 I I -0.70710678118654746 0.70710678118654746 0.25 forward I I I I #
loop $-1 $-1 $108 $30 #
coedge $-1 $68 $68 $109 $110 reversed $42 $-1 #
face $-1 $-1 $111 $24 $-1 $112 forward single #
loop $-1 $113 $114 $44 #
cone-surface $-1 69.410139738574088 -8.9328295832721878 4.2465608863426869 -0.71933980857756763 0 -0.69465836192734942 0.17366459048183736 0 -0.17983495214439191 1 I I -0.70710678118654746 0.70710678118654746 0.25 forward I I I I #
loop $-1 $-1 $115 $31 #
coedge $-1 $73 $73 $116 $117 reversed $45 $-1 #
face $-1 $118 $119 $25 $-1 $120 reversed single #
loop $-1 $-1 $121 $47 #
plane-surface $-1 -75.189062166203783 -23.87678747201889 0.68610004180037265 -0.78801076186113728 0 0.61566146476048833 0.61566146476048833 0 0.78801076186113728 forward_v I I I I #
coedge $-1 $122 $123 $124 $125 reversed $48 $-1 #
face $-1 $-1 $126 $26 $-1 $127 forward single #
loop $-1 $128 $129 $50 #
cone-surface $-1 -69.94597697399621 -26.787450722003246 4.2105906119485947 0.78801076186113728 0 -0.61566146476048833 0.30783073238024417 0 0.39400538093056864 1 I I -0.70710678118654691 0.70710678118654813 0.5 forward I I I I #
loop $-1 $-1 $130 $33 #
coedge $-1 $82 $82 $131 $132 reversed $51 $-1 #
face $-1 $-1 $133 $27 $-1 $134 forward single #
loop $-1 $135 $136 $53 #
cone-surface $-1 -69.94597697399621 -20.96612422203453 4.2105906119485947 0.78801076186113728 0 -0.61566146476048833 0.30783073238024417 0 0.39400538093056864 1 I I -0.70710678118654691 0.70710678118654813 0.5 forward I I I I #
loop $-1 $-1 $137 $34 #
coedge $-1 $87 $87 $138 $139 reversed $54 $-1 #
face $-1 $140 $141 $21 $-1 $142 reversed single #
loop $-1 $-1 $143 $56 #
plane-surface $-1 0 -30.668335055315726 0 0 1 0 0 0 1 forward_v I I I I #
coedge $-1 $144 $145 $146 $147 forward $57 $-1 #
coedge $-1 $148 $59 $149 $150 forward $36 $-1 #
coedge $-1 $59 $148 $151 $152 forward $36 $-1 #
coedge $-1 $153 $154 $59 $95 reversed $155 $-1 #
edge $-1 $156 -30.668335055315726 $157 30.668335055315726 $94 $158 forward 7 unknown #
face $-1 $159 $160 $22 $-1 $161 forward single #
loop $-1 $-1 $162 $60 #
plane-surface $-1 78.900611819274019 -14.037109981829438 213.19544968981634 0 1 0 0.71933980857756763 0 0.69465836192734942 forward_v I I I I #
coedge $-1 $163 $164 $165 $166 reversed $61 $-1 #
coedge $-1 $101 $63 $167 $168 reversed $39 $-1 #
coedge $-1 $63 $100 $163 $169 reversed $39 $-1 #
coedge $-1 $165 $170 $63 $103 forward $160 $-1 #
edge $-1 $171 -35.738756256566788 $172 -26.478256676069236 $102 $173 forward 7 unknown #
loop $-1 $-1 $109 $64 #
plane-surface $-1 -29.27235935225373 -10.464113702839363 108.7340281713588 0.71933980857756763 0 0.69465836192734942 0.69465836192734942 0 -0.71933980857756763 forward_v I I I I #
loop $-1 $-1 $174 $41 #
coedge $-1 $107 $107 $108 $175 reversed $65 $-1 #
coedge $-1 $108 $108 $107 $175 forward $67 $-1 #
coedge $-1 $109 $109 $68 $110 forward $104 $-1 #
edge $-1 $176 0 $176 6.2831853071796004 $109 $177 forward 7 unknown #
loop $-1 $-1 $116 $69 #
plane-surface $-1 -29.27235935225373 -10.464113702839363 108.7340281713588 0.71933980857756763 0 0.69465836192734942 0.69465836192734942 0 -0.71933980857756763 forward_v I I I I #
loop $-1 $-1 $178 $44 #
coedge $-1 $114 $114 $115 $179 reversed $70 $-1 #
coedge $-1 $115 $115 $114 $179 forward $72 $-1 #
coedge $-1 $116 $116 $73 $117 forward $111 $-1 #
edge $-1 $180 0 $180 6.2831853071796004 $116 $181 forward 7 unknown #
face $-1 $182 $183 $25 $-1 $184 forward single #
loop $-1 $-1 $185 $74 #
plane-surface $-1 0 -30.668335055315726 0 0 1 0 0 0 1 forward_v I I I I #
coedge $-1 $186 $187 $188 $189 reversed $75 $-1 #
coedge $-1 $123 $77 $190 $191 reversed $48 $-1 #
coedge $-1 $77 $122 $186 $192 reversed $48 $-1 #
coedge $-1 $188 $193 $77 $125 forward $194 $-1 #
edge $-1 $195 36.48347290422182 $196 45.94795812631228 $124 $197 forward 7 unknown #
loop $-1 $-1 $131 $78 #
plane-surface $-1 -75.189062166203783 -23.87678747201889 0.68610004180037265 -0.78801076186113728 0 0.61566146476048833 0.61566146476048833 0 0.78801076186113728 forward_v I I I I #
loop $-1 $-1 $198 $50 #
coedge $-1 $129 $129 $130 $199 reversed $79 $-1 #
coedge $-1 $130 $130 $129 $199 forward $81 $-1 #
coedge $-1 $131 $131 $82 $132 forward $126 $-1 #
edge $-1 $200 0 $200 6.2831853071796004 $131 $201 forward 7 unknown #
loop $-1 $-1 $138 $83 #
plane-surface $-1 -75.189062166203783 -23.87678747201889 0.68610004180037265 -0.78801076186113728 0 0.61566146476048833 0.61566146476048833 0 0.78801076186113728 forward_v I I I I #
loop $-1 $-1 $202 $53 #
coedge $-1 $136 $136 $137 $203 reversed $84 $-1 #
coedge $-1 $137 $137 $136 $203 forward $86 $-1 #
coedge $-1 $138 $138 $87 $139 forward $133 $-1 #
edge $-1 $204 0 $204 6.2831853071796004 $138 $205 forward 7 unknown #
face $-1 $206 $207 $21 $-1 $208 reversed single #
loop $-1 $-1 $209 $88 #
plane-surface $-1 -75.189062166203797 0 0 1 0 0 0 0 -1 forward_v I I I I #
coedge $-1 $210 $151 $211 $212 forward $89 $-1 #
coedge $-1 $213 $91 $210 $214 forward $57 $-1 #
coedge $-1 $91 $213 $215 $216 forward $57 $-1 #
coedge $-1 $154 $153 $91 $147 reversed $155 $-1 #
edge $-1 $217 -30.668335055315726 $218 30.668335055315726 $146 $219 forward 7 unknown #
coedge $-1 $93 $92 $220 $221 forward $36 $-1 #
coedge $-1 $222 $223 $92 $150 reversed $207 $-1 #
edge $-1 $157 -75.189062166203797 $224 75.189062166203797 $149 $225 forward 7 unknown #
coedge $-1 $143 $226 $93 $152 reversed $89 $-1 #
edge $-1 $227 -75.189062166203797 $156 75.189062166203797 $151 $228 forward 7 unknown #
coedge $-1 $146 $94 $226 $229 forward $155 $-1 #
coedge $-1 $94 $146 $222 $230 reversed $155 $-1 #
loop $-1 $-1 $153 $206 #
vertex $-1 $95 $231 #
vertex $-1 $95 $232 #
straight-curve $-1 75.189062166203797 0 10.150585263890809 0 1 0 I I #
face $-1 $-1 $233 $22 $-1 $234 reversed single #
loop $-1 $-1 $102 $96 #
plane-surface $-1 0 0 10.150585263890809 0 0 1 1 0 0 forward_v I I I I #
coedge $-1 $235 $236 $237 $238 reversed $97 $-1 #
coedge $-1 $239 $99 $101 $169 forward $61 $-1 #
coedge $-1 $99 $239 $235 $240 forward $61 $-1 #
coedge $-1 $237 $102 $99 $166 forward $160 $-1 #
edge $-1 $172 1.6590605724296061 $241 8.8050531304097568 $165 $242 forward 7 unknown #
coedge $-1 $243 $244 $100 $168 forward $233 $-1 #
edge $-1 $245 -106.03666784507709 $171 -96.447139581017368 $167 $246 forward 7 unknown #
edge $-1 $172 137.04711143737234 $245 150.37812433240757 $101 $247 forward 7 unknown #
coedge $-1 $102 $237 $243 $248 forward $160 $-1 #
vertex $-1 $168 $249 #
vertex $-1 $103 $250 #
straight-curve $-1 39.450305909637009 -6.8911174238492876 10.150585263890804 -1 0 0 I I #
coedge $-1 $174 $174 $-1 $251 reversed $106 $-1 #
edge $-1 $252 0 $252 6.2831853071796004 $107 $253 forward 7 unknown #
vertex $-1 $110 $254 #
ellipse-curve $-1 70.558812375955029 -11.995397822406538 5.3558211318609432 0.71933980857756763 0 0.69465836192734942 0.34732918096367471 0 -0.35966990428878381 1 I I #
coedge $-1 $178 $178 $-1 $255 reversed $113 $-1 #
edge $-1 $256 0 $256 6.2831853071796004 $114 $257 forward 7 unknown #
vertex $-1 $117 $258 #
ellipse-curve $-1 70.558812375955029 -8.9328295832721878 5.3558211318609432 0.71933980857756763 0 0.69465836192734942 0.34732918096367471 0 -0.35966990428878381 1 I I #
face $-1 $-1 $194 $25 $-1 $259 reversed single #
loop $-1 $-1 $260 $118 #
plane-surface $-1 0 0 10.150585263890809 0 0 1 1 0 0 forward_v I I I I #
coedge $-1 $261 $262 $187 $263 forward $119 $-1 #
coedge $-1 $264 $121 $123 $192 forward $75 $-1 #
coedge $-1 $121 $264 $185 $263 reversed $75 $-1 #
coedge $-1 $265 $124 $121 $189 forward $194 $-1 #
edge $-1 $196 5.1468461527126053 $266 18.729941319306281 $188 $267 forward 7 unknown #
coedge $-1 $268 $260 $122 $191 forward $183 $-1 #
edge $-1 $269 -29.049725140066144 $195 -21.655259078112763 $190 $270 forward 7 unknown #
edge $-1 $196 -2.3096905769578348e-014 $269 12.010604017306889 $123 $271 forward 7 unknown #
coedge $-1 $124 $265 $268 $272 reversed $194 $-1 #
loop $-1 $-1 $188 $182 #
vertex $-1 $272 $273 #
vertex $-1 $125 $274 #
straight-curve $-1 -75.189062166203797 -17.08523988872205 46.634058168112631 0 0 -1 I I #
coedge $-1 $198 $198 $-1 $275 reversed $128 $-1 #
edge $-1 $276 0 $276 6.2831853071796004 $129 $277 forward 7 unknown #
vertex $-1 $132 $278 #
ellipse-curve $-1 -71.491829135227107 -26.787450722003246 5.4183426528455865 -0.78801076186113728 0 0.61566146476048833 0.61566146476048833 0 0.78801076186113728 1 I I #
coedge $-1 $202 $202 $-1 $279 reversed $135 $-1 #
edge $-1 $280 0 $280 6.2831853071796004 $136 $281 forward 7 unknown #
vertex $-1 $139 $282 #
ellipse-curve $-1 -71.491829135227107 -20.96612422203453 5.4183426528455865 -0.78801076186113728 0 0.61566146476048833 0.61566146476048833 0 0.78801076186113728 1 I I #
face $-1 $-1 $155 $21 $-1 $283 reversed single #
loop $-1 $-1 $222 $140 #
plane-surface $-1 0 30.668335055315726 0 0 -1 0 0 0 -1 forward_v I I I I #
coedge $-1 $284 $220 $223 $285 forward $141 $-1 #
coedge $-1 $226 $143 $144 $214 reversed $89 $-1 #
coedge $-1 $220 $284 $143 $212 reversed $141 $-1 #
edge $-1 $227 -10.150585263890809 $286 10.150585263890809 $211 $287 forward 7 unknown #
coedge $-1 $145 $144 $284 $288 forward $57 $-1 #
edge $-1 $218 -75.189062166203797 $286 75.189062166203797 $210 $289 forward 7 unknown #
coedge $-1 $223 $222 $145 $216 reversed $207 $-1 #
edge $-1 $290 -75.189062166203797 $217 75.189062166203797 $215 $291 forward 7 unknown #
vertex $-1 $147 $292 #
vertex $-1 $229 $293 #
straight-curve $-1 75.189062166203797 0 -10.150585263890809 0 -1 0 I I #
coedge $-1 $209 $211 $148 $221 reversed $141 $-1 #
edge $-1 $224 -30.668335055315726 $227 30.668335055315726 $220 $294 forward 7 unknown #
coedge $-1 $215 $149 $154 $230 forward $207 $-1 #
coedge $-1 $149 $215 $209 $285 reversed $207 $-1 #
vertex $-1 $150 $295 #
straight-curve $-1 0 30.668335055315726 10.150585263890809 -1 0 0 I I #
coedge $-1 $151 $210 $153 $229 reversed $89 $-1 #
vertex $-1 $221 $296 #
straight-curve $-1 0 -30.668335055315726 10.150585263890809 1 0 0 I I #
edge $-1 $156 -10.150585263890809 $218 10.150585263890809 $153 $297 forward 7 unknown #
edge $-1 $157 -10.150585263890809 $217 10.150585263890809 $154 $298 forward 7 unknown #
point $-1 75.189062166203797 -30.668335055315726 10.150585263890809 #
point $-1 75.189062166203797 30.668335055315726 10.150585263890809 #
loop $-1 $-1 $167 $159 #
plane-surface $-1 75.189062166203797 0 0 -1 0 0 0 0 1 forward_v I I I I #
coedge $-1 $236 $162 $164 $240 reversed $97 $-1 #
coedge $-1 $162 $235 $299 $300 reversed $97 $-1 #
coedge $-1 $170 $165 $162 $238 forward $160 $-1 #
edge $-1 $241 26.478256676069236 $301 35.738756256566788 $237 $302 forward 7 unknown #
coedge $-1 $164 $163 $244 $303 reversed $61 $-1 #
edge $-1 $304 -150.37812433240757 $241 -137.04711143737234 $235 $305 forward 7 unknown #
vertex $-1 $166 $306 #
straight-curve $-1 65.92856258570626 -5.2320568514196815 10.150585263890818 0 -1 0 I I #
coedge $-1 $299 $167 $170 $248 reversed $233 $-1 #
coedge $-1 $167 $299 $239 $303 forward $233 $-1 #
vertex $-1 $168 $307 #
straight-curve $-1 75.189062166203797 -6.8911174238492876 106.59772484490817 0 0 1 I I #
straight-curve $-1 -29.27235935225373 -6.8911174238492876 108.7340281713588 0.69465836192734942 0 -0.71933980857756763 I I #
edge $-1 $301 -14.037109981829438 $171 -6.8911174238492876 $243 $308 forward 7 unknown #
point $-1 75.189062166203797 -6.8911174238492876 10.150585263890809 #
point $-1 65.928562585706246 -6.8911174238492876 10.150585263890804 #
edge $-1 $309 1 $309 0 $174 $-1 forward 7 unknown #
vertex $-1 $175 $310 #
ellipse-curve $-1 69.589974690718478 -11.995397822406538 4.4202254768245242 0.71933980857756763 0 0.69465836192734942 0.34732918096367471 0 -0.35966990428878381 1 I I #
point $-1 70.906141556918683 -11.995397822406538 4.9961512275721427 #
edge $-1 $311 1 $311 0 $178 $-1 forward 7 unknown #
vertex $-1 $179 $312 #
ellipse-curve $-1 69.589974690718478 -8.9328295832721878 4.4202254768245242 0.71933980857756763 0 0.69465836192734942 0.34732918096367471 0 -0.35966990428878381 1 I I #
point $-1 70.906141556918683 -8.9328295832721878 4.9961512275721427 #
plane-surface $-1 -75.189062166203797 0 0 1 0 0 0 0 -1 forward_v I I I I #
coedge $-1 $190 $313 $264 $314 forward $183 $-1 #
coedge $-1 $262 $185 $313 $315 reversed $119 $-1 #
coedge $-1 $185 $261 $265 $316 forward $119 $-1 #
edge $-1 $266 -22.875176965280204 $317 -10.86457294797329 $185 $318 forward 7 unknown #
coedge $-1 $187 $186 $260 $314 reversed $75 $-1 #
coedge $-1 $193 $188 $262 $316 reversed $194 $-1 #
vertex $-1 $263 $319 #
straight-curve $-1 -75.189062166203797 -11.938393736009445 0.68610004180037221 0 -1 0 I I #
coedge $-1 $313 $190 $193 $272 forward $183 $-1 #
vertex $-1 $191 $320 #
straight-curve $-1 -96.844321244316561 -17.08523988872205 10.150585263890811 -1 0 0 I I #
straight-curve $-1 -75.189062166203783 -17.08523988872205 0.68610004180037265 0.61566146476048833 0 0.78801076186113728 I I #
edge $-1 $195 17.08523988872205 $321 30.668335055315726 $193 $322 forward 7 unknown #
point $-1 -75.189062166203797 -17.08523988872205 10.150585263890809 #
point $-1 -75.189062166203797 -17.08523988872205 0.68610004180035444 #
edge $-1 $323 1 $323 0 $198 $-1 forward 7 unknown #
vertex $-1 $199 $324 #
ellipse-curve $-1 -70.339982354926775 -26.787450722003246 4.5184213443288392 -0.78801076186113728 0 0.61566146476048833 0.61566146476048833 0 0.78801076186113728 1 I I #
point $-1 -70.876167670466629 -26.787450722003246 6.2063534147067259 #
edge $-1 $325 1 $325 0 $202 $-1 forward 7 unknown #
vertex $-1 $203 $326 #
ellipse-curve $-1 -70.339982354926775 -20.96612422203453 4.5184213443288392 -0.78801076186113728 0 0.61566146476048833 0.61566146476048833 0 0.78801076186113728 1 I I #
point $-1 -70.876167670466629 -20.96612422203453 6.2063534147067259 #
plane-surface $-1 75.189062166203797 0 0 -1 0 0 0 0 1 forward_v I I I I #
coedge $-1 $211 $209 $213 $288 reversed $141 $-1 #
edge $-1 $224 -10.150585263890809 $290 10.150585263890809 $223 $327 forward 7 unknown #
vertex $-1 $288 $328 #
straight-curve $-1 -75.189062166203797 -30.668335055315726 0 0 0 -1 I I #
edge $-1 $286 -30.668335055315726 $290 30.668335055315726 $284 $329 forward 7 unknown #
straight-curve $-1 0 -30.668335055315726 -10.150585263890809 -1 0 0 I I #
vertex $-1 $216 $330 #
straight-curve $-1 0 30.668335055315726 -10.150585263890809 1 0 0 I I #
point $-1 75.189062166203797 30.668335055315726 -10.150585263890809 #
point $-1 75.189062166203797 -30.668335055315726 -10.150585263890809 #
straight-curve $-1 -75.189062166203797 0 10.150585263890809 0 -1 0 I I #
point $-1 -75.189062166203797 30.668335055315726 10.150585263890809 #
point $-1 -75.189062166203797 -30.668335055315726 10.150585263890809 #
straight-curve $-1 75.189062166203797 -30.668335055315726 0 0 0 -1 I I #
straight-curve $-1 75.189062166203797 30.668335055315726 0 0 0 -1 I I #
coedge $-1 $244 $243 $236 $300 forward $233 $-1 #
edge $-1 $301 96.447139581017368 $304 106.03666784507709 $299 $331 forward 7 unknown #
vertex $-1 $248 $332 #
straight-curve $-1 39.450305909637009 -14.037109981829438 10.150585263890804 1 0 0 I I #
edge $-1 $304 -8.8050531304097568 $245 -1.6590605724296061 $244 $333 forward 7 unknown #
vertex $-1 $303 $334 #
straight-curve $-1 -29.27235935225373 -14.037109981829438 108.7340281713588 -0.69465836192734942 0 0.71933980857756763 I I #
point $-1 65.928562585706246 -14.037109981829438 10.150585263890804 #
point $-1 75.189062166203797 -6.8911174238492876 0.56105699983108082 #
straight-curve $-1 75.189062166203797 0 10.150585263890809 0 1 0 I I #
vertex $-1 $251 $335 #
point $-1 69.937303871682161 -11.995397822406538 4.0605555725357405 #
vertex $-1 $255 $336 #
point $-1 69.937303871682161 -8.9328295832721878 4.0605555725357405 #
coedge $-1 $260 $268 $261 $315 forward $183 $-1 #
edge $-1 $317 -18.729941319306285 $269 -5.1468461527126053 $260 $337 forward 7 unknown #
edge $-1 $321 -75.189062166203797 $317 -67.794596104250417 $261 $338 forward 7 unknown #
edge $-1 $321 -10.150585263890809 $266 -0.68610004180035444 $265 $339 forward 7 unknown #
vertex $-1 $263 $340 #
straight-curve $-1 -61.105697209104008 -30.668335055315726 18.711985669919148 0.61566146476048833 0 0.78801076186113728 I I #
point $-1 -75.189062166203797 -30.668335055315726 0.68610004180035444 #
point $-1 -67.794596104250417 -17.08523988872205 10.150585263890809 #
vertex $-1 $272 $341 #
straight-curve $-1 -75.189062166203797 0 10.150585263890809 0 -1 0 I I #
vertex $-1 $275 $342 #
point $-1 -69.724320890166297 -26.787450722003246 5.3064321061899768 #
vertex $-1 $279 $343 #
point $-1 -69.724320890166297 -20.96612422203453 5.3064321061899768 #
straight-curve $-1 -75.189062166203797 30.668335055315726 0 0 0 -1 I I #
point $-1 -75.189062166203797 -30.668335055315726 -10.150585263890809 #
straight-curve $-1 -75.189062166203797 0 -10.150585263890809 0 1 0 I I #
point $-1 -75.189062166203797 30.668335055315726 -10.150585263890809 #
straight-curve $-1 75.189062166203797 -14.037109981829438 106.59772484490817 0 0 -1 I I #
point $-1 75.189062166203797 -14.037109981829438 10.150585263890809 #
straight-curve $-1 75.189062166203797 -5.2320568514196815 0.56105699983108082 0 1 0 I I #
point $-1 75.189062166203797 -14.037109981829438 0.56105699983108082 #
point $-1 69.230304786429699 -11.995397822406538 4.0728962958608497 #
point $-1 69.230304786429699 -8.9328295832721878 4.0728962958608497 #
straight-curve $-1 -67.794596104250417 -11.938393736009445 10.150585263890809 0 1 0 I I #
straight-curve $-1 0 -30.668335055315726 10.150585263890809 1 0 0 I I #
straight-curve $-1 -75.189062166203797 -30.668335055315726 0 0 0 -1 I I #
point $-1 -67.794596104250417 -30.66833505531573 10.150585263890809 #
point $-1 -75.189062166203797 -30.668335055315726 10.150585263890809 #
point $-1 -69.551971593065645 -26.787450722003246 3.9027598795683502 #
point $-1 -69.551971593065645 -20.96612422203453 3.9027598795683502 #
End-of-ACIS-data 