500 0 16 0           
7 Unknown 11 ACIS 5.0 NT 24 Thu Mar 25 18:28:54 1999 
-1 9.9999999999999995e-007 1e-010 
body $-1 $16 $-1 $17 #
body $-1 $18 $-1 $19 #
body $-1 $20 $-1 $21 #
body $-1 $22 $-1 $23 #
body $-1 $24 $-1 $25 #
body $-1 $26 $-1 $27 #
body $-1 $28 $-1 $29 #
body $-1 $30 $-1 $31 #
body $-1 $32 $-1 $33 #
body $-1 $34 $-1 $35 #
body $-1 $36 $-1 $37 #
body $-1 $38 $-1 $39 #
body $-1 $40 $-1 $41 #
body $-1 $42 $-1 $43 #
body $-1 $44 $-1 $45 #
body $-1 $46 $-1 $47 #
lump $-1 $-1 $48 $0 #
transform $-1 1 0 0 0 1 0 0 0 1 50.22614215521714 31.464799580760786 8.4901280402019257 1 rotate no_reflect no_shear #
lump $-1 $-1 $49 $1 #
transform $-1 1 0 0 0 1 0 0 0 1 3.2620156548393857 31.464799580760786 6.4852284239492839 1 rotate no_reflect no_shear #
lump $-1 $-1 $50 $2 #
transform $-1 1 0 0 0 0.76604443648966558 -0.64278761758704617 0 0.64278761758704617 0.76604443648966558 26.699130808206206 79.292214346393905 129.88011647871849 1 rotate no_reflect no_shear #
lump $-1 $-1 $51 $3 #
transform $-1 1 0 0 0 -0.76604443648966558 0.64278761758704617 0 -0.64278761758704617 -0.76604443648966558 21.968647160563421 56.224431226002807 9.9352689942249484 1 rotate no_reflect no_shear #
lump $-1 $-1 $52 $4 #
transform $-1 1 0 0 0 -0.76604443648966558 0.64278761758704617 0 -0.64278761758704617 -0.76604443648966558 31.429614455848984 56.224431226002807 9.9352689942249484 1 rotate no_reflect no_shear #
lump $-1 $-1 $53 $5 #
transform $-1 1 0 0 0 0.76604443648966558 -0.64278761758704617 0 0.64278761758704617 0.76604443648966558 73.663257308583951 79.292214346393905 129.88011647871849 1 rotate no_reflect no_shear #
lump $-1 $-1 $54 $6 #
transform $-1 1 0 0 0 -0.76604443648966558 0.64278761758704617 0 -0.64278761758704617 -0.76604443648966558 68.932773660941166 56.224431226002807 9.9352689942249484 1 rotate no_reflect no_shear #
lump $-1 $-1 $55 $7 #
transform $-1 1 0 0 0 -0.76604443648966558 0.64278761758704617 0 -0.64278761758704617 -0.76604443648966558 78.393740956226736 56.224431226002807 9.9352689942249484 1 rotate no_reflect no_shear #
lump $-1 $-1 $56 $8 #
transform $-1 1 0 0 0 0.61566146476048833 0.78801076186113728 0 -0.78801076186113728 0.61566146476048833 20.397293281482117 -79.157481090156892 75.725499116403583 1 rotate no_reflect no_shear #
lump $-1 $-1 $57 $9 #
transform $-1 1 0 0 0 -0.61566146476048833 -0.78801076186113728 0 0.78801076186113728 -0.61566146476048833 20.397293281482117 2.5410734914821997 14.391208259236995 1 rotate no_reflect no_shear #
lump $-1 $-1 $58 $10 #
transform $-1 1 0 0 0 0.61566146476048833 0.78801076186113728 0 -0.78801076186113728 0.61566146476048833 42.457869633865059 -79.157481090156892 75.725499116403583 1 rotate no_reflect no_shear #
lump $-1 $-1 $59 $11 #
transform $-1 1 0 0 0 -0.61566146476048833 -0.78801076186113728 0 0.78801076186113728 -0.61566146476048833 42.457869633865059 2.5410734914821997 14.391208259236995 1 rotate no_reflect no_shear #
lump $-1 $-1 $60 $12 #
transform $-1 1 0 0 0 0.61566146476048833 0.78801076186113728 0 -0.78801076186113728 0.61566146476048833 64.518445986247997 -79.157481090156892 75.725499116403583 1 rotate no_reflect no_shear #
lump $-1 $-1 $61 $13 #
transform $-1 1 0 0 0 -0.61566146476048833 -0.78801076186113728 0 0.78801076186113728 -0.61566146476048833 64.518445986247997 2.5410734914821997 14.391208259236995 1 rotate no_reflect no_shear #
lump $-1 $-1 $62 $14 #
transform $-1 1 0 0 0 0.61566146476048833 0.78801076186113728 0 -0.78801076186113728 0.61566146476048833 86.579022338630935 -79.157481090156892 75.725499116403583 1 rotate no_reflect no_shear #
lump $-1 $-1 $63 $15 #
transform $-1 1 0 0 0 -0.61566146476048833 -0.78801076186113728 0 0.78801076186113728 -0.61566146476048833 86.579022338630935 2.5410734914821997 14.391208259236995 1 rotate no_reflect no_shear #
shell $-1 $-1 $-1 $64 $-1 $16 #
shell $-1 $-1 $-1 $65 $-1 $18 #
shell $-1 $-1 $-1 $66 $-1 $20 #
shell $-1 $-1 $-1 $67 $-1 $22 #
shell $-1 $-1 $-1 $68 $-1 $24 #
shell $-1 $-1 $-1 $69 $-1 $26 #
shell $-1 $-1 $-1 $70 $-1 $28 #
shell $-1 $-1 $-1 $71 $-1 $30 #
shell $-1 $-1 $-1 $72 $-1 $32 #
shell $-1 $-1 $-1 $73 $-1 $34 #
shell $-1 $-1 $-1 $74 $-1 $36 #
shell $-1 $-1 $-1 $75 $-1 $38 #
shell $-1 $-1 $-1 $76 $-1 $40 #
shell $-1 $-1 $-1 $77 $-1 $42 #
shell $-1 $-1 $-1 $78 $-1 $44 #
shell $-1 $-1 $-1 $79 $-1 $46 #
face $-1 $80 $81 $48 $-1 $82 forward single #
face $-1 $83 $84 $49 $-1 $85 forward single #
face $-1 $86 $87 $50 $-1 $88 forward single #
face $-1 $89 $90 $51 $-1 $91 forward single #
face $-1 $92 $93 $52 $-1 $94 forward single #
face $-1 $95 $96 $53 $-1 $97 forward single #
face $-1 $98 $99 $54 $-1 $100 forward single #
face $-1 $101 $102 $55 $-1 $103 forward single #
face $-1 $104 $105 $56 $-1 $106 forward single #
face $-1 $107 $108 $57 $-1 $109 forward single #
face $-1 $110 $111 $58 $-1 $112 forward single #
face $-1 $113 $114 $59 $-1 $115 forward single #
face $-1 $116 $117 $60 $-1 $118 forward single #
face $-1 $119 $120 $61 $-1 $121 forward single #
face $-1 $122 $123 $62 $-1 $124 forward single #
face $-1 $125 $126 $63 $-1 $127 forward single #
face $-1 $128 $129 $48 $-1 $130 reversed single #
loop $-1 $-1 $131 $64 #
plane-surface $-1 0 0 8.4901280402019257 0 0 1 1 0 0 forward_v I I I I #
face $-1 $132 $133 $49 $-1 $134 reversed single #
loop $-1 $-1 $135 $65 #
plane-surface $-1 0 0 1.7749541951901375 0 0 1 1 0 0 forward_v I I I I #
face $-1 $136 $137 $50 $-1 $138 reversed single #
loop $-1 $-1 $139 $66 #
plane-surface $-1 0 0 100.45228431043428 0 0 1 1 0 0 forward_v I I I I #
face $-1 $140 $141 $51 $-1 $142 forward single #
loop $-1 $143 $144 $67 #
cone-surface $-1 0 0 -3.5042420728171635 0 0 1 1.5 0 0 1 I I 0 1 1.5 forward I I I I #
face $-1 $145 $146 $52 $-1 $147 forward single #
loop $-1 $148 $149 $68 #
cone-surface $-1 0 0 -3.5042420728171635 0 0 1 1.5 0 0 1 I I 0 1 1.5 forward I I I I #
face $-1 $150 $151 $53 $-1 $152 reversed single #
loop $-1 $-1 $153 $69 #
plane-surface $-1 0 0 100.45228431043428 0 0 1 1 0 0 forward_v I I I I #
face $-1 $154 $155 $54 $-1 $156 forward single #
loop $-1 $157 $158 $70 #
cone-surface $-1 0 0 -3.5042420728171635 0 0 1 1.5 0 0 1 I I 0 1 1.5 forward I I I I #
face $-1 $159 $160 $55 $-1 $161 forward single #
loop $-1 $162 $163 $71 #
cone-surface $-1 0 0 -3.5042420728171635 0 0 1 1.5 0 0 1 I I 0 1 1.5 forward I I I I #
face $-1 $164 $165 $56 $-1 $166 reversed single #
loop $-1 $-1 $167 $72 #
plane-surface $-1 0 0 100.45228431043428 0 0 1 1 0 0 forward_v I I I I #
face $-1 $168 $169 $57 $-1 $170 forward single #
loop $-1 $171 $172 $73 #
cone-surface $-1 0 0 -0.96910763878292272 0 0 1 0.5 0 0 1 I I 0 1 0.5 forward I I I I #
face $-1 $173 $174 $58 $-1 $175 reversed single #
loop $-1 $-1 $176 $74 #
plane-surface $-1 0 0 100.45228431043428 0 0 1 1 0 0 forward_v I I I I #
face $-1 $177 $178 $59 $-1 $179 forward single #
loop $-1 $180 $181 $75 #
cone-surface $-1 0 0 -0.96910763878292272 0 0 1 0.5 0 0 1 I I 0 1 0.5 forward I I I I #
face $-1 $182 $183 $60 $-1 $184 reversed single #
loop $-1 $-1 $185 $76 #
plane-surface $-1 0 0 100.45228431043428 0 0 1 1 0 0 forward_v I I I I #
face $-1 $186 $187 $61 $-1 $188 forward single #
loop $-1 $189 $190 $77 #
cone-surface $-1 0 0 -0.96910763878292272 0 0 1 0.5 0 0 1 I I 0 1 0.5 forward I I I I #
face $-1 $191 $192 $62 $-1 $193 reversed single #
loop $-1 $-1 $194 $78 #
plane-surface $-1 0 0 100.45228431043428 0 0 1 1 0 0 forward_v I I I I #
face $-1 $195 $196 $63 $-1 $197 forward single #
loop $-1 $198 $199 $79 #
cone-surface $-1 0 0 -0.96910763878292272 0 0 1 0.5 0 0 1 I I 0 1 0.5 forward I I I I #
face $-1 $200 $201 $48 $-1 $202 reversed single #
loop $-1 $-1 $203 $80 #
plane-surface $-1 0 0 -8.4901280402019257 0 0 1 1 0 0 forward_v I I I I #
coedge $-1 $204 $205 $206 $207 forward $81 $-1 #
face $-1 $208 $209 $49 $-1 $210 reversed single #
loop $-1 $-1 $211 $83 #
plane-surface $-1 0 0 -1.7749541951901375 0 0 1 1 0 0 forward_v I I I I #
coedge $-1 $212 $213 $214 $215 forward $84 $-1 #
face $-1 $216 $217 $50 $-1 $218 reversed single #
loop $-1 $-1 $219 $86 #
plane-surface $-1 0 0 -100.45228431043428 0 0 1 1 0 0 forward_v I I I I #
coedge $-1 $220 $221 $222 $223 forward $87 $-1 #
face $-1 $-1 $224 $51 $-1 $225 forward single #
loop $-1 $-1 $226 $89 #
plane-surface $-1 0 0 -6.258484145634327 0 0 -1 -1 0 0 forward_v I I I I #
loop $-1 $-1 $227 $67 #
coedge $-1 $144 $144 $226 $228 reversed $90 $-1 #
face $-1 $-1 $229 $52 $-1 $230 forward single #
loop $-1 $-1 $231 $92 #
plane-surface $-1 0 0 -6.258484145634327 0 0 -1 -1 0 0 forward_v I I I I #
loop $-1 $-1 $232 $68 #
coedge $-1 $149 $149 $231 $233 reversed $93 $-1 #
face $-1 $234 $235 $53 $-1 $236 reversed single #
loop $-1 $-1 $237 $95 #
plane-surface $-1 0 0 -100.45228431043428 0 0 1 1 0 0 forward_v I I I I #
coedge $-1 $238 $239 $240 $241 forward $96 $-1 #
face $-1 $-1 $242 $54 $-1 $243 forward single #
loop $-1 $-1 $244 $98 #
plane-surface $-1 0 0 -6.258484145634327 0 0 -1 -1 0 0 forward_v I I I I #
loop $-1 $-1 $245 $70 #
coedge $-1 $158 $158 $244 $246 reversed $99 $-1 #
face $-1 $-1 $247 $55 $-1 $248 forward single #
loop $-1 $-1 $249 $101 #
plane-surface $-1 0 0 -6.258484145634327 0 0 -1 -1 0 0 forward_v I I I I #
loop $-1 $-1 $250 $71 #
coedge $-1 $163 $163 $249 $251 reversed $102 $-1 #
face $-1 $252 $253 $56 $-1 $254 reversed single #
loop $-1 $-1 $255 $104 #
plane-surface $-1 0 0 -100.45228431043428 0 0 1 1 0 0 forward_v I I I I #
coedge $-1 $256 $257 $258 $259 forward $105 $-1 #
face $-1 $-1 $260 $57 $-1 $261 forward single #
loop $-1 $-1 $262 $107 #
plane-surface $-1 0 0 -1.6882152775658446 0 0 -1 -1 0 0 forward_v I I I I #
loop $-1 $-1 $263 $73 #
coedge $-1 $172 $172 $262 $264 reversed $108 $-1 #
face $-1 $265 $266 $58 $-1 $267 reversed single #
loop $-1 $-1 $268 $110 #
plane-surface $-1 0 0 -100.45228431043428 0 0 1 1 0 0 forward_v I I I I #
coedge $-1 $269 $270 $271 $272 forward $111 $-1 #
face $-1 $-1 $273 $59 $-1 $274 forward single #
loop $-1 $-1 $275 $113 #
plane-surface $-1 0 0 -1.6882152775658446 0 0 -1 -1 0 0 forward_v I I I I #
loop $-1 $-1 $276 $75 #
coedge $-1 $181 $181 $275 $277 reversed $114 $-1 #
face $-1 $278 $279 $60 $-1 $280 reversed single #
loop $-1 $-1 $281 $116 #
plane-surface $-1 0 0 -100.45228431043428 0 0 1 1 0 0 forward_v I I I I #
coedge $-1 $282 $283 $284 $285 forward $117 $-1 #
face $-1 $-1 $286 $61 $-1 $287 forward single #
loop $-1 $-1 $288 $119 #
plane-surface $-1 0 0 -1.6882152775658446 0 0 -1 -1 0 0 forward_v I I I I #
loop $-1 $-1 $289 $77 #
coedge $-1 $190 $190 $288 $290 reversed $120 $-1 #
face $-1 $291 $292 $62 $-1 $293 reversed single #
loop $-1 $-1 $294 $122 #
plane-surface $-1 0 0 -100.45228431043428 0 0 1 1 0 0 forward_v I I I I #
coedge $-1 $295 $296 $297 $298 forward $123 $-1 #
face $-1 $-1 $299 $63 $-1 $300 forward single #
loop $-1 $-1 $301 $125 #
plane-surface $-1 0 0 -1.6882152775658446 0 0 -1 -1 0 0 forward_v I I I I #
loop $-1 $-1 $302 $79 #
coedge $-1 $199 $199 $301 $303 reversed $126 $-1 #
face $-1 $304 $305 $48 $-1 $306 reversed single #
loop $-1 $-1 $307 $128 #
plane-surface $-1 0 -31.464799580760786 0 0 1 0 0 0 1 forward_v I I I I #
coedge $-1 $308 $309 $310 $311 forward $129 $-1 #
coedge $-1 $312 $131 $313 $314 forward $81 $-1 #
coedge $-1 $131 $312 $315 $316 forward $81 $-1 #
coedge $-1 $317 $318 $131 $207 reversed $319 $-1 #
edge $-1 $320 -31.464799580760786 $321 31.464799580760786 $206 $322 forward 7 unknown #
face $-1 $323 $324 $49 $-1 $325 reversed single #
loop $-1 $-1 $326 $132 #
plane-surface $-1 0 -31.464799580760786 0 0 1 0 0 0 1 forward_v I I I I #
coedge $-1 $327 $328 $329 $330 forward $133 $-1 #
coedge $-1 $331 $135 $332 $333 forward $84 $-1 #
coedge $-1 $135 $331 $334 $335 forward $84 $-1 #
coedge $-1 $336 $337 $135 $215 reversed $338 $-1 #
edge $-1 $339 -31.464799580760786 $340 31.464799580760786 $214 $341 forward 7 unknown #
face $-1 $342 $343 $50 $-1 $344 reversed single #
loop $-1 $-1 $345 $136 #
plane-surface $-1 0 -200.90456862086856 0 0 1 0 0 0 1 forward_v I I I I #
coedge $-1 $346 $347 $348 $349 forward $137 $-1 #
coedge $-1 $350 $139 $351 $352 forward $87 $-1 #
coedge $-1 $139 $350 $353 $354 forward $87 $-1 #
coedge $-1 $355 $356 $139 $223 reversed $357 $-1 #
edge $-1 $358 -200.90456862086856 $359 200.90456862086856 $222 $360 forward 7 unknown #
loop $-1 $361 $362 $140 #
cone-surface $-1 0 0 0 0 0 1 0.75 0 0 1 I I -0.70710678118654757 0.70710678118654757 0.75 forward I I I I #
coedge $-1 $226 $226 $144 $228 forward $141 $-1 #
coedge $-1 $227 $227 $362 $363 forward $143 $-1 #
edge $-1 $364 0 $364 6.2831853071796004 $226 $365 forward 7 unknown #
loop $-1 $366 $367 $145 #
cone-surface $-1 0 0 0 0 0 1 0.75 0 0 1 I I -0.70710678118654757 0.70710678118654757 0.75 forward I I I I #
coedge $-1 $231 $231 $149 $233 forward $146 $-1 #
coedge $-1 $232 $232 $367 $368 forward $148 $-1 #
edge $-1 $369 0 $369 6.2831853071796004 $231 $370 forward 7 unknown #
face $-1 $371 $372 $53 $-1 $373 reversed single #
loop $-1 $-1 $374 $150 #
plane-surface $-1 0 -200.90456862086856 0 0 1 0 0 0 1 forward_v I I I I #
coedge $-1 $375 $376 $377 $378 forward $151 $-1 #
coedge $-1 $379 $153 $380 $381 forward $96 $-1 #
coedge $-1 $153 $379 $382 $383 forward $96 $-1 #
coedge $-1 $384 $385 $153 $241 reversed $386 $-1 #
edge $-1 $387 -200.90456862086856 $388 200.90456862086856 $240 $389 forward 7 unknown #
loop $-1 $390 $391 $154 #
cone-surface $-1 0 0 0 0 0 1 0.75 0 0 1 I I -0.70710678118654757 0.70710678118654757 0.75 forward I I I I #
coedge $-1 $244 $244 $158 $246 forward $155 $-1 #
coedge $-1 $245 $245 $391 $392 forward $157 $-1 #
edge $-1 $393 0 $393 6.2831853071796004 $244 $394 forward 7 unknown #
loop $-1 $395 $396 $159 #
cone-surface $-1 0 0 0 0 0 1 0.75 0 0 1 I I -0.70710678118654757 0.70710678118654757 0.75 forward I I I I #
coedge $-1 $249 $249 $163 $251 forward $160 $-1 #
coedge $-1 $250 $250 $396 $397 forward $162 $-1 #
edge $-1 $398 0 $398 6.2831853071796004 $249 $399 forward 7 unknown #
face $-1 $400 $401 $56 $-1 $402 reversed single #
loop $-1 $-1 $403 $164 #
plane-surface $-1 0 -200.90456862086856 0 0 1 0 0 0 1 forward_v I I I I #
coedge $-1 $404 $405 $406 $407 forward $165 $-1 #
coedge $-1 $408 $167 $409 $410 forward $105 $-1 #
coedge $-1 $167 $408 $411 $412 forward $105 $-1 #
coedge $-1 $413 $414 $167 $259 reversed $415 $-1 #
edge $-1 $416 -200.90456862086856 $417 200.90456862086856 $258 $418 forward 7 unknown #
loop $-1 $419 $420 $168 #
cone-surface $-1 0 0 0 0 0 1 0.25 0 0 1 I I -0.70710678118654746 0.70710678118654746 0.25 forward I I I I #
coedge $-1 $262 $262 $172 $264 forward $169 $-1 #
coedge $-1 $263 $263 $420 $421 forward $171 $-1 #
edge $-1 $422 0 $422 6.2831853071796004 $262 $423 forward 7 unknown #
face $-1 $424 $425 $58 $-1 $426 reversed single #
loop $-1 $-1 $427 $173 #
plane-surface $-1 0 -200.90456862086856 0 0 1 0 0 0 1 forward_v I I I I #
coedge $-1 $428 $429 $430 $431 forward $174 $-1 #
coedge $-1 $432 $176 $433 $434 forward $111 $-1 #
coedge $-1 $176 $432 $435 $436 forward $111 $-1 #
coedge $-1 $437 $438 $176 $272 reversed $439 $-1 #
edge $-1 $440 -200.90456862086856 $441 200.90456862086856 $271 $442 forward 7 unknown #
loop $-1 $443 $444 $177 #
cone-surface $-1 0 0 0 0 0 1 0.25 0 0 1 I I -0.70710678118654746 0.70710678118654746 0.25 forward I I I I #
coedge $-1 $275 $275 $181 $277 forward $178 $-1 #
coedge $-1 $276 $276 $444 $445 forward $180 $-1 #
edge $-1 $446 0 $446 6.2831853071796004 $275 $447 forward 7 unknown #
face $-1 $448 $449 $60 $-1 $450 reversed single #
loop $-1 $-1 $451 $182 #
plane-surface $-1 0 -200.90456862086856 0 0 1 0 0 0 1 forward_v I I I I #
coedge $-1 $452 $453 $454 $455 forward $183 $-1 #
coedge $-1 $456 $185 $457 $458 forward $117 $-1 #
coedge $-1 $185 $456 $459 $460 forward $117 $-1 #
coedge $-1 $461 $462 $185 $285 reversed $463 $-1 #
edge $-1 $464 -200.90456862086856 $465 200.90456862086856 $284 $466 forward 7 unknown #
loop $-1 $467 $468 $186 #
cone-surface $-1 0 0 0 0 0 1 0.25 0 0 1 I I -0.70710678118654746 0.70710678118654746 0.25 forward I I I I #
coedge $-1 $288 $288 $190 $290 forward $187 $-1 #
coedge $-1 $289 $289 $468 $469 forward $189 $-1 #
edge $-1 $470 0 $470 6.2831853071796004 $288 $471 forward 7 unknown #
face $-1 $472 $473 $62 $-1 $474 reversed single #
loop $-1 $-1 $475 $191 #
plane-surface $-1 0 -200.90456862086856 0 0 1 0 0 0 1 forward_v I I I I #
coedge $-1 $476 $477 $478 $479 forward $192 $-1 #
coedge $-1 $480 $194 $481 $482 forward $123 $-1 #
coedge $-1 $194 $480 $483 $484 forward $123 $-1 #
coedge $-1 $485 $486 $194 $298 reversed $487 $-1 #
edge $-1 $488 -200.90456862086856 $489 200.90456862086856 $297 $490 forward 7 unknown #
loop $-1 $491 $492 $195 #
cone-surface $-1 0 0 0 0 0 1 0.25 0 0 1 I I -0.70710678118654746 0.70710678118654746 0.25 forward I I I I #
coedge $-1 $301 $301 $199 $303 forward $196 $-1 #
coedge $-1 $302 $302 $492 $493 forward $198 $-1 #
edge $-1 $494 0 $494 6.2831853071796004 $301 $495 forward 7 unknown #
face $-1 $496 $497 $48 $-1 $498 reversed single #
loop $-1 $-1 $499 $200 #
plane-surface $-1 -50.22614215521714 0 0 1 0 0 0 0 -1 forward_v I I I I #
coedge $-1 $500 $315 $501 $502 forward $201 $-1 #
coedge $-1 $503 $203 $500 $504 forward $129 $-1 #
coedge $-1 $203 $503 $505 $506 forward $129 $-1 #
coedge $-1 $318 $317 $203 $311 reversed $319 $-1 #
edge $-1 $507 -31.464799580760786 $508 31.464799580760786 $310 $509 forward 7 unknown #
coedge $-1 $205 $204 $510 $511 forward $81 $-1 #
coedge $-1 $512 $513 $204 $314 reversed $497 $-1 #
edge $-1 $321 -50.22614215521714 $514 50.22614215521714 $313 $515 forward 7 unknown #
coedge $-1 $307 $516 $205 $316 reversed $201 $-1 #
edge $-1 $517 -50.22614215521714 $320 50.22614215521714 $315 $518 forward 7 unknown #
coedge $-1 $310 $206 $516 $519 forward $319 $-1 #
coedge $-1 $206 $310 $512 $520 reversed $319 $-1 #
loop $-1 $-1 $317 $496 #
vertex $-1 $207 $521 #
vertex $-1 $207 $522 #
straight-curve $-1 50.22614215521714 0 8.4901280402019257 0 1 0 I I #
face $-1 $523 $524 $49 $-1 $525 reversed single #
loop $-1 $-1 $526 $208 #
plane-surface $-1 -3.2620156548393857 0 0 1 0 0 0 0 -1 forward_v I I I I #
coedge $-1 $527 $334 $528 $529 forward $209 $-1 #
coedge $-1 $530 $211 $527 $531 forward $133 $-1 #
coedge $-1 $211 $530 $532 $533 forward $133 $-1 #
coedge $-1 $337 $336 $211 $330 reversed $338 $-1 #
edge $-1 $534 -31.464799580760786 $535 31.464799580760786 $329 $536 forward 7 unknown #
coedge $-1 $213 $212 $537 $538 forward $84 $-1 #
coedge $-1 $539 $540 $212 $333 reversed $524 $-1 #
edge $-1 $340 -3.2620156548393857 $541 3.2620156548393857 $332 $542 forward 7 unknown #
coedge $-1 $326 $543 $213 $335 reversed $209 $-1 #
edge $-1 $544 -3.2620156548393857 $339 3.2620156548393857 $334 $545 forward 7 unknown #
coedge $-1 $329 $214 $543 $546 forward $338 $-1 #
coedge $-1 $214 $329 $539 $547 reversed $338 $-1 #
loop $-1 $-1 $336 $523 #
vertex $-1 $215 $548 #
vertex $-1 $215 $549 #
straight-curve $-1 3.2620156548393857 0 1.7749541951901375 0 1 0 I I #
face $-1 $550 $551 $50 $-1 $552 reversed single #
loop $-1 $-1 $553 $216 #
plane-surface $-1 -11.037795177833161 0 0 1 0 0 0 0 -1 forward_v I I I I #
coedge $-1 $554 $353 $555 $556 forward $217 $-1 #
coedge $-1 $557 $219 $554 $558 forward $137 $-1 #
coedge $-1 $219 $557 $559 $560 forward $137 $-1 #
coedge $-1 $356 $355 $219 $349 reversed $357 $-1 #
edge $-1 $561 -200.90456862086856 $562 200.90456862086856 $348 $563 forward 7 unknown #
coedge $-1 $221 $220 $564 $565 forward $87 $-1 #
coedge $-1 $566 $567 $220 $352 reversed $551 $-1 #
edge $-1 $359 -11.037795177833161 $568 11.037795177833161 $351 $569 forward 7 unknown #
coedge $-1 $345 $570 $221 $354 reversed $217 $-1 #
edge $-1 $571 -11.037795177833161 $358 11.037795177833161 $353 $572 forward 7 unknown #
coedge $-1 $348 $222 $570 $573 forward $357 $-1 #
coedge $-1 $222 $348 $566 $574 reversed $357 $-1 #
loop $-1 $-1 $355 $550 #
vertex $-1 $223 $575 #
vertex $-1 $223 $576 #
straight-curve $-1 11.037795177833161 0 100.45228431043428 0 1 0 I I #
loop $-1 $-1 $577 $140 #
coedge $-1 $362 $362 $227 $363 reversed $224 $-1 #
edge $-1 $578 0 $578 6.2831853071796004 $362 $579 forward 7 unknown #
vertex $-1 $228 $580 #
ellipse-curve $-1 0 0 -6.258484145634327 0 0 -1 1.5 0 0 1 I I #
loop $-1 $-1 $581 $145 #
coedge $-1 $367 $367 $232 $368 reversed $229 $-1 #
edge $-1 $582 0 $582 6.2831853071796004 $367 $583 forward 7 unknown #
vertex $-1 $233 $584 #
ellipse-curve $-1 0 0 -6.258484145634327 0 0 -1 1.5 0 0 1 I I #
face $-1 $585 $586 $53 $-1 $587 reversed single #
loop $-1 $-1 $588 $234 #
plane-surface $-1 -11.037795177833161 0 0 1 0 0 0 0 -1 forward_v I I I I #
coedge $-1 $589 $382 $590 $591 forward $235 $-1 #
coedge $-1 $592 $237 $589 $593 forward $151 $-1 #
coedge $-1 $237 $592 $594 $595 forward $151 $-1 #
coedge $-1 $385 $384 $237 $378 reversed $386 $-1 #
edge $-1 $596 -200.90456862086856 $597 200.90456862086856 $377 $598 forward 7 unknown #
coedge $-1 $239 $238 $599 $600 forward $96 $-1 #
coedge $-1 $601 $602 $238 $381 reversed $586 $-1 #
edge $-1 $388 -11.037795177833161 $603 11.037795177833161 $380 $604 forward 7 unknown #
coedge $-1 $374 $605 $239 $383 reversed $235 $-1 #
edge $-1 $606 -11.037795177833161 $387 11.037795177833161 $382 $607 forward 7 unknown #
coedge $-1 $377 $240 $605 $608 forward $386 $-1 #
coedge $-1 $240 $377 $601 $609 reversed $386 $-1 #
loop $-1 $-1 $384 $585 #
vertex $-1 $241 $610 #
vertex $-1 $241 $611 #
straight-curve $-1 11.037795177833161 0 100.45228431043428 0 1 0 I I #
loop $-1 $-1 $612 $154 #
coedge $-1 $391 $391 $245 $392 reversed $242 $-1 #
edge $-1 $613 0 $613 6.2831853071796004 $391 $614 forward 7 unknown #
vertex $-1 $246 $615 #
ellipse-curve $-1 0 0 -6.258484145634327 0 0 -1 1.5 0 0 1 I I #
loop $-1 $-1 $616 $159 #
coedge $-1 $396 $396 $250 $397 reversed $247 $-1 #
edge $-1 $617 0 $617 6.2831853071796004 $396 $618 forward 7 unknown #
vertex $-1 $251 $619 #
ellipse-curve $-1 0 0 -6.258484145634327 0 0 -1 1.5 0 0 1 I I #
face $-1 $620 $621 $56 $-1 $622 reversed single #
loop $-1 $-1 $623 $252 #
plane-surface $-1 -6.1416914689659166 0 0 1 0 0 0 0 -1 forward_v I I I I #
coedge $-1 $624 $411 $625 $626 forward $253 $-1 #
coedge $-1 $627 $255 $624 $628 forward $165 $-1 #
coedge $-1 $255 $627 $629 $630 forward $165 $-1 #
coedge $-1 $414 $413 $255 $407 reversed $415 $-1 #
edge $-1 $631 -200.90456862086856 $632 200.90456862086856 $406 $633 forward 7 unknown #
coedge $-1 $257 $256 $634 $635 forward $105 $-1 #
coedge $-1 $636 $637 $256 $410 reversed $621 $-1 #
edge $-1 $417 -6.1416914689659166 $638 6.1416914689659166 $409 $639 forward 7 unknown #
coedge $-1 $403 $640 $257 $412 reversed $253 $-1 #
edge $-1 $641 -6.1416914689659166 $416 6.1416914689659166 $411 $642 forward 7 unknown #
coedge $-1 $406 $258 $640 $643 forward $415 $-1 #
coedge $-1 $258 $406 $636 $644 reversed $415 $-1 #
loop $-1 $-1 $413 $620 #
vertex $-1 $259 $645 #
vertex $-1 $259 $646 #
straight-curve $-1 6.1416914689659166 0 100.45228431043428 0 1 0 I I #
loop $-1 $-1 $647 $168 #
coedge $-1 $420 $420 $263 $421 reversed $260 $-1 #
edge $-1 $648 0 $648 6.2831853071796004 $420 $649 forward 7 unknown #
vertex $-1 $264 $650 #
ellipse-curve $-1 0 0 -1.6882152775658446 0 0 -1 0.5 0 0 1 I I #
face $-1 $651 $652 $58 $-1 $653 reversed single #
loop $-1 $-1 $654 $265 #
plane-surface $-1 -6.1416914689659166 0 0 1 0 0 0 0 -1 forward_v I I I I #
coedge $-1 $655 $435 $656 $657 forward $266 $-1 #
coedge $-1 $658 $268 $655 $659 forward $174 $-1 #
coedge $-1 $268 $658 $660 $661 forward $174 $-1 #
coedge $-1 $438 $437 $268 $431 reversed $439 $-1 #
edge $-1 $662 -200.90456862086856 $663 200.90456862086856 $430 $664 forward 7 unknown #
coedge $-1 $270 $269 $665 $666 forward $111 $-1 #
coedge $-1 $667 $668 $269 $434 reversed $652 $-1 #
edge $-1 $441 -6.1416914689659166 $669 6.1416914689659166 $433 $670 forward 7 unknown #
coedge $-1 $427 $671 $270 $436 reversed $266 $-1 #
edge $-1 $672 -6.1416914689659166 $440 6.1416914689659166 $435 $673 forward 7 unknown #
coedge $-1 $430 $271 $671 $674 forward $439 $-1 #
coedge $-1 $271 $430 $667 $675 reversed $439 $-1 #
loop $-1 $-1 $437 $651 #
vertex $-1 $272 $676 #
vertex $-1 $272 $677 #
straight-curve $-1 6.1416914689659166 0 100.45228431043428 0 1 0 I I #
loop $-1 $-1 $678 $177 #
coedge $-1 $444 $444 $276 $445 reversed $273 $-1 #
edge $-1 $679 0 $679 6.2831853071796004 $444 $680 forward 7 unknown #
vertex $-1 $277 $681 #
ellipse-curve $-1 0 0 -1.6882152775658446 0 0 -1 0.5 0 0 1 I I #
face $-1 $682 $683 $60 $-1 $684 reversed single #
loop $-1 $-1 $685 $278 #
plane-surface $-1 -6.1416914689659166 0 0 1 0 0 0 0 -1 forward_v I I I I #
coedge $-1 $686 $459 $687 $688 forward $279 $-1 #
coedge $-1 $689 $281 $686 $690 forward $183 $-1 #
coedge $-1 $281 $689 $691 $692 forward $183 $-1 #
coedge $-1 $462 $461 $281 $455 reversed $463 $-1 #
edge $-1 $693 -200.90456862086856 $694 200.90456862086856 $454 $695 forward 7 unknown #
coedge $-1 $283 $282 $696 $697 forward $117 $-1 #
coedge $-1 $698 $699 $282 $458 reversed $683 $-1 #
edge $-1 $465 -6.1416914689659166 $700 6.1416914689659166 $457 $701 forward 7 unknown #
coedge $-1 $451 $702 $283 $460 reversed $279 $-1 #
edge $-1 $703 -6.1416914689659166 $464 6.1416914689659166 $459 $704 forward 7 unknown #
coedge $-1 $454 $284 $702 $705 forward $463 $-1 #
coedge $-1 $284 $454 $698 $706 reversed $463 $-1 #
loop $-1 $-1 $461 $682 #
vertex $-1 $285 $707 #
vertex $-1 $285 $708 #
straight-curve $-1 6.1416914689659166 0 100.45228431043428 0 1 0 I I #
loop $-1 $-1 $709 $186 #
coedge $-1 $468 $468 $289 $469 reversed $286 $-1 #
edge $-1 $710 0 $710 6.2831853071796004 $468 $711 forward 7 unknown #
vertex $-1 $290 $712 #
ellipse-curve $-1 0 0 -1.6882152775658446 0 0 -1 0.5 0 0 1 I I #
face $-1 $713 $714 $62 $-1 $715 reversed single #
loop $-1 $-1 $716 $291 #
plane-surface $-1 -6.1416914689659166 0 0 1 0 0 0 0 -1 forward_v I I I I #
coedge $-1 $717 $483 $718 $719 forward $292 $-1 #
coedge $-1 $720 $294 $717 $721 forward $192 $-1 #
coedge $-1 $294 $720 $722 $723 forward $192 $-1 #
coedge $-1 $486 $485 $294 $479 reversed $487 $-1 #
edge $-1 $724 -200.90456862086856 $725 200.90456862086856 $478 $726 forward 7 unknown #
coedge $-1 $296 $295 $727 $728 forward $123 $-1 #
coedge $-1 $729 $730 $295 $482 reversed $714 $-1 #
edge $-1 $489 -6.1416914689659166 $731 6.1416914689659166 $481 $732 forward 7 unknown #
coedge $-1 $475 $733 $296 $484 reversed $292 $-1 #
edge $-1 $734 -6.1416914689659166 $488 6.1416914689659166 $483 $735 forward 7 unknown #
coedge $-1 $478 $297 $733 $736 forward $487 $-1 #
coedge $-1 $297 $478 $729 $737 reversed $487 $-1 #
loop $-1 $-1 $485 $713 #
vertex $-1 $298 $738 #
vertex $-1 $298 $739 #
straight-curve $-1 6.1416914689659166 0 100.45228431043428 0 1 0 I I #
loop $-1 $-1 $740 $195 #
coedge $-1 $492 $492 $302 $493 reversed $299 $-1 #
edge $-1 $741 0 $741 6.2831853071796004 $492 $742 forward 7 unknown #
vertex $-1 $303 $743 #
ellipse-curve $-1 0 0 -1.6882152775658446 0 0 -1 0.5 0 0 1 I I #
face $-1 $-1 $319 $48 $-1 $744 reversed single #
loop $-1 $-1 $512 $304 #
plane-surface $-1 0 31.464799580760786 0 0 -1 0 0 0 -1 forward_v I I I I #
coedge $-1 $745 $510 $513 $746 forward $305 $-1 #
coedge $-1 $516 $307 $308 $504 reversed $201 $-1 #
coedge $-1 $510 $745 $307 $502 reversed $305 $-1 #
edge $-1 $517 -8.4901280402019257 $747 8.4901280402019257 $501 $748 forward 7 unknown #
coedge $-1 $309 $308 $745 $749 forward $129 $-1 #
edge $-1 $508 -50.22614215521714 $747 50.22614215521714 $500 $750 forward 7 unknown #
coedge $-1 $513 $512 $309 $506 reversed $497 $-1 #
edge $-1 $751 -50.22614215521714 $507 50.22614215521714 $505 $752 forward 7 unknown #
vertex $-1 $311 $753 #
vertex $-1 $519 $754 #
straight-curve $-1 50.22614215521714 0 -8.4901280402019257 0 -1 0 I I #
coedge $-1 $499 $501 $312 $511 reversed $305 $-1 #
edge $-1 $514 -31.464799580760786 $517 31.464799580760786 $510 $755 forward 7 unknown #
coedge $-1 $505 $313 $318 $520 forward $497 $-1 #
coedge $-1 $313 $505 $499 $746 reversed $497 $-1 #
vertex $-1 $314 $756 #
straight-curve $-1 0 31.464799580760786 8.4901280402019257 -1 0 0 I I #
coedge $-1 $315 $500 $317 $519 reversed $201 $-1 #
vertex $-1 $511 $757 #
straight-curve $-1 0 -31.464799580760786 8.4901280402019257 1 0 0 I I #
edge $-1 $320 -8.4901280402019257 $508 8.4901280402019257 $317 $758 forward 7 unknown #
edge $-1 $321 -8.4901280402019257 $507 8.4901280402019257 $318 $759 forward 7 unknown #
point $-1 50.22614215521714 -31.464799580760786 8.4901280402019257 #
point $-1 50.22614215521714 31.464799580760786 8.4901280402019257 #
face $-1 $-1 $338 $49 $-1 $760 reversed single #
loop $-1 $-1 $539 $323 #
plane-surface $-1 0 31.464799580760786 0 0 -1 0 0 0 -1 forward_v I I I I #
coedge $-1 $761 $537 $540 $762 forward $324 $-1 #
coedge $-1 $543 $326 $327 $531 reversed $209 $-1 #
coedge $-1 $537 $761 $326 $529 reversed $324 $-1 #
edge $-1 $544 -1.7749541951901375 $763 1.7749541951901375 $528 $764 forward 7 unknown #
coedge $-1 $328 $327 $761 $765 forward $133 $-1 #
edge $-1 $535 -3.2620156548393857 $763 3.2620156548393857 $527 $766 forward 7 unknown #
coedge $-1 $540 $539 $328 $533 reversed $524 $-1 #
edge $-1 $767 -3.2620156548393857 $534 3.2620156548393857 $532 $768 forward 7 unknown #
vertex $-1 $330 $769 #
vertex $-1 $546 $770 #
straight-curve $-1 3.2620156548393857 0 -1.7749541951901375 0 -1 0 I I #
coedge $-1 $526 $528 $331 $538 reversed $324 $-1 #
edge $-1 $541 -31.464799580760786 $544 31.464799580760786 $537 $771 forward 7 unknown #
coedge $-1 $532 $332 $337 $547 forward $524 $-1 #
coedge $-1 $332 $532 $526 $762 reversed $524 $-1 #
vertex $-1 $333 $772 #
straight-curve $-1 0 31.464799580760786 1.7749541951901375 -1 0 0 I I #
coedge $-1 $334 $527 $336 $546 reversed $209 $-1 #
vertex $-1 $538 $773 #
straight-curve $-1 0 -31.464799580760786 1.7749541951901375 1 0 0 I I #
edge $-1 $339 -1.7749541951901375 $535 1.7749541951901375 $336 $774 forward 7 unknown #
edge $-1 $340 -1.7749541951901375 $534 1.7749541951901375 $337 $775 forward 7 unknown #
point $-1 3.2620156548393857 -31.464799580760786 1.7749541951901375 #
point $-1 3.2620156548393857 31.464799580760786 1.7749541951901375 #
face $-1 $-1 $357 $50 $-1 $776 reversed single #
loop $-1 $-1 $566 $342 #
plane-surface $-1 0 200.90456862086856 0 0 -1 0 0 0 -1 forward_v I I I I #
coedge $-1 $777 $564 $567 $778 forward $343 $-1 #
coedge $-1 $570 $345 $346 $558 reversed $217 $-1 #
coedge $-1 $564 $777 $345 $556 reversed $343 $-1 #
edge $-1 $571 -100.45228431043428 $779 100.45228431043428 $555 $780 forward 7 unknown #
coedge $-1 $347 $346 $777 $781 forward $137 $-1 #
edge $-1 $562 -11.037795177833161 $779 11.037795177833161 $554 $782 forward 7 unknown #
coedge $-1 $567 $566 $347 $560 reversed $551 $-1 #
edge $-1 $783 -11.037795177833161 $561 11.037795177833161 $559 $784 forward 7 unknown #
vertex $-1 $349 $785 #
vertex $-1 $573 $786 #
straight-curve $-1 11.037795177833161 0 -100.45228431043428 0 -1 0 I I #
coedge $-1 $553 $555 $350 $565 reversed $343 $-1 #
edge $-1 $568 -200.90456862086856 $571 200.90456862086856 $564 $787 forward 7 unknown #
coedge $-1 $559 $351 $356 $574 forward $551 $-1 #
coedge $-1 $351 $559 $553 $778 reversed $551 $-1 #
vertex $-1 $352 $788 #
straight-curve $-1 0 200.90456862086856 100.45228431043428 -1 0 0 I I #
coedge $-1 $353 $554 $355 $573 reversed $217 $-1 #
vertex $-1 $565 $789 #
straight-curve $-1 0 -200.90456862086856 100.45228431043428 1 0 0 I I #
edge $-1 $358 -100.45228431043428 $562 100.45228431043428 $355 $790 forward 7 unknown #
edge $-1 $359 -100.45228431043428 $561 100.45228431043428 $356 $791 forward 7 unknown #
point $-1 11.037795177833161 -200.90456862086856 100.45228431043428 #
point $-1 11.037795177833161 200.90456862086856 100.45228431043428 #
coedge $-1 $577 $577 $-1 $792 reversed $361 $-1 #
vertex $-1 $363 $793 #
ellipse-curve $-1 0 0 -0.75 0 0 -1 1.5 0 0 1 I I #
point $-1 1.5 0 -6.258484145634327 #
coedge $-1 $581 $581 $-1 $794 reversed $366 $-1 #
vertex $-1 $368 $795 #
ellipse-curve $-1 0 0 -0.75 0 0 -1 1.5 0 0 1 I I #
point $-1 1.5 0 -6.258484145634327 #
face $-1 $-1 $386 $53 $-1 $796 reversed single #
loop $-1 $-1 $601 $371 #
plane-surface $-1 0 200.90456862086856 0 0 -1 0 0 0 -1 forward_v I I I I #
coedge $-1 $797 $599 $602 $798 forward $372 $-1 #
coedge $-1 $605 $374 $375 $593 reversed $235 $-1 #
coedge $-1 $599 $797 $374 $591 reversed $372 $-1 #
edge $-1 $606 -100.45228431043428 $799 100.45228431043428 $590 $800 forward 7 unknown #
coedge $-1 $376 $375 $797 $801 forward $151 $-1 #
edge $-1 $597 -11.037795177833161 $799 11.037795177833161 $589 $802 forward 7 unknown #
coedge $-1 $602 $601 $376 $595 reversed $586 $-1 #
edge $-1 $803 -11.037795177833161 $596 11.037795177833161 $594 $804 forward 7 unknown #
vertex $-1 $378 $805 #
vertex $-1 $608 $806 #
straight-curve $-1 11.037795177833161 0 -100.45228431043428 0 -1 0 I I #
coedge $-1 $588 $590 $379 $600 reversed $372 $-1 #
edge $-1 $603 -200.90456862086856 $606 200.90456862086856 $599 $807 forward 7 unknown #
coedge $-1 $594 $380 $385 $609 forward $586 $-1 #
coedge $-1 $380 $594 $588 $798 reversed $586 $-1 #
vertex $-1 $381 $808 #
straight-curve $-1 0 200.90456862086856 100.45228431043428 -1 0 0 I I #
coedge $-1 $382 $589 $384 $608 reversed $235 $-1 #
vertex $-1 $600 $809 #
straight-curve $-1 0 -200.90456862086856 100.45228431043428 1 0 0 I I #
edge $-1 $387 -100.45228431043428 $597 100.45228431043428 $384 $810 forward 7 unknown #
edge $-1 $388 -100.45228431043428 $596 100.45228431043428 $385 $811 forward 7 unknown #
point $-1 11.037795177833161 -200.90456862086856 100.45228431043428 #
point $-1 11.037795177833161 200.90456862086856 100.45228431043428 #
coedge $-1 $612 $612 $-1 $812 reversed $390 $-1 #
vertex $-1 $392 $813 #
ellipse-curve $-1 0 0 -0.75 0 0 -1 1.5 0 0 1 I I #
point $-1 1.5 0 -6.258484145634327 #
coedge $-1 $616 $616 $-1 $814 reversed $395 $-1 #
vertex $-1 $397 $815 #
ellipse-curve $-1 0 0 -0.75 0 0 -1 1.5 0 0 1 I I #
point $-1 1.5 0 -6.258484145634327 #
face $-1 $-1 $415 $56 $-1 $816 reversed single #
loop $-1 $-1 $636 $400 #
plane-surface $-1 0 200.90456862086856 0 0 -1 0 0 0 -1 forward_v I I I I #
coedge $-1 $817 $634 $637 $818 forward $401 $-1 #
coedge $-1 $640 $403 $404 $628 reversed $253 $-1 #
coedge $-1 $634 $817 $403 $626 reversed $401 $-1 #
edge $-1 $641 -100.45228431043428 $819 100.45228431043428 $625 $820 forward 7 unknown #
coedge $-1 $405 $404 $817 $821 forward $165 $-1 #
edge $-1 $632 -6.1416914689659166 $819 6.1416914689659166 $624 $822 forward 7 unknown #
coedge $-1 $637 $636 $405 $630 reversed $621 $-1 #
edge $-1 $823 -6.1416914689659166 $631 6.1416914689659166 $629 $824 forward 7 unknown #
vertex $-1 $407 $825 #
vertex $-1 $643 $826 #
straight-curve $-1 6.1416914689659166 0 -100.45228431043428 0 -1 0 I I #
coedge $-1 $623 $625 $408 $635 reversed $401 $-1 #
edge $-1 $638 -200.90456862086856 $641 200.90456862086856 $634 $827 forward 7 unknown #
coedge $-1 $629 $409 $414 $644 forward $621 $-1 #
coedge $-1 $409 $629 $623 $818 reversed $621 $-1 #
vertex $-1 $410 $828 #
straight-curve $-1 0 200.90456862086856 100.45228431043428 -1 0 0 I I #
coedge $-1 $411 $624 $413 $643 reversed $253 $-1 #
vertex $-1 $635 $829 #
straight-curve $-1 0 -200.90456862086856 100.45228431043428 1 0 0 I I #
edge $-1 $416 -100.45228431043428 $632 100.45228431043428 $413 $830 forward 7 unknown #
edge $-1 $417 -100.45228431043428 $631 100.45228431043428 $414 $831 forward 7 unknown #
point $-1 6.1416914689659166 -200.90456862086856 100.45228431043428 #
point $-1 6.1416914689659166 200.90456862086856 100.45228431043428 #
coedge $-1 $647 $647 $-1 $832 reversed $419 $-1 #
vertex $-1 $421 $833 #
ellipse-curve $-1 0 0 -0.25 0 0 -1 0.5 0 0 1 I I #
point $-1 0.5 0 -1.6882152775658446 #
face $-1 $-1 $439 $58 $-1 $834 reversed single #
loop $-1 $-1 $667 $424 #
plane-surface $-1 0 200.90456862086856 0 0 -1 0 0 0 -1 forward_v I I I I #
coedge $-1 $835 $665 $668 $836 forward $425 $-1 #
coedge $-1 $671 $427 $428 $659 reversed $266 $-1 #
coedge $-1 $665 $835 $427 $657 reversed $425 $-1 #
edge $-1 $672 -100.45228431043428 $837 100.45228431043428 $656 $838 forward 7 unknown #
coedge $-1 $429 $428 $835 $839 forward $174 $-1 #
edge $-1 $663 -6.1416914689659166 $837 6.1416914689659166 $655 $840 forward 7 unknown #
coedge $-1 $668 $667 $429 $661 reversed $652 $-1 #
edge $-1 $841 -6.1416914689659166 $662 6.1416914689659166 $660 $842 forward 7 unknown #
vertex $-1 $431 $843 #
vertex $-1 $674 $844 #
straight-curve $-1 6.1416914689659166 0 -100.45228431043428 0 -1 0 I I #
coedge $-1 $654 $656 $432 $666 reversed $425 $-1 #
edge $-1 $669 -200.90456862086856 $672 200.90456862086856 $665 $845 forward 7 unknown #
coedge $-1 $660 $433 $438 $675 forward $652 $-1 #
coedge $-1 $433 $660 $654 $836 reversed $652 $-1 #
vertex $-1 $434 $846 #
straight-curve $-1 0 200.90456862086856 100.45228431043428 -1 0 0 I I #
coedge $-1 $435 $655 $437 $674 reversed $266 $-1 #
vertex $-1 $666 $847 #
straight-curve $-1 0 -200.90456862086856 100.45228431043428 1 0 0 I I #
edge $-1 $440 -100.45228431043428 $663 100.45228431043428 $437 $848 forward 7 unknown #
edge $-1 $441 -100.45228431043428 $662 100.45228431043428 $438 $849 forward 7 unknown #
point $-1 6.1416914689659166 -200.90456862086856 100.45228431043428 #
point $-1 6.1416914689659166 200.90456862086856 100.45228431043428 #
coedge $-1 $678 $678 $-1 $850 reversed $443 $-1 #
vertex $-1 $445 $851 #
ellipse-curve $-1 0 0 -0.25 0 0 -1 0.5 0 0 1 I I #
point $-1 0.5 0 -1.6882152775658446 #
face $-1 $-1 $463 $60 $-1 $852 reversed single #
loop $-1 $-1 $698 $448 #
plane-surface $-1 0 200.90456862086856 0 0 -1 0 0 0 -1 forward_v I I I I #
coedge $-1 $853 $696 $699 $854 forward $449 $-1 #
coedge $-1 $702 $451 $452 $690 reversed $279 $-1 #
coedge $-1 $696 $853 $451 $688 reversed $449 $-1 #
edge $-1 $703 -100.45228431043428 $855 100.45228431043428 $687 $856 forward 7 unknown #
coedge $-1 $453 $452 $853 $857 forward $183 $-1 #
edge $-1 $694 -6.1416914689659166 $855 6.1416914689659166 $686 $858 forward 7 unknown #
coedge $-1 $699 $698 $453 $692 reversed $683 $-1 #
edge $-1 $859 -6.1416914689659166 $693 6.1416914689659166 $691 $860 forward 7 unknown #
vertex $-1 $455 $861 #
vertex $-1 $705 $862 #
straight-curve $-1 6.1416914689659166 0 -100.45228431043428 0 -1 0 I I #
coedge $-1 $685 $687 $456 $697 reversed $449 $-1 #
edge $-1 $700 -200.90456862086856 $703 200.90456862086856 $696 $863 forward 7 unknown #
coedge $-1 $691 $457 $462 $706 forward $683 $-1 #
coedge $-1 $457 $691 $685 $854 reversed $683 $-1 #
vertex $-1 $458 $864 #
straight-curve $-1 0 200.90456862086856 100.45228431043428 -1 0 0 I I #
coedge $-1 $459 $686 $461 $705 reversed $279 $-1 #
vertex $-1 $697 $865 #
straight-curve $-1 0 -200.90456862086856 100.45228431043428 1 0 0 I I #
edge $-1 $464 -100.45228431043428 $694 100.45228431043428 $461 $866 forward 7 unknown #
edge $-1 $465 -100.45228431043428 $693 100.45228431043428 $462 $867 forward 7 unknown #
point $-1 6.1416914689659166 -200.90456862086856 100.45228431043428 #
point $-1 6.1416914689659166 200.90456862086856 100.45228431043428 #
coedge $-1 $709 $709 $-1 $868 reversed $467 $-1 #
vertex $-1 $469 $869 #
ellipse-curve $-1 0 0 -0.25 0 0 -1 0.5 0 0 1 I I #
point $-1 0.5 0 -1.6882152775658446 #
face $-1 $-1 $487 $62 $-1 $870 reversed single #
loop $-1 $-1 $729 $472 #
plane-surface $-1 0 200.90456862086856 0 0 -1 0 0 0 -1 forward_v I I I I #
coedge $-1 $871 $727 $730 $872 forward $473 $-1 #
coedge $-1 $733 $475 $476 $721 reversed $292 $-1 #
coedge $-1 $727 $871 $475 $719 reversed $473 $-1 #
edge $-1 $734 -100.45228431043428 $873 100.45228431043428 $718 $874 forward 7 unknown #
coedge $-1 $477 $476 $871 $875 forward $192 $-1 #
edge $-1 $725 -6.1416914689659166 $873 6.1416914689659166 $717 $876 forward 7 unknown #
coedge $-1 $730 $729 $477 $723 reversed $714 $-1 #
edge $-1 $877 -6.1416914689659166 $724 6.1416914689659166 $722 $878 forward 7 unknown #
vertex $-1 $479 $879 #
vertex $-1 $736 $880 #
straight-curve $-1 6.1416914689659166 0 -100.45228431043428 0 -1 0 I I #
coedge $-1 $716 $718 $480 $728 reversed $473 $-1 #
edge $-1 $731 -200.90456862086856 $734 200.90456862086856 $727 $881 forward 7 unknown #
coedge $-1 $722 $481 $486 $737 forward $714 $-1 #
coedge $-1 $481 $722 $716 $872 reversed $714 $-1 #
vertex $-1 $482 $882 #
straight-curve $-1 0 200.90456862086856 100.45228431043428 -1 0 0 I I #
coedge $-1 $483 $717 $485 $736 reversed $292 $-1 #
vertex $-1 $728 $883 #
straight-curve $-1 0 -200.90456862086856 100.45228431043428 1 0 0 I I #
edge $-1 $488 -100.45228431043428 $725 100.45228431043428 $485 $884 forward 7 unknown #
edge $-1 $489 -100.45228431043428 $724 100.45228431043428 $486 $885 forward 7 unknown #
point $-1 6.1416914689659166 -200.90456862086856 100.45228431043428 #
point $-1 6.1416914689659166 200.90456862086856 100.45228431043428 #
coedge $-1 $740 $740 $-1 $886 reversed $491 $-1 #
vertex $-1 $493 $887 #
ellipse-curve $-1 0 0 -0.25 0 0 -1 0.5 0 0 1 I I #
point $-1 0.5 0 -1.6882152775658446 #
plane-surface $-1 50.22614215521714 0 0 -1 0 0 0 0 1 forward_v I I I I #
coedge $-1 $501 $499 $503 $749 reversed $305 $-1 #
edge $-1 $514 -8.4901280402019257 $751 8.4901280402019257 $513 $888 forward 7 unknown #
vertex $-1 $749 $889 #
straight-curve $-1 -50.22614215521714 -31.464799580760786 0 0 0 -1 I I #
edge $-1 $747 -31.464799580760786 $751 31.464799580760786 $745 $890 forward 7 unknown #
straight-curve $-1 0 -31.464799580760786 -8.4901280402019257 -1 0 0 I I #
vertex $-1 $506 $891 #
straight-curve $-1 0 31.464799580760786 -8.4901280402019257 1 0 0 I I #
point $-1 50.22614215521714 31.464799580760786 -8.4901280402019257 #
point $-1 50.22614215521714 -31.464799580760786 -8.4901280402019257 #
straight-curve $-1 -50.22614215521714 0 8.4901280402019257 0 -1 0 I I #
point $-1 -50.22614215521714 31.464799580760786 8.4901280402019257 #
point $-1 -50.22614215521714 -31.464799580760786 8.4901280402019257 #
straight-curve $-1 50.22614215521714 -31.464799580760786 0 0 0 -1 I I #
straight-curve $-1 50.22614215521714 31.464799580760786 0 0 0 -1 I I #
plane-surface $-1 3.2620156548393857 0 0 -1 0 0 0 0 1 forward_v I I I I #
coedge $-1 $528 $526 $530 $765 reversed $324 $-1 #
edge $-1 $541 -1.7749541951901375 $767 1.7749541951901375 $540 $892 forward 7 unknown #
vertex $-1 $765 $893 #
straight-curve $-1 -3.2620156548393857 -31.464799580760786 0 0 0 -1 I I #
edge $-1 $763 -31.464799580760786 $767 31.464799580760786 $761 $894 forward 7 unknown #
straight-curve $-1 0 -31.464799580760786 -1.7749541951901375 -1 0 0 I I #
vertex $-1 $533 $895 #
straight-curve $-1 0 31.464799580760786 -1.7749541951901375 1 0 0 I I #
point $-1 3.2620156548393857 31.464799580760786 -1.7749541951901375 #
point $-1 3.2620156548393857 -31.464799580760786 -1.7749541951901375 #
straight-curve $-1 -3.2620156548393857 0 1.7749541951901375 0 -1 0 I I #
point $-1 -3.2620156548393857 31.464799580760786 1.7749541951901375 #
point $-1 -3.2620156548393857 -31.464799580760786 1.7749541951901375 #
straight-curve $-1 3.2620156548393857 -31.464799580760786 0 0 0 -1 I I #
straight-curve $-1 3.2620156548393857 31.464799580760786 0 0 0 -1 I I #
plane-surface $-1 11.037795177833161 0 0 -1 0 0 0 0 1 forward_v I I I I #
coedge $-1 $555 $553 $557 $781 reversed $343 $-1 #
edge $-1 $568 -100.45228431043428 $783 100.45228431043428 $567 $896 forward 7 unknown #
vertex $-1 $781 $897 #
straight-curve $-1 -11.037795177833161 -200.90456862086856 0 0 0 -1 I I #
edge $-1 $779 -200.90456862086856 $783 200.90456862086856 $777 $898 forward 7 unknown #
straight-curve $-1 0 -200.90456862086856 -100.45228431043428 -1 0 0 I I #
vertex $-1 $560 $899 #
straight-curve $-1 0 200.90456862086856 -100.45228431043428 1 0 0 I I #
point $-1 11.037795177833161 200.90456862086856 -100.45228431043428 #
point $-1 11.037795177833161 -200.90456862086856 -100.45228431043428 #
straight-curve $-1 -11.037795177833161 0 100.45228431043428 0 -1 0 I I #
point $-1 -11.037795177833161 200.90456862086856 100.45228431043428 #
point $-1 -11.037795177833161 -200.90456862086856 100.45228431043428 #
straight-curve $-1 11.037795177833161 -200.90456862086856 0 0 0 -1 I I #
straight-curve $-1 11.037795177833161 200.90456862086856 0 0 0 -1 I I #
edge $-1 $900 1 $900 0 $577 $-1 forward 7 unknown #
point $-1 1.5 0 -0.75 #
edge $-1 $901 1 $901 0 $581 $-1 forward 7 unknown #
point $-1 1.5 0 -0.75 #
plane-surface $-1 11.037795177833161 0 0 -1 0 0 0 0 1 forward_v I I I I #
coedge $-1 $590 $588 $592 $801 reversed $372 $-1 #
edge $-1 $603 -100.45228431043428 $803 100.45228431043428 $602 $902 forward 7 unknown #
vertex $-1 $801 $903 #
straight-curve $-1 -11.037795177833161 -200.90456862086856 0 0 0 -1 I I #
edge $-1 $799 -200.90456862086856 $803 200.90456862086856 $797 $904 forward 7 unknown #
straight-curve $-1 0 -200.90456862086856 -100.45228431043428 -1 0 0 I I #
vertex $-1 $595 $905 #
straight-curve $-1 0 200.90456862086856 -100.45228431043428 1 0 0 I I #
point $-1 11.037795177833161 200.90456862086856 -100.45228431043428 #
point $-1 11.037795177833161 -200.90456862086856 -100.45228431043428 #
straight-curve $-1 -11.037795177833161 0 100.45228431043428 0 -1 0 I I #
point $-1 -11.037795177833161 200.90456862086856 100.45228431043428 #
point $-1 -11.037795177833161 -200.90456862086856 100.45228431043428 #
straight-curve $-1 11.037795177833161 -200.90456862086856 0 0 0 -1 I I #
straight-curve $-1 11.037795177833161 200.90456862086856 0 0 0 -1 I I #
edge $-1 $906 1 $906 0 $612 $-1 forward 7 unknown #
point $-1 1.5 0 -0.75 #
edge $-1 $907 1 $907 0 $616 $-1 forward 7 unknown #
point $-1 1.5 0 -0.75 #
plane-surface $-1 6.1416914689659166 0 0 -1 0 0 0 0 1 forward_v I I I I #
coedge $-1 $625 $623 $627 $821 reversed $401 $-1 #
edge $-1 $638 -100.45228431043428 $823 100.45228431043428 $637 $908 forward 7 unknown #
vertex $-1 $821 $909 #
straight-curve $-1 -6.1416914689659166 -200.90456862086856 0 0 0 -1 I I #
edge $-1 $819 -200.90456862086856 $823 200.90456862086856 $817 $910 forward 7 unknown #
straight-curve $-1 0 -200.90456862086856 -100.45228431043428 -1 0 0 I I #
vertex $-1 $630 $911 #
straight-curve $-1 0 200.90456862086856 -100.45228431043428 1 0 0 I I #
point $-1 6.1416914689659166 200.90456862086856 -100.45228431043428 #
point $-1 6.1416914689659166 -200.90456862086856 -100.45228431043428 #
straight-curve $-1 -6.1416914689659166 0 100.45228431043428 0 -1 0 I I #
point $-1 -6.1416914689659166 200.90456862086856 100.45228431043428 #
point $-1 -6.1416914689659166 -200.90456862086856 100.45228431043428 #
straight-curve $-1 6.1416914689659166 -200.90456862086856 0 0 0 -1 I I #
straight-curve $-1 6.1416914689659166 200.90456862086856 0 0 0 -1 I I #
edge $-1 $912 1 $912 0 $647 $-1 forward 7 unknown #
point $-1 0.5 0 -0.25 #
plane-surface $-1 6.1416914689659166 0 0 -1 0 0 0 0 1 forward_v I I I I #
coedge $-1 $656 $654 $658 $839 reversed $425 $-1 #
edge $-1 $669 -100.45228431043428 $841 100.45228431043428 $668 $913 forward 7 unknown #
vertex $-1 $839 $914 #
straight-curve $-1 -6.1416914689659166 -200.90456862086856 0 0 0 -1 I I #
edge $-1 $837 -200.90456862086856 $841 200.90456862086856 $835 $915 forward 7 unknown #
straight-curve $-1 0 -200.90456862086856 -100.45228431043428 -1 0 0 I I #
vertex $-1 $661 $916 #
straight-curve $-1 0 200.90456862086856 -100.45228431043428 1 0 0 I I #
point $-1 6.1416914689659166 200.90456862086856 -100.45228431043428 #
point $-1 6.1416914689659166 -200.90456862086856 -100.45228431043428 #
straight-curve $-1 -6.1416914689659166 0 100.45228431043428 0 -1 0 I I #
point $-1 -6.1416914689659166 200.90456862086856 100.45228431043428 #
point $-1 -6.1416914689659166 -200.90456862086856 100.45228431043428 #
straight-curve $-1 6.1416914689659166 -200.90456862086856 0 0 0 -1 I I #
straight-curve $-1 6.1416914689659166 200.90456862086856 0 0 0 -1 I I #
edge $-1 $917 1 $917 0 $678 $-1 forward 7 unknown #
point $-1 0.5 0 -0.25 #
plane-surface $-1 6.1416914689659166 0 0 -1 0 0 0 0 1 forward_v I I I I #
coedge $-1 $687 $685 $689 $857 reversed $449 $-1 #
edge $-1 $700 -100.45228431043428 $859 100.45228431043428 $699 $918 forward 7 unknown #
vertex $-1 $857 $919 #
straight-curve $-1 -6.1416914689659166 -200.90456862086856 0 0 0 -1 I I #
edge $-1 $855 -200.90456862086856 $859 200.90456862086856 $853 $920 forward 7 unknown #
straight-curve $-1 0 -200.90456862086856 -100.45228431043428 -1 0 0 I I #
vertex $-1 $692 $921 #
straight-curve $-1 0 200.90456862086856 -100.45228431043428 1 0 0 I I #
point $-1 6.1416914689659166 200.90456862086856 -100.45228431043428 #
point $-1 6.1416914689659166 -200.90456862086856 -100.45228431043428 #
straight-curve $-1 -6.1416914689659166 0 100.45228431043428 0 -1 0 I I #
point $-1 -6.1416914689659166 200.90456862086856 100.45228431043428 #
point $-1 -6.1416914689659166 -200.90456862086856 100.45228431043428 #
straight-curve $-1 6.1416914689659166 -200.90456862086856 0 0 0 -1 I I #
straight-curve $-1 6.1416914689659166 200.90456862086856 0 0 0 -1 I I #
edge $-1 $922 1 $922 0 $709 $-1 forward 7 unknown #
point $-1 0.5 0 -0.25 #
plane-surface $-1 6.1416914689659166 0 0 -1 0 0 0 0 1 forward_v I I I I #
coedge $-1 $718 $716 $720 $875 reversed $473 $-1 #
edge $-1 $731 -100.45228431043428 $877 100.45228431043428 $730 $923 forward 7 unknown #
vertex $-1 $875 $924 #
straight-curve $-1 -6.1416914689659166 -200.90456862086856 0 0 0 -1 I I #
edge $-1 $873 -200.90456862086856 $877 200.90456862086856 $871 $925 forward 7 unknown #
straight-curve $-1 0 -200.90456862086856 -100.45228431043428 -1 0 0 I I #
vertex $-1 $723 $926 #
straight-curve $-1 0 200.90456862086856 -100.45228431043428 1 0 0 I I #
point $-1 6.1416914689659166 200.90456862086856 -100.45228431043428 #
point $-1 6.1416914689659166 -200.90456862086856 -100.45228431043428 #
straight-curve $-1 -6.1416914689659166 0 100.45228431043428 0 -1 0 I I #
point $-1 -6.1416914689659166 200.90456862086856 100.45228431043428 #
point $-1 -6.1416914689659166 -200.90456862086856 100.45228431043428 #
straight-curve $-1 6.1416914689659166 -200.90456862086856 0 0 0 -1 I I #
straight-curve $-1 6.1416914689659166 200.90456862086856 0 0 0 -1 I I #
edge $-1 $927 1 $927 0 $740 $-1 forward 7 unknown #
point $-1 0.5 0 -0.25 #
straight-curve $-1 -50.22614215521714 31.464799580760786 0 0 0 -1 I I #
point $-1 -50.22614215521714 -31.464799580760786 -8.4901280402019257 #
straight-curve $-1 -50.22614215521714 0 -8.4901280402019257 0 1 0 I I #
point $-1 -50.22614215521714 31.464799580760786 -8.4901280402019257 #
straight-curve $-1 -3.2620156548393857 31.464799580760786 0 0 0 -1 I I #
point $-1 -3.2620156548393857 -31.464799580760786 -1.7749541951901375 #
straight-curve $-1 -3.2620156548393857 0 -1.7749541951901375 0 1 0 I I #
point $-1 -3.2620156548393857 31.464799580760786 -1.7749541951901375 #
straight-curve $-1 -11.037795177833161 200.90456862086856 0 0 0 -1 I I #
point $-1 -11.037795177833161 -200.90456862086856 -100.45228431043428 #
straight-curve $-1 -11.037795177833161 0 -100.45228431043428 0 1 0 I I #
point $-1 -11.037795177833161 200.90456862086856 -100.45228431043428 #
vertex $-1 $792 $928 #
vertex $-1 $794 $929 #
straight-curve $-1 -11.037795177833161 200.90456862086856 0 0 0 -1 I I #
point $-1 -11.037795177833161 -200.90456862086856 -100.45228431043428 #
straight-curve $-1 -11.037795177833161 0 -100.45228431043428 0 1 0 I I #
point $-1 -11.037795177833161 200.90456862086856 -100.45228431043428 #
vertex $-1 $812 $930 #
vertex $-1 $814 $931 #
straight-curve $-1 -6.1416914689659166 200.90456862086856 0 0 0 -1 I I #
point $-1 -6.1416914689659166 -200.90456862086856 -100.45228431043428 #
straight-curve $-1 -6.1416914689659166 0 -100.45228431043428 0 1 0 I I #
point $-1 -6.1416914689659166 200.90456862086856 -100.45228431043428 #
vertex $-1 $832 $932 #
straight-curve $-1 -6.1416914689659166 200.90456862086856 0 0 0 -1 I I #
point $-1 -6.1416914689659166 -200.90456862086856 -100.45228431043428 #
straight-curve $-1 -6.1416914689659166 0 -100.45228431043428 0 1 0 I I #
point $-1 -6.1416914689659166 200.90456862086856 -100.45228431043428 #
vertex $-1 $850 $933 #
straight-curve $-1 -6.1416914689659166 200.90456862086856 0 0 0 -1 I I #
point $-1 -6.1416914689659166 -200.90456862086856 -100.45228431043428 #
straight-curve $-1 -6.1416914689659166 0 -100.45228431043428 0 1 0 I I #
point $-1 -6.1416914689659166 200.90456862086856 -100.45228431043428 #
vertex $-1 $868 $934 #
straight-curve $-1 -6.1416914689659166 200.90456862086856 0 0 0 -1 I I #
point $-1 -6.1416914689659166 -200.90456862086856 -100.45228431043428 #
straight-curve $-1 -6.1416914689659166 0 -100.45228431043428 0 1 0 I I #
point $-1 -6.1416914689659166 200.90456862086856 -100.45228431043428 #
vertex $-1 $886 $935 #
point $-1 0 0 0.75 #
point $-1 0 0 0.75 #
point $-1 0 0 0.75 #
point $-1 0 0 0.75 #
point $-1 0 0 0.25 #
point $-1 0 0 0.25 #
point $-1 0 0 0.25 #
point $-1 0 0 0.25 #
End-of-ACIS-data 