500 0 6 0           
7 Unknown 11 ACIS 5.0 NT 24 Fri Mar 26 17:52:35 1999 
-1 9.9999999999999995e-007 1e-010 
body $-1 $6 $-1 $7 #
body $-1 $8 $-1 $9 #
body $-1 $10 $-1 $11 #
body $-1 $12 $-1 $13 #
body $-1 $14 $-1 $15 #
body $-1 $16 $-1 $17 #
lump $-1 $-1 $18 $0 #
transform $-1 1 0 0 0 1 0 0 0 1 51.328470717490156 34.924256776615842 10.4304868211102 1 rotate no_reflect no_shear #
lump $-1 $-1 $19 $1 #
transform $-1 0.77714595512881146 0 -0.62932039886446345 0 1 0 0.62932039886446345 0 0.77714595512881146 87.48162196295776 15.217554596225806 161.504565805407 1 rotate no_reflect no_shear #
lump $-1 $-1 $20 $2 #
transform $-1 0.77714595512881146 0 -0.62932039886446345 0 -1 0 -0.62932039886446345 0 -0.77714595512881146 98.076283421536004 15.217554596225806 16.186012599194243 1 rotate no_reflect no_shear #
lump $-1 $-1 $21 $3 #
transform $-1 0.66913059716165679 0 0.74314483375859142 0 1 0 -0.74314483375859142 0 0.66913059716165679 -76.288975676863885 13.25773695544305 83.608887077814941 1 rotate no_reflect no_shear #
lump $-1 $-1 $22 $4 #
transform $-1 0.66913059716165679 0 0.74314483375859142 0 -1 0 0.74314483375859142 0 -0.66913059716165679 4.9076667812299828 10.286383399737506 15.879668433030185 1 rotate no_reflect no_shear #
lump $-1 $-1 $23 $5 #
transform $-1 0.66913059716165679 0 0.74314483375859142 0 -1 0 0.74314483375859142 0 -0.66913059716165679 4.9076667812299828 16.229090511148598 15.879668433030185 1 rotate no_reflect no_shear #
shell $-1 $-1 $-1 $24 $-1 $6 #
shell $-1 $-1 $-1 $25 $-1 $8 #
shell $-1 $-1 $-1 $26 $-1 $10 #
shell $-1 $-1 $-1 $27 $-1 $12 #
shell $-1 $-1 $-1 $28 $-1 $14 #
shell $-1 $-1 $-1 $29 $-1 $16 #
face $-1 $30 $31 $18 $-1 $32 forward single #
face $-1 $33 $34 $19 $-1 $35 forward single #
face $-1 $36 $37 $20 $-1 $38 forward single #
face $-1 $39 $40 $21 $-1 $41 forward single #
face $-1 $42 $43 $22 $-1 $44 forward single #
face $-1 $45 $46 $23 $-1 $47 forward single #
face $-1 $48 $49 $18 $-1 $50 reversed single #
loop $-1 $-1 $51 $24 #
plane-surface $-1 0 0 10.4304868211102 0 0 1 1 0 0 forward_v I I I I #
face $-1 $52 $53 $19 $-1 $54 reversed single #
loop $-1 $-1 $55 $25 #
plane-surface $-1 0 0 102.65694143498031 0 0 1 1 0 0 forward_v I I I I #
face $-1 $56 $57 $20 $-1 $58 forward single #
loop $-1 $59 $60 $26 #
cone-surface $-1 0 0 -2.0546739097262492 0 0 1 1 0 0 1 I I 0 1 1 forward I I I I #
face $-1 $61 $62 $21 $-1 $63 reversed single #
loop $-1 $-1 $64 $27 #
plane-surface $-1 0 0 102.65694143498031 0 0 1 1 0 0 forward_v I I I I #
face $-1 $65 $66 $22 $-1 $67 forward single #
loop $-1 $68 $69 $28 #
cone-surface $-1 0 0 -1.7518082216864528 0 0 1 1 0 0 1 I I 0 1 1 forward I I I I #
face $-1 $70 $71 $23 $-1 $72 forward single #
loop $-1 $73 $74 $29 #
cone-surface $-1 0 0 -1.7518082216864528 0 0 1 1 0 0 1 I I 0 1 1 forward I I I I #
face $-1 $75 $76 $18 $-1 $77 reversed single #
loop $-1 $-1 $78 $30 #
plane-surface $-1 0 0 -10.4304868211102 0 0 1 1 0 0 forward_v I I I I #
coedge $-1 $79 $80 $81 $82 forward $31 $-1 #
face $-1 $83 $84 $19 $-1 $85 reversed single #
loop $-1 $-1 $86 $33 #
plane-surface $-1 0 0 -102.65694143498031 0 0 1 1 0 0 forward_v I I I I #
coedge $-1 $87 $88 $89 $90 forward $34 $-1 #
face $-1 $-1 $91 $20 $-1 $92 forward single #
loop $-1 $-1 $93 $36 #
plane-surface $-1 0 0 -3.6093478194524984 0 0 -1 -1 0 0 forward_v I I I I #
loop $-1 $-1 $94 $26 #
coedge $-1 $60 $60 $93 $95 reversed $37 $-1 #
face $-1 $96 $97 $21 $-1 $98 reversed single #
loop $-1 $-1 $99 $39 #
plane-surface $-1 0 0 -102.65694143498031 0 0 1 1 0 0 forward_v I I I I #
coedge $-1 $100 $101 $102 $103 forward $40 $-1 #
face $-1 $-1 $104 $22 $-1 $105 forward single #
loop $-1 $-1 $106 $42 #
plane-surface $-1 0 0 -3.0036164433729056 0 0 -1 -1 0 0 forward_v I I I I #
loop $-1 $-1 $107 $28 #
coedge $-1 $69 $69 $106 $108 reversed $43 $-1 #
face $-1 $-1 $109 $23 $-1 $110 forward single #
loop $-1 $-1 $111 $45 #
plane-surface $-1 0 0 -3.0036164433729056 0 0 -1 -1 0 0 forward_v I I I I #
loop $-1 $-1 $112 $29 #
coedge $-1 $74 $74 $111 $113 reversed $46 $-1 #
face $-1 $114 $115 $18 $-1 $116 reversed single #
loop $-1 $-1 $117 $48 #
plane-surface $-1 0 -34.924256776615842 0 0 1 0 0 0 1 forward_v I I I I #
coedge $-1 $118 $119 $120 $121 forward $49 $-1 #
coedge $-1 $122 $51 $123 $124 forward $31 $-1 #
coedge $-1 $51 $122 $125 $126 forward $31 $-1 #
coedge $-1 $127 $128 $51 $82 reversed $129 $-1 #
edge $-1 $130 -34.924256776615842 $131 34.924256776615842 $81 $132 forward 7 unknown #
face $-1 $133 $134 $19 $-1 $135 reversed single #
loop $-1 $-1 $136 $52 #
plane-surface $-1 0 -6.6012568848527557 0 0 1 0 0 0 1 forward_v I I I I #
coedge $-1 $137 $138 $139 $140 forward $53 $-1 #
coedge $-1 $141 $55 $142 $143 forward $34 $-1 #
coedge $-1 $55 $141 $144 $145 forward $34 $-1 #
coedge $-1 $146 $147 $55 $90 reversed $148 $-1 #
edge $-1 $149 -6.6012568848527557 $150 6.6012568848527557 $89 $151 forward 7 unknown #
loop $-1 $152 $153 $56 #
cone-surface $-1 0 0 0 0 0 1 0.5 0 0 1 I I -0.70710678118654746 0.70710678118654746 0.5 forward I I I I #
coedge $-1 $93 $93 $60 $95 forward $57 $-1 #
coedge $-1 $94 $94 $153 $154 forward $59 $-1 #
edge $-1 $155 0 $155 6.2831853071796004 $93 $156 forward 7 unknown #
face $-1 $157 $158 $21 $-1 $159 reversed single #
loop $-1 $-1 $160 $61 #
plane-surface $-1 0 -6.9331582966462717 0 0 1 0 0 0 1 forward_v I I I I #
coedge $-1 $161 $162 $163 $164 forward $62 $-1 #
coedge $-1 $165 $64 $166 $167 forward $40 $-1 #
coedge $-1 $64 $165 $168 $169 forward $40 $-1 #
coedge $-1 $170 $171 $64 $103 reversed $172 $-1 #
edge $-1 $173 -6.9331582966462717 $174 6.9331582966462717 $102 $175 forward 7 unknown #
loop $-1 $176 $177 $65 #
cone-surface $-1 0 0 0 0 0 1 0.5 0 0 1 I I -0.70710678118654746 0.70710678118654746 0.5 forward I I I I #
coedge $-1 $106 $106 $69 $108 forward $66 $-1 #
coedge $-1 $107 $107 $177 $178 forward $68 $-1 #
edge $-1 $179 0 $179 6.2831853071796004 $106 $180 forward 7 unknown #
loop $-1 $181 $182 $70 #
cone-surface $-1 0 0 0 0 0 1 0.5 0 0 1 I I -0.70710678118654746 0.70710678118654746 0.5 forward I I I I #
coedge $-1 $111 $111 $74 $113 forward $71 $-1 #
coedge $-1 $112 $112 $182 $183 forward $73 $-1 #
edge $-1 $184 0 $184 6.2831853071796004 $111 $185 forward 7 unknown #
face $-1 $186 $187 $18 $-1 $188 reversed single #
loop $-1 $-1 $189 $75 #
plane-surface $-1 -51.328470717490156 0 0 1 0 0 0 0 -1 forward_v I I I I #
coedge $-1 $190 $125 $191 $192 forward $76 $-1 #
coedge $-1 $193 $78 $190 $194 forward $49 $-1 #
coedge $-1 $78 $193 $195 $196 forward $49 $-1 #
coedge $-1 $128 $127 $78 $121 reversed $129 $-1 #
edge $-1 $197 -34.924256776615842 $198 34.924256776615842 $120 $199 forward 7 unknown #
coedge $-1 $80 $79 $200 $201 forward $31 $-1 #
coedge $-1 $202 $203 $79 $124 reversed $187 $-1 #
edge $-1 $131 -51.328470717490156 $204 51.328470717490156 $123 $205 forward 7 unknown #
coedge $-1 $117 $206 $80 $126 reversed $76 $-1 #
edge $-1 $207 -51.328470717490156 $130 51.328470717490156 $125 $208 forward 7 unknown #
coedge $-1 $120 $81 $206 $209 forward $129 $-1 #
coedge $-1 $81 $120 $202 $210 reversed $129 $-1 #
loop $-1 $-1 $127 $186 #
vertex $-1 $82 $211 #
vertex $-1 $82 $212 #
straight-curve $-1 51.328470717490156 0 10.4304868211102 0 1 0 I I #
face $-1 $213 $214 $19 $-1 $215 reversed single #
loop $-1 $-1 $216 $83 #
plane-surface $-1 -205.31388286996062 0 0 1 0 0 0 0 -1 forward_v I I I I #
coedge $-1 $217 $144 $218 $219 forward $84 $-1 #
coedge $-1 $220 $86 $217 $221 forward $53 $-1 #
coedge $-1 $86 $220 $222 $223 forward $53 $-1 #
coedge $-1 $147 $146 $86 $140 reversed $148 $-1 #
edge $-1 $224 -6.6012568848527557 $225 6.6012568848527557 $139 $226 forward 7 unknown #
coedge $-1 $88 $87 $227 $228 forward $34 $-1 #
coedge $-1 $229 $230 $87 $143 reversed $214 $-1 #
edge $-1 $150 -205.31388286996062 $231 205.31388286996062 $142 $232 forward 7 unknown #
coedge $-1 $136 $233 $88 $145 reversed $84 $-1 #
edge $-1 $234 -205.31388286996062 $149 205.31388286996062 $144 $235 forward 7 unknown #
coedge $-1 $139 $89 $233 $236 forward $148 $-1 #
coedge $-1 $89 $139 $229 $237 reversed $148 $-1 #
loop $-1 $-1 $146 $213 #
vertex $-1 $90 $238 #
vertex $-1 $90 $239 #
straight-curve $-1 205.31388286996062 0 102.65694143498031 0 1 0 I I #
loop $-1 $-1 $240 $56 #
coedge $-1 $153 $153 $94 $154 reversed $91 $-1 #
edge $-1 $241 0 $241 6.2831853071796004 $153 $242 forward 7 unknown #
vertex $-1 $95 $243 #
ellipse-curve $-1 0 0 -3.6093478194524984 0 0 -1 1 0 0 1 I I #
face $-1 $244 $245 $21 $-1 $246 reversed single #
loop $-1 $-1 $247 $96 #
plane-surface $-1 -205.31388286996062 0 0 1 0 0 0 0 -1 forward_v I I I I #
coedge $-1 $248 $168 $249 $250 forward $97 $-1 #
coedge $-1 $251 $99 $248 $252 forward $62 $-1 #
coedge $-1 $99 $251 $253 $254 forward $62 $-1 #
coedge $-1 $171 $170 $99 $164 reversed $172 $-1 #
edge $-1 $255 -6.9331582966462717 $256 6.9331582966462717 $163 $257 forward 7 unknown #
coedge $-1 $101 $100 $258 $259 forward $40 $-1 #
coedge $-1 $260 $261 $100 $167 reversed $245 $-1 #
edge $-1 $174 -205.31388286996062 $262 205.31388286996062 $166 $263 forward 7 unknown #
coedge $-1 $160 $264 $101 $169 reversed $97 $-1 #
edge $-1 $265 -205.31388286996062 $173 205.31388286996062 $168 $266 forward 7 unknown #
coedge $-1 $163 $102 $264 $267 forward $172 $-1 #
coedge $-1 $102 $163 $260 $268 reversed $172 $-1 #
loop $-1 $-1 $170 $244 #
vertex $-1 $103 $269 #
vertex $-1 $103 $270 #
straight-curve $-1 205.31388286996062 0 102.65694143498031 0 1 0 I I #
loop $-1 $-1 $271 $65 #
coedge $-1 $177 $177 $107 $178 reversed $104 $-1 #
edge $-1 $272 0 $272 6.2831853071796004 $177 $273 forward 7 unknown #
vertex $-1 $108 $274 #
ellipse-curve $-1 0 0 -3.0036164433729056 0 0 -1 1 0 0 1 I I #
loop $-1 $-1 $275 $70 #
coedge $-1 $182 $182 $112 $183 reversed $109 $-1 #
edge $-1 $276 0 $276 6.2831853071796004 $182 $277 forward 7 unknown #
vertex $-1 $113 $278 #
ellipse-curve $-1 0 0 -3.0036164433729056 0 0 -1 1 0 0 1 I I #
face $-1 $-1 $129 $18 $-1 $279 reversed single #
loop $-1 $-1 $202 $114 #
plane-surface $-1 0 34.924256776615842 0 0 -1 0 0 0 -1 forward_v I I I I #
coedge $-1 $280 $200 $203 $281 forward $115 $-1 #
coedge $-1 $206 $117 $118 $194 reversed $76 $-1 #
coedge $-1 $200 $280 $117 $192 reversed $115 $-1 #
edge $-1 $207 -10.4304868211102 $282 10.4304868211102 $191 $283 forward 7 unknown #
coedge $-1 $119 $118 $280 $284 forward $49 $-1 #
edge $-1 $198 -51.328470717490156 $282 51.328470717490156 $190 $285 forward 7 unknown #
coedge $-1 $203 $202 $119 $196 reversed $187 $-1 #
edge $-1 $286 -51.328470717490156 $197 51.328470717490156 $195 $287 forward 7 unknown #
vertex $-1 $121 $288 #
vertex $-1 $209 $289 #
straight-curve $-1 51.328470717490156 0 -10.4304868211102 0 -1 0 I I #
coedge $-1 $189 $191 $122 $201 reversed $115 $-1 #
edge $-1 $204 -34.924256776615842 $207 34.924256776615842 $200 $290 forward 7 unknown #
coedge $-1 $195 $123 $128 $210 forward $187 $-1 #
coedge $-1 $123 $195 $189 $281 reversed $187 $-1 #
vertex $-1 $124 $291 #
straight-curve $-1 0 34.924256776615842 10.4304868211102 -1 0 0 I I #
coedge $-1 $125 $190 $127 $209 reversed $76 $-1 #
vertex $-1 $201 $292 #
straight-curve $-1 0 -34.924256776615842 10.4304868211102 1 0 0 I I #
edge $-1 $130 -10.4304868211102 $198 10.4304868211102 $127 $293 forward 7 unknown #
edge $-1 $131 -10.4304868211102 $197 10.4304868211102 $128 $294 forward 7 unknown #
point $-1 51.328470717490156 -34.924256776615842 10.4304868211102 #
point $-1 51.328470717490156 34.924256776615842 10.4304868211102 #
face $-1 $-1 $148 $19 $-1 $295 reversed single #
loop $-1 $-1 $229 $133 #
plane-surface $-1 0 6.6012568848527557 0 0 -1 0 0 0 -1 forward_v I I I I #
coedge $-1 $296 $227 $230 $297 forward $134 $-1 #
coedge $-1 $233 $136 $137 $221 reversed $84 $-1 #
coedge $-1 $227 $296 $136 $219 reversed $134 $-1 #
edge $-1 $234 -102.65694143498031 $298 102.65694143498031 $218 $299 forward 7 unknown #
coedge $-1 $138 $137 $296 $300 forward $53 $-1 #
edge $-1 $225 -205.31388286996062 $298 205.31388286996062 $217 $301 forward 7 unknown #
coedge $-1 $230 $229 $138 $223 reversed $214 $-1 #
edge $-1 $302 -205.31388286996062 $224 205.31388286996062 $222 $303 forward 7 unknown #
vertex $-1 $140 $304 #
vertex $-1 $236 $305 #
straight-curve $-1 205.31388286996062 0 -102.65694143498031 0 -1 0 I I #
coedge $-1 $216 $218 $141 $228 reversed $134 $-1 #
edge $-1 $231 -6.6012568848527557 $234 6.6012568848527557 $227 $306 forward 7 unknown #
coedge $-1 $222 $142 $147 $237 forward $214 $-1 #
coedge $-1 $142 $222 $216 $297 reversed $214 $-1 #
vertex $-1 $143 $307 #
straight-curve $-1 0 6.6012568848527557 102.65694143498031 -1 0 0 I I #
coedge $-1 $144 $217 $146 $236 reversed $84 $-1 #
vertex $-1 $228 $308 #
straight-curve $-1 0 -6.6012568848527557 102.65694143498031 1 0 0 I I #
edge $-1 $149 -102.65694143498031 $225 102.65694143498031 $146 $309 forward 7 unknown #
edge $-1 $150 -102.65694143498031 $224 102.65694143498031 $147 $310 forward 7 unknown #
point $-1 205.31388286996062 -6.6012568848527557 102.65694143498031 #
point $-1 205.31388286996062 6.6012568848527557 102.65694143498031 #
coedge $-1 $240 $240 $-1 $311 reversed $152 $-1 #
vertex $-1 $154 $312 #
ellipse-curve $-1 0 0 -0.5 0 0 -1 1 0 0 1 I I #
point $-1 1 0 -3.6093478194524984 #
face $-1 $-1 $172 $21 $-1 $313 reversed single #
loop $-1 $-1 $260 $157 #
plane-surface $-1 0 6.9331582966462717 0 0 -1 0 0 0 -1 forward_v I I I I #
coedge $-1 $314 $258 $261 $315 forward $158 $-1 #
coedge $-1 $264 $160 $161 $252 reversed $97 $-1 #
coedge $-1 $258 $314 $160 $250 reversed $158 $-1 #
edge $-1 $265 -102.65694143498031 $316 102.65694143498031 $249 $317 forward 7 unknown #
coedge $-1 $162 $161 $314 $318 forward $62 $-1 #
edge $-1 $256 -205.31388286996062 $316 205.31388286996062 $248 $319 forward 7 unknown #
coedge $-1 $261 $260 $162 $254 reversed $245 $-1 #
edge $-1 $320 -205.31388286996062 $255 205.31388286996062 $253 $321 forward 7 unknown #
vertex $-1 $164 $322 #
vertex $-1 $267 $323 #
straight-curve $-1 205.31388286996062 0 -102.65694143498031 0 -1 0 I I #
coedge $-1 $247 $249 $165 $259 reversed $158 $-1 #
edge $-1 $262 -6.9331582966462717 $265 6.9331582966462717 $258 $324 forward 7 unknown #
coedge $-1 $253 $166 $171 $268 forward $245 $-1 #
coedge $-1 $166 $253 $247 $315 reversed $245 $-1 #
vertex $-1 $167 $325 #
straight-curve $-1 0 6.9331582966462717 102.65694143498031 -1 0 0 I I #
coedge $-1 $168 $248 $170 $267 reversed $97 $-1 #
vertex $-1 $259 $326 #
straight-curve $-1 0 -6.9331582966462717 102.65694143498031 1 0 0 I I #
edge $-1 $173 -102.65694143498031 $256 102.65694143498031 $170 $327 forward 7 unknown #
edge $-1 $174 -102.65694143498031 $255 102.65694143498031 $171 $328 forward 7 unknown #
point $-1 205.31388286996062 -6.9331582966462717 102.65694143498031 #
point $-1 205.31388286996062 6.9331582966462717 102.65694143498031 #
coedge $-1 $271 $271 $-1 $329 reversed $176 $-1 #
vertex $-1 $178 $330 #
ellipse-curve $-1 0 0 -0.5 0 0 -1 1 0 0 1 I I #
point $-1 1 0 -3.0036164433729056 #
coedge $-1 $275 $275 $-1 $331 reversed $181 $-1 #
vertex $-1 $183 $332 #
ellipse-curve $-1 0 0 -0.5 0 0 -1 1 0 0 1 I I #
point $-1 1 0 -3.0036164433729056 #
plane-surface $-1 51.328470717490156 0 0 -1 0 0 0 0 1 forward_v I I I I #
coedge $-1 $191 $189 $193 $284 reversed $115 $-1 #
edge $-1 $204 -10.4304868211102 $286 10.4304868211102 $203 $333 forward 7 unknown #
vertex $-1 $284 $334 #
straight-curve $-1 -51.328470717490156 -34.924256776615842 0 0 0 -1 I I #
edge $-1 $282 -34.924256776615842 $286 34.924256776615842 $280 $335 forward 7 unknown #
straight-curve $-1 0 -34.924256776615842 -10.4304868211102 -1 0 0 I I #
vertex $-1 $196 $336 #
straight-curve $-1 0 34.924256776615842 -10.4304868211102 1 0 0 I I #
point $-1 51.328470717490156 34.924256776615842 -10.4304868211102 #
point $-1 51.328470717490156 -34.924256776615842 -10.4304868211102 #
straight-curve $-1 -51.328470717490156 0 10.4304868211102 0 -1 0 I I #
point $-1 -51.328470717490156 34.924256776615842 10.4304868211102 #
point $-1 -51.328470717490156 -34.924256776615842 10.4304868211102 #
straight-curve $-1 51.328470717490156 -34.924256776615842 0 0 0 -1 I I #
straight-curve $-1 51.328470717490156 34.924256776615842 0 0 0 -1 I I #
plane-surface $-1 205.31388286996062 0 0 -1 0 0 0 0 1 forward_v I I I I #
coedge $-1 $218 $216 $220 $300 reversed $134 $-1 #
edge $-1 $231 -102.65694143498031 $302 102.65694143498031 $230 $337 forward 7 unknown #
vertex $-1 $300 $338 #
straight-curve $-1 -205.31388286996062 -6.6012568848527557 0 0 0 -1 I I #
edge $-1 $298 -6.6012568848527557 $302 6.6012568848527557 $296 $339 forward 7 unknown #
straight-curve $-1 0 -6.6012568848527557 -102.65694143498031 -1 0 0 I I #
vertex $-1 $223 $340 #
straight-curve $-1 0 6.6012568848527557 -102.65694143498031 1 0 0 I I #
point $-1 205.31388286996062 6.6012568848527557 -102.65694143498031 #
point $-1 205.31388286996062 -6.6012568848527557 -102.65694143498031 #
straight-curve $-1 -205.31388286996062 0 102.65694143498031 0 -1 0 I I #
point $-1 -205.31388286996062 6.6012568848527557 102.65694143498031 #
point $-1 -205.31388286996062 -6.6012568848527557 102.65694143498031 #
straight-curve $-1 205.31388286996062 -6.6012568848527557 0 0 0 -1 I I #
straight-curve $-1 205.31388286996062 6.6012568848527557 0 0 0 -1 I I #
edge $-1 $341 1 $341 0 $240 $-1 forward 7 unknown #
point $-1 1 0 -0.5 #
plane-surface $-1 205.31388286996062 0 0 -1 0 0 0 0 1 forward_v I I I I #
coedge $-1 $249 $247 $251 $318 reversed $158 $-1 #
edge $-1 $262 -102.65694143498031 $320 102.65694143498031 $261 $342 forward 7 unknown #
vertex $-1 $318 $343 #
straight-curve $-1 -205.31388286996062 -6.9331582966462717 0 0 0 -1 I I #
edge $-1 $316 -6.9331582966462717 $320 6.9331582966462717 $314 $344 forward 7 unknown #
straight-curve $-1 0 -6.9331582966462717 -102.65694143498031 -1 0 0 I I #
vertex $-1 $254 $345 #
straight-curve $-1 0 6.9331582966462717 -102.65694143498031 1 0 0 I I #
point $-1 205.31388286996062 6.9331582966462717 -102.65694143498031 #
point $-1 205.31388286996062 -6.9331582966462717 -102.65694143498031 #
straight-curve $-1 -205.31388286996062 0 102.65694143498031 0 -1 0 I I #
point $-1 -205.31388286996062 6.9331582966462717 102.65694143498031 #
point $-1 -205.31388286996062 -6.9331582966462717 102.65694143498031 #
straight-curve $-1 205.31388286996062 -6.9331582966462717 0 0 0 -1 I I #
straight-curve $-1 205.31388286996062 6.9331582966462717 0 0 0 -1 I I #
edge $-1 $346 1 $346 0 $271 $-1 forward 7 unknown #
point $-1 1 0 -0.5 #
edge $-1 $347 1 $347 0 $275 $-1 forward 7 unknown #
point $-1 1 0 -0.5 #
straight-curve $-1 -51.328470717490156 34.924256776615842 0 0 0 -1 I I #
point $-1 -51.328470717490156 -34.924256776615842 -10.4304868211102 #
straight-curve $-1 -51.328470717490156 0 -10.4304868211102 0 1 0 I I #
point $-1 -51.328470717490156 34.924256776615842 -10.4304868211102 #
straight-curve $-1 -205.31388286996062 6.6012568848527557 0 0 0 -1 I I #
point $-1 -205.31388286996062 -6.6012568848527557 -102.65694143498031 #
straight-curve $-1 -205.31388286996062 0 -102.65694143498031 0 1 0 I I #
point $-1 -205.31388286996062 6.6012568848527557 -102.65694143498031 #
vertex $-1 $311 $348 #
straight-curve $-1 -205.31388286996062 6.9331582966462717 0 0 0 -1 I I #
point $-1 -205.31388286996062 -6.9331582966462717 -102.65694143498031 #
straight-curve $-1 -205.31388286996062 0 -102.65694143498031 0 1 0 I I #
point $-1 -205.31388286996062 6.9331582966462717 -102.65694143498031 #
vertex $-1 $329 $349 #
vertex $-1 $331 $350 #
point $-1 0 0 0.5 #
point $-1 0 0 0.5 #
point $-1 0 0 0.5 #
End-of-ACIS-data 