500 0 15 0           
7 Unknown 11 ACIS 5.0 NT 24 Thu Mar 25 15:44:55 1999 
-1 9.9999999999999995e-007 1e-010 
body $-1 $15 $-1 $16 #
body $-1 $17 $-1 $18 #
body $-1 $19 $-1 $20 #
body $-1 $21 $-1 $22 #
body $-1 $23 $-1 $24 #
body $-1 $25 $-1 $26 #
body $-1 $27 $-1 $28 #
body $-1 $29 $-1 $30 #
body $-1 $31 $-1 $32 #
body $-1 $33 $-1 $34 #
body $-1 $35 $-1 $36 #
body $-1 $37 $-1 $38 #
body $-1 $39 $-1 $40 #
body $-1 $41 $-1 $42 #
body $-1 $43 $-1 $44 #
lump $-1 $-1 $45 $0 #
transform $-1 1 0 0 0 1 0 0 0 1 45.592211676381723 25.495851567604099 6.4976411537703047 1 rotate no_reflect no_shear #
lump $-1 $-1 $46 $1 #
transform $-1 1 0 0 0 1 0 0 0 1 45.592211676381723 25.495851567604099 6.4976411537703047 1 rotate no_reflect no_shear #
lump $-1 $-1 $47 $2 #
transform $-1 1 0 0 0 1 0 0 0 1 45.592211676381723 25.495851567604099 6.4976411537703047 1 rotate no_reflect no_shear #
lump $-1 $-1 $48 $3 #
transform $-1 1 0 0 0 1 0 0 0 1 45.592211676381723 25.495851567604099 6.4976411537703047 1 rotate no_reflect no_shear #
lump $-1 $-1 $49 $4 #
transform $-1 1 0 0 0 1 0 0 0 1 45.592211676381723 25.495851567604099 6.4976411537703047 1 rotate no_reflect no_shear #
lump $-1 $-1 $50 $5 #
transform $-1 1 0 0 0 1 0 0 0 1 45.592211676381723 25.495851567604099 6.4976411537703047 1 rotate no_reflect no_shear #
lump $-1 $-1 $51 $6 #
transform $-1 1 0 0 0 1 0 0 0 1 45.592211676381723 25.495851567604099 6.4976411537703047 1 rotate no_reflect no_shear #
lump $-1 $-1 $52 $7 #
transform $-1 1 0 0 0 1 0 0 0 1 45.592211676381723 25.495851567604099 6.4976411537703047 1 rotate no_reflect no_shear #
lump $-1 $-1 $53 $8 #
transform $-1 1 0 0 0 1 0 0 0 1 45.592211676381723 25.495851567604099 6.4976411537703047 1 rotate no_reflect no_shear #
lump $-1 $-1 $54 $9 #
transform $-1 1 0 0 0 1 0 0 0 1 45.592211676381723 25.495851567604099 6.4976411537703047 1 rotate no_reflect no_shear #
lump $-1 $-1 $55 $10 #
transform $-1 1 0 0 0 1 0 0 0 1 45.592211676381723 25.495851567604099 6.4976411537703047 1 rotate no_reflect no_shear #
lump $-1 $-1 $56 $11 #
transform $-1 1 0 0 0 1 0 0 0 1 45.592211676381723 25.495851567604099 6.4976411537703047 1 rotate no_reflect no_shear #
lump $-1 $-1 $57 $12 #
transform $-1 1 0 0 0 1 0 0 0 1 45.592211676381723 25.495851567604099 6.4976411537703047 1 rotate no_reflect no_shear #
lump $-1 $-1 $58 $13 #
transform $-1 1 0 0 0 1 0 0 0 1 45.592211676381723 25.495851567604099 6.4976411537703047 1 rotate no_reflect no_shear #
lump $-1 $-1 $59 $14 #
transform $-1 1 0 0 0 1 0 0 0 1 45.592211676381723 25.495851567604099 6.4976411537703047 1 rotate no_reflect no_shear #
shell $-1 $-1 $-1 $60 $-1 $15 #
shell $-1 $-1 $-1 $61 $-1 $17 #
shell $-1 $-1 $-1 $62 $-1 $19 #
shell $-1 $-1 $-1 $63 $-1 $21 #
shell $-1 $-1 $-1 $64 $-1 $23 #
shell $-1 $-1 $-1 $65 $-1 $25 #
shell $-1 $-1 $-1 $66 $-1 $27 #
shell $-1 $-1 $-1 $67 $-1 $29 #
shell $-1 $-1 $-1 $68 $-1 $31 #
shell $-1 $-1 $-1 $69 $-1 $33 #
shell $-1 $-1 $-1 $70 $-1 $35 #
shell $-1 $-1 $-1 $71 $-1 $37 #
shell $-1 $-1 $-1 $72 $-1 $39 #
shell $-1 $-1 $-1 $73 $-1 $41 #
shell $-1 $-1 $-1 $74 $-1 $43 #
face $-1 $75 $76 $45 $-1 $77 forward single #
face $-1 $78 $79 $46 $-1 $80 forward single #
face $-1 $81 $82 $47 $-1 $83 forward single #
face $-1 $84 $85 $48 $-1 $86 reversed single #
face $-1 $87 $88 $49 $-1 $89 forward single #
face $-1 $90 $91 $50 $-1 $92 forward single #
face $-1 $93 $94 $51 $-1 $95 reversed single #
face $-1 $96 $97 $52 $-1 $98 forward single #
face $-1 $99 $100 $53 $-1 $101 forward single #
face $-1 $102 $103 $54 $-1 $104 reversed single #
face $-1 $105 $106 $55 $-1 $107 forward single #
face $-1 $108 $109 $56 $-1 $110 forward single #
face $-1 $111 $112 $57 $-1 $113 reversed single #
face $-1 $114 $115 $58 $-1 $116 forward single #
face $-1 $117 $118 $59 $-1 $119 forward single #
face $-1 $120 $121 $45 $-1 $122 reversed single #
loop $-1 $-1 $123 $60 #
plane-surface $-1 0 0 6.4976411537703047 0 0 1 1 0 0 forward_v I I I I #
face $-1 $124 $125 $46 $-1 $126 forward single #
loop $-1 $-1 $127 $61 #
plane-surface $-1 0 -25.495851567604099 0 0 1 0 0 0 1 forward_v I I I I #
face $-1 $128 $129 $47 $-1 $130 forward single #
loop $-1 $-1 $131 $62 #
plane-surface $-1 0 25.495851567604099 0 0 -1 0 0 0 -1 forward_v I I I I #
face $-1 $132 $133 $48 $-1 $134 reversed single #
loop $-1 $-1 $135 $63 #
plane-surface $-1 25.419324029486134 -7.0416257599876033 128.30423629605946 0 -1 0 -0.5877852598018023 0 -0.80901698891910034 forward_v I I I I #
face $-1 $136 $137 $49 $-1 $138 forward single #
loop $-1 $139 $140 $64 #
cone-surface $-1 41.213849702349613 -11.677275146513967 2.9578559600938354 -0.5877852598018023 0 -0.80901698891910034 0.40450849445955017 0 -0.29389262990090115 1 I I 0 1 0.5 forward I I I I #
face $-1 $141 $142 $50 $-1 $143 forward single #
loop $-1 $144 $145 $65 #
cone-surface $-1 41.213849702349613 -8.8958855145981488 2.9578559600938354 -0.5877852598018023 0 -0.80901698891910034 0.40450849445955017 0 -0.29389262990090115 1 I I 0 1 0.5 forward I I I I #
face $-1 $146 $147 $51 $-1 $148 reversed single #
loop $-1 $-1 $149 $66 #
plane-surface $-1 25.419324029486134 11.416975256963967 128.30423629605946 0 -1 0 -0.5877852598018023 0 -0.80901698891910034 forward_v I I I I #
face $-1 $150 $151 $52 $-1 $152 forward single #
loop $-1 $153 $154 $67 #
cone-surface $-1 41.213849702349613 6.7813258704376054 2.9578559600938354 -0.5877852598018023 0 -0.80901698891910034 0.40450849445955017 0 -0.29389262990090115 1 I I 0 1 0.5 forward I I I I #
face $-1 $155 $156 $53 $-1 $157 forward single #
loop $-1 $158 $159 $68 #
cone-surface $-1 41.213849702349613 9.56271550235342 2.9578559600938354 -0.5877852598018023 0 -0.80901698891910034 0.40450849445955017 0 -0.29389262990090115 1 I I 0 1 0.5 forward I I I I #
face $-1 $160 $161 $54 $-1 $162 reversed single #
loop $-1 $-1 $163 $69 #
plane-surface $-1 -99.189071646663308 -13.531534901124513 74.707376325777858 0 1 0 -0.5877852598018023 0 0.80901698891910034 forward_v I I I I #
face $-1 $164 $165 $55 $-1 $166 forward single #
loop $-1 $167 $168 $70 #
cone-surface $-1 -41.213849702349606 -11.677275146513967 2.9578559600938354 0.5877852598018023 0 -0.80901698891910034 0.40450849445955017 0 0.29389262990090115 1 I I 0 1 0.5 forward I I I I #
face $-1 $169 $170 $56 $-1 $171 forward single #
loop $-1 $172 $173 $71 #
cone-surface $-1 -41.213849702349606 -8.8958855145981488 2.9578559600938354 0.5877852598018023 0 -0.80901698891910034 0.40450849445955017 0 0.29389262990090115 1 I I 0 1 0.5 forward I I I I #
face $-1 $174 $175 $57 $-1 $176 reversed single #
loop $-1 $-1 $177 $72 #
plane-surface $-1 -99.189071646663308 4.9270661158270581 74.707376325777858 0 1 0 -0.5877852598018023 0 0.80901698891910034 forward_v I I I I #
face $-1 $178 $179 $58 $-1 $180 forward single #
loop $-1 $181 $182 $73 #
cone-surface $-1 -41.213849702349606 6.7813258704376054 2.9578559600938354 0.5877852598018023 0 -0.80901698891910034 0.40450849445955017 0 0.29389262990090115 1 I I 0 1 0.5 forward I I I I #
face $-1 $183 $184 $59 $-1 $185 forward single #
loop $-1 $186 $187 $74 #
cone-surface $-1 -41.213849702349606 9.56271550235342 2.9578559600938354 0.5877852598018023 0 -0.80901698891910034 0.40450849445955017 0 0.29389262990090115 1 I I 0 1 0.5 forward I I I I #
face $-1 $188 $189 $45 $-1 $190 reversed single #
loop $-1 $-1 $191 $75 #
plane-surface $-1 0 0 -6.4976411537703047 0 0 1 1 0 0 forward_v I I I I #
coedge $-1 $192 $193 $194 $195 forward $76 $-1 #
face $-1 $196 $197 $46 $-1 $198 reversed single #
loop $-1 $-1 $199 $78 #
plane-surface $-1 0 0 6.4976411537703047 0 0 1 1 0 0 forward_v I I I I #
coedge $-1 $200 $201 $202 $203 forward $79 $-1 #
face $-1 $204 $205 $47 $-1 $206 reversed single #
loop $-1 $-1 $207 $81 #
plane-surface $-1 0 0 6.4976411537703047 0 0 1 1 0 0 forward_v I I I I #
coedge $-1 $208 $209 $210 $211 forward $82 $-1 #
face $-1 $212 $213 $48 $-1 $214 reversed single #
loop $-1 $-1 $215 $84 #
plane-surface $-1 -28.177535940795458 -10.286580330556058 54.534488678882283 0.5877852598018023 0 0.80901698891910034 0.80901698891910034 0 -0.5877852598018023 forward_v I I I I #
coedge $-1 $216 $217 $218 $219 reversed $85 $-1 #
face $-1 $-1 $220 $49 $-1 $221 forward single #
loop $-1 $222 $223 $87 #
cone-surface $-1 40.514891642241963 -11.677275146513967 1.9958227417724057 -0.5877852598018023 0 -0.80901698891910034 0.20225424722977509 0 -0.14694631495045057 1 I I -0.70710678118654746 0.70710678118654746 0.25 forward I I I I #
loop $-1 $-1 $224 $64 #
coedge $-1 $140 $140 $225 $226 reversed $88 $-1 #
face $-1 $-1 $227 $50 $-1 $228 forward single #
loop $-1 $229 $230 $90 #
cone-surface $-1 40.514891642241963 -8.8958855145981488 1.9958227417724057 -0.5877852598018023 0 -0.80901698891910034 0.20225424722977509 0 -0.14694631495045057 1 I I -0.70710678118654746 0.70710678118654746 0.25 forward I I I I #
loop $-1 $-1 $231 $65 #
coedge $-1 $145 $145 $232 $233 reversed $91 $-1 #
face $-1 $234 $235 $51 $-1 $236 reversed single #
loop $-1 $-1 $237 $93 #
plane-surface $-1 -28.177535940795458 8.1720206863955127 54.534488678882283 0.5877852598018023 0 0.80901698891910034 0.80901698891910034 0 -0.5877852598018023 forward_v I I I I #
coedge $-1 $238 $239 $240 $241 reversed $94 $-1 #
face $-1 $-1 $242 $52 $-1 $243 forward single #
loop $-1 $244 $245 $96 #
cone-surface $-1 40.514891642241963 6.7813258704376054 1.9958227417724057 -0.5877852598018023 0 -0.80901698891910034 0.20225424722977509 0 -0.14694631495045057 1 I I -0.70710678118654746 0.70710678118654746 0.25 forward I I I I #
loop $-1 $-1 $246 $67 #
coedge $-1 $154 $154 $247 $248 reversed $97 $-1 #
face $-1 $-1 $249 $53 $-1 $250 forward single #
loop $-1 $251 $252 $99 #
cone-surface $-1 40.514891642241963 9.56271550235342 1.9958227417724057 -0.5877852598018023 0 -0.80901698891910034 0.20225424722977509 0 -0.14694631495045057 1 I I -0.70710678118654746 0.70710678118654746 0.25 forward I I I I #
loop $-1 $-1 $253 $68 #
coedge $-1 $159 $159 $254 $255 reversed $100 $-1 #
face $-1 $256 $257 $54 $-1 $258 reversed single #
loop $-1 $-1 $259 $102 #
plane-surface $-1 -45.592211676381716 -10.286580330556058 0.93762870860068404 -0.5877852598018023 0 0.80901698891910034 0.80901698891910034 0 0.5877852598018023 forward_v I I I I #
coedge $-1 $260 $261 $262 $263 reversed $103 $-1 #
face $-1 $-1 $264 $55 $-1 $265 forward single #
loop $-1 $266 $267 $105 #
cone-surface $-1 -40.514891642241956 -11.677275146513967 1.9958227417724057 0.5877852598018023 0 -0.80901698891910034 0.20225424722977509 0 0.14694631495045057 1 I I -0.70710678118654746 0.70710678118654746 0.25 forward I I I I #
loop $-1 $-1 $268 $70 #
coedge $-1 $168 $168 $269 $270 reversed $106 $-1 #
face $-1 $-1 $271 $56 $-1 $272 forward single #
loop $-1 $273 $274 $108 #
cone-surface $-1 -40.514891642241956 -8.8958855145981488 1.9958227417724057 0.5877852598018023 0 -0.80901698891910034 0.20225424722977509 0 0.14694631495045057 1 I I -0.70710678118654746 0.70710678118654746 0.25 forward I I I I #
loop $-1 $-1 $275 $71 #
coedge $-1 $173 $173 $276 $277 reversed $109 $-1 #
face $-1 $278 $279 $57 $-1 $280 reversed single #
loop $-1 $-1 $281 $111 #
plane-surface $-1 -45.592211676381716 8.1720206863955127 0.93762870860068404 -0.5877852598018023 0 0.80901698891910034 0.80901698891910034 0 0.5877852598018023 forward_v I I I I #
coedge $-1 $282 $283 $284 $285 reversed $112 $-1 #
face $-1 $-1 $286 $58 $-1 $287 forward single #
loop $-1 $288 $289 $114 #
cone-surface $-1 -40.514891642241956 6.7813258704376054 1.9958227417724057 0.5877852598018023 0 -0.80901698891910034 0.20225424722977509 0 0.14694631495045057 1 I I -0.70710678118654746 0.70710678118654746 0.25 forward I I I I #
loop $-1 $-1 $290 $73 #
coedge $-1 $182 $182 $291 $292 reversed $115 $-1 #
face $-1 $-1 $293 $59 $-1 $294 forward single #
loop $-1 $295 $296 $117 #
cone-surface $-1 -40.514891642241956 9.56271550235342 1.9958227417724057 0.5877852598018023 0 -0.80901698891910034 0.20225424722977509 0 0.14694631495045057 1 I I -0.70710678118654746 0.70710678118654746 0.25 forward I I I I #
loop $-1 $-1 $297 $74 #
coedge $-1 $187 $187 $298 $299 reversed $118 $-1 #
face $-1 $300 $301 $45 $-1 $302 reversed single #
loop $-1 $-1 $303 $120 #
plane-surface $-1 0 -25.495851567604099 0 0 1 0 0 0 1 forward_v I I I I #
coedge $-1 $304 $305 $306 $307 forward $121 $-1 #
coedge $-1 $308 $123 $309 $310 forward $76 $-1 #
coedge $-1 $123 $308 $311 $312 forward $76 $-1 #
coedge $-1 $313 $314 $123 $195 reversed $315 $-1 #
edge $-1 $316 -25.495851567604099 $317 25.495851567604099 $194 $318 forward 7 unknown #
face $-1 $319 $320 $46 $-1 $321 reversed single #
loop $-1 $-1 $322 $124 #
plane-surface $-1 -45.592211676381723 0 0 1 0 0 0 0 -1 forward_v I I I I #
coedge $-1 $323 $324 $201 $325 forward $125 $-1 #
coedge $-1 $326 $127 $327 $328 reversed $79 $-1 #
coedge $-1 $127 $326 $199 $325 reversed $79 $-1 #
coedge $-1 $329 $330 $127 $203 reversed $331 $-1 #
edge $-1 $332 -6.4976411537703047 $333 6.4976411537703047 $202 $334 forward 7 unknown #
face $-1 $335 $336 $47 $-1 $337 reversed single #
loop $-1 $-1 $338 $128 #
plane-surface $-1 -43.777722530309624 32.533102118256629 0 0 -1 0 0 0 -1 forward_v I I I I #
coedge $-1 $339 $340 $208 $341 forward $129 $-1 #
coedge $-1 $342 $131 $207 $341 reversed $82 $-1 #
coedge $-1 $131 $342 $343 $344 reversed $82 $-1 #
coedge $-1 $345 $346 $131 $211 reversed $336 $-1 #
edge $-1 $347 -6.4976411537703047 $348 6.4976411537703047 $210 $349 forward 7 unknown #
face $-1 $350 $351 $48 $-1 $352 forward single #
loop $-1 $-1 $353 $132 #
plane-surface $-1 25.419324029486134 -13.531534901124513 128.30423629605946 0 1 0 0.5877852598018023 0 0.80901698891910034 forward_v I I I I #
coedge $-1 $354 $355 $356 $357 reversed $133 $-1 #
coedge $-1 $217 $135 $358 $359 reversed $85 $-1 #
coedge $-1 $135 $216 $354 $360 reversed $85 $-1 #
coedge $-1 $356 $361 $135 $219 forward $351 $-1 #
edge $-1 $362 -32.882549661638656 $363 -25.229849203888847 $218 $364 forward 7 unknown #
loop $-1 $-1 $225 $136 #
plane-surface $-1 -28.177535940795458 -10.286580330556058 54.534488678882283 0.5877852598018023 0 0.80901698891910034 0.80901698891910034 0 -0.5877852598018023 forward_v I I I I #
loop $-1 $-1 $365 $87 #
coedge $-1 $223 $223 $224 $366 reversed $137 $-1 #
coedge $-1 $224 $224 $223 $366 forward $139 $-1 #
coedge $-1 $225 $225 $140 $226 forward $220 $-1 #
edge $-1 $367 0 $367 6.2831853071796004 $225 $368 forward 7 unknown #
loop $-1 $-1 $232 $141 #
plane-surface $-1 -28.177535940795458 -10.286580330556058 54.534488678882283 0.5877852598018023 0 0.80901698891910034 0.80901698891910034 0 -0.5877852598018023 forward_v I I I I #
loop $-1 $-1 $369 $90 #
coedge $-1 $230 $230 $231 $370 reversed $142 $-1 #
coedge $-1 $231 $231 $230 $370 forward $144 $-1 #
coedge $-1 $232 $232 $145 $233 forward $227 $-1 #
edge $-1 $371 0 $371 6.2831853071796004 $232 $372 forward 7 unknown #
face $-1 $373 $374 $51 $-1 $375 reversed single #
loop $-1 $-1 $376 $146 #
plane-surface $-1 25.419324029486134 4.9270661158270581 128.30423629605946 0 1 0 0.5877852598018023 0 0.80901698891910034 forward_v I I I I #
coedge $-1 $377 $378 $379 $380 reversed $147 $-1 #
coedge $-1 $239 $149 $381 $382 reversed $94 $-1 #
coedge $-1 $149 $238 $377 $383 reversed $94 $-1 #
coedge $-1 $379 $384 $149 $241 forward $385 $-1 #
edge $-1 $386 -32.882549661638656 $387 -25.229849203888847 $240 $388 forward 7 unknown #
loop $-1 $-1 $247 $150 #
plane-surface $-1 -28.177535940795458 8.1720206863955127 54.534488678882283 0.5877852598018023 0 0.80901698891910034 0.80901698891910034 0 -0.5877852598018023 forward_v I I I I #
loop $-1 $-1 $389 $96 #
coedge $-1 $245 $245 $246 $390 reversed $151 $-1 #
coedge $-1 $246 $246 $245 $390 forward $153 $-1 #
coedge $-1 $247 $247 $154 $248 forward $242 $-1 #
edge $-1 $391 0 $391 6.2831853071796004 $247 $392 forward 7 unknown #
loop $-1 $-1 $254 $155 #
plane-surface $-1 -28.177535940795458 8.1720206863955127 54.534488678882283 0.5877852598018023 0 0.80901698891910034 0.80901698891910034 0 -0.5877852598018023 forward_v I I I I #
loop $-1 $-1 $393 $99 #
coedge $-1 $252 $252 $253 $394 reversed $156 $-1 #
coedge $-1 $253 $253 $252 $394 forward $158 $-1 #
coedge $-1 $254 $254 $159 $255 forward $249 $-1 #
edge $-1 $395 0 $395 6.2831853071796004 $254 $396 forward 7 unknown #
face $-1 $397 $398 $54 $-1 $399 reversed single #
loop $-1 $-1 $400 $160 #
plane-surface $-1 -99.189071646663308 -7.0416257599876033 74.707376325777858 0 -1 0 0.5877852598018023 0 -0.80901698891910034 forward_v I I I I #
coedge $-1 $401 $402 $403 $404 reversed $161 $-1 #
coedge $-1 $261 $163 $405 $406 reversed $103 $-1 #
coedge $-1 $163 $260 $401 $407 reversed $103 $-1 #
coedge $-1 $403 $408 $163 $263 forward $409 $-1 #
edge $-1 $410 4.0023241469499311 $411 11.655024604699761 $262 $412 forward 7 unknown #
loop $-1 $-1 $269 $164 #
plane-surface $-1 -45.592211676381716 -10.286580330556058 0.93762870860068404 -0.5877852598018023 0 0.80901698891910034 0.80901698891910034 0 0.5877852598018023 forward_v I I I I #
loop $-1 $-1 $413 $105 #
coedge $-1 $267 $267 $268 $414 reversed $165 $-1 #
coedge $-1 $268 $268 $267 $414 forward $167 $-1 #
coedge $-1 $269 $269 $168 $270 forward $264 $-1 #
edge $-1 $415 0 $415 6.2831853071796004 $269 $416 forward 7 unknown #
loop $-1 $-1 $276 $169 #
plane-surface $-1 -45.592211676381716 -10.286580330556058 0.93762870860068404 -0.5877852598018023 0 0.80901698891910034 0.80901698891910034 0 0.5877852598018023 forward_v I I I I #
loop $-1 $-1 $417 $108 #
coedge $-1 $274 $274 $275 $418 reversed $170 $-1 #
coedge $-1 $275 $275 $274 $418 forward $172 $-1 #
coedge $-1 $276 $276 $173 $277 forward $271 $-1 #
edge $-1 $419 0 $419 6.2831853071796004 $276 $420 forward 7 unknown #
face $-1 $421 $422 $57 $-1 $423 forward single #
loop $-1 $-1 $424 $174 #
plane-surface $-1 -99.189071646663308 11.416975256963967 74.707376325777858 0 -1 0 0.5877852598018023 0 -0.80901698891910034 forward_v I I I I #
coedge $-1 $425 $426 $427 $428 reversed $175 $-1 #
coedge $-1 $283 $177 $429 $430 reversed $112 $-1 #
coedge $-1 $177 $282 $425 $431 reversed $112 $-1 #
coedge $-1 $427 $432 $177 $285 forward $422 $-1 #
edge $-1 $433 4.0023241469499311 $434 11.655024604699761 $284 $435 forward 7 unknown #
loop $-1 $-1 $291 $178 #
plane-surface $-1 -45.592211676381716 8.1720206863955127 0.93762870860068404 -0.5877852598018023 0 0.80901698891910034 0.80901698891910034 0 0.5877852598018023 forward_v I I I I #
loop $-1 $-1 $436 $114 #
coedge $-1 $289 $289 $290 $437 reversed $179 $-1 #
coedge $-1 $290 $290 $289 $437 forward $181 $-1 #
coedge $-1 $291 $291 $182 $292 forward $286 $-1 #
edge $-1 $438 0 $438 6.2831853071796004 $291 $439 forward 7 unknown #
loop $-1 $-1 $298 $183 #
plane-surface $-1 -45.592211676381716 8.1720206863955127 0.93762870860068404 -0.5877852598018023 0 0.80901698891910034 0.80901698891910034 0 0.5877852598018023 forward_v I I I I #
loop $-1 $-1 $440 $117 #
coedge $-1 $296 $296 $297 $441 reversed $184 $-1 #
coedge $-1 $297 $297 $296 $441 forward $186 $-1 #
coedge $-1 $298 $298 $187 $299 forward $293 $-1 #
edge $-1 $442 0 $442 6.2831853071796004 $298 $443 forward 7 unknown #
face $-1 $444 $445 $45 $-1 $446 reversed single #
loop $-1 $-1 $447 $188 #
plane-surface $-1 -45.592211676381723 0 0 1 0 0 0 0 -1 forward_v I I I I #
coedge $-1 $448 $311 $449 $450 forward $189 $-1 #
coedge $-1 $451 $191 $448 $452 forward $121 $-1 #
coedge $-1 $191 $451 $453 $454 forward $121 $-1 #
coedge $-1 $314 $313 $191 $307 reversed $315 $-1 #
edge $-1 $455 -25.495851567604099 $456 25.495851567604099 $306 $457 forward 7 unknown #
coedge $-1 $193 $192 $458 $459 forward $76 $-1 #
coedge $-1 $460 $461 $192 $310 reversed $445 $-1 #
edge $-1 $317 -45.592211676381723 $462 45.592211676381723 $309 $463 forward 7 unknown #
coedge $-1 $303 $464 $193 $312 reversed $189 $-1 #
edge $-1 $465 -45.592211676381723 $316 45.592211676381723 $311 $466 forward 7 unknown #
coedge $-1 $306 $194 $464 $467 forward $315 $-1 #
coedge $-1 $194 $306 $460 $468 reversed $315 $-1 #
loop $-1 $-1 $313 $444 #
vertex $-1 $195 $469 #
vertex $-1 $195 $470 #
straight-curve $-1 45.592211676381723 0 6.4976411537703047 0 1 0 I I #
face $-1 $471 $331 $46 $-1 $472 reversed single #
loop $-1 $-1 $473 $196 #
plane-surface $-1 -43.777722530309624 -32.533102118256629 0 0 1 0 0 0 1 forward_v I I I I #
coedge $-1 $474 $475 $326 $476 forward $197 $-1 #
coedge $-1 $477 $199 $475 $478 forward $125 $-1 #
coedge $-1 $199 $477 $329 $479 forward $125 $-1 #
edge $-1 $332 41.963233384237526 $480 45.592211676381723 $199 $481 forward 7 unknown #
coedge $-1 $201 $200 $322 $476 reversed $79 $-1 #
coedge $-1 $482 $483 $200 $328 forward $484 $-1 #
edge $-1 $485 -45.592211676381723 $333 -41.963233384237526 $327 $486 forward 7 unknown #
coedge $-1 $487 $202 $324 $479 reversed $331 $-1 #
coedge $-1 $202 $487 $482 $488 reversed $331 $-1 #
loop $-1 $-1 $487 $319 #
vertex $-1 $325 $489 #
vertex $-1 $488 $490 #
straight-curve $-1 -41.963233384237526 -25.495851567604099 0 0 0 -1 I I #
face $-1 $491 $492 $47 $-1 $493 reversed single #
loop $-1 $-1 $210 $204 #
plane-surface $-1 -41.963233384237526 29.014476842930364 0 -1 0 0 0 0 1 forward_v I I I I #
coedge $-1 $494 $495 $496 $497 forward $205 $-1 #
coedge $-1 $498 $207 $346 $499 forward $129 $-1 #
coedge $-1 $207 $498 $500 $501 forward $129 $-1 #
edge $-1 $502 -45.592211676381723 $348 -41.963233384237526 $207 $503 forward 7 unknown #
coedge $-1 $209 $208 $504 $505 reversed $82 $-1 #
coedge $-1 $506 $507 $209 $344 forward $492 $-1 #
edge $-1 $347 41.963233384237526 $508 45.592211676381723 $343 $509 forward 7 unknown #
coedge $-1 $496 $210 $507 $510 reversed $336 $-1 #
coedge $-1 $210 $496 $339 $499 reversed $336 $-1 #
vertex $-1 $344 $511 #
vertex $-1 $499 $512 #
straight-curve $-1 -41.963233384237526 25.495851567604099 0 0 0 1 I I #
face $-1 $-1 $513 $48 $-1 $514 reversed single #
loop $-1 $-1 $218 $212 #
plane-surface $-1 0 0 6.4976411537703047 0 0 1 1 0 0 forward_v I I I I #
coedge $-1 $515 $516 $517 $518 reversed $213 $-1 #
coedge $-1 $519 $215 $217 $360 forward $133 $-1 #
coedge $-1 $215 $519 $515 $520 forward $133 $-1 #
coedge $-1 $517 $218 $215 $357 forward $351 $-1 #
edge $-1 $363 1.8983355947095744 $521 8.3882447358464844 $356 $522 forward 7 unknown #
coedge $-1 $523 $524 $216 $359 forward $513 $-1 #
edge $-1 $525 -63.214489439429045 $362 -57.654476994259426 $358 $526 forward 7 unknown #
edge $-1 $363 81.725165311749606 $525 91.184423352763446 $217 $527 forward 7 unknown #
coedge $-1 $218 $517 $523 $528 forward $351 $-1 #
vertex $-1 $219 $529 #
vertex $-1 $219 $530 #
straight-curve $-1 12.709662014743067 -7.0416257599876033 6.4976411537703029 -1 0 0 I I #
coedge $-1 $365 $365 $-1 $531 reversed $222 $-1 #
edge $-1 $532 0 $532 6.2831853071796004 $223 $533 forward 7 unknown #
vertex $-1 $226 $534 #
ellipse-curve $-1 41.765861447506815 -11.677275146513967 3.717634931185497 0.5877852598018023 0 0.80901698891910034 0.40450849445955017 0 -0.29389262990090115 1 I I #
coedge $-1 $369 $369 $-1 $535 reversed $229 $-1 #
edge $-1 $536 0 $536 6.2831853071796004 $230 $537 forward 7 unknown #
vertex $-1 $233 $538 #
ellipse-curve $-1 41.765861447506815 -8.8958855145981488 3.717634931185497 0.5877852598018023 0 0.80901698891910034 0.40450849445955017 0 -0.29389262990090115 1 I I #
face $-1 $-1 $385 $51 $-1 $539 forward single #
loop $-1 $-1 $540 $234 #
plane-surface $-1 45.592211676381723 0 0 -1 0 0 0 0 1 forward_v I I I I #
coedge $-1 $541 $542 $543 $544 reversed $235 $-1 #
coedge $-1 $545 $237 $239 $383 forward $147 $-1 #
coedge $-1 $237 $545 $541 $546 forward $147 $-1 #
coedge $-1 $543 $240 $237 $380 forward $385 $-1 #
edge $-1 $387 -7.330964913766211 $547 -0.84105577262930176 $379 $548 forward 7 unknown #
coedge $-1 $549 $550 $238 $382 forward $374 $-1 #
edge $-1 $551 -63.214489439429045 $386 -57.654476994259426 $381 $552 forward 7 unknown #
edge $-1 $387 81.725165311749606 $551 91.184423352763446 $239 $553 forward 7 unknown #
coedge $-1 $240 $543 $549 $554 forward $385 $-1 #
loop $-1 $-1 $543 $373 #
vertex $-1 $382 $555 #
vertex $-1 $241 $556 #
straight-curve $-1 12.709662014743067 11.416975256963967 6.4976411537703029 -1 0 0 I I #
coedge $-1 $389 $389 $-1 $557 reversed $244 $-1 #
edge $-1 $558 0 $558 6.2831853071796004 $245 $559 forward 7 unknown #
vertex $-1 $248 $560 #
ellipse-curve $-1 41.765861447506815 6.7813258704376054 3.717634931185497 0.5877852598018023 0 0.80901698891910034 0.40450849445955017 0 -0.29389262990090115 1 I I #
coedge $-1 $393 $393 $-1 $561 reversed $251 $-1 #
edge $-1 $562 0 $562 6.2831853071796004 $252 $563 forward 7 unknown #
vertex $-1 $255 $564 #
ellipse-curve $-1 41.765861447506815 9.56271550235342 3.717634931185497 0.5877852598018023 0 0.80901698891910034 0.40450849445955017 0 -0.29389262990090115 1 I I #
face $-1 $-1 $409 $54 $-1 $565 forward single #
loop $-1 $-1 $566 $256 #
plane-surface $-1 -45.592211676381723 0 0 1 0 0 0 0 -1 forward_v I I I I #
coedge $-1 $567 $568 $569 $570 reversed $257 $-1 #
coedge $-1 $571 $259 $261 $407 forward $161 $-1 #
coedge $-1 $259 $571 $567 $572 forward $161 $-1 #
coedge $-1 $569 $262 $259 $404 forward $409 $-1 #
edge $-1 $411 -8.3882447358464844 $573 -1.8983355947095744 $403 $574 forward 7 unknown #
coedge $-1 $575 $576 $260 $406 forward $398 $-1 #
edge $-1 $577 -36.416059454288252 $410 -30.856047009118626 $405 $578 forward 7 unknown #
edge $-1 $411 -9.4592580410138627 $577 8.7502459990790685e-015 $261 $579 forward 7 unknown #
coedge $-1 $262 $569 $575 $580 forward $409 $-1 #
loop $-1 $-1 $569 $397 #
vertex $-1 $406 $581 #
vertex $-1 $263 $582 #
straight-curve $-1 -49.594535823331654 -13.531534901124513 6.4976411537703029 1 0 0 I I #
coedge $-1 $413 $413 $-1 $583 reversed $266 $-1 #
edge $-1 $584 0 $584 6.2831853071796004 $267 $585 forward 7 unknown #
vertex $-1 $270 $586 #
ellipse-curve $-1 -41.765861447506808 -11.677275146513967 3.7176349311854926 -0.5877852598018023 0 0.80901698891910034 0.40450849445955017 0 0.29389262990090115 1 I I #
coedge $-1 $417 $417 $-1 $587 reversed $273 $-1 #
edge $-1 $588 0 $588 6.2831853071796004 $274 $589 forward 7 unknown #
vertex $-1 $277 $590 #
ellipse-curve $-1 -41.765861447506808 -8.8958855145981488 3.7176349311854926 -0.5877852598018023 0 0.80901698891910034 0.40450849445955017 0 0.29389262990090115 1 I I #
face $-1 $-1 $591 $57 $-1 $592 reversed single #
loop $-1 $-1 $284 $278 #
plane-surface $-1 0 0 6.4976411537703047 0 0 1 1 0 0 forward_v I I I I #
coedge $-1 $593 $594 $595 $596 reversed $279 $-1 #
coedge $-1 $597 $281 $283 $431 forward $175 $-1 #
coedge $-1 $281 $597 $593 $598 forward $175 $-1 #
coedge $-1 $595 $284 $281 $428 forward $422 $-1 #
edge $-1 $434 0.84105577262930176 $599 7.330964913766211 $427 $600 forward 7 unknown #
coedge $-1 $601 $602 $282 $430 forward $591 $-1 #
edge $-1 $603 -36.416059454288252 $433 -30.856047009118626 $429 $604 forward 7 unknown #
edge $-1 $434 -9.4592580410138627 $603 8.7502459990790685e-015 $283 $605 forward 7 unknown #
coedge $-1 $284 $595 $601 $606 forward $422 $-1 #
vertex $-1 $430 $607 #
vertex $-1 $285 $608 #
straight-curve $-1 -49.594535823331654 4.9270661158270581 6.4976411537703029 1 0 0 I I #
coedge $-1 $436 $436 $-1 $609 reversed $288 $-1 #
edge $-1 $610 0 $610 6.2831853071796004 $289 $611 forward 7 unknown #
vertex $-1 $292 $612 #
ellipse-curve $-1 -41.765861447506808 6.7813258704376054 3.7176349311854926 -0.5877852598018023 0 0.80901698891910034 0.40450849445955017 0 0.29389262990090115 1 I I #
coedge $-1 $440 $440 $-1 $613 reversed $295 $-1 #
edge $-1 $614 0 $614 6.2831853071796004 $296 $615 forward 7 unknown #
vertex $-1 $299 $616 #
ellipse-curve $-1 -41.765861447506808 9.56271550235342 3.7176349311854926 -0.5877852598018023 0 0.80901698891910034 0.40450849445955017 0 0.29389262990090115 1 I I #
face $-1 $-1 $315 $45 $-1 $617 reversed single #
loop $-1 $-1 $460 $300 #
plane-surface $-1 0 25.495851567604099 0 0 -1 0 0 0 -1 forward_v I I I I #
coedge $-1 $618 $458 $461 $619 forward $301 $-1 #
coedge $-1 $464 $303 $304 $452 reversed $189 $-1 #
coedge $-1 $458 $618 $303 $450 reversed $301 $-1 #
edge $-1 $465 -6.4976411537703047 $620 6.4976411537703047 $449 $621 forward 7 unknown #
coedge $-1 $305 $304 $618 $622 forward $121 $-1 #
edge $-1 $456 -45.592211676381723 $620 45.592211676381723 $448 $623 forward 7 unknown #
coedge $-1 $461 $460 $305 $454 reversed $445 $-1 #
edge $-1 $624 -45.592211676381723 $455 45.592211676381723 $453 $625 forward 7 unknown #
vertex $-1 $307 $626 #
vertex $-1 $467 $627 #
straight-curve $-1 45.592211676381723 0 -6.4976411537703047 0 -1 0 I I #
coedge $-1 $447 $449 $308 $459 reversed $301 $-1 #
edge $-1 $462 -25.495851567604099 $465 25.495851567604099 $458 $628 forward 7 unknown #
coedge $-1 $453 $309 $314 $468 forward $445 $-1 #
coedge $-1 $309 $453 $447 $619 reversed $445 $-1 #
vertex $-1 $310 $629 #
straight-curve $-1 0 25.495851567604099 6.4976411537703047 -1 0 0 I I #
coedge $-1 $311 $448 $313 $467 reversed $189 $-1 #
vertex $-1 $459 $630 #
straight-curve $-1 0 -25.495851567604099 6.4976411537703047 1 0 0 I I #
edge $-1 $316 -6.4976411537703047 $456 6.4976411537703047 $313 $631 forward 7 unknown #
edge $-1 $317 -6.4976411537703047 $455 6.4976411537703047 $314 $632 forward 7 unknown #
point $-1 45.592211676381723 -25.495851567604099 6.4976411537703047 #
point $-1 45.592211676381723 25.495851567604099 6.4976411537703047 #
face $-1 $-1 $484 $46 $-1 $633 reversed single #
plane-surface $-1 -41.963233384237526 -29.014476842930364 0 -1 0 0 0 0 1 forward_v I I I I #
coedge $-1 $634 $635 $636 $637 forward $320 $-1 #
coedge $-1 $636 $322 $483 $638 reversed $197 $-1 #
coedge $-1 $322 $636 $323 $478 reversed $197 $-1 #
edge $-1 $480 -6.4976411537703047 $485 6.4976411537703047 $322 $639 forward 7 unknown #
coedge $-1 $324 $323 $635 $640 forward $125 $-1 #
edge $-1 $480 25.495851567604099 $641 32.533102118256629 $475 $642 forward 7 unknown #
edge $-1 $643 -3.518625275326265 $332 3.518625275326265 $329 $644 forward 7 unknown #
vertex $-1 $478 $645 #
straight-curve $-1 0 -25.495851567604099 6.4976411537703047 -1 0 0 I I #
coedge $-1 $646 $327 $330 $488 forward $484 $-1 #
coedge $-1 $327 $646 $474 $638 forward $484 $-1 #
loop $-1 $-1 $327 $471 #
vertex $-1 $476 $647 #
straight-curve $-1 0 -25.495851567604099 -6.4976411537703047 1 0 0 I I #
coedge $-1 $330 $329 $648 $649 forward $331 $-1 #
edge $-1 $333 -3.518625275326265 $650 3.518625275326265 $330 $651 forward 7 unknown #
point $-1 -41.963233384237526 -25.495851567604099 6.4976411537703047 #
point $-1 -41.963233384237526 -25.495851567604099 -6.4976411537703047 #
face $-1 $-1 $652 $47 $-1 $653 reversed single #
loop $-1 $-1 $343 $335 #
plane-surface $-1 0 0 -6.4976411537703047 0 0 1 1 0 0 forward_v I I I I #
coedge $-1 $654 $338 $655 $656 reversed $205 $-1 #
coedge $-1 $338 $654 $498 $657 reversed $205 $-1 #
coedge $-1 $346 $345 $338 $497 reversed $336 $-1 #
edge $-1 $658 -6.4976411537703047 $659 6.4976411537703047 $496 $660 forward 7 unknown #
coedge $-1 $340 $339 $495 $657 forward $129 $-1 #
edge $-1 $348 -3.518625275326265 $658 3.518625275326265 $346 $661 forward 7 unknown #
coedge $-1 $662 $504 $340 $501 reversed $652 $-1 #
edge $-1 $663 -32.533102118256629 $502 -25.495851567604099 $500 $664 forward 7 unknown #
vertex $-1 $505 $665 #
straight-curve $-1 0 25.495851567604099 6.4976411537703047 1 0 0 I I #
coedge $-1 $500 $666 $342 $505 forward $652 $-1 #
edge $-1 $508 -6.4976411537703047 $502 6.4976411537703047 $504 $667 forward 7 unknown #
coedge $-1 $655 $343 $666 $668 forward $492 $-1 #
coedge $-1 $343 $655 $345 $510 forward $492 $-1 #
vertex $-1 $668 $669 #
straight-curve $-1 0 25.495851567604099 -6.4976411537703047 -1 0 0 I I #
edge $-1 $659 -3.518625275326265 $347 3.518625275326265 $345 $670 forward 7 unknown #
point $-1 -41.963233384237526 25.495851567604099 -6.4976411537703047 #
point $-1 -41.963233384237526 25.495851567604099 6.4976411537703047 #
loop $-1 $-1 $358 $350 #
plane-surface $-1 45.592211676381723 0 0 -1 0 0 0 0 1 forward_v I I I I #
coedge $-1 $516 $353 $355 $520 reversed $213 $-1 #
coedge $-1 $353 $515 $671 $672 reversed $213 $-1 #
coedge $-1 $361 $356 $353 $518 forward $351 $-1 #
edge $-1 $521 25.229849203888847 $673 32.882549661638656 $517 $674 forward 7 unknown #
coedge $-1 $355 $354 $524 $675 reversed $133 $-1 #
edge $-1 $676 -91.184423352763446 $521 -81.725165311749606 $515 $677 forward 7 unknown #
vertex $-1 $357 $678 #
straight-curve $-1 37.939511218631921 -5.143290165278029 6.4976411537703029 0 -1 0 I I #
coedge $-1 $671 $358 $361 $528 reversed $513 $-1 #
coedge $-1 $358 $671 $519 $675 forward $513 $-1 #
vertex $-1 $359 $679 #
straight-curve $-1 45.592211676381723 -7.0416257599876033 64.152118148029729 0 0 1 I I #
straight-curve $-1 -28.177535940795458 -7.0416257599876033 54.534488678882283 0.80901698891910034 0 -0.5877852598018023 I I #
edge $-1 $673 -13.531534901124513 $362 -7.0416257599876033 $523 $680 forward 7 unknown #
point $-1 45.592211676381723 -7.0416257599876033 6.4976411537703047 #
point $-1 37.939511218631914 -7.0416257599876033 6.4976411537703029 #
edge $-1 $681 1 $681 0 $365 $-1 forward 7 unknown #
vertex $-1 $366 $682 #
ellipse-curve $-1 40.661837957192411 -11.677275146513967 2.198076989002181 0.5877852598018023 0 0.80901698891910034 0.40450849445955017 0 -0.29389262990090115 1 I I #
point $-1 42.170369941966356 -11.677275146513967 3.4237423012845887 #
edge $-1 $683 1 $683 0 $369 $-1 forward 7 unknown #
vertex $-1 $370 $684 #
ellipse-curve $-1 40.661837957192411 -8.8958855145981488 2.198076989002181 0.5877852598018023 0 0.80901698891910034 0.40450849445955017 0 -0.29389262990090115 1 I I #
point $-1 42.170369941966356 -8.8958855145981488 3.4237423012845887 #
plane-surface $-1 0 0 6.4976411537703047 0 0 1 1 0 0 forward_v I I I I #
coedge $-1 $550 $549 $542 $685 forward $374 $-1 #
coedge $-1 $542 $376 $378 $546 reversed $235 $-1 #
coedge $-1 $376 $541 $540 $685 reversed $235 $-1 #
coedge $-1 $384 $379 $376 $544 forward $385 $-1 #
edge $-1 $547 25.229849203888847 $686 32.882549661638656 $543 $687 forward 7 unknown #
coedge $-1 $378 $377 $550 $688 reversed $147 $-1 #
edge $-1 $689 -91.184423352763446 $547 -81.725165311749606 $541 $690 forward 7 unknown #
vertex $-1 $380 $691 #
straight-curve $-1 37.939511218631921 4.0860103431977564 6.4976411537703029 0 -1 0 I I #
coedge $-1 $540 $381 $384 $554 reversed $374 $-1 #
coedge $-1 $381 $540 $545 $688 forward $374 $-1 #
vertex $-1 $382 $692 #
straight-curve $-1 45.592211676381723 11.416975256963967 64.152118148029729 0 0 1 I I #
straight-curve $-1 -28.177535940795458 11.416975256963967 54.534488678882283 0.80901698891910034 0 -0.5877852598018023 I I #
edge $-1 $686 4.9270661158270581 $386 11.416975256963967 $549 $693 forward 7 unknown #
point $-1 45.592211676381723 11.416975256963967 6.4976411537703047 #
point $-1 37.939511218631914 11.416975256963967 6.4976411537703029 #
edge $-1 $694 1 $694 0 $389 $-1 forward 7 unknown #
vertex $-1 $390 $695 #
ellipse-curve $-1 40.661837957192411 6.7813258704376054 2.198076989002181 0.5877852598018023 0 0.80901698891910034 0.40450849445955017 0 -0.29389262990090115 1 I I #
point $-1 42.170369941966356 6.7813258704376054 3.4237423012845887 #
edge $-1 $696 1 $696 0 $393 $-1 forward 7 unknown #
vertex $-1 $394 $697 #
ellipse-curve $-1 40.661837957192411 9.56271550235342 2.198076989002181 0.5877852598018023 0 0.80901698891910034 0.40450849445955017 0 -0.29389262990090115 1 I I #
point $-1 42.170369941966356 9.56271550235342 3.4237423012845887 #
plane-surface $-1 0 0 6.4976411537703047 0 0 1 1 0 0 forward_v I I I I #
coedge $-1 $576 $575 $568 $698 forward $398 $-1 #
coedge $-1 $568 $400 $402 $572 reversed $257 $-1 #
coedge $-1 $400 $567 $566 $698 reversed $257 $-1 #
coedge $-1 $408 $403 $400 $570 forward $409 $-1 #
edge $-1 $573 -11.655024604699761 $699 -4.0023241469499311 $569 $700 forward 7 unknown #
coedge $-1 $402 $401 $576 $701 reversed $161 $-1 #
edge $-1 $702 -8.7502459990790685e-015 $573 9.4592580410138627 $567 $703 forward 7 unknown #
vertex $-1 $404 $704 #
straight-curve $-1 -37.939511218631893 -5.143290165278029 6.4976411537703047 0 1 0 I I #
coedge $-1 $566 $405 $408 $580 reversed $398 $-1 #
coedge $-1 $405 $566 $571 $701 forward $398 $-1 #
vertex $-1 $406 $705 #
straight-curve $-1 -45.592211676381723 -13.531534901124513 37.353688162888929 0 0 1 I I #
straight-curve $-1 -45.592211676381716 -13.531534901124513 0.93762870860068404 -0.80901698891910034 0 -0.5877852598018023 I I #
edge $-1 $699 7.0416257599876033 $410 13.531534901124513 $575 $706 forward 7 unknown #
point $-1 -45.592211676381723 -13.531534901124513 6.4976411537703047 #
point $-1 -37.939511218631893 -13.531534901124513 6.4976411537703047 #
edge $-1 $707 1 $707 0 $413 $-1 forward 7 unknown #
vertex $-1 $414 $708 #
ellipse-curve $-1 -40.661837957192404 -11.677275146513967 2.198076989002181 -0.5877852598018023 0 0.80901698891910034 0.40450849445955017 0 0.29389262990090115 1 I I #
point $-1 -41.361352953047252 -11.677275146513967 4.0115275610863907 #
edge $-1 $709 1 $709 0 $417 $-1 forward 7 unknown #
vertex $-1 $418 $710 #
ellipse-curve $-1 -40.661837957192404 -8.8958855145981488 2.198076989002181 -0.5877852598018023 0 0.80901698891910034 0.40450849445955017 0 0.29389262990090115 1 I I #
point $-1 -41.361352953047252 -8.8958855145981488 4.0115275610863907 #
loop $-1 $-1 $429 $421 #
plane-surface $-1 -45.592211676381723 0 0 1 0 0 0 0 -1 forward_v I I I I #
coedge $-1 $594 $424 $426 $598 reversed $279 $-1 #
coedge $-1 $424 $593 $711 $712 reversed $279 $-1 #
coedge $-1 $432 $427 $424 $596 forward $422 $-1 #
edge $-1 $599 -11.655024604699761 $713 -4.0023241469499311 $595 $714 forward 7 unknown #
coedge $-1 $426 $425 $602 $715 reversed $175 $-1 #
edge $-1 $716 -8.7502459990790685e-015 $599 9.4592580410138627 $593 $717 forward 7 unknown #
vertex $-1 $428 $718 #
straight-curve $-1 -37.939511218631893 4.0860103431977564 6.4976411537703047 0 1 0 I I #
coedge $-1 $711 $429 $432 $606 reversed $591 $-1 #
coedge $-1 $429 $711 $597 $715 forward $591 $-1 #
vertex $-1 $430 $719 #
straight-curve $-1 -45.592211676381723 4.9270661158270581 37.353688162888929 0 0 1 I I #
straight-curve $-1 -45.592211676381716 4.9270661158270581 0.93762870860068404 -0.80901698891910034 0 -0.5877852598018023 I I #
edge $-1 $713 -11.416975256963967 $433 -4.9270661158270581 $601 $720 forward 7 unknown #
point $-1 -45.592211676381723 4.9270661158270581 6.4976411537703047 #
point $-1 -37.939511218631893 4.9270661158270581 6.4976411537703047 #
edge $-1 $721 1 $721 0 $436 $-1 forward 7 unknown #
vertex $-1 $437 $722 #
ellipse-curve $-1 -40.661837957192404 6.7813258704376054 2.198076989002181 -0.5877852598018023 0 0.80901698891910034 0.40450849445955017 0 0.29389262990090115 1 I I #
point $-1 -41.361352953047252 6.7813258704376054 4.0115275610863907 #
edge $-1 $723 1 $723 0 $440 $-1 forward 7 unknown #
vertex $-1 $441 $724 #
ellipse-curve $-1 -40.661837957192404 9.56271550235342 2.198076989002181 -0.5877852598018023 0 0.80901698891910034 0.40450849445955017 0 0.29389262990090115 1 I I #
point $-1 -41.361352953047252 9.56271550235342 4.0115275610863907 #
plane-surface $-1 45.592211676381723 0 0 -1 0 0 0 0 1 forward_v I I I I #
coedge $-1 $449 $447 $451 $622 reversed $301 $-1 #
edge $-1 $462 -6.4976411537703047 $624 6.4976411537703047 $461 $725 forward 7 unknown #
vertex $-1 $622 $726 #
straight-curve $-1 -45.592211676381723 -25.495851567604099 0 0 0 -1 I I #
edge $-1 $620 -25.495851567604099 $624 25.495851567604099 $618 $727 forward 7 unknown #
straight-curve $-1 0 -25.495851567604099 -6.4976411537703047 -1 0 0 I I #
vertex $-1 $454 $728 #
straight-curve $-1 0 25.495851567604099 -6.4976411537703047 1 0 0 I I #
point $-1 45.592211676381723 25.495851567604099 -6.4976411537703047 #
point $-1 45.592211676381723 -25.495851567604099 -6.4976411537703047 #
straight-curve $-1 -45.592211676381723 0 6.4976411537703047 0 -1 0 I I #
point $-1 -45.592211676381723 25.495851567604099 6.4976411537703047 #
point $-1 -45.592211676381723 -25.495851567604099 6.4976411537703047 #
straight-curve $-1 45.592211676381723 -25.495851567604099 0 0 0 -1 I I #
straight-curve $-1 45.592211676381723 25.495851567604099 0 0 0 -1 I I #
plane-surface $-1 0 0 -6.4976411537703047 0 0 1 1 0 0 forward_v I I I I #
coedge $-1 $648 $473 $646 $729 reversed $320 $-1 #
coedge $-1 $473 $648 $477 $640 reversed $320 $-1 #
coedge $-1 $475 $474 $473 $637 reversed $197 $-1 #
edge $-1 $641 -6.4976411537703047 $730 6.4976411537703047 $636 $731 forward 7 unknown #
edge $-1 $730 -32.533102118256629 $485 -25.495851567604099 $474 $732 forward 7 unknown #
straight-curve $-1 -45.592211676381723 -25.495851567604099 0 0 0 -1 I I #
edge $-1 $641 -1.8144891460720984 $643 1.8144891460720984 $635 $733 forward 7 unknown #
vertex $-1 $478 $734 #
straight-curve $-1 -45.592211676381723 0 6.4976411537703047 0 -1 0 I I #
vertex $-1 $479 $735 #
straight-curve $-1 -41.963233384237526 -29.014476842930364 6.4976411537703047 0 1 0 I I #
point $-1 -45.592211676381723 -25.495851567604099 6.4976411537703047 #
coedge $-1 $483 $482 $634 $729 forward $484 $-1 #
point $-1 -45.592211676381723 -25.495851567604099 -6.4976411537703047 #
coedge $-1 $635 $634 $487 $649 reversed $320 $-1 #
edge $-1 $643 -6.4976411537703047 $650 6.4976411537703047 $487 $736 forward 7 unknown #
vertex $-1 $649 $737 #
straight-curve $-1 -41.963233384237526 -29.014476842930364 -6.4976411537703047 0 -1 0 I I #
loop $-1 $-1 $504 $491 #
plane-surface $-1 -45.592211676381723 0 0 1 0 0 0 0 -1 forward_v I I I I #
coedge $-1 $495 $494 $662 $738 reversed $205 $-1 #
coedge $-1 $507 $506 $494 $656 forward $492 $-1 #
edge $-1 $739 -1.8144891460720984 $659 1.8144891460720984 $494 $740 forward 7 unknown #
edge $-1 $658 -1.8144891460720984 $663 1.8144891460720984 $495 $741 forward 7 unknown #
vertex $-1 $499 $742 #
vertex $-1 $510 $743 #
straight-curve $-1 -41.963233384237526 32.533102118256629 0 0 0 -1 I I #
straight-curve $-1 -41.963233384237526 29.014476842930364 6.4976411537703047 0 1 0 I I #
coedge $-1 $666 $500 $654 $738 forward $652 $-1 #
vertex $-1 $657 $744 #
straight-curve $-1 -45.592211676381723 0 6.4976411537703047 0 -1 0 I I #
point $-1 -45.592211676381723 25.495851567604099 6.4976411537703047 #
coedge $-1 $504 $662 $506 $668 reversed $652 $-1 #
straight-curve $-1 -45.592211676381723 25.495851567604099 0 0 0 1 I I #
edge $-1 $508 -3.518625275326265 $739 3.518625275326265 $666 $745 forward 7 unknown #
point $-1 -45.592211676381723 25.495851567604099 -6.4976411537703047 #
straight-curve $-1 -41.963233384237526 29.014476842930364 -6.4976411537703047 0 -1 0 I I #
coedge $-1 $524 $523 $516 $672 forward $513 $-1 #
edge $-1 $673 57.654476994259426 $676 63.214489439429045 $671 $746 forward 7 unknown #
vertex $-1 $528 $747 #
straight-curve $-1 12.709662014743067 -13.531534901124513 6.4976411537703029 1 0 0 I I #
edge $-1 $676 -8.3882447358464844 $525 -1.8983355947095744 $524 $748 forward 7 unknown #
vertex $-1 $675 $749 #
straight-curve $-1 -28.177535940795458 -13.531534901124513 54.534488678882283 -0.80901698891910034 0 0.5877852598018023 I I #
point $-1 37.939511218631914 -13.531534901124513 6.4976411537703029 #
point $-1 45.59221167638173 -7.0416257599876033 0.93762870860068404 #
straight-curve $-1 45.592211676381723 0 6.4976411537703047 0 1 0 I I #
vertex $-1 $531 $750 #
point $-1 41.066346451651967 -11.677275146513967 1.9041843591012797 #
vertex $-1 $535 $751 #
point $-1 41.066346451651967 -8.8958855145981488 1.9041843591012797 #
edge $-1 $686 57.654476994259426 $689 63.214489439429045 $540 $752 forward 7 unknown #
vertex $-1 $554 $753 #
straight-curve $-1 12.709662014743067 4.9270661158270581 6.4976411537703029 1 0 0 I I #
edge $-1 $689 0.84105577262930176 $551 7.330964913766211 $550 $754 forward 7 unknown #
vertex $-1 $688 $755 #
straight-curve $-1 -28.177535940795458 4.9270661158270581 54.534488678882283 -0.80901698891910034 0 0.5877852598018023 I I #
point $-1 37.939511218631914 4.9270661158270581 6.4976411537703029 #
point $-1 45.59221167638173 11.416975256963967 0.93762870860068404 #
straight-curve $-1 45.592211676381723 0 6.4976411537703047 0 1 0 I I #
vertex $-1 $557 $756 #
point $-1 41.066346451651967 6.7813258704376054 1.9041843591012797 #
vertex $-1 $561 $757 #
point $-1 41.066346451651967 9.56271550235342 1.9041843591012797 #
edge $-1 $699 30.856047009118626 $702 36.416059454288252 $566 $758 forward 7 unknown #
vertex $-1 $580 $759 #
straight-curve $-1 -49.594535823331654 -7.0416257599876033 6.4976411537703029 -1 0 0 I I #
edge $-1 $702 1.8983355947095744 $577 8.3882447358464844 $576 $760 forward 7 unknown #
vertex $-1 $701 $761 #
straight-curve $-1 -45.592211676381716 -7.0416257599876033 0.93762870860068404 0.80901698891910034 0 0.5877852598018023 I I #
point $-1 -37.939511218631893 -7.0416257599876033 6.4976411537703047 #
point $-1 -45.592211676381723 -13.531534901124513 0.93762870860067893 #
straight-curve $-1 -45.592211676381723 0 6.4976411537703047 0 -1 0 I I #
vertex $-1 $583 $762 #
point $-1 -40.257329462732855 -11.677275146513967 2.4919696189030818 #
vertex $-1 $587 $763 #
point $-1 -40.257329462732855 -8.8958855145981488 2.4919696189030818 #
coedge $-1 $602 $601 $594 $712 forward $591 $-1 #
edge $-1 $713 30.856047009118626 $716 36.416059454288252 $711 $764 forward 7 unknown #
vertex $-1 $606 $765 #
straight-curve $-1 -49.594535823331654 11.416975256963967 6.4976411537703029 -1 0 0 I I #
edge $-1 $716 -7.330964913766211 $603 -0.84105577262930176 $602 $766 forward 7 unknown #
vertex $-1 $715 $767 #
straight-curve $-1 -45.592211676381716 11.416975256963967 0.93762870860068404 0.80901698891910034 0 0.5877852598018023 I I #
point $-1 -37.939511218631893 11.416975256963967 6.4976411537703047 #
point $-1 -45.592211676381723 4.9270661158270581 0.93762870860067893 #
straight-curve $-1 -45.592211676381723 0 6.4976411537703047 0 -1 0 I I #
vertex $-1 $609 $768 #
point $-1 -40.257329462732855 6.7813258704376054 2.4919696189030818 #
vertex $-1 $613 $769 #
point $-1 -40.257329462732855 9.56271550235342 2.4919696189030818 #
straight-curve $-1 -45.592211676381723 25.495851567604099 0 0 0 -1 I I #
point $-1 -45.592211676381723 -25.495851567604099 -6.4976411537703047 #
straight-curve $-1 -45.592211676381723 0 -6.4976411537703047 0 1 0 I I #
point $-1 -45.592211676381723 25.495851567604099 -6.4976411537703047 #
edge $-1 $650 -1.8144891460720984 $730 1.8144891460720984 $634 $770 forward 7 unknown #
vertex $-1 $638 $771 #
straight-curve $-1 -45.592211676381723 -32.533102118256629 0 0 0 -1 I I #
straight-curve $-1 -45.592211676381723 0 -6.4976411537703047 0 1 0 I I #
straight-curve $-1 -43.777722530309624 -32.533102118256629 6.4976411537703047 1 0 0 I I #
point $-1 -45.592211676381723 -32.533102118256629 6.4976411537703047 #
point $-1 -41.963233384237526 -32.533102118256629 6.4976411537703047 #
straight-curve $-1 -41.963233384237526 -32.533102118256629 0 0 0 -1 I I #
point $-1 -41.963233384237526 -32.533102118256629 -6.4976411537703047 #
edge $-1 $663 -6.4976411537703047 $739 6.4976411537703047 $654 $772 forward 7 unknown #
vertex $-1 $656 $773 #
straight-curve $-1 -43.777722530309624 32.533102118256629 -6.4976411537703047 1 0 0 I I #
straight-curve $-1 -43.777722530309624 32.533102118256629 6.4976411537703047 -1 0 0 I I #
point $-1 -41.963233384237526 32.533102118256629 6.4976411537703047 #
point $-1 -41.963233384237526 32.533102118256629 -6.4976411537703047 #
point $-1 -45.592211676381723 32.533102118256629 6.4976411537703047 #
straight-curve $-1 -45.592211676381723 29.014476842930364 -6.4976411537703047 0 1 0 I I #
straight-curve $-1 45.592211676381723 -13.531534901124513 64.152118148029729 0 0 -1 I I #
point $-1 45.592211676381723 -13.531534901124513 6.4976411537703047 #
straight-curve $-1 45.592211676381723 -5.143290165278029 0.93762870860068759 0 1 0 I I #
point $-1 45.59221167638173 -13.531534901124513 0.93762870860068404 #
point $-1 40.367945327291515 -11.677275146513967 1.7935684945426307 #
point $-1 40.367945327291515 -8.8958855145981488 1.7935684945426307 #
straight-curve $-1 45.592211676381723 4.9270661158270581 64.152118148029729 0 0 -1 I I #
point $-1 45.592211676381723 4.9270661158270581 6.4976411537703047 #
straight-curve $-1 45.592211676381723 4.0860103431977564 0.93762870860068759 0 1 0 I I #
point $-1 45.59221167638173 4.9270661158270581 0.93762870860068404 #
point $-1 40.367945327291515 6.7813258704376054 1.7935684945426307 #
point $-1 40.367945327291515 9.56271550235342 1.7935684945426307 #
straight-curve $-1 -45.592211676381723 -7.0416257599876033 37.353688162888929 0 0 -1 I I #
point $-1 -45.592211676381723 -7.0416257599876033 6.4976411537703047 #
straight-curve $-1 -45.592211676381723 -5.143290165278029 0.93762870860068381 0 -1 0 I I #
point $-1 -45.592211676381723 -7.0416257599876033 0.93762870860067893 #
point $-1 -40.367945327291508 -11.677275146513967 1.7935684945426307 #
point $-1 -40.367945327291508 -8.8958855145981488 1.7935684945426307 #
straight-curve $-1 -45.592211676381723 11.416975256963967 37.353688162888929 0 0 -1 I I #
point $-1 -45.592211676381723 11.416975256963967 6.4976411537703047 #
straight-curve $-1 -45.592211676381723 4.0860103431977564 0.93762870860068381 0 -1 0 I I #
point $-1 -45.592211676381723 11.416975256963967 0.93762870860067893 #
point $-1 -40.367945327291508 6.7813258704376054 1.7935684945426307 #
point $-1 -40.367945327291508 9.56271550235342 1.7935684945426307 #
straight-curve $-1 -43.777722530309624 -32.533102118256629 -6.4976411537703047 -1 0 0 I I #
point $-1 -45.592211676381723 -32.533102118256629 -6.4976411537703047 #
straight-curve $-1 -45.592211676381723 32.533102118256629 0 0 0 -1 I I #
point $-1 -45.592211676381723 32.533102118256629 -6.4976411537703047 #
End-of-ACIS-data 