500 0 18 0           
7 Unknown 11 ACIS 5.0 NT 24 Thu Mar 25 15:22:14 1999 
-1 9.9999999999999995e-007 1e-010 
body $-1 $18 $-1 $19 #
body $-1 $20 $-1 $21 #
body $-1 $22 $-1 $23 #
body $-1 $24 $-1 $25 #
body $-1 $26 $-1 $27 #
body $-1 $28 $-1 $29 #
body $-1 $30 $-1 $31 #
body $-1 $32 $-1 $33 #
body $-1 $34 $-1 $35 #
body $-1 $36 $-1 $37 #
body $-1 $38 $-1 $39 #
body $-1 $40 $-1 $41 #
body $-1 $42 $-1 $43 #
body $-1 $44 $-1 $45 #
body $-1 $46 $-1 $47 #
body $-1 $48 $-1 $49 #
body $-1 $50 $-1 $51 #
body $-1 $52 $-1 $53 #
lump $-1 $-1 $54 $0 #
transform $-1 1 0 0 0 1 0 0 0 1 56.959746086001161 39.568310444452777 11.115402202798515 1 rotate no_reflect no_shear #
lump $-1 $-1 $55 $1 #
transform $-1 1 0 0 0 1 0 0 0 1 56.959746086001161 39.568310444452777 11.115402202798515 1 rotate no_reflect no_shear #
lump $-1 $-1 $56 $2 #
transform $-1 1 0 0 0 1 0 0 0 1 56.959746086001161 39.568310444452777 11.115402202798515 1 rotate no_reflect no_shear #
lump $-1 $-1 $57 $3 #
transform $-1 1 0 0 0 1 0 0 0 1 56.959746086001161 39.568310444452777 11.115402202798515 1 rotate no_reflect no_shear #
lump $-1 $-1 $58 $4 #
transform $-1 1 0 0 0 1 0 0 0 1 56.959746086001161 39.568310444452777 11.115402202798515 1 rotate no_reflect no_shear #
lump $-1 $-1 $59 $5 #
transform $-1 1 0 0 0 1 0 0 0 1 56.959746086001161 39.568310444452777 11.115402202798515 1 rotate no_reflect no_shear #
lump $-1 $-1 $60 $6 #
transform $-1 1 0 0 0 1 0 0 0 1 56.959746086001161 39.568310444452777 11.115402202798515 1 rotate no_reflect no_shear #
lump $-1 $-1 $61 $7 #
transform $-1 1 0 0 0 1 0 0 0 1 56.959746086001161 39.568310444452777 11.115402202798515 1 rotate no_reflect no_shear #
lump $-1 $-1 $62 $8 #
transform $-1 1 0 0 0 1 0 0 0 1 56.959746086001161 39.568310444452777 11.115402202798515 1 rotate no_reflect no_shear #
lump $-1 $-1 $63 $9 #
transform $-1 1 0 0 0 1 0 0 0 1 56.959746086001161 39.568310444452777 11.115402202798515 1 rotate no_reflect no_shear #
lump $-1 $-1 $64 $10 #
transform $-1 1 0 0 0 1 0 0 0 1 56.959746086001161 39.568310444452777 11.115402202798515 1 rotate no_reflect no_shear #
lump $-1 $-1 $65 $11 #
transform $-1 1 0 0 0 1 0 0 0 1 56.959746086001161 39.568310444452777 11.115402202798515 1 rotate no_reflect no_shear #
lump $-1 $-1 $66 $12 #
transform $-1 1 0 0 0 1 0 0 0 1 56.959746086001161 39.568310444452777 11.115402202798515 1 rotate no_reflect no_shear #
lump $-1 $-1 $67 $13 #
transform $-1 1 0 0 0 1 0 0 0 1 56.959746086001161 39.568310444452777 11.115402202798515 1 rotate no_reflect no_shear #
lump $-1 $-1 $68 $14 #
transform $-1 1 0 0 0 1 0 0 0 1 56.959746086001161 39.568310444452777 11.115402202798515 1 rotate no_reflect no_shear #
lump $-1 $-1 $69 $15 #
transform $-1 1 0 0 0 1 0 0 0 1 56.959746086001161 39.568310444452777 11.115402202798515 1 rotate no_reflect no_shear #
lump $-1 $-1 $70 $16 #
transform $-1 1 0 0 0 1 0 0 0 1 56.959746086001161 39.568310444452777 11.115402202798515 1 rotate no_reflect no_shear #
lump $-1 $-1 $71 $17 #
transform $-1 1 0 0 0 1 0 0 0 1 56.959746086001161 39.568310444452777 11.115402202798515 1 rotate no_reflect no_shear #
shell $-1 $-1 $-1 $72 $-1 $18 #
shell $-1 $-1 $-1 $73 $-1 $20 #
shell $-1 $-1 $-1 $74 $-1 $22 #
shell $-1 $-1 $-1 $75 $-1 $24 #
shell $-1 $-1 $-1 $76 $-1 $26 #
shell $-1 $-1 $-1 $77 $-1 $28 #
shell $-1 $-1 $-1 $78 $-1 $30 #
shell $-1 $-1 $-1 $79 $-1 $32 #
shell $-1 $-1 $-1 $80 $-1 $34 #
shell $-1 $-1 $-1 $81 $-1 $36 #
shell $-1 $-1 $-1 $82 $-1 $38 #
shell $-1 $-1 $-1 $83 $-1 $40 #
shell $-1 $-1 $-1 $84 $-1 $42 #
shell $-1 $-1 $-1 $85 $-1 $44 #
shell $-1 $-1 $-1 $86 $-1 $46 #
shell $-1 $-1 $-1 $87 $-1 $48 #
shell $-1 $-1 $-1 $88 $-1 $50 #
shell $-1 $-1 $-1 $89 $-1 $52 #
face $-1 $90 $91 $54 $-1 $92 forward single #
face $-1 $93 $94 $55 $-1 $95 reversed single #
face $-1 $96 $97 $56 $-1 $98 reversed single #
face $-1 $99 $100 $57 $-1 $101 forward single #
face $-1 $102 $103 $58 $-1 $104 forward single #
face $-1 $105 $106 $59 $-1 $107 forward single #
face $-1 $108 $109 $60 $-1 $110 reversed single #
face $-1 $111 $112 $61 $-1 $113 forward single #
face $-1 $114 $115 $62 $-1 $116 forward single #
face $-1 $117 $118 $63 $-1 $119 reversed single #
face $-1 $120 $121 $64 $-1 $122 forward single #
face $-1 $123 $124 $65 $-1 $125 forward single #
face $-1 $126 $127 $66 $-1 $128 reversed single #
face $-1 $129 $130 $67 $-1 $131 forward single #
face $-1 $132 $133 $68 $-1 $134 forward single #
face $-1 $135 $136 $69 $-1 $137 reversed single #
face $-1 $138 $139 $70 $-1 $140 forward single #
face $-1 $141 $142 $71 $-1 $143 forward single #
face $-1 $144 $145 $54 $-1 $146 reversed single #
loop $-1 $-1 $147 $72 #
plane-surface $-1 0 0 11.115402202798515 0 0 1 1 0 0 forward_v I I I I #
face $-1 $148 $149 $55 $-1 $150 reversed single #
loop $-1 $-1 $151 $73 #
plane-surface $-1 -51.01661696303082 0 8.1154022027985153 0 0 1 1 0 0 forward_v I I I I #
face $-1 $152 $153 $56 $-1 $154 reversed single #
loop $-1 $-1 $155 $74 #
plane-surface $-1 -18.689082969949915 -121.51513613671466 81.441678338483001 -1 0 0 0 -0.71933980857756763 0.69465836192734942 forward_v I I I I #
face $-1 $156 $157 $57 $-1 $158 forward single #
loop $-1 $159 $160 $75 #
cone-surface $-1 -39.796606866038367 -33.49390195709649 4.9523567183922683 0 0.71933980857756763 -0.69465836192734942 2 0 0 1 I I 0 1 2 forward I I I I #
face $-1 $161 $162 $58 $-1 $163 forward single #
loop $-1 $164 $165 $76 #
cone-surface $-1 -31.881285405005197 -33.49390195709649 4.9523567183922683 0 0.71933980857756763 -0.69465836192734942 2 0 0 1 I I 0 1 2 forward I I I I #
face $-1 $166 $167 $59 $-1 $168 forward single #
loop $-1 $169 $170 $77 #
cone-surface $-1 -23.965963943972028 -33.49390195709649 4.9523567183922683 0 0.71933980857756763 -0.69465836192734942 2 0 0 1 I I 0 1 2 forward I I I I #
face $-1 $171 $172 $60 $-1 $173 reversed single #
loop $-1 $-1 $174 $78 #
plane-surface $-1 -42.130762451028943 82.922856647664204 131.96459988619961 1 0 0 0 -0.79863551827123203 -0.60181501223851219 forward_v I I I I #
face $-1 $175 $176 $61 $-1 $177 forward single #
loop $-1 $178 $179 $79 #
cone-surface $-1 -37.174030660742417 34.710411395169807 5.097174908338971 0 -0.79863551827123203 -0.60181501223851219 1.5 0 0 1 I I 0 1 1.5 forward I I I I #
face $-1 $180 $181 $62 $-1 $182 forward single #
loop $-1 $183 $184 $80 #
cone-surface $-1 -29.738932975312625 34.710411395169807 5.097174908338971 0 -0.79863551827123203 -0.60181501223851219 1.5 0 0 1 I I 0 1 1.5 forward I I I I #
face $-1 $185 $186 $63 $-1 $187 reversed single #
loop $-1 $-1 $188 $81 #
plane-surface $-1 -15.864355157030367 82.922856647664204 131.96459988619961 1 0 0 0 -0.79863551827123203 -0.60181501223851219 forward_v I I I I #
face $-1 $189 $190 $64 $-1 $191 forward single #
loop $-1 $192 $193 $82 #
cone-surface $-1 -10.907623366743849 34.710411395169807 5.097174908338971 0 -0.79863551827123203 -0.60181501223851219 1.5 0 0 1 I I 0 1 1.5 forward I I I I #
face $-1 $194 $195 $65 $-1 $196 forward single #
loop $-1 $197 $198 $83 #
cone-surface $-1 -3.4725256813140533 34.710411395169807 5.097174908338971 0 -0.79863551827123203 -0.60181501223851219 1.5 0 0 1 I I 0 1 1.5 forward I I I I #
face $-1 $199 $200 $66 $-1 $201 reversed single #
loop $-1 $-1 $202 $84 #
plane-surface $-1 10.402052136968202 82.922856647664204 131.96459988619961 1 0 0 0 -0.79863551827123203 -0.60181501223851219 forward_v I I I I #
face $-1 $203 $204 $67 $-1 $205 forward single #
loop $-1 $206 $207 $85 #
cone-surface $-1 15.35878392725472 34.710411395169807 5.097174908338971 0 -0.79863551827123203 -0.60181501223851219 1.5 0 0 1 I I 0 1 1.5 forward I I I I #
face $-1 $208 $209 $68 $-1 $210 forward single #
loop $-1 $211 $212 $86 #
cone-surface $-1 22.793881612684515 34.710411395169807 5.097174908338971 0 -0.79863551827123203 -0.60181501223851219 1.5 0 0 1 I I 0 1 1.5 forward I I I I #
face $-1 $213 $214 $69 $-1 $215 reversed single #
loop $-1 $-1 $216 $87 #
plane-surface $-1 36.66845943096677 82.922856647664204 131.96459988619961 1 0 0 0 -0.79863551827123203 -0.60181501223851219 forward_v I I I I #
face $-1 $217 $218 $70 $-1 $219 forward single #
loop $-1 $220 $221 $88 #
cone-surface $-1 41.625191221253289 34.710411395169807 5.097174908338971 0 -0.79863551827123203 -0.60181501223851219 1.5 0 0 1 I I 0 1 1.5 forward I I I I #
face $-1 $222 $223 $71 $-1 $224 forward single #
loop $-1 $225 $226 $89 #
cone-surface $-1 49.060288906683084 34.710411395169807 5.097174908338971 0 -0.79863551827123203 -0.60181501223851219 1.5 0 0 1 I I 0 1 1.5 forward I I I I #
face $-1 $227 $228 $54 $-1 $229 reversed single #
loop $-1 $-1 $230 $90 #
plane-surface $-1 0 0 -11.115402202798515 0 0 1 1 0 0 forward_v I I I I #
coedge $-1 $231 $232 $233 $234 forward $91 $-1 #
face $-1 $235 $236 $55 $-1 $237 reversed single #
loop $-1 $-1 $238 $93 #
plane-surface $-1 -45.07348784006048 0 9.6154022027985153 -1 0 0 0 0 1 forward_v I I I I #
coedge $-1 $239 $240 $238 $241 forward $94 $-1 #
face $-1 $242 $243 $56 $-1 $244 forward single #
loop $-1 $-1 $245 $96 #
plane-surface $-1 -31.881285405005197 -39.568310444452791 2.3065505146843606 0 -0.71933980857756763 0.69465836192734942 1 0 0 forward_v I I I I #
coedge $-1 $246 $247 $248 $249 reversed $97 $-1 #
face $-1 $-1 $250 $57 $-1 $251 forward single #
loop $-1 $252 $253 $99 #
cone-surface $-1 -39.796606866038367 -30.953458157285564 2.4990787161157453 0 0.71933980857756763 -0.69465836192734942 1 0 0 1 I I -0.70710678118654746 0.70710678118654746 1 forward I I I I #
loop $-1 $-1 $254 $75 #
coedge $-1 $160 $160 $255 $256 reversed $100 $-1 #
face $-1 $-1 $257 $58 $-1 $258 forward single #
loop $-1 $259 $260 $102 #
cone-surface $-1 -31.881285405005197 -30.953458157285564 2.4990787161157453 0 0.71933980857756763 -0.69465836192734942 1 0 0 1 I I -0.70710678118654746 0.70710678118654746 1 forward I I I I #
loop $-1 $-1 $261 $76 #
coedge $-1 $165 $165 $262 $263 reversed $103 $-1 #
face $-1 $-1 $264 $59 $-1 $265 forward single #
loop $-1 $266 $267 $105 #
cone-surface $-1 -23.965963943972028 -30.953458157285564 2.4990787161157453 0 0.71933980857756763 -0.69465836192734942 1 0 0 1 I I -0.70710678118654746 0.70710678118654746 1 forward I I I I #
loop $-1 $-1 $268 $77 #
coedge $-1 $170 $170 $269 $270 reversed $106 $-1 #
face $-1 $271 $272 $60 $-1 $273 reversed single #
loop $-1 $-1 $274 $108 #
plane-surface $-1 -33.45648181802752 -8.0572960243184326 63.406139310500933 0 0.79863551827123203 0.60181501223851219 1 0 0 forward_v I I I I #
coedge $-1 $275 $276 $277 $278 reversed $109 $-1 #
face $-1 $-1 $279 $61 $-1 $280 forward single #
loop $-1 $281 $282 $111 #
cone-surface $-1 -37.174030660742417 33.364391136547169 4.0828759197718778 0 -0.79863551827123203 -0.60181501223851219 0.75 0 0 1 I I -0.70710678118654757 0.70710678118654757 0.75 forward I I I I #
loop $-1 $-1 $283 $79 #
coedge $-1 $179 $179 $284 $285 reversed $112 $-1 #
face $-1 $-1 $286 $62 $-1 $287 forward single #
loop $-1 $288 $289 $114 #
cone-surface $-1 -29.738932975312625 33.364391136547169 4.0828759197718778 0 -0.79863551827123203 -0.60181501223851219 0.75 0 0 1 I I -0.70710678118654757 0.70710678118654757 0.75 forward I I I I #
loop $-1 $-1 $290 $80 #
coedge $-1 $184 $184 $291 $292 reversed $115 $-1 #
face $-1 $293 $294 $63 $-1 $295 reversed single #
loop $-1 $-1 $296 $117 #
plane-surface $-1 -7.1900745240289439 -8.0572960243184326 63.406139310500933 0 0.79863551827123203 0.60181501223851219 1 0 0 forward_v I I I I #
coedge $-1 $297 $298 $299 $300 reversed $118 $-1 #
face $-1 $-1 $301 $64 $-1 $302 forward single #
loop $-1 $303 $304 $120 #
cone-surface $-1 -10.907623366743849 33.364391136547169 4.0828759197718778 0 -0.79863551827123203 -0.60181501223851219 0.75 0 0 1 I I -0.70710678118654757 0.70710678118654757 0.75 forward I I I I #
loop $-1 $-1 $305 $82 #
coedge $-1 $193 $193 $306 $307 reversed $121 $-1 #
face $-1 $-1 $308 $65 $-1 $309 forward single #
loop $-1 $310 $311 $123 #
cone-surface $-1 -3.4725256813140533 33.364391136547169 4.0828759197718778 0 -0.79863551827123203 -0.60181501223851219 0.75 0 0 1 I I -0.70710678118654757 0.70710678118654757 0.75 forward I I I I #
loop $-1 $-1 $312 $83 #
coedge $-1 $198 $198 $313 $314 reversed $124 $-1 #
face $-1 $315 $316 $66 $-1 $317 reversed single #
loop $-1 $-1 $318 $126 #
plane-surface $-1 19.076332769969625 -8.0572960243184326 63.406139310500933 0 0.79863551827123203 0.60181501223851219 1 0 0 forward_v I I I I #
coedge $-1 $319 $320 $321 $322 reversed $127 $-1 #
face $-1 $-1 $323 $67 $-1 $324 forward single #
loop $-1 $325 $326 $129 #
cone-surface $-1 15.35878392725472 33.364391136547169 4.0828759197718778 0 -0.79863551827123203 -0.60181501223851219 0.75 0 0 1 I I -0.70710678118654757 0.70710678118654757 0.75 forward I I I I #
loop $-1 $-1 $327 $85 #
coedge $-1 $207 $207 $328 $329 reversed $130 $-1 #
face $-1 $-1 $330 $68 $-1 $331 forward single #
loop $-1 $332 $333 $132 #
cone-surface $-1 22.793881612684515 33.364391136547169 4.0828759197718778 0 -0.79863551827123203 -0.60181501223851219 0.75 0 0 1 I I -0.70710678118654757 0.70710678118654757 0.75 forward I I I I #
loop $-1 $-1 $334 $86 #
coedge $-1 $212 $212 $335 $336 reversed $133 $-1 #
face $-1 $337 $338 $69 $-1 $339 reversed single #
loop $-1 $-1 $340 $135 #
plane-surface $-1 45.342740063968193 -8.0572960243184326 63.406139310500933 0 0.79863551827123203 0.60181501223851219 1 0 0 forward_v I I I I #
coedge $-1 $341 $342 $343 $344 reversed $136 $-1 #
face $-1 $-1 $345 $70 $-1 $346 forward single #
loop $-1 $347 $348 $138 #
cone-surface $-1 41.625191221253289 33.364391136547169 4.0828759197718778 0 -0.79863551827123203 -0.60181501223851219 0.75 0 0 1 I I -0.70710678118654757 0.70710678118654757 0.75 forward I I I I #
loop $-1 $-1 $349 $88 #
coedge $-1 $221 $221 $350 $351 reversed $139 $-1 #
face $-1 $-1 $352 $71 $-1 $353 forward single #
loop $-1 $354 $355 $141 #
cone-surface $-1 49.060288906683084 33.364391136547169 4.0828759197718778 0 -0.79863551827123203 -0.60181501223851219 0.75 0 0 1 I I -0.70710678118654757 0.70710678118654757 0.75 forward I I I I #
loop $-1 $-1 $356 $89 #
coedge $-1 $226 $226 $357 $358 reversed $142 $-1 #
face $-1 $359 $360 $54 $-1 $361 reversed single #
loop $-1 $-1 $362 $144 #
plane-surface $-1 0 -39.568310444452777 0 0 1 0 0 0 1 forward_v I I I I #
coedge $-1 $363 $364 $365 $366 forward $145 $-1 #
coedge $-1 $367 $147 $368 $369 forward $91 $-1 #
coedge $-1 $147 $367 $370 $371 forward $91 $-1 #
coedge $-1 $372 $373 $147 $234 reversed $374 $-1 #
edge $-1 $375 -39.568310444452777 $376 39.568310444452777 $233 $377 forward 7 unknown #
face $-1 $378 $379 $55 $-1 $380 reversed single #
loop $-1 $-1 $381 $148 #
plane-surface $-1 0 39.568310444452777 0 0 -1 0 0 0 -1 forward_v I I I I #
coedge $-1 $382 $383 $151 $241 reversed $149 $-1 #
coedge $-1 $384 $151 $385 $386 reversed $94 $-1 #
coedge $-1 $151 $384 $387 $388 reversed $94 $-1 #
edge $-1 $389 -39.568310444452777 $390 39.568310444452777 $238 $391 forward 7 unknown #
face $-1 $392 $393 $56 $-1 $394 forward single #
loop $-1 $-1 $395 $152 #
plane-surface $-1 -45.07348784006048 0 9.6154022027985153 -1 0 0 0 0 1 forward_v I I I I #
coedge $-1 $396 $397 $398 $399 reversed $153 $-1 #
coedge $-1 $247 $155 $400 $401 reversed $97 $-1 #
coedge $-1 $155 $246 $396 $402 reversed $97 $-1 #
coedge $-1 $398 $403 $155 $249 forward $393 $-1 #
edge $-1 $404 21.189257623904552 $405 29.69586661615039 $248 $406 forward 7 unknown #
loop $-1 $-1 $255 $156 #
plane-surface $-1 -31.881285405005197 -39.568310444452791 2.3065505146843606 0 -0.71933980857756763 0.69465836192734942 1 0 0 forward_v I I I I #
loop $-1 $-1 $407 $99 #
coedge $-1 $253 $253 $254 $408 reversed $157 $-1 #
coedge $-1 $254 $254 $253 $408 forward $159 $-1 #
coedge $-1 $255 $255 $160 $256 forward $250 $-1 #
edge $-1 $409 -2.5556083776392588e-015 $409 6.2831853071795978 $255 $410 forward 7 unknown #
loop $-1 $-1 $262 $161 #
plane-surface $-1 -31.881285405005197 -39.568310444452791 2.3065505146843606 0 -0.71933980857756763 0.69465836192734942 1 0 0 forward_v I I I I #
loop $-1 $-1 $411 $102 #
coedge $-1 $260 $260 $261 $412 reversed $162 $-1 #
coedge $-1 $261 $261 $260 $412 forward $164 $-1 #
coedge $-1 $262 $262 $165 $263 forward $257 $-1 #
edge $-1 $413 -2.5556083776392588e-015 $413 6.2831853071795978 $262 $414 forward 7 unknown #
loop $-1 $-1 $269 $166 #
plane-surface $-1 -31.881285405005197 -39.568310444452791 2.3065505146843606 0 -0.71933980857756763 0.69465836192734942 1 0 0 forward_v I I I I #
loop $-1 $-1 $415 $105 #
coedge $-1 $267 $267 $268 $416 reversed $167 $-1 #
coedge $-1 $268 $268 $267 $416 forward $169 $-1 #
coedge $-1 $269 $269 $170 $270 forward $264 $-1 #
edge $-1 $417 -2.5556083776392588e-015 $417 6.2831853071795978 $269 $418 forward 7 unknown #
face $-1 $419 $420 $60 $-1 $421 forward single #
loop $-1 $-1 $422 $171 #
plane-surface $-1 -24.782201185026096 82.922856647664204 131.96459988619961 -1 0 0 0 0.79863551827123203 0.60181501223851219 forward_v I I I I #
coedge $-1 $423 $424 $425 $426 reversed $172 $-1 #
coedge $-1 $276 $174 $427 $428 reversed $109 $-1 #
coedge $-1 $174 $275 $423 $429 reversed $109 $-1 #
coedge $-1 $425 $430 $174 $278 forward $420 $-1 #
edge $-1 $431 1.8931178793793251 $432 10.114828738106858 $277 $433 forward 7 unknown #
loop $-1 $-1 $284 $175 #
plane-surface $-1 -33.45648181802752 -8.0572960243184326 63.406139310500933 0 0.79863551827123203 0.60181501223851219 1 0 0 forward_v I I I I #
loop $-1 $-1 $434 $111 #
coedge $-1 $282 $282 $283 $435 reversed $176 $-1 #
coedge $-1 $283 $283 $282 $435 forward $178 $-1 #
coedge $-1 $284 $284 $179 $285 forward $279 $-1 #
edge $-1 $436 -9.1888396742296944e-016 $436 6.2831853071795996 $284 $437 forward 7 unknown #
loop $-1 $-1 $291 $180 #
plane-surface $-1 -33.45648181802752 -8.0572960243184326 63.406139310500933 0 0.79863551827123203 0.60181501223851219 1 0 0 forward_v I I I I #
loop $-1 $-1 $438 $114 #
coedge $-1 $289 $289 $290 $439 reversed $181 $-1 #
coedge $-1 $290 $290 $289 $439 forward $183 $-1 #
coedge $-1 $291 $291 $184 $292 forward $286 $-1 #
edge $-1 $440 -9.1888396742296944e-016 $440 6.2831853071795996 $291 $441 forward 7 unknown #
face $-1 $442 $443 $63 $-1 $444 forward single #
loop $-1 $-1 $445 $185 #
plane-surface $-1 1.4842061089724794 82.922856647664204 131.96459988619961 -1 0 0 0 0.79863551827123203 0.60181501223851219 forward_v I I I I #
coedge $-1 $446 $447 $448 $449 reversed $186 $-1 #
coedge $-1 $298 $188 $450 $451 reversed $118 $-1 #
coedge $-1 $188 $297 $446 $452 reversed $118 $-1 #
coedge $-1 $448 $453 $188 $300 forward $443 $-1 #
edge $-1 $454 1.8931178793793251 $455 10.114828738106858 $299 $456 forward 7 unknown #
loop $-1 $-1 $306 $189 #
plane-surface $-1 -7.1900745240289439 -8.0572960243184326 63.406139310500933 0 0.79863551827123203 0.60181501223851219 1 0 0 forward_v I I I I #
loop $-1 $-1 $457 $120 #
coedge $-1 $304 $304 $305 $458 reversed $190 $-1 #
coedge $-1 $305 $305 $304 $458 forward $192 $-1 #
coedge $-1 $306 $306 $193 $307 forward $301 $-1 #
edge $-1 $459 -9.1888396742296944e-016 $459 6.2831853071795996 $306 $460 forward 7 unknown #
loop $-1 $-1 $313 $194 #
plane-surface $-1 -7.1900745240289439 -8.0572960243184326 63.406139310500933 0 0.79863551827123203 0.60181501223851219 1 0 0 forward_v I I I I #
loop $-1 $-1 $461 $123 #
coedge $-1 $311 $311 $312 $462 reversed $195 $-1 #
coedge $-1 $312 $312 $311 $462 forward $197 $-1 #
coedge $-1 $313 $313 $198 $314 forward $308 $-1 #
edge $-1 $463 -9.1888396742296944e-016 $463 6.2831853071795996 $313 $464 forward 7 unknown #
face $-1 $465 $466 $66 $-1 $467 forward single #
loop $-1 $-1 $468 $199 #
plane-surface $-1 27.750613402971048 82.922856647664204 131.96459988619961 -1 0 0 0 0.79863551827123203 0.60181501223851219 forward_v I I I I #
coedge $-1 $469 $470 $471 $472 reversed $200 $-1 #
coedge $-1 $320 $202 $473 $474 reversed $127 $-1 #
coedge $-1 $202 $319 $469 $475 reversed $127 $-1 #
coedge $-1 $471 $476 $202 $322 forward $466 $-1 #
edge $-1 $477 1.8931178793793251 $478 10.114828738106858 $321 $479 forward 7 unknown #
loop $-1 $-1 $328 $203 #
plane-surface $-1 19.076332769969625 -8.0572960243184326 63.406139310500933 0 0.79863551827123203 0.60181501223851219 1 0 0 forward_v I I I I #
loop $-1 $-1 $480 $129 #
coedge $-1 $326 $326 $327 $481 reversed $204 $-1 #
coedge $-1 $327 $327 $326 $481 forward $206 $-1 #
coedge $-1 $328 $328 $207 $329 forward $323 $-1 #
edge $-1 $482 -9.1888396742296944e-016 $482 6.2831853071795996 $328 $483 forward 7 unknown #
loop $-1 $-1 $335 $208 #
plane-surface $-1 19.076332769969625 -8.0572960243184326 63.406139310500933 0 0.79863551827123203 0.60181501223851219 1 0 0 forward_v I I I I #
loop $-1 $-1 $484 $132 #
coedge $-1 $333 $333 $334 $485 reversed $209 $-1 #
coedge $-1 $334 $334 $333 $485 forward $211 $-1 #
coedge $-1 $335 $335 $212 $336 forward $330 $-1 #
edge $-1 $486 -9.1888396742296944e-016 $486 6.2831853071795996 $335 $487 forward 7 unknown #
face $-1 $488 $489 $69 $-1 $490 forward single #
loop $-1 $-1 $491 $213 #
plane-surface $-1 54.017020696969617 82.922856647664204 131.96459988619961 -1 0 0 0 0.79863551827123203 0.60181501223851219 forward_v I I I I #
coedge $-1 $492 $493 $494 $495 reversed $214 $-1 #
coedge $-1 $342 $216 $496 $497 reversed $136 $-1 #
coedge $-1 $216 $341 $492 $498 reversed $136 $-1 #
coedge $-1 $494 $499 $216 $344 forward $489 $-1 #
edge $-1 $500 1.8931178793793251 $501 10.114828738106858 $343 $502 forward 7 unknown #
loop $-1 $-1 $350 $217 #
plane-surface $-1 45.342740063968193 -8.0572960243184326 63.406139310500933 0 0.79863551827123203 0.60181501223851219 1 0 0 forward_v I I I I #
loop $-1 $-1 $503 $138 #
coedge $-1 $348 $348 $349 $504 reversed $218 $-1 #
coedge $-1 $349 $349 $348 $504 forward $220 $-1 #
coedge $-1 $350 $350 $221 $351 forward $345 $-1 #
edge $-1 $505 -9.1888396742296944e-016 $505 6.2831853071795996 $350 $506 forward 7 unknown #
loop $-1 $-1 $357 $222 #
plane-surface $-1 45.342740063968193 -8.0572960243184326 63.406139310500933 0 0.79863551827123203 0.60181501223851219 1 0 0 forward_v I I I I #
loop $-1 $-1 $507 $141 #
coedge $-1 $355 $355 $356 $508 reversed $223 $-1 #
coedge $-1 $356 $356 $355 $508 forward $225 $-1 #
coedge $-1 $357 $357 $226 $358 forward $352 $-1 #
edge $-1 $509 -9.1888396742296944e-016 $509 6.2831853071795996 $357 $510 forward 7 unknown #
face $-1 $511 $512 $54 $-1 $513 reversed single #
loop $-1 $-1 $514 $227 #
plane-surface $-1 -56.959746086001161 0 0 1 0 0 0 0 -1 forward_v I I I I #
coedge $-1 $515 $370 $516 $517 forward $228 $-1 #
coedge $-1 $518 $230 $515 $519 forward $145 $-1 #
coedge $-1 $230 $518 $520 $521 forward $145 $-1 #
coedge $-1 $373 $372 $230 $366 reversed $374 $-1 #
edge $-1 $522 -39.568310444452777 $523 39.568310444452777 $365 $524 forward 7 unknown #
coedge $-1 $232 $231 $525 $526 forward $91 $-1 #
coedge $-1 $527 $528 $231 $369 reversed $512 $-1 #
edge $-1 $376 -56.959746086001161 $529 56.959746086001161 $368 $530 forward 7 unknown #
coedge $-1 $362 $531 $232 $371 reversed $228 $-1 #
edge $-1 $532 -56.959746086001161 $375 56.959746086001161 $370 $533 forward 7 unknown #
coedge $-1 $365 $233 $531 $534 forward $374 $-1 #
coedge $-1 $233 $365 $527 $535 reversed $374 $-1 #
loop $-1 $-1 $372 $511 #
vertex $-1 $234 $536 #
vertex $-1 $234 $537 #
straight-curve $-1 56.959746086001161 0 11.115402202798515 0 1 0 I I #
face $-1 $538 $539 $55 $-1 $540 forward single #
loop $-1 $-1 $541 $235 #
plane-surface $-1 -56.959746086001161 0 0 1 0 0 0 0 -1 forward_v I I I I #
coedge $-1 $387 $542 $382 $543 forward $236 $-1 #
coedge $-1 $544 $238 $381 $543 reversed $149 $-1 #
coedge $-1 $238 $544 $545 $546 reversed $149 $-1 #
coedge $-1 $240 $239 $541 $547 reversed $94 $-1 #
coedge $-1 $545 $548 $239 $386 forward $549 $-1 #
edge $-1 $550 -31.451437604485751 $390 -19.56517935854507 $385 $551 forward 7 unknown #
coedge $-1 $552 $381 $240 $388 forward $236 $-1 #
edge $-1 $389 19.56517935854507 $553 31.451437604485751 $387 $554 forward 7 unknown #
vertex $-1 $388 $555 #
vertex $-1 $386 $556 #
straight-curve $-1 -45.07348784006048 0 8.1154022027985153 0 -1 0 I I #
face $-1 $-1 $557 $56 $-1 $558 reversed single #
loop $-1 $-1 $398 $242 #
plane-surface $-1 0 0 11.115402202798515 0 0 1 1 0 0 forward_v I I I I #
coedge $-1 $559 $560 $397 $561 reversed $243 $-1 #
coedge $-1 $562 $245 $247 $402 forward $153 $-1 #
coedge $-1 $245 $562 $395 $561 forward $153 $-1 #
coedge $-1 $563 $248 $245 $399 forward $393 $-1 #
edge $-1 $405 2.7484402674473163 $564 29.132845137557879 $398 $565 forward 7 unknown #
coedge $-1 $566 $567 $246 $401 forward $557 $-1 #
edge $-1 $568 -38.414288654557126 $404 -29.605436966442987 $400 $569 forward 7 unknown #
edge $-1 $405 -12.245744755226184 $568 -2.0413573615811715e-014 $247 $570 forward 7 unknown #
coedge $-1 $248 $563 $566 $571 forward $393 $-1 #
vertex $-1 $401 $572 #
vertex $-1 $249 $573 #
straight-curve $-1 -18.689082969949915 -60.75756806835733 11.115402202798514 0 1 0 I I #
coedge $-1 $407 $407 $-1 $574 reversed $252 $-1 #
edge $-1 $575 0 $575 6.2831853071796004 $253 $576 forward 7 unknown #
vertex $-1 $256 $577 #
ellipse-curve $-1 -39.796606866038367 -35.315005948329855 6.7109763587414477 0 -0.71933980857756763 0.69465836192734942 2 0 0 1 I I #
coedge $-1 $411 $411 $-1 $578 reversed $259 $-1 #
edge $-1 $579 0 $579 6.2831853071796004 $260 $580 forward 7 unknown #
vertex $-1 $263 $581 #
ellipse-curve $-1 -31.881285405005197 -35.315005948329855 6.7109763587414477 0 -0.71933980857756763 0.69465836192734942 2 0 0 1 I I #
coedge $-1 $415 $415 $-1 $582 reversed $266 $-1 #
edge $-1 $583 0 $583 6.2831853071796004 $267 $584 forward 7 unknown #
vertex $-1 $270 $585 #
ellipse-curve $-1 -23.965963943972028 -35.315005948329855 6.7109763587414477 0 -0.71933980857756763 0.69465836192734942 2 0 0 1 I I #
face $-1 $-1 $586 $60 $-1 $587 reversed single #
loop $-1 $-1 $277 $271 #
plane-surface $-1 0 0 11.115402202798515 0 0 1 1 0 0 forward_v I I I I #
coedge $-1 $588 $589 $590 $591 reversed $272 $-1 #
coedge $-1 $592 $274 $276 $429 forward $172 $-1 #
coedge $-1 $274 $592 $588 $593 forward $172 $-1 #
coedge $-1 $590 $277 $274 $426 forward $420 $-1 #
edge $-1 $432 -25.402521542015183 $594 -8.0539602760123365 $425 $595 forward 7 unknown #
coedge $-1 $596 $597 $275 $428 forward $586 $-1 #
edge $-1 $598 -65.777476870443991 $431 -54.86689774030129 $427 $599 forward 7 unknown #
edge $-1 $432 65.475095849598162 $598 79.136620888905583 $276 $600 forward 7 unknown #
coedge $-1 $277 $590 $596 $601 forward $420 $-1 #
vertex $-1 $428 $602 #
vertex $-1 $278 $603 #
straight-curve $-1 -42.130762451028943 41.461428323832102 11.115402202798514 0 -1 0 I I #
coedge $-1 $434 $434 $-1 $604 reversed $281 $-1 #
edge $-1 $605 0 $605 6.2831853071796004 $282 $606 forward 7 unknown #
vertex $-1 $285 $607 #
ellipse-curve $-1 -37.174030660742417 35.457455015089003 5.6601126377271687 0 0.79863551827123203 0.60181501223851219 1.5 0 0 1 I I #
coedge $-1 $438 $438 $-1 $608 reversed $288 $-1 #
edge $-1 $609 0 $609 6.2831853071796004 $289 $610 forward 7 unknown #
vertex $-1 $292 $611 #
ellipse-curve $-1 -29.738932975312625 35.457455015089003 5.6601126377271687 0 0.79863551827123203 0.60181501223851219 1.5 0 0 1 I I #
face $-1 $-1 $612 $63 $-1 $613 reversed single #
loop $-1 $-1 $299 $293 #
plane-surface $-1 0 0 11.115402202798515 0 0 1 1 0 0 forward_v I I I I #
coedge $-1 $614 $615 $616 $617 reversed $294 $-1 #
coedge $-1 $618 $296 $298 $452 forward $186 $-1 #
coedge $-1 $296 $618 $614 $619 forward $186 $-1 #
coedge $-1 $616 $299 $296 $449 forward $443 $-1 #
edge $-1 $455 -12.269317895015895 $620 5.0792433709869513 $448 $621 forward 7 unknown #
coedge $-1 $622 $623 $297 $451 forward $612 $-1 #
edge $-1 $624 -65.777476870443991 $454 -54.86689774030129 $450 $625 forward 7 unknown #
edge $-1 $455 65.475095849598162 $624 79.136620888905583 $298 $626 forward 7 unknown #
coedge $-1 $299 $616 $622 $627 forward $443 $-1 #
vertex $-1 $300 $628 #
vertex $-1 $300 $629 #
straight-curve $-1 -15.864355157030367 41.461428323832102 11.115402202798514 0 -1 0 I I #
coedge $-1 $457 $457 $-1 $630 reversed $303 $-1 #
edge $-1 $631 0 $631 6.2831853071796004 $304 $632 forward 7 unknown #
vertex $-1 $307 $633 #
ellipse-curve $-1 -10.907623366743849 35.457455015089003 5.6601126377271687 0 0.79863551827123203 0.60181501223851219 1.5 0 0 1 I I #
coedge $-1 $461 $461 $-1 $634 reversed $310 $-1 #
edge $-1 $635 0 $635 6.2831853071796004 $311 $636 forward 7 unknown #
vertex $-1 $314 $637 #
ellipse-curve $-1 -3.4725256813140533 35.457455015089003 5.6601126377271687 0 0.79863551827123203 0.60181501223851219 1.5 0 0 1 I I #
face $-1 $-1 $638 $66 $-1 $639 reversed single #
loop $-1 $-1 $321 $315 #
plane-surface $-1 0 0 11.115402202798515 0 0 1 1 0 0 forward_v I I I I #
coedge $-1 $640 $641 $642 $643 reversed $316 $-1 #
coedge $-1 $644 $318 $320 $475 forward $200 $-1 #
coedge $-1 $318 $644 $640 $645 forward $200 $-1 #
coedge $-1 $642 $321 $318 $472 forward $466 $-1 #
edge $-1 $478 0.86388575198338913 $646 18.212447017986236 $471 $647 forward 7 unknown #
coedge $-1 $648 $649 $319 $474 forward $638 $-1 #
edge $-1 $650 -65.777476870443991 $477 -54.86689774030129 $473 $651 forward 7 unknown #
edge $-1 $478 65.475095849598162 $650 79.136620888905583 $320 $652 forward 7 unknown #
coedge $-1 $321 $642 $648 $653 forward $466 $-1 #
vertex $-1 $322 $654 #
vertex $-1 $322 $655 #
straight-curve $-1 10.402052136968202 41.461428323832102 11.115402202798514 0 -1 0 I I #
coedge $-1 $480 $480 $-1 $656 reversed $325 $-1 #
edge $-1 $657 0 $657 6.2831853071796004 $326 $658 forward 7 unknown #
vertex $-1 $329 $659 #
ellipse-curve $-1 15.35878392725472 35.457455015089003 5.6601126377271687 0 0.79863551827123203 0.60181501223851219 1.5 0 0 1 I I #
coedge $-1 $484 $484 $-1 $660 reversed $332 $-1 #
edge $-1 $661 0 $661 6.2831853071796004 $333 $662 forward 7 unknown #
vertex $-1 $336 $663 #
ellipse-curve $-1 22.793881612684515 35.457455015089003 5.6601126377271687 0 0.79863551827123203 0.60181501223851219 1.5 0 0 1 I I #
face $-1 $-1 $664 $69 $-1 $665 reversed single #
loop $-1 $-1 $343 $337 #
plane-surface $-1 0 0 11.115402202798515 0 0 1 1 0 0 forward_v I I I I #
coedge $-1 $666 $667 $668 $669 reversed $338 $-1 #
coedge $-1 $670 $340 $342 $498 forward $214 $-1 #
coedge $-1 $340 $670 $666 $671 forward $214 $-1 #
coedge $-1 $668 $343 $340 $495 forward $489 $-1 #
edge $-1 $501 13.997089398982673 $672 31.34565066498552 $494 $673 forward 7 unknown #
coedge $-1 $674 $675 $341 $497 forward $664 $-1 #
edge $-1 $676 -65.777476870443991 $500 -54.86689774030129 $496 $677 forward 7 unknown #
edge $-1 $501 65.475095849598162 $676 79.136620888905583 $342 $678 forward 7 unknown #
coedge $-1 $343 $668 $674 $679 forward $489 $-1 #
vertex $-1 $344 $680 #
vertex $-1 $344 $681 #
straight-curve $-1 36.66845943096677 41.461428323832102 11.115402202798514 0 -1 0 I I #
coedge $-1 $503 $503 $-1 $682 reversed $347 $-1 #
edge $-1 $683 0 $683 6.2831853071796004 $348 $684 forward 7 unknown #
vertex $-1 $351 $685 #
ellipse-curve $-1 41.625191221253289 35.457455015089003 5.6601126377271687 0 0.79863551827123203 0.60181501223851219 1.5 0 0 1 I I #
coedge $-1 $507 $507 $-1 $686 reversed $354 $-1 #
edge $-1 $687 0 $687 6.2831853071796004 $355 $688 forward 7 unknown #
vertex $-1 $358 $689 #
ellipse-curve $-1 49.060288906683084 35.457455015089003 5.6601126377271687 0 0.79863551827123203 0.60181501223851219 1.5 0 0 1 I I #
face $-1 $-1 $374 $54 $-1 $690 reversed single #
loop $-1 $-1 $527 $359 #
plane-surface $-1 0 39.568310444452777 0 0 -1 0 0 0 -1 forward_v I I I I #
coedge $-1 $691 $525 $528 $692 forward $360 $-1 #
coedge $-1 $531 $362 $363 $519 reversed $228 $-1 #
coedge $-1 $525 $691 $362 $517 reversed $360 $-1 #
edge $-1 $532 -11.115402202798515 $693 11.115402202798515 $516 $694 forward 7 unknown #
coedge $-1 $364 $363 $691 $695 forward $145 $-1 #
edge $-1 $523 -56.959746086001161 $693 56.959746086001161 $515 $696 forward 7 unknown #
coedge $-1 $528 $527 $364 $521 reversed $512 $-1 #
edge $-1 $697 -56.959746086001161 $522 56.959746086001161 $520 $698 forward 7 unknown #
vertex $-1 $366 $699 #
vertex $-1 $534 $700 #
straight-curve $-1 56.959746086001161 0 -11.115402202798515 0 -1 0 I I #
coedge $-1 $514 $516 $367 $526 reversed $360 $-1 #
edge $-1 $529 -39.568310444452777 $532 39.568310444452777 $525 $701 forward 7 unknown #
coedge $-1 $520 $368 $373 $535 forward $512 $-1 #
coedge $-1 $368 $520 $514 $692 reversed $512 $-1 #
vertex $-1 $369 $702 #
straight-curve $-1 0 39.568310444452777 11.115402202798515 -1 0 0 I I #
coedge $-1 $370 $515 $372 $534 reversed $228 $-1 #
vertex $-1 $526 $703 #
straight-curve $-1 0 -39.568310444452777 11.115402202798515 1 0 0 I I #
edge $-1 $375 -11.115402202798515 $523 11.115402202798515 $372 $704 forward 7 unknown #
edge $-1 $376 -11.115402202798515 $522 11.115402202798515 $373 $705 forward 7 unknown #
point $-1 56.959746086001161 -39.568310444452777 11.115402202798515 #
point $-1 56.959746086001161 39.568310444452777 11.115402202798515 #
face $-1 $-1 $549 $55 $-1 $706 reversed single #
loop $-1 $-1 $707 $378 #
plane-surface $-1 0 0 11.115402202798515 0 0 1 1 0 0 forward_v I I I I #
coedge $-1 $708 $709 $384 $547 forward $379 $-1 #
coedge $-1 $381 $552 $710 $711 reversed $236 $-1 #
edge $-1 $712 -6.3077011013992577 $389 -3.3077011013992577 $381 $713 forward 7 unknown #
coedge $-1 $383 $382 $707 $714 reversed $149 $-1 #
coedge $-1 $715 $385 $383 $546 forward $549 $-1 #
edge $-1 $390 3.3077011013992577 $716 6.3077011013992577 $545 $717 forward 7 unknown #
edge $-1 $553 -39.568310444452777 $550 39.568310444452777 $541 $718 forward 7 unknown #
coedge $-1 $385 $715 $708 $719 forward $549 $-1 #
loop $-1 $-1 $545 $538 #
vertex $-1 $547 $720 #
straight-curve $-1 -25.50830848151541 -39.568310444452777 8.1154022027985153 1 0 0 I I #
coedge $-1 $542 $387 $709 $721 reversed $236 $-1 #
vertex $-1 $547 $722 #
straight-curve $-1 -25.50830848151541 39.568310444452777 8.1154022027985153 -1 0 0 I I #
point $-1 -45.07348784006048 39.568310444452777 8.1154022027985153 #
point $-1 -45.07348784006048 -39.568310444452777 8.1154022027985153 #
loop $-1 $-1 $400 $392 #
plane-surface $-1 0 -39.568310444452777 0 0 1 0 0 0 1 forward_v I I I I #
coedge $-1 $560 $395 $723 $724 reversed $243 $-1 #
coedge $-1 $395 $559 $563 $725 reversed $243 $-1 #
edge $-1 $726 2.0413573615811715e-014 $564 12.245744755226184 $395 $727 forward 7 unknown #
coedge $-1 $397 $396 $567 $728 reversed $153 $-1 #
coedge $-1 $403 $398 $560 $725 forward $393 $-1 #
vertex $-1 $725 $729 #
straight-curve $-1 -15.940642702502599 -31.06170145220694 11.115402202798515 -1 0 0 I I #
coedge $-1 $723 $400 $403 $571 reversed $557 $-1 #
coedge $-1 $400 $723 $562 $728 forward $557 $-1 #
vertex $-1 $401 $730 #
straight-curve $-1 -18.689082969949915 -39.568310444452777 40.720839169241501 0 0 1 I I #
straight-curve $-1 -18.689082969949915 -39.568310444452791 2.3065505146843606 0 -0.69465836192734942 -0.71933980857756763 I I #
edge $-1 $731 -45.07348784006048 $404 -18.689082969949915 $566 $732 forward 7 unknown #
point $-1 -18.689082969949915 -39.568310444452777 11.115402202798515 #
point $-1 -18.689082969949915 -31.06170145220694 11.115402202798515 #
edge $-1 $733 1 $733 0 $407 $-1 forward 7 unknown #
vertex $-1 $408 $734 #
ellipse-curve $-1 -39.796606866038367 -31.672797965863133 3.1937370780430947 0 -0.71933980857756763 0.69465836192734942 2 0 0 1 I I #
point $-1 -37.796606866038367 -35.315005948329855 6.7109763587414406 #
edge $-1 $735 1 $735 0 $411 $-1 forward 7 unknown #
vertex $-1 $412 $736 #
ellipse-curve $-1 -31.881285405005197 -31.672797965863133 3.1937370780430947 0 -0.71933980857756763 0.69465836192734942 2 0 0 1 I I #
point $-1 -29.881285405005197 -35.315005948329855 6.7109763587414406 #
edge $-1 $737 1 $737 0 $415 $-1 forward 7 unknown #
vertex $-1 $416 $738 #
ellipse-curve $-1 -23.965963943972028 -31.672797965863133 3.1937370780430947 0 -0.71933980857756763 0.69465836192734942 2 0 0 1 I I #
point $-1 -21.965963943972028 -35.315005948329855 6.7109763587414406 #
loop $-1 $-1 $427 $419 #
plane-surface $-1 0 39.568310444452777 0 0 -1 0 0 0 -1 forward_v I I I I #
coedge $-1 $589 $422 $424 $593 reversed $272 $-1 #
coedge $-1 $422 $588 $739 $740 reversed $272 $-1 #
coedge $-1 $430 $425 $422 $591 forward $420 $-1 #
edge $-1 $594 -10.114828738106858 $741 -1.8931178793793251 $590 $742 forward 7 unknown #
coedge $-1 $424 $423 $597 $743 reversed $172 $-1 #
edge $-1 $744 -79.136620888905583 $594 -65.475095849598162 $588 $745 forward 7 unknown #
vertex $-1 $426 $746 #
straight-curve $-1 -16.72824090901376 31.34659958572524 11.115402202798521 1 0 0 I I #
coedge $-1 $739 $427 $430 $601 reversed $586 $-1 #
coedge $-1 $427 $739 $592 $743 forward $586 $-1 #
vertex $-1 $428 $747 #
straight-curve $-1 -42.130762451028943 39.568310444452777 65.982299943099804 0 0 1 I I #
straight-curve $-1 -42.130762451028943 -8.0572960243184326 63.406139310500933 0 0.60181501223851219 -0.79863551827123203 I I #
edge $-1 $741 24.782201185026096 $431 42.130762451028943 $596 $748 forward 7 unknown #
point $-1 -42.130762451028943 39.568310444452777 11.115402202798515 #
point $-1 -42.130762451028943 31.346599585725244 11.115402202798514 #
edge $-1 $749 1 $749 0 $434 $-1 forward 7 unknown #
vertex $-1 $435 $750 #
ellipse-curve $-1 -37.174030660742417 33.963367775250596 4.5342371789507618 0 0.79863551827123203 0.60181501223851219 1.5 0 0 1 I I #
point $-1 -35.674030660742417 35.457455015089018 5.6601126377271811 #
edge $-1 $751 1 $751 0 $438 $-1 forward 7 unknown #
vertex $-1 $439 $752 #
ellipse-curve $-1 -29.738932975312625 33.963367775250596 4.5342371789507618 0 0.79863551827123203 0.60181501223851219 1.5 0 0 1 I I #
point $-1 -28.238932975312625 35.457455015089018 5.6601126377271811 #
loop $-1 $-1 $450 $442 #
plane-surface $-1 0 39.568310444452777 0 0 -1 0 0 0 -1 forward_v I I I I #
coedge $-1 $615 $445 $447 $619 reversed $294 $-1 #
coedge $-1 $445 $614 $753 $754 reversed $294 $-1 #
coedge $-1 $453 $448 $445 $617 forward $443 $-1 #
edge $-1 $620 -10.114828738106858 $755 -1.8931178793793251 $616 $756 forward 7 unknown #
coedge $-1 $447 $446 $623 $757 reversed $186 $-1 #
edge $-1 $758 -79.136620888905583 $620 -65.475095849598162 $614 $759 forward 7 unknown #
vertex $-1 $449 $760 #
straight-curve $-1 -3.5950372620144719 31.34659958572524 11.115402202798521 1 0 0 I I #
coedge $-1 $753 $450 $453 $627 reversed $612 $-1 #
coedge $-1 $450 $753 $618 $757 forward $612 $-1 #
vertex $-1 $451 $761 #
straight-curve $-1 -15.864355157030367 39.568310444452777 65.982299943099804 0 0 1 I I #
straight-curve $-1 -15.864355157030367 -8.0572960243184326 63.406139310500933 0 0.60181501223851219 -0.79863551827123203 I I #
edge $-1 $755 -1.4842061089724794 $454 15.864355157030367 $622 $762 forward 7 unknown #
point $-1 -15.864355157030367 39.568310444452777 11.115402202798515 #
point $-1 -15.864355157030367 31.346599585725244 11.115402202798514 #
edge $-1 $763 1 $763 0 $457 $-1 forward 7 unknown #
vertex $-1 $458 $764 #
ellipse-curve $-1 -10.907623366743849 33.963367775250596 4.5342371789507618 0 0.79863551827123203 0.60181501223851219 1.5 0 0 1 I I #
point $-1 -9.4076233667438487 35.457455015089018 5.6601126377271811 #
edge $-1 $765 1 $765 0 $461 $-1 forward 7 unknown #
vertex $-1 $462 $766 #
ellipse-curve $-1 -3.4725256813140533 33.963367775250596 4.5342371789507618 0 0.79863551827123203 0.60181501223851219 1.5 0 0 1 I I #
point $-1 -1.9725256813140533 35.457455015089018 5.6601126377271811 #
loop $-1 $-1 $473 $465 #
plane-surface $-1 0 39.568310444452777 0 0 -1 0 0 0 -1 forward_v I I I I #
coedge $-1 $641 $468 $470 $645 reversed $316 $-1 #
coedge $-1 $468 $640 $767 $768 reversed $316 $-1 #
coedge $-1 $476 $471 $468 $643 forward $466 $-1 #
edge $-1 $646 -10.114828738106858 $769 -1.8931178793793251 $642 $770 forward 7 unknown #
coedge $-1 $470 $469 $649 $771 reversed $200 $-1 #
edge $-1 $772 -79.136620888905583 $646 -65.475095849598162 $640 $773 forward 7 unknown #
vertex $-1 $472 $774 #
straight-curve $-1 9.5381663849848124 31.34659958572524 11.115402202798521 1 0 0 I I #
coedge $-1 $767 $473 $476 $653 reversed $638 $-1 #
coedge $-1 $473 $767 $644 $771 forward $638 $-1 #
vertex $-1 $474 $775 #
straight-curve $-1 10.402052136968202 39.568310444452777 65.982299943099804 0 0 1 I I #
straight-curve $-1 10.402052136968202 -8.0572960243184326 63.406139310500933 0 0.60181501223851219 -0.79863551827123203 I I #
edge $-1 $769 -27.750613402971048 $477 -10.402052136968202 $648 $776 forward 7 unknown #
point $-1 10.402052136968202 39.568310444452777 11.115402202798515 #
point $-1 10.402052136968202 31.346599585725244 11.115402202798514 #
edge $-1 $777 1 $777 0 $480 $-1 forward 7 unknown #
vertex $-1 $481 $778 #
ellipse-curve $-1 15.35878392725472 33.963367775250596 4.5342371789507618 0 0.79863551827123203 0.60181501223851219 1.5 0 0 1 I I #
point $-1 16.85878392725472 35.457455015089018 5.6601126377271811 #
edge $-1 $779 1 $779 0 $484 $-1 forward 7 unknown #
vertex $-1 $485 $780 #
ellipse-curve $-1 22.793881612684515 33.963367775250596 4.5342371789507618 0 0.79863551827123203 0.60181501223851219 1.5 0 0 1 I I #
point $-1 24.293881612684515 35.457455015089018 5.6601126377271811 #
loop $-1 $-1 $496 $488 #
plane-surface $-1 0 39.568310444452777 0 0 -1 0 0 0 -1 forward_v I I I I #
coedge $-1 $667 $491 $493 $671 reversed $338 $-1 #
coedge $-1 $491 $666 $781 $782 reversed $338 $-1 #
coedge $-1 $499 $494 $491 $669 forward $489 $-1 #
edge $-1 $672 -10.114828738106858 $783 -1.8931178793793251 $668 $784 forward 7 unknown #
coedge $-1 $493 $492 $675 $785 reversed $214 $-1 #
edge $-1 $786 -79.136620888905583 $672 -65.475095849598162 $666 $787 forward 7 unknown #
vertex $-1 $495 $788 #
straight-curve $-1 22.671370031984097 31.34659958572524 11.115402202798521 1 0 0 I I #
coedge $-1 $781 $496 $499 $679 reversed $664 $-1 #
coedge $-1 $496 $781 $670 $785 forward $664 $-1 #
vertex $-1 $497 $789 #
straight-curve $-1 36.66845943096677 39.568310444452777 65.982299943099804 0 0 1 I I #
straight-curve $-1 36.66845943096677 -8.0572960243184326 63.406139310500933 0 0.60181501223851219 -0.79863551827123203 I I #
edge $-1 $783 -54.017020696969617 $500 -36.66845943096677 $674 $790 forward 7 unknown #
point $-1 36.66845943096677 39.568310444452777 11.115402202798515 #
point $-1 36.66845943096677 31.346599585725244 11.115402202798514 #
edge $-1 $791 1 $791 0 $503 $-1 forward 7 unknown #
vertex $-1 $504 $792 #
ellipse-curve $-1 41.625191221253289 33.963367775250596 4.5342371789507618 0 0.79863551827123203 0.60181501223851219 1.5 0 0 1 I I #
point $-1 43.125191221253289 35.457455015089018 5.6601126377271811 #
edge $-1 $793 1 $793 0 $507 $-1 forward 7 unknown #
vertex $-1 $508 $794 #
ellipse-curve $-1 49.060288906683084 33.963367775250596 4.5342371789507618 0 0.79863551827123203 0.60181501223851219 1.5 0 0 1 I I #
point $-1 50.560288906683084 35.457455015089018 5.6601126377271811 #
plane-surface $-1 56.959746086001161 0 0 -1 0 0 0 0 1 forward_v I I I I #
coedge $-1 $516 $514 $518 $695 reversed $360 $-1 #
edge $-1 $529 -11.115402202798515 $697 11.115402202798515 $528 $795 forward 7 unknown #
vertex $-1 $695 $796 #
straight-curve $-1 -56.959746086001161 -39.568310444452777 0 0 0 -1 I I #
edge $-1 $693 -39.568310444452777 $697 39.568310444452777 $691 $797 forward 7 unknown #
straight-curve $-1 0 -39.568310444452777 -11.115402202798515 -1 0 0 I I #
vertex $-1 $521 $798 #
straight-curve $-1 0 39.568310444452777 -11.115402202798515 1 0 0 I I #
point $-1 56.959746086001161 39.568310444452777 -11.115402202798515 #
point $-1 56.959746086001161 -39.568310444452777 -11.115402202798515 #
straight-curve $-1 -56.959746086001161 0 11.115402202798515 0 -1 0 I I #
point $-1 -56.959746086001161 39.568310444452777 11.115402202798515 #
point $-1 -56.959746086001161 -39.568310444452777 11.115402202798515 #
straight-curve $-1 56.959746086001161 -39.568310444452777 0 0 0 -1 I I #
straight-curve $-1 56.959746086001161 39.568310444452777 0 0 0 -1 I I #
plane-surface $-1 0 -39.568310444452777 0 0 1 0 0 0 1 forward_v I I I I #
coedge $-1 $710 $799 $544 $714 forward $539 $-1 #
coedge $-1 $800 $541 $548 $719 reversed $379 $-1 #
coedge $-1 $541 $800 $552 $721 forward $379 $-1 #
coedge $-1 $801 $707 $542 $711 forward $539 $-1 #
edge $-1 $712 45.07348784006048 $802 56.959746086001161 $542 $803 forward 7 unknown #
vertex $-1 $711 $804 #
straight-curve $-1 -45.07348784006048 39.568310444452777 4.8077011013992577 0 0 -1 I I #
edge $-1 $716 -39.568310444452777 $712 39.568310444452777 $707 $805 forward 7 unknown #
coedge $-1 $548 $545 $799 $806 reversed $549 $-1 #
vertex $-1 $546 $807 #
straight-curve $-1 -45.07348784006048 -39.568310444452777 4.8077011013992577 0 0 1 I I #
straight-curve $-1 -56.959746086001161 0 8.1154022027985153 0 -1 0 I I #
edge $-1 $808 -11.115402202798515 $550 -8.1154022027985153 $708 $809 forward 7 unknown #
point $-1 -56.959746086001161 -39.568310444452777 8.1154022027985153 #
edge $-1 $802 -11.115402202798515 $553 -8.1154022027985153 $552 $810 forward 7 unknown #
point $-1 -56.959746086001161 39.568310444452777 8.1154022027985153 #
coedge $-1 $567 $566 $559 $724 forward $557 $-1 #
edge $-1 $731 29.605436966442987 $726 38.414288654557126 $723 $811 forward 7 unknown #
edge $-1 $564 31.06170145220694 $731 39.568310444452777 $563 $812 forward 7 unknown #
vertex $-1 $724 $813 #
straight-curve $-1 -45.07348784006048 -39.568310444452791 2.3065505146843606 0 0.69465836192734942 0.71933980857756763 I I #
edge $-1 $726 -29.132845137557879 $568 -2.7484402674473163 $567 $814 forward 7 unknown #
point $-1 -45.07348784006048 -31.06170145220694 11.115402202798515 #
point $-1 -18.689082969949915 -39.568310444452777 2.3065505146843752 #
vertex $-1 $571 $815 #
straight-curve $-1 0 -39.568310444452777 11.115402202798515 1 0 0 I I #
vertex $-1 $574 $816 #
point $-1 -37.796606866038367 -31.672797965863133 3.1937370780430947 #
vertex $-1 $578 $817 #
point $-1 -29.881285405005197 -31.672797965863133 3.1937370780430947 #
vertex $-1 $582 $818 #
point $-1 -21.965963943972028 -31.672797965863133 3.1937370780430947 #
coedge $-1 $597 $596 $589 $740 forward $586 $-1 #
edge $-1 $741 54.86689774030129 $744 65.777476870443991 $739 $819 forward 7 unknown #
vertex $-1 $601 $820 #
straight-curve $-1 -24.782201185026096 41.461428323832102 11.115402202798514 0 1 0 I I #
edge $-1 $744 8.0539602760123365 $598 25.402521542015183 $597 $821 forward 7 unknown #
vertex $-1 $743 $822 #
straight-curve $-1 -24.782201185026096 -8.0572960243184326 63.406139310500933 0 -0.60181501223851219 0.79863551827123203 I I #
point $-1 -24.782201185026096 31.346599585725244 11.115402202798514 #
point $-1 -42.130762451028943 39.568310444452777 0.20482307265581312 #
straight-curve $-1 0 39.568310444452777 11.115402202798515 -1 0 0 I I #
vertex $-1 $604 $823 #
point $-1 -35.674030660742417 33.963367775250596 4.5342371789507618 #
vertex $-1 $608 $824 #
point $-1 -28.238932975312625 33.963367775250596 4.5342371789507618 #
coedge $-1 $623 $622 $615 $754 forward $612 $-1 #
edge $-1 $755 54.86689774030129 $758 65.777476870443991 $753 $825 forward 7 unknown #
vertex $-1 $627 $826 #
straight-curve $-1 1.4842061089724794 41.461428323832102 11.115402202798514 0 1 0 I I #
edge $-1 $758 -5.0792433709869513 $624 12.269317895015895 $623 $827 forward 7 unknown #
vertex $-1 $757 $828 #
straight-curve $-1 1.4842061089724794 -8.0572960243184326 63.406139310500933 0 -0.60181501223851219 0.79863551827123203 I I #
point $-1 1.4842061089724794 31.346599585725244 11.115402202798514 #
point $-1 -15.864355157030367 39.568310444452777 0.20482307265581312 #
straight-curve $-1 0 39.568310444452777 11.115402202798515 -1 0 0 I I #
vertex $-1 $630 $829 #
point $-1 -9.4076233667438487 33.963367775250596 4.5342371789507618 #
vertex $-1 $634 $830 #
point $-1 -1.9725256813140533 33.963367775250596 4.5342371789507618 #
coedge $-1 $649 $648 $641 $768 forward $638 $-1 #
edge $-1 $769 54.86689774030129 $772 65.777476870443991 $767 $831 forward 7 unknown #
vertex $-1 $653 $832 #
straight-curve $-1 27.750613402971048 41.461428323832102 11.115402202798514 0 1 0 I I #
edge $-1 $772 -18.212447017986236 $650 -0.86388575198338913 $649 $833 forward 7 unknown #
vertex $-1 $771 $834 #
straight-curve $-1 27.750613402971048 -8.0572960243184326 63.406139310500933 0 -0.60181501223851219 0.79863551827123203 I I #
point $-1 27.750613402971048 31.346599585725244 11.115402202798514 #
point $-1 10.402052136968202 39.568310444452777 0.20482307265581312 #
straight-curve $-1 0 39.568310444452777 11.115402202798515 -1 0 0 I I #
vertex $-1 $656 $835 #
point $-1 16.85878392725472 33.963367775250596 4.5342371789507618 #
vertex $-1 $660 $836 #
point $-1 24.293881612684515 33.963367775250596 4.5342371789507618 #
coedge $-1 $675 $674 $667 $782 forward $664 $-1 #
edge $-1 $783 54.86689774030129 $786 65.777476870443991 $781 $837 forward 7 unknown #
vertex $-1 $679 $838 #
straight-curve $-1 54.017020696969617 41.461428323832102 11.115402202798514 0 1 0 I I #
edge $-1 $786 -31.34565066498552 $676 -13.997089398982673 $675 $839 forward 7 unknown #
vertex $-1 $785 $840 #
straight-curve $-1 54.017020696969617 -8.0572960243184326 63.406139310500933 0 -0.60181501223851219 0.79863551827123203 I I #
point $-1 54.017020696969617 31.346599585725244 11.115402202798514 #
point $-1 36.66845943096677 39.568310444452777 0.20482307265581312 #
straight-curve $-1 0 39.568310444452777 11.115402202798515 -1 0 0 I I #
vertex $-1 $682 $841 #
point $-1 43.125191221253289 33.963367775250596 4.5342371789507618 #
vertex $-1 $686 $842 #
point $-1 50.560288906683084 33.963367775250596 4.5342371789507618 #
straight-curve $-1 -56.959746086001161 39.568310444452777 0 0 0 -1 I I #
point $-1 -56.959746086001161 -39.568310444452777 -11.115402202798515 #
straight-curve $-1 -56.959746086001161 0 -11.115402202798515 0 1 0 I I #
point $-1 -56.959746086001161 39.568310444452777 -11.115402202798515 #
coedge $-1 $707 $801 $715 $806 forward $539 $-1 #
coedge $-1 $709 $708 $801 $843 reversed $379 $-1 #
coedge $-1 $799 $710 $800 $843 forward $539 $-1 #
vertex $-1 $711 $844 #
straight-curve $-1 0 39.568310444452777 11.115402202798515 -1 0 0 I I #
point $-1 -45.07348784006048 39.568310444452777 11.115402202798515 #
straight-curve $-1 -45.07348784006048 0 11.115402202798515 0 1 0 I I #
edge $-1 $808 -56.959746086001161 $716 -45.07348784006048 $715 $845 forward 7 unknown #
point $-1 -45.07348784006048 -39.568310444452777 11.115402202798515 #
vertex $-1 $843 $846 #
straight-curve $-1 -56.959746086001161 -39.568310444452777 0 0 0 -1 I I #
straight-curve $-1 -56.959746086001161 39.568310444452777 0 0 0 -1 I I #
straight-curve $-1 -45.07348784006048 -39.568310444452777 40.720839169241501 0 0 -1 I I #
straight-curve $-1 -45.07348784006048 0 11.115402202798515 0 -1 0 I I #
point $-1 -45.07348784006048 -39.568310444452777 2.3065505146843752 #
straight-curve $-1 -15.940642702502599 -39.568310444452777 2.3065505146843726 1 0 0 I I #
point $-1 -45.07348784006048 -39.568310444452777 11.115402202798515 #
point $-1 -39.796606866038367 -30.234118348707995 1.8044203541883959 #
point $-1 -31.881285405005197 -30.234118348707995 1.8044203541883959 #
point $-1 -23.965963943972028 -30.234118348707995 1.8044203541883959 #
straight-curve $-1 -24.782201185026096 39.568310444452777 65.982299943099804 0 0 -1 I I #
point $-1 -24.782201185026096 39.568310444452777 11.115402202798515 #
straight-curve $-1 -16.72824090901376 39.568310444452777 0.20482307265581667 -1 0 0 I I #
point $-1 -24.782201185026096 39.568310444452777 0.20482307265581312 #
point $-1 -37.174030660742417 32.765414497843743 3.6315146605929938 #
point $-1 -29.738932975312625 32.765414497843743 3.6315146605929938 #
straight-curve $-1 1.4842061089724794 39.568310444452777 65.982299943099804 0 0 -1 I I #
point $-1 1.4842061089724794 39.568310444452777 11.115402202798515 #
straight-curve $-1 -3.5950372620144719 39.568310444452777 0.20482307265581667 -1 0 0 I I #
point $-1 1.4842061089724794 39.568310444452777 0.20482307265581312 #
point $-1 -10.907623366743849 32.765414497843743 3.6315146605929938 #
point $-1 -3.4725256813140533 32.765414497843743 3.6315146605929938 #
straight-curve $-1 27.750613402971048 39.568310444452777 65.982299943099804 0 0 -1 I I #
point $-1 27.750613402971048 39.568310444452777 11.115402202798515 #
straight-curve $-1 9.5381663849848124 39.568310444452777 0.20482307265581667 -1 0 0 I I #
point $-1 27.750613402971048 39.568310444452777 0.20482307265581312 #
point $-1 15.35878392725472 32.765414497843743 3.6315146605929938 #
point $-1 22.793881612684515 32.765414497843743 3.6315146605929938 #
straight-curve $-1 54.017020696969617 39.568310444452777 65.982299943099804 0 0 -1 I I #
point $-1 54.017020696969617 39.568310444452777 11.115402202798515 #
straight-curve $-1 22.671370031984097 39.568310444452777 0.20482307265581667 -1 0 0 I I #
point $-1 54.017020696969617 39.568310444452777 0.20482307265581312 #
point $-1 41.625191221253289 32.765414497843743 3.6315146605929938 #
point $-1 49.060288906683084 32.765414497843743 3.6315146605929938 #
edge $-1 $802 -39.568310444452777 $808 39.568310444452777 $800 $847 forward 7 unknown #
point $-1 -56.959746086001161 39.568310444452777 11.115402202798515 #
straight-curve $-1 0 -39.568310444452777 11.115402202798515 1 0 0 I I #
point $-1 -56.959746086001161 -39.568310444452777 11.115402202798515 #
straight-curve $-1 -56.959746086001161 0 11.115402202798515 0 -1 0 I I #
End-of-ACIS-data 