500 0 6 0           
7 Unknown 11 ACIS 5.0 NT 24 Thu Mar 25 18:01:24 1999 
-1 9.9999999999999995e-007 1e-010 
body $-1 $6 $-1 $7 #
body $-1 $8 $-1 $9 #
body $-1 $10 $-1 $11 #
body $-1 $12 $-1 $13 #
body $-1 $14 $-1 $15 #
body $-1 $16 $-1 $17 #
lump $-1 $-1 $18 $0 #
transform $-1 1 0 0 0 1 0 0 0 1 67.115085299233982 45.058479688564681 11.346233154036563 1 rotate no_reflect no_shear #
lump $-1 $-1 $19 $1 #
transform $-1 1 0 0 0 1 0 0 0 1 67.115085299233982 45.058479688564681 11.346233154036563 1 rotate no_reflect no_shear #
lump $-1 $-1 $20 $2 #
transform $-1 1 0 0 0 1 0 0 0 1 67.115085299233982 45.058479688564681 11.346233154036563 1 rotate no_reflect no_shear #
lump $-1 $-1 $21 $3 #
transform $-1 1 0 0 0 1 0 0 0 1 67.115085299233982 45.058479688564681 11.346233154036563 1 rotate no_reflect no_shear #
lump $-1 $-1 $22 $4 #
transform $-1 1 0 0 0 1 0 0 0 1 67.115085299233982 45.058479688564681 11.346233154036563 1 rotate no_reflect no_shear #
lump $-1 $-1 $23 $5 #
transform $-1 1 0 0 0 1 0 0 0 1 67.115085299233982 45.058479688564681 11.346233154036563 1 rotate no_reflect no_shear #
shell $-1 $-1 $-1 $24 $-1 $6 #
shell $-1 $-1 $-1 $25 $-1 $8 #
shell $-1 $-1 $-1 $26 $-1 $10 #
shell $-1 $-1 $-1 $27 $-1 $12 #
shell $-1 $-1 $-1 $28 $-1 $14 #
shell $-1 $-1 $-1 $29 $-1 $16 #
face $-1 $30 $31 $18 $-1 $32 forward single #
face $-1 $33 $34 $19 $-1 $35 reversed single #
face $-1 $36 $37 $20 $-1 $38 reversed single #
face $-1 $39 $40 $21 $-1 $41 forward single #
face $-1 $42 $43 $22 $-1 $44 reversed single #
face $-1 $45 $46 $23 $-1 $47 forward single #
face $-1 $48 $49 $18 $-1 $50 reversed single #
loop $-1 $-1 $51 $24 #
plane-surface $-1 0 0 11.346233154036563 0 0 1 1 0 0 forward_v I I I I #
face $-1 $52 $53 $19 $-1 $54 reversed single #
loop $-1 $-1 $55 $25 #
plane-surface $-1 -65.07011782775983 -31.473478600037776 0 0 -1 0 0 0 -1 forward_v I I I I #
face $-1 $56 $57 $20 $-1 $58 reversed single #
loop $-1 $-1 $59 $26 #
plane-surface $-1 -146.01360099769471 -16.580261887269643 111.88489158563497 0 -1 0 0.5877852598018023 0 -0.80901698891910034 forward_v I I I I #
face $-1 $60 $61 $21 $-1 $62 forward single #
loop $-1 $63 $64 $27 #
cone-surface $-1 -59.368147647136652 -24.026870243653711 4.2861648435595088 0.5877852598018023 0 -0.80901698891910034 1.6180339778382007 0 1.1755705196036046 1 I I 0 1 2 forward I I I I #
face $-1 $65 $66 $22 $-1 $67 reversed single #
loop $-1 $-1 $68 $28 #
plane-surface $-1 37.419112558025006 -16.580261887269643 190.78340728409574 0 -1 0 -0.5877852598018023 0 -0.80901698891910034 forward_v I I I I #
face $-1 $69 $70 $23 $-1 $71 forward single #
loop $-1 $72 $73 $29 #
cone-surface $-1 59.368147647136652 -24.026870243653711 4.2861648435595106 -0.5877852598018023 0 -0.80901698891910034 1.6180339778382007 0 -1.1755705196036046 1 I I 0 1 2 forward I I I I #
face $-1 $74 $75 $18 $-1 $76 reversed single #
loop $-1 $-1 $77 $30 #
plane-surface $-1 0 0 -11.346233154036563 0 0 1 1 0 0 forward_v I I I I #
coedge $-1 $78 $79 $80 $81 forward $31 $-1 #
face $-1 $82 $83 $19 $-1 $84 forward single #
loop $-1 $-1 $85 $33 #
plane-surface $-1 -63.025150356285671 -38.265979144301227 0 -1 0 0 0 0 1 forward_v I I I I #
coedge $-1 $86 $87 $88 $89 forward $34 $-1 #
face $-1 $90 $91 $20 $-1 $92 forward single #
loop $-1 $-1 $93 $36 #
plane-surface $-1 -67.115085299233968 -24.026870243653711 3.2904031459652714 -0.5877852598018023 0 0.80901698891910034 0.80901698891910034 0 0.5877852598018023 forward_v I I I I #
coedge $-1 $94 $95 $96 $97 reversed $37 $-1 #
face $-1 $-1 $98 $21 $-1 $99 forward single #
loop $-1 $100 $101 $39 #
cone-surface $-1 -56.577374015772008 -24.026870243653711 0.44499454819899498 0.5877852598018023 0 -0.80901698891910034 0.80901698891910034 0 0.5877852598018023 1 I I -0.70710678118654746 0.70710678118654746 1 forward I I I I #
loop $-1 $-1 $102 $27 #
coedge $-1 $64 $64 $103 $104 reversed $40 $-1 #
face $-1 $105 $106 $22 $-1 $107 reversed single #
loop $-1 $-1 $108 $42 #
plane-surface $-1 -41.479403140435736 -24.026870243653711 82.188918844426041 0.5877852598018023 0 0.80901698891910034 0.80901698891910034 0 -0.5877852598018023 forward_v I I I I #
coedge $-1 $109 $110 $111 $112 reversed $43 $-1 #
face $-1 $-1 $113 $23 $-1 $114 forward single #
loop $-1 $115 $116 $45 #
cone-surface $-1 56.577374015772008 -24.026870243653711 0.44499454819899675 -0.5877852598018023 0 -0.80901698891910034 0.80901698891910034 0 -0.5877852598018023 1 I I -0.70710678118654746 0.70710678118654746 1 forward I I I I #
loop $-1 $-1 $117 $29 #
coedge $-1 $73 $73 $118 $119 reversed $46 $-1 #
face $-1 $120 $121 $18 $-1 $122 reversed single #
loop $-1 $-1 $123 $48 #
plane-surface $-1 0 -45.058479688564681 0 0 1 0 0 0 1 forward_v I I I I #
coedge $-1 $124 $125 $126 $127 forward $49 $-1 #
coedge $-1 $128 $51 $129 $130 forward $31 $-1 #
coedge $-1 $51 $128 $131 $132 forward $31 $-1 #
coedge $-1 $133 $134 $51 $81 reversed $135 $-1 #
edge $-1 $136 -45.058479688564681 $137 45.058479688564681 $80 $138 forward 7 unknown #
face $-1 $139 $140 $19 $-1 $141 reversed single #
loop $-1 $-1 $142 $52 #
plane-surface $-1 0 0 11.346233154036563 0 0 1 1 0 0 forward_v I I I I #
coedge $-1 $143 $144 $145 $146 reversed $53 $-1 #
coedge $-1 $147 $55 $148 $149 reversed $34 $-1 #
coedge $-1 $55 $147 $150 $151 reversed $34 $-1 #
coedge $-1 $144 $143 $55 $89 reversed $53 $-1 #
edge $-1 $152 -11.346233154036563 $153 11.346233154036563 $88 $154 forward 7 unknown #
face $-1 $155 $156 $20 $-1 $157 forward single #
loop $-1 $-1 $158 $56 #
plane-surface $-1 0 0 11.346233154036563 0 0 1 1 0 0 forward_v I I I I #
coedge $-1 $159 $160 $161 $162 reversed $57 $-1 #
coedge $-1 $95 $59 $163 $164 reversed $37 $-1 #
coedge $-1 $59 $94 $159 $165 reversed $37 $-1 #
coedge $-1 $161 $166 $59 $97 forward $167 $-1 #
edge $-1 $168 44.596212638780926 $169 52.652042646852223 $96 $170 forward 7 unknown #
loop $-1 $-1 $103 $60 #
plane-surface $-1 -67.115085299233968 -24.026870243653711 3.2904031459652714 -0.5877852598018023 0 0.80901698891910034 0.80901698891910034 0 0.5877852598018023 forward_v I I I I #
loop $-1 $-1 $171 $39 #
coedge $-1 $101 $101 $102 $172 reversed $61 $-1 #
coedge $-1 $102 $102 $101 $172 forward $63 $-1 #
coedge $-1 $103 $103 $64 $104 forward $98 $-1 #
edge $-1 $173 0 $173 6.2831853071796004 $103 $174 forward 7 unknown #
face $-1 $175 $176 $22 $-1 $177 reversed single #
loop $-1 $-1 $178 $65 #
plane-surface $-1 37.419112558025006 -31.47347860003778 190.78340728409574 0 1 0 0.5877852598018023 0 0.80901698891910034 forward_v I I I I #
coedge $-1 $179 $180 $181 $182 reversed $66 $-1 #
coedge $-1 $110 $68 $183 $184 reversed $43 $-1 #
coedge $-1 $68 $109 $179 $185 reversed $43 $-1 #
coedge $-1 $181 $186 $68 $112 forward $187 $-1 #
edge $-1 $188 -48.405529020221479 $189 -37.317630459152511 $111 $190 forward 7 unknown #
loop $-1 $-1 $118 $69 #
plane-surface $-1 -41.479403140435736 -24.026870243653711 82.188918844426041 0.5877852598018023 0 0.80901698891910034 0.80901698891910034 0 -0.5877852598018023 forward_v I I I I #
loop $-1 $-1 $191 $45 #
coedge $-1 $116 $116 $117 $192 reversed $70 $-1 #
coedge $-1 $117 $117 $116 $192 forward $72 $-1 #
coedge $-1 $118 $118 $73 $119 forward $113 $-1 #
edge $-1 $193 0 $193 6.2831853071796004 $118 $194 forward 7 unknown #
face $-1 $195 $196 $18 $-1 $197 reversed single #
loop $-1 $-1 $198 $74 #
plane-surface $-1 -67.115085299233982 0 0 1 0 0 0 0 -1 forward_v I I I I #
coedge $-1 $199 $131 $200 $201 forward $75 $-1 #
coedge $-1 $202 $77 $199 $203 forward $49 $-1 #
coedge $-1 $77 $202 $204 $205 forward $49 $-1 #
coedge $-1 $134 $133 $77 $127 reversed $135 $-1 #
edge $-1 $206 -45.058479688564681 $207 45.058479688564681 $126 $208 forward 7 unknown #
coedge $-1 $79 $78 $209 $210 forward $31 $-1 #
coedge $-1 $211 $212 $78 $130 reversed $196 $-1 #
edge $-1 $137 -67.115085299233982 $213 67.115085299233982 $129 $214 forward 7 unknown #
coedge $-1 $123 $215 $79 $132 reversed $75 $-1 #
edge $-1 $216 -67.115085299233982 $136 67.115085299233982 $131 $217 forward 7 unknown #
coedge $-1 $126 $80 $215 $218 forward $135 $-1 #
coedge $-1 $80 $126 $211 $219 reversed $135 $-1 #
loop $-1 $-1 $133 $195 #
vertex $-1 $81 $220 #
vertex $-1 $81 $221 #
straight-curve $-1 67.115085299233982 0 11.346233154036563 0 1 0 I I #
face $-1 $222 $223 $19 $-1 $224 reversed single #
loop $-1 $-1 $225 $82 #
plane-surface $-1 -67.115085299233982 0 0 1 0 0 0 0 -1 forward_v I I I I #
coedge $-1 $150 $226 $144 $227 forward $83 $-1 #
coedge $-1 $88 $85 $228 $229 reversed $53 $-1 #
coedge $-1 $85 $88 $142 $227 reversed $53 $-1 #
coedge $-1 $230 $231 $85 $146 forward $232 $-1 #
edge $-1 $233 -11.346233154036563 $234 11.346233154036563 $145 $235 forward 7 unknown #
coedge $-1 $87 $86 $225 $236 reversed $34 $-1 #
coedge $-1 $228 $237 $86 $149 forward $223 $-1 #
edge $-1 $238 -34.580026385354067 $153 -30.490091442405756 $148 $239 forward 7 unknown #
coedge $-1 $240 $142 $87 $151 forward $83 $-1 #
edge $-1 $152 30.490091442405756 $241 34.580026385354067 $150 $242 forward 7 unknown #
vertex $-1 $151 $243 #
vertex $-1 $149 $244 #
straight-curve $-1 -63.025150356285671 -31.473478600037776 0 0 0 -1 I I #
face $-1 $-1 $167 $20 $-1 $245 reversed single #
loop $-1 $-1 $246 $90 #
plane-surface $-1 -65.07011782775983 -31.473478600037776 0 0 -1 0 0 0 -1 forward_v I I I I #
coedge $-1 $247 $248 $249 $250 forward $91 $-1 #
coedge $-1 $251 $93 $95 $165 forward $57 $-1 #
coedge $-1 $93 $251 $246 $252 reversed $57 $-1 #
coedge $-1 $253 $96 $93 $162 forward $167 $-1 #
edge $-1 $169 4.5668267654427872 $254 19.46004347821092 $161 $255 forward 7 unknown #
coedge $-1 $248 $247 $94 $164 forward $91 $-1 #
edge $-1 $256 -16.979613760682383 $168 -5.8917151996133725 $163 $257 forward 7 unknown #
edge $-1 $169 -1.7500491998158137e-014 $256 13.705396441529803 $95 $258 forward 7 unknown #
coedge $-1 $96 $253 $248 $259 reversed $167 $-1 #
loop $-1 $-1 $161 $155 #
vertex $-1 $259 $260 #
vertex $-1 $97 $261 #
straight-curve $-1 -67.115085299233982 -16.580261887269643 55.942445792817487 0 0 -1 I I #
coedge $-1 $171 $171 $-1 $262 reversed $100 $-1 #
edge $-1 $263 0 $263 6.2831853071796004 $101 $264 forward 7 unknown #
vertex $-1 $104 $265 #
ellipse-curve $-1 -61.571136018699484 -24.026870243653711 7.3183181500009091 -0.5877852598018023 0 0.80901698891910034 1.6180339778382007 0 1.1755705196036046 1 I I #
face $-1 $-1 $187 $22 $-1 $266 forward single #
loop $-1 $-1 $267 $105 #
plane-surface $-1 67.115085299233982 0 0 -1 0 0 0 0 1 forward_v I I I I #
coedge $-1 $268 $269 $270 $271 reversed $106 $-1 #
coedge $-1 $272 $108 $110 $185 forward $66 $-1 #
coedge $-1 $108 $272 $268 $273 forward $66 $-1 #
coedge $-1 $270 $111 $108 $182 forward $187 $-1 #
edge $-1 $189 4.5668267654427872 $274 19.460043478210924 $181 $275 forward 7 unknown #
coedge $-1 $276 $277 $109 $184 forward $176 $-1 #
edge $-1 $278 -92.101300496082587 $188 -84.045470488011304 $183 $279 forward 7 unknown #
edge $-1 $189 120.52477415693821 $278 134.23017059846799 $110 $280 forward 7 unknown #
coedge $-1 $111 $270 $276 $281 forward $187 $-1 #
loop $-1 $-1 $270 $175 #
vertex $-1 $184 $282 #
vertex $-1 $112 $283 #
straight-curve $-1 18.709556279012503 -16.580261887269643 11.346233154036568 -1 0 0 I I #
coedge $-1 $191 $191 $-1 $284 reversed $115 $-1 #
edge $-1 $285 0 $285 6.2831853071796004 $116 $286 forward 7 unknown #
vertex $-1 $119 $287 #
ellipse-curve $-1 61.571136018699498 -24.026870243653711 7.3183181500009358 0.5877852598018023 0 0.80901698891910034 1.6180339778382007 0 -1.1755705196036046 1 I I #
face $-1 $-1 $135 $18 $-1 $288 reversed single #
loop $-1 $-1 $211 $120 #
plane-surface $-1 0 45.058479688564681 0 0 -1 0 0 0 -1 forward_v I I I I #
coedge $-1 $289 $209 $212 $290 forward $121 $-1 #
coedge $-1 $215 $123 $124 $203 reversed $75 $-1 #
coedge $-1 $209 $289 $123 $201 reversed $121 $-1 #
edge $-1 $216 -11.346233154036563 $291 11.346233154036563 $200 $292 forward 7 unknown #
coedge $-1 $125 $124 $289 $293 forward $49 $-1 #
edge $-1 $207 -67.115085299233982 $291 67.115085299233982 $199 $294 forward 7 unknown #
coedge $-1 $212 $211 $125 $205 reversed $196 $-1 #
edge $-1 $295 -67.115085299233982 $206 67.115085299233982 $204 $296 forward 7 unknown #
vertex $-1 $127 $297 #
vertex $-1 $218 $298 #
straight-curve $-1 67.115085299233982 0 -11.346233154036563 0 -1 0 I I #
coedge $-1 $198 $200 $128 $210 reversed $121 $-1 #
edge $-1 $213 -45.058479688564681 $216 45.058479688564681 $209 $299 forward 7 unknown #
coedge $-1 $204 $129 $134 $219 forward $196 $-1 #
coedge $-1 $129 $204 $198 $290 reversed $196 $-1 #
vertex $-1 $130 $300 #
straight-curve $-1 0 45.058479688564681 11.346233154036563 -1 0 0 I I #
coedge $-1 $131 $199 $133 $218 reversed $75 $-1 #
vertex $-1 $210 $301 #
straight-curve $-1 0 -45.058479688564681 11.346233154036563 1 0 0 I I #
edge $-1 $136 -11.346233154036563 $207 11.346233154036563 $133 $302 forward 7 unknown #
edge $-1 $137 -11.346233154036563 $206 11.346233154036563 $134 $303 forward 7 unknown #
point $-1 67.115085299233982 -45.058479688564681 11.346233154036563 #
point $-1 67.115085299233982 45.058479688564681 11.346233154036563 #
face $-1 $-1 $232 $19 $-1 $304 reversed single #
loop $-1 $-1 $228 $139 #
plane-surface $-1 0 0 -11.346233154036563 0 0 1 1 0 0 forward_v I I I I #
coedge $-1 $305 $306 $147 $236 forward $140 $-1 #
coedge $-1 $142 $240 $230 $307 forward $83 $-1 #
edge $-1 $234 -25.925490116414061 $152 -12.340489027887163 $142 $308 forward 7 unknown #
coedge $-1 $309 $148 $143 $229 forward $223 $-1 #
edge $-1 $153 12.340489027887163 $233 25.925490116414061 $228 $310 forward 7 unknown #
coedge $-1 $311 $145 $226 $307 reversed $232 $-1 #
coedge $-1 $145 $311 $309 $312 reversed $232 $-1 #
loop $-1 $-1 $145 $222 #
vertex $-1 $312 $313 #
vertex $-1 $146 $314 #
straight-curve $-1 -63.025150356285671 -45.058479688564681 0 0 0 1 I I #
edge $-1 $241 -11.346233154036563 $238 11.346233154036563 $225 $315 forward 7 unknown #
coedge $-1 $148 $309 $305 $316 forward $223 $-1 #
vertex $-1 $149 $317 #
straight-curve $-1 -32.535058913879915 -31.473478600037776 -11.346233154036563 1 0 0 I I #
coedge $-1 $226 $150 $306 $318 forward $83 $-1 #
vertex $-1 $318 $319 #
straight-curve $-1 -32.535058913879915 -31.473478600037776 11.346233154036563 -1 0 0 I I #
point $-1 -63.025150356285671 -31.473478600037776 11.346233154036563 #
point $-1 -63.025150356285671 -31.473478600037776 -11.346233154036563 #
plane-surface $-1 -67.115085299233982 0 0 1 0 0 0 0 -1 forward_v I I I I #
coedge $-1 $249 $320 $160 $252 forward $156 $-1 #
coedge $-1 $163 $158 $251 $321 forward $91 $-1 #
coedge $-1 $158 $163 $166 $259 forward $91 $-1 #
coedge $-1 $320 $246 $158 $250 reversed $156 $-1 #
edge $-1 $322 -34.580026385354067 $323 -23.492127824285056 $158 $324 forward 7 unknown #
coedge $-1 $160 $159 $247 $321 reversed $57 $-1 #
edge $-1 $254 0.13981852089715785 $323 13.845214962426979 $246 $325 forward 7 unknown #
coedge $-1 $166 $161 $320 $326 forward $167 $-1 #
vertex $-1 $326 $327 #
straight-curve $-1 -67.115085299233982 -12.013435121826856 3.2904031459652701 0 -1 0 I I #
vertex $-1 $164 $328 #
straight-curve $-1 -73.006800498847355 -16.580261887269643 11.346233154036561 -1 0 0 I I #
straight-curve $-1 -67.115085299233968 -16.580261887269643 3.2904031459652714 0.80901698891910034 0 0.5877852598018023 I I #
edge $-1 $168 16.580261887269643 $322 31.473478600037776 $166 $329 forward 7 unknown #
point $-1 -67.115085299233982 -16.580261887269643 11.346233154036563 #
point $-1 -67.115085299233982 -16.580261887269643 3.2904031459652612 #
edge $-1 $330 1 $330 0 $171 $-1 forward 7 unknown #
vertex $-1 $172 $331 #
ellipse-curve $-1 -57.165159275573814 -24.026870243653711 1.2540115371180953 -0.5877852598018023 0 0.80901698891910034 1.6180339778382007 0 1.1755705196036046 1 I I #
point $-1 -59.953102040861289 -24.026870243653711 8.4938886696045266 #
plane-surface $-1 0 0 11.346233154036563 0 0 1 1 0 0 forward_v I I I I #
coedge $-1 $277 $276 $269 $332 forward $176 $-1 #
coedge $-1 $269 $178 $180 $273 reversed $106 $-1 #
coedge $-1 $178 $268 $267 $332 reversed $106 $-1 #
coedge $-1 $186 $181 $178 $271 forward $187 $-1 #
edge $-1 $274 37.317630459152511 $333 48.405529020221479 $270 $334 forward 7 unknown #
coedge $-1 $180 $179 $277 $335 reversed $66 $-1 #
edge $-1 $336 -134.23017059846799 $274 -120.52477415693821 $268 $337 forward 7 unknown #
vertex $-1 $182 $338 #
straight-curve $-1 56.027186738165014 -12.013435121826856 11.346233154036561 0 -1 0 I I #
coedge $-1 $267 $183 $186 $281 reversed $176 $-1 #
coedge $-1 $183 $267 $272 $335 forward $176 $-1 #
vertex $-1 $184 $339 #
straight-curve $-1 67.115085299233982 -16.580261887269643 95.391703642047872 0 0 1 I I #
straight-curve $-1 -41.479403140435736 -16.580261887269643 82.188918844426041 0.80901698891910034 0 -0.5877852598018023 I I #
edge $-1 $333 -31.47347860003778 $188 -16.580261887269643 $276 $340 forward 7 unknown #
point $-1 67.115085299233982 -16.580261887269643 11.346233154036563 #
point $-1 56.027186738165014 -16.580261887269643 11.346233154036568 #
edge $-1 $341 1 $341 0 $191 $-1 forward 7 unknown #
vertex $-1 $192 $342 #
ellipse-curve $-1 57.165159275573814 -24.026870243653711 1.2540115371180971 0.5877852598018023 0 0.80901698891910034 1.6180339778382007 0 -1.1755705196036046 1 I I #
point $-1 63.189169996537686 -24.026870243653711 6.1427476303973201 #
plane-surface $-1 67.115085299233982 0 0 -1 0 0 0 0 1 forward_v I I I I #
coedge $-1 $200 $198 $202 $293 reversed $121 $-1 #
edge $-1 $213 -11.346233154036563 $295 11.346233154036563 $212 $343 forward 7 unknown #
vertex $-1 $293 $344 #
straight-curve $-1 -67.115085299233982 -45.058479688564681 0 0 0 -1 I I #
edge $-1 $291 -45.058479688564681 $295 45.058479688564681 $289 $345 forward 7 unknown #
straight-curve $-1 0 -45.058479688564681 -11.346233154036563 -1 0 0 I I #
vertex $-1 $205 $346 #
straight-curve $-1 0 45.058479688564681 -11.346233154036563 1 0 0 I I #
point $-1 67.115085299233982 45.058479688564681 -11.346233154036563 #
point $-1 67.115085299233982 -45.058479688564681 -11.346233154036563 #
straight-curve $-1 -67.115085299233982 0 11.346233154036563 0 -1 0 I I #
point $-1 -67.115085299233982 45.058479688564681 11.346233154036563 #
point $-1 -67.115085299233982 -45.058479688564681 11.346233154036563 #
straight-curve $-1 67.115085299233982 -45.058479688564681 0 0 0 -1 I I #
straight-curve $-1 67.115085299233982 45.058479688564681 0 0 0 -1 I I #
plane-surface $-1 0 -45.058479688564681 0 0 1 0 0 0 1 forward_v I I I I #
coedge $-1 $347 $225 $237 $316 reversed $140 $-1 #
coedge $-1 $225 $347 $240 $318 reversed $140 $-1 #
edge $-1 $348 -67.115085299233982 $234 -63.025150356285671 $230 $349 forward 7 unknown #
straight-curve $-1 -63.025150356285671 -19.132989572150613 11.346233154036563 0 1 0 I I #
coedge $-1 $237 $228 $231 $312 forward $223 $-1 #
straight-curve $-1 -63.025150356285671 -19.132989572150613 -11.346233154036563 0 -1 0 I I #
coedge $-1 $231 $230 $347 $350 forward $232 $-1 #
edge $-1 $233 63.025150356285671 $351 67.115085299233982 $231 $352 forward 7 unknown #
point $-1 -63.025150356285671 -45.058479688564674 -11.346233154036563 #
point $-1 -63.025150356285671 -45.058479688564674 11.346233154036563 #
straight-curve $-1 -67.115085299233982 -31.473478600037776 0 0 0 -1 I I #
edge $-1 $351 -45.058479688564681 $238 -31.473478600037776 $305 $353 forward 7 unknown #
point $-1 -67.115085299233982 -31.473478600037776 -11.346233154036563 #
edge $-1 $241 31.473478600037776 $348 45.058479688564681 $306 $354 forward 7 unknown #
point $-1 -67.115085299233982 -31.473478600037776 11.346233154036563 #
coedge $-1 $246 $249 $253 $326 reversed $156 $-1 #
edge $-1 $323 -19.460043478210924 $256 -4.5668267654427872 $247 $355 forward 7 unknown #
vertex $-1 $326 $356 #
vertex $-1 $250 $357 #
straight-curve $-1 -32.535058913879915 -31.473478600037776 11.346233154036563 1 0 0 I I #
straight-curve $-1 -67.228200858005323 -31.473478600037776 3.2082198803346209 0.80901698891910034 0 0.5877852598018023 I I #
edge $-1 $254 3.2904031459652607 $322 11.346233154036563 $253 $358 forward 7 unknown #
point $-1 -67.115085299233982 -31.473478600037776 3.2904031459652607 #
point $-1 -56.027186738164971 -16.580261887269643 11.346233154036563 #
straight-curve $-1 -67.115085299233982 0 11.346233154036563 0 -1 0 I I #
vertex $-1 $262 $359 #
point $-1 -55.547125297735612 -24.026870243653711 2.4295820567217001 #
edge $-1 $333 84.045470488011304 $336 92.101300496082587 $267 $360 forward 7 unknown #
vertex $-1 $281 $361 #
straight-curve $-1 18.709556279012503 -31.47347860003778 11.346233154036568 1 0 0 I I #
edge $-1 $336 -19.460043478210924 $278 -4.5668267654427872 $277 $362 forward 7 unknown #
vertex $-1 $335 $363 #
straight-curve $-1 -41.479403140435736 -31.47347860003778 82.188918844426041 -0.80901698891910034 0 0.5877852598018023 I I #
point $-1 56.027186738165014 -31.47347860003778 11.346233154036568 #
point $-1 67.115085299233996 -16.580261887269643 3.2904031459652856 #
straight-curve $-1 67.115085299233982 0 11.346233154036563 0 1 0 I I #
vertex $-1 $284 $364 #
point $-1 58.783193253412009 -24.026870243653711 0.078441017514492506 #
straight-curve $-1 -67.115085299233982 45.058479688564681 0 0 0 -1 I I #
point $-1 -67.115085299233982 -45.058479688564681 -11.346233154036563 #
straight-curve $-1 -67.115085299233982 0 -11.346233154036563 0 1 0 I I #
point $-1 -67.115085299233982 45.058479688564681 -11.346233154036563 #
coedge $-1 $306 $305 $311 $350 reversed $140 $-1 #
vertex $-1 $318 $365 #
straight-curve $-1 0 -45.058479688564681 11.346233154036563 1 0 0 I I #
edge $-1 $348 -11.346233154036563 $351 11.346233154036563 $347 $366 forward 7 unknown #
vertex $-1 $316 $367 #
straight-curve $-1 0 -45.058479688564681 -11.346233154036563 -1 0 0 I I #
straight-curve $-1 -67.115085299233982 0 -11.346233154036563 0 1 0 I I #
straight-curve $-1 -67.115085299233982 0 11.346233154036563 0 -1 0 I I #
straight-curve $-1 -56.027186738164964 -12.013435121826856 11.346233154036563 0 1 0 I I #
point $-1 -67.115085299233982 -31.473478600037776 11.346233154036563 #
point $-1 -56.027186738164971 -31.47347860003778 11.346233154036563 #
straight-curve $-1 -67.115085299233982 -31.473478600037776 0 0 0 1 I I #
point $-1 -55.989588755970203 -24.026870243653711 -0.36402244072010537 #
straight-curve $-1 67.115085299233982 -31.47347860003778 95.391703642047872 0 0 -1 I I #
point $-1 67.115085299233982 -31.47347860003778 11.346233154036563 #
straight-curve $-1 67.115085299233982 -12.013435121826856 3.2904031459652856 0 1 0 I I #
point $-1 67.115085299233996 -31.47347860003778 3.2904031459652856 #
point $-1 55.989588755970203 -24.026870243653711 -0.36402244072010359 #
point $-1 -67.115085299233982 -45.058479688564681 11.346233154036563 #
straight-curve $-1 -67.115085299233982 -45.058479688564681 0 0 0 -1 I I #
point $-1 -67.115085299233982 -45.058479688564681 -11.346233154036563 #
End-of-ACIS-data 