500 0 4 0           
7 Unknown 11 ACIS 5.0 NT 24 Thu Mar 25 19:33:59 1999 
-1 9.9999999999999995e-007 1e-010 
body $-1 $4 $-1 $5 #
body $-1 $6 $-1 $7 #
body $-1 $8 $-1 $9 #
body $-1 $10 $-1 $11 #
lump $-1 $-1 $12 $0 #
transform $-1 1 0 0 0 1 0 0 0 1 46.566362498855554 32.283093266670804 10.844940004665636 1 rotate no_reflect no_shear #
lump $-1 $-1 $13 $1 #
transform $-1 1 0 0 0 1 0 0 0 1 46.566362498855554 32.283093266670804 10.844940004665636 1 rotate no_reflect no_shear #
lump $-1 $-1 $14 $2 #
transform $-1 1 0 0 0 1 0 0 0 1 46.566362498855554 32.283093266670804 10.844940004665636 1 rotate no_reflect no_shear #
lump $-1 $-1 $15 $3 #
transform $-1 1 0 0 0 1 0 0 0 1 46.566362498855554 32.283093266670804 10.844940004665636 1 rotate no_reflect no_shear #
shell $-1 $-1 $-1 $16 $-1 $4 #
shell $-1 $-1 $-1 $17 $-1 $6 #
shell $-1 $-1 $-1 $18 $-1 $8 #
shell $-1 $-1 $-1 $19 $-1 $10 #
face $-1 $20 $21 $12 $-1 $22 forward single #
face $-1 $23 $24 $13 $-1 $25 reversed single #
face $-1 $26 $27 $14 $-1 $28 reversed single #
face $-1 $29 $30 $15 $-1 $31 forward single #
face $-1 $32 $33 $12 $-1 $34 reversed single #
loop $-1 $-1 $35 $16 #
plane-surface $-1 0 0 10.844940004665636 0 0 1 1 0 0 forward_v I I I I #
face $-1 $36 $37 $13 $-1 $38 reversed single #
loop $-1 $-1 $39 $17 #
plane-surface $-1 -42.217308884087409 0 7.3140708693229453 0 0 1 1 0 0 forward_v I I I I #
face $-1 $40 $41 $14 $-1 $42 reversed single #
loop $-1 $-1 $43 $18 #
plane-surface $-1 22.144358396741296 -108.57295609627592 53.51186820570431 -1 0 0 0 -0.81915205242281985 0.57357642473473569 forward_v I I I I #
face $-1 $44 $45 $15 $-1 $46 forward single #
loop $-1 $47 $48 $19 #
cone-surface $-1 11.275208353189861 -26.786143684323225 4.2557858027583366 0 0.81915205242281985 -0.57357642473473569 2 0 0 1 I I 0 1 2 forward I I I I #
face $-1 $49 $50 $12 $-1 $51 reversed single #
loop $-1 $-1 $52 $20 #
plane-surface $-1 0 0 -10.844940004665636 0 0 1 1 0 0 forward_v I I I I #
coedge $-1 $53 $54 $55 $56 forward $21 $-1 #
face $-1 $57 $58 $13 $-1 $59 reversed single #
loop $-1 $-1 $60 $23 #
plane-surface $-1 -37.868255269319263 0 9.0795054369942907 -1 0 0 0 0 1 forward_v I I I I #
coedge $-1 $61 $62 $63 $64 forward $24 $-1 #
face $-1 $65 $66 $14 $-1 $67 reversed single #
loop $-1 $-1 $68 $26 #
plane-surface $-1 11.275208353189861 -32.283093266670804 0.093132775713826277 0 -0.81915205242281985 0.57357642473473569 1 0 0 forward_v I I I I #
coedge $-1 $69 $70 $71 $72 reversed $27 $-1 #
face $-1 $-1 $73 $15 $-1 $74 forward single #
loop $-1 $75 $76 $29 #
cone-surface $-1 11.275208353189861 -24.234290171485181 2.4689587905922057 0 0.81915205242281985 -0.57357642473473569 1 0 0 1 I I -0.70710678118654746 0.70710678118654746 1 forward I I I I #
loop $-1 $-1 $77 $19 #
coedge $-1 $48 $48 $78 $79 reversed $30 $-1 #
face $-1 $80 $81 $12 $-1 $82 reversed single #
loop $-1 $-1 $83 $32 #
plane-surface $-1 0 -32.283093266670804 0 0 1 0 0 0 1 forward_v I I I I #
coedge $-1 $84 $85 $86 $87 forward $33 $-1 #
coedge $-1 $88 $35 $89 $90 forward $21 $-1 #
coedge $-1 $35 $88 $91 $92 forward $21 $-1 #
coedge $-1 $93 $94 $35 $56 reversed $95 $-1 #
edge $-1 $96 -32.283093266670804 $97 32.283093266670804 $55 $98 forward 7 unknown #
face $-1 $99 $100 $13 $-1 $101 reversed single #
loop $-1 $-1 $102 $36 #
plane-surface $-1 0 32.283093266670804 0 0 -1 0 0 0 -1 forward_v I I I I #
coedge $-1 $63 $103 $104 $105 reversed $37 $-1 #
coedge $-1 $106 $39 $107 $108 reversed $24 $-1 #
coedge $-1 $39 $106 $109 $110 reversed $24 $-1 #
coedge $-1 $111 $60 $39 $64 reversed $37 $-1 #
edge $-1 $112 -32.283093266670804 $113 32.283093266670804 $63 $114 forward 7 unknown #
face $-1 $115 $116 $14 $-1 $117 reversed single #
loop $-1 $-1 $118 $40 #
plane-surface $-1 0.40605830963842493 -108.57295609627592 53.51186820570431 1 0 0 0 0.81915205242281985 -0.57357642473473569 forward_v I I I I #
coedge $-1 $119 $120 $121 $122 reversed $41 $-1 #
coedge $-1 $70 $43 $123 $124 reversed $27 $-1 #
coedge $-1 $43 $69 $119 $125 reversed $27 $-1 #
coedge $-1 $121 $126 $43 $72 forward $127 $-1 #
edge $-1 $128 22.003384781467155 $129 29.531881025331863 $71 $130 forward 7 unknown #
loop $-1 $-1 $78 $44 #
plane-surface $-1 11.275208353189861 -32.283093266670804 0.093132775713826277 0 -0.81915205242281985 0.57357642473473569 1 0 0 forward_v I I I I #
loop $-1 $-1 $131 $29 #
coedge $-1 $76 $76 $77 $132 reversed $45 $-1 #
coedge $-1 $77 $77 $76 $132 forward $47 $-1 #
coedge $-1 $78 $78 $48 $79 forward $73 $-1 #
edge $-1 $133 -3.6377658770750719e-016 $133 6.2831853071796004 $78 $134 forward 7 unknown #
face $-1 $135 $136 $12 $-1 $137 reversed single #
loop $-1 $-1 $138 $49 #
plane-surface $-1 -46.566362498855554 0 0 1 0 0 0 0 -1 forward_v I I I I #
coedge $-1 $139 $91 $140 $141 forward $50 $-1 #
coedge $-1 $142 $52 $139 $143 forward $33 $-1 #
coedge $-1 $52 $142 $144 $145 forward $33 $-1 #
coedge $-1 $94 $93 $52 $87 reversed $95 $-1 #
edge $-1 $146 -32.283093266670804 $147 32.283093266670804 $86 $148 forward 7 unknown #
coedge $-1 $54 $53 $149 $150 forward $21 $-1 #
coedge $-1 $151 $152 $53 $90 reversed $136 $-1 #
edge $-1 $97 -46.566362498855554 $153 46.566362498855554 $89 $154 forward 7 unknown #
coedge $-1 $83 $155 $54 $92 reversed $50 $-1 #
edge $-1 $156 -46.566362498855554 $96 46.566362498855554 $91 $157 forward 7 unknown #
coedge $-1 $86 $55 $155 $158 forward $95 $-1 #
coedge $-1 $55 $86 $151 $159 reversed $95 $-1 #
loop $-1 $-1 $93 $135 #
vertex $-1 $56 $160 #
vertex $-1 $56 $161 #
straight-curve $-1 46.566362498855554 0 10.844940004665636 0 1 0 I I #
face $-1 $162 $163 $13 $-1 $164 forward single #
loop $-1 $-1 $165 $57 #
plane-surface $-1 -46.566362498855554 0 0 1 0 0 0 0 -1 forward_v I I I I #
coedge $-1 $109 $166 $111 $167 forward $58 $-1 #
coedge $-1 $60 $111 $168 $169 reversed $37 $-1 #
coedge $-1 $170 $107 $60 $105 forward $171 $-1 #
edge $-1 $113 2.7743181508257999 $172 6.3051872861684908 $104 $173 forward 7 unknown #
coedge $-1 $62 $61 $165 $174 reversed $24 $-1 #
coedge $-1 $104 $175 $61 $108 forward $171 $-1 #
edge $-1 $176 -25.45770805681185 $113 -16.759600827275559 $107 $177 forward 7 unknown #
coedge $-1 $178 $102 $62 $110 forward $58 $-1 #
edge $-1 $112 16.759600827275559 $179 25.45770805681185 $109 $180 forward 7 unknown #
coedge $-1 $103 $63 $102 $167 reversed $37 $-1 #
vertex $-1 $110 $181 #
vertex $-1 $108 $182 #
straight-curve $-1 -37.868255269319263 0 7.3140708693229453 0 -1 0 I I #
face $-1 $-1 $127 $14 $-1 $183 forward single #
loop $-1 $-1 $184 $65 #
plane-surface $-1 0 -32.283093266670804 0 0 1 0 0 0 1 forward_v I I I I #
coedge $-1 $185 $186 $187 $188 reversed $66 $-1 #
coedge $-1 $189 $68 $70 $125 forward $41 $-1 #
coedge $-1 $68 $189 $185 $190 forward $41 $-1 #
coedge $-1 $187 $71 $68 $122 forward $127 $-1 #
edge $-1 $129 -16.506754220146366 $191 5.2315458669565054 $121 $192 forward 7 unknown #
coedge $-1 $193 $194 $69 $124 forward $116 $-1 #
edge $-1 $195 -26.662801327138329 $128 -15.910994098186519 $123 $196 forward 7 unknown #
edge $-1 $129 -13.125532918035194 $195 0 $70 $197 forward 7 unknown #
coedge $-1 $71 $187 $193 $198 forward $127 $-1 #
loop $-1 $-1 $187 $115 #
vertex $-1 $124 $199 #
vertex $-1 $72 $200 #
straight-curve $-1 22.144358396741296 -54.286478048137958 10.844940004665638 0 1 0 I I #
coedge $-1 $131 $131 $-1 $201 reversed $75 $-1 #
edge $-1 $202 0 $202 6.2831853071796004 $76 $203 forward 7 unknown #
vertex $-1 $79 $204 #
ellipse-curve $-1 11.275208353189861 -28.518845144738449 5.4690363901897321 0 -0.81915205242281985 0.57357642473473569 2 0 0 1 I I #
face $-1 $-1 $95 $12 $-1 $205 reversed single #
loop $-1 $-1 $151 $80 #
plane-surface $-1 0 32.283093266670804 0 0 -1 0 0 0 -1 forward_v I I I I #
coedge $-1 $206 $149 $152 $207 forward $81 $-1 #
coedge $-1 $155 $83 $84 $143 reversed $50 $-1 #
coedge $-1 $149 $206 $83 $141 reversed $81 $-1 #
edge $-1 $156 -10.844940004665636 $208 10.844940004665636 $140 $209 forward 7 unknown #
coedge $-1 $85 $84 $206 $210 forward $33 $-1 #
edge $-1 $147 -46.566362498855554 $208 46.566362498855554 $139 $211 forward 7 unknown #
coedge $-1 $152 $151 $85 $145 reversed $136 $-1 #
edge $-1 $212 -46.566362498855554 $146 46.566362498855554 $144 $213 forward 7 unknown #
vertex $-1 $87 $214 #
vertex $-1 $158 $215 #
straight-curve $-1 46.566362498855554 0 -10.844940004665636 0 -1 0 I I #
coedge $-1 $138 $140 $88 $150 reversed $81 $-1 #
edge $-1 $153 -32.283093266670804 $156 32.283093266670804 $149 $216 forward 7 unknown #
coedge $-1 $144 $89 $94 $159 forward $136 $-1 #
coedge $-1 $89 $144 $138 $207 reversed $136 $-1 #
vertex $-1 $90 $217 #
straight-curve $-1 0 32.283093266670804 10.844940004665636 -1 0 0 I I #
coedge $-1 $91 $139 $93 $158 reversed $50 $-1 #
vertex $-1 $150 $218 #
straight-curve $-1 0 -32.283093266670804 10.844940004665636 1 0 0 I I #
edge $-1 $96 -10.844940004665636 $147 10.844940004665636 $93 $219 forward 7 unknown #
edge $-1 $97 -10.844940004665636 $146 10.844940004665636 $94 $220 forward 7 unknown #
point $-1 46.566362498855554 -32.283093266670804 10.844940004665636 #
point $-1 46.566362498855554 32.283093266670804 10.844940004665636 #
face $-1 $-1 $171 $13 $-1 $221 reversed single #
loop $-1 $-1 $168 $99 #
plane-surface $-1 0 0 10.844940004665636 0 0 1 1 0 0 forward_v I I I I #
coedge $-1 $222 $223 $106 $174 forward $100 $-1 #
coedge $-1 $102 $178 $224 $225 reversed $58 $-1 #
edge $-1 $226 -6.3051872861684908 $112 -2.7743181508257999 $102 $227 forward 7 unknown #
coedge $-1 $224 $228 $103 $169 forward $163 $-1 #
edge $-1 $172 -32.283093266670804 $226 32.283093266670804 $168 $229 forward 7 unknown #
coedge $-1 $175 $104 $228 $230 reversed $171 $-1 #
loop $-1 $-1 $104 $162 #
vertex $-1 $105 $231 #
straight-curve $-1 -37.868255269319263 -32.283093266670804 4.5397527184971453 0 0 1 I I #
edge $-1 $179 -32.283093266670804 $176 32.283093266670804 $165 $232 forward 7 unknown #
coedge $-1 $107 $170 $222 $233 forward $171 $-1 #
vertex $-1 $174 $234 #
straight-curve $-1 -21.108654442043704 -32.283093266670804 7.3140708693229453 1 0 0 I I #
coedge $-1 $166 $109 $223 $235 reversed $58 $-1 #
vertex $-1 $174 $236 #
straight-curve $-1 -21.108654442043704 32.283093266670804 7.3140708693229453 -1 0 0 I I #
point $-1 -37.868255269319263 32.283093266670804 7.3140708693229453 #
point $-1 -37.868255269319263 -32.283093266670804 7.3140708693229453 #
plane-surface $-1 0 0 10.844940004665636 0 0 1 1 0 0 forward_v I I I I #
coedge $-1 $194 $193 $186 $237 forward $116 $-1 #
coedge $-1 $186 $118 $120 $190 reversed $66 $-1 #
coedge $-1 $118 $185 $184 $237 reversed $66 $-1 #
coedge $-1 $126 $121 $118 $188 forward $127 $-1 #
edge $-1 $191 -29.531881025331863 $238 -22.003384781467155 $187 $239 forward 7 unknown #
coedge $-1 $120 $119 $194 $240 reversed $41 $-1 #
edge $-1 $241 0 $191 13.125532918035194 $185 $242 forward 7 unknown #
vertex $-1 $122 $243 #
straight-curve $-1 5.6376041765949303 -24.754597022806099 10.844940004665636 -1 0 0 I I #
coedge $-1 $184 $123 $126 $198 reversed $116 $-1 #
coedge $-1 $123 $184 $189 $240 forward $116 $-1 #
vertex $-1 $124 $244 #
straight-curve $-1 22.144358396741296 -32.283093266670804 26.755934102852155 0 0 1 I I #
straight-curve $-1 22.144358396741296 -32.283093266670804 0.093132775713826277 0 -0.57357642473473569 -0.81915205242281985 I I #
edge $-1 $238 0.40605830963842493 $128 22.144358396741296 $193 $245 forward 7 unknown #
point $-1 22.144358396741296 -32.283093266670804 10.844940004665636 #
point $-1 22.144358396741296 -24.754597022806095 10.844940004665636 #
edge $-1 $246 1 $246 0 $131 $-1 forward 7 unknown #
vertex $-1 $132 $247 #
ellipse-curve $-1 11.275208353189861 -25.053442223908 3.0425352153269412 0 -0.81915205242281985 0.57357642473473569 2 0 0 1 I I #
point $-1 13.275208353189861 -28.518845144738449 5.4690363901897312 #
plane-surface $-1 46.566362498855554 0 0 -1 0 0 0 0 1 forward_v I I I I #
coedge $-1 $140 $138 $142 $210 reversed $81 $-1 #
edge $-1 $153 -10.844940004665636 $212 10.844940004665636 $152 $248 forward 7 unknown #
vertex $-1 $210 $249 #
straight-curve $-1 -46.566362498855554 -32.283093266670804 0 0 0 -1 I I #
edge $-1 $208 -32.283093266670804 $212 32.283093266670804 $206 $250 forward 7 unknown #
straight-curve $-1 0 -32.283093266670804 -10.844940004665636 -1 0 0 I I #
vertex $-1 $145 $251 #
straight-curve $-1 0 32.283093266670804 -10.844940004665636 1 0 0 I I #
point $-1 46.566362498855554 32.283093266670804 -10.844940004665636 #
point $-1 46.566362498855554 -32.283093266670804 -10.844940004665636 #
straight-curve $-1 -46.566362498855554 0 10.844940004665636 0 -1 0 I I #
point $-1 -46.566362498855554 32.283093266670804 10.844940004665636 #
point $-1 -46.566362498855554 -32.283093266670804 10.844940004665636 #
straight-curve $-1 46.566362498855554 -32.283093266670804 0 0 0 -1 I I #
straight-curve $-1 46.566362498855554 32.283093266670804 0 0 0 -1 I I #
plane-surface $-1 0 -32.283093266670804 0 0 1 0 0 0 1 forward_v I I I I #
coedge $-1 $252 $165 $175 $233 reversed $100 $-1 #
coedge $-1 $165 $252 $178 $235 forward $100 $-1 #
coedge $-1 $253 $168 $166 $225 forward $163 $-1 #
edge $-1 $226 37.868255269319263 $254 46.566362498855554 $166 $255 forward 7 unknown #
vertex $-1 $225 $256 #
straight-curve $-1 -37.868255269319263 32.283093266670804 4.5397527184971453 0 0 -1 I I #
coedge $-1 $168 $253 $170 $230 forward $163 $-1 #
straight-curve $-1 -37.868255269319263 0 10.844940004665636 0 1 0 I I #
edge $-1 $257 -46.566362498855554 $172 -37.868255269319263 $170 $258 forward 7 unknown #
point $-1 -37.868255269319263 -32.283093266670804 10.844940004665636 #
straight-curve $-1 -46.566362498855554 0 7.3140708693229453 0 -1 0 I I #
edge $-1 $257 -10.844940004665636 $176 -7.3140708693229453 $222 $259 forward 7 unknown #
point $-1 -46.566362498855554 -32.283093266670804 7.3140708693229453 #
edge $-1 $254 -10.844940004665636 $179 -7.3140708693229453 $178 $260 forward 7 unknown #
point $-1 -46.566362498855554 32.283093266670804 7.3140708693229453 #
edge $-1 $238 15.910994098186519 $241 26.662801327138329 $184 $261 forward 7 unknown #
vertex $-1 $198 $262 #
straight-curve $-1 0.40605830963842493 -54.286478048137958 10.844940004665638 0 -1 0 I I #
edge $-1 $241 -5.2315458669565054 $195 16.506754220146366 $194 $263 forward 7 unknown #
vertex $-1 $240 $264 #
straight-curve $-1 0.40605830963842493 -32.283093266670804 0.093132775713826277 0 0.57357642473473569 0.81915205242281985 I I #
point $-1 0.40605830963842493 -24.754597022806095 10.844940004665636 #
point $-1 22.144358396741296 -32.283093266670804 0.093132775713826277 #
straight-curve $-1 0 -32.283093266670804 10.844940004665636 1 0 0 I I #
vertex $-1 $201 $265 #
point $-1 13.275208353189861 -25.053442223908 3.0425352153269412 #
straight-curve $-1 -46.566362498855554 32.283093266670804 0 0 0 -1 I I #
point $-1 -46.566362498855554 -32.283093266670804 -10.844940004665636 #
straight-curve $-1 -46.566362498855554 0 -10.844940004665636 0 1 0 I I #
point $-1 -46.566362498855554 32.283093266670804 -10.844940004665636 #
coedge $-1 $223 $222 $253 $266 reversed $100 $-1 #
coedge $-1 $228 $224 $252 $266 forward $163 $-1 #
vertex $-1 $225 $267 #
straight-curve $-1 0 32.283093266670804 10.844940004665636 -1 0 0 I I #
point $-1 -37.868255269319263 32.283093266670804 10.844940004665636 #
vertex $-1 $266 $268 #
straight-curve $-1 0 -32.283093266670804 10.844940004665636 1 0 0 I I #
straight-curve $-1 -46.566362498855554 -32.283093266670804 0 0 0 -1 I I #
straight-curve $-1 -46.566362498855554 32.283093266670804 0 0 0 -1 I I #
straight-curve $-1 0.40605830963842493 -32.283093266670804 26.755934102852155 0 0 -1 I I #
point $-1 0.40605830963842493 -32.283093266670804 10.844940004665636 #
straight-curve $-1 5.6376041765949303 -32.283093266670804 0.093132775713822238 1 0 0 I I #
point $-1 0.40605830963842493 -32.283093266670804 0.093132775713826277 #
point $-1 11.275208353189861 -23.415138119062362 1.89538236585747 #
edge $-1 $254 -32.283093266670804 $257 32.283093266670804 $252 $269 forward 7 unknown #
point $-1 -46.566362498855554 32.283093266670804 10.844940004665636 #
point $-1 -46.566362498855554 -32.283093266670804 10.844940004665636 #
straight-curve $-1 -46.566362498855554 0 10.844940004665636 0 -1 0 I I #
End-of-ACIS-data 