500 0 6 0           
7 Unknown 11 ACIS 5.0 NT 24 Thu Mar 25 18:10:28 1999 
-1 9.9999999999999995e-007 1e-010 
body $-1 $6 $-1 $7 #
body $-1 $8 $-1 $9 #
body $-1 $10 $-1 $11 #
body $-1 $12 $-1 $13 #
body $-1 $14 $-1 $15 #
body $-1 $16 $-1 $17 #
lump $-1 $-1 $18 $0 #
transform $-1 1 0 0 0 1 0 0 0 1 66.429029206213571 40.854451019733752 18.481817021873145 1 rotate no_reflect no_shear #
lump $-1 $-1 $19 $1 #
transform $-1 1 0 0 0 1 0 0 0 1 66.429029206213571 40.854451019733752 18.481817021873145 1 rotate no_reflect no_shear #
lump $-1 $-1 $20 $2 #
transform $-1 1 0 0 0 1 0 0 0 1 66.429029206213571 40.854451019733752 18.481817021873145 1 rotate no_reflect no_shear #
lump $-1 $-1 $21 $3 #
transform $-1 1 0 0 0 1 0 0 0 1 66.429029206213571 40.854451019733752 18.481817021873145 1 rotate no_reflect no_shear #
lump $-1 $-1 $22 $4 #
transform $-1 1 0 0 0 1 0 0 0 1 66.429029206213571 40.854451019733752 18.481817021873145 1 rotate no_reflect no_shear #
lump $-1 $-1 $23 $5 #
transform $-1 1 0 0 0 1 0 0 0 1 66.429029206213571 40.854451019733752 18.481817021873145 1 rotate no_reflect no_shear #
shell $-1 $-1 $-1 $24 $-1 $6 #
shell $-1 $-1 $-1 $25 $-1 $8 #
shell $-1 $-1 $-1 $26 $-1 $10 #
shell $-1 $-1 $-1 $27 $-1 $12 #
shell $-1 $-1 $-1 $28 $-1 $14 #
shell $-1 $-1 $-1 $29 $-1 $16 #
face $-1 $30 $31 $18 $-1 $32 forward single #
face $-1 $33 $34 $19 $-1 $35 forward single #
face $-1 $36 $37 $20 $-1 $38 reversed single #
face $-1 $39 $40 $21 $-1 $41 forward single #
face $-1 $42 $43 $22 $-1 $44 reversed single #
face $-1 $45 $46 $23 $-1 $47 forward single #
face $-1 $48 $49 $18 $-1 $50 reversed single #
loop $-1 $-1 $51 $24 #
plane-surface $-1 0 0 18.481817021873145 0 0 1 1 0 0 forward_v I I I I #
face $-1 $52 $53 $19 $-1 $54 reversed single #
loop $-1 $-1 $55 $25 #
plane-surface $-1 -66.429029206213571 0 0 1 0 0 0 0 -1 forward_v I I I I #
face $-1 $56 $57 $20 $-1 $58 reversed single #
loop $-1 $-1 $59 $26 #
plane-surface $-1 -43.715292383118367 -30.645513828364997 74.667017644472125 0.55919291073839883 0 0.82903756765294845 0.82903756765294845 0 -0.55919291073839883 forward_v I I I I #
face $-1 $60 $61 $21 $-1 $62 forward single #
loop $-1 $63 $64 $27 #
cone-surface $-1 48.725228122411252 -30.645513828364997 3.0814769933312522 -0.55919291073839883 0 -0.82903756765294845 3.3161502706117938 0 -2.2367716429535953 1 I I 0 1 4 forward I I I I #
face $-1 $65 $66 $22 $-1 $67 reversed single #
loop $-1 $-1 $68 $28 #
plane-surface $-1 30.577992015578985 20.43657663699625 184.81133923380406 0 1 0 0.55919291073839883 0 0.82903756765294845 forward_v I I I I #
face $-1 $69 $70 $23 $-1 $71 forward single #
loop $-1 $72 $73 $29 #
cone-surface $-1 48.725228122411252 30.645513828365004 3.0814769933312522 -0.55919291073839883 0 -0.82903756765294845 3.3161502706117938 0 -2.2367716429535953 1 I I 0 1 4 forward I I I I #
face $-1 $74 $75 $18 $-1 $76 reversed single #
loop $-1 $-1 $77 $30 #
plane-surface $-1 0 0 -18.481817021873145 0 0 1 1 0 0 forward_v I I I I #
coedge $-1 $78 $79 $80 $81 forward $31 $-1 #
face $-1 $82 $83 $19 $-1 $84 reversed single #
loop $-1 $-1 $85 $33 #
plane-surface $-1 0 0 -18.481817021873145 0 0 1 1 0 0 forward_v I I I I #
coedge $-1 $86 $87 $88 $89 forward $34 $-1 #
face $-1 $90 $91 $20 $-1 $92 reversed single #
loop $-1 $-1 $93 $36 #
plane-surface $-1 30.577992015578985 -20.436576636996243 184.81133923380406 0 -1 0 -0.55919291073839883 0 -0.82903756765294845 forward_v I I I I #
coedge $-1 $94 $95 $96 $97 reversed $37 $-1 #
face $-1 $-1 $98 $21 $-1 $99 forward single #
loop $-1 $100 $101 $39 #
cone-surface $-1 43.326210073805512 -30.645513828364997 -4.9228962824673452 -0.55919291073839883 0 -0.82903756765294845 1.6580751353058969 0 -1.1183858214767977 1 I I -0.70710678118654768 0.70710678118654735 2 forward I I I I #
loop $-1 $-1 $102 $27 #
coedge $-1 $64 $64 $103 $104 reversed $40 $-1 #
face $-1 $105 $106 $22 $-1 $107 reversed single #
loop $-1 $-1 $108 $42 #
plane-surface $-1 -43.715292383118367 30.645513828365004 74.667017644472125 0.55919291073839883 0 0.82903756765294845 0.82903756765294845 0 -0.55919291073839883 forward_v I I I I #
coedge $-1 $109 $110 $111 $112 reversed $43 $-1 #
face $-1 $-1 $113 $23 $-1 $114 forward single #
loop $-1 $115 $116 $45 #
cone-surface $-1 43.326210073805512 30.645513828365004 -4.9228962824673452 -0.55919291073839883 0 -0.82903756765294845 1.6580751353058969 0 -1.1183858214767977 1 I I -0.70710678118654768 0.70710678118654735 2 forward I I I I #
loop $-1 $-1 $117 $29 #
coedge $-1 $73 $73 $118 $119 reversed $46 $-1 #
face $-1 $120 $121 $18 $-1 $122 reversed single #
loop $-1 $-1 $123 $48 #
plane-surface $-1 0 -40.854451019733752 0 0 1 0 0 0 1 forward_v I I I I #
coedge $-1 $124 $125 $126 $127 forward $49 $-1 #
coedge $-1 $128 $51 $129 $130 forward $31 $-1 #
coedge $-1 $51 $128 $131 $132 forward $31 $-1 #
coedge $-1 $133 $134 $51 $81 reversed $135 $-1 #
edge $-1 $136 -40.854451019733752 $137 40.854451019733752 $80 $138 forward 7 unknown #
face $-1 $139 $140 $19 $-1 $141 reversed single #
loop $-1 $-1 $142 $52 #
plane-surface $-1 -77.688176727974039 -21.240476078262269 0 0 1 0 0 0 1 forward_v I I I I #
coedge $-1 $143 $144 $87 $145 forward $53 $-1 #
coedge $-1 $146 $55 $147 $148 reversed $34 $-1 #
coedge $-1 $55 $146 $85 $145 reversed $34 $-1 #
coedge $-1 $149 $150 $55 $89 reversed $151 $-1 #
edge $-1 $152 -18.481817021873145 $153 18.481817021873145 $88 $154 forward 7 unknown #
face $-1 $155 $156 $20 $-1 $157 reversed single #
loop $-1 $-1 $158 $56 #
plane-surface $-1 0 -40.854451019733752 0 0 1 0 0 0 1 forward_v I I I I #
coedge $-1 $159 $160 $161 $162 reversed $57 $-1 #
coedge $-1 $163 $59 $158 $164 reversed $37 $-1 #
coedge $-1 $59 $163 $159 $165 forward $37 $-1 #
coedge $-1 $161 $166 $59 $97 forward $156 $-1 #
edge $-1 $167 -25.531694105551253 $168 -5.1138197228137443 $96 $169 forward 7 unknown #
loop $-1 $-1 $103 $60 #
plane-surface $-1 -43.715292383118367 -30.645513828364997 74.667017644472125 0.55919291073839883 0 0.82903756765294845 0.82903756765294845 0 -0.55919291073839883 forward_v I I I I #
loop $-1 $-1 $170 $39 #
coedge $-1 $101 $101 $102 $171 reversed $61 $-1 #
coedge $-1 $102 $102 $101 $171 forward $63 $-1 #
coedge $-1 $103 $103 $64 $104 forward $98 $-1 #
edge $-1 $172 0 $172 6.2831853071796004 $103 $173 forward 7 unknown #
face $-1 $174 $175 $22 $-1 $176 reversed single #
loop $-1 $-1 $111 $65 #
plane-surface $-1 66.429029206213571 0 0 -1 0 0 0 0 1 forward_v I I I I #
coedge $-1 $177 $178 $179 $180 reversed $66 $-1 #
coedge $-1 $110 $68 $181 $182 reversed $43 $-1 #
coedge $-1 $68 $109 $177 $183 reversed $43 $-1 #
coedge $-1 $179 $184 $68 $112 forward $106 $-1 #
edge $-1 $185 73.92385259502889 $186 92.031936371127259 $111 $187 forward 7 unknown #
loop $-1 $-1 $118 $69 #
plane-surface $-1 -43.715292383118367 30.645513828365004 74.667017644472125 0.55919291073839883 0 0.82903756765294845 0.82903756765294845 0 -0.55919291073839883 forward_v I I I I #
loop $-1 $-1 $188 $45 #
coedge $-1 $116 $116 $117 $189 reversed $70 $-1 #
coedge $-1 $117 $117 $116 $189 forward $72 $-1 #
coedge $-1 $118 $118 $73 $119 forward $113 $-1 #
edge $-1 $190 0 $190 6.2831853071796004 $118 $191 forward 7 unknown #
face $-1 $192 $193 $18 $-1 $194 reversed single #
loop $-1 $-1 $195 $74 #
plane-surface $-1 -66.429029206213571 0 0 1 0 0 0 0 -1 forward_v I I I I #
coedge $-1 $196 $131 $197 $198 forward $75 $-1 #
coedge $-1 $199 $77 $196 $200 forward $49 $-1 #
coedge $-1 $77 $199 $201 $202 forward $49 $-1 #
coedge $-1 $134 $133 $77 $127 reversed $135 $-1 #
edge $-1 $203 -40.854451019733752 $204 40.854451019733752 $126 $205 forward 7 unknown #
coedge $-1 $79 $78 $206 $207 forward $31 $-1 #
coedge $-1 $208 $209 $78 $130 reversed $193 $-1 #
edge $-1 $137 -66.429029206213571 $210 66.429029206213571 $129 $211 forward 7 unknown #
coedge $-1 $123 $212 $79 $132 reversed $75 $-1 #
edge $-1 $213 -66.429029206213571 $136 66.429029206213571 $131 $214 forward 7 unknown #
coedge $-1 $126 $80 $212 $215 forward $135 $-1 #
coedge $-1 $80 $126 $208 $216 reversed $135 $-1 #
loop $-1 $-1 $133 $192 #
vertex $-1 $81 $217 #
vertex $-1 $81 $218 #
straight-curve $-1 66.429029206213571 0 18.481817021873145 0 1 0 I I #
face $-1 $219 $151 $19 $-1 $220 reversed single #
loop $-1 $-1 $221 $82 #
plane-surface $-1 -88.947324249734507 -19.255684491657775 0 1 0 0 0 0 -1 forward_v I I I I #
coedge $-1 $222 $223 $224 $225 forward $83 $-1 #
coedge $-1 $226 $85 $222 $227 forward $53 $-1 #
coedge $-1 $85 $226 $149 $228 forward $53 $-1 #
edge $-1 $152 17.27089290505328 $229 21.240476078262269 $85 $230 forward 7 unknown #
coedge $-1 $87 $86 $231 $232 forward $34 $-1 #
coedge $-1 $233 $234 $86 $148 forward $235 $-1 #
edge $-1 $236 -21.240476078262269 $153 -17.27089290505328 $147 $237 forward 7 unknown #
coedge $-1 $238 $88 $144 $228 reversed $151 $-1 #
coedge $-1 $88 $238 $233 $239 reversed $151 $-1 #
loop $-1 $-1 $88 $139 #
vertex $-1 $145 $240 #
vertex $-1 $239 $241 #
straight-curve $-1 -66.429029206213571 -17.27089290505328 0 0 0 1 I I #
face $-1 $-1 $242 $20 $-1 $243 forward single #
loop $-1 $-1 $96 $90 #
plane-surface $-1 66.429029206213571 0 0 -1 0 0 0 0 1 forward_v I I I I #
coedge $-1 $244 $245 $94 $164 forward $91 $-1 #
coedge $-1 $160 $93 $95 $165 reversed $57 $-1 #
coedge $-1 $93 $159 $246 $247 reversed $57 $-1 #
coedge $-1 $248 $96 $93 $162 forward $156 $-1 #
edge $-1 $168 -92.031936371127259 $249 -73.92385259502889 $161 $250 forward 7 unknown #
coedge $-1 $95 $94 $251 $252 reversed $37 $-1 #
edge $-1 $253 61.478080519860491 $167 93.860615112774298 $158 $254 forward 7 unknown #
edge $-1 $255 100.47552381951333 $168 132.85805841242714 $159 $256 forward 7 unknown #
coedge $-1 $96 $248 $244 $257 forward $156 $-1 #
vertex $-1 $97 $258 #
vertex $-1 $97 $259 #
straight-curve $-1 66.429029206213571 -15.322756914182499 0.37373324577477973 0 1 0 I I #
coedge $-1 $170 $170 $-1 $260 reversed $100 $-1 #
edge $-1 $261 0 $261 6.2831853071796004 $101 $262 forward 7 unknown #
vertex $-1 $104 $263 #
ellipse-curve $-1 53.005860349540207 -30.645513828364997 9.4277751338239675 0.55919291073839883 0 0.82903756765294845 3.3161502706117938 0 -2.2367716429535953 1 I I #
face $-1 $-1 $264 $22 $-1 $265 forward single #
loop $-1 $-1 $266 $105 #
plane-surface $-1 0 40.854451019733752 0 0 -1 0 0 0 -1 forward_v I I I I #
coedge $-1 $267 $108 $110 $183 forward $66 $-1 #
coedge $-1 $108 $267 $266 $268 reversed $66 $-1 #
coedge $-1 $269 $111 $108 $180 forward $106 $-1 #
edge $-1 $186 5.1138197228137479 $270 25.531694105551257 $179 $271 forward 7 unknown #
coedge $-1 $272 $273 $109 $182 forward $264 $-1 #
edge $-1 $274 24.29369548507735 $185 51.140033198424078 $181 $275 forward 7 unknown #
edge $-1 $186 -132.85805841242714 $274 -100.47552381951333 $110 $276 forward 7 unknown #
coedge $-1 $111 $269 $272 $277 reversed $106 $-1 #
vertex $-1 $277 $278 #
vertex $-1 $112 $279 #
straight-curve $-1 66.429029206213571 20.43657663699625 92.405669616902031 0 0 -1 I I #
coedge $-1 $188 $188 $-1 $280 reversed $115 $-1 #
edge $-1 $281 0 $281 6.2831853071796004 $116 $282 forward 7 unknown #
vertex $-1 $119 $283 #
ellipse-curve $-1 53.005860349540207 30.645513828365004 9.4277751338239675 0.55919291073839883 0 0.82903756765294845 3.3161502706117938 0 -2.2367716429535953 1 I I #
face $-1 $-1 $135 $18 $-1 $284 reversed single #
loop $-1 $-1 $208 $120 #
plane-surface $-1 0 40.854451019733752 0 0 -1 0 0 0 -1 forward_v I I I I #
coedge $-1 $285 $206 $209 $286 forward $121 $-1 #
coedge $-1 $212 $123 $124 $200 reversed $75 $-1 #
coedge $-1 $206 $285 $123 $198 reversed $121 $-1 #
edge $-1 $213 -18.481817021873145 $287 18.481817021873145 $197 $288 forward 7 unknown #
coedge $-1 $125 $124 $285 $289 forward $49 $-1 #
edge $-1 $204 -66.429029206213571 $287 66.429029206213571 $196 $290 forward 7 unknown #
coedge $-1 $209 $208 $125 $202 reversed $193 $-1 #
edge $-1 $291 -66.429029206213571 $203 66.429029206213571 $201 $292 forward 7 unknown #
vertex $-1 $127 $293 #
vertex $-1 $215 $294 #
straight-curve $-1 66.429029206213571 0 -18.481817021873145 0 -1 0 I I #
coedge $-1 $195 $197 $128 $207 reversed $121 $-1 #
edge $-1 $210 -40.854451019733752 $213 40.854451019733752 $206 $295 forward 7 unknown #
coedge $-1 $201 $129 $134 $216 forward $193 $-1 #
coedge $-1 $129 $201 $195 $286 reversed $193 $-1 #
vertex $-1 $130 $296 #
straight-curve $-1 0 40.854451019733752 18.481817021873145 -1 0 0 I I #
coedge $-1 $131 $196 $133 $215 reversed $75 $-1 #
vertex $-1 $207 $297 #
straight-curve $-1 0 -40.854451019733752 18.481817021873145 1 0 0 I I #
edge $-1 $136 -18.481817021873145 $204 18.481817021873145 $133 $298 forward 7 unknown #
edge $-1 $137 -18.481817021873145 $203 18.481817021873145 $134 $299 forward 7 unknown #
point $-1 66.429029206213571 -40.854451019733752 18.481817021873145 #
point $-1 66.429029206213571 40.854451019733752 18.481817021873145 #
face $-1 $-1 $235 $19 $-1 $300 forward single #
plane-surface $-1 -77.688176727974039 -17.27089290505328 0 0 -1 0 0 0 -1 forward_v I I I I #
coedge $-1 $301 $302 $238 $303 forward $140 $-1 #
coedge $-1 $231 $142 $143 $227 reversed $83 $-1 #
coedge $-1 $142 $231 $234 $304 reversed $83 $-1 #
coedge $-1 $302 $301 $142 $225 reversed $140 $-1 #
edge $-1 $305 -18.481817021873145 $306 18.481817021873145 $224 $307 forward 7 unknown #
coedge $-1 $144 $143 $301 $308 forward $53 $-1 #
edge $-1 $229 -11.259147521760468 $306 11.259147521760468 $222 $309 forward 7 unknown #
edge $-1 $310 -11.259147521760468 $152 11.259147521760468 $149 $311 forward 7 unknown #
vertex $-1 $227 $312 #
straight-curve $-1 -66.429029206213571 0 -18.481817021873145 0 -1 0 I I #
coedge $-1 $223 $222 $146 $232 reversed $83 $-1 #
edge $-1 $236 -18.481817021873145 $229 18.481817021873145 $231 $313 forward 7 unknown #
coedge $-1 $314 $147 $150 $239 forward $235 $-1 #
coedge $-1 $147 $314 $223 $304 forward $235 $-1 #
loop $-1 $-1 $147 $219 #
vertex $-1 $148 $315 #
straight-curve $-1 -66.429029206213571 0 18.481817021873145 0 1 0 I I #
coedge $-1 $150 $149 $221 $303 reversed $151 $-1 #
edge $-1 $153 -11.259147521760468 $316 11.259147521760468 $150 $317 forward 7 unknown #
point $-1 -66.429029206213571 -17.27089290505328 -18.481817021873145 #
point $-1 -66.429029206213571 -17.27089290505328 18.481817021873145 #
loop $-1 $-1 $251 $155 #
plane-surface $-1 0 0 18.481817021873145 0 0 1 1 0 0 forward_v I I I I #
coedge $-1 $245 $158 $166 $257 reversed $91 $-1 #
coedge $-1 $158 $244 $318 $319 reversed $91 $-1 #
coedge $-1 $251 $320 $160 $247 forward $242 $-1 #
edge $-1 $249 -51.140033198424078 $255 -24.29369548507735 $246 $321 forward 7 unknown #
coedge $-1 $166 $161 $320 $322 reversed $156 $-1 #
vertex $-1 $162 $323 #
straight-curve $-1 66.429029206213571 -20.436576636996243 92.405669616902031 0 0 1 I I #
coedge $-1 $318 $246 $163 $252 forward $242 $-1 #
edge $-1 $255 5.1138197228137443 $253 25.531694105551253 $251 $324 forward 7 unknown #
vertex $-1 $319 $325 #
straight-curve $-1 -11.384946845290411 -40.854451019733752 52.859923814383585 0.82903756765294845 0 -0.55919291073839883 I I #
vertex $-1 $252 $326 #
straight-curve $-1 -43.715292383118367 -20.436576636996243 74.667017644472125 0.82903756765294845 0 -0.55919291073839883 I I #
edge $-1 $327 -18.481817021873145 $167 -0.37373324577477979 $166 $328 forward 7 unknown #
point $-1 66.429029206213571 -40.854451019733752 0.37373324577477979 #
point $-1 66.429029206213571 -20.436576636996243 0.37373324577477263 #
edge $-1 $329 1 $329 0 $170 $-1 forward 7 unknown #
vertex $-1 $171 $330 #
ellipse-curve $-1 44.444595895282312 -30.645513828364997 -3.2648211471614488 0.55919291073839883 0 0.82903756765294845 3.3161502706117938 0 -2.2367716429535953 1 I I #
point $-1 56.322010620151985 -30.645513828364997 7.1910034908703597 #
loop $-1 $-1 $181 $174 #
plane-surface $-1 0 0 18.481817021873145 0 0 1 1 0 0 forward_v I I I I #
coedge $-1 $331 $332 $178 $268 forward $175 $-1 #
coedge $-1 $178 $177 $273 $333 reversed $66 $-1 #
edge $-1 $270 -93.860615112774298 $334 -61.478080519860491 $266 $335 forward 7 unknown #
coedge $-1 $184 $179 $332 $336 reversed $106 $-1 #
vertex $-1 $268 $337 #
straight-curve $-1 66.429029206213571 15.322756914182502 0.37373324577477973 0 1 0 I I #
coedge $-1 $338 $181 $184 $277 forward $264 $-1 #
coedge $-1 $181 $338 $267 $333 forward $264 $-1 #
vertex $-1 $182 $339 #
straight-curve $-1 15.288996007789493 20.43657663699625 18.481817021873141 1 0 0 I I #
straight-curve $-1 -43.715292383118367 20.43657663699625 74.667017644472125 -0.82903756765294845 0 0.55919291073839883 I I #
edge $-1 $185 20.43657663699625 $340 40.854451019733752 $184 $341 forward 7 unknown #
point $-1 66.429029206213571 20.43657663699625 18.481817021873145 #
point $-1 66.429029206213571 20.43657663699625 0.37373324577477263 #
edge $-1 $342 1 $342 0 $188 $-1 forward 7 unknown #
vertex $-1 $189 $343 #
ellipse-curve $-1 44.444595895282312 30.645513828365004 -3.2648211471614488 0.55919291073839883 0 0.82903756765294845 3.3161502706117938 0 -2.2367716429535953 1 I I #
point $-1 56.322010620151985 30.645513828365004 7.1910034908703597 #
plane-surface $-1 66.429029206213571 0 0 -1 0 0 0 0 1 forward_v I I I I #
coedge $-1 $197 $195 $199 $289 reversed $121 $-1 #
edge $-1 $210 -18.481817021873145 $291 18.481817021873145 $209 $344 forward 7 unknown #
vertex $-1 $289 $345 #
straight-curve $-1 -66.429029206213571 -40.854451019733752 0 0 0 -1 I I #
edge $-1 $287 -40.854451019733752 $291 40.854451019733752 $285 $346 forward 7 unknown #
straight-curve $-1 0 -40.854451019733752 -18.481817021873145 -1 0 0 I I #
vertex $-1 $202 $347 #
straight-curve $-1 0 40.854451019733752 -18.481817021873145 1 0 0 I I #
point $-1 66.429029206213571 40.854451019733752 -18.481817021873145 #
point $-1 66.429029206213571 -40.854451019733752 -18.481817021873145 #
straight-curve $-1 -66.429029206213571 0 18.481817021873145 0 -1 0 I I #
point $-1 -66.429029206213571 40.854451019733752 18.481817021873145 #
point $-1 -66.429029206213571 -40.854451019733752 18.481817021873145 #
straight-curve $-1 66.429029206213571 -40.854451019733752 0 0 0 -1 I I #
straight-curve $-1 66.429029206213571 40.854451019733752 0 0 0 -1 I I #
plane-surface $-1 0 0 18.481817021873145 0 0 1 1 0 0 forward_v I I I I #
coedge $-1 $224 $221 $226 $308 reversed $140 $-1 #
coedge $-1 $221 $224 $314 $348 reversed $140 $-1 #
edge $-1 $316 -18.481817021873145 $310 18.481817021873145 $238 $349 forward 7 unknown #
edge $-1 $305 -11.259147521760468 $236 11.259147521760468 $223 $350 forward 7 unknown #
vertex $-1 $348 $351 #
vertex $-1 $308 $352 #
straight-curve $-1 -88.947324249734507 -21.240476078262269 0 0 0 -1 I I #
edge $-1 $306 -1.9847915866044943 $310 1.9847915866044943 $301 $353 forward 7 unknown #
straight-curve $-1 -77.688176727974039 -21.240476078262269 -18.481817021873145 -1 0 0 I I #
vertex $-1 $228 $354 #
straight-curve $-1 -77.688176727974039 -17.27089290505328 -18.481817021873145 1 0 0 I I #
point $-1 -66.429029206213571 -21.240476078262269 -18.481817021873145 #
straight-curve $-1 -66.429029206213571 -21.240476078262269 0 0 0 -1 I I #
coedge $-1 $234 $233 $302 $348 forward $235 $-1 #
point $-1 -66.429029206213571 -21.240476078262269 18.481817021873145 #
vertex $-1 $239 $355 #
straight-curve $-1 -77.688176727974039 -17.27089290505328 18.481817021873145 -1 0 0 I I #
coedge $-1 $320 $251 $245 $319 forward $242 $-1 #
edge $-1 $253 39.582691492866843 $327 66.429029206213571 $245 $356 forward 7 unknown #
coedge $-1 $246 $318 $248 $322 forward $242 $-1 #
straight-curve $-1 15.288996007789493 -20.436576636996243 18.481817021873141 -1 0 0 I I #
edge $-1 $327 -40.854451019733752 $249 -20.436576636996243 $248 $357 forward 7 unknown #
point $-1 66.429029206213571 -20.436576636996243 18.481817021873145 #
straight-curve $-1 39.58269149286685 -15.322756914182499 18.481817021873141 0 -1 0 I I #
point $-1 39.582691492866843 -40.854451019733752 18.481817021873141 #
point $-1 39.582691492866843 -20.436576636996243 18.481817021873141 #
vertex $-1 $322 $358 #
straight-curve $-1 66.429029206213571 -40.854451019733752 0 0 0 -1 I I #
vertex $-1 $260 $359 #
point $-1 47.760746165894105 -30.645513828364997 -5.5015927901150441 #
coedge $-1 $332 $266 $338 $360 reversed $175 $-1 #
coedge $-1 $266 $331 $269 $336 forward $175 $-1 #
edge $-1 $334 -25.531694105551257 $274 -5.1138197228137479 $273 $361 forward 7 unknown #
vertex $-1 $268 $362 #
straight-curve $-1 -11.384946845290411 40.854451019733752 52.859923814383585 -0.82903756765294845 0 0.55919291073839883 I I #
edge $-1 $340 -18.481817021873145 $270 -0.37373324577477263 $269 $363 forward 7 unknown #
point $-1 66.429029206213571 40.854451019733759 0.37373324577477263 #
coedge $-1 $273 $272 $331 $360 forward $264 $-1 #
point $-1 39.582691492866843 20.43657663699625 18.481817021873141 #
vertex $-1 $277 $364 #
straight-curve $-1 66.429029206213571 0 18.481817021873145 0 1 0 I I #
vertex $-1 $280 $365 #
point $-1 47.760746165894105 30.645513828365004 -5.5015927901150441 #
straight-curve $-1 -66.429029206213571 40.854451019733752 0 0 0 -1 I I #
point $-1 -66.429029206213571 -40.854451019733752 -18.481817021873145 #
straight-curve $-1 -66.429029206213571 0 -18.481817021873145 0 1 0 I I #
point $-1 -66.429029206213571 40.854451019733752 -18.481817021873145 #
edge $-1 $316 -1.9847915866044943 $305 1.9847915866044943 $302 $366 forward 7 unknown #
straight-curve $-1 -88.947324249734507 -17.27089290505328 0 0 0 -1 I I #
straight-curve $-1 -77.688176727974039 -21.240476078262269 18.481817021873145 1 0 0 I I #
point $-1 -88.947324249734507 -21.240476078262269 18.481817021873145 #
point $-1 -88.947324249734507 -21.240476078262269 -18.481817021873145 #
straight-curve $-1 -88.947324249734507 -19.255684491657775 -18.481817021873145 0 1 0 I I #
point $-1 -88.947324249734507 -17.27089290505328 -18.481817021873145 #
point $-1 -88.947324249734507 -17.27089290505328 18.481817021873145 #
straight-curve $-1 0 -40.854451019733752 18.481817021873145 1 0 0 I I #
straight-curve $-1 66.429029206213571 0 18.481817021873145 0 1 0 I I #
point $-1 66.429029206213571 -40.854451019733752 18.481817021873145 #
point $-1 42.207824252328713 -30.645513828364997 -6.5809714177732417 #
edge $-1 $340 -66.429029206213571 $334 -39.582691492866843 $331 $367 forward 7 unknown #
straight-curve $-1 39.58269149286685 15.322756914182502 18.481817021873141 0 -1 0 I I #
point $-1 39.582691492866843 40.854451019733759 18.481817021873141 #
straight-curve $-1 66.429029206213571 40.854451019733752 0 0 0 -1 I I #
point $-1 66.429029206213571 40.854451019733752 18.481817021873145 #
point $-1 42.207824252328713 30.645513828365004 -6.5809714177732417 #
straight-curve $-1 -88.947324249734507 -19.255684491657775 18.481817021873145 0 -1 0 I I #
straight-curve $-1 0 40.854451019733752 18.481817021873145 -1 0 0 I I #
End-of-ACIS-data 