500 0 5 0           
7 Unknown 11 ACIS 5.0 NT 24 Fri Mar 26 17:17:12 1999 
-1 9.9999999999999995e-007 1e-010 
body $-1 $5 $-1 $6 #
body $-1 $7 $-1 $8 #
body $-1 $9 $-1 $10 #
body $-1 $11 $-1 $12 #
body $-1 $13 $-1 $14 #
lump $-1 $-1 $15 $0 #
transform $-1 1 0 0 0 1 0 0 0 1 49.396038697470019 32.4652287296623 11.395080282596702 1 rotate no_reflect no_shear #
lump $-1 $-1 $16 $1 #
transform $-1 1 0 0 0 1 0 0 0 1 49.396038697470019 32.4652287296623 11.395080282596702 1 rotate no_reflect no_shear #
lump $-1 $-1 $17 $2 #
transform $-1 1 0 0 0 1 0 0 0 1 49.396038697470019 32.4652287296623 11.395080282596702 1 rotate no_reflect no_shear #
lump $-1 $-1 $18 $3 #
transform $-1 1 0 0 0 1 0 0 0 1 49.396038697470019 32.4652287296623 11.395080282596702 1 rotate no_reflect no_shear #
lump $-1 $-1 $19 $4 #
transform $-1 1 0 0 0 1 0 0 0 1 49.396038697470019 32.4652287296623 11.395080282596702 1 rotate no_reflect no_shear #
shell $-1 $-1 $-1 $20 $-1 $5 #
shell $-1 $-1 $-1 $21 $-1 $7 #
shell $-1 $-1 $-1 $22 $-1 $9 #
shell $-1 $-1 $-1 $23 $-1 $11 #
shell $-1 $-1 $-1 $24 $-1 $13 #
face $-1 $25 $26 $15 $-1 $27 reversed single #
face $-1 $28 $29 $16 $-1 $30 forward single #
face $-1 $31 $32 $17 $-1 $33 reversed single #
face $-1 $34 $35 $18 $-1 $36 forward single #
face $-1 $37 $38 $19 $-1 $39 forward single #
face $-1 $40 $41 $15 $-1 $42 forward single #
loop $-1 $-1 $43 $20 #
plane-surface $-1 0 -32.4652287296623 0 0 1 0 0 0 1 forward_v I I I I #
face $-1 $44 $45 $16 $-1 $46 forward single #
loop $-1 $-1 $47 $21 #
plane-surface $-1 0 -32.4652287296623 0 0 1 0 0 0 1 forward_v I I I I #
face $-1 $48 $49 $17 $-1 $50 reversed single #
loop $-1 $-1 $51 $22 #
plane-surface $-1 16.287838368446806 38.003912424724362 123.02671163689578 1 0 0 0 -0.5877852598018023 -0.80901698891910034 forward_v I I I I #
face $-1 $52 $53 $18 $-1 $54 forward single #
loop $-1 $55 $56 $23 #
cone-surface $-1 19.755331788550237 26.291315811471904 5.7855250266850078 0 -0.5877852598018023 -0.80901698891910034 1.5 0 0 1 I I 0 1 1.5 forward I I I I #
face $-1 $57 $58 $19 $-1 $59 forward single #
loop $-1 $60 $61 $24 #
cone-surface $-1 24.956571918705393 26.291315811471904 5.7855250266850078 0 -0.5877852598018023 -0.80901698891910034 1.5 0 0 1 I I 0 1 1.5 forward I I I I #
face $-1 $62 $63 $15 $-1 $64 reversed single #
loop $-1 $-1 $65 $25 #
plane-surface $-1 0 0 11.395080282596702 0 0 1 1 0 0 forward_v I I I I #
coedge $-1 $66 $67 $68 $69 reversed $26 $-1 #
face $-1 $70 $71 $16 $-1 $72 reversed single #
loop $-1 $-1 $73 $28 #
plane-surface $-1 0 0 11.395080282596702 0 0 1 1 0 0 forward_v I I I I #
coedge $-1 $74 $75 $76 $77 forward $29 $-1 #
face $-1 $78 $79 $17 $-1 $80 reversed single #
loop $-1 $-1 $81 $31 #
plane-surface $-1 22.355951853627815 -20.06461445322023 43.102242653778674 0 0.5877852598018023 0.80901698891910034 1 0 0 forward_v I I I I #
coedge $-1 $82 $83 $84 $85 reversed $32 $-1 #
face $-1 $-1 $86 $18 $-1 $87 forward single #
loop $-1 $88 $89 $34 #
cone-surface $-1 19.755331788550237 24.120903447227406 2.7982087468825014 0 -0.5877852598018023 -0.80901698891910034 0.75 0 0 1 I I -0.70710678118654757 0.70710678118654757 0.75 forward I I I I #
loop $-1 $-1 $90 $23 #
coedge $-1 $56 $56 $91 $92 reversed $35 $-1 #
face $-1 $-1 $93 $19 $-1 $94 forward single #
loop $-1 $95 $96 $37 #
cone-surface $-1 24.956571918705393 24.120903447227406 2.7982087468825014 0 -0.5877852598018023 -0.80901698891910034 0.75 0 0 1 I I -0.70710678118654757 0.70710678118654757 0.75 forward I I I I #
loop $-1 $-1 $97 $24 #
coedge $-1 $61 $61 $98 $99 reversed $38 $-1 #
face $-1 $100 $101 $15 $-1 $102 reversed single #
loop $-1 $-1 $103 $40 #
plane-surface $-1 0 0 -11.395080282596702 0 0 1 1 0 0 forward_v I I I I #
coedge $-1 $104 $105 $106 $107 forward $41 $-1 #
coedge $-1 $108 $43 $109 $110 reversed $26 $-1 #
coedge $-1 $43 $108 $111 $112 forward $26 $-1 #
coedge $-1 $113 $103 $43 $69 forward $63 $-1 #
edge $-1 $114 -49.396038697470019 $115 49.396038697470019 $43 $116 forward 7 unknown #
face $-1 $117 $118 $16 $-1 $119 reversed single #
loop $-1 $-1 $120 $44 #
plane-surface $-1 -49.396038697470019 0 0 1 0 0 0 0 -1 forward_v I I I I #
coedge $-1 $121 $122 $75 $123 forward $45 $-1 #
coedge $-1 $124 $47 $125 $126 reversed $29 $-1 #
coedge $-1 $47 $124 $73 $123 reversed $29 $-1 #
coedge $-1 $127 $128 $47 $77 reversed $129 $-1 #
edge $-1 $130 -11.395080282596702 $131 11.395080282596702 $76 $132 forward 7 unknown #
face $-1 $133 $134 $17 $-1 $135 reversed single #
loop $-1 $-1 $136 $48 #
plane-surface $-1 28.424065338808823 38.003912424724362 123.02671163689578 -1 0 0 0 0.5877852598018023 0.80901698891910034 forward_v I I I I #
coedge $-1 $137 $138 $139 $140 reversed $49 $-1 #
coedge $-1 $83 $51 $141 $142 reversed $32 $-1 #
coedge $-1 $51 $82 $137 $143 reversed $32 $-1 #
coedge $-1 $139 $144 $51 $85 forward $145 $-1 #
edge $-1 $146 -13.463272517300119 $147 -4.5745935197056298 $84 $148 forward 7 unknown #
loop $-1 $-1 $91 $52 #
plane-surface $-1 22.355951853627815 -20.06461445322023 43.102242653778674 0 0.5877852598018023 0.80901698891910034 1 0 0 forward_v I I I I #
loop $-1 $-1 $149 $34 #
coedge $-1 $89 $89 $90 $150 reversed $53 $-1 #
coedge $-1 $90 $90 $89 $150 forward $55 $-1 #
coedge $-1 $91 $91 $56 $92 forward $86 $-1 #
edge $-1 $151 -1.0479639869596157e-015 $151 6.2831853071795996 $91 $152 forward 7 unknown #
loop $-1 $-1 $98 $57 #
plane-surface $-1 22.355951853627815 -20.06461445322023 43.102242653778674 0 0.5877852598018023 0.80901698891910034 1 0 0 forward_v I I I I #
loop $-1 $-1 $153 $37 #
coedge $-1 $96 $96 $97 $154 reversed $58 $-1 #
coedge $-1 $97 $97 $96 $154 forward $60 $-1 #
coedge $-1 $98 $98 $61 $99 forward $93 $-1 #
edge $-1 $155 -1.0479639869596157e-015 $155 6.2831853071795996 $98 $156 forward 7 unknown #
face $-1 $157 $158 $15 $-1 $159 reversed single #
loop $-1 $-1 $160 $62 #
plane-surface $-1 -49.396038697470019 0 0 1 0 0 0 0 -1 forward_v I I I I #
coedge $-1 $68 $161 $162 $163 forward $63 $-1 #
coedge $-1 $164 $65 $165 $166 forward $41 $-1 #
coedge $-1 $65 $164 $108 $167 forward $41 $-1 #
coedge $-1 $109 $168 $65 $107 reversed $169 $-1 #
edge $-1 $170 -32.4652287296623 $171 32.4652287296623 $106 $172 forward 7 unknown #
coedge $-1 $67 $66 $105 $167 reversed $26 $-1 #
coedge $-1 $162 $106 $66 $110 forward $169 $-1 #
edge $-1 $170 -11.395080282596702 $114 11.395080282596702 $109 $173 forward 7 unknown #
coedge $-1 $174 $175 $67 $112 reversed $101 $-1 #
edge $-1 $176 -11.395080282596702 $115 11.395080282596702 $111 $177 forward 7 unknown #
coedge $-1 $161 $68 $175 $178 forward $63 $-1 #
vertex $-1 $110 $179 #
vertex $-1 $178 $180 #
straight-curve $-1 0 -32.4652287296623 -11.395080282596702 -1 0 0 I I #
face $-1 $181 $129 $16 $-1 $182 reversed single #
loop $-1 $-1 $183 $70 #
plane-surface $-1 -46.579140910151636 -40.715403176521619 0 0 1 0 0 0 1 forward_v I I I I #
coedge $-1 $184 $185 $124 $186 forward $71 $-1 #
coedge $-1 $187 $73 $185 $188 forward $45 $-1 #
coedge $-1 $73 $187 $127 $189 forward $45 $-1 #
edge $-1 $130 43.762243122833254 $190 49.396038697470019 $73 $191 forward 7 unknown #
coedge $-1 $75 $74 $120 $186 reversed $29 $-1 #
coedge $-1 $192 $193 $74 $126 forward $194 $-1 #
edge $-1 $195 -49.396038697470019 $131 -43.762243122833254 $125 $196 forward 7 unknown #
coedge $-1 $197 $76 $122 $189 reversed $129 $-1 #
coedge $-1 $76 $197 $192 $198 reversed $129 $-1 #
loop $-1 $-1 $197 $117 #
vertex $-1 $123 $199 #
vertex $-1 $198 $200 #
straight-curve $-1 -43.762243122833254 -32.4652287296623 0 0 0 -1 I I #
face $-1 $-1 $145 $17 $-1 $201 forward single #
loop $-1 $-1 $202 $78 #
plane-surface $-1 0 32.4652287296623 0 0 -1 0 0 0 -1 forward_v I I I I #
coedge $-1 $203 $204 $205 $206 reversed $79 $-1 #
coedge $-1 $207 $81 $83 $143 forward $49 $-1 #
coedge $-1 $81 $207 $203 $208 forward $49 $-1 #
coedge $-1 $205 $84 $81 $140 forward $145 $-1 #
edge $-1 $147 5.1098624416328988 $209 17.246089411994916 $139 $210 forward 7 unknown #
coedge $-1 $211 $212 $82 $142 forward $134 $-1 #
edge $-1 $213 -56.576278971448197 $146 -50.11827553585119 $141 $214 forward 7 unknown #
edge $-1 $147 53.943445914028942 $213 64.9304574593246 $83 $215 forward 7 unknown #
coedge $-1 $84 $205 $211 $216 forward $145 $-1 #
loop $-1 $-1 $205 $133 #
vertex $-1 $142 $217 #
vertex $-1 $85 $218 #
straight-curve $-1 16.287838368446806 19.001956212362181 11.395080282596702 0 -1 0 I I #
coedge $-1 $149 $149 $-1 $219 reversed $88 $-1 #
edge $-1 $220 0 $220 6.2831853071796004 $89 $221 forward 7 unknown #
vertex $-1 $92 $222 #
ellipse-curve $-1 19.755331788550237 28.020889230865055 8.1660785647981946 0 0.5877852598018023 0.80901698891910034 1.5 0 0 1 I I #
coedge $-1 $153 $153 $-1 $223 reversed $95 $-1 #
edge $-1 $224 0 $224 6.2831853071796004 $96 $225 forward 7 unknown #
vertex $-1 $99 $226 #
ellipse-curve $-1 24.956571918705393 28.020889230865055 8.1660785647981946 0 0.5877852598018023 0.80901698891910034 1.5 0 0 1 I I #
face $-1 $-1 $169 $15 $-1 $227 reversed single #
loop $-1 $-1 $228 $100 #
plane-surface $-1 0 32.4652287296623 0 0 -1 0 0 0 -1 forward_v I I I I #
coedge $-1 $175 $174 $229 $230 forward $101 $-1 #
coedge $-1 $103 $113 $231 $232 forward $63 $-1 #
coedge $-1 $168 $109 $103 $163 reversed $169 $-1 #
edge $-1 $233 -32.4652287296623 $114 32.4652287296623 $162 $234 forward 7 unknown #
coedge $-1 $105 $104 $174 $235 forward $41 $-1 #
coedge $-1 $228 $229 $104 $166 reversed $158 $-1 #
edge $-1 $171 -49.396038697470019 $236 49.396038697470019 $165 $237 forward 7 unknown #
edge $-1 $176 -49.396038697470019 $170 49.396038697470019 $108 $238 forward 7 unknown #
coedge $-1 $106 $162 $228 $239 reversed $169 $-1 #
loop $-1 $-1 $109 $157 #
vertex $-1 $107 $240 #
vertex $-1 $107 $241 #
straight-curve $-1 49.396038697470019 0 11.395080282596702 0 1 0 I I #
straight-curve $-1 49.396038697470019 -32.4652287296623 0 0 0 -1 I I #
coedge $-1 $160 $111 $164 $235 reversed $101 $-1 #
coedge $-1 $111 $160 $113 $178 reversed $101 $-1 #
vertex $-1 $235 $242 #
straight-curve $-1 -49.396038697470019 -32.4652287296623 0 0 0 -1 I I #
edge $-1 $115 -32.4652287296623 $243 32.4652287296623 $175 $244 forward 7 unknown #
point $-1 49.396038697470019 -32.4652287296623 -11.395080282596702 #
point $-1 -49.396038697470019 -32.4652287296623 -11.395080282596702 #
face $-1 $-1 $194 $16 $-1 $245 reversed single #
plane-surface $-1 -43.762243122833254 -36.590315953091959 0 -1 0 0 0 0 1 forward_v I I I I #
coedge $-1 $246 $247 $248 $249 forward $118 $-1 #
coedge $-1 $248 $120 $193 $250 reversed $71 $-1 #
coedge $-1 $120 $248 $121 $188 reversed $71 $-1 #
edge $-1 $190 -11.395080282596702 $195 11.395080282596702 $120 $251 forward 7 unknown #
coedge $-1 $122 $121 $247 $252 forward $45 $-1 #
edge $-1 $190 32.4652287296623 $253 40.715403176521619 $185 $254 forward 7 unknown #
edge $-1 $255 -4.1250872234296594 $130 4.1250872234296594 $127 $256 forward 7 unknown #
vertex $-1 $188 $257 #
straight-curve $-1 0 -32.4652287296623 11.395080282596702 -1 0 0 I I #
coedge $-1 $258 $125 $128 $198 forward $194 $-1 #
coedge $-1 $125 $258 $184 $250 forward $194 $-1 #
loop $-1 $-1 $125 $181 #
vertex $-1 $186 $259 #
straight-curve $-1 0 -32.4652287296623 -11.395080282596702 1 0 0 I I #
coedge $-1 $128 $127 $260 $261 forward $129 $-1 #
edge $-1 $131 -4.1250872234296594 $262 4.1250872234296594 $128 $263 forward 7 unknown #
point $-1 -43.762243122833254 -32.4652287296623 11.395080282596702 #
point $-1 -43.762243122833254 -32.4652287296623 -11.395080282596702 #
plane-surface $-1 0 0 11.395080282596702 0 0 1 1 0 0 forward_v I I I I #
coedge $-1 $212 $211 $204 $264 forward $134 $-1 #
coedge $-1 $204 $136 $138 $208 reversed $79 $-1 #
coedge $-1 $136 $203 $202 $264 reversed $79 $-1 #
coedge $-1 $144 $139 $136 $206 forward $145 $-1 #
edge $-1 $209 4.5745935197056298 $265 13.463272517300119 $205 $266 forward 7 unknown #
coedge $-1 $138 $137 $212 $267 reversed $49 $-1 #
edge $-1 $268 -64.9304574593246 $209 -53.943445914028942 $203 $269 forward 7 unknown #
vertex $-1 $140 $270 #
straight-curve $-1 11.177975926813907 23.576549732067811 11.395080282596702 1 0 0 I I #
coedge $-1 $202 $141 $144 $216 reversed $134 $-1 #
coedge $-1 $141 $202 $207 $267 forward $134 $-1 #
vertex $-1 $142 $271 #
straight-curve $-1 16.287838368446806 32.4652287296623 61.513355818447891 0 0 1 I I #
straight-curve $-1 16.287838368446806 -20.06461445322023 43.102242653778674 0 0.80901698891910034 -0.5877852598018023 I I #
edge $-1 $265 -28.424065338808823 $146 -16.287838368446806 $211 $272 forward 7 unknown #
point $-1 16.287838368446806 32.4652287296623 11.395080282596702 #
point $-1 16.287838368446806 23.576549732067811 11.395080282596702 #
edge $-1 $273 1 $273 0 $149 $-1 forward 7 unknown #
vertex $-1 $150 $274 #
ellipse-curve $-1 19.755331788550237 24.561742392078756 3.4049714885718267 0 0.5877852598018023 0.80901698891910034 1.5 0 0 1 I I #
point $-1 21.255331788550237 28.020889230865048 8.1660785647981875 #
edge $-1 $275 1 $275 0 $153 $-1 forward 7 unknown #
vertex $-1 $154 $276 #
ellipse-curve $-1 24.956571918705393 24.561742392078756 3.4049714885718267 0 0.5877852598018023 0.80901698891910034 1.5 0 0 1 I I #
point $-1 26.456571918705393 28.020889230865048 8.1660785647981875 #
plane-surface $-1 49.396038697470019 0 0 -1 0 0 0 0 1 forward_v I I I I #
coedge $-1 $231 $165 $168 $239 forward $158 $-1 #
coedge $-1 $165 $231 $160 $230 reversed $158 $-1 #
edge $-1 $236 -11.395080282596702 $243 11.395080282596702 $229 $277 forward 7 unknown #
coedge $-1 $229 $228 $161 $232 reversed $158 $-1 #
edge $-1 $243 -49.396038697470019 $233 49.396038697470019 $231 $278 forward 7 unknown #
vertex $-1 $163 $279 #
straight-curve $-1 49.396038697470019 0 -11.395080282596702 0 -1 0 I I #
edge $-1 $236 -32.4652287296623 $176 32.4652287296623 $174 $280 forward 7 unknown #
vertex $-1 $166 $281 #
straight-curve $-1 0 32.4652287296623 11.395080282596702 -1 0 0 I I #
straight-curve $-1 0 -32.4652287296623 11.395080282596702 1 0 0 I I #
edge $-1 $171 -11.395080282596702 $233 11.395080282596702 $168 $282 forward 7 unknown #
point $-1 49.396038697470019 -32.4652287296623 11.395080282596702 #
point $-1 49.396038697470019 32.4652287296623 11.395080282596702 #
point $-1 -49.396038697470019 -32.4652287296623 11.395080282596702 #
vertex $-1 $232 $283 #
straight-curve $-1 -49.396038697470019 0 -11.395080282596702 0 1 0 I I #
plane-surface $-1 0 0 -11.395080282596702 0 0 1 1 0 0 forward_v I I I I #
coedge $-1 $260 $183 $258 $284 reversed $118 $-1 #
coedge $-1 $183 $260 $187 $252 reversed $118 $-1 #
coedge $-1 $185 $184 $183 $249 reversed $71 $-1 #
edge $-1 $253 -11.395080282596702 $285 11.395080282596702 $248 $286 forward 7 unknown #
edge $-1 $285 -40.715403176521619 $195 -32.4652287296623 $184 $287 forward 7 unknown #
straight-curve $-1 -49.396038697470019 -32.4652287296623 0 0 0 -1 I I #
edge $-1 $253 -2.816897787318382 $255 2.816897787318382 $247 $288 forward 7 unknown #
vertex $-1 $188 $289 #
straight-curve $-1 -49.396038697470019 0 11.395080282596702 0 -1 0 I I #
vertex $-1 $189 $290 #
straight-curve $-1 -43.762243122833254 -36.590315953091959 11.395080282596702 0 1 0 I I #
point $-1 -49.396038697470019 -32.4652287296623 11.395080282596702 #
coedge $-1 $193 $192 $246 $284 forward $194 $-1 #
point $-1 -49.396038697470019 -32.4652287296623 -11.395080282596702 #
coedge $-1 $247 $246 $197 $261 reversed $118 $-1 #
edge $-1 $255 -11.395080282596702 $262 11.395080282596702 $197 $291 forward 7 unknown #
vertex $-1 $261 $292 #
straight-curve $-1 -43.762243122833254 -36.590315953091959 -11.395080282596702 0 -1 0 I I #
edge $-1 $265 50.11827553585119 $268 56.576278971448197 $202 $293 forward 7 unknown #
vertex $-1 $216 $294 #
straight-curve $-1 28.424065338808823 19.001956212362181 11.395080282596702 0 1 0 I I #
edge $-1 $268 -17.246089411994916 $213 -5.1098624416328988 $212 $295 forward 7 unknown #
vertex $-1 $267 $296 #
straight-curve $-1 28.424065338808823 -20.06461445322023 43.102242653778674 0 -0.80901698891910034 0.5877852598018023 I I #
point $-1 28.424065338808823 23.576549732067811 11.395080282596702 #
point $-1 16.287838368446806 32.465228729662293 4.9370768469996946 #
straight-curve $-1 0 32.4652287296623 11.395080282596702 -1 0 0 I I #
vertex $-1 $219 $297 #
point $-1 21.255331788550237 24.561742392078756 3.4049714885718267 #
vertex $-1 $223 $298 #
point $-1 26.456571918705393 24.561742392078756 3.4049714885718267 #
straight-curve $-1 -49.396038697470019 32.4652287296623 0 0 0 -1 I I #
straight-curve $-1 0 32.4652287296623 -11.395080282596702 1 0 0 I I #
point $-1 49.396038697470019 32.4652287296623 -11.395080282596702 #
straight-curve $-1 -49.396038697470019 0 11.395080282596702 0 -1 0 I I #
point $-1 -49.396038697470019 32.4652287296623 11.395080282596702 #
straight-curve $-1 49.396038697470019 32.4652287296623 0 0 0 -1 I I #
point $-1 -49.396038697470019 32.4652287296623 -11.395080282596702 #
edge $-1 $262 -2.816897787318382 $285 2.816897787318382 $246 $299 forward 7 unknown #
vertex $-1 $250 $300 #
straight-curve $-1 -49.396038697470019 -40.715403176521619 0 0 0 -1 I I #
straight-curve $-1 -49.396038697470019 0 -11.395080282596702 0 1 0 I I #
straight-curve $-1 -46.579140910151636 -40.715403176521619 11.395080282596702 1 0 0 I I #
point $-1 -49.396038697470019 -40.715403176521619 11.395080282596702 #
point $-1 -43.762243122833254 -40.715403176521619 11.395080282596702 #
straight-curve $-1 -43.762243122833254 -40.715403176521619 0 0 0 -1 I I #
point $-1 -43.762243122833254 -40.715403176521619 -11.395080282596702 #
straight-curve $-1 28.424065338808823 32.4652287296623 61.513355818447891 0 0 -1 I I #
point $-1 28.424065338808823 32.4652287296623 11.395080282596702 #
straight-curve $-1 11.177975926813907 32.4652287296623 4.937076846999684 -1 0 0 I I #
point $-1 28.424065338808823 32.465228729662293 4.9370768469996946 #
point $-1 19.755331788550237 23.680064502376055 2.1914460051931761 #
point $-1 24.956571918705393 23.680064502376055 2.1914460051931761 #
straight-curve $-1 -46.579140910151636 -40.715403176521619 -11.395080282596702 -1 0 0 I I #
point $-1 -49.396038697470019 -40.715403176521619 -11.395080282596702 #
End-of-ACIS-data 