500 0 5 0           
7 Unknown 11 ACIS 5.0 NT 24 Fri Mar 26 19:37:32 1999 
-1 9.9999999999999995e-007 1e-010 
body $-1 $5 $-1 $6 #
body $-1 $7 $-1 $8 #
body $-1 $9 $-1 $10 #
body $-1 $11 $-1 $12 #
body $-1 $13 $-1 $14 #
lump $-1 $-1 $15 $0 #
transform $-1 1 0 0 0 1 0 0 0 1 49.853816339609978 26.087024596665934 6.6268064404818334 1 rotate no_reflect no_shear #
lump $-1 $-1 $16 $1 #
transform $-1 1 0 0 0 1 0 0 0 1 49.853816339609978 26.087024596665934 6.6268064404818334 1 rotate no_reflect no_shear #
lump $-1 $-1 $17 $2 #
transform $-1 1 0 0 0 1 0 0 0 1 49.853816339609978 26.087024596665934 6.6268064404818334 1 rotate no_reflect no_shear #
lump $-1 $-1 $18 $3 #
transform $-1 1 0 0 0 1 0 0 0 1 49.853816339609978 26.087024596665934 6.6268064404818334 1 rotate no_reflect no_shear #
lump $-1 $-1 $19 $4 #
transform $-1 1 0 0 0 1 0 0 0 1 49.853816339609978 26.087024596665934 6.6268064404818334 1 rotate no_reflect no_shear #
shell $-1 $-1 $-1 $20 $-1 $5 #
shell $-1 $-1 $-1 $21 $-1 $7 #
shell $-1 $-1 $-1 $22 $-1 $9 #
shell $-1 $-1 $-1 $23 $-1 $11 #
shell $-1 $-1 $-1 $24 $-1 $13 #
face $-1 $25 $26 $15 $-1 $27 forward single #
face $-1 $28 $29 $16 $-1 $30 forward single #
face $-1 $31 $32 $17 $-1 $33 reversed single #
face $-1 $34 $35 $18 $-1 $36 forward single #
face $-1 $37 $38 $19 $-1 $39 forward single #
face $-1 $40 $41 $15 $-1 $42 reversed single #
loop $-1 $-1 $43 $20 #
plane-surface $-1 0 0 6.6268064404818334 0 0 1 1 0 0 forward_v I I I I #
face $-1 $44 $45 $16 $-1 $46 forward single #
loop $-1 $-1 $47 $21 #
plane-surface $-1 0 -26.087024596665934 0 0 1 0 0 0 1 forward_v I I I I #
face $-1 $48 $49 $17 $-1 $50 reversed single #
loop $-1 $-1 $51 $22 #
plane-surface $-1 -30.585689843803564 44.424528536402086 113.26589948624769 -1 0 0 0 0.6018150307709319 0.79863550430605224 forward_v I I I I #
face $-1 $52 $53 $18 $-1 $54 forward single #
loop $-1 $55 $56 $23 #
cone-surface $-1 -44.348637340808146 22.316271663014909 3.2933825516302342 0 -0.6018150307709319 -0.79863550430605224 1.5 0 0 1 I I 0 1 1.5 forward I I I I #
face $-1 $57 $58 $19 $-1 $59 forward single #
loop $-1 $60 $61 $24 #
cone-surface $-1 -36.090868842605403 22.316271663014909 3.2933825516302342 0 -0.6018150307709319 -0.79863550430605224 1.5 0 0 1 I I 0 1 1.5 forward I I I I #
face $-1 $62 $63 $15 $-1 $64 reversed single #
loop $-1 $-1 $65 $25 #
plane-surface $-1 0 0 -6.6268064404818334 0 0 1 1 0 0 forward_v I I I I #
coedge $-1 $66 $67 $68 $69 forward $26 $-1 #
face $-1 $70 $71 $16 $-1 $72 reversed single #
loop $-1 $-1 $73 $28 #
plane-surface $-1 0 0 6.6268064404818334 0 0 1 1 0 0 forward_v I I I I #
coedge $-1 $74 $75 $76 $77 forward $29 $-1 #
face $-1 $78 $79 $17 $-1 $80 reversed single #
loop $-1 $-1 $81 $31 #
plane-surface $-1 -40.219753091706771 -15.581023492539444 33.635843978316245 0 0.6018150307709319 0.79863550430605224 1 0 0 forward_v I I I I #
coedge $-1 $82 $83 $84 $85 reversed $32 $-1 #
face $-1 $-1 $86 $18 $-1 $87 forward single #
loop $-1 $88 $89 $34 #
cone-surface $-1 -44.348637340808146 21.007080155830906 1.5560267759964601 0 -0.6018150307709319 -0.79863550430605224 0.75 0 0 1 I I -0.70710678118654757 0.70710678118654757 0.75 forward I I I I #
loop $-1 $-1 $90 $23 #
coedge $-1 $56 $56 $91 $92 reversed $35 $-1 #
face $-1 $-1 $93 $19 $-1 $94 forward single #
loop $-1 $95 $96 $37 #
cone-surface $-1 -36.090868842605403 21.007080155830906 1.5560267759964601 0 -0.6018150307709319 -0.79863550430605224 0.75 0 0 1 I I -0.70710678118654757 0.70710678118654757 0.75 forward I I I I #
loop $-1 $-1 $97 $24 #
coedge $-1 $61 $61 $98 $99 reversed $38 $-1 #
face $-1 $100 $101 $15 $-1 $102 reversed single #
loop $-1 $-1 $103 $40 #
plane-surface $-1 0 -26.087024596665934 0 0 1 0 0 0 1 forward_v I I I I #
coedge $-1 $104 $105 $106 $107 forward $41 $-1 #
coedge $-1 $108 $43 $109 $110 forward $26 $-1 #
coedge $-1 $43 $108 $111 $112 forward $26 $-1 #
coedge $-1 $113 $114 $43 $69 reversed $115 $-1 #
edge $-1 $116 -26.087024596665934 $117 26.087024596665934 $68 $118 forward 7 unknown #
face $-1 $119 $120 $16 $-1 $121 reversed single #
loop $-1 $-1 $122 $44 #
plane-surface $-1 -49.853816339609978 0 0 1 0 0 0 0 -1 forward_v I I I I #
coedge $-1 $123 $124 $125 $126 forward $45 $-1 #
coedge $-1 $125 $47 $122 $127 reversed $29 $-1 #
coedge $-1 $47 $125 $128 $129 reversed $29 $-1 #
coedge $-1 $130 $131 $47 $77 reversed $120 $-1 #
edge $-1 $132 -49.853816339609978 $133 49.853816339609978 $76 $134 forward 7 unknown #
face $-1 $135 $136 $17 $-1 $137 forward single #
loop $-1 $-1 $84 $48 #
plane-surface $-1 0 26.087024596665934 0 0 -1 0 0 0 -1 forward_v I I I I #
coedge $-1 $138 $139 $140 $141 reversed $49 $-1 #
coedge $-1 $83 $51 $142 $143 reversed $32 $-1 #
coedge $-1 $51 $82 $138 $144 reversed $32 $-1 #
coedge $-1 $140 $145 $51 $85 forward $79 $-1 #
edge $-1 $146 50.006143302642009 $147 54.396232785536739 $84 $148 forward 7 unknown #
loop $-1 $-1 $91 $52 #
plane-surface $-1 -40.219753091706771 -15.581023492539444 33.635843978316245 0 0.6018150307709319 0.79863550430605224 1 0 0 forward_v I I I I #
loop $-1 $-1 $149 $34 #
coedge $-1 $89 $89 $90 $150 reversed $53 $-1 #
coedge $-1 $90 $90 $89 $150 forward $55 $-1 #
coedge $-1 $91 $91 $56 $92 forward $86 $-1 #
edge $-1 $151 -1.7817304099396953e-015 $151 6.2831853071795987 $91 $152 forward 7 unknown #
loop $-1 $-1 $98 $57 #
plane-surface $-1 -40.219753091706771 -15.581023492539444 33.635843978316245 0 0.6018150307709319 0.79863550430605224 1 0 0 forward_v I I I I #
loop $-1 $-1 $153 $37 #
coedge $-1 $96 $96 $97 $154 reversed $58 $-1 #
coedge $-1 $97 $97 $96 $154 forward $60 $-1 #
coedge $-1 $98 $98 $61 $99 forward $93 $-1 #
edge $-1 $155 -1.7817304099396953e-015 $155 6.2831853071795987 $98 $156 forward 7 unknown #
face $-1 $157 $158 $15 $-1 $159 reversed single #
loop $-1 $-1 $160 $62 #
plane-surface $-1 -49.853816339609978 0 0 1 0 0 0 0 -1 forward_v I I I I #
coedge $-1 $161 $111 $162 $163 forward $63 $-1 #
coedge $-1 $164 $65 $161 $165 forward $41 $-1 #
coedge $-1 $65 $164 $166 $167 forward $41 $-1 #
coedge $-1 $114 $113 $65 $107 reversed $115 $-1 #
edge $-1 $168 -26.087024596665934 $169 26.087024596665934 $106 $170 forward 7 unknown #
coedge $-1 $67 $66 $171 $172 forward $26 $-1 #
coedge $-1 $173 $174 $66 $110 reversed $158 $-1 #
edge $-1 $117 -49.853816339609978 $175 49.853816339609978 $109 $176 forward 7 unknown #
coedge $-1 $103 $177 $67 $112 reversed $63 $-1 #
edge $-1 $178 -49.853816339609978 $116 49.853816339609978 $111 $179 forward 7 unknown #
coedge $-1 $106 $68 $177 $180 forward $115 $-1 #
coedge $-1 $68 $106 $173 $181 reversed $115 $-1 #
loop $-1 $-1 $113 $157 #
vertex $-1 $69 $182 #
vertex $-1 $69 $183 #
straight-curve $-1 49.853816339609978 0 6.6268064404818334 0 1 0 I I #
face $-1 $184 $185 $16 $-1 $186 reversed single #
loop $-1 $-1 $130 $70 #
plane-surface $-1 0 -29.137477059564095 3.6268064404818334 0 0 1 1 0 0 forward_v I I I I #
coedge $-1 $187 $188 $74 $127 forward $71 $-1 #
coedge $-1 $189 $73 $188 $190 forward $45 $-1 #
coedge $-1 $73 $189 $191 $192 forward $45 $-1 #
coedge $-1 $75 $74 $73 $126 reversed $29 $-1 #
edge $-1 $193 -49.853816339609978 $194 49.853816339609978 $73 $195 forward 7 unknown #
edge $-1 $194 -6.6268064404818334 $133 -3.6268064404818334 $122 $196 forward 7 unknown #
coedge $-1 $191 $197 $75 $129 forward $198 $-1 #
edge $-1 $132 3.6268064404818334 $193 6.6268064404818334 $128 $199 forward 7 unknown #
coedge $-1 $200 $76 $197 $201 forward $120 $-1 #
coedge $-1 $76 $200 $187 $202 forward $120 $-1 #
vertex $-1 $129 $203 #
vertex $-1 $127 $204 #
straight-curve $-1 0 -26.087024596665934 3.6268064404818334 -1 0 0 I I #
face $-1 $-1 $205 $17 $-1 $206 reversed single #
loop $-1 $-1 $142 $78 #
plane-surface $-1 0 0 6.6268064404818334 0 0 1 1 0 0 forward_v I I I I #
coedge $-1 $207 $81 $83 $144 forward $49 $-1 #
coedge $-1 $81 $207 $208 $209 reversed $49 $-1 #
coedge $-1 $210 $84 $81 $141 forward $79 $-1 #
edge $-1 $147 10.475813297950179 $211 29.743939793756592 $140 $212 forward 7 unknown #
coedge $-1 $213 $214 $82 $143 forward $136 $-1 #
edge $-1 $215 -1.9510850706255773 $146 3.874760328464891 $142 $216 forward 7 unknown #
edge $-1 $147 -52.174049193331882 $215 -44.87930037778473 $83 $217 forward 7 unknown #
coedge $-1 $84 $210 $213 $218 reversed $79 $-1 #
vertex $-1 $218 $219 #
vertex $-1 $85 $220 #
straight-curve $-1 -30.585689843803564 26.087024596665934 56.632949743123845 0 0 -1 I I #
coedge $-1 $149 $149 $-1 $221 reversed $88 $-1 #
edge $-1 $222 0 $222 6.2831853071796004 $89 $223 forward 7 unknown #
vertex $-1 $92 $224 #
ellipse-curve $-1 -44.348637340808146 23.17410189712071 4.4317616990344648 0 0.6018150307709319 0.79863550430605224 1.5 0 0 1 I I #
coedge $-1 $153 $153 $-1 $225 reversed $95 $-1 #
edge $-1 $226 0 $226 6.2831853071796004 $96 $227 forward 7 unknown #
vertex $-1 $99 $228 #
ellipse-curve $-1 -36.090868842605403 23.17410189712071 4.4317616990344648 0 0.6018150307709319 0.79863550430605224 1.5 0 0 1 I I #
face $-1 $-1 $115 $15 $-1 $229 reversed single #
loop $-1 $-1 $173 $100 #
plane-surface $-1 0 26.087024596665934 0 0 -1 0 0 0 -1 forward_v I I I I #
coedge $-1 $230 $171 $174 $231 forward $101 $-1 #
coedge $-1 $177 $103 $104 $165 reversed $63 $-1 #
coedge $-1 $171 $230 $103 $163 reversed $101 $-1 #
edge $-1 $178 -6.6268064404818334 $232 6.6268064404818334 $162 $233 forward 7 unknown #
coedge $-1 $105 $104 $230 $234 forward $41 $-1 #
edge $-1 $169 -49.853816339609978 $232 49.853816339609978 $161 $235 forward 7 unknown #
coedge $-1 $174 $173 $105 $167 reversed $158 $-1 #
edge $-1 $236 -49.853816339609978 $168 49.853816339609978 $166 $237 forward 7 unknown #
vertex $-1 $107 $238 #
vertex $-1 $180 $239 #
straight-curve $-1 49.853816339609978 0 -6.6268064404818334 0 -1 0 I I #
coedge $-1 $160 $162 $108 $172 reversed $101 $-1 #
edge $-1 $175 -26.087024596665934 $178 26.087024596665934 $171 $240 forward 7 unknown #
coedge $-1 $166 $109 $114 $181 forward $158 $-1 #
coedge $-1 $109 $166 $160 $231 reversed $158 $-1 #
vertex $-1 $110 $241 #
straight-curve $-1 0 26.087024596665934 6.6268064404818334 -1 0 0 I I #
coedge $-1 $111 $161 $113 $180 reversed $63 $-1 #
vertex $-1 $172 $242 #
straight-curve $-1 0 -26.087024596665934 6.6268064404818334 1 0 0 I I #
edge $-1 $116 -6.6268064404818334 $169 6.6268064404818334 $113 $243 forward 7 unknown #
edge $-1 $117 -6.6268064404818334 $168 6.6268064404818334 $114 $244 forward 7 unknown #
point $-1 49.853816339609978 -26.087024596665934 6.6268064404818334 #
point $-1 49.853816339609978 26.087024596665934 6.6268064404818334 #
face $-1 $-1 $198 $16 $-1 $245 reversed single #
loop $-1 $-1 $246 $119 #
plane-surface $-1 0 -32.187929522462255 5.1268064404818334 0 1 0 0 0 1 forward_v I I I I #
coedge $-1 $247 $122 $131 $202 reversed $71 $-1 #
coedge $-1 $122 $247 $123 $190 reversed $71 $-1 #
coedge $-1 $124 $123 $248 $249 forward $45 $-1 #
edge $-1 $194 26.087024596665934 $250 32.187929522462255 $188 $251 forward 7 unknown #
coedge $-1 $252 $128 $124 $192 reversed $198 $-1 #
edge $-1 $253 -32.187929522462255 $193 -26.087024596665934 $191 $254 forward 7 unknown #
vertex $-1 $129 $255 #
vertex $-1 $190 $256 #
straight-curve $-1 0 -26.087024596665934 6.6268064404818334 -1 0 0 I I #
straight-curve $-1 -49.853816339609978 -26.087024596665934 0 0 0 -1 I I #
coedge $-1 $128 $252 $130 $201 reversed $198 $-1 #
loop $-1 $-1 $128 $184 #
straight-curve $-1 49.853816339609978 -26.087024596665934 0 0 0 1 I I #
coedge $-1 $131 $130 $257 $258 forward $120 $-1 #
edge $-1 $132 -3.0504524628981606 $259 3.0504524628981606 $197 $260 forward 7 unknown #
edge $-1 $261 -3.0504524628981606 $133 3.0504524628981606 $187 $262 forward 7 unknown #
point $-1 49.853816339609978 -26.087024596665934 3.6268064404818334 #
point $-1 -49.853816339609978 -26.087024596665934 3.6268064404818334 #
loop $-1 $-1 $208 $135 #
plane-surface $-1 -49.853816339609978 0 0 1 0 0 0 0 -1 forward_v I I I I #
coedge $-1 $139 $138 $214 $263 reversed $49 $-1 #
coedge $-1 $264 $265 $139 $209 forward $205 $-1 #
edge $-1 $211 -35.830991676639201 $266 -28.536242861092063 $208 $267 forward 7 unknown #
coedge $-1 $145 $140 $265 $268 reversed $79 $-1 #
vertex $-1 $141 $269 #
straight-curve $-1 -20.109876545853385 26.087024596665934 2.2367169575871149 -1 0 0 I I #
coedge $-1 $270 $142 $145 $218 forward $136 $-1 #
coedge $-1 $142 $270 $207 $263 forward $136 $-1 #
vertex $-1 $143 $271 #
straight-curve $-1 -30.585689843803564 22.212264268201043 6.6268064404818361 0 1 0 I I #
straight-curve $-1 -30.585689843803564 -15.581023492539444 33.635843978316245 0 -0.79863550430605224 0.6018150307709319 I I #
edge $-1 $146 30.585689843803564 $272 49.853816339609978 $145 $273 forward 7 unknown #
point $-1 -30.585689843803564 26.087024596665934 6.6268064404818334 #
point $-1 -30.585689843803564 26.087024596665934 2.2367169575871095 #
edge $-1 $274 1 $274 0 $149 $-1 forward 7 unknown #
vertex $-1 $150 $275 #
ellipse-curve $-1 -44.348637340808146 21.458441428909104 2.1550034042259991 0 0.6018150307709319 0.79863550430605224 1.5 0 0 1 I I #
point $-1 -42.848637340808146 23.17410189712071 4.4317616990344693 #
edge $-1 $276 1 $276 0 $153 $-1 forward 7 unknown #
vertex $-1 $154 $277 #
ellipse-curve $-1 -36.090868842605403 21.458441428909104 2.1550034042259991 0 0.6018150307709319 0.79863550430605224 1.5 0 0 1 I I #
point $-1 -34.590868842605403 23.17410189712071 4.4317616990344693 #
plane-surface $-1 49.853816339609978 0 0 -1 0 0 0 0 1 forward_v I I I I #
coedge $-1 $162 $160 $164 $234 reversed $101 $-1 #
edge $-1 $175 -6.6268064404818334 $236 6.6268064404818334 $174 $278 forward 7 unknown #
vertex $-1 $234 $279 #
straight-curve $-1 -49.853816339609978 -26.087024596665934 0 0 0 -1 I I #
edge $-1 $232 -26.087024596665934 $236 26.087024596665934 $230 $280 forward 7 unknown #
straight-curve $-1 0 -26.087024596665934 -6.6268064404818334 -1 0 0 I I #
vertex $-1 $167 $281 #
straight-curve $-1 0 26.087024596665934 -6.6268064404818334 1 0 0 I I #
point $-1 49.853816339609978 26.087024596665934 -6.6268064404818334 #
point $-1 49.853816339609978 -26.087024596665934 -6.6268064404818334 #
straight-curve $-1 -49.853816339609978 0 6.6268064404818334 0 -1 0 I I #
point $-1 -49.853816339609978 26.087024596665934 6.6268064404818334 #
point $-1 -49.853816339609978 -26.087024596665934 6.6268064404818334 #
straight-curve $-1 49.853816339609978 -26.087024596665934 0 0 0 -1 I I #
straight-curve $-1 49.853816339609978 26.087024596665934 0 0 0 -1 I I #
plane-surface $-1 49.853816339609978 0 0 -1 0 0 0 0 1 forward_v I I I I #
coedge $-1 $257 $248 $247 $282 forward $185 $-1 #
coedge $-1 $188 $187 $246 $282 reversed $71 $-1 #
coedge $-1 $246 $283 $189 $249 reversed $185 $-1 #
edge $-1 $250 -49.853816339609978 $253 49.853816339609978 $248 $284 forward 7 unknown #
vertex $-1 $190 $285 #
straight-curve $-1 -49.853816339609978 0 6.6268064404818334 0 -1 0 I I #
coedge $-1 $197 $191 $283 $286 forward $198 $-1 #
vertex $-1 $192 $287 #
straight-curve $-1 49.853816339609978 0 6.6268064404818334 0 1 0 I I #
point $-1 49.853816339609978 -26.087024596665934 6.6268064404818334 #
point $-1 -49.853816339609978 -26.087024596665934 6.6268064404818334 #
coedge $-1 $283 $246 $200 $258 reversed $185 $-1 #
edge $-1 $259 -49.853816339609978 $261 49.853816339609978 $257 $288 forward 7 unknown #
vertex $-1 $286 $289 #
straight-curve $-1 49.853816339609978 -29.137477059564095 3.6268064404818334 0 -1 0 I I #
vertex $-1 $202 $290 #
straight-curve $-1 -49.853816339609978 -29.137477059564095 3.6268064404818334 0 1 0 I I #
edge $-1 $266 -29.743939793756592 $215 -10.475813297950179 $214 $291 forward 7 unknown #
coedge $-1 $265 $208 $270 $292 reversed $205 $-1 #
coedge $-1 $208 $264 $210 $268 forward $205 $-1 #
vertex $-1 $209 $293 #
straight-curve $-1 -49.853816339609978 -2.5288775107927748 23.800346316016739 0 -0.79863550430605224 0.6018150307709319 I I #
edge $-1 $272 -6.6268064404818334 $211 -2.2367169575871131 $210 $294 forward 7 unknown #
point $-1 -49.853816339609978 26.087024596665934 2.2367169575871131 #
coedge $-1 $214 $213 $264 $292 forward $136 $-1 #
point $-1 -30.585689843803564 20.261179197575466 6.6268064404818325 #
vertex $-1 $218 $295 #
straight-curve $-1 0 26.087024596665934 6.6268064404818334 -1 0 0 I I #
vertex $-1 $221 $296 #
point $-1 -42.848637340808146 21.458441428909104 2.1550034042259991 #
vertex $-1 $225 $297 #
point $-1 -34.590868842605403 21.458441428909104 2.1550034042259991 #
straight-curve $-1 -49.853816339609978 26.087024596665934 0 0 0 -1 I I #
point $-1 -49.853816339609978 -26.087024596665934 -6.6268064404818334 #
straight-curve $-1 -49.853816339609978 0 -6.6268064404818334 0 1 0 I I #
point $-1 -49.853816339609978 26.087024596665934 -6.6268064404818334 #
edge $-1 $250 -1.5 $261 1.5 $247 $298 forward 7 unknown #
coedge $-1 $248 $257 $252 $286 reversed $185 $-1 #
straight-curve $-1 0 -32.187929522462255 6.6268064404818334 1 0 0 I I #
point $-1 -49.853816339609978 -32.187929522462255 6.6268064404818334 #
edge $-1 $253 -1.5 $259 1.5 $252 $299 forward 7 unknown #
point $-1 49.853816339609978 -32.187929522462255 6.6268064404818334 #
straight-curve $-1 0 -32.187929522462255 3.6268064404818334 -1 0 0 I I #
point $-1 49.853816339609978 -32.187929522462255 3.6268064404818334 #
point $-1 -49.853816339609978 -32.187929522462255 3.6268064404818334 #
straight-curve $-1 -20.109876545853385 20.261179197575466 6.6268064404818325 1 0 0 I I #
edge $-1 $272 -26.087024596665934 $266 -20.261179197575466 $264 $300 forward 7 unknown #
point $-1 -49.853816339609978 20.261179197575466 6.6268064404818325 #
straight-curve $-1 -49.853816339609978 26.087024596665934 0 0 0 -1 I I #
point $-1 -49.853816339609978 26.087024596665934 6.6268064404818334 #
point $-1 -44.348637340808146 20.555718882752707 0.95705014776692088 #
point $-1 -36.090868842605403 20.555718882752707 0.95705014776692088 #
straight-curve $-1 -49.853816339609978 -32.187929522462255 5.1268064404818334 0 0 -1 I I #
straight-curve $-1 49.853816339609978 -32.187929522462255 5.1268064404818334 0 0 -1 I I #
straight-curve $-1 -49.853816339609978 0 6.6268064404818334 0 -1 0 I I #
End-of-ACIS-data 